{
  "track_name": "12 - Final Stage",
  "duration_sec": 115.191,
  "sample_rate": 44100,
  "note_count": 8269,
  "unique_pitches": 28,
  "pitch_range": 41,
  "avg_note_duration": 0.0682,
  "reconstruction_stats": {
    "notes_reconstructed": 8269,
    "keyon_events": 8269,
    "keyoff_events": 1286,
    "orphan_keyons": 5,
    "unique_pitches": 28,
    "pitch_range": 41,
    "avg_duration_sec": 0.0682
  },
  "metadata": {
    "source": "U\\Undead Line\\12 - Final Stage.vgz"
  },
  "notes": [
    {
      "channel": 0,
      "note": 51,
      "start": 0.09,
      "duration": 0.3158,
      "velocity": 95,
      "chip": "ym2612"
    },
    {
      "channel": 1,
      "note": 58,
      "start": 0.0928,
      "duration": 0.1972,
      "velocity": 89,
      "chip": "ym2612"
    },
    {
      "channel": 3,
      "note": 75,
      "start": 0.0977,
      "duration": 1.9818,
      "velocity": 99,
      "chip": "ym2612"
    },
    {
      "channel": 1,
      "note": 61,
      "start": 0.2904,
      "duration": 0.231,
      "velocity": 89,
      "chip": "ym2612"
    },
    {
      "channel": 0,
      "note": 51,
      "start": 0.4057,
      "duration": 0.0143,
      "velocity": 95,
      "chip": "ym2612"
    },
    {
      "channel": 4,
      "note": 75,
      "start": 0.4071,
      "duration": 1.989,
      "velocity": 99,
      "chip": "ym2612"
    },
    {
      "channel": 0,
      "note": 51,
      "start": 0.42,
      "duration": 0.0146,
      "velocity": 95,
      "chip": "ym2612"
    },
    {
      "channel": 0,
      "note": 51,
      "start": 0.4346,
      "duration": 0.0144,
      "velocity": 95,
      "chip": "ym2612"
    },
    {
      "channel": 0,
      "note": 51,
      "start": 0.4491,
      "duration": 0.0146,
      "velocity": 95,
      "chip": "ym2612"
    },
    {
      "channel": 0,
      "note": 51,
      "start": 0.4637,
      "duration": 0.0142,
      "velocity": 95,
      "chip": "ym2612"
    },
    {
      "channel": 0,
      "note": 51,
      "start": 0.4778,
      "duration": 0.0146,
      "velocity": 95,
      "chip": "ym2612"
    },
    {
      "channel": 0,
      "note": 51,
      "start": 0.4924,
      "duration": 0.0144,
      "velocity": 95,
      "chip": "ym2612"
    },
    {
      "channel": 0,
      "note": 51,
      "start": 0.5068,
      "duration": 0.0144,
      "velocity": 95,
      "chip": "ym2612"
    },
    {
      "channel": 0,
      "note": 51,
      "start": 0.5213,
      "duration": 0.0145,
      "velocity": 95,
      "chip": "ym2612"
    },
    {
      "channel": 1,
      "note": 63,
      "start": 0.5219,
      "duration": 0.2307,
      "velocity": 89,
      "chip": "ym2612"
    },
    {
      "channel": 0,
      "note": 51,
      "start": 0.5358,
      "duration": 0.0142,
      "velocity": 95,
      "chip": "ym2612"
    },
    {
      "channel": 0,
      "note": 51,
      "start": 0.55,
      "duration": 0.0146,
      "velocity": 95,
      "chip": "ym2612"
    },
    {
      "channel": 0,
      "note": 51,
      "start": 0.5646,
      "duration": 0.0144,
      "velocity": 95,
      "chip": "ym2612"
    },
    {
      "channel": 0,
      "note": 51,
      "start": 0.579,
      "duration": 0.0144,
      "velocity": 95,
      "chip": "ym2612"
    },
    {
      "channel": 0,
      "note": 51,
      "start": 0.5935,
      "duration": 0.0143,
      "velocity": 95,
      "chip": "ym2612"
    },
    {
      "channel": 0,
      "note": 51,
      "start": 0.6078,
      "duration": 0.0146,
      "velocity": 95,
      "chip": "ym2612"
    },
    {
      "channel": 0,
      "note": 51,
      "start": 0.6224,
      "duration": 0.0144,
      "velocity": 95,
      "chip": "ym2612"
    },
    {
      "channel": 0,
      "note": 51,
      "start": 0.6369,
      "duration": 0.0144,
      "velocity": 95,
      "chip": "ym2612"
    },
    {
      "channel": 0,
      "note": 51,
      "start": 0.6513,
      "duration": 0.0144,
      "velocity": 95,
      "chip": "ym2612"
    },
    {
      "channel": 0,
      "note": 51,
      "start": 0.6658,
      "duration": 0.0143,
      "velocity": 95,
      "chip": "ym2612"
    },
    {
      "channel": 0,
      "note": 51,
      "start": 0.6801,
      "duration": 0.0146,
      "velocity": 95,
      "chip": "ym2612"
    },
    {
      "channel": 0,
      "note": 51,
      "start": 0.6946,
      "duration": 0.0144,
      "velocity": 95,
      "chip": "ym2612"
    },
    {
      "channel": 0,
      "note": 51,
      "start": 0.7091,
      "duration": 0.0144,
      "velocity": 95,
      "chip": "ym2612"
    },
    {
      "channel": 0,
      "note": 51,
      "start": 0.7235,
      "duration": 0.0143,
      "velocity": 95,
      "chip": "ym2612"
    },
    {
      "channel": 0,
      "note": 51,
      "start": 0.7378,
      "duration": 0.0146,
      "velocity": 95,
      "chip": "ym2612"
    },
    {
      "channel": 0,
      "note": 51,
      "start": 0.7525,
      "duration": 0.0035,
      "velocity": 95,
      "chip": "ym2612"
    },
    {
      "channel": 1,
      "note": 66,
      "start": 0.7531,
      "duration": 0.3161,
      "velocity": 89,
      "chip": "ym2612"
    },
    {
      "channel": 0,
      "note": 51,
      "start": 0.756,
      "duration": 0.0029,
      "velocity": 95,
      "chip": "ym2612"
    },
    {
      "channel": 0,
      "note": 51,
      "start": 0.7589,
      "duration": 0.0064,
      "velocity": 95,
      "chip": "ym2612"
    },
    {
      "channel": 0,
      "note": 51,
      "start": 0.7654,
      "duration": 0.0142,
      "velocity": 95,
      "chip": "ym2612"
    },
    {
      "channel": 0,
      "note": 51,
      "start": 0.7796,
      "duration": 0.0146,
      "velocity": 95,
      "chip": "ym2612"
    },
    {
      "channel": 0,
      "note": 51,
      "start": 0.7942,
      "duration": 0.0144,
      "velocity": 95,
      "chip": "ym2612"
    },
    {
      "channel": 0,
      "note": 51,
      "start": 0.8086,
      "duration": 0.0144,
      "velocity": 95,
      "chip": "ym2612"
    },
    {
      "channel": 0,
      "note": 51,
      "start": 0.823,
      "duration": 0.0144,
      "velocity": 95,
      "chip": "ym2612"
    },
    {
      "channel": 0,
      "note": 51,
      "start": 0.8374,
      "duration": 0.0146,
      "velocity": 95,
      "chip": "ym2612"
    },
    {
      "channel": 0,
      "note": 51,
      "start": 0.852,
      "duration": 0.0144,
      "velocity": 95,
      "chip": "ym2612"
    },
    {
      "channel": 0,
      "note": 51,
      "start": 0.8664,
      "duration": 0.0144,
      "velocity": 95,
      "chip": "ym2612"
    },
    {
      "channel": 0,
      "note": 51,
      "start": 0.8808,
      "duration": 0.0145,
      "velocity": 95,
      "chip": "ym2612"
    },
    {
      "channel": 0,
      "note": 51,
      "start": 0.8953,
      "duration": 0.0143,
      "velocity": 95,
      "chip": "ym2612"
    },
    {
      "channel": 0,
      "note": 51,
      "start": 0.9096,
      "duration": 0.0146,
      "velocity": 95,
      "chip": "ym2612"
    },
    {
      "channel": 0,
      "note": 51,
      "start": 0.9242,
      "duration": 0.0144,
      "velocity": 95,
      "chip": "ym2612"
    },
    {
      "channel": 0,
      "note": 51,
      "start": 0.9386,
      "duration": 0.0144,
      "velocity": 95,
      "chip": "ym2612"
    },
    {
      "channel": 0,
      "note": 51,
      "start": 0.9531,
      "duration": 0.0143,
      "velocity": 95,
      "chip": "ym2612"
    },
    {
      "channel": 0,
      "note": 51,
      "start": 0.9674,
      "duration": 0.0146,
      "velocity": 95,
      "chip": "ym2612"
    },
    {
      "channel": 0,
      "note": 51,
      "start": 0.982,
      "duration": 0.0144,
      "velocity": 95,
      "chip": "ym2612"
    },
    {
      "channel": 0,
      "note": 51,
      "start": 0.9964,
      "duration": 0.0145,
      "velocity": 95,
      "chip": "ym2612"
    },
    {
      "channel": 0,
      "note": 51,
      "start": 1.0109,
      "duration": 0.0144,
      "velocity": 95,
      "chip": "ym2612"
    },
    {
      "channel": 0,
      "note": 51,
      "start": 1.0253,
      "duration": 0.0143,
      "velocity": 95,
      "chip": "ym2612"
    },
    {
      "channel": 0,
      "note": 51,
      "start": 1.0396,
      "duration": 0.0146,
      "velocity": 95,
      "chip": "ym2612"
    },
    {
      "channel": 0,
      "note": 51,
      "start": 1.0542,
      "duration": 0.0144,
      "velocity": 95,
      "chip": "ym2612"
    },
    {
      "channel": 0,
      "note": 51,
      "start": 1.0687,
      "duration": 0.0144,
      "velocity": 95,
      "chip": "ym2612"
    },
    {
      "channel": 1,
      "note": 66,
      "start": 1.0692,
      "duration": 0.0143,
      "velocity": 89,
      "chip": "ym2612"
    },
    {
      "channel": 0,
      "note": 51,
      "start": 1.0831,
      "duration": 0.0143,
      "velocity": 95,
      "chip": "ym2612"
    },
    {
      "channel": 1,
      "note": 66,
      "start": 1.0835,
      "duration": 0.0145,
      "velocity": 89,
      "chip": "ym2612"
    },
    {
      "channel": 0,
      "note": 51,
      "start": 1.0974,
      "duration": 0.0146,
      "velocity": 95,
      "chip": "ym2612"
    },
    {
      "channel": 1,
      "note": 66,
      "start": 1.098,
      "duration": 0.0146,
      "velocity": 89,
      "chip": "ym2612"
    },
    {
      "channel": 0,
      "note": 51,
      "start": 1.112,
      "duration": 0.0144,
      "velocity": 95,
      "chip": "ym2612"
    },
    {
      "channel": 1,
      "note": 66,
      "start": 1.1126,
      "duration": 0.0144,
      "velocity": 89,
      "chip": "ym2612"
    },
    {
      "channel": 0,
      "note": 51,
      "start": 1.1264,
      "duration": 0.0144,
      "velocity": 95,
      "chip": "ym2612"
    },
    {
      "channel": 1,
      "note": 66,
      "start": 1.1271,
      "duration": 0.0143,
      "velocity": 89,
      "chip": "ym2612"
    },
    {
      "channel": 0,
      "note": 51,
      "start": 1.1409,
      "duration": 0.0144,
      "velocity": 95,
      "chip": "ym2612"
    },
    {
      "channel": 1,
      "note": 66,
      "start": 1.1414,
      "duration": 0.0146,
      "velocity": 89,
      "chip": "ym2612"
    },
    {
      "channel": 0,
      "note": 51,
      "start": 1.1553,
      "duration": 0.0143,
      "velocity": 95,
      "chip": "ym2612"
    },
    {
      "channel": 1,
      "note": 66,
      "start": 1.1559,
      "duration": 0.0143,
      "velocity": 89,
      "chip": "ym2612"
    },
    {
      "channel": 0,
      "note": 51,
      "start": 1.1696,
      "duration": 0.0146,
      "velocity": 95,
      "chip": "ym2612"
    },
    {
      "channel": 1,
      "note": 66,
      "start": 1.1702,
      "duration": 0.0146,
      "velocity": 89,
      "chip": "ym2612"
    },
    {
      "channel": 0,
      "note": 51,
      "start": 1.1842,
      "duration": 0.0144,
      "velocity": 95,
      "chip": "ym2612"
    },
    {
      "channel": 1,
      "note": 66,
      "start": 1.1849,
      "duration": 0.0144,
      "velocity": 89,
      "chip": "ym2612"
    },
    {
      "channel": 0,
      "note": 51,
      "start": 1.1986,
      "duration": 0.0145,
      "velocity": 95,
      "chip": "ym2612"
    },
    {
      "channel": 1,
      "note": 66,
      "start": 1.1993,
      "duration": 0.0143,
      "velocity": 89,
      "chip": "ym2612"
    },
    {
      "channel": 0,
      "note": 51,
      "start": 1.2131,
      "duration": 0.0142,
      "velocity": 95,
      "chip": "ym2612"
    },
    {
      "channel": 1,
      "note": 66,
      "start": 1.2136,
      "duration": 0.0144,
      "velocity": 89,
      "chip": "ym2612"
    },
    {
      "channel": 0,
      "note": 51,
      "start": 1.2274,
      "duration": 0.0146,
      "velocity": 95,
      "chip": "ym2612"
    },
    {
      "channel": 1,
      "note": 66,
      "start": 1.228,
      "duration": 0.0146,
      "velocity": 89,
      "chip": "ym2612"
    },
    {
      "channel": 0,
      "note": 51,
      "start": 1.242,
      "duration": 0.0144,
      "velocity": 95,
      "chip": "ym2612"
    },
    {
      "channel": 1,
      "note": 66,
      "start": 1.2426,
      "duration": 0.0144,
      "velocity": 89,
      "chip": "ym2612"
    },
    {
      "channel": 0,
      "note": 51,
      "start": 1.2564,
      "duration": 0.0144,
      "velocity": 95,
      "chip": "ym2612"
    },
    {
      "channel": 1,
      "note": 66,
      "start": 1.257,
      "duration": 0.0144,
      "velocity": 89,
      "chip": "ym2612"
    },
    {
      "channel": 0,
      "note": 51,
      "start": 1.2709,
      "duration": 0.0144,
      "velocity": 95,
      "chip": "ym2612"
    },
    {
      "channel": 1,
      "note": 66,
      "start": 1.2714,
      "duration": 0.0146,
      "velocity": 89,
      "chip": "ym2612"
    },
    {
      "channel": 0,
      "note": 51,
      "start": 1.2853,
      "duration": 0.0143,
      "velocity": 95,
      "chip": "ym2612"
    },
    {
      "channel": 1,
      "note": 66,
      "start": 1.286,
      "duration": 0.0143,
      "velocity": 89,
      "chip": "ym2612"
    },
    {
      "channel": 0,
      "note": 51,
      "start": 1.2996,
      "duration": 0.0146,
      "velocity": 95,
      "chip": "ym2612"
    },
    {
      "channel": 1,
      "note": 66,
      "start": 1.3003,
      "duration": 0.0146,
      "velocity": 89,
      "chip": "ym2612"
    },
    {
      "channel": 0,
      "note": 51,
      "start": 1.3142,
      "duration": 0.0144,
      "velocity": 95,
      "chip": "ym2612"
    },
    {
      "channel": 1,
      "note": 66,
      "start": 1.3148,
      "duration": 0.0144,
      "velocity": 89,
      "chip": "ym2612"
    },
    {
      "channel": 0,
      "note": 51,
      "start": 1.3286,
      "duration": 0.0145,
      "velocity": 95,
      "chip": "ym2612"
    },
    {
      "channel": 1,
      "note": 66,
      "start": 1.3293,
      "duration": 0.0143,
      "velocity": 89,
      "chip": "ym2612"
    },
    {
      "channel": 0,
      "note": 51,
      "start": 1.3432,
      "duration": 0.0142,
      "velocity": 95,
      "chip": "ym2612"
    },
    {
      "channel": 1,
      "note": 66,
      "start": 1.3436,
      "duration": 0.0144,
      "velocity": 89,
      "chip": "ym2612"
    },
    {
      "channel": 0,
      "note": 51,
      "start": 1.3574,
      "duration": 0.0146,
      "velocity": 95,
      "chip": "ym2612"
    },
    {
      "channel": 1,
      "note": 66,
      "start": 1.358,
      "duration": 0.0146,
      "velocity": 89,
      "chip": "ym2612"
    },
    {
      "channel": 0,
      "note": 51,
      "start": 1.372,
      "duration": 0.0144,
      "velocity": 95,
      "chip": "ym2612"
    },
    {
      "channel": 1,
      "note": 66,
      "start": 1.3726,
      "duration": 0.0144,
      "velocity": 89,
      "chip": "ym2612"
    },
    {
      "channel": 0,
      "note": 51,
      "start": 1.3865,
      "duration": 0.0144,
      "velocity": 95,
      "chip": "ym2612"
    },
    {
      "channel": 1,
      "note": 66,
      "start": 1.387,
      "duration": 0.0143,
      "velocity": 89,
      "chip": "ym2612"
    },
    {
      "channel": 0,
      "note": 51,
      "start": 1.4009,
      "duration": 0.0142,
      "velocity": 95,
      "chip": "ym2612"
    },
    {
      "channel": 1,
      "note": 66,
      "start": 1.4014,
      "duration": 0.0146,
      "velocity": 89,
      "chip": "ym2612"
    },
    {
      "channel": 0,
      "note": 51,
      "start": 1.4155,
      "duration": 0.3158,
      "velocity": 95,
      "chip": "ym2612"
    },
    {
      "channel": 1,
      "note": 66,
      "start": 1.416,
      "duration": 0.004,
      "velocity": 89,
      "chip": "ym2612"
    },
    {
      "channel": 2,
      "note": 58,
      "start": 1.4167,
      "duration": 0.1996,
      "velocity": 89,
      "chip": "ym2612"
    },
    {
      "channel": 1,
      "note": 66,
      "start": 1.42,
      "duration": 0.0025,
      "velocity": 89,
      "chip": "ym2612"
    },
    {
      "channel": 1,
      "note": 66,
      "start": 1.4225,
      "duration": 0.0058,
      "velocity": 89,
      "chip": "ym2612"
    },
    {
      "channel": 1,
      "note": 66,
      "start": 1.4283,
      "duration": 0.0143,
      "velocity": 89,
      "chip": "ym2612"
    },
    {
      "channel": 1,
      "note": 66,
      "start": 1.4425,
      "duration": 0.0146,
      "velocity": 89,
      "chip": "ym2612"
    },
    {
      "channel": 1,
      "note": 66,
      "start": 1.4572,
      "duration": 0.0144,
      "velocity": 89,
      "chip": "ym2612"
    },
    {
      "channel": 1,
      "note": 66,
      "start": 1.4716,
      "duration": 0.0144,
      "velocity": 89,
      "chip": "ym2612"
    },
    {
      "channel": 1,
      "note": 66,
      "start": 1.486,
      "duration": 0.0144,
      "velocity": 89,
      "chip": "ym2612"
    },
    {
      "channel": 1,
      "note": 66,
      "start": 1.5004,
      "duration": 0.0146,
      "velocity": 89,
      "chip": "ym2612"
    },
    {
      "channel": 1,
      "note": 66,
      "start": 1.5149,
      "duration": 0.0144,
      "velocity": 89,
      "chip": "ym2612"
    },
    {
      "channel": 1,
      "note": 66,
      "start": 1.5294,
      "duration": 0.0144,
      "velocity": 89,
      "chip": "ym2612"
    },
    {
      "channel": 1,
      "note": 66,
      "start": 1.5438,
      "duration": 0.0144,
      "velocity": 89,
      "chip": "ym2612"
    },
    {
      "channel": 1,
      "note": 66,
      "start": 1.5583,
      "duration": 0.0143,
      "velocity": 89,
      "chip": "ym2612"
    },
    {
      "channel": 1,
      "note": 66,
      "start": 1.5726,
      "duration": 0.0146,
      "velocity": 89,
      "chip": "ym2612"
    },
    {
      "channel": 1,
      "note": 66,
      "start": 1.5872,
      "duration": 0.0144,
      "velocity": 89,
      "chip": "ym2612"
    },
    {
      "channel": 1,
      "note": 66,
      "start": 1.6016,
      "duration": 0.0145,
      "velocity": 89,
      "chip": "ym2612"
    },
    {
      "channel": 1,
      "note": 66,
      "start": 1.6161,
      "duration": 0.0142,
      "velocity": 89,
      "chip": "ym2612"
    },
    {
      "channel": 2,
      "note": 61,
      "start": 1.6166,
      "duration": 0.2311,
      "velocity": 89,
      "chip": "ym2612"
    },
    {
      "channel": 1,
      "note": 66,
      "start": 1.6303,
      "duration": 0.0146,
      "velocity": 89,
      "chip": "ym2612"
    },
    {
      "channel": 1,
      "note": 66,
      "start": 1.6449,
      "duration": 0.0145,
      "velocity": 89,
      "chip": "ym2612"
    },
    {
      "channel": 1,
      "note": 66,
      "start": 1.6594,
      "duration": 0.0144,
      "velocity": 89,
      "chip": "ym2612"
    },
    {
      "channel": 1,
      "note": 66,
      "start": 1.6738,
      "duration": 0.0144,
      "velocity": 89,
      "chip": "ym2612"
    },
    {
      "channel": 1,
      "note": 66,
      "start": 1.6883,
      "duration": 0.0143,
      "velocity": 89,
      "chip": "ym2612"
    },
    {
      "channel": 1,
      "note": 66,
      "start": 1.7026,
      "duration": 0.0146,
      "velocity": 89,
      "chip": "ym2612"
    },
    {
      "channel": 1,
      "note": 66,
      "start": 1.7171,
      "duration": 0.0148,
      "velocity": 89,
      "chip": "ym2612"
    },
    {
      "channel": 0,
      "note": 51,
      "start": 1.7313,
      "duration": 0.0143,
      "velocity": 95,
      "chip": "ym2612"
    },
    {
      "channel": 1,
      "note": 66,
      "start": 1.7319,
      "duration": 0.0143,
      "velocity": 89,
      "chip": "ym2612"
    },
    {
      "channel": 0,
      "note": 51,
      "start": 1.7456,
      "duration": 0.0146,
      "velocity": 95,
      "chip": "ym2612"
    },
    {
      "channel": 1,
      "note": 66,
      "start": 1.7462,
      "duration": 0.0145,
      "velocity": 89,
      "chip": "ym2612"
    },
    {
      "channel": 0,
      "note": 51,
      "start": 1.7602,
      "duration": 0.0144,
      "velocity": 95,
      "chip": "ym2612"
    },
    {
      "channel": 1,
      "note": 66,
      "start": 1.7607,
      "duration": 0.0146,
      "velocity": 89,
      "chip": "ym2612"
    },
    {
      "channel": 0,
      "note": 51,
      "start": 1.7746,
      "duration": 0.0145,
      "velocity": 95,
      "chip": "ym2612"
    },
    {
      "channel": 1,
      "note": 66,
      "start": 1.7753,
      "duration": 0.0145,
      "velocity": 89,
      "chip": "ym2612"
    },
    {
      "channel": 0,
      "note": 51,
      "start": 1.7892,
      "duration": 0.0142,
      "velocity": 95,
      "chip": "ym2612"
    },
    {
      "channel": 1,
      "note": 66,
      "start": 1.7898,
      "duration": 0.0142,
      "velocity": 89,
      "chip": "ym2612"
    },
    {
      "channel": 0,
      "note": 51,
      "start": 1.8034,
      "duration": 0.0146,
      "velocity": 95,
      "chip": "ym2612"
    },
    {
      "channel": 1,
      "note": 66,
      "start": 1.804,
      "duration": 0.0146,
      "velocity": 89,
      "chip": "ym2612"
    },
    {
      "channel": 0,
      "note": 51,
      "start": 1.818,
      "duration": 0.0144,
      "velocity": 95,
      "chip": "ym2612"
    },
    {
      "channel": 1,
      "note": 66,
      "start": 1.8187,
      "duration": 0.0142,
      "velocity": 89,
      "chip": "ym2612"
    },
    {
      "channel": 0,
      "note": 51,
      "start": 1.8325,
      "duration": 0.0144,
      "velocity": 95,
      "chip": "ym2612"
    },
    {
      "channel": 1,
      "note": 66,
      "start": 1.8329,
      "duration": 0.0146,
      "velocity": 89,
      "chip": "ym2612"
    },
    {
      "channel": 0,
      "note": 51,
      "start": 1.8469,
      "duration": 0.0144,
      "velocity": 95,
      "chip": "ym2612"
    },
    {
      "channel": 1,
      "note": 66,
      "start": 1.8476,
      "duration": 0.0144,
      "velocity": 89,
      "chip": "ym2612"
    },
    {
      "channel": 2,
      "note": 63,
      "start": 1.8481,
      "duration": 0.2307,
      "velocity": 89,
      "chip": "ym2612"
    },
    {
      "channel": 0,
      "note": 51,
      "start": 1.8614,
      "duration": 0.0143,
      "velocity": 95,
      "chip": "ym2612"
    },
    {
      "channel": 1,
      "note": 66,
      "start": 1.8619,
      "duration": 0.0143,
      "velocity": 89,
      "chip": "ym2612"
    },
    {
      "channel": 0,
      "note": 51,
      "start": 1.8757,
      "duration": 0.0146,
      "velocity": 95,
      "chip": "ym2612"
    },
    {
      "channel": 1,
      "note": 66,
      "start": 1.8763,
      "duration": 0.0145,
      "velocity": 89,
      "chip": "ym2612"
    },
    {
      "channel": 0,
      "note": 51,
      "start": 1.8903,
      "duration": 0.0144,
      "velocity": 95,
      "chip": "ym2612"
    },
    {
      "channel": 1,
      "note": 66,
      "start": 1.8907,
      "duration": 0.0145,
      "velocity": 89,
      "chip": "ym2612"
    },
    {
      "channel": 0,
      "note": 51,
      "start": 1.9047,
      "duration": 0.0144,
      "velocity": 95,
      "chip": "ym2612"
    },
    {
      "channel": 1,
      "note": 66,
      "start": 1.9053,
      "duration": 0.0145,
      "velocity": 89,
      "chip": "ym2612"
    },
    {
      "channel": 0,
      "note": 51,
      "start": 1.9191,
      "duration": 0.0143,
      "velocity": 95,
      "chip": "ym2612"
    },
    {
      "channel": 1,
      "note": 66,
      "start": 1.9198,
      "duration": 0.0143,
      "velocity": 89,
      "chip": "ym2612"
    },
    {
      "channel": 0,
      "note": 51,
      "start": 1.9334,
      "duration": 0.0146,
      "velocity": 95,
      "chip": "ym2612"
    },
    {
      "channel": 1,
      "note": 66,
      "start": 1.9341,
      "duration": 0.0146,
      "velocity": 89,
      "chip": "ym2612"
    },
    {
      "channel": 0,
      "note": 51,
      "start": 1.9481,
      "duration": 0.0144,
      "velocity": 95,
      "chip": "ym2612"
    },
    {
      "channel": 1,
      "note": 66,
      "start": 1.9487,
      "duration": 0.0142,
      "velocity": 89,
      "chip": "ym2612"
    },
    {
      "channel": 0,
      "note": 51,
      "start": 1.9624,
      "duration": 0.0145,
      "velocity": 95,
      "chip": "ym2612"
    },
    {
      "channel": 1,
      "note": 66,
      "start": 1.9629,
      "duration": 0.0146,
      "velocity": 89,
      "chip": "ym2612"
    },
    {
      "channel": 0,
      "note": 51,
      "start": 1.9769,
      "duration": 0.0144,
      "velocity": 95,
      "chip": "ym2612"
    },
    {
      "channel": 1,
      "note": 66,
      "start": 1.9775,
      "duration": 0.0144,
      "velocity": 89,
      "chip": "ym2612"
    },
    {
      "channel": 0,
      "note": 51,
      "start": 1.9914,
      "duration": 0.0143,
      "velocity": 95,
      "chip": "ym2612"
    },
    {
      "channel": 1,
      "note": 66,
      "start": 1.992,
      "duration": 0.0143,
      "velocity": 89,
      "chip": "ym2612"
    },
    {
      "channel": 0,
      "note": 51,
      "start": 2.0057,
      "duration": 0.0146,
      "velocity": 95,
      "chip": "ym2612"
    },
    {
      "channel": 1,
      "note": 66,
      "start": 2.0063,
      "duration": 0.0144,
      "velocity": 89,
      "chip": "ym2612"
    },
    {
      "channel": 0,
      "note": 51,
      "start": 2.0203,
      "duration": 0.0144,
      "velocity": 95,
      "chip": "ym2612"
    },
    {
      "channel": 1,
      "note": 66,
      "start": 2.0207,
      "duration": 0.0146,
      "velocity": 89,
      "chip": "ym2612"
    },
    {
      "channel": 0,
      "note": 51,
      "start": 2.0347,
      "duration": 0.0144,
      "velocity": 95,
      "chip": "ym2612"
    },
    {
      "channel": 1,
      "note": 66,
      "start": 2.0354,
      "duration": 0.0144,
      "velocity": 89,
      "chip": "ym2612"
    },
    {
      "channel": 0,
      "note": 51,
      "start": 2.0491,
      "duration": 0.0143,
      "velocity": 95,
      "chip": "ym2612"
    },
    {
      "channel": 1,
      "note": 66,
      "start": 2.0498,
      "duration": 0.0142,
      "velocity": 89,
      "chip": "ym2612"
    },
    {
      "channel": 0,
      "note": 51,
      "start": 2.0635,
      "duration": 0.0146,
      "velocity": 95,
      "chip": "ym2612"
    },
    {
      "channel": 1,
      "note": 66,
      "start": 2.064,
      "duration": 0.0146,
      "velocity": 89,
      "chip": "ym2612"
    },
    {
      "channel": 0,
      "note": 51,
      "start": 2.078,
      "duration": 0.0045,
      "velocity": 95,
      "chip": "ym2612"
    },
    {
      "channel": 1,
      "note": 66,
      "start": 2.0787,
      "duration": 0.0044,
      "velocity": 89,
      "chip": "ym2612"
    },
    {
      "channel": 2,
      "note": 66,
      "start": 2.0793,
      "duration": 0.3161,
      "velocity": 89,
      "chip": "ym2612"
    },
    {
      "channel": 3,
      "note": 78,
      "start": 2.0799,
      "duration": 0.6623,
      "velocity": 99,
      "chip": "ym2612"
    },
    {
      "channel": 0,
      "note": 51,
      "start": 2.0826,
      "duration": 0.0033,
      "velocity": 95,
      "chip": "ym2612"
    },
    {
      "channel": 1,
      "note": 66,
      "start": 2.0831,
      "duration": 0.0034,
      "velocity": 89,
      "chip": "ym2612"
    },
    {
      "channel": 0,
      "note": 51,
      "start": 2.0858,
      "duration": 0.005,
      "velocity": 95,
      "chip": "ym2612"
    },
    {
      "channel": 1,
      "note": 66,
      "start": 2.0865,
      "duration": 0.005,
      "velocity": 89,
      "chip": "ym2612"
    },
    {
      "channel": 0,
      "note": 51,
      "start": 2.0908,
      "duration": 0.0143,
      "velocity": 95,
      "chip": "ym2612"
    },
    {
      "channel": 1,
      "note": 66,
      "start": 2.0915,
      "duration": 0.0143,
      "velocity": 89,
      "chip": "ym2612"
    },
    {
      "channel": 0,
      "note": 51,
      "start": 2.1051,
      "duration": 0.0146,
      "velocity": 95,
      "chip": "ym2612"
    },
    {
      "channel": 1,
      "note": 66,
      "start": 2.1058,
      "duration": 0.0144,
      "velocity": 89,
      "chip": "ym2612"
    },
    {
      "channel": 0,
      "note": 51,
      "start": 2.1198,
      "duration": 0.0144,
      "velocity": 95,
      "chip": "ym2612"
    },
    {
      "channel": 1,
      "note": 66,
      "start": 2.1202,
      "duration": 0.0146,
      "velocity": 89,
      "chip": "ym2612"
    },
    {
      "channel": 0,
      "note": 51,
      "start": 2.1341,
      "duration": 0.0145,
      "velocity": 95,
      "chip": "ym2612"
    },
    {
      "channel": 1,
      "note": 66,
      "start": 2.1348,
      "duration": 0.0145,
      "velocity": 89,
      "chip": "ym2612"
    },
    {
      "channel": 0,
      "note": 51,
      "start": 2.1486,
      "duration": 0.0143,
      "velocity": 95,
      "chip": "ym2612"
    },
    {
      "channel": 1,
      "note": 66,
      "start": 2.1493,
      "duration": 0.0142,
      "velocity": 89,
      "chip": "ym2612"
    },
    {
      "channel": 0,
      "note": 51,
      "start": 2.1629,
      "duration": 0.0146,
      "velocity": 95,
      "chip": "ym2612"
    },
    {
      "channel": 1,
      "note": 66,
      "start": 2.1635,
      "duration": 0.0146,
      "velocity": 89,
      "chip": "ym2612"
    },
    {
      "channel": 0,
      "note": 51,
      "start": 2.1775,
      "duration": 0.0144,
      "velocity": 95,
      "chip": "ym2612"
    },
    {
      "channel": 1,
      "note": 66,
      "start": 2.1781,
      "duration": 0.0143,
      "velocity": 89,
      "chip": "ym2612"
    },
    {
      "channel": 0,
      "note": 51,
      "start": 2.192,
      "duration": 0.0144,
      "velocity": 95,
      "chip": "ym2612"
    },
    {
      "channel": 1,
      "note": 66,
      "start": 2.1924,
      "duration": 0.0145,
      "velocity": 89,
      "chip": "ym2612"
    },
    {
      "channel": 0,
      "note": 51,
      "start": 2.2064,
      "duration": 0.0144,
      "velocity": 95,
      "chip": "ym2612"
    },
    {
      "channel": 1,
      "note": 66,
      "start": 2.207,
      "duration": 0.0145,
      "velocity": 89,
      "chip": "ym2612"
    },
    {
      "channel": 0,
      "note": 51,
      "start": 2.2208,
      "duration": 0.0143,
      "velocity": 95,
      "chip": "ym2612"
    },
    {
      "channel": 1,
      "note": 66,
      "start": 2.2215,
      "duration": 0.0143,
      "velocity": 89,
      "chip": "ym2612"
    },
    {
      "channel": 0,
      "note": 51,
      "start": 2.2351,
      "duration": 0.0146,
      "velocity": 95,
      "chip": "ym2612"
    },
    {
      "channel": 1,
      "note": 66,
      "start": 2.2358,
      "duration": 0.0144,
      "velocity": 89,
      "chip": "ym2612"
    },
    {
      "channel": 0,
      "note": 51,
      "start": 2.2497,
      "duration": 0.0144,
      "velocity": 95,
      "chip": "ym2612"
    },
    {
      "channel": 1,
      "note": 66,
      "start": 2.2502,
      "duration": 0.0146,
      "velocity": 89,
      "chip": "ym2612"
    },
    {
      "channel": 0,
      "note": 51,
      "start": 2.2641,
      "duration": 0.0145,
      "velocity": 95,
      "chip": "ym2612"
    },
    {
      "channel": 1,
      "note": 66,
      "start": 2.2648,
      "duration": 0.0145,
      "velocity": 89,
      "chip": "ym2612"
    },
    {
      "channel": 0,
      "note": 51,
      "start": 2.2787,
      "duration": 0.0142,
      "velocity": 95,
      "chip": "ym2612"
    },
    {
      "channel": 1,
      "note": 66,
      "start": 2.2793,
      "duration": 0.0142,
      "velocity": 89,
      "chip": "ym2612"
    },
    {
      "channel": 0,
      "note": 51,
      "start": 2.2929,
      "duration": 0.0146,
      "velocity": 95,
      "chip": "ym2612"
    },
    {
      "channel": 1,
      "note": 66,
      "start": 2.2935,
      "duration": 0.0146,
      "velocity": 89,
      "chip": "ym2612"
    },
    {
      "channel": 0,
      "note": 51,
      "start": 2.3075,
      "duration": 0.0144,
      "velocity": 95,
      "chip": "ym2612"
    },
    {
      "channel": 1,
      "note": 66,
      "start": 2.3082,
      "duration": 0.0143,
      "velocity": 89,
      "chip": "ym2612"
    },
    {
      "channel": 0,
      "note": 51,
      "start": 2.322,
      "duration": 0.0144,
      "velocity": 95,
      "chip": "ym2612"
    },
    {
      "channel": 1,
      "note": 66,
      "start": 2.3224,
      "duration": 0.0146,
      "velocity": 89,
      "chip": "ym2612"
    },
    {
      "channel": 0,
      "note": 51,
      "start": 2.3364,
      "duration": 0.0144,
      "velocity": 95,
      "chip": "ym2612"
    },
    {
      "channel": 1,
      "note": 66,
      "start": 2.337,
      "duration": 0.0144,
      "velocity": 89,
      "chip": "ym2612"
    },
    {
      "channel": 0,
      "note": 51,
      "start": 2.3509,
      "duration": 0.0143,
      "velocity": 95,
      "chip": "ym2612"
    },
    {
      "channel": 1,
      "note": 66,
      "start": 2.3514,
      "duration": 0.0143,
      "velocity": 89,
      "chip": "ym2612"
    },
    {
      "channel": 0,
      "note": 51,
      "start": 2.3652,
      "duration": 0.0146,
      "velocity": 95,
      "chip": "ym2612"
    },
    {
      "channel": 1,
      "note": 66,
      "start": 2.3657,
      "duration": 0.0145,
      "velocity": 89,
      "chip": "ym2612"
    },
    {
      "channel": 0,
      "note": 51,
      "start": 2.3797,
      "duration": 0.0144,
      "velocity": 95,
      "chip": "ym2612"
    },
    {
      "channel": 1,
      "note": 66,
      "start": 2.3802,
      "duration": 0.0146,
      "velocity": 89,
      "chip": "ym2612"
    },
    {
      "channel": 0,
      "note": 51,
      "start": 2.3942,
      "duration": 0.0144,
      "velocity": 95,
      "chip": "ym2612"
    },
    {
      "channel": 1,
      "note": 66,
      "start": 2.3948,
      "duration": 0.0144,
      "velocity": 89,
      "chip": "ym2612"
    },
    {
      "channel": 2,
      "note": 66,
      "start": 2.3954,
      "duration": 0.0144,
      "velocity": 89,
      "chip": "ym2612"
    },
    {
      "channel": 4,
      "note": 78,
      "start": 2.3964,
      "duration": 0.6621,
      "velocity": 99,
      "chip": "ym2612"
    },
    {
      "channel": 0,
      "note": 51,
      "start": 2.4086,
      "duration": 0.0143,
      "velocity": 95,
      "chip": "ym2612"
    },
    {
      "channel": 1,
      "note": 66,
      "start": 2.4093,
      "duration": 0.0143,
      "velocity": 89,
      "chip": "ym2612"
    },
    {
      "channel": 2,
      "note": 66,
      "start": 2.4099,
      "duration": 0.0141,
      "velocity": 89,
      "chip": "ym2612"
    },
    {
      "channel": 0,
      "note": 51,
      "start": 2.4229,
      "duration": 0.0146,
      "velocity": 95,
      "chip": "ym2612"
    },
    {
      "channel": 1,
      "note": 66,
      "start": 2.4236,
      "duration": 0.0146,
      "velocity": 89,
      "chip": "ym2612"
    },
    {
      "channel": 2,
      "note": 66,
      "start": 2.424,
      "duration": 0.0148,
      "velocity": 89,
      "chip": "ym2612"
    },
    {
      "channel": 0,
      "note": 51,
      "start": 2.4376,
      "duration": 0.0144,
      "velocity": 95,
      "chip": "ym2612"
    },
    {
      "channel": 1,
      "note": 66,
      "start": 2.4382,
      "duration": 0.0142,
      "velocity": 89,
      "chip": "ym2612"
    },
    {
      "channel": 2,
      "note": 66,
      "start": 2.4388,
      "duration": 0.0142,
      "velocity": 89,
      "chip": "ym2612"
    },
    {
      "channel": 0,
      "note": 51,
      "start": 2.4519,
      "duration": 0.0145,
      "velocity": 95,
      "chip": "ym2612"
    },
    {
      "channel": 1,
      "note": 66,
      "start": 2.4524,
      "duration": 0.0146,
      "velocity": 89,
      "chip": "ym2612"
    },
    {
      "channel": 2,
      "note": 66,
      "start": 2.453,
      "duration": 0.0146,
      "velocity": 89,
      "chip": "ym2612"
    },
    {
      "channel": 0,
      "note": 51,
      "start": 2.4664,
      "duration": 0.0148,
      "velocity": 95,
      "chip": "ym2612"
    },
    {
      "channel": 1,
      "note": 66,
      "start": 2.467,
      "duration": 0.0148,
      "velocity": 89,
      "chip": "ym2612"
    },
    {
      "channel": 2,
      "note": 66,
      "start": 2.4676,
      "duration": 0.0147,
      "velocity": 89,
      "chip": "ym2612"
    },
    {
      "channel": 0,
      "note": 51,
      "start": 2.4813,
      "duration": 0.0139,
      "velocity": 95,
      "chip": "ym2612"
    },
    {
      "channel": 1,
      "note": 66,
      "start": 2.4818,
      "duration": 0.0139,
      "velocity": 89,
      "chip": "ym2612"
    },
    {
      "channel": 2,
      "note": 66,
      "start": 2.4823,
      "duration": 0.0141,
      "velocity": 89,
      "chip": "ym2612"
    },
    {
      "channel": 0,
      "note": 51,
      "start": 2.4951,
      "duration": 0.0146,
      "velocity": 95,
      "chip": "ym2612"
    },
    {
      "channel": 1,
      "note": 66,
      "start": 2.4958,
      "duration": 0.0144,
      "velocity": 89,
      "chip": "ym2612"
    },
    {
      "channel": 2,
      "note": 66,
      "start": 2.4964,
      "duration": 0.0144,
      "velocity": 89,
      "chip": "ym2612"
    },
    {
      "channel": 0,
      "note": 51,
      "start": 2.5098,
      "duration": 0.0144,
      "velocity": 95,
      "chip": "ym2612"
    },
    {
      "channel": 1,
      "note": 66,
      "start": 2.5102,
      "duration": 0.0146,
      "velocity": 89,
      "chip": "ym2612"
    },
    {
      "channel": 2,
      "note": 66,
      "start": 2.5108,
      "duration": 0.0146,
      "velocity": 89,
      "chip": "ym2612"
    },
    {
      "channel": 0,
      "note": 51,
      "start": 2.5242,
      "duration": 0.0144,
      "velocity": 95,
      "chip": "ym2612"
    },
    {
      "channel": 1,
      "note": 66,
      "start": 2.5248,
      "duration": 0.0145,
      "velocity": 89,
      "chip": "ym2612"
    },
    {
      "channel": 2,
      "note": 66,
      "start": 2.5254,
      "duration": 0.0145,
      "velocity": 89,
      "chip": "ym2612"
    },
    {
      "channel": 0,
      "note": 51,
      "start": 2.5386,
      "duration": 0.0143,
      "velocity": 95,
      "chip": "ym2612"
    },
    {
      "channel": 1,
      "note": 66,
      "start": 2.5393,
      "duration": 0.0143,
      "velocity": 89,
      "chip": "ym2612"
    },
    {
      "channel": 2,
      "note": 66,
      "start": 2.5399,
      "duration": 0.0141,
      "velocity": 89,
      "chip": "ym2612"
    },
    {
      "channel": 0,
      "note": 51,
      "start": 2.5529,
      "duration": 0.0146,
      "velocity": 95,
      "chip": "ym2612"
    },
    {
      "channel": 1,
      "note": 66,
      "start": 2.5536,
      "duration": 0.0146,
      "velocity": 89,
      "chip": "ym2612"
    },
    {
      "channel": 2,
      "note": 66,
      "start": 2.554,
      "duration": 0.0148,
      "velocity": 89,
      "chip": "ym2612"
    },
    {
      "channel": 0,
      "note": 51,
      "start": 2.5676,
      "duration": 0.0144,
      "velocity": 95,
      "chip": "ym2612"
    },
    {
      "channel": 1,
      "note": 66,
      "start": 2.5682,
      "duration": 0.0142,
      "velocity": 89,
      "chip": "ym2612"
    },
    {
      "channel": 2,
      "note": 66,
      "start": 2.5688,
      "duration": 0.0143,
      "velocity": 89,
      "chip": "ym2612"
    },
    {
      "channel": 0,
      "note": 51,
      "start": 2.582,
      "duration": 0.0144,
      "velocity": 95,
      "chip": "ym2612"
    },
    {
      "channel": 1,
      "note": 66,
      "start": 2.5825,
      "duration": 0.0146,
      "velocity": 89,
      "chip": "ym2612"
    },
    {
      "channel": 2,
      "note": 66,
      "start": 2.5831,
      "duration": 0.0145,
      "velocity": 89,
      "chip": "ym2612"
    },
    {
      "channel": 0,
      "note": 51,
      "start": 2.5964,
      "duration": 0.0144,
      "velocity": 95,
      "chip": "ym2612"
    },
    {
      "channel": 1,
      "note": 66,
      "start": 2.597,
      "duration": 0.0144,
      "velocity": 89,
      "chip": "ym2612"
    },
    {
      "channel": 2,
      "note": 66,
      "start": 2.5976,
      "duration": 0.0143,
      "velocity": 89,
      "chip": "ym2612"
    },
    {
      "channel": 0,
      "note": 51,
      "start": 2.6108,
      "duration": 0.0143,
      "velocity": 95,
      "chip": "ym2612"
    },
    {
      "channel": 1,
      "note": 66,
      "start": 2.6115,
      "duration": 0.0143,
      "velocity": 89,
      "chip": "ym2612"
    },
    {
      "channel": 2,
      "note": 66,
      "start": 2.6119,
      "duration": 0.0145,
      "velocity": 89,
      "chip": "ym2612"
    },
    {
      "channel": 0,
      "note": 51,
      "start": 2.6251,
      "duration": 0.0146,
      "velocity": 95,
      "chip": "ym2612"
    },
    {
      "channel": 1,
      "note": 66,
      "start": 2.6258,
      "duration": 0.0144,
      "velocity": 89,
      "chip": "ym2612"
    },
    {
      "channel": 2,
      "note": 66,
      "start": 2.6264,
      "duration": 0.0144,
      "velocity": 89,
      "chip": "ym2612"
    },
    {
      "channel": 0,
      "note": 51,
      "start": 2.6398,
      "duration": 0.0144,
      "velocity": 95,
      "chip": "ym2612"
    },
    {
      "channel": 1,
      "note": 66,
      "start": 2.6402,
      "duration": 0.0146,
      "velocity": 89,
      "chip": "ym2612"
    },
    {
      "channel": 2,
      "note": 66,
      "start": 2.6409,
      "duration": 0.0146,
      "velocity": 89,
      "chip": "ym2612"
    },
    {
      "channel": 0,
      "note": 51,
      "start": 2.6542,
      "duration": 0.0145,
      "velocity": 95,
      "chip": "ym2612"
    },
    {
      "channel": 1,
      "note": 66,
      "start": 2.6548,
      "duration": 0.0145,
      "velocity": 89,
      "chip": "ym2612"
    },
    {
      "channel": 2,
      "note": 66,
      "start": 2.6554,
      "duration": 0.0145,
      "velocity": 89,
      "chip": "ym2612"
    },
    {
      "channel": 0,
      "note": 51,
      "start": 2.6687,
      "duration": 0.0143,
      "velocity": 95,
      "chip": "ym2612"
    },
    {
      "channel": 1,
      "note": 66,
      "start": 2.6693,
      "duration": 0.0143,
      "velocity": 89,
      "chip": "ym2612"
    },
    {
      "channel": 2,
      "note": 66,
      "start": 2.6699,
      "duration": 0.0141,
      "velocity": 89,
      "chip": "ym2612"
    },
    {
      "channel": 0,
      "note": 51,
      "start": 2.683,
      "duration": 0.0146,
      "velocity": 95,
      "chip": "ym2612"
    },
    {
      "channel": 1,
      "note": 66,
      "start": 2.6836,
      "duration": 0.0146,
      "velocity": 89,
      "chip": "ym2612"
    },
    {
      "channel": 2,
      "note": 66,
      "start": 2.6841,
      "duration": 0.0148,
      "velocity": 89,
      "chip": "ym2612"
    },
    {
      "channel": 0,
      "note": 51,
      "start": 2.6976,
      "duration": 0.0144,
      "velocity": 95,
      "chip": "ym2612"
    },
    {
      "channel": 1,
      "note": 66,
      "start": 2.6982,
      "duration": 0.0143,
      "velocity": 89,
      "chip": "ym2612"
    },
    {
      "channel": 2,
      "note": 66,
      "start": 2.6988,
      "duration": 0.0142,
      "velocity": 89,
      "chip": "ym2612"
    },
    {
      "channel": 0,
      "note": 51,
      "start": 2.712,
      "duration": 0.0145,
      "velocity": 95,
      "chip": "ym2612"
    },
    {
      "channel": 1,
      "note": 66,
      "start": 2.7125,
      "duration": 0.0146,
      "velocity": 89,
      "chip": "ym2612"
    },
    {
      "channel": 2,
      "note": 66,
      "start": 2.7131,
      "duration": 0.0146,
      "velocity": 89,
      "chip": "ym2612"
    },
    {
      "channel": 0,
      "note": 51,
      "start": 2.7265,
      "duration": 0.0141,
      "velocity": 95,
      "chip": "ym2612"
    },
    {
      "channel": 1,
      "note": 66,
      "start": 2.7271,
      "duration": 0.0141,
      "velocity": 89,
      "chip": "ym2612"
    },
    {
      "channel": 2,
      "note": 66,
      "start": 2.7277,
      "duration": 0.0142,
      "velocity": 89,
      "chip": "ym2612"
    },
    {
      "channel": 0,
      "note": 51,
      "start": 2.741,
      "duration": 0.3161,
      "velocity": 95,
      "chip": "ym2612"
    },
    {
      "channel": 1,
      "note": 56,
      "start": 2.7416,
      "duration": 0.1997,
      "velocity": 89,
      "chip": "ym2612"
    },
    {
      "channel": 2,
      "note": 66,
      "start": 2.742,
      "duration": 0.0039,
      "velocity": 89,
      "chip": "ym2612"
    },
    {
      "channel": 3,
      "note": 71,
      "start": 2.7426,
      "duration": 2.6511,
      "velocity": 99,
      "chip": "ym2612"
    },
    {
      "channel": 2,
      "note": 66,
      "start": 2.7459,
      "duration": 0.003,
      "velocity": 89,
      "chip": "ym2612"
    },
    {
      "channel": 2,
      "note": 66,
      "start": 2.7488,
      "duration": 0.0054,
      "velocity": 89,
      "chip": "ym2612"
    },
    {
      "channel": 2,
      "note": 66,
      "start": 2.7542,
      "duration": 0.0144,
      "velocity": 89,
      "chip": "ym2612"
    },
    {
      "channel": 2,
      "note": 66,
      "start": 2.7687,
      "duration": 0.0147,
      "velocity": 89,
      "chip": "ym2612"
    },
    {
      "channel": 2,
      "note": 66,
      "start": 2.7834,
      "duration": 0.0142,
      "velocity": 89,
      "chip": "ym2612"
    },
    {
      "channel": 2,
      "note": 66,
      "start": 2.7975,
      "duration": 0.0145,
      "velocity": 89,
      "chip": "ym2612"
    },
    {
      "channel": 2,
      "note": 66,
      "start": 2.812,
      "duration": 0.0144,
      "velocity": 89,
      "chip": "ym2612"
    },
    {
      "channel": 2,
      "note": 66,
      "start": 2.8264,
      "duration": 0.0143,
      "velocity": 89,
      "chip": "ym2612"
    },
    {
      "channel": 2,
      "note": 66,
      "start": 2.8407,
      "duration": 0.0146,
      "velocity": 89,
      "chip": "ym2612"
    },
    {
      "channel": 2,
      "note": 66,
      "start": 2.8554,
      "duration": 0.0144,
      "velocity": 89,
      "chip": "ym2612"
    },
    {
      "channel": 2,
      "note": 66,
      "start": 2.8698,
      "duration": 0.0144,
      "velocity": 89,
      "chip": "ym2612"
    },
    {
      "channel": 2,
      "note": 66,
      "start": 2.8842,
      "duration": 0.0144,
      "velocity": 89,
      "chip": "ym2612"
    },
    {
      "channel": 2,
      "note": 66,
      "start": 2.8987,
      "duration": 0.0143,
      "velocity": 89,
      "chip": "ym2612"
    },
    {
      "channel": 2,
      "note": 66,
      "start": 2.913,
      "duration": 0.0146,
      "velocity": 89,
      "chip": "ym2612"
    },
    {
      "channel": 2,
      "note": 66,
      "start": 2.9276,
      "duration": 0.0147,
      "velocity": 89,
      "chip": "ym2612"
    },
    {
      "channel": 1,
      "note": 59,
      "start": 2.9417,
      "duration": 0.231,
      "velocity": 89,
      "chip": "ym2612"
    },
    {
      "channel": 2,
      "note": 66,
      "start": 2.9423,
      "duration": 0.0142,
      "velocity": 89,
      "chip": "ym2612"
    },
    {
      "channel": 2,
      "note": 66,
      "start": 2.9564,
      "duration": 0.0143,
      "velocity": 89,
      "chip": "ym2612"
    },
    {
      "channel": 2,
      "note": 66,
      "start": 2.9707,
      "duration": 0.0146,
      "velocity": 89,
      "chip": "ym2612"
    },
    {
      "channel": 2,
      "note": 66,
      "start": 2.9853,
      "duration": 0.0144,
      "velocity": 89,
      "chip": "ym2612"
    },
    {
      "channel": 2,
      "note": 66,
      "start": 2.9998,
      "duration": 0.0144,
      "velocity": 89,
      "chip": "ym2612"
    },
    {
      "channel": 2,
      "note": 66,
      "start": 3.0142,
      "duration": 0.0145,
      "velocity": 89,
      "chip": "ym2612"
    },
    {
      "channel": 2,
      "note": 66,
      "start": 3.0287,
      "duration": 0.0142,
      "velocity": 89,
      "chip": "ym2612"
    },
    {
      "channel": 2,
      "note": 66,
      "start": 3.0429,
      "duration": 0.015,
      "velocity": 89,
      "chip": "ym2612"
    },
    {
      "channel": 0,
      "note": 51,
      "start": 3.0571,
      "duration": 0.0143,
      "velocity": 95,
      "chip": "ym2612"
    },
    {
      "channel": 2,
      "note": 66,
      "start": 3.058,
      "duration": 0.0142,
      "velocity": 89,
      "chip": "ym2612"
    },
    {
      "channel": 4,
      "note": 71,
      "start": 3.0589,
      "duration": 2.6508,
      "velocity": 99,
      "chip": "ym2612"
    },
    {
      "channel": 0,
      "note": 51,
      "start": 3.0713,
      "duration": 0.0146,
      "velocity": 95,
      "chip": "ym2612"
    },
    {
      "channel": 2,
      "note": 66,
      "start": 3.0722,
      "duration": 0.0146,
      "velocity": 89,
      "chip": "ym2612"
    },
    {
      "channel": 0,
      "note": 51,
      "start": 3.086,
      "duration": 0.0144,
      "velocity": 95,
      "chip": "ym2612"
    },
    {
      "channel": 2,
      "note": 66,
      "start": 3.0868,
      "duration": 0.0143,
      "velocity": 89,
      "chip": "ym2612"
    },
    {
      "channel": 0,
      "note": 51,
      "start": 3.1004,
      "duration": 0.0147,
      "velocity": 95,
      "chip": "ym2612"
    },
    {
      "channel": 2,
      "note": 66,
      "start": 3.1011,
      "duration": 0.0149,
      "velocity": 89,
      "chip": "ym2612"
    },
    {
      "channel": 0,
      "note": 51,
      "start": 3.1151,
      "duration": 0.0141,
      "velocity": 95,
      "chip": "ym2612"
    },
    {
      "channel": 2,
      "note": 66,
      "start": 3.116,
      "duration": 0.0141,
      "velocity": 89,
      "chip": "ym2612"
    },
    {
      "channel": 0,
      "note": 51,
      "start": 3.1292,
      "duration": 0.0146,
      "velocity": 95,
      "chip": "ym2612"
    },
    {
      "channel": 2,
      "note": 66,
      "start": 3.13,
      "duration": 0.0146,
      "velocity": 89,
      "chip": "ym2612"
    },
    {
      "channel": 0,
      "note": 51,
      "start": 3.1437,
      "duration": 0.0144,
      "velocity": 95,
      "chip": "ym2612"
    },
    {
      "channel": 2,
      "note": 66,
      "start": 3.1446,
      "duration": 0.0144,
      "velocity": 89,
      "chip": "ym2612"
    },
    {
      "channel": 0,
      "note": 51,
      "start": 3.1582,
      "duration": 0.0144,
      "velocity": 95,
      "chip": "ym2612"
    },
    {
      "channel": 2,
      "note": 66,
      "start": 3.159,
      "duration": 0.0145,
      "velocity": 89,
      "chip": "ym2612"
    },
    {
      "channel": 0,
      "note": 51,
      "start": 3.1726,
      "duration": 0.0145,
      "velocity": 95,
      "chip": "ym2612"
    },
    {
      "channel": 1,
      "note": 63,
      "start": 3.1732,
      "duration": 0.3159,
      "velocity": 89,
      "chip": "ym2612"
    },
    {
      "channel": 2,
      "note": 66,
      "start": 3.1736,
      "duration": 0.0144,
      "velocity": 89,
      "chip": "ym2612"
    },
    {
      "channel": 0,
      "note": 51,
      "start": 3.1871,
      "duration": 0.0143,
      "velocity": 95,
      "chip": "ym2612"
    },
    {
      "channel": 2,
      "note": 66,
      "start": 3.1879,
      "duration": 0.0143,
      "velocity": 89,
      "chip": "ym2612"
    },
    {
      "channel": 0,
      "note": 51,
      "start": 3.2014,
      "duration": 0.0146,
      "velocity": 95,
      "chip": "ym2612"
    },
    {
      "channel": 2,
      "note": 66,
      "start": 3.2022,
      "duration": 0.0146,
      "velocity": 89,
      "chip": "ym2612"
    },
    {
      "channel": 0,
      "note": 51,
      "start": 3.216,
      "duration": 0.0144,
      "velocity": 95,
      "chip": "ym2612"
    },
    {
      "channel": 2,
      "note": 66,
      "start": 3.2169,
      "duration": 0.0143,
      "velocity": 89,
      "chip": "ym2612"
    },
    {
      "channel": 0,
      "note": 51,
      "start": 3.2304,
      "duration": 0.0145,
      "velocity": 95,
      "chip": "ym2612"
    },
    {
      "channel": 2,
      "note": 66,
      "start": 3.2311,
      "duration": 0.0146,
      "velocity": 89,
      "chip": "ym2612"
    },
    {
      "channel": 0,
      "note": 51,
      "start": 3.2449,
      "duration": 0.0142,
      "velocity": 95,
      "chip": "ym2612"
    },
    {
      "channel": 2,
      "note": 66,
      "start": 3.2458,
      "duration": 0.0142,
      "velocity": 89,
      "chip": "ym2612"
    },
    {
      "channel": 0,
      "note": 51,
      "start": 3.2591,
      "duration": 0.0146,
      "velocity": 95,
      "chip": "ym2612"
    },
    {
      "channel": 2,
      "note": 66,
      "start": 3.26,
      "duration": 0.0146,
      "velocity": 89,
      "chip": "ym2612"
    },
    {
      "channel": 0,
      "note": 51,
      "start": 3.2737,
      "duration": 0.0144,
      "velocity": 95,
      "chip": "ym2612"
    },
    {
      "channel": 2,
      "note": 66,
      "start": 3.2746,
      "duration": 0.0145,
      "velocity": 89,
      "chip": "ym2612"
    },
    {
      "channel": 0,
      "note": 51,
      "start": 3.2882,
      "duration": 0.0144,
      "velocity": 95,
      "chip": "ym2612"
    },
    {
      "channel": 2,
      "note": 66,
      "start": 3.2891,
      "duration": 0.0143,
      "velocity": 89,
      "chip": "ym2612"
    },
    {
      "channel": 0,
      "note": 51,
      "start": 3.3026,
      "duration": 0.0144,
      "velocity": 95,
      "chip": "ym2612"
    },
    {
      "channel": 2,
      "note": 66,
      "start": 3.3034,
      "duration": 0.0146,
      "velocity": 89,
      "chip": "ym2612"
    },
    {
      "channel": 0,
      "note": 51,
      "start": 3.3171,
      "duration": 0.0143,
      "velocity": 95,
      "chip": "ym2612"
    },
    {
      "channel": 2,
      "note": 66,
      "start": 3.318,
      "duration": 0.0142,
      "velocity": 89,
      "chip": "ym2612"
    },
    {
      "channel": 0,
      "note": 51,
      "start": 3.3314,
      "duration": 0.0146,
      "velocity": 95,
      "chip": "ym2612"
    },
    {
      "channel": 2,
      "note": 66,
      "start": 3.3322,
      "duration": 0.0146,
      "velocity": 89,
      "chip": "ym2612"
    },
    {
      "channel": 0,
      "note": 51,
      "start": 3.3459,
      "duration": 0.0144,
      "velocity": 95,
      "chip": "ym2612"
    },
    {
      "channel": 2,
      "note": 66,
      "start": 3.3468,
      "duration": 0.0143,
      "velocity": 89,
      "chip": "ym2612"
    },
    {
      "channel": 0,
      "note": 51,
      "start": 3.3604,
      "duration": 0.0144,
      "velocity": 95,
      "chip": "ym2612"
    },
    {
      "channel": 2,
      "note": 66,
      "start": 3.3612,
      "duration": 0.0146,
      "velocity": 89,
      "chip": "ym2612"
    },
    {
      "channel": 0,
      "note": 51,
      "start": 3.3748,
      "duration": 0.0144,
      "velocity": 95,
      "chip": "ym2612"
    },
    {
      "channel": 2,
      "note": 66,
      "start": 3.3757,
      "duration": 0.0143,
      "velocity": 89,
      "chip": "ym2612"
    },
    {
      "channel": 0,
      "note": 51,
      "start": 3.3892,
      "duration": 0.0146,
      "velocity": 95,
      "chip": "ym2612"
    },
    {
      "channel": 2,
      "note": 66,
      "start": 3.39,
      "duration": 0.0146,
      "velocity": 89,
      "chip": "ym2612"
    },
    {
      "channel": 0,
      "note": 51,
      "start": 3.4038,
      "duration": 0.0041,
      "velocity": 95,
      "chip": "ym2612"
    },
    {
      "channel": 2,
      "note": 66,
      "start": 3.4047,
      "duration": 0.0041,
      "velocity": 89,
      "chip": "ym2612"
    },
    {
      "channel": 0,
      "note": 51,
      "start": 3.4079,
      "duration": 0.0034,
      "velocity": 95,
      "chip": "ym2612"
    },
    {
      "channel": 2,
      "note": 66,
      "start": 3.4088,
      "duration": 0.0032,
      "velocity": 89,
      "chip": "ym2612"
    },
    {
      "channel": 0,
      "note": 51,
      "start": 3.4113,
      "duration": 0.0053,
      "velocity": 95,
      "chip": "ym2612"
    },
    {
      "channel": 2,
      "note": 66,
      "start": 3.412,
      "duration": 0.0055,
      "velocity": 89,
      "chip": "ym2612"
    },
    {
      "channel": 0,
      "note": 51,
      "start": 3.4166,
      "duration": 0.0141,
      "velocity": 95,
      "chip": "ym2612"
    },
    {
      "channel": 2,
      "note": 66,
      "start": 3.4175,
      "duration": 0.0141,
      "velocity": 89,
      "chip": "ym2612"
    },
    {
      "channel": 0,
      "note": 51,
      "start": 3.4307,
      "duration": 0.0146,
      "velocity": 95,
      "chip": "ym2612"
    },
    {
      "channel": 2,
      "note": 66,
      "start": 3.4316,
      "duration": 0.0146,
      "velocity": 89,
      "chip": "ym2612"
    },
    {
      "channel": 0,
      "note": 51,
      "start": 3.4453,
      "duration": 0.0144,
      "velocity": 95,
      "chip": "ym2612"
    },
    {
      "channel": 2,
      "note": 66,
      "start": 3.4462,
      "duration": 0.0143,
      "velocity": 89,
      "chip": "ym2612"
    },
    {
      "channel": 0,
      "note": 51,
      "start": 3.4597,
      "duration": 0.0144,
      "velocity": 95,
      "chip": "ym2612"
    },
    {
      "channel": 2,
      "note": 66,
      "start": 3.4605,
      "duration": 0.0146,
      "velocity": 89,
      "chip": "ym2612"
    },
    {
      "channel": 0,
      "note": 51,
      "start": 3.4742,
      "duration": 0.0143,
      "velocity": 95,
      "chip": "ym2612"
    },
    {
      "channel": 2,
      "note": 66,
      "start": 3.4751,
      "duration": 0.0146,
      "velocity": 89,
      "chip": "ym2612"
    },
    {
      "channel": 0,
      "note": 51,
      "start": 3.4885,
      "duration": 0.0146,
      "velocity": 95,
      "chip": "ym2612"
    },
    {
      "channel": 1,
      "note": 63,
      "start": 3.4891,
      "duration": 0.0146,
      "velocity": 89,
      "chip": "ym2612"
    },
    {
      "channel": 2,
      "note": 66,
      "start": 3.4897,
      "duration": 0.0146,
      "velocity": 89,
      "chip": "ym2612"
    },
    {
      "channel": 0,
      "note": 51,
      "start": 3.5031,
      "duration": 0.0145,
      "velocity": 95,
      "chip": "ym2612"
    },
    {
      "channel": 1,
      "note": 63,
      "start": 3.5037,
      "duration": 0.0143,
      "velocity": 89,
      "chip": "ym2612"
    },
    {
      "channel": 2,
      "note": 66,
      "start": 3.5043,
      "duration": 0.0143,
      "velocity": 89,
      "chip": "ym2612"
    },
    {
      "channel": 0,
      "note": 51,
      "start": 3.5176,
      "duration": 0.0144,
      "velocity": 95,
      "chip": "ym2612"
    },
    {
      "channel": 1,
      "note": 63,
      "start": 3.518,
      "duration": 0.0146,
      "velocity": 89,
      "chip": "ym2612"
    },
    {
      "channel": 2,
      "note": 66,
      "start": 3.5186,
      "duration": 0.0144,
      "velocity": 89,
      "chip": "ym2612"
    },
    {
      "channel": 0,
      "note": 51,
      "start": 3.532,
      "duration": 0.0144,
      "velocity": 95,
      "chip": "ym2612"
    },
    {
      "channel": 1,
      "note": 63,
      "start": 3.5326,
      "duration": 0.0145,
      "velocity": 89,
      "chip": "ym2612"
    },
    {
      "channel": 2,
      "note": 66,
      "start": 3.5331,
      "duration": 0.0146,
      "velocity": 89,
      "chip": "ym2612"
    },
    {
      "channel": 0,
      "note": 51,
      "start": 3.5464,
      "duration": 0.0143,
      "velocity": 95,
      "chip": "ym2612"
    },
    {
      "channel": 1,
      "note": 63,
      "start": 3.5471,
      "duration": 0.0142,
      "velocity": 89,
      "chip": "ym2612"
    },
    {
      "channel": 2,
      "note": 66,
      "start": 3.5476,
      "duration": 0.0143,
      "velocity": 89,
      "chip": "ym2612"
    },
    {
      "channel": 0,
      "note": 51,
      "start": 3.5607,
      "duration": 0.0146,
      "velocity": 95,
      "chip": "ym2612"
    },
    {
      "channel": 1,
      "note": 63,
      "start": 3.5613,
      "duration": 0.0144,
      "velocity": 89,
      "chip": "ym2612"
    },
    {
      "channel": 2,
      "note": 66,
      "start": 3.562,
      "duration": 0.0144,
      "velocity": 89,
      "chip": "ym2612"
    },
    {
      "channel": 0,
      "note": 51,
      "start": 3.5753,
      "duration": 0.0144,
      "velocity": 95,
      "chip": "ym2612"
    },
    {
      "channel": 1,
      "note": 63,
      "start": 3.5758,
      "duration": 0.0146,
      "velocity": 89,
      "chip": "ym2612"
    },
    {
      "channel": 2,
      "note": 66,
      "start": 3.5763,
      "duration": 0.0145,
      "velocity": 89,
      "chip": "ym2612"
    },
    {
      "channel": 0,
      "note": 51,
      "start": 3.5898,
      "duration": 0.0144,
      "velocity": 95,
      "chip": "ym2612"
    },
    {
      "channel": 1,
      "note": 63,
      "start": 3.5904,
      "duration": 0.0144,
      "velocity": 89,
      "chip": "ym2612"
    },
    {
      "channel": 2,
      "note": 66,
      "start": 3.5908,
      "duration": 0.0146,
      "velocity": 89,
      "chip": "ym2612"
    },
    {
      "channel": 0,
      "note": 51,
      "start": 3.6042,
      "duration": 0.0143,
      "velocity": 95,
      "chip": "ym2612"
    },
    {
      "channel": 1,
      "note": 63,
      "start": 3.6048,
      "duration": 0.0143,
      "velocity": 89,
      "chip": "ym2612"
    },
    {
      "channel": 2,
      "note": 66,
      "start": 3.6054,
      "duration": 0.0143,
      "velocity": 89,
      "chip": "ym2612"
    },
    {
      "channel": 0,
      "note": 51,
      "start": 3.6185,
      "duration": 0.0146,
      "velocity": 95,
      "chip": "ym2612"
    },
    {
      "channel": 1,
      "note": 63,
      "start": 3.6191,
      "duration": 0.0146,
      "velocity": 89,
      "chip": "ym2612"
    },
    {
      "channel": 2,
      "note": 66,
      "start": 3.6197,
      "duration": 0.0146,
      "velocity": 89,
      "chip": "ym2612"
    },
    {
      "channel": 0,
      "note": 51,
      "start": 3.6331,
      "duration": 0.0144,
      "velocity": 95,
      "chip": "ym2612"
    },
    {
      "channel": 1,
      "note": 63,
      "start": 3.6337,
      "duration": 0.0143,
      "velocity": 89,
      "chip": "ym2612"
    },
    {
      "channel": 2,
      "note": 66,
      "start": 3.6344,
      "duration": 0.0143,
      "velocity": 89,
      "chip": "ym2612"
    },
    {
      "channel": 0,
      "note": 51,
      "start": 3.6475,
      "duration": 0.0145,
      "velocity": 95,
      "chip": "ym2612"
    },
    {
      "channel": 1,
      "note": 63,
      "start": 3.648,
      "duration": 0.0146,
      "velocity": 89,
      "chip": "ym2612"
    },
    {
      "channel": 2,
      "note": 66,
      "start": 3.6487,
      "duration": 0.0144,
      "velocity": 89,
      "chip": "ym2612"
    },
    {
      "channel": 0,
      "note": 51,
      "start": 3.662,
      "duration": 0.0144,
      "velocity": 95,
      "chip": "ym2612"
    },
    {
      "channel": 1,
      "note": 63,
      "start": 3.6627,
      "duration": 0.0144,
      "velocity": 89,
      "chip": "ym2612"
    },
    {
      "channel": 2,
      "note": 66,
      "start": 3.6631,
      "duration": 0.0146,
      "velocity": 89,
      "chip": "ym2612"
    },
    {
      "channel": 0,
      "note": 51,
      "start": 3.6764,
      "duration": 0.0143,
      "velocity": 95,
      "chip": "ym2612"
    },
    {
      "channel": 1,
      "note": 63,
      "start": 3.677,
      "duration": 0.0143,
      "velocity": 89,
      "chip": "ym2612"
    },
    {
      "channel": 2,
      "note": 66,
      "start": 3.6777,
      "duration": 0.0143,
      "velocity": 89,
      "chip": "ym2612"
    },
    {
      "channel": 0,
      "note": 51,
      "start": 3.6907,
      "duration": 0.0146,
      "velocity": 95,
      "chip": "ym2612"
    },
    {
      "channel": 1,
      "note": 63,
      "start": 3.6914,
      "duration": 0.0144,
      "velocity": 89,
      "chip": "ym2612"
    },
    {
      "channel": 2,
      "note": 66,
      "start": 3.6919,
      "duration": 0.0145,
      "velocity": 89,
      "chip": "ym2612"
    },
    {
      "channel": 0,
      "note": 51,
      "start": 3.7054,
      "duration": 0.0144,
      "velocity": 95,
      "chip": "ym2612"
    },
    {
      "channel": 1,
      "note": 63,
      "start": 3.7058,
      "duration": 0.0146,
      "velocity": 89,
      "chip": "ym2612"
    },
    {
      "channel": 2,
      "note": 66,
      "start": 3.7064,
      "duration": 0.0144,
      "velocity": 89,
      "chip": "ym2612"
    },
    {
      "channel": 0,
      "note": 51,
      "start": 3.7197,
      "duration": 0.0145,
      "velocity": 95,
      "chip": "ym2612"
    },
    {
      "channel": 1,
      "note": 63,
      "start": 3.7204,
      "duration": 0.0144,
      "velocity": 89,
      "chip": "ym2612"
    },
    {
      "channel": 2,
      "note": 66,
      "start": 3.7209,
      "duration": 0.0146,
      "velocity": 89,
      "chip": "ym2612"
    },
    {
      "channel": 0,
      "note": 51,
      "start": 3.7342,
      "duration": 0.0144,
      "velocity": 95,
      "chip": "ym2612"
    },
    {
      "channel": 1,
      "note": 63,
      "start": 3.7348,
      "duration": 0.0145,
      "velocity": 89,
      "chip": "ym2612"
    },
    {
      "channel": 2,
      "note": 66,
      "start": 3.7354,
      "duration": 0.0144,
      "velocity": 89,
      "chip": "ym2612"
    },
    {
      "channel": 0,
      "note": 51,
      "start": 3.7487,
      "duration": 0.0144,
      "velocity": 95,
      "chip": "ym2612"
    },
    {
      "channel": 1,
      "note": 63,
      "start": 3.7493,
      "duration": 0.0144,
      "velocity": 89,
      "chip": "ym2612"
    },
    {
      "channel": 2,
      "note": 66,
      "start": 3.7499,
      "duration": 0.0144,
      "velocity": 89,
      "chip": "ym2612"
    },
    {
      "channel": 0,
      "note": 51,
      "start": 3.7631,
      "duration": 0.0144,
      "velocity": 95,
      "chip": "ym2612"
    },
    {
      "channel": 1,
      "note": 63,
      "start": 3.7637,
      "duration": 0.0142,
      "velocity": 89,
      "chip": "ym2612"
    },
    {
      "channel": 2,
      "note": 66,
      "start": 3.7643,
      "duration": 0.0143,
      "velocity": 89,
      "chip": "ym2612"
    },
    {
      "channel": 0,
      "note": 51,
      "start": 3.7776,
      "duration": 0.0144,
      "velocity": 95,
      "chip": "ym2612"
    },
    {
      "channel": 1,
      "note": 63,
      "start": 3.778,
      "duration": 0.0146,
      "velocity": 89,
      "chip": "ym2612"
    },
    {
      "channel": 2,
      "note": 66,
      "start": 3.7786,
      "duration": 0.0144,
      "velocity": 89,
      "chip": "ym2612"
    },
    {
      "channel": 0,
      "note": 51,
      "start": 3.792,
      "duration": 0.0144,
      "velocity": 95,
      "chip": "ym2612"
    },
    {
      "channel": 1,
      "note": 63,
      "start": 3.7926,
      "duration": 0.0144,
      "velocity": 89,
      "chip": "ym2612"
    },
    {
      "channel": 2,
      "note": 66,
      "start": 3.7931,
      "duration": 0.0146,
      "velocity": 89,
      "chip": "ym2612"
    },
    {
      "channel": 0,
      "note": 51,
      "start": 3.8064,
      "duration": 0.0143,
      "velocity": 95,
      "chip": "ym2612"
    },
    {
      "channel": 1,
      "note": 63,
      "start": 3.8071,
      "duration": 0.0143,
      "velocity": 89,
      "chip": "ym2612"
    },
    {
      "channel": 2,
      "note": 66,
      "start": 3.8076,
      "duration": 0.0144,
      "velocity": 89,
      "chip": "ym2612"
    },
    {
      "channel": 0,
      "note": 51,
      "start": 3.8207,
      "duration": 0.0146,
      "velocity": 95,
      "chip": "ym2612"
    },
    {
      "channel": 1,
      "note": 63,
      "start": 3.8214,
      "duration": 0.0144,
      "velocity": 89,
      "chip": "ym2612"
    },
    {
      "channel": 2,
      "note": 66,
      "start": 3.822,
      "duration": 0.0144,
      "velocity": 89,
      "chip": "ym2612"
    },
    {
      "channel": 0,
      "note": 51,
      "start": 3.8353,
      "duration": 0.0144,
      "velocity": 95,
      "chip": "ym2612"
    },
    {
      "channel": 1,
      "note": 63,
      "start": 3.8358,
      "duration": 0.0146,
      "velocity": 89,
      "chip": "ym2612"
    },
    {
      "channel": 2,
      "note": 66,
      "start": 3.8364,
      "duration": 0.0144,
      "velocity": 89,
      "chip": "ym2612"
    },
    {
      "channel": 0,
      "note": 51,
      "start": 3.8498,
      "duration": 0.0145,
      "velocity": 95,
      "chip": "ym2612"
    },
    {
      "channel": 1,
      "note": 63,
      "start": 3.8504,
      "duration": 0.0145,
      "velocity": 89,
      "chip": "ym2612"
    },
    {
      "channel": 2,
      "note": 66,
      "start": 3.8508,
      "duration": 0.0147,
      "velocity": 89,
      "chip": "ym2612"
    },
    {
      "channel": 0,
      "note": 51,
      "start": 3.8642,
      "duration": 0.0143,
      "velocity": 95,
      "chip": "ym2612"
    },
    {
      "channel": 1,
      "note": 63,
      "start": 3.8649,
      "duration": 0.0143,
      "velocity": 89,
      "chip": "ym2612"
    },
    {
      "channel": 2,
      "note": 66,
      "start": 3.8655,
      "duration": 0.0142,
      "velocity": 89,
      "chip": "ym2612"
    },
    {
      "channel": 0,
      "note": 51,
      "start": 3.8785,
      "duration": 0.0146,
      "velocity": 95,
      "chip": "ym2612"
    },
    {
      "channel": 1,
      "note": 63,
      "start": 3.8791,
      "duration": 0.0146,
      "velocity": 89,
      "chip": "ym2612"
    },
    {
      "channel": 2,
      "note": 66,
      "start": 3.8798,
      "duration": 0.0146,
      "velocity": 89,
      "chip": "ym2612"
    },
    {
      "channel": 0,
      "note": 51,
      "start": 3.8931,
      "duration": 0.0144,
      "velocity": 95,
      "chip": "ym2612"
    },
    {
      "channel": 1,
      "note": 63,
      "start": 3.8937,
      "duration": 0.0143,
      "velocity": 89,
      "chip": "ym2612"
    },
    {
      "channel": 2,
      "note": 66,
      "start": 3.8943,
      "duration": 0.0143,
      "velocity": 89,
      "chip": "ym2612"
    },
    {
      "channel": 0,
      "note": 51,
      "start": 3.9076,
      "duration": 0.0144,
      "velocity": 95,
      "chip": "ym2612"
    },
    {
      "channel": 1,
      "note": 63,
      "start": 3.908,
      "duration": 0.0146,
      "velocity": 89,
      "chip": "ym2612"
    },
    {
      "channel": 2,
      "note": 66,
      "start": 3.9087,
      "duration": 0.0144,
      "velocity": 89,
      "chip": "ym2612"
    },
    {
      "channel": 0,
      "note": 51,
      "start": 3.922,
      "duration": 0.0144,
      "velocity": 95,
      "chip": "ym2612"
    },
    {
      "channel": 1,
      "note": 63,
      "start": 3.9227,
      "duration": 0.0144,
      "velocity": 89,
      "chip": "ym2612"
    },
    {
      "channel": 2,
      "note": 66,
      "start": 3.9231,
      "duration": 0.0146,
      "velocity": 89,
      "chip": "ym2612"
    },
    {
      "channel": 0,
      "note": 51,
      "start": 3.9365,
      "duration": 0.0143,
      "velocity": 95,
      "chip": "ym2612"
    },
    {
      "channel": 1,
      "note": 63,
      "start": 3.9371,
      "duration": 0.0142,
      "velocity": 89,
      "chip": "ym2612"
    },
    {
      "channel": 2,
      "note": 66,
      "start": 3.9377,
      "duration": 0.0143,
      "velocity": 89,
      "chip": "ym2612"
    },
    {
      "channel": 0,
      "note": 51,
      "start": 3.9508,
      "duration": 0.0146,
      "velocity": 95,
      "chip": "ym2612"
    },
    {
      "channel": 1,
      "note": 63,
      "start": 3.9513,
      "duration": 0.0145,
      "velocity": 89,
      "chip": "ym2612"
    },
    {
      "channel": 2,
      "note": 66,
      "start": 3.952,
      "duration": 0.0144,
      "velocity": 89,
      "chip": "ym2612"
    },
    {
      "channel": 0,
      "note": 51,
      "start": 3.9653,
      "duration": 0.0144,
      "velocity": 95,
      "chip": "ym2612"
    },
    {
      "channel": 1,
      "note": 63,
      "start": 3.9659,
      "duration": 0.0146,
      "velocity": 89,
      "chip": "ym2612"
    },
    {
      "channel": 2,
      "note": 66,
      "start": 3.9664,
      "duration": 0.0144,
      "velocity": 89,
      "chip": "ym2612"
    },
    {
      "channel": 0,
      "note": 51,
      "start": 3.9798,
      "duration": 0.0145,
      "velocity": 95,
      "chip": "ym2612"
    },
    {
      "channel": 1,
      "note": 63,
      "start": 3.9804,
      "duration": 0.0144,
      "velocity": 89,
      "chip": "ym2612"
    },
    {
      "channel": 2,
      "note": 66,
      "start": 3.9809,
      "duration": 0.0146,
      "velocity": 89,
      "chip": "ym2612"
    },
    {
      "channel": 0,
      "note": 51,
      "start": 3.9943,
      "duration": 0.0143,
      "velocity": 95,
      "chip": "ym2612"
    },
    {
      "channel": 1,
      "note": 63,
      "start": 3.9949,
      "duration": 0.0143,
      "velocity": 89,
      "chip": "ym2612"
    },
    {
      "channel": 2,
      "note": 66,
      "start": 3.9955,
      "duration": 0.0143,
      "velocity": 89,
      "chip": "ym2612"
    },
    {
      "channel": 0,
      "note": 51,
      "start": 4.0086,
      "duration": 0.0146,
      "velocity": 95,
      "chip": "ym2612"
    },
    {
      "channel": 1,
      "note": 63,
      "start": 4.0092,
      "duration": 0.0146,
      "velocity": 89,
      "chip": "ym2612"
    },
    {
      "channel": 2,
      "note": 66,
      "start": 4.0098,
      "duration": 0.0146,
      "velocity": 89,
      "chip": "ym2612"
    },
    {
      "channel": 0,
      "note": 51,
      "start": 4.0232,
      "duration": 0.0144,
      "velocity": 95,
      "chip": "ym2612"
    },
    {
      "channel": 1,
      "note": 63,
      "start": 4.0238,
      "duration": 0.0143,
      "velocity": 89,
      "chip": "ym2612"
    },
    {
      "channel": 2,
      "note": 66,
      "start": 4.0244,
      "duration": 0.0143,
      "velocity": 89,
      "chip": "ym2612"
    },
    {
      "channel": 0,
      "note": 51,
      "start": 4.0376,
      "duration": 0.0144,
      "velocity": 95,
      "chip": "ym2612"
    },
    {
      "channel": 1,
      "note": 63,
      "start": 4.038,
      "duration": 0.0146,
      "velocity": 89,
      "chip": "ym2612"
    },
    {
      "channel": 2,
      "note": 66,
      "start": 4.0387,
      "duration": 0.0144,
      "velocity": 89,
      "chip": "ym2612"
    },
    {
      "channel": 0,
      "note": 51,
      "start": 4.052,
      "duration": 0.0142,
      "velocity": 95,
      "chip": "ym2612"
    },
    {
      "channel": 1,
      "note": 63,
      "start": 4.0526,
      "duration": 0.0145,
      "velocity": 89,
      "chip": "ym2612"
    },
    {
      "channel": 2,
      "note": 66,
      "start": 4.0531,
      "duration": 0.0142,
      "velocity": 89,
      "chip": "ym2612"
    },
    {
      "channel": 0,
      "note": 51,
      "start": 4.0666,
      "duration": 0.316,
      "velocity": 95,
      "chip": "ym2612"
    },
    {
      "channel": 1,
      "note": 63,
      "start": 4.0671,
      "duration": 0.0038,
      "velocity": 89,
      "chip": "ym2612"
    },
    {
      "channel": 2,
      "note": 56,
      "start": 4.0677,
      "duration": 0.1996,
      "velocity": 89,
      "chip": "ym2612"
    },
    {
      "channel": 1,
      "note": 63,
      "start": 4.071,
      "duration": 0.0024,
      "velocity": 89,
      "chip": "ym2612"
    },
    {
      "channel": 1,
      "note": 63,
      "start": 4.0734,
      "duration": 0.0062,
      "velocity": 89,
      "chip": "ym2612"
    },
    {
      "channel": 1,
      "note": 63,
      "start": 4.0795,
      "duration": 0.0144,
      "velocity": 89,
      "chip": "ym2612"
    },
    {
      "channel": 1,
      "note": 63,
      "start": 4.094,
      "duration": 0.0144,
      "velocity": 89,
      "chip": "ym2612"
    },
    {
      "channel": 1,
      "note": 63,
      "start": 4.1084,
      "duration": 0.0144,
      "velocity": 89,
      "chip": "ym2612"
    },
    {
      "channel": 1,
      "note": 63,
      "start": 4.1228,
      "duration": 0.0143,
      "velocity": 89,
      "chip": "ym2612"
    },
    {
      "channel": 1,
      "note": 63,
      "start": 4.1371,
      "duration": 0.0146,
      "velocity": 89,
      "chip": "ym2612"
    },
    {
      "channel": 1,
      "note": 63,
      "start": 4.1517,
      "duration": 0.0144,
      "velocity": 89,
      "chip": "ym2612"
    },
    {
      "channel": 1,
      "note": 63,
      "start": 4.1662,
      "duration": 0.0144,
      "velocity": 89,
      "chip": "ym2612"
    },
    {
      "channel": 1,
      "note": 63,
      "start": 4.1806,
      "duration": 0.0143,
      "velocity": 89,
      "chip": "ym2612"
    },
    {
      "channel": 1,
      "note": 63,
      "start": 4.1949,
      "duration": 0.0146,
      "velocity": 89,
      "chip": "ym2612"
    },
    {
      "channel": 1,
      "note": 63,
      "start": 4.2095,
      "duration": 0.0145,
      "velocity": 89,
      "chip": "ym2612"
    },
    {
      "channel": 1,
      "note": 63,
      "start": 4.224,
      "duration": 0.0144,
      "velocity": 89,
      "chip": "ym2612"
    },
    {
      "channel": 1,
      "note": 63,
      "start": 4.2385,
      "duration": 0.0144,
      "velocity": 89,
      "chip": "ym2612"
    },
    {
      "channel": 1,
      "note": 63,
      "start": 4.2528,
      "duration": 0.0143,
      "velocity": 89,
      "chip": "ym2612"
    },
    {
      "channel": 1,
      "note": 63,
      "start": 4.2671,
      "duration": 0.0146,
      "velocity": 89,
      "chip": "ym2612"
    },
    {
      "channel": 2,
      "note": 59,
      "start": 4.2678,
      "duration": 0.2312,
      "velocity": 89,
      "chip": "ym2612"
    },
    {
      "channel": 1,
      "note": 63,
      "start": 4.2818,
      "duration": 0.0144,
      "velocity": 89,
      "chip": "ym2612"
    },
    {
      "channel": 1,
      "note": 63,
      "start": 4.2962,
      "duration": 0.0144,
      "velocity": 89,
      "chip": "ym2612"
    },
    {
      "channel": 1,
      "note": 63,
      "start": 4.3106,
      "duration": 0.0144,
      "velocity": 89,
      "chip": "ym2612"
    },
    {
      "channel": 1,
      "note": 63,
      "start": 4.325,
      "duration": 0.0146,
      "velocity": 89,
      "chip": "ym2612"
    },
    {
      "channel": 1,
      "note": 63,
      "start": 4.3395,
      "duration": 0.0144,
      "velocity": 89,
      "chip": "ym2612"
    },
    {
      "channel": 1,
      "note": 63,
      "start": 4.354,
      "duration": 0.0144,
      "velocity": 89,
      "chip": "ym2612"
    },
    {
      "channel": 1,
      "note": 63,
      "start": 4.3684,
      "duration": 0.0148,
      "velocity": 89,
      "chip": "ym2612"
    },
    {
      "channel": 0,
      "note": 51,
      "start": 4.3826,
      "duration": 0.0143,
      "velocity": 95,
      "chip": "ym2612"
    },
    {
      "channel": 1,
      "note": 63,
      "start": 4.3832,
      "duration": 0.0141,
      "velocity": 89,
      "chip": "ym2612"
    },
    {
      "channel": 0,
      "note": 51,
      "start": 4.3969,
      "duration": 0.0146,
      "velocity": 95,
      "chip": "ym2612"
    },
    {
      "channel": 1,
      "note": 63,
      "start": 4.3974,
      "duration": 0.0147,
      "velocity": 89,
      "chip": "ym2612"
    },
    {
      "channel": 0,
      "note": 51,
      "start": 4.4115,
      "duration": 0.0144,
      "velocity": 95,
      "chip": "ym2612"
    },
    {
      "channel": 1,
      "note": 63,
      "start": 4.4121,
      "duration": 0.0145,
      "velocity": 89,
      "chip": "ym2612"
    },
    {
      "channel": 0,
      "note": 51,
      "start": 4.4259,
      "duration": 0.0144,
      "velocity": 95,
      "chip": "ym2612"
    },
    {
      "channel": 1,
      "note": 63,
      "start": 4.4266,
      "duration": 0.0144,
      "velocity": 89,
      "chip": "ym2612"
    },
    {
      "channel": 0,
      "note": 51,
      "start": 4.4404,
      "duration": 0.0143,
      "velocity": 95,
      "chip": "ym2612"
    },
    {
      "channel": 1,
      "note": 63,
      "start": 4.441,
      "duration": 0.0142,
      "velocity": 89,
      "chip": "ym2612"
    },
    {
      "channel": 0,
      "note": 51,
      "start": 4.4547,
      "duration": 0.0146,
      "velocity": 95,
      "chip": "ym2612"
    },
    {
      "channel": 1,
      "note": 63,
      "start": 4.4552,
      "duration": 0.0147,
      "velocity": 89,
      "chip": "ym2612"
    },
    {
      "channel": 0,
      "note": 51,
      "start": 4.4693,
      "duration": 0.0145,
      "velocity": 95,
      "chip": "ym2612"
    },
    {
      "channel": 1,
      "note": 63,
      "start": 4.4699,
      "duration": 0.0145,
      "velocity": 89,
      "chip": "ym2612"
    },
    {
      "channel": 0,
      "note": 51,
      "start": 4.4837,
      "duration": 0.0144,
      "velocity": 95,
      "chip": "ym2612"
    },
    {
      "channel": 1,
      "note": 63,
      "start": 4.4844,
      "duration": 0.0144,
      "velocity": 89,
      "chip": "ym2612"
    },
    {
      "channel": 0,
      "note": 51,
      "start": 4.4981,
      "duration": 0.0145,
      "velocity": 95,
      "chip": "ym2612"
    },
    {
      "channel": 1,
      "note": 63,
      "start": 4.4988,
      "duration": 0.0144,
      "velocity": 89,
      "chip": "ym2612"
    },
    {
      "channel": 2,
      "note": 63,
      "start": 4.4994,
      "duration": 0.3159,
      "velocity": 89,
      "chip": "ym2612"
    },
    {
      "channel": 0,
      "note": 51,
      "start": 4.5126,
      "duration": 0.0142,
      "velocity": 95,
      "chip": "ym2612"
    },
    {
      "channel": 1,
      "note": 63,
      "start": 4.5132,
      "duration": 0.0142,
      "velocity": 89,
      "chip": "ym2612"
    },
    {
      "channel": 0,
      "note": 51,
      "start": 4.5269,
      "duration": 0.0146,
      "velocity": 95,
      "chip": "ym2612"
    },
    {
      "channel": 1,
      "note": 63,
      "start": 4.5274,
      "duration": 0.0148,
      "velocity": 89,
      "chip": "ym2612"
    },
    {
      "channel": 0,
      "note": 51,
      "start": 4.5415,
      "duration": 0.0144,
      "velocity": 95,
      "chip": "ym2612"
    },
    {
      "channel": 1,
      "note": 63,
      "start": 4.5422,
      "duration": 0.0144,
      "velocity": 89,
      "chip": "ym2612"
    },
    {
      "channel": 0,
      "note": 51,
      "start": 4.5559,
      "duration": 0.0144,
      "velocity": 95,
      "chip": "ym2612"
    },
    {
      "channel": 1,
      "note": 63,
      "start": 4.5566,
      "duration": 0.0144,
      "velocity": 89,
      "chip": "ym2612"
    },
    {
      "channel": 0,
      "note": 51,
      "start": 4.5704,
      "duration": 0.0143,
      "velocity": 95,
      "chip": "ym2612"
    },
    {
      "channel": 1,
      "note": 63,
      "start": 4.571,
      "duration": 0.0142,
      "velocity": 89,
      "chip": "ym2612"
    },
    {
      "channel": 0,
      "note": 51,
      "start": 4.5847,
      "duration": 0.0146,
      "velocity": 95,
      "chip": "ym2612"
    },
    {
      "channel": 1,
      "note": 63,
      "start": 4.5851,
      "duration": 0.0148,
      "velocity": 89,
      "chip": "ym2612"
    },
    {
      "channel": 0,
      "note": 51,
      "start": 4.5993,
      "duration": 0.0144,
      "velocity": 95,
      "chip": "ym2612"
    },
    {
      "channel": 1,
      "note": 63,
      "start": 4.5999,
      "duration": 0.0145,
      "velocity": 89,
      "chip": "ym2612"
    },
    {
      "channel": 0,
      "note": 51,
      "start": 4.6138,
      "duration": 0.0144,
      "velocity": 95,
      "chip": "ym2612"
    },
    {
      "channel": 1,
      "note": 63,
      "start": 4.6144,
      "duration": 0.0144,
      "velocity": 89,
      "chip": "ym2612"
    },
    {
      "channel": 0,
      "note": 51,
      "start": 4.6281,
      "duration": 0.0144,
      "velocity": 95,
      "chip": "ym2612"
    },
    {
      "channel": 1,
      "note": 63,
      "start": 4.6288,
      "duration": 0.0144,
      "velocity": 89,
      "chip": "ym2612"
    },
    {
      "channel": 0,
      "note": 51,
      "start": 4.6426,
      "duration": 0.0144,
      "velocity": 95,
      "chip": "ym2612"
    },
    {
      "channel": 1,
      "note": 63,
      "start": 4.6432,
      "duration": 0.0142,
      "velocity": 89,
      "chip": "ym2612"
    },
    {
      "channel": 0,
      "note": 51,
      "start": 4.657,
      "duration": 0.0146,
      "velocity": 95,
      "chip": "ym2612"
    },
    {
      "channel": 1,
      "note": 63,
      "start": 4.6574,
      "duration": 0.0147,
      "velocity": 89,
      "chip": "ym2612"
    },
    {
      "channel": 0,
      "note": 51,
      "start": 4.6715,
      "duration": 0.0144,
      "velocity": 95,
      "chip": "ym2612"
    },
    {
      "channel": 1,
      "note": 63,
      "start": 4.6721,
      "duration": 0.0144,
      "velocity": 89,
      "chip": "ym2612"
    },
    {
      "channel": 0,
      "note": 51,
      "start": 4.686,
      "duration": 0.0144,
      "velocity": 95,
      "chip": "ym2612"
    },
    {
      "channel": 1,
      "note": 63,
      "start": 4.6866,
      "duration": 0.0145,
      "velocity": 89,
      "chip": "ym2612"
    },
    {
      "channel": 0,
      "note": 51,
      "start": 4.7004,
      "duration": 0.0143,
      "velocity": 95,
      "chip": "ym2612"
    },
    {
      "channel": 1,
      "note": 63,
      "start": 4.701,
      "duration": 0.0141,
      "velocity": 89,
      "chip": "ym2612"
    },
    {
      "channel": 0,
      "note": 51,
      "start": 4.7147,
      "duration": 0.0146,
      "velocity": 95,
      "chip": "ym2612"
    },
    {
      "channel": 1,
      "note": 63,
      "start": 4.7152,
      "duration": 0.0148,
      "velocity": 89,
      "chip": "ym2612"
    },
    {
      "channel": 0,
      "note": 51,
      "start": 4.7293,
      "duration": 0.0042,
      "velocity": 95,
      "chip": "ym2612"
    },
    {
      "channel": 1,
      "note": 63,
      "start": 4.7299,
      "duration": 0.0042,
      "velocity": 89,
      "chip": "ym2612"
    },
    {
      "channel": 0,
      "note": 51,
      "start": 4.7335,
      "duration": 0.0034,
      "velocity": 95,
      "chip": "ym2612"
    },
    {
      "channel": 1,
      "note": 63,
      "start": 4.7341,
      "duration": 0.0034,
      "velocity": 89,
      "chip": "ym2612"
    },
    {
      "channel": 0,
      "note": 51,
      "start": 4.7369,
      "duration": 0.0052,
      "velocity": 95,
      "chip": "ym2612"
    },
    {
      "channel": 1,
      "note": 63,
      "start": 4.7376,
      "duration": 0.0052,
      "velocity": 89,
      "chip": "ym2612"
    },
    {
      "channel": 0,
      "note": 51,
      "start": 4.7421,
      "duration": 0.0143,
      "velocity": 95,
      "chip": "ym2612"
    },
    {
      "channel": 1,
      "note": 63,
      "start": 4.7427,
      "duration": 0.0141,
      "velocity": 89,
      "chip": "ym2612"
    },
    {
      "channel": 0,
      "note": 51,
      "start": 4.7564,
      "duration": 0.0146,
      "velocity": 95,
      "chip": "ym2612"
    },
    {
      "channel": 1,
      "note": 63,
      "start": 4.7568,
      "duration": 0.0148,
      "velocity": 89,
      "chip": "ym2612"
    },
    {
      "channel": 0,
      "note": 51,
      "start": 4.771,
      "duration": 0.0144,
      "velocity": 95,
      "chip": "ym2612"
    },
    {
      "channel": 1,
      "note": 63,
      "start": 4.7716,
      "duration": 0.0145,
      "velocity": 89,
      "chip": "ym2612"
    },
    {
      "channel": 0,
      "note": 51,
      "start": 4.7855,
      "duration": 0.0144,
      "velocity": 95,
      "chip": "ym2612"
    },
    {
      "channel": 1,
      "note": 63,
      "start": 4.7861,
      "duration": 0.0144,
      "velocity": 89,
      "chip": "ym2612"
    },
    {
      "channel": 0,
      "note": 51,
      "start": 4.7999,
      "duration": 0.0143,
      "velocity": 95,
      "chip": "ym2612"
    },
    {
      "channel": 1,
      "note": 63,
      "start": 4.8005,
      "duration": 0.0141,
      "velocity": 89,
      "chip": "ym2612"
    },
    {
      "channel": 0,
      "note": 51,
      "start": 4.8142,
      "duration": 0.0146,
      "velocity": 95,
      "chip": "ym2612"
    },
    {
      "channel": 1,
      "note": 63,
      "start": 4.8147,
      "duration": 0.0148,
      "velocity": 89,
      "chip": "ym2612"
    },
    {
      "channel": 2,
      "note": 63,
      "start": 4.8153,
      "duration": 0.0146,
      "velocity": 89,
      "chip": "ym2612"
    },
    {
      "channel": 0,
      "note": 51,
      "start": 4.8288,
      "duration": 0.0144,
      "velocity": 95,
      "chip": "ym2612"
    },
    {
      "channel": 1,
      "note": 63,
      "start": 4.8294,
      "duration": 0.0144,
      "velocity": 89,
      "chip": "ym2612"
    },
    {
      "channel": 2,
      "note": 63,
      "start": 4.8299,
      "duration": 0.0146,
      "velocity": 89,
      "chip": "ym2612"
    },
    {
      "channel": 0,
      "note": 51,
      "start": 4.8432,
      "duration": 0.0144,
      "velocity": 95,
      "chip": "ym2612"
    },
    {
      "channel": 1,
      "note": 63,
      "start": 4.8439,
      "duration": 0.0144,
      "velocity": 89,
      "chip": "ym2612"
    },
    {
      "channel": 2,
      "note": 63,
      "start": 4.8444,
      "duration": 0.0145,
      "velocity": 89,
      "chip": "ym2612"
    },
    {
      "channel": 0,
      "note": 51,
      "start": 4.8577,
      "duration": 0.0144,
      "velocity": 95,
      "chip": "ym2612"
    },
    {
      "channel": 1,
      "note": 63,
      "start": 4.8583,
      "duration": 0.0144,
      "velocity": 89,
      "chip": "ym2612"
    },
    {
      "channel": 2,
      "note": 63,
      "start": 4.859,
      "duration": 0.0144,
      "velocity": 89,
      "chip": "ym2612"
    },
    {
      "channel": 0,
      "note": 51,
      "start": 4.8721,
      "duration": 0.0143,
      "velocity": 95,
      "chip": "ym2612"
    },
    {
      "channel": 1,
      "note": 63,
      "start": 4.8727,
      "duration": 0.0142,
      "velocity": 89,
      "chip": "ym2612"
    },
    {
      "channel": 2,
      "note": 63,
      "start": 4.8733,
      "duration": 0.0141,
      "velocity": 89,
      "chip": "ym2612"
    },
    {
      "channel": 0,
      "note": 51,
      "start": 4.8864,
      "duration": 0.0146,
      "velocity": 95,
      "chip": "ym2612"
    },
    {
      "channel": 1,
      "note": 63,
      "start": 4.8869,
      "duration": 0.0147,
      "velocity": 89,
      "chip": "ym2612"
    },
    {
      "channel": 2,
      "note": 63,
      "start": 4.8874,
      "duration": 0.0149,
      "velocity": 89,
      "chip": "ym2612"
    },
    {
      "channel": 0,
      "note": 51,
      "start": 4.901,
      "duration": 0.0144,
      "velocity": 95,
      "chip": "ym2612"
    },
    {
      "channel": 1,
      "note": 63,
      "start": 4.9016,
      "duration": 0.0144,
      "velocity": 89,
      "chip": "ym2612"
    },
    {
      "channel": 2,
      "note": 63,
      "start": 4.9023,
      "duration": 0.0144,
      "velocity": 89,
      "chip": "ym2612"
    },
    {
      "channel": 0,
      "note": 51,
      "start": 4.9154,
      "duration": 0.0144,
      "velocity": 95,
      "chip": "ym2612"
    },
    {
      "channel": 1,
      "note": 63,
      "start": 4.9161,
      "duration": 0.0144,
      "velocity": 89,
      "chip": "ym2612"
    },
    {
      "channel": 2,
      "note": 63,
      "start": 4.9167,
      "duration": 0.0144,
      "velocity": 89,
      "chip": "ym2612"
    },
    {
      "channel": 0,
      "note": 51,
      "start": 4.9299,
      "duration": 0.0144,
      "velocity": 95,
      "chip": "ym2612"
    },
    {
      "channel": 1,
      "note": 63,
      "start": 4.9305,
      "duration": 0.0142,
      "velocity": 89,
      "chip": "ym2612"
    },
    {
      "channel": 2,
      "note": 63,
      "start": 4.9312,
      "duration": 0.0142,
      "velocity": 89,
      "chip": "ym2612"
    },
    {
      "channel": 0,
      "note": 51,
      "start": 4.9443,
      "duration": 0.0146,
      "velocity": 95,
      "chip": "ym2612"
    },
    {
      "channel": 1,
      "note": 63,
      "start": 4.9447,
      "duration": 0.0148,
      "velocity": 89,
      "chip": "ym2612"
    },
    {
      "channel": 2,
      "note": 63,
      "start": 4.9453,
      "duration": 0.0146,
      "velocity": 89,
      "chip": "ym2612"
    },
    {
      "channel": 0,
      "note": 51,
      "start": 4.9588,
      "duration": 0.0144,
      "velocity": 95,
      "chip": "ym2612"
    },
    {
      "channel": 1,
      "note": 63,
      "start": 4.9595,
      "duration": 0.0144,
      "velocity": 89,
      "chip": "ym2612"
    },
    {
      "channel": 2,
      "note": 63,
      "start": 4.9599,
      "duration": 0.0146,
      "velocity": 89,
      "chip": "ym2612"
    },
    {
      "channel": 0,
      "note": 51,
      "start": 4.9733,
      "duration": 0.0144,
      "velocity": 95,
      "chip": "ym2612"
    },
    {
      "channel": 1,
      "note": 63,
      "start": 4.9739,
      "duration": 0.0144,
      "velocity": 89,
      "chip": "ym2612"
    },
    {
      "channel": 2,
      "note": 63,
      "start": 4.9745,
      "duration": 0.0145,
      "velocity": 89,
      "chip": "ym2612"
    },
    {
      "channel": 0,
      "note": 51,
      "start": 4.9877,
      "duration": 0.0144,
      "velocity": 95,
      "chip": "ym2612"
    },
    {
      "channel": 1,
      "note": 63,
      "start": 4.9883,
      "duration": 0.0144,
      "velocity": 89,
      "chip": "ym2612"
    },
    {
      "channel": 2,
      "note": 63,
      "start": 4.989,
      "duration": 0.0144,
      "velocity": 89,
      "chip": "ym2612"
    },
    {
      "channel": 0,
      "note": 51,
      "start": 5.0022,
      "duration": 0.0142,
      "velocity": 95,
      "chip": "ym2612"
    },
    {
      "channel": 1,
      "note": 63,
      "start": 5.0028,
      "duration": 0.0141,
      "velocity": 89,
      "chip": "ym2612"
    },
    {
      "channel": 2,
      "note": 63,
      "start": 5.0034,
      "duration": 0.014,
      "velocity": 89,
      "chip": "ym2612"
    },
    {
      "channel": 0,
      "note": 51,
      "start": 5.0164,
      "duration": 0.0146,
      "velocity": 95,
      "chip": "ym2612"
    },
    {
      "channel": 1,
      "note": 63,
      "start": 5.0169,
      "duration": 0.0148,
      "velocity": 89,
      "chip": "ym2612"
    },
    {
      "channel": 2,
      "note": 63,
      "start": 5.0173,
      "duration": 0.0149,
      "velocity": 89,
      "chip": "ym2612"
    },
    {
      "channel": 0,
      "note": 51,
      "start": 5.031,
      "duration": 0.0144,
      "velocity": 95,
      "chip": "ym2612"
    },
    {
      "channel": 1,
      "note": 63,
      "start": 5.0317,
      "duration": 0.0144,
      "velocity": 89,
      "chip": "ym2612"
    },
    {
      "channel": 2,
      "note": 63,
      "start": 5.0323,
      "duration": 0.0144,
      "velocity": 89,
      "chip": "ym2612"
    },
    {
      "channel": 0,
      "note": 51,
      "start": 5.0455,
      "duration": 0.0144,
      "velocity": 95,
      "chip": "ym2612"
    },
    {
      "channel": 1,
      "note": 63,
      "start": 5.0461,
      "duration": 0.0144,
      "velocity": 89,
      "chip": "ym2612"
    },
    {
      "channel": 2,
      "note": 63,
      "start": 5.0467,
      "duration": 0.0144,
      "velocity": 89,
      "chip": "ym2612"
    },
    {
      "channel": 0,
      "note": 51,
      "start": 5.0599,
      "duration": 0.0143,
      "velocity": 95,
      "chip": "ym2612"
    },
    {
      "channel": 1,
      "note": 63,
      "start": 5.0605,
      "duration": 0.0142,
      "velocity": 89,
      "chip": "ym2612"
    },
    {
      "channel": 2,
      "note": 63,
      "start": 5.0611,
      "duration": 0.0142,
      "velocity": 89,
      "chip": "ym2612"
    },
    {
      "channel": 0,
      "note": 51,
      "start": 5.0742,
      "duration": 0.0146,
      "velocity": 95,
      "chip": "ym2612"
    },
    {
      "channel": 1,
      "note": 63,
      "start": 5.0747,
      "duration": 0.0147,
      "velocity": 89,
      "chip": "ym2612"
    },
    {
      "channel": 2,
      "note": 63,
      "start": 5.0753,
      "duration": 0.0146,
      "velocity": 89,
      "chip": "ym2612"
    },
    {
      "channel": 0,
      "note": 51,
      "start": 5.0888,
      "duration": 0.0145,
      "velocity": 95,
      "chip": "ym2612"
    },
    {
      "channel": 1,
      "note": 63,
      "start": 5.0894,
      "duration": 0.0145,
      "velocity": 89,
      "chip": "ym2612"
    },
    {
      "channel": 2,
      "note": 63,
      "start": 5.0899,
      "duration": 0.0146,
      "velocity": 89,
      "chip": "ym2612"
    },
    {
      "channel": 0,
      "note": 51,
      "start": 5.1033,
      "duration": 0.0144,
      "velocity": 95,
      "chip": "ym2612"
    },
    {
      "channel": 1,
      "note": 63,
      "start": 5.1039,
      "duration": 0.0144,
      "velocity": 89,
      "chip": "ym2612"
    },
    {
      "channel": 2,
      "note": 63,
      "start": 5.1046,
      "duration": 0.0144,
      "velocity": 89,
      "chip": "ym2612"
    },
    {
      "channel": 0,
      "note": 51,
      "start": 5.1177,
      "duration": 0.0145,
      "velocity": 95,
      "chip": "ym2612"
    },
    {
      "channel": 1,
      "note": 63,
      "start": 5.1183,
      "duration": 0.0145,
      "velocity": 89,
      "chip": "ym2612"
    },
    {
      "channel": 2,
      "note": 63,
      "start": 5.1189,
      "duration": 0.0144,
      "velocity": 89,
      "chip": "ym2612"
    },
    {
      "channel": 0,
      "note": 51,
      "start": 5.1322,
      "duration": 0.0143,
      "velocity": 95,
      "chip": "ym2612"
    },
    {
      "channel": 1,
      "note": 63,
      "start": 5.1328,
      "duration": 0.0141,
      "velocity": 89,
      "chip": "ym2612"
    },
    {
      "channel": 2,
      "note": 63,
      "start": 5.1334,
      "duration": 0.014,
      "velocity": 89,
      "chip": "ym2612"
    },
    {
      "channel": 0,
      "note": 51,
      "start": 5.1465,
      "duration": 0.0146,
      "velocity": 95,
      "chip": "ym2612"
    },
    {
      "channel": 1,
      "note": 63,
      "start": 5.1469,
      "duration": 0.0147,
      "velocity": 89,
      "chip": "ym2612"
    },
    {
      "channel": 2,
      "note": 63,
      "start": 5.1474,
      "duration": 0.0149,
      "velocity": 89,
      "chip": "ym2612"
    },
    {
      "channel": 0,
      "note": 51,
      "start": 5.161,
      "duration": 0.0144,
      "velocity": 95,
      "chip": "ym2612"
    },
    {
      "channel": 1,
      "note": 63,
      "start": 5.1616,
      "duration": 0.0144,
      "velocity": 89,
      "chip": "ym2612"
    },
    {
      "channel": 2,
      "note": 63,
      "start": 5.1623,
      "duration": 0.0144,
      "velocity": 89,
      "chip": "ym2612"
    },
    {
      "channel": 0,
      "note": 51,
      "start": 5.1755,
      "duration": 0.0144,
      "velocity": 95,
      "chip": "ym2612"
    },
    {
      "channel": 1,
      "note": 63,
      "start": 5.1761,
      "duration": 0.0145,
      "velocity": 89,
      "chip": "ym2612"
    },
    {
      "channel": 2,
      "note": 63,
      "start": 5.1767,
      "duration": 0.0145,
      "velocity": 89,
      "chip": "ym2612"
    },
    {
      "channel": 0,
      "note": 51,
      "start": 5.1899,
      "duration": 0.0143,
      "velocity": 95,
      "chip": "ym2612"
    },
    {
      "channel": 1,
      "note": 63,
      "start": 5.1906,
      "duration": 0.0142,
      "velocity": 89,
      "chip": "ym2612"
    },
    {
      "channel": 2,
      "note": 63,
      "start": 5.1912,
      "duration": 0.0142,
      "velocity": 89,
      "chip": "ym2612"
    },
    {
      "channel": 0,
      "note": 51,
      "start": 5.2042,
      "duration": 0.0146,
      "velocity": 95,
      "chip": "ym2612"
    },
    {
      "channel": 1,
      "note": 63,
      "start": 5.2048,
      "duration": 0.0147,
      "velocity": 89,
      "chip": "ym2612"
    },
    {
      "channel": 2,
      "note": 63,
      "start": 5.2054,
      "duration": 0.0145,
      "velocity": 89,
      "chip": "ym2612"
    },
    {
      "channel": 0,
      "note": 51,
      "start": 5.2188,
      "duration": 0.0144,
      "velocity": 95,
      "chip": "ym2612"
    },
    {
      "channel": 1,
      "note": 63,
      "start": 5.2195,
      "duration": 0.0144,
      "velocity": 89,
      "chip": "ym2612"
    },
    {
      "channel": 2,
      "note": 63,
      "start": 5.2199,
      "duration": 0.0146,
      "velocity": 89,
      "chip": "ym2612"
    },
    {
      "channel": 0,
      "note": 51,
      "start": 5.2332,
      "duration": 0.0144,
      "velocity": 95,
      "chip": "ym2612"
    },
    {
      "channel": 1,
      "note": 63,
      "start": 5.2339,
      "duration": 0.0144,
      "velocity": 89,
      "chip": "ym2612"
    },
    {
      "channel": 2,
      "note": 63,
      "start": 5.2345,
      "duration": 0.0145,
      "velocity": 89,
      "chip": "ym2612"
    },
    {
      "channel": 0,
      "note": 51,
      "start": 5.2477,
      "duration": 0.0144,
      "velocity": 95,
      "chip": "ym2612"
    },
    {
      "channel": 1,
      "note": 63,
      "start": 5.2483,
      "duration": 0.0144,
      "velocity": 89,
      "chip": "ym2612"
    },
    {
      "channel": 2,
      "note": 63,
      "start": 5.249,
      "duration": 0.0144,
      "velocity": 89,
      "chip": "ym2612"
    },
    {
      "channel": 0,
      "note": 51,
      "start": 5.2621,
      "duration": 0.0144,
      "velocity": 95,
      "chip": "ym2612"
    },
    {
      "channel": 1,
      "note": 63,
      "start": 5.2628,
      "duration": 0.0142,
      "velocity": 89,
      "chip": "ym2612"
    },
    {
      "channel": 2,
      "note": 63,
      "start": 5.2634,
      "duration": 0.014,
      "velocity": 89,
      "chip": "ym2612"
    },
    {
      "channel": 0,
      "note": 51,
      "start": 5.2765,
      "duration": 0.0146,
      "velocity": 95,
      "chip": "ym2612"
    },
    {
      "channel": 1,
      "note": 63,
      "start": 5.277,
      "duration": 0.0147,
      "velocity": 89,
      "chip": "ym2612"
    },
    {
      "channel": 2,
      "note": 63,
      "start": 5.2774,
      "duration": 0.0149,
      "velocity": 89,
      "chip": "ym2612"
    },
    {
      "channel": 0,
      "note": 51,
      "start": 5.2911,
      "duration": 0.0144,
      "velocity": 95,
      "chip": "ym2612"
    },
    {
      "channel": 1,
      "note": 63,
      "start": 5.2917,
      "duration": 0.0145,
      "velocity": 89,
      "chip": "ym2612"
    },
    {
      "channel": 2,
      "note": 63,
      "start": 5.2923,
      "duration": 0.0144,
      "velocity": 89,
      "chip": "ym2612"
    },
    {
      "channel": 0,
      "note": 51,
      "start": 5.3055,
      "duration": 0.0144,
      "velocity": 95,
      "chip": "ym2612"
    },
    {
      "channel": 1,
      "note": 63,
      "start": 5.3061,
      "duration": 0.0144,
      "velocity": 89,
      "chip": "ym2612"
    },
    {
      "channel": 2,
      "note": 63,
      "start": 5.3067,
      "duration": 0.0144,
      "velocity": 89,
      "chip": "ym2612"
    },
    {
      "channel": 0,
      "note": 51,
      "start": 5.32,
      "duration": 0.0143,
      "velocity": 95,
      "chip": "ym2612"
    },
    {
      "channel": 1,
      "note": 63,
      "start": 5.3206,
      "duration": 0.0141,
      "velocity": 89,
      "chip": "ym2612"
    },
    {
      "channel": 2,
      "note": 63,
      "start": 5.3212,
      "duration": 0.0142,
      "velocity": 89,
      "chip": "ym2612"
    },
    {
      "channel": 0,
      "note": 51,
      "start": 5.3343,
      "duration": 0.0146,
      "velocity": 95,
      "chip": "ym2612"
    },
    {
      "channel": 1,
      "note": 63,
      "start": 5.3347,
      "duration": 0.0148,
      "velocity": 89,
      "chip": "ym2612"
    },
    {
      "channel": 2,
      "note": 63,
      "start": 5.3354,
      "duration": 0.0146,
      "velocity": 89,
      "chip": "ym2612"
    },
    {
      "channel": 0,
      "note": 51,
      "start": 5.3488,
      "duration": 0.0144,
      "velocity": 95,
      "chip": "ym2612"
    },
    {
      "channel": 1,
      "note": 63,
      "start": 5.3495,
      "duration": 0.0144,
      "velocity": 89,
      "chip": "ym2612"
    },
    {
      "channel": 2,
      "note": 63,
      "start": 5.3499,
      "duration": 0.0146,
      "velocity": 89,
      "chip": "ym2612"
    },
    {
      "channel": 0,
      "note": 51,
      "start": 5.3633,
      "duration": 0.0144,
      "velocity": 95,
      "chip": "ym2612"
    },
    {
      "channel": 1,
      "note": 63,
      "start": 5.3639,
      "duration": 0.0144,
      "velocity": 89,
      "chip": "ym2612"
    },
    {
      "channel": 2,
      "note": 63,
      "start": 5.3645,
      "duration": 0.0145,
      "velocity": 89,
      "chip": "ym2612"
    },
    {
      "channel": 0,
      "note": 51,
      "start": 5.3777,
      "duration": 0.0141,
      "velocity": 95,
      "chip": "ym2612"
    },
    {
      "channel": 1,
      "note": 63,
      "start": 5.3783,
      "duration": 0.0143,
      "velocity": 89,
      "chip": "ym2612"
    },
    {
      "channel": 2,
      "note": 63,
      "start": 5.379,
      "duration": 0.0145,
      "velocity": 89,
      "chip": "ym2612"
    },
    {
      "channel": 0,
      "note": 51,
      "start": 5.3923,
      "duration": 0.3161,
      "velocity": 95,
      "chip": "ym2612"
    },
    {
      "channel": 1,
      "note": 58,
      "start": 5.393,
      "duration": 0.1996,
      "velocity": 89,
      "chip": "ym2612"
    },
    {
      "channel": 2,
      "note": 63,
      "start": 5.3935,
      "duration": 0.0039,
      "velocity": 89,
      "chip": "ym2612"
    },
    {
      "channel": 3,
      "note": 75,
      "start": 5.3941,
      "duration": 1.9881,
      "velocity": 99,
      "chip": "ym2612"
    },
    {
      "channel": 2,
      "note": 63,
      "start": 5.3973,
      "duration": 0.003,
      "velocity": 89,
      "chip": "ym2612"
    },
    {
      "channel": 2,
      "note": 63,
      "start": 5.4003,
      "duration": 0.0053,
      "velocity": 89,
      "chip": "ym2612"
    },
    {
      "channel": 2,
      "note": 63,
      "start": 5.4056,
      "duration": 0.0144,
      "velocity": 89,
      "chip": "ym2612"
    },
    {
      "channel": 2,
      "note": 63,
      "start": 5.42,
      "duration": 0.0148,
      "velocity": 89,
      "chip": "ym2612"
    },
    {
      "channel": 2,
      "note": 63,
      "start": 5.4348,
      "duration": 0.0139,
      "velocity": 89,
      "chip": "ym2612"
    },
    {
      "channel": 2,
      "note": 63,
      "start": 5.4488,
      "duration": 0.0146,
      "velocity": 89,
      "chip": "ym2612"
    },
    {
      "channel": 2,
      "note": 63,
      "start": 5.4633,
      "duration": 0.0144,
      "velocity": 89,
      "chip": "ym2612"
    },
    {
      "channel": 2,
      "note": 63,
      "start": 5.4778,
      "duration": 0.0144,
      "velocity": 89,
      "chip": "ym2612"
    },
    {
      "channel": 2,
      "note": 63,
      "start": 5.4922,
      "duration": 0.0143,
      "velocity": 89,
      "chip": "ym2612"
    },
    {
      "channel": 2,
      "note": 63,
      "start": 5.5065,
      "duration": 0.0146,
      "velocity": 89,
      "chip": "ym2612"
    },
    {
      "channel": 2,
      "note": 63,
      "start": 5.5212,
      "duration": 0.0144,
      "velocity": 89,
      "chip": "ym2612"
    },
    {
      "channel": 2,
      "note": 63,
      "start": 5.5356,
      "duration": 0.0144,
      "velocity": 89,
      "chip": "ym2612"
    },
    {
      "channel": 2,
      "note": 63,
      "start": 5.55,
      "duration": 0.0144,
      "velocity": 89,
      "chip": "ym2612"
    },
    {
      "channel": 2,
      "note": 63,
      "start": 5.5645,
      "duration": 0.0143,
      "velocity": 89,
      "chip": "ym2612"
    },
    {
      "channel": 2,
      "note": 63,
      "start": 5.5788,
      "duration": 0.0148,
      "velocity": 89,
      "chip": "ym2612"
    },
    {
      "channel": 1,
      "note": 61,
      "start": 5.5931,
      "duration": 0.231,
      "velocity": 89,
      "chip": "ym2612"
    },
    {
      "channel": 2,
      "note": 63,
      "start": 5.5936,
      "duration": 0.0142,
      "velocity": 89,
      "chip": "ym2612"
    },
    {
      "channel": 2,
      "note": 63,
      "start": 5.6078,
      "duration": 0.0144,
      "velocity": 89,
      "chip": "ym2612"
    },
    {
      "channel": 2,
      "note": 63,
      "start": 5.6222,
      "duration": 0.0143,
      "velocity": 89,
      "chip": "ym2612"
    },
    {
      "channel": 2,
      "note": 63,
      "start": 5.6366,
      "duration": 0.0146,
      "velocity": 89,
      "chip": "ym2612"
    },
    {
      "channel": 2,
      "note": 63,
      "start": 5.6512,
      "duration": 0.0144,
      "velocity": 89,
      "chip": "ym2612"
    },
    {
      "channel": 2,
      "note": 63,
      "start": 5.6656,
      "duration": 0.0145,
      "velocity": 89,
      "chip": "ym2612"
    },
    {
      "channel": 2,
      "note": 63,
      "start": 5.6801,
      "duration": 0.0144,
      "velocity": 89,
      "chip": "ym2612"
    },
    {
      "channel": 2,
      "note": 63,
      "start": 5.6944,
      "duration": 0.0147,
      "velocity": 89,
      "chip": "ym2612"
    },
    {
      "channel": 0,
      "note": 51,
      "start": 5.7084,
      "duration": 0.0142,
      "velocity": 95,
      "chip": "ym2612"
    },
    {
      "channel": 2,
      "note": 63,
      "start": 5.7091,
      "duration": 0.0144,
      "velocity": 89,
      "chip": "ym2612"
    },
    {
      "channel": 4,
      "note": 75,
      "start": 5.7102,
      "duration": 1.9887,
      "velocity": 99,
      "chip": "ym2612"
    },
    {
      "channel": 0,
      "note": 51,
      "start": 5.7227,
      "duration": 0.0146,
      "velocity": 95,
      "chip": "ym2612"
    },
    {
      "channel": 2,
      "note": 63,
      "start": 5.7236,
      "duration": 0.0146,
      "velocity": 89,
      "chip": "ym2612"
    },
    {
      "channel": 0,
      "note": 51,
      "start": 5.7373,
      "duration": 0.0144,
      "velocity": 95,
      "chip": "ym2612"
    },
    {
      "channel": 2,
      "note": 63,
      "start": 5.7382,
      "duration": 0.0144,
      "velocity": 89,
      "chip": "ym2612"
    },
    {
      "channel": 0,
      "note": 51,
      "start": 5.7517,
      "duration": 0.0148,
      "velocity": 95,
      "chip": "ym2612"
    },
    {
      "channel": 2,
      "note": 63,
      "start": 5.7527,
      "duration": 0.0146,
      "velocity": 89,
      "chip": "ym2612"
    },
    {
      "channel": 0,
      "note": 51,
      "start": 5.7665,
      "duration": 0.0139,
      "velocity": 95,
      "chip": "ym2612"
    },
    {
      "channel": 2,
      "note": 63,
      "start": 5.7673,
      "duration": 0.0141,
      "velocity": 89,
      "chip": "ym2612"
    },
    {
      "channel": 0,
      "note": 51,
      "start": 5.7805,
      "duration": 0.0146,
      "velocity": 95,
      "chip": "ym2612"
    },
    {
      "channel": 2,
      "note": 63,
      "start": 5.7813,
      "duration": 0.0146,
      "velocity": 89,
      "chip": "ym2612"
    },
    {
      "channel": 0,
      "note": 51,
      "start": 5.7951,
      "duration": 0.0144,
      "velocity": 95,
      "chip": "ym2612"
    },
    {
      "channel": 2,
      "note": 63,
      "start": 5.796,
      "duration": 0.0144,
      "velocity": 89,
      "chip": "ym2612"
    },
    {
      "channel": 0,
      "note": 51,
      "start": 5.8095,
      "duration": 0.0144,
      "velocity": 95,
      "chip": "ym2612"
    },
    {
      "channel": 2,
      "note": 63,
      "start": 5.8104,
      "duration": 0.0146,
      "velocity": 89,
      "chip": "ym2612"
    },
    {
      "channel": 0,
      "note": 51,
      "start": 5.824,
      "duration": 0.0144,
      "velocity": 95,
      "chip": "ym2612"
    },
    {
      "channel": 1,
      "note": 63,
      "start": 5.8246,
      "duration": 0.2307,
      "velocity": 89,
      "chip": "ym2612"
    },
    {
      "channel": 2,
      "note": 63,
      "start": 5.825,
      "duration": 0.0141,
      "velocity": 89,
      "chip": "ym2612"
    },
    {
      "channel": 0,
      "note": 51,
      "start": 5.8384,
      "duration": 0.0143,
      "velocity": 95,
      "chip": "ym2612"
    },
    {
      "channel": 2,
      "note": 63,
      "start": 5.8392,
      "duration": 0.0144,
      "velocity": 89,
      "chip": "ym2612"
    },
    {
      "channel": 0,
      "note": 51,
      "start": 5.8527,
      "duration": 0.0146,
      "velocity": 95,
      "chip": "ym2612"
    },
    {
      "channel": 2,
      "note": 63,
      "start": 5.8536,
      "duration": 0.0146,
      "velocity": 89,
      "chip": "ym2612"
    },
    {
      "channel": 0,
      "note": 51,
      "start": 5.8673,
      "duration": 0.0144,
      "velocity": 95,
      "chip": "ym2612"
    },
    {
      "channel": 2,
      "note": 63,
      "start": 5.8682,
      "duration": 0.0144,
      "velocity": 89,
      "chip": "ym2612"
    },
    {
      "channel": 0,
      "note": 51,
      "start": 5.8817,
      "duration": 0.0145,
      "velocity": 95,
      "chip": "ym2612"
    },
    {
      "channel": 2,
      "note": 63,
      "start": 5.8826,
      "duration": 0.0143,
      "velocity": 89,
      "chip": "ym2612"
    },
    {
      "channel": 0,
      "note": 51,
      "start": 5.8962,
      "duration": 0.0143,
      "velocity": 95,
      "chip": "ym2612"
    },
    {
      "channel": 2,
      "note": 63,
      "start": 5.8969,
      "duration": 0.0144,
      "velocity": 89,
      "chip": "ym2612"
    },
    {
      "channel": 0,
      "note": 51,
      "start": 5.9105,
      "duration": 0.0146,
      "velocity": 95,
      "chip": "ym2612"
    },
    {
      "channel": 2,
      "note": 63,
      "start": 5.9114,
      "duration": 0.0146,
      "velocity": 89,
      "chip": "ym2612"
    },
    {
      "channel": 0,
      "note": 51,
      "start": 5.9251,
      "duration": 0.0144,
      "velocity": 95,
      "chip": "ym2612"
    },
    {
      "channel": 2,
      "note": 63,
      "start": 5.9259,
      "duration": 0.0145,
      "velocity": 89,
      "chip": "ym2612"
    },
    {
      "channel": 0,
      "note": 51,
      "start": 5.9395,
      "duration": 0.0144,
      "velocity": 95,
      "chip": "ym2612"
    },
    {
      "channel": 2,
      "note": 63,
      "start": 5.9404,
      "duration": 0.0144,
      "velocity": 89,
      "chip": "ym2612"
    },
    {
      "channel": 0,
      "note": 51,
      "start": 5.954,
      "duration": 0.0144,
      "velocity": 95,
      "chip": "ym2612"
    },
    {
      "channel": 2,
      "note": 63,
      "start": 5.9549,
      "duration": 0.0142,
      "velocity": 89,
      "chip": "ym2612"
    },
    {
      "channel": 0,
      "note": 51,
      "start": 5.9684,
      "duration": 0.0143,
      "velocity": 95,
      "chip": "ym2612"
    },
    {
      "channel": 2,
      "note": 63,
      "start": 5.9691,
      "duration": 0.0145,
      "velocity": 89,
      "chip": "ym2612"
    },
    {
      "channel": 0,
      "note": 51,
      "start": 5.9827,
      "duration": 0.0146,
      "velocity": 95,
      "chip": "ym2612"
    },
    {
      "channel": 2,
      "note": 63,
      "start": 5.9836,
      "duration": 0.0146,
      "velocity": 89,
      "chip": "ym2612"
    },
    {
      "channel": 0,
      "note": 51,
      "start": 5.9973,
      "duration": 0.0144,
      "velocity": 95,
      "chip": "ym2612"
    },
    {
      "channel": 2,
      "note": 63,
      "start": 5.9982,
      "duration": 0.0144,
      "velocity": 89,
      "chip": "ym2612"
    },
    {
      "channel": 0,
      "note": 51,
      "start": 6.0117,
      "duration": 0.0144,
      "velocity": 95,
      "chip": "ym2612"
    },
    {
      "channel": 2,
      "note": 63,
      "start": 6.0126,
      "duration": 0.0143,
      "velocity": 89,
      "chip": "ym2612"
    },
    {
      "channel": 0,
      "note": 51,
      "start": 6.0262,
      "duration": 0.0143,
      "velocity": 95,
      "chip": "ym2612"
    },
    {
      "channel": 2,
      "note": 63,
      "start": 6.0269,
      "duration": 0.0144,
      "velocity": 89,
      "chip": "ym2612"
    },
    {
      "channel": 0,
      "note": 51,
      "start": 6.0405,
      "duration": 0.0146,
      "velocity": 95,
      "chip": "ym2612"
    },
    {
      "channel": 2,
      "note": 63,
      "start": 6.0414,
      "duration": 0.0148,
      "velocity": 89,
      "chip": "ym2612"
    },
    {
      "channel": 0,
      "note": 51,
      "start": 6.0551,
      "duration": 0.004,
      "velocity": 95,
      "chip": "ym2612"
    },
    {
      "channel": 1,
      "note": 66,
      "start": 6.0558,
      "duration": 0.3161,
      "velocity": 89,
      "chip": "ym2612"
    },
    {
      "channel": 2,
      "note": 63,
      "start": 6.0562,
      "duration": 0.0038,
      "velocity": 89,
      "chip": "ym2612"
    },
    {
      "channel": 0,
      "note": 51,
      "start": 6.0591,
      "duration": 0.0034,
      "velocity": 95,
      "chip": "ym2612"
    },
    {
      "channel": 2,
      "note": 63,
      "start": 6.06,
      "duration": 0.0034,
      "velocity": 89,
      "chip": "ym2612"
    },
    {
      "channel": 0,
      "note": 51,
      "start": 6.0626,
      "duration": 0.0056,
      "velocity": 95,
      "chip": "ym2612"
    },
    {
      "channel": 2,
      "note": 63,
      "start": 6.0634,
      "duration": 0.0055,
      "velocity": 89,
      "chip": "ym2612"
    },
    {
      "channel": 0,
      "note": 51,
      "start": 6.0682,
      "duration": 0.014,
      "velocity": 95,
      "chip": "ym2612"
    },
    {
      "channel": 2,
      "note": 63,
      "start": 6.0689,
      "duration": 0.0141,
      "velocity": 89,
      "chip": "ym2612"
    },
    {
      "channel": 0,
      "note": 51,
      "start": 6.0822,
      "duration": 0.0146,
      "velocity": 95,
      "chip": "ym2612"
    },
    {
      "channel": 2,
      "note": 63,
      "start": 6.0831,
      "duration": 0.0146,
      "velocity": 89,
      "chip": "ym2612"
    },
    {
      "channel": 0,
      "note": 51,
      "start": 6.0968,
      "duration": 0.0144,
      "velocity": 95,
      "chip": "ym2612"
    },
    {
      "channel": 2,
      "note": 63,
      "start": 6.0976,
      "duration": 0.0145,
      "velocity": 89,
      "chip": "ym2612"
    },
    {
      "channel": 0,
      "note": 51,
      "start": 6.1112,
      "duration": 0.0144,
      "velocity": 95,
      "chip": "ym2612"
    },
    {
      "channel": 2,
      "note": 63,
      "start": 6.1121,
      "duration": 0.0143,
      "velocity": 89,
      "chip": "ym2612"
    },
    {
      "channel": 0,
      "note": 51,
      "start": 6.1257,
      "duration": 0.0143,
      "velocity": 95,
      "chip": "ym2612"
    },
    {
      "channel": 2,
      "note": 63,
      "start": 6.1265,
      "duration": 0.0144,
      "velocity": 89,
      "chip": "ym2612"
    },
    {
      "channel": 0,
      "note": 51,
      "start": 6.14,
      "duration": 0.0146,
      "velocity": 95,
      "chip": "ym2612"
    },
    {
      "channel": 2,
      "note": 63,
      "start": 6.1409,
      "duration": 0.0146,
      "velocity": 89,
      "chip": "ym2612"
    },
    {
      "channel": 0,
      "note": 51,
      "start": 6.1546,
      "duration": 0.0144,
      "velocity": 95,
      "chip": "ym2612"
    },
    {
      "channel": 2,
      "note": 63,
      "start": 6.1555,
      "duration": 0.0144,
      "velocity": 89,
      "chip": "ym2612"
    },
    {
      "channel": 0,
      "note": 51,
      "start": 6.1691,
      "duration": 0.0144,
      "velocity": 95,
      "chip": "ym2612"
    },
    {
      "channel": 2,
      "note": 63,
      "start": 6.17,
      "duration": 0.0144,
      "velocity": 89,
      "chip": "ym2612"
    },
    {
      "channel": 0,
      "note": 51,
      "start": 6.1835,
      "duration": 0.0144,
      "velocity": 95,
      "chip": "ym2612"
    },
    {
      "channel": 2,
      "note": 63,
      "start": 6.1844,
      "duration": 0.0143,
      "velocity": 89,
      "chip": "ym2612"
    },
    {
      "channel": 0,
      "note": 51,
      "start": 6.198,
      "duration": 0.0142,
      "velocity": 95,
      "chip": "ym2612"
    },
    {
      "channel": 2,
      "note": 63,
      "start": 6.1987,
      "duration": 0.0144,
      "velocity": 89,
      "chip": "ym2612"
    },
    {
      "channel": 0,
      "note": 51,
      "start": 6.2122,
      "duration": 0.0146,
      "velocity": 95,
      "chip": "ym2612"
    },
    {
      "channel": 2,
      "note": 63,
      "start": 6.2131,
      "duration": 0.0146,
      "velocity": 89,
      "chip": "ym2612"
    },
    {
      "channel": 0,
      "note": 51,
      "start": 6.2268,
      "duration": 0.0144,
      "velocity": 95,
      "chip": "ym2612"
    },
    {
      "channel": 2,
      "note": 63,
      "start": 6.2277,
      "duration": 0.0144,
      "velocity": 89,
      "chip": "ym2612"
    },
    {
      "channel": 0,
      "note": 51,
      "start": 6.2413,
      "duration": 0.0144,
      "velocity": 95,
      "chip": "ym2612"
    },
    {
      "channel": 2,
      "note": 63,
      "start": 6.2422,
      "duration": 0.0143,
      "velocity": 89,
      "chip": "ym2612"
    },
    {
      "channel": 0,
      "note": 51,
      "start": 6.2557,
      "duration": 0.0142,
      "velocity": 95,
      "chip": "ym2612"
    },
    {
      "channel": 2,
      "note": 63,
      "start": 6.2564,
      "duration": 0.0144,
      "velocity": 89,
      "chip": "ym2612"
    },
    {
      "channel": 0,
      "note": 51,
      "start": 6.27,
      "duration": 0.0147,
      "velocity": 95,
      "chip": "ym2612"
    },
    {
      "channel": 2,
      "note": 63,
      "start": 6.2709,
      "duration": 0.0146,
      "velocity": 89,
      "chip": "ym2612"
    },
    {
      "channel": 0,
      "note": 51,
      "start": 6.2846,
      "duration": 0.0144,
      "velocity": 95,
      "chip": "ym2612"
    },
    {
      "channel": 2,
      "note": 63,
      "start": 6.2855,
      "duration": 0.0144,
      "velocity": 89,
      "chip": "ym2612"
    },
    {
      "channel": 0,
      "note": 51,
      "start": 6.299,
      "duration": 0.0145,
      "velocity": 95,
      "chip": "ym2612"
    },
    {
      "channel": 2,
      "note": 63,
      "start": 6.2999,
      "duration": 0.0144,
      "velocity": 89,
      "chip": "ym2612"
    },
    {
      "channel": 0,
      "note": 51,
      "start": 6.3135,
      "duration": 0.0144,
      "velocity": 95,
      "chip": "ym2612"
    },
    {
      "channel": 2,
      "note": 63,
      "start": 6.3144,
      "duration": 0.0143,
      "velocity": 89,
      "chip": "ym2612"
    },
    {
      "channel": 0,
      "note": 51,
      "start": 6.3279,
      "duration": 0.0143,
      "velocity": 95,
      "chip": "ym2612"
    },
    {
      "channel": 2,
      "note": 63,
      "start": 6.3287,
      "duration": 0.0145,
      "velocity": 89,
      "chip": "ym2612"
    },
    {
      "channel": 0,
      "note": 51,
      "start": 6.3422,
      "duration": 0.0146,
      "velocity": 95,
      "chip": "ym2612"
    },
    {
      "channel": 2,
      "note": 63,
      "start": 6.3432,
      "duration": 0.0145,
      "velocity": 89,
      "chip": "ym2612"
    },
    {
      "channel": 0,
      "note": 51,
      "start": 6.3568,
      "duration": 0.0144,
      "velocity": 95,
      "chip": "ym2612"
    },
    {
      "channel": 2,
      "note": 63,
      "start": 6.3577,
      "duration": 0.0148,
      "velocity": 89,
      "chip": "ym2612"
    },
    {
      "channel": 0,
      "note": 51,
      "start": 6.3712,
      "duration": 0.0145,
      "velocity": 95,
      "chip": "ym2612"
    },
    {
      "channel": 1,
      "note": 66,
      "start": 6.3719,
      "duration": 0.0143,
      "velocity": 89,
      "chip": "ym2612"
    },
    {
      "channel": 2,
      "note": 63,
      "start": 6.3725,
      "duration": 0.0142,
      "velocity": 89,
      "chip": "ym2612"
    },
    {
      "channel": 0,
      "note": 51,
      "start": 6.3857,
      "duration": 0.0145,
      "velocity": 95,
      "chip": "ym2612"
    },
    {
      "channel": 1,
      "note": 66,
      "start": 6.3862,
      "duration": 0.0146,
      "velocity": 89,
      "chip": "ym2612"
    },
    {
      "channel": 2,
      "note": 63,
      "start": 6.3867,
      "duration": 0.0148,
      "velocity": 89,
      "chip": "ym2612"
    },
    {
      "channel": 0,
      "note": 51,
      "start": 6.4002,
      "duration": 0.0144,
      "velocity": 95,
      "chip": "ym2612"
    },
    {
      "channel": 1,
      "note": 66,
      "start": 6.4008,
      "duration": 0.0144,
      "velocity": 89,
      "chip": "ym2612"
    },
    {
      "channel": 2,
      "note": 63,
      "start": 6.4015,
      "duration": 0.0144,
      "velocity": 89,
      "chip": "ym2612"
    },
    {
      "channel": 0,
      "note": 51,
      "start": 6.4146,
      "duration": 0.0144,
      "velocity": 95,
      "chip": "ym2612"
    },
    {
      "channel": 1,
      "note": 66,
      "start": 6.4152,
      "duration": 0.0145,
      "velocity": 89,
      "chip": "ym2612"
    },
    {
      "channel": 2,
      "note": 63,
      "start": 6.4158,
      "duration": 0.0145,
      "velocity": 89,
      "chip": "ym2612"
    },
    {
      "channel": 0,
      "note": 51,
      "start": 6.4291,
      "duration": 0.0144,
      "velocity": 95,
      "chip": "ym2612"
    },
    {
      "channel": 1,
      "note": 66,
      "start": 6.4297,
      "duration": 0.0143,
      "velocity": 89,
      "chip": "ym2612"
    },
    {
      "channel": 2,
      "note": 63,
      "start": 6.4303,
      "duration": 0.0142,
      "velocity": 89,
      "chip": "ym2612"
    },
    {
      "channel": 0,
      "note": 51,
      "start": 6.4435,
      "duration": 0.0145,
      "velocity": 95,
      "chip": "ym2612"
    },
    {
      "channel": 1,
      "note": 66,
      "start": 6.444,
      "duration": 0.0146,
      "velocity": 89,
      "chip": "ym2612"
    },
    {
      "channel": 2,
      "note": 63,
      "start": 6.4446,
      "duration": 0.0145,
      "velocity": 89,
      "chip": "ym2612"
    },
    {
      "channel": 0,
      "note": 51,
      "start": 6.458,
      "duration": 0.0142,
      "velocity": 95,
      "chip": "ym2612"
    },
    {
      "channel": 1,
      "note": 66,
      "start": 6.4586,
      "duration": 0.0143,
      "velocity": 89,
      "chip": "ym2612"
    },
    {
      "channel": 2,
      "note": 63,
      "start": 6.4591,
      "duration": 0.0144,
      "velocity": 89,
      "chip": "ym2612"
    },
    {
      "channel": 0,
      "note": 51,
      "start": 6.4722,
      "duration": 0.0146,
      "velocity": 95,
      "chip": "ym2612"
    },
    {
      "channel": 1,
      "note": 66,
      "start": 6.4729,
      "duration": 0.0146,
      "velocity": 89,
      "chip": "ym2612"
    },
    {
      "channel": 2,
      "note": 63,
      "start": 6.4735,
      "duration": 0.0146,
      "velocity": 89,
      "chip": "ym2612"
    },
    {
      "channel": 0,
      "note": 51,
      "start": 6.4868,
      "duration": 0.0144,
      "velocity": 95,
      "chip": "ym2612"
    },
    {
      "channel": 1,
      "note": 66,
      "start": 6.4875,
      "duration": 0.0144,
      "velocity": 89,
      "chip": "ym2612"
    },
    {
      "channel": 2,
      "note": 63,
      "start": 6.4881,
      "duration": 0.0144,
      "velocity": 89,
      "chip": "ym2612"
    },
    {
      "channel": 0,
      "note": 51,
      "start": 6.5013,
      "duration": 0.0145,
      "velocity": 95,
      "chip": "ym2612"
    },
    {
      "channel": 1,
      "note": 66,
      "start": 6.5019,
      "duration": 0.0143,
      "velocity": 89,
      "chip": "ym2612"
    },
    {
      "channel": 2,
      "note": 63,
      "start": 6.5025,
      "duration": 0.0142,
      "velocity": 89,
      "chip": "ym2612"
    },
    {
      "channel": 0,
      "note": 51,
      "start": 6.5158,
      "duration": 0.0143,
      "velocity": 95,
      "chip": "ym2612"
    },
    {
      "channel": 1,
      "note": 66,
      "start": 6.5162,
      "duration": 0.0144,
      "velocity": 89,
      "chip": "ym2612"
    },
    {
      "channel": 2,
      "note": 63,
      "start": 6.5167,
      "duration": 0.0146,
      "velocity": 89,
      "chip": "ym2612"
    },
    {
      "channel": 0,
      "note": 51,
      "start": 6.53,
      "duration": 0.0146,
      "velocity": 95,
      "chip": "ym2612"
    },
    {
      "channel": 1,
      "note": 66,
      "start": 6.5307,
      "duration": 0.0146,
      "velocity": 89,
      "chip": "ym2612"
    },
    {
      "channel": 2,
      "note": 63,
      "start": 6.5313,
      "duration": 0.0146,
      "velocity": 89,
      "chip": "ym2612"
    },
    {
      "channel": 0,
      "note": 51,
      "start": 6.5446,
      "duration": 0.0144,
      "velocity": 95,
      "chip": "ym2612"
    },
    {
      "channel": 1,
      "note": 66,
      "start": 6.5452,
      "duration": 0.0145,
      "velocity": 89,
      "chip": "ym2612"
    },
    {
      "channel": 2,
      "note": 63,
      "start": 6.5459,
      "duration": 0.0144,
      "velocity": 89,
      "chip": "ym2612"
    },
    {
      "channel": 0,
      "note": 51,
      "start": 6.5591,
      "duration": 0.0144,
      "velocity": 95,
      "chip": "ym2612"
    },
    {
      "channel": 1,
      "note": 66,
      "start": 6.5597,
      "duration": 0.0142,
      "velocity": 89,
      "chip": "ym2612"
    },
    {
      "channel": 2,
      "note": 63,
      "start": 6.5603,
      "duration": 0.0143,
      "velocity": 89,
      "chip": "ym2612"
    },
    {
      "channel": 0,
      "note": 51,
      "start": 6.5735,
      "duration": 0.0144,
      "velocity": 95,
      "chip": "ym2612"
    },
    {
      "channel": 1,
      "note": 66,
      "start": 6.574,
      "duration": 0.0146,
      "velocity": 89,
      "chip": "ym2612"
    },
    {
      "channel": 2,
      "note": 63,
      "start": 6.5746,
      "duration": 0.0144,
      "velocity": 89,
      "chip": "ym2612"
    },
    {
      "channel": 0,
      "note": 51,
      "start": 6.588,
      "duration": 0.0143,
      "velocity": 95,
      "chip": "ym2612"
    },
    {
      "channel": 1,
      "note": 66,
      "start": 6.5886,
      "duration": 0.0143,
      "velocity": 89,
      "chip": "ym2612"
    },
    {
      "channel": 2,
      "note": 63,
      "start": 6.589,
      "duration": 0.0144,
      "velocity": 89,
      "chip": "ym2612"
    },
    {
      "channel": 0,
      "note": 51,
      "start": 6.6023,
      "duration": 0.0146,
      "velocity": 95,
      "chip": "ym2612"
    },
    {
      "channel": 1,
      "note": 66,
      "start": 6.6029,
      "duration": 0.0146,
      "velocity": 89,
      "chip": "ym2612"
    },
    {
      "channel": 2,
      "note": 63,
      "start": 6.6035,
      "duration": 0.0146,
      "velocity": 89,
      "chip": "ym2612"
    },
    {
      "channel": 0,
      "note": 51,
      "start": 6.6168,
      "duration": 0.0144,
      "velocity": 95,
      "chip": "ym2612"
    },
    {
      "channel": 1,
      "note": 66,
      "start": 6.6175,
      "duration": 0.0144,
      "velocity": 89,
      "chip": "ym2612"
    },
    {
      "channel": 2,
      "note": 63,
      "start": 6.618,
      "duration": 0.0144,
      "velocity": 89,
      "chip": "ym2612"
    },
    {
      "channel": 0,
      "note": 51,
      "start": 6.6313,
      "duration": 0.0145,
      "velocity": 95,
      "chip": "ym2612"
    },
    {
      "channel": 1,
      "note": 66,
      "start": 6.6319,
      "duration": 0.0143,
      "velocity": 89,
      "chip": "ym2612"
    },
    {
      "channel": 2,
      "note": 63,
      "start": 6.6325,
      "duration": 0.0142,
      "velocity": 89,
      "chip": "ym2612"
    },
    {
      "channel": 0,
      "note": 51,
      "start": 6.6458,
      "duration": 0.0143,
      "velocity": 95,
      "chip": "ym2612"
    },
    {
      "channel": 1,
      "note": 66,
      "start": 6.6462,
      "duration": 0.0144,
      "velocity": 89,
      "chip": "ym2612"
    },
    {
      "channel": 2,
      "note": 63,
      "start": 6.6467,
      "duration": 0.0146,
      "velocity": 89,
      "chip": "ym2612"
    },
    {
      "channel": 0,
      "note": 51,
      "start": 6.66,
      "duration": 0.0146,
      "velocity": 95,
      "chip": "ym2612"
    },
    {
      "channel": 1,
      "note": 66,
      "start": 6.6607,
      "duration": 0.0146,
      "velocity": 89,
      "chip": "ym2612"
    },
    {
      "channel": 2,
      "note": 63,
      "start": 6.6613,
      "duration": 0.0146,
      "velocity": 89,
      "chip": "ym2612"
    },
    {
      "channel": 0,
      "note": 51,
      "start": 6.6747,
      "duration": 0.0144,
      "velocity": 95,
      "chip": "ym2612"
    },
    {
      "channel": 1,
      "note": 66,
      "start": 6.6752,
      "duration": 0.0144,
      "velocity": 89,
      "chip": "ym2612"
    },
    {
      "channel": 2,
      "note": 63,
      "start": 6.6759,
      "duration": 0.0144,
      "velocity": 89,
      "chip": "ym2612"
    },
    {
      "channel": 0,
      "note": 51,
      "start": 6.6891,
      "duration": 0.0144,
      "velocity": 95,
      "chip": "ym2612"
    },
    {
      "channel": 1,
      "note": 66,
      "start": 6.6897,
      "duration": 0.0143,
      "velocity": 89,
      "chip": "ym2612"
    },
    {
      "channel": 2,
      "note": 63,
      "start": 6.6903,
      "duration": 0.0143,
      "velocity": 89,
      "chip": "ym2612"
    },
    {
      "channel": 0,
      "note": 51,
      "start": 6.7036,
      "duration": 0.0142,
      "velocity": 95,
      "chip": "ym2612"
    },
    {
      "channel": 1,
      "note": 66,
      "start": 6.704,
      "duration": 0.0146,
      "velocity": 89,
      "chip": "ym2612"
    },
    {
      "channel": 2,
      "note": 63,
      "start": 6.7046,
      "duration": 0.0143,
      "velocity": 89,
      "chip": "ym2612"
    },
    {
      "channel": 0,
      "note": 51,
      "start": 6.7182,
      "duration": 0.3159,
      "velocity": 95,
      "chip": "ym2612"
    },
    {
      "channel": 1,
      "note": 66,
      "start": 6.7186,
      "duration": 0.004,
      "velocity": 89,
      "chip": "ym2612"
    },
    {
      "channel": 2,
      "note": 58,
      "start": 6.7194,
      "duration": 0.1995,
      "velocity": 89,
      "chip": "ym2612"
    },
    {
      "channel": 1,
      "note": 66,
      "start": 6.7226,
      "duration": 0.0025,
      "velocity": 89,
      "chip": "ym2612"
    },
    {
      "channel": 1,
      "note": 66,
      "start": 6.7251,
      "duration": 0.0058,
      "velocity": 89,
      "chip": "ym2612"
    },
    {
      "channel": 1,
      "note": 66,
      "start": 6.7309,
      "duration": 0.0143,
      "velocity": 89,
      "chip": "ym2612"
    },
    {
      "channel": 1,
      "note": 66,
      "start": 6.7452,
      "duration": 0.0146,
      "velocity": 89,
      "chip": "ym2612"
    },
    {
      "channel": 1,
      "note": 66,
      "start": 6.7598,
      "duration": 0.0145,
      "velocity": 89,
      "chip": "ym2612"
    },
    {
      "channel": 1,
      "note": 66,
      "start": 6.7742,
      "duration": 0.0144,
      "velocity": 89,
      "chip": "ym2612"
    },
    {
      "channel": 1,
      "note": 66,
      "start": 6.7887,
      "duration": 0.0143,
      "velocity": 89,
      "chip": "ym2612"
    },
    {
      "channel": 1,
      "note": 66,
      "start": 6.803,
      "duration": 0.0146,
      "velocity": 89,
      "chip": "ym2612"
    },
    {
      "channel": 1,
      "note": 66,
      "start": 6.8176,
      "duration": 0.0144,
      "velocity": 89,
      "chip": "ym2612"
    },
    {
      "channel": 1,
      "note": 66,
      "start": 6.832,
      "duration": 0.0144,
      "velocity": 89,
      "chip": "ym2612"
    },
    {
      "channel": 1,
      "note": 66,
      "start": 6.8464,
      "duration": 0.0144,
      "velocity": 89,
      "chip": "ym2612"
    },
    {
      "channel": 1,
      "note": 66,
      "start": 6.8609,
      "duration": 0.0143,
      "velocity": 89,
      "chip": "ym2612"
    },
    {
      "channel": 1,
      "note": 66,
      "start": 6.8752,
      "duration": 0.0146,
      "velocity": 89,
      "chip": "ym2612"
    },
    {
      "channel": 1,
      "note": 66,
      "start": 6.8898,
      "duration": 0.0144,
      "velocity": 89,
      "chip": "ym2612"
    },
    {
      "channel": 1,
      "note": 66,
      "start": 6.9042,
      "duration": 0.0144,
      "velocity": 89,
      "chip": "ym2612"
    },
    {
      "channel": 1,
      "note": 66,
      "start": 6.9186,
      "duration": 0.0143,
      "velocity": 89,
      "chip": "ym2612"
    },
    {
      "channel": 2,
      "note": 61,
      "start": 6.9193,
      "duration": 0.2311,
      "velocity": 89,
      "chip": "ym2612"
    },
    {
      "channel": 1,
      "note": 66,
      "start": 6.933,
      "duration": 0.0146,
      "velocity": 89,
      "chip": "ym2612"
    },
    {
      "channel": 1,
      "note": 66,
      "start": 6.9475,
      "duration": 0.0145,
      "velocity": 89,
      "chip": "ym2612"
    },
    {
      "channel": 1,
      "note": 66,
      "start": 6.962,
      "duration": 0.0144,
      "velocity": 89,
      "chip": "ym2612"
    },
    {
      "channel": 1,
      "note": 66,
      "start": 6.9765,
      "duration": 0.0144,
      "velocity": 89,
      "chip": "ym2612"
    },
    {
      "channel": 1,
      "note": 66,
      "start": 6.9909,
      "duration": 0.0143,
      "velocity": 89,
      "chip": "ym2612"
    },
    {
      "channel": 1,
      "note": 66,
      "start": 7.0052,
      "duration": 0.0146,
      "velocity": 89,
      "chip": "ym2612"
    },
    {
      "channel": 1,
      "note": 66,
      "start": 7.0198,
      "duration": 0.0148,
      "velocity": 89,
      "chip": "ym2612"
    },
    {
      "channel": 0,
      "note": 51,
      "start": 7.034,
      "duration": 0.0143,
      "velocity": 95,
      "chip": "ym2612"
    },
    {
      "channel": 1,
      "note": 66,
      "start": 7.0346,
      "duration": 0.0142,
      "velocity": 89,
      "chip": "ym2612"
    },
    {
      "channel": 0,
      "note": 51,
      "start": 7.0483,
      "duration": 0.0146,
      "velocity": 95,
      "chip": "ym2612"
    },
    {
      "channel": 1,
      "note": 66,
      "start": 7.0489,
      "duration": 0.0144,
      "velocity": 89,
      "chip": "ym2612"
    },
    {
      "channel": 0,
      "note": 51,
      "start": 7.0629,
      "duration": 0.0144,
      "velocity": 95,
      "chip": "ym2612"
    },
    {
      "channel": 1,
      "note": 66,
      "start": 7.0633,
      "duration": 0.0146,
      "velocity": 89,
      "chip": "ym2612"
    },
    {
      "channel": 0,
      "note": 51,
      "start": 7.0773,
      "duration": 0.0144,
      "velocity": 95,
      "chip": "ym2612"
    },
    {
      "channel": 1,
      "note": 66,
      "start": 7.0779,
      "duration": 0.0144,
      "velocity": 89,
      "chip": "ym2612"
    },
    {
      "channel": 0,
      "note": 51,
      "start": 7.0917,
      "duration": 0.0143,
      "velocity": 95,
      "chip": "ym2612"
    },
    {
      "channel": 1,
      "note": 66,
      "start": 7.0924,
      "duration": 0.0143,
      "velocity": 89,
      "chip": "ym2612"
    },
    {
      "channel": 0,
      "note": 51,
      "start": 7.1061,
      "duration": 0.0146,
      "velocity": 95,
      "chip": "ym2612"
    },
    {
      "channel": 1,
      "note": 66,
      "start": 7.1067,
      "duration": 0.0146,
      "velocity": 89,
      "chip": "ym2612"
    },
    {
      "channel": 0,
      "note": 51,
      "start": 7.1207,
      "duration": 0.0144,
      "velocity": 95,
      "chip": "ym2612"
    },
    {
      "channel": 1,
      "note": 66,
      "start": 7.1213,
      "duration": 0.0143,
      "velocity": 89,
      "chip": "ym2612"
    },
    {
      "channel": 0,
      "note": 51,
      "start": 7.1351,
      "duration": 0.0144,
      "velocity": 95,
      "chip": "ym2612"
    },
    {
      "channel": 1,
      "note": 66,
      "start": 7.1356,
      "duration": 0.0146,
      "velocity": 89,
      "chip": "ym2612"
    },
    {
      "channel": 0,
      "note": 51,
      "start": 7.1495,
      "duration": 0.0145,
      "velocity": 95,
      "chip": "ym2612"
    },
    {
      "channel": 1,
      "note": 66,
      "start": 7.1501,
      "duration": 0.0144,
      "velocity": 89,
      "chip": "ym2612"
    },
    {
      "channel": 2,
      "note": 63,
      "start": 7.1508,
      "duration": 0.2307,
      "velocity": 89,
      "chip": "ym2612"
    },
    {
      "channel": 0,
      "note": 51,
      "start": 7.164,
      "duration": 0.0143,
      "velocity": 95,
      "chip": "ym2612"
    },
    {
      "channel": 1,
      "note": 66,
      "start": 7.1646,
      "duration": 0.0144,
      "velocity": 89,
      "chip": "ym2612"
    },
    {
      "channel": 0,
      "note": 51,
      "start": 7.1783,
      "duration": 0.0146,
      "velocity": 95,
      "chip": "ym2612"
    },
    {
      "channel": 1,
      "note": 66,
      "start": 7.179,
      "duration": 0.0144,
      "velocity": 89,
      "chip": "ym2612"
    },
    {
      "channel": 0,
      "note": 51,
      "start": 7.1929,
      "duration": 0.0144,
      "velocity": 95,
      "chip": "ym2612"
    },
    {
      "channel": 1,
      "note": 66,
      "start": 7.1933,
      "duration": 0.0146,
      "velocity": 89,
      "chip": "ym2612"
    },
    {
      "channel": 0,
      "note": 51,
      "start": 7.2073,
      "duration": 0.0144,
      "velocity": 95,
      "chip": "ym2612"
    },
    {
      "channel": 1,
      "note": 66,
      "start": 7.2079,
      "duration": 0.0145,
      "velocity": 89,
      "chip": "ym2612"
    },
    {
      "channel": 0,
      "note": 51,
      "start": 7.2218,
      "duration": 0.0143,
      "velocity": 95,
      "chip": "ym2612"
    },
    {
      "channel": 1,
      "note": 66,
      "start": 7.2224,
      "duration": 0.0143,
      "velocity": 89,
      "chip": "ym2612"
    },
    {
      "channel": 0,
      "note": 51,
      "start": 7.2361,
      "duration": 0.0146,
      "velocity": 95,
      "chip": "ym2612"
    },
    {
      "channel": 1,
      "note": 66,
      "start": 7.2367,
      "duration": 0.0146,
      "velocity": 89,
      "chip": "ym2612"
    },
    {
      "channel": 0,
      "note": 51,
      "start": 7.2507,
      "duration": 0.0145,
      "velocity": 95,
      "chip": "ym2612"
    },
    {
      "channel": 1,
      "note": 66,
      "start": 7.2513,
      "duration": 0.0143,
      "velocity": 89,
      "chip": "ym2612"
    },
    {
      "channel": 0,
      "note": 51,
      "start": 7.2651,
      "duration": 0.0144,
      "velocity": 95,
      "chip": "ym2612"
    },
    {
      "channel": 1,
      "note": 66,
      "start": 7.2656,
      "duration": 0.0146,
      "velocity": 89,
      "chip": "ym2612"
    },
    {
      "channel": 0,
      "note": 51,
      "start": 7.2795,
      "duration": 0.0145,
      "velocity": 95,
      "chip": "ym2612"
    },
    {
      "channel": 1,
      "note": 66,
      "start": 7.2802,
      "duration": 0.0144,
      "velocity": 89,
      "chip": "ym2612"
    },
    {
      "channel": 0,
      "note": 51,
      "start": 7.294,
      "duration": 0.0142,
      "velocity": 95,
      "chip": "ym2612"
    },
    {
      "channel": 1,
      "note": 66,
      "start": 7.2946,
      "duration": 0.0143,
      "velocity": 89,
      "chip": "ym2612"
    },
    {
      "channel": 0,
      "note": 51,
      "start": 7.3083,
      "duration": 0.0146,
      "velocity": 95,
      "chip": "ym2612"
    },
    {
      "channel": 1,
      "note": 66,
      "start": 7.3089,
      "duration": 0.0144,
      "velocity": 89,
      "chip": "ym2612"
    },
    {
      "channel": 0,
      "note": 51,
      "start": 7.3229,
      "duration": 0.0144,
      "velocity": 95,
      "chip": "ym2612"
    },
    {
      "channel": 1,
      "note": 66,
      "start": 7.3234,
      "duration": 0.0146,
      "velocity": 89,
      "chip": "ym2612"
    },
    {
      "channel": 0,
      "note": 51,
      "start": 7.3373,
      "duration": 0.0144,
      "velocity": 95,
      "chip": "ym2612"
    },
    {
      "channel": 1,
      "note": 66,
      "start": 7.338,
      "duration": 0.0144,
      "velocity": 89,
      "chip": "ym2612"
    },
    {
      "channel": 0,
      "note": 51,
      "start": 7.3518,
      "duration": 0.0143,
      "velocity": 95,
      "chip": "ym2612"
    },
    {
      "channel": 1,
      "note": 66,
      "start": 7.3524,
      "duration": 0.0143,
      "velocity": 89,
      "chip": "ym2612"
    },
    {
      "channel": 0,
      "note": 51,
      "start": 7.3661,
      "duration": 0.0146,
      "velocity": 95,
      "chip": "ym2612"
    },
    {
      "channel": 1,
      "note": 66,
      "start": 7.3667,
      "duration": 0.0146,
      "velocity": 89,
      "chip": "ym2612"
    },
    {
      "channel": 0,
      "note": 51,
      "start": 7.3807,
      "duration": 0.0047,
      "velocity": 95,
      "chip": "ym2612"
    },
    {
      "channel": 1,
      "note": 66,
      "start": 7.3813,
      "duration": 0.0046,
      "velocity": 89,
      "chip": "ym2612"
    },
    {
      "channel": 2,
      "note": 66,
      "start": 7.382,
      "duration": 0.3163,
      "velocity": 89,
      "chip": "ym2612"
    },
    {
      "channel": 3,
      "note": 82,
      "start": 7.3827,
      "duration": 0.6624,
      "velocity": 99,
      "chip": "ym2612"
    },
    {
      "channel": 0,
      "note": 51,
      "start": 7.3854,
      "duration": 0.0033,
      "velocity": 95,
      "chip": "ym2612"
    },
    {
      "channel": 1,
      "note": 66,
      "start": 7.3859,
      "duration": 0.0034,
      "velocity": 89,
      "chip": "ym2612"
    },
    {
      "channel": 0,
      "note": 51,
      "start": 7.3886,
      "duration": 0.005,
      "velocity": 95,
      "chip": "ym2612"
    },
    {
      "channel": 1,
      "note": 66,
      "start": 7.3893,
      "duration": 0.005,
      "velocity": 89,
      "chip": "ym2612"
    },
    {
      "channel": 0,
      "note": 51,
      "start": 7.3936,
      "duration": 0.0143,
      "velocity": 95,
      "chip": "ym2612"
    },
    {
      "channel": 1,
      "note": 66,
      "start": 7.3942,
      "duration": 0.0143,
      "velocity": 89,
      "chip": "ym2612"
    },
    {
      "channel": 0,
      "note": 51,
      "start": 7.4079,
      "duration": 0.0146,
      "velocity": 95,
      "chip": "ym2612"
    },
    {
      "channel": 1,
      "note": 66,
      "start": 7.4085,
      "duration": 0.0144,
      "velocity": 89,
      "chip": "ym2612"
    },
    {
      "channel": 0,
      "note": 51,
      "start": 7.4225,
      "duration": 0.0144,
      "velocity": 95,
      "chip": "ym2612"
    },
    {
      "channel": 1,
      "note": 66,
      "start": 7.423,
      "duration": 0.0146,
      "velocity": 89,
      "chip": "ym2612"
    },
    {
      "channel": 0,
      "note": 51,
      "start": 7.437,
      "duration": 0.0144,
      "velocity": 95,
      "chip": "ym2612"
    },
    {
      "channel": 1,
      "note": 66,
      "start": 7.4376,
      "duration": 0.0144,
      "velocity": 89,
      "chip": "ym2612"
    },
    {
      "channel": 0,
      "note": 51,
      "start": 7.4514,
      "duration": 0.0143,
      "velocity": 95,
      "chip": "ym2612"
    },
    {
      "channel": 1,
      "note": 66,
      "start": 7.452,
      "duration": 0.0144,
      "velocity": 89,
      "chip": "ym2612"
    },
    {
      "channel": 0,
      "note": 51,
      "start": 7.4657,
      "duration": 0.0146,
      "velocity": 95,
      "chip": "ym2612"
    },
    {
      "channel": 1,
      "note": 66,
      "start": 7.4663,
      "duration": 0.0145,
      "velocity": 89,
      "chip": "ym2612"
    },
    {
      "channel": 0,
      "note": 51,
      "start": 7.4803,
      "duration": 0.0144,
      "velocity": 95,
      "chip": "ym2612"
    },
    {
      "channel": 1,
      "note": 66,
      "start": 7.4809,
      "duration": 0.0143,
      "velocity": 89,
      "chip": "ym2612"
    },
    {
      "channel": 0,
      "note": 51,
      "start": 7.4947,
      "duration": 0.0144,
      "velocity": 95,
      "chip": "ym2612"
    },
    {
      "channel": 1,
      "note": 66,
      "start": 7.4952,
      "duration": 0.0146,
      "velocity": 89,
      "chip": "ym2612"
    },
    {
      "channel": 0,
      "note": 51,
      "start": 7.5092,
      "duration": 0.0144,
      "velocity": 95,
      "chip": "ym2612"
    },
    {
      "channel": 1,
      "note": 66,
      "start": 7.5098,
      "duration": 0.0145,
      "velocity": 89,
      "chip": "ym2612"
    },
    {
      "channel": 0,
      "note": 51,
      "start": 7.5236,
      "duration": 0.0143,
      "velocity": 95,
      "chip": "ym2612"
    },
    {
      "channel": 1,
      "note": 66,
      "start": 7.5242,
      "duration": 0.0143,
      "velocity": 89,
      "chip": "ym2612"
    },
    {
      "channel": 0,
      "note": 51,
      "start": 7.5379,
      "duration": 0.0146,
      "velocity": 95,
      "chip": "ym2612"
    },
    {
      "channel": 1,
      "note": 66,
      "start": 7.5385,
      "duration": 0.0144,
      "velocity": 89,
      "chip": "ym2612"
    },
    {
      "channel": 0,
      "note": 51,
      "start": 7.5525,
      "duration": 0.0144,
      "velocity": 95,
      "chip": "ym2612"
    },
    {
      "channel": 1,
      "note": 66,
      "start": 7.5529,
      "duration": 0.0146,
      "velocity": 89,
      "chip": "ym2612"
    },
    {
      "channel": 0,
      "note": 51,
      "start": 7.5669,
      "duration": 0.0145,
      "velocity": 95,
      "chip": "ym2612"
    },
    {
      "channel": 1,
      "note": 66,
      "start": 7.5676,
      "duration": 0.0145,
      "velocity": 89,
      "chip": "ym2612"
    },
    {
      "channel": 0,
      "note": 51,
      "start": 7.5814,
      "duration": 0.0143,
      "velocity": 95,
      "chip": "ym2612"
    },
    {
      "channel": 1,
      "note": 66,
      "start": 7.5821,
      "duration": 0.0143,
      "velocity": 89,
      "chip": "ym2612"
    },
    {
      "channel": 0,
      "note": 51,
      "start": 7.5957,
      "duration": 0.0146,
      "velocity": 95,
      "chip": "ym2612"
    },
    {
      "channel": 1,
      "note": 66,
      "start": 7.5963,
      "duration": 0.0146,
      "velocity": 89,
      "chip": "ym2612"
    },
    {
      "channel": 0,
      "note": 51,
      "start": 7.6103,
      "duration": 0.0144,
      "velocity": 95,
      "chip": "ym2612"
    },
    {
      "channel": 1,
      "note": 66,
      "start": 7.6109,
      "duration": 0.0144,
      "velocity": 89,
      "chip": "ym2612"
    },
    {
      "channel": 0,
      "note": 51,
      "start": 7.6248,
      "duration": 0.0144,
      "velocity": 95,
      "chip": "ym2612"
    },
    {
      "channel": 1,
      "note": 66,
      "start": 7.6253,
      "duration": 0.0145,
      "velocity": 89,
      "chip": "ym2612"
    },
    {
      "channel": 0,
      "note": 51,
      "start": 7.6392,
      "duration": 0.0144,
      "velocity": 95,
      "chip": "ym2612"
    },
    {
      "channel": 1,
      "note": 66,
      "start": 7.6398,
      "duration": 0.0145,
      "velocity": 89,
      "chip": "ym2612"
    },
    {
      "channel": 0,
      "note": 51,
      "start": 7.6536,
      "duration": 0.0143,
      "velocity": 95,
      "chip": "ym2612"
    },
    {
      "channel": 1,
      "note": 66,
      "start": 7.6543,
      "duration": 0.0143,
      "velocity": 89,
      "chip": "ym2612"
    },
    {
      "channel": 0,
      "note": 51,
      "start": 7.6679,
      "duration": 0.0146,
      "velocity": 95,
      "chip": "ym2612"
    },
    {
      "channel": 1,
      "note": 66,
      "start": 7.6685,
      "duration": 0.0144,
      "velocity": 89,
      "chip": "ym2612"
    },
    {
      "channel": 0,
      "note": 51,
      "start": 7.6825,
      "duration": 0.0144,
      "velocity": 95,
      "chip": "ym2612"
    },
    {
      "channel": 1,
      "note": 66,
      "start": 7.683,
      "duration": 0.0146,
      "velocity": 89,
      "chip": "ym2612"
    },
    {
      "channel": 0,
      "note": 51,
      "start": 7.697,
      "duration": 0.0145,
      "velocity": 95,
      "chip": "ym2612"
    },
    {
      "channel": 1,
      "note": 66,
      "start": 7.6976,
      "duration": 0.0144,
      "velocity": 89,
      "chip": "ym2612"
    },
    {
      "channel": 2,
      "note": 66,
      "start": 7.6982,
      "duration": 0.0143,
      "velocity": 89,
      "chip": "ym2612"
    },
    {
      "channel": 4,
      "note": 82,
      "start": 7.6993,
      "duration": 0.662,
      "velocity": 99,
      "chip": "ym2612"
    },
    {
      "channel": 0,
      "note": 51,
      "start": 7.7115,
      "duration": 0.0143,
      "velocity": 95,
      "chip": "ym2612"
    },
    {
      "channel": 1,
      "note": 66,
      "start": 7.712,
      "duration": 0.0143,
      "velocity": 89,
      "chip": "ym2612"
    },
    {
      "channel": 2,
      "note": 66,
      "start": 7.7125,
      "duration": 0.0144,
      "velocity": 89,
      "chip": "ym2612"
    },
    {
      "channel": 0,
      "note": 51,
      "start": 7.7257,
      "duration": 0.0146,
      "velocity": 95,
      "chip": "ym2612"
    },
    {
      "channel": 1,
      "note": 66,
      "start": 7.7263,
      "duration": 0.0146,
      "velocity": 89,
      "chip": "ym2612"
    },
    {
      "channel": 2,
      "note": 66,
      "start": 7.7269,
      "duration": 0.0146,
      "velocity": 89,
      "chip": "ym2612"
    },
    {
      "channel": 0,
      "note": 51,
      "start": 7.7403,
      "duration": 0.0144,
      "velocity": 95,
      "chip": "ym2612"
    },
    {
      "channel": 1,
      "note": 66,
      "start": 7.741,
      "duration": 0.0142,
      "velocity": 89,
      "chip": "ym2612"
    },
    {
      "channel": 2,
      "note": 66,
      "start": 7.7415,
      "duration": 0.0143,
      "velocity": 89,
      "chip": "ym2612"
    },
    {
      "channel": 0,
      "note": 51,
      "start": 7.7547,
      "duration": 0.0145,
      "velocity": 95,
      "chip": "ym2612"
    },
    {
      "channel": 1,
      "note": 66,
      "start": 7.7552,
      "duration": 0.0146,
      "velocity": 89,
      "chip": "ym2612"
    },
    {
      "channel": 2,
      "note": 66,
      "start": 7.7558,
      "duration": 0.0145,
      "velocity": 89,
      "chip": "ym2612"
    },
    {
      "channel": 0,
      "note": 51,
      "start": 7.7692,
      "duration": 0.0144,
      "velocity": 95,
      "chip": "ym2612"
    },
    {
      "channel": 1,
      "note": 66,
      "start": 7.7698,
      "duration": 0.0144,
      "velocity": 89,
      "chip": "ym2612"
    },
    {
      "channel": 2,
      "note": 66,
      "start": 7.7703,
      "duration": 0.0146,
      "velocity": 89,
      "chip": "ym2612"
    },
    {
      "channel": 0,
      "note": 51,
      "start": 7.7836,
      "duration": 0.0143,
      "velocity": 95,
      "chip": "ym2612"
    },
    {
      "channel": 1,
      "note": 66,
      "start": 7.7842,
      "duration": 0.0143,
      "velocity": 89,
      "chip": "ym2612"
    },
    {
      "channel": 2,
      "note": 66,
      "start": 7.7849,
      "duration": 0.0143,
      "velocity": 89,
      "chip": "ym2612"
    },
    {
      "channel": 0,
      "note": 51,
      "start": 7.7979,
      "duration": 0.0146,
      "velocity": 95,
      "chip": "ym2612"
    },
    {
      "channel": 1,
      "note": 66,
      "start": 7.7985,
      "duration": 0.0144,
      "velocity": 89,
      "chip": "ym2612"
    },
    {
      "channel": 2,
      "note": 66,
      "start": 7.7992,
      "duration": 0.0144,
      "velocity": 89,
      "chip": "ym2612"
    },
    {
      "channel": 0,
      "note": 51,
      "start": 7.8125,
      "duration": 0.0144,
      "velocity": 95,
      "chip": "ym2612"
    },
    {
      "channel": 1,
      "note": 66,
      "start": 7.813,
      "duration": 0.0146,
      "velocity": 89,
      "chip": "ym2612"
    },
    {
      "channel": 2,
      "note": 66,
      "start": 7.8136,
      "duration": 0.0146,
      "velocity": 89,
      "chip": "ym2612"
    },
    {
      "channel": 0,
      "note": 51,
      "start": 7.827,
      "duration": 0.0144,
      "velocity": 95,
      "chip": "ym2612"
    },
    {
      "channel": 1,
      "note": 66,
      "start": 7.8276,
      "duration": 0.0144,
      "velocity": 89,
      "chip": "ym2612"
    },
    {
      "channel": 2,
      "note": 66,
      "start": 7.8282,
      "duration": 0.0143,
      "velocity": 89,
      "chip": "ym2612"
    },
    {
      "channel": 0,
      "note": 51,
      "start": 7.8414,
      "duration": 0.0143,
      "velocity": 95,
      "chip": "ym2612"
    },
    {
      "channel": 1,
      "note": 66,
      "start": 7.8421,
      "duration": 0.0143,
      "velocity": 89,
      "chip": "ym2612"
    },
    {
      "channel": 2,
      "note": 66,
      "start": 7.8425,
      "duration": 0.0144,
      "velocity": 89,
      "chip": "ym2612"
    },
    {
      "channel": 0,
      "note": 51,
      "start": 7.8557,
      "duration": 0.0146,
      "velocity": 95,
      "chip": "ym2612"
    },
    {
      "channel": 1,
      "note": 66,
      "start": 7.8564,
      "duration": 0.0146,
      "velocity": 89,
      "chip": "ym2612"
    },
    {
      "channel": 2,
      "note": 66,
      "start": 7.8569,
      "duration": 0.0146,
      "velocity": 89,
      "chip": "ym2612"
    },
    {
      "channel": 0,
      "note": 51,
      "start": 7.8703,
      "duration": 0.0144,
      "velocity": 95,
      "chip": "ym2612"
    },
    {
      "channel": 1,
      "note": 66,
      "start": 7.8709,
      "duration": 0.0143,
      "velocity": 89,
      "chip": "ym2612"
    },
    {
      "channel": 2,
      "note": 66,
      "start": 7.8715,
      "duration": 0.0143,
      "velocity": 89,
      "chip": "ym2612"
    },
    {
      "channel": 0,
      "note": 51,
      "start": 7.8847,
      "duration": 0.0144,
      "velocity": 95,
      "chip": "ym2612"
    },
    {
      "channel": 1,
      "note": 66,
      "start": 7.8853,
      "duration": 0.0146,
      "velocity": 89,
      "chip": "ym2612"
    },
    {
      "channel": 2,
      "note": 66,
      "start": 7.8858,
      "duration": 0.0144,
      "velocity": 89,
      "chip": "ym2612"
    },
    {
      "channel": 0,
      "note": 51,
      "start": 7.8992,
      "duration": 0.0144,
      "velocity": 95,
      "chip": "ym2612"
    },
    {
      "channel": 1,
      "note": 66,
      "start": 7.8998,
      "duration": 0.0144,
      "velocity": 89,
      "chip": "ym2612"
    },
    {
      "channel": 2,
      "note": 66,
      "start": 7.9003,
      "duration": 0.0146,
      "velocity": 89,
      "chip": "ym2612"
    },
    {
      "channel": 0,
      "note": 51,
      "start": 7.9136,
      "duration": 0.0143,
      "velocity": 95,
      "chip": "ym2612"
    },
    {
      "channel": 1,
      "note": 66,
      "start": 7.9143,
      "duration": 0.0143,
      "velocity": 89,
      "chip": "ym2612"
    },
    {
      "channel": 2,
      "note": 66,
      "start": 7.9149,
      "duration": 0.0143,
      "velocity": 89,
      "chip": "ym2612"
    },
    {
      "channel": 0,
      "note": 51,
      "start": 7.9279,
      "duration": 0.0146,
      "velocity": 95,
      "chip": "ym2612"
    },
    {
      "channel": 1,
      "note": 66,
      "start": 7.9286,
      "duration": 0.0144,
      "velocity": 89,
      "chip": "ym2612"
    },
    {
      "channel": 2,
      "note": 66,
      "start": 7.9292,
      "duration": 0.0144,
      "velocity": 89,
      "chip": "ym2612"
    },
    {
      "channel": 0,
      "note": 51,
      "start": 7.9425,
      "duration": 0.0145,
      "velocity": 95,
      "chip": "ym2612"
    },
    {
      "channel": 1,
      "note": 66,
      "start": 7.943,
      "duration": 0.0146,
      "velocity": 89,
      "chip": "ym2612"
    },
    {
      "channel": 2,
      "note": 66,
      "start": 7.9436,
      "duration": 0.0146,
      "velocity": 89,
      "chip": "ym2612"
    },
    {
      "channel": 0,
      "note": 51,
      "start": 7.957,
      "duration": 0.0144,
      "velocity": 95,
      "chip": "ym2612"
    },
    {
      "channel": 1,
      "note": 66,
      "start": 7.9576,
      "duration": 0.0144,
      "velocity": 89,
      "chip": "ym2612"
    },
    {
      "channel": 2,
      "note": 66,
      "start": 7.9582,
      "duration": 0.0143,
      "velocity": 89,
      "chip": "ym2612"
    },
    {
      "channel": 0,
      "note": 51,
      "start": 7.9715,
      "duration": 0.0143,
      "velocity": 95,
      "chip": "ym2612"
    },
    {
      "channel": 1,
      "note": 66,
      "start": 7.972,
      "duration": 0.0143,
      "velocity": 89,
      "chip": "ym2612"
    },
    {
      "channel": 2,
      "note": 66,
      "start": 7.9725,
      "duration": 0.0144,
      "velocity": 89,
      "chip": "ym2612"
    },
    {
      "channel": 0,
      "note": 51,
      "start": 7.9858,
      "duration": 0.0146,
      "velocity": 95,
      "chip": "ym2612"
    },
    {
      "channel": 1,
      "note": 66,
      "start": 7.9863,
      "duration": 0.0146,
      "velocity": 89,
      "chip": "ym2612"
    },
    {
      "channel": 2,
      "note": 66,
      "start": 7.987,
      "duration": 0.0146,
      "velocity": 89,
      "chip": "ym2612"
    },
    {
      "channel": 0,
      "note": 51,
      "start": 8.0003,
      "duration": 0.0145,
      "velocity": 95,
      "chip": "ym2612"
    },
    {
      "channel": 1,
      "note": 66,
      "start": 8.001,
      "duration": 0.0143,
      "velocity": 89,
      "chip": "ym2612"
    },
    {
      "channel": 2,
      "note": 66,
      "start": 8.0016,
      "duration": 0.0143,
      "velocity": 89,
      "chip": "ym2612"
    },
    {
      "channel": 0,
      "note": 51,
      "start": 8.0148,
      "duration": 0.0144,
      "velocity": 95,
      "chip": "ym2612"
    },
    {
      "channel": 1,
      "note": 66,
      "start": 8.0153,
      "duration": 0.0145,
      "velocity": 89,
      "chip": "ym2612"
    },
    {
      "channel": 2,
      "note": 66,
      "start": 8.0159,
      "duration": 0.0144,
      "velocity": 89,
      "chip": "ym2612"
    },
    {
      "channel": 0,
      "note": 51,
      "start": 8.0292,
      "duration": 0.0141,
      "velocity": 95,
      "chip": "ym2612"
    },
    {
      "channel": 1,
      "note": 66,
      "start": 8.0298,
      "duration": 0.0141,
      "velocity": 89,
      "chip": "ym2612"
    },
    {
      "channel": 2,
      "note": 66,
      "start": 8.0303,
      "duration": 0.0146,
      "velocity": 89,
      "chip": "ym2612"
    },
    {
      "channel": 0,
      "note": 51,
      "start": 8.0438,
      "duration": 0.316,
      "velocity": 95,
      "chip": "ym2612"
    },
    {
      "channel": 1,
      "note": 56,
      "start": 8.0444,
      "duration": 0.1997,
      "velocity": 89,
      "chip": "ym2612"
    },
    {
      "channel": 2,
      "note": 66,
      "start": 8.0449,
      "duration": 0.004,
      "velocity": 89,
      "chip": "ym2612"
    },
    {
      "channel": 3,
      "note": 78,
      "start": 8.0456,
      "duration": 2.651,
      "velocity": 99,
      "chip": "ym2612"
    },
    {
      "channel": 2,
      "note": 66,
      "start": 8.0488,
      "duration": 0.003,
      "velocity": 89,
      "chip": "ym2612"
    },
    {
      "channel": 2,
      "note": 66,
      "start": 8.0518,
      "duration": 0.0051,
      "velocity": 89,
      "chip": "ym2612"
    },
    {
      "channel": 2,
      "note": 66,
      "start": 8.057,
      "duration": 0.0143,
      "velocity": 89,
      "chip": "ym2612"
    },
    {
      "channel": 2,
      "note": 66,
      "start": 8.0713,
      "duration": 0.0146,
      "velocity": 89,
      "chip": "ym2612"
    },
    {
      "channel": 2,
      "note": 66,
      "start": 8.0859,
      "duration": 0.0144,
      "velocity": 89,
      "chip": "ym2612"
    },
    {
      "channel": 2,
      "note": 66,
      "start": 8.1003,
      "duration": 0.0144,
      "velocity": 89,
      "chip": "ym2612"
    },
    {
      "channel": 2,
      "note": 66,
      "start": 8.1147,
      "duration": 0.0143,
      "velocity": 89,
      "chip": "ym2612"
    },
    {
      "channel": 2,
      "note": 66,
      "start": 8.129,
      "duration": 0.0146,
      "velocity": 89,
      "chip": "ym2612"
    },
    {
      "channel": 2,
      "note": 66,
      "start": 8.1437,
      "duration": 0.0144,
      "velocity": 89,
      "chip": "ym2612"
    },
    {
      "channel": 2,
      "note": 66,
      "start": 8.1581,
      "duration": 0.0144,
      "velocity": 89,
      "chip": "ym2612"
    },
    {
      "channel": 2,
      "note": 66,
      "start": 8.1726,
      "duration": 0.0144,
      "velocity": 89,
      "chip": "ym2612"
    },
    {
      "channel": 2,
      "note": 66,
      "start": 8.1869,
      "duration": 0.0144,
      "velocity": 89,
      "chip": "ym2612"
    },
    {
      "channel": 2,
      "note": 66,
      "start": 8.2013,
      "duration": 0.0146,
      "velocity": 89,
      "chip": "ym2612"
    },
    {
      "channel": 2,
      "note": 66,
      "start": 8.2159,
      "duration": 0.0144,
      "velocity": 89,
      "chip": "ym2612"
    },
    {
      "channel": 2,
      "note": 66,
      "start": 8.2303,
      "duration": 0.0146,
      "velocity": 89,
      "chip": "ym2612"
    },
    {
      "channel": 1,
      "note": 59,
      "start": 8.2445,
      "duration": 0.231,
      "velocity": 89,
      "chip": "ym2612"
    },
    {
      "channel": 2,
      "note": 66,
      "start": 8.2449,
      "duration": 0.0141,
      "velocity": 89,
      "chip": "ym2612"
    },
    {
      "channel": 2,
      "note": 66,
      "start": 8.2591,
      "duration": 0.0146,
      "velocity": 89,
      "chip": "ym2612"
    },
    {
      "channel": 2,
      "note": 66,
      "start": 8.2737,
      "duration": 0.0145,
      "velocity": 89,
      "chip": "ym2612"
    },
    {
      "channel": 2,
      "note": 66,
      "start": 8.2881,
      "duration": 0.0144,
      "velocity": 89,
      "chip": "ym2612"
    },
    {
      "channel": 2,
      "note": 66,
      "start": 8.3025,
      "duration": 0.0144,
      "velocity": 89,
      "chip": "ym2612"
    },
    {
      "channel": 2,
      "note": 66,
      "start": 8.317,
      "duration": 0.0143,
      "velocity": 89,
      "chip": "ym2612"
    },
    {
      "channel": 2,
      "note": 66,
      "start": 8.3313,
      "duration": 0.0146,
      "velocity": 89,
      "chip": "ym2612"
    },
    {
      "channel": 2,
      "note": 66,
      "start": 8.3459,
      "duration": 0.0148,
      "velocity": 89,
      "chip": "ym2612"
    },
    {
      "channel": 0,
      "note": 51,
      "start": 8.3598,
      "duration": 0.0144,
      "velocity": 95,
      "chip": "ym2612"
    },
    {
      "channel": 2,
      "note": 66,
      "start": 8.3607,
      "duration": 0.0143,
      "velocity": 89,
      "chip": "ym2612"
    },
    {
      "channel": 4,
      "note": 78,
      "start": 8.3617,
      "duration": 2.6508,
      "velocity": 99,
      "chip": "ym2612"
    },
    {
      "channel": 0,
      "note": 51,
      "start": 8.3741,
      "duration": 0.0145,
      "velocity": 95,
      "chip": "ym2612"
    },
    {
      "channel": 2,
      "note": 66,
      "start": 8.375,
      "duration": 0.0144,
      "velocity": 89,
      "chip": "ym2612"
    },
    {
      "channel": 0,
      "note": 51,
      "start": 8.3887,
      "duration": 0.0145,
      "velocity": 95,
      "chip": "ym2612"
    },
    {
      "channel": 2,
      "note": 66,
      "start": 8.3894,
      "duration": 0.0146,
      "velocity": 89,
      "chip": "ym2612"
    },
    {
      "channel": 0,
      "note": 51,
      "start": 8.4032,
      "duration": 0.0148,
      "velocity": 95,
      "chip": "ym2612"
    },
    {
      "channel": 2,
      "note": 66,
      "start": 8.404,
      "duration": 0.0149,
      "velocity": 89,
      "chip": "ym2612"
    },
    {
      "channel": 0,
      "note": 51,
      "start": 8.418,
      "duration": 0.0139,
      "velocity": 95,
      "chip": "ym2612"
    },
    {
      "channel": 2,
      "note": 66,
      "start": 8.4189,
      "duration": 0.0139,
      "velocity": 89,
      "chip": "ym2612"
    },
    {
      "channel": 0,
      "note": 51,
      "start": 8.4319,
      "duration": 0.0146,
      "velocity": 95,
      "chip": "ym2612"
    },
    {
      "channel": 2,
      "note": 66,
      "start": 8.4328,
      "duration": 0.0146,
      "velocity": 89,
      "chip": "ym2612"
    },
    {
      "channel": 0,
      "note": 51,
      "start": 8.4465,
      "duration": 0.0144,
      "velocity": 95,
      "chip": "ym2612"
    },
    {
      "channel": 2,
      "note": 66,
      "start": 8.4474,
      "duration": 0.0143,
      "velocity": 89,
      "chip": "ym2612"
    },
    {
      "channel": 0,
      "note": 51,
      "start": 8.4609,
      "duration": 0.0144,
      "velocity": 95,
      "chip": "ym2612"
    },
    {
      "channel": 2,
      "note": 66,
      "start": 8.4617,
      "duration": 0.0148,
      "velocity": 89,
      "chip": "ym2612"
    },
    {
      "channel": 0,
      "note": 51,
      "start": 8.4754,
      "duration": 0.0144,
      "velocity": 95,
      "chip": "ym2612"
    },
    {
      "channel": 1,
      "note": 63,
      "start": 8.476,
      "duration": 0.3159,
      "velocity": 89,
      "chip": "ym2612"
    },
    {
      "channel": 2,
      "note": 66,
      "start": 8.4764,
      "duration": 0.0142,
      "velocity": 89,
      "chip": "ym2612"
    },
    {
      "channel": 0,
      "note": 51,
      "start": 8.4898,
      "duration": 0.0143,
      "velocity": 95,
      "chip": "ym2612"
    },
    {
      "channel": 2,
      "note": 66,
      "start": 8.4907,
      "duration": 0.0143,
      "velocity": 89,
      "chip": "ym2612"
    },
    {
      "channel": 0,
      "note": 51,
      "start": 8.5041,
      "duration": 0.0146,
      "velocity": 95,
      "chip": "ym2612"
    },
    {
      "channel": 2,
      "note": 66,
      "start": 8.505,
      "duration": 0.0144,
      "velocity": 89,
      "chip": "ym2612"
    },
    {
      "channel": 0,
      "note": 51,
      "start": 8.5187,
      "duration": 0.0144,
      "velocity": 95,
      "chip": "ym2612"
    },
    {
      "channel": 2,
      "note": 66,
      "start": 8.5194,
      "duration": 0.0146,
      "velocity": 89,
      "chip": "ym2612"
    },
    {
      "channel": 0,
      "note": 51,
      "start": 8.5331,
      "duration": 0.0145,
      "velocity": 95,
      "chip": "ym2612"
    },
    {
      "channel": 2,
      "note": 66,
      "start": 8.534,
      "duration": 0.0145,
      "velocity": 89,
      "chip": "ym2612"
    },
    {
      "channel": 0,
      "note": 51,
      "start": 8.5476,
      "duration": 0.0143,
      "velocity": 95,
      "chip": "ym2612"
    },
    {
      "channel": 2,
      "note": 66,
      "start": 8.5485,
      "duration": 0.0143,
      "velocity": 89,
      "chip": "ym2612"
    },
    {
      "channel": 0,
      "note": 51,
      "start": 8.5619,
      "duration": 0.0146,
      "velocity": 95,
      "chip": "ym2612"
    },
    {
      "channel": 2,
      "note": 66,
      "start": 8.5628,
      "duration": 0.0146,
      "velocity": 89,
      "chip": "ym2612"
    },
    {
      "channel": 0,
      "note": 51,
      "start": 8.5765,
      "duration": 0.0144,
      "velocity": 95,
      "chip": "ym2612"
    },
    {
      "channel": 2,
      "note": 66,
      "start": 8.5773,
      "duration": 0.0144,
      "velocity": 89,
      "chip": "ym2612"
    },
    {
      "channel": 0,
      "note": 51,
      "start": 8.591,
      "duration": 0.0144,
      "velocity": 95,
      "chip": "ym2612"
    },
    {
      "channel": 2,
      "note": 66,
      "start": 8.5917,
      "duration": 0.0146,
      "velocity": 89,
      "chip": "ym2612"
    },
    {
      "channel": 0,
      "note": 51,
      "start": 8.6054,
      "duration": 0.0144,
      "velocity": 95,
      "chip": "ym2612"
    },
    {
      "channel": 2,
      "note": 66,
      "start": 8.6063,
      "duration": 0.0144,
      "velocity": 89,
      "chip": "ym2612"
    },
    {
      "channel": 0,
      "note": 51,
      "start": 8.6198,
      "duration": 0.0143,
      "velocity": 95,
      "chip": "ym2612"
    },
    {
      "channel": 2,
      "note": 66,
      "start": 8.6207,
      "duration": 0.0143,
      "velocity": 89,
      "chip": "ym2612"
    },
    {
      "channel": 0,
      "note": 51,
      "start": 8.6341,
      "duration": 0.0146,
      "velocity": 95,
      "chip": "ym2612"
    },
    {
      "channel": 2,
      "note": 66,
      "start": 8.635,
      "duration": 0.0144,
      "velocity": 89,
      "chip": "ym2612"
    },
    {
      "channel": 0,
      "note": 51,
      "start": 8.6487,
      "duration": 0.0144,
      "velocity": 95,
      "chip": "ym2612"
    },
    {
      "channel": 2,
      "note": 66,
      "start": 8.6494,
      "duration": 0.0146,
      "velocity": 89,
      "chip": "ym2612"
    },
    {
      "channel": 0,
      "note": 51,
      "start": 8.6632,
      "duration": 0.0144,
      "velocity": 95,
      "chip": "ym2612"
    },
    {
      "channel": 2,
      "note": 66,
      "start": 8.664,
      "duration": 0.0144,
      "velocity": 89,
      "chip": "ym2612"
    },
    {
      "channel": 0,
      "note": 51,
      "start": 8.6776,
      "duration": 0.0143,
      "velocity": 95,
      "chip": "ym2612"
    },
    {
      "channel": 2,
      "note": 66,
      "start": 8.6785,
      "duration": 0.0143,
      "velocity": 89,
      "chip": "ym2612"
    },
    {
      "channel": 0,
      "note": 51,
      "start": 8.6919,
      "duration": 0.0146,
      "velocity": 95,
      "chip": "ym2612"
    },
    {
      "channel": 2,
      "note": 66,
      "start": 8.6928,
      "duration": 0.0146,
      "velocity": 89,
      "chip": "ym2612"
    },
    {
      "channel": 0,
      "note": 51,
      "start": 8.7065,
      "duration": 0.0042,
      "velocity": 95,
      "chip": "ym2612"
    },
    {
      "channel": 2,
      "note": 66,
      "start": 8.7073,
      "duration": 0.004,
      "velocity": 89,
      "chip": "ym2612"
    },
    {
      "channel": 0,
      "note": 51,
      "start": 8.7107,
      "duration": 0.0033,
      "velocity": 95,
      "chip": "ym2612"
    },
    {
      "channel": 2,
      "note": 66,
      "start": 8.7114,
      "duration": 0.0034,
      "velocity": 89,
      "chip": "ym2612"
    },
    {
      "channel": 0,
      "note": 51,
      "start": 8.7139,
      "duration": 0.0056,
      "velocity": 95,
      "chip": "ym2612"
    },
    {
      "channel": 2,
      "note": 66,
      "start": 8.7148,
      "duration": 0.0056,
      "velocity": 89,
      "chip": "ym2612"
    },
    {
      "channel": 0,
      "note": 51,
      "start": 8.7195,
      "duration": 0.014,
      "velocity": 95,
      "chip": "ym2612"
    },
    {
      "channel": 2,
      "note": 66,
      "start": 8.7205,
      "duration": 0.0139,
      "velocity": 89,
      "chip": "ym2612"
    },
    {
      "channel": 0,
      "note": 51,
      "start": 8.7335,
      "duration": 0.0146,
      "velocity": 95,
      "chip": "ym2612"
    },
    {
      "channel": 2,
      "note": 66,
      "start": 8.7343,
      "duration": 0.0144,
      "velocity": 89,
      "chip": "ym2612"
    },
    {
      "channel": 0,
      "note": 51,
      "start": 8.7481,
      "duration": 0.0144,
      "velocity": 95,
      "chip": "ym2612"
    },
    {
      "channel": 2,
      "note": 66,
      "start": 8.7488,
      "duration": 0.0146,
      "velocity": 89,
      "chip": "ym2612"
    },
    {
      "channel": 0,
      "note": 51,
      "start": 8.7625,
      "duration": 0.0144,
      "velocity": 95,
      "chip": "ym2612"
    },
    {
      "channel": 2,
      "note": 66,
      "start": 8.7634,
      "duration": 0.0144,
      "velocity": 89,
      "chip": "ym2612"
    },
    {
      "channel": 0,
      "note": 51,
      "start": 8.777,
      "duration": 0.0143,
      "velocity": 95,
      "chip": "ym2612"
    },
    {
      "channel": 2,
      "note": 66,
      "start": 8.7778,
      "duration": 0.0146,
      "velocity": 89,
      "chip": "ym2612"
    },
    {
      "channel": 0,
      "note": 51,
      "start": 8.7913,
      "duration": 0.0146,
      "velocity": 95,
      "chip": "ym2612"
    },
    {
      "channel": 1,
      "note": 63,
      "start": 8.7919,
      "duration": 0.0146,
      "velocity": 89,
      "chip": "ym2612"
    },
    {
      "channel": 2,
      "note": 66,
      "start": 8.7925,
      "duration": 0.0146,
      "velocity": 89,
      "chip": "ym2612"
    },
    {
      "channel": 0,
      "note": 51,
      "start": 8.8058,
      "duration": 0.0145,
      "velocity": 95,
      "chip": "ym2612"
    },
    {
      "channel": 1,
      "note": 63,
      "start": 8.8065,
      "duration": 0.0143,
      "velocity": 89,
      "chip": "ym2612"
    },
    {
      "channel": 2,
      "note": 66,
      "start": 8.8071,
      "duration": 0.0141,
      "velocity": 89,
      "chip": "ym2612"
    },
    {
      "channel": 0,
      "note": 51,
      "start": 8.8203,
      "duration": 0.0144,
      "velocity": 95,
      "chip": "ym2612"
    },
    {
      "channel": 1,
      "note": 63,
      "start": 8.8208,
      "duration": 0.0146,
      "velocity": 89,
      "chip": "ym2612"
    },
    {
      "channel": 2,
      "note": 66,
      "start": 8.8212,
      "duration": 0.0148,
      "velocity": 89,
      "chip": "ym2612"
    },
    {
      "channel": 0,
      "note": 51,
      "start": 8.8347,
      "duration": 0.0144,
      "velocity": 95,
      "chip": "ym2612"
    },
    {
      "channel": 1,
      "note": 63,
      "start": 8.8354,
      "duration": 0.0144,
      "velocity": 89,
      "chip": "ym2612"
    },
    {
      "channel": 2,
      "note": 66,
      "start": 8.836,
      "duration": 0.0144,
      "velocity": 89,
      "chip": "ym2612"
    },
    {
      "channel": 0,
      "note": 51,
      "start": 8.8492,
      "duration": 0.0143,
      "velocity": 95,
      "chip": "ym2612"
    },
    {
      "channel": 1,
      "note": 63,
      "start": 8.8498,
      "duration": 0.0143,
      "velocity": 89,
      "chip": "ym2612"
    },
    {
      "channel": 2,
      "note": 66,
      "start": 8.8504,
      "duration": 0.0143,
      "velocity": 89,
      "chip": "ym2612"
    },
    {
      "channel": 0,
      "note": 51,
      "start": 8.8635,
      "duration": 0.0146,
      "velocity": 95,
      "chip": "ym2612"
    },
    {
      "channel": 1,
      "note": 63,
      "start": 8.8641,
      "duration": 0.0144,
      "velocity": 89,
      "chip": "ym2612"
    },
    {
      "channel": 2,
      "note": 66,
      "start": 8.8647,
      "duration": 0.0142,
      "velocity": 89,
      "chip": "ym2612"
    },
    {
      "channel": 0,
      "note": 51,
      "start": 8.878,
      "duration": 0.0145,
      "velocity": 95,
      "chip": "ym2612"
    },
    {
      "channel": 1,
      "note": 63,
      "start": 8.8785,
      "duration": 0.0146,
      "velocity": 89,
      "chip": "ym2612"
    },
    {
      "channel": 2,
      "note": 66,
      "start": 8.879,
      "duration": 0.0148,
      "velocity": 89,
      "chip": "ym2612"
    },
    {
      "channel": 0,
      "note": 51,
      "start": 8.8925,
      "duration": 0.0144,
      "velocity": 95,
      "chip": "ym2612"
    },
    {
      "channel": 1,
      "note": 63,
      "start": 8.8932,
      "duration": 0.0144,
      "velocity": 89,
      "chip": "ym2612"
    },
    {
      "channel": 2,
      "note": 66,
      "start": 8.8938,
      "duration": 0.0144,
      "velocity": 89,
      "chip": "ym2612"
    },
    {
      "channel": 0,
      "note": 51,
      "start": 8.907,
      "duration": 0.0143,
      "velocity": 95,
      "chip": "ym2612"
    },
    {
      "channel": 1,
      "note": 63,
      "start": 8.9076,
      "duration": 0.0143,
      "velocity": 89,
      "chip": "ym2612"
    },
    {
      "channel": 2,
      "note": 66,
      "start": 8.9082,
      "duration": 0.0143,
      "velocity": 89,
      "chip": "ym2612"
    },
    {
      "channel": 0,
      "note": 51,
      "start": 8.9213,
      "duration": 0.0146,
      "velocity": 95,
      "chip": "ym2612"
    },
    {
      "channel": 1,
      "note": 63,
      "start": 8.9219,
      "duration": 0.0146,
      "velocity": 89,
      "chip": "ym2612"
    },
    {
      "channel": 2,
      "note": 66,
      "start": 8.9225,
      "duration": 0.0146,
      "velocity": 89,
      "chip": "ym2612"
    },
    {
      "channel": 0,
      "note": 51,
      "start": 8.9359,
      "duration": 0.0144,
      "velocity": 95,
      "chip": "ym2612"
    },
    {
      "channel": 1,
      "note": 63,
      "start": 8.9365,
      "duration": 0.0143,
      "velocity": 89,
      "chip": "ym2612"
    },
    {
      "channel": 2,
      "note": 66,
      "start": 8.9371,
      "duration": 0.0141,
      "velocity": 89,
      "chip": "ym2612"
    },
    {
      "channel": 0,
      "note": 51,
      "start": 8.9503,
      "duration": 0.0144,
      "velocity": 95,
      "chip": "ym2612"
    },
    {
      "channel": 1,
      "note": 63,
      "start": 8.9508,
      "duration": 0.0146,
      "velocity": 89,
      "chip": "ym2612"
    },
    {
      "channel": 2,
      "note": 66,
      "start": 8.9512,
      "duration": 0.0148,
      "velocity": 89,
      "chip": "ym2612"
    },
    {
      "channel": 0,
      "note": 51,
      "start": 8.9647,
      "duration": 0.0144,
      "velocity": 95,
      "chip": "ym2612"
    },
    {
      "channel": 1,
      "note": 63,
      "start": 8.9654,
      "duration": 0.0144,
      "velocity": 89,
      "chip": "ym2612"
    },
    {
      "channel": 2,
      "note": 66,
      "start": 8.966,
      "duration": 0.0144,
      "velocity": 89,
      "chip": "ym2612"
    },
    {
      "channel": 0,
      "note": 51,
      "start": 8.9792,
      "duration": 0.0143,
      "velocity": 95,
      "chip": "ym2612"
    },
    {
      "channel": 1,
      "note": 63,
      "start": 8.9798,
      "duration": 0.0143,
      "velocity": 89,
      "chip": "ym2612"
    },
    {
      "channel": 2,
      "note": 66,
      "start": 8.9805,
      "duration": 0.0143,
      "velocity": 89,
      "chip": "ym2612"
    },
    {
      "channel": 0,
      "note": 51,
      "start": 8.9935,
      "duration": 0.0146,
      "velocity": 95,
      "chip": "ym2612"
    },
    {
      "channel": 1,
      "note": 63,
      "start": 8.9941,
      "duration": 0.0144,
      "velocity": 89,
      "chip": "ym2612"
    },
    {
      "channel": 2,
      "note": 66,
      "start": 8.9948,
      "duration": 0.0143,
      "velocity": 89,
      "chip": "ym2612"
    },
    {
      "channel": 0,
      "note": 51,
      "start": 9.008,
      "duration": 0.0144,
      "velocity": 95,
      "chip": "ym2612"
    },
    {
      "channel": 1,
      "note": 63,
      "start": 9.0086,
      "duration": 0.0146,
      "velocity": 89,
      "chip": "ym2612"
    },
    {
      "channel": 2,
      "note": 66,
      "start": 9.009,
      "duration": 0.0147,
      "velocity": 89,
      "chip": "ym2612"
    },
    {
      "channel": 0,
      "note": 51,
      "start": 9.0225,
      "duration": 0.0145,
      "velocity": 95,
      "chip": "ym2612"
    },
    {
      "channel": 1,
      "note": 63,
      "start": 9.0231,
      "duration": 0.0144,
      "velocity": 89,
      "chip": "ym2612"
    },
    {
      "channel": 2,
      "note": 66,
      "start": 9.0238,
      "duration": 0.0144,
      "velocity": 89,
      "chip": "ym2612"
    },
    {
      "channel": 0,
      "note": 51,
      "start": 9.037,
      "duration": 0.0146,
      "velocity": 95,
      "chip": "ym2612"
    },
    {
      "channel": 1,
      "note": 63,
      "start": 9.0376,
      "duration": 0.0146,
      "velocity": 89,
      "chip": "ym2612"
    },
    {
      "channel": 2,
      "note": 66,
      "start": 9.0382,
      "duration": 0.0146,
      "velocity": 89,
      "chip": "ym2612"
    },
    {
      "channel": 0,
      "note": 51,
      "start": 9.0516,
      "duration": 0.0143,
      "velocity": 95,
      "chip": "ym2612"
    },
    {
      "channel": 1,
      "note": 63,
      "start": 9.0522,
      "duration": 0.0143,
      "velocity": 89,
      "chip": "ym2612"
    },
    {
      "channel": 2,
      "note": 66,
      "start": 9.0528,
      "duration": 0.0143,
      "velocity": 89,
      "chip": "ym2612"
    },
    {
      "channel": 0,
      "note": 51,
      "start": 9.0659,
      "duration": 0.0144,
      "velocity": 95,
      "chip": "ym2612"
    },
    {
      "channel": 1,
      "note": 63,
      "start": 9.0665,
      "duration": 0.0142,
      "velocity": 89,
      "chip": "ym2612"
    },
    {
      "channel": 2,
      "note": 66,
      "start": 9.0671,
      "duration": 0.0142,
      "velocity": 89,
      "chip": "ym2612"
    },
    {
      "channel": 0,
      "note": 51,
      "start": 9.0803,
      "duration": 0.0144,
      "velocity": 95,
      "chip": "ym2612"
    },
    {
      "channel": 1,
      "note": 63,
      "start": 9.0808,
      "duration": 0.0146,
      "velocity": 89,
      "chip": "ym2612"
    },
    {
      "channel": 2,
      "note": 66,
      "start": 9.0813,
      "duration": 0.0148,
      "velocity": 89,
      "chip": "ym2612"
    },
    {
      "channel": 0,
      "note": 51,
      "start": 9.0948,
      "duration": 0.0144,
      "velocity": 95,
      "chip": "ym2612"
    },
    {
      "channel": 1,
      "note": 63,
      "start": 9.0954,
      "duration": 0.0144,
      "velocity": 89,
      "chip": "ym2612"
    },
    {
      "channel": 2,
      "note": 66,
      "start": 9.096,
      "duration": 0.0144,
      "velocity": 89,
      "chip": "ym2612"
    },
    {
      "channel": 0,
      "note": 51,
      "start": 9.1092,
      "duration": 0.0143,
      "velocity": 95,
      "chip": "ym2612"
    },
    {
      "channel": 1,
      "note": 63,
      "start": 9.1098,
      "duration": 0.0143,
      "velocity": 89,
      "chip": "ym2612"
    },
    {
      "channel": 2,
      "note": 66,
      "start": 9.1104,
      "duration": 0.0143,
      "velocity": 89,
      "chip": "ym2612"
    },
    {
      "channel": 0,
      "note": 51,
      "start": 9.1235,
      "duration": 0.0146,
      "velocity": 95,
      "chip": "ym2612"
    },
    {
      "channel": 1,
      "note": 63,
      "start": 9.1241,
      "duration": 0.0144,
      "velocity": 89,
      "chip": "ym2612"
    },
    {
      "channel": 2,
      "note": 66,
      "start": 9.1247,
      "duration": 0.0143,
      "velocity": 89,
      "chip": "ym2612"
    },
    {
      "channel": 0,
      "note": 51,
      "start": 9.1381,
      "duration": 0.0144,
      "velocity": 95,
      "chip": "ym2612"
    },
    {
      "channel": 1,
      "note": 63,
      "start": 9.1385,
      "duration": 0.0146,
      "velocity": 89,
      "chip": "ym2612"
    },
    {
      "channel": 2,
      "note": 66,
      "start": 9.139,
      "duration": 0.0147,
      "velocity": 89,
      "chip": "ym2612"
    },
    {
      "channel": 0,
      "note": 51,
      "start": 9.1525,
      "duration": 0.0144,
      "velocity": 95,
      "chip": "ym2612"
    },
    {
      "channel": 1,
      "note": 63,
      "start": 9.1532,
      "duration": 0.0144,
      "velocity": 89,
      "chip": "ym2612"
    },
    {
      "channel": 2,
      "note": 66,
      "start": 9.1538,
      "duration": 0.0144,
      "velocity": 89,
      "chip": "ym2612"
    },
    {
      "channel": 0,
      "note": 51,
      "start": 9.167,
      "duration": 0.0144,
      "velocity": 95,
      "chip": "ym2612"
    },
    {
      "channel": 1,
      "note": 63,
      "start": 9.1676,
      "duration": 0.0143,
      "velocity": 89,
      "chip": "ym2612"
    },
    {
      "channel": 2,
      "note": 66,
      "start": 9.1682,
      "duration": 0.0143,
      "velocity": 89,
      "chip": "ym2612"
    },
    {
      "channel": 0,
      "note": 51,
      "start": 9.1813,
      "duration": 0.0145,
      "velocity": 95,
      "chip": "ym2612"
    },
    {
      "channel": 1,
      "note": 63,
      "start": 9.1819,
      "duration": 0.0146,
      "velocity": 89,
      "chip": "ym2612"
    },
    {
      "channel": 2,
      "note": 66,
      "start": 9.1826,
      "duration": 0.0146,
      "velocity": 89,
      "chip": "ym2612"
    },
    {
      "channel": 0,
      "note": 51,
      "start": 9.1959,
      "duration": 0.0145,
      "velocity": 95,
      "chip": "ym2612"
    },
    {
      "channel": 1,
      "note": 63,
      "start": 9.1965,
      "duration": 0.0143,
      "velocity": 89,
      "chip": "ym2612"
    },
    {
      "channel": 2,
      "note": 66,
      "start": 9.1971,
      "duration": 0.0141,
      "velocity": 89,
      "chip": "ym2612"
    },
    {
      "channel": 0,
      "note": 51,
      "start": 9.2103,
      "duration": 0.0144,
      "velocity": 95,
      "chip": "ym2612"
    },
    {
      "channel": 1,
      "note": 63,
      "start": 9.2108,
      "duration": 0.0146,
      "velocity": 89,
      "chip": "ym2612"
    },
    {
      "channel": 2,
      "note": 66,
      "start": 9.2112,
      "duration": 0.0148,
      "velocity": 89,
      "chip": "ym2612"
    },
    {
      "channel": 0,
      "note": 51,
      "start": 9.2248,
      "duration": 0.0144,
      "velocity": 95,
      "chip": "ym2612"
    },
    {
      "channel": 1,
      "note": 63,
      "start": 9.2254,
      "duration": 0.0145,
      "velocity": 89,
      "chip": "ym2612"
    },
    {
      "channel": 2,
      "note": 66,
      "start": 9.226,
      "duration": 0.0144,
      "velocity": 89,
      "chip": "ym2612"
    },
    {
      "channel": 0,
      "note": 51,
      "start": 9.2392,
      "duration": 0.0143,
      "velocity": 95,
      "chip": "ym2612"
    },
    {
      "channel": 1,
      "note": 63,
      "start": 9.2399,
      "duration": 0.0143,
      "velocity": 89,
      "chip": "ym2612"
    },
    {
      "channel": 2,
      "note": 66,
      "start": 9.2404,
      "duration": 0.0143,
      "velocity": 89,
      "chip": "ym2612"
    },
    {
      "channel": 0,
      "note": 51,
      "start": 9.2535,
      "duration": 0.0146,
      "velocity": 95,
      "chip": "ym2612"
    },
    {
      "channel": 1,
      "note": 63,
      "start": 9.2542,
      "duration": 0.0144,
      "velocity": 89,
      "chip": "ym2612"
    },
    {
      "channel": 2,
      "note": 66,
      "start": 9.2548,
      "duration": 0.0143,
      "velocity": 89,
      "chip": "ym2612"
    },
    {
      "channel": 0,
      "note": 51,
      "start": 9.2681,
      "duration": 0.0144,
      "velocity": 95,
      "chip": "ym2612"
    },
    {
      "channel": 1,
      "note": 63,
      "start": 9.2685,
      "duration": 0.0146,
      "velocity": 89,
      "chip": "ym2612"
    },
    {
      "channel": 2,
      "note": 66,
      "start": 9.2691,
      "duration": 0.0148,
      "velocity": 89,
      "chip": "ym2612"
    },
    {
      "channel": 0,
      "note": 51,
      "start": 9.2826,
      "duration": 0.0145,
      "velocity": 95,
      "chip": "ym2612"
    },
    {
      "channel": 1,
      "note": 63,
      "start": 9.2832,
      "duration": 0.0144,
      "velocity": 89,
      "chip": "ym2612"
    },
    {
      "channel": 2,
      "note": 66,
      "start": 9.2838,
      "duration": 0.0144,
      "velocity": 89,
      "chip": "ym2612"
    },
    {
      "channel": 0,
      "note": 51,
      "start": 9.2971,
      "duration": 0.0143,
      "velocity": 95,
      "chip": "ym2612"
    },
    {
      "channel": 1,
      "note": 63,
      "start": 9.2976,
      "duration": 0.0143,
      "velocity": 89,
      "chip": "ym2612"
    },
    {
      "channel": 2,
      "note": 66,
      "start": 9.2983,
      "duration": 0.0143,
      "velocity": 89,
      "chip": "ym2612"
    },
    {
      "channel": 0,
      "note": 51,
      "start": 9.3113,
      "duration": 0.0146,
      "velocity": 95,
      "chip": "ym2612"
    },
    {
      "channel": 1,
      "note": 63,
      "start": 9.312,
      "duration": 0.0146,
      "velocity": 89,
      "chip": "ym2612"
    },
    {
      "channel": 2,
      "note": 66,
      "start": 9.3126,
      "duration": 0.0146,
      "velocity": 89,
      "chip": "ym2612"
    },
    {
      "channel": 0,
      "note": 51,
      "start": 9.3259,
      "duration": 0.0144,
      "velocity": 95,
      "chip": "ym2612"
    },
    {
      "channel": 1,
      "note": 63,
      "start": 9.3266,
      "duration": 0.0142,
      "velocity": 89,
      "chip": "ym2612"
    },
    {
      "channel": 2,
      "note": 66,
      "start": 9.3271,
      "duration": 0.0142,
      "velocity": 89,
      "chip": "ym2612"
    },
    {
      "channel": 0,
      "note": 51,
      "start": 9.3404,
      "duration": 0.0144,
      "velocity": 95,
      "chip": "ym2612"
    },
    {
      "channel": 1,
      "note": 63,
      "start": 9.3408,
      "duration": 0.0146,
      "velocity": 89,
      "chip": "ym2612"
    },
    {
      "channel": 2,
      "note": 66,
      "start": 9.3413,
      "duration": 0.0147,
      "velocity": 89,
      "chip": "ym2612"
    },
    {
      "channel": 0,
      "note": 51,
      "start": 9.3548,
      "duration": 0.0142,
      "velocity": 95,
      "chip": "ym2612"
    },
    {
      "channel": 1,
      "note": 63,
      "start": 9.3554,
      "duration": 0.0145,
      "velocity": 89,
      "chip": "ym2612"
    },
    {
      "channel": 2,
      "note": 66,
      "start": 9.356,
      "duration": 0.0141,
      "velocity": 89,
      "chip": "ym2612"
    },
    {
      "channel": 0,
      "note": 51,
      "start": 9.3694,
      "duration": 0.3161,
      "velocity": 95,
      "chip": "ym2612"
    },
    {
      "channel": 1,
      "note": 63,
      "start": 9.3699,
      "duration": 0.0039,
      "velocity": 89,
      "chip": "ym2612"
    },
    {
      "channel": 2,
      "note": 56,
      "start": 9.3705,
      "duration": 0.1995,
      "velocity": 89,
      "chip": "ym2612"
    },
    {
      "channel": 1,
      "note": 63,
      "start": 9.3737,
      "duration": 0.0024,
      "velocity": 89,
      "chip": "ym2612"
    },
    {
      "channel": 1,
      "note": 63,
      "start": 9.3762,
      "duration": 0.006,
      "velocity": 89,
      "chip": "ym2612"
    },
    {
      "channel": 1,
      "note": 63,
      "start": 9.3822,
      "duration": 0.0144,
      "velocity": 89,
      "chip": "ym2612"
    },
    {
      "channel": 1,
      "note": 63,
      "start": 9.3966,
      "duration": 0.0144,
      "velocity": 89,
      "chip": "ym2612"
    },
    {
      "channel": 1,
      "note": 63,
      "start": 9.4111,
      "duration": 0.0144,
      "velocity": 89,
      "chip": "ym2612"
    },
    {
      "channel": 1,
      "note": 63,
      "start": 9.4255,
      "duration": 0.0144,
      "velocity": 89,
      "chip": "ym2612"
    },
    {
      "channel": 1,
      "note": 63,
      "start": 9.4399,
      "duration": 0.0145,
      "velocity": 89,
      "chip": "ym2612"
    },
    {
      "channel": 1,
      "note": 63,
      "start": 9.4544,
      "duration": 0.0144,
      "velocity": 89,
      "chip": "ym2612"
    },
    {
      "channel": 1,
      "note": 63,
      "start": 9.4688,
      "duration": 0.0145,
      "velocity": 89,
      "chip": "ym2612"
    },
    {
      "channel": 1,
      "note": 63,
      "start": 9.4833,
      "duration": 0.0143,
      "velocity": 89,
      "chip": "ym2612"
    },
    {
      "channel": 1,
      "note": 63,
      "start": 9.4977,
      "duration": 0.0146,
      "velocity": 89,
      "chip": "ym2612"
    },
    {
      "channel": 1,
      "note": 63,
      "start": 9.5122,
      "duration": 0.0144,
      "velocity": 89,
      "chip": "ym2612"
    },
    {
      "channel": 1,
      "note": 63,
      "start": 9.5267,
      "duration": 0.0144,
      "velocity": 89,
      "chip": "ym2612"
    },
    {
      "channel": 1,
      "note": 63,
      "start": 9.5411,
      "duration": 0.0144,
      "velocity": 89,
      "chip": "ym2612"
    },
    {
      "channel": 1,
      "note": 63,
      "start": 9.5555,
      "duration": 0.0143,
      "velocity": 89,
      "chip": "ym2612"
    },
    {
      "channel": 1,
      "note": 63,
      "start": 9.5699,
      "duration": 0.0146,
      "velocity": 89,
      "chip": "ym2612"
    },
    {
      "channel": 2,
      "note": 59,
      "start": 9.5705,
      "duration": 0.2312,
      "velocity": 89,
      "chip": "ym2612"
    },
    {
      "channel": 1,
      "note": 63,
      "start": 9.5844,
      "duration": 0.0145,
      "velocity": 89,
      "chip": "ym2612"
    },
    {
      "channel": 1,
      "note": 63,
      "start": 9.5989,
      "duration": 0.0144,
      "velocity": 89,
      "chip": "ym2612"
    },
    {
      "channel": 1,
      "note": 63,
      "start": 9.6134,
      "duration": 0.0143,
      "velocity": 89,
      "chip": "ym2612"
    },
    {
      "channel": 1,
      "note": 63,
      "start": 9.6276,
      "duration": 0.0146,
      "velocity": 89,
      "chip": "ym2612"
    },
    {
      "channel": 1,
      "note": 63,
      "start": 9.6422,
      "duration": 0.0144,
      "velocity": 89,
      "chip": "ym2612"
    },
    {
      "channel": 1,
      "note": 63,
      "start": 9.6567,
      "duration": 0.0144,
      "velocity": 89,
      "chip": "ym2612"
    },
    {
      "channel": 1,
      "note": 63,
      "start": 9.6711,
      "duration": 0.0149,
      "velocity": 89,
      "chip": "ym2612"
    },
    {
      "channel": 0,
      "note": 51,
      "start": 9.6854,
      "duration": 0.0142,
      "velocity": 95,
      "chip": "ym2612"
    },
    {
      "channel": 1,
      "note": 63,
      "start": 9.6861,
      "duration": 0.014,
      "velocity": 89,
      "chip": "ym2612"
    },
    {
      "channel": 0,
      "note": 51,
      "start": 9.6996,
      "duration": 0.0146,
      "velocity": 95,
      "chip": "ym2612"
    },
    {
      "channel": 1,
      "note": 63,
      "start": 9.7001,
      "duration": 0.0148,
      "velocity": 89,
      "chip": "ym2612"
    },
    {
      "channel": 0,
      "note": 51,
      "start": 9.7142,
      "duration": 0.0144,
      "velocity": 95,
      "chip": "ym2612"
    },
    {
      "channel": 1,
      "note": 63,
      "start": 9.7148,
      "duration": 0.0144,
      "velocity": 89,
      "chip": "ym2612"
    },
    {
      "channel": 0,
      "note": 51,
      "start": 9.7286,
      "duration": 0.0144,
      "velocity": 95,
      "chip": "ym2612"
    },
    {
      "channel": 1,
      "note": 63,
      "start": 9.7293,
      "duration": 0.0144,
      "velocity": 89,
      "chip": "ym2612"
    },
    {
      "channel": 0,
      "note": 51,
      "start": 9.7431,
      "duration": 0.0143,
      "velocity": 95,
      "chip": "ym2612"
    },
    {
      "channel": 1,
      "note": 63,
      "start": 9.7437,
      "duration": 0.0141,
      "velocity": 89,
      "chip": "ym2612"
    },
    {
      "channel": 0,
      "note": 51,
      "start": 9.7574,
      "duration": 0.0146,
      "velocity": 95,
      "chip": "ym2612"
    },
    {
      "channel": 1,
      "note": 63,
      "start": 9.7578,
      "duration": 0.0148,
      "velocity": 89,
      "chip": "ym2612"
    },
    {
      "channel": 0,
      "note": 51,
      "start": 9.772,
      "duration": 0.0144,
      "velocity": 95,
      "chip": "ym2612"
    },
    {
      "channel": 1,
      "note": 63,
      "start": 9.7727,
      "duration": 0.0144,
      "velocity": 89,
      "chip": "ym2612"
    },
    {
      "channel": 0,
      "note": 51,
      "start": 9.7865,
      "duration": 0.0144,
      "velocity": 95,
      "chip": "ym2612"
    },
    {
      "channel": 1,
      "note": 63,
      "start": 9.7871,
      "duration": 0.0144,
      "velocity": 89,
      "chip": "ym2612"
    },
    {
      "channel": 0,
      "note": 51,
      "start": 9.8008,
      "duration": 0.0145,
      "velocity": 95,
      "chip": "ym2612"
    },
    {
      "channel": 1,
      "note": 63,
      "start": 9.8015,
      "duration": 0.0145,
      "velocity": 89,
      "chip": "ym2612"
    },
    {
      "channel": 2,
      "note": 63,
      "start": 9.8021,
      "duration": 0.3159,
      "velocity": 89,
      "chip": "ym2612"
    },
    {
      "channel": 0,
      "note": 51,
      "start": 9.8153,
      "duration": 0.0143,
      "velocity": 95,
      "chip": "ym2612"
    },
    {
      "channel": 1,
      "note": 63,
      "start": 9.816,
      "duration": 0.0141,
      "velocity": 89,
      "chip": "ym2612"
    },
    {
      "channel": 0,
      "note": 51,
      "start": 9.8296,
      "duration": 0.0146,
      "velocity": 95,
      "chip": "ym2612"
    },
    {
      "channel": 1,
      "note": 63,
      "start": 9.8301,
      "duration": 0.0147,
      "velocity": 89,
      "chip": "ym2612"
    },
    {
      "channel": 0,
      "note": 51,
      "start": 9.8441,
      "duration": 0.0144,
      "velocity": 95,
      "chip": "ym2612"
    },
    {
      "channel": 1,
      "note": 63,
      "start": 9.8448,
      "duration": 0.0144,
      "velocity": 89,
      "chip": "ym2612"
    },
    {
      "channel": 0,
      "note": 51,
      "start": 9.8586,
      "duration": 0.0145,
      "velocity": 95,
      "chip": "ym2612"
    },
    {
      "channel": 1,
      "note": 63,
      "start": 9.8592,
      "duration": 0.0145,
      "velocity": 89,
      "chip": "ym2612"
    },
    {
      "channel": 0,
      "note": 51,
      "start": 9.8731,
      "duration": 0.0142,
      "velocity": 95,
      "chip": "ym2612"
    },
    {
      "channel": 1,
      "note": 63,
      "start": 9.8737,
      "duration": 0.0141,
      "velocity": 89,
      "chip": "ym2612"
    },
    {
      "channel": 0,
      "note": 51,
      "start": 9.8873,
      "duration": 0.0146,
      "velocity": 95,
      "chip": "ym2612"
    },
    {
      "channel": 1,
      "note": 63,
      "start": 9.8879,
      "duration": 0.0147,
      "velocity": 89,
      "chip": "ym2612"
    },
    {
      "channel": 0,
      "note": 51,
      "start": 9.902,
      "duration": 0.0145,
      "velocity": 95,
      "chip": "ym2612"
    },
    {
      "channel": 1,
      "note": 63,
      "start": 9.9026,
      "duration": 0.0145,
      "velocity": 89,
      "chip": "ym2612"
    },
    {
      "channel": 0,
      "note": 51,
      "start": 9.9165,
      "duration": 0.0144,
      "velocity": 95,
      "chip": "ym2612"
    },
    {
      "channel": 1,
      "note": 63,
      "start": 9.9171,
      "duration": 0.0144,
      "velocity": 89,
      "chip": "ym2612"
    },
    {
      "channel": 0,
      "note": 51,
      "start": 9.9309,
      "duration": 0.0144,
      "velocity": 95,
      "chip": "ym2612"
    },
    {
      "channel": 1,
      "note": 63,
      "start": 9.9315,
      "duration": 0.0144,
      "velocity": 89,
      "chip": "ym2612"
    },
    {
      "channel": 0,
      "note": 51,
      "start": 9.9453,
      "duration": 0.0144,
      "velocity": 95,
      "chip": "ym2612"
    },
    {
      "channel": 1,
      "note": 63,
      "start": 9.9459,
      "duration": 0.0142,
      "velocity": 89,
      "chip": "ym2612"
    },
    {
      "channel": 0,
      "note": 51,
      "start": 9.9597,
      "duration": 0.0146,
      "velocity": 95,
      "chip": "ym2612"
    },
    {
      "channel": 1,
      "note": 63,
      "start": 9.9601,
      "duration": 0.0147,
      "velocity": 89,
      "chip": "ym2612"
    },
    {
      "channel": 0,
      "note": 51,
      "start": 9.9742,
      "duration": 0.0144,
      "velocity": 95,
      "chip": "ym2612"
    },
    {
      "channel": 1,
      "note": 63,
      "start": 9.9748,
      "duration": 0.0144,
      "velocity": 89,
      "chip": "ym2612"
    },
    {
      "channel": 0,
      "note": 51,
      "start": 9.9886,
      "duration": 0.0145,
      "velocity": 95,
      "chip": "ym2612"
    },
    {
      "channel": 1,
      "note": 63,
      "start": 9.9893,
      "duration": 0.0144,
      "velocity": 89,
      "chip": "ym2612"
    },
    {
      "channel": 0,
      "note": 51,
      "start": 10.0031,
      "duration": 0.0144,
      "velocity": 95,
      "chip": "ym2612"
    },
    {
      "channel": 1,
      "note": 63,
      "start": 10.0037,
      "duration": 0.0142,
      "velocity": 89,
      "chip": "ym2612"
    },
    {
      "channel": 0,
      "note": 51,
      "start": 10.0175,
      "duration": 0.0145,
      "velocity": 95,
      "chip": "ym2612"
    },
    {
      "channel": 1,
      "note": 63,
      "start": 10.0179,
      "duration": 0.0147,
      "velocity": 89,
      "chip": "ym2612"
    },
    {
      "channel": 0,
      "note": 51,
      "start": 10.032,
      "duration": 0.0042,
      "velocity": 95,
      "chip": "ym2612"
    },
    {
      "channel": 1,
      "note": 63,
      "start": 10.0326,
      "duration": 0.0042,
      "velocity": 89,
      "chip": "ym2612"
    },
    {
      "channel": 0,
      "note": 51,
      "start": 10.0362,
      "duration": 0.0035,
      "velocity": 95,
      "chip": "ym2612"
    },
    {
      "channel": 1,
      "note": 63,
      "start": 10.0368,
      "duration": 0.0034,
      "velocity": 89,
      "chip": "ym2612"
    },
    {
      "channel": 0,
      "note": 51,
      "start": 10.0397,
      "duration": 0.0051,
      "velocity": 95,
      "chip": "ym2612"
    },
    {
      "channel": 1,
      "note": 63,
      "start": 10.0402,
      "duration": 0.0052,
      "velocity": 89,
      "chip": "ym2612"
    },
    {
      "channel": 0,
      "note": 51,
      "start": 10.0448,
      "duration": 0.0144,
      "velocity": 95,
      "chip": "ym2612"
    },
    {
      "channel": 1,
      "note": 63,
      "start": 10.0454,
      "duration": 0.0142,
      "velocity": 89,
      "chip": "ym2612"
    },
    {
      "channel": 0,
      "note": 51,
      "start": 10.0592,
      "duration": 0.0146,
      "velocity": 95,
      "chip": "ym2612"
    },
    {
      "channel": 1,
      "note": 63,
      "start": 10.0596,
      "duration": 0.0147,
      "velocity": 89,
      "chip": "ym2612"
    },
    {
      "channel": 0,
      "note": 51,
      "start": 10.0737,
      "duration": 0.0144,
      "velocity": 95,
      "chip": "ym2612"
    },
    {
      "channel": 1,
      "note": 63,
      "start": 10.0743,
      "duration": 0.0144,
      "velocity": 89,
      "chip": "ym2612"
    },
    {
      "channel": 0,
      "note": 51,
      "start": 10.0881,
      "duration": 0.0145,
      "velocity": 95,
      "chip": "ym2612"
    },
    {
      "channel": 1,
      "note": 63,
      "start": 10.0887,
      "duration": 0.0144,
      "velocity": 89,
      "chip": "ym2612"
    },
    {
      "channel": 0,
      "note": 51,
      "start": 10.1026,
      "duration": 0.0143,
      "velocity": 95,
      "chip": "ym2612"
    },
    {
      "channel": 1,
      "note": 63,
      "start": 10.1032,
      "duration": 0.0142,
      "velocity": 89,
      "chip": "ym2612"
    },
    {
      "channel": 0,
      "note": 51,
      "start": 10.1169,
      "duration": 0.0146,
      "velocity": 95,
      "chip": "ym2612"
    },
    {
      "channel": 1,
      "note": 63,
      "start": 10.1174,
      "duration": 0.0148,
      "velocity": 89,
      "chip": "ym2612"
    },
    {
      "channel": 2,
      "note": 63,
      "start": 10.118,
      "duration": 0.0147,
      "velocity": 89,
      "chip": "ym2612"
    },
    {
      "channel": 0,
      "note": 51,
      "start": 10.1315,
      "duration": 0.0144,
      "velocity": 95,
      "chip": "ym2612"
    },
    {
      "channel": 1,
      "note": 63,
      "start": 10.1321,
      "duration": 0.0144,
      "velocity": 89,
      "chip": "ym2612"
    },
    {
      "channel": 2,
      "note": 63,
      "start": 10.1327,
      "duration": 0.0143,
      "velocity": 89,
      "chip": "ym2612"
    },
    {
      "channel": 0,
      "note": 51,
      "start": 10.1459,
      "duration": 0.0144,
      "velocity": 95,
      "chip": "ym2612"
    },
    {
      "channel": 1,
      "note": 63,
      "start": 10.1466,
      "duration": 0.0144,
      "velocity": 89,
      "chip": "ym2612"
    },
    {
      "channel": 2,
      "note": 63,
      "start": 10.147,
      "duration": 0.0146,
      "velocity": 89,
      "chip": "ym2612"
    },
    {
      "channel": 0,
      "note": 51,
      "start": 10.1604,
      "duration": 0.0144,
      "velocity": 95,
      "chip": "ym2612"
    },
    {
      "channel": 1,
      "note": 63,
      "start": 10.161,
      "duration": 0.0144,
      "velocity": 89,
      "chip": "ym2612"
    },
    {
      "channel": 2,
      "note": 63,
      "start": 10.1616,
      "duration": 0.0144,
      "velocity": 89,
      "chip": "ym2612"
    },
    {
      "channel": 0,
      "note": 51,
      "start": 10.1748,
      "duration": 0.0143,
      "velocity": 95,
      "chip": "ym2612"
    },
    {
      "channel": 1,
      "note": 63,
      "start": 10.1754,
      "duration": 0.0141,
      "velocity": 89,
      "chip": "ym2612"
    },
    {
      "channel": 2,
      "note": 63,
      "start": 10.176,
      "duration": 0.0142,
      "velocity": 89,
      "chip": "ym2612"
    },
    {
      "channel": 0,
      "note": 51,
      "start": 10.1891,
      "duration": 0.0146,
      "velocity": 95,
      "chip": "ym2612"
    },
    {
      "channel": 1,
      "note": 63,
      "start": 10.1896,
      "duration": 0.0147,
      "velocity": 89,
      "chip": "ym2612"
    },
    {
      "channel": 2,
      "note": 63,
      "start": 10.1902,
      "duration": 0.0146,
      "velocity": 89,
      "chip": "ym2612"
    },
    {
      "channel": 0,
      "note": 51,
      "start": 10.2037,
      "duration": 0.0144,
      "velocity": 95,
      "chip": "ym2612"
    },
    {
      "channel": 1,
      "note": 63,
      "start": 10.2043,
      "duration": 0.0145,
      "velocity": 89,
      "chip": "ym2612"
    },
    {
      "channel": 2,
      "note": 63,
      "start": 10.2048,
      "duration": 0.0146,
      "velocity": 89,
      "chip": "ym2612"
    },
    {
      "channel": 0,
      "note": 51,
      "start": 10.2181,
      "duration": 0.0145,
      "velocity": 95,
      "chip": "ym2612"
    },
    {
      "channel": 1,
      "note": 63,
      "start": 10.2188,
      "duration": 0.0144,
      "velocity": 89,
      "chip": "ym2612"
    },
    {
      "channel": 2,
      "note": 63,
      "start": 10.2193,
      "duration": 0.0145,
      "velocity": 89,
      "chip": "ym2612"
    },
    {
      "channel": 0,
      "note": 51,
      "start": 10.2326,
      "duration": 0.0143,
      "velocity": 95,
      "chip": "ym2612"
    },
    {
      "channel": 1,
      "note": 63,
      "start": 10.2332,
      "duration": 0.0142,
      "velocity": 89,
      "chip": "ym2612"
    },
    {
      "channel": 2,
      "note": 63,
      "start": 10.2338,
      "duration": 0.0142,
      "velocity": 89,
      "chip": "ym2612"
    },
    {
      "channel": 0,
      "note": 51,
      "start": 10.2469,
      "duration": 0.0146,
      "velocity": 95,
      "chip": "ym2612"
    },
    {
      "channel": 1,
      "note": 63,
      "start": 10.2474,
      "duration": 0.0148,
      "velocity": 89,
      "chip": "ym2612"
    },
    {
      "channel": 2,
      "note": 63,
      "start": 10.248,
      "duration": 0.0147,
      "velocity": 89,
      "chip": "ym2612"
    },
    {
      "channel": 0,
      "note": 51,
      "start": 10.2615,
      "duration": 0.0144,
      "velocity": 95,
      "chip": "ym2612"
    },
    {
      "channel": 1,
      "note": 63,
      "start": 10.2622,
      "duration": 0.0144,
      "velocity": 89,
      "chip": "ym2612"
    },
    {
      "channel": 2,
      "note": 63,
      "start": 10.2627,
      "duration": 0.0143,
      "velocity": 89,
      "chip": "ym2612"
    },
    {
      "channel": 0,
      "note": 51,
      "start": 10.2759,
      "duration": 0.0144,
      "velocity": 95,
      "chip": "ym2612"
    },
    {
      "channel": 1,
      "note": 63,
      "start": 10.2766,
      "duration": 0.0144,
      "velocity": 89,
      "chip": "ym2612"
    },
    {
      "channel": 2,
      "note": 63,
      "start": 10.277,
      "duration": 0.0146,
      "velocity": 89,
      "chip": "ym2612"
    },
    {
      "channel": 0,
      "note": 51,
      "start": 10.2904,
      "duration": 0.0144,
      "velocity": 95,
      "chip": "ym2612"
    },
    {
      "channel": 1,
      "note": 63,
      "start": 10.291,
      "duration": 0.0144,
      "velocity": 89,
      "chip": "ym2612"
    },
    {
      "channel": 2,
      "note": 63,
      "start": 10.2916,
      "duration": 0.0144,
      "velocity": 89,
      "chip": "ym2612"
    },
    {
      "channel": 0,
      "note": 51,
      "start": 10.3048,
      "duration": 0.0143,
      "velocity": 95,
      "chip": "ym2612"
    },
    {
      "channel": 1,
      "note": 63,
      "start": 10.3055,
      "duration": 0.0141,
      "velocity": 89,
      "chip": "ym2612"
    },
    {
      "channel": 2,
      "note": 63,
      "start": 10.306,
      "duration": 0.0141,
      "velocity": 89,
      "chip": "ym2612"
    },
    {
      "channel": 0,
      "note": 51,
      "start": 10.3191,
      "duration": 0.0146,
      "velocity": 95,
      "chip": "ym2612"
    },
    {
      "channel": 1,
      "note": 63,
      "start": 10.3196,
      "duration": 0.0148,
      "velocity": 89,
      "chip": "ym2612"
    },
    {
      "channel": 2,
      "note": 63,
      "start": 10.3202,
      "duration": 0.0146,
      "velocity": 89,
      "chip": "ym2612"
    },
    {
      "channel": 0,
      "note": 51,
      "start": 10.3337,
      "duration": 0.0144,
      "velocity": 95,
      "chip": "ym2612"
    },
    {
      "channel": 1,
      "note": 63,
      "start": 10.3344,
      "duration": 0.0144,
      "velocity": 89,
      "chip": "ym2612"
    },
    {
      "channel": 2,
      "note": 63,
      "start": 10.3348,
      "duration": 0.0146,
      "velocity": 89,
      "chip": "ym2612"
    },
    {
      "channel": 0,
      "note": 51,
      "start": 10.3482,
      "duration": 0.0144,
      "velocity": 95,
      "chip": "ym2612"
    },
    {
      "channel": 1,
      "note": 63,
      "start": 10.3488,
      "duration": 0.0144,
      "velocity": 89,
      "chip": "ym2612"
    },
    {
      "channel": 2,
      "note": 63,
      "start": 10.3494,
      "duration": 0.0144,
      "velocity": 89,
      "chip": "ym2612"
    },
    {
      "channel": 0,
      "note": 51,
      "start": 10.3626,
      "duration": 0.0143,
      "velocity": 95,
      "chip": "ym2612"
    },
    {
      "channel": 1,
      "note": 63,
      "start": 10.3632,
      "duration": 0.0142,
      "velocity": 89,
      "chip": "ym2612"
    },
    {
      "channel": 2,
      "note": 63,
      "start": 10.3638,
      "duration": 0.0142,
      "velocity": 89,
      "chip": "ym2612"
    },
    {
      "channel": 0,
      "note": 51,
      "start": 10.3769,
      "duration": 0.0146,
      "velocity": 95,
      "chip": "ym2612"
    },
    {
      "channel": 1,
      "note": 63,
      "start": 10.3774,
      "duration": 0.0147,
      "velocity": 89,
      "chip": "ym2612"
    },
    {
      "channel": 2,
      "note": 63,
      "start": 10.378,
      "duration": 0.0147,
      "velocity": 89,
      "chip": "ym2612"
    },
    {
      "channel": 0,
      "note": 51,
      "start": 10.3915,
      "duration": 0.0145,
      "velocity": 95,
      "chip": "ym2612"
    },
    {
      "channel": 1,
      "note": 63,
      "start": 10.3921,
      "duration": 0.0144,
      "velocity": 89,
      "chip": "ym2612"
    },
    {
      "channel": 2,
      "note": 63,
      "start": 10.3927,
      "duration": 0.0143,
      "velocity": 89,
      "chip": "ym2612"
    },
    {
      "channel": 0,
      "note": 51,
      "start": 10.406,
      "duration": 0.0144,
      "velocity": 95,
      "chip": "ym2612"
    },
    {
      "channel": 1,
      "note": 63,
      "start": 10.4066,
      "duration": 0.0145,
      "velocity": 89,
      "chip": "ym2612"
    },
    {
      "channel": 2,
      "note": 63,
      "start": 10.4071,
      "duration": 0.0146,
      "velocity": 89,
      "chip": "ym2612"
    },
    {
      "channel": 0,
      "note": 51,
      "start": 10.4204,
      "duration": 0.0144,
      "velocity": 95,
      "chip": "ym2612"
    },
    {
      "channel": 1,
      "note": 63,
      "start": 10.421,
      "duration": 0.0144,
      "velocity": 89,
      "chip": "ym2612"
    },
    {
      "channel": 2,
      "note": 63,
      "start": 10.4216,
      "duration": 0.0144,
      "velocity": 89,
      "chip": "ym2612"
    },
    {
      "channel": 0,
      "note": 51,
      "start": 10.4349,
      "duration": 0.0143,
      "velocity": 95,
      "chip": "ym2612"
    },
    {
      "channel": 1,
      "note": 63,
      "start": 10.4355,
      "duration": 0.0141,
      "velocity": 89,
      "chip": "ym2612"
    },
    {
      "channel": 2,
      "note": 63,
      "start": 10.4361,
      "duration": 0.0141,
      "velocity": 89,
      "chip": "ym2612"
    },
    {
      "channel": 0,
      "note": 51,
      "start": 10.4491,
      "duration": 0.0146,
      "velocity": 95,
      "chip": "ym2612"
    },
    {
      "channel": 1,
      "note": 63,
      "start": 10.4496,
      "duration": 0.0147,
      "velocity": 89,
      "chip": "ym2612"
    },
    {
      "channel": 2,
      "note": 63,
      "start": 10.4502,
      "duration": 0.0146,
      "velocity": 89,
      "chip": "ym2612"
    },
    {
      "channel": 0,
      "note": 51,
      "start": 10.4637,
      "duration": 0.0145,
      "velocity": 95,
      "chip": "ym2612"
    },
    {
      "channel": 1,
      "note": 63,
      "start": 10.4643,
      "duration": 0.0145,
      "velocity": 89,
      "chip": "ym2612"
    },
    {
      "channel": 2,
      "note": 63,
      "start": 10.4648,
      "duration": 0.0146,
      "velocity": 89,
      "chip": "ym2612"
    },
    {
      "channel": 0,
      "note": 51,
      "start": 10.4782,
      "duration": 0.0144,
      "velocity": 95,
      "chip": "ym2612"
    },
    {
      "channel": 1,
      "note": 63,
      "start": 10.4788,
      "duration": 0.0144,
      "velocity": 89,
      "chip": "ym2612"
    },
    {
      "channel": 2,
      "note": 63,
      "start": 10.4794,
      "duration": 0.0144,
      "velocity": 89,
      "chip": "ym2612"
    },
    {
      "channel": 0,
      "note": 51,
      "start": 10.4926,
      "duration": 0.0143,
      "velocity": 95,
      "chip": "ym2612"
    },
    {
      "channel": 1,
      "note": 63,
      "start": 10.4933,
      "duration": 0.0142,
      "velocity": 89,
      "chip": "ym2612"
    },
    {
      "channel": 2,
      "note": 63,
      "start": 10.4938,
      "duration": 0.0142,
      "velocity": 89,
      "chip": "ym2612"
    },
    {
      "channel": 0,
      "note": 51,
      "start": 10.5069,
      "duration": 0.0146,
      "velocity": 95,
      "chip": "ym2612"
    },
    {
      "channel": 1,
      "note": 63,
      "start": 10.5074,
      "duration": 0.0147,
      "velocity": 89,
      "chip": "ym2612"
    },
    {
      "channel": 2,
      "note": 63,
      "start": 10.508,
      "duration": 0.0148,
      "velocity": 89,
      "chip": "ym2612"
    },
    {
      "channel": 0,
      "note": 51,
      "start": 10.5215,
      "duration": 0.0145,
      "velocity": 95,
      "chip": "ym2612"
    },
    {
      "channel": 1,
      "note": 63,
      "start": 10.5221,
      "duration": 0.0144,
      "velocity": 89,
      "chip": "ym2612"
    },
    {
      "channel": 2,
      "note": 63,
      "start": 10.5228,
      "duration": 0.0143,
      "velocity": 89,
      "chip": "ym2612"
    },
    {
      "channel": 0,
      "note": 51,
      "start": 10.536,
      "duration": 0.0144,
      "velocity": 95,
      "chip": "ym2612"
    },
    {
      "channel": 1,
      "note": 63,
      "start": 10.5366,
      "duration": 0.0144,
      "velocity": 89,
      "chip": "ym2612"
    },
    {
      "channel": 2,
      "note": 63,
      "start": 10.5371,
      "duration": 0.0146,
      "velocity": 89,
      "chip": "ym2612"
    },
    {
      "channel": 0,
      "note": 51,
      "start": 10.5504,
      "duration": 0.0144,
      "velocity": 95,
      "chip": "ym2612"
    },
    {
      "channel": 1,
      "note": 63,
      "start": 10.551,
      "duration": 0.0144,
      "velocity": 89,
      "chip": "ym2612"
    },
    {
      "channel": 2,
      "note": 63,
      "start": 10.5517,
      "duration": 0.0144,
      "velocity": 89,
      "chip": "ym2612"
    },
    {
      "channel": 0,
      "note": 51,
      "start": 10.5648,
      "duration": 0.0143,
      "velocity": 95,
      "chip": "ym2612"
    },
    {
      "channel": 1,
      "note": 63,
      "start": 10.5655,
      "duration": 0.0142,
      "velocity": 89,
      "chip": "ym2612"
    },
    {
      "channel": 2,
      "note": 63,
      "start": 10.5661,
      "duration": 0.0141,
      "velocity": 89,
      "chip": "ym2612"
    },
    {
      "channel": 0,
      "note": 51,
      "start": 10.5791,
      "duration": 0.0146,
      "velocity": 95,
      "chip": "ym2612"
    },
    {
      "channel": 1,
      "note": 63,
      "start": 10.5796,
      "duration": 0.0147,
      "velocity": 89,
      "chip": "ym2612"
    },
    {
      "channel": 2,
      "note": 63,
      "start": 10.5802,
      "duration": 0.0146,
      "velocity": 89,
      "chip": "ym2612"
    },
    {
      "channel": 0,
      "note": 51,
      "start": 10.5937,
      "duration": 0.0145,
      "velocity": 95,
      "chip": "ym2612"
    },
    {
      "channel": 1,
      "note": 63,
      "start": 10.5943,
      "duration": 0.0144,
      "velocity": 89,
      "chip": "ym2612"
    },
    {
      "channel": 2,
      "note": 63,
      "start": 10.5948,
      "duration": 0.0146,
      "velocity": 89,
      "chip": "ym2612"
    },
    {
      "channel": 0,
      "note": 51,
      "start": 10.6082,
      "duration": 0.0144,
      "velocity": 95,
      "chip": "ym2612"
    },
    {
      "channel": 1,
      "note": 63,
      "start": 10.6088,
      "duration": 0.0144,
      "velocity": 89,
      "chip": "ym2612"
    },
    {
      "channel": 2,
      "note": 63,
      "start": 10.6094,
      "duration": 0.0144,
      "velocity": 89,
      "chip": "ym2612"
    },
    {
      "channel": 0,
      "note": 51,
      "start": 10.6227,
      "duration": 0.0142,
      "velocity": 95,
      "chip": "ym2612"
    },
    {
      "channel": 1,
      "note": 63,
      "start": 10.6232,
      "duration": 0.0142,
      "velocity": 89,
      "chip": "ym2612"
    },
    {
      "channel": 2,
      "note": 63,
      "start": 10.6239,
      "duration": 0.0142,
      "velocity": 89,
      "chip": "ym2612"
    },
    {
      "channel": 0,
      "note": 51,
      "start": 10.6369,
      "duration": 0.0146,
      "velocity": 95,
      "chip": "ym2612"
    },
    {
      "channel": 1,
      "note": 63,
      "start": 10.6374,
      "duration": 0.0148,
      "velocity": 89,
      "chip": "ym2612"
    },
    {
      "channel": 2,
      "note": 63,
      "start": 10.638,
      "duration": 0.0147,
      "velocity": 89,
      "chip": "ym2612"
    },
    {
      "channel": 0,
      "note": 51,
      "start": 10.6515,
      "duration": 0.0144,
      "velocity": 95,
      "chip": "ym2612"
    },
    {
      "channel": 1,
      "note": 63,
      "start": 10.6522,
      "duration": 0.0144,
      "velocity": 89,
      "chip": "ym2612"
    },
    {
      "channel": 2,
      "note": 63,
      "start": 10.6528,
      "duration": 0.0143,
      "velocity": 89,
      "chip": "ym2612"
    },
    {
      "channel": 0,
      "note": 51,
      "start": 10.666,
      "duration": 0.0144,
      "velocity": 95,
      "chip": "ym2612"
    },
    {
      "channel": 1,
      "note": 63,
      "start": 10.6666,
      "duration": 0.0144,
      "velocity": 89,
      "chip": "ym2612"
    },
    {
      "channel": 2,
      "note": 63,
      "start": 10.6671,
      "duration": 0.0146,
      "velocity": 89,
      "chip": "ym2612"
    },
    {
      "channel": 0,
      "note": 51,
      "start": 10.6804,
      "duration": 0.0142,
      "velocity": 95,
      "chip": "ym2612"
    },
    {
      "channel": 1,
      "note": 63,
      "start": 10.681,
      "duration": 0.0143,
      "velocity": 89,
      "chip": "ym2612"
    },
    {
      "channel": 2,
      "note": 63,
      "start": 10.6817,
      "duration": 0.0146,
      "velocity": 89,
      "chip": "ym2612"
    },
    {
      "channel": 0,
      "note": 51,
      "start": 10.695,
      "duration": 0.3161,
      "velocity": 95,
      "chip": "ym2612"
    },
    {
      "channel": 1,
      "note": 65,
      "start": 10.6958,
      "duration": 0.1995,
      "velocity": 89,
      "chip": "ym2612"
    },
    {
      "channel": 2,
      "note": 63,
      "start": 10.6962,
      "duration": 0.0041,
      "velocity": 89,
      "chip": "ym2612"
    },
    {
      "channel": 3,
      "note": 80,
      "start": 10.6969,
      "duration": 1.9879,
      "velocity": 99,
      "chip": "ym2612"
    },
    {
      "channel": 2,
      "note": 63,
      "start": 10.7003,
      "duration": 0.0028,
      "velocity": 89,
      "chip": "ym2612"
    },
    {
      "channel": 2,
      "note": 63,
      "start": 10.7031,
      "duration": 0.0051,
      "velocity": 89,
      "chip": "ym2612"
    },
    {
      "channel": 2,
      "note": 63,
      "start": 10.7082,
      "duration": 0.0144,
      "velocity": 89,
      "chip": "ym2612"
    },
    {
      "channel": 2,
      "note": 63,
      "start": 10.7226,
      "duration": 0.0144,
      "velocity": 89,
      "chip": "ym2612"
    },
    {
      "channel": 2,
      "note": 63,
      "start": 10.7371,
      "duration": 0.0144,
      "velocity": 89,
      "chip": "ym2612"
    },
    {
      "channel": 2,
      "note": 63,
      "start": 10.7515,
      "duration": 0.0143,
      "velocity": 89,
      "chip": "ym2612"
    },
    {
      "channel": 2,
      "note": 63,
      "start": 10.7658,
      "duration": 0.0146,
      "velocity": 89,
      "chip": "ym2612"
    },
    {
      "channel": 2,
      "note": 63,
      "start": 10.7804,
      "duration": 0.0144,
      "velocity": 89,
      "chip": "ym2612"
    },
    {
      "channel": 2,
      "note": 63,
      "start": 10.7948,
      "duration": 0.0145,
      "velocity": 89,
      "chip": "ym2612"
    },
    {
      "channel": 2,
      "note": 63,
      "start": 10.8093,
      "duration": 0.0142,
      "velocity": 89,
      "chip": "ym2612"
    },
    {
      "channel": 2,
      "note": 63,
      "start": 10.8236,
      "duration": 0.0146,
      "velocity": 89,
      "chip": "ym2612"
    },
    {
      "channel": 2,
      "note": 63,
      "start": 10.8382,
      "duration": 0.0144,
      "velocity": 89,
      "chip": "ym2612"
    },
    {
      "channel": 2,
      "note": 63,
      "start": 10.8526,
      "duration": 0.0144,
      "velocity": 89,
      "chip": "ym2612"
    },
    {
      "channel": 2,
      "note": 63,
      "start": 10.8671,
      "duration": 0.0144,
      "velocity": 89,
      "chip": "ym2612"
    },
    {
      "channel": 2,
      "note": 63,
      "start": 10.8815,
      "duration": 0.0146,
      "velocity": 89,
      "chip": "ym2612"
    },
    {
      "channel": 1,
      "note": 68,
      "start": 10.8958,
      "duration": 0.231,
      "velocity": 89,
      "chip": "ym2612"
    },
    {
      "channel": 2,
      "note": 63,
      "start": 10.8961,
      "duration": 0.0143,
      "velocity": 89,
      "chip": "ym2612"
    },
    {
      "channel": 2,
      "note": 63,
      "start": 10.9104,
      "duration": 0.0144,
      "velocity": 89,
      "chip": "ym2612"
    },
    {
      "channel": 2,
      "note": 63,
      "start": 10.9248,
      "duration": 0.0144,
      "velocity": 89,
      "chip": "ym2612"
    },
    {
      "channel": 2,
      "note": 63,
      "start": 10.9393,
      "duration": 0.0143,
      "velocity": 89,
      "chip": "ym2612"
    },
    {
      "channel": 2,
      "note": 63,
      "start": 10.9536,
      "duration": 0.0146,
      "velocity": 89,
      "chip": "ym2612"
    },
    {
      "channel": 2,
      "note": 63,
      "start": 10.9682,
      "duration": 0.0145,
      "velocity": 89,
      "chip": "ym2612"
    },
    {
      "channel": 2,
      "note": 63,
      "start": 10.9827,
      "duration": 0.0144,
      "velocity": 89,
      "chip": "ym2612"
    },
    {
      "channel": 2,
      "note": 63,
      "start": 10.9971,
      "duration": 0.0148,
      "velocity": 89,
      "chip": "ym2612"
    },
    {
      "channel": 0,
      "note": 51,
      "start": 11.011,
      "duration": 0.0142,
      "velocity": 95,
      "chip": "ym2612"
    },
    {
      "channel": 2,
      "note": 63,
      "start": 11.0119,
      "duration": 0.0141,
      "velocity": 89,
      "chip": "ym2612"
    },
    {
      "channel": 4,
      "note": 80,
      "start": 11.013,
      "duration": 1.9887,
      "velocity": 99,
      "chip": "ym2612"
    },
    {
      "channel": 0,
      "note": 51,
      "start": 11.0253,
      "duration": 0.0146,
      "velocity": 95,
      "chip": "ym2612"
    },
    {
      "channel": 2,
      "note": 63,
      "start": 11.0261,
      "duration": 0.0147,
      "velocity": 89,
      "chip": "ym2612"
    },
    {
      "channel": 0,
      "note": 51,
      "start": 11.0398,
      "duration": 0.0144,
      "velocity": 95,
      "chip": "ym2612"
    },
    {
      "channel": 2,
      "note": 63,
      "start": 11.0407,
      "duration": 0.0144,
      "velocity": 89,
      "chip": "ym2612"
    },
    {
      "channel": 0,
      "note": 51,
      "start": 11.0543,
      "duration": 0.0145,
      "velocity": 95,
      "chip": "ym2612"
    },
    {
      "channel": 2,
      "note": 63,
      "start": 11.0552,
      "duration": 0.0145,
      "velocity": 89,
      "chip": "ym2612"
    },
    {
      "channel": 0,
      "note": 51,
      "start": 11.0688,
      "duration": 0.0143,
      "velocity": 95,
      "chip": "ym2612"
    },
    {
      "channel": 2,
      "note": 63,
      "start": 11.0697,
      "duration": 0.0141,
      "velocity": 89,
      "chip": "ym2612"
    },
    {
      "channel": 0,
      "note": 51,
      "start": 11.0831,
      "duration": 0.0146,
      "velocity": 95,
      "chip": "ym2612"
    },
    {
      "channel": 2,
      "note": 63,
      "start": 11.0838,
      "duration": 0.0148,
      "velocity": 89,
      "chip": "ym2612"
    },
    {
      "channel": 0,
      "note": 51,
      "start": 11.0977,
      "duration": 0.0144,
      "velocity": 95,
      "chip": "ym2612"
    },
    {
      "channel": 2,
      "note": 63,
      "start": 11.0986,
      "duration": 0.0144,
      "velocity": 89,
      "chip": "ym2612"
    },
    {
      "channel": 0,
      "note": 51,
      "start": 11.1121,
      "duration": 0.0144,
      "velocity": 95,
      "chip": "ym2612"
    },
    {
      "channel": 2,
      "note": 63,
      "start": 11.113,
      "duration": 0.0146,
      "velocity": 89,
      "chip": "ym2612"
    },
    {
      "channel": 0,
      "note": 51,
      "start": 11.1266,
      "duration": 0.0144,
      "velocity": 95,
      "chip": "ym2612"
    },
    {
      "channel": 1,
      "note": 70,
      "start": 11.1272,
      "duration": 0.2308,
      "velocity": 89,
      "chip": "ym2612"
    },
    {
      "channel": 2,
      "note": 63,
      "start": 11.1276,
      "duration": 0.0142,
      "velocity": 89,
      "chip": "ym2612"
    },
    {
      "channel": 0,
      "note": 51,
      "start": 11.141,
      "duration": 0.0143,
      "velocity": 95,
      "chip": "ym2612"
    },
    {
      "channel": 2,
      "note": 63,
      "start": 11.1419,
      "duration": 0.0141,
      "velocity": 89,
      "chip": "ym2612"
    },
    {
      "channel": 0,
      "note": 51,
      "start": 11.1553,
      "duration": 0.0146,
      "velocity": 95,
      "chip": "ym2612"
    },
    {
      "channel": 2,
      "note": 63,
      "start": 11.156,
      "duration": 0.0148,
      "velocity": 89,
      "chip": "ym2612"
    },
    {
      "channel": 0,
      "note": 51,
      "start": 11.1699,
      "duration": 0.0144,
      "velocity": 95,
      "chip": "ym2612"
    },
    {
      "channel": 2,
      "note": 63,
      "start": 11.1708,
      "duration": 0.0144,
      "velocity": 89,
      "chip": "ym2612"
    },
    {
      "channel": 0,
      "note": 51,
      "start": 11.1843,
      "duration": 0.0145,
      "velocity": 95,
      "chip": "ym2612"
    },
    {
      "channel": 2,
      "note": 63,
      "start": 11.1852,
      "duration": 0.0144,
      "velocity": 89,
      "chip": "ym2612"
    },
    {
      "channel": 0,
      "note": 51,
      "start": 11.1988,
      "duration": 0.0143,
      "velocity": 95,
      "chip": "ym2612"
    },
    {
      "channel": 2,
      "note": 63,
      "start": 11.1996,
      "duration": 0.0142,
      "velocity": 89,
      "chip": "ym2612"
    },
    {
      "channel": 0,
      "note": 51,
      "start": 11.2131,
      "duration": 0.0146,
      "velocity": 95,
      "chip": "ym2612"
    },
    {
      "channel": 2,
      "note": 63,
      "start": 11.2138,
      "duration": 0.0148,
      "velocity": 89,
      "chip": "ym2612"
    },
    {
      "channel": 0,
      "note": 51,
      "start": 11.2277,
      "duration": 0.0144,
      "velocity": 95,
      "chip": "ym2612"
    },
    {
      "channel": 2,
      "note": 63,
      "start": 11.2286,
      "duration": 0.0144,
      "velocity": 89,
      "chip": "ym2612"
    },
    {
      "channel": 0,
      "note": 51,
      "start": 11.2421,
      "duration": 0.0144,
      "velocity": 95,
      "chip": "ym2612"
    },
    {
      "channel": 2,
      "note": 63,
      "start": 11.243,
      "duration": 0.0144,
      "velocity": 89,
      "chip": "ym2612"
    },
    {
      "channel": 0,
      "note": 51,
      "start": 11.2566,
      "duration": 0.0144,
      "velocity": 95,
      "chip": "ym2612"
    },
    {
      "channel": 2,
      "note": 63,
      "start": 11.2575,
      "duration": 0.0144,
      "velocity": 89,
      "chip": "ym2612"
    },
    {
      "channel": 0,
      "note": 51,
      "start": 11.271,
      "duration": 0.0142,
      "velocity": 95,
      "chip": "ym2612"
    },
    {
      "channel": 2,
      "note": 63,
      "start": 11.2719,
      "duration": 0.0141,
      "velocity": 89,
      "chip": "ym2612"
    },
    {
      "channel": 0,
      "note": 51,
      "start": 11.2853,
      "duration": 0.0146,
      "velocity": 95,
      "chip": "ym2612"
    },
    {
      "channel": 2,
      "note": 63,
      "start": 11.286,
      "duration": 0.0148,
      "velocity": 89,
      "chip": "ym2612"
    },
    {
      "channel": 0,
      "note": 51,
      "start": 11.2999,
      "duration": 0.0144,
      "velocity": 95,
      "chip": "ym2612"
    },
    {
      "channel": 2,
      "note": 63,
      "start": 11.3008,
      "duration": 0.0144,
      "velocity": 89,
      "chip": "ym2612"
    },
    {
      "channel": 0,
      "note": 51,
      "start": 11.3143,
      "duration": 0.0144,
      "velocity": 95,
      "chip": "ym2612"
    },
    {
      "channel": 2,
      "note": 63,
      "start": 11.3152,
      "duration": 0.0144,
      "velocity": 89,
      "chip": "ym2612"
    },
    {
      "channel": 0,
      "note": 51,
      "start": 11.3288,
      "duration": 0.0143,
      "velocity": 95,
      "chip": "ym2612"
    },
    {
      "channel": 2,
      "note": 63,
      "start": 11.3297,
      "duration": 0.0141,
      "velocity": 89,
      "chip": "ym2612"
    },
    {
      "channel": 0,
      "note": 51,
      "start": 11.3431,
      "duration": 0.0143,
      "velocity": 95,
      "chip": "ym2612"
    },
    {
      "channel": 2,
      "note": 63,
      "start": 11.3438,
      "duration": 0.0151,
      "velocity": 89,
      "chip": "ym2612"
    },
    {
      "channel": 0,
      "note": 51,
      "start": 11.3578,
      "duration": 0.3159,
      "velocity": 95,
      "chip": "ym2612"
    },
    {
      "channel": 1,
      "note": 73,
      "start": 11.3584,
      "duration": 0.3159,
      "velocity": 89,
      "chip": "ym2612"
    },
    {
      "channel": 2,
      "note": 63,
      "start": 11.3589,
      "duration": 0.0035,
      "velocity": 89,
      "chip": "ym2612"
    },
    {
      "channel": 2,
      "note": 63,
      "start": 11.3625,
      "duration": 0.003,
      "velocity": 89,
      "chip": "ym2612"
    },
    {
      "channel": 2,
      "note": 63,
      "start": 11.3655,
      "duration": 0.0055,
      "velocity": 89,
      "chip": "ym2612"
    },
    {
      "channel": 2,
      "note": 63,
      "start": 11.371,
      "duration": 0.0143,
      "velocity": 89,
      "chip": "ym2612"
    },
    {
      "channel": 2,
      "note": 63,
      "start": 11.3853,
      "duration": 0.0146,
      "velocity": 89,
      "chip": "ym2612"
    },
    {
      "channel": 2,
      "note": 63,
      "start": 11.3998,
      "duration": 0.0144,
      "velocity": 89,
      "chip": "ym2612"
    },
    {
      "channel": 2,
      "note": 63,
      "start": 11.4143,
      "duration": 0.0144,
      "velocity": 89,
      "chip": "ym2612"
    },
    {
      "channel": 2,
      "note": 63,
      "start": 11.4287,
      "duration": 0.0143,
      "velocity": 89,
      "chip": "ym2612"
    },
    {
      "channel": 2,
      "note": 63,
      "start": 11.443,
      "duration": 0.0146,
      "velocity": 89,
      "chip": "ym2612"
    },
    {
      "channel": 2,
      "note": 63,
      "start": 11.4576,
      "duration": 0.0145,
      "velocity": 89,
      "chip": "ym2612"
    },
    {
      "channel": 2,
      "note": 63,
      "start": 11.4721,
      "duration": 0.0144,
      "velocity": 89,
      "chip": "ym2612"
    },
    {
      "channel": 2,
      "note": 63,
      "start": 11.4865,
      "duration": 0.0144,
      "velocity": 89,
      "chip": "ym2612"
    },
    {
      "channel": 2,
      "note": 63,
      "start": 11.501,
      "duration": 0.0143,
      "velocity": 89,
      "chip": "ym2612"
    },
    {
      "channel": 2,
      "note": 63,
      "start": 11.5153,
      "duration": 0.0146,
      "velocity": 89,
      "chip": "ym2612"
    },
    {
      "channel": 2,
      "note": 63,
      "start": 11.5298,
      "duration": 0.0144,
      "velocity": 89,
      "chip": "ym2612"
    },
    {
      "channel": 2,
      "note": 63,
      "start": 11.5443,
      "duration": 0.0144,
      "velocity": 89,
      "chip": "ym2612"
    },
    {
      "channel": 2,
      "note": 63,
      "start": 11.5587,
      "duration": 0.0143,
      "velocity": 89,
      "chip": "ym2612"
    },
    {
      "channel": 2,
      "note": 63,
      "start": 11.573,
      "duration": 0.0146,
      "velocity": 89,
      "chip": "ym2612"
    },
    {
      "channel": 2,
      "note": 63,
      "start": 11.5876,
      "duration": 0.0144,
      "velocity": 89,
      "chip": "ym2612"
    },
    {
      "channel": 2,
      "note": 63,
      "start": 11.602,
      "duration": 0.0144,
      "velocity": 89,
      "chip": "ym2612"
    },
    {
      "channel": 2,
      "note": 63,
      "start": 11.6165,
      "duration": 0.0145,
      "velocity": 89,
      "chip": "ym2612"
    },
    {
      "channel": 2,
      "note": 63,
      "start": 11.631,
      "duration": 0.0142,
      "velocity": 89,
      "chip": "ym2612"
    },
    {
      "channel": 2,
      "note": 63,
      "start": 11.6452,
      "duration": 0.0146,
      "velocity": 89,
      "chip": "ym2612"
    },
    {
      "channel": 2,
      "note": 63,
      "start": 11.6599,
      "duration": 0.0151,
      "velocity": 89,
      "chip": "ym2612"
    },
    {
      "channel": 0,
      "note": 51,
      "start": 11.6737,
      "duration": 0.0145,
      "velocity": 95,
      "chip": "ym2612"
    },
    {
      "channel": 1,
      "note": 73,
      "start": 11.6744,
      "duration": 0.0143,
      "velocity": 89,
      "chip": "ym2612"
    },
    {
      "channel": 2,
      "note": 63,
      "start": 11.675,
      "duration": 0.0143,
      "velocity": 89,
      "chip": "ym2612"
    },
    {
      "channel": 0,
      "note": 51,
      "start": 11.6883,
      "duration": 0.0146,
      "velocity": 95,
      "chip": "ym2612"
    },
    {
      "channel": 1,
      "note": 73,
      "start": 11.6887,
      "duration": 0.0148,
      "velocity": 89,
      "chip": "ym2612"
    },
    {
      "channel": 2,
      "note": 63,
      "start": 11.6893,
      "duration": 0.0146,
      "velocity": 89,
      "chip": "ym2612"
    },
    {
      "channel": 0,
      "note": 51,
      "start": 11.7029,
      "duration": 0.0142,
      "velocity": 95,
      "chip": "ym2612"
    },
    {
      "channel": 1,
      "note": 73,
      "start": 11.7035,
      "duration": 0.0142,
      "velocity": 89,
      "chip": "ym2612"
    },
    {
      "channel": 2,
      "note": 63,
      "start": 11.704,
      "duration": 0.0144,
      "velocity": 89,
      "chip": "ym2612"
    },
    {
      "channel": 0,
      "note": 51,
      "start": 11.7171,
      "duration": 0.0144,
      "velocity": 95,
      "chip": "ym2612"
    },
    {
      "channel": 1,
      "note": 73,
      "start": 11.7178,
      "duration": 0.0144,
      "velocity": 89,
      "chip": "ym2612"
    },
    {
      "channel": 2,
      "note": 63,
      "start": 11.7183,
      "duration": 0.0144,
      "velocity": 89,
      "chip": "ym2612"
    },
    {
      "channel": 0,
      "note": 51,
      "start": 11.7316,
      "duration": 0.0144,
      "velocity": 95,
      "chip": "ym2612"
    },
    {
      "channel": 1,
      "note": 73,
      "start": 11.7322,
      "duration": 0.0143,
      "velocity": 89,
      "chip": "ym2612"
    },
    {
      "channel": 2,
      "note": 63,
      "start": 11.7328,
      "duration": 0.0144,
      "velocity": 89,
      "chip": "ym2612"
    },
    {
      "channel": 0,
      "note": 51,
      "start": 11.746,
      "duration": 0.0143,
      "velocity": 95,
      "chip": "ym2612"
    },
    {
      "channel": 1,
      "note": 73,
      "start": 11.7465,
      "duration": 0.0144,
      "velocity": 89,
      "chip": "ym2612"
    },
    {
      "channel": 2,
      "note": 63,
      "start": 11.7471,
      "duration": 0.0144,
      "velocity": 89,
      "chip": "ym2612"
    },
    {
      "channel": 0,
      "note": 51,
      "start": 11.7603,
      "duration": 0.0146,
      "velocity": 95,
      "chip": "ym2612"
    },
    {
      "channel": 1,
      "note": 73,
      "start": 11.761,
      "duration": 0.0146,
      "velocity": 89,
      "chip": "ym2612"
    },
    {
      "channel": 2,
      "note": 63,
      "start": 11.7615,
      "duration": 0.0144,
      "velocity": 89,
      "chip": "ym2612"
    },
    {
      "channel": 0,
      "note": 51,
      "start": 11.7749,
      "duration": 0.0144,
      "velocity": 95,
      "chip": "ym2612"
    },
    {
      "channel": 1,
      "note": 73,
      "start": 11.7755,
      "duration": 0.0144,
      "velocity": 89,
      "chip": "ym2612"
    },
    {
      "channel": 2,
      "note": 63,
      "start": 11.776,
      "duration": 0.0146,
      "velocity": 89,
      "chip": "ym2612"
    },
    {
      "channel": 0,
      "note": 51,
      "start": 11.7893,
      "duration": 0.0145,
      "velocity": 95,
      "chip": "ym2612"
    },
    {
      "channel": 1,
      "note": 73,
      "start": 11.79,
      "duration": 0.0144,
      "velocity": 89,
      "chip": "ym2612"
    },
    {
      "channel": 2,
      "note": 63,
      "start": 11.7906,
      "duration": 0.0144,
      "velocity": 89,
      "chip": "ym2612"
    },
    {
      "channel": 0,
      "note": 51,
      "start": 11.8038,
      "duration": 0.0144,
      "velocity": 95,
      "chip": "ym2612"
    },
    {
      "channel": 1,
      "note": 73,
      "start": 11.8044,
      "duration": 0.0143,
      "velocity": 89,
      "chip": "ym2612"
    },
    {
      "channel": 2,
      "note": 63,
      "start": 11.805,
      "duration": 0.0143,
      "velocity": 89,
      "chip": "ym2612"
    },
    {
      "channel": 0,
      "note": 51,
      "start": 11.8183,
      "duration": 0.0142,
      "velocity": 95,
      "chip": "ym2612"
    },
    {
      "channel": 1,
      "note": 73,
      "start": 11.8187,
      "duration": 0.0144,
      "velocity": 89,
      "chip": "ym2612"
    },
    {
      "channel": 2,
      "note": 63,
      "start": 11.8193,
      "duration": 0.0143,
      "velocity": 89,
      "chip": "ym2612"
    },
    {
      "channel": 0,
      "note": 51,
      "start": 11.8325,
      "duration": 0.0146,
      "velocity": 95,
      "chip": "ym2612"
    },
    {
      "channel": 1,
      "note": 73,
      "start": 11.8332,
      "duration": 0.0146,
      "velocity": 89,
      "chip": "ym2612"
    },
    {
      "channel": 2,
      "note": 63,
      "start": 11.8336,
      "duration": 0.0148,
      "velocity": 89,
      "chip": "ym2612"
    },
    {
      "channel": 0,
      "note": 51,
      "start": 11.8471,
      "duration": 0.0144,
      "velocity": 95,
      "chip": "ym2612"
    },
    {
      "channel": 1,
      "note": 73,
      "start": 11.8477,
      "duration": 0.0144,
      "velocity": 89,
      "chip": "ym2612"
    },
    {
      "channel": 2,
      "note": 63,
      "start": 11.8484,
      "duration": 0.0144,
      "velocity": 89,
      "chip": "ym2612"
    },
    {
      "channel": 0,
      "note": 51,
      "start": 11.8616,
      "duration": 0.0144,
      "velocity": 95,
      "chip": "ym2612"
    },
    {
      "channel": 1,
      "note": 73,
      "start": 11.8622,
      "duration": 0.0143,
      "velocity": 89,
      "chip": "ym2612"
    },
    {
      "channel": 2,
      "note": 63,
      "start": 11.8628,
      "duration": 0.0143,
      "velocity": 89,
      "chip": "ym2612"
    },
    {
      "channel": 0,
      "note": 51,
      "start": 11.876,
      "duration": 0.0143,
      "velocity": 95,
      "chip": "ym2612"
    },
    {
      "channel": 1,
      "note": 73,
      "start": 11.8765,
      "duration": 0.0144,
      "velocity": 89,
      "chip": "ym2612"
    },
    {
      "channel": 2,
      "note": 63,
      "start": 11.8771,
      "duration": 0.0144,
      "velocity": 89,
      "chip": "ym2612"
    },
    {
      "channel": 0,
      "note": 51,
      "start": 11.8903,
      "duration": 0.0146,
      "velocity": 95,
      "chip": "ym2612"
    },
    {
      "channel": 1,
      "note": 73,
      "start": 11.8909,
      "duration": 0.0146,
      "velocity": 89,
      "chip": "ym2612"
    },
    {
      "channel": 2,
      "note": 63,
      "start": 11.8916,
      "duration": 0.0144,
      "velocity": 89,
      "chip": "ym2612"
    },
    {
      "channel": 0,
      "note": 51,
      "start": 11.9049,
      "duration": 0.0144,
      "velocity": 95,
      "chip": "ym2612"
    },
    {
      "channel": 1,
      "note": 73,
      "start": 11.9056,
      "duration": 0.0144,
      "velocity": 89,
      "chip": "ym2612"
    },
    {
      "channel": 2,
      "note": 63,
      "start": 11.906,
      "duration": 0.0146,
      "velocity": 89,
      "chip": "ym2612"
    },
    {
      "channel": 0,
      "note": 51,
      "start": 11.9193,
      "duration": 0.0145,
      "velocity": 95,
      "chip": "ym2612"
    },
    {
      "channel": 1,
      "note": 73,
      "start": 11.92,
      "duration": 0.0144,
      "velocity": 89,
      "chip": "ym2612"
    },
    {
      "channel": 2,
      "note": 63,
      "start": 11.9206,
      "duration": 0.0144,
      "velocity": 89,
      "chip": "ym2612"
    },
    {
      "channel": 0,
      "note": 51,
      "start": 11.9339,
      "duration": 0.0144,
      "velocity": 95,
      "chip": "ym2612"
    },
    {
      "channel": 1,
      "note": 73,
      "start": 11.9344,
      "duration": 0.0143,
      "velocity": 89,
      "chip": "ym2612"
    },
    {
      "channel": 2,
      "note": 63,
      "start": 11.9351,
      "duration": 0.0143,
      "velocity": 89,
      "chip": "ym2612"
    },
    {
      "channel": 0,
      "note": 51,
      "start": 11.9483,
      "duration": 0.0142,
      "velocity": 95,
      "chip": "ym2612"
    },
    {
      "channel": 1,
      "note": 73,
      "start": 11.9488,
      "duration": 0.0144,
      "velocity": 89,
      "chip": "ym2612"
    },
    {
      "channel": 2,
      "note": 63,
      "start": 11.9494,
      "duration": 0.0142,
      "velocity": 89,
      "chip": "ym2612"
    },
    {
      "channel": 0,
      "note": 51,
      "start": 11.9625,
      "duration": 0.0146,
      "velocity": 95,
      "chip": "ym2612"
    },
    {
      "channel": 1,
      "note": 73,
      "start": 11.9631,
      "duration": 0.0146,
      "velocity": 89,
      "chip": "ym2612"
    },
    {
      "channel": 2,
      "note": 63,
      "start": 11.9636,
      "duration": 0.0148,
      "velocity": 89,
      "chip": "ym2612"
    },
    {
      "channel": 0,
      "note": 51,
      "start": 11.9772,
      "duration": 0.0144,
      "velocity": 95,
      "chip": "ym2612"
    },
    {
      "channel": 1,
      "note": 73,
      "start": 11.9778,
      "duration": 0.0144,
      "velocity": 89,
      "chip": "ym2612"
    },
    {
      "channel": 2,
      "note": 63,
      "start": 11.9784,
      "duration": 0.0144,
      "velocity": 89,
      "chip": "ym2612"
    },
    {
      "channel": 0,
      "note": 51,
      "start": 11.9916,
      "duration": 0.0144,
      "velocity": 95,
      "chip": "ym2612"
    },
    {
      "channel": 1,
      "note": 73,
      "start": 11.9922,
      "duration": 0.0143,
      "velocity": 89,
      "chip": "ym2612"
    },
    {
      "channel": 2,
      "note": 63,
      "start": 11.9928,
      "duration": 0.0142,
      "velocity": 89,
      "chip": "ym2612"
    },
    {
      "channel": 0,
      "note": 51,
      "start": 12.006,
      "duration": 0.0141,
      "velocity": 95,
      "chip": "ym2612"
    },
    {
      "channel": 1,
      "note": 73,
      "start": 12.0065,
      "duration": 0.0145,
      "velocity": 89,
      "chip": "ym2612"
    },
    {
      "channel": 2,
      "note": 63,
      "start": 12.0071,
      "duration": 0.0143,
      "velocity": 89,
      "chip": "ym2612"
    },
    {
      "channel": 0,
      "note": 51,
      "start": 12.0206,
      "duration": 0.3162,
      "velocity": 95,
      "chip": "ym2612"
    },
    {
      "channel": 1,
      "note": 73,
      "start": 12.021,
      "duration": 0.0039,
      "velocity": 89,
      "chip": "ym2612"
    },
    {
      "channel": 2,
      "note": 65,
      "start": 12.0218,
      "duration": 0.1997,
      "velocity": 89,
      "chip": "ym2612"
    },
    {
      "channel": 1,
      "note": 73,
      "start": 12.0249,
      "duration": 0.0026,
      "velocity": 89,
      "chip": "ym2612"
    },
    {
      "channel": 1,
      "note": 73,
      "start": 12.0275,
      "duration": 0.006,
      "velocity": 89,
      "chip": "ym2612"
    },
    {
      "channel": 1,
      "note": 73,
      "start": 12.0335,
      "duration": 0.0143,
      "velocity": 89,
      "chip": "ym2612"
    },
    {
      "channel": 1,
      "note": 73,
      "start": 12.0478,
      "duration": 0.0146,
      "velocity": 89,
      "chip": "ym2612"
    },
    {
      "channel": 1,
      "note": 73,
      "start": 12.0624,
      "duration": 0.0144,
      "velocity": 89,
      "chip": "ym2612"
    },
    {
      "channel": 1,
      "note": 73,
      "start": 12.0768,
      "duration": 0.0145,
      "velocity": 89,
      "chip": "ym2612"
    },
    {
      "channel": 1,
      "note": 73,
      "start": 12.0913,
      "duration": 0.0142,
      "velocity": 89,
      "chip": "ym2612"
    },
    {
      "channel": 1,
      "note": 73,
      "start": 12.1056,
      "duration": 0.0146,
      "velocity": 89,
      "chip": "ym2612"
    },
    {
      "channel": 1,
      "note": 73,
      "start": 12.1202,
      "duration": 0.0144,
      "velocity": 89,
      "chip": "ym2612"
    },
    {
      "channel": 1,
      "note": 73,
      "start": 12.1346,
      "duration": 0.0144,
      "velocity": 89,
      "chip": "ym2612"
    },
    {
      "channel": 1,
      "note": 73,
      "start": 12.1491,
      "duration": 0.0144,
      "velocity": 89,
      "chip": "ym2612"
    },
    {
      "channel": 1,
      "note": 73,
      "start": 12.1635,
      "duration": 0.0143,
      "velocity": 89,
      "chip": "ym2612"
    },
    {
      "channel": 1,
      "note": 73,
      "start": 12.1778,
      "duration": 0.0146,
      "velocity": 89,
      "chip": "ym2612"
    },
    {
      "channel": 1,
      "note": 73,
      "start": 12.1924,
      "duration": 0.0144,
      "velocity": 89,
      "chip": "ym2612"
    },
    {
      "channel": 1,
      "note": 73,
      "start": 12.2068,
      "duration": 0.0144,
      "velocity": 89,
      "chip": "ym2612"
    },
    {
      "channel": 1,
      "note": 73,
      "start": 12.2213,
      "duration": 0.0143,
      "velocity": 89,
      "chip": "ym2612"
    },
    {
      "channel": 2,
      "note": 68,
      "start": 12.222,
      "duration": 0.231,
      "velocity": 89,
      "chip": "ym2612"
    },
    {
      "channel": 1,
      "note": 73,
      "start": 12.2356,
      "duration": 0.0146,
      "velocity": 89,
      "chip": "ym2612"
    },
    {
      "channel": 1,
      "note": 73,
      "start": 12.2502,
      "duration": 0.0144,
      "velocity": 89,
      "chip": "ym2612"
    },
    {
      "channel": 1,
      "note": 73,
      "start": 12.2646,
      "duration": 0.0144,
      "velocity": 89,
      "chip": "ym2612"
    },
    {
      "channel": 1,
      "note": 73,
      "start": 12.2791,
      "duration": 0.0144,
      "velocity": 89,
      "chip": "ym2612"
    },
    {
      "channel": 1,
      "note": 73,
      "start": 12.2935,
      "duration": 0.0143,
      "velocity": 89,
      "chip": "ym2612"
    },
    {
      "channel": 1,
      "note": 73,
      "start": 12.3078,
      "duration": 0.0146,
      "velocity": 89,
      "chip": "ym2612"
    },
    {
      "channel": 1,
      "note": 73,
      "start": 12.3224,
      "duration": 0.015,
      "velocity": 89,
      "chip": "ym2612"
    },
    {
      "channel": 0,
      "note": 51,
      "start": 12.3368,
      "duration": 0.0142,
      "velocity": 95,
      "chip": "ym2612"
    },
    {
      "channel": 1,
      "note": 73,
      "start": 12.3374,
      "duration": 0.0142,
      "velocity": 89,
      "chip": "ym2612"
    },
    {
      "channel": 0,
      "note": 51,
      "start": 12.351,
      "duration": 0.0143,
      "velocity": 95,
      "chip": "ym2612"
    },
    {
      "channel": 1,
      "note": 73,
      "start": 12.3517,
      "duration": 0.0141,
      "velocity": 89,
      "chip": "ym2612"
    },
    {
      "channel": 0,
      "note": 51,
      "start": 12.3654,
      "duration": 0.0146,
      "velocity": 95,
      "chip": "ym2612"
    },
    {
      "channel": 1,
      "note": 73,
      "start": 12.3658,
      "duration": 0.0148,
      "velocity": 89,
      "chip": "ym2612"
    },
    {
      "channel": 0,
      "note": 51,
      "start": 12.3799,
      "duration": 0.0144,
      "velocity": 95,
      "chip": "ym2612"
    },
    {
      "channel": 1,
      "note": 73,
      "start": 12.3806,
      "duration": 0.0144,
      "velocity": 89,
      "chip": "ym2612"
    },
    {
      "channel": 0,
      "note": 51,
      "start": 12.3944,
      "duration": 0.0145,
      "velocity": 95,
      "chip": "ym2612"
    },
    {
      "channel": 1,
      "note": 73,
      "start": 12.395,
      "duration": 0.0144,
      "velocity": 89,
      "chip": "ym2612"
    },
    {
      "channel": 0,
      "note": 51,
      "start": 12.4089,
      "duration": 0.0142,
      "velocity": 95,
      "chip": "ym2612"
    },
    {
      "channel": 1,
      "note": 73,
      "start": 12.4094,
      "duration": 0.0143,
      "velocity": 89,
      "chip": "ym2612"
    },
    {
      "channel": 0,
      "note": 51,
      "start": 12.4231,
      "duration": 0.0146,
      "velocity": 95,
      "chip": "ym2612"
    },
    {
      "channel": 1,
      "note": 73,
      "start": 12.4237,
      "duration": 0.0144,
      "velocity": 89,
      "chip": "ym2612"
    },
    {
      "channel": 0,
      "note": 51,
      "start": 12.4377,
      "duration": 0.0145,
      "velocity": 95,
      "chip": "ym2612"
    },
    {
      "channel": 1,
      "note": 73,
      "start": 12.4382,
      "duration": 0.0146,
      "velocity": 89,
      "chip": "ym2612"
    },
    {
      "channel": 0,
      "note": 51,
      "start": 12.4522,
      "duration": 0.0144,
      "velocity": 95,
      "chip": "ym2612"
    },
    {
      "channel": 1,
      "note": 73,
      "start": 12.4528,
      "duration": 0.0144,
      "velocity": 89,
      "chip": "ym2612"
    },
    {
      "channel": 2,
      "note": 70,
      "start": 12.4534,
      "duration": 0.2307,
      "velocity": 89,
      "chip": "ym2612"
    },
    {
      "channel": 0,
      "note": 51,
      "start": 12.4666,
      "duration": 0.0144,
      "velocity": 95,
      "chip": "ym2612"
    },
    {
      "channel": 1,
      "note": 73,
      "start": 12.4672,
      "duration": 0.0144,
      "velocity": 89,
      "chip": "ym2612"
    },
    {
      "channel": 0,
      "note": 51,
      "start": 12.481,
      "duration": 0.0144,
      "velocity": 95,
      "chip": "ym2612"
    },
    {
      "channel": 1,
      "note": 73,
      "start": 12.4816,
      "duration": 0.0142,
      "velocity": 89,
      "chip": "ym2612"
    },
    {
      "channel": 0,
      "note": 51,
      "start": 12.4954,
      "duration": 0.0146,
      "velocity": 95,
      "chip": "ym2612"
    },
    {
      "channel": 1,
      "note": 73,
      "start": 12.4958,
      "duration": 0.0148,
      "velocity": 89,
      "chip": "ym2612"
    },
    {
      "channel": 0,
      "note": 51,
      "start": 12.51,
      "duration": 0.0144,
      "velocity": 95,
      "chip": "ym2612"
    },
    {
      "channel": 1,
      "note": 73,
      "start": 12.5106,
      "duration": 0.0144,
      "velocity": 89,
      "chip": "ym2612"
    },
    {
      "channel": 0,
      "note": 51,
      "start": 12.5244,
      "duration": 0.0144,
      "velocity": 95,
      "chip": "ym2612"
    },
    {
      "channel": 1,
      "note": 73,
      "start": 12.525,
      "duration": 0.0144,
      "velocity": 89,
      "chip": "ym2612"
    },
    {
      "channel": 0,
      "note": 51,
      "start": 12.5388,
      "duration": 0.0143,
      "velocity": 95,
      "chip": "ym2612"
    },
    {
      "channel": 1,
      "note": 73,
      "start": 12.5395,
      "duration": 0.0143,
      "velocity": 89,
      "chip": "ym2612"
    },
    {
      "channel": 0,
      "note": 51,
      "start": 12.5531,
      "duration": 0.0146,
      "velocity": 95,
      "chip": "ym2612"
    },
    {
      "channel": 1,
      "note": 73,
      "start": 12.5538,
      "duration": 0.0144,
      "velocity": 89,
      "chip": "ym2612"
    },
    {
      "channel": 0,
      "note": 51,
      "start": 12.5678,
      "duration": 0.0144,
      "velocity": 95,
      "chip": "ym2612"
    },
    {
      "channel": 1,
      "note": 73,
      "start": 12.5682,
      "duration": 0.0146,
      "velocity": 89,
      "chip": "ym2612"
    },
    {
      "channel": 0,
      "note": 51,
      "start": 12.5822,
      "duration": 0.0145,
      "velocity": 95,
      "chip": "ym2612"
    },
    {
      "channel": 1,
      "note": 73,
      "start": 12.5828,
      "duration": 0.0144,
      "velocity": 89,
      "chip": "ym2612"
    },
    {
      "channel": 0,
      "note": 51,
      "start": 12.5966,
      "duration": 0.0144,
      "velocity": 95,
      "chip": "ym2612"
    },
    {
      "channel": 1,
      "note": 73,
      "start": 12.5972,
      "duration": 0.0144,
      "velocity": 89,
      "chip": "ym2612"
    },
    {
      "channel": 0,
      "note": 51,
      "start": 12.611,
      "duration": 0.0144,
      "velocity": 95,
      "chip": "ym2612"
    },
    {
      "channel": 1,
      "note": 73,
      "start": 12.6117,
      "duration": 0.0142,
      "velocity": 89,
      "chip": "ym2612"
    },
    {
      "channel": 0,
      "note": 51,
      "start": 12.6254,
      "duration": 0.0146,
      "velocity": 95,
      "chip": "ym2612"
    },
    {
      "channel": 1,
      "note": 73,
      "start": 12.6259,
      "duration": 0.0148,
      "velocity": 89,
      "chip": "ym2612"
    },
    {
      "channel": 0,
      "note": 51,
      "start": 12.64,
      "duration": 0.0144,
      "velocity": 95,
      "chip": "ym2612"
    },
    {
      "channel": 1,
      "note": 73,
      "start": 12.6406,
      "duration": 0.0144,
      "velocity": 89,
      "chip": "ym2612"
    },
    {
      "channel": 0,
      "note": 51,
      "start": 12.6544,
      "duration": 0.0146,
      "velocity": 95,
      "chip": "ym2612"
    },
    {
      "channel": 1,
      "note": 73,
      "start": 12.655,
      "duration": 0.0146,
      "velocity": 89,
      "chip": "ym2612"
    },
    {
      "channel": 0,
      "note": 51,
      "start": 12.669,
      "duration": 0.014,
      "velocity": 95,
      "chip": "ym2612"
    },
    {
      "channel": 1,
      "note": 73,
      "start": 12.6696,
      "duration": 0.0142,
      "velocity": 89,
      "chip": "ym2612"
    },
    {
      "channel": 0,
      "note": 51,
      "start": 12.6834,
      "duration": 0.3161,
      "velocity": 95,
      "chip": "ym2612"
    },
    {
      "channel": 1,
      "note": 73,
      "start": 12.6839,
      "duration": 0.0043,
      "velocity": 89,
      "chip": "ym2612"
    },
    {
      "channel": 2,
      "note": 73,
      "start": 12.6845,
      "duration": 0.3163,
      "velocity": 89,
      "chip": "ym2612"
    },
    {
      "channel": 3,
      "note": 78,
      "start": 12.6853,
      "duration": 0.3157,
      "velocity": 99,
      "chip": "ym2612"
    },
    {
      "channel": 1,
      "note": 73,
      "start": 12.6882,
      "duration": 0.003,
      "velocity": 89,
      "chip": "ym2612"
    },
    {
      "channel": 1,
      "note": 73,
      "start": 12.6912,
      "duration": 0.0052,
      "velocity": 89,
      "chip": "ym2612"
    },
    {
      "channel": 1,
      "note": 73,
      "start": 12.6964,
      "duration": 0.0144,
      "velocity": 89,
      "chip": "ym2612"
    },
    {
      "channel": 1,
      "note": 73,
      "start": 12.7108,
      "duration": 0.0143,
      "velocity": 89,
      "chip": "ym2612"
    },
    {
      "channel": 1,
      "note": 73,
      "start": 12.7251,
      "duration": 0.0146,
      "velocity": 89,
      "chip": "ym2612"
    },
    {
      "channel": 1,
      "note": 73,
      "start": 12.7398,
      "duration": 0.0145,
      "velocity": 89,
      "chip": "ym2612"
    },
    {
      "channel": 1,
      "note": 73,
      "start": 12.7543,
      "duration": 0.0144,
      "velocity": 89,
      "chip": "ym2612"
    },
    {
      "channel": 1,
      "note": 73,
      "start": 12.7687,
      "duration": 0.0144,
      "velocity": 89,
      "chip": "ym2612"
    },
    {
      "channel": 1,
      "note": 73,
      "start": 12.7831,
      "duration": 0.0143,
      "velocity": 89,
      "chip": "ym2612"
    },
    {
      "channel": 1,
      "note": 73,
      "start": 12.7974,
      "duration": 0.0146,
      "velocity": 89,
      "chip": "ym2612"
    },
    {
      "channel": 1,
      "note": 73,
      "start": 12.812,
      "duration": 0.0144,
      "velocity": 89,
      "chip": "ym2612"
    },
    {
      "channel": 1,
      "note": 73,
      "start": 12.8264,
      "duration": 0.0144,
      "velocity": 89,
      "chip": "ym2612"
    },
    {
      "channel": 1,
      "note": 73,
      "start": 12.8409,
      "duration": 0.0143,
      "velocity": 89,
      "chip": "ym2612"
    },
    {
      "channel": 1,
      "note": 73,
      "start": 12.8552,
      "duration": 0.0146,
      "velocity": 89,
      "chip": "ym2612"
    },
    {
      "channel": 1,
      "note": 73,
      "start": 12.8697,
      "duration": 0.0145,
      "velocity": 89,
      "chip": "ym2612"
    },
    {
      "channel": 1,
      "note": 73,
      "start": 12.8842,
      "duration": 0.0144,
      "velocity": 89,
      "chip": "ym2612"
    },
    {
      "channel": 1,
      "note": 73,
      "start": 12.8987,
      "duration": 0.0144,
      "velocity": 89,
      "chip": "ym2612"
    },
    {
      "channel": 1,
      "note": 73,
      "start": 12.9131,
      "duration": 0.0142,
      "velocity": 89,
      "chip": "ym2612"
    },
    {
      "channel": 1,
      "note": 73,
      "start": 12.9274,
      "duration": 0.0146,
      "velocity": 89,
      "chip": "ym2612"
    },
    {
      "channel": 1,
      "note": 73,
      "start": 12.942,
      "duration": 0.0145,
      "velocity": 89,
      "chip": "ym2612"
    },
    {
      "channel": 1,
      "note": 73,
      "start": 12.9564,
      "duration": 0.0146,
      "velocity": 89,
      "chip": "ym2612"
    },
    {
      "channel": 1,
      "note": 73,
      "start": 12.971,
      "duration": 0.0142,
      "velocity": 89,
      "chip": "ym2612"
    },
    {
      "channel": 1,
      "note": 73,
      "start": 12.9852,
      "duration": 0.0149,
      "velocity": 89,
      "chip": "ym2612"
    },
    {
      "channel": 0,
      "note": 51,
      "start": 12.9995,
      "duration": 0.0145,
      "velocity": 95,
      "chip": "ym2612"
    },
    {
      "channel": 1,
      "note": 73,
      "start": 13.0001,
      "duration": 0.0144,
      "velocity": 89,
      "chip": "ym2612"
    },
    {
      "channel": 2,
      "note": 73,
      "start": 13.0008,
      "duration": 0.0143,
      "velocity": 89,
      "chip": "ym2612"
    },
    {
      "channel": 3,
      "note": 77,
      "start": 13.0014,
      "duration": 0.3462,
      "velocity": 99,
      "chip": "ym2612"
    },
    {
      "channel": 4,
      "note": 78,
      "start": 13.0021,
      "duration": 0.3462,
      "velocity": 99,
      "chip": "ym2612"
    },
    {
      "channel": 0,
      "note": 51,
      "start": 13.014,
      "duration": 0.0142,
      "velocity": 95,
      "chip": "ym2612"
    },
    {
      "channel": 1,
      "note": 73,
      "start": 13.0146,
      "duration": 0.0143,
      "velocity": 89,
      "chip": "ym2612"
    },
    {
      "channel": 2,
      "note": 73,
      "start": 13.0151,
      "duration": 0.0144,
      "velocity": 89,
      "chip": "ym2612"
    },
    {
      "channel": 0,
      "note": 51,
      "start": 13.0283,
      "duration": 0.0146,
      "velocity": 95,
      "chip": "ym2612"
    },
    {
      "channel": 1,
      "note": 73,
      "start": 13.0288,
      "duration": 0.0146,
      "velocity": 89,
      "chip": "ym2612"
    },
    {
      "channel": 2,
      "note": 73,
      "start": 13.0295,
      "duration": 0.0146,
      "velocity": 89,
      "chip": "ym2612"
    },
    {
      "channel": 0,
      "note": 51,
      "start": 13.0428,
      "duration": 0.0144,
      "velocity": 95,
      "chip": "ym2612"
    },
    {
      "channel": 1,
      "note": 73,
      "start": 13.0435,
      "duration": 0.0142,
      "velocity": 89,
      "chip": "ym2612"
    },
    {
      "channel": 2,
      "note": 73,
      "start": 13.044,
      "duration": 0.0143,
      "velocity": 89,
      "chip": "ym2612"
    },
    {
      "channel": 0,
      "note": 51,
      "start": 13.0573,
      "duration": 0.0145,
      "velocity": 95,
      "chip": "ym2612"
    },
    {
      "channel": 1,
      "note": 73,
      "start": 13.0577,
      "duration": 0.0146,
      "velocity": 89,
      "chip": "ym2612"
    },
    {
      "channel": 2,
      "note": 73,
      "start": 13.0583,
      "duration": 0.0145,
      "velocity": 89,
      "chip": "ym2612"
    },
    {
      "channel": 0,
      "note": 51,
      "start": 13.0718,
      "duration": 0.0143,
      "velocity": 95,
      "chip": "ym2612"
    },
    {
      "channel": 1,
      "note": 73,
      "start": 13.0723,
      "duration": 0.0143,
      "velocity": 89,
      "chip": "ym2612"
    },
    {
      "channel": 2,
      "note": 73,
      "start": 13.0729,
      "duration": 0.0144,
      "velocity": 89,
      "chip": "ym2612"
    },
    {
      "channel": 0,
      "note": 51,
      "start": 13.086,
      "duration": 0.0146,
      "velocity": 95,
      "chip": "ym2612"
    },
    {
      "channel": 1,
      "note": 73,
      "start": 13.0867,
      "duration": 0.0146,
      "velocity": 89,
      "chip": "ym2612"
    },
    {
      "channel": 2,
      "note": 73,
      "start": 13.0873,
      "duration": 0.0146,
      "velocity": 89,
      "chip": "ym2612"
    },
    {
      "channel": 0,
      "note": 51,
      "start": 13.1007,
      "duration": 0.0144,
      "velocity": 95,
      "chip": "ym2612"
    },
    {
      "channel": 1,
      "note": 73,
      "start": 13.1013,
      "duration": 0.0142,
      "velocity": 89,
      "chip": "ym2612"
    },
    {
      "channel": 2,
      "note": 74,
      "start": 13.1019,
      "duration": 0.0142,
      "velocity": 89,
      "chip": "ym2612"
    },
    {
      "channel": 0,
      "note": 51,
      "start": 13.1151,
      "duration": 0.0144,
      "velocity": 95,
      "chip": "ym2612"
    },
    {
      "channel": 1,
      "note": 73,
      "start": 13.1155,
      "duration": 0.0146,
      "velocity": 89,
      "chip": "ym2612"
    },
    {
      "channel": 2,
      "note": 74,
      "start": 13.1162,
      "duration": 0.0146,
      "velocity": 89,
      "chip": "ym2612"
    },
    {
      "channel": 0,
      "note": 51,
      "start": 13.1295,
      "duration": 0.0144,
      "velocity": 95,
      "chip": "ym2612"
    },
    {
      "channel": 1,
      "note": 73,
      "start": 13.1302,
      "duration": 0.0144,
      "velocity": 89,
      "chip": "ym2612"
    },
    {
      "channel": 2,
      "note": 73,
      "start": 13.1307,
      "duration": 0.0143,
      "velocity": 89,
      "chip": "ym2612"
    },
    {
      "channel": 0,
      "note": 51,
      "start": 13.144,
      "duration": 0.0143,
      "velocity": 95,
      "chip": "ym2612"
    },
    {
      "channel": 1,
      "note": 73,
      "start": 13.1446,
      "duration": 0.0143,
      "velocity": 89,
      "chip": "ym2612"
    },
    {
      "channel": 2,
      "note": 73,
      "start": 13.1451,
      "duration": 0.0144,
      "velocity": 89,
      "chip": "ym2612"
    },
    {
      "channel": 0,
      "note": 51,
      "start": 13.1583,
      "duration": 0.0146,
      "velocity": 95,
      "chip": "ym2612"
    },
    {
      "channel": 1,
      "note": 73,
      "start": 13.1589,
      "duration": 0.0146,
      "velocity": 89,
      "chip": "ym2612"
    },
    {
      "channel": 2,
      "note": 73,
      "start": 13.1595,
      "duration": 0.0146,
      "velocity": 89,
      "chip": "ym2612"
    },
    {
      "channel": 0,
      "note": 51,
      "start": 13.1729,
      "duration": 0.0144,
      "velocity": 95,
      "chip": "ym2612"
    },
    {
      "channel": 1,
      "note": 73,
      "start": 13.1735,
      "duration": 0.0143,
      "velocity": 89,
      "chip": "ym2612"
    },
    {
      "channel": 2,
      "note": 73,
      "start": 13.1741,
      "duration": 0.0143,
      "velocity": 89,
      "chip": "ym2612"
    },
    {
      "channel": 0,
      "note": 51,
      "start": 13.1873,
      "duration": 0.0145,
      "velocity": 95,
      "chip": "ym2612"
    },
    {
      "channel": 1,
      "note": 73,
      "start": 13.1878,
      "duration": 0.0146,
      "velocity": 89,
      "chip": "ym2612"
    },
    {
      "channel": 2,
      "note": 73,
      "start": 13.1884,
      "duration": 0.0145,
      "velocity": 89,
      "chip": "ym2612"
    },
    {
      "channel": 0,
      "note": 51,
      "start": 13.2018,
      "duration": 0.0143,
      "velocity": 95,
      "chip": "ym2612"
    },
    {
      "channel": 1,
      "note": 73,
      "start": 13.2024,
      "duration": 0.0142,
      "velocity": 89,
      "chip": "ym2612"
    },
    {
      "channel": 2,
      "note": 73,
      "start": 13.2029,
      "duration": 0.0144,
      "velocity": 89,
      "chip": "ym2612"
    },
    {
      "channel": 0,
      "note": 51,
      "start": 13.2161,
      "duration": 0.0146,
      "velocity": 95,
      "chip": "ym2612"
    },
    {
      "channel": 1,
      "note": 73,
      "start": 13.2166,
      "duration": 0.0146,
      "velocity": 89,
      "chip": "ym2612"
    },
    {
      "channel": 2,
      "note": 73,
      "start": 13.2173,
      "duration": 0.0146,
      "velocity": 89,
      "chip": "ym2612"
    },
    {
      "channel": 0,
      "note": 51,
      "start": 13.2306,
      "duration": 0.0144,
      "velocity": 95,
      "chip": "ym2612"
    },
    {
      "channel": 1,
      "note": 73,
      "start": 13.2312,
      "duration": 0.0143,
      "velocity": 89,
      "chip": "ym2612"
    },
    {
      "channel": 2,
      "note": 74,
      "start": 13.2319,
      "duration": 0.0143,
      "velocity": 89,
      "chip": "ym2612"
    },
    {
      "channel": 0,
      "note": 51,
      "start": 13.2451,
      "duration": 0.0145,
      "velocity": 95,
      "chip": "ym2612"
    },
    {
      "channel": 1,
      "note": 73,
      "start": 13.2456,
      "duration": 0.0146,
      "velocity": 89,
      "chip": "ym2612"
    },
    {
      "channel": 2,
      "note": 74,
      "start": 13.2462,
      "duration": 0.0146,
      "velocity": 89,
      "chip": "ym2612"
    },
    {
      "channel": 0,
      "note": 51,
      "start": 13.2596,
      "duration": 0.0144,
      "velocity": 95,
      "chip": "ym2612"
    },
    {
      "channel": 1,
      "note": 73,
      "start": 13.2602,
      "duration": 0.0144,
      "velocity": 89,
      "chip": "ym2612"
    },
    {
      "channel": 2,
      "note": 73,
      "start": 13.2608,
      "duration": 0.0143,
      "velocity": 89,
      "chip": "ym2612"
    },
    {
      "channel": 0,
      "note": 51,
      "start": 13.274,
      "duration": 0.0143,
      "velocity": 95,
      "chip": "ym2612"
    },
    {
      "channel": 1,
      "note": 73,
      "start": 13.2746,
      "duration": 0.0143,
      "velocity": 89,
      "chip": "ym2612"
    },
    {
      "channel": 2,
      "note": 73,
      "start": 13.2751,
      "duration": 0.0144,
      "velocity": 89,
      "chip": "ym2612"
    },
    {
      "channel": 0,
      "note": 51,
      "start": 13.2883,
      "duration": 0.0146,
      "velocity": 95,
      "chip": "ym2612"
    },
    {
      "channel": 1,
      "note": 73,
      "start": 13.289,
      "duration": 0.0146,
      "velocity": 89,
      "chip": "ym2612"
    },
    {
      "channel": 2,
      "note": 73,
      "start": 13.2895,
      "duration": 0.0146,
      "velocity": 89,
      "chip": "ym2612"
    },
    {
      "channel": 0,
      "note": 51,
      "start": 13.3029,
      "duration": 0.0144,
      "velocity": 95,
      "chip": "ym2612"
    },
    {
      "channel": 1,
      "note": 73,
      "start": 13.3035,
      "duration": 0.0142,
      "velocity": 89,
      "chip": "ym2612"
    },
    {
      "channel": 2,
      "note": 73,
      "start": 13.3041,
      "duration": 0.0143,
      "velocity": 89,
      "chip": "ym2612"
    },
    {
      "channel": 0,
      "note": 51,
      "start": 13.3173,
      "duration": 0.0144,
      "velocity": 95,
      "chip": "ym2612"
    },
    {
      "channel": 1,
      "note": 73,
      "start": 13.3178,
      "duration": 0.0146,
      "velocity": 89,
      "chip": "ym2612"
    },
    {
      "channel": 2,
      "note": 73,
      "start": 13.3184,
      "duration": 0.0144,
      "velocity": 89,
      "chip": "ym2612"
    },
    {
      "channel": 0,
      "note": 51,
      "start": 13.3318,
      "duration": 0.0141,
      "velocity": 95,
      "chip": "ym2612"
    },
    {
      "channel": 1,
      "note": 73,
      "start": 13.3323,
      "duration": 0.0142,
      "velocity": 89,
      "chip": "ym2612"
    },
    {
      "channel": 2,
      "note": 73,
      "start": 13.3328,
      "duration": 0.0146,
      "velocity": 89,
      "chip": "ym2612"
    },
    {
      "channel": 0,
      "note": 51,
      "start": 13.3463,
      "duration": 0.3161,
      "velocity": 95,
      "chip": "ym2612"
    },
    {
      "channel": 1,
      "note": 63,
      "start": 13.347,
      "duration": 0.1996,
      "velocity": 89,
      "chip": "ym2612"
    },
    {
      "channel": 2,
      "note": 73,
      "start": 13.3475,
      "duration": 0.0044,
      "velocity": 89,
      "chip": "ym2612"
    },
    {
      "channel": 3,
      "note": 78,
      "start": 13.3481,
      "duration": 0.1416,
      "velocity": 99,
      "chip": "ym2612"
    },
    {
      "channel": 4,
      "note": 77,
      "start": 13.3487,
      "duration": 0.3153,
      "velocity": 99,
      "chip": "ym2612"
    },
    {
      "channel": 2,
      "note": 74,
      "start": 13.3518,
      "duration": 0.0029,
      "velocity": 89,
      "chip": "ym2612"
    },
    {
      "channel": 2,
      "note": 74,
      "start": 13.3548,
      "duration": 0.0047,
      "velocity": 89,
      "chip": "ym2612"
    },
    {
      "channel": 2,
      "note": 73,
      "start": 13.3595,
      "duration": 0.0143,
      "velocity": 89,
      "chip": "ym2612"
    },
    {
      "channel": 2,
      "note": 73,
      "start": 13.3738,
      "duration": 0.0146,
      "velocity": 89,
      "chip": "ym2612"
    },
    {
      "channel": 2,
      "note": 73,
      "start": 13.3884,
      "duration": 0.0144,
      "velocity": 89,
      "chip": "ym2612"
    },
    {
      "channel": 2,
      "note": 73,
      "start": 13.4028,
      "duration": 0.0144,
      "velocity": 89,
      "chip": "ym2612"
    },
    {
      "channel": 2,
      "note": 73,
      "start": 13.4173,
      "duration": 0.0143,
      "velocity": 89,
      "chip": "ym2612"
    },
    {
      "channel": 2,
      "note": 73,
      "start": 13.4316,
      "duration": 0.0146,
      "velocity": 89,
      "chip": "ym2612"
    },
    {
      "channel": 2,
      "note": 73,
      "start": 13.4461,
      "duration": 0.0144,
      "velocity": 89,
      "chip": "ym2612"
    },
    {
      "channel": 2,
      "note": 74,
      "start": 13.4606,
      "duration": 0.0144,
      "velocity": 89,
      "chip": "ym2612"
    },
    {
      "channel": 2,
      "note": 74,
      "start": 13.475,
      "duration": 0.0145,
      "velocity": 89,
      "chip": "ym2612"
    },
    {
      "channel": 2,
      "note": 73,
      "start": 13.4895,
      "duration": 0.0143,
      "velocity": 89,
      "chip": "ym2612"
    },
    {
      "channel": 3,
      "note": 77,
      "start": 13.4902,
      "duration": 0.1732,
      "velocity": 99,
      "chip": "ym2612"
    },
    {
      "channel": 2,
      "note": 73,
      "start": 13.5038,
      "duration": 0.0146,
      "velocity": 89,
      "chip": "ym2612"
    },
    {
      "channel": 2,
      "note": 73,
      "start": 13.5184,
      "duration": 0.0144,
      "velocity": 89,
      "chip": "ym2612"
    },
    {
      "channel": 2,
      "note": 73,
      "start": 13.5329,
      "duration": 0.0146,
      "velocity": 89,
      "chip": "ym2612"
    },
    {
      "channel": 1,
      "note": 66,
      "start": 13.547,
      "duration": 0.2311,
      "velocity": 89,
      "chip": "ym2612"
    },
    {
      "channel": 2,
      "note": 73,
      "start": 13.5475,
      "duration": 0.0141,
      "velocity": 89,
      "chip": "ym2612"
    },
    {
      "channel": 2,
      "note": 73,
      "start": 13.5616,
      "duration": 0.0146,
      "velocity": 89,
      "chip": "ym2612"
    },
    {
      "channel": 2,
      "note": 73,
      "start": 13.5762,
      "duration": 0.0145,
      "velocity": 89,
      "chip": "ym2612"
    },
    {
      "channel": 2,
      "note": 74,
      "start": 13.5907,
      "duration": 0.0144,
      "velocity": 89,
      "chip": "ym2612"
    },
    {
      "channel": 2,
      "note": 74,
      "start": 13.6051,
      "duration": 0.0145,
      "velocity": 89,
      "chip": "ym2612"
    },
    {
      "channel": 2,
      "note": 73,
      "start": 13.6195,
      "duration": 0.0143,
      "velocity": 89,
      "chip": "ym2612"
    },
    {
      "channel": 2,
      "note": 73,
      "start": 13.6338,
      "duration": 0.0146,
      "velocity": 89,
      "chip": "ym2612"
    },
    {
      "channel": 2,
      "note": 73,
      "start": 13.6484,
      "duration": 0.0148,
      "velocity": 89,
      "chip": "ym2612"
    },
    {
      "channel": 0,
      "note": 51,
      "start": 13.6623,
      "duration": 0.0145,
      "velocity": 95,
      "chip": "ym2612"
    },
    {
      "channel": 2,
      "note": 73,
      "start": 13.6632,
      "duration": 0.0144,
      "velocity": 89,
      "chip": "ym2612"
    },
    {
      "channel": 3,
      "note": 75,
      "start": 13.6638,
      "duration": 1.6717,
      "velocity": 99,
      "chip": "ym2612"
    },
    {
      "channel": 4,
      "note": 78,
      "start": 13.6645,
      "duration": 0.1727,
      "velocity": 99,
      "chip": "ym2612"
    },
    {
      "channel": 0,
      "note": 51,
      "start": 13.6768,
      "duration": 0.0143,
      "velocity": 95,
      "chip": "ym2612"
    },
    {
      "channel": 2,
      "note": 73,
      "start": 13.6776,
      "duration": 0.0142,
      "velocity": 89,
      "chip": "ym2612"
    },
    {
      "channel": 0,
      "note": 51,
      "start": 13.6911,
      "duration": 0.0146,
      "velocity": 95,
      "chip": "ym2612"
    },
    {
      "channel": 2,
      "note": 73,
      "start": 13.6918,
      "duration": 0.0148,
      "velocity": 89,
      "chip": "ym2612"
    },
    {
      "channel": 0,
      "note": 51,
      "start": 13.7056,
      "duration": 0.0144,
      "velocity": 95,
      "chip": "ym2612"
    },
    {
      "channel": 2,
      "note": 73,
      "start": 13.7066,
      "duration": 0.0144,
      "velocity": 89,
      "chip": "ym2612"
    },
    {
      "channel": 0,
      "note": 51,
      "start": 13.7201,
      "duration": 0.0145,
      "velocity": 95,
      "chip": "ym2612"
    },
    {
      "channel": 2,
      "note": 74,
      "start": 13.721,
      "duration": 0.0145,
      "velocity": 89,
      "chip": "ym2612"
    },
    {
      "channel": 0,
      "note": 51,
      "start": 13.7346,
      "duration": 0.0143,
      "velocity": 95,
      "chip": "ym2612"
    },
    {
      "channel": 2,
      "note": 74,
      "start": 13.7355,
      "duration": 0.0142,
      "velocity": 89,
      "chip": "ym2612"
    },
    {
      "channel": 0,
      "note": 51,
      "start": 13.7488,
      "duration": 0.0146,
      "velocity": 95,
      "chip": "ym2612"
    },
    {
      "channel": 2,
      "note": 73,
      "start": 13.7497,
      "duration": 0.0144,
      "velocity": 89,
      "chip": "ym2612"
    },
    {
      "channel": 0,
      "note": 51,
      "start": 13.7634,
      "duration": 0.0144,
      "velocity": 95,
      "chip": "ym2612"
    },
    {
      "channel": 2,
      "note": 73,
      "start": 13.7641,
      "duration": 0.0149,
      "velocity": 89,
      "chip": "ym2612"
    },
    {
      "channel": 0,
      "note": 51,
      "start": 13.7779,
      "duration": 0.0144,
      "velocity": 95,
      "chip": "ym2612"
    },
    {
      "channel": 1,
      "note": 70,
      "start": 13.7786,
      "duration": 0.3157,
      "velocity": 89,
      "chip": "ym2612"
    },
    {
      "channel": 2,
      "note": 73,
      "start": 13.779,
      "duration": 0.0142,
      "velocity": 89,
      "chip": "ym2612"
    },
    {
      "channel": 0,
      "note": 51,
      "start": 13.7923,
      "duration": 0.0144,
      "velocity": 95,
      "chip": "ym2612"
    },
    {
      "channel": 2,
      "note": 73,
      "start": 13.7932,
      "duration": 0.0144,
      "velocity": 89,
      "chip": "ym2612"
    },
    {
      "channel": 0,
      "note": 51,
      "start": 13.8068,
      "duration": 0.0143,
      "velocity": 95,
      "chip": "ym2612"
    },
    {
      "channel": 2,
      "note": 73,
      "start": 13.8077,
      "duration": 0.0141,
      "velocity": 89,
      "chip": "ym2612"
    },
    {
      "channel": 0,
      "note": 51,
      "start": 13.8211,
      "duration": 0.0146,
      "velocity": 95,
      "chip": "ym2612"
    },
    {
      "channel": 2,
      "note": 73,
      "start": 13.8218,
      "duration": 0.0148,
      "velocity": 89,
      "chip": "ym2612"
    },
    {
      "channel": 0,
      "note": 51,
      "start": 13.8357,
      "duration": 0.0144,
      "velocity": 95,
      "chip": "ym2612"
    },
    {
      "channel": 2,
      "note": 73,
      "start": 13.8366,
      "duration": 0.0144,
      "velocity": 89,
      "chip": "ym2612"
    },
    {
      "channel": 4,
      "note": 77,
      "start": 13.8376,
      "duration": 0.1725,
      "velocity": 99,
      "chip": "ym2612"
    },
    {
      "channel": 0,
      "note": 51,
      "start": 13.8501,
      "duration": 0.0144,
      "velocity": 95,
      "chip": "ym2612"
    },
    {
      "channel": 2,
      "note": 74,
      "start": 13.851,
      "duration": 0.0144,
      "velocity": 89,
      "chip": "ym2612"
    },
    {
      "channel": 0,
      "note": 51,
      "start": 13.8645,
      "duration": 0.0143,
      "velocity": 95,
      "chip": "ym2612"
    },
    {
      "channel": 2,
      "note": 74,
      "start": 13.8654,
      "duration": 0.0143,
      "velocity": 89,
      "chip": "ym2612"
    },
    {
      "channel": 0,
      "note": 51,
      "start": 13.8788,
      "duration": 0.0146,
      "velocity": 95,
      "chip": "ym2612"
    },
    {
      "channel": 2,
      "note": 73,
      "start": 13.8797,
      "duration": 0.0144,
      "velocity": 89,
      "chip": "ym2612"
    },
    {
      "channel": 0,
      "note": 51,
      "start": 13.8935,
      "duration": 0.0144,
      "velocity": 95,
      "chip": "ym2612"
    },
    {
      "channel": 2,
      "note": 73,
      "start": 13.8942,
      "duration": 0.0146,
      "velocity": 89,
      "chip": "ym2612"
    },
    {
      "channel": 0,
      "note": 51,
      "start": 13.9079,
      "duration": 0.0144,
      "velocity": 95,
      "chip": "ym2612"
    },
    {
      "channel": 2,
      "note": 73,
      "start": 13.9088,
      "duration": 0.0144,
      "velocity": 89,
      "chip": "ym2612"
    },
    {
      "channel": 0,
      "note": 51,
      "start": 13.9224,
      "duration": 0.0144,
      "velocity": 95,
      "chip": "ym2612"
    },
    {
      "channel": 2,
      "note": 73,
      "start": 13.9232,
      "duration": 0.0144,
      "velocity": 89,
      "chip": "ym2612"
    },
    {
      "channel": 0,
      "note": 51,
      "start": 13.9368,
      "duration": 0.0143,
      "velocity": 95,
      "chip": "ym2612"
    },
    {
      "channel": 2,
      "note": 73,
      "start": 13.9377,
      "duration": 0.0141,
      "velocity": 89,
      "chip": "ym2612"
    },
    {
      "channel": 0,
      "note": 51,
      "start": 13.9511,
      "duration": 0.0146,
      "velocity": 95,
      "chip": "ym2612"
    },
    {
      "channel": 2,
      "note": 73,
      "start": 13.9518,
      "duration": 0.0148,
      "velocity": 89,
      "chip": "ym2612"
    },
    {
      "channel": 0,
      "note": 51,
      "start": 13.9657,
      "duration": 0.0144,
      "velocity": 95,
      "chip": "ym2612"
    },
    {
      "channel": 2,
      "note": 73,
      "start": 13.9666,
      "duration": 0.0144,
      "velocity": 89,
      "chip": "ym2612"
    },
    {
      "channel": 0,
      "note": 51,
      "start": 13.9801,
      "duration": 0.0144,
      "velocity": 95,
      "chip": "ym2612"
    },
    {
      "channel": 2,
      "note": 74,
      "start": 13.981,
      "duration": 0.0144,
      "velocity": 89,
      "chip": "ym2612"
    },
    {
      "channel": 0,
      "note": 51,
      "start": 13.9946,
      "duration": 0.0142,
      "velocity": 95,
      "chip": "ym2612"
    },
    {
      "channel": 2,
      "note": 74,
      "start": 13.9954,
      "duration": 0.0143,
      "velocity": 89,
      "chip": "ym2612"
    },
    {
      "channel": 0,
      "note": 51,
      "start": 14.0091,
      "duration": 0.3161,
      "velocity": 95,
      "chip": "ym2612"
    },
    {
      "channel": 2,
      "note": 73,
      "start": 14.0098,
      "duration": 0.0039,
      "velocity": 89,
      "chip": "ym2612"
    },
    {
      "channel": 4,
      "note": 75,
      "start": 14.0105,
      "duration": 1.6423,
      "velocity": 99,
      "chip": "ym2612"
    },
    {
      "channel": 2,
      "note": 73,
      "start": 14.0137,
      "duration": 0.0029,
      "velocity": 89,
      "chip": "ym2612"
    },
    {
      "channel": 2,
      "note": 73,
      "start": 14.0166,
      "duration": 0.0058,
      "velocity": 89,
      "chip": "ym2612"
    },
    {
      "channel": 2,
      "note": 73,
      "start": 14.0224,
      "duration": 0.0144,
      "velocity": 89,
      "chip": "ym2612"
    },
    {
      "channel": 2,
      "note": 73,
      "start": 14.0368,
      "duration": 0.0143,
      "velocity": 89,
      "chip": "ym2612"
    },
    {
      "channel": 2,
      "note": 73,
      "start": 14.0511,
      "duration": 0.0146,
      "velocity": 89,
      "chip": "ym2612"
    },
    {
      "channel": 2,
      "note": 73,
      "start": 14.0657,
      "duration": 0.0144,
      "velocity": 89,
      "chip": "ym2612"
    },
    {
      "channel": 2,
      "note": 74,
      "start": 14.0801,
      "duration": 0.0148,
      "velocity": 89,
      "chip": "ym2612"
    },
    {
      "channel": 1,
      "note": 70,
      "start": 14.0943,
      "duration": 0.0144,
      "velocity": 89,
      "chip": "ym2612"
    },
    {
      "channel": 2,
      "note": 74,
      "start": 14.0949,
      "duration": 0.0144,
      "velocity": 89,
      "chip": "ym2612"
    },
    {
      "channel": 1,
      "note": 70,
      "start": 14.1088,
      "duration": 0.0143,
      "velocity": 89,
      "chip": "ym2612"
    },
    {
      "channel": 2,
      "note": 73,
      "start": 14.1094,
      "duration": 0.0141,
      "velocity": 89,
      "chip": "ym2612"
    },
    {
      "channel": 1,
      "note": 70,
      "start": 14.1231,
      "duration": 0.0146,
      "velocity": 89,
      "chip": "ym2612"
    },
    {
      "channel": 2,
      "note": 73,
      "start": 14.1235,
      "duration": 0.0148,
      "velocity": 89,
      "chip": "ym2612"
    },
    {
      "channel": 1,
      "note": 70,
      "start": 14.1377,
      "duration": 0.0144,
      "velocity": 89,
      "chip": "ym2612"
    },
    {
      "channel": 2,
      "note": 73,
      "start": 14.1383,
      "duration": 0.0145,
      "velocity": 89,
      "chip": "ym2612"
    },
    {
      "channel": 1,
      "note": 70,
      "start": 14.1521,
      "duration": 0.0144,
      "velocity": 89,
      "chip": "ym2612"
    },
    {
      "channel": 2,
      "note": 73,
      "start": 14.1528,
      "duration": 0.0144,
      "velocity": 89,
      "chip": "ym2612"
    },
    {
      "channel": 1,
      "note": 70,
      "start": 14.1666,
      "duration": 0.0143,
      "velocity": 89,
      "chip": "ym2612"
    },
    {
      "channel": 2,
      "note": 73,
      "start": 14.1672,
      "duration": 0.0141,
      "velocity": 89,
      "chip": "ym2612"
    },
    {
      "channel": 1,
      "note": 70,
      "start": 14.1809,
      "duration": 0.0146,
      "velocity": 89,
      "chip": "ym2612"
    },
    {
      "channel": 2,
      "note": 73,
      "start": 14.1813,
      "duration": 0.0147,
      "velocity": 89,
      "chip": "ym2612"
    },
    {
      "channel": 1,
      "note": 70,
      "start": 14.1955,
      "duration": 0.0144,
      "velocity": 89,
      "chip": "ym2612"
    },
    {
      "channel": 2,
      "note": 73,
      "start": 14.196,
      "duration": 0.0145,
      "velocity": 89,
      "chip": "ym2612"
    },
    {
      "channel": 1,
      "note": 70,
      "start": 14.2099,
      "duration": 0.0144,
      "velocity": 89,
      "chip": "ym2612"
    },
    {
      "channel": 2,
      "note": 74,
      "start": 14.2105,
      "duration": 0.0144,
      "velocity": 89,
      "chip": "ym2612"
    },
    {
      "channel": 1,
      "note": 70,
      "start": 14.2243,
      "duration": 0.0144,
      "velocity": 89,
      "chip": "ym2612"
    },
    {
      "channel": 2,
      "note": 74,
      "start": 14.225,
      "duration": 0.0144,
      "velocity": 89,
      "chip": "ym2612"
    },
    {
      "channel": 1,
      "note": 70,
      "start": 14.2388,
      "duration": 0.0143,
      "velocity": 89,
      "chip": "ym2612"
    },
    {
      "channel": 2,
      "note": 73,
      "start": 14.2394,
      "duration": 0.0141,
      "velocity": 89,
      "chip": "ym2612"
    },
    {
      "channel": 1,
      "note": 70,
      "start": 14.2531,
      "duration": 0.0146,
      "velocity": 89,
      "chip": "ym2612"
    },
    {
      "channel": 2,
      "note": 73,
      "start": 14.2535,
      "duration": 0.0148,
      "velocity": 89,
      "chip": "ym2612"
    },
    {
      "channel": 1,
      "note": 70,
      "start": 14.2677,
      "duration": 0.0144,
      "velocity": 89,
      "chip": "ym2612"
    },
    {
      "channel": 2,
      "note": 73,
      "start": 14.2683,
      "duration": 0.0144,
      "velocity": 89,
      "chip": "ym2612"
    },
    {
      "channel": 1,
      "note": 70,
      "start": 14.2821,
      "duration": 0.0145,
      "velocity": 89,
      "chip": "ym2612"
    },
    {
      "channel": 2,
      "note": 73,
      "start": 14.2827,
      "duration": 0.0144,
      "velocity": 89,
      "chip": "ym2612"
    },
    {
      "channel": 1,
      "note": 70,
      "start": 14.2966,
      "duration": 0.0143,
      "velocity": 89,
      "chip": "ym2612"
    },
    {
      "channel": 2,
      "note": 73,
      "start": 14.2972,
      "duration": 0.0141,
      "velocity": 89,
      "chip": "ym2612"
    },
    {
      "channel": 1,
      "note": 70,
      "start": 14.3109,
      "duration": 0.015,
      "velocity": 89,
      "chip": "ym2612"
    },
    {
      "channel": 2,
      "note": 73,
      "start": 14.3113,
      "duration": 0.0151,
      "velocity": 89,
      "chip": "ym2612"
    },
    {
      "channel": 0,
      "note": 51,
      "start": 14.3252,
      "duration": 0.0144,
      "velocity": 95,
      "chip": "ym2612"
    },
    {
      "channel": 1,
      "note": 70,
      "start": 14.3259,
      "duration": 0.0144,
      "velocity": 89,
      "chip": "ym2612"
    },
    {
      "channel": 2,
      "note": 73,
      "start": 14.3264,
      "duration": 0.0144,
      "velocity": 89,
      "chip": "ym2612"
    },
    {
      "channel": 0,
      "note": 51,
      "start": 14.3396,
      "duration": 0.0144,
      "velocity": 95,
      "chip": "ym2612"
    },
    {
      "channel": 1,
      "note": 70,
      "start": 14.3402,
      "duration": 0.0143,
      "velocity": 89,
      "chip": "ym2612"
    },
    {
      "channel": 2,
      "note": 74,
      "start": 14.3409,
      "duration": 0.0143,
      "velocity": 89,
      "chip": "ym2612"
    },
    {
      "channel": 0,
      "note": 51,
      "start": 14.354,
      "duration": 0.0146,
      "velocity": 95,
      "chip": "ym2612"
    },
    {
      "channel": 1,
      "note": 70,
      "start": 14.3546,
      "duration": 0.0146,
      "velocity": 89,
      "chip": "ym2612"
    },
    {
      "channel": 2,
      "note": 74,
      "start": 14.3552,
      "duration": 0.0146,
      "velocity": 89,
      "chip": "ym2612"
    },
    {
      "channel": 0,
      "note": 51,
      "start": 14.3685,
      "duration": 0.0144,
      "velocity": 95,
      "chip": "ym2612"
    },
    {
      "channel": 1,
      "note": 70,
      "start": 14.3692,
      "duration": 0.0143,
      "velocity": 89,
      "chip": "ym2612"
    },
    {
      "channel": 2,
      "note": 73,
      "start": 14.3698,
      "duration": 0.0142,
      "velocity": 89,
      "chip": "ym2612"
    },
    {
      "channel": 0,
      "note": 51,
      "start": 14.383,
      "duration": 0.0144,
      "velocity": 95,
      "chip": "ym2612"
    },
    {
      "channel": 1,
      "note": 70,
      "start": 14.3834,
      "duration": 0.0146,
      "velocity": 89,
      "chip": "ym2612"
    },
    {
      "channel": 2,
      "note": 73,
      "start": 14.3839,
      "duration": 0.0147,
      "velocity": 89,
      "chip": "ym2612"
    },
    {
      "channel": 0,
      "note": 51,
      "start": 14.3974,
      "duration": 0.0143,
      "velocity": 95,
      "chip": "ym2612"
    },
    {
      "channel": 1,
      "note": 70,
      "start": 14.3981,
      "duration": 0.0142,
      "velocity": 89,
      "chip": "ym2612"
    },
    {
      "channel": 2,
      "note": 73,
      "start": 14.3986,
      "duration": 0.0143,
      "velocity": 89,
      "chip": "ym2612"
    },
    {
      "channel": 0,
      "note": 51,
      "start": 14.4117,
      "duration": 0.0146,
      "velocity": 95,
      "chip": "ym2612"
    },
    {
      "channel": 1,
      "note": 70,
      "start": 14.4123,
      "duration": 0.0146,
      "velocity": 89,
      "chip": "ym2612"
    },
    {
      "channel": 2,
      "note": 73,
      "start": 14.4129,
      "duration": 0.0146,
      "velocity": 89,
      "chip": "ym2612"
    },
    {
      "channel": 0,
      "note": 51,
      "start": 14.4263,
      "duration": 0.0145,
      "velocity": 95,
      "chip": "ym2612"
    },
    {
      "channel": 1,
      "note": 70,
      "start": 14.4269,
      "duration": 0.0143,
      "velocity": 89,
      "chip": "ym2612"
    },
    {
      "channel": 2,
      "note": 73,
      "start": 14.4276,
      "duration": 0.0141,
      "velocity": 89,
      "chip": "ym2612"
    },
    {
      "channel": 0,
      "note": 51,
      "start": 14.4408,
      "duration": 0.0144,
      "velocity": 95,
      "chip": "ym2612"
    },
    {
      "channel": 1,
      "note": 70,
      "start": 14.4413,
      "duration": 0.0146,
      "velocity": 89,
      "chip": "ym2612"
    },
    {
      "channel": 2,
      "note": 73,
      "start": 14.4417,
      "duration": 0.0148,
      "velocity": 89,
      "chip": "ym2612"
    },
    {
      "channel": 0,
      "note": 51,
      "start": 14.4553,
      "duration": 0.0144,
      "velocity": 95,
      "chip": "ym2612"
    },
    {
      "channel": 1,
      "note": 70,
      "start": 14.4558,
      "duration": 0.0144,
      "velocity": 89,
      "chip": "ym2612"
    },
    {
      "channel": 2,
      "note": 73,
      "start": 14.4565,
      "duration": 0.0144,
      "velocity": 89,
      "chip": "ym2612"
    },
    {
      "channel": 0,
      "note": 51,
      "start": 14.4696,
      "duration": 0.0143,
      "velocity": 95,
      "chip": "ym2612"
    },
    {
      "channel": 1,
      "note": 70,
      "start": 14.4703,
      "duration": 0.0143,
      "velocity": 89,
      "chip": "ym2612"
    },
    {
      "channel": 2,
      "note": 74,
      "start": 14.4709,
      "duration": 0.0143,
      "velocity": 89,
      "chip": "ym2612"
    },
    {
      "channel": 0,
      "note": 51,
      "start": 14.4839,
      "duration": 0.0146,
      "velocity": 95,
      "chip": "ym2612"
    },
    {
      "channel": 1,
      "note": 70,
      "start": 14.4846,
      "duration": 0.0146,
      "velocity": 89,
      "chip": "ym2612"
    },
    {
      "channel": 2,
      "note": 74,
      "start": 14.4852,
      "duration": 0.0146,
      "velocity": 89,
      "chip": "ym2612"
    },
    {
      "channel": 0,
      "note": 51,
      "start": 14.4986,
      "duration": 0.0144,
      "velocity": 95,
      "chip": "ym2612"
    },
    {
      "channel": 1,
      "note": 70,
      "start": 14.4992,
      "duration": 0.0143,
      "velocity": 89,
      "chip": "ym2612"
    },
    {
      "channel": 2,
      "note": 73,
      "start": 14.4998,
      "duration": 0.0142,
      "velocity": 89,
      "chip": "ym2612"
    },
    {
      "channel": 0,
      "note": 51,
      "start": 14.513,
      "duration": 0.0144,
      "velocity": 95,
      "chip": "ym2612"
    },
    {
      "channel": 1,
      "note": 70,
      "start": 14.5135,
      "duration": 0.0146,
      "velocity": 89,
      "chip": "ym2612"
    },
    {
      "channel": 2,
      "note": 73,
      "start": 14.514,
      "duration": 0.0147,
      "velocity": 89,
      "chip": "ym2612"
    },
    {
      "channel": 0,
      "note": 51,
      "start": 14.5275,
      "duration": 0.0142,
      "velocity": 95,
      "chip": "ym2612"
    },
    {
      "channel": 1,
      "note": 70,
      "start": 14.5281,
      "duration": 0.0142,
      "velocity": 89,
      "chip": "ym2612"
    },
    {
      "channel": 2,
      "note": 73,
      "start": 14.5287,
      "duration": 0.0143,
      "velocity": 89,
      "chip": "ym2612"
    },
    {
      "channel": 0,
      "note": 51,
      "start": 14.5417,
      "duration": 0.0146,
      "velocity": 95,
      "chip": "ym2612"
    },
    {
      "channel": 1,
      "note": 70,
      "start": 14.5423,
      "duration": 0.0146,
      "velocity": 89,
      "chip": "ym2612"
    },
    {
      "channel": 2,
      "note": 73,
      "start": 14.543,
      "duration": 0.0146,
      "velocity": 89,
      "chip": "ym2612"
    },
    {
      "channel": 0,
      "note": 51,
      "start": 14.5563,
      "duration": 0.0144,
      "velocity": 95,
      "chip": "ym2612"
    },
    {
      "channel": 1,
      "note": 70,
      "start": 14.5569,
      "duration": 0.0143,
      "velocity": 89,
      "chip": "ym2612"
    },
    {
      "channel": 2,
      "note": 73,
      "start": 14.5576,
      "duration": 0.0142,
      "velocity": 89,
      "chip": "ym2612"
    },
    {
      "channel": 0,
      "note": 51,
      "start": 14.5708,
      "duration": 0.0144,
      "velocity": 95,
      "chip": "ym2612"
    },
    {
      "channel": 1,
      "note": 70,
      "start": 14.5712,
      "duration": 0.0146,
      "velocity": 89,
      "chip": "ym2612"
    },
    {
      "channel": 2,
      "note": 73,
      "start": 14.5717,
      "duration": 0.0148,
      "velocity": 89,
      "chip": "ym2612"
    },
    {
      "channel": 0,
      "note": 51,
      "start": 14.5852,
      "duration": 0.0144,
      "velocity": 95,
      "chip": "ym2612"
    },
    {
      "channel": 1,
      "note": 70,
      "start": 14.5859,
      "duration": 0.0144,
      "velocity": 89,
      "chip": "ym2612"
    },
    {
      "channel": 2,
      "note": 73,
      "start": 14.5865,
      "duration": 0.0144,
      "velocity": 89,
      "chip": "ym2612"
    },
    {
      "channel": 0,
      "note": 51,
      "start": 14.5997,
      "duration": 0.0143,
      "velocity": 95,
      "chip": "ym2612"
    },
    {
      "channel": 1,
      "note": 70,
      "start": 14.6003,
      "duration": 0.0143,
      "velocity": 89,
      "chip": "ym2612"
    },
    {
      "channel": 2,
      "note": 74,
      "start": 14.6009,
      "duration": 0.0142,
      "velocity": 89,
      "chip": "ym2612"
    },
    {
      "channel": 0,
      "note": 51,
      "start": 14.614,
      "duration": 0.0146,
      "velocity": 95,
      "chip": "ym2612"
    },
    {
      "channel": 1,
      "note": 70,
      "start": 14.6146,
      "duration": 0.0146,
      "velocity": 89,
      "chip": "ym2612"
    },
    {
      "channel": 2,
      "note": 74,
      "start": 14.6152,
      "duration": 0.0146,
      "velocity": 89,
      "chip": "ym2612"
    },
    {
      "channel": 0,
      "note": 51,
      "start": 14.6286,
      "duration": 0.0144,
      "velocity": 95,
      "chip": "ym2612"
    },
    {
      "channel": 1,
      "note": 70,
      "start": 14.6292,
      "duration": 0.0143,
      "velocity": 89,
      "chip": "ym2612"
    },
    {
      "channel": 2,
      "note": 73,
      "start": 14.6298,
      "duration": 0.0141,
      "velocity": 89,
      "chip": "ym2612"
    },
    {
      "channel": 0,
      "note": 51,
      "start": 14.643,
      "duration": 0.0144,
      "velocity": 95,
      "chip": "ym2612"
    },
    {
      "channel": 1,
      "note": 70,
      "start": 14.6435,
      "duration": 0.0146,
      "velocity": 89,
      "chip": "ym2612"
    },
    {
      "channel": 2,
      "note": 73,
      "start": 14.6439,
      "duration": 0.0148,
      "velocity": 89,
      "chip": "ym2612"
    },
    {
      "channel": 0,
      "note": 51,
      "start": 14.6575,
      "duration": 0.0141,
      "velocity": 95,
      "chip": "ym2612"
    },
    {
      "channel": 1,
      "note": 70,
      "start": 14.658,
      "duration": 0.0144,
      "velocity": 89,
      "chip": "ym2612"
    },
    {
      "channel": 2,
      "note": 73,
      "start": 14.6587,
      "duration": 0.014,
      "velocity": 89,
      "chip": "ym2612"
    },
    {
      "channel": 0,
      "note": 51,
      "start": 14.672,
      "duration": 0.3162,
      "velocity": 95,
      "chip": "ym2612"
    },
    {
      "channel": 1,
      "note": 70,
      "start": 14.6724,
      "duration": 0.0038,
      "velocity": 89,
      "chip": "ym2612"
    },
    {
      "channel": 2,
      "note": 63,
      "start": 14.6731,
      "duration": 0.1995,
      "velocity": 89,
      "chip": "ym2612"
    },
    {
      "channel": 1,
      "note": 70,
      "start": 14.6763,
      "duration": 0.0024,
      "velocity": 89,
      "chip": "ym2612"
    },
    {
      "channel": 1,
      "note": 70,
      "start": 14.6787,
      "duration": 0.0061,
      "velocity": 89,
      "chip": "ym2612"
    },
    {
      "channel": 1,
      "note": 70,
      "start": 14.6848,
      "duration": 0.0144,
      "velocity": 89,
      "chip": "ym2612"
    },
    {
      "channel": 1,
      "note": 70,
      "start": 14.6992,
      "duration": 0.0144,
      "velocity": 89,
      "chip": "ym2612"
    },
    {
      "channel": 1,
      "note": 70,
      "start": 14.7137,
      "duration": 0.0145,
      "velocity": 89,
      "chip": "ym2612"
    },
    {
      "channel": 1,
      "note": 70,
      "start": 14.7282,
      "duration": 0.0142,
      "velocity": 89,
      "chip": "ym2612"
    },
    {
      "channel": 1,
      "note": 70,
      "start": 14.7424,
      "duration": 0.0146,
      "velocity": 89,
      "chip": "ym2612"
    },
    {
      "channel": 1,
      "note": 70,
      "start": 14.757,
      "duration": 0.0144,
      "velocity": 89,
      "chip": "ym2612"
    },
    {
      "channel": 1,
      "note": 70,
      "start": 14.7714,
      "duration": 0.0145,
      "velocity": 89,
      "chip": "ym2612"
    },
    {
      "channel": 1,
      "note": 70,
      "start": 14.7859,
      "duration": 0.0143,
      "velocity": 89,
      "chip": "ym2612"
    },
    {
      "channel": 1,
      "note": 70,
      "start": 14.8002,
      "duration": 0.0146,
      "velocity": 89,
      "chip": "ym2612"
    },
    {
      "channel": 1,
      "note": 70,
      "start": 14.8148,
      "duration": 0.0145,
      "velocity": 89,
      "chip": "ym2612"
    },
    {
      "channel": 1,
      "note": 70,
      "start": 14.8293,
      "duration": 0.0144,
      "velocity": 89,
      "chip": "ym2612"
    },
    {
      "channel": 1,
      "note": 70,
      "start": 14.8437,
      "duration": 0.0144,
      "velocity": 89,
      "chip": "ym2612"
    },
    {
      "channel": 1,
      "note": 70,
      "start": 14.8581,
      "duration": 0.0143,
      "velocity": 89,
      "chip": "ym2612"
    },
    {
      "channel": 1,
      "note": 70,
      "start": 14.8724,
      "duration": 0.0146,
      "velocity": 89,
      "chip": "ym2612"
    },
    {
      "channel": 2,
      "note": 66,
      "start": 14.8731,
      "duration": 0.2313,
      "velocity": 89,
      "chip": "ym2612"
    },
    {
      "channel": 1,
      "note": 70,
      "start": 14.887,
      "duration": 0.0144,
      "velocity": 89,
      "chip": "ym2612"
    },
    {
      "channel": 1,
      "note": 70,
      "start": 14.9015,
      "duration": 0.0145,
      "velocity": 89,
      "chip": "ym2612"
    },
    {
      "channel": 1,
      "note": 70,
      "start": 14.916,
      "duration": 0.0143,
      "velocity": 89,
      "chip": "ym2612"
    },
    {
      "channel": 1,
      "note": 70,
      "start": 14.9303,
      "duration": 0.0146,
      "velocity": 89,
      "chip": "ym2612"
    },
    {
      "channel": 1,
      "note": 70,
      "start": 14.9449,
      "duration": 0.0144,
      "velocity": 89,
      "chip": "ym2612"
    },
    {
      "channel": 1,
      "note": 70,
      "start": 14.9593,
      "duration": 0.0144,
      "velocity": 89,
      "chip": "ym2612"
    },
    {
      "channel": 1,
      "note": 70,
      "start": 14.9737,
      "duration": 0.0151,
      "velocity": 89,
      "chip": "ym2612"
    },
    {
      "channel": 0,
      "note": 51,
      "start": 14.9882,
      "duration": 0.0141,
      "velocity": 95,
      "chip": "ym2612"
    },
    {
      "channel": 1,
      "note": 70,
      "start": 14.9889,
      "duration": 0.0139,
      "velocity": 89,
      "chip": "ym2612"
    },
    {
      "channel": 0,
      "note": 51,
      "start": 15.0024,
      "duration": 0.0143,
      "velocity": 95,
      "chip": "ym2612"
    },
    {
      "channel": 1,
      "note": 70,
      "start": 15.0028,
      "duration": 0.0144,
      "velocity": 89,
      "chip": "ym2612"
    },
    {
      "channel": 0,
      "note": 51,
      "start": 15.0167,
      "duration": 0.0146,
      "velocity": 95,
      "chip": "ym2612"
    },
    {
      "channel": 1,
      "note": 70,
      "start": 15.0172,
      "duration": 0.0146,
      "velocity": 89,
      "chip": "ym2612"
    },
    {
      "channel": 0,
      "note": 51,
      "start": 15.0312,
      "duration": 0.0144,
      "velocity": 95,
      "chip": "ym2612"
    },
    {
      "channel": 1,
      "note": 70,
      "start": 15.0319,
      "duration": 0.0144,
      "velocity": 89,
      "chip": "ym2612"
    },
    {
      "channel": 0,
      "note": 51,
      "start": 15.0457,
      "duration": 0.0144,
      "velocity": 95,
      "chip": "ym2612"
    },
    {
      "channel": 1,
      "note": 70,
      "start": 15.0463,
      "duration": 0.0143,
      "velocity": 89,
      "chip": "ym2612"
    },
    {
      "channel": 0,
      "note": 51,
      "start": 15.0601,
      "duration": 0.0143,
      "velocity": 95,
      "chip": "ym2612"
    },
    {
      "channel": 1,
      "note": 70,
      "start": 15.0606,
      "duration": 0.0145,
      "velocity": 89,
      "chip": "ym2612"
    },
    {
      "channel": 0,
      "note": 51,
      "start": 15.0744,
      "duration": 0.0146,
      "velocity": 95,
      "chip": "ym2612"
    },
    {
      "channel": 1,
      "note": 70,
      "start": 15.0751,
      "duration": 0.0146,
      "velocity": 89,
      "chip": "ym2612"
    },
    {
      "channel": 0,
      "note": 51,
      "start": 15.089,
      "duration": 0.0145,
      "velocity": 95,
      "chip": "ym2612"
    },
    {
      "channel": 1,
      "note": 70,
      "start": 15.0896,
      "duration": 0.0145,
      "velocity": 89,
      "chip": "ym2612"
    },
    {
      "channel": 0,
      "note": 51,
      "start": 15.1035,
      "duration": 0.0144,
      "velocity": 95,
      "chip": "ym2612"
    },
    {
      "channel": 1,
      "note": 70,
      "start": 15.1041,
      "duration": 0.0144,
      "velocity": 89,
      "chip": "ym2612"
    },
    {
      "channel": 2,
      "note": 70,
      "start": 15.1048,
      "duration": 0.3156,
      "velocity": 89,
      "chip": "ym2612"
    },
    {
      "channel": 0,
      "note": 51,
      "start": 15.1179,
      "duration": 0.0144,
      "velocity": 95,
      "chip": "ym2612"
    },
    {
      "channel": 1,
      "note": 70,
      "start": 15.1186,
      "duration": 0.0142,
      "velocity": 89,
      "chip": "ym2612"
    },
    {
      "channel": 0,
      "note": 51,
      "start": 15.1324,
      "duration": 0.0142,
      "velocity": 95,
      "chip": "ym2612"
    },
    {
      "channel": 1,
      "note": 70,
      "start": 15.1328,
      "duration": 0.0144,
      "velocity": 89,
      "chip": "ym2612"
    },
    {
      "channel": 0,
      "note": 51,
      "start": 15.1466,
      "duration": 0.0146,
      "velocity": 95,
      "chip": "ym2612"
    },
    {
      "channel": 1,
      "note": 70,
      "start": 15.1473,
      "duration": 0.0146,
      "velocity": 89,
      "chip": "ym2612"
    },
    {
      "channel": 0,
      "note": 51,
      "start": 15.1612,
      "duration": 0.0144,
      "velocity": 95,
      "chip": "ym2612"
    },
    {
      "channel": 1,
      "note": 70,
      "start": 15.1619,
      "duration": 0.0144,
      "velocity": 89,
      "chip": "ym2612"
    },
    {
      "channel": 0,
      "note": 51,
      "start": 15.1757,
      "duration": 0.0144,
      "velocity": 95,
      "chip": "ym2612"
    },
    {
      "channel": 1,
      "note": 70,
      "start": 15.1763,
      "duration": 0.0143,
      "velocity": 89,
      "chip": "ym2612"
    },
    {
      "channel": 0,
      "note": 51,
      "start": 15.1901,
      "duration": 0.0142,
      "velocity": 95,
      "chip": "ym2612"
    },
    {
      "channel": 1,
      "note": 70,
      "start": 15.1906,
      "duration": 0.0144,
      "velocity": 89,
      "chip": "ym2612"
    },
    {
      "channel": 0,
      "note": 51,
      "start": 15.2044,
      "duration": 0.0146,
      "velocity": 95,
      "chip": "ym2612"
    },
    {
      "channel": 1,
      "note": 70,
      "start": 15.205,
      "duration": 0.0146,
      "velocity": 89,
      "chip": "ym2612"
    },
    {
      "channel": 0,
      "note": 51,
      "start": 15.219,
      "duration": 0.0144,
      "velocity": 95,
      "chip": "ym2612"
    },
    {
      "channel": 1,
      "note": 70,
      "start": 15.2197,
      "duration": 0.0144,
      "velocity": 89,
      "chip": "ym2612"
    },
    {
      "channel": 0,
      "note": 51,
      "start": 15.2335,
      "duration": 0.0145,
      "velocity": 95,
      "chip": "ym2612"
    },
    {
      "channel": 1,
      "note": 70,
      "start": 15.2341,
      "duration": 0.0144,
      "velocity": 89,
      "chip": "ym2612"
    },
    {
      "channel": 0,
      "note": 51,
      "start": 15.248,
      "duration": 0.0144,
      "velocity": 95,
      "chip": "ym2612"
    },
    {
      "channel": 1,
      "note": 70,
      "start": 15.2485,
      "duration": 0.0143,
      "velocity": 89,
      "chip": "ym2612"
    },
    {
      "channel": 0,
      "note": 51,
      "start": 15.2624,
      "duration": 0.0143,
      "velocity": 95,
      "chip": "ym2612"
    },
    {
      "channel": 1,
      "note": 70,
      "start": 15.2629,
      "duration": 0.0144,
      "velocity": 89,
      "chip": "ym2612"
    },
    {
      "channel": 0,
      "note": 51,
      "start": 15.2767,
      "duration": 0.0146,
      "velocity": 95,
      "chip": "ym2612"
    },
    {
      "channel": 1,
      "note": 70,
      "start": 15.2773,
      "duration": 0.0146,
      "velocity": 89,
      "chip": "ym2612"
    },
    {
      "channel": 0,
      "note": 51,
      "start": 15.2913,
      "duration": 0.0144,
      "velocity": 95,
      "chip": "ym2612"
    },
    {
      "channel": 1,
      "note": 70,
      "start": 15.2919,
      "duration": 0.0144,
      "velocity": 89,
      "chip": "ym2612"
    },
    {
      "channel": 0,
      "note": 51,
      "start": 15.3057,
      "duration": 0.0147,
      "velocity": 95,
      "chip": "ym2612"
    },
    {
      "channel": 1,
      "note": 70,
      "start": 15.3063,
      "duration": 0.0146,
      "velocity": 89,
      "chip": "ym2612"
    },
    {
      "channel": 0,
      "note": 51,
      "start": 15.3204,
      "duration": 0.0139,
      "velocity": 95,
      "chip": "ym2612"
    },
    {
      "channel": 1,
      "note": 70,
      "start": 15.3209,
      "duration": 0.0143,
      "velocity": 89,
      "chip": "ym2612"
    },
    {
      "channel": 0,
      "note": 51,
      "start": 15.3347,
      "duration": 0.3161,
      "velocity": 95,
      "chip": "ym2612"
    },
    {
      "channel": 1,
      "note": 70,
      "start": 15.3352,
      "duration": 0.0039,
      "velocity": 89,
      "chip": "ym2612"
    },
    {
      "channel": 3,
      "note": 77,
      "start": 15.3359,
      "duration": 0.3163,
      "velocity": 99,
      "chip": "ym2612"
    },
    {
      "channel": 1,
      "note": 70,
      "start": 15.339,
      "duration": 0.003,
      "velocity": 89,
      "chip": "ym2612"
    },
    {
      "channel": 1,
      "note": 70,
      "start": 15.342,
      "duration": 0.0057,
      "velocity": 89,
      "chip": "ym2612"
    },
    {
      "channel": 1,
      "note": 70,
      "start": 15.3477,
      "duration": 0.0143,
      "velocity": 89,
      "chip": "ym2612"
    },
    {
      "channel": 1,
      "note": 70,
      "start": 15.362,
      "duration": 0.0146,
      "velocity": 89,
      "chip": "ym2612"
    },
    {
      "channel": 1,
      "note": 70,
      "start": 15.3766,
      "duration": 0.0145,
      "velocity": 89,
      "chip": "ym2612"
    },
    {
      "channel": 1,
      "note": 70,
      "start": 15.3911,
      "duration": 0.0144,
      "velocity": 89,
      "chip": "ym2612"
    },
    {
      "channel": 1,
      "note": 70,
      "start": 15.4055,
      "duration": 0.0143,
      "velocity": 89,
      "chip": "ym2612"
    },
    {
      "channel": 1,
      "note": 70,
      "start": 15.4198,
      "duration": 0.0146,
      "velocity": 89,
      "chip": "ym2612"
    },
    {
      "channel": 2,
      "note": 71,
      "start": 15.4204,
      "duration": 0.0146,
      "velocity": 89,
      "chip": "ym2612"
    },
    {
      "channel": 1,
      "note": 70,
      "start": 15.4344,
      "duration": 0.0145,
      "velocity": 89,
      "chip": "ym2612"
    },
    {
      "channel": 2,
      "note": 70,
      "start": 15.435,
      "duration": 0.0144,
      "velocity": 89,
      "chip": "ym2612"
    },
    {
      "channel": 1,
      "note": 70,
      "start": 15.4489,
      "duration": 0.0144,
      "velocity": 89,
      "chip": "ym2612"
    },
    {
      "channel": 2,
      "note": 70,
      "start": 15.4493,
      "duration": 0.0146,
      "velocity": 89,
      "chip": "ym2612"
    },
    {
      "channel": 1,
      "note": 70,
      "start": 15.4633,
      "duration": 0.0144,
      "velocity": 89,
      "chip": "ym2612"
    },
    {
      "channel": 2,
      "note": 70,
      "start": 15.4639,
      "duration": 0.0144,
      "velocity": 89,
      "chip": "ym2612"
    },
    {
      "channel": 1,
      "note": 70,
      "start": 15.4777,
      "duration": 0.0143,
      "velocity": 89,
      "chip": "ym2612"
    },
    {
      "channel": 2,
      "note": 70,
      "start": 15.4783,
      "duration": 0.0142,
      "velocity": 89,
      "chip": "ym2612"
    },
    {
      "channel": 1,
      "note": 70,
      "start": 15.492,
      "duration": 0.0146,
      "velocity": 89,
      "chip": "ym2612"
    },
    {
      "channel": 2,
      "note": 70,
      "start": 15.4926,
      "duration": 0.0144,
      "velocity": 89,
      "chip": "ym2612"
    },
    {
      "channel": 1,
      "note": 70,
      "start": 15.5066,
      "duration": 0.0144,
      "velocity": 89,
      "chip": "ym2612"
    },
    {
      "channel": 2,
      "note": 70,
      "start": 15.507,
      "duration": 0.0146,
      "velocity": 89,
      "chip": "ym2612"
    },
    {
      "channel": 1,
      "note": 70,
      "start": 15.521,
      "duration": 0.0144,
      "velocity": 89,
      "chip": "ym2612"
    },
    {
      "channel": 2,
      "note": 70,
      "start": 15.5217,
      "duration": 0.0144,
      "velocity": 89,
      "chip": "ym2612"
    },
    {
      "channel": 1,
      "note": 70,
      "start": 15.5355,
      "duration": 0.0143,
      "velocity": 89,
      "chip": "ym2612"
    },
    {
      "channel": 2,
      "note": 71,
      "start": 15.5361,
      "duration": 0.0143,
      "velocity": 89,
      "chip": "ym2612"
    },
    {
      "channel": 1,
      "note": 70,
      "start": 15.5498,
      "duration": 0.0146,
      "velocity": 89,
      "chip": "ym2612"
    },
    {
      "channel": 2,
      "note": 71,
      "start": 15.5504,
      "duration": 0.0146,
      "velocity": 89,
      "chip": "ym2612"
    },
    {
      "channel": 1,
      "note": 70,
      "start": 15.5644,
      "duration": 0.0144,
      "velocity": 89,
      "chip": "ym2612"
    },
    {
      "channel": 2,
      "note": 70,
      "start": 15.5651,
      "duration": 0.0143,
      "velocity": 89,
      "chip": "ym2612"
    },
    {
      "channel": 1,
      "note": 70,
      "start": 15.5788,
      "duration": 0.0144,
      "velocity": 89,
      "chip": "ym2612"
    },
    {
      "channel": 2,
      "note": 70,
      "start": 15.5794,
      "duration": 0.0145,
      "velocity": 89,
      "chip": "ym2612"
    },
    {
      "channel": 1,
      "note": 70,
      "start": 15.5933,
      "duration": 0.0144,
      "velocity": 89,
      "chip": "ym2612"
    },
    {
      "channel": 2,
      "note": 70,
      "start": 15.5939,
      "duration": 0.0145,
      "velocity": 89,
      "chip": "ym2612"
    },
    {
      "channel": 1,
      "note": 70,
      "start": 15.6077,
      "duration": 0.0145,
      "velocity": 89,
      "chip": "ym2612"
    },
    {
      "channel": 2,
      "note": 70,
      "start": 15.6084,
      "duration": 0.0144,
      "velocity": 89,
      "chip": "ym2612"
    },
    {
      "channel": 1,
      "note": 70,
      "start": 15.6222,
      "duration": 0.0144,
      "velocity": 89,
      "chip": "ym2612"
    },
    {
      "channel": 2,
      "note": 70,
      "start": 15.6228,
      "duration": 0.0143,
      "velocity": 89,
      "chip": "ym2612"
    },
    {
      "channel": 1,
      "note": 70,
      "start": 15.6366,
      "duration": 0.0148,
      "velocity": 89,
      "chip": "ym2612"
    },
    {
      "channel": 2,
      "note": 70,
      "start": 15.6371,
      "duration": 0.0149,
      "velocity": 89,
      "chip": "ym2612"
    },
    {
      "channel": 0,
      "note": 51,
      "start": 15.6508,
      "duration": 0.0145,
      "velocity": 95,
      "chip": "ym2612"
    },
    {
      "channel": 1,
      "note": 70,
      "start": 15.6514,
      "duration": 0.0144,
      "velocity": 89,
      "chip": "ym2612"
    },
    {
      "channel": 2,
      "note": 70,
      "start": 15.6521,
      "duration": 0.0144,
      "velocity": 89,
      "chip": "ym2612"
    },
    {
      "channel": 3,
      "note": 78,
      "start": 15.6527,
      "duration": 0.3464,
      "velocity": 99,
      "chip": "ym2612"
    },
    {
      "channel": 4,
      "note": 77,
      "start": 15.6533,
      "duration": 0.3464,
      "velocity": 99,
      "chip": "ym2612"
    },
    {
      "channel": 0,
      "note": 51,
      "start": 15.6653,
      "duration": 0.0142,
      "velocity": 95,
      "chip": "ym2612"
    },
    {
      "channel": 1,
      "note": 70,
      "start": 15.6659,
      "duration": 0.0142,
      "velocity": 89,
      "chip": "ym2612"
    },
    {
      "channel": 2,
      "note": 71,
      "start": 15.6665,
      "duration": 0.0141,
      "velocity": 89,
      "chip": "ym2612"
    },
    {
      "channel": 0,
      "note": 51,
      "start": 15.6795,
      "duration": 0.0146,
      "velocity": 95,
      "chip": "ym2612"
    },
    {
      "channel": 1,
      "note": 70,
      "start": 15.6801,
      "duration": 0.0147,
      "velocity": 89,
      "chip": "ym2612"
    },
    {
      "channel": 2,
      "note": 71,
      "start": 15.6806,
      "duration": 0.0148,
      "velocity": 89,
      "chip": "ym2612"
    },
    {
      "channel": 0,
      "note": 51,
      "start": 15.6942,
      "duration": 0.0144,
      "velocity": 95,
      "chip": "ym2612"
    },
    {
      "channel": 1,
      "note": 70,
      "start": 15.6948,
      "duration": 0.0144,
      "velocity": 89,
      "chip": "ym2612"
    },
    {
      "channel": 2,
      "note": 70,
      "start": 15.6954,
      "duration": 0.0143,
      "velocity": 89,
      "chip": "ym2612"
    },
    {
      "channel": 0,
      "note": 51,
      "start": 15.7085,
      "duration": 0.0145,
      "velocity": 95,
      "chip": "ym2612"
    },
    {
      "channel": 1,
      "note": 70,
      "start": 15.7092,
      "duration": 0.0144,
      "velocity": 89,
      "chip": "ym2612"
    },
    {
      "channel": 2,
      "note": 70,
      "start": 15.7097,
      "duration": 0.0146,
      "velocity": 89,
      "chip": "ym2612"
    },
    {
      "channel": 0,
      "note": 51,
      "start": 15.7231,
      "duration": 0.0143,
      "velocity": 95,
      "chip": "ym2612"
    },
    {
      "channel": 1,
      "note": 70,
      "start": 15.7236,
      "duration": 0.0143,
      "velocity": 89,
      "chip": "ym2612"
    },
    {
      "channel": 2,
      "note": 70,
      "start": 15.7243,
      "duration": 0.0143,
      "velocity": 89,
      "chip": "ym2612"
    },
    {
      "channel": 0,
      "note": 51,
      "start": 15.7374,
      "duration": 0.0146,
      "velocity": 95,
      "chip": "ym2612"
    },
    {
      "channel": 1,
      "note": 70,
      "start": 15.7379,
      "duration": 0.0145,
      "velocity": 89,
      "chip": "ym2612"
    },
    {
      "channel": 2,
      "note": 70,
      "start": 15.7386,
      "duration": 0.0144,
      "velocity": 89,
      "chip": "ym2612"
    },
    {
      "channel": 0,
      "note": 51,
      "start": 15.752,
      "duration": 0.0144,
      "velocity": 95,
      "chip": "ym2612"
    },
    {
      "channel": 1,
      "note": 70,
      "start": 15.7524,
      "duration": 0.0146,
      "velocity": 89,
      "chip": "ym2612"
    },
    {
      "channel": 2,
      "note": 70,
      "start": 15.753,
      "duration": 0.0144,
      "velocity": 89,
      "chip": "ym2612"
    },
    {
      "channel": 0,
      "note": 51,
      "start": 15.7664,
      "duration": 0.0144,
      "velocity": 95,
      "chip": "ym2612"
    },
    {
      "channel": 1,
      "note": 70,
      "start": 15.767,
      "duration": 0.0144,
      "velocity": 89,
      "chip": "ym2612"
    },
    {
      "channel": 2,
      "note": 70,
      "start": 15.7675,
      "duration": 0.0146,
      "velocity": 89,
      "chip": "ym2612"
    },
    {
      "channel": 0,
      "note": 51,
      "start": 15.7808,
      "duration": 0.0144,
      "velocity": 95,
      "chip": "ym2612"
    },
    {
      "channel": 1,
      "note": 70,
      "start": 15.7815,
      "duration": 0.0144,
      "velocity": 89,
      "chip": "ym2612"
    },
    {
      "channel": 2,
      "note": 70,
      "start": 15.7821,
      "duration": 0.0144,
      "velocity": 89,
      "chip": "ym2612"
    },
    {
      "channel": 0,
      "note": 51,
      "start": 15.7953,
      "duration": 0.0143,
      "velocity": 95,
      "chip": "ym2612"
    },
    {
      "channel": 1,
      "note": 70,
      "start": 15.7959,
      "duration": 0.0141,
      "velocity": 89,
      "chip": "ym2612"
    },
    {
      "channel": 2,
      "note": 71,
      "start": 15.7965,
      "duration": 0.0141,
      "velocity": 89,
      "chip": "ym2612"
    },
    {
      "channel": 0,
      "note": 51,
      "start": 15.8096,
      "duration": 0.0146,
      "velocity": 95,
      "chip": "ym2612"
    },
    {
      "channel": 1,
      "note": 70,
      "start": 15.81,
      "duration": 0.0148,
      "velocity": 89,
      "chip": "ym2612"
    },
    {
      "channel": 2,
      "note": 71,
      "start": 15.8107,
      "duration": 0.0148,
      "velocity": 89,
      "chip": "ym2612"
    },
    {
      "channel": 0,
      "note": 51,
      "start": 15.8241,
      "duration": 0.0144,
      "velocity": 95,
      "chip": "ym2612"
    },
    {
      "channel": 1,
      "note": 70,
      "start": 15.8248,
      "duration": 0.0144,
      "velocity": 89,
      "chip": "ym2612"
    },
    {
      "channel": 2,
      "note": 70,
      "start": 15.8254,
      "duration": 0.0142,
      "velocity": 89,
      "chip": "ym2612"
    },
    {
      "channel": 0,
      "note": 51,
      "start": 15.8386,
      "duration": 0.0144,
      "velocity": 95,
      "chip": "ym2612"
    },
    {
      "channel": 1,
      "note": 70,
      "start": 15.8392,
      "duration": 0.0144,
      "velocity": 89,
      "chip": "ym2612"
    },
    {
      "channel": 2,
      "note": 70,
      "start": 15.8397,
      "duration": 0.0146,
      "velocity": 89,
      "chip": "ym2612"
    },
    {
      "channel": 0,
      "note": 51,
      "start": 15.853,
      "duration": 0.0143,
      "velocity": 95,
      "chip": "ym2612"
    },
    {
      "channel": 1,
      "note": 70,
      "start": 15.8537,
      "duration": 0.0143,
      "velocity": 89,
      "chip": "ym2612"
    },
    {
      "channel": 2,
      "note": 70,
      "start": 15.8543,
      "duration": 0.0143,
      "velocity": 89,
      "chip": "ym2612"
    },
    {
      "channel": 0,
      "note": 51,
      "start": 15.8673,
      "duration": 0.0146,
      "velocity": 95,
      "chip": "ym2612"
    },
    {
      "channel": 1,
      "note": 70,
      "start": 15.868,
      "duration": 0.0144,
      "velocity": 89,
      "chip": "ym2612"
    },
    {
      "channel": 2,
      "note": 70,
      "start": 15.8686,
      "duration": 0.0144,
      "velocity": 89,
      "chip": "ym2612"
    },
    {
      "channel": 0,
      "note": 51,
      "start": 15.882,
      "duration": 0.0144,
      "velocity": 95,
      "chip": "ym2612"
    },
    {
      "channel": 1,
      "note": 70,
      "start": 15.8824,
      "duration": 0.0146,
      "velocity": 89,
      "chip": "ym2612"
    },
    {
      "channel": 2,
      "note": 70,
      "start": 15.883,
      "duration": 0.0144,
      "velocity": 89,
      "chip": "ym2612"
    },
    {
      "channel": 0,
      "note": 51,
      "start": 15.8964,
      "duration": 0.0144,
      "velocity": 95,
      "chip": "ym2612"
    },
    {
      "channel": 1,
      "note": 70,
      "start": 15.897,
      "duration": 0.0144,
      "velocity": 89,
      "chip": "ym2612"
    },
    {
      "channel": 2,
      "note": 70,
      "start": 15.8975,
      "duration": 0.0146,
      "velocity": 89,
      "chip": "ym2612"
    },
    {
      "channel": 0,
      "note": 51,
      "start": 15.9108,
      "duration": 0.0144,
      "velocity": 95,
      "chip": "ym2612"
    },
    {
      "channel": 1,
      "note": 70,
      "start": 15.9114,
      "duration": 0.0145,
      "velocity": 89,
      "chip": "ym2612"
    },
    {
      "channel": 2,
      "note": 70,
      "start": 15.9121,
      "duration": 0.0145,
      "velocity": 89,
      "chip": "ym2612"
    },
    {
      "channel": 0,
      "note": 51,
      "start": 15.9253,
      "duration": 0.0143,
      "velocity": 95,
      "chip": "ym2612"
    },
    {
      "channel": 1,
      "note": 70,
      "start": 15.9259,
      "duration": 0.0141,
      "velocity": 89,
      "chip": "ym2612"
    },
    {
      "channel": 2,
      "note": 71,
      "start": 15.9266,
      "duration": 0.0141,
      "velocity": 89,
      "chip": "ym2612"
    },
    {
      "channel": 0,
      "note": 51,
      "start": 15.9395,
      "duration": 0.0147,
      "velocity": 95,
      "chip": "ym2612"
    },
    {
      "channel": 1,
      "note": 70,
      "start": 15.94,
      "duration": 0.0149,
      "velocity": 89,
      "chip": "ym2612"
    },
    {
      "channel": 2,
      "note": 71,
      "start": 15.9406,
      "duration": 0.0149,
      "velocity": 89,
      "chip": "ym2612"
    },
    {
      "channel": 0,
      "note": 51,
      "start": 15.9543,
      "duration": 0.0143,
      "velocity": 95,
      "chip": "ym2612"
    },
    {
      "channel": 1,
      "note": 70,
      "start": 15.9549,
      "duration": 0.0143,
      "velocity": 89,
      "chip": "ym2612"
    },
    {
      "channel": 2,
      "note": 70,
      "start": 15.9555,
      "duration": 0.0142,
      "velocity": 89,
      "chip": "ym2612"
    },
    {
      "channel": 0,
      "note": 51,
      "start": 15.9686,
      "duration": 0.0144,
      "velocity": 95,
      "chip": "ym2612"
    },
    {
      "channel": 1,
      "note": 70,
      "start": 15.9693,
      "duration": 0.0144,
      "velocity": 89,
      "chip": "ym2612"
    },
    {
      "channel": 2,
      "note": 70,
      "start": 15.9697,
      "duration": 0.0146,
      "velocity": 89,
      "chip": "ym2612"
    },
    {
      "channel": 0,
      "note": 51,
      "start": 15.983,
      "duration": 0.0141,
      "velocity": 95,
      "chip": "ym2612"
    },
    {
      "channel": 1,
      "note": 70,
      "start": 15.9837,
      "duration": 0.0143,
      "velocity": 89,
      "chip": "ym2612"
    },
    {
      "channel": 2,
      "note": 70,
      "start": 15.9843,
      "duration": 0.0146,
      "velocity": 89,
      "chip": "ym2612"
    },
    {
      "channel": 0,
      "note": 53,
      "start": 15.9976,
      "duration": 0.3161,
      "velocity": 95,
      "chip": "ym2612"
    },
    {
      "channel": 1,
      "note": 65,
      "start": 15.9984,
      "duration": 0.1996,
      "velocity": 89,
      "chip": "ym2612"
    },
    {
      "channel": 2,
      "note": 70,
      "start": 15.9989,
      "duration": 0.0044,
      "velocity": 89,
      "chip": "ym2612"
    },
    {
      "channel": 3,
      "note": 77,
      "start": 15.9995,
      "duration": 1.3252,
      "velocity": 99,
      "chip": "ym2612"
    },
    {
      "channel": 4,
      "note": 78,
      "start": 16.0002,
      "duration": 0.3151,
      "velocity": 99,
      "chip": "ym2612"
    },
    {
      "channel": 2,
      "note": 70,
      "start": 16.0033,
      "duration": 0.0029,
      "velocity": 89,
      "chip": "ym2612"
    },
    {
      "channel": 2,
      "note": 70,
      "start": 16.0061,
      "duration": 0.0047,
      "velocity": 89,
      "chip": "ym2612"
    },
    {
      "channel": 2,
      "note": 70,
      "start": 16.0109,
      "duration": 0.0144,
      "velocity": 89,
      "chip": "ym2612"
    },
    {
      "channel": 2,
      "note": 71,
      "start": 16.0253,
      "duration": 0.0144,
      "velocity": 89,
      "chip": "ym2612"
    },
    {
      "channel": 2,
      "note": 71,
      "start": 16.0398,
      "duration": 0.0144,
      "velocity": 89,
      "chip": "ym2612"
    },
    {
      "channel": 2,
      "note": 70,
      "start": 16.0542,
      "duration": 0.0143,
      "velocity": 89,
      "chip": "ym2612"
    },
    {
      "channel": 2,
      "note": 70,
      "start": 16.0685,
      "duration": 0.0146,
      "velocity": 89,
      "chip": "ym2612"
    },
    {
      "channel": 2,
      "note": 70,
      "start": 16.0831,
      "duration": 0.0144,
      "velocity": 89,
      "chip": "ym2612"
    },
    {
      "channel": 2,
      "note": 70,
      "start": 16.0975,
      "duration": 0.0144,
      "velocity": 89,
      "chip": "ym2612"
    },
    {
      "channel": 2,
      "note": 70,
      "start": 16.112,
      "duration": 0.0143,
      "velocity": 89,
      "chip": "ym2612"
    },
    {
      "channel": 2,
      "note": 70,
      "start": 16.1263,
      "duration": 0.0146,
      "velocity": 89,
      "chip": "ym2612"
    },
    {
      "channel": 2,
      "note": 70,
      "start": 16.1408,
      "duration": 0.0145,
      "velocity": 89,
      "chip": "ym2612"
    },
    {
      "channel": 2,
      "note": 71,
      "start": 16.1554,
      "duration": 0.0144,
      "velocity": 89,
      "chip": "ym2612"
    },
    {
      "channel": 2,
      "note": 71,
      "start": 16.1698,
      "duration": 0.0144,
      "velocity": 89,
      "chip": "ym2612"
    },
    {
      "channel": 2,
      "note": 70,
      "start": 16.1842,
      "duration": 0.0146,
      "velocity": 89,
      "chip": "ym2612"
    },
    {
      "channel": 1,
      "note": 68,
      "start": 16.1985,
      "duration": 0.231,
      "velocity": 89,
      "chip": "ym2612"
    },
    {
      "channel": 2,
      "note": 70,
      "start": 16.1988,
      "duration": 0.0143,
      "velocity": 89,
      "chip": "ym2612"
    },
    {
      "channel": 2,
      "note": 70,
      "start": 16.2131,
      "duration": 0.0144,
      "velocity": 89,
      "chip": "ym2612"
    },
    {
      "channel": 2,
      "note": 70,
      "start": 16.2276,
      "duration": 0.0144,
      "velocity": 89,
      "chip": "ym2612"
    },
    {
      "channel": 2,
      "note": 70,
      "start": 16.242,
      "duration": 0.0143,
      "velocity": 89,
      "chip": "ym2612"
    },
    {
      "channel": 2,
      "note": 70,
      "start": 16.2563,
      "duration": 0.0146,
      "velocity": 89,
      "chip": "ym2612"
    },
    {
      "channel": 2,
      "note": 70,
      "start": 16.2709,
      "duration": 0.0144,
      "velocity": 89,
      "chip": "ym2612"
    },
    {
      "channel": 2,
      "note": 71,
      "start": 16.2854,
      "duration": 0.0144,
      "velocity": 89,
      "chip": "ym2612"
    },
    {
      "channel": 2,
      "note": 71,
      "start": 16.2998,
      "duration": 0.0148,
      "velocity": 89,
      "chip": "ym2612"
    },
    {
      "channel": 0,
      "note": 53,
      "start": 16.3137,
      "duration": 0.0144,
      "velocity": 95,
      "chip": "ym2612"
    },
    {
      "channel": 2,
      "note": 70,
      "start": 16.3146,
      "duration": 0.0143,
      "velocity": 89,
      "chip": "ym2612"
    },
    {
      "channel": 4,
      "note": 77,
      "start": 16.3156,
      "duration": 1.3256,
      "velocity": 99,
      "chip": "ym2612"
    },
    {
      "channel": 0,
      "note": 53,
      "start": 16.3282,
      "duration": 0.0142,
      "velocity": 95,
      "chip": "ym2612"
    },
    {
      "channel": 2,
      "note": 70,
      "start": 16.3289,
      "duration": 0.0144,
      "velocity": 89,
      "chip": "ym2612"
    },
    {
      "channel": 0,
      "note": 53,
      "start": 16.3424,
      "duration": 0.0146,
      "velocity": 95,
      "chip": "ym2612"
    },
    {
      "channel": 2,
      "note": 70,
      "start": 16.3433,
      "duration": 0.0146,
      "velocity": 89,
      "chip": "ym2612"
    },
    {
      "channel": 0,
      "note": 53,
      "start": 16.357,
      "duration": 0.0145,
      "velocity": 95,
      "chip": "ym2612"
    },
    {
      "channel": 2,
      "note": 70,
      "start": 16.3579,
      "duration": 0.0145,
      "velocity": 89,
      "chip": "ym2612"
    },
    {
      "channel": 0,
      "note": 53,
      "start": 16.3715,
      "duration": 0.0144,
      "velocity": 95,
      "chip": "ym2612"
    },
    {
      "channel": 2,
      "note": 70,
      "start": 16.3724,
      "duration": 0.0142,
      "velocity": 89,
      "chip": "ym2612"
    },
    {
      "channel": 0,
      "note": 53,
      "start": 16.3859,
      "duration": 0.0143,
      "velocity": 95,
      "chip": "ym2612"
    },
    {
      "channel": 2,
      "note": 70,
      "start": 16.3866,
      "duration": 0.0145,
      "velocity": 89,
      "chip": "ym2612"
    },
    {
      "channel": 0,
      "note": 53,
      "start": 16.4002,
      "duration": 0.0146,
      "velocity": 95,
      "chip": "ym2612"
    },
    {
      "channel": 2,
      "note": 70,
      "start": 16.4012,
      "duration": 0.0146,
      "velocity": 89,
      "chip": "ym2612"
    },
    {
      "channel": 0,
      "note": 53,
      "start": 16.4148,
      "duration": 0.0144,
      "velocity": 95,
      "chip": "ym2612"
    },
    {
      "channel": 2,
      "note": 71,
      "start": 16.4157,
      "duration": 0.0146,
      "velocity": 89,
      "chip": "ym2612"
    },
    {
      "channel": 0,
      "note": 53,
      "start": 16.4293,
      "duration": 0.0144,
      "velocity": 95,
      "chip": "ym2612"
    },
    {
      "channel": 1,
      "note": 70,
      "start": 16.4299,
      "duration": 0.2305,
      "velocity": 89,
      "chip": "ym2612"
    },
    {
      "channel": 2,
      "note": 71,
      "start": 16.4303,
      "duration": 0.0143,
      "velocity": 89,
      "chip": "ym2612"
    },
    {
      "channel": 0,
      "note": 53,
      "start": 16.4437,
      "duration": 0.0144,
      "velocity": 95,
      "chip": "ym2612"
    },
    {
      "channel": 2,
      "note": 70,
      "start": 16.4446,
      "duration": 0.0143,
      "velocity": 89,
      "chip": "ym2612"
    },
    {
      "channel": 0,
      "note": 53,
      "start": 16.4581,
      "duration": 0.0143,
      "velocity": 95,
      "chip": "ym2612"
    },
    {
      "channel": 2,
      "note": 70,
      "start": 16.4589,
      "duration": 0.0144,
      "velocity": 89,
      "chip": "ym2612"
    },
    {
      "channel": 0,
      "note": 53,
      "start": 16.4725,
      "duration": 0.0146,
      "velocity": 95,
      "chip": "ym2612"
    },
    {
      "channel": 2,
      "note": 70,
      "start": 16.4734,
      "duration": 0.0146,
      "velocity": 89,
      "chip": "ym2612"
    },
    {
      "channel": 0,
      "note": 53,
      "start": 16.487,
      "duration": 0.0144,
      "velocity": 95,
      "chip": "ym2612"
    },
    {
      "channel": 2,
      "note": 70,
      "start": 16.4879,
      "duration": 0.0144,
      "velocity": 89,
      "chip": "ym2612"
    },
    {
      "channel": 0,
      "note": 53,
      "start": 16.5015,
      "duration": 0.0144,
      "velocity": 95,
      "chip": "ym2612"
    },
    {
      "channel": 2,
      "note": 70,
      "start": 16.5024,
      "duration": 0.0143,
      "velocity": 89,
      "chip": "ym2612"
    },
    {
      "channel": 0,
      "note": 53,
      "start": 16.5159,
      "duration": 0.0143,
      "velocity": 95,
      "chip": "ym2612"
    },
    {
      "channel": 2,
      "note": 70,
      "start": 16.5167,
      "duration": 0.0144,
      "velocity": 89,
      "chip": "ym2612"
    },
    {
      "channel": 0,
      "note": 53,
      "start": 16.5302,
      "duration": 0.0146,
      "velocity": 95,
      "chip": "ym2612"
    },
    {
      "channel": 2,
      "note": 70,
      "start": 16.5311,
      "duration": 0.0146,
      "velocity": 89,
      "chip": "ym2612"
    },
    {
      "channel": 0,
      "note": 53,
      "start": 16.5448,
      "duration": 0.0145,
      "velocity": 95,
      "chip": "ym2612"
    },
    {
      "channel": 2,
      "note": 71,
      "start": 16.5457,
      "duration": 0.0145,
      "velocity": 89,
      "chip": "ym2612"
    },
    {
      "channel": 0,
      "note": 53,
      "start": 16.5593,
      "duration": 0.0144,
      "velocity": 95,
      "chip": "ym2612"
    },
    {
      "channel": 2,
      "note": 71,
      "start": 16.5602,
      "duration": 0.0144,
      "velocity": 89,
      "chip": "ym2612"
    },
    {
      "channel": 0,
      "note": 53,
      "start": 16.5737,
      "duration": 0.0144,
      "velocity": 95,
      "chip": "ym2612"
    },
    {
      "channel": 2,
      "note": 70,
      "start": 16.5746,
      "duration": 0.0143,
      "velocity": 89,
      "chip": "ym2612"
    },
    {
      "channel": 0,
      "note": 53,
      "start": 16.5882,
      "duration": 0.0143,
      "velocity": 95,
      "chip": "ym2612"
    },
    {
      "channel": 2,
      "note": 70,
      "start": 16.5889,
      "duration": 0.0145,
      "velocity": 89,
      "chip": "ym2612"
    },
    {
      "channel": 0,
      "note": 53,
      "start": 16.6025,
      "duration": 0.0146,
      "velocity": 95,
      "chip": "ym2612"
    },
    {
      "channel": 2,
      "note": 70,
      "start": 16.6034,
      "duration": 0.0146,
      "velocity": 89,
      "chip": "ym2612"
    },
    {
      "channel": 0,
      "note": 53,
      "start": 16.6171,
      "duration": 0.0144,
      "velocity": 95,
      "chip": "ym2612"
    },
    {
      "channel": 2,
      "note": 70,
      "start": 16.6179,
      "duration": 0.0144,
      "velocity": 89,
      "chip": "ym2612"
    },
    {
      "channel": 0,
      "note": 53,
      "start": 16.6315,
      "duration": 0.0144,
      "velocity": 95,
      "chip": "ym2612"
    },
    {
      "channel": 2,
      "note": 70,
      "start": 16.6324,
      "duration": 0.0143,
      "velocity": 89,
      "chip": "ym2612"
    },
    {
      "channel": 0,
      "note": 53,
      "start": 16.6459,
      "duration": 0.0143,
      "velocity": 95,
      "chip": "ym2612"
    },
    {
      "channel": 2,
      "note": 70,
      "start": 16.6467,
      "duration": 0.0146,
      "velocity": 89,
      "chip": "ym2612"
    },
    {
      "channel": 0,
      "note": 53,
      "start": 16.6602,
      "duration": 0.004,
      "velocity": 95,
      "chip": "ym2612"
    },
    {
      "channel": 1,
      "note": 73,
      "start": 16.6609,
      "duration": 0.3162,
      "velocity": 89,
      "chip": "ym2612"
    },
    {
      "channel": 2,
      "note": 70,
      "start": 16.6613,
      "duration": 0.0038,
      "velocity": 89,
      "chip": "ym2612"
    },
    {
      "channel": 0,
      "note": 53,
      "start": 16.6642,
      "duration": 0.0033,
      "velocity": 95,
      "chip": "ym2612"
    },
    {
      "channel": 2,
      "note": 71,
      "start": 16.6651,
      "duration": 0.0033,
      "velocity": 89,
      "chip": "ym2612"
    },
    {
      "channel": 0,
      "note": 53,
      "start": 16.6676,
      "duration": 0.0056,
      "velocity": 95,
      "chip": "ym2612"
    },
    {
      "channel": 2,
      "note": 71,
      "start": 16.6685,
      "duration": 0.0055,
      "velocity": 89,
      "chip": "ym2612"
    },
    {
      "channel": 0,
      "note": 53,
      "start": 16.6732,
      "duration": 0.0144,
      "velocity": 95,
      "chip": "ym2612"
    },
    {
      "channel": 2,
      "note": 70,
      "start": 16.674,
      "duration": 0.0144,
      "velocity": 89,
      "chip": "ym2612"
    },
    {
      "channel": 0,
      "note": 53,
      "start": 16.6876,
      "duration": 0.0142,
      "velocity": 95,
      "chip": "ym2612"
    },
    {
      "channel": 2,
      "note": 70,
      "start": 16.6884,
      "duration": 0.0144,
      "velocity": 89,
      "chip": "ym2612"
    },
    {
      "channel": 0,
      "note": 53,
      "start": 16.7019,
      "duration": 0.0146,
      "velocity": 95,
      "chip": "ym2612"
    },
    {
      "channel": 2,
      "note": 70,
      "start": 16.7027,
      "duration": 0.0146,
      "velocity": 89,
      "chip": "ym2612"
    },
    {
      "channel": 0,
      "note": 53,
      "start": 16.7165,
      "duration": 0.0144,
      "velocity": 95,
      "chip": "ym2612"
    },
    {
      "channel": 2,
      "note": 70,
      "start": 16.7174,
      "duration": 0.0144,
      "velocity": 89,
      "chip": "ym2612"
    },
    {
      "channel": 0,
      "note": 53,
      "start": 16.7309,
      "duration": 0.0144,
      "velocity": 95,
      "chip": "ym2612"
    },
    {
      "channel": 2,
      "note": 70,
      "start": 16.7318,
      "duration": 0.0143,
      "velocity": 89,
      "chip": "ym2612"
    },
    {
      "channel": 0,
      "note": 53,
      "start": 16.7454,
      "duration": 0.0143,
      "velocity": 95,
      "chip": "ym2612"
    },
    {
      "channel": 2,
      "note": 70,
      "start": 16.7461,
      "duration": 0.0144,
      "velocity": 89,
      "chip": "ym2612"
    },
    {
      "channel": 0,
      "note": 53,
      "start": 16.7597,
      "duration": 0.0146,
      "velocity": 95,
      "chip": "ym2612"
    },
    {
      "channel": 2,
      "note": 70,
      "start": 16.7606,
      "duration": 0.0146,
      "velocity": 89,
      "chip": "ym2612"
    },
    {
      "channel": 0,
      "note": 53,
      "start": 16.7742,
      "duration": 0.0145,
      "velocity": 95,
      "chip": "ym2612"
    },
    {
      "channel": 2,
      "note": 71,
      "start": 16.7751,
      "duration": 0.0145,
      "velocity": 89,
      "chip": "ym2612"
    },
    {
      "channel": 0,
      "note": 53,
      "start": 16.7888,
      "duration": 0.0144,
      "velocity": 95,
      "chip": "ym2612"
    },
    {
      "channel": 2,
      "note": 71,
      "start": 16.7896,
      "duration": 0.0144,
      "velocity": 89,
      "chip": "ym2612"
    },
    {
      "channel": 0,
      "note": 53,
      "start": 16.8031,
      "duration": 0.0144,
      "velocity": 95,
      "chip": "ym2612"
    },
    {
      "channel": 2,
      "note": 70,
      "start": 16.8041,
      "duration": 0.0143,
      "velocity": 89,
      "chip": "ym2612"
    },
    {
      "channel": 0,
      "note": 53,
      "start": 16.8176,
      "duration": 0.0143,
      "velocity": 95,
      "chip": "ym2612"
    },
    {
      "channel": 2,
      "note": 70,
      "start": 16.8183,
      "duration": 0.0144,
      "velocity": 89,
      "chip": "ym2612"
    },
    {
      "channel": 0,
      "note": 53,
      "start": 16.8319,
      "duration": 0.0146,
      "velocity": 95,
      "chip": "ym2612"
    },
    {
      "channel": 2,
      "note": 70,
      "start": 16.8328,
      "duration": 0.0146,
      "velocity": 89,
      "chip": "ym2612"
    },
    {
      "channel": 0,
      "note": 53,
      "start": 16.8464,
      "duration": 0.0145,
      "velocity": 95,
      "chip": "ym2612"
    },
    {
      "channel": 2,
      "note": 70,
      "start": 16.8473,
      "duration": 0.0145,
      "velocity": 89,
      "chip": "ym2612"
    },
    {
      "channel": 0,
      "note": 53,
      "start": 16.861,
      "duration": 0.0144,
      "velocity": 95,
      "chip": "ym2612"
    },
    {
      "channel": 2,
      "note": 70,
      "start": 16.8618,
      "duration": 0.0143,
      "velocity": 89,
      "chip": "ym2612"
    },
    {
      "channel": 0,
      "note": 53,
      "start": 16.8753,
      "duration": 0.0144,
      "velocity": 95,
      "chip": "ym2612"
    },
    {
      "channel": 2,
      "note": 70,
      "start": 16.8761,
      "duration": 0.0145,
      "velocity": 89,
      "chip": "ym2612"
    },
    {
      "channel": 0,
      "note": 53,
      "start": 16.8897,
      "duration": 0.0146,
      "velocity": 95,
      "chip": "ym2612"
    },
    {
      "channel": 2,
      "note": 70,
      "start": 16.8906,
      "duration": 0.0146,
      "velocity": 89,
      "chip": "ym2612"
    },
    {
      "channel": 0,
      "note": 53,
      "start": 16.9043,
      "duration": 0.0144,
      "velocity": 95,
      "chip": "ym2612"
    },
    {
      "channel": 2,
      "note": 71,
      "start": 16.9052,
      "duration": 0.0144,
      "velocity": 89,
      "chip": "ym2612"
    },
    {
      "channel": 0,
      "note": 53,
      "start": 16.9187,
      "duration": 0.0144,
      "velocity": 95,
      "chip": "ym2612"
    },
    {
      "channel": 2,
      "note": 71,
      "start": 16.9196,
      "duration": 0.0144,
      "velocity": 89,
      "chip": "ym2612"
    },
    {
      "channel": 0,
      "note": 53,
      "start": 16.9332,
      "duration": 0.0144,
      "velocity": 95,
      "chip": "ym2612"
    },
    {
      "channel": 2,
      "note": 70,
      "start": 16.934,
      "duration": 0.0143,
      "velocity": 89,
      "chip": "ym2612"
    },
    {
      "channel": 0,
      "note": 53,
      "start": 16.9476,
      "duration": 0.0143,
      "velocity": 95,
      "chip": "ym2612"
    },
    {
      "channel": 2,
      "note": 70,
      "start": 16.9484,
      "duration": 0.0144,
      "velocity": 89,
      "chip": "ym2612"
    },
    {
      "channel": 0,
      "note": 53,
      "start": 16.9619,
      "duration": 0.0146,
      "velocity": 95,
      "chip": "ym2612"
    },
    {
      "channel": 2,
      "note": 70,
      "start": 16.9628,
      "duration": 0.015,
      "velocity": 89,
      "chip": "ym2612"
    },
    {
      "channel": 0,
      "note": 53,
      "start": 16.9765,
      "duration": 0.0144,
      "velocity": 95,
      "chip": "ym2612"
    },
    {
      "channel": 1,
      "note": 73,
      "start": 16.9771,
      "duration": 0.0143,
      "velocity": 89,
      "chip": "ym2612"
    },
    {
      "channel": 2,
      "note": 70,
      "start": 16.9778,
      "duration": 0.0142,
      "velocity": 89,
      "chip": "ym2612"
    },
    {
      "channel": 0,
      "note": 53,
      "start": 16.9909,
      "duration": 0.0144,
      "velocity": 95,
      "chip": "ym2612"
    },
    {
      "channel": 1,
      "note": 73,
      "start": 16.9914,
      "duration": 0.0146,
      "velocity": 89,
      "chip": "ym2612"
    },
    {
      "channel": 2,
      "note": 70,
      "start": 16.992,
      "duration": 0.0144,
      "velocity": 89,
      "chip": "ym2612"
    },
    {
      "channel": 0,
      "note": 53,
      "start": 17.0054,
      "duration": 0.0143,
      "velocity": 95,
      "chip": "ym2612"
    },
    {
      "channel": 1,
      "note": 73,
      "start": 17.006,
      "duration": 0.0143,
      "velocity": 89,
      "chip": "ym2612"
    },
    {
      "channel": 2,
      "note": 70,
      "start": 17.0064,
      "duration": 0.0145,
      "velocity": 89,
      "chip": "ym2612"
    },
    {
      "channel": 0,
      "note": 53,
      "start": 17.0197,
      "duration": 0.0146,
      "velocity": 95,
      "chip": "ym2612"
    },
    {
      "channel": 1,
      "note": 73,
      "start": 17.0203,
      "duration": 0.0146,
      "velocity": 89,
      "chip": "ym2612"
    },
    {
      "channel": 2,
      "note": 70,
      "start": 17.021,
      "duration": 0.0146,
      "velocity": 89,
      "chip": "ym2612"
    },
    {
      "channel": 0,
      "note": 53,
      "start": 17.0343,
      "duration": 0.0144,
      "velocity": 95,
      "chip": "ym2612"
    },
    {
      "channel": 1,
      "note": 73,
      "start": 17.0349,
      "duration": 0.0143,
      "velocity": 89,
      "chip": "ym2612"
    },
    {
      "channel": 2,
      "note": 71,
      "start": 17.0356,
      "duration": 0.0142,
      "velocity": 89,
      "chip": "ym2612"
    },
    {
      "channel": 0,
      "note": 53,
      "start": 17.0487,
      "duration": 0.0144,
      "velocity": 95,
      "chip": "ym2612"
    },
    {
      "channel": 1,
      "note": 73,
      "start": 17.0493,
      "duration": 0.0146,
      "velocity": 89,
      "chip": "ym2612"
    },
    {
      "channel": 2,
      "note": 71,
      "start": 17.0498,
      "duration": 0.0146,
      "velocity": 89,
      "chip": "ym2612"
    },
    {
      "channel": 0,
      "note": 53,
      "start": 17.0632,
      "duration": 0.0144,
      "velocity": 95,
      "chip": "ym2612"
    },
    {
      "channel": 1,
      "note": 73,
      "start": 17.0638,
      "duration": 0.0144,
      "velocity": 89,
      "chip": "ym2612"
    },
    {
      "channel": 2,
      "note": 70,
      "start": 17.0644,
      "duration": 0.0143,
      "velocity": 89,
      "chip": "ym2612"
    },
    {
      "channel": 0,
      "note": 53,
      "start": 17.0776,
      "duration": 0.0143,
      "velocity": 95,
      "chip": "ym2612"
    },
    {
      "channel": 1,
      "note": 73,
      "start": 17.0783,
      "duration": 0.0143,
      "velocity": 89,
      "chip": "ym2612"
    },
    {
      "channel": 2,
      "note": 70,
      "start": 17.0787,
      "duration": 0.0144,
      "velocity": 89,
      "chip": "ym2612"
    },
    {
      "channel": 0,
      "note": 53,
      "start": 17.0919,
      "duration": 0.0146,
      "velocity": 95,
      "chip": "ym2612"
    },
    {
      "channel": 1,
      "note": 73,
      "start": 17.0926,
      "duration": 0.0146,
      "velocity": 89,
      "chip": "ym2612"
    },
    {
      "channel": 2,
      "note": 70,
      "start": 17.0932,
      "duration": 0.0146,
      "velocity": 89,
      "chip": "ym2612"
    },
    {
      "channel": 0,
      "note": 53,
      "start": 17.1065,
      "duration": 0.0144,
      "velocity": 95,
      "chip": "ym2612"
    },
    {
      "channel": 1,
      "note": 73,
      "start": 17.1071,
      "duration": 0.0142,
      "velocity": 89,
      "chip": "ym2612"
    },
    {
      "channel": 2,
      "note": 70,
      "start": 17.1077,
      "duration": 0.0143,
      "velocity": 89,
      "chip": "ym2612"
    },
    {
      "channel": 0,
      "note": 53,
      "start": 17.121,
      "duration": 0.0145,
      "velocity": 95,
      "chip": "ym2612"
    },
    {
      "channel": 1,
      "note": 73,
      "start": 17.1214,
      "duration": 0.0146,
      "velocity": 89,
      "chip": "ym2612"
    },
    {
      "channel": 2,
      "note": 70,
      "start": 17.122,
      "duration": 0.0145,
      "velocity": 89,
      "chip": "ym2612"
    },
    {
      "channel": 0,
      "note": 53,
      "start": 17.1354,
      "duration": 0.0143,
      "velocity": 95,
      "chip": "ym2612"
    },
    {
      "channel": 1,
      "note": 73,
      "start": 17.136,
      "duration": 0.0143,
      "velocity": 89,
      "chip": "ym2612"
    },
    {
      "channel": 2,
      "note": 70,
      "start": 17.1365,
      "duration": 0.0144,
      "velocity": 89,
      "chip": "ym2612"
    },
    {
      "channel": 0,
      "note": 53,
      "start": 17.1497,
      "duration": 0.0146,
      "velocity": 95,
      "chip": "ym2612"
    },
    {
      "channel": 1,
      "note": 73,
      "start": 17.1503,
      "duration": 0.0146,
      "velocity": 89,
      "chip": "ym2612"
    },
    {
      "channel": 2,
      "note": 70,
      "start": 17.151,
      "duration": 0.0146,
      "velocity": 89,
      "chip": "ym2612"
    },
    {
      "channel": 0,
      "note": 53,
      "start": 17.1643,
      "duration": 0.0144,
      "velocity": 95,
      "chip": "ym2612"
    },
    {
      "channel": 1,
      "note": 73,
      "start": 17.1649,
      "duration": 0.0143,
      "velocity": 89,
      "chip": "ym2612"
    },
    {
      "channel": 2,
      "note": 71,
      "start": 17.1655,
      "duration": 0.0143,
      "velocity": 89,
      "chip": "ym2612"
    },
    {
      "channel": 0,
      "note": 53,
      "start": 17.1787,
      "duration": 0.0145,
      "velocity": 95,
      "chip": "ym2612"
    },
    {
      "channel": 1,
      "note": 73,
      "start": 17.1792,
      "duration": 0.0146,
      "velocity": 89,
      "chip": "ym2612"
    },
    {
      "channel": 2,
      "note": 71,
      "start": 17.1798,
      "duration": 0.0146,
      "velocity": 89,
      "chip": "ym2612"
    },
    {
      "channel": 0,
      "note": 53,
      "start": 17.1932,
      "duration": 0.0144,
      "velocity": 95,
      "chip": "ym2612"
    },
    {
      "channel": 1,
      "note": 73,
      "start": 17.1938,
      "duration": 0.0144,
      "velocity": 89,
      "chip": "ym2612"
    },
    {
      "channel": 2,
      "note": 70,
      "start": 17.1945,
      "duration": 0.0142,
      "velocity": 89,
      "chip": "ym2612"
    },
    {
      "channel": 0,
      "note": 53,
      "start": 17.2076,
      "duration": 0.0143,
      "velocity": 95,
      "chip": "ym2612"
    },
    {
      "channel": 1,
      "note": 73,
      "start": 17.2083,
      "duration": 0.0143,
      "velocity": 89,
      "chip": "ym2612"
    },
    {
      "channel": 2,
      "note": 70,
      "start": 17.2087,
      "duration": 0.0144,
      "velocity": 89,
      "chip": "ym2612"
    },
    {
      "channel": 0,
      "note": 53,
      "start": 17.222,
      "duration": 0.0146,
      "velocity": 95,
      "chip": "ym2612"
    },
    {
      "channel": 1,
      "note": 73,
      "start": 17.2225,
      "duration": 0.0146,
      "velocity": 89,
      "chip": "ym2612"
    },
    {
      "channel": 2,
      "note": 70,
      "start": 17.2232,
      "duration": 0.0146,
      "velocity": 89,
      "chip": "ym2612"
    },
    {
      "channel": 0,
      "note": 53,
      "start": 17.2365,
      "duration": 0.0144,
      "velocity": 95,
      "chip": "ym2612"
    },
    {
      "channel": 1,
      "note": 73,
      "start": 17.2372,
      "duration": 0.0143,
      "velocity": 89,
      "chip": "ym2612"
    },
    {
      "channel": 2,
      "note": 70,
      "start": 17.2377,
      "duration": 0.0143,
      "velocity": 89,
      "chip": "ym2612"
    },
    {
      "channel": 0,
      "note": 53,
      "start": 17.251,
      "duration": 0.0144,
      "velocity": 95,
      "chip": "ym2612"
    },
    {
      "channel": 1,
      "note": 73,
      "start": 17.2515,
      "duration": 0.0146,
      "velocity": 89,
      "chip": "ym2612"
    },
    {
      "channel": 2,
      "note": 70,
      "start": 17.252,
      "duration": 0.0144,
      "velocity": 89,
      "chip": "ym2612"
    },
    {
      "channel": 0,
      "note": 53,
      "start": 17.2654,
      "duration": 0.0143,
      "velocity": 95,
      "chip": "ym2612"
    },
    {
      "channel": 1,
      "note": 73,
      "start": 17.2661,
      "duration": 0.0142,
      "velocity": 89,
      "chip": "ym2612"
    },
    {
      "channel": 2,
      "note": 70,
      "start": 17.2665,
      "duration": 0.0144,
      "velocity": 89,
      "chip": "ym2612"
    },
    {
      "channel": 0,
      "note": 53,
      "start": 17.2797,
      "duration": 0.0146,
      "velocity": 95,
      "chip": "ym2612"
    },
    {
      "channel": 1,
      "note": 73,
      "start": 17.2803,
      "duration": 0.0146,
      "velocity": 89,
      "chip": "ym2612"
    },
    {
      "channel": 2,
      "note": 70,
      "start": 17.2809,
      "duration": 0.0146,
      "velocity": 89,
      "chip": "ym2612"
    },
    {
      "channel": 0,
      "note": 53,
      "start": 17.2943,
      "duration": 0.0144,
      "velocity": 95,
      "chip": "ym2612"
    },
    {
      "channel": 1,
      "note": 73,
      "start": 17.2949,
      "duration": 0.0143,
      "velocity": 89,
      "chip": "ym2612"
    },
    {
      "channel": 2,
      "note": 71,
      "start": 17.2956,
      "duration": 0.0143,
      "velocity": 89,
      "chip": "ym2612"
    },
    {
      "channel": 0,
      "note": 53,
      "start": 17.3087,
      "duration": 0.014,
      "velocity": 95,
      "chip": "ym2612"
    },
    {
      "channel": 1,
      "note": 73,
      "start": 17.3092,
      "duration": 0.0144,
      "velocity": 89,
      "chip": "ym2612"
    },
    {
      "channel": 2,
      "note": 71,
      "start": 17.3099,
      "duration": 0.0141,
      "velocity": 89,
      "chip": "ym2612"
    },
    {
      "channel": 0,
      "note": 49,
      "start": 17.3232,
      "duration": 0.3166,
      "velocity": 95,
      "chip": "ym2612"
    },
    {
      "channel": 1,
      "note": 73,
      "start": 17.3237,
      "duration": 0.0039,
      "velocity": 89,
      "chip": "ym2612"
    },
    {
      "channel": 2,
      "note": 65,
      "start": 17.3244,
      "duration": 0.1999,
      "velocity": 89,
      "chip": "ym2612"
    },
    {
      "channel": 3,
      "note": 73,
      "start": 17.3251,
      "duration": 0.835,
      "velocity": 89,
      "chip": "ym2612"
    },
    {
      "channel": 1,
      "note": 73,
      "start": 17.3276,
      "duration": 0.003,
      "velocity": 89,
      "chip": "ym2612"
    },
    {
      "channel": 1,
      "note": 73,
      "start": 17.3306,
      "duration": 0.0056,
      "velocity": 89,
      "chip": "ym2612"
    },
    {
      "channel": 1,
      "note": 73,
      "start": 17.3363,
      "duration": 0.0143,
      "velocity": 89,
      "chip": "ym2612"
    },
    {
      "channel": 1,
      "note": 73,
      "start": 17.3506,
      "duration": 0.0146,
      "velocity": 89,
      "chip": "ym2612"
    },
    {
      "channel": 1,
      "note": 73,
      "start": 17.3651,
      "duration": 0.0144,
      "velocity": 89,
      "chip": "ym2612"
    },
    {
      "channel": 1,
      "note": 73,
      "start": 17.3796,
      "duration": 0.0145,
      "velocity": 89,
      "chip": "ym2612"
    },
    {
      "channel": 1,
      "note": 73,
      "start": 17.3941,
      "duration": 0.0143,
      "velocity": 89,
      "chip": "ym2612"
    },
    {
      "channel": 1,
      "note": 73,
      "start": 17.4084,
      "duration": 0.0146,
      "velocity": 89,
      "chip": "ym2612"
    },
    {
      "channel": 1,
      "note": 73,
      "start": 17.423,
      "duration": 0.0144,
      "velocity": 89,
      "chip": "ym2612"
    },
    {
      "channel": 1,
      "note": 73,
      "start": 17.4374,
      "duration": 0.0144,
      "velocity": 89,
      "chip": "ym2612"
    },
    {
      "channel": 1,
      "note": 73,
      "start": 17.4518,
      "duration": 0.0145,
      "velocity": 89,
      "chip": "ym2612"
    },
    {
      "channel": 1,
      "note": 73,
      "start": 17.4663,
      "duration": 0.0143,
      "velocity": 89,
      "chip": "ym2612"
    },
    {
      "channel": 1,
      "note": 73,
      "start": 17.4806,
      "duration": 0.0146,
      "velocity": 89,
      "chip": "ym2612"
    },
    {
      "channel": 1,
      "note": 73,
      "start": 17.4952,
      "duration": 0.0144,
      "velocity": 89,
      "chip": "ym2612"
    },
    {
      "channel": 1,
      "note": 73,
      "start": 17.5096,
      "duration": 0.0144,
      "velocity": 89,
      "chip": "ym2612"
    },
    {
      "channel": 1,
      "note": 73,
      "start": 17.5241,
      "duration": 0.0143,
      "velocity": 89,
      "chip": "ym2612"
    },
    {
      "channel": 2,
      "note": 68,
      "start": 17.5247,
      "duration": 0.231,
      "velocity": 89,
      "chip": "ym2612"
    },
    {
      "channel": 1,
      "note": 73,
      "start": 17.5384,
      "duration": 0.0146,
      "velocity": 89,
      "chip": "ym2612"
    },
    {
      "channel": 1,
      "note": 73,
      "start": 17.5529,
      "duration": 0.0145,
      "velocity": 89,
      "chip": "ym2612"
    },
    {
      "channel": 1,
      "note": 73,
      "start": 17.5674,
      "duration": 0.0144,
      "velocity": 89,
      "chip": "ym2612"
    },
    {
      "channel": 1,
      "note": 73,
      "start": 17.5818,
      "duration": 0.0145,
      "velocity": 89,
      "chip": "ym2612"
    },
    {
      "channel": 1,
      "note": 73,
      "start": 17.5963,
      "duration": 0.0143,
      "velocity": 89,
      "chip": "ym2612"
    },
    {
      "channel": 1,
      "note": 73,
      "start": 17.6106,
      "duration": 0.0146,
      "velocity": 89,
      "chip": "ym2612"
    },
    {
      "channel": 1,
      "note": 73,
      "start": 17.6252,
      "duration": 0.0151,
      "velocity": 89,
      "chip": "ym2612"
    },
    {
      "channel": 0,
      "note": 49,
      "start": 17.6398,
      "duration": 0.0139,
      "velocity": 95,
      "chip": "ym2612"
    },
    {
      "channel": 1,
      "note": 73,
      "start": 17.6403,
      "duration": 0.0139,
      "velocity": 89,
      "chip": "ym2612"
    },
    {
      "channel": 4,
      "note": 73,
      "start": 17.6417,
      "duration": 0.5207,
      "velocity": 89,
      "chip": "ym2612"
    },
    {
      "channel": 0,
      "note": 49,
      "start": 17.6536,
      "duration": 0.0146,
      "velocity": 95,
      "chip": "ym2612"
    },
    {
      "channel": 1,
      "note": 73,
      "start": 17.6543,
      "duration": 0.0144,
      "velocity": 89,
      "chip": "ym2612"
    },
    {
      "channel": 0,
      "note": 49,
      "start": 17.6683,
      "duration": 0.0144,
      "velocity": 95,
      "chip": "ym2612"
    },
    {
      "channel": 1,
      "note": 73,
      "start": 17.6687,
      "duration": 0.0146,
      "velocity": 89,
      "chip": "ym2612"
    },
    {
      "channel": 0,
      "note": 49,
      "start": 17.6827,
      "duration": 0.0144,
      "velocity": 95,
      "chip": "ym2612"
    },
    {
      "channel": 1,
      "note": 73,
      "start": 17.6833,
      "duration": 0.0144,
      "velocity": 89,
      "chip": "ym2612"
    },
    {
      "channel": 0,
      "note": 49,
      "start": 17.6971,
      "duration": 0.0143,
      "velocity": 95,
      "chip": "ym2612"
    },
    {
      "channel": 1,
      "note": 73,
      "start": 17.6978,
      "duration": 0.0143,
      "velocity": 89,
      "chip": "ym2612"
    },
    {
      "channel": 0,
      "note": 49,
      "start": 17.7115,
      "duration": 0.0146,
      "velocity": 95,
      "chip": "ym2612"
    },
    {
      "channel": 1,
      "note": 73,
      "start": 17.7121,
      "duration": 0.0146,
      "velocity": 89,
      "chip": "ym2612"
    },
    {
      "channel": 0,
      "note": 49,
      "start": 17.726,
      "duration": 0.0144,
      "velocity": 95,
      "chip": "ym2612"
    },
    {
      "channel": 1,
      "note": 73,
      "start": 17.7267,
      "duration": 0.0143,
      "velocity": 89,
      "chip": "ym2612"
    },
    {
      "channel": 0,
      "note": 49,
      "start": 17.7405,
      "duration": 0.0145,
      "velocity": 95,
      "chip": "ym2612"
    },
    {
      "channel": 1,
      "note": 73,
      "start": 17.741,
      "duration": 0.0146,
      "velocity": 89,
      "chip": "ym2612"
    },
    {
      "channel": 0,
      "note": 49,
      "start": 17.755,
      "duration": 0.0144,
      "velocity": 95,
      "chip": "ym2612"
    },
    {
      "channel": 1,
      "note": 73,
      "start": 17.7555,
      "duration": 0.0144,
      "velocity": 89,
      "chip": "ym2612"
    },
    {
      "channel": 2,
      "note": 70,
      "start": 17.7562,
      "duration": 0.2307,
      "velocity": 89,
      "chip": "ym2612"
    },
    {
      "channel": 0,
      "note": 49,
      "start": 17.7693,
      "duration": 0.0144,
      "velocity": 95,
      "chip": "ym2612"
    },
    {
      "channel": 1,
      "note": 73,
      "start": 17.77,
      "duration": 0.0143,
      "velocity": 89,
      "chip": "ym2612"
    },
    {
      "channel": 0,
      "note": 49,
      "start": 17.7837,
      "duration": 0.0145,
      "velocity": 95,
      "chip": "ym2612"
    },
    {
      "channel": 1,
      "note": 73,
      "start": 17.7843,
      "duration": 0.0144,
      "velocity": 89,
      "chip": "ym2612"
    },
    {
      "channel": 0,
      "note": 49,
      "start": 17.7982,
      "duration": 0.0145,
      "velocity": 95,
      "chip": "ym2612"
    },
    {
      "channel": 1,
      "note": 73,
      "start": 17.7987,
      "duration": 0.0146,
      "velocity": 89,
      "chip": "ym2612"
    },
    {
      "channel": 0,
      "note": 49,
      "start": 17.8127,
      "duration": 0.0144,
      "velocity": 95,
      "chip": "ym2612"
    },
    {
      "channel": 1,
      "note": 73,
      "start": 17.8134,
      "duration": 0.0144,
      "velocity": 89,
      "chip": "ym2612"
    },
    {
      "channel": 0,
      "note": 49,
      "start": 17.8272,
      "duration": 0.0143,
      "velocity": 95,
      "chip": "ym2612"
    },
    {
      "channel": 1,
      "note": 73,
      "start": 17.8278,
      "duration": 0.0142,
      "velocity": 89,
      "chip": "ym2612"
    },
    {
      "channel": 0,
      "note": 49,
      "start": 17.8415,
      "duration": 0.0146,
      "velocity": 95,
      "chip": "ym2612"
    },
    {
      "channel": 1,
      "note": 73,
      "start": 17.842,
      "duration": 0.0146,
      "velocity": 89,
      "chip": "ym2612"
    },
    {
      "channel": 0,
      "note": 49,
      "start": 17.8561,
      "duration": 0.0144,
      "velocity": 95,
      "chip": "ym2612"
    },
    {
      "channel": 1,
      "note": 73,
      "start": 17.8567,
      "duration": 0.0143,
      "velocity": 89,
      "chip": "ym2612"
    },
    {
      "channel": 0,
      "note": 49,
      "start": 17.8705,
      "duration": 0.0145,
      "velocity": 95,
      "chip": "ym2612"
    },
    {
      "channel": 1,
      "note": 73,
      "start": 17.871,
      "duration": 0.0146,
      "velocity": 89,
      "chip": "ym2612"
    },
    {
      "channel": 0,
      "note": 49,
      "start": 17.885,
      "duration": 0.0144,
      "velocity": 95,
      "chip": "ym2612"
    },
    {
      "channel": 1,
      "note": 73,
      "start": 17.8856,
      "duration": 0.0144,
      "velocity": 89,
      "chip": "ym2612"
    },
    {
      "channel": 0,
      "note": 49,
      "start": 17.8994,
      "duration": 0.0143,
      "velocity": 95,
      "chip": "ym2612"
    },
    {
      "channel": 1,
      "note": 73,
      "start": 17.9,
      "duration": 0.0143,
      "velocity": 89,
      "chip": "ym2612"
    },
    {
      "channel": 0,
      "note": 49,
      "start": 17.9137,
      "duration": 0.0146,
      "velocity": 95,
      "chip": "ym2612"
    },
    {
      "channel": 1,
      "note": 73,
      "start": 17.9143,
      "duration": 0.0144,
      "velocity": 89,
      "chip": "ym2612"
    },
    {
      "channel": 0,
      "note": 49,
      "start": 17.9283,
      "duration": 0.0144,
      "velocity": 95,
      "chip": "ym2612"
    },
    {
      "channel": 1,
      "note": 73,
      "start": 17.9288,
      "duration": 0.0146,
      "velocity": 89,
      "chip": "ym2612"
    },
    {
      "channel": 0,
      "note": 49,
      "start": 17.9427,
      "duration": 0.0145,
      "velocity": 95,
      "chip": "ym2612"
    },
    {
      "channel": 1,
      "note": 73,
      "start": 17.9433,
      "duration": 0.0145,
      "velocity": 89,
      "chip": "ym2612"
    },
    {
      "channel": 0,
      "note": 49,
      "start": 17.9572,
      "duration": 0.0146,
      "velocity": 95,
      "chip": "ym2612"
    },
    {
      "channel": 1,
      "note": 73,
      "start": 17.9578,
      "duration": 0.0146,
      "velocity": 89,
      "chip": "ym2612"
    },
    {
      "channel": 0,
      "note": 49,
      "start": 17.9718,
      "duration": 0.0143,
      "velocity": 95,
      "chip": "ym2612"
    },
    {
      "channel": 1,
      "note": 73,
      "start": 17.9724,
      "duration": 0.0143,
      "velocity": 89,
      "chip": "ym2612"
    },
    {
      "channel": 0,
      "note": 49,
      "start": 17.9861,
      "duration": 0.0041,
      "velocity": 95,
      "chip": "ym2612"
    },
    {
      "channel": 1,
      "note": 73,
      "start": 17.9867,
      "duration": 0.0039,
      "velocity": 89,
      "chip": "ym2612"
    },
    {
      "channel": 2,
      "note": 73,
      "start": 17.9873,
      "duration": 0.0794,
      "velocity": 89,
      "chip": "ym2612"
    },
    {
      "channel": 0,
      "note": 49,
      "start": 17.9902,
      "duration": 0.0032,
      "velocity": 95,
      "chip": "ym2612"
    },
    {
      "channel": 1,
      "note": 73,
      "start": 17.9906,
      "duration": 0.0033,
      "velocity": 89,
      "chip": "ym2612"
    },
    {
      "channel": 0,
      "note": 49,
      "start": 17.9934,
      "duration": 0.0034,
      "velocity": 95,
      "chip": "ym2612"
    },
    {
      "channel": 1,
      "note": 73,
      "start": 17.994,
      "duration": 0.0034,
      "velocity": 89,
      "chip": "ym2612"
    },
    {
      "channel": 0,
      "note": 49,
      "start": 17.9968,
      "duration": 0.0033,
      "velocity": 95,
      "chip": "ym2612"
    },
    {
      "channel": 1,
      "note": 73,
      "start": 17.9974,
      "duration": 0.0032,
      "velocity": 89,
      "chip": "ym2612"
    },
    {
      "channel": 0,
      "note": 49,
      "start": 18.0,
      "duration": 0.0034,
      "velocity": 95,
      "chip": "ym2612"
    },
    {
      "channel": 1,
      "note": 73,
      "start": 18.0006,
      "duration": 0.0033,
      "velocity": 89,
      "chip": "ym2612"
    },
    {
      "channel": 0,
      "note": 49,
      "start": 18.0035,
      "duration": 0.0032,
      "velocity": 95,
      "chip": "ym2612"
    },
    {
      "channel": 1,
      "note": 73,
      "start": 18.0039,
      "duration": 0.0034,
      "velocity": 89,
      "chip": "ym2612"
    },
    {
      "channel": 0,
      "note": 49,
      "start": 18.0067,
      "duration": 0.003,
      "velocity": 95,
      "chip": "ym2612"
    },
    {
      "channel": 1,
      "note": 73,
      "start": 18.0073,
      "duration": 0.003,
      "velocity": 89,
      "chip": "ym2612"
    },
    {
      "channel": 0,
      "note": 49,
      "start": 18.0097,
      "duration": 0.0033,
      "velocity": 95,
      "chip": "ym2612"
    },
    {
      "channel": 1,
      "note": 73,
      "start": 18.0103,
      "duration": 0.0033,
      "velocity": 89,
      "chip": "ym2612"
    },
    {
      "channel": 0,
      "note": 49,
      "start": 18.0129,
      "duration": 0.0034,
      "velocity": 95,
      "chip": "ym2612"
    },
    {
      "channel": 1,
      "note": 73,
      "start": 18.0136,
      "duration": 0.0034,
      "velocity": 89,
      "chip": "ym2612"
    },
    {
      "channel": 0,
      "note": 49,
      "start": 18.0164,
      "duration": 0.0033,
      "velocity": 95,
      "chip": "ym2612"
    },
    {
      "channel": 1,
      "note": 73,
      "start": 18.017,
      "duration": 0.0032,
      "velocity": 89,
      "chip": "ym2612"
    },
    {
      "channel": 0,
      "note": 49,
      "start": 18.0197,
      "duration": 0.0033,
      "velocity": 95,
      "chip": "ym2612"
    },
    {
      "channel": 1,
      "note": 73,
      "start": 18.0202,
      "duration": 0.0034,
      "velocity": 89,
      "chip": "ym2612"
    },
    {
      "channel": 0,
      "note": 49,
      "start": 18.023,
      "duration": 0.0034,
      "velocity": 95,
      "chip": "ym2612"
    },
    {
      "channel": 1,
      "note": 73,
      "start": 18.0236,
      "duration": 0.0035,
      "velocity": 89,
      "chip": "ym2612"
    },
    {
      "channel": 0,
      "note": 49,
      "start": 18.0264,
      "duration": 0.0032,
      "velocity": 95,
      "chip": "ym2612"
    },
    {
      "channel": 1,
      "note": 73,
      "start": 18.0271,
      "duration": 0.0032,
      "velocity": 89,
      "chip": "ym2612"
    },
    {
      "channel": 0,
      "note": 49,
      "start": 18.0297,
      "duration": 0.0034,
      "velocity": 95,
      "chip": "ym2612"
    },
    {
      "channel": 1,
      "note": 73,
      "start": 18.0303,
      "duration": 0.0032,
      "velocity": 89,
      "chip": "ym2612"
    },
    {
      "channel": 0,
      "note": 49,
      "start": 18.0331,
      "duration": 0.0028,
      "velocity": 95,
      "chip": "ym2612"
    },
    {
      "channel": 1,
      "note": 73,
      "start": 18.0335,
      "duration": 0.003,
      "velocity": 89,
      "chip": "ym2612"
    },
    {
      "channel": 0,
      "note": 49,
      "start": 18.0359,
      "duration": 0.0033,
      "velocity": 95,
      "chip": "ym2612"
    },
    {
      "channel": 1,
      "note": 73,
      "start": 18.0365,
      "duration": 0.0033,
      "velocity": 89,
      "chip": "ym2612"
    },
    {
      "channel": 0,
      "note": 49,
      "start": 18.0392,
      "duration": 0.0033,
      "velocity": 95,
      "chip": "ym2612"
    },
    {
      "channel": 1,
      "note": 73,
      "start": 18.0398,
      "duration": 0.0033,
      "velocity": 89,
      "chip": "ym2612"
    },
    {
      "channel": 0,
      "note": 49,
      "start": 18.0425,
      "duration": 0.0034,
      "velocity": 95,
      "chip": "ym2612"
    },
    {
      "channel": 1,
      "note": 73,
      "start": 18.0431,
      "duration": 0.0035,
      "velocity": 89,
      "chip": "ym2612"
    },
    {
      "channel": 0,
      "note": 49,
      "start": 18.046,
      "duration": 0.0033,
      "velocity": 95,
      "chip": "ym2612"
    },
    {
      "channel": 1,
      "note": 73,
      "start": 18.0466,
      "duration": 0.0032,
      "velocity": 89,
      "chip": "ym2612"
    },
    {
      "channel": 0,
      "note": 49,
      "start": 18.0493,
      "duration": 0.0032,
      "velocity": 95,
      "chip": "ym2612"
    },
    {
      "channel": 1,
      "note": 73,
      "start": 18.0498,
      "duration": 0.0033,
      "velocity": 89,
      "chip": "ym2612"
    },
    {
      "channel": 0,
      "note": 49,
      "start": 18.0524,
      "duration": 0.0035,
      "velocity": 95,
      "chip": "ym2612"
    },
    {
      "channel": 1,
      "note": 73,
      "start": 18.0531,
      "duration": 0.0034,
      "velocity": 89,
      "chip": "ym2612"
    },
    {
      "channel": 0,
      "note": 49,
      "start": 18.0559,
      "duration": 0.0032,
      "velocity": 95,
      "chip": "ym2612"
    },
    {
      "channel": 1,
      "note": 73,
      "start": 18.0565,
      "duration": 0.0032,
      "velocity": 89,
      "chip": "ym2612"
    },
    {
      "channel": 0,
      "note": 49,
      "start": 18.0592,
      "duration": 0.0029,
      "velocity": 95,
      "chip": "ym2612"
    },
    {
      "channel": 1,
      "note": 73,
      "start": 18.0597,
      "duration": 0.0028,
      "velocity": 89,
      "chip": "ym2612"
    },
    {
      "channel": 0,
      "note": 49,
      "start": 18.0621,
      "duration": 0.0034,
      "velocity": 95,
      "chip": "ym2612"
    },
    {
      "channel": 1,
      "note": 73,
      "start": 18.0625,
      "duration": 0.0036,
      "velocity": 89,
      "chip": "ym2612"
    },
    {
      "channel": 0,
      "note": 49,
      "start": 18.0654,
      "duration": 0.0046,
      "velocity": 95,
      "chip": "ym2612"
    },
    {
      "channel": 1,
      "note": 73,
      "start": 18.0661,
      "duration": 0.0046,
      "velocity": 89,
      "chip": "ym2612"
    },
    {
      "channel": 2,
      "note": 73,
      "start": 18.0666,
      "duration": 0.0044,
      "velocity": 89,
      "chip": "ym2612"
    },
    {
      "channel": 0,
      "note": 49,
      "start": 18.07,
      "duration": 0.0035,
      "velocity": 95,
      "chip": "ym2612"
    },
    {
      "channel": 1,
      "note": 73,
      "start": 18.0707,
      "duration": 0.0034,
      "velocity": 89,
      "chip": "ym2612"
    },
    {
      "channel": 2,
      "note": 73,
      "start": 18.0711,
      "duration": 0.0037,
      "velocity": 89,
      "chip": "ym2612"
    },
    {
      "channel": 0,
      "note": 49,
      "start": 18.0735,
      "duration": 0.0038,
      "velocity": 95,
      "chip": "ym2612"
    },
    {
      "channel": 1,
      "note": 73,
      "start": 18.0741,
      "duration": 0.0038,
      "velocity": 89,
      "chip": "ym2612"
    },
    {
      "channel": 2,
      "note": 73,
      "start": 18.0747,
      "duration": 0.0038,
      "velocity": 89,
      "chip": "ym2612"
    },
    {
      "channel": 0,
      "note": 49,
      "start": 18.0773,
      "duration": 0.0038,
      "velocity": 95,
      "chip": "ym2612"
    },
    {
      "channel": 1,
      "note": 73,
      "start": 18.0779,
      "duration": 0.0037,
      "velocity": 89,
      "chip": "ym2612"
    },
    {
      "channel": 2,
      "note": 73,
      "start": 18.0785,
      "duration": 0.0037,
      "velocity": 89,
      "chip": "ym2612"
    },
    {
      "channel": 0,
      "note": 49,
      "start": 18.0811,
      "duration": 0.0037,
      "velocity": 95,
      "chip": "ym2612"
    },
    {
      "channel": 1,
      "note": 73,
      "start": 18.0816,
      "duration": 0.0038,
      "velocity": 89,
      "chip": "ym2612"
    },
    {
      "channel": 2,
      "note": 73,
      "start": 18.0822,
      "duration": 0.0037,
      "velocity": 89,
      "chip": "ym2612"
    },
    {
      "channel": 0,
      "note": 49,
      "start": 18.0848,
      "duration": 0.0037,
      "velocity": 95,
      "chip": "ym2612"
    },
    {
      "channel": 1,
      "note": 73,
      "start": 18.0854,
      "duration": 0.0037,
      "velocity": 89,
      "chip": "ym2612"
    },
    {
      "channel": 2,
      "note": 73,
      "start": 18.0859,
      "duration": 0.0038,
      "velocity": 89,
      "chip": "ym2612"
    },
    {
      "channel": 0,
      "note": 49,
      "start": 18.0884,
      "duration": 0.0044,
      "velocity": 95,
      "chip": "ym2612"
    },
    {
      "channel": 1,
      "note": 73,
      "start": 18.089,
      "duration": 0.0044,
      "velocity": 89,
      "chip": "ym2612"
    },
    {
      "channel": 2,
      "note": 73,
      "start": 18.0897,
      "duration": 0.0044,
      "velocity": 89,
      "chip": "ym2612"
    },
    {
      "channel": 0,
      "note": 49,
      "start": 18.0929,
      "duration": 0.0037,
      "velocity": 95,
      "chip": "ym2612"
    },
    {
      "channel": 1,
      "note": 73,
      "start": 18.0934,
      "duration": 0.0036,
      "velocity": 89,
      "chip": "ym2612"
    },
    {
      "channel": 2,
      "note": 74,
      "start": 18.0941,
      "duration": 0.0036,
      "velocity": 89,
      "chip": "ym2612"
    },
    {
      "channel": 0,
      "note": 49,
      "start": 18.0965,
      "duration": 0.0036,
      "velocity": 95,
      "chip": "ym2612"
    },
    {
      "channel": 1,
      "note": 73,
      "start": 18.0971,
      "duration": 0.0037,
      "velocity": 89,
      "chip": "ym2612"
    },
    {
      "channel": 2,
      "note": 74,
      "start": 18.0976,
      "duration": 0.0038,
      "velocity": 89,
      "chip": "ym2612"
    },
    {
      "channel": 0,
      "note": 49,
      "start": 18.1001,
      "duration": 0.0037,
      "velocity": 95,
      "chip": "ym2612"
    },
    {
      "channel": 1,
      "note": 73,
      "start": 18.1007,
      "duration": 0.0037,
      "velocity": 89,
      "chip": "ym2612"
    },
    {
      "channel": 2,
      "note": 73,
      "start": 18.1014,
      "duration": 0.0035,
      "velocity": 89,
      "chip": "ym2612"
    },
    {
      "channel": 0,
      "note": 49,
      "start": 18.1039,
      "duration": 0.0035,
      "velocity": 95,
      "chip": "ym2612"
    },
    {
      "channel": 1,
      "note": 73,
      "start": 18.1045,
      "duration": 0.0035,
      "velocity": 89,
      "chip": "ym2612"
    },
    {
      "channel": 2,
      "note": 73,
      "start": 18.1049,
      "duration": 0.0036,
      "velocity": 89,
      "chip": "ym2612"
    },
    {
      "channel": 0,
      "note": 49,
      "start": 18.1073,
      "duration": 0.0039,
      "velocity": 95,
      "chip": "ym2612"
    },
    {
      "channel": 1,
      "note": 73,
      "start": 18.108,
      "duration": 0.0038,
      "velocity": 89,
      "chip": "ym2612"
    },
    {
      "channel": 2,
      "note": 73,
      "start": 18.1085,
      "duration": 0.0039,
      "velocity": 89,
      "chip": "ym2612"
    },
    {
      "channel": 0,
      "note": 49,
      "start": 18.1112,
      "duration": 0.0045,
      "velocity": 95,
      "chip": "ym2612"
    },
    {
      "channel": 1,
      "note": 73,
      "start": 18.1117,
      "duration": 0.0044,
      "velocity": 89,
      "chip": "ym2612"
    },
    {
      "channel": 2,
      "note": 73,
      "start": 18.1124,
      "duration": 0.0044,
      "velocity": 89,
      "chip": "ym2612"
    },
    {
      "channel": 0,
      "note": 49,
      "start": 18.1157,
      "duration": 0.0032,
      "velocity": 95,
      "chip": "ym2612"
    },
    {
      "channel": 1,
      "note": 73,
      "start": 18.1161,
      "duration": 0.0033,
      "velocity": 89,
      "chip": "ym2612"
    },
    {
      "channel": 2,
      "note": 73,
      "start": 18.1168,
      "duration": 0.0032,
      "velocity": 89,
      "chip": "ym2612"
    },
    {
      "channel": 0,
      "note": 49,
      "start": 18.1189,
      "duration": 0.0036,
      "velocity": 95,
      "chip": "ym2612"
    },
    {
      "channel": 1,
      "note": 73,
      "start": 18.1195,
      "duration": 0.0036,
      "velocity": 89,
      "chip": "ym2612"
    },
    {
      "channel": 2,
      "note": 73,
      "start": 18.12,
      "duration": 0.0037,
      "velocity": 89,
      "chip": "ym2612"
    },
    {
      "channel": 0,
      "note": 49,
      "start": 18.1225,
      "duration": 0.0036,
      "velocity": 95,
      "chip": "ym2612"
    },
    {
      "channel": 1,
      "note": 73,
      "start": 18.1231,
      "duration": 0.0036,
      "velocity": 89,
      "chip": "ym2612"
    },
    {
      "channel": 2,
      "note": 73,
      "start": 18.1237,
      "duration": 0.0036,
      "velocity": 89,
      "chip": "ym2612"
    },
    {
      "channel": 0,
      "note": 49,
      "start": 18.1261,
      "duration": 0.0038,
      "velocity": 95,
      "chip": "ym2612"
    },
    {
      "channel": 1,
      "note": 73,
      "start": 18.1267,
      "duration": 0.0037,
      "velocity": 89,
      "chip": "ym2612"
    },
    {
      "channel": 2,
      "note": 74,
      "start": 18.1273,
      "duration": 0.0036,
      "velocity": 89,
      "chip": "ym2612"
    },
    {
      "channel": 0,
      "note": 49,
      "start": 18.1299,
      "duration": 0.0036,
      "velocity": 95,
      "chip": "ym2612"
    },
    {
      "channel": 1,
      "note": 73,
      "start": 18.1304,
      "duration": 0.0037,
      "velocity": 89,
      "chip": "ym2612"
    },
    {
      "channel": 2,
      "note": 74,
      "start": 18.1309,
      "duration": 0.0038,
      "velocity": 89,
      "chip": "ym2612"
    },
    {
      "channel": 0,
      "note": 49,
      "start": 18.1334,
      "duration": 0.0045,
      "velocity": 95,
      "chip": "ym2612"
    },
    {
      "channel": 1,
      "note": 73,
      "start": 18.1341,
      "duration": 0.0045,
      "velocity": 89,
      "chip": "ym2612"
    },
    {
      "channel": 2,
      "note": 73,
      "start": 18.1347,
      "duration": 0.0044,
      "velocity": 89,
      "chip": "ym2612"
    },
    {
      "channel": 0,
      "note": 49,
      "start": 18.138,
      "duration": 0.0035,
      "velocity": 95,
      "chip": "ym2612"
    },
    {
      "channel": 1,
      "note": 73,
      "start": 18.1386,
      "duration": 0.0035,
      "velocity": 89,
      "chip": "ym2612"
    },
    {
      "channel": 2,
      "note": 73,
      "start": 18.1391,
      "duration": 0.0036,
      "velocity": 89,
      "chip": "ym2612"
    },
    {
      "channel": 0,
      "note": 49,
      "start": 18.1415,
      "duration": 0.0038,
      "velocity": 95,
      "chip": "ym2612"
    },
    {
      "channel": 1,
      "note": 73,
      "start": 18.1421,
      "duration": 0.0038,
      "velocity": 89,
      "chip": "ym2612"
    },
    {
      "channel": 2,
      "note": 73,
      "start": 18.1427,
      "duration": 0.0037,
      "velocity": 89,
      "chip": "ym2612"
    },
    {
      "channel": 0,
      "note": 49,
      "start": 18.1453,
      "duration": 0.0033,
      "velocity": 95,
      "chip": "ym2612"
    },
    {
      "channel": 1,
      "note": 73,
      "start": 18.1459,
      "duration": 0.0032,
      "velocity": 89,
      "chip": "ym2612"
    },
    {
      "channel": 2,
      "note": 73,
      "start": 18.1465,
      "duration": 0.0032,
      "velocity": 89,
      "chip": "ym2612"
    },
    {
      "channel": 0,
      "note": 49,
      "start": 18.1485,
      "duration": 0.0037,
      "velocity": 95,
      "chip": "ym2612"
    },
    {
      "channel": 1,
      "note": 73,
      "start": 18.1491,
      "duration": 0.0037,
      "velocity": 89,
      "chip": "ym2612"
    },
    {
      "channel": 2,
      "note": 73,
      "start": 18.1496,
      "duration": 0.0037,
      "velocity": 89,
      "chip": "ym2612"
    },
    {
      "channel": 0,
      "note": 49,
      "start": 18.1522,
      "duration": 0.0034,
      "velocity": 95,
      "chip": "ym2612"
    },
    {
      "channel": 1,
      "note": 73,
      "start": 18.1528,
      "duration": 0.0038,
      "velocity": 89,
      "chip": "ym2612"
    },
    {
      "channel": 2,
      "note": 73,
      "start": 18.1533,
      "duration": 0.0043,
      "velocity": 89,
      "chip": "ym2612"
    },
    {
      "channel": 0,
      "note": 51,
      "start": 18.156,
      "duration": 0.3159,
      "velocity": 95,
      "chip": "ym2612"
    },
    {
      "channel": 1,
      "note": 75,
      "start": 18.1571,
      "duration": 0.3155,
      "velocity": 89,
      "chip": "ym2612"
    },
    {
      "channel": 2,
      "note": 70,
      "start": 18.1581,
      "duration": 0.3151,
      "velocity": 89,
      "chip": "ym2612"
    },
    {
      "channel": 3,
      "note": 66,
      "start": 18.1604,
      "duration": 0.505,
      "velocity": 89,
      "chip": "ym2612"
    },
    {
      "channel": 4,
      "note": 63,
      "start": 18.1628,
      "duration": 0.5033,
      "velocity": 89,
      "chip": "ym2612"
    },
    {
      "channel": 0,
      "note": 51,
      "start": 18.4719,
      "duration": 0.0043,
      "velocity": 95,
      "chip": "ym2612"
    },
    {
      "channel": 1,
      "note": 75,
      "start": 18.4726,
      "duration": 0.0043,
      "velocity": 89,
      "chip": "ym2612"
    },
    {
      "channel": 2,
      "note": 70,
      "start": 18.4731,
      "duration": 0.0043,
      "velocity": 89,
      "chip": "ym2612"
    },
    {
      "channel": 0,
      "note": 51,
      "start": 18.4763,
      "duration": 0.0037,
      "velocity": 95,
      "chip": "ym2612"
    },
    {
      "channel": 1,
      "note": 75,
      "start": 18.4768,
      "duration": 0.0035,
      "velocity": 89,
      "chip": "ym2612"
    },
    {
      "channel": 2,
      "note": 70,
      "start": 18.4775,
      "duration": 0.0034,
      "velocity": 89,
      "chip": "ym2612"
    },
    {
      "channel": 0,
      "note": 51,
      "start": 18.4799,
      "duration": 0.0033,
      "velocity": 95,
      "chip": "ym2612"
    },
    {
      "channel": 1,
      "note": 75,
      "start": 18.4804,
      "duration": 0.0035,
      "velocity": 89,
      "chip": "ym2612"
    },
    {
      "channel": 2,
      "note": 70,
      "start": 18.4808,
      "duration": 0.0037,
      "velocity": 89,
      "chip": "ym2612"
    },
    {
      "channel": 0,
      "note": 51,
      "start": 18.4832,
      "duration": 0.0032,
      "velocity": 95,
      "chip": "ym2612"
    },
    {
      "channel": 1,
      "note": 75,
      "start": 18.4839,
      "duration": 0.0032,
      "velocity": 89,
      "chip": "ym2612"
    },
    {
      "channel": 2,
      "note": 70,
      "start": 18.4845,
      "duration": 0.0032,
      "velocity": 89,
      "chip": "ym2612"
    },
    {
      "channel": 0,
      "note": 51,
      "start": 18.4864,
      "duration": 0.0035,
      "velocity": 95,
      "chip": "ym2612"
    },
    {
      "channel": 1,
      "note": 75,
      "start": 18.487,
      "duration": 0.0035,
      "velocity": 89,
      "chip": "ym2612"
    },
    {
      "channel": 2,
      "note": 70,
      "start": 18.4877,
      "duration": 0.0035,
      "velocity": 89,
      "chip": "ym2612"
    },
    {
      "channel": 0,
      "note": 51,
      "start": 18.4899,
      "duration": 0.0037,
      "velocity": 95,
      "chip": "ym2612"
    },
    {
      "channel": 1,
      "note": 75,
      "start": 18.4905,
      "duration": 0.0035,
      "velocity": 89,
      "chip": "ym2612"
    },
    {
      "channel": 2,
      "note": 70,
      "start": 18.4912,
      "duration": 0.0033,
      "velocity": 89,
      "chip": "ym2612"
    },
    {
      "channel": 0,
      "note": 51,
      "start": 18.4936,
      "duration": 0.0033,
      "velocity": 95,
      "chip": "ym2612"
    },
    {
      "channel": 1,
      "note": 75,
      "start": 18.494,
      "duration": 0.0035,
      "velocity": 89,
      "chip": "ym2612"
    },
    {
      "channel": 2,
      "note": 70,
      "start": 18.4945,
      "duration": 0.0037,
      "velocity": 89,
      "chip": "ym2612"
    },
    {
      "channel": 0,
      "note": 51,
      "start": 18.4968,
      "duration": 0.0037,
      "velocity": 95,
      "chip": "ym2612"
    },
    {
      "channel": 1,
      "note": 75,
      "start": 18.4975,
      "duration": 0.0036,
      "velocity": 89,
      "chip": "ym2612"
    },
    {
      "channel": 2,
      "note": 70,
      "start": 18.4981,
      "duration": 0.0036,
      "velocity": 89,
      "chip": "ym2612"
    },
    {
      "channel": 0,
      "note": 51,
      "start": 18.5005,
      "duration": 0.0037,
      "velocity": 95,
      "chip": "ym2612"
    },
    {
      "channel": 1,
      "note": 75,
      "start": 18.5011,
      "duration": 0.0037,
      "velocity": 89,
      "chip": "ym2612"
    },
    {
      "channel": 2,
      "note": 70,
      "start": 18.5018,
      "duration": 0.0037,
      "velocity": 89,
      "chip": "ym2612"
    },
    {
      "channel": 0,
      "note": 51,
      "start": 18.5043,
      "duration": 0.0034,
      "velocity": 95,
      "chip": "ym2612"
    },
    {
      "channel": 1,
      "note": 75,
      "start": 18.5048,
      "duration": 0.0035,
      "velocity": 89,
      "chip": "ym2612"
    },
    {
      "channel": 2,
      "note": 70,
      "start": 18.5055,
      "duration": 0.0035,
      "velocity": 89,
      "chip": "ym2612"
    },
    {
      "channel": 0,
      "note": 51,
      "start": 18.5077,
      "duration": 0.0037,
      "velocity": 95,
      "chip": "ym2612"
    },
    {
      "channel": 1,
      "note": 75,
      "start": 18.5084,
      "duration": 0.0035,
      "velocity": 89,
      "chip": "ym2612"
    },
    {
      "channel": 2,
      "note": 70,
      "start": 18.5089,
      "duration": 0.0034,
      "velocity": 89,
      "chip": "ym2612"
    },
    {
      "channel": 0,
      "note": 51,
      "start": 18.5114,
      "duration": 0.0029,
      "velocity": 95,
      "chip": "ym2612"
    },
    {
      "channel": 1,
      "note": 75,
      "start": 18.5118,
      "duration": 0.003,
      "velocity": 89,
      "chip": "ym2612"
    },
    {
      "channel": 2,
      "note": 70,
      "start": 18.5123,
      "duration": 0.0032,
      "velocity": 89,
      "chip": "ym2612"
    },
    {
      "channel": 0,
      "note": 51,
      "start": 18.5143,
      "duration": 0.0037,
      "velocity": 95,
      "chip": "ym2612"
    },
    {
      "channel": 1,
      "note": 75,
      "start": 18.5149,
      "duration": 0.0037,
      "velocity": 89,
      "chip": "ym2612"
    },
    {
      "channel": 2,
      "note": 70,
      "start": 18.5155,
      "duration": 0.0037,
      "velocity": 89,
      "chip": "ym2612"
    },
    {
      "channel": 0,
      "note": 51,
      "start": 18.518,
      "duration": 0.0035,
      "velocity": 95,
      "chip": "ym2612"
    },
    {
      "channel": 1,
      "note": 75,
      "start": 18.5186,
      "duration": 0.0035,
      "velocity": 89,
      "chip": "ym2612"
    },
    {
      "channel": 2,
      "note": 70,
      "start": 18.5192,
      "duration": 0.0036,
      "velocity": 89,
      "chip": "ym2612"
    },
    {
      "channel": 0,
      "note": 51,
      "start": 18.5215,
      "duration": 0.0125,
      "velocity": 95,
      "chip": "ym2612"
    },
    {
      "channel": 1,
      "note": 75,
      "start": 18.5221,
      "duration": 0.0123,
      "velocity": 89,
      "chip": "ym2612"
    },
    {
      "channel": 2,
      "note": 70,
      "start": 18.5227,
      "duration": 0.0122,
      "velocity": 89,
      "chip": "ym2612"
    },
    {
      "channel": 0,
      "note": 51,
      "start": 18.534,
      "duration": 0.0144,
      "velocity": 95,
      "chip": "ym2612"
    },
    {
      "channel": 1,
      "note": 75,
      "start": 18.5344,
      "duration": 0.0146,
      "velocity": 89,
      "chip": "ym2612"
    },
    {
      "channel": 2,
      "note": 70,
      "start": 18.5349,
      "duration": 0.0147,
      "velocity": 89,
      "chip": "ym2612"
    },
    {
      "channel": 0,
      "note": 51,
      "start": 18.5484,
      "duration": 0.0144,
      "velocity": 95,
      "chip": "ym2612"
    },
    {
      "channel": 1,
      "note": 75,
      "start": 18.549,
      "duration": 0.0144,
      "velocity": 89,
      "chip": "ym2612"
    },
    {
      "channel": 2,
      "note": 70,
      "start": 18.5496,
      "duration": 0.0145,
      "velocity": 89,
      "chip": "ym2612"
    },
    {
      "channel": 0,
      "note": 51,
      "start": 18.5629,
      "duration": 0.0144,
      "velocity": 95,
      "chip": "ym2612"
    },
    {
      "channel": 1,
      "note": 75,
      "start": 18.5635,
      "duration": 0.0144,
      "velocity": 89,
      "chip": "ym2612"
    },
    {
      "channel": 2,
      "note": 70,
      "start": 18.5641,
      "duration": 0.0144,
      "velocity": 89,
      "chip": "ym2612"
    },
    {
      "channel": 0,
      "note": 51,
      "start": 18.5773,
      "duration": 0.0144,
      "velocity": 95,
      "chip": "ym2612"
    },
    {
      "channel": 1,
      "note": 75,
      "start": 18.5779,
      "duration": 0.0143,
      "velocity": 89,
      "chip": "ym2612"
    },
    {
      "channel": 2,
      "note": 70,
      "start": 18.5786,
      "duration": 0.0143,
      "velocity": 89,
      "chip": "ym2612"
    },
    {
      "channel": 0,
      "note": 51,
      "start": 18.5917,
      "duration": 0.0145,
      "velocity": 95,
      "chip": "ym2612"
    },
    {
      "channel": 1,
      "note": 75,
      "start": 18.5922,
      "duration": 0.0144,
      "velocity": 89,
      "chip": "ym2612"
    },
    {
      "channel": 2,
      "note": 70,
      "start": 18.5929,
      "duration": 0.0142,
      "velocity": 89,
      "chip": "ym2612"
    },
    {
      "channel": 0,
      "note": 51,
      "start": 18.6062,
      "duration": 0.0144,
      "velocity": 95,
      "chip": "ym2612"
    },
    {
      "channel": 1,
      "note": 75,
      "start": 18.6067,
      "duration": 0.0146,
      "velocity": 89,
      "chip": "ym2612"
    },
    {
      "channel": 2,
      "note": 70,
      "start": 18.6071,
      "duration": 0.0147,
      "velocity": 89,
      "chip": "ym2612"
    },
    {
      "channel": 0,
      "note": 51,
      "start": 18.6206,
      "duration": 0.0144,
      "velocity": 95,
      "chip": "ym2612"
    },
    {
      "channel": 1,
      "note": 75,
      "start": 18.6212,
      "duration": 0.0144,
      "velocity": 89,
      "chip": "ym2612"
    },
    {
      "channel": 2,
      "note": 70,
      "start": 18.6218,
      "duration": 0.0144,
      "velocity": 89,
      "chip": "ym2612"
    },
    {
      "channel": 0,
      "note": 51,
      "start": 18.6351,
      "duration": 0.0143,
      "velocity": 95,
      "chip": "ym2612"
    },
    {
      "channel": 1,
      "note": 75,
      "start": 18.6357,
      "duration": 0.0143,
      "velocity": 89,
      "chip": "ym2612"
    },
    {
      "channel": 2,
      "note": 70,
      "start": 18.6363,
      "duration": 0.0143,
      "velocity": 89,
      "chip": "ym2612"
    },
    {
      "channel": 0,
      "note": 51,
      "start": 18.6494,
      "duration": 0.0142,
      "velocity": 95,
      "chip": "ym2612"
    },
    {
      "channel": 1,
      "note": 75,
      "start": 18.65,
      "duration": 0.0141,
      "velocity": 89,
      "chip": "ym2612"
    },
    {
      "channel": 2,
      "note": 70,
      "start": 18.6506,
      "duration": 0.0142,
      "velocity": 89,
      "chip": "ym2612"
    },
    {
      "channel": 0,
      "note": 54,
      "start": 18.664,
      "duration": 0.2855,
      "velocity": 95,
      "chip": "ym2612"
    },
    {
      "channel": 1,
      "note": 78,
      "start": 18.6646,
      "duration": 0.2856,
      "velocity": 89,
      "chip": "ym2612"
    },
    {
      "channel": 2,
      "note": 75,
      "start": 18.6652,
      "duration": 0.2856,
      "velocity": 89,
      "chip": "ym2612"
    },
    {
      "channel": 3,
      "note": 70,
      "start": 18.6658,
      "duration": 0.4769,
      "velocity": 89,
      "chip": "ym2612"
    },
    {
      "channel": 4,
      "note": 66,
      "start": 18.6665,
      "duration": 0.4768,
      "velocity": 89,
      "chip": "ym2612"
    },
    {
      "channel": 0,
      "note": 54,
      "start": 18.9495,
      "duration": 0.0044,
      "velocity": 95,
      "chip": "ym2612"
    },
    {
      "channel": 1,
      "note": 78,
      "start": 18.9502,
      "duration": 0.0044,
      "velocity": 89,
      "chip": "ym2612"
    },
    {
      "channel": 2,
      "note": 75,
      "start": 18.9507,
      "duration": 0.0044,
      "velocity": 89,
      "chip": "ym2612"
    },
    {
      "channel": 0,
      "note": 54,
      "start": 18.954,
      "duration": 0.003,
      "velocity": 95,
      "chip": "ym2612"
    },
    {
      "channel": 1,
      "note": 78,
      "start": 18.9546,
      "duration": 0.0028,
      "velocity": 89,
      "chip": "ym2612"
    },
    {
      "channel": 2,
      "note": 75,
      "start": 18.9552,
      "duration": 0.0028,
      "velocity": 89,
      "chip": "ym2612"
    },
    {
      "channel": 0,
      "note": 54,
      "start": 18.957,
      "duration": 0.0033,
      "velocity": 95,
      "chip": "ym2612"
    },
    {
      "channel": 1,
      "note": 78,
      "start": 18.9574,
      "duration": 0.0034,
      "velocity": 89,
      "chip": "ym2612"
    },
    {
      "channel": 2,
      "note": 75,
      "start": 18.9579,
      "duration": 0.0035,
      "velocity": 89,
      "chip": "ym2612"
    },
    {
      "channel": 0,
      "note": 54,
      "start": 18.9602,
      "duration": 0.0036,
      "velocity": 95,
      "chip": "ym2612"
    },
    {
      "channel": 1,
      "note": 78,
      "start": 18.9609,
      "duration": 0.0036,
      "velocity": 89,
      "chip": "ym2612"
    },
    {
      "channel": 2,
      "note": 75,
      "start": 18.9615,
      "duration": 0.0036,
      "velocity": 89,
      "chip": "ym2612"
    },
    {
      "channel": 0,
      "note": 54,
      "start": 18.9638,
      "duration": 0.0036,
      "velocity": 95,
      "chip": "ym2612"
    },
    {
      "channel": 1,
      "note": 78,
      "start": 18.9645,
      "duration": 0.0036,
      "velocity": 89,
      "chip": "ym2612"
    },
    {
      "channel": 2,
      "note": 75,
      "start": 18.9651,
      "duration": 0.0036,
      "velocity": 89,
      "chip": "ym2612"
    },
    {
      "channel": 0,
      "note": 54,
      "start": 18.9675,
      "duration": 0.0036,
      "velocity": 95,
      "chip": "ym2612"
    },
    {
      "channel": 1,
      "note": 78,
      "start": 18.9681,
      "duration": 0.0034,
      "velocity": 89,
      "chip": "ym2612"
    },
    {
      "channel": 2,
      "note": 75,
      "start": 18.9687,
      "duration": 0.0033,
      "velocity": 89,
      "chip": "ym2612"
    },
    {
      "channel": 0,
      "note": 54,
      "start": 18.971,
      "duration": 0.0033,
      "velocity": 95,
      "chip": "ym2612"
    },
    {
      "channel": 1,
      "note": 78,
      "start": 18.9715,
      "duration": 0.0035,
      "velocity": 89,
      "chip": "ym2612"
    },
    {
      "channel": 2,
      "note": 75,
      "start": 18.972,
      "duration": 0.0036,
      "velocity": 89,
      "chip": "ym2612"
    },
    {
      "channel": 0,
      "note": 54,
      "start": 18.9744,
      "duration": 0.0037,
      "velocity": 95,
      "chip": "ym2612"
    },
    {
      "channel": 1,
      "note": 78,
      "start": 18.975,
      "duration": 0.0037,
      "velocity": 89,
      "chip": "ym2612"
    },
    {
      "channel": 2,
      "note": 75,
      "start": 18.9756,
      "duration": 0.0037,
      "velocity": 89,
      "chip": "ym2612"
    },
    {
      "channel": 0,
      "note": 54,
      "start": 18.9781,
      "duration": 0.0036,
      "velocity": 95,
      "chip": "ym2612"
    },
    {
      "channel": 1,
      "note": 78,
      "start": 18.9786,
      "duration": 0.0037,
      "velocity": 89,
      "chip": "ym2612"
    },
    {
      "channel": 2,
      "note": 75,
      "start": 18.9793,
      "duration": 0.0037,
      "velocity": 89,
      "chip": "ym2612"
    },
    {
      "channel": 0,
      "note": 54,
      "start": 18.9817,
      "duration": 0.0033,
      "velocity": 95,
      "chip": "ym2612"
    },
    {
      "channel": 1,
      "note": 78,
      "start": 18.9823,
      "duration": 0.0033,
      "velocity": 89,
      "chip": "ym2612"
    },
    {
      "channel": 2,
      "note": 75,
      "start": 18.9829,
      "duration": 0.0032,
      "velocity": 89,
      "chip": "ym2612"
    },
    {
      "channel": 0,
      "note": 54,
      "start": 18.9849,
      "duration": 0.0035,
      "velocity": 95,
      "chip": "ym2612"
    },
    {
      "channel": 1,
      "note": 78,
      "start": 18.9856,
      "duration": 0.0034,
      "velocity": 89,
      "chip": "ym2612"
    },
    {
      "channel": 2,
      "note": 75,
      "start": 18.9861,
      "duration": 0.0032,
      "velocity": 89,
      "chip": "ym2612"
    },
    {
      "channel": 0,
      "note": 54,
      "start": 18.9885,
      "duration": 0.0034,
      "velocity": 95,
      "chip": "ym2612"
    },
    {
      "channel": 1,
      "note": 78,
      "start": 18.9889,
      "duration": 0.0036,
      "velocity": 89,
      "chip": "ym2612"
    },
    {
      "channel": 2,
      "note": 75,
      "start": 18.9894,
      "duration": 0.0037,
      "velocity": 89,
      "chip": "ym2612"
    },
    {
      "channel": 0,
      "note": 54,
      "start": 18.9919,
      "duration": 0.0036,
      "velocity": 95,
      "chip": "ym2612"
    },
    {
      "channel": 1,
      "note": 78,
      "start": 18.9925,
      "duration": 0.0036,
      "velocity": 89,
      "chip": "ym2612"
    },
    {
      "channel": 2,
      "note": 75,
      "start": 18.9931,
      "duration": 0.0036,
      "velocity": 89,
      "chip": "ym2612"
    },
    {
      "channel": 0,
      "note": 54,
      "start": 18.9955,
      "duration": 0.0036,
      "velocity": 95,
      "chip": "ym2612"
    },
    {
      "channel": 1,
      "note": 78,
      "start": 18.9961,
      "duration": 0.0036,
      "velocity": 89,
      "chip": "ym2612"
    },
    {
      "channel": 2,
      "note": 75,
      "start": 18.9967,
      "duration": 0.0037,
      "velocity": 89,
      "chip": "ym2612"
    },
    {
      "channel": 0,
      "note": 54,
      "start": 18.9991,
      "duration": 0.0121,
      "velocity": 95,
      "chip": "ym2612"
    },
    {
      "channel": 1,
      "note": 78,
      "start": 18.9997,
      "duration": 0.0119,
      "velocity": 89,
      "chip": "ym2612"
    },
    {
      "channel": 2,
      "note": 75,
      "start": 19.0003,
      "duration": 0.0118,
      "velocity": 89,
      "chip": "ym2612"
    },
    {
      "channel": 0,
      "note": 54,
      "start": 19.0112,
      "duration": 0.0146,
      "velocity": 95,
      "chip": "ym2612"
    },
    {
      "channel": 1,
      "note": 78,
      "start": 19.0116,
      "duration": 0.0148,
      "velocity": 89,
      "chip": "ym2612"
    },
    {
      "channel": 2,
      "note": 75,
      "start": 19.0121,
      "duration": 0.0149,
      "velocity": 89,
      "chip": "ym2612"
    },
    {
      "channel": 0,
      "note": 54,
      "start": 19.0258,
      "duration": 0.0144,
      "velocity": 95,
      "chip": "ym2612"
    },
    {
      "channel": 1,
      "note": 78,
      "start": 19.0264,
      "duration": 0.0144,
      "velocity": 89,
      "chip": "ym2612"
    },
    {
      "channel": 2,
      "note": 75,
      "start": 19.0271,
      "duration": 0.0144,
      "velocity": 89,
      "chip": "ym2612"
    },
    {
      "channel": 0,
      "note": 54,
      "start": 19.0402,
      "duration": 0.0144,
      "velocity": 95,
      "chip": "ym2612"
    },
    {
      "channel": 1,
      "note": 78,
      "start": 19.0409,
      "duration": 0.0144,
      "velocity": 89,
      "chip": "ym2612"
    },
    {
      "channel": 2,
      "note": 75,
      "start": 19.0415,
      "duration": 0.0144,
      "velocity": 89,
      "chip": "ym2612"
    },
    {
      "channel": 0,
      "note": 54,
      "start": 19.0547,
      "duration": 0.0144,
      "velocity": 95,
      "chip": "ym2612"
    },
    {
      "channel": 1,
      "note": 78,
      "start": 19.0553,
      "duration": 0.0144,
      "velocity": 89,
      "chip": "ym2612"
    },
    {
      "channel": 2,
      "note": 75,
      "start": 19.056,
      "duration": 0.0144,
      "velocity": 89,
      "chip": "ym2612"
    },
    {
      "channel": 0,
      "note": 54,
      "start": 19.0691,
      "duration": 0.0143,
      "velocity": 95,
      "chip": "ym2612"
    },
    {
      "channel": 1,
      "note": 78,
      "start": 19.0698,
      "duration": 0.0141,
      "velocity": 89,
      "chip": "ym2612"
    },
    {
      "channel": 2,
      "note": 75,
      "start": 19.0704,
      "duration": 0.014,
      "velocity": 89,
      "chip": "ym2612"
    },
    {
      "channel": 0,
      "note": 54,
      "start": 19.0834,
      "duration": 0.0146,
      "velocity": 95,
      "chip": "ym2612"
    },
    {
      "channel": 1,
      "note": 78,
      "start": 19.0839,
      "duration": 0.0148,
      "velocity": 89,
      "chip": "ym2612"
    },
    {
      "channel": 2,
      "note": 75,
      "start": 19.0844,
      "duration": 0.0149,
      "velocity": 89,
      "chip": "ym2612"
    },
    {
      "channel": 0,
      "note": 54,
      "start": 19.0981,
      "duration": 0.0144,
      "velocity": 95,
      "chip": "ym2612"
    },
    {
      "channel": 1,
      "note": 78,
      "start": 19.0986,
      "duration": 0.0144,
      "velocity": 89,
      "chip": "ym2612"
    },
    {
      "channel": 2,
      "note": 75,
      "start": 19.0993,
      "duration": 0.0144,
      "velocity": 89,
      "chip": "ym2612"
    },
    {
      "channel": 0,
      "note": 54,
      "start": 19.1124,
      "duration": 0.0145,
      "velocity": 95,
      "chip": "ym2612"
    },
    {
      "channel": 1,
      "note": 78,
      "start": 19.1131,
      "duration": 0.0144,
      "velocity": 89,
      "chip": "ym2612"
    },
    {
      "channel": 2,
      "note": 75,
      "start": 19.1137,
      "duration": 0.0145,
      "velocity": 89,
      "chip": "ym2612"
    },
    {
      "channel": 0,
      "note": 54,
      "start": 19.127,
      "duration": 0.014,
      "velocity": 95,
      "chip": "ym2612"
    },
    {
      "channel": 1,
      "note": 78,
      "start": 19.1275,
      "duration": 0.014,
      "velocity": 89,
      "chip": "ym2612"
    },
    {
      "channel": 2,
      "note": 75,
      "start": 19.1282,
      "duration": 0.0139,
      "velocity": 89,
      "chip": "ym2612"
    },
    {
      "channel": 0,
      "note": 53,
      "start": 19.1413,
      "duration": 0.3162,
      "velocity": 95,
      "chip": "ym2612"
    },
    {
      "channel": 1,
      "note": 77,
      "start": 19.142,
      "duration": 0.3161,
      "velocity": 89,
      "chip": "ym2612"
    },
    {
      "channel": 2,
      "note": 73,
      "start": 19.1425,
      "duration": 0.3162,
      "velocity": 89,
      "chip": "ym2612"
    },
    {
      "channel": 3,
      "note": 68,
      "start": 19.1432,
      "duration": 0.5078,
      "velocity": 89,
      "chip": "ym2612"
    },
    {
      "channel": 4,
      "note": 65,
      "start": 19.1437,
      "duration": 0.5078,
      "velocity": 89,
      "chip": "ym2612"
    },
    {
      "channel": 0,
      "note": 53,
      "start": 19.4575,
      "duration": 0.0044,
      "velocity": 95,
      "chip": "ym2612"
    },
    {
      "channel": 1,
      "note": 77,
      "start": 19.4581,
      "duration": 0.0044,
      "velocity": 89,
      "chip": "ym2612"
    },
    {
      "channel": 2,
      "note": 73,
      "start": 19.4587,
      "duration": 0.0044,
      "velocity": 89,
      "chip": "ym2612"
    },
    {
      "channel": 0,
      "note": 53,
      "start": 19.4619,
      "duration": 0.0035,
      "velocity": 95,
      "chip": "ym2612"
    },
    {
      "channel": 1,
      "note": 77,
      "start": 19.4625,
      "duration": 0.0033,
      "velocity": 89,
      "chip": "ym2612"
    },
    {
      "channel": 2,
      "note": 73,
      "start": 19.4631,
      "duration": 0.0032,
      "velocity": 89,
      "chip": "ym2612"
    },
    {
      "channel": 0,
      "note": 53,
      "start": 19.4654,
      "duration": 0.0034,
      "velocity": 95,
      "chip": "ym2612"
    },
    {
      "channel": 1,
      "note": 77,
      "start": 19.4659,
      "duration": 0.0035,
      "velocity": 89,
      "chip": "ym2612"
    },
    {
      "channel": 2,
      "note": 73,
      "start": 19.4663,
      "duration": 0.0037,
      "velocity": 89,
      "chip": "ym2612"
    },
    {
      "channel": 0,
      "note": 53,
      "start": 19.4688,
      "duration": 0.0037,
      "velocity": 95,
      "chip": "ym2612"
    },
    {
      "channel": 1,
      "note": 77,
      "start": 19.4694,
      "duration": 0.0037,
      "velocity": 89,
      "chip": "ym2612"
    },
    {
      "channel": 2,
      "note": 73,
      "start": 19.47,
      "duration": 0.0037,
      "velocity": 89,
      "chip": "ym2612"
    },
    {
      "channel": 0,
      "note": 53,
      "start": 19.4725,
      "duration": 0.0037,
      "velocity": 95,
      "chip": "ym2612"
    },
    {
      "channel": 1,
      "note": 77,
      "start": 19.4731,
      "duration": 0.0036,
      "velocity": 89,
      "chip": "ym2612"
    },
    {
      "channel": 2,
      "note": 73,
      "start": 19.4737,
      "duration": 0.0037,
      "velocity": 89,
      "chip": "ym2612"
    },
    {
      "channel": 0,
      "note": 53,
      "start": 19.4761,
      "duration": 0.0035,
      "velocity": 95,
      "chip": "ym2612"
    },
    {
      "channel": 1,
      "note": 77,
      "start": 19.4767,
      "duration": 0.0034,
      "velocity": 89,
      "chip": "ym2612"
    },
    {
      "channel": 2,
      "note": 73,
      "start": 19.4773,
      "duration": 0.0032,
      "velocity": 89,
      "chip": "ym2612"
    },
    {
      "channel": 0,
      "note": 53,
      "start": 19.4796,
      "duration": 0.0033,
      "velocity": 95,
      "chip": "ym2612"
    },
    {
      "channel": 1,
      "note": 77,
      "start": 19.4801,
      "duration": 0.0035,
      "velocity": 89,
      "chip": "ym2612"
    },
    {
      "channel": 2,
      "note": 73,
      "start": 19.4805,
      "duration": 0.0037,
      "velocity": 89,
      "chip": "ym2612"
    },
    {
      "channel": 0,
      "note": 53,
      "start": 19.4829,
      "duration": 0.0032,
      "velocity": 95,
      "chip": "ym2612"
    },
    {
      "channel": 1,
      "note": 77,
      "start": 19.4836,
      "duration": 0.0032,
      "velocity": 89,
      "chip": "ym2612"
    },
    {
      "channel": 2,
      "note": 73,
      "start": 19.4842,
      "duration": 0.0032,
      "velocity": 89,
      "chip": "ym2612"
    },
    {
      "channel": 0,
      "note": 53,
      "start": 19.4862,
      "duration": 0.0037,
      "velocity": 95,
      "chip": "ym2612"
    },
    {
      "channel": 1,
      "note": 77,
      "start": 19.4867,
      "duration": 0.0037,
      "velocity": 89,
      "chip": "ym2612"
    },
    {
      "channel": 2,
      "note": 73,
      "start": 19.4874,
      "duration": 0.0037,
      "velocity": 89,
      "chip": "ym2612"
    },
    {
      "channel": 0,
      "note": 53,
      "start": 19.4898,
      "duration": 0.0037,
      "velocity": 95,
      "chip": "ym2612"
    },
    {
      "channel": 1,
      "note": 77,
      "start": 19.4904,
      "duration": 0.0037,
      "velocity": 89,
      "chip": "ym2612"
    },
    {
      "channel": 2,
      "note": 73,
      "start": 19.4911,
      "duration": 0.0037,
      "velocity": 89,
      "chip": "ym2612"
    },
    {
      "channel": 0,
      "note": 53,
      "start": 19.4935,
      "duration": 0.0035,
      "velocity": 95,
      "chip": "ym2612"
    },
    {
      "channel": 1,
      "note": 77,
      "start": 19.4941,
      "duration": 0.0034,
      "velocity": 89,
      "chip": "ym2612"
    },
    {
      "channel": 2,
      "note": 73,
      "start": 19.4947,
      "duration": 0.0032,
      "velocity": 89,
      "chip": "ym2612"
    },
    {
      "channel": 0,
      "note": 53,
      "start": 19.497,
      "duration": 0.0034,
      "velocity": 95,
      "chip": "ym2612"
    },
    {
      "channel": 1,
      "note": 77,
      "start": 19.4975,
      "duration": 0.0034,
      "velocity": 89,
      "chip": "ym2612"
    },
    {
      "channel": 2,
      "note": 73,
      "start": 19.498,
      "duration": 0.0036,
      "velocity": 89,
      "chip": "ym2612"
    },
    {
      "channel": 0,
      "note": 53,
      "start": 19.5004,
      "duration": 0.0037,
      "velocity": 95,
      "chip": "ym2612"
    },
    {
      "channel": 1,
      "note": 77,
      "start": 19.5009,
      "duration": 0.0037,
      "velocity": 89,
      "chip": "ym2612"
    },
    {
      "channel": 2,
      "note": 73,
      "start": 19.5016,
      "duration": 0.0037,
      "velocity": 89,
      "chip": "ym2612"
    },
    {
      "channel": 0,
      "note": 53,
      "start": 19.504,
      "duration": 0.0037,
      "velocity": 95,
      "chip": "ym2612"
    },
    {
      "channel": 1,
      "note": 77,
      "start": 19.5046,
      "duration": 0.0037,
      "velocity": 89,
      "chip": "ym2612"
    },
    {
      "channel": 2,
      "note": 73,
      "start": 19.5052,
      "duration": 0.0037,
      "velocity": 89,
      "chip": "ym2612"
    },
    {
      "channel": 0,
      "note": 53,
      "start": 19.5077,
      "duration": 0.0117,
      "velocity": 95,
      "chip": "ym2612"
    },
    {
      "channel": 1,
      "note": 77,
      "start": 19.5083,
      "duration": 0.0115,
      "velocity": 89,
      "chip": "ym2612"
    },
    {
      "channel": 2,
      "note": 73,
      "start": 19.5089,
      "duration": 0.0114,
      "velocity": 89,
      "chip": "ym2612"
    },
    {
      "channel": 0,
      "note": 53,
      "start": 19.5193,
      "duration": 0.0146,
      "velocity": 95,
      "chip": "ym2612"
    },
    {
      "channel": 1,
      "note": 77,
      "start": 19.5198,
      "duration": 0.0148,
      "velocity": 89,
      "chip": "ym2612"
    },
    {
      "channel": 2,
      "note": 73,
      "start": 19.5203,
      "duration": 0.0149,
      "velocity": 89,
      "chip": "ym2612"
    },
    {
      "channel": 0,
      "note": 53,
      "start": 19.5339,
      "duration": 0.0144,
      "velocity": 95,
      "chip": "ym2612"
    },
    {
      "channel": 1,
      "note": 77,
      "start": 19.5346,
      "duration": 0.0144,
      "velocity": 89,
      "chip": "ym2612"
    },
    {
      "channel": 2,
      "note": 73,
      "start": 19.5352,
      "duration": 0.0145,
      "velocity": 89,
      "chip": "ym2612"
    },
    {
      "channel": 0,
      "note": 53,
      "start": 19.5484,
      "duration": 0.0145,
      "velocity": 95,
      "chip": "ym2612"
    },
    {
      "channel": 1,
      "note": 77,
      "start": 19.549,
      "duration": 0.0144,
      "velocity": 89,
      "chip": "ym2612"
    },
    {
      "channel": 2,
      "note": 73,
      "start": 19.5497,
      "duration": 0.0144,
      "velocity": 89,
      "chip": "ym2612"
    },
    {
      "channel": 0,
      "note": 53,
      "start": 19.5629,
      "duration": 0.0144,
      "velocity": 95,
      "chip": "ym2612"
    },
    {
      "channel": 1,
      "note": 77,
      "start": 19.5635,
      "duration": 0.0144,
      "velocity": 89,
      "chip": "ym2612"
    },
    {
      "channel": 2,
      "note": 73,
      "start": 19.5641,
      "duration": 0.0144,
      "velocity": 89,
      "chip": "ym2612"
    },
    {
      "channel": 0,
      "note": 53,
      "start": 19.5773,
      "duration": 0.0143,
      "velocity": 95,
      "chip": "ym2612"
    },
    {
      "channel": 1,
      "note": 77,
      "start": 19.5779,
      "duration": 0.0142,
      "velocity": 89,
      "chip": "ym2612"
    },
    {
      "channel": 2,
      "note": 73,
      "start": 19.5785,
      "duration": 0.014,
      "velocity": 89,
      "chip": "ym2612"
    },
    {
      "channel": 0,
      "note": 53,
      "start": 19.5916,
      "duration": 0.0146,
      "velocity": 95,
      "chip": "ym2612"
    },
    {
      "channel": 1,
      "note": 77,
      "start": 19.5921,
      "duration": 0.0147,
      "velocity": 89,
      "chip": "ym2612"
    },
    {
      "channel": 2,
      "note": 73,
      "start": 19.5925,
      "duration": 0.0148,
      "velocity": 89,
      "chip": "ym2612"
    },
    {
      "channel": 0,
      "note": 53,
      "start": 19.6061,
      "duration": 0.0145,
      "velocity": 95,
      "chip": "ym2612"
    },
    {
      "channel": 1,
      "note": 77,
      "start": 19.6068,
      "duration": 0.0145,
      "velocity": 89,
      "chip": "ym2612"
    },
    {
      "channel": 2,
      "note": 73,
      "start": 19.6074,
      "duration": 0.0145,
      "velocity": 89,
      "chip": "ym2612"
    },
    {
      "channel": 0,
      "note": 53,
      "start": 19.6207,
      "duration": 0.0148,
      "velocity": 95,
      "chip": "ym2612"
    },
    {
      "channel": 1,
      "note": 77,
      "start": 19.6213,
      "duration": 0.0148,
      "velocity": 89,
      "chip": "ym2612"
    },
    {
      "channel": 2,
      "note": 73,
      "start": 19.6219,
      "duration": 0.0148,
      "velocity": 89,
      "chip": "ym2612"
    },
    {
      "channel": 0,
      "note": 53,
      "start": 19.6355,
      "duration": 0.0136,
      "velocity": 95,
      "chip": "ym2612"
    },
    {
      "channel": 1,
      "note": 77,
      "start": 19.6361,
      "duration": 0.0135,
      "velocity": 89,
      "chip": "ym2612"
    },
    {
      "channel": 2,
      "note": 73,
      "start": 19.6367,
      "duration": 0.0136,
      "velocity": 89,
      "chip": "ym2612"
    },
    {
      "channel": 0,
      "note": 49,
      "start": 19.6495,
      "duration": 0.2855,
      "velocity": 95,
      "chip": "ym2612"
    },
    {
      "channel": 1,
      "note": 73,
      "start": 19.6501,
      "duration": 0.2856,
      "velocity": 89,
      "chip": "ym2612"
    },
    {
      "channel": 2,
      "note": 68,
      "start": 19.6507,
      "duration": 0.2856,
      "velocity": 89,
      "chip": "ym2612"
    },
    {
      "channel": 3,
      "note": 65,
      "start": 19.6514,
      "duration": 0.4772,
      "velocity": 89,
      "chip": "ym2612"
    },
    {
      "channel": 4,
      "note": 61,
      "start": 19.652,
      "duration": 0.4772,
      "velocity": 89,
      "chip": "ym2612"
    },
    {
      "channel": 0,
      "note": 49,
      "start": 19.9351,
      "duration": 0.0045,
      "velocity": 95,
      "chip": "ym2612"
    },
    {
      "channel": 1,
      "note": 73,
      "start": 19.9357,
      "duration": 0.0045,
      "velocity": 89,
      "chip": "ym2612"
    },
    {
      "channel": 2,
      "note": 68,
      "start": 19.9363,
      "duration": 0.0045,
      "velocity": 89,
      "chip": "ym2612"
    },
    {
      "channel": 0,
      "note": 49,
      "start": 19.9396,
      "duration": 0.0036,
      "velocity": 95,
      "chip": "ym2612"
    },
    {
      "channel": 1,
      "note": 73,
      "start": 19.9402,
      "duration": 0.0034,
      "velocity": 89,
      "chip": "ym2612"
    },
    {
      "channel": 2,
      "note": 68,
      "start": 19.9408,
      "duration": 0.0032,
      "velocity": 89,
      "chip": "ym2612"
    },
    {
      "channel": 0,
      "note": 49,
      "start": 19.9431,
      "duration": 0.0033,
      "velocity": 95,
      "chip": "ym2612"
    },
    {
      "channel": 1,
      "note": 73,
      "start": 19.9436,
      "duration": 0.0035,
      "velocity": 89,
      "chip": "ym2612"
    },
    {
      "channel": 2,
      "note": 68,
      "start": 19.944,
      "duration": 0.0037,
      "velocity": 89,
      "chip": "ym2612"
    },
    {
      "channel": 0,
      "note": 49,
      "start": 19.9465,
      "duration": 0.0036,
      "velocity": 95,
      "chip": "ym2612"
    },
    {
      "channel": 1,
      "note": 73,
      "start": 19.9471,
      "duration": 0.0036,
      "velocity": 89,
      "chip": "ym2612"
    },
    {
      "channel": 2,
      "note": 68,
      "start": 19.9477,
      "duration": 0.0036,
      "velocity": 89,
      "chip": "ym2612"
    },
    {
      "channel": 0,
      "note": 49,
      "start": 19.9501,
      "duration": 0.0036,
      "velocity": 95,
      "chip": "ym2612"
    },
    {
      "channel": 1,
      "note": 73,
      "start": 19.9507,
      "duration": 0.0036,
      "velocity": 89,
      "chip": "ym2612"
    },
    {
      "channel": 2,
      "note": 68,
      "start": 19.9513,
      "duration": 0.0036,
      "velocity": 89,
      "chip": "ym2612"
    },
    {
      "channel": 0,
      "note": 49,
      "start": 19.9537,
      "duration": 0.003,
      "velocity": 95,
      "chip": "ym2612"
    },
    {
      "channel": 1,
      "note": 73,
      "start": 19.9544,
      "duration": 0.0028,
      "velocity": 89,
      "chip": "ym2612"
    },
    {
      "channel": 2,
      "note": 68,
      "start": 19.9549,
      "duration": 0.0027,
      "velocity": 89,
      "chip": "ym2612"
    },
    {
      "channel": 0,
      "note": 49,
      "start": 19.9567,
      "duration": 0.0033,
      "velocity": 95,
      "chip": "ym2612"
    },
    {
      "channel": 1,
      "note": 73,
      "start": 19.9571,
      "duration": 0.0035,
      "velocity": 89,
      "chip": "ym2612"
    },
    {
      "channel": 2,
      "note": 68,
      "start": 19.9577,
      "duration": 0.0036,
      "velocity": 89,
      "chip": "ym2612"
    },
    {
      "channel": 0,
      "note": 49,
      "start": 19.96,
      "duration": 0.0036,
      "velocity": 95,
      "chip": "ym2612"
    },
    {
      "channel": 1,
      "note": 73,
      "start": 19.9607,
      "duration": 0.0036,
      "velocity": 89,
      "chip": "ym2612"
    },
    {
      "channel": 2,
      "note": 68,
      "start": 19.9613,
      "duration": 0.0036,
      "velocity": 89,
      "chip": "ym2612"
    },
    {
      "channel": 0,
      "note": 49,
      "start": 19.9637,
      "duration": 0.0037,
      "velocity": 95,
      "chip": "ym2612"
    },
    {
      "channel": 1,
      "note": 73,
      "start": 19.9643,
      "duration": 0.0037,
      "velocity": 89,
      "chip": "ym2612"
    },
    {
      "channel": 2,
      "note": 68,
      "start": 19.9649,
      "duration": 0.0037,
      "velocity": 89,
      "chip": "ym2612"
    },
    {
      "channel": 0,
      "note": 49,
      "start": 19.9674,
      "duration": 0.0036,
      "velocity": 95,
      "chip": "ym2612"
    },
    {
      "channel": 1,
      "note": 73,
      "start": 19.968,
      "duration": 0.0036,
      "velocity": 89,
      "chip": "ym2612"
    },
    {
      "channel": 2,
      "note": 68,
      "start": 19.9686,
      "duration": 0.0036,
      "velocity": 89,
      "chip": "ym2612"
    },
    {
      "channel": 0,
      "note": 49,
      "start": 19.971,
      "duration": 0.0034,
      "velocity": 95,
      "chip": "ym2612"
    },
    {
      "channel": 1,
      "note": 73,
      "start": 19.9716,
      "duration": 0.0032,
      "velocity": 89,
      "chip": "ym2612"
    },
    {
      "channel": 2,
      "note": 68,
      "start": 19.9723,
      "duration": 0.0031,
      "velocity": 89,
      "chip": "ym2612"
    },
    {
      "channel": 0,
      "note": 49,
      "start": 19.9744,
      "duration": 0.0033,
      "velocity": 95,
      "chip": "ym2612"
    },
    {
      "channel": 1,
      "note": 73,
      "start": 19.9749,
      "duration": 0.0035,
      "velocity": 89,
      "chip": "ym2612"
    },
    {
      "channel": 2,
      "note": 68,
      "start": 19.9754,
      "duration": 0.0035,
      "velocity": 89,
      "chip": "ym2612"
    },
    {
      "channel": 0,
      "note": 49,
      "start": 19.9777,
      "duration": 0.0037,
      "velocity": 95,
      "chip": "ym2612"
    },
    {
      "channel": 1,
      "note": 73,
      "start": 19.9783,
      "duration": 0.0037,
      "velocity": 89,
      "chip": "ym2612"
    },
    {
      "channel": 2,
      "note": 68,
      "start": 19.9789,
      "duration": 0.0037,
      "velocity": 89,
      "chip": "ym2612"
    },
    {
      "channel": 0,
      "note": 49,
      "start": 19.9814,
      "duration": 0.0032,
      "velocity": 95,
      "chip": "ym2612"
    },
    {
      "channel": 1,
      "note": 73,
      "start": 19.982,
      "duration": 0.0032,
      "velocity": 89,
      "chip": "ym2612"
    },
    {
      "channel": 2,
      "note": 68,
      "start": 19.9826,
      "duration": 0.0032,
      "velocity": 89,
      "chip": "ym2612"
    },
    {
      "channel": 0,
      "note": 49,
      "start": 19.9845,
      "duration": 0.0123,
      "velocity": 95,
      "chip": "ym2612"
    },
    {
      "channel": 1,
      "note": 73,
      "start": 19.9852,
      "duration": 0.0122,
      "velocity": 89,
      "chip": "ym2612"
    },
    {
      "channel": 2,
      "note": 68,
      "start": 19.9857,
      "duration": 0.0121,
      "velocity": 89,
      "chip": "ym2612"
    },
    {
      "channel": 0,
      "note": 49,
      "start": 19.9969,
      "duration": 0.0146,
      "velocity": 95,
      "chip": "ym2612"
    },
    {
      "channel": 1,
      "note": 73,
      "start": 19.9973,
      "duration": 0.0148,
      "velocity": 89,
      "chip": "ym2612"
    },
    {
      "channel": 2,
      "note": 68,
      "start": 19.9978,
      "duration": 0.0149,
      "velocity": 89,
      "chip": "ym2612"
    },
    {
      "channel": 0,
      "note": 49,
      "start": 20.0115,
      "duration": 0.0145,
      "velocity": 95,
      "chip": "ym2612"
    },
    {
      "channel": 1,
      "note": 73,
      "start": 20.0121,
      "duration": 0.0145,
      "velocity": 89,
      "chip": "ym2612"
    },
    {
      "channel": 2,
      "note": 68,
      "start": 20.0127,
      "duration": 0.0144,
      "velocity": 89,
      "chip": "ym2612"
    },
    {
      "channel": 0,
      "note": 49,
      "start": 20.0259,
      "duration": 0.0144,
      "velocity": 95,
      "chip": "ym2612"
    },
    {
      "channel": 1,
      "note": 73,
      "start": 20.0266,
      "duration": 0.0144,
      "velocity": 89,
      "chip": "ym2612"
    },
    {
      "channel": 2,
      "note": 68,
      "start": 20.0271,
      "duration": 0.0144,
      "velocity": 89,
      "chip": "ym2612"
    },
    {
      "channel": 0,
      "note": 49,
      "start": 20.0404,
      "duration": 0.0144,
      "velocity": 95,
      "chip": "ym2612"
    },
    {
      "channel": 1,
      "note": 73,
      "start": 20.041,
      "duration": 0.0145,
      "velocity": 89,
      "chip": "ym2612"
    },
    {
      "channel": 2,
      "note": 68,
      "start": 20.0416,
      "duration": 0.0145,
      "velocity": 89,
      "chip": "ym2612"
    },
    {
      "channel": 0,
      "note": 49,
      "start": 20.0548,
      "duration": 0.0143,
      "velocity": 95,
      "chip": "ym2612"
    },
    {
      "channel": 1,
      "note": 73,
      "start": 20.0555,
      "duration": 0.0141,
      "velocity": 89,
      "chip": "ym2612"
    },
    {
      "channel": 2,
      "note": 68,
      "start": 20.0561,
      "duration": 0.0139,
      "velocity": 89,
      "chip": "ym2612"
    },
    {
      "channel": 0,
      "note": 49,
      "start": 20.0691,
      "duration": 0.0148,
      "velocity": 95,
      "chip": "ym2612"
    },
    {
      "channel": 1,
      "note": 73,
      "start": 20.0696,
      "duration": 0.015,
      "velocity": 89,
      "chip": "ym2612"
    },
    {
      "channel": 2,
      "note": 68,
      "start": 20.07,
      "duration": 0.0152,
      "velocity": 89,
      "chip": "ym2612"
    },
    {
      "channel": 0,
      "note": 49,
      "start": 20.084,
      "duration": 0.0142,
      "velocity": 95,
      "chip": "ym2612"
    },
    {
      "channel": 1,
      "note": 73,
      "start": 20.0846,
      "duration": 0.0142,
      "velocity": 89,
      "chip": "ym2612"
    },
    {
      "channel": 2,
      "note": 68,
      "start": 20.0852,
      "duration": 0.0141,
      "velocity": 89,
      "chip": "ym2612"
    },
    {
      "channel": 0,
      "note": 49,
      "start": 20.0981,
      "duration": 0.0144,
      "velocity": 95,
      "chip": "ym2612"
    },
    {
      "channel": 1,
      "note": 73,
      "start": 20.0988,
      "duration": 0.0144,
      "velocity": 89,
      "chip": "ym2612"
    },
    {
      "channel": 2,
      "note": 68,
      "start": 20.0993,
      "duration": 0.0144,
      "velocity": 89,
      "chip": "ym2612"
    },
    {
      "channel": 0,
      "note": 49,
      "start": 20.1126,
      "duration": 0.014,
      "velocity": 95,
      "chip": "ym2612"
    },
    {
      "channel": 1,
      "note": 73,
      "start": 20.1132,
      "duration": 0.0141,
      "velocity": 89,
      "chip": "ym2612"
    },
    {
      "channel": 2,
      "note": 68,
      "start": 20.1138,
      "duration": 0.0141,
      "velocity": 89,
      "chip": "ym2612"
    },
    {
      "channel": 0,
      "note": 51,
      "start": 20.127,
      "duration": 0.3162,
      "velocity": 95,
      "chip": "ym2612"
    },
    {
      "channel": 1,
      "note": 63,
      "start": 20.1277,
      "duration": 0.3161,
      "velocity": 89,
      "chip": "ym2612"
    },
    {
      "channel": 2,
      "note": 70,
      "start": 20.1284,
      "duration": 0.3161,
      "velocity": 89,
      "chip": "ym2612"
    },
    {
      "channel": 3,
      "note": 66,
      "start": 20.129,
      "duration": 1.5408,
      "velocity": 89,
      "chip": "ym2612"
    },
    {
      "channel": 4,
      "note": 75,
      "start": 20.1297,
      "duration": 1.5412,
      "velocity": 89,
      "chip": "ym2612"
    },
    {
      "channel": 0,
      "note": 51,
      "start": 20.4432,
      "duration": 0.0045,
      "velocity": 95,
      "chip": "ym2612"
    },
    {
      "channel": 1,
      "note": 63,
      "start": 20.4438,
      "duration": 0.0044,
      "velocity": 89,
      "chip": "ym2612"
    },
    {
      "channel": 2,
      "note": 70,
      "start": 20.4445,
      "duration": 0.0044,
      "velocity": 89,
      "chip": "ym2612"
    },
    {
      "channel": 0,
      "note": 51,
      "start": 20.4477,
      "duration": 0.0035,
      "velocity": 95,
      "chip": "ym2612"
    },
    {
      "channel": 1,
      "note": 63,
      "start": 20.4482,
      "duration": 0.0034,
      "velocity": 89,
      "chip": "ym2612"
    },
    {
      "channel": 2,
      "note": 70,
      "start": 20.4489,
      "duration": 0.0032,
      "velocity": 89,
      "chip": "ym2612"
    },
    {
      "channel": 0,
      "note": 51,
      "start": 20.4512,
      "duration": 0.0033,
      "velocity": 95,
      "chip": "ym2612"
    },
    {
      "channel": 1,
      "note": 63,
      "start": 20.4516,
      "duration": 0.0035,
      "velocity": 89,
      "chip": "ym2612"
    },
    {
      "channel": 2,
      "note": 70,
      "start": 20.4521,
      "duration": 0.0036,
      "velocity": 89,
      "chip": "ym2612"
    },
    {
      "channel": 0,
      "note": 51,
      "start": 20.4545,
      "duration": 0.0032,
      "velocity": 95,
      "chip": "ym2612"
    },
    {
      "channel": 1,
      "note": 63,
      "start": 20.4551,
      "duration": 0.0032,
      "velocity": 89,
      "chip": "ym2612"
    },
    {
      "channel": 2,
      "note": 70,
      "start": 20.4557,
      "duration": 0.0032,
      "velocity": 89,
      "chip": "ym2612"
    },
    {
      "channel": 0,
      "note": 51,
      "start": 20.4576,
      "duration": 0.0037,
      "velocity": 95,
      "chip": "ym2612"
    },
    {
      "channel": 1,
      "note": 63,
      "start": 20.4583,
      "duration": 0.0036,
      "velocity": 89,
      "chip": "ym2612"
    },
    {
      "channel": 2,
      "note": 70,
      "start": 20.4588,
      "duration": 0.0037,
      "velocity": 89,
      "chip": "ym2612"
    },
    {
      "channel": 0,
      "note": 51,
      "start": 20.4613,
      "duration": 0.0035,
      "velocity": 95,
      "chip": "ym2612"
    },
    {
      "channel": 1,
      "note": 63,
      "start": 20.4619,
      "duration": 0.0034,
      "velocity": 89,
      "chip": "ym2612"
    },
    {
      "channel": 2,
      "note": 70,
      "start": 20.4625,
      "duration": 0.0032,
      "velocity": 89,
      "chip": "ym2612"
    },
    {
      "channel": 0,
      "note": 51,
      "start": 20.4648,
      "duration": 0.0034,
      "velocity": 95,
      "chip": "ym2612"
    },
    {
      "channel": 1,
      "note": 63,
      "start": 20.4653,
      "duration": 0.0035,
      "velocity": 89,
      "chip": "ym2612"
    },
    {
      "channel": 2,
      "note": 70,
      "start": 20.4657,
      "duration": 0.0037,
      "velocity": 89,
      "chip": "ym2612"
    },
    {
      "channel": 0,
      "note": 51,
      "start": 20.4682,
      "duration": 0.0036,
      "velocity": 95,
      "chip": "ym2612"
    },
    {
      "channel": 1,
      "note": 63,
      "start": 20.4688,
      "duration": 0.0036,
      "velocity": 89,
      "chip": "ym2612"
    },
    {
      "channel": 2,
      "note": 70,
      "start": 20.4694,
      "duration": 0.0036,
      "velocity": 89,
      "chip": "ym2612"
    },
    {
      "channel": 0,
      "note": 51,
      "start": 20.4718,
      "duration": 0.0037,
      "velocity": 95,
      "chip": "ym2612"
    },
    {
      "channel": 1,
      "note": 63,
      "start": 20.4724,
      "duration": 0.0037,
      "velocity": 89,
      "chip": "ym2612"
    },
    {
      "channel": 2,
      "note": 70,
      "start": 20.473,
      "duration": 0.0037,
      "velocity": 89,
      "chip": "ym2612"
    },
    {
      "channel": 0,
      "note": 51,
      "start": 20.4755,
      "duration": 0.0037,
      "velocity": 95,
      "chip": "ym2612"
    },
    {
      "channel": 1,
      "note": 63,
      "start": 20.4761,
      "duration": 0.0037,
      "velocity": 89,
      "chip": "ym2612"
    },
    {
      "channel": 2,
      "note": 70,
      "start": 20.4767,
      "duration": 0.0037,
      "velocity": 89,
      "chip": "ym2612"
    },
    {
      "channel": 0,
      "note": 51,
      "start": 20.4792,
      "duration": 0.0035,
      "velocity": 95,
      "chip": "ym2612"
    },
    {
      "channel": 1,
      "note": 63,
      "start": 20.4798,
      "duration": 0.0033,
      "velocity": 89,
      "chip": "ym2612"
    },
    {
      "channel": 2,
      "note": 70,
      "start": 20.4804,
      "duration": 0.0031,
      "velocity": 89,
      "chip": "ym2612"
    },
    {
      "channel": 0,
      "note": 51,
      "start": 20.4827,
      "duration": 0.0029,
      "velocity": 95,
      "chip": "ym2612"
    },
    {
      "channel": 1,
      "note": 63,
      "start": 20.4831,
      "duration": 0.0031,
      "velocity": 89,
      "chip": "ym2612"
    },
    {
      "channel": 2,
      "note": 70,
      "start": 20.4836,
      "duration": 0.0032,
      "velocity": 89,
      "chip": "ym2612"
    },
    {
      "channel": 0,
      "note": 51,
      "start": 20.4856,
      "duration": 0.0037,
      "velocity": 95,
      "chip": "ym2612"
    },
    {
      "channel": 1,
      "note": 63,
      "start": 20.4862,
      "duration": 0.0037,
      "velocity": 89,
      "chip": "ym2612"
    },
    {
      "channel": 2,
      "note": 70,
      "start": 20.4868,
      "duration": 0.0037,
      "velocity": 89,
      "chip": "ym2612"
    },
    {
      "channel": 0,
      "note": 51,
      "start": 20.4892,
      "duration": 0.0037,
      "velocity": 95,
      "chip": "ym2612"
    },
    {
      "channel": 1,
      "note": 63,
      "start": 20.4899,
      "duration": 0.0036,
      "velocity": 89,
      "chip": "ym2612"
    },
    {
      "channel": 2,
      "note": 70,
      "start": 20.4904,
      "duration": 0.0037,
      "velocity": 89,
      "chip": "ym2612"
    },
    {
      "channel": 0,
      "note": 51,
      "start": 20.4929,
      "duration": 0.0122,
      "velocity": 95,
      "chip": "ym2612"
    },
    {
      "channel": 1,
      "note": 63,
      "start": 20.4935,
      "duration": 0.0121,
      "velocity": 89,
      "chip": "ym2612"
    },
    {
      "channel": 2,
      "note": 70,
      "start": 20.4941,
      "duration": 0.0119,
      "velocity": 89,
      "chip": "ym2612"
    },
    {
      "channel": 0,
      "note": 51,
      "start": 20.5051,
      "duration": 0.0146,
      "velocity": 95,
      "chip": "ym2612"
    },
    {
      "channel": 1,
      "note": 63,
      "start": 20.5055,
      "duration": 0.0148,
      "velocity": 89,
      "chip": "ym2612"
    },
    {
      "channel": 2,
      "note": 70,
      "start": 20.506,
      "duration": 0.0149,
      "velocity": 89,
      "chip": "ym2612"
    },
    {
      "channel": 0,
      "note": 51,
      "start": 20.5197,
      "duration": 0.0144,
      "velocity": 95,
      "chip": "ym2612"
    },
    {
      "channel": 1,
      "note": 63,
      "start": 20.5204,
      "duration": 0.0144,
      "velocity": 89,
      "chip": "ym2612"
    },
    {
      "channel": 2,
      "note": 70,
      "start": 20.5209,
      "duration": 0.0145,
      "velocity": 89,
      "chip": "ym2612"
    },
    {
      "channel": 0,
      "note": 51,
      "start": 20.5341,
      "duration": 0.0144,
      "velocity": 95,
      "chip": "ym2612"
    },
    {
      "channel": 1,
      "note": 63,
      "start": 20.5348,
      "duration": 0.0144,
      "velocity": 89,
      "chip": "ym2612"
    },
    {
      "channel": 2,
      "note": 70,
      "start": 20.5354,
      "duration": 0.0144,
      "velocity": 89,
      "chip": "ym2612"
    },
    {
      "channel": 0,
      "note": 51,
      "start": 20.5486,
      "duration": 0.0146,
      "velocity": 95,
      "chip": "ym2612"
    },
    {
      "channel": 1,
      "note": 63,
      "start": 20.5492,
      "duration": 0.0146,
      "velocity": 89,
      "chip": "ym2612"
    },
    {
      "channel": 2,
      "note": 70,
      "start": 20.5498,
      "duration": 0.0146,
      "velocity": 89,
      "chip": "ym2612"
    },
    {
      "channel": 0,
      "note": 51,
      "start": 20.5632,
      "duration": 0.0142,
      "velocity": 95,
      "chip": "ym2612"
    },
    {
      "channel": 1,
      "note": 63,
      "start": 20.5638,
      "duration": 0.014,
      "velocity": 89,
      "chip": "ym2612"
    },
    {
      "channel": 2,
      "note": 70,
      "start": 20.5644,
      "duration": 0.0138,
      "velocity": 89,
      "chip": "ym2612"
    },
    {
      "channel": 0,
      "note": 51,
      "start": 20.5773,
      "duration": 0.0146,
      "velocity": 95,
      "chip": "ym2612"
    },
    {
      "channel": 1,
      "note": 63,
      "start": 20.5778,
      "duration": 0.0147,
      "velocity": 89,
      "chip": "ym2612"
    },
    {
      "channel": 2,
      "note": 70,
      "start": 20.5782,
      "duration": 0.0149,
      "velocity": 89,
      "chip": "ym2612"
    },
    {
      "channel": 0,
      "note": 51,
      "start": 20.5919,
      "duration": 0.0144,
      "velocity": 95,
      "chip": "ym2612"
    },
    {
      "channel": 1,
      "note": 63,
      "start": 20.5925,
      "duration": 0.0144,
      "velocity": 89,
      "chip": "ym2612"
    },
    {
      "channel": 2,
      "note": 70,
      "start": 20.5931,
      "duration": 0.0144,
      "velocity": 89,
      "chip": "ym2612"
    },
    {
      "channel": 0,
      "note": 51,
      "start": 20.6063,
      "duration": 0.0144,
      "velocity": 95,
      "chip": "ym2612"
    },
    {
      "channel": 1,
      "note": 63,
      "start": 20.6069,
      "duration": 0.0145,
      "velocity": 89,
      "chip": "ym2612"
    },
    {
      "channel": 2,
      "note": 70,
      "start": 20.6076,
      "duration": 0.0144,
      "velocity": 89,
      "chip": "ym2612"
    },
    {
      "channel": 0,
      "note": 51,
      "start": 20.6208,
      "duration": 0.0143,
      "velocity": 95,
      "chip": "ym2612"
    },
    {
      "channel": 1,
      "note": 63,
      "start": 20.6214,
      "duration": 0.0141,
      "velocity": 89,
      "chip": "ym2612"
    },
    {
      "channel": 2,
      "note": 70,
      "start": 20.622,
      "duration": 0.014,
      "velocity": 89,
      "chip": "ym2612"
    },
    {
      "channel": 0,
      "note": 51,
      "start": 20.6351,
      "duration": 0.0041,
      "velocity": 95,
      "chip": "ym2612"
    },
    {
      "channel": 1,
      "note": 63,
      "start": 20.6356,
      "duration": 0.0042,
      "velocity": 89,
      "chip": "ym2612"
    },
    {
      "channel": 2,
      "note": 70,
      "start": 20.636,
      "duration": 0.0044,
      "velocity": 89,
      "chip": "ym2612"
    },
    {
      "channel": 0,
      "note": 51,
      "start": 20.6392,
      "duration": 0.0036,
      "velocity": 95,
      "chip": "ym2612"
    },
    {
      "channel": 1,
      "note": 63,
      "start": 20.6398,
      "duration": 0.0036,
      "velocity": 89,
      "chip": "ym2612"
    },
    {
      "channel": 2,
      "note": 70,
      "start": 20.6404,
      "duration": 0.0036,
      "velocity": 89,
      "chip": "ym2612"
    },
    {
      "channel": 0,
      "note": 51,
      "start": 20.6428,
      "duration": 0.0052,
      "velocity": 95,
      "chip": "ym2612"
    },
    {
      "channel": 1,
      "note": 63,
      "start": 20.6434,
      "duration": 0.0051,
      "velocity": 89,
      "chip": "ym2612"
    },
    {
      "channel": 2,
      "note": 70,
      "start": 20.6441,
      "duration": 0.0051,
      "velocity": 89,
      "chip": "ym2612"
    },
    {
      "channel": 0,
      "note": 51,
      "start": 20.6479,
      "duration": 0.0144,
      "velocity": 95,
      "chip": "ym2612"
    },
    {
      "channel": 1,
      "note": 63,
      "start": 20.6486,
      "duration": 0.0144,
      "velocity": 89,
      "chip": "ym2612"
    },
    {
      "channel": 2,
      "note": 70,
      "start": 20.6492,
      "duration": 0.0144,
      "velocity": 89,
      "chip": "ym2612"
    },
    {
      "channel": 0,
      "note": 51,
      "start": 20.6624,
      "duration": 0.0143,
      "velocity": 95,
      "chip": "ym2612"
    },
    {
      "channel": 1,
      "note": 63,
      "start": 20.6629,
      "duration": 0.0142,
      "velocity": 89,
      "chip": "ym2612"
    },
    {
      "channel": 2,
      "note": 70,
      "start": 20.6636,
      "duration": 0.014,
      "velocity": 89,
      "chip": "ym2612"
    },
    {
      "channel": 0,
      "note": 51,
      "start": 20.6767,
      "duration": 0.0146,
      "velocity": 95,
      "chip": "ym2612"
    },
    {
      "channel": 1,
      "note": 63,
      "start": 20.6771,
      "duration": 0.0147,
      "velocity": 89,
      "chip": "ym2612"
    },
    {
      "channel": 2,
      "note": 70,
      "start": 20.6776,
      "duration": 0.0149,
      "velocity": 89,
      "chip": "ym2612"
    },
    {
      "channel": 0,
      "note": 51,
      "start": 20.6913,
      "duration": 0.0144,
      "velocity": 95,
      "chip": "ym2612"
    },
    {
      "channel": 1,
      "note": 63,
      "start": 20.6918,
      "duration": 0.0144,
      "velocity": 89,
      "chip": "ym2612"
    },
    {
      "channel": 2,
      "note": 70,
      "start": 20.6925,
      "duration": 0.0144,
      "velocity": 89,
      "chip": "ym2612"
    },
    {
      "channel": 0,
      "note": 51,
      "start": 20.7057,
      "duration": 0.0144,
      "velocity": 95,
      "chip": "ym2612"
    },
    {
      "channel": 1,
      "note": 63,
      "start": 20.7063,
      "duration": 0.0145,
      "velocity": 89,
      "chip": "ym2612"
    },
    {
      "channel": 2,
      "note": 70,
      "start": 20.7069,
      "duration": 0.0144,
      "velocity": 89,
      "chip": "ym2612"
    },
    {
      "channel": 0,
      "note": 51,
      "start": 20.7201,
      "duration": 0.0143,
      "velocity": 95,
      "chip": "ym2612"
    },
    {
      "channel": 1,
      "note": 63,
      "start": 20.7208,
      "duration": 0.0141,
      "velocity": 89,
      "chip": "ym2612"
    },
    {
      "channel": 2,
      "note": 70,
      "start": 20.7214,
      "duration": 0.014,
      "velocity": 89,
      "chip": "ym2612"
    },
    {
      "channel": 0,
      "note": 51,
      "start": 20.7345,
      "duration": 0.0146,
      "velocity": 95,
      "chip": "ym2612"
    },
    {
      "channel": 1,
      "note": 63,
      "start": 20.7349,
      "duration": 0.0148,
      "velocity": 89,
      "chip": "ym2612"
    },
    {
      "channel": 2,
      "note": 70,
      "start": 20.7354,
      "duration": 0.0149,
      "velocity": 89,
      "chip": "ym2612"
    },
    {
      "channel": 0,
      "note": 51,
      "start": 20.749,
      "duration": 0.0144,
      "velocity": 95,
      "chip": "ym2612"
    },
    {
      "channel": 1,
      "note": 63,
      "start": 20.7497,
      "duration": 0.0144,
      "velocity": 89,
      "chip": "ym2612"
    },
    {
      "channel": 2,
      "note": 70,
      "start": 20.7502,
      "duration": 0.0145,
      "velocity": 89,
      "chip": "ym2612"
    },
    {
      "channel": 0,
      "note": 51,
      "start": 20.7635,
      "duration": 0.0145,
      "velocity": 95,
      "chip": "ym2612"
    },
    {
      "channel": 1,
      "note": 63,
      "start": 20.7641,
      "duration": 0.0144,
      "velocity": 89,
      "chip": "ym2612"
    },
    {
      "channel": 2,
      "note": 70,
      "start": 20.7647,
      "duration": 0.0144,
      "velocity": 89,
      "chip": "ym2612"
    },
    {
      "channel": 0,
      "note": 51,
      "start": 20.778,
      "duration": 0.0044,
      "velocity": 95,
      "chip": "ym2612"
    },
    {
      "channel": 1,
      "note": 63,
      "start": 20.7785,
      "duration": 0.0044,
      "velocity": 89,
      "chip": "ym2612"
    },
    {
      "channel": 2,
      "note": 70,
      "start": 20.7792,
      "duration": 0.0044,
      "velocity": 89,
      "chip": "ym2612"
    },
    {
      "channel": 0,
      "note": 51,
      "start": 20.7823,
      "duration": 0.0035,
      "velocity": 95,
      "chip": "ym2612"
    },
    {
      "channel": 1,
      "note": 63,
      "start": 20.7829,
      "duration": 0.0034,
      "velocity": 89,
      "chip": "ym2612"
    },
    {
      "channel": 2,
      "note": 70,
      "start": 20.7836,
      "duration": 0.0032,
      "velocity": 89,
      "chip": "ym2612"
    },
    {
      "channel": 0,
      "note": 51,
      "start": 20.7858,
      "duration": 0.0049,
      "velocity": 95,
      "chip": "ym2612"
    },
    {
      "channel": 1,
      "note": 63,
      "start": 20.7863,
      "duration": 0.005,
      "velocity": 89,
      "chip": "ym2612"
    },
    {
      "channel": 2,
      "note": 70,
      "start": 20.7868,
      "duration": 0.0052,
      "velocity": 89,
      "chip": "ym2612"
    },
    {
      "channel": 0,
      "note": 51,
      "start": 20.7907,
      "duration": 0.0144,
      "velocity": 95,
      "chip": "ym2612"
    },
    {
      "channel": 1,
      "note": 63,
      "start": 20.7913,
      "duration": 0.0144,
      "velocity": 89,
      "chip": "ym2612"
    },
    {
      "channel": 2,
      "note": 70,
      "start": 20.7919,
      "duration": 0.0144,
      "velocity": 89,
      "chip": "ym2612"
    },
    {
      "channel": 0,
      "note": 51,
      "start": 20.8051,
      "duration": 0.0145,
      "velocity": 95,
      "chip": "ym2612"
    },
    {
      "channel": 1,
      "note": 63,
      "start": 20.8057,
      "duration": 0.0144,
      "velocity": 89,
      "chip": "ym2612"
    },
    {
      "channel": 2,
      "note": 70,
      "start": 20.8064,
      "duration": 0.0144,
      "velocity": 89,
      "chip": "ym2612"
    },
    {
      "channel": 0,
      "note": 51,
      "start": 20.8196,
      "duration": 0.0144,
      "velocity": 95,
      "chip": "ym2612"
    },
    {
      "channel": 1,
      "note": 63,
      "start": 20.8202,
      "duration": 0.0142,
      "velocity": 89,
      "chip": "ym2612"
    },
    {
      "channel": 2,
      "note": 70,
      "start": 20.8208,
      "duration": 0.0141,
      "velocity": 89,
      "chip": "ym2612"
    },
    {
      "channel": 0,
      "note": 51,
      "start": 20.834,
      "duration": 0.0145,
      "velocity": 95,
      "chip": "ym2612"
    },
    {
      "channel": 1,
      "note": 63,
      "start": 20.8344,
      "duration": 0.0147,
      "velocity": 89,
      "chip": "ym2612"
    },
    {
      "channel": 2,
      "note": 70,
      "start": 20.8349,
      "duration": 0.0148,
      "velocity": 89,
      "chip": "ym2612"
    },
    {
      "channel": 0,
      "note": 51,
      "start": 20.8485,
      "duration": 0.0144,
      "velocity": 95,
      "chip": "ym2612"
    },
    {
      "channel": 1,
      "note": 63,
      "start": 20.8491,
      "duration": 0.0144,
      "velocity": 89,
      "chip": "ym2612"
    },
    {
      "channel": 2,
      "note": 70,
      "start": 20.8498,
      "duration": 0.0144,
      "velocity": 89,
      "chip": "ym2612"
    },
    {
      "channel": 0,
      "note": 51,
      "start": 20.8629,
      "duration": 0.0144,
      "velocity": 95,
      "chip": "ym2612"
    },
    {
      "channel": 1,
      "note": 63,
      "start": 20.8636,
      "duration": 0.0144,
      "velocity": 89,
      "chip": "ym2612"
    },
    {
      "channel": 2,
      "note": 70,
      "start": 20.8642,
      "duration": 0.0144,
      "velocity": 89,
      "chip": "ym2612"
    },
    {
      "channel": 0,
      "note": 51,
      "start": 20.8774,
      "duration": 0.0144,
      "velocity": 95,
      "chip": "ym2612"
    },
    {
      "channel": 1,
      "note": 63,
      "start": 20.878,
      "duration": 0.0144,
      "velocity": 89,
      "chip": "ym2612"
    },
    {
      "channel": 2,
      "note": 70,
      "start": 20.8786,
      "duration": 0.0144,
      "velocity": 89,
      "chip": "ym2612"
    },
    {
      "channel": 0,
      "note": 51,
      "start": 20.8918,
      "duration": 0.0143,
      "velocity": 95,
      "chip": "ym2612"
    },
    {
      "channel": 1,
      "note": 63,
      "start": 20.8924,
      "duration": 0.0141,
      "velocity": 89,
      "chip": "ym2612"
    },
    {
      "channel": 2,
      "note": 70,
      "start": 20.8931,
      "duration": 0.014,
      "velocity": 89,
      "chip": "ym2612"
    },
    {
      "channel": 0,
      "note": 51,
      "start": 20.9061,
      "duration": 0.0146,
      "velocity": 95,
      "chip": "ym2612"
    },
    {
      "channel": 1,
      "note": 63,
      "start": 20.9066,
      "duration": 0.0148,
      "velocity": 89,
      "chip": "ym2612"
    },
    {
      "channel": 2,
      "note": 70,
      "start": 20.9071,
      "duration": 0.0149,
      "velocity": 89,
      "chip": "ym2612"
    },
    {
      "channel": 0,
      "note": 51,
      "start": 20.9207,
      "duration": 0.0044,
      "velocity": 95,
      "chip": "ym2612"
    },
    {
      "channel": 1,
      "note": 63,
      "start": 20.9213,
      "duration": 0.0044,
      "velocity": 89,
      "chip": "ym2612"
    },
    {
      "channel": 2,
      "note": 70,
      "start": 20.922,
      "duration": 0.0044,
      "velocity": 89,
      "chip": "ym2612"
    },
    {
      "channel": 0,
      "note": 51,
      "start": 20.9252,
      "duration": 0.0031,
      "velocity": 95,
      "chip": "ym2612"
    },
    {
      "channel": 1,
      "note": 63,
      "start": 20.9257,
      "duration": 0.0032,
      "velocity": 89,
      "chip": "ym2612"
    },
    {
      "channel": 2,
      "note": 70,
      "start": 20.9264,
      "duration": 0.0032,
      "velocity": 89,
      "chip": "ym2612"
    },
    {
      "channel": 0,
      "note": 51,
      "start": 20.9283,
      "duration": 0.0035,
      "velocity": 95,
      "chip": "ym2612"
    },
    {
      "channel": 1,
      "note": 63,
      "start": 20.9289,
      "duration": 0.0033,
      "velocity": 89,
      "chip": "ym2612"
    },
    {
      "channel": 2,
      "note": 70,
      "start": 20.9296,
      "duration": 0.0032,
      "velocity": 89,
      "chip": "ym2612"
    },
    {
      "channel": 0,
      "note": 51,
      "start": 20.9318,
      "duration": 0.0034,
      "velocity": 95,
      "chip": "ym2612"
    },
    {
      "channel": 1,
      "note": 63,
      "start": 20.9322,
      "duration": 0.0036,
      "velocity": 89,
      "chip": "ym2612"
    },
    {
      "channel": 2,
      "note": 70,
      "start": 20.9328,
      "duration": 0.0037,
      "velocity": 89,
      "chip": "ym2612"
    },
    {
      "channel": 0,
      "note": 51,
      "start": 20.9352,
      "duration": 0.0037,
      "velocity": 95,
      "chip": "ym2612"
    },
    {
      "channel": 1,
      "note": 63,
      "start": 20.9358,
      "duration": 0.0037,
      "velocity": 89,
      "chip": "ym2612"
    },
    {
      "channel": 2,
      "note": 70,
      "start": 20.9364,
      "duration": 0.0037,
      "velocity": 89,
      "chip": "ym2612"
    },
    {
      "channel": 0,
      "note": 51,
      "start": 20.9388,
      "duration": 0.0037,
      "velocity": 95,
      "chip": "ym2612"
    },
    {
      "channel": 1,
      "note": 63,
      "start": 20.9395,
      "duration": 0.0037,
      "velocity": 89,
      "chip": "ym2612"
    },
    {
      "channel": 2,
      "note": 70,
      "start": 20.9401,
      "duration": 0.0037,
      "velocity": 89,
      "chip": "ym2612"
    },
    {
      "channel": 0,
      "note": 51,
      "start": 20.9426,
      "duration": 0.0037,
      "velocity": 95,
      "chip": "ym2612"
    },
    {
      "channel": 1,
      "note": 63,
      "start": 20.9432,
      "duration": 0.0037,
      "velocity": 89,
      "chip": "ym2612"
    },
    {
      "channel": 2,
      "note": 70,
      "start": 20.9438,
      "duration": 0.0037,
      "velocity": 89,
      "chip": "ym2612"
    },
    {
      "channel": 0,
      "note": 51,
      "start": 20.9462,
      "duration": 0.0036,
      "velocity": 95,
      "chip": "ym2612"
    },
    {
      "channel": 1,
      "note": 63,
      "start": 20.9469,
      "duration": 0.0033,
      "velocity": 89,
      "chip": "ym2612"
    },
    {
      "channel": 2,
      "note": 70,
      "start": 20.9475,
      "duration": 0.0032,
      "velocity": 89,
      "chip": "ym2612"
    },
    {
      "channel": 0,
      "note": 51,
      "start": 20.9498,
      "duration": 0.0033,
      "velocity": 95,
      "chip": "ym2612"
    },
    {
      "channel": 1,
      "note": 63,
      "start": 20.9502,
      "duration": 0.0035,
      "velocity": 89,
      "chip": "ym2612"
    },
    {
      "channel": 2,
      "note": 70,
      "start": 20.9507,
      "duration": 0.0036,
      "velocity": 89,
      "chip": "ym2612"
    },
    {
      "channel": 0,
      "note": 51,
      "start": 20.9531,
      "duration": 0.0032,
      "velocity": 95,
      "chip": "ym2612"
    },
    {
      "channel": 1,
      "note": 63,
      "start": 20.9537,
      "duration": 0.0032,
      "velocity": 89,
      "chip": "ym2612"
    },
    {
      "channel": 2,
      "note": 70,
      "start": 20.9543,
      "duration": 0.0032,
      "velocity": 89,
      "chip": "ym2612"
    },
    {
      "channel": 0,
      "note": 51,
      "start": 20.9563,
      "duration": 0.0037,
      "velocity": 95,
      "chip": "ym2612"
    },
    {
      "channel": 1,
      "note": 63,
      "start": 20.9569,
      "duration": 0.0037,
      "velocity": 89,
      "chip": "ym2612"
    },
    {
      "channel": 2,
      "note": 70,
      "start": 20.9575,
      "duration": 0.0037,
      "velocity": 89,
      "chip": "ym2612"
    },
    {
      "channel": 0,
      "note": 51,
      "start": 20.96,
      "duration": 0.0035,
      "velocity": 95,
      "chip": "ym2612"
    },
    {
      "channel": 1,
      "note": 63,
      "start": 20.9606,
      "duration": 0.0033,
      "velocity": 89,
      "chip": "ym2612"
    },
    {
      "channel": 2,
      "note": 70,
      "start": 20.9612,
      "duration": 0.0032,
      "velocity": 89,
      "chip": "ym2612"
    },
    {
      "channel": 0,
      "note": 51,
      "start": 20.9635,
      "duration": 0.0033,
      "velocity": 95,
      "chip": "ym2612"
    },
    {
      "channel": 1,
      "note": 63,
      "start": 20.9639,
      "duration": 0.0035,
      "velocity": 89,
      "chip": "ym2612"
    },
    {
      "channel": 2,
      "note": 70,
      "start": 20.9644,
      "duration": 0.0037,
      "velocity": 89,
      "chip": "ym2612"
    },
    {
      "channel": 0,
      "note": 51,
      "start": 20.9668,
      "duration": 0.0037,
      "velocity": 95,
      "chip": "ym2612"
    },
    {
      "channel": 1,
      "note": 63,
      "start": 20.9674,
      "duration": 0.0036,
      "velocity": 89,
      "chip": "ym2612"
    },
    {
      "channel": 2,
      "note": 70,
      "start": 20.968,
      "duration": 0.0036,
      "velocity": 89,
      "chip": "ym2612"
    },
    {
      "channel": 0,
      "note": 51,
      "start": 20.9705,
      "duration": 0.0123,
      "velocity": 95,
      "chip": "ym2612"
    },
    {
      "channel": 1,
      "note": 63,
      "start": 20.971,
      "duration": 0.0124,
      "velocity": 89,
      "chip": "ym2612"
    },
    {
      "channel": 2,
      "note": 70,
      "start": 20.9717,
      "duration": 0.0123,
      "velocity": 89,
      "chip": "ym2612"
    },
    {
      "channel": 0,
      "note": 51,
      "start": 20.9828,
      "duration": 0.0144,
      "velocity": 95,
      "chip": "ym2612"
    },
    {
      "channel": 1,
      "note": 63,
      "start": 20.9834,
      "duration": 0.0144,
      "velocity": 89,
      "chip": "ym2612"
    },
    {
      "channel": 2,
      "note": 70,
      "start": 20.984,
      "duration": 0.0144,
      "velocity": 89,
      "chip": "ym2612"
    },
    {
      "channel": 0,
      "note": 51,
      "start": 20.9972,
      "duration": 0.0142,
      "velocity": 95,
      "chip": "ym2612"
    },
    {
      "channel": 1,
      "note": 63,
      "start": 20.9979,
      "duration": 0.0141,
      "velocity": 89,
      "chip": "ym2612"
    },
    {
      "channel": 2,
      "note": 70,
      "start": 20.9984,
      "duration": 0.014,
      "velocity": 89,
      "chip": "ym2612"
    },
    {
      "channel": 0,
      "note": 51,
      "start": 21.0115,
      "duration": 0.0146,
      "velocity": 95,
      "chip": "ym2612"
    },
    {
      "channel": 1,
      "note": 63,
      "start": 21.012,
      "duration": 0.0147,
      "velocity": 89,
      "chip": "ym2612"
    },
    {
      "channel": 2,
      "note": 70,
      "start": 21.0124,
      "duration": 0.015,
      "velocity": 89,
      "chip": "ym2612"
    },
    {
      "channel": 0,
      "note": 51,
      "start": 21.0261,
      "duration": 0.0144,
      "velocity": 95,
      "chip": "ym2612"
    },
    {
      "channel": 1,
      "note": 63,
      "start": 21.0267,
      "duration": 0.0144,
      "velocity": 89,
      "chip": "ym2612"
    },
    {
      "channel": 2,
      "note": 70,
      "start": 21.0274,
      "duration": 0.0144,
      "velocity": 89,
      "chip": "ym2612"
    },
    {
      "channel": 0,
      "note": 51,
      "start": 21.0405,
      "duration": 0.0144,
      "velocity": 95,
      "chip": "ym2612"
    },
    {
      "channel": 1,
      "note": 63,
      "start": 21.0412,
      "duration": 0.0144,
      "velocity": 89,
      "chip": "ym2612"
    },
    {
      "channel": 2,
      "note": 70,
      "start": 21.0418,
      "duration": 0.0144,
      "velocity": 89,
      "chip": "ym2612"
    },
    {
      "channel": 0,
      "note": 51,
      "start": 21.055,
      "duration": 0.0143,
      "velocity": 95,
      "chip": "ym2612"
    },
    {
      "channel": 1,
      "note": 63,
      "start": 21.0556,
      "duration": 0.0141,
      "velocity": 89,
      "chip": "ym2612"
    },
    {
      "channel": 2,
      "note": 70,
      "start": 21.0562,
      "duration": 0.014,
      "velocity": 89,
      "chip": "ym2612"
    },
    {
      "channel": 0,
      "note": 51,
      "start": 21.0693,
      "duration": 0.0146,
      "velocity": 95,
      "chip": "ym2612"
    },
    {
      "channel": 1,
      "note": 63,
      "start": 21.0698,
      "duration": 0.0148,
      "velocity": 89,
      "chip": "ym2612"
    },
    {
      "channel": 2,
      "note": 70,
      "start": 21.0702,
      "duration": 0.0149,
      "velocity": 89,
      "chip": "ym2612"
    },
    {
      "channel": 0,
      "note": 51,
      "start": 21.0839,
      "duration": 0.0144,
      "velocity": 95,
      "chip": "ym2612"
    },
    {
      "channel": 1,
      "note": 63,
      "start": 21.0846,
      "duration": 0.0144,
      "velocity": 89,
      "chip": "ym2612"
    },
    {
      "channel": 2,
      "note": 70,
      "start": 21.0851,
      "duration": 0.0144,
      "velocity": 89,
      "chip": "ym2612"
    },
    {
      "channel": 0,
      "note": 51,
      "start": 21.0983,
      "duration": 0.0145,
      "velocity": 95,
      "chip": "ym2612"
    },
    {
      "channel": 1,
      "note": 63,
      "start": 21.099,
      "duration": 0.0145,
      "velocity": 89,
      "chip": "ym2612"
    },
    {
      "channel": 2,
      "note": 70,
      "start": 21.0996,
      "duration": 0.0144,
      "velocity": 89,
      "chip": "ym2612"
    },
    {
      "channel": 0,
      "note": 51,
      "start": 21.1128,
      "duration": 0.004,
      "velocity": 95,
      "chip": "ym2612"
    },
    {
      "channel": 1,
      "note": 63,
      "start": 21.1134,
      "duration": 0.0039,
      "velocity": 89,
      "chip": "ym2612"
    },
    {
      "channel": 2,
      "note": 70,
      "start": 21.114,
      "duration": 0.004,
      "velocity": 89,
      "chip": "ym2612"
    },
    {
      "channel": 0,
      "note": 51,
      "start": 21.1168,
      "duration": 0.0035,
      "velocity": 95,
      "chip": "ym2612"
    },
    {
      "channel": 1,
      "note": 63,
      "start": 21.1174,
      "duration": 0.0034,
      "velocity": 89,
      "chip": "ym2612"
    },
    {
      "channel": 2,
      "note": 70,
      "start": 21.118,
      "duration": 0.0032,
      "velocity": 89,
      "chip": "ym2612"
    },
    {
      "channel": 0,
      "note": 51,
      "start": 21.1203,
      "duration": 0.0053,
      "velocity": 95,
      "chip": "ym2612"
    },
    {
      "channel": 1,
      "note": 63,
      "start": 21.1208,
      "duration": 0.0054,
      "velocity": 89,
      "chip": "ym2612"
    },
    {
      "channel": 2,
      "note": 70,
      "start": 21.1212,
      "duration": 0.0056,
      "velocity": 89,
      "chip": "ym2612"
    },
    {
      "channel": 0,
      "note": 51,
      "start": 21.1256,
      "duration": 0.0144,
      "velocity": 95,
      "chip": "ym2612"
    },
    {
      "channel": 1,
      "note": 63,
      "start": 21.1262,
      "duration": 0.0144,
      "velocity": 89,
      "chip": "ym2612"
    },
    {
      "channel": 2,
      "note": 70,
      "start": 21.1268,
      "duration": 0.0144,
      "velocity": 89,
      "chip": "ym2612"
    },
    {
      "channel": 0,
      "note": 51,
      "start": 21.14,
      "duration": 0.0145,
      "velocity": 95,
      "chip": "ym2612"
    },
    {
      "channel": 1,
      "note": 63,
      "start": 21.1406,
      "duration": 0.0144,
      "velocity": 89,
      "chip": "ym2612"
    },
    {
      "channel": 2,
      "note": 70,
      "start": 21.1412,
      "duration": 0.0144,
      "velocity": 89,
      "chip": "ym2612"
    },
    {
      "channel": 0,
      "note": 51,
      "start": 21.1545,
      "duration": 0.0143,
      "velocity": 95,
      "chip": "ym2612"
    },
    {
      "channel": 1,
      "note": 63,
      "start": 21.155,
      "duration": 0.0142,
      "velocity": 89,
      "chip": "ym2612"
    },
    {
      "channel": 2,
      "note": 70,
      "start": 21.1557,
      "duration": 0.014,
      "velocity": 89,
      "chip": "ym2612"
    },
    {
      "channel": 0,
      "note": 51,
      "start": 21.1687,
      "duration": 0.0146,
      "velocity": 95,
      "chip": "ym2612"
    },
    {
      "channel": 1,
      "note": 63,
      "start": 21.1692,
      "duration": 0.0148,
      "velocity": 89,
      "chip": "ym2612"
    },
    {
      "channel": 2,
      "note": 70,
      "start": 21.1697,
      "duration": 0.0149,
      "velocity": 89,
      "chip": "ym2612"
    },
    {
      "channel": 0,
      "note": 51,
      "start": 21.1834,
      "duration": 0.0144,
      "velocity": 95,
      "chip": "ym2612"
    },
    {
      "channel": 1,
      "note": 63,
      "start": 21.184,
      "duration": 0.0144,
      "velocity": 89,
      "chip": "ym2612"
    },
    {
      "channel": 2,
      "note": 70,
      "start": 21.1846,
      "duration": 0.0144,
      "velocity": 89,
      "chip": "ym2612"
    },
    {
      "channel": 0,
      "note": 51,
      "start": 21.1978,
      "duration": 0.0145,
      "velocity": 95,
      "chip": "ym2612"
    },
    {
      "channel": 1,
      "note": 63,
      "start": 21.1984,
      "duration": 0.0144,
      "velocity": 89,
      "chip": "ym2612"
    },
    {
      "channel": 2,
      "note": 70,
      "start": 21.1991,
      "duration": 0.0144,
      "velocity": 89,
      "chip": "ym2612"
    },
    {
      "channel": 0,
      "note": 51,
      "start": 21.2123,
      "duration": 0.0144,
      "velocity": 95,
      "chip": "ym2612"
    },
    {
      "channel": 1,
      "note": 63,
      "start": 21.2129,
      "duration": 0.0145,
      "velocity": 89,
      "chip": "ym2612"
    },
    {
      "channel": 2,
      "note": 70,
      "start": 21.2135,
      "duration": 0.0144,
      "velocity": 89,
      "chip": "ym2612"
    },
    {
      "channel": 0,
      "note": 51,
      "start": 21.2267,
      "duration": 0.0142,
      "velocity": 95,
      "chip": "ym2612"
    },
    {
      "channel": 1,
      "note": 63,
      "start": 21.2274,
      "duration": 0.0141,
      "velocity": 89,
      "chip": "ym2612"
    },
    {
      "channel": 2,
      "note": 70,
      "start": 21.2279,
      "duration": 0.014,
      "velocity": 89,
      "chip": "ym2612"
    },
    {
      "channel": 0,
      "note": 51,
      "start": 21.241,
      "duration": 0.0146,
      "velocity": 95,
      "chip": "ym2612"
    },
    {
      "channel": 1,
      "note": 63,
      "start": 21.2414,
      "duration": 0.0148,
      "velocity": 89,
      "chip": "ym2612"
    },
    {
      "channel": 2,
      "note": 70,
      "start": 21.242,
      "duration": 0.0149,
      "velocity": 89,
      "chip": "ym2612"
    },
    {
      "channel": 0,
      "note": 51,
      "start": 21.2556,
      "duration": 0.0044,
      "velocity": 95,
      "chip": "ym2612"
    },
    {
      "channel": 1,
      "note": 63,
      "start": 21.2562,
      "duration": 0.0044,
      "velocity": 89,
      "chip": "ym2612"
    },
    {
      "channel": 2,
      "note": 70,
      "start": 21.2568,
      "duration": 0.0044,
      "velocity": 89,
      "chip": "ym2612"
    },
    {
      "channel": 0,
      "note": 51,
      "start": 21.26,
      "duration": 0.0036,
      "velocity": 95,
      "chip": "ym2612"
    },
    {
      "channel": 1,
      "note": 63,
      "start": 21.2606,
      "duration": 0.0036,
      "velocity": 89,
      "chip": "ym2612"
    },
    {
      "channel": 2,
      "note": 70,
      "start": 21.2613,
      "duration": 0.0035,
      "velocity": 89,
      "chip": "ym2612"
    },
    {
      "channel": 0,
      "note": 51,
      "start": 21.2636,
      "duration": 0.0035,
      "velocity": 95,
      "chip": "ym2612"
    },
    {
      "channel": 1,
      "note": 63,
      "start": 21.2642,
      "duration": 0.0034,
      "velocity": 89,
      "chip": "ym2612"
    },
    {
      "channel": 2,
      "note": 70,
      "start": 21.2648,
      "duration": 0.0033,
      "velocity": 89,
      "chip": "ym2612"
    },
    {
      "channel": 0,
      "note": 51,
      "start": 21.2671,
      "duration": 0.0034,
      "velocity": 95,
      "chip": "ym2612"
    },
    {
      "channel": 1,
      "note": 63,
      "start": 21.2676,
      "duration": 0.0036,
      "velocity": 89,
      "chip": "ym2612"
    },
    {
      "channel": 2,
      "note": 70,
      "start": 21.2681,
      "duration": 0.0037,
      "velocity": 89,
      "chip": "ym2612"
    },
    {
      "channel": 0,
      "note": 51,
      "start": 21.2705,
      "duration": 0.0032,
      "velocity": 95,
      "chip": "ym2612"
    },
    {
      "channel": 1,
      "note": 63,
      "start": 21.2712,
      "duration": 0.0032,
      "velocity": 89,
      "chip": "ym2612"
    },
    {
      "channel": 2,
      "note": 70,
      "start": 21.2718,
      "duration": 0.0032,
      "velocity": 89,
      "chip": "ym2612"
    },
    {
      "channel": 0,
      "note": 51,
      "start": 21.2737,
      "duration": 0.0037,
      "velocity": 95,
      "chip": "ym2612"
    },
    {
      "channel": 1,
      "note": 63,
      "start": 21.2744,
      "duration": 0.0037,
      "velocity": 89,
      "chip": "ym2612"
    },
    {
      "channel": 2,
      "note": 70,
      "start": 21.275,
      "duration": 0.0037,
      "velocity": 89,
      "chip": "ym2612"
    },
    {
      "channel": 0,
      "note": 51,
      "start": 21.2775,
      "duration": 0.0036,
      "velocity": 95,
      "chip": "ym2612"
    },
    {
      "channel": 1,
      "note": 63,
      "start": 21.2781,
      "duration": 0.0036,
      "velocity": 89,
      "chip": "ym2612"
    },
    {
      "channel": 2,
      "note": 70,
      "start": 21.2787,
      "duration": 0.0036,
      "velocity": 89,
      "chip": "ym2612"
    },
    {
      "channel": 0,
      "note": 51,
      "start": 21.2811,
      "duration": 0.0035,
      "velocity": 95,
      "chip": "ym2612"
    },
    {
      "channel": 1,
      "note": 63,
      "start": 21.2817,
      "duration": 0.0033,
      "velocity": 89,
      "chip": "ym2612"
    },
    {
      "channel": 2,
      "note": 70,
      "start": 21.2824,
      "duration": 0.0032,
      "velocity": 89,
      "chip": "ym2612"
    },
    {
      "channel": 0,
      "note": 51,
      "start": 21.2846,
      "duration": 0.0033,
      "velocity": 95,
      "chip": "ym2612"
    },
    {
      "channel": 1,
      "note": 63,
      "start": 21.2851,
      "duration": 0.0035,
      "velocity": 89,
      "chip": "ym2612"
    },
    {
      "channel": 2,
      "note": 70,
      "start": 21.2855,
      "duration": 0.0036,
      "velocity": 89,
      "chip": "ym2612"
    },
    {
      "channel": 0,
      "note": 51,
      "start": 21.2879,
      "duration": 0.0036,
      "velocity": 95,
      "chip": "ym2612"
    },
    {
      "channel": 1,
      "note": 63,
      "start": 21.2885,
      "duration": 0.0036,
      "velocity": 89,
      "chip": "ym2612"
    },
    {
      "channel": 2,
      "note": 70,
      "start": 21.2891,
      "duration": 0.0036,
      "velocity": 89,
      "chip": "ym2612"
    },
    {
      "channel": 0,
      "note": 51,
      "start": 21.2915,
      "duration": 0.0037,
      "velocity": 95,
      "chip": "ym2612"
    },
    {
      "channel": 1,
      "note": 63,
      "start": 21.2922,
      "duration": 0.0036,
      "velocity": 89,
      "chip": "ym2612"
    },
    {
      "channel": 2,
      "note": 70,
      "start": 21.2927,
      "duration": 0.0037,
      "velocity": 89,
      "chip": "ym2612"
    },
    {
      "channel": 0,
      "note": 51,
      "start": 21.2952,
      "duration": 0.0031,
      "velocity": 95,
      "chip": "ym2612"
    },
    {
      "channel": 1,
      "note": 63,
      "start": 21.2958,
      "duration": 0.003,
      "velocity": 89,
      "chip": "ym2612"
    },
    {
      "channel": 2,
      "note": 70,
      "start": 21.2964,
      "duration": 0.0028,
      "velocity": 89,
      "chip": "ym2612"
    },
    {
      "channel": 0,
      "note": 51,
      "start": 21.2983,
      "duration": 0.0033,
      "velocity": 95,
      "chip": "ym2612"
    },
    {
      "channel": 1,
      "note": 63,
      "start": 21.2987,
      "duration": 0.0035,
      "velocity": 89,
      "chip": "ym2612"
    },
    {
      "channel": 2,
      "note": 70,
      "start": 21.2992,
      "duration": 0.0037,
      "velocity": 89,
      "chip": "ym2612"
    },
    {
      "channel": 0,
      "note": 51,
      "start": 21.3016,
      "duration": 0.0037,
      "velocity": 95,
      "chip": "ym2612"
    },
    {
      "channel": 1,
      "note": 63,
      "start": 21.3022,
      "duration": 0.0037,
      "velocity": 89,
      "chip": "ym2612"
    },
    {
      "channel": 2,
      "note": 70,
      "start": 21.3029,
      "duration": 0.0037,
      "velocity": 89,
      "chip": "ym2612"
    },
    {
      "channel": 0,
      "note": 51,
      "start": 21.3053,
      "duration": 0.0124,
      "velocity": 95,
      "chip": "ym2612"
    },
    {
      "channel": 1,
      "note": 63,
      "start": 21.3059,
      "duration": 0.0124,
      "velocity": 89,
      "chip": "ym2612"
    },
    {
      "channel": 2,
      "note": 70,
      "start": 21.3065,
      "duration": 0.0124,
      "velocity": 89,
      "chip": "ym2612"
    },
    {
      "channel": 0,
      "note": 51,
      "start": 21.3177,
      "duration": 0.0144,
      "velocity": 95,
      "chip": "ym2612"
    },
    {
      "channel": 1,
      "note": 63,
      "start": 21.3183,
      "duration": 0.0144,
      "velocity": 89,
      "chip": "ym2612"
    },
    {
      "channel": 2,
      "note": 70,
      "start": 21.3189,
      "duration": 0.0144,
      "velocity": 89,
      "chip": "ym2612"
    },
    {
      "channel": 0,
      "note": 51,
      "start": 21.3321,
      "duration": 0.0143,
      "velocity": 95,
      "chip": "ym2612"
    },
    {
      "channel": 1,
      "note": 63,
      "start": 21.3328,
      "duration": 0.0141,
      "velocity": 89,
      "chip": "ym2612"
    },
    {
      "channel": 2,
      "note": 70,
      "start": 21.3333,
      "duration": 0.014,
      "velocity": 89,
      "chip": "ym2612"
    },
    {
      "channel": 0,
      "note": 51,
      "start": 21.3464,
      "duration": 0.0146,
      "velocity": 95,
      "chip": "ym2612"
    },
    {
      "channel": 1,
      "note": 63,
      "start": 21.3469,
      "duration": 0.0148,
      "velocity": 89,
      "chip": "ym2612"
    },
    {
      "channel": 2,
      "note": 70,
      "start": 21.3473,
      "duration": 0.0149,
      "velocity": 89,
      "chip": "ym2612"
    },
    {
      "channel": 0,
      "note": 51,
      "start": 21.361,
      "duration": 0.0144,
      "velocity": 95,
      "chip": "ym2612"
    },
    {
      "channel": 1,
      "note": 63,
      "start": 21.3616,
      "duration": 0.0144,
      "velocity": 89,
      "chip": "ym2612"
    },
    {
      "channel": 2,
      "note": 70,
      "start": 21.3623,
      "duration": 0.0144,
      "velocity": 89,
      "chip": "ym2612"
    },
    {
      "channel": 0,
      "note": 51,
      "start": 21.3754,
      "duration": 0.0144,
      "velocity": 95,
      "chip": "ym2612"
    },
    {
      "channel": 1,
      "note": 63,
      "start": 21.3761,
      "duration": 0.0144,
      "velocity": 89,
      "chip": "ym2612"
    },
    {
      "channel": 2,
      "note": 70,
      "start": 21.3766,
      "duration": 0.0144,
      "velocity": 89,
      "chip": "ym2612"
    },
    {
      "channel": 0,
      "note": 51,
      "start": 21.3899,
      "duration": 0.0143,
      "velocity": 95,
      "chip": "ym2612"
    },
    {
      "channel": 1,
      "note": 63,
      "start": 21.3905,
      "duration": 0.0141,
      "velocity": 89,
      "chip": "ym2612"
    },
    {
      "channel": 2,
      "note": 70,
      "start": 21.3911,
      "duration": 0.0141,
      "velocity": 89,
      "chip": "ym2612"
    },
    {
      "channel": 0,
      "note": 51,
      "start": 21.4042,
      "duration": 0.0146,
      "velocity": 95,
      "chip": "ym2612"
    },
    {
      "channel": 1,
      "note": 63,
      "start": 21.4046,
      "duration": 0.0148,
      "velocity": 89,
      "chip": "ym2612"
    },
    {
      "channel": 2,
      "note": 70,
      "start": 21.4051,
      "duration": 0.0149,
      "velocity": 89,
      "chip": "ym2612"
    },
    {
      "channel": 0,
      "note": 51,
      "start": 21.4188,
      "duration": 0.0144,
      "velocity": 95,
      "chip": "ym2612"
    },
    {
      "channel": 1,
      "note": 63,
      "start": 21.4195,
      "duration": 0.0144,
      "velocity": 89,
      "chip": "ym2612"
    },
    {
      "channel": 2,
      "note": 70,
      "start": 21.42,
      "duration": 0.0144,
      "velocity": 89,
      "chip": "ym2612"
    },
    {
      "channel": 0,
      "note": 51,
      "start": 21.4332,
      "duration": 0.0145,
      "velocity": 95,
      "chip": "ym2612"
    },
    {
      "channel": 1,
      "note": 63,
      "start": 21.4338,
      "duration": 0.0145,
      "velocity": 89,
      "chip": "ym2612"
    },
    {
      "channel": 2,
      "note": 70,
      "start": 21.4345,
      "duration": 0.0144,
      "velocity": 89,
      "chip": "ym2612"
    },
    {
      "channel": 0,
      "note": 51,
      "start": 21.4477,
      "duration": 0.0044,
      "velocity": 95,
      "chip": "ym2612"
    },
    {
      "channel": 1,
      "note": 63,
      "start": 21.4483,
      "duration": 0.0044,
      "velocity": 89,
      "chip": "ym2612"
    },
    {
      "channel": 2,
      "note": 70,
      "start": 21.4489,
      "duration": 0.0044,
      "velocity": 89,
      "chip": "ym2612"
    },
    {
      "channel": 0,
      "note": 51,
      "start": 21.4522,
      "duration": 0.0034,
      "velocity": 95,
      "chip": "ym2612"
    },
    {
      "channel": 1,
      "note": 63,
      "start": 21.4528,
      "duration": 0.0033,
      "velocity": 89,
      "chip": "ym2612"
    },
    {
      "channel": 2,
      "note": 70,
      "start": 21.4534,
      "duration": 0.0032,
      "velocity": 89,
      "chip": "ym2612"
    },
    {
      "channel": 0,
      "note": 51,
      "start": 21.4556,
      "duration": 0.0034,
      "velocity": 95,
      "chip": "ym2612"
    },
    {
      "channel": 1,
      "note": 63,
      "start": 21.4561,
      "duration": 0.0034,
      "velocity": 89,
      "chip": "ym2612"
    },
    {
      "channel": 2,
      "note": 70,
      "start": 21.4565,
      "duration": 0.0036,
      "velocity": 89,
      "chip": "ym2612"
    },
    {
      "channel": 0,
      "note": 51,
      "start": 21.459,
      "duration": 0.0032,
      "velocity": 95,
      "chip": "ym2612"
    },
    {
      "channel": 1,
      "note": 63,
      "start": 21.4595,
      "duration": 0.0032,
      "velocity": 89,
      "chip": "ym2612"
    },
    {
      "channel": 2,
      "note": 70,
      "start": 21.4602,
      "duration": 0.0032,
      "velocity": 89,
      "chip": "ym2612"
    },
    {
      "channel": 0,
      "note": 51,
      "start": 21.4621,
      "duration": 0.0037,
      "velocity": 95,
      "chip": "ym2612"
    },
    {
      "channel": 1,
      "note": 63,
      "start": 21.4628,
      "duration": 0.0037,
      "velocity": 89,
      "chip": "ym2612"
    },
    {
      "channel": 2,
      "note": 70,
      "start": 21.4633,
      "duration": 0.0037,
      "velocity": 89,
      "chip": "ym2612"
    },
    {
      "channel": 0,
      "note": 51,
      "start": 21.4659,
      "duration": 0.0035,
      "velocity": 95,
      "chip": "ym2612"
    },
    {
      "channel": 1,
      "note": 63,
      "start": 21.4665,
      "duration": 0.0033,
      "velocity": 89,
      "chip": "ym2612"
    },
    {
      "channel": 2,
      "note": 70,
      "start": 21.4671,
      "duration": 0.0032,
      "velocity": 89,
      "chip": "ym2612"
    },
    {
      "channel": 0,
      "note": 51,
      "start": 21.4693,
      "duration": 0.0033,
      "velocity": 95,
      "chip": "ym2612"
    },
    {
      "channel": 1,
      "note": 63,
      "start": 21.4698,
      "duration": 0.0035,
      "velocity": 89,
      "chip": "ym2612"
    },
    {
      "channel": 2,
      "note": 70,
      "start": 21.4702,
      "duration": 0.0037,
      "velocity": 89,
      "chip": "ym2612"
    },
    {
      "channel": 0,
      "note": 51,
      "start": 21.4726,
      "duration": 0.0037,
      "velocity": 95,
      "chip": "ym2612"
    },
    {
      "channel": 1,
      "note": 63,
      "start": 21.4733,
      "duration": 0.0037,
      "velocity": 89,
      "chip": "ym2612"
    },
    {
      "channel": 2,
      "note": 70,
      "start": 21.4739,
      "duration": 0.0036,
      "velocity": 89,
      "chip": "ym2612"
    },
    {
      "channel": 0,
      "note": 51,
      "start": 21.4763,
      "duration": 0.0037,
      "velocity": 95,
      "chip": "ym2612"
    },
    {
      "channel": 1,
      "note": 63,
      "start": 21.4769,
      "duration": 0.0037,
      "velocity": 89,
      "chip": "ym2612"
    },
    {
      "channel": 2,
      "note": 70,
      "start": 21.4775,
      "duration": 0.0037,
      "velocity": 89,
      "chip": "ym2612"
    },
    {
      "channel": 0,
      "note": 51,
      "start": 21.48,
      "duration": 0.0037,
      "velocity": 95,
      "chip": "ym2612"
    },
    {
      "channel": 1,
      "note": 63,
      "start": 21.4806,
      "duration": 0.0037,
      "velocity": 89,
      "chip": "ym2612"
    },
    {
      "channel": 2,
      "note": 70,
      "start": 21.4812,
      "duration": 0.0037,
      "velocity": 89,
      "chip": "ym2612"
    },
    {
      "channel": 0,
      "note": 51,
      "start": 21.4837,
      "duration": 0.003,
      "velocity": 95,
      "chip": "ym2612"
    },
    {
      "channel": 1,
      "note": 63,
      "start": 21.4843,
      "duration": 0.0029,
      "velocity": 89,
      "chip": "ym2612"
    },
    {
      "channel": 2,
      "note": 70,
      "start": 21.4849,
      "duration": 0.0027,
      "velocity": 89,
      "chip": "ym2612"
    },
    {
      "channel": 0,
      "note": 51,
      "start": 21.4867,
      "duration": 0.0033,
      "velocity": 95,
      "chip": "ym2612"
    },
    {
      "channel": 1,
      "note": 63,
      "start": 21.4872,
      "duration": 0.0035,
      "velocity": 89,
      "chip": "ym2612"
    },
    {
      "channel": 2,
      "note": 70,
      "start": 21.4877,
      "duration": 0.0035,
      "velocity": 89,
      "chip": "ym2612"
    },
    {
      "channel": 0,
      "note": 51,
      "start": 21.49,
      "duration": 0.0044,
      "velocity": 95,
      "chip": "ym2612"
    },
    {
      "channel": 1,
      "note": 63,
      "start": 21.4906,
      "duration": 0.0044,
      "velocity": 89,
      "chip": "ym2612"
    },
    {
      "channel": 2,
      "note": 70,
      "start": 21.4912,
      "duration": 0.0044,
      "velocity": 89,
      "chip": "ym2612"
    },
    {
      "channel": 0,
      "note": 51,
      "start": 21.4944,
      "duration": 0.0037,
      "velocity": 95,
      "chip": "ym2612"
    },
    {
      "channel": 1,
      "note": 63,
      "start": 21.495,
      "duration": 0.0037,
      "velocity": 89,
      "chip": "ym2612"
    },
    {
      "channel": 2,
      "note": 70,
      "start": 21.4956,
      "duration": 0.0037,
      "velocity": 89,
      "chip": "ym2612"
    },
    {
      "channel": 0,
      "note": 51,
      "start": 21.4981,
      "duration": 0.0035,
      "velocity": 95,
      "chip": "ym2612"
    },
    {
      "channel": 1,
      "note": 63,
      "start": 21.4987,
      "duration": 0.0034,
      "velocity": 89,
      "chip": "ym2612"
    },
    {
      "channel": 2,
      "note": 70,
      "start": 21.4993,
      "duration": 0.0032,
      "velocity": 89,
      "chip": "ym2612"
    },
    {
      "channel": 0,
      "note": 51,
      "start": 21.5016,
      "duration": 0.0033,
      "velocity": 95,
      "chip": "ym2612"
    },
    {
      "channel": 1,
      "note": 63,
      "start": 21.5021,
      "duration": 0.0035,
      "velocity": 89,
      "chip": "ym2612"
    },
    {
      "channel": 2,
      "note": 70,
      "start": 21.5025,
      "duration": 0.0037,
      "velocity": 89,
      "chip": "ym2612"
    },
    {
      "channel": 0,
      "note": 51,
      "start": 21.5049,
      "duration": 0.0037,
      "velocity": 95,
      "chip": "ym2612"
    },
    {
      "channel": 1,
      "note": 63,
      "start": 21.5055,
      "duration": 0.0037,
      "velocity": 89,
      "chip": "ym2612"
    },
    {
      "channel": 2,
      "note": 70,
      "start": 21.5062,
      "duration": 0.0037,
      "velocity": 89,
      "chip": "ym2612"
    },
    {
      "channel": 0,
      "note": 51,
      "start": 21.5086,
      "duration": 0.0036,
      "velocity": 95,
      "chip": "ym2612"
    },
    {
      "channel": 1,
      "note": 63,
      "start": 21.5092,
      "duration": 0.0036,
      "velocity": 89,
      "chip": "ym2612"
    },
    {
      "channel": 2,
      "note": 70,
      "start": 21.5099,
      "duration": 0.0036,
      "velocity": 89,
      "chip": "ym2612"
    },
    {
      "channel": 0,
      "note": 51,
      "start": 21.5122,
      "duration": 0.004,
      "velocity": 95,
      "chip": "ym2612"
    },
    {
      "channel": 1,
      "note": 63,
      "start": 21.5129,
      "duration": 0.004,
      "velocity": 89,
      "chip": "ym2612"
    },
    {
      "channel": 2,
      "note": 70,
      "start": 21.5135,
      "duration": 0.004,
      "velocity": 89,
      "chip": "ym2612"
    },
    {
      "channel": 0,
      "note": 51,
      "start": 21.5162,
      "duration": 0.0035,
      "velocity": 95,
      "chip": "ym2612"
    },
    {
      "channel": 1,
      "note": 63,
      "start": 21.5168,
      "duration": 0.0034,
      "velocity": 89,
      "chip": "ym2612"
    },
    {
      "channel": 2,
      "note": 70,
      "start": 21.5175,
      "duration": 0.0032,
      "velocity": 89,
      "chip": "ym2612"
    },
    {
      "channel": 0,
      "note": 51,
      "start": 21.5197,
      "duration": 0.0034,
      "velocity": 95,
      "chip": "ym2612"
    },
    {
      "channel": 1,
      "note": 63,
      "start": 21.5202,
      "duration": 0.0035,
      "velocity": 89,
      "chip": "ym2612"
    },
    {
      "channel": 2,
      "note": 70,
      "start": 21.5206,
      "duration": 0.0037,
      "velocity": 89,
      "chip": "ym2612"
    },
    {
      "channel": 0,
      "note": 51,
      "start": 21.5231,
      "duration": 0.0036,
      "velocity": 95,
      "chip": "ym2612"
    },
    {
      "channel": 1,
      "note": 63,
      "start": 21.5237,
      "duration": 0.0036,
      "velocity": 89,
      "chip": "ym2612"
    },
    {
      "channel": 2,
      "note": 70,
      "start": 21.5243,
      "duration": 0.0036,
      "velocity": 89,
      "chip": "ym2612"
    },
    {
      "channel": 0,
      "note": 51,
      "start": 21.5266,
      "duration": 0.0036,
      "velocity": 95,
      "chip": "ym2612"
    },
    {
      "channel": 1,
      "note": 63,
      "start": 21.5273,
      "duration": 0.0036,
      "velocity": 89,
      "chip": "ym2612"
    },
    {
      "channel": 2,
      "note": 70,
      "start": 21.5279,
      "duration": 0.0035,
      "velocity": 89,
      "chip": "ym2612"
    },
    {
      "channel": 0,
      "note": 51,
      "start": 21.5302,
      "duration": 0.0036,
      "velocity": 95,
      "chip": "ym2612"
    },
    {
      "channel": 1,
      "note": 63,
      "start": 21.5309,
      "duration": 0.0034,
      "velocity": 89,
      "chip": "ym2612"
    },
    {
      "channel": 2,
      "note": 70,
      "start": 21.5314,
      "duration": 0.0034,
      "velocity": 89,
      "chip": "ym2612"
    },
    {
      "channel": 0,
      "note": 51,
      "start": 21.5338,
      "duration": 0.0041,
      "velocity": 95,
      "chip": "ym2612"
    },
    {
      "channel": 1,
      "note": 63,
      "start": 21.5343,
      "duration": 0.0042,
      "velocity": 89,
      "chip": "ym2612"
    },
    {
      "channel": 2,
      "note": 70,
      "start": 21.5348,
      "duration": 0.0044,
      "velocity": 89,
      "chip": "ym2612"
    },
    {
      "channel": 0,
      "note": 51,
      "start": 21.5379,
      "duration": 0.0037,
      "velocity": 95,
      "chip": "ym2612"
    },
    {
      "channel": 1,
      "note": 63,
      "start": 21.5385,
      "duration": 0.0038,
      "velocity": 89,
      "chip": "ym2612"
    },
    {
      "channel": 2,
      "note": 70,
      "start": 21.5391,
      "duration": 0.0038,
      "velocity": 89,
      "chip": "ym2612"
    },
    {
      "channel": 0,
      "note": 51,
      "start": 21.5416,
      "duration": 0.0032,
      "velocity": 95,
      "chip": "ym2612"
    },
    {
      "channel": 1,
      "note": 63,
      "start": 21.5423,
      "duration": 0.0032,
      "velocity": 89,
      "chip": "ym2612"
    },
    {
      "channel": 2,
      "note": 70,
      "start": 21.5429,
      "duration": 0.0032,
      "velocity": 89,
      "chip": "ym2612"
    },
    {
      "channel": 0,
      "note": 51,
      "start": 21.5449,
      "duration": 0.0037,
      "velocity": 95,
      "chip": "ym2612"
    },
    {
      "channel": 1,
      "note": 63,
      "start": 21.5454,
      "duration": 0.0037,
      "velocity": 89,
      "chip": "ym2612"
    },
    {
      "channel": 2,
      "note": 70,
      "start": 21.5461,
      "duration": 0.0037,
      "velocity": 89,
      "chip": "ym2612"
    },
    {
      "channel": 0,
      "note": 51,
      "start": 21.5485,
      "duration": 0.0035,
      "velocity": 95,
      "chip": "ym2612"
    },
    {
      "channel": 1,
      "note": 63,
      "start": 21.5492,
      "duration": 0.0033,
      "velocity": 89,
      "chip": "ym2612"
    },
    {
      "channel": 2,
      "note": 70,
      "start": 21.5498,
      "duration": 0.0031,
      "velocity": 89,
      "chip": "ym2612"
    },
    {
      "channel": 0,
      "note": 51,
      "start": 21.552,
      "duration": 0.0034,
      "velocity": 95,
      "chip": "ym2612"
    },
    {
      "channel": 1,
      "note": 63,
      "start": 21.5525,
      "duration": 0.0035,
      "velocity": 89,
      "chip": "ym2612"
    },
    {
      "channel": 2,
      "note": 70,
      "start": 21.5529,
      "duration": 0.0037,
      "velocity": 89,
      "chip": "ym2612"
    },
    {
      "channel": 0,
      "note": 51,
      "start": 21.5554,
      "duration": 0.0036,
      "velocity": 95,
      "chip": "ym2612"
    },
    {
      "channel": 1,
      "note": 63,
      "start": 21.556,
      "duration": 0.0036,
      "velocity": 89,
      "chip": "ym2612"
    },
    {
      "channel": 2,
      "note": 70,
      "start": 21.5566,
      "duration": 0.0036,
      "velocity": 89,
      "chip": "ym2612"
    },
    {
      "channel": 0,
      "note": 51,
      "start": 21.559,
      "duration": 0.0036,
      "velocity": 95,
      "chip": "ym2612"
    },
    {
      "channel": 1,
      "note": 63,
      "start": 21.5596,
      "duration": 0.0036,
      "velocity": 89,
      "chip": "ym2612"
    },
    {
      "channel": 2,
      "note": 70,
      "start": 21.5602,
      "duration": 0.0036,
      "velocity": 89,
      "chip": "ym2612"
    },
    {
      "channel": 0,
      "note": 51,
      "start": 21.5626,
      "duration": 0.0036,
      "velocity": 95,
      "chip": "ym2612"
    },
    {
      "channel": 1,
      "note": 63,
      "start": 21.5633,
      "duration": 0.0034,
      "velocity": 89,
      "chip": "ym2612"
    },
    {
      "channel": 2,
      "note": 70,
      "start": 21.5638,
      "duration": 0.0033,
      "velocity": 89,
      "chip": "ym2612"
    },
    {
      "channel": 0,
      "note": 51,
      "start": 21.5662,
      "duration": 0.0032,
      "velocity": 95,
      "chip": "ym2612"
    },
    {
      "channel": 1,
      "note": 63,
      "start": 21.5666,
      "duration": 0.0034,
      "velocity": 89,
      "chip": "ym2612"
    },
    {
      "channel": 2,
      "note": 70,
      "start": 21.5671,
      "duration": 0.0036,
      "velocity": 89,
      "chip": "ym2612"
    },
    {
      "channel": 0,
      "note": 51,
      "start": 21.5694,
      "duration": 0.0032,
      "velocity": 95,
      "chip": "ym2612"
    },
    {
      "channel": 1,
      "note": 63,
      "start": 21.57,
      "duration": 0.0032,
      "velocity": 89,
      "chip": "ym2612"
    },
    {
      "channel": 2,
      "note": 70,
      "start": 21.5707,
      "duration": 0.0032,
      "velocity": 89,
      "chip": "ym2612"
    },
    {
      "channel": 0,
      "note": 51,
      "start": 21.5726,
      "duration": 0.0041,
      "velocity": 95,
      "chip": "ym2612"
    },
    {
      "channel": 1,
      "note": 63,
      "start": 21.5732,
      "duration": 0.0041,
      "velocity": 89,
      "chip": "ym2612"
    },
    {
      "channel": 2,
      "note": 70,
      "start": 21.5739,
      "duration": 0.0041,
      "velocity": 89,
      "chip": "ym2612"
    },
    {
      "channel": 0,
      "note": 51,
      "start": 21.5768,
      "duration": 0.0044,
      "velocity": 95,
      "chip": "ym2612"
    },
    {
      "channel": 1,
      "note": 63,
      "start": 21.5773,
      "duration": 0.0044,
      "velocity": 89,
      "chip": "ym2612"
    },
    {
      "channel": 2,
      "note": 70,
      "start": 21.578,
      "duration": 0.0044,
      "velocity": 89,
      "chip": "ym2612"
    },
    {
      "channel": 0,
      "note": 51,
      "start": 21.5811,
      "duration": 0.0035,
      "velocity": 95,
      "chip": "ym2612"
    },
    {
      "channel": 1,
      "note": 63,
      "start": 21.5818,
      "duration": 0.0034,
      "velocity": 89,
      "chip": "ym2612"
    },
    {
      "channel": 2,
      "note": 70,
      "start": 21.5824,
      "duration": 0.0032,
      "velocity": 89,
      "chip": "ym2612"
    },
    {
      "channel": 0,
      "note": 51,
      "start": 21.5847,
      "duration": 0.0033,
      "velocity": 95,
      "chip": "ym2612"
    },
    {
      "channel": 1,
      "note": 63,
      "start": 21.5851,
      "duration": 0.0035,
      "velocity": 89,
      "chip": "ym2612"
    },
    {
      "channel": 2,
      "note": 70,
      "start": 21.5856,
      "duration": 0.0036,
      "velocity": 89,
      "chip": "ym2612"
    },
    {
      "channel": 0,
      "note": 51,
      "start": 21.588,
      "duration": 0.0037,
      "velocity": 95,
      "chip": "ym2612"
    },
    {
      "channel": 1,
      "note": 63,
      "start": 21.5886,
      "duration": 0.0037,
      "velocity": 89,
      "chip": "ym2612"
    },
    {
      "channel": 2,
      "note": 70,
      "start": 21.5892,
      "duration": 0.0036,
      "velocity": 89,
      "chip": "ym2612"
    },
    {
      "channel": 0,
      "note": 51,
      "start": 21.5916,
      "duration": 0.0037,
      "velocity": 95,
      "chip": "ym2612"
    },
    {
      "channel": 1,
      "note": 63,
      "start": 21.5922,
      "duration": 0.0037,
      "velocity": 89,
      "chip": "ym2612"
    },
    {
      "channel": 2,
      "note": 70,
      "start": 21.5928,
      "duration": 0.0037,
      "velocity": 89,
      "chip": "ym2612"
    },
    {
      "channel": 0,
      "note": 51,
      "start": 21.5953,
      "duration": 0.003,
      "velocity": 95,
      "chip": "ym2612"
    },
    {
      "channel": 1,
      "note": 63,
      "start": 21.596,
      "duration": 0.0028,
      "velocity": 89,
      "chip": "ym2612"
    },
    {
      "channel": 2,
      "note": 70,
      "start": 21.5965,
      "duration": 0.0027,
      "velocity": 89,
      "chip": "ym2612"
    },
    {
      "channel": 0,
      "note": 51,
      "start": 21.5983,
      "duration": 0.0033,
      "velocity": 95,
      "chip": "ym2612"
    },
    {
      "channel": 1,
      "note": 63,
      "start": 21.5988,
      "duration": 0.0035,
      "velocity": 89,
      "chip": "ym2612"
    },
    {
      "channel": 2,
      "note": 70,
      "start": 21.5993,
      "duration": 0.0037,
      "velocity": 89,
      "chip": "ym2612"
    },
    {
      "channel": 0,
      "note": 51,
      "start": 21.6017,
      "duration": 0.0037,
      "velocity": 95,
      "chip": "ym2612"
    },
    {
      "channel": 1,
      "note": 63,
      "start": 21.6023,
      "duration": 0.0037,
      "velocity": 89,
      "chip": "ym2612"
    },
    {
      "channel": 2,
      "note": 70,
      "start": 21.6029,
      "duration": 0.0037,
      "velocity": 89,
      "chip": "ym2612"
    },
    {
      "channel": 0,
      "note": 51,
      "start": 21.6054,
      "duration": 0.0036,
      "velocity": 95,
      "chip": "ym2612"
    },
    {
      "channel": 1,
      "note": 63,
      "start": 21.6059,
      "duration": 0.0036,
      "velocity": 89,
      "chip": "ym2612"
    },
    {
      "channel": 2,
      "note": 70,
      "start": 21.6066,
      "duration": 0.0037,
      "velocity": 89,
      "chip": "ym2612"
    },
    {
      "channel": 0,
      "note": 51,
      "start": 21.6089,
      "duration": 0.0036,
      "velocity": 95,
      "chip": "ym2612"
    },
    {
      "channel": 1,
      "note": 63,
      "start": 21.6096,
      "duration": 0.0036,
      "velocity": 89,
      "chip": "ym2612"
    },
    {
      "channel": 2,
      "note": 70,
      "start": 21.6102,
      "duration": 0.0036,
      "velocity": 89,
      "chip": "ym2612"
    },
    {
      "channel": 0,
      "note": 51,
      "start": 21.6125,
      "duration": 0.0035,
      "velocity": 95,
      "chip": "ym2612"
    },
    {
      "channel": 1,
      "note": 63,
      "start": 21.6132,
      "duration": 0.0034,
      "velocity": 89,
      "chip": "ym2612"
    },
    {
      "channel": 2,
      "note": 70,
      "start": 21.6138,
      "duration": 0.0032,
      "velocity": 89,
      "chip": "ym2612"
    },
    {
      "channel": 0,
      "note": 51,
      "start": 21.6161,
      "duration": 0.0034,
      "velocity": 95,
      "chip": "ym2612"
    },
    {
      "channel": 1,
      "note": 63,
      "start": 21.6165,
      "duration": 0.0036,
      "velocity": 89,
      "chip": "ym2612"
    },
    {
      "channel": 2,
      "note": 70,
      "start": 21.617,
      "duration": 0.0037,
      "velocity": 89,
      "chip": "ym2612"
    },
    {
      "channel": 0,
      "note": 51,
      "start": 21.6195,
      "duration": 0.0045,
      "velocity": 95,
      "chip": "ym2612"
    },
    {
      "channel": 1,
      "note": 63,
      "start": 21.6201,
      "duration": 0.0045,
      "velocity": 89,
      "chip": "ym2612"
    },
    {
      "channel": 2,
      "note": 70,
      "start": 21.6207,
      "duration": 0.0045,
      "velocity": 89,
      "chip": "ym2612"
    },
    {
      "channel": 0,
      "note": 51,
      "start": 21.6239,
      "duration": 0.0032,
      "velocity": 95,
      "chip": "ym2612"
    },
    {
      "channel": 1,
      "note": 63,
      "start": 21.6246,
      "duration": 0.0032,
      "velocity": 89,
      "chip": "ym2612"
    },
    {
      "channel": 2,
      "note": 70,
      "start": 21.6251,
      "duration": 0.0032,
      "velocity": 89,
      "chip": "ym2612"
    },
    {
      "channel": 0,
      "note": 51,
      "start": 21.6272,
      "duration": 0.0035,
      "velocity": 95,
      "chip": "ym2612"
    },
    {
      "channel": 1,
      "note": 63,
      "start": 21.6278,
      "duration": 0.0033,
      "velocity": 89,
      "chip": "ym2612"
    },
    {
      "channel": 2,
      "note": 70,
      "start": 21.6284,
      "duration": 0.0032,
      "velocity": 89,
      "chip": "ym2612"
    },
    {
      "channel": 0,
      "note": 51,
      "start": 21.6307,
      "duration": 0.0034,
      "velocity": 95,
      "chip": "ym2612"
    },
    {
      "channel": 1,
      "note": 63,
      "start": 21.6311,
      "duration": 0.0035,
      "velocity": 89,
      "chip": "ym2612"
    },
    {
      "channel": 2,
      "note": 70,
      "start": 21.6316,
      "duration": 0.0037,
      "velocity": 89,
      "chip": "ym2612"
    },
    {
      "channel": 0,
      "note": 51,
      "start": 21.6341,
      "duration": 0.0037,
      "velocity": 95,
      "chip": "ym2612"
    },
    {
      "channel": 1,
      "note": 63,
      "start": 21.6346,
      "duration": 0.0037,
      "velocity": 89,
      "chip": "ym2612"
    },
    {
      "channel": 2,
      "note": 70,
      "start": 21.6353,
      "duration": 0.0037,
      "velocity": 89,
      "chip": "ym2612"
    },
    {
      "channel": 0,
      "note": 51,
      "start": 21.6377,
      "duration": 0.0037,
      "velocity": 95,
      "chip": "ym2612"
    },
    {
      "channel": 1,
      "note": 63,
      "start": 21.6384,
      "duration": 0.0037,
      "velocity": 89,
      "chip": "ym2612"
    },
    {
      "channel": 2,
      "note": 70,
      "start": 21.639,
      "duration": 0.0037,
      "velocity": 89,
      "chip": "ym2612"
    },
    {
      "channel": 0,
      "note": 51,
      "start": 21.6414,
      "duration": 0.0044,
      "velocity": 95,
      "chip": "ym2612"
    },
    {
      "channel": 1,
      "note": 63,
      "start": 21.642,
      "duration": 0.0044,
      "velocity": 89,
      "chip": "ym2612"
    },
    {
      "channel": 2,
      "note": 70,
      "start": 21.6427,
      "duration": 0.0044,
      "velocity": 89,
      "chip": "ym2612"
    },
    {
      "channel": 0,
      "note": 51,
      "start": 21.6458,
      "duration": 0.0035,
      "velocity": 95,
      "chip": "ym2612"
    },
    {
      "channel": 1,
      "note": 63,
      "start": 21.6464,
      "duration": 0.0033,
      "velocity": 89,
      "chip": "ym2612"
    },
    {
      "channel": 2,
      "note": 70,
      "start": 21.6471,
      "duration": 0.0032,
      "velocity": 89,
      "chip": "ym2612"
    },
    {
      "channel": 0,
      "note": 51,
      "start": 21.6493,
      "duration": 0.0032,
      "velocity": 95,
      "chip": "ym2612"
    },
    {
      "channel": 1,
      "note": 63,
      "start": 21.6498,
      "duration": 0.0034,
      "velocity": 89,
      "chip": "ym2612"
    },
    {
      "channel": 2,
      "note": 70,
      "start": 21.6503,
      "duration": 0.0035,
      "velocity": 89,
      "chip": "ym2612"
    },
    {
      "channel": 0,
      "note": 51,
      "start": 21.6525,
      "duration": 0.0032,
      "velocity": 95,
      "chip": "ym2612"
    },
    {
      "channel": 1,
      "note": 63,
      "start": 21.6532,
      "duration": 0.0032,
      "velocity": 89,
      "chip": "ym2612"
    },
    {
      "channel": 2,
      "note": 70,
      "start": 21.6538,
      "duration": 0.0032,
      "velocity": 89,
      "chip": "ym2612"
    },
    {
      "channel": 0,
      "note": 51,
      "start": 21.6557,
      "duration": 0.0037,
      "velocity": 95,
      "chip": "ym2612"
    },
    {
      "channel": 1,
      "note": 63,
      "start": 21.6564,
      "duration": 0.0037,
      "velocity": 89,
      "chip": "ym2612"
    },
    {
      "channel": 2,
      "note": 70,
      "start": 21.657,
      "duration": 0.0036,
      "velocity": 89,
      "chip": "ym2612"
    },
    {
      "channel": 0,
      "note": 51,
      "start": 21.6594,
      "duration": 0.0041,
      "velocity": 95,
      "chip": "ym2612"
    },
    {
      "channel": 1,
      "note": 63,
      "start": 21.6601,
      "duration": 0.0062,
      "velocity": 107,
      "chip": "ym2612"
    },
    {
      "channel": 2,
      "note": 70,
      "start": 21.6606,
      "duration": 0.0084,
      "velocity": 107,
      "chip": "ym2612"
    },
    {
      "channel": 0,
      "note": 51,
      "start": 21.6639,
      "duration": 0.1417,
      "velocity": 95,
      "chip": "ym2612"
    },
    {
      "channel": 1,
      "note": 63,
      "start": 21.6667,
      "duration": 0.3131,
      "velocity": 107,
      "chip": "ym2612"
    },
    {
      "channel": 3,
      "note": 70,
      "start": 21.6702,
      "duration": 1.6603,
      "velocity": 89,
      "chip": "ym2612"
    },
    {
      "channel": 4,
      "note": 66,
      "start": 21.6714,
      "duration": 1.6598,
      "velocity": 89,
      "chip": "ym2612"
    },
    {
      "channel": 2,
      "note": 63,
      "start": 21.7199,
      "duration": 0.2755,
      "velocity": 107,
      "chip": "ym2612"
    },
    {
      "channel": 0,
      "note": 51,
      "start": 21.806,
      "duration": 0.1729,
      "velocity": 95,
      "chip": "ym2612"
    },
    {
      "channel": 0,
      "note": 51,
      "start": 21.9794,
      "duration": 0.0299,
      "velocity": 95,
      "chip": "ym2612"
    },
    {
      "channel": 1,
      "note": 71,
      "start": 21.9803,
      "duration": 0.191,
      "velocity": 107,
      "chip": "ym2612"
    },
    {
      "channel": 2,
      "note": 71,
      "start": 21.9958,
      "duration": 0.2314,
      "velocity": 107,
      "chip": "ym2612"
    },
    {
      "channel": 0,
      "note": 51,
      "start": 22.0097,
      "duration": 0.1611,
      "velocity": 95,
      "chip": "ym2612"
    },
    {
      "channel": 0,
      "note": 51,
      "start": 22.1711,
      "duration": 0.1423,
      "velocity": 95,
      "chip": "ym2612"
    },
    {
      "channel": 1,
      "note": 70,
      "start": 22.1717,
      "duration": 0.3156,
      "velocity": 107,
      "chip": "ym2612"
    },
    {
      "channel": 2,
      "note": 70,
      "start": 22.2277,
      "duration": 0.2749,
      "velocity": 107,
      "chip": "ym2612"
    },
    {
      "channel": 0,
      "note": 51,
      "start": 22.3138,
      "duration": 0.1729,
      "velocity": 95,
      "chip": "ym2612"
    },
    {
      "channel": 0,
      "note": 51,
      "start": 22.4872,
      "duration": 0.0293,
      "velocity": 95,
      "chip": "ym2612"
    },
    {
      "channel": 1,
      "note": 68,
      "start": 22.4877,
      "duration": 0.1917,
      "velocity": 107,
      "chip": "ym2612"
    },
    {
      "channel": 2,
      "note": 68,
      "start": 22.5031,
      "duration": 0.232,
      "velocity": 107,
      "chip": "ym2612"
    },
    {
      "channel": 0,
      "note": 51,
      "start": 22.5169,
      "duration": 0.1618,
      "velocity": 95,
      "chip": "ym2612"
    },
    {
      "channel": 0,
      "note": 51,
      "start": 22.6791,
      "duration": 0.1421,
      "velocity": 95,
      "chip": "ym2612"
    },
    {
      "channel": 1,
      "note": 66,
      "start": 22.6798,
      "duration": 0.3154,
      "velocity": 107,
      "chip": "ym2612"
    },
    {
      "channel": 2,
      "note": 66,
      "start": 22.7355,
      "duration": 0.2756,
      "velocity": 107,
      "chip": "ym2612"
    },
    {
      "channel": 0,
      "note": 51,
      "start": 22.8216,
      "duration": 0.1729,
      "velocity": 95,
      "chip": "ym2612"
    },
    {
      "channel": 0,
      "note": 51,
      "start": 22.995,
      "duration": 0.03,
      "velocity": 95,
      "chip": "ym2612"
    },
    {
      "channel": 1,
      "note": 68,
      "start": 22.9956,
      "duration": 0.1914,
      "velocity": 107,
      "chip": "ym2612"
    },
    {
      "channel": 2,
      "note": 68,
      "start": 23.0116,
      "duration": 0.2315,
      "velocity": 107,
      "chip": "ym2612"
    },
    {
      "channel": 0,
      "note": 51,
      "start": 23.0255,
      "duration": 0.1609,
      "velocity": 95,
      "chip": "ym2612"
    },
    {
      "channel": 0,
      "note": 51,
      "start": 23.1868,
      "duration": 0.1423,
      "velocity": 95,
      "chip": "ym2612"
    },
    {
      "channel": 1,
      "note": 70,
      "start": 23.1874,
      "duration": 0.1423,
      "velocity": 107,
      "chip": "ym2612"
    },
    {
      "channel": 2,
      "note": 70,
      "start": 23.2434,
      "duration": 0.1024,
      "velocity": 107,
      "chip": "ym2612"
    },
    {
      "channel": 0,
      "note": 51,
      "start": 23.3296,
      "duration": 0.0299,
      "velocity": 95,
      "chip": "ym2612"
    },
    {
      "channel": 1,
      "note": 71,
      "start": 23.3302,
      "duration": 0.1916,
      "velocity": 107,
      "chip": "ym2612"
    },
    {
      "channel": 3,
      "note": 70,
      "start": 23.331,
      "duration": 0.228,
      "velocity": 89,
      "chip": "ym2612"
    },
    {
      "channel": 4,
      "note": 66,
      "start": 23.3315,
      "duration": 0.2281,
      "velocity": 89,
      "chip": "ym2612"
    },
    {
      "channel": 2,
      "note": 71,
      "start": 23.3462,
      "duration": 0.1931,
      "velocity": 107,
      "chip": "ym2612"
    },
    {
      "channel": 0,
      "note": 51,
      "start": 23.3599,
      "duration": 0.161,
      "velocity": 95,
      "chip": "ym2612"
    },
    {
      "channel": 0,
      "note": 51,
      "start": 23.5214,
      "duration": 0.0358,
      "velocity": 95,
      "chip": "ym2612"
    },
    {
      "channel": 1,
      "note": 71,
      "start": 23.5218,
      "duration": 0.0031,
      "velocity": 107,
      "chip": "ym2612"
    },
    {
      "channel": 1,
      "note": 71,
      "start": 23.5249,
      "duration": 0.0024,
      "velocity": 107,
      "chip": "ym2612"
    },
    {
      "channel": 1,
      "note": 71,
      "start": 23.5273,
      "duration": 0.0029,
      "velocity": 107,
      "chip": "ym2612"
    },
    {
      "channel": 1,
      "note": 71,
      "start": 23.5302,
      "duration": 0.0029,
      "velocity": 107,
      "chip": "ym2612"
    },
    {
      "channel": 1,
      "note": 71,
      "start": 23.533,
      "duration": 0.0027,
      "velocity": 107,
      "chip": "ym2612"
    },
    {
      "channel": 1,
      "note": 71,
      "start": 23.5358,
      "duration": 0.0029,
      "velocity": 107,
      "chip": "ym2612"
    },
    {
      "channel": 1,
      "note": 71,
      "start": 23.5387,
      "duration": 0.0032,
      "velocity": 107,
      "chip": "ym2612"
    },
    {
      "channel": 2,
      "note": 71,
      "start": 23.5393,
      "duration": 0.003,
      "velocity": 107,
      "chip": "ym2612"
    },
    {
      "channel": 1,
      "note": 71,
      "start": 23.5419,
      "duration": 0.0031,
      "velocity": 107,
      "chip": "ym2612"
    },
    {
      "channel": 2,
      "note": 71,
      "start": 23.5424,
      "duration": 0.0032,
      "velocity": 107,
      "chip": "ym2612"
    },
    {
      "channel": 1,
      "note": 71,
      "start": 23.545,
      "duration": 0.0028,
      "velocity": 107,
      "chip": "ym2612"
    },
    {
      "channel": 2,
      "note": 71,
      "start": 23.5456,
      "duration": 0.0028,
      "velocity": 107,
      "chip": "ym2612"
    },
    {
      "channel": 1,
      "note": 71,
      "start": 23.5478,
      "duration": 0.003,
      "velocity": 107,
      "chip": "ym2612"
    },
    {
      "channel": 2,
      "note": 71,
      "start": 23.5484,
      "duration": 0.0031,
      "velocity": 107,
      "chip": "ym2612"
    },
    {
      "channel": 1,
      "note": 71,
      "start": 23.5508,
      "duration": 0.0033,
      "velocity": 107,
      "chip": "ym2612"
    },
    {
      "channel": 2,
      "note": 71,
      "start": 23.5515,
      "duration": 0.0031,
      "velocity": 107,
      "chip": "ym2612"
    },
    {
      "channel": 1,
      "note": 71,
      "start": 23.5541,
      "duration": 0.0038,
      "velocity": 107,
      "chip": "ym2612"
    },
    {
      "channel": 2,
      "note": 71,
      "start": 23.5546,
      "duration": 0.0042,
      "velocity": 107,
      "chip": "ym2612"
    },
    {
      "channel": 0,
      "note": 49,
      "start": 23.5576,
      "duration": 0.1421,
      "velocity": 95,
      "chip": "ym2612"
    },
    {
      "channel": 1,
      "note": 63,
      "start": 23.5583,
      "duration": 0.3154,
      "velocity": 107,
      "chip": "ym2612"
    },
    {
      "channel": 2,
      "note": 71,
      "start": 23.5588,
      "duration": 0.0047,
      "velocity": 107,
      "chip": "ym2612"
    },
    {
      "channel": 3,
      "note": 70,
      "start": 23.5594,
      "duration": 1.665,
      "velocity": 89,
      "chip": "ym2612"
    },
    {
      "channel": 4,
      "note": 65,
      "start": 23.56,
      "duration": 1.665,
      "velocity": 89,
      "chip": "ym2612"
    },
    {
      "channel": 2,
      "note": 71,
      "start": 23.5635,
      "duration": 0.0028,
      "velocity": 107,
      "chip": "ym2612"
    },
    {
      "channel": 2,
      "note": 71,
      "start": 23.5663,
      "duration": 0.0044,
      "velocity": 107,
      "chip": "ym2612"
    },
    {
      "channel": 2,
      "note": 71,
      "start": 23.5707,
      "duration": 0.0143,
      "velocity": 107,
      "chip": "ym2612"
    },
    {
      "channel": 2,
      "note": 71,
      "start": 23.585,
      "duration": 0.0146,
      "velocity": 107,
      "chip": "ym2612"
    },
    {
      "channel": 2,
      "note": 71,
      "start": 23.5996,
      "duration": 0.0141,
      "velocity": 107,
      "chip": "ym2612"
    },
    {
      "channel": 2,
      "note": 63,
      "start": 23.6141,
      "duration": 0.2751,
      "velocity": 107,
      "chip": "ym2612"
    },
    {
      "channel": 0,
      "note": 49,
      "start": 23.7002,
      "duration": 0.1729,
      "velocity": 95,
      "chip": "ym2612"
    },
    {
      "channel": 0,
      "note": 49,
      "start": 23.8735,
      "duration": 0.0294,
      "velocity": 95,
      "chip": "ym2612"
    },
    {
      "channel": 1,
      "note": 70,
      "start": 23.8742,
      "duration": 0.1912,
      "velocity": 107,
      "chip": "ym2612"
    },
    {
      "channel": 2,
      "note": 70,
      "start": 23.8896,
      "duration": 0.2317,
      "velocity": 107,
      "chip": "ym2612"
    },
    {
      "channel": 0,
      "note": 49,
      "start": 23.9033,
      "duration": 0.1614,
      "velocity": 95,
      "chip": "ym2612"
    },
    {
      "channel": 0,
      "note": 49,
      "start": 24.0651,
      "duration": 0.1423,
      "velocity": 95,
      "chip": "ym2612"
    },
    {
      "channel": 1,
      "note": 68,
      "start": 24.0657,
      "duration": 0.3158,
      "velocity": 107,
      "chip": "ym2612"
    },
    {
      "channel": 2,
      "note": 68,
      "start": 24.1218,
      "duration": 0.2751,
      "velocity": 107,
      "chip": "ym2612"
    },
    {
      "channel": 0,
      "note": 49,
      "start": 24.2079,
      "duration": 0.173,
      "velocity": 95,
      "chip": "ym2612"
    },
    {
      "channel": 0,
      "note": 49,
      "start": 24.3813,
      "duration": 0.0294,
      "velocity": 95,
      "chip": "ym2612"
    },
    {
      "channel": 1,
      "note": 66,
      "start": 24.382,
      "duration": 0.1914,
      "velocity": 107,
      "chip": "ym2612"
    },
    {
      "channel": 2,
      "note": 66,
      "start": 24.3973,
      "duration": 0.2317,
      "velocity": 107,
      "chip": "ym2612"
    },
    {
      "channel": 0,
      "note": 49,
      "start": 24.4111,
      "duration": 0.1616,
      "velocity": 95,
      "chip": "ym2612"
    },
    {
      "channel": 0,
      "note": 49,
      "start": 24.5731,
      "duration": 0.142,
      "velocity": 95,
      "chip": "ym2612"
    },
    {
      "channel": 1,
      "note": 65,
      "start": 24.5738,
      "duration": 0.3154,
      "velocity": 107,
      "chip": "ym2612"
    },
    {
      "channel": 2,
      "note": 65,
      "start": 24.6295,
      "duration": 0.2754,
      "velocity": 107,
      "chip": "ym2612"
    },
    {
      "channel": 0,
      "note": 49,
      "start": 24.7156,
      "duration": 0.1729,
      "velocity": 95,
      "chip": "ym2612"
    },
    {
      "channel": 0,
      "note": 49,
      "start": 24.889,
      "duration": 0.0297,
      "velocity": 95,
      "chip": "ym2612"
    },
    {
      "channel": 1,
      "note": 66,
      "start": 24.8896,
      "duration": 0.1913,
      "velocity": 107,
      "chip": "ym2612"
    },
    {
      "channel": 2,
      "note": 66,
      "start": 24.9053,
      "duration": 0.2316,
      "velocity": 107,
      "chip": "ym2612"
    },
    {
      "channel": 0,
      "note": 49,
      "start": 24.919,
      "duration": 0.1612,
      "velocity": 95,
      "chip": "ym2612"
    },
    {
      "channel": 0,
      "note": 49,
      "start": 25.0807,
      "duration": 0.1424,
      "velocity": 95,
      "chip": "ym2612"
    },
    {
      "channel": 1,
      "note": 68,
      "start": 25.0813,
      "duration": 0.1423,
      "velocity": 107,
      "chip": "ym2612"
    },
    {
      "channel": 2,
      "note": 68,
      "start": 25.1374,
      "duration": 0.1022,
      "velocity": 107,
      "chip": "ym2612"
    },
    {
      "channel": 0,
      "note": 49,
      "start": 25.2234,
      "duration": 0.0298,
      "velocity": 95,
      "chip": "ym2612"
    },
    {
      "channel": 1,
      "note": 70,
      "start": 25.2241,
      "duration": 0.1914,
      "velocity": 107,
      "chip": "ym2612"
    },
    {
      "channel": 3,
      "note": 70,
      "start": 25.2248,
      "duration": 0.2276,
      "velocity": 89,
      "chip": "ym2612"
    },
    {
      "channel": 4,
      "note": 65,
      "start": 25.2254,
      "duration": 0.2276,
      "velocity": 89,
      "chip": "ym2612"
    },
    {
      "channel": 2,
      "note": 70,
      "start": 25.2401,
      "duration": 0.1927,
      "velocity": 107,
      "chip": "ym2612"
    },
    {
      "channel": 0,
      "note": 49,
      "start": 25.2537,
      "duration": 0.1608,
      "velocity": 95,
      "chip": "ym2612"
    },
    {
      "channel": 0,
      "note": 49,
      "start": 25.4149,
      "duration": 0.0357,
      "velocity": 95,
      "chip": "ym2612"
    },
    {
      "channel": 1,
      "note": 70,
      "start": 25.4154,
      "duration": 0.0029,
      "velocity": 107,
      "chip": "ym2612"
    },
    {
      "channel": 1,
      "note": 70,
      "start": 25.4184,
      "duration": 0.0024,
      "velocity": 107,
      "chip": "ym2612"
    },
    {
      "channel": 1,
      "note": 70,
      "start": 25.4208,
      "duration": 0.0028,
      "velocity": 107,
      "chip": "ym2612"
    },
    {
      "channel": 1,
      "note": 70,
      "start": 25.4236,
      "duration": 0.0028,
      "velocity": 107,
      "chip": "ym2612"
    },
    {
      "channel": 1,
      "note": 70,
      "start": 25.4264,
      "duration": 0.0027,
      "velocity": 107,
      "chip": "ym2612"
    },
    {
      "channel": 1,
      "note": 70,
      "start": 25.4292,
      "duration": 0.0029,
      "velocity": 107,
      "chip": "ym2612"
    },
    {
      "channel": 1,
      "note": 70,
      "start": 25.4321,
      "duration": 0.0033,
      "velocity": 107,
      "chip": "ym2612"
    },
    {
      "channel": 2,
      "note": 70,
      "start": 25.4327,
      "duration": 0.0031,
      "velocity": 107,
      "chip": "ym2612"
    },
    {
      "channel": 1,
      "note": 70,
      "start": 25.4354,
      "duration": 0.0031,
      "velocity": 107,
      "chip": "ym2612"
    },
    {
      "channel": 2,
      "note": 70,
      "start": 25.4358,
      "duration": 0.0032,
      "velocity": 107,
      "chip": "ym2612"
    },
    {
      "channel": 1,
      "note": 70,
      "start": 25.4384,
      "duration": 0.0028,
      "velocity": 107,
      "chip": "ym2612"
    },
    {
      "channel": 2,
      "note": 70,
      "start": 25.439,
      "duration": 0.0029,
      "velocity": 107,
      "chip": "ym2612"
    },
    {
      "channel": 1,
      "note": 70,
      "start": 25.4412,
      "duration": 0.0031,
      "velocity": 107,
      "chip": "ym2612"
    },
    {
      "channel": 2,
      "note": 70,
      "start": 25.4419,
      "duration": 0.003,
      "velocity": 107,
      "chip": "ym2612"
    },
    {
      "channel": 1,
      "note": 70,
      "start": 25.4443,
      "duration": 0.0032,
      "velocity": 107,
      "chip": "ym2612"
    },
    {
      "channel": 2,
      "note": 70,
      "start": 25.4449,
      "duration": 0.0031,
      "velocity": 107,
      "chip": "ym2612"
    },
    {
      "channel": 1,
      "note": 70,
      "start": 25.4476,
      "duration": 0.0038,
      "velocity": 107,
      "chip": "ym2612"
    },
    {
      "channel": 2,
      "note": 70,
      "start": 25.448,
      "duration": 0.0042,
      "velocity": 107,
      "chip": "ym2612"
    },
    {
      "channel": 0,
      "note": 47,
      "start": 25.4511,
      "duration": 0.1422,
      "velocity": 95,
      "chip": "ym2612"
    },
    {
      "channel": 1,
      "note": 61,
      "start": 25.4518,
      "duration": 0.3155,
      "velocity": 107,
      "chip": "ym2612"
    },
    {
      "channel": 2,
      "note": 70,
      "start": 25.4522,
      "duration": 0.0046,
      "velocity": 107,
      "chip": "ym2612"
    },
    {
      "channel": 3,
      "note": 71,
      "start": 25.4529,
      "duration": 1.6652,
      "velocity": 89,
      "chip": "ym2612"
    },
    {
      "channel": 4,
      "note": 66,
      "start": 25.4535,
      "duration": 1.6652,
      "velocity": 89,
      "chip": "ym2612"
    },
    {
      "channel": 2,
      "note": 70,
      "start": 25.4568,
      "duration": 0.0029,
      "velocity": 107,
      "chip": "ym2612"
    },
    {
      "channel": 2,
      "note": 70,
      "start": 25.4598,
      "duration": 0.0045,
      "velocity": 107,
      "chip": "ym2612"
    },
    {
      "channel": 2,
      "note": 70,
      "start": 25.4643,
      "duration": 0.0143,
      "velocity": 107,
      "chip": "ym2612"
    },
    {
      "channel": 2,
      "note": 70,
      "start": 25.4786,
      "duration": 0.0146,
      "velocity": 107,
      "chip": "ym2612"
    },
    {
      "channel": 2,
      "note": 70,
      "start": 25.4931,
      "duration": 0.0141,
      "velocity": 107,
      "chip": "ym2612"
    },
    {
      "channel": 2,
      "note": 61,
      "start": 25.5076,
      "duration": 0.2752,
      "velocity": 107,
      "chip": "ym2612"
    },
    {
      "channel": 0,
      "note": 47,
      "start": 25.5937,
      "duration": 0.1729,
      "velocity": 95,
      "chip": "ym2612"
    },
    {
      "channel": 0,
      "note": 47,
      "start": 25.7671,
      "duration": 0.0295,
      "velocity": 95,
      "chip": "ym2612"
    },
    {
      "channel": 1,
      "note": 68,
      "start": 25.7677,
      "duration": 0.1914,
      "velocity": 107,
      "chip": "ym2612"
    },
    {
      "channel": 2,
      "note": 68,
      "start": 25.7832,
      "duration": 0.2317,
      "velocity": 107,
      "chip": "ym2612"
    },
    {
      "channel": 0,
      "note": 47,
      "start": 25.797,
      "duration": 0.1614,
      "velocity": 95,
      "chip": "ym2612"
    },
    {
      "channel": 0,
      "note": 47,
      "start": 25.9588,
      "duration": 0.1422,
      "velocity": 95,
      "chip": "ym2612"
    },
    {
      "channel": 1,
      "note": 66,
      "start": 25.9595,
      "duration": 0.3155,
      "velocity": 107,
      "chip": "ym2612"
    },
    {
      "channel": 2,
      "note": 66,
      "start": 26.0154,
      "duration": 0.275,
      "velocity": 107,
      "chip": "ym2612"
    },
    {
      "channel": 0,
      "note": 47,
      "start": 26.1014,
      "duration": 0.1729,
      "velocity": 95,
      "chip": "ym2612"
    },
    {
      "channel": 0,
      "note": 47,
      "start": 26.2748,
      "duration": 0.0293,
      "velocity": 95,
      "chip": "ym2612"
    },
    {
      "channel": 1,
      "note": 65,
      "start": 26.2754,
      "duration": 0.1915,
      "velocity": 107,
      "chip": "ym2612"
    },
    {
      "channel": 2,
      "note": 65,
      "start": 26.2908,
      "duration": 0.2319,
      "velocity": 107,
      "chip": "ym2612"
    },
    {
      "channel": 0,
      "note": 47,
      "start": 26.3046,
      "duration": 0.1617,
      "velocity": 95,
      "chip": "ym2612"
    },
    {
      "channel": 0,
      "note": 47,
      "start": 26.4667,
      "duration": 0.1421,
      "velocity": 95,
      "chip": "ym2612"
    },
    {
      "channel": 1,
      "note": 63,
      "start": 26.4673,
      "duration": 0.3155,
      "velocity": 107,
      "chip": "ym2612"
    },
    {
      "channel": 2,
      "note": 63,
      "start": 26.5231,
      "duration": 0.2753,
      "velocity": 107,
      "chip": "ym2612"
    },
    {
      "channel": 0,
      "note": 47,
      "start": 26.6092,
      "duration": 0.173,
      "velocity": 95,
      "chip": "ym2612"
    },
    {
      "channel": 0,
      "note": 47,
      "start": 26.7826,
      "duration": 0.0296,
      "velocity": 95,
      "chip": "ym2612"
    },
    {
      "channel": 1,
      "note": 65,
      "start": 26.7832,
      "duration": 0.1912,
      "velocity": 107,
      "chip": "ym2612"
    },
    {
      "channel": 2,
      "note": 65,
      "start": 26.7988,
      "duration": 0.2317,
      "velocity": 107,
      "chip": "ym2612"
    },
    {
      "channel": 0,
      "note": 47,
      "start": 26.8127,
      "duration": 0.1611,
      "velocity": 95,
      "chip": "ym2612"
    },
    {
      "channel": 0,
      "note": 47,
      "start": 26.9743,
      "duration": 0.1424,
      "velocity": 95,
      "chip": "ym2612"
    },
    {
      "channel": 1,
      "note": 66,
      "start": 26.9749,
      "duration": 0.1424,
      "velocity": 107,
      "chip": "ym2612"
    },
    {
      "channel": 2,
      "note": 66,
      "start": 27.031,
      "duration": 0.1025,
      "velocity": 107,
      "chip": "ym2612"
    },
    {
      "channel": 0,
      "note": 47,
      "start": 27.1171,
      "duration": 0.03,
      "velocity": 95,
      "chip": "ym2612"
    },
    {
      "channel": 1,
      "note": 68,
      "start": 27.1178,
      "duration": 0.1914,
      "velocity": 107,
      "chip": "ym2612"
    },
    {
      "channel": 3,
      "note": 71,
      "start": 27.1185,
      "duration": 0.2242,
      "velocity": 89,
      "chip": "ym2612"
    },
    {
      "channel": 4,
      "note": 66,
      "start": 27.1191,
      "duration": 0.2243,
      "velocity": 89,
      "chip": "ym2612"
    },
    {
      "channel": 2,
      "note": 68,
      "start": 27.134,
      "duration": 0.1908,
      "velocity": 107,
      "chip": "ym2612"
    },
    {
      "channel": 0,
      "note": 47,
      "start": 27.1476,
      "duration": 0.1609,
      "velocity": 95,
      "chip": "ym2612"
    },
    {
      "channel": 0,
      "note": 47,
      "start": 27.3089,
      "duration": 0.0324,
      "velocity": 95,
      "chip": "ym2612"
    },
    {
      "channel": 1,
      "note": 61,
      "start": 27.3097,
      "duration": 0.0323,
      "velocity": 107,
      "chip": "ym2612"
    },
    {
      "channel": 2,
      "note": 61,
      "start": 27.3252,
      "duration": 0.0726,
      "velocity": 107,
      "chip": "ym2612"
    },
    {
      "channel": 0,
      "note": 51,
      "start": 27.3418,
      "duration": 0.1722,
      "velocity": 95,
      "chip": "ym2612"
    },
    {
      "channel": 1,
      "note": 63,
      "start": 27.3424,
      "duration": 0.1722,
      "velocity": 107,
      "chip": "ym2612"
    },
    {
      "channel": 3,
      "note": 70,
      "start": 27.3432,
      "duration": 0.364,
      "velocity": 89,
      "chip": "ym2612"
    },
    {
      "channel": 4,
      "note": 66,
      "start": 27.3438,
      "duration": 0.3641,
      "velocity": 89,
      "chip": "ym2612"
    },
    {
      "channel": 2,
      "note": 63,
      "start": 27.3983,
      "duration": 0.1363,
      "velocity": 107,
      "chip": "ym2612"
    },
    {
      "channel": 0,
      "note": 51,
      "start": 27.514,
      "duration": 0.0038,
      "velocity": 95,
      "chip": "ym2612"
    },
    {
      "channel": 1,
      "note": 63,
      "start": 27.5147,
      "duration": 0.0037,
      "velocity": 107,
      "chip": "ym2612"
    },
    {
      "channel": 0,
      "note": 51,
      "start": 27.5178,
      "duration": 0.0032,
      "velocity": 95,
      "chip": "ym2612"
    },
    {
      "channel": 1,
      "note": 63,
      "start": 27.5184,
      "duration": 0.0033,
      "velocity": 107,
      "chip": "ym2612"
    },
    {
      "channel": 0,
      "note": 51,
      "start": 27.521,
      "duration": 0.0033,
      "velocity": 95,
      "chip": "ym2612"
    },
    {
      "channel": 1,
      "note": 63,
      "start": 27.5216,
      "duration": 0.0033,
      "velocity": 107,
      "chip": "ym2612"
    },
    {
      "channel": 0,
      "note": 51,
      "start": 27.5243,
      "duration": 0.0028,
      "velocity": 95,
      "chip": "ym2612"
    },
    {
      "channel": 1,
      "note": 63,
      "start": 27.5249,
      "duration": 0.0028,
      "velocity": 107,
      "chip": "ym2612"
    },
    {
      "channel": 0,
      "note": 51,
      "start": 27.5271,
      "duration": 0.0032,
      "velocity": 95,
      "chip": "ym2612"
    },
    {
      "channel": 1,
      "note": 63,
      "start": 27.5277,
      "duration": 0.0029,
      "velocity": 107,
      "chip": "ym2612"
    },
    {
      "channel": 0,
      "note": 51,
      "start": 27.5302,
      "duration": 0.0032,
      "velocity": 95,
      "chip": "ym2612"
    },
    {
      "channel": 1,
      "note": 63,
      "start": 27.5307,
      "duration": 0.0033,
      "velocity": 107,
      "chip": "ym2612"
    },
    {
      "channel": 0,
      "note": 51,
      "start": 27.5334,
      "duration": 0.0037,
      "velocity": 95,
      "chip": "ym2612"
    },
    {
      "channel": 1,
      "note": 63,
      "start": 27.534,
      "duration": 0.0038,
      "velocity": 107,
      "chip": "ym2612"
    },
    {
      "channel": 2,
      "note": 63,
      "start": 27.5346,
      "duration": 0.0036,
      "velocity": 107,
      "chip": "ym2612"
    },
    {
      "channel": 0,
      "note": 51,
      "start": 27.5371,
      "duration": 0.0034,
      "velocity": 95,
      "chip": "ym2612"
    },
    {
      "channel": 1,
      "note": 63,
      "start": 27.5377,
      "duration": 0.0034,
      "velocity": 107,
      "chip": "ym2612"
    },
    {
      "channel": 2,
      "note": 63,
      "start": 27.5382,
      "duration": 0.0037,
      "velocity": 107,
      "chip": "ym2612"
    },
    {
      "channel": 0,
      "note": 51,
      "start": 27.5405,
      "duration": 0.0036,
      "velocity": 95,
      "chip": "ym2612"
    },
    {
      "channel": 1,
      "note": 63,
      "start": 27.5412,
      "duration": 0.0036,
      "velocity": 107,
      "chip": "ym2612"
    },
    {
      "channel": 2,
      "note": 63,
      "start": 27.5418,
      "duration": 0.0036,
      "velocity": 107,
      "chip": "ym2612"
    },
    {
      "channel": 0,
      "note": 51,
      "start": 27.5441,
      "duration": 0.0035,
      "velocity": 95,
      "chip": "ym2612"
    },
    {
      "channel": 1,
      "note": 63,
      "start": 27.5448,
      "duration": 0.0033,
      "velocity": 107,
      "chip": "ym2612"
    },
    {
      "channel": 2,
      "note": 63,
      "start": 27.5454,
      "duration": 0.0033,
      "velocity": 107,
      "chip": "ym2612"
    },
    {
      "channel": 0,
      "note": 51,
      "start": 27.5476,
      "duration": 0.0035,
      "velocity": 95,
      "chip": "ym2612"
    },
    {
      "channel": 1,
      "note": 63,
      "start": 27.5481,
      "duration": 0.0037,
      "velocity": 107,
      "chip": "ym2612"
    },
    {
      "channel": 2,
      "note": 63,
      "start": 27.5487,
      "duration": 0.0035,
      "velocity": 107,
      "chip": "ym2612"
    },
    {
      "channel": 0,
      "note": 51,
      "start": 27.5511,
      "duration": 0.003,
      "velocity": 95,
      "chip": "ym2612"
    },
    {
      "channel": 1,
      "note": 63,
      "start": 27.5518,
      "duration": 0.003,
      "velocity": 107,
      "chip": "ym2612"
    },
    {
      "channel": 2,
      "note": 63,
      "start": 27.5522,
      "duration": 0.0032,
      "velocity": 107,
      "chip": "ym2612"
    },
    {
      "channel": 0,
      "note": 51,
      "start": 27.5541,
      "duration": 0.0036,
      "velocity": 95,
      "chip": "ym2612"
    },
    {
      "channel": 1,
      "note": 63,
      "start": 27.5548,
      "duration": 0.0036,
      "velocity": 107,
      "chip": "ym2612"
    },
    {
      "channel": 2,
      "note": 63,
      "start": 27.5554,
      "duration": 0.0036,
      "velocity": 107,
      "chip": "ym2612"
    },
    {
      "channel": 0,
      "note": 51,
      "start": 27.5578,
      "duration": 0.0036,
      "velocity": 95,
      "chip": "ym2612"
    },
    {
      "channel": 1,
      "note": 63,
      "start": 27.5584,
      "duration": 0.0034,
      "velocity": 107,
      "chip": "ym2612"
    },
    {
      "channel": 2,
      "note": 63,
      "start": 27.559,
      "duration": 0.0034,
      "velocity": 107,
      "chip": "ym2612"
    },
    {
      "channel": 0,
      "note": 51,
      "start": 27.5614,
      "duration": 0.0146,
      "velocity": 95,
      "chip": "ym2612"
    },
    {
      "channel": 1,
      "note": 63,
      "start": 27.5618,
      "duration": 0.0148,
      "velocity": 107,
      "chip": "ym2612"
    },
    {
      "channel": 2,
      "note": 63,
      "start": 27.5624,
      "duration": 0.0147,
      "velocity": 107,
      "chip": "ym2612"
    },
    {
      "channel": 0,
      "note": 51,
      "start": 27.576,
      "duration": 0.0144,
      "velocity": 95,
      "chip": "ym2612"
    },
    {
      "channel": 1,
      "note": 63,
      "start": 27.5766,
      "duration": 0.0144,
      "velocity": 107,
      "chip": "ym2612"
    },
    {
      "channel": 2,
      "note": 63,
      "start": 27.5772,
      "duration": 0.0143,
      "velocity": 107,
      "chip": "ym2612"
    },
    {
      "channel": 0,
      "note": 51,
      "start": 27.5903,
      "duration": 0.0145,
      "velocity": 95,
      "chip": "ym2612"
    },
    {
      "channel": 1,
      "note": 63,
      "start": 27.591,
      "duration": 0.0144,
      "velocity": 107,
      "chip": "ym2612"
    },
    {
      "channel": 2,
      "note": 63,
      "start": 27.5915,
      "duration": 0.0146,
      "velocity": 107,
      "chip": "ym2612"
    },
    {
      "channel": 0,
      "note": 51,
      "start": 27.6048,
      "duration": 0.0144,
      "velocity": 95,
      "chip": "ym2612"
    },
    {
      "channel": 1,
      "note": 63,
      "start": 27.6054,
      "duration": 0.0144,
      "velocity": 107,
      "chip": "ym2612"
    },
    {
      "channel": 2,
      "note": 63,
      "start": 27.6061,
      "duration": 0.0144,
      "velocity": 107,
      "chip": "ym2612"
    },
    {
      "channel": 0,
      "note": 51,
      "start": 27.6192,
      "duration": 0.0143,
      "velocity": 95,
      "chip": "ym2612"
    },
    {
      "channel": 1,
      "note": 63,
      "start": 27.6199,
      "duration": 0.0142,
      "velocity": 107,
      "chip": "ym2612"
    },
    {
      "channel": 2,
      "note": 63,
      "start": 27.6205,
      "duration": 0.0141,
      "velocity": 107,
      "chip": "ym2612"
    },
    {
      "channel": 0,
      "note": 51,
      "start": 27.6335,
      "duration": 0.0146,
      "velocity": 95,
      "chip": "ym2612"
    },
    {
      "channel": 1,
      "note": 63,
      "start": 27.634,
      "duration": 0.0147,
      "velocity": 107,
      "chip": "ym2612"
    },
    {
      "channel": 2,
      "note": 63,
      "start": 27.6346,
      "duration": 0.0146,
      "velocity": 107,
      "chip": "ym2612"
    },
    {
      "channel": 0,
      "note": 51,
      "start": 27.6481,
      "duration": 0.0144,
      "velocity": 95,
      "chip": "ym2612"
    },
    {
      "channel": 1,
      "note": 63,
      "start": 27.6487,
      "duration": 0.0144,
      "velocity": 107,
      "chip": "ym2612"
    },
    {
      "channel": 2,
      "note": 63,
      "start": 27.6492,
      "duration": 0.0146,
      "velocity": 107,
      "chip": "ym2612"
    },
    {
      "channel": 0,
      "note": 51,
      "start": 27.6625,
      "duration": 0.0145,
      "velocity": 95,
      "chip": "ym2612"
    },
    {
      "channel": 1,
      "note": 63,
      "start": 27.6632,
      "duration": 0.0144,
      "velocity": 107,
      "chip": "ym2612"
    },
    {
      "channel": 2,
      "note": 63,
      "start": 27.6638,
      "duration": 0.0144,
      "velocity": 107,
      "chip": "ym2612"
    },
    {
      "channel": 0,
      "note": 51,
      "start": 27.6771,
      "duration": 0.0143,
      "velocity": 95,
      "chip": "ym2612"
    },
    {
      "channel": 1,
      "note": 63,
      "start": 27.6776,
      "duration": 0.0142,
      "velocity": 107,
      "chip": "ym2612"
    },
    {
      "channel": 2,
      "note": 63,
      "start": 27.6783,
      "duration": 0.0142,
      "velocity": 107,
      "chip": "ym2612"
    },
    {
      "channel": 0,
      "note": 51,
      "start": 27.6914,
      "duration": 0.0141,
      "velocity": 95,
      "chip": "ym2612"
    },
    {
      "channel": 1,
      "note": 63,
      "start": 27.6918,
      "duration": 0.0143,
      "velocity": 107,
      "chip": "ym2612"
    },
    {
      "channel": 2,
      "note": 63,
      "start": 27.6924,
      "duration": 0.0146,
      "velocity": 107,
      "chip": "ym2612"
    },
    {
      "channel": 0,
      "note": 53,
      "start": 27.7059,
      "duration": 0.1724,
      "velocity": 95,
      "chip": "ym2612"
    },
    {
      "channel": 1,
      "note": 65,
      "start": 27.7065,
      "duration": 0.1725,
      "velocity": 107,
      "chip": "ym2612"
    },
    {
      "channel": 2,
      "note": 63,
      "start": 27.707,
      "duration": 0.0041,
      "velocity": 107,
      "chip": "ym2612"
    },
    {
      "channel": 3,
      "note": 70,
      "start": 27.7076,
      "duration": 0.3638,
      "velocity": 89,
      "chip": "ym2612"
    },
    {
      "channel": 4,
      "note": 65,
      "start": 27.7083,
      "duration": 0.3637,
      "velocity": 89,
      "chip": "ym2612"
    },
    {
      "channel": 2,
      "note": 63,
      "start": 27.7112,
      "duration": 0.0028,
      "velocity": 107,
      "chip": "ym2612"
    },
    {
      "channel": 2,
      "note": 63,
      "start": 27.714,
      "duration": 0.0053,
      "velocity": 107,
      "chip": "ym2612"
    },
    {
      "channel": 2,
      "note": 63,
      "start": 27.7193,
      "duration": 0.0144,
      "velocity": 107,
      "chip": "ym2612"
    },
    {
      "channel": 2,
      "note": 63,
      "start": 27.7337,
      "duration": 0.0143,
      "velocity": 107,
      "chip": "ym2612"
    },
    {
      "channel": 2,
      "note": 63,
      "start": 27.748,
      "duration": 0.0142,
      "velocity": 107,
      "chip": "ym2612"
    },
    {
      "channel": 2,
      "note": 65,
      "start": 27.7626,
      "duration": 0.1364,
      "velocity": 107,
      "chip": "ym2612"
    },
    {
      "channel": 0,
      "note": 53,
      "start": 27.8783,
      "duration": 0.0041,
      "velocity": 95,
      "chip": "ym2612"
    },
    {
      "channel": 1,
      "note": 65,
      "start": 27.879,
      "duration": 0.0041,
      "velocity": 107,
      "chip": "ym2612"
    },
    {
      "channel": 0,
      "note": 53,
      "start": 27.8824,
      "duration": 0.0027,
      "velocity": 95,
      "chip": "ym2612"
    },
    {
      "channel": 1,
      "note": 65,
      "start": 27.8831,
      "duration": 0.0025,
      "velocity": 107,
      "chip": "ym2612"
    },
    {
      "channel": 0,
      "note": 53,
      "start": 27.8851,
      "duration": 0.0031,
      "velocity": 95,
      "chip": "ym2612"
    },
    {
      "channel": 1,
      "note": 65,
      "start": 27.8856,
      "duration": 0.0032,
      "velocity": 107,
      "chip": "ym2612"
    },
    {
      "channel": 0,
      "note": 53,
      "start": 27.8882,
      "duration": 0.0032,
      "velocity": 95,
      "chip": "ym2612"
    },
    {
      "channel": 1,
      "note": 65,
      "start": 27.8888,
      "duration": 0.0033,
      "velocity": 107,
      "chip": "ym2612"
    },
    {
      "channel": 0,
      "note": 53,
      "start": 27.8915,
      "duration": 0.0033,
      "velocity": 95,
      "chip": "ym2612"
    },
    {
      "channel": 1,
      "note": 65,
      "start": 27.892,
      "duration": 0.0032,
      "velocity": 107,
      "chip": "ym2612"
    },
    {
      "channel": 0,
      "note": 53,
      "start": 27.8947,
      "duration": 0.0032,
      "velocity": 95,
      "chip": "ym2612"
    },
    {
      "channel": 1,
      "note": 65,
      "start": 27.8953,
      "duration": 0.0031,
      "velocity": 107,
      "chip": "ym2612"
    },
    {
      "channel": 0,
      "note": 53,
      "start": 27.8979,
      "duration": 0.0035,
      "velocity": 95,
      "chip": "ym2612"
    },
    {
      "channel": 1,
      "note": 65,
      "start": 27.8984,
      "duration": 0.0037,
      "velocity": 107,
      "chip": "ym2612"
    },
    {
      "channel": 2,
      "note": 65,
      "start": 27.899,
      "duration": 0.0037,
      "velocity": 107,
      "chip": "ym2612"
    },
    {
      "channel": 0,
      "note": 53,
      "start": 27.9014,
      "duration": 0.0037,
      "velocity": 95,
      "chip": "ym2612"
    },
    {
      "channel": 1,
      "note": 65,
      "start": 27.902,
      "duration": 0.0036,
      "velocity": 107,
      "chip": "ym2612"
    },
    {
      "channel": 2,
      "note": 65,
      "start": 27.9027,
      "duration": 0.0035,
      "velocity": 107,
      "chip": "ym2612"
    },
    {
      "channel": 0,
      "note": 53,
      "start": 27.9051,
      "duration": 0.0035,
      "velocity": 95,
      "chip": "ym2612"
    },
    {
      "channel": 1,
      "note": 65,
      "start": 27.9056,
      "duration": 0.0035,
      "velocity": 107,
      "chip": "ym2612"
    },
    {
      "channel": 2,
      "note": 65,
      "start": 27.9061,
      "duration": 0.0036,
      "velocity": 107,
      "chip": "ym2612"
    },
    {
      "channel": 0,
      "note": 53,
      "start": 27.9085,
      "duration": 0.0032,
      "velocity": 95,
      "chip": "ym2612"
    },
    {
      "channel": 1,
      "note": 65,
      "start": 27.9091,
      "duration": 0.0032,
      "velocity": 107,
      "chip": "ym2612"
    },
    {
      "channel": 2,
      "note": 65,
      "start": 27.9098,
      "duration": 0.0032,
      "velocity": 107,
      "chip": "ym2612"
    },
    {
      "channel": 0,
      "note": 53,
      "start": 27.9117,
      "duration": 0.0035,
      "velocity": 95,
      "chip": "ym2612"
    },
    {
      "channel": 1,
      "note": 65,
      "start": 27.9124,
      "duration": 0.0034,
      "velocity": 107,
      "chip": "ym2612"
    },
    {
      "channel": 2,
      "note": 65,
      "start": 27.9129,
      "duration": 0.0034,
      "velocity": 107,
      "chip": "ym2612"
    },
    {
      "channel": 0,
      "note": 53,
      "start": 27.9153,
      "duration": 0.0034,
      "velocity": 95,
      "chip": "ym2612"
    },
    {
      "channel": 1,
      "note": 65,
      "start": 27.9157,
      "duration": 0.0036,
      "velocity": 107,
      "chip": "ym2612"
    },
    {
      "channel": 2,
      "note": 65,
      "start": 27.9163,
      "duration": 0.0034,
      "velocity": 107,
      "chip": "ym2612"
    },
    {
      "channel": 0,
      "note": 53,
      "start": 27.9187,
      "duration": 0.0034,
      "velocity": 95,
      "chip": "ym2612"
    },
    {
      "channel": 1,
      "note": 65,
      "start": 27.9193,
      "duration": 0.0034,
      "velocity": 107,
      "chip": "ym2612"
    },
    {
      "channel": 2,
      "note": 65,
      "start": 27.9198,
      "duration": 0.0036,
      "velocity": 107,
      "chip": "ym2612"
    },
    {
      "channel": 0,
      "note": 53,
      "start": 27.9221,
      "duration": 0.0036,
      "velocity": 95,
      "chip": "ym2612"
    },
    {
      "channel": 1,
      "note": 65,
      "start": 27.9228,
      "duration": 0.0036,
      "velocity": 107,
      "chip": "ym2612"
    },
    {
      "channel": 2,
      "note": 65,
      "start": 27.9234,
      "duration": 0.0036,
      "velocity": 107,
      "chip": "ym2612"
    },
    {
      "channel": 0,
      "note": 53,
      "start": 27.9258,
      "duration": 0.0142,
      "velocity": 95,
      "chip": "ym2612"
    },
    {
      "channel": 1,
      "note": 65,
      "start": 27.9263,
      "duration": 0.014,
      "velocity": 107,
      "chip": "ym2612"
    },
    {
      "channel": 2,
      "note": 65,
      "start": 27.927,
      "duration": 0.014,
      "velocity": 107,
      "chip": "ym2612"
    },
    {
      "channel": 0,
      "note": 53,
      "start": 27.94,
      "duration": 0.0146,
      "velocity": 95,
      "chip": "ym2612"
    },
    {
      "channel": 1,
      "note": 65,
      "start": 27.9404,
      "duration": 0.0148,
      "velocity": 107,
      "chip": "ym2612"
    },
    {
      "channel": 2,
      "note": 65,
      "start": 27.941,
      "duration": 0.0148,
      "velocity": 107,
      "chip": "ym2612"
    },
    {
      "channel": 0,
      "note": 53,
      "start": 27.9546,
      "duration": 0.0148,
      "velocity": 95,
      "chip": "ym2612"
    },
    {
      "channel": 1,
      "note": 65,
      "start": 27.9552,
      "duration": 0.0148,
      "velocity": 107,
      "chip": "ym2612"
    },
    {
      "channel": 2,
      "note": 65,
      "start": 27.9558,
      "duration": 0.0147,
      "velocity": 107,
      "chip": "ym2612"
    },
    {
      "channel": 0,
      "note": 53,
      "start": 27.9693,
      "duration": 0.0141,
      "velocity": 95,
      "chip": "ym2612"
    },
    {
      "channel": 1,
      "note": 65,
      "start": 27.97,
      "duration": 0.0141,
      "velocity": 107,
      "chip": "ym2612"
    },
    {
      "channel": 2,
      "note": 65,
      "start": 27.9705,
      "duration": 0.0142,
      "velocity": 107,
      "chip": "ym2612"
    },
    {
      "channel": 0,
      "note": 53,
      "start": 27.9835,
      "duration": 0.0144,
      "velocity": 95,
      "chip": "ym2612"
    },
    {
      "channel": 1,
      "note": 65,
      "start": 27.9841,
      "duration": 0.0144,
      "velocity": 107,
      "chip": "ym2612"
    },
    {
      "channel": 2,
      "note": 65,
      "start": 27.9847,
      "duration": 0.0144,
      "velocity": 107,
      "chip": "ym2612"
    },
    {
      "channel": 0,
      "note": 53,
      "start": 27.9979,
      "duration": 0.0143,
      "velocity": 95,
      "chip": "ym2612"
    },
    {
      "channel": 1,
      "note": 65,
      "start": 27.9985,
      "duration": 0.0141,
      "velocity": 107,
      "chip": "ym2612"
    },
    {
      "channel": 2,
      "note": 65,
      "start": 27.9991,
      "duration": 0.0142,
      "velocity": 107,
      "chip": "ym2612"
    },
    {
      "channel": 0,
      "note": 53,
      "start": 28.0122,
      "duration": 0.0146,
      "velocity": 95,
      "chip": "ym2612"
    },
    {
      "channel": 1,
      "note": 65,
      "start": 28.0127,
      "duration": 0.0147,
      "velocity": 107,
      "chip": "ym2612"
    },
    {
      "channel": 2,
      "note": 65,
      "start": 28.0133,
      "duration": 0.0146,
      "velocity": 107,
      "chip": "ym2612"
    },
    {
      "channel": 0,
      "note": 53,
      "start": 28.0268,
      "duration": 0.0144,
      "velocity": 95,
      "chip": "ym2612"
    },
    {
      "channel": 1,
      "note": 65,
      "start": 28.0273,
      "duration": 0.0145,
      "velocity": 107,
      "chip": "ym2612"
    },
    {
      "channel": 2,
      "note": 65,
      "start": 28.0279,
      "duration": 0.0146,
      "velocity": 107,
      "chip": "ym2612"
    },
    {
      "channel": 0,
      "note": 53,
      "start": 28.0412,
      "duration": 0.0144,
      "velocity": 95,
      "chip": "ym2612"
    },
    {
      "channel": 1,
      "note": 65,
      "start": 28.0419,
      "duration": 0.0144,
      "velocity": 107,
      "chip": "ym2612"
    },
    {
      "channel": 2,
      "note": 65,
      "start": 28.0425,
      "duration": 0.0144,
      "velocity": 107,
      "chip": "ym2612"
    },
    {
      "channel": 0,
      "note": 53,
      "start": 28.0557,
      "duration": 0.014,
      "velocity": 95,
      "chip": "ym2612"
    },
    {
      "channel": 1,
      "note": 65,
      "start": 28.0563,
      "duration": 0.014,
      "velocity": 107,
      "chip": "ym2612"
    },
    {
      "channel": 2,
      "note": 65,
      "start": 28.0569,
      "duration": 0.0142,
      "velocity": 107,
      "chip": "ym2612"
    },
    {
      "channel": 0,
      "note": 54,
      "start": 28.0701,
      "duration": 0.2294,
      "velocity": 95,
      "chip": "ym2612"
    },
    {
      "channel": 1,
      "note": 66,
      "start": 28.0707,
      "duration": 0.2294,
      "velocity": 107,
      "chip": "ym2612"
    },
    {
      "channel": 2,
      "note": 65,
      "start": 28.0712,
      "duration": 0.0041,
      "velocity": 107,
      "chip": "ym2612"
    },
    {
      "channel": 3,
      "note": 70,
      "start": 28.0718,
      "duration": 0.5337,
      "velocity": 89,
      "chip": "ym2612"
    },
    {
      "channel": 4,
      "note": 66,
      "start": 28.0724,
      "duration": 0.5337,
      "velocity": 89,
      "chip": "ym2612"
    },
    {
      "channel": 2,
      "note": 65,
      "start": 28.0753,
      "duration": 0.0027,
      "velocity": 107,
      "chip": "ym2612"
    },
    {
      "channel": 2,
      "note": 65,
      "start": 28.078,
      "duration": 0.0054,
      "velocity": 107,
      "chip": "ym2612"
    },
    {
      "channel": 2,
      "note": 65,
      "start": 28.0834,
      "duration": 0.0144,
      "velocity": 107,
      "chip": "ym2612"
    },
    {
      "channel": 2,
      "note": 65,
      "start": 28.0978,
      "duration": 0.0144,
      "velocity": 107,
      "chip": "ym2612"
    },
    {
      "channel": 2,
      "note": 65,
      "start": 28.1123,
      "duration": 0.014,
      "velocity": 107,
      "chip": "ym2612"
    },
    {
      "channel": 2,
      "note": 66,
      "start": 28.1267,
      "duration": 0.1936,
      "velocity": 107,
      "chip": "ym2612"
    },
    {
      "channel": 0,
      "note": 54,
      "start": 28.2995,
      "duration": 0.0039,
      "velocity": 95,
      "chip": "ym2612"
    },
    {
      "channel": 1,
      "note": 66,
      "start": 28.3002,
      "duration": 0.0039,
      "velocity": 107,
      "chip": "ym2612"
    },
    {
      "channel": 0,
      "note": 54,
      "start": 28.3034,
      "duration": 0.0032,
      "velocity": 95,
      "chip": "ym2612"
    },
    {
      "channel": 1,
      "note": 66,
      "start": 28.3041,
      "duration": 0.003,
      "velocity": 107,
      "chip": "ym2612"
    },
    {
      "channel": 0,
      "note": 54,
      "start": 28.3066,
      "duration": 0.003,
      "velocity": 95,
      "chip": "ym2612"
    },
    {
      "channel": 1,
      "note": 66,
      "start": 28.3071,
      "duration": 0.0032,
      "velocity": 107,
      "chip": "ym2612"
    },
    {
      "channel": 0,
      "note": 54,
      "start": 28.3096,
      "duration": 0.0032,
      "velocity": 95,
      "chip": "ym2612"
    },
    {
      "channel": 1,
      "note": 66,
      "start": 28.3102,
      "duration": 0.0032,
      "velocity": 107,
      "chip": "ym2612"
    },
    {
      "channel": 0,
      "note": 54,
      "start": 28.3128,
      "duration": 0.0032,
      "velocity": 95,
      "chip": "ym2612"
    },
    {
      "channel": 1,
      "note": 66,
      "start": 28.3135,
      "duration": 0.0032,
      "velocity": 107,
      "chip": "ym2612"
    },
    {
      "channel": 0,
      "note": 54,
      "start": 28.316,
      "duration": 0.0032,
      "velocity": 95,
      "chip": "ym2612"
    },
    {
      "channel": 1,
      "note": 66,
      "start": 28.3167,
      "duration": 0.0031,
      "velocity": 107,
      "chip": "ym2612"
    },
    {
      "channel": 0,
      "note": 54,
      "start": 28.3192,
      "duration": 0.0035,
      "velocity": 95,
      "chip": "ym2612"
    },
    {
      "channel": 1,
      "note": 66,
      "start": 28.3197,
      "duration": 0.0036,
      "velocity": 107,
      "chip": "ym2612"
    },
    {
      "channel": 2,
      "note": 66,
      "start": 28.3203,
      "duration": 0.0037,
      "velocity": 107,
      "chip": "ym2612"
    },
    {
      "channel": 0,
      "note": 54,
      "start": 28.3227,
      "duration": 0.0056,
      "velocity": 95,
      "chip": "ym2612"
    },
    {
      "channel": 1,
      "note": 66,
      "start": 28.3234,
      "duration": 0.0056,
      "velocity": 107,
      "chip": "ym2612"
    },
    {
      "channel": 2,
      "note": 66,
      "start": 28.324,
      "duration": 0.0054,
      "velocity": 107,
      "chip": "ym2612"
    },
    {
      "channel": 0,
      "note": 54,
      "start": 28.3283,
      "duration": 0.0145,
      "velocity": 95,
      "chip": "ym2612"
    },
    {
      "channel": 1,
      "note": 66,
      "start": 28.3289,
      "duration": 0.0144,
      "velocity": 107,
      "chip": "ym2612"
    },
    {
      "channel": 2,
      "note": 66,
      "start": 28.3294,
      "duration": 0.0146,
      "velocity": 107,
      "chip": "ym2612"
    },
    {
      "channel": 0,
      "note": 54,
      "start": 28.3428,
      "duration": 0.0144,
      "velocity": 95,
      "chip": "ym2612"
    },
    {
      "channel": 1,
      "note": 66,
      "start": 28.3434,
      "duration": 0.0145,
      "velocity": 107,
      "chip": "ym2612"
    },
    {
      "channel": 2,
      "note": 66,
      "start": 28.344,
      "duration": 0.0144,
      "velocity": 107,
      "chip": "ym2612"
    },
    {
      "channel": 0,
      "note": 54,
      "start": 28.3572,
      "duration": 0.0143,
      "velocity": 95,
      "chip": "ym2612"
    },
    {
      "channel": 1,
      "note": 66,
      "start": 28.3578,
      "duration": 0.0141,
      "velocity": 107,
      "chip": "ym2612"
    },
    {
      "channel": 2,
      "note": 66,
      "start": 28.3584,
      "duration": 0.0141,
      "velocity": 107,
      "chip": "ym2612"
    },
    {
      "channel": 0,
      "note": 54,
      "start": 28.3715,
      "duration": 0.0142,
      "velocity": 95,
      "chip": "ym2612"
    },
    {
      "channel": 1,
      "note": 66,
      "start": 28.372,
      "duration": 0.0144,
      "velocity": 107,
      "chip": "ym2612"
    },
    {
      "channel": 2,
      "note": 66,
      "start": 28.3725,
      "duration": 0.0146,
      "velocity": 107,
      "chip": "ym2612"
    },
    {
      "channel": 0,
      "note": 56,
      "start": 28.3862,
      "duration": 0.2182,
      "velocity": 95,
      "chip": "ym2612"
    },
    {
      "channel": 1,
      "note": 68,
      "start": 28.3869,
      "duration": 0.2182,
      "velocity": 107,
      "chip": "ym2612"
    },
    {
      "channel": 2,
      "note": 66,
      "start": 28.3872,
      "duration": 0.0034,
      "velocity": 107,
      "chip": "ym2612"
    },
    {
      "channel": 2,
      "note": 66,
      "start": 28.3906,
      "duration": 0.0029,
      "velocity": 107,
      "chip": "ym2612"
    },
    {
      "channel": 2,
      "note": 66,
      "start": 28.3935,
      "duration": 0.0061,
      "velocity": 107,
      "chip": "ym2612"
    },
    {
      "channel": 2,
      "note": 66,
      "start": 28.3996,
      "duration": 0.0142,
      "velocity": 107,
      "chip": "ym2612"
    },
    {
      "channel": 2,
      "note": 66,
      "start": 28.4138,
      "duration": 0.0143,
      "velocity": 107,
      "chip": "ym2612"
    },
    {
      "channel": 2,
      "note": 66,
      "start": 28.4281,
      "duration": 0.0142,
      "velocity": 107,
      "chip": "ym2612"
    },
    {
      "channel": 2,
      "note": 68,
      "start": 28.4427,
      "duration": 0.1827,
      "velocity": 107,
      "chip": "ym2612"
    },
    {
      "channel": 0,
      "note": 56,
      "start": 28.6044,
      "duration": 0.0046,
      "velocity": 95,
      "chip": "ym2612"
    },
    {
      "channel": 1,
      "note": 68,
      "start": 28.605,
      "duration": 0.0044,
      "velocity": 107,
      "chip": "ym2612"
    },
    {
      "channel": 3,
      "note": 70,
      "start": 28.6059,
      "duration": 0.143,
      "velocity": 89,
      "chip": "ym2612"
    },
    {
      "channel": 4,
      "note": 65,
      "start": 28.6066,
      "duration": 0.1432,
      "velocity": 89,
      "chip": "ym2612"
    },
    {
      "channel": 0,
      "note": 56,
      "start": 28.609,
      "duration": 0.003,
      "velocity": 95,
      "chip": "ym2612"
    },
    {
      "channel": 1,
      "note": 68,
      "start": 28.6094,
      "duration": 0.0032,
      "velocity": 107,
      "chip": "ym2612"
    },
    {
      "channel": 0,
      "note": 56,
      "start": 28.612,
      "duration": 0.0027,
      "velocity": 95,
      "chip": "ym2612"
    },
    {
      "channel": 1,
      "note": 68,
      "start": 28.6126,
      "duration": 0.0028,
      "velocity": 107,
      "chip": "ym2612"
    },
    {
      "channel": 0,
      "note": 56,
      "start": 28.6147,
      "duration": 0.0032,
      "velocity": 95,
      "chip": "ym2612"
    },
    {
      "channel": 1,
      "note": 68,
      "start": 28.6154,
      "duration": 0.0032,
      "velocity": 107,
      "chip": "ym2612"
    },
    {
      "channel": 0,
      "note": 56,
      "start": 28.6179,
      "duration": 0.0031,
      "velocity": 95,
      "chip": "ym2612"
    },
    {
      "channel": 1,
      "note": 68,
      "start": 28.6185,
      "duration": 0.0029,
      "velocity": 107,
      "chip": "ym2612"
    },
    {
      "channel": 0,
      "note": 56,
      "start": 28.621,
      "duration": 0.0032,
      "velocity": 95,
      "chip": "ym2612"
    },
    {
      "channel": 1,
      "note": 68,
      "start": 28.6215,
      "duration": 0.0033,
      "velocity": 107,
      "chip": "ym2612"
    },
    {
      "channel": 0,
      "note": 56,
      "start": 28.6241,
      "duration": 0.0037,
      "velocity": 95,
      "chip": "ym2612"
    },
    {
      "channel": 1,
      "note": 68,
      "start": 28.6248,
      "duration": 0.0036,
      "velocity": 107,
      "chip": "ym2612"
    },
    {
      "channel": 2,
      "note": 69,
      "start": 28.6254,
      "duration": 0.0034,
      "velocity": 107,
      "chip": "ym2612"
    },
    {
      "channel": 0,
      "note": 56,
      "start": 28.6278,
      "duration": 0.0034,
      "velocity": 95,
      "chip": "ym2612"
    },
    {
      "channel": 1,
      "note": 68,
      "start": 28.6284,
      "duration": 0.0035,
      "velocity": 107,
      "chip": "ym2612"
    },
    {
      "channel": 2,
      "note": 68,
      "start": 28.6289,
      "duration": 0.0036,
      "velocity": 107,
      "chip": "ym2612"
    },
    {
      "channel": 0,
      "note": 56,
      "start": 28.6312,
      "duration": 0.0044,
      "velocity": 95,
      "chip": "ym2612"
    },
    {
      "channel": 1,
      "note": 68,
      "start": 28.6319,
      "duration": 0.0044,
      "velocity": 107,
      "chip": "ym2612"
    },
    {
      "channel": 2,
      "note": 68,
      "start": 28.6324,
      "duration": 0.0044,
      "velocity": 107,
      "chip": "ym2612"
    },
    {
      "channel": 0,
      "note": 56,
      "start": 28.6356,
      "duration": 0.0143,
      "velocity": 95,
      "chip": "ym2612"
    },
    {
      "channel": 1,
      "note": 68,
      "start": 28.6362,
      "duration": 0.0142,
      "velocity": 107,
      "chip": "ym2612"
    },
    {
      "channel": 2,
      "note": 68,
      "start": 28.6368,
      "duration": 0.0141,
      "velocity": 107,
      "chip": "ym2612"
    },
    {
      "channel": 0,
      "note": 56,
      "start": 28.6499,
      "duration": 0.0146,
      "velocity": 95,
      "chip": "ym2612"
    },
    {
      "channel": 1,
      "note": 68,
      "start": 28.6504,
      "duration": 0.0147,
      "velocity": 107,
      "chip": "ym2612"
    },
    {
      "channel": 2,
      "note": 68,
      "start": 28.651,
      "duration": 0.0146,
      "velocity": 107,
      "chip": "ym2612"
    },
    {
      "channel": 0,
      "note": 56,
      "start": 28.6645,
      "duration": 0.0144,
      "velocity": 95,
      "chip": "ym2612"
    },
    {
      "channel": 1,
      "note": 68,
      "start": 28.6651,
      "duration": 0.0141,
      "velocity": 107,
      "chip": "ym2612"
    },
    {
      "channel": 2,
      "note": 68,
      "start": 28.6656,
      "duration": 0.0145,
      "velocity": 107,
      "chip": "ym2612"
    },
    {
      "channel": 0,
      "note": 56,
      "start": 28.679,
      "duration": 0.004,
      "velocity": 95,
      "chip": "ym2612"
    },
    {
      "channel": 1,
      "note": 63,
      "start": 28.6797,
      "duration": 0.0355,
      "velocity": 107,
      "chip": "ym2612"
    },
    {
      "channel": 2,
      "note": 69,
      "start": 28.6801,
      "duration": 0.0037,
      "velocity": 107,
      "chip": "ym2612"
    },
    {
      "channel": 0,
      "note": 56,
      "start": 28.6829,
      "duration": 0.0031,
      "velocity": 95,
      "chip": "ym2612"
    },
    {
      "channel": 2,
      "note": 69,
      "start": 28.6838,
      "duration": 0.0031,
      "velocity": 107,
      "chip": "ym2612"
    },
    {
      "channel": 0,
      "note": 56,
      "start": 28.6861,
      "duration": 0.0032,
      "velocity": 95,
      "chip": "ym2612"
    },
    {
      "channel": 2,
      "note": 69,
      "start": 28.6869,
      "duration": 0.0032,
      "velocity": 107,
      "chip": "ym2612"
    },
    {
      "channel": 0,
      "note": 56,
      "start": 28.6893,
      "duration": 0.0032,
      "velocity": 95,
      "chip": "ym2612"
    },
    {
      "channel": 2,
      "note": 69,
      "start": 28.6902,
      "duration": 0.0031,
      "velocity": 107,
      "chip": "ym2612"
    },
    {
      "channel": 0,
      "note": 56,
      "start": 28.6925,
      "duration": 0.003,
      "velocity": 95,
      "chip": "ym2612"
    },
    {
      "channel": 2,
      "note": 68,
      "start": 28.6932,
      "duration": 0.0032,
      "velocity": 107,
      "chip": "ym2612"
    },
    {
      "channel": 0,
      "note": 56,
      "start": 28.6955,
      "duration": 0.0028,
      "velocity": 95,
      "chip": "ym2612"
    },
    {
      "channel": 2,
      "note": 68,
      "start": 28.6964,
      "duration": 0.0024,
      "velocity": 107,
      "chip": "ym2612"
    },
    {
      "channel": 0,
      "note": 56,
      "start": 28.6983,
      "duration": 0.0028,
      "velocity": 95,
      "chip": "ym2612"
    },
    {
      "channel": 2,
      "note": 63,
      "start": 28.6993,
      "duration": 0.0323,
      "velocity": 107,
      "chip": "ym2612"
    },
    {
      "channel": 0,
      "note": 56,
      "start": 28.7011,
      "duration": 0.0027,
      "velocity": 95,
      "chip": "ym2612"
    },
    {
      "channel": 0,
      "note": 56,
      "start": 28.7038,
      "duration": 0.0028,
      "velocity": 95,
      "chip": "ym2612"
    },
    {
      "channel": 0,
      "note": 56,
      "start": 28.7067,
      "duration": 0.0027,
      "velocity": 95,
      "chip": "ym2612"
    },
    {
      "channel": 0,
      "note": 56,
      "start": 28.7094,
      "duration": 0.0027,
      "velocity": 95,
      "chip": "ym2612"
    },
    {
      "channel": 0,
      "note": 56,
      "start": 28.7121,
      "duration": 0.0029,
      "velocity": 95,
      "chip": "ym2612"
    },
    {
      "channel": 0,
      "note": 56,
      "start": 28.715,
      "duration": 0.0037,
      "velocity": 95,
      "chip": "ym2612"
    },
    {
      "channel": 0,
      "note": 56,
      "start": 28.7187,
      "duration": 0.0022,
      "velocity": 95,
      "chip": "ym2612"
    },
    {
      "channel": 0,
      "note": 56,
      "start": 28.7209,
      "duration": 0.0027,
      "velocity": 95,
      "chip": "ym2612"
    },
    {
      "channel": 0,
      "note": 56,
      "start": 28.7236,
      "duration": 0.0025,
      "velocity": 95,
      "chip": "ym2612"
    },
    {
      "channel": 0,
      "note": 56,
      "start": 28.7261,
      "duration": 0.0027,
      "velocity": 95,
      "chip": "ym2612"
    },
    {
      "channel": 0,
      "note": 56,
      "start": 28.7287,
      "duration": 0.0027,
      "velocity": 95,
      "chip": "ym2612"
    },
    {
      "channel": 0,
      "note": 56,
      "start": 28.7314,
      "duration": 0.0026,
      "velocity": 95,
      "chip": "ym2612"
    },
    {
      "channel": 0,
      "note": 56,
      "start": 28.734,
      "duration": 0.0023,
      "velocity": 95,
      "chip": "ym2612"
    },
    {
      "channel": 0,
      "note": 56,
      "start": 28.7363,
      "duration": 0.002,
      "velocity": 95,
      "chip": "ym2612"
    },
    {
      "channel": 0,
      "note": 56,
      "start": 28.7383,
      "duration": 0.0023,
      "velocity": 95,
      "chip": "ym2612"
    },
    {
      "channel": 0,
      "note": 56,
      "start": 28.7406,
      "duration": 0.0025,
      "velocity": 95,
      "chip": "ym2612"
    },
    {
      "channel": 0,
      "note": 56,
      "start": 28.7431,
      "duration": 0.0044,
      "velocity": 95,
      "chip": "ym2612"
    },
    {
      "channel": 0,
      "note": 51,
      "start": 28.7479,
      "duration": 0.1421,
      "velocity": 95,
      "chip": "ym2612"
    },
    {
      "channel": 1,
      "note": 63,
      "start": 28.7485,
      "duration": 0.3156,
      "velocity": 107,
      "chip": "ym2612"
    },
    {
      "channel": 3,
      "note": 70,
      "start": 28.7494,
      "duration": 1.6654,
      "velocity": 89,
      "chip": "ym2612"
    },
    {
      "channel": 4,
      "note": 66,
      "start": 28.7502,
      "duration": 1.6652,
      "velocity": 89,
      "chip": "ym2612"
    },
    {
      "channel": 2,
      "note": 63,
      "start": 28.8042,
      "duration": 0.2756,
      "velocity": 107,
      "chip": "ym2612"
    },
    {
      "channel": 0,
      "note": 51,
      "start": 28.8904,
      "duration": 0.1729,
      "velocity": 95,
      "chip": "ym2612"
    },
    {
      "channel": 0,
      "note": 51,
      "start": 29.0638,
      "duration": 0.0298,
      "velocity": 95,
      "chip": "ym2612"
    },
    {
      "channel": 1,
      "note": 71,
      "start": 29.0646,
      "duration": 0.1909,
      "velocity": 107,
      "chip": "ym2612"
    },
    {
      "channel": 2,
      "note": 71,
      "start": 29.0802,
      "duration": 0.2313,
      "velocity": 107,
      "chip": "ym2612"
    },
    {
      "channel": 0,
      "note": 51,
      "start": 29.0939,
      "duration": 0.161,
      "velocity": 95,
      "chip": "ym2612"
    },
    {
      "channel": 0,
      "note": 51,
      "start": 29.2553,
      "duration": 0.1424,
      "velocity": 95,
      "chip": "ym2612"
    },
    {
      "channel": 1,
      "note": 70,
      "start": 29.2559,
      "duration": 0.3156,
      "velocity": 107,
      "chip": "ym2612"
    },
    {
      "channel": 2,
      "note": 70,
      "start": 29.312,
      "duration": 0.2749,
      "velocity": 107,
      "chip": "ym2612"
    },
    {
      "channel": 0,
      "note": 51,
      "start": 29.3981,
      "duration": 0.1729,
      "velocity": 95,
      "chip": "ym2612"
    },
    {
      "channel": 0,
      "note": 51,
      "start": 29.5715,
      "duration": 0.0295,
      "velocity": 95,
      "chip": "ym2612"
    },
    {
      "channel": 1,
      "note": 68,
      "start": 29.572,
      "duration": 0.1918,
      "velocity": 107,
      "chip": "ym2612"
    },
    {
      "channel": 2,
      "note": 68,
      "start": 29.5873,
      "duration": 0.2324,
      "velocity": 107,
      "chip": "ym2612"
    },
    {
      "channel": 0,
      "note": 51,
      "start": 29.6013,
      "duration": 0.1618,
      "velocity": 95,
      "chip": "ym2612"
    },
    {
      "channel": 0,
      "note": 51,
      "start": 29.7636,
      "duration": 0.1421,
      "velocity": 95,
      "chip": "ym2612"
    },
    {
      "channel": 1,
      "note": 66,
      "start": 29.7642,
      "duration": 0.3155,
      "velocity": 107,
      "chip": "ym2612"
    },
    {
      "channel": 2,
      "note": 66,
      "start": 29.82,
      "duration": 0.2753,
      "velocity": 107,
      "chip": "ym2612"
    },
    {
      "channel": 0,
      "note": 51,
      "start": 29.9061,
      "duration": 0.1729,
      "velocity": 95,
      "chip": "ym2612"
    },
    {
      "channel": 0,
      "note": 51,
      "start": 30.0794,
      "duration": 0.0296,
      "velocity": 95,
      "chip": "ym2612"
    },
    {
      "channel": 1,
      "note": 68,
      "start": 30.08,
      "duration": 0.1911,
      "velocity": 107,
      "chip": "ym2612"
    },
    {
      "channel": 2,
      "note": 68,
      "start": 30.0957,
      "duration": 0.2316,
      "velocity": 107,
      "chip": "ym2612"
    },
    {
      "channel": 0,
      "note": 51,
      "start": 30.1095,
      "duration": 0.161,
      "velocity": 95,
      "chip": "ym2612"
    },
    {
      "channel": 0,
      "note": 51,
      "start": 30.2709,
      "duration": 0.1425,
      "velocity": 95,
      "chip": "ym2612"
    },
    {
      "channel": 1,
      "note": 70,
      "start": 30.2716,
      "duration": 0.1424,
      "velocity": 107,
      "chip": "ym2612"
    },
    {
      "channel": 2,
      "note": 70,
      "start": 30.3278,
      "duration": 0.1024,
      "velocity": 107,
      "chip": "ym2612"
    },
    {
      "channel": 0,
      "note": 51,
      "start": 30.4139,
      "duration": 0.0298,
      "velocity": 95,
      "chip": "ym2612"
    },
    {
      "channel": 1,
      "note": 71,
      "start": 30.4145,
      "duration": 0.1917,
      "velocity": 107,
      "chip": "ym2612"
    },
    {
      "channel": 3,
      "note": 70,
      "start": 30.4152,
      "duration": 0.2279,
      "velocity": 89,
      "chip": "ym2612"
    },
    {
      "channel": 4,
      "note": 66,
      "start": 30.4159,
      "duration": 0.2279,
      "velocity": 89,
      "chip": "ym2612"
    },
    {
      "channel": 2,
      "note": 71,
      "start": 30.4306,
      "duration": 0.193,
      "velocity": 107,
      "chip": "ym2612"
    },
    {
      "channel": 0,
      "note": 51,
      "start": 30.4442,
      "duration": 0.161,
      "velocity": 95,
      "chip": "ym2612"
    },
    {
      "channel": 0,
      "note": 51,
      "start": 30.6056,
      "duration": 0.0358,
      "velocity": 95,
      "chip": "ym2612"
    },
    {
      "channel": 1,
      "note": 71,
      "start": 30.6061,
      "duration": 0.0031,
      "velocity": 107,
      "chip": "ym2612"
    },
    {
      "channel": 1,
      "note": 71,
      "start": 30.6092,
      "duration": 0.0024,
      "velocity": 107,
      "chip": "ym2612"
    },
    {
      "channel": 1,
      "note": 71,
      "start": 30.6116,
      "duration": 0.0029,
      "velocity": 107,
      "chip": "ym2612"
    },
    {
      "channel": 1,
      "note": 71,
      "start": 30.6145,
      "duration": 0.0028,
      "velocity": 107,
      "chip": "ym2612"
    },
    {
      "channel": 1,
      "note": 71,
      "start": 30.6173,
      "duration": 0.0027,
      "velocity": 107,
      "chip": "ym2612"
    },
    {
      "channel": 1,
      "note": 71,
      "start": 30.62,
      "duration": 0.0029,
      "velocity": 107,
      "chip": "ym2612"
    },
    {
      "channel": 1,
      "note": 71,
      "start": 30.6229,
      "duration": 0.0033,
      "velocity": 107,
      "chip": "ym2612"
    },
    {
      "channel": 2,
      "note": 71,
      "start": 30.6236,
      "duration": 0.0032,
      "velocity": 107,
      "chip": "ym2612"
    },
    {
      "channel": 1,
      "note": 71,
      "start": 30.6262,
      "duration": 0.0031,
      "velocity": 107,
      "chip": "ym2612"
    },
    {
      "channel": 2,
      "note": 71,
      "start": 30.6267,
      "duration": 0.0032,
      "velocity": 107,
      "chip": "ym2612"
    },
    {
      "channel": 1,
      "note": 71,
      "start": 30.6293,
      "duration": 0.0028,
      "velocity": 107,
      "chip": "ym2612"
    },
    {
      "channel": 2,
      "note": 71,
      "start": 30.6299,
      "duration": 0.0028,
      "velocity": 107,
      "chip": "ym2612"
    },
    {
      "channel": 1,
      "note": 71,
      "start": 30.6321,
      "duration": 0.0031,
      "velocity": 107,
      "chip": "ym2612"
    },
    {
      "channel": 2,
      "note": 71,
      "start": 30.6327,
      "duration": 0.0031,
      "velocity": 107,
      "chip": "ym2612"
    },
    {
      "channel": 1,
      "note": 71,
      "start": 30.6352,
      "duration": 0.0032,
      "velocity": 107,
      "chip": "ym2612"
    },
    {
      "channel": 2,
      "note": 71,
      "start": 30.6358,
      "duration": 0.0031,
      "velocity": 107,
      "chip": "ym2612"
    },
    {
      "channel": 1,
      "note": 71,
      "start": 30.6384,
      "duration": 0.0036,
      "velocity": 107,
      "chip": "ym2612"
    },
    {
      "channel": 2,
      "note": 71,
      "start": 30.6389,
      "duration": 0.0041,
      "velocity": 107,
      "chip": "ym2612"
    },
    {
      "channel": 0,
      "note": 49,
      "start": 30.6418,
      "duration": 0.1423,
      "velocity": 95,
      "chip": "ym2612"
    },
    {
      "channel": 1,
      "note": 63,
      "start": 30.6425,
      "duration": 0.3155,
      "velocity": 107,
      "chip": "ym2612"
    },
    {
      "channel": 2,
      "note": 71,
      "start": 30.6429,
      "duration": 0.0047,
      "velocity": 107,
      "chip": "ym2612"
    },
    {
      "channel": 3,
      "note": 70,
      "start": 30.6436,
      "duration": 1.6649,
      "velocity": 89,
      "chip": "ym2612"
    },
    {
      "channel": 4,
      "note": 65,
      "start": 30.6442,
      "duration": 1.6648,
      "velocity": 89,
      "chip": "ym2612"
    },
    {
      "channel": 2,
      "note": 71,
      "start": 30.6477,
      "duration": 0.0028,
      "velocity": 107,
      "chip": "ym2612"
    },
    {
      "channel": 2,
      "note": 71,
      "start": 30.6505,
      "duration": 0.0045,
      "velocity": 107,
      "chip": "ym2612"
    },
    {
      "channel": 2,
      "note": 71,
      "start": 30.6549,
      "duration": 0.0143,
      "velocity": 107,
      "chip": "ym2612"
    },
    {
      "channel": 2,
      "note": 71,
      "start": 30.6693,
      "duration": 0.0146,
      "velocity": 107,
      "chip": "ym2612"
    },
    {
      "channel": 2,
      "note": 71,
      "start": 30.6839,
      "duration": 0.0141,
      "velocity": 107,
      "chip": "ym2612"
    },
    {
      "channel": 2,
      "note": 63,
      "start": 30.6984,
      "duration": 0.2751,
      "velocity": 107,
      "chip": "ym2612"
    },
    {
      "channel": 0,
      "note": 49,
      "start": 30.7845,
      "duration": 0.1728,
      "velocity": 95,
      "chip": "ym2612"
    },
    {
      "channel": 0,
      "note": 49,
      "start": 30.9578,
      "duration": 0.0294,
      "velocity": 95,
      "chip": "ym2612"
    },
    {
      "channel": 1,
      "note": 70,
      "start": 30.9584,
      "duration": 0.1911,
      "velocity": 107,
      "chip": "ym2612"
    },
    {
      "channel": 2,
      "note": 70,
      "start": 30.9739,
      "duration": 0.2317,
      "velocity": 107,
      "chip": "ym2612"
    },
    {
      "channel": 0,
      "note": 49,
      "start": 30.9876,
      "duration": 0.1614,
      "velocity": 95,
      "chip": "ym2612"
    },
    {
      "channel": 0,
      "note": 49,
      "start": 31.1495,
      "duration": 0.1422,
      "velocity": 95,
      "chip": "ym2612"
    },
    {
      "channel": 1,
      "note": 68,
      "start": 31.15,
      "duration": 0.3156,
      "velocity": 107,
      "chip": "ym2612"
    },
    {
      "channel": 2,
      "note": 68,
      "start": 31.2059,
      "duration": 0.275,
      "velocity": 107,
      "chip": "ym2612"
    },
    {
      "channel": 0,
      "note": 49,
      "start": 31.2921,
      "duration": 0.1729,
      "velocity": 95,
      "chip": "ym2612"
    },
    {
      "channel": 0,
      "note": 49,
      "start": 31.4655,
      "duration": 0.0292,
      "velocity": 95,
      "chip": "ym2612"
    },
    {
      "channel": 1,
      "note": 66,
      "start": 31.4661,
      "duration": 0.1912,
      "velocity": 107,
      "chip": "ym2612"
    },
    {
      "channel": 2,
      "note": 66,
      "start": 31.4813,
      "duration": 0.2317,
      "velocity": 107,
      "chip": "ym2612"
    },
    {
      "channel": 0,
      "note": 49,
      "start": 31.4951,
      "duration": 0.1616,
      "velocity": 95,
      "chip": "ym2612"
    },
    {
      "channel": 0,
      "note": 49,
      "start": 31.6572,
      "duration": 0.1421,
      "velocity": 95,
      "chip": "ym2612"
    },
    {
      "channel": 1,
      "note": 65,
      "start": 31.6577,
      "duration": 0.3154,
      "velocity": 107,
      "chip": "ym2612"
    },
    {
      "channel": 2,
      "note": 65,
      "start": 31.7135,
      "duration": 0.2754,
      "velocity": 107,
      "chip": "ym2612"
    },
    {
      "channel": 0,
      "note": 49,
      "start": 31.7996,
      "duration": 0.1729,
      "velocity": 95,
      "chip": "ym2612"
    },
    {
      "channel": 0,
      "note": 49,
      "start": 31.9729,
      "duration": 0.0298,
      "velocity": 95,
      "chip": "ym2612"
    },
    {
      "channel": 1,
      "note": 66,
      "start": 31.9736,
      "duration": 0.1913,
      "velocity": 107,
      "chip": "ym2612"
    },
    {
      "channel": 2,
      "note": 66,
      "start": 31.9893,
      "duration": 0.2318,
      "velocity": 107,
      "chip": "ym2612"
    },
    {
      "channel": 0,
      "note": 49,
      "start": 32.0032,
      "duration": 0.1611,
      "velocity": 95,
      "chip": "ym2612"
    },
    {
      "channel": 0,
      "note": 49,
      "start": 32.1647,
      "duration": 0.1424,
      "velocity": 95,
      "chip": "ym2612"
    },
    {
      "channel": 1,
      "note": 68,
      "start": 32.1654,
      "duration": 0.1424,
      "velocity": 107,
      "chip": "ym2612"
    },
    {
      "channel": 2,
      "note": 68,
      "start": 32.2215,
      "duration": 0.1023,
      "velocity": 107,
      "chip": "ym2612"
    },
    {
      "channel": 0,
      "note": 49,
      "start": 32.3076,
      "duration": 0.0297,
      "velocity": 95,
      "chip": "ym2612"
    },
    {
      "channel": 1,
      "note": 70,
      "start": 32.3082,
      "duration": 0.1914,
      "velocity": 107,
      "chip": "ym2612"
    },
    {
      "channel": 3,
      "note": 70,
      "start": 32.3089,
      "duration": 0.2276,
      "velocity": 89,
      "chip": "ym2612"
    },
    {
      "channel": 4,
      "note": 65,
      "start": 32.3095,
      "duration": 0.2276,
      "velocity": 89,
      "chip": "ym2612"
    },
    {
      "channel": 2,
      "note": 70,
      "start": 32.3241,
      "duration": 0.1929,
      "velocity": 107,
      "chip": "ym2612"
    },
    {
      "channel": 0,
      "note": 49,
      "start": 32.3377,
      "duration": 0.161,
      "velocity": 95,
      "chip": "ym2612"
    },
    {
      "channel": 0,
      "note": 49,
      "start": 32.4992,
      "duration": 0.0356,
      "velocity": 95,
      "chip": "ym2612"
    },
    {
      "channel": 1,
      "note": 70,
      "start": 32.4996,
      "duration": 0.003,
      "velocity": 107,
      "chip": "ym2612"
    },
    {
      "channel": 1,
      "note": 70,
      "start": 32.5026,
      "duration": 0.0024,
      "velocity": 107,
      "chip": "ym2612"
    },
    {
      "channel": 1,
      "note": 70,
      "start": 32.5051,
      "duration": 0.0029,
      "velocity": 107,
      "chip": "ym2612"
    },
    {
      "channel": 1,
      "note": 70,
      "start": 32.5079,
      "duration": 0.0029,
      "velocity": 107,
      "chip": "ym2612"
    },
    {
      "channel": 1,
      "note": 70,
      "start": 32.5108,
      "duration": 0.0027,
      "velocity": 107,
      "chip": "ym2612"
    },
    {
      "channel": 1,
      "note": 70,
      "start": 32.5135,
      "duration": 0.0029,
      "velocity": 107,
      "chip": "ym2612"
    },
    {
      "channel": 1,
      "note": 70,
      "start": 32.5163,
      "duration": 0.0033,
      "velocity": 107,
      "chip": "ym2612"
    },
    {
      "channel": 2,
      "note": 70,
      "start": 32.517,
      "duration": 0.0031,
      "velocity": 107,
      "chip": "ym2612"
    },
    {
      "channel": 1,
      "note": 70,
      "start": 32.5196,
      "duration": 0.0031,
      "velocity": 107,
      "chip": "ym2612"
    },
    {
      "channel": 2,
      "note": 70,
      "start": 32.5201,
      "duration": 0.0032,
      "velocity": 107,
      "chip": "ym2612"
    },
    {
      "channel": 1,
      "note": 70,
      "start": 32.5227,
      "duration": 0.0028,
      "velocity": 107,
      "chip": "ym2612"
    },
    {
      "channel": 2,
      "note": 70,
      "start": 32.5233,
      "duration": 0.0029,
      "velocity": 107,
      "chip": "ym2612"
    },
    {
      "channel": 1,
      "note": 70,
      "start": 32.5255,
      "duration": 0.0031,
      "velocity": 107,
      "chip": "ym2612"
    },
    {
      "channel": 2,
      "note": 70,
      "start": 32.5261,
      "duration": 0.0031,
      "velocity": 107,
      "chip": "ym2612"
    },
    {
      "channel": 1,
      "note": 70,
      "start": 32.5286,
      "duration": 0.0031,
      "velocity": 107,
      "chip": "ym2612"
    },
    {
      "channel": 2,
      "note": 70,
      "start": 32.5292,
      "duration": 0.0031,
      "velocity": 107,
      "chip": "ym2612"
    },
    {
      "channel": 1,
      "note": 70,
      "start": 32.5318,
      "duration": 0.0036,
      "velocity": 107,
      "chip": "ym2612"
    },
    {
      "channel": 2,
      "note": 70,
      "start": 32.5323,
      "duration": 0.0041,
      "velocity": 107,
      "chip": "ym2612"
    },
    {
      "channel": 0,
      "note": 47,
      "start": 32.5352,
      "duration": 0.1423,
      "velocity": 95,
      "chip": "ym2612"
    },
    {
      "channel": 1,
      "note": 61,
      "start": 32.5359,
      "duration": 0.3154,
      "velocity": 107,
      "chip": "ym2612"
    },
    {
      "channel": 2,
      "note": 70,
      "start": 32.5363,
      "duration": 0.0046,
      "velocity": 107,
      "chip": "ym2612"
    },
    {
      "channel": 3,
      "note": 71,
      "start": 32.537,
      "duration": 1.6653,
      "velocity": 89,
      "chip": "ym2612"
    },
    {
      "channel": 4,
      "note": 66,
      "start": 32.5376,
      "duration": 1.6653,
      "velocity": 89,
      "chip": "ym2612"
    },
    {
      "channel": 2,
      "note": 70,
      "start": 32.541,
      "duration": 0.0028,
      "velocity": 107,
      "chip": "ym2612"
    },
    {
      "channel": 2,
      "note": 70,
      "start": 32.5438,
      "duration": 0.0044,
      "velocity": 107,
      "chip": "ym2612"
    },
    {
      "channel": 2,
      "note": 70,
      "start": 32.5482,
      "duration": 0.0143,
      "velocity": 107,
      "chip": "ym2612"
    },
    {
      "channel": 2,
      "note": 70,
      "start": 32.5625,
      "duration": 0.0146,
      "velocity": 107,
      "chip": "ym2612"
    },
    {
      "channel": 2,
      "note": 70,
      "start": 32.5771,
      "duration": 0.0141,
      "velocity": 107,
      "chip": "ym2612"
    },
    {
      "channel": 2,
      "note": 61,
      "start": 32.5916,
      "duration": 0.2752,
      "velocity": 107,
      "chip": "ym2612"
    },
    {
      "channel": 0,
      "note": 47,
      "start": 32.6778,
      "duration": 0.1728,
      "velocity": 95,
      "chip": "ym2612"
    },
    {
      "channel": 0,
      "note": 47,
      "start": 32.8511,
      "duration": 0.0295,
      "velocity": 95,
      "chip": "ym2612"
    },
    {
      "channel": 1,
      "note": 68,
      "start": 32.8517,
      "duration": 0.1912,
      "velocity": 107,
      "chip": "ym2612"
    },
    {
      "channel": 2,
      "note": 68,
      "start": 32.8672,
      "duration": 0.2317,
      "velocity": 107,
      "chip": "ym2612"
    },
    {
      "channel": 0,
      "note": 47,
      "start": 32.8809,
      "duration": 0.1614,
      "velocity": 95,
      "chip": "ym2612"
    },
    {
      "channel": 0,
      "note": 47,
      "start": 33.0427,
      "duration": 0.1422,
      "velocity": 95,
      "chip": "ym2612"
    },
    {
      "channel": 1,
      "note": 66,
      "start": 33.0434,
      "duration": 0.3155,
      "velocity": 107,
      "chip": "ym2612"
    },
    {
      "channel": 2,
      "note": 66,
      "start": 33.0993,
      "duration": 0.275,
      "velocity": 107,
      "chip": "ym2612"
    },
    {
      "channel": 0,
      "note": 47,
      "start": 33.1854,
      "duration": 0.1729,
      "velocity": 95,
      "chip": "ym2612"
    },
    {
      "channel": 0,
      "note": 47,
      "start": 33.3588,
      "duration": 0.0294,
      "velocity": 95,
      "chip": "ym2612"
    },
    {
      "channel": 1,
      "note": 65,
      "start": 33.3593,
      "duration": 0.1916,
      "velocity": 107,
      "chip": "ym2612"
    },
    {
      "channel": 2,
      "note": 65,
      "start": 33.3748,
      "duration": 0.2319,
      "velocity": 107,
      "chip": "ym2612"
    },
    {
      "channel": 0,
      "note": 47,
      "start": 33.3886,
      "duration": 0.1617,
      "velocity": 95,
      "chip": "ym2612"
    },
    {
      "channel": 0,
      "note": 47,
      "start": 33.5508,
      "duration": 0.142,
      "velocity": 95,
      "chip": "ym2612"
    },
    {
      "channel": 1,
      "note": 63,
      "start": 33.5514,
      "duration": 0.3154,
      "velocity": 107,
      "chip": "ym2612"
    },
    {
      "channel": 2,
      "note": 63,
      "start": 33.6071,
      "duration": 0.2755,
      "velocity": 107,
      "chip": "ym2612"
    },
    {
      "channel": 0,
      "note": 47,
      "start": 33.6933,
      "duration": 0.1729,
      "velocity": 95,
      "chip": "ym2612"
    },
    {
      "channel": 0,
      "note": 47,
      "start": 33.8666,
      "duration": 0.0298,
      "velocity": 95,
      "chip": "ym2612"
    },
    {
      "channel": 1,
      "note": 65,
      "start": 33.8672,
      "duration": 0.1914,
      "velocity": 107,
      "chip": "ym2612"
    },
    {
      "channel": 2,
      "note": 65,
      "start": 33.8831,
      "duration": 0.2315,
      "velocity": 107,
      "chip": "ym2612"
    },
    {
      "channel": 0,
      "note": 47,
      "start": 33.8969,
      "duration": 0.1611,
      "velocity": 95,
      "chip": "ym2612"
    },
    {
      "channel": 0,
      "note": 47,
      "start": 34.0584,
      "duration": 0.1424,
      "velocity": 95,
      "chip": "ym2612"
    },
    {
      "channel": 1,
      "note": 66,
      "start": 34.0591,
      "duration": 0.1424,
      "velocity": 107,
      "chip": "ym2612"
    },
    {
      "channel": 2,
      "note": 66,
      "start": 34.1151,
      "duration": 0.1024,
      "velocity": 107,
      "chip": "ym2612"
    },
    {
      "channel": 0,
      "note": 47,
      "start": 34.2012,
      "duration": 0.0298,
      "velocity": 95,
      "chip": "ym2612"
    },
    {
      "channel": 1,
      "note": 68,
      "start": 34.2019,
      "duration": 0.1912,
      "velocity": 107,
      "chip": "ym2612"
    },
    {
      "channel": 3,
      "note": 71,
      "start": 34.2027,
      "duration": 0.2237,
      "velocity": 89,
      "chip": "ym2612"
    },
    {
      "channel": 4,
      "note": 66,
      "start": 34.2033,
      "duration": 0.2238,
      "velocity": 89,
      "chip": "ym2612"
    },
    {
      "channel": 2,
      "note": 68,
      "start": 34.2179,
      "duration": 0.1907,
      "velocity": 107,
      "chip": "ym2612"
    },
    {
      "channel": 0,
      "note": 47,
      "start": 34.2315,
      "duration": 0.1609,
      "velocity": 95,
      "chip": "ym2612"
    },
    {
      "channel": 0,
      "note": 47,
      "start": 34.3928,
      "duration": 0.0323,
      "velocity": 95,
      "chip": "ym2612"
    },
    {
      "channel": 1,
      "note": 63,
      "start": 34.3936,
      "duration": 0.0321,
      "velocity": 107,
      "chip": "ym2612"
    },
    {
      "channel": 2,
      "note": 63,
      "start": 34.409,
      "duration": 0.0726,
      "velocity": 107,
      "chip": "ym2612"
    },
    {
      "channel": 0,
      "note": 53,
      "start": 34.4256,
      "duration": 0.3159,
      "velocity": 95,
      "chip": "ym2612"
    },
    {
      "channel": 1,
      "note": 65,
      "start": 34.4261,
      "duration": 0.316,
      "velocity": 107,
      "chip": "ym2612"
    },
    {
      "channel": 3,
      "note": 70,
      "start": 34.4269,
      "duration": 0.5078,
      "velocity": 89,
      "chip": "ym2612"
    },
    {
      "channel": 4,
      "note": 65,
      "start": 34.4275,
      "duration": 0.5078,
      "velocity": 89,
      "chip": "ym2612"
    },
    {
      "channel": 2,
      "note": 65,
      "start": 34.482,
      "duration": 0.28,
      "velocity": 107,
      "chip": "ym2612"
    },
    {
      "channel": 0,
      "note": 53,
      "start": 34.7415,
      "duration": 0.0039,
      "velocity": 95,
      "chip": "ym2612"
    },
    {
      "channel": 1,
      "note": 65,
      "start": 34.7421,
      "duration": 0.0037,
      "velocity": 107,
      "chip": "ym2612"
    },
    {
      "channel": 0,
      "note": 53,
      "start": 34.7454,
      "duration": 0.0031,
      "velocity": 95,
      "chip": "ym2612"
    },
    {
      "channel": 1,
      "note": 65,
      "start": 34.7459,
      "duration": 0.0032,
      "velocity": 107,
      "chip": "ym2612"
    },
    {
      "channel": 0,
      "note": 53,
      "start": 34.7485,
      "duration": 0.0033,
      "velocity": 95,
      "chip": "ym2612"
    },
    {
      "channel": 1,
      "note": 65,
      "start": 34.7491,
      "duration": 0.0033,
      "velocity": 107,
      "chip": "ym2612"
    },
    {
      "channel": 0,
      "note": 53,
      "start": 34.7517,
      "duration": 0.0028,
      "velocity": 95,
      "chip": "ym2612"
    },
    {
      "channel": 1,
      "note": 65,
      "start": 34.7524,
      "duration": 0.0028,
      "velocity": 107,
      "chip": "ym2612"
    },
    {
      "channel": 0,
      "note": 53,
      "start": 34.7546,
      "duration": 0.0031,
      "velocity": 95,
      "chip": "ym2612"
    },
    {
      "channel": 1,
      "note": 65,
      "start": 34.7551,
      "duration": 0.003,
      "velocity": 107,
      "chip": "ym2612"
    },
    {
      "channel": 0,
      "note": 53,
      "start": 34.7577,
      "duration": 0.0031,
      "velocity": 95,
      "chip": "ym2612"
    },
    {
      "channel": 1,
      "note": 65,
      "start": 34.7581,
      "duration": 0.0033,
      "velocity": 107,
      "chip": "ym2612"
    },
    {
      "channel": 0,
      "note": 53,
      "start": 34.7608,
      "duration": 0.0037,
      "velocity": 95,
      "chip": "ym2612"
    },
    {
      "channel": 1,
      "note": 65,
      "start": 34.7614,
      "duration": 0.0037,
      "velocity": 107,
      "chip": "ym2612"
    },
    {
      "channel": 2,
      "note": 65,
      "start": 34.762,
      "duration": 0.0035,
      "velocity": 107,
      "chip": "ym2612"
    },
    {
      "channel": 0,
      "note": 53,
      "start": 34.7645,
      "duration": 0.0034,
      "velocity": 95,
      "chip": "ym2612"
    },
    {
      "channel": 1,
      "note": 65,
      "start": 34.7651,
      "duration": 0.0035,
      "velocity": 107,
      "chip": "ym2612"
    },
    {
      "channel": 2,
      "note": 65,
      "start": 34.7656,
      "duration": 0.0037,
      "velocity": 107,
      "chip": "ym2612"
    },
    {
      "channel": 0,
      "note": 53,
      "start": 34.7679,
      "duration": 0.0036,
      "velocity": 95,
      "chip": "ym2612"
    },
    {
      "channel": 1,
      "note": 65,
      "start": 34.7686,
      "duration": 0.0036,
      "velocity": 107,
      "chip": "ym2612"
    },
    {
      "channel": 2,
      "note": 65,
      "start": 34.7692,
      "duration": 0.0036,
      "velocity": 107,
      "chip": "ym2612"
    },
    {
      "channel": 0,
      "note": 53,
      "start": 34.7715,
      "duration": 0.0035,
      "velocity": 95,
      "chip": "ym2612"
    },
    {
      "channel": 1,
      "note": 65,
      "start": 34.7722,
      "duration": 0.0033,
      "velocity": 107,
      "chip": "ym2612"
    },
    {
      "channel": 2,
      "note": 65,
      "start": 34.7728,
      "duration": 0.0033,
      "velocity": 107,
      "chip": "ym2612"
    },
    {
      "channel": 0,
      "note": 53,
      "start": 34.775,
      "duration": 0.0035,
      "velocity": 95,
      "chip": "ym2612"
    },
    {
      "channel": 1,
      "note": 65,
      "start": 34.7754,
      "duration": 0.0037,
      "velocity": 107,
      "chip": "ym2612"
    },
    {
      "channel": 2,
      "note": 65,
      "start": 34.7761,
      "duration": 0.0036,
      "velocity": 107,
      "chip": "ym2612"
    },
    {
      "channel": 0,
      "note": 53,
      "start": 34.7785,
      "duration": 0.0031,
      "velocity": 95,
      "chip": "ym2612"
    },
    {
      "channel": 1,
      "note": 65,
      "start": 34.7792,
      "duration": 0.0031,
      "velocity": 107,
      "chip": "ym2612"
    },
    {
      "channel": 2,
      "note": 65,
      "start": 34.7796,
      "duration": 0.0032,
      "velocity": 107,
      "chip": "ym2612"
    },
    {
      "channel": 0,
      "note": 53,
      "start": 34.7816,
      "duration": 0.0037,
      "velocity": 95,
      "chip": "ym2612"
    },
    {
      "channel": 1,
      "note": 65,
      "start": 34.7823,
      "duration": 0.0037,
      "velocity": 107,
      "chip": "ym2612"
    },
    {
      "channel": 2,
      "note": 65,
      "start": 34.7828,
      "duration": 0.0037,
      "velocity": 107,
      "chip": "ym2612"
    },
    {
      "channel": 0,
      "note": 53,
      "start": 34.7853,
      "duration": 0.0035,
      "velocity": 95,
      "chip": "ym2612"
    },
    {
      "channel": 1,
      "note": 65,
      "start": 34.7859,
      "duration": 0.0034,
      "velocity": 107,
      "chip": "ym2612"
    },
    {
      "channel": 2,
      "note": 65,
      "start": 34.7865,
      "duration": 0.0034,
      "velocity": 107,
      "chip": "ym2612"
    },
    {
      "channel": 0,
      "note": 53,
      "start": 34.7888,
      "duration": 0.0146,
      "velocity": 95,
      "chip": "ym2612"
    },
    {
      "channel": 1,
      "note": 65,
      "start": 34.7893,
      "duration": 0.0147,
      "velocity": 107,
      "chip": "ym2612"
    },
    {
      "channel": 2,
      "note": 65,
      "start": 34.7899,
      "duration": 0.0147,
      "velocity": 107,
      "chip": "ym2612"
    },
    {
      "channel": 0,
      "note": 53,
      "start": 34.8034,
      "duration": 0.0144,
      "velocity": 95,
      "chip": "ym2612"
    },
    {
      "channel": 1,
      "note": 65,
      "start": 34.804,
      "duration": 0.0144,
      "velocity": 107,
      "chip": "ym2612"
    },
    {
      "channel": 2,
      "note": 65,
      "start": 34.8046,
      "duration": 0.0143,
      "velocity": 107,
      "chip": "ym2612"
    },
    {
      "channel": 0,
      "note": 53,
      "start": 34.8178,
      "duration": 0.0144,
      "velocity": 95,
      "chip": "ym2612"
    },
    {
      "channel": 1,
      "note": 65,
      "start": 34.8185,
      "duration": 0.0144,
      "velocity": 107,
      "chip": "ym2612"
    },
    {
      "channel": 2,
      "note": 65,
      "start": 34.8189,
      "duration": 0.0146,
      "velocity": 107,
      "chip": "ym2612"
    },
    {
      "channel": 0,
      "note": 53,
      "start": 34.8323,
      "duration": 0.0144,
      "velocity": 95,
      "chip": "ym2612"
    },
    {
      "channel": 1,
      "note": 65,
      "start": 34.8329,
      "duration": 0.0144,
      "velocity": 107,
      "chip": "ym2612"
    },
    {
      "channel": 2,
      "note": 65,
      "start": 34.8335,
      "duration": 0.0144,
      "velocity": 107,
      "chip": "ym2612"
    },
    {
      "channel": 0,
      "note": 53,
      "start": 34.8467,
      "duration": 0.0143,
      "velocity": 95,
      "chip": "ym2612"
    },
    {
      "channel": 1,
      "note": 65,
      "start": 34.8473,
      "duration": 0.0141,
      "velocity": 107,
      "chip": "ym2612"
    },
    {
      "channel": 2,
      "note": 65,
      "start": 34.8479,
      "duration": 0.0142,
      "velocity": 107,
      "chip": "ym2612"
    },
    {
      "channel": 0,
      "note": 53,
      "start": 34.861,
      "duration": 0.0146,
      "velocity": 95,
      "chip": "ym2612"
    },
    {
      "channel": 1,
      "note": 65,
      "start": 34.8615,
      "duration": 0.0148,
      "velocity": 107,
      "chip": "ym2612"
    },
    {
      "channel": 2,
      "note": 65,
      "start": 34.8621,
      "duration": 0.0146,
      "velocity": 107,
      "chip": "ym2612"
    },
    {
      "channel": 0,
      "note": 53,
      "start": 34.8756,
      "duration": 0.0144,
      "velocity": 95,
      "chip": "ym2612"
    },
    {
      "channel": 1,
      "note": 65,
      "start": 34.8762,
      "duration": 0.0144,
      "velocity": 107,
      "chip": "ym2612"
    },
    {
      "channel": 2,
      "note": 65,
      "start": 34.8767,
      "duration": 0.0146,
      "velocity": 107,
      "chip": "ym2612"
    },
    {
      "channel": 0,
      "note": 53,
      "start": 34.8901,
      "duration": 0.0144,
      "velocity": 95,
      "chip": "ym2612"
    },
    {
      "channel": 1,
      "note": 65,
      "start": 34.8907,
      "duration": 0.0144,
      "velocity": 107,
      "chip": "ym2612"
    },
    {
      "channel": 2,
      "note": 65,
      "start": 34.8913,
      "duration": 0.0144,
      "velocity": 107,
      "chip": "ym2612"
    },
    {
      "channel": 0,
      "note": 53,
      "start": 34.9045,
      "duration": 0.0142,
      "velocity": 95,
      "chip": "ym2612"
    },
    {
      "channel": 1,
      "note": 65,
      "start": 34.9051,
      "duration": 0.0142,
      "velocity": 107,
      "chip": "ym2612"
    },
    {
      "channel": 2,
      "note": 65,
      "start": 34.9057,
      "duration": 0.0142,
      "velocity": 107,
      "chip": "ym2612"
    },
    {
      "channel": 0,
      "note": 53,
      "start": 34.9188,
      "duration": 0.0142,
      "velocity": 95,
      "chip": "ym2612"
    },
    {
      "channel": 1,
      "note": 65,
      "start": 34.9193,
      "duration": 0.0142,
      "velocity": 107,
      "chip": "ym2612"
    },
    {
      "channel": 2,
      "note": 65,
      "start": 34.9199,
      "duration": 0.0146,
      "velocity": 107,
      "chip": "ym2612"
    },
    {
      "channel": 0,
      "note": 54,
      "start": 34.9334,
      "duration": 0.2295,
      "velocity": 95,
      "chip": "ym2612"
    },
    {
      "channel": 1,
      "note": 66,
      "start": 34.934,
      "duration": 0.1568,
      "velocity": 107,
      "chip": "ym2612"
    },
    {
      "channel": 2,
      "note": 65,
      "start": 34.9345,
      "duration": 0.0041,
      "velocity": 107,
      "chip": "ym2612"
    },
    {
      "channel": 3,
      "note": 70,
      "start": 34.9351,
      "duration": 0.379,
      "velocity": 89,
      "chip": "ym2612"
    },
    {
      "channel": 4,
      "note": 66,
      "start": 34.9358,
      "duration": 0.379,
      "velocity": 89,
      "chip": "ym2612"
    },
    {
      "channel": 2,
      "note": 65,
      "start": 34.9386,
      "duration": 0.0027,
      "velocity": 107,
      "chip": "ym2612"
    },
    {
      "channel": 2,
      "note": 65,
      "start": 34.9414,
      "duration": 0.0052,
      "velocity": 107,
      "chip": "ym2612"
    },
    {
      "channel": 2,
      "note": 65,
      "start": 34.9466,
      "duration": 0.0144,
      "velocity": 107,
      "chip": "ym2612"
    },
    {
      "channel": 2,
      "note": 65,
      "start": 34.961,
      "duration": 0.0144,
      "velocity": 107,
      "chip": "ym2612"
    },
    {
      "channel": 2,
      "note": 65,
      "start": 34.9754,
      "duration": 0.0141,
      "velocity": 107,
      "chip": "ym2612"
    },
    {
      "channel": 2,
      "note": 66,
      "start": 34.9899,
      "duration": 0.1734,
      "velocity": 107,
      "chip": "ym2612"
    },
    {
      "channel": 1,
      "note": 65,
      "start": 35.0913,
      "duration": 0.1474,
      "velocity": 107,
      "chip": "ym2612"
    },
    {
      "channel": 0,
      "note": 54,
      "start": 35.1629,
      "duration": 0.0037,
      "velocity": 95,
      "chip": "ym2612"
    },
    {
      "channel": 2,
      "note": 65,
      "start": 35.1638,
      "duration": 0.0925,
      "velocity": 107,
      "chip": "ym2612"
    },
    {
      "channel": 0,
      "note": 54,
      "start": 35.1666,
      "duration": 0.0022,
      "velocity": 95,
      "chip": "ym2612"
    },
    {
      "channel": 0,
      "note": 54,
      "start": 35.1688,
      "duration": 0.0029,
      "velocity": 95,
      "chip": "ym2612"
    },
    {
      "channel": 0,
      "note": 54,
      "start": 35.1717,
      "duration": 0.0029,
      "velocity": 95,
      "chip": "ym2612"
    },
    {
      "channel": 0,
      "note": 54,
      "start": 35.1745,
      "duration": 0.0029,
      "velocity": 95,
      "chip": "ym2612"
    },
    {
      "channel": 0,
      "note": 54,
      "start": 35.1774,
      "duration": 0.0027,
      "velocity": 95,
      "chip": "ym2612"
    },
    {
      "channel": 0,
      "note": 54,
      "start": 35.1801,
      "duration": 0.0029,
      "velocity": 95,
      "chip": "ym2612"
    },
    {
      "channel": 0,
      "note": 54,
      "start": 35.183,
      "duration": 0.0029,
      "velocity": 95,
      "chip": "ym2612"
    },
    {
      "channel": 0,
      "note": 54,
      "start": 35.1859,
      "duration": 0.0094,
      "velocity": 95,
      "chip": "ym2612"
    },
    {
      "channel": 0,
      "note": 54,
      "start": 35.1953,
      "duration": 0.0144,
      "velocity": 95,
      "chip": "ym2612"
    },
    {
      "channel": 0,
      "note": 54,
      "start": 35.2096,
      "duration": 0.0143,
      "velocity": 95,
      "chip": "ym2612"
    },
    {
      "channel": 0,
      "note": 54,
      "start": 35.224,
      "duration": 0.0146,
      "velocity": 95,
      "chip": "ym2612"
    },
    {
      "channel": 0,
      "note": 54,
      "start": 35.2385,
      "duration": 0.0036,
      "velocity": 95,
      "chip": "ym2612"
    },
    {
      "channel": 1,
      "note": 63,
      "start": 35.2392,
      "duration": 0.0742,
      "velocity": 107,
      "chip": "ym2612"
    },
    {
      "channel": 0,
      "note": 54,
      "start": 35.2422,
      "duration": 0.0029,
      "velocity": 95,
      "chip": "ym2612"
    },
    {
      "channel": 0,
      "note": 54,
      "start": 35.245,
      "duration": 0.0028,
      "velocity": 95,
      "chip": "ym2612"
    },
    {
      "channel": 0,
      "note": 54,
      "start": 35.2478,
      "duration": 0.0029,
      "velocity": 95,
      "chip": "ym2612"
    },
    {
      "channel": 0,
      "note": 54,
      "start": 35.2507,
      "duration": 0.0024,
      "velocity": 95,
      "chip": "ym2612"
    },
    {
      "channel": 0,
      "note": 54,
      "start": 35.253,
      "duration": 0.0029,
      "velocity": 95,
      "chip": "ym2612"
    },
    {
      "channel": 0,
      "note": 54,
      "start": 35.2559,
      "duration": 0.0029,
      "velocity": 95,
      "chip": "ym2612"
    },
    {
      "channel": 2,
      "note": 63,
      "start": 35.2568,
      "duration": 0.0728,
      "velocity": 107,
      "chip": "ym2612"
    },
    {
      "channel": 0,
      "note": 54,
      "start": 35.2588,
      "duration": 0.0027,
      "velocity": 95,
      "chip": "ym2612"
    },
    {
      "channel": 0,
      "note": 54,
      "start": 35.2615,
      "duration": 0.0083,
      "velocity": 95,
      "chip": "ym2612"
    },
    {
      "channel": 0,
      "note": 54,
      "start": 35.2698,
      "duration": 0.0144,
      "velocity": 95,
      "chip": "ym2612"
    },
    {
      "channel": 0,
      "note": 54,
      "start": 35.2843,
      "duration": 0.0144,
      "velocity": 95,
      "chip": "ym2612"
    },
    {
      "channel": 0,
      "note": 54,
      "start": 35.2987,
      "duration": 0.014,
      "velocity": 95,
      "chip": "ym2612"
    },
    {
      "channel": 0,
      "note": 49,
      "start": 35.3132,
      "duration": 0.1918,
      "velocity": 95,
      "chip": "ym2612"
    },
    {
      "channel": 1,
      "note": 61,
      "start": 35.3138,
      "duration": 0.1917,
      "velocity": 107,
      "chip": "ym2612"
    },
    {
      "channel": 3,
      "note": 70,
      "start": 35.3145,
      "duration": 0.3344,
      "velocity": 89,
      "chip": "ym2612"
    },
    {
      "channel": 4,
      "note": 65,
      "start": 35.3151,
      "duration": 0.3344,
      "velocity": 89,
      "chip": "ym2612"
    },
    {
      "channel": 2,
      "note": 61,
      "start": 35.33,
      "duration": 0.232,
      "velocity": 107,
      "chip": "ym2612"
    },
    {
      "channel": 0,
      "note": 49,
      "start": 35.5049,
      "duration": 0.004,
      "velocity": 95,
      "chip": "ym2612"
    },
    {
      "channel": 1,
      "note": 61,
      "start": 35.5055,
      "duration": 0.0041,
      "velocity": 107,
      "chip": "ym2612"
    },
    {
      "channel": 0,
      "note": 49,
      "start": 35.5089,
      "duration": 0.0031,
      "velocity": 95,
      "chip": "ym2612"
    },
    {
      "channel": 1,
      "note": 61,
      "start": 35.5096,
      "duration": 0.0029,
      "velocity": 107,
      "chip": "ym2612"
    },
    {
      "channel": 0,
      "note": 49,
      "start": 35.512,
      "duration": 0.0057,
      "velocity": 95,
      "chip": "ym2612"
    },
    {
      "channel": 1,
      "note": 61,
      "start": 35.5125,
      "duration": 0.0059,
      "velocity": 107,
      "chip": "ym2612"
    },
    {
      "channel": 0,
      "note": 49,
      "start": 35.5177,
      "duration": 0.0144,
      "velocity": 95,
      "chip": "ym2612"
    },
    {
      "channel": 1,
      "note": 61,
      "start": 35.5183,
      "duration": 0.0144,
      "velocity": 107,
      "chip": "ym2612"
    },
    {
      "channel": 0,
      "note": 49,
      "start": 35.5322,
      "duration": 0.0145,
      "velocity": 95,
      "chip": "ym2612"
    },
    {
      "channel": 1,
      "note": 61,
      "start": 35.5328,
      "duration": 0.0144,
      "velocity": 107,
      "chip": "ym2612"
    },
    {
      "channel": 0,
      "note": 49,
      "start": 35.5467,
      "duration": 0.0143,
      "velocity": 95,
      "chip": "ym2612"
    },
    {
      "channel": 1,
      "note": 61,
      "start": 35.5472,
      "duration": 0.0142,
      "velocity": 107,
      "chip": "ym2612"
    },
    {
      "channel": 0,
      "note": 49,
      "start": 35.561,
      "duration": 0.0146,
      "velocity": 95,
      "chip": "ym2612"
    },
    {
      "channel": 1,
      "note": 61,
      "start": 35.5614,
      "duration": 0.0148,
      "velocity": 107,
      "chip": "ym2612"
    },
    {
      "channel": 2,
      "note": 61,
      "start": 35.562,
      "duration": 0.0148,
      "velocity": 107,
      "chip": "ym2612"
    },
    {
      "channel": 0,
      "note": 49,
      "start": 35.5755,
      "duration": 0.0144,
      "velocity": 95,
      "chip": "ym2612"
    },
    {
      "channel": 1,
      "note": 61,
      "start": 35.5762,
      "duration": 0.0144,
      "velocity": 107,
      "chip": "ym2612"
    },
    {
      "channel": 2,
      "note": 61,
      "start": 35.5768,
      "duration": 0.0143,
      "velocity": 107,
      "chip": "ym2612"
    },
    {
      "channel": 0,
      "note": 49,
      "start": 35.59,
      "duration": 0.0144,
      "velocity": 95,
      "chip": "ym2612"
    },
    {
      "channel": 1,
      "note": 61,
      "start": 35.5906,
      "duration": 0.0144,
      "velocity": 107,
      "chip": "ym2612"
    },
    {
      "channel": 2,
      "note": 61,
      "start": 35.5911,
      "duration": 0.0146,
      "velocity": 107,
      "chip": "ym2612"
    },
    {
      "channel": 0,
      "note": 49,
      "start": 35.6044,
      "duration": 0.0144,
      "velocity": 95,
      "chip": "ym2612"
    },
    {
      "channel": 1,
      "note": 61,
      "start": 35.6051,
      "duration": 0.0144,
      "velocity": 107,
      "chip": "ym2612"
    },
    {
      "channel": 2,
      "note": 61,
      "start": 35.6057,
      "duration": 0.0144,
      "velocity": 107,
      "chip": "ym2612"
    },
    {
      "channel": 0,
      "note": 49,
      "start": 35.6189,
      "duration": 0.0143,
      "velocity": 95,
      "chip": "ym2612"
    },
    {
      "channel": 1,
      "note": 61,
      "start": 35.6195,
      "duration": 0.0141,
      "velocity": 107,
      "chip": "ym2612"
    },
    {
      "channel": 2,
      "note": 61,
      "start": 35.6201,
      "duration": 0.0141,
      "velocity": 107,
      "chip": "ym2612"
    },
    {
      "channel": 0,
      "note": 49,
      "start": 35.6332,
      "duration": 0.0141,
      "velocity": 95,
      "chip": "ym2612"
    },
    {
      "channel": 1,
      "note": 61,
      "start": 35.6336,
      "duration": 0.0143,
      "velocity": 107,
      "chip": "ym2612"
    },
    {
      "channel": 2,
      "note": 61,
      "start": 35.6343,
      "duration": 0.0144,
      "velocity": 107,
      "chip": "ym2612"
    },
    {
      "channel": 0,
      "note": 51,
      "start": 35.6477,
      "duration": 0.1918,
      "velocity": 95,
      "chip": "ym2612"
    },
    {
      "channel": 1,
      "note": 63,
      "start": 35.6484,
      "duration": 0.1918,
      "velocity": 107,
      "chip": "ym2612"
    },
    {
      "channel": 2,
      "note": 61,
      "start": 35.6487,
      "duration": 0.0043,
      "velocity": 107,
      "chip": "ym2612"
    },
    {
      "channel": 3,
      "note": 70,
      "start": 35.6493,
      "duration": 0.3246,
      "velocity": 89,
      "chip": "ym2612"
    },
    {
      "channel": 4,
      "note": 66,
      "start": 35.65,
      "duration": 0.3251,
      "velocity": 89,
      "chip": "ym2612"
    },
    {
      "channel": 2,
      "note": 61,
      "start": 35.6529,
      "duration": 0.0028,
      "velocity": 107,
      "chip": "ym2612"
    },
    {
      "channel": 2,
      "note": 61,
      "start": 35.6558,
      "duration": 0.0024,
      "velocity": 107,
      "chip": "ym2612"
    },
    {
      "channel": 2,
      "note": 61,
      "start": 35.6582,
      "duration": 0.0029,
      "velocity": 107,
      "chip": "ym2612"
    },
    {
      "channel": 2,
      "note": 61,
      "start": 35.6611,
      "duration": 0.0027,
      "velocity": 107,
      "chip": "ym2612"
    },
    {
      "channel": 2,
      "note": 61,
      "start": 35.6637,
      "duration": 0.0023,
      "velocity": 107,
      "chip": "ym2612"
    },
    {
      "channel": 2,
      "note": 63,
      "start": 35.6665,
      "duration": 0.1933,
      "velocity": 107,
      "chip": "ym2612"
    },
    {
      "channel": 0,
      "note": 51,
      "start": 35.8395,
      "duration": 0.0038,
      "velocity": 95,
      "chip": "ym2612"
    },
    {
      "channel": 1,
      "note": 63,
      "start": 35.8402,
      "duration": 0.0036,
      "velocity": 107,
      "chip": "ym2612"
    },
    {
      "channel": 0,
      "note": 51,
      "start": 35.8434,
      "duration": 0.003,
      "velocity": 95,
      "chip": "ym2612"
    },
    {
      "channel": 1,
      "note": 63,
      "start": 35.8438,
      "duration": 0.0032,
      "velocity": 107,
      "chip": "ym2612"
    },
    {
      "channel": 0,
      "note": 51,
      "start": 35.8464,
      "duration": 0.0028,
      "velocity": 95,
      "chip": "ym2612"
    },
    {
      "channel": 1,
      "note": 63,
      "start": 35.847,
      "duration": 0.0028,
      "velocity": 107,
      "chip": "ym2612"
    },
    {
      "channel": 0,
      "note": 51,
      "start": 35.8492,
      "duration": 0.0032,
      "velocity": 95,
      "chip": "ym2612"
    },
    {
      "channel": 1,
      "note": 63,
      "start": 35.8498,
      "duration": 0.0032,
      "velocity": 107,
      "chip": "ym2612"
    },
    {
      "channel": 0,
      "note": 51,
      "start": 35.8523,
      "duration": 0.0031,
      "velocity": 95,
      "chip": "ym2612"
    },
    {
      "channel": 1,
      "note": 63,
      "start": 35.853,
      "duration": 0.003,
      "velocity": 107,
      "chip": "ym2612"
    },
    {
      "channel": 0,
      "note": 51,
      "start": 35.8554,
      "duration": 0.0031,
      "velocity": 95,
      "chip": "ym2612"
    },
    {
      "channel": 1,
      "note": 63,
      "start": 35.8559,
      "duration": 0.0032,
      "velocity": 107,
      "chip": "ym2612"
    },
    {
      "channel": 0,
      "note": 51,
      "start": 35.8585,
      "duration": 0.0036,
      "velocity": 95,
      "chip": "ym2612"
    },
    {
      "channel": 1,
      "note": 63,
      "start": 35.8592,
      "duration": 0.0036,
      "velocity": 107,
      "chip": "ym2612"
    },
    {
      "channel": 2,
      "note": 63,
      "start": 35.8598,
      "duration": 0.0035,
      "velocity": 107,
      "chip": "ym2612"
    },
    {
      "channel": 0,
      "note": 51,
      "start": 35.8622,
      "duration": 0.0034,
      "velocity": 95,
      "chip": "ym2612"
    },
    {
      "channel": 1,
      "note": 63,
      "start": 35.8628,
      "duration": 0.0035,
      "velocity": 107,
      "chip": "ym2612"
    },
    {
      "channel": 2,
      "note": 63,
      "start": 35.8633,
      "duration": 0.0036,
      "velocity": 107,
      "chip": "ym2612"
    },
    {
      "channel": 0,
      "note": 51,
      "start": 35.8656,
      "duration": 0.0036,
      "velocity": 95,
      "chip": "ym2612"
    },
    {
      "channel": 1,
      "note": 63,
      "start": 35.8663,
      "duration": 0.0036,
      "velocity": 107,
      "chip": "ym2612"
    },
    {
      "channel": 2,
      "note": 63,
      "start": 35.8669,
      "duration": 0.0036,
      "velocity": 107,
      "chip": "ym2612"
    },
    {
      "channel": 0,
      "note": 51,
      "start": 35.8693,
      "duration": 0.003,
      "velocity": 95,
      "chip": "ym2612"
    },
    {
      "channel": 1,
      "note": 63,
      "start": 35.8699,
      "duration": 0.0029,
      "velocity": 107,
      "chip": "ym2612"
    },
    {
      "channel": 2,
      "note": 63,
      "start": 35.8705,
      "duration": 0.0029,
      "velocity": 107,
      "chip": "ym2612"
    },
    {
      "channel": 0,
      "note": 51,
      "start": 35.8723,
      "duration": 0.0036,
      "velocity": 95,
      "chip": "ym2612"
    },
    {
      "channel": 1,
      "note": 63,
      "start": 35.8728,
      "duration": 0.0036,
      "velocity": 107,
      "chip": "ym2612"
    },
    {
      "channel": 2,
      "note": 63,
      "start": 35.8734,
      "duration": 0.0036,
      "velocity": 107,
      "chip": "ym2612"
    },
    {
      "channel": 0,
      "note": 51,
      "start": 35.8759,
      "duration": 0.0061,
      "velocity": 95,
      "chip": "ym2612"
    },
    {
      "channel": 1,
      "note": 63,
      "start": 35.8764,
      "duration": 0.0062,
      "velocity": 107,
      "chip": "ym2612"
    },
    {
      "channel": 2,
      "note": 63,
      "start": 35.877,
      "duration": 0.0063,
      "velocity": 107,
      "chip": "ym2612"
    },
    {
      "channel": 0,
      "note": 51,
      "start": 35.882,
      "duration": 0.0044,
      "velocity": 95,
      "chip": "ym2612"
    },
    {
      "channel": 1,
      "note": 63,
      "start": 35.8827,
      "duration": 0.0044,
      "velocity": 107,
      "chip": "ym2612"
    },
    {
      "channel": 2,
      "note": 63,
      "start": 35.8833,
      "duration": 0.0044,
      "velocity": 107,
      "chip": "ym2612"
    },
    {
      "channel": 0,
      "note": 51,
      "start": 35.8864,
      "duration": 0.0035,
      "velocity": 95,
      "chip": "ym2612"
    },
    {
      "channel": 1,
      "note": 63,
      "start": 35.8871,
      "duration": 0.0033,
      "velocity": 107,
      "chip": "ym2612"
    },
    {
      "channel": 2,
      "note": 63,
      "start": 35.8876,
      "duration": 0.0033,
      "velocity": 107,
      "chip": "ym2612"
    },
    {
      "channel": 0,
      "note": 51,
      "start": 35.8899,
      "duration": 0.0035,
      "velocity": 95,
      "chip": "ym2612"
    },
    {
      "channel": 1,
      "note": 63,
      "start": 35.8903,
      "duration": 0.0037,
      "velocity": 107,
      "chip": "ym2612"
    },
    {
      "channel": 2,
      "note": 63,
      "start": 35.891,
      "duration": 0.0036,
      "velocity": 107,
      "chip": "ym2612"
    },
    {
      "channel": 0,
      "note": 51,
      "start": 35.8934,
      "duration": 0.0037,
      "velocity": 95,
      "chip": "ym2612"
    },
    {
      "channel": 1,
      "note": 63,
      "start": 35.894,
      "duration": 0.0037,
      "velocity": 107,
      "chip": "ym2612"
    },
    {
      "channel": 2,
      "note": 63,
      "start": 35.8946,
      "duration": 0.0035,
      "velocity": 107,
      "chip": "ym2612"
    },
    {
      "channel": 0,
      "note": 51,
      "start": 35.8971,
      "duration": 0.0035,
      "velocity": 95,
      "chip": "ym2612"
    },
    {
      "channel": 1,
      "note": 63,
      "start": 35.8977,
      "duration": 0.0035,
      "velocity": 107,
      "chip": "ym2612"
    },
    {
      "channel": 2,
      "note": 63,
      "start": 35.8981,
      "duration": 0.0037,
      "velocity": 107,
      "chip": "ym2612"
    },
    {
      "channel": 0,
      "note": 51,
      "start": 35.9006,
      "duration": 0.0032,
      "velocity": 95,
      "chip": "ym2612"
    },
    {
      "channel": 1,
      "note": 63,
      "start": 35.9012,
      "duration": 0.0032,
      "velocity": 107,
      "chip": "ym2612"
    },
    {
      "channel": 2,
      "note": 63,
      "start": 35.9018,
      "duration": 0.0032,
      "velocity": 107,
      "chip": "ym2612"
    },
    {
      "channel": 0,
      "note": 51,
      "start": 35.9037,
      "duration": 0.0035,
      "velocity": 95,
      "chip": "ym2612"
    },
    {
      "channel": 1,
      "note": 63,
      "start": 35.9044,
      "duration": 0.0033,
      "velocity": 107,
      "chip": "ym2612"
    },
    {
      "channel": 2,
      "note": 63,
      "start": 35.905,
      "duration": 0.0033,
      "velocity": 107,
      "chip": "ym2612"
    },
    {
      "channel": 0,
      "note": 51,
      "start": 35.9072,
      "duration": 0.0035,
      "velocity": 95,
      "chip": "ym2612"
    },
    {
      "channel": 1,
      "note": 63,
      "start": 35.9077,
      "duration": 0.0037,
      "velocity": 107,
      "chip": "ym2612"
    },
    {
      "channel": 2,
      "note": 63,
      "start": 35.9083,
      "duration": 0.0035,
      "velocity": 107,
      "chip": "ym2612"
    },
    {
      "channel": 0,
      "note": 51,
      "start": 35.9107,
      "duration": 0.0035,
      "velocity": 95,
      "chip": "ym2612"
    },
    {
      "channel": 1,
      "note": 63,
      "start": 35.9114,
      "duration": 0.0034,
      "velocity": 107,
      "chip": "ym2612"
    },
    {
      "channel": 2,
      "note": 63,
      "start": 35.9118,
      "duration": 0.0036,
      "velocity": 107,
      "chip": "ym2612"
    },
    {
      "channel": 0,
      "note": 51,
      "start": 35.9142,
      "duration": 0.0037,
      "velocity": 95,
      "chip": "ym2612"
    },
    {
      "channel": 1,
      "note": 63,
      "start": 35.9148,
      "duration": 0.0037,
      "velocity": 107,
      "chip": "ym2612"
    },
    {
      "channel": 2,
      "note": 63,
      "start": 35.9154,
      "duration": 0.0037,
      "velocity": 107,
      "chip": "ym2612"
    },
    {
      "channel": 0,
      "note": 51,
      "start": 35.9179,
      "duration": 0.0035,
      "velocity": 95,
      "chip": "ym2612"
    },
    {
      "channel": 1,
      "note": 63,
      "start": 35.9185,
      "duration": 0.0033,
      "velocity": 107,
      "chip": "ym2612"
    },
    {
      "channel": 2,
      "note": 63,
      "start": 35.9191,
      "duration": 0.0034,
      "velocity": 107,
      "chip": "ym2612"
    },
    {
      "channel": 0,
      "note": 51,
      "start": 35.9214,
      "duration": 0.0035,
      "velocity": 95,
      "chip": "ym2612"
    },
    {
      "channel": 1,
      "note": 63,
      "start": 35.9219,
      "duration": 0.0037,
      "velocity": 107,
      "chip": "ym2612"
    },
    {
      "channel": 2,
      "note": 63,
      "start": 35.9225,
      "duration": 0.0037,
      "velocity": 107,
      "chip": "ym2612"
    },
    {
      "channel": 0,
      "note": 51,
      "start": 35.9249,
      "duration": 0.0044,
      "velocity": 95,
      "chip": "ym2612"
    },
    {
      "channel": 1,
      "note": 63,
      "start": 35.9256,
      "duration": 0.0044,
      "velocity": 107,
      "chip": "ym2612"
    },
    {
      "channel": 2,
      "note": 63,
      "start": 35.9262,
      "duration": 0.0043,
      "velocity": 107,
      "chip": "ym2612"
    },
    {
      "channel": 0,
      "note": 51,
      "start": 35.9293,
      "duration": 0.0031,
      "velocity": 95,
      "chip": "ym2612"
    },
    {
      "channel": 1,
      "note": 63,
      "start": 35.93,
      "duration": 0.0031,
      "velocity": 107,
      "chip": "ym2612"
    },
    {
      "channel": 2,
      "note": 63,
      "start": 35.9305,
      "duration": 0.0032,
      "velocity": 107,
      "chip": "ym2612"
    },
    {
      "channel": 0,
      "note": 51,
      "start": 35.9324,
      "duration": 0.0037,
      "velocity": 95,
      "chip": "ym2612"
    },
    {
      "channel": 1,
      "note": 63,
      "start": 35.9331,
      "duration": 0.0037,
      "velocity": 107,
      "chip": "ym2612"
    },
    {
      "channel": 2,
      "note": 63,
      "start": 35.9336,
      "duration": 0.0037,
      "velocity": 107,
      "chip": "ym2612"
    },
    {
      "channel": 0,
      "note": 51,
      "start": 35.9361,
      "duration": 0.0035,
      "velocity": 95,
      "chip": "ym2612"
    },
    {
      "channel": 1,
      "note": 63,
      "start": 35.9368,
      "duration": 0.0033,
      "velocity": 107,
      "chip": "ym2612"
    },
    {
      "channel": 2,
      "note": 63,
      "start": 35.9373,
      "duration": 0.0034,
      "velocity": 107,
      "chip": "ym2612"
    },
    {
      "channel": 0,
      "note": 51,
      "start": 35.9396,
      "duration": 0.0034,
      "velocity": 95,
      "chip": "ym2612"
    },
    {
      "channel": 1,
      "note": 63,
      "start": 35.94,
      "duration": 0.0036,
      "velocity": 107,
      "chip": "ym2612"
    },
    {
      "channel": 2,
      "note": 63,
      "start": 35.9407,
      "duration": 0.0034,
      "velocity": 107,
      "chip": "ym2612"
    },
    {
      "channel": 0,
      "note": 51,
      "start": 35.943,
      "duration": 0.0035,
      "velocity": 95,
      "chip": "ym2612"
    },
    {
      "channel": 1,
      "note": 63,
      "start": 35.9436,
      "duration": 0.0035,
      "velocity": 107,
      "chip": "ym2612"
    },
    {
      "channel": 2,
      "note": 63,
      "start": 35.9441,
      "duration": 0.0036,
      "velocity": 107,
      "chip": "ym2612"
    },
    {
      "channel": 0,
      "note": 51,
      "start": 35.9465,
      "duration": 0.0037,
      "velocity": 95,
      "chip": "ym2612"
    },
    {
      "channel": 1,
      "note": 63,
      "start": 35.9471,
      "duration": 0.0037,
      "velocity": 107,
      "chip": "ym2612"
    },
    {
      "channel": 2,
      "note": 63,
      "start": 35.9477,
      "duration": 0.0037,
      "velocity": 107,
      "chip": "ym2612"
    },
    {
      "channel": 0,
      "note": 51,
      "start": 35.9502,
      "duration": 0.0035,
      "velocity": 95,
      "chip": "ym2612"
    },
    {
      "channel": 1,
      "note": 63,
      "start": 35.9508,
      "duration": 0.0033,
      "velocity": 107,
      "chip": "ym2612"
    },
    {
      "channel": 2,
      "note": 63,
      "start": 35.9514,
      "duration": 0.0034,
      "velocity": 107,
      "chip": "ym2612"
    },
    {
      "channel": 0,
      "note": 51,
      "start": 35.9537,
      "duration": 0.0031,
      "velocity": 95,
      "chip": "ym2612"
    },
    {
      "channel": 1,
      "note": 63,
      "start": 35.9541,
      "duration": 0.0032,
      "velocity": 107,
      "chip": "ym2612"
    },
    {
      "channel": 2,
      "note": 63,
      "start": 35.9548,
      "duration": 0.0033,
      "velocity": 107,
      "chip": "ym2612"
    },
    {
      "channel": 0,
      "note": 51,
      "start": 35.9568,
      "duration": 0.0037,
      "velocity": 95,
      "chip": "ym2612"
    },
    {
      "channel": 1,
      "note": 63,
      "start": 35.9574,
      "duration": 0.0037,
      "velocity": 107,
      "chip": "ym2612"
    },
    {
      "channel": 2,
      "note": 63,
      "start": 35.958,
      "duration": 0.0035,
      "velocity": 107,
      "chip": "ym2612"
    },
    {
      "channel": 0,
      "note": 51,
      "start": 35.9604,
      "duration": 0.0035,
      "velocity": 95,
      "chip": "ym2612"
    },
    {
      "channel": 1,
      "note": 63,
      "start": 35.9611,
      "duration": 0.0035,
      "velocity": 107,
      "chip": "ym2612"
    },
    {
      "channel": 2,
      "note": 63,
      "start": 35.9615,
      "duration": 0.0037,
      "velocity": 107,
      "chip": "ym2612"
    },
    {
      "channel": 0,
      "note": 51,
      "start": 35.9639,
      "duration": 0.0041,
      "velocity": 95,
      "chip": "ym2612"
    },
    {
      "channel": 1,
      "note": 63,
      "start": 35.9645,
      "duration": 0.0061,
      "velocity": 103,
      "chip": "ym2612"
    },
    {
      "channel": 2,
      "note": 63,
      "start": 35.9652,
      "duration": 0.0076,
      "velocity": 103,
      "chip": "ym2612"
    },
    {
      "channel": 0,
      "note": 51,
      "start": 35.9684,
      "duration": 0.0356,
      "velocity": 95,
      "chip": "ym2612"
    },
    {
      "channel": 2,
      "note": 63,
      "start": 35.9732,
      "duration": 0.0588,
      "velocity": 103,
      "chip": "ym2612"
    },
    {
      "channel": 3,
      "note": 70,
      "start": 35.9744,
      "duration": 0.2496,
      "velocity": 89,
      "chip": "ym2612"
    },
    {
      "channel": 4,
      "note": 75,
      "start": 35.9756,
      "duration": 0.249,
      "velocity": 89,
      "chip": "ym2612"
    },
    {
      "channel": 0,
      "note": 51,
      "start": 36.0044,
      "duration": 0.0261,
      "velocity": 95,
      "chip": "ym2612"
    },
    {
      "channel": 0,
      "note": 51,
      "start": 36.0309,
      "duration": 0.0334,
      "velocity": 95,
      "chip": "ym2612"
    },
    {
      "channel": 1,
      "note": 63,
      "start": 36.0315,
      "duration": 0.1912,
      "velocity": 103,
      "chip": "ym2612"
    },
    {
      "channel": 2,
      "note": 63,
      "start": 36.032,
      "duration": 0.0034,
      "velocity": 103,
      "chip": "ym2612"
    },
    {
      "channel": 2,
      "note": 63,
      "start": 36.0353,
      "duration": 0.0026,
      "velocity": 103,
      "chip": "ym2612"
    },
    {
      "channel": 2,
      "note": 63,
      "start": 36.0379,
      "duration": 0.0029,
      "velocity": 103,
      "chip": "ym2612"
    },
    {
      "channel": 2,
      "note": 63,
      "start": 36.0408,
      "duration": 0.0024,
      "velocity": 103,
      "chip": "ym2612"
    },
    {
      "channel": 2,
      "note": 63,
      "start": 36.0432,
      "duration": 0.0028,
      "velocity": 103,
      "chip": "ym2612"
    },
    {
      "channel": 2,
      "note": 63,
      "start": 36.0461,
      "duration": 0.0027,
      "velocity": 103,
      "chip": "ym2612"
    },
    {
      "channel": 2,
      "note": 63,
      "start": 36.0488,
      "duration": 0.0029,
      "velocity": 103,
      "chip": "ym2612"
    },
    {
      "channel": 2,
      "note": 63,
      "start": 36.0517,
      "duration": 0.0029,
      "velocity": 103,
      "chip": "ym2612"
    },
    {
      "channel": 2,
      "note": 63,
      "start": 36.0545,
      "duration": 0.0029,
      "velocity": 103,
      "chip": "ym2612"
    },
    {
      "channel": 2,
      "note": 63,
      "start": 36.0574,
      "duration": 0.0028,
      "velocity": 103,
      "chip": "ym2612"
    },
    {
      "channel": 2,
      "note": 63,
      "start": 36.0602,
      "duration": 0.0027,
      "velocity": 103,
      "chip": "ym2612"
    },
    {
      "channel": 2,
      "note": 63,
      "start": 36.0629,
      "duration": 0.0024,
      "velocity": 103,
      "chip": "ym2612"
    },
    {
      "channel": 0,
      "note": 51,
      "start": 36.0647,
      "duration": 0.1574,
      "velocity": 95,
      "chip": "ym2612"
    },
    {
      "channel": 2,
      "note": 63,
      "start": 36.0653,
      "duration": 0.0026,
      "velocity": 103,
      "chip": "ym2612"
    },
    {
      "channel": 2,
      "note": 63,
      "start": 36.0679,
      "duration": 0.0107,
      "velocity": 103,
      "chip": "ym2612"
    },
    {
      "channel": 2,
      "note": 63,
      "start": 36.0786,
      "duration": 0.0143,
      "velocity": 103,
      "chip": "ym2612"
    },
    {
      "channel": 2,
      "note": 63,
      "start": 36.0929,
      "duration": 0.0146,
      "velocity": 103,
      "chip": "ym2612"
    },
    {
      "channel": 2,
      "note": 63,
      "start": 36.1076,
      "duration": 0.0144,
      "velocity": 103,
      "chip": "ym2612"
    },
    {
      "channel": 2,
      "note": 63,
      "start": 36.122,
      "duration": 0.0144,
      "velocity": 103,
      "chip": "ym2612"
    },
    {
      "channel": 2,
      "note": 63,
      "start": 36.1365,
      "duration": 0.0144,
      "velocity": 103,
      "chip": "ym2612"
    },
    {
      "channel": 2,
      "note": 63,
      "start": 36.1509,
      "duration": 0.0143,
      "velocity": 103,
      "chip": "ym2612"
    },
    {
      "channel": 2,
      "note": 63,
      "start": 36.1651,
      "duration": 0.0146,
      "velocity": 103,
      "chip": "ym2612"
    },
    {
      "channel": 2,
      "note": 63,
      "start": 36.1798,
      "duration": 0.0144,
      "velocity": 103,
      "chip": "ym2612"
    },
    {
      "channel": 2,
      "note": 63,
      "start": 36.1942,
      "duration": 0.0144,
      "velocity": 103,
      "chip": "ym2612"
    },
    {
      "channel": 2,
      "note": 63,
      "start": 36.2087,
      "duration": 0.0147,
      "velocity": 103,
      "chip": "ym2612"
    },
    {
      "channel": 0,
      "note": 51,
      "start": 36.2226,
      "duration": 0.1423,
      "velocity": 95,
      "chip": "ym2612"
    },
    {
      "channel": 1,
      "note": 65,
      "start": 36.2232,
      "duration": 0.3156,
      "velocity": 103,
      "chip": "ym2612"
    },
    {
      "channel": 2,
      "note": 65,
      "start": 36.2238,
      "duration": 0.316,
      "velocity": 103,
      "chip": "ym2612"
    },
    {
      "channel": 3,
      "note": 73,
      "start": 36.2244,
      "duration": 0.508,
      "velocity": 89,
      "chip": "ym2612"
    },
    {
      "channel": 4,
      "note": 77,
      "start": 36.225,
      "duration": 0.508,
      "velocity": 89,
      "chip": "ym2612"
    },
    {
      "channel": 0,
      "note": 51,
      "start": 36.3653,
      "duration": 0.173,
      "velocity": 95,
      "chip": "ym2612"
    },
    {
      "channel": 0,
      "note": 51,
      "start": 36.5387,
      "duration": 0.0336,
      "velocity": 95,
      "chip": "ym2612"
    },
    {
      "channel": 1,
      "note": 66,
      "start": 36.5392,
      "duration": 0.192,
      "velocity": 103,
      "chip": "ym2612"
    },
    {
      "channel": 2,
      "note": 65,
      "start": 36.5398,
      "duration": 0.0034,
      "velocity": 103,
      "chip": "ym2612"
    },
    {
      "channel": 2,
      "note": 65,
      "start": 36.5431,
      "duration": 0.0023,
      "velocity": 103,
      "chip": "ym2612"
    },
    {
      "channel": 2,
      "note": 65,
      "start": 36.5454,
      "duration": 0.0028,
      "velocity": 103,
      "chip": "ym2612"
    },
    {
      "channel": 2,
      "note": 65,
      "start": 36.5482,
      "duration": 0.0029,
      "velocity": 103,
      "chip": "ym2612"
    },
    {
      "channel": 2,
      "note": 65,
      "start": 36.5511,
      "duration": 0.0029,
      "velocity": 103,
      "chip": "ym2612"
    },
    {
      "channel": 2,
      "note": 65,
      "start": 36.554,
      "duration": 0.0027,
      "velocity": 103,
      "chip": "ym2612"
    },
    {
      "channel": 2,
      "note": 65,
      "start": 36.5568,
      "duration": 0.0028,
      "velocity": 103,
      "chip": "ym2612"
    },
    {
      "channel": 2,
      "note": 65,
      "start": 36.5596,
      "duration": 0.0029,
      "velocity": 103,
      "chip": "ym2612"
    },
    {
      "channel": 2,
      "note": 65,
      "start": 36.5625,
      "duration": 0.0029,
      "velocity": 103,
      "chip": "ym2612"
    },
    {
      "channel": 2,
      "note": 65,
      "start": 36.5654,
      "duration": 0.0024,
      "velocity": 103,
      "chip": "ym2612"
    },
    {
      "channel": 2,
      "note": 65,
      "start": 36.5677,
      "duration": 0.0027,
      "velocity": 103,
      "chip": "ym2612"
    },
    {
      "channel": 2,
      "note": 65,
      "start": 36.5704,
      "duration": 0.0029,
      "velocity": 103,
      "chip": "ym2612"
    },
    {
      "channel": 0,
      "note": 51,
      "start": 36.5727,
      "duration": 0.1578,
      "velocity": 95,
      "chip": "ym2612"
    },
    {
      "channel": 2,
      "note": 65,
      "start": 36.5733,
      "duration": 0.0026,
      "velocity": 103,
      "chip": "ym2612"
    },
    {
      "channel": 2,
      "note": 65,
      "start": 36.5759,
      "duration": 0.0107,
      "velocity": 103,
      "chip": "ym2612"
    },
    {
      "channel": 2,
      "note": 65,
      "start": 36.5866,
      "duration": 0.0144,
      "velocity": 103,
      "chip": "ym2612"
    },
    {
      "channel": 2,
      "note": 65,
      "start": 36.601,
      "duration": 0.0146,
      "velocity": 103,
      "chip": "ym2612"
    },
    {
      "channel": 2,
      "note": 65,
      "start": 36.6155,
      "duration": 0.0144,
      "velocity": 103,
      "chip": "ym2612"
    },
    {
      "channel": 2,
      "note": 65,
      "start": 36.63,
      "duration": 0.0144,
      "velocity": 103,
      "chip": "ym2612"
    },
    {
      "channel": 2,
      "note": 65,
      "start": 36.6444,
      "duration": 0.0144,
      "velocity": 103,
      "chip": "ym2612"
    },
    {
      "channel": 2,
      "note": 65,
      "start": 36.6589,
      "duration": 0.0143,
      "velocity": 103,
      "chip": "ym2612"
    },
    {
      "channel": 2,
      "note": 65,
      "start": 36.6732,
      "duration": 0.0146,
      "velocity": 103,
      "chip": "ym2612"
    },
    {
      "channel": 2,
      "note": 65,
      "start": 36.6877,
      "duration": 0.0144,
      "velocity": 103,
      "chip": "ym2612"
    },
    {
      "channel": 2,
      "note": 65,
      "start": 36.7022,
      "duration": 0.0145,
      "velocity": 103,
      "chip": "ym2612"
    },
    {
      "channel": 2,
      "note": 65,
      "start": 36.7167,
      "duration": 0.0151,
      "velocity": 103,
      "chip": "ym2612"
    },
    {
      "channel": 0,
      "note": 51,
      "start": 36.7309,
      "duration": 0.1419,
      "velocity": 95,
      "chip": "ym2612"
    },
    {
      "channel": 1,
      "note": 68,
      "start": 36.7316,
      "duration": 0.3152,
      "velocity": 103,
      "chip": "ym2612"
    },
    {
      "channel": 2,
      "note": 66,
      "start": 36.7322,
      "duration": 0.3155,
      "velocity": 103,
      "chip": "ym2612"
    },
    {
      "channel": 3,
      "note": 75,
      "start": 36.7328,
      "duration": 0.5073,
      "velocity": 89,
      "chip": "ym2612"
    },
    {
      "channel": 4,
      "note": 78,
      "start": 36.7335,
      "duration": 0.5074,
      "velocity": 89,
      "chip": "ym2612"
    },
    {
      "channel": 0,
      "note": 51,
      "start": 36.8733,
      "duration": 0.1729,
      "velocity": 95,
      "chip": "ym2612"
    },
    {
      "channel": 0,
      "note": 51,
      "start": 37.0466,
      "duration": 0.0341,
      "velocity": 95,
      "chip": "ym2612"
    },
    {
      "channel": 1,
      "note": 71,
      "start": 37.0472,
      "duration": 0.1917,
      "velocity": 103,
      "chip": "ym2612"
    },
    {
      "channel": 2,
      "note": 66,
      "start": 37.0477,
      "duration": 0.0034,
      "velocity": 103,
      "chip": "ym2612"
    },
    {
      "channel": 2,
      "note": 66,
      "start": 37.0511,
      "duration": 0.0028,
      "velocity": 103,
      "chip": "ym2612"
    },
    {
      "channel": 2,
      "note": 66,
      "start": 37.0539,
      "duration": 0.0029,
      "velocity": 103,
      "chip": "ym2612"
    },
    {
      "channel": 2,
      "note": 66,
      "start": 37.0567,
      "duration": 0.0029,
      "velocity": 103,
      "chip": "ym2612"
    },
    {
      "channel": 2,
      "note": 66,
      "start": 37.0596,
      "duration": 0.0028,
      "velocity": 103,
      "chip": "ym2612"
    },
    {
      "channel": 2,
      "note": 66,
      "start": 37.0625,
      "duration": 0.0028,
      "velocity": 103,
      "chip": "ym2612"
    },
    {
      "channel": 2,
      "note": 66,
      "start": 37.0652,
      "duration": 0.0029,
      "velocity": 103,
      "chip": "ym2612"
    },
    {
      "channel": 2,
      "note": 66,
      "start": 37.0681,
      "duration": 0.0024,
      "velocity": 103,
      "chip": "ym2612"
    },
    {
      "channel": 2,
      "note": 66,
      "start": 37.0705,
      "duration": 0.0028,
      "velocity": 103,
      "chip": "ym2612"
    },
    {
      "channel": 2,
      "note": 66,
      "start": 37.0734,
      "duration": 0.0029,
      "velocity": 103,
      "chip": "ym2612"
    },
    {
      "channel": 2,
      "note": 66,
      "start": 37.0762,
      "duration": 0.0027,
      "velocity": 103,
      "chip": "ym2612"
    },
    {
      "channel": 2,
      "note": 66,
      "start": 37.0789,
      "duration": 0.0029,
      "velocity": 103,
      "chip": "ym2612"
    },
    {
      "channel": 0,
      "note": 51,
      "start": 37.0812,
      "duration": 0.1571,
      "velocity": 95,
      "chip": "ym2612"
    },
    {
      "channel": 2,
      "note": 66,
      "start": 37.0818,
      "duration": 0.0026,
      "velocity": 103,
      "chip": "ym2612"
    },
    {
      "channel": 2,
      "note": 66,
      "start": 37.0844,
      "duration": 0.0104,
      "velocity": 103,
      "chip": "ym2612"
    },
    {
      "channel": 2,
      "note": 66,
      "start": 37.0948,
      "duration": 0.0143,
      "velocity": 103,
      "chip": "ym2612"
    },
    {
      "channel": 2,
      "note": 66,
      "start": 37.1091,
      "duration": 0.0146,
      "velocity": 103,
      "chip": "ym2612"
    },
    {
      "channel": 2,
      "note": 66,
      "start": 37.1237,
      "duration": 0.0144,
      "velocity": 103,
      "chip": "ym2612"
    },
    {
      "channel": 2,
      "note": 66,
      "start": 37.1381,
      "duration": 0.0144,
      "velocity": 103,
      "chip": "ym2612"
    },
    {
      "channel": 2,
      "note": 66,
      "start": 37.1526,
      "duration": 0.0144,
      "velocity": 103,
      "chip": "ym2612"
    },
    {
      "channel": 2,
      "note": 66,
      "start": 37.167,
      "duration": 0.0143,
      "velocity": 103,
      "chip": "ym2612"
    },
    {
      "channel": 2,
      "note": 66,
      "start": 37.1813,
      "duration": 0.0146,
      "velocity": 103,
      "chip": "ym2612"
    },
    {
      "channel": 2,
      "note": 66,
      "start": 37.1959,
      "duration": 0.0144,
      "velocity": 103,
      "chip": "ym2612"
    },
    {
      "channel": 2,
      "note": 66,
      "start": 37.2103,
      "duration": 0.0145,
      "velocity": 103,
      "chip": "ym2612"
    },
    {
      "channel": 2,
      "note": 66,
      "start": 37.2248,
      "duration": 0.0147,
      "velocity": 103,
      "chip": "ym2612"
    },
    {
      "channel": 0,
      "note": 51,
      "start": 37.2387,
      "duration": 0.1424,
      "velocity": 95,
      "chip": "ym2612"
    },
    {
      "channel": 1,
      "note": 70,
      "start": 37.2393,
      "duration": 0.3158,
      "velocity": 103,
      "chip": "ym2612"
    },
    {
      "channel": 2,
      "note": 68,
      "start": 37.24,
      "duration": 0.3159,
      "velocity": 103,
      "chip": "ym2612"
    },
    {
      "channel": 3,
      "note": 75,
      "start": 37.2406,
      "duration": 0.5074,
      "velocity": 89,
      "chip": "ym2612"
    },
    {
      "channel": 4,
      "note": 80,
      "start": 37.2413,
      "duration": 0.5074,
      "velocity": 89,
      "chip": "ym2612"
    },
    {
      "channel": 0,
      "note": 51,
      "start": 37.3815,
      "duration": 0.173,
      "velocity": 95,
      "chip": "ym2612"
    },
    {
      "channel": 0,
      "note": 51,
      "start": 37.5549,
      "duration": 0.0339,
      "velocity": 95,
      "chip": "ym2612"
    },
    {
      "channel": 1,
      "note": 68,
      "start": 37.5555,
      "duration": 0.034,
      "velocity": 103,
      "chip": "ym2612"
    },
    {
      "channel": 2,
      "note": 69,
      "start": 37.5559,
      "duration": 0.0034,
      "velocity": 103,
      "chip": "ym2612"
    },
    {
      "channel": 2,
      "note": 69,
      "start": 37.5593,
      "duration": 0.0027,
      "velocity": 103,
      "chip": "ym2612"
    },
    {
      "channel": 2,
      "note": 68,
      "start": 37.562,
      "duration": 0.0028,
      "velocity": 103,
      "chip": "ym2612"
    },
    {
      "channel": 2,
      "note": 68,
      "start": 37.5648,
      "duration": 0.0029,
      "velocity": 103,
      "chip": "ym2612"
    },
    {
      "channel": 2,
      "note": 68,
      "start": 37.5677,
      "duration": 0.0028,
      "velocity": 103,
      "chip": "ym2612"
    },
    {
      "channel": 2,
      "note": 68,
      "start": 37.5705,
      "duration": 0.0022,
      "velocity": 103,
      "chip": "ym2612"
    },
    {
      "channel": 2,
      "note": 68,
      "start": 37.5727,
      "duration": 0.0029,
      "velocity": 103,
      "chip": "ym2612"
    },
    {
      "channel": 2,
      "note": 69,
      "start": 37.5756,
      "duration": 0.0028,
      "velocity": 103,
      "chip": "ym2612"
    },
    {
      "channel": 2,
      "note": 69,
      "start": 37.5784,
      "duration": 0.0029,
      "velocity": 103,
      "chip": "ym2612"
    },
    {
      "channel": 2,
      "note": 69,
      "start": 37.5813,
      "duration": 0.0028,
      "velocity": 103,
      "chip": "ym2612"
    },
    {
      "channel": 2,
      "note": 69,
      "start": 37.5841,
      "duration": 0.0027,
      "velocity": 103,
      "chip": "ym2612"
    },
    {
      "channel": 2,
      "note": 68,
      "start": 37.5869,
      "duration": 0.0035,
      "velocity": 103,
      "chip": "ym2612"
    },
    {
      "channel": 0,
      "note": 51,
      "start": 37.5892,
      "duration": 0.1573,
      "velocity": 95,
      "chip": "ym2612"
    },
    {
      "channel": 1,
      "note": 66,
      "start": 37.5899,
      "duration": 0.3004,
      "velocity": 103,
      "chip": "ym2612"
    },
    {
      "channel": 2,
      "note": 68,
      "start": 37.5904,
      "duration": 0.0025,
      "velocity": 103,
      "chip": "ym2612"
    },
    {
      "channel": 2,
      "note": 68,
      "start": 37.5929,
      "duration": 0.0099,
      "velocity": 103,
      "chip": "ym2612"
    },
    {
      "channel": 2,
      "note": 68,
      "start": 37.6027,
      "duration": 0.0143,
      "velocity": 103,
      "chip": "ym2612"
    },
    {
      "channel": 2,
      "note": 68,
      "start": 37.617,
      "duration": 0.0146,
      "velocity": 103,
      "chip": "ym2612"
    },
    {
      "channel": 2,
      "note": 69,
      "start": 37.6316,
      "duration": 0.0144,
      "velocity": 103,
      "chip": "ym2612"
    },
    {
      "channel": 2,
      "note": 69,
      "start": 37.6461,
      "duration": 0.0144,
      "velocity": 103,
      "chip": "ym2612"
    },
    {
      "channel": 2,
      "note": 69,
      "start": 37.6605,
      "duration": 0.0144,
      "velocity": 103,
      "chip": "ym2612"
    },
    {
      "channel": 2,
      "note": 69,
      "start": 37.6749,
      "duration": 0.0143,
      "velocity": 103,
      "chip": "ym2612"
    },
    {
      "channel": 2,
      "note": 68,
      "start": 37.6892,
      "duration": 0.0146,
      "velocity": 103,
      "chip": "ym2612"
    },
    {
      "channel": 2,
      "note": 68,
      "start": 37.7038,
      "duration": 0.0144,
      "velocity": 103,
      "chip": "ym2612"
    },
    {
      "channel": 2,
      "note": 68,
      "start": 37.7183,
      "duration": 0.0145,
      "velocity": 103,
      "chip": "ym2612"
    },
    {
      "channel": 2,
      "note": 68,
      "start": 37.7327,
      "duration": 0.0146,
      "velocity": 103,
      "chip": "ym2612"
    },
    {
      "channel": 0,
      "note": 51,
      "start": 37.747,
      "duration": 0.1423,
      "velocity": 95,
      "chip": "ym2612"
    },
    {
      "channel": 2,
      "note": 63,
      "start": 37.7478,
      "duration": 0.3156,
      "velocity": 103,
      "chip": "ym2612"
    },
    {
      "channel": 3,
      "note": 70,
      "start": 37.7485,
      "duration": 0.3156,
      "velocity": 89,
      "chip": "ym2612"
    },
    {
      "channel": 4,
      "note": 75,
      "start": 37.7491,
      "duration": 0.3155,
      "velocity": 89,
      "chip": "ym2612"
    },
    {
      "channel": 0,
      "note": 51,
      "start": 37.8898,
      "duration": 0.1724,
      "velocity": 95,
      "chip": "ym2612"
    },
    {
      "channel": 1,
      "note": 66,
      "start": 37.8902,
      "duration": 0.0137,
      "velocity": 103,
      "chip": "ym2612"
    },
    {
      "channel": 1,
      "note": 66,
      "start": 37.9039,
      "duration": 0.0146,
      "velocity": 103,
      "chip": "ym2612"
    },
    {
      "channel": 1,
      "note": 66,
      "start": 37.9185,
      "duration": 0.0144,
      "velocity": 103,
      "chip": "ym2612"
    },
    {
      "channel": 1,
      "note": 66,
      "start": 37.933,
      "duration": 0.0144,
      "velocity": 103,
      "chip": "ym2612"
    },
    {
      "channel": 1,
      "note": 66,
      "start": 37.9474,
      "duration": 0.0143,
      "velocity": 103,
      "chip": "ym2612"
    },
    {
      "channel": 1,
      "note": 66,
      "start": 37.9617,
      "duration": 0.0146,
      "velocity": 103,
      "chip": "ym2612"
    },
    {
      "channel": 1,
      "note": 66,
      "start": 37.9763,
      "duration": 0.0144,
      "velocity": 103,
      "chip": "ym2612"
    },
    {
      "channel": 1,
      "note": 66,
      "start": 37.9907,
      "duration": 0.0145,
      "velocity": 103,
      "chip": "ym2612"
    },
    {
      "channel": 1,
      "note": 66,
      "start": 38.0052,
      "duration": 0.0144,
      "velocity": 103,
      "chip": "ym2612"
    },
    {
      "channel": 1,
      "note": 66,
      "start": 38.0197,
      "duration": 0.0143,
      "velocity": 103,
      "chip": "ym2612"
    },
    {
      "channel": 1,
      "note": 66,
      "start": 38.034,
      "duration": 0.0146,
      "velocity": 103,
      "chip": "ym2612"
    },
    {
      "channel": 1,
      "note": 66,
      "start": 38.0485,
      "duration": 0.0146,
      "velocity": 103,
      "chip": "ym2612"
    },
    {
      "channel": 0,
      "note": 51,
      "start": 38.0627,
      "duration": 0.034,
      "velocity": 95,
      "chip": "ym2612"
    },
    {
      "channel": 1,
      "note": 66,
      "start": 38.0632,
      "duration": 0.0047,
      "velocity": 103,
      "chip": "ym2612"
    },
    {
      "channel": 2,
      "note": 63,
      "start": 38.0638,
      "duration": 0.1913,
      "velocity": 103,
      "chip": "ym2612"
    },
    {
      "channel": 3,
      "note": 70,
      "start": 38.0645,
      "duration": 0.1913,
      "velocity": 89,
      "chip": "ym2612"
    },
    {
      "channel": 4,
      "note": 78,
      "start": 38.065,
      "duration": 0.1913,
      "velocity": 89,
      "chip": "ym2612"
    },
    {
      "channel": 1,
      "note": 66,
      "start": 38.0678,
      "duration": 0.0027,
      "velocity": 103,
      "chip": "ym2612"
    },
    {
      "channel": 1,
      "note": 66,
      "start": 38.0705,
      "duration": 0.0028,
      "velocity": 103,
      "chip": "ym2612"
    },
    {
      "channel": 1,
      "note": 66,
      "start": 38.0733,
      "duration": 0.0024,
      "velocity": 103,
      "chip": "ym2612"
    },
    {
      "channel": 1,
      "note": 66,
      "start": 38.0757,
      "duration": 0.0028,
      "velocity": 103,
      "chip": "ym2612"
    },
    {
      "channel": 1,
      "note": 66,
      "start": 38.0786,
      "duration": 0.0028,
      "velocity": 103,
      "chip": "ym2612"
    },
    {
      "channel": 1,
      "note": 66,
      "start": 38.0814,
      "duration": 0.0027,
      "velocity": 103,
      "chip": "ym2612"
    },
    {
      "channel": 1,
      "note": 66,
      "start": 38.0841,
      "duration": 0.0028,
      "velocity": 103,
      "chip": "ym2612"
    },
    {
      "channel": 1,
      "note": 66,
      "start": 38.0869,
      "duration": 0.0027,
      "velocity": 103,
      "chip": "ym2612"
    },
    {
      "channel": 1,
      "note": 66,
      "start": 38.0896,
      "duration": 0.0028,
      "velocity": 103,
      "chip": "ym2612"
    },
    {
      "channel": 1,
      "note": 66,
      "start": 38.0924,
      "duration": 0.0026,
      "velocity": 103,
      "chip": "ym2612"
    },
    {
      "channel": 1,
      "note": 66,
      "start": 38.095,
      "duration": 0.0026,
      "velocity": 103,
      "chip": "ym2612"
    },
    {
      "channel": 0,
      "note": 51,
      "start": 38.0971,
      "duration": 0.1568,
      "velocity": 95,
      "chip": "ym2612"
    },
    {
      "channel": 1,
      "note": 66,
      "start": 38.0976,
      "duration": 0.0024,
      "velocity": 103,
      "chip": "ym2612"
    },
    {
      "channel": 1,
      "note": 66,
      "start": 38.1,
      "duration": 0.0102,
      "velocity": 103,
      "chip": "ym2612"
    },
    {
      "channel": 1,
      "note": 66,
      "start": 38.1102,
      "duration": 0.0144,
      "velocity": 103,
      "chip": "ym2612"
    },
    {
      "channel": 1,
      "note": 66,
      "start": 38.1247,
      "duration": 0.0143,
      "velocity": 103,
      "chip": "ym2612"
    },
    {
      "channel": 1,
      "note": 66,
      "start": 38.139,
      "duration": 0.0146,
      "velocity": 103,
      "chip": "ym2612"
    },
    {
      "channel": 1,
      "note": 66,
      "start": 38.1536,
      "duration": 0.0144,
      "velocity": 103,
      "chip": "ym2612"
    },
    {
      "channel": 1,
      "note": 66,
      "start": 38.168,
      "duration": 0.0144,
      "velocity": 103,
      "chip": "ym2612"
    },
    {
      "channel": 1,
      "note": 66,
      "start": 38.1824,
      "duration": 0.0143,
      "velocity": 103,
      "chip": "ym2612"
    },
    {
      "channel": 1,
      "note": 66,
      "start": 38.1968,
      "duration": 0.0146,
      "velocity": 103,
      "chip": "ym2612"
    },
    {
      "channel": 1,
      "note": 66,
      "start": 38.2114,
      "duration": 0.0144,
      "velocity": 103,
      "chip": "ym2612"
    },
    {
      "channel": 1,
      "note": 66,
      "start": 38.2258,
      "duration": 0.0144,
      "velocity": 103,
      "chip": "ym2612"
    },
    {
      "channel": 1,
      "note": 66,
      "start": 38.2403,
      "duration": 0.0146,
      "velocity": 103,
      "chip": "ym2612"
    },
    {
      "channel": 0,
      "note": 51,
      "start": 38.2544,
      "duration": 0.1424,
      "velocity": 95,
      "chip": "ym2612"
    },
    {
      "channel": 1,
      "note": 66,
      "start": 38.2549,
      "duration": 0.0045,
      "velocity": 103,
      "chip": "ym2612"
    },
    {
      "channel": 2,
      "note": 65,
      "start": 38.2555,
      "duration": 0.3157,
      "velocity": 103,
      "chip": "ym2612"
    },
    {
      "channel": 3,
      "note": 70,
      "start": 38.2561,
      "duration": 0.1418,
      "velocity": 89,
      "chip": "ym2612"
    },
    {
      "channel": 4,
      "note": 78,
      "start": 38.2568,
      "duration": 0.1418,
      "velocity": 89,
      "chip": "ym2612"
    },
    {
      "channel": 1,
      "note": 66,
      "start": 38.2594,
      "duration": 0.0028,
      "velocity": 103,
      "chip": "ym2612"
    },
    {
      "channel": 1,
      "note": 66,
      "start": 38.2622,
      "duration": 0.0052,
      "velocity": 103,
      "chip": "ym2612"
    },
    {
      "channel": 1,
      "note": 66,
      "start": 38.2674,
      "duration": 0.0144,
      "velocity": 103,
      "chip": "ym2612"
    },
    {
      "channel": 1,
      "note": 66,
      "start": 38.2819,
      "duration": 0.0143,
      "velocity": 103,
      "chip": "ym2612"
    },
    {
      "channel": 1,
      "note": 66,
      "start": 38.2962,
      "duration": 0.0146,
      "velocity": 103,
      "chip": "ym2612"
    },
    {
      "channel": 1,
      "note": 66,
      "start": 38.3107,
      "duration": 0.0144,
      "velocity": 103,
      "chip": "ym2612"
    },
    {
      "channel": 1,
      "note": 66,
      "start": 38.3252,
      "duration": 0.0145,
      "velocity": 103,
      "chip": "ym2612"
    },
    {
      "channel": 1,
      "note": 66,
      "start": 38.3397,
      "duration": 0.0144,
      "velocity": 103,
      "chip": "ym2612"
    },
    {
      "channel": 1,
      "note": 66,
      "start": 38.3541,
      "duration": 0.0146,
      "velocity": 103,
      "chip": "ym2612"
    },
    {
      "channel": 1,
      "note": 66,
      "start": 38.3688,
      "duration": 0.0143,
      "velocity": 103,
      "chip": "ym2612"
    },
    {
      "channel": 1,
      "note": 66,
      "start": 38.383,
      "duration": 0.0146,
      "velocity": 103,
      "chip": "ym2612"
    },
    {
      "channel": 0,
      "note": 51,
      "start": 38.3971,
      "duration": 0.1729,
      "velocity": 95,
      "chip": "ym2612"
    },
    {
      "channel": 1,
      "note": 66,
      "start": 38.3976,
      "duration": 0.0142,
      "velocity": 103,
      "chip": "ym2612"
    },
    {
      "channel": 3,
      "note": 68,
      "start": 38.3984,
      "duration": 0.1734,
      "velocity": 89,
      "chip": "ym2612"
    },
    {
      "channel": 4,
      "note": 77,
      "start": 38.399,
      "duration": 0.173,
      "velocity": 89,
      "chip": "ym2612"
    },
    {
      "channel": 1,
      "note": 66,
      "start": 38.4119,
      "duration": 0.0143,
      "velocity": 103,
      "chip": "ym2612"
    },
    {
      "channel": 1,
      "note": 66,
      "start": 38.4262,
      "duration": 0.0146,
      "velocity": 103,
      "chip": "ym2612"
    },
    {
      "channel": 1,
      "note": 66,
      "start": 38.4408,
      "duration": 0.0145,
      "velocity": 103,
      "chip": "ym2612"
    },
    {
      "channel": 1,
      "note": 66,
      "start": 38.4553,
      "duration": 0.0144,
      "velocity": 103,
      "chip": "ym2612"
    },
    {
      "channel": 1,
      "note": 66,
      "start": 38.4697,
      "duration": 0.0144,
      "velocity": 103,
      "chip": "ym2612"
    },
    {
      "channel": 1,
      "note": 66,
      "start": 38.4841,
      "duration": 0.0144,
      "velocity": 103,
      "chip": "ym2612"
    },
    {
      "channel": 1,
      "note": 66,
      "start": 38.4985,
      "duration": 0.0146,
      "velocity": 103,
      "chip": "ym2612"
    },
    {
      "channel": 1,
      "note": 66,
      "start": 38.513,
      "duration": 0.0144,
      "velocity": 103,
      "chip": "ym2612"
    },
    {
      "channel": 1,
      "note": 66,
      "start": 38.5275,
      "duration": 0.0144,
      "velocity": 103,
      "chip": "ym2612"
    },
    {
      "channel": 1,
      "note": 66,
      "start": 38.5419,
      "duration": 0.0142,
      "velocity": 103,
      "chip": "ym2612"
    },
    {
      "channel": 1,
      "note": 66,
      "start": 38.5562,
      "duration": 0.0148,
      "velocity": 103,
      "chip": "ym2612"
    },
    {
      "channel": 0,
      "note": 51,
      "start": 38.5705,
      "duration": 0.0289,
      "velocity": 95,
      "chip": "ym2612"
    },
    {
      "channel": 1,
      "note": 66,
      "start": 38.571,
      "duration": 0.004,
      "velocity": 103,
      "chip": "ym2612"
    },
    {
      "channel": 2,
      "note": 66,
      "start": 38.5716,
      "duration": 0.1915,
      "velocity": 103,
      "chip": "ym2612"
    },
    {
      "channel": 1,
      "note": 66,
      "start": 38.575,
      "duration": 0.0019,
      "velocity": 103,
      "chip": "ym2612"
    },
    {
      "channel": 1,
      "note": 66,
      "start": 38.5769,
      "duration": 0.0024,
      "velocity": 103,
      "chip": "ym2612"
    },
    {
      "channel": 1,
      "note": 66,
      "start": 38.5793,
      "duration": 0.0023,
      "velocity": 103,
      "chip": "ym2612"
    },
    {
      "channel": 1,
      "note": 66,
      "start": 38.5816,
      "duration": 0.0024,
      "velocity": 103,
      "chip": "ym2612"
    },
    {
      "channel": 1,
      "note": 66,
      "start": 38.5839,
      "duration": 0.0024,
      "velocity": 103,
      "chip": "ym2612"
    },
    {
      "channel": 1,
      "note": 66,
      "start": 38.5863,
      "duration": 0.0024,
      "velocity": 103,
      "chip": "ym2612"
    },
    {
      "channel": 1,
      "note": 66,
      "start": 38.5887,
      "duration": 0.0023,
      "velocity": 103,
      "chip": "ym2612"
    },
    {
      "channel": 1,
      "note": 66,
      "start": 38.591,
      "duration": 0.0024,
      "velocity": 103,
      "chip": "ym2612"
    },
    {
      "channel": 1,
      "note": 66,
      "start": 38.5933,
      "duration": 0.002,
      "velocity": 103,
      "chip": "ym2612"
    },
    {
      "channel": 1,
      "note": 66,
      "start": 38.5953,
      "duration": 0.0024,
      "velocity": 103,
      "chip": "ym2612"
    },
    {
      "channel": 1,
      "note": 66,
      "start": 38.5977,
      "duration": 0.0026,
      "velocity": 103,
      "chip": "ym2612"
    },
    {
      "channel": 0,
      "note": 51,
      "start": 38.5998,
      "duration": 0.1623,
      "velocity": 95,
      "chip": "ym2612"
    },
    {
      "channel": 1,
      "note": 66,
      "start": 38.6003,
      "duration": 0.0033,
      "velocity": 103,
      "chip": "ym2612"
    },
    {
      "channel": 3,
      "note": 68,
      "start": 38.601,
      "duration": 0.1627,
      "velocity": 89,
      "chip": "ym2612"
    },
    {
      "channel": 4,
      "note": 75,
      "start": 38.6017,
      "duration": 0.1624,
      "velocity": 89,
      "chip": "ym2612"
    },
    {
      "channel": 1,
      "note": 66,
      "start": 38.6035,
      "duration": 0.0145,
      "velocity": 103,
      "chip": "ym2612"
    },
    {
      "channel": 1,
      "note": 66,
      "start": 38.618,
      "duration": 0.0144,
      "velocity": 103,
      "chip": "ym2612"
    },
    {
      "channel": 1,
      "note": 66,
      "start": 38.6324,
      "duration": 0.0144,
      "velocity": 103,
      "chip": "ym2612"
    },
    {
      "channel": 1,
      "note": 66,
      "start": 38.6469,
      "duration": 0.0143,
      "velocity": 103,
      "chip": "ym2612"
    },
    {
      "channel": 1,
      "note": 66,
      "start": 38.6612,
      "duration": 0.0146,
      "velocity": 103,
      "chip": "ym2612"
    },
    {
      "channel": 1,
      "note": 66,
      "start": 38.6758,
      "duration": 0.0145,
      "velocity": 103,
      "chip": "ym2612"
    },
    {
      "channel": 1,
      "note": 66,
      "start": 38.6903,
      "duration": 0.0144,
      "velocity": 103,
      "chip": "ym2612"
    },
    {
      "channel": 1,
      "note": 66,
      "start": 38.7047,
      "duration": 0.0144,
      "velocity": 103,
      "chip": "ym2612"
    },
    {
      "channel": 1,
      "note": 66,
      "start": 38.7192,
      "duration": 0.0143,
      "velocity": 103,
      "chip": "ym2612"
    },
    {
      "channel": 1,
      "note": 66,
      "start": 38.7335,
      "duration": 0.0146,
      "velocity": 103,
      "chip": "ym2612"
    },
    {
      "channel": 1,
      "note": 66,
      "start": 38.748,
      "duration": 0.0147,
      "velocity": 103,
      "chip": "ym2612"
    },
    {
      "channel": 0,
      "note": 51,
      "start": 38.7626,
      "duration": 0.142,
      "velocity": 95,
      "chip": "ym2612"
    },
    {
      "channel": 2,
      "note": 68,
      "start": 38.7636,
      "duration": 0.3151,
      "velocity": 103,
      "chip": "ym2612"
    },
    {
      "channel": 0,
      "note": 51,
      "start": 38.905,
      "duration": 0.1729,
      "velocity": 95,
      "chip": "ym2612"
    },
    {
      "channel": 3,
      "note": 68,
      "start": 38.9059,
      "duration": 0.1734,
      "velocity": 89,
      "chip": "ym2612"
    },
    {
      "channel": 4,
      "note": 75,
      "start": 38.9064,
      "duration": 0.1731,
      "velocity": 89,
      "chip": "ym2612"
    },
    {
      "channel": 0,
      "note": 51,
      "start": 39.0784,
      "duration": 0.0231,
      "velocity": 95,
      "chip": "ym2612"
    },
    {
      "channel": 2,
      "note": 71,
      "start": 39.0791,
      "duration": 0.1914,
      "velocity": 103,
      "chip": "ym2612"
    },
    {
      "channel": 0,
      "note": 51,
      "start": 39.1019,
      "duration": 0.1678,
      "velocity": 95,
      "chip": "ym2612"
    },
    {
      "channel": 3,
      "note": 68,
      "start": 39.1027,
      "duration": 0.1683,
      "velocity": 89,
      "chip": "ym2612"
    },
    {
      "channel": 4,
      "note": 75,
      "start": 39.1033,
      "duration": 0.168,
      "velocity": 89,
      "chip": "ym2612"
    },
    {
      "channel": 0,
      "note": 51,
      "start": 39.2702,
      "duration": 0.1424,
      "velocity": 95,
      "chip": "ym2612"
    },
    {
      "channel": 2,
      "note": 70,
      "start": 39.2708,
      "duration": 0.3158,
      "velocity": 103,
      "chip": "ym2612"
    },
    {
      "channel": 0,
      "note": 51,
      "start": 39.413,
      "duration": 0.1729,
      "velocity": 95,
      "chip": "ym2612"
    },
    {
      "channel": 3,
      "note": 68,
      "start": 39.4138,
      "duration": 0.1734,
      "velocity": 89,
      "chip": "ym2612"
    },
    {
      "channel": 4,
      "note": 77,
      "start": 39.4144,
      "duration": 0.1735,
      "velocity": 89,
      "chip": "ym2612"
    },
    {
      "channel": 0,
      "note": 51,
      "start": 39.5863,
      "duration": 0.0283,
      "velocity": 95,
      "chip": "ym2612"
    },
    {
      "channel": 2,
      "note": 68,
      "start": 39.587,
      "duration": 0.0283,
      "velocity": 103,
      "chip": "ym2612"
    },
    {
      "channel": 3,
      "note": 68,
      "start": 39.5876,
      "duration": 0.0283,
      "velocity": 89,
      "chip": "ym2612"
    },
    {
      "channel": 4,
      "note": 77,
      "start": 39.5882,
      "duration": 0.028,
      "velocity": 89,
      "chip": "ym2612"
    },
    {
      "channel": 0,
      "note": 51,
      "start": 39.615,
      "duration": 0.1628,
      "velocity": 95,
      "chip": "ym2612"
    },
    {
      "channel": 2,
      "note": 66,
      "start": 39.6158,
      "duration": 0.3054,
      "velocity": 103,
      "chip": "ym2612"
    },
    {
      "channel": 0,
      "note": 51,
      "start": 39.7783,
      "duration": 0.1419,
      "velocity": 95,
      "chip": "ym2612"
    },
    {
      "channel": 3,
      "note": 70,
      "start": 39.7793,
      "duration": 0.5076,
      "velocity": 89,
      "chip": "ym2612"
    },
    {
      "channel": 4,
      "note": 75,
      "start": 39.7799,
      "duration": 0.5077,
      "velocity": 89,
      "chip": "ym2612"
    },
    {
      "channel": 0,
      "note": 51,
      "start": 39.9206,
      "duration": 0.1729,
      "velocity": 95,
      "chip": "ym2612"
    },
    {
      "channel": 2,
      "note": 66,
      "start": 39.9211,
      "duration": 0.0142,
      "velocity": 103,
      "chip": "ym2612"
    },
    {
      "channel": 2,
      "note": 66,
      "start": 39.9353,
      "duration": 0.0145,
      "velocity": 103,
      "chip": "ym2612"
    },
    {
      "channel": 2,
      "note": 66,
      "start": 39.9498,
      "duration": 0.0145,
      "velocity": 103,
      "chip": "ym2612"
    },
    {
      "channel": 2,
      "note": 66,
      "start": 39.9643,
      "duration": 0.0144,
      "velocity": 103,
      "chip": "ym2612"
    },
    {
      "channel": 2,
      "note": 66,
      "start": 39.9787,
      "duration": 0.0143,
      "velocity": 103,
      "chip": "ym2612"
    },
    {
      "channel": 2,
      "note": 66,
      "start": 39.993,
      "duration": 0.0146,
      "velocity": 103,
      "chip": "ym2612"
    },
    {
      "channel": 2,
      "note": 66,
      "start": 40.0076,
      "duration": 0.0144,
      "velocity": 103,
      "chip": "ym2612"
    },
    {
      "channel": 2,
      "note": 66,
      "start": 40.0221,
      "duration": 0.0144,
      "velocity": 103,
      "chip": "ym2612"
    },
    {
      "channel": 2,
      "note": 66,
      "start": 40.0365,
      "duration": 0.0144,
      "velocity": 103,
      "chip": "ym2612"
    },
    {
      "channel": 2,
      "note": 66,
      "start": 40.0509,
      "duration": 0.0143,
      "velocity": 103,
      "chip": "ym2612"
    },
    {
      "channel": 2,
      "note": 66,
      "start": 40.0653,
      "duration": 0.0146,
      "velocity": 103,
      "chip": "ym2612"
    },
    {
      "channel": 2,
      "note": 66,
      "start": 40.0798,
      "duration": 0.0149,
      "velocity": 103,
      "chip": "ym2612"
    },
    {
      "channel": 0,
      "note": 51,
      "start": 40.0939,
      "duration": 0.0297,
      "velocity": 95,
      "chip": "ym2612"
    },
    {
      "channel": 1,
      "note": 63,
      "start": 40.0945,
      "duration": 0.1912,
      "velocity": 103,
      "chip": "ym2612"
    },
    {
      "channel": 2,
      "note": 63,
      "start": 40.0952,
      "duration": 0.1911,
      "velocity": 103,
      "chip": "ym2612"
    },
    {
      "channel": 0,
      "note": 51,
      "start": 40.1241,
      "duration": 0.1611,
      "velocity": 95,
      "chip": "ym2612"
    },
    {
      "channel": 0,
      "note": 51,
      "start": 40.2855,
      "duration": 0.1424,
      "velocity": 95,
      "chip": "ym2612"
    },
    {
      "channel": 1,
      "note": 65,
      "start": 40.2862,
      "duration": 0.3156,
      "velocity": 103,
      "chip": "ym2612"
    },
    {
      "channel": 2,
      "note": 65,
      "start": 40.2867,
      "duration": 0.316,
      "velocity": 103,
      "chip": "ym2612"
    },
    {
      "channel": 3,
      "note": 73,
      "start": 40.2874,
      "duration": 0.5078,
      "velocity": 89,
      "chip": "ym2612"
    },
    {
      "channel": 4,
      "note": 77,
      "start": 40.288,
      "duration": 0.5078,
      "velocity": 89,
      "chip": "ym2612"
    },
    {
      "channel": 0,
      "note": 51,
      "start": 40.4283,
      "duration": 0.1729,
      "velocity": 95,
      "chip": "ym2612"
    },
    {
      "channel": 0,
      "note": 51,
      "start": 40.6016,
      "duration": 0.0334,
      "velocity": 95,
      "chip": "ym2612"
    },
    {
      "channel": 1,
      "note": 66,
      "start": 40.6023,
      "duration": 0.1917,
      "velocity": 103,
      "chip": "ym2612"
    },
    {
      "channel": 2,
      "note": 65,
      "start": 40.6027,
      "duration": 0.0032,
      "velocity": 103,
      "chip": "ym2612"
    },
    {
      "channel": 2,
      "note": 65,
      "start": 40.6059,
      "duration": 0.0024,
      "velocity": 103,
      "chip": "ym2612"
    },
    {
      "channel": 2,
      "note": 65,
      "start": 40.6083,
      "duration": 0.0028,
      "velocity": 103,
      "chip": "ym2612"
    },
    {
      "channel": 2,
      "note": 65,
      "start": 40.6112,
      "duration": 0.0028,
      "velocity": 103,
      "chip": "ym2612"
    },
    {
      "channel": 2,
      "note": 65,
      "start": 40.614,
      "duration": 0.0027,
      "velocity": 103,
      "chip": "ym2612"
    },
    {
      "channel": 2,
      "note": 65,
      "start": 40.6167,
      "duration": 0.0029,
      "velocity": 103,
      "chip": "ym2612"
    },
    {
      "channel": 2,
      "note": 65,
      "start": 40.6196,
      "duration": 0.0029,
      "velocity": 103,
      "chip": "ym2612"
    },
    {
      "channel": 2,
      "note": 65,
      "start": 40.6225,
      "duration": 0.0028,
      "velocity": 103,
      "chip": "ym2612"
    },
    {
      "channel": 2,
      "note": 65,
      "start": 40.6253,
      "duration": 0.0028,
      "velocity": 103,
      "chip": "ym2612"
    },
    {
      "channel": 2,
      "note": 65,
      "start": 40.6281,
      "duration": 0.0023,
      "velocity": 103,
      "chip": "ym2612"
    },
    {
      "channel": 2,
      "note": 65,
      "start": 40.6303,
      "duration": 0.0028,
      "velocity": 103,
      "chip": "ym2612"
    },
    {
      "channel": 2,
      "note": 65,
      "start": 40.6332,
      "duration": 0.0029,
      "velocity": 103,
      "chip": "ym2612"
    },
    {
      "channel": 0,
      "note": 51,
      "start": 40.6354,
      "duration": 0.1578,
      "velocity": 95,
      "chip": "ym2612"
    },
    {
      "channel": 2,
      "note": 65,
      "start": 40.6361,
      "duration": 0.0026,
      "velocity": 103,
      "chip": "ym2612"
    },
    {
      "channel": 2,
      "note": 65,
      "start": 40.6386,
      "duration": 0.0106,
      "velocity": 103,
      "chip": "ym2612"
    },
    {
      "channel": 2,
      "note": 65,
      "start": 40.6493,
      "duration": 0.0146,
      "velocity": 103,
      "chip": "ym2612"
    },
    {
      "channel": 2,
      "note": 65,
      "start": 40.6639,
      "duration": 0.0144,
      "velocity": 103,
      "chip": "ym2612"
    },
    {
      "channel": 2,
      "note": 65,
      "start": 40.6783,
      "duration": 0.0144,
      "velocity": 103,
      "chip": "ym2612"
    },
    {
      "channel": 2,
      "note": 65,
      "start": 40.6927,
      "duration": 0.0145,
      "velocity": 103,
      "chip": "ym2612"
    },
    {
      "channel": 2,
      "note": 65,
      "start": 40.7072,
      "duration": 0.0143,
      "velocity": 103,
      "chip": "ym2612"
    },
    {
      "channel": 2,
      "note": 65,
      "start": 40.7215,
      "duration": 0.0146,
      "velocity": 103,
      "chip": "ym2612"
    },
    {
      "channel": 2,
      "note": 65,
      "start": 40.7361,
      "duration": 0.0145,
      "velocity": 103,
      "chip": "ym2612"
    },
    {
      "channel": 2,
      "note": 65,
      "start": 40.7506,
      "duration": 0.0144,
      "velocity": 103,
      "chip": "ym2612"
    },
    {
      "channel": 2,
      "note": 65,
      "start": 40.765,
      "duration": 0.0143,
      "velocity": 103,
      "chip": "ym2612"
    },
    {
      "channel": 2,
      "note": 65,
      "start": 40.7793,
      "duration": 0.0153,
      "velocity": 103,
      "chip": "ym2612"
    },
    {
      "channel": 0,
      "note": 51,
      "start": 40.7937,
      "duration": 0.1419,
      "velocity": 95,
      "chip": "ym2612"
    },
    {
      "channel": 1,
      "note": 68,
      "start": 40.7944,
      "duration": 0.3152,
      "velocity": 103,
      "chip": "ym2612"
    },
    {
      "channel": 2,
      "note": 66,
      "start": 40.795,
      "duration": 0.3155,
      "velocity": 103,
      "chip": "ym2612"
    },
    {
      "channel": 3,
      "note": 75,
      "start": 40.7956,
      "duration": 0.5072,
      "velocity": 89,
      "chip": "ym2612"
    },
    {
      "channel": 4,
      "note": 78,
      "start": 40.7963,
      "duration": 0.5072,
      "velocity": 89,
      "chip": "ym2612"
    },
    {
      "channel": 0,
      "note": 51,
      "start": 40.9361,
      "duration": 0.1729,
      "velocity": 95,
      "chip": "ym2612"
    },
    {
      "channel": 0,
      "note": 51,
      "start": 41.1095,
      "duration": 0.0341,
      "velocity": 95,
      "chip": "ym2612"
    },
    {
      "channel": 1,
      "note": 71,
      "start": 41.11,
      "duration": 0.1915,
      "velocity": 103,
      "chip": "ym2612"
    },
    {
      "channel": 2,
      "note": 66,
      "start": 41.1105,
      "duration": 0.0033,
      "velocity": 103,
      "chip": "ym2612"
    },
    {
      "channel": 2,
      "note": 66,
      "start": 41.1139,
      "duration": 0.0027,
      "velocity": 103,
      "chip": "ym2612"
    },
    {
      "channel": 2,
      "note": 66,
      "start": 41.1165,
      "duration": 0.0029,
      "velocity": 103,
      "chip": "ym2612"
    },
    {
      "channel": 2,
      "note": 66,
      "start": 41.1194,
      "duration": 0.0029,
      "velocity": 103,
      "chip": "ym2612"
    },
    {
      "channel": 2,
      "note": 66,
      "start": 41.1223,
      "duration": 0.0029,
      "velocity": 103,
      "chip": "ym2612"
    },
    {
      "channel": 2,
      "note": 66,
      "start": 41.1251,
      "duration": 0.0027,
      "velocity": 103,
      "chip": "ym2612"
    },
    {
      "channel": 2,
      "note": 66,
      "start": 41.1279,
      "duration": 0.0029,
      "velocity": 103,
      "chip": "ym2612"
    },
    {
      "channel": 2,
      "note": 66,
      "start": 41.1308,
      "duration": 0.0024,
      "velocity": 103,
      "chip": "ym2612"
    },
    {
      "channel": 2,
      "note": 66,
      "start": 41.1332,
      "duration": 0.0029,
      "velocity": 103,
      "chip": "ym2612"
    },
    {
      "channel": 2,
      "note": 66,
      "start": 41.1361,
      "duration": 0.0029,
      "velocity": 103,
      "chip": "ym2612"
    },
    {
      "channel": 2,
      "note": 66,
      "start": 41.1389,
      "duration": 0.0026,
      "velocity": 103,
      "chip": "ym2612"
    },
    {
      "channel": 2,
      "note": 66,
      "start": 41.1416,
      "duration": 0.003,
      "velocity": 103,
      "chip": "ym2612"
    },
    {
      "channel": 0,
      "note": 51,
      "start": 41.144,
      "duration": 0.1569,
      "velocity": 95,
      "chip": "ym2612"
    },
    {
      "channel": 2,
      "note": 66,
      "start": 41.1446,
      "duration": 0.0025,
      "velocity": 103,
      "chip": "ym2612"
    },
    {
      "channel": 2,
      "note": 66,
      "start": 41.1471,
      "duration": 0.0103,
      "velocity": 103,
      "chip": "ym2612"
    },
    {
      "channel": 2,
      "note": 66,
      "start": 41.1574,
      "duration": 0.0143,
      "velocity": 103,
      "chip": "ym2612"
    },
    {
      "channel": 2,
      "note": 66,
      "start": 41.1717,
      "duration": 0.0146,
      "velocity": 103,
      "chip": "ym2612"
    },
    {
      "channel": 2,
      "note": 66,
      "start": 41.1863,
      "duration": 0.0144,
      "velocity": 103,
      "chip": "ym2612"
    },
    {
      "channel": 2,
      "note": 66,
      "start": 41.2008,
      "duration": 0.0144,
      "velocity": 103,
      "chip": "ym2612"
    },
    {
      "channel": 2,
      "note": 66,
      "start": 41.2152,
      "duration": 0.0144,
      "velocity": 103,
      "chip": "ym2612"
    },
    {
      "channel": 2,
      "note": 66,
      "start": 41.2297,
      "duration": 0.0143,
      "velocity": 103,
      "chip": "ym2612"
    },
    {
      "channel": 2,
      "note": 66,
      "start": 41.244,
      "duration": 0.0146,
      "velocity": 103,
      "chip": "ym2612"
    },
    {
      "channel": 2,
      "note": 66,
      "start": 41.2585,
      "duration": 0.0145,
      "velocity": 103,
      "chip": "ym2612"
    },
    {
      "channel": 2,
      "note": 66,
      "start": 41.273,
      "duration": 0.0144,
      "velocity": 103,
      "chip": "ym2612"
    },
    {
      "channel": 2,
      "note": 66,
      "start": 41.2875,
      "duration": 0.0147,
      "velocity": 103,
      "chip": "ym2612"
    },
    {
      "channel": 0,
      "note": 51,
      "start": 41.3013,
      "duration": 0.1424,
      "velocity": 95,
      "chip": "ym2612"
    },
    {
      "channel": 1,
      "note": 70,
      "start": 41.302,
      "duration": 0.3157,
      "velocity": 103,
      "chip": "ym2612"
    },
    {
      "channel": 2,
      "note": 68,
      "start": 41.3026,
      "duration": 0.316,
      "velocity": 103,
      "chip": "ym2612"
    },
    {
      "channel": 3,
      "note": 75,
      "start": 41.3032,
      "duration": 0.5079,
      "velocity": 89,
      "chip": "ym2612"
    },
    {
      "channel": 4,
      "note": 80,
      "start": 41.3039,
      "duration": 0.5081,
      "velocity": 89,
      "chip": "ym2612"
    },
    {
      "channel": 0,
      "note": 51,
      "start": 41.4442,
      "duration": 0.1729,
      "velocity": 95,
      "chip": "ym2612"
    },
    {
      "channel": 0,
      "note": 51,
      "start": 41.6175,
      "duration": 0.0337,
      "velocity": 95,
      "chip": "ym2612"
    },
    {
      "channel": 1,
      "note": 68,
      "start": 41.6181,
      "duration": 0.1915,
      "velocity": 103,
      "chip": "ym2612"
    },
    {
      "channel": 2,
      "note": 69,
      "start": 41.6186,
      "duration": 0.0033,
      "velocity": 103,
      "chip": "ym2612"
    },
    {
      "channel": 2,
      "note": 69,
      "start": 41.6219,
      "duration": 0.0027,
      "velocity": 103,
      "chip": "ym2612"
    },
    {
      "channel": 2,
      "note": 68,
      "start": 41.6247,
      "duration": 0.0029,
      "velocity": 103,
      "chip": "ym2612"
    },
    {
      "channel": 2,
      "note": 68,
      "start": 41.6275,
      "duration": 0.0028,
      "velocity": 103,
      "chip": "ym2612"
    },
    {
      "channel": 2,
      "note": 68,
      "start": 41.6303,
      "duration": 0.0028,
      "velocity": 103,
      "chip": "ym2612"
    },
    {
      "channel": 2,
      "note": 68,
      "start": 41.6331,
      "duration": 0.0022,
      "velocity": 103,
      "chip": "ym2612"
    },
    {
      "channel": 2,
      "note": 68,
      "start": 41.6354,
      "duration": 0.0029,
      "velocity": 103,
      "chip": "ym2612"
    },
    {
      "channel": 2,
      "note": 69,
      "start": 41.6382,
      "duration": 0.0028,
      "velocity": 103,
      "chip": "ym2612"
    },
    {
      "channel": 2,
      "note": 69,
      "start": 41.6411,
      "duration": 0.0029,
      "velocity": 103,
      "chip": "ym2612"
    },
    {
      "channel": 2,
      "note": 69,
      "start": 41.644,
      "duration": 0.0028,
      "velocity": 103,
      "chip": "ym2612"
    },
    {
      "channel": 2,
      "note": 69,
      "start": 41.6468,
      "duration": 0.0026,
      "velocity": 103,
      "chip": "ym2612"
    },
    {
      "channel": 2,
      "note": 68,
      "start": 41.6494,
      "duration": 0.0029,
      "velocity": 103,
      "chip": "ym2612"
    },
    {
      "channel": 0,
      "note": 51,
      "start": 41.6517,
      "duration": 0.1573,
      "velocity": 95,
      "chip": "ym2612"
    },
    {
      "channel": 2,
      "note": 68,
      "start": 41.6523,
      "duration": 0.0021,
      "velocity": 103,
      "chip": "ym2612"
    },
    {
      "channel": 2,
      "note": 68,
      "start": 41.6544,
      "duration": 0.0108,
      "velocity": 103,
      "chip": "ym2612"
    },
    {
      "channel": 2,
      "note": 68,
      "start": 41.6652,
      "duration": 0.0143,
      "velocity": 103,
      "chip": "ym2612"
    },
    {
      "channel": 2,
      "note": 68,
      "start": 41.6795,
      "duration": 0.0146,
      "velocity": 103,
      "chip": "ym2612"
    },
    {
      "channel": 2,
      "note": 69,
      "start": 41.6941,
      "duration": 0.0144,
      "velocity": 103,
      "chip": "ym2612"
    },
    {
      "channel": 2,
      "note": 69,
      "start": 41.7085,
      "duration": 0.0145,
      "velocity": 103,
      "chip": "ym2612"
    },
    {
      "channel": 2,
      "note": 69,
      "start": 41.723,
      "duration": 0.0144,
      "velocity": 103,
      "chip": "ym2612"
    },
    {
      "channel": 2,
      "note": 69,
      "start": 41.7374,
      "duration": 0.0143,
      "velocity": 103,
      "chip": "ym2612"
    },
    {
      "channel": 2,
      "note": 68,
      "start": 41.7517,
      "duration": 0.0146,
      "velocity": 103,
      "chip": "ym2612"
    },
    {
      "channel": 2,
      "note": 68,
      "start": 41.7663,
      "duration": 0.0144,
      "velocity": 103,
      "chip": "ym2612"
    },
    {
      "channel": 2,
      "note": 68,
      "start": 41.7807,
      "duration": 0.0145,
      "velocity": 103,
      "chip": "ym2612"
    },
    {
      "channel": 2,
      "note": 68,
      "start": 41.7952,
      "duration": 0.0151,
      "velocity": 103,
      "chip": "ym2612"
    },
    {
      "channel": 0,
      "note": 47,
      "start": 41.8094,
      "duration": 0.1421,
      "velocity": 95,
      "chip": "ym2612"
    },
    {
      "channel": 1,
      "note": 66,
      "start": 41.8101,
      "duration": 0.3155,
      "velocity": 103,
      "chip": "ym2612"
    },
    {
      "channel": 2,
      "note": 70,
      "start": 41.8108,
      "duration": 0.3157,
      "velocity": 103,
      "chip": "ym2612"
    },
    {
      "channel": 3,
      "note": 66,
      "start": 41.8116,
      "duration": 1.0151,
      "velocity": 89,
      "chip": "ym2612"
    },
    {
      "channel": 4,
      "note": 82,
      "start": 41.8125,
      "duration": 1.0149,
      "velocity": 89,
      "chip": "ym2612"
    },
    {
      "channel": 0,
      "note": 47,
      "start": 41.952,
      "duration": 0.1729,
      "velocity": 95,
      "chip": "ym2612"
    },
    {
      "channel": 0,
      "note": 47,
      "start": 42.1253,
      "duration": 0.0335,
      "velocity": 95,
      "chip": "ym2612"
    },
    {
      "channel": 1,
      "note": 68,
      "start": 42.126,
      "duration": 0.0335,
      "velocity": 103,
      "chip": "ym2612"
    },
    {
      "channel": 2,
      "note": 70,
      "start": 42.1265,
      "duration": 0.0033,
      "velocity": 103,
      "chip": "ym2612"
    },
    {
      "channel": 2,
      "note": 70,
      "start": 42.1298,
      "duration": 0.0027,
      "velocity": 103,
      "chip": "ym2612"
    },
    {
      "channel": 2,
      "note": 70,
      "start": 42.1326,
      "duration": 0.0028,
      "velocity": 103,
      "chip": "ym2612"
    },
    {
      "channel": 2,
      "note": 70,
      "start": 42.1354,
      "duration": 0.0024,
      "velocity": 103,
      "chip": "ym2612"
    },
    {
      "channel": 2,
      "note": 70,
      "start": 42.1378,
      "duration": 0.0029,
      "velocity": 103,
      "chip": "ym2612"
    },
    {
      "channel": 2,
      "note": 70,
      "start": 42.1407,
      "duration": 0.0027,
      "velocity": 103,
      "chip": "ym2612"
    },
    {
      "channel": 2,
      "note": 70,
      "start": 42.1434,
      "duration": 0.0029,
      "velocity": 103,
      "chip": "ym2612"
    },
    {
      "channel": 2,
      "note": 70,
      "start": 42.1463,
      "duration": 0.0029,
      "velocity": 103,
      "chip": "ym2612"
    },
    {
      "channel": 2,
      "note": 70,
      "start": 42.1492,
      "duration": 0.0028,
      "velocity": 103,
      "chip": "ym2612"
    },
    {
      "channel": 2,
      "note": 70,
      "start": 42.152,
      "duration": 0.0028,
      "velocity": 103,
      "chip": "ym2612"
    },
    {
      "channel": 2,
      "note": 70,
      "start": 42.1547,
      "duration": 0.0022,
      "velocity": 103,
      "chip": "ym2612"
    },
    {
      "channel": 2,
      "note": 70,
      "start": 42.1569,
      "duration": 0.0035,
      "velocity": 103,
      "chip": "ym2612"
    },
    {
      "channel": 0,
      "note": 47,
      "start": 42.1593,
      "duration": 0.1574,
      "velocity": 95,
      "chip": "ym2612"
    },
    {
      "channel": 1,
      "note": 70,
      "start": 42.1599,
      "duration": 0.3004,
      "velocity": 103,
      "chip": "ym2612"
    },
    {
      "channel": 2,
      "note": 70,
      "start": 42.1604,
      "duration": 0.0026,
      "velocity": 103,
      "chip": "ym2612"
    },
    {
      "channel": 2,
      "note": 70,
      "start": 42.1629,
      "duration": 0.0102,
      "velocity": 103,
      "chip": "ym2612"
    },
    {
      "channel": 2,
      "note": 70,
      "start": 42.1732,
      "duration": 0.0143,
      "velocity": 103,
      "chip": "ym2612"
    },
    {
      "channel": 2,
      "note": 70,
      "start": 42.1875,
      "duration": 0.0146,
      "velocity": 103,
      "chip": "ym2612"
    },
    {
      "channel": 2,
      "note": 70,
      "start": 42.2021,
      "duration": 0.0144,
      "velocity": 103,
      "chip": "ym2612"
    },
    {
      "channel": 2,
      "note": 70,
      "start": 42.2166,
      "duration": 0.0144,
      "velocity": 103,
      "chip": "ym2612"
    },
    {
      "channel": 2,
      "note": 70,
      "start": 42.231,
      "duration": 0.0144,
      "velocity": 103,
      "chip": "ym2612"
    },
    {
      "channel": 2,
      "note": 70,
      "start": 42.2455,
      "duration": 0.0142,
      "velocity": 103,
      "chip": "ym2612"
    },
    {
      "channel": 2,
      "note": 70,
      "start": 42.2597,
      "duration": 0.0146,
      "velocity": 103,
      "chip": "ym2612"
    },
    {
      "channel": 2,
      "note": 70,
      "start": 42.2743,
      "duration": 0.0145,
      "velocity": 103,
      "chip": "ym2612"
    },
    {
      "channel": 2,
      "note": 70,
      "start": 42.2888,
      "duration": 0.0144,
      "velocity": 103,
      "chip": "ym2612"
    },
    {
      "channel": 2,
      "note": 70,
      "start": 42.3032,
      "duration": 0.0144,
      "velocity": 103,
      "chip": "ym2612"
    },
    {
      "channel": 0,
      "note": 47,
      "start": 42.3171,
      "duration": 0.1422,
      "velocity": 95,
      "chip": "ym2612"
    },
    {
      "channel": 2,
      "note": 70,
      "start": 42.3176,
      "duration": 0.0033,
      "velocity": 103,
      "chip": "ym2612"
    },
    {
      "channel": 2,
      "note": 70,
      "start": 42.3209,
      "duration": 0.0029,
      "velocity": 103,
      "chip": "ym2612"
    },
    {
      "channel": 2,
      "note": 70,
      "start": 42.3238,
      "duration": 0.0066,
      "velocity": 103,
      "chip": "ym2612"
    },
    {
      "channel": 2,
      "note": 70,
      "start": 42.3304,
      "duration": 0.0144,
      "velocity": 103,
      "chip": "ym2612"
    },
    {
      "channel": 2,
      "note": 70,
      "start": 42.3449,
      "duration": 0.0142,
      "velocity": 103,
      "chip": "ym2612"
    },
    {
      "channel": 2,
      "note": 70,
      "start": 42.3591,
      "duration": 0.0146,
      "velocity": 103,
      "chip": "ym2612"
    },
    {
      "channel": 2,
      "note": 70,
      "start": 42.3737,
      "duration": 0.0144,
      "velocity": 103,
      "chip": "ym2612"
    },
    {
      "channel": 2,
      "note": 70,
      "start": 42.3881,
      "duration": 0.0145,
      "velocity": 103,
      "chip": "ym2612"
    },
    {
      "channel": 2,
      "note": 70,
      "start": 42.4026,
      "duration": 0.0143,
      "velocity": 103,
      "chip": "ym2612"
    },
    {
      "channel": 2,
      "note": 70,
      "start": 42.4169,
      "duration": 0.0146,
      "velocity": 103,
      "chip": "ym2612"
    },
    {
      "channel": 2,
      "note": 70,
      "start": 42.4315,
      "duration": 0.0144,
      "velocity": 103,
      "chip": "ym2612"
    },
    {
      "channel": 2,
      "note": 70,
      "start": 42.4459,
      "duration": 0.0148,
      "velocity": 103,
      "chip": "ym2612"
    },
    {
      "channel": 0,
      "note": 47,
      "start": 42.4598,
      "duration": 0.173,
      "velocity": 95,
      "chip": "ym2612"
    },
    {
      "channel": 1,
      "note": 70,
      "start": 42.4603,
      "duration": 0.0141,
      "velocity": 103,
      "chip": "ym2612"
    },
    {
      "channel": 2,
      "note": 70,
      "start": 42.4607,
      "duration": 0.0143,
      "velocity": 103,
      "chip": "ym2612"
    },
    {
      "channel": 1,
      "note": 70,
      "start": 42.4744,
      "duration": 0.0146,
      "velocity": 103,
      "chip": "ym2612"
    },
    {
      "channel": 2,
      "note": 70,
      "start": 42.475,
      "duration": 0.0145,
      "velocity": 103,
      "chip": "ym2612"
    },
    {
      "channel": 1,
      "note": 70,
      "start": 42.489,
      "duration": 0.0144,
      "velocity": 103,
      "chip": "ym2612"
    },
    {
      "channel": 2,
      "note": 70,
      "start": 42.4895,
      "duration": 0.0146,
      "velocity": 103,
      "chip": "ym2612"
    },
    {
      "channel": 1,
      "note": 70,
      "start": 42.5034,
      "duration": 0.0144,
      "velocity": 103,
      "chip": "ym2612"
    },
    {
      "channel": 2,
      "note": 70,
      "start": 42.5041,
      "duration": 0.0144,
      "velocity": 103,
      "chip": "ym2612"
    },
    {
      "channel": 1,
      "note": 70,
      "start": 42.5179,
      "duration": 0.0143,
      "velocity": 103,
      "chip": "ym2612"
    },
    {
      "channel": 2,
      "note": 70,
      "start": 42.5185,
      "duration": 0.0142,
      "velocity": 103,
      "chip": "ym2612"
    },
    {
      "channel": 1,
      "note": 70,
      "start": 42.5322,
      "duration": 0.0146,
      "velocity": 103,
      "chip": "ym2612"
    },
    {
      "channel": 2,
      "note": 70,
      "start": 42.5328,
      "duration": 0.0146,
      "velocity": 103,
      "chip": "ym2612"
    },
    {
      "channel": 1,
      "note": 70,
      "start": 42.5468,
      "duration": 0.0144,
      "velocity": 103,
      "chip": "ym2612"
    },
    {
      "channel": 2,
      "note": 70,
      "start": 42.5473,
      "duration": 0.0146,
      "velocity": 103,
      "chip": "ym2612"
    },
    {
      "channel": 1,
      "note": 70,
      "start": 42.5613,
      "duration": 0.0144,
      "velocity": 103,
      "chip": "ym2612"
    },
    {
      "channel": 2,
      "note": 70,
      "start": 42.5619,
      "duration": 0.0144,
      "velocity": 103,
      "chip": "ym2612"
    },
    {
      "channel": 1,
      "note": 70,
      "start": 42.5756,
      "duration": 0.0145,
      "velocity": 103,
      "chip": "ym2612"
    },
    {
      "channel": 2,
      "note": 70,
      "start": 42.5763,
      "duration": 0.0144,
      "velocity": 103,
      "chip": "ym2612"
    },
    {
      "channel": 1,
      "note": 70,
      "start": 42.5901,
      "duration": 0.0143,
      "velocity": 103,
      "chip": "ym2612"
    },
    {
      "channel": 2,
      "note": 70,
      "start": 42.5907,
      "duration": 0.0143,
      "velocity": 103,
      "chip": "ym2612"
    },
    {
      "channel": 1,
      "note": 70,
      "start": 42.6044,
      "duration": 0.0146,
      "velocity": 103,
      "chip": "ym2612"
    },
    {
      "channel": 2,
      "note": 70,
      "start": 42.605,
      "duration": 0.0144,
      "velocity": 103,
      "chip": "ym2612"
    },
    {
      "channel": 1,
      "note": 70,
      "start": 42.619,
      "duration": 0.0146,
      "velocity": 103,
      "chip": "ym2612"
    },
    {
      "channel": 2,
      "note": 70,
      "start": 42.6195,
      "duration": 0.0145,
      "velocity": 103,
      "chip": "ym2612"
    },
    {
      "channel": 0,
      "note": 47,
      "start": 42.6332,
      "duration": 0.0337,
      "velocity": 95,
      "chip": "ym2612"
    },
    {
      "channel": 1,
      "note": 70,
      "start": 42.6337,
      "duration": 0.0039,
      "velocity": 103,
      "chip": "ym2612"
    },
    {
      "channel": 2,
      "note": 63,
      "start": 42.6344,
      "duration": 0.0336,
      "velocity": 103,
      "chip": "ym2612"
    },
    {
      "channel": 1,
      "note": 70,
      "start": 42.6375,
      "duration": 0.0023,
      "velocity": 103,
      "chip": "ym2612"
    },
    {
      "channel": 1,
      "note": 70,
      "start": 42.6398,
      "duration": 0.0029,
      "velocity": 103,
      "chip": "ym2612"
    },
    {
      "channel": 1,
      "note": 70,
      "start": 42.6427,
      "duration": 0.0029,
      "velocity": 103,
      "chip": "ym2612"
    },
    {
      "channel": 1,
      "note": 70,
      "start": 42.6455,
      "duration": 0.0029,
      "velocity": 103,
      "chip": "ym2612"
    },
    {
      "channel": 1,
      "note": 70,
      "start": 42.6484,
      "duration": 0.0029,
      "velocity": 103,
      "chip": "ym2612"
    },
    {
      "channel": 1,
      "note": 70,
      "start": 42.6513,
      "duration": 0.0027,
      "velocity": 103,
      "chip": "ym2612"
    },
    {
      "channel": 1,
      "note": 70,
      "start": 42.654,
      "duration": 0.0028,
      "velocity": 103,
      "chip": "ym2612"
    },
    {
      "channel": 1,
      "note": 70,
      "start": 42.6568,
      "duration": 0.0029,
      "velocity": 103,
      "chip": "ym2612"
    },
    {
      "channel": 1,
      "note": 70,
      "start": 42.6597,
      "duration": 0.0024,
      "velocity": 103,
      "chip": "ym2612"
    },
    {
      "channel": 1,
      "note": 70,
      "start": 42.6621,
      "duration": 0.0027,
      "velocity": 103,
      "chip": "ym2612"
    },
    {
      "channel": 1,
      "note": 70,
      "start": 42.6648,
      "duration": 0.003,
      "velocity": 103,
      "chip": "ym2612"
    },
    {
      "channel": 0,
      "note": 47,
      "start": 42.6674,
      "duration": 0.1576,
      "velocity": 95,
      "chip": "ym2612"
    },
    {
      "channel": 1,
      "note": 70,
      "start": 42.6678,
      "duration": 0.0029,
      "velocity": 103,
      "chip": "ym2612"
    },
    {
      "channel": 2,
      "note": 65,
      "start": 42.6685,
      "duration": 0.1575,
      "velocity": 103,
      "chip": "ym2612"
    },
    {
      "channel": 1,
      "note": 70,
      "start": 42.6708,
      "duration": 0.0101,
      "velocity": 103,
      "chip": "ym2612"
    },
    {
      "channel": 1,
      "note": 70,
      "start": 42.6809,
      "duration": 0.0144,
      "velocity": 103,
      "chip": "ym2612"
    },
    {
      "channel": 1,
      "note": 70,
      "start": 42.6954,
      "duration": 0.0143,
      "velocity": 103,
      "chip": "ym2612"
    },
    {
      "channel": 1,
      "note": 70,
      "start": 42.7097,
      "duration": 0.0146,
      "velocity": 103,
      "chip": "ym2612"
    },
    {
      "channel": 1,
      "note": 70,
      "start": 42.7243,
      "duration": 0.0144,
      "velocity": 103,
      "chip": "ym2612"
    },
    {
      "channel": 1,
      "note": 70,
      "start": 42.7387,
      "duration": 0.0144,
      "velocity": 103,
      "chip": "ym2612"
    },
    {
      "channel": 1,
      "note": 70,
      "start": 42.7532,
      "duration": 0.0143,
      "velocity": 103,
      "chip": "ym2612"
    },
    {
      "channel": 1,
      "note": 70,
      "start": 42.7675,
      "duration": 0.0146,
      "velocity": 103,
      "chip": "ym2612"
    },
    {
      "channel": 1,
      "note": 70,
      "start": 42.782,
      "duration": 0.0144,
      "velocity": 103,
      "chip": "ym2612"
    },
    {
      "channel": 1,
      "note": 70,
      "start": 42.7965,
      "duration": 0.0144,
      "velocity": 103,
      "chip": "ym2612"
    },
    {
      "channel": 1,
      "note": 70,
      "start": 42.8109,
      "duration": 0.0147,
      "velocity": 103,
      "chip": "ym2612"
    },
    {
      "channel": 0,
      "note": 47,
      "start": 42.8254,
      "duration": 0.142,
      "velocity": 95,
      "chip": "ym2612"
    },
    {
      "channel": 2,
      "note": 66,
      "start": 42.8263,
      "duration": 0.1417,
      "velocity": 103,
      "chip": "ym2612"
    },
    {
      "channel": 3,
      "note": 70,
      "start": 42.827,
      "duration": 0.1416,
      "velocity": 89,
      "chip": "ym2612"
    },
    {
      "channel": 4,
      "note": 78,
      "start": 42.8277,
      "duration": 0.1416,
      "velocity": 89,
      "chip": "ym2612"
    },
    {
      "channel": 0,
      "note": 47,
      "start": 42.9678,
      "duration": 0.173,
      "velocity": 95,
      "chip": "ym2612"
    },
    {
      "channel": 2,
      "note": 65,
      "start": 42.9685,
      "duration": 0.173,
      "velocity": 103,
      "chip": "ym2612"
    },
    {
      "channel": 3,
      "note": 68,
      "start": 42.9691,
      "duration": 0.173,
      "velocity": 89,
      "chip": "ym2612"
    },
    {
      "channel": 4,
      "note": 77,
      "start": 42.9697,
      "duration": 0.1726,
      "velocity": 89,
      "chip": "ym2612"
    },
    {
      "channel": 0,
      "note": 47,
      "start": 43.1412,
      "duration": 0.023,
      "velocity": 95,
      "chip": "ym2612"
    },
    {
      "channel": 2,
      "note": 63,
      "start": 43.1419,
      "duration": 0.023,
      "velocity": 103,
      "chip": "ym2612"
    },
    {
      "channel": 0,
      "note": 47,
      "start": 43.1646,
      "duration": 0.1678,
      "velocity": 95,
      "chip": "ym2612"
    },
    {
      "channel": 2,
      "note": 65,
      "start": 43.1653,
      "duration": 0.3107,
      "velocity": 103,
      "chip": "ym2612"
    },
    {
      "channel": 3,
      "note": 68,
      "start": 43.1659,
      "duration": 0.3107,
      "velocity": 89,
      "chip": "ym2612"
    },
    {
      "channel": 4,
      "note": 75,
      "start": 43.1665,
      "duration": 0.3108,
      "velocity": 89,
      "chip": "ym2612"
    },
    {
      "channel": 0,
      "note": 47,
      "start": 43.3329,
      "duration": 0.1424,
      "velocity": 95,
      "chip": "ym2612"
    },
    {
      "channel": 0,
      "note": 47,
      "start": 43.4757,
      "duration": 0.1729,
      "velocity": 95,
      "chip": "ym2612"
    },
    {
      "channel": 2,
      "note": 66,
      "start": 43.4764,
      "duration": 0.173,
      "velocity": 103,
      "chip": "ym2612"
    },
    {
      "channel": 3,
      "note": 68,
      "start": 43.4771,
      "duration": 0.173,
      "velocity": 89,
      "chip": "ym2612"
    },
    {
      "channel": 4,
      "note": 75,
      "start": 43.4776,
      "duration": 0.1729,
      "velocity": 89,
      "chip": "ym2612"
    },
    {
      "channel": 0,
      "note": 47,
      "start": 43.6491,
      "duration": 0.0282,
      "velocity": 95,
      "chip": "ym2612"
    },
    {
      "channel": 2,
      "note": 68,
      "start": 43.6498,
      "duration": 0.192,
      "velocity": 103,
      "chip": "ym2612"
    },
    {
      "channel": 3,
      "note": 68,
      "start": 43.6504,
      "duration": 0.1922,
      "velocity": 89,
      "chip": "ym2612"
    },
    {
      "channel": 4,
      "note": 77,
      "start": 43.651,
      "duration": 0.1922,
      "velocity": 89,
      "chip": "ym2612"
    },
    {
      "channel": 0,
      "note": 47,
      "start": 43.6777,
      "duration": 0.1629,
      "velocity": 95,
      "chip": "ym2612"
    },
    {
      "channel": 0,
      "note": 51,
      "start": 43.841,
      "duration": 0.142,
      "velocity": 95,
      "chip": "ym2612"
    },
    {
      "channel": 2,
      "note": 63,
      "start": 43.8423,
      "duration": 0.3156,
      "velocity": 103,
      "chip": "ym2612"
    },
    {
      "channel": 3,
      "note": 70,
      "start": 43.843,
      "duration": 0.5068,
      "velocity": 89,
      "chip": "ym2612"
    },
    {
      "channel": 4,
      "note": 75,
      "start": 43.8437,
      "duration": 0.5068,
      "velocity": 89,
      "chip": "ym2612"
    },
    {
      "channel": 0,
      "note": 51,
      "start": 43.9834,
      "duration": 0.1729,
      "velocity": 95,
      "chip": "ym2612"
    },
    {
      "channel": 0,
      "note": 51,
      "start": 44.1568,
      "duration": 0.0333,
      "velocity": 95,
      "chip": "ym2612"
    },
    {
      "channel": 1,
      "note": 63,
      "start": 44.1574,
      "duration": 0.1912,
      "velocity": 103,
      "chip": "ym2612"
    },
    {
      "channel": 2,
      "note": 63,
      "start": 44.1579,
      "duration": 0.0032,
      "velocity": 103,
      "chip": "ym2612"
    },
    {
      "channel": 2,
      "note": 63,
      "start": 44.1611,
      "duration": 0.0028,
      "velocity": 103,
      "chip": "ym2612"
    },
    {
      "channel": 2,
      "note": 63,
      "start": 44.1639,
      "duration": 0.0029,
      "velocity": 103,
      "chip": "ym2612"
    },
    {
      "channel": 2,
      "note": 63,
      "start": 44.1668,
      "duration": 0.0024,
      "velocity": 103,
      "chip": "ym2612"
    },
    {
      "channel": 2,
      "note": 63,
      "start": 44.1692,
      "duration": 0.0027,
      "velocity": 103,
      "chip": "ym2612"
    },
    {
      "channel": 2,
      "note": 63,
      "start": 44.1718,
      "duration": 0.0029,
      "velocity": 103,
      "chip": "ym2612"
    },
    {
      "channel": 2,
      "note": 63,
      "start": 44.1747,
      "duration": 0.0029,
      "velocity": 103,
      "chip": "ym2612"
    },
    {
      "channel": 2,
      "note": 63,
      "start": 44.1776,
      "duration": 0.0029,
      "velocity": 103,
      "chip": "ym2612"
    },
    {
      "channel": 2,
      "note": 63,
      "start": 44.1804,
      "duration": 0.0028,
      "velocity": 103,
      "chip": "ym2612"
    },
    {
      "channel": 2,
      "note": 63,
      "start": 44.1832,
      "duration": 0.0027,
      "velocity": 103,
      "chip": "ym2612"
    },
    {
      "channel": 2,
      "note": 63,
      "start": 44.1859,
      "duration": 0.0024,
      "velocity": 103,
      "chip": "ym2612"
    },
    {
      "channel": 2,
      "note": 63,
      "start": 44.1883,
      "duration": 0.0029,
      "velocity": 103,
      "chip": "ym2612"
    },
    {
      "channel": 0,
      "note": 51,
      "start": 44.1905,
      "duration": 0.1574,
      "velocity": 95,
      "chip": "ym2612"
    },
    {
      "channel": 2,
      "note": 63,
      "start": 44.1912,
      "duration": 0.0025,
      "velocity": 103,
      "chip": "ym2612"
    },
    {
      "channel": 2,
      "note": 63,
      "start": 44.1937,
      "duration": 0.0107,
      "velocity": 103,
      "chip": "ym2612"
    },
    {
      "channel": 2,
      "note": 63,
      "start": 44.2044,
      "duration": 0.0146,
      "velocity": 103,
      "chip": "ym2612"
    },
    {
      "channel": 2,
      "note": 63,
      "start": 44.219,
      "duration": 0.0144,
      "velocity": 103,
      "chip": "ym2612"
    },
    {
      "channel": 2,
      "note": 63,
      "start": 44.2334,
      "duration": 0.0144,
      "velocity": 103,
      "chip": "ym2612"
    },
    {
      "channel": 2,
      "note": 63,
      "start": 44.2478,
      "duration": 0.0144,
      "velocity": 103,
      "chip": "ym2612"
    },
    {
      "channel": 2,
      "note": 63,
      "start": 44.2623,
      "duration": 0.0143,
      "velocity": 103,
      "chip": "ym2612"
    },
    {
      "channel": 2,
      "note": 63,
      "start": 44.2766,
      "duration": 0.0146,
      "velocity": 103,
      "chip": "ym2612"
    },
    {
      "channel": 2,
      "note": 63,
      "start": 44.2912,
      "duration": 0.0144,
      "velocity": 103,
      "chip": "ym2612"
    },
    {
      "channel": 2,
      "note": 63,
      "start": 44.3056,
      "duration": 0.0145,
      "velocity": 103,
      "chip": "ym2612"
    },
    {
      "channel": 2,
      "note": 63,
      "start": 44.3201,
      "duration": 0.0142,
      "velocity": 103,
      "chip": "ym2612"
    },
    {
      "channel": 2,
      "note": 63,
      "start": 44.3343,
      "duration": 0.0148,
      "velocity": 103,
      "chip": "ym2612"
    },
    {
      "channel": 0,
      "note": 51,
      "start": 44.3484,
      "duration": 0.1424,
      "velocity": 95,
      "chip": "ym2612"
    },
    {
      "channel": 1,
      "note": 65,
      "start": 44.349,
      "duration": 0.3156,
      "velocity": 103,
      "chip": "ym2612"
    },
    {
      "channel": 2,
      "note": 65,
      "start": 44.3496,
      "duration": 0.316,
      "velocity": 103,
      "chip": "ym2612"
    },
    {
      "channel": 3,
      "note": 73,
      "start": 44.3502,
      "duration": 0.508,
      "velocity": 89,
      "chip": "ym2612"
    },
    {
      "channel": 4,
      "note": 77,
      "start": 44.3509,
      "duration": 0.508,
      "velocity": 89,
      "chip": "ym2612"
    },
    {
      "channel": 0,
      "note": 51,
      "start": 44.4912,
      "duration": 0.1729,
      "velocity": 95,
      "chip": "ym2612"
    },
    {
      "channel": 0,
      "note": 51,
      "start": 44.6645,
      "duration": 0.0335,
      "velocity": 95,
      "chip": "ym2612"
    },
    {
      "channel": 1,
      "note": 66,
      "start": 44.6651,
      "duration": 0.1919,
      "velocity": 103,
      "chip": "ym2612"
    },
    {
      "channel": 2,
      "note": 65,
      "start": 44.6656,
      "duration": 0.0033,
      "velocity": 103,
      "chip": "ym2612"
    },
    {
      "channel": 2,
      "note": 65,
      "start": 44.669,
      "duration": 0.0022,
      "velocity": 103,
      "chip": "ym2612"
    },
    {
      "channel": 2,
      "note": 65,
      "start": 44.6712,
      "duration": 0.0029,
      "velocity": 103,
      "chip": "ym2612"
    },
    {
      "channel": 2,
      "note": 65,
      "start": 44.674,
      "duration": 0.0028,
      "velocity": 103,
      "chip": "ym2612"
    },
    {
      "channel": 2,
      "note": 65,
      "start": 44.6768,
      "duration": 0.0029,
      "velocity": 103,
      "chip": "ym2612"
    },
    {
      "channel": 2,
      "note": 65,
      "start": 44.6797,
      "duration": 0.0028,
      "velocity": 103,
      "chip": "ym2612"
    },
    {
      "channel": 2,
      "note": 65,
      "start": 44.6825,
      "duration": 0.0029,
      "velocity": 103,
      "chip": "ym2612"
    },
    {
      "channel": 2,
      "note": 65,
      "start": 44.6854,
      "duration": 0.0029,
      "velocity": 103,
      "chip": "ym2612"
    },
    {
      "channel": 2,
      "note": 65,
      "start": 44.6883,
      "duration": 0.0024,
      "velocity": 103,
      "chip": "ym2612"
    },
    {
      "channel": 2,
      "note": 65,
      "start": 44.6907,
      "duration": 0.0028,
      "velocity": 103,
      "chip": "ym2612"
    },
    {
      "channel": 2,
      "note": 65,
      "start": 44.6935,
      "duration": 0.0027,
      "velocity": 103,
      "chip": "ym2612"
    },
    {
      "channel": 2,
      "note": 65,
      "start": 44.6962,
      "duration": 0.0029,
      "velocity": 103,
      "chip": "ym2612"
    },
    {
      "channel": 0,
      "note": 51,
      "start": 44.6985,
      "duration": 0.1578,
      "velocity": 95,
      "chip": "ym2612"
    },
    {
      "channel": 2,
      "note": 65,
      "start": 44.6992,
      "duration": 0.0026,
      "velocity": 103,
      "chip": "ym2612"
    },
    {
      "channel": 2,
      "note": 65,
      "start": 44.7017,
      "duration": 0.0107,
      "velocity": 103,
      "chip": "ym2612"
    },
    {
      "channel": 2,
      "note": 65,
      "start": 44.7124,
      "duration": 0.0143,
      "velocity": 103,
      "chip": "ym2612"
    },
    {
      "channel": 2,
      "note": 65,
      "start": 44.7267,
      "duration": 0.0146,
      "velocity": 103,
      "chip": "ym2612"
    },
    {
      "channel": 2,
      "note": 65,
      "start": 44.7413,
      "duration": 0.0145,
      "velocity": 103,
      "chip": "ym2612"
    },
    {
      "channel": 2,
      "note": 65,
      "start": 44.7558,
      "duration": 0.0144,
      "velocity": 103,
      "chip": "ym2612"
    },
    {
      "channel": 2,
      "note": 65,
      "start": 44.7702,
      "duration": 0.0144,
      "velocity": 103,
      "chip": "ym2612"
    },
    {
      "channel": 2,
      "note": 65,
      "start": 44.7847,
      "duration": 0.0143,
      "velocity": 103,
      "chip": "ym2612"
    },
    {
      "channel": 2,
      "note": 65,
      "start": 44.799,
      "duration": 0.0146,
      "velocity": 103,
      "chip": "ym2612"
    },
    {
      "channel": 2,
      "note": 65,
      "start": 44.8136,
      "duration": 0.0144,
      "velocity": 103,
      "chip": "ym2612"
    },
    {
      "channel": 2,
      "note": 65,
      "start": 44.828,
      "duration": 0.0144,
      "velocity": 103,
      "chip": "ym2612"
    },
    {
      "channel": 2,
      "note": 65,
      "start": 44.8424,
      "duration": 0.0151,
      "velocity": 103,
      "chip": "ym2612"
    },
    {
      "channel": 0,
      "note": 51,
      "start": 44.8568,
      "duration": 0.142,
      "velocity": 95,
      "chip": "ym2612"
    },
    {
      "channel": 1,
      "note": 68,
      "start": 44.8575,
      "duration": 0.3152,
      "velocity": 103,
      "chip": "ym2612"
    },
    {
      "channel": 2,
      "note": 66,
      "start": 44.858,
      "duration": 0.3156,
      "velocity": 103,
      "chip": "ym2612"
    },
    {
      "channel": 3,
      "note": 75,
      "start": 44.8587,
      "duration": 0.5073,
      "velocity": 89,
      "chip": "ym2612"
    },
    {
      "channel": 4,
      "note": 78,
      "start": 44.8593,
      "duration": 0.5073,
      "velocity": 89,
      "chip": "ym2612"
    },
    {
      "channel": 0,
      "note": 51,
      "start": 44.9992,
      "duration": 0.1729,
      "velocity": 95,
      "chip": "ym2612"
    },
    {
      "channel": 0,
      "note": 51,
      "start": 45.1725,
      "duration": 0.0341,
      "velocity": 95,
      "chip": "ym2612"
    },
    {
      "channel": 1,
      "note": 71,
      "start": 45.1731,
      "duration": 0.1916,
      "velocity": 103,
      "chip": "ym2612"
    },
    {
      "channel": 2,
      "note": 66,
      "start": 45.1736,
      "duration": 0.0034,
      "velocity": 103,
      "chip": "ym2612"
    },
    {
      "channel": 2,
      "note": 66,
      "start": 45.177,
      "duration": 0.0027,
      "velocity": 103,
      "chip": "ym2612"
    },
    {
      "channel": 2,
      "note": 66,
      "start": 45.1797,
      "duration": 0.0029,
      "velocity": 103,
      "chip": "ym2612"
    },
    {
      "channel": 2,
      "note": 66,
      "start": 45.1826,
      "duration": 0.0029,
      "velocity": 103,
      "chip": "ym2612"
    },
    {
      "channel": 2,
      "note": 66,
      "start": 45.1854,
      "duration": 0.0029,
      "velocity": 103,
      "chip": "ym2612"
    },
    {
      "channel": 2,
      "note": 66,
      "start": 45.1883,
      "duration": 0.0027,
      "velocity": 103,
      "chip": "ym2612"
    },
    {
      "channel": 2,
      "note": 66,
      "start": 45.191,
      "duration": 0.0029,
      "velocity": 103,
      "chip": "ym2612"
    },
    {
      "channel": 2,
      "note": 66,
      "start": 45.1939,
      "duration": 0.0024,
      "velocity": 103,
      "chip": "ym2612"
    },
    {
      "channel": 2,
      "note": 66,
      "start": 45.1963,
      "duration": 0.0028,
      "velocity": 103,
      "chip": "ym2612"
    },
    {
      "channel": 2,
      "note": 66,
      "start": 45.1992,
      "duration": 0.0029,
      "velocity": 103,
      "chip": "ym2612"
    },
    {
      "channel": 2,
      "note": 66,
      "start": 45.2021,
      "duration": 0.0026,
      "velocity": 103,
      "chip": "ym2612"
    },
    {
      "channel": 2,
      "note": 66,
      "start": 45.2047,
      "duration": 0.0029,
      "velocity": 103,
      "chip": "ym2612"
    },
    {
      "channel": 0,
      "note": 51,
      "start": 45.2071,
      "duration": 0.157,
      "velocity": 95,
      "chip": "ym2612"
    },
    {
      "channel": 2,
      "note": 66,
      "start": 45.2076,
      "duration": 0.0026,
      "velocity": 103,
      "chip": "ym2612"
    },
    {
      "channel": 2,
      "note": 66,
      "start": 45.2102,
      "duration": 0.0103,
      "velocity": 103,
      "chip": "ym2612"
    },
    {
      "channel": 2,
      "note": 66,
      "start": 45.2205,
      "duration": 0.0143,
      "velocity": 103,
      "chip": "ym2612"
    },
    {
      "channel": 2,
      "note": 66,
      "start": 45.2348,
      "duration": 0.0146,
      "velocity": 103,
      "chip": "ym2612"
    },
    {
      "channel": 2,
      "note": 66,
      "start": 45.2495,
      "duration": 0.0144,
      "velocity": 103,
      "chip": "ym2612"
    },
    {
      "channel": 2,
      "note": 66,
      "start": 45.2639,
      "duration": 0.0144,
      "velocity": 103,
      "chip": "ym2612"
    },
    {
      "channel": 2,
      "note": 66,
      "start": 45.2783,
      "duration": 0.0144,
      "velocity": 103,
      "chip": "ym2612"
    },
    {
      "channel": 2,
      "note": 66,
      "start": 45.2928,
      "duration": 0.0143,
      "velocity": 103,
      "chip": "ym2612"
    },
    {
      "channel": 2,
      "note": 66,
      "start": 45.3071,
      "duration": 0.0146,
      "velocity": 103,
      "chip": "ym2612"
    },
    {
      "channel": 2,
      "note": 66,
      "start": 45.3217,
      "duration": 0.0144,
      "velocity": 103,
      "chip": "ym2612"
    },
    {
      "channel": 2,
      "note": 66,
      "start": 45.3361,
      "duration": 0.0144,
      "velocity": 103,
      "chip": "ym2612"
    },
    {
      "channel": 2,
      "note": 66,
      "start": 45.3505,
      "duration": 0.0148,
      "velocity": 103,
      "chip": "ym2612"
    },
    {
      "channel": 0,
      "note": 51,
      "start": 45.3645,
      "duration": 0.1424,
      "velocity": 95,
      "chip": "ym2612"
    },
    {
      "channel": 1,
      "note": 70,
      "start": 45.3651,
      "duration": 0.3158,
      "velocity": 103,
      "chip": "ym2612"
    },
    {
      "channel": 2,
      "note": 68,
      "start": 45.3658,
      "duration": 0.316,
      "velocity": 103,
      "chip": "ym2612"
    },
    {
      "channel": 3,
      "note": 75,
      "start": 45.3664,
      "duration": 0.5073,
      "velocity": 89,
      "chip": "ym2612"
    },
    {
      "channel": 4,
      "note": 80,
      "start": 45.3671,
      "duration": 0.5072,
      "velocity": 89,
      "chip": "ym2612"
    },
    {
      "channel": 0,
      "note": 51,
      "start": 45.5073,
      "duration": 0.173,
      "velocity": 95,
      "chip": "ym2612"
    },
    {
      "channel": 0,
      "note": 51,
      "start": 45.6807,
      "duration": 0.0338,
      "velocity": 95,
      "chip": "ym2612"
    },
    {
      "channel": 1,
      "note": 68,
      "start": 45.6813,
      "duration": 0.0339,
      "velocity": 103,
      "chip": "ym2612"
    },
    {
      "channel": 2,
      "note": 69,
      "start": 45.6818,
      "duration": 0.0034,
      "velocity": 103,
      "chip": "ym2612"
    },
    {
      "channel": 2,
      "note": 69,
      "start": 45.6851,
      "duration": 0.0027,
      "velocity": 103,
      "chip": "ym2612"
    },
    {
      "channel": 2,
      "note": 68,
      "start": 45.6878,
      "duration": 0.0028,
      "velocity": 103,
      "chip": "ym2612"
    },
    {
      "channel": 2,
      "note": 68,
      "start": 45.6907,
      "duration": 0.0028,
      "velocity": 103,
      "chip": "ym2612"
    },
    {
      "channel": 2,
      "note": 68,
      "start": 45.6935,
      "duration": 0.0028,
      "velocity": 103,
      "chip": "ym2612"
    },
    {
      "channel": 2,
      "note": 68,
      "start": 45.6963,
      "duration": 0.0023,
      "velocity": 103,
      "chip": "ym2612"
    },
    {
      "channel": 2,
      "note": 68,
      "start": 45.6986,
      "duration": 0.0029,
      "velocity": 103,
      "chip": "ym2612"
    },
    {
      "channel": 2,
      "note": 69,
      "start": 45.7015,
      "duration": 0.0029,
      "velocity": 103,
      "chip": "ym2612"
    },
    {
      "channel": 2,
      "note": 69,
      "start": 45.7043,
      "duration": 0.0029,
      "velocity": 103,
      "chip": "ym2612"
    },
    {
      "channel": 2,
      "note": 69,
      "start": 45.7072,
      "duration": 0.0028,
      "velocity": 103,
      "chip": "ym2612"
    },
    {
      "channel": 2,
      "note": 69,
      "start": 45.71,
      "duration": 0.0026,
      "velocity": 103,
      "chip": "ym2612"
    },
    {
      "channel": 2,
      "note": 68,
      "start": 45.7126,
      "duration": 0.0035,
      "velocity": 103,
      "chip": "ym2612"
    },
    {
      "channel": 0,
      "note": 51,
      "start": 45.7149,
      "duration": 0.1573,
      "velocity": 95,
      "chip": "ym2612"
    },
    {
      "channel": 1,
      "note": 66,
      "start": 45.7156,
      "duration": 0.2999,
      "velocity": 103,
      "chip": "ym2612"
    },
    {
      "channel": 2,
      "note": 68,
      "start": 45.7161,
      "duration": 0.002,
      "velocity": 103,
      "chip": "ym2612"
    },
    {
      "channel": 2,
      "note": 68,
      "start": 45.7181,
      "duration": 0.0103,
      "velocity": 103,
      "chip": "ym2612"
    },
    {
      "channel": 2,
      "note": 68,
      "start": 45.7284,
      "duration": 0.0143,
      "velocity": 103,
      "chip": "ym2612"
    },
    {
      "channel": 2,
      "note": 68,
      "start": 45.7427,
      "duration": 0.0146,
      "velocity": 103,
      "chip": "ym2612"
    },
    {
      "channel": 2,
      "note": 69,
      "start": 45.7573,
      "duration": 0.0144,
      "velocity": 103,
      "chip": "ym2612"
    },
    {
      "channel": 2,
      "note": 69,
      "start": 45.7717,
      "duration": 0.0145,
      "velocity": 103,
      "chip": "ym2612"
    },
    {
      "channel": 2,
      "note": 69,
      "start": 45.7862,
      "duration": 0.0144,
      "velocity": 103,
      "chip": "ym2612"
    },
    {
      "channel": 2,
      "note": 69,
      "start": 45.8006,
      "duration": 0.0143,
      "velocity": 103,
      "chip": "ym2612"
    },
    {
      "channel": 2,
      "note": 68,
      "start": 45.8149,
      "duration": 0.0146,
      "velocity": 103,
      "chip": "ym2612"
    },
    {
      "channel": 2,
      "note": 68,
      "start": 45.8295,
      "duration": 0.0144,
      "velocity": 103,
      "chip": "ym2612"
    },
    {
      "channel": 2,
      "note": 68,
      "start": 45.8439,
      "duration": 0.0145,
      "velocity": 103,
      "chip": "ym2612"
    },
    {
      "channel": 2,
      "note": 68,
      "start": 45.8584,
      "duration": 0.0146,
      "velocity": 103,
      "chip": "ym2612"
    },
    {
      "channel": 0,
      "note": 51,
      "start": 45.8727,
      "duration": 0.142,
      "velocity": 95,
      "chip": "ym2612"
    },
    {
      "channel": 2,
      "note": 63,
      "start": 45.8735,
      "duration": 0.3156,
      "velocity": 103,
      "chip": "ym2612"
    },
    {
      "channel": 3,
      "note": 70,
      "start": 45.8741,
      "duration": 0.3156,
      "velocity": 89,
      "chip": "ym2612"
    },
    {
      "channel": 4,
      "note": 75,
      "start": 45.8748,
      "duration": 0.3156,
      "velocity": 89,
      "chip": "ym2612"
    },
    {
      "channel": 0,
      "note": 51,
      "start": 46.0151,
      "duration": 0.1729,
      "velocity": 95,
      "chip": "ym2612"
    },
    {
      "channel": 1,
      "note": 66,
      "start": 46.0155,
      "duration": 0.0141,
      "velocity": 103,
      "chip": "ym2612"
    },
    {
      "channel": 1,
      "note": 66,
      "start": 46.0296,
      "duration": 0.0146,
      "velocity": 103,
      "chip": "ym2612"
    },
    {
      "channel": 1,
      "note": 66,
      "start": 46.0442,
      "duration": 0.0144,
      "velocity": 103,
      "chip": "ym2612"
    },
    {
      "channel": 1,
      "note": 66,
      "start": 46.0586,
      "duration": 0.0144,
      "velocity": 103,
      "chip": "ym2612"
    },
    {
      "channel": 1,
      "note": 66,
      "start": 46.0731,
      "duration": 0.0143,
      "velocity": 103,
      "chip": "ym2612"
    },
    {
      "channel": 1,
      "note": 66,
      "start": 46.0874,
      "duration": 0.0146,
      "velocity": 103,
      "chip": "ym2612"
    },
    {
      "channel": 1,
      "note": 66,
      "start": 46.102,
      "duration": 0.0145,
      "velocity": 103,
      "chip": "ym2612"
    },
    {
      "channel": 1,
      "note": 66,
      "start": 46.1165,
      "duration": 0.0144,
      "velocity": 103,
      "chip": "ym2612"
    },
    {
      "channel": 1,
      "note": 66,
      "start": 46.1308,
      "duration": 0.0144,
      "velocity": 103,
      "chip": "ym2612"
    },
    {
      "channel": 1,
      "note": 66,
      "start": 46.1453,
      "duration": 0.0143,
      "velocity": 103,
      "chip": "ym2612"
    },
    {
      "channel": 1,
      "note": 66,
      "start": 46.1596,
      "duration": 0.0146,
      "velocity": 103,
      "chip": "ym2612"
    },
    {
      "channel": 1,
      "note": 66,
      "start": 46.1741,
      "duration": 0.0147,
      "velocity": 103,
      "chip": "ym2612"
    },
    {
      "channel": 0,
      "note": 51,
      "start": 46.1884,
      "duration": 0.0341,
      "velocity": 95,
      "chip": "ym2612"
    },
    {
      "channel": 1,
      "note": 66,
      "start": 46.1889,
      "duration": 0.0047,
      "velocity": 103,
      "chip": "ym2612"
    },
    {
      "channel": 2,
      "note": 63,
      "start": 46.1895,
      "duration": 0.1914,
      "velocity": 103,
      "chip": "ym2612"
    },
    {
      "channel": 3,
      "note": 70,
      "start": 46.1901,
      "duration": 0.1914,
      "velocity": 89,
      "chip": "ym2612"
    },
    {
      "channel": 4,
      "note": 78,
      "start": 46.1908,
      "duration": 0.1914,
      "velocity": 89,
      "chip": "ym2612"
    },
    {
      "channel": 1,
      "note": 66,
      "start": 46.1936,
      "duration": 0.0026,
      "velocity": 103,
      "chip": "ym2612"
    },
    {
      "channel": 1,
      "note": 66,
      "start": 46.1962,
      "duration": 0.0027,
      "velocity": 103,
      "chip": "ym2612"
    },
    {
      "channel": 1,
      "note": 66,
      "start": 46.1989,
      "duration": 0.0024,
      "velocity": 103,
      "chip": "ym2612"
    },
    {
      "channel": 1,
      "note": 66,
      "start": 46.2013,
      "duration": 0.0029,
      "velocity": 103,
      "chip": "ym2612"
    },
    {
      "channel": 1,
      "note": 66,
      "start": 46.2042,
      "duration": 0.0029,
      "velocity": 103,
      "chip": "ym2612"
    },
    {
      "channel": 1,
      "note": 66,
      "start": 46.2071,
      "duration": 0.0026,
      "velocity": 103,
      "chip": "ym2612"
    },
    {
      "channel": 1,
      "note": 66,
      "start": 46.2097,
      "duration": 0.0028,
      "velocity": 103,
      "chip": "ym2612"
    },
    {
      "channel": 1,
      "note": 66,
      "start": 46.2124,
      "duration": 0.0028,
      "velocity": 103,
      "chip": "ym2612"
    },
    {
      "channel": 1,
      "note": 66,
      "start": 46.2153,
      "duration": 0.0028,
      "velocity": 103,
      "chip": "ym2612"
    },
    {
      "channel": 1,
      "note": 66,
      "start": 46.2181,
      "duration": 0.0023,
      "velocity": 103,
      "chip": "ym2612"
    },
    {
      "channel": 1,
      "note": 66,
      "start": 46.2203,
      "duration": 0.003,
      "velocity": 103,
      "chip": "ym2612"
    },
    {
      "channel": 0,
      "note": 51,
      "start": 46.2229,
      "duration": 0.1569,
      "velocity": 95,
      "chip": "ym2612"
    },
    {
      "channel": 1,
      "note": 66,
      "start": 46.2234,
      "duration": 0.0024,
      "velocity": 103,
      "chip": "ym2612"
    },
    {
      "channel": 1,
      "note": 66,
      "start": 46.2258,
      "duration": 0.0103,
      "velocity": 103,
      "chip": "ym2612"
    },
    {
      "channel": 1,
      "note": 66,
      "start": 46.2361,
      "duration": 0.0144,
      "velocity": 103,
      "chip": "ym2612"
    },
    {
      "channel": 1,
      "note": 66,
      "start": 46.2505,
      "duration": 0.0143,
      "velocity": 103,
      "chip": "ym2612"
    },
    {
      "channel": 1,
      "note": 66,
      "start": 46.2648,
      "duration": 0.0146,
      "velocity": 103,
      "chip": "ym2612"
    },
    {
      "channel": 1,
      "note": 66,
      "start": 46.2794,
      "duration": 0.0144,
      "velocity": 103,
      "chip": "ym2612"
    },
    {
      "channel": 1,
      "note": 66,
      "start": 46.2938,
      "duration": 0.0145,
      "velocity": 103,
      "chip": "ym2612"
    },
    {
      "channel": 1,
      "note": 66,
      "start": 46.3083,
      "duration": 0.0143,
      "velocity": 103,
      "chip": "ym2612"
    },
    {
      "channel": 1,
      "note": 66,
      "start": 46.3226,
      "duration": 0.0145,
      "velocity": 103,
      "chip": "ym2612"
    },
    {
      "channel": 1,
      "note": 66,
      "start": 46.3371,
      "duration": 0.0144,
      "velocity": 103,
      "chip": "ym2612"
    },
    {
      "channel": 1,
      "note": 66,
      "start": 46.3516,
      "duration": 0.0145,
      "velocity": 103,
      "chip": "ym2612"
    },
    {
      "channel": 1,
      "note": 66,
      "start": 46.3661,
      "duration": 0.0146,
      "velocity": 103,
      "chip": "ym2612"
    },
    {
      "channel": 0,
      "note": 51,
      "start": 46.3803,
      "duration": 0.1423,
      "velocity": 95,
      "chip": "ym2612"
    },
    {
      "channel": 1,
      "note": 66,
      "start": 46.3807,
      "duration": 0.0045,
      "velocity": 103,
      "chip": "ym2612"
    },
    {
      "channel": 2,
      "note": 65,
      "start": 46.3814,
      "duration": 0.3157,
      "velocity": 103,
      "chip": "ym2612"
    },
    {
      "channel": 3,
      "note": 70,
      "start": 46.382,
      "duration": 0.1418,
      "velocity": 89,
      "chip": "ym2612"
    },
    {
      "channel": 4,
      "note": 78,
      "start": 46.3826,
      "duration": 0.1418,
      "velocity": 89,
      "chip": "ym2612"
    },
    {
      "channel": 1,
      "note": 66,
      "start": 46.3852,
      "duration": 0.0028,
      "velocity": 103,
      "chip": "ym2612"
    },
    {
      "channel": 1,
      "note": 66,
      "start": 46.388,
      "duration": 0.0053,
      "velocity": 103,
      "chip": "ym2612"
    },
    {
      "channel": 1,
      "note": 66,
      "start": 46.3933,
      "duration": 0.0144,
      "velocity": 103,
      "chip": "ym2612"
    },
    {
      "channel": 1,
      "note": 66,
      "start": 46.4077,
      "duration": 0.0143,
      "velocity": 103,
      "chip": "ym2612"
    },
    {
      "channel": 1,
      "note": 66,
      "start": 46.4221,
      "duration": 0.0146,
      "velocity": 103,
      "chip": "ym2612"
    },
    {
      "channel": 1,
      "note": 66,
      "start": 46.4367,
      "duration": 0.0144,
      "velocity": 103,
      "chip": "ym2612"
    },
    {
      "channel": 1,
      "note": 66,
      "start": 46.4511,
      "duration": 0.0144,
      "velocity": 103,
      "chip": "ym2612"
    },
    {
      "channel": 1,
      "note": 66,
      "start": 46.4655,
      "duration": 0.0145,
      "velocity": 103,
      "chip": "ym2612"
    },
    {
      "channel": 1,
      "note": 66,
      "start": 46.48,
      "duration": 0.0143,
      "velocity": 103,
      "chip": "ym2612"
    },
    {
      "channel": 1,
      "note": 66,
      "start": 46.4943,
      "duration": 0.0146,
      "velocity": 103,
      "chip": "ym2612"
    },
    {
      "channel": 1,
      "note": 66,
      "start": 46.5088,
      "duration": 0.0146,
      "velocity": 103,
      "chip": "ym2612"
    },
    {
      "channel": 0,
      "note": 51,
      "start": 46.523,
      "duration": 0.1729,
      "velocity": 95,
      "chip": "ym2612"
    },
    {
      "channel": 1,
      "note": 66,
      "start": 46.5234,
      "duration": 0.0143,
      "velocity": 103,
      "chip": "ym2612"
    },
    {
      "channel": 3,
      "note": 68,
      "start": 46.5242,
      "duration": 0.1735,
      "velocity": 89,
      "chip": "ym2612"
    },
    {
      "channel": 4,
      "note": 77,
      "start": 46.5249,
      "duration": 0.1732,
      "velocity": 89,
      "chip": "ym2612"
    },
    {
      "channel": 1,
      "note": 66,
      "start": 46.5378,
      "duration": 0.0142,
      "velocity": 103,
      "chip": "ym2612"
    },
    {
      "channel": 1,
      "note": 66,
      "start": 46.552,
      "duration": 0.0146,
      "velocity": 103,
      "chip": "ym2612"
    },
    {
      "channel": 1,
      "note": 66,
      "start": 46.5666,
      "duration": 0.0144,
      "velocity": 103,
      "chip": "ym2612"
    },
    {
      "channel": 1,
      "note": 66,
      "start": 46.5811,
      "duration": 0.0144,
      "velocity": 103,
      "chip": "ym2612"
    },
    {
      "channel": 1,
      "note": 66,
      "start": 46.5955,
      "duration": 0.0145,
      "velocity": 103,
      "chip": "ym2612"
    },
    {
      "channel": 1,
      "note": 66,
      "start": 46.61,
      "duration": 0.0143,
      "velocity": 103,
      "chip": "ym2612"
    },
    {
      "channel": 1,
      "note": 66,
      "start": 46.6244,
      "duration": 0.0146,
      "velocity": 103,
      "chip": "ym2612"
    },
    {
      "channel": 1,
      "note": 66,
      "start": 46.6389,
      "duration": 0.0144,
      "velocity": 103,
      "chip": "ym2612"
    },
    {
      "channel": 1,
      "note": 66,
      "start": 46.6533,
      "duration": 0.0145,
      "velocity": 103,
      "chip": "ym2612"
    },
    {
      "channel": 1,
      "note": 66,
      "start": 46.6678,
      "duration": 0.0143,
      "velocity": 103,
      "chip": "ym2612"
    },
    {
      "channel": 1,
      "note": 66,
      "start": 46.6821,
      "duration": 0.0148,
      "velocity": 103,
      "chip": "ym2612"
    },
    {
      "channel": 0,
      "note": 51,
      "start": 46.6964,
      "duration": 0.029,
      "velocity": 95,
      "chip": "ym2612"
    },
    {
      "channel": 1,
      "note": 66,
      "start": 46.6969,
      "duration": 0.0039,
      "velocity": 103,
      "chip": "ym2612"
    },
    {
      "channel": 2,
      "note": 66,
      "start": 46.6975,
      "duration": 0.1917,
      "velocity": 103,
      "chip": "ym2612"
    },
    {
      "channel": 1,
      "note": 66,
      "start": 46.7009,
      "duration": 0.0019,
      "velocity": 103,
      "chip": "ym2612"
    },
    {
      "channel": 1,
      "note": 66,
      "start": 46.7028,
      "duration": 0.0024,
      "velocity": 103,
      "chip": "ym2612"
    },
    {
      "channel": 1,
      "note": 66,
      "start": 46.7051,
      "duration": 0.0022,
      "velocity": 103,
      "chip": "ym2612"
    },
    {
      "channel": 1,
      "note": 66,
      "start": 46.7073,
      "duration": 0.0024,
      "velocity": 103,
      "chip": "ym2612"
    },
    {
      "channel": 1,
      "note": 66,
      "start": 46.7097,
      "duration": 0.0024,
      "velocity": 103,
      "chip": "ym2612"
    },
    {
      "channel": 1,
      "note": 66,
      "start": 46.7121,
      "duration": 0.0024,
      "velocity": 103,
      "chip": "ym2612"
    },
    {
      "channel": 1,
      "note": 66,
      "start": 46.7145,
      "duration": 0.0023,
      "velocity": 103,
      "chip": "ym2612"
    },
    {
      "channel": 1,
      "note": 66,
      "start": 46.7168,
      "duration": 0.002,
      "velocity": 103,
      "chip": "ym2612"
    },
    {
      "channel": 1,
      "note": 66,
      "start": 46.7188,
      "duration": 0.0024,
      "velocity": 103,
      "chip": "ym2612"
    },
    {
      "channel": 1,
      "note": 66,
      "start": 46.7212,
      "duration": 0.0024,
      "velocity": 103,
      "chip": "ym2612"
    },
    {
      "channel": 1,
      "note": 66,
      "start": 46.7236,
      "duration": 0.0027,
      "velocity": 103,
      "chip": "ym2612"
    },
    {
      "channel": 0,
      "note": 51,
      "start": 46.7259,
      "duration": 0.1624,
      "velocity": 95,
      "chip": "ym2612"
    },
    {
      "channel": 1,
      "note": 66,
      "start": 46.7263,
      "duration": 0.0032,
      "velocity": 103,
      "chip": "ym2612"
    },
    {
      "channel": 3,
      "note": 68,
      "start": 46.7271,
      "duration": 0.1627,
      "velocity": 89,
      "chip": "ym2612"
    },
    {
      "channel": 4,
      "note": 75,
      "start": 46.7277,
      "duration": 0.1624,
      "velocity": 89,
      "chip": "ym2612"
    },
    {
      "channel": 1,
      "note": 66,
      "start": 46.7296,
      "duration": 0.0145,
      "velocity": 103,
      "chip": "ym2612"
    },
    {
      "channel": 1,
      "note": 66,
      "start": 46.7441,
      "duration": 0.0144,
      "velocity": 103,
      "chip": "ym2612"
    },
    {
      "channel": 1,
      "note": 66,
      "start": 46.7585,
      "duration": 0.0144,
      "velocity": 103,
      "chip": "ym2612"
    },
    {
      "channel": 1,
      "note": 66,
      "start": 46.7729,
      "duration": 0.0143,
      "velocity": 103,
      "chip": "ym2612"
    },
    {
      "channel": 1,
      "note": 66,
      "start": 46.7873,
      "duration": 0.0146,
      "velocity": 103,
      "chip": "ym2612"
    },
    {
      "channel": 1,
      "note": 66,
      "start": 46.8019,
      "duration": 0.0144,
      "velocity": 103,
      "chip": "ym2612"
    },
    {
      "channel": 1,
      "note": 66,
      "start": 46.8163,
      "duration": 0.0145,
      "velocity": 103,
      "chip": "ym2612"
    },
    {
      "channel": 1,
      "note": 66,
      "start": 46.8308,
      "duration": 0.0144,
      "velocity": 103,
      "chip": "ym2612"
    },
    {
      "channel": 1,
      "note": 66,
      "start": 46.8451,
      "duration": 0.0143,
      "velocity": 103,
      "chip": "ym2612"
    },
    {
      "channel": 1,
      "note": 66,
      "start": 46.8595,
      "duration": 0.0146,
      "velocity": 103,
      "chip": "ym2612"
    },
    {
      "channel": 1,
      "note": 66,
      "start": 46.8741,
      "duration": 0.0148,
      "velocity": 103,
      "chip": "ym2612"
    },
    {
      "channel": 0,
      "note": 51,
      "start": 46.8887,
      "duration": 0.1419,
      "velocity": 95,
      "chip": "ym2612"
    },
    {
      "channel": 2,
      "note": 68,
      "start": 46.8896,
      "duration": 0.315,
      "velocity": 103,
      "chip": "ym2612"
    },
    {
      "channel": 0,
      "note": 51,
      "start": 47.031,
      "duration": 0.1729,
      "velocity": 95,
      "chip": "ym2612"
    },
    {
      "channel": 3,
      "note": 68,
      "start": 47.0319,
      "duration": 0.1734,
      "velocity": 89,
      "chip": "ym2612"
    },
    {
      "channel": 4,
      "note": 75,
      "start": 47.0324,
      "duration": 0.173,
      "velocity": 89,
      "chip": "ym2612"
    },
    {
      "channel": 0,
      "note": 51,
      "start": 47.2044,
      "duration": 0.0229,
      "velocity": 95,
      "chip": "ym2612"
    },
    {
      "channel": 2,
      "note": 71,
      "start": 47.205,
      "duration": 0.1912,
      "velocity": 103,
      "chip": "ym2612"
    },
    {
      "channel": 0,
      "note": 51,
      "start": 47.2278,
      "duration": 0.1678,
      "velocity": 95,
      "chip": "ym2612"
    },
    {
      "channel": 3,
      "note": 68,
      "start": 47.2286,
      "duration": 0.1682,
      "velocity": 89,
      "chip": "ym2612"
    },
    {
      "channel": 4,
      "note": 75,
      "start": 47.2292,
      "duration": 0.168,
      "velocity": 89,
      "chip": "ym2612"
    },
    {
      "channel": 0,
      "note": 51,
      "start": 47.396,
      "duration": 0.1424,
      "velocity": 95,
      "chip": "ym2612"
    },
    {
      "channel": 2,
      "note": 70,
      "start": 47.3966,
      "duration": 0.3158,
      "velocity": 103,
      "chip": "ym2612"
    },
    {
      "channel": 0,
      "note": 51,
      "start": 47.5388,
      "duration": 0.1729,
      "velocity": 95,
      "chip": "ym2612"
    },
    {
      "channel": 3,
      "note": 68,
      "start": 47.5396,
      "duration": 0.1734,
      "velocity": 89,
      "chip": "ym2612"
    },
    {
      "channel": 4,
      "note": 77,
      "start": 47.5402,
      "duration": 0.1734,
      "velocity": 89,
      "chip": "ym2612"
    },
    {
      "channel": 0,
      "note": 51,
      "start": 47.7122,
      "duration": 0.0283,
      "velocity": 95,
      "chip": "ym2612"
    },
    {
      "channel": 2,
      "note": 68,
      "start": 47.7128,
      "duration": 0.0284,
      "velocity": 103,
      "chip": "ym2612"
    },
    {
      "channel": 3,
      "note": 68,
      "start": 47.7134,
      "duration": 0.0284,
      "velocity": 89,
      "chip": "ym2612"
    },
    {
      "channel": 4,
      "note": 77,
      "start": 47.7141,
      "duration": 0.028,
      "velocity": 89,
      "chip": "ym2612"
    },
    {
      "channel": 0,
      "note": 51,
      "start": 47.7409,
      "duration": 0.1629,
      "velocity": 95,
      "chip": "ym2612"
    },
    {
      "channel": 2,
      "note": 66,
      "start": 47.7417,
      "duration": 0.3055,
      "velocity": 103,
      "chip": "ym2612"
    },
    {
      "channel": 0,
      "note": 51,
      "start": 47.9043,
      "duration": 0.1419,
      "velocity": 95,
      "chip": "ym2612"
    },
    {
      "channel": 3,
      "note": 70,
      "start": 47.9053,
      "duration": 0.5076,
      "velocity": 89,
      "chip": "ym2612"
    },
    {
      "channel": 4,
      "note": 75,
      "start": 47.906,
      "duration": 0.5076,
      "velocity": 89,
      "chip": "ym2612"
    },
    {
      "channel": 0,
      "note": 51,
      "start": 48.0466,
      "duration": 0.1729,
      "velocity": 95,
      "chip": "ym2612"
    },
    {
      "channel": 2,
      "note": 66,
      "start": 48.0472,
      "duration": 0.0141,
      "velocity": 103,
      "chip": "ym2612"
    },
    {
      "channel": 2,
      "note": 66,
      "start": 48.0612,
      "duration": 0.0146,
      "velocity": 103,
      "chip": "ym2612"
    },
    {
      "channel": 2,
      "note": 66,
      "start": 48.0759,
      "duration": 0.0144,
      "velocity": 103,
      "chip": "ym2612"
    },
    {
      "channel": 2,
      "note": 66,
      "start": 48.0902,
      "duration": 0.0144,
      "velocity": 103,
      "chip": "ym2612"
    },
    {
      "channel": 2,
      "note": 66,
      "start": 48.1047,
      "duration": 0.0144,
      "velocity": 103,
      "chip": "ym2612"
    },
    {
      "channel": 2,
      "note": 66,
      "start": 48.119,
      "duration": 0.0146,
      "velocity": 103,
      "chip": "ym2612"
    },
    {
      "channel": 2,
      "note": 66,
      "start": 48.1336,
      "duration": 0.0144,
      "velocity": 103,
      "chip": "ym2612"
    },
    {
      "channel": 2,
      "note": 66,
      "start": 48.148,
      "duration": 0.0144,
      "velocity": 103,
      "chip": "ym2612"
    },
    {
      "channel": 2,
      "note": 66,
      "start": 48.1625,
      "duration": 0.0144,
      "velocity": 103,
      "chip": "ym2612"
    },
    {
      "channel": 2,
      "note": 66,
      "start": 48.1769,
      "duration": 0.0143,
      "velocity": 103,
      "chip": "ym2612"
    },
    {
      "channel": 2,
      "note": 66,
      "start": 48.1912,
      "duration": 0.0146,
      "velocity": 103,
      "chip": "ym2612"
    },
    {
      "channel": 2,
      "note": 66,
      "start": 48.2059,
      "duration": 0.0149,
      "velocity": 103,
      "chip": "ym2612"
    },
    {
      "channel": 0,
      "note": 51,
      "start": 48.2199,
      "duration": 0.0297,
      "velocity": 95,
      "chip": "ym2612"
    },
    {
      "channel": 1,
      "note": 63,
      "start": 48.2205,
      "duration": 0.1912,
      "velocity": 103,
      "chip": "ym2612"
    },
    {
      "channel": 2,
      "note": 63,
      "start": 48.2212,
      "duration": 0.1911,
      "velocity": 103,
      "chip": "ym2612"
    },
    {
      "channel": 0,
      "note": 51,
      "start": 48.25,
      "duration": 0.1611,
      "velocity": 95,
      "chip": "ym2612"
    },
    {
      "channel": 0,
      "note": 51,
      "start": 48.4116,
      "duration": 0.1421,
      "velocity": 95,
      "chip": "ym2612"
    },
    {
      "channel": 1,
      "note": 65,
      "start": 48.4121,
      "duration": 0.3156,
      "velocity": 103,
      "chip": "ym2612"
    },
    {
      "channel": 2,
      "note": 65,
      "start": 48.4127,
      "duration": 0.3159,
      "velocity": 103,
      "chip": "ym2612"
    },
    {
      "channel": 3,
      "note": 73,
      "start": 48.4133,
      "duration": 0.5077,
      "velocity": 89,
      "chip": "ym2612"
    },
    {
      "channel": 4,
      "note": 77,
      "start": 48.414,
      "duration": 0.5077,
      "velocity": 89,
      "chip": "ym2612"
    },
    {
      "channel": 0,
      "note": 51,
      "start": 48.5541,
      "duration": 0.1729,
      "velocity": 95,
      "chip": "ym2612"
    },
    {
      "channel": 0,
      "note": 51,
      "start": 48.7275,
      "duration": 0.0334,
      "velocity": 95,
      "chip": "ym2612"
    },
    {
      "channel": 1,
      "note": 66,
      "start": 48.7281,
      "duration": 0.1917,
      "velocity": 103,
      "chip": "ym2612"
    },
    {
      "channel": 2,
      "note": 65,
      "start": 48.7286,
      "duration": 0.0032,
      "velocity": 103,
      "chip": "ym2612"
    },
    {
      "channel": 2,
      "note": 65,
      "start": 48.7318,
      "duration": 0.0024,
      "velocity": 103,
      "chip": "ym2612"
    },
    {
      "channel": 2,
      "note": 65,
      "start": 48.7341,
      "duration": 0.0028,
      "velocity": 103,
      "chip": "ym2612"
    },
    {
      "channel": 2,
      "note": 65,
      "start": 48.737,
      "duration": 0.0028,
      "velocity": 103,
      "chip": "ym2612"
    },
    {
      "channel": 2,
      "note": 65,
      "start": 48.7398,
      "duration": 0.0028,
      "velocity": 103,
      "chip": "ym2612"
    },
    {
      "channel": 2,
      "note": 65,
      "start": 48.7425,
      "duration": 0.0029,
      "velocity": 103,
      "chip": "ym2612"
    },
    {
      "channel": 2,
      "note": 65,
      "start": 48.7454,
      "duration": 0.0029,
      "velocity": 103,
      "chip": "ym2612"
    },
    {
      "channel": 2,
      "note": 65,
      "start": 48.7483,
      "duration": 0.0028,
      "velocity": 103,
      "chip": "ym2612"
    },
    {
      "channel": 2,
      "note": 65,
      "start": 48.751,
      "duration": 0.0024,
      "velocity": 103,
      "chip": "ym2612"
    },
    {
      "channel": 2,
      "note": 65,
      "start": 48.7534,
      "duration": 0.0027,
      "velocity": 103,
      "chip": "ym2612"
    },
    {
      "channel": 2,
      "note": 65,
      "start": 48.7562,
      "duration": 0.0028,
      "velocity": 103,
      "chip": "ym2612"
    },
    {
      "channel": 2,
      "note": 65,
      "start": 48.759,
      "duration": 0.0029,
      "velocity": 103,
      "chip": "ym2612"
    },
    {
      "channel": 0,
      "note": 51,
      "start": 48.7613,
      "duration": 0.1578,
      "velocity": 95,
      "chip": "ym2612"
    },
    {
      "channel": 2,
      "note": 65,
      "start": 48.762,
      "duration": 0.0026,
      "velocity": 103,
      "chip": "ym2612"
    },
    {
      "channel": 2,
      "note": 65,
      "start": 48.7645,
      "duration": 0.0106,
      "velocity": 103,
      "chip": "ym2612"
    },
    {
      "channel": 2,
      "note": 65,
      "start": 48.7751,
      "duration": 0.0146,
      "velocity": 103,
      "chip": "ym2612"
    },
    {
      "channel": 2,
      "note": 65,
      "start": 48.7898,
      "duration": 0.0144,
      "velocity": 103,
      "chip": "ym2612"
    },
    {
      "channel": 2,
      "note": 65,
      "start": 48.8042,
      "duration": 0.0144,
      "velocity": 103,
      "chip": "ym2612"
    },
    {
      "channel": 2,
      "note": 65,
      "start": 48.8186,
      "duration": 0.0144,
      "velocity": 103,
      "chip": "ym2612"
    },
    {
      "channel": 2,
      "note": 65,
      "start": 48.8331,
      "duration": 0.0143,
      "velocity": 103,
      "chip": "ym2612"
    },
    {
      "channel": 2,
      "note": 65,
      "start": 48.8474,
      "duration": 0.0146,
      "velocity": 103,
      "chip": "ym2612"
    },
    {
      "channel": 2,
      "note": 65,
      "start": 48.862,
      "duration": 0.0144,
      "velocity": 103,
      "chip": "ym2612"
    },
    {
      "channel": 2,
      "note": 65,
      "start": 48.8764,
      "duration": 0.0144,
      "velocity": 103,
      "chip": "ym2612"
    },
    {
      "channel": 2,
      "note": 65,
      "start": 48.8908,
      "duration": 0.0143,
      "velocity": 103,
      "chip": "ym2612"
    },
    {
      "channel": 2,
      "note": 65,
      "start": 48.9051,
      "duration": 0.0153,
      "velocity": 103,
      "chip": "ym2612"
    },
    {
      "channel": 0,
      "note": 51,
      "start": 48.9196,
      "duration": 0.1418,
      "velocity": 95,
      "chip": "ym2612"
    },
    {
      "channel": 1,
      "note": 68,
      "start": 48.9202,
      "duration": 0.3151,
      "velocity": 103,
      "chip": "ym2612"
    },
    {
      "channel": 2,
      "note": 66,
      "start": 48.9209,
      "duration": 0.3154,
      "velocity": 103,
      "chip": "ym2612"
    },
    {
      "channel": 3,
      "note": 75,
      "start": 48.9215,
      "duration": 0.5073,
      "velocity": 89,
      "chip": "ym2612"
    },
    {
      "channel": 4,
      "note": 78,
      "start": 48.9221,
      "duration": 0.5074,
      "velocity": 89,
      "chip": "ym2612"
    },
    {
      "channel": 0,
      "note": 51,
      "start": 49.0618,
      "duration": 0.173,
      "velocity": 95,
      "chip": "ym2612"
    },
    {
      "channel": 0,
      "note": 51,
      "start": 49.2352,
      "duration": 0.0342,
      "velocity": 95,
      "chip": "ym2612"
    },
    {
      "channel": 1,
      "note": 71,
      "start": 49.2358,
      "duration": 0.1917,
      "velocity": 103,
      "chip": "ym2612"
    },
    {
      "channel": 2,
      "note": 66,
      "start": 49.2362,
      "duration": 0.0034,
      "velocity": 103,
      "chip": "ym2612"
    },
    {
      "channel": 2,
      "note": 66,
      "start": 49.2396,
      "duration": 0.0027,
      "velocity": 103,
      "chip": "ym2612"
    },
    {
      "channel": 2,
      "note": 66,
      "start": 49.2423,
      "duration": 0.0029,
      "velocity": 103,
      "chip": "ym2612"
    },
    {
      "channel": 2,
      "note": 66,
      "start": 49.2452,
      "duration": 0.0028,
      "velocity": 103,
      "chip": "ym2612"
    },
    {
      "channel": 2,
      "note": 66,
      "start": 49.248,
      "duration": 0.0029,
      "velocity": 103,
      "chip": "ym2612"
    },
    {
      "channel": 2,
      "note": 66,
      "start": 49.2509,
      "duration": 0.0028,
      "velocity": 103,
      "chip": "ym2612"
    },
    {
      "channel": 2,
      "note": 66,
      "start": 49.2537,
      "duration": 0.0024,
      "velocity": 103,
      "chip": "ym2612"
    },
    {
      "channel": 2,
      "note": 66,
      "start": 49.2561,
      "duration": 0.0029,
      "velocity": 103,
      "chip": "ym2612"
    },
    {
      "channel": 2,
      "note": 66,
      "start": 49.259,
      "duration": 0.0029,
      "velocity": 103,
      "chip": "ym2612"
    },
    {
      "channel": 2,
      "note": 66,
      "start": 49.2619,
      "duration": 0.0029,
      "velocity": 103,
      "chip": "ym2612"
    },
    {
      "channel": 2,
      "note": 66,
      "start": 49.2648,
      "duration": 0.0027,
      "velocity": 103,
      "chip": "ym2612"
    },
    {
      "channel": 2,
      "note": 66,
      "start": 49.2675,
      "duration": 0.0029,
      "velocity": 103,
      "chip": "ym2612"
    },
    {
      "channel": 0,
      "note": 51,
      "start": 49.2698,
      "duration": 0.157,
      "velocity": 95,
      "chip": "ym2612"
    },
    {
      "channel": 2,
      "note": 66,
      "start": 49.2704,
      "duration": 0.0025,
      "velocity": 103,
      "chip": "ym2612"
    },
    {
      "channel": 2,
      "note": 66,
      "start": 49.2729,
      "duration": 0.0105,
      "velocity": 103,
      "chip": "ym2612"
    },
    {
      "channel": 2,
      "note": 66,
      "start": 49.2834,
      "duration": 0.0143,
      "velocity": 103,
      "chip": "ym2612"
    },
    {
      "channel": 2,
      "note": 66,
      "start": 49.2977,
      "duration": 0.0146,
      "velocity": 103,
      "chip": "ym2612"
    },
    {
      "channel": 2,
      "note": 66,
      "start": 49.3123,
      "duration": 0.0144,
      "velocity": 103,
      "chip": "ym2612"
    },
    {
      "channel": 2,
      "note": 66,
      "start": 49.3267,
      "duration": 0.0144,
      "velocity": 103,
      "chip": "ym2612"
    },
    {
      "channel": 2,
      "note": 66,
      "start": 49.3412,
      "duration": 0.0144,
      "velocity": 103,
      "chip": "ym2612"
    },
    {
      "channel": 2,
      "note": 66,
      "start": 49.3556,
      "duration": 0.0143,
      "velocity": 103,
      "chip": "ym2612"
    },
    {
      "channel": 2,
      "note": 66,
      "start": 49.3699,
      "duration": 0.0146,
      "velocity": 103,
      "chip": "ym2612"
    },
    {
      "channel": 2,
      "note": 66,
      "start": 49.3845,
      "duration": 0.0144,
      "velocity": 103,
      "chip": "ym2612"
    },
    {
      "channel": 2,
      "note": 66,
      "start": 49.3989,
      "duration": 0.0145,
      "velocity": 103,
      "chip": "ym2612"
    },
    {
      "channel": 2,
      "note": 66,
      "start": 49.4134,
      "duration": 0.0147,
      "velocity": 103,
      "chip": "ym2612"
    },
    {
      "channel": 0,
      "note": 51,
      "start": 49.4273,
      "duration": 0.1423,
      "velocity": 95,
      "chip": "ym2612"
    },
    {
      "channel": 1,
      "note": 70,
      "start": 49.4279,
      "duration": 0.1423,
      "velocity": 103,
      "chip": "ym2612"
    },
    {
      "channel": 2,
      "note": 68,
      "start": 49.4285,
      "duration": 0.3154,
      "velocity": 103,
      "chip": "ym2612"
    },
    {
      "channel": 3,
      "note": 75,
      "start": 49.4292,
      "duration": 0.5081,
      "velocity": 89,
      "chip": "ym2612"
    },
    {
      "channel": 4,
      "note": 80,
      "start": 49.43,
      "duration": 0.5082,
      "velocity": 89,
      "chip": "ym2612"
    },
    {
      "channel": 0,
      "note": 51,
      "start": 49.57,
      "duration": 0.1729,
      "velocity": 95,
      "chip": "ym2612"
    },
    {
      "channel": 1,
      "note": 68,
      "start": 49.5706,
      "duration": 0.2072,
      "velocity": 103,
      "chip": "ym2612"
    },
    {
      "channel": 0,
      "note": 51,
      "start": 49.7434,
      "duration": 0.0335,
      "velocity": 95,
      "chip": "ym2612"
    },
    {
      "channel": 2,
      "note": 69,
      "start": 49.744,
      "duration": 0.0034,
      "velocity": 103,
      "chip": "ym2612"
    },
    {
      "channel": 2,
      "note": 69,
      "start": 49.7473,
      "duration": 0.0028,
      "velocity": 103,
      "chip": "ym2612"
    },
    {
      "channel": 2,
      "note": 68,
      "start": 49.7501,
      "duration": 0.0027,
      "velocity": 103,
      "chip": "ym2612"
    },
    {
      "channel": 2,
      "note": 68,
      "start": 49.7529,
      "duration": 0.0028,
      "velocity": 103,
      "chip": "ym2612"
    },
    {
      "channel": 2,
      "note": 68,
      "start": 49.7557,
      "duration": 0.003,
      "velocity": 103,
      "chip": "ym2612"
    },
    {
      "channel": 2,
      "note": 68,
      "start": 49.7587,
      "duration": 0.0023,
      "velocity": 103,
      "chip": "ym2612"
    },
    {
      "channel": 2,
      "note": 68,
      "start": 49.7609,
      "duration": 0.0029,
      "velocity": 103,
      "chip": "ym2612"
    },
    {
      "channel": 2,
      "note": 69,
      "start": 49.7638,
      "duration": 0.0029,
      "velocity": 103,
      "chip": "ym2612"
    },
    {
      "channel": 2,
      "note": 69,
      "start": 49.7667,
      "duration": 0.0029,
      "velocity": 103,
      "chip": "ym2612"
    },
    {
      "channel": 2,
      "note": 69,
      "start": 49.7696,
      "duration": 0.0028,
      "velocity": 103,
      "chip": "ym2612"
    },
    {
      "channel": 2,
      "note": 69,
      "start": 49.7723,
      "duration": 0.0027,
      "velocity": 103,
      "chip": "ym2612"
    },
    {
      "channel": 2,
      "note": 68,
      "start": 49.7751,
      "duration": 0.0032,
      "velocity": 103,
      "chip": "ym2612"
    },
    {
      "channel": 0,
      "note": 51,
      "start": 49.7773,
      "duration": 0.1578,
      "velocity": 95,
      "chip": "ym2612"
    },
    {
      "channel": 1,
      "note": 68,
      "start": 49.7778,
      "duration": 0.0022,
      "velocity": 103,
      "chip": "ym2612"
    },
    {
      "channel": 2,
      "note": 68,
      "start": 49.7783,
      "duration": 0.0024,
      "velocity": 103,
      "chip": "ym2612"
    },
    {
      "channel": 1,
      "note": 68,
      "start": 49.7801,
      "duration": 0.011,
      "velocity": 103,
      "chip": "ym2612"
    },
    {
      "channel": 2,
      "note": 68,
      "start": 49.7807,
      "duration": 0.011,
      "velocity": 103,
      "chip": "ym2612"
    },
    {
      "channel": 1,
      "note": 68,
      "start": 49.7911,
      "duration": 0.0144,
      "velocity": 103,
      "chip": "ym2612"
    },
    {
      "channel": 2,
      "note": 68,
      "start": 49.7917,
      "duration": 0.0143,
      "velocity": 103,
      "chip": "ym2612"
    },
    {
      "channel": 1,
      "note": 68,
      "start": 49.8055,
      "duration": 0.0144,
      "velocity": 103,
      "chip": "ym2612"
    },
    {
      "channel": 2,
      "note": 68,
      "start": 49.806,
      "duration": 0.0146,
      "velocity": 103,
      "chip": "ym2612"
    },
    {
      "channel": 1,
      "note": 68,
      "start": 49.82,
      "duration": 0.0143,
      "velocity": 103,
      "chip": "ym2612"
    },
    {
      "channel": 2,
      "note": 69,
      "start": 49.8206,
      "duration": 0.0143,
      "velocity": 103,
      "chip": "ym2612"
    },
    {
      "channel": 1,
      "note": 68,
      "start": 49.8343,
      "duration": 0.0146,
      "velocity": 103,
      "chip": "ym2612"
    },
    {
      "channel": 2,
      "note": 69,
      "start": 49.8349,
      "duration": 0.0146,
      "velocity": 103,
      "chip": "ym2612"
    },
    {
      "channel": 1,
      "note": 68,
      "start": 49.8488,
      "duration": 0.0144,
      "velocity": 103,
      "chip": "ym2612"
    },
    {
      "channel": 2,
      "note": 69,
      "start": 49.8495,
      "duration": 0.0144,
      "velocity": 103,
      "chip": "ym2612"
    },
    {
      "channel": 1,
      "note": 68,
      "start": 49.8633,
      "duration": 0.0145,
      "velocity": 103,
      "chip": "ym2612"
    },
    {
      "channel": 2,
      "note": 69,
      "start": 49.8639,
      "duration": 0.0143,
      "velocity": 103,
      "chip": "ym2612"
    },
    {
      "channel": 1,
      "note": 68,
      "start": 49.8778,
      "duration": 0.0144,
      "velocity": 103,
      "chip": "ym2612"
    },
    {
      "channel": 2,
      "note": 68,
      "start": 49.8782,
      "duration": 0.0146,
      "velocity": 103,
      "chip": "ym2612"
    },
    {
      "channel": 1,
      "note": 68,
      "start": 49.8922,
      "duration": 0.0143,
      "velocity": 103,
      "chip": "ym2612"
    },
    {
      "channel": 2,
      "note": 68,
      "start": 49.8928,
      "duration": 0.0143,
      "velocity": 103,
      "chip": "ym2612"
    },
    {
      "channel": 1,
      "note": 68,
      "start": 49.9065,
      "duration": 0.0146,
      "velocity": 103,
      "chip": "ym2612"
    },
    {
      "channel": 2,
      "note": 68,
      "start": 49.9071,
      "duration": 0.0146,
      "velocity": 103,
      "chip": "ym2612"
    },
    {
      "channel": 1,
      "note": 68,
      "start": 49.921,
      "duration": 0.0148,
      "velocity": 103,
      "chip": "ym2612"
    },
    {
      "channel": 2,
      "note": 68,
      "start": 49.9217,
      "duration": 0.0149,
      "velocity": 103,
      "chip": "ym2612"
    },
    {
      "channel": 0,
      "note": 47,
      "start": 49.9356,
      "duration": 0.142,
      "velocity": 95,
      "chip": "ym2612"
    },
    {
      "channel": 1,
      "note": 66,
      "start": 49.9362,
      "duration": 0.142,
      "velocity": 103,
      "chip": "ym2612"
    },
    {
      "channel": 2,
      "note": 66,
      "start": 49.937,
      "duration": 0.3149,
      "velocity": 103,
      "chip": "ym2612"
    },
    {
      "channel": 3,
      "note": 70,
      "start": 49.9378,
      "duration": 0.3486,
      "velocity": 89,
      "chip": "ym2612"
    },
    {
      "channel": 4,
      "note": 78,
      "start": 49.9386,
      "duration": 0.3484,
      "velocity": 89,
      "chip": "ym2612"
    },
    {
      "channel": 0,
      "note": 47,
      "start": 50.078,
      "duration": 0.1729,
      "velocity": 95,
      "chip": "ym2612"
    },
    {
      "channel": 1,
      "note": 73,
      "start": 50.0787,
      "duration": 0.2064,
      "velocity": 103,
      "chip": "ym2612"
    },
    {
      "channel": 0,
      "note": 47,
      "start": 50.2514,
      "duration": 0.0331,
      "velocity": 95,
      "chip": "ym2612"
    },
    {
      "channel": 2,
      "note": 66,
      "start": 50.2519,
      "duration": 0.0034,
      "velocity": 103,
      "chip": "ym2612"
    },
    {
      "channel": 2,
      "note": 66,
      "start": 50.2553,
      "duration": 0.0027,
      "velocity": 103,
      "chip": "ym2612"
    },
    {
      "channel": 2,
      "note": 66,
      "start": 50.258,
      "duration": 0.0029,
      "velocity": 103,
      "chip": "ym2612"
    },
    {
      "channel": 2,
      "note": 66,
      "start": 50.2609,
      "duration": 0.0024,
      "velocity": 103,
      "chip": "ym2612"
    },
    {
      "channel": 2,
      "note": 66,
      "start": 50.2632,
      "duration": 0.0028,
      "velocity": 103,
      "chip": "ym2612"
    },
    {
      "channel": 2,
      "note": 66,
      "start": 50.266,
      "duration": 0.0027,
      "velocity": 103,
      "chip": "ym2612"
    },
    {
      "channel": 2,
      "note": 66,
      "start": 50.2688,
      "duration": 0.0029,
      "velocity": 103,
      "chip": "ym2612"
    },
    {
      "channel": 2,
      "note": 66,
      "start": 50.2716,
      "duration": 0.0029,
      "velocity": 103,
      "chip": "ym2612"
    },
    {
      "channel": 2,
      "note": 66,
      "start": 50.2745,
      "duration": 0.0029,
      "velocity": 103,
      "chip": "ym2612"
    },
    {
      "channel": 2,
      "note": 66,
      "start": 50.2774,
      "duration": 0.0028,
      "velocity": 103,
      "chip": "ym2612"
    },
    {
      "channel": 2,
      "note": 66,
      "start": 50.2802,
      "duration": 0.0022,
      "velocity": 103,
      "chip": "ym2612"
    },
    {
      "channel": 2,
      "note": 66,
      "start": 50.2825,
      "duration": 0.0032,
      "velocity": 103,
      "chip": "ym2612"
    },
    {
      "channel": 0,
      "note": 47,
      "start": 50.2849,
      "duration": 0.1579,
      "velocity": 95,
      "chip": "ym2612"
    },
    {
      "channel": 1,
      "note": 71,
      "start": 50.2855,
      "duration": 0.301,
      "velocity": 103,
      "chip": "ym2612"
    },
    {
      "channel": 2,
      "note": 66,
      "start": 50.2861,
      "duration": 0.3008,
      "velocity": 103,
      "chip": "ym2612"
    },
    {
      "channel": 3,
      "note": 70,
      "start": 50.2868,
      "duration": 0.6659,
      "velocity": 89,
      "chip": "ym2612"
    },
    {
      "channel": 4,
      "note": 78,
      "start": 50.2874,
      "duration": 0.6659,
      "velocity": 89,
      "chip": "ym2612"
    },
    {
      "channel": 0,
      "note": 47,
      "start": 50.4433,
      "duration": 0.1423,
      "velocity": 95,
      "chip": "ym2612"
    },
    {
      "channel": 0,
      "note": 47,
      "start": 50.586,
      "duration": 0.173,
      "velocity": 95,
      "chip": "ym2612"
    },
    {
      "channel": 1,
      "note": 71,
      "start": 50.5865,
      "duration": 0.0142,
      "velocity": 103,
      "chip": "ym2612"
    },
    {
      "channel": 2,
      "note": 66,
      "start": 50.587,
      "duration": 0.0141,
      "velocity": 103,
      "chip": "ym2612"
    },
    {
      "channel": 1,
      "note": 71,
      "start": 50.6007,
      "duration": 0.0146,
      "velocity": 103,
      "chip": "ym2612"
    },
    {
      "channel": 2,
      "note": 66,
      "start": 50.6011,
      "duration": 0.0147,
      "velocity": 103,
      "chip": "ym2612"
    },
    {
      "channel": 1,
      "note": 71,
      "start": 50.6152,
      "duration": 0.0144,
      "velocity": 103,
      "chip": "ym2612"
    },
    {
      "channel": 2,
      "note": 66,
      "start": 50.6158,
      "duration": 0.0144,
      "velocity": 103,
      "chip": "ym2612"
    },
    {
      "channel": 1,
      "note": 71,
      "start": 50.6297,
      "duration": 0.0144,
      "velocity": 103,
      "chip": "ym2612"
    },
    {
      "channel": 2,
      "note": 66,
      "start": 50.6302,
      "duration": 0.0145,
      "velocity": 103,
      "chip": "ym2612"
    },
    {
      "channel": 1,
      "note": 71,
      "start": 50.6441,
      "duration": 0.0143,
      "velocity": 103,
      "chip": "ym2612"
    },
    {
      "channel": 2,
      "note": 66,
      "start": 50.6448,
      "duration": 0.0141,
      "velocity": 103,
      "chip": "ym2612"
    },
    {
      "channel": 1,
      "note": 71,
      "start": 50.6584,
      "duration": 0.0146,
      "velocity": 103,
      "chip": "ym2612"
    },
    {
      "channel": 2,
      "note": 66,
      "start": 50.6589,
      "duration": 0.0148,
      "velocity": 103,
      "chip": "ym2612"
    },
    {
      "channel": 1,
      "note": 71,
      "start": 50.673,
      "duration": 0.0144,
      "velocity": 103,
      "chip": "ym2612"
    },
    {
      "channel": 2,
      "note": 66,
      "start": 50.6736,
      "duration": 0.0144,
      "velocity": 103,
      "chip": "ym2612"
    },
    {
      "channel": 1,
      "note": 71,
      "start": 50.6874,
      "duration": 0.0144,
      "velocity": 103,
      "chip": "ym2612"
    },
    {
      "channel": 2,
      "note": 66,
      "start": 50.6881,
      "duration": 0.0144,
      "velocity": 103,
      "chip": "ym2612"
    },
    {
      "channel": 1,
      "note": 71,
      "start": 50.7019,
      "duration": 0.0144,
      "velocity": 103,
      "chip": "ym2612"
    },
    {
      "channel": 2,
      "note": 66,
      "start": 50.7025,
      "duration": 0.0144,
      "velocity": 103,
      "chip": "ym2612"
    },
    {
      "channel": 1,
      "note": 71,
      "start": 50.7163,
      "duration": 0.0143,
      "velocity": 103,
      "chip": "ym2612"
    },
    {
      "channel": 2,
      "note": 66,
      "start": 50.717,
      "duration": 0.0141,
      "velocity": 103,
      "chip": "ym2612"
    },
    {
      "channel": 1,
      "note": 71,
      "start": 50.7306,
      "duration": 0.0146,
      "velocity": 103,
      "chip": "ym2612"
    },
    {
      "channel": 2,
      "note": 66,
      "start": 50.7311,
      "duration": 0.0147,
      "velocity": 103,
      "chip": "ym2612"
    },
    {
      "channel": 1,
      "note": 71,
      "start": 50.7453,
      "duration": 0.0143,
      "velocity": 103,
      "chip": "ym2612"
    },
    {
      "channel": 2,
      "note": 66,
      "start": 50.7458,
      "duration": 0.0144,
      "velocity": 103,
      "chip": "ym2612"
    },
    {
      "channel": 0,
      "note": 47,
      "start": 50.7595,
      "duration": 0.0297,
      "velocity": 95,
      "chip": "ym2612"
    },
    {
      "channel": 1,
      "note": 70,
      "start": 50.76,
      "duration": 0.1916,
      "velocity": 103,
      "chip": "ym2612"
    },
    {
      "channel": 2,
      "note": 63,
      "start": 50.7607,
      "duration": 0.1918,
      "velocity": 103,
      "chip": "ym2612"
    },
    {
      "channel": 0,
      "note": 47,
      "start": 50.7896,
      "duration": 0.1614,
      "velocity": 95,
      "chip": "ym2612"
    },
    {
      "channel": 0,
      "note": 47,
      "start": 50.9514,
      "duration": 0.142,
      "velocity": 95,
      "chip": "ym2612"
    },
    {
      "channel": 1,
      "note": 68,
      "start": 50.952,
      "duration": 0.1783,
      "velocity": 103,
      "chip": "ym2612"
    },
    {
      "channel": 2,
      "note": 63,
      "start": 50.9525,
      "duration": 0.0041,
      "velocity": 103,
      "chip": "ym2612"
    },
    {
      "channel": 3,
      "note": 68,
      "start": 50.9531,
      "duration": 0.7465,
      "velocity": 89,
      "chip": "ym2612"
    },
    {
      "channel": 4,
      "note": 77,
      "start": 50.9538,
      "duration": 0.7468,
      "velocity": 89,
      "chip": "ym2612"
    },
    {
      "channel": 2,
      "note": 63,
      "start": 50.9566,
      "duration": 0.0027,
      "velocity": 103,
      "chip": "ym2612"
    },
    {
      "channel": 2,
      "note": 63,
      "start": 50.9593,
      "duration": 0.0052,
      "velocity": 103,
      "chip": "ym2612"
    },
    {
      "channel": 2,
      "note": 63,
      "start": 50.9644,
      "duration": 0.0144,
      "velocity": 103,
      "chip": "ym2612"
    },
    {
      "channel": 2,
      "note": 63,
      "start": 50.9788,
      "duration": 0.0145,
      "velocity": 103,
      "chip": "ym2612"
    },
    {
      "channel": 2,
      "note": 63,
      "start": 50.9933,
      "duration": 0.0143,
      "velocity": 103,
      "chip": "ym2612"
    },
    {
      "channel": 2,
      "note": 63,
      "start": 51.0076,
      "duration": 0.0146,
      "velocity": 103,
      "chip": "ym2612"
    },
    {
      "channel": 2,
      "note": 63,
      "start": 51.0222,
      "duration": 0.0144,
      "velocity": 103,
      "chip": "ym2612"
    },
    {
      "channel": 2,
      "note": 63,
      "start": 51.0366,
      "duration": 0.0144,
      "velocity": 103,
      "chip": "ym2612"
    },
    {
      "channel": 2,
      "note": 63,
      "start": 51.051,
      "duration": 0.0144,
      "velocity": 103,
      "chip": "ym2612"
    },
    {
      "channel": 2,
      "note": 63,
      "start": 51.0655,
      "duration": 0.0143,
      "velocity": 103,
      "chip": "ym2612"
    },
    {
      "channel": 2,
      "note": 63,
      "start": 51.0798,
      "duration": 0.0146,
      "velocity": 103,
      "chip": "ym2612"
    },
    {
      "channel": 0,
      "note": 47,
      "start": 51.0939,
      "duration": 0.0355,
      "velocity": 95,
      "chip": "ym2612"
    },
    {
      "channel": 2,
      "note": 63,
      "start": 51.0944,
      "duration": 0.0032,
      "velocity": 103,
      "chip": "ym2612"
    },
    {
      "channel": 2,
      "note": 63,
      "start": 51.0977,
      "duration": 0.0029,
      "velocity": 103,
      "chip": "ym2612"
    },
    {
      "channel": 2,
      "note": 63,
      "start": 51.1006,
      "duration": 0.0027,
      "velocity": 103,
      "chip": "ym2612"
    },
    {
      "channel": 2,
      "note": 63,
      "start": 51.1033,
      "duration": 0.0024,
      "velocity": 103,
      "chip": "ym2612"
    },
    {
      "channel": 2,
      "note": 63,
      "start": 51.1056,
      "duration": 0.0028,
      "velocity": 103,
      "chip": "ym2612"
    },
    {
      "channel": 2,
      "note": 63,
      "start": 51.1084,
      "duration": 0.0029,
      "velocity": 103,
      "chip": "ym2612"
    },
    {
      "channel": 2,
      "note": 63,
      "start": 51.1113,
      "duration": 0.0028,
      "velocity": 103,
      "chip": "ym2612"
    },
    {
      "channel": 2,
      "note": 63,
      "start": 51.1141,
      "duration": 0.0027,
      "velocity": 103,
      "chip": "ym2612"
    },
    {
      "channel": 2,
      "note": 63,
      "start": 51.1168,
      "duration": 0.0028,
      "velocity": 103,
      "chip": "ym2612"
    },
    {
      "channel": 2,
      "note": 63,
      "start": 51.1196,
      "duration": 0.0028,
      "velocity": 103,
      "chip": "ym2612"
    },
    {
      "channel": 2,
      "note": 63,
      "start": 51.1224,
      "duration": 0.0028,
      "velocity": 103,
      "chip": "ym2612"
    },
    {
      "channel": 2,
      "note": 63,
      "start": 51.1251,
      "duration": 0.0055,
      "velocity": 103,
      "chip": "ym2612"
    },
    {
      "channel": 0,
      "note": 47,
      "start": 51.1298,
      "duration": 0.0391,
      "velocity": 95,
      "chip": "ym2612"
    },
    {
      "channel": 1,
      "note": 68,
      "start": 51.1303,
      "duration": 0.0033,
      "velocity": 103,
      "chip": "ym2612"
    },
    {
      "channel": 2,
      "note": 63,
      "start": 51.1306,
      "duration": 0.0036,
      "velocity": 103,
      "chip": "ym2612"
    },
    {
      "channel": 1,
      "note": 68,
      "start": 51.1336,
      "duration": 0.0033,
      "velocity": 103,
      "chip": "ym2612"
    },
    {
      "channel": 2,
      "note": 63,
      "start": 51.1342,
      "duration": 0.0033,
      "velocity": 103,
      "chip": "ym2612"
    },
    {
      "channel": 1,
      "note": 68,
      "start": 51.1369,
      "duration": 0.0032,
      "velocity": 103,
      "chip": "ym2612"
    },
    {
      "channel": 2,
      "note": 63,
      "start": 51.1375,
      "duration": 0.0032,
      "velocity": 103,
      "chip": "ym2612"
    },
    {
      "channel": 1,
      "note": 68,
      "start": 51.1401,
      "duration": 0.0032,
      "velocity": 103,
      "chip": "ym2612"
    },
    {
      "channel": 2,
      "note": 63,
      "start": 51.1407,
      "duration": 0.0032,
      "velocity": 103,
      "chip": "ym2612"
    },
    {
      "channel": 1,
      "note": 68,
      "start": 51.1433,
      "duration": 0.0032,
      "velocity": 103,
      "chip": "ym2612"
    },
    {
      "channel": 2,
      "note": 63,
      "start": 51.144,
      "duration": 0.003,
      "velocity": 103,
      "chip": "ym2612"
    },
    {
      "channel": 1,
      "note": 68,
      "start": 51.1465,
      "duration": 0.0031,
      "velocity": 103,
      "chip": "ym2612"
    },
    {
      "channel": 2,
      "note": 63,
      "start": 51.1469,
      "duration": 0.0032,
      "velocity": 103,
      "chip": "ym2612"
    },
    {
      "channel": 1,
      "note": 68,
      "start": 51.1496,
      "duration": 0.0028,
      "velocity": 103,
      "chip": "ym2612"
    },
    {
      "channel": 2,
      "note": 63,
      "start": 51.1502,
      "duration": 0.0029,
      "velocity": 103,
      "chip": "ym2612"
    },
    {
      "channel": 1,
      "note": 68,
      "start": 51.1524,
      "duration": 0.0032,
      "velocity": 103,
      "chip": "ym2612"
    },
    {
      "channel": 2,
      "note": 63,
      "start": 51.153,
      "duration": 0.0032,
      "velocity": 103,
      "chip": "ym2612"
    },
    {
      "channel": 1,
      "note": 68,
      "start": 51.1556,
      "duration": 0.0032,
      "velocity": 103,
      "chip": "ym2612"
    },
    {
      "channel": 2,
      "note": 63,
      "start": 51.1562,
      "duration": 0.0031,
      "velocity": 103,
      "chip": "ym2612"
    },
    {
      "channel": 1,
      "note": 68,
      "start": 51.1588,
      "duration": 0.003,
      "velocity": 103,
      "chip": "ym2612"
    },
    {
      "channel": 2,
      "note": 63,
      "start": 51.1594,
      "duration": 0.0031,
      "velocity": 103,
      "chip": "ym2612"
    },
    {
      "channel": 1,
      "note": 68,
      "start": 51.1618,
      "duration": 0.0032,
      "velocity": 103,
      "chip": "ym2612"
    },
    {
      "channel": 2,
      "note": 63,
      "start": 51.1624,
      "duration": 0.0033,
      "velocity": 103,
      "chip": "ym2612"
    },
    {
      "channel": 1,
      "note": 68,
      "start": 51.1651,
      "duration": 0.0048,
      "velocity": 103,
      "chip": "ym2612"
    },
    {
      "channel": 2,
      "note": 63,
      "start": 51.1657,
      "duration": 0.0046,
      "velocity": 103,
      "chip": "ym2612"
    },
    {
      "channel": 0,
      "note": 47,
      "start": 51.1694,
      "duration": 0.1423,
      "velocity": 95,
      "chip": "ym2612"
    },
    {
      "channel": 1,
      "note": 68,
      "start": 51.1699,
      "duration": 0.0035,
      "velocity": 103,
      "chip": "ym2612"
    },
    {
      "channel": 2,
      "note": 63,
      "start": 51.1704,
      "duration": 0.0037,
      "velocity": 103,
      "chip": "ym2612"
    },
    {
      "channel": 1,
      "note": 68,
      "start": 51.1734,
      "duration": 0.0031,
      "velocity": 103,
      "chip": "ym2612"
    },
    {
      "channel": 2,
      "note": 63,
      "start": 51.1741,
      "duration": 0.003,
      "velocity": 103,
      "chip": "ym2612"
    },
    {
      "channel": 1,
      "note": 68,
      "start": 51.1766,
      "duration": 0.0059,
      "velocity": 103,
      "chip": "ym2612"
    },
    {
      "channel": 2,
      "note": 63,
      "start": 51.1771,
      "duration": 0.0059,
      "velocity": 103,
      "chip": "ym2612"
    },
    {
      "channel": 1,
      "note": 68,
      "start": 51.1824,
      "duration": 0.0144,
      "velocity": 103,
      "chip": "ym2612"
    },
    {
      "channel": 2,
      "note": 63,
      "start": 51.183,
      "duration": 0.0144,
      "velocity": 103,
      "chip": "ym2612"
    },
    {
      "channel": 1,
      "note": 68,
      "start": 51.1969,
      "duration": 0.0144,
      "velocity": 103,
      "chip": "ym2612"
    },
    {
      "channel": 2,
      "note": 63,
      "start": 51.1974,
      "duration": 0.0144,
      "velocity": 103,
      "chip": "ym2612"
    },
    {
      "channel": 1,
      "note": 68,
      "start": 51.2113,
      "duration": 0.0144,
      "velocity": 103,
      "chip": "ym2612"
    },
    {
      "channel": 2,
      "note": 63,
      "start": 51.2119,
      "duration": 0.0143,
      "velocity": 103,
      "chip": "ym2612"
    },
    {
      "channel": 1,
      "note": 68,
      "start": 51.2257,
      "duration": 0.0143,
      "velocity": 103,
      "chip": "ym2612"
    },
    {
      "channel": 2,
      "note": 63,
      "start": 51.2262,
      "duration": 0.0144,
      "velocity": 103,
      "chip": "ym2612"
    },
    {
      "channel": 1,
      "note": 68,
      "start": 51.2401,
      "duration": 0.0146,
      "velocity": 103,
      "chip": "ym2612"
    },
    {
      "channel": 2,
      "note": 63,
      "start": 51.2406,
      "duration": 0.0146,
      "velocity": 103,
      "chip": "ym2612"
    },
    {
      "channel": 1,
      "note": 68,
      "start": 51.2546,
      "duration": 0.0144,
      "velocity": 103,
      "chip": "ym2612"
    },
    {
      "channel": 2,
      "note": 63,
      "start": 51.2553,
      "duration": 0.0144,
      "velocity": 103,
      "chip": "ym2612"
    },
    {
      "channel": 1,
      "note": 68,
      "start": 51.2691,
      "duration": 0.0144,
      "velocity": 103,
      "chip": "ym2612"
    },
    {
      "channel": 2,
      "note": 63,
      "start": 51.2697,
      "duration": 0.0144,
      "velocity": 103,
      "chip": "ym2612"
    },
    {
      "channel": 1,
      "note": 68,
      "start": 51.2835,
      "duration": 0.0143,
      "velocity": 103,
      "chip": "ym2612"
    },
    {
      "channel": 2,
      "note": 63,
      "start": 51.2841,
      "duration": 0.0141,
      "velocity": 103,
      "chip": "ym2612"
    },
    {
      "channel": 1,
      "note": 68,
      "start": 51.2978,
      "duration": 0.0148,
      "velocity": 103,
      "chip": "ym2612"
    },
    {
      "channel": 2,
      "note": 63,
      "start": 51.2983,
      "duration": 0.0148,
      "velocity": 103,
      "chip": "ym2612"
    },
    {
      "channel": 0,
      "note": 47,
      "start": 51.3121,
      "duration": 0.0381,
      "velocity": 95,
      "chip": "ym2612"
    },
    {
      "channel": 1,
      "note": 68,
      "start": 51.3126,
      "duration": 0.0037,
      "velocity": 103,
      "chip": "ym2612"
    },
    {
      "channel": 2,
      "note": 63,
      "start": 51.3131,
      "duration": 0.0037,
      "velocity": 103,
      "chip": "ym2612"
    },
    {
      "channel": 1,
      "note": 68,
      "start": 51.3162,
      "duration": 0.0033,
      "velocity": 103,
      "chip": "ym2612"
    },
    {
      "channel": 2,
      "note": 63,
      "start": 51.3168,
      "duration": 0.0033,
      "velocity": 103,
      "chip": "ym2612"
    },
    {
      "channel": 1,
      "note": 68,
      "start": 51.3195,
      "duration": 0.0032,
      "velocity": 103,
      "chip": "ym2612"
    },
    {
      "channel": 2,
      "note": 63,
      "start": 51.3201,
      "duration": 0.0031,
      "velocity": 103,
      "chip": "ym2612"
    },
    {
      "channel": 1,
      "note": 68,
      "start": 51.3227,
      "duration": 0.003,
      "velocity": 103,
      "chip": "ym2612"
    },
    {
      "channel": 2,
      "note": 63,
      "start": 51.3232,
      "duration": 0.0032,
      "velocity": 103,
      "chip": "ym2612"
    },
    {
      "channel": 1,
      "note": 68,
      "start": 51.3257,
      "duration": 0.0033,
      "velocity": 103,
      "chip": "ym2612"
    },
    {
      "channel": 2,
      "note": 63,
      "start": 51.3264,
      "duration": 0.0033,
      "velocity": 103,
      "chip": "ym2612"
    },
    {
      "channel": 1,
      "note": 68,
      "start": 51.329,
      "duration": 0.0028,
      "velocity": 103,
      "chip": "ym2612"
    },
    {
      "channel": 2,
      "note": 63,
      "start": 51.3296,
      "duration": 0.0028,
      "velocity": 103,
      "chip": "ym2612"
    },
    {
      "channel": 1,
      "note": 68,
      "start": 51.3318,
      "duration": 0.0033,
      "velocity": 103,
      "chip": "ym2612"
    },
    {
      "channel": 2,
      "note": 63,
      "start": 51.3324,
      "duration": 0.0032,
      "velocity": 103,
      "chip": "ym2612"
    },
    {
      "channel": 1,
      "note": 68,
      "start": 51.335,
      "duration": 0.0031,
      "velocity": 103,
      "chip": "ym2612"
    },
    {
      "channel": 2,
      "note": 63,
      "start": 51.3356,
      "duration": 0.003,
      "velocity": 103,
      "chip": "ym2612"
    },
    {
      "channel": 1,
      "note": 68,
      "start": 51.3381,
      "duration": 0.0031,
      "velocity": 103,
      "chip": "ym2612"
    },
    {
      "channel": 2,
      "note": 63,
      "start": 51.3386,
      "duration": 0.0032,
      "velocity": 103,
      "chip": "ym2612"
    },
    {
      "channel": 1,
      "note": 68,
      "start": 51.3412,
      "duration": 0.0033,
      "velocity": 103,
      "chip": "ym2612"
    },
    {
      "channel": 2,
      "note": 63,
      "start": 51.3418,
      "duration": 0.0033,
      "velocity": 103,
      "chip": "ym2612"
    },
    {
      "channel": 1,
      "note": 68,
      "start": 51.3445,
      "duration": 0.0033,
      "velocity": 103,
      "chip": "ym2612"
    },
    {
      "channel": 2,
      "note": 63,
      "start": 51.3451,
      "duration": 0.0032,
      "velocity": 103,
      "chip": "ym2612"
    },
    {
      "channel": 1,
      "note": 68,
      "start": 51.3478,
      "duration": 0.0034,
      "velocity": 103,
      "chip": "ym2612"
    },
    {
      "channel": 2,
      "note": 63,
      "start": 51.3483,
      "duration": 0.0032,
      "velocity": 103,
      "chip": "ym2612"
    },
    {
      "channel": 0,
      "note": 47,
      "start": 51.3507,
      "duration": 0.1529,
      "velocity": 95,
      "chip": "ym2612"
    },
    {
      "channel": 1,
      "note": 68,
      "start": 51.3512,
      "duration": 0.0026,
      "velocity": 103,
      "chip": "ym2612"
    },
    {
      "channel": 2,
      "note": 63,
      "start": 51.3515,
      "duration": 0.0028,
      "velocity": 103,
      "chip": "ym2612"
    },
    {
      "channel": 1,
      "note": 68,
      "start": 51.3538,
      "duration": 0.0061,
      "velocity": 103,
      "chip": "ym2612"
    },
    {
      "channel": 2,
      "note": 63,
      "start": 51.3543,
      "duration": 0.0062,
      "velocity": 103,
      "chip": "ym2612"
    },
    {
      "channel": 1,
      "note": 68,
      "start": 51.3598,
      "duration": 0.0144,
      "velocity": 103,
      "chip": "ym2612"
    },
    {
      "channel": 2,
      "note": 63,
      "start": 51.3605,
      "duration": 0.0144,
      "velocity": 103,
      "chip": "ym2612"
    },
    {
      "channel": 1,
      "note": 68,
      "start": 51.3743,
      "duration": 0.0144,
      "velocity": 103,
      "chip": "ym2612"
    },
    {
      "channel": 2,
      "note": 63,
      "start": 51.3749,
      "duration": 0.0144,
      "velocity": 103,
      "chip": "ym2612"
    },
    {
      "channel": 1,
      "note": 68,
      "start": 51.3887,
      "duration": 0.0144,
      "velocity": 103,
      "chip": "ym2612"
    },
    {
      "channel": 2,
      "note": 63,
      "start": 51.3894,
      "duration": 0.0142,
      "velocity": 103,
      "chip": "ym2612"
    },
    {
      "channel": 1,
      "note": 68,
      "start": 51.4031,
      "duration": 0.0146,
      "velocity": 103,
      "chip": "ym2612"
    },
    {
      "channel": 2,
      "note": 63,
      "start": 51.4036,
      "duration": 0.0148,
      "velocity": 103,
      "chip": "ym2612"
    },
    {
      "channel": 1,
      "note": 68,
      "start": 51.4177,
      "duration": 0.0144,
      "velocity": 103,
      "chip": "ym2612"
    },
    {
      "channel": 2,
      "note": 63,
      "start": 51.4183,
      "duration": 0.0144,
      "velocity": 103,
      "chip": "ym2612"
    },
    {
      "channel": 1,
      "note": 68,
      "start": 51.4321,
      "duration": 0.0144,
      "velocity": 103,
      "chip": "ym2612"
    },
    {
      "channel": 2,
      "note": 63,
      "start": 51.4327,
      "duration": 0.0144,
      "velocity": 103,
      "chip": "ym2612"
    },
    {
      "channel": 1,
      "note": 68,
      "start": 51.4466,
      "duration": 0.0144,
      "velocity": 103,
      "chip": "ym2612"
    },
    {
      "channel": 2,
      "note": 63,
      "start": 51.4472,
      "duration": 0.0143,
      "velocity": 103,
      "chip": "ym2612"
    },
    {
      "channel": 1,
      "note": 68,
      "start": 51.461,
      "duration": 0.0143,
      "velocity": 103,
      "chip": "ym2612"
    },
    {
      "channel": 2,
      "note": 63,
      "start": 51.4615,
      "duration": 0.0144,
      "velocity": 103,
      "chip": "ym2612"
    },
    {
      "channel": 1,
      "note": 68,
      "start": 51.4753,
      "duration": 0.0146,
      "velocity": 103,
      "chip": "ym2612"
    },
    {
      "channel": 2,
      "note": 63,
      "start": 51.4759,
      "duration": 0.0146,
      "velocity": 103,
      "chip": "ym2612"
    },
    {
      "channel": 1,
      "note": 68,
      "start": 51.4899,
      "duration": 0.0147,
      "velocity": 103,
      "chip": "ym2612"
    },
    {
      "channel": 2,
      "note": 63,
      "start": 51.4905,
      "duration": 0.0145,
      "velocity": 103,
      "chip": "ym2612"
    },
    {
      "channel": 0,
      "note": 47,
      "start": 51.5041,
      "duration": 0.0376,
      "velocity": 95,
      "chip": "ym2612"
    },
    {
      "channel": 1,
      "note": 68,
      "start": 51.5046,
      "duration": 0.0036,
      "velocity": 103,
      "chip": "ym2612"
    },
    {
      "channel": 2,
      "note": 63,
      "start": 51.505,
      "duration": 0.0038,
      "velocity": 103,
      "chip": "ym2612"
    },
    {
      "channel": 1,
      "note": 68,
      "start": 51.5081,
      "duration": 0.003,
      "velocity": 103,
      "chip": "ym2612"
    },
    {
      "channel": 2,
      "note": 63,
      "start": 51.5088,
      "duration": 0.0029,
      "velocity": 103,
      "chip": "ym2612"
    },
    {
      "channel": 1,
      "note": 68,
      "start": 51.5112,
      "duration": 0.0032,
      "velocity": 103,
      "chip": "ym2612"
    },
    {
      "channel": 2,
      "note": 63,
      "start": 51.5117,
      "duration": 0.0033,
      "velocity": 103,
      "chip": "ym2612"
    },
    {
      "channel": 1,
      "note": 68,
      "start": 51.5143,
      "duration": 0.0032,
      "velocity": 103,
      "chip": "ym2612"
    },
    {
      "channel": 2,
      "note": 63,
      "start": 51.515,
      "duration": 0.0032,
      "velocity": 103,
      "chip": "ym2612"
    },
    {
      "channel": 1,
      "note": 68,
      "start": 51.5175,
      "duration": 0.0028,
      "velocity": 103,
      "chip": "ym2612"
    },
    {
      "channel": 2,
      "note": 63,
      "start": 51.5182,
      "duration": 0.0028,
      "velocity": 103,
      "chip": "ym2612"
    },
    {
      "channel": 1,
      "note": 68,
      "start": 51.5203,
      "duration": 0.0032,
      "velocity": 103,
      "chip": "ym2612"
    },
    {
      "channel": 2,
      "note": 63,
      "start": 51.5209,
      "duration": 0.0031,
      "velocity": 103,
      "chip": "ym2612"
    },
    {
      "channel": 1,
      "note": 68,
      "start": 51.5236,
      "duration": 0.0029,
      "velocity": 103,
      "chip": "ym2612"
    },
    {
      "channel": 2,
      "note": 63,
      "start": 51.524,
      "duration": 0.0031,
      "velocity": 103,
      "chip": "ym2612"
    },
    {
      "channel": 1,
      "note": 68,
      "start": 51.5265,
      "duration": 0.0033,
      "velocity": 103,
      "chip": "ym2612"
    },
    {
      "channel": 2,
      "note": 63,
      "start": 51.5271,
      "duration": 0.0033,
      "velocity": 103,
      "chip": "ym2612"
    },
    {
      "channel": 1,
      "note": 68,
      "start": 51.5298,
      "duration": 0.0032,
      "velocity": 103,
      "chip": "ym2612"
    },
    {
      "channel": 2,
      "note": 63,
      "start": 51.5304,
      "duration": 0.0032,
      "velocity": 103,
      "chip": "ym2612"
    },
    {
      "channel": 1,
      "note": 68,
      "start": 51.5329,
      "duration": 0.0032,
      "velocity": 103,
      "chip": "ym2612"
    },
    {
      "channel": 2,
      "note": 63,
      "start": 51.5336,
      "duration": 0.0032,
      "velocity": 103,
      "chip": "ym2612"
    },
    {
      "channel": 1,
      "note": 68,
      "start": 51.5361,
      "duration": 0.0031,
      "velocity": 103,
      "chip": "ym2612"
    },
    {
      "channel": 2,
      "note": 63,
      "start": 51.5368,
      "duration": 0.0029,
      "velocity": 103,
      "chip": "ym2612"
    },
    {
      "channel": 1,
      "note": 68,
      "start": 51.5392,
      "duration": 0.0033,
      "velocity": 103,
      "chip": "ym2612"
    },
    {
      "channel": 2,
      "note": 63,
      "start": 51.5397,
      "duration": 0.0033,
      "velocity": 103,
      "chip": "ym2612"
    },
    {
      "channel": 0,
      "note": 47,
      "start": 51.542,
      "duration": 0.1533,
      "velocity": 95,
      "chip": "ym2612"
    },
    {
      "channel": 1,
      "note": 68,
      "start": 51.5425,
      "duration": 0.0024,
      "velocity": 103,
      "chip": "ym2612"
    },
    {
      "channel": 2,
      "note": 63,
      "start": 51.543,
      "duration": 0.0025,
      "velocity": 103,
      "chip": "ym2612"
    },
    {
      "channel": 1,
      "note": 68,
      "start": 51.5449,
      "duration": 0.0066,
      "velocity": 103,
      "chip": "ym2612"
    },
    {
      "channel": 2,
      "note": 63,
      "start": 51.5455,
      "duration": 0.0066,
      "velocity": 103,
      "chip": "ym2612"
    },
    {
      "channel": 1,
      "note": 68,
      "start": 51.5515,
      "duration": 0.0145,
      "velocity": 103,
      "chip": "ym2612"
    },
    {
      "channel": 2,
      "note": 63,
      "start": 51.5521,
      "duration": 0.0143,
      "velocity": 103,
      "chip": "ym2612"
    },
    {
      "channel": 1,
      "note": 68,
      "start": 51.5659,
      "duration": 0.0143,
      "velocity": 103,
      "chip": "ym2612"
    },
    {
      "channel": 2,
      "note": 63,
      "start": 51.5664,
      "duration": 0.0144,
      "velocity": 103,
      "chip": "ym2612"
    },
    {
      "channel": 1,
      "note": 68,
      "start": 51.5802,
      "duration": 0.0146,
      "velocity": 103,
      "chip": "ym2612"
    },
    {
      "channel": 2,
      "note": 63,
      "start": 51.5808,
      "duration": 0.0146,
      "velocity": 103,
      "chip": "ym2612"
    },
    {
      "channel": 1,
      "note": 68,
      "start": 51.5948,
      "duration": 0.0145,
      "velocity": 103,
      "chip": "ym2612"
    },
    {
      "channel": 2,
      "note": 63,
      "start": 51.5954,
      "duration": 0.0144,
      "velocity": 103,
      "chip": "ym2612"
    },
    {
      "channel": 1,
      "note": 68,
      "start": 51.6093,
      "duration": 0.0144,
      "velocity": 103,
      "chip": "ym2612"
    },
    {
      "channel": 2,
      "note": 63,
      "start": 51.6098,
      "duration": 0.0144,
      "velocity": 103,
      "chip": "ym2612"
    },
    {
      "channel": 1,
      "note": 68,
      "start": 51.6237,
      "duration": 0.0143,
      "velocity": 103,
      "chip": "ym2612"
    },
    {
      "channel": 2,
      "note": 63,
      "start": 51.6243,
      "duration": 0.0142,
      "velocity": 103,
      "chip": "ym2612"
    },
    {
      "channel": 1,
      "note": 68,
      "start": 51.638,
      "duration": 0.0146,
      "velocity": 103,
      "chip": "ym2612"
    },
    {
      "channel": 2,
      "note": 63,
      "start": 51.6385,
      "duration": 0.0148,
      "velocity": 103,
      "chip": "ym2612"
    },
    {
      "channel": 1,
      "note": 68,
      "start": 51.6526,
      "duration": 0.0145,
      "velocity": 103,
      "chip": "ym2612"
    },
    {
      "channel": 2,
      "note": 63,
      "start": 51.6532,
      "duration": 0.0144,
      "velocity": 103,
      "chip": "ym2612"
    },
    {
      "channel": 1,
      "note": 68,
      "start": 51.6671,
      "duration": 0.0144,
      "velocity": 103,
      "chip": "ym2612"
    },
    {
      "channel": 2,
      "note": 63,
      "start": 51.6677,
      "duration": 0.0144,
      "velocity": 103,
      "chip": "ym2612"
    },
    {
      "channel": 1,
      "note": 68,
      "start": 51.6815,
      "duration": 0.015,
      "velocity": 103,
      "chip": "ym2612"
    },
    {
      "channel": 2,
      "note": 63,
      "start": 51.6821,
      "duration": 0.0169,
      "velocity": 103,
      "chip": "ym2612"
    },
    {
      "channel": 0,
      "note": 51,
      "start": 51.6958,
      "duration": 0.1424,
      "velocity": 95,
      "chip": "ym2612"
    },
    {
      "channel": 1,
      "note": 78,
      "start": 51.6969,
      "duration": 0.3151,
      "velocity": 103,
      "chip": "ym2612"
    },
    {
      "channel": 3,
      "note": 70,
      "start": 51.7,
      "duration": 0.5044,
      "velocity": 89,
      "chip": "ym2612"
    },
    {
      "channel": 4,
      "note": 75,
      "start": 51.701,
      "duration": 0.504,
      "velocity": 89,
      "chip": "ym2612"
    },
    {
      "channel": 2,
      "note": 78,
      "start": 51.7091,
      "duration": 0.3114,
      "velocity": 103,
      "chip": "ym2612"
    },
    {
      "channel": 0,
      "note": 51,
      "start": 51.8385,
      "duration": 0.1729,
      "velocity": 95,
      "chip": "ym2612"
    },
    {
      "channel": 0,
      "note": 51,
      "start": 52.0119,
      "duration": 0.0292,
      "velocity": 95,
      "chip": "ym2612"
    },
    {
      "channel": 1,
      "note": 75,
      "start": 52.0124,
      "duration": 0.1912,
      "velocity": 103,
      "chip": "ym2612"
    },
    {
      "channel": 2,
      "note": 75,
      "start": 52.021,
      "duration": 0.1954,
      "velocity": 103,
      "chip": "ym2612"
    },
    {
      "channel": 0,
      "note": 51,
      "start": 52.0415,
      "duration": 0.1615,
      "velocity": 95,
      "chip": "ym2612"
    },
    {
      "channel": 0,
      "note": 51,
      "start": 52.2034,
      "duration": 0.1424,
      "velocity": 95,
      "chip": "ym2612"
    },
    {
      "channel": 1,
      "note": 77,
      "start": 52.204,
      "duration": 0.3157,
      "velocity": 103,
      "chip": "ym2612"
    },
    {
      "channel": 3,
      "note": 70,
      "start": 52.2048,
      "duration": 0.142,
      "velocity": 89,
      "chip": "ym2612"
    },
    {
      "channel": 4,
      "note": 75,
      "start": 52.2054,
      "duration": 0.1419,
      "velocity": 89,
      "chip": "ym2612"
    },
    {
      "channel": 2,
      "note": 77,
      "start": 52.2168,
      "duration": 0.3103,
      "velocity": 103,
      "chip": "ym2612"
    },
    {
      "channel": 0,
      "note": 51,
      "start": 52.3463,
      "duration": 0.1729,
      "velocity": 95,
      "chip": "ym2612"
    },
    {
      "channel": 3,
      "note": 70,
      "start": 52.3472,
      "duration": 0.1734,
      "velocity": 89,
      "chip": "ym2612"
    },
    {
      "channel": 4,
      "note": 73,
      "start": 52.3477,
      "duration": 0.1731,
      "velocity": 89,
      "chip": "ym2612"
    },
    {
      "channel": 0,
      "note": 49,
      "start": 52.5196,
      "duration": 0.0251,
      "velocity": 95,
      "chip": "ym2612"
    },
    {
      "channel": 1,
      "note": 70,
      "start": 52.5202,
      "duration": 0.025,
      "velocity": 103,
      "chip": "ym2612"
    },
    {
      "channel": 2,
      "note": 70,
      "start": 52.5275,
      "duration": 0.054,
      "velocity": 103,
      "chip": "ym2612"
    },
    {
      "channel": 0,
      "note": 47,
      "start": 52.5451,
      "duration": 0.3086,
      "velocity": 95,
      "chip": "ym2612"
    },
    {
      "channel": 1,
      "note": 71,
      "start": 52.5457,
      "duration": 0.3089,
      "velocity": 103,
      "chip": "ym2612"
    },
    {
      "channel": 3,
      "note": 68,
      "start": 52.5464,
      "duration": 0.4823,
      "velocity": 89,
      "chip": "ym2612"
    },
    {
      "channel": 4,
      "note": 71,
      "start": 52.5471,
      "duration": 0.4823,
      "velocity": 89,
      "chip": "ym2612"
    },
    {
      "channel": 2,
      "note": 71,
      "start": 52.5819,
      "duration": 0.3164,
      "velocity": 103,
      "chip": "ym2612"
    },
    {
      "channel": 0,
      "note": 47,
      "start": 52.8541,
      "duration": 0.1729,
      "velocity": 95,
      "chip": "ym2612"
    },
    {
      "channel": 1,
      "note": 71,
      "start": 52.8546,
      "duration": 0.0141,
      "velocity": 103,
      "chip": "ym2612"
    },
    {
      "channel": 1,
      "note": 71,
      "start": 52.8687,
      "duration": 0.0146,
      "velocity": 103,
      "chip": "ym2612"
    },
    {
      "channel": 1,
      "note": 71,
      "start": 52.8833,
      "duration": 0.0144,
      "velocity": 103,
      "chip": "ym2612"
    },
    {
      "channel": 1,
      "note": 71,
      "start": 52.8977,
      "duration": 0.0144,
      "velocity": 103,
      "chip": "ym2612"
    },
    {
      "channel": 2,
      "note": 71,
      "start": 52.8984,
      "duration": 0.0143,
      "velocity": 103,
      "chip": "ym2612"
    },
    {
      "channel": 1,
      "note": 71,
      "start": 52.9122,
      "duration": 0.0143,
      "velocity": 103,
      "chip": "ym2612"
    },
    {
      "channel": 2,
      "note": 71,
      "start": 52.9127,
      "duration": 0.0144,
      "velocity": 103,
      "chip": "ym2612"
    },
    {
      "channel": 1,
      "note": 71,
      "start": 52.9265,
      "duration": 0.0146,
      "velocity": 103,
      "chip": "ym2612"
    },
    {
      "channel": 2,
      "note": 71,
      "start": 52.9271,
      "duration": 0.0146,
      "velocity": 103,
      "chip": "ym2612"
    },
    {
      "channel": 1,
      "note": 71,
      "start": 52.9411,
      "duration": 0.0144,
      "velocity": 103,
      "chip": "ym2612"
    },
    {
      "channel": 2,
      "note": 71,
      "start": 52.9417,
      "duration": 0.0144,
      "velocity": 103,
      "chip": "ym2612"
    },
    {
      "channel": 1,
      "note": 71,
      "start": 52.9556,
      "duration": 0.0144,
      "velocity": 103,
      "chip": "ym2612"
    },
    {
      "channel": 2,
      "note": 71,
      "start": 52.9561,
      "duration": 0.0143,
      "velocity": 103,
      "chip": "ym2612"
    },
    {
      "channel": 1,
      "note": 71,
      "start": 52.97,
      "duration": 0.0144,
      "velocity": 103,
      "chip": "ym2612"
    },
    {
      "channel": 2,
      "note": 71,
      "start": 52.9704,
      "duration": 0.0146,
      "velocity": 103,
      "chip": "ym2612"
    },
    {
      "channel": 1,
      "note": 71,
      "start": 52.9844,
      "duration": 0.0142,
      "velocity": 103,
      "chip": "ym2612"
    },
    {
      "channel": 2,
      "note": 71,
      "start": 52.9851,
      "duration": 0.0142,
      "velocity": 103,
      "chip": "ym2612"
    },
    {
      "channel": 1,
      "note": 71,
      "start": 52.9987,
      "duration": 0.0147,
      "velocity": 103,
      "chip": "ym2612"
    },
    {
      "channel": 2,
      "note": 71,
      "start": 52.9993,
      "duration": 0.0147,
      "velocity": 103,
      "chip": "ym2612"
    },
    {
      "channel": 1,
      "note": 71,
      "start": 53.0134,
      "duration": 0.0143,
      "velocity": 103,
      "chip": "ym2612"
    },
    {
      "channel": 2,
      "note": 71,
      "start": 53.014,
      "duration": 0.0146,
      "velocity": 103,
      "chip": "ym2612"
    },
    {
      "channel": 0,
      "note": 47,
      "start": 53.0275,
      "duration": 0.1913,
      "velocity": 95,
      "chip": "ym2612"
    },
    {
      "channel": 1,
      "note": 73,
      "start": 53.0281,
      "duration": 0.1913,
      "velocity": 103,
      "chip": "ym2612"
    },
    {
      "channel": 2,
      "note": 71,
      "start": 53.0286,
      "duration": 0.0042,
      "velocity": 103,
      "chip": "ym2612"
    },
    {
      "channel": 3,
      "note": 68,
      "start": 53.0292,
      "duration": 0.191,
      "velocity": 89,
      "chip": "ym2612"
    },
    {
      "channel": 4,
      "note": 71,
      "start": 53.0298,
      "duration": 0.191,
      "velocity": 89,
      "chip": "ym2612"
    },
    {
      "channel": 2,
      "note": 71,
      "start": 53.0327,
      "duration": 0.0027,
      "velocity": 103,
      "chip": "ym2612"
    },
    {
      "channel": 2,
      "note": 71,
      "start": 53.0355,
      "duration": 0.0024,
      "velocity": 103,
      "chip": "ym2612"
    },
    {
      "channel": 2,
      "note": 73,
      "start": 53.0383,
      "duration": 0.1938,
      "velocity": 103,
      "chip": "ym2612"
    },
    {
      "channel": 0,
      "note": 47,
      "start": 53.2193,
      "duration": 0.1423,
      "velocity": 95,
      "chip": "ym2612"
    },
    {
      "channel": 1,
      "note": 75,
      "start": 53.2198,
      "duration": 0.1424,
      "velocity": 103,
      "chip": "ym2612"
    },
    {
      "channel": 3,
      "note": 68,
      "start": 53.2206,
      "duration": 0.1424,
      "velocity": 89,
      "chip": "ym2612"
    },
    {
      "channel": 4,
      "note": 71,
      "start": 53.2212,
      "duration": 0.1424,
      "velocity": 89,
      "chip": "ym2612"
    },
    {
      "channel": 2,
      "note": 75,
      "start": 53.2326,
      "duration": 0.1729,
      "velocity": 103,
      "chip": "ym2612"
    },
    {
      "channel": 0,
      "note": 49,
      "start": 53.362,
      "duration": 0.203,
      "velocity": 95,
      "chip": "ym2612"
    },
    {
      "channel": 1,
      "note": 77,
      "start": 53.3627,
      "duration": 0.203,
      "velocity": 103,
      "chip": "ym2612"
    },
    {
      "channel": 3,
      "note": 70,
      "start": 53.3634,
      "duration": 0.3649,
      "velocity": 89,
      "chip": "ym2612"
    },
    {
      "channel": 4,
      "note": 73,
      "start": 53.364,
      "duration": 0.3649,
      "velocity": 89,
      "chip": "ym2612"
    },
    {
      "channel": 2,
      "note": 77,
      "start": 53.4059,
      "duration": 0.1924,
      "velocity": 103,
      "chip": "ym2612"
    },
    {
      "channel": 0,
      "note": 49,
      "start": 53.5651,
      "duration": 0.003,
      "velocity": 95,
      "chip": "ym2612"
    },
    {
      "channel": 1,
      "note": 77,
      "start": 53.5656,
      "duration": 0.0028,
      "velocity": 103,
      "chip": "ym2612"
    },
    {
      "channel": 0,
      "note": 49,
      "start": 53.568,
      "duration": 0.0146,
      "velocity": 95,
      "chip": "ym2612"
    },
    {
      "channel": 1,
      "note": 77,
      "start": 53.5685,
      "duration": 0.0148,
      "velocity": 103,
      "chip": "ym2612"
    },
    {
      "channel": 0,
      "note": 49,
      "start": 53.5826,
      "duration": 0.0144,
      "velocity": 95,
      "chip": "ym2612"
    },
    {
      "channel": 1,
      "note": 77,
      "start": 53.5832,
      "duration": 0.0144,
      "velocity": 103,
      "chip": "ym2612"
    },
    {
      "channel": 0,
      "note": 49,
      "start": 53.5971,
      "duration": 0.0144,
      "velocity": 95,
      "chip": "ym2612"
    },
    {
      "channel": 1,
      "note": 77,
      "start": 53.5977,
      "duration": 0.0144,
      "velocity": 103,
      "chip": "ym2612"
    },
    {
      "channel": 2,
      "note": 77,
      "start": 53.5983,
      "duration": 0.0142,
      "velocity": 103,
      "chip": "ym2612"
    },
    {
      "channel": 0,
      "note": 49,
      "start": 53.6115,
      "duration": 0.0144,
      "velocity": 95,
      "chip": "ym2612"
    },
    {
      "channel": 1,
      "note": 77,
      "start": 53.6121,
      "duration": 0.0142,
      "velocity": 103,
      "chip": "ym2612"
    },
    {
      "channel": 2,
      "note": 77,
      "start": 53.6126,
      "duration": 0.0144,
      "velocity": 103,
      "chip": "ym2612"
    },
    {
      "channel": 0,
      "note": 49,
      "start": 53.6259,
      "duration": 0.0146,
      "velocity": 95,
      "chip": "ym2612"
    },
    {
      "channel": 1,
      "note": 77,
      "start": 53.6263,
      "duration": 0.0148,
      "velocity": 103,
      "chip": "ym2612"
    },
    {
      "channel": 2,
      "note": 77,
      "start": 53.6269,
      "duration": 0.0147,
      "velocity": 103,
      "chip": "ym2612"
    },
    {
      "channel": 0,
      "note": 49,
      "start": 53.6404,
      "duration": 0.0144,
      "velocity": 95,
      "chip": "ym2612"
    },
    {
      "channel": 1,
      "note": 77,
      "start": 53.6411,
      "duration": 0.0144,
      "velocity": 103,
      "chip": "ym2612"
    },
    {
      "channel": 2,
      "note": 77,
      "start": 53.6417,
      "duration": 0.0144,
      "velocity": 103,
      "chip": "ym2612"
    },
    {
      "channel": 0,
      "note": 49,
      "start": 53.6548,
      "duration": 0.0145,
      "velocity": 95,
      "chip": "ym2612"
    },
    {
      "channel": 1,
      "note": 77,
      "start": 53.6555,
      "duration": 0.0144,
      "velocity": 103,
      "chip": "ym2612"
    },
    {
      "channel": 2,
      "note": 77,
      "start": 53.6561,
      "duration": 0.0143,
      "velocity": 103,
      "chip": "ym2612"
    },
    {
      "channel": 0,
      "note": 49,
      "start": 53.6693,
      "duration": 0.0144,
      "velocity": 95,
      "chip": "ym2612"
    },
    {
      "channel": 1,
      "note": 77,
      "start": 53.67,
      "duration": 0.0144,
      "velocity": 103,
      "chip": "ym2612"
    },
    {
      "channel": 2,
      "note": 77,
      "start": 53.6704,
      "duration": 0.0146,
      "velocity": 103,
      "chip": "ym2612"
    },
    {
      "channel": 0,
      "note": 49,
      "start": 53.6838,
      "duration": 0.0142,
      "velocity": 95,
      "chip": "ym2612"
    },
    {
      "channel": 1,
      "note": 77,
      "start": 53.6844,
      "duration": 0.0141,
      "velocity": 103,
      "chip": "ym2612"
    },
    {
      "channel": 2,
      "note": 77,
      "start": 53.685,
      "duration": 0.0141,
      "velocity": 103,
      "chip": "ym2612"
    },
    {
      "channel": 0,
      "note": 49,
      "start": 53.698,
      "duration": 0.0146,
      "velocity": 95,
      "chip": "ym2612"
    },
    {
      "channel": 1,
      "note": 77,
      "start": 53.6985,
      "duration": 0.0148,
      "velocity": 103,
      "chip": "ym2612"
    },
    {
      "channel": 2,
      "note": 77,
      "start": 53.6992,
      "duration": 0.0147,
      "velocity": 103,
      "chip": "ym2612"
    },
    {
      "channel": 0,
      "note": 49,
      "start": 53.7126,
      "duration": 0.014,
      "velocity": 95,
      "chip": "ym2612"
    },
    {
      "channel": 1,
      "note": 77,
      "start": 53.7133,
      "duration": 0.0139,
      "velocity": 103,
      "chip": "ym2612"
    },
    {
      "channel": 2,
      "note": 77,
      "start": 53.7139,
      "duration": 0.0142,
      "velocity": 103,
      "chip": "ym2612"
    },
    {
      "channel": 0,
      "note": 47,
      "start": 53.7271,
      "duration": 0.1423,
      "velocity": 95,
      "chip": "ym2612"
    },
    {
      "channel": 1,
      "note": 75,
      "start": 53.7276,
      "duration": 0.3158,
      "velocity": 103,
      "chip": "ym2612"
    },
    {
      "channel": 2,
      "note": 77,
      "start": 53.7281,
      "duration": 0.0045,
      "velocity": 103,
      "chip": "ym2612"
    },
    {
      "channel": 3,
      "note": 68,
      "start": 53.7287,
      "duration": 0.5071,
      "velocity": 89,
      "chip": "ym2612"
    },
    {
      "channel": 4,
      "note": 71,
      "start": 53.7294,
      "duration": 0.5071,
      "velocity": 89,
      "chip": "ym2612"
    },
    {
      "channel": 2,
      "note": 77,
      "start": 53.7326,
      "duration": 0.0028,
      "velocity": 103,
      "chip": "ym2612"
    },
    {
      "channel": 2,
      "note": 77,
      "start": 53.7354,
      "duration": 0.0046,
      "velocity": 103,
      "chip": "ym2612"
    },
    {
      "channel": 2,
      "note": 75,
      "start": 53.7404,
      "duration": 0.3114,
      "velocity": 103,
      "chip": "ym2612"
    },
    {
      "channel": 0,
      "note": 47,
      "start": 53.8699,
      "duration": 0.1729,
      "velocity": 95,
      "chip": "ym2612"
    },
    {
      "channel": 0,
      "note": 47,
      "start": 54.0432,
      "duration": 0.0293,
      "velocity": 95,
      "chip": "ym2612"
    },
    {
      "channel": 1,
      "note": 73,
      "start": 54.0438,
      "duration": 0.1913,
      "velocity": 103,
      "chip": "ym2612"
    },
    {
      "channel": 2,
      "note": 73,
      "start": 54.0523,
      "duration": 0.1955,
      "velocity": 103,
      "chip": "ym2612"
    },
    {
      "channel": 0,
      "note": 47,
      "start": 54.073,
      "duration": 0.1615,
      "velocity": 95,
      "chip": "ym2612"
    },
    {
      "channel": 0,
      "note": 47,
      "start": 54.2349,
      "duration": 0.1423,
      "velocity": 95,
      "chip": "ym2612"
    },
    {
      "channel": 1,
      "note": 71,
      "start": 54.2355,
      "duration": 0.3157,
      "velocity": 103,
      "chip": "ym2612"
    },
    {
      "channel": 3,
      "note": 68,
      "start": 54.2363,
      "duration": 0.1419,
      "velocity": 89,
      "chip": "ym2612"
    },
    {
      "channel": 4,
      "note": 71,
      "start": 54.2369,
      "duration": 0.1419,
      "velocity": 89,
      "chip": "ym2612"
    },
    {
      "channel": 2,
      "note": 71,
      "start": 54.2482,
      "duration": 0.3103,
      "velocity": 103,
      "chip": "ym2612"
    },
    {
      "channel": 0,
      "note": 47,
      "start": 54.3777,
      "duration": 0.173,
      "velocity": 95,
      "chip": "ym2612"
    },
    {
      "channel": 3,
      "note": 66,
      "start": 54.3786,
      "duration": 0.1734,
      "velocity": 89,
      "chip": "ym2612"
    },
    {
      "channel": 4,
      "note": 70,
      "start": 54.3793,
      "duration": 0.173,
      "velocity": 89,
      "chip": "ym2612"
    },
    {
      "channel": 0,
      "note": 49,
      "start": 54.5511,
      "duration": 0.0247,
      "velocity": 95,
      "chip": "ym2612"
    },
    {
      "channel": 1,
      "note": 68,
      "start": 54.5517,
      "duration": 0.0248,
      "velocity": 103,
      "chip": "ym2612"
    },
    {
      "channel": 2,
      "note": 68,
      "start": 54.559,
      "duration": 0.0537,
      "velocity": 103,
      "chip": "ym2612"
    },
    {
      "channel": 0,
      "note": 46,
      "start": 54.5762,
      "duration": 0.3087,
      "velocity": 95,
      "chip": "ym2612"
    },
    {
      "channel": 1,
      "note": 70,
      "start": 54.5769,
      "duration": 0.309,
      "velocity": 103,
      "chip": "ym2612"
    },
    {
      "channel": 3,
      "note": 65,
      "start": 54.5776,
      "duration": 0.4824,
      "velocity": 89,
      "chip": "ym2612"
    },
    {
      "channel": 4,
      "note": 70,
      "start": 54.5782,
      "duration": 0.4824,
      "velocity": 89,
      "chip": "ym2612"
    },
    {
      "channel": 2,
      "note": 70,
      "start": 54.6131,
      "duration": 0.3165,
      "velocity": 103,
      "chip": "ym2612"
    },
    {
      "channel": 0,
      "note": 46,
      "start": 54.8854,
      "duration": 0.1729,
      "velocity": 95,
      "chip": "ym2612"
    },
    {
      "channel": 1,
      "note": 70,
      "start": 54.8859,
      "duration": 0.0141,
      "velocity": 103,
      "chip": "ym2612"
    },
    {
      "channel": 1,
      "note": 70,
      "start": 54.9,
      "duration": 0.0146,
      "velocity": 103,
      "chip": "ym2612"
    },
    {
      "channel": 1,
      "note": 70,
      "start": 54.9146,
      "duration": 0.0144,
      "velocity": 103,
      "chip": "ym2612"
    },
    {
      "channel": 1,
      "note": 70,
      "start": 54.929,
      "duration": 0.0144,
      "velocity": 103,
      "chip": "ym2612"
    },
    {
      "channel": 2,
      "note": 70,
      "start": 54.9296,
      "duration": 0.0143,
      "velocity": 103,
      "chip": "ym2612"
    },
    {
      "channel": 1,
      "note": 70,
      "start": 54.9434,
      "duration": 0.0143,
      "velocity": 103,
      "chip": "ym2612"
    },
    {
      "channel": 2,
      "note": 70,
      "start": 54.9439,
      "duration": 0.0144,
      "velocity": 103,
      "chip": "ym2612"
    },
    {
      "channel": 1,
      "note": 70,
      "start": 54.9578,
      "duration": 0.0146,
      "velocity": 103,
      "chip": "ym2612"
    },
    {
      "channel": 2,
      "note": 70,
      "start": 54.9583,
      "duration": 0.0146,
      "velocity": 103,
      "chip": "ym2612"
    },
    {
      "channel": 1,
      "note": 70,
      "start": 54.9723,
      "duration": 0.0145,
      "velocity": 103,
      "chip": "ym2612"
    },
    {
      "channel": 2,
      "note": 70,
      "start": 54.9729,
      "duration": 0.0144,
      "velocity": 103,
      "chip": "ym2612"
    },
    {
      "channel": 1,
      "note": 70,
      "start": 54.9868,
      "duration": 0.0144,
      "velocity": 103,
      "chip": "ym2612"
    },
    {
      "channel": 2,
      "note": 70,
      "start": 54.9874,
      "duration": 0.0143,
      "velocity": 103,
      "chip": "ym2612"
    },
    {
      "channel": 1,
      "note": 70,
      "start": 55.0012,
      "duration": 0.0144,
      "velocity": 103,
      "chip": "ym2612"
    },
    {
      "channel": 2,
      "note": 70,
      "start": 55.0017,
      "duration": 0.0146,
      "velocity": 103,
      "chip": "ym2612"
    },
    {
      "channel": 1,
      "note": 70,
      "start": 55.0156,
      "duration": 0.0143,
      "velocity": 103,
      "chip": "ym2612"
    },
    {
      "channel": 2,
      "note": 70,
      "start": 55.0163,
      "duration": 0.0143,
      "velocity": 103,
      "chip": "ym2612"
    },
    {
      "channel": 1,
      "note": 70,
      "start": 55.03,
      "duration": 0.0148,
      "velocity": 103,
      "chip": "ym2612"
    },
    {
      "channel": 2,
      "note": 70,
      "start": 55.0306,
      "duration": 0.0148,
      "velocity": 103,
      "chip": "ym2612"
    },
    {
      "channel": 1,
      "note": 70,
      "start": 55.0447,
      "duration": 0.0142,
      "velocity": 103,
      "chip": "ym2612"
    },
    {
      "channel": 2,
      "note": 70,
      "start": 55.0454,
      "duration": 0.0144,
      "velocity": 103,
      "chip": "ym2612"
    },
    {
      "channel": 0,
      "note": 47,
      "start": 55.0588,
      "duration": 0.0312,
      "velocity": 95,
      "chip": "ym2612"
    },
    {
      "channel": 1,
      "note": 71,
      "start": 55.0593,
      "duration": 0.1914,
      "velocity": 103,
      "chip": "ym2612"
    },
    {
      "channel": 2,
      "note": 70,
      "start": 55.0598,
      "duration": 0.0042,
      "velocity": 103,
      "chip": "ym2612"
    },
    {
      "channel": 3,
      "note": 63,
      "start": 55.0604,
      "duration": 0.1911,
      "velocity": 89,
      "chip": "ym2612"
    },
    {
      "channel": 4,
      "note": 68,
      "start": 55.061,
      "duration": 0.1911,
      "velocity": 89,
      "chip": "ym2612"
    },
    {
      "channel": 2,
      "note": 70,
      "start": 55.064,
      "duration": 0.0028,
      "velocity": 103,
      "chip": "ym2612"
    },
    {
      "channel": 2,
      "note": 70,
      "start": 55.0668,
      "duration": 0.0024,
      "velocity": 103,
      "chip": "ym2612"
    },
    {
      "channel": 2,
      "note": 71,
      "start": 55.0696,
      "duration": 0.1939,
      "velocity": 103,
      "chip": "ym2612"
    },
    {
      "channel": 0,
      "note": 47,
      "start": 55.0904,
      "duration": 0.1597,
      "velocity": 95,
      "chip": "ym2612"
    },
    {
      "channel": 0,
      "note": 49,
      "start": 55.2506,
      "duration": 0.1424,
      "velocity": 95,
      "chip": "ym2612"
    },
    {
      "channel": 1,
      "note": 73,
      "start": 55.2512,
      "duration": 0.1424,
      "velocity": 103,
      "chip": "ym2612"
    },
    {
      "channel": 3,
      "note": 66,
      "start": 55.2519,
      "duration": 0.1425,
      "velocity": 89,
      "chip": "ym2612"
    },
    {
      "channel": 4,
      "note": 70,
      "start": 55.2525,
      "duration": 0.1425,
      "velocity": 89,
      "chip": "ym2612"
    },
    {
      "channel": 2,
      "note": 73,
      "start": 55.2639,
      "duration": 0.1729,
      "velocity": 103,
      "chip": "ym2612"
    },
    {
      "channel": 0,
      "note": 51,
      "start": 55.3934,
      "duration": 0.203,
      "velocity": 95,
      "chip": "ym2612"
    },
    {
      "channel": 1,
      "note": 75,
      "start": 55.3941,
      "duration": 0.203,
      "velocity": 103,
      "chip": "ym2612"
    },
    {
      "channel": 3,
      "note": 68,
      "start": 55.3949,
      "duration": 0.3649,
      "velocity": 89,
      "chip": "ym2612"
    },
    {
      "channel": 4,
      "note": 71,
      "start": 55.3955,
      "duration": 0.3649,
      "velocity": 89,
      "chip": "ym2612"
    },
    {
      "channel": 2,
      "note": 75,
      "start": 55.4373,
      "duration": 0.1924,
      "velocity": 103,
      "chip": "ym2612"
    },
    {
      "channel": 0,
      "note": 51,
      "start": 55.5965,
      "duration": 0.003,
      "velocity": 95,
      "chip": "ym2612"
    },
    {
      "channel": 1,
      "note": 75,
      "start": 55.5971,
      "duration": 0.0028,
      "velocity": 103,
      "chip": "ym2612"
    },
    {
      "channel": 0,
      "note": 51,
      "start": 55.5995,
      "duration": 0.0146,
      "velocity": 95,
      "chip": "ym2612"
    },
    {
      "channel": 1,
      "note": 75,
      "start": 55.5999,
      "duration": 0.0148,
      "velocity": 103,
      "chip": "ym2612"
    },
    {
      "channel": 0,
      "note": 51,
      "start": 55.6141,
      "duration": 0.0144,
      "velocity": 95,
      "chip": "ym2612"
    },
    {
      "channel": 1,
      "note": 75,
      "start": 55.6146,
      "duration": 0.0144,
      "velocity": 103,
      "chip": "ym2612"
    },
    {
      "channel": 0,
      "note": 51,
      "start": 55.6285,
      "duration": 0.0144,
      "velocity": 95,
      "chip": "ym2612"
    },
    {
      "channel": 1,
      "note": 75,
      "start": 55.6291,
      "duration": 0.0144,
      "velocity": 103,
      "chip": "ym2612"
    },
    {
      "channel": 2,
      "note": 75,
      "start": 55.6297,
      "duration": 0.0143,
      "velocity": 103,
      "chip": "ym2612"
    },
    {
      "channel": 0,
      "note": 51,
      "start": 55.6429,
      "duration": 0.0143,
      "velocity": 95,
      "chip": "ym2612"
    },
    {
      "channel": 1,
      "note": 75,
      "start": 55.6435,
      "duration": 0.0142,
      "velocity": 103,
      "chip": "ym2612"
    },
    {
      "channel": 2,
      "note": 75,
      "start": 55.644,
      "duration": 0.0142,
      "velocity": 103,
      "chip": "ym2612"
    },
    {
      "channel": 0,
      "note": 51,
      "start": 55.6572,
      "duration": 0.0146,
      "velocity": 95,
      "chip": "ym2612"
    },
    {
      "channel": 1,
      "note": 75,
      "start": 55.6577,
      "duration": 0.0148,
      "velocity": 103,
      "chip": "ym2612"
    },
    {
      "channel": 2,
      "note": 75,
      "start": 55.6583,
      "duration": 0.0148,
      "velocity": 103,
      "chip": "ym2612"
    },
    {
      "channel": 0,
      "note": 51,
      "start": 55.6718,
      "duration": 0.0144,
      "velocity": 95,
      "chip": "ym2612"
    },
    {
      "channel": 1,
      "note": 75,
      "start": 55.6725,
      "duration": 0.0144,
      "velocity": 103,
      "chip": "ym2612"
    },
    {
      "channel": 2,
      "note": 75,
      "start": 55.673,
      "duration": 0.0144,
      "velocity": 103,
      "chip": "ym2612"
    },
    {
      "channel": 0,
      "note": 51,
      "start": 55.6863,
      "duration": 0.0144,
      "velocity": 95,
      "chip": "ym2612"
    },
    {
      "channel": 1,
      "note": 75,
      "start": 55.6869,
      "duration": 0.0144,
      "velocity": 103,
      "chip": "ym2612"
    },
    {
      "channel": 2,
      "note": 75,
      "start": 55.6875,
      "duration": 0.0143,
      "velocity": 103,
      "chip": "ym2612"
    },
    {
      "channel": 0,
      "note": 51,
      "start": 55.7007,
      "duration": 0.0144,
      "velocity": 95,
      "chip": "ym2612"
    },
    {
      "channel": 1,
      "note": 75,
      "start": 55.7014,
      "duration": 0.0144,
      "velocity": 103,
      "chip": "ym2612"
    },
    {
      "channel": 2,
      "note": 75,
      "start": 55.7018,
      "duration": 0.0146,
      "velocity": 103,
      "chip": "ym2612"
    },
    {
      "channel": 0,
      "note": 51,
      "start": 55.7151,
      "duration": 0.0143,
      "velocity": 95,
      "chip": "ym2612"
    },
    {
      "channel": 1,
      "note": 75,
      "start": 55.7158,
      "duration": 0.0141,
      "velocity": 103,
      "chip": "ym2612"
    },
    {
      "channel": 2,
      "note": 75,
      "start": 55.7164,
      "duration": 0.0142,
      "velocity": 103,
      "chip": "ym2612"
    },
    {
      "channel": 0,
      "note": 51,
      "start": 55.7294,
      "duration": 0.0146,
      "velocity": 95,
      "chip": "ym2612"
    },
    {
      "channel": 1,
      "note": 75,
      "start": 55.7299,
      "duration": 0.0148,
      "velocity": 103,
      "chip": "ym2612"
    },
    {
      "channel": 2,
      "note": 75,
      "start": 55.7305,
      "duration": 0.0147,
      "velocity": 103,
      "chip": "ym2612"
    },
    {
      "channel": 0,
      "note": 51,
      "start": 55.744,
      "duration": 0.014,
      "velocity": 95,
      "chip": "ym2612"
    },
    {
      "channel": 1,
      "note": 75,
      "start": 55.7447,
      "duration": 0.0139,
      "velocity": 103,
      "chip": "ym2612"
    },
    {
      "channel": 2,
      "note": 75,
      "start": 55.7452,
      "duration": 0.0143,
      "velocity": 103,
      "chip": "ym2612"
    },
    {
      "channel": 0,
      "note": 49,
      "start": 55.7585,
      "duration": 0.1423,
      "velocity": 95,
      "chip": "ym2612"
    },
    {
      "channel": 1,
      "note": 73,
      "start": 55.759,
      "duration": 0.3156,
      "velocity": 103,
      "chip": "ym2612"
    },
    {
      "channel": 2,
      "note": 75,
      "start": 55.7596,
      "duration": 0.0045,
      "velocity": 103,
      "chip": "ym2612"
    },
    {
      "channel": 3,
      "note": 65,
      "start": 55.7602,
      "duration": 0.5068,
      "velocity": 89,
      "chip": "ym2612"
    },
    {
      "channel": 4,
      "note": 70,
      "start": 55.7609,
      "duration": 0.5068,
      "velocity": 89,
      "chip": "ym2612"
    },
    {
      "channel": 2,
      "note": 75,
      "start": 55.7641,
      "duration": 0.0028,
      "velocity": 103,
      "chip": "ym2612"
    },
    {
      "channel": 2,
      "note": 75,
      "start": 55.7669,
      "duration": 0.0044,
      "velocity": 103,
      "chip": "ym2612"
    },
    {
      "channel": 2,
      "note": 73,
      "start": 55.7717,
      "duration": 0.3108,
      "velocity": 103,
      "chip": "ym2612"
    },
    {
      "channel": 0,
      "note": 49,
      "start": 55.9012,
      "duration": 0.1729,
      "velocity": 95,
      "chip": "ym2612"
    },
    {
      "channel": 0,
      "note": 49,
      "start": 56.0745,
      "duration": 0.0293,
      "velocity": 95,
      "chip": "ym2612"
    },
    {
      "channel": 1,
      "note": 71,
      "start": 56.0751,
      "duration": 0.1912,
      "velocity": 103,
      "chip": "ym2612"
    },
    {
      "channel": 2,
      "note": 71,
      "start": 56.083,
      "duration": 0.196,
      "velocity": 103,
      "chip": "ym2612"
    },
    {
      "channel": 0,
      "note": 49,
      "start": 56.1042,
      "duration": 0.1615,
      "velocity": 95,
      "chip": "ym2612"
    },
    {
      "channel": 0,
      "note": 49,
      "start": 56.2662,
      "duration": 0.1423,
      "velocity": 95,
      "chip": "ym2612"
    },
    {
      "channel": 1,
      "note": 70,
      "start": 56.2667,
      "duration": 0.3157,
      "velocity": 103,
      "chip": "ym2612"
    },
    {
      "channel": 3,
      "note": 65,
      "start": 56.2675,
      "duration": 0.1418,
      "velocity": 89,
      "chip": "ym2612"
    },
    {
      "channel": 4,
      "note": 70,
      "start": 56.2681,
      "duration": 0.1418,
      "velocity": 89,
      "chip": "ym2612"
    },
    {
      "channel": 2,
      "note": 70,
      "start": 56.2794,
      "duration": 0.3102,
      "velocity": 103,
      "chip": "ym2612"
    },
    {
      "channel": 0,
      "note": 49,
      "start": 56.4089,
      "duration": 0.1729,
      "velocity": 95,
      "chip": "ym2612"
    },
    {
      "channel": 3,
      "note": 63,
      "start": 56.4098,
      "duration": 0.1734,
      "velocity": 89,
      "chip": "ym2612"
    },
    {
      "channel": 4,
      "note": 68,
      "start": 56.4103,
      "duration": 0.1732,
      "velocity": 89,
      "chip": "ym2612"
    },
    {
      "channel": 0,
      "note": 49,
      "start": 56.5823,
      "duration": 0.0248,
      "velocity": 95,
      "chip": "ym2612"
    },
    {
      "channel": 1,
      "note": 68,
      "start": 56.5829,
      "duration": 0.0248,
      "velocity": 103,
      "chip": "ym2612"
    },
    {
      "channel": 2,
      "note": 68,
      "start": 56.5901,
      "duration": 0.0539,
      "velocity": 103,
      "chip": "ym2612"
    },
    {
      "channel": 0,
      "note": 46,
      "start": 56.6075,
      "duration": 0.3087,
      "velocity": 95,
      "chip": "ym2612"
    },
    {
      "channel": 1,
      "note": 71,
      "start": 56.6081,
      "duration": 0.3089,
      "velocity": 103,
      "chip": "ym2612"
    },
    {
      "channel": 3,
      "note": 65,
      "start": 56.6089,
      "duration": 0.4823,
      "velocity": 89,
      "chip": "ym2612"
    },
    {
      "channel": 4,
      "note": 68,
      "start": 56.6095,
      "duration": 0.4824,
      "velocity": 89,
      "chip": "ym2612"
    },
    {
      "channel": 2,
      "note": 71,
      "start": 56.6445,
      "duration": 0.3163,
      "velocity": 103,
      "chip": "ym2612"
    },
    {
      "channel": 0,
      "note": 46,
      "start": 56.9166,
      "duration": 0.1729,
      "velocity": 95,
      "chip": "ym2612"
    },
    {
      "channel": 1,
      "note": 71,
      "start": 56.9171,
      "duration": 0.0141,
      "velocity": 103,
      "chip": "ym2612"
    },
    {
      "channel": 1,
      "note": 71,
      "start": 56.9311,
      "duration": 0.0146,
      "velocity": 103,
      "chip": "ym2612"
    },
    {
      "channel": 1,
      "note": 71,
      "start": 56.9458,
      "duration": 0.0144,
      "velocity": 103,
      "chip": "ym2612"
    },
    {
      "channel": 1,
      "note": 71,
      "start": 56.9602,
      "duration": 0.0144,
      "velocity": 103,
      "chip": "ym2612"
    },
    {
      "channel": 2,
      "note": 71,
      "start": 56.9608,
      "duration": 0.0143,
      "velocity": 103,
      "chip": "ym2612"
    },
    {
      "channel": 1,
      "note": 71,
      "start": 56.9746,
      "duration": 0.0143,
      "velocity": 103,
      "chip": "ym2612"
    },
    {
      "channel": 2,
      "note": 71,
      "start": 56.9751,
      "duration": 0.0144,
      "velocity": 103,
      "chip": "ym2612"
    },
    {
      "channel": 1,
      "note": 71,
      "start": 56.9889,
      "duration": 0.0146,
      "velocity": 103,
      "chip": "ym2612"
    },
    {
      "channel": 2,
      "note": 71,
      "start": 56.9895,
      "duration": 0.0146,
      "velocity": 103,
      "chip": "ym2612"
    },
    {
      "channel": 1,
      "note": 71,
      "start": 57.0035,
      "duration": 0.0145,
      "velocity": 103,
      "chip": "ym2612"
    },
    {
      "channel": 2,
      "note": 71,
      "start": 57.0041,
      "duration": 0.0144,
      "velocity": 103,
      "chip": "ym2612"
    },
    {
      "channel": 1,
      "note": 71,
      "start": 57.018,
      "duration": 0.0144,
      "velocity": 103,
      "chip": "ym2612"
    },
    {
      "channel": 2,
      "note": 71,
      "start": 57.0186,
      "duration": 0.0143,
      "velocity": 103,
      "chip": "ym2612"
    },
    {
      "channel": 1,
      "note": 71,
      "start": 57.0324,
      "duration": 0.0144,
      "velocity": 103,
      "chip": "ym2612"
    },
    {
      "channel": 2,
      "note": 71,
      "start": 57.0329,
      "duration": 0.0146,
      "velocity": 103,
      "chip": "ym2612"
    },
    {
      "channel": 1,
      "note": 71,
      "start": 57.0469,
      "duration": 0.0143,
      "velocity": 103,
      "chip": "ym2612"
    },
    {
      "channel": 2,
      "note": 71,
      "start": 57.0475,
      "duration": 0.0144,
      "velocity": 103,
      "chip": "ym2612"
    },
    {
      "channel": 1,
      "note": 71,
      "start": 57.0612,
      "duration": 0.0148,
      "velocity": 103,
      "chip": "ym2612"
    },
    {
      "channel": 2,
      "note": 71,
      "start": 57.0618,
      "duration": 0.0148,
      "velocity": 103,
      "chip": "ym2612"
    },
    {
      "channel": 1,
      "note": 71,
      "start": 57.076,
      "duration": 0.0141,
      "velocity": 103,
      "chip": "ym2612"
    },
    {
      "channel": 2,
      "note": 71,
      "start": 57.0767,
      "duration": 0.0144,
      "velocity": 103,
      "chip": "ym2612"
    },
    {
      "channel": 0,
      "note": 46,
      "start": 57.09,
      "duration": 0.1913,
      "velocity": 95,
      "chip": "ym2612"
    },
    {
      "channel": 1,
      "note": 70,
      "start": 57.0906,
      "duration": 0.1912,
      "velocity": 103,
      "chip": "ym2612"
    },
    {
      "channel": 2,
      "note": 71,
      "start": 57.091,
      "duration": 0.0042,
      "velocity": 103,
      "chip": "ym2612"
    },
    {
      "channel": 3,
      "note": 63,
      "start": 57.0917,
      "duration": 0.1909,
      "velocity": 89,
      "chip": "ym2612"
    },
    {
      "channel": 4,
      "note": 66,
      "start": 57.0923,
      "duration": 0.191,
      "velocity": 89,
      "chip": "ym2612"
    },
    {
      "channel": 2,
      "note": 71,
      "start": 57.0952,
      "duration": 0.0028,
      "velocity": 103,
      "chip": "ym2612"
    },
    {
      "channel": 2,
      "note": 71,
      "start": 57.0981,
      "duration": 0.0024,
      "velocity": 103,
      "chip": "ym2612"
    },
    {
      "channel": 2,
      "note": 70,
      "start": 57.1009,
      "duration": 0.1937,
      "velocity": 103,
      "chip": "ym2612"
    },
    {
      "channel": 0,
      "note": 47,
      "start": 57.2817,
      "duration": 0.1424,
      "velocity": 95,
      "chip": "ym2612"
    },
    {
      "channel": 1,
      "note": 71,
      "start": 57.2823,
      "duration": 0.1424,
      "velocity": 103,
      "chip": "ym2612"
    },
    {
      "channel": 3,
      "note": 65,
      "start": 57.283,
      "duration": 0.1424,
      "velocity": 89,
      "chip": "ym2612"
    },
    {
      "channel": 4,
      "note": 68,
      "start": 57.2837,
      "duration": 0.1423,
      "velocity": 89,
      "chip": "ym2612"
    },
    {
      "channel": 2,
      "note": 71,
      "start": 57.2949,
      "duration": 0.173,
      "velocity": 103,
      "chip": "ym2612"
    },
    {
      "channel": 0,
      "note": 49,
      "start": 57.4245,
      "duration": 0.203,
      "velocity": 95,
      "chip": "ym2612"
    },
    {
      "channel": 1,
      "note": 73,
      "start": 57.425,
      "duration": 0.203,
      "velocity": 103,
      "chip": "ym2612"
    },
    {
      "channel": 3,
      "note": 66,
      "start": 57.4259,
      "duration": 0.3653,
      "velocity": 89,
      "chip": "ym2612"
    },
    {
      "channel": 4,
      "note": 70,
      "start": 57.4264,
      "duration": 0.3654,
      "velocity": 89,
      "chip": "ym2612"
    },
    {
      "channel": 2,
      "note": 73,
      "start": 57.4684,
      "duration": 0.1923,
      "velocity": 103,
      "chip": "ym2612"
    },
    {
      "channel": 0,
      "note": 49,
      "start": 57.6275,
      "duration": 0.003,
      "velocity": 95,
      "chip": "ym2612"
    },
    {
      "channel": 1,
      "note": 73,
      "start": 57.628,
      "duration": 0.0029,
      "velocity": 103,
      "chip": "ym2612"
    },
    {
      "channel": 0,
      "note": 49,
      "start": 57.6305,
      "duration": 0.0146,
      "velocity": 95,
      "chip": "ym2612"
    },
    {
      "channel": 1,
      "note": 73,
      "start": 57.6309,
      "duration": 0.0147,
      "velocity": 103,
      "chip": "ym2612"
    },
    {
      "channel": 0,
      "note": 49,
      "start": 57.645,
      "duration": 0.0144,
      "velocity": 95,
      "chip": "ym2612"
    },
    {
      "channel": 1,
      "note": 73,
      "start": 57.6456,
      "duration": 0.0145,
      "velocity": 103,
      "chip": "ym2612"
    },
    {
      "channel": 0,
      "note": 49,
      "start": 57.6595,
      "duration": 0.0145,
      "velocity": 95,
      "chip": "ym2612"
    },
    {
      "channel": 1,
      "note": 73,
      "start": 57.6601,
      "duration": 0.0144,
      "velocity": 103,
      "chip": "ym2612"
    },
    {
      "channel": 2,
      "note": 73,
      "start": 57.6607,
      "duration": 0.0144,
      "velocity": 103,
      "chip": "ym2612"
    },
    {
      "channel": 0,
      "note": 49,
      "start": 57.674,
      "duration": 0.0143,
      "velocity": 95,
      "chip": "ym2612"
    },
    {
      "channel": 1,
      "note": 73,
      "start": 57.6745,
      "duration": 0.0142,
      "velocity": 103,
      "chip": "ym2612"
    },
    {
      "channel": 2,
      "note": 73,
      "start": 57.6751,
      "duration": 0.0142,
      "velocity": 103,
      "chip": "ym2612"
    },
    {
      "channel": 0,
      "note": 49,
      "start": 57.6882,
      "duration": 0.0146,
      "velocity": 95,
      "chip": "ym2612"
    },
    {
      "channel": 1,
      "note": 73,
      "start": 57.6887,
      "duration": 0.0147,
      "velocity": 103,
      "chip": "ym2612"
    },
    {
      "channel": 2,
      "note": 73,
      "start": 57.6893,
      "duration": 0.0148,
      "velocity": 103,
      "chip": "ym2612"
    },
    {
      "channel": 0,
      "note": 49,
      "start": 57.7028,
      "duration": 0.0144,
      "velocity": 95,
      "chip": "ym2612"
    },
    {
      "channel": 1,
      "note": 73,
      "start": 57.7034,
      "duration": 0.0144,
      "velocity": 103,
      "chip": "ym2612"
    },
    {
      "channel": 2,
      "note": 73,
      "start": 57.7041,
      "duration": 0.0144,
      "velocity": 103,
      "chip": "ym2612"
    },
    {
      "channel": 0,
      "note": 49,
      "start": 57.7172,
      "duration": 0.0145,
      "velocity": 95,
      "chip": "ym2612"
    },
    {
      "channel": 1,
      "note": 73,
      "start": 57.7179,
      "duration": 0.0145,
      "velocity": 103,
      "chip": "ym2612"
    },
    {
      "channel": 2,
      "note": 73,
      "start": 57.7185,
      "duration": 0.0143,
      "velocity": 103,
      "chip": "ym2612"
    },
    {
      "channel": 0,
      "note": 49,
      "start": 57.7317,
      "duration": 0.0144,
      "velocity": 95,
      "chip": "ym2612"
    },
    {
      "channel": 1,
      "note": 73,
      "start": 57.7324,
      "duration": 0.0144,
      "velocity": 103,
      "chip": "ym2612"
    },
    {
      "channel": 2,
      "note": 73,
      "start": 57.7328,
      "duration": 0.0146,
      "velocity": 103,
      "chip": "ym2612"
    },
    {
      "channel": 0,
      "note": 49,
      "start": 57.7462,
      "duration": 0.0143,
      "velocity": 95,
      "chip": "ym2612"
    },
    {
      "channel": 1,
      "note": 73,
      "start": 57.7468,
      "duration": 0.0141,
      "velocity": 103,
      "chip": "ym2612"
    },
    {
      "channel": 2,
      "note": 73,
      "start": 57.7474,
      "duration": 0.0141,
      "velocity": 103,
      "chip": "ym2612"
    },
    {
      "channel": 0,
      "note": 49,
      "start": 57.7604,
      "duration": 0.0146,
      "velocity": 95,
      "chip": "ym2612"
    },
    {
      "channel": 1,
      "note": 73,
      "start": 57.7609,
      "duration": 0.0147,
      "velocity": 103,
      "chip": "ym2612"
    },
    {
      "channel": 2,
      "note": 73,
      "start": 57.7616,
      "duration": 0.0147,
      "velocity": 103,
      "chip": "ym2612"
    },
    {
      "channel": 0,
      "note": 49,
      "start": 57.7751,
      "duration": 0.0142,
      "velocity": 95,
      "chip": "ym2612"
    },
    {
      "channel": 1,
      "note": 73,
      "start": 57.7756,
      "duration": 0.0142,
      "velocity": 103,
      "chip": "ym2612"
    },
    {
      "channel": 2,
      "note": 73,
      "start": 57.7763,
      "duration": 0.0145,
      "velocity": 103,
      "chip": "ym2612"
    },
    {
      "channel": 0,
      "note": 51,
      "start": 57.7896,
      "duration": 0.1422,
      "velocity": 95,
      "chip": "ym2612"
    },
    {
      "channel": 1,
      "note": 73,
      "start": 57.7903,
      "duration": 0.3154,
      "velocity": 103,
      "chip": "ym2612"
    },
    {
      "channel": 2,
      "note": 73,
      "start": 57.7908,
      "duration": 0.0047,
      "velocity": 103,
      "chip": "ym2612"
    },
    {
      "channel": 3,
      "note": 70,
      "start": 57.7916,
      "duration": 0.3446,
      "velocity": 89,
      "chip": "ym2612"
    },
    {
      "channel": 4,
      "note": 75,
      "start": 57.7923,
      "duration": 0.3445,
      "velocity": 89,
      "chip": "ym2612"
    },
    {
      "channel": 2,
      "note": 73,
      "start": 57.7955,
      "duration": 0.0028,
      "velocity": 103,
      "chip": "ym2612"
    },
    {
      "channel": 2,
      "note": 73,
      "start": 57.7983,
      "duration": 0.0041,
      "velocity": 103,
      "chip": "ym2612"
    },
    {
      "channel": 2,
      "note": 73,
      "start": 57.8028,
      "duration": 0.3109,
      "velocity": 103,
      "chip": "ym2612"
    },
    {
      "channel": 0,
      "note": 51,
      "start": 57.9322,
      "duration": 0.1729,
      "velocity": 95,
      "chip": "ym2612"
    },
    {
      "channel": 0,
      "note": 51,
      "start": 58.1056,
      "duration": 0.0293,
      "velocity": 95,
      "chip": "ym2612"
    },
    {
      "channel": 1,
      "note": 71,
      "start": 58.1062,
      "duration": 0.0292,
      "velocity": 103,
      "chip": "ym2612"
    },
    {
      "channel": 2,
      "note": 71,
      "start": 58.1141,
      "duration": 0.0532,
      "velocity": 103,
      "chip": "ym2612"
    },
    {
      "channel": 0,
      "note": 51,
      "start": 58.1352,
      "duration": 0.1615,
      "velocity": 95,
      "chip": "ym2612"
    },
    {
      "channel": 1,
      "note": 73,
      "start": 58.1358,
      "duration": 0.3046,
      "velocity": 103,
      "chip": "ym2612"
    },
    {
      "channel": 3,
      "note": 70,
      "start": 58.1366,
      "duration": 0.478,
      "velocity": 89,
      "chip": "ym2612"
    },
    {
      "channel": 4,
      "note": 73,
      "start": 58.1372,
      "duration": 0.478,
      "velocity": 89,
      "chip": "ym2612"
    },
    {
      "channel": 2,
      "note": 73,
      "start": 58.1677,
      "duration": 0.3164,
      "velocity": 103,
      "chip": "ym2612"
    },
    {
      "channel": 0,
      "note": 51,
      "start": 58.2972,
      "duration": 0.1424,
      "velocity": 95,
      "chip": "ym2612"
    },
    {
      "channel": 0,
      "note": 51,
      "start": 58.44,
      "duration": 0.173,
      "velocity": 95,
      "chip": "ym2612"
    },
    {
      "channel": 1,
      "note": 73,
      "start": 58.4405,
      "duration": 0.0141,
      "velocity": 103,
      "chip": "ym2612"
    },
    {
      "channel": 1,
      "note": 73,
      "start": 58.4545,
      "duration": 0.0146,
      "velocity": 103,
      "chip": "ym2612"
    },
    {
      "channel": 1,
      "note": 73,
      "start": 58.4692,
      "duration": 0.0144,
      "velocity": 103,
      "chip": "ym2612"
    },
    {
      "channel": 1,
      "note": 73,
      "start": 58.4835,
      "duration": 0.0145,
      "velocity": 103,
      "chip": "ym2612"
    },
    {
      "channel": 2,
      "note": 73,
      "start": 58.4842,
      "duration": 0.0144,
      "velocity": 103,
      "chip": "ym2612"
    },
    {
      "channel": 1,
      "note": 73,
      "start": 58.498,
      "duration": 0.0143,
      "velocity": 103,
      "chip": "ym2612"
    },
    {
      "channel": 2,
      "note": 73,
      "start": 58.4985,
      "duration": 0.0144,
      "velocity": 103,
      "chip": "ym2612"
    },
    {
      "channel": 1,
      "note": 73,
      "start": 58.5124,
      "duration": 0.0146,
      "velocity": 103,
      "chip": "ym2612"
    },
    {
      "channel": 2,
      "note": 73,
      "start": 58.5129,
      "duration": 0.0146,
      "velocity": 103,
      "chip": "ym2612"
    },
    {
      "channel": 1,
      "note": 73,
      "start": 58.5269,
      "duration": 0.0144,
      "velocity": 103,
      "chip": "ym2612"
    },
    {
      "channel": 2,
      "note": 73,
      "start": 58.5276,
      "duration": 0.0144,
      "velocity": 103,
      "chip": "ym2612"
    },
    {
      "channel": 1,
      "note": 73,
      "start": 58.5414,
      "duration": 0.0144,
      "velocity": 103,
      "chip": "ym2612"
    },
    {
      "channel": 2,
      "note": 73,
      "start": 58.542,
      "duration": 0.0143,
      "velocity": 103,
      "chip": "ym2612"
    },
    {
      "channel": 1,
      "note": 73,
      "start": 58.5558,
      "duration": 0.0144,
      "velocity": 103,
      "chip": "ym2612"
    },
    {
      "channel": 2,
      "note": 73,
      "start": 58.5563,
      "duration": 0.0146,
      "velocity": 103,
      "chip": "ym2612"
    },
    {
      "channel": 1,
      "note": 73,
      "start": 58.5702,
      "duration": 0.0143,
      "velocity": 103,
      "chip": "ym2612"
    },
    {
      "channel": 2,
      "note": 73,
      "start": 58.5709,
      "duration": 0.0143,
      "velocity": 103,
      "chip": "ym2612"
    },
    {
      "channel": 1,
      "note": 73,
      "start": 58.5846,
      "duration": 0.0146,
      "velocity": 103,
      "chip": "ym2612"
    },
    {
      "channel": 2,
      "note": 73,
      "start": 58.5852,
      "duration": 0.0146,
      "velocity": 103,
      "chip": "ym2612"
    },
    {
      "channel": 1,
      "note": 73,
      "start": 58.5991,
      "duration": 0.0144,
      "velocity": 103,
      "chip": "ym2612"
    },
    {
      "channel": 2,
      "note": 73,
      "start": 58.5998,
      "duration": 0.0146,
      "velocity": 103,
      "chip": "ym2612"
    },
    {
      "channel": 0,
      "note": 51,
      "start": 58.6134,
      "duration": 0.0307,
      "velocity": 95,
      "chip": "ym2612"
    },
    {
      "channel": 1,
      "note": 75,
      "start": 58.6139,
      "duration": 0.1918,
      "velocity": 103,
      "chip": "ym2612"
    },
    {
      "channel": 2,
      "note": 73,
      "start": 58.6144,
      "duration": 0.0037,
      "velocity": 103,
      "chip": "ym2612"
    },
    {
      "channel": 3,
      "note": 70,
      "start": 58.615,
      "duration": 0.1915,
      "velocity": 89,
      "chip": "ym2612"
    },
    {
      "channel": 4,
      "note": 75,
      "start": 58.6156,
      "duration": 0.1915,
      "velocity": 89,
      "chip": "ym2612"
    },
    {
      "channel": 2,
      "note": 73,
      "start": 58.6181,
      "duration": 0.0028,
      "velocity": 103,
      "chip": "ym2612"
    },
    {
      "channel": 2,
      "note": 73,
      "start": 58.6209,
      "duration": 0.0024,
      "velocity": 103,
      "chip": "ym2612"
    },
    {
      "channel": 2,
      "note": 75,
      "start": 58.6237,
      "duration": 0.1941,
      "velocity": 103,
      "chip": "ym2612"
    },
    {
      "channel": 0,
      "note": 51,
      "start": 58.6446,
      "duration": 0.1605,
      "velocity": 95,
      "chip": "ym2612"
    },
    {
      "channel": 0,
      "note": 47,
      "start": 58.8055,
      "duration": 0.1417,
      "velocity": 95,
      "chip": "ym2612"
    },
    {
      "channel": 1,
      "note": 82,
      "start": 58.8062,
      "duration": 0.1748,
      "velocity": 103,
      "chip": "ym2612"
    },
    {
      "channel": 3,
      "note": 75,
      "start": 58.8069,
      "duration": 0.1412,
      "velocity": 89,
      "chip": "ym2612"
    },
    {
      "channel": 4,
      "note": 78,
      "start": 58.8076,
      "duration": 0.1412,
      "velocity": 89,
      "chip": "ym2612"
    },
    {
      "channel": 2,
      "note": 82,
      "start": 58.8183,
      "duration": 0.1729,
      "velocity": 103,
      "chip": "ym2612"
    },
    {
      "channel": 0,
      "note": 47,
      "start": 58.9477,
      "duration": 0.0323,
      "velocity": 95,
      "chip": "ym2612"
    },
    {
      "channel": 3,
      "note": 75,
      "start": 58.9486,
      "duration": 0.0327,
      "velocity": 89,
      "chip": "ym2612"
    },
    {
      "channel": 4,
      "note": 78,
      "start": 58.9492,
      "duration": 0.0326,
      "velocity": 89,
      "chip": "ym2612"
    },
    {
      "channel": 0,
      "note": 47,
      "start": 58.9804,
      "duration": 0.0373,
      "velocity": 95,
      "chip": "ym2612"
    },
    {
      "channel": 1,
      "note": 82,
      "start": 58.9809,
      "duration": 0.0039,
      "velocity": 103,
      "chip": "ym2612"
    },
    {
      "channel": 3,
      "note": 75,
      "start": 58.9816,
      "duration": 0.1918,
      "velocity": 89,
      "chip": "ym2612"
    },
    {
      "channel": 4,
      "note": 78,
      "start": 58.9823,
      "duration": 0.1918,
      "velocity": 89,
      "chip": "ym2612"
    },
    {
      "channel": 1,
      "note": 82,
      "start": 58.9849,
      "duration": 0.0028,
      "velocity": 103,
      "chip": "ym2612"
    },
    {
      "channel": 1,
      "note": 82,
      "start": 58.9877,
      "duration": 0.0029,
      "velocity": 103,
      "chip": "ym2612"
    },
    {
      "channel": 1,
      "note": 82,
      "start": 58.9906,
      "duration": 0.0032,
      "velocity": 103,
      "chip": "ym2612"
    },
    {
      "channel": 2,
      "note": 82,
      "start": 58.9912,
      "duration": 0.003,
      "velocity": 103,
      "chip": "ym2612"
    },
    {
      "channel": 1,
      "note": 82,
      "start": 58.9938,
      "duration": 0.0029,
      "velocity": 103,
      "chip": "ym2612"
    },
    {
      "channel": 2,
      "note": 82,
      "start": 58.9942,
      "duration": 0.0031,
      "velocity": 103,
      "chip": "ym2612"
    },
    {
      "channel": 1,
      "note": 82,
      "start": 58.9967,
      "duration": 0.0032,
      "velocity": 103,
      "chip": "ym2612"
    },
    {
      "channel": 2,
      "note": 82,
      "start": 58.9973,
      "duration": 0.0032,
      "velocity": 103,
      "chip": "ym2612"
    },
    {
      "channel": 1,
      "note": 82,
      "start": 58.9999,
      "duration": 0.0028,
      "velocity": 103,
      "chip": "ym2612"
    },
    {
      "channel": 2,
      "note": 82,
      "start": 59.0005,
      "duration": 0.0028,
      "velocity": 103,
      "chip": "ym2612"
    },
    {
      "channel": 1,
      "note": 82,
      "start": 59.0027,
      "duration": 0.0032,
      "velocity": 103,
      "chip": "ym2612"
    },
    {
      "channel": 2,
      "note": 82,
      "start": 59.0033,
      "duration": 0.003,
      "velocity": 103,
      "chip": "ym2612"
    },
    {
      "channel": 1,
      "note": 82,
      "start": 59.0059,
      "duration": 0.003,
      "velocity": 103,
      "chip": "ym2612"
    },
    {
      "channel": 2,
      "note": 82,
      "start": 59.0063,
      "duration": 0.0032,
      "velocity": 103,
      "chip": "ym2612"
    },
    {
      "channel": 1,
      "note": 82,
      "start": 59.0089,
      "duration": 0.0031,
      "velocity": 103,
      "chip": "ym2612"
    },
    {
      "channel": 2,
      "note": 82,
      "start": 59.0095,
      "duration": 0.0031,
      "velocity": 103,
      "chip": "ym2612"
    },
    {
      "channel": 1,
      "note": 82,
      "start": 59.012,
      "duration": 0.0031,
      "velocity": 103,
      "chip": "ym2612"
    },
    {
      "channel": 2,
      "note": 82,
      "start": 59.0126,
      "duration": 0.0032,
      "velocity": 103,
      "chip": "ym2612"
    },
    {
      "channel": 1,
      "note": 82,
      "start": 59.0151,
      "duration": 0.0035,
      "velocity": 103,
      "chip": "ym2612"
    },
    {
      "channel": 2,
      "note": 82,
      "start": 59.0158,
      "duration": 0.0033,
      "velocity": 103,
      "chip": "ym2612"
    },
    {
      "channel": 0,
      "note": 47,
      "start": 59.0181,
      "duration": 0.1538,
      "velocity": 95,
      "chip": "ym2612"
    },
    {
      "channel": 1,
      "note": 82,
      "start": 59.0186,
      "duration": 0.0027,
      "velocity": 103,
      "chip": "ym2612"
    },
    {
      "channel": 2,
      "note": 82,
      "start": 59.019,
      "duration": 0.0028,
      "velocity": 103,
      "chip": "ym2612"
    },
    {
      "channel": 1,
      "note": 82,
      "start": 59.0213,
      "duration": 0.0067,
      "velocity": 103,
      "chip": "ym2612"
    },
    {
      "channel": 2,
      "note": 82,
      "start": 59.0218,
      "duration": 0.0067,
      "velocity": 103,
      "chip": "ym2612"
    },
    {
      "channel": 1,
      "note": 82,
      "start": 59.028,
      "duration": 0.0146,
      "velocity": 103,
      "chip": "ym2612"
    },
    {
      "channel": 2,
      "note": 82,
      "start": 59.0285,
      "duration": 0.0146,
      "velocity": 103,
      "chip": "ym2612"
    },
    {
      "channel": 1,
      "note": 82,
      "start": 59.0425,
      "duration": 0.0145,
      "velocity": 103,
      "chip": "ym2612"
    },
    {
      "channel": 2,
      "note": 82,
      "start": 59.0432,
      "duration": 0.0144,
      "velocity": 103,
      "chip": "ym2612"
    },
    {
      "channel": 1,
      "note": 82,
      "start": 59.0571,
      "duration": 0.0144,
      "velocity": 103,
      "chip": "ym2612"
    },
    {
      "channel": 2,
      "note": 82,
      "start": 59.0576,
      "duration": 0.0143,
      "velocity": 103,
      "chip": "ym2612"
    },
    {
      "channel": 1,
      "note": 82,
      "start": 59.0715,
      "duration": 0.0144,
      "velocity": 103,
      "chip": "ym2612"
    },
    {
      "channel": 2,
      "note": 82,
      "start": 59.0719,
      "duration": 0.0146,
      "velocity": 103,
      "chip": "ym2612"
    },
    {
      "channel": 1,
      "note": 82,
      "start": 59.0859,
      "duration": 0.0143,
      "velocity": 103,
      "chip": "ym2612"
    },
    {
      "channel": 2,
      "note": 82,
      "start": 59.0865,
      "duration": 0.0143,
      "velocity": 103,
      "chip": "ym2612"
    },
    {
      "channel": 1,
      "note": 82,
      "start": 59.1002,
      "duration": 0.0146,
      "velocity": 103,
      "chip": "ym2612"
    },
    {
      "channel": 2,
      "note": 82,
      "start": 59.1008,
      "duration": 0.0146,
      "velocity": 103,
      "chip": "ym2612"
    },
    {
      "channel": 1,
      "note": 82,
      "start": 59.1148,
      "duration": 0.0144,
      "velocity": 103,
      "chip": "ym2612"
    },
    {
      "channel": 2,
      "note": 82,
      "start": 59.1154,
      "duration": 0.0145,
      "velocity": 103,
      "chip": "ym2612"
    },
    {
      "channel": 1,
      "note": 82,
      "start": 59.1293,
      "duration": 0.0147,
      "velocity": 103,
      "chip": "ym2612"
    },
    {
      "channel": 2,
      "note": 82,
      "start": 59.1299,
      "duration": 0.0145,
      "velocity": 103,
      "chip": "ym2612"
    },
    {
      "channel": 1,
      "note": 82,
      "start": 59.1439,
      "duration": 0.0141,
      "velocity": 103,
      "chip": "ym2612"
    },
    {
      "channel": 2,
      "note": 82,
      "start": 59.1444,
      "duration": 0.0142,
      "velocity": 103,
      "chip": "ym2612"
    },
    {
      "channel": 1,
      "note": 82,
      "start": 59.158,
      "duration": 0.0148,
      "velocity": 103,
      "chip": "ym2612"
    },
    {
      "channel": 2,
      "note": 82,
      "start": 59.1586,
      "duration": 0.0146,
      "velocity": 103,
      "chip": "ym2612"
    },
    {
      "channel": 0,
      "note": 47,
      "start": 59.1723,
      "duration": 0.039,
      "velocity": 95,
      "chip": "ym2612"
    },
    {
      "channel": 1,
      "note": 82,
      "start": 59.1728,
      "duration": 0.0046,
      "velocity": 103,
      "chip": "ym2612"
    },
    {
      "channel": 2,
      "note": 82,
      "start": 59.1733,
      "duration": 0.0047,
      "velocity": 103,
      "chip": "ym2612"
    },
    {
      "channel": 3,
      "note": 75,
      "start": 59.1739,
      "duration": 0.0785,
      "velocity": 89,
      "chip": "ym2612"
    },
    {
      "channel": 4,
      "note": 78,
      "start": 59.1745,
      "duration": 0.0785,
      "velocity": 89,
      "chip": "ym2612"
    },
    {
      "channel": 1,
      "note": 82,
      "start": 59.1773,
      "duration": 0.0033,
      "velocity": 103,
      "chip": "ym2612"
    },
    {
      "channel": 2,
      "note": 82,
      "start": 59.178,
      "duration": 0.0031,
      "velocity": 103,
      "chip": "ym2612"
    },
    {
      "channel": 1,
      "note": 82,
      "start": 59.1806,
      "duration": 0.003,
      "velocity": 103,
      "chip": "ym2612"
    },
    {
      "channel": 2,
      "note": 82,
      "start": 59.181,
      "duration": 0.0032,
      "velocity": 103,
      "chip": "ym2612"
    },
    {
      "channel": 1,
      "note": 82,
      "start": 59.1836,
      "duration": 0.003,
      "velocity": 103,
      "chip": "ym2612"
    },
    {
      "channel": 2,
      "note": 82,
      "start": 59.1843,
      "duration": 0.003,
      "velocity": 103,
      "chip": "ym2612"
    },
    {
      "channel": 1,
      "note": 82,
      "start": 59.1866,
      "duration": 0.0032,
      "velocity": 103,
      "chip": "ym2612"
    },
    {
      "channel": 2,
      "note": 82,
      "start": 59.1873,
      "duration": 0.0032,
      "velocity": 103,
      "chip": "ym2612"
    },
    {
      "channel": 1,
      "note": 82,
      "start": 59.1898,
      "duration": 0.0027,
      "velocity": 103,
      "chip": "ym2612"
    },
    {
      "channel": 2,
      "note": 82,
      "start": 59.1904,
      "duration": 0.0027,
      "velocity": 103,
      "chip": "ym2612"
    },
    {
      "channel": 1,
      "note": 82,
      "start": 59.1925,
      "duration": 0.0032,
      "velocity": 103,
      "chip": "ym2612"
    },
    {
      "channel": 2,
      "note": 82,
      "start": 59.1932,
      "duration": 0.0031,
      "velocity": 103,
      "chip": "ym2612"
    },
    {
      "channel": 1,
      "note": 82,
      "start": 59.1957,
      "duration": 0.0029,
      "velocity": 103,
      "chip": "ym2612"
    },
    {
      "channel": 2,
      "note": 82,
      "start": 59.1962,
      "duration": 0.003,
      "velocity": 103,
      "chip": "ym2612"
    },
    {
      "channel": 1,
      "note": 82,
      "start": 59.1986,
      "duration": 0.0032,
      "velocity": 103,
      "chip": "ym2612"
    },
    {
      "channel": 2,
      "note": 82,
      "start": 59.1992,
      "duration": 0.0032,
      "velocity": 103,
      "chip": "ym2612"
    },
    {
      "channel": 1,
      "note": 82,
      "start": 59.2018,
      "duration": 0.0032,
      "velocity": 103,
      "chip": "ym2612"
    },
    {
      "channel": 2,
      "note": 82,
      "start": 59.2024,
      "duration": 0.0032,
      "velocity": 103,
      "chip": "ym2612"
    },
    {
      "channel": 1,
      "note": 82,
      "start": 59.205,
      "duration": 0.0033,
      "velocity": 103,
      "chip": "ym2612"
    },
    {
      "channel": 2,
      "note": 82,
      "start": 59.2056,
      "duration": 0.0031,
      "velocity": 103,
      "chip": "ym2612"
    },
    {
      "channel": 1,
      "note": 82,
      "start": 59.2083,
      "duration": 0.0039,
      "velocity": 103,
      "chip": "ym2612"
    },
    {
      "channel": 2,
      "note": 82,
      "start": 59.2087,
      "duration": 0.0039,
      "velocity": 103,
      "chip": "ym2612"
    },
    {
      "channel": 0,
      "note": 47,
      "start": 59.2117,
      "duration": 0.0391,
      "velocity": 95,
      "chip": "ym2612"
    },
    {
      "channel": 1,
      "note": 82,
      "start": 59.2122,
      "duration": 0.0034,
      "velocity": 103,
      "chip": "ym2612"
    },
    {
      "channel": 2,
      "note": 82,
      "start": 59.2126,
      "duration": 0.0036,
      "velocity": 103,
      "chip": "ym2612"
    },
    {
      "channel": 1,
      "note": 82,
      "start": 59.2156,
      "duration": 0.0028,
      "velocity": 103,
      "chip": "ym2612"
    },
    {
      "channel": 2,
      "note": 82,
      "start": 59.2162,
      "duration": 0.0028,
      "velocity": 103,
      "chip": "ym2612"
    },
    {
      "channel": 1,
      "note": 82,
      "start": 59.2183,
      "duration": 0.0032,
      "velocity": 103,
      "chip": "ym2612"
    },
    {
      "channel": 2,
      "note": 82,
      "start": 59.219,
      "duration": 0.0032,
      "velocity": 103,
      "chip": "ym2612"
    },
    {
      "channel": 1,
      "note": 82,
      "start": 59.2215,
      "duration": 0.0032,
      "velocity": 103,
      "chip": "ym2612"
    },
    {
      "channel": 2,
      "note": 82,
      "start": 59.2222,
      "duration": 0.003,
      "velocity": 103,
      "chip": "ym2612"
    },
    {
      "channel": 1,
      "note": 82,
      "start": 59.2247,
      "duration": 0.0029,
      "velocity": 103,
      "chip": "ym2612"
    },
    {
      "channel": 2,
      "note": 82,
      "start": 59.2252,
      "duration": 0.003,
      "velocity": 103,
      "chip": "ym2612"
    },
    {
      "channel": 1,
      "note": 82,
      "start": 59.2276,
      "duration": 0.0032,
      "velocity": 103,
      "chip": "ym2612"
    },
    {
      "channel": 2,
      "note": 82,
      "start": 59.2283,
      "duration": 0.0031,
      "velocity": 103,
      "chip": "ym2612"
    },
    {
      "channel": 1,
      "note": 82,
      "start": 59.2308,
      "duration": 0.0032,
      "velocity": 103,
      "chip": "ym2612"
    },
    {
      "channel": 2,
      "note": 82,
      "start": 59.2314,
      "duration": 0.0032,
      "velocity": 103,
      "chip": "ym2612"
    },
    {
      "channel": 1,
      "note": 82,
      "start": 59.2339,
      "duration": 0.0032,
      "velocity": 103,
      "chip": "ym2612"
    },
    {
      "channel": 2,
      "note": 82,
      "start": 59.2346,
      "duration": 0.003,
      "velocity": 103,
      "chip": "ym2612"
    },
    {
      "channel": 1,
      "note": 82,
      "start": 59.2372,
      "duration": 0.0031,
      "velocity": 103,
      "chip": "ym2612"
    },
    {
      "channel": 2,
      "note": 82,
      "start": 59.2376,
      "duration": 0.0033,
      "velocity": 103,
      "chip": "ym2612"
    },
    {
      "channel": 1,
      "note": 82,
      "start": 59.2402,
      "duration": 0.0027,
      "velocity": 103,
      "chip": "ym2612"
    },
    {
      "channel": 2,
      "note": 82,
      "start": 59.2409,
      "duration": 0.0026,
      "velocity": 103,
      "chip": "ym2612"
    },
    {
      "channel": 1,
      "note": 82,
      "start": 59.2429,
      "duration": 0.0032,
      "velocity": 103,
      "chip": "ym2612"
    },
    {
      "channel": 2,
      "note": 82,
      "start": 59.2435,
      "duration": 0.0033,
      "velocity": 103,
      "chip": "ym2612"
    },
    {
      "channel": 1,
      "note": 82,
      "start": 59.2461,
      "duration": 0.0052,
      "velocity": 103,
      "chip": "ym2612"
    },
    {
      "channel": 2,
      "note": 82,
      "start": 59.2467,
      "duration": 0.0055,
      "velocity": 103,
      "chip": "ym2612"
    },
    {
      "channel": 0,
      "note": 46,
      "start": 59.2511,
      "duration": 0.0321,
      "velocity": 95,
      "chip": "ym2612"
    },
    {
      "channel": 1,
      "note": 80,
      "start": 59.2518,
      "duration": 0.0605,
      "velocity": 103,
      "chip": "ym2612"
    },
    {
      "channel": 2,
      "note": 82,
      "start": 59.2522,
      "duration": 0.0051,
      "velocity": 103,
      "chip": "ym2612"
    },
    {
      "channel": 3,
      "note": 73,
      "start": 59.2529,
      "duration": 0.0604,
      "velocity": 89,
      "chip": "ym2612"
    },
    {
      "channel": 4,
      "note": 77,
      "start": 59.2535,
      "duration": 0.0606,
      "velocity": 89,
      "chip": "ym2612"
    },
    {
      "channel": 2,
      "note": 82,
      "start": 59.2573,
      "duration": 0.0027,
      "velocity": 103,
      "chip": "ym2612"
    },
    {
      "channel": 2,
      "note": 82,
      "start": 59.26,
      "duration": 0.0024,
      "velocity": 103,
      "chip": "ym2612"
    },
    {
      "channel": 2,
      "note": 80,
      "start": 59.2629,
      "duration": 0.062,
      "velocity": 103,
      "chip": "ym2612"
    },
    {
      "channel": 0,
      "note": 46,
      "start": 59.2837,
      "duration": 0.0278,
      "velocity": 95,
      "chip": "ym2612"
    },
    {
      "channel": 0,
      "note": 51,
      "start": 59.312,
      "duration": 0.1422,
      "velocity": 95,
      "chip": "ym2612"
    },
    {
      "channel": 1,
      "note": 78,
      "start": 59.3127,
      "duration": 0.3154,
      "velocity": 103,
      "chip": "ym2612"
    },
    {
      "channel": 3,
      "note": 70,
      "start": 59.3137,
      "duration": 0.5069,
      "velocity": 89,
      "chip": "ym2612"
    },
    {
      "channel": 4,
      "note": 75,
      "start": 59.3145,
      "duration": 0.5066,
      "velocity": 89,
      "chip": "ym2612"
    },
    {
      "channel": 2,
      "note": 78,
      "start": 59.3253,
      "duration": 0.3109,
      "velocity": 103,
      "chip": "ym2612"
    },
    {
      "channel": 0,
      "note": 51,
      "start": 59.4545,
      "duration": 0.173,
      "velocity": 95,
      "chip": "ym2612"
    },
    {
      "channel": 0,
      "note": 51,
      "start": 59.628,
      "duration": 0.0292,
      "velocity": 95,
      "chip": "ym2612"
    },
    {
      "channel": 1,
      "note": 75,
      "start": 59.6285,
      "duration": 0.1912,
      "velocity": 103,
      "chip": "ym2612"
    },
    {
      "channel": 2,
      "note": 75,
      "start": 59.6366,
      "duration": 0.196,
      "velocity": 103,
      "chip": "ym2612"
    },
    {
      "channel": 0,
      "note": 51,
      "start": 59.6576,
      "duration": 0.1615,
      "velocity": 95,
      "chip": "ym2612"
    },
    {
      "channel": 0,
      "note": 51,
      "start": 59.8196,
      "duration": 0.1424,
      "velocity": 95,
      "chip": "ym2612"
    },
    {
      "channel": 1,
      "note": 77,
      "start": 59.8202,
      "duration": 0.3158,
      "velocity": 103,
      "chip": "ym2612"
    },
    {
      "channel": 3,
      "note": 70,
      "start": 59.8209,
      "duration": 0.1419,
      "velocity": 89,
      "chip": "ym2612"
    },
    {
      "channel": 4,
      "note": 75,
      "start": 59.8216,
      "duration": 0.1419,
      "velocity": 89,
      "chip": "ym2612"
    },
    {
      "channel": 2,
      "note": 77,
      "start": 59.8329,
      "duration": 0.3102,
      "velocity": 103,
      "chip": "ym2612"
    },
    {
      "channel": 0,
      "note": 51,
      "start": 59.9624,
      "duration": 0.1729,
      "velocity": 95,
      "chip": "ym2612"
    },
    {
      "channel": 3,
      "note": 70,
      "start": 59.9633,
      "duration": 0.1734,
      "velocity": 89,
      "chip": "ym2612"
    },
    {
      "channel": 4,
      "note": 73,
      "start": 59.9639,
      "duration": 0.1731,
      "velocity": 89,
      "chip": "ym2612"
    },
    {
      "channel": 0,
      "note": 49,
      "start": 60.1358,
      "duration": 0.0247,
      "velocity": 95,
      "chip": "ym2612"
    },
    {
      "channel": 1,
      "note": 70,
      "start": 60.1364,
      "duration": 0.0247,
      "velocity": 103,
      "chip": "ym2612"
    },
    {
      "channel": 2,
      "note": 70,
      "start": 60.1436,
      "duration": 0.0539,
      "velocity": 103,
      "chip": "ym2612"
    },
    {
      "channel": 0,
      "note": 47,
      "start": 60.1609,
      "duration": 0.3088,
      "velocity": 95,
      "chip": "ym2612"
    },
    {
      "channel": 1,
      "note": 71,
      "start": 60.1616,
      "duration": 0.309,
      "velocity": 103,
      "chip": "ym2612"
    },
    {
      "channel": 3,
      "note": 68,
      "start": 60.1623,
      "duration": 0.4824,
      "velocity": 89,
      "chip": "ym2612"
    },
    {
      "channel": 4,
      "note": 71,
      "start": 60.1629,
      "duration": 0.4824,
      "velocity": 89,
      "chip": "ym2612"
    },
    {
      "channel": 2,
      "note": 71,
      "start": 60.1979,
      "duration": 0.3165,
      "velocity": 103,
      "chip": "ym2612"
    },
    {
      "channel": 0,
      "note": 47,
      "start": 60.4701,
      "duration": 0.1729,
      "velocity": 95,
      "chip": "ym2612"
    },
    {
      "channel": 1,
      "note": 71,
      "start": 60.4706,
      "duration": 0.0141,
      "velocity": 103,
      "chip": "ym2612"
    },
    {
      "channel": 1,
      "note": 71,
      "start": 60.4847,
      "duration": 0.0146,
      "velocity": 103,
      "chip": "ym2612"
    },
    {
      "channel": 1,
      "note": 71,
      "start": 60.4993,
      "duration": 0.0144,
      "velocity": 103,
      "chip": "ym2612"
    },
    {
      "channel": 1,
      "note": 71,
      "start": 60.5137,
      "duration": 0.0144,
      "velocity": 103,
      "chip": "ym2612"
    },
    {
      "channel": 2,
      "note": 71,
      "start": 60.5144,
      "duration": 0.0142,
      "velocity": 103,
      "chip": "ym2612"
    },
    {
      "channel": 1,
      "note": 71,
      "start": 60.5282,
      "duration": 0.0143,
      "velocity": 103,
      "chip": "ym2612"
    },
    {
      "channel": 2,
      "note": 71,
      "start": 60.5286,
      "duration": 0.0144,
      "velocity": 103,
      "chip": "ym2612"
    },
    {
      "channel": 1,
      "note": 71,
      "start": 60.5425,
      "duration": 0.0146,
      "velocity": 103,
      "chip": "ym2612"
    },
    {
      "channel": 2,
      "note": 71,
      "start": 60.543,
      "duration": 0.0146,
      "velocity": 103,
      "chip": "ym2612"
    },
    {
      "channel": 1,
      "note": 71,
      "start": 60.557,
      "duration": 0.0144,
      "velocity": 103,
      "chip": "ym2612"
    },
    {
      "channel": 2,
      "note": 71,
      "start": 60.5577,
      "duration": 0.0144,
      "velocity": 103,
      "chip": "ym2612"
    },
    {
      "channel": 1,
      "note": 71,
      "start": 60.5715,
      "duration": 0.0145,
      "velocity": 103,
      "chip": "ym2612"
    },
    {
      "channel": 2,
      "note": 71,
      "start": 60.5721,
      "duration": 0.0143,
      "velocity": 103,
      "chip": "ym2612"
    },
    {
      "channel": 1,
      "note": 71,
      "start": 60.586,
      "duration": 0.0144,
      "velocity": 103,
      "chip": "ym2612"
    },
    {
      "channel": 2,
      "note": 71,
      "start": 60.5864,
      "duration": 0.0146,
      "velocity": 103,
      "chip": "ym2612"
    },
    {
      "channel": 1,
      "note": 71,
      "start": 60.6004,
      "duration": 0.0143,
      "velocity": 103,
      "chip": "ym2612"
    },
    {
      "channel": 2,
      "note": 71,
      "start": 60.6011,
      "duration": 0.0142,
      "velocity": 103,
      "chip": "ym2612"
    },
    {
      "channel": 1,
      "note": 71,
      "start": 60.6147,
      "duration": 0.015,
      "velocity": 103,
      "chip": "ym2612"
    },
    {
      "channel": 2,
      "note": 71,
      "start": 60.6153,
      "duration": 0.015,
      "velocity": 103,
      "chip": "ym2612"
    },
    {
      "channel": 1,
      "note": 71,
      "start": 60.6297,
      "duration": 0.0139,
      "velocity": 103,
      "chip": "ym2612"
    },
    {
      "channel": 2,
      "note": 71,
      "start": 60.6303,
      "duration": 0.0143,
      "velocity": 103,
      "chip": "ym2612"
    },
    {
      "channel": 0,
      "note": 47,
      "start": 60.6435,
      "duration": 0.1914,
      "velocity": 95,
      "chip": "ym2612"
    },
    {
      "channel": 1,
      "note": 73,
      "start": 60.6441,
      "duration": 0.1914,
      "velocity": 103,
      "chip": "ym2612"
    },
    {
      "channel": 2,
      "note": 71,
      "start": 60.6446,
      "duration": 0.0041,
      "velocity": 103,
      "chip": "ym2612"
    },
    {
      "channel": 3,
      "note": 68,
      "start": 60.6451,
      "duration": 0.1911,
      "velocity": 89,
      "chip": "ym2612"
    },
    {
      "channel": 4,
      "note": 71,
      "start": 60.6458,
      "duration": 0.1911,
      "velocity": 89,
      "chip": "ym2612"
    },
    {
      "channel": 2,
      "note": 71,
      "start": 60.6487,
      "duration": 0.0028,
      "velocity": 103,
      "chip": "ym2612"
    },
    {
      "channel": 2,
      "note": 71,
      "start": 60.6515,
      "duration": 0.0024,
      "velocity": 103,
      "chip": "ym2612"
    },
    {
      "channel": 2,
      "note": 73,
      "start": 60.6543,
      "duration": 0.1939,
      "velocity": 103,
      "chip": "ym2612"
    },
    {
      "channel": 0,
      "note": 47,
      "start": 60.8353,
      "duration": 0.1424,
      "velocity": 95,
      "chip": "ym2612"
    },
    {
      "channel": 1,
      "note": 75,
      "start": 60.8359,
      "duration": 0.1424,
      "velocity": 103,
      "chip": "ym2612"
    },
    {
      "channel": 3,
      "note": 68,
      "start": 60.8367,
      "duration": 0.1424,
      "velocity": 89,
      "chip": "ym2612"
    },
    {
      "channel": 4,
      "note": 71,
      "start": 60.8373,
      "duration": 0.1424,
      "velocity": 89,
      "chip": "ym2612"
    },
    {
      "channel": 2,
      "note": 75,
      "start": 60.8487,
      "duration": 0.1728,
      "velocity": 103,
      "chip": "ym2612"
    },
    {
      "channel": 0,
      "note": 49,
      "start": 60.9782,
      "duration": 0.203,
      "velocity": 95,
      "chip": "ym2612"
    },
    {
      "channel": 1,
      "note": 77,
      "start": 60.9788,
      "duration": 0.203,
      "velocity": 103,
      "chip": "ym2612"
    },
    {
      "channel": 3,
      "note": 70,
      "start": 60.9795,
      "duration": 0.3649,
      "velocity": 89,
      "chip": "ym2612"
    },
    {
      "channel": 4,
      "note": 73,
      "start": 60.9802,
      "duration": 0.3649,
      "velocity": 89,
      "chip": "ym2612"
    },
    {
      "channel": 2,
      "note": 77,
      "start": 61.022,
      "duration": 0.1924,
      "velocity": 103,
      "chip": "ym2612"
    },
    {
      "channel": 0,
      "note": 49,
      "start": 61.1812,
      "duration": 0.003,
      "velocity": 95,
      "chip": "ym2612"
    },
    {
      "channel": 1,
      "note": 77,
      "start": 61.1818,
      "duration": 0.0028,
      "velocity": 103,
      "chip": "ym2612"
    },
    {
      "channel": 0,
      "note": 49,
      "start": 61.1841,
      "duration": 0.0146,
      "velocity": 95,
      "chip": "ym2612"
    },
    {
      "channel": 1,
      "note": 77,
      "start": 61.1846,
      "duration": 0.0148,
      "velocity": 103,
      "chip": "ym2612"
    },
    {
      "channel": 0,
      "note": 49,
      "start": 61.1987,
      "duration": 0.0144,
      "velocity": 95,
      "chip": "ym2612"
    },
    {
      "channel": 1,
      "note": 77,
      "start": 61.1993,
      "duration": 0.0144,
      "velocity": 103,
      "chip": "ym2612"
    },
    {
      "channel": 0,
      "note": 49,
      "start": 61.2132,
      "duration": 0.0145,
      "velocity": 95,
      "chip": "ym2612"
    },
    {
      "channel": 1,
      "note": 77,
      "start": 61.2138,
      "duration": 0.0144,
      "velocity": 103,
      "chip": "ym2612"
    },
    {
      "channel": 2,
      "note": 77,
      "start": 61.2144,
      "duration": 0.0144,
      "velocity": 103,
      "chip": "ym2612"
    },
    {
      "channel": 0,
      "note": 49,
      "start": 61.2277,
      "duration": 0.0142,
      "velocity": 95,
      "chip": "ym2612"
    },
    {
      "channel": 1,
      "note": 77,
      "start": 61.2282,
      "duration": 0.0141,
      "velocity": 103,
      "chip": "ym2612"
    },
    {
      "channel": 2,
      "note": 77,
      "start": 61.2287,
      "duration": 0.0143,
      "velocity": 103,
      "chip": "ym2612"
    },
    {
      "channel": 0,
      "note": 49,
      "start": 61.2419,
      "duration": 0.0146,
      "velocity": 95,
      "chip": "ym2612"
    },
    {
      "channel": 1,
      "note": 77,
      "start": 61.2424,
      "duration": 0.0148,
      "velocity": 103,
      "chip": "ym2612"
    },
    {
      "channel": 2,
      "note": 77,
      "start": 61.243,
      "duration": 0.0148,
      "velocity": 103,
      "chip": "ym2612"
    },
    {
      "channel": 0,
      "note": 49,
      "start": 61.2565,
      "duration": 0.0145,
      "velocity": 95,
      "chip": "ym2612"
    },
    {
      "channel": 1,
      "note": 77,
      "start": 61.2571,
      "duration": 0.0145,
      "velocity": 103,
      "chip": "ym2612"
    },
    {
      "channel": 2,
      "note": 77,
      "start": 61.2578,
      "duration": 0.0144,
      "velocity": 103,
      "chip": "ym2612"
    },
    {
      "channel": 0,
      "note": 49,
      "start": 61.271,
      "duration": 0.0146,
      "velocity": 95,
      "chip": "ym2612"
    },
    {
      "channel": 1,
      "note": 77,
      "start": 61.2716,
      "duration": 0.0146,
      "velocity": 103,
      "chip": "ym2612"
    },
    {
      "channel": 2,
      "note": 77,
      "start": 61.2722,
      "duration": 0.0145,
      "velocity": 103,
      "chip": "ym2612"
    },
    {
      "channel": 0,
      "note": 49,
      "start": 61.2856,
      "duration": 0.0142,
      "velocity": 95,
      "chip": "ym2612"
    },
    {
      "channel": 1,
      "note": 77,
      "start": 61.2862,
      "duration": 0.0142,
      "velocity": 103,
      "chip": "ym2612"
    },
    {
      "channel": 2,
      "note": 77,
      "start": 61.2867,
      "duration": 0.0144,
      "velocity": 103,
      "chip": "ym2612"
    },
    {
      "channel": 0,
      "note": 49,
      "start": 61.2998,
      "duration": 0.0143,
      "velocity": 95,
      "chip": "ym2612"
    },
    {
      "channel": 1,
      "note": 77,
      "start": 61.3004,
      "duration": 0.0142,
      "velocity": 103,
      "chip": "ym2612"
    },
    {
      "channel": 2,
      "note": 77,
      "start": 61.3011,
      "duration": 0.0142,
      "velocity": 103,
      "chip": "ym2612"
    },
    {
      "channel": 0,
      "note": 49,
      "start": 61.3141,
      "duration": 0.0146,
      "velocity": 95,
      "chip": "ym2612"
    },
    {
      "channel": 1,
      "note": 77,
      "start": 61.3146,
      "duration": 0.0147,
      "velocity": 103,
      "chip": "ym2612"
    },
    {
      "channel": 2,
      "note": 77,
      "start": 61.3153,
      "duration": 0.0147,
      "velocity": 103,
      "chip": "ym2612"
    },
    {
      "channel": 0,
      "note": 49,
      "start": 61.3287,
      "duration": 0.014,
      "velocity": 95,
      "chip": "ym2612"
    },
    {
      "channel": 1,
      "note": 77,
      "start": 61.3293,
      "duration": 0.014,
      "velocity": 103,
      "chip": "ym2612"
    },
    {
      "channel": 2,
      "note": 77,
      "start": 61.33,
      "duration": 0.0143,
      "velocity": 103,
      "chip": "ym2612"
    },
    {
      "channel": 0,
      "note": 47,
      "start": 61.3432,
      "duration": 0.1423,
      "velocity": 95,
      "chip": "ym2612"
    },
    {
      "channel": 1,
      "note": 75,
      "start": 61.3437,
      "duration": 0.3157,
      "velocity": 103,
      "chip": "ym2612"
    },
    {
      "channel": 2,
      "note": 77,
      "start": 61.3443,
      "duration": 0.0045,
      "velocity": 103,
      "chip": "ym2612"
    },
    {
      "channel": 3,
      "note": 68,
      "start": 61.3449,
      "duration": 0.507,
      "velocity": 89,
      "chip": "ym2612"
    },
    {
      "channel": 4,
      "note": 71,
      "start": 61.3455,
      "duration": 0.507,
      "velocity": 89,
      "chip": "ym2612"
    },
    {
      "channel": 2,
      "note": 77,
      "start": 61.3488,
      "duration": 0.0027,
      "velocity": 103,
      "chip": "ym2612"
    },
    {
      "channel": 2,
      "note": 77,
      "start": 61.3515,
      "duration": 0.0045,
      "velocity": 103,
      "chip": "ym2612"
    },
    {
      "channel": 2,
      "note": 75,
      "start": 61.3564,
      "duration": 0.3108,
      "velocity": 103,
      "chip": "ym2612"
    },
    {
      "channel": 0,
      "note": 47,
      "start": 61.4859,
      "duration": 0.1729,
      "velocity": 95,
      "chip": "ym2612"
    },
    {
      "channel": 0,
      "note": 47,
      "start": 61.6592,
      "duration": 0.0294,
      "velocity": 95,
      "chip": "ym2612"
    },
    {
      "channel": 1,
      "note": 73,
      "start": 61.6599,
      "duration": 0.1913,
      "velocity": 103,
      "chip": "ym2612"
    },
    {
      "channel": 2,
      "note": 73,
      "start": 61.6677,
      "duration": 0.1961,
      "velocity": 103,
      "chip": "ym2612"
    },
    {
      "channel": 0,
      "note": 47,
      "start": 61.689,
      "duration": 0.1615,
      "velocity": 95,
      "chip": "ym2612"
    },
    {
      "channel": 0,
      "note": 47,
      "start": 61.851,
      "duration": 0.1423,
      "velocity": 95,
      "chip": "ym2612"
    },
    {
      "channel": 1,
      "note": 71,
      "start": 61.8516,
      "duration": 0.3157,
      "velocity": 103,
      "chip": "ym2612"
    },
    {
      "channel": 3,
      "note": 68,
      "start": 61.8523,
      "duration": 0.1419,
      "velocity": 89,
      "chip": "ym2612"
    },
    {
      "channel": 4,
      "note": 71,
      "start": 61.853,
      "duration": 0.1419,
      "velocity": 89,
      "chip": "ym2612"
    },
    {
      "channel": 2,
      "note": 71,
      "start": 61.8643,
      "duration": 0.3102,
      "velocity": 103,
      "chip": "ym2612"
    },
    {
      "channel": 0,
      "note": 47,
      "start": 61.9937,
      "duration": 0.1729,
      "velocity": 95,
      "chip": "ym2612"
    },
    {
      "channel": 3,
      "note": 66,
      "start": 61.9947,
      "duration": 0.1734,
      "velocity": 89,
      "chip": "ym2612"
    },
    {
      "channel": 4,
      "note": 70,
      "start": 61.9953,
      "duration": 0.173,
      "velocity": 89,
      "chip": "ym2612"
    },
    {
      "channel": 0,
      "note": 49,
      "start": 62.1671,
      "duration": 0.0247,
      "velocity": 95,
      "chip": "ym2612"
    },
    {
      "channel": 1,
      "note": 68,
      "start": 62.1677,
      "duration": 0.0247,
      "velocity": 103,
      "chip": "ym2612"
    },
    {
      "channel": 2,
      "note": 68,
      "start": 62.175,
      "duration": 0.0537,
      "velocity": 103,
      "chip": "ym2612"
    },
    {
      "channel": 0,
      "note": 46,
      "start": 62.1922,
      "duration": 0.3088,
      "velocity": 95,
      "chip": "ym2612"
    },
    {
      "channel": 1,
      "note": 70,
      "start": 62.1929,
      "duration": 0.3091,
      "velocity": 103,
      "chip": "ym2612"
    },
    {
      "channel": 3,
      "note": 65,
      "start": 62.1936,
      "duration": 0.4825,
      "velocity": 89,
      "chip": "ym2612"
    },
    {
      "channel": 4,
      "note": 70,
      "start": 62.1942,
      "duration": 0.4825,
      "velocity": 89,
      "chip": "ym2612"
    },
    {
      "channel": 2,
      "note": 70,
      "start": 62.2291,
      "duration": 0.3166,
      "velocity": 103,
      "chip": "ym2612"
    },
    {
      "channel": 0,
      "note": 46,
      "start": 62.5015,
      "duration": 0.1729,
      "velocity": 95,
      "chip": "ym2612"
    },
    {
      "channel": 1,
      "note": 70,
      "start": 62.502,
      "duration": 0.0141,
      "velocity": 103,
      "chip": "ym2612"
    },
    {
      "channel": 1,
      "note": 70,
      "start": 62.516,
      "duration": 0.0146,
      "velocity": 103,
      "chip": "ym2612"
    },
    {
      "channel": 1,
      "note": 70,
      "start": 62.5307,
      "duration": 0.0144,
      "velocity": 103,
      "chip": "ym2612"
    },
    {
      "channel": 1,
      "note": 70,
      "start": 62.5451,
      "duration": 0.0145,
      "velocity": 103,
      "chip": "ym2612"
    },
    {
      "channel": 2,
      "note": 70,
      "start": 62.5457,
      "duration": 0.0144,
      "velocity": 103,
      "chip": "ym2612"
    },
    {
      "channel": 1,
      "note": 70,
      "start": 62.5596,
      "duration": 0.0143,
      "velocity": 103,
      "chip": "ym2612"
    },
    {
      "channel": 2,
      "note": 70,
      "start": 62.56,
      "duration": 0.0144,
      "velocity": 103,
      "chip": "ym2612"
    },
    {
      "channel": 1,
      "note": 70,
      "start": 62.5739,
      "duration": 0.0146,
      "velocity": 103,
      "chip": "ym2612"
    },
    {
      "channel": 2,
      "note": 70,
      "start": 62.5744,
      "duration": 0.0146,
      "velocity": 103,
      "chip": "ym2612"
    },
    {
      "channel": 1,
      "note": 70,
      "start": 62.5884,
      "duration": 0.0144,
      "velocity": 103,
      "chip": "ym2612"
    },
    {
      "channel": 2,
      "note": 70,
      "start": 62.589,
      "duration": 0.0144,
      "velocity": 103,
      "chip": "ym2612"
    },
    {
      "channel": 1,
      "note": 70,
      "start": 62.6029,
      "duration": 0.0144,
      "velocity": 103,
      "chip": "ym2612"
    },
    {
      "channel": 2,
      "note": 70,
      "start": 62.6035,
      "duration": 0.0143,
      "velocity": 103,
      "chip": "ym2612"
    },
    {
      "channel": 1,
      "note": 70,
      "start": 62.6173,
      "duration": 0.0144,
      "velocity": 103,
      "chip": "ym2612"
    },
    {
      "channel": 2,
      "note": 70,
      "start": 62.6178,
      "duration": 0.0146,
      "velocity": 103,
      "chip": "ym2612"
    },
    {
      "channel": 1,
      "note": 70,
      "start": 62.6317,
      "duration": 0.0143,
      "velocity": 103,
      "chip": "ym2612"
    },
    {
      "channel": 2,
      "note": 70,
      "start": 62.6324,
      "duration": 0.0143,
      "velocity": 103,
      "chip": "ym2612"
    },
    {
      "channel": 1,
      "note": 70,
      "start": 62.6461,
      "duration": 0.0146,
      "velocity": 103,
      "chip": "ym2612"
    },
    {
      "channel": 2,
      "note": 70,
      "start": 62.6467,
      "duration": 0.0146,
      "velocity": 103,
      "chip": "ym2612"
    },
    {
      "channel": 1,
      "note": 70,
      "start": 62.6607,
      "duration": 0.0143,
      "velocity": 103,
      "chip": "ym2612"
    },
    {
      "channel": 2,
      "note": 70,
      "start": 62.6612,
      "duration": 0.0146,
      "velocity": 103,
      "chip": "ym2612"
    },
    {
      "channel": 0,
      "note": 47,
      "start": 62.6748,
      "duration": 0.0312,
      "velocity": 95,
      "chip": "ym2612"
    },
    {
      "channel": 1,
      "note": 71,
      "start": 62.6754,
      "duration": 0.1914,
      "velocity": 103,
      "chip": "ym2612"
    },
    {
      "channel": 2,
      "note": 70,
      "start": 62.6759,
      "duration": 0.0041,
      "velocity": 103,
      "chip": "ym2612"
    },
    {
      "channel": 3,
      "note": 63,
      "start": 62.6765,
      "duration": 0.191,
      "velocity": 89,
      "chip": "ym2612"
    },
    {
      "channel": 4,
      "note": 68,
      "start": 62.6771,
      "duration": 0.191,
      "velocity": 89,
      "chip": "ym2612"
    },
    {
      "channel": 2,
      "note": 70,
      "start": 62.68,
      "duration": 0.0027,
      "velocity": 103,
      "chip": "ym2612"
    },
    {
      "channel": 2,
      "note": 70,
      "start": 62.6827,
      "duration": 0.0024,
      "velocity": 103,
      "chip": "ym2612"
    },
    {
      "channel": 2,
      "note": 71,
      "start": 62.6856,
      "duration": 0.1939,
      "velocity": 103,
      "chip": "ym2612"
    },
    {
      "channel": 0,
      "note": 47,
      "start": 62.7064,
      "duration": 0.1597,
      "velocity": 95,
      "chip": "ym2612"
    },
    {
      "channel": 0,
      "note": 49,
      "start": 62.8666,
      "duration": 0.1424,
      "velocity": 95,
      "chip": "ym2612"
    },
    {
      "channel": 1,
      "note": 73,
      "start": 62.8672,
      "duration": 0.1425,
      "velocity": 103,
      "chip": "ym2612"
    },
    {
      "channel": 3,
      "note": 66,
      "start": 62.868,
      "duration": 0.1425,
      "velocity": 89,
      "chip": "ym2612"
    },
    {
      "channel": 4,
      "note": 70,
      "start": 62.8686,
      "duration": 0.1425,
      "velocity": 89,
      "chip": "ym2612"
    },
    {
      "channel": 2,
      "note": 73,
      "start": 62.88,
      "duration": 0.1729,
      "velocity": 103,
      "chip": "ym2612"
    },
    {
      "channel": 0,
      "note": 51,
      "start": 63.0095,
      "duration": 0.203,
      "velocity": 95,
      "chip": "ym2612"
    },
    {
      "channel": 1,
      "note": 75,
      "start": 63.0101,
      "duration": 0.203,
      "velocity": 103,
      "chip": "ym2612"
    },
    {
      "channel": 3,
      "note": 68,
      "start": 63.0109,
      "duration": 0.3649,
      "velocity": 89,
      "chip": "ym2612"
    },
    {
      "channel": 4,
      "note": 71,
      "start": 63.0116,
      "duration": 0.3649,
      "velocity": 89,
      "chip": "ym2612"
    },
    {
      "channel": 2,
      "note": 75,
      "start": 63.0533,
      "duration": 0.1924,
      "velocity": 103,
      "chip": "ym2612"
    },
    {
      "channel": 0,
      "note": 51,
      "start": 63.2125,
      "duration": 0.003,
      "velocity": 95,
      "chip": "ym2612"
    },
    {
      "channel": 1,
      "note": 75,
      "start": 63.2131,
      "duration": 0.0028,
      "velocity": 103,
      "chip": "ym2612"
    },
    {
      "channel": 0,
      "note": 51,
      "start": 63.2155,
      "duration": 0.0146,
      "velocity": 95,
      "chip": "ym2612"
    },
    {
      "channel": 1,
      "note": 75,
      "start": 63.2159,
      "duration": 0.0148,
      "velocity": 103,
      "chip": "ym2612"
    },
    {
      "channel": 0,
      "note": 51,
      "start": 63.23,
      "duration": 0.0144,
      "velocity": 95,
      "chip": "ym2612"
    },
    {
      "channel": 1,
      "note": 75,
      "start": 63.2307,
      "duration": 0.0144,
      "velocity": 103,
      "chip": "ym2612"
    },
    {
      "channel": 0,
      "note": 51,
      "start": 63.2445,
      "duration": 0.0144,
      "velocity": 95,
      "chip": "ym2612"
    },
    {
      "channel": 1,
      "note": 75,
      "start": 63.2451,
      "duration": 0.0144,
      "velocity": 103,
      "chip": "ym2612"
    },
    {
      "channel": 2,
      "note": 75,
      "start": 63.2457,
      "duration": 0.0143,
      "velocity": 103,
      "chip": "ym2612"
    },
    {
      "channel": 0,
      "note": 51,
      "start": 63.2589,
      "duration": 0.0143,
      "velocity": 95,
      "chip": "ym2612"
    },
    {
      "channel": 1,
      "note": 75,
      "start": 63.2596,
      "duration": 0.0141,
      "velocity": 103,
      "chip": "ym2612"
    },
    {
      "channel": 2,
      "note": 75,
      "start": 63.26,
      "duration": 0.0143,
      "velocity": 103,
      "chip": "ym2612"
    },
    {
      "channel": 0,
      "note": 51,
      "start": 63.2732,
      "duration": 0.0146,
      "velocity": 95,
      "chip": "ym2612"
    },
    {
      "channel": 1,
      "note": 75,
      "start": 63.2737,
      "duration": 0.0148,
      "velocity": 103,
      "chip": "ym2612"
    },
    {
      "channel": 2,
      "note": 75,
      "start": 63.2743,
      "duration": 0.0147,
      "velocity": 103,
      "chip": "ym2612"
    },
    {
      "channel": 0,
      "note": 51,
      "start": 63.2879,
      "duration": 0.0144,
      "velocity": 95,
      "chip": "ym2612"
    },
    {
      "channel": 1,
      "note": 75,
      "start": 63.2885,
      "duration": 0.0144,
      "velocity": 103,
      "chip": "ym2612"
    },
    {
      "channel": 2,
      "note": 75,
      "start": 63.2891,
      "duration": 0.0144,
      "velocity": 103,
      "chip": "ym2612"
    },
    {
      "channel": 0,
      "note": 51,
      "start": 63.3023,
      "duration": 0.0148,
      "velocity": 95,
      "chip": "ym2612"
    },
    {
      "channel": 1,
      "note": 75,
      "start": 63.3029,
      "duration": 0.0147,
      "velocity": 103,
      "chip": "ym2612"
    },
    {
      "channel": 2,
      "note": 75,
      "start": 63.3035,
      "duration": 0.0146,
      "velocity": 103,
      "chip": "ym2612"
    },
    {
      "channel": 0,
      "note": 51,
      "start": 63.3171,
      "duration": 0.0141,
      "velocity": 95,
      "chip": "ym2612"
    },
    {
      "channel": 1,
      "note": 75,
      "start": 63.3176,
      "duration": 0.0141,
      "velocity": 103,
      "chip": "ym2612"
    },
    {
      "channel": 2,
      "note": 75,
      "start": 63.3181,
      "duration": 0.0143,
      "velocity": 103,
      "chip": "ym2612"
    },
    {
      "channel": 0,
      "note": 51,
      "start": 63.3311,
      "duration": 0.0143,
      "velocity": 95,
      "chip": "ym2612"
    },
    {
      "channel": 1,
      "note": 75,
      "start": 63.3318,
      "duration": 0.0142,
      "velocity": 103,
      "chip": "ym2612"
    },
    {
      "channel": 2,
      "note": 75,
      "start": 63.3324,
      "duration": 0.0141,
      "velocity": 103,
      "chip": "ym2612"
    },
    {
      "channel": 0,
      "note": 51,
      "start": 63.3454,
      "duration": 0.0146,
      "velocity": 95,
      "chip": "ym2612"
    },
    {
      "channel": 1,
      "note": 75,
      "start": 63.3459,
      "duration": 0.0147,
      "velocity": 103,
      "chip": "ym2612"
    },
    {
      "channel": 2,
      "note": 75,
      "start": 63.3465,
      "duration": 0.0147,
      "velocity": 103,
      "chip": "ym2612"
    },
    {
      "channel": 0,
      "note": 51,
      "start": 63.3601,
      "duration": 0.014,
      "velocity": 95,
      "chip": "ym2612"
    },
    {
      "channel": 1,
      "note": 75,
      "start": 63.3606,
      "duration": 0.014,
      "velocity": 103,
      "chip": "ym2612"
    },
    {
      "channel": 2,
      "note": 75,
      "start": 63.3613,
      "duration": 0.0143,
      "velocity": 103,
      "chip": "ym2612"
    },
    {
      "channel": 0,
      "note": 49,
      "start": 63.3745,
      "duration": 0.1424,
      "velocity": 95,
      "chip": "ym2612"
    },
    {
      "channel": 1,
      "note": 73,
      "start": 63.3751,
      "duration": 0.3157,
      "velocity": 103,
      "chip": "ym2612"
    },
    {
      "channel": 2,
      "note": 75,
      "start": 63.3755,
      "duration": 0.0046,
      "velocity": 103,
      "chip": "ym2612"
    },
    {
      "channel": 3,
      "note": 65,
      "start": 63.3763,
      "duration": 0.5068,
      "velocity": 89,
      "chip": "ym2612"
    },
    {
      "channel": 4,
      "note": 70,
      "start": 63.3769,
      "duration": 0.5069,
      "velocity": 89,
      "chip": "ym2612"
    },
    {
      "channel": 2,
      "note": 75,
      "start": 63.3801,
      "duration": 0.0028,
      "velocity": 103,
      "chip": "ym2612"
    },
    {
      "channel": 2,
      "note": 75,
      "start": 63.3829,
      "duration": 0.0045,
      "velocity": 103,
      "chip": "ym2612"
    },
    {
      "channel": 2,
      "note": 73,
      "start": 63.3879,
      "duration": 0.311,
      "velocity": 103,
      "chip": "ym2612"
    },
    {
      "channel": 0,
      "note": 49,
      "start": 63.5173,
      "duration": 0.1729,
      "velocity": 95,
      "chip": "ym2612"
    },
    {
      "channel": 0,
      "note": 49,
      "start": 63.6907,
      "duration": 0.0291,
      "velocity": 95,
      "chip": "ym2612"
    },
    {
      "channel": 1,
      "note": 71,
      "start": 63.6912,
      "duration": 0.1912,
      "velocity": 103,
      "chip": "ym2612"
    },
    {
      "channel": 2,
      "note": 71,
      "start": 63.6993,
      "duration": 0.1958,
      "velocity": 103,
      "chip": "ym2612"
    },
    {
      "channel": 0,
      "note": 49,
      "start": 63.7202,
      "duration": 0.1616,
      "velocity": 95,
      "chip": "ym2612"
    },
    {
      "channel": 0,
      "note": 49,
      "start": 63.8822,
      "duration": 0.1422,
      "velocity": 95,
      "chip": "ym2612"
    },
    {
      "channel": 1,
      "note": 70,
      "start": 63.8828,
      "duration": 0.3157,
      "velocity": 103,
      "chip": "ym2612"
    },
    {
      "channel": 3,
      "note": 65,
      "start": 63.8836,
      "duration": 0.1418,
      "velocity": 89,
      "chip": "ym2612"
    },
    {
      "channel": 4,
      "note": 70,
      "start": 63.8842,
      "duration": 0.1418,
      "velocity": 89,
      "chip": "ym2612"
    },
    {
      "channel": 2,
      "note": 70,
      "start": 63.8955,
      "duration": 0.3102,
      "velocity": 103,
      "chip": "ym2612"
    },
    {
      "channel": 0,
      "note": 49,
      "start": 64.0249,
      "duration": 0.1729,
      "velocity": 95,
      "chip": "ym2612"
    },
    {
      "channel": 3,
      "note": 63,
      "start": 64.0258,
      "duration": 0.1734,
      "velocity": 89,
      "chip": "ym2612"
    },
    {
      "channel": 4,
      "note": 68,
      "start": 64.0265,
      "duration": 0.173,
      "velocity": 89,
      "chip": "ym2612"
    },
    {
      "channel": 0,
      "note": 49,
      "start": 64.1983,
      "duration": 0.0247,
      "velocity": 95,
      "chip": "ym2612"
    },
    {
      "channel": 1,
      "note": 68,
      "start": 64.1989,
      "duration": 0.0247,
      "velocity": 103,
      "chip": "ym2612"
    },
    {
      "channel": 2,
      "note": 68,
      "start": 64.2061,
      "duration": 0.0539,
      "velocity": 103,
      "chip": "ym2612"
    },
    {
      "channel": 0,
      "note": 46,
      "start": 64.2234,
      "duration": 0.3088,
      "velocity": 95,
      "chip": "ym2612"
    },
    {
      "channel": 1,
      "note": 71,
      "start": 64.2241,
      "duration": 0.3091,
      "velocity": 103,
      "chip": "ym2612"
    },
    {
      "channel": 3,
      "note": 65,
      "start": 64.2247,
      "duration": 0.4826,
      "velocity": 89,
      "chip": "ym2612"
    },
    {
      "channel": 4,
      "note": 68,
      "start": 64.2254,
      "duration": 0.4826,
      "velocity": 89,
      "chip": "ym2612"
    },
    {
      "channel": 2,
      "note": 71,
      "start": 64.2604,
      "duration": 0.3166,
      "velocity": 103,
      "chip": "ym2612"
    },
    {
      "channel": 0,
      "note": 46,
      "start": 64.5327,
      "duration": 0.173,
      "velocity": 95,
      "chip": "ym2612"
    },
    {
      "channel": 1,
      "note": 71,
      "start": 64.5332,
      "duration": 0.0141,
      "velocity": 103,
      "chip": "ym2612"
    },
    {
      "channel": 1,
      "note": 71,
      "start": 64.5473,
      "duration": 0.0146,
      "velocity": 103,
      "chip": "ym2612"
    },
    {
      "channel": 1,
      "note": 71,
      "start": 64.5619,
      "duration": 0.0144,
      "velocity": 103,
      "chip": "ym2612"
    },
    {
      "channel": 1,
      "note": 71,
      "start": 64.5763,
      "duration": 0.0144,
      "velocity": 103,
      "chip": "ym2612"
    },
    {
      "channel": 2,
      "note": 71,
      "start": 64.577,
      "duration": 0.0143,
      "velocity": 103,
      "chip": "ym2612"
    },
    {
      "channel": 1,
      "note": 71,
      "start": 64.5907,
      "duration": 0.0143,
      "velocity": 103,
      "chip": "ym2612"
    },
    {
      "channel": 2,
      "note": 71,
      "start": 64.5913,
      "duration": 0.0144,
      "velocity": 103,
      "chip": "ym2612"
    },
    {
      "channel": 1,
      "note": 71,
      "start": 64.6051,
      "duration": 0.0146,
      "velocity": 103,
      "chip": "ym2612"
    },
    {
      "channel": 2,
      "note": 71,
      "start": 64.6056,
      "duration": 0.0146,
      "velocity": 103,
      "chip": "ym2612"
    },
    {
      "channel": 1,
      "note": 71,
      "start": 64.6196,
      "duration": 0.0144,
      "velocity": 103,
      "chip": "ym2612"
    },
    {
      "channel": 2,
      "note": 71,
      "start": 64.6203,
      "duration": 0.0144,
      "velocity": 103,
      "chip": "ym2612"
    },
    {
      "channel": 1,
      "note": 71,
      "start": 64.6341,
      "duration": 0.0145,
      "velocity": 103,
      "chip": "ym2612"
    },
    {
      "channel": 2,
      "note": 71,
      "start": 64.6347,
      "duration": 0.0143,
      "velocity": 103,
      "chip": "ym2612"
    },
    {
      "channel": 1,
      "note": 71,
      "start": 64.6486,
      "duration": 0.0144,
      "velocity": 103,
      "chip": "ym2612"
    },
    {
      "channel": 2,
      "note": 71,
      "start": 64.649,
      "duration": 0.0146,
      "velocity": 103,
      "chip": "ym2612"
    },
    {
      "channel": 1,
      "note": 71,
      "start": 64.663,
      "duration": 0.0143,
      "velocity": 103,
      "chip": "ym2612"
    },
    {
      "channel": 2,
      "note": 71,
      "start": 64.6636,
      "duration": 0.0143,
      "velocity": 103,
      "chip": "ym2612"
    },
    {
      "channel": 1,
      "note": 71,
      "start": 64.6773,
      "duration": 0.0146,
      "velocity": 103,
      "chip": "ym2612"
    },
    {
      "channel": 2,
      "note": 71,
      "start": 64.6779,
      "duration": 0.0146,
      "velocity": 103,
      "chip": "ym2612"
    },
    {
      "channel": 1,
      "note": 71,
      "start": 64.6919,
      "duration": 0.0143,
      "velocity": 103,
      "chip": "ym2612"
    },
    {
      "channel": 2,
      "note": 71,
      "start": 64.6925,
      "duration": 0.0146,
      "velocity": 103,
      "chip": "ym2612"
    },
    {
      "channel": 0,
      "note": 46,
      "start": 64.7061,
      "duration": 0.1914,
      "velocity": 95,
      "chip": "ym2612"
    },
    {
      "channel": 1,
      "note": 70,
      "start": 64.7067,
      "duration": 0.1914,
      "velocity": 103,
      "chip": "ym2612"
    },
    {
      "channel": 2,
      "note": 71,
      "start": 64.7072,
      "duration": 0.0042,
      "velocity": 103,
      "chip": "ym2612"
    },
    {
      "channel": 3,
      "note": 63,
      "start": 64.7077,
      "duration": 0.1911,
      "velocity": 89,
      "chip": "ym2612"
    },
    {
      "channel": 4,
      "note": 66,
      "start": 64.7084,
      "duration": 0.1911,
      "velocity": 89,
      "chip": "ym2612"
    },
    {
      "channel": 2,
      "note": 71,
      "start": 64.7114,
      "duration": 0.0027,
      "velocity": 103,
      "chip": "ym2612"
    },
    {
      "channel": 2,
      "note": 71,
      "start": 64.7141,
      "duration": 0.0024,
      "velocity": 103,
      "chip": "ym2612"
    },
    {
      "channel": 2,
      "note": 70,
      "start": 64.717,
      "duration": 0.1938,
      "velocity": 103,
      "chip": "ym2612"
    },
    {
      "channel": 0,
      "note": 47,
      "start": 64.8979,
      "duration": 0.1424,
      "velocity": 95,
      "chip": "ym2612"
    },
    {
      "channel": 1,
      "note": 71,
      "start": 64.8985,
      "duration": 0.1423,
      "velocity": 103,
      "chip": "ym2612"
    },
    {
      "channel": 3,
      "note": 65,
      "start": 64.8993,
      "duration": 0.1423,
      "velocity": 89,
      "chip": "ym2612"
    },
    {
      "channel": 4,
      "note": 68,
      "start": 64.9,
      "duration": 0.1423,
      "velocity": 89,
      "chip": "ym2612"
    },
    {
      "channel": 2,
      "note": 71,
      "start": 64.9112,
      "duration": 0.1729,
      "velocity": 103,
      "chip": "ym2612"
    },
    {
      "channel": 0,
      "note": 49,
      "start": 65.0407,
      "duration": 0.203,
      "velocity": 95,
      "chip": "ym2612"
    },
    {
      "channel": 1,
      "note": 73,
      "start": 65.0413,
      "duration": 0.2031,
      "velocity": 103,
      "chip": "ym2612"
    },
    {
      "channel": 3,
      "note": 66,
      "start": 65.0421,
      "duration": 0.3654,
      "velocity": 89,
      "chip": "ym2612"
    },
    {
      "channel": 4,
      "note": 70,
      "start": 65.0427,
      "duration": 0.3651,
      "velocity": 89,
      "chip": "ym2612"
    },
    {
      "channel": 2,
      "note": 73,
      "start": 65.0846,
      "duration": 0.1925,
      "velocity": 103,
      "chip": "ym2612"
    },
    {
      "channel": 0,
      "note": 49,
      "start": 65.2437,
      "duration": 0.003,
      "velocity": 95,
      "chip": "ym2612"
    },
    {
      "channel": 1,
      "note": 73,
      "start": 65.2444,
      "duration": 0.0028,
      "velocity": 103,
      "chip": "ym2612"
    },
    {
      "channel": 0,
      "note": 49,
      "start": 65.2467,
      "duration": 0.0146,
      "velocity": 95,
      "chip": "ym2612"
    },
    {
      "channel": 1,
      "note": 73,
      "start": 65.2472,
      "duration": 0.0147,
      "velocity": 103,
      "chip": "ym2612"
    },
    {
      "channel": 0,
      "note": 49,
      "start": 65.2613,
      "duration": 0.0144,
      "velocity": 95,
      "chip": "ym2612"
    },
    {
      "channel": 1,
      "note": 73,
      "start": 65.2619,
      "duration": 0.0145,
      "velocity": 103,
      "chip": "ym2612"
    },
    {
      "channel": 0,
      "note": 49,
      "start": 65.2758,
      "duration": 0.0144,
      "velocity": 95,
      "chip": "ym2612"
    },
    {
      "channel": 1,
      "note": 73,
      "start": 65.2764,
      "duration": 0.0144,
      "velocity": 103,
      "chip": "ym2612"
    },
    {
      "channel": 2,
      "note": 73,
      "start": 65.277,
      "duration": 0.0142,
      "velocity": 103,
      "chip": "ym2612"
    },
    {
      "channel": 0,
      "note": 49,
      "start": 65.2902,
      "duration": 0.0143,
      "velocity": 95,
      "chip": "ym2612"
    },
    {
      "channel": 1,
      "note": 73,
      "start": 65.2908,
      "duration": 0.0141,
      "velocity": 103,
      "chip": "ym2612"
    },
    {
      "channel": 2,
      "note": 73,
      "start": 65.2913,
      "duration": 0.0143,
      "velocity": 103,
      "chip": "ym2612"
    },
    {
      "channel": 0,
      "note": 49,
      "start": 65.3045,
      "duration": 0.0146,
      "velocity": 95,
      "chip": "ym2612"
    },
    {
      "channel": 1,
      "note": 73,
      "start": 65.3049,
      "duration": 0.0148,
      "velocity": 103,
      "chip": "ym2612"
    },
    {
      "channel": 2,
      "note": 73,
      "start": 65.3056,
      "duration": 0.0148,
      "velocity": 103,
      "chip": "ym2612"
    },
    {
      "channel": 0,
      "note": 49,
      "start": 65.3191,
      "duration": 0.0145,
      "velocity": 95,
      "chip": "ym2612"
    },
    {
      "channel": 1,
      "note": 73,
      "start": 65.3197,
      "duration": 0.0145,
      "velocity": 103,
      "chip": "ym2612"
    },
    {
      "channel": 2,
      "note": 73,
      "start": 65.3203,
      "duration": 0.0144,
      "velocity": 103,
      "chip": "ym2612"
    },
    {
      "channel": 0,
      "note": 49,
      "start": 65.3336,
      "duration": 0.0148,
      "velocity": 95,
      "chip": "ym2612"
    },
    {
      "channel": 1,
      "note": 73,
      "start": 65.3342,
      "duration": 0.0148,
      "velocity": 103,
      "chip": "ym2612"
    },
    {
      "channel": 2,
      "note": 73,
      "start": 65.3348,
      "duration": 0.0147,
      "velocity": 103,
      "chip": "ym2612"
    },
    {
      "channel": 0,
      "note": 49,
      "start": 65.3484,
      "duration": 0.0141,
      "velocity": 95,
      "chip": "ym2612"
    },
    {
      "channel": 1,
      "note": 73,
      "start": 65.349,
      "duration": 0.0141,
      "velocity": 103,
      "chip": "ym2612"
    },
    {
      "channel": 2,
      "note": 73,
      "start": 65.3495,
      "duration": 0.0142,
      "velocity": 103,
      "chip": "ym2612"
    },
    {
      "channel": 0,
      "note": 49,
      "start": 65.3624,
      "duration": 0.0143,
      "velocity": 95,
      "chip": "ym2612"
    },
    {
      "channel": 1,
      "note": 73,
      "start": 65.363,
      "duration": 0.0142,
      "velocity": 103,
      "chip": "ym2612"
    },
    {
      "channel": 2,
      "note": 73,
      "start": 65.3637,
      "duration": 0.0142,
      "velocity": 103,
      "chip": "ym2612"
    },
    {
      "channel": 0,
      "note": 49,
      "start": 65.3768,
      "duration": 0.0145,
      "velocity": 95,
      "chip": "ym2612"
    },
    {
      "channel": 1,
      "note": 73,
      "start": 65.3772,
      "duration": 0.0147,
      "velocity": 103,
      "chip": "ym2612"
    },
    {
      "channel": 2,
      "note": 73,
      "start": 65.3778,
      "duration": 0.0147,
      "velocity": 103,
      "chip": "ym2612"
    },
    {
      "channel": 0,
      "note": 49,
      "start": 65.3913,
      "duration": 0.0143,
      "velocity": 95,
      "chip": "ym2612"
    },
    {
      "channel": 1,
      "note": 73,
      "start": 65.3919,
      "duration": 0.0143,
      "velocity": 103,
      "chip": "ym2612"
    },
    {
      "channel": 2,
      "note": 73,
      "start": 65.3925,
      "duration": 0.0146,
      "velocity": 103,
      "chip": "ym2612"
    },
    {
      "channel": 0,
      "note": 51,
      "start": 65.406,
      "duration": 0.1421,
      "velocity": 95,
      "chip": "ym2612"
    },
    {
      "channel": 1,
      "note": 71,
      "start": 65.4067,
      "duration": 0.3153,
      "velocity": 103,
      "chip": "ym2612"
    },
    {
      "channel": 2,
      "note": 73,
      "start": 65.4071,
      "duration": 0.004,
      "velocity": 103,
      "chip": "ym2612"
    },
    {
      "channel": 2,
      "note": 73,
      "start": 65.4111,
      "duration": 0.0023,
      "velocity": 103,
      "chip": "ym2612"
    },
    {
      "channel": 2,
      "note": 73,
      "start": 65.4134,
      "duration": 0.0053,
      "velocity": 103,
      "chip": "ym2612"
    },
    {
      "channel": 2,
      "note": 71,
      "start": 65.4191,
      "duration": 0.3117,
      "velocity": 103,
      "chip": "ym2612"
    },
    {
      "channel": 0,
      "note": 51,
      "start": 65.5485,
      "duration": 0.1729,
      "velocity": 95,
      "chip": "ym2612"
    },
    {
      "channel": 0,
      "note": 51,
      "start": 65.7218,
      "duration": 0.0298,
      "velocity": 95,
      "chip": "ym2612"
    },
    {
      "channel": 1,
      "note": 70,
      "start": 65.7224,
      "duration": 0.1913,
      "velocity": 103,
      "chip": "ym2612"
    },
    {
      "channel": 3,
      "note": 70,
      "start": 65.7232,
      "duration": 0.1913,
      "velocity": 89,
      "chip": "ym2612"
    },
    {
      "channel": 4,
      "note": 75,
      "start": 65.7237,
      "duration": 0.1913,
      "velocity": 89,
      "chip": "ym2612"
    },
    {
      "channel": 2,
      "note": 70,
      "start": 65.7312,
      "duration": 0.1952,
      "velocity": 103,
      "chip": "ym2612"
    },
    {
      "channel": 0,
      "note": 51,
      "start": 65.7521,
      "duration": 0.161,
      "velocity": 95,
      "chip": "ym2612"
    },
    {
      "channel": 0,
      "note": 51,
      "start": 65.9135,
      "duration": 0.1423,
      "velocity": 95,
      "chip": "ym2612"
    },
    {
      "channel": 1,
      "note": 68,
      "start": 65.9141,
      "duration": 0.1423,
      "velocity": 103,
      "chip": "ym2612"
    },
    {
      "channel": 3,
      "note": 70,
      "start": 65.9149,
      "duration": 0.1424,
      "velocity": 89,
      "chip": "ym2612"
    },
    {
      "channel": 4,
      "note": 75,
      "start": 65.9155,
      "duration": 0.1424,
      "velocity": 89,
      "chip": "ym2612"
    },
    {
      "channel": 2,
      "note": 68,
      "start": 65.9268,
      "duration": 0.173,
      "velocity": 103,
      "chip": "ym2612"
    },
    {
      "channel": 0,
      "note": 51,
      "start": 66.0563,
      "duration": 0.1729,
      "velocity": 95,
      "chip": "ym2612"
    },
    {
      "channel": 1,
      "note": 66,
      "start": 66.0569,
      "duration": 0.1973,
      "velocity": 103,
      "chip": "ym2612"
    },
    {
      "channel": 3,
      "note": 68,
      "start": 66.0577,
      "duration": 0.1724,
      "velocity": 89,
      "chip": "ym2612"
    },
    {
      "channel": 4,
      "note": 73,
      "start": 66.0583,
      "duration": 0.172,
      "velocity": 89,
      "chip": "ym2612"
    },
    {
      "channel": 2,
      "note": 66,
      "start": 66.1002,
      "duration": 0.1913,
      "velocity": 103,
      "chip": "ym2612"
    },
    {
      "channel": 0,
      "note": 51,
      "start": 66.2296,
      "duration": 0.0239,
      "velocity": 95,
      "chip": "ym2612"
    },
    {
      "channel": 0,
      "note": 51,
      "start": 66.254,
      "duration": 0.167,
      "velocity": 95,
      "chip": "ym2612"
    },
    {
      "channel": 1,
      "note": 68,
      "start": 66.2547,
      "duration": 0.1669,
      "velocity": 103,
      "chip": "ym2612"
    },
    {
      "channel": 3,
      "note": 68,
      "start": 66.2555,
      "duration": 0.167,
      "velocity": 89,
      "chip": "ym2612"
    },
    {
      "channel": 4,
      "note": 71,
      "start": 66.256,
      "duration": 0.167,
      "velocity": 89,
      "chip": "ym2612"
    },
    {
      "channel": 2,
      "note": 68,
      "start": 66.2919,
      "duration": 0.1392,
      "velocity": 103,
      "chip": "ym2612"
    },
    {
      "channel": 0,
      "note": 47,
      "start": 66.4215,
      "duration": 0.0862,
      "velocity": 95,
      "chip": "ym2612"
    },
    {
      "channel": 1,
      "note": 71,
      "start": 66.422,
      "duration": 0.1732,
      "velocity": 103,
      "chip": "ym2612"
    },
    {
      "channel": 3,
      "note": 66,
      "start": 66.4229,
      "duration": 0.422,
      "velocity": 89,
      "chip": "ym2612"
    },
    {
      "channel": 4,
      "note": 71,
      "start": 66.4235,
      "duration": 0.4221,
      "velocity": 89,
      "chip": "ym2612"
    },
    {
      "channel": 2,
      "note": 71,
      "start": 66.4316,
      "duration": 0.2074,
      "velocity": 103,
      "chip": "ym2612"
    },
    {
      "channel": 0,
      "note": 47,
      "start": 66.5081,
      "duration": 0.0863,
      "velocity": 95,
      "chip": "ym2612"
    },
    {
      "channel": 0,
      "note": 47,
      "start": 66.5948,
      "duration": 0.173,
      "velocity": 95,
      "chip": "ym2612"
    },
    {
      "channel": 1,
      "note": 71,
      "start": 66.5952,
      "duration": 0.0141,
      "velocity": 103,
      "chip": "ym2612"
    },
    {
      "channel": 1,
      "note": 71,
      "start": 66.6094,
      "duration": 0.0146,
      "velocity": 103,
      "chip": "ym2612"
    },
    {
      "channel": 1,
      "note": 71,
      "start": 66.6239,
      "duration": 0.0145,
      "velocity": 103,
      "chip": "ym2612"
    },
    {
      "channel": 1,
      "note": 71,
      "start": 66.6384,
      "duration": 0.0144,
      "velocity": 103,
      "chip": "ym2612"
    },
    {
      "channel": 2,
      "note": 71,
      "start": 66.639,
      "duration": 0.0144,
      "velocity": 103,
      "chip": "ym2612"
    },
    {
      "channel": 1,
      "note": 71,
      "start": 66.6529,
      "duration": 0.0143,
      "velocity": 103,
      "chip": "ym2612"
    },
    {
      "channel": 2,
      "note": 71,
      "start": 66.6534,
      "duration": 0.0144,
      "velocity": 103,
      "chip": "ym2612"
    },
    {
      "channel": 1,
      "note": 71,
      "start": 66.6672,
      "duration": 0.0146,
      "velocity": 103,
      "chip": "ym2612"
    },
    {
      "channel": 2,
      "note": 71,
      "start": 66.6678,
      "duration": 0.0146,
      "velocity": 103,
      "chip": "ym2612"
    },
    {
      "channel": 1,
      "note": 71,
      "start": 66.6818,
      "duration": 0.0144,
      "velocity": 103,
      "chip": "ym2612"
    },
    {
      "channel": 2,
      "note": 71,
      "start": 66.6824,
      "duration": 0.0144,
      "velocity": 103,
      "chip": "ym2612"
    },
    {
      "channel": 1,
      "note": 71,
      "start": 66.6963,
      "duration": 0.0144,
      "velocity": 103,
      "chip": "ym2612"
    },
    {
      "channel": 2,
      "note": 71,
      "start": 66.6968,
      "duration": 0.0143,
      "velocity": 103,
      "chip": "ym2612"
    },
    {
      "channel": 1,
      "note": 71,
      "start": 66.7107,
      "duration": 0.0144,
      "velocity": 103,
      "chip": "ym2612"
    },
    {
      "channel": 2,
      "note": 71,
      "start": 66.7111,
      "duration": 0.0146,
      "velocity": 103,
      "chip": "ym2612"
    },
    {
      "channel": 1,
      "note": 71,
      "start": 66.7251,
      "duration": 0.0142,
      "velocity": 103,
      "chip": "ym2612"
    },
    {
      "channel": 2,
      "note": 71,
      "start": 66.7257,
      "duration": 0.0143,
      "velocity": 103,
      "chip": "ym2612"
    },
    {
      "channel": 1,
      "note": 71,
      "start": 66.7394,
      "duration": 0.0146,
      "velocity": 103,
      "chip": "ym2612"
    },
    {
      "channel": 2,
      "note": 71,
      "start": 66.74,
      "duration": 0.0146,
      "velocity": 103,
      "chip": "ym2612"
    },
    {
      "channel": 1,
      "note": 71,
      "start": 66.754,
      "duration": 0.0146,
      "velocity": 103,
      "chip": "ym2612"
    },
    {
      "channel": 2,
      "note": 71,
      "start": 66.7546,
      "duration": 0.0144,
      "velocity": 103,
      "chip": "ym2612"
    },
    {
      "channel": 0,
      "note": 47,
      "start": 66.7681,
      "duration": 0.0751,
      "velocity": 95,
      "chip": "ym2612"
    },
    {
      "channel": 1,
      "note": 71,
      "start": 66.7686,
      "duration": 0.0037,
      "velocity": 103,
      "chip": "ym2612"
    },
    {
      "channel": 2,
      "note": 71,
      "start": 66.7691,
      "duration": 0.0036,
      "velocity": 103,
      "chip": "ym2612"
    },
    {
      "channel": 1,
      "note": 71,
      "start": 66.7723,
      "duration": 0.0029,
      "velocity": 103,
      "chip": "ym2612"
    },
    {
      "channel": 2,
      "note": 71,
      "start": 66.7727,
      "duration": 0.0031,
      "velocity": 103,
      "chip": "ym2612"
    },
    {
      "channel": 1,
      "note": 71,
      "start": 66.7752,
      "duration": 0.0028,
      "velocity": 103,
      "chip": "ym2612"
    },
    {
      "channel": 2,
      "note": 71,
      "start": 66.7759,
      "duration": 0.0028,
      "velocity": 103,
      "chip": "ym2612"
    },
    {
      "channel": 1,
      "note": 71,
      "start": 66.778,
      "duration": 0.0032,
      "velocity": 103,
      "chip": "ym2612"
    },
    {
      "channel": 2,
      "note": 71,
      "start": 66.7786,
      "duration": 0.0032,
      "velocity": 103,
      "chip": "ym2612"
    },
    {
      "channel": 1,
      "note": 71,
      "start": 66.7812,
      "duration": 0.0033,
      "velocity": 103,
      "chip": "ym2612"
    },
    {
      "channel": 2,
      "note": 71,
      "start": 66.7819,
      "duration": 0.0031,
      "velocity": 103,
      "chip": "ym2612"
    },
    {
      "channel": 1,
      "note": 71,
      "start": 66.7845,
      "duration": 0.003,
      "velocity": 103,
      "chip": "ym2612"
    },
    {
      "channel": 2,
      "note": 71,
      "start": 66.7849,
      "duration": 0.0032,
      "velocity": 103,
      "chip": "ym2612"
    },
    {
      "channel": 1,
      "note": 71,
      "start": 66.7876,
      "duration": 0.0031,
      "velocity": 103,
      "chip": "ym2612"
    },
    {
      "channel": 2,
      "note": 71,
      "start": 66.7881,
      "duration": 0.0031,
      "velocity": 103,
      "chip": "ym2612"
    },
    {
      "channel": 1,
      "note": 71,
      "start": 66.7906,
      "duration": 0.0033,
      "velocity": 103,
      "chip": "ym2612"
    },
    {
      "channel": 2,
      "note": 71,
      "start": 66.7912,
      "duration": 0.0033,
      "velocity": 103,
      "chip": "ym2612"
    },
    {
      "channel": 1,
      "note": 71,
      "start": 66.7939,
      "duration": 0.0066,
      "velocity": 103,
      "chip": "ym2612"
    },
    {
      "channel": 2,
      "note": 71,
      "start": 66.7945,
      "duration": 0.0067,
      "velocity": 103,
      "chip": "ym2612"
    },
    {
      "channel": 1,
      "note": 71,
      "start": 66.8006,
      "duration": 0.0144,
      "velocity": 103,
      "chip": "ym2612"
    },
    {
      "channel": 2,
      "note": 71,
      "start": 66.8012,
      "duration": 0.0143,
      "velocity": 103,
      "chip": "ym2612"
    },
    {
      "channel": 1,
      "note": 71,
      "start": 66.815,
      "duration": 0.0144,
      "velocity": 103,
      "chip": "ym2612"
    },
    {
      "channel": 2,
      "note": 71,
      "start": 66.8155,
      "duration": 0.0144,
      "velocity": 103,
      "chip": "ym2612"
    },
    {
      "channel": 1,
      "note": 71,
      "start": 66.8294,
      "duration": 0.0145,
      "velocity": 103,
      "chip": "ym2612"
    },
    {
      "channel": 2,
      "note": 71,
      "start": 66.83,
      "duration": 0.0148,
      "velocity": 103,
      "chip": "ym2612"
    },
    {
      "channel": 0,
      "note": 46,
      "start": 66.8437,
      "duration": 0.0751,
      "velocity": 95,
      "chip": "ym2612"
    },
    {
      "channel": 1,
      "note": 70,
      "start": 66.8443,
      "duration": 0.15,
      "velocity": 103,
      "chip": "ym2612"
    },
    {
      "channel": 2,
      "note": 71,
      "start": 66.8448,
      "duration": 0.0042,
      "velocity": 103,
      "chip": "ym2612"
    },
    {
      "channel": 3,
      "note": 65,
      "start": 66.8454,
      "duration": 0.231,
      "velocity": 89,
      "chip": "ym2612"
    },
    {
      "channel": 4,
      "note": 68,
      "start": 66.846,
      "duration": 0.2313,
      "velocity": 89,
      "chip": "ym2612"
    },
    {
      "channel": 2,
      "note": 71,
      "start": 66.849,
      "duration": 0.0027,
      "velocity": 103,
      "chip": "ym2612"
    },
    {
      "channel": 2,
      "note": 71,
      "start": 66.8517,
      "duration": 0.0023,
      "velocity": 103,
      "chip": "ym2612"
    },
    {
      "channel": 2,
      "note": 70,
      "start": 66.8545,
      "duration": 0.1491,
      "velocity": 103,
      "chip": "ym2612"
    },
    {
      "channel": 0,
      "note": 46,
      "start": 66.9193,
      "duration": 0.074,
      "velocity": 95,
      "chip": "ym2612"
    },
    {
      "channel": 0,
      "note": 46,
      "start": 66.9937,
      "duration": 0.0391,
      "velocity": 95,
      "chip": "ym2612"
    },
    {
      "channel": 1,
      "note": 70,
      "start": 66.9942,
      "duration": 0.0031,
      "velocity": 103,
      "chip": "ym2612"
    },
    {
      "channel": 1,
      "note": 70,
      "start": 66.9974,
      "duration": 0.0027,
      "velocity": 103,
      "chip": "ym2612"
    },
    {
      "channel": 1,
      "note": 70,
      "start": 67.0,
      "duration": 0.0029,
      "velocity": 103,
      "chip": "ym2612"
    },
    {
      "channel": 1,
      "note": 70,
      "start": 67.003,
      "duration": 0.0033,
      "velocity": 103,
      "chip": "ym2612"
    },
    {
      "channel": 2,
      "note": 70,
      "start": 67.0036,
      "duration": 0.0033,
      "velocity": 103,
      "chip": "ym2612"
    },
    {
      "channel": 1,
      "note": 70,
      "start": 67.0063,
      "duration": 0.0028,
      "velocity": 103,
      "chip": "ym2612"
    },
    {
      "channel": 2,
      "note": 70,
      "start": 67.0069,
      "duration": 0.0026,
      "velocity": 103,
      "chip": "ym2612"
    },
    {
      "channel": 1,
      "note": 70,
      "start": 67.009,
      "duration": 0.003,
      "velocity": 103,
      "chip": "ym2612"
    },
    {
      "channel": 2,
      "note": 70,
      "start": 67.0095,
      "duration": 0.003,
      "velocity": 103,
      "chip": "ym2612"
    },
    {
      "channel": 1,
      "note": 70,
      "start": 67.012,
      "duration": 0.0033,
      "velocity": 103,
      "chip": "ym2612"
    },
    {
      "channel": 2,
      "note": 70,
      "start": 67.0126,
      "duration": 0.0033,
      "velocity": 103,
      "chip": "ym2612"
    },
    {
      "channel": 1,
      "note": 70,
      "start": 67.0153,
      "duration": 0.0033,
      "velocity": 103,
      "chip": "ym2612"
    },
    {
      "channel": 2,
      "note": 70,
      "start": 67.0159,
      "duration": 0.0033,
      "velocity": 103,
      "chip": "ym2612"
    },
    {
      "channel": 1,
      "note": 70,
      "start": 67.0185,
      "duration": 0.0032,
      "velocity": 103,
      "chip": "ym2612"
    },
    {
      "channel": 2,
      "note": 70,
      "start": 67.0192,
      "duration": 0.0031,
      "velocity": 103,
      "chip": "ym2612"
    },
    {
      "channel": 1,
      "note": 70,
      "start": 67.0217,
      "duration": 0.0031,
      "velocity": 103,
      "chip": "ym2612"
    },
    {
      "channel": 2,
      "note": 70,
      "start": 67.0222,
      "duration": 0.0033,
      "velocity": 103,
      "chip": "ym2612"
    },
    {
      "channel": 1,
      "note": 70,
      "start": 67.0249,
      "duration": 0.0031,
      "velocity": 103,
      "chip": "ym2612"
    },
    {
      "channel": 2,
      "note": 70,
      "start": 67.0255,
      "duration": 0.0031,
      "velocity": 103,
      "chip": "ym2612"
    },
    {
      "channel": 1,
      "note": 70,
      "start": 67.028,
      "duration": 0.0058,
      "velocity": 103,
      "chip": "ym2612"
    },
    {
      "channel": 2,
      "note": 70,
      "start": 67.0286,
      "duration": 0.0057,
      "velocity": 103,
      "chip": "ym2612"
    },
    {
      "channel": 0,
      "note": 46,
      "start": 67.0333,
      "duration": 0.0392,
      "velocity": 95,
      "chip": "ym2612"
    },
    {
      "channel": 1,
      "note": 70,
      "start": 67.0338,
      "duration": 0.0031,
      "velocity": 103,
      "chip": "ym2612"
    },
    {
      "channel": 2,
      "note": 70,
      "start": 67.0343,
      "duration": 0.0032,
      "velocity": 103,
      "chip": "ym2612"
    },
    {
      "channel": 1,
      "note": 70,
      "start": 67.0368,
      "duration": 0.0033,
      "velocity": 103,
      "chip": "ym2612"
    },
    {
      "channel": 2,
      "note": 70,
      "start": 67.0375,
      "duration": 0.0031,
      "velocity": 103,
      "chip": "ym2612"
    },
    {
      "channel": 1,
      "note": 70,
      "start": 67.0401,
      "duration": 0.0029,
      "velocity": 103,
      "chip": "ym2612"
    },
    {
      "channel": 2,
      "note": 70,
      "start": 67.0406,
      "duration": 0.0031,
      "velocity": 103,
      "chip": "ym2612"
    },
    {
      "channel": 1,
      "note": 70,
      "start": 67.043,
      "duration": 0.0032,
      "velocity": 103,
      "chip": "ym2612"
    },
    {
      "channel": 2,
      "note": 70,
      "start": 67.0437,
      "duration": 0.0032,
      "velocity": 103,
      "chip": "ym2612"
    },
    {
      "channel": 1,
      "note": 70,
      "start": 67.0462,
      "duration": 0.0032,
      "velocity": 103,
      "chip": "ym2612"
    },
    {
      "channel": 2,
      "note": 70,
      "start": 67.0469,
      "duration": 0.0032,
      "velocity": 103,
      "chip": "ym2612"
    },
    {
      "channel": 1,
      "note": 70,
      "start": 67.0494,
      "duration": 0.0033,
      "velocity": 103,
      "chip": "ym2612"
    },
    {
      "channel": 2,
      "note": 70,
      "start": 67.0501,
      "duration": 0.0032,
      "velocity": 103,
      "chip": "ym2612"
    },
    {
      "channel": 1,
      "note": 70,
      "start": 67.0528,
      "duration": 0.0031,
      "velocity": 103,
      "chip": "ym2612"
    },
    {
      "channel": 2,
      "note": 70,
      "start": 67.0532,
      "duration": 0.0033,
      "velocity": 103,
      "chip": "ym2612"
    },
    {
      "channel": 1,
      "note": 70,
      "start": 67.0559,
      "duration": 0.0026,
      "velocity": 103,
      "chip": "ym2612"
    },
    {
      "channel": 2,
      "note": 70,
      "start": 67.0565,
      "duration": 0.0026,
      "velocity": 103,
      "chip": "ym2612"
    },
    {
      "channel": 1,
      "note": 70,
      "start": 67.0585,
      "duration": 0.0032,
      "velocity": 103,
      "chip": "ym2612"
    },
    {
      "channel": 2,
      "note": 70,
      "start": 67.0591,
      "duration": 0.0032,
      "velocity": 103,
      "chip": "ym2612"
    },
    {
      "channel": 1,
      "note": 70,
      "start": 67.0617,
      "duration": 0.0032,
      "velocity": 103,
      "chip": "ym2612"
    },
    {
      "channel": 2,
      "note": 70,
      "start": 67.0624,
      "duration": 0.0032,
      "velocity": 103,
      "chip": "ym2612"
    },
    {
      "channel": 1,
      "note": 70,
      "start": 67.0649,
      "duration": 0.0033,
      "velocity": 103,
      "chip": "ym2612"
    },
    {
      "channel": 2,
      "note": 70,
      "start": 67.0656,
      "duration": 0.0032,
      "velocity": 103,
      "chip": "ym2612"
    },
    {
      "channel": 1,
      "note": 70,
      "start": 67.0682,
      "duration": 0.0068,
      "velocity": 99,
      "chip": "ym2612"
    },
    {
      "channel": 2,
      "note": 70,
      "start": 67.0687,
      "duration": 0.0071,
      "velocity": 103,
      "chip": "ym2612"
    },
    {
      "channel": 0,
      "note": 51,
      "start": 67.0729,
      "duration": 0.0365,
      "velocity": 95,
      "chip": "ym2612"
    },
    {
      "channel": 1,
      "note": 78,
      "start": 67.0754,
      "duration": 0.0655,
      "velocity": 99,
      "chip": "ym2612"
    },
    {
      "channel": 2,
      "note": 70,
      "start": 67.0759,
      "duration": 0.0052,
      "velocity": 103,
      "chip": "ym2612"
    },
    {
      "channel": 3,
      "note": 70,
      "start": 67.0769,
      "duration": 0.7642,
      "velocity": 89,
      "chip": "ym2612"
    },
    {
      "channel": 4,
      "note": 66,
      "start": 67.0778,
      "duration": 0.7639,
      "velocity": 89,
      "chip": "ym2612"
    },
    {
      "channel": 2,
      "note": 70,
      "start": 67.0811,
      "duration": 0.0029,
      "velocity": 103,
      "chip": "ym2612"
    },
    {
      "channel": 2,
      "note": 70,
      "start": 67.0839,
      "duration": 0.0043,
      "velocity": 99,
      "chip": "ym2612"
    },
    {
      "channel": 2,
      "note": 78,
      "start": 67.0955,
      "duration": 0.0634,
      "velocity": 99,
      "chip": "ym2612"
    },
    {
      "channel": 0,
      "note": 51,
      "start": 67.1098,
      "duration": 0.03,
      "velocity": 95,
      "chip": "ym2612"
    },
    {
      "channel": 0,
      "note": 51,
      "start": 67.1403,
      "duration": 0.0364,
      "velocity": 95,
      "chip": "ym2612"
    },
    {
      "channel": 1,
      "note": 78,
      "start": 67.1408,
      "duration": 0.0032,
      "velocity": 99,
      "chip": "ym2612"
    },
    {
      "channel": 1,
      "note": 78,
      "start": 67.1441,
      "duration": 0.0029,
      "velocity": 99,
      "chip": "ym2612"
    },
    {
      "channel": 1,
      "note": 78,
      "start": 67.1469,
      "duration": 0.0025,
      "velocity": 99,
      "chip": "ym2612"
    },
    {
      "channel": 1,
      "note": 78,
      "start": 67.1495,
      "duration": 0.003,
      "velocity": 99,
      "chip": "ym2612"
    },
    {
      "channel": 1,
      "note": 78,
      "start": 67.1524,
      "duration": 0.0029,
      "velocity": 99,
      "chip": "ym2612"
    },
    {
      "channel": 1,
      "note": 78,
      "start": 67.1554,
      "duration": 0.0029,
      "velocity": 99,
      "chip": "ym2612"
    },
    {
      "channel": 1,
      "note": 78,
      "start": 67.1582,
      "duration": 0.0034,
      "velocity": 99,
      "chip": "ym2612"
    },
    {
      "channel": 2,
      "note": 78,
      "start": 67.1589,
      "duration": 0.0032,
      "velocity": 99,
      "chip": "ym2612"
    },
    {
      "channel": 1,
      "note": 78,
      "start": 67.1616,
      "duration": 0.0032,
      "velocity": 99,
      "chip": "ym2612"
    },
    {
      "channel": 2,
      "note": 78,
      "start": 67.1621,
      "duration": 0.0034,
      "velocity": 99,
      "chip": "ym2612"
    },
    {
      "channel": 1,
      "note": 78,
      "start": 67.1647,
      "duration": 0.0035,
      "velocity": 99,
      "chip": "ym2612"
    },
    {
      "channel": 2,
      "note": 78,
      "start": 67.1654,
      "duration": 0.0034,
      "velocity": 99,
      "chip": "ym2612"
    },
    {
      "channel": 1,
      "note": 78,
      "start": 67.1682,
      "duration": 0.0033,
      "velocity": 99,
      "chip": "ym2612"
    },
    {
      "channel": 2,
      "note": 78,
      "start": 67.1688,
      "duration": 0.0033,
      "velocity": 99,
      "chip": "ym2612"
    },
    {
      "channel": 1,
      "note": 78,
      "start": 67.1715,
      "duration": 0.0028,
      "velocity": 99,
      "chip": "ym2612"
    },
    {
      "channel": 2,
      "note": 78,
      "start": 67.1722,
      "duration": 0.0026,
      "velocity": 99,
      "chip": "ym2612"
    },
    {
      "channel": 1,
      "note": 78,
      "start": 67.1743,
      "duration": 0.0033,
      "velocity": 99,
      "chip": "ym2612"
    },
    {
      "channel": 2,
      "note": 78,
      "start": 67.1748,
      "duration": 0.0033,
      "velocity": 99,
      "chip": "ym2612"
    },
    {
      "channel": 0,
      "note": 51,
      "start": 67.1771,
      "duration": 0.1542,
      "velocity": 95,
      "chip": "ym2612"
    },
    {
      "channel": 1,
      "note": 78,
      "start": 67.1776,
      "duration": 0.0028,
      "velocity": 99,
      "chip": "ym2612"
    },
    {
      "channel": 2,
      "note": 78,
      "start": 67.1781,
      "duration": 0.0031,
      "velocity": 99,
      "chip": "ym2612"
    },
    {
      "channel": 1,
      "note": 78,
      "start": 67.1804,
      "duration": 0.0072,
      "velocity": 99,
      "chip": "ym2612"
    },
    {
      "channel": 2,
      "note": 78,
      "start": 67.1811,
      "duration": 0.0072,
      "velocity": 99,
      "chip": "ym2612"
    },
    {
      "channel": 1,
      "note": 78,
      "start": 67.1876,
      "duration": 0.0144,
      "velocity": 99,
      "chip": "ym2612"
    },
    {
      "channel": 2,
      "note": 78,
      "start": 67.1883,
      "duration": 0.0143,
      "velocity": 99,
      "chip": "ym2612"
    },
    {
      "channel": 1,
      "note": 78,
      "start": 67.202,
      "duration": 0.0146,
      "velocity": 99,
      "chip": "ym2612"
    },
    {
      "channel": 2,
      "note": 78,
      "start": 67.2026,
      "duration": 0.0144,
      "velocity": 99,
      "chip": "ym2612"
    },
    {
      "channel": 1,
      "note": 78,
      "start": 67.2165,
      "duration": 0.0144,
      "velocity": 99,
      "chip": "ym2612"
    },
    {
      "channel": 2,
      "note": 78,
      "start": 67.2171,
      "duration": 0.0146,
      "velocity": 99,
      "chip": "ym2612"
    },
    {
      "channel": 1,
      "note": 78,
      "start": 67.231,
      "duration": 0.0148,
      "velocity": 99,
      "chip": "ym2612"
    },
    {
      "channel": 2,
      "note": 78,
      "start": 67.2317,
      "duration": 0.0148,
      "velocity": 99,
      "chip": "ym2612"
    },
    {
      "channel": 1,
      "note": 78,
      "start": 67.2457,
      "duration": 0.0141,
      "velocity": 99,
      "chip": "ym2612"
    },
    {
      "channel": 2,
      "note": 78,
      "start": 67.2464,
      "duration": 0.0141,
      "velocity": 99,
      "chip": "ym2612"
    },
    {
      "channel": 1,
      "note": 78,
      "start": 67.2599,
      "duration": 0.0143,
      "velocity": 99,
      "chip": "ym2612"
    },
    {
      "channel": 2,
      "note": 78,
      "start": 67.2605,
      "duration": 0.0142,
      "velocity": 99,
      "chip": "ym2612"
    },
    {
      "channel": 1,
      "note": 78,
      "start": 67.2742,
      "duration": 0.0146,
      "velocity": 99,
      "chip": "ym2612"
    },
    {
      "channel": 2,
      "note": 78,
      "start": 67.2747,
      "duration": 0.0148,
      "velocity": 99,
      "chip": "ym2612"
    },
    {
      "channel": 1,
      "note": 78,
      "start": 67.2887,
      "duration": 0.0144,
      "velocity": 99,
      "chip": "ym2612"
    },
    {
      "channel": 2,
      "note": 78,
      "start": 67.2894,
      "duration": 0.0144,
      "velocity": 99,
      "chip": "ym2612"
    },
    {
      "channel": 1,
      "note": 78,
      "start": 67.3032,
      "duration": 0.0144,
      "velocity": 99,
      "chip": "ym2612"
    },
    {
      "channel": 2,
      "note": 78,
      "start": 67.3039,
      "duration": 0.0144,
      "velocity": 99,
      "chip": "ym2612"
    },
    {
      "channel": 1,
      "note": 78,
      "start": 67.3176,
      "duration": 0.0144,
      "velocity": 99,
      "chip": "ym2612"
    },
    {
      "channel": 2,
      "note": 78,
      "start": 67.3183,
      "duration": 0.0142,
      "velocity": 99,
      "chip": "ym2612"
    },
    {
      "channel": 0,
      "note": 51,
      "start": 67.3317,
      "duration": 0.1422,
      "velocity": 95,
      "chip": "ym2612"
    },
    {
      "channel": 1,
      "note": 78,
      "start": 67.3321,
      "duration": 0.0037,
      "velocity": 99,
      "chip": "ym2612"
    },
    {
      "channel": 2,
      "note": 78,
      "start": 67.3326,
      "duration": 0.0037,
      "velocity": 99,
      "chip": "ym2612"
    },
    {
      "channel": 1,
      "note": 78,
      "start": 67.3357,
      "duration": 0.0028,
      "velocity": 99,
      "chip": "ym2612"
    },
    {
      "channel": 2,
      "note": 78,
      "start": 67.3363,
      "duration": 0.0029,
      "velocity": 99,
      "chip": "ym2612"
    },
    {
      "channel": 1,
      "note": 78,
      "start": 67.3385,
      "duration": 0.0063,
      "velocity": 99,
      "chip": "ym2612"
    },
    {
      "channel": 2,
      "note": 78,
      "start": 67.3391,
      "duration": 0.0063,
      "velocity": 99,
      "chip": "ym2612"
    },
    {
      "channel": 1,
      "note": 78,
      "start": 67.3448,
      "duration": 0.0144,
      "velocity": 99,
      "chip": "ym2612"
    },
    {
      "channel": 2,
      "note": 78,
      "start": 67.3454,
      "duration": 0.0145,
      "velocity": 99,
      "chip": "ym2612"
    },
    {
      "channel": 1,
      "note": 78,
      "start": 67.3592,
      "duration": 0.0143,
      "velocity": 99,
      "chip": "ym2612"
    },
    {
      "channel": 2,
      "note": 78,
      "start": 67.3599,
      "duration": 0.0141,
      "velocity": 99,
      "chip": "ym2612"
    },
    {
      "channel": 1,
      "note": 78,
      "start": 67.3735,
      "duration": 0.0146,
      "velocity": 99,
      "chip": "ym2612"
    },
    {
      "channel": 2,
      "note": 78,
      "start": 67.3741,
      "duration": 0.0147,
      "velocity": 99,
      "chip": "ym2612"
    },
    {
      "channel": 1,
      "note": 78,
      "start": 67.3881,
      "duration": 0.0144,
      "velocity": 99,
      "chip": "ym2612"
    },
    {
      "channel": 2,
      "note": 78,
      "start": 67.3888,
      "duration": 0.0144,
      "velocity": 99,
      "chip": "ym2612"
    },
    {
      "channel": 1,
      "note": 78,
      "start": 67.4025,
      "duration": 0.0144,
      "velocity": 99,
      "chip": "ym2612"
    },
    {
      "channel": 2,
      "note": 78,
      "start": 67.4032,
      "duration": 0.0144,
      "velocity": 99,
      "chip": "ym2612"
    },
    {
      "channel": 1,
      "note": 78,
      "start": 67.417,
      "duration": 0.0143,
      "velocity": 99,
      "chip": "ym2612"
    },
    {
      "channel": 2,
      "note": 78,
      "start": 67.4177,
      "duration": 0.0143,
      "velocity": 99,
      "chip": "ym2612"
    },
    {
      "channel": 1,
      "note": 78,
      "start": 67.4313,
      "duration": 0.0146,
      "velocity": 99,
      "chip": "ym2612"
    },
    {
      "channel": 2,
      "note": 78,
      "start": 67.432,
      "duration": 0.0144,
      "velocity": 99,
      "chip": "ym2612"
    },
    {
      "channel": 1,
      "note": 78,
      "start": 67.4459,
      "duration": 0.0144,
      "velocity": 99,
      "chip": "ym2612"
    },
    {
      "channel": 2,
      "note": 78,
      "start": 67.4464,
      "duration": 0.0146,
      "velocity": 99,
      "chip": "ym2612"
    },
    {
      "channel": 1,
      "note": 78,
      "start": 67.4603,
      "duration": 0.0146,
      "velocity": 99,
      "chip": "ym2612"
    },
    {
      "channel": 2,
      "note": 78,
      "start": 67.461,
      "duration": 0.0144,
      "velocity": 99,
      "chip": "ym2612"
    },
    {
      "channel": 0,
      "note": 51,
      "start": 67.4744,
      "duration": 0.1729,
      "velocity": 95,
      "chip": "ym2612"
    },
    {
      "channel": 1,
      "note": 78,
      "start": 67.4749,
      "duration": 0.0143,
      "velocity": 99,
      "chip": "ym2612"
    },
    {
      "channel": 2,
      "note": 78,
      "start": 67.4754,
      "duration": 0.0145,
      "velocity": 99,
      "chip": "ym2612"
    },
    {
      "channel": 1,
      "note": 78,
      "start": 67.4892,
      "duration": 0.0143,
      "velocity": 99,
      "chip": "ym2612"
    },
    {
      "channel": 2,
      "note": 78,
      "start": 67.4899,
      "duration": 0.0142,
      "velocity": 99,
      "chip": "ym2612"
    },
    {
      "channel": 1,
      "note": 78,
      "start": 67.5035,
      "duration": 0.0146,
      "velocity": 99,
      "chip": "ym2612"
    },
    {
      "channel": 2,
      "note": 78,
      "start": 67.5041,
      "duration": 0.0147,
      "velocity": 99,
      "chip": "ym2612"
    },
    {
      "channel": 1,
      "note": 78,
      "start": 67.5181,
      "duration": 0.0145,
      "velocity": 99,
      "chip": "ym2612"
    },
    {
      "channel": 2,
      "note": 78,
      "start": 67.5188,
      "duration": 0.0145,
      "velocity": 99,
      "chip": "ym2612"
    },
    {
      "channel": 1,
      "note": 78,
      "start": 67.5326,
      "duration": 0.0147,
      "velocity": 99,
      "chip": "ym2612"
    },
    {
      "channel": 2,
      "note": 78,
      "start": 67.5333,
      "duration": 0.0147,
      "velocity": 99,
      "chip": "ym2612"
    },
    {
      "channel": 1,
      "note": 78,
      "start": 67.5473,
      "duration": 0.0141,
      "velocity": 99,
      "chip": "ym2612"
    },
    {
      "channel": 2,
      "note": 78,
      "start": 67.548,
      "duration": 0.0141,
      "velocity": 99,
      "chip": "ym2612"
    },
    {
      "channel": 1,
      "note": 78,
      "start": 67.5613,
      "duration": 0.0146,
      "velocity": 99,
      "chip": "ym2612"
    },
    {
      "channel": 2,
      "note": 78,
      "start": 67.562,
      "duration": 0.0144,
      "velocity": 99,
      "chip": "ym2612"
    },
    {
      "channel": 1,
      "note": 78,
      "start": 67.5759,
      "duration": 0.0144,
      "velocity": 99,
      "chip": "ym2612"
    },
    {
      "channel": 2,
      "note": 78,
      "start": 67.5765,
      "duration": 0.0146,
      "velocity": 99,
      "chip": "ym2612"
    },
    {
      "channel": 1,
      "note": 78,
      "start": 67.5903,
      "duration": 0.0144,
      "velocity": 99,
      "chip": "ym2612"
    },
    {
      "channel": 2,
      "note": 78,
      "start": 67.591,
      "duration": 0.0144,
      "velocity": 99,
      "chip": "ym2612"
    },
    {
      "channel": 1,
      "note": 78,
      "start": 67.6048,
      "duration": 0.0145,
      "velocity": 99,
      "chip": "ym2612"
    },
    {
      "channel": 2,
      "note": 78,
      "start": 67.6055,
      "duration": 0.0144,
      "velocity": 99,
      "chip": "ym2612"
    },
    {
      "channel": 1,
      "note": 78,
      "start": 67.6193,
      "duration": 0.0143,
      "velocity": 99,
      "chip": "ym2612"
    },
    {
      "channel": 2,
      "note": 78,
      "start": 67.6199,
      "duration": 0.0142,
      "velocity": 99,
      "chip": "ym2612"
    },
    {
      "channel": 1,
      "note": 78,
      "start": 67.6335,
      "duration": 0.0147,
      "velocity": 99,
      "chip": "ym2612"
    },
    {
      "channel": 2,
      "note": 78,
      "start": 67.6341,
      "duration": 0.0146,
      "velocity": 99,
      "chip": "ym2612"
    },
    {
      "channel": 0,
      "note": 51,
      "start": 67.6478,
      "duration": 0.0391,
      "velocity": 95,
      "chip": "ym2612"
    },
    {
      "channel": 1,
      "note": 78,
      "start": 67.6482,
      "duration": 0.0032,
      "velocity": 99,
      "chip": "ym2612"
    },
    {
      "channel": 2,
      "note": 78,
      "start": 67.6487,
      "duration": 0.0034,
      "velocity": 99,
      "chip": "ym2612"
    },
    {
      "channel": 1,
      "note": 78,
      "start": 67.6515,
      "duration": 0.0034,
      "velocity": 99,
      "chip": "ym2612"
    },
    {
      "channel": 2,
      "note": 78,
      "start": 67.6522,
      "duration": 0.0034,
      "velocity": 99,
      "chip": "ym2612"
    },
    {
      "channel": 1,
      "note": 78,
      "start": 67.6549,
      "duration": 0.0032,
      "velocity": 99,
      "chip": "ym2612"
    },
    {
      "channel": 2,
      "note": 78,
      "start": 67.6556,
      "duration": 0.0032,
      "velocity": 99,
      "chip": "ym2612"
    },
    {
      "channel": 1,
      "note": 78,
      "start": 67.6581,
      "duration": 0.0034,
      "velocity": 99,
      "chip": "ym2612"
    },
    {
      "channel": 2,
      "note": 78,
      "start": 67.6588,
      "duration": 0.0032,
      "velocity": 99,
      "chip": "ym2612"
    },
    {
      "channel": 1,
      "note": 78,
      "start": 67.6615,
      "duration": 0.0033,
      "velocity": 99,
      "chip": "ym2612"
    },
    {
      "channel": 2,
      "note": 78,
      "start": 67.662,
      "duration": 0.0034,
      "velocity": 99,
      "chip": "ym2612"
    },
    {
      "channel": 1,
      "note": 78,
      "start": 67.6648,
      "duration": 0.0034,
      "velocity": 99,
      "chip": "ym2612"
    },
    {
      "channel": 2,
      "note": 78,
      "start": 67.6654,
      "duration": 0.0034,
      "velocity": 99,
      "chip": "ym2612"
    },
    {
      "channel": 1,
      "note": 78,
      "start": 67.6682,
      "duration": 0.0034,
      "velocity": 99,
      "chip": "ym2612"
    },
    {
      "channel": 2,
      "note": 78,
      "start": 67.6688,
      "duration": 0.0034,
      "velocity": 99,
      "chip": "ym2612"
    },
    {
      "channel": 1,
      "note": 78,
      "start": 67.6715,
      "duration": 0.0032,
      "velocity": 99,
      "chip": "ym2612"
    },
    {
      "channel": 2,
      "note": 78,
      "start": 67.6722,
      "duration": 0.0031,
      "velocity": 99,
      "chip": "ym2612"
    },
    {
      "channel": 1,
      "note": 78,
      "start": 67.6747,
      "duration": 0.0027,
      "velocity": 99,
      "chip": "ym2612"
    },
    {
      "channel": 2,
      "note": 78,
      "start": 67.6753,
      "duration": 0.0029,
      "velocity": 99,
      "chip": "ym2612"
    },
    {
      "channel": 1,
      "note": 78,
      "start": 67.6775,
      "duration": 0.0034,
      "velocity": 99,
      "chip": "ym2612"
    },
    {
      "channel": 2,
      "note": 78,
      "start": 67.6782,
      "duration": 0.0034,
      "velocity": 99,
      "chip": "ym2612"
    },
    {
      "channel": 1,
      "note": 78,
      "start": 67.6809,
      "duration": 0.0034,
      "velocity": 99,
      "chip": "ym2612"
    },
    {
      "channel": 2,
      "note": 78,
      "start": 67.6816,
      "duration": 0.0034,
      "velocity": 99,
      "chip": "ym2612"
    },
    {
      "channel": 1,
      "note": 78,
      "start": 67.6843,
      "duration": 0.0034,
      "velocity": 99,
      "chip": "ym2612"
    },
    {
      "channel": 2,
      "note": 78,
      "start": 67.685,
      "duration": 0.0032,
      "velocity": 99,
      "chip": "ym2612"
    },
    {
      "channel": 0,
      "note": 51,
      "start": 67.6874,
      "duration": 0.1521,
      "velocity": 95,
      "chip": "ym2612"
    },
    {
      "channel": 1,
      "note": 78,
      "start": 67.6877,
      "duration": 0.0029,
      "velocity": 99,
      "chip": "ym2612"
    },
    {
      "channel": 2,
      "note": 78,
      "start": 67.6882,
      "duration": 0.003,
      "velocity": 99,
      "chip": "ym2612"
    },
    {
      "channel": 1,
      "note": 78,
      "start": 67.6906,
      "duration": 0.005,
      "velocity": 99,
      "chip": "ym2612"
    },
    {
      "channel": 2,
      "note": 78,
      "start": 67.6912,
      "duration": 0.0051,
      "velocity": 99,
      "chip": "ym2612"
    },
    {
      "channel": 1,
      "note": 78,
      "start": 67.6956,
      "duration": 0.0144,
      "velocity": 99,
      "chip": "ym2612"
    },
    {
      "channel": 2,
      "note": 78,
      "start": 67.6963,
      "duration": 0.0144,
      "velocity": 99,
      "chip": "ym2612"
    },
    {
      "channel": 1,
      "note": 78,
      "start": 67.71,
      "duration": 0.0146,
      "velocity": 99,
      "chip": "ym2612"
    },
    {
      "channel": 2,
      "note": 78,
      "start": 67.7107,
      "duration": 0.0147,
      "velocity": 99,
      "chip": "ym2612"
    },
    {
      "channel": 1,
      "note": 78,
      "start": 67.7247,
      "duration": 0.0141,
      "velocity": 99,
      "chip": "ym2612"
    },
    {
      "channel": 2,
      "note": 78,
      "start": 67.7254,
      "duration": 0.014,
      "velocity": 99,
      "chip": "ym2612"
    },
    {
      "channel": 1,
      "note": 78,
      "start": 67.7388,
      "duration": 0.0146,
      "velocity": 99,
      "chip": "ym2612"
    },
    {
      "channel": 2,
      "note": 78,
      "start": 67.7394,
      "duration": 0.0147,
      "velocity": 99,
      "chip": "ym2612"
    },
    {
      "channel": 1,
      "note": 78,
      "start": 67.7534,
      "duration": 0.0144,
      "velocity": 99,
      "chip": "ym2612"
    },
    {
      "channel": 2,
      "note": 78,
      "start": 67.7541,
      "duration": 0.0144,
      "velocity": 99,
      "chip": "ym2612"
    },
    {
      "channel": 1,
      "note": 78,
      "start": 67.7678,
      "duration": 0.0144,
      "velocity": 99,
      "chip": "ym2612"
    },
    {
      "channel": 2,
      "note": 78,
      "start": 67.7685,
      "duration": 0.0145,
      "velocity": 99,
      "chip": "ym2612"
    },
    {
      "channel": 1,
      "note": 78,
      "start": 67.7822,
      "duration": 0.0143,
      "velocity": 99,
      "chip": "ym2612"
    },
    {
      "channel": 2,
      "note": 78,
      "start": 67.783,
      "duration": 0.0143,
      "velocity": 99,
      "chip": "ym2612"
    },
    {
      "channel": 1,
      "note": 78,
      "start": 67.7966,
      "duration": 0.0146,
      "velocity": 99,
      "chip": "ym2612"
    },
    {
      "channel": 2,
      "note": 78,
      "start": 67.7973,
      "duration": 0.0144,
      "velocity": 99,
      "chip": "ym2612"
    },
    {
      "channel": 1,
      "note": 78,
      "start": 67.8112,
      "duration": 0.0144,
      "velocity": 99,
      "chip": "ym2612"
    },
    {
      "channel": 2,
      "note": 78,
      "start": 67.8117,
      "duration": 0.0146,
      "velocity": 99,
      "chip": "ym2612"
    },
    {
      "channel": 1,
      "note": 78,
      "start": 67.8256,
      "duration": 0.0148,
      "velocity": 99,
      "chip": "ym2612"
    },
    {
      "channel": 2,
      "note": 78,
      "start": 67.8263,
      "duration": 0.0146,
      "velocity": 99,
      "chip": "ym2612"
    },
    {
      "channel": 0,
      "note": 51,
      "start": 67.8399,
      "duration": 0.1421,
      "velocity": 95,
      "chip": "ym2612"
    },
    {
      "channel": 1,
      "note": 78,
      "start": 67.8405,
      "duration": 0.0048,
      "velocity": 99,
      "chip": "ym2612"
    },
    {
      "channel": 2,
      "note": 78,
      "start": 67.8409,
      "duration": 0.005,
      "velocity": 99,
      "chip": "ym2612"
    },
    {
      "channel": 3,
      "note": 70,
      "start": 67.8415,
      "duration": 1.0153,
      "velocity": 89,
      "chip": "ym2612"
    },
    {
      "channel": 4,
      "note": 66,
      "start": 67.8422,
      "duration": 1.0152,
      "velocity": 89,
      "chip": "ym2612"
    },
    {
      "channel": 1,
      "note": 78,
      "start": 67.8452,
      "duration": 0.0032,
      "velocity": 99,
      "chip": "ym2612"
    },
    {
      "channel": 2,
      "note": 78,
      "start": 67.8459,
      "duration": 0.0031,
      "velocity": 99,
      "chip": "ym2612"
    },
    {
      "channel": 1,
      "note": 78,
      "start": 67.8484,
      "duration": 0.0044,
      "velocity": 99,
      "chip": "ym2612"
    },
    {
      "channel": 2,
      "note": 78,
      "start": 67.849,
      "duration": 0.0046,
      "velocity": 99,
      "chip": "ym2612"
    },
    {
      "channel": 1,
      "note": 78,
      "start": 67.8528,
      "duration": 0.0144,
      "velocity": 99,
      "chip": "ym2612"
    },
    {
      "channel": 2,
      "note": 78,
      "start": 67.8535,
      "duration": 0.0144,
      "velocity": 99,
      "chip": "ym2612"
    },
    {
      "channel": 1,
      "note": 78,
      "start": 67.8673,
      "duration": 0.0144,
      "velocity": 99,
      "chip": "ym2612"
    },
    {
      "channel": 2,
      "note": 78,
      "start": 67.868,
      "duration": 0.0144,
      "velocity": 99,
      "chip": "ym2612"
    },
    {
      "channel": 1,
      "note": 78,
      "start": 67.8817,
      "duration": 0.0143,
      "velocity": 99,
      "chip": "ym2612"
    },
    {
      "channel": 2,
      "note": 78,
      "start": 67.8824,
      "duration": 0.0142,
      "velocity": 99,
      "chip": "ym2612"
    },
    {
      "channel": 1,
      "note": 78,
      "start": 67.896,
      "duration": 0.0146,
      "velocity": 99,
      "chip": "ym2612"
    },
    {
      "channel": 2,
      "note": 78,
      "start": 67.8966,
      "duration": 0.0144,
      "velocity": 99,
      "chip": "ym2612"
    },
    {
      "channel": 1,
      "note": 78,
      "start": 67.9106,
      "duration": 0.0144,
      "velocity": 99,
      "chip": "ym2612"
    },
    {
      "channel": 2,
      "note": 78,
      "start": 67.9111,
      "duration": 0.0146,
      "velocity": 99,
      "chip": "ym2612"
    },
    {
      "channel": 1,
      "note": 78,
      "start": 67.925,
      "duration": 0.0145,
      "velocity": 99,
      "chip": "ym2612"
    },
    {
      "channel": 2,
      "note": 78,
      "start": 67.9257,
      "duration": 0.0144,
      "velocity": 99,
      "chip": "ym2612"
    },
    {
      "channel": 1,
      "note": 78,
      "start": 67.9395,
      "duration": 0.0144,
      "velocity": 99,
      "chip": "ym2612"
    },
    {
      "channel": 2,
      "note": 78,
      "start": 67.9402,
      "duration": 0.0144,
      "velocity": 99,
      "chip": "ym2612"
    },
    {
      "channel": 1,
      "note": 78,
      "start": 67.954,
      "duration": 0.0142,
      "velocity": 99,
      "chip": "ym2612"
    },
    {
      "channel": 2,
      "note": 78,
      "start": 67.9546,
      "duration": 0.0142,
      "velocity": 99,
      "chip": "ym2612"
    },
    {
      "channel": 1,
      "note": 78,
      "start": 67.9682,
      "duration": 0.0147,
      "velocity": 99,
      "chip": "ym2612"
    },
    {
      "channel": 2,
      "note": 78,
      "start": 67.9688,
      "duration": 0.0146,
      "velocity": 99,
      "chip": "ym2612"
    },
    {
      "channel": 0,
      "note": 51,
      "start": 67.9825,
      "duration": 0.1729,
      "velocity": 95,
      "chip": "ym2612"
    },
    {
      "channel": 1,
      "note": 78,
      "start": 67.9829,
      "duration": 0.0143,
      "velocity": 99,
      "chip": "ym2612"
    },
    {
      "channel": 2,
      "note": 78,
      "start": 67.9834,
      "duration": 0.0145,
      "velocity": 99,
      "chip": "ym2612"
    },
    {
      "channel": 1,
      "note": 78,
      "start": 67.9972,
      "duration": 0.0145,
      "velocity": 99,
      "chip": "ym2612"
    },
    {
      "channel": 2,
      "note": 78,
      "start": 67.9979,
      "duration": 0.0144,
      "velocity": 99,
      "chip": "ym2612"
    },
    {
      "channel": 1,
      "note": 78,
      "start": 68.0117,
      "duration": 0.0144,
      "velocity": 99,
      "chip": "ym2612"
    },
    {
      "channel": 2,
      "note": 78,
      "start": 68.0124,
      "duration": 0.0145,
      "velocity": 99,
      "chip": "ym2612"
    },
    {
      "channel": 1,
      "note": 78,
      "start": 68.0262,
      "duration": 0.0144,
      "velocity": 99,
      "chip": "ym2612"
    },
    {
      "channel": 2,
      "note": 78,
      "start": 68.0269,
      "duration": 0.0142,
      "velocity": 99,
      "chip": "ym2612"
    },
    {
      "channel": 1,
      "note": 78,
      "start": 68.0406,
      "duration": 0.0145,
      "velocity": 99,
      "chip": "ym2612"
    },
    {
      "channel": 2,
      "note": 78,
      "start": 68.0411,
      "duration": 0.0146,
      "velocity": 99,
      "chip": "ym2612"
    },
    {
      "channel": 1,
      "note": 78,
      "start": 68.0551,
      "duration": 0.0144,
      "velocity": 99,
      "chip": "ym2612"
    },
    {
      "channel": 2,
      "note": 78,
      "start": 68.0557,
      "duration": 0.0144,
      "velocity": 99,
      "chip": "ym2612"
    },
    {
      "channel": 1,
      "note": 78,
      "start": 68.0695,
      "duration": 0.0144,
      "velocity": 99,
      "chip": "ym2612"
    },
    {
      "channel": 2,
      "note": 78,
      "start": 68.0702,
      "duration": 0.0144,
      "velocity": 99,
      "chip": "ym2612"
    },
    {
      "channel": 1,
      "note": 78,
      "start": 68.0839,
      "duration": 0.0143,
      "velocity": 99,
      "chip": "ym2612"
    },
    {
      "channel": 2,
      "note": 78,
      "start": 68.0846,
      "duration": 0.0142,
      "velocity": 99,
      "chip": "ym2612"
    },
    {
      "channel": 1,
      "note": 78,
      "start": 68.0982,
      "duration": 0.0146,
      "velocity": 99,
      "chip": "ym2612"
    },
    {
      "channel": 2,
      "note": 78,
      "start": 68.0988,
      "duration": 0.0147,
      "velocity": 99,
      "chip": "ym2612"
    },
    {
      "channel": 1,
      "note": 78,
      "start": 68.1128,
      "duration": 0.0144,
      "velocity": 99,
      "chip": "ym2612"
    },
    {
      "channel": 2,
      "note": 78,
      "start": 68.1135,
      "duration": 0.0144,
      "velocity": 99,
      "chip": "ym2612"
    },
    {
      "channel": 1,
      "note": 78,
      "start": 68.1273,
      "duration": 0.0145,
      "velocity": 99,
      "chip": "ym2612"
    },
    {
      "channel": 2,
      "note": 78,
      "start": 68.1279,
      "duration": 0.0145,
      "velocity": 99,
      "chip": "ym2612"
    },
    {
      "channel": 1,
      "note": 78,
      "start": 68.1417,
      "duration": 0.0144,
      "velocity": 99,
      "chip": "ym2612"
    },
    {
      "channel": 2,
      "note": 78,
      "start": 68.1424,
      "duration": 0.0141,
      "velocity": 99,
      "chip": "ym2612"
    },
    {
      "channel": 0,
      "note": 51,
      "start": 68.1558,
      "duration": 0.0392,
      "velocity": 95,
      "chip": "ym2612"
    },
    {
      "channel": 1,
      "note": 78,
      "start": 68.1561,
      "duration": 0.0037,
      "velocity": 99,
      "chip": "ym2612"
    },
    {
      "channel": 2,
      "note": 78,
      "start": 68.1566,
      "duration": 0.0037,
      "velocity": 99,
      "chip": "ym2612"
    },
    {
      "channel": 1,
      "note": 78,
      "start": 68.1598,
      "duration": 0.0032,
      "velocity": 99,
      "chip": "ym2612"
    },
    {
      "channel": 2,
      "note": 78,
      "start": 68.1603,
      "duration": 0.0034,
      "velocity": 99,
      "chip": "ym2612"
    },
    {
      "channel": 1,
      "note": 78,
      "start": 68.163,
      "duration": 0.0034,
      "velocity": 99,
      "chip": "ym2612"
    },
    {
      "channel": 2,
      "note": 78,
      "start": 68.1637,
      "duration": 0.0034,
      "velocity": 99,
      "chip": "ym2612"
    },
    {
      "channel": 1,
      "note": 78,
      "start": 68.1664,
      "duration": 0.0034,
      "velocity": 99,
      "chip": "ym2612"
    },
    {
      "channel": 2,
      "note": 78,
      "start": 68.1671,
      "duration": 0.0034,
      "velocity": 99,
      "chip": "ym2612"
    },
    {
      "channel": 1,
      "note": 78,
      "start": 68.1698,
      "duration": 0.0033,
      "velocity": 99,
      "chip": "ym2612"
    },
    {
      "channel": 2,
      "note": 78,
      "start": 68.1705,
      "duration": 0.0032,
      "velocity": 99,
      "chip": "ym2612"
    },
    {
      "channel": 1,
      "note": 78,
      "start": 68.1731,
      "duration": 0.0032,
      "velocity": 99,
      "chip": "ym2612"
    },
    {
      "channel": 2,
      "note": 78,
      "start": 68.1736,
      "duration": 0.0033,
      "velocity": 99,
      "chip": "ym2612"
    },
    {
      "channel": 1,
      "note": 78,
      "start": 68.1762,
      "duration": 0.0029,
      "velocity": 99,
      "chip": "ym2612"
    },
    {
      "channel": 2,
      "note": 78,
      "start": 68.1769,
      "duration": 0.0029,
      "velocity": 99,
      "chip": "ym2612"
    },
    {
      "channel": 1,
      "note": 78,
      "start": 68.1792,
      "duration": 0.0034,
      "velocity": 99,
      "chip": "ym2612"
    },
    {
      "channel": 2,
      "note": 78,
      "start": 68.1799,
      "duration": 0.0033,
      "velocity": 99,
      "chip": "ym2612"
    },
    {
      "channel": 1,
      "note": 78,
      "start": 68.1825,
      "duration": 0.0033,
      "velocity": 99,
      "chip": "ym2612"
    },
    {
      "channel": 2,
      "note": 78,
      "start": 68.1832,
      "duration": 0.0032,
      "velocity": 99,
      "chip": "ym2612"
    },
    {
      "channel": 1,
      "note": 78,
      "start": 68.1858,
      "duration": 0.0034,
      "velocity": 99,
      "chip": "ym2612"
    },
    {
      "channel": 2,
      "note": 78,
      "start": 68.1865,
      "duration": 0.0032,
      "velocity": 99,
      "chip": "ym2612"
    },
    {
      "channel": 1,
      "note": 78,
      "start": 68.1892,
      "duration": 0.0032,
      "velocity": 99,
      "chip": "ym2612"
    },
    {
      "channel": 2,
      "note": 78,
      "start": 68.1897,
      "duration": 0.0034,
      "velocity": 99,
      "chip": "ym2612"
    },
    {
      "channel": 1,
      "note": 78,
      "start": 68.1924,
      "duration": 0.0035,
      "velocity": 99,
      "chip": "ym2612"
    },
    {
      "channel": 2,
      "note": 78,
      "start": 68.1931,
      "duration": 0.0033,
      "velocity": 99,
      "chip": "ym2612"
    },
    {
      "channel": 0,
      "note": 51,
      "start": 68.1955,
      "duration": 0.1516,
      "velocity": 95,
      "chip": "ym2612"
    },
    {
      "channel": 1,
      "note": 78,
      "start": 68.1959,
      "duration": 0.0029,
      "velocity": 99,
      "chip": "ym2612"
    },
    {
      "channel": 2,
      "note": 78,
      "start": 68.1964,
      "duration": 0.0031,
      "velocity": 99,
      "chip": "ym2612"
    },
    {
      "channel": 1,
      "note": 78,
      "start": 68.1988,
      "duration": 0.0045,
      "velocity": 99,
      "chip": "ym2612"
    },
    {
      "channel": 2,
      "note": 78,
      "start": 68.1995,
      "duration": 0.0044,
      "velocity": 99,
      "chip": "ym2612"
    },
    {
      "channel": 1,
      "note": 78,
      "start": 68.2033,
      "duration": 0.0146,
      "velocity": 99,
      "chip": "ym2612"
    },
    {
      "channel": 2,
      "note": 78,
      "start": 68.2039,
      "duration": 0.0147,
      "velocity": 99,
      "chip": "ym2612"
    },
    {
      "channel": 1,
      "note": 78,
      "start": 68.2179,
      "duration": 0.0144,
      "velocity": 99,
      "chip": "ym2612"
    },
    {
      "channel": 2,
      "note": 78,
      "start": 68.2186,
      "duration": 0.0144,
      "velocity": 99,
      "chip": "ym2612"
    },
    {
      "channel": 1,
      "note": 78,
      "start": 68.2323,
      "duration": 0.0144,
      "velocity": 99,
      "chip": "ym2612"
    },
    {
      "channel": 2,
      "note": 78,
      "start": 68.233,
      "duration": 0.0144,
      "velocity": 99,
      "chip": "ym2612"
    },
    {
      "channel": 1,
      "note": 78,
      "start": 68.2468,
      "duration": 0.0143,
      "velocity": 99,
      "chip": "ym2612"
    },
    {
      "channel": 2,
      "note": 78,
      "start": 68.2474,
      "duration": 0.0143,
      "velocity": 99,
      "chip": "ym2612"
    },
    {
      "channel": 1,
      "note": 78,
      "start": 68.2611,
      "duration": 0.0146,
      "velocity": 99,
      "chip": "ym2612"
    },
    {
      "channel": 2,
      "note": 78,
      "start": 68.2618,
      "duration": 0.0144,
      "velocity": 99,
      "chip": "ym2612"
    },
    {
      "channel": 1,
      "note": 78,
      "start": 68.2757,
      "duration": 0.0144,
      "velocity": 99,
      "chip": "ym2612"
    },
    {
      "channel": 2,
      "note": 78,
      "start": 68.2762,
      "duration": 0.0146,
      "velocity": 99,
      "chip": "ym2612"
    },
    {
      "channel": 1,
      "note": 78,
      "start": 68.2901,
      "duration": 0.0144,
      "velocity": 99,
      "chip": "ym2612"
    },
    {
      "channel": 2,
      "note": 78,
      "start": 68.2908,
      "duration": 0.0144,
      "velocity": 99,
      "chip": "ym2612"
    },
    {
      "channel": 1,
      "note": 78,
      "start": 68.3046,
      "duration": 0.0144,
      "velocity": 99,
      "chip": "ym2612"
    },
    {
      "channel": 2,
      "note": 78,
      "start": 68.3052,
      "duration": 0.0144,
      "velocity": 99,
      "chip": "ym2612"
    },
    {
      "channel": 1,
      "note": 78,
      "start": 68.319,
      "duration": 0.0142,
      "velocity": 99,
      "chip": "ym2612"
    },
    {
      "channel": 2,
      "note": 78,
      "start": 68.3197,
      "duration": 0.0142,
      "velocity": 99,
      "chip": "ym2612"
    },
    {
      "channel": 1,
      "note": 78,
      "start": 68.3333,
      "duration": 0.0145,
      "velocity": 99,
      "chip": "ym2612"
    },
    {
      "channel": 2,
      "note": 78,
      "start": 68.3338,
      "duration": 0.0149,
      "velocity": 99,
      "chip": "ym2612"
    },
    {
      "channel": 0,
      "note": 51,
      "start": 68.3476,
      "duration": 0.1423,
      "velocity": 95,
      "chip": "ym2612"
    },
    {
      "channel": 1,
      "note": 80,
      "start": 68.3482,
      "duration": 0.3156,
      "velocity": 99,
      "chip": "ym2612"
    },
    {
      "channel": 2,
      "note": 78,
      "start": 68.3487,
      "duration": 0.0034,
      "velocity": 99,
      "chip": "ym2612"
    },
    {
      "channel": 2,
      "note": 78,
      "start": 68.3522,
      "duration": 0.003,
      "velocity": 99,
      "chip": "ym2612"
    },
    {
      "channel": 2,
      "note": 78,
      "start": 68.3552,
      "duration": 0.0058,
      "velocity": 99,
      "chip": "ym2612"
    },
    {
      "channel": 2,
      "note": 78,
      "start": 68.361,
      "duration": 0.0143,
      "velocity": 99,
      "chip": "ym2612"
    },
    {
      "channel": 2,
      "note": 78,
      "start": 68.3752,
      "duration": 0.0146,
      "velocity": 99,
      "chip": "ym2612"
    },
    {
      "channel": 2,
      "note": 78,
      "start": 68.3898,
      "duration": 0.0141,
      "velocity": 99,
      "chip": "ym2612"
    },
    {
      "channel": 2,
      "note": 80,
      "start": 68.4043,
      "duration": 0.2756,
      "velocity": 99,
      "chip": "ym2612"
    },
    {
      "channel": 0,
      "note": 51,
      "start": 68.4902,
      "duration": 0.173,
      "velocity": 95,
      "chip": "ym2612"
    },
    {
      "channel": 0,
      "note": 51,
      "start": 68.6636,
      "duration": 0.0314,
      "velocity": 95,
      "chip": "ym2612"
    },
    {
      "channel": 1,
      "note": 82,
      "start": 68.6642,
      "duration": 0.1918,
      "velocity": 99,
      "chip": "ym2612"
    },
    {
      "channel": 2,
      "note": 82,
      "start": 68.6804,
      "duration": 0.2313,
      "velocity": 99,
      "chip": "ym2612"
    },
    {
      "channel": 0,
      "note": 51,
      "start": 68.6954,
      "duration": 0.1599,
      "velocity": 95,
      "chip": "ym2612"
    },
    {
      "channel": 0,
      "note": 47,
      "start": 68.8557,
      "duration": 0.142,
      "velocity": 95,
      "chip": "ym2612"
    },
    {
      "channel": 1,
      "note": 75,
      "start": 68.8563,
      "duration": 0.3156,
      "velocity": 99,
      "chip": "ym2612"
    },
    {
      "channel": 3,
      "note": 66,
      "start": 68.8572,
      "duration": 1.0151,
      "velocity": 89,
      "chip": "ym2612"
    },
    {
      "channel": 4,
      "note": 63,
      "start": 68.8578,
      "duration": 1.0152,
      "velocity": 89,
      "chip": "ym2612"
    },
    {
      "channel": 2,
      "note": 75,
      "start": 68.9121,
      "duration": 0.2781,
      "velocity": 99,
      "chip": "ym2612"
    },
    {
      "channel": 0,
      "note": 47,
      "start": 68.9981,
      "duration": 0.1729,
      "velocity": 95,
      "chip": "ym2612"
    },
    {
      "channel": 0,
      "note": 47,
      "start": 69.1715,
      "duration": 0.0367,
      "velocity": 95,
      "chip": "ym2612"
    },
    {
      "channel": 1,
      "note": 75,
      "start": 69.1719,
      "duration": 0.0032,
      "velocity": 99,
      "chip": "ym2612"
    },
    {
      "channel": 1,
      "note": 75,
      "start": 69.1751,
      "duration": 0.003,
      "velocity": 99,
      "chip": "ym2612"
    },
    {
      "channel": 1,
      "note": 75,
      "start": 69.1781,
      "duration": 0.0026,
      "velocity": 99,
      "chip": "ym2612"
    },
    {
      "channel": 1,
      "note": 75,
      "start": 69.1807,
      "duration": 0.003,
      "velocity": 99,
      "chip": "ym2612"
    },
    {
      "channel": 1,
      "note": 75,
      "start": 69.1837,
      "duration": 0.0029,
      "velocity": 99,
      "chip": "ym2612"
    },
    {
      "channel": 1,
      "note": 75,
      "start": 69.1866,
      "duration": 0.003,
      "velocity": 99,
      "chip": "ym2612"
    },
    {
      "channel": 1,
      "note": 75,
      "start": 69.1896,
      "duration": 0.0034,
      "velocity": 99,
      "chip": "ym2612"
    },
    {
      "channel": 2,
      "note": 75,
      "start": 69.1902,
      "duration": 0.0033,
      "velocity": 99,
      "chip": "ym2612"
    },
    {
      "channel": 1,
      "note": 75,
      "start": 69.193,
      "duration": 0.0032,
      "velocity": 99,
      "chip": "ym2612"
    },
    {
      "channel": 2,
      "note": 75,
      "start": 69.1935,
      "duration": 0.0034,
      "velocity": 99,
      "chip": "ym2612"
    },
    {
      "channel": 1,
      "note": 75,
      "start": 69.1962,
      "duration": 0.0034,
      "velocity": 99,
      "chip": "ym2612"
    },
    {
      "channel": 2,
      "note": 75,
      "start": 69.1969,
      "duration": 0.0033,
      "velocity": 99,
      "chip": "ym2612"
    },
    {
      "channel": 1,
      "note": 75,
      "start": 69.1996,
      "duration": 0.0032,
      "velocity": 99,
      "chip": "ym2612"
    },
    {
      "channel": 2,
      "note": 75,
      "start": 69.2003,
      "duration": 0.0032,
      "velocity": 99,
      "chip": "ym2612"
    },
    {
      "channel": 1,
      "note": 75,
      "start": 69.2029,
      "duration": 0.0029,
      "velocity": 99,
      "chip": "ym2612"
    },
    {
      "channel": 2,
      "note": 75,
      "start": 69.2035,
      "duration": 0.0027,
      "velocity": 99,
      "chip": "ym2612"
    },
    {
      "channel": 1,
      "note": 75,
      "start": 69.2057,
      "duration": 0.0033,
      "velocity": 99,
      "chip": "ym2612"
    },
    {
      "channel": 2,
      "note": 75,
      "start": 69.2062,
      "duration": 0.0033,
      "velocity": 99,
      "chip": "ym2612"
    },
    {
      "channel": 0,
      "note": 47,
      "start": 69.2086,
      "duration": 0.1542,
      "velocity": 95,
      "chip": "ym2612"
    },
    {
      "channel": 1,
      "note": 75,
      "start": 69.209,
      "duration": 0.0029,
      "velocity": 99,
      "chip": "ym2612"
    },
    {
      "channel": 2,
      "note": 75,
      "start": 69.2095,
      "duration": 0.0031,
      "velocity": 99,
      "chip": "ym2612"
    },
    {
      "channel": 1,
      "note": 75,
      "start": 69.212,
      "duration": 0.007,
      "velocity": 99,
      "chip": "ym2612"
    },
    {
      "channel": 2,
      "note": 75,
      "start": 69.2127,
      "duration": 0.007,
      "velocity": 99,
      "chip": "ym2612"
    },
    {
      "channel": 1,
      "note": 75,
      "start": 69.219,
      "duration": 0.0146,
      "velocity": 99,
      "chip": "ym2612"
    },
    {
      "channel": 2,
      "note": 75,
      "start": 69.2197,
      "duration": 0.0146,
      "velocity": 99,
      "chip": "ym2612"
    },
    {
      "channel": 1,
      "note": 75,
      "start": 69.2336,
      "duration": 0.0144,
      "velocity": 99,
      "chip": "ym2612"
    },
    {
      "channel": 2,
      "note": 75,
      "start": 69.2342,
      "duration": 0.0143,
      "velocity": 99,
      "chip": "ym2612"
    },
    {
      "channel": 1,
      "note": 75,
      "start": 69.248,
      "duration": 0.0144,
      "velocity": 99,
      "chip": "ym2612"
    },
    {
      "channel": 2,
      "note": 75,
      "start": 69.2486,
      "duration": 0.0146,
      "velocity": 99,
      "chip": "ym2612"
    },
    {
      "channel": 1,
      "note": 75,
      "start": 69.2625,
      "duration": 0.0149,
      "velocity": 99,
      "chip": "ym2612"
    },
    {
      "channel": 2,
      "note": 75,
      "start": 69.2631,
      "duration": 0.0149,
      "velocity": 99,
      "chip": "ym2612"
    },
    {
      "channel": 1,
      "note": 75,
      "start": 69.2774,
      "duration": 0.0139,
      "velocity": 99,
      "chip": "ym2612"
    },
    {
      "channel": 2,
      "note": 75,
      "start": 69.278,
      "duration": 0.0139,
      "velocity": 99,
      "chip": "ym2612"
    },
    {
      "channel": 1,
      "note": 75,
      "start": 69.2912,
      "duration": 0.0146,
      "velocity": 99,
      "chip": "ym2612"
    },
    {
      "channel": 2,
      "note": 75,
      "start": 69.2919,
      "duration": 0.0144,
      "velocity": 99,
      "chip": "ym2612"
    },
    {
      "channel": 1,
      "note": 75,
      "start": 69.3058,
      "duration": 0.0144,
      "velocity": 99,
      "chip": "ym2612"
    },
    {
      "channel": 2,
      "note": 75,
      "start": 69.3063,
      "duration": 0.0146,
      "velocity": 99,
      "chip": "ym2612"
    },
    {
      "channel": 1,
      "note": 75,
      "start": 69.3202,
      "duration": 0.0144,
      "velocity": 99,
      "chip": "ym2612"
    },
    {
      "channel": 2,
      "note": 75,
      "start": 69.321,
      "duration": 0.0144,
      "velocity": 99,
      "chip": "ym2612"
    },
    {
      "channel": 1,
      "note": 75,
      "start": 69.3347,
      "duration": 0.0143,
      "velocity": 99,
      "chip": "ym2612"
    },
    {
      "channel": 2,
      "note": 75,
      "start": 69.3354,
      "duration": 0.0143,
      "velocity": 99,
      "chip": "ym2612"
    },
    {
      "channel": 1,
      "note": 75,
      "start": 69.349,
      "duration": 0.0145,
      "velocity": 99,
      "chip": "ym2612"
    },
    {
      "channel": 2,
      "note": 75,
      "start": 69.3497,
      "duration": 0.0147,
      "velocity": 99,
      "chip": "ym2612"
    },
    {
      "channel": 0,
      "note": 47,
      "start": 69.3633,
      "duration": 0.1424,
      "velocity": 95,
      "chip": "ym2612"
    },
    {
      "channel": 1,
      "note": 83,
      "start": 69.3639,
      "duration": 0.3159,
      "velocity": 99,
      "chip": "ym2612"
    },
    {
      "channel": 2,
      "note": 75,
      "start": 69.3644,
      "duration": 0.0034,
      "velocity": 99,
      "chip": "ym2612"
    },
    {
      "channel": 2,
      "note": 75,
      "start": 69.3678,
      "duration": 0.0026,
      "velocity": 99,
      "chip": "ym2612"
    },
    {
      "channel": 2,
      "note": 75,
      "start": 69.3704,
      "duration": 0.0064,
      "velocity": 99,
      "chip": "ym2612"
    },
    {
      "channel": 2,
      "note": 75,
      "start": 69.3768,
      "duration": 0.0144,
      "velocity": 99,
      "chip": "ym2612"
    },
    {
      "channel": 2,
      "note": 75,
      "start": 69.3912,
      "duration": 0.0143,
      "velocity": 99,
      "chip": "ym2612"
    },
    {
      "channel": 2,
      "note": 75,
      "start": 69.4055,
      "duration": 0.0142,
      "velocity": 99,
      "chip": "ym2612"
    },
    {
      "channel": 2,
      "note": 83,
      "start": 69.4201,
      "duration": 0.2779,
      "velocity": 99,
      "chip": "ym2612"
    },
    {
      "channel": 0,
      "note": 47,
      "start": 69.506,
      "duration": 0.173,
      "velocity": 95,
      "chip": "ym2612"
    },
    {
      "channel": 0,
      "note": 47,
      "start": 69.6794,
      "duration": 0.0368,
      "velocity": 95,
      "chip": "ym2612"
    },
    {
      "channel": 1,
      "note": 83,
      "start": 69.6799,
      "duration": 0.0028,
      "velocity": 99,
      "chip": "ym2612"
    },
    {
      "channel": 1,
      "note": 83,
      "start": 69.6827,
      "duration": 0.0029,
      "velocity": 99,
      "chip": "ym2612"
    },
    {
      "channel": 1,
      "note": 83,
      "start": 69.6856,
      "duration": 0.003,
      "velocity": 99,
      "chip": "ym2612"
    },
    {
      "channel": 1,
      "note": 83,
      "start": 69.6885,
      "duration": 0.003,
      "velocity": 99,
      "chip": "ym2612"
    },
    {
      "channel": 1,
      "note": 83,
      "start": 69.6915,
      "duration": 0.0029,
      "velocity": 99,
      "chip": "ym2612"
    },
    {
      "channel": 1,
      "note": 83,
      "start": 69.6945,
      "duration": 0.0029,
      "velocity": 99,
      "chip": "ym2612"
    },
    {
      "channel": 1,
      "note": 83,
      "start": 69.6974,
      "duration": 0.0034,
      "velocity": 99,
      "chip": "ym2612"
    },
    {
      "channel": 2,
      "note": 83,
      "start": 69.698,
      "duration": 0.0034,
      "velocity": 99,
      "chip": "ym2612"
    },
    {
      "channel": 1,
      "note": 83,
      "start": 69.7008,
      "duration": 0.0035,
      "velocity": 99,
      "chip": "ym2612"
    },
    {
      "channel": 2,
      "note": 83,
      "start": 69.7015,
      "duration": 0.0033,
      "velocity": 99,
      "chip": "ym2612"
    },
    {
      "channel": 1,
      "note": 83,
      "start": 69.7042,
      "duration": 0.0028,
      "velocity": 99,
      "chip": "ym2612"
    },
    {
      "channel": 2,
      "note": 83,
      "start": 69.7047,
      "duration": 0.003,
      "velocity": 99,
      "chip": "ym2612"
    },
    {
      "channel": 1,
      "note": 83,
      "start": 69.7071,
      "duration": 0.0034,
      "velocity": 99,
      "chip": "ym2612"
    },
    {
      "channel": 2,
      "note": 83,
      "start": 69.7078,
      "duration": 0.0033,
      "velocity": 99,
      "chip": "ym2612"
    },
    {
      "channel": 1,
      "note": 83,
      "start": 69.7104,
      "duration": 0.0033,
      "velocity": 99,
      "chip": "ym2612"
    },
    {
      "channel": 2,
      "note": 83,
      "start": 69.7111,
      "duration": 0.0032,
      "velocity": 99,
      "chip": "ym2612"
    },
    {
      "channel": 1,
      "note": 83,
      "start": 69.7137,
      "duration": 0.0035,
      "velocity": 99,
      "chip": "ym2612"
    },
    {
      "channel": 2,
      "note": 83,
      "start": 69.7143,
      "duration": 0.0032,
      "velocity": 99,
      "chip": "ym2612"
    },
    {
      "channel": 0,
      "note": 47,
      "start": 69.7166,
      "duration": 0.1543,
      "velocity": 95,
      "chip": "ym2612"
    },
    {
      "channel": 1,
      "note": 83,
      "start": 69.7171,
      "duration": 0.0027,
      "velocity": 99,
      "chip": "ym2612"
    },
    {
      "channel": 2,
      "note": 83,
      "start": 69.7175,
      "duration": 0.0031,
      "velocity": 99,
      "chip": "ym2612"
    },
    {
      "channel": 1,
      "note": 83,
      "start": 69.7199,
      "duration": 0.0071,
      "velocity": 99,
      "chip": "ym2612"
    },
    {
      "channel": 2,
      "note": 83,
      "start": 69.7206,
      "duration": 0.0071,
      "velocity": 99,
      "chip": "ym2612"
    },
    {
      "channel": 1,
      "note": 83,
      "start": 69.727,
      "duration": 0.0144,
      "velocity": 99,
      "chip": "ym2612"
    },
    {
      "channel": 2,
      "note": 83,
      "start": 69.7277,
      "duration": 0.0144,
      "velocity": 99,
      "chip": "ym2612"
    },
    {
      "channel": 1,
      "note": 83,
      "start": 69.7414,
      "duration": 0.0149,
      "velocity": 99,
      "chip": "ym2612"
    },
    {
      "channel": 2,
      "note": 83,
      "start": 69.7421,
      "duration": 0.0148,
      "velocity": 99,
      "chip": "ym2612"
    },
    {
      "channel": 1,
      "note": 83,
      "start": 69.7563,
      "duration": 0.0141,
      "velocity": 99,
      "chip": "ym2612"
    },
    {
      "channel": 2,
      "note": 83,
      "start": 69.7569,
      "duration": 0.0141,
      "velocity": 99,
      "chip": "ym2612"
    },
    {
      "channel": 1,
      "note": 83,
      "start": 69.7704,
      "duration": 0.0144,
      "velocity": 99,
      "chip": "ym2612"
    },
    {
      "channel": 2,
      "note": 83,
      "start": 69.771,
      "duration": 0.0146,
      "velocity": 99,
      "chip": "ym2612"
    },
    {
      "channel": 1,
      "note": 83,
      "start": 69.7848,
      "duration": 0.0144,
      "velocity": 99,
      "chip": "ym2612"
    },
    {
      "channel": 2,
      "note": 83,
      "start": 69.7855,
      "duration": 0.0144,
      "velocity": 99,
      "chip": "ym2612"
    },
    {
      "channel": 1,
      "note": 83,
      "start": 69.7993,
      "duration": 0.0143,
      "velocity": 99,
      "chip": "ym2612"
    },
    {
      "channel": 2,
      "note": 83,
      "start": 69.8,
      "duration": 0.0142,
      "velocity": 99,
      "chip": "ym2612"
    },
    {
      "channel": 1,
      "note": 83,
      "start": 69.8136,
      "duration": 0.0146,
      "velocity": 99,
      "chip": "ym2612"
    },
    {
      "channel": 2,
      "note": 83,
      "start": 69.8142,
      "duration": 0.0145,
      "velocity": 99,
      "chip": "ym2612"
    },
    {
      "channel": 1,
      "note": 83,
      "start": 69.8281,
      "duration": 0.0144,
      "velocity": 99,
      "chip": "ym2612"
    },
    {
      "channel": 2,
      "note": 83,
      "start": 69.8287,
      "duration": 0.0146,
      "velocity": 99,
      "chip": "ym2612"
    },
    {
      "channel": 1,
      "note": 83,
      "start": 69.8426,
      "duration": 0.0144,
      "velocity": 99,
      "chip": "ym2612"
    },
    {
      "channel": 2,
      "note": 83,
      "start": 69.8433,
      "duration": 0.0144,
      "velocity": 99,
      "chip": "ym2612"
    },
    {
      "channel": 1,
      "note": 83,
      "start": 69.857,
      "duration": 0.0147,
      "velocity": 99,
      "chip": "ym2612"
    },
    {
      "channel": 2,
      "note": 83,
      "start": 69.8577,
      "duration": 0.0144,
      "velocity": 99,
      "chip": "ym2612"
    },
    {
      "channel": 0,
      "note": 47,
      "start": 69.8714,
      "duration": 0.1422,
      "velocity": 95,
      "chip": "ym2612"
    },
    {
      "channel": 1,
      "note": 83,
      "start": 69.8717,
      "duration": 0.005,
      "velocity": 99,
      "chip": "ym2612"
    },
    {
      "channel": 2,
      "note": 83,
      "start": 69.8722,
      "duration": 0.0053,
      "velocity": 99,
      "chip": "ym2612"
    },
    {
      "channel": 3,
      "note": 66,
      "start": 69.8728,
      "duration": 1.0155,
      "velocity": 89,
      "chip": "ym2612"
    },
    {
      "channel": 4,
      "note": 63,
      "start": 69.8734,
      "duration": 1.0154,
      "velocity": 89,
      "chip": "ym2612"
    },
    {
      "channel": 1,
      "note": 83,
      "start": 69.8767,
      "duration": 0.0034,
      "velocity": 99,
      "chip": "ym2612"
    },
    {
      "channel": 2,
      "note": 83,
      "start": 69.8774,
      "duration": 0.0032,
      "velocity": 99,
      "chip": "ym2612"
    },
    {
      "channel": 1,
      "note": 83,
      "start": 69.8801,
      "duration": 0.0042,
      "velocity": 99,
      "chip": "ym2612"
    },
    {
      "channel": 2,
      "note": 83,
      "start": 69.8807,
      "duration": 0.0043,
      "velocity": 99,
      "chip": "ym2612"
    },
    {
      "channel": 1,
      "note": 83,
      "start": 69.8843,
      "duration": 0.0144,
      "velocity": 99,
      "chip": "ym2612"
    },
    {
      "channel": 2,
      "note": 83,
      "start": 69.8849,
      "duration": 0.0144,
      "velocity": 99,
      "chip": "ym2612"
    },
    {
      "channel": 1,
      "note": 83,
      "start": 69.8988,
      "duration": 0.0143,
      "velocity": 99,
      "chip": "ym2612"
    },
    {
      "channel": 2,
      "note": 83,
      "start": 69.8994,
      "duration": 0.0144,
      "velocity": 99,
      "chip": "ym2612"
    },
    {
      "channel": 1,
      "note": 83,
      "start": 69.9131,
      "duration": 0.0146,
      "velocity": 99,
      "chip": "ym2612"
    },
    {
      "channel": 2,
      "note": 83,
      "start": 69.9138,
      "duration": 0.0144,
      "velocity": 99,
      "chip": "ym2612"
    },
    {
      "channel": 1,
      "note": 83,
      "start": 69.9276,
      "duration": 0.0144,
      "velocity": 99,
      "chip": "ym2612"
    },
    {
      "channel": 2,
      "note": 83,
      "start": 69.9282,
      "duration": 0.0146,
      "velocity": 99,
      "chip": "ym2612"
    },
    {
      "channel": 1,
      "note": 83,
      "start": 69.9421,
      "duration": 0.0144,
      "velocity": 99,
      "chip": "ym2612"
    },
    {
      "channel": 2,
      "note": 83,
      "start": 69.9428,
      "duration": 0.0144,
      "velocity": 99,
      "chip": "ym2612"
    },
    {
      "channel": 1,
      "note": 83,
      "start": 69.9565,
      "duration": 0.0143,
      "velocity": 99,
      "chip": "ym2612"
    },
    {
      "channel": 2,
      "note": 83,
      "start": 69.9572,
      "duration": 0.0143,
      "velocity": 99,
      "chip": "ym2612"
    },
    {
      "channel": 1,
      "note": 83,
      "start": 69.9708,
      "duration": 0.0146,
      "velocity": 99,
      "chip": "ym2612"
    },
    {
      "channel": 2,
      "note": 83,
      "start": 69.9715,
      "duration": 0.0146,
      "velocity": 99,
      "chip": "ym2612"
    },
    {
      "channel": 1,
      "note": 83,
      "start": 69.9855,
      "duration": 0.0144,
      "velocity": 99,
      "chip": "ym2612"
    },
    {
      "channel": 2,
      "note": 83,
      "start": 69.9861,
      "duration": 0.0143,
      "velocity": 99,
      "chip": "ym2612"
    },
    {
      "channel": 1,
      "note": 83,
      "start": 69.9999,
      "duration": 0.0146,
      "velocity": 99,
      "chip": "ym2612"
    },
    {
      "channel": 2,
      "note": 83,
      "start": 70.0004,
      "duration": 0.0145,
      "velocity": 99,
      "chip": "ym2612"
    },
    {
      "channel": 0,
      "note": 47,
      "start": 70.0139,
      "duration": 0.1729,
      "velocity": 95,
      "chip": "ym2612"
    },
    {
      "channel": 1,
      "note": 83,
      "start": 70.0145,
      "duration": 0.0143,
      "velocity": 99,
      "chip": "ym2612"
    },
    {
      "channel": 2,
      "note": 83,
      "start": 70.0149,
      "duration": 0.0145,
      "velocity": 99,
      "chip": "ym2612"
    },
    {
      "channel": 1,
      "note": 83,
      "start": 70.0288,
      "duration": 0.0143,
      "velocity": 99,
      "chip": "ym2612"
    },
    {
      "channel": 2,
      "note": 83,
      "start": 70.0294,
      "duration": 0.0144,
      "velocity": 99,
      "chip": "ym2612"
    },
    {
      "channel": 1,
      "note": 83,
      "start": 70.0431,
      "duration": 0.0148,
      "velocity": 99,
      "chip": "ym2612"
    },
    {
      "channel": 2,
      "note": 83,
      "start": 70.0438,
      "duration": 0.0146,
      "velocity": 99,
      "chip": "ym2612"
    },
    {
      "channel": 1,
      "note": 83,
      "start": 70.0578,
      "duration": 0.0142,
      "velocity": 99,
      "chip": "ym2612"
    },
    {
      "channel": 2,
      "note": 83,
      "start": 70.0584,
      "duration": 0.0144,
      "velocity": 99,
      "chip": "ym2612"
    },
    {
      "channel": 1,
      "note": 83,
      "start": 70.0721,
      "duration": 0.0144,
      "velocity": 99,
      "chip": "ym2612"
    },
    {
      "channel": 2,
      "note": 83,
      "start": 70.0728,
      "duration": 0.0144,
      "velocity": 99,
      "chip": "ym2612"
    },
    {
      "channel": 1,
      "note": 83,
      "start": 70.0865,
      "duration": 0.0143,
      "velocity": 99,
      "chip": "ym2612"
    },
    {
      "channel": 2,
      "note": 83,
      "start": 70.0872,
      "duration": 0.0143,
      "velocity": 99,
      "chip": "ym2612"
    },
    {
      "channel": 1,
      "note": 83,
      "start": 70.1008,
      "duration": 0.0146,
      "velocity": 99,
      "chip": "ym2612"
    },
    {
      "channel": 2,
      "note": 83,
      "start": 70.1015,
      "duration": 0.0146,
      "velocity": 99,
      "chip": "ym2612"
    },
    {
      "channel": 1,
      "note": 83,
      "start": 70.1154,
      "duration": 0.0145,
      "velocity": 99,
      "chip": "ym2612"
    },
    {
      "channel": 2,
      "note": 83,
      "start": 70.1161,
      "duration": 0.0143,
      "velocity": 99,
      "chip": "ym2612"
    },
    {
      "channel": 1,
      "note": 83,
      "start": 70.1299,
      "duration": 0.0144,
      "velocity": 99,
      "chip": "ym2612"
    },
    {
      "channel": 2,
      "note": 83,
      "start": 70.1304,
      "duration": 0.0146,
      "velocity": 99,
      "chip": "ym2612"
    },
    {
      "channel": 1,
      "note": 83,
      "start": 70.1444,
      "duration": 0.0144,
      "velocity": 99,
      "chip": "ym2612"
    },
    {
      "channel": 2,
      "note": 83,
      "start": 70.145,
      "duration": 0.0144,
      "velocity": 99,
      "chip": "ym2612"
    },
    {
      "channel": 1,
      "note": 83,
      "start": 70.1588,
      "duration": 0.0143,
      "velocity": 99,
      "chip": "ym2612"
    },
    {
      "channel": 2,
      "note": 83,
      "start": 70.1594,
      "duration": 0.0143,
      "velocity": 99,
      "chip": "ym2612"
    },
    {
      "channel": 1,
      "note": 83,
      "start": 70.1731,
      "duration": 0.0144,
      "velocity": 99,
      "chip": "ym2612"
    },
    {
      "channel": 2,
      "note": 83,
      "start": 70.1737,
      "duration": 0.0144,
      "velocity": 99,
      "chip": "ym2612"
    },
    {
      "channel": 0,
      "note": 47,
      "start": 70.1873,
      "duration": 0.0333,
      "velocity": 95,
      "chip": "ym2612"
    },
    {
      "channel": 1,
      "note": 82,
      "start": 70.1879,
      "duration": 0.1913,
      "velocity": 99,
      "chip": "ym2612"
    },
    {
      "channel": 2,
      "note": 83,
      "start": 70.1882,
      "duration": 0.0035,
      "velocity": 99,
      "chip": "ym2612"
    },
    {
      "channel": 2,
      "note": 83,
      "start": 70.1917,
      "duration": 0.003,
      "velocity": 99,
      "chip": "ym2612"
    },
    {
      "channel": 2,
      "note": 83,
      "start": 70.1947,
      "duration": 0.0029,
      "velocity": 99,
      "chip": "ym2612"
    },
    {
      "channel": 2,
      "note": 83,
      "start": 70.1976,
      "duration": 0.0031,
      "velocity": 99,
      "chip": "ym2612"
    },
    {
      "channel": 2,
      "note": 83,
      "start": 70.2007,
      "duration": 0.0029,
      "velocity": 99,
      "chip": "ym2612"
    },
    {
      "channel": 2,
      "note": 83,
      "start": 70.2035,
      "duration": 0.0025,
      "velocity": 99,
      "chip": "ym2612"
    },
    {
      "channel": 2,
      "note": 82,
      "start": 70.2064,
      "duration": 0.2289,
      "velocity": 99,
      "chip": "ym2612"
    },
    {
      "channel": 0,
      "note": 47,
      "start": 70.221,
      "duration": 0.1577,
      "velocity": 95,
      "chip": "ym2612"
    },
    {
      "channel": 0,
      "note": 47,
      "start": 70.379,
      "duration": 0.1424,
      "velocity": 95,
      "chip": "ym2612"
    },
    {
      "channel": 1,
      "note": 80,
      "start": 70.3797,
      "duration": 0.3158,
      "velocity": 99,
      "chip": "ym2612"
    },
    {
      "channel": 2,
      "note": 80,
      "start": 70.4358,
      "duration": 0.2759,
      "velocity": 99,
      "chip": "ym2612"
    },
    {
      "channel": 0,
      "note": 47,
      "start": 70.5218,
      "duration": 0.1729,
      "velocity": 95,
      "chip": "ym2612"
    },
    {
      "channel": 0,
      "note": 47,
      "start": 70.6952,
      "duration": 0.0314,
      "velocity": 95,
      "chip": "ym2612"
    },
    {
      "channel": 1,
      "note": 78,
      "start": 70.6958,
      "duration": 0.1917,
      "velocity": 99,
      "chip": "ym2612"
    },
    {
      "channel": 2,
      "note": 78,
      "start": 70.7121,
      "duration": 0.2313,
      "velocity": 99,
      "chip": "ym2612"
    },
    {
      "channel": 0,
      "note": 47,
      "start": 70.727,
      "duration": 0.1598,
      "velocity": 95,
      "chip": "ym2612"
    },
    {
      "channel": 0,
      "note": 49,
      "start": 70.8872,
      "duration": 0.1422,
      "velocity": 95,
      "chip": "ym2612"
    },
    {
      "channel": 1,
      "note": 80,
      "start": 70.8878,
      "duration": 0.3157,
      "velocity": 99,
      "chip": "ym2612"
    },
    {
      "channel": 3,
      "note": 68,
      "start": 70.8887,
      "duration": 1.0156,
      "velocity": 89,
      "chip": "ym2612"
    },
    {
      "channel": 4,
      "note": 65,
      "start": 70.8893,
      "duration": 1.0156,
      "velocity": 89,
      "chip": "ym2612"
    },
    {
      "channel": 2,
      "note": 80,
      "start": 70.9438,
      "duration": 0.278,
      "velocity": 99,
      "chip": "ym2612"
    },
    {
      "channel": 0,
      "note": 49,
      "start": 71.0298,
      "duration": 0.1729,
      "velocity": 95,
      "chip": "ym2612"
    },
    {
      "channel": 0,
      "note": 49,
      "start": 71.2031,
      "duration": 0.0366,
      "velocity": 95,
      "chip": "ym2612"
    },
    {
      "channel": 1,
      "note": 80,
      "start": 71.2036,
      "duration": 0.0032,
      "velocity": 99,
      "chip": "ym2612"
    },
    {
      "channel": 1,
      "note": 80,
      "start": 71.2068,
      "duration": 0.003,
      "velocity": 99,
      "chip": "ym2612"
    },
    {
      "channel": 1,
      "note": 80,
      "start": 71.2098,
      "duration": 0.0025,
      "velocity": 99,
      "chip": "ym2612"
    },
    {
      "channel": 1,
      "note": 80,
      "start": 71.2122,
      "duration": 0.0029,
      "velocity": 99,
      "chip": "ym2612"
    },
    {
      "channel": 1,
      "note": 80,
      "start": 71.2152,
      "duration": 0.0028,
      "velocity": 99,
      "chip": "ym2612"
    },
    {
      "channel": 1,
      "note": 80,
      "start": 71.218,
      "duration": 0.0031,
      "velocity": 99,
      "chip": "ym2612"
    },
    {
      "channel": 1,
      "note": 80,
      "start": 71.2211,
      "duration": 0.0034,
      "velocity": 99,
      "chip": "ym2612"
    },
    {
      "channel": 2,
      "note": 81,
      "start": 71.2217,
      "duration": 0.0033,
      "velocity": 99,
      "chip": "ym2612"
    },
    {
      "channel": 1,
      "note": 80,
      "start": 71.2245,
      "duration": 0.0033,
      "velocity": 99,
      "chip": "ym2612"
    },
    {
      "channel": 2,
      "note": 80,
      "start": 71.225,
      "duration": 0.0034,
      "velocity": 99,
      "chip": "ym2612"
    },
    {
      "channel": 1,
      "note": 80,
      "start": 71.2278,
      "duration": 0.0034,
      "velocity": 99,
      "chip": "ym2612"
    },
    {
      "channel": 2,
      "note": 80,
      "start": 71.2285,
      "duration": 0.0034,
      "velocity": 99,
      "chip": "ym2612"
    },
    {
      "channel": 1,
      "note": 80,
      "start": 71.2312,
      "duration": 0.0032,
      "velocity": 99,
      "chip": "ym2612"
    },
    {
      "channel": 2,
      "note": 80,
      "start": 71.2318,
      "duration": 0.0033,
      "velocity": 99,
      "chip": "ym2612"
    },
    {
      "channel": 1,
      "note": 80,
      "start": 71.2344,
      "duration": 0.003,
      "velocity": 99,
      "chip": "ym2612"
    },
    {
      "channel": 2,
      "note": 80,
      "start": 71.2351,
      "duration": 0.0028,
      "velocity": 99,
      "chip": "ym2612"
    },
    {
      "channel": 1,
      "note": 80,
      "start": 71.2374,
      "duration": 0.0033,
      "velocity": 99,
      "chip": "ym2612"
    },
    {
      "channel": 2,
      "note": 80,
      "start": 71.2379,
      "duration": 0.0033,
      "velocity": 99,
      "chip": "ym2612"
    },
    {
      "channel": 0,
      "note": 49,
      "start": 71.2402,
      "duration": 0.1543,
      "velocity": 95,
      "chip": "ym2612"
    },
    {
      "channel": 1,
      "note": 80,
      "start": 71.2407,
      "duration": 0.0029,
      "velocity": 99,
      "chip": "ym2612"
    },
    {
      "channel": 2,
      "note": 81,
      "start": 71.2412,
      "duration": 0.0031,
      "velocity": 99,
      "chip": "ym2612"
    },
    {
      "channel": 1,
      "note": 80,
      "start": 71.2436,
      "duration": 0.0071,
      "velocity": 99,
      "chip": "ym2612"
    },
    {
      "channel": 2,
      "note": 81,
      "start": 71.2443,
      "duration": 0.0071,
      "velocity": 99,
      "chip": "ym2612"
    },
    {
      "channel": 1,
      "note": 80,
      "start": 71.2507,
      "duration": 0.0146,
      "velocity": 99,
      "chip": "ym2612"
    },
    {
      "channel": 2,
      "note": 81,
      "start": 71.2514,
      "duration": 0.0146,
      "velocity": 99,
      "chip": "ym2612"
    },
    {
      "channel": 1,
      "note": 80,
      "start": 71.2652,
      "duration": 0.0144,
      "velocity": 99,
      "chip": "ym2612"
    },
    {
      "channel": 2,
      "note": 81,
      "start": 71.2659,
      "duration": 0.0143,
      "velocity": 99,
      "chip": "ym2612"
    },
    {
      "channel": 1,
      "note": 80,
      "start": 71.2797,
      "duration": 0.0145,
      "velocity": 99,
      "chip": "ym2612"
    },
    {
      "channel": 2,
      "note": 80,
      "start": 71.2802,
      "duration": 0.0146,
      "velocity": 99,
      "chip": "ym2612"
    },
    {
      "channel": 1,
      "note": 80,
      "start": 71.2942,
      "duration": 0.0144,
      "velocity": 99,
      "chip": "ym2612"
    },
    {
      "channel": 2,
      "note": 80,
      "start": 71.2949,
      "duration": 0.0144,
      "velocity": 99,
      "chip": "ym2612"
    },
    {
      "channel": 1,
      "note": 80,
      "start": 71.3086,
      "duration": 0.0143,
      "velocity": 99,
      "chip": "ym2612"
    },
    {
      "channel": 2,
      "note": 80,
      "start": 71.3093,
      "duration": 0.0143,
      "velocity": 99,
      "chip": "ym2612"
    },
    {
      "channel": 1,
      "note": 80,
      "start": 71.3229,
      "duration": 0.0145,
      "velocity": 99,
      "chip": "ym2612"
    },
    {
      "channel": 2,
      "note": 80,
      "start": 71.3236,
      "duration": 0.0144,
      "velocity": 99,
      "chip": "ym2612"
    },
    {
      "channel": 1,
      "note": 80,
      "start": 71.3374,
      "duration": 0.0145,
      "velocity": 99,
      "chip": "ym2612"
    },
    {
      "channel": 2,
      "note": 80,
      "start": 71.338,
      "duration": 0.0146,
      "velocity": 99,
      "chip": "ym2612"
    },
    {
      "channel": 1,
      "note": 80,
      "start": 71.3519,
      "duration": 0.0144,
      "velocity": 99,
      "chip": "ym2612"
    },
    {
      "channel": 2,
      "note": 81,
      "start": 71.3526,
      "duration": 0.0144,
      "velocity": 99,
      "chip": "ym2612"
    },
    {
      "channel": 1,
      "note": 80,
      "start": 71.3664,
      "duration": 0.0143,
      "velocity": 99,
      "chip": "ym2612"
    },
    {
      "channel": 2,
      "note": 81,
      "start": 71.3671,
      "duration": 0.0143,
      "velocity": 99,
      "chip": "ym2612"
    },
    {
      "channel": 1,
      "note": 80,
      "start": 71.3807,
      "duration": 0.0147,
      "velocity": 99,
      "chip": "ym2612"
    },
    {
      "channel": 2,
      "note": 81,
      "start": 71.3814,
      "duration": 0.0145,
      "velocity": 99,
      "chip": "ym2612"
    },
    {
      "channel": 0,
      "note": 49,
      "start": 71.3949,
      "duration": 0.1422,
      "velocity": 95,
      "chip": "ym2612"
    },
    {
      "channel": 1,
      "note": 80,
      "start": 71.3954,
      "duration": 0.0037,
      "velocity": 99,
      "chip": "ym2612"
    },
    {
      "channel": 2,
      "note": 81,
      "start": 71.3959,
      "duration": 0.0037,
      "velocity": 99,
      "chip": "ym2612"
    },
    {
      "channel": 1,
      "note": 80,
      "start": 71.399,
      "duration": 0.0028,
      "velocity": 99,
      "chip": "ym2612"
    },
    {
      "channel": 2,
      "note": 80,
      "start": 71.3995,
      "duration": 0.0029,
      "velocity": 99,
      "chip": "ym2612"
    },
    {
      "channel": 1,
      "note": 80,
      "start": 71.4018,
      "duration": 0.0062,
      "velocity": 99,
      "chip": "ym2612"
    },
    {
      "channel": 2,
      "note": 80,
      "start": 71.4024,
      "duration": 0.0062,
      "velocity": 99,
      "chip": "ym2612"
    },
    {
      "channel": 1,
      "note": 80,
      "start": 71.408,
      "duration": 0.0142,
      "velocity": 99,
      "chip": "ym2612"
    },
    {
      "channel": 2,
      "note": 80,
      "start": 71.4086,
      "duration": 0.0143,
      "velocity": 99,
      "chip": "ym2612"
    },
    {
      "channel": 1,
      "note": 80,
      "start": 71.4222,
      "duration": 0.0146,
      "velocity": 99,
      "chip": "ym2612"
    },
    {
      "channel": 2,
      "note": 80,
      "start": 71.4229,
      "duration": 0.0144,
      "velocity": 99,
      "chip": "ym2612"
    },
    {
      "channel": 1,
      "note": 80,
      "start": 71.4368,
      "duration": 0.0144,
      "velocity": 99,
      "chip": "ym2612"
    },
    {
      "channel": 2,
      "note": 80,
      "start": 71.4374,
      "duration": 0.0146,
      "velocity": 99,
      "chip": "ym2612"
    },
    {
      "channel": 1,
      "note": 80,
      "start": 71.4513,
      "duration": 0.0144,
      "velocity": 99,
      "chip": "ym2612"
    },
    {
      "channel": 2,
      "note": 81,
      "start": 71.452,
      "duration": 0.0144,
      "velocity": 99,
      "chip": "ym2612"
    },
    {
      "channel": 1,
      "note": 80,
      "start": 71.4657,
      "duration": 0.0143,
      "velocity": 99,
      "chip": "ym2612"
    },
    {
      "channel": 2,
      "note": 81,
      "start": 71.4664,
      "duration": 0.0142,
      "velocity": 99,
      "chip": "ym2612"
    },
    {
      "channel": 1,
      "note": 80,
      "start": 71.48,
      "duration": 0.0146,
      "velocity": 99,
      "chip": "ym2612"
    },
    {
      "channel": 2,
      "note": 81,
      "start": 71.4807,
      "duration": 0.0146,
      "velocity": 99,
      "chip": "ym2612"
    },
    {
      "channel": 1,
      "note": 80,
      "start": 71.4946,
      "duration": 0.0144,
      "velocity": 99,
      "chip": "ym2612"
    },
    {
      "channel": 2,
      "note": 81,
      "start": 71.4953,
      "duration": 0.0143,
      "velocity": 99,
      "chip": "ym2612"
    },
    {
      "channel": 1,
      "note": 80,
      "start": 71.509,
      "duration": 0.0145,
      "velocity": 99,
      "chip": "ym2612"
    },
    {
      "channel": 2,
      "note": 80,
      "start": 71.5096,
      "duration": 0.0146,
      "velocity": 99,
      "chip": "ym2612"
    },
    {
      "channel": 1,
      "note": 80,
      "start": 71.5236,
      "duration": 0.0145,
      "velocity": 99,
      "chip": "ym2612"
    },
    {
      "channel": 2,
      "note": 80,
      "start": 71.5242,
      "duration": 0.0144,
      "velocity": 99,
      "chip": "ym2612"
    },
    {
      "channel": 0,
      "note": 49,
      "start": 71.5376,
      "duration": 0.1729,
      "velocity": 95,
      "chip": "ym2612"
    },
    {
      "channel": 1,
      "note": 80,
      "start": 71.5381,
      "duration": 0.0142,
      "velocity": 99,
      "chip": "ym2612"
    },
    {
      "channel": 2,
      "note": 80,
      "start": 71.5386,
      "duration": 0.0144,
      "velocity": 99,
      "chip": "ym2612"
    },
    {
      "channel": 1,
      "note": 80,
      "start": 71.5522,
      "duration": 0.0146,
      "velocity": 99,
      "chip": "ym2612"
    },
    {
      "channel": 2,
      "note": 80,
      "start": 71.5529,
      "duration": 0.0144,
      "velocity": 99,
      "chip": "ym2612"
    },
    {
      "channel": 1,
      "note": 80,
      "start": 71.5668,
      "duration": 0.0144,
      "velocity": 99,
      "chip": "ym2612"
    },
    {
      "channel": 2,
      "note": 80,
      "start": 71.5674,
      "duration": 0.0146,
      "velocity": 99,
      "chip": "ym2612"
    },
    {
      "channel": 1,
      "note": 80,
      "start": 71.5812,
      "duration": 0.0144,
      "velocity": 99,
      "chip": "ym2612"
    },
    {
      "channel": 2,
      "note": 81,
      "start": 71.582,
      "duration": 0.0144,
      "velocity": 99,
      "chip": "ym2612"
    },
    {
      "channel": 1,
      "note": 80,
      "start": 71.5957,
      "duration": 0.0143,
      "velocity": 99,
      "chip": "ym2612"
    },
    {
      "channel": 2,
      "note": 81,
      "start": 71.5964,
      "duration": 0.0143,
      "velocity": 99,
      "chip": "ym2612"
    },
    {
      "channel": 1,
      "note": 80,
      "start": 71.61,
      "duration": 0.0146,
      "velocity": 99,
      "chip": "ym2612"
    },
    {
      "channel": 2,
      "note": 81,
      "start": 71.6107,
      "duration": 0.0146,
      "velocity": 99,
      "chip": "ym2612"
    },
    {
      "channel": 1,
      "note": 80,
      "start": 71.6246,
      "duration": 0.0144,
      "velocity": 99,
      "chip": "ym2612"
    },
    {
      "channel": 2,
      "note": 81,
      "start": 71.6254,
      "duration": 0.0142,
      "velocity": 99,
      "chip": "ym2612"
    },
    {
      "channel": 1,
      "note": 80,
      "start": 71.6391,
      "duration": 0.0145,
      "velocity": 99,
      "chip": "ym2612"
    },
    {
      "channel": 2,
      "note": 80,
      "start": 71.6396,
      "duration": 0.0146,
      "velocity": 99,
      "chip": "ym2612"
    },
    {
      "channel": 1,
      "note": 80,
      "start": 71.6536,
      "duration": 0.0144,
      "velocity": 99,
      "chip": "ym2612"
    },
    {
      "channel": 2,
      "note": 80,
      "start": 71.6542,
      "duration": 0.0144,
      "velocity": 99,
      "chip": "ym2612"
    },
    {
      "channel": 1,
      "note": 80,
      "start": 71.668,
      "duration": 0.0143,
      "velocity": 99,
      "chip": "ym2612"
    },
    {
      "channel": 2,
      "note": 80,
      "start": 71.6687,
      "duration": 0.0142,
      "velocity": 99,
      "chip": "ym2612"
    },
    {
      "channel": 1,
      "note": 80,
      "start": 71.6823,
      "duration": 0.0146,
      "velocity": 99,
      "chip": "ym2612"
    },
    {
      "channel": 2,
      "note": 80,
      "start": 71.6829,
      "duration": 0.0145,
      "velocity": 99,
      "chip": "ym2612"
    },
    {
      "channel": 1,
      "note": 80,
      "start": 71.6968,
      "duration": 0.0146,
      "velocity": 99,
      "chip": "ym2612"
    },
    {
      "channel": 2,
      "note": 80,
      "start": 71.6974,
      "duration": 0.0145,
      "velocity": 99,
      "chip": "ym2612"
    },
    {
      "channel": 0,
      "note": 49,
      "start": 71.711,
      "duration": 0.0388,
      "velocity": 95,
      "chip": "ym2612"
    },
    {
      "channel": 1,
      "note": 80,
      "start": 71.7114,
      "duration": 0.0032,
      "velocity": 99,
      "chip": "ym2612"
    },
    {
      "channel": 2,
      "note": 81,
      "start": 71.7119,
      "duration": 0.0034,
      "velocity": 99,
      "chip": "ym2612"
    },
    {
      "channel": 1,
      "note": 80,
      "start": 71.7146,
      "duration": 0.0032,
      "velocity": 99,
      "chip": "ym2612"
    },
    {
      "channel": 2,
      "note": 81,
      "start": 71.7154,
      "duration": 0.0032,
      "velocity": 99,
      "chip": "ym2612"
    },
    {
      "channel": 1,
      "note": 80,
      "start": 71.7179,
      "duration": 0.0034,
      "velocity": 99,
      "chip": "ym2612"
    },
    {
      "channel": 2,
      "note": 81,
      "start": 71.7186,
      "duration": 0.0034,
      "velocity": 99,
      "chip": "ym2612"
    },
    {
      "channel": 1,
      "note": 80,
      "start": 71.7213,
      "duration": 0.0033,
      "velocity": 99,
      "chip": "ym2612"
    },
    {
      "channel": 2,
      "note": 81,
      "start": 71.722,
      "duration": 0.0032,
      "velocity": 99,
      "chip": "ym2612"
    },
    {
      "channel": 1,
      "note": 80,
      "start": 71.7246,
      "duration": 0.0033,
      "velocity": 99,
      "chip": "ym2612"
    },
    {
      "channel": 2,
      "note": 80,
      "start": 71.7252,
      "duration": 0.0034,
      "velocity": 99,
      "chip": "ym2612"
    },
    {
      "channel": 1,
      "note": 80,
      "start": 71.7279,
      "duration": 0.0034,
      "velocity": 99,
      "chip": "ym2612"
    },
    {
      "channel": 2,
      "note": 80,
      "start": 71.7285,
      "duration": 0.0034,
      "velocity": 99,
      "chip": "ym2612"
    },
    {
      "channel": 1,
      "note": 80,
      "start": 71.7313,
      "duration": 0.0032,
      "velocity": 99,
      "chip": "ym2612"
    },
    {
      "channel": 2,
      "note": 80,
      "start": 71.732,
      "duration": 0.0033,
      "velocity": 99,
      "chip": "ym2612"
    },
    {
      "channel": 1,
      "note": 80,
      "start": 71.7345,
      "duration": 0.0034,
      "velocity": 99,
      "chip": "ym2612"
    },
    {
      "channel": 2,
      "note": 80,
      "start": 71.7352,
      "duration": 0.0032,
      "velocity": 99,
      "chip": "ym2612"
    },
    {
      "channel": 1,
      "note": 80,
      "start": 71.7379,
      "duration": 0.0028,
      "velocity": 99,
      "chip": "ym2612"
    },
    {
      "channel": 2,
      "note": 80,
      "start": 71.7384,
      "duration": 0.0029,
      "velocity": 99,
      "chip": "ym2612"
    },
    {
      "channel": 1,
      "note": 80,
      "start": 71.7406,
      "duration": 0.0033,
      "velocity": 99,
      "chip": "ym2612"
    },
    {
      "channel": 2,
      "note": 81,
      "start": 71.7413,
      "duration": 0.0033,
      "velocity": 99,
      "chip": "ym2612"
    },
    {
      "channel": 1,
      "note": 80,
      "start": 71.7439,
      "duration": 0.0032,
      "velocity": 99,
      "chip": "ym2612"
    },
    {
      "channel": 2,
      "note": 81,
      "start": 71.7446,
      "duration": 0.0032,
      "velocity": 99,
      "chip": "ym2612"
    },
    {
      "channel": 1,
      "note": 80,
      "start": 71.7472,
      "duration": 0.0035,
      "velocity": 99,
      "chip": "ym2612"
    },
    {
      "channel": 2,
      "note": 81,
      "start": 71.7479,
      "duration": 0.0033,
      "velocity": 99,
      "chip": "ym2612"
    },
    {
      "channel": 0,
      "note": 49,
      "start": 71.7502,
      "duration": 0.1523,
      "velocity": 95,
      "chip": "ym2612"
    },
    {
      "channel": 1,
      "note": 80,
      "start": 71.7507,
      "duration": 0.0029,
      "velocity": 99,
      "chip": "ym2612"
    },
    {
      "channel": 2,
      "note": 81,
      "start": 71.7512,
      "duration": 0.003,
      "velocity": 99,
      "chip": "ym2612"
    },
    {
      "channel": 1,
      "note": 80,
      "start": 71.7536,
      "duration": 0.005,
      "velocity": 99,
      "chip": "ym2612"
    },
    {
      "channel": 2,
      "note": 80,
      "start": 71.7542,
      "duration": 0.0051,
      "velocity": 99,
      "chip": "ym2612"
    },
    {
      "channel": 1,
      "note": 80,
      "start": 71.7587,
      "duration": 0.0144,
      "velocity": 99,
      "chip": "ym2612"
    },
    {
      "channel": 2,
      "note": 80,
      "start": 71.7593,
      "duration": 0.0144,
      "velocity": 99,
      "chip": "ym2612"
    },
    {
      "channel": 1,
      "note": 80,
      "start": 71.7731,
      "duration": 0.0146,
      "velocity": 99,
      "chip": "ym2612"
    },
    {
      "channel": 2,
      "note": 80,
      "start": 71.7737,
      "duration": 0.0147,
      "velocity": 99,
      "chip": "ym2612"
    },
    {
      "channel": 1,
      "note": 80,
      "start": 71.7877,
      "duration": 0.0142,
      "velocity": 99,
      "chip": "ym2612"
    },
    {
      "channel": 2,
      "note": 80,
      "start": 71.7884,
      "duration": 0.0141,
      "velocity": 99,
      "chip": "ym2612"
    },
    {
      "channel": 1,
      "note": 80,
      "start": 71.802,
      "duration": 0.0144,
      "velocity": 99,
      "chip": "ym2612"
    },
    {
      "channel": 2,
      "note": 80,
      "start": 71.8025,
      "duration": 0.0146,
      "velocity": 99,
      "chip": "ym2612"
    },
    {
      "channel": 1,
      "note": 80,
      "start": 71.8164,
      "duration": 0.0144,
      "velocity": 99,
      "chip": "ym2612"
    },
    {
      "channel": 2,
      "note": 81,
      "start": 71.8171,
      "duration": 0.0144,
      "velocity": 99,
      "chip": "ym2612"
    },
    {
      "channel": 1,
      "note": 80,
      "start": 71.8309,
      "duration": 0.0143,
      "velocity": 99,
      "chip": "ym2612"
    },
    {
      "channel": 2,
      "note": 81,
      "start": 71.8315,
      "duration": 0.0143,
      "velocity": 99,
      "chip": "ym2612"
    },
    {
      "channel": 1,
      "note": 80,
      "start": 71.8452,
      "duration": 0.0146,
      "velocity": 99,
      "chip": "ym2612"
    },
    {
      "channel": 2,
      "note": 81,
      "start": 71.8458,
      "duration": 0.0146,
      "velocity": 99,
      "chip": "ym2612"
    },
    {
      "channel": 1,
      "note": 80,
      "start": 71.8598,
      "duration": 0.0144,
      "velocity": 99,
      "chip": "ym2612"
    },
    {
      "channel": 2,
      "note": 81,
      "start": 71.8604,
      "duration": 0.0143,
      "velocity": 99,
      "chip": "ym2612"
    },
    {
      "channel": 1,
      "note": 80,
      "start": 71.8742,
      "duration": 0.0144,
      "velocity": 99,
      "chip": "ym2612"
    },
    {
      "channel": 2,
      "note": 80,
      "start": 71.8747,
      "duration": 0.0146,
      "velocity": 99,
      "chip": "ym2612"
    },
    {
      "channel": 1,
      "note": 80,
      "start": 71.8887,
      "duration": 0.0146,
      "velocity": 99,
      "chip": "ym2612"
    },
    {
      "channel": 2,
      "note": 80,
      "start": 71.8893,
      "duration": 0.0148,
      "velocity": 99,
      "chip": "ym2612"
    },
    {
      "channel": 0,
      "note": 49,
      "start": 71.903,
      "duration": 0.1421,
      "velocity": 95,
      "chip": "ym2612"
    },
    {
      "channel": 1,
      "note": 77,
      "start": 71.9037,
      "duration": 0.3157,
      "velocity": 99,
      "chip": "ym2612"
    },
    {
      "channel": 2,
      "note": 80,
      "start": 71.9041,
      "duration": 0.0048,
      "velocity": 99,
      "chip": "ym2612"
    },
    {
      "channel": 3,
      "note": 68,
      "start": 71.9048,
      "duration": 1.0156,
      "velocity": 89,
      "chip": "ym2612"
    },
    {
      "channel": 4,
      "note": 65,
      "start": 71.9054,
      "duration": 1.0156,
      "velocity": 89,
      "chip": "ym2612"
    },
    {
      "channel": 2,
      "note": 80,
      "start": 71.9089,
      "duration": 0.0028,
      "velocity": 99,
      "chip": "ym2612"
    },
    {
      "channel": 2,
      "note": 80,
      "start": 71.9117,
      "duration": 0.0045,
      "velocity": 99,
      "chip": "ym2612"
    },
    {
      "channel": 2,
      "note": 81,
      "start": 71.9162,
      "duration": 0.0144,
      "velocity": 99,
      "chip": "ym2612"
    },
    {
      "channel": 2,
      "note": 81,
      "start": 71.9306,
      "duration": 0.0144,
      "velocity": 99,
      "chip": "ym2612"
    },
    {
      "channel": 2,
      "note": 81,
      "start": 71.9451,
      "duration": 0.0141,
      "velocity": 99,
      "chip": "ym2612"
    },
    {
      "channel": 2,
      "note": 77,
      "start": 71.9596,
      "duration": 0.2786,
      "velocity": 99,
      "chip": "ym2612"
    },
    {
      "channel": 0,
      "note": 49,
      "start": 72.0455,
      "duration": 0.173,
      "velocity": 95,
      "chip": "ym2612"
    },
    {
      "channel": 0,
      "note": 49,
      "start": 72.2189,
      "duration": 0.0371,
      "velocity": 95,
      "chip": "ym2612"
    },
    {
      "channel": 1,
      "note": 77,
      "start": 72.2194,
      "duration": 0.0032,
      "velocity": 99,
      "chip": "ym2612"
    },
    {
      "channel": 1,
      "note": 77,
      "start": 72.2225,
      "duration": 0.003,
      "velocity": 99,
      "chip": "ym2612"
    },
    {
      "channel": 1,
      "note": 77,
      "start": 72.2255,
      "duration": 0.003,
      "velocity": 99,
      "chip": "ym2612"
    },
    {
      "channel": 1,
      "note": 77,
      "start": 72.2285,
      "duration": 0.003,
      "velocity": 99,
      "chip": "ym2612"
    },
    {
      "channel": 1,
      "note": 77,
      "start": 72.2315,
      "duration": 0.0028,
      "velocity": 99,
      "chip": "ym2612"
    },
    {
      "channel": 1,
      "note": 77,
      "start": 72.2344,
      "duration": 0.0031,
      "velocity": 99,
      "chip": "ym2612"
    },
    {
      "channel": 1,
      "note": 77,
      "start": 72.2374,
      "duration": 0.003,
      "velocity": 99,
      "chip": "ym2612"
    },
    {
      "channel": 2,
      "note": 77,
      "start": 72.2381,
      "duration": 0.0028,
      "velocity": 99,
      "chip": "ym2612"
    },
    {
      "channel": 1,
      "note": 77,
      "start": 72.2404,
      "duration": 0.0032,
      "velocity": 99,
      "chip": "ym2612"
    },
    {
      "channel": 2,
      "note": 77,
      "start": 72.2409,
      "duration": 0.0034,
      "velocity": 99,
      "chip": "ym2612"
    },
    {
      "channel": 1,
      "note": 77,
      "start": 72.2437,
      "duration": 0.0034,
      "velocity": 99,
      "chip": "ym2612"
    },
    {
      "channel": 2,
      "note": 77,
      "start": 72.2444,
      "duration": 0.0034,
      "velocity": 99,
      "chip": "ym2612"
    },
    {
      "channel": 1,
      "note": 77,
      "start": 72.2471,
      "duration": 0.0033,
      "velocity": 99,
      "chip": "ym2612"
    },
    {
      "channel": 2,
      "note": 77,
      "start": 72.2477,
      "duration": 0.0032,
      "velocity": 99,
      "chip": "ym2612"
    },
    {
      "channel": 1,
      "note": 77,
      "start": 72.2503,
      "duration": 0.0033,
      "velocity": 99,
      "chip": "ym2612"
    },
    {
      "channel": 2,
      "note": 77,
      "start": 72.251,
      "duration": 0.0032,
      "velocity": 99,
      "chip": "ym2612"
    },
    {
      "channel": 1,
      "note": 77,
      "start": 72.2536,
      "duration": 0.0034,
      "velocity": 99,
      "chip": "ym2612"
    },
    {
      "channel": 2,
      "note": 77,
      "start": 72.2541,
      "duration": 0.0033,
      "velocity": 99,
      "chip": "ym2612"
    },
    {
      "channel": 0,
      "note": 49,
      "start": 72.2565,
      "duration": 0.1539,
      "velocity": 95,
      "chip": "ym2612"
    },
    {
      "channel": 1,
      "note": 77,
      "start": 72.257,
      "duration": 0.0029,
      "velocity": 99,
      "chip": "ym2612"
    },
    {
      "channel": 2,
      "note": 77,
      "start": 72.2574,
      "duration": 0.0032,
      "velocity": 99,
      "chip": "ym2612"
    },
    {
      "channel": 1,
      "note": 77,
      "start": 72.2599,
      "duration": 0.0069,
      "velocity": 99,
      "chip": "ym2612"
    },
    {
      "channel": 2,
      "note": 77,
      "start": 72.2606,
      "duration": 0.0069,
      "velocity": 99,
      "chip": "ym2612"
    },
    {
      "channel": 1,
      "note": 77,
      "start": 72.2668,
      "duration": 0.0144,
      "velocity": 99,
      "chip": "ym2612"
    },
    {
      "channel": 2,
      "note": 77,
      "start": 72.2674,
      "duration": 0.0144,
      "velocity": 99,
      "chip": "ym2612"
    },
    {
      "channel": 1,
      "note": 77,
      "start": 72.2811,
      "duration": 0.0144,
      "velocity": 99,
      "chip": "ym2612"
    },
    {
      "channel": 2,
      "note": 77,
      "start": 72.2818,
      "duration": 0.0143,
      "velocity": 99,
      "chip": "ym2612"
    },
    {
      "channel": 1,
      "note": 77,
      "start": 72.2956,
      "duration": 0.0144,
      "velocity": 99,
      "chip": "ym2612"
    },
    {
      "channel": 2,
      "note": 77,
      "start": 72.2961,
      "duration": 0.0146,
      "velocity": 99,
      "chip": "ym2612"
    },
    {
      "channel": 1,
      "note": 77,
      "start": 72.31,
      "duration": 0.0144,
      "velocity": 99,
      "chip": "ym2612"
    },
    {
      "channel": 2,
      "note": 77,
      "start": 72.3107,
      "duration": 0.0144,
      "velocity": 99,
      "chip": "ym2612"
    },
    {
      "channel": 1,
      "note": 77,
      "start": 72.3244,
      "duration": 0.0143,
      "velocity": 99,
      "chip": "ym2612"
    },
    {
      "channel": 2,
      "note": 77,
      "start": 72.3251,
      "duration": 0.0142,
      "velocity": 99,
      "chip": "ym2612"
    },
    {
      "channel": 1,
      "note": 77,
      "start": 72.3388,
      "duration": 0.0146,
      "velocity": 99,
      "chip": "ym2612"
    },
    {
      "channel": 2,
      "note": 77,
      "start": 72.3394,
      "duration": 0.0145,
      "velocity": 99,
      "chip": "ym2612"
    },
    {
      "channel": 1,
      "note": 77,
      "start": 72.3533,
      "duration": 0.0144,
      "velocity": 99,
      "chip": "ym2612"
    },
    {
      "channel": 2,
      "note": 77,
      "start": 72.3539,
      "duration": 0.0146,
      "velocity": 99,
      "chip": "ym2612"
    },
    {
      "channel": 1,
      "note": 77,
      "start": 72.3678,
      "duration": 0.0145,
      "velocity": 99,
      "chip": "ym2612"
    },
    {
      "channel": 2,
      "note": 77,
      "start": 72.3685,
      "duration": 0.0145,
      "velocity": 99,
      "chip": "ym2612"
    },
    {
      "channel": 1,
      "note": 77,
      "start": 72.3823,
      "duration": 0.0143,
      "velocity": 99,
      "chip": "ym2612"
    },
    {
      "channel": 2,
      "note": 77,
      "start": 72.383,
      "duration": 0.0143,
      "velocity": 99,
      "chip": "ym2612"
    },
    {
      "channel": 1,
      "note": 77,
      "start": 72.3966,
      "duration": 0.0147,
      "velocity": 99,
      "chip": "ym2612"
    },
    {
      "channel": 2,
      "note": 77,
      "start": 72.3973,
      "duration": 0.0144,
      "velocity": 99,
      "chip": "ym2612"
    },
    {
      "channel": 0,
      "note": 49,
      "start": 72.4108,
      "duration": 0.1424,
      "velocity": 95,
      "chip": "ym2612"
    },
    {
      "channel": 1,
      "note": 77,
      "start": 72.4113,
      "duration": 0.0037,
      "velocity": 99,
      "chip": "ym2612"
    },
    {
      "channel": 2,
      "note": 77,
      "start": 72.4117,
      "duration": 0.0038,
      "velocity": 99,
      "chip": "ym2612"
    },
    {
      "channel": 1,
      "note": 77,
      "start": 72.415,
      "duration": 0.0032,
      "velocity": 99,
      "chip": "ym2612"
    },
    {
      "channel": 2,
      "note": 77,
      "start": 72.4156,
      "duration": 0.0033,
      "velocity": 99,
      "chip": "ym2612"
    },
    {
      "channel": 1,
      "note": 77,
      "start": 72.4182,
      "duration": 0.0058,
      "velocity": 99,
      "chip": "ym2612"
    },
    {
      "channel": 2,
      "note": 77,
      "start": 72.4188,
      "duration": 0.0058,
      "velocity": 99,
      "chip": "ym2612"
    },
    {
      "channel": 1,
      "note": 77,
      "start": 72.424,
      "duration": 0.0142,
      "velocity": 99,
      "chip": "ym2612"
    },
    {
      "channel": 2,
      "note": 77,
      "start": 72.4246,
      "duration": 0.0143,
      "velocity": 99,
      "chip": "ym2612"
    },
    {
      "channel": 1,
      "note": 77,
      "start": 72.4383,
      "duration": 0.0146,
      "velocity": 99,
      "chip": "ym2612"
    },
    {
      "channel": 2,
      "note": 77,
      "start": 72.439,
      "duration": 0.0144,
      "velocity": 99,
      "chip": "ym2612"
    },
    {
      "channel": 1,
      "note": 77,
      "start": 72.4528,
      "duration": 0.0144,
      "velocity": 99,
      "chip": "ym2612"
    },
    {
      "channel": 2,
      "note": 77,
      "start": 72.4534,
      "duration": 0.0146,
      "velocity": 99,
      "chip": "ym2612"
    },
    {
      "channel": 1,
      "note": 77,
      "start": 72.4673,
      "duration": 0.0144,
      "velocity": 99,
      "chip": "ym2612"
    },
    {
      "channel": 2,
      "note": 77,
      "start": 72.468,
      "duration": 0.0144,
      "velocity": 99,
      "chip": "ym2612"
    },
    {
      "channel": 1,
      "note": 77,
      "start": 72.4817,
      "duration": 0.0143,
      "velocity": 99,
      "chip": "ym2612"
    },
    {
      "channel": 2,
      "note": 77,
      "start": 72.4824,
      "duration": 0.0143,
      "velocity": 99,
      "chip": "ym2612"
    },
    {
      "channel": 1,
      "note": 77,
      "start": 72.496,
      "duration": 0.0146,
      "velocity": 99,
      "chip": "ym2612"
    },
    {
      "channel": 2,
      "note": 77,
      "start": 72.4967,
      "duration": 0.0146,
      "velocity": 99,
      "chip": "ym2612"
    },
    {
      "channel": 1,
      "note": 77,
      "start": 72.5107,
      "duration": 0.0144,
      "velocity": 99,
      "chip": "ym2612"
    },
    {
      "channel": 2,
      "note": 77,
      "start": 72.5113,
      "duration": 0.0143,
      "velocity": 99,
      "chip": "ym2612"
    },
    {
      "channel": 1,
      "note": 77,
      "start": 72.5251,
      "duration": 0.0144,
      "velocity": 99,
      "chip": "ym2612"
    },
    {
      "channel": 2,
      "note": 77,
      "start": 72.5256,
      "duration": 0.0146,
      "velocity": 99,
      "chip": "ym2612"
    },
    {
      "channel": 1,
      "note": 77,
      "start": 72.5395,
      "duration": 0.0146,
      "velocity": 99,
      "chip": "ym2612"
    },
    {
      "channel": 2,
      "note": 77,
      "start": 72.5402,
      "duration": 0.0144,
      "velocity": 99,
      "chip": "ym2612"
    },
    {
      "channel": 0,
      "note": 49,
      "start": 72.5537,
      "duration": 0.1729,
      "velocity": 95,
      "chip": "ym2612"
    },
    {
      "channel": 1,
      "note": 77,
      "start": 72.5541,
      "duration": 0.0143,
      "velocity": 99,
      "chip": "ym2612"
    },
    {
      "channel": 2,
      "note": 77,
      "start": 72.5546,
      "duration": 0.0146,
      "velocity": 99,
      "chip": "ym2612"
    },
    {
      "channel": 1,
      "note": 77,
      "start": 72.5684,
      "duration": 0.0144,
      "velocity": 99,
      "chip": "ym2612"
    },
    {
      "channel": 2,
      "note": 77,
      "start": 72.5691,
      "duration": 0.0143,
      "velocity": 99,
      "chip": "ym2612"
    },
    {
      "channel": 1,
      "note": 77,
      "start": 72.5829,
      "duration": 0.0144,
      "velocity": 99,
      "chip": "ym2612"
    },
    {
      "channel": 2,
      "note": 77,
      "start": 72.5834,
      "duration": 0.0146,
      "velocity": 99,
      "chip": "ym2612"
    },
    {
      "channel": 1,
      "note": 77,
      "start": 72.5973,
      "duration": 0.0144,
      "velocity": 99,
      "chip": "ym2612"
    },
    {
      "channel": 2,
      "note": 77,
      "start": 72.598,
      "duration": 0.0144,
      "velocity": 99,
      "chip": "ym2612"
    },
    {
      "channel": 1,
      "note": 77,
      "start": 72.6117,
      "duration": 0.0143,
      "velocity": 99,
      "chip": "ym2612"
    },
    {
      "channel": 2,
      "note": 77,
      "start": 72.6124,
      "duration": 0.0143,
      "velocity": 99,
      "chip": "ym2612"
    },
    {
      "channel": 1,
      "note": 77,
      "start": 72.6261,
      "duration": 0.0146,
      "velocity": 99,
      "chip": "ym2612"
    },
    {
      "channel": 2,
      "note": 77,
      "start": 72.6268,
      "duration": 0.0146,
      "velocity": 99,
      "chip": "ym2612"
    },
    {
      "channel": 1,
      "note": 77,
      "start": 72.6407,
      "duration": 0.0144,
      "velocity": 99,
      "chip": "ym2612"
    },
    {
      "channel": 2,
      "note": 77,
      "start": 72.6413,
      "duration": 0.0143,
      "velocity": 99,
      "chip": "ym2612"
    },
    {
      "channel": 1,
      "note": 77,
      "start": 72.6551,
      "duration": 0.0144,
      "velocity": 99,
      "chip": "ym2612"
    },
    {
      "channel": 2,
      "note": 77,
      "start": 72.6556,
      "duration": 0.0146,
      "velocity": 99,
      "chip": "ym2612"
    },
    {
      "channel": 1,
      "note": 77,
      "start": 72.6696,
      "duration": 0.0144,
      "velocity": 99,
      "chip": "ym2612"
    },
    {
      "channel": 2,
      "note": 77,
      "start": 72.6702,
      "duration": 0.0144,
      "velocity": 99,
      "chip": "ym2612"
    },
    {
      "channel": 1,
      "note": 77,
      "start": 72.684,
      "duration": 0.0143,
      "velocity": 99,
      "chip": "ym2612"
    },
    {
      "channel": 2,
      "note": 77,
      "start": 72.6846,
      "duration": 0.0143,
      "velocity": 99,
      "chip": "ym2612"
    },
    {
      "channel": 1,
      "note": 77,
      "start": 72.6983,
      "duration": 0.0146,
      "velocity": 99,
      "chip": "ym2612"
    },
    {
      "channel": 2,
      "note": 77,
      "start": 72.699,
      "duration": 0.0144,
      "velocity": 99,
      "chip": "ym2612"
    },
    {
      "channel": 1,
      "note": 77,
      "start": 72.7129,
      "duration": 0.0146,
      "velocity": 99,
      "chip": "ym2612"
    },
    {
      "channel": 2,
      "note": 77,
      "start": 72.7134,
      "duration": 0.0146,
      "velocity": 99,
      "chip": "ym2612"
    },
    {
      "channel": 0,
      "note": 49,
      "start": 72.727,
      "duration": 0.0395,
      "velocity": 95,
      "chip": "ym2612"
    },
    {
      "channel": 1,
      "note": 77,
      "start": 72.7274,
      "duration": 0.0037,
      "velocity": 99,
      "chip": "ym2612"
    },
    {
      "channel": 2,
      "note": 77,
      "start": 72.728,
      "duration": 0.0039,
      "velocity": 99,
      "chip": "ym2612"
    },
    {
      "channel": 1,
      "note": 77,
      "start": 72.7311,
      "duration": 0.0033,
      "velocity": 99,
      "chip": "ym2612"
    },
    {
      "channel": 2,
      "note": 77,
      "start": 72.7318,
      "duration": 0.0033,
      "velocity": 99,
      "chip": "ym2612"
    },
    {
      "channel": 1,
      "note": 77,
      "start": 72.7344,
      "duration": 0.0034,
      "velocity": 99,
      "chip": "ym2612"
    },
    {
      "channel": 2,
      "note": 77,
      "start": 72.7351,
      "duration": 0.0034,
      "velocity": 99,
      "chip": "ym2612"
    },
    {
      "channel": 1,
      "note": 77,
      "start": 72.7378,
      "duration": 0.0034,
      "velocity": 99,
      "chip": "ym2612"
    },
    {
      "channel": 2,
      "note": 77,
      "start": 72.7385,
      "duration": 0.0032,
      "velocity": 99,
      "chip": "ym2612"
    },
    {
      "channel": 1,
      "note": 77,
      "start": 72.7412,
      "duration": 0.0029,
      "velocity": 99,
      "chip": "ym2612"
    },
    {
      "channel": 2,
      "note": 77,
      "start": 72.7417,
      "duration": 0.003,
      "velocity": 99,
      "chip": "ym2612"
    },
    {
      "channel": 1,
      "note": 77,
      "start": 72.744,
      "duration": 0.0034,
      "velocity": 99,
      "chip": "ym2612"
    },
    {
      "channel": 2,
      "note": 77,
      "start": 72.7447,
      "duration": 0.0033,
      "velocity": 99,
      "chip": "ym2612"
    },
    {
      "channel": 1,
      "note": 77,
      "start": 72.7474,
      "duration": 0.0032,
      "velocity": 99,
      "chip": "ym2612"
    },
    {
      "channel": 2,
      "note": 77,
      "start": 72.748,
      "duration": 0.0033,
      "velocity": 99,
      "chip": "ym2612"
    },
    {
      "channel": 1,
      "note": 77,
      "start": 72.7506,
      "duration": 0.0033,
      "velocity": 99,
      "chip": "ym2612"
    },
    {
      "channel": 2,
      "note": 77,
      "start": 72.7513,
      "duration": 0.0032,
      "velocity": 99,
      "chip": "ym2612"
    },
    {
      "channel": 1,
      "note": 77,
      "start": 72.7539,
      "duration": 0.0033,
      "velocity": 99,
      "chip": "ym2612"
    },
    {
      "channel": 2,
      "note": 77,
      "start": 72.7545,
      "duration": 0.0034,
      "velocity": 99,
      "chip": "ym2612"
    },
    {
      "channel": 1,
      "note": 77,
      "start": 72.7572,
      "duration": 0.0034,
      "velocity": 99,
      "chip": "ym2612"
    },
    {
      "channel": 2,
      "note": 77,
      "start": 72.7579,
      "duration": 0.0034,
      "velocity": 99,
      "chip": "ym2612"
    },
    {
      "channel": 1,
      "note": 77,
      "start": 72.7607,
      "duration": 0.0032,
      "velocity": 99,
      "chip": "ym2612"
    },
    {
      "channel": 2,
      "note": 77,
      "start": 72.7613,
      "duration": 0.0033,
      "velocity": 99,
      "chip": "ym2612"
    },
    {
      "channel": 1,
      "note": 77,
      "start": 72.7639,
      "duration": 0.0035,
      "velocity": 99,
      "chip": "ym2612"
    },
    {
      "channel": 2,
      "note": 77,
      "start": 72.7646,
      "duration": 0.0032,
      "velocity": 99,
      "chip": "ym2612"
    },
    {
      "channel": 0,
      "note": 49,
      "start": 72.7669,
      "duration": 0.1518,
      "velocity": 95,
      "chip": "ym2612"
    },
    {
      "channel": 1,
      "note": 77,
      "start": 72.7674,
      "duration": 0.0025,
      "velocity": 99,
      "chip": "ym2612"
    },
    {
      "channel": 2,
      "note": 77,
      "start": 72.7678,
      "duration": 0.0025,
      "velocity": 99,
      "chip": "ym2612"
    },
    {
      "channel": 1,
      "note": 77,
      "start": 72.7699,
      "duration": 0.0049,
      "velocity": 99,
      "chip": "ym2612"
    },
    {
      "channel": 2,
      "note": 77,
      "start": 72.7704,
      "duration": 0.005,
      "velocity": 99,
      "chip": "ym2612"
    },
    {
      "channel": 1,
      "note": 77,
      "start": 72.7747,
      "duration": 0.0145,
      "velocity": 99,
      "chip": "ym2612"
    },
    {
      "channel": 2,
      "note": 77,
      "start": 72.7754,
      "duration": 0.0145,
      "velocity": 99,
      "chip": "ym2612"
    },
    {
      "channel": 1,
      "note": 77,
      "start": 72.7892,
      "duration": 0.0142,
      "velocity": 99,
      "chip": "ym2612"
    },
    {
      "channel": 2,
      "note": 77,
      "start": 72.7899,
      "duration": 0.0143,
      "velocity": 99,
      "chip": "ym2612"
    },
    {
      "channel": 1,
      "note": 77,
      "start": 72.8035,
      "duration": 0.0146,
      "velocity": 99,
      "chip": "ym2612"
    },
    {
      "channel": 2,
      "note": 77,
      "start": 72.8042,
      "duration": 0.0144,
      "velocity": 99,
      "chip": "ym2612"
    },
    {
      "channel": 1,
      "note": 77,
      "start": 72.818,
      "duration": 0.0144,
      "velocity": 99,
      "chip": "ym2612"
    },
    {
      "channel": 2,
      "note": 77,
      "start": 72.8186,
      "duration": 0.0146,
      "velocity": 99,
      "chip": "ym2612"
    },
    {
      "channel": 1,
      "note": 77,
      "start": 72.8325,
      "duration": 0.0144,
      "velocity": 99,
      "chip": "ym2612"
    },
    {
      "channel": 2,
      "note": 77,
      "start": 72.8332,
      "duration": 0.0144,
      "velocity": 99,
      "chip": "ym2612"
    },
    {
      "channel": 1,
      "note": 77,
      "start": 72.8469,
      "duration": 0.0143,
      "velocity": 99,
      "chip": "ym2612"
    },
    {
      "channel": 2,
      "note": 77,
      "start": 72.8476,
      "duration": 0.0143,
      "velocity": 99,
      "chip": "ym2612"
    },
    {
      "channel": 1,
      "note": 77,
      "start": 72.8612,
      "duration": 0.0146,
      "velocity": 99,
      "chip": "ym2612"
    },
    {
      "channel": 2,
      "note": 77,
      "start": 72.8619,
      "duration": 0.0146,
      "velocity": 99,
      "chip": "ym2612"
    },
    {
      "channel": 1,
      "note": 77,
      "start": 72.8759,
      "duration": 0.0144,
      "velocity": 99,
      "chip": "ym2612"
    },
    {
      "channel": 2,
      "note": 77,
      "start": 72.8766,
      "duration": 0.0143,
      "velocity": 99,
      "chip": "ym2612"
    },
    {
      "channel": 1,
      "note": 77,
      "start": 72.8903,
      "duration": 0.0144,
      "velocity": 99,
      "chip": "ym2612"
    },
    {
      "channel": 2,
      "note": 77,
      "start": 72.8908,
      "duration": 0.0146,
      "velocity": 99,
      "chip": "ym2612"
    },
    {
      "channel": 1,
      "note": 77,
      "start": 72.9047,
      "duration": 0.0145,
      "velocity": 99,
      "chip": "ym2612"
    },
    {
      "channel": 2,
      "note": 77,
      "start": 72.9054,
      "duration": 0.0148,
      "velocity": 99,
      "chip": "ym2612"
    },
    {
      "channel": 0,
      "note": 46,
      "start": 72.9191,
      "duration": 0.142,
      "velocity": 95,
      "chip": "ym2612"
    },
    {
      "channel": 1,
      "note": 78,
      "start": 72.9197,
      "duration": 0.3157,
      "velocity": 99,
      "chip": "ym2612"
    },
    {
      "channel": 2,
      "note": 77,
      "start": 72.9202,
      "duration": 0.0046,
      "velocity": 99,
      "chip": "ym2612"
    },
    {
      "channel": 3,
      "note": 70,
      "start": 72.9208,
      "duration": 0.3149,
      "velocity": 89,
      "chip": "ym2612"
    },
    {
      "channel": 4,
      "note": 65,
      "start": 72.9214,
      "duration": 0.3149,
      "velocity": 89,
      "chip": "ym2612"
    },
    {
      "channel": 2,
      "note": 77,
      "start": 72.9249,
      "duration": 0.0028,
      "velocity": 99,
      "chip": "ym2612"
    },
    {
      "channel": 2,
      "note": 77,
      "start": 72.9277,
      "duration": 0.0046,
      "velocity": 99,
      "chip": "ym2612"
    },
    {
      "channel": 2,
      "note": 77,
      "start": 72.9322,
      "duration": 0.0144,
      "velocity": 99,
      "chip": "ym2612"
    },
    {
      "channel": 2,
      "note": 77,
      "start": 72.9467,
      "duration": 0.0144,
      "velocity": 99,
      "chip": "ym2612"
    },
    {
      "channel": 2,
      "note": 77,
      "start": 72.9611,
      "duration": 0.0139,
      "velocity": 99,
      "chip": "ym2612"
    },
    {
      "channel": 2,
      "note": 78,
      "start": 72.9755,
      "duration": 0.279,
      "velocity": 99,
      "chip": "ym2612"
    },
    {
      "channel": 0,
      "note": 46,
      "start": 73.0616,
      "duration": 0.1729,
      "velocity": 95,
      "chip": "ym2612"
    },
    {
      "channel": 0,
      "note": 46,
      "start": 73.2349,
      "duration": 0.0374,
      "velocity": 95,
      "chip": "ym2612"
    },
    {
      "channel": 1,
      "note": 78,
      "start": 73.2354,
      "duration": 0.0041,
      "velocity": 99,
      "chip": "ym2612"
    },
    {
      "channel": 3,
      "note": 70,
      "start": 73.2361,
      "duration": 0.0377,
      "velocity": 89,
      "chip": "ym2612"
    },
    {
      "channel": 4,
      "note": 65,
      "start": 73.2367,
      "duration": 0.0378,
      "velocity": 89,
      "chip": "ym2612"
    },
    {
      "channel": 1,
      "note": 78,
      "start": 73.2395,
      "duration": 0.003,
      "velocity": 99,
      "chip": "ym2612"
    },
    {
      "channel": 1,
      "note": 78,
      "start": 73.2424,
      "duration": 0.0025,
      "velocity": 99,
      "chip": "ym2612"
    },
    {
      "channel": 1,
      "note": 78,
      "start": 73.245,
      "duration": 0.0029,
      "velocity": 99,
      "chip": "ym2612"
    },
    {
      "channel": 1,
      "note": 78,
      "start": 73.2479,
      "duration": 0.0029,
      "velocity": 99,
      "chip": "ym2612"
    },
    {
      "channel": 1,
      "note": 78,
      "start": 73.2508,
      "duration": 0.003,
      "velocity": 99,
      "chip": "ym2612"
    },
    {
      "channel": 1,
      "note": 78,
      "start": 73.2538,
      "duration": 0.0034,
      "velocity": 99,
      "chip": "ym2612"
    },
    {
      "channel": 2,
      "note": 78,
      "start": 73.2545,
      "duration": 0.0033,
      "velocity": 99,
      "chip": "ym2612"
    },
    {
      "channel": 1,
      "note": 78,
      "start": 73.2572,
      "duration": 0.0032,
      "velocity": 99,
      "chip": "ym2612"
    },
    {
      "channel": 2,
      "note": 78,
      "start": 73.2578,
      "duration": 0.0033,
      "velocity": 99,
      "chip": "ym2612"
    },
    {
      "channel": 1,
      "note": 78,
      "start": 73.2605,
      "duration": 0.0034,
      "velocity": 99,
      "chip": "ym2612"
    },
    {
      "channel": 2,
      "note": 78,
      "start": 73.2611,
      "duration": 0.0034,
      "velocity": 99,
      "chip": "ym2612"
    },
    {
      "channel": 1,
      "note": 78,
      "start": 73.2638,
      "duration": 0.0032,
      "velocity": 99,
      "chip": "ym2612"
    },
    {
      "channel": 2,
      "note": 78,
      "start": 73.2644,
      "duration": 0.0032,
      "velocity": 99,
      "chip": "ym2612"
    },
    {
      "channel": 1,
      "note": 78,
      "start": 73.267,
      "duration": 0.0029,
      "velocity": 99,
      "chip": "ym2612"
    },
    {
      "channel": 2,
      "note": 78,
      "start": 73.2676,
      "duration": 0.0028,
      "velocity": 99,
      "chip": "ym2612"
    },
    {
      "channel": 1,
      "note": 78,
      "start": 73.2699,
      "duration": 0.0033,
      "velocity": 99,
      "chip": "ym2612"
    },
    {
      "channel": 2,
      "note": 78,
      "start": 73.2705,
      "duration": 0.0032,
      "velocity": 99,
      "chip": "ym2612"
    },
    {
      "channel": 0,
      "note": 46,
      "start": 73.2727,
      "duration": 0.1537,
      "velocity": 95,
      "chip": "ym2612"
    },
    {
      "channel": 1,
      "note": 78,
      "start": 73.2732,
      "duration": 0.0038,
      "velocity": 99,
      "chip": "ym2612"
    },
    {
      "channel": 2,
      "note": 78,
      "start": 73.2736,
      "duration": 0.004,
      "velocity": 99,
      "chip": "ym2612"
    },
    {
      "channel": 3,
      "note": 68,
      "start": 73.2743,
      "duration": 0.472,
      "velocity": 89,
      "chip": "ym2612"
    },
    {
      "channel": 4,
      "note": 63,
      "start": 73.2749,
      "duration": 0.472,
      "velocity": 89,
      "chip": "ym2612"
    },
    {
      "channel": 1,
      "note": 78,
      "start": 73.277,
      "duration": 0.0056,
      "velocity": 99,
      "chip": "ym2612"
    },
    {
      "channel": 2,
      "note": 78,
      "start": 73.2776,
      "duration": 0.0056,
      "velocity": 99,
      "chip": "ym2612"
    },
    {
      "channel": 1,
      "note": 78,
      "start": 73.2826,
      "duration": 0.0146,
      "velocity": 99,
      "chip": "ym2612"
    },
    {
      "channel": 2,
      "note": 78,
      "start": 73.2833,
      "duration": 0.0146,
      "velocity": 99,
      "chip": "ym2612"
    },
    {
      "channel": 1,
      "note": 78,
      "start": 73.2971,
      "duration": 0.0145,
      "velocity": 99,
      "chip": "ym2612"
    },
    {
      "channel": 2,
      "note": 78,
      "start": 73.2978,
      "duration": 0.0143,
      "velocity": 99,
      "chip": "ym2612"
    },
    {
      "channel": 1,
      "note": 78,
      "start": 73.3117,
      "duration": 0.0144,
      "velocity": 99,
      "chip": "ym2612"
    },
    {
      "channel": 2,
      "note": 78,
      "start": 73.3122,
      "duration": 0.0146,
      "velocity": 99,
      "chip": "ym2612"
    },
    {
      "channel": 1,
      "note": 78,
      "start": 73.3261,
      "duration": 0.0144,
      "velocity": 99,
      "chip": "ym2612"
    },
    {
      "channel": 2,
      "note": 78,
      "start": 73.3268,
      "duration": 0.0144,
      "velocity": 99,
      "chip": "ym2612"
    },
    {
      "channel": 1,
      "note": 78,
      "start": 73.3405,
      "duration": 0.0143,
      "velocity": 99,
      "chip": "ym2612"
    },
    {
      "channel": 2,
      "note": 78,
      "start": 73.3412,
      "duration": 0.0143,
      "velocity": 99,
      "chip": "ym2612"
    },
    {
      "channel": 1,
      "note": 78,
      "start": 73.3548,
      "duration": 0.0146,
      "velocity": 99,
      "chip": "ym2612"
    },
    {
      "channel": 2,
      "note": 78,
      "start": 73.3555,
      "duration": 0.0145,
      "velocity": 99,
      "chip": "ym2612"
    },
    {
      "channel": 1,
      "note": 78,
      "start": 73.3694,
      "duration": 0.0144,
      "velocity": 99,
      "chip": "ym2612"
    },
    {
      "channel": 2,
      "note": 78,
      "start": 73.37,
      "duration": 0.0146,
      "velocity": 99,
      "chip": "ym2612"
    },
    {
      "channel": 1,
      "note": 78,
      "start": 73.3839,
      "duration": 0.0144,
      "velocity": 99,
      "chip": "ym2612"
    },
    {
      "channel": 2,
      "note": 78,
      "start": 73.3846,
      "duration": 0.0144,
      "velocity": 99,
      "chip": "ym2612"
    },
    {
      "channel": 1,
      "note": 78,
      "start": 73.3983,
      "duration": 0.0143,
      "velocity": 99,
      "chip": "ym2612"
    },
    {
      "channel": 2,
      "note": 78,
      "start": 73.399,
      "duration": 0.0143,
      "velocity": 99,
      "chip": "ym2612"
    },
    {
      "channel": 1,
      "note": 78,
      "start": 73.4126,
      "duration": 0.0147,
      "velocity": 99,
      "chip": "ym2612"
    },
    {
      "channel": 2,
      "note": 78,
      "start": 73.4133,
      "duration": 0.0144,
      "velocity": 99,
      "chip": "ym2612"
    },
    {
      "channel": 0,
      "note": 46,
      "start": 73.4268,
      "duration": 0.1424,
      "velocity": 95,
      "chip": "ym2612"
    },
    {
      "channel": 1,
      "note": 78,
      "start": 73.4273,
      "duration": 0.0036,
      "velocity": 99,
      "chip": "ym2612"
    },
    {
      "channel": 2,
      "note": 78,
      "start": 73.4277,
      "duration": 0.0037,
      "velocity": 99,
      "chip": "ym2612"
    },
    {
      "channel": 1,
      "note": 78,
      "start": 73.4309,
      "duration": 0.0028,
      "velocity": 99,
      "chip": "ym2612"
    },
    {
      "channel": 2,
      "note": 78,
      "start": 73.4315,
      "duration": 0.0029,
      "velocity": 99,
      "chip": "ym2612"
    },
    {
      "channel": 1,
      "note": 78,
      "start": 73.4337,
      "duration": 0.0063,
      "velocity": 99,
      "chip": "ym2612"
    },
    {
      "channel": 2,
      "note": 78,
      "start": 73.4344,
      "duration": 0.0062,
      "velocity": 99,
      "chip": "ym2612"
    },
    {
      "channel": 1,
      "note": 78,
      "start": 73.44,
      "duration": 0.0143,
      "velocity": 99,
      "chip": "ym2612"
    },
    {
      "channel": 2,
      "note": 78,
      "start": 73.4406,
      "duration": 0.0143,
      "velocity": 99,
      "chip": "ym2612"
    },
    {
      "channel": 1,
      "note": 78,
      "start": 73.4543,
      "duration": 0.0146,
      "velocity": 99,
      "chip": "ym2612"
    },
    {
      "channel": 2,
      "note": 78,
      "start": 73.455,
      "duration": 0.0144,
      "velocity": 99,
      "chip": "ym2612"
    },
    {
      "channel": 1,
      "note": 78,
      "start": 73.4688,
      "duration": 0.0144,
      "velocity": 99,
      "chip": "ym2612"
    },
    {
      "channel": 2,
      "note": 78,
      "start": 73.4694,
      "duration": 0.0146,
      "velocity": 99,
      "chip": "ym2612"
    },
    {
      "channel": 1,
      "note": 78,
      "start": 73.4833,
      "duration": 0.0144,
      "velocity": 99,
      "chip": "ym2612"
    },
    {
      "channel": 2,
      "note": 78,
      "start": 73.484,
      "duration": 0.0144,
      "velocity": 99,
      "chip": "ym2612"
    },
    {
      "channel": 1,
      "note": 78,
      "start": 73.4977,
      "duration": 0.0144,
      "velocity": 99,
      "chip": "ym2612"
    },
    {
      "channel": 2,
      "note": 78,
      "start": 73.4984,
      "duration": 0.0144,
      "velocity": 99,
      "chip": "ym2612"
    },
    {
      "channel": 1,
      "note": 78,
      "start": 73.5121,
      "duration": 0.0146,
      "velocity": 99,
      "chip": "ym2612"
    },
    {
      "channel": 2,
      "note": 78,
      "start": 73.5128,
      "duration": 0.0146,
      "velocity": 99,
      "chip": "ym2612"
    },
    {
      "channel": 1,
      "note": 78,
      "start": 73.5266,
      "duration": 0.0144,
      "velocity": 99,
      "chip": "ym2612"
    },
    {
      "channel": 2,
      "note": 78,
      "start": 73.5273,
      "duration": 0.0143,
      "velocity": 99,
      "chip": "ym2612"
    },
    {
      "channel": 1,
      "note": 78,
      "start": 73.5411,
      "duration": 0.0144,
      "velocity": 99,
      "chip": "ym2612"
    },
    {
      "channel": 2,
      "note": 78,
      "start": 73.5416,
      "duration": 0.0146,
      "velocity": 99,
      "chip": "ym2612"
    },
    {
      "channel": 1,
      "note": 78,
      "start": 73.5555,
      "duration": 0.0146,
      "velocity": 99,
      "chip": "ym2612"
    },
    {
      "channel": 2,
      "note": 78,
      "start": 73.5562,
      "duration": 0.0144,
      "velocity": 99,
      "chip": "ym2612"
    },
    {
      "channel": 0,
      "note": 46,
      "start": 73.5696,
      "duration": 0.173,
      "velocity": 95,
      "chip": "ym2612"
    },
    {
      "channel": 1,
      "note": 78,
      "start": 73.5701,
      "duration": 0.0142,
      "velocity": 99,
      "chip": "ym2612"
    },
    {
      "channel": 2,
      "note": 78,
      "start": 73.5705,
      "duration": 0.0144,
      "velocity": 99,
      "chip": "ym2612"
    },
    {
      "channel": 1,
      "note": 78,
      "start": 73.5843,
      "duration": 0.0146,
      "velocity": 99,
      "chip": "ym2612"
    },
    {
      "channel": 2,
      "note": 78,
      "start": 73.585,
      "duration": 0.0144,
      "velocity": 99,
      "chip": "ym2612"
    },
    {
      "channel": 1,
      "note": 78,
      "start": 73.5988,
      "duration": 0.0144,
      "velocity": 99,
      "chip": "ym2612"
    },
    {
      "channel": 2,
      "note": 78,
      "start": 73.5994,
      "duration": 0.0146,
      "velocity": 99,
      "chip": "ym2612"
    },
    {
      "channel": 1,
      "note": 78,
      "start": 73.6133,
      "duration": 0.0145,
      "velocity": 99,
      "chip": "ym2612"
    },
    {
      "channel": 2,
      "note": 78,
      "start": 73.614,
      "duration": 0.0145,
      "velocity": 99,
      "chip": "ym2612"
    },
    {
      "channel": 1,
      "note": 78,
      "start": 73.6278,
      "duration": 0.0143,
      "velocity": 99,
      "chip": "ym2612"
    },
    {
      "channel": 2,
      "note": 78,
      "start": 73.6285,
      "duration": 0.0143,
      "velocity": 99,
      "chip": "ym2612"
    },
    {
      "channel": 1,
      "note": 78,
      "start": 73.6421,
      "duration": 0.0146,
      "velocity": 99,
      "chip": "ym2612"
    },
    {
      "channel": 2,
      "note": 78,
      "start": 73.6428,
      "duration": 0.0146,
      "velocity": 99,
      "chip": "ym2612"
    },
    {
      "channel": 1,
      "note": 78,
      "start": 73.6567,
      "duration": 0.0144,
      "velocity": 99,
      "chip": "ym2612"
    },
    {
      "channel": 2,
      "note": 78,
      "start": 73.6574,
      "duration": 0.0143,
      "velocity": 99,
      "chip": "ym2612"
    },
    {
      "channel": 1,
      "note": 78,
      "start": 73.6711,
      "duration": 0.0144,
      "velocity": 99,
      "chip": "ym2612"
    },
    {
      "channel": 2,
      "note": 78,
      "start": 73.6716,
      "duration": 0.0146,
      "velocity": 99,
      "chip": "ym2612"
    },
    {
      "channel": 1,
      "note": 78,
      "start": 73.6856,
      "duration": 0.0144,
      "velocity": 99,
      "chip": "ym2612"
    },
    {
      "channel": 2,
      "note": 78,
      "start": 73.6863,
      "duration": 0.0144,
      "velocity": 99,
      "chip": "ym2612"
    },
    {
      "channel": 1,
      "note": 78,
      "start": 73.7,
      "duration": 0.0143,
      "velocity": 99,
      "chip": "ym2612"
    },
    {
      "channel": 2,
      "note": 78,
      "start": 73.7007,
      "duration": 0.0142,
      "velocity": 99,
      "chip": "ym2612"
    },
    {
      "channel": 1,
      "note": 78,
      "start": 73.7143,
      "duration": 0.0146,
      "velocity": 99,
      "chip": "ym2612"
    },
    {
      "channel": 2,
      "note": 78,
      "start": 73.7149,
      "duration": 0.0145,
      "velocity": 99,
      "chip": "ym2612"
    },
    {
      "channel": 1,
      "note": 78,
      "start": 73.7289,
      "duration": 0.0161,
      "velocity": 103,
      "chip": "ym2612"
    },
    {
      "channel": 2,
      "note": 78,
      "start": 73.7295,
      "duration": 0.0165,
      "velocity": 99,
      "chip": "ym2612"
    },
    {
      "channel": 0,
      "note": 46,
      "start": 73.743,
      "duration": 0.0361,
      "velocity": 95,
      "chip": "ym2612"
    },
    {
      "channel": 1,
      "note": 71,
      "start": 73.7454,
      "duration": 0.0343,
      "velocity": 103,
      "chip": "ym2612"
    },
    {
      "channel": 2,
      "note": 78,
      "start": 73.7459,
      "duration": 0.0041,
      "velocity": 99,
      "chip": "ym2612"
    },
    {
      "channel": 3,
      "note": 71,
      "start": 73.7466,
      "duration": 0.0339,
      "velocity": 89,
      "chip": "ym2612"
    },
    {
      "channel": 4,
      "note": 68,
      "start": 73.7474,
      "duration": 0.189,
      "velocity": 89,
      "chip": "ym2612"
    },
    {
      "channel": 2,
      "note": 78,
      "start": 73.75,
      "duration": 0.0028,
      "velocity": 99,
      "chip": "ym2612"
    },
    {
      "channel": 2,
      "note": 78,
      "start": 73.7529,
      "duration": 0.0029,
      "velocity": 99,
      "chip": "ym2612"
    },
    {
      "channel": 2,
      "note": 78,
      "start": 73.7557,
      "duration": 0.0027,
      "velocity": 99,
      "chip": "ym2612"
    },
    {
      "channel": 2,
      "note": 78,
      "start": 73.7585,
      "duration": 0.0029,
      "velocity": 99,
      "chip": "ym2612"
    },
    {
      "channel": 2,
      "note": 78,
      "start": 73.7613,
      "duration": 0.0042,
      "velocity": 103,
      "chip": "ym2612"
    },
    {
      "channel": 2,
      "note": 71,
      "start": 73.766,
      "duration": 0.0821,
      "velocity": 103,
      "chip": "ym2612"
    },
    {
      "channel": 0,
      "note": 46,
      "start": 73.7796,
      "duration": 0.1549,
      "velocity": 95,
      "chip": "ym2612"
    },
    {
      "channel": 1,
      "note": 73,
      "start": 73.7801,
      "duration": 0.1549,
      "velocity": 103,
      "chip": "ym2612"
    },
    {
      "channel": 3,
      "note": 73,
      "start": 73.7809,
      "duration": 0.1549,
      "velocity": 89,
      "chip": "ym2612"
    },
    {
      "channel": 2,
      "note": 73,
      "start": 73.8485,
      "duration": 0.1423,
      "velocity": 103,
      "chip": "ym2612"
    },
    {
      "channel": 0,
      "note": 46,
      "start": 73.9349,
      "duration": 0.142,
      "velocity": 95,
      "chip": "ym2612"
    },
    {
      "channel": 1,
      "note": 75,
      "start": 73.9355,
      "duration": 0.1421,
      "velocity": 103,
      "chip": "ym2612"
    },
    {
      "channel": 3,
      "note": 75,
      "start": 73.9362,
      "duration": 0.1421,
      "velocity": 89,
      "chip": "ym2612"
    },
    {
      "channel": 4,
      "note": 71,
      "start": 73.9369,
      "duration": 0.1421,
      "velocity": 89,
      "chip": "ym2612"
    },
    {
      "channel": 2,
      "note": 75,
      "start": 73.9913,
      "duration": 0.1728,
      "velocity": 103,
      "chip": "ym2612"
    },
    {
      "channel": 0,
      "note": 46,
      "start": 74.0773,
      "duration": 0.1729,
      "velocity": 95,
      "chip": "ym2612"
    },
    {
      "channel": 1,
      "note": 71,
      "start": 74.078,
      "duration": 0.1729,
      "velocity": 103,
      "chip": "ym2612"
    },
    {
      "channel": 3,
      "note": 71,
      "start": 74.0788,
      "duration": 0.1729,
      "velocity": 89,
      "chip": "ym2612"
    },
    {
      "channel": 4,
      "note": 68,
      "start": 74.0793,
      "duration": 0.173,
      "velocity": 89,
      "chip": "ym2612"
    },
    {
      "channel": 2,
      "note": 71,
      "start": 74.1646,
      "duration": 0.1014,
      "velocity": 103,
      "chip": "ym2612"
    },
    {
      "channel": 0,
      "note": 46,
      "start": 74.2507,
      "duration": 0.0278,
      "velocity": 95,
      "chip": "ym2612"
    },
    {
      "channel": 1,
      "note": 68,
      "start": 74.2513,
      "duration": 0.0279,
      "velocity": 103,
      "chip": "ym2612"
    },
    {
      "channel": 3,
      "note": 68,
      "start": 74.2521,
      "duration": 0.0279,
      "velocity": 89,
      "chip": "ym2612"
    },
    {
      "channel": 2,
      "note": 68,
      "start": 74.2664,
      "duration": 0.0896,
      "velocity": 103,
      "chip": "ym2612"
    },
    {
      "channel": 0,
      "note": 46,
      "start": 74.279,
      "duration": 0.1631,
      "velocity": 95,
      "chip": "ym2612"
    },
    {
      "channel": 1,
      "note": 77,
      "start": 74.2797,
      "duration": 0.3058,
      "velocity": 103,
      "chip": "ym2612"
    },
    {
      "channel": 3,
      "note": 77,
      "start": 74.2804,
      "duration": 0.3058,
      "velocity": 89,
      "chip": "ym2612"
    },
    {
      "channel": 4,
      "note": 73,
      "start": 74.281,
      "duration": 0.3059,
      "velocity": 89,
      "chip": "ym2612"
    },
    {
      "channel": 2,
      "note": 77,
      "start": 74.3565,
      "duration": 0.3156,
      "velocity": 103,
      "chip": "ym2612"
    },
    {
      "channel": 0,
      "note": 46,
      "start": 74.4425,
      "duration": 0.1423,
      "velocity": 95,
      "chip": "ym2612"
    },
    {
      "channel": 0,
      "note": 46,
      "start": 74.5853,
      "duration": 0.1729,
      "velocity": 95,
      "chip": "ym2612"
    },
    {
      "channel": 1,
      "note": 73,
      "start": 74.5859,
      "duration": 0.1729,
      "velocity": 103,
      "chip": "ym2612"
    },
    {
      "channel": 3,
      "note": 73,
      "start": 74.5867,
      "duration": 0.1728,
      "velocity": 89,
      "chip": "ym2612"
    },
    {
      "channel": 4,
      "note": 68,
      "start": 74.5872,
      "duration": 0.173,
      "velocity": 89,
      "chip": "ym2612"
    },
    {
      "channel": 2,
      "note": 73,
      "start": 74.6725,
      "duration": 0.1024,
      "velocity": 103,
      "chip": "ym2612"
    },
    {
      "channel": 0,
      "note": 46,
      "start": 74.7586,
      "duration": 0.0303,
      "velocity": 95,
      "chip": "ym2612"
    },
    {
      "channel": 1,
      "note": 68,
      "start": 74.7592,
      "duration": 0.1934,
      "velocity": 99,
      "chip": "ym2612"
    },
    {
      "channel": 3,
      "note": 68,
      "start": 74.76,
      "duration": 0.1936,
      "velocity": 89,
      "chip": "ym2612"
    },
    {
      "channel": 4,
      "note": 65,
      "start": 74.7607,
      "duration": 0.1936,
      "velocity": 89,
      "chip": "ym2612"
    },
    {
      "channel": 2,
      "note": 68,
      "start": 74.7753,
      "duration": 0.233,
      "velocity": 99,
      "chip": "ym2612"
    },
    {
      "channel": 0,
      "note": 46,
      "start": 74.7893,
      "duration": 0.1608,
      "velocity": 95,
      "chip": "ym2612"
    },
    {
      "channel": 0,
      "note": 51,
      "start": 74.9505,
      "duration": 0.142,
      "velocity": 95,
      "chip": "ym2612"
    },
    {
      "channel": 1,
      "note": 82,
      "start": 74.953,
      "duration": 0.3138,
      "velocity": 99,
      "chip": "ym2612"
    },
    {
      "channel": 3,
      "note": 70,
      "start": 74.9539,
      "duration": 1.0134,
      "velocity": 89,
      "chip": "ym2612"
    },
    {
      "channel": 4,
      "note": 66,
      "start": 74.9546,
      "duration": 1.0133,
      "velocity": 89,
      "chip": "ym2612"
    },
    {
      "channel": 2,
      "note": 82,
      "start": 75.0088,
      "duration": 0.2763,
      "velocity": 99,
      "chip": "ym2612"
    },
    {
      "channel": 0,
      "note": 51,
      "start": 75.093,
      "duration": 0.173,
      "velocity": 95,
      "chip": "ym2612"
    },
    {
      "channel": 0,
      "note": 51,
      "start": 75.2663,
      "duration": 0.0366,
      "velocity": 95,
      "chip": "ym2612"
    },
    {
      "channel": 1,
      "note": 82,
      "start": 75.2668,
      "duration": 0.0031,
      "velocity": 99,
      "chip": "ym2612"
    },
    {
      "channel": 1,
      "note": 82,
      "start": 75.2699,
      "duration": 0.0029,
      "velocity": 99,
      "chip": "ym2612"
    },
    {
      "channel": 1,
      "note": 82,
      "start": 75.2728,
      "duration": 0.0026,
      "velocity": 99,
      "chip": "ym2612"
    },
    {
      "channel": 1,
      "note": 82,
      "start": 75.2754,
      "duration": 0.003,
      "velocity": 99,
      "chip": "ym2612"
    },
    {
      "channel": 1,
      "note": 82,
      "start": 75.2784,
      "duration": 0.0029,
      "velocity": 99,
      "chip": "ym2612"
    },
    {
      "channel": 1,
      "note": 82,
      "start": 75.2813,
      "duration": 0.0031,
      "velocity": 99,
      "chip": "ym2612"
    },
    {
      "channel": 1,
      "note": 82,
      "start": 75.2843,
      "duration": 0.0034,
      "velocity": 99,
      "chip": "ym2612"
    },
    {
      "channel": 2,
      "note": 82,
      "start": 75.285,
      "duration": 0.0032,
      "velocity": 99,
      "chip": "ym2612"
    },
    {
      "channel": 1,
      "note": 82,
      "start": 75.2877,
      "duration": 0.0032,
      "velocity": 99,
      "chip": "ym2612"
    },
    {
      "channel": 2,
      "note": 82,
      "start": 75.2883,
      "duration": 0.0033,
      "velocity": 99,
      "chip": "ym2612"
    },
    {
      "channel": 1,
      "note": 82,
      "start": 75.291,
      "duration": 0.0034,
      "velocity": 99,
      "chip": "ym2612"
    },
    {
      "channel": 2,
      "note": 82,
      "start": 75.2916,
      "duration": 0.0034,
      "velocity": 99,
      "chip": "ym2612"
    },
    {
      "channel": 1,
      "note": 82,
      "start": 75.2943,
      "duration": 0.0032,
      "velocity": 99,
      "chip": "ym2612"
    },
    {
      "channel": 2,
      "note": 82,
      "start": 75.2949,
      "duration": 0.0032,
      "velocity": 99,
      "chip": "ym2612"
    },
    {
      "channel": 1,
      "note": 82,
      "start": 75.2976,
      "duration": 0.0029,
      "velocity": 99,
      "chip": "ym2612"
    },
    {
      "channel": 2,
      "note": 82,
      "start": 75.2982,
      "duration": 0.0028,
      "velocity": 99,
      "chip": "ym2612"
    },
    {
      "channel": 1,
      "note": 82,
      "start": 75.3004,
      "duration": 0.0034,
      "velocity": 99,
      "chip": "ym2612"
    },
    {
      "channel": 2,
      "note": 82,
      "start": 75.301,
      "duration": 0.0032,
      "velocity": 99,
      "chip": "ym2612"
    },
    {
      "channel": 0,
      "note": 51,
      "start": 75.3033,
      "duration": 0.1543,
      "velocity": 95,
      "chip": "ym2612"
    },
    {
      "channel": 1,
      "note": 82,
      "start": 75.3038,
      "duration": 0.0029,
      "velocity": 99,
      "chip": "ym2612"
    },
    {
      "channel": 2,
      "note": 82,
      "start": 75.3042,
      "duration": 0.0032,
      "velocity": 99,
      "chip": "ym2612"
    },
    {
      "channel": 1,
      "note": 82,
      "start": 75.3067,
      "duration": 0.0071,
      "velocity": 99,
      "chip": "ym2612"
    },
    {
      "channel": 2,
      "note": 82,
      "start": 75.3074,
      "duration": 0.007,
      "velocity": 99,
      "chip": "ym2612"
    },
    {
      "channel": 1,
      "note": 82,
      "start": 75.3138,
      "duration": 0.0146,
      "velocity": 99,
      "chip": "ym2612"
    },
    {
      "channel": 2,
      "note": 82,
      "start": 75.3145,
      "duration": 0.0146,
      "velocity": 99,
      "chip": "ym2612"
    },
    {
      "channel": 1,
      "note": 82,
      "start": 75.3284,
      "duration": 0.0144,
      "velocity": 99,
      "chip": "ym2612"
    },
    {
      "channel": 2,
      "note": 82,
      "start": 75.329,
      "duration": 0.0143,
      "velocity": 99,
      "chip": "ym2612"
    },
    {
      "channel": 1,
      "note": 82,
      "start": 75.3428,
      "duration": 0.0145,
      "velocity": 99,
      "chip": "ym2612"
    },
    {
      "channel": 2,
      "note": 82,
      "start": 75.3434,
      "duration": 0.0146,
      "velocity": 99,
      "chip": "ym2612"
    },
    {
      "channel": 1,
      "note": 82,
      "start": 75.3573,
      "duration": 0.0144,
      "velocity": 99,
      "chip": "ym2612"
    },
    {
      "channel": 2,
      "note": 82,
      "start": 75.358,
      "duration": 0.0144,
      "velocity": 99,
      "chip": "ym2612"
    },
    {
      "channel": 1,
      "note": 82,
      "start": 75.3717,
      "duration": 0.0142,
      "velocity": 99,
      "chip": "ym2612"
    },
    {
      "channel": 2,
      "note": 82,
      "start": 75.3724,
      "duration": 0.0143,
      "velocity": 99,
      "chip": "ym2612"
    },
    {
      "channel": 1,
      "note": 82,
      "start": 75.386,
      "duration": 0.0146,
      "velocity": 99,
      "chip": "ym2612"
    },
    {
      "channel": 2,
      "note": 82,
      "start": 75.3867,
      "duration": 0.0145,
      "velocity": 99,
      "chip": "ym2612"
    },
    {
      "channel": 1,
      "note": 82,
      "start": 75.4006,
      "duration": 0.0144,
      "velocity": 99,
      "chip": "ym2612"
    },
    {
      "channel": 2,
      "note": 82,
      "start": 75.4012,
      "duration": 0.0146,
      "velocity": 99,
      "chip": "ym2612"
    },
    {
      "channel": 1,
      "note": 82,
      "start": 75.4151,
      "duration": 0.0144,
      "velocity": 99,
      "chip": "ym2612"
    },
    {
      "channel": 2,
      "note": 82,
      "start": 75.4157,
      "duration": 0.0144,
      "velocity": 99,
      "chip": "ym2612"
    },
    {
      "channel": 1,
      "note": 82,
      "start": 75.4295,
      "duration": 0.0143,
      "velocity": 99,
      "chip": "ym2612"
    },
    {
      "channel": 2,
      "note": 82,
      "start": 75.4302,
      "duration": 0.0143,
      "velocity": 99,
      "chip": "ym2612"
    },
    {
      "channel": 1,
      "note": 82,
      "start": 75.4438,
      "duration": 0.0147,
      "velocity": 99,
      "chip": "ym2612"
    },
    {
      "channel": 2,
      "note": 82,
      "start": 75.4445,
      "duration": 0.0145,
      "velocity": 99,
      "chip": "ym2612"
    },
    {
      "channel": 0,
      "note": 51,
      "start": 75.458,
      "duration": 0.1423,
      "velocity": 95,
      "chip": "ym2612"
    },
    {
      "channel": 1,
      "note": 82,
      "start": 75.4585,
      "duration": 0.0037,
      "velocity": 99,
      "chip": "ym2612"
    },
    {
      "channel": 2,
      "note": 82,
      "start": 75.459,
      "duration": 0.0037,
      "velocity": 99,
      "chip": "ym2612"
    },
    {
      "channel": 1,
      "note": 82,
      "start": 75.4622,
      "duration": 0.0028,
      "velocity": 99,
      "chip": "ym2612"
    },
    {
      "channel": 2,
      "note": 82,
      "start": 75.4627,
      "duration": 0.003,
      "velocity": 99,
      "chip": "ym2612"
    },
    {
      "channel": 1,
      "note": 82,
      "start": 75.4649,
      "duration": 0.0061,
      "velocity": 99,
      "chip": "ym2612"
    },
    {
      "channel": 2,
      "note": 82,
      "start": 75.4656,
      "duration": 0.0061,
      "velocity": 99,
      "chip": "ym2612"
    },
    {
      "channel": 1,
      "note": 82,
      "start": 75.4711,
      "duration": 0.0143,
      "velocity": 99,
      "chip": "ym2612"
    },
    {
      "channel": 2,
      "note": 82,
      "start": 75.4718,
      "duration": 0.0143,
      "velocity": 99,
      "chip": "ym2612"
    },
    {
      "channel": 1,
      "note": 82,
      "start": 75.4854,
      "duration": 0.0146,
      "velocity": 99,
      "chip": "ym2612"
    },
    {
      "channel": 2,
      "note": 82,
      "start": 75.4861,
      "duration": 0.0144,
      "velocity": 99,
      "chip": "ym2612"
    },
    {
      "channel": 1,
      "note": 82,
      "start": 75.5,
      "duration": 0.0145,
      "velocity": 99,
      "chip": "ym2612"
    },
    {
      "channel": 2,
      "note": 82,
      "start": 75.5005,
      "duration": 0.0146,
      "velocity": 99,
      "chip": "ym2612"
    },
    {
      "channel": 1,
      "note": 82,
      "start": 75.5145,
      "duration": 0.0144,
      "velocity": 99,
      "chip": "ym2612"
    },
    {
      "channel": 2,
      "note": 82,
      "start": 75.5152,
      "duration": 0.0144,
      "velocity": 99,
      "chip": "ym2612"
    },
    {
      "channel": 1,
      "note": 82,
      "start": 75.5289,
      "duration": 0.0143,
      "velocity": 99,
      "chip": "ym2612"
    },
    {
      "channel": 2,
      "note": 82,
      "start": 75.5296,
      "duration": 0.0143,
      "velocity": 99,
      "chip": "ym2612"
    },
    {
      "channel": 1,
      "note": 82,
      "start": 75.5432,
      "duration": 0.0146,
      "velocity": 99,
      "chip": "ym2612"
    },
    {
      "channel": 2,
      "note": 82,
      "start": 75.5439,
      "duration": 0.0146,
      "velocity": 99,
      "chip": "ym2612"
    },
    {
      "channel": 1,
      "note": 82,
      "start": 75.5578,
      "duration": 0.0144,
      "velocity": 99,
      "chip": "ym2612"
    },
    {
      "channel": 2,
      "note": 82,
      "start": 75.5585,
      "duration": 0.0142,
      "velocity": 99,
      "chip": "ym2612"
    },
    {
      "channel": 1,
      "note": 82,
      "start": 75.5722,
      "duration": 0.0145,
      "velocity": 99,
      "chip": "ym2612"
    },
    {
      "channel": 2,
      "note": 82,
      "start": 75.5727,
      "duration": 0.0146,
      "velocity": 99,
      "chip": "ym2612"
    },
    {
      "channel": 1,
      "note": 82,
      "start": 75.5868,
      "duration": 0.0145,
      "velocity": 99,
      "chip": "ym2612"
    },
    {
      "channel": 2,
      "note": 82,
      "start": 75.5874,
      "duration": 0.0144,
      "velocity": 99,
      "chip": "ym2612"
    },
    {
      "channel": 0,
      "note": 51,
      "start": 75.6008,
      "duration": 0.1729,
      "velocity": 95,
      "chip": "ym2612"
    },
    {
      "channel": 1,
      "note": 82,
      "start": 75.6012,
      "duration": 0.0142,
      "velocity": 99,
      "chip": "ym2612"
    },
    {
      "channel": 2,
      "note": 82,
      "start": 75.6018,
      "duration": 0.0144,
      "velocity": 99,
      "chip": "ym2612"
    },
    {
      "channel": 1,
      "note": 82,
      "start": 75.6154,
      "duration": 0.0146,
      "velocity": 99,
      "chip": "ym2612"
    },
    {
      "channel": 2,
      "note": 82,
      "start": 75.6161,
      "duration": 0.0144,
      "velocity": 99,
      "chip": "ym2612"
    },
    {
      "channel": 1,
      "note": 82,
      "start": 75.6301,
      "duration": 0.0144,
      "velocity": 99,
      "chip": "ym2612"
    },
    {
      "channel": 2,
      "note": 82,
      "start": 75.6306,
      "duration": 0.0146,
      "velocity": 99,
      "chip": "ym2612"
    },
    {
      "channel": 1,
      "note": 82,
      "start": 75.6444,
      "duration": 0.0144,
      "velocity": 99,
      "chip": "ym2612"
    },
    {
      "channel": 2,
      "note": 82,
      "start": 75.6451,
      "duration": 0.0144,
      "velocity": 99,
      "chip": "ym2612"
    },
    {
      "channel": 1,
      "note": 82,
      "start": 75.6589,
      "duration": 0.0143,
      "velocity": 99,
      "chip": "ym2612"
    },
    {
      "channel": 2,
      "note": 82,
      "start": 75.6596,
      "duration": 0.0143,
      "velocity": 99,
      "chip": "ym2612"
    },
    {
      "channel": 1,
      "note": 82,
      "start": 75.6732,
      "duration": 0.0146,
      "velocity": 99,
      "chip": "ym2612"
    },
    {
      "channel": 2,
      "note": 82,
      "start": 75.6739,
      "duration": 0.0146,
      "velocity": 99,
      "chip": "ym2612"
    },
    {
      "channel": 1,
      "note": 82,
      "start": 75.6878,
      "duration": 0.0144,
      "velocity": 99,
      "chip": "ym2612"
    },
    {
      "channel": 2,
      "note": 82,
      "start": 75.6885,
      "duration": 0.0143,
      "velocity": 99,
      "chip": "ym2612"
    },
    {
      "channel": 1,
      "note": 82,
      "start": 75.7023,
      "duration": 0.0144,
      "velocity": 99,
      "chip": "ym2612"
    },
    {
      "channel": 2,
      "note": 82,
      "start": 75.7028,
      "duration": 0.0146,
      "velocity": 99,
      "chip": "ym2612"
    },
    {
      "channel": 1,
      "note": 82,
      "start": 75.7167,
      "duration": 0.0144,
      "velocity": 99,
      "chip": "ym2612"
    },
    {
      "channel": 2,
      "note": 82,
      "start": 75.7174,
      "duration": 0.0144,
      "velocity": 99,
      "chip": "ym2612"
    },
    {
      "channel": 1,
      "note": 82,
      "start": 75.7312,
      "duration": 0.0143,
      "velocity": 99,
      "chip": "ym2612"
    },
    {
      "channel": 2,
      "note": 82,
      "start": 75.7319,
      "duration": 0.0142,
      "velocity": 99,
      "chip": "ym2612"
    },
    {
      "channel": 1,
      "note": 82,
      "start": 75.7455,
      "duration": 0.0146,
      "velocity": 99,
      "chip": "ym2612"
    },
    {
      "channel": 2,
      "note": 82,
      "start": 75.7461,
      "duration": 0.0145,
      "velocity": 99,
      "chip": "ym2612"
    },
    {
      "channel": 1,
      "note": 82,
      "start": 75.76,
      "duration": 0.0146,
      "velocity": 99,
      "chip": "ym2612"
    },
    {
      "channel": 2,
      "note": 82,
      "start": 75.7606,
      "duration": 0.0145,
      "velocity": 99,
      "chip": "ym2612"
    },
    {
      "channel": 0,
      "note": 51,
      "start": 75.7741,
      "duration": 0.039,
      "velocity": 95,
      "chip": "ym2612"
    },
    {
      "channel": 1,
      "note": 82,
      "start": 75.7746,
      "duration": 0.0032,
      "velocity": 99,
      "chip": "ym2612"
    },
    {
      "channel": 2,
      "note": 82,
      "start": 75.7751,
      "duration": 0.0034,
      "velocity": 99,
      "chip": "ym2612"
    },
    {
      "channel": 1,
      "note": 82,
      "start": 75.7778,
      "duration": 0.0033,
      "velocity": 99,
      "chip": "ym2612"
    },
    {
      "channel": 2,
      "note": 82,
      "start": 75.7785,
      "duration": 0.0033,
      "velocity": 99,
      "chip": "ym2612"
    },
    {
      "channel": 1,
      "note": 82,
      "start": 75.7811,
      "duration": 0.0034,
      "velocity": 99,
      "chip": "ym2612"
    },
    {
      "channel": 2,
      "note": 82,
      "start": 75.7818,
      "duration": 0.0034,
      "velocity": 99,
      "chip": "ym2612"
    },
    {
      "channel": 1,
      "note": 82,
      "start": 75.7845,
      "duration": 0.0034,
      "velocity": 99,
      "chip": "ym2612"
    },
    {
      "channel": 2,
      "note": 82,
      "start": 75.7852,
      "duration": 0.0032,
      "velocity": 99,
      "chip": "ym2612"
    },
    {
      "channel": 1,
      "note": 82,
      "start": 75.788,
      "duration": 0.0033,
      "velocity": 99,
      "chip": "ym2612"
    },
    {
      "channel": 2,
      "note": 82,
      "start": 75.7885,
      "duration": 0.0034,
      "velocity": 99,
      "chip": "ym2612"
    },
    {
      "channel": 1,
      "note": 82,
      "start": 75.7912,
      "duration": 0.0034,
      "velocity": 99,
      "chip": "ym2612"
    },
    {
      "channel": 2,
      "note": 82,
      "start": 75.7919,
      "duration": 0.0034,
      "velocity": 99,
      "chip": "ym2612"
    },
    {
      "channel": 1,
      "note": 82,
      "start": 75.7946,
      "duration": 0.0032,
      "velocity": 99,
      "chip": "ym2612"
    },
    {
      "channel": 2,
      "note": 82,
      "start": 75.7952,
      "duration": 0.0032,
      "velocity": 99,
      "chip": "ym2612"
    },
    {
      "channel": 1,
      "note": 82,
      "start": 75.7978,
      "duration": 0.0033,
      "velocity": 99,
      "chip": "ym2612"
    },
    {
      "channel": 2,
      "note": 82,
      "start": 75.7984,
      "duration": 0.0032,
      "velocity": 99,
      "chip": "ym2612"
    },
    {
      "channel": 1,
      "note": 82,
      "start": 75.8011,
      "duration": 0.0028,
      "velocity": 99,
      "chip": "ym2612"
    },
    {
      "channel": 2,
      "note": 82,
      "start": 75.8017,
      "duration": 0.0029,
      "velocity": 99,
      "chip": "ym2612"
    },
    {
      "channel": 1,
      "note": 82,
      "start": 75.8039,
      "duration": 0.0034,
      "velocity": 99,
      "chip": "ym2612"
    },
    {
      "channel": 2,
      "note": 82,
      "start": 75.8046,
      "duration": 0.0034,
      "velocity": 99,
      "chip": "ym2612"
    },
    {
      "channel": 1,
      "note": 82,
      "start": 75.8073,
      "duration": 0.0032,
      "velocity": 99,
      "chip": "ym2612"
    },
    {
      "channel": 2,
      "note": 82,
      "start": 75.808,
      "duration": 0.0032,
      "velocity": 99,
      "chip": "ym2612"
    },
    {
      "channel": 1,
      "note": 82,
      "start": 75.8106,
      "duration": 0.0035,
      "velocity": 99,
      "chip": "ym2612"
    },
    {
      "channel": 2,
      "note": 82,
      "start": 75.8113,
      "duration": 0.0032,
      "velocity": 99,
      "chip": "ym2612"
    },
    {
      "channel": 0,
      "note": 51,
      "start": 75.8136,
      "duration": 0.1522,
      "velocity": 95,
      "chip": "ym2612"
    },
    {
      "channel": 1,
      "note": 82,
      "start": 75.8141,
      "duration": 0.0029,
      "velocity": 99,
      "chip": "ym2612"
    },
    {
      "channel": 2,
      "note": 82,
      "start": 75.8145,
      "duration": 0.003,
      "velocity": 99,
      "chip": "ym2612"
    },
    {
      "channel": 1,
      "note": 82,
      "start": 75.817,
      "duration": 0.0049,
      "velocity": 99,
      "chip": "ym2612"
    },
    {
      "channel": 2,
      "note": 82,
      "start": 75.8175,
      "duration": 0.005,
      "velocity": 99,
      "chip": "ym2612"
    },
    {
      "channel": 1,
      "note": 82,
      "start": 75.8218,
      "duration": 0.0144,
      "velocity": 99,
      "chip": "ym2612"
    },
    {
      "channel": 2,
      "note": 82,
      "start": 75.8225,
      "duration": 0.0144,
      "velocity": 99,
      "chip": "ym2612"
    },
    {
      "channel": 1,
      "note": 82,
      "start": 75.8362,
      "duration": 0.0144,
      "velocity": 99,
      "chip": "ym2612"
    },
    {
      "channel": 2,
      "note": 82,
      "start": 75.8369,
      "duration": 0.0143,
      "velocity": 99,
      "chip": "ym2612"
    },
    {
      "channel": 1,
      "note": 82,
      "start": 75.8506,
      "duration": 0.0146,
      "velocity": 99,
      "chip": "ym2612"
    },
    {
      "channel": 2,
      "note": 82,
      "start": 75.8512,
      "duration": 0.0145,
      "velocity": 99,
      "chip": "ym2612"
    },
    {
      "channel": 1,
      "note": 82,
      "start": 75.8652,
      "duration": 0.0144,
      "velocity": 99,
      "chip": "ym2612"
    },
    {
      "channel": 2,
      "note": 82,
      "start": 75.8657,
      "duration": 0.0146,
      "velocity": 99,
      "chip": "ym2612"
    },
    {
      "channel": 1,
      "note": 82,
      "start": 75.8796,
      "duration": 0.0144,
      "velocity": 99,
      "chip": "ym2612"
    },
    {
      "channel": 2,
      "note": 82,
      "start": 75.8803,
      "duration": 0.0144,
      "velocity": 99,
      "chip": "ym2612"
    },
    {
      "channel": 1,
      "note": 82,
      "start": 75.894,
      "duration": 0.0143,
      "velocity": 99,
      "chip": "ym2612"
    },
    {
      "channel": 2,
      "note": 82,
      "start": 75.8947,
      "duration": 0.0143,
      "velocity": 99,
      "chip": "ym2612"
    },
    {
      "channel": 1,
      "note": 82,
      "start": 75.9083,
      "duration": 0.0146,
      "velocity": 99,
      "chip": "ym2612"
    },
    {
      "channel": 2,
      "note": 82,
      "start": 75.909,
      "duration": 0.0146,
      "velocity": 99,
      "chip": "ym2612"
    },
    {
      "channel": 1,
      "note": 82,
      "start": 75.923,
      "duration": 0.0144,
      "velocity": 99,
      "chip": "ym2612"
    },
    {
      "channel": 2,
      "note": 82,
      "start": 75.9236,
      "duration": 0.0143,
      "velocity": 99,
      "chip": "ym2612"
    },
    {
      "channel": 1,
      "note": 82,
      "start": 75.9374,
      "duration": 0.0144,
      "velocity": 99,
      "chip": "ym2612"
    },
    {
      "channel": 2,
      "note": 82,
      "start": 75.9379,
      "duration": 0.0146,
      "velocity": 99,
      "chip": "ym2612"
    },
    {
      "channel": 1,
      "note": 82,
      "start": 75.9519,
      "duration": 0.0148,
      "velocity": 99,
      "chip": "ym2612"
    },
    {
      "channel": 2,
      "note": 82,
      "start": 75.9525,
      "duration": 0.0146,
      "velocity": 99,
      "chip": "ym2612"
    },
    {
      "channel": 0,
      "note": 51,
      "start": 75.9662,
      "duration": 0.1422,
      "velocity": 95,
      "chip": "ym2612"
    },
    {
      "channel": 1,
      "note": 82,
      "start": 75.9666,
      "duration": 0.0049,
      "velocity": 99,
      "chip": "ym2612"
    },
    {
      "channel": 2,
      "note": 82,
      "start": 75.9671,
      "duration": 0.0051,
      "velocity": 99,
      "chip": "ym2612"
    },
    {
      "channel": 3,
      "note": 70,
      "start": 75.9678,
      "duration": 1.0158,
      "velocity": 89,
      "chip": "ym2612"
    },
    {
      "channel": 4,
      "note": 66,
      "start": 75.9683,
      "duration": 1.0158,
      "velocity": 89,
      "chip": "ym2612"
    },
    {
      "channel": 1,
      "note": 82,
      "start": 75.9715,
      "duration": 0.0033,
      "velocity": 99,
      "chip": "ym2612"
    },
    {
      "channel": 2,
      "note": 82,
      "start": 75.9722,
      "duration": 0.0032,
      "velocity": 99,
      "chip": "ym2612"
    },
    {
      "channel": 1,
      "note": 82,
      "start": 75.9748,
      "duration": 0.0043,
      "velocity": 99,
      "chip": "ym2612"
    },
    {
      "channel": 2,
      "note": 82,
      "start": 75.9754,
      "duration": 0.0044,
      "velocity": 99,
      "chip": "ym2612"
    },
    {
      "channel": 1,
      "note": 82,
      "start": 75.9791,
      "duration": 0.0144,
      "velocity": 99,
      "chip": "ym2612"
    },
    {
      "channel": 2,
      "note": 82,
      "start": 75.9798,
      "duration": 0.0144,
      "velocity": 99,
      "chip": "ym2612"
    },
    {
      "channel": 1,
      "note": 82,
      "start": 75.9935,
      "duration": 0.0143,
      "velocity": 99,
      "chip": "ym2612"
    },
    {
      "channel": 2,
      "note": 82,
      "start": 75.9942,
      "duration": 0.0143,
      "velocity": 99,
      "chip": "ym2612"
    },
    {
      "channel": 1,
      "note": 82,
      "start": 76.0078,
      "duration": 0.0146,
      "velocity": 99,
      "chip": "ym2612"
    },
    {
      "channel": 2,
      "note": 82,
      "start": 76.0085,
      "duration": 0.0146,
      "velocity": 99,
      "chip": "ym2612"
    },
    {
      "channel": 1,
      "note": 82,
      "start": 76.0224,
      "duration": 0.0144,
      "velocity": 99,
      "chip": "ym2612"
    },
    {
      "channel": 2,
      "note": 82,
      "start": 76.0232,
      "duration": 0.0142,
      "velocity": 99,
      "chip": "ym2612"
    },
    {
      "channel": 1,
      "note": 82,
      "start": 76.0369,
      "duration": 0.0144,
      "velocity": 99,
      "chip": "ym2612"
    },
    {
      "channel": 2,
      "note": 82,
      "start": 76.0374,
      "duration": 0.0146,
      "velocity": 99,
      "chip": "ym2612"
    },
    {
      "channel": 1,
      "note": 82,
      "start": 76.0513,
      "duration": 0.0145,
      "velocity": 99,
      "chip": "ym2612"
    },
    {
      "channel": 2,
      "note": 82,
      "start": 76.052,
      "duration": 0.0144,
      "velocity": 99,
      "chip": "ym2612"
    },
    {
      "channel": 1,
      "note": 82,
      "start": 76.0658,
      "duration": 0.0143,
      "velocity": 99,
      "chip": "ym2612"
    },
    {
      "channel": 2,
      "note": 82,
      "start": 76.0665,
      "duration": 0.0143,
      "velocity": 99,
      "chip": "ym2612"
    },
    {
      "channel": 1,
      "note": 82,
      "start": 76.0801,
      "duration": 0.0146,
      "velocity": 99,
      "chip": "ym2612"
    },
    {
      "channel": 2,
      "note": 82,
      "start": 76.0808,
      "duration": 0.0144,
      "velocity": 99,
      "chip": "ym2612"
    },
    {
      "channel": 1,
      "note": 82,
      "start": 76.0946,
      "duration": 0.0146,
      "velocity": 99,
      "chip": "ym2612"
    },
    {
      "channel": 2,
      "note": 82,
      "start": 76.0952,
      "duration": 0.0145,
      "velocity": 99,
      "chip": "ym2612"
    },
    {
      "channel": 0,
      "note": 51,
      "start": 76.1088,
      "duration": 0.1729,
      "velocity": 95,
      "chip": "ym2612"
    },
    {
      "channel": 1,
      "note": 82,
      "start": 76.1092,
      "duration": 0.0143,
      "velocity": 99,
      "chip": "ym2612"
    },
    {
      "channel": 2,
      "note": 82,
      "start": 76.1097,
      "duration": 0.0145,
      "velocity": 99,
      "chip": "ym2612"
    },
    {
      "channel": 1,
      "note": 82,
      "start": 76.1235,
      "duration": 0.0144,
      "velocity": 99,
      "chip": "ym2612"
    },
    {
      "channel": 2,
      "note": 82,
      "start": 76.1242,
      "duration": 0.0143,
      "velocity": 99,
      "chip": "ym2612"
    },
    {
      "channel": 1,
      "note": 82,
      "start": 76.1379,
      "duration": 0.0146,
      "velocity": 99,
      "chip": "ym2612"
    },
    {
      "channel": 2,
      "note": 82,
      "start": 76.1385,
      "duration": 0.0146,
      "velocity": 99,
      "chip": "ym2612"
    },
    {
      "channel": 1,
      "note": 82,
      "start": 76.1525,
      "duration": 0.0144,
      "velocity": 99,
      "chip": "ym2612"
    },
    {
      "channel": 2,
      "note": 82,
      "start": 76.1532,
      "duration": 0.0143,
      "velocity": 99,
      "chip": "ym2612"
    },
    {
      "channel": 1,
      "note": 82,
      "start": 76.1669,
      "duration": 0.0144,
      "velocity": 99,
      "chip": "ym2612"
    },
    {
      "channel": 2,
      "note": 82,
      "start": 76.1675,
      "duration": 0.0145,
      "velocity": 99,
      "chip": "ym2612"
    },
    {
      "channel": 1,
      "note": 82,
      "start": 76.1814,
      "duration": 0.0145,
      "velocity": 99,
      "chip": "ym2612"
    },
    {
      "channel": 2,
      "note": 82,
      "start": 76.182,
      "duration": 0.0145,
      "velocity": 99,
      "chip": "ym2612"
    },
    {
      "channel": 1,
      "note": 82,
      "start": 76.1959,
      "duration": 0.0143,
      "velocity": 99,
      "chip": "ym2612"
    },
    {
      "channel": 2,
      "note": 82,
      "start": 76.1965,
      "duration": 0.0143,
      "velocity": 99,
      "chip": "ym2612"
    },
    {
      "channel": 1,
      "note": 82,
      "start": 76.2101,
      "duration": 0.0146,
      "velocity": 99,
      "chip": "ym2612"
    },
    {
      "channel": 2,
      "note": 82,
      "start": 76.2107,
      "duration": 0.0145,
      "velocity": 99,
      "chip": "ym2612"
    },
    {
      "channel": 1,
      "note": 82,
      "start": 76.2247,
      "duration": 0.0144,
      "velocity": 99,
      "chip": "ym2612"
    },
    {
      "channel": 2,
      "note": 82,
      "start": 76.2252,
      "duration": 0.0146,
      "velocity": 99,
      "chip": "ym2612"
    },
    {
      "channel": 1,
      "note": 82,
      "start": 76.2391,
      "duration": 0.0144,
      "velocity": 99,
      "chip": "ym2612"
    },
    {
      "channel": 2,
      "note": 82,
      "start": 76.2398,
      "duration": 0.0144,
      "velocity": 99,
      "chip": "ym2612"
    },
    {
      "channel": 1,
      "note": 82,
      "start": 76.2536,
      "duration": 0.0144,
      "velocity": 99,
      "chip": "ym2612"
    },
    {
      "channel": 2,
      "note": 82,
      "start": 76.2543,
      "duration": 0.0143,
      "velocity": 99,
      "chip": "ym2612"
    },
    {
      "channel": 1,
      "note": 82,
      "start": 76.2679,
      "duration": 0.0146,
      "velocity": 99,
      "chip": "ym2612"
    },
    {
      "channel": 2,
      "note": 82,
      "start": 76.2686,
      "duration": 0.0145,
      "velocity": 99,
      "chip": "ym2612"
    },
    {
      "channel": 0,
      "note": 51,
      "start": 76.2821,
      "duration": 0.0397,
      "velocity": 95,
      "chip": "ym2612"
    },
    {
      "channel": 1,
      "note": 82,
      "start": 76.2826,
      "duration": 0.0038,
      "velocity": 99,
      "chip": "ym2612"
    },
    {
      "channel": 2,
      "note": 82,
      "start": 76.2831,
      "duration": 0.0038,
      "velocity": 99,
      "chip": "ym2612"
    },
    {
      "channel": 1,
      "note": 82,
      "start": 76.2863,
      "duration": 0.0033,
      "velocity": 99,
      "chip": "ym2612"
    },
    {
      "channel": 2,
      "note": 82,
      "start": 76.2868,
      "duration": 0.0035,
      "velocity": 99,
      "chip": "ym2612"
    },
    {
      "channel": 1,
      "note": 82,
      "start": 76.2896,
      "duration": 0.0034,
      "velocity": 99,
      "chip": "ym2612"
    },
    {
      "channel": 2,
      "note": 82,
      "start": 76.2903,
      "duration": 0.0033,
      "velocity": 99,
      "chip": "ym2612"
    },
    {
      "channel": 1,
      "note": 82,
      "start": 76.293,
      "duration": 0.0033,
      "velocity": 99,
      "chip": "ym2612"
    },
    {
      "channel": 2,
      "note": 82,
      "start": 76.2936,
      "duration": 0.0033,
      "velocity": 99,
      "chip": "ym2612"
    },
    {
      "channel": 1,
      "note": 82,
      "start": 76.2962,
      "duration": 0.0034,
      "velocity": 99,
      "chip": "ym2612"
    },
    {
      "channel": 2,
      "note": 82,
      "start": 76.2969,
      "duration": 0.0032,
      "velocity": 99,
      "chip": "ym2612"
    },
    {
      "channel": 1,
      "note": 82,
      "start": 76.2996,
      "duration": 0.0033,
      "velocity": 99,
      "chip": "ym2612"
    },
    {
      "channel": 2,
      "note": 82,
      "start": 76.3001,
      "duration": 0.0035,
      "velocity": 99,
      "chip": "ym2612"
    },
    {
      "channel": 1,
      "note": 82,
      "start": 76.3029,
      "duration": 0.0029,
      "velocity": 99,
      "chip": "ym2612"
    },
    {
      "channel": 2,
      "note": 82,
      "start": 76.3036,
      "duration": 0.0029,
      "velocity": 99,
      "chip": "ym2612"
    },
    {
      "channel": 1,
      "note": 82,
      "start": 76.3059,
      "duration": 0.0033,
      "velocity": 99,
      "chip": "ym2612"
    },
    {
      "channel": 2,
      "note": 82,
      "start": 76.3065,
      "duration": 0.0033,
      "velocity": 99,
      "chip": "ym2612"
    },
    {
      "channel": 1,
      "note": 82,
      "start": 76.3091,
      "duration": 0.0034,
      "velocity": 99,
      "chip": "ym2612"
    },
    {
      "channel": 2,
      "note": 82,
      "start": 76.3098,
      "duration": 0.0034,
      "velocity": 99,
      "chip": "ym2612"
    },
    {
      "channel": 1,
      "note": 82,
      "start": 76.3125,
      "duration": 0.0035,
      "velocity": 99,
      "chip": "ym2612"
    },
    {
      "channel": 2,
      "note": 82,
      "start": 76.3132,
      "duration": 0.0033,
      "velocity": 99,
      "chip": "ym2612"
    },
    {
      "channel": 1,
      "note": 82,
      "start": 76.316,
      "duration": 0.0033,
      "velocity": 99,
      "chip": "ym2612"
    },
    {
      "channel": 2,
      "note": 82,
      "start": 76.3165,
      "duration": 0.0034,
      "velocity": 99,
      "chip": "ym2612"
    },
    {
      "channel": 1,
      "note": 82,
      "start": 76.3193,
      "duration": 0.0035,
      "velocity": 99,
      "chip": "ym2612"
    },
    {
      "channel": 2,
      "note": 82,
      "start": 76.3199,
      "duration": 0.0033,
      "velocity": 99,
      "chip": "ym2612"
    },
    {
      "channel": 0,
      "note": 51,
      "start": 76.3223,
      "duration": 0.1515,
      "velocity": 95,
      "chip": "ym2612"
    },
    {
      "channel": 1,
      "note": 82,
      "start": 76.3228,
      "duration": 0.0027,
      "velocity": 99,
      "chip": "ym2612"
    },
    {
      "channel": 2,
      "note": 82,
      "start": 76.3232,
      "duration": 0.003,
      "velocity": 99,
      "chip": "ym2612"
    },
    {
      "channel": 1,
      "note": 82,
      "start": 76.3255,
      "duration": 0.005,
      "velocity": 99,
      "chip": "ym2612"
    },
    {
      "channel": 2,
      "note": 82,
      "start": 76.3262,
      "duration": 0.0048,
      "velocity": 99,
      "chip": "ym2612"
    },
    {
      "channel": 1,
      "note": 82,
      "start": 76.3305,
      "duration": 0.0141,
      "velocity": 99,
      "chip": "ym2612"
    },
    {
      "channel": 2,
      "note": 82,
      "start": 76.331,
      "duration": 0.0142,
      "velocity": 99,
      "chip": "ym2612"
    },
    {
      "channel": 1,
      "note": 82,
      "start": 76.3446,
      "duration": 0.0144,
      "velocity": 99,
      "chip": "ym2612"
    },
    {
      "channel": 2,
      "note": 82,
      "start": 76.3453,
      "duration": 0.0144,
      "velocity": 99,
      "chip": "ym2612"
    },
    {
      "channel": 1,
      "note": 82,
      "start": 76.359,
      "duration": 0.0143,
      "velocity": 99,
      "chip": "ym2612"
    },
    {
      "channel": 2,
      "note": 82,
      "start": 76.3597,
      "duration": 0.0143,
      "velocity": 99,
      "chip": "ym2612"
    },
    {
      "channel": 1,
      "note": 82,
      "start": 76.3733,
      "duration": 0.0146,
      "velocity": 99,
      "chip": "ym2612"
    },
    {
      "channel": 2,
      "note": 82,
      "start": 76.374,
      "duration": 0.0146,
      "velocity": 99,
      "chip": "ym2612"
    },
    {
      "channel": 1,
      "note": 82,
      "start": 76.3879,
      "duration": 0.0145,
      "velocity": 99,
      "chip": "ym2612"
    },
    {
      "channel": 2,
      "note": 82,
      "start": 76.3886,
      "duration": 0.0143,
      "velocity": 99,
      "chip": "ym2612"
    },
    {
      "channel": 1,
      "note": 82,
      "start": 76.4024,
      "duration": 0.0144,
      "velocity": 99,
      "chip": "ym2612"
    },
    {
      "channel": 2,
      "note": 82,
      "start": 76.4029,
      "duration": 0.0146,
      "velocity": 99,
      "chip": "ym2612"
    },
    {
      "channel": 1,
      "note": 82,
      "start": 76.4168,
      "duration": 0.0144,
      "velocity": 99,
      "chip": "ym2612"
    },
    {
      "channel": 2,
      "note": 82,
      "start": 76.4175,
      "duration": 0.0144,
      "velocity": 99,
      "chip": "ym2612"
    },
    {
      "channel": 1,
      "note": 82,
      "start": 76.4313,
      "duration": 0.0142,
      "velocity": 99,
      "chip": "ym2612"
    },
    {
      "channel": 2,
      "note": 82,
      "start": 76.4319,
      "duration": 0.0143,
      "velocity": 99,
      "chip": "ym2612"
    },
    {
      "channel": 1,
      "note": 82,
      "start": 76.4455,
      "duration": 0.0146,
      "velocity": 99,
      "chip": "ym2612"
    },
    {
      "channel": 2,
      "note": 82,
      "start": 76.4462,
      "duration": 0.0144,
      "velocity": 99,
      "chip": "ym2612"
    },
    {
      "channel": 1,
      "note": 82,
      "start": 76.4601,
      "duration": 0.0143,
      "velocity": 99,
      "chip": "ym2612"
    },
    {
      "channel": 2,
      "note": 82,
      "start": 76.4607,
      "duration": 0.0146,
      "velocity": 99,
      "chip": "ym2612"
    },
    {
      "channel": 0,
      "note": 51,
      "start": 76.4742,
      "duration": 0.1423,
      "velocity": 95,
      "chip": "ym2612"
    },
    {
      "channel": 1,
      "note": 80,
      "start": 76.4748,
      "duration": 0.3157,
      "velocity": 99,
      "chip": "ym2612"
    },
    {
      "channel": 2,
      "note": 82,
      "start": 76.4753,
      "duration": 0.0034,
      "velocity": 99,
      "chip": "ym2612"
    },
    {
      "channel": 2,
      "note": 82,
      "start": 76.4787,
      "duration": 0.003,
      "velocity": 99,
      "chip": "ym2612"
    },
    {
      "channel": 2,
      "note": 82,
      "start": 76.4817,
      "duration": 0.0059,
      "velocity": 99,
      "chip": "ym2612"
    },
    {
      "channel": 2,
      "note": 82,
      "start": 76.4877,
      "duration": 0.0142,
      "velocity": 99,
      "chip": "ym2612"
    },
    {
      "channel": 2,
      "note": 82,
      "start": 76.5019,
      "duration": 0.0146,
      "velocity": 99,
      "chip": "ym2612"
    },
    {
      "channel": 2,
      "note": 82,
      "start": 76.5165,
      "duration": 0.0139,
      "velocity": 99,
      "chip": "ym2612"
    },
    {
      "channel": 2,
      "note": 80,
      "start": 76.5308,
      "duration": 0.2757,
      "velocity": 99,
      "chip": "ym2612"
    },
    {
      "channel": 0,
      "note": 51,
      "start": 76.6169,
      "duration": 0.1729,
      "velocity": 95,
      "chip": "ym2612"
    },
    {
      "channel": 0,
      "note": 51,
      "start": 76.7903,
      "duration": 0.0313,
      "velocity": 95,
      "chip": "ym2612"
    },
    {
      "channel": 1,
      "note": 82,
      "start": 76.7908,
      "duration": 0.1919,
      "velocity": 99,
      "chip": "ym2612"
    },
    {
      "channel": 2,
      "note": 82,
      "start": 76.807,
      "duration": 0.2315,
      "velocity": 99,
      "chip": "ym2612"
    },
    {
      "channel": 0,
      "note": 51,
      "start": 76.8221,
      "duration": 0.16,
      "velocity": 95,
      "chip": "ym2612"
    },
    {
      "channel": 0,
      "note": 47,
      "start": 76.9825,
      "duration": 0.142,
      "velocity": 95,
      "chip": "ym2612"
    },
    {
      "channel": 1,
      "note": 78,
      "start": 76.9831,
      "duration": 0.3156,
      "velocity": 99,
      "chip": "ym2612"
    },
    {
      "channel": 3,
      "note": 66,
      "start": 76.984,
      "duration": 1.0156,
      "velocity": 89,
      "chip": "ym2612"
    },
    {
      "channel": 4,
      "note": 63,
      "start": 76.9846,
      "duration": 1.0156,
      "velocity": 89,
      "chip": "ym2612"
    },
    {
      "channel": 2,
      "note": 78,
      "start": 77.039,
      "duration": 0.278,
      "velocity": 99,
      "chip": "ym2612"
    },
    {
      "channel": 0,
      "note": 47,
      "start": 77.1249,
      "duration": 0.1729,
      "velocity": 95,
      "chip": "ym2612"
    },
    {
      "channel": 0,
      "note": 47,
      "start": 77.2983,
      "duration": 0.0366,
      "velocity": 95,
      "chip": "ym2612"
    },
    {
      "channel": 1,
      "note": 78,
      "start": 77.2988,
      "duration": 0.0031,
      "velocity": 99,
      "chip": "ym2612"
    },
    {
      "channel": 1,
      "note": 78,
      "start": 77.3019,
      "duration": 0.003,
      "velocity": 99,
      "chip": "ym2612"
    },
    {
      "channel": 1,
      "note": 78,
      "start": 77.3049,
      "duration": 0.0025,
      "velocity": 99,
      "chip": "ym2612"
    },
    {
      "channel": 1,
      "note": 78,
      "start": 77.3074,
      "duration": 0.003,
      "velocity": 99,
      "chip": "ym2612"
    },
    {
      "channel": 1,
      "note": 78,
      "start": 77.3104,
      "duration": 0.0028,
      "velocity": 99,
      "chip": "ym2612"
    },
    {
      "channel": 1,
      "note": 78,
      "start": 77.3132,
      "duration": 0.003,
      "velocity": 99,
      "chip": "ym2612"
    },
    {
      "channel": 1,
      "note": 78,
      "start": 77.3163,
      "duration": 0.0034,
      "velocity": 99,
      "chip": "ym2612"
    },
    {
      "channel": 2,
      "note": 78,
      "start": 77.3169,
      "duration": 0.0032,
      "velocity": 99,
      "chip": "ym2612"
    },
    {
      "channel": 1,
      "note": 78,
      "start": 77.3197,
      "duration": 0.0032,
      "velocity": 99,
      "chip": "ym2612"
    },
    {
      "channel": 2,
      "note": 78,
      "start": 77.3202,
      "duration": 0.0034,
      "velocity": 99,
      "chip": "ym2612"
    },
    {
      "channel": 1,
      "note": 78,
      "start": 77.3229,
      "duration": 0.0034,
      "velocity": 99,
      "chip": "ym2612"
    },
    {
      "channel": 2,
      "note": 78,
      "start": 77.3235,
      "duration": 0.0034,
      "velocity": 99,
      "chip": "ym2612"
    },
    {
      "channel": 1,
      "note": 78,
      "start": 77.3263,
      "duration": 0.0032,
      "velocity": 99,
      "chip": "ym2612"
    },
    {
      "channel": 2,
      "note": 78,
      "start": 77.327,
      "duration": 0.0032,
      "velocity": 99,
      "chip": "ym2612"
    },
    {
      "channel": 1,
      "note": 78,
      "start": 77.3295,
      "duration": 0.0029,
      "velocity": 99,
      "chip": "ym2612"
    },
    {
      "channel": 2,
      "note": 78,
      "start": 77.3302,
      "duration": 0.0028,
      "velocity": 99,
      "chip": "ym2612"
    },
    {
      "channel": 1,
      "note": 78,
      "start": 77.3324,
      "duration": 0.0034,
      "velocity": 99,
      "chip": "ym2612"
    },
    {
      "channel": 2,
      "note": 78,
      "start": 77.3329,
      "duration": 0.0033,
      "velocity": 99,
      "chip": "ym2612"
    },
    {
      "channel": 0,
      "note": 47,
      "start": 77.3353,
      "duration": 0.1543,
      "velocity": 95,
      "chip": "ym2612"
    },
    {
      "channel": 1,
      "note": 78,
      "start": 77.3357,
      "duration": 0.0029,
      "velocity": 99,
      "chip": "ym2612"
    },
    {
      "channel": 2,
      "note": 78,
      "start": 77.3362,
      "duration": 0.0032,
      "velocity": 99,
      "chip": "ym2612"
    },
    {
      "channel": 1,
      "note": 78,
      "start": 77.3387,
      "duration": 0.0071,
      "velocity": 99,
      "chip": "ym2612"
    },
    {
      "channel": 2,
      "note": 78,
      "start": 77.3394,
      "duration": 0.0071,
      "velocity": 99,
      "chip": "ym2612"
    },
    {
      "channel": 1,
      "note": 78,
      "start": 77.3458,
      "duration": 0.0146,
      "velocity": 99,
      "chip": "ym2612"
    },
    {
      "channel": 2,
      "note": 78,
      "start": 77.3465,
      "duration": 0.0146,
      "velocity": 99,
      "chip": "ym2612"
    },
    {
      "channel": 1,
      "note": 78,
      "start": 77.3604,
      "duration": 0.0144,
      "velocity": 99,
      "chip": "ym2612"
    },
    {
      "channel": 2,
      "note": 78,
      "start": 77.361,
      "duration": 0.0143,
      "velocity": 99,
      "chip": "ym2612"
    },
    {
      "channel": 1,
      "note": 78,
      "start": 77.3748,
      "duration": 0.0144,
      "velocity": 99,
      "chip": "ym2612"
    },
    {
      "channel": 2,
      "note": 78,
      "start": 77.3754,
      "duration": 0.0146,
      "velocity": 99,
      "chip": "ym2612"
    },
    {
      "channel": 1,
      "note": 78,
      "start": 77.3892,
      "duration": 0.0145,
      "velocity": 99,
      "chip": "ym2612"
    },
    {
      "channel": 2,
      "note": 78,
      "start": 77.3899,
      "duration": 0.0144,
      "velocity": 99,
      "chip": "ym2612"
    },
    {
      "channel": 1,
      "note": 78,
      "start": 77.4037,
      "duration": 0.0142,
      "velocity": 99,
      "chip": "ym2612"
    },
    {
      "channel": 2,
      "note": 78,
      "start": 77.4044,
      "duration": 0.0143,
      "velocity": 99,
      "chip": "ym2612"
    },
    {
      "channel": 1,
      "note": 78,
      "start": 77.418,
      "duration": 0.0146,
      "velocity": 99,
      "chip": "ym2612"
    },
    {
      "channel": 2,
      "note": 78,
      "start": 77.4187,
      "duration": 0.0145,
      "velocity": 99,
      "chip": "ym2612"
    },
    {
      "channel": 1,
      "note": 78,
      "start": 77.4326,
      "duration": 0.0144,
      "velocity": 99,
      "chip": "ym2612"
    },
    {
      "channel": 2,
      "note": 78,
      "start": 77.4332,
      "duration": 0.0146,
      "velocity": 99,
      "chip": "ym2612"
    },
    {
      "channel": 1,
      "note": 78,
      "start": 77.4471,
      "duration": 0.0144,
      "velocity": 99,
      "chip": "ym2612"
    },
    {
      "channel": 2,
      "note": 78,
      "start": 77.4478,
      "duration": 0.0144,
      "velocity": 99,
      "chip": "ym2612"
    },
    {
      "channel": 1,
      "note": 78,
      "start": 77.4615,
      "duration": 0.0143,
      "velocity": 99,
      "chip": "ym2612"
    },
    {
      "channel": 2,
      "note": 78,
      "start": 77.4622,
      "duration": 0.0143,
      "velocity": 99,
      "chip": "ym2612"
    },
    {
      "channel": 1,
      "note": 78,
      "start": 77.4758,
      "duration": 0.0147,
      "velocity": 99,
      "chip": "ym2612"
    },
    {
      "channel": 2,
      "note": 78,
      "start": 77.4765,
      "duration": 0.0145,
      "velocity": 99,
      "chip": "ym2612"
    },
    {
      "channel": 0,
      "note": 47,
      "start": 77.4901,
      "duration": 0.1423,
      "velocity": 95,
      "chip": "ym2612"
    },
    {
      "channel": 1,
      "note": 78,
      "start": 77.4905,
      "duration": 0.0037,
      "velocity": 99,
      "chip": "ym2612"
    },
    {
      "channel": 2,
      "note": 78,
      "start": 77.491,
      "duration": 0.0037,
      "velocity": 99,
      "chip": "ym2612"
    },
    {
      "channel": 1,
      "note": 78,
      "start": 77.4942,
      "duration": 0.0028,
      "velocity": 99,
      "chip": "ym2612"
    },
    {
      "channel": 2,
      "note": 78,
      "start": 77.4948,
      "duration": 0.0029,
      "velocity": 99,
      "chip": "ym2612"
    },
    {
      "channel": 1,
      "note": 78,
      "start": 77.497,
      "duration": 0.0061,
      "velocity": 99,
      "chip": "ym2612"
    },
    {
      "channel": 2,
      "note": 78,
      "start": 77.4976,
      "duration": 0.0061,
      "velocity": 99,
      "chip": "ym2612"
    },
    {
      "channel": 1,
      "note": 78,
      "start": 77.5031,
      "duration": 0.0143,
      "velocity": 99,
      "chip": "ym2612"
    },
    {
      "channel": 2,
      "note": 78,
      "start": 77.5038,
      "duration": 0.0143,
      "velocity": 99,
      "chip": "ym2612"
    },
    {
      "channel": 1,
      "note": 78,
      "start": 77.5174,
      "duration": 0.0146,
      "velocity": 99,
      "chip": "ym2612"
    },
    {
      "channel": 2,
      "note": 78,
      "start": 77.5181,
      "duration": 0.0144,
      "velocity": 99,
      "chip": "ym2612"
    },
    {
      "channel": 1,
      "note": 78,
      "start": 77.532,
      "duration": 0.0144,
      "velocity": 99,
      "chip": "ym2612"
    },
    {
      "channel": 2,
      "note": 78,
      "start": 77.5325,
      "duration": 0.0146,
      "velocity": 99,
      "chip": "ym2612"
    },
    {
      "channel": 1,
      "note": 78,
      "start": 77.5464,
      "duration": 0.0145,
      "velocity": 99,
      "chip": "ym2612"
    },
    {
      "channel": 2,
      "note": 78,
      "start": 77.5471,
      "duration": 0.0145,
      "velocity": 99,
      "chip": "ym2612"
    },
    {
      "channel": 1,
      "note": 78,
      "start": 77.5609,
      "duration": 0.0143,
      "velocity": 99,
      "chip": "ym2612"
    },
    {
      "channel": 2,
      "note": 78,
      "start": 77.5616,
      "duration": 0.0143,
      "velocity": 99,
      "chip": "ym2612"
    },
    {
      "channel": 1,
      "note": 78,
      "start": 77.5752,
      "duration": 0.0146,
      "velocity": 99,
      "chip": "ym2612"
    },
    {
      "channel": 2,
      "note": 78,
      "start": 77.5759,
      "duration": 0.0146,
      "velocity": 99,
      "chip": "ym2612"
    },
    {
      "channel": 1,
      "note": 78,
      "start": 77.5899,
      "duration": 0.0144,
      "velocity": 99,
      "chip": "ym2612"
    },
    {
      "channel": 2,
      "note": 78,
      "start": 77.5906,
      "duration": 0.0142,
      "velocity": 99,
      "chip": "ym2612"
    },
    {
      "channel": 1,
      "note": 78,
      "start": 77.6042,
      "duration": 0.0144,
      "velocity": 99,
      "chip": "ym2612"
    },
    {
      "channel": 2,
      "note": 78,
      "start": 77.6048,
      "duration": 0.0146,
      "velocity": 99,
      "chip": "ym2612"
    },
    {
      "channel": 1,
      "note": 78,
      "start": 77.6187,
      "duration": 0.0146,
      "velocity": 99,
      "chip": "ym2612"
    },
    {
      "channel": 2,
      "note": 78,
      "start": 77.6194,
      "duration": 0.0143,
      "velocity": 99,
      "chip": "ym2612"
    },
    {
      "channel": 0,
      "note": 47,
      "start": 77.6328,
      "duration": 0.1729,
      "velocity": 95,
      "chip": "ym2612"
    },
    {
      "channel": 1,
      "note": 78,
      "start": 77.6332,
      "duration": 0.0142,
      "velocity": 99,
      "chip": "ym2612"
    },
    {
      "channel": 2,
      "note": 78,
      "start": 77.6337,
      "duration": 0.0144,
      "velocity": 99,
      "chip": "ym2612"
    },
    {
      "channel": 1,
      "note": 78,
      "start": 77.6474,
      "duration": 0.0146,
      "velocity": 99,
      "chip": "ym2612"
    },
    {
      "channel": 2,
      "note": 78,
      "start": 77.6481,
      "duration": 0.0145,
      "velocity": 99,
      "chip": "ym2612"
    },
    {
      "channel": 1,
      "note": 78,
      "start": 77.6621,
      "duration": 0.0144,
      "velocity": 99,
      "chip": "ym2612"
    },
    {
      "channel": 2,
      "note": 78,
      "start": 77.6626,
      "duration": 0.0146,
      "velocity": 99,
      "chip": "ym2612"
    },
    {
      "channel": 1,
      "note": 78,
      "start": 77.6764,
      "duration": 0.0145,
      "velocity": 99,
      "chip": "ym2612"
    },
    {
      "channel": 2,
      "note": 78,
      "start": 77.6771,
      "duration": 0.0144,
      "velocity": 99,
      "chip": "ym2612"
    },
    {
      "channel": 1,
      "note": 78,
      "start": 77.6909,
      "duration": 0.0143,
      "velocity": 99,
      "chip": "ym2612"
    },
    {
      "channel": 2,
      "note": 78,
      "start": 77.6916,
      "duration": 0.0143,
      "velocity": 99,
      "chip": "ym2612"
    },
    {
      "channel": 1,
      "note": 78,
      "start": 77.7053,
      "duration": 0.0146,
      "velocity": 99,
      "chip": "ym2612"
    },
    {
      "channel": 2,
      "note": 78,
      "start": 77.7059,
      "duration": 0.0146,
      "velocity": 99,
      "chip": "ym2612"
    },
    {
      "channel": 1,
      "note": 78,
      "start": 77.7198,
      "duration": 0.0144,
      "velocity": 99,
      "chip": "ym2612"
    },
    {
      "channel": 2,
      "note": 78,
      "start": 77.7205,
      "duration": 0.0144,
      "velocity": 99,
      "chip": "ym2612"
    },
    {
      "channel": 1,
      "note": 78,
      "start": 77.7343,
      "duration": 0.0144,
      "velocity": 99,
      "chip": "ym2612"
    },
    {
      "channel": 2,
      "note": 78,
      "start": 77.7348,
      "duration": 0.0146,
      "velocity": 99,
      "chip": "ym2612"
    },
    {
      "channel": 1,
      "note": 78,
      "start": 77.7487,
      "duration": 0.0144,
      "velocity": 99,
      "chip": "ym2612"
    },
    {
      "channel": 2,
      "note": 78,
      "start": 77.7494,
      "duration": 0.0144,
      "velocity": 99,
      "chip": "ym2612"
    },
    {
      "channel": 1,
      "note": 78,
      "start": 77.7631,
      "duration": 0.0143,
      "velocity": 99,
      "chip": "ym2612"
    },
    {
      "channel": 2,
      "note": 78,
      "start": 77.7638,
      "duration": 0.0143,
      "velocity": 99,
      "chip": "ym2612"
    },
    {
      "channel": 1,
      "note": 78,
      "start": 77.7775,
      "duration": 0.0146,
      "velocity": 99,
      "chip": "ym2612"
    },
    {
      "channel": 2,
      "note": 78,
      "start": 77.7781,
      "duration": 0.0144,
      "velocity": 99,
      "chip": "ym2612"
    },
    {
      "channel": 1,
      "note": 78,
      "start": 77.792,
      "duration": 0.0146,
      "velocity": 99,
      "chip": "ym2612"
    },
    {
      "channel": 2,
      "note": 78,
      "start": 77.7925,
      "duration": 0.0146,
      "velocity": 99,
      "chip": "ym2612"
    },
    {
      "channel": 0,
      "note": 47,
      "start": 77.8061,
      "duration": 0.039,
      "velocity": 95,
      "chip": "ym2612"
    },
    {
      "channel": 1,
      "note": 78,
      "start": 77.8066,
      "duration": 0.0032,
      "velocity": 99,
      "chip": "ym2612"
    },
    {
      "channel": 2,
      "note": 78,
      "start": 77.8071,
      "duration": 0.0034,
      "velocity": 99,
      "chip": "ym2612"
    },
    {
      "channel": 1,
      "note": 78,
      "start": 77.8098,
      "duration": 0.0033,
      "velocity": 99,
      "chip": "ym2612"
    },
    {
      "channel": 2,
      "note": 78,
      "start": 77.8105,
      "duration": 0.0033,
      "velocity": 99,
      "chip": "ym2612"
    },
    {
      "channel": 1,
      "note": 78,
      "start": 77.8131,
      "duration": 0.0034,
      "velocity": 99,
      "chip": "ym2612"
    },
    {
      "channel": 2,
      "note": 78,
      "start": 77.8138,
      "duration": 0.0034,
      "velocity": 99,
      "chip": "ym2612"
    },
    {
      "channel": 1,
      "note": 78,
      "start": 77.8165,
      "duration": 0.0034,
      "velocity": 99,
      "chip": "ym2612"
    },
    {
      "channel": 2,
      "note": 78,
      "start": 77.8172,
      "duration": 0.0032,
      "velocity": 99,
      "chip": "ym2612"
    },
    {
      "channel": 1,
      "note": 78,
      "start": 77.82,
      "duration": 0.0032,
      "velocity": 99,
      "chip": "ym2612"
    },
    {
      "channel": 2,
      "note": 78,
      "start": 77.8205,
      "duration": 0.0034,
      "velocity": 99,
      "chip": "ym2612"
    },
    {
      "channel": 1,
      "note": 78,
      "start": 77.8232,
      "duration": 0.0033,
      "velocity": 99,
      "chip": "ym2612"
    },
    {
      "channel": 2,
      "note": 78,
      "start": 77.8238,
      "duration": 0.0034,
      "velocity": 99,
      "chip": "ym2612"
    },
    {
      "channel": 1,
      "note": 78,
      "start": 77.8265,
      "duration": 0.0032,
      "velocity": 99,
      "chip": "ym2612"
    },
    {
      "channel": 2,
      "note": 78,
      "start": 77.8272,
      "duration": 0.0033,
      "velocity": 99,
      "chip": "ym2612"
    },
    {
      "channel": 1,
      "note": 78,
      "start": 77.8298,
      "duration": 0.0034,
      "velocity": 99,
      "chip": "ym2612"
    },
    {
      "channel": 2,
      "note": 78,
      "start": 77.8305,
      "duration": 0.0032,
      "velocity": 99,
      "chip": "ym2612"
    },
    {
      "channel": 1,
      "note": 78,
      "start": 77.8332,
      "duration": 0.0028,
      "velocity": 99,
      "chip": "ym2612"
    },
    {
      "channel": 2,
      "note": 78,
      "start": 77.8337,
      "duration": 0.0029,
      "velocity": 99,
      "chip": "ym2612"
    },
    {
      "channel": 1,
      "note": 78,
      "start": 77.8359,
      "duration": 0.0034,
      "velocity": 99,
      "chip": "ym2612"
    },
    {
      "channel": 2,
      "note": 78,
      "start": 77.8366,
      "duration": 0.0034,
      "velocity": 99,
      "chip": "ym2612"
    },
    {
      "channel": 1,
      "note": 78,
      "start": 77.8393,
      "duration": 0.0033,
      "velocity": 99,
      "chip": "ym2612"
    },
    {
      "channel": 2,
      "note": 78,
      "start": 77.84,
      "duration": 0.0032,
      "velocity": 99,
      "chip": "ym2612"
    },
    {
      "channel": 1,
      "note": 78,
      "start": 77.8426,
      "duration": 0.0035,
      "velocity": 99,
      "chip": "ym2612"
    },
    {
      "channel": 2,
      "note": 78,
      "start": 77.8432,
      "duration": 0.0033,
      "velocity": 99,
      "chip": "ym2612"
    },
    {
      "channel": 0,
      "note": 47,
      "start": 77.8456,
      "duration": 0.1523,
      "velocity": 95,
      "chip": "ym2612"
    },
    {
      "channel": 1,
      "note": 78,
      "start": 77.8461,
      "duration": 0.0029,
      "velocity": 99,
      "chip": "ym2612"
    },
    {
      "channel": 2,
      "note": 78,
      "start": 77.8465,
      "duration": 0.003,
      "velocity": 99,
      "chip": "ym2612"
    },
    {
      "channel": 1,
      "note": 78,
      "start": 77.8489,
      "duration": 0.005,
      "velocity": 99,
      "chip": "ym2612"
    },
    {
      "channel": 2,
      "note": 78,
      "start": 77.8495,
      "duration": 0.0051,
      "velocity": 99,
      "chip": "ym2612"
    },
    {
      "channel": 1,
      "note": 78,
      "start": 77.8539,
      "duration": 0.0144,
      "velocity": 99,
      "chip": "ym2612"
    },
    {
      "channel": 2,
      "note": 78,
      "start": 77.8546,
      "duration": 0.0144,
      "velocity": 99,
      "chip": "ym2612"
    },
    {
      "channel": 1,
      "note": 78,
      "start": 77.8683,
      "duration": 0.0143,
      "velocity": 99,
      "chip": "ym2612"
    },
    {
      "channel": 2,
      "note": 78,
      "start": 77.869,
      "duration": 0.0143,
      "velocity": 99,
      "chip": "ym2612"
    },
    {
      "channel": 1,
      "note": 78,
      "start": 77.8826,
      "duration": 0.0146,
      "velocity": 99,
      "chip": "ym2612"
    },
    {
      "channel": 2,
      "note": 78,
      "start": 77.8833,
      "duration": 0.0144,
      "velocity": 99,
      "chip": "ym2612"
    },
    {
      "channel": 1,
      "note": 78,
      "start": 77.8973,
      "duration": 0.0144,
      "velocity": 99,
      "chip": "ym2612"
    },
    {
      "channel": 2,
      "note": 78,
      "start": 77.8978,
      "duration": 0.0146,
      "velocity": 99,
      "chip": "ym2612"
    },
    {
      "channel": 1,
      "note": 78,
      "start": 77.9117,
      "duration": 0.0144,
      "velocity": 99,
      "chip": "ym2612"
    },
    {
      "channel": 2,
      "note": 78,
      "start": 77.9124,
      "duration": 0.0144,
      "velocity": 99,
      "chip": "ym2612"
    },
    {
      "channel": 1,
      "note": 78,
      "start": 77.9261,
      "duration": 0.0143,
      "velocity": 99,
      "chip": "ym2612"
    },
    {
      "channel": 2,
      "note": 78,
      "start": 77.9268,
      "duration": 0.0143,
      "velocity": 99,
      "chip": "ym2612"
    },
    {
      "channel": 1,
      "note": 78,
      "start": 77.9405,
      "duration": 0.0146,
      "velocity": 99,
      "chip": "ym2612"
    },
    {
      "channel": 2,
      "note": 78,
      "start": 77.9412,
      "duration": 0.0146,
      "velocity": 99,
      "chip": "ym2612"
    },
    {
      "channel": 1,
      "note": 78,
      "start": 77.955,
      "duration": 0.0145,
      "velocity": 99,
      "chip": "ym2612"
    },
    {
      "channel": 2,
      "note": 78,
      "start": 77.9557,
      "duration": 0.0143,
      "velocity": 99,
      "chip": "ym2612"
    },
    {
      "channel": 1,
      "note": 78,
      "start": 77.9695,
      "duration": 0.0144,
      "velocity": 99,
      "chip": "ym2612"
    },
    {
      "channel": 2,
      "note": 78,
      "start": 77.97,
      "duration": 0.0146,
      "velocity": 99,
      "chip": "ym2612"
    },
    {
      "channel": 1,
      "note": 78,
      "start": 77.984,
      "duration": 0.0145,
      "velocity": 99,
      "chip": "ym2612"
    },
    {
      "channel": 2,
      "note": 78,
      "start": 77.9846,
      "duration": 0.0148,
      "velocity": 99,
      "chip": "ym2612"
    },
    {
      "channel": 0,
      "note": 47,
      "start": 77.9983,
      "duration": 0.1421,
      "velocity": 95,
      "chip": "ym2612"
    },
    {
      "channel": 1,
      "note": 75,
      "start": 77.9989,
      "duration": 0.3158,
      "velocity": 99,
      "chip": "ym2612"
    },
    {
      "channel": 2,
      "note": 78,
      "start": 77.9994,
      "duration": 0.0048,
      "velocity": 99,
      "chip": "ym2612"
    },
    {
      "channel": 3,
      "note": 66,
      "start": 78.0,
      "duration": 1.0154,
      "velocity": 89,
      "chip": "ym2612"
    },
    {
      "channel": 4,
      "note": 63,
      "start": 78.0006,
      "duration": 1.0154,
      "velocity": 89,
      "chip": "ym2612"
    },
    {
      "channel": 2,
      "note": 78,
      "start": 78.0042,
      "duration": 0.0028,
      "velocity": 99,
      "chip": "ym2612"
    },
    {
      "channel": 2,
      "note": 78,
      "start": 78.007,
      "duration": 0.0045,
      "velocity": 99,
      "chip": "ym2612"
    },
    {
      "channel": 2,
      "note": 78,
      "start": 78.0115,
      "duration": 0.0145,
      "velocity": 99,
      "chip": "ym2612"
    },
    {
      "channel": 2,
      "note": 78,
      "start": 78.026,
      "duration": 0.0144,
      "velocity": 99,
      "chip": "ym2612"
    },
    {
      "channel": 2,
      "note": 78,
      "start": 78.0404,
      "duration": 0.0139,
      "velocity": 99,
      "chip": "ym2612"
    },
    {
      "channel": 2,
      "note": 75,
      "start": 78.0547,
      "duration": 0.2787,
      "velocity": 99,
      "chip": "ym2612"
    },
    {
      "channel": 0,
      "note": 47,
      "start": 78.1409,
      "duration": 0.1729,
      "velocity": 95,
      "chip": "ym2612"
    },
    {
      "channel": 0,
      "note": 47,
      "start": 78.3142,
      "duration": 0.0373,
      "velocity": 95,
      "chip": "ym2612"
    },
    {
      "channel": 1,
      "note": 75,
      "start": 78.3147,
      "duration": 0.0031,
      "velocity": 99,
      "chip": "ym2612"
    },
    {
      "channel": 1,
      "note": 75,
      "start": 78.3178,
      "duration": 0.003,
      "velocity": 99,
      "chip": "ym2612"
    },
    {
      "channel": 1,
      "note": 75,
      "start": 78.3208,
      "duration": 0.003,
      "velocity": 99,
      "chip": "ym2612"
    },
    {
      "channel": 1,
      "note": 75,
      "start": 78.3238,
      "duration": 0.003,
      "velocity": 99,
      "chip": "ym2612"
    },
    {
      "channel": 1,
      "note": 75,
      "start": 78.3268,
      "duration": 0.0029,
      "velocity": 99,
      "chip": "ym2612"
    },
    {
      "channel": 1,
      "note": 75,
      "start": 78.3296,
      "duration": 0.0031,
      "velocity": 99,
      "chip": "ym2612"
    },
    {
      "channel": 1,
      "note": 75,
      "start": 78.3327,
      "duration": 0.003,
      "velocity": 99,
      "chip": "ym2612"
    },
    {
      "channel": 2,
      "note": 75,
      "start": 78.3334,
      "duration": 0.0028,
      "velocity": 99,
      "chip": "ym2612"
    },
    {
      "channel": 1,
      "note": 75,
      "start": 78.3357,
      "duration": 0.0032,
      "velocity": 99,
      "chip": "ym2612"
    },
    {
      "channel": 2,
      "note": 75,
      "start": 78.3362,
      "duration": 0.0034,
      "velocity": 99,
      "chip": "ym2612"
    },
    {
      "channel": 1,
      "note": 75,
      "start": 78.3389,
      "duration": 0.0034,
      "velocity": 99,
      "chip": "ym2612"
    },
    {
      "channel": 2,
      "note": 75,
      "start": 78.3396,
      "duration": 0.0033,
      "velocity": 99,
      "chip": "ym2612"
    },
    {
      "channel": 1,
      "note": 75,
      "start": 78.3423,
      "duration": 0.0032,
      "velocity": 99,
      "chip": "ym2612"
    },
    {
      "channel": 2,
      "note": 75,
      "start": 78.3429,
      "duration": 0.0032,
      "velocity": 99,
      "chip": "ym2612"
    },
    {
      "channel": 1,
      "note": 75,
      "start": 78.3455,
      "duration": 0.0035,
      "velocity": 99,
      "chip": "ym2612"
    },
    {
      "channel": 2,
      "note": 75,
      "start": 78.3462,
      "duration": 0.0033,
      "velocity": 99,
      "chip": "ym2612"
    },
    {
      "channel": 1,
      "note": 75,
      "start": 78.3489,
      "duration": 0.0034,
      "velocity": 99,
      "chip": "ym2612"
    },
    {
      "channel": 2,
      "note": 75,
      "start": 78.3495,
      "duration": 0.0034,
      "velocity": 99,
      "chip": "ym2612"
    },
    {
      "channel": 0,
      "note": 47,
      "start": 78.3519,
      "duration": 0.1537,
      "velocity": 95,
      "chip": "ym2612"
    },
    {
      "channel": 1,
      "note": 75,
      "start": 78.3524,
      "duration": 0.0029,
      "velocity": 99,
      "chip": "ym2612"
    },
    {
      "channel": 2,
      "note": 75,
      "start": 78.3529,
      "duration": 0.0031,
      "velocity": 99,
      "chip": "ym2612"
    },
    {
      "channel": 1,
      "note": 75,
      "start": 78.3553,
      "duration": 0.0066,
      "velocity": 99,
      "chip": "ym2612"
    },
    {
      "channel": 2,
      "note": 75,
      "start": 78.356,
      "duration": 0.0066,
      "velocity": 99,
      "chip": "ym2612"
    },
    {
      "channel": 1,
      "note": 75,
      "start": 78.3618,
      "duration": 0.0146,
      "velocity": 99,
      "chip": "ym2612"
    },
    {
      "channel": 2,
      "note": 75,
      "start": 78.3625,
      "duration": 0.0146,
      "velocity": 99,
      "chip": "ym2612"
    },
    {
      "channel": 1,
      "note": 75,
      "start": 78.3765,
      "duration": 0.0144,
      "velocity": 99,
      "chip": "ym2612"
    },
    {
      "channel": 2,
      "note": 75,
      "start": 78.3772,
      "duration": 0.0142,
      "velocity": 99,
      "chip": "ym2612"
    },
    {
      "channel": 1,
      "note": 75,
      "start": 78.3909,
      "duration": 0.0144,
      "velocity": 99,
      "chip": "ym2612"
    },
    {
      "channel": 2,
      "note": 75,
      "start": 78.3914,
      "duration": 0.0146,
      "velocity": 99,
      "chip": "ym2612"
    },
    {
      "channel": 1,
      "note": 75,
      "start": 78.4054,
      "duration": 0.0144,
      "velocity": 99,
      "chip": "ym2612"
    },
    {
      "channel": 2,
      "note": 75,
      "start": 78.406,
      "duration": 0.0144,
      "velocity": 99,
      "chip": "ym2612"
    },
    {
      "channel": 1,
      "note": 75,
      "start": 78.4198,
      "duration": 0.0143,
      "velocity": 99,
      "chip": "ym2612"
    },
    {
      "channel": 2,
      "note": 75,
      "start": 78.4205,
      "duration": 0.0143,
      "velocity": 99,
      "chip": "ym2612"
    },
    {
      "channel": 1,
      "note": 75,
      "start": 78.4341,
      "duration": 0.0146,
      "velocity": 99,
      "chip": "ym2612"
    },
    {
      "channel": 2,
      "note": 75,
      "start": 78.4347,
      "duration": 0.0145,
      "velocity": 99,
      "chip": "ym2612"
    },
    {
      "channel": 1,
      "note": 75,
      "start": 78.4487,
      "duration": 0.0144,
      "velocity": 99,
      "chip": "ym2612"
    },
    {
      "channel": 2,
      "note": 75,
      "start": 78.4492,
      "duration": 0.0146,
      "velocity": 99,
      "chip": "ym2612"
    },
    {
      "channel": 1,
      "note": 75,
      "start": 78.4631,
      "duration": 0.0144,
      "velocity": 99,
      "chip": "ym2612"
    },
    {
      "channel": 2,
      "note": 75,
      "start": 78.4638,
      "duration": 0.0144,
      "velocity": 99,
      "chip": "ym2612"
    },
    {
      "channel": 1,
      "note": 75,
      "start": 78.4776,
      "duration": 0.0143,
      "velocity": 99,
      "chip": "ym2612"
    },
    {
      "channel": 2,
      "note": 75,
      "start": 78.4782,
      "duration": 0.0143,
      "velocity": 99,
      "chip": "ym2612"
    },
    {
      "channel": 1,
      "note": 75,
      "start": 78.4919,
      "duration": 0.0144,
      "velocity": 99,
      "chip": "ym2612"
    },
    {
      "channel": 2,
      "note": 75,
      "start": 78.4926,
      "duration": 0.0146,
      "velocity": 99,
      "chip": "ym2612"
    },
    {
      "channel": 0,
      "note": 47,
      "start": 78.5061,
      "duration": 0.1424,
      "velocity": 95,
      "chip": "ym2612"
    },
    {
      "channel": 1,
      "note": 77,
      "start": 78.5067,
      "duration": 0.3157,
      "velocity": 99,
      "chip": "ym2612"
    },
    {
      "channel": 2,
      "note": 75,
      "start": 78.5072,
      "duration": 0.0034,
      "velocity": 99,
      "chip": "ym2612"
    },
    {
      "channel": 2,
      "note": 75,
      "start": 78.5105,
      "duration": 0.0029,
      "velocity": 99,
      "chip": "ym2612"
    },
    {
      "channel": 2,
      "note": 75,
      "start": 78.5135,
      "duration": 0.0061,
      "velocity": 99,
      "chip": "ym2612"
    },
    {
      "channel": 2,
      "note": 75,
      "start": 78.5196,
      "duration": 0.0144,
      "velocity": 99,
      "chip": "ym2612"
    },
    {
      "channel": 2,
      "note": 75,
      "start": 78.534,
      "duration": 0.0143,
      "velocity": 99,
      "chip": "ym2612"
    },
    {
      "channel": 2,
      "note": 75,
      "start": 78.5483,
      "duration": 0.0141,
      "velocity": 99,
      "chip": "ym2612"
    },
    {
      "channel": 2,
      "note": 77,
      "start": 78.5629,
      "duration": 0.2756,
      "velocity": 99,
      "chip": "ym2612"
    },
    {
      "channel": 0,
      "note": 47,
      "start": 78.6489,
      "duration": 0.1729,
      "velocity": 95,
      "chip": "ym2612"
    },
    {
      "channel": 0,
      "note": 47,
      "start": 78.8222,
      "duration": 0.0313,
      "velocity": 95,
      "chip": "ym2612"
    },
    {
      "channel": 1,
      "note": 78,
      "start": 78.8228,
      "duration": 0.1917,
      "velocity": 99,
      "chip": "ym2612"
    },
    {
      "channel": 2,
      "note": 78,
      "start": 78.839,
      "duration": 0.2313,
      "velocity": 99,
      "chip": "ym2612"
    },
    {
      "channel": 0,
      "note": 47,
      "start": 78.854,
      "duration": 0.1599,
      "velocity": 95,
      "chip": "ym2612"
    },
    {
      "channel": 0,
      "note": 49,
      "start": 79.0143,
      "duration": 0.142,
      "velocity": 95,
      "chip": "ym2612"
    },
    {
      "channel": 1,
      "note": 80,
      "start": 79.015,
      "duration": 0.3156,
      "velocity": 99,
      "chip": "ym2612"
    },
    {
      "channel": 3,
      "note": 68,
      "start": 79.0158,
      "duration": 1.0156,
      "velocity": 89,
      "chip": "ym2612"
    },
    {
      "channel": 4,
      "note": 65,
      "start": 79.0164,
      "duration": 1.0156,
      "velocity": 89,
      "chip": "ym2612"
    },
    {
      "channel": 2,
      "note": 80,
      "start": 79.0708,
      "duration": 0.278,
      "velocity": 99,
      "chip": "ym2612"
    },
    {
      "channel": 0,
      "note": 49,
      "start": 79.1567,
      "duration": 0.1729,
      "velocity": 95,
      "chip": "ym2612"
    },
    {
      "channel": 0,
      "note": 49,
      "start": 79.3301,
      "duration": 0.0366,
      "velocity": 95,
      "chip": "ym2612"
    },
    {
      "channel": 1,
      "note": 80,
      "start": 79.3306,
      "duration": 0.0032,
      "velocity": 99,
      "chip": "ym2612"
    },
    {
      "channel": 1,
      "note": 80,
      "start": 79.3337,
      "duration": 0.003,
      "velocity": 99,
      "chip": "ym2612"
    },
    {
      "channel": 1,
      "note": 80,
      "start": 79.3367,
      "duration": 0.0025,
      "velocity": 99,
      "chip": "ym2612"
    },
    {
      "channel": 1,
      "note": 80,
      "start": 79.3392,
      "duration": 0.0031,
      "velocity": 99,
      "chip": "ym2612"
    },
    {
      "channel": 1,
      "note": 80,
      "start": 79.3422,
      "duration": 0.0028,
      "velocity": 99,
      "chip": "ym2612"
    },
    {
      "channel": 1,
      "note": 80,
      "start": 79.3451,
      "duration": 0.003,
      "velocity": 99,
      "chip": "ym2612"
    },
    {
      "channel": 1,
      "note": 80,
      "start": 79.3481,
      "duration": 0.0034,
      "velocity": 99,
      "chip": "ym2612"
    },
    {
      "channel": 2,
      "note": 81,
      "start": 79.3488,
      "duration": 0.0032,
      "velocity": 99,
      "chip": "ym2612"
    },
    {
      "channel": 1,
      "note": 80,
      "start": 79.3515,
      "duration": 0.0032,
      "velocity": 99,
      "chip": "ym2612"
    },
    {
      "channel": 2,
      "note": 80,
      "start": 79.352,
      "duration": 0.0034,
      "velocity": 99,
      "chip": "ym2612"
    },
    {
      "channel": 1,
      "note": 80,
      "start": 79.3547,
      "duration": 0.0033,
      "velocity": 99,
      "chip": "ym2612"
    },
    {
      "channel": 2,
      "note": 80,
      "start": 79.3553,
      "duration": 0.0033,
      "velocity": 99,
      "chip": "ym2612"
    },
    {
      "channel": 1,
      "note": 80,
      "start": 79.358,
      "duration": 0.0032,
      "velocity": 99,
      "chip": "ym2612"
    },
    {
      "channel": 2,
      "note": 80,
      "start": 79.3587,
      "duration": 0.0032,
      "velocity": 99,
      "chip": "ym2612"
    },
    {
      "channel": 1,
      "note": 80,
      "start": 79.3613,
      "duration": 0.0029,
      "velocity": 99,
      "chip": "ym2612"
    },
    {
      "channel": 2,
      "note": 80,
      "start": 79.3619,
      "duration": 0.0028,
      "velocity": 99,
      "chip": "ym2612"
    },
    {
      "channel": 1,
      "note": 80,
      "start": 79.3642,
      "duration": 0.0034,
      "velocity": 99,
      "chip": "ym2612"
    },
    {
      "channel": 2,
      "note": 80,
      "start": 79.3647,
      "duration": 0.0034,
      "velocity": 99,
      "chip": "ym2612"
    },
    {
      "channel": 0,
      "note": 49,
      "start": 79.3671,
      "duration": 0.1543,
      "velocity": 95,
      "chip": "ym2612"
    },
    {
      "channel": 1,
      "note": 80,
      "start": 79.3676,
      "duration": 0.0029,
      "velocity": 99,
      "chip": "ym2612"
    },
    {
      "channel": 2,
      "note": 81,
      "start": 79.368,
      "duration": 0.003,
      "velocity": 99,
      "chip": "ym2612"
    },
    {
      "channel": 1,
      "note": 80,
      "start": 79.3705,
      "duration": 0.0071,
      "velocity": 99,
      "chip": "ym2612"
    },
    {
      "channel": 2,
      "note": 81,
      "start": 79.3711,
      "duration": 0.0072,
      "velocity": 99,
      "chip": "ym2612"
    },
    {
      "channel": 1,
      "note": 80,
      "start": 79.3776,
      "duration": 0.0146,
      "velocity": 99,
      "chip": "ym2612"
    },
    {
      "channel": 2,
      "note": 81,
      "start": 79.3783,
      "duration": 0.0146,
      "velocity": 99,
      "chip": "ym2612"
    },
    {
      "channel": 1,
      "note": 80,
      "start": 79.3922,
      "duration": 0.0144,
      "velocity": 99,
      "chip": "ym2612"
    },
    {
      "channel": 2,
      "note": 81,
      "start": 79.3928,
      "duration": 0.0143,
      "velocity": 99,
      "chip": "ym2612"
    },
    {
      "channel": 1,
      "note": 80,
      "start": 79.4066,
      "duration": 0.0144,
      "velocity": 99,
      "chip": "ym2612"
    },
    {
      "channel": 2,
      "note": 80,
      "start": 79.4071,
      "duration": 0.0146,
      "velocity": 99,
      "chip": "ym2612"
    },
    {
      "channel": 1,
      "note": 80,
      "start": 79.4211,
      "duration": 0.0144,
      "velocity": 99,
      "chip": "ym2612"
    },
    {
      "channel": 2,
      "note": 80,
      "start": 79.4217,
      "duration": 0.0144,
      "velocity": 99,
      "chip": "ym2612"
    },
    {
      "channel": 1,
      "note": 80,
      "start": 79.4355,
      "duration": 0.0143,
      "velocity": 99,
      "chip": "ym2612"
    },
    {
      "channel": 2,
      "note": 80,
      "start": 79.4361,
      "duration": 0.0144,
      "velocity": 99,
      "chip": "ym2612"
    },
    {
      "channel": 1,
      "note": 80,
      "start": 79.4498,
      "duration": 0.0145,
      "velocity": 99,
      "chip": "ym2612"
    },
    {
      "channel": 2,
      "note": 80,
      "start": 79.4505,
      "duration": 0.0144,
      "velocity": 99,
      "chip": "ym2612"
    },
    {
      "channel": 1,
      "note": 80,
      "start": 79.4643,
      "duration": 0.0145,
      "velocity": 99,
      "chip": "ym2612"
    },
    {
      "channel": 2,
      "note": 80,
      "start": 79.4649,
      "duration": 0.0146,
      "velocity": 99,
      "chip": "ym2612"
    },
    {
      "channel": 1,
      "note": 80,
      "start": 79.4788,
      "duration": 0.0144,
      "velocity": 99,
      "chip": "ym2612"
    },
    {
      "channel": 2,
      "note": 81,
      "start": 79.4795,
      "duration": 0.0144,
      "velocity": 99,
      "chip": "ym2612"
    },
    {
      "channel": 1,
      "note": 80,
      "start": 79.4932,
      "duration": 0.0144,
      "velocity": 99,
      "chip": "ym2612"
    },
    {
      "channel": 2,
      "note": 81,
      "start": 79.4939,
      "duration": 0.0144,
      "velocity": 99,
      "chip": "ym2612"
    },
    {
      "channel": 1,
      "note": 80,
      "start": 79.5076,
      "duration": 0.0147,
      "velocity": 99,
      "chip": "ym2612"
    },
    {
      "channel": 2,
      "note": 81,
      "start": 79.5083,
      "duration": 0.0145,
      "velocity": 99,
      "chip": "ym2612"
    },
    {
      "channel": 0,
      "note": 49,
      "start": 79.5218,
      "duration": 0.1423,
      "velocity": 95,
      "chip": "ym2612"
    },
    {
      "channel": 1,
      "note": 80,
      "start": 79.5223,
      "duration": 0.0037,
      "velocity": 99,
      "chip": "ym2612"
    },
    {
      "channel": 2,
      "note": 81,
      "start": 79.5228,
      "duration": 0.0037,
      "velocity": 99,
      "chip": "ym2612"
    },
    {
      "channel": 1,
      "note": 80,
      "start": 79.526,
      "duration": 0.0028,
      "velocity": 99,
      "chip": "ym2612"
    },
    {
      "channel": 2,
      "note": 80,
      "start": 79.5265,
      "duration": 0.0029,
      "velocity": 99,
      "chip": "ym2612"
    },
    {
      "channel": 1,
      "note": 80,
      "start": 79.5288,
      "duration": 0.0062,
      "velocity": 99,
      "chip": "ym2612"
    },
    {
      "channel": 2,
      "note": 80,
      "start": 79.5294,
      "duration": 0.0062,
      "velocity": 99,
      "chip": "ym2612"
    },
    {
      "channel": 1,
      "note": 80,
      "start": 79.5349,
      "duration": 0.0142,
      "velocity": 99,
      "chip": "ym2612"
    },
    {
      "channel": 2,
      "note": 80,
      "start": 79.5356,
      "duration": 0.0143,
      "velocity": 99,
      "chip": "ym2612"
    },
    {
      "channel": 1,
      "note": 80,
      "start": 79.5492,
      "duration": 0.0146,
      "velocity": 99,
      "chip": "ym2612"
    },
    {
      "channel": 2,
      "note": 80,
      "start": 79.5499,
      "duration": 0.0144,
      "velocity": 99,
      "chip": "ym2612"
    },
    {
      "channel": 1,
      "note": 80,
      "start": 79.5637,
      "duration": 0.0145,
      "velocity": 99,
      "chip": "ym2612"
    },
    {
      "channel": 2,
      "note": 80,
      "start": 79.5643,
      "duration": 0.0146,
      "velocity": 99,
      "chip": "ym2612"
    },
    {
      "channel": 1,
      "note": 80,
      "start": 79.5782,
      "duration": 0.0144,
      "velocity": 99,
      "chip": "ym2612"
    },
    {
      "channel": 2,
      "note": 81,
      "start": 79.5789,
      "duration": 0.0144,
      "velocity": 99,
      "chip": "ym2612"
    },
    {
      "channel": 1,
      "note": 80,
      "start": 79.5927,
      "duration": 0.0143,
      "velocity": 99,
      "chip": "ym2612"
    },
    {
      "channel": 2,
      "note": 81,
      "start": 79.5934,
      "duration": 0.0143,
      "velocity": 99,
      "chip": "ym2612"
    },
    {
      "channel": 1,
      "note": 80,
      "start": 79.607,
      "duration": 0.0147,
      "velocity": 99,
      "chip": "ym2612"
    },
    {
      "channel": 2,
      "note": 81,
      "start": 79.6077,
      "duration": 0.0147,
      "velocity": 99,
      "chip": "ym2612"
    },
    {
      "channel": 1,
      "note": 80,
      "start": 79.6217,
      "duration": 0.0143,
      "velocity": 99,
      "chip": "ym2612"
    },
    {
      "channel": 2,
      "note": 81,
      "start": 79.6224,
      "duration": 0.0142,
      "velocity": 99,
      "chip": "ym2612"
    },
    {
      "channel": 1,
      "note": 80,
      "start": 79.636,
      "duration": 0.0144,
      "velocity": 99,
      "chip": "ym2612"
    },
    {
      "channel": 2,
      "note": 80,
      "start": 79.6366,
      "duration": 0.0146,
      "velocity": 99,
      "chip": "ym2612"
    },
    {
      "channel": 1,
      "note": 80,
      "start": 79.6504,
      "duration": 0.0146,
      "velocity": 99,
      "chip": "ym2612"
    },
    {
      "channel": 2,
      "note": 80,
      "start": 79.6511,
      "duration": 0.0144,
      "velocity": 99,
      "chip": "ym2612"
    },
    {
      "channel": 0,
      "note": 49,
      "start": 79.6646,
      "duration": 0.1729,
      "velocity": 95,
      "chip": "ym2612"
    },
    {
      "channel": 1,
      "note": 80,
      "start": 79.665,
      "duration": 0.0142,
      "velocity": 99,
      "chip": "ym2612"
    },
    {
      "channel": 2,
      "note": 80,
      "start": 79.6655,
      "duration": 0.0144,
      "velocity": 99,
      "chip": "ym2612"
    },
    {
      "channel": 1,
      "note": 80,
      "start": 79.6792,
      "duration": 0.0146,
      "velocity": 99,
      "chip": "ym2612"
    },
    {
      "channel": 2,
      "note": 80,
      "start": 79.6799,
      "duration": 0.0144,
      "velocity": 99,
      "chip": "ym2612"
    },
    {
      "channel": 1,
      "note": 80,
      "start": 79.6938,
      "duration": 0.0145,
      "velocity": 99,
      "chip": "ym2612"
    },
    {
      "channel": 2,
      "note": 80,
      "start": 79.6943,
      "duration": 0.0146,
      "velocity": 99,
      "chip": "ym2612"
    },
    {
      "channel": 1,
      "note": 80,
      "start": 79.7083,
      "duration": 0.0144,
      "velocity": 99,
      "chip": "ym2612"
    },
    {
      "channel": 2,
      "note": 81,
      "start": 79.709,
      "duration": 0.0144,
      "velocity": 99,
      "chip": "ym2612"
    },
    {
      "channel": 1,
      "note": 80,
      "start": 79.7226,
      "duration": 0.0143,
      "velocity": 99,
      "chip": "ym2612"
    },
    {
      "channel": 2,
      "note": 81,
      "start": 79.7233,
      "duration": 0.0143,
      "velocity": 99,
      "chip": "ym2612"
    },
    {
      "channel": 1,
      "note": 80,
      "start": 79.737,
      "duration": 0.0146,
      "velocity": 99,
      "chip": "ym2612"
    },
    {
      "channel": 2,
      "note": 81,
      "start": 79.7376,
      "duration": 0.0146,
      "velocity": 99,
      "chip": "ym2612"
    },
    {
      "channel": 1,
      "note": 80,
      "start": 79.7515,
      "duration": 0.0145,
      "velocity": 99,
      "chip": "ym2612"
    },
    {
      "channel": 2,
      "note": 81,
      "start": 79.7522,
      "duration": 0.0144,
      "velocity": 99,
      "chip": "ym2612"
    },
    {
      "channel": 1,
      "note": 80,
      "start": 79.766,
      "duration": 0.0144,
      "velocity": 99,
      "chip": "ym2612"
    },
    {
      "channel": 2,
      "note": 80,
      "start": 79.7666,
      "duration": 0.0146,
      "velocity": 99,
      "chip": "ym2612"
    },
    {
      "channel": 1,
      "note": 80,
      "start": 79.7805,
      "duration": 0.0144,
      "velocity": 99,
      "chip": "ym2612"
    },
    {
      "channel": 2,
      "note": 80,
      "start": 79.7812,
      "duration": 0.0144,
      "velocity": 99,
      "chip": "ym2612"
    },
    {
      "channel": 1,
      "note": 80,
      "start": 79.7949,
      "duration": 0.0143,
      "velocity": 99,
      "chip": "ym2612"
    },
    {
      "channel": 2,
      "note": 80,
      "start": 79.7956,
      "duration": 0.0142,
      "velocity": 99,
      "chip": "ym2612"
    },
    {
      "channel": 1,
      "note": 80,
      "start": 79.8092,
      "duration": 0.0146,
      "velocity": 99,
      "chip": "ym2612"
    },
    {
      "channel": 2,
      "note": 80,
      "start": 79.8098,
      "duration": 0.0144,
      "velocity": 99,
      "chip": "ym2612"
    },
    {
      "channel": 1,
      "note": 80,
      "start": 79.8238,
      "duration": 0.0146,
      "velocity": 99,
      "chip": "ym2612"
    },
    {
      "channel": 2,
      "note": 80,
      "start": 79.8243,
      "duration": 0.0146,
      "velocity": 99,
      "chip": "ym2612"
    },
    {
      "channel": 0,
      "note": 49,
      "start": 79.8379,
      "duration": 0.0391,
      "velocity": 95,
      "chip": "ym2612"
    },
    {
      "channel": 1,
      "note": 80,
      "start": 79.8383,
      "duration": 0.0032,
      "velocity": 99,
      "chip": "ym2612"
    },
    {
      "channel": 2,
      "note": 81,
      "start": 79.8389,
      "duration": 0.0034,
      "velocity": 99,
      "chip": "ym2612"
    },
    {
      "channel": 1,
      "note": 80,
      "start": 79.8416,
      "duration": 0.0033,
      "velocity": 99,
      "chip": "ym2612"
    },
    {
      "channel": 2,
      "note": 81,
      "start": 79.8423,
      "duration": 0.0033,
      "velocity": 99,
      "chip": "ym2612"
    },
    {
      "channel": 1,
      "note": 80,
      "start": 79.8449,
      "duration": 0.0034,
      "velocity": 99,
      "chip": "ym2612"
    },
    {
      "channel": 2,
      "note": 81,
      "start": 79.8456,
      "duration": 0.0034,
      "velocity": 99,
      "chip": "ym2612"
    },
    {
      "channel": 1,
      "note": 80,
      "start": 79.8483,
      "duration": 0.0034,
      "velocity": 99,
      "chip": "ym2612"
    },
    {
      "channel": 2,
      "note": 81,
      "start": 79.849,
      "duration": 0.0033,
      "velocity": 99,
      "chip": "ym2612"
    },
    {
      "channel": 1,
      "note": 80,
      "start": 79.8517,
      "duration": 0.0032,
      "velocity": 99,
      "chip": "ym2612"
    },
    {
      "channel": 2,
      "note": 80,
      "start": 79.8522,
      "duration": 0.0033,
      "velocity": 99,
      "chip": "ym2612"
    },
    {
      "channel": 1,
      "note": 80,
      "start": 79.8549,
      "duration": 0.0034,
      "velocity": 99,
      "chip": "ym2612"
    },
    {
      "channel": 2,
      "note": 80,
      "start": 79.8556,
      "duration": 0.0034,
      "velocity": 99,
      "chip": "ym2612"
    },
    {
      "channel": 1,
      "note": 80,
      "start": 79.8583,
      "duration": 0.0033,
      "velocity": 99,
      "chip": "ym2612"
    },
    {
      "channel": 2,
      "note": 80,
      "start": 79.859,
      "duration": 0.0033,
      "velocity": 99,
      "chip": "ym2612"
    },
    {
      "channel": 1,
      "note": 80,
      "start": 79.8616,
      "duration": 0.0034,
      "velocity": 99,
      "chip": "ym2612"
    },
    {
      "channel": 2,
      "note": 80,
      "start": 79.8622,
      "duration": 0.0033,
      "velocity": 99,
      "chip": "ym2612"
    },
    {
      "channel": 1,
      "note": 80,
      "start": 79.865,
      "duration": 0.0027,
      "velocity": 99,
      "chip": "ym2612"
    },
    {
      "channel": 2,
      "note": 80,
      "start": 79.8655,
      "duration": 0.0029,
      "velocity": 99,
      "chip": "ym2612"
    },
    {
      "channel": 1,
      "note": 80,
      "start": 79.8678,
      "duration": 0.0034,
      "velocity": 99,
      "chip": "ym2612"
    },
    {
      "channel": 2,
      "note": 81,
      "start": 79.8685,
      "duration": 0.0034,
      "velocity": 99,
      "chip": "ym2612"
    },
    {
      "channel": 1,
      "note": 80,
      "start": 79.8712,
      "duration": 0.0033,
      "velocity": 99,
      "chip": "ym2612"
    },
    {
      "channel": 2,
      "note": 81,
      "start": 79.8718,
      "duration": 0.0033,
      "velocity": 99,
      "chip": "ym2612"
    },
    {
      "channel": 1,
      "note": 80,
      "start": 79.8745,
      "duration": 0.0035,
      "velocity": 99,
      "chip": "ym2612"
    },
    {
      "channel": 2,
      "note": 81,
      "start": 79.8751,
      "duration": 0.0033,
      "velocity": 99,
      "chip": "ym2612"
    },
    {
      "channel": 0,
      "note": 49,
      "start": 79.8774,
      "duration": 0.1523,
      "velocity": 95,
      "chip": "ym2612"
    },
    {
      "channel": 1,
      "note": 80,
      "start": 79.878,
      "duration": 0.0029,
      "velocity": 99,
      "chip": "ym2612"
    },
    {
      "channel": 2,
      "note": 81,
      "start": 79.8784,
      "duration": 0.003,
      "velocity": 99,
      "chip": "ym2612"
    },
    {
      "channel": 1,
      "note": 80,
      "start": 79.8808,
      "duration": 0.005,
      "velocity": 99,
      "chip": "ym2612"
    },
    {
      "channel": 2,
      "note": 80,
      "start": 79.8814,
      "duration": 0.0051,
      "velocity": 99,
      "chip": "ym2612"
    },
    {
      "channel": 1,
      "note": 80,
      "start": 79.8859,
      "duration": 0.0144,
      "velocity": 99,
      "chip": "ym2612"
    },
    {
      "channel": 2,
      "note": 80,
      "start": 79.8865,
      "duration": 0.0144,
      "velocity": 99,
      "chip": "ym2612"
    },
    {
      "channel": 1,
      "note": 80,
      "start": 79.9002,
      "duration": 0.0144,
      "velocity": 99,
      "chip": "ym2612"
    },
    {
      "channel": 2,
      "note": 80,
      "start": 79.9009,
      "duration": 0.0144,
      "velocity": 99,
      "chip": "ym2612"
    },
    {
      "channel": 1,
      "note": 80,
      "start": 79.9146,
      "duration": 0.0145,
      "velocity": 99,
      "chip": "ym2612"
    },
    {
      "channel": 2,
      "note": 80,
      "start": 79.9153,
      "duration": 0.0144,
      "velocity": 99,
      "chip": "ym2612"
    },
    {
      "channel": 1,
      "note": 80,
      "start": 79.9291,
      "duration": 0.0145,
      "velocity": 99,
      "chip": "ym2612"
    },
    {
      "channel": 2,
      "note": 80,
      "start": 79.9297,
      "duration": 0.0146,
      "velocity": 99,
      "chip": "ym2612"
    },
    {
      "channel": 1,
      "note": 80,
      "start": 79.9436,
      "duration": 0.0144,
      "velocity": 99,
      "chip": "ym2612"
    },
    {
      "channel": 2,
      "note": 81,
      "start": 79.9443,
      "duration": 0.0144,
      "velocity": 99,
      "chip": "ym2612"
    },
    {
      "channel": 1,
      "note": 80,
      "start": 79.958,
      "duration": 0.0143,
      "velocity": 99,
      "chip": "ym2612"
    },
    {
      "channel": 2,
      "note": 81,
      "start": 79.9588,
      "duration": 0.0143,
      "velocity": 99,
      "chip": "ym2612"
    },
    {
      "channel": 1,
      "note": 80,
      "start": 79.9724,
      "duration": 0.0146,
      "velocity": 99,
      "chip": "ym2612"
    },
    {
      "channel": 2,
      "note": 81,
      "start": 79.9731,
      "duration": 0.0146,
      "velocity": 99,
      "chip": "ym2612"
    },
    {
      "channel": 1,
      "note": 80,
      "start": 79.9869,
      "duration": 0.0145,
      "velocity": 99,
      "chip": "ym2612"
    },
    {
      "channel": 2,
      "note": 81,
      "start": 79.9876,
      "duration": 0.0143,
      "velocity": 99,
      "chip": "ym2612"
    },
    {
      "channel": 1,
      "note": 80,
      "start": 80.0014,
      "duration": 0.0144,
      "velocity": 99,
      "chip": "ym2612"
    },
    {
      "channel": 2,
      "note": 80,
      "start": 80.0019,
      "duration": 0.0146,
      "velocity": 99,
      "chip": "ym2612"
    },
    {
      "channel": 1,
      "note": 80,
      "start": 80.0159,
      "duration": 0.0145,
      "velocity": 99,
      "chip": "ym2612"
    },
    {
      "channel": 2,
      "note": 80,
      "start": 80.0165,
      "duration": 0.0148,
      "velocity": 99,
      "chip": "ym2612"
    },
    {
      "channel": 0,
      "note": 49,
      "start": 80.0302,
      "duration": 0.1422,
      "velocity": 95,
      "chip": "ym2612"
    },
    {
      "channel": 1,
      "note": 85,
      "start": 80.0307,
      "duration": 0.3158,
      "velocity": 99,
      "chip": "ym2612"
    },
    {
      "channel": 2,
      "note": 80,
      "start": 80.0313,
      "duration": 0.0048,
      "velocity": 99,
      "chip": "ym2612"
    },
    {
      "channel": 3,
      "note": 68,
      "start": 80.0319,
      "duration": 1.0153,
      "velocity": 89,
      "chip": "ym2612"
    },
    {
      "channel": 4,
      "note": 65,
      "start": 80.0325,
      "duration": 1.0153,
      "velocity": 89,
      "chip": "ym2612"
    },
    {
      "channel": 2,
      "note": 80,
      "start": 80.0361,
      "duration": 0.0028,
      "velocity": 99,
      "chip": "ym2612"
    },
    {
      "channel": 2,
      "note": 80,
      "start": 80.0389,
      "duration": 0.0046,
      "velocity": 99,
      "chip": "ym2612"
    },
    {
      "channel": 2,
      "note": 81,
      "start": 80.0434,
      "duration": 0.0144,
      "velocity": 99,
      "chip": "ym2612"
    },
    {
      "channel": 2,
      "note": 81,
      "start": 80.0579,
      "duration": 0.0144,
      "velocity": 99,
      "chip": "ym2612"
    },
    {
      "channel": 2,
      "note": 81,
      "start": 80.0723,
      "duration": 0.014,
      "velocity": 99,
      "chip": "ym2612"
    },
    {
      "channel": 2,
      "note": 85,
      "start": 80.0867,
      "duration": 0.2785,
      "velocity": 99,
      "chip": "ym2612"
    },
    {
      "channel": 0,
      "note": 49,
      "start": 80.1728,
      "duration": 0.1729,
      "velocity": 95,
      "chip": "ym2612"
    },
    {
      "channel": 0,
      "note": 49,
      "start": 80.3461,
      "duration": 0.0371,
      "velocity": 95,
      "chip": "ym2612"
    },
    {
      "channel": 1,
      "note": 85,
      "start": 80.3466,
      "duration": 0.0031,
      "velocity": 99,
      "chip": "ym2612"
    },
    {
      "channel": 1,
      "note": 85,
      "start": 80.3497,
      "duration": 0.003,
      "velocity": 99,
      "chip": "ym2612"
    },
    {
      "channel": 1,
      "note": 85,
      "start": 80.3527,
      "duration": 0.003,
      "velocity": 99,
      "chip": "ym2612"
    },
    {
      "channel": 1,
      "note": 85,
      "start": 80.3556,
      "duration": 0.003,
      "velocity": 99,
      "chip": "ym2612"
    },
    {
      "channel": 1,
      "note": 85,
      "start": 80.3586,
      "duration": 0.0028,
      "velocity": 99,
      "chip": "ym2612"
    },
    {
      "channel": 1,
      "note": 85,
      "start": 80.3615,
      "duration": 0.0031,
      "velocity": 99,
      "chip": "ym2612"
    },
    {
      "channel": 1,
      "note": 85,
      "start": 80.3645,
      "duration": 0.003,
      "velocity": 99,
      "chip": "ym2612"
    },
    {
      "channel": 2,
      "note": 85,
      "start": 80.3652,
      "duration": 0.0028,
      "velocity": 99,
      "chip": "ym2612"
    },
    {
      "channel": 1,
      "note": 85,
      "start": 80.3675,
      "duration": 0.0033,
      "velocity": 99,
      "chip": "ym2612"
    },
    {
      "channel": 2,
      "note": 85,
      "start": 80.368,
      "duration": 0.0034,
      "velocity": 99,
      "chip": "ym2612"
    },
    {
      "channel": 1,
      "note": 85,
      "start": 80.3708,
      "duration": 0.0034,
      "velocity": 99,
      "chip": "ym2612"
    },
    {
      "channel": 2,
      "note": 85,
      "start": 80.3714,
      "duration": 0.0034,
      "velocity": 99,
      "chip": "ym2612"
    },
    {
      "channel": 1,
      "note": 85,
      "start": 80.3741,
      "duration": 0.0032,
      "velocity": 99,
      "chip": "ym2612"
    },
    {
      "channel": 2,
      "note": 85,
      "start": 80.3748,
      "duration": 0.0032,
      "velocity": 99,
      "chip": "ym2612"
    },
    {
      "channel": 1,
      "note": 85,
      "start": 80.3774,
      "duration": 0.0034,
      "velocity": 99,
      "chip": "ym2612"
    },
    {
      "channel": 2,
      "note": 85,
      "start": 80.378,
      "duration": 0.0033,
      "velocity": 99,
      "chip": "ym2612"
    },
    {
      "channel": 1,
      "note": 85,
      "start": 80.3808,
      "duration": 0.0033,
      "velocity": 99,
      "chip": "ym2612"
    },
    {
      "channel": 2,
      "note": 85,
      "start": 80.3813,
      "duration": 0.0033,
      "velocity": 99,
      "chip": "ym2612"
    },
    {
      "channel": 0,
      "note": 49,
      "start": 80.3836,
      "duration": 0.1538,
      "velocity": 95,
      "chip": "ym2612"
    },
    {
      "channel": 1,
      "note": 85,
      "start": 80.3841,
      "duration": 0.0029,
      "velocity": 99,
      "chip": "ym2612"
    },
    {
      "channel": 2,
      "note": 85,
      "start": 80.3846,
      "duration": 0.0031,
      "velocity": 99,
      "chip": "ym2612"
    },
    {
      "channel": 1,
      "note": 85,
      "start": 80.387,
      "duration": 0.0067,
      "velocity": 99,
      "chip": "ym2612"
    },
    {
      "channel": 2,
      "note": 85,
      "start": 80.3877,
      "duration": 0.0067,
      "velocity": 99,
      "chip": "ym2612"
    },
    {
      "channel": 1,
      "note": 85,
      "start": 80.3937,
      "duration": 0.0146,
      "velocity": 99,
      "chip": "ym2612"
    },
    {
      "channel": 2,
      "note": 85,
      "start": 80.3944,
      "duration": 0.0146,
      "velocity": 99,
      "chip": "ym2612"
    },
    {
      "channel": 1,
      "note": 85,
      "start": 80.4083,
      "duration": 0.0144,
      "velocity": 99,
      "chip": "ym2612"
    },
    {
      "channel": 2,
      "note": 85,
      "start": 80.409,
      "duration": 0.0142,
      "velocity": 99,
      "chip": "ym2612"
    },
    {
      "channel": 1,
      "note": 85,
      "start": 80.4227,
      "duration": 0.0144,
      "velocity": 99,
      "chip": "ym2612"
    },
    {
      "channel": 2,
      "note": 85,
      "start": 80.4232,
      "duration": 0.0146,
      "velocity": 99,
      "chip": "ym2612"
    },
    {
      "channel": 1,
      "note": 85,
      "start": 80.4371,
      "duration": 0.0144,
      "velocity": 99,
      "chip": "ym2612"
    },
    {
      "channel": 2,
      "note": 85,
      "start": 80.4378,
      "duration": 0.0144,
      "velocity": 99,
      "chip": "ym2612"
    },
    {
      "channel": 1,
      "note": 85,
      "start": 80.4516,
      "duration": 0.0143,
      "velocity": 99,
      "chip": "ym2612"
    },
    {
      "channel": 2,
      "note": 85,
      "start": 80.4523,
      "duration": 0.0142,
      "velocity": 99,
      "chip": "ym2612"
    },
    {
      "channel": 1,
      "note": 85,
      "start": 80.4659,
      "duration": 0.0146,
      "velocity": 99,
      "chip": "ym2612"
    },
    {
      "channel": 2,
      "note": 85,
      "start": 80.4665,
      "duration": 0.0145,
      "velocity": 99,
      "chip": "ym2612"
    },
    {
      "channel": 1,
      "note": 85,
      "start": 80.4805,
      "duration": 0.0144,
      "velocity": 99,
      "chip": "ym2612"
    },
    {
      "channel": 2,
      "note": 85,
      "start": 80.481,
      "duration": 0.0146,
      "velocity": 99,
      "chip": "ym2612"
    },
    {
      "channel": 1,
      "note": 85,
      "start": 80.4949,
      "duration": 0.0144,
      "velocity": 99,
      "chip": "ym2612"
    },
    {
      "channel": 2,
      "note": 85,
      "start": 80.4956,
      "duration": 0.0144,
      "velocity": 99,
      "chip": "ym2612"
    },
    {
      "channel": 1,
      "note": 85,
      "start": 80.5093,
      "duration": 0.0143,
      "velocity": 99,
      "chip": "ym2612"
    },
    {
      "channel": 2,
      "note": 85,
      "start": 80.51,
      "duration": 0.0143,
      "velocity": 99,
      "chip": "ym2612"
    },
    {
      "channel": 1,
      "note": 85,
      "start": 80.5237,
      "duration": 0.0147,
      "velocity": 99,
      "chip": "ym2612"
    },
    {
      "channel": 2,
      "note": 85,
      "start": 80.5243,
      "duration": 0.0145,
      "velocity": 99,
      "chip": "ym2612"
    },
    {
      "channel": 0,
      "note": 49,
      "start": 80.5379,
      "duration": 0.1423,
      "velocity": 95,
      "chip": "ym2612"
    },
    {
      "channel": 1,
      "note": 85,
      "start": 80.5383,
      "duration": 0.0037,
      "velocity": 99,
      "chip": "ym2612"
    },
    {
      "channel": 2,
      "note": 85,
      "start": 80.5388,
      "duration": 0.0037,
      "velocity": 99,
      "chip": "ym2612"
    },
    {
      "channel": 1,
      "note": 85,
      "start": 80.542,
      "duration": 0.0032,
      "velocity": 99,
      "chip": "ym2612"
    },
    {
      "channel": 2,
      "note": 85,
      "start": 80.5425,
      "duration": 0.0034,
      "velocity": 99,
      "chip": "ym2612"
    },
    {
      "channel": 1,
      "note": 85,
      "start": 80.5452,
      "duration": 0.0058,
      "velocity": 99,
      "chip": "ym2612"
    },
    {
      "channel": 2,
      "note": 85,
      "start": 80.5459,
      "duration": 0.0058,
      "velocity": 99,
      "chip": "ym2612"
    },
    {
      "channel": 1,
      "note": 85,
      "start": 80.551,
      "duration": 0.0143,
      "velocity": 99,
      "chip": "ym2612"
    },
    {
      "channel": 2,
      "note": 85,
      "start": 80.5517,
      "duration": 0.0143,
      "velocity": 99,
      "chip": "ym2612"
    },
    {
      "channel": 1,
      "note": 85,
      "start": 80.5653,
      "duration": 0.0146,
      "velocity": 99,
      "chip": "ym2612"
    },
    {
      "channel": 2,
      "note": 85,
      "start": 80.566,
      "duration": 0.0144,
      "velocity": 99,
      "chip": "ym2612"
    },
    {
      "channel": 1,
      "note": 85,
      "start": 80.5798,
      "duration": 0.0144,
      "velocity": 99,
      "chip": "ym2612"
    },
    {
      "channel": 2,
      "note": 85,
      "start": 80.5804,
      "duration": 0.0146,
      "velocity": 99,
      "chip": "ym2612"
    },
    {
      "channel": 1,
      "note": 85,
      "start": 80.5943,
      "duration": 0.0144,
      "velocity": 99,
      "chip": "ym2612"
    },
    {
      "channel": 2,
      "note": 85,
      "start": 80.595,
      "duration": 0.0144,
      "velocity": 99,
      "chip": "ym2612"
    },
    {
      "channel": 1,
      "note": 85,
      "start": 80.6087,
      "duration": 0.0143,
      "velocity": 99,
      "chip": "ym2612"
    },
    {
      "channel": 2,
      "note": 85,
      "start": 80.6094,
      "duration": 0.0143,
      "velocity": 99,
      "chip": "ym2612"
    },
    {
      "channel": 1,
      "note": 85,
      "start": 80.623,
      "duration": 0.0146,
      "velocity": 99,
      "chip": "ym2612"
    },
    {
      "channel": 2,
      "note": 85,
      "start": 80.6237,
      "duration": 0.0146,
      "velocity": 99,
      "chip": "ym2612"
    },
    {
      "channel": 1,
      "note": 85,
      "start": 80.6376,
      "duration": 0.0144,
      "velocity": 99,
      "chip": "ym2612"
    },
    {
      "channel": 2,
      "note": 85,
      "start": 80.6383,
      "duration": 0.0143,
      "velocity": 99,
      "chip": "ym2612"
    },
    {
      "channel": 1,
      "note": 85,
      "start": 80.652,
      "duration": 0.0145,
      "velocity": 99,
      "chip": "ym2612"
    },
    {
      "channel": 2,
      "note": 85,
      "start": 80.6526,
      "duration": 0.0146,
      "velocity": 99,
      "chip": "ym2612"
    },
    {
      "channel": 1,
      "note": 85,
      "start": 80.6666,
      "duration": 0.0146,
      "velocity": 99,
      "chip": "ym2612"
    },
    {
      "channel": 2,
      "note": 85,
      "start": 80.6672,
      "duration": 0.0143,
      "velocity": 99,
      "chip": "ym2612"
    },
    {
      "channel": 0,
      "note": 49,
      "start": 80.6806,
      "duration": 0.1729,
      "velocity": 95,
      "chip": "ym2612"
    },
    {
      "channel": 1,
      "note": 85,
      "start": 80.6811,
      "duration": 0.0142,
      "velocity": 99,
      "chip": "ym2612"
    },
    {
      "channel": 2,
      "note": 85,
      "start": 80.6816,
      "duration": 0.0144,
      "velocity": 99,
      "chip": "ym2612"
    },
    {
      "channel": 1,
      "note": 85,
      "start": 80.6953,
      "duration": 0.0146,
      "velocity": 99,
      "chip": "ym2612"
    },
    {
      "channel": 2,
      "note": 85,
      "start": 80.6959,
      "duration": 0.0144,
      "velocity": 99,
      "chip": "ym2612"
    },
    {
      "channel": 1,
      "note": 85,
      "start": 80.7099,
      "duration": 0.0144,
      "velocity": 99,
      "chip": "ym2612"
    },
    {
      "channel": 2,
      "note": 85,
      "start": 80.7104,
      "duration": 0.0146,
      "velocity": 99,
      "chip": "ym2612"
    },
    {
      "channel": 1,
      "note": 85,
      "start": 80.7242,
      "duration": 0.0145,
      "velocity": 99,
      "chip": "ym2612"
    },
    {
      "channel": 2,
      "note": 85,
      "start": 80.7249,
      "duration": 0.0145,
      "velocity": 99,
      "chip": "ym2612"
    },
    {
      "channel": 1,
      "note": 85,
      "start": 80.7388,
      "duration": 0.0143,
      "velocity": 99,
      "chip": "ym2612"
    },
    {
      "channel": 2,
      "note": 85,
      "start": 80.7394,
      "duration": 0.0143,
      "velocity": 99,
      "chip": "ym2612"
    },
    {
      "channel": 1,
      "note": 85,
      "start": 80.7531,
      "duration": 0.0146,
      "velocity": 99,
      "chip": "ym2612"
    },
    {
      "channel": 2,
      "note": 85,
      "start": 80.7538,
      "duration": 0.0146,
      "velocity": 99,
      "chip": "ym2612"
    },
    {
      "channel": 1,
      "note": 85,
      "start": 80.7677,
      "duration": 0.0144,
      "velocity": 99,
      "chip": "ym2612"
    },
    {
      "channel": 2,
      "note": 85,
      "start": 80.7683,
      "duration": 0.0143,
      "velocity": 99,
      "chip": "ym2612"
    },
    {
      "channel": 1,
      "note": 85,
      "start": 80.7821,
      "duration": 0.0144,
      "velocity": 99,
      "chip": "ym2612"
    },
    {
      "channel": 2,
      "note": 85,
      "start": 80.7826,
      "duration": 0.0146,
      "velocity": 99,
      "chip": "ym2612"
    },
    {
      "channel": 1,
      "note": 85,
      "start": 80.7965,
      "duration": 0.0144,
      "velocity": 99,
      "chip": "ym2612"
    },
    {
      "channel": 2,
      "note": 85,
      "start": 80.7972,
      "duration": 0.0144,
      "velocity": 99,
      "chip": "ym2612"
    },
    {
      "channel": 1,
      "note": 85,
      "start": 80.811,
      "duration": 0.0143,
      "velocity": 99,
      "chip": "ym2612"
    },
    {
      "channel": 2,
      "note": 85,
      "start": 80.8117,
      "duration": 0.0142,
      "velocity": 99,
      "chip": "ym2612"
    },
    {
      "channel": 1,
      "note": 85,
      "start": 80.8253,
      "duration": 0.0146,
      "velocity": 99,
      "chip": "ym2612"
    },
    {
      "channel": 2,
      "note": 85,
      "start": 80.8259,
      "duration": 0.0145,
      "velocity": 99,
      "chip": "ym2612"
    },
    {
      "channel": 1,
      "note": 85,
      "start": 80.8398,
      "duration": 0.0146,
      "velocity": 99,
      "chip": "ym2612"
    },
    {
      "channel": 2,
      "note": 85,
      "start": 80.8404,
      "duration": 0.0145,
      "velocity": 99,
      "chip": "ym2612"
    },
    {
      "channel": 0,
      "note": 49,
      "start": 80.8539,
      "duration": 0.0393,
      "velocity": 95,
      "chip": "ym2612"
    },
    {
      "channel": 1,
      "note": 85,
      "start": 80.8544,
      "duration": 0.0037,
      "velocity": 99,
      "chip": "ym2612"
    },
    {
      "channel": 2,
      "note": 85,
      "start": 80.8549,
      "duration": 0.0039,
      "velocity": 99,
      "chip": "ym2612"
    },
    {
      "channel": 1,
      "note": 85,
      "start": 80.8581,
      "duration": 0.0033,
      "velocity": 99,
      "chip": "ym2612"
    },
    {
      "channel": 2,
      "note": 85,
      "start": 80.8588,
      "duration": 0.0033,
      "velocity": 99,
      "chip": "ym2612"
    },
    {
      "channel": 1,
      "note": 85,
      "start": 80.8614,
      "duration": 0.0034,
      "velocity": 99,
      "chip": "ym2612"
    },
    {
      "channel": 2,
      "note": 85,
      "start": 80.8621,
      "duration": 0.0033,
      "velocity": 99,
      "chip": "ym2612"
    },
    {
      "channel": 1,
      "note": 85,
      "start": 80.8648,
      "duration": 0.0034,
      "velocity": 99,
      "chip": "ym2612"
    },
    {
      "channel": 2,
      "note": 85,
      "start": 80.8654,
      "duration": 0.0033,
      "velocity": 99,
      "chip": "ym2612"
    },
    {
      "channel": 1,
      "note": 85,
      "start": 80.8682,
      "duration": 0.0028,
      "velocity": 99,
      "chip": "ym2612"
    },
    {
      "channel": 2,
      "note": 85,
      "start": 80.8687,
      "duration": 0.0029,
      "velocity": 99,
      "chip": "ym2612"
    },
    {
      "channel": 1,
      "note": 85,
      "start": 80.8709,
      "duration": 0.0034,
      "velocity": 99,
      "chip": "ym2612"
    },
    {
      "channel": 2,
      "note": 85,
      "start": 80.8716,
      "duration": 0.0034,
      "velocity": 99,
      "chip": "ym2612"
    },
    {
      "channel": 1,
      "note": 85,
      "start": 80.8743,
      "duration": 0.0032,
      "velocity": 99,
      "chip": "ym2612"
    },
    {
      "channel": 2,
      "note": 85,
      "start": 80.8749,
      "duration": 0.0032,
      "velocity": 99,
      "chip": "ym2612"
    },
    {
      "channel": 1,
      "note": 85,
      "start": 80.8774,
      "duration": 0.0033,
      "velocity": 99,
      "chip": "ym2612"
    },
    {
      "channel": 2,
      "note": 85,
      "start": 80.8781,
      "duration": 0.0032,
      "velocity": 99,
      "chip": "ym2612"
    },
    {
      "channel": 1,
      "note": 85,
      "start": 80.8807,
      "duration": 0.0033,
      "velocity": 99,
      "chip": "ym2612"
    },
    {
      "channel": 2,
      "note": 85,
      "start": 80.8813,
      "duration": 0.0034,
      "velocity": 99,
      "chip": "ym2612"
    },
    {
      "channel": 1,
      "note": 85,
      "start": 80.884,
      "duration": 0.0035,
      "velocity": 99,
      "chip": "ym2612"
    },
    {
      "channel": 2,
      "note": 85,
      "start": 80.8847,
      "duration": 0.0034,
      "velocity": 99,
      "chip": "ym2612"
    },
    {
      "channel": 1,
      "note": 85,
      "start": 80.8875,
      "duration": 0.0032,
      "velocity": 99,
      "chip": "ym2612"
    },
    {
      "channel": 2,
      "note": 85,
      "start": 80.8882,
      "duration": 0.0032,
      "velocity": 99,
      "chip": "ym2612"
    },
    {
      "channel": 1,
      "note": 85,
      "start": 80.8907,
      "duration": 0.0035,
      "velocity": 99,
      "chip": "ym2612"
    },
    {
      "channel": 2,
      "note": 85,
      "start": 80.8914,
      "duration": 0.0032,
      "velocity": 99,
      "chip": "ym2612"
    },
    {
      "channel": 0,
      "note": 49,
      "start": 80.8937,
      "duration": 0.1519,
      "velocity": 95,
      "chip": "ym2612"
    },
    {
      "channel": 1,
      "note": 85,
      "start": 80.8942,
      "duration": 0.0024,
      "velocity": 99,
      "chip": "ym2612"
    },
    {
      "channel": 2,
      "note": 85,
      "start": 80.8946,
      "duration": 0.0025,
      "velocity": 99,
      "chip": "ym2612"
    },
    {
      "channel": 1,
      "note": 85,
      "start": 80.8966,
      "duration": 0.0049,
      "velocity": 99,
      "chip": "ym2612"
    },
    {
      "channel": 2,
      "note": 85,
      "start": 80.8971,
      "duration": 0.0051,
      "velocity": 99,
      "chip": "ym2612"
    },
    {
      "channel": 1,
      "note": 85,
      "start": 80.9015,
      "duration": 0.0144,
      "velocity": 99,
      "chip": "ym2612"
    },
    {
      "channel": 2,
      "note": 85,
      "start": 80.9022,
      "duration": 0.0145,
      "velocity": 99,
      "chip": "ym2612"
    },
    {
      "channel": 1,
      "note": 85,
      "start": 80.916,
      "duration": 0.0143,
      "velocity": 99,
      "chip": "ym2612"
    },
    {
      "channel": 2,
      "note": 85,
      "start": 80.9167,
      "duration": 0.0142,
      "velocity": 99,
      "chip": "ym2612"
    },
    {
      "channel": 1,
      "note": 85,
      "start": 80.9303,
      "duration": 0.0146,
      "velocity": 99,
      "chip": "ym2612"
    },
    {
      "channel": 2,
      "note": 85,
      "start": 80.9309,
      "duration": 0.0145,
      "velocity": 99,
      "chip": "ym2612"
    },
    {
      "channel": 1,
      "note": 85,
      "start": 80.9449,
      "duration": 0.0145,
      "velocity": 99,
      "chip": "ym2612"
    },
    {
      "channel": 2,
      "note": 85,
      "start": 80.9454,
      "duration": 0.0146,
      "velocity": 99,
      "chip": "ym2612"
    },
    {
      "channel": 1,
      "note": 85,
      "start": 80.9594,
      "duration": 0.0144,
      "velocity": 99,
      "chip": "ym2612"
    },
    {
      "channel": 2,
      "note": 85,
      "start": 80.96,
      "duration": 0.0144,
      "velocity": 99,
      "chip": "ym2612"
    },
    {
      "channel": 1,
      "note": 85,
      "start": 80.9737,
      "duration": 0.0143,
      "velocity": 99,
      "chip": "ym2612"
    },
    {
      "channel": 2,
      "note": 85,
      "start": 80.9744,
      "duration": 0.0143,
      "velocity": 99,
      "chip": "ym2612"
    },
    {
      "channel": 1,
      "note": 85,
      "start": 80.988,
      "duration": 0.0146,
      "velocity": 99,
      "chip": "ym2612"
    },
    {
      "channel": 2,
      "note": 85,
      "start": 80.9888,
      "duration": 0.0146,
      "velocity": 99,
      "chip": "ym2612"
    },
    {
      "channel": 1,
      "note": 85,
      "start": 81.0027,
      "duration": 0.0144,
      "velocity": 99,
      "chip": "ym2612"
    },
    {
      "channel": 2,
      "note": 85,
      "start": 81.0033,
      "duration": 0.0143,
      "velocity": 99,
      "chip": "ym2612"
    },
    {
      "channel": 1,
      "note": 85,
      "start": 81.0171,
      "duration": 0.0144,
      "velocity": 99,
      "chip": "ym2612"
    },
    {
      "channel": 2,
      "note": 85,
      "start": 81.0176,
      "duration": 0.0146,
      "velocity": 99,
      "chip": "ym2612"
    },
    {
      "channel": 1,
      "note": 85,
      "start": 81.0316,
      "duration": 0.0145,
      "velocity": 99,
      "chip": "ym2612"
    },
    {
      "channel": 2,
      "note": 85,
      "start": 81.0322,
      "duration": 0.0148,
      "velocity": 99,
      "chip": "ym2612"
    },
    {
      "channel": 0,
      "note": 46,
      "start": 81.0459,
      "duration": 0.1421,
      "velocity": 95,
      "chip": "ym2612"
    },
    {
      "channel": 1,
      "note": 87,
      "start": 81.0465,
      "duration": 0.1751,
      "velocity": 99,
      "chip": "ym2612"
    },
    {
      "channel": 2,
      "note": 85,
      "start": 81.047,
      "duration": 0.0047,
      "velocity": 99,
      "chip": "ym2612"
    },
    {
      "channel": 3,
      "note": 75,
      "start": 81.0477,
      "duration": 0.742,
      "velocity": 89,
      "chip": "ym2612"
    },
    {
      "channel": 4,
      "note": 66,
      "start": 81.0482,
      "duration": 0.7422,
      "velocity": 89,
      "chip": "ym2612"
    },
    {
      "channel": 2,
      "note": 85,
      "start": 81.0518,
      "duration": 0.0029,
      "velocity": 99,
      "chip": "ym2612"
    },
    {
      "channel": 2,
      "note": 85,
      "start": 81.0546,
      "duration": 0.0045,
      "velocity": 99,
      "chip": "ym2612"
    },
    {
      "channel": 2,
      "note": 85,
      "start": 81.0591,
      "duration": 0.0145,
      "velocity": 99,
      "chip": "ym2612"
    },
    {
      "channel": 2,
      "note": 85,
      "start": 81.0736,
      "duration": 0.0144,
      "velocity": 99,
      "chip": "ym2612"
    },
    {
      "channel": 2,
      "note": 85,
      "start": 81.088,
      "duration": 0.0139,
      "velocity": 99,
      "chip": "ym2612"
    },
    {
      "channel": 2,
      "note": 87,
      "start": 81.1024,
      "duration": 0.1375,
      "velocity": 99,
      "chip": "ym2612"
    },
    {
      "channel": 0,
      "note": 46,
      "start": 81.1884,
      "duration": 0.0323,
      "velocity": 95,
      "chip": "ym2612"
    },
    {
      "channel": 0,
      "note": 46,
      "start": 81.2212,
      "duration": 0.0367,
      "velocity": 95,
      "chip": "ym2612"
    },
    {
      "channel": 1,
      "note": 87,
      "start": 81.2216,
      "duration": 0.0031,
      "velocity": 99,
      "chip": "ym2612"
    },
    {
      "channel": 1,
      "note": 87,
      "start": 81.2248,
      "duration": 0.003,
      "velocity": 99,
      "chip": "ym2612"
    },
    {
      "channel": 1,
      "note": 87,
      "start": 81.2277,
      "duration": 0.0026,
      "velocity": 99,
      "chip": "ym2612"
    },
    {
      "channel": 1,
      "note": 87,
      "start": 81.2303,
      "duration": 0.003,
      "velocity": 99,
      "chip": "ym2612"
    },
    {
      "channel": 1,
      "note": 87,
      "start": 81.2333,
      "duration": 0.0029,
      "velocity": 99,
      "chip": "ym2612"
    },
    {
      "channel": 1,
      "note": 87,
      "start": 81.2361,
      "duration": 0.003,
      "velocity": 99,
      "chip": "ym2612"
    },
    {
      "channel": 1,
      "note": 87,
      "start": 81.2392,
      "duration": 0.0035,
      "velocity": 99,
      "chip": "ym2612"
    },
    {
      "channel": 2,
      "note": 87,
      "start": 81.2399,
      "duration": 0.0033,
      "velocity": 99,
      "chip": "ym2612"
    },
    {
      "channel": 1,
      "note": 87,
      "start": 81.2427,
      "duration": 0.0032,
      "velocity": 99,
      "chip": "ym2612"
    },
    {
      "channel": 2,
      "note": 87,
      "start": 81.2432,
      "duration": 0.0034,
      "velocity": 99,
      "chip": "ym2612"
    },
    {
      "channel": 1,
      "note": 87,
      "start": 81.2459,
      "duration": 0.0033,
      "velocity": 99,
      "chip": "ym2612"
    },
    {
      "channel": 2,
      "note": 87,
      "start": 81.2465,
      "duration": 0.0033,
      "velocity": 99,
      "chip": "ym2612"
    },
    {
      "channel": 1,
      "note": 87,
      "start": 81.2492,
      "duration": 0.0032,
      "velocity": 99,
      "chip": "ym2612"
    },
    {
      "channel": 2,
      "note": 87,
      "start": 81.2498,
      "duration": 0.0032,
      "velocity": 99,
      "chip": "ym2612"
    },
    {
      "channel": 1,
      "note": 87,
      "start": 81.2524,
      "duration": 0.0029,
      "velocity": 99,
      "chip": "ym2612"
    },
    {
      "channel": 2,
      "note": 87,
      "start": 81.2531,
      "duration": 0.0029,
      "velocity": 99,
      "chip": "ym2612"
    },
    {
      "channel": 1,
      "note": 87,
      "start": 81.2554,
      "duration": 0.0034,
      "velocity": 99,
      "chip": "ym2612"
    },
    {
      "channel": 2,
      "note": 87,
      "start": 81.2559,
      "duration": 0.0032,
      "velocity": 99,
      "chip": "ym2612"
    },
    {
      "channel": 0,
      "note": 46,
      "start": 81.2582,
      "duration": 0.1543,
      "velocity": 95,
      "chip": "ym2612"
    },
    {
      "channel": 1,
      "note": 87,
      "start": 81.2587,
      "duration": 0.0028,
      "velocity": 99,
      "chip": "ym2612"
    },
    {
      "channel": 2,
      "note": 87,
      "start": 81.2592,
      "duration": 0.0031,
      "velocity": 99,
      "chip": "ym2612"
    },
    {
      "channel": 1,
      "note": 87,
      "start": 81.2616,
      "duration": 0.0071,
      "velocity": 99,
      "chip": "ym2612"
    },
    {
      "channel": 2,
      "note": 87,
      "start": 81.2622,
      "duration": 0.0071,
      "velocity": 99,
      "chip": "ym2612"
    },
    {
      "channel": 1,
      "note": 87,
      "start": 81.2687,
      "duration": 0.0146,
      "velocity": 99,
      "chip": "ym2612"
    },
    {
      "channel": 2,
      "note": 87,
      "start": 81.2693,
      "duration": 0.0146,
      "velocity": 99,
      "chip": "ym2612"
    },
    {
      "channel": 1,
      "note": 87,
      "start": 81.2832,
      "duration": 0.0144,
      "velocity": 99,
      "chip": "ym2612"
    },
    {
      "channel": 2,
      "note": 87,
      "start": 81.2839,
      "duration": 0.0143,
      "velocity": 99,
      "chip": "ym2612"
    },
    {
      "channel": 1,
      "note": 87,
      "start": 81.2977,
      "duration": 0.0144,
      "velocity": 99,
      "chip": "ym2612"
    },
    {
      "channel": 2,
      "note": 87,
      "start": 81.2983,
      "duration": 0.0146,
      "velocity": 99,
      "chip": "ym2612"
    },
    {
      "channel": 1,
      "note": 87,
      "start": 81.3121,
      "duration": 0.0145,
      "velocity": 99,
      "chip": "ym2612"
    },
    {
      "channel": 2,
      "note": 87,
      "start": 81.3128,
      "duration": 0.0144,
      "velocity": 99,
      "chip": "ym2612"
    },
    {
      "channel": 1,
      "note": 87,
      "start": 81.3266,
      "duration": 0.0143,
      "velocity": 99,
      "chip": "ym2612"
    },
    {
      "channel": 2,
      "note": 87,
      "start": 81.3273,
      "duration": 0.0143,
      "velocity": 99,
      "chip": "ym2612"
    },
    {
      "channel": 1,
      "note": 87,
      "start": 81.3409,
      "duration": 0.0146,
      "velocity": 99,
      "chip": "ym2612"
    },
    {
      "channel": 2,
      "note": 87,
      "start": 81.3416,
      "duration": 0.0144,
      "velocity": 99,
      "chip": "ym2612"
    },
    {
      "channel": 1,
      "note": 87,
      "start": 81.3554,
      "duration": 0.0145,
      "velocity": 99,
      "chip": "ym2612"
    },
    {
      "channel": 2,
      "note": 87,
      "start": 81.356,
      "duration": 0.0146,
      "velocity": 99,
      "chip": "ym2612"
    },
    {
      "channel": 1,
      "note": 87,
      "start": 81.37,
      "duration": 0.0144,
      "velocity": 99,
      "chip": "ym2612"
    },
    {
      "channel": 2,
      "note": 87,
      "start": 81.3707,
      "duration": 0.0144,
      "velocity": 99,
      "chip": "ym2612"
    },
    {
      "channel": 1,
      "note": 87,
      "start": 81.3844,
      "duration": 0.0143,
      "velocity": 99,
      "chip": "ym2612"
    },
    {
      "channel": 2,
      "note": 87,
      "start": 81.3851,
      "duration": 0.0143,
      "velocity": 99,
      "chip": "ym2612"
    },
    {
      "channel": 1,
      "note": 87,
      "start": 81.3987,
      "duration": 0.0147,
      "velocity": 99,
      "chip": "ym2612"
    },
    {
      "channel": 2,
      "note": 87,
      "start": 81.3994,
      "duration": 0.0144,
      "velocity": 99,
      "chip": "ym2612"
    },
    {
      "channel": 0,
      "note": 46,
      "start": 81.4129,
      "duration": 0.1423,
      "velocity": 95,
      "chip": "ym2612"
    },
    {
      "channel": 1,
      "note": 87,
      "start": 81.4134,
      "duration": 0.0037,
      "velocity": 99,
      "chip": "ym2612"
    },
    {
      "channel": 2,
      "note": 87,
      "start": 81.4139,
      "duration": 0.0038,
      "velocity": 99,
      "chip": "ym2612"
    },
    {
      "channel": 1,
      "note": 87,
      "start": 81.4171,
      "duration": 0.0028,
      "velocity": 99,
      "chip": "ym2612"
    },
    {
      "channel": 2,
      "note": 87,
      "start": 81.4176,
      "duration": 0.0029,
      "velocity": 99,
      "chip": "ym2612"
    },
    {
      "channel": 1,
      "note": 87,
      "start": 81.4199,
      "duration": 0.0061,
      "velocity": 99,
      "chip": "ym2612"
    },
    {
      "channel": 2,
      "note": 87,
      "start": 81.4205,
      "duration": 0.0061,
      "velocity": 99,
      "chip": "ym2612"
    },
    {
      "channel": 1,
      "note": 87,
      "start": 81.426,
      "duration": 0.0142,
      "velocity": 99,
      "chip": "ym2612"
    },
    {
      "channel": 2,
      "note": 87,
      "start": 81.4267,
      "duration": 0.0143,
      "velocity": 99,
      "chip": "ym2612"
    },
    {
      "channel": 1,
      "note": 87,
      "start": 81.4403,
      "duration": 0.0146,
      "velocity": 99,
      "chip": "ym2612"
    },
    {
      "channel": 2,
      "note": 87,
      "start": 81.441,
      "duration": 0.0144,
      "velocity": 99,
      "chip": "ym2612"
    },
    {
      "channel": 1,
      "note": 87,
      "start": 81.4548,
      "duration": 0.0145,
      "velocity": 99,
      "chip": "ym2612"
    },
    {
      "channel": 2,
      "note": 87,
      "start": 81.4554,
      "duration": 0.0146,
      "velocity": 99,
      "chip": "ym2612"
    },
    {
      "channel": 1,
      "note": 87,
      "start": 81.4693,
      "duration": 0.0144,
      "velocity": 99,
      "chip": "ym2612"
    },
    {
      "channel": 2,
      "note": 87,
      "start": 81.47,
      "duration": 0.0144,
      "velocity": 99,
      "chip": "ym2612"
    },
    {
      "channel": 1,
      "note": 87,
      "start": 81.4837,
      "duration": 0.0143,
      "velocity": 99,
      "chip": "ym2612"
    },
    {
      "channel": 2,
      "note": 87,
      "start": 81.4844,
      "duration": 0.0143,
      "velocity": 99,
      "chip": "ym2612"
    },
    {
      "channel": 1,
      "note": 87,
      "start": 81.498,
      "duration": 0.0148,
      "velocity": 99,
      "chip": "ym2612"
    },
    {
      "channel": 2,
      "note": 87,
      "start": 81.4987,
      "duration": 0.0148,
      "velocity": 99,
      "chip": "ym2612"
    },
    {
      "channel": 1,
      "note": 87,
      "start": 81.5129,
      "duration": 0.0142,
      "velocity": 99,
      "chip": "ym2612"
    },
    {
      "channel": 2,
      "note": 87,
      "start": 81.5136,
      "duration": 0.0141,
      "velocity": 99,
      "chip": "ym2612"
    },
    {
      "channel": 1,
      "note": 87,
      "start": 81.5271,
      "duration": 0.0144,
      "velocity": 99,
      "chip": "ym2612"
    },
    {
      "channel": 2,
      "note": 87,
      "start": 81.5276,
      "duration": 0.0146,
      "velocity": 99,
      "chip": "ym2612"
    },
    {
      "channel": 1,
      "note": 87,
      "start": 81.5415,
      "duration": 0.0146,
      "velocity": 99,
      "chip": "ym2612"
    },
    {
      "channel": 2,
      "note": 87,
      "start": 81.5422,
      "duration": 0.0144,
      "velocity": 99,
      "chip": "ym2612"
    },
    {
      "channel": 0,
      "note": 46,
      "start": 81.5557,
      "duration": 0.039,
      "velocity": 95,
      "chip": "ym2612"
    },
    {
      "channel": 1,
      "note": 87,
      "start": 81.5561,
      "duration": 0.0035,
      "velocity": 99,
      "chip": "ym2612"
    },
    {
      "channel": 2,
      "note": 87,
      "start": 81.5566,
      "duration": 0.0037,
      "velocity": 99,
      "chip": "ym2612"
    },
    {
      "channel": 1,
      "note": 87,
      "start": 81.5596,
      "duration": 0.0033,
      "velocity": 99,
      "chip": "ym2612"
    },
    {
      "channel": 2,
      "note": 87,
      "start": 81.5603,
      "duration": 0.0032,
      "velocity": 99,
      "chip": "ym2612"
    },
    {
      "channel": 1,
      "note": 87,
      "start": 81.563,
      "duration": 0.0032,
      "velocity": 99,
      "chip": "ym2612"
    },
    {
      "channel": 2,
      "note": 87,
      "start": 81.5635,
      "duration": 0.0033,
      "velocity": 99,
      "chip": "ym2612"
    },
    {
      "channel": 1,
      "note": 87,
      "start": 81.5661,
      "duration": 0.0034,
      "velocity": 99,
      "chip": "ym2612"
    },
    {
      "channel": 2,
      "note": 87,
      "start": 81.5668,
      "duration": 0.0034,
      "velocity": 99,
      "chip": "ym2612"
    },
    {
      "channel": 1,
      "note": 87,
      "start": 81.5696,
      "duration": 0.0028,
      "velocity": 99,
      "chip": "ym2612"
    },
    {
      "channel": 2,
      "note": 87,
      "start": 81.5703,
      "duration": 0.0028,
      "velocity": 99,
      "chip": "ym2612"
    },
    {
      "channel": 1,
      "note": 87,
      "start": 81.5724,
      "duration": 0.0034,
      "velocity": 99,
      "chip": "ym2612"
    },
    {
      "channel": 2,
      "note": 87,
      "start": 81.5731,
      "duration": 0.0034,
      "velocity": 99,
      "chip": "ym2612"
    },
    {
      "channel": 1,
      "note": 87,
      "start": 81.5758,
      "duration": 0.0034,
      "velocity": 99,
      "chip": "ym2612"
    },
    {
      "channel": 2,
      "note": 87,
      "start": 81.5765,
      "duration": 0.0032,
      "velocity": 99,
      "chip": "ym2612"
    },
    {
      "channel": 1,
      "note": 87,
      "start": 81.5792,
      "duration": 0.0032,
      "velocity": 99,
      "chip": "ym2612"
    },
    {
      "channel": 2,
      "note": 87,
      "start": 81.5797,
      "duration": 0.0034,
      "velocity": 99,
      "chip": "ym2612"
    },
    {
      "channel": 1,
      "note": 87,
      "start": 81.5824,
      "duration": 0.0034,
      "velocity": 99,
      "chip": "ym2612"
    },
    {
      "channel": 2,
      "note": 87,
      "start": 81.583,
      "duration": 0.0034,
      "velocity": 99,
      "chip": "ym2612"
    },
    {
      "channel": 1,
      "note": 87,
      "start": 81.5858,
      "duration": 0.0032,
      "velocity": 99,
      "chip": "ym2612"
    },
    {
      "channel": 2,
      "note": 87,
      "start": 81.5864,
      "duration": 0.0032,
      "velocity": 99,
      "chip": "ym2612"
    },
    {
      "channel": 1,
      "note": 87,
      "start": 81.589,
      "duration": 0.0033,
      "velocity": 99,
      "chip": "ym2612"
    },
    {
      "channel": 2,
      "note": 87,
      "start": 81.5897,
      "duration": 0.0032,
      "velocity": 99,
      "chip": "ym2612"
    },
    {
      "channel": 1,
      "note": 87,
      "start": 81.5923,
      "duration": 0.0033,
      "velocity": 99,
      "chip": "ym2612"
    },
    {
      "channel": 2,
      "note": 87,
      "start": 81.5929,
      "duration": 0.0032,
      "velocity": 99,
      "chip": "ym2612"
    },
    {
      "channel": 0,
      "note": 46,
      "start": 81.5951,
      "duration": 0.0391,
      "velocity": 95,
      "chip": "ym2612"
    },
    {
      "channel": 1,
      "note": 87,
      "start": 81.5956,
      "duration": 0.0033,
      "velocity": 99,
      "chip": "ym2612"
    },
    {
      "channel": 2,
      "note": 87,
      "start": 81.5961,
      "duration": 0.0035,
      "velocity": 99,
      "chip": "ym2612"
    },
    {
      "channel": 1,
      "note": 87,
      "start": 81.5989,
      "duration": 0.0032,
      "velocity": 99,
      "chip": "ym2612"
    },
    {
      "channel": 2,
      "note": 87,
      "start": 81.5996,
      "duration": 0.0032,
      "velocity": 99,
      "chip": "ym2612"
    },
    {
      "channel": 1,
      "note": 87,
      "start": 81.6021,
      "duration": 0.0034,
      "velocity": 99,
      "chip": "ym2612"
    },
    {
      "channel": 2,
      "note": 87,
      "start": 81.6028,
      "duration": 0.0034,
      "velocity": 99,
      "chip": "ym2612"
    },
    {
      "channel": 1,
      "note": 87,
      "start": 81.6055,
      "duration": 0.0035,
      "velocity": 99,
      "chip": "ym2612"
    },
    {
      "channel": 2,
      "note": 87,
      "start": 81.6062,
      "duration": 0.0033,
      "velocity": 99,
      "chip": "ym2612"
    },
    {
      "channel": 1,
      "note": 87,
      "start": 81.609,
      "duration": 0.0033,
      "velocity": 99,
      "chip": "ym2612"
    },
    {
      "channel": 2,
      "note": 87,
      "start": 81.6095,
      "duration": 0.0034,
      "velocity": 99,
      "chip": "ym2612"
    },
    {
      "channel": 1,
      "note": 87,
      "start": 81.6122,
      "duration": 0.0033,
      "velocity": 99,
      "chip": "ym2612"
    },
    {
      "channel": 2,
      "note": 87,
      "start": 81.6129,
      "duration": 0.0033,
      "velocity": 99,
      "chip": "ym2612"
    },
    {
      "channel": 1,
      "note": 87,
      "start": 81.6155,
      "duration": 0.0032,
      "velocity": 99,
      "chip": "ym2612"
    },
    {
      "channel": 2,
      "note": 87,
      "start": 81.6162,
      "duration": 0.0032,
      "velocity": 99,
      "chip": "ym2612"
    },
    {
      "channel": 1,
      "note": 87,
      "start": 81.6188,
      "duration": 0.0034,
      "velocity": 99,
      "chip": "ym2612"
    },
    {
      "channel": 2,
      "note": 87,
      "start": 81.6194,
      "duration": 0.0033,
      "velocity": 99,
      "chip": "ym2612"
    },
    {
      "channel": 1,
      "note": 87,
      "start": 81.6221,
      "duration": 0.0028,
      "velocity": 99,
      "chip": "ym2612"
    },
    {
      "channel": 2,
      "note": 87,
      "start": 81.6227,
      "duration": 0.0029,
      "velocity": 99,
      "chip": "ym2612"
    },
    {
      "channel": 1,
      "note": 87,
      "start": 81.6249,
      "duration": 0.0034,
      "velocity": 99,
      "chip": "ym2612"
    },
    {
      "channel": 2,
      "note": 87,
      "start": 81.6256,
      "duration": 0.0034,
      "velocity": 99,
      "chip": "ym2612"
    },
    {
      "channel": 1,
      "note": 87,
      "start": 81.6283,
      "duration": 0.0033,
      "velocity": 99,
      "chip": "ym2612"
    },
    {
      "channel": 2,
      "note": 87,
      "start": 81.629,
      "duration": 0.0033,
      "velocity": 99,
      "chip": "ym2612"
    },
    {
      "channel": 1,
      "note": 87,
      "start": 81.6317,
      "duration": 0.0034,
      "velocity": 99,
      "chip": "ym2612"
    },
    {
      "channel": 2,
      "note": 87,
      "start": 81.6323,
      "duration": 0.0033,
      "velocity": 99,
      "chip": "ym2612"
    },
    {
      "channel": 0,
      "note": 46,
      "start": 81.6347,
      "duration": 0.1519,
      "velocity": 95,
      "chip": "ym2612"
    },
    {
      "channel": 1,
      "note": 87,
      "start": 81.6351,
      "duration": 0.0029,
      "velocity": 99,
      "chip": "ym2612"
    },
    {
      "channel": 2,
      "note": 87,
      "start": 81.6356,
      "duration": 0.0029,
      "velocity": 99,
      "chip": "ym2612"
    },
    {
      "channel": 1,
      "note": 87,
      "start": 81.638,
      "duration": 0.0048,
      "velocity": 99,
      "chip": "ym2612"
    },
    {
      "channel": 2,
      "note": 87,
      "start": 81.6385,
      "duration": 0.0049,
      "velocity": 99,
      "chip": "ym2612"
    },
    {
      "channel": 1,
      "note": 87,
      "start": 81.6428,
      "duration": 0.0144,
      "velocity": 99,
      "chip": "ym2612"
    },
    {
      "channel": 2,
      "note": 87,
      "start": 81.6435,
      "duration": 0.0144,
      "velocity": 99,
      "chip": "ym2612"
    },
    {
      "channel": 1,
      "note": 87,
      "start": 81.6572,
      "duration": 0.0143,
      "velocity": 99,
      "chip": "ym2612"
    },
    {
      "channel": 2,
      "note": 87,
      "start": 81.6579,
      "duration": 0.0143,
      "velocity": 99,
      "chip": "ym2612"
    },
    {
      "channel": 1,
      "note": 87,
      "start": 81.6716,
      "duration": 0.0146,
      "velocity": 99,
      "chip": "ym2612"
    },
    {
      "channel": 2,
      "note": 87,
      "start": 81.6722,
      "duration": 0.0144,
      "velocity": 99,
      "chip": "ym2612"
    },
    {
      "channel": 1,
      "note": 87,
      "start": 81.6862,
      "duration": 0.0144,
      "velocity": 99,
      "chip": "ym2612"
    },
    {
      "channel": 2,
      "note": 87,
      "start": 81.6867,
      "duration": 0.0158,
      "velocity": 110,
      "chip": "ym2612"
    },
    {
      "channel": 1,
      "note": 87,
      "start": 81.7006,
      "duration": 0.0144,
      "velocity": 99,
      "chip": "ym2612"
    },
    {
      "channel": 2,
      "note": 75,
      "start": 81.7029,
      "duration": 0.1029,
      "velocity": 110,
      "chip": "ym2612"
    },
    {
      "channel": 1,
      "note": 87,
      "start": 81.7151,
      "duration": 0.0143,
      "velocity": 99,
      "chip": "ym2612"
    },
    {
      "channel": 1,
      "note": 87,
      "start": 81.7294,
      "duration": 0.0146,
      "velocity": 99,
      "chip": "ym2612"
    },
    {
      "channel": 1,
      "note": 87,
      "start": 81.7439,
      "duration": 0.0144,
      "velocity": 99,
      "chip": "ym2612"
    },
    {
      "channel": 1,
      "note": 87,
      "start": 81.7584,
      "duration": 0.0145,
      "velocity": 99,
      "chip": "ym2612"
    },
    {
      "channel": 1,
      "note": 87,
      "start": 81.7729,
      "duration": 0.016,
      "velocity": 110,
      "chip": "ym2612"
    },
    {
      "channel": 0,
      "note": 51,
      "start": 81.787,
      "duration": 0.0324,
      "velocity": 95,
      "chip": "ym2612"
    },
    {
      "channel": 1,
      "note": 75,
      "start": 81.7893,
      "duration": 0.0308,
      "velocity": 110,
      "chip": "ym2612"
    },
    {
      "channel": 3,
      "note": 75,
      "start": 81.7901,
      "duration": 0.0308,
      "velocity": 89,
      "chip": "ym2612"
    },
    {
      "channel": 4,
      "note": 70,
      "start": 81.7908,
      "duration": 0.0306,
      "velocity": 89,
      "chip": "ym2612"
    },
    {
      "channel": 2,
      "note": 75,
      "start": 81.8062,
      "duration": 0.0299,
      "velocity": 110,
      "chip": "ym2612"
    },
    {
      "channel": 0,
      "note": 51,
      "start": 81.8199,
      "duration": 0.0322,
      "velocity": 95,
      "chip": "ym2612"
    },
    {
      "channel": 1,
      "note": 75,
      "start": 81.8205,
      "duration": 0.0322,
      "velocity": 110,
      "chip": "ym2612"
    },
    {
      "channel": 3,
      "note": 75,
      "start": 81.8212,
      "duration": 0.0322,
      "velocity": 89,
      "chip": "ym2612"
    },
    {
      "channel": 4,
      "note": 70,
      "start": 81.8219,
      "duration": 0.0322,
      "velocity": 89,
      "chip": "ym2612"
    },
    {
      "channel": 2,
      "note": 75,
      "start": 81.8365,
      "duration": 0.0327,
      "velocity": 110,
      "chip": "ym2612"
    },
    {
      "channel": 0,
      "note": 51,
      "start": 81.8525,
      "duration": 0.0322,
      "velocity": 95,
      "chip": "ym2612"
    },
    {
      "channel": 1,
      "note": 75,
      "start": 81.8531,
      "duration": 0.0323,
      "velocity": 110,
      "chip": "ym2612"
    },
    {
      "channel": 3,
      "note": 75,
      "start": 81.8539,
      "duration": 0.0323,
      "velocity": 89,
      "chip": "ym2612"
    },
    {
      "channel": 4,
      "note": 70,
      "start": 81.8545,
      "duration": 0.0323,
      "velocity": 89,
      "chip": "ym2612"
    },
    {
      "channel": 2,
      "note": 75,
      "start": 81.8695,
      "duration": 0.0318,
      "velocity": 110,
      "chip": "ym2612"
    },
    {
      "channel": 0,
      "note": 51,
      "start": 81.8852,
      "duration": 0.0287,
      "velocity": 95,
      "chip": "ym2612"
    },
    {
      "channel": 1,
      "note": 75,
      "start": 81.8858,
      "duration": 0.0283,
      "velocity": 110,
      "chip": "ym2612"
    },
    {
      "channel": 3,
      "note": 75,
      "start": 81.8866,
      "duration": 0.0279,
      "velocity": 89,
      "chip": "ym2612"
    },
    {
      "channel": 4,
      "note": 70,
      "start": 81.8871,
      "duration": 0.0276,
      "velocity": 89,
      "chip": "ym2612"
    },
    {
      "channel": 0,
      "note": 51,
      "start": 82.2589,
      "duration": 0.1387,
      "velocity": 95,
      "chip": "ym2612"
    },
    {
      "channel": 1,
      "note": 63,
      "start": 82.2615,
      "duration": 0.3102,
      "velocity": 107,
      "chip": "ym2612"
    },
    {
      "channel": 3,
      "note": 70,
      "start": 82.265,
      "duration": 32.9262,
      "velocity": 89,
      "chip": "ym2612"
    },
    {
      "channel": 4,
      "note": 66,
      "start": 82.2661,
      "duration": 32.9251,
      "velocity": 89,
      "chip": "ym2612"
    },
    {
      "channel": 2,
      "note": 63,
      "start": 82.3118,
      "duration": 0.2756,
      "velocity": 107,
      "chip": "ym2612"
    },
    {
      "channel": 0,
      "note": 51,
      "start": 82.398,
      "duration": 0.1729,
      "velocity": 95,
      "chip": "ym2612"
    },
    {
      "channel": 0,
      "note": 51,
      "start": 82.5713,
      "duration": 0.0298,
      "velocity": 95,
      "chip": "ym2612"
    },
    {
      "channel": 1,
      "note": 71,
      "start": 82.5722,
      "duration": 0.191,
      "velocity": 107,
      "chip": "ym2612"
    },
    {
      "channel": 2,
      "note": 71,
      "start": 82.5878,
      "duration": 0.2312,
      "velocity": 107,
      "chip": "ym2612"
    },
    {
      "channel": 0,
      "note": 51,
      "start": 82.6015,
      "duration": 0.161,
      "velocity": 95,
      "chip": "ym2612"
    },
    {
      "channel": 0,
      "note": 51,
      "start": 82.763,
      "duration": 0.1423,
      "velocity": 95,
      "chip": "ym2612"
    },
    {
      "channel": 1,
      "note": 70,
      "start": 82.7636,
      "duration": 0.3156,
      "velocity": 107,
      "chip": "ym2612"
    },
    {
      "channel": 2,
      "note": 70,
      "start": 82.8195,
      "duration": 0.275,
      "velocity": 107,
      "chip": "ym2612"
    },
    {
      "channel": 0,
      "note": 51,
      "start": 82.9057,
      "duration": 0.1729,
      "velocity": 95,
      "chip": "ym2612"
    },
    {
      "channel": 0,
      "note": 51,
      "start": 83.0791,
      "duration": 0.0293,
      "velocity": 95,
      "chip": "ym2612"
    },
    {
      "channel": 1,
      "note": 68,
      "start": 83.0796,
      "duration": 32.1116,
      "velocity": 107,
      "chip": "ym2612"
    },
    {
      "channel": 2,
      "note": 68,
      "start": 83.095,
      "duration": 32.0962,
      "velocity": 107,
      "chip": "ym2612"
    },
    {
      "channel": 0,
      "note": 51,
      "start": 83.1088,
      "duration": 32.0824,
      "velocity": 95,
      "chip": "ym2612"
    }
  ]
}