{
  "track_name": "12 - Defeat them All!",
  "duration_sec": 61.138,
  "sample_rate": 44100,
  "note_count": 1358,
  "unique_pitches": 67,
  "pitch_range": 69,
  "avg_note_duration": 0.1657,
  "reconstruction_stats": {
    "notes_reconstructed": 1358,
    "keyon_events": 1358,
    "keyoff_events": 1183,
    "orphan_keyons": 3,
    "unique_pitches": 67,
    "pitch_range": 69,
    "avg_duration_sec": 0.1657
  },
  "metadata": {
    "source": "G\\Gunstar Heroes\\12 - Defeat them All!.vgz"
  },
  "notes": [
    {
      "channel": 0,
      "note": 47,
      "start": 0.0,
      "duration": 0.1617,
      "velocity": 120,
      "chip": "ym2612"
    },
    {
      "channel": 1,
      "note": 83,
      "start": 0.0012,
      "duration": 0.044,
      "velocity": 125,
      "chip": "ym2612"
    },
    {
      "channel": 2,
      "note": 79,
      "start": 0.0022,
      "duration": 0.0028,
      "velocity": 79,
      "chip": "ym2612"
    },
    {
      "channel": 2,
      "note": 78,
      "start": 0.0049,
      "duration": 0.0023,
      "velocity": 79,
      "chip": "ym2612"
    },
    {
      "channel": 4,
      "note": 55,
      "start": 0.0052,
      "duration": 0.0032,
      "velocity": 79,
      "chip": "ym2612"
    },
    {
      "channel": 2,
      "note": 77,
      "start": 0.0072,
      "duration": 0.0385,
      "velocity": 79,
      "chip": "ym2612"
    },
    {
      "channel": 4,
      "note": 54,
      "start": 0.0084,
      "duration": 0.0378,
      "velocity": 79,
      "chip": "ym2612"
    },
    {
      "channel": 1,
      "note": 83,
      "start": 0.0455,
      "duration": 0.1165,
      "velocity": 125,
      "chip": "ym2612"
    },
    {
      "channel": 2,
      "note": 76,
      "start": 0.0457,
      "duration": 0.0331,
      "velocity": 79,
      "chip": "ym2612"
    },
    {
      "channel": 3,
      "note": 79,
      "start": 0.046,
      "duration": 0.033,
      "velocity": 79,
      "chip": "ym2612"
    },
    {
      "channel": 4,
      "note": 53,
      "start": 0.0463,
      "duration": 0.033,
      "velocity": 79,
      "chip": "ym2612"
    },
    {
      "channel": 2,
      "note": 75,
      "start": 0.0788,
      "duration": 0.0333,
      "velocity": 79,
      "chip": "ym2612"
    },
    {
      "channel": 3,
      "note": 78,
      "start": 0.079,
      "duration": 0.0333,
      "velocity": 79,
      "chip": "ym2612"
    },
    {
      "channel": 4,
      "note": 52,
      "start": 0.0793,
      "duration": 0.0333,
      "velocity": 79,
      "chip": "ym2612"
    },
    {
      "channel": 2,
      "note": 74,
      "start": 0.1121,
      "duration": 0.0502,
      "velocity": 79,
      "chip": "ym2612"
    },
    {
      "channel": 3,
      "note": 77,
      "start": 0.1124,
      "duration": 0.0503,
      "velocity": 79,
      "chip": "ym2612"
    },
    {
      "channel": 4,
      "note": 51,
      "start": 0.1126,
      "duration": 0.0502,
      "velocity": 79,
      "chip": "ym2612"
    },
    {
      "channel": 0,
      "note": 47,
      "start": 0.162,
      "duration": 0.1622,
      "velocity": 120,
      "chip": "ym2612"
    },
    {
      "channel": 1,
      "note": 83,
      "start": 0.1623,
      "duration": 0.0454,
      "velocity": 125,
      "chip": "ym2612"
    },
    {
      "channel": 2,
      "note": 73,
      "start": 0.1624,
      "duration": 0.0026,
      "velocity": 79,
      "chip": "ym2612"
    },
    {
      "channel": 3,
      "note": 76,
      "start": 0.1626,
      "duration": 0.0025,
      "velocity": 79,
      "chip": "ym2612"
    },
    {
      "channel": 4,
      "note": 50,
      "start": 0.1628,
      "duration": 0.0024,
      "velocity": 79,
      "chip": "ym2612"
    },
    {
      "channel": 2,
      "note": 72,
      "start": 0.165,
      "duration": 0.0023,
      "velocity": 79,
      "chip": "ym2612"
    },
    {
      "channel": 3,
      "note": 75,
      "start": 0.1652,
      "duration": 0.0023,
      "velocity": 79,
      "chip": "ym2612"
    },
    {
      "channel": 4,
      "note": 49,
      "start": 0.1654,
      "duration": 0.0023,
      "velocity": 79,
      "chip": "ym2612"
    },
    {
      "channel": 2,
      "note": 71,
      "start": 0.1673,
      "duration": 0.041,
      "velocity": 79,
      "chip": "ym2612"
    },
    {
      "channel": 3,
      "note": 74,
      "start": 0.1675,
      "duration": 0.0408,
      "velocity": 79,
      "chip": "ym2612"
    },
    {
      "channel": 4,
      "note": 48,
      "start": 0.1677,
      "duration": 0.0411,
      "velocity": 79,
      "chip": "ym2612"
    },
    {
      "channel": 1,
      "note": 84,
      "start": 0.208,
      "duration": 0.1165,
      "velocity": 125,
      "chip": "ym2612"
    },
    {
      "channel": 2,
      "note": 70,
      "start": 0.2083,
      "duration": 0.033,
      "velocity": 79,
      "chip": "ym2612"
    },
    {
      "channel": 3,
      "note": 73,
      "start": 0.2085,
      "duration": 0.033,
      "velocity": 79,
      "chip": "ym2612"
    },
    {
      "channel": 4,
      "note": 47,
      "start": 0.2088,
      "duration": 0.033,
      "velocity": 79,
      "chip": "ym2612"
    },
    {
      "channel": 2,
      "note": 69,
      "start": 0.2413,
      "duration": 0.0333,
      "velocity": 79,
      "chip": "ym2612"
    },
    {
      "channel": 3,
      "note": 72,
      "start": 0.2415,
      "duration": 0.0333,
      "velocity": 79,
      "chip": "ym2612"
    },
    {
      "channel": 4,
      "note": 46,
      "start": 0.2418,
      "duration": 0.0333,
      "velocity": 79,
      "chip": "ym2612"
    },
    {
      "channel": 2,
      "note": 68,
      "start": 0.2746,
      "duration": 0.0502,
      "velocity": 79,
      "chip": "ym2612"
    },
    {
      "channel": 3,
      "note": 71,
      "start": 0.2749,
      "duration": 0.0503,
      "velocity": 79,
      "chip": "ym2612"
    },
    {
      "channel": 4,
      "note": 45,
      "start": 0.2751,
      "duration": 0.0502,
      "velocity": 79,
      "chip": "ym2612"
    },
    {
      "channel": 0,
      "note": 47,
      "start": 0.3245,
      "duration": 0.1622,
      "velocity": 120,
      "chip": "ym2612"
    },
    {
      "channel": 1,
      "note": 83,
      "start": 0.3248,
      "duration": 0.0454,
      "velocity": 125,
      "chip": "ym2612"
    },
    {
      "channel": 2,
      "note": 67,
      "start": 0.325,
      "duration": 0.0026,
      "velocity": 79,
      "chip": "ym2612"
    },
    {
      "channel": 3,
      "note": 70,
      "start": 0.3251,
      "duration": 0.0025,
      "velocity": 79,
      "chip": "ym2612"
    },
    {
      "channel": 4,
      "note": 44,
      "start": 0.3253,
      "duration": 0.0024,
      "velocity": 79,
      "chip": "ym2612"
    },
    {
      "channel": 2,
      "note": 66,
      "start": 0.3275,
      "duration": 0.0023,
      "velocity": 79,
      "chip": "ym2612"
    },
    {
      "channel": 3,
      "note": 69,
      "start": 0.3277,
      "duration": 0.0023,
      "velocity": 79,
      "chip": "ym2612"
    },
    {
      "channel": 4,
      "note": 43,
      "start": 0.3279,
      "duration": 0.0023,
      "velocity": 79,
      "chip": "ym2612"
    },
    {
      "channel": 2,
      "note": 65,
      "start": 0.3298,
      "duration": 0.0409,
      "velocity": 79,
      "chip": "ym2612"
    },
    {
      "channel": 3,
      "note": 68,
      "start": 0.33,
      "duration": 0.0408,
      "velocity": 79,
      "chip": "ym2612"
    },
    {
      "channel": 4,
      "note": 42,
      "start": 0.3302,
      "duration": 0.0411,
      "velocity": 79,
      "chip": "ym2612"
    },
    {
      "channel": 1,
      "note": 83,
      "start": 0.3705,
      "duration": 0.1165,
      "velocity": 125,
      "chip": "ym2612"
    },
    {
      "channel": 2,
      "note": 64,
      "start": 0.3707,
      "duration": 0.0331,
      "velocity": 79,
      "chip": "ym2612"
    },
    {
      "channel": 3,
      "note": 67,
      "start": 0.371,
      "duration": 0.033,
      "velocity": 79,
      "chip": "ym2612"
    },
    {
      "channel": 4,
      "note": 41,
      "start": 0.3713,
      "duration": 0.033,
      "velocity": 79,
      "chip": "ym2612"
    },
    {
      "channel": 2,
      "note": 63,
      "start": 0.4038,
      "duration": 0.0333,
      "velocity": 79,
      "chip": "ym2612"
    },
    {
      "channel": 3,
      "note": 66,
      "start": 0.4041,
      "duration": 0.0333,
      "velocity": 79,
      "chip": "ym2612"
    },
    {
      "channel": 4,
      "note": 40,
      "start": 0.4043,
      "duration": 0.0333,
      "velocity": 79,
      "chip": "ym2612"
    },
    {
      "channel": 2,
      "note": 62,
      "start": 0.4371,
      "duration": 0.0509,
      "velocity": 125,
      "chip": "ym2612"
    },
    {
      "channel": 3,
      "note": 65,
      "start": 0.4374,
      "duration": 0.051,
      "velocity": 79,
      "chip": "ym2612"
    },
    {
      "channel": 4,
      "note": 39,
      "start": 0.4376,
      "duration": 0.0518,
      "velocity": 119,
      "chip": "ym2612"
    },
    {
      "channel": 0,
      "note": 59,
      "start": 0.487,
      "duration": 0.0192,
      "velocity": 120,
      "chip": "ym2612"
    },
    {
      "channel": 1,
      "note": 86,
      "start": 0.4873,
      "duration": 0.011,
      "velocity": 125,
      "chip": "ym2612"
    },
    {
      "channel": 2,
      "note": 95,
      "start": 0.4882,
      "duration": 0.3431,
      "velocity": 125,
      "chip": "ym2612"
    },
    {
      "channel": 3,
      "note": 64,
      "start": 0.4884,
      "duration": 0.0036,
      "velocity": 79,
      "chip": "ym2612"
    },
    {
      "channel": 4,
      "note": 90,
      "start": 0.4895,
      "duration": 0.342,
      "velocity": 119,
      "chip": "ym2612"
    },
    {
      "channel": 3,
      "note": 63,
      "start": 0.492,
      "duration": 0.0032,
      "velocity": 119,
      "chip": "ym2612"
    },
    {
      "channel": 3,
      "note": 90,
      "start": 0.4953,
      "duration": 0.341,
      "velocity": 119,
      "chip": "ym2612"
    },
    {
      "channel": 1,
      "note": 83,
      "start": 0.4985,
      "duration": 0.008,
      "velocity": 125,
      "chip": "ym2612"
    },
    {
      "channel": 0,
      "note": 47,
      "start": 0.5064,
      "duration": 0.1618,
      "velocity": 120,
      "chip": "ym2612"
    },
    {
      "channel": 1,
      "note": 83,
      "start": 0.5067,
      "duration": 0.045,
      "velocity": 125,
      "chip": "ym2612"
    },
    {
      "channel": 1,
      "note": 87,
      "start": 0.5521,
      "duration": 0.1165,
      "velocity": 125,
      "chip": "ym2612"
    },
    {
      "channel": 0,
      "note": 47,
      "start": 0.6685,
      "duration": 0.162,
      "velocity": 120,
      "chip": "ym2612"
    },
    {
      "channel": 1,
      "note": 83,
      "start": 0.6689,
      "duration": 0.0452,
      "velocity": 125,
      "chip": "ym2612"
    },
    {
      "channel": 1,
      "note": 83,
      "start": 0.7144,
      "duration": 0.1165,
      "velocity": 125,
      "chip": "ym2612"
    },
    {
      "channel": 0,
      "note": 59,
      "start": 0.8308,
      "duration": 0.0167,
      "velocity": 120,
      "chip": "ym2612"
    },
    {
      "channel": 1,
      "note": 83,
      "start": 0.8312,
      "duration": 0.0047,
      "velocity": 125,
      "chip": "ym2612"
    },
    {
      "channel": 2,
      "note": 96,
      "start": 0.8314,
      "duration": 0.817,
      "velocity": 79,
      "chip": "ym2612"
    },
    {
      "channel": 4,
      "note": 91,
      "start": 0.8317,
      "duration": 0.8182,
      "velocity": 79,
      "chip": "ym2612"
    },
    {
      "channel": 1,
      "note": 84,
      "start": 0.8361,
      "duration": 0.0059,
      "velocity": 125,
      "chip": "ym2612"
    },
    {
      "channel": 3,
      "note": 91,
      "start": 0.8366,
      "duration": 0.8191,
      "velocity": 79,
      "chip": "ym2612"
    },
    {
      "channel": 1,
      "note": 86,
      "start": 0.8423,
      "duration": 0.0056,
      "velocity": 125,
      "chip": "ym2612"
    },
    {
      "channel": 0,
      "note": 47,
      "start": 0.8479,
      "duration": 0.1621,
      "velocity": 120,
      "chip": "ym2612"
    },
    {
      "channel": 1,
      "note": 87,
      "start": 0.8481,
      "duration": 0.0047,
      "velocity": 125,
      "chip": "ym2612"
    },
    {
      "channel": 1,
      "note": 88,
      "start": 0.853,
      "duration": 0.0738,
      "velocity": 125,
      "chip": "ym2612"
    },
    {
      "channel": 1,
      "note": 89,
      "start": 0.9271,
      "duration": 0.0832,
      "velocity": 125,
      "chip": "ym2612"
    },
    {
      "channel": 0,
      "note": 47,
      "start": 1.0103,
      "duration": 0.1618,
      "velocity": 120,
      "chip": "ym2612"
    },
    {
      "channel": 1,
      "note": 83,
      "start": 1.0107,
      "duration": 0.0449,
      "velocity": 125,
      "chip": "ym2612"
    },
    {
      "channel": 1,
      "note": 83,
      "start": 1.056,
      "duration": 0.1165,
      "velocity": 125,
      "chip": "ym2612"
    },
    {
      "channel": 0,
      "note": 59,
      "start": 1.1724,
      "duration": 0.0166,
      "velocity": 120,
      "chip": "ym2612"
    },
    {
      "channel": 1,
      "note": 83,
      "start": 1.1727,
      "duration": 0.0078,
      "velocity": 125,
      "chip": "ym2612"
    },
    {
      "channel": 1,
      "note": 84,
      "start": 1.1807,
      "duration": 0.0087,
      "velocity": 125,
      "chip": "ym2612"
    },
    {
      "channel": 0,
      "note": 47,
      "start": 1.1894,
      "duration": 0.1622,
      "velocity": 120,
      "chip": "ym2612"
    },
    {
      "channel": 1,
      "note": 83,
      "start": 1.1897,
      "duration": 0.0454,
      "velocity": 125,
      "chip": "ym2612"
    },
    {
      "channel": 1,
      "note": 83,
      "start": 1.2354,
      "duration": 0.1165,
      "velocity": 125,
      "chip": "ym2612"
    },
    {
      "channel": 0,
      "note": 47,
      "start": 1.3518,
      "duration": 0.1622,
      "velocity": 120,
      "chip": "ym2612"
    },
    {
      "channel": 1,
      "note": 86,
      "start": 1.3522,
      "duration": 0.0454,
      "velocity": 125,
      "chip": "ym2612"
    },
    {
      "channel": 1,
      "note": 83,
      "start": 1.3979,
      "duration": 0.1165,
      "velocity": 125,
      "chip": "ym2612"
    },
    {
      "channel": 0,
      "note": 59,
      "start": 1.5143,
      "duration": 0.0158,
      "velocity": 120,
      "chip": "ym2612"
    },
    {
      "channel": 1,
      "note": 83,
      "start": 1.5146,
      "duration": 0.0076,
      "velocity": 125,
      "chip": "ym2612"
    },
    {
      "channel": 1,
      "note": 93,
      "start": 1.5226,
      "duration": 0.0079,
      "velocity": 125,
      "chip": "ym2612"
    },
    {
      "channel": 0,
      "note": 47,
      "start": 1.5304,
      "duration": 0.048,
      "velocity": 120,
      "chip": "ym2612"
    },
    {
      "channel": 1,
      "note": 83,
      "start": 1.5307,
      "duration": 0.0286,
      "velocity": 125,
      "chip": "ym2612"
    },
    {
      "channel": 1,
      "note": 83,
      "start": 1.5595,
      "duration": 0.0192,
      "velocity": 125,
      "chip": "ym2612"
    },
    {
      "channel": 0,
      "note": 59,
      "start": 1.5787,
      "duration": 0.0487,
      "velocity": 120,
      "chip": "ym2612"
    },
    {
      "channel": 1,
      "note": 91,
      "start": 1.579,
      "duration": 0.0056,
      "velocity": 125,
      "chip": "ym2612"
    },
    {
      "channel": 1,
      "note": 90,
      "start": 1.5848,
      "duration": 0.0257,
      "velocity": 125,
      "chip": "ym2612"
    },
    {
      "channel": 1,
      "note": 89,
      "start": 1.6108,
      "duration": 0.0169,
      "velocity": 125,
      "chip": "ym2612"
    },
    {
      "channel": 0,
      "note": 47,
      "start": 1.6276,
      "duration": 0.0193,
      "velocity": 120,
      "chip": "ym2612"
    },
    {
      "channel": 1,
      "note": 87,
      "start": 1.6279,
      "duration": 0.0049,
      "velocity": 125,
      "chip": "ym2612"
    },
    {
      "channel": 1,
      "note": 86,
      "start": 1.6331,
      "duration": 0.0065,
      "velocity": 125,
      "chip": "ym2612"
    },
    {
      "channel": 1,
      "note": 84,
      "start": 1.6399,
      "duration": 0.0074,
      "velocity": 125,
      "chip": "ym2612"
    },
    {
      "channel": 0,
      "note": 47,
      "start": 1.6472,
      "duration": 0.1623,
      "velocity": 120,
      "chip": "ym2612"
    },
    {
      "channel": 1,
      "note": 83,
      "start": 1.6476,
      "duration": 0.0455,
      "velocity": 125,
      "chip": "ym2612"
    },
    {
      "channel": 2,
      "note": 79,
      "start": 1.6486,
      "duration": 0.0034,
      "velocity": 79,
      "chip": "ym2612"
    },
    {
      "channel": 2,
      "note": 78,
      "start": 1.6519,
      "duration": 0.0027,
      "velocity": 79,
      "chip": "ym2612"
    },
    {
      "channel": 4,
      "note": 55,
      "start": 1.6523,
      "duration": 0.0035,
      "velocity": 79,
      "chip": "ym2612"
    },
    {
      "channel": 2,
      "note": 77,
      "start": 1.6546,
      "duration": 0.039,
      "velocity": 79,
      "chip": "ym2612"
    },
    {
      "channel": 4,
      "note": 54,
      "start": 1.6558,
      "duration": 0.0383,
      "velocity": 79,
      "chip": "ym2612"
    },
    {
      "channel": 1,
      "note": 83,
      "start": 1.6934,
      "duration": 0.1165,
      "velocity": 125,
      "chip": "ym2612"
    },
    {
      "channel": 2,
      "note": 76,
      "start": 1.6936,
      "duration": 0.0331,
      "velocity": 79,
      "chip": "ym2612"
    },
    {
      "channel": 3,
      "note": 79,
      "start": 1.6939,
      "duration": 0.033,
      "velocity": 79,
      "chip": "ym2612"
    },
    {
      "channel": 4,
      "note": 53,
      "start": 1.6941,
      "duration": 0.033,
      "velocity": 79,
      "chip": "ym2612"
    },
    {
      "channel": 2,
      "note": 75,
      "start": 1.7267,
      "duration": 0.0333,
      "velocity": 79,
      "chip": "ym2612"
    },
    {
      "channel": 3,
      "note": 78,
      "start": 1.7269,
      "duration": 0.0333,
      "velocity": 79,
      "chip": "ym2612"
    },
    {
      "channel": 4,
      "note": 52,
      "start": 1.7272,
      "duration": 0.0333,
      "velocity": 79,
      "chip": "ym2612"
    },
    {
      "channel": 2,
      "note": 74,
      "start": 1.76,
      "duration": 0.0502,
      "velocity": 79,
      "chip": "ym2612"
    },
    {
      "channel": 3,
      "note": 77,
      "start": 1.7602,
      "duration": 0.0503,
      "velocity": 79,
      "chip": "ym2612"
    },
    {
      "channel": 4,
      "note": 51,
      "start": 1.7605,
      "duration": 0.0502,
      "velocity": 79,
      "chip": "ym2612"
    },
    {
      "channel": 0,
      "note": 47,
      "start": 1.8098,
      "duration": 0.1622,
      "velocity": 120,
      "chip": "ym2612"
    },
    {
      "channel": 1,
      "note": 83,
      "start": 1.8102,
      "duration": 0.0454,
      "velocity": 125,
      "chip": "ym2612"
    },
    {
      "channel": 2,
      "note": 73,
      "start": 1.8103,
      "duration": 0.0026,
      "velocity": 79,
      "chip": "ym2612"
    },
    {
      "channel": 3,
      "note": 76,
      "start": 1.8105,
      "duration": 0.0025,
      "velocity": 79,
      "chip": "ym2612"
    },
    {
      "channel": 4,
      "note": 50,
      "start": 1.8107,
      "duration": 0.0024,
      "velocity": 79,
      "chip": "ym2612"
    },
    {
      "channel": 2,
      "note": 72,
      "start": 1.8129,
      "duration": 0.0023,
      "velocity": 79,
      "chip": "ym2612"
    },
    {
      "channel": 3,
      "note": 75,
      "start": 1.8131,
      "duration": 0.0023,
      "velocity": 79,
      "chip": "ym2612"
    },
    {
      "channel": 4,
      "note": 49,
      "start": 1.8133,
      "duration": 0.0023,
      "velocity": 79,
      "chip": "ym2612"
    },
    {
      "channel": 2,
      "note": 71,
      "start": 1.8152,
      "duration": 0.041,
      "velocity": 79,
      "chip": "ym2612"
    },
    {
      "channel": 3,
      "note": 74,
      "start": 1.8154,
      "duration": 0.0408,
      "velocity": 79,
      "chip": "ym2612"
    },
    {
      "channel": 4,
      "note": 48,
      "start": 1.8156,
      "duration": 0.0411,
      "velocity": 79,
      "chip": "ym2612"
    },
    {
      "channel": 1,
      "note": 84,
      "start": 1.8559,
      "duration": 0.1165,
      "velocity": 125,
      "chip": "ym2612"
    },
    {
      "channel": 2,
      "note": 70,
      "start": 1.8562,
      "duration": 0.033,
      "velocity": 79,
      "chip": "ym2612"
    },
    {
      "channel": 3,
      "note": 73,
      "start": 1.8564,
      "duration": 0.033,
      "velocity": 79,
      "chip": "ym2612"
    },
    {
      "channel": 4,
      "note": 47,
      "start": 1.8567,
      "duration": 0.033,
      "velocity": 79,
      "chip": "ym2612"
    },
    {
      "channel": 2,
      "note": 69,
      "start": 1.8892,
      "duration": 0.0333,
      "velocity": 79,
      "chip": "ym2612"
    },
    {
      "channel": 3,
      "note": 72,
      "start": 1.8894,
      "duration": 0.0333,
      "velocity": 79,
      "chip": "ym2612"
    },
    {
      "channel": 4,
      "note": 46,
      "start": 1.8897,
      "duration": 0.0333,
      "velocity": 79,
      "chip": "ym2612"
    },
    {
      "channel": 2,
      "note": 68,
      "start": 1.9225,
      "duration": 0.0502,
      "velocity": 79,
      "chip": "ym2612"
    },
    {
      "channel": 3,
      "note": 71,
      "start": 1.9228,
      "duration": 0.0503,
      "velocity": 79,
      "chip": "ym2612"
    },
    {
      "channel": 4,
      "note": 45,
      "start": 1.923,
      "duration": 0.0502,
      "velocity": 79,
      "chip": "ym2612"
    },
    {
      "channel": 0,
      "note": 47,
      "start": 1.9724,
      "duration": 0.1622,
      "velocity": 120,
      "chip": "ym2612"
    },
    {
      "channel": 1,
      "note": 83,
      "start": 1.9727,
      "duration": 0.0454,
      "velocity": 125,
      "chip": "ym2612"
    },
    {
      "channel": 2,
      "note": 67,
      "start": 1.9729,
      "duration": 0.0026,
      "velocity": 79,
      "chip": "ym2612"
    },
    {
      "channel": 3,
      "note": 70,
      "start": 1.973,
      "duration": 0.0025,
      "velocity": 79,
      "chip": "ym2612"
    },
    {
      "channel": 4,
      "note": 44,
      "start": 1.9732,
      "duration": 0.0024,
      "velocity": 79,
      "chip": "ym2612"
    },
    {
      "channel": 2,
      "note": 66,
      "start": 1.9754,
      "duration": 0.0023,
      "velocity": 79,
      "chip": "ym2612"
    },
    {
      "channel": 3,
      "note": 69,
      "start": 1.9756,
      "duration": 0.0023,
      "velocity": 79,
      "chip": "ym2612"
    },
    {
      "channel": 4,
      "note": 43,
      "start": 1.9758,
      "duration": 0.0023,
      "velocity": 79,
      "chip": "ym2612"
    },
    {
      "channel": 2,
      "note": 65,
      "start": 1.9777,
      "duration": 0.0409,
      "velocity": 79,
      "chip": "ym2612"
    },
    {
      "channel": 3,
      "note": 68,
      "start": 1.9779,
      "duration": 0.0408,
      "velocity": 79,
      "chip": "ym2612"
    },
    {
      "channel": 4,
      "note": 42,
      "start": 1.9781,
      "duration": 0.0411,
      "velocity": 79,
      "chip": "ym2612"
    },
    {
      "channel": 1,
      "note": 83,
      "start": 2.0184,
      "duration": 0.1165,
      "velocity": 125,
      "chip": "ym2612"
    },
    {
      "channel": 2,
      "note": 64,
      "start": 2.0186,
      "duration": 0.0331,
      "velocity": 79,
      "chip": "ym2612"
    },
    {
      "channel": 3,
      "note": 67,
      "start": 2.0189,
      "duration": 0.033,
      "velocity": 79,
      "chip": "ym2612"
    },
    {
      "channel": 4,
      "note": 41,
      "start": 2.0192,
      "duration": 0.033,
      "velocity": 79,
      "chip": "ym2612"
    },
    {
      "channel": 2,
      "note": 63,
      "start": 2.0517,
      "duration": 0.0333,
      "velocity": 79,
      "chip": "ym2612"
    },
    {
      "channel": 3,
      "note": 66,
      "start": 2.052,
      "duration": 0.0333,
      "velocity": 79,
      "chip": "ym2612"
    },
    {
      "channel": 4,
      "note": 40,
      "start": 2.0522,
      "duration": 0.0333,
      "velocity": 79,
      "chip": "ym2612"
    },
    {
      "channel": 2,
      "note": 62,
      "start": 2.085,
      "duration": 0.0509,
      "velocity": 125,
      "chip": "ym2612"
    },
    {
      "channel": 3,
      "note": 65,
      "start": 2.0853,
      "duration": 0.051,
      "velocity": 79,
      "chip": "ym2612"
    },
    {
      "channel": 4,
      "note": 39,
      "start": 2.0855,
      "duration": 0.0518,
      "velocity": 119,
      "chip": "ym2612"
    },
    {
      "channel": 0,
      "note": 59,
      "start": 2.1349,
      "duration": 0.0192,
      "velocity": 120,
      "chip": "ym2612"
    },
    {
      "channel": 1,
      "note": 86,
      "start": 2.1352,
      "duration": 0.011,
      "velocity": 125,
      "chip": "ym2612"
    },
    {
      "channel": 2,
      "note": 95,
      "start": 2.1361,
      "duration": 0.3431,
      "velocity": 125,
      "chip": "ym2612"
    },
    {
      "channel": 3,
      "note": 64,
      "start": 2.1363,
      "duration": 0.0036,
      "velocity": 79,
      "chip": "ym2612"
    },
    {
      "channel": 4,
      "note": 90,
      "start": 2.1374,
      "duration": 0.342,
      "velocity": 119,
      "chip": "ym2612"
    },
    {
      "channel": 3,
      "note": 63,
      "start": 2.1398,
      "duration": 0.0032,
      "velocity": 119,
      "chip": "ym2612"
    },
    {
      "channel": 3,
      "note": 90,
      "start": 2.1432,
      "duration": 0.3411,
      "velocity": 119,
      "chip": "ym2612"
    },
    {
      "channel": 1,
      "note": 83,
      "start": 2.1463,
      "duration": 0.0081,
      "velocity": 125,
      "chip": "ym2612"
    },
    {
      "channel": 0,
      "note": 47,
      "start": 2.1544,
      "duration": 0.1618,
      "velocity": 120,
      "chip": "ym2612"
    },
    {
      "channel": 1,
      "note": 83,
      "start": 2.1546,
      "duration": 0.045,
      "velocity": 125,
      "chip": "ym2612"
    },
    {
      "channel": 1,
      "note": 87,
      "start": 2.2,
      "duration": 0.1165,
      "velocity": 125,
      "chip": "ym2612"
    },
    {
      "channel": 0,
      "note": 47,
      "start": 2.3165,
      "duration": 0.162,
      "velocity": 120,
      "chip": "ym2612"
    },
    {
      "channel": 1,
      "note": 83,
      "start": 2.3168,
      "duration": 0.0452,
      "velocity": 125,
      "chip": "ym2612"
    },
    {
      "channel": 1,
      "note": 83,
      "start": 2.3623,
      "duration": 0.1165,
      "velocity": 125,
      "chip": "ym2612"
    },
    {
      "channel": 0,
      "note": 59,
      "start": 2.4788,
      "duration": 0.0167,
      "velocity": 120,
      "chip": "ym2612"
    },
    {
      "channel": 1,
      "note": 83,
      "start": 2.4791,
      "duration": 0.0047,
      "velocity": 125,
      "chip": "ym2612"
    },
    {
      "channel": 2,
      "note": 98,
      "start": 2.4793,
      "duration": 0.5986,
      "velocity": 79,
      "chip": "ym2612"
    },
    {
      "channel": 4,
      "note": 93,
      "start": 2.4796,
      "duration": 0.5995,
      "velocity": 79,
      "chip": "ym2612"
    },
    {
      "channel": 1,
      "note": 84,
      "start": 2.4841,
      "duration": 0.0059,
      "velocity": 125,
      "chip": "ym2612"
    },
    {
      "channel": 3,
      "note": 93,
      "start": 2.4845,
      "duration": 0.6003,
      "velocity": 79,
      "chip": "ym2612"
    },
    {
      "channel": 1,
      "note": 86,
      "start": 2.4902,
      "duration": 0.0056,
      "velocity": 125,
      "chip": "ym2612"
    },
    {
      "channel": 0,
      "note": 47,
      "start": 2.4958,
      "duration": 0.1621,
      "velocity": 120,
      "chip": "ym2612"
    },
    {
      "channel": 1,
      "note": 87,
      "start": 2.4961,
      "duration": 0.0047,
      "velocity": 125,
      "chip": "ym2612"
    },
    {
      "channel": 1,
      "note": 88,
      "start": 2.501,
      "duration": 0.0737,
      "velocity": 125,
      "chip": "ym2612"
    },
    {
      "channel": 1,
      "note": 89,
      "start": 2.575,
      "duration": 0.0832,
      "velocity": 125,
      "chip": "ym2612"
    },
    {
      "channel": 0,
      "note": 47,
      "start": 2.6582,
      "duration": 0.1619,
      "velocity": 120,
      "chip": "ym2612"
    },
    {
      "channel": 1,
      "note": 83,
      "start": 2.6586,
      "duration": 0.0449,
      "velocity": 125,
      "chip": "ym2612"
    },
    {
      "channel": 1,
      "note": 83,
      "start": 2.7038,
      "duration": 0.1166,
      "velocity": 125,
      "chip": "ym2612"
    },
    {
      "channel": 0,
      "note": 59,
      "start": 2.8204,
      "duration": 0.1364,
      "velocity": 120,
      "chip": "ym2612"
    },
    {
      "channel": 1,
      "note": 83,
      "start": 2.8207,
      "duration": 0.0196,
      "velocity": 125,
      "chip": "ym2612"
    },
    {
      "channel": 1,
      "note": 84,
      "start": 2.8406,
      "duration": 0.1166,
      "velocity": 125,
      "chip": "ym2612"
    },
    {
      "channel": 0,
      "note": 47,
      "start": 2.9571,
      "duration": 0.0305,
      "velocity": 120,
      "chip": "ym2612"
    },
    {
      "channel": 1,
      "note": 83,
      "start": 2.9575,
      "duration": 0.02,
      "velocity": 125,
      "chip": "ym2612"
    },
    {
      "channel": 1,
      "note": 83,
      "start": 2.9778,
      "duration": 0.0102,
      "velocity": 125,
      "chip": "ym2612"
    },
    {
      "channel": 0,
      "note": 47,
      "start": 2.9879,
      "duration": 0.0158,
      "velocity": 120,
      "chip": "ym2612"
    },
    {
      "channel": 1,
      "note": 86,
      "start": 2.9883,
      "duration": 0.008,
      "velocity": 125,
      "chip": "ym2612"
    },
    {
      "channel": 1,
      "note": 83,
      "start": 2.9965,
      "duration": 0.0077,
      "velocity": 125,
      "chip": "ym2612"
    },
    {
      "channel": 0,
      "note": 59,
      "start": 3.0041,
      "duration": 0.0164,
      "velocity": 120,
      "chip": "ym2612"
    },
    {
      "channel": 1,
      "note": 83,
      "start": 3.0043,
      "duration": 0.0078,
      "velocity": 125,
      "chip": "ym2612"
    },
    {
      "channel": 1,
      "note": 93,
      "start": 3.0122,
      "duration": 0.0086,
      "velocity": 125,
      "chip": "ym2612"
    },
    {
      "channel": 0,
      "note": 47,
      "start": 3.0208,
      "duration": 0.016,
      "velocity": 120,
      "chip": "ym2612"
    },
    {
      "channel": 1,
      "note": 83,
      "start": 3.0211,
      "duration": 0.0079,
      "velocity": 125,
      "chip": "ym2612"
    },
    {
      "channel": 1,
      "note": 83,
      "start": 3.0292,
      "duration": 0.008,
      "velocity": 125,
      "chip": "ym2612"
    },
    {
      "channel": 0,
      "note": 59,
      "start": 3.0371,
      "duration": 0.0195,
      "velocity": 120,
      "chip": "ym2612"
    },
    {
      "channel": 1,
      "note": 91,
      "start": 3.0374,
      "duration": 0.0064,
      "velocity": 125,
      "chip": "ym2612"
    },
    {
      "channel": 1,
      "note": 90,
      "start": 3.0441,
      "duration": 0.0065,
      "velocity": 125,
      "chip": "ym2612"
    },
    {
      "channel": 1,
      "note": 89,
      "start": 3.0509,
      "duration": 0.0061,
      "velocity": 125,
      "chip": "ym2612"
    },
    {
      "channel": 0,
      "note": 47,
      "start": 3.0568,
      "duration": 0.0196,
      "velocity": 120,
      "chip": "ym2612"
    },
    {
      "channel": 1,
      "note": 87,
      "start": 3.0571,
      "duration": 0.005,
      "velocity": 125,
      "chip": "ym2612"
    },
    {
      "channel": 1,
      "note": 86,
      "start": 3.0624,
      "duration": 0.0067,
      "velocity": 125,
      "chip": "ym2612"
    },
    {
      "channel": 1,
      "note": 84,
      "start": 3.0693,
      "duration": 0.0076,
      "velocity": 125,
      "chip": "ym2612"
    },
    {
      "channel": 0,
      "note": 47,
      "start": 3.0768,
      "duration": 0.162,
      "velocity": 120,
      "chip": "ym2612"
    },
    {
      "channel": 1,
      "note": 83,
      "start": 3.0771,
      "duration": 0.0452,
      "velocity": 125,
      "chip": "ym2612"
    },
    {
      "channel": 2,
      "note": 79,
      "start": 3.078,
      "duration": 0.0032,
      "velocity": 79,
      "chip": "ym2612"
    },
    {
      "channel": 2,
      "note": 78,
      "start": 3.0812,
      "duration": 0.0025,
      "velocity": 79,
      "chip": "ym2612"
    },
    {
      "channel": 4,
      "note": 55,
      "start": 3.0816,
      "duration": 0.0033,
      "velocity": 79,
      "chip": "ym2612"
    },
    {
      "channel": 2,
      "note": 77,
      "start": 3.0838,
      "duration": 0.039,
      "velocity": 79,
      "chip": "ym2612"
    },
    {
      "channel": 4,
      "note": 54,
      "start": 3.085,
      "duration": 0.0384,
      "velocity": 79,
      "chip": "ym2612"
    },
    {
      "channel": 1,
      "note": 83,
      "start": 3.1226,
      "duration": 0.1165,
      "velocity": 125,
      "chip": "ym2612"
    },
    {
      "channel": 2,
      "note": 76,
      "start": 3.1228,
      "duration": 0.0331,
      "velocity": 79,
      "chip": "ym2612"
    },
    {
      "channel": 3,
      "note": 79,
      "start": 3.1232,
      "duration": 0.033,
      "velocity": 79,
      "chip": "ym2612"
    },
    {
      "channel": 4,
      "note": 53,
      "start": 3.1234,
      "duration": 0.033,
      "velocity": 79,
      "chip": "ym2612"
    },
    {
      "channel": 2,
      "note": 75,
      "start": 3.1559,
      "duration": 0.0333,
      "velocity": 79,
      "chip": "ym2612"
    },
    {
      "channel": 3,
      "note": 78,
      "start": 3.1562,
      "duration": 0.0333,
      "velocity": 79,
      "chip": "ym2612"
    },
    {
      "channel": 4,
      "note": 52,
      "start": 3.1564,
      "duration": 0.0333,
      "velocity": 79,
      "chip": "ym2612"
    },
    {
      "channel": 2,
      "note": 74,
      "start": 3.1893,
      "duration": 0.0502,
      "velocity": 79,
      "chip": "ym2612"
    },
    {
      "channel": 3,
      "note": 77,
      "start": 3.1895,
      "duration": 0.0503,
      "velocity": 79,
      "chip": "ym2612"
    },
    {
      "channel": 4,
      "note": 51,
      "start": 3.1898,
      "duration": 0.0502,
      "velocity": 79,
      "chip": "ym2612"
    },
    {
      "channel": 0,
      "note": 47,
      "start": 3.2391,
      "duration": 0.1622,
      "velocity": 120,
      "chip": "ym2612"
    },
    {
      "channel": 1,
      "note": 83,
      "start": 3.2394,
      "duration": 0.0454,
      "velocity": 125,
      "chip": "ym2612"
    },
    {
      "channel": 2,
      "note": 73,
      "start": 3.2396,
      "duration": 0.0026,
      "velocity": 79,
      "chip": "ym2612"
    },
    {
      "channel": 3,
      "note": 76,
      "start": 3.2398,
      "duration": 0.0025,
      "velocity": 79,
      "chip": "ym2612"
    },
    {
      "channel": 4,
      "note": 50,
      "start": 3.2399,
      "duration": 0.0024,
      "velocity": 79,
      "chip": "ym2612"
    },
    {
      "channel": 2,
      "note": 72,
      "start": 3.2422,
      "duration": 0.0023,
      "velocity": 79,
      "chip": "ym2612"
    },
    {
      "channel": 3,
      "note": 75,
      "start": 3.2423,
      "duration": 0.0023,
      "velocity": 79,
      "chip": "ym2612"
    },
    {
      "channel": 4,
      "note": 49,
      "start": 3.2425,
      "duration": 0.0023,
      "velocity": 79,
      "chip": "ym2612"
    },
    {
      "channel": 2,
      "note": 71,
      "start": 3.2445,
      "duration": 0.041,
      "velocity": 79,
      "chip": "ym2612"
    },
    {
      "channel": 3,
      "note": 74,
      "start": 3.2446,
      "duration": 0.0408,
      "velocity": 79,
      "chip": "ym2612"
    },
    {
      "channel": 4,
      "note": 48,
      "start": 3.2449,
      "duration": 0.0411,
      "velocity": 79,
      "chip": "ym2612"
    },
    {
      "channel": 1,
      "note": 84,
      "start": 3.2851,
      "duration": 0.1165,
      "velocity": 125,
      "chip": "ym2612"
    },
    {
      "channel": 2,
      "note": 70,
      "start": 3.2854,
      "duration": 0.033,
      "velocity": 79,
      "chip": "ym2612"
    },
    {
      "channel": 3,
      "note": 73,
      "start": 3.2857,
      "duration": 0.033,
      "velocity": 79,
      "chip": "ym2612"
    },
    {
      "channel": 4,
      "note": 47,
      "start": 3.2859,
      "duration": 0.033,
      "velocity": 79,
      "chip": "ym2612"
    },
    {
      "channel": 2,
      "note": 69,
      "start": 3.3184,
      "duration": 0.0333,
      "velocity": 79,
      "chip": "ym2612"
    },
    {
      "channel": 3,
      "note": 72,
      "start": 3.3187,
      "duration": 0.0333,
      "velocity": 79,
      "chip": "ym2612"
    },
    {
      "channel": 4,
      "note": 46,
      "start": 3.3189,
      "duration": 0.0333,
      "velocity": 79,
      "chip": "ym2612"
    },
    {
      "channel": 2,
      "note": 68,
      "start": 3.3518,
      "duration": 0.0502,
      "velocity": 79,
      "chip": "ym2612"
    },
    {
      "channel": 3,
      "note": 71,
      "start": 3.352,
      "duration": 0.0503,
      "velocity": 79,
      "chip": "ym2612"
    },
    {
      "channel": 4,
      "note": 45,
      "start": 3.3523,
      "duration": 0.0502,
      "velocity": 79,
      "chip": "ym2612"
    },
    {
      "channel": 0,
      "note": 47,
      "start": 3.4016,
      "duration": 0.1622,
      "velocity": 120,
      "chip": "ym2612"
    },
    {
      "channel": 1,
      "note": 83,
      "start": 3.4019,
      "duration": 0.0454,
      "velocity": 125,
      "chip": "ym2612"
    },
    {
      "channel": 2,
      "note": 67,
      "start": 3.4021,
      "duration": 0.0026,
      "velocity": 79,
      "chip": "ym2612"
    },
    {
      "channel": 3,
      "note": 70,
      "start": 3.4023,
      "duration": 0.0025,
      "velocity": 79,
      "chip": "ym2612"
    },
    {
      "channel": 4,
      "note": 44,
      "start": 3.4024,
      "duration": 0.0024,
      "velocity": 79,
      "chip": "ym2612"
    },
    {
      "channel": 2,
      "note": 66,
      "start": 3.4047,
      "duration": 0.0023,
      "velocity": 79,
      "chip": "ym2612"
    },
    {
      "channel": 3,
      "note": 69,
      "start": 3.4048,
      "duration": 0.0023,
      "velocity": 79,
      "chip": "ym2612"
    },
    {
      "channel": 4,
      "note": 43,
      "start": 3.405,
      "duration": 0.0023,
      "velocity": 79,
      "chip": "ym2612"
    },
    {
      "channel": 2,
      "note": 65,
      "start": 3.407,
      "duration": 0.0409,
      "velocity": 79,
      "chip": "ym2612"
    },
    {
      "channel": 3,
      "note": 68,
      "start": 3.4071,
      "duration": 0.0408,
      "velocity": 79,
      "chip": "ym2612"
    },
    {
      "channel": 4,
      "note": 42,
      "start": 3.4074,
      "duration": 0.0411,
      "velocity": 79,
      "chip": "ym2612"
    },
    {
      "channel": 1,
      "note": 83,
      "start": 3.4477,
      "duration": 0.1165,
      "velocity": 125,
      "chip": "ym2612"
    },
    {
      "channel": 2,
      "note": 64,
      "start": 3.4479,
      "duration": 0.0331,
      "velocity": 79,
      "chip": "ym2612"
    },
    {
      "channel": 3,
      "note": 67,
      "start": 3.4482,
      "duration": 0.033,
      "velocity": 79,
      "chip": "ym2612"
    },
    {
      "channel": 4,
      "note": 41,
      "start": 3.4484,
      "duration": 0.033,
      "velocity": 79,
      "chip": "ym2612"
    },
    {
      "channel": 2,
      "note": 63,
      "start": 3.481,
      "duration": 0.0333,
      "velocity": 79,
      "chip": "ym2612"
    },
    {
      "channel": 3,
      "note": 66,
      "start": 3.4812,
      "duration": 0.0333,
      "velocity": 79,
      "chip": "ym2612"
    },
    {
      "channel": 4,
      "note": 40,
      "start": 3.4815,
      "duration": 0.0333,
      "velocity": 79,
      "chip": "ym2612"
    },
    {
      "channel": 2,
      "note": 62,
      "start": 3.5143,
      "duration": 0.0509,
      "velocity": 125,
      "chip": "ym2612"
    },
    {
      "channel": 3,
      "note": 65,
      "start": 3.5145,
      "duration": 0.051,
      "velocity": 79,
      "chip": "ym2612"
    },
    {
      "channel": 4,
      "note": 39,
      "start": 3.5148,
      "duration": 0.0518,
      "velocity": 119,
      "chip": "ym2612"
    },
    {
      "channel": 0,
      "note": 59,
      "start": 3.5641,
      "duration": 0.0191,
      "velocity": 120,
      "chip": "ym2612"
    },
    {
      "channel": 1,
      "note": 86,
      "start": 3.5644,
      "duration": 0.0109,
      "velocity": 125,
      "chip": "ym2612"
    },
    {
      "channel": 2,
      "note": 95,
      "start": 3.5653,
      "duration": 0.343,
      "velocity": 125,
      "chip": "ym2612"
    },
    {
      "channel": 3,
      "note": 64,
      "start": 3.5655,
      "duration": 0.0036,
      "velocity": 79,
      "chip": "ym2612"
    },
    {
      "channel": 4,
      "note": 90,
      "start": 3.5667,
      "duration": 0.342,
      "velocity": 119,
      "chip": "ym2612"
    },
    {
      "channel": 3,
      "note": 63,
      "start": 3.5691,
      "duration": 0.0031,
      "velocity": 119,
      "chip": "ym2612"
    },
    {
      "channel": 3,
      "note": 90,
      "start": 3.5724,
      "duration": 0.3411,
      "velocity": 119,
      "chip": "ym2612"
    },
    {
      "channel": 1,
      "note": 83,
      "start": 3.5755,
      "duration": 0.0081,
      "velocity": 125,
      "chip": "ym2612"
    },
    {
      "channel": 0,
      "note": 47,
      "start": 3.5835,
      "duration": 0.1618,
      "velocity": 120,
      "chip": "ym2612"
    },
    {
      "channel": 1,
      "note": 83,
      "start": 3.5838,
      "duration": 0.045,
      "velocity": 125,
      "chip": "ym2612"
    },
    {
      "channel": 1,
      "note": 87,
      "start": 3.6292,
      "duration": 0.1165,
      "velocity": 125,
      "chip": "ym2612"
    },
    {
      "channel": 0,
      "note": 47,
      "start": 3.7456,
      "duration": 0.162,
      "velocity": 120,
      "chip": "ym2612"
    },
    {
      "channel": 1,
      "note": 83,
      "start": 3.746,
      "duration": 0.0452,
      "velocity": 125,
      "chip": "ym2612"
    },
    {
      "channel": 1,
      "note": 83,
      "start": 3.7915,
      "duration": 0.1165,
      "velocity": 125,
      "chip": "ym2612"
    },
    {
      "channel": 0,
      "note": 59,
      "start": 3.9079,
      "duration": 0.0173,
      "velocity": 120,
      "chip": "ym2612"
    },
    {
      "channel": 1,
      "note": 83,
      "start": 3.9083,
      "duration": 0.0049,
      "velocity": 125,
      "chip": "ym2612"
    },
    {
      "channel": 2,
      "note": 96,
      "start": 3.9085,
      "duration": 0.4254,
      "velocity": 79,
      "chip": "ym2612"
    },
    {
      "channel": 4,
      "note": 91,
      "start": 3.9088,
      "duration": 0.4265,
      "velocity": 79,
      "chip": "ym2612"
    },
    {
      "channel": 1,
      "note": 84,
      "start": 3.9134,
      "duration": 0.0059,
      "velocity": 125,
      "chip": "ym2612"
    },
    {
      "channel": 3,
      "note": 91,
      "start": 3.9137,
      "duration": 0.4275,
      "velocity": 79,
      "chip": "ym2612"
    },
    {
      "channel": 1,
      "note": 86,
      "start": 3.9195,
      "duration": 0.0061,
      "velocity": 125,
      "chip": "ym2612"
    },
    {
      "channel": 0,
      "note": 47,
      "start": 3.9255,
      "duration": 0.0552,
      "velocity": 120,
      "chip": "ym2612"
    },
    {
      "channel": 1,
      "note": 87,
      "start": 3.9259,
      "duration": 0.0045,
      "velocity": 125,
      "chip": "ym2612"
    },
    {
      "channel": 1,
      "note": 88,
      "start": 3.9307,
      "duration": 0.0432,
      "velocity": 125,
      "chip": "ym2612"
    },
    {
      "channel": 1,
      "note": 89,
      "start": 3.9742,
      "duration": 0.0068,
      "velocity": 125,
      "chip": "ym2612"
    },
    {
      "channel": 0,
      "note": 47,
      "start": 3.981,
      "duration": 0.0162,
      "velocity": 120,
      "chip": "ym2612"
    },
    {
      "channel": 1,
      "note": 83,
      "start": 3.9812,
      "duration": 0.0082,
      "velocity": 125,
      "chip": "ym2612"
    },
    {
      "channel": 1,
      "note": 83,
      "start": 3.9896,
      "duration": 0.008,
      "velocity": 125,
      "chip": "ym2612"
    },
    {
      "channel": 0,
      "note": 59,
      "start": 3.9976,
      "duration": 0.1617,
      "velocity": 120,
      "chip": "ym2612"
    },
    {
      "channel": 1,
      "note": 83,
      "start": 3.9978,
      "duration": 0.045,
      "velocity": 125,
      "chip": "ym2612"
    },
    {
      "channel": 1,
      "note": 84,
      "start": 4.0431,
      "duration": 0.1165,
      "velocity": 125,
      "chip": "ym2612"
    },
    {
      "channel": 0,
      "note": 47,
      "start": 4.1596,
      "duration": 0.0166,
      "velocity": 120,
      "chip": "ym2612"
    },
    {
      "channel": 1,
      "note": 83,
      "start": 4.1599,
      "duration": 0.0079,
      "velocity": 125,
      "chip": "ym2612"
    },
    {
      "channel": 1,
      "note": 83,
      "start": 4.1681,
      "duration": 0.0086,
      "velocity": 125,
      "chip": "ym2612"
    },
    {
      "channel": 0,
      "note": 47,
      "start": 4.1766,
      "duration": 0.0165,
      "velocity": 120,
      "chip": "ym2612"
    },
    {
      "channel": 1,
      "note": 86,
      "start": 4.1769,
      "duration": 0.0081,
      "velocity": 125,
      "chip": "ym2612"
    },
    {
      "channel": 1,
      "note": 83,
      "start": 4.1853,
      "duration": 0.0081,
      "velocity": 125,
      "chip": "ym2612"
    },
    {
      "channel": 0,
      "note": 59,
      "start": 4.1934,
      "duration": 0.0164,
      "velocity": 120,
      "chip": "ym2612"
    },
    {
      "channel": 1,
      "note": 83,
      "start": 4.1936,
      "duration": 0.0082,
      "velocity": 125,
      "chip": "ym2612"
    },
    {
      "channel": 1,
      "note": 93,
      "start": 4.202,
      "duration": 0.0082,
      "velocity": 125,
      "chip": "ym2612"
    },
    {
      "channel": 0,
      "note": 47,
      "start": 4.2101,
      "duration": 0.074,
      "velocity": 120,
      "chip": "ym2612"
    },
    {
      "channel": 1,
      "note": 83,
      "start": 4.2104,
      "duration": 0.0452,
      "velocity": 125,
      "chip": "ym2612"
    },
    {
      "channel": 1,
      "note": 83,
      "start": 4.2559,
      "duration": 0.0286,
      "velocity": 125,
      "chip": "ym2612"
    },
    {
      "channel": 0,
      "note": 59,
      "start": 4.2845,
      "duration": 0.0305,
      "velocity": 120,
      "chip": "ym2612"
    },
    {
      "channel": 1,
      "note": 91,
      "start": 4.2848,
      "duration": 0.0064,
      "velocity": 125,
      "chip": "ym2612"
    },
    {
      "channel": 1,
      "note": 90,
      "start": 4.2915,
      "duration": 0.007,
      "velocity": 125,
      "chip": "ym2612"
    },
    {
      "channel": 1,
      "note": 89,
      "start": 4.2988,
      "duration": 0.0165,
      "velocity": 125,
      "chip": "ym2612"
    },
    {
      "channel": 0,
      "note": 47,
      "start": 4.3153,
      "duration": 0.0172,
      "velocity": 120,
      "chip": "ym2612"
    },
    {
      "channel": 1,
      "note": 87,
      "start": 4.3156,
      "duration": 0.0049,
      "velocity": 125,
      "chip": "ym2612"
    },
    {
      "channel": 1,
      "note": 86,
      "start": 4.3207,
      "duration": 0.0059,
      "velocity": 125,
      "chip": "ym2612"
    },
    {
      "channel": 1,
      "note": 84,
      "start": 4.3268,
      "duration": 0.0061,
      "velocity": 125,
      "chip": "ym2612"
    },
    {
      "channel": 0,
      "note": 47,
      "start": 4.3328,
      "duration": 0.1625,
      "velocity": 120,
      "chip": "ym2612"
    },
    {
      "channel": 1,
      "note": 83,
      "start": 4.3331,
      "duration": 0.0458,
      "velocity": 125,
      "chip": "ym2612"
    },
    {
      "channel": 2,
      "note": 79,
      "start": 4.334,
      "duration": 0.0036,
      "velocity": 79,
      "chip": "ym2612"
    },
    {
      "channel": 2,
      "note": 78,
      "start": 4.3376,
      "duration": 0.0024,
      "velocity": 79,
      "chip": "ym2612"
    },
    {
      "channel": 4,
      "note": 55,
      "start": 4.3379,
      "duration": 0.0035,
      "velocity": 79,
      "chip": "ym2612"
    },
    {
      "channel": 2,
      "note": 77,
      "start": 4.34,
      "duration": 0.0393,
      "velocity": 79,
      "chip": "ym2612"
    },
    {
      "channel": 4,
      "note": 54,
      "start": 4.3414,
      "duration": 0.0385,
      "velocity": 79,
      "chip": "ym2612"
    },
    {
      "channel": 1,
      "note": 83,
      "start": 4.3792,
      "duration": 0.1165,
      "velocity": 125,
      "chip": "ym2612"
    },
    {
      "channel": 2,
      "note": 76,
      "start": 4.3794,
      "duration": 0.0331,
      "velocity": 79,
      "chip": "ym2612"
    },
    {
      "channel": 3,
      "note": 79,
      "start": 4.3797,
      "duration": 0.033,
      "velocity": 79,
      "chip": "ym2612"
    },
    {
      "channel": 4,
      "note": 53,
      "start": 4.3799,
      "duration": 0.033,
      "velocity": 79,
      "chip": "ym2612"
    },
    {
      "channel": 2,
      "note": 75,
      "start": 4.4124,
      "duration": 0.0333,
      "velocity": 79,
      "chip": "ym2612"
    },
    {
      "channel": 3,
      "note": 78,
      "start": 4.4127,
      "duration": 0.0333,
      "velocity": 79,
      "chip": "ym2612"
    },
    {
      "channel": 4,
      "note": 52,
      "start": 4.4129,
      "duration": 0.0333,
      "velocity": 79,
      "chip": "ym2612"
    },
    {
      "channel": 2,
      "note": 74,
      "start": 4.4458,
      "duration": 0.0502,
      "velocity": 79,
      "chip": "ym2612"
    },
    {
      "channel": 3,
      "note": 77,
      "start": 4.446,
      "duration": 0.0503,
      "velocity": 79,
      "chip": "ym2612"
    },
    {
      "channel": 4,
      "note": 51,
      "start": 4.4463,
      "duration": 0.0502,
      "velocity": 79,
      "chip": "ym2612"
    },
    {
      "channel": 0,
      "note": 47,
      "start": 4.4956,
      "duration": 0.1622,
      "velocity": 120,
      "chip": "ym2612"
    },
    {
      "channel": 1,
      "note": 83,
      "start": 4.4959,
      "duration": 0.0454,
      "velocity": 125,
      "chip": "ym2612"
    },
    {
      "channel": 2,
      "note": 73,
      "start": 4.4961,
      "duration": 0.0026,
      "velocity": 79,
      "chip": "ym2612"
    },
    {
      "channel": 3,
      "note": 76,
      "start": 4.4963,
      "duration": 0.0025,
      "velocity": 79,
      "chip": "ym2612"
    },
    {
      "channel": 4,
      "note": 50,
      "start": 4.4965,
      "duration": 0.0024,
      "velocity": 79,
      "chip": "ym2612"
    },
    {
      "channel": 2,
      "note": 72,
      "start": 4.4987,
      "duration": 0.0023,
      "velocity": 79,
      "chip": "ym2612"
    },
    {
      "channel": 3,
      "note": 75,
      "start": 4.4988,
      "duration": 0.0023,
      "velocity": 79,
      "chip": "ym2612"
    },
    {
      "channel": 4,
      "note": 49,
      "start": 4.499,
      "duration": 0.0023,
      "velocity": 79,
      "chip": "ym2612"
    },
    {
      "channel": 2,
      "note": 71,
      "start": 4.501,
      "duration": 0.041,
      "velocity": 79,
      "chip": "ym2612"
    },
    {
      "channel": 3,
      "note": 74,
      "start": 4.5012,
      "duration": 0.0408,
      "velocity": 79,
      "chip": "ym2612"
    },
    {
      "channel": 4,
      "note": 48,
      "start": 4.5014,
      "duration": 0.0411,
      "velocity": 79,
      "chip": "ym2612"
    },
    {
      "channel": 1,
      "note": 84,
      "start": 4.5417,
      "duration": 0.1165,
      "velocity": 125,
      "chip": "ym2612"
    },
    {
      "channel": 2,
      "note": 70,
      "start": 4.542,
      "duration": 0.033,
      "velocity": 79,
      "chip": "ym2612"
    },
    {
      "channel": 3,
      "note": 73,
      "start": 4.5422,
      "duration": 0.033,
      "velocity": 79,
      "chip": "ym2612"
    },
    {
      "channel": 4,
      "note": 47,
      "start": 4.5424,
      "duration": 0.033,
      "velocity": 79,
      "chip": "ym2612"
    },
    {
      "channel": 2,
      "note": 69,
      "start": 4.575,
      "duration": 0.0333,
      "velocity": 79,
      "chip": "ym2612"
    },
    {
      "channel": 3,
      "note": 72,
      "start": 4.5752,
      "duration": 0.0333,
      "velocity": 79,
      "chip": "ym2612"
    },
    {
      "channel": 4,
      "note": 46,
      "start": 4.5755,
      "duration": 0.0333,
      "velocity": 79,
      "chip": "ym2612"
    },
    {
      "channel": 2,
      "note": 68,
      "start": 4.6083,
      "duration": 0.0502,
      "velocity": 79,
      "chip": "ym2612"
    },
    {
      "channel": 3,
      "note": 71,
      "start": 4.6085,
      "duration": 0.0503,
      "velocity": 79,
      "chip": "ym2612"
    },
    {
      "channel": 4,
      "note": 45,
      "start": 4.6088,
      "duration": 0.0502,
      "velocity": 79,
      "chip": "ym2612"
    },
    {
      "channel": 0,
      "note": 47,
      "start": 4.6581,
      "duration": 0.1622,
      "velocity": 120,
      "chip": "ym2612"
    },
    {
      "channel": 1,
      "note": 83,
      "start": 4.6585,
      "duration": 0.0454,
      "velocity": 125,
      "chip": "ym2612"
    },
    {
      "channel": 2,
      "note": 67,
      "start": 4.6586,
      "duration": 0.0026,
      "velocity": 79,
      "chip": "ym2612"
    },
    {
      "channel": 3,
      "note": 70,
      "start": 4.6588,
      "duration": 0.0025,
      "velocity": 79,
      "chip": "ym2612"
    },
    {
      "channel": 4,
      "note": 44,
      "start": 4.659,
      "duration": 0.0024,
      "velocity": 79,
      "chip": "ym2612"
    },
    {
      "channel": 2,
      "note": 66,
      "start": 4.6612,
      "duration": 0.0023,
      "velocity": 79,
      "chip": "ym2612"
    },
    {
      "channel": 3,
      "note": 69,
      "start": 4.6614,
      "duration": 0.0023,
      "velocity": 79,
      "chip": "ym2612"
    },
    {
      "channel": 4,
      "note": 43,
      "start": 4.6616,
      "duration": 0.0023,
      "velocity": 79,
      "chip": "ym2612"
    },
    {
      "channel": 2,
      "note": 65,
      "start": 4.6635,
      "duration": 0.0409,
      "velocity": 79,
      "chip": "ym2612"
    },
    {
      "channel": 3,
      "note": 68,
      "start": 4.6637,
      "duration": 0.0408,
      "velocity": 79,
      "chip": "ym2612"
    },
    {
      "channel": 4,
      "note": 42,
      "start": 4.6639,
      "duration": 0.0411,
      "velocity": 79,
      "chip": "ym2612"
    },
    {
      "channel": 1,
      "note": 83,
      "start": 4.7042,
      "duration": 0.1165,
      "velocity": 125,
      "chip": "ym2612"
    },
    {
      "channel": 2,
      "note": 64,
      "start": 4.7044,
      "duration": 0.0331,
      "velocity": 79,
      "chip": "ym2612"
    },
    {
      "channel": 3,
      "note": 67,
      "start": 4.7047,
      "duration": 0.033,
      "velocity": 79,
      "chip": "ym2612"
    },
    {
      "channel": 4,
      "note": 41,
      "start": 4.705,
      "duration": 0.033,
      "velocity": 79,
      "chip": "ym2612"
    },
    {
      "channel": 2,
      "note": 63,
      "start": 4.7375,
      "duration": 0.0333,
      "velocity": 79,
      "chip": "ym2612"
    },
    {
      "channel": 3,
      "note": 66,
      "start": 4.7377,
      "duration": 0.0333,
      "velocity": 79,
      "chip": "ym2612"
    },
    {
      "channel": 4,
      "note": 40,
      "start": 4.738,
      "duration": 0.0333,
      "velocity": 79,
      "chip": "ym2612"
    },
    {
      "channel": 2,
      "note": 62,
      "start": 4.7708,
      "duration": 0.0509,
      "velocity": 125,
      "chip": "ym2612"
    },
    {
      "channel": 3,
      "note": 65,
      "start": 4.7711,
      "duration": 0.051,
      "velocity": 79,
      "chip": "ym2612"
    },
    {
      "channel": 4,
      "note": 39,
      "start": 4.7713,
      "duration": 0.0518,
      "velocity": 119,
      "chip": "ym2612"
    },
    {
      "channel": 0,
      "note": 59,
      "start": 4.8207,
      "duration": 0.0192,
      "velocity": 120,
      "chip": "ym2612"
    },
    {
      "channel": 1,
      "note": 86,
      "start": 4.821,
      "duration": 0.011,
      "velocity": 125,
      "chip": "ym2612"
    },
    {
      "channel": 2,
      "note": 95,
      "start": 4.8219,
      "duration": 0.3431,
      "velocity": 125,
      "chip": "ym2612"
    },
    {
      "channel": 3,
      "note": 64,
      "start": 4.822,
      "duration": 0.0036,
      "velocity": 79,
      "chip": "ym2612"
    },
    {
      "channel": 4,
      "note": 90,
      "start": 4.8232,
      "duration": 0.342,
      "velocity": 119,
      "chip": "ym2612"
    },
    {
      "channel": 3,
      "note": 63,
      "start": 4.8256,
      "duration": 0.0032,
      "velocity": 119,
      "chip": "ym2612"
    },
    {
      "channel": 3,
      "note": 90,
      "start": 4.829,
      "duration": 0.3411,
      "velocity": 119,
      "chip": "ym2612"
    },
    {
      "channel": 1,
      "note": 83,
      "start": 4.8321,
      "duration": 0.0081,
      "velocity": 125,
      "chip": "ym2612"
    },
    {
      "channel": 0,
      "note": 47,
      "start": 4.8401,
      "duration": 0.1618,
      "velocity": 120,
      "chip": "ym2612"
    },
    {
      "channel": 1,
      "note": 83,
      "start": 4.8404,
      "duration": 0.045,
      "velocity": 125,
      "chip": "ym2612"
    },
    {
      "channel": 1,
      "note": 87,
      "start": 4.8858,
      "duration": 0.1165,
      "velocity": 125,
      "chip": "ym2612"
    },
    {
      "channel": 0,
      "note": 47,
      "start": 5.0022,
      "duration": 0.162,
      "velocity": 120,
      "chip": "ym2612"
    },
    {
      "channel": 1,
      "note": 83,
      "start": 5.0025,
      "duration": 0.0452,
      "velocity": 125,
      "chip": "ym2612"
    },
    {
      "channel": 1,
      "note": 83,
      "start": 5.048,
      "duration": 0.1165,
      "velocity": 125,
      "chip": "ym2612"
    },
    {
      "channel": 0,
      "note": 59,
      "start": 5.1645,
      "duration": 0.0172,
      "velocity": 120,
      "chip": "ym2612"
    },
    {
      "channel": 1,
      "note": 83,
      "start": 5.1649,
      "duration": 0.0049,
      "velocity": 125,
      "chip": "ym2612"
    },
    {
      "channel": 2,
      "note": 98,
      "start": 5.1651,
      "duration": 0.3002,
      "velocity": 125,
      "chip": "ym2612"
    },
    {
      "channel": 4,
      "note": 93,
      "start": 5.1654,
      "duration": 0.3003,
      "velocity": 119,
      "chip": "ym2612"
    },
    {
      "channel": 1,
      "note": 84,
      "start": 5.1699,
      "duration": 0.0059,
      "velocity": 125,
      "chip": "ym2612"
    },
    {
      "channel": 3,
      "note": 93,
      "start": 5.1702,
      "duration": 0.2996,
      "velocity": 119,
      "chip": "ym2612"
    },
    {
      "channel": 1,
      "note": 86,
      "start": 5.176,
      "duration": 0.0061,
      "velocity": 125,
      "chip": "ym2612"
    },
    {
      "channel": 0,
      "note": 47,
      "start": 5.1821,
      "duration": 0.0166,
      "velocity": 120,
      "chip": "ym2612"
    },
    {
      "channel": 1,
      "note": 87,
      "start": 5.1825,
      "duration": 0.0045,
      "velocity": 125,
      "chip": "ym2612"
    },
    {
      "channel": 1,
      "note": 88,
      "start": 5.1873,
      "duration": 0.0058,
      "velocity": 125,
      "chip": "ym2612"
    },
    {
      "channel": 1,
      "note": 89,
      "start": 5.1933,
      "duration": 0.0057,
      "velocity": 125,
      "chip": "ym2612"
    },
    {
      "channel": 0,
      "note": 47,
      "start": 5.199,
      "duration": 0.0166,
      "velocity": 120,
      "chip": "ym2612"
    },
    {
      "channel": 1,
      "note": 83,
      "start": 5.1993,
      "duration": 0.0081,
      "velocity": 125,
      "chip": "ym2612"
    },
    {
      "channel": 1,
      "note": 83,
      "start": 5.2076,
      "duration": 0.0083,
      "velocity": 125,
      "chip": "ym2612"
    },
    {
      "channel": 0,
      "note": 59,
      "start": 5.2159,
      "duration": 0.0903,
      "velocity": 120,
      "chip": "ym2612"
    },
    {
      "channel": 1,
      "note": 83,
      "start": 5.2161,
      "duration": 0.0451,
      "velocity": 125,
      "chip": "ym2612"
    },
    {
      "channel": 1,
      "note": 84,
      "start": 5.2615,
      "duration": 0.0451,
      "velocity": 125,
      "chip": "ym2612"
    },
    {
      "channel": 0,
      "note": 47,
      "start": 5.3066,
      "duration": 0.0209,
      "velocity": 120,
      "chip": "ym2612"
    },
    {
      "channel": 1,
      "note": 83,
      "start": 5.3069,
      "duration": 0.0108,
      "velocity": 125,
      "chip": "ym2612"
    },
    {
      "channel": 1,
      "note": 83,
      "start": 5.3179,
      "duration": 0.01,
      "velocity": 125,
      "chip": "ym2612"
    },
    {
      "channel": 0,
      "note": 47,
      "start": 5.3279,
      "duration": 0.0232,
      "velocity": 120,
      "chip": "ym2612"
    },
    {
      "channel": 1,
      "note": 86,
      "start": 5.3281,
      "duration": 0.008,
      "velocity": 125,
      "chip": "ym2612"
    },
    {
      "channel": 1,
      "note": 83,
      "start": 5.3363,
      "duration": 0.0151,
      "velocity": 125,
      "chip": "ym2612"
    },
    {
      "channel": 0,
      "note": 59,
      "start": 5.3513,
      "duration": 0.0163,
      "velocity": 120,
      "chip": "ym2612"
    },
    {
      "channel": 1,
      "note": 83,
      "start": 5.3516,
      "duration": 0.0082,
      "velocity": 125,
      "chip": "ym2612"
    },
    {
      "channel": 1,
      "note": 93,
      "start": 5.36,
      "duration": 0.008,
      "velocity": 125,
      "chip": "ym2612"
    },
    {
      "channel": 0,
      "note": 47,
      "start": 5.3679,
      "duration": 0.0538,
      "velocity": 120,
      "chip": "ym2612"
    },
    {
      "channel": 1,
      "note": 83,
      "start": 5.3682,
      "duration": 0.0087,
      "velocity": 125,
      "chip": "ym2612"
    },
    {
      "channel": 1,
      "note": 83,
      "start": 5.3771,
      "duration": 0.045,
      "velocity": 125,
      "chip": "ym2612"
    },
    {
      "channel": 0,
      "note": 59,
      "start": 5.422,
      "duration": 0.0201,
      "velocity": 120,
      "chip": "ym2612"
    },
    {
      "channel": 1,
      "note": 91,
      "start": 5.4224,
      "duration": 0.0053,
      "velocity": 125,
      "chip": "ym2612"
    },
    {
      "channel": 1,
      "note": 90,
      "start": 5.428,
      "duration": 0.0073,
      "velocity": 125,
      "chip": "ym2612"
    },
    {
      "channel": 1,
      "note": 89,
      "start": 5.4355,
      "duration": 0.007,
      "velocity": 125,
      "chip": "ym2612"
    },
    {
      "channel": 0,
      "note": 47,
      "start": 5.4425,
      "duration": 0.0225,
      "velocity": 120,
      "chip": "ym2612"
    },
    {
      "channel": 1,
      "note": 87,
      "start": 5.4427,
      "duration": 0.0046,
      "velocity": 125,
      "chip": "ym2612"
    },
    {
      "channel": 1,
      "note": 86,
      "start": 5.4477,
      "duration": 0.0117,
      "velocity": 125,
      "chip": "ym2612"
    },
    {
      "channel": 1,
      "note": 84,
      "start": 5.4595,
      "duration": 0.0057,
      "velocity": 125,
      "chip": "ym2612"
    },
    {
      "channel": 0,
      "note": 49,
      "start": 5.5129,
      "duration": 0.0449,
      "velocity": 122,
      "chip": "ym2612"
    },
    {
      "channel": 1,
      "note": 88,
      "start": 5.5141,
      "duration": 0.4853,
      "velocity": 112,
      "chip": "ym2612"
    },
    {
      "channel": 2,
      "note": 95,
      "start": 5.5145,
      "duration": 1.3144,
      "velocity": 125,
      "chip": "ym2612"
    },
    {
      "channel": 4,
      "note": 73,
      "start": 5.5155,
      "duration": 0.1597,
      "velocity": 109,
      "chip": "ym2612"
    },
    {
      "channel": 3,
      "note": 90,
      "start": 5.5201,
      "duration": 1.3141,
      "velocity": 119,
      "chip": "ym2612"
    },
    {
      "channel": 0,
      "note": 49,
      "start": 5.5581,
      "duration": 0.1164,
      "velocity": 122,
      "chip": "ym2612"
    },
    {
      "channel": 0,
      "note": 49,
      "start": 5.6748,
      "duration": 0.0451,
      "velocity": 122,
      "chip": "ym2612"
    },
    {
      "channel": 4,
      "note": 88,
      "start": 5.6754,
      "duration": 0.162,
      "velocity": 109,
      "chip": "ym2612"
    },
    {
      "channel": 0,
      "note": 51,
      "start": 5.7202,
      "duration": 0.1164,
      "velocity": 122,
      "chip": "ym2612"
    },
    {
      "channel": 0,
      "note": 49,
      "start": 5.8369,
      "duration": 0.0453,
      "velocity": 122,
      "chip": "ym2612"
    },
    {
      "channel": 4,
      "note": 73,
      "start": 5.8375,
      "duration": 0.1624,
      "velocity": 109,
      "chip": "ym2612"
    },
    {
      "channel": 0,
      "note": 52,
      "start": 5.8825,
      "duration": 0.1165,
      "velocity": 122,
      "chip": "ym2612"
    },
    {
      "channel": 0,
      "note": 49,
      "start": 5.9994,
      "duration": 0.0083,
      "velocity": 122,
      "chip": "ym2612"
    },
    {
      "channel": 1,
      "note": 95,
      "start": 5.9995,
      "duration": 0.829,
      "velocity": 112,
      "chip": "ym2612"
    },
    {
      "channel": 4,
      "note": 88,
      "start": 6.0,
      "duration": 0.017,
      "velocity": 109,
      "chip": "ym2612"
    },
    {
      "channel": 0,
      "note": 49,
      "start": 6.0079,
      "duration": 0.0084,
      "velocity": 122,
      "chip": "ym2612"
    },
    {
      "channel": 0,
      "note": 49,
      "start": 6.0166,
      "duration": 0.0452,
      "velocity": 122,
      "chip": "ym2612"
    },
    {
      "channel": 4,
      "note": 73,
      "start": 6.0171,
      "duration": 0.1621,
      "velocity": 109,
      "chip": "ym2612"
    },
    {
      "channel": 0,
      "note": 51,
      "start": 6.0621,
      "duration": 0.1164,
      "velocity": 122,
      "chip": "ym2612"
    },
    {
      "channel": 0,
      "note": 49,
      "start": 6.1788,
      "duration": 0.0454,
      "velocity": 122,
      "chip": "ym2612"
    },
    {
      "channel": 4,
      "note": 88,
      "start": 6.1795,
      "duration": 0.1631,
      "velocity": 117,
      "chip": "ym2612"
    },
    {
      "channel": 0,
      "note": 52,
      "start": 6.2245,
      "duration": 0.1165,
      "velocity": 122,
      "chip": "ym2612"
    },
    {
      "channel": 0,
      "note": 49,
      "start": 6.3413,
      "duration": 0.0454,
      "velocity": 122,
      "chip": "ym2612"
    },
    {
      "channel": 0,
      "note": 49,
      "start": 6.387,
      "duration": 0.1164,
      "velocity": 122,
      "chip": "ym2612"
    },
    {
      "channel": 0,
      "note": 49,
      "start": 6.5037,
      "duration": 0.0452,
      "velocity": 122,
      "chip": "ym2612"
    },
    {
      "channel": 4,
      "note": 97,
      "start": 6.5043,
      "duration": 0.1621,
      "velocity": 117,
      "chip": "ym2612"
    },
    {
      "channel": 0,
      "note": 51,
      "start": 6.5493,
      "duration": 0.1164,
      "velocity": 122,
      "chip": "ym2612"
    },
    {
      "channel": 0,
      "note": 49,
      "start": 6.666,
      "duration": 0.0454,
      "velocity": 122,
      "chip": "ym2612"
    },
    {
      "channel": 4,
      "note": 88,
      "start": 6.6666,
      "duration": 0.1626,
      "velocity": 117,
      "chip": "ym2612"
    },
    {
      "channel": 0,
      "note": 52,
      "start": 6.7117,
      "duration": 0.1165,
      "velocity": 122,
      "chip": "ym2612"
    },
    {
      "channel": 0,
      "note": 49,
      "start": 6.8285,
      "duration": 0.009,
      "velocity": 122,
      "chip": "ym2612"
    },
    {
      "channel": 1,
      "note": 100,
      "start": 6.8288,
      "duration": 0.0532,
      "velocity": 112,
      "chip": "ym2612"
    },
    {
      "channel": 2,
      "note": 95,
      "start": 6.829,
      "duration": 0.0179,
      "velocity": 125,
      "chip": "ym2612"
    },
    {
      "channel": 4,
      "note": 97,
      "start": 6.8293,
      "duration": 0.018,
      "velocity": 117,
      "chip": "ym2612"
    },
    {
      "channel": 3,
      "note": 90,
      "start": 6.8343,
      "duration": 0.0178,
      "velocity": 119,
      "chip": "ym2612"
    },
    {
      "channel": 0,
      "note": 49,
      "start": 6.8379,
      "duration": 0.0085,
      "velocity": 122,
      "chip": "ym2612"
    },
    {
      "channel": 0,
      "note": 49,
      "start": 6.8467,
      "duration": 0.0083,
      "velocity": 122,
      "chip": "ym2612"
    },
    {
      "channel": 2,
      "note": 89,
      "start": 6.8471,
      "duration": 0.0173,
      "velocity": 125,
      "chip": "ym2612"
    },
    {
      "channel": 4,
      "note": 88,
      "start": 6.8475,
      "duration": 0.0173,
      "velocity": 117,
      "chip": "ym2612"
    },
    {
      "channel": 3,
      "note": 84,
      "start": 6.8522,
      "duration": 0.0175,
      "velocity": 119,
      "chip": "ym2612"
    },
    {
      "channel": 0,
      "note": 51,
      "start": 6.8553,
      "duration": 0.0086,
      "velocity": 122,
      "chip": "ym2612"
    },
    {
      "channel": 0,
      "note": 49,
      "start": 6.8642,
      "duration": 0.0088,
      "velocity": 122,
      "chip": "ym2612"
    },
    {
      "channel": 2,
      "note": 95,
      "start": 6.8646,
      "duration": 0.0177,
      "velocity": 125,
      "chip": "ym2612"
    },
    {
      "channel": 4,
      "note": 97,
      "start": 6.8649,
      "duration": 0.0186,
      "velocity": 109,
      "chip": "ym2612"
    },
    {
      "channel": 3,
      "note": 90,
      "start": 6.8699,
      "duration": 0.0182,
      "velocity": 119,
      "chip": "ym2612"
    },
    {
      "channel": 0,
      "note": 52,
      "start": 6.8732,
      "duration": 0.0085,
      "velocity": 122,
      "chip": "ym2612"
    },
    {
      "channel": 0,
      "note": 49,
      "start": 6.882,
      "duration": 0.0453,
      "velocity": 122,
      "chip": "ym2612"
    },
    {
      "channel": 1,
      "note": 98,
      "start": 6.8823,
      "duration": 0.4867,
      "velocity": 112,
      "chip": "ym2612"
    },
    {
      "channel": 2,
      "note": 94,
      "start": 6.8825,
      "duration": 1.3164,
      "velocity": 125,
      "chip": "ym2612"
    },
    {
      "channel": 4,
      "note": 73,
      "start": 6.8835,
      "duration": 0.1612,
      "velocity": 109,
      "chip": "ym2612"
    },
    {
      "channel": 3,
      "note": 89,
      "start": 6.8882,
      "duration": 1.3156,
      "velocity": 119,
      "chip": "ym2612"
    },
    {
      "channel": 0,
      "note": 49,
      "start": 6.9276,
      "duration": 0.1164,
      "velocity": 122,
      "chip": "ym2612"
    },
    {
      "channel": 0,
      "note": 49,
      "start": 7.0443,
      "duration": 0.0451,
      "velocity": 122,
      "chip": "ym2612"
    },
    {
      "channel": 4,
      "note": 88,
      "start": 7.0449,
      "duration": 0.162,
      "velocity": 109,
      "chip": "ym2612"
    },
    {
      "channel": 0,
      "note": 51,
      "start": 7.0897,
      "duration": 0.1164,
      "velocity": 122,
      "chip": "ym2612"
    },
    {
      "channel": 0,
      "note": 49,
      "start": 7.2064,
      "duration": 0.0453,
      "velocity": 122,
      "chip": "ym2612"
    },
    {
      "channel": 4,
      "note": 73,
      "start": 7.207,
      "duration": 0.1624,
      "velocity": 109,
      "chip": "ym2612"
    },
    {
      "channel": 0,
      "note": 52,
      "start": 7.2521,
      "duration": 0.1165,
      "velocity": 122,
      "chip": "ym2612"
    },
    {
      "channel": 0,
      "note": 49,
      "start": 7.3689,
      "duration": 0.0081,
      "velocity": 122,
      "chip": "ym2612"
    },
    {
      "channel": 1,
      "note": 93,
      "start": 7.3691,
      "duration": 0.8295,
      "velocity": 112,
      "chip": "ym2612"
    },
    {
      "channel": 4,
      "note": 88,
      "start": 7.3695,
      "duration": 0.0173,
      "velocity": 109,
      "chip": "ym2612"
    },
    {
      "channel": 0,
      "note": 49,
      "start": 7.3772,
      "duration": 0.0088,
      "velocity": 122,
      "chip": "ym2612"
    },
    {
      "channel": 0,
      "note": 49,
      "start": 7.3864,
      "duration": 0.0454,
      "velocity": 122,
      "chip": "ym2612"
    },
    {
      "channel": 4,
      "note": 73,
      "start": 7.387,
      "duration": 0.1622,
      "velocity": 109,
      "chip": "ym2612"
    },
    {
      "channel": 0,
      "note": 51,
      "start": 7.4322,
      "duration": 0.1164,
      "velocity": 122,
      "chip": "ym2612"
    },
    {
      "channel": 0,
      "note": 49,
      "start": 7.5489,
      "duration": 0.0453,
      "velocity": 122,
      "chip": "ym2612"
    },
    {
      "channel": 4,
      "note": 88,
      "start": 7.5495,
      "duration": 0.1631,
      "velocity": 117,
      "chip": "ym2612"
    },
    {
      "channel": 0,
      "note": 52,
      "start": 7.5945,
      "duration": 0.1165,
      "velocity": 122,
      "chip": "ym2612"
    },
    {
      "channel": 0,
      "note": 49,
      "start": 7.7113,
      "duration": 0.0454,
      "velocity": 122,
      "chip": "ym2612"
    },
    {
      "channel": 0,
      "note": 49,
      "start": 7.757,
      "duration": 0.1164,
      "velocity": 122,
      "chip": "ym2612"
    },
    {
      "channel": 0,
      "note": 49,
      "start": 7.8737,
      "duration": 0.0452,
      "velocity": 122,
      "chip": "ym2612"
    },
    {
      "channel": 4,
      "note": 97,
      "start": 7.8743,
      "duration": 0.1621,
      "velocity": 117,
      "chip": "ym2612"
    },
    {
      "channel": 0,
      "note": 51,
      "start": 7.9193,
      "duration": 0.1164,
      "velocity": 122,
      "chip": "ym2612"
    },
    {
      "channel": 0,
      "note": 49,
      "start": 8.036,
      "duration": 0.0454,
      "velocity": 122,
      "chip": "ym2612"
    },
    {
      "channel": 4,
      "note": 88,
      "start": 8.0366,
      "duration": 0.1626,
      "velocity": 117,
      "chip": "ym2612"
    },
    {
      "channel": 0,
      "note": 52,
      "start": 8.0817,
      "duration": 0.1165,
      "velocity": 122,
      "chip": "ym2612"
    },
    {
      "channel": 0,
      "note": 49,
      "start": 8.1986,
      "duration": 0.0084,
      "velocity": 122,
      "chip": "ym2612"
    },
    {
      "channel": 1,
      "note": 95,
      "start": 8.1988,
      "duration": 0.1211,
      "velocity": 112,
      "chip": "ym2612"
    },
    {
      "channel": 2,
      "note": 94,
      "start": 8.199,
      "duration": 0.0085,
      "velocity": 125,
      "chip": "ym2612"
    },
    {
      "channel": 4,
      "note": 97,
      "start": 8.1993,
      "duration": 0.0166,
      "velocity": 117,
      "chip": "ym2612"
    },
    {
      "channel": 3,
      "note": 89,
      "start": 8.2039,
      "duration": 0.0078,
      "velocity": 119,
      "chip": "ym2612"
    },
    {
      "channel": 0,
      "note": 49,
      "start": 8.2072,
      "duration": 0.0081,
      "velocity": 122,
      "chip": "ym2612"
    },
    {
      "channel": 0,
      "note": 49,
      "start": 8.2156,
      "duration": 0.0448,
      "velocity": 122,
      "chip": "ym2612"
    },
    {
      "channel": 4,
      "note": 88,
      "start": 8.2161,
      "duration": 0.0739,
      "velocity": 117,
      "chip": "ym2612"
    },
    {
      "channel": 0,
      "note": 51,
      "start": 8.2607,
      "duration": 0.0285,
      "velocity": 122,
      "chip": "ym2612"
    },
    {
      "channel": 2,
      "note": 94,
      "start": 8.261,
      "duration": 0.0288,
      "velocity": 125,
      "chip": "ym2612"
    },
    {
      "channel": 3,
      "note": 89,
      "start": 8.2666,
      "duration": 0.0288,
      "velocity": 119,
      "chip": "ym2612"
    },
    {
      "channel": 0,
      "note": 49,
      "start": 8.2895,
      "duration": 0.0193,
      "velocity": 122,
      "chip": "ym2612"
    },
    {
      "channel": 4,
      "note": 97,
      "start": 8.2902,
      "duration": 0.031,
      "velocity": 109,
      "chip": "ym2612"
    },
    {
      "channel": 0,
      "note": 52,
      "start": 8.3091,
      "duration": 0.0103,
      "velocity": 122,
      "chip": "ym2612"
    },
    {
      "channel": 2,
      "note": 94,
      "start": 8.3095,
      "duration": 0.0106,
      "velocity": 125,
      "chip": "ym2612"
    },
    {
      "channel": 3,
      "note": 89,
      "start": 8.3155,
      "duration": 0.0105,
      "velocity": 119,
      "chip": "ym2612"
    },
    {
      "channel": 0,
      "note": 49,
      "start": 8.3198,
      "duration": 0.0453,
      "velocity": 122,
      "chip": "ym2612"
    },
    {
      "channel": 1,
      "note": 98,
      "start": 8.3201,
      "duration": 0.4867,
      "velocity": 112,
      "chip": "ym2612"
    },
    {
      "channel": 2,
      "note": 95,
      "start": 8.3202,
      "duration": 0.9548,
      "velocity": 125,
      "chip": "ym2612"
    },
    {
      "channel": 4,
      "note": 73,
      "start": 8.3214,
      "duration": 0.1612,
      "velocity": 109,
      "chip": "ym2612"
    },
    {
      "channel": 3,
      "note": 90,
      "start": 8.3262,
      "duration": 0.9541,
      "velocity": 119,
      "chip": "ym2612"
    },
    {
      "channel": 0,
      "note": 49,
      "start": 8.3654,
      "duration": 0.1164,
      "velocity": 122,
      "chip": "ym2612"
    },
    {
      "channel": 0,
      "note": 49,
      "start": 8.4821,
      "duration": 0.0451,
      "velocity": 122,
      "chip": "ym2612"
    },
    {
      "channel": 4,
      "note": 88,
      "start": 8.4827,
      "duration": 0.162,
      "velocity": 109,
      "chip": "ym2612"
    },
    {
      "channel": 0,
      "note": 51,
      "start": 8.5276,
      "duration": 0.1164,
      "velocity": 122,
      "chip": "ym2612"
    },
    {
      "channel": 0,
      "note": 49,
      "start": 8.6443,
      "duration": 0.0453,
      "velocity": 122,
      "chip": "ym2612"
    },
    {
      "channel": 4,
      "note": 73,
      "start": 8.6449,
      "duration": 0.1624,
      "velocity": 109,
      "chip": "ym2612"
    },
    {
      "channel": 0,
      "note": 52,
      "start": 8.6899,
      "duration": 0.1165,
      "velocity": 122,
      "chip": "ym2612"
    },
    {
      "channel": 0,
      "note": 49,
      "start": 8.8067,
      "duration": 0.0083,
      "velocity": 122,
      "chip": "ym2612"
    },
    {
      "channel": 1,
      "note": 92,
      "start": 8.8069,
      "duration": 0.5206,
      "velocity": 112,
      "chip": "ym2612"
    },
    {
      "channel": 4,
      "note": 88,
      "start": 8.8073,
      "duration": 0.0169,
      "velocity": 109,
      "chip": "ym2612"
    },
    {
      "channel": 0,
      "note": 49,
      "start": 8.8153,
      "duration": 0.0083,
      "velocity": 122,
      "chip": "ym2612"
    },
    {
      "channel": 0,
      "note": 49,
      "start": 8.8239,
      "duration": 0.0452,
      "velocity": 122,
      "chip": "ym2612"
    },
    {
      "channel": 4,
      "note": 73,
      "start": 8.8244,
      "duration": 0.1621,
      "velocity": 109,
      "chip": "ym2612"
    },
    {
      "channel": 0,
      "note": 51,
      "start": 8.8694,
      "duration": 0.1164,
      "velocity": 122,
      "chip": "ym2612"
    },
    {
      "channel": 0,
      "note": 49,
      "start": 8.9861,
      "duration": 0.0454,
      "velocity": 122,
      "chip": "ym2612"
    },
    {
      "channel": 4,
      "note": 88,
      "start": 8.9868,
      "duration": 0.1631,
      "velocity": 117,
      "chip": "ym2612"
    },
    {
      "channel": 0,
      "note": 52,
      "start": 9.0318,
      "duration": 0.1165,
      "velocity": 122,
      "chip": "ym2612"
    },
    {
      "channel": 0,
      "note": 49,
      "start": 9.1486,
      "duration": 0.0088,
      "velocity": 122,
      "chip": "ym2612"
    },
    {
      "channel": 0,
      "note": 49,
      "start": 9.1577,
      "duration": 0.0083,
      "velocity": 122,
      "chip": "ym2612"
    },
    {
      "channel": 0,
      "note": 49,
      "start": 9.1663,
      "duration": 0.0451,
      "velocity": 122,
      "chip": "ym2612"
    },
    {
      "channel": 4,
      "note": 97,
      "start": 9.1668,
      "duration": 0.091,
      "velocity": 117,
      "chip": "ym2612"
    },
    {
      "channel": 0,
      "note": 51,
      "start": 9.2117,
      "duration": 0.0454,
      "velocity": 122,
      "chip": "ym2612"
    },
    {
      "channel": 0,
      "note": 49,
      "start": 9.2574,
      "duration": 0.0082,
      "velocity": 122,
      "chip": "ym2612"
    },
    {
      "channel": 4,
      "note": 88,
      "start": 9.258,
      "duration": 0.0173,
      "velocity": 117,
      "chip": "ym2612"
    },
    {
      "channel": 0,
      "note": 52,
      "start": 9.2659,
      "duration": 0.0086,
      "velocity": 122,
      "chip": "ym2612"
    },
    {
      "channel": 0,
      "note": 49,
      "start": 9.2749,
      "duration": 0.0083,
      "velocity": 122,
      "chip": "ym2612"
    },
    {
      "channel": 2,
      "note": 95,
      "start": 9.2752,
      "duration": 0.0174,
      "velocity": 125,
      "chip": "ym2612"
    },
    {
      "channel": 4,
      "note": 97,
      "start": 9.2755,
      "duration": 0.0174,
      "velocity": 117,
      "chip": "ym2612"
    },
    {
      "channel": 3,
      "note": 90,
      "start": 9.2805,
      "duration": 0.0172,
      "velocity": 119,
      "chip": "ym2612"
    },
    {
      "channel": 0,
      "note": 49,
      "start": 9.2834,
      "duration": 0.0086,
      "velocity": 122,
      "chip": "ym2612"
    },
    {
      "channel": 0,
      "note": 49,
      "start": 9.2924,
      "duration": 0.0084,
      "velocity": 122,
      "chip": "ym2612"
    },
    {
      "channel": 2,
      "note": 89,
      "start": 9.2927,
      "duration": 0.0173,
      "velocity": 125,
      "chip": "ym2612"
    },
    {
      "channel": 4,
      "note": 88,
      "start": 9.293,
      "duration": 0.0173,
      "velocity": 117,
      "chip": "ym2612"
    },
    {
      "channel": 3,
      "note": 84,
      "start": 9.2978,
      "duration": 0.0173,
      "velocity": 119,
      "chip": "ym2612"
    },
    {
      "channel": 0,
      "note": 51,
      "start": 9.3011,
      "duration": 0.0083,
      "velocity": 122,
      "chip": "ym2612"
    },
    {
      "channel": 0,
      "note": 49,
      "start": 9.3098,
      "duration": 0.0085,
      "velocity": 122,
      "chip": "ym2612"
    },
    {
      "channel": 2,
      "note": 95,
      "start": 9.3102,
      "duration": 0.0176,
      "velocity": 125,
      "chip": "ym2612"
    },
    {
      "channel": 4,
      "note": 97,
      "start": 9.3105,
      "duration": 0.0184,
      "velocity": 109,
      "chip": "ym2612"
    },
    {
      "channel": 3,
      "note": 90,
      "start": 9.3153,
      "duration": 0.0184,
      "velocity": 119,
      "chip": "ym2612"
    },
    {
      "channel": 0,
      "note": 52,
      "start": 9.3185,
      "duration": 0.0086,
      "velocity": 122,
      "chip": "ym2612"
    },
    {
      "channel": 0,
      "note": 53,
      "start": 9.3274,
      "duration": 0.0455,
      "velocity": 122,
      "chip": "ym2612"
    },
    {
      "channel": 1,
      "note": 88,
      "start": 9.3277,
      "duration": 0.4868,
      "velocity": 112,
      "chip": "ym2612"
    },
    {
      "channel": 2,
      "note": 98,
      "start": 9.3279,
      "duration": 0.4868,
      "velocity": 125,
      "chip": "ym2612"
    },
    {
      "channel": 4,
      "note": 74,
      "start": 9.329,
      "duration": 0.1613,
      "velocity": 109,
      "chip": "ym2612"
    },
    {
      "channel": 3,
      "note": 93,
      "start": 9.3338,
      "duration": 0.4861,
      "velocity": 119,
      "chip": "ym2612"
    },
    {
      "channel": 0,
      "note": 53,
      "start": 9.3732,
      "duration": 0.1164,
      "velocity": 122,
      "chip": "ym2612"
    },
    {
      "channel": 0,
      "note": 53,
      "start": 9.4899,
      "duration": 0.0451,
      "velocity": 122,
      "chip": "ym2612"
    },
    {
      "channel": 4,
      "note": 89,
      "start": 9.4905,
      "duration": 0.162,
      "velocity": 109,
      "chip": "ym2612"
    },
    {
      "channel": 0,
      "note": 54,
      "start": 9.5353,
      "duration": 0.1164,
      "velocity": 122,
      "chip": "ym2612"
    },
    {
      "channel": 0,
      "note": 53,
      "start": 9.652,
      "duration": 0.0453,
      "velocity": 122,
      "chip": "ym2612"
    },
    {
      "channel": 4,
      "note": 74,
      "start": 9.6526,
      "duration": 0.1625,
      "velocity": 109,
      "chip": "ym2612"
    },
    {
      "channel": 0,
      "note": 56,
      "start": 9.6977,
      "duration": 0.1165,
      "velocity": 122,
      "chip": "ym2612"
    },
    {
      "channel": 0,
      "note": 53,
      "start": 9.8144,
      "duration": 0.0085,
      "velocity": 122,
      "chip": "ym2612"
    },
    {
      "channel": 1,
      "note": 98,
      "start": 9.8147,
      "duration": 0.8455,
      "velocity": 112,
      "chip": "ym2612"
    },
    {
      "channel": 2,
      "note": 96,
      "start": 9.8149,
      "duration": 0.8285,
      "velocity": 125,
      "chip": "ym2612"
    },
    {
      "channel": 4,
      "note": 89,
      "start": 9.8152,
      "duration": 0.0173,
      "velocity": 109,
      "chip": "ym2612"
    },
    {
      "channel": 3,
      "note": 91,
      "start": 9.82,
      "duration": 0.8282,
      "velocity": 119,
      "chip": "ym2612"
    },
    {
      "channel": 0,
      "note": 53,
      "start": 9.8232,
      "duration": 0.0086,
      "velocity": 122,
      "chip": "ym2612"
    },
    {
      "channel": 0,
      "note": 53,
      "start": 9.8322,
      "duration": 0.0449,
      "velocity": 122,
      "chip": "ym2612"
    },
    {
      "channel": 4,
      "note": 74,
      "start": 9.8327,
      "duration": 0.1618,
      "velocity": 109,
      "chip": "ym2612"
    },
    {
      "channel": 0,
      "note": 54,
      "start": 9.8773,
      "duration": 0.1164,
      "velocity": 122,
      "chip": "ym2612"
    },
    {
      "channel": 0,
      "note": 53,
      "start": 9.9941,
      "duration": 0.0453,
      "velocity": 122,
      "chip": "ym2612"
    },
    {
      "channel": 4,
      "note": 89,
      "start": 9.9946,
      "duration": 0.1631,
      "velocity": 117,
      "chip": "ym2612"
    },
    {
      "channel": 0,
      "note": 56,
      "start": 10.0397,
      "duration": 0.1165,
      "velocity": 122,
      "chip": "ym2612"
    },
    {
      "channel": 0,
      "note": 53,
      "start": 10.1565,
      "duration": 0.0451,
      "velocity": 122,
      "chip": "ym2612"
    },
    {
      "channel": 0,
      "note": 53,
      "start": 10.2019,
      "duration": 0.1164,
      "velocity": 122,
      "chip": "ym2612"
    },
    {
      "channel": 0,
      "note": 53,
      "start": 10.3186,
      "duration": 0.0451,
      "velocity": 122,
      "chip": "ym2612"
    },
    {
      "channel": 4,
      "note": 98,
      "start": 10.3192,
      "duration": 0.162,
      "velocity": 117,
      "chip": "ym2612"
    },
    {
      "channel": 0,
      "note": 54,
      "start": 10.364,
      "duration": 0.1164,
      "velocity": 122,
      "chip": "ym2612"
    },
    {
      "channel": 0,
      "note": 53,
      "start": 10.4807,
      "duration": 0.0452,
      "velocity": 122,
      "chip": "ym2612"
    },
    {
      "channel": 4,
      "note": 89,
      "start": 10.4813,
      "duration": 0.1622,
      "velocity": 117,
      "chip": "ym2612"
    },
    {
      "channel": 0,
      "note": 56,
      "start": 10.5262,
      "duration": 0.1165,
      "velocity": 122,
      "chip": "ym2612"
    },
    {
      "channel": 0,
      "note": 53,
      "start": 10.6431,
      "duration": 0.0085,
      "velocity": 122,
      "chip": "ym2612"
    },
    {
      "channel": 4,
      "note": 98,
      "start": 10.6437,
      "duration": 0.0171,
      "velocity": 117,
      "chip": "ym2612"
    },
    {
      "channel": 0,
      "note": 53,
      "start": 10.652,
      "duration": 0.0078,
      "velocity": 122,
      "chip": "ym2612"
    },
    {
      "channel": 0,
      "note": 53,
      "start": 10.6601,
      "duration": 0.0083,
      "velocity": 122,
      "chip": "ym2612"
    },
    {
      "channel": 1,
      "note": 94,
      "start": 10.6605,
      "duration": 0.0172,
      "velocity": 112,
      "chip": "ym2612"
    },
    {
      "channel": 2,
      "note": 96,
      "start": 10.6607,
      "duration": 0.0083,
      "velocity": 125,
      "chip": "ym2612"
    },
    {
      "channel": 4,
      "note": 89,
      "start": 10.6609,
      "duration": 0.0174,
      "velocity": 117,
      "chip": "ym2612"
    },
    {
      "channel": 3,
      "note": 91,
      "start": 10.6654,
      "duration": 0.0085,
      "velocity": 119,
      "chip": "ym2612"
    },
    {
      "channel": 0,
      "note": 54,
      "start": 10.6687,
      "duration": 0.0086,
      "velocity": 122,
      "chip": "ym2612"
    },
    {
      "channel": 2,
      "note": 95,
      "start": 10.6692,
      "duration": 0.0088,
      "velocity": 125,
      "chip": "ym2612"
    },
    {
      "channel": 3,
      "note": 90,
      "start": 10.674,
      "duration": 0.0092,
      "velocity": 119,
      "chip": "ym2612"
    },
    {
      "channel": 0,
      "note": 53,
      "start": 10.6776,
      "duration": 0.0086,
      "velocity": 122,
      "chip": "ym2612"
    },
    {
      "channel": 1,
      "note": 95,
      "start": 10.6779,
      "duration": 0.0173,
      "velocity": 112,
      "chip": "ym2612"
    },
    {
      "channel": 2,
      "note": 94,
      "start": 10.6781,
      "duration": 0.0086,
      "velocity": 125,
      "chip": "ym2612"
    },
    {
      "channel": 4,
      "note": 98,
      "start": 10.6784,
      "duration": 0.0183,
      "velocity": 109,
      "chip": "ym2612"
    },
    {
      "channel": 3,
      "note": 89,
      "start": 10.6834,
      "duration": 0.0083,
      "velocity": 119,
      "chip": "ym2612"
    },
    {
      "channel": 0,
      "note": 56,
      "start": 10.6864,
      "duration": 0.0085,
      "velocity": 122,
      "chip": "ym2612"
    },
    {
      "channel": 2,
      "note": 93,
      "start": 10.6869,
      "duration": 0.0086,
      "velocity": 125,
      "chip": "ym2612"
    },
    {
      "channel": 3,
      "note": 88,
      "start": 10.6919,
      "duration": 0.0095,
      "velocity": 119,
      "chip": "ym2612"
    },
    {
      "channel": 0,
      "note": 49,
      "start": 10.6952,
      "duration": 0.0455,
      "velocity": 122,
      "chip": "ym2612"
    },
    {
      "channel": 1,
      "note": 100,
      "start": 10.6955,
      "duration": 1.3162,
      "velocity": 112,
      "chip": "ym2612"
    },
    {
      "channel": 2,
      "note": 95,
      "start": 10.6956,
      "duration": 1.3163,
      "velocity": 125,
      "chip": "ym2612"
    },
    {
      "channel": 4,
      "note": 73,
      "start": 10.6968,
      "duration": 0.1613,
      "velocity": 109,
      "chip": "ym2612"
    },
    {
      "channel": 3,
      "note": 90,
      "start": 10.7016,
      "duration": 1.3152,
      "velocity": 119,
      "chip": "ym2612"
    },
    {
      "channel": 0,
      "note": 49,
      "start": 10.741,
      "duration": 0.1164,
      "velocity": 122,
      "chip": "ym2612"
    },
    {
      "channel": 0,
      "note": 49,
      "start": 10.8577,
      "duration": 0.0451,
      "velocity": 122,
      "chip": "ym2612"
    },
    {
      "channel": 4,
      "note": 88,
      "start": 10.8583,
      "duration": 0.162,
      "velocity": 109,
      "chip": "ym2612"
    },
    {
      "channel": 0,
      "note": 51,
      "start": 10.9031,
      "duration": 0.1164,
      "velocity": 122,
      "chip": "ym2612"
    },
    {
      "channel": 0,
      "note": 49,
      "start": 11.0198,
      "duration": 0.0453,
      "velocity": 122,
      "chip": "ym2612"
    },
    {
      "channel": 4,
      "note": 73,
      "start": 11.0204,
      "duration": 0.1623,
      "velocity": 109,
      "chip": "ym2612"
    },
    {
      "channel": 0,
      "note": 52,
      "start": 11.0655,
      "duration": 0.1165,
      "velocity": 122,
      "chip": "ym2612"
    },
    {
      "channel": 0,
      "note": 49,
      "start": 11.1823,
      "duration": 0.0083,
      "velocity": 122,
      "chip": "ym2612"
    },
    {
      "channel": 4,
      "note": 88,
      "start": 11.1828,
      "duration": 0.0172,
      "velocity": 109,
      "chip": "ym2612"
    },
    {
      "channel": 0,
      "note": 49,
      "start": 11.1907,
      "duration": 0.0084,
      "velocity": 122,
      "chip": "ym2612"
    },
    {
      "channel": 0,
      "note": 49,
      "start": 11.1995,
      "duration": 0.0454,
      "velocity": 122,
      "chip": "ym2612"
    },
    {
      "channel": 4,
      "note": 73,
      "start": 11.2002,
      "duration": 0.1621,
      "velocity": 109,
      "chip": "ym2612"
    },
    {
      "channel": 0,
      "note": 51,
      "start": 11.2451,
      "duration": 0.1164,
      "velocity": 122,
      "chip": "ym2612"
    },
    {
      "channel": 0,
      "note": 49,
      "start": 11.3619,
      "duration": 0.0452,
      "velocity": 122,
      "chip": "ym2612"
    },
    {
      "channel": 4,
      "note": 88,
      "start": 11.3624,
      "duration": 0.163,
      "velocity": 117,
      "chip": "ym2612"
    },
    {
      "channel": 0,
      "note": 52,
      "start": 11.4074,
      "duration": 0.1165,
      "velocity": 122,
      "chip": "ym2612"
    },
    {
      "channel": 0,
      "note": 49,
      "start": 11.5242,
      "duration": 0.0454,
      "velocity": 122,
      "chip": "ym2612"
    },
    {
      "channel": 0,
      "note": 49,
      "start": 11.5699,
      "duration": 0.1164,
      "velocity": 122,
      "chip": "ym2612"
    },
    {
      "channel": 0,
      "note": 49,
      "start": 11.6866,
      "duration": 0.0456,
      "velocity": 122,
      "chip": "ym2612"
    },
    {
      "channel": 4,
      "note": 97,
      "start": 11.6873,
      "duration": 0.1624,
      "velocity": 117,
      "chip": "ym2612"
    },
    {
      "channel": 0,
      "note": 51,
      "start": 11.7325,
      "duration": 0.1164,
      "velocity": 122,
      "chip": "ym2612"
    },
    {
      "channel": 0,
      "note": 49,
      "start": 11.8492,
      "duration": 0.0453,
      "velocity": 122,
      "chip": "ym2612"
    },
    {
      "channel": 4,
      "note": 88,
      "start": 11.8498,
      "duration": 0.1624,
      "velocity": 117,
      "chip": "ym2612"
    },
    {
      "channel": 0,
      "note": 52,
      "start": 11.8948,
      "duration": 0.1165,
      "velocity": 122,
      "chip": "ym2612"
    },
    {
      "channel": 0,
      "note": 49,
      "start": 12.0116,
      "duration": 0.0083,
      "velocity": 122,
      "chip": "ym2612"
    },
    {
      "channel": 1,
      "note": 104,
      "start": 12.0118,
      "duration": 0.123,
      "velocity": 112,
      "chip": "ym2612"
    },
    {
      "channel": 2,
      "note": 95,
      "start": 12.012,
      "duration": 0.0173,
      "velocity": 125,
      "chip": "ym2612"
    },
    {
      "channel": 4,
      "note": 97,
      "start": 12.0124,
      "duration": 0.0173,
      "velocity": 117,
      "chip": "ym2612"
    },
    {
      "channel": 3,
      "note": 90,
      "start": 12.0169,
      "duration": 0.0173,
      "velocity": 119,
      "chip": "ym2612"
    },
    {
      "channel": 0,
      "note": 49,
      "start": 12.0202,
      "duration": 0.0087,
      "velocity": 122,
      "chip": "ym2612"
    },
    {
      "channel": 0,
      "note": 49,
      "start": 12.0292,
      "duration": 0.0452,
      "velocity": 122,
      "chip": "ym2612"
    },
    {
      "channel": 2,
      "note": 89,
      "start": 12.0295,
      "duration": 0.0741,
      "velocity": 125,
      "chip": "ym2612"
    },
    {
      "channel": 4,
      "note": 88,
      "start": 12.0298,
      "duration": 0.0742,
      "velocity": 117,
      "chip": "ym2612"
    },
    {
      "channel": 3,
      "note": 84,
      "start": 12.0344,
      "duration": 0.0754,
      "velocity": 119,
      "chip": "ym2612"
    },
    {
      "channel": 0,
      "note": 51,
      "start": 12.0747,
      "duration": 0.0284,
      "velocity": 122,
      "chip": "ym2612"
    },
    {
      "channel": 0,
      "note": 49,
      "start": 12.1034,
      "duration": 0.0201,
      "velocity": 122,
      "chip": "ym2612"
    },
    {
      "channel": 2,
      "note": 95,
      "start": 12.1038,
      "duration": 0.0312,
      "velocity": 125,
      "chip": "ym2612"
    },
    {
      "channel": 4,
      "note": 97,
      "start": 12.1041,
      "duration": 0.032,
      "velocity": 109,
      "chip": "ym2612"
    },
    {
      "channel": 3,
      "note": 90,
      "start": 12.11,
      "duration": 0.0309,
      "velocity": 119,
      "chip": "ym2612"
    },
    {
      "channel": 0,
      "note": 52,
      "start": 12.1238,
      "duration": 0.0106,
      "velocity": 122,
      "chip": "ym2612"
    },
    {
      "channel": 0,
      "note": 49,
      "start": 12.1347,
      "duration": 0.0451,
      "velocity": 122,
      "chip": "ym2612"
    },
    {
      "channel": 1,
      "note": 105,
      "start": 12.135,
      "duration": 0.8286,
      "velocity": 112,
      "chip": "ym2612"
    },
    {
      "channel": 2,
      "note": 94,
      "start": 12.1352,
      "duration": 1.0617,
      "velocity": 125,
      "chip": "ym2612"
    },
    {
      "channel": 4,
      "note": 73,
      "start": 12.1363,
      "duration": 0.161,
      "velocity": 109,
      "chip": "ym2612"
    },
    {
      "channel": 3,
      "note": 89,
      "start": 12.1411,
      "duration": 1.061,
      "velocity": 119,
      "chip": "ym2612"
    },
    {
      "channel": 0,
      "note": 49,
      "start": 12.1802,
      "duration": 0.1164,
      "velocity": 122,
      "chip": "ym2612"
    },
    {
      "channel": 0,
      "note": 49,
      "start": 12.2969,
      "duration": 0.0451,
      "velocity": 122,
      "chip": "ym2612"
    },
    {
      "channel": 4,
      "note": 88,
      "start": 12.2975,
      "duration": 0.162,
      "velocity": 109,
      "chip": "ym2612"
    },
    {
      "channel": 0,
      "note": 51,
      "start": 12.3423,
      "duration": 0.1164,
      "velocity": 122,
      "chip": "ym2612"
    },
    {
      "channel": 0,
      "note": 49,
      "start": 12.459,
      "duration": 0.0453,
      "velocity": 122,
      "chip": "ym2612"
    },
    {
      "channel": 4,
      "note": 73,
      "start": 12.4596,
      "duration": 0.1623,
      "velocity": 109,
      "chip": "ym2612"
    },
    {
      "channel": 0,
      "note": 52,
      "start": 12.5047,
      "duration": 0.1165,
      "velocity": 122,
      "chip": "ym2612"
    },
    {
      "channel": 0,
      "note": 49,
      "start": 12.6215,
      "duration": 0.0083,
      "velocity": 122,
      "chip": "ym2612"
    },
    {
      "channel": 4,
      "note": 88,
      "start": 12.6221,
      "duration": 0.0172,
      "velocity": 109,
      "chip": "ym2612"
    },
    {
      "channel": 0,
      "note": 49,
      "start": 12.63,
      "duration": 0.0084,
      "velocity": 122,
      "chip": "ym2612"
    },
    {
      "channel": 0,
      "note": 49,
      "start": 12.6388,
      "duration": 0.0454,
      "velocity": 122,
      "chip": "ym2612"
    },
    {
      "channel": 4,
      "note": 73,
      "start": 12.6394,
      "duration": 0.1621,
      "velocity": 109,
      "chip": "ym2612"
    },
    {
      "channel": 0,
      "note": 51,
      "start": 12.6844,
      "duration": 0.1164,
      "velocity": 122,
      "chip": "ym2612"
    },
    {
      "channel": 0,
      "note": 49,
      "start": 12.8011,
      "duration": 0.0452,
      "velocity": 122,
      "chip": "ym2612"
    },
    {
      "channel": 4,
      "note": 88,
      "start": 12.8017,
      "duration": 0.1632,
      "velocity": 117,
      "chip": "ym2612"
    },
    {
      "channel": 0,
      "note": 52,
      "start": 12.8467,
      "duration": 0.1165,
      "velocity": 122,
      "chip": "ym2612"
    },
    {
      "channel": 0,
      "note": 49,
      "start": 12.9635,
      "duration": 0.0085,
      "velocity": 122,
      "chip": "ym2612"
    },
    {
      "channel": 1,
      "note": 101,
      "start": 12.9638,
      "duration": 0.2844,
      "velocity": 112,
      "chip": "ym2612"
    },
    {
      "channel": 0,
      "note": 49,
      "start": 12.9724,
      "duration": 0.0451,
      "velocity": 122,
      "chip": "ym2612"
    },
    {
      "channel": 0,
      "note": 49,
      "start": 13.0178,
      "duration": 0.0451,
      "velocity": 122,
      "chip": "ym2612"
    },
    {
      "channel": 4,
      "note": 97,
      "start": 13.0184,
      "duration": 0.162,
      "velocity": 117,
      "chip": "ym2612"
    },
    {
      "channel": 0,
      "note": 51,
      "start": 13.0632,
      "duration": 0.1164,
      "velocity": 122,
      "chip": "ym2612"
    },
    {
      "channel": 0,
      "note": 49,
      "start": 13.1799,
      "duration": 0.0081,
      "velocity": 122,
      "chip": "ym2612"
    },
    {
      "channel": 4,
      "note": 88,
      "start": 13.1806,
      "duration": 0.0167,
      "velocity": 117,
      "chip": "ym2612"
    },
    {
      "channel": 0,
      "note": 52,
      "start": 13.1882,
      "duration": 0.0083,
      "velocity": 122,
      "chip": "ym2612"
    },
    {
      "channel": 0,
      "note": 49,
      "start": 13.1967,
      "duration": 0.0084,
      "velocity": 122,
      "chip": "ym2612"
    },
    {
      "channel": 2,
      "note": 94,
      "start": 13.1971,
      "duration": 0.0086,
      "velocity": 125,
      "chip": "ym2612"
    },
    {
      "channel": 4,
      "note": 97,
      "start": 13.1974,
      "duration": 0.0168,
      "velocity": 117,
      "chip": "ym2612"
    },
    {
      "channel": 3,
      "note": 89,
      "start": 13.2022,
      "duration": 0.0081,
      "velocity": 119,
      "chip": "ym2612"
    },
    {
      "channel": 0,
      "note": 49,
      "start": 13.2055,
      "duration": 0.0081,
      "velocity": 122,
      "chip": "ym2612"
    },
    {
      "channel": 0,
      "note": 49,
      "start": 13.2139,
      "duration": 0.0082,
      "velocity": 122,
      "chip": "ym2612"
    },
    {
      "channel": 4,
      "note": 88,
      "start": 13.2144,
      "duration": 0.0172,
      "velocity": 117,
      "chip": "ym2612"
    },
    {
      "channel": 0,
      "note": 51,
      "start": 13.2223,
      "duration": 0.0085,
      "velocity": 122,
      "chip": "ym2612"
    },
    {
      "channel": 2,
      "note": 94,
      "start": 13.2228,
      "duration": 0.0086,
      "velocity": 125,
      "chip": "ym2612"
    },
    {
      "channel": 3,
      "note": 89,
      "start": 13.2273,
      "duration": 0.0082,
      "velocity": 119,
      "chip": "ym2612"
    },
    {
      "channel": 0,
      "note": 49,
      "start": 13.2312,
      "duration": 0.0078,
      "velocity": 122,
      "chip": "ym2612"
    },
    {
      "channel": 4,
      "note": 97,
      "start": 13.2317,
      "duration": 0.0179,
      "velocity": 109,
      "chip": "ym2612"
    },
    {
      "channel": 0,
      "note": 52,
      "start": 13.2393,
      "duration": 0.0084,
      "velocity": 122,
      "chip": "ym2612"
    },
    {
      "channel": 2,
      "note": 94,
      "start": 13.2397,
      "duration": 0.0088,
      "velocity": 125,
      "chip": "ym2612"
    },
    {
      "channel": 3,
      "note": 89,
      "start": 13.2443,
      "duration": 0.0102,
      "velocity": 119,
      "chip": "ym2612"
    },
    {
      "channel": 0,
      "note": 49,
      "start": 13.2481,
      "duration": 0.0455,
      "velocity": 122,
      "chip": "ym2612"
    },
    {
      "channel": 1,
      "note": 104,
      "start": 13.2484,
      "duration": 1.3163,
      "velocity": 112,
      "chip": "ym2612"
    },
    {
      "channel": 2,
      "note": 95,
      "start": 13.2486,
      "duration": 1.3164,
      "velocity": 125,
      "chip": "ym2612"
    },
    {
      "channel": 4,
      "note": 73,
      "start": 13.2498,
      "duration": 0.1613,
      "velocity": 109,
      "chip": "ym2612"
    },
    {
      "channel": 3,
      "note": 90,
      "start": 13.2546,
      "duration": 1.3157,
      "velocity": 119,
      "chip": "ym2612"
    },
    {
      "channel": 0,
      "note": 49,
      "start": 13.2939,
      "duration": 0.1164,
      "velocity": 122,
      "chip": "ym2612"
    },
    {
      "channel": 0,
      "note": 49,
      "start": 13.4107,
      "duration": 0.0451,
      "velocity": 122,
      "chip": "ym2612"
    },
    {
      "channel": 4,
      "note": 88,
      "start": 13.4112,
      "duration": 0.162,
      "velocity": 109,
      "chip": "ym2612"
    },
    {
      "channel": 0,
      "note": 51,
      "start": 13.4561,
      "duration": 0.1164,
      "velocity": 122,
      "chip": "ym2612"
    },
    {
      "channel": 0,
      "note": 49,
      "start": 13.5728,
      "duration": 0.0453,
      "velocity": 122,
      "chip": "ym2612"
    },
    {
      "channel": 4,
      "note": 73,
      "start": 13.5734,
      "duration": 0.1623,
      "velocity": 109,
      "chip": "ym2612"
    },
    {
      "channel": 0,
      "note": 52,
      "start": 13.6184,
      "duration": 0.1165,
      "velocity": 122,
      "chip": "ym2612"
    },
    {
      "channel": 0,
      "note": 49,
      "start": 13.7352,
      "duration": 0.0083,
      "velocity": 122,
      "chip": "ym2612"
    },
    {
      "channel": 4,
      "note": 88,
      "start": 13.7359,
      "duration": 0.0172,
      "velocity": 109,
      "chip": "ym2612"
    },
    {
      "channel": 0,
      "note": 49,
      "start": 13.7438,
      "duration": 0.0084,
      "velocity": 122,
      "chip": "ym2612"
    },
    {
      "channel": 0,
      "note": 49,
      "start": 13.7525,
      "duration": 0.0454,
      "velocity": 122,
      "chip": "ym2612"
    },
    {
      "channel": 4,
      "note": 73,
      "start": 13.7532,
      "duration": 0.1621,
      "velocity": 109,
      "chip": "ym2612"
    },
    {
      "channel": 0,
      "note": 51,
      "start": 13.7982,
      "duration": 0.1164,
      "velocity": 122,
      "chip": "ym2612"
    },
    {
      "channel": 0,
      "note": 49,
      "start": 13.9149,
      "duration": 0.0452,
      "velocity": 122,
      "chip": "ym2612"
    },
    {
      "channel": 4,
      "note": 88,
      "start": 13.9155,
      "duration": 0.163,
      "velocity": 117,
      "chip": "ym2612"
    },
    {
      "channel": 0,
      "note": 52,
      "start": 13.9604,
      "duration": 0.1165,
      "velocity": 122,
      "chip": "ym2612"
    },
    {
      "channel": 0,
      "note": 49,
      "start": 14.0772,
      "duration": 0.0454,
      "velocity": 122,
      "chip": "ym2612"
    },
    {
      "channel": 0,
      "note": 49,
      "start": 14.123,
      "duration": 0.1164,
      "velocity": 122,
      "chip": "ym2612"
    },
    {
      "channel": 0,
      "note": 49,
      "start": 14.2397,
      "duration": 0.0456,
      "velocity": 122,
      "chip": "ym2612"
    },
    {
      "channel": 4,
      "note": 97,
      "start": 14.2403,
      "duration": 0.1624,
      "velocity": 117,
      "chip": "ym2612"
    },
    {
      "channel": 0,
      "note": 51,
      "start": 14.2856,
      "duration": 0.1164,
      "velocity": 122,
      "chip": "ym2612"
    },
    {
      "channel": 0,
      "note": 49,
      "start": 14.4023,
      "duration": 0.0453,
      "velocity": 122,
      "chip": "ym2612"
    },
    {
      "channel": 4,
      "note": 88,
      "start": 14.4028,
      "duration": 0.1625,
      "velocity": 117,
      "chip": "ym2612"
    },
    {
      "channel": 0,
      "note": 52,
      "start": 14.4478,
      "duration": 0.1165,
      "velocity": 122,
      "chip": "ym2612"
    },
    {
      "channel": 0,
      "note": 49,
      "start": 14.5647,
      "duration": 0.009,
      "velocity": 122,
      "chip": "ym2612"
    },
    {
      "channel": 1,
      "note": 100,
      "start": 14.565,
      "duration": 0.0529,
      "velocity": 112,
      "chip": "ym2612"
    },
    {
      "channel": 2,
      "note": 95,
      "start": 14.5651,
      "duration": 0.0183,
      "velocity": 125,
      "chip": "ym2612"
    },
    {
      "channel": 4,
      "note": 97,
      "start": 14.5654,
      "duration": 0.0183,
      "velocity": 117,
      "chip": "ym2612"
    },
    {
      "channel": 3,
      "note": 90,
      "start": 14.5704,
      "duration": 0.0182,
      "velocity": 119,
      "chip": "ym2612"
    },
    {
      "channel": 0,
      "note": 49,
      "start": 14.574,
      "duration": 0.0088,
      "velocity": 122,
      "chip": "ym2612"
    },
    {
      "channel": 0,
      "note": 49,
      "start": 14.5832,
      "duration": 0.0083,
      "velocity": 122,
      "chip": "ym2612"
    },
    {
      "channel": 2,
      "note": 89,
      "start": 14.5836,
      "duration": 0.0172,
      "velocity": 125,
      "chip": "ym2612"
    },
    {
      "channel": 4,
      "note": 88,
      "start": 14.5839,
      "duration": 0.0172,
      "velocity": 117,
      "chip": "ym2612"
    },
    {
      "channel": 3,
      "note": 84,
      "start": 14.5887,
      "duration": 0.0169,
      "velocity": 119,
      "chip": "ym2612"
    },
    {
      "channel": 0,
      "note": 51,
      "start": 14.5917,
      "duration": 0.0084,
      "velocity": 122,
      "chip": "ym2612"
    },
    {
      "channel": 0,
      "note": 49,
      "start": 14.6004,
      "duration": 0.0083,
      "velocity": 122,
      "chip": "ym2612"
    },
    {
      "channel": 2,
      "note": 95,
      "start": 14.6009,
      "duration": 0.0172,
      "velocity": 125,
      "chip": "ym2612"
    },
    {
      "channel": 4,
      "note": 97,
      "start": 14.6012,
      "duration": 0.0179,
      "velocity": 109,
      "chip": "ym2612"
    },
    {
      "channel": 3,
      "note": 90,
      "start": 14.6057,
      "duration": 0.0182,
      "velocity": 119,
      "chip": "ym2612"
    },
    {
      "channel": 0,
      "note": 52,
      "start": 14.6089,
      "duration": 0.0086,
      "velocity": 122,
      "chip": "ym2612"
    },
    {
      "channel": 0,
      "note": 53,
      "start": 14.6178,
      "duration": 0.0453,
      "velocity": 122,
      "chip": "ym2612"
    },
    {
      "channel": 1,
      "note": 103,
      "start": 14.618,
      "duration": 0.4866,
      "velocity": 112,
      "chip": "ym2612"
    },
    {
      "channel": 2,
      "note": 98,
      "start": 14.6182,
      "duration": 0.4868,
      "velocity": 125,
      "chip": "ym2612"
    },
    {
      "channel": 4,
      "note": 74,
      "start": 14.6192,
      "duration": 0.1613,
      "velocity": 109,
      "chip": "ym2612"
    },
    {
      "channel": 3,
      "note": 93,
      "start": 14.624,
      "duration": 0.4861,
      "velocity": 119,
      "chip": "ym2612"
    },
    {
      "channel": 0,
      "note": 53,
      "start": 14.6634,
      "duration": 0.1164,
      "velocity": 122,
      "chip": "ym2612"
    },
    {
      "channel": 0,
      "note": 53,
      "start": 14.7801,
      "duration": 0.0451,
      "velocity": 122,
      "chip": "ym2612"
    },
    {
      "channel": 4,
      "note": 89,
      "start": 14.7807,
      "duration": 0.162,
      "velocity": 109,
      "chip": "ym2612"
    },
    {
      "channel": 0,
      "note": 54,
      "start": 14.8255,
      "duration": 0.1164,
      "velocity": 122,
      "chip": "ym2612"
    },
    {
      "channel": 0,
      "note": 53,
      "start": 14.9422,
      "duration": 0.0453,
      "velocity": 122,
      "chip": "ym2612"
    },
    {
      "channel": 4,
      "note": 74,
      "start": 14.9428,
      "duration": 0.1625,
      "velocity": 109,
      "chip": "ym2612"
    },
    {
      "channel": 0,
      "note": 56,
      "start": 14.9879,
      "duration": 0.1165,
      "velocity": 122,
      "chip": "ym2612"
    },
    {
      "channel": 0,
      "note": 53,
      "start": 15.1046,
      "duration": 0.0085,
      "velocity": 122,
      "chip": "ym2612"
    },
    {
      "channel": 1,
      "note": 101,
      "start": 15.1049,
      "duration": 0.8283,
      "velocity": 112,
      "chip": "ym2612"
    },
    {
      "channel": 2,
      "note": 96,
      "start": 15.1051,
      "duration": 0.8285,
      "velocity": 125,
      "chip": "ym2612"
    },
    {
      "channel": 4,
      "note": 89,
      "start": 15.1054,
      "duration": 0.0173,
      "velocity": 109,
      "chip": "ym2612"
    },
    {
      "channel": 3,
      "note": 91,
      "start": 15.1102,
      "duration": 0.8279,
      "velocity": 119,
      "chip": "ym2612"
    },
    {
      "channel": 0,
      "note": 53,
      "start": 15.1134,
      "duration": 0.0086,
      "velocity": 122,
      "chip": "ym2612"
    },
    {
      "channel": 0,
      "note": 53,
      "start": 15.1224,
      "duration": 0.0449,
      "velocity": 122,
      "chip": "ym2612"
    },
    {
      "channel": 4,
      "note": 74,
      "start": 15.1229,
      "duration": 0.1618,
      "velocity": 109,
      "chip": "ym2612"
    },
    {
      "channel": 0,
      "note": 54,
      "start": 15.1676,
      "duration": 0.1164,
      "velocity": 122,
      "chip": "ym2612"
    },
    {
      "channel": 0,
      "note": 53,
      "start": 15.2843,
      "duration": 0.0453,
      "velocity": 122,
      "chip": "ym2612"
    },
    {
      "channel": 4,
      "note": 89,
      "start": 15.2849,
      "duration": 0.1631,
      "velocity": 117,
      "chip": "ym2612"
    },
    {
      "channel": 0,
      "note": 56,
      "start": 15.3299,
      "duration": 0.1165,
      "velocity": 122,
      "chip": "ym2612"
    },
    {
      "channel": 0,
      "note": 53,
      "start": 15.4467,
      "duration": 0.0451,
      "velocity": 122,
      "chip": "ym2612"
    },
    {
      "channel": 0,
      "note": 53,
      "start": 15.4921,
      "duration": 0.1164,
      "velocity": 122,
      "chip": "ym2612"
    },
    {
      "channel": 0,
      "note": 53,
      "start": 15.6088,
      "duration": 0.0451,
      "velocity": 122,
      "chip": "ym2612"
    },
    {
      "channel": 4,
      "note": 98,
      "start": 15.6094,
      "duration": 0.162,
      "velocity": 117,
      "chip": "ym2612"
    },
    {
      "channel": 0,
      "note": 54,
      "start": 15.6542,
      "duration": 0.1164,
      "velocity": 122,
      "chip": "ym2612"
    },
    {
      "channel": 0,
      "note": 53,
      "start": 15.7709,
      "duration": 0.0452,
      "velocity": 122,
      "chip": "ym2612"
    },
    {
      "channel": 4,
      "note": 89,
      "start": 15.7715,
      "duration": 0.1622,
      "velocity": 117,
      "chip": "ym2612"
    },
    {
      "channel": 0,
      "note": 56,
      "start": 15.8164,
      "duration": 0.1165,
      "velocity": 122,
      "chip": "ym2612"
    },
    {
      "channel": 0,
      "note": 53,
      "start": 15.9332,
      "duration": 0.0074,
      "velocity": 122,
      "chip": "ym2612"
    },
    {
      "channel": 1,
      "note": 95,
      "start": 15.9335,
      "duration": 0.1218,
      "velocity": 125,
      "chip": "ym2612"
    },
    {
      "channel": 4,
      "note": 98,
      "start": 15.9339,
      "duration": 0.0153,
      "velocity": 117,
      "chip": "ym2612"
    },
    {
      "channel": 0,
      "note": 53,
      "start": 15.9409,
      "duration": 0.0075,
      "velocity": 122,
      "chip": "ym2612"
    },
    {
      "channel": 0,
      "note": 53,
      "start": 15.9487,
      "duration": 0.0451,
      "velocity": 122,
      "chip": "ym2612"
    },
    {
      "channel": 2,
      "note": 96,
      "start": 15.9491,
      "duration": 0.0452,
      "velocity": 125,
      "chip": "ym2612"
    },
    {
      "channel": 4,
      "note": 89,
      "start": 15.9493,
      "duration": 0.0741,
      "velocity": 117,
      "chip": "ym2612"
    },
    {
      "channel": 3,
      "note": 91,
      "start": 15.9536,
      "duration": 0.0465,
      "velocity": 119,
      "chip": "ym2612"
    },
    {
      "channel": 0,
      "note": 54,
      "start": 15.9941,
      "duration": 0.0285,
      "velocity": 122,
      "chip": "ym2612"
    },
    {
      "channel": 2,
      "note": 95,
      "start": 15.9944,
      "duration": 0.0287,
      "velocity": 125,
      "chip": "ym2612"
    },
    {
      "channel": 3,
      "note": 90,
      "start": 16.0002,
      "duration": 0.029,
      "velocity": 119,
      "chip": "ym2612"
    },
    {
      "channel": 0,
      "note": 53,
      "start": 16.0229,
      "duration": 0.0201,
      "velocity": 122,
      "chip": "ym2612"
    },
    {
      "channel": 2,
      "note": 94,
      "start": 16.0233,
      "duration": 0.0202,
      "velocity": 125,
      "chip": "ym2612"
    },
    {
      "channel": 4,
      "note": 98,
      "start": 16.0236,
      "duration": 0.0341,
      "velocity": 125,
      "chip": "ym2612"
    },
    {
      "channel": 3,
      "note": 89,
      "start": 16.0295,
      "duration": 0.0204,
      "velocity": 119,
      "chip": "ym2612"
    },
    {
      "channel": 0,
      "note": 56,
      "start": 16.0433,
      "duration": 0.0107,
      "velocity": 122,
      "chip": "ym2612"
    },
    {
      "channel": 2,
      "note": 93,
      "start": 16.0437,
      "duration": 0.0128,
      "velocity": 101,
      "chip": "ym2612"
    },
    {
      "channel": 3,
      "note": 88,
      "start": 16.05,
      "duration": 0.0133,
      "velocity": 125,
      "chip": "ym2612"
    },
    {
      "channel": 0,
      "note": 52,
      "start": 16.0543,
      "duration": 0.0456,
      "velocity": 122,
      "chip": "ym2612"
    },
    {
      "channel": 1,
      "note": 83,
      "start": 16.0556,
      "duration": 0.0445,
      "velocity": 125,
      "chip": "ym2612"
    },
    {
      "channel": 2,
      "note": 76,
      "start": 16.0566,
      "duration": 0.0438,
      "velocity": 101,
      "chip": "ym2612"
    },
    {
      "channel": 4,
      "note": 88,
      "start": 16.0578,
      "duration": 0.4842,
      "velocity": 125,
      "chip": "ym2612"
    },
    {
      "channel": 3,
      "note": 91,
      "start": 16.0635,
      "duration": 0.483,
      "velocity": 125,
      "chip": "ym2612"
    },
    {
      "channel": 1,
      "note": 84,
      "start": 16.1004,
      "duration": 0.1166,
      "velocity": 125,
      "chip": "ym2612"
    },
    {
      "channel": 2,
      "note": 77,
      "start": 16.1006,
      "duration": 0.1166,
      "velocity": 101,
      "chip": "ym2612"
    },
    {
      "channel": 0,
      "note": 52,
      "start": 16.2169,
      "duration": 0.045,
      "velocity": 122,
      "chip": "ym2612"
    },
    {
      "channel": 1,
      "note": 85,
      "start": 16.2172,
      "duration": 0.0449,
      "velocity": 125,
      "chip": "ym2612"
    },
    {
      "channel": 2,
      "note": 76,
      "start": 16.2174,
      "duration": 0.0451,
      "velocity": 101,
      "chip": "ym2612"
    },
    {
      "channel": 1,
      "note": 86,
      "start": 16.2624,
      "duration": 0.1166,
      "velocity": 125,
      "chip": "ym2612"
    },
    {
      "channel": 2,
      "note": 79,
      "start": 16.2626,
      "duration": 0.1166,
      "velocity": 101,
      "chip": "ym2612"
    },
    {
      "channel": 0,
      "note": 52,
      "start": 16.3789,
      "duration": 0.0454,
      "velocity": 122,
      "chip": "ym2612"
    },
    {
      "channel": 1,
      "note": 85,
      "start": 16.3792,
      "duration": 0.0453,
      "velocity": 125,
      "chip": "ym2612"
    },
    {
      "channel": 2,
      "note": 76,
      "start": 16.3794,
      "duration": 0.0455,
      "velocity": 101,
      "chip": "ym2612"
    },
    {
      "channel": 1,
      "note": 86,
      "start": 16.4248,
      "duration": 0.1166,
      "velocity": 125,
      "chip": "ym2612"
    },
    {
      "channel": 2,
      "note": 77,
      "start": 16.4251,
      "duration": 0.1166,
      "velocity": 101,
      "chip": "ym2612"
    },
    {
      "channel": 0,
      "note": 53,
      "start": 16.5413,
      "duration": 0.0081,
      "velocity": 122,
      "chip": "ym2612"
    },
    {
      "channel": 1,
      "note": 85,
      "start": 16.5417,
      "duration": 0.0079,
      "velocity": 125,
      "chip": "ym2612"
    },
    {
      "channel": 2,
      "note": 76,
      "start": 16.5418,
      "duration": 0.0079,
      "velocity": 101,
      "chip": "ym2612"
    },
    {
      "channel": 4,
      "note": 87,
      "start": 16.5422,
      "duration": 0.3408,
      "velocity": 125,
      "chip": "ym2612"
    },
    {
      "channel": 3,
      "note": 90,
      "start": 16.5466,
      "duration": 0.3407,
      "velocity": 125,
      "chip": "ym2612"
    },
    {
      "channel": 1,
      "note": 86,
      "start": 16.5497,
      "duration": 0.0087,
      "velocity": 125,
      "chip": "ym2612"
    },
    {
      "channel": 2,
      "note": 79,
      "start": 16.55,
      "duration": 0.0088,
      "velocity": 101,
      "chip": "ym2612"
    },
    {
      "channel": 0,
      "note": 53,
      "start": 16.5584,
      "duration": 0.0449,
      "velocity": 122,
      "chip": "ym2612"
    },
    {
      "channel": 1,
      "note": 85,
      "start": 16.5587,
      "duration": 0.0448,
      "velocity": 125,
      "chip": "ym2612"
    },
    {
      "channel": 2,
      "note": 76,
      "start": 16.5589,
      "duration": 0.0449,
      "velocity": 101,
      "chip": "ym2612"
    },
    {
      "channel": 1,
      "note": 86,
      "start": 16.6038,
      "duration": 0.1166,
      "velocity": 125,
      "chip": "ym2612"
    },
    {
      "channel": 2,
      "note": 77,
      "start": 16.6041,
      "duration": 0.1166,
      "velocity": 101,
      "chip": "ym2612"
    },
    {
      "channel": 0,
      "note": 53,
      "start": 16.7203,
      "duration": 0.0449,
      "velocity": 122,
      "chip": "ym2612"
    },
    {
      "channel": 1,
      "note": 85,
      "start": 16.7206,
      "duration": 0.0448,
      "velocity": 125,
      "chip": "ym2612"
    },
    {
      "channel": 2,
      "note": 76,
      "start": 16.7208,
      "duration": 0.045,
      "velocity": 101,
      "chip": "ym2612"
    },
    {
      "channel": 1,
      "note": 86,
      "start": 16.7658,
      "duration": 0.1166,
      "velocity": 125,
      "chip": "ym2612"
    },
    {
      "channel": 2,
      "note": 79,
      "start": 16.766,
      "duration": 0.1166,
      "velocity": 101,
      "chip": "ym2612"
    },
    {
      "channel": 0,
      "note": 54,
      "start": 16.8823,
      "duration": 0.0084,
      "velocity": 122,
      "chip": "ym2612"
    },
    {
      "channel": 1,
      "note": 85,
      "start": 16.8825,
      "duration": 0.0083,
      "velocity": 125,
      "chip": "ym2612"
    },
    {
      "channel": 2,
      "note": 76,
      "start": 16.8827,
      "duration": 0.0084,
      "velocity": 101,
      "chip": "ym2612"
    },
    {
      "channel": 4,
      "note": 86,
      "start": 16.883,
      "duration": 0.232,
      "velocity": 125,
      "chip": "ym2612"
    },
    {
      "channel": 3,
      "note": 89,
      "start": 16.8875,
      "duration": 0.2321,
      "velocity": 125,
      "chip": "ym2612"
    },
    {
      "channel": 1,
      "note": 86,
      "start": 16.891,
      "duration": 0.0452,
      "velocity": 125,
      "chip": "ym2612"
    },
    {
      "channel": 2,
      "note": 77,
      "start": 16.8913,
      "duration": 0.0452,
      "velocity": 101,
      "chip": "ym2612"
    },
    {
      "channel": 0,
      "note": 54,
      "start": 16.9362,
      "duration": 0.0454,
      "velocity": 122,
      "chip": "ym2612"
    },
    {
      "channel": 1,
      "note": 85,
      "start": 16.9365,
      "duration": 0.0453,
      "velocity": 125,
      "chip": "ym2612"
    },
    {
      "channel": 2,
      "note": 76,
      "start": 16.9367,
      "duration": 0.0454,
      "velocity": 101,
      "chip": "ym2612"
    },
    {
      "channel": 1,
      "note": 86,
      "start": 16.9821,
      "duration": 0.1166,
      "velocity": 125,
      "chip": "ym2612"
    },
    {
      "channel": 2,
      "note": 79,
      "start": 16.9823,
      "duration": 0.1166,
      "velocity": 101,
      "chip": "ym2612"
    },
    {
      "channel": 0,
      "note": 54,
      "start": 17.0986,
      "duration": 0.008,
      "velocity": 122,
      "chip": "ym2612"
    },
    {
      "channel": 1,
      "note": 85,
      "start": 17.0989,
      "duration": 0.0078,
      "velocity": 125,
      "chip": "ym2612"
    },
    {
      "channel": 2,
      "note": 76,
      "start": 17.0991,
      "duration": 0.0079,
      "velocity": 101,
      "chip": "ym2612"
    },
    {
      "channel": 1,
      "note": 86,
      "start": 17.1069,
      "duration": 0.0074,
      "velocity": 125,
      "chip": "ym2612"
    },
    {
      "channel": 2,
      "note": 77,
      "start": 17.1072,
      "duration": 0.0075,
      "velocity": 101,
      "chip": "ym2612"
    },
    {
      "channel": 0,
      "note": 55,
      "start": 17.1143,
      "duration": 0.0082,
      "velocity": 122,
      "chip": "ym2612"
    },
    {
      "channel": 1,
      "note": 85,
      "start": 17.1147,
      "duration": 0.0078,
      "velocity": 125,
      "chip": "ym2612"
    },
    {
      "channel": 2,
      "note": 76,
      "start": 17.1149,
      "duration": 0.0079,
      "velocity": 101,
      "chip": "ym2612"
    },
    {
      "channel": 4,
      "note": 85,
      "start": 17.1151,
      "duration": 0.0166,
      "velocity": 125,
      "chip": "ym2612"
    },
    {
      "channel": 3,
      "note": 88,
      "start": 17.1197,
      "duration": 0.0167,
      "velocity": 125,
      "chip": "ym2612"
    },
    {
      "channel": 1,
      "note": 84,
      "start": 17.1227,
      "duration": 0.0085,
      "velocity": 125,
      "chip": "ym2612"
    },
    {
      "channel": 2,
      "note": 77,
      "start": 17.1229,
      "duration": 0.0085,
      "velocity": 101,
      "chip": "ym2612"
    },
    {
      "channel": 0,
      "note": 55,
      "start": 17.1311,
      "duration": 0.0085,
      "velocity": 122,
      "chip": "ym2612"
    },
    {
      "channel": 1,
      "note": 83,
      "start": 17.1314,
      "duration": 0.0086,
      "velocity": 125,
      "chip": "ym2612"
    },
    {
      "channel": 2,
      "note": 78,
      "start": 17.1316,
      "duration": 0.0087,
      "velocity": 101,
      "chip": "ym2612"
    },
    {
      "channel": 4,
      "note": 84,
      "start": 17.1318,
      "duration": 0.0178,
      "velocity": 125,
      "chip": "ym2612"
    },
    {
      "channel": 3,
      "note": 87,
      "start": 17.1365,
      "duration": 0.0178,
      "velocity": 125,
      "chip": "ym2612"
    },
    {
      "channel": 0,
      "note": 56,
      "start": 17.14,
      "duration": 0.0087,
      "velocity": 122,
      "chip": "ym2612"
    },
    {
      "channel": 1,
      "note": 82,
      "start": 17.1402,
      "duration": 0.0088,
      "velocity": 125,
      "chip": "ym2612"
    },
    {
      "channel": 2,
      "note": 79,
      "start": 17.1405,
      "duration": 0.0088,
      "velocity": 101,
      "chip": "ym2612"
    },
    {
      "channel": 0,
      "note": 57,
      "start": 17.1489,
      "duration": 0.0087,
      "velocity": 122,
      "chip": "ym2612"
    },
    {
      "channel": 1,
      "note": 81,
      "start": 17.1492,
      "duration": 0.0088,
      "velocity": 125,
      "chip": "ym2612"
    },
    {
      "channel": 2,
      "note": 80,
      "start": 17.1494,
      "duration": 0.0088,
      "velocity": 101,
      "chip": "ym2612"
    },
    {
      "channel": 4,
      "note": 83,
      "start": 17.1498,
      "duration": 0.0177,
      "velocity": 125,
      "chip": "ym2612"
    },
    {
      "channel": 3,
      "note": 86,
      "start": 17.1545,
      "duration": 0.0177,
      "velocity": 125,
      "chip": "ym2612"
    },
    {
      "channel": 0,
      "note": 58,
      "start": 17.1579,
      "duration": 0.0086,
      "velocity": 122,
      "chip": "ym2612"
    },
    {
      "channel": 1,
      "note": 80,
      "start": 17.1582,
      "duration": 0.0087,
      "velocity": 125,
      "chip": "ym2612"
    },
    {
      "channel": 2,
      "note": 81,
      "start": 17.1584,
      "duration": 0.0087,
      "velocity": 101,
      "chip": "ym2612"
    },
    {
      "channel": 0,
      "note": 52,
      "start": 17.1668,
      "duration": 0.0454,
      "velocity": 122,
      "chip": "ym2612"
    },
    {
      "channel": 1,
      "note": 83,
      "start": 17.167,
      "duration": 0.0454,
      "velocity": 125,
      "chip": "ym2612"
    },
    {
      "channel": 2,
      "note": 76,
      "start": 17.1673,
      "duration": 0.0456,
      "velocity": 101,
      "chip": "ym2612"
    },
    {
      "channel": 4,
      "note": 88,
      "start": 17.1676,
      "duration": 0.4868,
      "velocity": 125,
      "chip": "ym2612"
    },
    {
      "channel": 3,
      "note": 91,
      "start": 17.1723,
      "duration": 0.4866,
      "velocity": 125,
      "chip": "ym2612"
    },
    {
      "channel": 1,
      "note": 84,
      "start": 17.2128,
      "duration": 0.1166,
      "velocity": 125,
      "chip": "ym2612"
    },
    {
      "channel": 2,
      "note": 77,
      "start": 17.213,
      "duration": 0.1166,
      "velocity": 101,
      "chip": "ym2612"
    },
    {
      "channel": 0,
      "note": 52,
      "start": 17.3293,
      "duration": 0.045,
      "velocity": 122,
      "chip": "ym2612"
    },
    {
      "channel": 1,
      "note": 85,
      "start": 17.3296,
      "duration": 0.0449,
      "velocity": 125,
      "chip": "ym2612"
    },
    {
      "channel": 2,
      "note": 76,
      "start": 17.3298,
      "duration": 0.0451,
      "velocity": 101,
      "chip": "ym2612"
    },
    {
      "channel": 1,
      "note": 86,
      "start": 17.3748,
      "duration": 0.1166,
      "velocity": 125,
      "chip": "ym2612"
    },
    {
      "channel": 2,
      "note": 79,
      "start": 17.375,
      "duration": 0.1166,
      "velocity": 101,
      "chip": "ym2612"
    },
    {
      "channel": 0,
      "note": 52,
      "start": 17.4913,
      "duration": 0.0454,
      "velocity": 122,
      "chip": "ym2612"
    },
    {
      "channel": 1,
      "note": 85,
      "start": 17.4916,
      "duration": 0.0453,
      "velocity": 125,
      "chip": "ym2612"
    },
    {
      "channel": 2,
      "note": 76,
      "start": 17.4918,
      "duration": 0.0455,
      "velocity": 101,
      "chip": "ym2612"
    },
    {
      "channel": 1,
      "note": 86,
      "start": 17.5372,
      "duration": 0.1166,
      "velocity": 125,
      "chip": "ym2612"
    },
    {
      "channel": 2,
      "note": 77,
      "start": 17.5375,
      "duration": 0.1166,
      "velocity": 101,
      "chip": "ym2612"
    },
    {
      "channel": 0,
      "note": 53,
      "start": 17.6537,
      "duration": 0.0081,
      "velocity": 122,
      "chip": "ym2612"
    },
    {
      "channel": 1,
      "note": 85,
      "start": 17.6541,
      "duration": 0.0079,
      "velocity": 125,
      "chip": "ym2612"
    },
    {
      "channel": 2,
      "note": 76,
      "start": 17.6542,
      "duration": 0.0079,
      "velocity": 101,
      "chip": "ym2612"
    },
    {
      "channel": 4,
      "note": 87,
      "start": 17.6546,
      "duration": 0.3413,
      "velocity": 125,
      "chip": "ym2612"
    },
    {
      "channel": 3,
      "note": 90,
      "start": 17.659,
      "duration": 0.3413,
      "velocity": 125,
      "chip": "ym2612"
    },
    {
      "channel": 1,
      "note": 86,
      "start": 17.6621,
      "duration": 0.0087,
      "velocity": 125,
      "chip": "ym2612"
    },
    {
      "channel": 2,
      "note": 79,
      "start": 17.6624,
      "duration": 0.0088,
      "velocity": 101,
      "chip": "ym2612"
    },
    {
      "channel": 0,
      "note": 53,
      "start": 17.6708,
      "duration": 0.0452,
      "velocity": 122,
      "chip": "ym2612"
    },
    {
      "channel": 1,
      "note": 85,
      "start": 17.6711,
      "duration": 0.0451,
      "velocity": 125,
      "chip": "ym2612"
    },
    {
      "channel": 2,
      "note": 76,
      "start": 17.6713,
      "duration": 0.0453,
      "velocity": 101,
      "chip": "ym2612"
    },
    {
      "channel": 1,
      "note": 86,
      "start": 17.7166,
      "duration": 0.1166,
      "velocity": 125,
      "chip": "ym2612"
    },
    {
      "channel": 2,
      "note": 77,
      "start": 17.7168,
      "duration": 0.1166,
      "velocity": 101,
      "chip": "ym2612"
    },
    {
      "channel": 0,
      "note": 53,
      "start": 17.8331,
      "duration": 0.0449,
      "velocity": 122,
      "chip": "ym2612"
    },
    {
      "channel": 1,
      "note": 85,
      "start": 17.8334,
      "duration": 0.0448,
      "velocity": 125,
      "chip": "ym2612"
    },
    {
      "channel": 2,
      "note": 76,
      "start": 17.8336,
      "duration": 0.045,
      "velocity": 101,
      "chip": "ym2612"
    },
    {
      "channel": 1,
      "note": 86,
      "start": 17.8785,
      "duration": 0.1166,
      "velocity": 125,
      "chip": "ym2612"
    },
    {
      "channel": 2,
      "note": 79,
      "start": 17.8788,
      "duration": 0.1167,
      "velocity": 101,
      "chip": "ym2612"
    },
    {
      "channel": 0,
      "note": 54,
      "start": 17.995,
      "duration": 0.0455,
      "velocity": 122,
      "chip": "ym2612"
    },
    {
      "channel": 1,
      "note": 85,
      "start": 17.9954,
      "duration": 0.0453,
      "velocity": 125,
      "chip": "ym2612"
    },
    {
      "channel": 2,
      "note": 76,
      "start": 17.9957,
      "duration": 0.0454,
      "velocity": 101,
      "chip": "ym2612"
    },
    {
      "channel": 4,
      "note": 86,
      "start": 17.9959,
      "duration": 0.1622,
      "velocity": 125,
      "chip": "ym2612"
    },
    {
      "channel": 3,
      "note": 89,
      "start": 18.0005,
      "duration": 0.1622,
      "velocity": 125,
      "chip": "ym2612"
    },
    {
      "channel": 1,
      "note": 86,
      "start": 18.041,
      "duration": 0.1166,
      "velocity": 125,
      "chip": "ym2612"
    },
    {
      "channel": 2,
      "note": 77,
      "start": 18.0413,
      "duration": 0.1166,
      "velocity": 101,
      "chip": "ym2612"
    },
    {
      "channel": 0,
      "note": 54,
      "start": 18.1576,
      "duration": 0.0454,
      "velocity": 122,
      "chip": "ym2612"
    },
    {
      "channel": 1,
      "note": 85,
      "start": 18.1579,
      "duration": 0.0453,
      "velocity": 125,
      "chip": "ym2612"
    },
    {
      "channel": 2,
      "note": 76,
      "start": 18.158,
      "duration": 0.0455,
      "velocity": 101,
      "chip": "ym2612"
    },
    {
      "channel": 4,
      "note": 87,
      "start": 18.1584,
      "duration": 0.1623,
      "velocity": 125,
      "chip": "ym2612"
    },
    {
      "channel": 3,
      "note": 90,
      "start": 18.1628,
      "duration": 0.1623,
      "velocity": 125,
      "chip": "ym2612"
    },
    {
      "channel": 1,
      "note": 86,
      "start": 18.2035,
      "duration": 0.1166,
      "velocity": 125,
      "chip": "ym2612"
    },
    {
      "channel": 2,
      "note": 79,
      "start": 18.2037,
      "duration": 0.1166,
      "velocity": 101,
      "chip": "ym2612"
    },
    {
      "channel": 0,
      "note": 54,
      "start": 18.32,
      "duration": 0.0454,
      "velocity": 122,
      "chip": "ym2612"
    },
    {
      "channel": 1,
      "note": 85,
      "start": 18.3203,
      "duration": 0.0453,
      "velocity": 125,
      "chip": "ym2612"
    },
    {
      "channel": 2,
      "note": 76,
      "start": 18.3205,
      "duration": 0.0454,
      "velocity": 101,
      "chip": "ym2612"
    },
    {
      "channel": 4,
      "note": 88,
      "start": 18.3208,
      "duration": 0.1622,
      "velocity": 125,
      "chip": "ym2612"
    },
    {
      "channel": 3,
      "note": 91,
      "start": 18.3252,
      "duration": 0.1623,
      "velocity": 125,
      "chip": "ym2612"
    },
    {
      "channel": 1,
      "note": 84,
      "start": 18.3659,
      "duration": 0.1166,
      "velocity": 125,
      "chip": "ym2612"
    },
    {
      "channel": 2,
      "note": 77,
      "start": 18.3661,
      "duration": 0.1166,
      "velocity": 101,
      "chip": "ym2612"
    },
    {
      "channel": 0,
      "note": 55,
      "start": 18.4824,
      "duration": 0.0085,
      "velocity": 122,
      "chip": "ym2612"
    },
    {
      "channel": 1,
      "note": 91,
      "start": 18.4826,
      "duration": 0.0084,
      "velocity": 125,
      "chip": "ym2612"
    },
    {
      "channel": 2,
      "note": 76,
      "start": 18.4829,
      "duration": 0.0084,
      "velocity": 101,
      "chip": "ym2612"
    },
    {
      "channel": 4,
      "note": 89,
      "start": 18.4832,
      "duration": 0.017,
      "velocity": 125,
      "chip": "ym2612"
    },
    {
      "channel": 3,
      "note": 92,
      "start": 18.4876,
      "duration": 0.017,
      "velocity": 125,
      "chip": "ym2612"
    },
    {
      "channel": 1,
      "note": 90,
      "start": 18.4912,
      "duration": 0.0085,
      "velocity": 125,
      "chip": "ym2612"
    },
    {
      "channel": 2,
      "note": 77,
      "start": 18.4915,
      "duration": 0.0085,
      "velocity": 101,
      "chip": "ym2612"
    },
    {
      "channel": 0,
      "note": 55,
      "start": 18.4997,
      "duration": 0.008,
      "velocity": 122,
      "chip": "ym2612"
    },
    {
      "channel": 1,
      "note": 89,
      "start": 18.4999,
      "duration": 0.0081,
      "velocity": 125,
      "chip": "ym2612"
    },
    {
      "channel": 2,
      "note": 84,
      "start": 18.5001,
      "duration": 0.0083,
      "velocity": 101,
      "chip": "ym2612"
    },
    {
      "channel": 4,
      "note": 90,
      "start": 18.5004,
      "duration": 0.0176,
      "velocity": 125,
      "chip": "ym2612"
    },
    {
      "channel": 3,
      "note": 93,
      "start": 18.5048,
      "duration": 0.0179,
      "velocity": 125,
      "chip": "ym2612"
    },
    {
      "channel": 0,
      "note": 56,
      "start": 18.5079,
      "duration": 0.009,
      "velocity": 122,
      "chip": "ym2612"
    },
    {
      "channel": 1,
      "note": 88,
      "start": 18.5083,
      "duration": 0.0091,
      "velocity": 125,
      "chip": "ym2612"
    },
    {
      "channel": 2,
      "note": 83,
      "start": 18.5085,
      "duration": 0.0092,
      "velocity": 101,
      "chip": "ym2612"
    },
    {
      "channel": 0,
      "note": 57,
      "start": 18.5173,
      "duration": 0.0084,
      "velocity": 122,
      "chip": "ym2612"
    },
    {
      "channel": 1,
      "note": 87,
      "start": 18.5176,
      "duration": 0.0084,
      "velocity": 125,
      "chip": "ym2612"
    },
    {
      "channel": 2,
      "note": 82,
      "start": 18.5178,
      "duration": 0.0084,
      "velocity": 101,
      "chip": "ym2612"
    },
    {
      "channel": 4,
      "note": 91,
      "start": 18.5182,
      "duration": 0.0171,
      "velocity": 125,
      "chip": "ym2612"
    },
    {
      "channel": 3,
      "note": 94,
      "start": 18.5229,
      "duration": 0.0168,
      "velocity": 125,
      "chip": "ym2612"
    },
    {
      "channel": 0,
      "note": 58,
      "start": 18.5259,
      "duration": 0.0083,
      "velocity": 122,
      "chip": "ym2612"
    },
    {
      "channel": 1,
      "note": 86,
      "start": 18.5262,
      "duration": 0.0083,
      "velocity": 125,
      "chip": "ym2612"
    },
    {
      "channel": 2,
      "note": 81,
      "start": 18.5264,
      "duration": 0.0085,
      "velocity": 101,
      "chip": "ym2612"
    },
    {
      "channel": 0,
      "note": 52,
      "start": 18.5345,
      "duration": 0.0454,
      "velocity": 122,
      "chip": "ym2612"
    },
    {
      "channel": 1,
      "note": 83,
      "start": 18.5348,
      "duration": 0.0452,
      "velocity": 125,
      "chip": "ym2612"
    },
    {
      "channel": 2,
      "note": 76,
      "start": 18.5351,
      "duration": 0.0453,
      "velocity": 101,
      "chip": "ym2612"
    },
    {
      "channel": 4,
      "note": 88,
      "start": 18.5354,
      "duration": 0.4868,
      "velocity": 125,
      "chip": "ym2612"
    },
    {
      "channel": 3,
      "note": 91,
      "start": 18.5399,
      "duration": 0.4868,
      "velocity": 125,
      "chip": "ym2612"
    },
    {
      "channel": 1,
      "note": 84,
      "start": 18.5803,
      "duration": 0.1166,
      "velocity": 125,
      "chip": "ym2612"
    },
    {
      "channel": 2,
      "note": 77,
      "start": 18.5806,
      "duration": 0.1166,
      "velocity": 101,
      "chip": "ym2612"
    },
    {
      "channel": 0,
      "note": 52,
      "start": 18.6968,
      "duration": 0.045,
      "velocity": 122,
      "chip": "ym2612"
    },
    {
      "channel": 1,
      "note": 85,
      "start": 18.6972,
      "duration": 0.0449,
      "velocity": 125,
      "chip": "ym2612"
    },
    {
      "channel": 2,
      "note": 76,
      "start": 18.6973,
      "duration": 0.0451,
      "velocity": 101,
      "chip": "ym2612"
    },
    {
      "channel": 1,
      "note": 86,
      "start": 18.7424,
      "duration": 0.1166,
      "velocity": 125,
      "chip": "ym2612"
    },
    {
      "channel": 2,
      "note": 79,
      "start": 18.7426,
      "duration": 0.1166,
      "velocity": 101,
      "chip": "ym2612"
    },
    {
      "channel": 0,
      "note": 52,
      "start": 18.8589,
      "duration": 0.0454,
      "velocity": 122,
      "chip": "ym2612"
    },
    {
      "channel": 1,
      "note": 85,
      "start": 18.8592,
      "duration": 0.0453,
      "velocity": 125,
      "chip": "ym2612"
    },
    {
      "channel": 2,
      "note": 76,
      "start": 18.8594,
      "duration": 0.0455,
      "velocity": 101,
      "chip": "ym2612"
    },
    {
      "channel": 1,
      "note": 86,
      "start": 18.9048,
      "duration": 0.1166,
      "velocity": 125,
      "chip": "ym2612"
    },
    {
      "channel": 2,
      "note": 77,
      "start": 18.9051,
      "duration": 0.1167,
      "velocity": 101,
      "chip": "ym2612"
    },
    {
      "channel": 0,
      "note": 53,
      "start": 19.0213,
      "duration": 0.0084,
      "velocity": 122,
      "chip": "ym2612"
    },
    {
      "channel": 1,
      "note": 85,
      "start": 19.0217,
      "duration": 0.0081,
      "velocity": 125,
      "chip": "ym2612"
    },
    {
      "channel": 2,
      "note": 76,
      "start": 19.0219,
      "duration": 0.0082,
      "velocity": 101,
      "chip": "ym2612"
    },
    {
      "channel": 4,
      "note": 87,
      "start": 19.0222,
      "duration": 0.3416,
      "velocity": 125,
      "chip": "ym2612"
    },
    {
      "channel": 3,
      "note": 90,
      "start": 19.0268,
      "duration": 0.3416,
      "velocity": 125,
      "chip": "ym2612"
    },
    {
      "channel": 1,
      "note": 86,
      "start": 19.0301,
      "duration": 0.0089,
      "velocity": 125,
      "chip": "ym2612"
    },
    {
      "channel": 2,
      "note": 79,
      "start": 19.0303,
      "duration": 0.0089,
      "velocity": 101,
      "chip": "ym2612"
    },
    {
      "channel": 0,
      "note": 53,
      "start": 19.0389,
      "duration": 0.0452,
      "velocity": 122,
      "chip": "ym2612"
    },
    {
      "channel": 1,
      "note": 85,
      "start": 19.0392,
      "duration": 0.0452,
      "velocity": 125,
      "chip": "ym2612"
    },
    {
      "channel": 2,
      "note": 76,
      "start": 19.0394,
      "duration": 0.0453,
      "velocity": 101,
      "chip": "ym2612"
    },
    {
      "channel": 1,
      "note": 86,
      "start": 19.0846,
      "duration": 0.1166,
      "velocity": 125,
      "chip": "ym2612"
    },
    {
      "channel": 2,
      "note": 77,
      "start": 19.0849,
      "duration": 0.1166,
      "velocity": 101,
      "chip": "ym2612"
    },
    {
      "channel": 0,
      "note": 53,
      "start": 19.2012,
      "duration": 0.045,
      "velocity": 122,
      "chip": "ym2612"
    },
    {
      "channel": 1,
      "note": 85,
      "start": 19.2015,
      "duration": 0.0449,
      "velocity": 125,
      "chip": "ym2612"
    },
    {
      "channel": 2,
      "note": 76,
      "start": 19.2017,
      "duration": 0.045,
      "velocity": 101,
      "chip": "ym2612"
    },
    {
      "channel": 1,
      "note": 86,
      "start": 19.2466,
      "duration": 0.1166,
      "velocity": 125,
      "chip": "ym2612"
    },
    {
      "channel": 2,
      "note": 79,
      "start": 19.2469,
      "duration": 0.1166,
      "velocity": 101,
      "chip": "ym2612"
    },
    {
      "channel": 0,
      "note": 54,
      "start": 19.3632,
      "duration": 0.0455,
      "velocity": 122,
      "chip": "ym2612"
    },
    {
      "channel": 1,
      "note": 85,
      "start": 19.3635,
      "duration": 0.0454,
      "velocity": 125,
      "chip": "ym2612"
    },
    {
      "channel": 2,
      "note": 76,
      "start": 19.3637,
      "duration": 0.0455,
      "velocity": 101,
      "chip": "ym2612"
    },
    {
      "channel": 4,
      "note": 86,
      "start": 19.364,
      "duration": 0.4864,
      "velocity": 125,
      "chip": "ym2612"
    },
    {
      "channel": 3,
      "note": 89,
      "start": 19.3685,
      "duration": 0.4866,
      "velocity": 125,
      "chip": "ym2612"
    },
    {
      "channel": 1,
      "note": 86,
      "start": 19.4091,
      "duration": 0.1166,
      "velocity": 125,
      "chip": "ym2612"
    },
    {
      "channel": 2,
      "note": 77,
      "start": 19.4094,
      "duration": 0.1166,
      "velocity": 101,
      "chip": "ym2612"
    },
    {
      "channel": 0,
      "note": 54,
      "start": 19.5256,
      "duration": 0.045,
      "velocity": 122,
      "chip": "ym2612"
    },
    {
      "channel": 1,
      "note": 85,
      "start": 19.526,
      "duration": 0.0449,
      "velocity": 125,
      "chip": "ym2612"
    },
    {
      "channel": 2,
      "note": 76,
      "start": 19.5261,
      "duration": 0.0451,
      "velocity": 101,
      "chip": "ym2612"
    },
    {
      "channel": 1,
      "note": 86,
      "start": 19.5712,
      "duration": 0.1166,
      "velocity": 125,
      "chip": "ym2612"
    },
    {
      "channel": 2,
      "note": 79,
      "start": 19.5714,
      "duration": 0.1166,
      "velocity": 101,
      "chip": "ym2612"
    },
    {
      "channel": 0,
      "note": 54,
      "start": 19.6877,
      "duration": 0.045,
      "velocity": 122,
      "chip": "ym2612"
    },
    {
      "channel": 1,
      "note": 85,
      "start": 19.688,
      "duration": 0.0449,
      "velocity": 125,
      "chip": "ym2612"
    },
    {
      "channel": 2,
      "note": 76,
      "start": 19.6882,
      "duration": 0.0451,
      "velocity": 101,
      "chip": "ym2612"
    },
    {
      "channel": 1,
      "note": 86,
      "start": 19.7332,
      "duration": 0.1166,
      "velocity": 125,
      "chip": "ym2612"
    },
    {
      "channel": 2,
      "note": 77,
      "start": 19.7334,
      "duration": 0.1166,
      "velocity": 101,
      "chip": "ym2612"
    },
    {
      "channel": 0,
      "note": 55,
      "start": 19.8497,
      "duration": 0.0085,
      "velocity": 122,
      "chip": "ym2612"
    },
    {
      "channel": 1,
      "note": 85,
      "start": 19.85,
      "duration": 0.0083,
      "velocity": 125,
      "chip": "ym2612"
    },
    {
      "channel": 2,
      "note": 76,
      "start": 19.8502,
      "duration": 0.0083,
      "velocity": 101,
      "chip": "ym2612"
    },
    {
      "channel": 4,
      "note": 85,
      "start": 19.8506,
      "duration": 0.0171,
      "velocity": 125,
      "chip": "ym2612"
    },
    {
      "channel": 3,
      "note": 88,
      "start": 19.8554,
      "duration": 0.0166,
      "velocity": 125,
      "chip": "ym2612"
    },
    {
      "channel": 1,
      "note": 84,
      "start": 19.8585,
      "duration": 0.0086,
      "velocity": 125,
      "chip": "ym2612"
    },
    {
      "channel": 2,
      "note": 77,
      "start": 19.8587,
      "duration": 0.0087,
      "velocity": 101,
      "chip": "ym2612"
    },
    {
      "channel": 0,
      "note": 55,
      "start": 19.8671,
      "duration": 0.0451,
      "velocity": 122,
      "chip": "ym2612"
    },
    {
      "channel": 1,
      "note": 83,
      "start": 19.8673,
      "duration": 0.0453,
      "velocity": 125,
      "chip": "ym2612"
    },
    {
      "channel": 2,
      "note": 78,
      "start": 19.8675,
      "duration": 0.0454,
      "velocity": 101,
      "chip": "ym2612"
    },
    {
      "channel": 4,
      "note": 84,
      "start": 19.8678,
      "duration": 0.0746,
      "velocity": 125,
      "chip": "ym2612"
    },
    {
      "channel": 3,
      "note": 87,
      "start": 19.8722,
      "duration": 0.0755,
      "velocity": 125,
      "chip": "ym2612"
    },
    {
      "channel": 0,
      "note": 56,
      "start": 19.9125,
      "duration": 0.0287,
      "velocity": 122,
      "chip": "ym2612"
    },
    {
      "channel": 1,
      "note": 82,
      "start": 19.9129,
      "duration": 0.0288,
      "velocity": 125,
      "chip": "ym2612"
    },
    {
      "channel": 2,
      "note": 79,
      "start": 19.9131,
      "duration": 0.0289,
      "velocity": 101,
      "chip": "ym2612"
    },
    {
      "channel": 0,
      "note": 57,
      "start": 19.9415,
      "duration": 0.0199,
      "velocity": 122,
      "chip": "ym2612"
    },
    {
      "channel": 1,
      "note": 81,
      "start": 19.9419,
      "duration": 0.0199,
      "velocity": 125,
      "chip": "ym2612"
    },
    {
      "channel": 2,
      "note": 80,
      "start": 19.9422,
      "duration": 0.0199,
      "velocity": 101,
      "chip": "ym2612"
    },
    {
      "channel": 4,
      "note": 83,
      "start": 19.9426,
      "duration": 0.0305,
      "velocity": 125,
      "chip": "ym2612"
    },
    {
      "channel": 3,
      "note": 86,
      "start": 19.9479,
      "duration": 0.0299,
      "velocity": 125,
      "chip": "ym2612"
    },
    {
      "channel": 0,
      "note": 58,
      "start": 19.9617,
      "duration": 0.0106,
      "velocity": 122,
      "chip": "ym2612"
    },
    {
      "channel": 1,
      "note": 80,
      "start": 19.9621,
      "duration": 0.0106,
      "velocity": 125,
      "chip": "ym2612"
    },
    {
      "channel": 2,
      "note": 81,
      "start": 19.9623,
      "duration": 0.0107,
      "velocity": 101,
      "chip": "ym2612"
    },
    {
      "channel": 0,
      "note": 52,
      "start": 19.9726,
      "duration": 0.0451,
      "velocity": 122,
      "chip": "ym2612"
    },
    {
      "channel": 1,
      "note": 83,
      "start": 19.9729,
      "duration": 0.045,
      "velocity": 125,
      "chip": "ym2612"
    },
    {
      "channel": 2,
      "note": 76,
      "start": 19.9731,
      "duration": 0.0452,
      "velocity": 101,
      "chip": "ym2612"
    },
    {
      "channel": 4,
      "note": 88,
      "start": 19.9733,
      "duration": 0.4868,
      "velocity": 125,
      "chip": "ym2612"
    },
    {
      "channel": 3,
      "note": 91,
      "start": 19.978,
      "duration": 0.4867,
      "velocity": 125,
      "chip": "ym2612"
    },
    {
      "channel": 1,
      "note": 84,
      "start": 20.0183,
      "duration": 0.1166,
      "velocity": 125,
      "chip": "ym2612"
    },
    {
      "channel": 2,
      "note": 77,
      "start": 20.0185,
      "duration": 0.1166,
      "velocity": 101,
      "chip": "ym2612"
    },
    {
      "channel": 0,
      "note": 52,
      "start": 20.1348,
      "duration": 0.0452,
      "velocity": 122,
      "chip": "ym2612"
    },
    {
      "channel": 1,
      "note": 85,
      "start": 20.1351,
      "duration": 0.0451,
      "velocity": 125,
      "chip": "ym2612"
    },
    {
      "channel": 2,
      "note": 76,
      "start": 20.1353,
      "duration": 0.0453,
      "velocity": 101,
      "chip": "ym2612"
    },
    {
      "channel": 1,
      "note": 86,
      "start": 20.1805,
      "duration": 0.1166,
      "velocity": 125,
      "chip": "ym2612"
    },
    {
      "channel": 2,
      "note": 79,
      "start": 20.1807,
      "duration": 0.1166,
      "velocity": 101,
      "chip": "ym2612"
    },
    {
      "channel": 0,
      "note": 52,
      "start": 20.297,
      "duration": 0.0454,
      "velocity": 122,
      "chip": "ym2612"
    },
    {
      "channel": 1,
      "note": 85,
      "start": 20.2973,
      "duration": 0.0453,
      "velocity": 125,
      "chip": "ym2612"
    },
    {
      "channel": 2,
      "note": 76,
      "start": 20.2975,
      "duration": 0.0455,
      "velocity": 101,
      "chip": "ym2612"
    },
    {
      "channel": 1,
      "note": 86,
      "start": 20.3429,
      "duration": 0.1166,
      "velocity": 125,
      "chip": "ym2612"
    },
    {
      "channel": 2,
      "note": 77,
      "start": 20.3432,
      "duration": 0.1166,
      "velocity": 101,
      "chip": "ym2612"
    },
    {
      "channel": 0,
      "note": 53,
      "start": 20.4595,
      "duration": 0.0081,
      "velocity": 122,
      "chip": "ym2612"
    },
    {
      "channel": 1,
      "note": 85,
      "start": 20.4598,
      "duration": 0.0079,
      "velocity": 125,
      "chip": "ym2612"
    },
    {
      "channel": 2,
      "note": 76,
      "start": 20.46,
      "duration": 0.008,
      "velocity": 101,
      "chip": "ym2612"
    },
    {
      "channel": 4,
      "note": 87,
      "start": 20.4603,
      "duration": 0.341,
      "velocity": 125,
      "chip": "ym2612"
    },
    {
      "channel": 3,
      "note": 90,
      "start": 20.4648,
      "duration": 0.3411,
      "velocity": 125,
      "chip": "ym2612"
    },
    {
      "channel": 1,
      "note": 86,
      "start": 20.4679,
      "duration": 0.0086,
      "velocity": 125,
      "chip": "ym2612"
    },
    {
      "channel": 2,
      "note": 79,
      "start": 20.4681,
      "duration": 0.0087,
      "velocity": 101,
      "chip": "ym2612"
    },
    {
      "channel": 0,
      "note": 53,
      "start": 20.4764,
      "duration": 0.0452,
      "velocity": 122,
      "chip": "ym2612"
    },
    {
      "channel": 1,
      "note": 85,
      "start": 20.4767,
      "duration": 0.0451,
      "velocity": 125,
      "chip": "ym2612"
    },
    {
      "channel": 2,
      "note": 76,
      "start": 20.4769,
      "duration": 0.0452,
      "velocity": 101,
      "chip": "ym2612"
    },
    {
      "channel": 1,
      "note": 86,
      "start": 20.5221,
      "duration": 0.1166,
      "velocity": 125,
      "chip": "ym2612"
    },
    {
      "channel": 2,
      "note": 77,
      "start": 20.5224,
      "duration": 0.1166,
      "velocity": 101,
      "chip": "ym2612"
    },
    {
      "channel": 0,
      "note": 53,
      "start": 20.6386,
      "duration": 0.0449,
      "velocity": 122,
      "chip": "ym2612"
    },
    {
      "channel": 1,
      "note": 85,
      "start": 20.639,
      "duration": 0.0448,
      "velocity": 125,
      "chip": "ym2612"
    },
    {
      "channel": 2,
      "note": 76,
      "start": 20.6391,
      "duration": 0.045,
      "velocity": 101,
      "chip": "ym2612"
    },
    {
      "channel": 1,
      "note": 86,
      "start": 20.6841,
      "duration": 0.1166,
      "velocity": 125,
      "chip": "ym2612"
    },
    {
      "channel": 2,
      "note": 79,
      "start": 20.6844,
      "duration": 0.1166,
      "velocity": 101,
      "chip": "ym2612"
    },
    {
      "channel": 0,
      "note": 54,
      "start": 20.8006,
      "duration": 0.0085,
      "velocity": 122,
      "chip": "ym2612"
    },
    {
      "channel": 1,
      "note": 85,
      "start": 20.8009,
      "duration": 0.0085,
      "velocity": 125,
      "chip": "ym2612"
    },
    {
      "channel": 2,
      "note": 76,
      "start": 20.8011,
      "duration": 0.0086,
      "velocity": 101,
      "chip": "ym2612"
    },
    {
      "channel": 4,
      "note": 86,
      "start": 20.8014,
      "duration": 0.0543,
      "velocity": 125,
      "chip": "ym2612"
    },
    {
      "channel": 3,
      "note": 89,
      "start": 20.8061,
      "duration": 0.0541,
      "velocity": 125,
      "chip": "ym2612"
    },
    {
      "channel": 1,
      "note": 86,
      "start": 20.8096,
      "duration": 0.0455,
      "velocity": 125,
      "chip": "ym2612"
    },
    {
      "channel": 2,
      "note": 77,
      "start": 20.8098,
      "duration": 0.0455,
      "velocity": 101,
      "chip": "ym2612"
    },
    {
      "channel": 0,
      "note": 54,
      "start": 20.855,
      "duration": 0.0454,
      "velocity": 122,
      "chip": "ym2612"
    },
    {
      "channel": 1,
      "note": 85,
      "start": 20.8553,
      "duration": 0.0453,
      "velocity": 125,
      "chip": "ym2612"
    },
    {
      "channel": 2,
      "note": 76,
      "start": 20.8555,
      "duration": 0.0454,
      "velocity": 101,
      "chip": "ym2612"
    },
    {
      "channel": 4,
      "note": 87,
      "start": 20.8559,
      "duration": 0.1623,
      "velocity": 125,
      "chip": "ym2612"
    },
    {
      "channel": 3,
      "note": 90,
      "start": 20.8603,
      "duration": 0.1623,
      "velocity": 125,
      "chip": "ym2612"
    },
    {
      "channel": 1,
      "note": 86,
      "start": 20.9009,
      "duration": 0.1166,
      "velocity": 125,
      "chip": "ym2612"
    },
    {
      "channel": 2,
      "note": 79,
      "start": 20.9012,
      "duration": 0.1166,
      "velocity": 101,
      "chip": "ym2612"
    },
    {
      "channel": 0,
      "note": 54,
      "start": 21.0174,
      "duration": 0.0081,
      "velocity": 122,
      "chip": "ym2612"
    },
    {
      "channel": 1,
      "note": 85,
      "start": 21.0177,
      "duration": 0.0079,
      "velocity": 125,
      "chip": "ym2612"
    },
    {
      "channel": 2,
      "note": 76,
      "start": 21.0179,
      "duration": 0.008,
      "velocity": 101,
      "chip": "ym2612"
    },
    {
      "channel": 4,
      "note": 88,
      "start": 21.0183,
      "duration": 0.0168,
      "velocity": 125,
      "chip": "ym2612"
    },
    {
      "channel": 3,
      "note": 91,
      "start": 21.0227,
      "duration": 0.0168,
      "velocity": 125,
      "chip": "ym2612"
    },
    {
      "channel": 1,
      "note": 84,
      "start": 21.0259,
      "duration": 0.0086,
      "velocity": 125,
      "chip": "ym2612"
    },
    {
      "channel": 2,
      "note": 77,
      "start": 21.0261,
      "duration": 0.0086,
      "velocity": 101,
      "chip": "ym2612"
    },
    {
      "channel": 0,
      "note": 55,
      "start": 21.0344,
      "duration": 0.008,
      "velocity": 122,
      "chip": "ym2612"
    },
    {
      "channel": 1,
      "note": 91,
      "start": 21.0346,
      "duration": 0.0079,
      "velocity": 125,
      "chip": "ym2612"
    },
    {
      "channel": 2,
      "note": 76,
      "start": 21.0349,
      "duration": 0.0079,
      "velocity": 101,
      "chip": "ym2612"
    },
    {
      "channel": 4,
      "note": 89,
      "start": 21.0353,
      "duration": 0.0162,
      "velocity": 125,
      "chip": "ym2612"
    },
    {
      "channel": 3,
      "note": 92,
      "start": 21.0397,
      "duration": 0.0166,
      "velocity": 125,
      "chip": "ym2612"
    },
    {
      "channel": 1,
      "note": 90,
      "start": 21.0427,
      "duration": 0.0083,
      "velocity": 125,
      "chip": "ym2612"
    },
    {
      "channel": 2,
      "note": 77,
      "start": 21.0429,
      "duration": 0.0083,
      "velocity": 101,
      "chip": "ym2612"
    },
    {
      "channel": 0,
      "note": 55,
      "start": 21.051,
      "duration": 0.0085,
      "velocity": 122,
      "chip": "ym2612"
    },
    {
      "channel": 1,
      "note": 89,
      "start": 21.0512,
      "duration": 0.0086,
      "velocity": 125,
      "chip": "ym2612"
    },
    {
      "channel": 2,
      "note": 84,
      "start": 21.0514,
      "duration": 0.0087,
      "velocity": 101,
      "chip": "ym2612"
    },
    {
      "channel": 4,
      "note": 90,
      "start": 21.0517,
      "duration": 0.0178,
      "velocity": 125,
      "chip": "ym2612"
    },
    {
      "channel": 3,
      "note": 93,
      "start": 21.0563,
      "duration": 0.0174,
      "velocity": 125,
      "chip": "ym2612"
    },
    {
      "channel": 0,
      "note": 56,
      "start": 21.0598,
      "duration": 0.0086,
      "velocity": 122,
      "chip": "ym2612"
    },
    {
      "channel": 1,
      "note": 88,
      "start": 21.0601,
      "duration": 0.0088,
      "velocity": 125,
      "chip": "ym2612"
    },
    {
      "channel": 2,
      "note": 83,
      "start": 21.0603,
      "duration": 0.0088,
      "velocity": 101,
      "chip": "ym2612"
    },
    {
      "channel": 0,
      "note": 57,
      "start": 21.0688,
      "duration": 0.0084,
      "velocity": 122,
      "chip": "ym2612"
    },
    {
      "channel": 1,
      "note": 87,
      "start": 21.0691,
      "duration": 0.0085,
      "velocity": 125,
      "chip": "ym2612"
    },
    {
      "channel": 2,
      "note": 82,
      "start": 21.0693,
      "duration": 0.0086,
      "velocity": 101,
      "chip": "ym2612"
    },
    {
      "channel": 4,
      "note": 91,
      "start": 21.0695,
      "duration": 0.02,
      "velocity": 125,
      "chip": "ym2612"
    },
    {
      "channel": 3,
      "note": 94,
      "start": 21.074,
      "duration": 0.0212,
      "velocity": 119,
      "chip": "ym2612"
    },
    {
      "channel": 0,
      "note": 58,
      "start": 21.0776,
      "duration": 0.0081,
      "velocity": 122,
      "chip": "ym2612"
    },
    {
      "channel": 1,
      "note": 86,
      "start": 21.0778,
      "duration": 0.0091,
      "velocity": 109,
      "chip": "ym2612"
    },
    {
      "channel": 2,
      "note": 81,
      "start": 21.078,
      "duration": 0.0101,
      "velocity": 125,
      "chip": "ym2612"
    },
    {
      "channel": 0,
      "note": 49,
      "start": 21.0859,
      "duration": 0.046,
      "velocity": 122,
      "chip": "ym2612"
    },
    {
      "channel": 1,
      "note": 80,
      "start": 21.0873,
      "duration": 0.4851,
      "velocity": 109,
      "chip": "ym2612"
    },
    {
      "channel": 2,
      "note": 87,
      "start": 21.0884,
      "duration": 0.0439,
      "velocity": 125,
      "chip": "ym2612"
    },
    {
      "channel": 4,
      "note": 76,
      "start": 21.0897,
      "duration": 0.0429,
      "velocity": 125,
      "chip": "ym2612"
    },
    {
      "channel": 3,
      "note": 94,
      "start": 21.0954,
      "duration": 0.1035,
      "velocity": 119,
      "chip": "ym2612"
    },
    {
      "channel": 0,
      "note": 49,
      "start": 21.249,
      "duration": 0.0446,
      "velocity": 122,
      "chip": "ym2612"
    },
    {
      "channel": 0,
      "note": 61,
      "start": 21.2939,
      "duration": 0.1164,
      "velocity": 122,
      "chip": "ym2612"
    },
    {
      "channel": 2,
      "note": 87,
      "start": 21.2944,
      "duration": 0.1164,
      "velocity": 125,
      "chip": "ym2612"
    },
    {
      "channel": 4,
      "note": 76,
      "start": 21.2947,
      "duration": 0.1163,
      "velocity": 125,
      "chip": "ym2612"
    },
    {
      "channel": 3,
      "note": 94,
      "start": 21.361,
      "duration": 0.0535,
      "velocity": 119,
      "chip": "ym2612"
    },
    {
      "channel": 0,
      "note": 49,
      "start": 21.4107,
      "duration": 0.0446,
      "velocity": 122,
      "chip": "ym2612"
    },
    {
      "channel": 2,
      "note": 87,
      "start": 21.4558,
      "duration": 0.1168,
      "velocity": 125,
      "chip": "ym2612"
    },
    {
      "channel": 4,
      "note": 76,
      "start": 21.4561,
      "duration": 0.1169,
      "velocity": 125,
      "chip": "ym2612"
    },
    {
      "channel": 3,
      "note": 94,
      "start": 21.5225,
      "duration": 0.055,
      "velocity": 119,
      "chip": "ym2612"
    },
    {
      "channel": 0,
      "note": 49,
      "start": 21.5724,
      "duration": 0.0081,
      "velocity": 122,
      "chip": "ym2612"
    },
    {
      "channel": 1,
      "note": 79,
      "start": 21.5726,
      "duration": 0.338,
      "velocity": 109,
      "chip": "ym2612"
    },
    {
      "channel": 2,
      "note": 86,
      "start": 21.5729,
      "duration": 0.0078,
      "velocity": 125,
      "chip": "ym2612"
    },
    {
      "channel": 4,
      "note": 75,
      "start": 21.5731,
      "duration": 0.0077,
      "velocity": 125,
      "chip": "ym2612"
    },
    {
      "channel": 3,
      "note": 93,
      "start": 21.5777,
      "duration": 0.0065,
      "velocity": 119,
      "chip": "ym2612"
    },
    {
      "channel": 0,
      "note": 49,
      "start": 21.5872,
      "duration": 0.0445,
      "velocity": 122,
      "chip": "ym2612"
    },
    {
      "channel": 0,
      "note": 61,
      "start": 21.632,
      "duration": 0.1164,
      "velocity": 122,
      "chip": "ym2612"
    },
    {
      "channel": 2,
      "note": 86,
      "start": 21.6325,
      "duration": 0.1164,
      "velocity": 125,
      "chip": "ym2612"
    },
    {
      "channel": 4,
      "note": 75,
      "start": 21.6328,
      "duration": 0.1163,
      "velocity": 125,
      "chip": "ym2612"
    },
    {
      "channel": 3,
      "note": 93,
      "start": 21.6991,
      "duration": 0.0535,
      "velocity": 119,
      "chip": "ym2612"
    },
    {
      "channel": 0,
      "note": 49,
      "start": 21.7487,
      "duration": 0.0446,
      "velocity": 122,
      "chip": "ym2612"
    },
    {
      "channel": 2,
      "note": 86,
      "start": 21.7939,
      "duration": 0.1169,
      "velocity": 125,
      "chip": "ym2612"
    },
    {
      "channel": 4,
      "note": 75,
      "start": 21.7943,
      "duration": 0.1169,
      "velocity": 125,
      "chip": "ym2612"
    },
    {
      "channel": 3,
      "note": 93,
      "start": 21.8606,
      "duration": 0.055,
      "velocity": 119,
      "chip": "ym2612"
    },
    {
      "channel": 0,
      "note": 49,
      "start": 21.9105,
      "duration": 0.0454,
      "velocity": 122,
      "chip": "ym2612"
    },
    {
      "channel": 1,
      "note": 80,
      "start": 21.9108,
      "duration": 0.4856,
      "velocity": 109,
      "chip": "ym2612"
    },
    {
      "channel": 2,
      "note": 87,
      "start": 21.911,
      "duration": 0.0452,
      "velocity": 125,
      "chip": "ym2612"
    },
    {
      "channel": 4,
      "note": 76,
      "start": 21.9113,
      "duration": 0.0452,
      "velocity": 125,
      "chip": "ym2612"
    },
    {
      "channel": 3,
      "note": 94,
      "start": 21.9158,
      "duration": 0.107,
      "velocity": 119,
      "chip": "ym2612"
    },
    {
      "channel": 0,
      "note": 49,
      "start": 22.0729,
      "duration": 0.0446,
      "velocity": 122,
      "chip": "ym2612"
    },
    {
      "channel": 0,
      "note": 61,
      "start": 22.1178,
      "duration": 0.1164,
      "velocity": 122,
      "chip": "ym2612"
    },
    {
      "channel": 2,
      "note": 87,
      "start": 22.1183,
      "duration": 0.1164,
      "velocity": 125,
      "chip": "ym2612"
    },
    {
      "channel": 4,
      "note": 76,
      "start": 22.1186,
      "duration": 0.1163,
      "velocity": 125,
      "chip": "ym2612"
    },
    {
      "channel": 3,
      "note": 94,
      "start": 22.1849,
      "duration": 0.0535,
      "velocity": 119,
      "chip": "ym2612"
    },
    {
      "channel": 0,
      "note": 49,
      "start": 22.2346,
      "duration": 0.0447,
      "velocity": 122,
      "chip": "ym2612"
    },
    {
      "channel": 2,
      "note": 87,
      "start": 22.2798,
      "duration": 0.1169,
      "velocity": 125,
      "chip": "ym2612"
    },
    {
      "channel": 4,
      "note": 76,
      "start": 22.2801,
      "duration": 0.1169,
      "velocity": 125,
      "chip": "ym2612"
    },
    {
      "channel": 3,
      "note": 94,
      "start": 22.3465,
      "duration": 0.0552,
      "velocity": 119,
      "chip": "ym2612"
    },
    {
      "channel": 0,
      "note": 49,
      "start": 22.3964,
      "duration": 0.0086,
      "velocity": 122,
      "chip": "ym2612"
    },
    {
      "channel": 1,
      "note": 79,
      "start": 22.3967,
      "duration": 0.0143,
      "velocity": 109,
      "chip": "ym2612"
    },
    {
      "channel": 2,
      "note": 86,
      "start": 22.3968,
      "duration": 0.0084,
      "velocity": 125,
      "chip": "ym2612"
    },
    {
      "channel": 4,
      "note": 75,
      "start": 22.3972,
      "duration": 0.0083,
      "velocity": 125,
      "chip": "ym2612"
    },
    {
      "channel": 3,
      "note": 93,
      "start": 22.4018,
      "duration": 0.0067,
      "velocity": 119,
      "chip": "ym2612"
    },
    {
      "channel": 0,
      "note": 49,
      "start": 22.4109,
      "duration": 0.0074,
      "velocity": 122,
      "chip": "ym2612"
    },
    {
      "channel": 1,
      "note": 80,
      "start": 22.4111,
      "duration": 0.0143,
      "velocity": 109,
      "chip": "ym2612"
    },
    {
      "channel": 2,
      "note": 87,
      "start": 22.4113,
      "duration": 0.0074,
      "velocity": 125,
      "chip": "ym2612"
    },
    {
      "channel": 4,
      "note": 76,
      "start": 22.4116,
      "duration": 0.0072,
      "velocity": 125,
      "chip": "ym2612"
    },
    {
      "channel": 3,
      "note": 94,
      "start": 22.4154,
      "duration": 0.007,
      "velocity": 119,
      "chip": "ym2612"
    },
    {
      "channel": 0,
      "note": 51,
      "start": 22.4185,
      "duration": 0.0066,
      "velocity": 122,
      "chip": "ym2612"
    },
    {
      "channel": 0,
      "note": 49,
      "start": 22.4254,
      "duration": 0.0077,
      "velocity": 122,
      "chip": "ym2612"
    },
    {
      "channel": 1,
      "note": 81,
      "start": 22.4256,
      "duration": 0.0151,
      "velocity": 109,
      "chip": "ym2612"
    },
    {
      "channel": 2,
      "note": 90,
      "start": 22.4258,
      "duration": 0.0078,
      "velocity": 125,
      "chip": "ym2612"
    },
    {
      "channel": 4,
      "note": 79,
      "start": 22.4261,
      "duration": 0.0077,
      "velocity": 125,
      "chip": "ym2612"
    },
    {
      "channel": 3,
      "note": 97,
      "start": 22.4302,
      "duration": 0.0074,
      "velocity": 119,
      "chip": "ym2612"
    },
    {
      "channel": 0,
      "note": 51,
      "start": 22.4334,
      "duration": 0.007,
      "velocity": 122,
      "chip": "ym2612"
    },
    {
      "channel": 0,
      "note": 52,
      "start": 22.4407,
      "duration": 0.045,
      "velocity": 122,
      "chip": "ym2612"
    },
    {
      "channel": 1,
      "note": 82,
      "start": 22.441,
      "duration": 0.4852,
      "velocity": 109,
      "chip": "ym2612"
    },
    {
      "channel": 2,
      "note": 91,
      "start": 22.4412,
      "duration": 0.0448,
      "velocity": 125,
      "chip": "ym2612"
    },
    {
      "channel": 4,
      "note": 82,
      "start": 22.4414,
      "duration": 0.0449,
      "velocity": 125,
      "chip": "ym2612"
    },
    {
      "channel": 3,
      "note": 98,
      "start": 22.4454,
      "duration": 0.1072,
      "velocity": 119,
      "chip": "ym2612"
    },
    {
      "channel": 0,
      "note": 52,
      "start": 22.6027,
      "duration": 0.0446,
      "velocity": 122,
      "chip": "ym2612"
    },
    {
      "channel": 0,
      "note": 64,
      "start": 22.6477,
      "duration": 0.1164,
      "velocity": 122,
      "chip": "ym2612"
    },
    {
      "channel": 2,
      "note": 91,
      "start": 22.6481,
      "duration": 0.1164,
      "velocity": 125,
      "chip": "ym2612"
    },
    {
      "channel": 4,
      "note": 82,
      "start": 22.6484,
      "duration": 0.1163,
      "velocity": 125,
      "chip": "ym2612"
    },
    {
      "channel": 3,
      "note": 98,
      "start": 22.7147,
      "duration": 0.0535,
      "velocity": 119,
      "chip": "ym2612"
    },
    {
      "channel": 0,
      "note": 52,
      "start": 22.7644,
      "duration": 0.0446,
      "velocity": 122,
      "chip": "ym2612"
    },
    {
      "channel": 2,
      "note": 91,
      "start": 22.8096,
      "duration": 0.1168,
      "velocity": 125,
      "chip": "ym2612"
    },
    {
      "channel": 4,
      "note": 82,
      "start": 22.8099,
      "duration": 0.1169,
      "velocity": 125,
      "chip": "ym2612"
    },
    {
      "channel": 3,
      "note": 98,
      "start": 22.8763,
      "duration": 0.055,
      "velocity": 119,
      "chip": "ym2612"
    },
    {
      "channel": 0,
      "note": 52,
      "start": 22.9261,
      "duration": 0.0081,
      "velocity": 122,
      "chip": "ym2612"
    },
    {
      "channel": 1,
      "note": 81,
      "start": 22.9264,
      "duration": 0.3379,
      "velocity": 109,
      "chip": "ym2612"
    },
    {
      "channel": 2,
      "note": 90,
      "start": 22.9266,
      "duration": 0.0078,
      "velocity": 125,
      "chip": "ym2612"
    },
    {
      "channel": 4,
      "note": 81,
      "start": 22.9269,
      "duration": 0.0077,
      "velocity": 125,
      "chip": "ym2612"
    },
    {
      "channel": 3,
      "note": 97,
      "start": 22.9315,
      "duration": 0.0065,
      "velocity": 119,
      "chip": "ym2612"
    },
    {
      "channel": 0,
      "note": 52,
      "start": 22.9409,
      "duration": 0.0444,
      "velocity": 122,
      "chip": "ym2612"
    },
    {
      "channel": 0,
      "note": 64,
      "start": 22.9857,
      "duration": 0.1164,
      "velocity": 122,
      "chip": "ym2612"
    },
    {
      "channel": 2,
      "note": 90,
      "start": 22.9861,
      "duration": 0.1164,
      "velocity": 125,
      "chip": "ym2612"
    },
    {
      "channel": 4,
      "note": 81,
      "start": 22.9865,
      "duration": 0.1163,
      "velocity": 125,
      "chip": "ym2612"
    },
    {
      "channel": 3,
      "note": 97,
      "start": 23.0527,
      "duration": 0.0535,
      "velocity": 119,
      "chip": "ym2612"
    },
    {
      "channel": 0,
      "note": 52,
      "start": 23.1024,
      "duration": 0.0446,
      "velocity": 122,
      "chip": "ym2612"
    },
    {
      "channel": 2,
      "note": 90,
      "start": 23.1476,
      "duration": 0.1169,
      "velocity": 125,
      "chip": "ym2612"
    },
    {
      "channel": 4,
      "note": 81,
      "start": 23.1479,
      "duration": 0.1169,
      "velocity": 125,
      "chip": "ym2612"
    },
    {
      "channel": 3,
      "note": 97,
      "start": 23.2143,
      "duration": 0.0553,
      "velocity": 119,
      "chip": "ym2612"
    },
    {
      "channel": 0,
      "note": 52,
      "start": 23.2642,
      "duration": 0.0455,
      "velocity": 122,
      "chip": "ym2612"
    },
    {
      "channel": 1,
      "note": 82,
      "start": 23.2645,
      "duration": 0.4857,
      "velocity": 109,
      "chip": "ym2612"
    },
    {
      "channel": 2,
      "note": 91,
      "start": 23.2647,
      "duration": 0.0453,
      "velocity": 125,
      "chip": "ym2612"
    },
    {
      "channel": 4,
      "note": 82,
      "start": 23.265,
      "duration": 0.0454,
      "velocity": 125,
      "chip": "ym2612"
    },
    {
      "channel": 3,
      "note": 98,
      "start": 23.2698,
      "duration": 0.1068,
      "velocity": 119,
      "chip": "ym2612"
    },
    {
      "channel": 0,
      "note": 52,
      "start": 23.4267,
      "duration": 0.0446,
      "velocity": 122,
      "chip": "ym2612"
    },
    {
      "channel": 0,
      "note": 64,
      "start": 23.4717,
      "duration": 0.1164,
      "velocity": 122,
      "chip": "ym2612"
    },
    {
      "channel": 2,
      "note": 91,
      "start": 23.4721,
      "duration": 0.1164,
      "velocity": 125,
      "chip": "ym2612"
    },
    {
      "channel": 4,
      "note": 82,
      "start": 23.4724,
      "duration": 0.1163,
      "velocity": 125,
      "chip": "ym2612"
    },
    {
      "channel": 3,
      "note": 98,
      "start": 23.5387,
      "duration": 0.0535,
      "velocity": 119,
      "chip": "ym2612"
    },
    {
      "channel": 0,
      "note": 52,
      "start": 23.5884,
      "duration": 0.0446,
      "velocity": 122,
      "chip": "ym2612"
    },
    {
      "channel": 2,
      "note": 91,
      "start": 23.6336,
      "duration": 0.1169,
      "velocity": 125,
      "chip": "ym2612"
    },
    {
      "channel": 4,
      "note": 82,
      "start": 23.6339,
      "duration": 0.1169,
      "velocity": 125,
      "chip": "ym2612"
    },
    {
      "channel": 3,
      "note": 98,
      "start": 23.7002,
      "duration": 0.0549,
      "velocity": 119,
      "chip": "ym2612"
    },
    {
      "channel": 0,
      "note": 52,
      "start": 23.7501,
      "duration": 0.008,
      "velocity": 122,
      "chip": "ym2612"
    },
    {
      "channel": 1,
      "note": 81,
      "start": 23.7504,
      "duration": 0.0145,
      "velocity": 109,
      "chip": "ym2612"
    },
    {
      "channel": 2,
      "note": 90,
      "start": 23.7506,
      "duration": 0.0077,
      "velocity": 125,
      "chip": "ym2612"
    },
    {
      "channel": 4,
      "note": 81,
      "start": 23.751,
      "duration": 0.0075,
      "velocity": 125,
      "chip": "ym2612"
    },
    {
      "channel": 3,
      "note": 97,
      "start": 23.7554,
      "duration": 0.0065,
      "velocity": 119,
      "chip": "ym2612"
    },
    {
      "channel": 0,
      "note": 52,
      "start": 23.7649,
      "duration": 0.0449,
      "velocity": 122,
      "chip": "ym2612"
    },
    {
      "channel": 1,
      "note": 82,
      "start": 23.7651,
      "duration": 0.0732,
      "velocity": 109,
      "chip": "ym2612"
    },
    {
      "channel": 2,
      "note": 91,
      "start": 23.7653,
      "duration": 0.045,
      "velocity": 125,
      "chip": "ym2612"
    },
    {
      "channel": 4,
      "note": 82,
      "start": 23.7656,
      "duration": 0.0449,
      "velocity": 125,
      "chip": "ym2612"
    },
    {
      "channel": 3,
      "note": 98,
      "start": 23.7694,
      "duration": 0.0456,
      "velocity": 119,
      "chip": "ym2612"
    },
    {
      "channel": 0,
      "note": 53,
      "start": 23.8101,
      "duration": 0.0277,
      "velocity": 122,
      "chip": "ym2612"
    },
    {
      "channel": 0,
      "note": 54,
      "start": 23.8381,
      "duration": 0.0194,
      "velocity": 122,
      "chip": "ym2612"
    },
    {
      "channel": 1,
      "note": 91,
      "start": 23.8385,
      "duration": 0.0304,
      "velocity": 76,
      "chip": "ym2612"
    },
    {
      "channel": 2,
      "note": 94,
      "start": 23.8388,
      "duration": 0.0192,
      "velocity": 125,
      "chip": "ym2612"
    },
    {
      "channel": 4,
      "note": 84,
      "start": 23.839,
      "duration": 0.0192,
      "velocity": 125,
      "chip": "ym2612"
    },
    {
      "channel": 3,
      "note": 101,
      "start": 23.8441,
      "duration": 0.0189,
      "velocity": 119,
      "chip": "ym2612"
    },
    {
      "channel": 0,
      "note": 55,
      "start": 23.8578,
      "duration": 0.0098,
      "velocity": 86,
      "chip": "ym2612"
    },
    {
      "channel": 0,
      "note": 56,
      "start": 23.868,
      "duration": 0.1612,
      "velocity": 86,
      "chip": "ym2612"
    },
    {
      "channel": 1,
      "note": 95,
      "start": 23.8692,
      "duration": 0.0436,
      "velocity": 76,
      "chip": "ym2612"
    },
    {
      "channel": 2,
      "note": 95,
      "start": 23.8702,
      "duration": 0.1597,
      "velocity": 125,
      "chip": "ym2612"
    },
    {
      "channel": 4,
      "note": 85,
      "start": 23.8705,
      "duration": 0.1598,
      "velocity": 125,
      "chip": "ym2612"
    },
    {
      "channel": 3,
      "note": 90,
      "start": 23.8746,
      "duration": 0.1603,
      "velocity": 119,
      "chip": "ym2612"
    },
    {
      "channel": 1,
      "note": 96,
      "start": 23.9131,
      "duration": 0.1165,
      "velocity": 76,
      "chip": "ym2612"
    },
    {
      "channel": 0,
      "note": 56,
      "start": 24.0295,
      "duration": 0.1623,
      "velocity": 86,
      "chip": "ym2612"
    },
    {
      "channel": 1,
      "note": 95,
      "start": 24.0299,
      "duration": 0.0454,
      "velocity": 76,
      "chip": "ym2612"
    },
    {
      "channel": 2,
      "note": 95,
      "start": 24.0301,
      "duration": 0.1624,
      "velocity": 125,
      "chip": "ym2612"
    },
    {
      "channel": 4,
      "note": 85,
      "start": 24.0303,
      "duration": 0.1625,
      "velocity": 125,
      "chip": "ym2612"
    },
    {
      "channel": 3,
      "note": 90,
      "start": 24.0351,
      "duration": 0.1624,
      "velocity": 119,
      "chip": "ym2612"
    },
    {
      "channel": 1,
      "note": 96,
      "start": 24.0756,
      "duration": 0.1165,
      "velocity": 76,
      "chip": "ym2612"
    },
    {
      "channel": 0,
      "note": 57,
      "start": 24.1921,
      "duration": 0.1623,
      "velocity": 86,
      "chip": "ym2612"
    },
    {
      "channel": 1,
      "note": 95,
      "start": 24.1924,
      "duration": 0.0454,
      "velocity": 76,
      "chip": "ym2612"
    },
    {
      "channel": 2,
      "note": 96,
      "start": 24.1926,
      "duration": 0.1624,
      "velocity": 125,
      "chip": "ym2612"
    },
    {
      "channel": 4,
      "note": 86,
      "start": 24.1929,
      "duration": 0.1624,
      "velocity": 125,
      "chip": "ym2612"
    },
    {
      "channel": 3,
      "note": 91,
      "start": 24.1977,
      "duration": 0.1623,
      "velocity": 119,
      "chip": "ym2612"
    },
    {
      "channel": 1,
      "note": 96,
      "start": 24.2382,
      "duration": 0.1165,
      "velocity": 76,
      "chip": "ym2612"
    },
    {
      "channel": 0,
      "note": 56,
      "start": 24.3547,
      "duration": 0.0169,
      "velocity": 86,
      "chip": "ym2612"
    },
    {
      "channel": 1,
      "note": 95,
      "start": 24.355,
      "duration": 0.0081,
      "velocity": 76,
      "chip": "ym2612"
    },
    {
      "channel": 2,
      "note": 95,
      "start": 24.3552,
      "duration": 0.017,
      "velocity": 125,
      "chip": "ym2612"
    },
    {
      "channel": 4,
      "note": 85,
      "start": 24.3555,
      "duration": 0.0171,
      "velocity": 125,
      "chip": "ym2612"
    },
    {
      "channel": 3,
      "note": 90,
      "start": 24.3602,
      "duration": 0.0171,
      "velocity": 119,
      "chip": "ym2612"
    },
    {
      "channel": 1,
      "note": 96,
      "start": 24.3633,
      "duration": 0.0087,
      "velocity": 76,
      "chip": "ym2612"
    },
    {
      "channel": 0,
      "note": 56,
      "start": 24.3719,
      "duration": 0.1622,
      "velocity": 86,
      "chip": "ym2612"
    },
    {
      "channel": 1,
      "note": 95,
      "start": 24.3722,
      "duration": 0.0454,
      "velocity": 76,
      "chip": "ym2612"
    },
    {
      "channel": 2,
      "note": 95,
      "start": 24.3724,
      "duration": 0.1623,
      "velocity": 125,
      "chip": "ym2612"
    },
    {
      "channel": 4,
      "note": 85,
      "start": 24.3727,
      "duration": 0.1623,
      "velocity": 125,
      "chip": "ym2612"
    },
    {
      "channel": 3,
      "note": 90,
      "start": 24.3775,
      "duration": 0.1623,
      "velocity": 119,
      "chip": "ym2612"
    },
    {
      "channel": 1,
      "note": 96,
      "start": 24.4179,
      "duration": 0.1165,
      "velocity": 76,
      "chip": "ym2612"
    },
    {
      "channel": 0,
      "note": 57,
      "start": 24.5344,
      "duration": 0.1623,
      "velocity": 86,
      "chip": "ym2612"
    },
    {
      "channel": 1,
      "note": 95,
      "start": 24.5347,
      "duration": 0.0454,
      "velocity": 76,
      "chip": "ym2612"
    },
    {
      "channel": 2,
      "note": 98,
      "start": 24.5349,
      "duration": 0.1624,
      "velocity": 125,
      "chip": "ym2612"
    },
    {
      "channel": 4,
      "note": 88,
      "start": 24.5351,
      "duration": 0.1625,
      "velocity": 125,
      "chip": "ym2612"
    },
    {
      "channel": 3,
      "note": 93,
      "start": 24.5399,
      "duration": 0.1623,
      "velocity": 119,
      "chip": "ym2612"
    },
    {
      "channel": 1,
      "note": 96,
      "start": 24.5805,
      "duration": 0.1165,
      "velocity": 76,
      "chip": "ym2612"
    },
    {
      "channel": 0,
      "note": 56,
      "start": 24.6969,
      "duration": 0.0541,
      "velocity": 86,
      "chip": "ym2612"
    },
    {
      "channel": 1,
      "note": 95,
      "start": 24.6973,
      "duration": 0.0084,
      "velocity": 76,
      "chip": "ym2612"
    },
    {
      "channel": 2,
      "note": 95,
      "start": 24.6975,
      "duration": 0.0543,
      "velocity": 125,
      "chip": "ym2612"
    },
    {
      "channel": 4,
      "note": 85,
      "start": 24.6977,
      "duration": 0.0543,
      "velocity": 125,
      "chip": "ym2612"
    },
    {
      "channel": 3,
      "note": 90,
      "start": 24.7024,
      "duration": 0.0543,
      "velocity": 119,
      "chip": "ym2612"
    },
    {
      "channel": 1,
      "note": 96,
      "start": 24.7059,
      "duration": 0.0455,
      "velocity": 76,
      "chip": "ym2612"
    },
    {
      "channel": 0,
      "note": 56,
      "start": 24.7513,
      "duration": 0.1622,
      "velocity": 86,
      "chip": "ym2612"
    },
    {
      "channel": 1,
      "note": 95,
      "start": 24.7517,
      "duration": 0.0454,
      "velocity": 76,
      "chip": "ym2612"
    },
    {
      "channel": 2,
      "note": 95,
      "start": 24.7519,
      "duration": 0.1623,
      "velocity": 125,
      "chip": "ym2612"
    },
    {
      "channel": 4,
      "note": 85,
      "start": 24.7522,
      "duration": 0.1624,
      "velocity": 125,
      "chip": "ym2612"
    },
    {
      "channel": 3,
      "note": 90,
      "start": 24.7568,
      "duration": 0.1624,
      "velocity": 119,
      "chip": "ym2612"
    },
    {
      "channel": 1,
      "note": 96,
      "start": 24.7974,
      "duration": 0.1165,
      "velocity": 76,
      "chip": "ym2612"
    },
    {
      "channel": 0,
      "note": 57,
      "start": 24.9139,
      "duration": 0.017,
      "velocity": 86,
      "chip": "ym2612"
    },
    {
      "channel": 1,
      "note": 95,
      "start": 24.9142,
      "duration": 0.0082,
      "velocity": 76,
      "chip": "ym2612"
    },
    {
      "channel": 2,
      "note": 96,
      "start": 24.9144,
      "duration": 0.0169,
      "velocity": 125,
      "chip": "ym2612"
    },
    {
      "channel": 4,
      "note": 86,
      "start": 24.9147,
      "duration": 0.0168,
      "velocity": 125,
      "chip": "ym2612"
    },
    {
      "channel": 3,
      "note": 91,
      "start": 24.9195,
      "duration": 0.0153,
      "velocity": 119,
      "chip": "ym2612"
    },
    {
      "channel": 1,
      "note": 96,
      "start": 24.9226,
      "duration": 0.0084,
      "velocity": 76,
      "chip": "ym2612"
    },
    {
      "channel": 1,
      "note": 95,
      "start": 24.9313,
      "duration": 0.0053,
      "velocity": 76,
      "chip": "ym2612"
    },
    {
      "channel": 1,
      "note": 96,
      "start": 24.9367,
      "duration": 0.0052,
      "velocity": 76,
      "chip": "ym2612"
    },
    {
      "channel": 1,
      "note": 97,
      "start": 24.9422,
      "duration": 0.0057,
      "velocity": 76,
      "chip": "ym2612"
    },
    {
      "channel": 1,
      "note": 98,
      "start": 24.9482,
      "duration": 0.005,
      "velocity": 76,
      "chip": "ym2612"
    },
    {
      "channel": 1,
      "note": 99,
      "start": 24.9533,
      "duration": 0.0056,
      "velocity": 76,
      "chip": "ym2612"
    },
    {
      "channel": 1,
      "note": 100,
      "start": 24.9592,
      "duration": 0.0052,
      "velocity": 76,
      "chip": "ym2612"
    },
    {
      "channel": 0,
      "note": 56,
      "start": 24.9644,
      "duration": 0.1617,
      "velocity": 86,
      "chip": "ym2612"
    },
    {
      "channel": 1,
      "note": 95,
      "start": 24.9646,
      "duration": 0.0451,
      "velocity": 76,
      "chip": "ym2612"
    },
    {
      "channel": 2,
      "note": 95,
      "start": 24.9648,
      "duration": 0.162,
      "velocity": 125,
      "chip": "ym2612"
    },
    {
      "channel": 4,
      "note": 85,
      "start": 24.9651,
      "duration": 0.162,
      "velocity": 125,
      "chip": "ym2612"
    },
    {
      "channel": 3,
      "note": 90,
      "start": 24.9693,
      "duration": 0.1625,
      "velocity": 119,
      "chip": "ym2612"
    },
    {
      "channel": 1,
      "note": 96,
      "start": 25.01,
      "duration": 0.1165,
      "velocity": 76,
      "chip": "ym2612"
    },
    {
      "channel": 0,
      "note": 56,
      "start": 25.1264,
      "duration": 0.1623,
      "velocity": 86,
      "chip": "ym2612"
    },
    {
      "channel": 1,
      "note": 95,
      "start": 25.1267,
      "duration": 0.0456,
      "velocity": 76,
      "chip": "ym2612"
    },
    {
      "channel": 2,
      "note": 95,
      "start": 25.127,
      "duration": 0.1624,
      "velocity": 125,
      "chip": "ym2612"
    },
    {
      "channel": 4,
      "note": 85,
      "start": 25.1273,
      "duration": 0.1624,
      "velocity": 125,
      "chip": "ym2612"
    },
    {
      "channel": 3,
      "note": 90,
      "start": 25.132,
      "duration": 0.1623,
      "velocity": 119,
      "chip": "ym2612"
    },
    {
      "channel": 1,
      "note": 96,
      "start": 25.1726,
      "duration": 0.1165,
      "velocity": 76,
      "chip": "ym2612"
    },
    {
      "channel": 0,
      "note": 57,
      "start": 25.289,
      "duration": 0.1622,
      "velocity": 86,
      "chip": "ym2612"
    },
    {
      "channel": 1,
      "note": 95,
      "start": 25.2893,
      "duration": 0.0455,
      "velocity": 76,
      "chip": "ym2612"
    },
    {
      "channel": 2,
      "note": 96,
      "start": 25.2895,
      "duration": 0.1625,
      "velocity": 125,
      "chip": "ym2612"
    },
    {
      "channel": 4,
      "note": 86,
      "start": 25.2898,
      "duration": 0.1625,
      "velocity": 125,
      "chip": "ym2612"
    },
    {
      "channel": 3,
      "note": 91,
      "start": 25.2945,
      "duration": 0.1623,
      "velocity": 119,
      "chip": "ym2612"
    },
    {
      "channel": 1,
      "note": 96,
      "start": 25.3351,
      "duration": 0.1165,
      "velocity": 76,
      "chip": "ym2612"
    },
    {
      "channel": 0,
      "note": 56,
      "start": 25.4516,
      "duration": 0.017,
      "velocity": 86,
      "chip": "ym2612"
    },
    {
      "channel": 1,
      "note": 95,
      "start": 25.452,
      "duration": 0.0081,
      "velocity": 76,
      "chip": "ym2612"
    },
    {
      "channel": 2,
      "note": 95,
      "start": 25.4522,
      "duration": 0.0171,
      "velocity": 125,
      "chip": "ym2612"
    },
    {
      "channel": 4,
      "note": 85,
      "start": 25.4524,
      "duration": 0.0172,
      "velocity": 125,
      "chip": "ym2612"
    },
    {
      "channel": 3,
      "note": 90,
      "start": 25.4571,
      "duration": 0.0172,
      "velocity": 119,
      "chip": "ym2612"
    },
    {
      "channel": 1,
      "note": 96,
      "start": 25.4602,
      "duration": 0.0088,
      "velocity": 76,
      "chip": "ym2612"
    },
    {
      "channel": 0,
      "note": 56,
      "start": 25.4689,
      "duration": 0.1622,
      "velocity": 86,
      "chip": "ym2612"
    },
    {
      "channel": 1,
      "note": 95,
      "start": 25.4692,
      "duration": 0.0454,
      "velocity": 76,
      "chip": "ym2612"
    },
    {
      "channel": 2,
      "note": 95,
      "start": 25.4694,
      "duration": 0.1623,
      "velocity": 125,
      "chip": "ym2612"
    },
    {
      "channel": 4,
      "note": 85,
      "start": 25.4697,
      "duration": 0.1622,
      "velocity": 125,
      "chip": "ym2612"
    },
    {
      "channel": 3,
      "note": 90,
      "start": 25.4745,
      "duration": 0.1622,
      "velocity": 119,
      "chip": "ym2612"
    },
    {
      "channel": 1,
      "note": 96,
      "start": 25.5149,
      "duration": 0.1165,
      "velocity": 76,
      "chip": "ym2612"
    },
    {
      "channel": 0,
      "note": 57,
      "start": 25.6313,
      "duration": 0.0171,
      "velocity": 86,
      "chip": "ym2612"
    },
    {
      "channel": 1,
      "note": 95,
      "start": 25.6316,
      "duration": 0.0083,
      "velocity": 76,
      "chip": "ym2612"
    },
    {
      "channel": 2,
      "note": 98,
      "start": 25.6318,
      "duration": 0.0172,
      "velocity": 125,
      "chip": "ym2612"
    },
    {
      "channel": 4,
      "note": 88,
      "start": 25.6321,
      "duration": 0.0173,
      "velocity": 125,
      "chip": "ym2612"
    },
    {
      "channel": 3,
      "note": 93,
      "start": 25.6368,
      "duration": 0.0173,
      "velocity": 119,
      "chip": "ym2612"
    },
    {
      "channel": 1,
      "note": 96,
      "start": 25.6402,
      "duration": 0.0086,
      "velocity": 76,
      "chip": "ym2612"
    },
    {
      "channel": 0,
      "note": 56,
      "start": 25.6487,
      "duration": 0.1622,
      "velocity": 86,
      "chip": "ym2612"
    },
    {
      "channel": 1,
      "note": 107,
      "start": 25.649,
      "duration": 0.0454,
      "velocity": 76,
      "chip": "ym2612"
    },
    {
      "channel": 2,
      "note": 95,
      "start": 25.6492,
      "duration": 0.1623,
      "velocity": 125,
      "chip": "ym2612"
    },
    {
      "channel": 4,
      "note": 85,
      "start": 25.6496,
      "duration": 0.1622,
      "velocity": 125,
      "chip": "ym2612"
    },
    {
      "channel": 3,
      "note": 90,
      "start": 25.6543,
      "duration": 0.1622,
      "velocity": 119,
      "chip": "ym2612"
    },
    {
      "channel": 1,
      "note": 108,
      "start": 25.6947,
      "duration": 0.1165,
      "velocity": 76,
      "chip": "ym2612"
    },
    {
      "channel": 0,
      "note": 56,
      "start": 25.8111,
      "duration": 0.1623,
      "velocity": 86,
      "chip": "ym2612"
    },
    {
      "channel": 1,
      "note": 107,
      "start": 25.8114,
      "duration": 0.0456,
      "velocity": 76,
      "chip": "ym2612"
    },
    {
      "channel": 2,
      "note": 95,
      "start": 25.8117,
      "duration": 0.1624,
      "velocity": 125,
      "chip": "ym2612"
    },
    {
      "channel": 4,
      "note": 85,
      "start": 25.812,
      "duration": 0.1624,
      "velocity": 125,
      "chip": "ym2612"
    },
    {
      "channel": 3,
      "note": 90,
      "start": 25.8167,
      "duration": 0.1623,
      "velocity": 119,
      "chip": "ym2612"
    },
    {
      "channel": 1,
      "note": 108,
      "start": 25.8573,
      "duration": 0.1165,
      "velocity": 76,
      "chip": "ym2612"
    },
    {
      "channel": 0,
      "note": 57,
      "start": 25.9737,
      "duration": 0.1622,
      "velocity": 86,
      "chip": "ym2612"
    },
    {
      "channel": 1,
      "note": 107,
      "start": 25.974,
      "duration": 0.0455,
      "velocity": 76,
      "chip": "ym2612"
    },
    {
      "channel": 2,
      "note": 96,
      "start": 25.9742,
      "duration": 0.1623,
      "velocity": 125,
      "chip": "ym2612"
    },
    {
      "channel": 4,
      "note": 86,
      "start": 25.9745,
      "duration": 0.1621,
      "velocity": 125,
      "chip": "ym2612"
    },
    {
      "channel": 3,
      "note": 91,
      "start": 25.9792,
      "duration": 0.1607,
      "velocity": 119,
      "chip": "ym2612"
    },
    {
      "channel": 1,
      "note": 108,
      "start": 26.0198,
      "duration": 0.1163,
      "velocity": 76,
      "chip": "ym2612"
    },
    {
      "channel": 1,
      "note": 107,
      "start": 26.1364,
      "duration": 0.0054,
      "velocity": 76,
      "chip": "ym2612"
    },
    {
      "channel": 1,
      "note": 108,
      "start": 26.1422,
      "duration": 0.0055,
      "velocity": 76,
      "chip": "ym2612"
    },
    {
      "channel": 1,
      "note": 107,
      "start": 26.1479,
      "duration": 0.0054,
      "velocity": 76,
      "chip": "ym2612"
    },
    {
      "channel": 1,
      "note": 108,
      "start": 26.1534,
      "duration": 0.0049,
      "velocity": 76,
      "chip": "ym2612"
    },
    {
      "channel": 1,
      "note": 107,
      "start": 26.1586,
      "duration": 0.0053,
      "velocity": 76,
      "chip": "ym2612"
    },
    {
      "channel": 1,
      "note": 108,
      "start": 26.1641,
      "duration": 0.0049,
      "velocity": 76,
      "chip": "ym2612"
    },
    {
      "channel": 0,
      "note": 47,
      "start": 26.1844,
      "duration": 34.9536,
      "velocity": 120,
      "chip": "ym2612"
    },
    {
      "channel": 1,
      "note": 83,
      "start": 26.1855,
      "duration": 34.9525,
      "velocity": 125,
      "chip": "ym2612"
    },
    {
      "channel": 2,
      "note": 79,
      "start": 26.1865,
      "duration": 34.9515,
      "velocity": 79,
      "chip": "ym2612"
    }
  ]
}