{
  "track_name": "12 - Ending Theme",
  "duration_sec": 106.56,
  "sample_rate": 44100,
  "note_count": 1794,
  "unique_pitches": 46,
  "pitch_range": 67,
  "avg_note_duration": 0.1334,
  "reconstruction_stats": {
    "notes_reconstructed": 1794,
    "keyon_events": 1794,
    "keyoff_events": 1794,
    "orphan_keyons": 0,
    "unique_pitches": 46,
    "pitch_range": 67,
    "avg_duration_sec": 0.1334
  },
  "metadata": {
    "source": "K\\Kid Chameleon\\12 - Ending Theme.vgz"
  },
  "notes": [
    {
      "channel": 0,
      "note": 54,
      "start": 0.0227,
      "duration": 0.0992,
      "velocity": 127,
      "chip": "ym2612"
    },
    {
      "channel": 2,
      "note": 80,
      "start": 0.1747,
      "duration": 0.0472,
      "velocity": 96,
      "chip": "ym2612"
    },
    {
      "channel": 0,
      "note": 59,
      "start": 0.3256,
      "duration": 0.0961,
      "velocity": 127,
      "chip": "ym2612"
    },
    {
      "channel": 2,
      "note": 80,
      "start": 0.3279,
      "duration": 0.0444,
      "velocity": 96,
      "chip": "ym2612"
    },
    {
      "channel": 1,
      "note": 45,
      "start": 0.3302,
      "duration": 0.1083,
      "velocity": 119,
      "chip": "ym2612"
    },
    {
      "channel": 0,
      "note": 52,
      "start": 0.459,
      "duration": 0.1296,
      "velocity": 127,
      "chip": "ym2612"
    },
    {
      "channel": 0,
      "note": 64,
      "start": 0.609,
      "duration": 0.1295,
      "velocity": 127,
      "chip": "ym2612"
    },
    {
      "channel": 1,
      "note": 45,
      "start": 0.6117,
      "duration": 0.1935,
      "velocity": 119,
      "chip": "ym2612"
    },
    {
      "channel": 0,
      "note": 61,
      "start": 0.7592,
      "duration": 0.0793,
      "velocity": 127,
      "chip": "ym2612"
    },
    {
      "channel": 0,
      "note": 66,
      "start": 1.0588,
      "duration": 0.0631,
      "velocity": 127,
      "chip": "ym2612"
    },
    {
      "channel": 2,
      "note": 80,
      "start": 1.061,
      "duration": 0.0445,
      "velocity": 96,
      "chip": "ym2612"
    },
    {
      "channel": 2,
      "note": 80,
      "start": 1.2094,
      "duration": 0.0459,
      "velocity": 96,
      "chip": "ym2612"
    },
    {
      "channel": 0,
      "note": 64,
      "start": 1.359,
      "duration": 0.0795,
      "velocity": 127,
      "chip": "ym2612"
    },
    {
      "channel": 0,
      "note": 61,
      "start": 1.6425,
      "duration": 0.0793,
      "velocity": 127,
      "chip": "ym2612"
    },
    {
      "channel": 0,
      "note": 54,
      "start": 1.7925,
      "duration": 0.0459,
      "velocity": 127,
      "chip": "ym2612"
    },
    {
      "channel": 2,
      "note": 80,
      "start": 1.8631,
      "duration": 0.0185,
      "velocity": 96,
      "chip": "ym2612"
    },
    {
      "channel": 0,
      "note": 59,
      "start": 1.9696,
      "duration": 0.1127,
      "velocity": 127,
      "chip": "ym2612"
    },
    {
      "channel": 2,
      "note": 80,
      "start": 1.9718,
      "duration": 0.0444,
      "velocity": 96,
      "chip": "ym2612"
    },
    {
      "channel": 1,
      "note": 45,
      "start": 1.9741,
      "duration": 0.1249,
      "velocity": 119,
      "chip": "ym2612"
    },
    {
      "channel": 0,
      "note": 52,
      "start": 2.1199,
      "duration": 0.1291,
      "velocity": 127,
      "chip": "ym2612"
    },
    {
      "channel": 0,
      "note": 64,
      "start": 2.2705,
      "duration": 0.0953,
      "velocity": 127,
      "chip": "ym2612"
    },
    {
      "channel": 1,
      "note": 45,
      "start": 2.2732,
      "duration": 0.1758,
      "velocity": 119,
      "chip": "ym2612"
    },
    {
      "channel": 0,
      "note": 59,
      "start": 2.4201,
      "duration": 0.0788,
      "velocity": 127,
      "chip": "ym2612"
    },
    {
      "channel": 0,
      "note": 51,
      "start": 2.7033,
      "duration": 0.1291,
      "velocity": 127,
      "chip": "ym2612"
    },
    {
      "channel": 2,
      "note": 80,
      "start": 2.7055,
      "duration": 0.0606,
      "velocity": 96,
      "chip": "ym2612"
    },
    {
      "channel": 2,
      "note": 80,
      "start": 2.8535,
      "duration": 0.0456,
      "velocity": 96,
      "chip": "ym2612"
    },
    {
      "channel": 0,
      "note": 52,
      "start": 3.0033,
      "duration": 0.1457,
      "velocity": 127,
      "chip": "ym2612"
    },
    {
      "channel": 0,
      "note": 49,
      "start": 3.3035,
      "duration": 0.0955,
      "velocity": 127,
      "chip": "ym2612"
    },
    {
      "channel": 0,
      "note": 54,
      "start": 3.4535,
      "duration": 0.0359,
      "velocity": 127,
      "chip": "ym2612"
    },
    {
      "channel": 2,
      "note": 80,
      "start": 3.5134,
      "duration": 0.0177,
      "velocity": 96,
      "chip": "ym2612"
    },
    {
      "channel": 0,
      "note": 59,
      "start": 3.6095,
      "duration": 0.1289,
      "velocity": 127,
      "chip": "ym2612"
    },
    {
      "channel": 2,
      "note": 80,
      "start": 3.6117,
      "duration": 0.0439,
      "velocity": 96,
      "chip": "ym2612"
    },
    {
      "channel": 1,
      "note": 45,
      "start": 3.614,
      "duration": 0.1245,
      "velocity": 119,
      "chip": "ym2612"
    },
    {
      "channel": 0,
      "note": 52,
      "start": 3.7592,
      "duration": 0.1293,
      "velocity": 127,
      "chip": "ym2612"
    },
    {
      "channel": 0,
      "note": 64,
      "start": 3.9094,
      "duration": 0.1124,
      "velocity": 127,
      "chip": "ym2612"
    },
    {
      "channel": 1,
      "note": 45,
      "start": 3.9122,
      "duration": 0.1429,
      "velocity": 119,
      "chip": "ym2612"
    },
    {
      "channel": 0,
      "note": 61,
      "start": 4.0596,
      "duration": 0.0621,
      "velocity": 127,
      "chip": "ym2612"
    },
    {
      "channel": 2,
      "note": 80,
      "start": 4.062,
      "duration": 0.0602,
      "velocity": 96,
      "chip": "ym2612"
    },
    {
      "channel": 0,
      "note": 66,
      "start": 4.3593,
      "duration": 0.0625,
      "velocity": 127,
      "chip": "ym2612"
    },
    {
      "channel": 2,
      "note": 80,
      "start": 4.3621,
      "duration": 0.0268,
      "velocity": 96,
      "chip": "ym2612"
    },
    {
      "channel": 2,
      "note": 80,
      "start": 4.5098,
      "duration": 0.0456,
      "velocity": 96,
      "chip": "ym2612"
    },
    {
      "channel": 0,
      "note": 64,
      "start": 4.6427,
      "duration": 0.0958,
      "velocity": 127,
      "chip": "ym2612"
    },
    {
      "channel": 0,
      "note": 61,
      "start": 4.9429,
      "duration": 0.0455,
      "velocity": 127,
      "chip": "ym2612"
    },
    {
      "channel": 0,
      "note": 69,
      "start": 5.0927,
      "duration": 0.0507,
      "velocity": 127,
      "chip": "ym2612"
    },
    {
      "channel": 0,
      "note": 66,
      "start": 5.1614,
      "duration": 0.0671,
      "velocity": 127,
      "chip": "ym2612"
    },
    {
      "channel": 2,
      "note": 80,
      "start": 5.1634,
      "duration": 0.0168,
      "velocity": 96,
      "chip": "ym2612"
    },
    {
      "channel": 0,
      "note": 64,
      "start": 5.2664,
      "duration": 0.062,
      "velocity": 127,
      "chip": "ym2612"
    },
    {
      "channel": 2,
      "note": 80,
      "start": 5.2686,
      "duration": 0.0434,
      "velocity": 96,
      "chip": "ym2612"
    },
    {
      "channel": 1,
      "note": 45,
      "start": 5.2715,
      "duration": 0.0736,
      "velocity": 119,
      "chip": "ym2612"
    },
    {
      "channel": 0,
      "note": 66,
      "start": 5.416,
      "duration": 0.0957,
      "velocity": 127,
      "chip": "ym2612"
    },
    {
      "channel": 0,
      "note": 64,
      "start": 5.5492,
      "duration": 0.1125,
      "velocity": 127,
      "chip": "ym2612"
    },
    {
      "channel": 1,
      "note": 45,
      "start": 5.5529,
      "duration": 0.1254,
      "velocity": 119,
      "chip": "ym2612"
    },
    {
      "channel": 0,
      "note": 61,
      "start": 5.6993,
      "duration": 0.0624,
      "velocity": 127,
      "chip": "ym2612"
    },
    {
      "channel": 0,
      "note": 49,
      "start": 5.8493,
      "duration": 0.1291,
      "velocity": 127,
      "chip": "ym2612"
    },
    {
      "channel": 0,
      "note": 61,
      "start": 5.9991,
      "duration": 0.1293,
      "velocity": 127,
      "chip": "ym2612"
    },
    {
      "channel": 2,
      "note": 80,
      "start": 6.0015,
      "duration": 0.0271,
      "velocity": 96,
      "chip": "ym2612"
    },
    {
      "channel": 1,
      "note": 45,
      "start": 6.0038,
      "duration": 0.1079,
      "velocity": 119,
      "chip": "ym2612"
    },
    {
      "channel": 0,
      "note": 49,
      "start": 6.1492,
      "duration": 0.1293,
      "velocity": 127,
      "chip": "ym2612"
    },
    {
      "channel": 2,
      "note": 80,
      "start": 6.1515,
      "duration": 0.0439,
      "velocity": 96,
      "chip": "ym2612"
    },
    {
      "channel": 0,
      "note": 52,
      "start": 6.2991,
      "duration": 0.1293,
      "velocity": 127,
      "chip": "ym2612"
    },
    {
      "channel": 0,
      "note": 64,
      "start": 6.4494,
      "duration": 0.1457,
      "velocity": 127,
      "chip": "ym2612"
    },
    {
      "channel": 0,
      "note": 57,
      "start": 6.5994,
      "duration": 0.1123,
      "velocity": 127,
      "chip": "ym2612"
    },
    {
      "channel": 1,
      "note": 45,
      "start": 6.6021,
      "duration": 0.0096,
      "velocity": 119,
      "chip": "ym2612"
    },
    {
      "channel": 3,
      "note": 73,
      "start": 6.7332,
      "duration": 1.4917,
      "velocity": 67,
      "chip": "ym2612"
    },
    {
      "channel": 0,
      "note": 54,
      "start": 6.7355,
      "duration": 0.0278,
      "velocity": 127,
      "chip": "ym2612"
    },
    {
      "channel": 2,
      "note": 80,
      "start": 6.8024,
      "duration": 0.0255,
      "velocity": 96,
      "chip": "ym2612"
    },
    {
      "channel": 0,
      "note": 59,
      "start": 6.8671,
      "duration": 0.1099,
      "velocity": 127,
      "chip": "ym2612"
    },
    {
      "channel": 2,
      "note": 80,
      "start": 6.8693,
      "duration": 0.0413,
      "velocity": 96,
      "chip": "ym2612"
    },
    {
      "channel": 1,
      "note": 45,
      "start": 6.8716,
      "duration": 0.0887,
      "velocity": 119,
      "chip": "ym2612"
    },
    {
      "channel": 0,
      "note": 52,
      "start": 7.0145,
      "duration": 0.129,
      "velocity": 127,
      "chip": "ym2612"
    },
    {
      "channel": 0,
      "note": 64,
      "start": 7.1644,
      "duration": 0.1291,
      "velocity": 127,
      "chip": "ym2612"
    },
    {
      "channel": 2,
      "note": 80,
      "start": 7.1667,
      "duration": 0.0105,
      "velocity": 96,
      "chip": "ym2612"
    },
    {
      "channel": 1,
      "note": 45,
      "start": 7.169,
      "duration": 0.1079,
      "velocity": 119,
      "chip": "ym2612"
    },
    {
      "channel": 0,
      "note": 61,
      "start": 7.3146,
      "duration": 0.0623,
      "velocity": 127,
      "chip": "ym2612"
    },
    {
      "channel": 2,
      "note": 80,
      "start": 7.3169,
      "duration": 0.0604,
      "velocity": 96,
      "chip": "ym2612"
    },
    {
      "channel": 0,
      "note": 66,
      "start": 7.5247,
      "duration": 0.0329,
      "velocity": 127,
      "chip": "ym2612"
    },
    {
      "channel": 2,
      "note": 80,
      "start": 7.5265,
      "duration": 0.0242,
      "velocity": 96,
      "chip": "ym2612"
    },
    {
      "channel": 1,
      "note": 45,
      "start": 7.5285,
      "duration": 0.0293,
      "velocity": 119,
      "chip": "ym2612"
    },
    {
      "channel": 2,
      "note": 80,
      "start": 7.6157,
      "duration": 0.0623,
      "velocity": 96,
      "chip": "ym2612"
    },
    {
      "channel": 0,
      "note": 64,
      "start": 7.7654,
      "duration": 0.0957,
      "velocity": 127,
      "chip": "ym2612"
    },
    {
      "channel": 0,
      "note": 61,
      "start": 8.0661,
      "duration": 0.0617,
      "velocity": 127,
      "chip": "ym2612"
    },
    {
      "channel": 1,
      "note": 45,
      "start": 8.0686,
      "duration": 0.0593,
      "velocity": 119,
      "chip": "ym2612"
    },
    {
      "channel": 4,
      "note": 76,
      "start": 8.2157,
      "duration": 1.414,
      "velocity": 67,
      "chip": "ym2612"
    },
    {
      "channel": 0,
      "note": 54,
      "start": 8.218,
      "duration": 0.0357,
      "velocity": 127,
      "chip": "ym2612"
    },
    {
      "channel": 2,
      "note": 54,
      "start": 8.2843,
      "duration": 0.0201,
      "velocity": 79,
      "chip": "ym2612"
    },
    {
      "channel": 2,
      "note": 54,
      "start": 8.3484,
      "duration": 0.0611,
      "velocity": 79,
      "chip": "ym2612"
    },
    {
      "channel": 0,
      "note": 59,
      "start": 8.351,
      "duration": 0.0912,
      "velocity": 127,
      "chip": "ym2612"
    },
    {
      "channel": 1,
      "note": 45,
      "start": 8.3544,
      "duration": 0.0546,
      "velocity": 119,
      "chip": "ym2612"
    },
    {
      "channel": 2,
      "note": 57,
      "start": 8.4796,
      "duration": 0.0798,
      "velocity": 79,
      "chip": "ym2612"
    },
    {
      "channel": 0,
      "note": 52,
      "start": 8.482,
      "duration": 0.1268,
      "velocity": 127,
      "chip": "ym2612"
    },
    {
      "channel": 2,
      "note": 57,
      "start": 8.6298,
      "duration": 0.063,
      "velocity": 79,
      "chip": "ym2612"
    },
    {
      "channel": 0,
      "note": 64,
      "start": 8.6322,
      "duration": 0.1101,
      "velocity": 127,
      "chip": "ym2612"
    },
    {
      "channel": 1,
      "note": 45,
      "start": 8.6348,
      "duration": 0.1075,
      "velocity": 119,
      "chip": "ym2612"
    },
    {
      "channel": 2,
      "note": 59,
      "start": 8.7798,
      "duration": 0.0964,
      "velocity": 79,
      "chip": "ym2612"
    },
    {
      "channel": 0,
      "note": 61,
      "start": 8.7824,
      "duration": 0.0932,
      "velocity": 127,
      "chip": "ym2612"
    },
    {
      "channel": 2,
      "note": 59,
      "start": 8.9298,
      "duration": 0.0303,
      "velocity": 79,
      "chip": "ym2612"
    },
    {
      "channel": 2,
      "note": 61,
      "start": 8.9986,
      "duration": 0.0195,
      "velocity": 79,
      "chip": "ym2612"
    },
    {
      "channel": 0,
      "note": 51,
      "start": 9.0005,
      "duration": 0.0458,
      "velocity": 127,
      "chip": "ym2612"
    },
    {
      "channel": 1,
      "note": 45,
      "start": 9.0031,
      "duration": 0.0266,
      "velocity": 119,
      "chip": "ym2612"
    },
    {
      "channel": 2,
      "note": 61,
      "start": 9.1171,
      "duration": 0.0796,
      "velocity": 79,
      "chip": "ym2612"
    },
    {
      "channel": 2,
      "note": 64,
      "start": 9.2671,
      "duration": 0.1127,
      "velocity": 79,
      "chip": "ym2612"
    },
    {
      "channel": 0,
      "note": 52,
      "start": 9.2694,
      "duration": 0.0768,
      "velocity": 127,
      "chip": "ym2612"
    },
    {
      "channel": 1,
      "note": 45,
      "start": 9.272,
      "duration": 0.0744,
      "velocity": 119,
      "chip": "ym2612"
    },
    {
      "channel": 2,
      "note": 66,
      "start": 9.4004,
      "duration": 0.0964,
      "velocity": 79,
      "chip": "ym2612"
    },
    {
      "channel": 2,
      "note": 63,
      "start": 9.5512,
      "duration": 0.1122,
      "velocity": 79,
      "chip": "ym2612"
    },
    {
      "channel": 0,
      "note": 49,
      "start": 9.5536,
      "duration": 0.0927,
      "velocity": 127,
      "chip": "ym2612"
    },
    {
      "channel": 3,
      "note": 78,
      "start": 9.7006,
      "duration": 1.5089,
      "velocity": 67,
      "chip": "ym2612"
    },
    {
      "channel": 0,
      "note": 54,
      "start": 9.7027,
      "duration": 0.0421,
      "velocity": 127,
      "chip": "ym2612"
    },
    {
      "channel": 1,
      "note": 45,
      "start": 9.7083,
      "duration": 0.0366,
      "velocity": 119,
      "chip": "ym2612"
    },
    {
      "channel": 4,
      "note": 78,
      "start": 9.7689,
      "duration": 0.0192,
      "velocity": 119,
      "chip": "ym2612"
    },
    {
      "channel": 2,
      "note": 80,
      "start": 9.772,
      "duration": 0.0099,
      "velocity": 96,
      "chip": "ym2612"
    },
    {
      "channel": 0,
      "note": 59,
      "start": 9.8337,
      "duration": 0.1265,
      "velocity": 127,
      "chip": "ym2612"
    },
    {
      "channel": 2,
      "note": 80,
      "start": 9.836,
      "duration": 0.0247,
      "velocity": 96,
      "chip": "ym2612"
    },
    {
      "channel": 4,
      "note": 76,
      "start": 9.981,
      "duration": 0.0461,
      "velocity": 119,
      "chip": "ym2612"
    },
    {
      "channel": 0,
      "note": 52,
      "start": 9.983,
      "duration": 0.1272,
      "velocity": 127,
      "chip": "ym2612"
    },
    {
      "channel": 2,
      "note": 81,
      "start": 9.9853,
      "duration": 0.0253,
      "velocity": 27,
      "chip": "ym2612"
    },
    {
      "channel": 0,
      "note": 64,
      "start": 10.1312,
      "duration": 0.0956,
      "velocity": 127,
      "chip": "ym2612"
    },
    {
      "channel": 2,
      "note": 81,
      "start": 10.1332,
      "duration": 0.0275,
      "velocity": 27,
      "chip": "ym2612"
    },
    {
      "channel": 4,
      "note": 73,
      "start": 10.281,
      "duration": 0.0461,
      "velocity": 119,
      "chip": "ym2612"
    },
    {
      "channel": 0,
      "note": 61,
      "start": 10.2834,
      "duration": 0.0602,
      "velocity": 127,
      "chip": "ym2612"
    },
    {
      "channel": 2,
      "note": 81,
      "start": 10.2858,
      "duration": 0.0416,
      "velocity": 27,
      "chip": "ym2612"
    },
    {
      "channel": 1,
      "note": 45,
      "start": 10.4186,
      "duration": 0.0689,
      "velocity": 119,
      "chip": "ym2612"
    },
    {
      "channel": 4,
      "note": 71,
      "start": 10.4809,
      "duration": 0.0338,
      "velocity": 119,
      "chip": "ym2612"
    },
    {
      "channel": 0,
      "note": 66,
      "start": 10.4828,
      "duration": 0.0317,
      "velocity": 127,
      "chip": "ym2612"
    },
    {
      "channel": 2,
      "note": 80,
      "start": 10.4847,
      "duration": 0.0093,
      "velocity": 96,
      "chip": "ym2612"
    },
    {
      "channel": 4,
      "note": 73,
      "start": 10.5803,
      "duration": 0.046,
      "velocity": 119,
      "chip": "ym2612"
    },
    {
      "channel": 2,
      "note": 80,
      "start": 10.5829,
      "duration": 0.0438,
      "velocity": 96,
      "chip": "ym2612"
    },
    {
      "channel": 4,
      "note": 76,
      "start": 10.7304,
      "duration": 0.0625,
      "velocity": 119,
      "chip": "ym2612"
    },
    {
      "channel": 0,
      "note": 64,
      "start": 10.7331,
      "duration": 0.0931,
      "velocity": 127,
      "chip": "ym2612"
    },
    {
      "channel": 4,
      "note": 73,
      "start": 10.8803,
      "duration": 0.0459,
      "velocity": 119,
      "chip": "ym2612"
    },
    {
      "channel": 4,
      "note": 76,
      "start": 11.0304,
      "duration": 0.0462,
      "velocity": 119,
      "chip": "ym2612"
    },
    {
      "channel": 0,
      "note": 61,
      "start": 11.0327,
      "duration": 0.0434,
      "velocity": 127,
      "chip": "ym2612"
    },
    {
      "channel": 1,
      "note": 74,
      "start": 11.1807,
      "duration": 1.5851,
      "velocity": 67,
      "chip": "ym2612"
    },
    {
      "channel": 5,
      "note": 61,
      "start": 11.1837,
      "duration": 0.1094,
      "velocity": 81,
      "chip": "ym2612"
    },
    {
      "channel": 0,
      "note": 69,
      "start": 11.1857,
      "duration": 0.0904,
      "velocity": 127,
      "chip": "ym2612"
    },
    {
      "channel": 2,
      "note": 45,
      "start": 11.189,
      "duration": 0.0876,
      "velocity": 119,
      "chip": "ym2612"
    },
    {
      "channel": 4,
      "note": 78,
      "start": 11.3136,
      "duration": 0.0628,
      "velocity": 119,
      "chip": "ym2612"
    },
    {
      "channel": 5,
      "note": 62,
      "start": 11.3157,
      "duration": 0.1275,
      "velocity": 81,
      "chip": "ym2612"
    },
    {
      "channel": 0,
      "note": 66,
      "start": 11.3176,
      "duration": 0.1085,
      "velocity": 127,
      "chip": "ym2612"
    },
    {
      "channel": 2,
      "note": 80,
      "start": 11.3199,
      "duration": 0.0569,
      "velocity": 96,
      "chip": "ym2612"
    },
    {
      "channel": 5,
      "note": 66,
      "start": 11.4639,
      "duration": 0.1458,
      "velocity": 81,
      "chip": "ym2612"
    },
    {
      "channel": 0,
      "note": 64,
      "start": 11.4659,
      "duration": 0.0769,
      "velocity": 127,
      "chip": "ym2612"
    },
    {
      "channel": 2,
      "note": 80,
      "start": 11.4682,
      "duration": 0.0584,
      "velocity": 96,
      "chip": "ym2612"
    },
    {
      "channel": 4,
      "note": 76,
      "start": 11.6138,
      "duration": 0.0795,
      "velocity": 119,
      "chip": "ym2612"
    },
    {
      "channel": 5,
      "note": 61,
      "start": 11.6161,
      "duration": 0.1272,
      "velocity": 81,
      "chip": "ym2612"
    },
    {
      "channel": 0,
      "note": 66,
      "start": 11.6182,
      "duration": 0.108,
      "velocity": 127,
      "chip": "ym2612"
    },
    {
      "channel": 2,
      "note": 81,
      "start": 11.6202,
      "duration": 0.0398,
      "velocity": 27,
      "chip": "ym2612"
    },
    {
      "channel": 3,
      "note": 45,
      "start": 11.6227,
      "duration": 0.1702,
      "velocity": 119,
      "chip": "ym2612"
    },
    {
      "channel": 5,
      "note": 62,
      "start": 11.7639,
      "duration": 0.1458,
      "velocity": 81,
      "chip": "ym2612"
    },
    {
      "channel": 0,
      "note": 64,
      "start": 11.7658,
      "duration": 0.1104,
      "velocity": 127,
      "chip": "ym2612"
    },
    {
      "channel": 2,
      "note": 81,
      "start": 11.7679,
      "duration": 0.0254,
      "velocity": 27,
      "chip": "ym2612"
    },
    {
      "channel": 4,
      "note": 73,
      "start": 11.9138,
      "duration": 0.0463,
      "velocity": 119,
      "chip": "ym2612"
    },
    {
      "channel": 5,
      "note": 66,
      "start": 11.9164,
      "duration": 0.1268,
      "velocity": 81,
      "chip": "ym2612"
    },
    {
      "channel": 0,
      "note": 61,
      "start": 11.9184,
      "duration": 0.0412,
      "velocity": 127,
      "chip": "ym2612"
    },
    {
      "channel": 2,
      "note": 81,
      "start": 11.9208,
      "duration": 0.0393,
      "velocity": 27,
      "chip": "ym2612"
    },
    {
      "channel": 0,
      "note": 49,
      "start": 12.0638,
      "duration": 0.0589,
      "velocity": 127,
      "chip": "ym2612"
    },
    {
      "channel": 3,
      "note": 45,
      "start": 12.0696,
      "duration": 0.0764,
      "velocity": 119,
      "chip": "ym2612"
    },
    {
      "channel": 4,
      "note": 71,
      "start": 12.1337,
      "duration": 0.0322,
      "velocity": 119,
      "chip": "ym2612"
    },
    {
      "channel": 0,
      "note": 61,
      "start": 12.1354,
      "duration": 0.0802,
      "velocity": 127,
      "chip": "ym2612"
    },
    {
      "channel": 2,
      "note": 80,
      "start": 12.1373,
      "duration": 0.0091,
      "velocity": 96,
      "chip": "ym2612"
    },
    {
      "channel": 4,
      "note": 73,
      "start": 12.2371,
      "duration": 0.0621,
      "velocity": 119,
      "chip": "ym2612"
    },
    {
      "channel": 0,
      "note": 49,
      "start": 12.2392,
      "duration": 0.1266,
      "velocity": 127,
      "chip": "ym2612"
    },
    {
      "channel": 2,
      "note": 80,
      "start": 12.2415,
      "duration": 0.058,
      "velocity": 96,
      "chip": "ym2612"
    },
    {
      "channel": 4,
      "note": 76,
      "start": 12.3866,
      "duration": 0.0793,
      "velocity": 119,
      "chip": "ym2612"
    },
    {
      "channel": 0,
      "note": 52,
      "start": 12.3887,
      "duration": 0.127,
      "velocity": 127,
      "chip": "ym2612"
    },
    {
      "channel": 3,
      "note": 45,
      "start": 12.3912,
      "duration": 0.158,
      "velocity": 119,
      "chip": "ym2612"
    },
    {
      "channel": 4,
      "note": 73,
      "start": 12.5366,
      "duration": 0.0294,
      "velocity": 119,
      "chip": "ym2612"
    },
    {
      "channel": 0,
      "note": 64,
      "start": 12.5388,
      "duration": 0.1436,
      "velocity": 127,
      "chip": "ym2612"
    },
    {
      "channel": 4,
      "note": 76,
      "start": 12.6867,
      "duration": 0.0459,
      "velocity": 119,
      "chip": "ym2612"
    },
    {
      "channel": 0,
      "note": 57,
      "start": 12.689,
      "duration": 0.1268,
      "velocity": 127,
      "chip": "ym2612"
    },
    {
      "channel": 1,
      "note": 73,
      "start": 12.838,
      "duration": 1.5721,
      "velocity": 67,
      "chip": "ym2612"
    },
    {
      "channel": 5,
      "note": 78,
      "start": 12.8404,
      "duration": 0.0037,
      "velocity": 67,
      "chip": "ym2612"
    },
    {
      "channel": 0,
      "note": 54,
      "start": 12.8427,
      "duration": 0.0192,
      "velocity": 127,
      "chip": "ym2612"
    },
    {
      "channel": 3,
      "note": 45,
      "start": 12.8489,
      "duration": 0.0639,
      "velocity": 119,
      "chip": "ym2612"
    },
    {
      "channel": 2,
      "note": 52,
      "start": 12.9077,
      "duration": 0.0054,
      "velocity": 79,
      "chip": "ym2612"
    },
    {
      "channel": 4,
      "note": 78,
      "start": 12.9097,
      "duration": 0.0187,
      "velocity": 119,
      "chip": "ym2612"
    },
    {
      "channel": 2,
      "note": 52,
      "start": 13.0072,
      "duration": 0.0464,
      "velocity": 79,
      "chip": "ym2612"
    },
    {
      "channel": 0,
      "note": 59,
      "start": 13.0098,
      "duration": 0.0934,
      "velocity": 127,
      "chip": "ym2612"
    },
    {
      "channel": 2,
      "note": 52,
      "start": 13.1574,
      "duration": 0.0962,
      "velocity": 79,
      "chip": "ym2612"
    },
    {
      "channel": 4,
      "note": 76,
      "start": 13.1596,
      "duration": 0.0437,
      "velocity": 119,
      "chip": "ym2612"
    },
    {
      "channel": 0,
      "note": 52,
      "start": 13.1618,
      "duration": 0.108,
      "velocity": 127,
      "chip": "ym2612"
    },
    {
      "channel": 0,
      "note": 64,
      "start": 13.2907,
      "duration": 0.1291,
      "velocity": 127,
      "chip": "ym2612"
    },
    {
      "channel": 2,
      "note": 81,
      "start": 13.2928,
      "duration": 0.0441,
      "velocity": 27,
      "chip": "ym2612"
    },
    {
      "channel": 3,
      "note": 52,
      "start": 13.4407,
      "duration": 0.0959,
      "velocity": 79,
      "chip": "ym2612"
    },
    {
      "channel": 4,
      "note": 73,
      "start": 13.4429,
      "duration": 0.0606,
      "velocity": 119,
      "chip": "ym2612"
    },
    {
      "channel": 0,
      "note": 61,
      "start": 13.4458,
      "duration": 0.074,
      "velocity": 127,
      "chip": "ym2612"
    },
    {
      "channel": 2,
      "note": 80,
      "start": 13.4485,
      "duration": 0.0718,
      "velocity": 96,
      "chip": "ym2612"
    },
    {
      "channel": 3,
      "note": 52,
      "start": 13.5904,
      "duration": 0.0462,
      "velocity": 79,
      "chip": "ym2612"
    },
    {
      "channel": 5,
      "note": 45,
      "start": 13.5936,
      "duration": 0.21,
      "velocity": 119,
      "chip": "ym2612"
    },
    {
      "channel": 3,
      "note": 57,
      "start": 13.7404,
      "duration": 0.0462,
      "velocity": 79,
      "chip": "ym2612"
    },
    {
      "channel": 4,
      "note": 71,
      "start": 13.7429,
      "duration": 0.0607,
      "velocity": 119,
      "chip": "ym2612"
    },
    {
      "channel": 0,
      "note": 66,
      "start": 13.7449,
      "duration": 0.0582,
      "velocity": 127,
      "chip": "ym2612"
    },
    {
      "channel": 4,
      "note": 73,
      "start": 13.8908,
      "duration": 0.0459,
      "velocity": 119,
      "chip": "ym2612"
    },
    {
      "channel": 2,
      "note": 80,
      "start": 13.8935,
      "duration": 0.0435,
      "velocity": 96,
      "chip": "ym2612"
    },
    {
      "channel": 3,
      "note": 57,
      "start": 14.0404,
      "duration": 0.0796,
      "velocity": 79,
      "chip": "ym2612"
    },
    {
      "channel": 0,
      "note": 64,
      "start": 14.0428,
      "duration": 0.077,
      "velocity": 127,
      "chip": "ym2612"
    },
    {
      "channel": 4,
      "note": 76,
      "start": 14.1908,
      "duration": 0.0124,
      "velocity": 119,
      "chip": "ym2612"
    },
    {
      "channel": 2,
      "note": 81,
      "start": 14.1934,
      "duration": 0.0433,
      "velocity": 27,
      "chip": "ym2612"
    },
    {
      "channel": 3,
      "note": 59,
      "start": 14.3239,
      "duration": 0.0521,
      "velocity": 79,
      "chip": "ym2612"
    },
    {
      "channel": 0,
      "note": 61,
      "start": 14.3264,
      "duration": 0.036,
      "velocity": 127,
      "chip": "ym2612"
    },
    {
      "channel": 3,
      "note": 59,
      "start": 14.3921,
      "duration": 0.03,
      "velocity": 79,
      "chip": "ym2612"
    },
    {
      "channel": 4,
      "note": 76,
      "start": 14.3958,
      "duration": 1.5519,
      "velocity": 67,
      "chip": "ym2612"
    },
    {
      "channel": 2,
      "note": 85,
      "start": 14.399,
      "duration": 0.065,
      "velocity": 67,
      "chip": "ym2612"
    },
    {
      "channel": 0,
      "note": 54,
      "start": 14.4011,
      "duration": 0.0061,
      "velocity": 127,
      "chip": "ym2612"
    },
    {
      "channel": 0,
      "note": 45,
      "start": 14.4089,
      "duration": 0.0644,
      "velocity": 119,
      "chip": "ym2612"
    },
    {
      "channel": 3,
      "note": 63,
      "start": 14.4608,
      "duration": 0.0274,
      "velocity": 79,
      "chip": "ym2612"
    },
    {
      "channel": 1,
      "note": 78,
      "start": 14.4632,
      "duration": 0.0251,
      "velocity": 119,
      "chip": "ym2612"
    },
    {
      "channel": 2,
      "note": 80,
      "start": 14.4655,
      "duration": 0.0081,
      "velocity": 96,
      "chip": "ym2612"
    },
    {
      "channel": 3,
      "note": 63,
      "start": 14.5515,
      "duration": 0.0295,
      "velocity": 79,
      "chip": "ym2612"
    },
    {
      "channel": 0,
      "note": 59,
      "start": 14.5543,
      "duration": 0.1099,
      "velocity": 127,
      "chip": "ym2612"
    },
    {
      "channel": 2,
      "note": 80,
      "start": 14.5567,
      "duration": 0.008,
      "velocity": 96,
      "chip": "ym2612"
    },
    {
      "channel": 3,
      "note": 64,
      "start": 14.7017,
      "duration": 0.0794,
      "velocity": 79,
      "chip": "ym2612"
    },
    {
      "channel": 1,
      "note": 76,
      "start": 14.7039,
      "duration": 0.0604,
      "velocity": 119,
      "chip": "ym2612"
    },
    {
      "channel": 0,
      "note": 52,
      "start": 14.7061,
      "duration": 0.1248,
      "velocity": 127,
      "chip": "ym2612"
    },
    {
      "channel": 2,
      "note": 81,
      "start": 14.7088,
      "duration": 0.0225,
      "velocity": 27,
      "chip": "ym2612"
    },
    {
      "channel": 0,
      "note": 64,
      "start": 14.8519,
      "duration": 0.0956,
      "velocity": 127,
      "chip": "ym2612"
    },
    {
      "channel": 2,
      "note": 81,
      "start": 14.854,
      "duration": 0.0107,
      "velocity": 27,
      "chip": "ym2612"
    },
    {
      "channel": 3,
      "note": 64,
      "start": 15.002,
      "duration": 0.0623,
      "velocity": 79,
      "chip": "ym2612"
    },
    {
      "channel": 1,
      "note": 73,
      "start": 15.0042,
      "duration": 0.0434,
      "velocity": 119,
      "chip": "ym2612"
    },
    {
      "channel": 0,
      "note": 59,
      "start": 15.0066,
      "duration": 0.0744,
      "velocity": 127,
      "chip": "ym2612"
    },
    {
      "channel": 2,
      "note": 81,
      "start": 15.009,
      "duration": 0.0392,
      "velocity": 27,
      "chip": "ym2612"
    },
    {
      "channel": 3,
      "note": 63,
      "start": 15.285,
      "duration": 0.0963,
      "velocity": 79,
      "chip": "ym2612"
    },
    {
      "channel": 1,
      "note": 71,
      "start": 15.2871,
      "duration": 0.0771,
      "velocity": 119,
      "chip": "ym2612"
    },
    {
      "channel": 0,
      "note": 63,
      "start": 15.2893,
      "duration": 0.0917,
      "velocity": 127,
      "chip": "ym2612"
    },
    {
      "channel": 2,
      "note": 80,
      "start": 15.2916,
      "duration": 0.0398,
      "velocity": 96,
      "chip": "ym2612"
    },
    {
      "channel": 5,
      "note": 45,
      "start": 15.2941,
      "duration": 0.0874,
      "velocity": 119,
      "chip": "ym2612"
    },
    {
      "channel": 3,
      "note": 59,
      "start": 15.4349,
      "duration": 0.1461,
      "velocity": 79,
      "chip": "ym2612"
    },
    {
      "channel": 2,
      "note": 80,
      "start": 15.4377,
      "duration": 0.0603,
      "velocity": 96,
      "chip": "ym2612"
    },
    {
      "channel": 3,
      "note": 57,
      "start": 15.5849,
      "duration": 0.1127,
      "velocity": 79,
      "chip": "ym2612"
    },
    {
      "channel": 1,
      "note": 73,
      "start": 15.587,
      "duration": 0.0773,
      "velocity": 119,
      "chip": "ym2612"
    },
    {
      "channel": 0,
      "note": 61,
      "start": 15.589,
      "duration": 0.0919,
      "velocity": 127,
      "chip": "ym2612"
    },
    {
      "channel": 3,
      "note": 54,
      "start": 15.7351,
      "duration": 0.0459,
      "velocity": 79,
      "chip": "ym2612"
    },
    {
      "channel": 1,
      "note": 76,
      "start": 15.8854,
      "duration": 0.0455,
      "velocity": 119,
      "chip": "ym2612"
    },
    {
      "channel": 0,
      "note": 52,
      "start": 15.8877,
      "duration": 0.0766,
      "velocity": 127,
      "chip": "ym2612"
    },
    {
      "channel": 5,
      "note": 45,
      "start": 15.8904,
      "duration": 0.0744,
      "velocity": 119,
      "chip": "ym2612"
    },
    {
      "channel": 4,
      "note": 78,
      "start": 16.0363,
      "duration": 1.5794,
      "velocity": 67,
      "chip": "ym2612"
    },
    {
      "channel": 2,
      "note": 87,
      "start": 16.039,
      "duration": 0.0698,
      "velocity": 67,
      "chip": "ym2612"
    },
    {
      "channel": 0,
      "note": 54,
      "start": 16.0412,
      "duration": 0.0333,
      "velocity": 127,
      "chip": "ym2612"
    },
    {
      "channel": 3,
      "note": 69,
      "start": 16.1051,
      "duration": 0.0468,
      "velocity": 79,
      "chip": "ym2612"
    },
    {
      "channel": 1,
      "note": 78,
      "start": 16.1069,
      "duration": 0.0192,
      "velocity": 119,
      "chip": "ym2612"
    },
    {
      "channel": 2,
      "note": 80,
      "start": 16.1102,
      "duration": 0.0086,
      "velocity": 96,
      "chip": "ym2612"
    },
    {
      "channel": 3,
      "note": 71,
      "start": 16.189,
      "duration": 0.0961,
      "velocity": 79,
      "chip": "ym2612"
    },
    {
      "channel": 0,
      "note": 59,
      "start": 16.1916,
      "duration": 0.1268,
      "velocity": 127,
      "chip": "ym2612"
    },
    {
      "channel": 2,
      "note": 80,
      "start": 16.1938,
      "duration": 0.0417,
      "velocity": 96,
      "chip": "ym2612"
    },
    {
      "channel": 3,
      "note": 63,
      "start": 16.3389,
      "duration": 0.0962,
      "velocity": 79,
      "chip": "ym2612"
    },
    {
      "channel": 1,
      "note": 76,
      "start": 16.3409,
      "duration": 0.061,
      "velocity": 119,
      "chip": "ym2612"
    },
    {
      "channel": 0,
      "note": 52,
      "start": 16.343,
      "duration": 0.1253,
      "velocity": 127,
      "chip": "ym2612"
    },
    {
      "channel": 2,
      "note": 81,
      "start": 16.3453,
      "duration": 0.0403,
      "velocity": 27,
      "chip": "ym2612"
    },
    {
      "channel": 3,
      "note": 64,
      "start": 16.4888,
      "duration": 0.0963,
      "velocity": 79,
      "chip": "ym2612"
    },
    {
      "channel": 0,
      "note": 64,
      "start": 16.4918,
      "duration": 0.11,
      "velocity": 127,
      "chip": "ym2612"
    },
    {
      "channel": 2,
      "note": 81,
      "start": 16.4937,
      "duration": 0.0252,
      "velocity": 27,
      "chip": "ym2612"
    },
    {
      "channel": 3,
      "note": 69,
      "start": 16.639,
      "duration": 0.1127,
      "velocity": 79,
      "chip": "ym2612"
    },
    {
      "channel": 1,
      "note": 73,
      "start": 16.6411,
      "duration": 0.0441,
      "velocity": 119,
      "chip": "ym2612"
    },
    {
      "channel": 0,
      "note": 61,
      "start": 16.6435,
      "duration": 0.0583,
      "velocity": 127,
      "chip": "ym2612"
    },
    {
      "channel": 2,
      "note": 81,
      "start": 16.6459,
      "duration": 0.0397,
      "velocity": 27,
      "chip": "ym2612"
    },
    {
      "channel": 3,
      "note": 68,
      "start": 16.789,
      "duration": 0.0794,
      "velocity": 79,
      "chip": "ym2612"
    },
    {
      "channel": 3,
      "note": 63,
      "start": 16.939,
      "duration": 0.1295,
      "velocity": 79,
      "chip": "ym2612"
    },
    {
      "channel": 1,
      "note": 71,
      "start": 16.9412,
      "duration": 0.0607,
      "velocity": 119,
      "chip": "ym2612"
    },
    {
      "channel": 0,
      "note": 66,
      "start": 16.9434,
      "duration": 0.0584,
      "velocity": 127,
      "chip": "ym2612"
    },
    {
      "channel": 2,
      "note": 80,
      "start": 16.9455,
      "duration": 0.0234,
      "velocity": 96,
      "chip": "ym2612"
    },
    {
      "channel": 5,
      "note": 45,
      "start": 16.9479,
      "duration": 0.0709,
      "velocity": 119,
      "chip": "ym2612"
    },
    {
      "channel": 3,
      "note": 68,
      "start": 17.0889,
      "duration": 0.1128,
      "velocity": 79,
      "chip": "ym2612"
    },
    {
      "channel": 2,
      "note": 80,
      "start": 17.0916,
      "duration": 0.0273,
      "velocity": 96,
      "chip": "ym2612"
    },
    {
      "channel": 3,
      "note": 64,
      "start": 17.239,
      "duration": 0.0961,
      "velocity": 79,
      "chip": "ym2612"
    },
    {
      "channel": 1,
      "note": 73,
      "start": 17.2411,
      "duration": 0.0607,
      "velocity": 119,
      "chip": "ym2612"
    },
    {
      "channel": 0,
      "note": 64,
      "start": 17.2433,
      "duration": 0.0751,
      "velocity": 127,
      "chip": "ym2612"
    },
    {
      "channel": 3,
      "note": 63,
      "start": 17.3722,
      "duration": 0.1129,
      "velocity": 79,
      "chip": "ym2612"
    },
    {
      "channel": 3,
      "note": 59,
      "start": 17.5229,
      "duration": 0.0612,
      "velocity": 79,
      "chip": "ym2612"
    },
    {
      "channel": 1,
      "note": 76,
      "start": 17.5253,
      "duration": 0.0302,
      "velocity": 119,
      "chip": "ym2612"
    },
    {
      "channel": 0,
      "note": 61,
      "start": 17.5277,
      "duration": 0.0277,
      "velocity": 127,
      "chip": "ym2612"
    },
    {
      "channel": 2,
      "note": 45,
      "start": 17.5352,
      "duration": 0.0207,
      "velocity": 119,
      "chip": "ym2612"
    },
    {
      "channel": 3,
      "note": 64,
      "start": 17.5931,
      "duration": 0.0579,
      "velocity": 79,
      "chip": "ym2612"
    },
    {
      "channel": 0,
      "note": 52,
      "start": 17.5953,
      "duration": 0.0556,
      "velocity": 79,
      "chip": "ym2612"
    },
    {
      "channel": 1,
      "note": 76,
      "start": 17.5971,
      "duration": 0.0043,
      "velocity": 119,
      "chip": "ym2612"
    },
    {
      "channel": 2,
      "note": 76,
      "start": 17.6005,
      "duration": 0.0666,
      "velocity": 67,
      "chip": "ym2612"
    },
    {
      "channel": 1,
      "note": 93,
      "start": 17.6027,
      "duration": 0.0025,
      "velocity": 67,
      "chip": "ym2612"
    },
    {
      "channel": 1,
      "note": 52,
      "start": 17.6066,
      "duration": 0.0444,
      "velocity": 92,
      "chip": "ym2612"
    },
    {
      "channel": 3,
      "note": 63,
      "start": 17.6588,
      "duration": 0.0678,
      "velocity": 79,
      "chip": "ym2612"
    },
    {
      "channel": 0,
      "note": 51,
      "start": 17.6605,
      "duration": 0.0657,
      "velocity": 79,
      "chip": "ym2612"
    },
    {
      "channel": 4,
      "note": 75,
      "start": 17.6626,
      "duration": 0.0185,
      "velocity": 119,
      "chip": "ym2612"
    },
    {
      "channel": 1,
      "note": 51,
      "start": 17.6663,
      "duration": 0.0352,
      "velocity": 92,
      "chip": "ym2612"
    },
    {
      "channel": 2,
      "note": 80,
      "start": 17.6685,
      "duration": 0.0127,
      "velocity": 96,
      "chip": "ym2612"
    },
    {
      "channel": 3,
      "note": 59,
      "start": 17.7468,
      "duration": 0.0795,
      "velocity": 79,
      "chip": "ym2612"
    },
    {
      "channel": 0,
      "note": 47,
      "start": 17.7488,
      "duration": 0.0773,
      "velocity": 79,
      "chip": "ym2612"
    },
    {
      "channel": 4,
      "note": 71,
      "start": 17.7511,
      "duration": 0.0756,
      "velocity": 119,
      "chip": "ym2612"
    },
    {
      "channel": 1,
      "note": 47,
      "start": 17.7534,
      "duration": 0.1396,
      "velocity": 92,
      "chip": "ym2612"
    },
    {
      "channel": 2,
      "note": 80,
      "start": 17.7556,
      "duration": 0.021,
      "velocity": 96,
      "chip": "ym2612"
    },
    {
      "channel": 3,
      "note": 63,
      "start": 17.8969,
      "duration": 0.0961,
      "velocity": 79,
      "chip": "ym2612"
    },
    {
      "channel": 0,
      "note": 51,
      "start": 17.8989,
      "duration": 0.0939,
      "velocity": 79,
      "chip": "ym2612"
    },
    {
      "channel": 4,
      "note": 78,
      "start": 17.901,
      "duration": 0.0754,
      "velocity": 119,
      "chip": "ym2612"
    },
    {
      "channel": 1,
      "note": 54,
      "start": 17.9032,
      "duration": 0.1063,
      "velocity": 92,
      "chip": "ym2612"
    },
    {
      "channel": 2,
      "note": 81,
      "start": 17.9055,
      "duration": 0.0212,
      "velocity": 27,
      "chip": "ym2612"
    },
    {
      "channel": 3,
      "note": 59,
      "start": 18.0467,
      "duration": 0.1132,
      "velocity": 79,
      "chip": "ym2612"
    },
    {
      "channel": 0,
      "note": 47,
      "start": 18.0488,
      "duration": 0.1107,
      "velocity": 79,
      "chip": "ym2612"
    },
    {
      "channel": 4,
      "note": 75,
      "start": 18.0508,
      "duration": 0.0758,
      "velocity": 119,
      "chip": "ym2612"
    },
    {
      "channel": 1,
      "note": 51,
      "start": 18.0531,
      "duration": 0.1232,
      "velocity": 92,
      "chip": "ym2612"
    },
    {
      "channel": 2,
      "note": 81,
      "start": 18.0552,
      "duration": 0.0215,
      "velocity": 27,
      "chip": "ym2612"
    },
    {
      "channel": 5,
      "note": 45,
      "start": 18.0579,
      "duration": 0.0688,
      "velocity": 119,
      "chip": "ym2612"
    },
    {
      "channel": 3,
      "note": 57,
      "start": 18.1802,
      "duration": 0.0797,
      "velocity": 79,
      "chip": "ym2612"
    },
    {
      "channel": 0,
      "note": 45,
      "start": 18.1822,
      "duration": 0.0773,
      "velocity": 79,
      "chip": "ym2612"
    },
    {
      "channel": 4,
      "note": 73,
      "start": 18.1845,
      "duration": 0.0756,
      "velocity": 119,
      "chip": "ym2612"
    },
    {
      "channel": 1,
      "note": 49,
      "start": 18.1868,
      "duration": 0.1062,
      "velocity": 92,
      "chip": "ym2612"
    },
    {
      "channel": 2,
      "note": 80,
      "start": 18.1895,
      "duration": 0.0706,
      "velocity": 96,
      "chip": "ym2612"
    },
    {
      "channel": 3,
      "note": 59,
      "start": 18.3301,
      "duration": 0.1295,
      "velocity": 79,
      "chip": "ym2612"
    },
    {
      "channel": 0,
      "note": 47,
      "start": 18.3322,
      "duration": 0.1273,
      "velocity": 79,
      "chip": "ym2612"
    },
    {
      "channel": 4,
      "note": 80,
      "start": 18.3342,
      "duration": 0.0755,
      "velocity": 119,
      "chip": "ym2612"
    },
    {
      "channel": 1,
      "note": 56,
      "start": 18.3364,
      "duration": 0.1066,
      "velocity": 92,
      "chip": "ym2612"
    },
    {
      "channel": 3,
      "note": 57,
      "start": 18.4802,
      "duration": 0.1131,
      "velocity": 79,
      "chip": "ym2612"
    },
    {
      "channel": 0,
      "note": 45,
      "start": 18.4822,
      "duration": 0.1106,
      "velocity": 79,
      "chip": "ym2612"
    },
    {
      "channel": 4,
      "note": 78,
      "start": 18.4843,
      "duration": 0.0754,
      "velocity": 119,
      "chip": "ym2612"
    },
    {
      "channel": 1,
      "note": 54,
      "start": 18.4866,
      "duration": 0.123,
      "velocity": 92,
      "chip": "ym2612"
    },
    {
      "channel": 2,
      "note": 80,
      "start": 18.4889,
      "duration": 0.0044,
      "velocity": 96,
      "chip": "ym2612"
    },
    {
      "channel": 3,
      "note": 56,
      "start": 18.6301,
      "duration": 0.0631,
      "velocity": 79,
      "chip": "ym2612"
    },
    {
      "channel": 0,
      "note": 44,
      "start": 18.6322,
      "duration": 0.0607,
      "velocity": 79,
      "chip": "ym2612"
    },
    {
      "channel": 4,
      "note": 76,
      "start": 18.6342,
      "duration": 0.0592,
      "velocity": 119,
      "chip": "ym2612"
    },
    {
      "channel": 1,
      "note": 52,
      "start": 18.6365,
      "duration": 0.1064,
      "velocity": 92,
      "chip": "ym2612"
    },
    {
      "channel": 2,
      "note": 80,
      "start": 18.6389,
      "duration": 0.0378,
      "velocity": 96,
      "chip": "ym2612"
    },
    {
      "channel": 5,
      "note": 45,
      "start": 18.6418,
      "duration": 0.1016,
      "velocity": 119,
      "chip": "ym2612"
    },
    {
      "channel": 3,
      "note": 57,
      "start": 18.7801,
      "duration": 0.1299,
      "velocity": 79,
      "chip": "ym2612"
    },
    {
      "channel": 0,
      "note": 45,
      "start": 18.7821,
      "duration": 0.1275,
      "velocity": 79,
      "chip": "ym2612"
    },
    {
      "channel": 4,
      "note": 85,
      "start": 18.7841,
      "duration": 0.0589,
      "velocity": 119,
      "chip": "ym2612"
    },
    {
      "channel": 1,
      "note": 61,
      "start": 18.7868,
      "duration": 0.1062,
      "velocity": 92,
      "chip": "ym2612"
    },
    {
      "channel": 2,
      "note": 81,
      "start": 18.7889,
      "duration": 0.0211,
      "velocity": 27,
      "chip": "ym2612"
    },
    {
      "channel": 3,
      "note": 56,
      "start": 18.9301,
      "duration": 0.0966,
      "velocity": 79,
      "chip": "ym2612"
    },
    {
      "channel": 0,
      "note": 44,
      "start": 18.9321,
      "duration": 0.0941,
      "velocity": 79,
      "chip": "ym2612"
    },
    {
      "channel": 4,
      "note": 83,
      "start": 18.9341,
      "duration": 0.0589,
      "velocity": 119,
      "chip": "ym2612"
    },
    {
      "channel": 1,
      "note": 59,
      "start": 18.9363,
      "duration": 0.09,
      "velocity": 92,
      "chip": "ym2612"
    },
    {
      "channel": 2,
      "note": 81,
      "start": 18.9385,
      "duration": 0.0048,
      "velocity": 27,
      "chip": "ym2612"
    },
    {
      "channel": 5,
      "note": 45,
      "start": 18.9411,
      "duration": 0.0523,
      "velocity": 119,
      "chip": "ym2612"
    },
    {
      "channel": 3,
      "note": 52,
      "start": 19.0803,
      "duration": 0.0796,
      "velocity": 79,
      "chip": "ym2612"
    },
    {
      "channel": 0,
      "note": 40,
      "start": 19.0832,
      "duration": 0.0763,
      "velocity": 79,
      "chip": "ym2612"
    },
    {
      "channel": 4,
      "note": 80,
      "start": 19.0855,
      "duration": 0.0746,
      "velocity": 119,
      "chip": "ym2612"
    },
    {
      "channel": 1,
      "note": 56,
      "start": 19.0878,
      "duration": 0.1051,
      "velocity": 92,
      "chip": "ym2612"
    },
    {
      "channel": 2,
      "note": 80,
      "start": 19.0901,
      "duration": 0.0532,
      "velocity": 96,
      "chip": "ym2612"
    },
    {
      "channel": 5,
      "note": 97,
      "start": 19.231,
      "duration": 1.1957,
      "velocity": 100,
      "chip": "ym2612"
    },
    {
      "channel": 2,
      "note": 92,
      "start": 19.2336,
      "duration": 1.1932,
      "velocity": 100,
      "chip": "ym2612"
    },
    {
      "channel": 0,
      "note": 90,
      "start": 19.2359,
      "duration": 1.1903,
      "velocity": 100,
      "chip": "ym2612"
    },
    {
      "channel": 1,
      "note": 54,
      "start": 19.238,
      "duration": 0.0549,
      "velocity": 92,
      "chip": "ym2612"
    },
    {
      "channel": 4,
      "note": 78,
      "start": 19.3637,
      "duration": 0.0626,
      "velocity": 119,
      "chip": "ym2612"
    },
    {
      "channel": 1,
      "note": 54,
      "start": 19.366,
      "duration": 0.0936,
      "velocity": 92,
      "chip": "ym2612"
    },
    {
      "channel": 1,
      "note": 42,
      "start": 19.5139,
      "duration": 0.1123,
      "velocity": 92,
      "chip": "ym2612"
    },
    {
      "channel": 3,
      "note": 45,
      "start": 19.5167,
      "duration": 0.0929,
      "velocity": 119,
      "chip": "ym2612"
    },
    {
      "channel": 4,
      "note": 76,
      "start": 19.6636,
      "duration": 0.0464,
      "velocity": 119,
      "chip": "ym2612"
    },
    {
      "channel": 1,
      "note": 49,
      "start": 19.6659,
      "duration": 0.0937,
      "velocity": 92,
      "chip": "ym2612"
    },
    {
      "channel": 1,
      "note": 42,
      "start": 19.8139,
      "duration": 0.1123,
      "velocity": 92,
      "chip": "ym2612"
    },
    {
      "channel": 3,
      "note": 45,
      "start": 19.8166,
      "duration": 0.0433,
      "velocity": 119,
      "chip": "ym2612"
    },
    {
      "channel": 4,
      "note": 73,
      "start": 19.9637,
      "duration": 0.0461,
      "velocity": 119,
      "chip": "ym2612"
    },
    {
      "channel": 1,
      "note": 52,
      "start": 19.966,
      "duration": 0.0773,
      "velocity": 92,
      "chip": "ym2612"
    },
    {
      "channel": 1,
      "note": 52,
      "start": 20.1138,
      "duration": 0.0791,
      "velocity": 92,
      "chip": "ym2612"
    },
    {
      "channel": 4,
      "note": 71,
      "start": 20.2643,
      "duration": 0.062,
      "velocity": 119,
      "chip": "ym2612"
    },
    {
      "channel": 1,
      "note": 42,
      "start": 20.2664,
      "duration": 0.0765,
      "velocity": 92,
      "chip": "ym2612"
    },
    {
      "channel": 1,
      "note": 47,
      "start": 20.3973,
      "duration": 0.1289,
      "velocity": 92,
      "chip": "ym2612"
    },
    {
      "channel": 3,
      "note": 45,
      "start": 20.4006,
      "duration": 0.1258,
      "velocity": 119,
      "chip": "ym2612"
    },
    {
      "channel": 4,
      "note": 73,
      "start": 20.5471,
      "duration": 0.1296,
      "velocity": 119,
      "chip": "ym2612"
    },
    {
      "channel": 1,
      "note": 40,
      "start": 20.5494,
      "duration": 0.1436,
      "velocity": 92,
      "chip": "ym2612"
    },
    {
      "channel": 1,
      "note": 45,
      "start": 20.6973,
      "duration": 0.1123,
      "velocity": 92,
      "chip": "ym2612"
    },
    {
      "channel": 3,
      "note": 45,
      "start": 20.7,
      "duration": 0.043,
      "velocity": 119,
      "chip": "ym2612"
    },
    {
      "channel": 4,
      "note": 76,
      "start": 20.847,
      "duration": 0.0462,
      "velocity": 119,
      "chip": "ym2612"
    },
    {
      "channel": 1,
      "note": 47,
      "start": 20.8493,
      "duration": 0.0936,
      "velocity": 92,
      "chip": "ym2612"
    },
    {
      "channel": 2,
      "note": 80,
      "start": 20.8516,
      "duration": 0.0583,
      "velocity": 96,
      "chip": "ym2612"
    },
    {
      "channel": 0,
      "note": 93,
      "start": 20.9998,
      "duration": 1.193,
      "velocity": 100,
      "chip": "ym2612"
    },
    {
      "channel": 5,
      "note": 88,
      "start": 21.0018,
      "duration": 1.1916,
      "velocity": 100,
      "chip": "ym2612"
    },
    {
      "channel": 3,
      "note": 86,
      "start": 21.0041,
      "duration": 1.1889,
      "velocity": 100,
      "chip": "ym2612"
    },
    {
      "channel": 1,
      "note": 38,
      "start": 21.0064,
      "duration": 0.0365,
      "velocity": 92,
      "chip": "ym2612"
    },
    {
      "channel": 2,
      "note": 80,
      "start": 21.009,
      "duration": 0.0344,
      "velocity": 96,
      "chip": "ym2612"
    },
    {
      "channel": 4,
      "note": 66,
      "start": 21.1469,
      "duration": 0.0628,
      "velocity": 79,
      "chip": "ym2612"
    },
    {
      "channel": 1,
      "note": 62,
      "start": 21.1492,
      "duration": 0.0436,
      "velocity": 79,
      "chip": "ym2612"
    },
    {
      "channel": 2,
      "note": 78,
      "start": 21.1515,
      "duration": 0.0009,
      "velocity": 119,
      "chip": "ym2612"
    },
    {
      "channel": 2,
      "note": 80,
      "start": 21.1538,
      "duration": 0.0396,
      "velocity": 96,
      "chip": "ym2612"
    },
    {
      "channel": 4,
      "note": 66,
      "start": 21.297,
      "duration": 0.1127,
      "velocity": 79,
      "chip": "ym2612"
    },
    {
      "channel": 1,
      "note": 62,
      "start": 21.2992,
      "duration": 0.0937,
      "velocity": 79,
      "chip": "ym2612"
    },
    {
      "channel": 2,
      "note": 43,
      "start": 21.302,
      "duration": 0.0008,
      "velocity": 92,
      "chip": "ym2612"
    },
    {
      "channel": 2,
      "note": 80,
      "start": 21.3043,
      "duration": 0.0012,
      "velocity": 96,
      "chip": "ym2612"
    },
    {
      "channel": 2,
      "note": 45,
      "start": 21.3071,
      "duration": 0.0697,
      "velocity": 119,
      "chip": "ym2612"
    },
    {
      "channel": 2,
      "note": 76,
      "start": 21.4471,
      "duration": 0.0042,
      "velocity": 119,
      "chip": "ym2612"
    },
    {
      "channel": 1,
      "note": 36,
      "start": 21.45,
      "duration": 0.1096,
      "velocity": 92,
      "chip": "ym2612"
    },
    {
      "channel": 2,
      "note": 81,
      "start": 21.4528,
      "duration": 0.0406,
      "velocity": 27,
      "chip": "ym2612"
    },
    {
      "channel": 4,
      "note": 64,
      "start": 21.5803,
      "duration": 0.113,
      "velocity": 79,
      "chip": "ym2612"
    },
    {
      "channel": 2,
      "note": 60,
      "start": 21.5826,
      "duration": 0.0941,
      "velocity": 79,
      "chip": "ym2612"
    },
    {
      "channel": 1,
      "note": 48,
      "start": 21.5849,
      "duration": 0.1248,
      "velocity": 92,
      "chip": "ym2612"
    },
    {
      "channel": 2,
      "note": 72,
      "start": 21.7307,
      "duration": 0.0032,
      "velocity": 119,
      "chip": "ym2612"
    },
    {
      "channel": 1,
      "note": 45,
      "start": 21.7329,
      "duration": 0.0767,
      "velocity": 92,
      "chip": "ym2612"
    },
    {
      "channel": 2,
      "note": 81,
      "start": 21.7354,
      "duration": 0.0247,
      "velocity": 27,
      "chip": "ym2612"
    },
    {
      "channel": 4,
      "note": 64,
      "start": 21.88,
      "duration": 0.1132,
      "velocity": 79,
      "chip": "ym2612"
    },
    {
      "channel": 2,
      "note": 60,
      "start": 21.8824,
      "duration": 0.1111,
      "velocity": 79,
      "chip": "ym2612"
    },
    {
      "channel": 1,
      "note": 38,
      "start": 21.8847,
      "duration": 0.1249,
      "velocity": 92,
      "chip": "ym2612"
    },
    {
      "channel": 4,
      "note": 69,
      "start": 22.0305,
      "duration": 0.0459,
      "velocity": 119,
      "chip": "ym2612"
    },
    {
      "channel": 1,
      "note": 50,
      "start": 22.0327,
      "duration": 0.0935,
      "velocity": 92,
      "chip": "ym2612"
    },
    {
      "channel": 2,
      "note": 80,
      "start": 22.036,
      "duration": 0.0073,
      "velocity": 96,
      "chip": "ym2612"
    },
    {
      "channel": 2,
      "note": 66,
      "start": 22.1804,
      "duration": 0.0796,
      "velocity": 79,
      "chip": "ym2612"
    },
    {
      "channel": 4,
      "note": 62,
      "start": 22.1826,
      "duration": 0.0941,
      "velocity": 79,
      "chip": "ym2612"
    },
    {
      "channel": 1,
      "note": 36,
      "start": 22.1849,
      "duration": 0.0913,
      "velocity": 92,
      "chip": "ym2612"
    },
    {
      "channel": 0,
      "note": 72,
      "start": 22.3304,
      "duration": 0.0792,
      "velocity": 119,
      "chip": "ym2612"
    },
    {
      "channel": 1,
      "note": 48,
      "start": 22.3326,
      "duration": 0.0938,
      "velocity": 92,
      "chip": "ym2612"
    },
    {
      "channel": 2,
      "note": 66,
      "start": 22.4804,
      "duration": 0.1129,
      "velocity": 79,
      "chip": "ym2612"
    },
    {
      "channel": 4,
      "note": 62,
      "start": 22.4825,
      "duration": 0.0941,
      "velocity": 79,
      "chip": "ym2612"
    },
    {
      "channel": 1,
      "note": 33,
      "start": 22.4847,
      "duration": 0.0915,
      "velocity": 92,
      "chip": "ym2612"
    },
    {
      "channel": 0,
      "note": 76,
      "start": 22.6136,
      "duration": 0.0322,
      "velocity": 119,
      "chip": "ym2612"
    },
    {
      "channel": 1,
      "note": 45,
      "start": 22.6159,
      "duration": 0.0437,
      "velocity": 92,
      "chip": "ym2612"
    },
    {
      "channel": 3,
      "note": 45,
      "start": 22.6227,
      "duration": 0.0156,
      "velocity": 119,
      "chip": "ym2612"
    },
    {
      "channel": 2,
      "note": 68,
      "start": 22.6832,
      "duration": 0.042,
      "velocity": 79,
      "chip": "ym2612"
    },
    {
      "channel": 4,
      "note": 64,
      "start": 22.686,
      "duration": 0.039,
      "velocity": 79,
      "chip": "ym2612"
    },
    {
      "channel": 3,
      "note": 88,
      "start": 22.6883,
      "duration": 0.8357,
      "velocity": 100,
      "chip": "ym2612"
    },
    {
      "channel": 0,
      "note": 90,
      "start": 22.6905,
      "duration": 0.8331,
      "velocity": 100,
      "chip": "ym2612"
    },
    {
      "channel": 1,
      "note": 95,
      "start": 22.6924,
      "duration": 0.8313,
      "velocity": 100,
      "chip": "ym2612"
    },
    {
      "channel": 4,
      "note": 78,
      "start": 22.7495,
      "duration": 0.0192,
      "velocity": 119,
      "chip": "ym2612"
    },
    {
      "channel": 2,
      "note": 52,
      "start": 22.7516,
      "duration": 0.0011,
      "velocity": 92,
      "chip": "ym2612"
    },
    {
      "channel": 2,
      "note": 80,
      "start": 22.7542,
      "duration": 0.0148,
      "velocity": 96,
      "chip": "ym2612"
    },
    {
      "channel": 4,
      "note": 40,
      "start": 22.8156,
      "duration": 0.0027,
      "velocity": 92,
      "chip": "ym2612"
    },
    {
      "channel": 2,
      "note": 80,
      "start": 22.8176,
      "duration": 0.0128,
      "velocity": 96,
      "chip": "ym2612"
    },
    {
      "channel": 4,
      "note": 45,
      "start": 22.8197,
      "duration": 0.1104,
      "velocity": 119,
      "chip": "ym2612"
    },
    {
      "channel": 5,
      "note": 76,
      "start": 22.9509,
      "duration": 0.0629,
      "velocity": 119,
      "chip": "ym2612"
    },
    {
      "channel": 2,
      "note": 47,
      "start": 22.9535,
      "duration": 0.0007,
      "velocity": 92,
      "chip": "ym2612"
    },
    {
      "channel": 2,
      "note": 81,
      "start": 22.9556,
      "duration": 0.0249,
      "velocity": 27,
      "chip": "ym2612"
    },
    {
      "channel": 4,
      "note": 40,
      "start": 23.1012,
      "duration": 0.0959,
      "velocity": 92,
      "chip": "ym2612"
    },
    {
      "channel": 2,
      "note": 81,
      "start": 23.1032,
      "duration": 0.0273,
      "velocity": 27,
      "chip": "ym2612"
    },
    {
      "channel": 5,
      "note": 45,
      "start": 23.106,
      "duration": 0.0412,
      "velocity": 119,
      "chip": "ym2612"
    },
    {
      "channel": 2,
      "note": 73,
      "start": 23.251,
      "duration": 0.0032,
      "velocity": 119,
      "chip": "ym2612"
    },
    {
      "channel": 4,
      "note": 50,
      "start": 23.2534,
      "duration": 0.077,
      "velocity": 92,
      "chip": "ym2612"
    },
    {
      "channel": 2,
      "note": 81,
      "start": 23.2556,
      "duration": 0.0249,
      "velocity": 27,
      "chip": "ym2612"
    },
    {
      "channel": 4,
      "note": 50,
      "start": 23.3842,
      "duration": 0.0452,
      "velocity": 92,
      "chip": "ym2612"
    },
    {
      "channel": 2,
      "note": 71,
      "start": 23.4539,
      "duration": 0.0059,
      "velocity": 119,
      "chip": "ym2612"
    },
    {
      "channel": 4,
      "note": 40,
      "start": 23.4559,
      "duration": 0.0386,
      "velocity": 92,
      "chip": "ym2612"
    },
    {
      "channel": 2,
      "note": 80,
      "start": 23.4612,
      "duration": 0.0117,
      "velocity": 96,
      "chip": "ym2612"
    },
    {
      "channel": 4,
      "note": 45,
      "start": 23.5188,
      "duration": 0.0546,
      "velocity": 92,
      "chip": "ym2612"
    },
    {
      "channel": 2,
      "note": 80,
      "start": 23.5208,
      "duration": 0.0248,
      "velocity": 96,
      "chip": "ym2612"
    },
    {
      "channel": 0,
      "note": 76,
      "start": 23.5827,
      "duration": 0.0741,
      "velocity": 119,
      "chip": "ym2612"
    },
    {
      "channel": 4,
      "note": 38,
      "start": 23.5851,
      "duration": 0.1388,
      "velocity": 92,
      "chip": "ym2612"
    },
    {
      "channel": 4,
      "note": 43,
      "start": 23.7281,
      "duration": 0.1122,
      "velocity": 92,
      "chip": "ym2612"
    },
    {
      "channel": 0,
      "note": 78,
      "start": 23.8775,
      "duration": 0.0461,
      "velocity": 119,
      "chip": "ym2612"
    },
    {
      "channel": 4,
      "note": 45,
      "start": 23.8799,
      "duration": 0.0773,
      "velocity": 92,
      "chip": "ym2612"
    },
    {
      "channel": 1,
      "note": 88,
      "start": 24.03,
      "duration": 0.9356,
      "velocity": 100,
      "chip": "ym2612"
    },
    {
      "channel": 3,
      "note": 86,
      "start": 24.0319,
      "duration": 0.9338,
      "velocity": 100,
      "chip": "ym2612"
    },
    {
      "channel": 2,
      "note": 93,
      "start": 24.0343,
      "duration": 0.9315,
      "velocity": 100,
      "chip": "ym2612"
    },
    {
      "channel": 4,
      "note": 38,
      "start": 24.0366,
      "duration": 0.0175,
      "velocity": 92,
      "chip": "ym2612"
    },
    {
      "channel": 0,
      "note": 62,
      "start": 24.0985,
      "duration": 0.034,
      "velocity": 79,
      "chip": "ym2612"
    },
    {
      "channel": 4,
      "note": 59,
      "start": 24.1005,
      "duration": 0.0247,
      "velocity": 79,
      "chip": "ym2612"
    },
    {
      "channel": 0,
      "note": 62,
      "start": 24.1565,
      "duration": 0.1135,
      "velocity": 79,
      "chip": "ym2612"
    },
    {
      "channel": 4,
      "note": 59,
      "start": 24.1585,
      "duration": 0.0949,
      "velocity": 79,
      "chip": "ym2612"
    },
    {
      "channel": 5,
      "note": 76,
      "start": 24.2908,
      "duration": 0.063,
      "velocity": 119,
      "chip": "ym2612"
    },
    {
      "channel": 4,
      "note": 36,
      "start": 24.2933,
      "duration": 0.1272,
      "velocity": 92,
      "chip": "ym2612"
    },
    {
      "channel": 0,
      "note": 60,
      "start": 24.4406,
      "duration": 0.1127,
      "velocity": 79,
      "chip": "ym2612"
    },
    {
      "channel": 5,
      "note": 57,
      "start": 24.4427,
      "duration": 0.1111,
      "velocity": 79,
      "chip": "ym2612"
    },
    {
      "channel": 4,
      "note": 48,
      "start": 24.445,
      "duration": 0.0018,
      "velocity": 92,
      "chip": "ym2612"
    },
    {
      "channel": 4,
      "note": 45,
      "start": 24.4483,
      "duration": 0.0388,
      "velocity": 119,
      "chip": "ym2612"
    },
    {
      "channel": 4,
      "note": 72,
      "start": 24.5909,
      "duration": 0.0462,
      "velocity": 119,
      "chip": "ym2612"
    },
    {
      "channel": 0,
      "note": 45,
      "start": 24.5934,
      "duration": 0.06,
      "velocity": 92,
      "chip": "ym2612"
    },
    {
      "channel": 5,
      "note": 60,
      "start": 24.7408,
      "duration": 0.1464,
      "velocity": 79,
      "chip": "ym2612"
    },
    {
      "channel": 4,
      "note": 57,
      "start": 24.7436,
      "duration": 0.1434,
      "velocity": 79,
      "chip": "ym2612"
    },
    {
      "channel": 0,
      "note": 38,
      "start": 24.7459,
      "duration": 0.124,
      "velocity": 92,
      "chip": "ym2612"
    },
    {
      "channel": 0,
      "note": 71,
      "start": 24.8912,
      "duration": 0.0307,
      "velocity": 119,
      "chip": "ym2612"
    },
    {
      "channel": 4,
      "note": 50,
      "start": 24.8936,
      "duration": 0.0359,
      "velocity": 92,
      "chip": "ym2612"
    },
    {
      "channel": 0,
      "note": 62,
      "start": 24.96,
      "duration": 0.0405,
      "velocity": 79,
      "chip": "ym2612"
    },
    {
      "channel": 4,
      "note": 59,
      "start": 24.9627,
      "duration": 0.038,
      "velocity": 79,
      "chip": "ym2612"
    },
    {
      "channel": 1,
      "note": 72,
      "start": 25.0176,
      "duration": 0.0681,
      "velocity": 119,
      "chip": "ym2612"
    },
    {
      "channel": 3,
      "note": 48,
      "start": 25.0198,
      "duration": 0.0994,
      "velocity": 92,
      "chip": "ym2612"
    },
    {
      "channel": 0,
      "note": 62,
      "start": 25.1561,
      "duration": 0.1462,
      "velocity": 79,
      "chip": "ym2612"
    },
    {
      "channel": 4,
      "note": 59,
      "start": 25.1583,
      "duration": 0.1445,
      "velocity": 79,
      "chip": "ym2612"
    },
    {
      "channel": 3,
      "note": 33,
      "start": 25.1605,
      "duration": 0.1086,
      "velocity": 92,
      "chip": "ym2612"
    },
    {
      "channel": 1,
      "note": 76,
      "start": 25.3071,
      "duration": 0.0621,
      "velocity": 119,
      "chip": "ym2612"
    },
    {
      "channel": 3,
      "note": 45,
      "start": 25.3094,
      "duration": 0.0929,
      "velocity": 92,
      "chip": "ym2612"
    },
    {
      "channel": 2,
      "note": 80,
      "start": 25.3117,
      "duration": 0.0741,
      "velocity": 96,
      "chip": "ym2612"
    },
    {
      "channel": 0,
      "note": 64,
      "start": 25.4568,
      "duration": 0.1121,
      "velocity": 79,
      "chip": "ym2612"
    },
    {
      "channel": 4,
      "note": 61,
      "start": 25.4593,
      "duration": 0.1264,
      "velocity": 79,
      "chip": "ym2612"
    },
    {
      "channel": 5,
      "note": 90,
      "start": 25.4619,
      "duration": 1.1908,
      "velocity": 100,
      "chip": "ym2612"
    },
    {
      "channel": 1,
      "note": 100,
      "start": 25.4639,
      "duration": 1.1884,
      "velocity": 100,
      "chip": "ym2612"
    },
    {
      "channel": 2,
      "note": 95,
      "start": 25.4663,
      "duration": 1.1865,
      "velocity": 100,
      "chip": "ym2612"
    },
    {
      "channel": 3,
      "note": 54,
      "start": 25.4684,
      "duration": 0.0673,
      "velocity": 92,
      "chip": "ym2612"
    },
    {
      "channel": 3,
      "note": 78,
      "start": 25.6064,
      "duration": 0.0459,
      "velocity": 119,
      "chip": "ym2612"
    },
    {
      "channel": 0,
      "note": 54,
      "start": 25.6089,
      "duration": 0.0767,
      "velocity": 92,
      "chip": "ym2612"
    },
    {
      "channel": 0,
      "note": 42,
      "start": 25.7566,
      "duration": 0.0957,
      "velocity": 92,
      "chip": "ym2612"
    },
    {
      "channel": 3,
      "note": 76,
      "start": 25.9062,
      "duration": 0.0464,
      "velocity": 119,
      "chip": "ym2612"
    },
    {
      "channel": 0,
      "note": 49,
      "start": 25.909,
      "duration": 0.0767,
      "velocity": 92,
      "chip": "ym2612"
    },
    {
      "channel": 0,
      "note": 42,
      "start": 26.0567,
      "duration": 0.0956,
      "velocity": 92,
      "chip": "ym2612"
    },
    {
      "channel": 3,
      "note": 73,
      "start": 26.1897,
      "duration": 0.0627,
      "velocity": 119,
      "chip": "ym2612"
    },
    {
      "channel": 0,
      "note": 52,
      "start": 26.1919,
      "duration": 0.0938,
      "velocity": 92,
      "chip": "ym2612"
    },
    {
      "channel": 0,
      "note": 52,
      "start": 26.3398,
      "duration": 0.0958,
      "velocity": 92,
      "chip": "ym2612"
    },
    {
      "channel": 3,
      "note": 71,
      "start": 26.4898,
      "duration": 0.0796,
      "velocity": 119,
      "chip": "ym2612"
    },
    {
      "channel": 0,
      "note": 42,
      "start": 26.4918,
      "duration": 0.0938,
      "velocity": 92,
      "chip": "ym2612"
    },
    {
      "channel": 0,
      "note": 47,
      "start": 26.6399,
      "duration": 0.129,
      "velocity": 92,
      "chip": "ym2612"
    },
    {
      "channel": 3,
      "note": 73,
      "start": 26.7898,
      "duration": 0.1296,
      "velocity": 119,
      "chip": "ym2612"
    },
    {
      "channel": 0,
      "note": 40,
      "start": 26.792,
      "duration": 0.1437,
      "velocity": 92,
      "chip": "ym2612"
    },
    {
      "channel": 0,
      "note": 45,
      "start": 26.9401,
      "duration": 0.0955,
      "velocity": 92,
      "chip": "ym2612"
    },
    {
      "channel": 3,
      "note": 76,
      "start": 27.0898,
      "duration": 0.0461,
      "velocity": 119,
      "chip": "ym2612"
    },
    {
      "channel": 0,
      "note": 47,
      "start": 27.092,
      "duration": 0.077,
      "velocity": 92,
      "chip": "ym2612"
    },
    {
      "channel": 2,
      "note": 80,
      "start": 27.0943,
      "duration": 0.0584,
      "velocity": 96,
      "chip": "ym2612"
    },
    {
      "channel": 1,
      "note": 88,
      "start": 27.2232,
      "duration": 1.1959,
      "velocity": 100,
      "chip": "ym2612"
    },
    {
      "channel": 5,
      "note": 86,
      "start": 27.2252,
      "duration": 1.1944,
      "velocity": 100,
      "chip": "ym2612"
    },
    {
      "channel": 4,
      "note": 93,
      "start": 27.228,
      "duration": 1.1913,
      "velocity": 100,
      "chip": "ym2612"
    },
    {
      "channel": 0,
      "note": 38,
      "start": 27.2303,
      "duration": 0.0553,
      "velocity": 92,
      "chip": "ym2612"
    },
    {
      "channel": 2,
      "note": 80,
      "start": 27.2334,
      "duration": 0.0527,
      "velocity": 96,
      "chip": "ym2612"
    },
    {
      "channel": 3,
      "note": 66,
      "start": 27.3732,
      "duration": 0.0625,
      "velocity": 79,
      "chip": "ym2612"
    },
    {
      "channel": 0,
      "note": 62,
      "start": 27.3757,
      "duration": 0.0599,
      "velocity": 79,
      "chip": "ym2612"
    },
    {
      "channel": 2,
      "note": 78,
      "start": 27.3778,
      "duration": 0.001,
      "velocity": 119,
      "chip": "ym2612"
    },
    {
      "channel": 2,
      "note": 80,
      "start": 27.3803,
      "duration": 0.0559,
      "velocity": 96,
      "chip": "ym2612"
    },
    {
      "channel": 3,
      "note": 66,
      "start": 27.523,
      "duration": 0.113,
      "velocity": 79,
      "chip": "ym2612"
    },
    {
      "channel": 0,
      "note": 62,
      "start": 27.5252,
      "duration": 0.1104,
      "velocity": 79,
      "chip": "ym2612"
    },
    {
      "channel": 2,
      "note": 43,
      "start": 27.528,
      "duration": 0.0007,
      "velocity": 92,
      "chip": "ym2612"
    },
    {
      "channel": 2,
      "note": 80,
      "start": 27.5302,
      "duration": 0.0559,
      "velocity": 96,
      "chip": "ym2612"
    },
    {
      "channel": 2,
      "note": 76,
      "start": 27.6732,
      "duration": 0.0033,
      "velocity": 119,
      "chip": "ym2612"
    },
    {
      "channel": 0,
      "note": 36,
      "start": 27.6757,
      "duration": 0.1266,
      "velocity": 92,
      "chip": "ym2612"
    },
    {
      "channel": 2,
      "note": 81,
      "start": 27.678,
      "duration": 0.0415,
      "velocity": 27,
      "chip": "ym2612"
    },
    {
      "channel": 3,
      "note": 64,
      "start": 27.8229,
      "duration": 0.0795,
      "velocity": 79,
      "chip": "ym2612"
    },
    {
      "channel": 2,
      "note": 60,
      "start": 27.8253,
      "duration": 0.0776,
      "velocity": 79,
      "chip": "ym2612"
    },
    {
      "channel": 0,
      "note": 48,
      "start": 27.8275,
      "duration": 0.1248,
      "velocity": 92,
      "chip": "ym2612"
    },
    {
      "channel": 3,
      "note": 72,
      "start": 27.9733,
      "duration": 0.0627,
      "velocity": 119,
      "chip": "ym2612"
    },
    {
      "channel": 0,
      "note": 45,
      "start": 27.9756,
      "duration": 0.0601,
      "velocity": 92,
      "chip": "ym2612"
    },
    {
      "channel": 2,
      "note": 81,
      "start": 27.9785,
      "duration": 0.0243,
      "velocity": 27,
      "chip": "ym2612"
    },
    {
      "channel": 2,
      "note": 64,
      "start": 28.1232,
      "duration": 0.113,
      "velocity": 79,
      "chip": "ym2612"
    },
    {
      "channel": 0,
      "note": 60,
      "start": 28.1254,
      "duration": 0.1101,
      "velocity": 79,
      "chip": "ym2612"
    },
    {
      "channel": 3,
      "note": 38,
      "start": 28.128,
      "duration": 0.1077,
      "velocity": 92,
      "chip": "ym2612"
    },
    {
      "channel": 0,
      "note": 69,
      "start": 28.2732,
      "duration": 0.0457,
      "velocity": 119,
      "chip": "ym2612"
    },
    {
      "channel": 3,
      "note": 50,
      "start": 28.2756,
      "duration": 0.0768,
      "velocity": 92,
      "chip": "ym2612"
    },
    {
      "channel": 2,
      "note": 80,
      "start": 28.2784,
      "duration": 0.0078,
      "velocity": 96,
      "chip": "ym2612"
    },
    {
      "channel": 2,
      "note": 66,
      "start": 28.4065,
      "duration": 0.1129,
      "velocity": 79,
      "chip": "ym2612"
    },
    {
      "channel": 0,
      "note": 62,
      "start": 28.4088,
      "duration": 0.0935,
      "velocity": 79,
      "chip": "ym2612"
    },
    {
      "channel": 3,
      "note": 36,
      "start": 28.4117,
      "duration": 0.1072,
      "velocity": 92,
      "chip": "ym2612"
    },
    {
      "channel": 1,
      "note": 72,
      "start": 28.5565,
      "duration": 0.0958,
      "velocity": 119,
      "chip": "ym2612"
    },
    {
      "channel": 3,
      "note": 48,
      "start": 28.5587,
      "duration": 0.1103,
      "velocity": 92,
      "chip": "ym2612"
    },
    {
      "channel": 2,
      "note": 66,
      "start": 28.7065,
      "duration": 0.1296,
      "velocity": 79,
      "chip": "ym2612"
    },
    {
      "channel": 0,
      "note": 62,
      "start": 28.7085,
      "duration": 0.1105,
      "velocity": 79,
      "chip": "ym2612"
    },
    {
      "channel": 3,
      "note": 33,
      "start": 28.7108,
      "duration": 0.1086,
      "velocity": 92,
      "chip": "ym2612"
    },
    {
      "channel": 1,
      "note": 76,
      "start": 28.8564,
      "duration": 0.0459,
      "velocity": 119,
      "chip": "ym2612"
    },
    {
      "channel": 3,
      "note": 45,
      "start": 28.8587,
      "duration": 0.0937,
      "velocity": 92,
      "chip": "ym2612"
    },
    {
      "channel": 2,
      "note": 68,
      "start": 29.0067,
      "duration": 0.1128,
      "velocity": 79,
      "chip": "ym2612"
    },
    {
      "channel": 0,
      "note": 64,
      "start": 29.0089,
      "duration": 0.11,
      "velocity": 79,
      "chip": "ym2612"
    },
    {
      "channel": 4,
      "note": 90,
      "start": 29.0112,
      "duration": 1.1914,
      "velocity": 100,
      "chip": "ym2612"
    },
    {
      "channel": 5,
      "note": 88,
      "start": 29.0132,
      "duration": 1.1896,
      "velocity": 100,
      "chip": "ym2612"
    },
    {
      "channel": 1,
      "note": 95,
      "start": 29.0156,
      "duration": 1.1867,
      "velocity": 100,
      "chip": "ym2612"
    },
    {
      "channel": 3,
      "note": 52,
      "start": 29.0177,
      "duration": 0.0514,
      "velocity": 92,
      "chip": "ym2612"
    },
    {
      "channel": 3,
      "note": 78,
      "start": 29.1564,
      "duration": 0.0459,
      "velocity": 119,
      "chip": "ym2612"
    },
    {
      "channel": 0,
      "note": 52,
      "start": 29.159,
      "duration": 0.0766,
      "velocity": 92,
      "chip": "ym2612"
    },
    {
      "channel": 2,
      "note": 80,
      "start": 29.1612,
      "duration": 0.0415,
      "velocity": 96,
      "chip": "ym2612"
    },
    {
      "channel": 0,
      "note": 40,
      "start": 29.3066,
      "duration": 0.0956,
      "velocity": 92,
      "chip": "ym2612"
    },
    {
      "channel": 2,
      "note": 80,
      "start": 29.309,
      "duration": 0.0271,
      "velocity": 96,
      "chip": "ym2612"
    },
    {
      "channel": 3,
      "note": 76,
      "start": 29.4398,
      "duration": 0.0796,
      "velocity": 119,
      "chip": "ym2612"
    },
    {
      "channel": 0,
      "note": 47,
      "start": 29.442,
      "duration": 0.0938,
      "velocity": 92,
      "chip": "ym2612"
    },
    {
      "channel": 2,
      "note": 81,
      "start": 29.4441,
      "duration": 0.0421,
      "velocity": 27,
      "chip": "ym2612"
    },
    {
      "channel": 0,
      "note": 40,
      "start": 29.5899,
      "duration": 0.1123,
      "velocity": 92,
      "chip": "ym2612"
    },
    {
      "channel": 2,
      "note": 81,
      "start": 29.5919,
      "duration": 0.0442,
      "velocity": 27,
      "chip": "ym2612"
    },
    {
      "channel": 3,
      "note": 73,
      "start": 29.7399,
      "duration": 0.0629,
      "velocity": 119,
      "chip": "ym2612"
    },
    {
      "channel": 0,
      "note": 50,
      "start": 29.7421,
      "duration": 0.0935,
      "velocity": 92,
      "chip": "ym2612"
    },
    {
      "channel": 2,
      "note": 81,
      "start": 29.7443,
      "duration": 0.0251,
      "velocity": 27,
      "chip": "ym2612"
    },
    {
      "channel": 0,
      "note": 50,
      "start": 29.8898,
      "duration": 0.0957,
      "velocity": 92,
      "chip": "ym2612"
    },
    {
      "channel": 3,
      "note": 81,
      "start": 30.0395,
      "duration": 0.0462,
      "velocity": 119,
      "chip": "ym2612"
    },
    {
      "channel": 0,
      "note": 40,
      "start": 30.0417,
      "duration": 0.0773,
      "velocity": 92,
      "chip": "ym2612"
    },
    {
      "channel": 2,
      "note": 80,
      "start": 30.0448,
      "duration": 0.0246,
      "velocity": 96,
      "chip": "ym2612"
    },
    {
      "channel": 0,
      "note": 45,
      "start": 30.1899,
      "duration": 0.1291,
      "velocity": 92,
      "chip": "ym2612"
    },
    {
      "channel": 2,
      "note": 80,
      "start": 30.1923,
      "duration": 0.0438,
      "velocity": 96,
      "chip": "ym2612"
    },
    {
      "channel": 3,
      "note": 76,
      "start": 30.3397,
      "duration": 0.0628,
      "velocity": 119,
      "chip": "ym2612"
    },
    {
      "channel": 0,
      "note": 38,
      "start": 30.3419,
      "duration": 0.1438,
      "velocity": 92,
      "chip": "ym2612"
    },
    {
      "channel": 0,
      "note": 43,
      "start": 30.4901,
      "duration": 0.0956,
      "velocity": 92,
      "chip": "ym2612"
    },
    {
      "channel": 3,
      "note": 78,
      "start": 30.6231,
      "duration": 0.0629,
      "velocity": 119,
      "chip": "ym2612"
    },
    {
      "channel": 0,
      "note": 45,
      "start": 30.6253,
      "duration": 0.0938,
      "velocity": 92,
      "chip": "ym2612"
    },
    {
      "channel": 1,
      "note": 93,
      "start": 30.7732,
      "duration": 1.1959,
      "velocity": 100,
      "chip": "ym2612"
    },
    {
      "channel": 4,
      "note": 88,
      "start": 30.7751,
      "duration": 1.1943,
      "velocity": 100,
      "chip": "ym2612"
    },
    {
      "channel": 5,
      "note": 86,
      "start": 30.7773,
      "duration": 1.1922,
      "velocity": 100,
      "chip": "ym2612"
    },
    {
      "channel": 0,
      "note": 38,
      "start": 30.7796,
      "duration": 0.056,
      "velocity": 92,
      "chip": "ym2612"
    },
    {
      "channel": 2,
      "note": 62,
      "start": 30.9233,
      "duration": 0.0795,
      "velocity": 79,
      "chip": "ym2612"
    },
    {
      "channel": 3,
      "note": 59,
      "start": 30.9258,
      "duration": 0.0767,
      "velocity": 79,
      "chip": "ym2612"
    },
    {
      "channel": 0,
      "note": 78,
      "start": 30.9279,
      "duration": 0.041,
      "velocity": 119,
      "chip": "ym2612"
    },
    {
      "channel": 2,
      "note": 62,
      "start": 31.0733,
      "duration": 0.0462,
      "velocity": 79,
      "chip": "ym2612"
    },
    {
      "channel": 3,
      "note": 59,
      "start": 31.0756,
      "duration": 0.0434,
      "velocity": 79,
      "chip": "ym2612"
    },
    {
      "channel": 0,
      "note": 43,
      "start": 31.0787,
      "duration": 0.1069,
      "velocity": 92,
      "chip": "ym2612"
    },
    {
      "channel": 3,
      "note": 76,
      "start": 31.2236,
      "duration": 0.0457,
      "velocity": 119,
      "chip": "ym2612"
    },
    {
      "channel": 0,
      "note": 36,
      "start": 31.2258,
      "duration": 0.1265,
      "velocity": 92,
      "chip": "ym2612"
    },
    {
      "channel": 2,
      "note": 81,
      "start": 31.228,
      "duration": 0.0249,
      "velocity": 27,
      "chip": "ym2612"
    },
    {
      "channel": 2,
      "note": 60,
      "start": 31.3732,
      "duration": 0.0964,
      "velocity": 79,
      "chip": "ym2612"
    },
    {
      "channel": 3,
      "note": 57,
      "start": 31.3759,
      "duration": 0.0768,
      "velocity": 79,
      "chip": "ym2612"
    },
    {
      "channel": 0,
      "note": 48,
      "start": 31.3781,
      "duration": 0.1075,
      "velocity": 92,
      "chip": "ym2612"
    },
    {
      "channel": 3,
      "note": 72,
      "start": 31.5232,
      "duration": 0.0459,
      "velocity": 119,
      "chip": "ym2612"
    },
    {
      "channel": 0,
      "note": 45,
      "start": 31.5254,
      "duration": 0.0602,
      "velocity": 92,
      "chip": "ym2612"
    },
    {
      "channel": 2,
      "note": 81,
      "start": 31.5277,
      "duration": 0.0418,
      "velocity": 27,
      "chip": "ym2612"
    },
    {
      "channel": 3,
      "note": 60,
      "start": 31.6564,
      "duration": 0.1293,
      "velocity": 79,
      "chip": "ym2612"
    },
    {
      "channel": 2,
      "note": 57,
      "start": 31.6588,
      "duration": 0.1106,
      "velocity": 79,
      "chip": "ym2612"
    },
    {
      "channel": 0,
      "note": 38,
      "start": 31.6611,
      "duration": 0.1244,
      "velocity": 92,
      "chip": "ym2612"
    },
    {
      "channel": 2,
      "note": 71,
      "start": 31.8067,
      "duration": 0.0036,
      "velocity": 119,
      "chip": "ym2612"
    },
    {
      "channel": 0,
      "note": 50,
      "start": 31.8089,
      "duration": 0.0934,
      "velocity": 92,
      "chip": "ym2612"
    },
    {
      "channel": 2,
      "note": 80,
      "start": 31.8117,
      "duration": 0.041,
      "velocity": 96,
      "chip": "ym2612"
    },
    {
      "channel": 3,
      "note": 62,
      "start": 31.9565,
      "duration": 0.1291,
      "velocity": 79,
      "chip": "ym2612"
    },
    {
      "channel": 2,
      "note": 59,
      "start": 31.9588,
      "duration": 0.1107,
      "velocity": 79,
      "chip": "ym2612"
    },
    {
      "channel": 0,
      "note": 36,
      "start": 31.961,
      "duration": 0.1079,
      "velocity": 92,
      "chip": "ym2612"
    },
    {
      "channel": 1,
      "note": 72,
      "start": 32.1064,
      "duration": 0.0627,
      "velocity": 119,
      "chip": "ym2612"
    },
    {
      "channel": 0,
      "note": 48,
      "start": 32.1085,
      "duration": 0.1104,
      "velocity": 92,
      "chip": "ym2612"
    },
    {
      "channel": 3,
      "note": 62,
      "start": 32.2563,
      "duration": 0.163,
      "velocity": 79,
      "chip": "ym2612"
    },
    {
      "channel": 2,
      "note": 59,
      "start": 32.2586,
      "duration": 0.1441,
      "velocity": 79,
      "chip": "ym2612"
    },
    {
      "channel": 0,
      "note": 33,
      "start": 32.2608,
      "duration": 0.1082,
      "velocity": 92,
      "chip": "ym2612"
    },
    {
      "channel": 1,
      "note": 76,
      "start": 32.4066,
      "duration": 0.0457,
      "velocity": 119,
      "chip": "ym2612"
    },
    {
      "channel": 0,
      "note": 45,
      "start": 32.4088,
      "duration": 0.077,
      "velocity": 92,
      "chip": "ym2612"
    },
    {
      "channel": 2,
      "note": 80,
      "start": 32.4117,
      "duration": 0.0578,
      "velocity": 96,
      "chip": "ym2612"
    },
    {
      "channel": 0,
      "note": 54,
      "start": 32.57,
      "duration": 0.0823,
      "velocity": 127,
      "chip": "ym2612"
    },
    {
      "channel": 2,
      "note": 80,
      "start": 32.6901,
      "duration": 0.0623,
      "velocity": 96,
      "chip": "ym2612"
    },
    {
      "channel": 0,
      "note": 59,
      "start": 32.8399,
      "duration": 0.1124,
      "velocity": 127,
      "chip": "ym2612"
    },
    {
      "channel": 2,
      "note": 80,
      "start": 32.8421,
      "duration": 0.0606,
      "velocity": 96,
      "chip": "ym2612"
    },
    {
      "channel": 4,
      "note": 45,
      "start": 32.8445,
      "duration": 0.1245,
      "velocity": 119,
      "chip": "ym2612"
    },
    {
      "channel": 0,
      "note": 52,
      "start": 32.9899,
      "duration": 0.1291,
      "velocity": 127,
      "chip": "ym2612"
    },
    {
      "channel": 0,
      "note": 64,
      "start": 33.1398,
      "duration": 0.1291,
      "velocity": 127,
      "chip": "ym2612"
    },
    {
      "channel": 4,
      "note": 45,
      "start": 33.1427,
      "duration": 0.1931,
      "velocity": 119,
      "chip": "ym2612"
    },
    {
      "channel": 0,
      "note": 61,
      "start": 33.29,
      "duration": 0.0623,
      "velocity": 127,
      "chip": "ym2612"
    },
    {
      "channel": 0,
      "note": 66,
      "start": 33.5898,
      "duration": 0.0625,
      "velocity": 127,
      "chip": "ym2612"
    },
    {
      "channel": 2,
      "note": 80,
      "start": 33.592,
      "duration": 0.044,
      "velocity": 96,
      "chip": "ym2612"
    },
    {
      "channel": 2,
      "note": 80,
      "start": 33.7401,
      "duration": 0.0456,
      "velocity": 96,
      "chip": "ym2612"
    },
    {
      "channel": 0,
      "note": 64,
      "start": 33.8732,
      "duration": 0.0957,
      "velocity": 127,
      "chip": "ym2612"
    },
    {
      "channel": 0,
      "note": 61,
      "start": 34.1733,
      "duration": 0.0789,
      "velocity": 127,
      "chip": "ym2612"
    },
    {
      "channel": 0,
      "note": 54,
      "start": 34.3233,
      "duration": 0.0434,
      "velocity": 127,
      "chip": "ym2612"
    },
    {
      "channel": 2,
      "note": 80,
      "start": 34.3937,
      "duration": 0.0184,
      "velocity": 96,
      "chip": "ym2612"
    },
    {
      "channel": 0,
      "note": 59,
      "start": 34.4997,
      "duration": 0.0956,
      "velocity": 127,
      "chip": "ym2612"
    },
    {
      "channel": 2,
      "note": 80,
      "start": 34.5019,
      "duration": 0.0438,
      "velocity": 96,
      "chip": "ym2612"
    },
    {
      "channel": 4,
      "note": 45,
      "start": 34.5043,
      "duration": 0.1244,
      "velocity": 119,
      "chip": "ym2612"
    },
    {
      "channel": 0,
      "note": 52,
      "start": 34.6495,
      "duration": 0.1124,
      "velocity": 127,
      "chip": "ym2612"
    },
    {
      "channel": 0,
      "note": 64,
      "start": 34.7829,
      "duration": 0.1124,
      "velocity": 127,
      "chip": "ym2612"
    },
    {
      "channel": 4,
      "note": 45,
      "start": 34.7858,
      "duration": 0.1932,
      "velocity": 119,
      "chip": "ym2612"
    },
    {
      "channel": 0,
      "note": 59,
      "start": 34.9336,
      "duration": 0.095,
      "velocity": 127,
      "chip": "ym2612"
    },
    {
      "channel": 0,
      "note": 51,
      "start": 35.2329,
      "duration": 0.1291,
      "velocity": 127,
      "chip": "ym2612"
    },
    {
      "channel": 2,
      "note": 80,
      "start": 35.2351,
      "duration": 0.0439,
      "velocity": 96,
      "chip": "ym2612"
    },
    {
      "channel": 2,
      "note": 80,
      "start": 35.3832,
      "duration": 0.0459,
      "velocity": 96,
      "chip": "ym2612"
    },
    {
      "channel": 0,
      "note": 52,
      "start": 35.5329,
      "duration": 0.1457,
      "velocity": 127,
      "chip": "ym2612"
    },
    {
      "channel": 0,
      "note": 49,
      "start": 35.833,
      "duration": 0.0956,
      "velocity": 127,
      "chip": "ym2612"
    },
    {
      "channel": 0,
      "note": 54,
      "start": 35.9663,
      "duration": 0.0439,
      "velocity": 127,
      "chip": "ym2612"
    },
    {
      "channel": 2,
      "note": 80,
      "start": 36.0347,
      "duration": 0.0099,
      "velocity": 96,
      "chip": "ym2612"
    },
    {
      "channel": 0,
      "note": 59,
      "start": 36.1398,
      "duration": 0.1289,
      "velocity": 127,
      "chip": "ym2612"
    },
    {
      "channel": 2,
      "note": 80,
      "start": 36.142,
      "duration": 0.0272,
      "velocity": 96,
      "chip": "ym2612"
    },
    {
      "channel": 4,
      "note": 45,
      "start": 36.1444,
      "duration": 0.1245,
      "velocity": 119,
      "chip": "ym2612"
    },
    {
      "channel": 0,
      "note": 52,
      "start": 36.2895,
      "duration": 0.1292,
      "velocity": 127,
      "chip": "ym2612"
    },
    {
      "channel": 0,
      "note": 64,
      "start": 36.4396,
      "duration": 0.1125,
      "velocity": 127,
      "chip": "ym2612"
    },
    {
      "channel": 4,
      "note": 45,
      "start": 36.4425,
      "duration": 0.1429,
      "velocity": 119,
      "chip": "ym2612"
    },
    {
      "channel": 0,
      "note": 61,
      "start": 36.5898,
      "duration": 0.0622,
      "velocity": 127,
      "chip": "ym2612"
    },
    {
      "channel": 2,
      "note": 80,
      "start": 36.5922,
      "duration": 0.0603,
      "velocity": 96,
      "chip": "ym2612"
    },
    {
      "channel": 0,
      "note": 66,
      "start": 36.8729,
      "duration": 0.0791,
      "velocity": 127,
      "chip": "ym2612"
    },
    {
      "channel": 2,
      "note": 80,
      "start": 36.8752,
      "duration": 0.0436,
      "velocity": 96,
      "chip": "ym2612"
    },
    {
      "channel": 2,
      "note": 80,
      "start": 37.0234,
      "duration": 0.0621,
      "velocity": 96,
      "chip": "ym2612"
    },
    {
      "channel": 0,
      "note": 64,
      "start": 37.173,
      "duration": 0.0958,
      "velocity": 127,
      "chip": "ym2612"
    },
    {
      "channel": 0,
      "note": 61,
      "start": 37.4732,
      "duration": 0.0455,
      "velocity": 127,
      "chip": "ym2612"
    },
    {
      "channel": 0,
      "note": 69,
      "start": 37.623,
      "duration": 0.0432,
      "velocity": 127,
      "chip": "ym2612"
    },
    {
      "channel": 0,
      "note": 66,
      "start": 37.691,
      "duration": 0.0509,
      "velocity": 127,
      "chip": "ym2612"
    },
    {
      "channel": 2,
      "note": 80,
      "start": 37.6931,
      "duration": 0.016,
      "velocity": 96,
      "chip": "ym2612"
    },
    {
      "channel": 0,
      "note": 64,
      "start": 37.7961,
      "duration": 0.0624,
      "velocity": 127,
      "chip": "ym2612"
    },
    {
      "channel": 2,
      "note": 80,
      "start": 37.7983,
      "duration": 0.044,
      "velocity": 96,
      "chip": "ym2612"
    },
    {
      "channel": 4,
      "note": 45,
      "start": 37.8007,
      "duration": 0.0745,
      "velocity": 119,
      "chip": "ym2612"
    },
    {
      "channel": 0,
      "note": 66,
      "start": 37.93,
      "duration": 0.1119,
      "velocity": 127,
      "chip": "ym2612"
    },
    {
      "channel": 0,
      "note": 64,
      "start": 38.0793,
      "duration": 0.1125,
      "velocity": 127,
      "chip": "ym2612"
    },
    {
      "channel": 4,
      "note": 45,
      "start": 38.082,
      "duration": 0.1266,
      "velocity": 119,
      "chip": "ym2612"
    },
    {
      "channel": 0,
      "note": 61,
      "start": 38.2294,
      "duration": 0.0457,
      "velocity": 127,
      "chip": "ym2612"
    },
    {
      "channel": 0,
      "note": 49,
      "start": 38.3794,
      "duration": 0.1291,
      "velocity": 127,
      "chip": "ym2612"
    },
    {
      "channel": 0,
      "note": 61,
      "start": 38.5293,
      "duration": 0.1292,
      "velocity": 127,
      "chip": "ym2612"
    },
    {
      "channel": 2,
      "note": 80,
      "start": 38.5317,
      "duration": 0.0273,
      "velocity": 96,
      "chip": "ym2612"
    },
    {
      "channel": 4,
      "note": 45,
      "start": 38.5341,
      "duration": 0.1078,
      "velocity": 119,
      "chip": "ym2612"
    },
    {
      "channel": 0,
      "note": 49,
      "start": 38.6793,
      "duration": 0.1125,
      "velocity": 127,
      "chip": "ym2612"
    },
    {
      "channel": 2,
      "note": 80,
      "start": 38.6817,
      "duration": 0.0439,
      "velocity": 96,
      "chip": "ym2612"
    },
    {
      "channel": 0,
      "note": 52,
      "start": 38.8294,
      "duration": 0.1124,
      "velocity": 127,
      "chip": "ym2612"
    },
    {
      "channel": 0,
      "note": 64,
      "start": 38.9628,
      "duration": 0.1457,
      "velocity": 127,
      "chip": "ym2612"
    },
    {
      "channel": 0,
      "note": 57,
      "start": 39.1128,
      "duration": 0.129,
      "velocity": 127,
      "chip": "ym2612"
    },
    {
      "channel": 4,
      "note": 45,
      "start": 39.116,
      "duration": 0.0092,
      "velocity": 119,
      "chip": "ym2612"
    },
    {
      "channel": 1,
      "note": 73,
      "start": 39.2634,
      "duration": 1.49,
      "velocity": 67,
      "chip": "ym2612"
    },
    {
      "channel": 0,
      "note": 54,
      "start": 39.2656,
      "duration": 0.0283,
      "velocity": 127,
      "chip": "ym2612"
    },
    {
      "channel": 2,
      "note": 80,
      "start": 39.3326,
      "duration": 0.0179,
      "velocity": 96,
      "chip": "ym2612"
    },
    {
      "channel": 0,
      "note": 59,
      "start": 39.3956,
      "duration": 0.1098,
      "velocity": 127,
      "chip": "ym2612"
    },
    {
      "channel": 2,
      "note": 80,
      "start": 39.3978,
      "duration": 0.0413,
      "velocity": 96,
      "chip": "ym2612"
    },
    {
      "channel": 4,
      "note": 45,
      "start": 39.4002,
      "duration": 0.072,
      "velocity": 119,
      "chip": "ym2612"
    },
    {
      "channel": 0,
      "note": 52,
      "start": 39.543,
      "duration": 0.1291,
      "velocity": 127,
      "chip": "ym2612"
    },
    {
      "channel": 0,
      "note": 64,
      "start": 39.6929,
      "duration": 0.1125,
      "velocity": 127,
      "chip": "ym2612"
    },
    {
      "channel": 2,
      "note": 80,
      "start": 39.6952,
      "duration": 0.0105,
      "velocity": 96,
      "chip": "ym2612"
    },
    {
      "channel": 4,
      "note": 45,
      "start": 39.6977,
      "duration": 0.0912,
      "velocity": 119,
      "chip": "ym2612"
    },
    {
      "channel": 0,
      "note": 61,
      "start": 39.8432,
      "duration": 0.0622,
      "velocity": 127,
      "chip": "ym2612"
    },
    {
      "channel": 2,
      "note": 80,
      "start": 39.8456,
      "duration": 0.0604,
      "velocity": 96,
      "chip": "ym2612"
    },
    {
      "channel": 0,
      "note": 66,
      "start": 40.0432,
      "duration": 0.0339,
      "velocity": 127,
      "chip": "ym2612"
    },
    {
      "channel": 2,
      "note": 80,
      "start": 40.0452,
      "duration": 0.0252,
      "velocity": 96,
      "chip": "ym2612"
    },
    {
      "channel": 4,
      "note": 45,
      "start": 40.0473,
      "duration": 0.03,
      "velocity": 119,
      "chip": "ym2612"
    },
    {
      "channel": 2,
      "note": 80,
      "start": 40.1441,
      "duration": 0.0459,
      "velocity": 96,
      "chip": "ym2612"
    },
    {
      "channel": 0,
      "note": 64,
      "start": 40.2938,
      "duration": 0.0957,
      "velocity": 127,
      "chip": "ym2612"
    },
    {
      "channel": 0,
      "note": 61,
      "start": 40.5939,
      "duration": 0.0622,
      "velocity": 127,
      "chip": "ym2612"
    },
    {
      "channel": 4,
      "note": 45,
      "start": 40.5965,
      "duration": 0.0601,
      "velocity": 119,
      "chip": "ym2612"
    },
    {
      "channel": 3,
      "note": 76,
      "start": 40.7441,
      "duration": 1.4136,
      "velocity": 67,
      "chip": "ym2612"
    },
    {
      "channel": 0,
      "note": 54,
      "start": 40.7469,
      "duration": 0.0362,
      "velocity": 127,
      "chip": "ym2612"
    },
    {
      "channel": 2,
      "note": 54,
      "start": 40.8056,
      "duration": 0.0254,
      "velocity": 79,
      "chip": "ym2612"
    },
    {
      "channel": 2,
      "note": 54,
      "start": 40.8686,
      "duration": 0.0684,
      "velocity": 79,
      "chip": "ym2612"
    },
    {
      "channel": 0,
      "note": 59,
      "start": 40.8719,
      "duration": 0.098,
      "velocity": 127,
      "chip": "ym2612"
    },
    {
      "channel": 4,
      "note": 45,
      "start": 40.875,
      "duration": 0.0617,
      "velocity": 119,
      "chip": "ym2612"
    },
    {
      "channel": 2,
      "note": 57,
      "start": 41.0072,
      "duration": 0.0798,
      "velocity": 79,
      "chip": "ym2612"
    },
    {
      "channel": 0,
      "note": 52,
      "start": 41.0096,
      "duration": 0.1269,
      "velocity": 127,
      "chip": "ym2612"
    },
    {
      "channel": 2,
      "note": 57,
      "start": 41.1573,
      "duration": 0.0463,
      "velocity": 79,
      "chip": "ym2612"
    },
    {
      "channel": 0,
      "note": 64,
      "start": 41.1598,
      "duration": 0.1101,
      "velocity": 127,
      "chip": "ym2612"
    },
    {
      "channel": 4,
      "note": 45,
      "start": 41.1625,
      "duration": 0.1078,
      "velocity": 119,
      "chip": "ym2612"
    },
    {
      "channel": 2,
      "note": 59,
      "start": 41.3073,
      "duration": 0.0797,
      "velocity": 79,
      "chip": "ym2612"
    },
    {
      "channel": 0,
      "note": 61,
      "start": 41.31,
      "duration": 0.0766,
      "velocity": 127,
      "chip": "ym2612"
    },
    {
      "channel": 2,
      "note": 59,
      "start": 41.4573,
      "duration": 0.0307,
      "velocity": 79,
      "chip": "ym2612"
    },
    {
      "channel": 2,
      "note": 61,
      "start": 41.5271,
      "duration": 0.0188,
      "velocity": 79,
      "chip": "ym2612"
    },
    {
      "channel": 0,
      "note": 51,
      "start": 41.529,
      "duration": 0.0453,
      "velocity": 127,
      "chip": "ym2612"
    },
    {
      "channel": 4,
      "note": 45,
      "start": 41.5316,
      "duration": 0.0261,
      "velocity": 119,
      "chip": "ym2612"
    },
    {
      "channel": 2,
      "note": 61,
      "start": 41.645,
      "duration": 0.0796,
      "velocity": 79,
      "chip": "ym2612"
    },
    {
      "channel": 2,
      "note": 64,
      "start": 41.7784,
      "duration": 0.1296,
      "velocity": 79,
      "chip": "ym2612"
    },
    {
      "channel": 0,
      "note": 52,
      "start": 41.7807,
      "duration": 0.0935,
      "velocity": 127,
      "chip": "ym2612"
    },
    {
      "channel": 4,
      "note": 45,
      "start": 41.7833,
      "duration": 0.0913,
      "velocity": 119,
      "chip": "ym2612"
    },
    {
      "channel": 2,
      "note": 66,
      "start": 41.9284,
      "duration": 0.096,
      "velocity": 79,
      "chip": "ym2612"
    },
    {
      "channel": 2,
      "note": 63,
      "start": 42.0786,
      "duration": 0.1124,
      "velocity": 79,
      "chip": "ym2612"
    },
    {
      "channel": 0,
      "note": 49,
      "start": 42.081,
      "duration": 0.0931,
      "velocity": 127,
      "chip": "ym2612"
    },
    {
      "channel": 1,
      "note": 78,
      "start": 42.2285,
      "duration": 1.5112,
      "velocity": 67,
      "chip": "ym2612"
    },
    {
      "channel": 0,
      "note": 54,
      "start": 42.2306,
      "duration": 0.0429,
      "velocity": 127,
      "chip": "ym2612"
    },
    {
      "channel": 4,
      "note": 45,
      "start": 42.2363,
      "duration": 0.0374,
      "velocity": 119,
      "chip": "ym2612"
    },
    {
      "channel": 3,
      "note": 78,
      "start": 42.2981,
      "duration": 0.0196,
      "velocity": 119,
      "chip": "ym2612"
    },
    {
      "channel": 2,
      "note": 80,
      "start": 42.3014,
      "duration": 0.0098,
      "velocity": 96,
      "chip": "ym2612"
    },
    {
      "channel": 0,
      "note": 59,
      "start": 42.3639,
      "duration": 0.1098,
      "velocity": 127,
      "chip": "ym2612"
    },
    {
      "channel": 2,
      "note": 80,
      "start": 42.3661,
      "duration": 0.0247,
      "velocity": 96,
      "chip": "ym2612"
    },
    {
      "channel": 3,
      "note": 76,
      "start": 42.5111,
      "duration": 0.0461,
      "velocity": 119,
      "chip": "ym2612"
    },
    {
      "channel": 0,
      "note": 52,
      "start": 42.5132,
      "duration": 0.1105,
      "velocity": 127,
      "chip": "ym2612"
    },
    {
      "channel": 2,
      "note": 81,
      "start": 42.5154,
      "duration": 0.0254,
      "velocity": 27,
      "chip": "ym2612"
    },
    {
      "channel": 0,
      "note": 64,
      "start": 42.6447,
      "duration": 0.1124,
      "velocity": 127,
      "chip": "ym2612"
    },
    {
      "channel": 2,
      "note": 81,
      "start": 42.6467,
      "duration": 0.0443,
      "velocity": 27,
      "chip": "ym2612"
    },
    {
      "channel": 3,
      "note": 73,
      "start": 42.7944,
      "duration": 0.063,
      "velocity": 119,
      "chip": "ym2612"
    },
    {
      "channel": 0,
      "note": 61,
      "start": 42.7968,
      "duration": 0.077,
      "velocity": 127,
      "chip": "ym2612"
    },
    {
      "channel": 2,
      "note": 81,
      "start": 42.7992,
      "duration": 0.0585,
      "velocity": 27,
      "chip": "ym2612"
    },
    {
      "channel": 4,
      "note": 45,
      "start": 42.9488,
      "duration": 0.0697,
      "velocity": 119,
      "chip": "ym2612"
    },
    {
      "channel": 3,
      "note": 71,
      "start": 43.0127,
      "duration": 0.0256,
      "velocity": 119,
      "chip": "ym2612"
    },
    {
      "channel": 0,
      "note": 66,
      "start": 43.0146,
      "duration": 0.0235,
      "velocity": 127,
      "chip": "ym2612"
    },
    {
      "channel": 2,
      "note": 80,
      "start": 43.0165,
      "duration": 0.0077,
      "velocity": 96,
      "chip": "ym2612"
    },
    {
      "channel": 3,
      "note": 73,
      "start": 43.1104,
      "duration": 0.0459,
      "velocity": 119,
      "chip": "ym2612"
    },
    {
      "channel": 2,
      "note": 80,
      "start": 43.113,
      "duration": 0.0438,
      "velocity": 96,
      "chip": "ym2612"
    },
    {
      "channel": 3,
      "note": 76,
      "start": 43.2603,
      "duration": 0.0627,
      "velocity": 119,
      "chip": "ym2612"
    },
    {
      "channel": 0,
      "note": 64,
      "start": 43.2626,
      "duration": 0.077,
      "velocity": 127,
      "chip": "ym2612"
    },
    {
      "channel": 3,
      "note": 73,
      "start": 43.4104,
      "duration": 0.0459,
      "velocity": 119,
      "chip": "ym2612"
    },
    {
      "channel": 3,
      "note": 76,
      "start": 43.5437,
      "duration": 0.063,
      "velocity": 119,
      "chip": "ym2612"
    },
    {
      "channel": 0,
      "note": 61,
      "start": 43.5465,
      "duration": 0.0597,
      "velocity": 127,
      "chip": "ym2612"
    },
    {
      "channel": 4,
      "note": 74,
      "start": 43.6942,
      "duration": 1.5835,
      "velocity": 67,
      "chip": "ym2612"
    },
    {
      "channel": 5,
      "note": 61,
      "start": 43.6971,
      "duration": 0.1261,
      "velocity": 81,
      "chip": "ym2612"
    },
    {
      "channel": 0,
      "note": 69,
      "start": 43.6991,
      "duration": 0.1071,
      "velocity": 127,
      "chip": "ym2612"
    },
    {
      "channel": 2,
      "note": 45,
      "start": 43.7024,
      "duration": 0.1043,
      "velocity": 119,
      "chip": "ym2612"
    },
    {
      "channel": 3,
      "note": 78,
      "start": 43.8436,
      "duration": 0.0629,
      "velocity": 119,
      "chip": "ym2612"
    },
    {
      "channel": 5,
      "note": 62,
      "start": 43.8458,
      "duration": 0.1274,
      "velocity": 81,
      "chip": "ym2612"
    },
    {
      "channel": 0,
      "note": 66,
      "start": 43.8477,
      "duration": 0.1085,
      "velocity": 127,
      "chip": "ym2612"
    },
    {
      "channel": 2,
      "note": 80,
      "start": 43.8499,
      "duration": 0.0569,
      "velocity": 96,
      "chip": "ym2612"
    },
    {
      "channel": 5,
      "note": 66,
      "start": 43.9941,
      "duration": 0.1457,
      "velocity": 81,
      "chip": "ym2612"
    },
    {
      "channel": 0,
      "note": 64,
      "start": 43.9961,
      "duration": 0.0768,
      "velocity": 127,
      "chip": "ym2612"
    },
    {
      "channel": 2,
      "note": 80,
      "start": 43.9983,
      "duration": 0.0417,
      "velocity": 96,
      "chip": "ym2612"
    },
    {
      "channel": 3,
      "note": 76,
      "start": 44.1438,
      "duration": 0.0625,
      "velocity": 119,
      "chip": "ym2612"
    },
    {
      "channel": 5,
      "note": 61,
      "start": 44.1461,
      "duration": 0.1269,
      "velocity": 81,
      "chip": "ym2612"
    },
    {
      "channel": 0,
      "note": 66,
      "start": 44.1482,
      "duration": 0.1081,
      "velocity": 127,
      "chip": "ym2612"
    },
    {
      "channel": 2,
      "note": 81,
      "start": 44.1503,
      "duration": 0.0398,
      "velocity": 27,
      "chip": "ym2612"
    },
    {
      "channel": 1,
      "note": 45,
      "start": 44.1533,
      "duration": 0.1697,
      "velocity": 119,
      "chip": "ym2612"
    },
    {
      "channel": 5,
      "note": 62,
      "start": 44.294,
      "duration": 0.1457,
      "velocity": 81,
      "chip": "ym2612"
    },
    {
      "channel": 0,
      "note": 64,
      "start": 44.2959,
      "duration": 0.0938,
      "velocity": 127,
      "chip": "ym2612"
    },
    {
      "channel": 2,
      "note": 81,
      "start": 44.298,
      "duration": 0.0254,
      "velocity": 27,
      "chip": "ym2612"
    },
    {
      "channel": 3,
      "note": 73,
      "start": 44.4437,
      "duration": 0.0461,
      "velocity": 119,
      "chip": "ym2612"
    },
    {
      "channel": 5,
      "note": 66,
      "start": 44.4464,
      "duration": 0.1103,
      "velocity": 81,
      "chip": "ym2612"
    },
    {
      "channel": 0,
      "note": 61,
      "start": 44.4484,
      "duration": 0.0412,
      "velocity": 127,
      "chip": "ym2612"
    },
    {
      "channel": 2,
      "note": 81,
      "start": 44.4509,
      "duration": 0.0393,
      "velocity": 27,
      "chip": "ym2612"
    },
    {
      "channel": 0,
      "note": 49,
      "start": 44.5939,
      "duration": 0.0521,
      "velocity": 127,
      "chip": "ym2612"
    },
    {
      "channel": 1,
      "note": 45,
      "start": 44.5995,
      "duration": 0.0748,
      "velocity": 119,
      "chip": "ym2612"
    },
    {
      "channel": 3,
      "note": 71,
      "start": 44.6545,
      "duration": 0.0398,
      "velocity": 119,
      "chip": "ym2612"
    },
    {
      "channel": 0,
      "note": 61,
      "start": 44.6563,
      "duration": 0.0879,
      "velocity": 127,
      "chip": "ym2612"
    },
    {
      "channel": 2,
      "note": 80,
      "start": 44.6593,
      "duration": 0.0154,
      "velocity": 96,
      "chip": "ym2612"
    },
    {
      "channel": 3,
      "note": 73,
      "start": 44.765,
      "duration": 0.0626,
      "velocity": 119,
      "chip": "ym2612"
    },
    {
      "channel": 0,
      "note": 49,
      "start": 44.7671,
      "duration": 0.1271,
      "velocity": 127,
      "chip": "ym2612"
    },
    {
      "channel": 2,
      "note": 80,
      "start": 44.7694,
      "duration": 0.0586,
      "velocity": 96,
      "chip": "ym2612"
    },
    {
      "channel": 3,
      "note": 76,
      "start": 44.9149,
      "duration": 0.0796,
      "velocity": 119,
      "chip": "ym2612"
    },
    {
      "channel": 0,
      "note": 52,
      "start": 44.917,
      "duration": 0.1271,
      "velocity": 127,
      "chip": "ym2612"
    },
    {
      "channel": 1,
      "note": 45,
      "start": 44.9195,
      "duration": 0.1581,
      "velocity": 119,
      "chip": "ym2612"
    },
    {
      "channel": 3,
      "note": 73,
      "start": 45.0654,
      "duration": 0.0288,
      "velocity": 119,
      "chip": "ym2612"
    },
    {
      "channel": 0,
      "note": 64,
      "start": 45.0676,
      "duration": 0.1431,
      "velocity": 127,
      "chip": "ym2612"
    },
    {
      "channel": 3,
      "note": 76,
      "start": 45.2151,
      "duration": 0.0457,
      "velocity": 119,
      "chip": "ym2612"
    },
    {
      "channel": 0,
      "note": 57,
      "start": 45.2174,
      "duration": 0.1268,
      "velocity": 127,
      "chip": "ym2612"
    },
    {
      "channel": 4,
      "note": 73,
      "start": 45.3669,
      "duration": 1.5692,
      "velocity": 67,
      "chip": "ym2612"
    },
    {
      "channel": 5,
      "note": 78,
      "start": 45.3693,
      "duration": 0.0032,
      "velocity": 67,
      "chip": "ym2612"
    },
    {
      "channel": 0,
      "note": 54,
      "start": 45.3716,
      "duration": 0.0183,
      "velocity": 127,
      "chip": "ym2612"
    },
    {
      "channel": 1,
      "note": 45,
      "start": 45.3776,
      "duration": 0.0626,
      "velocity": 119,
      "chip": "ym2612"
    },
    {
      "channel": 2,
      "note": 52,
      "start": 45.4346,
      "duration": 0.0057,
      "velocity": 79,
      "chip": "ym2612"
    },
    {
      "channel": 3,
      "note": 78,
      "start": 45.4365,
      "duration": 0.0173,
      "velocity": 119,
      "chip": "ym2612"
    },
    {
      "channel": 2,
      "note": 52,
      "start": 45.5172,
      "duration": 0.0628,
      "velocity": 79,
      "chip": "ym2612"
    },
    {
      "channel": 0,
      "note": 59,
      "start": 45.5197,
      "duration": 0.1099,
      "velocity": 127,
      "chip": "ym2612"
    },
    {
      "channel": 2,
      "note": 52,
      "start": 45.6672,
      "duration": 0.1129,
      "velocity": 79,
      "chip": "ym2612"
    },
    {
      "channel": 3,
      "note": 76,
      "start": 45.6693,
      "duration": 0.0604,
      "velocity": 119,
      "chip": "ym2612"
    },
    {
      "channel": 0,
      "note": 52,
      "start": 45.6715,
      "duration": 0.1247,
      "velocity": 127,
      "chip": "ym2612"
    },
    {
      "channel": 0,
      "note": 64,
      "start": 45.8171,
      "duration": 0.1292,
      "velocity": 127,
      "chip": "ym2612"
    },
    {
      "channel": 2,
      "note": 81,
      "start": 45.8192,
      "duration": 0.0275,
      "velocity": 27,
      "chip": "ym2612"
    },
    {
      "channel": 1,
      "note": 52,
      "start": 45.9672,
      "duration": 0.0957,
      "velocity": 79,
      "chip": "ym2612"
    },
    {
      "channel": 3,
      "note": 73,
      "start": 45.9693,
      "duration": 0.0437,
      "velocity": 119,
      "chip": "ym2612"
    },
    {
      "channel": 0,
      "note": 61,
      "start": 45.9722,
      "duration": 0.0741,
      "velocity": 127,
      "chip": "ym2612"
    },
    {
      "channel": 2,
      "note": 80,
      "start": 45.9744,
      "duration": 0.0724,
      "velocity": 96,
      "chip": "ym2612"
    },
    {
      "channel": 1,
      "note": 52,
      "start": 46.1168,
      "duration": 0.0462,
      "velocity": 79,
      "chip": "ym2612"
    },
    {
      "channel": 5,
      "note": 45,
      "start": 46.12,
      "duration": 0.2101,
      "velocity": 119,
      "chip": "ym2612"
    },
    {
      "channel": 1,
      "note": 57,
      "start": 46.2668,
      "duration": 0.0462,
      "velocity": 79,
      "chip": "ym2612"
    },
    {
      "channel": 3,
      "note": 71,
      "start": 46.2693,
      "duration": 0.0606,
      "velocity": 119,
      "chip": "ym2612"
    },
    {
      "channel": 0,
      "note": 66,
      "start": 46.2714,
      "duration": 0.0583,
      "velocity": 127,
      "chip": "ym2612"
    },
    {
      "channel": 3,
      "note": 73,
      "start": 46.4172,
      "duration": 0.0458,
      "velocity": 119,
      "chip": "ym2612"
    },
    {
      "channel": 2,
      "note": 80,
      "start": 46.4199,
      "duration": 0.0436,
      "velocity": 96,
      "chip": "ym2612"
    },
    {
      "channel": 1,
      "note": 57,
      "start": 46.5668,
      "duration": 0.0795,
      "velocity": 79,
      "chip": "ym2612"
    },
    {
      "channel": 0,
      "note": 64,
      "start": 46.5693,
      "duration": 0.077,
      "velocity": 127,
      "chip": "ym2612"
    },
    {
      "channel": 3,
      "note": 76,
      "start": 46.7005,
      "duration": 0.0293,
      "velocity": 119,
      "chip": "ym2612"
    },
    {
      "channel": 2,
      "note": 81,
      "start": 46.703,
      "duration": 0.0601,
      "velocity": 27,
      "chip": "ym2612"
    },
    {
      "channel": 1,
      "note": 59,
      "start": 46.8503,
      "duration": 0.0518,
      "velocity": 79,
      "chip": "ym2612"
    },
    {
      "channel": 0,
      "note": 61,
      "start": 46.8529,
      "duration": 0.0355,
      "velocity": 127,
      "chip": "ym2612"
    },
    {
      "channel": 1,
      "note": 59,
      "start": 46.9183,
      "duration": 0.022,
      "velocity": 79,
      "chip": "ym2612"
    },
    {
      "channel": 3,
      "note": 76,
      "start": 46.9217,
      "duration": 1.5494,
      "velocity": 67,
      "chip": "ym2612"
    },
    {
      "channel": 2,
      "note": 85,
      "start": 46.9254,
      "duration": 0.0624,
      "velocity": 67,
      "chip": "ym2612"
    },
    {
      "channel": 0,
      "note": 54,
      "start": 46.9275,
      "duration": 0.0056,
      "velocity": 127,
      "chip": "ym2612"
    },
    {
      "channel": 0,
      "note": 45,
      "start": 46.9349,
      "duration": 0.0622,
      "velocity": 119,
      "chip": "ym2612"
    },
    {
      "channel": 1,
      "note": 63,
      "start": 46.9846,
      "duration": 0.0198,
      "velocity": 79,
      "chip": "ym2612"
    },
    {
      "channel": 4,
      "note": 78,
      "start": 46.9865,
      "duration": 0.018,
      "velocity": 119,
      "chip": "ym2612"
    },
    {
      "channel": 2,
      "note": 80,
      "start": 46.9891,
      "duration": 0.0084,
      "velocity": 96,
      "chip": "ym2612"
    },
    {
      "channel": 1,
      "note": 63,
      "start": 47.0748,
      "duration": 0.0296,
      "velocity": 79,
      "chip": "ym2612"
    },
    {
      "channel": 0,
      "note": 59,
      "start": 47.0777,
      "duration": 0.11,
      "velocity": 127,
      "chip": "ym2612"
    },
    {
      "channel": 2,
      "note": 80,
      "start": 47.08,
      "duration": 0.0081,
      "velocity": 96,
      "chip": "ym2612"
    },
    {
      "channel": 1,
      "note": 64,
      "start": 47.225,
      "duration": 0.0794,
      "velocity": 79,
      "chip": "ym2612"
    },
    {
      "channel": 4,
      "note": 76,
      "start": 47.2272,
      "duration": 0.0606,
      "velocity": 119,
      "chip": "ym2612"
    },
    {
      "channel": 0,
      "note": 52,
      "start": 47.2295,
      "duration": 0.1082,
      "velocity": 127,
      "chip": "ym2612"
    },
    {
      "channel": 2,
      "note": 81,
      "start": 47.2317,
      "duration": 0.0231,
      "velocity": 27,
      "chip": "ym2612"
    },
    {
      "channel": 0,
      "note": 64,
      "start": 47.3753,
      "duration": 0.0957,
      "velocity": 127,
      "chip": "ym2612"
    },
    {
      "channel": 2,
      "note": 81,
      "start": 47.3774,
      "duration": 0.0107,
      "velocity": 27,
      "chip": "ym2612"
    },
    {
      "channel": 1,
      "note": 64,
      "start": 47.5082,
      "duration": 0.0796,
      "velocity": 79,
      "chip": "ym2612"
    },
    {
      "channel": 4,
      "note": 73,
      "start": 47.5105,
      "duration": 0.0607,
      "velocity": 119,
      "chip": "ym2612"
    },
    {
      "channel": 0,
      "note": 59,
      "start": 47.5129,
      "duration": 0.0915,
      "velocity": 127,
      "chip": "ym2612"
    },
    {
      "channel": 2,
      "note": 81,
      "start": 47.5157,
      "duration": 0.0558,
      "velocity": 27,
      "chip": "ym2612"
    },
    {
      "channel": 1,
      "note": 63,
      "start": 47.8089,
      "duration": 0.0957,
      "velocity": 79,
      "chip": "ym2612"
    },
    {
      "channel": 4,
      "note": 71,
      "start": 47.8112,
      "duration": 0.0766,
      "velocity": 119,
      "chip": "ym2612"
    },
    {
      "channel": 0,
      "note": 63,
      "start": 47.8132,
      "duration": 0.0911,
      "velocity": 127,
      "chip": "ym2612"
    },
    {
      "channel": 2,
      "note": 80,
      "start": 47.8156,
      "duration": 0.0225,
      "velocity": 96,
      "chip": "ym2612"
    },
    {
      "channel": 5,
      "note": 45,
      "start": 47.8181,
      "duration": 0.0868,
      "velocity": 119,
      "chip": "ym2612"
    },
    {
      "channel": 1,
      "note": 59,
      "start": 47.9582,
      "duration": 0.1462,
      "velocity": 79,
      "chip": "ym2612"
    },
    {
      "channel": 2,
      "note": 80,
      "start": 47.961,
      "duration": 0.0438,
      "velocity": 96,
      "chip": "ym2612"
    },
    {
      "channel": 1,
      "note": 57,
      "start": 48.1083,
      "duration": 0.1127,
      "velocity": 79,
      "chip": "ym2612"
    },
    {
      "channel": 4,
      "note": 73,
      "start": 48.1105,
      "duration": 0.0607,
      "velocity": 119,
      "chip": "ym2612"
    },
    {
      "channel": 0,
      "note": 61,
      "start": 48.1125,
      "duration": 0.0752,
      "velocity": 127,
      "chip": "ym2612"
    },
    {
      "channel": 1,
      "note": 54,
      "start": 48.2584,
      "duration": 0.0459,
      "velocity": 79,
      "chip": "ym2612"
    },
    {
      "channel": 4,
      "note": 76,
      "start": 48.4085,
      "duration": 0.0461,
      "velocity": 119,
      "chip": "ym2612"
    },
    {
      "channel": 0,
      "note": 52,
      "start": 48.4107,
      "duration": 0.077,
      "velocity": 127,
      "chip": "ym2612"
    },
    {
      "channel": 5,
      "note": 45,
      "start": 48.4134,
      "duration": 0.0747,
      "velocity": 119,
      "chip": "ym2612"
    },
    {
      "channel": 3,
      "note": 78,
      "start": 48.5597,
      "duration": 1.5648,
      "velocity": 67,
      "chip": "ym2612"
    },
    {
      "channel": 2,
      "note": 87,
      "start": 48.5624,
      "duration": 0.0634,
      "velocity": 67,
      "chip": "ym2612"
    },
    {
      "channel": 0,
      "note": 54,
      "start": 48.5645,
      "duration": 0.0336,
      "velocity": 127,
      "chip": "ym2612"
    },
    {
      "channel": 1,
      "note": 69,
      "start": 48.623,
      "duration": 0.0532,
      "velocity": 79,
      "chip": "ym2612"
    },
    {
      "channel": 4,
      "note": 78,
      "start": 48.6249,
      "duration": 0.0251,
      "velocity": 119,
      "chip": "ym2612"
    },
    {
      "channel": 2,
      "note": 80,
      "start": 48.6273,
      "duration": 0.0157,
      "velocity": 96,
      "chip": "ym2612"
    },
    {
      "channel": 1,
      "note": 71,
      "start": 48.7134,
      "duration": 0.0962,
      "velocity": 79,
      "chip": "ym2612"
    },
    {
      "channel": 0,
      "note": 59,
      "start": 48.716,
      "duration": 0.1268,
      "velocity": 127,
      "chip": "ym2612"
    },
    {
      "channel": 2,
      "note": 80,
      "start": 48.7182,
      "duration": 0.0251,
      "velocity": 96,
      "chip": "ym2612"
    },
    {
      "channel": 1,
      "note": 63,
      "start": 48.8633,
      "duration": 0.0963,
      "velocity": 79,
      "chip": "ym2612"
    },
    {
      "channel": 4,
      "note": 76,
      "start": 48.8654,
      "duration": 0.0444,
      "velocity": 119,
      "chip": "ym2612"
    },
    {
      "channel": 0,
      "note": 52,
      "start": 48.8675,
      "duration": 0.1254,
      "velocity": 127,
      "chip": "ym2612"
    },
    {
      "channel": 2,
      "note": 81,
      "start": 48.8698,
      "duration": 0.0235,
      "velocity": 27,
      "chip": "ym2612"
    },
    {
      "channel": 1,
      "note": 64,
      "start": 49.0133,
      "duration": 0.0963,
      "velocity": 79,
      "chip": "ym2612"
    },
    {
      "channel": 0,
      "note": 64,
      "start": 49.0157,
      "duration": 0.1105,
      "velocity": 127,
      "chip": "ym2612"
    },
    {
      "channel": 2,
      "note": 81,
      "start": 49.0177,
      "duration": 0.0256,
      "velocity": 27,
      "chip": "ym2612"
    },
    {
      "channel": 1,
      "note": 69,
      "start": 49.1634,
      "duration": 0.1129,
      "velocity": 79,
      "chip": "ym2612"
    },
    {
      "channel": 4,
      "note": 73,
      "start": 49.1655,
      "duration": 0.0442,
      "velocity": 119,
      "chip": "ym2612"
    },
    {
      "channel": 0,
      "note": 61,
      "start": 49.1685,
      "duration": 0.0578,
      "velocity": 127,
      "chip": "ym2612"
    },
    {
      "channel": 2,
      "note": 81,
      "start": 49.1708,
      "duration": 0.0393,
      "velocity": 27,
      "chip": "ym2612"
    },
    {
      "channel": 1,
      "note": 68,
      "start": 49.3134,
      "duration": 0.0795,
      "velocity": 79,
      "chip": "ym2612"
    },
    {
      "channel": 1,
      "note": 63,
      "start": 49.4634,
      "duration": 0.1128,
      "velocity": 79,
      "chip": "ym2612"
    },
    {
      "channel": 4,
      "note": 71,
      "start": 49.4662,
      "duration": 0.0604,
      "velocity": 119,
      "chip": "ym2612"
    },
    {
      "channel": 0,
      "note": 66,
      "start": 49.4683,
      "duration": 0.0579,
      "velocity": 127,
      "chip": "ym2612"
    },
    {
      "channel": 2,
      "note": 80,
      "start": 49.4706,
      "duration": 0.0228,
      "velocity": 96,
      "chip": "ym2612"
    },
    {
      "channel": 5,
      "note": 45,
      "start": 49.4729,
      "duration": 0.0704,
      "velocity": 119,
      "chip": "ym2612"
    },
    {
      "channel": 1,
      "note": 68,
      "start": 49.5966,
      "duration": 0.1296,
      "velocity": 79,
      "chip": "ym2612"
    },
    {
      "channel": 2,
      "note": 80,
      "start": 49.5993,
      "duration": 0.0439,
      "velocity": 96,
      "chip": "ym2612"
    },
    {
      "channel": 1,
      "note": 64,
      "start": 49.7468,
      "duration": 0.1128,
      "velocity": 79,
      "chip": "ym2612"
    },
    {
      "channel": 4,
      "note": 73,
      "start": 49.7489,
      "duration": 0.0775,
      "velocity": 119,
      "chip": "ym2612"
    },
    {
      "channel": 0,
      "note": 64,
      "start": 49.7512,
      "duration": 0.0917,
      "velocity": 127,
      "chip": "ym2612"
    },
    {
      "channel": 1,
      "note": 63,
      "start": 49.8967,
      "duration": 0.1129,
      "velocity": 79,
      "chip": "ym2612"
    },
    {
      "channel": 1,
      "note": 59,
      "start": 50.0469,
      "duration": 0.0601,
      "velocity": 79,
      "chip": "ym2612"
    },
    {
      "channel": 4,
      "note": 76,
      "start": 50.0493,
      "duration": 0.024,
      "velocity": 119,
      "chip": "ym2612"
    },
    {
      "channel": 0,
      "note": 61,
      "start": 50.0517,
      "duration": 0.0215,
      "velocity": 127,
      "chip": "ym2612"
    },
    {
      "channel": 2,
      "note": 45,
      "start": 50.0587,
      "duration": 0.0148,
      "velocity": 119,
      "chip": "ym2612"
    },
    {
      "channel": 1,
      "note": 64,
      "start": 50.1162,
      "duration": 0.0578,
      "velocity": 79,
      "chip": "ym2612"
    },
    {
      "channel": 0,
      "note": 52,
      "start": 50.1182,
      "duration": 0.0557,
      "velocity": 79,
      "chip": "ym2612"
    },
    {
      "channel": 4,
      "note": 76,
      "start": 50.1202,
      "duration": 0.0248,
      "velocity": 119,
      "chip": "ym2612"
    },
    {
      "channel": 2,
      "note": 76,
      "start": 50.1237,
      "duration": 0.0666,
      "velocity": 67,
      "chip": "ym2612"
    },
    {
      "channel": 3,
      "note": 93,
      "start": 50.1258,
      "duration": 0.0024,
      "velocity": 67,
      "chip": "ym2612"
    },
    {
      "channel": 3,
      "note": 52,
      "start": 50.1297,
      "duration": 0.0443,
      "velocity": 92,
      "chip": "ym2612"
    },
    {
      "channel": 1,
      "note": 63,
      "start": 50.1825,
      "duration": 0.0675,
      "velocity": 79,
      "chip": "ym2612"
    },
    {
      "channel": 0,
      "note": 51,
      "start": 50.1842,
      "duration": 0.0656,
      "velocity": 79,
      "chip": "ym2612"
    },
    {
      "channel": 4,
      "note": 75,
      "start": 50.1861,
      "duration": 0.0177,
      "velocity": 119,
      "chip": "ym2612"
    },
    {
      "channel": 3,
      "note": 51,
      "start": 50.1892,
      "duration": 0.0287,
      "velocity": 92,
      "chip": "ym2612"
    },
    {
      "channel": 2,
      "note": 80,
      "start": 50.1918,
      "duration": 0.0123,
      "velocity": 96,
      "chip": "ym2612"
    },
    {
      "channel": 1,
      "note": 59,
      "start": 50.2703,
      "duration": 0.0796,
      "velocity": 79,
      "chip": "ym2612"
    },
    {
      "channel": 0,
      "note": 47,
      "start": 50.2724,
      "duration": 0.0774,
      "velocity": 79,
      "chip": "ym2612"
    },
    {
      "channel": 4,
      "note": 71,
      "start": 50.2746,
      "duration": 0.0758,
      "velocity": 119,
      "chip": "ym2612"
    },
    {
      "channel": 3,
      "note": 47,
      "start": 50.2768,
      "duration": 0.1398,
      "velocity": 92,
      "chip": "ym2612"
    },
    {
      "channel": 2,
      "note": 80,
      "start": 50.2792,
      "duration": 0.0211,
      "velocity": 96,
      "chip": "ym2612"
    },
    {
      "channel": 1,
      "note": 63,
      "start": 50.4205,
      "duration": 0.0961,
      "velocity": 79,
      "chip": "ym2612"
    },
    {
      "channel": 0,
      "note": 51,
      "start": 50.4225,
      "duration": 0.0939,
      "velocity": 79,
      "chip": "ym2612"
    },
    {
      "channel": 4,
      "note": 78,
      "start": 50.4246,
      "duration": 0.0754,
      "velocity": 119,
      "chip": "ym2612"
    },
    {
      "channel": 3,
      "note": 54,
      "start": 50.4268,
      "duration": 0.1063,
      "velocity": 92,
      "chip": "ym2612"
    },
    {
      "channel": 2,
      "note": 81,
      "start": 50.4291,
      "duration": 0.0212,
      "velocity": 27,
      "chip": "ym2612"
    },
    {
      "channel": 1,
      "note": 59,
      "start": 50.5536,
      "duration": 0.1296,
      "velocity": 79,
      "chip": "ym2612"
    },
    {
      "channel": 0,
      "note": 47,
      "start": 50.5556,
      "duration": 0.1275,
      "velocity": 79,
      "chip": "ym2612"
    },
    {
      "channel": 4,
      "note": 75,
      "start": 50.5577,
      "duration": 0.0923,
      "velocity": 119,
      "chip": "ym2612"
    },
    {
      "channel": 3,
      "note": 51,
      "start": 50.56,
      "duration": 0.1398,
      "velocity": 92,
      "chip": "ym2612"
    },
    {
      "channel": 2,
      "note": 81,
      "start": 50.5622,
      "duration": 0.0381,
      "velocity": 27,
      "chip": "ym2612"
    },
    {
      "channel": 5,
      "note": 45,
      "start": 50.5648,
      "duration": 0.0856,
      "velocity": 119,
      "chip": "ym2612"
    },
    {
      "channel": 1,
      "note": 57,
      "start": 50.7037,
      "duration": 0.0798,
      "velocity": 79,
      "chip": "ym2612"
    },
    {
      "channel": 0,
      "note": 45,
      "start": 50.7058,
      "duration": 0.0774,
      "velocity": 79,
      "chip": "ym2612"
    },
    {
      "channel": 4,
      "note": 73,
      "start": 50.708,
      "duration": 0.0757,
      "velocity": 119,
      "chip": "ym2612"
    },
    {
      "channel": 3,
      "note": 49,
      "start": 50.7103,
      "duration": 0.1062,
      "velocity": 92,
      "chip": "ym2612"
    },
    {
      "channel": 2,
      "note": 80,
      "start": 50.7127,
      "duration": 0.0713,
      "velocity": 96,
      "chip": "ym2612"
    },
    {
      "channel": 1,
      "note": 59,
      "start": 50.8536,
      "duration": 0.1296,
      "velocity": 79,
      "chip": "ym2612"
    },
    {
      "channel": 0,
      "note": 47,
      "start": 50.8556,
      "duration": 0.1275,
      "velocity": 79,
      "chip": "ym2612"
    },
    {
      "channel": 4,
      "note": 80,
      "start": 50.8577,
      "duration": 0.0758,
      "velocity": 119,
      "chip": "ym2612"
    },
    {
      "channel": 3,
      "note": 56,
      "start": 50.8599,
      "duration": 0.1067,
      "velocity": 92,
      "chip": "ym2612"
    },
    {
      "channel": 1,
      "note": 57,
      "start": 51.0037,
      "duration": 0.1129,
      "velocity": 79,
      "chip": "ym2612"
    },
    {
      "channel": 0,
      "note": 45,
      "start": 51.0057,
      "duration": 0.1107,
      "velocity": 79,
      "chip": "ym2612"
    },
    {
      "channel": 4,
      "note": 78,
      "start": 51.0078,
      "duration": 0.0592,
      "velocity": 119,
      "chip": "ym2612"
    },
    {
      "channel": 3,
      "note": 54,
      "start": 51.01,
      "duration": 0.1232,
      "velocity": 92,
      "chip": "ym2612"
    },
    {
      "channel": 2,
      "note": 80,
      "start": 51.0129,
      "duration": 0.004,
      "velocity": 96,
      "chip": "ym2612"
    },
    {
      "channel": 1,
      "note": 56,
      "start": 51.1537,
      "duration": 0.063,
      "velocity": 79,
      "chip": "ym2612"
    },
    {
      "channel": 0,
      "note": 44,
      "start": 51.1557,
      "duration": 0.0607,
      "velocity": 79,
      "chip": "ym2612"
    },
    {
      "channel": 4,
      "note": 76,
      "start": 51.1578,
      "duration": 0.0592,
      "velocity": 119,
      "chip": "ym2612"
    },
    {
      "channel": 3,
      "note": 52,
      "start": 51.16,
      "duration": 0.0898,
      "velocity": 92,
      "chip": "ym2612"
    },
    {
      "channel": 2,
      "note": 80,
      "start": 51.1624,
      "duration": 0.0379,
      "velocity": 96,
      "chip": "ym2612"
    },
    {
      "channel": 5,
      "note": 45,
      "start": 51.1649,
      "duration": 0.0854,
      "velocity": 119,
      "chip": "ym2612"
    },
    {
      "channel": 1,
      "note": 57,
      "start": 51.3036,
      "duration": 0.113,
      "velocity": 79,
      "chip": "ym2612"
    },
    {
      "channel": 0,
      "note": 45,
      "start": 51.3056,
      "duration": 0.1108,
      "velocity": 79,
      "chip": "ym2612"
    },
    {
      "channel": 4,
      "note": 85,
      "start": 51.3077,
      "duration": 0.0592,
      "velocity": 119,
      "chip": "ym2612"
    },
    {
      "channel": 3,
      "note": 61,
      "start": 51.3099,
      "duration": 0.09,
      "velocity": 92,
      "chip": "ym2612"
    },
    {
      "channel": 2,
      "note": 81,
      "start": 51.312,
      "duration": 0.0216,
      "velocity": 27,
      "chip": "ym2612"
    },
    {
      "channel": 1,
      "note": 56,
      "start": 51.4537,
      "duration": 0.0963,
      "velocity": 79,
      "chip": "ym2612"
    },
    {
      "channel": 0,
      "note": 44,
      "start": 51.4557,
      "duration": 0.0941,
      "velocity": 79,
      "chip": "ym2612"
    },
    {
      "channel": 4,
      "note": 83,
      "start": 51.4578,
      "duration": 0.0589,
      "velocity": 119,
      "chip": "ym2612"
    },
    {
      "channel": 3,
      "note": 59,
      "start": 51.4599,
      "duration": 0.0903,
      "velocity": 92,
      "chip": "ym2612"
    },
    {
      "channel": 2,
      "note": 81,
      "start": 51.4622,
      "duration": 0.0048,
      "velocity": 27,
      "chip": "ym2612"
    },
    {
      "channel": 5,
      "note": 45,
      "start": 51.4647,
      "duration": 0.0523,
      "velocity": 119,
      "chip": "ym2612"
    },
    {
      "channel": 1,
      "note": 52,
      "start": 51.5873,
      "duration": 0.0961,
      "velocity": 79,
      "chip": "ym2612"
    },
    {
      "channel": 0,
      "note": 40,
      "start": 51.5901,
      "duration": 0.0931,
      "velocity": 79,
      "chip": "ym2612"
    },
    {
      "channel": 4,
      "note": 80,
      "start": 51.5924,
      "duration": 0.0912,
      "velocity": 119,
      "chip": "ym2612"
    },
    {
      "channel": 3,
      "note": 56,
      "start": 51.5952,
      "duration": 0.1213,
      "velocity": 92,
      "chip": "ym2612"
    },
    {
      "channel": 2,
      "note": 80,
      "start": 51.5976,
      "duration": 0.0694,
      "velocity": 96,
      "chip": "ym2612"
    },
    {
      "channel": 5,
      "note": 97,
      "start": 51.7378,
      "duration": 1.1957,
      "velocity": 100,
      "chip": "ym2612"
    },
    {
      "channel": 2,
      "note": 92,
      "start": 51.74,
      "duration": 1.1937,
      "velocity": 100,
      "chip": "ym2612"
    },
    {
      "channel": 0,
      "note": 90,
      "start": 51.7428,
      "duration": 1.1903,
      "velocity": 100,
      "chip": "ym2612"
    },
    {
      "channel": 3,
      "note": 54,
      "start": 51.745,
      "duration": 0.0716,
      "velocity": 92,
      "chip": "ym2612"
    },
    {
      "channel": 4,
      "note": 78,
      "start": 51.8873,
      "duration": 0.046,
      "velocity": 119,
      "chip": "ym2612"
    },
    {
      "channel": 3,
      "note": 54,
      "start": 51.8897,
      "duration": 0.0935,
      "velocity": 92,
      "chip": "ym2612"
    },
    {
      "channel": 3,
      "note": 42,
      "start": 52.0376,
      "duration": 0.1123,
      "velocity": 92,
      "chip": "ym2612"
    },
    {
      "channel": 1,
      "note": 45,
      "start": 52.041,
      "duration": 0.0922,
      "velocity": 119,
      "chip": "ym2612"
    },
    {
      "channel": 4,
      "note": 76,
      "start": 52.1872,
      "duration": 0.0464,
      "velocity": 119,
      "chip": "ym2612"
    },
    {
      "channel": 3,
      "note": 49,
      "start": 52.1896,
      "duration": 0.077,
      "velocity": 92,
      "chip": "ym2612"
    },
    {
      "channel": 3,
      "note": 42,
      "start": 52.3377,
      "duration": 0.0956,
      "velocity": 92,
      "chip": "ym2612"
    },
    {
      "channel": 1,
      "note": 45,
      "start": 52.3403,
      "duration": 0.043,
      "velocity": 119,
      "chip": "ym2612"
    },
    {
      "channel": 4,
      "note": 73,
      "start": 52.4873,
      "duration": 0.0461,
      "velocity": 119,
      "chip": "ym2612"
    },
    {
      "channel": 3,
      "note": 52,
      "start": 52.4896,
      "duration": 0.077,
      "velocity": 92,
      "chip": "ym2612"
    },
    {
      "channel": 3,
      "note": 52,
      "start": 52.6374,
      "duration": 0.0791,
      "velocity": 92,
      "chip": "ym2612"
    },
    {
      "channel": 4,
      "note": 71,
      "start": 52.7706,
      "duration": 0.0793,
      "velocity": 119,
      "chip": "ym2612"
    },
    {
      "channel": 3,
      "note": 42,
      "start": 52.7728,
      "duration": 0.0937,
      "velocity": 92,
      "chip": "ym2612"
    },
    {
      "channel": 3,
      "note": 47,
      "start": 52.9209,
      "duration": 0.1293,
      "velocity": 92,
      "chip": "ym2612"
    },
    {
      "channel": 1,
      "note": 45,
      "start": 52.9241,
      "duration": 0.1258,
      "velocity": 119,
      "chip": "ym2612"
    },
    {
      "channel": 4,
      "note": 73,
      "start": 53.0706,
      "duration": 0.1296,
      "velocity": 119,
      "chip": "ym2612"
    },
    {
      "channel": 3,
      "note": 40,
      "start": 53.073,
      "duration": 0.1437,
      "velocity": 92,
      "chip": "ym2612"
    },
    {
      "channel": 3,
      "note": 45,
      "start": 53.221,
      "duration": 0.1123,
      "velocity": 92,
      "chip": "ym2612"
    },
    {
      "channel": 1,
      "note": 45,
      "start": 53.2237,
      "duration": 0.043,
      "velocity": 119,
      "chip": "ym2612"
    },
    {
      "channel": 4,
      "note": 76,
      "start": 53.3711,
      "duration": 0.0456,
      "velocity": 119,
      "chip": "ym2612"
    },
    {
      "channel": 3,
      "note": 47,
      "start": 53.3735,
      "duration": 0.0765,
      "velocity": 92,
      "chip": "ym2612"
    },
    {
      "channel": 2,
      "note": 80,
      "start": 53.3758,
      "duration": 0.0578,
      "velocity": 96,
      "chip": "ym2612"
    },
    {
      "channel": 0,
      "note": 93,
      "start": 53.523,
      "duration": 1.1935,
      "velocity": 100,
      "chip": "ym2612"
    },
    {
      "channel": 5,
      "note": 88,
      "start": 53.5249,
      "duration": 1.1921,
      "velocity": 100,
      "chip": "ym2612"
    },
    {
      "channel": 1,
      "note": 86,
      "start": 53.5273,
      "duration": 1.1894,
      "velocity": 100,
      "chip": "ym2612"
    },
    {
      "channel": 3,
      "note": 38,
      "start": 53.5296,
      "duration": 0.037,
      "velocity": 92,
      "chip": "ym2612"
    },
    {
      "channel": 2,
      "note": 80,
      "start": 53.5322,
      "duration": 0.0347,
      "velocity": 96,
      "chip": "ym2612"
    },
    {
      "channel": 4,
      "note": 66,
      "start": 53.6711,
      "duration": 0.0621,
      "velocity": 79,
      "chip": "ym2612"
    },
    {
      "channel": 3,
      "note": 62,
      "start": 53.6734,
      "duration": 0.0432,
      "velocity": 79,
      "chip": "ym2612"
    },
    {
      "channel": 2,
      "note": 78,
      "start": 53.6756,
      "duration": 0.0009,
      "velocity": 119,
      "chip": "ym2612"
    },
    {
      "channel": 2,
      "note": 80,
      "start": 53.678,
      "duration": 0.039,
      "velocity": 96,
      "chip": "ym2612"
    },
    {
      "channel": 4,
      "note": 66,
      "start": 53.804,
      "duration": 0.1293,
      "velocity": 79,
      "chip": "ym2612"
    },
    {
      "channel": 3,
      "note": 62,
      "start": 53.8063,
      "duration": 0.1103,
      "velocity": 79,
      "chip": "ym2612"
    },
    {
      "channel": 2,
      "note": 43,
      "start": 53.809,
      "duration": 0.0008,
      "velocity": 92,
      "chip": "ym2612"
    },
    {
      "channel": 2,
      "note": 80,
      "start": 53.8113,
      "duration": 0.0012,
      "velocity": 96,
      "chip": "ym2612"
    },
    {
      "channel": 2,
      "note": 45,
      "start": 53.8141,
      "duration": 0.0863,
      "velocity": 119,
      "chip": "ym2612"
    },
    {
      "channel": 2,
      "note": 76,
      "start": 53.954,
      "duration": 0.0033,
      "velocity": 119,
      "chip": "ym2612"
    },
    {
      "channel": 3,
      "note": 36,
      "start": 53.9565,
      "duration": 0.1268,
      "velocity": 92,
      "chip": "ym2612"
    },
    {
      "channel": 2,
      "note": 81,
      "start": 53.9588,
      "duration": 0.0582,
      "velocity": 27,
      "chip": "ym2612"
    },
    {
      "channel": 4,
      "note": 64,
      "start": 54.1038,
      "duration": 0.1132,
      "velocity": 79,
      "chip": "ym2612"
    },
    {
      "channel": 2,
      "note": 60,
      "start": 54.1062,
      "duration": 0.0941,
      "velocity": 79,
      "chip": "ym2612"
    },
    {
      "channel": 3,
      "note": 48,
      "start": 54.109,
      "duration": 0.1246,
      "velocity": 92,
      "chip": "ym2612"
    },
    {
      "channel": 2,
      "note": 72,
      "start": 54.2543,
      "duration": 0.0038,
      "velocity": 119,
      "chip": "ym2612"
    },
    {
      "channel": 3,
      "note": 45,
      "start": 54.2566,
      "duration": 0.06,
      "velocity": 92,
      "chip": "ym2612"
    },
    {
      "channel": 2,
      "note": 81,
      "start": 54.2595,
      "duration": 0.0241,
      "velocity": 27,
      "chip": "ym2612"
    },
    {
      "channel": 4,
      "note": 64,
      "start": 54.4036,
      "duration": 0.1133,
      "velocity": 79,
      "chip": "ym2612"
    },
    {
      "channel": 2,
      "note": 60,
      "start": 54.406,
      "duration": 0.1111,
      "velocity": 79,
      "chip": "ym2612"
    },
    {
      "channel": 3,
      "note": 38,
      "start": 54.4084,
      "duration": 0.1249,
      "velocity": 92,
      "chip": "ym2612"
    },
    {
      "channel": 4,
      "note": 69,
      "start": 54.5541,
      "duration": 0.0458,
      "velocity": 119,
      "chip": "ym2612"
    },
    {
      "channel": 3,
      "note": 50,
      "start": 54.5564,
      "duration": 0.0768,
      "velocity": 92,
      "chip": "ym2612"
    },
    {
      "channel": 2,
      "note": 80,
      "start": 54.5592,
      "duration": 0.0077,
      "velocity": 96,
      "chip": "ym2612"
    },
    {
      "channel": 2,
      "note": 66,
      "start": 54.704,
      "duration": 0.0795,
      "velocity": 79,
      "chip": "ym2612"
    },
    {
      "channel": 4,
      "note": 62,
      "start": 54.7062,
      "duration": 0.094,
      "velocity": 79,
      "chip": "ym2612"
    },
    {
      "channel": 3,
      "note": 36,
      "start": 54.7086,
      "duration": 0.0913,
      "velocity": 92,
      "chip": "ym2612"
    },
    {
      "channel": 0,
      "note": 72,
      "start": 54.8374,
      "duration": 0.0957,
      "velocity": 119,
      "chip": "ym2612"
    },
    {
      "channel": 3,
      "note": 48,
      "start": 54.8396,
      "duration": 0.1102,
      "velocity": 92,
      "chip": "ym2612"
    },
    {
      "channel": 2,
      "note": 66,
      "start": 54.9873,
      "duration": 0.1297,
      "velocity": 79,
      "chip": "ym2612"
    },
    {
      "channel": 4,
      "note": 62,
      "start": 54.9894,
      "duration": 0.111,
      "velocity": 79,
      "chip": "ym2612"
    },
    {
      "channel": 3,
      "note": 33,
      "start": 54.9917,
      "duration": 0.1083,
      "velocity": 92,
      "chip": "ym2612"
    },
    {
      "channel": 0,
      "note": 76,
      "start": 55.1372,
      "duration": 0.0315,
      "velocity": 119,
      "chip": "ym2612"
    },
    {
      "channel": 3,
      "note": 45,
      "start": 55.1395,
      "duration": 0.0434,
      "velocity": 92,
      "chip": "ym2612"
    },
    {
      "channel": 1,
      "note": 45,
      "start": 55.1462,
      "duration": 0.0085,
      "velocity": 119,
      "chip": "ym2612"
    },
    {
      "channel": 2,
      "note": 68,
      "start": 55.207,
      "duration": 0.0418,
      "velocity": 79,
      "chip": "ym2612"
    },
    {
      "channel": 4,
      "note": 64,
      "start": 55.21,
      "duration": 0.0386,
      "velocity": 79,
      "chip": "ym2612"
    },
    {
      "channel": 1,
      "note": 88,
      "start": 55.2122,
      "duration": 0.8336,
      "velocity": 100,
      "chip": "ym2612"
    },
    {
      "channel": 0,
      "note": 90,
      "start": 55.2145,
      "duration": 0.8312,
      "velocity": 100,
      "chip": "ym2612"
    },
    {
      "channel": 3,
      "note": 95,
      "start": 55.2164,
      "duration": 0.8296,
      "velocity": 100,
      "chip": "ym2612"
    },
    {
      "channel": 4,
      "note": 78,
      "start": 55.2733,
      "duration": 0.0196,
      "velocity": 119,
      "chip": "ym2612"
    },
    {
      "channel": 2,
      "note": 52,
      "start": 55.2754,
      "duration": 0.0008,
      "velocity": 92,
      "chip": "ym2612"
    },
    {
      "channel": 2,
      "note": 80,
      "start": 55.2776,
      "duration": 0.0156,
      "velocity": 96,
      "chip": "ym2612"
    },
    {
      "channel": 4,
      "note": 40,
      "start": 55.339,
      "duration": 0.0033,
      "velocity": 92,
      "chip": "ym2612"
    },
    {
      "channel": 2,
      "note": 80,
      "start": 55.3414,
      "duration": 0.0117,
      "velocity": 96,
      "chip": "ym2612"
    },
    {
      "channel": 4,
      "note": 45,
      "start": 55.344,
      "duration": 0.109,
      "velocity": 119,
      "chip": "ym2612"
    },
    {
      "channel": 5,
      "note": 76,
      "start": 55.4735,
      "duration": 0.0629,
      "velocity": 119,
      "chip": "ym2612"
    },
    {
      "channel": 2,
      "note": 47,
      "start": 55.4761,
      "duration": 0.0007,
      "velocity": 92,
      "chip": "ym2612"
    },
    {
      "channel": 2,
      "note": 81,
      "start": 55.4783,
      "duration": 0.0249,
      "velocity": 27,
      "chip": "ym2612"
    },
    {
      "channel": 4,
      "note": 40,
      "start": 55.6239,
      "duration": 0.0958,
      "velocity": 92,
      "chip": "ym2612"
    },
    {
      "channel": 2,
      "note": 81,
      "start": 55.6259,
      "duration": 0.0272,
      "velocity": 27,
      "chip": "ym2612"
    },
    {
      "channel": 5,
      "note": 45,
      "start": 55.6286,
      "duration": 0.0411,
      "velocity": 119,
      "chip": "ym2612"
    },
    {
      "channel": 2,
      "note": 73,
      "start": 55.7571,
      "duration": 0.0032,
      "velocity": 119,
      "chip": "ym2612"
    },
    {
      "channel": 4,
      "note": 50,
      "start": 55.7594,
      "duration": 0.0936,
      "velocity": 92,
      "chip": "ym2612"
    },
    {
      "channel": 2,
      "note": 81,
      "start": 55.7617,
      "duration": 0.0415,
      "velocity": 27,
      "chip": "ym2612"
    },
    {
      "channel": 4,
      "note": 50,
      "start": 55.9069,
      "duration": 0.0441,
      "velocity": 92,
      "chip": "ym2612"
    },
    {
      "channel": 2,
      "note": 71,
      "start": 55.9753,
      "duration": 0.0058,
      "velocity": 119,
      "chip": "ym2612"
    },
    {
      "channel": 4,
      "note": 40,
      "start": 55.9773,
      "duration": 0.0389,
      "velocity": 92,
      "chip": "ym2612"
    },
    {
      "channel": 2,
      "note": 80,
      "start": 55.9825,
      "duration": 0.005,
      "velocity": 96,
      "chip": "ym2612"
    },
    {
      "channel": 4,
      "note": 45,
      "start": 56.0411,
      "duration": 0.0554,
      "velocity": 92,
      "chip": "ym2612"
    },
    {
      "channel": 2,
      "note": 80,
      "start": 56.0431,
      "duration": 0.0177,
      "velocity": 96,
      "chip": "ym2612"
    },
    {
      "channel": 0,
      "note": 76,
      "start": 56.1062,
      "duration": 0.0577,
      "velocity": 119,
      "chip": "ym2612"
    },
    {
      "channel": 4,
      "note": 38,
      "start": 56.1084,
      "duration": 0.1392,
      "velocity": 92,
      "chip": "ym2612"
    },
    {
      "channel": 4,
      "note": 43,
      "start": 56.2523,
      "duration": 0.0953,
      "velocity": 92,
      "chip": "ym2612"
    },
    {
      "channel": 0,
      "note": 78,
      "start": 56.4013,
      "duration": 0.046,
      "velocity": 119,
      "chip": "ym2612"
    },
    {
      "channel": 4,
      "note": 45,
      "start": 56.4037,
      "duration": 0.0773,
      "velocity": 92,
      "chip": "ym2612"
    },
    {
      "channel": 1,
      "note": 88,
      "start": 56.5371,
      "duration": 0.9537,
      "velocity": 100,
      "chip": "ym2612"
    },
    {
      "channel": 3,
      "note": 86,
      "start": 56.539,
      "duration": 0.952,
      "velocity": 100,
      "chip": "ym2612"
    },
    {
      "channel": 2,
      "note": 93,
      "start": 56.5414,
      "duration": 0.9498,
      "velocity": 100,
      "chip": "ym2612"
    },
    {
      "channel": 4,
      "note": 38,
      "start": 56.5437,
      "duration": 0.0254,
      "velocity": 92,
      "chip": "ym2612"
    },
    {
      "channel": 0,
      "note": 62,
      "start": 56.6067,
      "duration": 0.0404,
      "velocity": 79,
      "chip": "ym2612"
    },
    {
      "channel": 4,
      "note": 59,
      "start": 56.6087,
      "duration": 0.0314,
      "velocity": 79,
      "chip": "ym2612"
    },
    {
      "channel": 0,
      "note": 62,
      "start": 56.6706,
      "duration": 0.1248,
      "velocity": 79,
      "chip": "ym2612"
    },
    {
      "channel": 4,
      "note": 59,
      "start": 56.6726,
      "duration": 0.1066,
      "velocity": 79,
      "chip": "ym2612"
    },
    {
      "channel": 5,
      "note": 43,
      "start": 56.6755,
      "duration": 0.0018,
      "velocity": 92,
      "chip": "ym2612"
    },
    {
      "channel": 5,
      "note": 45,
      "start": 56.6791,
      "duration": 0.1002,
      "velocity": 119,
      "chip": "ym2612"
    },
    {
      "channel": 4,
      "note": 76,
      "start": 56.8162,
      "duration": 0.0463,
      "velocity": 119,
      "chip": "ym2612"
    },
    {
      "channel": 5,
      "note": 36,
      "start": 56.8187,
      "duration": 0.1272,
      "velocity": 92,
      "chip": "ym2612"
    },
    {
      "channel": 0,
      "note": 60,
      "start": 56.966,
      "duration": 0.1127,
      "velocity": 79,
      "chip": "ym2612"
    },
    {
      "channel": 4,
      "note": 57,
      "start": 56.9682,
      "duration": 0.111,
      "velocity": 79,
      "chip": "ym2612"
    },
    {
      "channel": 5,
      "note": 48,
      "start": 56.9705,
      "duration": 0.0019,
      "velocity": 92,
      "chip": "ym2612"
    },
    {
      "channel": 5,
      "note": 45,
      "start": 56.9738,
      "duration": 0.0388,
      "velocity": 119,
      "chip": "ym2612"
    },
    {
      "channel": 5,
      "note": 72,
      "start": 57.1163,
      "duration": 0.0462,
      "velocity": 119,
      "chip": "ym2612"
    },
    {
      "channel": 0,
      "note": 45,
      "start": 57.1188,
      "duration": 0.0599,
      "velocity": 92,
      "chip": "ym2612"
    },
    {
      "channel": 4,
      "note": 60,
      "start": 57.2662,
      "duration": 0.1461,
      "velocity": 79,
      "chip": "ym2612"
    },
    {
      "channel": 5,
      "note": 57,
      "start": 57.2685,
      "duration": 0.1441,
      "velocity": 79,
      "chip": "ym2612"
    },
    {
      "channel": 0,
      "note": 38,
      "start": 57.2708,
      "duration": 0.1079,
      "velocity": 92,
      "chip": "ym2612"
    },
    {
      "channel": 0,
      "note": 71,
      "start": 57.4165,
      "duration": 0.0308,
      "velocity": 119,
      "chip": "ym2612"
    },
    {
      "channel": 4,
      "note": 50,
      "start": 57.419,
      "duration": 0.0361,
      "velocity": 92,
      "chip": "ym2612"
    },
    {
      "channel": 0,
      "note": 62,
      "start": 57.4781,
      "duration": 0.0477,
      "velocity": 79,
      "chip": "ym2612"
    },
    {
      "channel": 4,
      "note": 59,
      "start": 57.4805,
      "duration": 0.0455,
      "velocity": 79,
      "chip": "ym2612"
    },
    {
      "channel": 1,
      "note": 72,
      "start": 57.5419,
      "duration": 0.0683,
      "velocity": 119,
      "chip": "ym2612"
    },
    {
      "channel": 3,
      "note": 48,
      "start": 57.544,
      "duration": 0.0997,
      "velocity": 92,
      "chip": "ym2612"
    },
    {
      "channel": 0,
      "note": 62,
      "start": 57.6806,
      "duration": 0.1462,
      "velocity": 79,
      "chip": "ym2612"
    },
    {
      "channel": 4,
      "note": 59,
      "start": 57.6828,
      "duration": 0.1445,
      "velocity": 79,
      "chip": "ym2612"
    },
    {
      "channel": 3,
      "note": 33,
      "start": 57.6851,
      "duration": 0.1087,
      "velocity": 92,
      "chip": "ym2612"
    },
    {
      "channel": 1,
      "note": 76,
      "start": 57.8311,
      "duration": 0.0457,
      "velocity": 119,
      "chip": "ym2612"
    },
    {
      "channel": 3,
      "note": 45,
      "start": 57.8334,
      "duration": 0.0934,
      "velocity": 92,
      "chip": "ym2612"
    },
    {
      "channel": 2,
      "note": 80,
      "start": 57.8358,
      "duration": 0.0581,
      "velocity": 96,
      "chip": "ym2612"
    },
    {
      "channel": 0,
      "note": 64,
      "start": 57.9814,
      "duration": 0.1122,
      "velocity": 79,
      "chip": "ym2612"
    },
    {
      "channel": 4,
      "note": 61,
      "start": 57.9839,
      "duration": 0.1265,
      "velocity": 79,
      "chip": "ym2612"
    },
    {
      "channel": 5,
      "note": 90,
      "start": 57.9864,
      "duration": 1.1908,
      "velocity": 100,
      "chip": "ym2612"
    },
    {
      "channel": 1,
      "note": 100,
      "start": 57.9884,
      "duration": 1.1884,
      "velocity": 100,
      "chip": "ym2612"
    },
    {
      "channel": 2,
      "note": 95,
      "start": 57.9908,
      "duration": 1.1865,
      "velocity": 100,
      "chip": "ym2612"
    },
    {
      "channel": 3,
      "note": 54,
      "start": 57.9929,
      "duration": 0.0506,
      "velocity": 92,
      "chip": "ym2612"
    },
    {
      "channel": 3,
      "note": 78,
      "start": 58.1309,
      "duration": 0.046,
      "velocity": 119,
      "chip": "ym2612"
    },
    {
      "channel": 0,
      "note": 54,
      "start": 58.1334,
      "duration": 0.0767,
      "velocity": 92,
      "chip": "ym2612"
    },
    {
      "channel": 0,
      "note": 42,
      "start": 58.281,
      "duration": 0.0957,
      "velocity": 92,
      "chip": "ym2612"
    },
    {
      "channel": 3,
      "note": 76,
      "start": 58.4141,
      "duration": 0.063,
      "velocity": 119,
      "chip": "ym2612"
    },
    {
      "channel": 0,
      "note": 49,
      "start": 58.4163,
      "duration": 0.0938,
      "velocity": 92,
      "chip": "ym2612"
    },
    {
      "channel": 0,
      "note": 42,
      "start": 58.565,
      "duration": 0.1118,
      "velocity": 92,
      "chip": "ym2612"
    },
    {
      "channel": 3,
      "note": 73,
      "start": 58.7142,
      "duration": 0.063,
      "velocity": 119,
      "chip": "ym2612"
    },
    {
      "channel": 0,
      "note": 52,
      "start": 58.7164,
      "duration": 0.0937,
      "velocity": 92,
      "chip": "ym2612"
    },
    {
      "channel": 0,
      "note": 52,
      "start": 58.8643,
      "duration": 0.0959,
      "velocity": 92,
      "chip": "ym2612"
    },
    {
      "channel": 3,
      "note": 71,
      "start": 59.0147,
      "duration": 0.0622,
      "velocity": 119,
      "chip": "ym2612"
    },
    {
      "channel": 0,
      "note": 42,
      "start": 59.0168,
      "duration": 0.0766,
      "velocity": 92,
      "chip": "ym2612"
    },
    {
      "channel": 0,
      "note": 47,
      "start": 59.1644,
      "duration": 0.1291,
      "velocity": 92,
      "chip": "ym2612"
    },
    {
      "channel": 3,
      "note": 73,
      "start": 59.3143,
      "duration": 0.1129,
      "velocity": 119,
      "chip": "ym2612"
    },
    {
      "channel": 0,
      "note": 40,
      "start": 59.3165,
      "duration": 0.1438,
      "velocity": 92,
      "chip": "ym2612"
    },
    {
      "channel": 0,
      "note": 45,
      "start": 59.4646,
      "duration": 0.0955,
      "velocity": 92,
      "chip": "ym2612"
    },
    {
      "channel": 3,
      "note": 76,
      "start": 59.5976,
      "duration": 0.0627,
      "velocity": 119,
      "chip": "ym2612"
    },
    {
      "channel": 0,
      "note": 47,
      "start": 59.5998,
      "duration": 0.0937,
      "velocity": 92,
      "chip": "ym2612"
    },
    {
      "channel": 2,
      "note": 80,
      "start": 59.6022,
      "duration": 0.0751,
      "velocity": 96,
      "chip": "ym2612"
    },
    {
      "channel": 1,
      "note": 88,
      "start": 59.7477,
      "duration": 1.1959,
      "velocity": 100,
      "chip": "ym2612"
    },
    {
      "channel": 5,
      "note": 86,
      "start": 59.7497,
      "duration": 1.1944,
      "velocity": 100,
      "chip": "ym2612"
    },
    {
      "channel": 4,
      "note": 93,
      "start": 59.752,
      "duration": 1.1919,
      "velocity": 100,
      "chip": "ym2612"
    },
    {
      "channel": 0,
      "note": 38,
      "start": 59.7543,
      "duration": 0.0558,
      "velocity": 92,
      "chip": "ym2612"
    },
    {
      "channel": 2,
      "note": 80,
      "start": 59.7569,
      "duration": 0.0538,
      "velocity": 96,
      "chip": "ym2612"
    },
    {
      "channel": 3,
      "note": 66,
      "start": 59.8977,
      "duration": 0.0462,
      "velocity": 79,
      "chip": "ym2612"
    },
    {
      "channel": 0,
      "note": 62,
      "start": 59.9001,
      "duration": 0.0433,
      "velocity": 79,
      "chip": "ym2612"
    },
    {
      "channel": 2,
      "note": 78,
      "start": 59.9023,
      "duration": 0.001,
      "velocity": 119,
      "chip": "ym2612"
    },
    {
      "channel": 2,
      "note": 80,
      "start": 59.9047,
      "duration": 0.0394,
      "velocity": 96,
      "chip": "ym2612"
    },
    {
      "channel": 3,
      "note": 66,
      "start": 60.0476,
      "duration": 0.1129,
      "velocity": 79,
      "chip": "ym2612"
    },
    {
      "channel": 0,
      "note": 62,
      "start": 60.0498,
      "duration": 0.1103,
      "velocity": 79,
      "chip": "ym2612"
    },
    {
      "channel": 2,
      "note": 43,
      "start": 60.0526,
      "duration": 0.0007,
      "velocity": 92,
      "chip": "ym2612"
    },
    {
      "channel": 2,
      "note": 80,
      "start": 60.0548,
      "duration": 0.0391,
      "velocity": 96,
      "chip": "ym2612"
    },
    {
      "channel": 2,
      "note": 76,
      "start": 60.1977,
      "duration": 0.0033,
      "velocity": 119,
      "chip": "ym2612"
    },
    {
      "channel": 0,
      "note": 36,
      "start": 60.2002,
      "duration": 0.1266,
      "velocity": 92,
      "chip": "ym2612"
    },
    {
      "channel": 2,
      "note": 81,
      "start": 60.2025,
      "duration": 0.0415,
      "velocity": 27,
      "chip": "ym2612"
    },
    {
      "channel": 3,
      "note": 64,
      "start": 60.3475,
      "duration": 0.0796,
      "velocity": 79,
      "chip": "ym2612"
    },
    {
      "channel": 2,
      "note": 60,
      "start": 60.3499,
      "duration": 0.0775,
      "velocity": 79,
      "chip": "ym2612"
    },
    {
      "channel": 0,
      "note": 48,
      "start": 60.3521,
      "duration": 0.1081,
      "velocity": 92,
      "chip": "ym2612"
    },
    {
      "channel": 3,
      "note": 72,
      "start": 60.4978,
      "duration": 0.0628,
      "velocity": 119,
      "chip": "ym2612"
    },
    {
      "channel": 0,
      "note": 45,
      "start": 60.5001,
      "duration": 0.0601,
      "velocity": 92,
      "chip": "ym2612"
    },
    {
      "channel": 2,
      "note": 81,
      "start": 60.5025,
      "duration": 0.0249,
      "velocity": 27,
      "chip": "ym2612"
    },
    {
      "channel": 2,
      "note": 64,
      "start": 60.6309,
      "duration": 0.1298,
      "velocity": 79,
      "chip": "ym2612"
    },
    {
      "channel": 0,
      "note": 60,
      "start": 60.6332,
      "duration": 0.1269,
      "velocity": 79,
      "chip": "ym2612"
    },
    {
      "channel": 3,
      "note": 38,
      "start": 60.6358,
      "duration": 0.1247,
      "velocity": 92,
      "chip": "ym2612"
    },
    {
      "channel": 0,
      "note": 69,
      "start": 60.7811,
      "duration": 0.0623,
      "velocity": 119,
      "chip": "ym2612"
    },
    {
      "channel": 3,
      "note": 50,
      "start": 60.7834,
      "duration": 0.0935,
      "velocity": 92,
      "chip": "ym2612"
    },
    {
      "channel": 2,
      "note": 80,
      "start": 60.7867,
      "duration": 0.0072,
      "velocity": 96,
      "chip": "ym2612"
    },
    {
      "channel": 2,
      "note": 66,
      "start": 60.931,
      "duration": 0.1129,
      "velocity": 79,
      "chip": "ym2612"
    },
    {
      "channel": 0,
      "note": 62,
      "start": 60.9333,
      "duration": 0.0935,
      "velocity": 79,
      "chip": "ym2612"
    },
    {
      "channel": 3,
      "note": 36,
      "start": 60.9357,
      "duration": 0.1078,
      "velocity": 92,
      "chip": "ym2612"
    },
    {
      "channel": 1,
      "note": 72,
      "start": 61.081,
      "duration": 0.0958,
      "velocity": 119,
      "chip": "ym2612"
    },
    {
      "channel": 3,
      "note": 48,
      "start": 61.0832,
      "duration": 0.1104,
      "velocity": 92,
      "chip": "ym2612"
    },
    {
      "channel": 2,
      "note": 66,
      "start": 61.2309,
      "duration": 0.1296,
      "velocity": 79,
      "chip": "ym2612"
    },
    {
      "channel": 0,
      "note": 62,
      "start": 61.2329,
      "duration": 0.1106,
      "velocity": 79,
      "chip": "ym2612"
    },
    {
      "channel": 3,
      "note": 33,
      "start": 61.2358,
      "duration": 0.1081,
      "velocity": 92,
      "chip": "ym2612"
    },
    {
      "channel": 1,
      "note": 76,
      "start": 61.3809,
      "duration": 0.0461,
      "velocity": 119,
      "chip": "ym2612"
    },
    {
      "channel": 3,
      "note": 45,
      "start": 61.3832,
      "duration": 0.0771,
      "velocity": 92,
      "chip": "ym2612"
    },
    {
      "channel": 2,
      "note": 68,
      "start": 61.5312,
      "duration": 0.0961,
      "velocity": 79,
      "chip": "ym2612"
    },
    {
      "channel": 0,
      "note": 64,
      "start": 61.5334,
      "duration": 0.0934,
      "velocity": 79,
      "chip": "ym2612"
    },
    {
      "channel": 4,
      "note": 90,
      "start": 61.5363,
      "duration": 1.191,
      "velocity": 100,
      "chip": "ym2612"
    },
    {
      "channel": 5,
      "note": 88,
      "start": 61.5382,
      "duration": 1.1891,
      "velocity": 100,
      "chip": "ym2612"
    },
    {
      "channel": 1,
      "note": 95,
      "start": 61.5406,
      "duration": 1.1863,
      "velocity": 100,
      "chip": "ym2612"
    },
    {
      "channel": 3,
      "note": 52,
      "start": 61.5427,
      "duration": 0.0509,
      "velocity": 92,
      "chip": "ym2612"
    },
    {
      "channel": 3,
      "note": 78,
      "start": 61.6809,
      "duration": 0.0459,
      "velocity": 119,
      "chip": "ym2612"
    },
    {
      "channel": 0,
      "note": 52,
      "start": 61.6834,
      "duration": 0.0767,
      "velocity": 92,
      "chip": "ym2612"
    },
    {
      "channel": 2,
      "note": 80,
      "start": 61.6858,
      "duration": 0.0415,
      "velocity": 96,
      "chip": "ym2612"
    },
    {
      "channel": 0,
      "note": 40,
      "start": 61.8144,
      "duration": 0.1124,
      "velocity": 92,
      "chip": "ym2612"
    },
    {
      "channel": 2,
      "note": 80,
      "start": 61.8167,
      "duration": 0.0438,
      "velocity": 96,
      "chip": "ym2612"
    },
    {
      "channel": 3,
      "note": 76,
      "start": 61.9643,
      "duration": 0.0796,
      "velocity": 119,
      "chip": "ym2612"
    },
    {
      "channel": 0,
      "note": 47,
      "start": 61.9665,
      "duration": 0.0937,
      "velocity": 92,
      "chip": "ym2612"
    },
    {
      "channel": 2,
      "note": 81,
      "start": 61.9686,
      "duration": 0.0255,
      "velocity": 27,
      "chip": "ym2612"
    },
    {
      "channel": 0,
      "note": 40,
      "start": 62.1145,
      "duration": 0.1123,
      "velocity": 92,
      "chip": "ym2612"
    },
    {
      "channel": 2,
      "note": 81,
      "start": 62.1165,
      "duration": 0.0276,
      "velocity": 27,
      "chip": "ym2612"
    },
    {
      "channel": 3,
      "note": 73,
      "start": 62.2643,
      "duration": 0.0459,
      "velocity": 119,
      "chip": "ym2612"
    },
    {
      "channel": 0,
      "note": 50,
      "start": 62.2666,
      "duration": 0.0936,
      "velocity": 92,
      "chip": "ym2612"
    },
    {
      "channel": 2,
      "note": 81,
      "start": 62.2693,
      "duration": 0.0247,
      "velocity": 27,
      "chip": "ym2612"
    },
    {
      "channel": 0,
      "note": 50,
      "start": 62.4143,
      "duration": 0.0792,
      "velocity": 92,
      "chip": "ym2612"
    },
    {
      "channel": 3,
      "note": 81,
      "start": 62.5641,
      "duration": 0.0464,
      "velocity": 119,
      "chip": "ym2612"
    },
    {
      "channel": 0,
      "note": 40,
      "start": 62.5662,
      "duration": 0.0773,
      "velocity": 92,
      "chip": "ym2612"
    },
    {
      "channel": 2,
      "note": 80,
      "start": 62.5688,
      "duration": 0.0251,
      "velocity": 96,
      "chip": "ym2612"
    },
    {
      "channel": 0,
      "note": 45,
      "start": 62.7144,
      "duration": 0.1123,
      "velocity": 92,
      "chip": "ym2612"
    },
    {
      "channel": 2,
      "note": 80,
      "start": 62.7168,
      "duration": 0.0435,
      "velocity": 96,
      "chip": "ym2612"
    },
    {
      "channel": 3,
      "note": 76,
      "start": 62.8475,
      "duration": 0.0796,
      "velocity": 119,
      "chip": "ym2612"
    },
    {
      "channel": 0,
      "note": 38,
      "start": 62.8498,
      "duration": 0.1438,
      "velocity": 92,
      "chip": "ym2612"
    },
    {
      "channel": 0,
      "note": 43,
      "start": 62.9978,
      "duration": 0.1123,
      "velocity": 92,
      "chip": "ym2612"
    },
    {
      "channel": 3,
      "note": 78,
      "start": 63.1476,
      "duration": 0.0462,
      "velocity": 119,
      "chip": "ym2612"
    },
    {
      "channel": 0,
      "note": 45,
      "start": 63.1498,
      "duration": 0.0936,
      "velocity": 92,
      "chip": "ym2612"
    },
    {
      "channel": 1,
      "note": 93,
      "start": 63.2977,
      "duration": 1.1959,
      "velocity": 100,
      "chip": "ym2612"
    },
    {
      "channel": 4,
      "note": 88,
      "start": 63.2996,
      "duration": 1.1943,
      "velocity": 100,
      "chip": "ym2612"
    },
    {
      "channel": 5,
      "note": 86,
      "start": 63.3019,
      "duration": 1.1921,
      "velocity": 100,
      "chip": "ym2612"
    },
    {
      "channel": 0,
      "note": 38,
      "start": 63.3041,
      "duration": 0.0394,
      "velocity": 92,
      "chip": "ym2612"
    },
    {
      "channel": 2,
      "note": 62,
      "start": 63.4478,
      "duration": 0.0629,
      "velocity": 79,
      "chip": "ym2612"
    },
    {
      "channel": 3,
      "note": 59,
      "start": 63.4502,
      "duration": 0.06,
      "velocity": 79,
      "chip": "ym2612"
    },
    {
      "channel": 0,
      "note": 78,
      "start": 63.4524,
      "duration": 0.041,
      "velocity": 119,
      "chip": "ym2612"
    },
    {
      "channel": 2,
      "note": 62,
      "start": 63.5977,
      "duration": 0.0463,
      "velocity": 79,
      "chip": "ym2612"
    },
    {
      "channel": 3,
      "note": 59,
      "start": 63.6,
      "duration": 0.0435,
      "velocity": 79,
      "chip": "ym2612"
    },
    {
      "channel": 0,
      "note": 43,
      "start": 63.6027,
      "duration": 0.0907,
      "velocity": 92,
      "chip": "ym2612"
    },
    {
      "channel": 3,
      "note": 76,
      "start": 63.7477,
      "duration": 0.0462,
      "velocity": 119,
      "chip": "ym2612"
    },
    {
      "channel": 0,
      "note": 36,
      "start": 63.7504,
      "duration": 0.1098,
      "velocity": 92,
      "chip": "ym2612"
    },
    {
      "channel": 2,
      "note": 81,
      "start": 63.7525,
      "duration": 0.0249,
      "velocity": 27,
      "chip": "ym2612"
    },
    {
      "channel": 2,
      "note": 60,
      "start": 63.881,
      "duration": 0.1129,
      "velocity": 79,
      "chip": "ym2612"
    },
    {
      "channel": 3,
      "note": 57,
      "start": 63.8833,
      "duration": 0.0939,
      "velocity": 79,
      "chip": "ym2612"
    },
    {
      "channel": 0,
      "note": 48,
      "start": 63.8856,
      "duration": 0.1246,
      "velocity": 92,
      "chip": "ym2612"
    },
    {
      "channel": 3,
      "note": 72,
      "start": 64.031,
      "duration": 0.0628,
      "velocity": 119,
      "chip": "ym2612"
    },
    {
      "channel": 0,
      "note": 45,
      "start": 64.0332,
      "duration": 0.0769,
      "velocity": 92,
      "chip": "ym2612"
    },
    {
      "channel": 2,
      "note": 81,
      "start": 64.0355,
      "duration": 0.0586,
      "velocity": 27,
      "chip": "ym2612"
    },
    {
      "channel": 3,
      "note": 60,
      "start": 64.1809,
      "duration": 0.1296,
      "velocity": 79,
      "chip": "ym2612"
    },
    {
      "channel": 2,
      "note": 57,
      "start": 64.1838,
      "duration": 0.1101,
      "velocity": 79,
      "chip": "ym2612"
    },
    {
      "channel": 0,
      "note": 38,
      "start": 64.1861,
      "duration": 0.124,
      "velocity": 92,
      "chip": "ym2612"
    },
    {
      "channel": 2,
      "note": 71,
      "start": 64.3312,
      "duration": 0.0036,
      "velocity": 119,
      "chip": "ym2612"
    },
    {
      "channel": 0,
      "note": 50,
      "start": 64.3334,
      "duration": 0.0933,
      "velocity": 92,
      "chip": "ym2612"
    },
    {
      "channel": 2,
      "note": 80,
      "start": 64.3363,
      "duration": 0.0243,
      "velocity": 96,
      "chip": "ym2612"
    },
    {
      "channel": 3,
      "note": 62,
      "start": 64.4806,
      "duration": 0.1296,
      "velocity": 79,
      "chip": "ym2612"
    },
    {
      "channel": 2,
      "note": 59,
      "start": 64.4828,
      "duration": 0.1112,
      "velocity": 79,
      "chip": "ym2612"
    },
    {
      "channel": 0,
      "note": 36,
      "start": 64.4851,
      "duration": 0.1083,
      "velocity": 92,
      "chip": "ym2612"
    },
    {
      "channel": 1,
      "note": 72,
      "start": 64.6309,
      "duration": 0.0627,
      "velocity": 119,
      "chip": "ym2612"
    },
    {
      "channel": 0,
      "note": 48,
      "start": 64.633,
      "duration": 0.0938,
      "velocity": 92,
      "chip": "ym2612"
    },
    {
      "channel": 3,
      "note": 62,
      "start": 64.7812,
      "duration": 0.1623,
      "velocity": 79,
      "chip": "ym2612"
    },
    {
      "channel": 2,
      "note": 59,
      "start": 64.7836,
      "duration": 0.1437,
      "velocity": 79,
      "chip": "ym2612"
    },
    {
      "channel": 0,
      "note": 33,
      "start": 64.7858,
      "duration": 0.091,
      "velocity": 92,
      "chip": "ym2612"
    },
    {
      "channel": 1,
      "note": 76,
      "start": 64.9317,
      "duration": 0.0453,
      "velocity": 119,
      "chip": "ym2612"
    },
    {
      "channel": 0,
      "note": 45,
      "start": 64.9339,
      "duration": 0.0763,
      "velocity": 92,
      "chip": "ym2612"
    },
    {
      "channel": 2,
      "note": 80,
      "start": 64.9362,
      "duration": 0.0578,
      "velocity": 96,
      "chip": "ym2612"
    },
    {
      "channel": 0,
      "note": 54,
      "start": 65.0776,
      "duration": 0.0992,
      "velocity": 127,
      "chip": "ym2612"
    },
    {
      "channel": 4,
      "note": 80,
      "start": 65.087,
      "duration": 1.5066,
      "velocity": 85,
      "chip": "ym2612"
    },
    {
      "channel": 2,
      "note": 80,
      "start": 65.2147,
      "duration": 0.0625,
      "velocity": 96,
      "chip": "ym2612"
    },
    {
      "channel": 0,
      "note": 59,
      "start": 65.3644,
      "duration": 0.1124,
      "velocity": 127,
      "chip": "ym2612"
    },
    {
      "channel": 2,
      "note": 80,
      "start": 65.3666,
      "duration": 0.0439,
      "velocity": 96,
      "chip": "ym2612"
    },
    {
      "channel": 5,
      "note": 45,
      "start": 65.369,
      "duration": 0.1246,
      "velocity": 119,
      "chip": "ym2612"
    },
    {
      "channel": 0,
      "note": 52,
      "start": 65.5144,
      "duration": 0.129,
      "velocity": 127,
      "chip": "ym2612"
    },
    {
      "channel": 0,
      "note": 64,
      "start": 65.6643,
      "duration": 0.1291,
      "velocity": 127,
      "chip": "ym2612"
    },
    {
      "channel": 5,
      "note": 45,
      "start": 65.6672,
      "duration": 0.1934,
      "velocity": 119,
      "chip": "ym2612"
    },
    {
      "channel": 0,
      "note": 61,
      "start": 65.8145,
      "duration": 0.0622,
      "velocity": 127,
      "chip": "ym2612"
    },
    {
      "channel": 0,
      "note": 66,
      "start": 66.0976,
      "duration": 0.0793,
      "velocity": 127,
      "chip": "ym2612"
    },
    {
      "channel": 2,
      "note": 80,
      "start": 66.0998,
      "duration": 0.0607,
      "velocity": 96,
      "chip": "ym2612"
    },
    {
      "channel": 2,
      "note": 80,
      "start": 66.248,
      "duration": 0.0626,
      "velocity": 96,
      "chip": "ym2612"
    },
    {
      "channel": 0,
      "note": 64,
      "start": 66.3977,
      "duration": 0.0957,
      "velocity": 127,
      "chip": "ym2612"
    },
    {
      "channel": 3,
      "note": 81,
      "start": 66.5486,
      "duration": 0.1448,
      "velocity": 85,
      "chip": "ym2612"
    },
    {
      "channel": 0,
      "note": 61,
      "start": 66.6979,
      "duration": 0.0622,
      "velocity": 127,
      "chip": "ym2612"
    },
    {
      "channel": 3,
      "note": 80,
      "start": 66.7004,
      "duration": 0.1098,
      "velocity": 85,
      "chip": "ym2612"
    },
    {
      "channel": 0,
      "note": 54,
      "start": 66.8478,
      "duration": 0.0362,
      "velocity": 127,
      "chip": "ym2612"
    },
    {
      "channel": 3,
      "note": 78,
      "start": 66.8536,
      "duration": 1.2303,
      "velocity": 85,
      "chip": "ym2612"
    },
    {
      "channel": 2,
      "note": 80,
      "start": 66.9168,
      "duration": 0.0179,
      "velocity": 96,
      "chip": "ym2612"
    },
    {
      "channel": 0,
      "note": 59,
      "start": 67.0216,
      "duration": 0.0955,
      "velocity": 127,
      "chip": "ym2612"
    },
    {
      "channel": 2,
      "note": 80,
      "start": 67.0239,
      "duration": 0.0438,
      "velocity": 96,
      "chip": "ym2612"
    },
    {
      "channel": 1,
      "note": 45,
      "start": 67.0263,
      "duration": 0.1076,
      "velocity": 119,
      "chip": "ym2612"
    },
    {
      "channel": 0,
      "note": 52,
      "start": 67.1548,
      "duration": 0.129,
      "velocity": 127,
      "chip": "ym2612"
    },
    {
      "channel": 0,
      "note": 64,
      "start": 67.3048,
      "duration": 0.1124,
      "velocity": 127,
      "chip": "ym2612"
    },
    {
      "channel": 1,
      "note": 45,
      "start": 67.3076,
      "duration": 0.1763,
      "velocity": 119,
      "chip": "ym2612"
    },
    {
      "channel": 0,
      "note": 59,
      "start": 67.4554,
      "duration": 0.0951,
      "velocity": 127,
      "chip": "ym2612"
    },
    {
      "channel": 0,
      "note": 51,
      "start": 67.7548,
      "duration": 0.129,
      "velocity": 127,
      "chip": "ym2612"
    },
    {
      "channel": 2,
      "note": 80,
      "start": 67.7571,
      "duration": 0.0438,
      "velocity": 96,
      "chip": "ym2612"
    },
    {
      "channel": 2,
      "note": 80,
      "start": 67.905,
      "duration": 0.0459,
      "velocity": 96,
      "chip": "ym2612"
    },
    {
      "channel": 0,
      "note": 52,
      "start": 68.0548,
      "duration": 0.129,
      "velocity": 127,
      "chip": "ym2612"
    },
    {
      "channel": 4,
      "note": 76,
      "start": 68.0574,
      "duration": 0.0765,
      "velocity": 85,
      "chip": "ym2612"
    },
    {
      "channel": 3,
      "note": 73,
      "start": 68.1887,
      "duration": 0.1119,
      "velocity": 85,
      "chip": "ym2612"
    },
    {
      "channel": 0,
      "note": 49,
      "start": 68.3383,
      "duration": 0.1122,
      "velocity": 127,
      "chip": "ym2612"
    },
    {
      "channel": 3,
      "note": 72,
      "start": 68.3407,
      "duration": 0.1265,
      "velocity": 85,
      "chip": "ym2612"
    },
    {
      "channel": 0,
      "note": 54,
      "start": 68.4882,
      "duration": 0.0434,
      "velocity": 127,
      "chip": "ym2612"
    },
    {
      "channel": 3,
      "note": 71,
      "start": 68.4941,
      "duration": 1.3629,
      "velocity": 85,
      "chip": "ym2612"
    },
    {
      "channel": 2,
      "note": 80,
      "start": 68.5568,
      "duration": 0.0107,
      "velocity": 96,
      "chip": "ym2612"
    },
    {
      "channel": 0,
      "note": 59,
      "start": 68.6613,
      "duration": 0.1289,
      "velocity": 127,
      "chip": "ym2612"
    },
    {
      "channel": 2,
      "note": 80,
      "start": 68.6636,
      "duration": 0.0272,
      "velocity": 96,
      "chip": "ym2612"
    },
    {
      "channel": 1,
      "note": 45,
      "start": 68.6659,
      "duration": 0.1245,
      "velocity": 119,
      "chip": "ym2612"
    },
    {
      "channel": 0,
      "note": 52,
      "start": 68.8111,
      "duration": 0.1293,
      "velocity": 127,
      "chip": "ym2612"
    },
    {
      "channel": 0,
      "note": 64,
      "start": 68.9612,
      "duration": 0.0957,
      "velocity": 127,
      "chip": "ym2612"
    },
    {
      "channel": 1,
      "note": 45,
      "start": 68.9639,
      "duration": 0.1431,
      "velocity": 119,
      "chip": "ym2612"
    },
    {
      "channel": 0,
      "note": 61,
      "start": 69.1115,
      "duration": 0.062,
      "velocity": 127,
      "chip": "ym2612"
    },
    {
      "channel": 2,
      "note": 80,
      "start": 69.1139,
      "duration": 0.0602,
      "velocity": 96,
      "chip": "ym2612"
    },
    {
      "channel": 0,
      "note": 66,
      "start": 69.3945,
      "duration": 0.0791,
      "velocity": 127,
      "chip": "ym2612"
    },
    {
      "channel": 2,
      "note": 80,
      "start": 69.3968,
      "duration": 0.0273,
      "velocity": 96,
      "chip": "ym2612"
    },
    {
      "channel": 2,
      "note": 80,
      "start": 69.5449,
      "duration": 0.0456,
      "velocity": 96,
      "chip": "ym2612"
    },
    {
      "channel": 0,
      "note": 64,
      "start": 69.6946,
      "duration": 0.0957,
      "velocity": 127,
      "chip": "ym2612"
    },
    {
      "channel": 4,
      "note": 69,
      "start": 69.8452,
      "duration": 0.1118,
      "velocity": 85,
      "chip": "ym2612"
    },
    {
      "channel": 0,
      "note": 61,
      "start": 69.9947,
      "duration": 0.0456,
      "velocity": 127,
      "chip": "ym2612"
    },
    {
      "channel": 3,
      "note": 71,
      "start": 69.9976,
      "duration": 0.0431,
      "velocity": 85,
      "chip": "ym2612"
    },
    {
      "channel": 0,
      "note": 69,
      "start": 70.1445,
      "duration": 0.0434,
      "velocity": 127,
      "chip": "ym2612"
    },
    {
      "channel": 3,
      "note": 71,
      "start": 70.1503,
      "duration": 0.1933,
      "velocity": 85,
      "chip": "ym2612"
    },
    {
      "channel": 0,
      "note": 66,
      "start": 70.2039,
      "duration": 0.0559,
      "velocity": 127,
      "chip": "ym2612"
    },
    {
      "channel": 2,
      "note": 80,
      "start": 70.207,
      "duration": 0.0228,
      "velocity": 96,
      "chip": "ym2612"
    },
    {
      "channel": 0,
      "note": 64,
      "start": 70.2975,
      "duration": 0.0791,
      "velocity": 127,
      "chip": "ym2612"
    },
    {
      "channel": 2,
      "note": 80,
      "start": 70.2997,
      "duration": 0.0606,
      "velocity": 96,
      "chip": "ym2612"
    },
    {
      "channel": 4,
      "note": 69,
      "start": 70.302,
      "duration": 0.1249,
      "velocity": 85,
      "chip": "ym2612"
    },
    {
      "channel": 1,
      "note": 45,
      "start": 70.3042,
      "duration": 0.089,
      "velocity": 119,
      "chip": "ym2612"
    },
    {
      "channel": 0,
      "note": 66,
      "start": 70.4479,
      "duration": 0.1119,
      "velocity": 127,
      "chip": "ym2612"
    },
    {
      "channel": 3,
      "note": 66,
      "start": 70.4502,
      "duration": 0.1264,
      "velocity": 85,
      "chip": "ym2612"
    },
    {
      "channel": 0,
      "note": 64,
      "start": 70.5973,
      "duration": 0.1125,
      "velocity": 127,
      "chip": "ym2612"
    },
    {
      "channel": 3,
      "note": 71,
      "start": 70.5996,
      "duration": 0.1273,
      "velocity": 85,
      "chip": "ym2612"
    },
    {
      "channel": 1,
      "note": 45,
      "start": 70.6019,
      "duration": 0.1247,
      "velocity": 119,
      "chip": "ym2612"
    },
    {
      "channel": 0,
      "note": 61,
      "start": 70.7475,
      "duration": 0.0457,
      "velocity": 127,
      "chip": "ym2612"
    },
    {
      "channel": 3,
      "note": 69,
      "start": 70.7502,
      "duration": 0.6931,
      "velocity": 85,
      "chip": "ym2612"
    },
    {
      "channel": 0,
      "note": 49,
      "start": 70.8975,
      "duration": 0.129,
      "velocity": 127,
      "chip": "ym2612"
    },
    {
      "channel": 0,
      "note": 61,
      "start": 71.0474,
      "duration": 0.1125,
      "velocity": 127,
      "chip": "ym2612"
    },
    {
      "channel": 2,
      "note": 80,
      "start": 71.0498,
      "duration": 0.0272,
      "velocity": 96,
      "chip": "ym2612"
    },
    {
      "channel": 1,
      "note": 45,
      "start": 71.052,
      "duration": 0.0912,
      "velocity": 119,
      "chip": "ym2612"
    },
    {
      "channel": 0,
      "note": 49,
      "start": 71.1973,
      "duration": 0.1125,
      "velocity": 127,
      "chip": "ym2612"
    },
    {
      "channel": 2,
      "note": 80,
      "start": 71.1997,
      "duration": 0.0439,
      "velocity": 96,
      "chip": "ym2612"
    },
    {
      "channel": 0,
      "note": 52,
      "start": 71.3307,
      "duration": 0.1291,
      "velocity": 127,
      "chip": "ym2612"
    },
    {
      "channel": 0,
      "note": 64,
      "start": 71.4809,
      "duration": 0.1457,
      "velocity": 127,
      "chip": "ym2612"
    },
    {
      "channel": 0,
      "note": 57,
      "start": 71.6309,
      "duration": 0.129,
      "velocity": 127,
      "chip": "ym2612"
    },
    {
      "channel": 1,
      "note": 45,
      "start": 71.634,
      "duration": 0.0093,
      "velocity": 119,
      "chip": "ym2612"
    },
    {
      "channel": 5,
      "note": 73,
      "start": 71.7814,
      "duration": 0.003,
      "velocity": 67,
      "chip": "ym2612"
    },
    {
      "channel": 0,
      "note": 54,
      "start": 71.7837,
      "duration": 0.0212,
      "velocity": 127,
      "chip": "ym2612"
    },
    {
      "channel": 2,
      "note": 80,
      "start": 71.8519,
      "duration": 0.018,
      "velocity": 96,
      "chip": "ym2612"
    },
    {
      "channel": 0,
      "note": 59,
      "start": 71.916,
      "duration": 0.0932,
      "velocity": 127,
      "chip": "ym2612"
    },
    {
      "channel": 2,
      "note": 80,
      "start": 71.9182,
      "duration": 0.0414,
      "velocity": 96,
      "chip": "ym2612"
    },
    {
      "channel": 1,
      "note": 45,
      "start": 71.9205,
      "duration": 0.072,
      "velocity": 119,
      "chip": "ym2612"
    },
    {
      "channel": 0,
      "note": 52,
      "start": 72.0634,
      "duration": 0.1124,
      "velocity": 127,
      "chip": "ym2612"
    },
    {
      "channel": 0,
      "note": 64,
      "start": 72.1966,
      "duration": 0.1292,
      "velocity": 127,
      "chip": "ym2612"
    },
    {
      "channel": 2,
      "note": 80,
      "start": 72.199,
      "duration": 0.0273,
      "velocity": 96,
      "chip": "ym2612"
    },
    {
      "channel": 1,
      "note": 45,
      "start": 72.2012,
      "duration": 0.108,
      "velocity": 119,
      "chip": "ym2612"
    },
    {
      "channel": 0,
      "note": 61,
      "start": 72.3469,
      "duration": 0.0789,
      "velocity": 127,
      "chip": "ym2612"
    },
    {
      "channel": 2,
      "note": 80,
      "start": 72.3493,
      "duration": 0.077,
      "velocity": 96,
      "chip": "ym2612"
    },
    {
      "channel": 0,
      "note": 66,
      "start": 72.562,
      "duration": 0.0269,
      "velocity": 127,
      "chip": "ym2612"
    },
    {
      "channel": 2,
      "note": 80,
      "start": 72.5639,
      "duration": 0.018,
      "velocity": 96,
      "chip": "ym2612"
    },
    {
      "channel": 1,
      "note": 45,
      "start": 72.5661,
      "duration": 0.0229,
      "velocity": 119,
      "chip": "ym2612"
    },
    {
      "channel": 2,
      "note": 80,
      "start": 72.663,
      "duration": 0.046,
      "velocity": 96,
      "chip": "ym2612"
    },
    {
      "channel": 0,
      "note": 64,
      "start": 72.8128,
      "duration": 0.0791,
      "velocity": 127,
      "chip": "ym2612"
    },
    {
      "channel": 0,
      "note": 61,
      "start": 73.113,
      "duration": 0.0622,
      "velocity": 127,
      "chip": "ym2612"
    },
    {
      "channel": 1,
      "note": 45,
      "start": 73.1155,
      "duration": 0.0599,
      "velocity": 119,
      "chip": "ym2612"
    },
    {
      "channel": 4,
      "note": 76,
      "start": 73.2464,
      "duration": 1.4149,
      "velocity": 67,
      "chip": "ym2612"
    },
    {
      "channel": 0,
      "note": 54,
      "start": 73.2492,
      "duration": 0.0424,
      "velocity": 127,
      "chip": "ym2612"
    },
    {
      "channel": 3,
      "note": 54,
      "start": 73.3156,
      "duration": 0.0262,
      "velocity": 79,
      "chip": "ym2612"
    },
    {
      "channel": 2,
      "note": 80,
      "start": 73.3188,
      "duration": 0.0232,
      "velocity": 96,
      "chip": "ym2612"
    },
    {
      "channel": 3,
      "note": 54,
      "start": 73.3797,
      "duration": 0.0778,
      "velocity": 79,
      "chip": "ym2612"
    },
    {
      "channel": 0,
      "note": 59,
      "start": 73.3823,
      "duration": 0.1081,
      "velocity": 127,
      "chip": "ym2612"
    },
    {
      "channel": 2,
      "note": 80,
      "start": 73.3845,
      "duration": 0.0398,
      "velocity": 96,
      "chip": "ym2612"
    },
    {
      "channel": 1,
      "note": 45,
      "start": 73.3867,
      "duration": 0.0705,
      "velocity": 119,
      "chip": "ym2612"
    },
    {
      "channel": 3,
      "note": 57,
      "start": 73.5276,
      "duration": 0.0629,
      "velocity": 79,
      "chip": "ym2612"
    },
    {
      "channel": 0,
      "note": 52,
      "start": 73.53,
      "duration": 0.1271,
      "velocity": 127,
      "chip": "ym2612"
    },
    {
      "channel": 3,
      "note": 57,
      "start": 73.6777,
      "duration": 0.0462,
      "velocity": 79,
      "chip": "ym2612"
    },
    {
      "channel": 0,
      "note": 64,
      "start": 73.6802,
      "duration": 0.0936,
      "velocity": 127,
      "chip": "ym2612"
    },
    {
      "channel": 1,
      "note": 45,
      "start": 73.6828,
      "duration": 0.0912,
      "velocity": 119,
      "chip": "ym2612"
    },
    {
      "channel": 3,
      "note": 59,
      "start": 73.8277,
      "duration": 0.0797,
      "velocity": 79,
      "chip": "ym2612"
    },
    {
      "channel": 0,
      "note": 61,
      "start": 73.8302,
      "duration": 0.0769,
      "velocity": 127,
      "chip": "ym2612"
    },
    {
      "channel": 3,
      "note": 59,
      "start": 73.9778,
      "duration": 0.03,
      "velocity": 79,
      "chip": "ym2612"
    },
    {
      "channel": 3,
      "note": 61,
      "start": 74.0385,
      "duration": 0.0281,
      "velocity": 79,
      "chip": "ym2612"
    },
    {
      "channel": 0,
      "note": 51,
      "start": 74.0405,
      "duration": 0.0541,
      "velocity": 127,
      "chip": "ym2612"
    },
    {
      "channel": 2,
      "note": 80,
      "start": 74.0432,
      "duration": 0.0236,
      "velocity": 96,
      "chip": "ym2612"
    },
    {
      "channel": 1,
      "note": 45,
      "start": 74.0466,
      "duration": 0.0313,
      "velocity": 119,
      "chip": "ym2612"
    },
    {
      "channel": 3,
      "note": 61,
      "start": 74.1485,
      "duration": 0.0962,
      "velocity": 79,
      "chip": "ym2612"
    },
    {
      "channel": 2,
      "note": 80,
      "start": 74.1517,
      "duration": 0.0599,
      "velocity": 96,
      "chip": "ym2612"
    },
    {
      "channel": 3,
      "note": 64,
      "start": 74.2984,
      "duration": 0.1295,
      "velocity": 79,
      "chip": "ym2612"
    },
    {
      "channel": 0,
      "note": 52,
      "start": 74.3007,
      "duration": 0.0938,
      "velocity": 127,
      "chip": "ym2612"
    },
    {
      "channel": 1,
      "note": 45,
      "start": 74.3033,
      "duration": 0.0914,
      "velocity": 119,
      "chip": "ym2612"
    },
    {
      "channel": 3,
      "note": 66,
      "start": 74.4484,
      "duration": 0.0963,
      "velocity": 79,
      "chip": "ym2612"
    },
    {
      "channel": 3,
      "note": 63,
      "start": 74.5988,
      "duration": 0.1124,
      "velocity": 79,
      "chip": "ym2612"
    },
    {
      "channel": 0,
      "note": 49,
      "start": 74.6012,
      "duration": 0.0766,
      "velocity": 127,
      "chip": "ym2612"
    },
    {
      "channel": 4,
      "note": 78,
      "start": 74.7489,
      "duration": 1.4971,
      "velocity": 67,
      "chip": "ym2612"
    },
    {
      "channel": 0,
      "note": 54,
      "start": 74.7511,
      "duration": 0.0378,
      "velocity": 127,
      "chip": "ym2612"
    },
    {
      "channel": 1,
      "note": 45,
      "start": 74.7571,
      "duration": 0.0319,
      "velocity": 119,
      "chip": "ym2612"
    },
    {
      "channel": 2,
      "note": 78,
      "start": 74.8191,
      "duration": 0.0018,
      "velocity": 119,
      "chip": "ym2612"
    },
    {
      "channel": 2,
      "note": 80,
      "start": 74.8223,
      "duration": 0.0099,
      "velocity": 96,
      "chip": "ym2612"
    },
    {
      "channel": 0,
      "note": 59,
      "start": 74.8763,
      "duration": 0.1173,
      "velocity": 127,
      "chip": "ym2612"
    },
    {
      "channel": 2,
      "note": 80,
      "start": 74.8782,
      "duration": 0.0326,
      "velocity": 96,
      "chip": "ym2612"
    },
    {
      "channel": 3,
      "note": 76,
      "start": 75.0144,
      "duration": 0.0626,
      "velocity": 119,
      "chip": "ym2612"
    },
    {
      "channel": 0,
      "note": 52,
      "start": 75.0165,
      "duration": 0.1271,
      "velocity": 127,
      "chip": "ym2612"
    },
    {
      "channel": 2,
      "note": 81,
      "start": 75.0188,
      "duration": 0.042,
      "velocity": 27,
      "chip": "ym2612"
    },
    {
      "channel": 0,
      "note": 64,
      "start": 75.1646,
      "duration": 0.1124,
      "velocity": 127,
      "chip": "ym2612"
    },
    {
      "channel": 2,
      "note": 81,
      "start": 75.1665,
      "duration": 0.0275,
      "velocity": 27,
      "chip": "ym2612"
    },
    {
      "channel": 3,
      "note": 73,
      "start": 75.3143,
      "duration": 0.0461,
      "velocity": 119,
      "chip": "ym2612"
    },
    {
      "channel": 0,
      "note": 61,
      "start": 75.3167,
      "duration": 0.077,
      "velocity": 127,
      "chip": "ym2612"
    },
    {
      "channel": 2,
      "note": 81,
      "start": 75.3191,
      "duration": 0.0417,
      "velocity": 27,
      "chip": "ym2612"
    },
    {
      "channel": 1,
      "note": 45,
      "start": 75.4689,
      "duration": 0.0707,
      "velocity": 119,
      "chip": "ym2612"
    },
    {
      "channel": 3,
      "note": 71,
      "start": 75.5333,
      "duration": 0.0271,
      "velocity": 119,
      "chip": "ym2612"
    },
    {
      "channel": 0,
      "note": 66,
      "start": 75.5351,
      "duration": 0.0251,
      "velocity": 127,
      "chip": "ym2612"
    },
    {
      "channel": 2,
      "note": 80,
      "start": 75.5369,
      "duration": 0.0089,
      "velocity": 96,
      "chip": "ym2612"
    },
    {
      "channel": 3,
      "note": 73,
      "start": 75.6333,
      "duration": 0.0459,
      "velocity": 119,
      "chip": "ym2612"
    },
    {
      "channel": 2,
      "note": 80,
      "start": 75.6359,
      "duration": 0.0438,
      "velocity": 96,
      "chip": "ym2612"
    },
    {
      "channel": 3,
      "note": 76,
      "start": 75.7832,
      "duration": 0.0627,
      "velocity": 119,
      "chip": "ym2612"
    },
    {
      "channel": 0,
      "note": 64,
      "start": 75.7855,
      "duration": 0.077,
      "velocity": 127,
      "chip": "ym2612"
    },
    {
      "channel": 3,
      "note": 73,
      "start": 75.9166,
      "duration": 0.0626,
      "velocity": 119,
      "chip": "ym2612"
    },
    {
      "channel": 3,
      "note": 76,
      "start": 76.0666,
      "duration": 0.0628,
      "velocity": 119,
      "chip": "ym2612"
    },
    {
      "channel": 0,
      "note": 61,
      "start": 76.0694,
      "duration": 0.0597,
      "velocity": 127,
      "chip": "ym2612"
    },
    {
      "channel": 1,
      "note": 74,
      "start": 76.2171,
      "duration": 1.5837,
      "velocity": 67,
      "chip": "ym2612"
    },
    {
      "channel": 5,
      "note": 61,
      "start": 76.22,
      "duration": 0.1261,
      "velocity": 81,
      "chip": "ym2612"
    },
    {
      "channel": 0,
      "note": 69,
      "start": 76.222,
      "duration": 0.1071,
      "velocity": 127,
      "chip": "ym2612"
    },
    {
      "channel": 2,
      "note": 45,
      "start": 76.2254,
      "duration": 0.1043,
      "velocity": 119,
      "chip": "ym2612"
    },
    {
      "channel": 3,
      "note": 78,
      "start": 76.3665,
      "duration": 0.0464,
      "velocity": 119,
      "chip": "ym2612"
    },
    {
      "channel": 5,
      "note": 62,
      "start": 76.3687,
      "duration": 0.1274,
      "velocity": 81,
      "chip": "ym2612"
    },
    {
      "channel": 0,
      "note": 66,
      "start": 76.3706,
      "duration": 0.1086,
      "velocity": 127,
      "chip": "ym2612"
    },
    {
      "channel": 2,
      "note": 80,
      "start": 76.3728,
      "duration": 0.0403,
      "velocity": 96,
      "chip": "ym2612"
    },
    {
      "channel": 5,
      "note": 66,
      "start": 76.517,
      "duration": 0.1457,
      "velocity": 81,
      "chip": "ym2612"
    },
    {
      "channel": 0,
      "note": 64,
      "start": 76.519,
      "duration": 0.0602,
      "velocity": 127,
      "chip": "ym2612"
    },
    {
      "channel": 2,
      "note": 80,
      "start": 76.5212,
      "duration": 0.0417,
      "velocity": 96,
      "chip": "ym2612"
    },
    {
      "channel": 3,
      "note": 76,
      "start": 76.6667,
      "duration": 0.0625,
      "velocity": 119,
      "chip": "ym2612"
    },
    {
      "channel": 5,
      "note": 61,
      "start": 76.669,
      "duration": 0.1272,
      "velocity": 81,
      "chip": "ym2612"
    },
    {
      "channel": 0,
      "note": 66,
      "start": 76.6711,
      "duration": 0.0914,
      "velocity": 127,
      "chip": "ym2612"
    },
    {
      "channel": 2,
      "note": 81,
      "start": 76.6732,
      "duration": 0.0398,
      "velocity": 27,
      "chip": "ym2612"
    },
    {
      "channel": 4,
      "note": 45,
      "start": 76.6762,
      "duration": 0.1698,
      "velocity": 119,
      "chip": "ym2612"
    },
    {
      "channel": 5,
      "note": 62,
      "start": 76.817,
      "duration": 0.1293,
      "velocity": 81,
      "chip": "ym2612"
    },
    {
      "channel": 0,
      "note": 64,
      "start": 76.8189,
      "duration": 0.0937,
      "velocity": 127,
      "chip": "ym2612"
    },
    {
      "channel": 2,
      "note": 81,
      "start": 76.821,
      "duration": 0.0255,
      "velocity": 27,
      "chip": "ym2612"
    },
    {
      "channel": 3,
      "note": 73,
      "start": 76.9501,
      "duration": 0.0628,
      "velocity": 119,
      "chip": "ym2612"
    },
    {
      "channel": 5,
      "note": 66,
      "start": 76.9527,
      "duration": 0.1266,
      "velocity": 81,
      "chip": "ym2612"
    },
    {
      "channel": 0,
      "note": 61,
      "start": 76.9547,
      "duration": 0.0578,
      "velocity": 127,
      "chip": "ym2612"
    },
    {
      "channel": 2,
      "note": 81,
      "start": 76.9572,
      "duration": 0.0559,
      "velocity": 27,
      "chip": "ym2612"
    },
    {
      "channel": 0,
      "note": 49,
      "start": 77.1001,
      "duration": 0.0585,
      "velocity": 127,
      "chip": "ym2612"
    },
    {
      "channel": 4,
      "note": 45,
      "start": 77.1059,
      "duration": 0.0759,
      "velocity": 119,
      "chip": "ym2612"
    },
    {
      "channel": 3,
      "note": 71,
      "start": 77.1693,
      "duration": 0.0481,
      "velocity": 119,
      "chip": "ym2612"
    },
    {
      "channel": 0,
      "note": 61,
      "start": 77.1711,
      "duration": 0.0962,
      "velocity": 127,
      "chip": "ym2612"
    },
    {
      "channel": 2,
      "note": 80,
      "start": 77.1732,
      "duration": 0.0088,
      "velocity": 96,
      "chip": "ym2612"
    },
    {
      "channel": 3,
      "note": 73,
      "start": 77.2881,
      "duration": 0.0461,
      "velocity": 119,
      "chip": "ym2612"
    },
    {
      "channel": 0,
      "note": 49,
      "start": 77.2902,
      "duration": 0.1272,
      "velocity": 127,
      "chip": "ym2612"
    },
    {
      "channel": 2,
      "note": 80,
      "start": 77.2926,
      "duration": 0.042,
      "velocity": 96,
      "chip": "ym2612"
    },
    {
      "channel": 3,
      "note": 76,
      "start": 77.4382,
      "duration": 0.0629,
      "velocity": 119,
      "chip": "ym2612"
    },
    {
      "channel": 0,
      "note": 52,
      "start": 77.4403,
      "duration": 0.1271,
      "velocity": 127,
      "chip": "ym2612"
    },
    {
      "channel": 4,
      "note": 45,
      "start": 77.4428,
      "duration": 0.1583,
      "velocity": 119,
      "chip": "ym2612"
    },
    {
      "channel": 3,
      "note": 73,
      "start": 77.5886,
      "duration": 0.0289,
      "velocity": 119,
      "chip": "ym2612"
    },
    {
      "channel": 0,
      "note": 64,
      "start": 77.5909,
      "duration": 0.1432,
      "velocity": 127,
      "chip": "ym2612"
    },
    {
      "channel": 3,
      "note": 76,
      "start": 77.7384,
      "duration": 0.0457,
      "velocity": 119,
      "chip": "ym2612"
    },
    {
      "channel": 0,
      "note": 57,
      "start": 77.7407,
      "duration": 0.11,
      "velocity": 127,
      "chip": "ym2612"
    },
    {
      "channel": 1,
      "note": 73,
      "start": 77.8901,
      "duration": 1.572,
      "velocity": 67,
      "chip": "ym2612"
    },
    {
      "channel": 5,
      "note": 78,
      "start": 77.8924,
      "duration": 0.0032,
      "velocity": 67,
      "chip": "ym2612"
    },
    {
      "channel": 0,
      "note": 54,
      "start": 77.8947,
      "duration": 0.0189,
      "velocity": 127,
      "chip": "ym2612"
    },
    {
      "channel": 4,
      "note": 45,
      "start": 77.9009,
      "duration": 0.0632,
      "velocity": 119,
      "chip": "ym2612"
    },
    {
      "channel": 2,
      "note": 52,
      "start": 77.9529,
      "duration": 0.0117,
      "velocity": 79,
      "chip": "ym2612"
    },
    {
      "channel": 3,
      "note": 78,
      "start": 77.9547,
      "duration": 0.0248,
      "velocity": 119,
      "chip": "ym2612"
    },
    {
      "channel": 2,
      "note": 52,
      "start": 78.0417,
      "duration": 0.063,
      "velocity": 79,
      "chip": "ym2612"
    },
    {
      "channel": 0,
      "note": 59,
      "start": 78.0443,
      "duration": 0.11,
      "velocity": 127,
      "chip": "ym2612"
    },
    {
      "channel": 2,
      "note": 52,
      "start": 78.1919,
      "duration": 0.1129,
      "velocity": 79,
      "chip": "ym2612"
    },
    {
      "channel": 3,
      "note": 76,
      "start": 78.194,
      "duration": 0.0438,
      "velocity": 119,
      "chip": "ym2612"
    },
    {
      "channel": 0,
      "note": 52,
      "start": 78.1962,
      "duration": 0.1247,
      "velocity": 127,
      "chip": "ym2612"
    },
    {
      "channel": 0,
      "note": 64,
      "start": 78.3418,
      "duration": 0.1291,
      "velocity": 127,
      "chip": "ym2612"
    },
    {
      "channel": 2,
      "note": 81,
      "start": 78.3439,
      "duration": 0.0274,
      "velocity": 27,
      "chip": "ym2612"
    },
    {
      "channel": 4,
      "note": 52,
      "start": 78.4919,
      "duration": 0.0791,
      "velocity": 79,
      "chip": "ym2612"
    },
    {
      "channel": 3,
      "note": 73,
      "start": 78.494,
      "duration": 0.044,
      "velocity": 119,
      "chip": "ym2612"
    },
    {
      "channel": 0,
      "note": 61,
      "start": 78.4968,
      "duration": 0.0574,
      "velocity": 127,
      "chip": "ym2612"
    },
    {
      "channel": 2,
      "note": 80,
      "start": 78.499,
      "duration": 0.0557,
      "velocity": 96,
      "chip": "ym2612"
    },
    {
      "channel": 4,
      "note": 52,
      "start": 78.6415,
      "duration": 0.0462,
      "velocity": 79,
      "chip": "ym2612"
    },
    {
      "channel": 5,
      "note": 45,
      "start": 78.6447,
      "duration": 0.2101,
      "velocity": 119,
      "chip": "ym2612"
    },
    {
      "channel": 4,
      "note": 57,
      "start": 78.7916,
      "duration": 0.0461,
      "velocity": 79,
      "chip": "ym2612"
    },
    {
      "channel": 3,
      "note": 71,
      "start": 78.794,
      "duration": 0.0607,
      "velocity": 119,
      "chip": "ym2612"
    },
    {
      "channel": 0,
      "note": 66,
      "start": 78.7961,
      "duration": 0.0582,
      "velocity": 127,
      "chip": "ym2612"
    },
    {
      "channel": 3,
      "note": 73,
      "start": 78.9252,
      "duration": 0.0625,
      "velocity": 119,
      "chip": "ym2612"
    },
    {
      "channel": 2,
      "note": 80,
      "start": 78.9279,
      "duration": 0.0602,
      "velocity": 96,
      "chip": "ym2612"
    },
    {
      "channel": 4,
      "note": 57,
      "start": 79.0749,
      "duration": 0.0964,
      "velocity": 79,
      "chip": "ym2612"
    },
    {
      "channel": 0,
      "note": 64,
      "start": 79.0774,
      "duration": 0.0935,
      "velocity": 127,
      "chip": "ym2612"
    },
    {
      "channel": 3,
      "note": 76,
      "start": 79.2252,
      "duration": 0.0125,
      "velocity": 119,
      "chip": "ym2612"
    },
    {
      "channel": 2,
      "note": 81,
      "start": 79.2278,
      "duration": 0.0602,
      "velocity": 27,
      "chip": "ym2612"
    },
    {
      "channel": 4,
      "note": 59,
      "start": 79.3751,
      "duration": 0.0525,
      "velocity": 79,
      "chip": "ym2612"
    },
    {
      "channel": 0,
      "note": 61,
      "start": 79.3777,
      "duration": 0.0283,
      "velocity": 127,
      "chip": "ym2612"
    },
    {
      "channel": 4,
      "note": 59,
      "start": 79.4444,
      "duration": 0.0222,
      "velocity": 79,
      "chip": "ym2612"
    },
    {
      "channel": 3,
      "note": 76,
      "start": 79.4479,
      "duration": 1.5503,
      "velocity": 67,
      "chip": "ym2612"
    },
    {
      "channel": 2,
      "note": 85,
      "start": 79.4518,
      "duration": 0.0634,
      "velocity": 67,
      "chip": "ym2612"
    },
    {
      "channel": 0,
      "note": 54,
      "start": 79.4538,
      "duration": 0.0057,
      "velocity": 127,
      "chip": "ym2612"
    },
    {
      "channel": 0,
      "note": 45,
      "start": 79.461,
      "duration": 0.0629,
      "velocity": 119,
      "chip": "ym2612"
    },
    {
      "channel": 4,
      "note": 63,
      "start": 79.5118,
      "duration": 0.0198,
      "velocity": 79,
      "chip": "ym2612"
    },
    {
      "channel": 1,
      "note": 78,
      "start": 79.514,
      "duration": 0.0173,
      "velocity": 119,
      "chip": "ym2612"
    },
    {
      "channel": 2,
      "note": 80,
      "start": 79.5167,
      "duration": 0.0076,
      "velocity": 96,
      "chip": "ym2612"
    },
    {
      "channel": 4,
      "note": 63,
      "start": 79.6021,
      "duration": 0.0296,
      "velocity": 79,
      "chip": "ym2612"
    },
    {
      "channel": 0,
      "note": 59,
      "start": 79.605,
      "duration": 0.0932,
      "velocity": 127,
      "chip": "ym2612"
    },
    {
      "channel": 2,
      "note": 80,
      "start": 79.6073,
      "duration": 0.008,
      "velocity": 96,
      "chip": "ym2612"
    },
    {
      "channel": 4,
      "note": 64,
      "start": 79.7524,
      "duration": 0.0792,
      "velocity": 79,
      "chip": "ym2612"
    },
    {
      "channel": 1,
      "note": 76,
      "start": 79.7545,
      "duration": 0.0604,
      "velocity": 119,
      "chip": "ym2612"
    },
    {
      "channel": 0,
      "note": 52,
      "start": 79.7567,
      "duration": 0.1081,
      "velocity": 127,
      "chip": "ym2612"
    },
    {
      "channel": 2,
      "note": 81,
      "start": 79.759,
      "duration": 0.0229,
      "velocity": 27,
      "chip": "ym2612"
    },
    {
      "channel": 0,
      "note": 64,
      "start": 79.8858,
      "duration": 0.1123,
      "velocity": 127,
      "chip": "ym2612"
    },
    {
      "channel": 2,
      "note": 81,
      "start": 79.8879,
      "duration": 0.0273,
      "velocity": 27,
      "chip": "ym2612"
    },
    {
      "channel": 4,
      "note": 64,
      "start": 80.0354,
      "duration": 0.0798,
      "velocity": 79,
      "chip": "ym2612"
    },
    {
      "channel": 1,
      "note": 73,
      "start": 80.0376,
      "duration": 0.0606,
      "velocity": 119,
      "chip": "ym2612"
    },
    {
      "channel": 0,
      "note": 59,
      "start": 80.04,
      "duration": 0.0915,
      "velocity": 127,
      "chip": "ym2612"
    },
    {
      "channel": 2,
      "note": 81,
      "start": 80.0429,
      "duration": 0.0558,
      "velocity": 27,
      "chip": "ym2612"
    },
    {
      "channel": 4,
      "note": 63,
      "start": 80.3361,
      "duration": 0.0959,
      "velocity": 79,
      "chip": "ym2612"
    },
    {
      "channel": 1,
      "note": 71,
      "start": 80.3383,
      "duration": 0.0599,
      "velocity": 119,
      "chip": "ym2612"
    },
    {
      "channel": 0,
      "note": 63,
      "start": 80.3403,
      "duration": 0.0912,
      "velocity": 127,
      "chip": "ym2612"
    },
    {
      "channel": 2,
      "note": 80,
      "start": 80.3427,
      "duration": 0.0227,
      "velocity": 96,
      "chip": "ym2612"
    },
    {
      "channel": 5,
      "note": 45,
      "start": 80.3452,
      "duration": 0.0868,
      "velocity": 119,
      "chip": "ym2612"
    },
    {
      "channel": 4,
      "note": 59,
      "start": 80.4854,
      "duration": 0.1461,
      "velocity": 79,
      "chip": "ym2612"
    },
    {
      "channel": 2,
      "note": 80,
      "start": 80.4882,
      "duration": 0.0437,
      "velocity": 96,
      "chip": "ym2612"
    },
    {
      "channel": 4,
      "note": 57,
      "start": 80.6355,
      "duration": 0.0961,
      "velocity": 79,
      "chip": "ym2612"
    },
    {
      "channel": 1,
      "note": 73,
      "start": 80.6375,
      "duration": 0.0607,
      "velocity": 119,
      "chip": "ym2612"
    },
    {
      "channel": 0,
      "note": 61,
      "start": 80.6396,
      "duration": 0.0751,
      "velocity": 127,
      "chip": "ym2612"
    },
    {
      "channel": 4,
      "note": 54,
      "start": 80.7856,
      "duration": 0.046,
      "velocity": 79,
      "chip": "ym2612"
    },
    {
      "channel": 1,
      "note": 76,
      "start": 80.9189,
      "duration": 0.0627,
      "velocity": 119,
      "chip": "ym2612"
    },
    {
      "channel": 0,
      "note": 52,
      "start": 80.9211,
      "duration": 0.0937,
      "velocity": 127,
      "chip": "ym2612"
    },
    {
      "channel": 5,
      "note": 45,
      "start": 80.9239,
      "duration": 0.0914,
      "velocity": 119,
      "chip": "ym2612"
    },
    {
      "channel": 3,
      "note": 78,
      "start": 81.0702,
      "duration": 1.5944,
      "velocity": 67,
      "chip": "ym2612"
    },
    {
      "channel": 2,
      "note": 87,
      "start": 81.0729,
      "duration": 0.069,
      "velocity": 67,
      "chip": "ym2612"
    },
    {
      "channel": 0,
      "note": 54,
      "start": 81.075,
      "duration": 0.0401,
      "velocity": 127,
      "chip": "ym2612"
    },
    {
      "channel": 4,
      "note": 69,
      "start": 81.1383,
      "duration": 0.0638,
      "velocity": 79,
      "chip": "ym2612"
    },
    {
      "channel": 1,
      "note": 78,
      "start": 81.1401,
      "duration": 0.0259,
      "velocity": 119,
      "chip": "ym2612"
    },
    {
      "channel": 2,
      "note": 80,
      "start": 81.1434,
      "duration": 0.009,
      "velocity": 96,
      "chip": "ym2612"
    },
    {
      "channel": 4,
      "note": 71,
      "start": 81.2392,
      "duration": 0.0965,
      "velocity": 79,
      "chip": "ym2612"
    },
    {
      "channel": 0,
      "note": 59,
      "start": 81.2418,
      "duration": 0.1268,
      "velocity": 127,
      "chip": "ym2612"
    },
    {
      "channel": 2,
      "note": 80,
      "start": 81.244,
      "duration": 0.0251,
      "velocity": 96,
      "chip": "ym2612"
    },
    {
      "channel": 4,
      "note": 63,
      "start": 81.3891,
      "duration": 0.0797,
      "velocity": 79,
      "chip": "ym2612"
    },
    {
      "channel": 1,
      "note": 76,
      "start": 81.3911,
      "duration": 0.0442,
      "velocity": 119,
      "chip": "ym2612"
    },
    {
      "channel": 0,
      "note": 52,
      "start": 81.3932,
      "duration": 0.1254,
      "velocity": 127,
      "chip": "ym2612"
    },
    {
      "channel": 2,
      "note": 81,
      "start": 81.3955,
      "duration": 0.0237,
      "velocity": 27,
      "chip": "ym2612"
    },
    {
      "channel": 4,
      "note": 64,
      "start": 81.5392,
      "duration": 0.0796,
      "velocity": 79,
      "chip": "ym2612"
    },
    {
      "channel": 0,
      "note": 64,
      "start": 81.5416,
      "duration": 0.0937,
      "velocity": 127,
      "chip": "ym2612"
    },
    {
      "channel": 2,
      "note": 81,
      "start": 81.5436,
      "duration": 0.0255,
      "velocity": 27,
      "chip": "ym2612"
    },
    {
      "channel": 4,
      "note": 69,
      "start": 81.6893,
      "duration": 0.0961,
      "velocity": 79,
      "chip": "ym2612"
    },
    {
      "channel": 1,
      "note": 73,
      "start": 81.6913,
      "duration": 0.0439,
      "velocity": 119,
      "chip": "ym2612"
    },
    {
      "channel": 0,
      "note": 61,
      "start": 81.6942,
      "duration": 0.0578,
      "velocity": 127,
      "chip": "ym2612"
    },
    {
      "channel": 2,
      "note": 81,
      "start": 81.6966,
      "duration": 0.0392,
      "velocity": 27,
      "chip": "ym2612"
    },
    {
      "channel": 4,
      "note": 68,
      "start": 81.8392,
      "duration": 0.0795,
      "velocity": 79,
      "chip": "ym2612"
    },
    {
      "channel": 4,
      "note": 63,
      "start": 81.9726,
      "duration": 0.1295,
      "velocity": 79,
      "chip": "ym2612"
    },
    {
      "channel": 1,
      "note": 71,
      "start": 81.9752,
      "duration": 0.0771,
      "velocity": 119,
      "chip": "ym2612"
    },
    {
      "channel": 0,
      "note": 66,
      "start": 81.9773,
      "duration": 0.0747,
      "velocity": 127,
      "chip": "ym2612"
    },
    {
      "channel": 2,
      "note": 80,
      "start": 81.9796,
      "duration": 0.0395,
      "velocity": 96,
      "chip": "ym2612"
    },
    {
      "channel": 5,
      "note": 45,
      "start": 81.9819,
      "duration": 0.0871,
      "velocity": 119,
      "chip": "ym2612"
    },
    {
      "channel": 4,
      "note": 68,
      "start": 82.1224,
      "duration": 0.1296,
      "velocity": 79,
      "chip": "ym2612"
    },
    {
      "channel": 2,
      "note": 80,
      "start": 82.1251,
      "duration": 0.0273,
      "velocity": 96,
      "chip": "ym2612"
    },
    {
      "channel": 4,
      "note": 64,
      "start": 82.2726,
      "duration": 0.1127,
      "velocity": 79,
      "chip": "ym2612"
    },
    {
      "channel": 1,
      "note": 73,
      "start": 82.2747,
      "duration": 0.0774,
      "velocity": 119,
      "chip": "ym2612"
    },
    {
      "channel": 0,
      "note": 64,
      "start": 82.2769,
      "duration": 0.0917,
      "velocity": 127,
      "chip": "ym2612"
    },
    {
      "channel": 4,
      "note": 63,
      "start": 82.4225,
      "duration": 0.1129,
      "velocity": 79,
      "chip": "ym2612"
    },
    {
      "channel": 4,
      "note": 59,
      "start": 82.5728,
      "duration": 0.0598,
      "velocity": 79,
      "chip": "ym2612"
    },
    {
      "channel": 1,
      "note": 76,
      "start": 82.5751,
      "duration": 0.0237,
      "velocity": 119,
      "chip": "ym2612"
    },
    {
      "channel": 0,
      "note": 61,
      "start": 82.5775,
      "duration": 0.0213,
      "velocity": 127,
      "chip": "ym2612"
    },
    {
      "channel": 2,
      "note": 45,
      "start": 82.5843,
      "duration": 0.0148,
      "velocity": 119,
      "chip": "ym2612"
    },
    {
      "channel": 4,
      "note": 64,
      "start": 82.6416,
      "duration": 0.0508,
      "velocity": 79,
      "chip": "ym2612"
    },
    {
      "channel": 0,
      "note": 52,
      "start": 82.6438,
      "duration": 0.0483,
      "velocity": 79,
      "chip": "ym2612"
    },
    {
      "channel": 1,
      "note": 76,
      "start": 82.6456,
      "duration": 0.0045,
      "velocity": 119,
      "chip": "ym2612"
    },
    {
      "channel": 2,
      "note": 76,
      "start": 82.649,
      "duration": 0.0677,
      "velocity": 67,
      "chip": "ym2612"
    },
    {
      "channel": 1,
      "note": 93,
      "start": 82.6516,
      "duration": 0.0025,
      "velocity": 67,
      "chip": "ym2612"
    },
    {
      "channel": 1,
      "note": 52,
      "start": 82.6556,
      "duration": 0.0366,
      "velocity": 92,
      "chip": "ym2612"
    },
    {
      "channel": 4,
      "note": 63,
      "start": 82.7082,
      "duration": 0.0526,
      "velocity": 79,
      "chip": "ym2612"
    },
    {
      "channel": 0,
      "note": 51,
      "start": 82.71,
      "duration": 0.0505,
      "velocity": 79,
      "chip": "ym2612"
    },
    {
      "channel": 3,
      "note": 75,
      "start": 82.7119,
      "duration": 0.0188,
      "velocity": 119,
      "chip": "ym2612"
    },
    {
      "channel": 1,
      "note": 51,
      "start": 82.7156,
      "duration": 0.0293,
      "velocity": 92,
      "chip": "ym2612"
    },
    {
      "channel": 2,
      "note": 80,
      "start": 82.7182,
      "duration": 0.0126,
      "velocity": 96,
      "chip": "ym2612"
    },
    {
      "channel": 4,
      "note": 59,
      "start": 82.7812,
      "duration": 0.0966,
      "velocity": 79,
      "chip": "ym2612"
    },
    {
      "channel": 0,
      "note": 47,
      "start": 82.7832,
      "duration": 0.094,
      "velocity": 79,
      "chip": "ym2612"
    },
    {
      "channel": 3,
      "note": 71,
      "start": 82.7854,
      "duration": 0.0922,
      "velocity": 119,
      "chip": "ym2612"
    },
    {
      "channel": 1,
      "note": 47,
      "start": 82.7877,
      "duration": 0.1396,
      "velocity": 92,
      "chip": "ym2612"
    },
    {
      "channel": 2,
      "note": 80,
      "start": 82.79,
      "duration": 0.0377,
      "velocity": 96,
      "chip": "ym2612"
    },
    {
      "channel": 4,
      "note": 63,
      "start": 82.9313,
      "duration": 0.113,
      "velocity": 79,
      "chip": "ym2612"
    },
    {
      "channel": 0,
      "note": 51,
      "start": 82.9334,
      "duration": 0.1105,
      "velocity": 79,
      "chip": "ym2612"
    },
    {
      "channel": 3,
      "note": 78,
      "start": 82.9354,
      "duration": 0.0922,
      "velocity": 119,
      "chip": "ym2612"
    },
    {
      "channel": 1,
      "note": 54,
      "start": 82.9377,
      "duration": 0.123,
      "velocity": 92,
      "chip": "ym2612"
    },
    {
      "channel": 2,
      "note": 81,
      "start": 82.9399,
      "duration": 0.0378,
      "velocity": 27,
      "chip": "ym2612"
    },
    {
      "channel": 4,
      "note": 59,
      "start": 83.0812,
      "duration": 0.1298,
      "velocity": 79,
      "chip": "ym2612"
    },
    {
      "channel": 0,
      "note": 47,
      "start": 83.0833,
      "duration": 0.1273,
      "velocity": 79,
      "chip": "ym2612"
    },
    {
      "channel": 3,
      "note": 75,
      "start": 83.0853,
      "duration": 0.092,
      "velocity": 119,
      "chip": "ym2612"
    },
    {
      "channel": 1,
      "note": 51,
      "start": 83.0876,
      "duration": 0.1397,
      "velocity": 92,
      "chip": "ym2612"
    },
    {
      "channel": 2,
      "note": 81,
      "start": 83.0897,
      "duration": 0.0214,
      "velocity": 27,
      "chip": "ym2612"
    },
    {
      "channel": 5,
      "note": 45,
      "start": 83.0923,
      "duration": 0.0854,
      "velocity": 119,
      "chip": "ym2612"
    },
    {
      "channel": 4,
      "note": 57,
      "start": 83.2313,
      "duration": 0.0631,
      "velocity": 79,
      "chip": "ym2612"
    },
    {
      "channel": 0,
      "note": 45,
      "start": 83.2334,
      "duration": 0.0605,
      "velocity": 79,
      "chip": "ym2612"
    },
    {
      "channel": 3,
      "note": 73,
      "start": 83.2355,
      "duration": 0.0588,
      "velocity": 119,
      "chip": "ym2612"
    },
    {
      "channel": 1,
      "note": 49,
      "start": 83.2378,
      "duration": 0.1062,
      "velocity": 92,
      "chip": "ym2612"
    },
    {
      "channel": 2,
      "note": 80,
      "start": 83.2402,
      "duration": 0.0545,
      "velocity": 96,
      "chip": "ym2612"
    },
    {
      "channel": 4,
      "note": 59,
      "start": 83.3812,
      "duration": 0.1298,
      "velocity": 79,
      "chip": "ym2612"
    },
    {
      "channel": 0,
      "note": 47,
      "start": 83.3833,
      "duration": 0.1273,
      "velocity": 79,
      "chip": "ym2612"
    },
    {
      "channel": 3,
      "note": 80,
      "start": 83.3853,
      "duration": 0.0587,
      "velocity": 119,
      "chip": "ym2612"
    },
    {
      "channel": 1,
      "note": 56,
      "start": 83.3874,
      "duration": 0.1066,
      "velocity": 92,
      "chip": "ym2612"
    },
    {
      "channel": 4,
      "note": 57,
      "start": 83.5312,
      "duration": 0.0964,
      "velocity": 79,
      "chip": "ym2612"
    },
    {
      "channel": 0,
      "note": 45,
      "start": 83.5333,
      "duration": 0.0939,
      "velocity": 79,
      "chip": "ym2612"
    },
    {
      "channel": 3,
      "note": 78,
      "start": 83.5353,
      "duration": 0.0588,
      "velocity": 119,
      "chip": "ym2612"
    },
    {
      "channel": 1,
      "note": 54,
      "start": 83.5376,
      "duration": 0.123,
      "velocity": 92,
      "chip": "ym2612"
    },
    {
      "channel": 2,
      "note": 80,
      "start": 83.5404,
      "duration": 0.0039,
      "velocity": 96,
      "chip": "ym2612"
    },
    {
      "channel": 4,
      "note": 56,
      "start": 83.6812,
      "duration": 0.0632,
      "velocity": 79,
      "chip": "ym2612"
    },
    {
      "channel": 0,
      "note": 44,
      "start": 83.6832,
      "duration": 0.0607,
      "velocity": 79,
      "chip": "ym2612"
    },
    {
      "channel": 3,
      "note": 76,
      "start": 83.6852,
      "duration": 0.0592,
      "velocity": 119,
      "chip": "ym2612"
    },
    {
      "channel": 1,
      "note": 52,
      "start": 83.6875,
      "duration": 0.0898,
      "velocity": 92,
      "chip": "ym2612"
    },
    {
      "channel": 2,
      "note": 80,
      "start": 83.6898,
      "duration": 0.0379,
      "velocity": 96,
      "chip": "ym2612"
    },
    {
      "channel": 5,
      "note": 45,
      "start": 83.6923,
      "duration": 0.0854,
      "velocity": 119,
      "chip": "ym2612"
    },
    {
      "channel": 4,
      "note": 57,
      "start": 83.8312,
      "duration": 0.1131,
      "velocity": 79,
      "chip": "ym2612"
    },
    {
      "channel": 0,
      "note": 45,
      "start": 83.8332,
      "duration": 0.1107,
      "velocity": 79,
      "chip": "ym2612"
    },
    {
      "channel": 3,
      "note": 85,
      "start": 83.8353,
      "duration": 0.0587,
      "velocity": 119,
      "chip": "ym2612"
    },
    {
      "channel": 1,
      "note": 61,
      "start": 83.8373,
      "duration": 0.0899,
      "velocity": 92,
      "chip": "ym2612"
    },
    {
      "channel": 2,
      "note": 81,
      "start": 83.8395,
      "duration": 0.0216,
      "velocity": 27,
      "chip": "ym2612"
    },
    {
      "channel": 4,
      "note": 56,
      "start": 83.9645,
      "duration": 0.1132,
      "velocity": 79,
      "chip": "ym2612"
    },
    {
      "channel": 0,
      "note": 44,
      "start": 83.9666,
      "duration": 0.1106,
      "velocity": 79,
      "chip": "ym2612"
    },
    {
      "channel": 3,
      "note": 83,
      "start": 83.9686,
      "duration": 0.0754,
      "velocity": 119,
      "chip": "ym2612"
    },
    {
      "channel": 1,
      "note": 59,
      "start": 83.9707,
      "duration": 0.1066,
      "velocity": 92,
      "chip": "ym2612"
    },
    {
      "channel": 2,
      "note": 81,
      "start": 83.973,
      "duration": 0.0048,
      "velocity": 27,
      "chip": "ym2612"
    },
    {
      "channel": 5,
      "note": 45,
      "start": 83.9755,
      "duration": 0.0688,
      "velocity": 119,
      "chip": "ym2612"
    },
    {
      "channel": 4,
      "note": 52,
      "start": 84.1148,
      "duration": 0.0963,
      "velocity": 79,
      "chip": "ym2612"
    },
    {
      "channel": 0,
      "note": 40,
      "start": 84.1176,
      "duration": 0.0929,
      "velocity": 79,
      "chip": "ym2612"
    },
    {
      "channel": 3,
      "note": 80,
      "start": 84.1199,
      "duration": 0.091,
      "velocity": 119,
      "chip": "ym2612"
    },
    {
      "channel": 1,
      "note": 56,
      "start": 84.1227,
      "duration": 0.1213,
      "velocity": 92,
      "chip": "ym2612"
    },
    {
      "channel": 2,
      "note": 80,
      "start": 84.125,
      "duration": 0.0693,
      "velocity": 96,
      "chip": "ym2612"
    },
    {
      "channel": 5,
      "note": 97,
      "start": 84.2654,
      "duration": 1.1956,
      "velocity": 100,
      "chip": "ym2612"
    },
    {
      "channel": 2,
      "note": 92,
      "start": 84.2675,
      "duration": 1.1937,
      "velocity": 100,
      "chip": "ym2612"
    },
    {
      "channel": 0,
      "note": 90,
      "start": 84.2704,
      "duration": 1.1902,
      "velocity": 100,
      "chip": "ym2612"
    },
    {
      "channel": 1,
      "note": 54,
      "start": 84.2725,
      "duration": 0.0716,
      "velocity": 92,
      "chip": "ym2612"
    },
    {
      "channel": 3,
      "note": 78,
      "start": 84.4148,
      "duration": 0.0459,
      "velocity": 119,
      "chip": "ym2612"
    },
    {
      "channel": 1,
      "note": 54,
      "start": 84.417,
      "duration": 0.0936,
      "velocity": 92,
      "chip": "ym2612"
    },
    {
      "channel": 1,
      "note": 42,
      "start": 84.565,
      "duration": 0.0956,
      "velocity": 92,
      "chip": "ym2612"
    },
    {
      "channel": 4,
      "note": 45,
      "start": 84.5683,
      "duration": 0.0757,
      "velocity": 119,
      "chip": "ym2612"
    },
    {
      "channel": 3,
      "note": 76,
      "start": 84.7146,
      "duration": 0.0464,
      "velocity": 119,
      "chip": "ym2612"
    },
    {
      "channel": 1,
      "note": 49,
      "start": 84.7169,
      "duration": 0.0772,
      "velocity": 92,
      "chip": "ym2612"
    },
    {
      "channel": 1,
      "note": 42,
      "start": 84.865,
      "duration": 0.0957,
      "velocity": 92,
      "chip": "ym2612"
    },
    {
      "channel": 4,
      "note": 45,
      "start": 84.8677,
      "duration": 0.0433,
      "velocity": 119,
      "chip": "ym2612"
    },
    {
      "channel": 3,
      "note": 73,
      "start": 84.998,
      "duration": 0.0627,
      "velocity": 119,
      "chip": "ym2612"
    },
    {
      "channel": 1,
      "note": 52,
      "start": 85.0003,
      "duration": 0.0941,
      "velocity": 92,
      "chip": "ym2612"
    },
    {
      "channel": 1,
      "note": 52,
      "start": 85.1482,
      "duration": 0.0957,
      "velocity": 92,
      "chip": "ym2612"
    },
    {
      "channel": 3,
      "note": 71,
      "start": 85.298,
      "duration": 0.0793,
      "velocity": 119,
      "chip": "ym2612"
    },
    {
      "channel": 1,
      "note": 42,
      "start": 85.3001,
      "duration": 0.0938,
      "velocity": 92,
      "chip": "ym2612"
    },
    {
      "channel": 1,
      "note": 47,
      "start": 85.4483,
      "duration": 0.1289,
      "velocity": 92,
      "chip": "ym2612"
    },
    {
      "channel": 4,
      "note": 45,
      "start": 85.4516,
      "duration": 0.126,
      "velocity": 119,
      "chip": "ym2612"
    },
    {
      "channel": 3,
      "note": 73,
      "start": 85.598,
      "duration": 0.1296,
      "velocity": 119,
      "chip": "ym2612"
    },
    {
      "channel": 1,
      "note": 40,
      "start": 85.6003,
      "duration": 0.1438,
      "velocity": 92,
      "chip": "ym2612"
    },
    {
      "channel": 1,
      "note": 45,
      "start": 85.7484,
      "duration": 0.0956,
      "velocity": 92,
      "chip": "ym2612"
    },
    {
      "channel": 4,
      "note": 45,
      "start": 85.7512,
      "duration": 0.0429,
      "velocity": 119,
      "chip": "ym2612"
    },
    {
      "channel": 3,
      "note": 76,
      "start": 85.8985,
      "duration": 0.0456,
      "velocity": 119,
      "chip": "ym2612"
    },
    {
      "channel": 1,
      "note": 47,
      "start": 85.9008,
      "duration": 0.0765,
      "velocity": 92,
      "chip": "ym2612"
    },
    {
      "channel": 2,
      "note": 80,
      "start": 85.9032,
      "duration": 0.0578,
      "velocity": 96,
      "chip": "ym2612"
    },
    {
      "channel": 0,
      "note": 93,
      "start": 86.0337,
      "duration": 1.2103,
      "velocity": 100,
      "chip": "ym2612"
    },
    {
      "channel": 5,
      "note": 88,
      "start": 86.0357,
      "duration": 1.2088,
      "velocity": 100,
      "chip": "ym2612"
    },
    {
      "channel": 4,
      "note": 86,
      "start": 86.038,
      "duration": 1.2064,
      "velocity": 100,
      "chip": "ym2612"
    },
    {
      "channel": 1,
      "note": 38,
      "start": 86.0403,
      "duration": 0.0537,
      "velocity": 92,
      "chip": "ym2612"
    },
    {
      "channel": 2,
      "note": 80,
      "start": 86.0429,
      "duration": 0.0515,
      "velocity": 96,
      "chip": "ym2612"
    },
    {
      "channel": 3,
      "note": 66,
      "start": 86.1819,
      "duration": 0.0788,
      "velocity": 79,
      "chip": "ym2612"
    },
    {
      "channel": 1,
      "note": 62,
      "start": 86.1842,
      "duration": 0.0597,
      "velocity": 79,
      "chip": "ym2612"
    },
    {
      "channel": 2,
      "note": 78,
      "start": 86.1864,
      "duration": 0.0009,
      "velocity": 119,
      "chip": "ym2612"
    },
    {
      "channel": 2,
      "note": 80,
      "start": 86.1888,
      "duration": 0.0557,
      "velocity": 96,
      "chip": "ym2612"
    },
    {
      "channel": 3,
      "note": 66,
      "start": 86.3313,
      "duration": 0.1294,
      "velocity": 79,
      "chip": "ym2612"
    },
    {
      "channel": 1,
      "note": 62,
      "start": 86.3336,
      "duration": 0.1103,
      "velocity": 79,
      "chip": "ym2612"
    },
    {
      "channel": 2,
      "note": 43,
      "start": 86.3363,
      "duration": 0.0008,
      "velocity": 92,
      "chip": "ym2612"
    },
    {
      "channel": 2,
      "note": 80,
      "start": 86.3386,
      "duration": 0.0012,
      "velocity": 96,
      "chip": "ym2612"
    },
    {
      "channel": 2,
      "note": 45,
      "start": 86.3414,
      "duration": 0.0863,
      "velocity": 119,
      "chip": "ym2612"
    },
    {
      "channel": 2,
      "note": 76,
      "start": 86.4815,
      "duration": 0.0034,
      "velocity": 119,
      "chip": "ym2612"
    },
    {
      "channel": 1,
      "note": 36,
      "start": 86.4839,
      "duration": 0.1268,
      "velocity": 92,
      "chip": "ym2612"
    },
    {
      "channel": 2,
      "note": 81,
      "start": 86.4863,
      "duration": 0.0415,
      "velocity": 27,
      "chip": "ym2612"
    },
    {
      "channel": 3,
      "note": 64,
      "start": 86.6313,
      "duration": 0.113,
      "velocity": 79,
      "chip": "ym2612"
    },
    {
      "channel": 2,
      "note": 60,
      "start": 86.6337,
      "duration": 0.0774,
      "velocity": 79,
      "chip": "ym2612"
    },
    {
      "channel": 1,
      "note": 48,
      "start": 86.6364,
      "duration": 0.1242,
      "velocity": 92,
      "chip": "ym2612"
    },
    {
      "channel": 2,
      "note": 72,
      "start": 86.7817,
      "duration": 0.0037,
      "velocity": 119,
      "chip": "ym2612"
    },
    {
      "channel": 1,
      "note": 45,
      "start": 86.7839,
      "duration": 0.06,
      "velocity": 92,
      "chip": "ym2612"
    },
    {
      "channel": 2,
      "note": 81,
      "start": 86.7869,
      "duration": 0.0242,
      "velocity": 27,
      "chip": "ym2612"
    },
    {
      "channel": 3,
      "note": 64,
      "start": 86.9311,
      "duration": 0.0963,
      "velocity": 79,
      "chip": "ym2612"
    },
    {
      "channel": 2,
      "note": 60,
      "start": 86.9334,
      "duration": 0.0944,
      "velocity": 79,
      "chip": "ym2612"
    },
    {
      "channel": 1,
      "note": 38,
      "start": 86.9358,
      "duration": 0.1082,
      "velocity": 92,
      "chip": "ym2612"
    },
    {
      "channel": 3,
      "note": 69,
      "start": 87.0816,
      "duration": 0.0457,
      "velocity": 119,
      "chip": "ym2612"
    },
    {
      "channel": 1,
      "note": 50,
      "start": 87.0839,
      "duration": 0.0767,
      "velocity": 92,
      "chip": "ym2612"
    },
    {
      "channel": 2,
      "note": 80,
      "start": 87.0867,
      "duration": 0.0076,
      "velocity": 96,
      "chip": "ym2612"
    },
    {
      "channel": 2,
      "note": 66,
      "start": 87.2148,
      "duration": 0.0962,
      "velocity": 79,
      "chip": "ym2612"
    },
    {
      "channel": 3,
      "note": 62,
      "start": 87.2169,
      "duration": 0.1107,
      "velocity": 79,
      "chip": "ym2612"
    },
    {
      "channel": 1,
      "note": 36,
      "start": 87.2193,
      "duration": 0.108,
      "velocity": 92,
      "chip": "ym2612"
    },
    {
      "channel": 0,
      "note": 72,
      "start": 87.3649,
      "duration": 0.0957,
      "velocity": 119,
      "chip": "ym2612"
    },
    {
      "channel": 1,
      "note": 48,
      "start": 87.367,
      "duration": 0.1103,
      "velocity": 92,
      "chip": "ym2612"
    },
    {
      "channel": 2,
      "note": 66,
      "start": 87.5148,
      "duration": 0.1296,
      "velocity": 79,
      "chip": "ym2612"
    },
    {
      "channel": 3,
      "note": 62,
      "start": 87.5167,
      "duration": 0.111,
      "velocity": 79,
      "chip": "ym2612"
    },
    {
      "channel": 1,
      "note": 33,
      "start": 87.519,
      "duration": 0.1084,
      "velocity": 92,
      "chip": "ym2612"
    },
    {
      "channel": 0,
      "note": 76,
      "start": 87.6646,
      "duration": 0.0251,
      "velocity": 119,
      "chip": "ym2612"
    },
    {
      "channel": 1,
      "note": 45,
      "start": 87.6669,
      "duration": 0.0443,
      "velocity": 92,
      "chip": "ym2612"
    },
    {
      "channel": 4,
      "note": 45,
      "start": 87.6736,
      "duration": 0.0091,
      "velocity": 119,
      "chip": "ym2612"
    },
    {
      "channel": 2,
      "note": 68,
      "start": 87.7354,
      "duration": 0.0356,
      "velocity": 79,
      "chip": "ym2612"
    },
    {
      "channel": 3,
      "note": 64,
      "start": 87.7385,
      "duration": 0.0323,
      "velocity": 79,
      "chip": "ym2612"
    },
    {
      "channel": 4,
      "note": 88,
      "start": 87.7404,
      "duration": 0.8347,
      "velocity": 100,
      "chip": "ym2612"
    },
    {
      "channel": 0,
      "note": 90,
      "start": 87.7427,
      "duration": 0.8321,
      "velocity": 100,
      "chip": "ym2612"
    },
    {
      "channel": 1,
      "note": 95,
      "start": 87.7447,
      "duration": 0.8302,
      "velocity": 100,
      "chip": "ym2612"
    },
    {
      "channel": 3,
      "note": 78,
      "start": 87.8019,
      "duration": 0.0199,
      "velocity": 119,
      "chip": "ym2612"
    },
    {
      "channel": 2,
      "note": 52,
      "start": 87.804,
      "duration": 0.0008,
      "velocity": 92,
      "chip": "ym2612"
    },
    {
      "channel": 2,
      "note": 80,
      "start": 87.8063,
      "duration": 0.0158,
      "velocity": 96,
      "chip": "ym2612"
    },
    {
      "channel": 3,
      "note": 40,
      "start": 87.8687,
      "duration": 0.0035,
      "velocity": 92,
      "chip": "ym2612"
    },
    {
      "channel": 2,
      "note": 80,
      "start": 87.8712,
      "duration": 0.0116,
      "velocity": 96,
      "chip": "ym2612"
    },
    {
      "channel": 3,
      "note": 45,
      "start": 87.8739,
      "duration": 0.0921,
      "velocity": 119,
      "chip": "ym2612"
    },
    {
      "channel": 5,
      "note": 76,
      "start": 87.9866,
      "duration": 0.0795,
      "velocity": 119,
      "chip": "ym2612"
    },
    {
      "channel": 2,
      "note": 47,
      "start": 87.9892,
      "duration": 0.0007,
      "velocity": 92,
      "chip": "ym2612"
    },
    {
      "channel": 2,
      "note": 81,
      "start": 87.9913,
      "duration": 0.0415,
      "velocity": 27,
      "chip": "ym2612"
    },
    {
      "channel": 3,
      "note": 40,
      "start": 88.1369,
      "duration": 0.1124,
      "velocity": 92,
      "chip": "ym2612"
    },
    {
      "channel": 2,
      "note": 81,
      "start": 88.1389,
      "duration": 0.0439,
      "velocity": 27,
      "chip": "ym2612"
    },
    {
      "channel": 5,
      "note": 45,
      "start": 88.1417,
      "duration": 0.0577,
      "velocity": 119,
      "chip": "ym2612"
    },
    {
      "channel": 2,
      "note": 73,
      "start": 88.2868,
      "duration": 0.0031,
      "velocity": 119,
      "chip": "ym2612"
    },
    {
      "channel": 3,
      "note": 50,
      "start": 88.289,
      "duration": 0.0934,
      "velocity": 92,
      "chip": "ym2612"
    },
    {
      "channel": 2,
      "note": 81,
      "start": 88.2913,
      "duration": 0.0249,
      "velocity": 27,
      "chip": "ym2612"
    },
    {
      "channel": 3,
      "note": 50,
      "start": 88.4366,
      "duration": 0.0446,
      "velocity": 92,
      "chip": "ym2612"
    },
    {
      "channel": 2,
      "note": 71,
      "start": 88.5063,
      "duration": 0.006,
      "velocity": 119,
      "chip": "ym2612"
    },
    {
      "channel": 3,
      "note": 40,
      "start": 88.5082,
      "duration": 0.0311,
      "velocity": 92,
      "chip": "ym2612"
    },
    {
      "channel": 2,
      "note": 80,
      "start": 88.5137,
      "duration": 0.0049,
      "velocity": 96,
      "chip": "ym2612"
    },
    {
      "channel": 3,
      "note": 45,
      "start": 88.57,
      "duration": 0.0542,
      "velocity": 92,
      "chip": "ym2612"
    },
    {
      "channel": 2,
      "note": 80,
      "start": 88.572,
      "duration": 0.018,
      "velocity": 96,
      "chip": "ym2612"
    },
    {
      "channel": 0,
      "note": 76,
      "start": 88.6337,
      "duration": 0.0575,
      "velocity": 119,
      "chip": "ym2612"
    },
    {
      "channel": 3,
      "note": 38,
      "start": 88.6357,
      "duration": 0.139,
      "velocity": 92,
      "chip": "ym2612"
    },
    {
      "channel": 3,
      "note": 43,
      "start": 88.7796,
      "duration": 0.095,
      "velocity": 92,
      "chip": "ym2612"
    },
    {
      "channel": 0,
      "note": 78,
      "start": 88.912,
      "duration": 0.0627,
      "velocity": 119,
      "chip": "ym2612"
    },
    {
      "channel": 3,
      "note": 45,
      "start": 88.9143,
      "duration": 0.094,
      "velocity": 92,
      "chip": "ym2612"
    },
    {
      "channel": 1,
      "note": 88,
      "start": 89.0644,
      "duration": 0.9354,
      "velocity": 100,
      "chip": "ym2612"
    },
    {
      "channel": 4,
      "note": 86,
      "start": 89.0663,
      "duration": 0.9335,
      "velocity": 100,
      "chip": "ym2612"
    },
    {
      "channel": 2,
      "note": 93,
      "start": 89.0687,
      "duration": 0.9312,
      "velocity": 100,
      "chip": "ym2612"
    },
    {
      "channel": 3,
      "note": 38,
      "start": 89.071,
      "duration": 0.0256,
      "velocity": 92,
      "chip": "ym2612"
    },
    {
      "channel": 0,
      "note": 62,
      "start": 89.1332,
      "duration": 0.0396,
      "velocity": 79,
      "chip": "ym2612"
    },
    {
      "channel": 3,
      "note": 59,
      "start": 89.1353,
      "duration": 0.03,
      "velocity": 79,
      "chip": "ym2612"
    },
    {
      "channel": 0,
      "note": 62,
      "start": 89.1958,
      "duration": 0.1246,
      "velocity": 79,
      "chip": "ym2612"
    },
    {
      "channel": 3,
      "note": 59,
      "start": 89.1978,
      "duration": 0.1061,
      "velocity": 79,
      "chip": "ym2612"
    },
    {
      "channel": 5,
      "note": 43,
      "start": 89.2006,
      "duration": 0.0019,
      "velocity": 92,
      "chip": "ym2612"
    },
    {
      "channel": 5,
      "note": 45,
      "start": 89.204,
      "duration": 0.1004,
      "velocity": 119,
      "chip": "ym2612"
    },
    {
      "channel": 3,
      "note": 76,
      "start": 89.3414,
      "duration": 0.0459,
      "velocity": 119,
      "chip": "ym2612"
    },
    {
      "channel": 5,
      "note": 36,
      "start": 89.3439,
      "duration": 0.1271,
      "velocity": 92,
      "chip": "ym2612"
    },
    {
      "channel": 0,
      "note": 60,
      "start": 89.4911,
      "duration": 0.0961,
      "velocity": 79,
      "chip": "ym2612"
    },
    {
      "channel": 3,
      "note": 57,
      "start": 89.4933,
      "duration": 0.0943,
      "velocity": 79,
      "chip": "ym2612"
    },
    {
      "channel": 5,
      "note": 48,
      "start": 89.4956,
      "duration": 0.0019,
      "velocity": 92,
      "chip": "ym2612"
    },
    {
      "channel": 5,
      "note": 45,
      "start": 89.4989,
      "duration": 0.0388,
      "velocity": 119,
      "chip": "ym2612"
    },
    {
      "channel": 5,
      "note": 72,
      "start": 89.6414,
      "duration": 0.0462,
      "velocity": 119,
      "chip": "ym2612"
    },
    {
      "channel": 0,
      "note": 45,
      "start": 89.6439,
      "duration": 0.06,
      "velocity": 92,
      "chip": "ym2612"
    },
    {
      "channel": 3,
      "note": 60,
      "start": 89.7746,
      "duration": 0.146,
      "velocity": 79,
      "chip": "ym2612"
    },
    {
      "channel": 5,
      "note": 57,
      "start": 89.7769,
      "duration": 0.144,
      "velocity": 79,
      "chip": "ym2612"
    },
    {
      "channel": 0,
      "note": 38,
      "start": 89.7792,
      "duration": 0.1246,
      "velocity": 92,
      "chip": "ym2612"
    },
    {
      "channel": 0,
      "note": 71,
      "start": 89.925,
      "duration": 0.0393,
      "velocity": 119,
      "chip": "ym2612"
    },
    {
      "channel": 3,
      "note": 50,
      "start": 89.9274,
      "duration": 0.0431,
      "velocity": 92,
      "chip": "ym2612"
    },
    {
      "channel": 0,
      "note": 62,
      "start": 89.9938,
      "duration": 0.048,
      "velocity": 79,
      "chip": "ym2612"
    },
    {
      "channel": 3,
      "note": 59,
      "start": 89.9971,
      "duration": 0.0448,
      "velocity": 79,
      "chip": "ym2612"
    },
    {
      "channel": 1,
      "note": 72,
      "start": 90.0587,
      "duration": 0.0606,
      "velocity": 119,
      "chip": "ym2612"
    },
    {
      "channel": 4,
      "note": 48,
      "start": 90.0611,
      "duration": 0.1085,
      "velocity": 92,
      "chip": "ym2612"
    },
    {
      "channel": 0,
      "note": 62,
      "start": 90.2065,
      "duration": 0.1461,
      "velocity": 79,
      "chip": "ym2612"
    },
    {
      "channel": 3,
      "note": 59,
      "start": 90.2086,
      "duration": 0.1444,
      "velocity": 79,
      "chip": "ym2612"
    },
    {
      "channel": 4,
      "note": 33,
      "start": 90.211,
      "duration": 0.1087,
      "velocity": 92,
      "chip": "ym2612"
    },
    {
      "channel": 1,
      "note": 76,
      "start": 90.3569,
      "duration": 0.0458,
      "velocity": 119,
      "chip": "ym2612"
    },
    {
      "channel": 4,
      "note": 45,
      "start": 90.3592,
      "duration": 0.0771,
      "velocity": 92,
      "chip": "ym2612"
    },
    {
      "channel": 2,
      "note": 80,
      "start": 90.3616,
      "duration": 0.0581,
      "velocity": 96,
      "chip": "ym2612"
    },
    {
      "channel": 0,
      "note": 64,
      "start": 90.5071,
      "duration": 0.0954,
      "velocity": 79,
      "chip": "ym2612"
    },
    {
      "channel": 3,
      "note": 61,
      "start": 90.5095,
      "duration": 0.1098,
      "velocity": 79,
      "chip": "ym2612"
    },
    {
      "channel": 5,
      "note": 90,
      "start": 90.5121,
      "duration": 1.191,
      "velocity": 100,
      "chip": "ym2612"
    },
    {
      "channel": 1,
      "note": 100,
      "start": 90.5141,
      "duration": 1.1885,
      "velocity": 100,
      "chip": "ym2612"
    },
    {
      "channel": 2,
      "note": 95,
      "start": 90.5166,
      "duration": 1.1866,
      "velocity": 100,
      "chip": "ym2612"
    },
    {
      "channel": 4,
      "note": 54,
      "start": 90.5187,
      "duration": 0.051,
      "velocity": 92,
      "chip": "ym2612"
    },
    {
      "channel": 4,
      "note": 78,
      "start": 90.6567,
      "duration": 0.0461,
      "velocity": 119,
      "chip": "ym2612"
    },
    {
      "channel": 0,
      "note": 54,
      "start": 90.6592,
      "duration": 0.0767,
      "velocity": 92,
      "chip": "ym2612"
    },
    {
      "channel": 0,
      "note": 42,
      "start": 90.7901,
      "duration": 0.1124,
      "velocity": 92,
      "chip": "ym2612"
    },
    {
      "channel": 4,
      "note": 76,
      "start": 90.94,
      "duration": 0.063,
      "velocity": 119,
      "chip": "ym2612"
    },
    {
      "channel": 0,
      "note": 49,
      "start": 90.9422,
      "duration": 0.0937,
      "velocity": 92,
      "chip": "ym2612"
    },
    {
      "channel": 0,
      "note": 42,
      "start": 91.0907,
      "duration": 0.1119,
      "velocity": 92,
      "chip": "ym2612"
    },
    {
      "channel": 4,
      "note": 73,
      "start": 91.24,
      "duration": 0.0464,
      "velocity": 119,
      "chip": "ym2612"
    },
    {
      "channel": 0,
      "note": 52,
      "start": 91.2422,
      "duration": 0.0937,
      "velocity": 92,
      "chip": "ym2612"
    },
    {
      "channel": 0,
      "note": 52,
      "start": 91.3901,
      "duration": 0.0792,
      "velocity": 92,
      "chip": "ym2612"
    },
    {
      "channel": 4,
      "note": 71,
      "start": 91.5406,
      "duration": 0.0622,
      "velocity": 119,
      "chip": "ym2612"
    },
    {
      "channel": 0,
      "note": 42,
      "start": 91.5427,
      "duration": 0.0765,
      "velocity": 92,
      "chip": "ym2612"
    },
    {
      "channel": 0,
      "note": 47,
      "start": 91.6902,
      "duration": 0.1123,
      "velocity": 92,
      "chip": "ym2612"
    },
    {
      "channel": 4,
      "note": 73,
      "start": 91.8234,
      "duration": 0.1296,
      "velocity": 119,
      "chip": "ym2612"
    },
    {
      "channel": 0,
      "note": 40,
      "start": 91.8256,
      "duration": 0.1436,
      "velocity": 92,
      "chip": "ym2612"
    },
    {
      "channel": 0,
      "note": 45,
      "start": 91.9736,
      "duration": 0.1123,
      "velocity": 92,
      "chip": "ym2612"
    },
    {
      "channel": 4,
      "note": 76,
      "start": 92.1235,
      "duration": 0.0629,
      "velocity": 119,
      "chip": "ym2612"
    },
    {
      "channel": 0,
      "note": 47,
      "start": 92.1257,
      "duration": 0.0935,
      "velocity": 92,
      "chip": "ym2612"
    },
    {
      "channel": 2,
      "note": 80,
      "start": 92.128,
      "duration": 0.075,
      "velocity": 96,
      "chip": "ym2612"
    },
    {
      "channel": 1,
      "note": 88,
      "start": 92.2734,
      "duration": 1.1959,
      "velocity": 100,
      "chip": "ym2612"
    },
    {
      "channel": 5,
      "note": 86,
      "start": 92.2754,
      "duration": 1.1944,
      "velocity": 100,
      "chip": "ym2612"
    },
    {
      "channel": 3,
      "note": 93,
      "start": 92.2778,
      "duration": 1.1918,
      "velocity": 100,
      "chip": "ym2612"
    },
    {
      "channel": 0,
      "note": 38,
      "start": 92.28,
      "duration": 0.0393,
      "velocity": 92,
      "chip": "ym2612"
    },
    {
      "channel": 2,
      "note": 80,
      "start": 92.2826,
      "duration": 0.0372,
      "velocity": 96,
      "chip": "ym2612"
    },
    {
      "channel": 4,
      "note": 66,
      "start": 92.4235,
      "duration": 0.0461,
      "velocity": 79,
      "chip": "ym2612"
    },
    {
      "channel": 0,
      "note": 62,
      "start": 92.426,
      "duration": 0.0432,
      "velocity": 79,
      "chip": "ym2612"
    },
    {
      "channel": 2,
      "note": 78,
      "start": 92.4281,
      "duration": 0.001,
      "velocity": 119,
      "chip": "ym2612"
    },
    {
      "channel": 2,
      "note": 80,
      "start": 92.4305,
      "duration": 0.0393,
      "velocity": 96,
      "chip": "ym2612"
    },
    {
      "channel": 4,
      "note": 66,
      "start": 92.5734,
      "duration": 0.0963,
      "velocity": 79,
      "chip": "ym2612"
    },
    {
      "channel": 0,
      "note": 62,
      "start": 92.5755,
      "duration": 0.0937,
      "velocity": 79,
      "chip": "ym2612"
    },
    {
      "channel": 2,
      "note": 43,
      "start": 92.5783,
      "duration": 0.0007,
      "velocity": 92,
      "chip": "ym2612"
    },
    {
      "channel": 2,
      "note": 80,
      "start": 92.5805,
      "duration": 0.0391,
      "velocity": 96,
      "chip": "ym2612"
    },
    {
      "channel": 2,
      "note": 76,
      "start": 92.7235,
      "duration": 0.0033,
      "velocity": 119,
      "chip": "ym2612"
    },
    {
      "channel": 0,
      "note": 36,
      "start": 92.726,
      "duration": 0.11,
      "velocity": 92,
      "chip": "ym2612"
    },
    {
      "channel": 2,
      "note": 81,
      "start": 92.7283,
      "duration": 0.0415,
      "velocity": 27,
      "chip": "ym2612"
    },
    {
      "channel": 4,
      "note": 64,
      "start": 92.8732,
      "duration": 0.0798,
      "velocity": 79,
      "chip": "ym2612"
    },
    {
      "channel": 2,
      "note": 60,
      "start": 92.8756,
      "duration": 0.0776,
      "velocity": 79,
      "chip": "ym2612"
    },
    {
      "channel": 0,
      "note": 48,
      "start": 92.8778,
      "duration": 0.1081,
      "velocity": 92,
      "chip": "ym2612"
    },
    {
      "channel": 4,
      "note": 72,
      "start": 93.0069,
      "duration": 0.0795,
      "velocity": 119,
      "chip": "ym2612"
    },
    {
      "channel": 0,
      "note": 45,
      "start": 93.0092,
      "duration": 0.0768,
      "velocity": 92,
      "chip": "ym2612"
    },
    {
      "channel": 2,
      "note": 81,
      "start": 93.0116,
      "duration": 0.0415,
      "velocity": 27,
      "chip": "ym2612"
    },
    {
      "channel": 2,
      "note": 64,
      "start": 93.1568,
      "duration": 0.1297,
      "velocity": 79,
      "chip": "ym2612"
    },
    {
      "channel": 0,
      "note": 60,
      "start": 93.159,
      "duration": 0.1268,
      "velocity": 79,
      "chip": "ym2612"
    },
    {
      "channel": 4,
      "note": 38,
      "start": 93.1616,
      "duration": 0.1247,
      "velocity": 92,
      "chip": "ym2612"
    },
    {
      "channel": 0,
      "note": 69,
      "start": 93.3068,
      "duration": 0.0457,
      "velocity": 119,
      "chip": "ym2612"
    },
    {
      "channel": 4,
      "note": 50,
      "start": 93.3092,
      "duration": 0.0938,
      "velocity": 92,
      "chip": "ym2612"
    },
    {
      "channel": 2,
      "note": 80,
      "start": 93.3125,
      "duration": 0.0072,
      "velocity": 96,
      "chip": "ym2612"
    },
    {
      "channel": 2,
      "note": 66,
      "start": 93.4568,
      "duration": 0.1129,
      "velocity": 79,
      "chip": "ym2612"
    },
    {
      "channel": 0,
      "note": 62,
      "start": 93.459,
      "duration": 0.0936,
      "velocity": 79,
      "chip": "ym2612"
    },
    {
      "channel": 4,
      "note": 36,
      "start": 93.4615,
      "duration": 0.1078,
      "velocity": 92,
      "chip": "ym2612"
    },
    {
      "channel": 1,
      "note": 72,
      "start": 93.6068,
      "duration": 0.0792,
      "velocity": 119,
      "chip": "ym2612"
    },
    {
      "channel": 4,
      "note": 48,
      "start": 93.6091,
      "duration": 0.0938,
      "velocity": 92,
      "chip": "ym2612"
    },
    {
      "channel": 2,
      "note": 66,
      "start": 93.7568,
      "duration": 0.113,
      "velocity": 79,
      "chip": "ym2612"
    },
    {
      "channel": 0,
      "note": 62,
      "start": 93.7588,
      "duration": 0.0938,
      "velocity": 79,
      "chip": "ym2612"
    },
    {
      "channel": 4,
      "note": 33,
      "start": 93.7617,
      "duration": 0.0913,
      "velocity": 92,
      "chip": "ym2612"
    },
    {
      "channel": 1,
      "note": 76,
      "start": 93.9067,
      "duration": 0.0459,
      "velocity": 119,
      "chip": "ym2612"
    },
    {
      "channel": 4,
      "note": 45,
      "start": 93.9091,
      "duration": 0.0772,
      "velocity": 92,
      "chip": "ym2612"
    },
    {
      "channel": 2,
      "note": 68,
      "start": 94.0403,
      "duration": 0.1129,
      "velocity": 79,
      "chip": "ym2612"
    },
    {
      "channel": 0,
      "note": 64,
      "start": 94.0425,
      "duration": 0.11,
      "velocity": 79,
      "chip": "ym2612"
    },
    {
      "channel": 3,
      "note": 90,
      "start": 94.0453,
      "duration": 1.191,
      "velocity": 100,
      "chip": "ym2612"
    },
    {
      "channel": 5,
      "note": 88,
      "start": 94.0473,
      "duration": 1.1891,
      "velocity": 100,
      "chip": "ym2612"
    },
    {
      "channel": 1,
      "note": 95,
      "start": 94.0496,
      "duration": 1.1863,
      "velocity": 100,
      "chip": "ym2612"
    },
    {
      "channel": 4,
      "note": 52,
      "start": 94.0518,
      "duration": 0.0676,
      "velocity": 92,
      "chip": "ym2612"
    },
    {
      "channel": 4,
      "note": 78,
      "start": 94.1901,
      "duration": 0.0628,
      "velocity": 119,
      "chip": "ym2612"
    },
    {
      "channel": 0,
      "note": 52,
      "start": 94.1926,
      "duration": 0.0933,
      "velocity": 92,
      "chip": "ym2612"
    },
    {
      "channel": 2,
      "note": 80,
      "start": 94.1949,
      "duration": 0.0582,
      "velocity": 96,
      "chip": "ym2612"
    },
    {
      "channel": 0,
      "note": 40,
      "start": 94.3402,
      "duration": 0.1123,
      "velocity": 92,
      "chip": "ym2612"
    },
    {
      "channel": 2,
      "note": 80,
      "start": 94.3426,
      "duration": 0.0271,
      "velocity": 96,
      "chip": "ym2612"
    },
    {
      "channel": 4,
      "note": 76,
      "start": 94.4901,
      "duration": 0.0628,
      "velocity": 119,
      "chip": "ym2612"
    },
    {
      "channel": 0,
      "note": 47,
      "start": 94.4923,
      "duration": 0.0937,
      "velocity": 92,
      "chip": "ym2612"
    },
    {
      "channel": 2,
      "note": 81,
      "start": 94.4944,
      "duration": 0.0254,
      "velocity": 27,
      "chip": "ym2612"
    },
    {
      "channel": 0,
      "note": 40,
      "start": 94.6402,
      "duration": 0.1124,
      "velocity": 92,
      "chip": "ym2612"
    },
    {
      "channel": 2,
      "note": 81,
      "start": 94.6422,
      "duration": 0.0276,
      "velocity": 27,
      "chip": "ym2612"
    },
    {
      "channel": 4,
      "note": 73,
      "start": 94.7901,
      "duration": 0.0462,
      "velocity": 119,
      "chip": "ym2612"
    },
    {
      "channel": 0,
      "note": 50,
      "start": 94.7924,
      "duration": 0.077,
      "velocity": 92,
      "chip": "ym2612"
    },
    {
      "channel": 2,
      "note": 81,
      "start": 94.7951,
      "duration": 0.0246,
      "velocity": 27,
      "chip": "ym2612"
    },
    {
      "channel": 0,
      "note": 50,
      "start": 94.9401,
      "duration": 0.0791,
      "velocity": 92,
      "chip": "ym2612"
    },
    {
      "channel": 4,
      "note": 81,
      "start": 95.0732,
      "duration": 0.0631,
      "velocity": 119,
      "chip": "ym2612"
    },
    {
      "channel": 0,
      "note": 40,
      "start": 95.0753,
      "duration": 0.0939,
      "velocity": 92,
      "chip": "ym2612"
    },
    {
      "channel": 2,
      "note": 80,
      "start": 95.078,
      "duration": 0.0417,
      "velocity": 96,
      "chip": "ym2612"
    },
    {
      "channel": 0,
      "note": 45,
      "start": 95.2235,
      "duration": 0.129,
      "velocity": 92,
      "chip": "ym2612"
    },
    {
      "channel": 2,
      "note": 80,
      "start": 95.2259,
      "duration": 0.0604,
      "velocity": 96,
      "chip": "ym2612"
    },
    {
      "channel": 4,
      "note": 76,
      "start": 95.3734,
      "duration": 0.0793,
      "velocity": 119,
      "chip": "ym2612"
    },
    {
      "channel": 0,
      "note": 38,
      "start": 95.3756,
      "duration": 0.1436,
      "velocity": 92,
      "chip": "ym2612"
    },
    {
      "channel": 0,
      "note": 43,
      "start": 95.5236,
      "duration": 0.1123,
      "velocity": 92,
      "chip": "ym2612"
    },
    {
      "channel": 4,
      "note": 78,
      "start": 95.6734,
      "duration": 0.0462,
      "velocity": 119,
      "chip": "ym2612"
    },
    {
      "channel": 0,
      "note": 45,
      "start": 95.6756,
      "duration": 0.0936,
      "velocity": 92,
      "chip": "ym2612"
    },
    {
      "channel": 1,
      "note": 93,
      "start": 95.8234,
      "duration": 1.1958,
      "velocity": 100,
      "chip": "ym2612"
    },
    {
      "channel": 3,
      "note": 88,
      "start": 95.8253,
      "duration": 1.194,
      "velocity": 100,
      "chip": "ym2612"
    },
    {
      "channel": 5,
      "note": 86,
      "start": 95.8276,
      "duration": 1.1921,
      "velocity": 100,
      "chip": "ym2612"
    },
    {
      "channel": 0,
      "note": 38,
      "start": 95.8298,
      "duration": 0.0394,
      "velocity": 92,
      "chip": "ym2612"
    },
    {
      "channel": 2,
      "note": 62,
      "start": 95.9735,
      "duration": 0.0629,
      "velocity": 79,
      "chip": "ym2612"
    },
    {
      "channel": 4,
      "note": 59,
      "start": 95.976,
      "duration": 0.06,
      "velocity": 79,
      "chip": "ym2612"
    },
    {
      "channel": 0,
      "note": 78,
      "start": 95.9781,
      "duration": 0.041,
      "velocity": 119,
      "chip": "ym2612"
    },
    {
      "channel": 2,
      "note": 62,
      "start": 96.1235,
      "duration": 0.0463,
      "velocity": 79,
      "chip": "ym2612"
    },
    {
      "channel": 4,
      "note": 59,
      "start": 96.1258,
      "duration": 0.0438,
      "velocity": 79,
      "chip": "ym2612"
    },
    {
      "channel": 0,
      "note": 43,
      "start": 96.1286,
      "duration": 0.0906,
      "velocity": 92,
      "chip": "ym2612"
    },
    {
      "channel": 4,
      "note": 76,
      "start": 96.2568,
      "duration": 0.0629,
      "velocity": 119,
      "chip": "ym2612"
    },
    {
      "channel": 0,
      "note": 36,
      "start": 96.2595,
      "duration": 0.1265,
      "velocity": 92,
      "chip": "ym2612"
    },
    {
      "channel": 2,
      "note": 81,
      "start": 96.2616,
      "duration": 0.0415,
      "velocity": 27,
      "chip": "ym2612"
    },
    {
      "channel": 2,
      "note": 60,
      "start": 96.4068,
      "duration": 0.113,
      "velocity": 79,
      "chip": "ym2612"
    },
    {
      "channel": 4,
      "note": 57,
      "start": 96.409,
      "duration": 0.094,
      "velocity": 79,
      "chip": "ym2612"
    },
    {
      "channel": 0,
      "note": 48,
      "start": 96.4113,
      "duration": 0.1246,
      "velocity": 92,
      "chip": "ym2612"
    },
    {
      "channel": 4,
      "note": 72,
      "start": 96.5568,
      "duration": 0.0462,
      "velocity": 119,
      "chip": "ym2612"
    },
    {
      "channel": 0,
      "note": 45,
      "start": 96.559,
      "duration": 0.0769,
      "velocity": 92,
      "chip": "ym2612"
    },
    {
      "channel": 2,
      "note": 81,
      "start": 96.5613,
      "duration": 0.0419,
      "velocity": 27,
      "chip": "ym2612"
    },
    {
      "channel": 4,
      "note": 60,
      "start": 96.7066,
      "duration": 0.1298,
      "velocity": 79,
      "chip": "ym2612"
    },
    {
      "channel": 2,
      "note": 57,
      "start": 96.7095,
      "duration": 0.1102,
      "velocity": 79,
      "chip": "ym2612"
    },
    {
      "channel": 0,
      "note": 38,
      "start": 96.7118,
      "duration": 0.1241,
      "velocity": 92,
      "chip": "ym2612"
    },
    {
      "channel": 2,
      "note": 71,
      "start": 96.8569,
      "duration": 0.0036,
      "velocity": 119,
      "chip": "ym2612"
    },
    {
      "channel": 0,
      "note": 50,
      "start": 96.8592,
      "duration": 0.0767,
      "velocity": 92,
      "chip": "ym2612"
    },
    {
      "channel": 2,
      "note": 80,
      "start": 96.862,
      "duration": 0.0243,
      "velocity": 96,
      "chip": "ym2612"
    },
    {
      "channel": 4,
      "note": 62,
      "start": 97.0064,
      "duration": 0.1296,
      "velocity": 79,
      "chip": "ym2612"
    },
    {
      "channel": 2,
      "note": 59,
      "start": 97.0086,
      "duration": 0.0944,
      "velocity": 79,
      "chip": "ym2612"
    },
    {
      "channel": 0,
      "note": 36,
      "start": 97.011,
      "duration": 0.0915,
      "velocity": 92,
      "chip": "ym2612"
    },
    {
      "channel": 1,
      "note": 72,
      "start": 97.1567,
      "duration": 0.0627,
      "velocity": 119,
      "chip": "ym2612"
    },
    {
      "channel": 0,
      "note": 48,
      "start": 97.1588,
      "duration": 0.0938,
      "velocity": 92,
      "chip": "ym2612"
    },
    {
      "channel": 4,
      "note": 62,
      "start": 97.2904,
      "duration": 0.1626,
      "velocity": 79,
      "chip": "ym2612"
    },
    {
      "channel": 2,
      "note": 59,
      "start": 97.2927,
      "duration": 0.1437,
      "velocity": 79,
      "chip": "ym2612"
    },
    {
      "channel": 0,
      "note": 33,
      "start": 97.2949,
      "duration": 0.1077,
      "velocity": 92,
      "chip": "ym2612"
    },
    {
      "channel": 1,
      "note": 76,
      "start": 97.4408,
      "duration": 0.0618,
      "velocity": 119,
      "chip": "ym2612"
    },
    {
      "channel": 0,
      "note": 45,
      "start": 97.443,
      "duration": 0.093,
      "velocity": 92,
      "chip": "ym2612"
    },
    {
      "channel": 2,
      "note": 80,
      "start": 97.4454,
      "duration": 0.0743,
      "velocity": 96,
      "chip": "ym2612"
    },
    {
      "channel": 0,
      "note": 54,
      "start": 97.6036,
      "duration": 0.099,
      "velocity": 127,
      "chip": "ym2612"
    }
  ]
}