{
  "track_name": "12 - A Hidden Place",
  "duration_sec": 22.014,
  "sample_rate": 44100,
  "note_count": 324,
  "unique_pitches": 31,
  "pitch_range": 43,
  "avg_note_duration": 0.4075,
  "reconstruction_stats": {
    "notes_reconstructed": 324,
    "keyon_events": 324,
    "keyoff_events": 312,
    "orphan_keyons": 6,
    "unique_pitches": 31,
    "pitch_range": 43,
    "avg_duration_sec": 0.4075
  },
  "metadata": {
    "source": "P\\Puggsy\\12 - A Hidden Place.vgz"
  },
  "notes": [
    {
      "channel": 0,
      "note": 55,
      "start": 0.0,
      "duration": 0.4188,
      "velocity": 107,
      "chip": "ym2612"
    },
    {
      "channel": 1,
      "note": 57,
      "start": 0.0,
      "duration": 0.421,
      "velocity": 107,
      "chip": "ym2612"
    },
    {
      "channel": 2,
      "note": 57,
      "start": 0.0,
      "duration": 0.0524,
      "velocity": 127,
      "chip": "ym2612"
    },
    {
      "channel": 3,
      "note": 57,
      "start": 0.0,
      "duration": 0.6534,
      "velocity": 107,
      "chip": "ym2612"
    },
    {
      "channel": 4,
      "note": 57,
      "start": 0.0,
      "duration": 22.0143,
      "velocity": 1,
      "chip": "ym2612"
    },
    {
      "channel": 5,
      "note": 57,
      "start": 0.0,
      "duration": 0.0547,
      "velocity": 118,
      "chip": "ym2612"
    },
    {
      "channel": 2,
      "note": 55,
      "start": 0.0526,
      "duration": 0.7153,
      "velocity": 127,
      "chip": "ym2612"
    },
    {
      "channel": 5,
      "note": 93,
      "start": 0.0549,
      "duration": 0.3668,
      "velocity": 118,
      "chip": "ym2612"
    },
    {
      "channel": 0,
      "note": 83,
      "start": 0.419,
      "duration": 0.1149,
      "velocity": 107,
      "chip": "ym2612"
    },
    {
      "channel": 1,
      "note": 55,
      "start": 0.4211,
      "duration": 0.23,
      "velocity": 107,
      "chip": "ym2612"
    },
    {
      "channel": 5,
      "note": 93,
      "start": 0.4219,
      "duration": 0.2322,
      "velocity": 118,
      "chip": "ym2612"
    },
    {
      "channel": 0,
      "note": 84,
      "start": 0.5341,
      "duration": 0.1165,
      "velocity": 107,
      "chip": "ym2612"
    },
    {
      "channel": 0,
      "note": 85,
      "start": 0.6507,
      "duration": 0.1165,
      "velocity": 107,
      "chip": "ym2612"
    },
    {
      "channel": 1,
      "note": 55,
      "start": 0.6513,
      "duration": 0.4827,
      "velocity": 107,
      "chip": "ym2612"
    },
    {
      "channel": 3,
      "note": 83,
      "start": 0.6535,
      "duration": 0.1149,
      "velocity": 107,
      "chip": "ym2612"
    },
    {
      "channel": 5,
      "note": 93,
      "start": 0.6542,
      "duration": 0.1149,
      "velocity": 118,
      "chip": "ym2612"
    },
    {
      "channel": 0,
      "note": 88,
      "start": 0.7675,
      "duration": 0.2497,
      "velocity": 107,
      "chip": "ym2612"
    },
    {
      "channel": 2,
      "note": 50,
      "start": 0.7681,
      "duration": 0.7164,
      "velocity": 127,
      "chip": "ym2612"
    },
    {
      "channel": 3,
      "note": 84,
      "start": 0.7687,
      "duration": 0.1154,
      "velocity": 107,
      "chip": "ym2612"
    },
    {
      "channel": 5,
      "note": 93,
      "start": 0.7693,
      "duration": 0.3655,
      "velocity": 118,
      "chip": "ym2612"
    },
    {
      "channel": 3,
      "note": 85,
      "start": 0.8843,
      "duration": 0.1336,
      "velocity": 107,
      "chip": "ym2612"
    },
    {
      "channel": 0,
      "note": 86,
      "start": 1.0173,
      "duration": 0.3499,
      "velocity": 107,
      "chip": "ym2612"
    },
    {
      "channel": 3,
      "note": 88,
      "start": 1.018,
      "duration": 0.2327,
      "velocity": 107,
      "chip": "ym2612"
    },
    {
      "channel": 1,
      "note": 67,
      "start": 1.1341,
      "duration": 0.717,
      "velocity": 107,
      "chip": "ym2612"
    },
    {
      "channel": 5,
      "note": 93,
      "start": 1.1349,
      "duration": 0.2332,
      "velocity": 118,
      "chip": "ym2612"
    },
    {
      "channel": 3,
      "note": 86,
      "start": 1.2509,
      "duration": 0.3665,
      "velocity": 107,
      "chip": "ym2612"
    },
    {
      "channel": 0,
      "note": 83,
      "start": 1.3674,
      "duration": 0.1165,
      "velocity": 107,
      "chip": "ym2612"
    },
    {
      "channel": 5,
      "note": 93,
      "start": 1.3682,
      "duration": 0.117,
      "velocity": 118,
      "chip": "ym2612"
    },
    {
      "channel": 0,
      "note": 79,
      "start": 1.4841,
      "duration": 0.2497,
      "velocity": 107,
      "chip": "ym2612"
    },
    {
      "channel": 2,
      "note": 55,
      "start": 1.4847,
      "duration": 0.6004,
      "velocity": 127,
      "chip": "ym2612"
    },
    {
      "channel": 5,
      "note": 93,
      "start": 1.4854,
      "duration": 0.3665,
      "velocity": 118,
      "chip": "ym2612"
    },
    {
      "channel": 3,
      "note": 83,
      "start": 1.6176,
      "duration": 0.1169,
      "velocity": 107,
      "chip": "ym2612"
    },
    {
      "channel": 0,
      "note": 76,
      "start": 1.734,
      "duration": 0.1165,
      "velocity": 107,
      "chip": "ym2612"
    },
    {
      "channel": 3,
      "note": 79,
      "start": 1.7347,
      "duration": 0.2327,
      "velocity": 107,
      "chip": "ym2612"
    },
    {
      "channel": 0,
      "note": 75,
      "start": 1.8507,
      "duration": 0.2332,
      "velocity": 107,
      "chip": "ym2612"
    },
    {
      "channel": 1,
      "note": 55,
      "start": 1.8513,
      "duration": 0.2332,
      "velocity": 107,
      "chip": "ym2612"
    },
    {
      "channel": 5,
      "note": 93,
      "start": 1.8521,
      "duration": 0.2342,
      "velocity": 118,
      "chip": "ym2612"
    },
    {
      "channel": 3,
      "note": 76,
      "start": 1.9676,
      "duration": 0.1181,
      "velocity": 107,
      "chip": "ym2612"
    },
    {
      "channel": 0,
      "note": 74,
      "start": 2.0841,
      "duration": 1.1998,
      "velocity": 107,
      "chip": "ym2612"
    },
    {
      "channel": 1,
      "note": 67,
      "start": 2.0846,
      "duration": 0.4826,
      "velocity": 107,
      "chip": "ym2612"
    },
    {
      "channel": 2,
      "note": 50,
      "start": 2.0852,
      "duration": 0.3654,
      "velocity": 127,
      "chip": "ym2612"
    },
    {
      "channel": 3,
      "note": 75,
      "start": 2.0858,
      "duration": 0.2482,
      "velocity": 107,
      "chip": "ym2612"
    },
    {
      "channel": 5,
      "note": 93,
      "start": 2.0864,
      "duration": 0.1312,
      "velocity": 118,
      "chip": "ym2612"
    },
    {
      "channel": 5,
      "note": 93,
      "start": 2.2178,
      "duration": 0.3508,
      "velocity": 118,
      "chip": "ym2612"
    },
    {
      "channel": 3,
      "note": 74,
      "start": 2.3342,
      "duration": 1.2009,
      "velocity": 107,
      "chip": "ym2612"
    },
    {
      "channel": 2,
      "note": 50,
      "start": 2.4508,
      "duration": 0.1171,
      "velocity": 127,
      "chip": "ym2612"
    },
    {
      "channel": 1,
      "note": 67,
      "start": 2.5675,
      "duration": 0.717,
      "velocity": 107,
      "chip": "ym2612"
    },
    {
      "channel": 2,
      "note": 52,
      "start": 2.568,
      "duration": 0.2492,
      "velocity": 127,
      "chip": "ym2612"
    },
    {
      "channel": 5,
      "note": 93,
      "start": 2.5688,
      "duration": 0.2493,
      "velocity": 118,
      "chip": "ym2612"
    },
    {
      "channel": 2,
      "note": 54,
      "start": 2.8175,
      "duration": 0.1165,
      "velocity": 127,
      "chip": "ym2612"
    },
    {
      "channel": 5,
      "note": 93,
      "start": 2.8182,
      "duration": 0.1166,
      "velocity": 118,
      "chip": "ym2612"
    },
    {
      "channel": 2,
      "note": 55,
      "start": 2.9341,
      "duration": 0.7171,
      "velocity": 127,
      "chip": "ym2612"
    },
    {
      "channel": 5,
      "note": 93,
      "start": 2.9348,
      "duration": 0.3504,
      "velocity": 118,
      "chip": "ym2612"
    },
    {
      "channel": 0,
      "note": 83,
      "start": 3.2841,
      "duration": 0.1331,
      "velocity": 107,
      "chip": "ym2612"
    },
    {
      "channel": 1,
      "note": 55,
      "start": 3.2846,
      "duration": 0.2499,
      "velocity": 107,
      "chip": "ym2612"
    },
    {
      "channel": 5,
      "note": 93,
      "start": 3.2854,
      "duration": 0.2504,
      "velocity": 118,
      "chip": "ym2612"
    },
    {
      "channel": 0,
      "note": 84,
      "start": 3.4174,
      "duration": 0.1165,
      "velocity": 107,
      "chip": "ym2612"
    },
    {
      "channel": 0,
      "note": 85,
      "start": 3.5341,
      "duration": 0.1165,
      "velocity": 107,
      "chip": "ym2612"
    },
    {
      "channel": 1,
      "note": 55,
      "start": 3.5346,
      "duration": 0.4826,
      "velocity": 107,
      "chip": "ym2612"
    },
    {
      "channel": 3,
      "note": 83,
      "start": 3.5353,
      "duration": 0.1165,
      "velocity": 107,
      "chip": "ym2612"
    },
    {
      "channel": 5,
      "note": 93,
      "start": 3.5359,
      "duration": 0.1165,
      "velocity": 118,
      "chip": "ym2612"
    },
    {
      "channel": 0,
      "note": 88,
      "start": 3.6508,
      "duration": 0.233,
      "velocity": 107,
      "chip": "ym2612"
    },
    {
      "channel": 2,
      "note": 50,
      "start": 3.6515,
      "duration": 0.7164,
      "velocity": 127,
      "chip": "ym2612"
    },
    {
      "channel": 3,
      "note": 84,
      "start": 3.652,
      "duration": 0.1154,
      "velocity": 107,
      "chip": "ym2612"
    },
    {
      "channel": 5,
      "note": 93,
      "start": 3.6527,
      "duration": 0.3654,
      "velocity": 118,
      "chip": "ym2612"
    },
    {
      "channel": 3,
      "note": 85,
      "start": 3.7676,
      "duration": 0.1169,
      "velocity": 107,
      "chip": "ym2612"
    },
    {
      "channel": 0,
      "note": 86,
      "start": 3.884,
      "duration": 0.3665,
      "velocity": 107,
      "chip": "ym2612"
    },
    {
      "channel": 3,
      "note": 88,
      "start": 3.8847,
      "duration": 0.2494,
      "velocity": 107,
      "chip": "ym2612"
    },
    {
      "channel": 1,
      "note": 67,
      "start": 4.0175,
      "duration": 0.717,
      "velocity": 107,
      "chip": "ym2612"
    },
    {
      "channel": 5,
      "note": 93,
      "start": 4.0182,
      "duration": 0.2332,
      "velocity": 118,
      "chip": "ym2612"
    },
    {
      "channel": 3,
      "note": 86,
      "start": 4.1343,
      "duration": 0.3498,
      "velocity": 107,
      "chip": "ym2612"
    },
    {
      "channel": 0,
      "note": 88,
      "start": 4.2507,
      "duration": 0.1165,
      "velocity": 107,
      "chip": "ym2612"
    },
    {
      "channel": 5,
      "note": 93,
      "start": 4.2516,
      "duration": 0.117,
      "velocity": 118,
      "chip": "ym2612"
    },
    {
      "channel": 0,
      "note": 89,
      "start": 4.3674,
      "duration": 0.2497,
      "velocity": 107,
      "chip": "ym2612"
    },
    {
      "channel": 2,
      "note": 55,
      "start": 4.368,
      "duration": 0.6004,
      "velocity": 127,
      "chip": "ym2612"
    },
    {
      "channel": 5,
      "note": 93,
      "start": 4.3688,
      "duration": 0.3665,
      "velocity": 118,
      "chip": "ym2612"
    },
    {
      "channel": 3,
      "note": 88,
      "start": 4.4843,
      "duration": 0.1336,
      "velocity": 107,
      "chip": "ym2612"
    },
    {
      "channel": 0,
      "note": 91,
      "start": 4.6173,
      "duration": 0.1165,
      "velocity": 107,
      "chip": "ym2612"
    },
    {
      "channel": 3,
      "note": 89,
      "start": 4.618,
      "duration": 0.2327,
      "velocity": 107,
      "chip": "ym2612"
    },
    {
      "channel": 0,
      "note": 89,
      "start": 4.7341,
      "duration": 0.2332,
      "velocity": 107,
      "chip": "ym2612"
    },
    {
      "channel": 1,
      "note": 55,
      "start": 4.7346,
      "duration": 0.2332,
      "velocity": 107,
      "chip": "ym2612"
    },
    {
      "channel": 5,
      "note": 93,
      "start": 4.7354,
      "duration": 0.2342,
      "velocity": 118,
      "chip": "ym2612"
    },
    {
      "channel": 3,
      "note": 91,
      "start": 4.8509,
      "duration": 0.1181,
      "velocity": 107,
      "chip": "ym2612"
    },
    {
      "channel": 0,
      "note": 88,
      "start": 4.9675,
      "duration": 1.1998,
      "velocity": 107,
      "chip": "ym2612"
    },
    {
      "channel": 1,
      "note": 67,
      "start": 4.968,
      "duration": 0.4826,
      "velocity": 107,
      "chip": "ym2612"
    },
    {
      "channel": 2,
      "note": 55,
      "start": 4.9685,
      "duration": 0.3655,
      "velocity": 127,
      "chip": "ym2612"
    },
    {
      "channel": 3,
      "note": 89,
      "start": 4.9691,
      "duration": 0.2482,
      "velocity": 107,
      "chip": "ym2612"
    },
    {
      "channel": 5,
      "note": 93,
      "start": 4.9698,
      "duration": 0.1145,
      "velocity": 118,
      "chip": "ym2612"
    },
    {
      "channel": 5,
      "note": 93,
      "start": 5.0844,
      "duration": 0.3674,
      "velocity": 118,
      "chip": "ym2612"
    },
    {
      "channel": 3,
      "note": 88,
      "start": 5.2175,
      "duration": 1.201,
      "velocity": 107,
      "chip": "ym2612"
    },
    {
      "channel": 2,
      "note": 55,
      "start": 5.3341,
      "duration": 0.1171,
      "velocity": 127,
      "chip": "ym2612"
    },
    {
      "channel": 1,
      "note": 67,
      "start": 5.4508,
      "duration": 0.7171,
      "velocity": 107,
      "chip": "ym2612"
    },
    {
      "channel": 2,
      "note": 57,
      "start": 5.4514,
      "duration": 0.2327,
      "velocity": 127,
      "chip": "ym2612"
    },
    {
      "channel": 5,
      "note": 93,
      "start": 5.4521,
      "duration": 0.2327,
      "velocity": 118,
      "chip": "ym2612"
    },
    {
      "channel": 2,
      "note": 59,
      "start": 5.6843,
      "duration": 0.1333,
      "velocity": 127,
      "chip": "ym2612"
    },
    {
      "channel": 5,
      "note": 93,
      "start": 5.685,
      "duration": 0.1334,
      "velocity": 118,
      "chip": "ym2612"
    },
    {
      "channel": 2,
      "note": 60,
      "start": 5.8177,
      "duration": 0.7168,
      "velocity": 127,
      "chip": "ym2612"
    },
    {
      "channel": 5,
      "note": 93,
      "start": 5.8185,
      "duration": 0.3501,
      "velocity": 118,
      "chip": "ym2612"
    },
    {
      "channel": 0,
      "note": 91,
      "start": 6.1675,
      "duration": 0.2498,
      "velocity": 107,
      "chip": "ym2612"
    },
    {
      "channel": 1,
      "note": 60,
      "start": 6.1681,
      "duration": 0.2497,
      "velocity": 107,
      "chip": "ym2612"
    },
    {
      "channel": 5,
      "note": 93,
      "start": 6.1689,
      "duration": 0.2502,
      "velocity": 118,
      "chip": "ym2612"
    },
    {
      "channel": 0,
      "note": 88,
      "start": 6.4174,
      "duration": 0.1165,
      "velocity": 107,
      "chip": "ym2612"
    },
    {
      "channel": 1,
      "note": 60,
      "start": 6.418,
      "duration": 0.466,
      "velocity": 107,
      "chip": "ym2612"
    },
    {
      "channel": 3,
      "note": 91,
      "start": 6.4187,
      "duration": 0.2321,
      "velocity": 107,
      "chip": "ym2612"
    },
    {
      "channel": 5,
      "note": 93,
      "start": 6.4193,
      "duration": 0.116,
      "velocity": 118,
      "chip": "ym2612"
    },
    {
      "channel": 0,
      "note": 84,
      "start": 6.5341,
      "duration": 0.233,
      "velocity": 107,
      "chip": "ym2612"
    },
    {
      "channel": 2,
      "note": 55,
      "start": 6.5348,
      "duration": 0.7164,
      "velocity": 127,
      "chip": "ym2612"
    },
    {
      "channel": 5,
      "note": 93,
      "start": 6.5355,
      "duration": 0.3493,
      "velocity": 118,
      "chip": "ym2612"
    },
    {
      "channel": 3,
      "note": 88,
      "start": 6.6509,
      "duration": 0.1169,
      "velocity": 107,
      "chip": "ym2612"
    },
    {
      "channel": 0,
      "note": 79,
      "start": 6.7673,
      "duration": 0.4832,
      "velocity": 107,
      "chip": "ym2612"
    },
    {
      "channel": 3,
      "note": 84,
      "start": 6.768,
      "duration": 0.2494,
      "velocity": 107,
      "chip": "ym2612"
    },
    {
      "channel": 1,
      "note": 72,
      "start": 6.8841,
      "duration": 0.7337,
      "velocity": 107,
      "chip": "ym2612"
    },
    {
      "channel": 5,
      "note": 93,
      "start": 6.8849,
      "duration": 0.2493,
      "velocity": 118,
      "chip": "ym2612"
    },
    {
      "channel": 3,
      "note": 79,
      "start": 7.0176,
      "duration": 0.4669,
      "velocity": 107,
      "chip": "ym2612"
    },
    {
      "channel": 5,
      "note": 93,
      "start": 7.1343,
      "duration": 0.1176,
      "velocity": 118,
      "chip": "ym2612"
    },
    {
      "channel": 0,
      "note": 91,
      "start": 7.2507,
      "duration": 0.2331,
      "velocity": 107,
      "chip": "ym2612"
    },
    {
      "channel": 2,
      "note": 60,
      "start": 7.2514,
      "duration": 0.6004,
      "velocity": 127,
      "chip": "ym2612"
    },
    {
      "channel": 5,
      "note": 93,
      "start": 7.2521,
      "duration": 0.3665,
      "velocity": 118,
      "chip": "ym2612"
    },
    {
      "channel": 0,
      "note": 88,
      "start": 7.484,
      "duration": 0.1333,
      "velocity": 107,
      "chip": "ym2612"
    },
    {
      "channel": 3,
      "note": 91,
      "start": 7.4847,
      "duration": 0.2494,
      "velocity": 107,
      "chip": "ym2612"
    },
    {
      "channel": 0,
      "note": 84,
      "start": 7.6174,
      "duration": 0.2332,
      "velocity": 107,
      "chip": "ym2612"
    },
    {
      "channel": 1,
      "note": 60,
      "start": 7.618,
      "duration": 0.2332,
      "velocity": 107,
      "chip": "ym2612"
    },
    {
      "channel": 5,
      "note": 93,
      "start": 7.6188,
      "duration": 0.2342,
      "velocity": 118,
      "chip": "ym2612"
    },
    {
      "channel": 3,
      "note": 88,
      "start": 7.7343,
      "duration": 0.1181,
      "velocity": 107,
      "chip": "ym2612"
    },
    {
      "channel": 0,
      "note": 79,
      "start": 7.8508,
      "duration": 1.1997,
      "velocity": 107,
      "chip": "ym2612"
    },
    {
      "channel": 1,
      "note": 72,
      "start": 7.8513,
      "duration": 0.4826,
      "velocity": 107,
      "chip": "ym2612"
    },
    {
      "channel": 2,
      "note": 55,
      "start": 7.8519,
      "duration": 0.3654,
      "velocity": 127,
      "chip": "ym2612"
    },
    {
      "channel": 3,
      "note": 84,
      "start": 7.8524,
      "duration": 0.2316,
      "velocity": 107,
      "chip": "ym2612"
    },
    {
      "channel": 5,
      "note": 93,
      "start": 7.8531,
      "duration": 0.1145,
      "velocity": 118,
      "chip": "ym2612"
    },
    {
      "channel": 5,
      "note": 93,
      "start": 7.9678,
      "duration": 0.3674,
      "velocity": 118,
      "chip": "ym2612"
    },
    {
      "channel": 3,
      "note": 79,
      "start": 8.0842,
      "duration": 1.2004,
      "velocity": 107,
      "chip": "ym2612"
    },
    {
      "channel": 2,
      "note": 55,
      "start": 8.2175,
      "duration": 0.1171,
      "velocity": 127,
      "chip": "ym2612"
    },
    {
      "channel": 1,
      "note": 72,
      "start": 8.3341,
      "duration": 2.1519,
      "velocity": 114,
      "chip": "ym2612"
    },
    {
      "channel": 2,
      "note": 57,
      "start": 8.3347,
      "duration": 0.2326,
      "velocity": 127,
      "chip": "ym2612"
    },
    {
      "channel": 5,
      "note": 93,
      "start": 8.3354,
      "duration": 0.2326,
      "velocity": 118,
      "chip": "ym2612"
    },
    {
      "channel": 2,
      "note": 59,
      "start": 8.5675,
      "duration": 0.1165,
      "velocity": 127,
      "chip": "ym2612"
    },
    {
      "channel": 5,
      "note": 93,
      "start": 8.5682,
      "duration": 0.1165,
      "velocity": 118,
      "chip": "ym2612"
    },
    {
      "channel": 2,
      "note": 60,
      "start": 8.6841,
      "duration": 0.7337,
      "velocity": 127,
      "chip": "ym2612"
    },
    {
      "channel": 5,
      "note": 93,
      "start": 8.6848,
      "duration": 0.3665,
      "velocity": 118,
      "chip": "ym2612"
    },
    {
      "channel": 0,
      "note": 91,
      "start": 9.0507,
      "duration": 0.2332,
      "velocity": 107,
      "chip": "ym2612"
    },
    {
      "channel": 5,
      "note": 93,
      "start": 9.0515,
      "duration": 0.2337,
      "velocity": 118,
      "chip": "ym2612"
    },
    {
      "channel": 0,
      "note": 87,
      "start": 9.2841,
      "duration": 0.1332,
      "velocity": 107,
      "chip": "ym2612"
    },
    {
      "channel": 3,
      "note": 91,
      "start": 9.2848,
      "duration": 0.2493,
      "velocity": 107,
      "chip": "ym2612"
    },
    {
      "channel": 5,
      "note": 93,
      "start": 9.2854,
      "duration": 0.1332,
      "velocity": 118,
      "chip": "ym2612"
    },
    {
      "channel": 0,
      "note": 84,
      "start": 9.4174,
      "duration": 0.2331,
      "velocity": 107,
      "chip": "ym2612"
    },
    {
      "channel": 2,
      "note": 55,
      "start": 9.418,
      "duration": 0.7165,
      "velocity": 127,
      "chip": "ym2612"
    },
    {
      "channel": 5,
      "note": 93,
      "start": 9.4188,
      "duration": 0.3488,
      "velocity": 118,
      "chip": "ym2612"
    },
    {
      "channel": 3,
      "note": 87,
      "start": 9.5343,
      "duration": 0.1169,
      "velocity": 107,
      "chip": "ym2612"
    },
    {
      "channel": 0,
      "note": 79,
      "start": 9.6507,
      "duration": 0.4832,
      "velocity": 107,
      "chip": "ym2612"
    },
    {
      "channel": 3,
      "note": 84,
      "start": 9.6514,
      "duration": 0.2326,
      "velocity": 107,
      "chip": "ym2612"
    },
    {
      "channel": 5,
      "note": 93,
      "start": 9.7677,
      "duration": 0.2498,
      "velocity": 118,
      "chip": "ym2612"
    },
    {
      "channel": 3,
      "note": 79,
      "start": 9.8842,
      "duration": 0.4837,
      "velocity": 107,
      "chip": "ym2612"
    },
    {
      "channel": 5,
      "note": 93,
      "start": 10.0177,
      "duration": 0.1176,
      "velocity": 118,
      "chip": "ym2612"
    },
    {
      "channel": 0,
      "note": 91,
      "start": 10.1341,
      "duration": 0.2331,
      "velocity": 107,
      "chip": "ym2612"
    },
    {
      "channel": 2,
      "note": 60,
      "start": 10.1346,
      "duration": 0.7166,
      "velocity": 127,
      "chip": "ym2612"
    },
    {
      "channel": 5,
      "note": 93,
      "start": 10.1354,
      "duration": 0.3515,
      "velocity": 118,
      "chip": "ym2612"
    },
    {
      "channel": 0,
      "note": 87,
      "start": 10.3673,
      "duration": 0.1165,
      "velocity": 107,
      "chip": "ym2612"
    },
    {
      "channel": 3,
      "note": 91,
      "start": 10.368,
      "duration": 0.2494,
      "velocity": 107,
      "chip": "ym2612"
    },
    {
      "channel": 0,
      "note": 84,
      "start": 10.4841,
      "duration": 0.2498,
      "velocity": 107,
      "chip": "ym2612"
    },
    {
      "channel": 1,
      "note": 67,
      "start": 10.4862,
      "duration": 0.2482,
      "velocity": 114,
      "chip": "ym2612"
    },
    {
      "channel": 5,
      "note": 93,
      "start": 10.487,
      "duration": 0.2487,
      "velocity": 118,
      "chip": "ym2612"
    },
    {
      "channel": 3,
      "note": 87,
      "start": 10.6176,
      "duration": 0.1175,
      "velocity": 107,
      "chip": "ym2612"
    },
    {
      "channel": 0,
      "note": 79,
      "start": 10.7341,
      "duration": 0.3498,
      "velocity": 107,
      "chip": "ym2612"
    },
    {
      "channel": 1,
      "note": 68,
      "start": 10.7346,
      "duration": 0.116,
      "velocity": 114,
      "chip": "ym2612"
    },
    {
      "channel": 3,
      "note": 84,
      "start": 10.7353,
      "duration": 0.2321,
      "velocity": 107,
      "chip": "ym2612"
    },
    {
      "channel": 5,
      "note": 93,
      "start": 10.7359,
      "duration": 0.116,
      "velocity": 118,
      "chip": "ym2612"
    },
    {
      "channel": 1,
      "note": 69,
      "start": 10.8509,
      "duration": 0.2336,
      "velocity": 114,
      "chip": "ym2612"
    },
    {
      "channel": 2,
      "note": 55,
      "start": 10.8515,
      "duration": 0.3669,
      "velocity": 127,
      "chip": "ym2612"
    },
    {
      "channel": 5,
      "note": 93,
      "start": 10.8521,
      "duration": 0.3669,
      "velocity": 118,
      "chip": "ym2612"
    },
    {
      "channel": 3,
      "note": 79,
      "start": 10.9676,
      "duration": 0.3665,
      "velocity": 107,
      "chip": "ym2612"
    },
    {
      "channel": 0,
      "note": 79,
      "start": 11.0841,
      "duration": 0.1332,
      "velocity": 107,
      "chip": "ym2612"
    },
    {
      "channel": 1,
      "note": 68,
      "start": 11.0846,
      "duration": 0.1331,
      "velocity": 114,
      "chip": "ym2612"
    },
    {
      "channel": 0,
      "note": 81,
      "start": 11.2174,
      "duration": 0.2332,
      "velocity": 107,
      "chip": "ym2612"
    },
    {
      "channel": 1,
      "note": 67,
      "start": 11.218,
      "duration": 0.35,
      "velocity": 114,
      "chip": "ym2612"
    },
    {
      "channel": 2,
      "note": 57,
      "start": 11.2185,
      "duration": 0.3501,
      "velocity": 127,
      "chip": "ym2612"
    },
    {
      "channel": 5,
      "note": 93,
      "start": 11.2193,
      "duration": 0.2327,
      "velocity": 118,
      "chip": "ym2612"
    },
    {
      "channel": 3,
      "note": 79,
      "start": 11.3343,
      "duration": 0.117,
      "velocity": 107,
      "chip": "ym2612"
    },
    {
      "channel": 0,
      "note": 82,
      "start": 11.4508,
      "duration": 0.1166,
      "velocity": 107,
      "chip": "ym2612"
    },
    {
      "channel": 3,
      "note": 81,
      "start": 11.4515,
      "duration": 0.3664,
      "velocity": 107,
      "chip": "ym2612"
    },
    {
      "channel": 5,
      "note": 93,
      "start": 11.4521,
      "duration": 0.1173,
      "velocity": 118,
      "chip": "ym2612"
    },
    {
      "channel": 0,
      "note": 83,
      "start": 11.5675,
      "duration": 0.3664,
      "velocity": 107,
      "chip": "ym2612"
    },
    {
      "channel": 1,
      "note": 71,
      "start": 11.5682,
      "duration": 0.249,
      "velocity": 114,
      "chip": "ym2612"
    },
    {
      "channel": 2,
      "note": 55,
      "start": 11.5688,
      "duration": 0.599,
      "velocity": 127,
      "chip": "ym2612"
    },
    {
      "channel": 5,
      "note": 93,
      "start": 11.5696,
      "duration": 0.3657,
      "velocity": 118,
      "chip": "ym2612"
    },
    {
      "channel": 1,
      "note": 67,
      "start": 11.8174,
      "duration": 0.1171,
      "velocity": 114,
      "chip": "ym2612"
    },
    {
      "channel": 3,
      "note": 83,
      "start": 11.8181,
      "duration": 0.3503,
      "velocity": 107,
      "chip": "ym2612"
    },
    {
      "channel": 0,
      "note": 84,
      "start": 11.9341,
      "duration": 0.3499,
      "velocity": 107,
      "chip": "ym2612"
    },
    {
      "channel": 1,
      "note": 64,
      "start": 11.9346,
      "duration": 0.2326,
      "velocity": 114,
      "chip": "ym2612"
    },
    {
      "channel": 5,
      "note": 93,
      "start": 11.9354,
      "duration": 0.2337,
      "velocity": 118,
      "chip": "ym2612"
    },
    {
      "channel": 1,
      "note": 62,
      "start": 12.1675,
      "duration": 0.4853,
      "velocity": 114,
      "chip": "ym2612"
    },
    {
      "channel": 2,
      "note": 55,
      "start": 12.168,
      "duration": 0.1165,
      "velocity": 127,
      "chip": "ym2612"
    },
    {
      "channel": 3,
      "note": 84,
      "start": 12.1686,
      "duration": 0.3654,
      "velocity": 107,
      "chip": "ym2612"
    },
    {
      "channel": 5,
      "note": 93,
      "start": 12.1693,
      "duration": 0.116,
      "velocity": 118,
      "chip": "ym2612"
    },
    {
      "channel": 0,
      "note": 85,
      "start": 12.2841,
      "duration": 0.3664,
      "velocity": 107,
      "chip": "ym2612"
    },
    {
      "channel": 2,
      "note": 57,
      "start": 12.2848,
      "duration": 0.5997,
      "velocity": 127,
      "chip": "ym2612"
    },
    {
      "channel": 5,
      "note": 93,
      "start": 12.2855,
      "duration": 0.3681,
      "velocity": 118,
      "chip": "ym2612"
    },
    {
      "channel": 3,
      "note": 85,
      "start": 12.5342,
      "duration": 0.3509,
      "velocity": 107,
      "chip": "ym2612"
    },
    {
      "channel": 0,
      "note": 86,
      "start": 12.6507,
      "duration": 0.3665,
      "velocity": 107,
      "chip": "ym2612"
    },
    {
      "channel": 1,
      "note": 70,
      "start": 12.6529,
      "duration": 0.231,
      "velocity": 114,
      "chip": "ym2612"
    },
    {
      "channel": 5,
      "note": 93,
      "start": 12.6537,
      "duration": 0.2321,
      "velocity": 118,
      "chip": "ym2612"
    },
    {
      "channel": 1,
      "note": 71,
      "start": 12.8841,
      "duration": 0.1337,
      "velocity": 114,
      "chip": "ym2612"
    },
    {
      "channel": 2,
      "note": 57,
      "start": 12.8847,
      "duration": 0.1337,
      "velocity": 127,
      "chip": "ym2612"
    },
    {
      "channel": 3,
      "note": 86,
      "start": 12.8853,
      "duration": 0.3665,
      "velocity": 107,
      "chip": "ym2612"
    },
    {
      "channel": 5,
      "note": 93,
      "start": 12.8859,
      "duration": 0.1332,
      "velocity": 118,
      "chip": "ym2612"
    },
    {
      "channel": 0,
      "note": 88,
      "start": 13.0175,
      "duration": 0.2331,
      "velocity": 107,
      "chip": "ym2612"
    },
    {
      "channel": 1,
      "note": 74,
      "start": 13.018,
      "duration": 0.2331,
      "velocity": 114,
      "chip": "ym2612"
    },
    {
      "channel": 2,
      "note": 59,
      "start": 13.0185,
      "duration": 0.3499,
      "velocity": 127,
      "chip": "ym2612"
    },
    {
      "channel": 5,
      "note": 93,
      "start": 13.0193,
      "duration": 0.3499,
      "velocity": 118,
      "chip": "ym2612"
    },
    {
      "channel": 0,
      "note": 91,
      "start": 13.2507,
      "duration": 0.1165,
      "velocity": 107,
      "chip": "ym2612"
    },
    {
      "channel": 1,
      "note": 76,
      "start": 13.2513,
      "duration": 0.1165,
      "velocity": 114,
      "chip": "ym2612"
    },
    {
      "channel": 3,
      "note": 88,
      "start": 13.2519,
      "duration": 0.2322,
      "velocity": 107,
      "chip": "ym2612"
    },
    {
      "channel": 0,
      "note": 88,
      "start": 13.3675,
      "duration": 0.2498,
      "velocity": 107,
      "chip": "ym2612"
    },
    {
      "channel": 1,
      "note": 74,
      "start": 13.368,
      "duration": 0.2498,
      "velocity": 114,
      "chip": "ym2612"
    },
    {
      "channel": 2,
      "note": 60,
      "start": 13.3685,
      "duration": 0.3655,
      "velocity": 127,
      "chip": "ym2612"
    },
    {
      "channel": 5,
      "note": 93,
      "start": 13.3693,
      "duration": 0.2498,
      "velocity": 118,
      "chip": "ym2612"
    },
    {
      "channel": 3,
      "note": 91,
      "start": 13.4843,
      "duration": 0.1341,
      "velocity": 107,
      "chip": "ym2612"
    },
    {
      "channel": 0,
      "note": 86,
      "start": 13.6174,
      "duration": 0.7165,
      "velocity": 107,
      "chip": "ym2612"
    },
    {
      "channel": 1,
      "note": 79,
      "start": 13.618,
      "duration": 5.5181,
      "velocity": 107,
      "chip": "ym2612"
    },
    {
      "channel": 3,
      "note": 88,
      "start": 13.6186,
      "duration": 0.2337,
      "velocity": 107,
      "chip": "ym2612"
    },
    {
      "channel": 5,
      "note": 93,
      "start": 13.6193,
      "duration": 0.1155,
      "velocity": 118,
      "chip": "ym2612"
    },
    {
      "channel": 2,
      "note": 61,
      "start": 13.7343,
      "duration": 0.3497,
      "velocity": 127,
      "chip": "ym2612"
    },
    {
      "channel": 5,
      "note": 93,
      "start": 13.735,
      "duration": 0.3497,
      "velocity": 118,
      "chip": "ym2612"
    },
    {
      "channel": 3,
      "note": 86,
      "start": 13.8525,
      "duration": 0.7149,
      "velocity": 107,
      "chip": "ym2612"
    },
    {
      "channel": 2,
      "note": 62,
      "start": 14.0841,
      "duration": 0.2513,
      "velocity": 127,
      "chip": "ym2612"
    },
    {
      "channel": 5,
      "note": 93,
      "start": 14.0848,
      "duration": 0.25,
      "velocity": 118,
      "chip": "ym2612"
    },
    {
      "channel": 0,
      "note": 86,
      "start": 14.3341,
      "duration": 0.1165,
      "velocity": 107,
      "chip": "ym2612"
    },
    {
      "channel": 5,
      "note": 93,
      "start": 14.335,
      "duration": 0.1169,
      "velocity": 118,
      "chip": "ym2612"
    },
    {
      "channel": 2,
      "note": 62,
      "start": 14.3354,
      "duration": 0.0148,
      "velocity": 127,
      "chip": "ym2612"
    },
    {
      "channel": 2,
      "note": 61,
      "start": 14.3502,
      "duration": 0.0167,
      "velocity": 127,
      "chip": "ym2612"
    },
    {
      "channel": 2,
      "note": 61,
      "start": 14.3669,
      "duration": 0.0167,
      "velocity": 127,
      "chip": "ym2612"
    },
    {
      "channel": 2,
      "note": 60,
      "start": 14.3836,
      "duration": 0.0333,
      "velocity": 127,
      "chip": "ym2612"
    },
    {
      "channel": 2,
      "note": 59,
      "start": 14.4169,
      "duration": 0.0167,
      "velocity": 127,
      "chip": "ym2612"
    },
    {
      "channel": 2,
      "note": 59,
      "start": 14.4336,
      "duration": 0.0176,
      "velocity": 127,
      "chip": "ym2612"
    },
    {
      "channel": 0,
      "note": 91,
      "start": 14.4507,
      "duration": 0.3665,
      "velocity": 107,
      "chip": "ym2612"
    },
    {
      "channel": 2,
      "note": 55,
      "start": 14.4514,
      "duration": 0.5993,
      "velocity": 127,
      "chip": "ym2612"
    },
    {
      "channel": 5,
      "note": 93,
      "start": 14.4521,
      "duration": 0.366,
      "velocity": 118,
      "chip": "ym2612"
    },
    {
      "channel": 3,
      "note": 86,
      "start": 14.5676,
      "duration": 0.1164,
      "velocity": 107,
      "chip": "ym2612"
    },
    {
      "channel": 3,
      "note": 91,
      "start": 14.6842,
      "duration": 0.3671,
      "velocity": 107,
      "chip": "ym2612"
    },
    {
      "channel": 0,
      "note": 88,
      "start": 14.8174,
      "duration": 0.3498,
      "velocity": 107,
      "chip": "ym2612"
    },
    {
      "channel": 5,
      "note": 93,
      "start": 14.8182,
      "duration": 0.2337,
      "velocity": 118,
      "chip": "ym2612"
    },
    {
      "channel": 2,
      "note": 55,
      "start": 15.0509,
      "duration": 0.117,
      "velocity": 127,
      "chip": "ym2612"
    },
    {
      "channel": 3,
      "note": 88,
      "start": 15.0515,
      "duration": 0.3659,
      "velocity": 107,
      "chip": "ym2612"
    },
    {
      "channel": 5,
      "note": 93,
      "start": 15.0521,
      "duration": 0.1165,
      "velocity": 118,
      "chip": "ym2612"
    },
    {
      "channel": 0,
      "note": 86,
      "start": 15.1674,
      "duration": 0.3665,
      "velocity": 107,
      "chip": "ym2612"
    },
    {
      "channel": 2,
      "note": 62,
      "start": 15.168,
      "duration": 0.5993,
      "velocity": 127,
      "chip": "ym2612"
    },
    {
      "channel": 5,
      "note": 93,
      "start": 15.1688,
      "duration": 0.366,
      "velocity": 118,
      "chip": "ym2612"
    },
    {
      "channel": 3,
      "note": 86,
      "start": 15.4175,
      "duration": 0.3504,
      "velocity": 107,
      "chip": "ym2612"
    },
    {
      "channel": 0,
      "note": 83,
      "start": 15.5341,
      "duration": 0.3498,
      "velocity": 107,
      "chip": "ym2612"
    },
    {
      "channel": 5,
      "note": 93,
      "start": 15.5348,
      "duration": 0.2337,
      "velocity": 118,
      "chip": "ym2612"
    },
    {
      "channel": 2,
      "note": 62,
      "start": 15.7675,
      "duration": 0.117,
      "velocity": 127,
      "chip": "ym2612"
    },
    {
      "channel": 3,
      "note": 83,
      "start": 15.7681,
      "duration": 0.367,
      "velocity": 107,
      "chip": "ym2612"
    },
    {
      "channel": 5,
      "note": 93,
      "start": 15.7688,
      "duration": 0.1165,
      "velocity": 118,
      "chip": "ym2612"
    },
    {
      "channel": 0,
      "note": 82,
      "start": 15.8841,
      "duration": 0.2498,
      "velocity": 107,
      "chip": "ym2612"
    },
    {
      "channel": 2,
      "note": 61,
      "start": 15.8847,
      "duration": 0.2498,
      "velocity": 127,
      "chip": "ym2612"
    },
    {
      "channel": 5,
      "note": 93,
      "start": 15.8854,
      "duration": 0.3655,
      "velocity": 118,
      "chip": "ym2612"
    },
    {
      "channel": 0,
      "note": 83,
      "start": 16.1341,
      "duration": 0.3498,
      "velocity": 107,
      "chip": "ym2612"
    },
    {
      "channel": 2,
      "note": 62,
      "start": 16.1346,
      "duration": 0.3499,
      "velocity": 127,
      "chip": "ym2612"
    },
    {
      "channel": 3,
      "note": 82,
      "start": 16.1352,
      "duration": 0.2321,
      "velocity": 107,
      "chip": "ym2612"
    },
    {
      "channel": 5,
      "note": 93,
      "start": 16.2511,
      "duration": 0.2341,
      "velocity": 118,
      "chip": "ym2612"
    },
    {
      "channel": 3,
      "note": 83,
      "start": 16.3675,
      "duration": 0.3666,
      "velocity": 107,
      "chip": "ym2612"
    },
    {
      "channel": 0,
      "note": 79,
      "start": 16.4841,
      "duration": 2.6499,
      "velocity": 107,
      "chip": "ym2612"
    },
    {
      "channel": 2,
      "note": 55,
      "start": 16.4847,
      "duration": 1.1993,
      "velocity": 127,
      "chip": "ym2612"
    },
    {
      "channel": 5,
      "note": 93,
      "start": 16.4854,
      "duration": 0.1321,
      "velocity": 118,
      "chip": "ym2612"
    },
    {
      "channel": 5,
      "note": 93,
      "start": 16.6177,
      "duration": 0.3497,
      "velocity": 118,
      "chip": "ym2612"
    },
    {
      "channel": 3,
      "note": 79,
      "start": 16.7342,
      "duration": 2.6343,
      "velocity": 107,
      "chip": "ym2612"
    },
    {
      "channel": 5,
      "note": 93,
      "start": 16.9677,
      "duration": 0.2498,
      "velocity": 118,
      "chip": "ym2612"
    },
    {
      "channel": 5,
      "note": 93,
      "start": 17.2177,
      "duration": 0.1165,
      "velocity": 118,
      "chip": "ym2612"
    },
    {
      "channel": 5,
      "note": 93,
      "start": 17.3343,
      "duration": 0.3504,
      "velocity": 118,
      "chip": "ym2612"
    },
    {
      "channel": 2,
      "note": 50,
      "start": 17.6842,
      "duration": 0.3664,
      "velocity": 127,
      "chip": "ym2612"
    },
    {
      "channel": 5,
      "note": 93,
      "start": 17.6849,
      "duration": 0.3665,
      "velocity": 118,
      "chip": "ym2612"
    },
    {
      "channel": 2,
      "note": 52,
      "start": 18.0508,
      "duration": 0.3665,
      "velocity": 127,
      "chip": "ym2612"
    },
    {
      "channel": 5,
      "note": 93,
      "start": 18.0515,
      "duration": 0.116,
      "velocity": 118,
      "chip": "ym2612"
    },
    {
      "channel": 5,
      "note": 93,
      "start": 18.1677,
      "duration": 0.1165,
      "velocity": 118,
      "chip": "ym2612"
    },
    {
      "channel": 5,
      "note": 93,
      "start": 18.2843,
      "duration": 0.1337,
      "velocity": 118,
      "chip": "ym2612"
    },
    {
      "channel": 2,
      "note": 54,
      "start": 18.4175,
      "duration": 0.3501,
      "velocity": 127,
      "chip": "ym2612"
    },
    {
      "channel": 5,
      "note": 93,
      "start": 18.4182,
      "duration": 0.2328,
      "velocity": 118,
      "chip": "ym2612"
    },
    {
      "channel": 5,
      "note": 93,
      "start": 18.6511,
      "duration": 0.1173,
      "velocity": 118,
      "chip": "ym2612"
    },
    {
      "channel": 2,
      "note": 55,
      "start": 18.7677,
      "duration": 0.7168,
      "velocity": 127,
      "chip": "ym2612"
    },
    {
      "channel": 5,
      "note": 93,
      "start": 18.7685,
      "duration": 0.3684,
      "velocity": 118,
      "chip": "ym2612"
    },
    {
      "channel": 0,
      "note": 83,
      "start": 19.1341,
      "duration": 0.1164,
      "velocity": 107,
      "chip": "ym2612"
    },
    {
      "channel": 1,
      "note": 55,
      "start": 19.1362,
      "duration": 0.2315,
      "velocity": 107,
      "chip": "ym2612"
    },
    {
      "channel": 5,
      "note": 93,
      "start": 19.137,
      "duration": 0.2321,
      "velocity": 118,
      "chip": "ym2612"
    },
    {
      "channel": 0,
      "note": 84,
      "start": 19.2507,
      "duration": 0.1165,
      "velocity": 107,
      "chip": "ym2612"
    },
    {
      "channel": 0,
      "note": 85,
      "start": 19.3674,
      "duration": 0.1165,
      "velocity": 107,
      "chip": "ym2612"
    },
    {
      "channel": 1,
      "note": 55,
      "start": 19.368,
      "duration": 0.4826,
      "velocity": 107,
      "chip": "ym2612"
    },
    {
      "channel": 3,
      "note": 83,
      "start": 19.3687,
      "duration": 0.1165,
      "velocity": 107,
      "chip": "ym2612"
    },
    {
      "channel": 5,
      "note": 93,
      "start": 19.3693,
      "duration": 0.1165,
      "velocity": 118,
      "chip": "ym2612"
    },
    {
      "channel": 0,
      "note": 88,
      "start": 19.4841,
      "duration": 0.2497,
      "velocity": 107,
      "chip": "ym2612"
    },
    {
      "channel": 2,
      "note": 50,
      "start": 19.4848,
      "duration": 0.7331,
      "velocity": 127,
      "chip": "ym2612"
    },
    {
      "channel": 3,
      "note": 84,
      "start": 19.4854,
      "duration": 0.1321,
      "velocity": 107,
      "chip": "ym2612"
    },
    {
      "channel": 5,
      "note": 93,
      "start": 19.486,
      "duration": 0.3654,
      "velocity": 118,
      "chip": "ym2612"
    },
    {
      "channel": 3,
      "note": 85,
      "start": 19.6176,
      "duration": 0.1169,
      "velocity": 107,
      "chip": "ym2612"
    },
    {
      "channel": 0,
      "note": 86,
      "start": 19.734,
      "duration": 0.3499,
      "velocity": 107,
      "chip": "ym2612"
    },
    {
      "channel": 3,
      "note": 88,
      "start": 19.7347,
      "duration": 0.2327,
      "velocity": 107,
      "chip": "ym2612"
    },
    {
      "channel": 1,
      "note": 67,
      "start": 19.8508,
      "duration": 0.717,
      "velocity": 107,
      "chip": "ym2612"
    },
    {
      "channel": 5,
      "note": 93,
      "start": 19.8516,
      "duration": 0.2332,
      "velocity": 118,
      "chip": "ym2612"
    },
    {
      "channel": 3,
      "note": 86,
      "start": 19.9676,
      "duration": 0.3665,
      "velocity": 107,
      "chip": "ym2612"
    },
    {
      "channel": 0,
      "note": 83,
      "start": 20.0841,
      "duration": 0.1331,
      "velocity": 107,
      "chip": "ym2612"
    },
    {
      "channel": 5,
      "note": 93,
      "start": 20.0849,
      "duration": 0.1337,
      "velocity": 118,
      "chip": "ym2612"
    },
    {
      "channel": 0,
      "note": 79,
      "start": 20.2174,
      "duration": 0.2331,
      "velocity": 107,
      "chip": "ym2612"
    },
    {
      "channel": 2,
      "note": 55,
      "start": 20.218,
      "duration": 0.6005,
      "velocity": 127,
      "chip": "ym2612"
    },
    {
      "channel": 5,
      "note": 93,
      "start": 20.2187,
      "duration": 0.3499,
      "velocity": 118,
      "chip": "ym2612"
    },
    {
      "channel": 3,
      "note": 83,
      "start": 20.3343,
      "duration": 0.1169,
      "velocity": 107,
      "chip": "ym2612"
    },
    {
      "channel": 0,
      "note": 76,
      "start": 20.4507,
      "duration": 0.1165,
      "velocity": 107,
      "chip": "ym2612"
    },
    {
      "channel": 3,
      "note": 79,
      "start": 20.4514,
      "duration": 0.2327,
      "velocity": 107,
      "chip": "ym2612"
    },
    {
      "channel": 0,
      "note": 75,
      "start": 20.5674,
      "duration": 0.2499,
      "velocity": 107,
      "chip": "ym2612"
    },
    {
      "channel": 1,
      "note": 55,
      "start": 20.568,
      "duration": 0.2499,
      "velocity": 107,
      "chip": "ym2612"
    },
    {
      "channel": 5,
      "note": 93,
      "start": 20.5688,
      "duration": 0.2509,
      "velocity": 118,
      "chip": "ym2612"
    },
    {
      "channel": 3,
      "note": 76,
      "start": 20.6843,
      "duration": 0.1347,
      "velocity": 107,
      "chip": "ym2612"
    },
    {
      "channel": 0,
      "note": 74,
      "start": 20.8175,
      "duration": 1.1968,
      "velocity": 107,
      "chip": "ym2612"
    },
    {
      "channel": 1,
      "note": 67,
      "start": 20.818,
      "duration": 0.4659,
      "velocity": 107,
      "chip": "ym2612"
    },
    {
      "channel": 2,
      "note": 50,
      "start": 20.8185,
      "duration": 0.3487,
      "velocity": 127,
      "chip": "ym2612"
    },
    {
      "channel": 3,
      "note": 75,
      "start": 20.8191,
      "duration": 0.2316,
      "velocity": 107,
      "chip": "ym2612"
    },
    {
      "channel": 5,
      "note": 93,
      "start": 20.8198,
      "duration": 0.1144,
      "velocity": 118,
      "chip": "ym2612"
    },
    {
      "channel": 5,
      "note": 93,
      "start": 20.9344,
      "duration": 0.3508,
      "velocity": 118,
      "chip": "ym2612"
    },
    {
      "channel": 3,
      "note": 74,
      "start": 21.0509,
      "duration": 0.9634,
      "velocity": 107,
      "chip": "ym2612"
    },
    {
      "channel": 2,
      "note": 50,
      "start": 21.1675,
      "duration": 0.1171,
      "velocity": 127,
      "chip": "ym2612"
    },
    {
      "channel": 1,
      "note": 67,
      "start": 21.2841,
      "duration": 0.7302,
      "velocity": 107,
      "chip": "ym2612"
    },
    {
      "channel": 2,
      "note": 52,
      "start": 21.2847,
      "duration": 0.2492,
      "velocity": 127,
      "chip": "ym2612"
    },
    {
      "channel": 5,
      "note": 93,
      "start": 21.2854,
      "duration": 0.2493,
      "velocity": 118,
      "chip": "ym2612"
    },
    {
      "channel": 2,
      "note": 54,
      "start": 21.5341,
      "duration": 0.1165,
      "velocity": 127,
      "chip": "ym2612"
    },
    {
      "channel": 5,
      "note": 93,
      "start": 21.5348,
      "duration": 0.1165,
      "velocity": 118,
      "chip": "ym2612"
    },
    {
      "channel": 2,
      "note": 55,
      "start": 21.6508,
      "duration": 0.3635,
      "velocity": 127,
      "chip": "ym2612"
    },
    {
      "channel": 5,
      "note": 93,
      "start": 21.6515,
      "duration": 0.3628,
      "velocity": 118,
      "chip": "ym2612"
    }
  ]
}