{
  "track_name": "12 - Start Sequence",
  "duration_sec": 85.278,
  "sample_rate": 44100,
  "note_count": 3009,
  "unique_pitches": 38,
  "pitch_range": 80,
  "avg_note_duration": 0.1529,
  "reconstruction_stats": {
    "notes_reconstructed": 3009,
    "keyon_events": 3009,
    "keyoff_events": 3004,
    "orphan_keyons": 5,
    "unique_pitches": 38,
    "pitch_range": 80,
    "avg_duration_sec": 0.1529
  },
  "metadata": {
    "source": "S\\Sub-Terrania\\12 - Start Sequence.vgz"
  },
  "notes": [
    {
      "channel": 0,
      "note": -1,
      "start": 0.0,
      "duration": 0.0,
      "velocity": 1,
      "chip": "ym2612"
    },
    {
      "channel": 0,
      "note": -1,
      "start": 0.0,
      "duration": 0.0,
      "velocity": 1,
      "chip": "ym2612"
    },
    {
      "channel": 0,
      "note": 84,
      "start": 0.0,
      "duration": 0.0819,
      "velocity": 102,
      "chip": "ym2612"
    },
    {
      "channel": 1,
      "note": -1,
      "start": 0.0,
      "duration": 0.0,
      "velocity": 1,
      "chip": "ym2612"
    },
    {
      "channel": 1,
      "note": -1,
      "start": 0.0,
      "duration": 0.0,
      "velocity": 1,
      "chip": "ym2612"
    },
    {
      "channel": 2,
      "note": -1,
      "start": 0.0,
      "duration": 0.0,
      "velocity": 1,
      "chip": "ym2612"
    },
    {
      "channel": 2,
      "note": -1,
      "start": 0.0,
      "duration": 0.0,
      "velocity": 1,
      "chip": "ym2612"
    },
    {
      "channel": 3,
      "note": -1,
      "start": 0.0,
      "duration": 0.0,
      "velocity": 1,
      "chip": "ym2612"
    },
    {
      "channel": 3,
      "note": -1,
      "start": 0.0,
      "duration": 0.0,
      "velocity": 1,
      "chip": "ym2612"
    },
    {
      "channel": 4,
      "note": -1,
      "start": 0.0,
      "duration": 0.0,
      "velocity": 1,
      "chip": "ym2612"
    },
    {
      "channel": 4,
      "note": -1,
      "start": 0.0,
      "duration": 0.0,
      "velocity": 1,
      "chip": "ym2612"
    },
    {
      "channel": 5,
      "note": -1,
      "start": 0.0,
      "duration": 0.0,
      "velocity": 1,
      "chip": "ym2612"
    },
    {
      "channel": 5,
      "note": -1,
      "start": 0.0,
      "duration": 0.0,
      "velocity": 1,
      "chip": "ym2612"
    },
    {
      "channel": 1,
      "note": 7,
      "start": 0.0011,
      "duration": 3.8385,
      "velocity": 1,
      "chip": "ym2612"
    },
    {
      "channel": 2,
      "note": 7,
      "start": 0.0023,
      "duration": 2.1163,
      "velocity": 1,
      "chip": "ym2612"
    },
    {
      "channel": 3,
      "note": 7,
      "start": 0.0035,
      "duration": 2.1163,
      "velocity": 1,
      "chip": "ym2612"
    },
    {
      "channel": 4,
      "note": 7,
      "start": 0.0048,
      "duration": 2.1158,
      "velocity": 1,
      "chip": "ym2612"
    },
    {
      "channel": 5,
      "note": 7,
      "start": 0.006,
      "duration": 2.1152,
      "velocity": 1,
      "chip": "ym2612"
    },
    {
      "channel": 0,
      "note": 84,
      "start": 0.1317,
      "duration": 0.0826,
      "velocity": 101,
      "chip": "ym2612"
    },
    {
      "channel": 0,
      "note": 84,
      "start": 0.2641,
      "duration": 0.0826,
      "velocity": 102,
      "chip": "ym2612"
    },
    {
      "channel": 0,
      "note": 84,
      "start": 0.3965,
      "duration": 0.0826,
      "velocity": 102,
      "chip": "ym2612"
    },
    {
      "channel": 0,
      "note": 84,
      "start": 0.5289,
      "duration": 0.0827,
      "velocity": 101,
      "chip": "ym2612"
    },
    {
      "channel": 0,
      "note": 84,
      "start": 0.6614,
      "duration": 0.0826,
      "velocity": 102,
      "chip": "ym2612"
    },
    {
      "channel": 0,
      "note": 84,
      "start": 0.7938,
      "duration": 0.0826,
      "velocity": 102,
      "chip": "ym2612"
    },
    {
      "channel": 0,
      "note": 84,
      "start": 0.9262,
      "duration": 0.0826,
      "velocity": 101,
      "chip": "ym2612"
    },
    {
      "channel": 0,
      "note": 84,
      "start": 1.0587,
      "duration": 0.0826,
      "velocity": 102,
      "chip": "ym2612"
    },
    {
      "channel": 0,
      "note": 84,
      "start": 1.191,
      "duration": 0.0827,
      "velocity": 101,
      "chip": "ym2612"
    },
    {
      "channel": 0,
      "note": 84,
      "start": 1.3235,
      "duration": 0.0826,
      "velocity": 102,
      "chip": "ym2612"
    },
    {
      "channel": 0,
      "note": 84,
      "start": 1.4559,
      "duration": 0.0826,
      "velocity": 102,
      "chip": "ym2612"
    },
    {
      "channel": 0,
      "note": 84,
      "start": 1.5883,
      "duration": 0.0827,
      "velocity": 101,
      "chip": "ym2612"
    },
    {
      "channel": 0,
      "note": 84,
      "start": 1.7208,
      "duration": 0.0826,
      "velocity": 102,
      "chip": "ym2612"
    },
    {
      "channel": 0,
      "note": 84,
      "start": 1.8532,
      "duration": 0.0826,
      "velocity": 102,
      "chip": "ym2612"
    },
    {
      "channel": 0,
      "note": 84,
      "start": 1.9856,
      "duration": 0.0826,
      "velocity": 101,
      "chip": "ym2612"
    },
    {
      "channel": 0,
      "note": 84,
      "start": 2.118,
      "duration": 0.0826,
      "velocity": 102,
      "chip": "ym2612"
    },
    {
      "channel": 2,
      "note": 53,
      "start": 2.1197,
      "duration": 0.0819,
      "velocity": 122,
      "chip": "ym2612"
    },
    {
      "channel": 3,
      "note": 7,
      "start": 2.1204,
      "duration": 2.1195,
      "velocity": 1,
      "chip": "ym2612"
    },
    {
      "channel": 4,
      "note": 7,
      "start": 2.121,
      "duration": 2.1202,
      "velocity": 1,
      "chip": "ym2612"
    },
    {
      "channel": 5,
      "note": 7,
      "start": 2.1216,
      "duration": 2.1202,
      "velocity": 1,
      "chip": "ym2612"
    },
    {
      "channel": 0,
      "note": 84,
      "start": 2.2505,
      "duration": 0.0826,
      "velocity": 101,
      "chip": "ym2612"
    },
    {
      "channel": 2,
      "note": 53,
      "start": 2.2515,
      "duration": 0.0824,
      "velocity": 122,
      "chip": "ym2612"
    },
    {
      "channel": 0,
      "note": 84,
      "start": 2.3828,
      "duration": 0.0826,
      "velocity": 102,
      "chip": "ym2612"
    },
    {
      "channel": 2,
      "note": 41,
      "start": 2.3839,
      "duration": 0.0825,
      "velocity": 120,
      "chip": "ym2612"
    },
    {
      "channel": 0,
      "note": 84,
      "start": 2.5153,
      "duration": 0.0826,
      "velocity": 102,
      "chip": "ym2612"
    },
    {
      "channel": 2,
      "note": 41,
      "start": 2.5163,
      "duration": 0.1319,
      "velocity": 119,
      "chip": "ym2612"
    },
    {
      "channel": 0,
      "note": 84,
      "start": 2.6476,
      "duration": 0.0826,
      "velocity": 101,
      "chip": "ym2612"
    },
    {
      "channel": 2,
      "note": 41,
      "start": 2.6488,
      "duration": 0.0824,
      "velocity": 118,
      "chip": "ym2612"
    },
    {
      "channel": 0,
      "note": 84,
      "start": 2.7801,
      "duration": 0.0826,
      "velocity": 102,
      "chip": "ym2612"
    },
    {
      "channel": 2,
      "note": 53,
      "start": 2.7812,
      "duration": 0.132,
      "velocity": 117,
      "chip": "ym2612"
    },
    {
      "channel": 0,
      "note": 84,
      "start": 2.9125,
      "duration": 0.0826,
      "velocity": 102,
      "chip": "ym2612"
    },
    {
      "channel": 2,
      "note": 41,
      "start": 2.9136,
      "duration": 0.0825,
      "velocity": 116,
      "chip": "ym2612"
    },
    {
      "channel": 0,
      "note": 84,
      "start": 3.0449,
      "duration": 0.0826,
      "velocity": 101,
      "chip": "ym2612"
    },
    {
      "channel": 2,
      "note": 53,
      "start": 3.0461,
      "duration": 0.1319,
      "velocity": 115,
      "chip": "ym2612"
    },
    {
      "channel": 0,
      "note": 84,
      "start": 3.1773,
      "duration": 0.0826,
      "velocity": 102,
      "chip": "ym2612"
    },
    {
      "channel": 2,
      "note": 41,
      "start": 3.1784,
      "duration": 0.0825,
      "velocity": 114,
      "chip": "ym2612"
    },
    {
      "channel": 0,
      "note": 84,
      "start": 3.3098,
      "duration": 0.0826,
      "velocity": 101,
      "chip": "ym2612"
    },
    {
      "channel": 2,
      "note": 41,
      "start": 3.3109,
      "duration": 0.0825,
      "velocity": 115,
      "chip": "ym2612"
    },
    {
      "channel": 0,
      "note": 84,
      "start": 3.4422,
      "duration": 0.0826,
      "velocity": 102,
      "chip": "ym2612"
    },
    {
      "channel": 2,
      "note": 41,
      "start": 3.4433,
      "duration": 0.0824,
      "velocity": 116,
      "chip": "ym2612"
    },
    {
      "channel": 0,
      "note": 84,
      "start": 3.5746,
      "duration": 0.0826,
      "velocity": 102,
      "chip": "ym2612"
    },
    {
      "channel": 2,
      "note": 53,
      "start": 3.5757,
      "duration": 0.0825,
      "velocity": 117,
      "chip": "ym2612"
    },
    {
      "channel": 0,
      "note": 84,
      "start": 3.7071,
      "duration": 0.0826,
      "velocity": 101,
      "chip": "ym2612"
    },
    {
      "channel": 2,
      "note": 53,
      "start": 3.7081,
      "duration": 0.0824,
      "velocity": 118,
      "chip": "ym2612"
    },
    {
      "channel": 0,
      "note": 84,
      "start": 3.8394,
      "duration": 0.0826,
      "velocity": 102,
      "chip": "ym2612"
    },
    {
      "channel": 1,
      "note": 22,
      "start": 3.8407,
      "duration": 0.1314,
      "velocity": 127,
      "chip": "ym2612"
    },
    {
      "channel": 2,
      "note": 41,
      "start": 3.8413,
      "duration": 0.0817,
      "velocity": 119,
      "chip": "ym2612"
    },
    {
      "channel": 0,
      "note": 84,
      "start": 3.9719,
      "duration": 0.0826,
      "velocity": 102,
      "chip": "ym2612"
    },
    {
      "channel": 1,
      "note": 22,
      "start": 3.9725,
      "duration": 0.132,
      "velocity": 127,
      "chip": "ym2612"
    },
    {
      "channel": 2,
      "note": 41,
      "start": 3.9732,
      "duration": 0.0824,
      "velocity": 120,
      "chip": "ym2612"
    },
    {
      "channel": 0,
      "note": 84,
      "start": 4.1043,
      "duration": 0.0826,
      "velocity": 101,
      "chip": "ym2612"
    },
    {
      "channel": 1,
      "note": 22,
      "start": 4.105,
      "duration": 0.1325,
      "velocity": 127,
      "chip": "ym2612"
    },
    {
      "channel": 2,
      "note": 53,
      "start": 4.1056,
      "duration": 0.0823,
      "velocity": 121,
      "chip": "ym2612"
    },
    {
      "channel": 0,
      "note": 33,
      "start": 4.2373,
      "duration": 0.1313,
      "velocity": 127,
      "chip": "ym2612"
    },
    {
      "channel": 1,
      "note": 29,
      "start": 4.2385,
      "duration": 0.1313,
      "velocity": 124,
      "chip": "ym2612"
    },
    {
      "channel": 2,
      "note": 51,
      "start": 4.2398,
      "duration": 0.1308,
      "velocity": 90,
      "chip": "ym2612"
    },
    {
      "channel": 3,
      "note": 84,
      "start": 4.241,
      "duration": 0.0798,
      "velocity": 102,
      "chip": "ym2612"
    },
    {
      "channel": 4,
      "note": 7,
      "start": 4.2416,
      "duration": 2.1165,
      "velocity": 1,
      "chip": "ym2612"
    },
    {
      "channel": 5,
      "note": 7,
      "start": 4.2422,
      "duration": 2.1165,
      "velocity": 1,
      "chip": "ym2612"
    },
    {
      "channel": 0,
      "note": 21,
      "start": 4.3697,
      "duration": 0.1314,
      "velocity": 120,
      "chip": "ym2612"
    },
    {
      "channel": 1,
      "note": 29,
      "start": 4.3704,
      "duration": 0.1313,
      "velocity": 110,
      "chip": "ym2612"
    },
    {
      "channel": 2,
      "note": 53,
      "start": 4.3711,
      "duration": 0.1312,
      "velocity": 89,
      "chip": "ym2612"
    },
    {
      "channel": 3,
      "note": 84,
      "start": 4.3717,
      "duration": 0.0815,
      "velocity": 101,
      "chip": "ym2612"
    },
    {
      "channel": 0,
      "note": 21,
      "start": 4.5015,
      "duration": 0.132,
      "velocity": 111,
      "chip": "ym2612"
    },
    {
      "channel": 1,
      "note": 29,
      "start": 4.5022,
      "duration": 0.1325,
      "velocity": 93,
      "chip": "ym2612"
    },
    {
      "channel": 2,
      "note": 41,
      "start": 4.5028,
      "duration": 0.1325,
      "velocity": 88,
      "chip": "ym2612"
    },
    {
      "channel": 3,
      "note": 84,
      "start": 4.5034,
      "duration": 0.0821,
      "velocity": 102,
      "chip": "ym2612"
    },
    {
      "channel": 0,
      "note": 33,
      "start": 4.6345,
      "duration": 0.1314,
      "velocity": 127,
      "chip": "ym2612"
    },
    {
      "channel": 1,
      "note": 29,
      "start": 4.6352,
      "duration": 0.1318,
      "velocity": 13,
      "chip": "ym2612"
    },
    {
      "channel": 2,
      "note": 41,
      "start": 4.6358,
      "duration": 0.132,
      "velocity": 87,
      "chip": "ym2612"
    },
    {
      "channel": 3,
      "note": 84,
      "start": 4.6364,
      "duration": 0.0816,
      "velocity": 102,
      "chip": "ym2612"
    },
    {
      "channel": 0,
      "note": 22,
      "start": 4.767,
      "duration": 0.2637,
      "velocity": 127,
      "chip": "ym2612"
    },
    {
      "channel": 1,
      "note": 29,
      "start": 4.7676,
      "duration": 0.1312,
      "velocity": 124,
      "chip": "ym2612"
    },
    {
      "channel": 2,
      "note": 53,
      "start": 4.7683,
      "duration": 0.1312,
      "velocity": 86,
      "chip": "ym2612"
    },
    {
      "channel": 3,
      "note": 84,
      "start": 4.7689,
      "duration": 0.0816,
      "velocity": 101,
      "chip": "ym2612"
    },
    {
      "channel": 1,
      "note": 29,
      "start": 4.8993,
      "duration": 0.1326,
      "velocity": 110,
      "chip": "ym2612"
    },
    {
      "channel": 2,
      "note": 41,
      "start": 4.8999,
      "duration": 0.1326,
      "velocity": 85,
      "chip": "ym2612"
    },
    {
      "channel": 3,
      "note": 84,
      "start": 4.9006,
      "duration": 0.0823,
      "velocity": 102,
      "chip": "ym2612"
    },
    {
      "channel": 0,
      "note": 33,
      "start": 5.0318,
      "duration": 0.1314,
      "velocity": 127,
      "chip": "ym2612"
    },
    {
      "channel": 1,
      "note": 29,
      "start": 5.0324,
      "duration": 0.1319,
      "velocity": 117,
      "chip": "ym2612"
    },
    {
      "channel": 2,
      "note": 44,
      "start": 5.0331,
      "duration": 0.1319,
      "velocity": 84,
      "chip": "ym2612"
    },
    {
      "channel": 3,
      "note": 84,
      "start": 5.0337,
      "duration": 0.0815,
      "velocity": 102,
      "chip": "ym2612"
    },
    {
      "channel": 0,
      "note": 22,
      "start": 5.1642,
      "duration": 0.1313,
      "velocity": 127,
      "chip": "ym2612"
    },
    {
      "channel": 1,
      "note": 29,
      "start": 5.1649,
      "duration": 0.132,
      "velocity": 13,
      "chip": "ym2612"
    },
    {
      "channel": 2,
      "note": 41,
      "start": 5.1655,
      "duration": 0.132,
      "velocity": 83,
      "chip": "ym2612"
    },
    {
      "channel": 3,
      "note": 84,
      "start": 5.1662,
      "duration": 0.0815,
      "velocity": 101,
      "chip": "ym2612"
    },
    {
      "channel": 0,
      "note": 21,
      "start": 5.2966,
      "duration": 0.1314,
      "velocity": 112,
      "chip": "ym2612"
    },
    {
      "channel": 1,
      "note": 29,
      "start": 5.2973,
      "duration": 0.132,
      "velocity": 124,
      "chip": "ym2612"
    },
    {
      "channel": 2,
      "note": 53,
      "start": 5.2979,
      "duration": 0.132,
      "velocity": 82,
      "chip": "ym2612"
    },
    {
      "channel": 3,
      "note": 84,
      "start": 5.2985,
      "duration": 0.0816,
      "velocity": 102,
      "chip": "ym2612"
    },
    {
      "channel": 0,
      "note": 33,
      "start": 5.4291,
      "duration": 0.1314,
      "velocity": 119,
      "chip": "ym2612"
    },
    {
      "channel": 1,
      "note": 29,
      "start": 5.4297,
      "duration": 0.1319,
      "velocity": 115,
      "chip": "ym2612"
    },
    {
      "channel": 2,
      "note": 41,
      "start": 5.4303,
      "duration": 0.1319,
      "velocity": 83,
      "chip": "ym2612"
    },
    {
      "channel": 3,
      "note": 84,
      "start": 5.431,
      "duration": 0.0816,
      "velocity": 101,
      "chip": "ym2612"
    },
    {
      "channel": 0,
      "note": 21,
      "start": 5.5615,
      "duration": 0.1314,
      "velocity": 112,
      "chip": "ym2612"
    },
    {
      "channel": 1,
      "note": 29,
      "start": 5.5622,
      "duration": 0.1313,
      "velocity": 13,
      "chip": "ym2612"
    },
    {
      "channel": 2,
      "note": 41,
      "start": 5.5628,
      "duration": 0.1313,
      "velocity": 84,
      "chip": "ym2612"
    },
    {
      "channel": 3,
      "note": 84,
      "start": 5.5634,
      "duration": 0.0815,
      "velocity": 102,
      "chip": "ym2612"
    },
    {
      "channel": 0,
      "note": 21,
      "start": 5.6933,
      "duration": 0.132,
      "velocity": 112,
      "chip": "ym2612"
    },
    {
      "channel": 1,
      "note": 29,
      "start": 5.6939,
      "duration": 0.1326,
      "velocity": 13,
      "chip": "ym2612"
    },
    {
      "channel": 2,
      "note": 53,
      "start": 5.6946,
      "duration": 0.1326,
      "velocity": 85,
      "chip": "ym2612"
    },
    {
      "channel": 3,
      "note": 84,
      "start": 5.6952,
      "duration": 0.0821,
      "velocity": 102,
      "chip": "ym2612"
    },
    {
      "channel": 0,
      "note": 22,
      "start": 5.8263,
      "duration": 0.1313,
      "velocity": 119,
      "chip": "ym2612"
    },
    {
      "channel": 1,
      "note": 29,
      "start": 5.827,
      "duration": 0.132,
      "velocity": 124,
      "chip": "ym2612"
    },
    {
      "channel": 2,
      "note": 41,
      "start": 5.8276,
      "duration": 0.1319,
      "velocity": 86,
      "chip": "ym2612"
    },
    {
      "channel": 3,
      "note": 84,
      "start": 5.8283,
      "duration": 0.0815,
      "velocity": 101,
      "chip": "ym2612"
    },
    {
      "channel": 0,
      "note": 30,
      "start": 5.9587,
      "duration": 0.1314,
      "velocity": 112,
      "chip": "ym2612"
    },
    {
      "channel": 1,
      "note": 29,
      "start": 5.9593,
      "duration": 0.1314,
      "velocity": 120,
      "chip": "ym2612"
    },
    {
      "channel": 2,
      "note": 53,
      "start": 5.96,
      "duration": 0.1314,
      "velocity": 87,
      "chip": "ym2612"
    },
    {
      "channel": 3,
      "note": 84,
      "start": 5.9606,
      "duration": 0.0816,
      "velocity": 102,
      "chip": "ym2612"
    },
    {
      "channel": 0,
      "note": 21,
      "start": 6.0906,
      "duration": 0.1319,
      "velocity": 112,
      "chip": "ym2612"
    },
    {
      "channel": 1,
      "note": 29,
      "start": 6.0912,
      "duration": 0.1319,
      "velocity": 93,
      "chip": "ym2612"
    },
    {
      "channel": 2,
      "note": 44,
      "start": 6.0919,
      "duration": 0.1319,
      "velocity": 88,
      "chip": "ym2612"
    },
    {
      "channel": 3,
      "note": 84,
      "start": 6.0925,
      "duration": 0.0821,
      "velocity": 102,
      "chip": "ym2612"
    },
    {
      "channel": 0,
      "note": 21,
      "start": 6.223,
      "duration": 0.1319,
      "velocity": 112,
      "chip": "ym2612"
    },
    {
      "channel": 1,
      "note": 29,
      "start": 6.2236,
      "duration": 0.1326,
      "velocity": 13,
      "chip": "ym2612"
    },
    {
      "channel": 2,
      "note": 41,
      "start": 6.2243,
      "duration": 0.1325,
      "velocity": 89,
      "chip": "ym2612"
    },
    {
      "channel": 3,
      "note": 84,
      "start": 6.2249,
      "duration": 0.0821,
      "velocity": 101,
      "chip": "ym2612"
    },
    {
      "channel": 0,
      "note": 22,
      "start": 6.356,
      "duration": 0.1314,
      "velocity": 127,
      "chip": "ym2612"
    },
    {
      "channel": 1,
      "note": 29,
      "start": 6.3566,
      "duration": 0.132,
      "velocity": 124,
      "chip": "ym2612"
    },
    {
      "channel": 2,
      "note": 51,
      "start": 6.3573,
      "duration": 0.0817,
      "velocity": 90,
      "chip": "ym2612"
    },
    {
      "channel": 3,
      "note": 84,
      "start": 6.3579,
      "duration": 0.0816,
      "velocity": 102,
      "chip": "ym2612"
    },
    {
      "channel": 4,
      "note": 7,
      "start": 6.3585,
      "duration": 2.1183,
      "velocity": 1,
      "chip": "ym2612"
    },
    {
      "channel": 5,
      "note": 7,
      "start": 6.3592,
      "duration": 2.1183,
      "velocity": 1,
      "chip": "ym2612"
    },
    {
      "channel": 0,
      "note": 21,
      "start": 6.4885,
      "duration": 0.1313,
      "velocity": 120,
      "chip": "ym2612"
    },
    {
      "channel": 1,
      "note": 29,
      "start": 6.4891,
      "duration": 0.1313,
      "velocity": 110,
      "chip": "ym2612"
    },
    {
      "channel": 2,
      "note": 53,
      "start": 6.4898,
      "duration": 0.0817,
      "velocity": 89,
      "chip": "ym2612"
    },
    {
      "channel": 3,
      "note": 84,
      "start": 6.4904,
      "duration": 0.0816,
      "velocity": 101,
      "chip": "ym2612"
    },
    {
      "channel": 0,
      "note": 21,
      "start": 6.6202,
      "duration": 0.1319,
      "velocity": 111,
      "chip": "ym2612"
    },
    {
      "channel": 1,
      "note": 29,
      "start": 6.6209,
      "duration": 0.1325,
      "velocity": 93,
      "chip": "ym2612"
    },
    {
      "channel": 2,
      "note": 41,
      "start": 6.6216,
      "duration": 0.1326,
      "velocity": 88,
      "chip": "ym2612"
    },
    {
      "channel": 3,
      "note": 84,
      "start": 6.6222,
      "duration": 0.0822,
      "velocity": 102,
      "chip": "ym2612"
    },
    {
      "channel": 0,
      "note": 33,
      "start": 6.7532,
      "duration": 0.1314,
      "velocity": 127,
      "chip": "ym2612"
    },
    {
      "channel": 1,
      "note": 29,
      "start": 6.7539,
      "duration": 0.1319,
      "velocity": 13,
      "chip": "ym2612"
    },
    {
      "channel": 2,
      "note": 41,
      "start": 6.7546,
      "duration": 0.1319,
      "velocity": 87,
      "chip": "ym2612"
    },
    {
      "channel": 3,
      "note": 84,
      "start": 6.7552,
      "duration": 0.0815,
      "velocity": 102,
      "chip": "ym2612"
    },
    {
      "channel": 0,
      "note": 22,
      "start": 6.8857,
      "duration": 0.1314,
      "velocity": 127,
      "chip": "ym2612"
    },
    {
      "channel": 1,
      "note": 29,
      "start": 6.8863,
      "duration": 0.1319,
      "velocity": 124,
      "chip": "ym2612"
    },
    {
      "channel": 2,
      "note": 44,
      "start": 6.887,
      "duration": 0.1319,
      "velocity": 86,
      "chip": "ym2612"
    },
    {
      "channel": 3,
      "note": 84,
      "start": 6.8877,
      "duration": 0.0815,
      "velocity": 101,
      "chip": "ym2612"
    },
    {
      "channel": 0,
      "note": 32,
      "start": 7.0181,
      "duration": 0.1314,
      "velocity": 120,
      "chip": "ym2612"
    },
    {
      "channel": 1,
      "note": 29,
      "start": 7.0188,
      "duration": 0.1319,
      "velocity": 110,
      "chip": "ym2612"
    },
    {
      "channel": 2,
      "note": 41,
      "start": 7.0194,
      "duration": 0.1319,
      "velocity": 85,
      "chip": "ym2612"
    },
    {
      "channel": 3,
      "note": 84,
      "start": 7.02,
      "duration": 0.0815,
      "velocity": 102,
      "chip": "ym2612"
    },
    {
      "channel": 0,
      "note": 33,
      "start": 7.1505,
      "duration": 0.1314,
      "velocity": 127,
      "chip": "ym2612"
    },
    {
      "channel": 1,
      "note": 29,
      "start": 7.1511,
      "duration": 0.132,
      "velocity": 117,
      "chip": "ym2612"
    },
    {
      "channel": 2,
      "note": 53,
      "start": 7.1518,
      "duration": 0.1319,
      "velocity": 84,
      "chip": "ym2612"
    },
    {
      "channel": 3,
      "note": 84,
      "start": 7.1524,
      "duration": 0.0815,
      "velocity": 102,
      "chip": "ym2612"
    },
    {
      "channel": 0,
      "note": 21,
      "start": 7.2829,
      "duration": 0.1314,
      "velocity": 120,
      "chip": "ym2612"
    },
    {
      "channel": 1,
      "note": 29,
      "start": 7.2836,
      "duration": 0.1314,
      "velocity": 13,
      "chip": "ym2612"
    },
    {
      "channel": 2,
      "note": 44,
      "start": 7.2842,
      "duration": 0.1314,
      "velocity": 83,
      "chip": "ym2612"
    },
    {
      "channel": 3,
      "note": 84,
      "start": 7.2849,
      "duration": 0.0816,
      "velocity": 101,
      "chip": "ym2612"
    },
    {
      "channel": 0,
      "note": 21,
      "start": 7.4148,
      "duration": 0.1319,
      "velocity": 112,
      "chip": "ym2612"
    },
    {
      "channel": 1,
      "note": 29,
      "start": 7.4154,
      "duration": 0.1326,
      "velocity": 124,
      "chip": "ym2612"
    },
    {
      "channel": 2,
      "note": 41,
      "start": 7.4161,
      "duration": 0.1325,
      "velocity": 82,
      "chip": "ym2612"
    },
    {
      "channel": 3,
      "note": 84,
      "start": 7.4167,
      "duration": 0.0821,
      "velocity": 102,
      "chip": "ym2612"
    },
    {
      "channel": 0,
      "note": 33,
      "start": 7.5478,
      "duration": 0.1314,
      "velocity": 119,
      "chip": "ym2612"
    },
    {
      "channel": 1,
      "note": 29,
      "start": 7.5484,
      "duration": 0.1319,
      "velocity": 115,
      "chip": "ym2612"
    },
    {
      "channel": 2,
      "note": 41,
      "start": 7.549,
      "duration": 0.1319,
      "velocity": 83,
      "chip": "ym2612"
    },
    {
      "channel": 3,
      "note": 84,
      "start": 7.5497,
      "duration": 0.0815,
      "velocity": 101,
      "chip": "ym2612"
    },
    {
      "channel": 0,
      "note": 21,
      "start": 7.6802,
      "duration": 0.1314,
      "velocity": 112,
      "chip": "ym2612"
    },
    {
      "channel": 1,
      "note": 29,
      "start": 7.6809,
      "duration": 0.1314,
      "velocity": 13,
      "chip": "ym2612"
    },
    {
      "channel": 2,
      "note": 44,
      "start": 7.6815,
      "duration": 0.1314,
      "velocity": 84,
      "chip": "ym2612"
    },
    {
      "channel": 3,
      "note": 84,
      "start": 7.6821,
      "duration": 0.0815,
      "velocity": 102,
      "chip": "ym2612"
    },
    {
      "channel": 0,
      "note": 21,
      "start": 7.812,
      "duration": 0.1319,
      "velocity": 112,
      "chip": "ym2612"
    },
    {
      "channel": 1,
      "note": 29,
      "start": 7.8127,
      "duration": 0.1326,
      "velocity": 13,
      "chip": "ym2612"
    },
    {
      "channel": 2,
      "note": 41,
      "start": 7.8134,
      "duration": 0.1325,
      "velocity": 85,
      "chip": "ym2612"
    },
    {
      "channel": 3,
      "note": 84,
      "start": 7.814,
      "duration": 0.0821,
      "velocity": 102,
      "chip": "ym2612"
    },
    {
      "channel": 0,
      "note": 22,
      "start": 7.945,
      "duration": 0.2637,
      "velocity": 119,
      "chip": "ym2612"
    },
    {
      "channel": 1,
      "note": 29,
      "start": 7.9457,
      "duration": 0.1312,
      "velocity": 124,
      "chip": "ym2612"
    },
    {
      "channel": 2,
      "note": 44,
      "start": 7.9464,
      "duration": 0.1312,
      "velocity": 86,
      "chip": "ym2612"
    },
    {
      "channel": 3,
      "note": 84,
      "start": 7.947,
      "duration": 0.0815,
      "velocity": 101,
      "chip": "ym2612"
    },
    {
      "channel": 1,
      "note": 29,
      "start": 8.0773,
      "duration": 0.1327,
      "velocity": 120,
      "chip": "ym2612"
    },
    {
      "channel": 2,
      "note": 53,
      "start": 8.078,
      "duration": 0.1327,
      "velocity": 87,
      "chip": "ym2612"
    },
    {
      "channel": 3,
      "note": 84,
      "start": 8.0786,
      "duration": 0.0823,
      "velocity": 102,
      "chip": "ym2612"
    },
    {
      "channel": 0,
      "note": 21,
      "start": 8.2099,
      "duration": 0.1314,
      "velocity": 112,
      "chip": "ym2612"
    },
    {
      "channel": 1,
      "note": 29,
      "start": 8.2105,
      "duration": 0.132,
      "velocity": 93,
      "chip": "ym2612"
    },
    {
      "channel": 2,
      "note": 41,
      "start": 8.2111,
      "duration": 0.132,
      "velocity": 88,
      "chip": "ym2612"
    },
    {
      "channel": 3,
      "note": 84,
      "start": 8.2118,
      "duration": 0.0815,
      "velocity": 102,
      "chip": "ym2612"
    },
    {
      "channel": 0,
      "note": 22,
      "start": 8.3423,
      "duration": 0.1314,
      "velocity": 119,
      "chip": "ym2612"
    },
    {
      "channel": 1,
      "note": 29,
      "start": 8.3429,
      "duration": 0.1319,
      "velocity": 13,
      "chip": "ym2612"
    },
    {
      "channel": 2,
      "note": 44,
      "start": 8.3436,
      "duration": 0.1319,
      "velocity": 89,
      "chip": "ym2612"
    },
    {
      "channel": 3,
      "note": 84,
      "start": 8.3442,
      "duration": 0.0815,
      "velocity": 101,
      "chip": "ym2612"
    },
    {
      "channel": 0,
      "note": 33,
      "start": 8.4747,
      "duration": 0.1313,
      "velocity": 127,
      "chip": "ym2612"
    },
    {
      "channel": 1,
      "note": 29,
      "start": 8.4754,
      "duration": 0.132,
      "velocity": 124,
      "chip": "ym2612"
    },
    {
      "channel": 2,
      "note": 51,
      "start": 8.476,
      "duration": 0.132,
      "velocity": 90,
      "chip": "ym2612"
    },
    {
      "channel": 3,
      "note": 84,
      "start": 8.4766,
      "duration": 0.0816,
      "velocity": 102,
      "chip": "ym2612"
    },
    {
      "channel": 4,
      "note": 7,
      "start": 8.4773,
      "duration": 2.1182,
      "velocity": 1,
      "chip": "ym2612"
    },
    {
      "channel": 5,
      "note": 7,
      "start": 8.4779,
      "duration": 2.1182,
      "velocity": 1,
      "chip": "ym2612"
    },
    {
      "channel": 0,
      "note": 21,
      "start": 8.6071,
      "duration": 0.1314,
      "velocity": 120,
      "chip": "ym2612"
    },
    {
      "channel": 1,
      "note": 29,
      "start": 8.6078,
      "duration": 0.1314,
      "velocity": 110,
      "chip": "ym2612"
    },
    {
      "channel": 2,
      "note": 53,
      "start": 8.6084,
      "duration": 0.1314,
      "velocity": 89,
      "chip": "ym2612"
    },
    {
      "channel": 3,
      "note": 84,
      "start": 8.609,
      "duration": 0.0816,
      "velocity": 101,
      "chip": "ym2612"
    },
    {
      "channel": 0,
      "note": 21,
      "start": 8.739,
      "duration": 0.1319,
      "velocity": 111,
      "chip": "ym2612"
    },
    {
      "channel": 1,
      "note": 29,
      "start": 8.7396,
      "duration": 0.1326,
      "velocity": 93,
      "chip": "ym2612"
    },
    {
      "channel": 2,
      "note": 41,
      "start": 8.7403,
      "duration": 0.1326,
      "velocity": 88,
      "chip": "ym2612"
    },
    {
      "channel": 3,
      "note": 84,
      "start": 8.7409,
      "duration": 0.0821,
      "velocity": 102,
      "chip": "ym2612"
    },
    {
      "channel": 0,
      "note": 33,
      "start": 8.872,
      "duration": 0.1313,
      "velocity": 127,
      "chip": "ym2612"
    },
    {
      "channel": 1,
      "note": 29,
      "start": 8.8727,
      "duration": 0.132,
      "velocity": 13,
      "chip": "ym2612"
    },
    {
      "channel": 2,
      "note": 41,
      "start": 8.8733,
      "duration": 0.132,
      "velocity": 87,
      "chip": "ym2612"
    },
    {
      "channel": 3,
      "note": 84,
      "start": 8.8739,
      "duration": 0.0815,
      "velocity": 102,
      "chip": "ym2612"
    },
    {
      "channel": 0,
      "note": 22,
      "start": 9.0044,
      "duration": 0.2637,
      "velocity": 127,
      "chip": "ym2612"
    },
    {
      "channel": 1,
      "note": 29,
      "start": 9.0051,
      "duration": 0.1312,
      "velocity": 124,
      "chip": "ym2612"
    },
    {
      "channel": 2,
      "note": 53,
      "start": 9.0057,
      "duration": 0.1312,
      "velocity": 86,
      "chip": "ym2612"
    },
    {
      "channel": 3,
      "note": 84,
      "start": 9.0064,
      "duration": 0.0815,
      "velocity": 101,
      "chip": "ym2612"
    },
    {
      "channel": 1,
      "note": 29,
      "start": 9.1367,
      "duration": 0.1327,
      "velocity": 110,
      "chip": "ym2612"
    },
    {
      "channel": 2,
      "note": 41,
      "start": 9.1374,
      "duration": 0.1326,
      "velocity": 85,
      "chip": "ym2612"
    },
    {
      "channel": 3,
      "note": 84,
      "start": 9.138,
      "duration": 0.0822,
      "velocity": 102,
      "chip": "ym2612"
    },
    {
      "channel": 0,
      "note": 33,
      "start": 9.2692,
      "duration": 0.1314,
      "velocity": 127,
      "chip": "ym2612"
    },
    {
      "channel": 1,
      "note": 29,
      "start": 9.2699,
      "duration": 0.1319,
      "velocity": 117,
      "chip": "ym2612"
    },
    {
      "channel": 2,
      "note": 44,
      "start": 9.2705,
      "duration": 0.1319,
      "velocity": 84,
      "chip": "ym2612"
    },
    {
      "channel": 3,
      "note": 84,
      "start": 9.2712,
      "duration": 0.0815,
      "velocity": 102,
      "chip": "ym2612"
    },
    {
      "channel": 0,
      "note": 22,
      "start": 9.4017,
      "duration": 0.1314,
      "velocity": 127,
      "chip": "ym2612"
    },
    {
      "channel": 1,
      "note": 29,
      "start": 9.4023,
      "duration": 0.1319,
      "velocity": 13,
      "chip": "ym2612"
    },
    {
      "channel": 2,
      "note": 41,
      "start": 9.403,
      "duration": 0.1319,
      "velocity": 83,
      "chip": "ym2612"
    },
    {
      "channel": 3,
      "note": 84,
      "start": 9.4036,
      "duration": 0.0815,
      "velocity": 101,
      "chip": "ym2612"
    },
    {
      "channel": 0,
      "note": 21,
      "start": 9.5341,
      "duration": 0.1313,
      "velocity": 112,
      "chip": "ym2612"
    },
    {
      "channel": 1,
      "note": 29,
      "start": 9.5347,
      "duration": 0.1319,
      "velocity": 124,
      "chip": "ym2612"
    },
    {
      "channel": 2,
      "note": 53,
      "start": 9.5354,
      "duration": 0.1319,
      "velocity": 82,
      "chip": "ym2612"
    },
    {
      "channel": 3,
      "note": 84,
      "start": 9.536,
      "duration": 0.0815,
      "velocity": 102,
      "chip": "ym2612"
    },
    {
      "channel": 0,
      "note": 33,
      "start": 9.6665,
      "duration": 0.1314,
      "velocity": 119,
      "chip": "ym2612"
    },
    {
      "channel": 1,
      "note": 29,
      "start": 9.6672,
      "duration": 0.1319,
      "velocity": 115,
      "chip": "ym2612"
    },
    {
      "channel": 2,
      "note": 41,
      "start": 9.6678,
      "duration": 0.1319,
      "velocity": 83,
      "chip": "ym2612"
    },
    {
      "channel": 3,
      "note": 84,
      "start": 9.6685,
      "duration": 0.0815,
      "velocity": 101,
      "chip": "ym2612"
    },
    {
      "channel": 0,
      "note": 21,
      "start": 9.7989,
      "duration": 0.1314,
      "velocity": 112,
      "chip": "ym2612"
    },
    {
      "channel": 1,
      "note": 29,
      "start": 9.7995,
      "duration": 0.1314,
      "velocity": 13,
      "chip": "ym2612"
    },
    {
      "channel": 2,
      "note": 41,
      "start": 9.8002,
      "duration": 0.1314,
      "velocity": 84,
      "chip": "ym2612"
    },
    {
      "channel": 3,
      "note": 84,
      "start": 9.8008,
      "duration": 0.0816,
      "velocity": 102,
      "chip": "ym2612"
    },
    {
      "channel": 0,
      "note": 21,
      "start": 9.9307,
      "duration": 0.1319,
      "velocity": 112,
      "chip": "ym2612"
    },
    {
      "channel": 1,
      "note": 29,
      "start": 9.9314,
      "duration": 0.1326,
      "velocity": 13,
      "chip": "ym2612"
    },
    {
      "channel": 2,
      "note": 53,
      "start": 9.9321,
      "duration": 0.1325,
      "velocity": 85,
      "chip": "ym2612"
    },
    {
      "channel": 3,
      "note": 84,
      "start": 9.9327,
      "duration": 0.0821,
      "velocity": 102,
      "chip": "ym2612"
    },
    {
      "channel": 0,
      "note": 22,
      "start": 10.0637,
      "duration": 0.1314,
      "velocity": 119,
      "chip": "ym2612"
    },
    {
      "channel": 1,
      "note": 29,
      "start": 10.0644,
      "duration": 0.1319,
      "velocity": 124,
      "chip": "ym2612"
    },
    {
      "channel": 2,
      "note": 41,
      "start": 10.0651,
      "duration": 0.1319,
      "velocity": 86,
      "chip": "ym2612"
    },
    {
      "channel": 3,
      "note": 84,
      "start": 10.0657,
      "duration": 0.0815,
      "velocity": 101,
      "chip": "ym2612"
    },
    {
      "channel": 0,
      "note": 30,
      "start": 10.1962,
      "duration": 0.1314,
      "velocity": 112,
      "chip": "ym2612"
    },
    {
      "channel": 1,
      "note": 29,
      "start": 10.1968,
      "duration": 0.1314,
      "velocity": 120,
      "chip": "ym2612"
    },
    {
      "channel": 2,
      "note": 53,
      "start": 10.1975,
      "duration": 0.1314,
      "velocity": 87,
      "chip": "ym2612"
    },
    {
      "channel": 3,
      "note": 84,
      "start": 10.1981,
      "duration": 0.0815,
      "velocity": 102,
      "chip": "ym2612"
    },
    {
      "channel": 0,
      "note": 21,
      "start": 10.328,
      "duration": 0.132,
      "velocity": 112,
      "chip": "ym2612"
    },
    {
      "channel": 1,
      "note": 29,
      "start": 10.3286,
      "duration": 0.132,
      "velocity": 93,
      "chip": "ym2612"
    },
    {
      "channel": 2,
      "note": 44,
      "start": 10.3293,
      "duration": 0.1319,
      "velocity": 88,
      "chip": "ym2612"
    },
    {
      "channel": 3,
      "note": 84,
      "start": 10.33,
      "duration": 0.0821,
      "velocity": 102,
      "chip": "ym2612"
    },
    {
      "channel": 0,
      "note": 21,
      "start": 10.4604,
      "duration": 0.1319,
      "velocity": 112,
      "chip": "ym2612"
    },
    {
      "channel": 1,
      "note": 29,
      "start": 10.4611,
      "duration": 0.1325,
      "velocity": 13,
      "chip": "ym2612"
    },
    {
      "channel": 2,
      "note": 41,
      "start": 10.4617,
      "duration": 0.1325,
      "velocity": 89,
      "chip": "ym2612"
    },
    {
      "channel": 3,
      "note": 84,
      "start": 10.4623,
      "duration": 0.0821,
      "velocity": 101,
      "chip": "ym2612"
    },
    {
      "channel": 0,
      "note": 22,
      "start": 10.5934,
      "duration": 0.1314,
      "velocity": 127,
      "chip": "ym2612"
    },
    {
      "channel": 1,
      "note": 29,
      "start": 10.5941,
      "duration": 0.1319,
      "velocity": 124,
      "chip": "ym2612"
    },
    {
      "channel": 2,
      "note": 51,
      "start": 10.5947,
      "duration": 0.0817,
      "velocity": 90,
      "chip": "ym2612"
    },
    {
      "channel": 3,
      "note": 84,
      "start": 10.5954,
      "duration": 0.0816,
      "velocity": 102,
      "chip": "ym2612"
    },
    {
      "channel": 4,
      "note": 7,
      "start": 10.596,
      "duration": 2.1188,
      "velocity": 1,
      "chip": "ym2612"
    },
    {
      "channel": 5,
      "note": 7,
      "start": 10.5966,
      "duration": 2.1195,
      "velocity": 1,
      "chip": "ym2612"
    },
    {
      "channel": 0,
      "note": 21,
      "start": 10.7258,
      "duration": 0.1314,
      "velocity": 120,
      "chip": "ym2612"
    },
    {
      "channel": 1,
      "note": 29,
      "start": 10.7265,
      "duration": 0.1313,
      "velocity": 110,
      "chip": "ym2612"
    },
    {
      "channel": 2,
      "note": 53,
      "start": 10.7272,
      "duration": 0.0817,
      "velocity": 89,
      "chip": "ym2612"
    },
    {
      "channel": 3,
      "note": 84,
      "start": 10.7278,
      "duration": 0.0815,
      "velocity": 101,
      "chip": "ym2612"
    },
    {
      "channel": 0,
      "note": 21,
      "start": 10.8577,
      "duration": 0.132,
      "velocity": 111,
      "chip": "ym2612"
    },
    {
      "channel": 1,
      "note": 29,
      "start": 10.8583,
      "duration": 0.1325,
      "velocity": 93,
      "chip": "ym2612"
    },
    {
      "channel": 2,
      "note": 41,
      "start": 10.859,
      "duration": 0.1325,
      "velocity": 88,
      "chip": "ym2612"
    },
    {
      "channel": 3,
      "note": 84,
      "start": 10.8596,
      "duration": 0.0821,
      "velocity": 102,
      "chip": "ym2612"
    },
    {
      "channel": 0,
      "note": 33,
      "start": 10.9907,
      "duration": 0.1314,
      "velocity": 127,
      "chip": "ym2612"
    },
    {
      "channel": 1,
      "note": 29,
      "start": 10.9913,
      "duration": 0.132,
      "velocity": 13,
      "chip": "ym2612"
    },
    {
      "channel": 2,
      "note": 41,
      "start": 10.992,
      "duration": 0.1319,
      "velocity": 87,
      "chip": "ym2612"
    },
    {
      "channel": 3,
      "note": 84,
      "start": 10.9926,
      "duration": 0.0815,
      "velocity": 102,
      "chip": "ym2612"
    },
    {
      "channel": 0,
      "note": 22,
      "start": 11.1232,
      "duration": 0.1313,
      "velocity": 127,
      "chip": "ym2612"
    },
    {
      "channel": 1,
      "note": 29,
      "start": 11.1238,
      "duration": 0.1319,
      "velocity": 124,
      "chip": "ym2612"
    },
    {
      "channel": 2,
      "note": 44,
      "start": 11.1244,
      "duration": 0.132,
      "velocity": 86,
      "chip": "ym2612"
    },
    {
      "channel": 3,
      "note": 84,
      "start": 11.1251,
      "duration": 0.0815,
      "velocity": 101,
      "chip": "ym2612"
    },
    {
      "channel": 0,
      "note": 32,
      "start": 11.2555,
      "duration": 0.1314,
      "velocity": 120,
      "chip": "ym2612"
    },
    {
      "channel": 1,
      "note": 29,
      "start": 11.2562,
      "duration": 0.132,
      "velocity": 110,
      "chip": "ym2612"
    },
    {
      "channel": 2,
      "note": 41,
      "start": 11.2568,
      "duration": 0.132,
      "velocity": 85,
      "chip": "ym2612"
    },
    {
      "channel": 3,
      "note": 84,
      "start": 11.2574,
      "duration": 0.0816,
      "velocity": 102,
      "chip": "ym2612"
    },
    {
      "channel": 0,
      "note": 33,
      "start": 11.388,
      "duration": 0.1314,
      "velocity": 127,
      "chip": "ym2612"
    },
    {
      "channel": 1,
      "note": 29,
      "start": 11.3887,
      "duration": 0.1319,
      "velocity": 117,
      "chip": "ym2612"
    },
    {
      "channel": 2,
      "note": 53,
      "start": 11.3893,
      "duration": 0.1319,
      "velocity": 84,
      "chip": "ym2612"
    },
    {
      "channel": 3,
      "note": 84,
      "start": 11.39,
      "duration": 0.0815,
      "velocity": 102,
      "chip": "ym2612"
    },
    {
      "channel": 0,
      "note": 21,
      "start": 11.5204,
      "duration": 0.1314,
      "velocity": 120,
      "chip": "ym2612"
    },
    {
      "channel": 1,
      "note": 29,
      "start": 11.5211,
      "duration": 0.1313,
      "velocity": 13,
      "chip": "ym2612"
    },
    {
      "channel": 2,
      "note": 44,
      "start": 11.5217,
      "duration": 0.1313,
      "velocity": 83,
      "chip": "ym2612"
    },
    {
      "channel": 3,
      "note": 84,
      "start": 11.5223,
      "duration": 0.0815,
      "velocity": 101,
      "chip": "ym2612"
    },
    {
      "channel": 0,
      "note": 21,
      "start": 11.6522,
      "duration": 0.1319,
      "velocity": 112,
      "chip": "ym2612"
    },
    {
      "channel": 1,
      "note": 29,
      "start": 11.6529,
      "duration": 0.1325,
      "velocity": 124,
      "chip": "ym2612"
    },
    {
      "channel": 2,
      "note": 41,
      "start": 11.6535,
      "duration": 0.1325,
      "velocity": 82,
      "chip": "ym2612"
    },
    {
      "channel": 3,
      "note": 84,
      "start": 11.6541,
      "duration": 0.0821,
      "velocity": 102,
      "chip": "ym2612"
    },
    {
      "channel": 0,
      "note": 33,
      "start": 11.7852,
      "duration": 0.1313,
      "velocity": 119,
      "chip": "ym2612"
    },
    {
      "channel": 1,
      "note": 29,
      "start": 11.7859,
      "duration": 0.1319,
      "velocity": 115,
      "chip": "ym2612"
    },
    {
      "channel": 2,
      "note": 41,
      "start": 11.7865,
      "duration": 0.132,
      "velocity": 83,
      "chip": "ym2612"
    },
    {
      "channel": 3,
      "note": 84,
      "start": 11.7871,
      "duration": 0.0816,
      "velocity": 101,
      "chip": "ym2612"
    },
    {
      "channel": 0,
      "note": 21,
      "start": 11.9176,
      "duration": 0.1314,
      "velocity": 112,
      "chip": "ym2612"
    },
    {
      "channel": 1,
      "note": 29,
      "start": 11.9183,
      "duration": 0.1314,
      "velocity": 13,
      "chip": "ym2612"
    },
    {
      "channel": 2,
      "note": 44,
      "start": 11.9189,
      "duration": 0.1314,
      "velocity": 84,
      "chip": "ym2612"
    },
    {
      "channel": 3,
      "note": 84,
      "start": 11.9195,
      "duration": 0.0816,
      "velocity": 102,
      "chip": "ym2612"
    },
    {
      "channel": 0,
      "note": 21,
      "start": 12.0495,
      "duration": 0.1319,
      "velocity": 112,
      "chip": "ym2612"
    },
    {
      "channel": 1,
      "note": 29,
      "start": 12.0501,
      "duration": 0.1326,
      "velocity": 13,
      "chip": "ym2612"
    },
    {
      "channel": 2,
      "note": 41,
      "start": 12.0508,
      "duration": 0.1326,
      "velocity": 85,
      "chip": "ym2612"
    },
    {
      "channel": 3,
      "note": 84,
      "start": 12.0514,
      "duration": 0.0821,
      "velocity": 102,
      "chip": "ym2612"
    },
    {
      "channel": 0,
      "note": 22,
      "start": 12.1825,
      "duration": 0.2637,
      "velocity": 119,
      "chip": "ym2612"
    },
    {
      "channel": 1,
      "note": 29,
      "start": 12.1832,
      "duration": 0.1312,
      "velocity": 124,
      "chip": "ym2612"
    },
    {
      "channel": 2,
      "note": 44,
      "start": 12.1838,
      "duration": 0.1312,
      "velocity": 86,
      "chip": "ym2612"
    },
    {
      "channel": 3,
      "note": 84,
      "start": 12.1844,
      "duration": 0.0815,
      "velocity": 101,
      "chip": "ym2612"
    },
    {
      "channel": 1,
      "note": 29,
      "start": 12.3148,
      "duration": 0.1326,
      "velocity": 120,
      "chip": "ym2612"
    },
    {
      "channel": 2,
      "note": 53,
      "start": 12.3155,
      "duration": 0.1326,
      "velocity": 87,
      "chip": "ym2612"
    },
    {
      "channel": 3,
      "note": 84,
      "start": 12.3161,
      "duration": 0.0822,
      "velocity": 102,
      "chip": "ym2612"
    },
    {
      "channel": 0,
      "note": 21,
      "start": 12.4473,
      "duration": 0.1314,
      "velocity": 112,
      "chip": "ym2612"
    },
    {
      "channel": 1,
      "note": 29,
      "start": 12.448,
      "duration": 0.1319,
      "velocity": 93,
      "chip": "ym2612"
    },
    {
      "channel": 2,
      "note": 41,
      "start": 12.4486,
      "duration": 0.132,
      "velocity": 88,
      "chip": "ym2612"
    },
    {
      "channel": 3,
      "note": 84,
      "start": 12.4492,
      "duration": 0.0816,
      "velocity": 102,
      "chip": "ym2612"
    },
    {
      "channel": 0,
      "note": 22,
      "start": 12.5798,
      "duration": 0.1313,
      "velocity": 119,
      "chip": "ym2612"
    },
    {
      "channel": 1,
      "note": 29,
      "start": 12.5804,
      "duration": 0.1319,
      "velocity": 13,
      "chip": "ym2612"
    },
    {
      "channel": 2,
      "note": 44,
      "start": 12.581,
      "duration": 0.1319,
      "velocity": 89,
      "chip": "ym2612"
    },
    {
      "channel": 3,
      "note": 84,
      "start": 12.5817,
      "duration": 0.0815,
      "velocity": 101,
      "chip": "ym2612"
    },
    {
      "channel": 0,
      "note": 33,
      "start": 12.7122,
      "duration": 0.1314,
      "velocity": 127,
      "chip": "ym2612"
    },
    {
      "channel": 1,
      "note": 29,
      "start": 12.7128,
      "duration": 0.1319,
      "velocity": 124,
      "chip": "ym2612"
    },
    {
      "channel": 2,
      "note": 51,
      "start": 12.7134,
      "duration": 0.1319,
      "velocity": 90,
      "chip": "ym2612"
    },
    {
      "channel": 3,
      "note": 53,
      "start": 12.7146,
      "duration": 0.081,
      "velocity": 102,
      "chip": "ym2612"
    },
    {
      "channel": 4,
      "note": 48,
      "start": 12.7159,
      "duration": 0.0802,
      "velocity": 110,
      "chip": "ym2612"
    },
    {
      "channel": 5,
      "note": 7,
      "start": 12.7165,
      "duration": 2.1171,
      "velocity": 1,
      "chip": "ym2612"
    },
    {
      "channel": 0,
      "note": 21,
      "start": 12.8446,
      "duration": 0.1314,
      "velocity": 120,
      "chip": "ym2612"
    },
    {
      "channel": 1,
      "note": 29,
      "start": 12.8452,
      "duration": 0.1314,
      "velocity": 110,
      "chip": "ym2612"
    },
    {
      "channel": 2,
      "note": 53,
      "start": 12.8459,
      "duration": 0.1314,
      "velocity": 89,
      "chip": "ym2612"
    },
    {
      "channel": 3,
      "note": 48,
      "start": 12.8465,
      "duration": 0.0815,
      "velocity": 109,
      "chip": "ym2612"
    },
    {
      "channel": 4,
      "note": 53,
      "start": 12.8471,
      "duration": 0.0814,
      "velocity": 102,
      "chip": "ym2612"
    },
    {
      "channel": 0,
      "note": 21,
      "start": 12.9764,
      "duration": 0.1319,
      "velocity": 111,
      "chip": "ym2612"
    },
    {
      "channel": 1,
      "note": 29,
      "start": 12.977,
      "duration": 0.1326,
      "velocity": 93,
      "chip": "ym2612"
    },
    {
      "channel": 2,
      "note": 41,
      "start": 12.9777,
      "duration": 0.1325,
      "velocity": 88,
      "chip": "ym2612"
    },
    {
      "channel": 3,
      "note": 56,
      "start": 12.9784,
      "duration": 0.0821,
      "velocity": 108,
      "chip": "ym2612"
    },
    {
      "channel": 4,
      "note": 48,
      "start": 12.979,
      "duration": 0.082,
      "velocity": 109,
      "chip": "ym2612"
    },
    {
      "channel": 0,
      "note": 33,
      "start": 13.1094,
      "duration": 0.1314,
      "velocity": 127,
      "chip": "ym2612"
    },
    {
      "channel": 1,
      "note": 29,
      "start": 13.11,
      "duration": 0.132,
      "velocity": 13,
      "chip": "ym2612"
    },
    {
      "channel": 2,
      "note": 41,
      "start": 13.1107,
      "duration": 0.132,
      "velocity": 87,
      "chip": "ym2612"
    },
    {
      "channel": 3,
      "note": 48,
      "start": 13.1113,
      "duration": 0.0816,
      "velocity": 107,
      "chip": "ym2612"
    },
    {
      "channel": 4,
      "note": 56,
      "start": 13.112,
      "duration": 0.0814,
      "velocity": 108,
      "chip": "ym2612"
    },
    {
      "channel": 0,
      "note": 22,
      "start": 13.2419,
      "duration": 0.2637,
      "velocity": 127,
      "chip": "ym2612"
    },
    {
      "channel": 1,
      "note": 29,
      "start": 13.2425,
      "duration": 0.1312,
      "velocity": 124,
      "chip": "ym2612"
    },
    {
      "channel": 2,
      "note": 53,
      "start": 13.2431,
      "duration": 0.1312,
      "velocity": 86,
      "chip": "ym2612"
    },
    {
      "channel": 3,
      "note": 55,
      "start": 13.2438,
      "duration": 0.0816,
      "velocity": 106,
      "chip": "ym2612"
    },
    {
      "channel": 4,
      "note": 48,
      "start": 13.2445,
      "duration": 0.0814,
      "velocity": 107,
      "chip": "ym2612"
    },
    {
      "channel": 1,
      "note": 29,
      "start": 13.3742,
      "duration": 0.1327,
      "velocity": 110,
      "chip": "ym2612"
    },
    {
      "channel": 2,
      "note": 41,
      "start": 13.3748,
      "duration": 0.1327,
      "velocity": 85,
      "chip": "ym2612"
    },
    {
      "channel": 3,
      "note": 48,
      "start": 13.3754,
      "duration": 0.0823,
      "velocity": 105,
      "chip": "ym2612"
    },
    {
      "channel": 4,
      "note": 55,
      "start": 13.3761,
      "duration": 0.0821,
      "velocity": 106,
      "chip": "ym2612"
    },
    {
      "channel": 0,
      "note": 33,
      "start": 13.5067,
      "duration": 0.1314,
      "velocity": 127,
      "chip": "ym2612"
    },
    {
      "channel": 1,
      "note": 29,
      "start": 13.5073,
      "duration": 0.132,
      "velocity": 117,
      "chip": "ym2612"
    },
    {
      "channel": 2,
      "note": 44,
      "start": 13.508,
      "duration": 0.132,
      "velocity": 84,
      "chip": "ym2612"
    },
    {
      "channel": 3,
      "note": 58,
      "start": 13.5086,
      "duration": 0.0815,
      "velocity": 8,
      "chip": "ym2612"
    },
    {
      "channel": 4,
      "note": 48,
      "start": 13.5093,
      "duration": 0.0814,
      "velocity": 105,
      "chip": "ym2612"
    },
    {
      "channel": 0,
      "note": 22,
      "start": 13.6391,
      "duration": 0.1313,
      "velocity": 127,
      "chip": "ym2612"
    },
    {
      "channel": 1,
      "note": 29,
      "start": 13.6398,
      "duration": 0.132,
      "velocity": 13,
      "chip": "ym2612"
    },
    {
      "channel": 2,
      "note": 41,
      "start": 13.6404,
      "duration": 0.132,
      "velocity": 83,
      "chip": "ym2612"
    },
    {
      "channel": 3,
      "note": 48,
      "start": 13.641,
      "duration": 0.0816,
      "velocity": 103,
      "chip": "ym2612"
    },
    {
      "channel": 4,
      "note": 58,
      "start": 13.6417,
      "duration": 0.0814,
      "velocity": 8,
      "chip": "ym2612"
    },
    {
      "channel": 0,
      "note": 21,
      "start": 13.7716,
      "duration": 0.1313,
      "velocity": 112,
      "chip": "ym2612"
    },
    {
      "channel": 1,
      "note": 29,
      "start": 13.7722,
      "duration": 0.1319,
      "velocity": 124,
      "chip": "ym2612"
    },
    {
      "channel": 2,
      "note": 53,
      "start": 13.7728,
      "duration": 0.1319,
      "velocity": 82,
      "chip": "ym2612"
    },
    {
      "channel": 3,
      "note": 56,
      "start": 13.7735,
      "duration": 0.0816,
      "velocity": 102,
      "chip": "ym2612"
    },
    {
      "channel": 4,
      "note": 48,
      "start": 13.7741,
      "duration": 0.0814,
      "velocity": 103,
      "chip": "ym2612"
    },
    {
      "channel": 0,
      "note": 33,
      "start": 13.9039,
      "duration": 0.1314,
      "velocity": 119,
      "chip": "ym2612"
    },
    {
      "channel": 1,
      "note": 29,
      "start": 13.9046,
      "duration": 0.1319,
      "velocity": 115,
      "chip": "ym2612"
    },
    {
      "channel": 2,
      "note": 41,
      "start": 13.9053,
      "duration": 0.1319,
      "velocity": 83,
      "chip": "ym2612"
    },
    {
      "channel": 3,
      "note": 48,
      "start": 13.9059,
      "duration": 0.0815,
      "velocity": 109,
      "chip": "ym2612"
    },
    {
      "channel": 4,
      "note": 56,
      "start": 13.9066,
      "duration": 0.0814,
      "velocity": 102,
      "chip": "ym2612"
    },
    {
      "channel": 0,
      "note": 21,
      "start": 14.0364,
      "duration": 0.1314,
      "velocity": 112,
      "chip": "ym2612"
    },
    {
      "channel": 1,
      "note": 29,
      "start": 14.037,
      "duration": 0.1313,
      "velocity": 13,
      "chip": "ym2612"
    },
    {
      "channel": 2,
      "note": 41,
      "start": 14.0377,
      "duration": 0.1312,
      "velocity": 84,
      "chip": "ym2612"
    },
    {
      "channel": 3,
      "note": 55,
      "start": 14.0384,
      "duration": 0.0815,
      "velocity": 12,
      "chip": "ym2612"
    },
    {
      "channel": 4,
      "note": 48,
      "start": 14.039,
      "duration": 0.0814,
      "velocity": 109,
      "chip": "ym2612"
    },
    {
      "channel": 0,
      "note": 21,
      "start": 14.1682,
      "duration": 0.132,
      "velocity": 112,
      "chip": "ym2612"
    },
    {
      "channel": 1,
      "note": 29,
      "start": 14.1688,
      "duration": 0.1326,
      "velocity": 13,
      "chip": "ym2612"
    },
    {
      "channel": 2,
      "note": 53,
      "start": 14.1695,
      "duration": 0.1326,
      "velocity": 85,
      "chip": "ym2612"
    },
    {
      "channel": 3,
      "note": 48,
      "start": 14.1701,
      "duration": 0.0821,
      "velocity": 107,
      "chip": "ym2612"
    },
    {
      "channel": 4,
      "note": 55,
      "start": 14.1708,
      "duration": 0.082,
      "velocity": 12,
      "chip": "ym2612"
    },
    {
      "channel": 0,
      "note": 22,
      "start": 14.3012,
      "duration": 0.1314,
      "velocity": 119,
      "chip": "ym2612"
    },
    {
      "channel": 1,
      "note": 29,
      "start": 14.3018,
      "duration": 0.132,
      "velocity": 124,
      "chip": "ym2612"
    },
    {
      "channel": 2,
      "note": 41,
      "start": 14.3025,
      "duration": 0.132,
      "velocity": 86,
      "chip": "ym2612"
    },
    {
      "channel": 3,
      "note": 56,
      "start": 14.3031,
      "duration": 0.0816,
      "velocity": 106,
      "chip": "ym2612"
    },
    {
      "channel": 4,
      "note": 48,
      "start": 14.3038,
      "duration": 0.0814,
      "velocity": 107,
      "chip": "ym2612"
    },
    {
      "channel": 0,
      "note": 30,
      "start": 14.4336,
      "duration": 0.1314,
      "velocity": 112,
      "chip": "ym2612"
    },
    {
      "channel": 1,
      "note": 29,
      "start": 14.4343,
      "duration": 0.1313,
      "velocity": 120,
      "chip": "ym2612"
    },
    {
      "channel": 2,
      "note": 53,
      "start": 14.4349,
      "duration": 0.1313,
      "velocity": 87,
      "chip": "ym2612"
    },
    {
      "channel": 3,
      "note": 48,
      "start": 14.4356,
      "duration": 0.0816,
      "velocity": 105,
      "chip": "ym2612"
    },
    {
      "channel": 4,
      "note": 56,
      "start": 14.4362,
      "duration": 0.0814,
      "velocity": 106,
      "chip": "ym2612"
    },
    {
      "channel": 0,
      "note": 21,
      "start": 14.5655,
      "duration": 0.1319,
      "velocity": 112,
      "chip": "ym2612"
    },
    {
      "channel": 1,
      "note": 29,
      "start": 14.5661,
      "duration": 0.1319,
      "velocity": 93,
      "chip": "ym2612"
    },
    {
      "channel": 2,
      "note": 44,
      "start": 14.5667,
      "duration": 0.1319,
      "velocity": 88,
      "chip": "ym2612"
    },
    {
      "channel": 3,
      "note": 55,
      "start": 14.5674,
      "duration": 0.0821,
      "velocity": 8,
      "chip": "ym2612"
    },
    {
      "channel": 4,
      "note": 48,
      "start": 14.568,
      "duration": 0.082,
      "velocity": 105,
      "chip": "ym2612"
    },
    {
      "channel": 0,
      "note": 21,
      "start": 14.6978,
      "duration": 0.132,
      "velocity": 112,
      "chip": "ym2612"
    },
    {
      "channel": 1,
      "note": 29,
      "start": 14.6985,
      "duration": 0.1325,
      "velocity": 13,
      "chip": "ym2612"
    },
    {
      "channel": 2,
      "note": 41,
      "start": 14.6992,
      "duration": 0.1325,
      "velocity": 89,
      "chip": "ym2612"
    },
    {
      "channel": 3,
      "note": 48,
      "start": 14.6998,
      "duration": 0.0821,
      "velocity": 103,
      "chip": "ym2612"
    },
    {
      "channel": 4,
      "note": 55,
      "start": 14.7005,
      "duration": 0.1325,
      "velocity": 8,
      "chip": "ym2612"
    },
    {
      "channel": 0,
      "note": 22,
      "start": 14.8309,
      "duration": 0.1314,
      "velocity": 127,
      "chip": "ym2612"
    },
    {
      "channel": 1,
      "note": 29,
      "start": 14.8315,
      "duration": 0.132,
      "velocity": 124,
      "chip": "ym2612"
    },
    {
      "channel": 2,
      "note": 51,
      "start": 14.8322,
      "duration": 0.0817,
      "velocity": 90,
      "chip": "ym2612"
    },
    {
      "channel": 3,
      "note": 53,
      "start": 14.8328,
      "duration": 0.0815,
      "velocity": 102,
      "chip": "ym2612"
    },
    {
      "channel": 4,
      "note": 48,
      "start": 14.8335,
      "duration": 0.0814,
      "velocity": 110,
      "chip": "ym2612"
    },
    {
      "channel": 5,
      "note": 7,
      "start": 14.8341,
      "duration": 2.1183,
      "velocity": 1,
      "chip": "ym2612"
    },
    {
      "channel": 0,
      "note": 21,
      "start": 14.9633,
      "duration": 0.1314,
      "velocity": 120,
      "chip": "ym2612"
    },
    {
      "channel": 1,
      "note": 29,
      "start": 14.9639,
      "duration": 0.1314,
      "velocity": 110,
      "chip": "ym2612"
    },
    {
      "channel": 2,
      "note": 53,
      "start": 14.9646,
      "duration": 0.0817,
      "velocity": 89,
      "chip": "ym2612"
    },
    {
      "channel": 3,
      "note": 48,
      "start": 14.9652,
      "duration": 0.0816,
      "velocity": 109,
      "chip": "ym2612"
    },
    {
      "channel": 4,
      "note": 53,
      "start": 14.9659,
      "duration": 0.0814,
      "velocity": 102,
      "chip": "ym2612"
    },
    {
      "channel": 0,
      "note": 21,
      "start": 15.0951,
      "duration": 0.1319,
      "velocity": 111,
      "chip": "ym2612"
    },
    {
      "channel": 1,
      "note": 29,
      "start": 15.0957,
      "duration": 0.1326,
      "velocity": 93,
      "chip": "ym2612"
    },
    {
      "channel": 2,
      "note": 41,
      "start": 15.0964,
      "duration": 0.1325,
      "velocity": 88,
      "chip": "ym2612"
    },
    {
      "channel": 3,
      "note": 56,
      "start": 15.0971,
      "duration": 0.0821,
      "velocity": 108,
      "chip": "ym2612"
    },
    {
      "channel": 4,
      "note": 48,
      "start": 15.0977,
      "duration": 0.082,
      "velocity": 109,
      "chip": "ym2612"
    },
    {
      "channel": 0,
      "note": 33,
      "start": 15.2281,
      "duration": 0.1314,
      "velocity": 127,
      "chip": "ym2612"
    },
    {
      "channel": 1,
      "note": 29,
      "start": 15.2288,
      "duration": 0.1319,
      "velocity": 13,
      "chip": "ym2612"
    },
    {
      "channel": 2,
      "note": 41,
      "start": 15.2295,
      "duration": 0.1319,
      "velocity": 87,
      "chip": "ym2612"
    },
    {
      "channel": 3,
      "note": 48,
      "start": 15.2301,
      "duration": 0.0815,
      "velocity": 107,
      "chip": "ym2612"
    },
    {
      "channel": 4,
      "note": 56,
      "start": 15.2307,
      "duration": 0.0814,
      "velocity": 108,
      "chip": "ym2612"
    },
    {
      "channel": 0,
      "note": 22,
      "start": 15.3606,
      "duration": 0.1314,
      "velocity": 127,
      "chip": "ym2612"
    },
    {
      "channel": 1,
      "note": 29,
      "start": 15.3612,
      "duration": 0.1319,
      "velocity": 124,
      "chip": "ym2612"
    },
    {
      "channel": 2,
      "note": 44,
      "start": 15.3619,
      "duration": 0.1319,
      "velocity": 86,
      "chip": "ym2612"
    },
    {
      "channel": 3,
      "note": 55,
      "start": 15.3625,
      "duration": 0.0815,
      "velocity": 106,
      "chip": "ym2612"
    },
    {
      "channel": 4,
      "note": 48,
      "start": 15.3632,
      "duration": 0.0814,
      "velocity": 107,
      "chip": "ym2612"
    },
    {
      "channel": 0,
      "note": 32,
      "start": 15.4929,
      "duration": 0.1314,
      "velocity": 120,
      "chip": "ym2612"
    },
    {
      "channel": 1,
      "note": 29,
      "start": 15.4936,
      "duration": 0.132,
      "velocity": 110,
      "chip": "ym2612"
    },
    {
      "channel": 2,
      "note": 41,
      "start": 15.4943,
      "duration": 0.1319,
      "velocity": 85,
      "chip": "ym2612"
    },
    {
      "channel": 3,
      "note": 48,
      "start": 15.4949,
      "duration": 0.0815,
      "velocity": 105,
      "chip": "ym2612"
    },
    {
      "channel": 4,
      "note": 55,
      "start": 15.4956,
      "duration": 0.0814,
      "velocity": 106,
      "chip": "ym2612"
    },
    {
      "channel": 0,
      "note": 33,
      "start": 15.6254,
      "duration": 0.1314,
      "velocity": 127,
      "chip": "ym2612"
    },
    {
      "channel": 1,
      "note": 29,
      "start": 15.6261,
      "duration": 0.1319,
      "velocity": 117,
      "chip": "ym2612"
    },
    {
      "channel": 2,
      "note": 53,
      "start": 15.6267,
      "duration": 0.1319,
      "velocity": 84,
      "chip": "ym2612"
    },
    {
      "channel": 3,
      "note": 58,
      "start": 15.6273,
      "duration": 0.0816,
      "velocity": 8,
      "chip": "ym2612"
    },
    {
      "channel": 4,
      "note": 48,
      "start": 15.628,
      "duration": 0.0814,
      "velocity": 105,
      "chip": "ym2612"
    },
    {
      "channel": 0,
      "note": 21,
      "start": 15.7578,
      "duration": 0.1314,
      "velocity": 120,
      "chip": "ym2612"
    },
    {
      "channel": 1,
      "note": 29,
      "start": 15.7585,
      "duration": 0.1314,
      "velocity": 13,
      "chip": "ym2612"
    },
    {
      "channel": 2,
      "note": 44,
      "start": 15.7591,
      "duration": 0.1314,
      "velocity": 83,
      "chip": "ym2612"
    },
    {
      "channel": 3,
      "note": 48,
      "start": 15.7597,
      "duration": 0.0816,
      "velocity": 103,
      "chip": "ym2612"
    },
    {
      "channel": 4,
      "note": 58,
      "start": 15.7604,
      "duration": 0.0814,
      "velocity": 8,
      "chip": "ym2612"
    },
    {
      "channel": 0,
      "note": 21,
      "start": 15.8896,
      "duration": 0.1319,
      "velocity": 112,
      "chip": "ym2612"
    },
    {
      "channel": 1,
      "note": 29,
      "start": 15.8903,
      "duration": 0.1326,
      "velocity": 124,
      "chip": "ym2612"
    },
    {
      "channel": 2,
      "note": 41,
      "start": 15.891,
      "duration": 0.1325,
      "velocity": 82,
      "chip": "ym2612"
    },
    {
      "channel": 3,
      "note": 56,
      "start": 15.8916,
      "duration": 0.0821,
      "velocity": 102,
      "chip": "ym2612"
    },
    {
      "channel": 4,
      "note": 48,
      "start": 15.8922,
      "duration": 0.082,
      "velocity": 103,
      "chip": "ym2612"
    },
    {
      "channel": 0,
      "note": 33,
      "start": 16.0227,
      "duration": 0.1314,
      "velocity": 119,
      "chip": "ym2612"
    },
    {
      "channel": 1,
      "note": 29,
      "start": 16.0233,
      "duration": 0.132,
      "velocity": 115,
      "chip": "ym2612"
    },
    {
      "channel": 2,
      "note": 41,
      "start": 16.0239,
      "duration": 0.132,
      "velocity": 83,
      "chip": "ym2612"
    },
    {
      "channel": 3,
      "note": 48,
      "start": 16.0246,
      "duration": 0.0815,
      "velocity": 109,
      "chip": "ym2612"
    },
    {
      "channel": 4,
      "note": 56,
      "start": 16.0253,
      "duration": 0.0814,
      "velocity": 102,
      "chip": "ym2612"
    },
    {
      "channel": 0,
      "note": 21,
      "start": 16.1551,
      "duration": 0.1314,
      "velocity": 112,
      "chip": "ym2612"
    },
    {
      "channel": 1,
      "note": 29,
      "start": 16.1558,
      "duration": 0.1313,
      "velocity": 13,
      "chip": "ym2612"
    },
    {
      "channel": 2,
      "note": 44,
      "start": 16.1564,
      "duration": 0.1314,
      "velocity": 84,
      "chip": "ym2612"
    },
    {
      "channel": 3,
      "note": 55,
      "start": 16.1571,
      "duration": 0.0816,
      "velocity": 12,
      "chip": "ym2612"
    },
    {
      "channel": 4,
      "note": 48,
      "start": 16.1577,
      "duration": 0.0814,
      "velocity": 109,
      "chip": "ym2612"
    },
    {
      "channel": 0,
      "note": 21,
      "start": 16.2869,
      "duration": 0.1319,
      "velocity": 112,
      "chip": "ym2612"
    },
    {
      "channel": 1,
      "note": 29,
      "start": 16.2876,
      "duration": 0.1325,
      "velocity": 13,
      "chip": "ym2612"
    },
    {
      "channel": 2,
      "note": 41,
      "start": 16.2882,
      "duration": 0.1326,
      "velocity": 85,
      "chip": "ym2612"
    },
    {
      "channel": 3,
      "note": 48,
      "start": 16.2889,
      "duration": 0.0822,
      "velocity": 107,
      "chip": "ym2612"
    },
    {
      "channel": 4,
      "note": 55,
      "start": 16.2896,
      "duration": 0.082,
      "velocity": 12,
      "chip": "ym2612"
    },
    {
      "channel": 0,
      "note": 22,
      "start": 16.4199,
      "duration": 0.2638,
      "velocity": 119,
      "chip": "ym2612"
    },
    {
      "channel": 1,
      "note": 29,
      "start": 16.4206,
      "duration": 0.1312,
      "velocity": 124,
      "chip": "ym2612"
    },
    {
      "channel": 2,
      "note": 44,
      "start": 16.4212,
      "duration": 0.1312,
      "velocity": 86,
      "chip": "ym2612"
    },
    {
      "channel": 3,
      "note": 56,
      "start": 16.422,
      "duration": 0.0814,
      "velocity": 106,
      "chip": "ym2612"
    },
    {
      "channel": 4,
      "note": 48,
      "start": 16.4226,
      "duration": 0.0814,
      "velocity": 107,
      "chip": "ym2612"
    },
    {
      "channel": 1,
      "note": 29,
      "start": 16.5522,
      "duration": 0.1327,
      "velocity": 120,
      "chip": "ym2612"
    },
    {
      "channel": 2,
      "note": 53,
      "start": 16.5529,
      "duration": 0.1327,
      "velocity": 87,
      "chip": "ym2612"
    },
    {
      "channel": 3,
      "note": 48,
      "start": 16.5535,
      "duration": 0.0823,
      "velocity": 105,
      "chip": "ym2612"
    },
    {
      "channel": 4,
      "note": 56,
      "start": 16.5543,
      "duration": 0.0821,
      "velocity": 106,
      "chip": "ym2612"
    },
    {
      "channel": 0,
      "note": 21,
      "start": 16.6847,
      "duration": 0.1314,
      "velocity": 112,
      "chip": "ym2612"
    },
    {
      "channel": 1,
      "note": 29,
      "start": 16.6854,
      "duration": 0.1319,
      "velocity": 93,
      "chip": "ym2612"
    },
    {
      "channel": 2,
      "note": 41,
      "start": 16.6861,
      "duration": 0.1319,
      "velocity": 88,
      "chip": "ym2612"
    },
    {
      "channel": 3,
      "note": 55,
      "start": 16.6867,
      "duration": 0.0815,
      "velocity": 8,
      "chip": "ym2612"
    },
    {
      "channel": 4,
      "note": 48,
      "start": 16.6874,
      "duration": 0.0814,
      "velocity": 105,
      "chip": "ym2612"
    },
    {
      "channel": 0,
      "note": 22,
      "start": 16.8172,
      "duration": 0.1314,
      "velocity": 119,
      "chip": "ym2612"
    },
    {
      "channel": 1,
      "note": 29,
      "start": 16.8178,
      "duration": 0.132,
      "velocity": 13,
      "chip": "ym2612"
    },
    {
      "channel": 2,
      "note": 44,
      "start": 16.8185,
      "duration": 0.1319,
      "velocity": 89,
      "chip": "ym2612"
    },
    {
      "channel": 3,
      "note": 48,
      "start": 16.8191,
      "duration": 0.0815,
      "velocity": 103,
      "chip": "ym2612"
    },
    {
      "channel": 4,
      "note": 55,
      "start": 16.8198,
      "duration": 0.1319,
      "velocity": 8,
      "chip": "ym2612"
    },
    {
      "channel": 0,
      "note": 33,
      "start": 16.9496,
      "duration": 0.1314,
      "velocity": 127,
      "chip": "ym2612"
    },
    {
      "channel": 1,
      "note": 29,
      "start": 16.9502,
      "duration": 0.1319,
      "velocity": 124,
      "chip": "ym2612"
    },
    {
      "channel": 2,
      "note": 51,
      "start": 16.9509,
      "duration": 0.132,
      "velocity": 90,
      "chip": "ym2612"
    },
    {
      "channel": 3,
      "note": 53,
      "start": 16.9515,
      "duration": 0.0816,
      "velocity": 102,
      "chip": "ym2612"
    },
    {
      "channel": 4,
      "note": 49,
      "start": 16.9522,
      "duration": 0.0814,
      "velocity": 110,
      "chip": "ym2612"
    },
    {
      "channel": 5,
      "note": 7,
      "start": 16.9528,
      "duration": 2.1183,
      "velocity": 1,
      "chip": "ym2612"
    },
    {
      "channel": 0,
      "note": 21,
      "start": 17.082,
      "duration": 0.1314,
      "velocity": 120,
      "chip": "ym2612"
    },
    {
      "channel": 1,
      "note": 29,
      "start": 17.0827,
      "duration": 0.1313,
      "velocity": 110,
      "chip": "ym2612"
    },
    {
      "channel": 2,
      "note": 53,
      "start": 17.0833,
      "duration": 0.1313,
      "velocity": 89,
      "chip": "ym2612"
    },
    {
      "channel": 3,
      "note": 49,
      "start": 17.084,
      "duration": 0.0815,
      "velocity": 109,
      "chip": "ym2612"
    },
    {
      "channel": 4,
      "note": 53,
      "start": 17.0846,
      "duration": 0.0814,
      "velocity": 102,
      "chip": "ym2612"
    },
    {
      "channel": 0,
      "note": 21,
      "start": 17.2139,
      "duration": 0.1319,
      "velocity": 111,
      "chip": "ym2612"
    },
    {
      "channel": 1,
      "note": 29,
      "start": 17.2145,
      "duration": 0.1325,
      "velocity": 93,
      "chip": "ym2612"
    },
    {
      "channel": 2,
      "note": 41,
      "start": 17.2151,
      "duration": 0.1325,
      "velocity": 88,
      "chip": "ym2612"
    },
    {
      "channel": 3,
      "note": 56,
      "start": 17.2158,
      "duration": 0.0821,
      "velocity": 108,
      "chip": "ym2612"
    },
    {
      "channel": 4,
      "note": 49,
      "start": 17.2164,
      "duration": 0.082,
      "velocity": 109,
      "chip": "ym2612"
    },
    {
      "channel": 0,
      "note": 33,
      "start": 17.3469,
      "duration": 0.1313,
      "velocity": 127,
      "chip": "ym2612"
    },
    {
      "channel": 1,
      "note": 29,
      "start": 17.3475,
      "duration": 0.1319,
      "velocity": 13,
      "chip": "ym2612"
    },
    {
      "channel": 2,
      "note": 41,
      "start": 17.3482,
      "duration": 0.1319,
      "velocity": 87,
      "chip": "ym2612"
    },
    {
      "channel": 3,
      "note": 49,
      "start": 17.3488,
      "duration": 0.0815,
      "velocity": 107,
      "chip": "ym2612"
    },
    {
      "channel": 4,
      "note": 56,
      "start": 17.3494,
      "duration": 0.0814,
      "velocity": 108,
      "chip": "ym2612"
    },
    {
      "channel": 0,
      "note": 22,
      "start": 17.4793,
      "duration": 0.2638,
      "velocity": 127,
      "chip": "ym2612"
    },
    {
      "channel": 1,
      "note": 29,
      "start": 17.4799,
      "duration": 0.1312,
      "velocity": 124,
      "chip": "ym2612"
    },
    {
      "channel": 2,
      "note": 53,
      "start": 17.4806,
      "duration": 0.1312,
      "velocity": 86,
      "chip": "ym2612"
    },
    {
      "channel": 3,
      "note": 55,
      "start": 17.4812,
      "duration": 0.0816,
      "velocity": 106,
      "chip": "ym2612"
    },
    {
      "channel": 4,
      "note": 49,
      "start": 17.4819,
      "duration": 0.0814,
      "velocity": 107,
      "chip": "ym2612"
    },
    {
      "channel": 1,
      "note": 29,
      "start": 17.6116,
      "duration": 0.1327,
      "velocity": 110,
      "chip": "ym2612"
    },
    {
      "channel": 2,
      "note": 41,
      "start": 17.6122,
      "duration": 0.1327,
      "velocity": 85,
      "chip": "ym2612"
    },
    {
      "channel": 3,
      "note": 49,
      "start": 17.6129,
      "duration": 0.0823,
      "velocity": 105,
      "chip": "ym2612"
    },
    {
      "channel": 4,
      "note": 55,
      "start": 17.6136,
      "duration": 0.0821,
      "velocity": 106,
      "chip": "ym2612"
    },
    {
      "channel": 0,
      "note": 33,
      "start": 17.7441,
      "duration": 0.1314,
      "velocity": 127,
      "chip": "ym2612"
    },
    {
      "channel": 1,
      "note": 29,
      "start": 17.7448,
      "duration": 0.1319,
      "velocity": 117,
      "chip": "ym2612"
    },
    {
      "channel": 2,
      "note": 44,
      "start": 17.7454,
      "duration": 0.1319,
      "velocity": 84,
      "chip": "ym2612"
    },
    {
      "channel": 3,
      "note": 58,
      "start": 17.7461,
      "duration": 0.0816,
      "velocity": 8,
      "chip": "ym2612"
    },
    {
      "channel": 4,
      "note": 49,
      "start": 17.7467,
      "duration": 0.0814,
      "velocity": 105,
      "chip": "ym2612"
    },
    {
      "channel": 0,
      "note": 22,
      "start": 17.8766,
      "duration": 0.1313,
      "velocity": 127,
      "chip": "ym2612"
    },
    {
      "channel": 1,
      "note": 29,
      "start": 17.8772,
      "duration": 0.1319,
      "velocity": 13,
      "chip": "ym2612"
    },
    {
      "channel": 2,
      "note": 41,
      "start": 17.8779,
      "duration": 0.1319,
      "velocity": 83,
      "chip": "ym2612"
    },
    {
      "channel": 3,
      "note": 49,
      "start": 17.8785,
      "duration": 0.0815,
      "velocity": 103,
      "chip": "ym2612"
    },
    {
      "channel": 4,
      "note": 58,
      "start": 17.8791,
      "duration": 0.0814,
      "velocity": 8,
      "chip": "ym2612"
    },
    {
      "channel": 0,
      "note": 21,
      "start": 18.009,
      "duration": 0.1314,
      "velocity": 112,
      "chip": "ym2612"
    },
    {
      "channel": 1,
      "note": 29,
      "start": 18.0096,
      "duration": 0.1319,
      "velocity": 124,
      "chip": "ym2612"
    },
    {
      "channel": 2,
      "note": 53,
      "start": 18.0102,
      "duration": 0.1319,
      "velocity": 82,
      "chip": "ym2612"
    },
    {
      "channel": 3,
      "note": 56,
      "start": 18.0109,
      "duration": 0.0815,
      "velocity": 102,
      "chip": "ym2612"
    },
    {
      "channel": 4,
      "note": 49,
      "start": 18.0115,
      "duration": 0.0814,
      "velocity": 103,
      "chip": "ym2612"
    },
    {
      "channel": 0,
      "note": 33,
      "start": 18.1413,
      "duration": 0.1314,
      "velocity": 119,
      "chip": "ym2612"
    },
    {
      "channel": 1,
      "note": 29,
      "start": 18.142,
      "duration": 0.132,
      "velocity": 115,
      "chip": "ym2612"
    },
    {
      "channel": 2,
      "note": 41,
      "start": 18.1427,
      "duration": 0.132,
      "velocity": 83,
      "chip": "ym2612"
    },
    {
      "channel": 3,
      "note": 49,
      "start": 18.1433,
      "duration": 0.0816,
      "velocity": 109,
      "chip": "ym2612"
    },
    {
      "channel": 4,
      "note": 56,
      "start": 18.1439,
      "duration": 0.0814,
      "velocity": 102,
      "chip": "ym2612"
    },
    {
      "channel": 0,
      "note": 21,
      "start": 18.2738,
      "duration": 0.1314,
      "velocity": 112,
      "chip": "ym2612"
    },
    {
      "channel": 1,
      "note": 29,
      "start": 18.2744,
      "duration": 0.1314,
      "velocity": 13,
      "chip": "ym2612"
    },
    {
      "channel": 2,
      "note": 41,
      "start": 18.2751,
      "duration": 0.1314,
      "velocity": 84,
      "chip": "ym2612"
    },
    {
      "channel": 3,
      "note": 55,
      "start": 18.2757,
      "duration": 0.0816,
      "velocity": 12,
      "chip": "ym2612"
    },
    {
      "channel": 4,
      "note": 49,
      "start": 18.2764,
      "duration": 0.0814,
      "velocity": 109,
      "chip": "ym2612"
    },
    {
      "channel": 0,
      "note": 21,
      "start": 18.4056,
      "duration": 0.132,
      "velocity": 112,
      "chip": "ym2612"
    },
    {
      "channel": 1,
      "note": 29,
      "start": 18.4063,
      "duration": 0.1326,
      "velocity": 13,
      "chip": "ym2612"
    },
    {
      "channel": 2,
      "note": 53,
      "start": 18.4069,
      "duration": 0.1326,
      "velocity": 85,
      "chip": "ym2612"
    },
    {
      "channel": 3,
      "note": 49,
      "start": 18.4076,
      "duration": 0.0821,
      "velocity": 107,
      "chip": "ym2612"
    },
    {
      "channel": 4,
      "note": 55,
      "start": 18.4082,
      "duration": 0.082,
      "velocity": 12,
      "chip": "ym2612"
    },
    {
      "channel": 0,
      "note": 22,
      "start": 18.5387,
      "duration": 0.1313,
      "velocity": 119,
      "chip": "ym2612"
    },
    {
      "channel": 1,
      "note": 29,
      "start": 18.5393,
      "duration": 0.1319,
      "velocity": 124,
      "chip": "ym2612"
    },
    {
      "channel": 2,
      "note": 41,
      "start": 18.54,
      "duration": 0.1319,
      "velocity": 86,
      "chip": "ym2612"
    },
    {
      "channel": 3,
      "note": 56,
      "start": 18.5407,
      "duration": 0.0815,
      "velocity": 106,
      "chip": "ym2612"
    },
    {
      "channel": 4,
      "note": 49,
      "start": 18.5413,
      "duration": 0.0814,
      "velocity": 107,
      "chip": "ym2612"
    },
    {
      "channel": 0,
      "note": 30,
      "start": 18.6711,
      "duration": 0.1313,
      "velocity": 112,
      "chip": "ym2612"
    },
    {
      "channel": 1,
      "note": 29,
      "start": 18.6717,
      "duration": 0.1313,
      "velocity": 120,
      "chip": "ym2612"
    },
    {
      "channel": 2,
      "note": 53,
      "start": 18.6724,
      "duration": 0.1313,
      "velocity": 87,
      "chip": "ym2612"
    },
    {
      "channel": 3,
      "note": 49,
      "start": 18.673,
      "duration": 0.0815,
      "velocity": 105,
      "chip": "ym2612"
    },
    {
      "channel": 4,
      "note": 56,
      "start": 18.6737,
      "duration": 0.0814,
      "velocity": 106,
      "chip": "ym2612"
    },
    {
      "channel": 0,
      "note": 21,
      "start": 18.8029,
      "duration": 0.132,
      "velocity": 112,
      "chip": "ym2612"
    },
    {
      "channel": 1,
      "note": 29,
      "start": 18.8036,
      "duration": 0.1319,
      "velocity": 93,
      "chip": "ym2612"
    },
    {
      "channel": 2,
      "note": 44,
      "start": 18.8042,
      "duration": 0.1319,
      "velocity": 88,
      "chip": "ym2612"
    },
    {
      "channel": 3,
      "note": 55,
      "start": 18.8049,
      "duration": 0.0821,
      "velocity": 8,
      "chip": "ym2612"
    },
    {
      "channel": 4,
      "note": 49,
      "start": 18.8055,
      "duration": 0.082,
      "velocity": 105,
      "chip": "ym2612"
    },
    {
      "channel": 0,
      "note": 21,
      "start": 18.9353,
      "duration": 0.1319,
      "velocity": 112,
      "chip": "ym2612"
    },
    {
      "channel": 1,
      "note": 29,
      "start": 18.9359,
      "duration": 0.1326,
      "velocity": 13,
      "chip": "ym2612"
    },
    {
      "channel": 2,
      "note": 41,
      "start": 18.9366,
      "duration": 0.1325,
      "velocity": 89,
      "chip": "ym2612"
    },
    {
      "channel": 3,
      "note": 49,
      "start": 18.9373,
      "duration": 0.0821,
      "velocity": 103,
      "chip": "ym2612"
    },
    {
      "channel": 4,
      "note": 55,
      "start": 18.938,
      "duration": 0.1324,
      "velocity": 8,
      "chip": "ym2612"
    },
    {
      "channel": 0,
      "note": 22,
      "start": 19.0683,
      "duration": 0.1314,
      "velocity": 127,
      "chip": "ym2612"
    },
    {
      "channel": 1,
      "note": 29,
      "start": 19.069,
      "duration": 0.1319,
      "velocity": 124,
      "chip": "ym2612"
    },
    {
      "channel": 2,
      "note": 51,
      "start": 19.0696,
      "duration": 0.0817,
      "velocity": 90,
      "chip": "ym2612"
    },
    {
      "channel": 3,
      "note": 53,
      "start": 19.0702,
      "duration": 0.0816,
      "velocity": 102,
      "chip": "ym2612"
    },
    {
      "channel": 4,
      "note": 51,
      "start": 19.0709,
      "duration": 0.0814,
      "velocity": 110,
      "chip": "ym2612"
    },
    {
      "channel": 5,
      "note": 7,
      "start": 19.0716,
      "duration": 2.1194,
      "velocity": 1,
      "chip": "ym2612"
    },
    {
      "channel": 0,
      "note": 21,
      "start": 19.2007,
      "duration": 0.1314,
      "velocity": 120,
      "chip": "ym2612"
    },
    {
      "channel": 1,
      "note": 29,
      "start": 19.2014,
      "duration": 0.1313,
      "velocity": 110,
      "chip": "ym2612"
    },
    {
      "channel": 2,
      "note": 53,
      "start": 19.202,
      "duration": 0.0817,
      "velocity": 89,
      "chip": "ym2612"
    },
    {
      "channel": 3,
      "note": 51,
      "start": 19.2032,
      "duration": 0.081,
      "velocity": 121,
      "chip": "ym2612"
    },
    {
      "channel": 4,
      "note": 53,
      "start": 19.2039,
      "duration": 0.0808,
      "velocity": 102,
      "chip": "ym2612"
    },
    {
      "channel": 0,
      "note": 21,
      "start": 19.3326,
      "duration": 0.132,
      "velocity": 111,
      "chip": "ym2612"
    },
    {
      "channel": 1,
      "note": 29,
      "start": 19.3332,
      "duration": 0.1325,
      "velocity": 93,
      "chip": "ym2612"
    },
    {
      "channel": 2,
      "note": 41,
      "start": 19.3338,
      "duration": 0.1325,
      "velocity": 88,
      "chip": "ym2612"
    },
    {
      "channel": 3,
      "note": 56,
      "start": 19.3351,
      "duration": 0.0816,
      "velocity": 108,
      "chip": "ym2612"
    },
    {
      "channel": 4,
      "note": 51,
      "start": 19.3357,
      "duration": 0.0815,
      "velocity": 109,
      "chip": "ym2612"
    },
    {
      "channel": 0,
      "note": 33,
      "start": 19.4656,
      "duration": 0.1314,
      "velocity": 127,
      "chip": "ym2612"
    },
    {
      "channel": 1,
      "note": 29,
      "start": 19.4662,
      "duration": 0.132,
      "velocity": 13,
      "chip": "ym2612"
    },
    {
      "channel": 2,
      "note": 41,
      "start": 19.4668,
      "duration": 0.132,
      "velocity": 87,
      "chip": "ym2612"
    },
    {
      "channel": 3,
      "note": 51,
      "start": 19.4675,
      "duration": 0.0816,
      "velocity": 107,
      "chip": "ym2612"
    },
    {
      "channel": 4,
      "note": 56,
      "start": 19.4681,
      "duration": 0.0814,
      "velocity": 108,
      "chip": "ym2612"
    },
    {
      "channel": 0,
      "note": 22,
      "start": 19.598,
      "duration": 0.1313,
      "velocity": 127,
      "chip": "ym2612"
    },
    {
      "channel": 1,
      "note": 29,
      "start": 19.5987,
      "duration": 0.1319,
      "velocity": 124,
      "chip": "ym2612"
    },
    {
      "channel": 2,
      "note": 44,
      "start": 19.5993,
      "duration": 0.1319,
      "velocity": 86,
      "chip": "ym2612"
    },
    {
      "channel": 3,
      "note": 55,
      "start": 19.5999,
      "duration": 0.0816,
      "velocity": 106,
      "chip": "ym2612"
    },
    {
      "channel": 4,
      "note": 51,
      "start": 19.6006,
      "duration": 0.0814,
      "velocity": 107,
      "chip": "ym2612"
    },
    {
      "channel": 0,
      "note": 32,
      "start": 19.7304,
      "duration": 0.1314,
      "velocity": 120,
      "chip": "ym2612"
    },
    {
      "channel": 1,
      "note": 29,
      "start": 19.731,
      "duration": 0.1319,
      "velocity": 110,
      "chip": "ym2612"
    },
    {
      "channel": 2,
      "note": 41,
      "start": 19.7317,
      "duration": 0.1319,
      "velocity": 85,
      "chip": "ym2612"
    },
    {
      "channel": 3,
      "note": 51,
      "start": 19.7323,
      "duration": 0.0816,
      "velocity": 105,
      "chip": "ym2612"
    },
    {
      "channel": 4,
      "note": 55,
      "start": 19.733,
      "duration": 0.0814,
      "velocity": 106,
      "chip": "ym2612"
    },
    {
      "channel": 0,
      "note": 33,
      "start": 19.8629,
      "duration": 0.1314,
      "velocity": 127,
      "chip": "ym2612"
    },
    {
      "channel": 1,
      "note": 29,
      "start": 19.8635,
      "duration": 0.1319,
      "velocity": 117,
      "chip": "ym2612"
    },
    {
      "channel": 2,
      "note": 53,
      "start": 19.8641,
      "duration": 0.1319,
      "velocity": 84,
      "chip": "ym2612"
    },
    {
      "channel": 3,
      "note": 58,
      "start": 19.8648,
      "duration": 0.0815,
      "velocity": 8,
      "chip": "ym2612"
    },
    {
      "channel": 4,
      "note": 51,
      "start": 19.8654,
      "duration": 0.0814,
      "velocity": 105,
      "chip": "ym2612"
    },
    {
      "channel": 0,
      "note": 21,
      "start": 19.9952,
      "duration": 0.1314,
      "velocity": 120,
      "chip": "ym2612"
    },
    {
      "channel": 1,
      "note": 29,
      "start": 19.9959,
      "duration": 0.1313,
      "velocity": 13,
      "chip": "ym2612"
    },
    {
      "channel": 2,
      "note": 44,
      "start": 19.9966,
      "duration": 0.1313,
      "velocity": 83,
      "chip": "ym2612"
    },
    {
      "channel": 3,
      "note": 51,
      "start": 19.9972,
      "duration": 0.0815,
      "velocity": 103,
      "chip": "ym2612"
    },
    {
      "channel": 4,
      "note": 58,
      "start": 19.9978,
      "duration": 0.0814,
      "velocity": 8,
      "chip": "ym2612"
    },
    {
      "channel": 0,
      "note": 21,
      "start": 20.1271,
      "duration": 0.1319,
      "velocity": 112,
      "chip": "ym2612"
    },
    {
      "channel": 1,
      "note": 29,
      "start": 20.1277,
      "duration": 0.1325,
      "velocity": 124,
      "chip": "ym2612"
    },
    {
      "channel": 2,
      "note": 41,
      "start": 20.1284,
      "duration": 0.1325,
      "velocity": 82,
      "chip": "ym2612"
    },
    {
      "channel": 3,
      "note": 56,
      "start": 20.129,
      "duration": 0.0821,
      "velocity": 102,
      "chip": "ym2612"
    },
    {
      "channel": 4,
      "note": 51,
      "start": 20.1296,
      "duration": 0.082,
      "velocity": 103,
      "chip": "ym2612"
    },
    {
      "channel": 0,
      "note": 33,
      "start": 20.2601,
      "duration": 0.1314,
      "velocity": 119,
      "chip": "ym2612"
    },
    {
      "channel": 1,
      "note": 29,
      "start": 20.2607,
      "duration": 0.1319,
      "velocity": 115,
      "chip": "ym2612"
    },
    {
      "channel": 2,
      "note": 41,
      "start": 20.2614,
      "duration": 0.1319,
      "velocity": 83,
      "chip": "ym2612"
    },
    {
      "channel": 3,
      "note": 51,
      "start": 20.262,
      "duration": 0.0816,
      "velocity": 109,
      "chip": "ym2612"
    },
    {
      "channel": 4,
      "note": 56,
      "start": 20.2627,
      "duration": 0.0814,
      "velocity": 102,
      "chip": "ym2612"
    },
    {
      "channel": 0,
      "note": 21,
      "start": 20.3925,
      "duration": 0.1314,
      "velocity": 112,
      "chip": "ym2612"
    },
    {
      "channel": 1,
      "note": 29,
      "start": 20.3932,
      "duration": 0.1313,
      "velocity": 13,
      "chip": "ym2612"
    },
    {
      "channel": 2,
      "note": 44,
      "start": 20.3938,
      "duration": 0.1313,
      "velocity": 84,
      "chip": "ym2612"
    },
    {
      "channel": 3,
      "note": 55,
      "start": 20.3945,
      "duration": 0.0815,
      "velocity": 12,
      "chip": "ym2612"
    },
    {
      "channel": 4,
      "note": 51,
      "start": 20.3951,
      "duration": 0.0814,
      "velocity": 109,
      "chip": "ym2612"
    },
    {
      "channel": 0,
      "note": 21,
      "start": 20.5244,
      "duration": 0.132,
      "velocity": 112,
      "chip": "ym2612"
    },
    {
      "channel": 1,
      "note": 29,
      "start": 20.525,
      "duration": 0.1326,
      "velocity": 13,
      "chip": "ym2612"
    },
    {
      "channel": 2,
      "note": 41,
      "start": 20.5256,
      "duration": 0.1326,
      "velocity": 85,
      "chip": "ym2612"
    },
    {
      "channel": 3,
      "note": 51,
      "start": 20.5263,
      "duration": 0.0821,
      "velocity": 107,
      "chip": "ym2612"
    },
    {
      "channel": 4,
      "note": 55,
      "start": 20.5269,
      "duration": 0.082,
      "velocity": 12,
      "chip": "ym2612"
    },
    {
      "channel": 0,
      "note": 22,
      "start": 20.6574,
      "duration": 0.2637,
      "velocity": 119,
      "chip": "ym2612"
    },
    {
      "channel": 1,
      "note": 29,
      "start": 20.658,
      "duration": 0.1312,
      "velocity": 124,
      "chip": "ym2612"
    },
    {
      "channel": 2,
      "note": 44,
      "start": 20.6587,
      "duration": 0.1312,
      "velocity": 86,
      "chip": "ym2612"
    },
    {
      "channel": 3,
      "note": 56,
      "start": 20.6593,
      "duration": 0.0815,
      "velocity": 106,
      "chip": "ym2612"
    },
    {
      "channel": 4,
      "note": 51,
      "start": 20.66,
      "duration": 0.0814,
      "velocity": 107,
      "chip": "ym2612"
    },
    {
      "channel": 1,
      "note": 29,
      "start": 20.7897,
      "duration": 0.1326,
      "velocity": 120,
      "chip": "ym2612"
    },
    {
      "channel": 2,
      "note": 53,
      "start": 20.7903,
      "duration": 0.1326,
      "velocity": 87,
      "chip": "ym2612"
    },
    {
      "channel": 3,
      "note": 51,
      "start": 20.791,
      "duration": 0.0823,
      "velocity": 105,
      "chip": "ym2612"
    },
    {
      "channel": 4,
      "note": 56,
      "start": 20.7917,
      "duration": 0.0821,
      "velocity": 106,
      "chip": "ym2612"
    },
    {
      "channel": 0,
      "note": 21,
      "start": 20.9222,
      "duration": 0.1314,
      "velocity": 112,
      "chip": "ym2612"
    },
    {
      "channel": 1,
      "note": 29,
      "start": 20.9228,
      "duration": 0.132,
      "velocity": 93,
      "chip": "ym2612"
    },
    {
      "channel": 2,
      "note": 41,
      "start": 20.9235,
      "duration": 0.132,
      "velocity": 88,
      "chip": "ym2612"
    },
    {
      "channel": 3,
      "note": 55,
      "start": 20.9241,
      "duration": 0.0816,
      "velocity": 8,
      "chip": "ym2612"
    },
    {
      "channel": 4,
      "note": 48,
      "start": 20.9247,
      "duration": 0.0815,
      "velocity": 105,
      "chip": "ym2612"
    },
    {
      "channel": 0,
      "note": 22,
      "start": 21.0547,
      "duration": 0.1312,
      "velocity": 119,
      "chip": "ym2612"
    },
    {
      "channel": 1,
      "note": 29,
      "start": 21.0554,
      "duration": 0.1319,
      "velocity": 13,
      "chip": "ym2612"
    },
    {
      "channel": 2,
      "note": 44,
      "start": 21.056,
      "duration": 0.1319,
      "velocity": 89,
      "chip": "ym2612"
    },
    {
      "channel": 3,
      "note": 48,
      "start": 21.0566,
      "duration": 0.0815,
      "velocity": 103,
      "chip": "ym2612"
    },
    {
      "channel": 4,
      "note": 55,
      "start": 21.0573,
      "duration": 0.1324,
      "velocity": 8,
      "chip": "ym2612"
    },
    {
      "channel": 0,
      "note": 84,
      "start": 21.187,
      "duration": 0.0821,
      "velocity": 102,
      "chip": "ym2612"
    },
    {
      "channel": 1,
      "note": 29,
      "start": 21.1877,
      "duration": 0.1314,
      "velocity": 124,
      "chip": "ym2612"
    },
    {
      "channel": 2,
      "note": 51,
      "start": 21.1884,
      "duration": 0.1314,
      "velocity": 90,
      "chip": "ym2612"
    },
    {
      "channel": 3,
      "note": 60,
      "start": 21.1896,
      "duration": 0.1308,
      "velocity": 95,
      "chip": "ym2612"
    },
    {
      "channel": 4,
      "note": 53,
      "start": 21.1908,
      "duration": 2.1164,
      "velocity": 97,
      "chip": "ym2612"
    },
    {
      "channel": 5,
      "note": 7,
      "start": 21.1915,
      "duration": 2.1164,
      "velocity": 1,
      "chip": "ym2612"
    },
    {
      "channel": 0,
      "note": 84,
      "start": 21.3189,
      "duration": 0.0826,
      "velocity": 101,
      "chip": "ym2612"
    },
    {
      "channel": 1,
      "note": 29,
      "start": 21.3195,
      "duration": 0.132,
      "velocity": 110,
      "chip": "ym2612"
    },
    {
      "channel": 2,
      "note": 53,
      "start": 21.3202,
      "duration": 0.132,
      "velocity": 89,
      "chip": "ym2612"
    },
    {
      "channel": 3,
      "note": 65,
      "start": 21.3209,
      "duration": 0.1319,
      "velocity": 94,
      "chip": "ym2612"
    },
    {
      "channel": 0,
      "note": 84,
      "start": 21.4513,
      "duration": 0.0826,
      "velocity": 102,
      "chip": "ym2612"
    },
    {
      "channel": 1,
      "note": 29,
      "start": 21.452,
      "duration": 0.1319,
      "velocity": 93,
      "chip": "ym2612"
    },
    {
      "channel": 2,
      "note": 41,
      "start": 21.4526,
      "duration": 0.1319,
      "velocity": 88,
      "chip": "ym2612"
    },
    {
      "channel": 3,
      "note": 60,
      "start": 21.4532,
      "duration": 0.1319,
      "velocity": 93,
      "chip": "ym2612"
    },
    {
      "channel": 0,
      "note": 84,
      "start": 21.5837,
      "duration": 0.0826,
      "velocity": 102,
      "chip": "ym2612"
    },
    {
      "channel": 1,
      "note": 29,
      "start": 21.5844,
      "duration": 0.1319,
      "velocity": 13,
      "chip": "ym2612"
    },
    {
      "channel": 2,
      "note": 41,
      "start": 21.585,
      "duration": 0.1319,
      "velocity": 87,
      "chip": "ym2612"
    },
    {
      "channel": 3,
      "note": 56,
      "start": 21.5856,
      "duration": 0.1319,
      "velocity": 92,
      "chip": "ym2612"
    },
    {
      "channel": 0,
      "note": 84,
      "start": 21.7162,
      "duration": 0.0826,
      "velocity": 101,
      "chip": "ym2612"
    },
    {
      "channel": 1,
      "note": 29,
      "start": 21.7168,
      "duration": 0.1319,
      "velocity": 124,
      "chip": "ym2612"
    },
    {
      "channel": 2,
      "note": 53,
      "start": 21.7174,
      "duration": 0.1319,
      "velocity": 86,
      "chip": "ym2612"
    },
    {
      "channel": 3,
      "note": 60,
      "start": 21.7181,
      "duration": 0.1319,
      "velocity": 91,
      "chip": "ym2612"
    },
    {
      "channel": 0,
      "note": 84,
      "start": 21.8486,
      "duration": 0.0826,
      "velocity": 102,
      "chip": "ym2612"
    },
    {
      "channel": 1,
      "note": 29,
      "start": 21.8492,
      "duration": 0.132,
      "velocity": 110,
      "chip": "ym2612"
    },
    {
      "channel": 2,
      "note": 41,
      "start": 21.8499,
      "duration": 0.132,
      "velocity": 85,
      "chip": "ym2612"
    },
    {
      "channel": 3,
      "note": 56,
      "start": 21.8505,
      "duration": 0.132,
      "velocity": 90,
      "chip": "ym2612"
    },
    {
      "channel": 0,
      "note": 84,
      "start": 21.981,
      "duration": 0.0826,
      "velocity": 102,
      "chip": "ym2612"
    },
    {
      "channel": 1,
      "note": 29,
      "start": 21.9816,
      "duration": 0.132,
      "velocity": 117,
      "chip": "ym2612"
    },
    {
      "channel": 2,
      "note": 44,
      "start": 21.9822,
      "duration": 0.132,
      "velocity": 84,
      "chip": "ym2612"
    },
    {
      "channel": 3,
      "note": 53,
      "start": 21.9829,
      "duration": 0.132,
      "velocity": 89,
      "chip": "ym2612"
    },
    {
      "channel": 0,
      "note": 84,
      "start": 22.1134,
      "duration": 0.0826,
      "velocity": 101,
      "chip": "ym2612"
    },
    {
      "channel": 1,
      "note": 29,
      "start": 22.1141,
      "duration": 0.1319,
      "velocity": 13,
      "chip": "ym2612"
    },
    {
      "channel": 2,
      "note": 41,
      "start": 22.1147,
      "duration": 0.1319,
      "velocity": 83,
      "chip": "ym2612"
    },
    {
      "channel": 3,
      "note": 56,
      "start": 22.1153,
      "duration": 0.1319,
      "velocity": 88,
      "chip": "ym2612"
    },
    {
      "channel": 0,
      "note": 84,
      "start": 22.2459,
      "duration": 0.0826,
      "velocity": 102,
      "chip": "ym2612"
    },
    {
      "channel": 1,
      "note": 29,
      "start": 22.2465,
      "duration": 0.1319,
      "velocity": 124,
      "chip": "ym2612"
    },
    {
      "channel": 2,
      "note": 53,
      "start": 22.2471,
      "duration": 0.1319,
      "velocity": 82,
      "chip": "ym2612"
    },
    {
      "channel": 3,
      "note": 53,
      "start": 22.2478,
      "duration": 0.1319,
      "velocity": 87,
      "chip": "ym2612"
    },
    {
      "channel": 0,
      "note": 84,
      "start": 22.3783,
      "duration": 0.0826,
      "velocity": 101,
      "chip": "ym2612"
    },
    {
      "channel": 1,
      "note": 29,
      "start": 22.3789,
      "duration": 0.1319,
      "velocity": 115,
      "chip": "ym2612"
    },
    {
      "channel": 2,
      "note": 41,
      "start": 22.3795,
      "duration": 0.1319,
      "velocity": 83,
      "chip": "ym2612"
    },
    {
      "channel": 3,
      "note": 48,
      "start": 22.3802,
      "duration": 0.1319,
      "velocity": 88,
      "chip": "ym2612"
    },
    {
      "channel": 0,
      "note": 84,
      "start": 22.5107,
      "duration": 0.0826,
      "velocity": 102,
      "chip": "ym2612"
    },
    {
      "channel": 1,
      "note": 29,
      "start": 22.5113,
      "duration": 0.132,
      "velocity": 13,
      "chip": "ym2612"
    },
    {
      "channel": 2,
      "note": 41,
      "start": 22.512,
      "duration": 0.132,
      "velocity": 84,
      "chip": "ym2612"
    },
    {
      "channel": 3,
      "note": 53,
      "start": 22.5126,
      "duration": 0.132,
      "velocity": 89,
      "chip": "ym2612"
    },
    {
      "channel": 0,
      "note": 84,
      "start": 22.6431,
      "duration": 0.0826,
      "velocity": 102,
      "chip": "ym2612"
    },
    {
      "channel": 1,
      "note": 29,
      "start": 22.6438,
      "duration": 0.1319,
      "velocity": 13,
      "chip": "ym2612"
    },
    {
      "channel": 2,
      "note": 53,
      "start": 22.6444,
      "duration": 0.1319,
      "velocity": 85,
      "chip": "ym2612"
    },
    {
      "channel": 3,
      "note": 48,
      "start": 22.645,
      "duration": 0.1319,
      "velocity": 90,
      "chip": "ym2612"
    },
    {
      "channel": 0,
      "note": 84,
      "start": 22.7755,
      "duration": 0.0826,
      "velocity": 101,
      "chip": "ym2612"
    },
    {
      "channel": 1,
      "note": 29,
      "start": 22.7761,
      "duration": 0.1319,
      "velocity": 124,
      "chip": "ym2612"
    },
    {
      "channel": 2,
      "note": 41,
      "start": 22.7768,
      "duration": 0.1319,
      "velocity": 86,
      "chip": "ym2612"
    },
    {
      "channel": 3,
      "note": 44,
      "start": 22.7774,
      "duration": 0.1319,
      "velocity": 91,
      "chip": "ym2612"
    },
    {
      "channel": 0,
      "note": 84,
      "start": 22.908,
      "duration": 0.0826,
      "velocity": 102,
      "chip": "ym2612"
    },
    {
      "channel": 1,
      "note": 29,
      "start": 22.9086,
      "duration": 0.1319,
      "velocity": 120,
      "chip": "ym2612"
    },
    {
      "channel": 2,
      "note": 53,
      "start": 22.9092,
      "duration": 0.1319,
      "velocity": 87,
      "chip": "ym2612"
    },
    {
      "channel": 3,
      "note": 48,
      "start": 22.9099,
      "duration": 0.1319,
      "velocity": 92,
      "chip": "ym2612"
    },
    {
      "channel": 0,
      "note": 84,
      "start": 23.0403,
      "duration": 0.0826,
      "velocity": 102,
      "chip": "ym2612"
    },
    {
      "channel": 1,
      "note": 29,
      "start": 23.041,
      "duration": 0.132,
      "velocity": 93,
      "chip": "ym2612"
    },
    {
      "channel": 2,
      "note": 44,
      "start": 23.0416,
      "duration": 0.132,
      "velocity": 88,
      "chip": "ym2612"
    },
    {
      "channel": 3,
      "note": 44,
      "start": 23.0422,
      "duration": 0.132,
      "velocity": 93,
      "chip": "ym2612"
    },
    {
      "channel": 0,
      "note": 84,
      "start": 23.1728,
      "duration": 0.0826,
      "velocity": 101,
      "chip": "ym2612"
    },
    {
      "channel": 1,
      "note": 29,
      "start": 23.1734,
      "duration": 0.132,
      "velocity": 13,
      "chip": "ym2612"
    },
    {
      "channel": 2,
      "note": 41,
      "start": 23.174,
      "duration": 0.132,
      "velocity": 89,
      "chip": "ym2612"
    },
    {
      "channel": 3,
      "note": 41,
      "start": 23.1747,
      "duration": 0.132,
      "velocity": 94,
      "chip": "ym2612"
    },
    {
      "channel": 0,
      "note": 84,
      "start": 23.3052,
      "duration": 0.0826,
      "velocity": 102,
      "chip": "ym2612"
    },
    {
      "channel": 1,
      "note": 29,
      "start": 23.3059,
      "duration": 0.132,
      "velocity": 124,
      "chip": "ym2612"
    },
    {
      "channel": 2,
      "note": 51,
      "start": 23.3065,
      "duration": 0.132,
      "velocity": 90,
      "chip": "ym2612"
    },
    {
      "channel": 3,
      "note": 42,
      "start": 23.3071,
      "duration": 0.132,
      "velocity": 95,
      "chip": "ym2612"
    },
    {
      "channel": 4,
      "note": 54,
      "start": 23.3078,
      "duration": 2.1182,
      "velocity": 97,
      "chip": "ym2612"
    },
    {
      "channel": 5,
      "note": 7,
      "start": 23.3084,
      "duration": 2.1183,
      "velocity": 1,
      "chip": "ym2612"
    },
    {
      "channel": 0,
      "note": 84,
      "start": 23.4377,
      "duration": 0.0826,
      "velocity": 101,
      "chip": "ym2612"
    },
    {
      "channel": 1,
      "note": 29,
      "start": 23.4383,
      "duration": 0.1319,
      "velocity": 110,
      "chip": "ym2612"
    },
    {
      "channel": 2,
      "note": 54,
      "start": 23.4389,
      "duration": 0.1319,
      "velocity": 89,
      "chip": "ym2612"
    },
    {
      "channel": 3,
      "note": 46,
      "start": 23.4396,
      "duration": 0.1319,
      "velocity": 94,
      "chip": "ym2612"
    },
    {
      "channel": 0,
      "note": 84,
      "start": 23.57,
      "duration": 0.0826,
      "velocity": 102,
      "chip": "ym2612"
    },
    {
      "channel": 1,
      "note": 29,
      "start": 23.5707,
      "duration": 0.1319,
      "velocity": 93,
      "chip": "ym2612"
    },
    {
      "channel": 2,
      "note": 42,
      "start": 23.5714,
      "duration": 0.1319,
      "velocity": 88,
      "chip": "ym2612"
    },
    {
      "channel": 3,
      "note": 51,
      "start": 23.572,
      "duration": 0.1319,
      "velocity": 93,
      "chip": "ym2612"
    },
    {
      "channel": 0,
      "note": 84,
      "start": 23.7025,
      "duration": 0.0826,
      "velocity": 102,
      "chip": "ym2612"
    },
    {
      "channel": 1,
      "note": 29,
      "start": 23.7031,
      "duration": 0.132,
      "velocity": 13,
      "chip": "ym2612"
    },
    {
      "channel": 2,
      "note": 42,
      "start": 23.7038,
      "duration": 0.1319,
      "velocity": 87,
      "chip": "ym2612"
    },
    {
      "channel": 3,
      "note": 46,
      "start": 23.7044,
      "duration": 0.1319,
      "velocity": 92,
      "chip": "ym2612"
    },
    {
      "channel": 0,
      "note": 84,
      "start": 23.8349,
      "duration": 0.0826,
      "velocity": 101,
      "chip": "ym2612"
    },
    {
      "channel": 1,
      "note": 29,
      "start": 23.8355,
      "duration": 0.132,
      "velocity": 124,
      "chip": "ym2612"
    },
    {
      "channel": 2,
      "note": 54,
      "start": 23.8361,
      "duration": 0.132,
      "velocity": 86,
      "chip": "ym2612"
    },
    {
      "channel": 3,
      "note": 51,
      "start": 23.8368,
      "duration": 0.132,
      "velocity": 91,
      "chip": "ym2612"
    },
    {
      "channel": 0,
      "note": 84,
      "start": 23.9673,
      "duration": 0.0826,
      "velocity": 102,
      "chip": "ym2612"
    },
    {
      "channel": 1,
      "note": 29,
      "start": 23.9679,
      "duration": 0.1319,
      "velocity": 110,
      "chip": "ym2612"
    },
    {
      "channel": 2,
      "note": 42,
      "start": 23.9686,
      "duration": 0.1319,
      "velocity": 85,
      "chip": "ym2612"
    },
    {
      "channel": 3,
      "note": 54,
      "start": 23.9692,
      "duration": 0.1319,
      "velocity": 90,
      "chip": "ym2612"
    },
    {
      "channel": 0,
      "note": 84,
      "start": 24.0998,
      "duration": 0.0826,
      "velocity": 102,
      "chip": "ym2612"
    },
    {
      "channel": 1,
      "note": 29,
      "start": 24.1004,
      "duration": 0.1319,
      "velocity": 117,
      "chip": "ym2612"
    },
    {
      "channel": 2,
      "note": 45,
      "start": 24.101,
      "duration": 0.1319,
      "velocity": 84,
      "chip": "ym2612"
    },
    {
      "channel": 3,
      "note": 51,
      "start": 24.1017,
      "duration": 0.1319,
      "velocity": 89,
      "chip": "ym2612"
    },
    {
      "channel": 0,
      "note": 84,
      "start": 24.2321,
      "duration": 0.0826,
      "velocity": 101,
      "chip": "ym2612"
    },
    {
      "channel": 1,
      "note": 29,
      "start": 24.2328,
      "duration": 0.1319,
      "velocity": 13,
      "chip": "ym2612"
    },
    {
      "channel": 2,
      "note": 42,
      "start": 24.2334,
      "duration": 0.1319,
      "velocity": 83,
      "chip": "ym2612"
    },
    {
      "channel": 3,
      "note": 54,
      "start": 24.234,
      "duration": 0.1319,
      "velocity": 88,
      "chip": "ym2612"
    },
    {
      "channel": 0,
      "note": 84,
      "start": 24.3646,
      "duration": 0.0827,
      "velocity": 102,
      "chip": "ym2612"
    },
    {
      "channel": 1,
      "note": 29,
      "start": 24.3652,
      "duration": 0.132,
      "velocity": 124,
      "chip": "ym2612"
    },
    {
      "channel": 2,
      "note": 54,
      "start": 24.3659,
      "duration": 0.1319,
      "velocity": 82,
      "chip": "ym2612"
    },
    {
      "channel": 3,
      "note": 58,
      "start": 24.3665,
      "duration": 0.1319,
      "velocity": 87,
      "chip": "ym2612"
    },
    {
      "channel": 0,
      "note": 84,
      "start": 24.4969,
      "duration": 0.0826,
      "velocity": 101,
      "chip": "ym2612"
    },
    {
      "channel": 1,
      "note": 29,
      "start": 24.4976,
      "duration": 0.132,
      "velocity": 115,
      "chip": "ym2612"
    },
    {
      "channel": 2,
      "note": 42,
      "start": 24.4982,
      "duration": 0.132,
      "velocity": 83,
      "chip": "ym2612"
    },
    {
      "channel": 3,
      "note": 54,
      "start": 24.4988,
      "duration": 0.132,
      "velocity": 88,
      "chip": "ym2612"
    },
    {
      "channel": 0,
      "note": 84,
      "start": 24.6294,
      "duration": 0.0826,
      "velocity": 102,
      "chip": "ym2612"
    },
    {
      "channel": 1,
      "note": 29,
      "start": 24.63,
      "duration": 0.1319,
      "velocity": 13,
      "chip": "ym2612"
    },
    {
      "channel": 2,
      "note": 42,
      "start": 24.6307,
      "duration": 0.1319,
      "velocity": 84,
      "chip": "ym2612"
    },
    {
      "channel": 3,
      "note": 58,
      "start": 24.6313,
      "duration": 0.1319,
      "velocity": 89,
      "chip": "ym2612"
    },
    {
      "channel": 0,
      "note": 84,
      "start": 24.7618,
      "duration": 0.0826,
      "velocity": 102,
      "chip": "ym2612"
    },
    {
      "channel": 1,
      "note": 29,
      "start": 24.7625,
      "duration": 0.1319,
      "velocity": 13,
      "chip": "ym2612"
    },
    {
      "channel": 2,
      "note": 54,
      "start": 24.7631,
      "duration": 0.1319,
      "velocity": 85,
      "chip": "ym2612"
    },
    {
      "channel": 3,
      "note": 63,
      "start": 24.7637,
      "duration": 0.1319,
      "velocity": 90,
      "chip": "ym2612"
    },
    {
      "channel": 0,
      "note": 84,
      "start": 24.8942,
      "duration": 0.0826,
      "velocity": 101,
      "chip": "ym2612"
    },
    {
      "channel": 1,
      "note": 29,
      "start": 24.8949,
      "duration": 0.132,
      "velocity": 124,
      "chip": "ym2612"
    },
    {
      "channel": 2,
      "note": 42,
      "start": 24.8955,
      "duration": 0.132,
      "velocity": 86,
      "chip": "ym2612"
    },
    {
      "channel": 3,
      "note": 58,
      "start": 24.8961,
      "duration": 0.132,
      "velocity": 91,
      "chip": "ym2612"
    },
    {
      "channel": 0,
      "note": 84,
      "start": 25.0266,
      "duration": 0.0827,
      "velocity": 102,
      "chip": "ym2612"
    },
    {
      "channel": 1,
      "note": 29,
      "start": 25.0273,
      "duration": 0.132,
      "velocity": 120,
      "chip": "ym2612"
    },
    {
      "channel": 2,
      "note": 54,
      "start": 25.0279,
      "duration": 0.1319,
      "velocity": 87,
      "chip": "ym2612"
    },
    {
      "channel": 3,
      "note": 63,
      "start": 25.0286,
      "duration": 0.1319,
      "velocity": 92,
      "chip": "ym2612"
    },
    {
      "channel": 0,
      "note": 84,
      "start": 25.1591,
      "duration": 0.0826,
      "velocity": 102,
      "chip": "ym2612"
    },
    {
      "channel": 1,
      "note": 29,
      "start": 25.1597,
      "duration": 0.1319,
      "velocity": 93,
      "chip": "ym2612"
    },
    {
      "channel": 2,
      "note": 45,
      "start": 25.1604,
      "duration": 0.132,
      "velocity": 88,
      "chip": "ym2612"
    },
    {
      "channel": 3,
      "note": 66,
      "start": 25.161,
      "duration": 0.132,
      "velocity": 93,
      "chip": "ym2612"
    },
    {
      "channel": 0,
      "note": 84,
      "start": 25.2915,
      "duration": 0.0826,
      "velocity": 101,
      "chip": "ym2612"
    },
    {
      "channel": 1,
      "note": 29,
      "start": 25.2921,
      "duration": 0.1319,
      "velocity": 13,
      "chip": "ym2612"
    },
    {
      "channel": 2,
      "note": 42,
      "start": 25.2927,
      "duration": 0.1319,
      "velocity": 89,
      "chip": "ym2612"
    },
    {
      "channel": 3,
      "note": 61,
      "start": 25.2934,
      "duration": 0.132,
      "velocity": 94,
      "chip": "ym2612"
    },
    {
      "channel": 0,
      "note": 84,
      "start": 25.4239,
      "duration": 0.0826,
      "velocity": 102,
      "chip": "ym2612"
    },
    {
      "channel": 1,
      "note": 29,
      "start": 25.4246,
      "duration": 0.1319,
      "velocity": 124,
      "chip": "ym2612"
    },
    {
      "channel": 2,
      "note": 52,
      "start": 25.4252,
      "duration": 0.1319,
      "velocity": 90,
      "chip": "ym2612"
    },
    {
      "channel": 3,
      "note": 60,
      "start": 25.4258,
      "duration": 0.1319,
      "velocity": 95,
      "chip": "ym2612"
    },
    {
      "channel": 4,
      "note": 53,
      "start": 25.4265,
      "duration": 2.1188,
      "velocity": 97,
      "chip": "ym2612"
    },
    {
      "channel": 5,
      "note": 7,
      "start": 25.4271,
      "duration": 2.1188,
      "velocity": 1,
      "chip": "ym2612"
    },
    {
      "channel": 0,
      "note": 84,
      "start": 25.5564,
      "duration": 0.0826,
      "velocity": 101,
      "chip": "ym2612"
    },
    {
      "channel": 1,
      "note": 29,
      "start": 25.557,
      "duration": 0.1319,
      "velocity": 110,
      "chip": "ym2612"
    },
    {
      "channel": 2,
      "note": 53,
      "start": 25.5576,
      "duration": 0.1319,
      "velocity": 89,
      "chip": "ym2612"
    },
    {
      "channel": 3,
      "note": 65,
      "start": 25.5583,
      "duration": 0.1319,
      "velocity": 94,
      "chip": "ym2612"
    },
    {
      "channel": 0,
      "note": 84,
      "start": 25.6887,
      "duration": 0.0827,
      "velocity": 102,
      "chip": "ym2612"
    },
    {
      "channel": 1,
      "note": 29,
      "start": 25.6894,
      "duration": 0.132,
      "velocity": 93,
      "chip": "ym2612"
    },
    {
      "channel": 2,
      "note": 41,
      "start": 25.69,
      "duration": 0.132,
      "velocity": 88,
      "chip": "ym2612"
    },
    {
      "channel": 3,
      "note": 60,
      "start": 25.6907,
      "duration": 0.132,
      "velocity": 93,
      "chip": "ym2612"
    },
    {
      "channel": 0,
      "note": 84,
      "start": 25.8212,
      "duration": 0.0825,
      "velocity": 102,
      "chip": "ym2612"
    },
    {
      "channel": 1,
      "note": 29,
      "start": 25.8219,
      "duration": 0.1319,
      "velocity": 13,
      "chip": "ym2612"
    },
    {
      "channel": 2,
      "note": 41,
      "start": 25.8225,
      "duration": 0.1319,
      "velocity": 87,
      "chip": "ym2612"
    },
    {
      "channel": 3,
      "note": 56,
      "start": 25.8232,
      "duration": 0.1319,
      "velocity": 92,
      "chip": "ym2612"
    },
    {
      "channel": 0,
      "note": 84,
      "start": 25.9536,
      "duration": 0.0826,
      "velocity": 101,
      "chip": "ym2612"
    },
    {
      "channel": 1,
      "note": 29,
      "start": 25.9543,
      "duration": 0.1319,
      "velocity": 124,
      "chip": "ym2612"
    },
    {
      "channel": 2,
      "note": 53,
      "start": 25.955,
      "duration": 0.1319,
      "velocity": 86,
      "chip": "ym2612"
    },
    {
      "channel": 3,
      "note": 60,
      "start": 25.9556,
      "duration": 0.1319,
      "velocity": 91,
      "chip": "ym2612"
    },
    {
      "channel": 0,
      "note": 84,
      "start": 26.086,
      "duration": 0.0826,
      "velocity": 102,
      "chip": "ym2612"
    },
    {
      "channel": 1,
      "note": 29,
      "start": 26.0866,
      "duration": 0.1319,
      "velocity": 110,
      "chip": "ym2612"
    },
    {
      "channel": 2,
      "note": 41,
      "start": 26.0873,
      "duration": 0.1319,
      "velocity": 85,
      "chip": "ym2612"
    },
    {
      "channel": 3,
      "note": 56,
      "start": 26.088,
      "duration": 0.1319,
      "velocity": 90,
      "chip": "ym2612"
    },
    {
      "channel": 0,
      "note": 84,
      "start": 26.2185,
      "duration": 0.0826,
      "velocity": 102,
      "chip": "ym2612"
    },
    {
      "channel": 1,
      "note": 29,
      "start": 26.2191,
      "duration": 0.1319,
      "velocity": 117,
      "chip": "ym2612"
    },
    {
      "channel": 2,
      "note": 44,
      "start": 26.2197,
      "duration": 0.1319,
      "velocity": 84,
      "chip": "ym2612"
    },
    {
      "channel": 3,
      "note": 53,
      "start": 26.2204,
      "duration": 0.1319,
      "velocity": 89,
      "chip": "ym2612"
    },
    {
      "channel": 0,
      "note": 84,
      "start": 26.3508,
      "duration": 0.0827,
      "velocity": 101,
      "chip": "ym2612"
    },
    {
      "channel": 1,
      "note": 29,
      "start": 26.3515,
      "duration": 0.132,
      "velocity": 13,
      "chip": "ym2612"
    },
    {
      "channel": 2,
      "note": 41,
      "start": 26.3521,
      "duration": 0.132,
      "velocity": 83,
      "chip": "ym2612"
    },
    {
      "channel": 3,
      "note": 56,
      "start": 26.3527,
      "duration": 0.132,
      "velocity": 88,
      "chip": "ym2612"
    },
    {
      "channel": 0,
      "note": 84,
      "start": 26.4833,
      "duration": 0.0826,
      "velocity": 102,
      "chip": "ym2612"
    },
    {
      "channel": 1,
      "note": 29,
      "start": 26.4839,
      "duration": 0.132,
      "velocity": 124,
      "chip": "ym2612"
    },
    {
      "channel": 2,
      "note": 53,
      "start": 26.4845,
      "duration": 0.132,
      "velocity": 82,
      "chip": "ym2612"
    },
    {
      "channel": 3,
      "note": 53,
      "start": 26.4852,
      "duration": 0.132,
      "velocity": 87,
      "chip": "ym2612"
    },
    {
      "channel": 0,
      "note": 84,
      "start": 26.6157,
      "duration": 0.0826,
      "velocity": 101,
      "chip": "ym2612"
    },
    {
      "channel": 1,
      "note": 29,
      "start": 26.6163,
      "duration": 0.1319,
      "velocity": 115,
      "chip": "ym2612"
    },
    {
      "channel": 2,
      "note": 41,
      "start": 26.617,
      "duration": 0.1319,
      "velocity": 83,
      "chip": "ym2612"
    },
    {
      "channel": 3,
      "note": 48,
      "start": 26.6176,
      "duration": 0.1319,
      "velocity": 88,
      "chip": "ym2612"
    },
    {
      "channel": 0,
      "note": 84,
      "start": 26.7481,
      "duration": 0.0826,
      "velocity": 102,
      "chip": "ym2612"
    },
    {
      "channel": 1,
      "note": 29,
      "start": 26.7487,
      "duration": 0.132,
      "velocity": 13,
      "chip": "ym2612"
    },
    {
      "channel": 2,
      "note": 41,
      "start": 26.7494,
      "duration": 0.132,
      "velocity": 84,
      "chip": "ym2612"
    },
    {
      "channel": 3,
      "note": 53,
      "start": 26.75,
      "duration": 0.132,
      "velocity": 89,
      "chip": "ym2612"
    },
    {
      "channel": 0,
      "note": 84,
      "start": 26.8805,
      "duration": 0.0826,
      "velocity": 102,
      "chip": "ym2612"
    },
    {
      "channel": 1,
      "note": 29,
      "start": 26.8812,
      "duration": 0.1319,
      "velocity": 13,
      "chip": "ym2612"
    },
    {
      "channel": 2,
      "note": 53,
      "start": 26.8818,
      "duration": 0.1319,
      "velocity": 85,
      "chip": "ym2612"
    },
    {
      "channel": 3,
      "note": 48,
      "start": 26.8824,
      "duration": 0.1319,
      "velocity": 90,
      "chip": "ym2612"
    },
    {
      "channel": 0,
      "note": 84,
      "start": 27.013,
      "duration": 0.0826,
      "velocity": 101,
      "chip": "ym2612"
    },
    {
      "channel": 1,
      "note": 29,
      "start": 27.0136,
      "duration": 0.132,
      "velocity": 124,
      "chip": "ym2612"
    },
    {
      "channel": 2,
      "note": 41,
      "start": 27.0142,
      "duration": 0.132,
      "velocity": 86,
      "chip": "ym2612"
    },
    {
      "channel": 3,
      "note": 44,
      "start": 27.0149,
      "duration": 0.132,
      "velocity": 91,
      "chip": "ym2612"
    },
    {
      "channel": 0,
      "note": 84,
      "start": 27.1454,
      "duration": 0.0826,
      "velocity": 102,
      "chip": "ym2612"
    },
    {
      "channel": 1,
      "note": 29,
      "start": 27.146,
      "duration": 0.132,
      "velocity": 120,
      "chip": "ym2612"
    },
    {
      "channel": 2,
      "note": 53,
      "start": 27.1466,
      "duration": 0.132,
      "velocity": 87,
      "chip": "ym2612"
    },
    {
      "channel": 3,
      "note": 48,
      "start": 27.1473,
      "duration": 0.132,
      "velocity": 92,
      "chip": "ym2612"
    },
    {
      "channel": 0,
      "note": 84,
      "start": 27.2778,
      "duration": 0.0826,
      "velocity": 102,
      "chip": "ym2612"
    },
    {
      "channel": 1,
      "note": 29,
      "start": 27.2784,
      "duration": 0.1319,
      "velocity": 93,
      "chip": "ym2612"
    },
    {
      "channel": 2,
      "note": 44,
      "start": 27.2791,
      "duration": 0.1319,
      "velocity": 88,
      "chip": "ym2612"
    },
    {
      "channel": 3,
      "note": 44,
      "start": 27.2797,
      "duration": 0.1319,
      "velocity": 93,
      "chip": "ym2612"
    },
    {
      "channel": 0,
      "note": 84,
      "start": 27.4102,
      "duration": 0.0826,
      "velocity": 101,
      "chip": "ym2612"
    },
    {
      "channel": 1,
      "note": 29,
      "start": 27.4109,
      "duration": 0.1319,
      "velocity": 13,
      "chip": "ym2612"
    },
    {
      "channel": 2,
      "note": 41,
      "start": 27.4115,
      "duration": 0.1325,
      "velocity": 89,
      "chip": "ym2612"
    },
    {
      "channel": 3,
      "note": 41,
      "start": 27.4122,
      "duration": 0.1325,
      "velocity": 94,
      "chip": "ym2612"
    },
    {
      "channel": 0,
      "note": 84,
      "start": 27.5426,
      "duration": 0.0826,
      "velocity": 102,
      "chip": "ym2612"
    },
    {
      "channel": 1,
      "note": 7,
      "start": 27.5438,
      "duration": 2.1183,
      "velocity": 1,
      "chip": "ym2612"
    },
    {
      "channel": 2,
      "note": 51,
      "start": 27.5445,
      "duration": 0.1312,
      "velocity": 90,
      "chip": "ym2612"
    },
    {
      "channel": 3,
      "note": 42,
      "start": 27.5451,
      "duration": 0.1312,
      "velocity": 95,
      "chip": "ym2612"
    },
    {
      "channel": 4,
      "note": 54,
      "start": 27.5457,
      "duration": 2.1194,
      "velocity": 97,
      "chip": "ym2612"
    },
    {
      "channel": 5,
      "note": 7,
      "start": 27.5464,
      "duration": 2.12,
      "velocity": 1,
      "chip": "ym2612"
    },
    {
      "channel": 0,
      "note": 84,
      "start": 27.6751,
      "duration": 0.0826,
      "velocity": 101,
      "chip": "ym2612"
    },
    {
      "channel": 2,
      "note": 54,
      "start": 27.6761,
      "duration": 0.132,
      "velocity": 89,
      "chip": "ym2612"
    },
    {
      "channel": 3,
      "note": 46,
      "start": 27.6768,
      "duration": 0.132,
      "velocity": 94,
      "chip": "ym2612"
    },
    {
      "channel": 0,
      "note": 84,
      "start": 27.8075,
      "duration": 0.0826,
      "velocity": 102,
      "chip": "ym2612"
    },
    {
      "channel": 2,
      "note": 42,
      "start": 27.8086,
      "duration": 0.1319,
      "velocity": 88,
      "chip": "ym2612"
    },
    {
      "channel": 3,
      "note": 51,
      "start": 27.8092,
      "duration": 0.1319,
      "velocity": 93,
      "chip": "ym2612"
    },
    {
      "channel": 0,
      "note": 84,
      "start": 27.9399,
      "duration": 0.0826,
      "velocity": 102,
      "chip": "ym2612"
    },
    {
      "channel": 2,
      "note": 42,
      "start": 27.941,
      "duration": 0.132,
      "velocity": 87,
      "chip": "ym2612"
    },
    {
      "channel": 3,
      "note": 46,
      "start": 27.9417,
      "duration": 0.132,
      "velocity": 92,
      "chip": "ym2612"
    },
    {
      "channel": 0,
      "note": 84,
      "start": 28.0723,
      "duration": 0.0826,
      "velocity": 101,
      "chip": "ym2612"
    },
    {
      "channel": 2,
      "note": 54,
      "start": 28.0734,
      "duration": 0.132,
      "velocity": 86,
      "chip": "ym2612"
    },
    {
      "channel": 3,
      "note": 51,
      "start": 28.074,
      "duration": 0.132,
      "velocity": 91,
      "chip": "ym2612"
    },
    {
      "channel": 0,
      "note": 84,
      "start": 28.2048,
      "duration": 0.0827,
      "velocity": 102,
      "chip": "ym2612"
    },
    {
      "channel": 2,
      "note": 42,
      "start": 28.2059,
      "duration": 0.132,
      "velocity": 85,
      "chip": "ym2612"
    },
    {
      "channel": 3,
      "note": 54,
      "start": 28.2066,
      "duration": 0.1319,
      "velocity": 90,
      "chip": "ym2612"
    },
    {
      "channel": 0,
      "note": 84,
      "start": 28.3372,
      "duration": 0.0826,
      "velocity": 102,
      "chip": "ym2612"
    },
    {
      "channel": 2,
      "note": 45,
      "start": 28.3383,
      "duration": 0.1319,
      "velocity": 84,
      "chip": "ym2612"
    },
    {
      "channel": 3,
      "note": 51,
      "start": 28.3389,
      "duration": 0.1319,
      "velocity": 89,
      "chip": "ym2612"
    },
    {
      "channel": 0,
      "note": 84,
      "start": 28.4696,
      "duration": 0.0826,
      "velocity": 101,
      "chip": "ym2612"
    },
    {
      "channel": 2,
      "note": 42,
      "start": 28.4707,
      "duration": 0.1319,
      "velocity": 83,
      "chip": "ym2612"
    },
    {
      "channel": 3,
      "note": 54,
      "start": 28.4714,
      "duration": 0.1319,
      "velocity": 88,
      "chip": "ym2612"
    },
    {
      "channel": 0,
      "note": 84,
      "start": 28.602,
      "duration": 0.0826,
      "velocity": 102,
      "chip": "ym2612"
    },
    {
      "channel": 2,
      "note": 54,
      "start": 28.6031,
      "duration": 0.132,
      "velocity": 82,
      "chip": "ym2612"
    },
    {
      "channel": 3,
      "note": 58,
      "start": 28.6038,
      "duration": 0.1319,
      "velocity": 87,
      "chip": "ym2612"
    },
    {
      "channel": 0,
      "note": 84,
      "start": 28.7344,
      "duration": 0.0826,
      "velocity": 101,
      "chip": "ym2612"
    },
    {
      "channel": 2,
      "note": 42,
      "start": 28.7355,
      "duration": 0.132,
      "velocity": 83,
      "chip": "ym2612"
    },
    {
      "channel": 3,
      "note": 54,
      "start": 28.7361,
      "duration": 0.132,
      "velocity": 88,
      "chip": "ym2612"
    },
    {
      "channel": 0,
      "note": 84,
      "start": 28.8668,
      "duration": 0.0826,
      "velocity": 102,
      "chip": "ym2612"
    },
    {
      "channel": 2,
      "note": 42,
      "start": 28.8679,
      "duration": 0.1319,
      "velocity": 84,
      "chip": "ym2612"
    },
    {
      "channel": 3,
      "note": 58,
      "start": 28.8686,
      "duration": 0.1319,
      "velocity": 89,
      "chip": "ym2612"
    },
    {
      "channel": 0,
      "note": 84,
      "start": 28.9992,
      "duration": 0.0826,
      "velocity": 102,
      "chip": "ym2612"
    },
    {
      "channel": 2,
      "note": 54,
      "start": 29.0004,
      "duration": 0.1319,
      "velocity": 85,
      "chip": "ym2612"
    },
    {
      "channel": 3,
      "note": 63,
      "start": 29.001,
      "duration": 0.1319,
      "velocity": 90,
      "chip": "ym2612"
    },
    {
      "channel": 0,
      "note": 84,
      "start": 29.1317,
      "duration": 0.0826,
      "velocity": 101,
      "chip": "ym2612"
    },
    {
      "channel": 2,
      "note": 42,
      "start": 29.1328,
      "duration": 0.132,
      "velocity": 86,
      "chip": "ym2612"
    },
    {
      "channel": 3,
      "note": 58,
      "start": 29.1334,
      "duration": 0.132,
      "velocity": 91,
      "chip": "ym2612"
    },
    {
      "channel": 0,
      "note": 84,
      "start": 29.2641,
      "duration": 0.0826,
      "velocity": 102,
      "chip": "ym2612"
    },
    {
      "channel": 2,
      "note": 54,
      "start": 29.2652,
      "duration": 0.132,
      "velocity": 87,
      "chip": "ym2612"
    },
    {
      "channel": 3,
      "note": 63,
      "start": 29.2659,
      "duration": 0.1319,
      "velocity": 92,
      "chip": "ym2612"
    },
    {
      "channel": 0,
      "note": 84,
      "start": 29.3965,
      "duration": 0.0826,
      "velocity": 102,
      "chip": "ym2612"
    },
    {
      "channel": 2,
      "note": 45,
      "start": 29.3976,
      "duration": 0.132,
      "velocity": 88,
      "chip": "ym2612"
    },
    {
      "channel": 3,
      "note": 66,
      "start": 29.3983,
      "duration": 0.132,
      "velocity": 93,
      "chip": "ym2612"
    },
    {
      "channel": 0,
      "note": 84,
      "start": 29.5289,
      "duration": 0.0827,
      "velocity": 101,
      "chip": "ym2612"
    },
    {
      "channel": 2,
      "note": 42,
      "start": 29.53,
      "duration": 0.1333,
      "velocity": 89,
      "chip": "ym2612"
    },
    {
      "channel": 3,
      "note": 61,
      "start": 29.5307,
      "duration": 0.1333,
      "velocity": 94,
      "chip": "ym2612"
    },
    {
      "channel": 0,
      "note": 33,
      "start": 29.6619,
      "duration": 0.1314,
      "velocity": 127,
      "chip": "ym2612"
    },
    {
      "channel": 1,
      "note": 29,
      "start": 29.6632,
      "duration": 0.1314,
      "velocity": 124,
      "chip": "ym2612"
    },
    {
      "channel": 2,
      "note": 52,
      "start": 29.6638,
      "duration": 0.1314,
      "velocity": 90,
      "chip": "ym2612"
    },
    {
      "channel": 3,
      "note": 84,
      "start": 29.665,
      "duration": 0.0804,
      "velocity": 102,
      "chip": "ym2612"
    },
    {
      "channel": 4,
      "note": 53,
      "start": 29.6662,
      "duration": 0.0797,
      "velocity": 122,
      "chip": "ym2612"
    },
    {
      "channel": 5,
      "note": 7,
      "start": 29.6669,
      "duration": 2.1164,
      "velocity": 1,
      "chip": "ym2612"
    },
    {
      "channel": 0,
      "note": 21,
      "start": 29.7943,
      "duration": 0.1314,
      "velocity": 120,
      "chip": "ym2612"
    },
    {
      "channel": 1,
      "note": 29,
      "start": 29.795,
      "duration": 0.1314,
      "velocity": 110,
      "chip": "ym2612"
    },
    {
      "channel": 2,
      "note": 53,
      "start": 29.7956,
      "duration": 0.1314,
      "velocity": 89,
      "chip": "ym2612"
    },
    {
      "channel": 3,
      "note": 84,
      "start": 29.7962,
      "duration": 0.0816,
      "velocity": 101,
      "chip": "ym2612"
    },
    {
      "channel": 4,
      "note": 53,
      "start": 29.7969,
      "duration": 0.0814,
      "velocity": 122,
      "chip": "ym2612"
    },
    {
      "channel": 0,
      "note": 21,
      "start": 29.9261,
      "duration": 0.1319,
      "velocity": 111,
      "chip": "ym2612"
    },
    {
      "channel": 1,
      "note": 29,
      "start": 29.9268,
      "duration": 0.1326,
      "velocity": 93,
      "chip": "ym2612"
    },
    {
      "channel": 2,
      "note": 41,
      "start": 29.9275,
      "duration": 0.1325,
      "velocity": 88,
      "chip": "ym2612"
    },
    {
      "channel": 3,
      "note": 84,
      "start": 29.9281,
      "duration": 0.0821,
      "velocity": 102,
      "chip": "ym2612"
    },
    {
      "channel": 4,
      "note": 41,
      "start": 29.9288,
      "duration": 0.082,
      "velocity": 120,
      "chip": "ym2612"
    },
    {
      "channel": 0,
      "note": 33,
      "start": 30.0592,
      "duration": 0.1314,
      "velocity": 127,
      "chip": "ym2612"
    },
    {
      "channel": 1,
      "note": 29,
      "start": 30.0599,
      "duration": 0.1319,
      "velocity": 13,
      "chip": "ym2612"
    },
    {
      "channel": 2,
      "note": 41,
      "start": 30.0605,
      "duration": 0.1319,
      "velocity": 87,
      "chip": "ym2612"
    },
    {
      "channel": 3,
      "note": 84,
      "start": 30.0611,
      "duration": 0.0815,
      "velocity": 102,
      "chip": "ym2612"
    },
    {
      "channel": 4,
      "note": 41,
      "start": 30.0618,
      "duration": 0.1319,
      "velocity": 119,
      "chip": "ym2612"
    },
    {
      "channel": 0,
      "note": 22,
      "start": 30.1916,
      "duration": 0.2637,
      "velocity": 127,
      "chip": "ym2612"
    },
    {
      "channel": 1,
      "note": 29,
      "start": 30.1922,
      "duration": 0.1312,
      "velocity": 124,
      "chip": "ym2612"
    },
    {
      "channel": 2,
      "note": 53,
      "start": 30.1929,
      "duration": 0.1312,
      "velocity": 86,
      "chip": "ym2612"
    },
    {
      "channel": 3,
      "note": 84,
      "start": 30.1936,
      "duration": 0.0815,
      "velocity": 101,
      "chip": "ym2612"
    },
    {
      "channel": 4,
      "note": 41,
      "start": 30.1942,
      "duration": 0.0814,
      "velocity": 118,
      "chip": "ym2612"
    },
    {
      "channel": 1,
      "note": 29,
      "start": 30.3239,
      "duration": 0.1327,
      "velocity": 110,
      "chip": "ym2612"
    },
    {
      "channel": 2,
      "note": 41,
      "start": 30.3246,
      "duration": 0.1327,
      "velocity": 85,
      "chip": "ym2612"
    },
    {
      "channel": 3,
      "note": 84,
      "start": 30.3252,
      "duration": 0.0823,
      "velocity": 102,
      "chip": "ym2612"
    },
    {
      "channel": 4,
      "note": 53,
      "start": 30.3258,
      "duration": 0.1327,
      "velocity": 117,
      "chip": "ym2612"
    },
    {
      "channel": 0,
      "note": 33,
      "start": 30.4564,
      "duration": 0.1314,
      "velocity": 127,
      "chip": "ym2612"
    },
    {
      "channel": 1,
      "note": 29,
      "start": 30.4571,
      "duration": 0.1319,
      "velocity": 117,
      "chip": "ym2612"
    },
    {
      "channel": 2,
      "note": 44,
      "start": 30.4578,
      "duration": 0.132,
      "velocity": 84,
      "chip": "ym2612"
    },
    {
      "channel": 3,
      "note": 84,
      "start": 30.4584,
      "duration": 0.0815,
      "velocity": 102,
      "chip": "ym2612"
    },
    {
      "channel": 4,
      "note": 41,
      "start": 30.459,
      "duration": 0.0814,
      "velocity": 116,
      "chip": "ym2612"
    },
    {
      "channel": 0,
      "note": 22,
      "start": 30.5889,
      "duration": 0.1314,
      "velocity": 127,
      "chip": "ym2612"
    },
    {
      "channel": 1,
      "note": 29,
      "start": 30.5895,
      "duration": 0.132,
      "velocity": 13,
      "chip": "ym2612"
    },
    {
      "channel": 2,
      "note": 41,
      "start": 30.5901,
      "duration": 0.132,
      "velocity": 83,
      "chip": "ym2612"
    },
    {
      "channel": 3,
      "note": 84,
      "start": 30.5908,
      "duration": 0.0816,
      "velocity": 101,
      "chip": "ym2612"
    },
    {
      "channel": 4,
      "note": 53,
      "start": 30.5914,
      "duration": 0.132,
      "velocity": 115,
      "chip": "ym2612"
    },
    {
      "channel": 0,
      "note": 21,
      "start": 30.7213,
      "duration": 0.1313,
      "velocity": 112,
      "chip": "ym2612"
    },
    {
      "channel": 1,
      "note": 29,
      "start": 30.722,
      "duration": 0.132,
      "velocity": 124,
      "chip": "ym2612"
    },
    {
      "channel": 2,
      "note": 53,
      "start": 30.7226,
      "duration": 0.132,
      "velocity": 82,
      "chip": "ym2612"
    },
    {
      "channel": 3,
      "note": 84,
      "start": 30.7232,
      "duration": 0.0816,
      "velocity": 102,
      "chip": "ym2612"
    },
    {
      "channel": 4,
      "note": 41,
      "start": 30.7239,
      "duration": 0.0814,
      "velocity": 114,
      "chip": "ym2612"
    },
    {
      "channel": 0,
      "note": 33,
      "start": 30.8537,
      "duration": 0.1314,
      "velocity": 119,
      "chip": "ym2612"
    },
    {
      "channel": 1,
      "note": 29,
      "start": 30.8544,
      "duration": 0.1319,
      "velocity": 115,
      "chip": "ym2612"
    },
    {
      "channel": 2,
      "note": 41,
      "start": 30.855,
      "duration": 0.1319,
      "velocity": 83,
      "chip": "ym2612"
    },
    {
      "channel": 3,
      "note": 84,
      "start": 30.8557,
      "duration": 0.0815,
      "velocity": 101,
      "chip": "ym2612"
    },
    {
      "channel": 4,
      "note": 41,
      "start": 30.8564,
      "duration": 0.0814,
      "velocity": 115,
      "chip": "ym2612"
    },
    {
      "channel": 0,
      "note": 21,
      "start": 30.9861,
      "duration": 0.1314,
      "velocity": 112,
      "chip": "ym2612"
    },
    {
      "channel": 1,
      "note": 29,
      "start": 30.9868,
      "duration": 0.1314,
      "velocity": 13,
      "chip": "ym2612"
    },
    {
      "channel": 2,
      "note": 41,
      "start": 30.9874,
      "duration": 0.1314,
      "velocity": 84,
      "chip": "ym2612"
    },
    {
      "channel": 3,
      "note": 84,
      "start": 30.9881,
      "duration": 0.0815,
      "velocity": 102,
      "chip": "ym2612"
    },
    {
      "channel": 4,
      "note": 41,
      "start": 30.9887,
      "duration": 0.0814,
      "velocity": 116,
      "chip": "ym2612"
    },
    {
      "channel": 0,
      "note": 21,
      "start": 31.1179,
      "duration": 0.1319,
      "velocity": 112,
      "chip": "ym2612"
    },
    {
      "channel": 1,
      "note": 29,
      "start": 31.1186,
      "duration": 0.1326,
      "velocity": 13,
      "chip": "ym2612"
    },
    {
      "channel": 2,
      "note": 53,
      "start": 31.1193,
      "duration": 0.1325,
      "velocity": 85,
      "chip": "ym2612"
    },
    {
      "channel": 3,
      "note": 84,
      "start": 31.1199,
      "duration": 0.0821,
      "velocity": 102,
      "chip": "ym2612"
    },
    {
      "channel": 4,
      "note": 53,
      "start": 31.1206,
      "duration": 0.0819,
      "velocity": 117,
      "chip": "ym2612"
    },
    {
      "channel": 0,
      "note": 22,
      "start": 31.251,
      "duration": 0.1314,
      "velocity": 119,
      "chip": "ym2612"
    },
    {
      "channel": 1,
      "note": 29,
      "start": 31.2516,
      "duration": 0.1319,
      "velocity": 124,
      "chip": "ym2612"
    },
    {
      "channel": 2,
      "note": 41,
      "start": 31.2523,
      "duration": 0.1319,
      "velocity": 86,
      "chip": "ym2612"
    },
    {
      "channel": 3,
      "note": 84,
      "start": 31.2529,
      "duration": 0.0815,
      "velocity": 101,
      "chip": "ym2612"
    },
    {
      "channel": 4,
      "note": 53,
      "start": 31.2536,
      "duration": 0.0814,
      "velocity": 118,
      "chip": "ym2612"
    },
    {
      "channel": 0,
      "note": 30,
      "start": 31.3834,
      "duration": 0.1314,
      "velocity": 112,
      "chip": "ym2612"
    },
    {
      "channel": 1,
      "note": 29,
      "start": 31.384,
      "duration": 0.1314,
      "velocity": 120,
      "chip": "ym2612"
    },
    {
      "channel": 2,
      "note": 53,
      "start": 31.3847,
      "duration": 0.1314,
      "velocity": 87,
      "chip": "ym2612"
    },
    {
      "channel": 3,
      "note": 84,
      "start": 31.3853,
      "duration": 0.0815,
      "velocity": 102,
      "chip": "ym2612"
    },
    {
      "channel": 4,
      "note": 41,
      "start": 31.3859,
      "duration": 0.0814,
      "velocity": 119,
      "chip": "ym2612"
    },
    {
      "channel": 0,
      "note": 21,
      "start": 31.5152,
      "duration": 0.132,
      "velocity": 112,
      "chip": "ym2612"
    },
    {
      "channel": 1,
      "note": 29,
      "start": 31.5159,
      "duration": 0.1319,
      "velocity": 93,
      "chip": "ym2612"
    },
    {
      "channel": 2,
      "note": 44,
      "start": 31.5165,
      "duration": 0.1319,
      "velocity": 88,
      "chip": "ym2612"
    },
    {
      "channel": 3,
      "note": 84,
      "start": 31.5172,
      "duration": 0.0821,
      "velocity": 102,
      "chip": "ym2612"
    },
    {
      "channel": 4,
      "note": 41,
      "start": 31.5178,
      "duration": 0.082,
      "velocity": 120,
      "chip": "ym2612"
    },
    {
      "channel": 0,
      "note": 21,
      "start": 31.6476,
      "duration": 0.1319,
      "velocity": 112,
      "chip": "ym2612"
    },
    {
      "channel": 1,
      "note": 29,
      "start": 31.6483,
      "duration": 0.1325,
      "velocity": 13,
      "chip": "ym2612"
    },
    {
      "channel": 2,
      "note": 41,
      "start": 31.6489,
      "duration": 0.1325,
      "velocity": 89,
      "chip": "ym2612"
    },
    {
      "channel": 3,
      "note": 84,
      "start": 31.6495,
      "duration": 0.0821,
      "velocity": 101,
      "chip": "ym2612"
    },
    {
      "channel": 4,
      "note": 53,
      "start": 31.6502,
      "duration": 0.082,
      "velocity": 121,
      "chip": "ym2612"
    },
    {
      "channel": 0,
      "note": 22,
      "start": 31.7807,
      "duration": 0.1313,
      "velocity": 127,
      "chip": "ym2612"
    },
    {
      "channel": 1,
      "note": 29,
      "start": 31.7813,
      "duration": 0.1319,
      "velocity": 124,
      "chip": "ym2612"
    },
    {
      "channel": 2,
      "note": 51,
      "start": 31.7819,
      "duration": 0.0817,
      "velocity": 90,
      "chip": "ym2612"
    },
    {
      "channel": 3,
      "note": 84,
      "start": 31.7826,
      "duration": 0.0816,
      "velocity": 102,
      "chip": "ym2612"
    },
    {
      "channel": 4,
      "note": 41,
      "start": 31.7832,
      "duration": 0.0814,
      "velocity": 121,
      "chip": "ym2612"
    },
    {
      "channel": 5,
      "note": 7,
      "start": 31.7838,
      "duration": 2.1183,
      "velocity": 1,
      "chip": "ym2612"
    },
    {
      "channel": 0,
      "note": 21,
      "start": 31.913,
      "duration": 0.1314,
      "velocity": 120,
      "chip": "ym2612"
    },
    {
      "channel": 1,
      "note": 29,
      "start": 31.9137,
      "duration": 0.1314,
      "velocity": 110,
      "chip": "ym2612"
    },
    {
      "channel": 2,
      "note": 53,
      "start": 31.9143,
      "duration": 0.0817,
      "velocity": 89,
      "chip": "ym2612"
    },
    {
      "channel": 3,
      "note": 84,
      "start": 31.9149,
      "duration": 0.0816,
      "velocity": 101,
      "chip": "ym2612"
    },
    {
      "channel": 4,
      "note": 53,
      "start": 31.9156,
      "duration": 0.1313,
      "velocity": 121,
      "chip": "ym2612"
    },
    {
      "channel": 0,
      "note": 21,
      "start": 32.0449,
      "duration": 0.1319,
      "velocity": 111,
      "chip": "ym2612"
    },
    {
      "channel": 1,
      "note": 29,
      "start": 32.0456,
      "duration": 0.1325,
      "velocity": 93,
      "chip": "ym2612"
    },
    {
      "channel": 2,
      "note": 41,
      "start": 32.0462,
      "duration": 0.1325,
      "velocity": 88,
      "chip": "ym2612"
    },
    {
      "channel": 3,
      "note": 84,
      "start": 32.0468,
      "duration": 0.0821,
      "velocity": 102,
      "chip": "ym2612"
    },
    {
      "channel": 4,
      "note": 41,
      "start": 32.0475,
      "duration": 0.082,
      "velocity": 120,
      "chip": "ym2612"
    },
    {
      "channel": 0,
      "note": 33,
      "start": 32.1779,
      "duration": 0.1313,
      "velocity": 127,
      "chip": "ym2612"
    },
    {
      "channel": 1,
      "note": 29,
      "start": 32.1786,
      "duration": 0.1319,
      "velocity": 13,
      "chip": "ym2612"
    },
    {
      "channel": 2,
      "note": 41,
      "start": 32.1792,
      "duration": 0.1319,
      "velocity": 87,
      "chip": "ym2612"
    },
    {
      "channel": 3,
      "note": 84,
      "start": 32.1798,
      "duration": 0.0815,
      "velocity": 102,
      "chip": "ym2612"
    },
    {
      "channel": 4,
      "note": 41,
      "start": 32.1805,
      "duration": 0.1319,
      "velocity": 119,
      "chip": "ym2612"
    },
    {
      "channel": 0,
      "note": 22,
      "start": 32.3103,
      "duration": 0.1314,
      "velocity": 127,
      "chip": "ym2612"
    },
    {
      "channel": 1,
      "note": 29,
      "start": 32.311,
      "duration": 0.1319,
      "velocity": 124,
      "chip": "ym2612"
    },
    {
      "channel": 2,
      "note": 44,
      "start": 32.3116,
      "duration": 0.1319,
      "velocity": 86,
      "chip": "ym2612"
    },
    {
      "channel": 3,
      "note": 84,
      "start": 32.3123,
      "duration": 0.0815,
      "velocity": 101,
      "chip": "ym2612"
    },
    {
      "channel": 4,
      "note": 41,
      "start": 32.3129,
      "duration": 0.0814,
      "velocity": 118,
      "chip": "ym2612"
    },
    {
      "channel": 0,
      "note": 32,
      "start": 32.4427,
      "duration": 0.1314,
      "velocity": 120,
      "chip": "ym2612"
    },
    {
      "channel": 1,
      "note": 29,
      "start": 32.4434,
      "duration": 0.132,
      "velocity": 110,
      "chip": "ym2612"
    },
    {
      "channel": 2,
      "note": 41,
      "start": 32.444,
      "duration": 0.132,
      "velocity": 85,
      "chip": "ym2612"
    },
    {
      "channel": 3,
      "note": 84,
      "start": 32.4446,
      "duration": 0.0816,
      "velocity": 102,
      "chip": "ym2612"
    },
    {
      "channel": 4,
      "note": 53,
      "start": 32.4453,
      "duration": 0.132,
      "velocity": 117,
      "chip": "ym2612"
    },
    {
      "channel": 0,
      "note": 33,
      "start": 32.5751,
      "duration": 0.1314,
      "velocity": 127,
      "chip": "ym2612"
    },
    {
      "channel": 1,
      "note": 29,
      "start": 32.5758,
      "duration": 0.1319,
      "velocity": 117,
      "chip": "ym2612"
    },
    {
      "channel": 2,
      "note": 53,
      "start": 32.5765,
      "duration": 0.1319,
      "velocity": 84,
      "chip": "ym2612"
    },
    {
      "channel": 3,
      "note": 84,
      "start": 32.5771,
      "duration": 0.0816,
      "velocity": 102,
      "chip": "ym2612"
    },
    {
      "channel": 4,
      "note": 53,
      "start": 32.5777,
      "duration": 0.0814,
      "velocity": 116,
      "chip": "ym2612"
    },
    {
      "channel": 0,
      "note": 21,
      "start": 32.7076,
      "duration": 0.1314,
      "velocity": 120,
      "chip": "ym2612"
    },
    {
      "channel": 1,
      "note": 29,
      "start": 32.7082,
      "duration": 0.1314,
      "velocity": 13,
      "chip": "ym2612"
    },
    {
      "channel": 2,
      "note": 44,
      "start": 32.7088,
      "duration": 0.1314,
      "velocity": 83,
      "chip": "ym2612"
    },
    {
      "channel": 3,
      "note": 84,
      "start": 32.7095,
      "duration": 0.0815,
      "velocity": 101,
      "chip": "ym2612"
    },
    {
      "channel": 4,
      "note": 41,
      "start": 32.7102,
      "duration": 0.1313,
      "velocity": 115,
      "chip": "ym2612"
    },
    {
      "channel": 0,
      "note": 21,
      "start": 32.8394,
      "duration": 0.132,
      "velocity": 112,
      "chip": "ym2612"
    },
    {
      "channel": 1,
      "note": 29,
      "start": 32.8401,
      "duration": 0.1325,
      "velocity": 124,
      "chip": "ym2612"
    },
    {
      "channel": 2,
      "note": 41,
      "start": 32.8407,
      "duration": 0.1325,
      "velocity": 82,
      "chip": "ym2612"
    },
    {
      "channel": 3,
      "note": 84,
      "start": 32.8413,
      "duration": 0.0821,
      "velocity": 102,
      "chip": "ym2612"
    },
    {
      "channel": 4,
      "note": 41,
      "start": 32.842,
      "duration": 0.082,
      "velocity": 114,
      "chip": "ym2612"
    },
    {
      "channel": 0,
      "note": 33,
      "start": 32.9724,
      "duration": 0.1314,
      "velocity": 119,
      "chip": "ym2612"
    },
    {
      "channel": 1,
      "note": 29,
      "start": 32.9731,
      "duration": 0.132,
      "velocity": 115,
      "chip": "ym2612"
    },
    {
      "channel": 2,
      "note": 41,
      "start": 32.9737,
      "duration": 0.132,
      "velocity": 83,
      "chip": "ym2612"
    },
    {
      "channel": 3,
      "note": 84,
      "start": 32.9744,
      "duration": 0.0816,
      "velocity": 101,
      "chip": "ym2612"
    },
    {
      "channel": 4,
      "note": 53,
      "start": 32.975,
      "duration": 0.0814,
      "velocity": 115,
      "chip": "ym2612"
    },
    {
      "channel": 0,
      "note": 21,
      "start": 33.1049,
      "duration": 0.1313,
      "velocity": 112,
      "chip": "ym2612"
    },
    {
      "channel": 1,
      "note": 29,
      "start": 33.1055,
      "duration": 0.1313,
      "velocity": 13,
      "chip": "ym2612"
    },
    {
      "channel": 2,
      "note": 44,
      "start": 33.1062,
      "duration": 0.1314,
      "velocity": 84,
      "chip": "ym2612"
    },
    {
      "channel": 3,
      "note": 84,
      "start": 33.1068,
      "duration": 0.0816,
      "velocity": 102,
      "chip": "ym2612"
    },
    {
      "channel": 4,
      "note": 41,
      "start": 33.1074,
      "duration": 0.0814,
      "velocity": 116,
      "chip": "ym2612"
    },
    {
      "channel": 0,
      "note": 21,
      "start": 33.2366,
      "duration": 0.132,
      "velocity": 112,
      "chip": "ym2612"
    },
    {
      "channel": 1,
      "note": 29,
      "start": 33.2373,
      "duration": 0.1325,
      "velocity": 13,
      "chip": "ym2612"
    },
    {
      "channel": 2,
      "note": 41,
      "start": 33.238,
      "duration": 0.1326,
      "velocity": 85,
      "chip": "ym2612"
    },
    {
      "channel": 3,
      "note": 84,
      "start": 33.2387,
      "duration": 0.0821,
      "velocity": 102,
      "chip": "ym2612"
    },
    {
      "channel": 4,
      "note": 41,
      "start": 33.2393,
      "duration": 0.082,
      "velocity": 116,
      "chip": "ym2612"
    },
    {
      "channel": 0,
      "note": 22,
      "start": 33.3697,
      "duration": 0.2637,
      "velocity": 119,
      "chip": "ym2612"
    },
    {
      "channel": 1,
      "note": 29,
      "start": 33.3704,
      "duration": 0.1312,
      "velocity": 124,
      "chip": "ym2612"
    },
    {
      "channel": 2,
      "note": 44,
      "start": 33.3711,
      "duration": 0.1311,
      "velocity": 86,
      "chip": "ym2612"
    },
    {
      "channel": 3,
      "note": 84,
      "start": 33.3717,
      "duration": 0.0814,
      "velocity": 101,
      "chip": "ym2612"
    },
    {
      "channel": 4,
      "note": 41,
      "start": 33.3723,
      "duration": 0.0813,
      "velocity": 118,
      "chip": "ym2612"
    },
    {
      "channel": 1,
      "note": 29,
      "start": 33.502,
      "duration": 0.1326,
      "velocity": 120,
      "chip": "ym2612"
    },
    {
      "channel": 2,
      "note": 53,
      "start": 33.5027,
      "duration": 0.1326,
      "velocity": 87,
      "chip": "ym2612"
    },
    {
      "channel": 3,
      "note": 84,
      "start": 33.5033,
      "duration": 0.0822,
      "velocity": 102,
      "chip": "ym2612"
    },
    {
      "channel": 4,
      "note": 53,
      "start": 33.504,
      "duration": 0.0821,
      "velocity": 118,
      "chip": "ym2612"
    },
    {
      "channel": 0,
      "note": 21,
      "start": 33.6345,
      "duration": 0.1313,
      "velocity": 112,
      "chip": "ym2612"
    },
    {
      "channel": 1,
      "note": 29,
      "start": 33.6352,
      "duration": 0.132,
      "velocity": 93,
      "chip": "ym2612"
    },
    {
      "channel": 2,
      "note": 41,
      "start": 33.6358,
      "duration": 0.132,
      "velocity": 88,
      "chip": "ym2612"
    },
    {
      "channel": 3,
      "note": 84,
      "start": 33.6364,
      "duration": 0.0816,
      "velocity": 102,
      "chip": "ym2612"
    },
    {
      "channel": 4,
      "note": 41,
      "start": 33.6371,
      "duration": 0.0814,
      "velocity": 120,
      "chip": "ym2612"
    },
    {
      "channel": 0,
      "note": 22,
      "start": 33.767,
      "duration": 0.1313,
      "velocity": 119,
      "chip": "ym2612"
    },
    {
      "channel": 1,
      "note": 29,
      "start": 33.7676,
      "duration": 0.1319,
      "velocity": 13,
      "chip": "ym2612"
    },
    {
      "channel": 2,
      "note": 44,
      "start": 33.7683,
      "duration": 0.1319,
      "velocity": 89,
      "chip": "ym2612"
    },
    {
      "channel": 3,
      "note": 84,
      "start": 33.7689,
      "duration": 0.0815,
      "velocity": 101,
      "chip": "ym2612"
    },
    {
      "channel": 4,
      "note": 41,
      "start": 33.7695,
      "duration": 0.0814,
      "velocity": 121,
      "chip": "ym2612"
    },
    {
      "channel": 0,
      "note": 7,
      "start": 33.8994,
      "duration": 2.1177,
      "velocity": 1,
      "chip": "ym2612"
    },
    {
      "channel": 1,
      "note": 29,
      "start": 33.9,
      "duration": 0.1312,
      "velocity": 124,
      "chip": "ym2612"
    },
    {
      "channel": 2,
      "note": 51,
      "start": 33.9006,
      "duration": 0.1312,
      "velocity": 90,
      "chip": "ym2612"
    },
    {
      "channel": 3,
      "note": 84,
      "start": 33.9013,
      "duration": 0.0816,
      "velocity": 102,
      "chip": "ym2612"
    },
    {
      "channel": 4,
      "note": 53,
      "start": 33.9019,
      "duration": 0.0814,
      "velocity": 122,
      "chip": "ym2612"
    },
    {
      "channel": 5,
      "note": 7,
      "start": 33.9025,
      "duration": 2.1177,
      "velocity": 1,
      "chip": "ym2612"
    },
    {
      "channel": 1,
      "note": 29,
      "start": 34.0317,
      "duration": 0.1319,
      "velocity": 110,
      "chip": "ym2612"
    },
    {
      "channel": 2,
      "note": 53,
      "start": 34.0323,
      "duration": 0.1319,
      "velocity": 89,
      "chip": "ym2612"
    },
    {
      "channel": 3,
      "note": 84,
      "start": 34.0329,
      "duration": 0.0822,
      "velocity": 101,
      "chip": "ym2612"
    },
    {
      "channel": 4,
      "note": 53,
      "start": 34.0336,
      "duration": 0.0821,
      "velocity": 122,
      "chip": "ym2612"
    },
    {
      "channel": 1,
      "note": 29,
      "start": 34.1641,
      "duration": 0.1319,
      "velocity": 93,
      "chip": "ym2612"
    },
    {
      "channel": 2,
      "note": 41,
      "start": 34.1648,
      "duration": 0.1319,
      "velocity": 88,
      "chip": "ym2612"
    },
    {
      "channel": 3,
      "note": 84,
      "start": 34.1654,
      "duration": 0.0822,
      "velocity": 102,
      "chip": "ym2612"
    },
    {
      "channel": 4,
      "note": 41,
      "start": 34.166,
      "duration": 0.0821,
      "velocity": 120,
      "chip": "ym2612"
    },
    {
      "channel": 1,
      "note": 29,
      "start": 34.2965,
      "duration": 0.1319,
      "velocity": 13,
      "chip": "ym2612"
    },
    {
      "channel": 2,
      "note": 41,
      "start": 34.2971,
      "duration": 0.1319,
      "velocity": 87,
      "chip": "ym2612"
    },
    {
      "channel": 3,
      "note": 84,
      "start": 34.2978,
      "duration": 0.0823,
      "velocity": 102,
      "chip": "ym2612"
    },
    {
      "channel": 4,
      "note": 41,
      "start": 34.2985,
      "duration": 0.1319,
      "velocity": 119,
      "chip": "ym2612"
    },
    {
      "channel": 1,
      "note": 29,
      "start": 34.4289,
      "duration": 0.132,
      "velocity": 124,
      "chip": "ym2612"
    },
    {
      "channel": 2,
      "note": 53,
      "start": 34.4296,
      "duration": 0.132,
      "velocity": 86,
      "chip": "ym2612"
    },
    {
      "channel": 3,
      "note": 84,
      "start": 34.4302,
      "duration": 0.0822,
      "velocity": 101,
      "chip": "ym2612"
    },
    {
      "channel": 4,
      "note": 41,
      "start": 34.4309,
      "duration": 0.0821,
      "velocity": 118,
      "chip": "ym2612"
    },
    {
      "channel": 1,
      "note": 29,
      "start": 34.5614,
      "duration": 0.1319,
      "velocity": 110,
      "chip": "ym2612"
    },
    {
      "channel": 2,
      "note": 41,
      "start": 34.562,
      "duration": 0.1319,
      "velocity": 85,
      "chip": "ym2612"
    },
    {
      "channel": 3,
      "note": 84,
      "start": 34.5627,
      "duration": 0.0823,
      "velocity": 102,
      "chip": "ym2612"
    },
    {
      "channel": 4,
      "note": 53,
      "start": 34.5633,
      "duration": 0.132,
      "velocity": 117,
      "chip": "ym2612"
    },
    {
      "channel": 1,
      "note": 29,
      "start": 34.6938,
      "duration": 0.1319,
      "velocity": 117,
      "chip": "ym2612"
    },
    {
      "channel": 2,
      "note": 44,
      "start": 34.6944,
      "duration": 0.1319,
      "velocity": 84,
      "chip": "ym2612"
    },
    {
      "channel": 3,
      "note": 84,
      "start": 34.695,
      "duration": 0.0822,
      "velocity": 102,
      "chip": "ym2612"
    },
    {
      "channel": 4,
      "note": 41,
      "start": 34.6957,
      "duration": 0.0821,
      "velocity": 116,
      "chip": "ym2612"
    },
    {
      "channel": 1,
      "note": 29,
      "start": 34.8262,
      "duration": 0.1319,
      "velocity": 13,
      "chip": "ym2612"
    },
    {
      "channel": 2,
      "note": 41,
      "start": 34.8268,
      "duration": 0.1319,
      "velocity": 83,
      "chip": "ym2612"
    },
    {
      "channel": 3,
      "note": 84,
      "start": 34.8275,
      "duration": 0.0822,
      "velocity": 101,
      "chip": "ym2612"
    },
    {
      "channel": 4,
      "note": 53,
      "start": 34.8281,
      "duration": 0.1319,
      "velocity": 115,
      "chip": "ym2612"
    },
    {
      "channel": 1,
      "note": 29,
      "start": 34.9586,
      "duration": 0.132,
      "velocity": 124,
      "chip": "ym2612"
    },
    {
      "channel": 2,
      "note": 53,
      "start": 34.9593,
      "duration": 0.1319,
      "velocity": 82,
      "chip": "ym2612"
    },
    {
      "channel": 3,
      "note": 84,
      "start": 34.9599,
      "duration": 0.0822,
      "velocity": 102,
      "chip": "ym2612"
    },
    {
      "channel": 4,
      "note": 41,
      "start": 34.9606,
      "duration": 0.0821,
      "velocity": 114,
      "chip": "ym2612"
    },
    {
      "channel": 1,
      "note": 29,
      "start": 35.091,
      "duration": 0.132,
      "velocity": 115,
      "chip": "ym2612"
    },
    {
      "channel": 2,
      "note": 41,
      "start": 35.0917,
      "duration": 0.132,
      "velocity": 83,
      "chip": "ym2612"
    },
    {
      "channel": 3,
      "note": 84,
      "start": 35.0923,
      "duration": 0.0822,
      "velocity": 101,
      "chip": "ym2612"
    },
    {
      "channel": 4,
      "note": 41,
      "start": 35.0929,
      "duration": 0.0821,
      "velocity": 115,
      "chip": "ym2612"
    },
    {
      "channel": 1,
      "note": 29,
      "start": 35.2235,
      "duration": 0.1319,
      "velocity": 13,
      "chip": "ym2612"
    },
    {
      "channel": 2,
      "note": 41,
      "start": 35.2241,
      "duration": 0.1319,
      "velocity": 84,
      "chip": "ym2612"
    },
    {
      "channel": 3,
      "note": 84,
      "start": 35.2247,
      "duration": 0.0823,
      "velocity": 102,
      "chip": "ym2612"
    },
    {
      "channel": 4,
      "note": 41,
      "start": 35.2254,
      "duration": 0.0821,
      "velocity": 116,
      "chip": "ym2612"
    },
    {
      "channel": 1,
      "note": 29,
      "start": 35.3559,
      "duration": 0.132,
      "velocity": 13,
      "chip": "ym2612"
    },
    {
      "channel": 2,
      "note": 53,
      "start": 35.3566,
      "duration": 0.1319,
      "velocity": 85,
      "chip": "ym2612"
    },
    {
      "channel": 3,
      "note": 84,
      "start": 35.3572,
      "duration": 0.0822,
      "velocity": 102,
      "chip": "ym2612"
    },
    {
      "channel": 4,
      "note": 53,
      "start": 35.3578,
      "duration": 0.0821,
      "velocity": 117,
      "chip": "ym2612"
    },
    {
      "channel": 1,
      "note": 29,
      "start": 35.4884,
      "duration": 0.1319,
      "velocity": 124,
      "chip": "ym2612"
    },
    {
      "channel": 2,
      "note": 41,
      "start": 35.489,
      "duration": 0.1319,
      "velocity": 86,
      "chip": "ym2612"
    },
    {
      "channel": 3,
      "note": 84,
      "start": 35.4896,
      "duration": 0.0822,
      "velocity": 101,
      "chip": "ym2612"
    },
    {
      "channel": 4,
      "note": 53,
      "start": 35.4903,
      "duration": 0.0821,
      "velocity": 118,
      "chip": "ym2612"
    },
    {
      "channel": 1,
      "note": 29,
      "start": 35.6207,
      "duration": 0.1319,
      "velocity": 120,
      "chip": "ym2612"
    },
    {
      "channel": 2,
      "note": 53,
      "start": 35.6214,
      "duration": 0.1319,
      "velocity": 87,
      "chip": "ym2612"
    },
    {
      "channel": 3,
      "note": 84,
      "start": 35.6221,
      "duration": 0.0823,
      "velocity": 102,
      "chip": "ym2612"
    },
    {
      "channel": 4,
      "note": 41,
      "start": 35.6227,
      "duration": 0.0821,
      "velocity": 119,
      "chip": "ym2612"
    },
    {
      "channel": 1,
      "note": 29,
      "start": 35.7531,
      "duration": 0.132,
      "velocity": 93,
      "chip": "ym2612"
    },
    {
      "channel": 2,
      "note": 44,
      "start": 35.7538,
      "duration": 0.132,
      "velocity": 88,
      "chip": "ym2612"
    },
    {
      "channel": 3,
      "note": 84,
      "start": 35.7544,
      "duration": 0.0823,
      "velocity": 102,
      "chip": "ym2612"
    },
    {
      "channel": 4,
      "note": 41,
      "start": 35.7551,
      "duration": 0.0822,
      "velocity": 120,
      "chip": "ym2612"
    },
    {
      "channel": 1,
      "note": 29,
      "start": 35.8856,
      "duration": 0.1321,
      "velocity": 13,
      "chip": "ym2612"
    },
    {
      "channel": 2,
      "note": 41,
      "start": 35.8862,
      "duration": 0.1321,
      "velocity": 89,
      "chip": "ym2612"
    },
    {
      "channel": 3,
      "note": 84,
      "start": 35.8868,
      "duration": 0.0823,
      "velocity": 101,
      "chip": "ym2612"
    },
    {
      "channel": 4,
      "note": 53,
      "start": 35.8875,
      "duration": 0.0821,
      "velocity": 121,
      "chip": "ym2612"
    },
    {
      "channel": 0,
      "note": 7,
      "start": 36.0175,
      "duration": 2.1183,
      "velocity": 1,
      "chip": "ym2612"
    },
    {
      "channel": 1,
      "note": 29,
      "start": 36.0181,
      "duration": 0.1318,
      "velocity": 124,
      "chip": "ym2612"
    },
    {
      "channel": 2,
      "note": 51,
      "start": 36.0188,
      "duration": 0.0823,
      "velocity": 90,
      "chip": "ym2612"
    },
    {
      "channel": 3,
      "note": 84,
      "start": 36.0194,
      "duration": 0.0821,
      "velocity": 102,
      "chip": "ym2612"
    },
    {
      "channel": 4,
      "note": 41,
      "start": 36.02,
      "duration": 0.082,
      "velocity": 121,
      "chip": "ym2612"
    },
    {
      "channel": 5,
      "note": 7,
      "start": 36.0207,
      "duration": 2.1195,
      "velocity": 1,
      "chip": "ym2612"
    },
    {
      "channel": 1,
      "note": 29,
      "start": 36.1504,
      "duration": 0.132,
      "velocity": 110,
      "chip": "ym2612"
    },
    {
      "channel": 2,
      "note": 53,
      "start": 36.151,
      "duration": 0.0824,
      "velocity": 89,
      "chip": "ym2612"
    },
    {
      "channel": 3,
      "note": 84,
      "start": 36.1517,
      "duration": 0.0823,
      "velocity": 101,
      "chip": "ym2612"
    },
    {
      "channel": 4,
      "note": 53,
      "start": 36.1523,
      "duration": 0.132,
      "velocity": 121,
      "chip": "ym2612"
    },
    {
      "channel": 1,
      "note": 29,
      "start": 36.2828,
      "duration": 0.1319,
      "velocity": 93,
      "chip": "ym2612"
    },
    {
      "channel": 2,
      "note": 41,
      "start": 36.2835,
      "duration": 0.1319,
      "velocity": 88,
      "chip": "ym2612"
    },
    {
      "channel": 3,
      "note": 84,
      "start": 36.2841,
      "duration": 0.0822,
      "velocity": 102,
      "chip": "ym2612"
    },
    {
      "channel": 4,
      "note": 41,
      "start": 36.2847,
      "duration": 0.0821,
      "velocity": 120,
      "chip": "ym2612"
    },
    {
      "channel": 1,
      "note": 29,
      "start": 36.4152,
      "duration": 0.132,
      "velocity": 13,
      "chip": "ym2612"
    },
    {
      "channel": 2,
      "note": 41,
      "start": 36.4159,
      "duration": 0.132,
      "velocity": 87,
      "chip": "ym2612"
    },
    {
      "channel": 3,
      "note": 84,
      "start": 36.4165,
      "duration": 0.0823,
      "velocity": 102,
      "chip": "ym2612"
    },
    {
      "channel": 4,
      "note": 41,
      "start": 36.4172,
      "duration": 0.132,
      "velocity": 119,
      "chip": "ym2612"
    },
    {
      "channel": 1,
      "note": 29,
      "start": 36.5476,
      "duration": 0.1319,
      "velocity": 124,
      "chip": "ym2612"
    },
    {
      "channel": 2,
      "note": 44,
      "start": 36.5483,
      "duration": 0.132,
      "velocity": 86,
      "chip": "ym2612"
    },
    {
      "channel": 3,
      "note": 84,
      "start": 36.5489,
      "duration": 0.0823,
      "velocity": 101,
      "chip": "ym2612"
    },
    {
      "channel": 4,
      "note": 41,
      "start": 36.5495,
      "duration": 0.0822,
      "velocity": 118,
      "chip": "ym2612"
    },
    {
      "channel": 1,
      "note": 29,
      "start": 36.6801,
      "duration": 0.1319,
      "velocity": 110,
      "chip": "ym2612"
    },
    {
      "channel": 2,
      "note": 41,
      "start": 36.6807,
      "duration": 0.1319,
      "velocity": 85,
      "chip": "ym2612"
    },
    {
      "channel": 3,
      "note": 84,
      "start": 36.6814,
      "duration": 0.0822,
      "velocity": 102,
      "chip": "ym2612"
    },
    {
      "channel": 4,
      "note": 53,
      "start": 36.682,
      "duration": 0.1319,
      "velocity": 117,
      "chip": "ym2612"
    },
    {
      "channel": 1,
      "note": 29,
      "start": 36.8125,
      "duration": 0.132,
      "velocity": 117,
      "chip": "ym2612"
    },
    {
      "channel": 2,
      "note": 53,
      "start": 36.8132,
      "duration": 0.1319,
      "velocity": 84,
      "chip": "ym2612"
    },
    {
      "channel": 3,
      "note": 84,
      "start": 36.8138,
      "duration": 0.0822,
      "velocity": 102,
      "chip": "ym2612"
    },
    {
      "channel": 4,
      "note": 53,
      "start": 36.8144,
      "duration": 0.0821,
      "velocity": 116,
      "chip": "ym2612"
    },
    {
      "channel": 1,
      "note": 29,
      "start": 36.9449,
      "duration": 0.1319,
      "velocity": 13,
      "chip": "ym2612"
    },
    {
      "channel": 2,
      "note": 44,
      "start": 36.9456,
      "duration": 0.1319,
      "velocity": 83,
      "chip": "ym2612"
    },
    {
      "channel": 3,
      "note": 84,
      "start": 36.9462,
      "duration": 0.0822,
      "velocity": 101,
      "chip": "ym2612"
    },
    {
      "channel": 4,
      "note": 41,
      "start": 36.9468,
      "duration": 0.132,
      "velocity": 115,
      "chip": "ym2612"
    },
    {
      "channel": 1,
      "note": 29,
      "start": 37.0773,
      "duration": 0.132,
      "velocity": 124,
      "chip": "ym2612"
    },
    {
      "channel": 2,
      "note": 41,
      "start": 37.078,
      "duration": 0.132,
      "velocity": 82,
      "chip": "ym2612"
    },
    {
      "channel": 3,
      "note": 84,
      "start": 37.0786,
      "duration": 0.0823,
      "velocity": 102,
      "chip": "ym2612"
    },
    {
      "channel": 4,
      "note": 41,
      "start": 37.0793,
      "duration": 0.0821,
      "velocity": 114,
      "chip": "ym2612"
    },
    {
      "channel": 1,
      "note": 29,
      "start": 37.2097,
      "duration": 0.132,
      "velocity": 115,
      "chip": "ym2612"
    },
    {
      "channel": 2,
      "note": 41,
      "start": 37.2104,
      "duration": 0.1319,
      "velocity": 83,
      "chip": "ym2612"
    },
    {
      "channel": 3,
      "note": 84,
      "start": 37.2111,
      "duration": 0.0822,
      "velocity": 101,
      "chip": "ym2612"
    },
    {
      "channel": 4,
      "note": 53,
      "start": 37.2117,
      "duration": 0.0821,
      "velocity": 115,
      "chip": "ym2612"
    },
    {
      "channel": 1,
      "note": 29,
      "start": 37.3422,
      "duration": 0.1319,
      "velocity": 13,
      "chip": "ym2612"
    },
    {
      "channel": 2,
      "note": 44,
      "start": 37.3428,
      "duration": 0.1319,
      "velocity": 84,
      "chip": "ym2612"
    },
    {
      "channel": 3,
      "note": 84,
      "start": 37.3434,
      "duration": 0.0822,
      "velocity": 102,
      "chip": "ym2612"
    },
    {
      "channel": 4,
      "note": 41,
      "start": 37.3441,
      "duration": 0.0821,
      "velocity": 116,
      "chip": "ym2612"
    },
    {
      "channel": 1,
      "note": 29,
      "start": 37.4746,
      "duration": 0.1319,
      "velocity": 13,
      "chip": "ym2612"
    },
    {
      "channel": 2,
      "note": 41,
      "start": 37.4753,
      "duration": 0.1319,
      "velocity": 85,
      "chip": "ym2612"
    },
    {
      "channel": 3,
      "note": 84,
      "start": 37.4759,
      "duration": 0.0822,
      "velocity": 102,
      "chip": "ym2612"
    },
    {
      "channel": 4,
      "note": 41,
      "start": 37.4765,
      "duration": 0.0821,
      "velocity": 116,
      "chip": "ym2612"
    },
    {
      "channel": 1,
      "note": 29,
      "start": 37.607,
      "duration": 0.132,
      "velocity": 124,
      "chip": "ym2612"
    },
    {
      "channel": 2,
      "note": 44,
      "start": 37.6076,
      "duration": 0.132,
      "velocity": 86,
      "chip": "ym2612"
    },
    {
      "channel": 3,
      "note": 84,
      "start": 37.6083,
      "duration": 0.0823,
      "velocity": 101,
      "chip": "ym2612"
    },
    {
      "channel": 4,
      "note": 41,
      "start": 37.6089,
      "duration": 0.0822,
      "velocity": 118,
      "chip": "ym2612"
    },
    {
      "channel": 1,
      "note": 29,
      "start": 37.7394,
      "duration": 0.132,
      "velocity": 120,
      "chip": "ym2612"
    },
    {
      "channel": 2,
      "note": 53,
      "start": 37.7401,
      "duration": 0.132,
      "velocity": 87,
      "chip": "ym2612"
    },
    {
      "channel": 3,
      "note": 84,
      "start": 37.7407,
      "duration": 0.0823,
      "velocity": 102,
      "chip": "ym2612"
    },
    {
      "channel": 4,
      "note": 53,
      "start": 37.7413,
      "duration": 0.0821,
      "velocity": 118,
      "chip": "ym2612"
    },
    {
      "channel": 1,
      "note": 29,
      "start": 37.8719,
      "duration": 0.1319,
      "velocity": 93,
      "chip": "ym2612"
    },
    {
      "channel": 2,
      "note": 41,
      "start": 37.8725,
      "duration": 0.132,
      "velocity": 88,
      "chip": "ym2612"
    },
    {
      "channel": 3,
      "note": 84,
      "start": 37.8732,
      "duration": 0.0823,
      "velocity": 102,
      "chip": "ym2612"
    },
    {
      "channel": 4,
      "note": 41,
      "start": 37.8738,
      "duration": 0.0822,
      "velocity": 120,
      "chip": "ym2612"
    },
    {
      "channel": 1,
      "note": 29,
      "start": 38.0043,
      "duration": 0.1321,
      "velocity": 13,
      "chip": "ym2612"
    },
    {
      "channel": 2,
      "note": 44,
      "start": 38.005,
      "duration": 0.1327,
      "velocity": 89,
      "chip": "ym2612"
    },
    {
      "channel": 3,
      "note": 84,
      "start": 38.0056,
      "duration": 0.0822,
      "velocity": 101,
      "chip": "ym2612"
    },
    {
      "channel": 4,
      "note": 41,
      "start": 38.0062,
      "duration": 0.0821,
      "velocity": 121,
      "chip": "ym2612"
    },
    {
      "channel": 0,
      "note": 7,
      "start": 38.1363,
      "duration": 2.1182,
      "velocity": 1,
      "chip": "ym2612"
    },
    {
      "channel": 1,
      "note": 7,
      "start": 38.1375,
      "duration": 2.1176,
      "velocity": 1,
      "chip": "ym2612"
    },
    {
      "channel": 2,
      "note": 51,
      "start": 38.1382,
      "duration": 0.1309,
      "velocity": 90,
      "chip": "ym2612"
    },
    {
      "channel": 3,
      "note": 6,
      "start": 38.1394,
      "duration": 0.0809,
      "velocity": 102,
      "chip": "ym2612"
    },
    {
      "channel": 4,
      "note": 53,
      "start": 38.14,
      "duration": 0.0808,
      "velocity": 122,
      "chip": "ym2612"
    },
    {
      "channel": 5,
      "note": 7,
      "start": 38.1407,
      "duration": 2.1176,
      "velocity": 1,
      "chip": "ym2612"
    },
    {
      "channel": 2,
      "note": 68,
      "start": 38.2696,
      "duration": 0.1319,
      "velocity": 89,
      "chip": "ym2612"
    },
    {
      "channel": 3,
      "note": 9,
      "start": 38.2702,
      "duration": 0.1319,
      "velocity": 100,
      "chip": "ym2612"
    },
    {
      "channel": 4,
      "note": 56,
      "start": 38.2709,
      "duration": 0.0822,
      "velocity": 122,
      "chip": "ym2612"
    },
    {
      "channel": 2,
      "note": 56,
      "start": 38.402,
      "duration": 0.132,
      "velocity": 88,
      "chip": "ym2612"
    },
    {
      "channel": 3,
      "note": 9,
      "start": 38.4032,
      "duration": 0.1314,
      "velocity": 102,
      "chip": "ym2612"
    },
    {
      "channel": 4,
      "note": 44,
      "start": 38.4039,
      "duration": 0.0816,
      "velocity": 120,
      "chip": "ym2612"
    },
    {
      "channel": 2,
      "note": 56,
      "start": 38.5344,
      "duration": 0.1319,
      "velocity": 87,
      "chip": "ym2612"
    },
    {
      "channel": 3,
      "note": 9,
      "start": 38.5351,
      "duration": 0.0824,
      "velocity": 104,
      "chip": "ym2612"
    },
    {
      "channel": 4,
      "note": 44,
      "start": 38.5358,
      "duration": 0.1325,
      "velocity": 119,
      "chip": "ym2612"
    },
    {
      "channel": 2,
      "note": 68,
      "start": 38.6668,
      "duration": 0.132,
      "velocity": 86,
      "chip": "ym2612"
    },
    {
      "channel": 3,
      "note": 10,
      "start": 38.6681,
      "duration": 0.0819,
      "velocity": 110,
      "chip": "ym2612"
    },
    {
      "channel": 4,
      "note": 44,
      "start": 38.6687,
      "duration": 0.0817,
      "velocity": 118,
      "chip": "ym2612"
    },
    {
      "channel": 2,
      "note": 56,
      "start": 38.7992,
      "duration": 0.132,
      "velocity": 85,
      "chip": "ym2612"
    },
    {
      "channel": 3,
      "note": 10,
      "start": 38.7999,
      "duration": 0.0825,
      "velocity": 108,
      "chip": "ym2612"
    },
    {
      "channel": 4,
      "note": 56,
      "start": 38.8006,
      "duration": 0.1325,
      "velocity": 117,
      "chip": "ym2612"
    },
    {
      "channel": 2,
      "note": 59,
      "start": 38.9317,
      "duration": 0.1319,
      "velocity": 84,
      "chip": "ym2612"
    },
    {
      "channel": 3,
      "note": 12,
      "start": 38.9329,
      "duration": 0.0819,
      "velocity": 110,
      "chip": "ym2612"
    },
    {
      "channel": 4,
      "note": 44,
      "start": 38.9336,
      "duration": 0.0817,
      "velocity": 116,
      "chip": "ym2612"
    },
    {
      "channel": 2,
      "note": 56,
      "start": 39.0641,
      "duration": 0.1319,
      "velocity": 83,
      "chip": "ym2612"
    },
    {
      "channel": 3,
      "note": 12,
      "start": 39.0648,
      "duration": 0.0824,
      "velocity": 114,
      "chip": "ym2612"
    },
    {
      "channel": 4,
      "note": 56,
      "start": 39.0654,
      "duration": 0.1325,
      "velocity": 115,
      "chip": "ym2612"
    },
    {
      "channel": 2,
      "note": 68,
      "start": 39.1965,
      "duration": 0.1319,
      "velocity": 82,
      "chip": "ym2612"
    },
    {
      "channel": 3,
      "note": 9,
      "start": 39.1977,
      "duration": 0.0819,
      "velocity": 116,
      "chip": "ym2612"
    },
    {
      "channel": 4,
      "note": 44,
      "start": 39.1984,
      "duration": 0.0817,
      "velocity": 114,
      "chip": "ym2612"
    },
    {
      "channel": 2,
      "note": 56,
      "start": 39.3289,
      "duration": 0.132,
      "velocity": 83,
      "chip": "ym2612"
    },
    {
      "channel": 3,
      "note": 9,
      "start": 39.3296,
      "duration": 0.0824,
      "velocity": 114,
      "chip": "ym2612"
    },
    {
      "channel": 4,
      "note": 44,
      "start": 39.3302,
      "duration": 0.0823,
      "velocity": 115,
      "chip": "ym2612"
    },
    {
      "channel": 2,
      "note": 56,
      "start": 39.4614,
      "duration": 0.1319,
      "velocity": 84,
      "chip": "ym2612"
    },
    {
      "channel": 3,
      "note": 9,
      "start": 39.4626,
      "duration": 0.0819,
      "velocity": 119,
      "chip": "ym2612"
    },
    {
      "channel": 4,
      "note": 44,
      "start": 39.4632,
      "duration": 0.0817,
      "velocity": 116,
      "chip": "ym2612"
    },
    {
      "channel": 2,
      "note": 68,
      "start": 39.5938,
      "duration": 0.1319,
      "velocity": 85,
      "chip": "ym2612"
    },
    {
      "channel": 3,
      "note": 9,
      "start": 39.5944,
      "duration": 0.0824,
      "velocity": 121,
      "chip": "ym2612"
    },
    {
      "channel": 4,
      "note": 56,
      "start": 39.5951,
      "duration": 0.0822,
      "velocity": 117,
      "chip": "ym2612"
    },
    {
      "channel": 2,
      "note": 56,
      "start": 39.7262,
      "duration": 0.1319,
      "velocity": 86,
      "chip": "ym2612"
    },
    {
      "channel": 3,
      "note": 9,
      "start": 39.7274,
      "duration": 0.0819,
      "velocity": 122,
      "chip": "ym2612"
    },
    {
      "channel": 4,
      "note": 56,
      "start": 39.728,
      "duration": 0.0817,
      "velocity": 118,
      "chip": "ym2612"
    },
    {
      "channel": 2,
      "note": 68,
      "start": 39.8586,
      "duration": 0.132,
      "velocity": 87,
      "chip": "ym2612"
    },
    {
      "channel": 3,
      "note": 10,
      "start": 39.8593,
      "duration": 0.0824,
      "velocity": 120,
      "chip": "ym2612"
    },
    {
      "channel": 4,
      "note": 44,
      "start": 39.8599,
      "duration": 0.0823,
      "velocity": 119,
      "chip": "ym2612"
    },
    {
      "channel": 2,
      "note": 59,
      "start": 39.991,
      "duration": 0.132,
      "velocity": 88,
      "chip": "ym2612"
    },
    {
      "channel": 3,
      "note": 10,
      "start": 39.9922,
      "duration": 0.0819,
      "velocity": 127,
      "chip": "ym2612"
    },
    {
      "channel": 4,
      "note": 44,
      "start": 39.9929,
      "duration": 0.0817,
      "velocity": 120,
      "chip": "ym2612"
    },
    {
      "channel": 2,
      "note": 56,
      "start": 40.1235,
      "duration": 0.1322,
      "velocity": 89,
      "chip": "ym2612"
    },
    {
      "channel": 3,
      "note": 10,
      "start": 40.1241,
      "duration": 0.0824,
      "velocity": 123,
      "chip": "ym2612"
    },
    {
      "channel": 4,
      "note": 56,
      "start": 40.1247,
      "duration": 0.0823,
      "velocity": 121,
      "chip": "ym2612"
    },
    {
      "channel": 0,
      "note": 7,
      "start": 40.255,
      "duration": 2.1183,
      "velocity": 1,
      "chip": "ym2612"
    },
    {
      "channel": 1,
      "note": 7,
      "start": 40.2556,
      "duration": 2.1183,
      "velocity": 1,
      "chip": "ym2612"
    },
    {
      "channel": 2,
      "note": 66,
      "start": 40.2562,
      "duration": 0.0823,
      "velocity": 90,
      "chip": "ym2612"
    },
    {
      "channel": 3,
      "note": 9,
      "start": 40.2574,
      "duration": 0.0816,
      "velocity": 120,
      "chip": "ym2612"
    },
    {
      "channel": 4,
      "note": 44,
      "start": 40.2581,
      "duration": 0.0815,
      "velocity": 121,
      "chip": "ym2612"
    },
    {
      "channel": 5,
      "note": 7,
      "start": 40.2587,
      "duration": 2.1183,
      "velocity": 1,
      "chip": "ym2612"
    },
    {
      "channel": 2,
      "note": 68,
      "start": 40.3884,
      "duration": 0.0826,
      "velocity": 89,
      "chip": "ym2612"
    },
    {
      "channel": 3,
      "note": 9,
      "start": 40.389,
      "duration": 0.0824,
      "velocity": 122,
      "chip": "ym2612"
    },
    {
      "channel": 4,
      "note": 56,
      "start": 40.3896,
      "duration": 0.1326,
      "velocity": 121,
      "chip": "ym2612"
    },
    {
      "channel": 2,
      "note": 56,
      "start": 40.5207,
      "duration": 0.1319,
      "velocity": 88,
      "chip": "ym2612"
    },
    {
      "channel": 3,
      "note": 9,
      "start": 40.522,
      "duration": 0.0819,
      "velocity": 117,
      "chip": "ym2612"
    },
    {
      "channel": 4,
      "note": 44,
      "start": 40.5227,
      "duration": 0.0817,
      "velocity": 120,
      "chip": "ym2612"
    },
    {
      "channel": 2,
      "note": 56,
      "start": 40.6531,
      "duration": 0.132,
      "velocity": 87,
      "chip": "ym2612"
    },
    {
      "channel": 3,
      "note": 9,
      "start": 40.6538,
      "duration": 0.0824,
      "velocity": 119,
      "chip": "ym2612"
    },
    {
      "channel": 4,
      "note": 44,
      "start": 40.6544,
      "duration": 0.1325,
      "velocity": 119,
      "chip": "ym2612"
    },
    {
      "channel": 2,
      "note": 59,
      "start": 40.7856,
      "duration": 0.1319,
      "velocity": 86,
      "chip": "ym2612"
    },
    {
      "channel": 3,
      "note": 10,
      "start": 40.7868,
      "duration": 0.0819,
      "velocity": 118,
      "chip": "ym2612"
    },
    {
      "channel": 4,
      "note": 44,
      "start": 40.7875,
      "duration": 0.0816,
      "velocity": 118,
      "chip": "ym2612"
    },
    {
      "channel": 2,
      "note": 56,
      "start": 40.918,
      "duration": 0.1319,
      "velocity": 85,
      "chip": "ym2612"
    },
    {
      "channel": 3,
      "note": 10,
      "start": 40.9186,
      "duration": 0.0824,
      "velocity": 116,
      "chip": "ym2612"
    },
    {
      "channel": 4,
      "note": 56,
      "start": 40.9193,
      "duration": 0.1325,
      "velocity": 117,
      "chip": "ym2612"
    },
    {
      "channel": 2,
      "note": 68,
      "start": 41.0504,
      "duration": 0.132,
      "velocity": 84,
      "chip": "ym2612"
    },
    {
      "channel": 3,
      "note": 12,
      "start": 41.0516,
      "duration": 0.0819,
      "velocity": 110,
      "chip": "ym2612"
    },
    {
      "channel": 4,
      "note": 56,
      "start": 41.0523,
      "duration": 0.0817,
      "velocity": 116,
      "chip": "ym2612"
    },
    {
      "channel": 2,
      "note": 59,
      "start": 41.1828,
      "duration": 0.1319,
      "velocity": 83,
      "chip": "ym2612"
    },
    {
      "channel": 3,
      "note": 12,
      "start": 41.1835,
      "duration": 0.0824,
      "velocity": 114,
      "chip": "ym2612"
    },
    {
      "channel": 4,
      "note": 44,
      "start": 41.1841,
      "duration": 0.1325,
      "velocity": 115,
      "chip": "ym2612"
    },
    {
      "channel": 2,
      "note": 56,
      "start": 41.3153,
      "duration": 0.132,
      "velocity": 82,
      "chip": "ym2612"
    },
    {
      "channel": 3,
      "note": 9,
      "start": 41.3165,
      "duration": 0.0819,
      "velocity": 108,
      "chip": "ym2612"
    },
    {
      "channel": 4,
      "note": 44,
      "start": 41.3171,
      "duration": 0.0817,
      "velocity": 114,
      "chip": "ym2612"
    },
    {
      "channel": 2,
      "note": 56,
      "start": 41.4476,
      "duration": 0.1319,
      "velocity": 83,
      "chip": "ym2612"
    },
    {
      "channel": 3,
      "note": 9,
      "start": 41.4483,
      "duration": 0.0825,
      "velocity": 106,
      "chip": "ym2612"
    },
    {
      "channel": 4,
      "note": 56,
      "start": 41.449,
      "duration": 0.0823,
      "velocity": 115,
      "chip": "ym2612"
    },
    {
      "channel": 2,
      "note": 59,
      "start": 41.5801,
      "duration": 0.1319,
      "velocity": 84,
      "chip": "ym2612"
    },
    {
      "channel": 3,
      "note": 9,
      "start": 41.5813,
      "duration": 0.0819,
      "velocity": 104,
      "chip": "ym2612"
    },
    {
      "channel": 4,
      "note": 44,
      "start": 41.5819,
      "duration": 0.0817,
      "velocity": 116,
      "chip": "ym2612"
    },
    {
      "channel": 2,
      "note": 56,
      "start": 41.7125,
      "duration": 0.1319,
      "velocity": 85,
      "chip": "ym2612"
    },
    {
      "channel": 3,
      "note": 9,
      "start": 41.7132,
      "duration": 0.0824,
      "velocity": 106,
      "chip": "ym2612"
    },
    {
      "channel": 4,
      "note": 44,
      "start": 41.7138,
      "duration": 0.0822,
      "velocity": 116,
      "chip": "ym2612"
    },
    {
      "channel": 2,
      "note": 59,
      "start": 41.8449,
      "duration": 0.1319,
      "velocity": 86,
      "chip": "ym2612"
    },
    {
      "channel": 3,
      "note": 10,
      "start": 41.8461,
      "duration": 0.0819,
      "velocity": 100,
      "chip": "ym2612"
    },
    {
      "channel": 4,
      "note": 44,
      "start": 41.8468,
      "duration": 0.0817,
      "velocity": 118,
      "chip": "ym2612"
    },
    {
      "channel": 2,
      "note": 68,
      "start": 41.9773,
      "duration": 0.132,
      "velocity": 87,
      "chip": "ym2612"
    },
    {
      "channel": 3,
      "note": 7,
      "start": 41.978,
      "duration": 0.1319,
      "velocity": 98,
      "chip": "ym2612"
    },
    {
      "channel": 4,
      "note": 56,
      "start": 41.9786,
      "duration": 0.0823,
      "velocity": 118,
      "chip": "ym2612"
    },
    {
      "channel": 2,
      "note": 56,
      "start": 42.1097,
      "duration": 0.132,
      "velocity": 88,
      "chip": "ym2612"
    },
    {
      "channel": 3,
      "note": 7,
      "start": 42.111,
      "duration": 0.1314,
      "velocity": 106,
      "chip": "ym2612"
    },
    {
      "channel": 4,
      "note": 44,
      "start": 42.1116,
      "duration": 0.0817,
      "velocity": 120,
      "chip": "ym2612"
    },
    {
      "channel": 2,
      "note": 59,
      "start": 42.2422,
      "duration": 0.1322,
      "velocity": 89,
      "chip": "ym2612"
    },
    {
      "channel": 3,
      "note": 7,
      "start": 42.2428,
      "duration": 0.1322,
      "velocity": 102,
      "chip": "ym2612"
    },
    {
      "channel": 4,
      "note": 44,
      "start": 42.2435,
      "duration": 0.0822,
      "velocity": 121,
      "chip": "ym2612"
    },
    {
      "channel": 0,
      "note": 7,
      "start": 42.3737,
      "duration": 2.1183,
      "velocity": 1,
      "chip": "ym2612"
    },
    {
      "channel": 1,
      "note": 7,
      "start": 42.3743,
      "duration": 3.8395,
      "velocity": 1,
      "chip": "ym2612"
    },
    {
      "channel": 2,
      "note": 66,
      "start": 42.3749,
      "duration": 0.1316,
      "velocity": 90,
      "chip": "ym2612"
    },
    {
      "channel": 3,
      "note": 9,
      "start": 42.3761,
      "duration": 0.0815,
      "velocity": 102,
      "chip": "ym2612"
    },
    {
      "channel": 4,
      "note": 56,
      "start": 42.3768,
      "duration": 0.0814,
      "velocity": 122,
      "chip": "ym2612"
    },
    {
      "channel": 5,
      "note": 7,
      "start": 42.3774,
      "duration": 2.1181,
      "velocity": 1,
      "chip": "ym2612"
    },
    {
      "channel": 2,
      "note": 58,
      "start": 42.507,
      "duration": 0.132,
      "velocity": 89,
      "chip": "ym2612"
    },
    {
      "channel": 3,
      "note": 6,
      "start": 42.5076,
      "duration": 0.1319,
      "velocity": 100,
      "chip": "ym2612"
    },
    {
      "channel": 4,
      "note": 58,
      "start": 42.5083,
      "duration": 0.0823,
      "velocity": 122,
      "chip": "ym2612"
    },
    {
      "channel": 2,
      "note": 46,
      "start": 42.6394,
      "duration": 0.132,
      "velocity": 88,
      "chip": "ym2612"
    },
    {
      "channel": 3,
      "note": 6,
      "start": 42.6407,
      "duration": 0.1314,
      "velocity": 102,
      "chip": "ym2612"
    },
    {
      "channel": 4,
      "note": 46,
      "start": 42.6413,
      "duration": 0.0817,
      "velocity": 120,
      "chip": "ym2612"
    },
    {
      "channel": 2,
      "note": 46,
      "start": 42.7719,
      "duration": 0.1319,
      "velocity": 87,
      "chip": "ym2612"
    },
    {
      "channel": 3,
      "note": 6,
      "start": 42.7726,
      "duration": 0.0824,
      "velocity": 104,
      "chip": "ym2612"
    },
    {
      "channel": 4,
      "note": 46,
      "start": 42.7732,
      "duration": 0.1325,
      "velocity": 119,
      "chip": "ym2612"
    },
    {
      "channel": 2,
      "note": 58,
      "start": 42.9043,
      "duration": 0.1319,
      "velocity": 86,
      "chip": "ym2612"
    },
    {
      "channel": 3,
      "note": 7,
      "start": 42.9055,
      "duration": 0.0819,
      "velocity": 110,
      "chip": "ym2612"
    },
    {
      "channel": 4,
      "note": 46,
      "start": 42.9062,
      "duration": 0.0817,
      "velocity": 118,
      "chip": "ym2612"
    },
    {
      "channel": 2,
      "note": 46,
      "start": 43.0367,
      "duration": 0.1319,
      "velocity": 85,
      "chip": "ym2612"
    },
    {
      "channel": 3,
      "note": 7,
      "start": 43.0374,
      "duration": 0.0824,
      "velocity": 108,
      "chip": "ym2612"
    },
    {
      "channel": 4,
      "note": 58,
      "start": 43.038,
      "duration": 0.1325,
      "velocity": 117,
      "chip": "ym2612"
    },
    {
      "channel": 2,
      "note": 49,
      "start": 43.1691,
      "duration": 0.132,
      "velocity": 84,
      "chip": "ym2612"
    },
    {
      "channel": 3,
      "note": 9,
      "start": 43.1704,
      "duration": 0.0819,
      "velocity": 110,
      "chip": "ym2612"
    },
    {
      "channel": 4,
      "note": 46,
      "start": 43.1711,
      "duration": 0.0817,
      "velocity": 116,
      "chip": "ym2612"
    },
    {
      "channel": 2,
      "note": 46,
      "start": 43.3015,
      "duration": 0.132,
      "velocity": 83,
      "chip": "ym2612"
    },
    {
      "channel": 3,
      "note": 9,
      "start": 43.3022,
      "duration": 0.0824,
      "velocity": 114,
      "chip": "ym2612"
    },
    {
      "channel": 4,
      "note": 58,
      "start": 43.3029,
      "duration": 0.1325,
      "velocity": 115,
      "chip": "ym2612"
    },
    {
      "channel": 2,
      "note": 58,
      "start": 43.434,
      "duration": 0.1319,
      "velocity": 82,
      "chip": "ym2612"
    },
    {
      "channel": 3,
      "note": 6,
      "start": 43.4352,
      "duration": 0.0819,
      "velocity": 116,
      "chip": "ym2612"
    },
    {
      "channel": 4,
      "note": 46,
      "start": 43.4358,
      "duration": 0.0817,
      "velocity": 114,
      "chip": "ym2612"
    },
    {
      "channel": 2,
      "note": 46,
      "start": 43.5663,
      "duration": 0.132,
      "velocity": 83,
      "chip": "ym2612"
    },
    {
      "channel": 3,
      "note": 6,
      "start": 43.5671,
      "duration": 0.0824,
      "velocity": 114,
      "chip": "ym2612"
    },
    {
      "channel": 4,
      "note": 46,
      "start": 43.5677,
      "duration": 0.0823,
      "velocity": 115,
      "chip": "ym2612"
    },
    {
      "channel": 2,
      "note": 46,
      "start": 43.6988,
      "duration": 0.1319,
      "velocity": 84,
      "chip": "ym2612"
    },
    {
      "channel": 3,
      "note": 6,
      "start": 43.7,
      "duration": 0.0819,
      "velocity": 119,
      "chip": "ym2612"
    },
    {
      "channel": 4,
      "note": 46,
      "start": 43.7007,
      "duration": 0.0817,
      "velocity": 116,
      "chip": "ym2612"
    },
    {
      "channel": 2,
      "note": 58,
      "start": 43.8312,
      "duration": 0.132,
      "velocity": 85,
      "chip": "ym2612"
    },
    {
      "channel": 3,
      "note": 6,
      "start": 43.8319,
      "duration": 0.0824,
      "velocity": 121,
      "chip": "ym2612"
    },
    {
      "channel": 4,
      "note": 58,
      "start": 43.8325,
      "duration": 0.0823,
      "velocity": 117,
      "chip": "ym2612"
    },
    {
      "channel": 2,
      "note": 46,
      "start": 43.9636,
      "duration": 0.132,
      "velocity": 86,
      "chip": "ym2612"
    },
    {
      "channel": 3,
      "note": 6,
      "start": 43.9648,
      "duration": 0.0819,
      "velocity": 122,
      "chip": "ym2612"
    },
    {
      "channel": 4,
      "note": 58,
      "start": 43.9655,
      "duration": 0.0817,
      "velocity": 118,
      "chip": "ym2612"
    },
    {
      "channel": 2,
      "note": 58,
      "start": 44.0961,
      "duration": 0.1319,
      "velocity": 87,
      "chip": "ym2612"
    },
    {
      "channel": 3,
      "note": 7,
      "start": 44.0967,
      "duration": 0.0824,
      "velocity": 120,
      "chip": "ym2612"
    },
    {
      "channel": 4,
      "note": 46,
      "start": 44.0974,
      "duration": 0.0822,
      "velocity": 119,
      "chip": "ym2612"
    },
    {
      "channel": 2,
      "note": 49,
      "start": 44.2285,
      "duration": 0.1319,
      "velocity": 88,
      "chip": "ym2612"
    },
    {
      "channel": 3,
      "note": 7,
      "start": 44.2297,
      "duration": 0.0819,
      "velocity": 127,
      "chip": "ym2612"
    },
    {
      "channel": 4,
      "note": 46,
      "start": 44.2303,
      "duration": 0.0817,
      "velocity": 120,
      "chip": "ym2612"
    },
    {
      "channel": 2,
      "note": 46,
      "start": 44.3609,
      "duration": 0.1321,
      "velocity": 89,
      "chip": "ym2612"
    },
    {
      "channel": 3,
      "note": 7,
      "start": 44.3615,
      "duration": 0.0824,
      "velocity": 123,
      "chip": "ym2612"
    },
    {
      "channel": 4,
      "note": 58,
      "start": 44.3622,
      "duration": 0.0822,
      "velocity": 121,
      "chip": "ym2612"
    },
    {
      "channel": 0,
      "note": 7,
      "start": 44.4924,
      "duration": 2.1182,
      "velocity": 1,
      "chip": "ym2612"
    },
    {
      "channel": 2,
      "note": 56,
      "start": 44.4935,
      "duration": 0.0824,
      "velocity": 90,
      "chip": "ym2612"
    },
    {
      "channel": 3,
      "note": 6,
      "start": 44.4947,
      "duration": 0.0817,
      "velocity": 120,
      "chip": "ym2612"
    },
    {
      "channel": 4,
      "note": 46,
      "start": 44.4954,
      "duration": 0.0816,
      "velocity": 121,
      "chip": "ym2612"
    },
    {
      "channel": 5,
      "note": 7,
      "start": 44.496,
      "duration": 2.1196,
      "velocity": 1,
      "chip": "ym2612"
    },
    {
      "channel": 2,
      "note": 58,
      "start": 44.6258,
      "duration": 0.0826,
      "velocity": 89,
      "chip": "ym2612"
    },
    {
      "channel": 3,
      "note": 6,
      "start": 44.6264,
      "duration": 0.0824,
      "velocity": 122,
      "chip": "ym2612"
    },
    {
      "channel": 4,
      "note": 58,
      "start": 44.627,
      "duration": 0.1325,
      "velocity": 121,
      "chip": "ym2612"
    },
    {
      "channel": 2,
      "note": 46,
      "start": 44.7581,
      "duration": 0.132,
      "velocity": 88,
      "chip": "ym2612"
    },
    {
      "channel": 3,
      "note": 6,
      "start": 44.7593,
      "duration": 0.0819,
      "velocity": 117,
      "chip": "ym2612"
    },
    {
      "channel": 4,
      "note": 46,
      "start": 44.76,
      "duration": 0.0817,
      "velocity": 120,
      "chip": "ym2612"
    },
    {
      "channel": 2,
      "note": 46,
      "start": 44.8906,
      "duration": 0.1319,
      "velocity": 87,
      "chip": "ym2612"
    },
    {
      "channel": 3,
      "note": 6,
      "start": 44.8912,
      "duration": 0.0824,
      "velocity": 119,
      "chip": "ym2612"
    },
    {
      "channel": 4,
      "note": 46,
      "start": 44.8919,
      "duration": 0.1324,
      "velocity": 119,
      "chip": "ym2612"
    },
    {
      "channel": 2,
      "note": 49,
      "start": 45.023,
      "duration": 0.1321,
      "velocity": 86,
      "chip": "ym2612"
    },
    {
      "channel": 3,
      "note": 7,
      "start": 45.0242,
      "duration": 0.0819,
      "velocity": 118,
      "chip": "ym2612"
    },
    {
      "channel": 4,
      "note": 46,
      "start": 45.0249,
      "duration": 0.0817,
      "velocity": 118,
      "chip": "ym2612"
    },
    {
      "channel": 2,
      "note": 46,
      "start": 45.1555,
      "duration": 0.132,
      "velocity": 85,
      "chip": "ym2612"
    },
    {
      "channel": 3,
      "note": 7,
      "start": 45.1561,
      "duration": 0.0824,
      "velocity": 116,
      "chip": "ym2612"
    },
    {
      "channel": 4,
      "note": 58,
      "start": 45.1568,
      "duration": 0.1325,
      "velocity": 117,
      "chip": "ym2612"
    },
    {
      "channel": 2,
      "note": 58,
      "start": 45.2879,
      "duration": 0.1319,
      "velocity": 84,
      "chip": "ym2612"
    },
    {
      "channel": 3,
      "note": 9,
      "start": 45.2891,
      "duration": 0.0819,
      "velocity": 110,
      "chip": "ym2612"
    },
    {
      "channel": 4,
      "note": 58,
      "start": 45.2898,
      "duration": 0.0817,
      "velocity": 116,
      "chip": "ym2612"
    },
    {
      "channel": 2,
      "note": 49,
      "start": 45.4203,
      "duration": 0.1319,
      "velocity": 83,
      "chip": "ym2612"
    },
    {
      "channel": 3,
      "note": 9,
      "start": 45.421,
      "duration": 0.0823,
      "velocity": 114,
      "chip": "ym2612"
    },
    {
      "channel": 4,
      "note": 46,
      "start": 45.4216,
      "duration": 0.1325,
      "velocity": 115,
      "chip": "ym2612"
    },
    {
      "channel": 2,
      "note": 46,
      "start": 45.5527,
      "duration": 0.1319,
      "velocity": 82,
      "chip": "ym2612"
    },
    {
      "channel": 3,
      "note": 6,
      "start": 45.5539,
      "duration": 0.0819,
      "velocity": 108,
      "chip": "ym2612"
    },
    {
      "channel": 4,
      "note": 46,
      "start": 45.5546,
      "duration": 0.0817,
      "velocity": 114,
      "chip": "ym2612"
    },
    {
      "channel": 2,
      "note": 46,
      "start": 45.6851,
      "duration": 0.1319,
      "velocity": 83,
      "chip": "ym2612"
    },
    {
      "channel": 3,
      "note": 6,
      "start": 45.6858,
      "duration": 0.0824,
      "velocity": 106,
      "chip": "ym2612"
    },
    {
      "channel": 4,
      "note": 58,
      "start": 45.6864,
      "duration": 0.0823,
      "velocity": 115,
      "chip": "ym2612"
    },
    {
      "channel": 2,
      "note": 49,
      "start": 45.8175,
      "duration": 0.132,
      "velocity": 84,
      "chip": "ym2612"
    },
    {
      "channel": 3,
      "note": 6,
      "start": 45.8187,
      "duration": 0.0819,
      "velocity": 104,
      "chip": "ym2612"
    },
    {
      "channel": 4,
      "note": 46,
      "start": 45.8194,
      "duration": 0.0817,
      "velocity": 116,
      "chip": "ym2612"
    },
    {
      "channel": 2,
      "note": 46,
      "start": 45.9499,
      "duration": 0.1319,
      "velocity": 85,
      "chip": "ym2612"
    },
    {
      "channel": 3,
      "note": 6,
      "start": 45.9506,
      "duration": 0.0824,
      "velocity": 106,
      "chip": "ym2612"
    },
    {
      "channel": 4,
      "note": 46,
      "start": 45.9513,
      "duration": 0.0822,
      "velocity": 116,
      "chip": "ym2612"
    },
    {
      "channel": 2,
      "note": 49,
      "start": 46.0824,
      "duration": 0.1327,
      "velocity": 86,
      "chip": "ym2612"
    },
    {
      "channel": 3,
      "note": 7,
      "start": 46.0836,
      "duration": 0.0819,
      "velocity": 100,
      "chip": "ym2612"
    },
    {
      "channel": 4,
      "note": 46,
      "start": 46.0842,
      "duration": 0.0817,
      "velocity": 118,
      "chip": "ym2612"
    },
    {
      "channel": 1,
      "note": 22,
      "start": 46.2149,
      "duration": 0.1314,
      "velocity": 127,
      "chip": "ym2612"
    },
    {
      "channel": 2,
      "note": 58,
      "start": 46.2155,
      "duration": 0.1314,
      "velocity": 87,
      "chip": "ym2612"
    },
    {
      "channel": 3,
      "note": 4,
      "start": 46.2162,
      "duration": 0.1314,
      "velocity": 98,
      "chip": "ym2612"
    },
    {
      "channel": 4,
      "note": 58,
      "start": 46.2168,
      "duration": 0.0815,
      "velocity": 118,
      "chip": "ym2612"
    },
    {
      "channel": 1,
      "note": 22,
      "start": 46.3468,
      "duration": 0.1319,
      "velocity": 127,
      "chip": "ym2612"
    },
    {
      "channel": 2,
      "note": 46,
      "start": 46.3474,
      "duration": 0.1319,
      "velocity": 88,
      "chip": "ym2612"
    },
    {
      "channel": 3,
      "note": 4,
      "start": 46.3486,
      "duration": 0.1314,
      "velocity": 106,
      "chip": "ym2612"
    },
    {
      "channel": 4,
      "note": 46,
      "start": 46.3492,
      "duration": 0.0816,
      "velocity": 120,
      "chip": "ym2612"
    },
    {
      "channel": 1,
      "note": 22,
      "start": 46.4791,
      "duration": 0.1327,
      "velocity": 127,
      "chip": "ym2612"
    },
    {
      "channel": 2,
      "note": 49,
      "start": 46.4798,
      "duration": 0.1333,
      "velocity": 89,
      "chip": "ym2612"
    },
    {
      "channel": 3,
      "note": 4,
      "start": 46.4805,
      "duration": 0.1332,
      "velocity": 102,
      "chip": "ym2612"
    },
    {
      "channel": 4,
      "note": 46,
      "start": 46.4811,
      "duration": 0.0821,
      "velocity": 121,
      "chip": "ym2612"
    },
    {
      "channel": 0,
      "note": 33,
      "start": 46.6117,
      "duration": 0.1313,
      "velocity": 127,
      "chip": "ym2612"
    },
    {
      "channel": 1,
      "note": 29,
      "start": 46.6129,
      "duration": 0.1314,
      "velocity": 124,
      "chip": "ym2612"
    },
    {
      "channel": 2,
      "note": 56,
      "start": 46.6136,
      "duration": 0.1314,
      "velocity": 90,
      "chip": "ym2612"
    },
    {
      "channel": 3,
      "note": 84,
      "start": 46.6148,
      "duration": 0.0804,
      "velocity": 102,
      "chip": "ym2612"
    },
    {
      "channel": 4,
      "note": 58,
      "start": 46.6155,
      "duration": 0.0802,
      "velocity": 122,
      "chip": "ym2612"
    },
    {
      "channel": 5,
      "note": 23,
      "start": 46.6167,
      "duration": 0.1302,
      "velocity": 106,
      "chip": "ym2612"
    },
    {
      "channel": 0,
      "note": 21,
      "start": 46.7441,
      "duration": 0.1314,
      "velocity": 120,
      "chip": "ym2612"
    },
    {
      "channel": 1,
      "note": 29,
      "start": 46.7447,
      "duration": 0.1314,
      "velocity": 110,
      "chip": "ym2612"
    },
    {
      "channel": 2,
      "note": 53,
      "start": 46.7454,
      "duration": 0.1314,
      "velocity": 89,
      "chip": "ym2612"
    },
    {
      "channel": 3,
      "note": 84,
      "start": 46.746,
      "duration": 0.0816,
      "velocity": 101,
      "chip": "ym2612"
    },
    {
      "channel": 4,
      "note": 53,
      "start": 46.7467,
      "duration": 0.0814,
      "velocity": 122,
      "chip": "ym2612"
    },
    {
      "channel": 5,
      "note": 23,
      "start": 46.7479,
      "duration": 0.1307,
      "velocity": 110,
      "chip": "ym2612"
    },
    {
      "channel": 0,
      "note": 21,
      "start": 46.876,
      "duration": 0.1319,
      "velocity": 111,
      "chip": "ym2612"
    },
    {
      "channel": 1,
      "note": 29,
      "start": 46.8766,
      "duration": 0.1325,
      "velocity": 93,
      "chip": "ym2612"
    },
    {
      "channel": 2,
      "note": 41,
      "start": 46.8772,
      "duration": 0.1325,
      "velocity": 88,
      "chip": "ym2612"
    },
    {
      "channel": 3,
      "note": 84,
      "start": 46.8779,
      "duration": 0.0821,
      "velocity": 102,
      "chip": "ym2612"
    },
    {
      "channel": 4,
      "note": 41,
      "start": 46.8785,
      "duration": 0.082,
      "velocity": 120,
      "chip": "ym2612"
    },
    {
      "channel": 5,
      "note": 23,
      "start": 46.8797,
      "duration": 0.1319,
      "velocity": 114,
      "chip": "ym2612"
    },
    {
      "channel": 0,
      "note": 33,
      "start": 47.0089,
      "duration": 0.1314,
      "velocity": 127,
      "chip": "ym2612"
    },
    {
      "channel": 1,
      "note": 29,
      "start": 47.0096,
      "duration": 0.1319,
      "velocity": 13,
      "chip": "ym2612"
    },
    {
      "channel": 2,
      "note": 41,
      "start": 47.0102,
      "duration": 0.1319,
      "velocity": 87,
      "chip": "ym2612"
    },
    {
      "channel": 3,
      "note": 84,
      "start": 47.0109,
      "duration": 0.0815,
      "velocity": 102,
      "chip": "ym2612"
    },
    {
      "channel": 4,
      "note": 41,
      "start": 47.0115,
      "duration": 0.1319,
      "velocity": 119,
      "chip": "ym2612"
    },
    {
      "channel": 5,
      "note": 23,
      "start": 47.0127,
      "duration": 0.1314,
      "velocity": 118,
      "chip": "ym2612"
    },
    {
      "channel": 0,
      "note": 22,
      "start": 47.1413,
      "duration": 0.2638,
      "velocity": 127,
      "chip": "ym2612"
    },
    {
      "channel": 1,
      "note": 29,
      "start": 47.142,
      "duration": 0.1312,
      "velocity": 124,
      "chip": "ym2612"
    },
    {
      "channel": 2,
      "note": 53,
      "start": 47.1427,
      "duration": 0.1312,
      "velocity": 86,
      "chip": "ym2612"
    },
    {
      "channel": 3,
      "note": 84,
      "start": 47.1433,
      "duration": 0.0815,
      "velocity": 101,
      "chip": "ym2612"
    },
    {
      "channel": 4,
      "note": 41,
      "start": 47.1439,
      "duration": 0.0814,
      "velocity": 118,
      "chip": "ym2612"
    },
    {
      "channel": 5,
      "note": 23,
      "start": 47.1452,
      "duration": 0.1306,
      "velocity": 121,
      "chip": "ym2612"
    },
    {
      "channel": 1,
      "note": 29,
      "start": 47.2737,
      "duration": 0.1327,
      "velocity": 110,
      "chip": "ym2612"
    },
    {
      "channel": 2,
      "note": 41,
      "start": 47.2743,
      "duration": 0.1327,
      "velocity": 85,
      "chip": "ym2612"
    },
    {
      "channel": 3,
      "note": 84,
      "start": 47.2749,
      "duration": 0.0823,
      "velocity": 102,
      "chip": "ym2612"
    },
    {
      "channel": 4,
      "note": 53,
      "start": 47.2756,
      "duration": 0.1326,
      "velocity": 117,
      "chip": "ym2612"
    },
    {
      "channel": 5,
      "note": 23,
      "start": 47.2768,
      "duration": 0.1321,
      "velocity": 124,
      "chip": "ym2612"
    },
    {
      "channel": 0,
      "note": 33,
      "start": 47.4062,
      "duration": 0.1314,
      "velocity": 127,
      "chip": "ym2612"
    },
    {
      "channel": 1,
      "note": 29,
      "start": 47.4069,
      "duration": 0.132,
      "velocity": 117,
      "chip": "ym2612"
    },
    {
      "channel": 2,
      "note": 44,
      "start": 47.4075,
      "duration": 0.132,
      "velocity": 84,
      "chip": "ym2612"
    },
    {
      "channel": 3,
      "note": 84,
      "start": 47.4081,
      "duration": 0.0816,
      "velocity": 102,
      "chip": "ym2612"
    },
    {
      "channel": 4,
      "note": 41,
      "start": 47.4088,
      "duration": 0.0814,
      "velocity": 116,
      "chip": "ym2612"
    },
    {
      "channel": 5,
      "note": 23,
      "start": 47.41,
      "duration": 0.1314,
      "velocity": 127,
      "chip": "ym2612"
    },
    {
      "channel": 0,
      "note": 22,
      "start": 47.5387,
      "duration": 0.1313,
      "velocity": 127,
      "chip": "ym2612"
    },
    {
      "channel": 1,
      "note": 29,
      "start": 47.5393,
      "duration": 0.1319,
      "velocity": 13,
      "chip": "ym2612"
    },
    {
      "channel": 2,
      "note": 41,
      "start": 47.54,
      "duration": 0.1319,
      "velocity": 83,
      "chip": "ym2612"
    },
    {
      "channel": 3,
      "note": 84,
      "start": 47.5406,
      "duration": 0.0815,
      "velocity": 101,
      "chip": "ym2612"
    },
    {
      "channel": 4,
      "note": 53,
      "start": 47.5412,
      "duration": 0.1319,
      "velocity": 115,
      "chip": "ym2612"
    },
    {
      "channel": 5,
      "note": 23,
      "start": 47.5425,
      "duration": 0.1313,
      "velocity": 124,
      "chip": "ym2612"
    },
    {
      "channel": 0,
      "note": 21,
      "start": 47.6711,
      "duration": 0.1314,
      "velocity": 112,
      "chip": "ym2612"
    },
    {
      "channel": 1,
      "note": 29,
      "start": 47.6717,
      "duration": 0.1319,
      "velocity": 124,
      "chip": "ym2612"
    },
    {
      "channel": 2,
      "note": 53,
      "start": 47.6724,
      "duration": 0.132,
      "velocity": 82,
      "chip": "ym2612"
    },
    {
      "channel": 3,
      "note": 84,
      "start": 47.673,
      "duration": 0.0815,
      "velocity": 102,
      "chip": "ym2612"
    },
    {
      "channel": 4,
      "note": 41,
      "start": 47.6737,
      "duration": 0.0814,
      "velocity": 114,
      "chip": "ym2612"
    },
    {
      "channel": 5,
      "note": 23,
      "start": 47.6749,
      "duration": 0.1314,
      "velocity": 121,
      "chip": "ym2612"
    },
    {
      "channel": 0,
      "note": 33,
      "start": 47.8034,
      "duration": 0.1314,
      "velocity": 119,
      "chip": "ym2612"
    },
    {
      "channel": 1,
      "note": 29,
      "start": 47.8041,
      "duration": 0.132,
      "velocity": 115,
      "chip": "ym2612"
    },
    {
      "channel": 2,
      "note": 41,
      "start": 47.8048,
      "duration": 0.132,
      "velocity": 83,
      "chip": "ym2612"
    },
    {
      "channel": 3,
      "note": 84,
      "start": 47.8054,
      "duration": 0.0816,
      "velocity": 101,
      "chip": "ym2612"
    },
    {
      "channel": 4,
      "note": 41,
      "start": 47.8061,
      "duration": 0.0814,
      "velocity": 115,
      "chip": "ym2612"
    },
    {
      "channel": 5,
      "note": 23,
      "start": 47.8073,
      "duration": 0.1313,
      "velocity": 124,
      "chip": "ym2612"
    },
    {
      "channel": 0,
      "note": 21,
      "start": 47.9359,
      "duration": 0.1314,
      "velocity": 112,
      "chip": "ym2612"
    },
    {
      "channel": 1,
      "note": 29,
      "start": 47.9365,
      "duration": 0.1314,
      "velocity": 13,
      "chip": "ym2612"
    },
    {
      "channel": 2,
      "note": 41,
      "start": 47.9372,
      "duration": 0.1313,
      "velocity": 84,
      "chip": "ym2612"
    },
    {
      "channel": 3,
      "note": 84,
      "start": 47.9378,
      "duration": 0.0815,
      "velocity": 102,
      "chip": "ym2612"
    },
    {
      "channel": 4,
      "note": 41,
      "start": 47.9385,
      "duration": 0.0814,
      "velocity": 116,
      "chip": "ym2612"
    },
    {
      "channel": 5,
      "note": 23,
      "start": 47.9397,
      "duration": 0.1307,
      "velocity": 127,
      "chip": "ym2612"
    },
    {
      "channel": 0,
      "note": 21,
      "start": 48.0677,
      "duration": 0.1319,
      "velocity": 112,
      "chip": "ym2612"
    },
    {
      "channel": 1,
      "note": 29,
      "start": 48.0684,
      "duration": 0.1325,
      "velocity": 13,
      "chip": "ym2612"
    },
    {
      "channel": 2,
      "note": 53,
      "start": 48.069,
      "duration": 0.1325,
      "velocity": 85,
      "chip": "ym2612"
    },
    {
      "channel": 3,
      "note": 84,
      "start": 48.0697,
      "duration": 0.0821,
      "velocity": 102,
      "chip": "ym2612"
    },
    {
      "channel": 4,
      "note": 53,
      "start": 48.0703,
      "duration": 0.082,
      "velocity": 117,
      "chip": "ym2612"
    },
    {
      "channel": 5,
      "note": 23,
      "start": 48.0716,
      "duration": 0.1319,
      "velocity": 124,
      "chip": "ym2612"
    },
    {
      "channel": 0,
      "note": 22,
      "start": 48.2008,
      "duration": 0.1313,
      "velocity": 119,
      "chip": "ym2612"
    },
    {
      "channel": 1,
      "note": 29,
      "start": 48.2014,
      "duration": 0.1319,
      "velocity": 124,
      "chip": "ym2612"
    },
    {
      "channel": 2,
      "note": 41,
      "start": 48.202,
      "duration": 0.1319,
      "velocity": 86,
      "chip": "ym2612"
    },
    {
      "channel": 3,
      "note": 84,
      "start": 48.2027,
      "duration": 0.0815,
      "velocity": 101,
      "chip": "ym2612"
    },
    {
      "channel": 4,
      "note": 53,
      "start": 48.2033,
      "duration": 0.0814,
      "velocity": 118,
      "chip": "ym2612"
    },
    {
      "channel": 5,
      "note": 23,
      "start": 48.2046,
      "duration": 0.1312,
      "velocity": 121,
      "chip": "ym2612"
    },
    {
      "channel": 0,
      "note": 30,
      "start": 48.3332,
      "duration": 0.1314,
      "velocity": 112,
      "chip": "ym2612"
    },
    {
      "channel": 1,
      "note": 29,
      "start": 48.3338,
      "duration": 0.1314,
      "velocity": 120,
      "chip": "ym2612"
    },
    {
      "channel": 2,
      "note": 53,
      "start": 48.3344,
      "duration": 0.1314,
      "velocity": 87,
      "chip": "ym2612"
    },
    {
      "channel": 3,
      "note": 84,
      "start": 48.3351,
      "duration": 0.0815,
      "velocity": 102,
      "chip": "ym2612"
    },
    {
      "channel": 4,
      "note": 41,
      "start": 48.3357,
      "duration": 0.0814,
      "velocity": 119,
      "chip": "ym2612"
    },
    {
      "channel": 5,
      "note": 23,
      "start": 48.337,
      "duration": 0.1307,
      "velocity": 118,
      "chip": "ym2612"
    },
    {
      "channel": 0,
      "note": 21,
      "start": 48.4649,
      "duration": 0.132,
      "velocity": 112,
      "chip": "ym2612"
    },
    {
      "channel": 1,
      "note": 29,
      "start": 48.4656,
      "duration": 0.132,
      "velocity": 93,
      "chip": "ym2612"
    },
    {
      "channel": 2,
      "note": 44,
      "start": 48.4663,
      "duration": 0.1319,
      "velocity": 88,
      "chip": "ym2612"
    },
    {
      "channel": 3,
      "note": 84,
      "start": 48.4669,
      "duration": 0.0821,
      "velocity": 102,
      "chip": "ym2612"
    },
    {
      "channel": 4,
      "note": 41,
      "start": 48.4676,
      "duration": 0.082,
      "velocity": 120,
      "chip": "ym2612"
    },
    {
      "channel": 5,
      "note": 23,
      "start": 48.4688,
      "duration": 0.1313,
      "velocity": 114,
      "chip": "ym2612"
    },
    {
      "channel": 0,
      "note": 21,
      "start": 48.5974,
      "duration": 0.1319,
      "velocity": 112,
      "chip": "ym2612"
    },
    {
      "channel": 1,
      "note": 29,
      "start": 48.598,
      "duration": 0.1325,
      "velocity": 13,
      "chip": "ym2612"
    },
    {
      "channel": 2,
      "note": 41,
      "start": 48.5987,
      "duration": 0.1325,
      "velocity": 89,
      "chip": "ym2612"
    },
    {
      "channel": 3,
      "note": 84,
      "start": 48.5993,
      "duration": 0.0821,
      "velocity": 101,
      "chip": "ym2612"
    },
    {
      "channel": 4,
      "note": 53,
      "start": 48.5999,
      "duration": 0.082,
      "velocity": 121,
      "chip": "ym2612"
    },
    {
      "channel": 5,
      "note": 23,
      "start": 48.6012,
      "duration": 0.1319,
      "velocity": 110,
      "chip": "ym2612"
    },
    {
      "channel": 0,
      "note": 22,
      "start": 48.7304,
      "duration": 0.1314,
      "velocity": 127,
      "chip": "ym2612"
    },
    {
      "channel": 1,
      "note": 29,
      "start": 48.731,
      "duration": 0.1319,
      "velocity": 124,
      "chip": "ym2612"
    },
    {
      "channel": 2,
      "note": 51,
      "start": 48.7317,
      "duration": 0.0817,
      "velocity": 90,
      "chip": "ym2612"
    },
    {
      "channel": 3,
      "note": 84,
      "start": 48.7323,
      "duration": 0.0816,
      "velocity": 102,
      "chip": "ym2612"
    },
    {
      "channel": 4,
      "note": 41,
      "start": 48.7329,
      "duration": 0.0815,
      "velocity": 121,
      "chip": "ym2612"
    },
    {
      "channel": 5,
      "note": 21,
      "start": 48.7341,
      "duration": 0.1314,
      "velocity": 106,
      "chip": "ym2612"
    },
    {
      "channel": 0,
      "note": 21,
      "start": 48.8629,
      "duration": 0.1314,
      "velocity": 120,
      "chip": "ym2612"
    },
    {
      "channel": 1,
      "note": 29,
      "start": 48.8635,
      "duration": 0.1313,
      "velocity": 110,
      "chip": "ym2612"
    },
    {
      "channel": 2,
      "note": 53,
      "start": 48.8641,
      "duration": 0.0817,
      "velocity": 89,
      "chip": "ym2612"
    },
    {
      "channel": 3,
      "note": 84,
      "start": 48.8648,
      "duration": 0.0815,
      "velocity": 101,
      "chip": "ym2612"
    },
    {
      "channel": 4,
      "note": 53,
      "start": 48.8654,
      "duration": 0.1314,
      "velocity": 121,
      "chip": "ym2612"
    },
    {
      "channel": 5,
      "note": 21,
      "start": 48.8666,
      "duration": 0.1307,
      "velocity": 110,
      "chip": "ym2612"
    },
    {
      "channel": 0,
      "note": 21,
      "start": 48.9946,
      "duration": 0.132,
      "velocity": 111,
      "chip": "ym2612"
    },
    {
      "channel": 1,
      "note": 29,
      "start": 48.9953,
      "duration": 0.1326,
      "velocity": 93,
      "chip": "ym2612"
    },
    {
      "channel": 2,
      "note": 41,
      "start": 48.9959,
      "duration": 0.1326,
      "velocity": 88,
      "chip": "ym2612"
    },
    {
      "channel": 3,
      "note": 84,
      "start": 48.9966,
      "duration": 0.0821,
      "velocity": 102,
      "chip": "ym2612"
    },
    {
      "channel": 4,
      "note": 41,
      "start": 48.9972,
      "duration": 0.082,
      "velocity": 120,
      "chip": "ym2612"
    },
    {
      "channel": 5,
      "note": 21,
      "start": 48.9985,
      "duration": 0.1319,
      "velocity": 114,
      "chip": "ym2612"
    },
    {
      "channel": 0,
      "note": 33,
      "start": 49.1277,
      "duration": 0.1314,
      "velocity": 127,
      "chip": "ym2612"
    },
    {
      "channel": 1,
      "note": 29,
      "start": 49.1283,
      "duration": 0.132,
      "velocity": 13,
      "chip": "ym2612"
    },
    {
      "channel": 2,
      "note": 41,
      "start": 49.1289,
      "duration": 0.132,
      "velocity": 87,
      "chip": "ym2612"
    },
    {
      "channel": 3,
      "note": 84,
      "start": 49.1296,
      "duration": 0.0816,
      "velocity": 102,
      "chip": "ym2612"
    },
    {
      "channel": 4,
      "note": 41,
      "start": 49.1302,
      "duration": 0.132,
      "velocity": 119,
      "chip": "ym2612"
    },
    {
      "channel": 5,
      "note": 21,
      "start": 49.1315,
      "duration": 0.1313,
      "velocity": 118,
      "chip": "ym2612"
    },
    {
      "channel": 0,
      "note": 22,
      "start": 49.2601,
      "duration": 0.1313,
      "velocity": 127,
      "chip": "ym2612"
    },
    {
      "channel": 1,
      "note": 29,
      "start": 49.2607,
      "duration": 0.1319,
      "velocity": 124,
      "chip": "ym2612"
    },
    {
      "channel": 2,
      "note": 44,
      "start": 49.2614,
      "duration": 0.1319,
      "velocity": 86,
      "chip": "ym2612"
    },
    {
      "channel": 3,
      "note": 84,
      "start": 49.262,
      "duration": 0.0816,
      "velocity": 101,
      "chip": "ym2612"
    },
    {
      "channel": 4,
      "note": 41,
      "start": 49.2627,
      "duration": 0.0814,
      "velocity": 118,
      "chip": "ym2612"
    },
    {
      "channel": 5,
      "note": 21,
      "start": 49.2639,
      "duration": 0.1312,
      "velocity": 121,
      "chip": "ym2612"
    },
    {
      "channel": 0,
      "note": 32,
      "start": 49.3925,
      "duration": 0.1314,
      "velocity": 120,
      "chip": "ym2612"
    },
    {
      "channel": 1,
      "note": 29,
      "start": 49.3931,
      "duration": 0.1319,
      "velocity": 110,
      "chip": "ym2612"
    },
    {
      "channel": 2,
      "note": 41,
      "start": 49.3938,
      "duration": 0.1319,
      "velocity": 85,
      "chip": "ym2612"
    },
    {
      "channel": 3,
      "note": 84,
      "start": 49.3944,
      "duration": 0.0816,
      "velocity": 102,
      "chip": "ym2612"
    },
    {
      "channel": 4,
      "note": 53,
      "start": 49.395,
      "duration": 0.1319,
      "velocity": 117,
      "chip": "ym2612"
    },
    {
      "channel": 5,
      "note": 21,
      "start": 49.3963,
      "duration": 0.1313,
      "velocity": 124,
      "chip": "ym2612"
    },
    {
      "channel": 0,
      "note": 33,
      "start": 49.5249,
      "duration": 0.1314,
      "velocity": 127,
      "chip": "ym2612"
    },
    {
      "channel": 1,
      "note": 29,
      "start": 49.5256,
      "duration": 0.1319,
      "velocity": 117,
      "chip": "ym2612"
    },
    {
      "channel": 2,
      "note": 53,
      "start": 49.5262,
      "duration": 0.1319,
      "velocity": 84,
      "chip": "ym2612"
    },
    {
      "channel": 3,
      "note": 84,
      "start": 49.5268,
      "duration": 0.0815,
      "velocity": 102,
      "chip": "ym2612"
    },
    {
      "channel": 4,
      "note": 53,
      "start": 49.5275,
      "duration": 0.0814,
      "velocity": 116,
      "chip": "ym2612"
    },
    {
      "channel": 5,
      "note": 21,
      "start": 49.5287,
      "duration": 0.1314,
      "velocity": 127,
      "chip": "ym2612"
    },
    {
      "channel": 0,
      "note": 21,
      "start": 49.6573,
      "duration": 0.1314,
      "velocity": 120,
      "chip": "ym2612"
    },
    {
      "channel": 1,
      "note": 29,
      "start": 49.658,
      "duration": 0.1313,
      "velocity": 13,
      "chip": "ym2612"
    },
    {
      "channel": 2,
      "note": 44,
      "start": 49.6587,
      "duration": 0.1313,
      "velocity": 83,
      "chip": "ym2612"
    },
    {
      "channel": 3,
      "note": 84,
      "start": 49.6593,
      "duration": 0.0815,
      "velocity": 101,
      "chip": "ym2612"
    },
    {
      "channel": 4,
      "note": 41,
      "start": 49.6599,
      "duration": 0.1314,
      "velocity": 115,
      "chip": "ym2612"
    },
    {
      "channel": 5,
      "note": 21,
      "start": 49.6611,
      "duration": 0.1307,
      "velocity": 124,
      "chip": "ym2612"
    },
    {
      "channel": 0,
      "note": 21,
      "start": 49.7892,
      "duration": 0.1319,
      "velocity": 112,
      "chip": "ym2612"
    },
    {
      "channel": 1,
      "note": 29,
      "start": 49.7898,
      "duration": 0.1325,
      "velocity": 124,
      "chip": "ym2612"
    },
    {
      "channel": 2,
      "note": 41,
      "start": 49.7905,
      "duration": 0.1325,
      "velocity": 82,
      "chip": "ym2612"
    },
    {
      "channel": 3,
      "note": 84,
      "start": 49.7911,
      "duration": 0.0821,
      "velocity": 102,
      "chip": "ym2612"
    },
    {
      "channel": 4,
      "note": 41,
      "start": 49.7917,
      "duration": 0.082,
      "velocity": 114,
      "chip": "ym2612"
    },
    {
      "channel": 5,
      "note": 21,
      "start": 49.793,
      "duration": 0.1319,
      "velocity": 121,
      "chip": "ym2612"
    },
    {
      "channel": 0,
      "note": 33,
      "start": 49.9222,
      "duration": 0.1314,
      "velocity": 119,
      "chip": "ym2612"
    },
    {
      "channel": 1,
      "note": 29,
      "start": 49.9228,
      "duration": 0.132,
      "velocity": 115,
      "chip": "ym2612"
    },
    {
      "channel": 2,
      "note": 41,
      "start": 49.9235,
      "duration": 0.132,
      "velocity": 83,
      "chip": "ym2612"
    },
    {
      "channel": 3,
      "note": 84,
      "start": 49.9241,
      "duration": 0.0816,
      "velocity": 101,
      "chip": "ym2612"
    },
    {
      "channel": 4,
      "note": 53,
      "start": 49.9247,
      "duration": 0.0815,
      "velocity": 115,
      "chip": "ym2612"
    },
    {
      "channel": 5,
      "note": 21,
      "start": 49.926,
      "duration": 0.1314,
      "velocity": 124,
      "chip": "ym2612"
    },
    {
      "channel": 0,
      "note": 21,
      "start": 50.0546,
      "duration": 0.1314,
      "velocity": 112,
      "chip": "ym2612"
    },
    {
      "channel": 1,
      "note": 29,
      "start": 50.0553,
      "duration": 0.1313,
      "velocity": 13,
      "chip": "ym2612"
    },
    {
      "channel": 2,
      "note": 44,
      "start": 50.0559,
      "duration": 0.1314,
      "velocity": 84,
      "chip": "ym2612"
    },
    {
      "channel": 3,
      "note": 84,
      "start": 50.0566,
      "duration": 0.0815,
      "velocity": 102,
      "chip": "ym2612"
    },
    {
      "channel": 4,
      "note": 41,
      "start": 50.0573,
      "duration": 0.0814,
      "velocity": 116,
      "chip": "ym2612"
    },
    {
      "channel": 5,
      "note": 21,
      "start": 50.0585,
      "duration": 0.1307,
      "velocity": 127,
      "chip": "ym2612"
    },
    {
      "channel": 0,
      "note": 21,
      "start": 50.1864,
      "duration": 0.132,
      "velocity": 112,
      "chip": "ym2612"
    },
    {
      "channel": 1,
      "note": 29,
      "start": 50.1871,
      "duration": 0.1326,
      "velocity": 13,
      "chip": "ym2612"
    },
    {
      "channel": 2,
      "note": 41,
      "start": 50.1878,
      "duration": 0.1325,
      "velocity": 85,
      "chip": "ym2612"
    },
    {
      "channel": 3,
      "note": 84,
      "start": 50.1884,
      "duration": 0.0821,
      "velocity": 102,
      "chip": "ym2612"
    },
    {
      "channel": 4,
      "note": 41,
      "start": 50.189,
      "duration": 0.082,
      "velocity": 116,
      "chip": "ym2612"
    },
    {
      "channel": 5,
      "note": 21,
      "start": 50.1903,
      "duration": 0.1319,
      "velocity": 124,
      "chip": "ym2612"
    },
    {
      "channel": 0,
      "note": 22,
      "start": 50.3195,
      "duration": 0.2637,
      "velocity": 119,
      "chip": "ym2612"
    },
    {
      "channel": 1,
      "note": 29,
      "start": 50.3201,
      "duration": 0.1312,
      "velocity": 124,
      "chip": "ym2612"
    },
    {
      "channel": 2,
      "note": 44,
      "start": 50.3208,
      "duration": 0.1311,
      "velocity": 86,
      "chip": "ym2612"
    },
    {
      "channel": 3,
      "note": 84,
      "start": 50.3214,
      "duration": 0.0815,
      "velocity": 101,
      "chip": "ym2612"
    },
    {
      "channel": 4,
      "note": 41,
      "start": 50.3221,
      "duration": 0.0814,
      "velocity": 118,
      "chip": "ym2612"
    },
    {
      "channel": 5,
      "note": 21,
      "start": 50.3233,
      "duration": 0.1305,
      "velocity": 121,
      "chip": "ym2612"
    },
    {
      "channel": 1,
      "note": 29,
      "start": 50.4518,
      "duration": 0.1326,
      "velocity": 120,
      "chip": "ym2612"
    },
    {
      "channel": 2,
      "note": 53,
      "start": 50.4524,
      "duration": 0.1326,
      "velocity": 87,
      "chip": "ym2612"
    },
    {
      "channel": 3,
      "note": 84,
      "start": 50.4531,
      "duration": 0.0822,
      "velocity": 102,
      "chip": "ym2612"
    },
    {
      "channel": 4,
      "note": 53,
      "start": 50.4537,
      "duration": 0.0821,
      "velocity": 118,
      "chip": "ym2612"
    },
    {
      "channel": 5,
      "note": 21,
      "start": 50.455,
      "duration": 0.132,
      "velocity": 118,
      "chip": "ym2612"
    },
    {
      "channel": 0,
      "note": 21,
      "start": 50.5843,
      "duration": 0.1314,
      "velocity": 112,
      "chip": "ym2612"
    },
    {
      "channel": 1,
      "note": 29,
      "start": 50.5849,
      "duration": 0.1319,
      "velocity": 93,
      "chip": "ym2612"
    },
    {
      "channel": 2,
      "note": 41,
      "start": 50.5856,
      "duration": 0.1319,
      "velocity": 88,
      "chip": "ym2612"
    },
    {
      "channel": 3,
      "note": 84,
      "start": 50.5862,
      "duration": 0.0816,
      "velocity": 102,
      "chip": "ym2612"
    },
    {
      "channel": 4,
      "note": 41,
      "start": 50.5868,
      "duration": 0.0814,
      "velocity": 120,
      "chip": "ym2612"
    },
    {
      "channel": 5,
      "note": 21,
      "start": 50.5881,
      "duration": 0.1313,
      "velocity": 114,
      "chip": "ym2612"
    },
    {
      "channel": 0,
      "note": 22,
      "start": 50.7167,
      "duration": 0.1313,
      "velocity": 119,
      "chip": "ym2612"
    },
    {
      "channel": 1,
      "note": 29,
      "start": 50.7174,
      "duration": 0.1319,
      "velocity": 13,
      "chip": "ym2612"
    },
    {
      "channel": 2,
      "note": 44,
      "start": 50.718,
      "duration": 0.1319,
      "velocity": 89,
      "chip": "ym2612"
    },
    {
      "channel": 3,
      "note": 84,
      "start": 50.7186,
      "duration": 0.0815,
      "velocity": 101,
      "chip": "ym2612"
    },
    {
      "channel": 4,
      "note": 41,
      "start": 50.7193,
      "duration": 0.0814,
      "velocity": 121,
      "chip": "ym2612"
    },
    {
      "channel": 5,
      "note": 21,
      "start": 50.7206,
      "duration": 0.1312,
      "velocity": 110,
      "chip": "ym2612"
    },
    {
      "channel": 0,
      "note": 33,
      "start": 50.8491,
      "duration": 0.1314,
      "velocity": 127,
      "chip": "ym2612"
    },
    {
      "channel": 1,
      "note": 29,
      "start": 50.8498,
      "duration": 0.1319,
      "velocity": 124,
      "chip": "ym2612"
    },
    {
      "channel": 2,
      "note": 51,
      "start": 50.8505,
      "duration": 0.1319,
      "velocity": 90,
      "chip": "ym2612"
    },
    {
      "channel": 3,
      "note": 84,
      "start": 50.8511,
      "duration": 0.0815,
      "velocity": 102,
      "chip": "ym2612"
    },
    {
      "channel": 4,
      "note": 53,
      "start": 50.8517,
      "duration": 0.0814,
      "velocity": 122,
      "chip": "ym2612"
    },
    {
      "channel": 5,
      "note": 18,
      "start": 50.8529,
      "duration": 0.1313,
      "velocity": 106,
      "chip": "ym2612"
    },
    {
      "channel": 0,
      "note": 21,
      "start": 50.9815,
      "duration": 0.1314,
      "velocity": 120,
      "chip": "ym2612"
    },
    {
      "channel": 1,
      "note": 29,
      "start": 50.9822,
      "duration": 0.1314,
      "velocity": 110,
      "chip": "ym2612"
    },
    {
      "channel": 2,
      "note": 53,
      "start": 50.9828,
      "duration": 0.1314,
      "velocity": 89,
      "chip": "ym2612"
    },
    {
      "channel": 3,
      "note": 84,
      "start": 50.9835,
      "duration": 0.0815,
      "velocity": 101,
      "chip": "ym2612"
    },
    {
      "channel": 4,
      "note": 53,
      "start": 50.9841,
      "duration": 0.0814,
      "velocity": 122,
      "chip": "ym2612"
    },
    {
      "channel": 5,
      "note": 18,
      "start": 50.9853,
      "duration": 0.1308,
      "velocity": 110,
      "chip": "ym2612"
    },
    {
      "channel": 0,
      "note": 21,
      "start": 51.1134,
      "duration": 0.1319,
      "velocity": 111,
      "chip": "ym2612"
    },
    {
      "channel": 1,
      "note": 29,
      "start": 51.114,
      "duration": 0.1326,
      "velocity": 93,
      "chip": "ym2612"
    },
    {
      "channel": 2,
      "note": 41,
      "start": 51.1147,
      "duration": 0.1325,
      "velocity": 88,
      "chip": "ym2612"
    },
    {
      "channel": 3,
      "note": 84,
      "start": 51.1153,
      "duration": 0.0821,
      "velocity": 102,
      "chip": "ym2612"
    },
    {
      "channel": 4,
      "note": 41,
      "start": 51.116,
      "duration": 0.0819,
      "velocity": 120,
      "chip": "ym2612"
    },
    {
      "channel": 5,
      "note": 18,
      "start": 51.1172,
      "duration": 0.1319,
      "velocity": 114,
      "chip": "ym2612"
    },
    {
      "channel": 0,
      "note": 33,
      "start": 51.2464,
      "duration": 0.1314,
      "velocity": 127,
      "chip": "ym2612"
    },
    {
      "channel": 1,
      "note": 29,
      "start": 51.247,
      "duration": 0.132,
      "velocity": 13,
      "chip": "ym2612"
    },
    {
      "channel": 2,
      "note": 41,
      "start": 51.2476,
      "duration": 0.132,
      "velocity": 87,
      "chip": "ym2612"
    },
    {
      "channel": 3,
      "note": 84,
      "start": 51.2483,
      "duration": 0.0816,
      "velocity": 102,
      "chip": "ym2612"
    },
    {
      "channel": 4,
      "note": 41,
      "start": 51.2489,
      "duration": 0.132,
      "velocity": 119,
      "chip": "ym2612"
    },
    {
      "channel": 5,
      "note": 18,
      "start": 51.2502,
      "duration": 0.1313,
      "velocity": 118,
      "chip": "ym2612"
    },
    {
      "channel": 0,
      "note": 22,
      "start": 51.3788,
      "duration": 0.2637,
      "velocity": 127,
      "chip": "ym2612"
    },
    {
      "channel": 1,
      "note": 29,
      "start": 51.3795,
      "duration": 0.1312,
      "velocity": 124,
      "chip": "ym2612"
    },
    {
      "channel": 2,
      "note": 53,
      "start": 51.3801,
      "duration": 0.1312,
      "velocity": 86,
      "chip": "ym2612"
    },
    {
      "channel": 3,
      "note": 84,
      "start": 51.3807,
      "duration": 0.0815,
      "velocity": 101,
      "chip": "ym2612"
    },
    {
      "channel": 4,
      "note": 41,
      "start": 51.3814,
      "duration": 0.0814,
      "velocity": 118,
      "chip": "ym2612"
    },
    {
      "channel": 5,
      "note": 18,
      "start": 51.3826,
      "duration": 0.1305,
      "velocity": 121,
      "chip": "ym2612"
    },
    {
      "channel": 1,
      "note": 29,
      "start": 51.5111,
      "duration": 0.1327,
      "velocity": 110,
      "chip": "ym2612"
    },
    {
      "channel": 2,
      "note": 41,
      "start": 51.5118,
      "duration": 0.1327,
      "velocity": 85,
      "chip": "ym2612"
    },
    {
      "channel": 3,
      "note": 84,
      "start": 51.5124,
      "duration": 0.0822,
      "velocity": 102,
      "chip": "ym2612"
    },
    {
      "channel": 4,
      "note": 53,
      "start": 51.513,
      "duration": 0.1327,
      "velocity": 117,
      "chip": "ym2612"
    },
    {
      "channel": 5,
      "note": 18,
      "start": 51.5143,
      "duration": 0.132,
      "velocity": 124,
      "chip": "ym2612"
    },
    {
      "channel": 0,
      "note": 33,
      "start": 51.6436,
      "duration": 0.1314,
      "velocity": 127,
      "chip": "ym2612"
    },
    {
      "channel": 1,
      "note": 29,
      "start": 51.6443,
      "duration": 0.132,
      "velocity": 117,
      "chip": "ym2612"
    },
    {
      "channel": 2,
      "note": 44,
      "start": 51.6449,
      "duration": 0.132,
      "velocity": 84,
      "chip": "ym2612"
    },
    {
      "channel": 3,
      "note": 84,
      "start": 51.6456,
      "duration": 0.0815,
      "velocity": 102,
      "chip": "ym2612"
    },
    {
      "channel": 4,
      "note": 41,
      "start": 51.6462,
      "duration": 0.0814,
      "velocity": 116,
      "chip": "ym2612"
    },
    {
      "channel": 5,
      "note": 18,
      "start": 51.6475,
      "duration": 0.1313,
      "velocity": 127,
      "chip": "ym2612"
    },
    {
      "channel": 0,
      "note": 22,
      "start": 51.7761,
      "duration": 0.1313,
      "velocity": 127,
      "chip": "ym2612"
    },
    {
      "channel": 1,
      "note": 29,
      "start": 51.7767,
      "duration": 0.132,
      "velocity": 13,
      "chip": "ym2612"
    },
    {
      "channel": 2,
      "note": 41,
      "start": 51.7773,
      "duration": 0.132,
      "velocity": 83,
      "chip": "ym2612"
    },
    {
      "channel": 3,
      "note": 84,
      "start": 51.778,
      "duration": 0.0816,
      "velocity": 101,
      "chip": "ym2612"
    },
    {
      "channel": 4,
      "note": 53,
      "start": 51.7786,
      "duration": 0.132,
      "velocity": 115,
      "chip": "ym2612"
    },
    {
      "channel": 5,
      "note": 18,
      "start": 51.7799,
      "duration": 0.1313,
      "velocity": 124,
      "chip": "ym2612"
    },
    {
      "channel": 0,
      "note": 21,
      "start": 51.9085,
      "duration": 0.1314,
      "velocity": 112,
      "chip": "ym2612"
    },
    {
      "channel": 1,
      "note": 29,
      "start": 51.9091,
      "duration": 0.132,
      "velocity": 124,
      "chip": "ym2612"
    },
    {
      "channel": 2,
      "note": 53,
      "start": 51.9097,
      "duration": 0.132,
      "velocity": 82,
      "chip": "ym2612"
    },
    {
      "channel": 3,
      "note": 84,
      "start": 51.9104,
      "duration": 0.0816,
      "velocity": 102,
      "chip": "ym2612"
    },
    {
      "channel": 4,
      "note": 41,
      "start": 51.9111,
      "duration": 0.0814,
      "velocity": 114,
      "chip": "ym2612"
    },
    {
      "channel": 5,
      "note": 18,
      "start": 51.9123,
      "duration": 0.1313,
      "velocity": 121,
      "chip": "ym2612"
    },
    {
      "channel": 0,
      "note": 33,
      "start": 52.0409,
      "duration": 0.1314,
      "velocity": 119,
      "chip": "ym2612"
    },
    {
      "channel": 1,
      "note": 29,
      "start": 52.0415,
      "duration": 0.1319,
      "velocity": 115,
      "chip": "ym2612"
    },
    {
      "channel": 2,
      "note": 41,
      "start": 52.0422,
      "duration": 0.1319,
      "velocity": 83,
      "chip": "ym2612"
    },
    {
      "channel": 3,
      "note": 84,
      "start": 52.0428,
      "duration": 0.0815,
      "velocity": 101,
      "chip": "ym2612"
    },
    {
      "channel": 4,
      "note": 41,
      "start": 52.0434,
      "duration": 0.0814,
      "velocity": 115,
      "chip": "ym2612"
    },
    {
      "channel": 5,
      "note": 18,
      "start": 52.0447,
      "duration": 0.1313,
      "velocity": 124,
      "chip": "ym2612"
    },
    {
      "channel": 0,
      "note": 21,
      "start": 52.1734,
      "duration": 0.1314,
      "velocity": 112,
      "chip": "ym2612"
    },
    {
      "channel": 1,
      "note": 29,
      "start": 52.174,
      "duration": 0.1313,
      "velocity": 13,
      "chip": "ym2612"
    },
    {
      "channel": 2,
      "note": 41,
      "start": 52.1746,
      "duration": 0.1313,
      "velocity": 84,
      "chip": "ym2612"
    },
    {
      "channel": 3,
      "note": 84,
      "start": 52.1753,
      "duration": 0.0815,
      "velocity": 102,
      "chip": "ym2612"
    },
    {
      "channel": 4,
      "note": 41,
      "start": 52.1759,
      "duration": 0.0814,
      "velocity": 116,
      "chip": "ym2612"
    },
    {
      "channel": 5,
      "note": 18,
      "start": 52.1771,
      "duration": 0.1307,
      "velocity": 127,
      "chip": "ym2612"
    },
    {
      "channel": 0,
      "note": 21,
      "start": 52.3051,
      "duration": 0.132,
      "velocity": 112,
      "chip": "ym2612"
    },
    {
      "channel": 1,
      "note": 29,
      "start": 52.3058,
      "duration": 0.1326,
      "velocity": 13,
      "chip": "ym2612"
    },
    {
      "channel": 2,
      "note": 53,
      "start": 52.3064,
      "duration": 0.1326,
      "velocity": 85,
      "chip": "ym2612"
    },
    {
      "channel": 3,
      "note": 84,
      "start": 52.3071,
      "duration": 0.0822,
      "velocity": 102,
      "chip": "ym2612"
    },
    {
      "channel": 4,
      "note": 53,
      "start": 52.3077,
      "duration": 0.0821,
      "velocity": 117,
      "chip": "ym2612"
    },
    {
      "channel": 5,
      "note": 18,
      "start": 52.309,
      "duration": 0.1319,
      "velocity": 124,
      "chip": "ym2612"
    },
    {
      "channel": 0,
      "note": 22,
      "start": 52.4382,
      "duration": 0.1313,
      "velocity": 119,
      "chip": "ym2612"
    },
    {
      "channel": 1,
      "note": 29,
      "start": 52.4389,
      "duration": 0.1319,
      "velocity": 124,
      "chip": "ym2612"
    },
    {
      "channel": 2,
      "note": 41,
      "start": 52.4395,
      "duration": 0.1319,
      "velocity": 86,
      "chip": "ym2612"
    },
    {
      "channel": 3,
      "note": 84,
      "start": 52.4401,
      "duration": 0.0816,
      "velocity": 101,
      "chip": "ym2612"
    },
    {
      "channel": 4,
      "note": 53,
      "start": 52.4408,
      "duration": 0.0814,
      "velocity": 118,
      "chip": "ym2612"
    },
    {
      "channel": 5,
      "note": 18,
      "start": 52.442,
      "duration": 0.1313,
      "velocity": 121,
      "chip": "ym2612"
    },
    {
      "channel": 0,
      "note": 30,
      "start": 52.5706,
      "duration": 0.1314,
      "velocity": 112,
      "chip": "ym2612"
    },
    {
      "channel": 1,
      "note": 29,
      "start": 52.5712,
      "duration": 0.1313,
      "velocity": 120,
      "chip": "ym2612"
    },
    {
      "channel": 2,
      "note": 53,
      "start": 52.5719,
      "duration": 0.1313,
      "velocity": 87,
      "chip": "ym2612"
    },
    {
      "channel": 3,
      "note": 84,
      "start": 52.5725,
      "duration": 0.0816,
      "velocity": 102,
      "chip": "ym2612"
    },
    {
      "channel": 4,
      "note": 41,
      "start": 52.5732,
      "duration": 0.0814,
      "velocity": 119,
      "chip": "ym2612"
    },
    {
      "channel": 5,
      "note": 18,
      "start": 52.5744,
      "duration": 0.1307,
      "velocity": 118,
      "chip": "ym2612"
    },
    {
      "channel": 0,
      "note": 21,
      "start": 52.7024,
      "duration": 0.132,
      "velocity": 112,
      "chip": "ym2612"
    },
    {
      "channel": 1,
      "note": 29,
      "start": 52.7031,
      "duration": 0.1319,
      "velocity": 93,
      "chip": "ym2612"
    },
    {
      "channel": 2,
      "note": 44,
      "start": 52.7037,
      "duration": 0.1319,
      "velocity": 88,
      "chip": "ym2612"
    },
    {
      "channel": 3,
      "note": 84,
      "start": 52.7044,
      "duration": 0.082,
      "velocity": 102,
      "chip": "ym2612"
    },
    {
      "channel": 4,
      "note": 41,
      "start": 52.705,
      "duration": 0.0819,
      "velocity": 120,
      "chip": "ym2612"
    },
    {
      "channel": 5,
      "note": 18,
      "start": 52.7062,
      "duration": 0.1314,
      "velocity": 114,
      "chip": "ym2612"
    },
    {
      "channel": 0,
      "note": 21,
      "start": 52.8349,
      "duration": 0.132,
      "velocity": 112,
      "chip": "ym2612"
    },
    {
      "channel": 1,
      "note": 29,
      "start": 52.8355,
      "duration": 0.1325,
      "velocity": 13,
      "chip": "ym2612"
    },
    {
      "channel": 2,
      "note": 41,
      "start": 52.8361,
      "duration": 0.1325,
      "velocity": 89,
      "chip": "ym2612"
    },
    {
      "channel": 3,
      "note": 84,
      "start": 52.8368,
      "duration": 0.0821,
      "velocity": 101,
      "chip": "ym2612"
    },
    {
      "channel": 4,
      "note": 53,
      "start": 52.8375,
      "duration": 0.082,
      "velocity": 121,
      "chip": "ym2612"
    },
    {
      "channel": 5,
      "note": 18,
      "start": 52.8387,
      "duration": 0.1319,
      "velocity": 110,
      "chip": "ym2612"
    },
    {
      "channel": 0,
      "note": 22,
      "start": 52.9678,
      "duration": 0.1314,
      "velocity": 127,
      "chip": "ym2612"
    },
    {
      "channel": 1,
      "note": 29,
      "start": 52.9685,
      "duration": 0.132,
      "velocity": 124,
      "chip": "ym2612"
    },
    {
      "channel": 2,
      "note": 51,
      "start": 52.9691,
      "duration": 0.0817,
      "velocity": 90,
      "chip": "ym2612"
    },
    {
      "channel": 3,
      "note": 84,
      "start": 52.9698,
      "duration": 0.0816,
      "velocity": 102,
      "chip": "ym2612"
    },
    {
      "channel": 4,
      "note": 41,
      "start": 52.9704,
      "duration": 0.0814,
      "velocity": 121,
      "chip": "ym2612"
    },
    {
      "channel": 5,
      "note": 18,
      "start": 52.9717,
      "duration": 0.1312,
      "velocity": 106,
      "chip": "ym2612"
    },
    {
      "channel": 0,
      "note": 21,
      "start": 53.1002,
      "duration": 0.1314,
      "velocity": 120,
      "chip": "ym2612"
    },
    {
      "channel": 1,
      "note": 29,
      "start": 53.1009,
      "duration": 0.1314,
      "velocity": 110,
      "chip": "ym2612"
    },
    {
      "channel": 2,
      "note": 53,
      "start": 53.1015,
      "duration": 0.0817,
      "velocity": 89,
      "chip": "ym2612"
    },
    {
      "channel": 3,
      "note": 84,
      "start": 53.1022,
      "duration": 0.0816,
      "velocity": 101,
      "chip": "ym2612"
    },
    {
      "channel": 4,
      "note": 53,
      "start": 53.1028,
      "duration": 0.1314,
      "velocity": 121,
      "chip": "ym2612"
    },
    {
      "channel": 5,
      "note": 18,
      "start": 53.1041,
      "duration": 0.1307,
      "velocity": 110,
      "chip": "ym2612"
    },
    {
      "channel": 0,
      "note": 21,
      "start": 53.2321,
      "duration": 0.132,
      "velocity": 111,
      "chip": "ym2612"
    },
    {
      "channel": 1,
      "note": 29,
      "start": 53.2328,
      "duration": 0.1325,
      "velocity": 93,
      "chip": "ym2612"
    },
    {
      "channel": 2,
      "note": 41,
      "start": 53.2334,
      "duration": 0.1325,
      "velocity": 88,
      "chip": "ym2612"
    },
    {
      "channel": 3,
      "note": 84,
      "start": 53.234,
      "duration": 0.0821,
      "velocity": 102,
      "chip": "ym2612"
    },
    {
      "channel": 4,
      "note": 41,
      "start": 53.2347,
      "duration": 0.082,
      "velocity": 120,
      "chip": "ym2612"
    },
    {
      "channel": 5,
      "note": 18,
      "start": 53.2359,
      "duration": 0.1319,
      "velocity": 114,
      "chip": "ym2612"
    },
    {
      "channel": 0,
      "note": 33,
      "start": 53.3651,
      "duration": 0.1314,
      "velocity": 127,
      "chip": "ym2612"
    },
    {
      "channel": 1,
      "note": 29,
      "start": 53.3658,
      "duration": 0.1319,
      "velocity": 13,
      "chip": "ym2612"
    },
    {
      "channel": 2,
      "note": 41,
      "start": 53.3664,
      "duration": 0.1319,
      "velocity": 87,
      "chip": "ym2612"
    },
    {
      "channel": 3,
      "note": 84,
      "start": 53.3671,
      "duration": 0.0815,
      "velocity": 102,
      "chip": "ym2612"
    },
    {
      "channel": 4,
      "note": 41,
      "start": 53.3677,
      "duration": 0.1319,
      "velocity": 119,
      "chip": "ym2612"
    },
    {
      "channel": 5,
      "note": 18,
      "start": 53.3689,
      "duration": 0.1314,
      "velocity": 118,
      "chip": "ym2612"
    },
    {
      "channel": 0,
      "note": 22,
      "start": 53.4975,
      "duration": 0.1314,
      "velocity": 127,
      "chip": "ym2612"
    },
    {
      "channel": 1,
      "note": 29,
      "start": 53.4982,
      "duration": 0.1319,
      "velocity": 124,
      "chip": "ym2612"
    },
    {
      "channel": 2,
      "note": 44,
      "start": 53.4988,
      "duration": 0.1319,
      "velocity": 86,
      "chip": "ym2612"
    },
    {
      "channel": 3,
      "note": 84,
      "start": 53.4995,
      "duration": 0.0815,
      "velocity": 101,
      "chip": "ym2612"
    },
    {
      "channel": 4,
      "note": 41,
      "start": 53.5001,
      "duration": 0.0814,
      "velocity": 118,
      "chip": "ym2612"
    },
    {
      "channel": 5,
      "note": 18,
      "start": 53.5013,
      "duration": 0.1313,
      "velocity": 121,
      "chip": "ym2612"
    },
    {
      "channel": 0,
      "note": 32,
      "start": 53.63,
      "duration": 0.1314,
      "velocity": 120,
      "chip": "ym2612"
    },
    {
      "channel": 1,
      "note": 29,
      "start": 53.6306,
      "duration": 0.132,
      "velocity": 110,
      "chip": "ym2612"
    },
    {
      "channel": 2,
      "note": 41,
      "start": 53.6312,
      "duration": 0.132,
      "velocity": 85,
      "chip": "ym2612"
    },
    {
      "channel": 3,
      "note": 84,
      "start": 53.6319,
      "duration": 0.0816,
      "velocity": 102,
      "chip": "ym2612"
    },
    {
      "channel": 4,
      "note": 53,
      "start": 53.6325,
      "duration": 0.1319,
      "velocity": 117,
      "chip": "ym2612"
    },
    {
      "channel": 5,
      "note": 18,
      "start": 53.6337,
      "duration": 0.1314,
      "velocity": 124,
      "chip": "ym2612"
    },
    {
      "channel": 0,
      "note": 33,
      "start": 53.7623,
      "duration": 0.1314,
      "velocity": 127,
      "chip": "ym2612"
    },
    {
      "channel": 1,
      "note": 29,
      "start": 53.763,
      "duration": 0.1319,
      "velocity": 117,
      "chip": "ym2612"
    },
    {
      "channel": 2,
      "note": 53,
      "start": 53.7637,
      "duration": 0.1319,
      "velocity": 84,
      "chip": "ym2612"
    },
    {
      "channel": 3,
      "note": 84,
      "start": 53.7643,
      "duration": 0.0816,
      "velocity": 102,
      "chip": "ym2612"
    },
    {
      "channel": 4,
      "note": 53,
      "start": 53.7649,
      "duration": 0.0814,
      "velocity": 116,
      "chip": "ym2612"
    },
    {
      "channel": 5,
      "note": 18,
      "start": 53.7662,
      "duration": 0.1313,
      "velocity": 127,
      "chip": "ym2612"
    },
    {
      "channel": 0,
      "note": 21,
      "start": 53.8948,
      "duration": 0.1314,
      "velocity": 120,
      "chip": "ym2612"
    },
    {
      "channel": 1,
      "note": 29,
      "start": 53.8954,
      "duration": 0.1314,
      "velocity": 13,
      "chip": "ym2612"
    },
    {
      "channel": 2,
      "note": 44,
      "start": 53.8961,
      "duration": 0.1314,
      "velocity": 83,
      "chip": "ym2612"
    },
    {
      "channel": 3,
      "note": 84,
      "start": 53.8967,
      "duration": 0.0816,
      "velocity": 101,
      "chip": "ym2612"
    },
    {
      "channel": 4,
      "note": 41,
      "start": 53.8973,
      "duration": 0.1314,
      "velocity": 115,
      "chip": "ym2612"
    },
    {
      "channel": 5,
      "note": 18,
      "start": 53.8986,
      "duration": 0.1307,
      "velocity": 124,
      "chip": "ym2612"
    },
    {
      "channel": 0,
      "note": 21,
      "start": 54.0266,
      "duration": 0.1319,
      "velocity": 112,
      "chip": "ym2612"
    },
    {
      "channel": 1,
      "note": 29,
      "start": 54.0273,
      "duration": 0.1325,
      "velocity": 124,
      "chip": "ym2612"
    },
    {
      "channel": 2,
      "note": 41,
      "start": 54.0279,
      "duration": 0.1325,
      "velocity": 82,
      "chip": "ym2612"
    },
    {
      "channel": 3,
      "note": 84,
      "start": 54.0286,
      "duration": 0.0821,
      "velocity": 102,
      "chip": "ym2612"
    },
    {
      "channel": 4,
      "note": 41,
      "start": 54.0292,
      "duration": 0.082,
      "velocity": 114,
      "chip": "ym2612"
    },
    {
      "channel": 5,
      "note": 18,
      "start": 54.0304,
      "duration": 0.1319,
      "velocity": 121,
      "chip": "ym2612"
    },
    {
      "channel": 0,
      "note": 33,
      "start": 54.1596,
      "duration": 0.1314,
      "velocity": 119,
      "chip": "ym2612"
    },
    {
      "channel": 1,
      "note": 29,
      "start": 54.1603,
      "duration": 0.1319,
      "velocity": 115,
      "chip": "ym2612"
    },
    {
      "channel": 2,
      "note": 41,
      "start": 54.161,
      "duration": 0.1319,
      "velocity": 83,
      "chip": "ym2612"
    },
    {
      "channel": 3,
      "note": 84,
      "start": 54.1616,
      "duration": 0.0815,
      "velocity": 101,
      "chip": "ym2612"
    },
    {
      "channel": 4,
      "note": 53,
      "start": 54.1622,
      "duration": 0.0814,
      "velocity": 115,
      "chip": "ym2612"
    },
    {
      "channel": 5,
      "note": 18,
      "start": 54.1634,
      "duration": 0.1313,
      "velocity": 124,
      "chip": "ym2612"
    },
    {
      "channel": 0,
      "note": 21,
      "start": 54.292,
      "duration": 0.1314,
      "velocity": 112,
      "chip": "ym2612"
    },
    {
      "channel": 1,
      "note": 29,
      "start": 54.2927,
      "duration": 0.1314,
      "velocity": 13,
      "chip": "ym2612"
    },
    {
      "channel": 2,
      "note": 44,
      "start": 54.2933,
      "duration": 0.1314,
      "velocity": 84,
      "chip": "ym2612"
    },
    {
      "channel": 3,
      "note": 84,
      "start": 54.2939,
      "duration": 0.0816,
      "velocity": 102,
      "chip": "ym2612"
    },
    {
      "channel": 4,
      "note": 41,
      "start": 54.2946,
      "duration": 0.0814,
      "velocity": 116,
      "chip": "ym2612"
    },
    {
      "channel": 5,
      "note": 18,
      "start": 54.2959,
      "duration": 0.1307,
      "velocity": 127,
      "chip": "ym2612"
    },
    {
      "channel": 0,
      "note": 21,
      "start": 54.4239,
      "duration": 0.1319,
      "velocity": 112,
      "chip": "ym2612"
    },
    {
      "channel": 1,
      "note": 29,
      "start": 54.4245,
      "duration": 0.1326,
      "velocity": 13,
      "chip": "ym2612"
    },
    {
      "channel": 2,
      "note": 41,
      "start": 54.4252,
      "duration": 0.1325,
      "velocity": 85,
      "chip": "ym2612"
    },
    {
      "channel": 3,
      "note": 84,
      "start": 54.4258,
      "duration": 0.0821,
      "velocity": 102,
      "chip": "ym2612"
    },
    {
      "channel": 4,
      "note": 41,
      "start": 54.4265,
      "duration": 0.082,
      "velocity": 116,
      "chip": "ym2612"
    },
    {
      "channel": 5,
      "note": 18,
      "start": 54.4277,
      "duration": 0.132,
      "velocity": 124,
      "chip": "ym2612"
    },
    {
      "channel": 0,
      "note": 22,
      "start": 54.5569,
      "duration": 0.2637,
      "velocity": 119,
      "chip": "ym2612"
    },
    {
      "channel": 1,
      "note": 29,
      "start": 54.5576,
      "duration": 0.1312,
      "velocity": 124,
      "chip": "ym2612"
    },
    {
      "channel": 2,
      "note": 44,
      "start": 54.5582,
      "duration": 0.1312,
      "velocity": 86,
      "chip": "ym2612"
    },
    {
      "channel": 3,
      "note": 84,
      "start": 54.5588,
      "duration": 0.0815,
      "velocity": 101,
      "chip": "ym2612"
    },
    {
      "channel": 4,
      "note": 41,
      "start": 54.5595,
      "duration": 0.0814,
      "velocity": 118,
      "chip": "ym2612"
    },
    {
      "channel": 5,
      "note": 18,
      "start": 54.5607,
      "duration": 0.1306,
      "velocity": 121,
      "chip": "ym2612"
    },
    {
      "channel": 1,
      "note": 29,
      "start": 54.6892,
      "duration": 0.1328,
      "velocity": 120,
      "chip": "ym2612"
    },
    {
      "channel": 2,
      "note": 53,
      "start": 54.6898,
      "duration": 0.1328,
      "velocity": 87,
      "chip": "ym2612"
    },
    {
      "channel": 3,
      "note": 84,
      "start": 54.6905,
      "duration": 0.0823,
      "velocity": 102,
      "chip": "ym2612"
    },
    {
      "channel": 4,
      "note": 53,
      "start": 54.6912,
      "duration": 0.0821,
      "velocity": 118,
      "chip": "ym2612"
    },
    {
      "channel": 5,
      "note": 18,
      "start": 54.6924,
      "duration": 0.1321,
      "velocity": 118,
      "chip": "ym2612"
    },
    {
      "channel": 0,
      "note": 21,
      "start": 54.8217,
      "duration": 0.1313,
      "velocity": 112,
      "chip": "ym2612"
    },
    {
      "channel": 1,
      "note": 29,
      "start": 54.8224,
      "duration": 0.132,
      "velocity": 93,
      "chip": "ym2612"
    },
    {
      "channel": 2,
      "note": 41,
      "start": 54.823,
      "duration": 0.132,
      "velocity": 88,
      "chip": "ym2612"
    },
    {
      "channel": 3,
      "note": 84,
      "start": 54.8237,
      "duration": 0.0815,
      "velocity": 102,
      "chip": "ym2612"
    },
    {
      "channel": 4,
      "note": 41,
      "start": 54.8244,
      "duration": 0.0814,
      "velocity": 120,
      "chip": "ym2612"
    },
    {
      "channel": 5,
      "note": 18,
      "start": 54.8256,
      "duration": 0.1313,
      "velocity": 114,
      "chip": "ym2612"
    },
    {
      "channel": 0,
      "note": 22,
      "start": 54.9542,
      "duration": 0.1313,
      "velocity": 119,
      "chip": "ym2612"
    },
    {
      "channel": 1,
      "note": 29,
      "start": 54.9548,
      "duration": 0.1319,
      "velocity": 13,
      "chip": "ym2612"
    },
    {
      "channel": 2,
      "note": 44,
      "start": 54.9555,
      "duration": 0.132,
      "velocity": 89,
      "chip": "ym2612"
    },
    {
      "channel": 3,
      "note": 84,
      "start": 54.9561,
      "duration": 0.0816,
      "velocity": 101,
      "chip": "ym2612"
    },
    {
      "channel": 4,
      "note": 41,
      "start": 54.9567,
      "duration": 0.0814,
      "velocity": 121,
      "chip": "ym2612"
    },
    {
      "channel": 5,
      "note": 18,
      "start": 54.958,
      "duration": 0.1313,
      "velocity": 110,
      "chip": "ym2612"
    },
    {
      "channel": 0,
      "note": 33,
      "start": 55.0866,
      "duration": 0.1314,
      "velocity": 127,
      "chip": "ym2612"
    },
    {
      "channel": 1,
      "note": 29,
      "start": 55.0872,
      "duration": 0.1319,
      "velocity": 124,
      "chip": "ym2612"
    },
    {
      "channel": 2,
      "note": 51,
      "start": 55.0879,
      "duration": 0.1319,
      "velocity": 90,
      "chip": "ym2612"
    },
    {
      "channel": 3,
      "note": 84,
      "start": 55.0885,
      "duration": 0.0815,
      "velocity": 102,
      "chip": "ym2612"
    },
    {
      "channel": 4,
      "note": 53,
      "start": 55.0892,
      "duration": 0.0814,
      "velocity": 122,
      "chip": "ym2612"
    },
    {
      "channel": 5,
      "note": 23,
      "start": 55.0904,
      "duration": 0.1314,
      "velocity": 106,
      "chip": "ym2612"
    },
    {
      "channel": 0,
      "note": 21,
      "start": 55.219,
      "duration": 0.1314,
      "velocity": 120,
      "chip": "ym2612"
    },
    {
      "channel": 1,
      "note": 29,
      "start": 55.2197,
      "duration": 0.1313,
      "velocity": 110,
      "chip": "ym2612"
    },
    {
      "channel": 2,
      "note": 53,
      "start": 55.2203,
      "duration": 0.1313,
      "velocity": 89,
      "chip": "ym2612"
    },
    {
      "channel": 3,
      "note": 84,
      "start": 55.221,
      "duration": 0.0814,
      "velocity": 101,
      "chip": "ym2612"
    },
    {
      "channel": 4,
      "note": 53,
      "start": 55.2216,
      "duration": 0.0813,
      "velocity": 122,
      "chip": "ym2612"
    },
    {
      "channel": 5,
      "note": 23,
      "start": 55.2228,
      "duration": 0.1307,
      "velocity": 110,
      "chip": "ym2612"
    },
    {
      "channel": 0,
      "note": 21,
      "start": 55.3508,
      "duration": 0.132,
      "velocity": 111,
      "chip": "ym2612"
    },
    {
      "channel": 1,
      "note": 29,
      "start": 55.3515,
      "duration": 0.1325,
      "velocity": 93,
      "chip": "ym2612"
    },
    {
      "channel": 2,
      "note": 41,
      "start": 55.3521,
      "duration": 0.1325,
      "velocity": 88,
      "chip": "ym2612"
    },
    {
      "channel": 3,
      "note": 84,
      "start": 55.3527,
      "duration": 0.0821,
      "velocity": 102,
      "chip": "ym2612"
    },
    {
      "channel": 4,
      "note": 41,
      "start": 55.3534,
      "duration": 0.082,
      "velocity": 120,
      "chip": "ym2612"
    },
    {
      "channel": 5,
      "note": 23,
      "start": 55.3546,
      "duration": 0.1319,
      "velocity": 114,
      "chip": "ym2612"
    },
    {
      "channel": 0,
      "note": 33,
      "start": 55.4838,
      "duration": 0.1313,
      "velocity": 127,
      "chip": "ym2612"
    },
    {
      "channel": 1,
      "note": 29,
      "start": 55.4845,
      "duration": 0.132,
      "velocity": 13,
      "chip": "ym2612"
    },
    {
      "channel": 2,
      "note": 41,
      "start": 55.4851,
      "duration": 0.1319,
      "velocity": 87,
      "chip": "ym2612"
    },
    {
      "channel": 3,
      "note": 84,
      "start": 55.4858,
      "duration": 0.0815,
      "velocity": 102,
      "chip": "ym2612"
    },
    {
      "channel": 4,
      "note": 41,
      "start": 55.4864,
      "duration": 0.1319,
      "velocity": 119,
      "chip": "ym2612"
    },
    {
      "channel": 5,
      "note": 23,
      "start": 55.4877,
      "duration": 0.1313,
      "velocity": 118,
      "chip": "ym2612"
    },
    {
      "channel": 0,
      "note": 22,
      "start": 55.6163,
      "duration": 0.2637,
      "velocity": 127,
      "chip": "ym2612"
    },
    {
      "channel": 1,
      "note": 29,
      "start": 55.6169,
      "duration": 0.1312,
      "velocity": 124,
      "chip": "ym2612"
    },
    {
      "channel": 2,
      "note": 53,
      "start": 55.6176,
      "duration": 0.1312,
      "velocity": 86,
      "chip": "ym2612"
    },
    {
      "channel": 3,
      "note": 84,
      "start": 55.6182,
      "duration": 0.0815,
      "velocity": 101,
      "chip": "ym2612"
    },
    {
      "channel": 4,
      "note": 41,
      "start": 55.6188,
      "duration": 0.0814,
      "velocity": 118,
      "chip": "ym2612"
    },
    {
      "channel": 5,
      "note": 23,
      "start": 55.62,
      "duration": 0.1306,
      "velocity": 121,
      "chip": "ym2612"
    },
    {
      "channel": 1,
      "note": 29,
      "start": 55.7485,
      "duration": 0.1327,
      "velocity": 110,
      "chip": "ym2612"
    },
    {
      "channel": 2,
      "note": 41,
      "start": 55.7492,
      "duration": 0.1326,
      "velocity": 85,
      "chip": "ym2612"
    },
    {
      "channel": 3,
      "note": 84,
      "start": 55.7499,
      "duration": 0.0823,
      "velocity": 102,
      "chip": "ym2612"
    },
    {
      "channel": 4,
      "note": 53,
      "start": 55.7505,
      "duration": 0.1327,
      "velocity": 117,
      "chip": "ym2612"
    },
    {
      "channel": 5,
      "note": 23,
      "start": 55.7517,
      "duration": 0.1321,
      "velocity": 124,
      "chip": "ym2612"
    },
    {
      "channel": 0,
      "note": 33,
      "start": 55.8811,
      "duration": 0.1313,
      "velocity": 127,
      "chip": "ym2612"
    },
    {
      "channel": 1,
      "note": 29,
      "start": 55.8817,
      "duration": 0.1319,
      "velocity": 117,
      "chip": "ym2612"
    },
    {
      "channel": 2,
      "note": 44,
      "start": 55.8824,
      "duration": 0.1319,
      "velocity": 84,
      "chip": "ym2612"
    },
    {
      "channel": 3,
      "note": 84,
      "start": 55.883,
      "duration": 0.0815,
      "velocity": 102,
      "chip": "ym2612"
    },
    {
      "channel": 4,
      "note": 41,
      "start": 55.8837,
      "duration": 0.0814,
      "velocity": 116,
      "chip": "ym2612"
    },
    {
      "channel": 5,
      "note": 23,
      "start": 55.8849,
      "duration": 0.1314,
      "velocity": 127,
      "chip": "ym2612"
    },
    {
      "channel": 0,
      "note": 22,
      "start": 56.0136,
      "duration": 0.1313,
      "velocity": 127,
      "chip": "ym2612"
    },
    {
      "channel": 1,
      "note": 29,
      "start": 56.0142,
      "duration": 0.1319,
      "velocity": 13,
      "chip": "ym2612"
    },
    {
      "channel": 2,
      "note": 41,
      "start": 56.0148,
      "duration": 0.1319,
      "velocity": 83,
      "chip": "ym2612"
    },
    {
      "channel": 3,
      "note": 84,
      "start": 56.0155,
      "duration": 0.0815,
      "velocity": 101,
      "chip": "ym2612"
    },
    {
      "channel": 4,
      "note": 53,
      "start": 56.0161,
      "duration": 0.1319,
      "velocity": 115,
      "chip": "ym2612"
    },
    {
      "channel": 5,
      "note": 23,
      "start": 56.0173,
      "duration": 0.1313,
      "velocity": 124,
      "chip": "ym2612"
    },
    {
      "channel": 0,
      "note": 21,
      "start": 56.1459,
      "duration": 0.1314,
      "velocity": 112,
      "chip": "ym2612"
    },
    {
      "channel": 1,
      "note": 29,
      "start": 56.1466,
      "duration": 0.132,
      "velocity": 124,
      "chip": "ym2612"
    },
    {
      "channel": 2,
      "note": 53,
      "start": 56.1472,
      "duration": 0.1319,
      "velocity": 82,
      "chip": "ym2612"
    },
    {
      "channel": 3,
      "note": 84,
      "start": 56.1478,
      "duration": 0.0815,
      "velocity": 102,
      "chip": "ym2612"
    },
    {
      "channel": 4,
      "note": 41,
      "start": 56.1485,
      "duration": 0.0814,
      "velocity": 114,
      "chip": "ym2612"
    },
    {
      "channel": 5,
      "note": 23,
      "start": 56.1497,
      "duration": 0.1314,
      "velocity": 121,
      "chip": "ym2612"
    },
    {
      "channel": 0,
      "note": 33,
      "start": 56.2783,
      "duration": 0.1314,
      "velocity": 119,
      "chip": "ym2612"
    },
    {
      "channel": 1,
      "note": 29,
      "start": 56.279,
      "duration": 0.132,
      "velocity": 115,
      "chip": "ym2612"
    },
    {
      "channel": 2,
      "note": 41,
      "start": 56.2796,
      "duration": 0.132,
      "velocity": 83,
      "chip": "ym2612"
    },
    {
      "channel": 3,
      "note": 84,
      "start": 56.2803,
      "duration": 0.0816,
      "velocity": 101,
      "chip": "ym2612"
    },
    {
      "channel": 4,
      "note": 41,
      "start": 56.2809,
      "duration": 0.0814,
      "velocity": 115,
      "chip": "ym2612"
    },
    {
      "channel": 5,
      "note": 23,
      "start": 56.2821,
      "duration": 0.1313,
      "velocity": 124,
      "chip": "ym2612"
    },
    {
      "channel": 0,
      "note": 21,
      "start": 56.4107,
      "duration": 0.1314,
      "velocity": 112,
      "chip": "ym2612"
    },
    {
      "channel": 1,
      "note": 29,
      "start": 56.4114,
      "duration": 0.1314,
      "velocity": 13,
      "chip": "ym2612"
    },
    {
      "channel": 2,
      "note": 41,
      "start": 56.412,
      "duration": 0.1314,
      "velocity": 84,
      "chip": "ym2612"
    },
    {
      "channel": 3,
      "note": 84,
      "start": 56.4127,
      "duration": 0.0816,
      "velocity": 102,
      "chip": "ym2612"
    },
    {
      "channel": 4,
      "note": 41,
      "start": 56.4133,
      "duration": 0.0814,
      "velocity": 116,
      "chip": "ym2612"
    },
    {
      "channel": 5,
      "note": 23,
      "start": 56.4146,
      "duration": 0.1307,
      "velocity": 127,
      "chip": "ym2612"
    },
    {
      "channel": 0,
      "note": 21,
      "start": 56.5426,
      "duration": 0.1319,
      "velocity": 112,
      "chip": "ym2612"
    },
    {
      "channel": 1,
      "note": 29,
      "start": 56.5433,
      "duration": 0.1325,
      "velocity": 13,
      "chip": "ym2612"
    },
    {
      "channel": 2,
      "note": 53,
      "start": 56.5439,
      "duration": 0.1325,
      "velocity": 85,
      "chip": "ym2612"
    },
    {
      "channel": 3,
      "note": 84,
      "start": 56.5445,
      "duration": 0.0821,
      "velocity": 102,
      "chip": "ym2612"
    },
    {
      "channel": 4,
      "note": 53,
      "start": 56.5452,
      "duration": 0.082,
      "velocity": 117,
      "chip": "ym2612"
    },
    {
      "channel": 5,
      "note": 23,
      "start": 56.5464,
      "duration": 0.1319,
      "velocity": 124,
      "chip": "ym2612"
    },
    {
      "channel": 0,
      "note": 22,
      "start": 56.6756,
      "duration": 0.1313,
      "velocity": 119,
      "chip": "ym2612"
    },
    {
      "channel": 1,
      "note": 29,
      "start": 56.6763,
      "duration": 0.1319,
      "velocity": 124,
      "chip": "ym2612"
    },
    {
      "channel": 2,
      "note": 41,
      "start": 56.6769,
      "duration": 0.1319,
      "velocity": 86,
      "chip": "ym2612"
    },
    {
      "channel": 3,
      "note": 84,
      "start": 56.6776,
      "duration": 0.0815,
      "velocity": 101,
      "chip": "ym2612"
    },
    {
      "channel": 4,
      "note": 53,
      "start": 56.6782,
      "duration": 0.0814,
      "velocity": 118,
      "chip": "ym2612"
    },
    {
      "channel": 5,
      "note": 23,
      "start": 56.6795,
      "duration": 0.1312,
      "velocity": 121,
      "chip": "ym2612"
    },
    {
      "channel": 0,
      "note": 30,
      "start": 56.808,
      "duration": 0.1314,
      "velocity": 112,
      "chip": "ym2612"
    },
    {
      "channel": 1,
      "note": 29,
      "start": 56.8087,
      "duration": 0.1314,
      "velocity": 120,
      "chip": "ym2612"
    },
    {
      "channel": 2,
      "note": 53,
      "start": 56.8093,
      "duration": 0.1314,
      "velocity": 87,
      "chip": "ym2612"
    },
    {
      "channel": 3,
      "note": 84,
      "start": 56.8099,
      "duration": 0.0815,
      "velocity": 102,
      "chip": "ym2612"
    },
    {
      "channel": 4,
      "note": 41,
      "start": 56.8106,
      "duration": 0.0814,
      "velocity": 119,
      "chip": "ym2612"
    },
    {
      "channel": 5,
      "note": 23,
      "start": 56.8118,
      "duration": 0.1307,
      "velocity": 118,
      "chip": "ym2612"
    },
    {
      "channel": 0,
      "note": 21,
      "start": 56.9398,
      "duration": 0.132,
      "velocity": 112,
      "chip": "ym2612"
    },
    {
      "channel": 1,
      "note": 29,
      "start": 56.9405,
      "duration": 0.1319,
      "velocity": 93,
      "chip": "ym2612"
    },
    {
      "channel": 2,
      "note": 44,
      "start": 56.9412,
      "duration": 0.1319,
      "velocity": 88,
      "chip": "ym2612"
    },
    {
      "channel": 3,
      "note": 84,
      "start": 56.9418,
      "duration": 0.0821,
      "velocity": 102,
      "chip": "ym2612"
    },
    {
      "channel": 4,
      "note": 41,
      "start": 56.9424,
      "duration": 0.082,
      "velocity": 120,
      "chip": "ym2612"
    },
    {
      "channel": 5,
      "note": 23,
      "start": 56.9436,
      "duration": 0.1314,
      "velocity": 114,
      "chip": "ym2612"
    },
    {
      "channel": 0,
      "note": 21,
      "start": 57.0723,
      "duration": 0.132,
      "velocity": 112,
      "chip": "ym2612"
    },
    {
      "channel": 1,
      "note": 29,
      "start": 57.0729,
      "duration": 0.1326,
      "velocity": 13,
      "chip": "ym2612"
    },
    {
      "channel": 2,
      "note": 41,
      "start": 57.0736,
      "duration": 0.1325,
      "velocity": 89,
      "chip": "ym2612"
    },
    {
      "channel": 3,
      "note": 84,
      "start": 57.0742,
      "duration": 0.0821,
      "velocity": 101,
      "chip": "ym2612"
    },
    {
      "channel": 4,
      "note": 53,
      "start": 57.0749,
      "duration": 0.0819,
      "velocity": 121,
      "chip": "ym2612"
    },
    {
      "channel": 5,
      "note": 23,
      "start": 57.0761,
      "duration": 0.1319,
      "velocity": 110,
      "chip": "ym2612"
    },
    {
      "channel": 0,
      "note": 22,
      "start": 57.2054,
      "duration": 0.1313,
      "velocity": 127,
      "chip": "ym2612"
    },
    {
      "channel": 1,
      "note": 29,
      "start": 57.206,
      "duration": 0.1319,
      "velocity": 124,
      "chip": "ym2612"
    },
    {
      "channel": 2,
      "note": 51,
      "start": 57.2066,
      "duration": 0.0817,
      "velocity": 90,
      "chip": "ym2612"
    },
    {
      "channel": 3,
      "note": 84,
      "start": 57.2073,
      "duration": 0.0815,
      "velocity": 102,
      "chip": "ym2612"
    },
    {
      "channel": 4,
      "note": 41,
      "start": 57.2079,
      "duration": 0.0814,
      "velocity": 121,
      "chip": "ym2612"
    },
    {
      "channel": 5,
      "note": 21,
      "start": 57.2091,
      "duration": 0.1314,
      "velocity": 106,
      "chip": "ym2612"
    },
    {
      "channel": 0,
      "note": 21,
      "start": 57.3377,
      "duration": 0.1314,
      "velocity": 120,
      "chip": "ym2612"
    },
    {
      "channel": 1,
      "note": 29,
      "start": 57.3384,
      "duration": 0.1313,
      "velocity": 110,
      "chip": "ym2612"
    },
    {
      "channel": 2,
      "note": 53,
      "start": 57.339,
      "duration": 0.0817,
      "velocity": 89,
      "chip": "ym2612"
    },
    {
      "channel": 3,
      "note": 84,
      "start": 57.3397,
      "duration": 0.0815,
      "velocity": 101,
      "chip": "ym2612"
    },
    {
      "channel": 4,
      "note": 53,
      "start": 57.3403,
      "duration": 0.1314,
      "velocity": 121,
      "chip": "ym2612"
    },
    {
      "channel": 5,
      "note": 21,
      "start": 57.3415,
      "duration": 0.1307,
      "velocity": 110,
      "chip": "ym2612"
    },
    {
      "channel": 0,
      "note": 21,
      "start": 57.4695,
      "duration": 0.132,
      "velocity": 111,
      "chip": "ym2612"
    },
    {
      "channel": 1,
      "note": 29,
      "start": 57.4702,
      "duration": 0.1326,
      "velocity": 93,
      "chip": "ym2612"
    },
    {
      "channel": 2,
      "note": 41,
      "start": 57.4709,
      "duration": 0.1325,
      "velocity": 88,
      "chip": "ym2612"
    },
    {
      "channel": 3,
      "note": 84,
      "start": 57.4715,
      "duration": 0.0821,
      "velocity": 102,
      "chip": "ym2612"
    },
    {
      "channel": 4,
      "note": 41,
      "start": 57.4721,
      "duration": 0.082,
      "velocity": 120,
      "chip": "ym2612"
    },
    {
      "channel": 5,
      "note": 21,
      "start": 57.4734,
      "duration": 0.1319,
      "velocity": 114,
      "chip": "ym2612"
    },
    {
      "channel": 0,
      "note": 33,
      "start": 57.6025,
      "duration": 0.1314,
      "velocity": 127,
      "chip": "ym2612"
    },
    {
      "channel": 1,
      "note": 29,
      "start": 57.6032,
      "duration": 0.132,
      "velocity": 13,
      "chip": "ym2612"
    },
    {
      "channel": 2,
      "note": 41,
      "start": 57.6039,
      "duration": 0.1319,
      "velocity": 87,
      "chip": "ym2612"
    },
    {
      "channel": 3,
      "note": 84,
      "start": 57.6045,
      "duration": 0.0815,
      "velocity": 102,
      "chip": "ym2612"
    },
    {
      "channel": 4,
      "note": 41,
      "start": 57.6051,
      "duration": 0.132,
      "velocity": 119,
      "chip": "ym2612"
    },
    {
      "channel": 5,
      "note": 21,
      "start": 57.6064,
      "duration": 0.1313,
      "velocity": 118,
      "chip": "ym2612"
    },
    {
      "channel": 0,
      "note": 22,
      "start": 57.735,
      "duration": 0.1313,
      "velocity": 127,
      "chip": "ym2612"
    },
    {
      "channel": 1,
      "note": 29,
      "start": 57.7356,
      "duration": 0.1319,
      "velocity": 124,
      "chip": "ym2612"
    },
    {
      "channel": 2,
      "note": 44,
      "start": 57.7363,
      "duration": 0.1319,
      "velocity": 86,
      "chip": "ym2612"
    },
    {
      "channel": 3,
      "note": 84,
      "start": 57.7369,
      "duration": 0.0816,
      "velocity": 101,
      "chip": "ym2612"
    },
    {
      "channel": 4,
      "note": 41,
      "start": 57.7376,
      "duration": 0.0814,
      "velocity": 118,
      "chip": "ym2612"
    },
    {
      "channel": 5,
      "note": 21,
      "start": 57.7388,
      "duration": 0.1313,
      "velocity": 121,
      "chip": "ym2612"
    },
    {
      "channel": 0,
      "note": 32,
      "start": 57.8674,
      "duration": 0.1314,
      "velocity": 120,
      "chip": "ym2612"
    },
    {
      "channel": 1,
      "note": 29,
      "start": 57.868,
      "duration": 0.132,
      "velocity": 110,
      "chip": "ym2612"
    },
    {
      "channel": 2,
      "note": 41,
      "start": 57.8686,
      "duration": 0.132,
      "velocity": 85,
      "chip": "ym2612"
    },
    {
      "channel": 3,
      "note": 84,
      "start": 57.8693,
      "duration": 0.0815,
      "velocity": 102,
      "chip": "ym2612"
    },
    {
      "channel": 4,
      "note": 53,
      "start": 57.87,
      "duration": 0.1319,
      "velocity": 117,
      "chip": "ym2612"
    },
    {
      "channel": 5,
      "note": 21,
      "start": 57.8712,
      "duration": 0.1312,
      "velocity": 124,
      "chip": "ym2612"
    },
    {
      "channel": 0,
      "note": 33,
      "start": 57.9998,
      "duration": 0.1314,
      "velocity": 127,
      "chip": "ym2612"
    },
    {
      "channel": 1,
      "note": 29,
      "start": 58.0005,
      "duration": 0.1319,
      "velocity": 117,
      "chip": "ym2612"
    },
    {
      "channel": 2,
      "note": 53,
      "start": 58.0011,
      "duration": 0.1319,
      "velocity": 84,
      "chip": "ym2612"
    },
    {
      "channel": 3,
      "note": 84,
      "start": 58.0017,
      "duration": 0.0815,
      "velocity": 102,
      "chip": "ym2612"
    },
    {
      "channel": 4,
      "note": 53,
      "start": 58.0024,
      "duration": 0.0814,
      "velocity": 116,
      "chip": "ym2612"
    },
    {
      "channel": 5,
      "note": 21,
      "start": 58.0036,
      "duration": 0.1313,
      "velocity": 127,
      "chip": "ym2612"
    },
    {
      "channel": 0,
      "note": 21,
      "start": 58.1322,
      "duration": 0.1314,
      "velocity": 120,
      "chip": "ym2612"
    },
    {
      "channel": 1,
      "note": 29,
      "start": 58.1329,
      "duration": 0.1313,
      "velocity": 13,
      "chip": "ym2612"
    },
    {
      "channel": 2,
      "note": 44,
      "start": 58.1335,
      "duration": 0.1313,
      "velocity": 83,
      "chip": "ym2612"
    },
    {
      "channel": 3,
      "note": 84,
      "start": 58.1341,
      "duration": 0.0816,
      "velocity": 101,
      "chip": "ym2612"
    },
    {
      "channel": 4,
      "note": 41,
      "start": 58.1348,
      "duration": 0.1314,
      "velocity": 115,
      "chip": "ym2612"
    },
    {
      "channel": 5,
      "note": 21,
      "start": 58.136,
      "duration": 0.1307,
      "velocity": 124,
      "chip": "ym2612"
    },
    {
      "channel": 0,
      "note": 21,
      "start": 58.2641,
      "duration": 0.1319,
      "velocity": 112,
      "chip": "ym2612"
    },
    {
      "channel": 1,
      "note": 29,
      "start": 58.2647,
      "duration": 0.1325,
      "velocity": 124,
      "chip": "ym2612"
    },
    {
      "channel": 2,
      "note": 41,
      "start": 58.2653,
      "duration": 0.1325,
      "velocity": 82,
      "chip": "ym2612"
    },
    {
      "channel": 3,
      "note": 84,
      "start": 58.266,
      "duration": 0.0821,
      "velocity": 102,
      "chip": "ym2612"
    },
    {
      "channel": 4,
      "note": 41,
      "start": 58.2666,
      "duration": 0.082,
      "velocity": 114,
      "chip": "ym2612"
    },
    {
      "channel": 5,
      "note": 21,
      "start": 58.2679,
      "duration": 0.1319,
      "velocity": 121,
      "chip": "ym2612"
    },
    {
      "channel": 0,
      "note": 33,
      "start": 58.3971,
      "duration": 0.1314,
      "velocity": 119,
      "chip": "ym2612"
    },
    {
      "channel": 1,
      "note": 29,
      "start": 58.3977,
      "duration": 0.1319,
      "velocity": 115,
      "chip": "ym2612"
    },
    {
      "channel": 2,
      "note": 41,
      "start": 58.3983,
      "duration": 0.1319,
      "velocity": 83,
      "chip": "ym2612"
    },
    {
      "channel": 3,
      "note": 84,
      "start": 58.399,
      "duration": 0.0816,
      "velocity": 101,
      "chip": "ym2612"
    },
    {
      "channel": 4,
      "note": 53,
      "start": 58.3996,
      "duration": 0.0814,
      "velocity": 115,
      "chip": "ym2612"
    },
    {
      "channel": 5,
      "note": 21,
      "start": 58.4008,
      "duration": 0.1314,
      "velocity": 124,
      "chip": "ym2612"
    },
    {
      "channel": 0,
      "note": 21,
      "start": 58.5295,
      "duration": 0.1314,
      "velocity": 112,
      "chip": "ym2612"
    },
    {
      "channel": 1,
      "note": 29,
      "start": 58.5302,
      "duration": 0.1313,
      "velocity": 13,
      "chip": "ym2612"
    },
    {
      "channel": 2,
      "note": 44,
      "start": 58.5308,
      "duration": 0.1313,
      "velocity": 84,
      "chip": "ym2612"
    },
    {
      "channel": 3,
      "note": 84,
      "start": 58.5314,
      "duration": 0.0815,
      "velocity": 102,
      "chip": "ym2612"
    },
    {
      "channel": 4,
      "note": 41,
      "start": 58.5321,
      "duration": 0.0814,
      "velocity": 116,
      "chip": "ym2612"
    },
    {
      "channel": 5,
      "note": 21,
      "start": 58.5333,
      "duration": 0.1307,
      "velocity": 127,
      "chip": "ym2612"
    },
    {
      "channel": 0,
      "note": 21,
      "start": 58.6613,
      "duration": 0.132,
      "velocity": 112,
      "chip": "ym2612"
    },
    {
      "channel": 1,
      "note": 29,
      "start": 58.662,
      "duration": 0.1326,
      "velocity": 13,
      "chip": "ym2612"
    },
    {
      "channel": 2,
      "note": 41,
      "start": 58.6626,
      "duration": 0.1326,
      "velocity": 85,
      "chip": "ym2612"
    },
    {
      "channel": 3,
      "note": 84,
      "start": 58.6632,
      "duration": 0.0821,
      "velocity": 102,
      "chip": "ym2612"
    },
    {
      "channel": 4,
      "note": 41,
      "start": 58.6639,
      "duration": 0.082,
      "velocity": 116,
      "chip": "ym2612"
    },
    {
      "channel": 5,
      "note": 21,
      "start": 58.6651,
      "duration": 0.1319,
      "velocity": 124,
      "chip": "ym2612"
    },
    {
      "channel": 0,
      "note": 22,
      "start": 58.7943,
      "duration": 0.2637,
      "velocity": 119,
      "chip": "ym2612"
    },
    {
      "channel": 1,
      "note": 29,
      "start": 58.795,
      "duration": 0.1312,
      "velocity": 124,
      "chip": "ym2612"
    },
    {
      "channel": 2,
      "note": 44,
      "start": 58.7956,
      "duration": 0.1312,
      "velocity": 86,
      "chip": "ym2612"
    },
    {
      "channel": 3,
      "note": 84,
      "start": 58.7962,
      "duration": 0.0816,
      "velocity": 101,
      "chip": "ym2612"
    },
    {
      "channel": 4,
      "note": 41,
      "start": 58.7969,
      "duration": 0.0814,
      "velocity": 118,
      "chip": "ym2612"
    },
    {
      "channel": 5,
      "note": 21,
      "start": 58.7982,
      "duration": 0.1305,
      "velocity": 121,
      "chip": "ym2612"
    },
    {
      "channel": 1,
      "note": 29,
      "start": 58.9266,
      "duration": 0.1327,
      "velocity": 120,
      "chip": "ym2612"
    },
    {
      "channel": 2,
      "note": 53,
      "start": 58.9273,
      "duration": 0.1327,
      "velocity": 87,
      "chip": "ym2612"
    },
    {
      "channel": 3,
      "note": 84,
      "start": 58.9279,
      "duration": 0.0822,
      "velocity": 102,
      "chip": "ym2612"
    },
    {
      "channel": 4,
      "note": 53,
      "start": 58.9286,
      "duration": 0.0821,
      "velocity": 118,
      "chip": "ym2612"
    },
    {
      "channel": 5,
      "note": 21,
      "start": 58.9298,
      "duration": 0.132,
      "velocity": 118,
      "chip": "ym2612"
    },
    {
      "channel": 0,
      "note": 21,
      "start": 59.0592,
      "duration": 0.1314,
      "velocity": 112,
      "chip": "ym2612"
    },
    {
      "channel": 1,
      "note": 29,
      "start": 59.0598,
      "duration": 0.132,
      "velocity": 93,
      "chip": "ym2612"
    },
    {
      "channel": 2,
      "note": 41,
      "start": 59.0604,
      "duration": 0.132,
      "velocity": 88,
      "chip": "ym2612"
    },
    {
      "channel": 3,
      "note": 84,
      "start": 59.0611,
      "duration": 0.0816,
      "velocity": 102,
      "chip": "ym2612"
    },
    {
      "channel": 4,
      "note": 41,
      "start": 59.0617,
      "duration": 0.0814,
      "velocity": 120,
      "chip": "ym2612"
    },
    {
      "channel": 5,
      "note": 21,
      "start": 59.063,
      "duration": 0.1313,
      "velocity": 114,
      "chip": "ym2612"
    },
    {
      "channel": 0,
      "note": 22,
      "start": 59.1916,
      "duration": 0.1314,
      "velocity": 119,
      "chip": "ym2612"
    },
    {
      "channel": 1,
      "note": 29,
      "start": 59.1922,
      "duration": 0.1319,
      "velocity": 13,
      "chip": "ym2612"
    },
    {
      "channel": 2,
      "note": 44,
      "start": 59.1929,
      "duration": 0.1319,
      "velocity": 89,
      "chip": "ym2612"
    },
    {
      "channel": 3,
      "note": 84,
      "start": 59.1935,
      "duration": 0.0815,
      "velocity": 101,
      "chip": "ym2612"
    },
    {
      "channel": 4,
      "note": 41,
      "start": 59.1941,
      "duration": 0.0814,
      "velocity": 121,
      "chip": "ym2612"
    },
    {
      "channel": 5,
      "note": 21,
      "start": 59.1954,
      "duration": 0.1313,
      "velocity": 110,
      "chip": "ym2612"
    },
    {
      "channel": 0,
      "note": 33,
      "start": 59.324,
      "duration": 0.1314,
      "velocity": 127,
      "chip": "ym2612"
    },
    {
      "channel": 1,
      "note": 29,
      "start": 59.3247,
      "duration": 0.1319,
      "velocity": 124,
      "chip": "ym2612"
    },
    {
      "channel": 2,
      "note": 51,
      "start": 59.3253,
      "duration": 0.1319,
      "velocity": 90,
      "chip": "ym2612"
    },
    {
      "channel": 3,
      "note": 84,
      "start": 59.326,
      "duration": 0.0815,
      "velocity": 102,
      "chip": "ym2612"
    },
    {
      "channel": 4,
      "note": 53,
      "start": 59.3266,
      "duration": 0.0814,
      "velocity": 122,
      "chip": "ym2612"
    },
    {
      "channel": 5,
      "note": 18,
      "start": 59.3278,
      "duration": 0.1313,
      "velocity": 106,
      "chip": "ym2612"
    },
    {
      "channel": 0,
      "note": 21,
      "start": 59.4564,
      "duration": 0.1314,
      "velocity": 120,
      "chip": "ym2612"
    },
    {
      "channel": 1,
      "note": 29,
      "start": 59.4571,
      "duration": 0.1314,
      "velocity": 110,
      "chip": "ym2612"
    },
    {
      "channel": 2,
      "note": 53,
      "start": 59.4577,
      "duration": 0.1314,
      "velocity": 89,
      "chip": "ym2612"
    },
    {
      "channel": 3,
      "note": 84,
      "start": 59.4583,
      "duration": 0.0816,
      "velocity": 101,
      "chip": "ym2612"
    },
    {
      "channel": 4,
      "note": 53,
      "start": 59.459,
      "duration": 0.0814,
      "velocity": 122,
      "chip": "ym2612"
    },
    {
      "channel": 5,
      "note": 18,
      "start": 59.4602,
      "duration": 0.1307,
      "velocity": 110,
      "chip": "ym2612"
    },
    {
      "channel": 0,
      "note": 21,
      "start": 59.5882,
      "duration": 0.1319,
      "velocity": 111,
      "chip": "ym2612"
    },
    {
      "channel": 1,
      "note": 29,
      "start": 59.5889,
      "duration": 0.1326,
      "velocity": 93,
      "chip": "ym2612"
    },
    {
      "channel": 2,
      "note": 41,
      "start": 59.5896,
      "duration": 0.1326,
      "velocity": 88,
      "chip": "ym2612"
    },
    {
      "channel": 3,
      "note": 84,
      "start": 59.5902,
      "duration": 0.0821,
      "velocity": 102,
      "chip": "ym2612"
    },
    {
      "channel": 4,
      "note": 41,
      "start": 59.5908,
      "duration": 0.082,
      "velocity": 120,
      "chip": "ym2612"
    },
    {
      "channel": 5,
      "note": 18,
      "start": 59.592,
      "duration": 0.132,
      "velocity": 114,
      "chip": "ym2612"
    },
    {
      "channel": 0,
      "note": 33,
      "start": 59.7213,
      "duration": 0.1313,
      "velocity": 127,
      "chip": "ym2612"
    },
    {
      "channel": 1,
      "note": 29,
      "start": 59.722,
      "duration": 0.1319,
      "velocity": 13,
      "chip": "ym2612"
    },
    {
      "channel": 2,
      "note": 41,
      "start": 59.7226,
      "duration": 0.1319,
      "velocity": 87,
      "chip": "ym2612"
    },
    {
      "channel": 3,
      "note": 84,
      "start": 59.7232,
      "duration": 0.0815,
      "velocity": 102,
      "chip": "ym2612"
    },
    {
      "channel": 4,
      "note": 41,
      "start": 59.7239,
      "duration": 0.132,
      "velocity": 119,
      "chip": "ym2612"
    },
    {
      "channel": 5,
      "note": 18,
      "start": 59.7251,
      "duration": 0.1313,
      "velocity": 118,
      "chip": "ym2612"
    },
    {
      "channel": 0,
      "note": 22,
      "start": 59.8537,
      "duration": 0.2637,
      "velocity": 127,
      "chip": "ym2612"
    },
    {
      "channel": 1,
      "note": 29,
      "start": 59.8544,
      "duration": 0.1312,
      "velocity": 124,
      "chip": "ym2612"
    },
    {
      "channel": 2,
      "note": 53,
      "start": 59.855,
      "duration": 0.1312,
      "velocity": 86,
      "chip": "ym2612"
    },
    {
      "channel": 3,
      "note": 84,
      "start": 59.8557,
      "duration": 0.0815,
      "velocity": 101,
      "chip": "ym2612"
    },
    {
      "channel": 4,
      "note": 41,
      "start": 59.8563,
      "duration": 0.0814,
      "velocity": 118,
      "chip": "ym2612"
    },
    {
      "channel": 5,
      "note": 18,
      "start": 59.8576,
      "duration": 0.1305,
      "velocity": 121,
      "chip": "ym2612"
    },
    {
      "channel": 1,
      "note": 29,
      "start": 59.986,
      "duration": 0.1327,
      "velocity": 110,
      "chip": "ym2612"
    },
    {
      "channel": 2,
      "note": 41,
      "start": 59.9866,
      "duration": 0.1327,
      "velocity": 85,
      "chip": "ym2612"
    },
    {
      "channel": 3,
      "note": 84,
      "start": 59.9873,
      "duration": 0.0822,
      "velocity": 102,
      "chip": "ym2612"
    },
    {
      "channel": 4,
      "note": 53,
      "start": 59.988,
      "duration": 0.1327,
      "velocity": 117,
      "chip": "ym2612"
    },
    {
      "channel": 5,
      "note": 18,
      "start": 59.9892,
      "duration": 0.1321,
      "velocity": 124,
      "chip": "ym2612"
    },
    {
      "channel": 0,
      "note": 33,
      "start": 60.1185,
      "duration": 0.1314,
      "velocity": 127,
      "chip": "ym2612"
    },
    {
      "channel": 1,
      "note": 29,
      "start": 60.1192,
      "duration": 0.1319,
      "velocity": 117,
      "chip": "ym2612"
    },
    {
      "channel": 2,
      "note": 44,
      "start": 60.1198,
      "duration": 0.132,
      "velocity": 84,
      "chip": "ym2612"
    },
    {
      "channel": 3,
      "note": 84,
      "start": 60.1205,
      "duration": 0.0815,
      "velocity": 102,
      "chip": "ym2612"
    },
    {
      "channel": 4,
      "note": 41,
      "start": 60.1212,
      "duration": 0.0813,
      "velocity": 116,
      "chip": "ym2612"
    },
    {
      "channel": 5,
      "note": 18,
      "start": 60.1224,
      "duration": 0.1312,
      "velocity": 127,
      "chip": "ym2612"
    },
    {
      "channel": 0,
      "note": 22,
      "start": 60.251,
      "duration": 0.1314,
      "velocity": 127,
      "chip": "ym2612"
    },
    {
      "channel": 1,
      "note": 29,
      "start": 60.2516,
      "duration": 0.1319,
      "velocity": 13,
      "chip": "ym2612"
    },
    {
      "channel": 2,
      "note": 41,
      "start": 60.2522,
      "duration": 0.1319,
      "velocity": 83,
      "chip": "ym2612"
    },
    {
      "channel": 3,
      "note": 84,
      "start": 60.2529,
      "duration": 0.0816,
      "velocity": 101,
      "chip": "ym2612"
    },
    {
      "channel": 4,
      "note": 53,
      "start": 60.2535,
      "duration": 0.132,
      "velocity": 115,
      "chip": "ym2612"
    },
    {
      "channel": 5,
      "note": 18,
      "start": 60.2548,
      "duration": 0.1313,
      "velocity": 124,
      "chip": "ym2612"
    },
    {
      "channel": 0,
      "note": 21,
      "start": 60.3833,
      "duration": 0.1314,
      "velocity": 112,
      "chip": "ym2612"
    },
    {
      "channel": 1,
      "note": 29,
      "start": 60.384,
      "duration": 0.1319,
      "velocity": 124,
      "chip": "ym2612"
    },
    {
      "channel": 2,
      "note": 53,
      "start": 60.3847,
      "duration": 0.1319,
      "velocity": 82,
      "chip": "ym2612"
    },
    {
      "channel": 3,
      "note": 84,
      "start": 60.3853,
      "duration": 0.0815,
      "velocity": 102,
      "chip": "ym2612"
    },
    {
      "channel": 4,
      "note": 41,
      "start": 60.3859,
      "duration": 0.0814,
      "velocity": 114,
      "chip": "ym2612"
    },
    {
      "channel": 5,
      "note": 18,
      "start": 60.3872,
      "duration": 0.1312,
      "velocity": 121,
      "chip": "ym2612"
    },
    {
      "channel": 0,
      "note": 33,
      "start": 60.5158,
      "duration": 0.1314,
      "velocity": 119,
      "chip": "ym2612"
    },
    {
      "channel": 1,
      "note": 29,
      "start": 60.5164,
      "duration": 0.1319,
      "velocity": 115,
      "chip": "ym2612"
    },
    {
      "channel": 2,
      "note": 41,
      "start": 60.5171,
      "duration": 0.1319,
      "velocity": 83,
      "chip": "ym2612"
    },
    {
      "channel": 3,
      "note": 84,
      "start": 60.5177,
      "duration": 0.0815,
      "velocity": 101,
      "chip": "ym2612"
    },
    {
      "channel": 4,
      "note": 41,
      "start": 60.5183,
      "duration": 0.0814,
      "velocity": 115,
      "chip": "ym2612"
    },
    {
      "channel": 5,
      "note": 18,
      "start": 60.5196,
      "duration": 0.1313,
      "velocity": 124,
      "chip": "ym2612"
    },
    {
      "channel": 0,
      "note": 21,
      "start": 60.6482,
      "duration": 0.1314,
      "velocity": 112,
      "chip": "ym2612"
    },
    {
      "channel": 1,
      "note": 29,
      "start": 60.6488,
      "duration": 0.1314,
      "velocity": 13,
      "chip": "ym2612"
    },
    {
      "channel": 2,
      "note": 41,
      "start": 60.6495,
      "duration": 0.1314,
      "velocity": 84,
      "chip": "ym2612"
    },
    {
      "channel": 3,
      "note": 84,
      "start": 60.6501,
      "duration": 0.0815,
      "velocity": 102,
      "chip": "ym2612"
    },
    {
      "channel": 4,
      "note": 41,
      "start": 60.6508,
      "duration": 0.0814,
      "velocity": 116,
      "chip": "ym2612"
    },
    {
      "channel": 5,
      "note": 18,
      "start": 60.652,
      "duration": 0.1308,
      "velocity": 127,
      "chip": "ym2612"
    },
    {
      "channel": 0,
      "note": 21,
      "start": 60.78,
      "duration": 0.1319,
      "velocity": 112,
      "chip": "ym2612"
    },
    {
      "channel": 1,
      "note": 29,
      "start": 60.7807,
      "duration": 0.1326,
      "velocity": 13,
      "chip": "ym2612"
    },
    {
      "channel": 2,
      "note": 53,
      "start": 60.7814,
      "duration": 0.1325,
      "velocity": 85,
      "chip": "ym2612"
    },
    {
      "channel": 3,
      "note": 84,
      "start": 60.782,
      "duration": 0.0821,
      "velocity": 102,
      "chip": "ym2612"
    },
    {
      "channel": 4,
      "note": 53,
      "start": 60.7826,
      "duration": 0.0819,
      "velocity": 117,
      "chip": "ym2612"
    },
    {
      "channel": 5,
      "note": 18,
      "start": 60.7838,
      "duration": 0.132,
      "velocity": 124,
      "chip": "ym2612"
    },
    {
      "channel": 0,
      "note": 22,
      "start": 60.913,
      "duration": 0.1314,
      "velocity": 119,
      "chip": "ym2612"
    },
    {
      "channel": 1,
      "note": 29,
      "start": 60.9137,
      "duration": 0.1319,
      "velocity": 124,
      "chip": "ym2612"
    },
    {
      "channel": 2,
      "note": 41,
      "start": 60.9144,
      "duration": 0.1319,
      "velocity": 86,
      "chip": "ym2612"
    },
    {
      "channel": 3,
      "note": 84,
      "start": 60.915,
      "duration": 0.0815,
      "velocity": 101,
      "chip": "ym2612"
    },
    {
      "channel": 4,
      "note": 53,
      "start": 60.9156,
      "duration": 0.0814,
      "velocity": 118,
      "chip": "ym2612"
    },
    {
      "channel": 5,
      "note": 18,
      "start": 60.9168,
      "duration": 0.1313,
      "velocity": 121,
      "chip": "ym2612"
    },
    {
      "channel": 0,
      "note": 30,
      "start": 61.0455,
      "duration": 0.1314,
      "velocity": 112,
      "chip": "ym2612"
    },
    {
      "channel": 1,
      "note": 29,
      "start": 61.0461,
      "duration": 0.1314,
      "velocity": 120,
      "chip": "ym2612"
    },
    {
      "channel": 2,
      "note": 53,
      "start": 61.0468,
      "duration": 0.1314,
      "velocity": 87,
      "chip": "ym2612"
    },
    {
      "channel": 3,
      "note": 84,
      "start": 61.0474,
      "duration": 0.0815,
      "velocity": 102,
      "chip": "ym2612"
    },
    {
      "channel": 4,
      "note": 41,
      "start": 61.048,
      "duration": 0.0814,
      "velocity": 119,
      "chip": "ym2612"
    },
    {
      "channel": 5,
      "note": 18,
      "start": 61.0492,
      "duration": 0.1307,
      "velocity": 118,
      "chip": "ym2612"
    },
    {
      "channel": 0,
      "note": 21,
      "start": 61.1773,
      "duration": 0.132,
      "velocity": 112,
      "chip": "ym2612"
    },
    {
      "channel": 1,
      "note": 29,
      "start": 61.1779,
      "duration": 0.1319,
      "velocity": 93,
      "chip": "ym2612"
    },
    {
      "channel": 2,
      "note": 44,
      "start": 61.1786,
      "duration": 0.1319,
      "velocity": 88,
      "chip": "ym2612"
    },
    {
      "channel": 3,
      "note": 84,
      "start": 61.1792,
      "duration": 0.0821,
      "velocity": 102,
      "chip": "ym2612"
    },
    {
      "channel": 4,
      "note": 41,
      "start": 61.1798,
      "duration": 0.082,
      "velocity": 120,
      "chip": "ym2612"
    },
    {
      "channel": 5,
      "note": 18,
      "start": 61.1811,
      "duration": 0.1313,
      "velocity": 114,
      "chip": "ym2612"
    },
    {
      "channel": 0,
      "note": 21,
      "start": 61.3097,
      "duration": 0.1319,
      "velocity": 112,
      "chip": "ym2612"
    },
    {
      "channel": 1,
      "note": 29,
      "start": 61.3104,
      "duration": 0.1325,
      "velocity": 13,
      "chip": "ym2612"
    },
    {
      "channel": 2,
      "note": 41,
      "start": 61.311,
      "duration": 0.1325,
      "velocity": 89,
      "chip": "ym2612"
    },
    {
      "channel": 3,
      "note": 84,
      "start": 61.3116,
      "duration": 0.0821,
      "velocity": 101,
      "chip": "ym2612"
    },
    {
      "channel": 4,
      "note": 53,
      "start": 61.3123,
      "duration": 0.082,
      "velocity": 121,
      "chip": "ym2612"
    },
    {
      "channel": 5,
      "note": 18,
      "start": 61.3135,
      "duration": 0.1319,
      "velocity": 110,
      "chip": "ym2612"
    },
    {
      "channel": 0,
      "note": 22,
      "start": 61.4427,
      "duration": 0.1314,
      "velocity": 127,
      "chip": "ym2612"
    },
    {
      "channel": 1,
      "note": 29,
      "start": 61.4434,
      "duration": 0.132,
      "velocity": 124,
      "chip": "ym2612"
    },
    {
      "channel": 2,
      "note": 51,
      "start": 61.444,
      "duration": 0.0817,
      "velocity": 90,
      "chip": "ym2612"
    },
    {
      "channel": 3,
      "note": 84,
      "start": 61.4446,
      "duration": 0.0816,
      "velocity": 102,
      "chip": "ym2612"
    },
    {
      "channel": 4,
      "note": 41,
      "start": 61.4453,
      "duration": 0.0814,
      "velocity": 121,
      "chip": "ym2612"
    },
    {
      "channel": 5,
      "note": 18,
      "start": 61.4465,
      "duration": 0.1314,
      "velocity": 106,
      "chip": "ym2612"
    },
    {
      "channel": 0,
      "note": 21,
      "start": 61.5751,
      "duration": 0.1314,
      "velocity": 120,
      "chip": "ym2612"
    },
    {
      "channel": 1,
      "note": 29,
      "start": 61.5758,
      "duration": 0.1314,
      "velocity": 110,
      "chip": "ym2612"
    },
    {
      "channel": 2,
      "note": 53,
      "start": 61.5764,
      "duration": 0.0817,
      "velocity": 89,
      "chip": "ym2612"
    },
    {
      "channel": 3,
      "note": 84,
      "start": 61.577,
      "duration": 0.0816,
      "velocity": 101,
      "chip": "ym2612"
    },
    {
      "channel": 4,
      "note": 53,
      "start": 61.5777,
      "duration": 0.1313,
      "velocity": 121,
      "chip": "ym2612"
    },
    {
      "channel": 5,
      "note": 18,
      "start": 61.5789,
      "duration": 0.1307,
      "velocity": 110,
      "chip": "ym2612"
    },
    {
      "channel": 0,
      "note": 21,
      "start": 61.707,
      "duration": 0.1319,
      "velocity": 111,
      "chip": "ym2612"
    },
    {
      "channel": 1,
      "note": 29,
      "start": 61.7076,
      "duration": 0.1325,
      "velocity": 93,
      "chip": "ym2612"
    },
    {
      "channel": 2,
      "note": 41,
      "start": 61.7083,
      "duration": 0.1325,
      "velocity": 88,
      "chip": "ym2612"
    },
    {
      "channel": 3,
      "note": 84,
      "start": 61.7089,
      "duration": 0.0821,
      "velocity": 102,
      "chip": "ym2612"
    },
    {
      "channel": 4,
      "note": 41,
      "start": 61.7095,
      "duration": 0.082,
      "velocity": 120,
      "chip": "ym2612"
    },
    {
      "channel": 5,
      "note": 18,
      "start": 61.7107,
      "duration": 0.1319,
      "velocity": 114,
      "chip": "ym2612"
    },
    {
      "channel": 0,
      "note": 33,
      "start": 61.84,
      "duration": 0.1313,
      "velocity": 127,
      "chip": "ym2612"
    },
    {
      "channel": 1,
      "note": 29,
      "start": 61.8407,
      "duration": 0.1319,
      "velocity": 13,
      "chip": "ym2612"
    },
    {
      "channel": 2,
      "note": 41,
      "start": 61.8413,
      "duration": 0.1319,
      "velocity": 87,
      "chip": "ym2612"
    },
    {
      "channel": 3,
      "note": 84,
      "start": 61.8419,
      "duration": 0.0815,
      "velocity": 102,
      "chip": "ym2612"
    },
    {
      "channel": 4,
      "note": 41,
      "start": 61.8426,
      "duration": 0.1319,
      "velocity": 119,
      "chip": "ym2612"
    },
    {
      "channel": 5,
      "note": 18,
      "start": 61.8438,
      "duration": 0.1314,
      "velocity": 118,
      "chip": "ym2612"
    },
    {
      "channel": 0,
      "note": 22,
      "start": 61.9724,
      "duration": 0.1314,
      "velocity": 127,
      "chip": "ym2612"
    },
    {
      "channel": 1,
      "note": 29,
      "start": 61.973,
      "duration": 0.132,
      "velocity": 124,
      "chip": "ym2612"
    },
    {
      "channel": 2,
      "note": 44,
      "start": 61.9737,
      "duration": 0.132,
      "velocity": 86,
      "chip": "ym2612"
    },
    {
      "channel": 3,
      "note": 84,
      "start": 61.9744,
      "duration": 0.0816,
      "velocity": 101,
      "chip": "ym2612"
    },
    {
      "channel": 4,
      "note": 41,
      "start": 61.975,
      "duration": 0.0814,
      "velocity": 118,
      "chip": "ym2612"
    },
    {
      "channel": 5,
      "note": 18,
      "start": 61.9762,
      "duration": 0.1314,
      "velocity": 121,
      "chip": "ym2612"
    },
    {
      "channel": 0,
      "note": 32,
      "start": 62.1049,
      "duration": 0.1313,
      "velocity": 120,
      "chip": "ym2612"
    },
    {
      "channel": 1,
      "note": 29,
      "start": 62.1055,
      "duration": 0.1319,
      "velocity": 110,
      "chip": "ym2612"
    },
    {
      "channel": 2,
      "note": 41,
      "start": 62.1062,
      "duration": 0.1319,
      "velocity": 85,
      "chip": "ym2612"
    },
    {
      "channel": 3,
      "note": 84,
      "start": 62.1068,
      "duration": 0.0816,
      "velocity": 102,
      "chip": "ym2612"
    },
    {
      "channel": 4,
      "note": 53,
      "start": 62.1074,
      "duration": 0.1319,
      "velocity": 117,
      "chip": "ym2612"
    },
    {
      "channel": 5,
      "note": 18,
      "start": 62.1087,
      "duration": 0.1314,
      "velocity": 124,
      "chip": "ym2612"
    },
    {
      "channel": 0,
      "note": 33,
      "start": 62.2373,
      "duration": 0.1313,
      "velocity": 127,
      "chip": "ym2612"
    },
    {
      "channel": 1,
      "note": 29,
      "start": 62.2379,
      "duration": 0.1319,
      "velocity": 117,
      "chip": "ym2612"
    },
    {
      "channel": 2,
      "note": 53,
      "start": 62.2385,
      "duration": 0.1319,
      "velocity": 84,
      "chip": "ym2612"
    },
    {
      "channel": 3,
      "note": 84,
      "start": 62.2392,
      "duration": 0.0816,
      "velocity": 102,
      "chip": "ym2612"
    },
    {
      "channel": 4,
      "note": 53,
      "start": 62.2399,
      "duration": 0.0814,
      "velocity": 116,
      "chip": "ym2612"
    },
    {
      "channel": 5,
      "note": 18,
      "start": 62.2411,
      "duration": 0.1313,
      "velocity": 127,
      "chip": "ym2612"
    },
    {
      "channel": 0,
      "note": 21,
      "start": 62.3697,
      "duration": 0.1314,
      "velocity": 120,
      "chip": "ym2612"
    },
    {
      "channel": 1,
      "note": 29,
      "start": 62.3703,
      "duration": 0.1314,
      "velocity": 13,
      "chip": "ym2612"
    },
    {
      "channel": 2,
      "note": 44,
      "start": 62.371,
      "duration": 0.1313,
      "velocity": 83,
      "chip": "ym2612"
    },
    {
      "channel": 3,
      "note": 84,
      "start": 62.3716,
      "duration": 0.0815,
      "velocity": 101,
      "chip": "ym2612"
    },
    {
      "channel": 4,
      "note": 41,
      "start": 62.3723,
      "duration": 0.1313,
      "velocity": 115,
      "chip": "ym2612"
    },
    {
      "channel": 5,
      "note": 18,
      "start": 62.3735,
      "duration": 0.1307,
      "velocity": 124,
      "chip": "ym2612"
    },
    {
      "channel": 0,
      "note": 21,
      "start": 62.5015,
      "duration": 0.132,
      "velocity": 112,
      "chip": "ym2612"
    },
    {
      "channel": 1,
      "note": 29,
      "start": 62.5022,
      "duration": 0.1325,
      "velocity": 124,
      "chip": "ym2612"
    },
    {
      "channel": 2,
      "note": 41,
      "start": 62.5028,
      "duration": 0.1325,
      "velocity": 82,
      "chip": "ym2612"
    },
    {
      "channel": 3,
      "note": 84,
      "start": 62.5034,
      "duration": 0.0821,
      "velocity": 102,
      "chip": "ym2612"
    },
    {
      "channel": 4,
      "note": 41,
      "start": 62.5041,
      "duration": 0.082,
      "velocity": 114,
      "chip": "ym2612"
    },
    {
      "channel": 5,
      "note": 18,
      "start": 62.5054,
      "duration": 0.1319,
      "velocity": 121,
      "chip": "ym2612"
    },
    {
      "channel": 0,
      "note": 33,
      "start": 62.6345,
      "duration": 0.1314,
      "velocity": 119,
      "chip": "ym2612"
    },
    {
      "channel": 1,
      "note": 29,
      "start": 62.6352,
      "duration": 0.132,
      "velocity": 115,
      "chip": "ym2612"
    },
    {
      "channel": 2,
      "note": 41,
      "start": 62.6358,
      "duration": 0.132,
      "velocity": 83,
      "chip": "ym2612"
    },
    {
      "channel": 3,
      "note": 84,
      "start": 62.6364,
      "duration": 0.0816,
      "velocity": 101,
      "chip": "ym2612"
    },
    {
      "channel": 4,
      "note": 53,
      "start": 62.6371,
      "duration": 0.0814,
      "velocity": 115,
      "chip": "ym2612"
    },
    {
      "channel": 5,
      "note": 18,
      "start": 62.6384,
      "duration": 0.1312,
      "velocity": 124,
      "chip": "ym2612"
    },
    {
      "channel": 0,
      "note": 21,
      "start": 62.7669,
      "duration": 0.1314,
      "velocity": 112,
      "chip": "ym2612"
    },
    {
      "channel": 1,
      "note": 29,
      "start": 62.7676,
      "duration": 0.1314,
      "velocity": 13,
      "chip": "ym2612"
    },
    {
      "channel": 2,
      "note": 44,
      "start": 62.7682,
      "duration": 0.1314,
      "velocity": 84,
      "chip": "ym2612"
    },
    {
      "channel": 3,
      "note": 84,
      "start": 62.7688,
      "duration": 0.0816,
      "velocity": 102,
      "chip": "ym2612"
    },
    {
      "channel": 4,
      "note": 41,
      "start": 62.7695,
      "duration": 0.0814,
      "velocity": 116,
      "chip": "ym2612"
    },
    {
      "channel": 5,
      "note": 18,
      "start": 62.7708,
      "duration": 0.1307,
      "velocity": 127,
      "chip": "ym2612"
    },
    {
      "channel": 0,
      "note": 21,
      "start": 62.8987,
      "duration": 0.132,
      "velocity": 112,
      "chip": "ym2612"
    },
    {
      "channel": 1,
      "note": 29,
      "start": 62.8994,
      "duration": 0.1325,
      "velocity": 13,
      "chip": "ym2612"
    },
    {
      "channel": 2,
      "note": 41,
      "start": 62.9001,
      "duration": 0.1325,
      "velocity": 85,
      "chip": "ym2612"
    },
    {
      "channel": 3,
      "note": 84,
      "start": 62.9007,
      "duration": 0.0821,
      "velocity": 102,
      "chip": "ym2612"
    },
    {
      "channel": 4,
      "note": 41,
      "start": 62.9013,
      "duration": 0.082,
      "velocity": 116,
      "chip": "ym2612"
    },
    {
      "channel": 5,
      "note": 18,
      "start": 62.9025,
      "duration": 0.1319,
      "velocity": 124,
      "chip": "ym2612"
    },
    {
      "channel": 0,
      "note": 22,
      "start": 63.0318,
      "duration": 0.2637,
      "velocity": 119,
      "chip": "ym2612"
    },
    {
      "channel": 1,
      "note": 29,
      "start": 63.0324,
      "duration": 0.1312,
      "velocity": 124,
      "chip": "ym2612"
    },
    {
      "channel": 2,
      "note": 44,
      "start": 63.0331,
      "duration": 0.1312,
      "velocity": 86,
      "chip": "ym2612"
    },
    {
      "channel": 3,
      "note": 84,
      "start": 63.0337,
      "duration": 0.0815,
      "velocity": 101,
      "chip": "ym2612"
    },
    {
      "channel": 4,
      "note": 41,
      "start": 63.0344,
      "duration": 0.0814,
      "velocity": 118,
      "chip": "ym2612"
    },
    {
      "channel": 5,
      "note": 18,
      "start": 63.0356,
      "duration": 0.1305,
      "velocity": 121,
      "chip": "ym2612"
    },
    {
      "channel": 1,
      "note": 29,
      "start": 63.1641,
      "duration": 0.1326,
      "velocity": 120,
      "chip": "ym2612"
    },
    {
      "channel": 2,
      "note": 53,
      "start": 63.1648,
      "duration": 0.1326,
      "velocity": 87,
      "chip": "ym2612"
    },
    {
      "channel": 3,
      "note": 84,
      "start": 63.1654,
      "duration": 0.0822,
      "velocity": 102,
      "chip": "ym2612"
    },
    {
      "channel": 4,
      "note": 53,
      "start": 63.166,
      "duration": 0.0821,
      "velocity": 118,
      "chip": "ym2612"
    },
    {
      "channel": 5,
      "note": 18,
      "start": 63.1672,
      "duration": 0.1321,
      "velocity": 118,
      "chip": "ym2612"
    },
    {
      "channel": 0,
      "note": 21,
      "start": 63.2966,
      "duration": 0.1313,
      "velocity": 112,
      "chip": "ym2612"
    },
    {
      "channel": 1,
      "note": 29,
      "start": 63.2973,
      "duration": 0.132,
      "velocity": 93,
      "chip": "ym2612"
    },
    {
      "channel": 2,
      "note": 41,
      "start": 63.2979,
      "duration": 0.132,
      "velocity": 88,
      "chip": "ym2612"
    },
    {
      "channel": 3,
      "note": 84,
      "start": 63.2985,
      "duration": 0.0816,
      "velocity": 102,
      "chip": "ym2612"
    },
    {
      "channel": 4,
      "note": 41,
      "start": 63.2992,
      "duration": 0.0814,
      "velocity": 120,
      "chip": "ym2612"
    },
    {
      "channel": 5,
      "note": 18,
      "start": 63.3004,
      "duration": 0.1314,
      "velocity": 114,
      "chip": "ym2612"
    },
    {
      "channel": 0,
      "note": 22,
      "start": 63.4291,
      "duration": 0.1313,
      "velocity": 119,
      "chip": "ym2612"
    },
    {
      "channel": 1,
      "note": 29,
      "start": 63.4297,
      "duration": 0.1319,
      "velocity": 13,
      "chip": "ym2612"
    },
    {
      "channel": 2,
      "note": 44,
      "start": 63.4303,
      "duration": 0.1319,
      "velocity": 89,
      "chip": "ym2612"
    },
    {
      "channel": 3,
      "note": 84,
      "start": 63.431,
      "duration": 0.0815,
      "velocity": 101,
      "chip": "ym2612"
    },
    {
      "channel": 4,
      "note": 41,
      "start": 63.4316,
      "duration": 0.0814,
      "velocity": 121,
      "chip": "ym2612"
    },
    {
      "channel": 5,
      "note": 18,
      "start": 63.4328,
      "duration": 0.1313,
      "velocity": 110,
      "chip": "ym2612"
    },
    {
      "channel": 0,
      "note": 33,
      "start": 63.5615,
      "duration": 0.1314,
      "velocity": 127,
      "chip": "ym2612"
    },
    {
      "channel": 1,
      "note": 29,
      "start": 63.5621,
      "duration": 0.1319,
      "velocity": 124,
      "chip": "ym2612"
    },
    {
      "channel": 2,
      "note": 51,
      "start": 63.5627,
      "duration": 0.1319,
      "velocity": 90,
      "chip": "ym2612"
    },
    {
      "channel": 3,
      "note": 84,
      "start": 63.5634,
      "duration": 0.0816,
      "velocity": 102,
      "chip": "ym2612"
    },
    {
      "channel": 4,
      "note": 53,
      "start": 63.564,
      "duration": 0.0814,
      "velocity": 122,
      "chip": "ym2612"
    },
    {
      "channel": 5,
      "note": 23,
      "start": 63.5652,
      "duration": 0.1314,
      "velocity": 106,
      "chip": "ym2612"
    },
    {
      "channel": 0,
      "note": 21,
      "start": 63.6938,
      "duration": 0.1314,
      "velocity": 120,
      "chip": "ym2612"
    },
    {
      "channel": 1,
      "note": 27,
      "start": 63.6945,
      "duration": 0.1313,
      "velocity": 110,
      "chip": "ym2612"
    },
    {
      "channel": 2,
      "note": 51,
      "start": 63.6952,
      "duration": 0.1313,
      "velocity": 89,
      "chip": "ym2612"
    },
    {
      "channel": 3,
      "note": 84,
      "start": 63.6958,
      "duration": 0.0815,
      "velocity": 101,
      "chip": "ym2612"
    },
    {
      "channel": 4,
      "note": 53,
      "start": 63.6964,
      "duration": 0.0814,
      "velocity": 122,
      "chip": "ym2612"
    },
    {
      "channel": 5,
      "note": 23,
      "start": 63.6976,
      "duration": 0.1307,
      "velocity": 110,
      "chip": "ym2612"
    },
    {
      "channel": 0,
      "note": 21,
      "start": 63.8257,
      "duration": 0.132,
      "velocity": 111,
      "chip": "ym2612"
    },
    {
      "channel": 1,
      "note": 27,
      "start": 63.8263,
      "duration": 0.1325,
      "velocity": 93,
      "chip": "ym2612"
    },
    {
      "channel": 2,
      "note": 39,
      "start": 63.827,
      "duration": 0.1325,
      "velocity": 88,
      "chip": "ym2612"
    },
    {
      "channel": 3,
      "note": 84,
      "start": 63.8276,
      "duration": 0.0821,
      "velocity": 102,
      "chip": "ym2612"
    },
    {
      "channel": 4,
      "note": 41,
      "start": 63.8283,
      "duration": 0.082,
      "velocity": 120,
      "chip": "ym2612"
    },
    {
      "channel": 5,
      "note": 23,
      "start": 63.8295,
      "duration": 0.1319,
      "velocity": 114,
      "chip": "ym2612"
    },
    {
      "channel": 0,
      "note": 33,
      "start": 63.9587,
      "duration": 0.1314,
      "velocity": 127,
      "chip": "ym2612"
    },
    {
      "channel": 1,
      "note": 27,
      "start": 63.9593,
      "duration": 0.132,
      "velocity": 13,
      "chip": "ym2612"
    },
    {
      "channel": 2,
      "note": 39,
      "start": 63.96,
      "duration": 0.132,
      "velocity": 87,
      "chip": "ym2612"
    },
    {
      "channel": 3,
      "note": 84,
      "start": 63.9606,
      "duration": 0.0816,
      "velocity": 102,
      "chip": "ym2612"
    },
    {
      "channel": 4,
      "note": 41,
      "start": 63.9613,
      "duration": 0.132,
      "velocity": 119,
      "chip": "ym2612"
    },
    {
      "channel": 5,
      "note": 23,
      "start": 63.9625,
      "duration": 0.1314,
      "velocity": 118,
      "chip": "ym2612"
    },
    {
      "channel": 0,
      "note": 22,
      "start": 64.0912,
      "duration": 0.2637,
      "velocity": 127,
      "chip": "ym2612"
    },
    {
      "channel": 1,
      "note": 27,
      "start": 64.0918,
      "duration": 0.1312,
      "velocity": 124,
      "chip": "ym2612"
    },
    {
      "channel": 2,
      "note": 51,
      "start": 64.0924,
      "duration": 0.1312,
      "velocity": 86,
      "chip": "ym2612"
    },
    {
      "channel": 3,
      "note": 84,
      "start": 64.0931,
      "duration": 0.0816,
      "velocity": 101,
      "chip": "ym2612"
    },
    {
      "channel": 4,
      "note": 41,
      "start": 64.0937,
      "duration": 0.0814,
      "velocity": 118,
      "chip": "ym2612"
    },
    {
      "channel": 5,
      "note": 23,
      "start": 64.095,
      "duration": 0.1305,
      "velocity": 121,
      "chip": "ym2612"
    },
    {
      "channel": 1,
      "note": 27,
      "start": 64.2235,
      "duration": 0.1326,
      "velocity": 110,
      "chip": "ym2612"
    },
    {
      "channel": 2,
      "note": 39,
      "start": 64.2241,
      "duration": 0.1326,
      "velocity": 85,
      "chip": "ym2612"
    },
    {
      "channel": 3,
      "note": 84,
      "start": 64.2247,
      "duration": 0.0823,
      "velocity": 102,
      "chip": "ym2612"
    },
    {
      "channel": 4,
      "note": 53,
      "start": 64.2254,
      "duration": 0.1326,
      "velocity": 117,
      "chip": "ym2612"
    },
    {
      "channel": 5,
      "note": 23,
      "start": 64.2266,
      "duration": 0.1321,
      "velocity": 124,
      "chip": "ym2612"
    },
    {
      "channel": 0,
      "note": 33,
      "start": 64.356,
      "duration": 0.1314,
      "velocity": 127,
      "chip": "ym2612"
    },
    {
      "channel": 1,
      "note": 27,
      "start": 64.3566,
      "duration": 0.132,
      "velocity": 117,
      "chip": "ym2612"
    },
    {
      "channel": 2,
      "note": 42,
      "start": 64.3573,
      "duration": 0.132,
      "velocity": 84,
      "chip": "ym2612"
    },
    {
      "channel": 3,
      "note": 84,
      "start": 64.3579,
      "duration": 0.0815,
      "velocity": 102,
      "chip": "ym2612"
    },
    {
      "channel": 4,
      "note": 41,
      "start": 64.3585,
      "duration": 0.0814,
      "velocity": 116,
      "chip": "ym2612"
    },
    {
      "channel": 5,
      "note": 23,
      "start": 64.3597,
      "duration": 0.1314,
      "velocity": 127,
      "chip": "ym2612"
    },
    {
      "channel": 0,
      "note": 22,
      "start": 64.4885,
      "duration": 0.1312,
      "velocity": 127,
      "chip": "ym2612"
    },
    {
      "channel": 1,
      "note": 27,
      "start": 64.4891,
      "duration": 0.1319,
      "velocity": 13,
      "chip": "ym2612"
    },
    {
      "channel": 2,
      "note": 39,
      "start": 64.4898,
      "duration": 0.1319,
      "velocity": 83,
      "chip": "ym2612"
    },
    {
      "channel": 3,
      "note": 84,
      "start": 64.4904,
      "duration": 0.0815,
      "velocity": 101,
      "chip": "ym2612"
    },
    {
      "channel": 4,
      "note": 53,
      "start": 64.491,
      "duration": 0.1319,
      "velocity": 115,
      "chip": "ym2612"
    },
    {
      "channel": 5,
      "note": 23,
      "start": 64.4922,
      "duration": 0.1313,
      "velocity": 124,
      "chip": "ym2612"
    },
    {
      "channel": 0,
      "note": 21,
      "start": 64.6209,
      "duration": 0.1313,
      "velocity": 112,
      "chip": "ym2612"
    },
    {
      "channel": 1,
      "note": 27,
      "start": 64.6215,
      "duration": 0.1319,
      "velocity": 124,
      "chip": "ym2612"
    },
    {
      "channel": 2,
      "note": 51,
      "start": 64.6221,
      "duration": 0.132,
      "velocity": 82,
      "chip": "ym2612"
    },
    {
      "channel": 3,
      "note": 84,
      "start": 64.6228,
      "duration": 0.0816,
      "velocity": 102,
      "chip": "ym2612"
    },
    {
      "channel": 4,
      "note": 41,
      "start": 64.6234,
      "duration": 0.0814,
      "velocity": 114,
      "chip": "ym2612"
    },
    {
      "channel": 5,
      "note": 23,
      "start": 64.6246,
      "duration": 0.1314,
      "velocity": 121,
      "chip": "ym2612"
    },
    {
      "channel": 0,
      "note": 33,
      "start": 64.7532,
      "duration": 0.1314,
      "velocity": 119,
      "chip": "ym2612"
    },
    {
      "channel": 1,
      "note": 27,
      "start": 64.7539,
      "duration": 0.1319,
      "velocity": 115,
      "chip": "ym2612"
    },
    {
      "channel": 2,
      "note": 39,
      "start": 64.7546,
      "duration": 0.1319,
      "velocity": 83,
      "chip": "ym2612"
    },
    {
      "channel": 3,
      "note": 84,
      "start": 64.7552,
      "duration": 0.0815,
      "velocity": 101,
      "chip": "ym2612"
    },
    {
      "channel": 4,
      "note": 41,
      "start": 64.7559,
      "duration": 0.0814,
      "velocity": 115,
      "chip": "ym2612"
    },
    {
      "channel": 5,
      "note": 23,
      "start": 64.7571,
      "duration": 0.1314,
      "velocity": 124,
      "chip": "ym2612"
    },
    {
      "channel": 0,
      "note": 21,
      "start": 64.8856,
      "duration": 0.1314,
      "velocity": 112,
      "chip": "ym2612"
    },
    {
      "channel": 1,
      "note": 27,
      "start": 64.8863,
      "duration": 0.1313,
      "velocity": 13,
      "chip": "ym2612"
    },
    {
      "channel": 2,
      "note": 39,
      "start": 64.887,
      "duration": 0.1313,
      "velocity": 84,
      "chip": "ym2612"
    },
    {
      "channel": 3,
      "note": 84,
      "start": 64.8877,
      "duration": 0.0814,
      "velocity": 102,
      "chip": "ym2612"
    },
    {
      "channel": 4,
      "note": 41,
      "start": 64.8883,
      "duration": 0.0813,
      "velocity": 116,
      "chip": "ym2612"
    },
    {
      "channel": 5,
      "note": 23,
      "start": 64.8895,
      "duration": 0.1307,
      "velocity": 127,
      "chip": "ym2612"
    },
    {
      "channel": 0,
      "note": 21,
      "start": 65.0175,
      "duration": 0.132,
      "velocity": 112,
      "chip": "ym2612"
    },
    {
      "channel": 1,
      "note": 27,
      "start": 65.0181,
      "duration": 0.1326,
      "velocity": 13,
      "chip": "ym2612"
    },
    {
      "channel": 2,
      "note": 51,
      "start": 65.0188,
      "duration": 0.1326,
      "velocity": 85,
      "chip": "ym2612"
    },
    {
      "channel": 3,
      "note": 84,
      "start": 65.0194,
      "duration": 0.0821,
      "velocity": 102,
      "chip": "ym2612"
    },
    {
      "channel": 4,
      "note": 53,
      "start": 65.02,
      "duration": 0.082,
      "velocity": 117,
      "chip": "ym2612"
    },
    {
      "channel": 5,
      "note": 23,
      "start": 65.0213,
      "duration": 0.1319,
      "velocity": 124,
      "chip": "ym2612"
    },
    {
      "channel": 0,
      "note": 22,
      "start": 65.1505,
      "duration": 0.1313,
      "velocity": 119,
      "chip": "ym2612"
    },
    {
      "channel": 1,
      "note": 27,
      "start": 65.1511,
      "duration": 0.132,
      "velocity": 124,
      "chip": "ym2612"
    },
    {
      "channel": 2,
      "note": 39,
      "start": 65.1518,
      "duration": 0.1319,
      "velocity": 86,
      "chip": "ym2612"
    },
    {
      "channel": 3,
      "note": 84,
      "start": 65.1524,
      "duration": 0.0815,
      "velocity": 101,
      "chip": "ym2612"
    },
    {
      "channel": 4,
      "note": 53,
      "start": 65.1531,
      "duration": 0.0814,
      "velocity": 118,
      "chip": "ym2612"
    },
    {
      "channel": 5,
      "note": 23,
      "start": 65.1544,
      "duration": 0.1312,
      "velocity": 121,
      "chip": "ym2612"
    },
    {
      "channel": 0,
      "note": 30,
      "start": 65.2829,
      "duration": 0.1314,
      "velocity": 112,
      "chip": "ym2612"
    },
    {
      "channel": 1,
      "note": 27,
      "start": 65.2835,
      "duration": 0.1314,
      "velocity": 120,
      "chip": "ym2612"
    },
    {
      "channel": 2,
      "note": 51,
      "start": 65.2841,
      "duration": 0.1314,
      "velocity": 87,
      "chip": "ym2612"
    },
    {
      "channel": 3,
      "note": 84,
      "start": 65.2848,
      "duration": 0.0815,
      "velocity": 102,
      "chip": "ym2612"
    },
    {
      "channel": 4,
      "note": 41,
      "start": 65.2855,
      "duration": 0.0814,
      "velocity": 119,
      "chip": "ym2612"
    },
    {
      "channel": 5,
      "note": 23,
      "start": 65.2867,
      "duration": 0.1307,
      "velocity": 118,
      "chip": "ym2612"
    },
    {
      "channel": 0,
      "note": 21,
      "start": 65.4148,
      "duration": 0.1319,
      "velocity": 112,
      "chip": "ym2612"
    },
    {
      "channel": 1,
      "note": 27,
      "start": 65.4154,
      "duration": 0.1319,
      "velocity": 93,
      "chip": "ym2612"
    },
    {
      "channel": 2,
      "note": 42,
      "start": 65.416,
      "duration": 0.1319,
      "velocity": 88,
      "chip": "ym2612"
    },
    {
      "channel": 3,
      "note": 84,
      "start": 65.4167,
      "duration": 0.0821,
      "velocity": 102,
      "chip": "ym2612"
    },
    {
      "channel": 4,
      "note": 41,
      "start": 65.4173,
      "duration": 0.082,
      "velocity": 120,
      "chip": "ym2612"
    },
    {
      "channel": 5,
      "note": 23,
      "start": 65.4185,
      "duration": 0.1314,
      "velocity": 114,
      "chip": "ym2612"
    },
    {
      "channel": 0,
      "note": 21,
      "start": 65.5471,
      "duration": 0.1319,
      "velocity": 112,
      "chip": "ym2612"
    },
    {
      "channel": 1,
      "note": 27,
      "start": 65.5478,
      "duration": 0.1326,
      "velocity": 13,
      "chip": "ym2612"
    },
    {
      "channel": 2,
      "note": 39,
      "start": 65.5485,
      "duration": 0.1325,
      "velocity": 89,
      "chip": "ym2612"
    },
    {
      "channel": 3,
      "note": 84,
      "start": 65.5491,
      "duration": 0.0821,
      "velocity": 101,
      "chip": "ym2612"
    },
    {
      "channel": 4,
      "note": 53,
      "start": 65.5498,
      "duration": 0.082,
      "velocity": 121,
      "chip": "ym2612"
    },
    {
      "channel": 5,
      "note": 23,
      "start": 65.551,
      "duration": 0.1319,
      "velocity": 110,
      "chip": "ym2612"
    },
    {
      "channel": 0,
      "note": 22,
      "start": 65.6802,
      "duration": 0.1314,
      "velocity": 127,
      "chip": "ym2612"
    },
    {
      "channel": 1,
      "note": 27,
      "start": 65.6808,
      "duration": 0.1319,
      "velocity": 124,
      "chip": "ym2612"
    },
    {
      "channel": 2,
      "note": 49,
      "start": 65.6814,
      "duration": 0.0817,
      "velocity": 90,
      "chip": "ym2612"
    },
    {
      "channel": 3,
      "note": 84,
      "start": 65.6821,
      "duration": 0.0816,
      "velocity": 102,
      "chip": "ym2612"
    },
    {
      "channel": 4,
      "note": 41,
      "start": 65.6827,
      "duration": 0.0815,
      "velocity": 121,
      "chip": "ym2612"
    },
    {
      "channel": 5,
      "note": 21,
      "start": 65.684,
      "duration": 0.1313,
      "velocity": 106,
      "chip": "ym2612"
    },
    {
      "channel": 0,
      "note": 21,
      "start": 65.8126,
      "duration": 0.1314,
      "velocity": 120,
      "chip": "ym2612"
    },
    {
      "channel": 1,
      "note": 27,
      "start": 65.8132,
      "duration": 0.1314,
      "velocity": 110,
      "chip": "ym2612"
    },
    {
      "channel": 2,
      "note": 51,
      "start": 65.8139,
      "duration": 0.0817,
      "velocity": 89,
      "chip": "ym2612"
    },
    {
      "channel": 3,
      "note": 84,
      "start": 65.8145,
      "duration": 0.0815,
      "velocity": 101,
      "chip": "ym2612"
    },
    {
      "channel": 4,
      "note": 53,
      "start": 65.8151,
      "duration": 0.1314,
      "velocity": 121,
      "chip": "ym2612"
    },
    {
      "channel": 5,
      "note": 21,
      "start": 65.8163,
      "duration": 0.1308,
      "velocity": 110,
      "chip": "ym2612"
    },
    {
      "channel": 0,
      "note": 21,
      "start": 65.9444,
      "duration": 0.1319,
      "velocity": 111,
      "chip": "ym2612"
    },
    {
      "channel": 1,
      "note": 27,
      "start": 65.945,
      "duration": 0.1326,
      "velocity": 93,
      "chip": "ym2612"
    },
    {
      "channel": 2,
      "note": 39,
      "start": 65.9457,
      "duration": 0.1325,
      "velocity": 88,
      "chip": "ym2612"
    },
    {
      "channel": 3,
      "note": 84,
      "start": 65.9464,
      "duration": 0.0821,
      "velocity": 102,
      "chip": "ym2612"
    },
    {
      "channel": 4,
      "note": 41,
      "start": 65.947,
      "duration": 0.0819,
      "velocity": 120,
      "chip": "ym2612"
    },
    {
      "channel": 5,
      "note": 21,
      "start": 65.9482,
      "duration": 0.1319,
      "velocity": 114,
      "chip": "ym2612"
    },
    {
      "channel": 0,
      "note": 33,
      "start": 66.0774,
      "duration": 0.1314,
      "velocity": 127,
      "chip": "ym2612"
    },
    {
      "channel": 1,
      "note": 27,
      "start": 66.078,
      "duration": 0.132,
      "velocity": 13,
      "chip": "ym2612"
    },
    {
      "channel": 2,
      "note": 39,
      "start": 66.0787,
      "duration": 0.132,
      "velocity": 87,
      "chip": "ym2612"
    },
    {
      "channel": 3,
      "note": 84,
      "start": 66.0793,
      "duration": 0.0816,
      "velocity": 102,
      "chip": "ym2612"
    },
    {
      "channel": 4,
      "note": 41,
      "start": 66.08,
      "duration": 0.132,
      "velocity": 119,
      "chip": "ym2612"
    },
    {
      "channel": 5,
      "note": 21,
      "start": 66.0812,
      "duration": 0.1313,
      "velocity": 118,
      "chip": "ym2612"
    },
    {
      "channel": 0,
      "note": 22,
      "start": 66.2099,
      "duration": 0.1314,
      "velocity": 127,
      "chip": "ym2612"
    },
    {
      "channel": 1,
      "note": 27,
      "start": 66.2105,
      "duration": 0.1319,
      "velocity": 124,
      "chip": "ym2612"
    },
    {
      "channel": 2,
      "note": 42,
      "start": 66.2111,
      "duration": 0.1319,
      "velocity": 86,
      "chip": "ym2612"
    },
    {
      "channel": 3,
      "note": 84,
      "start": 66.2118,
      "duration": 0.0815,
      "velocity": 101,
      "chip": "ym2612"
    },
    {
      "channel": 4,
      "note": 41,
      "start": 66.2124,
      "duration": 0.0814,
      "velocity": 118,
      "chip": "ym2612"
    },
    {
      "channel": 5,
      "note": 21,
      "start": 66.2137,
      "duration": 0.1313,
      "velocity": 121,
      "chip": "ym2612"
    },
    {
      "channel": 0,
      "note": 32,
      "start": 66.3422,
      "duration": 0.1314,
      "velocity": 120,
      "chip": "ym2612"
    },
    {
      "channel": 1,
      "note": 27,
      "start": 66.3429,
      "duration": 0.1319,
      "velocity": 110,
      "chip": "ym2612"
    },
    {
      "channel": 2,
      "note": 39,
      "start": 66.3436,
      "duration": 0.1319,
      "velocity": 85,
      "chip": "ym2612"
    },
    {
      "channel": 3,
      "note": 84,
      "start": 66.3442,
      "duration": 0.0815,
      "velocity": 102,
      "chip": "ym2612"
    },
    {
      "channel": 4,
      "note": 53,
      "start": 66.3449,
      "duration": 0.1319,
      "velocity": 117,
      "chip": "ym2612"
    },
    {
      "channel": 5,
      "note": 21,
      "start": 66.3461,
      "duration": 0.1313,
      "velocity": 124,
      "chip": "ym2612"
    },
    {
      "channel": 0,
      "note": 33,
      "start": 66.4747,
      "duration": 0.1314,
      "velocity": 127,
      "chip": "ym2612"
    },
    {
      "channel": 1,
      "note": 27,
      "start": 66.4753,
      "duration": 0.1319,
      "velocity": 117,
      "chip": "ym2612"
    },
    {
      "channel": 2,
      "note": 51,
      "start": 66.476,
      "duration": 0.1319,
      "velocity": 84,
      "chip": "ym2612"
    },
    {
      "channel": 3,
      "note": 84,
      "start": 66.4766,
      "duration": 0.0815,
      "velocity": 102,
      "chip": "ym2612"
    },
    {
      "channel": 4,
      "note": 53,
      "start": 66.4772,
      "duration": 0.0814,
      "velocity": 116,
      "chip": "ym2612"
    },
    {
      "channel": 5,
      "note": 21,
      "start": 66.4785,
      "duration": 0.1313,
      "velocity": 127,
      "chip": "ym2612"
    },
    {
      "channel": 0,
      "note": 21,
      "start": 66.6071,
      "duration": 0.1314,
      "velocity": 120,
      "chip": "ym2612"
    },
    {
      "channel": 1,
      "note": 27,
      "start": 66.6078,
      "duration": 0.1314,
      "velocity": 13,
      "chip": "ym2612"
    },
    {
      "channel": 2,
      "note": 42,
      "start": 66.6084,
      "duration": 0.1314,
      "velocity": 83,
      "chip": "ym2612"
    },
    {
      "channel": 3,
      "note": 84,
      "start": 66.609,
      "duration": 0.0816,
      "velocity": 101,
      "chip": "ym2612"
    },
    {
      "channel": 4,
      "note": 41,
      "start": 66.6097,
      "duration": 0.1314,
      "velocity": 115,
      "chip": "ym2612"
    },
    {
      "channel": 5,
      "note": 21,
      "start": 66.6109,
      "duration": 0.1308,
      "velocity": 124,
      "chip": "ym2612"
    },
    {
      "channel": 0,
      "note": 21,
      "start": 66.7389,
      "duration": 0.132,
      "velocity": 112,
      "chip": "ym2612"
    },
    {
      "channel": 1,
      "note": 27,
      "start": 66.7396,
      "duration": 0.1326,
      "velocity": 124,
      "chip": "ym2612"
    },
    {
      "channel": 2,
      "note": 39,
      "start": 66.7403,
      "duration": 0.1325,
      "velocity": 82,
      "chip": "ym2612"
    },
    {
      "channel": 3,
      "note": 84,
      "start": 66.7409,
      "duration": 0.0821,
      "velocity": 102,
      "chip": "ym2612"
    },
    {
      "channel": 4,
      "note": 41,
      "start": 66.7415,
      "duration": 0.0819,
      "velocity": 114,
      "chip": "ym2612"
    },
    {
      "channel": 5,
      "note": 21,
      "start": 66.7427,
      "duration": 0.1319,
      "velocity": 121,
      "chip": "ym2612"
    },
    {
      "channel": 0,
      "note": 33,
      "start": 66.872,
      "duration": 0.1313,
      "velocity": 119,
      "chip": "ym2612"
    },
    {
      "channel": 1,
      "note": 27,
      "start": 66.8727,
      "duration": 0.1319,
      "velocity": 115,
      "chip": "ym2612"
    },
    {
      "channel": 2,
      "note": 39,
      "start": 66.8733,
      "duration": 0.1319,
      "velocity": 83,
      "chip": "ym2612"
    },
    {
      "channel": 3,
      "note": 84,
      "start": 66.8739,
      "duration": 0.0815,
      "velocity": 101,
      "chip": "ym2612"
    },
    {
      "channel": 4,
      "note": 53,
      "start": 66.8746,
      "duration": 0.0814,
      "velocity": 115,
      "chip": "ym2612"
    },
    {
      "channel": 5,
      "note": 21,
      "start": 66.8758,
      "duration": 0.1314,
      "velocity": 124,
      "chip": "ym2612"
    },
    {
      "channel": 0,
      "note": 21,
      "start": 67.0044,
      "duration": 0.1314,
      "velocity": 112,
      "chip": "ym2612"
    },
    {
      "channel": 1,
      "note": 27,
      "start": 67.005,
      "duration": 0.1314,
      "velocity": 13,
      "chip": "ym2612"
    },
    {
      "channel": 2,
      "note": 42,
      "start": 67.0057,
      "duration": 0.1314,
      "velocity": 84,
      "chip": "ym2612"
    },
    {
      "channel": 3,
      "note": 84,
      "start": 67.0063,
      "duration": 0.0816,
      "velocity": 102,
      "chip": "ym2612"
    },
    {
      "channel": 4,
      "note": 41,
      "start": 67.007,
      "duration": 0.0814,
      "velocity": 116,
      "chip": "ym2612"
    },
    {
      "channel": 5,
      "note": 21,
      "start": 67.0082,
      "duration": 0.1307,
      "velocity": 127,
      "chip": "ym2612"
    },
    {
      "channel": 0,
      "note": 21,
      "start": 67.1362,
      "duration": 0.132,
      "velocity": 112,
      "chip": "ym2612"
    },
    {
      "channel": 1,
      "note": 27,
      "start": 67.1368,
      "duration": 0.1326,
      "velocity": 13,
      "chip": "ym2612"
    },
    {
      "channel": 2,
      "note": 39,
      "start": 67.1375,
      "duration": 0.1325,
      "velocity": 85,
      "chip": "ym2612"
    },
    {
      "channel": 3,
      "note": 84,
      "start": 67.1382,
      "duration": 0.0821,
      "velocity": 102,
      "chip": "ym2612"
    },
    {
      "channel": 4,
      "note": 41,
      "start": 67.1388,
      "duration": 0.082,
      "velocity": 116,
      "chip": "ym2612"
    },
    {
      "channel": 5,
      "note": 21,
      "start": 67.1401,
      "duration": 0.1319,
      "velocity": 124,
      "chip": "ym2612"
    },
    {
      "channel": 0,
      "note": 22,
      "start": 67.2692,
      "duration": 0.2637,
      "velocity": 119,
      "chip": "ym2612"
    },
    {
      "channel": 1,
      "note": 27,
      "start": 67.2698,
      "duration": 0.1312,
      "velocity": 124,
      "chip": "ym2612"
    },
    {
      "channel": 2,
      "note": 42,
      "start": 67.2705,
      "duration": 0.1312,
      "velocity": 86,
      "chip": "ym2612"
    },
    {
      "channel": 3,
      "note": 84,
      "start": 67.2712,
      "duration": 0.0815,
      "velocity": 101,
      "chip": "ym2612"
    },
    {
      "channel": 4,
      "note": 41,
      "start": 67.2718,
      "duration": 0.0814,
      "velocity": 118,
      "chip": "ym2612"
    },
    {
      "channel": 5,
      "note": 21,
      "start": 67.2731,
      "duration": 0.1305,
      "velocity": 121,
      "chip": "ym2612"
    },
    {
      "channel": 1,
      "note": 27,
      "start": 67.4015,
      "duration": 0.1327,
      "velocity": 120,
      "chip": "ym2612"
    },
    {
      "channel": 2,
      "note": 51,
      "start": 67.4022,
      "duration": 0.1327,
      "velocity": 87,
      "chip": "ym2612"
    },
    {
      "channel": 3,
      "note": 84,
      "start": 67.4028,
      "duration": 0.0823,
      "velocity": 102,
      "chip": "ym2612"
    },
    {
      "channel": 4,
      "note": 53,
      "start": 67.4034,
      "duration": 0.0822,
      "velocity": 118,
      "chip": "ym2612"
    },
    {
      "channel": 5,
      "note": 21,
      "start": 67.4048,
      "duration": 0.132,
      "velocity": 118,
      "chip": "ym2612"
    },
    {
      "channel": 0,
      "note": 21,
      "start": 67.534,
      "duration": 0.1314,
      "velocity": 112,
      "chip": "ym2612"
    },
    {
      "channel": 1,
      "note": 27,
      "start": 67.5347,
      "duration": 0.132,
      "velocity": 93,
      "chip": "ym2612"
    },
    {
      "channel": 2,
      "note": 39,
      "start": 67.5353,
      "duration": 0.132,
      "velocity": 88,
      "chip": "ym2612"
    },
    {
      "channel": 3,
      "note": 84,
      "start": 67.5359,
      "duration": 0.0815,
      "velocity": 102,
      "chip": "ym2612"
    },
    {
      "channel": 4,
      "note": 41,
      "start": 67.5366,
      "duration": 0.0814,
      "velocity": 120,
      "chip": "ym2612"
    },
    {
      "channel": 5,
      "note": 21,
      "start": 67.5379,
      "duration": 0.1312,
      "velocity": 114,
      "chip": "ym2612"
    },
    {
      "channel": 0,
      "note": 22,
      "start": 67.6665,
      "duration": 0.1314,
      "velocity": 119,
      "chip": "ym2612"
    },
    {
      "channel": 1,
      "note": 27,
      "start": 67.6671,
      "duration": 0.1319,
      "velocity": 13,
      "chip": "ym2612"
    },
    {
      "channel": 2,
      "note": 42,
      "start": 67.6678,
      "duration": 0.1319,
      "velocity": 89,
      "chip": "ym2612"
    },
    {
      "channel": 3,
      "note": 84,
      "start": 67.6684,
      "duration": 0.0815,
      "velocity": 101,
      "chip": "ym2612"
    },
    {
      "channel": 4,
      "note": 41,
      "start": 67.669,
      "duration": 0.0814,
      "velocity": 121,
      "chip": "ym2612"
    },
    {
      "channel": 5,
      "note": 21,
      "start": 67.6703,
      "duration": 0.1313,
      "velocity": 110,
      "chip": "ym2612"
    },
    {
      "channel": 0,
      "note": 33,
      "start": 67.7988,
      "duration": 0.1314,
      "velocity": 127,
      "chip": "ym2612"
    },
    {
      "channel": 1,
      "note": 27,
      "start": 67.7995,
      "duration": 0.132,
      "velocity": 124,
      "chip": "ym2612"
    },
    {
      "channel": 2,
      "note": 49,
      "start": 67.8002,
      "duration": 0.132,
      "velocity": 90,
      "chip": "ym2612"
    },
    {
      "channel": 3,
      "note": 84,
      "start": 67.8008,
      "duration": 0.0816,
      "velocity": 102,
      "chip": "ym2612"
    },
    {
      "channel": 4,
      "note": 53,
      "start": 67.8015,
      "duration": 0.0814,
      "velocity": 122,
      "chip": "ym2612"
    },
    {
      "channel": 5,
      "note": 18,
      "start": 67.8027,
      "duration": 0.1313,
      "velocity": 106,
      "chip": "ym2612"
    },
    {
      "channel": 0,
      "note": 21,
      "start": 67.9313,
      "duration": 0.1314,
      "velocity": 120,
      "chip": "ym2612"
    },
    {
      "channel": 1,
      "note": 29,
      "start": 67.9319,
      "duration": 0.1314,
      "velocity": 110,
      "chip": "ym2612"
    },
    {
      "channel": 2,
      "note": 53,
      "start": 67.9326,
      "duration": 0.1314,
      "velocity": 89,
      "chip": "ym2612"
    },
    {
      "channel": 3,
      "note": 84,
      "start": 67.9332,
      "duration": 0.0816,
      "velocity": 101,
      "chip": "ym2612"
    },
    {
      "channel": 4,
      "note": 53,
      "start": 67.9338,
      "duration": 0.0814,
      "velocity": 122,
      "chip": "ym2612"
    },
    {
      "channel": 5,
      "note": 18,
      "start": 67.9351,
      "duration": 0.1307,
      "velocity": 110,
      "chip": "ym2612"
    },
    {
      "channel": 0,
      "note": 21,
      "start": 68.0631,
      "duration": 0.132,
      "velocity": 111,
      "chip": "ym2612"
    },
    {
      "channel": 1,
      "note": 29,
      "start": 68.0638,
      "duration": 0.1325,
      "velocity": 93,
      "chip": "ym2612"
    },
    {
      "channel": 2,
      "note": 41,
      "start": 68.0644,
      "duration": 0.1325,
      "velocity": 88,
      "chip": "ym2612"
    },
    {
      "channel": 3,
      "note": 84,
      "start": 68.0651,
      "duration": 0.0821,
      "velocity": 102,
      "chip": "ym2612"
    },
    {
      "channel": 4,
      "note": 41,
      "start": 68.0657,
      "duration": 0.082,
      "velocity": 120,
      "chip": "ym2612"
    },
    {
      "channel": 5,
      "note": 18,
      "start": 68.0669,
      "duration": 0.1319,
      "velocity": 114,
      "chip": "ym2612"
    },
    {
      "channel": 0,
      "note": 33,
      "start": 68.1961,
      "duration": 0.1314,
      "velocity": 127,
      "chip": "ym2612"
    },
    {
      "channel": 1,
      "note": 29,
      "start": 68.1968,
      "duration": 0.1319,
      "velocity": 13,
      "chip": "ym2612"
    },
    {
      "channel": 2,
      "note": 41,
      "start": 68.1975,
      "duration": 0.1319,
      "velocity": 87,
      "chip": "ym2612"
    },
    {
      "channel": 3,
      "note": 84,
      "start": 68.1981,
      "duration": 0.0815,
      "velocity": 102,
      "chip": "ym2612"
    },
    {
      "channel": 4,
      "note": 41,
      "start": 68.1987,
      "duration": 0.1319,
      "velocity": 119,
      "chip": "ym2612"
    },
    {
      "channel": 5,
      "note": 18,
      "start": 68.1999,
      "duration": 0.1314,
      "velocity": 118,
      "chip": "ym2612"
    },
    {
      "channel": 0,
      "note": 22,
      "start": 68.3286,
      "duration": 0.2637,
      "velocity": 127,
      "chip": "ym2612"
    },
    {
      "channel": 1,
      "note": 29,
      "start": 68.3292,
      "duration": 0.1312,
      "velocity": 124,
      "chip": "ym2612"
    },
    {
      "channel": 2,
      "note": 53,
      "start": 68.3299,
      "duration": 0.1312,
      "velocity": 86,
      "chip": "ym2612"
    },
    {
      "channel": 3,
      "note": 84,
      "start": 68.3305,
      "duration": 0.0815,
      "velocity": 101,
      "chip": "ym2612"
    },
    {
      "channel": 4,
      "note": 41,
      "start": 68.3312,
      "duration": 0.0814,
      "velocity": 118,
      "chip": "ym2612"
    },
    {
      "channel": 5,
      "note": 18,
      "start": 68.3324,
      "duration": 0.1306,
      "velocity": 121,
      "chip": "ym2612"
    },
    {
      "channel": 1,
      "note": 29,
      "start": 68.4609,
      "duration": 0.1327,
      "velocity": 110,
      "chip": "ym2612"
    },
    {
      "channel": 2,
      "note": 41,
      "start": 68.4615,
      "duration": 0.1327,
      "velocity": 85,
      "chip": "ym2612"
    },
    {
      "channel": 3,
      "note": 84,
      "start": 68.4622,
      "duration": 0.0823,
      "velocity": 102,
      "chip": "ym2612"
    },
    {
      "channel": 4,
      "note": 53,
      "start": 68.4629,
      "duration": 0.1326,
      "velocity": 117,
      "chip": "ym2612"
    },
    {
      "channel": 5,
      "note": 18,
      "start": 68.4641,
      "duration": 0.1321,
      "velocity": 124,
      "chip": "ym2612"
    },
    {
      "channel": 0,
      "note": 33,
      "start": 68.5934,
      "duration": 0.1314,
      "velocity": 127,
      "chip": "ym2612"
    },
    {
      "channel": 1,
      "note": 29,
      "start": 68.5941,
      "duration": 0.1319,
      "velocity": 117,
      "chip": "ym2612"
    },
    {
      "channel": 2,
      "note": 44,
      "start": 68.5947,
      "duration": 0.1319,
      "velocity": 84,
      "chip": "ym2612"
    },
    {
      "channel": 3,
      "note": 84,
      "start": 68.5954,
      "duration": 0.0816,
      "velocity": 102,
      "chip": "ym2612"
    },
    {
      "channel": 4,
      "note": 41,
      "start": 68.596,
      "duration": 0.0814,
      "velocity": 116,
      "chip": "ym2612"
    },
    {
      "channel": 5,
      "note": 18,
      "start": 68.5972,
      "duration": 0.1314,
      "velocity": 127,
      "chip": "ym2612"
    },
    {
      "channel": 0,
      "note": 22,
      "start": 68.7258,
      "duration": 0.1314,
      "velocity": 127,
      "chip": "ym2612"
    },
    {
      "channel": 1,
      "note": 29,
      "start": 68.7265,
      "duration": 0.1319,
      "velocity": 13,
      "chip": "ym2612"
    },
    {
      "channel": 2,
      "note": 41,
      "start": 68.7272,
      "duration": 0.1319,
      "velocity": 83,
      "chip": "ym2612"
    },
    {
      "channel": 3,
      "note": 84,
      "start": 68.7278,
      "duration": 0.0815,
      "velocity": 101,
      "chip": "ym2612"
    },
    {
      "channel": 4,
      "note": 53,
      "start": 68.7284,
      "duration": 0.1319,
      "velocity": 115,
      "chip": "ym2612"
    },
    {
      "channel": 5,
      "note": 18,
      "start": 68.7296,
      "duration": 0.1313,
      "velocity": 124,
      "chip": "ym2612"
    },
    {
      "channel": 0,
      "note": 21,
      "start": 68.8583,
      "duration": 0.1313,
      "velocity": 112,
      "chip": "ym2612"
    },
    {
      "channel": 1,
      "note": 29,
      "start": 68.8589,
      "duration": 0.1319,
      "velocity": 124,
      "chip": "ym2612"
    },
    {
      "channel": 2,
      "note": 53,
      "start": 68.8595,
      "duration": 0.1319,
      "velocity": 82,
      "chip": "ym2612"
    },
    {
      "channel": 3,
      "note": 84,
      "start": 68.8602,
      "duration": 0.0815,
      "velocity": 102,
      "chip": "ym2612"
    },
    {
      "channel": 4,
      "note": 41,
      "start": 68.8608,
      "duration": 0.0814,
      "velocity": 114,
      "chip": "ym2612"
    },
    {
      "channel": 5,
      "note": 18,
      "start": 68.862,
      "duration": 0.1314,
      "velocity": 121,
      "chip": "ym2612"
    },
    {
      "channel": 0,
      "note": 33,
      "start": 68.9907,
      "duration": 0.1314,
      "velocity": 119,
      "chip": "ym2612"
    },
    {
      "channel": 1,
      "note": 29,
      "start": 68.9913,
      "duration": 0.1319,
      "velocity": 115,
      "chip": "ym2612"
    },
    {
      "channel": 2,
      "note": 41,
      "start": 68.992,
      "duration": 0.1319,
      "velocity": 83,
      "chip": "ym2612"
    },
    {
      "channel": 3,
      "note": 84,
      "start": 68.9926,
      "duration": 0.0815,
      "velocity": 101,
      "chip": "ym2612"
    },
    {
      "channel": 4,
      "note": 41,
      "start": 68.9933,
      "duration": 0.0814,
      "velocity": 115,
      "chip": "ym2612"
    },
    {
      "channel": 5,
      "note": 18,
      "start": 68.9945,
      "duration": 0.1313,
      "velocity": 124,
      "chip": "ym2612"
    },
    {
      "channel": 0,
      "note": 21,
      "start": 69.1231,
      "duration": 0.1314,
      "velocity": 112,
      "chip": "ym2612"
    },
    {
      "channel": 1,
      "note": 29,
      "start": 69.1237,
      "duration": 0.1314,
      "velocity": 13,
      "chip": "ym2612"
    },
    {
      "channel": 2,
      "note": 41,
      "start": 69.1244,
      "duration": 0.1314,
      "velocity": 84,
      "chip": "ym2612"
    },
    {
      "channel": 3,
      "note": 84,
      "start": 69.125,
      "duration": 0.0816,
      "velocity": 102,
      "chip": "ym2612"
    },
    {
      "channel": 4,
      "note": 41,
      "start": 69.1256,
      "duration": 0.0814,
      "velocity": 116,
      "chip": "ym2612"
    },
    {
      "channel": 5,
      "note": 18,
      "start": 69.1269,
      "duration": 0.1307,
      "velocity": 127,
      "chip": "ym2612"
    },
    {
      "channel": 0,
      "note": 21,
      "start": 69.2549,
      "duration": 0.1319,
      "velocity": 112,
      "chip": "ym2612"
    },
    {
      "channel": 1,
      "note": 29,
      "start": 69.2555,
      "duration": 0.1326,
      "velocity": 13,
      "chip": "ym2612"
    },
    {
      "channel": 2,
      "note": 53,
      "start": 69.2562,
      "duration": 0.1326,
      "velocity": 85,
      "chip": "ym2612"
    },
    {
      "channel": 3,
      "note": 84,
      "start": 69.2569,
      "duration": 0.0821,
      "velocity": 102,
      "chip": "ym2612"
    },
    {
      "channel": 4,
      "note": 53,
      "start": 69.2575,
      "duration": 0.082,
      "velocity": 117,
      "chip": "ym2612"
    },
    {
      "channel": 5,
      "note": 18,
      "start": 69.2587,
      "duration": 0.132,
      "velocity": 124,
      "chip": "ym2612"
    },
    {
      "channel": 0,
      "note": 22,
      "start": 69.388,
      "duration": 0.1313,
      "velocity": 119,
      "chip": "ym2612"
    },
    {
      "channel": 1,
      "note": 29,
      "start": 69.3886,
      "duration": 0.1319,
      "velocity": 124,
      "chip": "ym2612"
    },
    {
      "channel": 2,
      "note": 41,
      "start": 69.3893,
      "duration": 0.1319,
      "velocity": 86,
      "chip": "ym2612"
    },
    {
      "channel": 3,
      "note": 84,
      "start": 69.39,
      "duration": 0.0815,
      "velocity": 101,
      "chip": "ym2612"
    },
    {
      "channel": 4,
      "note": 53,
      "start": 69.3906,
      "duration": 0.0814,
      "velocity": 118,
      "chip": "ym2612"
    },
    {
      "channel": 5,
      "note": 18,
      "start": 69.3918,
      "duration": 0.1313,
      "velocity": 121,
      "chip": "ym2612"
    },
    {
      "channel": 0,
      "note": 30,
      "start": 69.5204,
      "duration": 0.1314,
      "velocity": 112,
      "chip": "ym2612"
    },
    {
      "channel": 1,
      "note": 29,
      "start": 69.5211,
      "duration": 0.1313,
      "velocity": 120,
      "chip": "ym2612"
    },
    {
      "channel": 2,
      "note": 53,
      "start": 69.5217,
      "duration": 0.1313,
      "velocity": 87,
      "chip": "ym2612"
    },
    {
      "channel": 3,
      "note": 84,
      "start": 69.5223,
      "duration": 0.0815,
      "velocity": 102,
      "chip": "ym2612"
    },
    {
      "channel": 4,
      "note": 41,
      "start": 69.523,
      "duration": 0.0814,
      "velocity": 119,
      "chip": "ym2612"
    },
    {
      "channel": 5,
      "note": 18,
      "start": 69.5242,
      "duration": 0.1308,
      "velocity": 118,
      "chip": "ym2612"
    },
    {
      "channel": 0,
      "note": 21,
      "start": 69.6522,
      "duration": 0.132,
      "velocity": 112,
      "chip": "ym2612"
    },
    {
      "channel": 1,
      "note": 29,
      "start": 69.6528,
      "duration": 0.132,
      "velocity": 93,
      "chip": "ym2612"
    },
    {
      "channel": 2,
      "note": 44,
      "start": 69.6535,
      "duration": 0.1319,
      "velocity": 88,
      "chip": "ym2612"
    },
    {
      "channel": 3,
      "note": 84,
      "start": 69.6541,
      "duration": 0.0821,
      "velocity": 102,
      "chip": "ym2612"
    },
    {
      "channel": 4,
      "note": 41,
      "start": 69.6548,
      "duration": 0.0819,
      "velocity": 120,
      "chip": "ym2612"
    },
    {
      "channel": 5,
      "note": 18,
      "start": 69.656,
      "duration": 0.1313,
      "velocity": 114,
      "chip": "ym2612"
    },
    {
      "channel": 0,
      "note": 21,
      "start": 69.7846,
      "duration": 0.1319,
      "velocity": 112,
      "chip": "ym2612"
    },
    {
      "channel": 1,
      "note": 29,
      "start": 69.7852,
      "duration": 0.1325,
      "velocity": 13,
      "chip": "ym2612"
    },
    {
      "channel": 2,
      "note": 41,
      "start": 69.7859,
      "duration": 0.1325,
      "velocity": 89,
      "chip": "ym2612"
    },
    {
      "channel": 3,
      "note": 84,
      "start": 69.7865,
      "duration": 0.0821,
      "velocity": 101,
      "chip": "ym2612"
    },
    {
      "channel": 4,
      "note": 53,
      "start": 69.7872,
      "duration": 0.0819,
      "velocity": 121,
      "chip": "ym2612"
    },
    {
      "channel": 5,
      "note": 18,
      "start": 69.7884,
      "duration": 0.1319,
      "velocity": 110,
      "chip": "ym2612"
    },
    {
      "channel": 0,
      "note": 22,
      "start": 69.9176,
      "duration": 0.1314,
      "velocity": 127,
      "chip": "ym2612"
    },
    {
      "channel": 1,
      "note": 29,
      "start": 69.9183,
      "duration": 0.1319,
      "velocity": 124,
      "chip": "ym2612"
    },
    {
      "channel": 2,
      "note": 51,
      "start": 69.9189,
      "duration": 0.0817,
      "velocity": 90,
      "chip": "ym2612"
    },
    {
      "channel": 3,
      "note": 84,
      "start": 69.9195,
      "duration": 0.0816,
      "velocity": 102,
      "chip": "ym2612"
    },
    {
      "channel": 4,
      "note": 41,
      "start": 69.9202,
      "duration": 0.0814,
      "velocity": 121,
      "chip": "ym2612"
    },
    {
      "channel": 5,
      "note": 18,
      "start": 69.9214,
      "duration": 0.1313,
      "velocity": 106,
      "chip": "ym2612"
    },
    {
      "channel": 0,
      "note": 21,
      "start": 70.05,
      "duration": 0.1314,
      "velocity": 120,
      "chip": "ym2612"
    },
    {
      "channel": 1,
      "note": 29,
      "start": 70.0507,
      "duration": 0.1313,
      "velocity": 110,
      "chip": "ym2612"
    },
    {
      "channel": 2,
      "note": 53,
      "start": 70.0513,
      "duration": 0.0817,
      "velocity": 89,
      "chip": "ym2612"
    },
    {
      "channel": 3,
      "note": 84,
      "start": 70.052,
      "duration": 0.0815,
      "velocity": 101,
      "chip": "ym2612"
    },
    {
      "channel": 4,
      "note": 53,
      "start": 70.0526,
      "duration": 0.1314,
      "velocity": 121,
      "chip": "ym2612"
    },
    {
      "channel": 5,
      "note": 18,
      "start": 70.0539,
      "duration": 0.1307,
      "velocity": 110,
      "chip": "ym2612"
    },
    {
      "channel": 0,
      "note": 21,
      "start": 70.1819,
      "duration": 0.132,
      "velocity": 111,
      "chip": "ym2612"
    },
    {
      "channel": 1,
      "note": 29,
      "start": 70.1825,
      "duration": 0.1325,
      "velocity": 93,
      "chip": "ym2612"
    },
    {
      "channel": 2,
      "note": 41,
      "start": 70.1832,
      "duration": 0.1325,
      "velocity": 88,
      "chip": "ym2612"
    },
    {
      "channel": 3,
      "note": 84,
      "start": 70.1838,
      "duration": 0.0821,
      "velocity": 102,
      "chip": "ym2612"
    },
    {
      "channel": 4,
      "note": 41,
      "start": 70.1844,
      "duration": 0.082,
      "velocity": 120,
      "chip": "ym2612"
    },
    {
      "channel": 5,
      "note": 18,
      "start": 70.1857,
      "duration": 0.1319,
      "velocity": 114,
      "chip": "ym2612"
    },
    {
      "channel": 0,
      "note": 33,
      "start": 70.3149,
      "duration": 0.1314,
      "velocity": 127,
      "chip": "ym2612"
    },
    {
      "channel": 1,
      "note": 29,
      "start": 70.3155,
      "duration": 0.132,
      "velocity": 13,
      "chip": "ym2612"
    },
    {
      "channel": 2,
      "note": 41,
      "start": 70.3162,
      "duration": 0.1319,
      "velocity": 87,
      "chip": "ym2612"
    },
    {
      "channel": 3,
      "note": 84,
      "start": 70.3168,
      "duration": 0.0815,
      "velocity": 102,
      "chip": "ym2612"
    },
    {
      "channel": 4,
      "note": 41,
      "start": 70.3174,
      "duration": 0.132,
      "velocity": 119,
      "chip": "ym2612"
    },
    {
      "channel": 5,
      "note": 18,
      "start": 70.3186,
      "duration": 0.1314,
      "velocity": 118,
      "chip": "ym2612"
    },
    {
      "channel": 0,
      "note": 22,
      "start": 70.4473,
      "duration": 0.1313,
      "velocity": 127,
      "chip": "ym2612"
    },
    {
      "channel": 1,
      "note": 29,
      "start": 70.448,
      "duration": 0.1319,
      "velocity": 124,
      "chip": "ym2612"
    },
    {
      "channel": 2,
      "note": 44,
      "start": 70.4486,
      "duration": 0.1319,
      "velocity": 86,
      "chip": "ym2612"
    },
    {
      "channel": 3,
      "note": 84,
      "start": 70.4492,
      "duration": 0.0815,
      "velocity": 101,
      "chip": "ym2612"
    },
    {
      "channel": 4,
      "note": 41,
      "start": 70.4499,
      "duration": 0.0814,
      "velocity": 118,
      "chip": "ym2612"
    },
    {
      "channel": 5,
      "note": 18,
      "start": 70.4511,
      "duration": 0.1312,
      "velocity": 121,
      "chip": "ym2612"
    },
    {
      "channel": 0,
      "note": 32,
      "start": 70.5797,
      "duration": 0.1314,
      "velocity": 120,
      "chip": "ym2612"
    },
    {
      "channel": 1,
      "note": 29,
      "start": 70.5803,
      "duration": 0.1319,
      "velocity": 110,
      "chip": "ym2612"
    },
    {
      "channel": 2,
      "note": 41,
      "start": 70.581,
      "duration": 0.1319,
      "velocity": 85,
      "chip": "ym2612"
    },
    {
      "channel": 3,
      "note": 84,
      "start": 70.5816,
      "duration": 0.0816,
      "velocity": 102,
      "chip": "ym2612"
    },
    {
      "channel": 4,
      "note": 53,
      "start": 70.5822,
      "duration": 0.132,
      "velocity": 117,
      "chip": "ym2612"
    },
    {
      "channel": 5,
      "note": 18,
      "start": 70.5835,
      "duration": 0.1313,
      "velocity": 124,
      "chip": "ym2612"
    },
    {
      "channel": 0,
      "note": 33,
      "start": 70.7121,
      "duration": 0.1314,
      "velocity": 127,
      "chip": "ym2612"
    },
    {
      "channel": 1,
      "note": 29,
      "start": 70.7128,
      "duration": 0.1319,
      "velocity": 117,
      "chip": "ym2612"
    },
    {
      "channel": 2,
      "note": 53,
      "start": 70.7134,
      "duration": 0.1319,
      "velocity": 84,
      "chip": "ym2612"
    },
    {
      "channel": 3,
      "note": 84,
      "start": 70.7141,
      "duration": 0.0815,
      "velocity": 102,
      "chip": "ym2612"
    },
    {
      "channel": 4,
      "note": 53,
      "start": 70.7147,
      "duration": 0.0814,
      "velocity": 116,
      "chip": "ym2612"
    },
    {
      "channel": 5,
      "note": 18,
      "start": 70.7159,
      "duration": 0.1313,
      "velocity": 127,
      "chip": "ym2612"
    },
    {
      "channel": 0,
      "note": 21,
      "start": 70.8445,
      "duration": 0.1314,
      "velocity": 120,
      "chip": "ym2612"
    },
    {
      "channel": 1,
      "note": 29,
      "start": 70.8452,
      "duration": 0.1314,
      "velocity": 13,
      "chip": "ym2612"
    },
    {
      "channel": 2,
      "note": 44,
      "start": 70.8458,
      "duration": 0.1314,
      "velocity": 83,
      "chip": "ym2612"
    },
    {
      "channel": 3,
      "note": 84,
      "start": 70.8464,
      "duration": 0.0815,
      "velocity": 101,
      "chip": "ym2612"
    },
    {
      "channel": 4,
      "note": 41,
      "start": 70.8471,
      "duration": 0.1314,
      "velocity": 115,
      "chip": "ym2612"
    },
    {
      "channel": 5,
      "note": 18,
      "start": 70.8483,
      "duration": 0.1307,
      "velocity": 124,
      "chip": "ym2612"
    },
    {
      "channel": 0,
      "note": 21,
      "start": 70.9764,
      "duration": 0.1319,
      "velocity": 112,
      "chip": "ym2612"
    },
    {
      "channel": 1,
      "note": 29,
      "start": 70.977,
      "duration": 0.1325,
      "velocity": 124,
      "chip": "ym2612"
    },
    {
      "channel": 2,
      "note": 41,
      "start": 70.9777,
      "duration": 0.1325,
      "velocity": 82,
      "chip": "ym2612"
    },
    {
      "channel": 3,
      "note": 84,
      "start": 70.9783,
      "duration": 0.0821,
      "velocity": 102,
      "chip": "ym2612"
    },
    {
      "channel": 4,
      "note": 41,
      "start": 70.9789,
      "duration": 0.082,
      "velocity": 114,
      "chip": "ym2612"
    },
    {
      "channel": 5,
      "note": 18,
      "start": 70.9802,
      "duration": 0.1319,
      "velocity": 121,
      "chip": "ym2612"
    },
    {
      "channel": 0,
      "note": 33,
      "start": 71.1094,
      "duration": 0.1313,
      "velocity": 119,
      "chip": "ym2612"
    },
    {
      "channel": 1,
      "note": 29,
      "start": 71.11,
      "duration": 0.132,
      "velocity": 115,
      "chip": "ym2612"
    },
    {
      "channel": 2,
      "note": 41,
      "start": 71.1107,
      "duration": 0.132,
      "velocity": 83,
      "chip": "ym2612"
    },
    {
      "channel": 3,
      "note": 84,
      "start": 71.1113,
      "duration": 0.0816,
      "velocity": 101,
      "chip": "ym2612"
    },
    {
      "channel": 4,
      "note": 53,
      "start": 71.112,
      "duration": 0.0814,
      "velocity": 115,
      "chip": "ym2612"
    },
    {
      "channel": 5,
      "note": 18,
      "start": 71.1132,
      "duration": 0.1314,
      "velocity": 124,
      "chip": "ym2612"
    },
    {
      "channel": 0,
      "note": 21,
      "start": 71.2418,
      "duration": 0.1314,
      "velocity": 112,
      "chip": "ym2612"
    },
    {
      "channel": 1,
      "note": 29,
      "start": 71.2424,
      "duration": 0.1314,
      "velocity": 13,
      "chip": "ym2612"
    },
    {
      "channel": 2,
      "note": 44,
      "start": 71.2431,
      "duration": 0.1314,
      "velocity": 84,
      "chip": "ym2612"
    },
    {
      "channel": 3,
      "note": 84,
      "start": 71.2437,
      "duration": 0.0816,
      "velocity": 102,
      "chip": "ym2612"
    },
    {
      "channel": 4,
      "note": 41,
      "start": 71.2444,
      "duration": 0.0814,
      "velocity": 116,
      "chip": "ym2612"
    },
    {
      "channel": 5,
      "note": 18,
      "start": 71.2456,
      "duration": 0.1307,
      "velocity": 127,
      "chip": "ym2612"
    },
    {
      "channel": 0,
      "note": 21,
      "start": 71.3736,
      "duration": 0.132,
      "velocity": 112,
      "chip": "ym2612"
    },
    {
      "channel": 1,
      "note": 29,
      "start": 71.3743,
      "duration": 0.1325,
      "velocity": 13,
      "chip": "ym2612"
    },
    {
      "channel": 2,
      "note": 41,
      "start": 71.3749,
      "duration": 0.1325,
      "velocity": 85,
      "chip": "ym2612"
    },
    {
      "channel": 3,
      "note": 84,
      "start": 71.3756,
      "duration": 0.0821,
      "velocity": 102,
      "chip": "ym2612"
    },
    {
      "channel": 4,
      "note": 41,
      "start": 71.3762,
      "duration": 0.082,
      "velocity": 116,
      "chip": "ym2612"
    },
    {
      "channel": 5,
      "note": 18,
      "start": 71.3774,
      "duration": 0.1319,
      "velocity": 124,
      "chip": "ym2612"
    },
    {
      "channel": 0,
      "note": 22,
      "start": 71.5067,
      "duration": 0.2637,
      "velocity": 119,
      "chip": "ym2612"
    },
    {
      "channel": 1,
      "note": 29,
      "start": 71.5073,
      "duration": 0.1312,
      "velocity": 124,
      "chip": "ym2612"
    },
    {
      "channel": 2,
      "note": 44,
      "start": 71.508,
      "duration": 0.1312,
      "velocity": 86,
      "chip": "ym2612"
    },
    {
      "channel": 3,
      "note": 84,
      "start": 71.5086,
      "duration": 0.0815,
      "velocity": 101,
      "chip": "ym2612"
    },
    {
      "channel": 4,
      "note": 41,
      "start": 71.5092,
      "duration": 0.0814,
      "velocity": 118,
      "chip": "ym2612"
    },
    {
      "channel": 5,
      "note": 18,
      "start": 71.5105,
      "duration": 0.1305,
      "velocity": 121,
      "chip": "ym2612"
    },
    {
      "channel": 1,
      "note": 29,
      "start": 71.639,
      "duration": 0.1327,
      "velocity": 120,
      "chip": "ym2612"
    },
    {
      "channel": 2,
      "note": 53,
      "start": 71.6396,
      "duration": 0.1327,
      "velocity": 87,
      "chip": "ym2612"
    },
    {
      "channel": 3,
      "note": 84,
      "start": 71.6403,
      "duration": 0.0823,
      "velocity": 102,
      "chip": "ym2612"
    },
    {
      "channel": 4,
      "note": 53,
      "start": 71.6409,
      "duration": 0.0822,
      "velocity": 118,
      "chip": "ym2612"
    },
    {
      "channel": 5,
      "note": 18,
      "start": 71.6421,
      "duration": 0.1321,
      "velocity": 118,
      "chip": "ym2612"
    },
    {
      "channel": 0,
      "note": 21,
      "start": 71.7715,
      "duration": 0.1314,
      "velocity": 112,
      "chip": "ym2612"
    },
    {
      "channel": 1,
      "note": 29,
      "start": 71.7722,
      "duration": 0.1319,
      "velocity": 93,
      "chip": "ym2612"
    },
    {
      "channel": 2,
      "note": 41,
      "start": 71.7728,
      "duration": 0.1319,
      "velocity": 88,
      "chip": "ym2612"
    },
    {
      "channel": 3,
      "note": 84,
      "start": 71.7735,
      "duration": 0.0816,
      "velocity": 102,
      "chip": "ym2612"
    },
    {
      "channel": 4,
      "note": 41,
      "start": 71.7741,
      "duration": 0.0814,
      "velocity": 120,
      "chip": "ym2612"
    },
    {
      "channel": 5,
      "note": 18,
      "start": 71.7753,
      "duration": 0.1314,
      "velocity": 114,
      "chip": "ym2612"
    },
    {
      "channel": 0,
      "note": 22,
      "start": 71.9039,
      "duration": 0.1313,
      "velocity": 119,
      "chip": "ym2612"
    },
    {
      "channel": 1,
      "note": 29,
      "start": 71.9046,
      "duration": 0.1319,
      "velocity": 13,
      "chip": "ym2612"
    },
    {
      "channel": 2,
      "note": 44,
      "start": 71.9053,
      "duration": 0.1319,
      "velocity": 89,
      "chip": "ym2612"
    },
    {
      "channel": 3,
      "note": 84,
      "start": 71.9059,
      "duration": 0.0815,
      "velocity": 101,
      "chip": "ym2612"
    },
    {
      "channel": 4,
      "note": 41,
      "start": 71.9066,
      "duration": 0.0814,
      "velocity": 121,
      "chip": "ym2612"
    },
    {
      "channel": 5,
      "note": 18,
      "start": 71.9078,
      "duration": 0.1313,
      "velocity": 110,
      "chip": "ym2612"
    },
    {
      "channel": 0,
      "note": 33,
      "start": 72.0363,
      "duration": 0.1314,
      "velocity": 127,
      "chip": "ym2612"
    },
    {
      "channel": 1,
      "note": 29,
      "start": 72.037,
      "duration": 0.1319,
      "velocity": 124,
      "chip": "ym2612"
    },
    {
      "channel": 2,
      "note": 51,
      "start": 72.0377,
      "duration": 0.1319,
      "velocity": 90,
      "chip": "ym2612"
    },
    {
      "channel": 3,
      "note": 84,
      "start": 72.0383,
      "duration": 0.0815,
      "velocity": 102,
      "chip": "ym2612"
    },
    {
      "channel": 4,
      "note": 53,
      "start": 72.0389,
      "duration": 0.0814,
      "velocity": 122,
      "chip": "ym2612"
    },
    {
      "channel": 5,
      "note": 23,
      "start": 72.0402,
      "duration": 0.1313,
      "velocity": 106,
      "chip": "ym2612"
    },
    {
      "channel": 0,
      "note": 21,
      "start": 72.1688,
      "duration": 0.1314,
      "velocity": 120,
      "chip": "ym2612"
    },
    {
      "channel": 1,
      "note": 27,
      "start": 72.1694,
      "duration": 0.1314,
      "velocity": 110,
      "chip": "ym2612"
    },
    {
      "channel": 2,
      "note": 51,
      "start": 72.17,
      "duration": 0.1314,
      "velocity": 89,
      "chip": "ym2612"
    },
    {
      "channel": 3,
      "note": 84,
      "start": 72.1707,
      "duration": 0.0815,
      "velocity": 101,
      "chip": "ym2612"
    },
    {
      "channel": 4,
      "note": 53,
      "start": 72.1714,
      "duration": 0.0814,
      "velocity": 122,
      "chip": "ym2612"
    },
    {
      "channel": 5,
      "note": 23,
      "start": 72.1726,
      "duration": 0.1307,
      "velocity": 110,
      "chip": "ym2612"
    },
    {
      "channel": 0,
      "note": 21,
      "start": 72.3006,
      "duration": 0.132,
      "velocity": 111,
      "chip": "ym2612"
    },
    {
      "channel": 1,
      "note": 27,
      "start": 72.3012,
      "duration": 0.1326,
      "velocity": 93,
      "chip": "ym2612"
    },
    {
      "channel": 2,
      "note": 39,
      "start": 72.3019,
      "duration": 0.1325,
      "velocity": 88,
      "chip": "ym2612"
    },
    {
      "channel": 3,
      "note": 84,
      "start": 72.3025,
      "duration": 0.0821,
      "velocity": 102,
      "chip": "ym2612"
    },
    {
      "channel": 4,
      "note": 41,
      "start": 72.3032,
      "duration": 0.082,
      "velocity": 120,
      "chip": "ym2612"
    },
    {
      "channel": 5,
      "note": 23,
      "start": 72.3044,
      "duration": 0.1318,
      "velocity": 114,
      "chip": "ym2612"
    },
    {
      "channel": 0,
      "note": 33,
      "start": 72.4336,
      "duration": 0.1314,
      "velocity": 127,
      "chip": "ym2612"
    },
    {
      "channel": 1,
      "note": 27,
      "start": 72.4342,
      "duration": 0.132,
      "velocity": 13,
      "chip": "ym2612"
    },
    {
      "channel": 2,
      "note": 39,
      "start": 72.4349,
      "duration": 0.132,
      "velocity": 87,
      "chip": "ym2612"
    },
    {
      "channel": 3,
      "note": 84,
      "start": 72.4355,
      "duration": 0.0816,
      "velocity": 102,
      "chip": "ym2612"
    },
    {
      "channel": 4,
      "note": 41,
      "start": 72.4361,
      "duration": 0.132,
      "velocity": 119,
      "chip": "ym2612"
    },
    {
      "channel": 5,
      "note": 23,
      "start": 72.4375,
      "duration": 0.1312,
      "velocity": 118,
      "chip": "ym2612"
    },
    {
      "channel": 0,
      "note": 22,
      "start": 72.566,
      "duration": 0.2637,
      "velocity": 127,
      "chip": "ym2612"
    },
    {
      "channel": 1,
      "note": 27,
      "start": 72.5667,
      "duration": 0.1312,
      "velocity": 124,
      "chip": "ym2612"
    },
    {
      "channel": 2,
      "note": 51,
      "start": 72.5673,
      "duration": 0.1312,
      "velocity": 86,
      "chip": "ym2612"
    },
    {
      "channel": 3,
      "note": 84,
      "start": 72.5679,
      "duration": 0.0816,
      "velocity": 101,
      "chip": "ym2612"
    },
    {
      "channel": 4,
      "note": 41,
      "start": 72.5686,
      "duration": 0.0814,
      "velocity": 118,
      "chip": "ym2612"
    },
    {
      "channel": 5,
      "note": 23,
      "start": 72.5698,
      "duration": 0.1305,
      "velocity": 121,
      "chip": "ym2612"
    },
    {
      "channel": 1,
      "note": 27,
      "start": 72.6983,
      "duration": 0.1327,
      "velocity": 110,
      "chip": "ym2612"
    },
    {
      "channel": 2,
      "note": 39,
      "start": 72.699,
      "duration": 0.1327,
      "velocity": 85,
      "chip": "ym2612"
    },
    {
      "channel": 3,
      "note": 84,
      "start": 72.6996,
      "duration": 0.0822,
      "velocity": 102,
      "chip": "ym2612"
    },
    {
      "channel": 4,
      "note": 53,
      "start": 72.7002,
      "duration": 0.1327,
      "velocity": 117,
      "chip": "ym2612"
    },
    {
      "channel": 5,
      "note": 23,
      "start": 72.7015,
      "duration": 0.132,
      "velocity": 124,
      "chip": "ym2612"
    },
    {
      "channel": 0,
      "note": 33,
      "start": 72.8309,
      "duration": 0.1314,
      "velocity": 127,
      "chip": "ym2612"
    },
    {
      "channel": 1,
      "note": 27,
      "start": 72.8315,
      "duration": 0.132,
      "velocity": 117,
      "chip": "ym2612"
    },
    {
      "channel": 2,
      "note": 42,
      "start": 72.8321,
      "duration": 0.132,
      "velocity": 84,
      "chip": "ym2612"
    },
    {
      "channel": 3,
      "note": 84,
      "start": 72.8328,
      "duration": 0.0815,
      "velocity": 102,
      "chip": "ym2612"
    },
    {
      "channel": 4,
      "note": 41,
      "start": 72.8334,
      "duration": 0.0814,
      "velocity": 116,
      "chip": "ym2612"
    },
    {
      "channel": 5,
      "note": 23,
      "start": 72.8347,
      "duration": 0.1313,
      "velocity": 127,
      "chip": "ym2612"
    },
    {
      "channel": 0,
      "note": 22,
      "start": 72.9633,
      "duration": 0.1313,
      "velocity": 127,
      "chip": "ym2612"
    },
    {
      "channel": 1,
      "note": 27,
      "start": 72.9639,
      "duration": 0.132,
      "velocity": 13,
      "chip": "ym2612"
    },
    {
      "channel": 2,
      "note": 39,
      "start": 72.9646,
      "duration": 0.132,
      "velocity": 83,
      "chip": "ym2612"
    },
    {
      "channel": 3,
      "note": 84,
      "start": 72.9652,
      "duration": 0.0816,
      "velocity": 101,
      "chip": "ym2612"
    },
    {
      "channel": 4,
      "note": 53,
      "start": 72.9659,
      "duration": 0.1319,
      "velocity": 115,
      "chip": "ym2612"
    },
    {
      "channel": 5,
      "note": 23,
      "start": 72.9671,
      "duration": 0.1312,
      "velocity": 124,
      "chip": "ym2612"
    },
    {
      "channel": 0,
      "note": 21,
      "start": 73.0957,
      "duration": 0.1314,
      "velocity": 112,
      "chip": "ym2612"
    },
    {
      "channel": 1,
      "note": 27,
      "start": 73.0963,
      "duration": 0.132,
      "velocity": 124,
      "chip": "ym2612"
    },
    {
      "channel": 2,
      "note": 51,
      "start": 73.0969,
      "duration": 0.132,
      "velocity": 82,
      "chip": "ym2612"
    },
    {
      "channel": 3,
      "note": 84,
      "start": 73.0976,
      "duration": 0.0816,
      "velocity": 102,
      "chip": "ym2612"
    },
    {
      "channel": 4,
      "note": 41,
      "start": 73.0982,
      "duration": 0.0814,
      "velocity": 114,
      "chip": "ym2612"
    },
    {
      "channel": 5,
      "note": 23,
      "start": 73.0995,
      "duration": 0.1313,
      "velocity": 121,
      "chip": "ym2612"
    },
    {
      "channel": 0,
      "note": 33,
      "start": 73.2281,
      "duration": 0.1314,
      "velocity": 119,
      "chip": "ym2612"
    },
    {
      "channel": 1,
      "note": 27,
      "start": 73.2288,
      "duration": 0.1319,
      "velocity": 115,
      "chip": "ym2612"
    },
    {
      "channel": 2,
      "note": 39,
      "start": 73.2294,
      "duration": 0.1319,
      "velocity": 83,
      "chip": "ym2612"
    },
    {
      "channel": 3,
      "note": 84,
      "start": 73.23,
      "duration": 0.0816,
      "velocity": 101,
      "chip": "ym2612"
    },
    {
      "channel": 4,
      "note": 41,
      "start": 73.2307,
      "duration": 0.0814,
      "velocity": 115,
      "chip": "ym2612"
    },
    {
      "channel": 5,
      "note": 23,
      "start": 73.2319,
      "duration": 0.1314,
      "velocity": 124,
      "chip": "ym2612"
    },
    {
      "channel": 0,
      "note": 21,
      "start": 73.3605,
      "duration": 0.1314,
      "velocity": 112,
      "chip": "ym2612"
    },
    {
      "channel": 1,
      "note": 27,
      "start": 73.3612,
      "duration": 0.1313,
      "velocity": 13,
      "chip": "ym2612"
    },
    {
      "channel": 2,
      "note": 39,
      "start": 73.3618,
      "duration": 0.1313,
      "velocity": 84,
      "chip": "ym2612"
    },
    {
      "channel": 3,
      "note": 84,
      "start": 73.3625,
      "duration": 0.0815,
      "velocity": 102,
      "chip": "ym2612"
    },
    {
      "channel": 4,
      "note": 41,
      "start": 73.3631,
      "duration": 0.0814,
      "velocity": 116,
      "chip": "ym2612"
    },
    {
      "channel": 5,
      "note": 23,
      "start": 73.3643,
      "duration": 0.1307,
      "velocity": 127,
      "chip": "ym2612"
    },
    {
      "channel": 0,
      "note": 21,
      "start": 73.4924,
      "duration": 0.132,
      "velocity": 112,
      "chip": "ym2612"
    },
    {
      "channel": 1,
      "note": 27,
      "start": 73.493,
      "duration": 0.1326,
      "velocity": 13,
      "chip": "ym2612"
    },
    {
      "channel": 2,
      "note": 51,
      "start": 73.4936,
      "duration": 0.1326,
      "velocity": 85,
      "chip": "ym2612"
    },
    {
      "channel": 3,
      "note": 84,
      "start": 73.4943,
      "duration": 0.0821,
      "velocity": 102,
      "chip": "ym2612"
    },
    {
      "channel": 4,
      "note": 53,
      "start": 73.4949,
      "duration": 0.082,
      "velocity": 117,
      "chip": "ym2612"
    },
    {
      "channel": 5,
      "note": 23,
      "start": 73.4962,
      "duration": 0.1319,
      "velocity": 124,
      "chip": "ym2612"
    },
    {
      "channel": 0,
      "note": 22,
      "start": 73.6254,
      "duration": 0.1314,
      "velocity": 119,
      "chip": "ym2612"
    },
    {
      "channel": 1,
      "note": 27,
      "start": 73.626,
      "duration": 0.132,
      "velocity": 124,
      "chip": "ym2612"
    },
    {
      "channel": 2,
      "note": 39,
      "start": 73.6266,
      "duration": 0.132,
      "velocity": 86,
      "chip": "ym2612"
    },
    {
      "channel": 3,
      "note": 84,
      "start": 73.6273,
      "duration": 0.0816,
      "velocity": 101,
      "chip": "ym2612"
    },
    {
      "channel": 4,
      "note": 53,
      "start": 73.6279,
      "duration": 0.0814,
      "velocity": 118,
      "chip": "ym2612"
    },
    {
      "channel": 5,
      "note": 23,
      "start": 73.6292,
      "duration": 0.1313,
      "velocity": 121,
      "chip": "ym2612"
    },
    {
      "channel": 0,
      "note": 30,
      "start": 73.7578,
      "duration": 0.1314,
      "velocity": 112,
      "chip": "ym2612"
    },
    {
      "channel": 1,
      "note": 27,
      "start": 73.7585,
      "duration": 0.1313,
      "velocity": 120,
      "chip": "ym2612"
    },
    {
      "channel": 2,
      "note": 51,
      "start": 73.7591,
      "duration": 0.1313,
      "velocity": 87,
      "chip": "ym2612"
    },
    {
      "channel": 3,
      "note": 84,
      "start": 73.7597,
      "duration": 0.0815,
      "velocity": 102,
      "chip": "ym2612"
    },
    {
      "channel": 4,
      "note": 41,
      "start": 73.7604,
      "duration": 0.0814,
      "velocity": 119,
      "chip": "ym2612"
    },
    {
      "channel": 5,
      "note": 23,
      "start": 73.7616,
      "duration": 0.1307,
      "velocity": 118,
      "chip": "ym2612"
    },
    {
      "channel": 0,
      "note": 21,
      "start": 73.8896,
      "duration": 0.1319,
      "velocity": 112,
      "chip": "ym2612"
    },
    {
      "channel": 1,
      "note": 27,
      "start": 73.8903,
      "duration": 0.1319,
      "velocity": 93,
      "chip": "ym2612"
    },
    {
      "channel": 2,
      "note": 42,
      "start": 73.8909,
      "duration": 0.1319,
      "velocity": 88,
      "chip": "ym2612"
    },
    {
      "channel": 3,
      "note": 84,
      "start": 73.8915,
      "duration": 0.0821,
      "velocity": 102,
      "chip": "ym2612"
    },
    {
      "channel": 4,
      "note": 41,
      "start": 73.8922,
      "duration": 0.082,
      "velocity": 120,
      "chip": "ym2612"
    },
    {
      "channel": 5,
      "note": 23,
      "start": 73.8934,
      "duration": 0.1313,
      "velocity": 114,
      "chip": "ym2612"
    },
    {
      "channel": 0,
      "note": 21,
      "start": 74.022,
      "duration": 0.132,
      "velocity": 112,
      "chip": "ym2612"
    },
    {
      "channel": 1,
      "note": 27,
      "start": 74.0227,
      "duration": 0.1326,
      "velocity": 13,
      "chip": "ym2612"
    },
    {
      "channel": 2,
      "note": 39,
      "start": 74.0234,
      "duration": 0.1326,
      "velocity": 89,
      "chip": "ym2612"
    },
    {
      "channel": 3,
      "note": 84,
      "start": 74.024,
      "duration": 0.0821,
      "velocity": 101,
      "chip": "ym2612"
    },
    {
      "channel": 4,
      "note": 53,
      "start": 74.0246,
      "duration": 0.082,
      "velocity": 121,
      "chip": "ym2612"
    },
    {
      "channel": 5,
      "note": 23,
      "start": 74.0258,
      "duration": 0.1319,
      "velocity": 110,
      "chip": "ym2612"
    },
    {
      "channel": 0,
      "note": 22,
      "start": 74.1551,
      "duration": 0.1313,
      "velocity": 127,
      "chip": "ym2612"
    },
    {
      "channel": 1,
      "note": 27,
      "start": 74.1557,
      "duration": 0.132,
      "velocity": 124,
      "chip": "ym2612"
    },
    {
      "channel": 2,
      "note": 49,
      "start": 74.1564,
      "duration": 0.0817,
      "velocity": 90,
      "chip": "ym2612"
    },
    {
      "channel": 3,
      "note": 84,
      "start": 74.157,
      "duration": 0.0816,
      "velocity": 102,
      "chip": "ym2612"
    },
    {
      "channel": 4,
      "note": 41,
      "start": 74.1576,
      "duration": 0.0815,
      "velocity": 121,
      "chip": "ym2612"
    },
    {
      "channel": 5,
      "note": 21,
      "start": 74.1589,
      "duration": 0.1313,
      "velocity": 106,
      "chip": "ym2612"
    },
    {
      "channel": 0,
      "note": 21,
      "start": 74.2875,
      "duration": 0.1313,
      "velocity": 120,
      "chip": "ym2612"
    },
    {
      "channel": 1,
      "note": 27,
      "start": 74.2882,
      "duration": 0.1313,
      "velocity": 110,
      "chip": "ym2612"
    },
    {
      "channel": 2,
      "note": 51,
      "start": 74.2888,
      "duration": 0.0817,
      "velocity": 89,
      "chip": "ym2612"
    },
    {
      "channel": 3,
      "note": 84,
      "start": 74.2894,
      "duration": 0.0816,
      "velocity": 101,
      "chip": "ym2612"
    },
    {
      "channel": 4,
      "note": 53,
      "start": 74.2901,
      "duration": 0.1314,
      "velocity": 121,
      "chip": "ym2612"
    },
    {
      "channel": 5,
      "note": 21,
      "start": 74.2913,
      "duration": 0.1308,
      "velocity": 110,
      "chip": "ym2612"
    },
    {
      "channel": 0,
      "note": 21,
      "start": 74.4193,
      "duration": 0.1319,
      "velocity": 111,
      "chip": "ym2612"
    },
    {
      "channel": 1,
      "note": 27,
      "start": 74.4199,
      "duration": 0.1326,
      "velocity": 93,
      "chip": "ym2612"
    },
    {
      "channel": 2,
      "note": 39,
      "start": 74.4206,
      "duration": 0.1325,
      "velocity": 88,
      "chip": "ym2612"
    },
    {
      "channel": 3,
      "note": 84,
      "start": 74.4213,
      "duration": 0.0821,
      "velocity": 102,
      "chip": "ym2612"
    },
    {
      "channel": 4,
      "note": 41,
      "start": 74.422,
      "duration": 0.082,
      "velocity": 120,
      "chip": "ym2612"
    },
    {
      "channel": 5,
      "note": 21,
      "start": 74.4232,
      "duration": 0.1319,
      "velocity": 114,
      "chip": "ym2612"
    },
    {
      "channel": 0,
      "note": 33,
      "start": 74.5523,
      "duration": 0.1314,
      "velocity": 127,
      "chip": "ym2612"
    },
    {
      "channel": 1,
      "note": 27,
      "start": 74.553,
      "duration": 0.1319,
      "velocity": 13,
      "chip": "ym2612"
    },
    {
      "channel": 2,
      "note": 39,
      "start": 74.5536,
      "duration": 0.1319,
      "velocity": 87,
      "chip": "ym2612"
    },
    {
      "channel": 3,
      "note": 84,
      "start": 74.5543,
      "duration": 0.0814,
      "velocity": 102,
      "chip": "ym2612"
    },
    {
      "channel": 4,
      "note": 41,
      "start": 74.555,
      "duration": 0.1319,
      "velocity": 119,
      "chip": "ym2612"
    },
    {
      "channel": 5,
      "note": 21,
      "start": 74.5562,
      "duration": 0.1313,
      "velocity": 118,
      "chip": "ym2612"
    },
    {
      "channel": 0,
      "note": 22,
      "start": 74.6847,
      "duration": 0.1314,
      "velocity": 127,
      "chip": "ym2612"
    },
    {
      "channel": 1,
      "note": 27,
      "start": 74.6854,
      "duration": 0.1319,
      "velocity": 124,
      "chip": "ym2612"
    },
    {
      "channel": 2,
      "note": 42,
      "start": 74.686,
      "duration": 0.1319,
      "velocity": 86,
      "chip": "ym2612"
    },
    {
      "channel": 3,
      "note": 84,
      "start": 74.6866,
      "duration": 0.0815,
      "velocity": 101,
      "chip": "ym2612"
    },
    {
      "channel": 4,
      "note": 41,
      "start": 74.6873,
      "duration": 0.0814,
      "velocity": 118,
      "chip": "ym2612"
    },
    {
      "channel": 5,
      "note": 21,
      "start": 74.6885,
      "duration": 0.1313,
      "velocity": 121,
      "chip": "ym2612"
    },
    {
      "channel": 0,
      "note": 32,
      "start": 74.8172,
      "duration": 0.1313,
      "velocity": 120,
      "chip": "ym2612"
    },
    {
      "channel": 1,
      "note": 27,
      "start": 74.8178,
      "duration": 0.132,
      "velocity": 110,
      "chip": "ym2612"
    },
    {
      "channel": 2,
      "note": 39,
      "start": 74.8185,
      "duration": 0.1319,
      "velocity": 85,
      "chip": "ym2612"
    },
    {
      "channel": 3,
      "note": 84,
      "start": 74.8191,
      "duration": 0.0815,
      "velocity": 102,
      "chip": "ym2612"
    },
    {
      "channel": 4,
      "note": 53,
      "start": 74.8197,
      "duration": 0.1319,
      "velocity": 117,
      "chip": "ym2612"
    },
    {
      "channel": 5,
      "note": 21,
      "start": 74.821,
      "duration": 0.1312,
      "velocity": 124,
      "chip": "ym2612"
    },
    {
      "channel": 0,
      "note": 33,
      "start": 74.9495,
      "duration": 0.1314,
      "velocity": 127,
      "chip": "ym2612"
    },
    {
      "channel": 1,
      "note": 27,
      "start": 74.9502,
      "duration": 0.132,
      "velocity": 117,
      "chip": "ym2612"
    },
    {
      "channel": 2,
      "note": 51,
      "start": 74.9508,
      "duration": 0.132,
      "velocity": 84,
      "chip": "ym2612"
    },
    {
      "channel": 3,
      "note": 84,
      "start": 74.9515,
      "duration": 0.0815,
      "velocity": 102,
      "chip": "ym2612"
    },
    {
      "channel": 4,
      "note": 53,
      "start": 74.9521,
      "duration": 0.0814,
      "velocity": 116,
      "chip": "ym2612"
    },
    {
      "channel": 5,
      "note": 21,
      "start": 74.9534,
      "duration": 0.1313,
      "velocity": 127,
      "chip": "ym2612"
    },
    {
      "channel": 0,
      "note": 21,
      "start": 75.082,
      "duration": 0.1314,
      "velocity": 120,
      "chip": "ym2612"
    },
    {
      "channel": 1,
      "note": 27,
      "start": 75.0826,
      "duration": 0.1314,
      "velocity": 13,
      "chip": "ym2612"
    },
    {
      "channel": 2,
      "note": 42,
      "start": 75.0833,
      "duration": 0.1314,
      "velocity": 83,
      "chip": "ym2612"
    },
    {
      "channel": 3,
      "note": 84,
      "start": 75.0839,
      "duration": 0.0816,
      "velocity": 101,
      "chip": "ym2612"
    },
    {
      "channel": 4,
      "note": 41,
      "start": 75.0845,
      "duration": 0.1314,
      "velocity": 115,
      "chip": "ym2612"
    },
    {
      "channel": 5,
      "note": 21,
      "start": 75.0858,
      "duration": 0.1308,
      "velocity": 124,
      "chip": "ym2612"
    },
    {
      "channel": 0,
      "note": 21,
      "start": 75.2138,
      "duration": 0.1319,
      "velocity": 112,
      "chip": "ym2612"
    },
    {
      "channel": 1,
      "note": 27,
      "start": 75.2144,
      "duration": 0.1326,
      "velocity": 124,
      "chip": "ym2612"
    },
    {
      "channel": 2,
      "note": 39,
      "start": 75.2151,
      "duration": 0.1325,
      "velocity": 82,
      "chip": "ym2612"
    },
    {
      "channel": 3,
      "note": 84,
      "start": 75.2158,
      "duration": 0.0821,
      "velocity": 102,
      "chip": "ym2612"
    },
    {
      "channel": 4,
      "note": 41,
      "start": 75.2164,
      "duration": 0.082,
      "velocity": 114,
      "chip": "ym2612"
    },
    {
      "channel": 5,
      "note": 21,
      "start": 75.2176,
      "duration": 0.1319,
      "velocity": 121,
      "chip": "ym2612"
    },
    {
      "channel": 0,
      "note": 33,
      "start": 75.3468,
      "duration": 0.1314,
      "velocity": 119,
      "chip": "ym2612"
    },
    {
      "channel": 1,
      "note": 27,
      "start": 75.3475,
      "duration": 0.1319,
      "velocity": 115,
      "chip": "ym2612"
    },
    {
      "channel": 2,
      "note": 39,
      "start": 75.3481,
      "duration": 0.1319,
      "velocity": 83,
      "chip": "ym2612"
    },
    {
      "channel": 3,
      "note": 84,
      "start": 75.3487,
      "duration": 0.0815,
      "velocity": 101,
      "chip": "ym2612"
    },
    {
      "channel": 4,
      "note": 53,
      "start": 75.3494,
      "duration": 0.0814,
      "velocity": 115,
      "chip": "ym2612"
    },
    {
      "channel": 5,
      "note": 21,
      "start": 75.3506,
      "duration": 0.1313,
      "velocity": 124,
      "chip": "ym2612"
    },
    {
      "channel": 0,
      "note": 21,
      "start": 75.4793,
      "duration": 0.1314,
      "velocity": 112,
      "chip": "ym2612"
    },
    {
      "channel": 1,
      "note": 27,
      "start": 75.4799,
      "duration": 0.1314,
      "velocity": 13,
      "chip": "ym2612"
    },
    {
      "channel": 2,
      "note": 42,
      "start": 75.4805,
      "duration": 0.1314,
      "velocity": 84,
      "chip": "ym2612"
    },
    {
      "channel": 3,
      "note": 84,
      "start": 75.4812,
      "duration": 0.0815,
      "velocity": 102,
      "chip": "ym2612"
    },
    {
      "channel": 4,
      "note": 41,
      "start": 75.4818,
      "duration": 0.0814,
      "velocity": 116,
      "chip": "ym2612"
    },
    {
      "channel": 5,
      "note": 21,
      "start": 75.483,
      "duration": 0.1308,
      "velocity": 127,
      "chip": "ym2612"
    },
    {
      "channel": 0,
      "note": 21,
      "start": 75.6111,
      "duration": 0.1319,
      "velocity": 112,
      "chip": "ym2612"
    },
    {
      "channel": 1,
      "note": 27,
      "start": 75.6117,
      "duration": 0.1326,
      "velocity": 13,
      "chip": "ym2612"
    },
    {
      "channel": 2,
      "note": 39,
      "start": 75.6124,
      "duration": 0.1325,
      "velocity": 85,
      "chip": "ym2612"
    },
    {
      "channel": 3,
      "note": 84,
      "start": 75.613,
      "duration": 0.0821,
      "velocity": 102,
      "chip": "ym2612"
    },
    {
      "channel": 4,
      "note": 41,
      "start": 75.6137,
      "duration": 0.0819,
      "velocity": 116,
      "chip": "ym2612"
    },
    {
      "channel": 5,
      "note": 21,
      "start": 75.6149,
      "duration": 0.132,
      "velocity": 124,
      "chip": "ym2612"
    },
    {
      "channel": 0,
      "note": 22,
      "start": 75.7441,
      "duration": 0.2637,
      "velocity": 119,
      "chip": "ym2612"
    },
    {
      "channel": 1,
      "note": 27,
      "start": 75.7447,
      "duration": 0.1312,
      "velocity": 124,
      "chip": "ym2612"
    },
    {
      "channel": 2,
      "note": 42,
      "start": 75.7454,
      "duration": 0.1312,
      "velocity": 86,
      "chip": "ym2612"
    },
    {
      "channel": 3,
      "note": 84,
      "start": 75.7461,
      "duration": 0.0815,
      "velocity": 101,
      "chip": "ym2612"
    },
    {
      "channel": 4,
      "note": 41,
      "start": 75.7467,
      "duration": 0.0814,
      "velocity": 118,
      "chip": "ym2612"
    },
    {
      "channel": 5,
      "note": 21,
      "start": 75.7479,
      "duration": 0.1305,
      "velocity": 121,
      "chip": "ym2612"
    },
    {
      "channel": 1,
      "note": 27,
      "start": 75.8764,
      "duration": 0.1327,
      "velocity": 120,
      "chip": "ym2612"
    },
    {
      "channel": 2,
      "note": 51,
      "start": 75.877,
      "duration": 0.1327,
      "velocity": 87,
      "chip": "ym2612"
    },
    {
      "channel": 3,
      "note": 84,
      "start": 75.8777,
      "duration": 0.0823,
      "velocity": 102,
      "chip": "ym2612"
    },
    {
      "channel": 4,
      "note": 53,
      "start": 75.8783,
      "duration": 0.0822,
      "velocity": 118,
      "chip": "ym2612"
    },
    {
      "channel": 5,
      "note": 21,
      "start": 75.8796,
      "duration": 0.1321,
      "velocity": 118,
      "chip": "ym2612"
    },
    {
      "channel": 0,
      "note": 21,
      "start": 76.0089,
      "duration": 0.1314,
      "velocity": 112,
      "chip": "ym2612"
    },
    {
      "channel": 1,
      "note": 27,
      "start": 76.0095,
      "duration": 0.132,
      "velocity": 93,
      "chip": "ym2612"
    },
    {
      "channel": 2,
      "note": 39,
      "start": 76.0102,
      "duration": 0.132,
      "velocity": 88,
      "chip": "ym2612"
    },
    {
      "channel": 3,
      "note": 84,
      "start": 76.0108,
      "duration": 0.0815,
      "velocity": 102,
      "chip": "ym2612"
    },
    {
      "channel": 4,
      "note": 41,
      "start": 76.0115,
      "duration": 0.0814,
      "velocity": 120,
      "chip": "ym2612"
    },
    {
      "channel": 5,
      "note": 21,
      "start": 76.0127,
      "duration": 0.1314,
      "velocity": 114,
      "chip": "ym2612"
    },
    {
      "channel": 0,
      "note": 22,
      "start": 76.1413,
      "duration": 0.1314,
      "velocity": 119,
      "chip": "ym2612"
    },
    {
      "channel": 1,
      "note": 27,
      "start": 76.142,
      "duration": 0.1319,
      "velocity": 13,
      "chip": "ym2612"
    },
    {
      "channel": 2,
      "note": 42,
      "start": 76.1427,
      "duration": 0.1319,
      "velocity": 89,
      "chip": "ym2612"
    },
    {
      "channel": 3,
      "note": 84,
      "start": 76.1433,
      "duration": 0.0815,
      "velocity": 101,
      "chip": "ym2612"
    },
    {
      "channel": 4,
      "note": 41,
      "start": 76.1439,
      "duration": 0.0814,
      "velocity": 121,
      "chip": "ym2612"
    },
    {
      "channel": 5,
      "note": 21,
      "start": 76.1452,
      "duration": 0.1313,
      "velocity": 110,
      "chip": "ym2612"
    },
    {
      "channel": 0,
      "note": 33,
      "start": 76.2737,
      "duration": 0.1314,
      "velocity": 127,
      "chip": "ym2612"
    },
    {
      "channel": 1,
      "note": 27,
      "start": 76.2744,
      "duration": 0.132,
      "velocity": 124,
      "chip": "ym2612"
    },
    {
      "channel": 2,
      "note": 49,
      "start": 76.2751,
      "duration": 0.132,
      "velocity": 90,
      "chip": "ym2612"
    },
    {
      "channel": 3,
      "note": 84,
      "start": 76.2757,
      "duration": 0.0816,
      "velocity": 102,
      "chip": "ym2612"
    },
    {
      "channel": 4,
      "note": 53,
      "start": 76.2763,
      "duration": 0.0814,
      "velocity": 122,
      "chip": "ym2612"
    },
    {
      "channel": 5,
      "note": 18,
      "start": 76.2776,
      "duration": 0.1314,
      "velocity": 106,
      "chip": "ym2612"
    },
    {
      "channel": 0,
      "note": 21,
      "start": 76.4062,
      "duration": 0.1314,
      "velocity": 120,
      "chip": "ym2612"
    },
    {
      "channel": 1,
      "note": 29,
      "start": 76.4068,
      "duration": 0.1314,
      "velocity": 110,
      "chip": "ym2612"
    },
    {
      "channel": 2,
      "note": 53,
      "start": 76.4074,
      "duration": 0.1314,
      "velocity": 89,
      "chip": "ym2612"
    },
    {
      "channel": 3,
      "note": 84,
      "start": 76.4081,
      "duration": 0.0816,
      "velocity": 101,
      "chip": "ym2612"
    },
    {
      "channel": 4,
      "note": 53,
      "start": 76.4088,
      "duration": 0.0814,
      "velocity": 122,
      "chip": "ym2612"
    },
    {
      "channel": 5,
      "note": 18,
      "start": 76.41,
      "duration": 0.1308,
      "velocity": 110,
      "chip": "ym2612"
    },
    {
      "channel": 0,
      "note": 21,
      "start": 76.538,
      "duration": 0.1319,
      "velocity": 111,
      "chip": "ym2612"
    },
    {
      "channel": 1,
      "note": 29,
      "start": 76.5387,
      "duration": 0.1326,
      "velocity": 93,
      "chip": "ym2612"
    },
    {
      "channel": 2,
      "note": 41,
      "start": 76.5394,
      "duration": 0.1325,
      "velocity": 88,
      "chip": "ym2612"
    },
    {
      "channel": 3,
      "note": 84,
      "start": 76.54,
      "duration": 0.0821,
      "velocity": 102,
      "chip": "ym2612"
    },
    {
      "channel": 4,
      "note": 41,
      "start": 76.5407,
      "duration": 0.082,
      "velocity": 120,
      "chip": "ym2612"
    },
    {
      "channel": 5,
      "note": 18,
      "start": 76.5419,
      "duration": 0.1319,
      "velocity": 114,
      "chip": "ym2612"
    },
    {
      "channel": 0,
      "note": 33,
      "start": 76.6711,
      "duration": 0.1313,
      "velocity": 127,
      "chip": "ym2612"
    },
    {
      "channel": 1,
      "note": 29,
      "start": 76.6717,
      "duration": 0.1319,
      "velocity": 13,
      "chip": "ym2612"
    },
    {
      "channel": 2,
      "note": 41,
      "start": 76.6724,
      "duration": 0.132,
      "velocity": 87,
      "chip": "ym2612"
    },
    {
      "channel": 3,
      "note": 84,
      "start": 76.673,
      "duration": 0.0815,
      "velocity": 102,
      "chip": "ym2612"
    },
    {
      "channel": 4,
      "note": 41,
      "start": 76.6737,
      "duration": 0.1319,
      "velocity": 119,
      "chip": "ym2612"
    },
    {
      "channel": 5,
      "note": 18,
      "start": 76.6749,
      "duration": 0.1314,
      "velocity": 118,
      "chip": "ym2612"
    },
    {
      "channel": 0,
      "note": 22,
      "start": 76.8034,
      "duration": 0.2638,
      "velocity": 127,
      "chip": "ym2612"
    },
    {
      "channel": 1,
      "note": 29,
      "start": 76.8041,
      "duration": 0.1312,
      "velocity": 124,
      "chip": "ym2612"
    },
    {
      "channel": 2,
      "note": 53,
      "start": 76.8048,
      "duration": 0.1312,
      "velocity": 86,
      "chip": "ym2612"
    },
    {
      "channel": 3,
      "note": 84,
      "start": 76.8054,
      "duration": 0.0815,
      "velocity": 101,
      "chip": "ym2612"
    },
    {
      "channel": 4,
      "note": 41,
      "start": 76.8061,
      "duration": 0.0814,
      "velocity": 118,
      "chip": "ym2612"
    },
    {
      "channel": 5,
      "note": 18,
      "start": 76.8073,
      "duration": 0.1305,
      "velocity": 121,
      "chip": "ym2612"
    },
    {
      "channel": 1,
      "note": 29,
      "start": 76.9358,
      "duration": 0.1327,
      "velocity": 110,
      "chip": "ym2612"
    },
    {
      "channel": 2,
      "note": 41,
      "start": 76.9364,
      "duration": 0.1327,
      "velocity": 85,
      "chip": "ym2612"
    },
    {
      "channel": 3,
      "note": 84,
      "start": 76.937,
      "duration": 0.0823,
      "velocity": 102,
      "chip": "ym2612"
    },
    {
      "channel": 4,
      "note": 53,
      "start": 76.9377,
      "duration": 0.1326,
      "velocity": 117,
      "chip": "ym2612"
    },
    {
      "channel": 5,
      "note": 18,
      "start": 76.9389,
      "duration": 0.1321,
      "velocity": 124,
      "chip": "ym2612"
    },
    {
      "channel": 0,
      "note": 33,
      "start": 77.0683,
      "duration": 0.1314,
      "velocity": 127,
      "chip": "ym2612"
    },
    {
      "channel": 1,
      "note": 29,
      "start": 77.069,
      "duration": 0.1319,
      "velocity": 117,
      "chip": "ym2612"
    },
    {
      "channel": 2,
      "note": 44,
      "start": 77.0696,
      "duration": 0.1319,
      "velocity": 84,
      "chip": "ym2612"
    },
    {
      "channel": 3,
      "note": 84,
      "start": 77.0702,
      "duration": 0.0816,
      "velocity": 102,
      "chip": "ym2612"
    },
    {
      "channel": 4,
      "note": 41,
      "start": 77.0709,
      "duration": 0.0814,
      "velocity": 116,
      "chip": "ym2612"
    },
    {
      "channel": 5,
      "note": 18,
      "start": 77.0721,
      "duration": 0.1313,
      "velocity": 127,
      "chip": "ym2612"
    },
    {
      "channel": 0,
      "note": 22,
      "start": 77.2007,
      "duration": 0.1314,
      "velocity": 127,
      "chip": "ym2612"
    },
    {
      "channel": 1,
      "note": 29,
      "start": 77.2013,
      "duration": 0.1319,
      "velocity": 13,
      "chip": "ym2612"
    },
    {
      "channel": 2,
      "note": 41,
      "start": 77.202,
      "duration": 0.1319,
      "velocity": 83,
      "chip": "ym2612"
    },
    {
      "channel": 3,
      "note": 84,
      "start": 77.2027,
      "duration": 0.0815,
      "velocity": 101,
      "chip": "ym2612"
    },
    {
      "channel": 4,
      "note": 53,
      "start": 77.2033,
      "duration": 0.1319,
      "velocity": 115,
      "chip": "ym2612"
    },
    {
      "channel": 5,
      "note": 18,
      "start": 77.2046,
      "duration": 0.1312,
      "velocity": 124,
      "chip": "ym2612"
    },
    {
      "channel": 0,
      "note": 21,
      "start": 77.3332,
      "duration": 0.1314,
      "velocity": 112,
      "chip": "ym2612"
    },
    {
      "channel": 1,
      "note": 29,
      "start": 77.3338,
      "duration": 0.1319,
      "velocity": 124,
      "chip": "ym2612"
    },
    {
      "channel": 2,
      "note": 53,
      "start": 77.3344,
      "duration": 0.1319,
      "velocity": 82,
      "chip": "ym2612"
    },
    {
      "channel": 3,
      "note": 84,
      "start": 77.3351,
      "duration": 0.0815,
      "velocity": 102,
      "chip": "ym2612"
    },
    {
      "channel": 4,
      "note": 41,
      "start": 77.3357,
      "duration": 0.0814,
      "velocity": 114,
      "chip": "ym2612"
    },
    {
      "channel": 5,
      "note": 18,
      "start": 77.3369,
      "duration": 0.1314,
      "velocity": 121,
      "chip": "ym2612"
    },
    {
      "channel": 0,
      "note": 33,
      "start": 77.4655,
      "duration": 0.1314,
      "velocity": 119,
      "chip": "ym2612"
    },
    {
      "channel": 1,
      "note": 29,
      "start": 77.4662,
      "duration": 0.132,
      "velocity": 115,
      "chip": "ym2612"
    },
    {
      "channel": 2,
      "note": 41,
      "start": 77.4668,
      "duration": 0.132,
      "velocity": 83,
      "chip": "ym2612"
    },
    {
      "channel": 3,
      "note": 84,
      "start": 77.4675,
      "duration": 0.0816,
      "velocity": 101,
      "chip": "ym2612"
    },
    {
      "channel": 4,
      "note": 41,
      "start": 77.4681,
      "duration": 0.0814,
      "velocity": 115,
      "chip": "ym2612"
    },
    {
      "channel": 5,
      "note": 18,
      "start": 77.4693,
      "duration": 0.1313,
      "velocity": 124,
      "chip": "ym2612"
    },
    {
      "channel": 0,
      "note": 21,
      "start": 77.598,
      "duration": 0.1314,
      "velocity": 112,
      "chip": "ym2612"
    },
    {
      "channel": 1,
      "note": 29,
      "start": 77.5986,
      "duration": 0.1314,
      "velocity": 13,
      "chip": "ym2612"
    },
    {
      "channel": 2,
      "note": 41,
      "start": 77.5992,
      "duration": 0.1314,
      "velocity": 84,
      "chip": "ym2612"
    },
    {
      "channel": 3,
      "note": 84,
      "start": 77.5999,
      "duration": 0.0816,
      "velocity": 102,
      "chip": "ym2612"
    },
    {
      "channel": 4,
      "note": 41,
      "start": 77.6005,
      "duration": 0.0814,
      "velocity": 116,
      "chip": "ym2612"
    },
    {
      "channel": 5,
      "note": 18,
      "start": 77.6018,
      "duration": 0.1307,
      "velocity": 127,
      "chip": "ym2612"
    },
    {
      "channel": 0,
      "note": 21,
      "start": 77.7298,
      "duration": 0.132,
      "velocity": 112,
      "chip": "ym2612"
    },
    {
      "channel": 1,
      "note": 29,
      "start": 77.7305,
      "duration": 0.1325,
      "velocity": 13,
      "chip": "ym2612"
    },
    {
      "channel": 2,
      "note": 53,
      "start": 77.7311,
      "duration": 0.1325,
      "velocity": 85,
      "chip": "ym2612"
    },
    {
      "channel": 3,
      "note": 84,
      "start": 77.7317,
      "duration": 0.0821,
      "velocity": 102,
      "chip": "ym2612"
    },
    {
      "channel": 4,
      "note": 53,
      "start": 77.7324,
      "duration": 0.082,
      "velocity": 117,
      "chip": "ym2612"
    },
    {
      "channel": 5,
      "note": 18,
      "start": 77.7336,
      "duration": 0.1319,
      "velocity": 124,
      "chip": "ym2612"
    },
    {
      "channel": 0,
      "note": 22,
      "start": 77.8629,
      "duration": 0.1313,
      "velocity": 119,
      "chip": "ym2612"
    },
    {
      "channel": 1,
      "note": 29,
      "start": 77.8635,
      "duration": 0.1319,
      "velocity": 124,
      "chip": "ym2612"
    },
    {
      "channel": 2,
      "note": 41,
      "start": 77.8641,
      "duration": 0.1319,
      "velocity": 86,
      "chip": "ym2612"
    },
    {
      "channel": 3,
      "note": 84,
      "start": 77.8648,
      "duration": 0.0815,
      "velocity": 101,
      "chip": "ym2612"
    },
    {
      "channel": 4,
      "note": 53,
      "start": 77.8654,
      "duration": 0.0814,
      "velocity": 118,
      "chip": "ym2612"
    },
    {
      "channel": 5,
      "note": 18,
      "start": 77.8667,
      "duration": 0.1312,
      "velocity": 121,
      "chip": "ym2612"
    },
    {
      "channel": 0,
      "note": 30,
      "start": 77.9952,
      "duration": 0.1314,
      "velocity": 112,
      "chip": "ym2612"
    },
    {
      "channel": 1,
      "note": 29,
      "start": 77.9959,
      "duration": 0.1314,
      "velocity": 120,
      "chip": "ym2612"
    },
    {
      "channel": 2,
      "note": 53,
      "start": 77.9965,
      "duration": 0.1314,
      "velocity": 87,
      "chip": "ym2612"
    },
    {
      "channel": 3,
      "note": 84,
      "start": 77.9971,
      "duration": 0.0815,
      "velocity": 102,
      "chip": "ym2612"
    },
    {
      "channel": 4,
      "note": 41,
      "start": 77.9978,
      "duration": 0.0814,
      "velocity": 119,
      "chip": "ym2612"
    },
    {
      "channel": 5,
      "note": 18,
      "start": 77.999,
      "duration": 0.1307,
      "velocity": 118,
      "chip": "ym2612"
    },
    {
      "channel": 0,
      "note": 21,
      "start": 78.127,
      "duration": 0.132,
      "velocity": 112,
      "chip": "ym2612"
    },
    {
      "channel": 1,
      "note": 29,
      "start": 78.1277,
      "duration": 0.132,
      "velocity": 93,
      "chip": "ym2612"
    },
    {
      "channel": 2,
      "note": 44,
      "start": 78.1284,
      "duration": 0.1319,
      "velocity": 88,
      "chip": "ym2612"
    },
    {
      "channel": 3,
      "note": 84,
      "start": 78.129,
      "duration": 0.0821,
      "velocity": 102,
      "chip": "ym2612"
    },
    {
      "channel": 4,
      "note": 41,
      "start": 78.1296,
      "duration": 0.082,
      "velocity": 120,
      "chip": "ym2612"
    },
    {
      "channel": 5,
      "note": 18,
      "start": 78.1309,
      "duration": 0.1313,
      "velocity": 114,
      "chip": "ym2612"
    },
    {
      "channel": 0,
      "note": 21,
      "start": 78.2595,
      "duration": 0.1319,
      "velocity": 112,
      "chip": "ym2612"
    },
    {
      "channel": 1,
      "note": 29,
      "start": 78.2601,
      "duration": 0.1325,
      "velocity": 13,
      "chip": "ym2612"
    },
    {
      "channel": 2,
      "note": 41,
      "start": 78.2607,
      "duration": 0.1325,
      "velocity": 89,
      "chip": "ym2612"
    },
    {
      "channel": 3,
      "note": 84,
      "start": 78.2614,
      "duration": 0.0821,
      "velocity": 101,
      "chip": "ym2612"
    },
    {
      "channel": 4,
      "note": 53,
      "start": 78.262,
      "duration": 0.082,
      "velocity": 121,
      "chip": "ym2612"
    },
    {
      "channel": 5,
      "note": 18,
      "start": 78.2633,
      "duration": 0.1319,
      "velocity": 110,
      "chip": "ym2612"
    },
    {
      "channel": 0,
      "note": 22,
      "start": 78.3925,
      "duration": 0.1314,
      "velocity": 127,
      "chip": "ym2612"
    },
    {
      "channel": 1,
      "note": 29,
      "start": 78.3931,
      "duration": 0.1319,
      "velocity": 124,
      "chip": "ym2612"
    },
    {
      "channel": 2,
      "note": 51,
      "start": 78.3938,
      "duration": 0.0817,
      "velocity": 90,
      "chip": "ym2612"
    },
    {
      "channel": 3,
      "note": 84,
      "start": 78.3944,
      "duration": 0.0816,
      "velocity": 102,
      "chip": "ym2612"
    },
    {
      "channel": 4,
      "note": 41,
      "start": 78.395,
      "duration": 0.0815,
      "velocity": 121,
      "chip": "ym2612"
    },
    {
      "channel": 5,
      "note": 18,
      "start": 78.3962,
      "duration": 0.1314,
      "velocity": 106,
      "chip": "ym2612"
    },
    {
      "channel": 0,
      "note": 21,
      "start": 78.5249,
      "duration": 0.1314,
      "velocity": 120,
      "chip": "ym2612"
    },
    {
      "channel": 1,
      "note": 29,
      "start": 78.5256,
      "duration": 0.1313,
      "velocity": 110,
      "chip": "ym2612"
    },
    {
      "channel": 2,
      "note": 53,
      "start": 78.5262,
      "duration": 0.0817,
      "velocity": 89,
      "chip": "ym2612"
    },
    {
      "channel": 3,
      "note": 84,
      "start": 78.5268,
      "duration": 0.0815,
      "velocity": 101,
      "chip": "ym2612"
    },
    {
      "channel": 4,
      "note": 53,
      "start": 78.5275,
      "duration": 0.1314,
      "velocity": 121,
      "chip": "ym2612"
    },
    {
      "channel": 5,
      "note": 18,
      "start": 78.5287,
      "duration": 0.1307,
      "velocity": 110,
      "chip": "ym2612"
    },
    {
      "channel": 0,
      "note": 21,
      "start": 78.6567,
      "duration": 0.132,
      "velocity": 111,
      "chip": "ym2612"
    },
    {
      "channel": 1,
      "note": 29,
      "start": 78.6574,
      "duration": 0.1325,
      "velocity": 93,
      "chip": "ym2612"
    },
    {
      "channel": 2,
      "note": 41,
      "start": 78.658,
      "duration": 0.1325,
      "velocity": 88,
      "chip": "ym2612"
    },
    {
      "channel": 3,
      "note": 84,
      "start": 78.6587,
      "duration": 0.0821,
      "velocity": 102,
      "chip": "ym2612"
    },
    {
      "channel": 4,
      "note": 41,
      "start": 78.6593,
      "duration": 0.082,
      "velocity": 120,
      "chip": "ym2612"
    },
    {
      "channel": 5,
      "note": 18,
      "start": 78.6606,
      "duration": 0.1319,
      "velocity": 114,
      "chip": "ym2612"
    },
    {
      "channel": 0,
      "note": 33,
      "start": 78.7898,
      "duration": 0.1314,
      "velocity": 127,
      "chip": "ym2612"
    },
    {
      "channel": 1,
      "note": 29,
      "start": 78.7904,
      "duration": 0.132,
      "velocity": 13,
      "chip": "ym2612"
    },
    {
      "channel": 2,
      "note": 41,
      "start": 78.791,
      "duration": 0.132,
      "velocity": 87,
      "chip": "ym2612"
    },
    {
      "channel": 3,
      "note": 84,
      "start": 78.7917,
      "duration": 0.0816,
      "velocity": 102,
      "chip": "ym2612"
    },
    {
      "channel": 4,
      "note": 41,
      "start": 78.7923,
      "duration": 0.132,
      "velocity": 119,
      "chip": "ym2612"
    },
    {
      "channel": 5,
      "note": 18,
      "start": 78.7935,
      "duration": 0.1314,
      "velocity": 118,
      "chip": "ym2612"
    },
    {
      "channel": 0,
      "note": 22,
      "start": 78.9222,
      "duration": 0.1313,
      "velocity": 127,
      "chip": "ym2612"
    },
    {
      "channel": 1,
      "note": 29,
      "start": 78.9228,
      "duration": 0.1319,
      "velocity": 124,
      "chip": "ym2612"
    },
    {
      "channel": 2,
      "note": 44,
      "start": 78.9235,
      "duration": 0.1319,
      "velocity": 86,
      "chip": "ym2612"
    },
    {
      "channel": 3,
      "note": 84,
      "start": 78.9241,
      "duration": 0.0816,
      "velocity": 101,
      "chip": "ym2612"
    },
    {
      "channel": 4,
      "note": 41,
      "start": 78.9247,
      "duration": 0.0814,
      "velocity": 118,
      "chip": "ym2612"
    },
    {
      "channel": 5,
      "note": 18,
      "start": 78.926,
      "duration": 0.1313,
      "velocity": 121,
      "chip": "ym2612"
    },
    {
      "channel": 0,
      "note": 32,
      "start": 79.0546,
      "duration": 0.1313,
      "velocity": 120,
      "chip": "ym2612"
    },
    {
      "channel": 1,
      "note": 29,
      "start": 79.0553,
      "duration": 0.1319,
      "velocity": 110,
      "chip": "ym2612"
    },
    {
      "channel": 2,
      "note": 41,
      "start": 79.0559,
      "duration": 0.1319,
      "velocity": 85,
      "chip": "ym2612"
    },
    {
      "channel": 3,
      "note": 84,
      "start": 79.0566,
      "duration": 0.0815,
      "velocity": 102,
      "chip": "ym2612"
    },
    {
      "channel": 4,
      "note": 53,
      "start": 79.0572,
      "duration": 0.1319,
      "velocity": 117,
      "chip": "ym2612"
    },
    {
      "channel": 5,
      "note": 18,
      "start": 79.0584,
      "duration": 0.1314,
      "velocity": 124,
      "chip": "ym2612"
    },
    {
      "channel": 0,
      "note": 33,
      "start": 79.187,
      "duration": 0.1314,
      "velocity": 127,
      "chip": "ym2612"
    },
    {
      "channel": 1,
      "note": 29,
      "start": 79.1877,
      "duration": 0.1319,
      "velocity": 117,
      "chip": "ym2612"
    },
    {
      "channel": 2,
      "note": 53,
      "start": 79.1884,
      "duration": 0.1319,
      "velocity": 84,
      "chip": "ym2612"
    },
    {
      "channel": 3,
      "note": 84,
      "start": 79.189,
      "duration": 0.0815,
      "velocity": 102,
      "chip": "ym2612"
    },
    {
      "channel": 4,
      "note": 53,
      "start": 79.1896,
      "duration": 0.0814,
      "velocity": 116,
      "chip": "ym2612"
    },
    {
      "channel": 5,
      "note": 18,
      "start": 79.1908,
      "duration": 0.1314,
      "velocity": 127,
      "chip": "ym2612"
    },
    {
      "channel": 0,
      "note": 21,
      "start": 79.3194,
      "duration": 0.1314,
      "velocity": 120,
      "chip": "ym2612"
    },
    {
      "channel": 1,
      "note": 29,
      "start": 79.3201,
      "duration": 0.1313,
      "velocity": 13,
      "chip": "ym2612"
    },
    {
      "channel": 2,
      "note": 44,
      "start": 79.3207,
      "duration": 0.1313,
      "velocity": 83,
      "chip": "ym2612"
    },
    {
      "channel": 3,
      "note": 84,
      "start": 79.3214,
      "duration": 0.0814,
      "velocity": 101,
      "chip": "ym2612"
    },
    {
      "channel": 4,
      "note": 41,
      "start": 79.3221,
      "duration": 0.1313,
      "velocity": 115,
      "chip": "ym2612"
    },
    {
      "channel": 5,
      "note": 18,
      "start": 79.3233,
      "duration": 0.1307,
      "velocity": 124,
      "chip": "ym2612"
    },
    {
      "channel": 0,
      "note": 21,
      "start": 79.4513,
      "duration": 0.1319,
      "velocity": 112,
      "chip": "ym2612"
    },
    {
      "channel": 1,
      "note": 29,
      "start": 79.4519,
      "duration": 0.1325,
      "velocity": 124,
      "chip": "ym2612"
    },
    {
      "channel": 2,
      "note": 41,
      "start": 79.4525,
      "duration": 0.1325,
      "velocity": 82,
      "chip": "ym2612"
    },
    {
      "channel": 3,
      "note": 84,
      "start": 79.4532,
      "duration": 0.0821,
      "velocity": 102,
      "chip": "ym2612"
    },
    {
      "channel": 4,
      "note": 41,
      "start": 79.4539,
      "duration": 0.0819,
      "velocity": 114,
      "chip": "ym2612"
    },
    {
      "channel": 5,
      "note": 18,
      "start": 79.4551,
      "duration": 0.1319,
      "velocity": 121,
      "chip": "ym2612"
    },
    {
      "channel": 0,
      "note": 33,
      "start": 79.5843,
      "duration": 0.1314,
      "velocity": 119,
      "chip": "ym2612"
    },
    {
      "channel": 1,
      "note": 29,
      "start": 79.5849,
      "duration": 0.1319,
      "velocity": 115,
      "chip": "ym2612"
    },
    {
      "channel": 2,
      "note": 41,
      "start": 79.5856,
      "duration": 0.1319,
      "velocity": 83,
      "chip": "ym2612"
    },
    {
      "channel": 3,
      "note": 84,
      "start": 79.5862,
      "duration": 0.0816,
      "velocity": 101,
      "chip": "ym2612"
    },
    {
      "channel": 4,
      "note": 53,
      "start": 79.5868,
      "duration": 0.0814,
      "velocity": 115,
      "chip": "ym2612"
    },
    {
      "channel": 5,
      "note": 18,
      "start": 79.5881,
      "duration": 0.1313,
      "velocity": 124,
      "chip": "ym2612"
    },
    {
      "channel": 0,
      "note": 21,
      "start": 79.7167,
      "duration": 0.1314,
      "velocity": 112,
      "chip": "ym2612"
    },
    {
      "channel": 1,
      "note": 29,
      "start": 79.7174,
      "duration": 0.1313,
      "velocity": 13,
      "chip": "ym2612"
    },
    {
      "channel": 2,
      "note": 44,
      "start": 79.718,
      "duration": 0.1313,
      "velocity": 84,
      "chip": "ym2612"
    },
    {
      "channel": 3,
      "note": 84,
      "start": 79.7186,
      "duration": 0.0815,
      "velocity": 102,
      "chip": "ym2612"
    },
    {
      "channel": 4,
      "note": 41,
      "start": 79.7193,
      "duration": 0.0814,
      "velocity": 116,
      "chip": "ym2612"
    },
    {
      "channel": 5,
      "note": 18,
      "start": 79.7205,
      "duration": 0.1307,
      "velocity": 127,
      "chip": "ym2612"
    },
    {
      "channel": 0,
      "note": 21,
      "start": 79.8485,
      "duration": 0.132,
      "velocity": 112,
      "chip": "ym2612"
    },
    {
      "channel": 1,
      "note": 29,
      "start": 79.8492,
      "duration": 0.1325,
      "velocity": 13,
      "chip": "ym2612"
    },
    {
      "channel": 2,
      "note": 41,
      "start": 79.8498,
      "duration": 0.1325,
      "velocity": 85,
      "chip": "ym2612"
    },
    {
      "channel": 3,
      "note": 84,
      "start": 79.8505,
      "duration": 0.0821,
      "velocity": 102,
      "chip": "ym2612"
    },
    {
      "channel": 4,
      "note": 41,
      "start": 79.8511,
      "duration": 0.082,
      "velocity": 116,
      "chip": "ym2612"
    },
    {
      "channel": 5,
      "note": 18,
      "start": 79.8524,
      "duration": 0.1319,
      "velocity": 124,
      "chip": "ym2612"
    },
    {
      "channel": 0,
      "note": 22,
      "start": 79.9815,
      "duration": 0.2637,
      "velocity": 119,
      "chip": "ym2612"
    },
    {
      "channel": 1,
      "note": 29,
      "start": 79.9822,
      "duration": 0.1312,
      "velocity": 124,
      "chip": "ym2612"
    },
    {
      "channel": 2,
      "note": 44,
      "start": 79.9828,
      "duration": 0.1312,
      "velocity": 86,
      "chip": "ym2612"
    },
    {
      "channel": 3,
      "note": 84,
      "start": 79.9835,
      "duration": 0.0815,
      "velocity": 101,
      "chip": "ym2612"
    },
    {
      "channel": 4,
      "note": 41,
      "start": 79.9841,
      "duration": 0.0814,
      "velocity": 118,
      "chip": "ym2612"
    },
    {
      "channel": 5,
      "note": 18,
      "start": 79.9854,
      "duration": 0.1305,
      "velocity": 121,
      "chip": "ym2612"
    },
    {
      "channel": 1,
      "note": 29,
      "start": 80.1139,
      "duration": 0.1326,
      "velocity": 120,
      "chip": "ym2612"
    },
    {
      "channel": 2,
      "note": 53,
      "start": 80.1145,
      "duration": 0.1326,
      "velocity": 87,
      "chip": "ym2612"
    },
    {
      "channel": 3,
      "note": 84,
      "start": 80.1151,
      "duration": 0.0822,
      "velocity": 102,
      "chip": "ym2612"
    },
    {
      "channel": 4,
      "note": 53,
      "start": 80.1158,
      "duration": 0.0821,
      "velocity": 118,
      "chip": "ym2612"
    },
    {
      "channel": 5,
      "note": 18,
      "start": 80.117,
      "duration": 0.1321,
      "velocity": 118,
      "chip": "ym2612"
    },
    {
      "channel": 0,
      "note": 21,
      "start": 80.2464,
      "duration": 0.1314,
      "velocity": 112,
      "chip": "ym2612"
    },
    {
      "channel": 1,
      "note": 29,
      "start": 80.247,
      "duration": 0.132,
      "velocity": 93,
      "chip": "ym2612"
    },
    {
      "channel": 2,
      "note": 41,
      "start": 80.2476,
      "duration": 0.132,
      "velocity": 88,
      "chip": "ym2612"
    },
    {
      "channel": 3,
      "note": 84,
      "start": 80.2483,
      "duration": 0.0816,
      "velocity": 102,
      "chip": "ym2612"
    },
    {
      "channel": 4,
      "note": 41,
      "start": 80.2489,
      "duration": 0.0814,
      "velocity": 120,
      "chip": "ym2612"
    },
    {
      "channel": 5,
      "note": 18,
      "start": 80.2502,
      "duration": 0.1313,
      "velocity": 114,
      "chip": "ym2612"
    },
    {
      "channel": 0,
      "note": 22,
      "start": 80.3788,
      "duration": 0.1313,
      "velocity": 119,
      "chip": "ym2612"
    },
    {
      "channel": 1,
      "note": 29,
      "start": 80.3795,
      "duration": 0.1319,
      "velocity": 13,
      "chip": "ym2612"
    },
    {
      "channel": 2,
      "note": 44,
      "start": 80.3801,
      "duration": 0.1325,
      "velocity": 89,
      "chip": "ym2612"
    },
    {
      "channel": 3,
      "note": 84,
      "start": 80.3807,
      "duration": 0.0815,
      "velocity": 101,
      "chip": "ym2612"
    },
    {
      "channel": 4,
      "note": 41,
      "start": 80.3814,
      "duration": 0.0814,
      "velocity": 121,
      "chip": "ym2612"
    },
    {
      "channel": 5,
      "note": 18,
      "start": 80.3826,
      "duration": 0.1336,
      "velocity": 110,
      "chip": "ym2612"
    },
    {
      "channel": 0,
      "note": 18,
      "start": 80.5112,
      "duration": 0.1314,
      "velocity": 106,
      "chip": "ym2612"
    },
    {
      "channel": 1,
      "note": 53,
      "start": 80.5125,
      "duration": 0.0812,
      "velocity": 122,
      "chip": "ym2612"
    },
    {
      "channel": 2,
      "note": 7,
      "start": 80.5137,
      "duration": 2.1171,
      "velocity": 1,
      "chip": "ym2612"
    },
    {
      "channel": 3,
      "note": 7,
      "start": 80.5149,
      "duration": 2.1166,
      "velocity": 1,
      "chip": "ym2612"
    },
    {
      "channel": 4,
      "note": 7,
      "start": 80.5161,
      "duration": 2.1159,
      "velocity": 1,
      "chip": "ym2612"
    },
    {
      "channel": 5,
      "note": 7,
      "start": 80.5173,
      "duration": 2.1153,
      "velocity": 1,
      "chip": "ym2612"
    },
    {
      "channel": 0,
      "note": 18,
      "start": 80.6436,
      "duration": 0.1314,
      "velocity": 110,
      "chip": "ym2612"
    },
    {
      "channel": 1,
      "note": 53,
      "start": 80.6443,
      "duration": 0.0819,
      "velocity": 122,
      "chip": "ym2612"
    },
    {
      "channel": 0,
      "note": 18,
      "start": 80.7761,
      "duration": 0.1313,
      "velocity": 114,
      "chip": "ym2612"
    },
    {
      "channel": 1,
      "note": 41,
      "start": 80.7767,
      "duration": 0.0819,
      "velocity": 120,
      "chip": "ym2612"
    },
    {
      "channel": 0,
      "note": 18,
      "start": 80.9085,
      "duration": 0.1314,
      "velocity": 118,
      "chip": "ym2612"
    },
    {
      "channel": 1,
      "note": 41,
      "start": 80.9092,
      "duration": 0.1319,
      "velocity": 119,
      "chip": "ym2612"
    },
    {
      "channel": 0,
      "note": 18,
      "start": 81.0409,
      "duration": 0.1314,
      "velocity": 121,
      "chip": "ym2612"
    },
    {
      "channel": 1,
      "note": 41,
      "start": 81.0415,
      "duration": 0.0819,
      "velocity": 118,
      "chip": "ym2612"
    },
    {
      "channel": 0,
      "note": 18,
      "start": 81.1734,
      "duration": 0.1313,
      "velocity": 124,
      "chip": "ym2612"
    },
    {
      "channel": 1,
      "note": 53,
      "start": 81.174,
      "duration": 0.1319,
      "velocity": 117,
      "chip": "ym2612"
    },
    {
      "channel": 0,
      "note": 18,
      "start": 81.3057,
      "duration": 0.1314,
      "velocity": 127,
      "chip": "ym2612"
    },
    {
      "channel": 1,
      "note": 41,
      "start": 81.3064,
      "duration": 0.0819,
      "velocity": 116,
      "chip": "ym2612"
    },
    {
      "channel": 0,
      "note": 18,
      "start": 81.4382,
      "duration": 0.1312,
      "velocity": 124,
      "chip": "ym2612"
    },
    {
      "channel": 1,
      "note": 53,
      "start": 81.4389,
      "duration": 0.1319,
      "velocity": 115,
      "chip": "ym2612"
    },
    {
      "channel": 0,
      "note": 18,
      "start": 81.5706,
      "duration": 0.1313,
      "velocity": 121,
      "chip": "ym2612"
    },
    {
      "channel": 1,
      "note": 41,
      "start": 81.5713,
      "duration": 0.0818,
      "velocity": 114,
      "chip": "ym2612"
    },
    {
      "channel": 0,
      "note": 18,
      "start": 81.703,
      "duration": 0.1314,
      "velocity": 124,
      "chip": "ym2612"
    },
    {
      "channel": 1,
      "note": 41,
      "start": 81.7037,
      "duration": 0.0818,
      "velocity": 115,
      "chip": "ym2612"
    },
    {
      "channel": 0,
      "note": 18,
      "start": 81.8354,
      "duration": 0.1313,
      "velocity": 127,
      "chip": "ym2612"
    },
    {
      "channel": 1,
      "note": 41,
      "start": 81.8361,
      "duration": 0.0819,
      "velocity": 116,
      "chip": "ym2612"
    },
    {
      "channel": 0,
      "note": 18,
      "start": 81.9678,
      "duration": 0.1314,
      "velocity": 124,
      "chip": "ym2612"
    },
    {
      "channel": 1,
      "note": 53,
      "start": 81.9685,
      "duration": 0.0818,
      "velocity": 117,
      "chip": "ym2612"
    },
    {
      "channel": 0,
      "note": 18,
      "start": 82.1002,
      "duration": 0.1314,
      "velocity": 121,
      "chip": "ym2612"
    },
    {
      "channel": 1,
      "note": 53,
      "start": 82.1009,
      "duration": 0.0819,
      "velocity": 118,
      "chip": "ym2612"
    },
    {
      "channel": 0,
      "note": 18,
      "start": 82.2327,
      "duration": 0.1313,
      "velocity": 118,
      "chip": "ym2612"
    },
    {
      "channel": 1,
      "note": 41,
      "start": 82.2333,
      "duration": 0.0819,
      "velocity": 119,
      "chip": "ym2612"
    },
    {
      "channel": 0,
      "note": 18,
      "start": 82.3651,
      "duration": 0.1313,
      "velocity": 114,
      "chip": "ym2612"
    },
    {
      "channel": 1,
      "note": 41,
      "start": 82.3658,
      "duration": 0.0818,
      "velocity": 120,
      "chip": "ym2612"
    },
    {
      "channel": 0,
      "note": 18,
      "start": 82.4975,
      "duration": 0.1314,
      "velocity": 110,
      "chip": "ym2612"
    },
    {
      "channel": 1,
      "note": 53,
      "start": 82.4982,
      "duration": 0.0819,
      "velocity": 121,
      "chip": "ym2612"
    },
    {
      "channel": 0,
      "note": 18,
      "start": 82.63,
      "duration": 0.1313,
      "velocity": 106,
      "chip": "ym2612"
    },
    {
      "channel": 1,
      "note": 41,
      "start": 82.6306,
      "duration": 0.0819,
      "velocity": 121,
      "chip": "ym2612"
    },
    {
      "channel": 2,
      "note": 7,
      "start": 82.6312,
      "duration": 2.1188,
      "velocity": 1,
      "chip": "ym2612"
    },
    {
      "channel": 3,
      "note": 7,
      "start": 82.6319,
      "duration": 2.1193,
      "velocity": 1,
      "chip": "ym2612"
    },
    {
      "channel": 4,
      "note": 7,
      "start": 82.6325,
      "duration": 2.12,
      "velocity": 1,
      "chip": "ym2612"
    },
    {
      "channel": 5,
      "note": 7,
      "start": 82.6332,
      "duration": 2.12,
      "velocity": 1,
      "chip": "ym2612"
    },
    {
      "channel": 0,
      "note": 18,
      "start": 82.7623,
      "duration": 0.1314,
      "velocity": 110,
      "chip": "ym2612"
    },
    {
      "channel": 1,
      "note": 53,
      "start": 82.763,
      "duration": 0.1319,
      "velocity": 121,
      "chip": "ym2612"
    },
    {
      "channel": 0,
      "note": 18,
      "start": 82.8948,
      "duration": 0.1314,
      "velocity": 114,
      "chip": "ym2612"
    },
    {
      "channel": 1,
      "note": 41,
      "start": 82.8954,
      "duration": 0.0819,
      "velocity": 120,
      "chip": "ym2612"
    },
    {
      "channel": 0,
      "note": 18,
      "start": 83.0272,
      "duration": 0.1313,
      "velocity": 118,
      "chip": "ym2612"
    },
    {
      "channel": 1,
      "note": 41,
      "start": 83.0279,
      "duration": 0.1319,
      "velocity": 119,
      "chip": "ym2612"
    },
    {
      "channel": 0,
      "note": 18,
      "start": 83.1596,
      "duration": 0.1314,
      "velocity": 121,
      "chip": "ym2612"
    },
    {
      "channel": 1,
      "note": 41,
      "start": 83.1603,
      "duration": 0.0818,
      "velocity": 118,
      "chip": "ym2612"
    },
    {
      "channel": 0,
      "note": 18,
      "start": 83.292,
      "duration": 0.1313,
      "velocity": 124,
      "chip": "ym2612"
    },
    {
      "channel": 1,
      "note": 53,
      "start": 83.2927,
      "duration": 0.132,
      "velocity": 117,
      "chip": "ym2612"
    },
    {
      "channel": 0,
      "note": 18,
      "start": 83.4245,
      "duration": 0.1313,
      "velocity": 127,
      "chip": "ym2612"
    },
    {
      "channel": 1,
      "note": 53,
      "start": 83.4251,
      "duration": 0.0819,
      "velocity": 116,
      "chip": "ym2612"
    },
    {
      "channel": 0,
      "note": 18,
      "start": 83.5569,
      "duration": 0.1314,
      "velocity": 124,
      "chip": "ym2612"
    },
    {
      "channel": 1,
      "note": 41,
      "start": 83.5576,
      "duration": 0.1319,
      "velocity": 115,
      "chip": "ym2612"
    },
    {
      "channel": 0,
      "note": 18,
      "start": 83.6893,
      "duration": 0.1314,
      "velocity": 121,
      "chip": "ym2612"
    },
    {
      "channel": 1,
      "note": 41,
      "start": 83.69,
      "duration": 0.0819,
      "velocity": 114,
      "chip": "ym2612"
    },
    {
      "channel": 0,
      "note": 18,
      "start": 83.8217,
      "duration": 0.1313,
      "velocity": 124,
      "chip": "ym2612"
    },
    {
      "channel": 1,
      "note": 53,
      "start": 83.8224,
      "duration": 0.0818,
      "velocity": 115,
      "chip": "ym2612"
    },
    {
      "channel": 0,
      "note": 18,
      "start": 83.9542,
      "duration": 0.1313,
      "velocity": 127,
      "chip": "ym2612"
    },
    {
      "channel": 1,
      "note": 41,
      "start": 83.9548,
      "duration": 0.0818,
      "velocity": 116,
      "chip": "ym2612"
    },
    {
      "channel": 0,
      "note": 18,
      "start": 84.0866,
      "duration": 0.1313,
      "velocity": 124,
      "chip": "ym2612"
    },
    {
      "channel": 1,
      "note": 41,
      "start": 84.0873,
      "duration": 0.0818,
      "velocity": 116,
      "chip": "ym2612"
    },
    {
      "channel": 0,
      "note": 18,
      "start": 84.219,
      "duration": 0.1313,
      "velocity": 121,
      "chip": "ym2612"
    },
    {
      "channel": 1,
      "note": 41,
      "start": 84.2197,
      "duration": 0.0818,
      "velocity": 118,
      "chip": "ym2612"
    },
    {
      "channel": 0,
      "note": 18,
      "start": 84.3514,
      "duration": 0.1314,
      "velocity": 118,
      "chip": "ym2612"
    },
    {
      "channel": 1,
      "note": 53,
      "start": 84.352,
      "duration": 0.0819,
      "velocity": 118,
      "chip": "ym2612"
    },
    {
      "channel": 0,
      "note": 18,
      "start": 84.4838,
      "duration": 0.1313,
      "velocity": 114,
      "chip": "ym2612"
    },
    {
      "channel": 1,
      "note": 41,
      "start": 84.4845,
      "duration": 0.0819,
      "velocity": 120,
      "chip": "ym2612"
    },
    {
      "channel": 0,
      "note": 18,
      "start": 84.6162,
      "duration": 0.1314,
      "velocity": 110,
      "chip": "ym2612"
    },
    {
      "channel": 1,
      "note": 41,
      "start": 84.6169,
      "duration": 0.0819,
      "velocity": 121,
      "chip": "ym2612"
    },
    {
      "channel": 0,
      "note": 33,
      "start": 84.7487,
      "duration": 0.1314,
      "velocity": 127,
      "chip": "ym2612"
    },
    {
      "channel": 1,
      "note": 29,
      "start": 84.7499,
      "duration": 0.1314,
      "velocity": 124,
      "chip": "ym2612"
    },
    {
      "channel": 2,
      "note": 51,
      "start": 84.7511,
      "duration": 0.1308,
      "velocity": 90,
      "chip": "ym2612"
    },
    {
      "channel": 3,
      "note": 84,
      "start": 84.7523,
      "duration": 0.0798,
      "velocity": 102,
      "chip": "ym2612"
    },
    {
      "channel": 4,
      "note": 7,
      "start": 84.7529,
      "duration": 0.5255,
      "velocity": 1,
      "chip": "ym2612"
    },
    {
      "channel": 5,
      "note": 7,
      "start": 84.7536,
      "duration": 0.5248,
      "velocity": 1,
      "chip": "ym2612"
    },
    {
      "channel": 0,
      "note": 21,
      "start": 84.881,
      "duration": 0.1314,
      "velocity": 120,
      "chip": "ym2612"
    },
    {
      "channel": 1,
      "note": 29,
      "start": 84.8817,
      "duration": 0.1313,
      "velocity": 110,
      "chip": "ym2612"
    },
    {
      "channel": 2,
      "note": 53,
      "start": 84.8824,
      "duration": 0.1313,
      "velocity": 89,
      "chip": "ym2612"
    },
    {
      "channel": 3,
      "note": 84,
      "start": 84.883,
      "duration": 0.0815,
      "velocity": 101,
      "chip": "ym2612"
    },
    {
      "channel": 0,
      "note": 21,
      "start": 85.0129,
      "duration": 0.132,
      "velocity": 111,
      "chip": "ym2612"
    },
    {
      "channel": 1,
      "note": 29,
      "start": 85.0136,
      "duration": 0.1325,
      "velocity": 93,
      "chip": "ym2612"
    },
    {
      "channel": 2,
      "note": 41,
      "start": 85.0142,
      "duration": 0.1325,
      "velocity": 88,
      "chip": "ym2612"
    },
    {
      "channel": 3,
      "note": 84,
      "start": 85.0148,
      "duration": 0.0821,
      "velocity": 102,
      "chip": "ym2612"
    },
    {
      "channel": 0,
      "note": 33,
      "start": 85.1459,
      "duration": 0.1314,
      "velocity": 127,
      "chip": "ym2612"
    },
    {
      "channel": 1,
      "note": 29,
      "start": 85.1466,
      "duration": 0.1318,
      "velocity": 13,
      "chip": "ym2612"
    },
    {
      "channel": 2,
      "note": 41,
      "start": 85.1472,
      "duration": 0.1312,
      "velocity": 87,
      "chip": "ym2612"
    },
    {
      "channel": 3,
      "note": 84,
      "start": 85.1478,
      "duration": 0.0815,
      "velocity": 102,
      "chip": "ym2612"
    },
    {
      "channel": 0,
      "note": 22,
      "start": 85.2784,
      "duration": 0.0,
      "velocity": 127,
      "chip": "ym2612"
    }
  ]
}