{
  "track_name": "13 - Sub-Boss (S3)",
  "duration_sec": 61.002,
  "sample_rate": 44100,
  "note_count": 578,
  "unique_pitches": 26,
  "pitch_range": 56,
  "avg_note_duration": 0.4644,
  "reconstruction_stats": {
    "notes_reconstructed": 578,
    "keyon_events": 578,
    "keyoff_events": 573,
    "orphan_keyons": 5,
    "unique_pitches": 26,
    "pitch_range": 56,
    "avg_duration_sec": 0.4644
  },
  "metadata": {
    "source": "S\\Sonic 3 & Knuckles\\13 - Sub-Boss (S3).vgz"
  },
  "notes": [
    {
      "channel": 0,
      "note": 35,
      "start": 0.0,
      "duration": 0.5324,
      "velocity": 120,
      "chip": "ym2612"
    },
    {
      "channel": 1,
      "note": 67,
      "start": 0.0025,
      "duration": 0.0801,
      "velocity": 95,
      "chip": "ym2612"
    },
    {
      "channel": 2,
      "note": 91,
      "start": 0.0055,
      "duration": 0.1442,
      "velocity": 118,
      "chip": "ym2612"
    },
    {
      "channel": 3,
      "note": 67,
      "start": 0.0086,
      "duration": 0.142,
      "velocity": 103,
      "chip": "ym2612"
    },
    {
      "channel": 4,
      "note": 67,
      "start": 0.0119,
      "duration": 0.1393,
      "velocity": 103,
      "chip": "ym2612"
    },
    {
      "channel": 1,
      "note": 67,
      "start": 0.1496,
      "duration": 0.1163,
      "velocity": 95,
      "chip": "ym2612"
    },
    {
      "channel": 2,
      "note": 91,
      "start": 0.1504,
      "duration": 0.1159,
      "velocity": 118,
      "chip": "ym2612"
    },
    {
      "channel": 3,
      "note": 67,
      "start": 0.151,
      "duration": 0.1155,
      "velocity": 103,
      "chip": "ym2612"
    },
    {
      "channel": 4,
      "note": 67,
      "start": 0.1519,
      "duration": 0.1149,
      "velocity": 103,
      "chip": "ym2612"
    },
    {
      "channel": 1,
      "note": 67,
      "start": 0.4164,
      "duration": 0.1162,
      "velocity": 95,
      "chip": "ym2612"
    },
    {
      "channel": 2,
      "note": 91,
      "start": 0.4173,
      "duration": 0.116,
      "velocity": 118,
      "chip": "ym2612"
    },
    {
      "channel": 3,
      "note": 67,
      "start": 0.4179,
      "duration": 0.1161,
      "velocity": 103,
      "chip": "ym2612"
    },
    {
      "channel": 4,
      "note": 67,
      "start": 0.4186,
      "duration": 0.116,
      "velocity": 103,
      "chip": "ym2612"
    },
    {
      "channel": 1,
      "note": 62,
      "start": 0.5331,
      "duration": 0.0994,
      "velocity": 95,
      "chip": "ym2612"
    },
    {
      "channel": 2,
      "note": 91,
      "start": 0.5339,
      "duration": 0.1656,
      "velocity": 118,
      "chip": "ym2612"
    },
    {
      "channel": 3,
      "note": 67,
      "start": 0.5346,
      "duration": 0.1658,
      "velocity": 103,
      "chip": "ym2612"
    },
    {
      "channel": 4,
      "note": 67,
      "start": 0.5353,
      "duration": 0.1656,
      "velocity": 103,
      "chip": "ym2612"
    },
    {
      "channel": 1,
      "note": 62,
      "start": 0.6994,
      "duration": 0.1163,
      "velocity": 95,
      "chip": "ym2612"
    },
    {
      "channel": 2,
      "note": 91,
      "start": 0.7002,
      "duration": 0.1158,
      "velocity": 118,
      "chip": "ym2612"
    },
    {
      "channel": 3,
      "note": 67,
      "start": 0.7008,
      "duration": 0.1154,
      "velocity": 103,
      "chip": "ym2612"
    },
    {
      "channel": 4,
      "note": 67,
      "start": 0.7017,
      "duration": 0.1149,
      "velocity": 103,
      "chip": "ym2612"
    },
    {
      "channel": 1,
      "note": 62,
      "start": 0.9662,
      "duration": 0.1163,
      "velocity": 95,
      "chip": "ym2612"
    },
    {
      "channel": 2,
      "note": 91,
      "start": 0.9671,
      "duration": 0.1161,
      "velocity": 118,
      "chip": "ym2612"
    },
    {
      "channel": 3,
      "note": 67,
      "start": 0.9677,
      "duration": 0.1163,
      "velocity": 103,
      "chip": "ym2612"
    },
    {
      "channel": 4,
      "note": 67,
      "start": 0.9685,
      "duration": 0.1161,
      "velocity": 103,
      "chip": "ym2612"
    },
    {
      "channel": 1,
      "note": 55,
      "start": 1.083,
      "duration": 0.1494,
      "velocity": 95,
      "chip": "ym2612"
    },
    {
      "channel": 2,
      "note": 91,
      "start": 1.0838,
      "duration": 0.1156,
      "velocity": 118,
      "chip": "ym2612"
    },
    {
      "channel": 3,
      "note": 67,
      "start": 1.0844,
      "duration": 0.1152,
      "velocity": 103,
      "chip": "ym2612"
    },
    {
      "channel": 4,
      "note": 67,
      "start": 1.0852,
      "duration": 0.1147,
      "velocity": 103,
      "chip": "ym2612"
    },
    {
      "channel": 0,
      "note": 35,
      "start": 1.4614,
      "duration": 0.06,
      "velocity": 120,
      "chip": "ym2612"
    },
    {
      "channel": 1,
      "note": 60,
      "start": 1.4621,
      "duration": 0.0226,
      "velocity": 95,
      "chip": "ym2612"
    },
    {
      "channel": 3,
      "note": 67,
      "start": 1.4634,
      "duration": 2.3755,
      "velocity": 103,
      "chip": "ym2612"
    },
    {
      "channel": 4,
      "note": 62,
      "start": 1.4645,
      "duration": 2.3746,
      "velocity": 103,
      "chip": "ym2612"
    },
    {
      "channel": 1,
      "note": 60,
      "start": 1.4981,
      "duration": 0.0236,
      "velocity": 95,
      "chip": "ym2612"
    },
    {
      "channel": 1,
      "note": 59,
      "start": 1.5222,
      "duration": 0.244,
      "velocity": 95,
      "chip": "ym2612"
    },
    {
      "channel": 0,
      "note": 35,
      "start": 1.65,
      "duration": 0.116,
      "velocity": 120,
      "chip": "ym2612"
    },
    {
      "channel": 1,
      "note": 58,
      "start": 1.7666,
      "duration": 0.2667,
      "velocity": 95,
      "chip": "ym2612"
    },
    {
      "channel": 2,
      "note": 79,
      "start": 1.9169,
      "duration": 0.1171,
      "velocity": 118,
      "chip": "ym2612"
    },
    {
      "channel": 0,
      "note": 35,
      "start": 2.0332,
      "duration": 0.2828,
      "velocity": 120,
      "chip": "ym2612"
    },
    {
      "channel": 1,
      "note": 59,
      "start": 2.0338,
      "duration": 0.2826,
      "velocity": 95,
      "chip": "ym2612"
    },
    {
      "channel": 2,
      "note": 81,
      "start": 2.0346,
      "duration": 0.1152,
      "velocity": 118,
      "chip": "ym2612"
    },
    {
      "channel": 1,
      "note": 60,
      "start": 2.3168,
      "duration": 0.0992,
      "velocity": 95,
      "chip": "ym2612"
    },
    {
      "channel": 2,
      "note": 82,
      "start": 2.3176,
      "duration": 0.0986,
      "velocity": 118,
      "chip": "ym2612"
    },
    {
      "channel": 0,
      "note": 35,
      "start": 2.5832,
      "duration": 0.2661,
      "velocity": 120,
      "chip": "ym2612"
    },
    {
      "channel": 2,
      "note": 81,
      "start": 2.5842,
      "duration": 0.1492,
      "velocity": 118,
      "chip": "ym2612"
    },
    {
      "channel": 1,
      "note": 60,
      "start": 2.7333,
      "duration": 0.1162,
      "velocity": 95,
      "chip": "ym2612"
    },
    {
      "channel": 2,
      "note": 82,
      "start": 2.7341,
      "duration": 0.1156,
      "velocity": 118,
      "chip": "ym2612"
    },
    {
      "channel": 2,
      "note": 81,
      "start": 2.8505,
      "duration": 0.1656,
      "velocity": 118,
      "chip": "ym2612"
    },
    {
      "channel": 2,
      "note": 77,
      "start": 3.0167,
      "duration": 0.116,
      "velocity": 118,
      "chip": "ym2612"
    },
    {
      "channel": 2,
      "note": 75,
      "start": 3.1334,
      "duration": 0.0994,
      "velocity": 118,
      "chip": "ym2612"
    },
    {
      "channel": 1,
      "note": 59,
      "start": 3.3331,
      "duration": 0.0695,
      "velocity": 95,
      "chip": "ym2612"
    },
    {
      "channel": 0,
      "note": 35,
      "start": 3.4022,
      "duration": 0.2639,
      "velocity": 120,
      "chip": "ym2612"
    },
    {
      "channel": 1,
      "note": 60,
      "start": 3.403,
      "duration": 0.0798,
      "velocity": 95,
      "chip": "ym2612"
    },
    {
      "channel": 1,
      "note": 60,
      "start": 3.55,
      "duration": 0.1164,
      "velocity": 95,
      "chip": "ym2612"
    },
    {
      "channel": 1,
      "note": 59,
      "start": 3.6669,
      "duration": 0.0596,
      "velocity": 95,
      "chip": "ym2612"
    },
    {
      "channel": 0,
      "note": 35,
      "start": 3.6993,
      "duration": 0.0269,
      "velocity": 120,
      "chip": "ym2612"
    },
    {
      "channel": 1,
      "note": 58,
      "start": 3.7269,
      "duration": 0.0539,
      "velocity": 95,
      "chip": "ym2612"
    },
    {
      "channel": 0,
      "note": 35,
      "start": 3.7807,
      "duration": 0.0571,
      "velocity": 120,
      "chip": "ym2612"
    },
    {
      "channel": 1,
      "note": 59,
      "start": 3.7813,
      "duration": 0.0569,
      "velocity": 95,
      "chip": "ym2612"
    },
    {
      "channel": 1,
      "note": 60,
      "start": 3.8386,
      "duration": 0.0165,
      "velocity": 95,
      "chip": "ym2612"
    },
    {
      "channel": 0,
      "note": 35,
      "start": 3.8656,
      "duration": 0.0197,
      "velocity": 120,
      "chip": "ym2612"
    },
    {
      "channel": 1,
      "note": 55,
      "start": 3.8662,
      "duration": 0.0198,
      "velocity": 95,
      "chip": "ym2612"
    },
    {
      "channel": 0,
      "note": 35,
      "start": 3.8859,
      "duration": 0.0457,
      "velocity": 120,
      "chip": "ym2612"
    },
    {
      "channel": 1,
      "note": 63,
      "start": 3.8865,
      "duration": 0.0454,
      "velocity": 95,
      "chip": "ym2612"
    },
    {
      "channel": 1,
      "note": 55,
      "start": 3.9323,
      "duration": 0.0513,
      "velocity": 95,
      "chip": "ym2612"
    },
    {
      "channel": 3,
      "note": 80,
      "start": 3.933,
      "duration": 0.1226,
      "velocity": 103,
      "chip": "ym2612"
    },
    {
      "channel": 4,
      "note": 63,
      "start": 3.9338,
      "duration": 0.1225,
      "velocity": 103,
      "chip": "ym2612"
    },
    {
      "channel": 1,
      "note": 58,
      "start": 3.9841,
      "duration": 0.0707,
      "velocity": 95,
      "chip": "ym2612"
    },
    {
      "channel": 0,
      "note": 35,
      "start": 4.0545,
      "duration": 0.0543,
      "velocity": 120,
      "chip": "ym2612"
    },
    {
      "channel": 1,
      "note": 60,
      "start": 4.0552,
      "duration": 0.0178,
      "velocity": 95,
      "chip": "ym2612"
    },
    {
      "channel": 3,
      "note": 67,
      "start": 4.0561,
      "duration": 2.3822,
      "velocity": 103,
      "chip": "ym2612"
    },
    {
      "channel": 4,
      "note": 62,
      "start": 4.0569,
      "duration": 2.4828,
      "velocity": 103,
      "chip": "ym2612"
    },
    {
      "channel": 1,
      "note": 60,
      "start": 4.0859,
      "duration": 0.0231,
      "velocity": 95,
      "chip": "ym2612"
    },
    {
      "channel": 1,
      "note": 59,
      "start": 4.1095,
      "duration": 0.2335,
      "velocity": 95,
      "chip": "ym2612"
    },
    {
      "channel": 2,
      "note": 82,
      "start": 4.1103,
      "duration": 0.2338,
      "velocity": 118,
      "chip": "ym2612"
    },
    {
      "channel": 0,
      "note": 35,
      "start": 4.2434,
      "duration": 0.0994,
      "velocity": 120,
      "chip": "ym2612"
    },
    {
      "channel": 1,
      "note": 58,
      "start": 4.3435,
      "duration": 0.2833,
      "velocity": 95,
      "chip": "ym2612"
    },
    {
      "channel": 2,
      "note": 82,
      "start": 4.3446,
      "duration": 0.1485,
      "velocity": 118,
      "chip": "ym2612"
    },
    {
      "channel": 0,
      "note": 35,
      "start": 4.6267,
      "duration": 0.2661,
      "velocity": 120,
      "chip": "ym2612"
    },
    {
      "channel": 1,
      "note": 59,
      "start": 4.6273,
      "duration": 0.2659,
      "velocity": 95,
      "chip": "ym2612"
    },
    {
      "channel": 2,
      "note": 77,
      "start": 4.6285,
      "duration": 0.2658,
      "velocity": 118,
      "chip": "ym2612"
    },
    {
      "channel": 1,
      "note": 60,
      "start": 4.8937,
      "duration": 0.1159,
      "velocity": 95,
      "chip": "ym2612"
    },
    {
      "channel": 2,
      "note": 77,
      "start": 4.8948,
      "duration": 0.1315,
      "velocity": 118,
      "chip": "ym2612"
    },
    {
      "channel": 0,
      "note": 35,
      "start": 5.16,
      "duration": 0.2828,
      "velocity": 120,
      "chip": "ym2612"
    },
    {
      "channel": 2,
      "note": 75,
      "start": 5.1614,
      "duration": 0.2823,
      "velocity": 118,
      "chip": "ym2612"
    },
    {
      "channel": 1,
      "note": 60,
      "start": 5.3268,
      "duration": 0.1162,
      "velocity": 95,
      "chip": "ym2612"
    },
    {
      "channel": 2,
      "note": 75,
      "start": 5.4443,
      "duration": 0.132,
      "velocity": 118,
      "chip": "ym2612"
    },
    {
      "channel": 2,
      "note": 77,
      "start": 5.7105,
      "duration": 0.2695,
      "velocity": 118,
      "chip": "ym2612"
    },
    {
      "channel": 1,
      "note": 59,
      "start": 5.91,
      "duration": 0.0693,
      "velocity": 95,
      "chip": "ym2612"
    },
    {
      "channel": 0,
      "note": 35,
      "start": 5.979,
      "duration": 0.2806,
      "velocity": 120,
      "chip": "ym2612"
    },
    {
      "channel": 1,
      "note": 60,
      "start": 5.9798,
      "duration": 0.0966,
      "velocity": 95,
      "chip": "ym2612"
    },
    {
      "channel": 1,
      "note": 60,
      "start": 6.1435,
      "duration": 0.1164,
      "velocity": 95,
      "chip": "ym2612"
    },
    {
      "channel": 2,
      "note": 75,
      "start": 6.1443,
      "duration": 0.1162,
      "velocity": 118,
      "chip": "ym2612"
    },
    {
      "channel": 1,
      "note": 59,
      "start": 6.2604,
      "duration": 0.0533,
      "velocity": 95,
      "chip": "ym2612"
    },
    {
      "channel": 1,
      "note": 58,
      "start": 6.3142,
      "duration": 0.0592,
      "velocity": 95,
      "chip": "ym2612"
    },
    {
      "channel": 2,
      "note": 72,
      "start": 6.315,
      "duration": 0.095,
      "velocity": 118,
      "chip": "ym2612"
    },
    {
      "channel": 1,
      "note": 57,
      "start": 6.3738,
      "duration": 0.0633,
      "velocity": 95,
      "chip": "ym2612"
    },
    {
      "channel": 2,
      "note": 72,
      "start": 6.4105,
      "duration": 0.0272,
      "velocity": 118,
      "chip": "ym2612"
    },
    {
      "channel": 1,
      "note": 56,
      "start": 6.4376,
      "duration": 0.053,
      "velocity": 95,
      "chip": "ym2612"
    },
    {
      "channel": 2,
      "note": 75,
      "start": 6.4382,
      "duration": 0.0295,
      "velocity": 118,
      "chip": "ym2612"
    },
    {
      "channel": 2,
      "note": 77,
      "start": 6.4682,
      "duration": 0.0231,
      "velocity": 118,
      "chip": "ym2612"
    },
    {
      "channel": 1,
      "note": 55,
      "start": 6.4911,
      "duration": 0.0479,
      "velocity": 95,
      "chip": "ym2612"
    },
    {
      "channel": 1,
      "note": 56,
      "start": 6.5394,
      "duration": 0.0462,
      "velocity": 95,
      "chip": "ym2612"
    },
    {
      "channel": 1,
      "note": 59,
      "start": 6.5861,
      "duration": 0.0465,
      "velocity": 95,
      "chip": "ym2612"
    },
    {
      "channel": 0,
      "note": 35,
      "start": 6.6323,
      "duration": 0.0568,
      "velocity": 120,
      "chip": "ym2612"
    },
    {
      "channel": 1,
      "note": 60,
      "start": 6.633,
      "duration": 0.0225,
      "velocity": 95,
      "chip": "ym2612"
    },
    {
      "channel": 3,
      "note": 67,
      "start": 6.6339,
      "duration": 2.1411,
      "velocity": 103,
      "chip": "ym2612"
    },
    {
      "channel": 4,
      "note": 62,
      "start": 6.6347,
      "duration": 2.2571,
      "velocity": 103,
      "chip": "ym2612"
    },
    {
      "channel": 1,
      "note": 60,
      "start": 6.6692,
      "duration": 0.0203,
      "velocity": 95,
      "chip": "ym2612"
    },
    {
      "channel": 1,
      "note": 59,
      "start": 6.6899,
      "duration": 0.2474,
      "velocity": 95,
      "chip": "ym2612"
    },
    {
      "channel": 0,
      "note": 35,
      "start": 6.821,
      "duration": 0.1161,
      "velocity": 120,
      "chip": "ym2612"
    },
    {
      "channel": 1,
      "note": 58,
      "start": 6.9378,
      "duration": 0.2667,
      "velocity": 95,
      "chip": "ym2612"
    },
    {
      "channel": 2,
      "note": 79,
      "start": 7.0878,
      "duration": 0.1172,
      "velocity": 118,
      "chip": "ym2612"
    },
    {
      "channel": 0,
      "note": 35,
      "start": 7.2043,
      "duration": 0.2661,
      "velocity": 120,
      "chip": "ym2612"
    },
    {
      "channel": 1,
      "note": 59,
      "start": 7.2049,
      "duration": 0.2659,
      "velocity": 95,
      "chip": "ym2612"
    },
    {
      "channel": 2,
      "note": 81,
      "start": 7.2056,
      "duration": 0.1153,
      "velocity": 118,
      "chip": "ym2612"
    },
    {
      "channel": 1,
      "note": 60,
      "start": 7.4713,
      "duration": 0.1159,
      "velocity": 95,
      "chip": "ym2612"
    },
    {
      "channel": 2,
      "note": 82,
      "start": 7.472,
      "duration": 0.1154,
      "velocity": 118,
      "chip": "ym2612"
    },
    {
      "channel": 0,
      "note": 35,
      "start": 7.7543,
      "duration": 0.2661,
      "velocity": 120,
      "chip": "ym2612"
    },
    {
      "channel": 2,
      "note": 81,
      "start": 7.7552,
      "duration": 0.1494,
      "velocity": 118,
      "chip": "ym2612"
    },
    {
      "channel": 1,
      "note": 60,
      "start": 7.9044,
      "duration": 0.1162,
      "velocity": 95,
      "chip": "ym2612"
    },
    {
      "channel": 2,
      "note": 82,
      "start": 7.9051,
      "duration": 0.1159,
      "velocity": 118,
      "chip": "ym2612"
    },
    {
      "channel": 2,
      "note": 81,
      "start": 8.0214,
      "duration": 0.1658,
      "velocity": 118,
      "chip": "ym2612"
    },
    {
      "channel": 2,
      "note": 79,
      "start": 8.3319,
      "duration": 0.0273,
      "velocity": 118,
      "chip": "ym2612"
    },
    {
      "channel": 1,
      "note": 59,
      "start": 8.342,
      "duration": 0.0166,
      "velocity": 95,
      "chip": "ym2612"
    },
    {
      "channel": 0,
      "note": 35,
      "start": 8.3582,
      "duration": 0.2372,
      "velocity": 120,
      "chip": "ym2612"
    },
    {
      "channel": 1,
      "note": 60,
      "start": 8.359,
      "duration": 0.053,
      "velocity": 95,
      "chip": "ym2612"
    },
    {
      "channel": 2,
      "note": 81,
      "start": 8.3597,
      "duration": 0.1197,
      "velocity": 118,
      "chip": "ym2612"
    },
    {
      "channel": 1,
      "note": 60,
      "start": 8.4792,
      "duration": 0.1164,
      "velocity": 95,
      "chip": "ym2612"
    },
    {
      "channel": 2,
      "note": 82,
      "start": 8.4798,
      "duration": 0.1164,
      "velocity": 118,
      "chip": "ym2612"
    },
    {
      "channel": 1,
      "note": 59,
      "start": 8.5961,
      "duration": 0.0596,
      "velocity": 95,
      "chip": "ym2612"
    },
    {
      "channel": 2,
      "note": 81,
      "start": 8.5968,
      "duration": 0.0241,
      "velocity": 118,
      "chip": "ym2612"
    },
    {
      "channel": 0,
      "note": 35,
      "start": 8.6308,
      "duration": 0.0247,
      "velocity": 120,
      "chip": "ym2612"
    },
    {
      "channel": 1,
      "note": 58,
      "start": 8.6562,
      "duration": 0.0558,
      "velocity": 95,
      "chip": "ym2612"
    },
    {
      "channel": 2,
      "note": 79,
      "start": 8.6862,
      "duration": 0.0264,
      "velocity": 118,
      "chip": "ym2612"
    },
    {
      "channel": 0,
      "note": 35,
      "start": 8.7119,
      "duration": 0.0615,
      "velocity": 120,
      "chip": "ym2612"
    },
    {
      "channel": 1,
      "note": 59,
      "start": 8.7124,
      "duration": 0.0613,
      "velocity": 95,
      "chip": "ym2612"
    },
    {
      "channel": 2,
      "note": 81,
      "start": 8.7131,
      "duration": 0.0331,
      "velocity": 118,
      "chip": "ym2612"
    },
    {
      "channel": 2,
      "note": 82,
      "start": 8.7466,
      "duration": 0.0278,
      "velocity": 118,
      "chip": "ym2612"
    },
    {
      "channel": 1,
      "note": 60,
      "start": 8.7742,
      "duration": 0.0204,
      "velocity": 95,
      "chip": "ym2612"
    },
    {
      "channel": 2,
      "note": 81,
      "start": 8.7749,
      "duration": 0.0333,
      "velocity": 118,
      "chip": "ym2612"
    },
    {
      "channel": 0,
      "note": 35,
      "start": 8.8074,
      "duration": 0.0261,
      "velocity": 120,
      "chip": "ym2612"
    },
    {
      "channel": 1,
      "note": 55,
      "start": 8.808,
      "duration": 0.0263,
      "velocity": 95,
      "chip": "ym2612"
    },
    {
      "channel": 2,
      "note": 79,
      "start": 8.8087,
      "duration": 0.0262,
      "velocity": 118,
      "chip": "ym2612"
    },
    {
      "channel": 0,
      "note": 35,
      "start": 8.8341,
      "duration": 0.0559,
      "velocity": 120,
      "chip": "ym2612"
    },
    {
      "channel": 1,
      "note": 63,
      "start": 8.8347,
      "duration": 0.0555,
      "velocity": 95,
      "chip": "ym2612"
    },
    {
      "channel": 2,
      "note": 75,
      "start": 8.8354,
      "duration": 0.0555,
      "velocity": 118,
      "chip": "ym2612"
    },
    {
      "channel": 1,
      "note": 55,
      "start": 8.8907,
      "duration": 0.0536,
      "velocity": 95,
      "chip": "ym2612"
    },
    {
      "channel": 3,
      "note": 80,
      "start": 8.8917,
      "duration": 0.1248,
      "velocity": 103,
      "chip": "ym2612"
    },
    {
      "channel": 4,
      "note": 63,
      "start": 8.8924,
      "duration": 0.1247,
      "velocity": 103,
      "chip": "ym2612"
    },
    {
      "channel": 1,
      "note": 58,
      "start": 8.9448,
      "duration": 0.0707,
      "velocity": 95,
      "chip": "ym2612"
    },
    {
      "channel": 0,
      "note": 35,
      "start": 9.0153,
      "duration": 0.0549,
      "velocity": 120,
      "chip": "ym2612"
    },
    {
      "channel": 1,
      "note": 60,
      "start": 9.016,
      "duration": 0.018,
      "velocity": 95,
      "chip": "ym2612"
    },
    {
      "channel": 3,
      "note": 67,
      "start": 9.017,
      "duration": 1.501,
      "velocity": 103,
      "chip": "ym2612"
    },
    {
      "channel": 4,
      "note": 62,
      "start": 9.0177,
      "duration": 1.5005,
      "velocity": 103,
      "chip": "ym2612"
    },
    {
      "channel": 1,
      "note": 60,
      "start": 9.0471,
      "duration": 0.0234,
      "velocity": 95,
      "chip": "ym2612"
    },
    {
      "channel": 1,
      "note": 59,
      "start": 9.071,
      "duration": 0.2331,
      "velocity": 95,
      "chip": "ym2612"
    },
    {
      "channel": 0,
      "note": 35,
      "start": 9.1877,
      "duration": 0.1161,
      "velocity": 120,
      "chip": "ym2612"
    },
    {
      "channel": 1,
      "note": 58,
      "start": 9.3045,
      "duration": 0.2833,
      "velocity": 95,
      "chip": "ym2612"
    },
    {
      "channel": 0,
      "note": 35,
      "start": 9.5877,
      "duration": 0.2661,
      "velocity": 120,
      "chip": "ym2612"
    },
    {
      "channel": 1,
      "note": 59,
      "start": 9.5883,
      "duration": 0.2659,
      "velocity": 95,
      "chip": "ym2612"
    },
    {
      "channel": 1,
      "note": 60,
      "start": 9.8546,
      "duration": 0.1159,
      "velocity": 95,
      "chip": "ym2612"
    },
    {
      "channel": 2,
      "note": 72,
      "start": 9.8553,
      "duration": 0.0821,
      "velocity": 118,
      "chip": "ym2612"
    },
    {
      "channel": 2,
      "note": 71,
      "start": 9.9379,
      "duration": 0.0994,
      "velocity": 118,
      "chip": "ym2612"
    },
    {
      "channel": 2,
      "note": 72,
      "start": 10.0377,
      "duration": 0.0838,
      "velocity": 118,
      "chip": "ym2612"
    },
    {
      "channel": 0,
      "note": 35,
      "start": 10.121,
      "duration": 0.283,
      "velocity": 120,
      "chip": "ym2612"
    },
    {
      "channel": 2,
      "note": 74,
      "start": 10.1219,
      "duration": 0.0988,
      "velocity": 118,
      "chip": "ym2612"
    },
    {
      "channel": 2,
      "note": 72,
      "start": 10.2212,
      "duration": 0.0831,
      "velocity": 118,
      "chip": "ym2612"
    },
    {
      "channel": 1,
      "note": 60,
      "start": 10.2878,
      "duration": 0.1164,
      "velocity": 95,
      "chip": "ym2612"
    },
    {
      "channel": 2,
      "note": 74,
      "start": 10.3047,
      "duration": 0.0998,
      "velocity": 118,
      "chip": "ym2612"
    },
    {
      "channel": 2,
      "note": 75,
      "start": 10.405,
      "duration": 0.0166,
      "velocity": 118,
      "chip": "ym2612"
    },
    {
      "channel": 2,
      "note": 74,
      "start": 10.422,
      "duration": 0.0193,
      "velocity": 118,
      "chip": "ym2612"
    },
    {
      "channel": 2,
      "note": 75,
      "start": 10.4417,
      "duration": 0.0165,
      "velocity": 118,
      "chip": "ym2612"
    },
    {
      "channel": 2,
      "note": 77,
      "start": 10.4587,
      "duration": 0.0165,
      "velocity": 118,
      "chip": "ym2612"
    },
    {
      "channel": 2,
      "note": 75,
      "start": 10.4757,
      "duration": 0.0199,
      "velocity": 118,
      "chip": "ym2612"
    },
    {
      "channel": 2,
      "note": 77,
      "start": 10.4961,
      "duration": 0.0212,
      "velocity": 118,
      "chip": "ym2612"
    },
    {
      "channel": 1,
      "note": 59,
      "start": 10.5,
      "duration": 0.0166,
      "velocity": 95,
      "chip": "ym2612"
    },
    {
      "channel": 0,
      "note": 35,
      "start": 10.5165,
      "duration": 0.1126,
      "velocity": 120,
      "chip": "ym2612"
    },
    {
      "channel": 1,
      "note": 60,
      "start": 10.5172,
      "duration": 0.0195,
      "velocity": 95,
      "chip": "ym2612"
    },
    {
      "channel": 2,
      "note": 79,
      "start": 10.5178,
      "duration": 0.0192,
      "velocity": 118,
      "chip": "ym2612"
    },
    {
      "channel": 2,
      "note": 75,
      "start": 10.5375,
      "duration": 0.0175,
      "velocity": 118,
      "chip": "ym2612"
    },
    {
      "channel": 1,
      "note": 60,
      "start": 10.5496,
      "duration": 0.0255,
      "velocity": 95,
      "chip": "ym2612"
    },
    {
      "channel": 2,
      "note": 82,
      "start": 10.5555,
      "duration": 0.0202,
      "velocity": 118,
      "chip": "ym2612"
    },
    {
      "channel": 1,
      "note": 59,
      "start": 10.5756,
      "duration": 0.0538,
      "velocity": 95,
      "chip": "ym2612"
    },
    {
      "channel": 2,
      "note": 81,
      "start": 10.5762,
      "duration": 0.016,
      "velocity": 118,
      "chip": "ym2612"
    },
    {
      "channel": 2,
      "note": 77,
      "start": 10.5927,
      "duration": 0.0186,
      "velocity": 118,
      "chip": "ym2612"
    },
    {
      "channel": 2,
      "note": 80,
      "start": 10.6117,
      "duration": 0.0183,
      "velocity": 118,
      "chip": "ym2612"
    },
    {
      "channel": 1,
      "note": 58,
      "start": 10.6298,
      "duration": 0.0498,
      "velocity": 95,
      "chip": "ym2612"
    },
    {
      "channel": 2,
      "note": 79,
      "start": 10.6305,
      "duration": 0.0147,
      "velocity": 118,
      "chip": "ym2612"
    },
    {
      "channel": 2,
      "note": 75,
      "start": 10.6456,
      "duration": 0.0177,
      "velocity": 118,
      "chip": "ym2612"
    },
    {
      "channel": 2,
      "note": 78,
      "start": 10.6638,
      "duration": 0.0165,
      "velocity": 118,
      "chip": "ym2612"
    },
    {
      "channel": 1,
      "note": 57,
      "start": 10.6802,
      "duration": 0.0557,
      "velocity": 95,
      "chip": "ym2612"
    },
    {
      "channel": 2,
      "note": 77,
      "start": 10.6807,
      "duration": 0.0181,
      "velocity": 118,
      "chip": "ym2612"
    },
    {
      "channel": 2,
      "note": 75,
      "start": 10.6994,
      "duration": 0.0175,
      "velocity": 118,
      "chip": "ym2612"
    },
    {
      "channel": 2,
      "note": 72,
      "start": 10.7174,
      "duration": 0.0187,
      "velocity": 118,
      "chip": "ym2612"
    },
    {
      "channel": 0,
      "note": 35,
      "start": 10.7357,
      "duration": 0.011,
      "velocity": 120,
      "chip": "ym2612"
    },
    {
      "channel": 0,
      "note": 35,
      "start": 10.7473,
      "duration": 0.0104,
      "velocity": 120,
      "chip": "ym2612"
    },
    {
      "channel": 0,
      "note": 35,
      "start": 10.7583,
      "duration": 0.0106,
      "velocity": 120,
      "chip": "ym2612"
    },
    {
      "channel": 0,
      "note": 35,
      "start": 10.7695,
      "duration": 0.0107,
      "velocity": 120,
      "chip": "ym2612"
    },
    {
      "channel": 0,
      "note": 35,
      "start": 10.7807,
      "duration": 0.0108,
      "velocity": 120,
      "chip": "ym2612"
    },
    {
      "channel": 0,
      "note": 35,
      "start": 10.7921,
      "duration": 0.0105,
      "velocity": 120,
      "chip": "ym2612"
    },
    {
      "channel": 0,
      "note": 35,
      "start": 10.8032,
      "duration": 0.0105,
      "velocity": 120,
      "chip": "ym2612"
    },
    {
      "channel": 0,
      "note": 35,
      "start": 10.8142,
      "duration": 0.0106,
      "velocity": 120,
      "chip": "ym2612"
    },
    {
      "channel": 0,
      "note": 35,
      "start": 10.8255,
      "duration": 0.304,
      "velocity": 120,
      "chip": "ym2612"
    },
    {
      "channel": 2,
      "note": 65,
      "start": 10.8264,
      "duration": 0.3048,
      "velocity": 118,
      "chip": "ym2612"
    },
    {
      "channel": 1,
      "note": 61,
      "start": 11.0778,
      "duration": 0.0525,
      "velocity": 95,
      "chip": "ym2612"
    },
    {
      "channel": 0,
      "note": 35,
      "start": 11.1301,
      "duration": 0.0575,
      "velocity": 120,
      "chip": "ym2612"
    },
    {
      "channel": 1,
      "note": 60,
      "start": 11.1308,
      "duration": 0.246,
      "velocity": 95,
      "chip": "ym2612"
    },
    {
      "channel": 3,
      "note": 67,
      "start": 11.1319,
      "duration": 0.8698,
      "velocity": 103,
      "chip": "ym2612"
    },
    {
      "channel": 4,
      "note": 62,
      "start": 11.1327,
      "duration": 0.8696,
      "velocity": 103,
      "chip": "ym2612"
    },
    {
      "channel": 2,
      "note": 72,
      "start": 11.1888,
      "duration": 0.0251,
      "velocity": 118,
      "chip": "ym2612"
    },
    {
      "channel": 0,
      "note": 35,
      "start": 11.224,
      "duration": 0.0294,
      "velocity": 124,
      "chip": "ym2612"
    },
    {
      "channel": 0,
      "note": 63,
      "start": 11.254,
      "duration": 0.0621,
      "velocity": 120,
      "chip": "ym2612"
    },
    {
      "channel": 2,
      "note": 72,
      "start": 11.2552,
      "duration": 0.0272,
      "velocity": 118,
      "chip": "ym2612"
    },
    {
      "channel": 0,
      "note": 35,
      "start": 11.3167,
      "duration": 0.0599,
      "velocity": 120,
      "chip": "ym2612"
    },
    {
      "channel": 2,
      "note": 72,
      "start": 11.3179,
      "duration": 0.0274,
      "velocity": 118,
      "chip": "ym2612"
    },
    {
      "channel": 2,
      "note": 72,
      "start": 11.3778,
      "duration": 0.0239,
      "velocity": 118,
      "chip": "ym2612"
    },
    {
      "channel": 0,
      "note": 35,
      "start": 11.4328,
      "duration": 0.0603,
      "velocity": 124,
      "chip": "ym2612"
    },
    {
      "channel": 2,
      "note": 72,
      "start": 11.4336,
      "duration": 0.0252,
      "velocity": 118,
      "chip": "ym2612"
    },
    {
      "channel": 0,
      "note": 63,
      "start": 11.4936,
      "duration": 0.1138,
      "velocity": 120,
      "chip": "ym2612"
    },
    {
      "channel": 2,
      "note": 72,
      "start": 11.4945,
      "duration": 0.0352,
      "velocity": 118,
      "chip": "ym2612"
    },
    {
      "channel": 2,
      "note": 75,
      "start": 11.5304,
      "duration": 0.021,
      "velocity": 118,
      "chip": "ym2612"
    },
    {
      "channel": 0,
      "note": 35,
      "start": 11.608,
      "duration": 0.2179,
      "velocity": 120,
      "chip": "ym2612"
    },
    {
      "channel": 2,
      "note": 72,
      "start": 11.8269,
      "duration": 0.0234,
      "velocity": 118,
      "chip": "ym2612"
    },
    {
      "channel": 0,
      "note": 35,
      "start": 11.8598,
      "duration": 0.0222,
      "velocity": 124,
      "chip": "ym2612"
    },
    {
      "channel": 0,
      "note": 63,
      "start": 11.8826,
      "duration": 0.0623,
      "velocity": 120,
      "chip": "ym2612"
    },
    {
      "channel": 2,
      "note": 72,
      "start": 11.8835,
      "duration": 0.0249,
      "velocity": 118,
      "chip": "ym2612"
    },
    {
      "channel": 0,
      "note": 35,
      "start": 11.9455,
      "duration": 0.055,
      "velocity": 120,
      "chip": "ym2612"
    },
    {
      "channel": 2,
      "note": 72,
      "start": 11.9464,
      "duration": 0.0251,
      "velocity": 118,
      "chip": "ym2612"
    },
    {
      "channel": 2,
      "note": 72,
      "start": 12.0015,
      "duration": 0.0246,
      "velocity": 118,
      "chip": "ym2612"
    },
    {
      "channel": 3,
      "note": 68,
      "start": 12.0022,
      "duration": 0.2286,
      "velocity": 103,
      "chip": "ym2612"
    },
    {
      "channel": 4,
      "note": 63,
      "start": 12.0029,
      "duration": 0.2285,
      "velocity": 103,
      "chip": "ym2612"
    },
    {
      "channel": 0,
      "note": 35,
      "start": 12.0357,
      "duration": 0.019,
      "velocity": 120,
      "chip": "ym2612"
    },
    {
      "channel": 0,
      "note": 35,
      "start": 12.0553,
      "duration": 0.0621,
      "velocity": 124,
      "chip": "ym2612"
    },
    {
      "channel": 2,
      "note": 72,
      "start": 12.0562,
      "duration": 0.0247,
      "velocity": 118,
      "chip": "ym2612"
    },
    {
      "channel": 0,
      "note": 63,
      "start": 12.118,
      "duration": 0.0897,
      "velocity": 124,
      "chip": "ym2612"
    },
    {
      "channel": 2,
      "note": 72,
      "start": 12.1189,
      "duration": 0.0317,
      "velocity": 118,
      "chip": "ym2612"
    },
    {
      "channel": 2,
      "note": 75,
      "start": 12.1512,
      "duration": 0.0248,
      "velocity": 118,
      "chip": "ym2612"
    },
    {
      "channel": 0,
      "note": 63,
      "start": 12.2083,
      "duration": 0.0213,
      "velocity": 120,
      "chip": "ym2612"
    },
    {
      "channel": 0,
      "note": 35,
      "start": 12.2303,
      "duration": 0.0564,
      "velocity": 120,
      "chip": "ym2612"
    },
    {
      "channel": 3,
      "note": 67,
      "start": 12.2312,
      "duration": 0.9582,
      "velocity": 103,
      "chip": "ym2612"
    },
    {
      "channel": 4,
      "note": 62,
      "start": 12.2321,
      "duration": 0.958,
      "velocity": 103,
      "chip": "ym2612"
    },
    {
      "channel": 2,
      "note": 72,
      "start": 12.2877,
      "duration": 0.0238,
      "velocity": 118,
      "chip": "ym2612"
    },
    {
      "channel": 0,
      "note": 35,
      "start": 12.3181,
      "duration": 0.0247,
      "velocity": 124,
      "chip": "ym2612"
    },
    {
      "channel": 0,
      "note": 63,
      "start": 12.3434,
      "duration": 0.0586,
      "velocity": 120,
      "chip": "ym2612"
    },
    {
      "channel": 2,
      "note": 72,
      "start": 12.3443,
      "duration": 0.0249,
      "velocity": 118,
      "chip": "ym2612"
    },
    {
      "channel": 0,
      "note": 35,
      "start": 12.4026,
      "duration": 0.061,
      "velocity": 120,
      "chip": "ym2612"
    },
    {
      "channel": 2,
      "note": 72,
      "start": 12.4035,
      "duration": 0.0249,
      "velocity": 118,
      "chip": "ym2612"
    },
    {
      "channel": 2,
      "note": 72,
      "start": 12.4645,
      "duration": 0.0304,
      "velocity": 118,
      "chip": "ym2612"
    },
    {
      "channel": 2,
      "note": 75,
      "start": 12.4956,
      "duration": 0.0265,
      "velocity": 118,
      "chip": "ym2612"
    },
    {
      "channel": 0,
      "note": 35,
      "start": 12.5219,
      "duration": 0.0646,
      "velocity": 124,
      "chip": "ym2612"
    },
    {
      "channel": 2,
      "note": 77,
      "start": 12.5227,
      "duration": 0.0356,
      "velocity": 118,
      "chip": "ym2612"
    },
    {
      "channel": 2,
      "note": 75,
      "start": 12.559,
      "duration": 0.0283,
      "velocity": 118,
      "chip": "ym2612"
    },
    {
      "channel": 0,
      "note": 63,
      "start": 12.587,
      "duration": 0.1171,
      "velocity": 120,
      "chip": "ym2612"
    },
    {
      "channel": 2,
      "note": 72,
      "start": 12.5879,
      "duration": 0.0314,
      "velocity": 118,
      "chip": "ym2612"
    },
    {
      "channel": 2,
      "note": 75,
      "start": 12.6199,
      "duration": 0.0246,
      "velocity": 118,
      "chip": "ym2612"
    },
    {
      "channel": 2,
      "note": 77,
      "start": 12.6452,
      "duration": 0.0315,
      "velocity": 118,
      "chip": "ym2612"
    },
    {
      "channel": 2,
      "note": 75,
      "start": 12.6774,
      "duration": 0.0281,
      "velocity": 118,
      "chip": "ym2612"
    },
    {
      "channel": 0,
      "note": 35,
      "start": 12.7047,
      "duration": 0.0626,
      "velocity": 120,
      "chip": "ym2612"
    },
    {
      "channel": 1,
      "note": 60,
      "start": 12.7054,
      "duration": 0.0241,
      "velocity": 95,
      "chip": "ym2612"
    },
    {
      "channel": 2,
      "note": 72,
      "start": 12.7061,
      "duration": 0.0271,
      "velocity": 118,
      "chip": "ym2612"
    },
    {
      "channel": 1,
      "note": 60,
      "start": 12.7434,
      "duration": 0.0242,
      "velocity": 95,
      "chip": "ym2612"
    },
    {
      "channel": 1,
      "note": 59,
      "start": 12.7681,
      "duration": 0.0563,
      "velocity": 95,
      "chip": "ym2612"
    },
    {
      "channel": 2,
      "note": 72,
      "start": 12.7688,
      "duration": 0.0211,
      "velocity": 118,
      "chip": "ym2612"
    },
    {
      "channel": 0,
      "note": 63,
      "start": 12.8242,
      "duration": 0.0602,
      "velocity": 120,
      "chip": "ym2612"
    },
    {
      "channel": 1,
      "note": 58,
      "start": 12.8249,
      "duration": 0.0603,
      "velocity": 95,
      "chip": "ym2612"
    },
    {
      "channel": 2,
      "note": 72,
      "start": 12.8256,
      "duration": 0.0268,
      "velocity": 118,
      "chip": "ym2612"
    },
    {
      "channel": 0,
      "note": 35,
      "start": 12.8851,
      "duration": 0.0623,
      "velocity": 120,
      "chip": "ym2612"
    },
    {
      "channel": 1,
      "note": 57,
      "start": 12.8856,
      "duration": 0.0625,
      "velocity": 95,
      "chip": "ym2612"
    },
    {
      "channel": 2,
      "note": 72,
      "start": 12.8865,
      "duration": 0.0269,
      "velocity": 118,
      "chip": "ym2612"
    },
    {
      "channel": 0,
      "note": 35,
      "start": 12.948,
      "duration": 0.0621,
      "velocity": 120,
      "chip": "ym2612"
    },
    {
      "channel": 1,
      "note": 56,
      "start": 12.9486,
      "duration": 0.0622,
      "velocity": 95,
      "chip": "ym2612"
    },
    {
      "channel": 2,
      "note": 72,
      "start": 12.9494,
      "duration": 0.0345,
      "velocity": 118,
      "chip": "ym2612"
    },
    {
      "channel": 2,
      "note": 75,
      "start": 12.9845,
      "duration": 0.0269,
      "velocity": 118,
      "chip": "ym2612"
    },
    {
      "channel": 0,
      "note": 35,
      "start": 13.0107,
      "duration": 0.0574,
      "velocity": 124,
      "chip": "ym2612"
    },
    {
      "channel": 1,
      "note": 57,
      "start": 13.0112,
      "duration": 0.0576,
      "velocity": 95,
      "chip": "ym2612"
    },
    {
      "channel": 0,
      "note": 63,
      "start": 13.0686,
      "duration": 0.0569,
      "velocity": 120,
      "chip": "ym2612"
    },
    {
      "channel": 0,
      "note": 35,
      "start": 13.1261,
      "duration": 0.0323,
      "velocity": 124,
      "chip": "ym2612"
    },
    {
      "channel": 1,
      "note": 59,
      "start": 13.1268,
      "duration": 0.0617,
      "velocity": 95,
      "chip": "ym2612"
    },
    {
      "channel": 0,
      "note": 63,
      "start": 13.1591,
      "duration": 0.0285,
      "velocity": 120,
      "chip": "ym2612"
    },
    {
      "channel": 2,
      "note": 72,
      "start": 13.1602,
      "duration": 0.022,
      "velocity": 118,
      "chip": "ym2612"
    },
    {
      "channel": 0,
      "note": 35,
      "start": 13.1882,
      "duration": 0.06,
      "velocity": 120,
      "chip": "ym2612"
    },
    {
      "channel": 1,
      "note": 60,
      "start": 13.1889,
      "duration": 0.0192,
      "velocity": 95,
      "chip": "ym2612"
    },
    {
      "channel": 3,
      "note": 63,
      "start": 13.1899,
      "duration": 0.3627,
      "velocity": 103,
      "chip": "ym2612"
    },
    {
      "channel": 4,
      "note": 60,
      "start": 13.1907,
      "duration": 0.3622,
      "velocity": 103,
      "chip": "ym2612"
    },
    {
      "channel": 1,
      "note": 60,
      "start": 13.2215,
      "duration": 0.027,
      "velocity": 95,
      "chip": "ym2612"
    },
    {
      "channel": 2,
      "note": 75,
      "start": 13.2223,
      "duration": 0.0228,
      "velocity": 118,
      "chip": "ym2612"
    },
    {
      "channel": 1,
      "note": 59,
      "start": 13.249,
      "duration": 0.0626,
      "velocity": 95,
      "chip": "ym2612"
    },
    {
      "channel": 0,
      "note": 35,
      "start": 13.2818,
      "duration": 0.029,
      "velocity": 124,
      "chip": "ym2612"
    },
    {
      "channel": 2,
      "note": 77,
      "start": 13.2829,
      "duration": 0.0292,
      "velocity": 118,
      "chip": "ym2612"
    },
    {
      "channel": 0,
      "note": 63,
      "start": 13.3114,
      "duration": 0.0583,
      "velocity": 120,
      "chip": "ym2612"
    },
    {
      "channel": 1,
      "note": 58,
      "start": 13.312,
      "duration": 0.0584,
      "velocity": 95,
      "chip": "ym2612"
    },
    {
      "channel": 0,
      "note": 35,
      "start": 13.3703,
      "duration": 0.0596,
      "velocity": 120,
      "chip": "ym2612"
    },
    {
      "channel": 1,
      "note": 59,
      "start": 13.3709,
      "duration": 0.0595,
      "velocity": 95,
      "chip": "ym2612"
    },
    {
      "channel": 2,
      "note": 72,
      "start": 13.4027,
      "duration": 0.0282,
      "velocity": 118,
      "chip": "ym2612"
    },
    {
      "channel": 1,
      "note": 60,
      "start": 13.4308,
      "duration": 0.0257,
      "velocity": 95,
      "chip": "ym2612"
    },
    {
      "channel": 2,
      "note": 75,
      "start": 13.4316,
      "duration": 0.0251,
      "velocity": 118,
      "chip": "ym2612"
    },
    {
      "channel": 0,
      "note": 35,
      "start": 13.4907,
      "duration": 0.0601,
      "velocity": 124,
      "chip": "ym2612"
    },
    {
      "channel": 2,
      "note": 75,
      "start": 13.4917,
      "duration": 0.0214,
      "velocity": 118,
      "chip": "ym2612"
    },
    {
      "channel": 1,
      "note": 60,
      "start": 13.5233,
      "duration": 0.0282,
      "velocity": 95,
      "chip": "ym2612"
    },
    {
      "channel": 0,
      "note": 63,
      "start": 13.5513,
      "duration": 0.0983,
      "velocity": 120,
      "chip": "ym2612"
    },
    {
      "channel": 2,
      "note": 75,
      "start": 13.5524,
      "duration": 0.0276,
      "velocity": 118,
      "chip": "ym2612"
    },
    {
      "channel": 2,
      "note": 77,
      "start": 13.5806,
      "duration": 0.0206,
      "velocity": 118,
      "chip": "ym2612"
    },
    {
      "channel": 1,
      "note": 59,
      "start": 13.6363,
      "duration": 0.0144,
      "velocity": 95,
      "chip": "ym2612"
    },
    {
      "channel": 0,
      "note": 35,
      "start": 13.6502,
      "duration": 0.2335,
      "velocity": 120,
      "chip": "ym2612"
    },
    {
      "channel": 1,
      "note": 60,
      "start": 13.6511,
      "duration": 0.0492,
      "velocity": 95,
      "chip": "ym2612"
    },
    {
      "channel": 3,
      "note": 74,
      "start": 13.6521,
      "duration": 0.6398,
      "velocity": 103,
      "chip": "ym2612"
    },
    {
      "channel": 4,
      "note": 57,
      "start": 13.6528,
      "duration": 0.6397,
      "velocity": 103,
      "chip": "ym2612"
    },
    {
      "channel": 1,
      "note": 60,
      "start": 13.7674,
      "duration": 0.1165,
      "velocity": 95,
      "chip": "ym2612"
    },
    {
      "channel": 1,
      "note": 59,
      "start": 13.8845,
      "duration": 0.0566,
      "velocity": 95,
      "chip": "ym2612"
    },
    {
      "channel": 0,
      "note": 35,
      "start": 13.9176,
      "duration": 0.0227,
      "velocity": 124,
      "chip": "ym2612"
    },
    {
      "channel": 0,
      "note": 63,
      "start": 13.9408,
      "duration": 0.0617,
      "velocity": 120,
      "chip": "ym2612"
    },
    {
      "channel": 1,
      "note": 58,
      "start": 13.9415,
      "duration": 0.0619,
      "velocity": 95,
      "chip": "ym2612"
    },
    {
      "channel": 0,
      "note": 35,
      "start": 14.0032,
      "duration": 0.0554,
      "velocity": 120,
      "chip": "ym2612"
    },
    {
      "channel": 1,
      "note": 59,
      "start": 14.0038,
      "duration": 0.0552,
      "velocity": 95,
      "chip": "ym2612"
    },
    {
      "channel": 1,
      "note": 60,
      "start": 14.0595,
      "duration": 0.0163,
      "velocity": 95,
      "chip": "ym2612"
    },
    {
      "channel": 0,
      "note": 35,
      "start": 14.0913,
      "duration": 0.0205,
      "velocity": 120,
      "chip": "ym2612"
    },
    {
      "channel": 1,
      "note": 55,
      "start": 14.092,
      "duration": 0.0206,
      "velocity": 95,
      "chip": "ym2612"
    },
    {
      "channel": 0,
      "note": 35,
      "start": 14.1124,
      "duration": 0.0628,
      "velocity": 124,
      "chip": "ym2612"
    },
    {
      "channel": 1,
      "note": 63,
      "start": 14.113,
      "duration": 0.063,
      "velocity": 95,
      "chip": "ym2612"
    },
    {
      "channel": 0,
      "note": 63,
      "start": 14.1758,
      "duration": 0.0893,
      "velocity": 124,
      "chip": "ym2612"
    },
    {
      "channel": 1,
      "note": 55,
      "start": 14.1764,
      "duration": 0.0549,
      "velocity": 95,
      "chip": "ym2612"
    },
    {
      "channel": 1,
      "note": 58,
      "start": 14.2318,
      "duration": 0.059,
      "velocity": 95,
      "chip": "ym2612"
    },
    {
      "channel": 0,
      "note": 63,
      "start": 14.2657,
      "duration": 0.0243,
      "velocity": 120,
      "chip": "ym2612"
    },
    {
      "channel": 2,
      "note": 72,
      "start": 14.2668,
      "duration": 0.0146,
      "velocity": 118,
      "chip": "ym2612"
    },
    {
      "channel": 0,
      "note": 35,
      "start": 14.2906,
      "duration": 0.2752,
      "velocity": 120,
      "chip": "ym2612"
    },
    {
      "channel": 1,
      "note": 60,
      "start": 14.2914,
      "duration": 0.0912,
      "velocity": 95,
      "chip": "ym2612"
    },
    {
      "channel": 3,
      "note": 67,
      "start": 14.2924,
      "duration": 0.6917,
      "velocity": 103,
      "chip": "ym2612"
    },
    {
      "channel": 4,
      "note": 56,
      "start": 14.2931,
      "duration": 0.6916,
      "velocity": 103,
      "chip": "ym2612"
    },
    {
      "channel": 1,
      "note": 60,
      "start": 14.4497,
      "duration": 0.1164,
      "velocity": 95,
      "chip": "ym2612"
    },
    {
      "channel": 2,
      "note": 75,
      "start": 14.4505,
      "duration": 0.0823,
      "velocity": 118,
      "chip": "ym2612"
    },
    {
      "channel": 1,
      "note": 59,
      "start": 14.5666,
      "duration": 0.0598,
      "velocity": 95,
      "chip": "ym2612"
    },
    {
      "channel": 0,
      "note": 35,
      "start": 14.5962,
      "duration": 0.0295,
      "velocity": 124,
      "chip": "ym2612"
    },
    {
      "channel": 2,
      "note": 77,
      "start": 14.5973,
      "duration": 0.0297,
      "velocity": 118,
      "chip": "ym2612"
    },
    {
      "channel": 0,
      "note": 63,
      "start": 14.6262,
      "duration": 0.0586,
      "velocity": 120,
      "chip": "ym2612"
    },
    {
      "channel": 1,
      "note": 58,
      "start": 14.6268,
      "duration": 0.0587,
      "velocity": 95,
      "chip": "ym2612"
    },
    {
      "channel": 0,
      "note": 35,
      "start": 14.6854,
      "duration": 0.0646,
      "velocity": 120,
      "chip": "ym2612"
    },
    {
      "channel": 1,
      "note": 59,
      "start": 14.686,
      "duration": 0.0644,
      "velocity": 95,
      "chip": "ym2612"
    },
    {
      "channel": 2,
      "note": 72,
      "start": 14.7212,
      "duration": 0.0298,
      "velocity": 118,
      "chip": "ym2612"
    },
    {
      "channel": 1,
      "note": 60,
      "start": 14.7509,
      "duration": 0.0255,
      "velocity": 95,
      "chip": "ym2612"
    },
    {
      "channel": 2,
      "note": 75,
      "start": 14.7517,
      "duration": 0.025,
      "velocity": 118,
      "chip": "ym2612"
    },
    {
      "channel": 0,
      "note": 35,
      "start": 14.8048,
      "duration": 0.0603,
      "velocity": 124,
      "chip": "ym2612"
    },
    {
      "channel": 2,
      "note": 75,
      "start": 14.8058,
      "duration": 0.0251,
      "velocity": 118,
      "chip": "ym2612"
    },
    {
      "channel": 1,
      "note": 60,
      "start": 14.8409,
      "duration": 0.0249,
      "velocity": 95,
      "chip": "ym2612"
    },
    {
      "channel": 0,
      "note": 63,
      "start": 14.8656,
      "duration": 0.0903,
      "velocity": 124,
      "chip": "ym2612"
    },
    {
      "channel": 2,
      "note": 75,
      "start": 14.8667,
      "duration": 0.0355,
      "velocity": 118,
      "chip": "ym2612"
    },
    {
      "channel": 2,
      "note": 77,
      "start": 14.9028,
      "duration": 0.0249,
      "velocity": 118,
      "chip": "ym2612"
    },
    {
      "channel": 0,
      "note": 63,
      "start": 14.9565,
      "duration": 0.0257,
      "velocity": 120,
      "chip": "ym2612"
    },
    {
      "channel": 1,
      "note": 59,
      "start": 14.9667,
      "duration": 0.0163,
      "velocity": 95,
      "chip": "ym2612"
    },
    {
      "channel": 0,
      "note": 35,
      "start": 14.9827,
      "duration": 0.2151,
      "velocity": 120,
      "chip": "ym2612"
    },
    {
      "channel": 1,
      "note": 60,
      "start": 14.9835,
      "duration": 0.0477,
      "velocity": 95,
      "chip": "ym2612"
    },
    {
      "channel": 3,
      "note": 67,
      "start": 14.9846,
      "duration": 0.6285,
      "velocity": 103,
      "chip": "ym2612"
    },
    {
      "channel": 4,
      "note": 57,
      "start": 14.9854,
      "duration": 0.628,
      "velocity": 103,
      "chip": "ym2612"
    },
    {
      "channel": 1,
      "note": 60,
      "start": 15.0983,
      "duration": 0.0998,
      "velocity": 95,
      "chip": "ym2612"
    },
    {
      "channel": 1,
      "note": 59,
      "start": 15.1986,
      "duration": 0.0582,
      "velocity": 95,
      "chip": "ym2612"
    },
    {
      "channel": 0,
      "note": 63,
      "start": 15.2565,
      "duration": 0.06,
      "velocity": 120,
      "chip": "ym2612"
    },
    {
      "channel": 1,
      "note": 58,
      "start": 15.2572,
      "duration": 0.0601,
      "velocity": 95,
      "chip": "ym2612"
    },
    {
      "channel": 0,
      "note": 35,
      "start": 15.3171,
      "duration": 0.0554,
      "velocity": 120,
      "chip": "ym2612"
    },
    {
      "channel": 1,
      "note": 57,
      "start": 15.3178,
      "duration": 0.0555,
      "velocity": 95,
      "chip": "ym2612"
    },
    {
      "channel": 0,
      "note": 35,
      "start": 15.3732,
      "duration": 0.058,
      "velocity": 120,
      "chip": "ym2612"
    },
    {
      "channel": 1,
      "note": 56,
      "start": 15.3738,
      "duration": 0.0582,
      "velocity": 95,
      "chip": "ym2612"
    },
    {
      "channel": 0,
      "note": 35,
      "start": 15.4318,
      "duration": 0.0571,
      "velocity": 124,
      "chip": "ym2612"
    },
    {
      "channel": 1,
      "note": 55,
      "start": 15.4324,
      "duration": 0.0573,
      "velocity": 95,
      "chip": "ym2612"
    },
    {
      "channel": 0,
      "note": 63,
      "start": 15.4896,
      "duration": 0.0566,
      "velocity": 120,
      "chip": "ym2612"
    },
    {
      "channel": 1,
      "note": 56,
      "start": 15.4901,
      "duration": 0.0568,
      "velocity": 95,
      "chip": "ym2612"
    },
    {
      "channel": 0,
      "note": 35,
      "start": 15.5468,
      "duration": 0.0364,
      "velocity": 124,
      "chip": "ym2612"
    },
    {
      "channel": 1,
      "note": 59,
      "start": 15.5475,
      "duration": 0.065,
      "velocity": 95,
      "chip": "ym2612"
    },
    {
      "channel": 0,
      "note": 63,
      "start": 15.5839,
      "duration": 0.0278,
      "velocity": 120,
      "chip": "ym2612"
    },
    {
      "channel": 2,
      "note": 72,
      "start": 15.585,
      "duration": 0.0145,
      "velocity": 118,
      "chip": "ym2612"
    },
    {
      "channel": 0,
      "note": 35,
      "start": 15.6123,
      "duration": 0.0466,
      "velocity": 120,
      "chip": "ym2612"
    },
    {
      "channel": 2,
      "note": 75,
      "start": 15.6381,
      "duration": 0.018,
      "velocity": 118,
      "chip": "ym2612"
    },
    {
      "channel": 0,
      "note": 35,
      "start": 15.6846,
      "duration": 0.0231,
      "velocity": 124,
      "chip": "ym2612"
    },
    {
      "channel": 2,
      "note": 77,
      "start": 15.6856,
      "duration": 0.0231,
      "velocity": 118,
      "chip": "ym2612"
    },
    {
      "channel": 0,
      "note": 63,
      "start": 15.7083,
      "duration": 0.0492,
      "velocity": 120,
      "chip": "ym2612"
    },
    {
      "channel": 0,
      "note": 35,
      "start": 15.7581,
      "duration": 0.0478,
      "velocity": 120,
      "chip": "ym2612"
    },
    {
      "channel": 2,
      "note": 72,
      "start": 15.7838,
      "duration": 0.0225,
      "velocity": 118,
      "chip": "ym2612"
    },
    {
      "channel": 2,
      "note": 75,
      "start": 15.8069,
      "duration": 0.0199,
      "velocity": 118,
      "chip": "ym2612"
    },
    {
      "channel": 0,
      "note": 35,
      "start": 15.8537,
      "duration": 0.0485,
      "velocity": 124,
      "chip": "ym2612"
    },
    {
      "channel": 2,
      "note": 75,
      "start": 15.8545,
      "duration": 0.0184,
      "velocity": 118,
      "chip": "ym2612"
    },
    {
      "channel": 0,
      "note": 63,
      "start": 15.9027,
      "duration": 0.0963,
      "velocity": 120,
      "chip": "ym2612"
    },
    {
      "channel": 2,
      "note": 75,
      "start": 15.9036,
      "duration": 0.0268,
      "velocity": 118,
      "chip": "ym2612"
    },
    {
      "channel": 2,
      "note": 77,
      "start": 15.931,
      "duration": 0.0206,
      "velocity": 118,
      "chip": "ym2612"
    },
    {
      "channel": 0,
      "note": 35,
      "start": 15.9996,
      "duration": 0.2354,
      "velocity": 120,
      "chip": "ym2612"
    },
    {
      "channel": 0,
      "note": 35,
      "start": 16.2583,
      "duration": 0.022,
      "velocity": 124,
      "chip": "ym2612"
    },
    {
      "channel": 0,
      "note": 63,
      "start": 16.2809,
      "duration": 0.0491,
      "velocity": 120,
      "chip": "ym2612"
    },
    {
      "channel": 0,
      "note": 35,
      "start": 16.3306,
      "duration": 0.0446,
      "velocity": 120,
      "chip": "ym2612"
    },
    {
      "channel": 0,
      "note": 35,
      "start": 16.3989,
      "duration": 0.0188,
      "velocity": 120,
      "chip": "ym2612"
    },
    {
      "channel": 0,
      "note": 35,
      "start": 16.4182,
      "duration": 0.0485,
      "velocity": 124,
      "chip": "ym2612"
    },
    {
      "channel": 0,
      "note": 63,
      "start": 16.4673,
      "duration": 0.0671,
      "velocity": 124,
      "chip": "ym2612"
    },
    {
      "channel": 0,
      "note": 63,
      "start": 16.535,
      "duration": 0.0291,
      "velocity": 120,
      "chip": "ym2612"
    },
    {
      "channel": 2,
      "note": 72,
      "start": 16.5359,
      "duration": 0.0148,
      "velocity": 118,
      "chip": "ym2612"
    },
    {
      "channel": 0,
      "note": 35,
      "start": 16.5648,
      "duration": 0.0509,
      "velocity": 120,
      "chip": "ym2612"
    },
    {
      "channel": 2,
      "note": 75,
      "start": 16.5941,
      "duration": 0.0153,
      "velocity": 118,
      "chip": "ym2612"
    },
    {
      "channel": 0,
      "note": 35,
      "start": 16.6391,
      "duration": 0.0256,
      "velocity": 124,
      "chip": "ym2612"
    },
    {
      "channel": 2,
      "note": 77,
      "start": 16.64,
      "duration": 0.0255,
      "velocity": 118,
      "chip": "ym2612"
    },
    {
      "channel": 0,
      "note": 63,
      "start": 16.6652,
      "duration": 0.0462,
      "velocity": 120,
      "chip": "ym2612"
    },
    {
      "channel": 0,
      "note": 35,
      "start": 16.712,
      "duration": 0.0493,
      "velocity": 120,
      "chip": "ym2612"
    },
    {
      "channel": 2,
      "note": 72,
      "start": 16.7403,
      "duration": 0.0213,
      "velocity": 118,
      "chip": "ym2612"
    },
    {
      "channel": 2,
      "note": 75,
      "start": 16.7623,
      "duration": 0.0169,
      "velocity": 118,
      "chip": "ym2612"
    },
    {
      "channel": 0,
      "note": 35,
      "start": 16.8049,
      "duration": 0.0482,
      "velocity": 124,
      "chip": "ym2612"
    },
    {
      "channel": 2,
      "note": 75,
      "start": 16.8057,
      "duration": 0.0213,
      "velocity": 118,
      "chip": "ym2612"
    },
    {
      "channel": 0,
      "note": 63,
      "start": 16.8537,
      "duration": 0.0969,
      "velocity": 120,
      "chip": "ym2612"
    },
    {
      "channel": 2,
      "note": 75,
      "start": 16.8546,
      "duration": 0.0298,
      "velocity": 118,
      "chip": "ym2612"
    },
    {
      "channel": 2,
      "note": 77,
      "start": 16.885,
      "duration": 0.0208,
      "velocity": 118,
      "chip": "ym2612"
    },
    {
      "channel": 0,
      "note": 35,
      "start": 16.9511,
      "duration": 0.2347,
      "velocity": 120,
      "chip": "ym2612"
    },
    {
      "channel": 2,
      "note": 79,
      "start": 16.9525,
      "duration": 0.2337,
      "velocity": 118,
      "chip": "ym2612"
    },
    {
      "channel": 2,
      "note": 77,
      "start": 17.1868,
      "duration": 0.1657,
      "velocity": 118,
      "chip": "ym2612"
    },
    {
      "channel": 2,
      "note": 79,
      "start": 17.3531,
      "duration": 0.1191,
      "velocity": 118,
      "chip": "ym2612"
    },
    {
      "channel": 0,
      "note": 63,
      "start": 17.4719,
      "duration": 0.0506,
      "velocity": 120,
      "chip": "ym2612"
    },
    {
      "channel": 2,
      "note": 77,
      "start": 17.4728,
      "duration": 0.0505,
      "velocity": 118,
      "chip": "ym2612"
    },
    {
      "channel": 0,
      "note": 35,
      "start": 17.5231,
      "duration": 0.2376,
      "velocity": 120,
      "chip": "ym2612"
    },
    {
      "channel": 2,
      "note": 75,
      "start": 17.524,
      "duration": 0.1368,
      "velocity": 118,
      "chip": "ym2612"
    },
    {
      "channel": 2,
      "note": 77,
      "start": 17.6614,
      "duration": 0.1002,
      "velocity": 118,
      "chip": "ym2612"
    },
    {
      "channel": 0,
      "note": 35,
      "start": 17.7613,
      "duration": 0.053,
      "velocity": 120,
      "chip": "ym2612"
    },
    {
      "channel": 2,
      "note": 75,
      "start": 17.7622,
      "duration": 0.0531,
      "velocity": 118,
      "chip": "ym2612"
    },
    {
      "channel": 0,
      "note": 35,
      "start": 17.815,
      "duration": 0.0515,
      "velocity": 124,
      "chip": "ym2612"
    },
    {
      "channel": 2,
      "note": 74,
      "start": 17.8158,
      "duration": 0.0274,
      "velocity": 118,
      "chip": "ym2612"
    },
    {
      "channel": 2,
      "note": 75,
      "start": 17.8438,
      "duration": 0.0236,
      "velocity": 118,
      "chip": "ym2612"
    },
    {
      "channel": 0,
      "note": 63,
      "start": 17.8671,
      "duration": 0.0502,
      "velocity": 120,
      "chip": "ym2612"
    },
    {
      "channel": 2,
      "note": 74,
      "start": 17.868,
      "duration": 0.0502,
      "velocity": 118,
      "chip": "ym2612"
    },
    {
      "channel": 0,
      "note": 35,
      "start": 17.9179,
      "duration": 0.0322,
      "velocity": 124,
      "chip": "ym2612"
    },
    {
      "channel": 2,
      "note": 72,
      "start": 17.9188,
      "duration": 0.0215,
      "velocity": 118,
      "chip": "ym2612"
    },
    {
      "channel": 0,
      "note": 63,
      "start": 17.9507,
      "duration": 0.0208,
      "velocity": 120,
      "chip": "ym2612"
    },
    {
      "channel": 0,
      "note": 35,
      "start": 17.9721,
      "duration": 0.0574,
      "velocity": 120,
      "chip": "ym2612"
    },
    {
      "channel": 1,
      "note": 60,
      "start": 17.9728,
      "duration": 0.0192,
      "velocity": 95,
      "chip": "ym2612"
    },
    {
      "channel": 3,
      "note": 75,
      "start": 17.9739,
      "duration": 0.4531,
      "velocity": 103,
      "chip": "ym2612"
    },
    {
      "channel": 4,
      "note": 72,
      "start": 17.9746,
      "duration": 0.4529,
      "velocity": 103,
      "chip": "ym2612"
    },
    {
      "channel": 1,
      "note": 60,
      "start": 18.0056,
      "duration": 0.0242,
      "velocity": 95,
      "chip": "ym2612"
    },
    {
      "channel": 1,
      "note": 59,
      "start": 18.0302,
      "duration": 0.0566,
      "velocity": 95,
      "chip": "ym2612"
    },
    {
      "channel": 0,
      "note": 35,
      "start": 18.0635,
      "duration": 0.0225,
      "velocity": 124,
      "chip": "ym2612"
    },
    {
      "channel": 0,
      "note": 63,
      "start": 18.0866,
      "duration": 0.0622,
      "velocity": 120,
      "chip": "ym2612"
    },
    {
      "channel": 1,
      "note": 58,
      "start": 18.0873,
      "duration": 0.0623,
      "velocity": 95,
      "chip": "ym2612"
    },
    {
      "channel": 0,
      "note": 35,
      "start": 18.1494,
      "duration": 0.0552,
      "velocity": 120,
      "chip": "ym2612"
    },
    {
      "channel": 1,
      "note": 59,
      "start": 18.15,
      "duration": 0.0551,
      "velocity": 95,
      "chip": "ym2612"
    },
    {
      "channel": 1,
      "note": 60,
      "start": 18.2056,
      "duration": 0.0227,
      "velocity": 95,
      "chip": "ym2612"
    },
    {
      "channel": 0,
      "note": 35,
      "start": 18.2593,
      "duration": 0.0602,
      "velocity": 124,
      "chip": "ym2612"
    },
    {
      "channel": 1,
      "note": 60,
      "start": 18.2927,
      "duration": 0.0276,
      "velocity": 95,
      "chip": "ym2612"
    },
    {
      "channel": 0,
      "note": 63,
      "start": 18.3201,
      "duration": 0.105,
      "velocity": 120,
      "chip": "ym2612"
    },
    {
      "channel": 1,
      "note": 59,
      "start": 18.4096,
      "duration": 0.0164,
      "velocity": 95,
      "chip": "ym2612"
    },
    {
      "channel": 0,
      "note": 35,
      "start": 18.4257,
      "duration": 0.2267,
      "velocity": 120,
      "chip": "ym2612"
    },
    {
      "channel": 1,
      "note": 60,
      "start": 18.4265,
      "duration": 0.0426,
      "velocity": 95,
      "chip": "ym2612"
    },
    {
      "channel": 3,
      "note": 74,
      "start": 18.4274,
      "duration": 0.6521,
      "velocity": 103,
      "chip": "ym2612"
    },
    {
      "channel": 4,
      "note": 69,
      "start": 18.4282,
      "duration": 0.652,
      "velocity": 103,
      "chip": "ym2612"
    },
    {
      "channel": 1,
      "note": 60,
      "start": 18.5362,
      "duration": 0.1164,
      "velocity": 95,
      "chip": "ym2612"
    },
    {
      "channel": 1,
      "note": 59,
      "start": 18.6532,
      "duration": 0.0565,
      "velocity": 95,
      "chip": "ym2612"
    },
    {
      "channel": 0,
      "note": 35,
      "start": 18.6828,
      "duration": 0.0261,
      "velocity": 124,
      "chip": "ym2612"
    },
    {
      "channel": 0,
      "note": 63,
      "start": 18.7095,
      "duration": 0.0586,
      "velocity": 120,
      "chip": "ym2612"
    },
    {
      "channel": 1,
      "note": 58,
      "start": 18.7101,
      "duration": 0.0587,
      "velocity": 95,
      "chip": "ym2612"
    },
    {
      "channel": 0,
      "note": 35,
      "start": 18.7686,
      "duration": 0.0615,
      "velocity": 120,
      "chip": "ym2612"
    },
    {
      "channel": 1,
      "note": 59,
      "start": 18.7693,
      "duration": 0.0612,
      "velocity": 95,
      "chip": "ym2612"
    },
    {
      "channel": 2,
      "note": 72,
      "start": 18.8045,
      "duration": 0.0266,
      "velocity": 118,
      "chip": "ym2612"
    },
    {
      "channel": 1,
      "note": 60,
      "start": 18.8309,
      "duration": 0.0184,
      "velocity": 95,
      "chip": "ym2612"
    },
    {
      "channel": 2,
      "note": 75,
      "start": 18.8317,
      "duration": 0.0245,
      "velocity": 118,
      "chip": "ym2612"
    },
    {
      "channel": 0,
      "note": 35,
      "start": 18.8627,
      "duration": 0.024,
      "velocity": 120,
      "chip": "ym2612"
    },
    {
      "channel": 1,
      "note": 55,
      "start": 18.8633,
      "duration": 0.0241,
      "velocity": 95,
      "chip": "ym2612"
    },
    {
      "channel": 0,
      "note": 35,
      "start": 18.8873,
      "duration": 0.0607,
      "velocity": 124,
      "chip": "ym2612"
    },
    {
      "channel": 1,
      "note": 63,
      "start": 18.8879,
      "duration": 0.0608,
      "velocity": 95,
      "chip": "ym2612"
    },
    {
      "channel": 2,
      "note": 75,
      "start": 18.8886,
      "duration": 0.0261,
      "velocity": 118,
      "chip": "ym2612"
    },
    {
      "channel": 0,
      "note": 63,
      "start": 18.9485,
      "duration": 0.0999,
      "velocity": 124,
      "chip": "ym2612"
    },
    {
      "channel": 1,
      "note": 55,
      "start": 18.9492,
      "duration": 0.0656,
      "velocity": 95,
      "chip": "ym2612"
    },
    {
      "channel": 2,
      "note": 75,
      "start": 18.9499,
      "duration": 0.0371,
      "velocity": 118,
      "chip": "ym2612"
    },
    {
      "channel": 2,
      "note": 77,
      "start": 18.9875,
      "duration": 0.0279,
      "velocity": 118,
      "chip": "ym2612"
    },
    {
      "channel": 1,
      "note": 58,
      "start": 19.0153,
      "duration": 0.0633,
      "velocity": 95,
      "chip": "ym2612"
    },
    {
      "channel": 2,
      "note": 79,
      "start": 19.016,
      "duration": 0.0335,
      "velocity": 118,
      "chip": "ym2612"
    },
    {
      "channel": 0,
      "note": 63,
      "start": 19.0491,
      "duration": 0.0287,
      "velocity": 120,
      "chip": "ym2612"
    },
    {
      "channel": 2,
      "note": 77,
      "start": 19.05,
      "duration": 0.0292,
      "velocity": 118,
      "chip": "ym2612"
    },
    {
      "channel": 0,
      "note": 35,
      "start": 19.0784,
      "duration": 0.0574,
      "velocity": 120,
      "chip": "ym2612"
    },
    {
      "channel": 1,
      "note": 60,
      "start": 19.0791,
      "duration": 0.022,
      "velocity": 95,
      "chip": "ym2612"
    },
    {
      "channel": 3,
      "note": 72,
      "start": 19.08,
      "duration": 0.4589,
      "velocity": 103,
      "chip": "ym2612"
    },
    {
      "channel": 4,
      "note": 68,
      "start": 19.0808,
      "duration": 0.4588,
      "velocity": 103,
      "chip": "ym2612"
    },
    {
      "channel": 1,
      "note": 60,
      "start": 19.1143,
      "duration": 0.0217,
      "velocity": 95,
      "chip": "ym2612"
    },
    {
      "channel": 1,
      "note": 59,
      "start": 19.1365,
      "duration": 0.0623,
      "velocity": 95,
      "chip": "ym2612"
    },
    {
      "channel": 0,
      "note": 35,
      "start": 19.1693,
      "duration": 0.0287,
      "velocity": 124,
      "chip": "ym2612"
    },
    {
      "channel": 0,
      "note": 63,
      "start": 19.1986,
      "duration": 0.0587,
      "velocity": 120,
      "chip": "ym2612"
    },
    {
      "channel": 1,
      "note": 58,
      "start": 19.1992,
      "duration": 0.0588,
      "velocity": 95,
      "chip": "ym2612"
    },
    {
      "channel": 0,
      "note": 35,
      "start": 19.2578,
      "duration": 0.0611,
      "velocity": 120,
      "chip": "ym2612"
    },
    {
      "channel": 1,
      "note": 59,
      "start": 19.2585,
      "duration": 0.061,
      "velocity": 95,
      "chip": "ym2612"
    },
    {
      "channel": 1,
      "note": 60,
      "start": 19.3199,
      "duration": 0.0195,
      "velocity": 95,
      "chip": "ym2612"
    },
    {
      "channel": 0,
      "note": 35,
      "start": 19.3705,
      "duration": 0.0567,
      "velocity": 124,
      "chip": "ym2612"
    },
    {
      "channel": 1,
      "note": 60,
      "start": 19.4006,
      "duration": 0.0274,
      "velocity": 95,
      "chip": "ym2612"
    },
    {
      "channel": 0,
      "note": 63,
      "start": 19.4278,
      "duration": 0.1088,
      "velocity": 120,
      "chip": "ym2612"
    },
    {
      "channel": 1,
      "note": 59,
      "start": 19.5213,
      "duration": 0.0161,
      "velocity": 95,
      "chip": "ym2612"
    },
    {
      "channel": 0,
      "note": 35,
      "start": 19.5372,
      "duration": 0.2228,
      "velocity": 120,
      "chip": "ym2612"
    },
    {
      "channel": 1,
      "note": 60,
      "start": 19.5379,
      "duration": 0.0389,
      "velocity": 95,
      "chip": "ym2612"
    },
    {
      "channel": 2,
      "note": 79,
      "start": 19.5388,
      "duration": 0.2221,
      "velocity": 118,
      "chip": "ym2612"
    },
    {
      "channel": 3,
      "note": 72,
      "start": 19.5394,
      "duration": 1.0572,
      "velocity": 103,
      "chip": "ym2612"
    },
    {
      "channel": 4,
      "note": 69,
      "start": 19.5402,
      "duration": 1.0577,
      "velocity": 103,
      "chip": "ym2612"
    },
    {
      "channel": 1,
      "note": 60,
      "start": 19.6439,
      "duration": 0.1163,
      "velocity": 95,
      "chip": "ym2612"
    },
    {
      "channel": 1,
      "note": 59,
      "start": 19.7607,
      "duration": 0.2856,
      "velocity": 95,
      "chip": "ym2612"
    },
    {
      "channel": 2,
      "note": 77,
      "start": 19.7615,
      "duration": 0.1653,
      "velocity": 118,
      "chip": "ym2612"
    },
    {
      "channel": 2,
      "note": 79,
      "start": 19.9274,
      "duration": 0.1195,
      "velocity": 118,
      "chip": "ym2612"
    },
    {
      "channel": 0,
      "note": 63,
      "start": 20.0461,
      "duration": 0.062,
      "velocity": 120,
      "chip": "ym2612"
    },
    {
      "channel": 1,
      "note": 58,
      "start": 20.0467,
      "duration": 0.0621,
      "velocity": 95,
      "chip": "ym2612"
    },
    {
      "channel": 2,
      "note": 77,
      "start": 20.0476,
      "duration": 0.062,
      "velocity": 118,
      "chip": "ym2612"
    },
    {
      "channel": 0,
      "note": 35,
      "start": 20.1087,
      "duration": 0.2263,
      "velocity": 120,
      "chip": "ym2612"
    },
    {
      "channel": 1,
      "note": 57,
      "start": 20.1093,
      "duration": 0.2265,
      "velocity": 95,
      "chip": "ym2612"
    },
    {
      "channel": 2,
      "note": 75,
      "start": 20.1101,
      "duration": 0.1085,
      "velocity": 118,
      "chip": "ym2612"
    },
    {
      "channel": 2,
      "note": 77,
      "start": 20.2192,
      "duration": 0.1172,
      "velocity": 118,
      "chip": "ym2612"
    },
    {
      "channel": 0,
      "note": 35,
      "start": 20.3356,
      "duration": 0.0642,
      "velocity": 120,
      "chip": "ym2612"
    },
    {
      "channel": 1,
      "note": 56,
      "start": 20.3362,
      "duration": 0.0644,
      "velocity": 95,
      "chip": "ym2612"
    },
    {
      "channel": 2,
      "note": 75,
      "start": 20.337,
      "duration": 0.0643,
      "velocity": 118,
      "chip": "ym2612"
    },
    {
      "channel": 0,
      "note": 35,
      "start": 20.4005,
      "duration": 0.0643,
      "velocity": 124,
      "chip": "ym2612"
    },
    {
      "channel": 1,
      "note": 55,
      "start": 20.401,
      "duration": 0.0645,
      "velocity": 95,
      "chip": "ym2612"
    },
    {
      "channel": 2,
      "note": 74,
      "start": 20.4019,
      "duration": 0.0339,
      "velocity": 118,
      "chip": "ym2612"
    },
    {
      "channel": 2,
      "note": 75,
      "start": 20.4363,
      "duration": 0.0299,
      "velocity": 118,
      "chip": "ym2612"
    },
    {
      "channel": 0,
      "note": 63,
      "start": 20.4653,
      "duration": 0.0622,
      "velocity": 120,
      "chip": "ym2612"
    },
    {
      "channel": 1,
      "note": 56,
      "start": 20.4659,
      "duration": 0.0623,
      "velocity": 95,
      "chip": "ym2612"
    },
    {
      "channel": 2,
      "note": 74,
      "start": 20.4667,
      "duration": 0.0622,
      "velocity": 118,
      "chip": "ym2612"
    },
    {
      "channel": 0,
      "note": 35,
      "start": 20.528,
      "duration": 0.0393,
      "velocity": 124,
      "chip": "ym2612"
    },
    {
      "channel": 1,
      "note": 59,
      "start": 20.5287,
      "duration": 0.0657,
      "velocity": 95,
      "chip": "ym2612"
    },
    {
      "channel": 2,
      "note": 72,
      "start": 20.5295,
      "duration": 0.0263,
      "velocity": 118,
      "chip": "ym2612"
    },
    {
      "channel": 0,
      "note": 63,
      "start": 20.568,
      "duration": 0.0256,
      "velocity": 120,
      "chip": "ym2612"
    },
    {
      "channel": 0,
      "note": 35,
      "start": 20.5943,
      "duration": 0.3724,
      "velocity": 120,
      "chip": "ym2612"
    },
    {
      "channel": 1,
      "note": 60,
      "start": 20.5949,
      "duration": 0.7892,
      "velocity": 95,
      "chip": "ym2612"
    },
    {
      "channel": 2,
      "note": 72,
      "start": 20.5959,
      "duration": 0.2381,
      "velocity": 118,
      "chip": "ym2612"
    },
    {
      "channel": 3,
      "note": 60,
      "start": 20.5972,
      "duration": 0.2375,
      "velocity": 103,
      "chip": "ym2612"
    },
    {
      "channel": 4,
      "note": 72,
      "start": 20.5985,
      "duration": 0.237,
      "velocity": 103,
      "chip": "ym2612"
    },
    {
      "channel": 2,
      "note": 71,
      "start": 20.8346,
      "duration": 0.266,
      "velocity": 118,
      "chip": "ym2612"
    },
    {
      "channel": 3,
      "note": 59,
      "start": 20.8353,
      "duration": 0.266,
      "velocity": 103,
      "chip": "ym2612"
    },
    {
      "channel": 4,
      "note": 71,
      "start": 20.8361,
      "duration": 0.2658,
      "velocity": 103,
      "chip": "ym2612"
    },
    {
      "channel": 0,
      "note": 35,
      "start": 20.9673,
      "duration": 0.4161,
      "velocity": 120,
      "chip": "ym2612"
    },
    {
      "channel": 2,
      "note": 72,
      "start": 21.1012,
      "duration": 0.2836,
      "velocity": 118,
      "chip": "ym2612"
    },
    {
      "channel": 3,
      "note": 60,
      "start": 21.1019,
      "duration": 0.2836,
      "velocity": 103,
      "chip": "ym2612"
    },
    {
      "channel": 4,
      "note": 72,
      "start": 21.1026,
      "duration": 0.2836,
      "velocity": 103,
      "chip": "ym2612"
    },
    {
      "channel": 0,
      "note": 35,
      "start": 21.384,
      "duration": 0.3994,
      "velocity": 120,
      "chip": "ym2612"
    },
    {
      "channel": 1,
      "note": 59,
      "start": 21.3846,
      "duration": 0.8162,
      "velocity": 95,
      "chip": "ym2612"
    },
    {
      "channel": 2,
      "note": 74,
      "start": 21.3853,
      "duration": 0.2653,
      "velocity": 118,
      "chip": "ym2612"
    },
    {
      "channel": 3,
      "note": 62,
      "start": 21.386,
      "duration": 0.2653,
      "velocity": 103,
      "chip": "ym2612"
    },
    {
      "channel": 4,
      "note": 74,
      "start": 21.3868,
      "duration": 0.2652,
      "velocity": 103,
      "chip": "ym2612"
    },
    {
      "channel": 2,
      "note": 72,
      "start": 21.6512,
      "duration": 0.2661,
      "velocity": 118,
      "chip": "ym2612"
    },
    {
      "channel": 3,
      "note": 60,
      "start": 21.6519,
      "duration": 0.2661,
      "velocity": 103,
      "chip": "ym2612"
    },
    {
      "channel": 4,
      "note": 72,
      "start": 21.6526,
      "duration": 0.266,
      "velocity": 103,
      "chip": "ym2612"
    },
    {
      "channel": 0,
      "note": 35,
      "start": 21.784,
      "duration": 0.4161,
      "velocity": 120,
      "chip": "ym2612"
    },
    {
      "channel": 2,
      "note": 74,
      "start": 21.9178,
      "duration": 0.2837,
      "velocity": 118,
      "chip": "ym2612"
    },
    {
      "channel": 3,
      "note": 62,
      "start": 21.9185,
      "duration": 0.2837,
      "velocity": 103,
      "chip": "ym2612"
    },
    {
      "channel": 4,
      "note": 74,
      "start": 21.9193,
      "duration": 0.2837,
      "velocity": 103,
      "chip": "ym2612"
    },
    {
      "channel": 0,
      "note": 35,
      "start": 22.2006,
      "duration": 0.3994,
      "velocity": 120,
      "chip": "ym2612"
    },
    {
      "channel": 1,
      "note": 58,
      "start": 22.2013,
      "duration": 0.8162,
      "velocity": 95,
      "chip": "ym2612"
    },
    {
      "channel": 2,
      "note": 75,
      "start": 22.202,
      "duration": 0.2653,
      "velocity": 118,
      "chip": "ym2612"
    },
    {
      "channel": 3,
      "note": 63,
      "start": 22.2028,
      "duration": 0.2653,
      "velocity": 103,
      "chip": "ym2612"
    },
    {
      "channel": 4,
      "note": 75,
      "start": 22.2036,
      "duration": 0.2652,
      "velocity": 103,
      "chip": "ym2612"
    },
    {
      "channel": 2,
      "note": 74,
      "start": 22.4679,
      "duration": 0.2661,
      "velocity": 118,
      "chip": "ym2612"
    },
    {
      "channel": 3,
      "note": 62,
      "start": 22.4686,
      "duration": 0.2661,
      "velocity": 103,
      "chip": "ym2612"
    },
    {
      "channel": 4,
      "note": 74,
      "start": 22.4695,
      "duration": 0.266,
      "velocity": 103,
      "chip": "ym2612"
    },
    {
      "channel": 0,
      "note": 35,
      "start": 22.6006,
      "duration": 0.1328,
      "velocity": 120,
      "chip": "ym2612"
    },
    {
      "channel": 2,
      "note": 75,
      "start": 22.7346,
      "duration": 0.1658,
      "velocity": 118,
      "chip": "ym2612"
    },
    {
      "channel": 3,
      "note": 63,
      "start": 22.7354,
      "duration": 0.1653,
      "velocity": 103,
      "chip": "ym2612"
    },
    {
      "channel": 4,
      "note": 75,
      "start": 22.7361,
      "duration": 0.1648,
      "velocity": 103,
      "chip": "ym2612"
    },
    {
      "channel": 0,
      "note": 35,
      "start": 23.0173,
      "duration": 0.3994,
      "velocity": 120,
      "chip": "ym2612"
    },
    {
      "channel": 1,
      "note": 57,
      "start": 23.0179,
      "duration": 0.8162,
      "velocity": 95,
      "chip": "ym2612"
    },
    {
      "channel": 2,
      "note": 77,
      "start": 23.0187,
      "duration": 0.2653,
      "velocity": 118,
      "chip": "ym2612"
    },
    {
      "channel": 3,
      "note": 65,
      "start": 23.0195,
      "duration": 0.2652,
      "velocity": 103,
      "chip": "ym2612"
    },
    {
      "channel": 4,
      "note": 77,
      "start": 23.0203,
      "duration": 0.2652,
      "velocity": 103,
      "chip": "ym2612"
    },
    {
      "channel": 2,
      "note": 75,
      "start": 23.2846,
      "duration": 0.266,
      "velocity": 118,
      "chip": "ym2612"
    },
    {
      "channel": 3,
      "note": 63,
      "start": 23.2853,
      "duration": 0.266,
      "velocity": 103,
      "chip": "ym2612"
    },
    {
      "channel": 4,
      "note": 75,
      "start": 23.2861,
      "duration": 0.2658,
      "velocity": 103,
      "chip": "ym2612"
    },
    {
      "channel": 0,
      "note": 35,
      "start": 23.4173,
      "duration": 0.4161,
      "velocity": 120,
      "chip": "ym2612"
    },
    {
      "channel": 2,
      "note": 77,
      "start": 23.5512,
      "duration": 0.2837,
      "velocity": 118,
      "chip": "ym2612"
    },
    {
      "channel": 3,
      "note": 65,
      "start": 23.5519,
      "duration": 0.2837,
      "velocity": 103,
      "chip": "ym2612"
    },
    {
      "channel": 4,
      "note": 77,
      "start": 23.5526,
      "duration": 0.2837,
      "velocity": 103,
      "chip": "ym2612"
    },
    {
      "channel": 0,
      "note": 35,
      "start": 23.834,
      "duration": 0.3994,
      "velocity": 120,
      "chip": "ym2612"
    },
    {
      "channel": 1,
      "note": 56,
      "start": 23.8346,
      "duration": 0.8162,
      "velocity": 95,
      "chip": "ym2612"
    },
    {
      "channel": 2,
      "note": 78,
      "start": 23.8354,
      "duration": 0.2653,
      "velocity": 118,
      "chip": "ym2612"
    },
    {
      "channel": 3,
      "note": 66,
      "start": 23.8361,
      "duration": 0.2653,
      "velocity": 103,
      "chip": "ym2612"
    },
    {
      "channel": 4,
      "note": 78,
      "start": 23.837,
      "duration": 0.2654,
      "velocity": 103,
      "chip": "ym2612"
    },
    {
      "channel": 2,
      "note": 77,
      "start": 24.1013,
      "duration": 0.266,
      "velocity": 118,
      "chip": "ym2612"
    },
    {
      "channel": 3,
      "note": 65,
      "start": 24.1021,
      "duration": 0.2659,
      "velocity": 103,
      "chip": "ym2612"
    },
    {
      "channel": 4,
      "note": 77,
      "start": 24.103,
      "duration": 0.2658,
      "velocity": 103,
      "chip": "ym2612"
    },
    {
      "channel": 0,
      "note": 35,
      "start": 24.234,
      "duration": 0.4161,
      "velocity": 120,
      "chip": "ym2612"
    },
    {
      "channel": 2,
      "note": 78,
      "start": 24.3679,
      "duration": 0.2835,
      "velocity": 118,
      "chip": "ym2612"
    },
    {
      "channel": 3,
      "note": 66,
      "start": 24.3686,
      "duration": 0.2835,
      "velocity": 103,
      "chip": "ym2612"
    },
    {
      "channel": 4,
      "note": 78,
      "start": 24.3694,
      "duration": 0.2836,
      "velocity": 103,
      "chip": "ym2612"
    },
    {
      "channel": 0,
      "note": 35,
      "start": 24.6506,
      "duration": 0.2662,
      "velocity": 120,
      "chip": "ym2612"
    },
    {
      "channel": 1,
      "note": 55,
      "start": 24.6513,
      "duration": 36.3507,
      "velocity": 95,
      "chip": "ym2612"
    },
    {
      "channel": 2,
      "note": 79,
      "start": 24.652,
      "duration": 36.3499,
      "velocity": 118,
      "chip": "ym2612"
    },
    {
      "channel": 3,
      "note": 67,
      "start": 24.6529,
      "duration": 36.349,
      "velocity": 103,
      "chip": "ym2612"
    },
    {
      "channel": 4,
      "note": 79,
      "start": 24.6536,
      "duration": 36.3483,
      "velocity": 103,
      "chip": "ym2612"
    },
    {
      "channel": 0,
      "note": 35,
      "start": 25.6068,
      "duration": 35.3951,
      "velocity": 120,
      "chip": "ym2612"
    }
  ]
}