{
  "track_name": "13 - What to do with the Hostage",
  "duration_sec": 16.528,
  "sample_rate": 44100,
  "note_count": 169,
  "unique_pitches": 12,
  "pitch_range": 36,
  "avg_note_duration": 0.2544,
  "reconstruction_stats": {
    "notes_reconstructed": 169,
    "keyon_events": 169,
    "keyoff_events": 168,
    "orphan_keyons": 1,
    "unique_pitches": 12,
    "pitch_range": 36,
    "avg_duration_sec": 0.2544
  },
  "metadata": {
    "source": "G\\Gemfire\\13 - What to do with the Hostage.vgm"
  },
  "notes": [
    {
      "channel": 1,
      "note": 78,
      "start": 0.0339,
      "duration": 0.2093,
      "velocity": 42,
      "chip": "ym2612"
    },
    {
      "channel": 0,
      "note": 61,
      "start": 0.2776,
      "duration": 0.1155,
      "velocity": 120,
      "chip": "ym2612"
    },
    {
      "channel": 1,
      "note": 81,
      "start": 0.2783,
      "duration": 0.2149,
      "velocity": 42,
      "chip": "ym2612"
    },
    {
      "channel": 0,
      "note": 61,
      "start": 0.4101,
      "duration": 0.1005,
      "velocity": 120,
      "chip": "ym2612"
    },
    {
      "channel": 0,
      "note": 61,
      "start": 0.5283,
      "duration": 0.0648,
      "velocity": 120,
      "chip": "ym2612"
    },
    {
      "channel": 1,
      "note": 86,
      "start": 0.529,
      "duration": 0.3641,
      "velocity": 42,
      "chip": "ym2612"
    },
    {
      "channel": 2,
      "note": 62,
      "start": 0.5297,
      "duration": 0.7135,
      "velocity": 96,
      "chip": "ym2612"
    },
    {
      "channel": 0,
      "note": 61,
      "start": 0.5951,
      "duration": 0.049,
      "velocity": 120,
      "chip": "ym2612"
    },
    {
      "channel": 0,
      "note": 61,
      "start": 0.6607,
      "duration": 0.0491,
      "velocity": 120,
      "chip": "ym2612"
    },
    {
      "channel": 0,
      "note": 61,
      "start": 0.7274,
      "duration": 0.049,
      "velocity": 120,
      "chip": "ym2612"
    },
    {
      "channel": 0,
      "note": 61,
      "start": 0.7784,
      "duration": 0.0647,
      "velocity": 120,
      "chip": "ym2612"
    },
    {
      "channel": 0,
      "note": 61,
      "start": 0.8451,
      "duration": 0.0517,
      "velocity": 120,
      "chip": "ym2612"
    },
    {
      "channel": 0,
      "note": 61,
      "start": 0.9107,
      "duration": 0.0491,
      "velocity": 120,
      "chip": "ym2612"
    },
    {
      "channel": 1,
      "note": 86,
      "start": 0.9113,
      "duration": 0.3511,
      "velocity": 42,
      "chip": "ym2612"
    },
    {
      "channel": 0,
      "note": 61,
      "start": 0.9774,
      "duration": 0.049,
      "velocity": 120,
      "chip": "ym2612"
    },
    {
      "channel": 0,
      "note": 61,
      "start": 1.031,
      "duration": 0.0621,
      "velocity": 120,
      "chip": "ym2612"
    },
    {
      "channel": 0,
      "note": 61,
      "start": 1.0967,
      "duration": 0.0513,
      "velocity": 120,
      "chip": "ym2612"
    },
    {
      "channel": 0,
      "note": 61,
      "start": 1.161,
      "duration": 0.0488,
      "velocity": 120,
      "chip": "ym2612"
    },
    {
      "channel": 0,
      "note": 61,
      "start": 1.2274,
      "duration": 0.049,
      "velocity": 120,
      "chip": "ym2612"
    },
    {
      "channel": 1,
      "note": 86,
      "start": 1.2773,
      "duration": 0.4826,
      "velocity": 42,
      "chip": "ym2612"
    },
    {
      "channel": 0,
      "note": 61,
      "start": 1.2809,
      "duration": 0.4789,
      "velocity": 120,
      "chip": "ym2612"
    },
    {
      "channel": 2,
      "note": 59,
      "start": 1.2816,
      "duration": 0.9616,
      "velocity": 96,
      "chip": "ym2612"
    },
    {
      "channel": 0,
      "note": 61,
      "start": 1.7819,
      "duration": 0.2291,
      "velocity": 120,
      "chip": "ym2612"
    },
    {
      "channel": 1,
      "note": 86,
      "start": 1.7825,
      "duration": 0.2286,
      "velocity": 42,
      "chip": "ym2612"
    },
    {
      "channel": 0,
      "note": 61,
      "start": 2.0277,
      "duration": 0.1154,
      "velocity": 120,
      "chip": "ym2612"
    },
    {
      "channel": 1,
      "note": 86,
      "start": 2.0283,
      "duration": 0.2325,
      "velocity": 42,
      "chip": "ym2612"
    },
    {
      "channel": 0,
      "note": 61,
      "start": 2.1601,
      "duration": 0.1006,
      "velocity": 120,
      "chip": "ym2612"
    },
    {
      "channel": 0,
      "note": 61,
      "start": 2.278,
      "duration": 0.1151,
      "velocity": 120,
      "chip": "ym2612"
    },
    {
      "channel": 1,
      "note": 86,
      "start": 2.2786,
      "duration": 0.2322,
      "velocity": 42,
      "chip": "ym2612"
    },
    {
      "channel": 2,
      "note": 57,
      "start": 2.2792,
      "duration": 0.1141,
      "velocity": 96,
      "chip": "ym2612"
    },
    {
      "channel": 0,
      "note": 61,
      "start": 2.4104,
      "duration": 0.1003,
      "velocity": 120,
      "chip": "ym2612"
    },
    {
      "channel": 0,
      "note": 61,
      "start": 2.5277,
      "duration": 0.4821,
      "velocity": 120,
      "chip": "ym2612"
    },
    {
      "channel": 1,
      "note": 88,
      "start": 2.5283,
      "duration": 0.4815,
      "velocity": 42,
      "chip": "ym2612"
    },
    {
      "channel": 2,
      "note": 55,
      "start": 2.5289,
      "duration": 0.7143,
      "velocity": 96,
      "chip": "ym2612"
    },
    {
      "channel": 0,
      "note": 61,
      "start": 3.0299,
      "duration": 0.1132,
      "velocity": 120,
      "chip": "ym2612"
    },
    {
      "channel": 1,
      "note": 86,
      "start": 3.0306,
      "duration": 0.2303,
      "velocity": 42,
      "chip": "ym2612"
    },
    {
      "channel": 0,
      "note": 61,
      "start": 3.1601,
      "duration": 0.1006,
      "velocity": 120,
      "chip": "ym2612"
    },
    {
      "channel": 0,
      "note": 61,
      "start": 3.2786,
      "duration": 0.4812,
      "velocity": 120,
      "chip": "ym2612"
    },
    {
      "channel": 1,
      "note": 90,
      "start": 3.2792,
      "duration": 0.2315,
      "velocity": 42,
      "chip": "ym2612"
    },
    {
      "channel": 2,
      "note": 57,
      "start": 3.2799,
      "duration": 0.9634,
      "velocity": 96,
      "chip": "ym2612"
    },
    {
      "channel": 0,
      "note": 61,
      "start": 3.7799,
      "duration": 0.1132,
      "velocity": 120,
      "chip": "ym2612"
    },
    {
      "channel": 0,
      "note": 61,
      "start": 3.9101,
      "duration": 0.1025,
      "velocity": 120,
      "chip": "ym2612"
    },
    {
      "channel": 0,
      "note": 61,
      "start": 4.0299,
      "duration": 0.2309,
      "velocity": 120,
      "chip": "ym2612"
    },
    {
      "channel": 1,
      "note": 78,
      "start": 4.0305,
      "duration": 0.2127,
      "velocity": 42,
      "chip": "ym2612"
    },
    {
      "channel": 0,
      "note": 61,
      "start": 4.2786,
      "duration": 0.1145,
      "velocity": 120,
      "chip": "ym2612"
    },
    {
      "channel": 1,
      "note": 81,
      "start": 4.2792,
      "duration": 0.2139,
      "velocity": 42,
      "chip": "ym2612"
    },
    {
      "channel": 2,
      "note": 61,
      "start": 4.2799,
      "duration": 0.2301,
      "velocity": 96,
      "chip": "ym2612"
    },
    {
      "channel": 0,
      "note": 61,
      "start": 4.4104,
      "duration": 0.0994,
      "velocity": 120,
      "chip": "ym2612"
    },
    {
      "channel": 0,
      "note": 61,
      "start": 4.5283,
      "duration": 0.049,
      "velocity": 120,
      "chip": "ym2612"
    },
    {
      "channel": 1,
      "note": 86,
      "start": 4.5289,
      "duration": 0.3642,
      "velocity": 42,
      "chip": "ym2612"
    },
    {
      "channel": 2,
      "note": 62,
      "start": 4.5295,
      "duration": 0.7137,
      "velocity": 96,
      "chip": "ym2612"
    },
    {
      "channel": 0,
      "note": 61,
      "start": 4.594,
      "duration": 0.0501,
      "velocity": 120,
      "chip": "ym2612"
    },
    {
      "channel": 0,
      "note": 61,
      "start": 4.6607,
      "duration": 0.049,
      "velocity": 120,
      "chip": "ym2612"
    },
    {
      "channel": 0,
      "note": 61,
      "start": 4.7274,
      "duration": 0.049,
      "velocity": 120,
      "chip": "ym2612"
    },
    {
      "channel": 0,
      "note": 61,
      "start": 4.7784,
      "duration": 0.049,
      "velocity": 120,
      "chip": "ym2612"
    },
    {
      "channel": 0,
      "note": 61,
      "start": 4.844,
      "duration": 0.0528,
      "velocity": 120,
      "chip": "ym2612"
    },
    {
      "channel": 0,
      "note": 61,
      "start": 4.9107,
      "duration": 0.049,
      "velocity": 120,
      "chip": "ym2612"
    },
    {
      "channel": 1,
      "note": 86,
      "start": 4.9113,
      "duration": 0.3485,
      "velocity": 42,
      "chip": "ym2612"
    },
    {
      "channel": 0,
      "note": 61,
      "start": 4.9774,
      "duration": 0.049,
      "velocity": 120,
      "chip": "ym2612"
    },
    {
      "channel": 0,
      "note": 61,
      "start": 5.031,
      "duration": 0.0492,
      "velocity": 120,
      "chip": "ym2612"
    },
    {
      "channel": 0,
      "note": 61,
      "start": 5.094,
      "duration": 0.052,
      "velocity": 120,
      "chip": "ym2612"
    },
    {
      "channel": 0,
      "note": 61,
      "start": 5.1607,
      "duration": 0.049,
      "velocity": 120,
      "chip": "ym2612"
    },
    {
      "channel": 0,
      "note": 61,
      "start": 5.2274,
      "duration": 0.049,
      "velocity": 120,
      "chip": "ym2612"
    },
    {
      "channel": 0,
      "note": 61,
      "start": 5.2803,
      "duration": 0.4656,
      "velocity": 120,
      "chip": "ym2612"
    },
    {
      "channel": 1,
      "note": 86,
      "start": 5.281,
      "duration": 0.4652,
      "velocity": 42,
      "chip": "ym2612"
    },
    {
      "channel": 2,
      "note": 59,
      "start": 5.2816,
      "duration": 0.9616,
      "velocity": 96,
      "chip": "ym2612"
    },
    {
      "channel": 0,
      "note": 61,
      "start": 5.7819,
      "duration": 0.2279,
      "velocity": 120,
      "chip": "ym2612"
    },
    {
      "channel": 1,
      "note": 86,
      "start": 5.7825,
      "duration": 0.2273,
      "velocity": 42,
      "chip": "ym2612"
    },
    {
      "channel": 0,
      "note": 61,
      "start": 6.0293,
      "duration": 0.1138,
      "velocity": 120,
      "chip": "ym2612"
    },
    {
      "channel": 1,
      "note": 86,
      "start": 6.0299,
      "duration": 0.23,
      "velocity": 42,
      "chip": "ym2612"
    },
    {
      "channel": 0,
      "note": 61,
      "start": 6.1601,
      "duration": 0.0997,
      "velocity": 120,
      "chip": "ym2612"
    },
    {
      "channel": 0,
      "note": 61,
      "start": 6.278,
      "duration": 0.1151,
      "velocity": 120,
      "chip": "ym2612"
    },
    {
      "channel": 1,
      "note": 86,
      "start": 6.2786,
      "duration": 0.2313,
      "velocity": 42,
      "chip": "ym2612"
    },
    {
      "channel": 2,
      "note": 57,
      "start": 6.2792,
      "duration": 0.2309,
      "velocity": 96,
      "chip": "ym2612"
    },
    {
      "channel": 0,
      "note": 61,
      "start": 6.4104,
      "duration": 0.0994,
      "velocity": 120,
      "chip": "ym2612"
    },
    {
      "channel": 0,
      "note": 61,
      "start": 6.5303,
      "duration": 0.4637,
      "velocity": 120,
      "chip": "ym2612"
    },
    {
      "channel": 1,
      "note": 88,
      "start": 6.531,
      "duration": 0.4632,
      "velocity": 42,
      "chip": "ym2612"
    },
    {
      "channel": 2,
      "note": 55,
      "start": 6.5315,
      "duration": 0.7117,
      "velocity": 96,
      "chip": "ym2612"
    },
    {
      "channel": 0,
      "note": 61,
      "start": 7.0299,
      "duration": 0.1132,
      "velocity": 120,
      "chip": "ym2612"
    },
    {
      "channel": 1,
      "note": 86,
      "start": 7.0306,
      "duration": 0.2293,
      "velocity": 42,
      "chip": "ym2612"
    },
    {
      "channel": 0,
      "note": 61,
      "start": 7.1601,
      "duration": 0.0997,
      "velocity": 120,
      "chip": "ym2612"
    },
    {
      "channel": 0,
      "note": 61,
      "start": 7.2786,
      "duration": 0.4658,
      "velocity": 120,
      "chip": "ym2612"
    },
    {
      "channel": 1,
      "note": 86,
      "start": 7.2792,
      "duration": 0.4653,
      "velocity": 42,
      "chip": "ym2612"
    },
    {
      "channel": 2,
      "note": 62,
      "start": 7.2799,
      "duration": 0.9634,
      "velocity": 96,
      "chip": "ym2612"
    },
    {
      "channel": 0,
      "note": 61,
      "start": 7.7799,
      "duration": 0.2298,
      "velocity": 120,
      "chip": "ym2612"
    },
    {
      "channel": 0,
      "note": 61,
      "start": 8.0293,
      "duration": 0.2305,
      "velocity": 120,
      "chip": "ym2612"
    },
    {
      "channel": 1,
      "note": 90,
      "start": 8.0299,
      "duration": 0.1133,
      "velocity": 42,
      "chip": "ym2612"
    },
    {
      "channel": 1,
      "note": 88,
      "start": 8.1602,
      "duration": 0.0997,
      "velocity": 42,
      "chip": "ym2612"
    },
    {
      "channel": 0,
      "note": 57,
      "start": 8.2786,
      "duration": 0.1145,
      "velocity": 120,
      "chip": "ym2612"
    },
    {
      "channel": 1,
      "note": 86,
      "start": 8.2792,
      "duration": 0.2307,
      "velocity": 42,
      "chip": "ym2612"
    },
    {
      "channel": 0,
      "note": 57,
      "start": 8.4104,
      "duration": 0.0994,
      "velocity": 120,
      "chip": "ym2612"
    },
    {
      "channel": 0,
      "note": 61,
      "start": 8.5283,
      "duration": 0.049,
      "velocity": 120,
      "chip": "ym2612"
    },
    {
      "channel": 1,
      "note": 88,
      "start": 8.5289,
      "duration": 0.7142,
      "velocity": 42,
      "chip": "ym2612"
    },
    {
      "channel": 2,
      "note": 59,
      "start": 8.5295,
      "duration": 1.6646,
      "velocity": 96,
      "chip": "ym2612"
    },
    {
      "channel": 0,
      "note": 61,
      "start": 8.594,
      "duration": 0.0501,
      "velocity": 120,
      "chip": "ym2612"
    },
    {
      "channel": 0,
      "note": 61,
      "start": 8.6607,
      "duration": 0.049,
      "velocity": 120,
      "chip": "ym2612"
    },
    {
      "channel": 0,
      "note": 61,
      "start": 8.7274,
      "duration": 0.049,
      "velocity": 120,
      "chip": "ym2612"
    },
    {
      "channel": 0,
      "note": 61,
      "start": 8.7784,
      "duration": 0.049,
      "velocity": 120,
      "chip": "ym2612"
    },
    {
      "channel": 0,
      "note": 61,
      "start": 8.844,
      "duration": 0.0491,
      "velocity": 120,
      "chip": "ym2612"
    },
    {
      "channel": 0,
      "note": 61,
      "start": 8.9107,
      "duration": 0.049,
      "velocity": 120,
      "chip": "ym2612"
    },
    {
      "channel": 0,
      "note": 61,
      "start": 8.9628,
      "duration": 0.0636,
      "velocity": 120,
      "chip": "ym2612"
    },
    {
      "channel": 0,
      "note": 61,
      "start": 9.032,
      "duration": 0.2278,
      "velocity": 120,
      "chip": "ym2612"
    },
    {
      "channel": 0,
      "note": 61,
      "start": 9.2812,
      "duration": 0.4648,
      "velocity": 120,
      "chip": "ym2612"
    },
    {
      "channel": 1,
      "note": 86,
      "start": 9.2818,
      "duration": 0.7113,
      "velocity": 42,
      "chip": "ym2612"
    },
    {
      "channel": 0,
      "note": 61,
      "start": 9.782,
      "duration": 0.2278,
      "velocity": 120,
      "chip": "ym2612"
    },
    {
      "channel": 0,
      "note": 61,
      "start": 10.0309,
      "duration": 0.0965,
      "velocity": 120,
      "chip": "ym2612"
    },
    {
      "channel": 1,
      "note": 86,
      "start": 10.0315,
      "duration": 0.2284,
      "velocity": 42,
      "chip": "ym2612"
    },
    {
      "channel": 0,
      "note": 61,
      "start": 10.1601,
      "duration": 0.0997,
      "velocity": 120,
      "chip": "ym2612"
    },
    {
      "channel": 0,
      "note": 61,
      "start": 10.278,
      "duration": 0.0994,
      "velocity": 120,
      "chip": "ym2612"
    },
    {
      "channel": 1,
      "note": 83,
      "start": 10.2786,
      "duration": 0.2313,
      "velocity": 42,
      "chip": "ym2612"
    },
    {
      "channel": 2,
      "note": 62,
      "start": 10.2792,
      "duration": 0.2309,
      "velocity": 96,
      "chip": "ym2612"
    },
    {
      "channel": 0,
      "note": 61,
      "start": 10.4104,
      "duration": 0.0994,
      "velocity": 120,
      "chip": "ym2612"
    },
    {
      "channel": 0,
      "note": 61,
      "start": 10.5303,
      "duration": 0.0971,
      "velocity": 120,
      "chip": "ym2612"
    },
    {
      "channel": 1,
      "note": 86,
      "start": 10.531,
      "duration": 0.2289,
      "velocity": 42,
      "chip": "ym2612"
    },
    {
      "channel": 2,
      "note": 57,
      "start": 10.5315,
      "duration": 1.6627,
      "velocity": 96,
      "chip": "ym2612"
    },
    {
      "channel": 0,
      "note": 61,
      "start": 10.6601,
      "duration": 0.0997,
      "velocity": 120,
      "chip": "ym2612"
    },
    {
      "channel": 0,
      "note": 61,
      "start": 10.7777,
      "duration": 0.1,
      "velocity": 120,
      "chip": "ym2612"
    },
    {
      "channel": 1,
      "note": 86,
      "start": 10.7783,
      "duration": 0.4658,
      "velocity": 42,
      "chip": "ym2612"
    },
    {
      "channel": 0,
      "note": 61,
      "start": 10.9101,
      "duration": 0.0997,
      "velocity": 120,
      "chip": "ym2612"
    },
    {
      "channel": 0,
      "note": 61,
      "start": 11.0277,
      "duration": 0.0997,
      "velocity": 120,
      "chip": "ym2612"
    },
    {
      "channel": 0,
      "note": 61,
      "start": 11.1601,
      "duration": 0.0997,
      "velocity": 120,
      "chip": "ym2612"
    },
    {
      "channel": 0,
      "note": 61,
      "start": 11.2796,
      "duration": 0.0978,
      "velocity": 120,
      "chip": "ym2612"
    },
    {
      "channel": 1,
      "note": 83,
      "start": 11.2802,
      "duration": 0.2296,
      "velocity": 42,
      "chip": "ym2612"
    },
    {
      "channel": 0,
      "note": 61,
      "start": 11.4104,
      "duration": 0.0994,
      "velocity": 120,
      "chip": "ym2612"
    },
    {
      "channel": 0,
      "note": 61,
      "start": 11.5277,
      "duration": 0.2321,
      "velocity": 120,
      "chip": "ym2612"
    },
    {
      "channel": 1,
      "note": 81,
      "start": 11.5283,
      "duration": 0.4658,
      "velocity": 42,
      "chip": "ym2612"
    },
    {
      "channel": 0,
      "note": 61,
      "start": 11.7783,
      "duration": 0.2314,
      "velocity": 120,
      "chip": "ym2612"
    },
    {
      "channel": 0,
      "note": 61,
      "start": 12.0293,
      "duration": 0.2305,
      "velocity": 120,
      "chip": "ym2612"
    },
    {
      "channel": 1,
      "note": 81,
      "start": 12.0299,
      "duration": 0.4642,
      "velocity": 42,
      "chip": "ym2612"
    },
    {
      "channel": 0,
      "note": 61,
      "start": 12.2786,
      "duration": 0.0988,
      "velocity": 120,
      "chip": "ym2612"
    },
    {
      "channel": 2,
      "note": 59,
      "start": 12.2793,
      "duration": 0.2307,
      "velocity": 96,
      "chip": "ym2612"
    },
    {
      "channel": 0,
      "note": 61,
      "start": 12.4104,
      "duration": 0.0994,
      "velocity": 120,
      "chip": "ym2612"
    },
    {
      "channel": 0,
      "note": 61,
      "start": 12.5293,
      "duration": 0.4663,
      "velocity": 120,
      "chip": "ym2612"
    },
    {
      "channel": 1,
      "note": 83,
      "start": 12.5299,
      "duration": 0.4659,
      "velocity": 42,
      "chip": "ym2612"
    },
    {
      "channel": 2,
      "note": 55,
      "start": 12.5305,
      "duration": 0.9627,
      "velocity": 96,
      "chip": "ym2612"
    },
    {
      "channel": 0,
      "note": 61,
      "start": 13.032,
      "duration": 0.097,
      "velocity": 120,
      "chip": "ym2612"
    },
    {
      "channel": 1,
      "note": 86,
      "start": 13.0326,
      "duration": 0.4616,
      "velocity": 42,
      "chip": "ym2612"
    },
    {
      "channel": 0,
      "note": 61,
      "start": 13.1601,
      "duration": 0.0997,
      "velocity": 120,
      "chip": "ym2612"
    },
    {
      "channel": 0,
      "note": 61,
      "start": 13.2796,
      "duration": 0.4663,
      "velocity": 120,
      "chip": "ym2612"
    },
    {
      "channel": 1,
      "note": 86,
      "start": 13.5269,
      "duration": 0.2329,
      "velocity": 42,
      "chip": "ym2612"
    },
    {
      "channel": 2,
      "note": 54,
      "start": 13.5274,
      "duration": 0.7158,
      "velocity": 96,
      "chip": "ym2612"
    },
    {
      "channel": 0,
      "note": 61,
      "start": 13.7768,
      "duration": 0.233,
      "velocity": 120,
      "chip": "ym2612"
    },
    {
      "channel": 1,
      "note": 86,
      "start": 13.7774,
      "duration": 0.2325,
      "velocity": 42,
      "chip": "ym2612"
    },
    {
      "channel": 0,
      "note": 61,
      "start": 14.0268,
      "duration": 0.1006,
      "velocity": 120,
      "chip": "ym2612"
    },
    {
      "channel": 1,
      "note": 83,
      "start": 14.0274,
      "duration": 0.2325,
      "velocity": 42,
      "chip": "ym2612"
    },
    {
      "channel": 0,
      "note": 61,
      "start": 14.1601,
      "duration": 0.0997,
      "velocity": 120,
      "chip": "ym2612"
    },
    {
      "channel": 1,
      "note": 86,
      "start": 14.2773,
      "duration": 0.2326,
      "velocity": 42,
      "chip": "ym2612"
    },
    {
      "channel": 2,
      "note": 54,
      "start": 14.278,
      "duration": 0.2321,
      "velocity": 96,
      "chip": "ym2612"
    },
    {
      "channel": 0,
      "note": 61,
      "start": 14.4104,
      "duration": 0.0994,
      "velocity": 120,
      "chip": "ym2612"
    },
    {
      "channel": 0,
      "note": 61,
      "start": 14.5268,
      "duration": 0.233,
      "velocity": 120,
      "chip": "ym2612"
    },
    {
      "channel": 1,
      "note": 88,
      "start": 14.5274,
      "duration": 0.2325,
      "velocity": 42,
      "chip": "ym2612"
    },
    {
      "channel": 2,
      "note": 57,
      "start": 14.528,
      "duration": 0.4662,
      "velocity": 96,
      "chip": "ym2612"
    },
    {
      "channel": 0,
      "note": 61,
      "start": 14.7768,
      "duration": 0.233,
      "velocity": 120,
      "chip": "ym2612"
    },
    {
      "channel": 1,
      "note": 90,
      "start": 14.7774,
      "duration": 0.2325,
      "velocity": 42,
      "chip": "ym2612"
    },
    {
      "channel": 0,
      "note": 61,
      "start": 15.0268,
      "duration": 0.1006,
      "velocity": 120,
      "chip": "ym2612"
    },
    {
      "channel": 1,
      "note": 88,
      "start": 15.0274,
      "duration": 0.2325,
      "velocity": 42,
      "chip": "ym2612"
    },
    {
      "channel": 2,
      "note": 57,
      "start": 15.028,
      "duration": 0.2321,
      "velocity": 96,
      "chip": "ym2612"
    },
    {
      "channel": 0,
      "note": 61,
      "start": 15.1601,
      "duration": 0.0997,
      "velocity": 120,
      "chip": "ym2612"
    },
    {
      "channel": 0,
      "note": 61,
      "start": 15.2771,
      "duration": 0.1003,
      "velocity": 120,
      "chip": "ym2612"
    },
    {
      "channel": 1,
      "note": 86,
      "start": 15.2777,
      "duration": 0.7154,
      "velocity": 42,
      "chip": "ym2612"
    },
    {
      "channel": 2,
      "note": 62,
      "start": 15.2783,
      "duration": 0.715,
      "velocity": 96,
      "chip": "ym2612"
    },
    {
      "channel": 0,
      "note": 61,
      "start": 15.4104,
      "duration": 0.0994,
      "velocity": 120,
      "chip": "ym2612"
    },
    {
      "channel": 0,
      "note": 61,
      "start": 15.5268,
      "duration": 0.233,
      "velocity": 120,
      "chip": "ym2612"
    },
    {
      "channel": 0,
      "note": 61,
      "start": 15.7768,
      "duration": 0.233,
      "velocity": 120,
      "chip": "ym2612"
    },
    {
      "channel": 1,
      "note": 78,
      "start": 16.027,
      "duration": 0.2328,
      "velocity": 42,
      "chip": "ym2612"
    },
    {
      "channel": 0,
      "note": 61,
      "start": 16.2771,
      "duration": 0.1003,
      "velocity": 120,
      "chip": "ym2612"
    },
    {
      "channel": 1,
      "note": 81,
      "start": 16.2777,
      "duration": 0.2322,
      "velocity": 42,
      "chip": "ym2612"
    },
    {
      "channel": 0,
      "note": 61,
      "start": 16.4104,
      "duration": 0.0994,
      "velocity": 120,
      "chip": "ym2612"
    },
    {
      "channel": 0,
      "note": 61,
      "start": 16.5276,
      "duration": 0.0003,
      "velocity": 120,
      "chip": "ym2612"
    }
  ]
}