{
  "track_name": "13 - Iceland",
  "duration_sec": 44.124,
  "sample_rate": 44100,
  "note_count": 650,
  "unique_pitches": 43,
  "pitch_range": 98,
  "avg_note_duration": 0.2865,
  "reconstruction_stats": {
    "notes_reconstructed": 650,
    "keyon_events": 650,
    "keyoff_events": 647,
    "orphan_keyons": 3,
    "unique_pitches": 43,
    "pitch_range": 98,
    "avg_duration_sec": 0.2865
  },
  "metadata": {
    "source": "V\\Valis III\\13 - Iceland.vgz"
  },
  "notes": [
    {
      "channel": 0,
      "note": -1,
      "start": 0.0197,
      "duration": 0.2885,
      "velocity": 97,
      "chip": "ym2612"
    },
    {
      "channel": 1,
      "note": -1,
      "start": 0.0254,
      "duration": 0.2832,
      "velocity": 97,
      "chip": "ym2612"
    },
    {
      "channel": 3,
      "note": -1,
      "start": 0.031,
      "duration": 0.278,
      "velocity": 97,
      "chip": "ym2612"
    },
    {
      "channel": 4,
      "note": -1,
      "start": 0.0364,
      "duration": 0.2729,
      "velocity": 77,
      "chip": "ym2612"
    },
    {
      "channel": 5,
      "note": -1,
      "start": 0.0408,
      "duration": 0.3284,
      "velocity": 112,
      "chip": "ym2612"
    },
    {
      "channel": 0,
      "note": 90,
      "start": 0.3644,
      "duration": 0.2742,
      "velocity": 97,
      "chip": "ym2612"
    },
    {
      "channel": 1,
      "note": 85,
      "start": 0.366,
      "duration": 0.2731,
      "velocity": 97,
      "chip": "ym2612"
    },
    {
      "channel": 3,
      "note": 80,
      "start": 0.3675,
      "duration": 0.272,
      "velocity": 97,
      "chip": "ym2612"
    },
    {
      "channel": 4,
      "note": 51,
      "start": 0.3689,
      "duration": 0.2709,
      "velocity": 77,
      "chip": "ym2612"
    },
    {
      "channel": 5,
      "note": 52,
      "start": 0.3731,
      "duration": 0.3267,
      "velocity": 112,
      "chip": "ym2612"
    },
    {
      "channel": 0,
      "note": 90,
      "start": 0.6949,
      "duration": 0.1478,
      "velocity": 97,
      "chip": "ym2612"
    },
    {
      "channel": 1,
      "note": 85,
      "start": 0.6964,
      "duration": 0.1466,
      "velocity": 97,
      "chip": "ym2612"
    },
    {
      "channel": 3,
      "note": 80,
      "start": 0.698,
      "duration": 0.1455,
      "velocity": 97,
      "chip": "ym2612"
    },
    {
      "channel": 4,
      "note": 51,
      "start": 0.6994,
      "duration": 0.1444,
      "velocity": 77,
      "chip": "ym2612"
    },
    {
      "channel": 5,
      "note": 52,
      "start": 0.7036,
      "duration": 0.2125,
      "velocity": 112,
      "chip": "ym2612"
    },
    {
      "channel": 5,
      "note": 56,
      "start": 0.9198,
      "duration": 0.1055,
      "velocity": 112,
      "chip": "ym2612"
    },
    {
      "channel": 5,
      "note": 45,
      "start": 1.0291,
      "duration": 0.1064,
      "velocity": 112,
      "chip": "ym2612"
    },
    {
      "channel": 5,
      "note": 38,
      "start": 1.1393,
      "duration": 0.1063,
      "velocity": 112,
      "chip": "ym2612"
    },
    {
      "channel": 5,
      "note": 33,
      "start": 1.2493,
      "duration": 0.1065,
      "velocity": 112,
      "chip": "ym2612"
    },
    {
      "channel": 5,
      "note": 33,
      "start": 1.3596,
      "duration": 0.0696,
      "velocity": 126,
      "chip": "ym2612"
    },
    {
      "channel": 5,
      "note": 20,
      "start": 1.4329,
      "duration": 0.0697,
      "velocity": 126,
      "chip": "ym2612"
    },
    {
      "channel": 5,
      "note": 20,
      "start": 1.5063,
      "duration": 0.0698,
      "velocity": 126,
      "chip": "ym2612"
    },
    {
      "channel": 5,
      "note": 19,
      "start": 1.5798,
      "duration": 0.1064,
      "velocity": 126,
      "chip": "ym2612"
    },
    {
      "channel": 5,
      "note": 18,
      "start": 1.6899,
      "duration": 0.1224,
      "velocity": 126,
      "chip": "ym2612"
    },
    {
      "channel": 0,
      "note": 90,
      "start": 1.7999,
      "duration": 0.1973,
      "velocity": 107,
      "chip": "ym2612"
    },
    {
      "channel": 1,
      "note": 85,
      "start": 1.805,
      "duration": 1.6978,
      "velocity": 79,
      "chip": "ym2612"
    },
    {
      "channel": 3,
      "note": 80,
      "start": 1.8102,
      "duration": 1.693,
      "velocity": 79,
      "chip": "ym2612"
    },
    {
      "channel": 4,
      "note": 51,
      "start": 1.812,
      "duration": 0.1861,
      "velocity": 77,
      "chip": "ym2612"
    },
    {
      "channel": 5,
      "note": 18,
      "start": 1.8165,
      "duration": 0.4412,
      "velocity": 112,
      "chip": "ym2612"
    },
    {
      "channel": 0,
      "note": 54,
      "start": 2.0349,
      "duration": 0.1842,
      "velocity": 107,
      "chip": "ym2612"
    },
    {
      "channel": 4,
      "note": 51,
      "start": 2.0369,
      "duration": 0.1831,
      "velocity": 77,
      "chip": "ym2612"
    },
    {
      "channel": 0,
      "note": 51,
      "start": 2.2552,
      "duration": 0.0908,
      "velocity": 107,
      "chip": "ym2612"
    },
    {
      "channel": 4,
      "note": 49,
      "start": 2.2573,
      "duration": 0.0897,
      "velocity": 77,
      "chip": "ym2612"
    },
    {
      "channel": 5,
      "note": 46,
      "start": 2.2613,
      "duration": 0.3267,
      "velocity": 126,
      "chip": "ym2612"
    },
    {
      "channel": 0,
      "note": 54,
      "start": 2.5857,
      "duration": 0.0908,
      "velocity": 107,
      "chip": "ym2612"
    },
    {
      "channel": 4,
      "note": 51,
      "start": 2.5877,
      "duration": 0.0897,
      "velocity": 77,
      "chip": "ym2612"
    },
    {
      "channel": 5,
      "note": 0,
      "start": 2.5919,
      "duration": 0.2165,
      "velocity": 112,
      "chip": "ym2612"
    },
    {
      "channel": 0,
      "note": 51,
      "start": 2.806,
      "duration": 0.0921,
      "velocity": 107,
      "chip": "ym2612"
    },
    {
      "channel": 4,
      "note": 51,
      "start": 2.808,
      "duration": 0.091,
      "velocity": 77,
      "chip": "ym2612"
    },
    {
      "channel": 5,
      "note": 56,
      "start": 2.8122,
      "duration": 0.1069,
      "velocity": 112,
      "chip": "ym2612"
    },
    {
      "channel": 0,
      "note": 51,
      "start": 2.9167,
      "duration": 0.182,
      "velocity": 107,
      "chip": "ym2612"
    },
    {
      "channel": 4,
      "note": 51,
      "start": 2.9187,
      "duration": 0.1809,
      "velocity": 77,
      "chip": "ym2612"
    },
    {
      "channel": 5,
      "note": 59,
      "start": 2.9229,
      "duration": 0.2158,
      "velocity": 112,
      "chip": "ym2612"
    },
    {
      "channel": 0,
      "note": 49,
      "start": 3.1364,
      "duration": 0.1826,
      "velocity": 107,
      "chip": "ym2612"
    },
    {
      "channel": 4,
      "note": 49,
      "start": 3.1384,
      "duration": 0.1815,
      "velocity": 77,
      "chip": "ym2612"
    },
    {
      "channel": 5,
      "note": 56,
      "start": 3.1425,
      "duration": 0.4404,
      "velocity": 126,
      "chip": "ym2612"
    },
    {
      "channel": 0,
      "note": 46,
      "start": 3.3567,
      "duration": 0.1826,
      "velocity": 107,
      "chip": "ym2612"
    },
    {
      "channel": 4,
      "note": 51,
      "start": 3.3587,
      "duration": 0.1816,
      "velocity": 77,
      "chip": "ym2612"
    },
    {
      "channel": 0,
      "note": 49,
      "start": 3.578,
      "duration": 0.1816,
      "velocity": 107,
      "chip": "ym2612"
    },
    {
      "channel": 1,
      "note": 85,
      "start": 3.5795,
      "duration": 1.6876,
      "velocity": 79,
      "chip": "ym2612"
    },
    {
      "channel": 3,
      "note": 82,
      "start": 3.5811,
      "duration": 1.6864,
      "velocity": 79,
      "chip": "ym2612"
    },
    {
      "channel": 4,
      "note": 49,
      "start": 3.5825,
      "duration": 0.178,
      "velocity": 77,
      "chip": "ym2612"
    },
    {
      "channel": 5,
      "note": 0,
      "start": 3.5867,
      "duration": 0.4333,
      "velocity": 112,
      "chip": "ym2612"
    },
    {
      "channel": 0,
      "note": 54,
      "start": 3.7973,
      "duration": 0.1826,
      "velocity": 107,
      "chip": "ym2612"
    },
    {
      "channel": 4,
      "note": 51,
      "start": 3.7993,
      "duration": 0.1815,
      "velocity": 77,
      "chip": "ym2612"
    },
    {
      "channel": 0,
      "note": 51,
      "start": 4.0176,
      "duration": 0.0908,
      "velocity": 107,
      "chip": "ym2612"
    },
    {
      "channel": 4,
      "note": 49,
      "start": 4.0196,
      "duration": 0.0897,
      "velocity": 77,
      "chip": "ym2612"
    },
    {
      "channel": 5,
      "note": 47,
      "start": 4.0237,
      "duration": 0.3267,
      "velocity": 126,
      "chip": "ym2612"
    },
    {
      "channel": 0,
      "note": 54,
      "start": 4.3481,
      "duration": 0.0908,
      "velocity": 107,
      "chip": "ym2612"
    },
    {
      "channel": 4,
      "note": 51,
      "start": 4.35,
      "duration": 0.0898,
      "velocity": 77,
      "chip": "ym2612"
    },
    {
      "channel": 5,
      "note": 0,
      "start": 4.3542,
      "duration": 0.2166,
      "velocity": 112,
      "chip": "ym2612"
    },
    {
      "channel": 0,
      "note": 51,
      "start": 4.5684,
      "duration": 0.0908,
      "velocity": 107,
      "chip": "ym2612"
    },
    {
      "channel": 4,
      "note": 51,
      "start": 4.5704,
      "duration": 0.0897,
      "velocity": 77,
      "chip": "ym2612"
    },
    {
      "channel": 5,
      "note": 56,
      "start": 4.5746,
      "duration": 0.1062,
      "velocity": 112,
      "chip": "ym2612"
    },
    {
      "channel": 0,
      "note": 51,
      "start": 4.6785,
      "duration": 0.1826,
      "velocity": 107,
      "chip": "ym2612"
    },
    {
      "channel": 4,
      "note": 51,
      "start": 4.6805,
      "duration": 0.1815,
      "velocity": 77,
      "chip": "ym2612"
    },
    {
      "channel": 5,
      "note": 59,
      "start": 4.6847,
      "duration": 0.2165,
      "velocity": 112,
      "chip": "ym2612"
    },
    {
      "channel": 0,
      "note": 49,
      "start": 4.8988,
      "duration": 0.1825,
      "velocity": 107,
      "chip": "ym2612"
    },
    {
      "channel": 4,
      "note": 49,
      "start": 4.9008,
      "duration": 0.1815,
      "velocity": 77,
      "chip": "ym2612"
    },
    {
      "channel": 5,
      "note": 56,
      "start": 4.9048,
      "duration": 0.1042,
      "velocity": 126,
      "chip": "ym2612"
    },
    {
      "channel": 5,
      "note": 16,
      "start": 5.0127,
      "duration": 0.3323,
      "velocity": 126,
      "chip": "ym2612"
    },
    {
      "channel": 0,
      "note": 46,
      "start": 5.1191,
      "duration": 0.1826,
      "velocity": 107,
      "chip": "ym2612"
    },
    {
      "channel": 4,
      "note": 51,
      "start": 5.1211,
      "duration": 0.1815,
      "velocity": 77,
      "chip": "ym2612"
    },
    {
      "channel": 0,
      "note": 49,
      "start": 5.3396,
      "duration": 0.1824,
      "velocity": 107,
      "chip": "ym2612"
    },
    {
      "channel": 1,
      "note": 87,
      "start": 5.3413,
      "duration": 1.6863,
      "velocity": 79,
      "chip": "ym2612"
    },
    {
      "channel": 3,
      "note": 84,
      "start": 5.3431,
      "duration": 1.6849,
      "velocity": 79,
      "chip": "ym2612"
    },
    {
      "channel": 4,
      "note": 49,
      "start": 5.3446,
      "duration": 0.1783,
      "velocity": 77,
      "chip": "ym2612"
    },
    {
      "channel": 5,
      "note": 0,
      "start": 5.349,
      "duration": 0.4333,
      "velocity": 112,
      "chip": "ym2612"
    },
    {
      "channel": 0,
      "note": 54,
      "start": 5.5597,
      "duration": 0.1826,
      "velocity": 107,
      "chip": "ym2612"
    },
    {
      "channel": 4,
      "note": 51,
      "start": 5.5616,
      "duration": 0.1816,
      "velocity": 77,
      "chip": "ym2612"
    },
    {
      "channel": 0,
      "note": 51,
      "start": 5.78,
      "duration": 0.0908,
      "velocity": 107,
      "chip": "ym2612"
    },
    {
      "channel": 4,
      "note": 49,
      "start": 5.7819,
      "duration": 0.0898,
      "velocity": 77,
      "chip": "ym2612"
    },
    {
      "channel": 5,
      "note": 47,
      "start": 5.786,
      "duration": 0.3268,
      "velocity": 126,
      "chip": "ym2612"
    },
    {
      "channel": 0,
      "note": 54,
      "start": 6.1104,
      "duration": 0.0908,
      "velocity": 107,
      "chip": "ym2612"
    },
    {
      "channel": 4,
      "note": 51,
      "start": 6.1124,
      "duration": 0.0898,
      "velocity": 77,
      "chip": "ym2612"
    },
    {
      "channel": 5,
      "note": 0,
      "start": 6.1166,
      "duration": 0.2165,
      "velocity": 112,
      "chip": "ym2612"
    },
    {
      "channel": 0,
      "note": 51,
      "start": 6.3308,
      "duration": 0.0908,
      "velocity": 107,
      "chip": "ym2612"
    },
    {
      "channel": 4,
      "note": 51,
      "start": 6.3327,
      "duration": 0.0898,
      "velocity": 77,
      "chip": "ym2612"
    },
    {
      "channel": 5,
      "note": 56,
      "start": 6.3369,
      "duration": 0.1064,
      "velocity": 112,
      "chip": "ym2612"
    },
    {
      "channel": 0,
      "note": 51,
      "start": 6.441,
      "duration": 0.1847,
      "velocity": 107,
      "chip": "ym2612"
    },
    {
      "channel": 4,
      "note": 51,
      "start": 6.4429,
      "duration": 0.1836,
      "velocity": 77,
      "chip": "ym2612"
    },
    {
      "channel": 5,
      "note": 59,
      "start": 6.4471,
      "duration": 0.2167,
      "velocity": 112,
      "chip": "ym2612"
    },
    {
      "channel": 0,
      "note": 49,
      "start": 6.6615,
      "duration": 0.1822,
      "velocity": 107,
      "chip": "ym2612"
    },
    {
      "channel": 4,
      "note": 49,
      "start": 6.6634,
      "duration": 0.1813,
      "velocity": 77,
      "chip": "ym2612"
    },
    {
      "channel": 5,
      "note": 56,
      "start": 6.6675,
      "duration": 0.4393,
      "velocity": 126,
      "chip": "ym2612"
    },
    {
      "channel": 0,
      "note": 46,
      "start": 6.8815,
      "duration": 0.1826,
      "velocity": 107,
      "chip": "ym2612"
    },
    {
      "channel": 4,
      "note": 51,
      "start": 6.8835,
      "duration": 0.1815,
      "velocity": 77,
      "chip": "ym2612"
    },
    {
      "channel": 0,
      "note": 49,
      "start": 7.1018,
      "duration": 0.1825,
      "velocity": 107,
      "chip": "ym2612"
    },
    {
      "channel": 1,
      "note": 90,
      "start": 7.1034,
      "duration": 1.6866,
      "velocity": 79,
      "chip": "ym2612"
    },
    {
      "channel": 3,
      "note": 85,
      "start": 7.105,
      "duration": 1.6855,
      "velocity": 79,
      "chip": "ym2612"
    },
    {
      "channel": 4,
      "note": 49,
      "start": 7.1064,
      "duration": 0.1789,
      "velocity": 77,
      "chip": "ym2612"
    },
    {
      "channel": 5,
      "note": 0,
      "start": 7.1106,
      "duration": 0.4341,
      "velocity": 112,
      "chip": "ym2612"
    },
    {
      "channel": 0,
      "note": 54,
      "start": 7.3231,
      "duration": 0.1816,
      "velocity": 107,
      "chip": "ym2612"
    },
    {
      "channel": 4,
      "note": 51,
      "start": 7.3251,
      "duration": 0.1805,
      "velocity": 77,
      "chip": "ym2612"
    },
    {
      "channel": 0,
      "note": 51,
      "start": 7.5424,
      "duration": 0.0908,
      "velocity": 107,
      "chip": "ym2612"
    },
    {
      "channel": 4,
      "note": 49,
      "start": 7.5443,
      "duration": 0.0898,
      "velocity": 77,
      "chip": "ym2612"
    },
    {
      "channel": 5,
      "note": 47,
      "start": 7.5484,
      "duration": 0.3268,
      "velocity": 126,
      "chip": "ym2612"
    },
    {
      "channel": 0,
      "note": 54,
      "start": 7.8728,
      "duration": 0.0908,
      "velocity": 107,
      "chip": "ym2612"
    },
    {
      "channel": 4,
      "note": 51,
      "start": 7.8749,
      "duration": 0.0897,
      "velocity": 77,
      "chip": "ym2612"
    },
    {
      "channel": 5,
      "note": 0,
      "start": 7.8791,
      "duration": 0.1065,
      "velocity": 112,
      "chip": "ym2612"
    },
    {
      "channel": 5,
      "note": 59,
      "start": 7.9893,
      "duration": 0.1062,
      "velocity": 126,
      "chip": "ym2612"
    },
    {
      "channel": 0,
      "note": 51,
      "start": 8.0932,
      "duration": 0.0907,
      "velocity": 107,
      "chip": "ym2612"
    },
    {
      "channel": 4,
      "note": 51,
      "start": 8.0951,
      "duration": 0.0898,
      "velocity": 77,
      "chip": "ym2612"
    },
    {
      "channel": 5,
      "note": 18,
      "start": 8.0992,
      "duration": 0.2144,
      "velocity": 126,
      "chip": "ym2612"
    },
    {
      "channel": 0,
      "note": 51,
      "start": 8.2033,
      "duration": 0.1826,
      "velocity": 107,
      "chip": "ym2612"
    },
    {
      "channel": 4,
      "note": 51,
      "start": 8.2052,
      "duration": 0.1815,
      "velocity": 77,
      "chip": "ym2612"
    },
    {
      "channel": 5,
      "note": 7,
      "start": 8.3172,
      "duration": 0.1088,
      "velocity": 126,
      "chip": "ym2612"
    },
    {
      "channel": 0,
      "note": 49,
      "start": 8.4237,
      "duration": 0.1825,
      "velocity": 107,
      "chip": "ym2612"
    },
    {
      "channel": 4,
      "note": 49,
      "start": 8.4256,
      "duration": 0.1815,
      "velocity": 77,
      "chip": "ym2612"
    },
    {
      "channel": 5,
      "note": 16,
      "start": 8.4298,
      "duration": 0.1041,
      "velocity": 112,
      "chip": "ym2612"
    },
    {
      "channel": 5,
      "note": 38,
      "start": 8.5376,
      "duration": 0.1086,
      "velocity": 112,
      "chip": "ym2612"
    },
    {
      "channel": 0,
      "note": 46,
      "start": 8.6439,
      "duration": 0.1826,
      "velocity": 107,
      "chip": "ym2612"
    },
    {
      "channel": 4,
      "note": 51,
      "start": 8.6459,
      "duration": 0.1815,
      "velocity": 77,
      "chip": "ym2612"
    },
    {
      "channel": 5,
      "note": 38,
      "start": 8.6499,
      "duration": 0.1042,
      "velocity": 126,
      "chip": "ym2612"
    },
    {
      "channel": 5,
      "note": 16,
      "start": 8.7578,
      "duration": 0.1155,
      "velocity": 126,
      "chip": "ym2612"
    },
    {
      "channel": 0,
      "note": 49,
      "start": 8.8678,
      "duration": 0.2707,
      "velocity": 101,
      "chip": "ym2612"
    },
    {
      "channel": 1,
      "note": 92,
      "start": 8.8695,
      "duration": 0.2694,
      "velocity": 79,
      "chip": "ym2612"
    },
    {
      "channel": 3,
      "note": 87,
      "start": 8.8713,
      "duration": 0.268,
      "velocity": 79,
      "chip": "ym2612"
    },
    {
      "channel": 4,
      "note": 49,
      "start": 8.8728,
      "duration": 0.2668,
      "velocity": 77,
      "chip": "ym2612"
    },
    {
      "channel": 5,
      "note": 18,
      "start": 8.8773,
      "duration": 0.4276,
      "velocity": 112,
      "chip": "ym2612"
    },
    {
      "channel": 0,
      "note": 90,
      "start": 9.1949,
      "duration": 0.2741,
      "velocity": 101,
      "chip": "ym2612"
    },
    {
      "channel": 1,
      "note": 85,
      "start": 9.1964,
      "duration": 0.273,
      "velocity": 79,
      "chip": "ym2612"
    },
    {
      "channel": 3,
      "note": 82,
      "start": 9.198,
      "duration": 0.2717,
      "velocity": 79,
      "chip": "ym2612"
    },
    {
      "channel": 4,
      "note": 51,
      "start": 9.1994,
      "duration": 0.2707,
      "velocity": 77,
      "chip": "ym2612"
    },
    {
      "channel": 5,
      "note": 47,
      "start": 9.3086,
      "duration": 0.3267,
      "velocity": 126,
      "chip": "ym2612"
    },
    {
      "channel": 0,
      "note": 92,
      "start": 9.5253,
      "duration": 1.0268,
      "velocity": 101,
      "chip": "ym2612"
    },
    {
      "channel": 1,
      "note": 87,
      "start": 9.5269,
      "duration": 1.0256,
      "velocity": 79,
      "chip": "ym2612"
    },
    {
      "channel": 3,
      "note": 84,
      "start": 9.5284,
      "duration": 1.0244,
      "velocity": 79,
      "chip": "ym2612"
    },
    {
      "channel": 4,
      "note": 53,
      "start": 9.5298,
      "duration": 0.1795,
      "velocity": 77,
      "chip": "ym2612"
    },
    {
      "channel": 5,
      "note": 0,
      "start": 9.6391,
      "duration": 0.2176,
      "velocity": 112,
      "chip": "ym2612"
    },
    {
      "channel": 4,
      "note": 54,
      "start": 9.8564,
      "duration": 0.0908,
      "velocity": 77,
      "chip": "ym2612"
    },
    {
      "channel": 5,
      "note": 56,
      "start": 9.8606,
      "duration": 0.1063,
      "velocity": 112,
      "chip": "ym2612"
    },
    {
      "channel": 4,
      "note": 54,
      "start": 9.9665,
      "duration": 0.1826,
      "velocity": 77,
      "chip": "ym2612"
    },
    {
      "channel": 5,
      "note": 59,
      "start": 9.9707,
      "duration": 0.2165,
      "velocity": 112,
      "chip": "ym2612"
    },
    {
      "channel": 4,
      "note": 51,
      "start": 10.1868,
      "duration": 0.1843,
      "velocity": 77,
      "chip": "ym2612"
    },
    {
      "channel": 5,
      "note": 56,
      "start": 10.1909,
      "duration": 0.1053,
      "velocity": 126,
      "chip": "ym2612"
    },
    {
      "channel": 5,
      "note": 18,
      "start": 10.2999,
      "duration": 0.332,
      "velocity": 126,
      "chip": "ym2612"
    },
    {
      "channel": 4,
      "note": 49,
      "start": 10.4072,
      "duration": 0.1825,
      "velocity": 77,
      "chip": "ym2612"
    },
    {
      "channel": 0,
      "note": 94,
      "start": 10.6268,
      "duration": 0.8249,
      "velocity": 101,
      "chip": "ym2612"
    },
    {
      "channel": 1,
      "note": 90,
      "start": 10.6284,
      "duration": 0.8237,
      "velocity": 79,
      "chip": "ym2612"
    },
    {
      "channel": 3,
      "note": 85,
      "start": 10.6299,
      "duration": 0.8225,
      "velocity": 79,
      "chip": "ym2612"
    },
    {
      "channel": 4,
      "note": 58,
      "start": 10.6314,
      "duration": 0.3989,
      "velocity": 77,
      "chip": "ym2612"
    },
    {
      "channel": 5,
      "note": 0,
      "start": 10.6356,
      "duration": 0.4338,
      "velocity": 112,
      "chip": "ym2612"
    },
    {
      "channel": 4,
      "note": 56,
      "start": 11.0691,
      "duration": 0.4018,
      "velocity": 77,
      "chip": "ym2612"
    },
    {
      "channel": 5,
      "note": 46,
      "start": 11.0732,
      "duration": 0.4398,
      "velocity": 126,
      "chip": "ym2612"
    },
    {
      "channel": 0,
      "note": 92,
      "start": 11.508,
      "duration": 0.4026,
      "velocity": 101,
      "chip": "ym2612"
    },
    {
      "channel": 1,
      "note": 87,
      "start": 11.5096,
      "duration": 0.4014,
      "velocity": 79,
      "chip": "ym2612"
    },
    {
      "channel": 3,
      "note": 84,
      "start": 11.5111,
      "duration": 0.4002,
      "velocity": 79,
      "chip": "ym2612"
    },
    {
      "channel": 4,
      "note": 56,
      "start": 11.5125,
      "duration": 0.2704,
      "velocity": 77,
      "chip": "ym2612"
    },
    {
      "channel": 5,
      "note": 0,
      "start": 11.5167,
      "duration": 0.3227,
      "velocity": 112,
      "chip": "ym2612"
    },
    {
      "channel": 4,
      "note": 49,
      "start": 11.839,
      "duration": 0.0908,
      "velocity": 77,
      "chip": "ym2612"
    },
    {
      "channel": 5,
      "note": 52,
      "start": 11.8433,
      "duration": 0.1102,
      "velocity": 112,
      "chip": "ym2612"
    },
    {
      "channel": 0,
      "note": 89,
      "start": 11.9486,
      "duration": 0.1823,
      "velocity": 101,
      "chip": "ym2612"
    },
    {
      "channel": 1,
      "note": 85,
      "start": 11.9501,
      "duration": 0.1812,
      "velocity": 79,
      "chip": "ym2612"
    },
    {
      "channel": 3,
      "note": 80,
      "start": 11.9517,
      "duration": 0.18,
      "velocity": 79,
      "chip": "ym2612"
    },
    {
      "channel": 4,
      "note": 49,
      "start": 11.9531,
      "duration": 0.1789,
      "velocity": 77,
      "chip": "ym2612"
    },
    {
      "channel": 5,
      "note": 59,
      "start": 11.9572,
      "duration": 0.2167,
      "velocity": 126,
      "chip": "ym2612"
    },
    {
      "channel": 0,
      "note": 90,
      "start": 12.1689,
      "duration": 0.1824,
      "velocity": 101,
      "chip": "ym2612"
    },
    {
      "channel": 1,
      "note": 87,
      "start": 12.1704,
      "duration": 0.1812,
      "velocity": 79,
      "chip": "ym2612"
    },
    {
      "channel": 3,
      "note": 82,
      "start": 12.172,
      "duration": 0.18,
      "velocity": 79,
      "chip": "ym2612"
    },
    {
      "channel": 4,
      "note": 51,
      "start": 12.1734,
      "duration": 0.179,
      "velocity": 77,
      "chip": "ym2612"
    },
    {
      "channel": 5,
      "note": 5,
      "start": 12.1777,
      "duration": 0.2172,
      "velocity": 112,
      "chip": "ym2612"
    },
    {
      "channel": 0,
      "note": 89,
      "start": 12.3893,
      "duration": 0.274,
      "velocity": 101,
      "chip": "ym2612"
    },
    {
      "channel": 1,
      "note": 85,
      "start": 12.3911,
      "duration": 0.2726,
      "velocity": 79,
      "chip": "ym2612"
    },
    {
      "channel": 3,
      "note": 80,
      "start": 12.3929,
      "duration": 0.2712,
      "velocity": 79,
      "chip": "ym2612"
    },
    {
      "channel": 4,
      "note": 49,
      "start": 12.3944,
      "duration": 0.27,
      "velocity": 77,
      "chip": "ym2612"
    },
    {
      "channel": 5,
      "note": 56,
      "start": 12.3988,
      "duration": 0.4308,
      "velocity": 112,
      "chip": "ym2612"
    },
    {
      "channel": 0,
      "note": 90,
      "start": 12.7197,
      "duration": 0.2742,
      "velocity": 101,
      "chip": "ym2612"
    },
    {
      "channel": 1,
      "note": 85,
      "start": 12.7212,
      "duration": 0.2729,
      "velocity": 79,
      "chip": "ym2612"
    },
    {
      "channel": 3,
      "note": 82,
      "start": 12.7228,
      "duration": 0.2718,
      "velocity": 79,
      "chip": "ym2612"
    },
    {
      "channel": 4,
      "note": 51,
      "start": 12.7242,
      "duration": 0.2707,
      "velocity": 77,
      "chip": "ym2612"
    },
    {
      "channel": 5,
      "note": 46,
      "start": 12.8333,
      "duration": 0.3268,
      "velocity": 126,
      "chip": "ym2612"
    },
    {
      "channel": 0,
      "note": 92,
      "start": 13.0501,
      "duration": 1.0268,
      "velocity": 101,
      "chip": "ym2612"
    },
    {
      "channel": 1,
      "note": 87,
      "start": 13.0517,
      "duration": 1.0256,
      "velocity": 79,
      "chip": "ym2612"
    },
    {
      "channel": 3,
      "note": 84,
      "start": 13.0532,
      "duration": 1.0244,
      "velocity": 79,
      "chip": "ym2612"
    },
    {
      "channel": 4,
      "note": 53,
      "start": 13.0546,
      "duration": 0.1786,
      "velocity": 77,
      "chip": "ym2612"
    },
    {
      "channel": 5,
      "note": 0,
      "start": 13.1639,
      "duration": 0.2176,
      "velocity": 112,
      "chip": "ym2612"
    },
    {
      "channel": 4,
      "note": 54,
      "start": 13.3812,
      "duration": 0.0907,
      "velocity": 77,
      "chip": "ym2612"
    },
    {
      "channel": 5,
      "note": 56,
      "start": 13.3854,
      "duration": 0.1063,
      "velocity": 112,
      "chip": "ym2612"
    },
    {
      "channel": 4,
      "note": 54,
      "start": 13.4913,
      "duration": 0.1826,
      "velocity": 77,
      "chip": "ym2612"
    },
    {
      "channel": 5,
      "note": 59,
      "start": 13.4956,
      "duration": 0.2164,
      "velocity": 112,
      "chip": "ym2612"
    },
    {
      "channel": 4,
      "note": 51,
      "start": 13.7116,
      "duration": 0.1826,
      "velocity": 77,
      "chip": "ym2612"
    },
    {
      "channel": 5,
      "note": 56,
      "start": 13.7156,
      "duration": 0.1054,
      "velocity": 126,
      "chip": "ym2612"
    },
    {
      "channel": 5,
      "note": 16,
      "start": 13.8247,
      "duration": 0.3319,
      "velocity": 126,
      "chip": "ym2612"
    },
    {
      "channel": 4,
      "note": 49,
      "start": 13.9319,
      "duration": 0.1838,
      "velocity": 77,
      "chip": "ym2612"
    },
    {
      "channel": 0,
      "note": 94,
      "start": 14.1516,
      "duration": 0.8249,
      "velocity": 101,
      "chip": "ym2612"
    },
    {
      "channel": 1,
      "note": 90,
      "start": 14.1532,
      "duration": 0.8237,
      "velocity": 79,
      "chip": "ym2612"
    },
    {
      "channel": 3,
      "note": 85,
      "start": 14.1548,
      "duration": 0.8224,
      "velocity": 79,
      "chip": "ym2612"
    },
    {
      "channel": 4,
      "note": 58,
      "start": 14.1562,
      "duration": 0.3989,
      "velocity": 77,
      "chip": "ym2612"
    },
    {
      "channel": 5,
      "note": 0,
      "start": 14.1605,
      "duration": 0.4328,
      "velocity": 112,
      "chip": "ym2612"
    },
    {
      "channel": 4,
      "note": 56,
      "start": 14.5929,
      "duration": 0.4028,
      "velocity": 77,
      "chip": "ym2612"
    },
    {
      "channel": 5,
      "note": 47,
      "start": 14.5969,
      "duration": 0.4408,
      "velocity": 126,
      "chip": "ym2612"
    },
    {
      "channel": 0,
      "note": 96,
      "start": 15.0328,
      "duration": 0.4026,
      "velocity": 101,
      "chip": "ym2612"
    },
    {
      "channel": 1,
      "note": 92,
      "start": 15.0344,
      "duration": 0.4015,
      "velocity": 79,
      "chip": "ym2612"
    },
    {
      "channel": 3,
      "note": 87,
      "start": 15.0359,
      "duration": 0.4002,
      "velocity": 79,
      "chip": "ym2612"
    },
    {
      "channel": 4,
      "note": 56,
      "start": 15.0373,
      "duration": 0.2705,
      "velocity": 77,
      "chip": "ym2612"
    },
    {
      "channel": 5,
      "note": 0,
      "start": 15.0416,
      "duration": 0.438,
      "velocity": 112,
      "chip": "ym2612"
    },
    {
      "channel": 4,
      "note": 49,
      "start": 15.3639,
      "duration": 0.0908,
      "velocity": 77,
      "chip": "ym2612"
    },
    {
      "channel": 0,
      "note": 92,
      "start": 15.4747,
      "duration": 0.4013,
      "velocity": 101,
      "chip": "ym2612"
    },
    {
      "channel": 1,
      "note": 89,
      "start": 15.4763,
      "duration": 0.4001,
      "velocity": 79,
      "chip": "ym2612"
    },
    {
      "channel": 3,
      "note": 85,
      "start": 15.4779,
      "duration": 0.3988,
      "velocity": 79,
      "chip": "ym2612"
    },
    {
      "channel": 4,
      "note": 49,
      "start": 15.4793,
      "duration": 0.1773,
      "velocity": 77,
      "chip": "ym2612"
    },
    {
      "channel": 5,
      "note": 46,
      "start": 15.4835,
      "duration": 0.0999,
      "velocity": 112,
      "chip": "ym2612"
    },
    {
      "channel": 5,
      "note": 38,
      "start": 15.5871,
      "duration": 0.1075,
      "velocity": 112,
      "chip": "ym2612"
    },
    {
      "channel": 4,
      "note": 49,
      "start": 15.6943,
      "duration": 0.1828,
      "velocity": 77,
      "chip": "ym2612"
    },
    {
      "channel": 5,
      "note": 38,
      "start": 15.6985,
      "duration": 0.1072,
      "velocity": 112,
      "chip": "ym2612"
    },
    {
      "channel": 5,
      "note": 33,
      "start": 15.8095,
      "duration": 0.1131,
      "velocity": 112,
      "chip": "ym2612"
    },
    {
      "channel": 0,
      "note": 97,
      "start": 15.9171,
      "duration": 0.1792,
      "velocity": 107,
      "chip": "ym2612"
    },
    {
      "channel": 1,
      "note": 92,
      "start": 15.9188,
      "duration": 1.6832,
      "velocity": 79,
      "chip": "ym2612"
    },
    {
      "channel": 3,
      "note": 89,
      "start": 15.9206,
      "duration": 1.6817,
      "velocity": 79,
      "chip": "ym2612"
    },
    {
      "channel": 4,
      "note": 49,
      "start": 15.9221,
      "duration": 0.1751,
      "velocity": 77,
      "chip": "ym2612"
    },
    {
      "channel": 5,
      "note": 33,
      "start": 15.9267,
      "duration": 0.43,
      "velocity": 112,
      "chip": "ym2612"
    },
    {
      "channel": 0,
      "note": 54,
      "start": 16.134,
      "duration": 0.1826,
      "velocity": 107,
      "chip": "ym2612"
    },
    {
      "channel": 4,
      "note": 51,
      "start": 16.136,
      "duration": 0.1815,
      "velocity": 77,
      "chip": "ym2612"
    },
    {
      "channel": 0,
      "note": 51,
      "start": 16.3544,
      "duration": 0.0907,
      "velocity": 107,
      "chip": "ym2612"
    },
    {
      "channel": 4,
      "note": 49,
      "start": 16.3563,
      "duration": 0.0898,
      "velocity": 77,
      "chip": "ym2612"
    },
    {
      "channel": 5,
      "note": 47,
      "start": 16.3604,
      "duration": 0.3267,
      "velocity": 126,
      "chip": "ym2612"
    },
    {
      "channel": 0,
      "note": 54,
      "start": 16.6848,
      "duration": 0.0908,
      "velocity": 107,
      "chip": "ym2612"
    },
    {
      "channel": 4,
      "note": 51,
      "start": 16.6868,
      "duration": 0.0897,
      "velocity": 77,
      "chip": "ym2612"
    },
    {
      "channel": 5,
      "note": 0,
      "start": 16.691,
      "duration": 0.2165,
      "velocity": 112,
      "chip": "ym2612"
    },
    {
      "channel": 0,
      "note": 51,
      "start": 16.9051,
      "duration": 0.0908,
      "velocity": 107,
      "chip": "ym2612"
    },
    {
      "channel": 4,
      "note": 51,
      "start": 16.9071,
      "duration": 0.0897,
      "velocity": 77,
      "chip": "ym2612"
    },
    {
      "channel": 5,
      "note": 56,
      "start": 16.9113,
      "duration": 0.1062,
      "velocity": 112,
      "chip": "ym2612"
    },
    {
      "channel": 0,
      "note": 51,
      "start": 17.0153,
      "duration": 0.1829,
      "velocity": 107,
      "chip": "ym2612"
    },
    {
      "channel": 4,
      "note": 51,
      "start": 17.0172,
      "duration": 0.182,
      "velocity": 77,
      "chip": "ym2612"
    },
    {
      "channel": 5,
      "note": 59,
      "start": 17.0214,
      "duration": 0.2165,
      "velocity": 112,
      "chip": "ym2612"
    },
    {
      "channel": 0,
      "note": 49,
      "start": 17.2356,
      "duration": 0.1826,
      "velocity": 107,
      "chip": "ym2612"
    },
    {
      "channel": 4,
      "note": 49,
      "start": 17.2375,
      "duration": 0.1816,
      "velocity": 77,
      "chip": "ym2612"
    },
    {
      "channel": 5,
      "note": 56,
      "start": 17.2416,
      "duration": 0.4395,
      "velocity": 126,
      "chip": "ym2612"
    },
    {
      "channel": 0,
      "note": 46,
      "start": 17.4559,
      "duration": 0.1826,
      "velocity": 107,
      "chip": "ym2612"
    },
    {
      "channel": 4,
      "note": 51,
      "start": 17.4579,
      "duration": 0.1814,
      "velocity": 77,
      "chip": "ym2612"
    },
    {
      "channel": 0,
      "note": 49,
      "start": 17.6761,
      "duration": 0.1838,
      "velocity": 107,
      "chip": "ym2612"
    },
    {
      "channel": 1,
      "note": 90,
      "start": 17.6777,
      "duration": 1.6866,
      "velocity": 79,
      "chip": "ym2612"
    },
    {
      "channel": 3,
      "note": 85,
      "start": 17.6793,
      "duration": 1.6854,
      "velocity": 79,
      "chip": "ym2612"
    },
    {
      "channel": 4,
      "note": 49,
      "start": 17.6807,
      "duration": 0.1801,
      "velocity": 77,
      "chip": "ym2612"
    },
    {
      "channel": 5,
      "note": 0,
      "start": 17.6849,
      "duration": 0.4342,
      "velocity": 112,
      "chip": "ym2612"
    },
    {
      "channel": 0,
      "note": 54,
      "start": 17.8964,
      "duration": 0.1826,
      "velocity": 107,
      "chip": "ym2612"
    },
    {
      "channel": 4,
      "note": 51,
      "start": 17.8984,
      "duration": 0.1815,
      "velocity": 77,
      "chip": "ym2612"
    },
    {
      "channel": 0,
      "note": 51,
      "start": 18.1167,
      "duration": 0.0917,
      "velocity": 107,
      "chip": "ym2612"
    },
    {
      "channel": 4,
      "note": 49,
      "start": 18.1187,
      "duration": 0.0907,
      "velocity": 77,
      "chip": "ym2612"
    },
    {
      "channel": 5,
      "note": 47,
      "start": 18.1228,
      "duration": 0.3267,
      "velocity": 126,
      "chip": "ym2612"
    },
    {
      "channel": 0,
      "note": 54,
      "start": 18.4472,
      "duration": 0.0923,
      "velocity": 107,
      "chip": "ym2612"
    },
    {
      "channel": 4,
      "note": 51,
      "start": 18.4491,
      "duration": 0.0913,
      "velocity": 77,
      "chip": "ym2612"
    },
    {
      "channel": 5,
      "note": 0,
      "start": 18.4533,
      "duration": 0.2165,
      "velocity": 112,
      "chip": "ym2612"
    },
    {
      "channel": 0,
      "note": 51,
      "start": 18.6675,
      "duration": 0.0908,
      "velocity": 107,
      "chip": "ym2612"
    },
    {
      "channel": 4,
      "note": 51,
      "start": 18.6695,
      "duration": 0.0897,
      "velocity": 77,
      "chip": "ym2612"
    },
    {
      "channel": 5,
      "note": 56,
      "start": 18.6737,
      "duration": 0.1062,
      "velocity": 112,
      "chip": "ym2612"
    },
    {
      "channel": 0,
      "note": 51,
      "start": 18.7777,
      "duration": 0.1826,
      "velocity": 107,
      "chip": "ym2612"
    },
    {
      "channel": 4,
      "note": 51,
      "start": 18.7796,
      "duration": 0.1816,
      "velocity": 77,
      "chip": "ym2612"
    },
    {
      "channel": 5,
      "note": 59,
      "start": 18.7838,
      "duration": 0.2165,
      "velocity": 112,
      "chip": "ym2612"
    },
    {
      "channel": 0,
      "note": 49,
      "start": 18.998,
      "duration": 0.1825,
      "velocity": 107,
      "chip": "ym2612"
    },
    {
      "channel": 4,
      "note": 49,
      "start": 18.9999,
      "duration": 0.1816,
      "velocity": 77,
      "chip": "ym2612"
    },
    {
      "channel": 5,
      "note": 56,
      "start": 19.0039,
      "duration": 0.1042,
      "velocity": 126,
      "chip": "ym2612"
    },
    {
      "channel": 5,
      "note": 18,
      "start": 19.1118,
      "duration": 0.3324,
      "velocity": 126,
      "chip": "ym2612"
    },
    {
      "channel": 0,
      "note": 46,
      "start": 19.2195,
      "duration": 0.1814,
      "velocity": 107,
      "chip": "ym2612"
    },
    {
      "channel": 4,
      "note": 51,
      "start": 19.2214,
      "duration": 0.1803,
      "velocity": 77,
      "chip": "ym2612"
    },
    {
      "channel": 0,
      "note": 49,
      "start": 19.4387,
      "duration": 0.1824,
      "velocity": 107,
      "chip": "ym2612"
    },
    {
      "channel": 1,
      "note": 92,
      "start": 19.4405,
      "duration": 1.6863,
      "velocity": 79,
      "chip": "ym2612"
    },
    {
      "channel": 3,
      "note": 87,
      "start": 19.4422,
      "duration": 1.6849,
      "velocity": 79,
      "chip": "ym2612"
    },
    {
      "channel": 4,
      "note": 49,
      "start": 19.4438,
      "duration": 0.1782,
      "velocity": 77,
      "chip": "ym2612"
    },
    {
      "channel": 5,
      "note": 0,
      "start": 19.4482,
      "duration": 0.4356,
      "velocity": 112,
      "chip": "ym2612"
    },
    {
      "channel": 0,
      "note": 54,
      "start": 19.6588,
      "duration": 0.1826,
      "velocity": 107,
      "chip": "ym2612"
    },
    {
      "channel": 4,
      "note": 51,
      "start": 19.6608,
      "duration": 0.1815,
      "velocity": 77,
      "chip": "ym2612"
    },
    {
      "channel": 0,
      "note": 51,
      "start": 19.8815,
      "duration": 0.0884,
      "velocity": 107,
      "chip": "ym2612"
    },
    {
      "channel": 4,
      "note": 49,
      "start": 19.8834,
      "duration": 0.0875,
      "velocity": 77,
      "chip": "ym2612"
    },
    {
      "channel": 5,
      "note": 46,
      "start": 19.8875,
      "duration": 0.3244,
      "velocity": 126,
      "chip": "ym2612"
    },
    {
      "channel": 0,
      "note": 54,
      "start": 20.2096,
      "duration": 0.0908,
      "velocity": 107,
      "chip": "ym2612"
    },
    {
      "channel": 4,
      "note": 51,
      "start": 20.2115,
      "duration": 0.0898,
      "velocity": 77,
      "chip": "ym2612"
    },
    {
      "channel": 5,
      "note": 0,
      "start": 20.2157,
      "duration": 0.2165,
      "velocity": 112,
      "chip": "ym2612"
    },
    {
      "channel": 0,
      "note": 51,
      "start": 20.4299,
      "duration": 0.0908,
      "velocity": 107,
      "chip": "ym2612"
    },
    {
      "channel": 4,
      "note": 51,
      "start": 20.4318,
      "duration": 0.0898,
      "velocity": 77,
      "chip": "ym2612"
    },
    {
      "channel": 5,
      "note": 56,
      "start": 20.436,
      "duration": 0.1064,
      "velocity": 112,
      "chip": "ym2612"
    },
    {
      "channel": 0,
      "note": 51,
      "start": 20.54,
      "duration": 0.1826,
      "velocity": 107,
      "chip": "ym2612"
    },
    {
      "channel": 4,
      "note": 51,
      "start": 20.542,
      "duration": 0.1816,
      "velocity": 77,
      "chip": "ym2612"
    },
    {
      "channel": 5,
      "note": 59,
      "start": 20.5462,
      "duration": 0.2164,
      "velocity": 112,
      "chip": "ym2612"
    },
    {
      "channel": 0,
      "note": 49,
      "start": 20.7604,
      "duration": 0.1826,
      "velocity": 107,
      "chip": "ym2612"
    },
    {
      "channel": 4,
      "note": 49,
      "start": 20.7623,
      "duration": 0.1816,
      "velocity": 77,
      "chip": "ym2612"
    },
    {
      "channel": 5,
      "note": 56,
      "start": 20.7663,
      "duration": 0.4395,
      "velocity": 126,
      "chip": "ym2612"
    },
    {
      "channel": 0,
      "note": 46,
      "start": 20.9807,
      "duration": 0.1825,
      "velocity": 107,
      "chip": "ym2612"
    },
    {
      "channel": 4,
      "note": 51,
      "start": 20.9826,
      "duration": 0.1816,
      "velocity": 77,
      "chip": "ym2612"
    },
    {
      "channel": 0,
      "note": 49,
      "start": 21.201,
      "duration": 0.1826,
      "velocity": 107,
      "chip": "ym2612"
    },
    {
      "channel": 1,
      "note": 94,
      "start": 21.2025,
      "duration": 1.6866,
      "velocity": 79,
      "chip": "ym2612"
    },
    {
      "channel": 3,
      "note": 90,
      "start": 21.2041,
      "duration": 1.6854,
      "velocity": 79,
      "chip": "ym2612"
    },
    {
      "channel": 4,
      "note": 49,
      "start": 21.2055,
      "duration": 0.179,
      "velocity": 77,
      "chip": "ym2612"
    },
    {
      "channel": 5,
      "note": 0,
      "start": 21.2097,
      "duration": 0.4342,
      "velocity": 112,
      "chip": "ym2612"
    },
    {
      "channel": 0,
      "note": 54,
      "start": 21.4212,
      "duration": 0.1838,
      "velocity": 107,
      "chip": "ym2612"
    },
    {
      "channel": 4,
      "note": 51,
      "start": 21.4232,
      "duration": 0.1828,
      "velocity": 77,
      "chip": "ym2612"
    },
    {
      "channel": 0,
      "note": 51,
      "start": 21.6415,
      "duration": 0.0908,
      "velocity": 107,
      "chip": "ym2612"
    },
    {
      "channel": 4,
      "note": 49,
      "start": 21.6435,
      "duration": 0.0897,
      "velocity": 77,
      "chip": "ym2612"
    },
    {
      "channel": 5,
      "note": 46,
      "start": 21.6476,
      "duration": 0.3268,
      "velocity": 126,
      "chip": "ym2612"
    },
    {
      "channel": 0,
      "note": 54,
      "start": 21.972,
      "duration": 0.0908,
      "velocity": 107,
      "chip": "ym2612"
    },
    {
      "channel": 4,
      "note": 51,
      "start": 21.974,
      "duration": 0.0897,
      "velocity": 77,
      "chip": "ym2612"
    },
    {
      "channel": 5,
      "note": 0,
      "start": 21.9782,
      "duration": 0.1044,
      "velocity": 112,
      "chip": "ym2612"
    },
    {
      "channel": 5,
      "note": 59,
      "start": 22.0863,
      "duration": 0.1083,
      "velocity": 126,
      "chip": "ym2612"
    },
    {
      "channel": 0,
      "note": 51,
      "start": 22.1923,
      "duration": 0.0918,
      "velocity": 107,
      "chip": "ym2612"
    },
    {
      "channel": 4,
      "note": 51,
      "start": 22.1942,
      "duration": 0.0908,
      "velocity": 77,
      "chip": "ym2612"
    },
    {
      "channel": 5,
      "note": 18,
      "start": 22.1983,
      "duration": 0.2144,
      "velocity": 126,
      "chip": "ym2612"
    },
    {
      "channel": 0,
      "note": 51,
      "start": 22.3027,
      "duration": 0.1822,
      "velocity": 107,
      "chip": "ym2612"
    },
    {
      "channel": 4,
      "note": 51,
      "start": 22.3046,
      "duration": 0.1812,
      "velocity": 77,
      "chip": "ym2612"
    },
    {
      "channel": 5,
      "note": 5,
      "start": 22.4163,
      "duration": 0.1088,
      "velocity": 126,
      "chip": "ym2612"
    },
    {
      "channel": 0,
      "note": 49,
      "start": 22.5227,
      "duration": 0.1826,
      "velocity": 107,
      "chip": "ym2612"
    },
    {
      "channel": 4,
      "note": 49,
      "start": 22.5247,
      "duration": 0.1814,
      "velocity": 77,
      "chip": "ym2612"
    },
    {
      "channel": 5,
      "note": 18,
      "start": 22.5289,
      "duration": 0.1045,
      "velocity": 112,
      "chip": "ym2612"
    },
    {
      "channel": 5,
      "note": 37,
      "start": 22.6371,
      "duration": 0.1082,
      "velocity": 112,
      "chip": "ym2612"
    },
    {
      "channel": 0,
      "note": 46,
      "start": 22.743,
      "duration": 0.1826,
      "velocity": 107,
      "chip": "ym2612"
    },
    {
      "channel": 4,
      "note": 51,
      "start": 22.745,
      "duration": 0.1816,
      "velocity": 77,
      "chip": "ym2612"
    },
    {
      "channel": 5,
      "note": 38,
      "start": 22.749,
      "duration": 0.1042,
      "velocity": 126,
      "chip": "ym2612"
    },
    {
      "channel": 5,
      "note": 18,
      "start": 22.857,
      "duration": 0.116,
      "velocity": 126,
      "chip": "ym2612"
    },
    {
      "channel": 0,
      "note": 49,
      "start": 22.9676,
      "duration": 0.2701,
      "velocity": 101,
      "chip": "ym2612"
    },
    {
      "channel": 1,
      "note": 92,
      "start": 22.9693,
      "duration": 0.2688,
      "velocity": 79,
      "chip": "ym2612"
    },
    {
      "channel": 3,
      "note": 87,
      "start": 22.9711,
      "duration": 0.2673,
      "velocity": 79,
      "chip": "ym2612"
    },
    {
      "channel": 4,
      "note": 49,
      "start": 22.9726,
      "duration": 0.2661,
      "velocity": 77,
      "chip": "ym2612"
    },
    {
      "channel": 5,
      "note": 16,
      "start": 22.977,
      "duration": 0.427,
      "velocity": 112,
      "chip": "ym2612"
    },
    {
      "channel": 0,
      "note": 90,
      "start": 23.2953,
      "duration": 0.2728,
      "velocity": 101,
      "chip": "ym2612"
    },
    {
      "channel": 1,
      "note": 85,
      "start": 23.2969,
      "duration": 0.2716,
      "velocity": 79,
      "chip": "ym2612"
    },
    {
      "channel": 3,
      "note": 82,
      "start": 23.2984,
      "duration": 0.2704,
      "velocity": 79,
      "chip": "ym2612"
    },
    {
      "channel": 4,
      "note": 51,
      "start": 23.2998,
      "duration": 0.2694,
      "velocity": 77,
      "chip": "ym2612"
    },
    {
      "channel": 5,
      "note": 47,
      "start": 23.4077,
      "duration": 0.3268,
      "velocity": 126,
      "chip": "ym2612"
    },
    {
      "channel": 0,
      "note": 92,
      "start": 23.6263,
      "duration": 1.0266,
      "velocity": 101,
      "chip": "ym2612"
    },
    {
      "channel": 1,
      "note": 87,
      "start": 23.6279,
      "duration": 1.0254,
      "velocity": 79,
      "chip": "ym2612"
    },
    {
      "channel": 3,
      "note": 84,
      "start": 23.6294,
      "duration": 1.0242,
      "velocity": 79,
      "chip": "ym2612"
    },
    {
      "channel": 4,
      "note": 53,
      "start": 23.6308,
      "duration": 0.1768,
      "velocity": 77,
      "chip": "ym2612"
    },
    {
      "channel": 5,
      "note": 0,
      "start": 23.7383,
      "duration": 0.2176,
      "velocity": 112,
      "chip": "ym2612"
    },
    {
      "channel": 4,
      "note": 54,
      "start": 23.9555,
      "duration": 0.0908,
      "velocity": 77,
      "chip": "ym2612"
    },
    {
      "channel": 5,
      "note": 56,
      "start": 23.9597,
      "duration": 0.1063,
      "velocity": 112,
      "chip": "ym2612"
    },
    {
      "channel": 4,
      "note": 54,
      "start": 24.0656,
      "duration": 0.1826,
      "velocity": 77,
      "chip": "ym2612"
    },
    {
      "channel": 5,
      "note": 59,
      "start": 24.0698,
      "duration": 0.2165,
      "velocity": 112,
      "chip": "ym2612"
    },
    {
      "channel": 4,
      "note": 51,
      "start": 24.2859,
      "duration": 0.1826,
      "velocity": 77,
      "chip": "ym2612"
    },
    {
      "channel": 5,
      "note": 56,
      "start": 24.29,
      "duration": 0.1053,
      "velocity": 126,
      "chip": "ym2612"
    },
    {
      "channel": 5,
      "note": 16,
      "start": 24.399,
      "duration": 0.3319,
      "velocity": 126,
      "chip": "ym2612"
    },
    {
      "channel": 4,
      "note": 49,
      "start": 24.5063,
      "duration": 0.1825,
      "velocity": 77,
      "chip": "ym2612"
    },
    {
      "channel": 0,
      "note": 94,
      "start": 24.726,
      "duration": 0.8249,
      "velocity": 101,
      "chip": "ym2612"
    },
    {
      "channel": 1,
      "note": 90,
      "start": 24.7275,
      "duration": 0.8237,
      "velocity": 79,
      "chip": "ym2612"
    },
    {
      "channel": 3,
      "note": 85,
      "start": 24.7291,
      "duration": 0.8224,
      "velocity": 79,
      "chip": "ym2612"
    },
    {
      "channel": 4,
      "note": 58,
      "start": 24.7305,
      "duration": 0.3989,
      "velocity": 77,
      "chip": "ym2612"
    },
    {
      "channel": 5,
      "note": 0,
      "start": 24.7347,
      "duration": 0.4328,
      "velocity": 112,
      "chip": "ym2612"
    },
    {
      "channel": 4,
      "note": 56,
      "start": 25.1672,
      "duration": 0.4028,
      "velocity": 77,
      "chip": "ym2612"
    },
    {
      "channel": 5,
      "note": 47,
      "start": 25.1712,
      "duration": 0.4408,
      "velocity": 126,
      "chip": "ym2612"
    },
    {
      "channel": 0,
      "note": 92,
      "start": 25.6071,
      "duration": 0.4047,
      "velocity": 101,
      "chip": "ym2612"
    },
    {
      "channel": 1,
      "note": 87,
      "start": 25.6087,
      "duration": 0.4034,
      "velocity": 79,
      "chip": "ym2612"
    },
    {
      "channel": 3,
      "note": 84,
      "start": 25.6102,
      "duration": 0.4023,
      "velocity": 79,
      "chip": "ym2612"
    },
    {
      "channel": 4,
      "note": 56,
      "start": 25.6116,
      "duration": 0.2705,
      "velocity": 77,
      "chip": "ym2612"
    },
    {
      "channel": 5,
      "note": 0,
      "start": 25.6158,
      "duration": 0.3227,
      "velocity": 112,
      "chip": "ym2612"
    },
    {
      "channel": 4,
      "note": 49,
      "start": 25.9382,
      "duration": 0.0913,
      "velocity": 77,
      "chip": "ym2612"
    },
    {
      "channel": 5,
      "note": 52,
      "start": 25.9424,
      "duration": 0.1102,
      "velocity": 112,
      "chip": "ym2612"
    },
    {
      "channel": 0,
      "note": 89,
      "start": 26.0477,
      "duration": 0.1824,
      "velocity": 101,
      "chip": "ym2612"
    },
    {
      "channel": 1,
      "note": 85,
      "start": 26.0492,
      "duration": 0.1812,
      "velocity": 79,
      "chip": "ym2612"
    },
    {
      "channel": 3,
      "note": 80,
      "start": 26.0508,
      "duration": 0.18,
      "velocity": 79,
      "chip": "ym2612"
    },
    {
      "channel": 4,
      "note": 49,
      "start": 26.0522,
      "duration": 0.179,
      "velocity": 77,
      "chip": "ym2612"
    },
    {
      "channel": 5,
      "note": 59,
      "start": 26.0563,
      "duration": 0.2166,
      "velocity": 126,
      "chip": "ym2612"
    },
    {
      "channel": 0,
      "note": 90,
      "start": 26.268,
      "duration": 0.1824,
      "velocity": 101,
      "chip": "ym2612"
    },
    {
      "channel": 1,
      "note": 87,
      "start": 26.2696,
      "duration": 0.1811,
      "velocity": 79,
      "chip": "ym2612"
    },
    {
      "channel": 3,
      "note": 82,
      "start": 26.2711,
      "duration": 0.18,
      "velocity": 79,
      "chip": "ym2612"
    },
    {
      "channel": 4,
      "note": 51,
      "start": 26.2725,
      "duration": 0.1789,
      "velocity": 77,
      "chip": "ym2612"
    },
    {
      "channel": 5,
      "note": 7,
      "start": 26.2768,
      "duration": 0.2171,
      "velocity": 112,
      "chip": "ym2612"
    },
    {
      "channel": 0,
      "note": 89,
      "start": 26.4885,
      "duration": 0.274,
      "velocity": 101,
      "chip": "ym2612"
    },
    {
      "channel": 1,
      "note": 85,
      "start": 26.4902,
      "duration": 0.2727,
      "velocity": 79,
      "chip": "ym2612"
    },
    {
      "channel": 3,
      "note": 80,
      "start": 26.4919,
      "duration": 0.2712,
      "velocity": 79,
      "chip": "ym2612"
    },
    {
      "channel": 4,
      "note": 49,
      "start": 26.4935,
      "duration": 0.27,
      "velocity": 77,
      "chip": "ym2612"
    },
    {
      "channel": 5,
      "note": 56,
      "start": 26.4979,
      "duration": 0.4309,
      "velocity": 112,
      "chip": "ym2612"
    },
    {
      "channel": 0,
      "note": 90,
      "start": 26.8188,
      "duration": 0.2741,
      "velocity": 101,
      "chip": "ym2612"
    },
    {
      "channel": 1,
      "note": 85,
      "start": 26.8204,
      "duration": 0.2729,
      "velocity": 79,
      "chip": "ym2612"
    },
    {
      "channel": 3,
      "note": 82,
      "start": 26.8219,
      "duration": 0.2717,
      "velocity": 79,
      "chip": "ym2612"
    },
    {
      "channel": 4,
      "note": 51,
      "start": 26.8233,
      "duration": 0.2707,
      "velocity": 77,
      "chip": "ym2612"
    },
    {
      "channel": 5,
      "note": 47,
      "start": 26.9324,
      "duration": 0.3268,
      "velocity": 126,
      "chip": "ym2612"
    },
    {
      "channel": 0,
      "note": 92,
      "start": 27.1492,
      "duration": 1.0268,
      "velocity": 101,
      "chip": "ym2612"
    },
    {
      "channel": 1,
      "note": 87,
      "start": 27.1508,
      "duration": 1.0256,
      "velocity": 79,
      "chip": "ym2612"
    },
    {
      "channel": 3,
      "note": 84,
      "start": 27.1524,
      "duration": 1.0244,
      "velocity": 79,
      "chip": "ym2612"
    },
    {
      "channel": 4,
      "note": 53,
      "start": 27.1537,
      "duration": 0.1786,
      "velocity": 77,
      "chip": "ym2612"
    },
    {
      "channel": 5,
      "note": 0,
      "start": 27.263,
      "duration": 0.2176,
      "velocity": 112,
      "chip": "ym2612"
    },
    {
      "channel": 4,
      "note": 54,
      "start": 27.4803,
      "duration": 0.0908,
      "velocity": 77,
      "chip": "ym2612"
    },
    {
      "channel": 5,
      "note": 56,
      "start": 27.4845,
      "duration": 0.1064,
      "velocity": 112,
      "chip": "ym2612"
    },
    {
      "channel": 4,
      "note": 54,
      "start": 27.5905,
      "duration": 0.1825,
      "velocity": 77,
      "chip": "ym2612"
    },
    {
      "channel": 5,
      "note": 59,
      "start": 27.5946,
      "duration": 0.2165,
      "velocity": 112,
      "chip": "ym2612"
    },
    {
      "channel": 4,
      "note": 51,
      "start": 27.8107,
      "duration": 0.1826,
      "velocity": 77,
      "chip": "ym2612"
    },
    {
      "channel": 5,
      "note": 56,
      "start": 27.8148,
      "duration": 0.1053,
      "velocity": 126,
      "chip": "ym2612"
    },
    {
      "channel": 5,
      "note": 18,
      "start": 27.9239,
      "duration": 0.3319,
      "velocity": 126,
      "chip": "ym2612"
    },
    {
      "channel": 4,
      "note": 49,
      "start": 28.031,
      "duration": 0.1826,
      "velocity": 77,
      "chip": "ym2612"
    },
    {
      "channel": 0,
      "note": 94,
      "start": 28.2508,
      "duration": 0.8265,
      "velocity": 101,
      "chip": "ym2612"
    },
    {
      "channel": 1,
      "note": 90,
      "start": 28.2524,
      "duration": 0.8252,
      "velocity": 79,
      "chip": "ym2612"
    },
    {
      "channel": 3,
      "note": 85,
      "start": 28.2539,
      "duration": 0.8241,
      "velocity": 79,
      "chip": "ym2612"
    },
    {
      "channel": 4,
      "note": 58,
      "start": 28.2554,
      "duration": 0.3988,
      "velocity": 77,
      "chip": "ym2612"
    },
    {
      "channel": 5,
      "note": 0,
      "start": 28.2596,
      "duration": 0.4328,
      "velocity": 112,
      "chip": "ym2612"
    },
    {
      "channel": 4,
      "note": 56,
      "start": 28.692,
      "duration": 0.4031,
      "velocity": 77,
      "chip": "ym2612"
    },
    {
      "channel": 5,
      "note": 47,
      "start": 28.6961,
      "duration": 0.4408,
      "velocity": 126,
      "chip": "ym2612"
    },
    {
      "channel": 0,
      "note": 96,
      "start": 29.1319,
      "duration": 0.4026,
      "velocity": 101,
      "chip": "ym2612"
    },
    {
      "channel": 1,
      "note": 92,
      "start": 29.1335,
      "duration": 0.4014,
      "velocity": 79,
      "chip": "ym2612"
    },
    {
      "channel": 3,
      "note": 87,
      "start": 29.1351,
      "duration": 0.4002,
      "velocity": 79,
      "chip": "ym2612"
    },
    {
      "channel": 4,
      "note": 56,
      "start": 29.1364,
      "duration": 0.2727,
      "velocity": 77,
      "chip": "ym2612"
    },
    {
      "channel": 5,
      "note": 0,
      "start": 29.1406,
      "duration": 0.1013,
      "velocity": 126,
      "chip": "ym2612"
    },
    {
      "channel": 5,
      "note": 18,
      "start": 29.2456,
      "duration": 0.2178,
      "velocity": 126,
      "chip": "ym2612"
    },
    {
      "channel": 4,
      "note": 49,
      "start": 29.463,
      "duration": 0.0908,
      "velocity": 77,
      "chip": "ym2612"
    },
    {
      "channel": 5,
      "note": 5,
      "start": 29.4671,
      "duration": 0.1104,
      "velocity": 126,
      "chip": "ym2612"
    },
    {
      "channel": 0,
      "note": 92,
      "start": 29.5725,
      "duration": 0.4027,
      "velocity": 101,
      "chip": "ym2612"
    },
    {
      "channel": 1,
      "note": 97,
      "start": 29.5742,
      "duration": 0.4013,
      "velocity": 79,
      "chip": "ym2612"
    },
    {
      "channel": 3,
      "note": 89,
      "start": 29.5757,
      "duration": 0.4002,
      "velocity": 79,
      "chip": "ym2612"
    },
    {
      "channel": 4,
      "note": 49,
      "start": 29.5771,
      "duration": 0.2704,
      "velocity": 77,
      "chip": "ym2612"
    },
    {
      "channel": 5,
      "note": 18,
      "start": 29.5812,
      "duration": 0.1013,
      "velocity": 112,
      "chip": "ym2612"
    },
    {
      "channel": 5,
      "note": 38,
      "start": 29.6863,
      "duration": 0.1064,
      "velocity": 112,
      "chip": "ym2612"
    },
    {
      "channel": 5,
      "note": 37,
      "start": 29.7964,
      "duration": 0.1076,
      "velocity": 126,
      "chip": "ym2612"
    },
    {
      "channel": 4,
      "note": 50,
      "start": 29.9036,
      "duration": 0.0908,
      "velocity": 77,
      "chip": "ym2612"
    },
    {
      "channel": 5,
      "note": 18,
      "start": 29.9076,
      "duration": 0.1141,
      "velocity": 126,
      "chip": "ym2612"
    },
    {
      "channel": 0,
      "note": 94,
      "start": 30.0162,
      "duration": 0.1792,
      "velocity": 107,
      "chip": "ym2612"
    },
    {
      "channel": 1,
      "note": 98,
      "start": 30.018,
      "duration": 1.6831,
      "velocity": 79,
      "chip": "ym2612"
    },
    {
      "channel": 3,
      "note": 89,
      "start": 30.0197,
      "duration": 1.6817,
      "velocity": 79,
      "chip": "ym2612"
    },
    {
      "channel": 4,
      "note": 50,
      "start": 30.0213,
      "duration": 0.1751,
      "velocity": 77,
      "chip": "ym2612"
    },
    {
      "channel": 5,
      "note": 18,
      "start": 30.0257,
      "duration": 0.2098,
      "velocity": 112,
      "chip": "ym2612"
    },
    {
      "channel": 0,
      "note": 54,
      "start": 30.2332,
      "duration": 0.1825,
      "velocity": 107,
      "chip": "ym2612"
    },
    {
      "channel": 4,
      "note": 51,
      "start": 30.2351,
      "duration": 0.1815,
      "velocity": 77,
      "chip": "ym2612"
    },
    {
      "channel": 5,
      "note": 56,
      "start": 30.2393,
      "duration": 0.2171,
      "velocity": 112,
      "chip": "ym2612"
    },
    {
      "channel": 0,
      "note": 51,
      "start": 30.4541,
      "duration": 0.0902,
      "velocity": 107,
      "chip": "ym2612"
    },
    {
      "channel": 4,
      "note": 51,
      "start": 30.456,
      "duration": 0.1809,
      "velocity": 77,
      "chip": "ym2612"
    },
    {
      "channel": 5,
      "note": 56,
      "start": 30.4601,
      "duration": 0.327,
      "velocity": 126,
      "chip": "ym2612"
    },
    {
      "channel": 0,
      "note": 54,
      "start": 30.7849,
      "duration": 0.0899,
      "velocity": 107,
      "chip": "ym2612"
    },
    {
      "channel": 4,
      "note": 51,
      "start": 30.7868,
      "duration": 0.0889,
      "velocity": 77,
      "chip": "ym2612"
    },
    {
      "channel": 5,
      "note": 0,
      "start": 30.791,
      "duration": 0.2155,
      "velocity": 112,
      "chip": "ym2612"
    },
    {
      "channel": 0,
      "note": 49,
      "start": 31.0042,
      "duration": 0.0908,
      "velocity": 107,
      "chip": "ym2612"
    },
    {
      "channel": 4,
      "note": 49,
      "start": 31.0062,
      "duration": 0.0898,
      "velocity": 77,
      "chip": "ym2612"
    },
    {
      "channel": 5,
      "note": 56,
      "start": 31.0104,
      "duration": 0.1079,
      "velocity": 112,
      "chip": "ym2612"
    },
    {
      "channel": 0,
      "note": 49,
      "start": 31.116,
      "duration": 0.181,
      "velocity": 107,
      "chip": "ym2612"
    },
    {
      "channel": 4,
      "note": 49,
      "start": 31.1179,
      "duration": 0.1799,
      "velocity": 77,
      "chip": "ym2612"
    },
    {
      "channel": 5,
      "note": 59,
      "start": 31.1221,
      "duration": 0.2149,
      "velocity": 112,
      "chip": "ym2612"
    },
    {
      "channel": 0,
      "note": 46,
      "start": 31.3347,
      "duration": 0.1826,
      "velocity": 107,
      "chip": "ym2612"
    },
    {
      "channel": 4,
      "note": 51,
      "start": 31.3366,
      "duration": 0.1815,
      "velocity": 77,
      "chip": "ym2612"
    },
    {
      "channel": 5,
      "note": 56,
      "start": 31.3407,
      "duration": 0.1062,
      "velocity": 126,
      "chip": "ym2612"
    },
    {
      "channel": 5,
      "note": 16,
      "start": 31.4506,
      "duration": 0.3297,
      "velocity": 126,
      "chip": "ym2612"
    },
    {
      "channel": 0,
      "note": 44,
      "start": 31.555,
      "duration": 0.1826,
      "velocity": 107,
      "chip": "ym2612"
    },
    {
      "channel": 4,
      "note": 49,
      "start": 31.557,
      "duration": 0.1815,
      "velocity": 77,
      "chip": "ym2612"
    },
    {
      "channel": 0,
      "note": 46,
      "start": 31.7753,
      "duration": 0.1825,
      "velocity": 107,
      "chip": "ym2612"
    },
    {
      "channel": 1,
      "note": 94,
      "start": 31.7769,
      "duration": 1.6866,
      "velocity": 79,
      "chip": "ym2612"
    },
    {
      "channel": 3,
      "note": 90,
      "start": 31.7784,
      "duration": 1.6854,
      "velocity": 79,
      "chip": "ym2612"
    },
    {
      "channel": 4,
      "note": 51,
      "start": 31.7798,
      "duration": 0.1789,
      "velocity": 77,
      "chip": "ym2612"
    },
    {
      "channel": 5,
      "note": 0,
      "start": 31.784,
      "duration": 0.2139,
      "velocity": 112,
      "chip": "ym2612"
    },
    {
      "channel": 0,
      "note": 53,
      "start": 31.9956,
      "duration": 0.1825,
      "velocity": 107,
      "chip": "ym2612"
    },
    {
      "channel": 4,
      "note": 53,
      "start": 31.9975,
      "duration": 0.1815,
      "velocity": 77,
      "chip": "ym2612"
    },
    {
      "channel": 5,
      "note": 56,
      "start": 32.0017,
      "duration": 0.2165,
      "velocity": 112,
      "chip": "ym2612"
    },
    {
      "channel": 0,
      "note": 51,
      "start": 32.2158,
      "duration": 0.0908,
      "velocity": 107,
      "chip": "ym2612"
    },
    {
      "channel": 4,
      "note": 51,
      "start": 32.2178,
      "duration": 0.1814,
      "velocity": 77,
      "chip": "ym2612"
    },
    {
      "channel": 5,
      "note": 56,
      "start": 32.2219,
      "duration": 0.3268,
      "velocity": 126,
      "chip": "ym2612"
    },
    {
      "channel": 0,
      "note": 53,
      "start": 32.5463,
      "duration": 0.0908,
      "velocity": 107,
      "chip": "ym2612"
    },
    {
      "channel": 4,
      "note": 53,
      "start": 32.5483,
      "duration": 0.0897,
      "velocity": 77,
      "chip": "ym2612"
    },
    {
      "channel": 5,
      "note": 0,
      "start": 32.5525,
      "duration": 0.2165,
      "velocity": 112,
      "chip": "ym2612"
    },
    {
      "channel": 0,
      "note": 51,
      "start": 32.7666,
      "duration": 0.0908,
      "velocity": 107,
      "chip": "ym2612"
    },
    {
      "channel": 4,
      "note": 51,
      "start": 32.7686,
      "duration": 0.0897,
      "velocity": 77,
      "chip": "ym2612"
    },
    {
      "channel": 5,
      "note": 56,
      "start": 32.7728,
      "duration": 0.1063,
      "velocity": 112,
      "chip": "ym2612"
    },
    {
      "channel": 0,
      "note": 51,
      "start": 32.8768,
      "duration": 0.1826,
      "velocity": 107,
      "chip": "ym2612"
    },
    {
      "channel": 4,
      "note": 51,
      "start": 32.8787,
      "duration": 0.1816,
      "velocity": 77,
      "chip": "ym2612"
    },
    {
      "channel": 5,
      "note": 59,
      "start": 32.8829,
      "duration": 0.2165,
      "velocity": 112,
      "chip": "ym2612"
    },
    {
      "channel": 0,
      "note": 48,
      "start": 33.0971,
      "duration": 0.1826,
      "velocity": 107,
      "chip": "ym2612"
    },
    {
      "channel": 4,
      "note": 53,
      "start": 33.099,
      "duration": 0.1816,
      "velocity": 77,
      "chip": "ym2612"
    },
    {
      "channel": 5,
      "note": 56,
      "start": 33.1031,
      "duration": 0.1043,
      "velocity": 126,
      "chip": "ym2612"
    },
    {
      "channel": 5,
      "note": 16,
      "start": 33.211,
      "duration": 0.3323,
      "velocity": 126,
      "chip": "ym2612"
    },
    {
      "channel": 0,
      "note": 46,
      "start": 33.3174,
      "duration": 0.1835,
      "velocity": 107,
      "chip": "ym2612"
    },
    {
      "channel": 4,
      "note": 51,
      "start": 33.3193,
      "duration": 0.1824,
      "velocity": 77,
      "chip": "ym2612"
    },
    {
      "channel": 0,
      "note": 48,
      "start": 33.5378,
      "duration": 0.1824,
      "velocity": 107,
      "chip": "ym2612"
    },
    {
      "channel": 1,
      "note": 93,
      "start": 33.5396,
      "duration": 1.6863,
      "velocity": 79,
      "chip": "ym2612"
    },
    {
      "channel": 3,
      "note": 89,
      "start": 33.5413,
      "duration": 1.6849,
      "velocity": 79,
      "chip": "ym2612"
    },
    {
      "channel": 4,
      "note": 53,
      "start": 33.5429,
      "duration": 0.1782,
      "velocity": 77,
      "chip": "ym2612"
    },
    {
      "channel": 5,
      "note": 0,
      "start": 33.5473,
      "duration": 0.213,
      "velocity": 112,
      "chip": "ym2612"
    },
    {
      "channel": 0,
      "note": 54,
      "start": 33.758,
      "duration": 0.1825,
      "velocity": 107,
      "chip": "ym2612"
    },
    {
      "channel": 4,
      "note": 51,
      "start": 33.7599,
      "duration": 0.1815,
      "velocity": 77,
      "chip": "ym2612"
    },
    {
      "channel": 5,
      "note": 56,
      "start": 33.7641,
      "duration": 0.2165,
      "velocity": 112,
      "chip": "ym2612"
    },
    {
      "channel": 0,
      "note": 51,
      "start": 33.9783,
      "duration": 0.0908,
      "velocity": 107,
      "chip": "ym2612"
    },
    {
      "channel": 4,
      "note": 51,
      "start": 33.9802,
      "duration": 0.1837,
      "velocity": 77,
      "chip": "ym2612"
    },
    {
      "channel": 5,
      "note": 56,
      "start": 33.9843,
      "duration": 0.3267,
      "velocity": 126,
      "chip": "ym2612"
    },
    {
      "channel": 0,
      "note": 54,
      "start": 34.3087,
      "duration": 0.0908,
      "velocity": 107,
      "chip": "ym2612"
    },
    {
      "channel": 4,
      "note": 51,
      "start": 34.3106,
      "duration": 0.0898,
      "velocity": 77,
      "chip": "ym2612"
    },
    {
      "channel": 5,
      "note": 0,
      "start": 34.3148,
      "duration": 0.2171,
      "velocity": 112,
      "chip": "ym2612"
    },
    {
      "channel": 0,
      "note": 49,
      "start": 34.5296,
      "duration": 0.0901,
      "velocity": 107,
      "chip": "ym2612"
    },
    {
      "channel": 4,
      "note": 49,
      "start": 34.5315,
      "duration": 0.0891,
      "velocity": 77,
      "chip": "ym2612"
    },
    {
      "channel": 5,
      "note": 56,
      "start": 34.5358,
      "duration": 0.1058,
      "velocity": 112,
      "chip": "ym2612"
    },
    {
      "channel": 0,
      "note": 49,
      "start": 34.6392,
      "duration": 0.1826,
      "velocity": 107,
      "chip": "ym2612"
    },
    {
      "channel": 4,
      "note": 49,
      "start": 34.6412,
      "duration": 0.1815,
      "velocity": 77,
      "chip": "ym2612"
    },
    {
      "channel": 5,
      "note": 59,
      "start": 34.6454,
      "duration": 0.2178,
      "velocity": 112,
      "chip": "ym2612"
    },
    {
      "channel": 0,
      "note": 46,
      "start": 34.8608,
      "duration": 0.1812,
      "velocity": 107,
      "chip": "ym2612"
    },
    {
      "channel": 4,
      "note": 51,
      "start": 34.8627,
      "duration": 0.1802,
      "velocity": 77,
      "chip": "ym2612"
    },
    {
      "channel": 5,
      "note": 56,
      "start": 34.8668,
      "duration": 0.1029,
      "velocity": 126,
      "chip": "ym2612"
    },
    {
      "channel": 5,
      "note": 18,
      "start": 34.9734,
      "duration": 0.3316,
      "velocity": 126,
      "chip": "ym2612"
    },
    {
      "channel": 0,
      "note": 44,
      "start": 35.0798,
      "duration": 0.1826,
      "velocity": 107,
      "chip": "ym2612"
    },
    {
      "channel": 4,
      "note": 49,
      "start": 35.0817,
      "duration": 0.1815,
      "velocity": 77,
      "chip": "ym2612"
    },
    {
      "channel": 0,
      "note": 46,
      "start": 35.3001,
      "duration": 0.1826,
      "velocity": 107,
      "chip": "ym2612"
    },
    {
      "channel": 1,
      "note": 94,
      "start": 35.3017,
      "duration": 1.6866,
      "velocity": 79,
      "chip": "ym2612"
    },
    {
      "channel": 3,
      "note": 90,
      "start": 35.3032,
      "duration": 1.6854,
      "velocity": 79,
      "chip": "ym2612"
    },
    {
      "channel": 4,
      "note": 51,
      "start": 35.3046,
      "duration": 0.1789,
      "velocity": 77,
      "chip": "ym2612"
    },
    {
      "channel": 5,
      "note": 0,
      "start": 35.3088,
      "duration": 0.216,
      "velocity": 112,
      "chip": "ym2612"
    },
    {
      "channel": 0,
      "note": 53,
      "start": 35.5224,
      "duration": 0.1805,
      "velocity": 107,
      "chip": "ym2612"
    },
    {
      "channel": 4,
      "note": 53,
      "start": 35.5245,
      "duration": 0.1793,
      "velocity": 77,
      "chip": "ym2612"
    },
    {
      "channel": 5,
      "note": 56,
      "start": 35.5287,
      "duration": 0.2143,
      "velocity": 112,
      "chip": "ym2612"
    },
    {
      "channel": 0,
      "note": 51,
      "start": 35.7407,
      "duration": 0.0907,
      "velocity": 107,
      "chip": "ym2612"
    },
    {
      "channel": 4,
      "note": 51,
      "start": 35.7426,
      "duration": 0.1815,
      "velocity": 77,
      "chip": "ym2612"
    },
    {
      "channel": 5,
      "note": 56,
      "start": 35.7467,
      "duration": 0.3267,
      "velocity": 126,
      "chip": "ym2612"
    },
    {
      "channel": 0,
      "note": 53,
      "start": 36.0711,
      "duration": 0.0908,
      "velocity": 107,
      "chip": "ym2612"
    },
    {
      "channel": 4,
      "note": 53,
      "start": 36.073,
      "duration": 0.0898,
      "velocity": 77,
      "chip": "ym2612"
    },
    {
      "channel": 5,
      "note": 0,
      "start": 36.0773,
      "duration": 0.1045,
      "velocity": 112,
      "chip": "ym2612"
    },
    {
      "channel": 5,
      "note": 59,
      "start": 36.1854,
      "duration": 0.1083,
      "velocity": 126,
      "chip": "ym2612"
    },
    {
      "channel": 0,
      "note": 51,
      "start": 36.2914,
      "duration": 0.0908,
      "velocity": 107,
      "chip": "ym2612"
    },
    {
      "channel": 4,
      "note": 51,
      "start": 36.2934,
      "duration": 0.0897,
      "velocity": 77,
      "chip": "ym2612"
    },
    {
      "channel": 5,
      "note": 16,
      "start": 36.2975,
      "duration": 0.1064,
      "velocity": 126,
      "chip": "ym2612"
    },
    {
      "channel": 0,
      "note": 51,
      "start": 36.4015,
      "duration": 0.1828,
      "velocity": 107,
      "chip": "ym2612"
    },
    {
      "channel": 4,
      "note": 51,
      "start": 36.4035,
      "duration": 0.1817,
      "velocity": 77,
      "chip": "ym2612"
    },
    {
      "channel": 5,
      "note": 18,
      "start": 36.4078,
      "duration": 0.104,
      "velocity": 112,
      "chip": "ym2612"
    },
    {
      "channel": 5,
      "note": 33,
      "start": 36.5156,
      "duration": 0.1087,
      "velocity": 126,
      "chip": "ym2612"
    },
    {
      "channel": 0,
      "note": 48,
      "start": 36.6219,
      "duration": 0.1825,
      "velocity": 107,
      "chip": "ym2612"
    },
    {
      "channel": 4,
      "note": 53,
      "start": 36.6239,
      "duration": 0.1815,
      "velocity": 77,
      "chip": "ym2612"
    },
    {
      "channel": 5,
      "note": 16,
      "start": 36.6279,
      "duration": 0.1041,
      "velocity": 126,
      "chip": "ym2612"
    },
    {
      "channel": 5,
      "note": 18,
      "start": 36.7358,
      "duration": 0.1087,
      "velocity": 126,
      "chip": "ym2612"
    },
    {
      "channel": 0,
      "note": 46,
      "start": 36.8422,
      "duration": 0.1825,
      "velocity": 107,
      "chip": "ym2612"
    },
    {
      "channel": 4,
      "note": 51,
      "start": 36.8441,
      "duration": 0.1816,
      "velocity": 77,
      "chip": "ym2612"
    },
    {
      "channel": 5,
      "note": 18,
      "start": 36.8483,
      "duration": 0.1041,
      "velocity": 112,
      "chip": "ym2612"
    },
    {
      "channel": 5,
      "note": 33,
      "start": 36.9562,
      "duration": 0.1119,
      "velocity": 126,
      "chip": "ym2612"
    },
    {
      "channel": 0,
      "note": 48,
      "start": 37.0626,
      "duration": 0.1833,
      "velocity": 107,
      "chip": "ym2612"
    },
    {
      "channel": 1,
      "note": 93,
      "start": 37.0644,
      "duration": 1.6863,
      "velocity": 79,
      "chip": "ym2612"
    },
    {
      "channel": 3,
      "note": 89,
      "start": 37.0661,
      "duration": 1.6849,
      "velocity": 79,
      "chip": "ym2612"
    },
    {
      "channel": 4,
      "note": 53,
      "start": 37.0677,
      "duration": 0.1791,
      "velocity": 77,
      "chip": "ym2612"
    },
    {
      "channel": 5,
      "note": 18,
      "start": 37.072,
      "duration": 0.213,
      "velocity": 112,
      "chip": "ym2612"
    },
    {
      "channel": 0,
      "note": 54,
      "start": 37.2828,
      "duration": 0.1826,
      "velocity": 107,
      "chip": "ym2612"
    },
    {
      "channel": 4,
      "note": 51,
      "start": 37.2847,
      "duration": 0.1815,
      "velocity": 77,
      "chip": "ym2612"
    },
    {
      "channel": 5,
      "note": 56,
      "start": 37.2889,
      "duration": 0.2165,
      "velocity": 112,
      "chip": "ym2612"
    },
    {
      "channel": 0,
      "note": 51,
      "start": 37.5031,
      "duration": 0.0913,
      "velocity": 107,
      "chip": "ym2612"
    },
    {
      "channel": 4,
      "note": 51,
      "start": 37.505,
      "duration": 0.1814,
      "velocity": 77,
      "chip": "ym2612"
    },
    {
      "channel": 5,
      "note": 56,
      "start": 37.5091,
      "duration": 0.3267,
      "velocity": 126,
      "chip": "ym2612"
    },
    {
      "channel": 0,
      "note": 54,
      "start": 37.8335,
      "duration": 0.092,
      "velocity": 107,
      "chip": "ym2612"
    },
    {
      "channel": 4,
      "note": 51,
      "start": 37.8354,
      "duration": 0.091,
      "velocity": 77,
      "chip": "ym2612"
    },
    {
      "channel": 5,
      "note": 0,
      "start": 37.8396,
      "duration": 0.2165,
      "velocity": 112,
      "chip": "ym2612"
    },
    {
      "channel": 0,
      "note": 49,
      "start": 38.0537,
      "duration": 0.0909,
      "velocity": 107,
      "chip": "ym2612"
    },
    {
      "channel": 4,
      "note": 49,
      "start": 38.0557,
      "duration": 0.0898,
      "velocity": 77,
      "chip": "ym2612"
    },
    {
      "channel": 5,
      "note": 56,
      "start": 38.06,
      "duration": 0.1063,
      "velocity": 112,
      "chip": "ym2612"
    },
    {
      "channel": 0,
      "note": 49,
      "start": 38.1639,
      "duration": 0.1826,
      "velocity": 107,
      "chip": "ym2612"
    },
    {
      "channel": 4,
      "note": 49,
      "start": 38.1659,
      "duration": 0.1815,
      "velocity": 77,
      "chip": "ym2612"
    },
    {
      "channel": 5,
      "note": 59,
      "start": 38.1701,
      "duration": 0.2165,
      "velocity": 112,
      "chip": "ym2612"
    },
    {
      "channel": 0,
      "note": 46,
      "start": 38.3842,
      "duration": 0.1826,
      "velocity": 107,
      "chip": "ym2612"
    },
    {
      "channel": 4,
      "note": 51,
      "start": 38.3862,
      "duration": 0.1815,
      "velocity": 77,
      "chip": "ym2612"
    },
    {
      "channel": 5,
      "note": 56,
      "start": 38.3903,
      "duration": 0.1042,
      "velocity": 126,
      "chip": "ym2612"
    },
    {
      "channel": 5,
      "note": 18,
      "start": 38.4982,
      "duration": 0.3316,
      "velocity": 126,
      "chip": "ym2612"
    },
    {
      "channel": 0,
      "note": 44,
      "start": 38.6054,
      "duration": 0.1817,
      "velocity": 107,
      "chip": "ym2612"
    },
    {
      "channel": 4,
      "note": 49,
      "start": 38.6074,
      "duration": 0.1806,
      "velocity": 77,
      "chip": "ym2612"
    },
    {
      "channel": 0,
      "note": 46,
      "start": 38.8248,
      "duration": 0.1826,
      "velocity": 107,
      "chip": "ym2612"
    },
    {
      "channel": 1,
      "note": 94,
      "start": 38.8264,
      "duration": 1.6866,
      "velocity": 79,
      "chip": "ym2612"
    },
    {
      "channel": 3,
      "note": 90,
      "start": 38.828,
      "duration": 1.6854,
      "velocity": 79,
      "chip": "ym2612"
    },
    {
      "channel": 4,
      "note": 51,
      "start": 38.8294,
      "duration": 0.1789,
      "velocity": 77,
      "chip": "ym2612"
    },
    {
      "channel": 5,
      "note": 0,
      "start": 38.8336,
      "duration": 0.2139,
      "velocity": 112,
      "chip": "ym2612"
    },
    {
      "channel": 0,
      "note": 53,
      "start": 39.0452,
      "duration": 0.1826,
      "velocity": 107,
      "chip": "ym2612"
    },
    {
      "channel": 4,
      "note": 53,
      "start": 39.0471,
      "duration": 0.1815,
      "velocity": 77,
      "chip": "ym2612"
    },
    {
      "channel": 5,
      "note": 56,
      "start": 39.0513,
      "duration": 0.2185,
      "velocity": 112,
      "chip": "ym2612"
    },
    {
      "channel": 0,
      "note": 51,
      "start": 39.2674,
      "duration": 0.0887,
      "velocity": 107,
      "chip": "ym2612"
    },
    {
      "channel": 4,
      "note": 51,
      "start": 39.2693,
      "duration": 0.1795,
      "velocity": 77,
      "chip": "ym2612"
    },
    {
      "channel": 5,
      "note": 56,
      "start": 39.2734,
      "duration": 0.3248,
      "velocity": 126,
      "chip": "ym2612"
    },
    {
      "channel": 0,
      "note": 53,
      "start": 39.5959,
      "duration": 0.0908,
      "velocity": 107,
      "chip": "ym2612"
    },
    {
      "channel": 4,
      "note": 53,
      "start": 39.5978,
      "duration": 0.0897,
      "velocity": 77,
      "chip": "ym2612"
    },
    {
      "channel": 5,
      "note": 0,
      "start": 39.602,
      "duration": 0.2165,
      "velocity": 112,
      "chip": "ym2612"
    },
    {
      "channel": 0,
      "note": 51,
      "start": 39.8162,
      "duration": 0.0908,
      "velocity": 107,
      "chip": "ym2612"
    },
    {
      "channel": 4,
      "note": 51,
      "start": 39.8181,
      "duration": 0.0898,
      "velocity": 77,
      "chip": "ym2612"
    },
    {
      "channel": 5,
      "note": 56,
      "start": 39.8223,
      "duration": 0.1063,
      "velocity": 112,
      "chip": "ym2612"
    },
    {
      "channel": 0,
      "note": 51,
      "start": 39.9263,
      "duration": 0.1826,
      "velocity": 107,
      "chip": "ym2612"
    },
    {
      "channel": 4,
      "note": 51,
      "start": 39.9283,
      "duration": 0.1815,
      "velocity": 77,
      "chip": "ym2612"
    },
    {
      "channel": 5,
      "note": 59,
      "start": 39.9324,
      "duration": 0.2165,
      "velocity": 112,
      "chip": "ym2612"
    },
    {
      "channel": 0,
      "note": 48,
      "start": 40.1466,
      "duration": 0.1826,
      "velocity": 107,
      "chip": "ym2612"
    },
    {
      "channel": 4,
      "note": 53,
      "start": 40.1486,
      "duration": 0.1815,
      "velocity": 77,
      "chip": "ym2612"
    },
    {
      "channel": 5,
      "note": 56,
      "start": 40.1527,
      "duration": 0.1042,
      "velocity": 126,
      "chip": "ym2612"
    },
    {
      "channel": 5,
      "note": 18,
      "start": 40.2606,
      "duration": 0.3324,
      "velocity": 126,
      "chip": "ym2612"
    },
    {
      "channel": 0,
      "note": 46,
      "start": 40.3669,
      "duration": 0.1826,
      "velocity": 107,
      "chip": "ym2612"
    },
    {
      "channel": 4,
      "note": 51,
      "start": 40.3689,
      "duration": 0.1815,
      "velocity": 77,
      "chip": "ym2612"
    },
    {
      "channel": 0,
      "note": 48,
      "start": 40.5874,
      "duration": 0.1824,
      "velocity": 107,
      "chip": "ym2612"
    },
    {
      "channel": 1,
      "note": 93,
      "start": 40.5891,
      "duration": 0.8235,
      "velocity": 79,
      "chip": "ym2612"
    },
    {
      "channel": 3,
      "note": 89,
      "start": 40.5909,
      "duration": 0.8221,
      "velocity": 79,
      "chip": "ym2612"
    },
    {
      "channel": 4,
      "note": 53,
      "start": 40.5926,
      "duration": 0.1782,
      "velocity": 77,
      "chip": "ym2612"
    },
    {
      "channel": 5,
      "note": 0,
      "start": 40.5969,
      "duration": 0.213,
      "velocity": 112,
      "chip": "ym2612"
    },
    {
      "channel": 0,
      "note": 53,
      "start": 40.8076,
      "duration": 0.1834,
      "velocity": 107,
      "chip": "ym2612"
    },
    {
      "channel": 4,
      "note": 58,
      "start": 40.8095,
      "duration": 0.1824,
      "velocity": 77,
      "chip": "ym2612"
    },
    {
      "channel": 5,
      "note": 56,
      "start": 40.8137,
      "duration": 0.2165,
      "velocity": 112,
      "chip": "ym2612"
    },
    {
      "channel": 0,
      "note": 51,
      "start": 41.0278,
      "duration": 0.1826,
      "velocity": 107,
      "chip": "ym2612"
    },
    {
      "channel": 4,
      "note": 56,
      "start": 41.0298,
      "duration": 0.1814,
      "velocity": 77,
      "chip": "ym2612"
    },
    {
      "channel": 5,
      "note": 56,
      "start": 41.0339,
      "duration": 0.3268,
      "velocity": 126,
      "chip": "ym2612"
    },
    {
      "channel": 0,
      "note": 53,
      "start": 41.3583,
      "duration": 0.0908,
      "velocity": 107,
      "chip": "ym2612"
    },
    {
      "channel": 4,
      "note": 58,
      "start": 41.3603,
      "duration": 0.0896,
      "velocity": 77,
      "chip": "ym2612"
    },
    {
      "channel": 5,
      "note": 0,
      "start": 41.3645,
      "duration": 0.2165,
      "velocity": 112,
      "chip": "ym2612"
    },
    {
      "channel": 1,
      "note": 94,
      "start": 41.4691,
      "duration": 0.8247,
      "velocity": 79,
      "chip": "ym2612"
    },
    {
      "channel": 3,
      "note": 89,
      "start": 41.4706,
      "duration": 0.8235,
      "velocity": 79,
      "chip": "ym2612"
    },
    {
      "channel": 0,
      "note": 51,
      "start": 41.5786,
      "duration": 0.0917,
      "velocity": 107,
      "chip": "ym2612"
    },
    {
      "channel": 4,
      "note": 56,
      "start": 41.5806,
      "duration": 0.0907,
      "velocity": 77,
      "chip": "ym2612"
    },
    {
      "channel": 5,
      "note": 56,
      "start": 41.5848,
      "duration": 0.1063,
      "velocity": 112,
      "chip": "ym2612"
    },
    {
      "channel": 0,
      "note": 51,
      "start": 41.6887,
      "duration": 0.1826,
      "velocity": 107,
      "chip": "ym2612"
    },
    {
      "channel": 4,
      "note": 56,
      "start": 41.6907,
      "duration": 0.1815,
      "velocity": 77,
      "chip": "ym2612"
    },
    {
      "channel": 5,
      "note": 59,
      "start": 41.6949,
      "duration": 0.2165,
      "velocity": 112,
      "chip": "ym2612"
    },
    {
      "channel": 0,
      "note": 49,
      "start": 41.909,
      "duration": 0.1826,
      "velocity": 107,
      "chip": "ym2612"
    },
    {
      "channel": 4,
      "note": 54,
      "start": 41.911,
      "duration": 0.4017,
      "velocity": 77,
      "chip": "ym2612"
    },
    {
      "channel": 5,
      "note": 56,
      "start": 41.9151,
      "duration": 0.1046,
      "velocity": 126,
      "chip": "ym2612"
    },
    {
      "channel": 5,
      "note": 16,
      "start": 42.0234,
      "duration": 0.3318,
      "velocity": 126,
      "chip": "ym2612"
    },
    {
      "channel": 0,
      "note": 51,
      "start": 42.3501,
      "duration": 0.0902,
      "velocity": 107,
      "chip": "ym2612"
    },
    {
      "channel": 1,
      "note": 95,
      "start": 42.3517,
      "duration": 0.144,
      "velocity": 79,
      "chip": "ym2612"
    },
    {
      "channel": 3,
      "note": 90,
      "start": 42.3533,
      "duration": 0.1427,
      "velocity": 79,
      "chip": "ym2612"
    },
    {
      "channel": 4,
      "note": 56,
      "start": 42.3548,
      "duration": 0.1783,
      "velocity": 77,
      "chip": "ym2612"
    },
    {
      "channel": 5,
      "note": 0,
      "start": 42.3588,
      "duration": 0.1021,
      "velocity": 126,
      "chip": "ym2612"
    },
    {
      "channel": 0,
      "note": 58,
      "start": 42.4598,
      "duration": 0.0908,
      "velocity": 107,
      "chip": "ym2612"
    },
    {
      "channel": 5,
      "note": 18,
      "start": 42.4648,
      "duration": 0.107,
      "velocity": 112,
      "chip": "ym2612"
    },
    {
      "channel": 0,
      "note": 53,
      "start": 42.5699,
      "duration": 0.0926,
      "velocity": 107,
      "chip": "ym2612"
    },
    {
      "channel": 5,
      "note": 59,
      "start": 42.5756,
      "duration": 0.1102,
      "velocity": 112,
      "chip": "ym2612"
    },
    {
      "channel": 0,
      "note": 50,
      "start": 42.6809,
      "duration": 0.09,
      "velocity": 107,
      "chip": "ym2612"
    },
    {
      "channel": 1,
      "note": 94,
      "start": 42.6824,
      "duration": 0.1438,
      "velocity": 79,
      "chip": "ym2612"
    },
    {
      "channel": 3,
      "note": 89,
      "start": 42.684,
      "duration": 0.1425,
      "velocity": 79,
      "chip": "ym2612"
    },
    {
      "channel": 4,
      "note": 58,
      "start": 42.6855,
      "duration": 0.178,
      "velocity": 77,
      "chip": "ym2612"
    },
    {
      "channel": 5,
      "note": 59,
      "start": 42.6896,
      "duration": 0.1019,
      "velocity": 126,
      "chip": "ym2612"
    },
    {
      "channel": 0,
      "note": 57,
      "start": 42.7903,
      "duration": 0.0907,
      "velocity": 107,
      "chip": "ym2612"
    },
    {
      "channel": 5,
      "note": 18,
      "start": 42.7953,
      "duration": 0.1069,
      "velocity": 112,
      "chip": "ym2612"
    },
    {
      "channel": 0,
      "note": 52,
      "start": 42.9004,
      "duration": 0.0908,
      "velocity": 107,
      "chip": "ym2612"
    },
    {
      "channel": 5,
      "note": 59,
      "start": 42.906,
      "duration": 0.1108,
      "velocity": 112,
      "chip": "ym2612"
    },
    {
      "channel": 0,
      "note": 49,
      "start": 43.0118,
      "duration": 0.0894,
      "velocity": 107,
      "chip": "ym2612"
    },
    {
      "channel": 1,
      "note": 93,
      "start": 43.0134,
      "duration": 0.1076,
      "velocity": 79,
      "chip": "ym2612"
    },
    {
      "channel": 3,
      "note": 88,
      "start": 43.015,
      "duration": 0.1064,
      "velocity": 79,
      "chip": "ym2612"
    },
    {
      "channel": 4,
      "note": 57,
      "start": 43.0165,
      "duration": 0.1223,
      "velocity": 77,
      "chip": "ym2612"
    },
    {
      "channel": 5,
      "note": 59,
      "start": 43.0205,
      "duration": 0.1015,
      "velocity": 126,
      "chip": "ym2612"
    },
    {
      "channel": 0,
      "note": 56,
      "start": 43.1207,
      "duration": 0.0908,
      "velocity": 107,
      "chip": "ym2612"
    },
    {
      "channel": 5,
      "note": 18,
      "start": 43.1259,
      "duration": 0.1098,
      "velocity": 112,
      "chip": "ym2612"
    },
    {
      "channel": 0,
      "note": 51,
      "start": 43.2308,
      "duration": 0.0908,
      "velocity": 107,
      "chip": "ym2612"
    },
    {
      "channel": 1,
      "note": 92,
      "start": 43.2324,
      "duration": 0.1448,
      "velocity": 79,
      "chip": "ym2612"
    },
    {
      "channel": 3,
      "note": 87,
      "start": 43.2339,
      "duration": 0.1437,
      "velocity": 79,
      "chip": "ym2612"
    },
    {
      "channel": 4,
      "note": 56,
      "start": 43.2353,
      "duration": 0.1789,
      "velocity": 77,
      "chip": "ym2612"
    },
    {
      "channel": 5,
      "note": 59,
      "start": 43.2394,
      "duration": 0.1049,
      "velocity": 126,
      "chip": "ym2612"
    },
    {
      "channel": 0,
      "note": 55,
      "start": 43.3431,
      "duration": 0.0887,
      "velocity": 107,
      "chip": "ym2612"
    },
    {
      "channel": 5,
      "note": 16,
      "start": 43.3481,
      "duration": 0.1048,
      "velocity": 112,
      "chip": "ym2612"
    },
    {
      "channel": 0,
      "note": 50,
      "start": 43.4511,
      "duration": 0.0908,
      "velocity": 107,
      "chip": "ym2612"
    },
    {
      "channel": 5,
      "note": 59,
      "start": 43.4567,
      "duration": 0.1094,
      "velocity": 112,
      "chip": "ym2612"
    },
    {
      "channel": 0,
      "note": 47,
      "start": 43.5613,
      "duration": 0.0908,
      "velocity": 107,
      "chip": "ym2612"
    },
    {
      "channel": 1,
      "note": 91,
      "start": 43.5629,
      "duration": 0.1454,
      "velocity": 79,
      "chip": "ym2612"
    },
    {
      "channel": 3,
      "note": 86,
      "start": 43.5644,
      "duration": 0.1441,
      "velocity": 79,
      "chip": "ym2612"
    },
    {
      "channel": 4,
      "note": 55,
      "start": 43.5658,
      "duration": 0.1789,
      "velocity": 77,
      "chip": "ym2612"
    },
    {
      "channel": 5,
      "note": 59,
      "start": 43.5698,
      "duration": 0.1027,
      "velocity": 126,
      "chip": "ym2612"
    },
    {
      "channel": 0,
      "note": 54,
      "start": 43.6714,
      "duration": 0.0908,
      "velocity": 107,
      "chip": "ym2612"
    },
    {
      "channel": 5,
      "note": 18,
      "start": 43.6765,
      "duration": 0.1069,
      "velocity": 112,
      "chip": "ym2612"
    },
    {
      "channel": 0,
      "note": 49,
      "start": 43.7815,
      "duration": 0.0908,
      "velocity": 107,
      "chip": "ym2612"
    },
    {
      "channel": 5,
      "note": 59,
      "start": 43.7872,
      "duration": 0.1094,
      "velocity": 112,
      "chip": "ym2612"
    },
    {
      "channel": 0,
      "note": 46,
      "start": 43.8917,
      "duration": 0.0908,
      "velocity": 107,
      "chip": "ym2612"
    },
    {
      "channel": 1,
      "note": 90,
      "start": 43.8933,
      "duration": 0.109,
      "velocity": 79,
      "chip": "ym2612"
    },
    {
      "channel": 3,
      "note": 85,
      "start": 43.8948,
      "duration": 0.1078,
      "velocity": 79,
      "chip": "ym2612"
    },
    {
      "channel": 4,
      "note": 54,
      "start": 43.8962,
      "duration": 0.126,
      "velocity": 77,
      "chip": "ym2612"
    },
    {
      "channel": 5,
      "note": 59,
      "start": 43.9003,
      "duration": 0.1029,
      "velocity": 126,
      "chip": "ym2612"
    },
    {
      "channel": 0,
      "note": 53,
      "start": 44.0018,
      "duration": 0.0908,
      "velocity": 107,
      "chip": "ym2612"
    },
    {
      "channel": 5,
      "note": 18,
      "start": 44.0069,
      "duration": 0.1174,
      "velocity": 126,
      "chip": "ym2612"
    },
    {
      "channel": 0,
      "note": 48,
      "start": 44.1156,
      "duration": 0.0087,
      "velocity": 107,
      "chip": "ym2612"
    },
    {
      "channel": 1,
      "note": 89,
      "start": 44.1209,
      "duration": 0.0035,
      "velocity": 79,
      "chip": "ym2612"
    }
  ]
}