{
  "track_name": "13 - Inventory",
  "duration_sec": 29.399,
  "sample_rate": 44100,
  "note_count": 807,
  "unique_pitches": 45,
  "pitch_range": 84,
  "avg_note_duration": 0.1648,
  "reconstruction_stats": {
    "notes_reconstructed": 807,
    "keyon_events": 807,
    "keyoff_events": 792,
    "orphan_keyons": 2,
    "unique_pitches": 45,
    "pitch_range": 84,
    "avg_duration_sec": 0.1648
  },
  "metadata": {
    "source": "D\\Decap Attack\\13 - Inventory.vgz"
  },
  "notes": [
    {
      "channel": 0,
      "note": 48,
      "start": 0.0,
      "duration": 0.2975,
      "velocity": 107,
      "chip": "ym2612"
    },
    {
      "channel": 3,
      "note": 87,
      "start": 0.0095,
      "duration": 0.1885,
      "velocity": 93,
      "chip": "ym2612"
    },
    {
      "channel": 4,
      "note": 84,
      "start": 0.0142,
      "duration": 0.1844,
      "velocity": 93,
      "chip": "ym2612"
    },
    {
      "channel": 5,
      "note": 20,
      "start": 0.0171,
      "duration": 0.2827,
      "velocity": 127,
      "chip": "ym2612"
    },
    {
      "channel": 3,
      "note": 84,
      "start": 0.1984,
      "duration": 0.1004,
      "velocity": 93,
      "chip": "ym2612"
    },
    {
      "channel": 4,
      "note": 79,
      "start": 0.199,
      "duration": 0.1003,
      "velocity": 93,
      "chip": "ym2612"
    },
    {
      "channel": 0,
      "note": 48,
      "start": 0.2978,
      "duration": 0.1997,
      "velocity": 107,
      "chip": "ym2612"
    },
    {
      "channel": 1,
      "note": 79,
      "start": 0.2984,
      "duration": 0.1996,
      "velocity": 107,
      "chip": "ym2612"
    },
    {
      "channel": 3,
      "note": 91,
      "start": 0.2992,
      "duration": 0.0988,
      "velocity": 93,
      "chip": "ym2612"
    },
    {
      "channel": 4,
      "note": 84,
      "start": 0.2997,
      "duration": 0.0985,
      "velocity": 93,
      "chip": "ym2612"
    },
    {
      "channel": 0,
      "note": 48,
      "start": 0.4978,
      "duration": 0.0997,
      "velocity": 107,
      "chip": "ym2612"
    },
    {
      "channel": 2,
      "note": 79,
      "start": 0.4985,
      "duration": 0.1993,
      "velocity": 107,
      "chip": "ym2612"
    },
    {
      "channel": 5,
      "note": 20,
      "start": 0.4993,
      "duration": 0.0993,
      "velocity": 127,
      "chip": "ym2612"
    },
    {
      "channel": 0,
      "note": 51,
      "start": 0.5978,
      "duration": 0.1997,
      "velocity": 107,
      "chip": "ym2612"
    },
    {
      "channel": 5,
      "note": 80,
      "start": 0.6012,
      "duration": 0.2975,
      "velocity": 127,
      "chip": "ym2612"
    },
    {
      "channel": 0,
      "note": 46,
      "start": 0.7978,
      "duration": 0.0997,
      "velocity": 107,
      "chip": "ym2612"
    },
    {
      "channel": 1,
      "note": 79,
      "start": 0.7983,
      "duration": 0.1992,
      "velocity": 107,
      "chip": "ym2612"
    },
    {
      "channel": 3,
      "note": 91,
      "start": 0.799,
      "duration": 0.0994,
      "velocity": 93,
      "chip": "ym2612"
    },
    {
      "channel": 4,
      "note": 84,
      "start": 0.7995,
      "duration": 0.099,
      "velocity": 93,
      "chip": "ym2612"
    },
    {
      "channel": 0,
      "note": 47,
      "start": 0.8978,
      "duration": 0.1997,
      "velocity": 107,
      "chip": "ym2612"
    },
    {
      "channel": 2,
      "note": 79,
      "start": 0.9981,
      "duration": 0.1996,
      "velocity": 107,
      "chip": "ym2612"
    },
    {
      "channel": 0,
      "note": 48,
      "start": 1.0978,
      "duration": 0.2997,
      "velocity": 107,
      "chip": "ym2612"
    },
    {
      "channel": 1,
      "note": 78,
      "start": 1.0983,
      "duration": 0.1992,
      "velocity": 107,
      "chip": "ym2612"
    },
    {
      "channel": 5,
      "note": 20,
      "start": 1.1016,
      "duration": 0.0973,
      "velocity": 127,
      "chip": "ym2612"
    },
    {
      "channel": 3,
      "note": 90,
      "start": 1.1983,
      "duration": 0.3004,
      "velocity": 93,
      "chip": "ym2612"
    },
    {
      "channel": 4,
      "note": 84,
      "start": 1.1988,
      "duration": 0.3001,
      "velocity": 93,
      "chip": "ym2612"
    },
    {
      "channel": 5,
      "note": 20,
      "start": 1.1993,
      "duration": 0.2997,
      "velocity": 127,
      "chip": "ym2612"
    },
    {
      "channel": 2,
      "note": 78,
      "start": 1.2981,
      "duration": 0.2004,
      "velocity": 107,
      "chip": "ym2612"
    },
    {
      "channel": 0,
      "note": 48,
      "start": 1.3978,
      "duration": 0.0997,
      "velocity": 107,
      "chip": "ym2612"
    },
    {
      "channel": 1,
      "note": 75,
      "start": 1.3983,
      "duration": 0.0325,
      "velocity": 107,
      "chip": "ym2612"
    },
    {
      "channel": 1,
      "note": 76,
      "start": 1.4312,
      "duration": 0.0329,
      "velocity": 107,
      "chip": "ym2612"
    },
    {
      "channel": 1,
      "note": 77,
      "start": 1.4646,
      "duration": 0.0334,
      "velocity": 107,
      "chip": "ym2612"
    },
    {
      "channel": 0,
      "note": 51,
      "start": 1.4978,
      "duration": 0.1997,
      "velocity": 107,
      "chip": "ym2612"
    },
    {
      "channel": 1,
      "note": 78,
      "start": 1.4983,
      "duration": 0.1996,
      "velocity": 107,
      "chip": "ym2612"
    },
    {
      "channel": 5,
      "note": 32,
      "start": 1.5016,
      "duration": 0.2975,
      "velocity": 69,
      "chip": "ym2612"
    },
    {
      "channel": 2,
      "note": 75,
      "start": 1.5981,
      "duration": 0.0329,
      "velocity": 107,
      "chip": "ym2612"
    },
    {
      "channel": 2,
      "note": 76,
      "start": 1.6314,
      "duration": 0.0329,
      "velocity": 107,
      "chip": "ym2612"
    },
    {
      "channel": 2,
      "note": 77,
      "start": 1.6647,
      "duration": 0.0334,
      "velocity": 107,
      "chip": "ym2612"
    },
    {
      "channel": 0,
      "note": 48,
      "start": 1.6978,
      "duration": 0.0997,
      "velocity": 107,
      "chip": "ym2612"
    },
    {
      "channel": 2,
      "note": 78,
      "start": 1.6985,
      "duration": 0.1992,
      "velocity": 107,
      "chip": "ym2612"
    },
    {
      "channel": 3,
      "note": 90,
      "start": 1.699,
      "duration": 0.0996,
      "velocity": 93,
      "chip": "ym2612"
    },
    {
      "channel": 4,
      "note": 84,
      "start": 1.6995,
      "duration": 0.0993,
      "velocity": 93,
      "chip": "ym2612"
    },
    {
      "channel": 0,
      "note": 53,
      "start": 1.7978,
      "duration": 0.1997,
      "velocity": 107,
      "chip": "ym2612"
    },
    {
      "channel": 1,
      "note": 77,
      "start": 1.7983,
      "duration": 0.1996,
      "velocity": 107,
      "chip": "ym2612"
    },
    {
      "channel": 5,
      "note": 80,
      "start": 1.8017,
      "duration": 0.2975,
      "velocity": 127,
      "chip": "ym2612"
    },
    {
      "channel": 0,
      "note": 48,
      "start": 1.9978,
      "duration": 0.0997,
      "velocity": 107,
      "chip": "ym2612"
    },
    {
      "channel": 2,
      "note": 77,
      "start": 1.9985,
      "duration": 0.1992,
      "velocity": 107,
      "chip": "ym2612"
    },
    {
      "channel": 3,
      "note": 96,
      "start": 2.0012,
      "duration": 0.0974,
      "velocity": 92,
      "chip": "ym2612"
    },
    {
      "channel": 4,
      "note": 96,
      "start": 2.0484,
      "duration": 0.0996,
      "velocity": 92,
      "chip": "ym2612"
    },
    {
      "channel": 0,
      "note": 54,
      "start": 2.0978,
      "duration": 0.1997,
      "velocity": 107,
      "chip": "ym2612"
    },
    {
      "channel": 1,
      "note": 77,
      "start": 2.0983,
      "duration": 0.1996,
      "velocity": 107,
      "chip": "ym2612"
    },
    {
      "channel": 3,
      "note": 103,
      "start": 2.099,
      "duration": 0.0989,
      "velocity": 92,
      "chip": "ym2612"
    },
    {
      "channel": 4,
      "note": 103,
      "start": 2.1483,
      "duration": 0.0998,
      "velocity": 92,
      "chip": "ym2612"
    },
    {
      "channel": 0,
      "note": 55,
      "start": 2.2978,
      "duration": 0.0997,
      "velocity": 107,
      "chip": "ym2612"
    },
    {
      "channel": 2,
      "note": 77,
      "start": 2.2985,
      "duration": 0.1992,
      "velocity": 107,
      "chip": "ym2612"
    },
    {
      "channel": 3,
      "note": 96,
      "start": 2.299,
      "duration": 0.0999,
      "velocity": 92,
      "chip": "ym2612"
    },
    {
      "channel": 5,
      "note": 20,
      "start": 2.302,
      "duration": 0.1022,
      "velocity": 127,
      "chip": "ym2612"
    },
    {
      "channel": 4,
      "note": 96,
      "start": 2.3484,
      "duration": 0.0531,
      "velocity": 92,
      "chip": "ym2612"
    },
    {
      "channel": 0,
      "note": 48,
      "start": 2.398,
      "duration": 0.2995,
      "velocity": 107,
      "chip": "ym2612"
    },
    {
      "channel": 1,
      "note": 75,
      "start": 2.3986,
      "duration": 0.1989,
      "velocity": 107,
      "chip": "ym2612"
    },
    {
      "channel": 3,
      "note": 85,
      "start": 2.4014,
      "duration": 0.1973,
      "velocity": 93,
      "chip": "ym2612"
    },
    {
      "channel": 4,
      "note": 80,
      "start": 2.4041,
      "duration": 0.1951,
      "velocity": 93,
      "chip": "ym2612"
    },
    {
      "channel": 5,
      "note": 20,
      "start": 2.407,
      "duration": 0.2927,
      "velocity": 127,
      "chip": "ym2612"
    },
    {
      "channel": 1,
      "note": 72,
      "start": 2.5979,
      "duration": 0.1001,
      "velocity": 107,
      "chip": "ym2612"
    },
    {
      "channel": 2,
      "note": 75,
      "start": 2.5985,
      "duration": 0.1992,
      "velocity": 107,
      "chip": "ym2612"
    },
    {
      "channel": 3,
      "note": 80,
      "start": 2.599,
      "duration": 0.0997,
      "velocity": 93,
      "chip": "ym2612"
    },
    {
      "channel": 4,
      "note": 73,
      "start": 2.5995,
      "duration": 0.0996,
      "velocity": 93,
      "chip": "ym2612"
    },
    {
      "channel": 0,
      "note": 48,
      "start": 2.6978,
      "duration": 0.1997,
      "velocity": 107,
      "chip": "ym2612"
    },
    {
      "channel": 1,
      "note": 70,
      "start": 2.6983,
      "duration": 0.1997,
      "velocity": 107,
      "chip": "ym2612"
    },
    {
      "channel": 3,
      "note": 89,
      "start": 2.699,
      "duration": 0.0992,
      "velocity": 93,
      "chip": "ym2612"
    },
    {
      "channel": 4,
      "note": 85,
      "start": 2.6996,
      "duration": 0.0988,
      "velocity": 93,
      "chip": "ym2612"
    },
    {
      "channel": 2,
      "note": 72,
      "start": 2.7981,
      "duration": 0.1004,
      "velocity": 107,
      "chip": "ym2612"
    },
    {
      "channel": 0,
      "note": 48,
      "start": 2.8978,
      "duration": 0.0997,
      "velocity": 107,
      "chip": "ym2612"
    },
    {
      "channel": 1,
      "note": 72,
      "start": 2.8983,
      "duration": 0.0996,
      "velocity": 107,
      "chip": "ym2612"
    },
    {
      "channel": 2,
      "note": 70,
      "start": 2.8988,
      "duration": 0.1989,
      "velocity": 107,
      "chip": "ym2612"
    },
    {
      "channel": 5,
      "note": 20,
      "start": 2.8997,
      "duration": 0.0989,
      "velocity": 127,
      "chip": "ym2612"
    },
    {
      "channel": 0,
      "note": 51,
      "start": 2.9978,
      "duration": 0.1997,
      "velocity": 107,
      "chip": "ym2612"
    },
    {
      "channel": 5,
      "note": 80,
      "start": 3.0012,
      "duration": 0.2978,
      "velocity": 127,
      "chip": "ym2612"
    },
    {
      "channel": 2,
      "note": 72,
      "start": 3.0981,
      "duration": 0.1001,
      "velocity": 107,
      "chip": "ym2612"
    },
    {
      "channel": 0,
      "note": 46,
      "start": 3.1978,
      "duration": 0.0997,
      "velocity": 107,
      "chip": "ym2612"
    },
    {
      "channel": 3,
      "note": 89,
      "start": 3.1988,
      "duration": 0.1,
      "velocity": 93,
      "chip": "ym2612"
    },
    {
      "channel": 4,
      "note": 85,
      "start": 3.1993,
      "duration": 0.0996,
      "velocity": 93,
      "chip": "ym2612"
    },
    {
      "channel": 0,
      "note": 47,
      "start": 3.2978,
      "duration": 0.1997,
      "velocity": 107,
      "chip": "ym2612"
    },
    {
      "channel": 1,
      "note": 75,
      "start": 3.2983,
      "duration": 0.1996,
      "velocity": 107,
      "chip": "ym2612"
    },
    {
      "channel": 0,
      "note": 48,
      "start": 3.4978,
      "duration": 0.2997,
      "velocity": 107,
      "chip": "ym2612"
    },
    {
      "channel": 1,
      "note": 72,
      "start": 3.4983,
      "duration": 0.0992,
      "velocity": 107,
      "chip": "ym2612"
    },
    {
      "channel": 2,
      "note": 75,
      "start": 3.4988,
      "duration": 0.1988,
      "velocity": 107,
      "chip": "ym2612"
    },
    {
      "channel": 5,
      "note": 20,
      "start": 3.502,
      "duration": 0.0973,
      "velocity": 127,
      "chip": "ym2612"
    },
    {
      "channel": 1,
      "note": 70,
      "start": 3.5979,
      "duration": 0.2001,
      "velocity": 107,
      "chip": "ym2612"
    },
    {
      "channel": 3,
      "note": 87,
      "start": 3.5986,
      "duration": 0.2997,
      "velocity": 93,
      "chip": "ym2612"
    },
    {
      "channel": 4,
      "note": 84,
      "start": 3.5991,
      "duration": 0.2994,
      "velocity": 93,
      "chip": "ym2612"
    },
    {
      "channel": 5,
      "note": 20,
      "start": 3.5996,
      "duration": 0.299,
      "velocity": 127,
      "chip": "ym2612"
    },
    {
      "channel": 2,
      "note": 72,
      "start": 3.6981,
      "duration": 0.1004,
      "velocity": 107,
      "chip": "ym2612"
    },
    {
      "channel": 0,
      "note": 48,
      "start": 3.7978,
      "duration": 0.0997,
      "velocity": 107,
      "chip": "ym2612"
    },
    {
      "channel": 1,
      "note": 72,
      "start": 3.7983,
      "duration": 0.0996,
      "velocity": 107,
      "chip": "ym2612"
    },
    {
      "channel": 2,
      "note": 70,
      "start": 3.7988,
      "duration": 0.199,
      "velocity": 107,
      "chip": "ym2612"
    },
    {
      "channel": 0,
      "note": 51,
      "start": 3.8978,
      "duration": 0.1997,
      "velocity": 107,
      "chip": "ym2612"
    },
    {
      "channel": 5,
      "note": 32,
      "start": 3.9012,
      "duration": 0.2978,
      "velocity": 69,
      "chip": "ym2612"
    },
    {
      "channel": 2,
      "note": 72,
      "start": 3.9981,
      "duration": 0.1003,
      "velocity": 107,
      "chip": "ym2612"
    },
    {
      "channel": 0,
      "note": 48,
      "start": 4.0978,
      "duration": 0.0997,
      "velocity": 107,
      "chip": "ym2612"
    },
    {
      "channel": 1,
      "note": 78,
      "start": 4.0983,
      "duration": 0.0996,
      "velocity": 107,
      "chip": "ym2612"
    },
    {
      "channel": 3,
      "note": 87,
      "start": 4.099,
      "duration": 0.0998,
      "velocity": 93,
      "chip": "ym2612"
    },
    {
      "channel": 4,
      "note": 84,
      "start": 4.0995,
      "duration": 0.0994,
      "velocity": 93,
      "chip": "ym2612"
    },
    {
      "channel": 0,
      "note": 53,
      "start": 4.1978,
      "duration": 0.1997,
      "velocity": 107,
      "chip": "ym2612"
    },
    {
      "channel": 1,
      "note": 77,
      "start": 4.1983,
      "duration": 0.1997,
      "velocity": 107,
      "chip": "ym2612"
    },
    {
      "channel": 5,
      "note": 80,
      "start": 4.2018,
      "duration": 0.2975,
      "velocity": 127,
      "chip": "ym2612"
    },
    {
      "channel": 2,
      "note": 78,
      "start": 4.2981,
      "duration": 0.1004,
      "velocity": 107,
      "chip": "ym2612"
    },
    {
      "channel": 0,
      "note": 48,
      "start": 4.3978,
      "duration": 0.0997,
      "velocity": 107,
      "chip": "ym2612"
    },
    {
      "channel": 1,
      "note": 75,
      "start": 4.3983,
      "duration": 0.0996,
      "velocity": 107,
      "chip": "ym2612"
    },
    {
      "channel": 2,
      "note": 77,
      "start": 4.3988,
      "duration": 0.1988,
      "velocity": 107,
      "chip": "ym2612"
    },
    {
      "channel": 3,
      "note": 96,
      "start": 4.4015,
      "duration": 0.0971,
      "velocity": 92,
      "chip": "ym2612"
    },
    {
      "channel": 4,
      "note": 96,
      "start": 4.4483,
      "duration": 0.0996,
      "velocity": 92,
      "chip": "ym2612"
    },
    {
      "channel": 0,
      "note": 54,
      "start": 4.4978,
      "duration": 0.1997,
      "velocity": 107,
      "chip": "ym2612"
    },
    {
      "channel": 1,
      "note": 72,
      "start": 4.4983,
      "duration": 0.1996,
      "velocity": 107,
      "chip": "ym2612"
    },
    {
      "channel": 3,
      "note": 103,
      "start": 4.499,
      "duration": 0.0992,
      "velocity": 92,
      "chip": "ym2612"
    },
    {
      "channel": 4,
      "note": 103,
      "start": 4.5483,
      "duration": 0.0997,
      "velocity": 92,
      "chip": "ym2612"
    },
    {
      "channel": 2,
      "note": 75,
      "start": 4.5981,
      "duration": 0.1004,
      "velocity": 107,
      "chip": "ym2612"
    },
    {
      "channel": 0,
      "note": 55,
      "start": 4.6978,
      "duration": 0.0997,
      "velocity": 107,
      "chip": "ym2612"
    },
    {
      "channel": 1,
      "note": 70,
      "start": 4.6983,
      "duration": 0.0998,
      "velocity": 107,
      "chip": "ym2612"
    },
    {
      "channel": 2,
      "note": 72,
      "start": 4.6988,
      "duration": 0.199,
      "velocity": 107,
      "chip": "ym2612"
    },
    {
      "channel": 3,
      "note": 96,
      "start": 4.6993,
      "duration": 0.0992,
      "velocity": 92,
      "chip": "ym2612"
    },
    {
      "channel": 5,
      "note": 20,
      "start": 4.7023,
      "duration": 0.1015,
      "velocity": 127,
      "chip": "ym2612"
    },
    {
      "channel": 4,
      "note": 96,
      "start": 4.7483,
      "duration": 0.0529,
      "velocity": 92,
      "chip": "ym2612"
    },
    {
      "channel": 0,
      "note": 48,
      "start": 4.798,
      "duration": 0.2995,
      "velocity": 107,
      "chip": "ym2612"
    },
    {
      "channel": 3,
      "note": 87,
      "start": 4.8011,
      "duration": 0.197,
      "velocity": 93,
      "chip": "ym2612"
    },
    {
      "channel": 4,
      "note": 84,
      "start": 4.8037,
      "duration": 0.1949,
      "velocity": 93,
      "chip": "ym2612"
    },
    {
      "channel": 5,
      "note": 20,
      "start": 4.8067,
      "duration": 0.2931,
      "velocity": 127,
      "chip": "ym2612"
    },
    {
      "channel": 2,
      "note": 70,
      "start": 4.8981,
      "duration": 0.0997,
      "velocity": 107,
      "chip": "ym2612"
    },
    {
      "channel": 3,
      "note": 84,
      "start": 4.9984,
      "duration": 0.1004,
      "velocity": 93,
      "chip": "ym2612"
    },
    {
      "channel": 4,
      "note": 79,
      "start": 4.999,
      "duration": 0.1003,
      "velocity": 93,
      "chip": "ym2612"
    },
    {
      "channel": 0,
      "note": 48,
      "start": 5.0978,
      "duration": 0.1997,
      "velocity": 107,
      "chip": "ym2612"
    },
    {
      "channel": 1,
      "note": 79,
      "start": 5.0984,
      "duration": 0.1996,
      "velocity": 107,
      "chip": "ym2612"
    },
    {
      "channel": 3,
      "note": 91,
      "start": 5.0992,
      "duration": 0.0988,
      "velocity": 93,
      "chip": "ym2612"
    },
    {
      "channel": 4,
      "note": 84,
      "start": 5.0997,
      "duration": 0.0985,
      "velocity": 93,
      "chip": "ym2612"
    },
    {
      "channel": 0,
      "note": 48,
      "start": 5.2978,
      "duration": 0.0997,
      "velocity": 107,
      "chip": "ym2612"
    },
    {
      "channel": 2,
      "note": 79,
      "start": 5.2985,
      "duration": 0.1993,
      "velocity": 107,
      "chip": "ym2612"
    },
    {
      "channel": 5,
      "note": 20,
      "start": 5.2993,
      "duration": 0.0993,
      "velocity": 127,
      "chip": "ym2612"
    },
    {
      "channel": 0,
      "note": 51,
      "start": 5.3978,
      "duration": 0.1997,
      "velocity": 107,
      "chip": "ym2612"
    },
    {
      "channel": 5,
      "note": 80,
      "start": 5.4012,
      "duration": 0.2975,
      "velocity": 127,
      "chip": "ym2612"
    },
    {
      "channel": 0,
      "note": 46,
      "start": 5.5978,
      "duration": 0.0997,
      "velocity": 107,
      "chip": "ym2612"
    },
    {
      "channel": 1,
      "note": 79,
      "start": 5.5983,
      "duration": 0.1992,
      "velocity": 107,
      "chip": "ym2612"
    },
    {
      "channel": 3,
      "note": 91,
      "start": 5.599,
      "duration": 0.0994,
      "velocity": 93,
      "chip": "ym2612"
    },
    {
      "channel": 4,
      "note": 84,
      "start": 5.5995,
      "duration": 0.099,
      "velocity": 93,
      "chip": "ym2612"
    },
    {
      "channel": 0,
      "note": 47,
      "start": 5.6978,
      "duration": 0.1997,
      "velocity": 107,
      "chip": "ym2612"
    },
    {
      "channel": 2,
      "note": 79,
      "start": 5.7981,
      "duration": 0.1996,
      "velocity": 107,
      "chip": "ym2612"
    },
    {
      "channel": 0,
      "note": 48,
      "start": 5.8978,
      "duration": 0.2997,
      "velocity": 107,
      "chip": "ym2612"
    },
    {
      "channel": 1,
      "note": 78,
      "start": 5.8983,
      "duration": 0.1992,
      "velocity": 107,
      "chip": "ym2612"
    },
    {
      "channel": 5,
      "note": 20,
      "start": 5.9016,
      "duration": 0.0973,
      "velocity": 127,
      "chip": "ym2612"
    },
    {
      "channel": 3,
      "note": 90,
      "start": 5.9983,
      "duration": 0.3004,
      "velocity": 93,
      "chip": "ym2612"
    },
    {
      "channel": 4,
      "note": 84,
      "start": 5.9988,
      "duration": 0.3001,
      "velocity": 93,
      "chip": "ym2612"
    },
    {
      "channel": 5,
      "note": 20,
      "start": 5.9993,
      "duration": 0.2997,
      "velocity": 127,
      "chip": "ym2612"
    },
    {
      "channel": 2,
      "note": 78,
      "start": 6.0981,
      "duration": 0.2004,
      "velocity": 107,
      "chip": "ym2612"
    },
    {
      "channel": 0,
      "note": 48,
      "start": 6.1978,
      "duration": 0.0997,
      "velocity": 107,
      "chip": "ym2612"
    },
    {
      "channel": 1,
      "note": 75,
      "start": 6.1983,
      "duration": 0.0325,
      "velocity": 107,
      "chip": "ym2612"
    },
    {
      "channel": 1,
      "note": 76,
      "start": 6.2312,
      "duration": 0.0329,
      "velocity": 107,
      "chip": "ym2612"
    },
    {
      "channel": 1,
      "note": 77,
      "start": 6.2646,
      "duration": 0.0334,
      "velocity": 107,
      "chip": "ym2612"
    },
    {
      "channel": 0,
      "note": 51,
      "start": 6.2978,
      "duration": 0.1997,
      "velocity": 107,
      "chip": "ym2612"
    },
    {
      "channel": 1,
      "note": 78,
      "start": 6.2983,
      "duration": 0.1996,
      "velocity": 107,
      "chip": "ym2612"
    },
    {
      "channel": 5,
      "note": 32,
      "start": 6.3016,
      "duration": 0.2975,
      "velocity": 69,
      "chip": "ym2612"
    },
    {
      "channel": 2,
      "note": 75,
      "start": 6.3981,
      "duration": 0.0329,
      "velocity": 107,
      "chip": "ym2612"
    },
    {
      "channel": 2,
      "note": 76,
      "start": 6.4314,
      "duration": 0.0329,
      "velocity": 107,
      "chip": "ym2612"
    },
    {
      "channel": 2,
      "note": 77,
      "start": 6.4647,
      "duration": 0.0334,
      "velocity": 107,
      "chip": "ym2612"
    },
    {
      "channel": 0,
      "note": 48,
      "start": 6.4978,
      "duration": 0.0997,
      "velocity": 107,
      "chip": "ym2612"
    },
    {
      "channel": 2,
      "note": 78,
      "start": 6.4985,
      "duration": 0.1992,
      "velocity": 107,
      "chip": "ym2612"
    },
    {
      "channel": 3,
      "note": 90,
      "start": 6.499,
      "duration": 0.0996,
      "velocity": 93,
      "chip": "ym2612"
    },
    {
      "channel": 4,
      "note": 84,
      "start": 6.4995,
      "duration": 0.0993,
      "velocity": 93,
      "chip": "ym2612"
    },
    {
      "channel": 0,
      "note": 53,
      "start": 6.5978,
      "duration": 0.1997,
      "velocity": 107,
      "chip": "ym2612"
    },
    {
      "channel": 1,
      "note": 77,
      "start": 6.5983,
      "duration": 0.1996,
      "velocity": 107,
      "chip": "ym2612"
    },
    {
      "channel": 5,
      "note": 80,
      "start": 6.6017,
      "duration": 0.2975,
      "velocity": 127,
      "chip": "ym2612"
    },
    {
      "channel": 0,
      "note": 48,
      "start": 6.7978,
      "duration": 0.0997,
      "velocity": 107,
      "chip": "ym2612"
    },
    {
      "channel": 2,
      "note": 77,
      "start": 6.7985,
      "duration": 0.1992,
      "velocity": 107,
      "chip": "ym2612"
    },
    {
      "channel": 3,
      "note": 96,
      "start": 6.8012,
      "duration": 0.0974,
      "velocity": 92,
      "chip": "ym2612"
    },
    {
      "channel": 4,
      "note": 96,
      "start": 6.8484,
      "duration": 0.0996,
      "velocity": 92,
      "chip": "ym2612"
    },
    {
      "channel": 0,
      "note": 54,
      "start": 6.8978,
      "duration": 0.1997,
      "velocity": 107,
      "chip": "ym2612"
    },
    {
      "channel": 1,
      "note": 77,
      "start": 6.8983,
      "duration": 0.1996,
      "velocity": 107,
      "chip": "ym2612"
    },
    {
      "channel": 3,
      "note": 103,
      "start": 6.899,
      "duration": 0.0989,
      "velocity": 92,
      "chip": "ym2612"
    },
    {
      "channel": 4,
      "note": 103,
      "start": 6.9483,
      "duration": 0.0998,
      "velocity": 92,
      "chip": "ym2612"
    },
    {
      "channel": 0,
      "note": 55,
      "start": 7.0978,
      "duration": 0.0997,
      "velocity": 107,
      "chip": "ym2612"
    },
    {
      "channel": 2,
      "note": 77,
      "start": 7.0985,
      "duration": 0.1992,
      "velocity": 107,
      "chip": "ym2612"
    },
    {
      "channel": 3,
      "note": 96,
      "start": 7.099,
      "duration": 0.0999,
      "velocity": 92,
      "chip": "ym2612"
    },
    {
      "channel": 5,
      "note": 20,
      "start": 7.102,
      "duration": 0.1022,
      "velocity": 127,
      "chip": "ym2612"
    },
    {
      "channel": 4,
      "note": 96,
      "start": 7.1484,
      "duration": 0.0531,
      "velocity": 92,
      "chip": "ym2612"
    },
    {
      "channel": 0,
      "note": 48,
      "start": 7.198,
      "duration": 0.2995,
      "velocity": 107,
      "chip": "ym2612"
    },
    {
      "channel": 1,
      "note": 75,
      "start": 7.1986,
      "duration": 0.1989,
      "velocity": 107,
      "chip": "ym2612"
    },
    {
      "channel": 3,
      "note": 87,
      "start": 7.2014,
      "duration": 0.1973,
      "velocity": 93,
      "chip": "ym2612"
    },
    {
      "channel": 4,
      "note": 84,
      "start": 7.2041,
      "duration": 0.1951,
      "velocity": 93,
      "chip": "ym2612"
    },
    {
      "channel": 5,
      "note": 20,
      "start": 7.207,
      "duration": 0.2927,
      "velocity": 127,
      "chip": "ym2612"
    },
    {
      "channel": 1,
      "note": 77,
      "start": 7.3979,
      "duration": 0.1001,
      "velocity": 107,
      "chip": "ym2612"
    },
    {
      "channel": 2,
      "note": 75,
      "start": 7.3985,
      "duration": 0.1992,
      "velocity": 107,
      "chip": "ym2612"
    },
    {
      "channel": 3,
      "note": 84,
      "start": 7.399,
      "duration": 0.0997,
      "velocity": 93,
      "chip": "ym2612"
    },
    {
      "channel": 4,
      "note": 79,
      "start": 7.3995,
      "duration": 0.0996,
      "velocity": 93,
      "chip": "ym2612"
    },
    {
      "channel": 0,
      "note": 48,
      "start": 7.4978,
      "duration": 0.1997,
      "velocity": 107,
      "chip": "ym2612"
    },
    {
      "channel": 1,
      "note": 78,
      "start": 7.4983,
      "duration": 0.1997,
      "velocity": 107,
      "chip": "ym2612"
    },
    {
      "channel": 3,
      "note": 91,
      "start": 7.499,
      "duration": 0.0992,
      "velocity": 93,
      "chip": "ym2612"
    },
    {
      "channel": 4,
      "note": 84,
      "start": 7.4996,
      "duration": 0.0988,
      "velocity": 93,
      "chip": "ym2612"
    },
    {
      "channel": 2,
      "note": 77,
      "start": 7.5981,
      "duration": 0.1004,
      "velocity": 107,
      "chip": "ym2612"
    },
    {
      "channel": 0,
      "note": 48,
      "start": 7.6978,
      "duration": 0.0997,
      "velocity": 107,
      "chip": "ym2612"
    },
    {
      "channel": 1,
      "note": 79,
      "start": 7.6983,
      "duration": 0.1992,
      "velocity": 107,
      "chip": "ym2612"
    },
    {
      "channel": 2,
      "note": 78,
      "start": 7.6988,
      "duration": 0.1988,
      "velocity": 107,
      "chip": "ym2612"
    },
    {
      "channel": 5,
      "note": 20,
      "start": 7.6997,
      "duration": 0.0989,
      "velocity": 127,
      "chip": "ym2612"
    },
    {
      "channel": 0,
      "note": 51,
      "start": 7.7978,
      "duration": 0.1997,
      "velocity": 107,
      "chip": "ym2612"
    },
    {
      "channel": 5,
      "note": 80,
      "start": 7.8013,
      "duration": 0.0302,
      "velocity": 127,
      "chip": "ym2612"
    },
    {
      "channel": 5,
      "note": 80,
      "start": 7.8319,
      "duration": 0.1995,
      "velocity": 127,
      "chip": "ym2612"
    },
    {
      "channel": 2,
      "note": 79,
      "start": 7.8981,
      "duration": 0.2005,
      "velocity": 107,
      "chip": "ym2612"
    },
    {
      "channel": 0,
      "note": 46,
      "start": 7.9978,
      "duration": 0.0997,
      "velocity": 107,
      "chip": "ym2612"
    },
    {
      "channel": 1,
      "note": 79,
      "start": 7.9983,
      "duration": 0.0996,
      "velocity": 107,
      "chip": "ym2612"
    },
    {
      "channel": 3,
      "note": 91,
      "start": 7.999,
      "duration": 0.0996,
      "velocity": 93,
      "chip": "ym2612"
    },
    {
      "channel": 4,
      "note": 84,
      "start": 7.9995,
      "duration": 0.0993,
      "velocity": 93,
      "chip": "ym2612"
    },
    {
      "channel": 0,
      "note": 47,
      "start": 8.0978,
      "duration": 0.1997,
      "velocity": 107,
      "chip": "ym2612"
    },
    {
      "channel": 1,
      "note": 84,
      "start": 8.0984,
      "duration": 0.1996,
      "velocity": 107,
      "chip": "ym2612"
    },
    {
      "channel": 5,
      "note": 32,
      "start": 8.1016,
      "duration": 0.0969,
      "velocity": 69,
      "chip": "ym2612"
    },
    {
      "channel": 2,
      "note": 79,
      "start": 8.1981,
      "duration": 0.1005,
      "velocity": 107,
      "chip": "ym2612"
    },
    {
      "channel": 0,
      "note": 48,
      "start": 8.2978,
      "duration": 0.0997,
      "velocity": 107,
      "chip": "ym2612"
    },
    {
      "channel": 1,
      "note": 79,
      "start": 8.2984,
      "duration": 0.0993,
      "velocity": 107,
      "chip": "ym2612"
    },
    {
      "channel": 2,
      "note": 84,
      "start": 8.2989,
      "duration": 0.1989,
      "velocity": 107,
      "chip": "ym2612"
    },
    {
      "channel": 5,
      "note": 20,
      "start": 8.302,
      "duration": 0.0974,
      "velocity": 127,
      "chip": "ym2612"
    },
    {
      "channel": 1,
      "note": 82,
      "start": 8.398,
      "duration": 0.2,
      "velocity": 107,
      "chip": "ym2612"
    },
    {
      "channel": 3,
      "note": 90,
      "start": 8.3987,
      "duration": 0.2999,
      "velocity": 93,
      "chip": "ym2612"
    },
    {
      "channel": 4,
      "note": 84,
      "start": 8.3992,
      "duration": 0.2996,
      "velocity": 93,
      "chip": "ym2612"
    },
    {
      "channel": 5,
      "note": 80,
      "start": 8.4021,
      "duration": 0.0963,
      "velocity": 127,
      "chip": "ym2612"
    },
    {
      "channel": 2,
      "note": 79,
      "start": 8.4982,
      "duration": 0.1003,
      "velocity": 107,
      "chip": "ym2612"
    },
    {
      "channel": 5,
      "note": 80,
      "start": 8.4988,
      "duration": 0.1004,
      "velocity": 127,
      "chip": "ym2612"
    },
    {
      "channel": 0,
      "note": 53,
      "start": 8.5978,
      "duration": 0.0997,
      "velocity": 107,
      "chip": "ym2612"
    },
    {
      "channel": 1,
      "note": 77,
      "start": 8.5984,
      "duration": 0.0996,
      "velocity": 107,
      "chip": "ym2612"
    },
    {
      "channel": 2,
      "note": 82,
      "start": 8.5989,
      "duration": 0.1988,
      "velocity": 107,
      "chip": "ym2612"
    },
    {
      "channel": 5,
      "note": 20,
      "start": 8.6018,
      "duration": 0.0972,
      "velocity": 127,
      "chip": "ym2612"
    },
    {
      "channel": 0,
      "note": 54,
      "start": 8.6978,
      "duration": 0.1997,
      "velocity": 107,
      "chip": "ym2612"
    },
    {
      "channel": 1,
      "note": 78,
      "start": 8.6983,
      "duration": 0.1997,
      "velocity": 107,
      "chip": "ym2612"
    },
    {
      "channel": 5,
      "note": 20,
      "start": 8.6994,
      "duration": 0.2006,
      "velocity": 127,
      "chip": "ym2612"
    },
    {
      "channel": 2,
      "note": 77,
      "start": 8.7981,
      "duration": 0.1004,
      "velocity": 107,
      "chip": "ym2612"
    },
    {
      "channel": 0,
      "note": 55,
      "start": 8.8978,
      "duration": 0.2997,
      "velocity": 107,
      "chip": "ym2612"
    },
    {
      "channel": 1,
      "note": 79,
      "start": 8.8984,
      "duration": 0.0994,
      "velocity": 107,
      "chip": "ym2612"
    },
    {
      "channel": 2,
      "note": 78,
      "start": 8.8989,
      "duration": 0.1988,
      "velocity": 107,
      "chip": "ym2612"
    },
    {
      "channel": 3,
      "note": 90,
      "start": 8.8994,
      "duration": 0.0987,
      "velocity": 93,
      "chip": "ym2612"
    },
    {
      "channel": 4,
      "note": 84,
      "start": 8.8999,
      "duration": 0.0983,
      "velocity": 93,
      "chip": "ym2612"
    },
    {
      "channel": 5,
      "note": 80,
      "start": 8.9027,
      "duration": 0.301,
      "velocity": 127,
      "chip": "ym2612"
    },
    {
      "channel": 1,
      "note": 79,
      "start": 8.9978,
      "duration": 0.6002,
      "velocity": 107,
      "chip": "ym2612"
    },
    {
      "channel": 2,
      "note": 79,
      "start": 9.0981,
      "duration": 0.1003,
      "velocity": 107,
      "chip": "ym2612"
    },
    {
      "channel": 0,
      "note": 46,
      "start": 9.1978,
      "duration": 0.0997,
      "velocity": 107,
      "chip": "ym2612"
    },
    {
      "channel": 2,
      "note": 79,
      "start": 9.1985,
      "duration": 0.5994,
      "velocity": 107,
      "chip": "ym2612"
    },
    {
      "channel": 3,
      "note": 96,
      "start": 9.2011,
      "duration": 0.0972,
      "velocity": 92,
      "chip": "ym2612"
    },
    {
      "channel": 5,
      "note": 20,
      "start": 9.2063,
      "duration": 0.0926,
      "velocity": 127,
      "chip": "ym2612"
    },
    {
      "channel": 4,
      "note": 96,
      "start": 9.2483,
      "duration": 0.0996,
      "velocity": 92,
      "chip": "ym2612"
    },
    {
      "channel": 0,
      "note": 51,
      "start": 9.2978,
      "duration": 0.1997,
      "velocity": 107,
      "chip": "ym2612"
    },
    {
      "channel": 3,
      "note": 103,
      "start": 9.2987,
      "duration": 0.0993,
      "velocity": 92,
      "chip": "ym2612"
    },
    {
      "channel": 5,
      "note": 80,
      "start": 9.3016,
      "duration": 0.0966,
      "velocity": 127,
      "chip": "ym2612"
    },
    {
      "channel": 4,
      "note": 103,
      "start": 9.3483,
      "duration": 0.0998,
      "velocity": 92,
      "chip": "ym2612"
    },
    {
      "channel": 5,
      "note": 80,
      "start": 9.3985,
      "duration": 0.1004,
      "velocity": 127,
      "chip": "ym2612"
    },
    {
      "channel": 0,
      "note": 46,
      "start": 9.4978,
      "duration": 0.0997,
      "velocity": 107,
      "chip": "ym2612"
    },
    {
      "channel": 3,
      "note": 96,
      "start": 9.4987,
      "duration": 0.0998,
      "velocity": 92,
      "chip": "ym2612"
    },
    {
      "channel": 5,
      "note": 75,
      "start": 9.4994,
      "duration": 0.1044,
      "velocity": 127,
      "chip": "ym2612"
    },
    {
      "channel": 4,
      "note": 96,
      "start": 9.5483,
      "duration": 0.0529,
      "velocity": 92,
      "chip": "ym2612"
    },
    {
      "channel": 0,
      "note": 48,
      "start": 9.598,
      "duration": 0.2995,
      "velocity": 107,
      "chip": "ym2612"
    },
    {
      "channel": 3,
      "note": 87,
      "start": 9.6011,
      "duration": 0.1969,
      "velocity": 93,
      "chip": "ym2612"
    },
    {
      "channel": 4,
      "note": 84,
      "start": 9.6037,
      "duration": 0.1949,
      "velocity": 93,
      "chip": "ym2612"
    },
    {
      "channel": 5,
      "note": 20,
      "start": 9.6066,
      "duration": 0.2932,
      "velocity": 127,
      "chip": "ym2612"
    },
    {
      "channel": 3,
      "note": 84,
      "start": 9.7984,
      "duration": 0.1004,
      "velocity": 93,
      "chip": "ym2612"
    },
    {
      "channel": 4,
      "note": 79,
      "start": 9.7989,
      "duration": 0.1004,
      "velocity": 93,
      "chip": "ym2612"
    },
    {
      "channel": 0,
      "note": 48,
      "start": 9.8978,
      "duration": 0.1997,
      "velocity": 107,
      "chip": "ym2612"
    },
    {
      "channel": 1,
      "note": 79,
      "start": 9.8984,
      "duration": 0.1996,
      "velocity": 107,
      "chip": "ym2612"
    },
    {
      "channel": 3,
      "note": 91,
      "start": 9.8992,
      "duration": 0.0988,
      "velocity": 93,
      "chip": "ym2612"
    },
    {
      "channel": 4,
      "note": 84,
      "start": 9.8997,
      "duration": 0.0985,
      "velocity": 93,
      "chip": "ym2612"
    },
    {
      "channel": 0,
      "note": 48,
      "start": 10.0978,
      "duration": 0.0997,
      "velocity": 107,
      "chip": "ym2612"
    },
    {
      "channel": 2,
      "note": 79,
      "start": 10.0985,
      "duration": 0.1993,
      "velocity": 107,
      "chip": "ym2612"
    },
    {
      "channel": 5,
      "note": 20,
      "start": 10.0993,
      "duration": 0.0993,
      "velocity": 127,
      "chip": "ym2612"
    },
    {
      "channel": 0,
      "note": 51,
      "start": 10.1978,
      "duration": 0.1997,
      "velocity": 107,
      "chip": "ym2612"
    },
    {
      "channel": 5,
      "note": 80,
      "start": 10.2012,
      "duration": 0.2975,
      "velocity": 127,
      "chip": "ym2612"
    },
    {
      "channel": 0,
      "note": 46,
      "start": 10.3978,
      "duration": 0.0997,
      "velocity": 107,
      "chip": "ym2612"
    },
    {
      "channel": 1,
      "note": 79,
      "start": 10.3983,
      "duration": 0.1992,
      "velocity": 107,
      "chip": "ym2612"
    },
    {
      "channel": 3,
      "note": 91,
      "start": 10.399,
      "duration": 0.0994,
      "velocity": 93,
      "chip": "ym2612"
    },
    {
      "channel": 4,
      "note": 84,
      "start": 10.3995,
      "duration": 0.099,
      "velocity": 93,
      "chip": "ym2612"
    },
    {
      "channel": 0,
      "note": 47,
      "start": 10.4978,
      "duration": 0.1997,
      "velocity": 107,
      "chip": "ym2612"
    },
    {
      "channel": 2,
      "note": 79,
      "start": 10.5981,
      "duration": 0.1996,
      "velocity": 107,
      "chip": "ym2612"
    },
    {
      "channel": 0,
      "note": 48,
      "start": 10.6978,
      "duration": 0.2997,
      "velocity": 107,
      "chip": "ym2612"
    },
    {
      "channel": 1,
      "note": 78,
      "start": 10.6983,
      "duration": 0.1992,
      "velocity": 107,
      "chip": "ym2612"
    },
    {
      "channel": 5,
      "note": 20,
      "start": 10.7016,
      "duration": 0.0973,
      "velocity": 127,
      "chip": "ym2612"
    },
    {
      "channel": 3,
      "note": 90,
      "start": 10.7983,
      "duration": 0.3004,
      "velocity": 93,
      "chip": "ym2612"
    },
    {
      "channel": 4,
      "note": 84,
      "start": 10.7988,
      "duration": 0.3001,
      "velocity": 93,
      "chip": "ym2612"
    },
    {
      "channel": 5,
      "note": 20,
      "start": 10.7993,
      "duration": 0.2997,
      "velocity": 127,
      "chip": "ym2612"
    },
    {
      "channel": 2,
      "note": 78,
      "start": 10.8981,
      "duration": 0.2004,
      "velocity": 107,
      "chip": "ym2612"
    },
    {
      "channel": 0,
      "note": 48,
      "start": 10.9978,
      "duration": 0.0997,
      "velocity": 107,
      "chip": "ym2612"
    },
    {
      "channel": 1,
      "note": 75,
      "start": 10.9983,
      "duration": 0.0325,
      "velocity": 107,
      "chip": "ym2612"
    },
    {
      "channel": 1,
      "note": 76,
      "start": 11.0312,
      "duration": 0.0329,
      "velocity": 107,
      "chip": "ym2612"
    },
    {
      "channel": 1,
      "note": 77,
      "start": 11.0646,
      "duration": 0.0334,
      "velocity": 107,
      "chip": "ym2612"
    },
    {
      "channel": 0,
      "note": 51,
      "start": 11.0978,
      "duration": 0.1997,
      "velocity": 107,
      "chip": "ym2612"
    },
    {
      "channel": 1,
      "note": 78,
      "start": 11.0983,
      "duration": 0.1996,
      "velocity": 107,
      "chip": "ym2612"
    },
    {
      "channel": 5,
      "note": 32,
      "start": 11.1016,
      "duration": 0.2975,
      "velocity": 69,
      "chip": "ym2612"
    },
    {
      "channel": 2,
      "note": 75,
      "start": 11.1981,
      "duration": 0.0329,
      "velocity": 107,
      "chip": "ym2612"
    },
    {
      "channel": 2,
      "note": 76,
      "start": 11.2314,
      "duration": 0.0329,
      "velocity": 107,
      "chip": "ym2612"
    },
    {
      "channel": 2,
      "note": 77,
      "start": 11.2647,
      "duration": 0.0334,
      "velocity": 107,
      "chip": "ym2612"
    },
    {
      "channel": 0,
      "note": 48,
      "start": 11.2978,
      "duration": 0.0997,
      "velocity": 107,
      "chip": "ym2612"
    },
    {
      "channel": 2,
      "note": 78,
      "start": 11.2985,
      "duration": 0.1992,
      "velocity": 107,
      "chip": "ym2612"
    },
    {
      "channel": 3,
      "note": 90,
      "start": 11.299,
      "duration": 0.0996,
      "velocity": 93,
      "chip": "ym2612"
    },
    {
      "channel": 4,
      "note": 84,
      "start": 11.2995,
      "duration": 0.0993,
      "velocity": 93,
      "chip": "ym2612"
    },
    {
      "channel": 0,
      "note": 53,
      "start": 11.3978,
      "duration": 0.1997,
      "velocity": 107,
      "chip": "ym2612"
    },
    {
      "channel": 1,
      "note": 77,
      "start": 11.3983,
      "duration": 0.1996,
      "velocity": 107,
      "chip": "ym2612"
    },
    {
      "channel": 5,
      "note": 80,
      "start": 11.4017,
      "duration": 0.2975,
      "velocity": 127,
      "chip": "ym2612"
    },
    {
      "channel": 0,
      "note": 48,
      "start": 11.5978,
      "duration": 0.0997,
      "velocity": 107,
      "chip": "ym2612"
    },
    {
      "channel": 2,
      "note": 77,
      "start": 11.5985,
      "duration": 0.1992,
      "velocity": 107,
      "chip": "ym2612"
    },
    {
      "channel": 3,
      "note": 96,
      "start": 11.6012,
      "duration": 0.0974,
      "velocity": 92,
      "chip": "ym2612"
    },
    {
      "channel": 4,
      "note": 96,
      "start": 11.6484,
      "duration": 0.0996,
      "velocity": 92,
      "chip": "ym2612"
    },
    {
      "channel": 0,
      "note": 54,
      "start": 11.6978,
      "duration": 0.1997,
      "velocity": 107,
      "chip": "ym2612"
    },
    {
      "channel": 1,
      "note": 77,
      "start": 11.6983,
      "duration": 0.1996,
      "velocity": 107,
      "chip": "ym2612"
    },
    {
      "channel": 3,
      "note": 103,
      "start": 11.699,
      "duration": 0.0989,
      "velocity": 92,
      "chip": "ym2612"
    },
    {
      "channel": 4,
      "note": 103,
      "start": 11.7483,
      "duration": 0.0998,
      "velocity": 92,
      "chip": "ym2612"
    },
    {
      "channel": 0,
      "note": 55,
      "start": 11.8978,
      "duration": 0.0997,
      "velocity": 107,
      "chip": "ym2612"
    },
    {
      "channel": 2,
      "note": 77,
      "start": 11.8985,
      "duration": 0.1992,
      "velocity": 107,
      "chip": "ym2612"
    },
    {
      "channel": 3,
      "note": 96,
      "start": 11.899,
      "duration": 0.0999,
      "velocity": 92,
      "chip": "ym2612"
    },
    {
      "channel": 5,
      "note": 20,
      "start": 11.902,
      "duration": 0.1022,
      "velocity": 127,
      "chip": "ym2612"
    },
    {
      "channel": 4,
      "note": 96,
      "start": 11.9484,
      "duration": 0.0531,
      "velocity": 92,
      "chip": "ym2612"
    },
    {
      "channel": 0,
      "note": 48,
      "start": 11.998,
      "duration": 0.2995,
      "velocity": 107,
      "chip": "ym2612"
    },
    {
      "channel": 1,
      "note": 75,
      "start": 11.9986,
      "duration": 0.1989,
      "velocity": 107,
      "chip": "ym2612"
    },
    {
      "channel": 3,
      "note": 85,
      "start": 12.0014,
      "duration": 0.1973,
      "velocity": 93,
      "chip": "ym2612"
    },
    {
      "channel": 4,
      "note": 80,
      "start": 12.0041,
      "duration": 0.1951,
      "velocity": 93,
      "chip": "ym2612"
    },
    {
      "channel": 5,
      "note": 20,
      "start": 12.007,
      "duration": 0.2927,
      "velocity": 127,
      "chip": "ym2612"
    },
    {
      "channel": 1,
      "note": 72,
      "start": 12.1979,
      "duration": 0.1001,
      "velocity": 107,
      "chip": "ym2612"
    },
    {
      "channel": 2,
      "note": 75,
      "start": 12.1985,
      "duration": 0.1992,
      "velocity": 107,
      "chip": "ym2612"
    },
    {
      "channel": 3,
      "note": 80,
      "start": 12.199,
      "duration": 0.0997,
      "velocity": 93,
      "chip": "ym2612"
    },
    {
      "channel": 4,
      "note": 73,
      "start": 12.1995,
      "duration": 0.0996,
      "velocity": 93,
      "chip": "ym2612"
    },
    {
      "channel": 0,
      "note": 48,
      "start": 12.2978,
      "duration": 0.1997,
      "velocity": 107,
      "chip": "ym2612"
    },
    {
      "channel": 1,
      "note": 70,
      "start": 12.2983,
      "duration": 0.1997,
      "velocity": 107,
      "chip": "ym2612"
    },
    {
      "channel": 3,
      "note": 89,
      "start": 12.299,
      "duration": 0.0992,
      "velocity": 93,
      "chip": "ym2612"
    },
    {
      "channel": 4,
      "note": 85,
      "start": 12.2996,
      "duration": 0.0988,
      "velocity": 93,
      "chip": "ym2612"
    },
    {
      "channel": 2,
      "note": 72,
      "start": 12.3981,
      "duration": 0.1004,
      "velocity": 107,
      "chip": "ym2612"
    },
    {
      "channel": 0,
      "note": 48,
      "start": 12.4978,
      "duration": 0.0997,
      "velocity": 107,
      "chip": "ym2612"
    },
    {
      "channel": 1,
      "note": 72,
      "start": 12.4983,
      "duration": 0.0996,
      "velocity": 107,
      "chip": "ym2612"
    },
    {
      "channel": 2,
      "note": 70,
      "start": 12.4988,
      "duration": 0.1989,
      "velocity": 107,
      "chip": "ym2612"
    },
    {
      "channel": 5,
      "note": 20,
      "start": 12.4997,
      "duration": 0.0989,
      "velocity": 127,
      "chip": "ym2612"
    },
    {
      "channel": 0,
      "note": 51,
      "start": 12.5978,
      "duration": 0.1997,
      "velocity": 107,
      "chip": "ym2612"
    },
    {
      "channel": 5,
      "note": 80,
      "start": 12.6012,
      "duration": 0.2978,
      "velocity": 127,
      "chip": "ym2612"
    },
    {
      "channel": 2,
      "note": 72,
      "start": 12.6981,
      "duration": 0.1001,
      "velocity": 107,
      "chip": "ym2612"
    },
    {
      "channel": 0,
      "note": 46,
      "start": 12.7978,
      "duration": 0.0997,
      "velocity": 107,
      "chip": "ym2612"
    },
    {
      "channel": 3,
      "note": 89,
      "start": 12.7988,
      "duration": 0.1,
      "velocity": 93,
      "chip": "ym2612"
    },
    {
      "channel": 4,
      "note": 85,
      "start": 12.7993,
      "duration": 0.0996,
      "velocity": 93,
      "chip": "ym2612"
    },
    {
      "channel": 0,
      "note": 47,
      "start": 12.8978,
      "duration": 0.1997,
      "velocity": 107,
      "chip": "ym2612"
    },
    {
      "channel": 1,
      "note": 75,
      "start": 12.8983,
      "duration": 0.1996,
      "velocity": 107,
      "chip": "ym2612"
    },
    {
      "channel": 0,
      "note": 48,
      "start": 13.0978,
      "duration": 0.2997,
      "velocity": 107,
      "chip": "ym2612"
    },
    {
      "channel": 1,
      "note": 72,
      "start": 13.0983,
      "duration": 0.0992,
      "velocity": 107,
      "chip": "ym2612"
    },
    {
      "channel": 2,
      "note": 75,
      "start": 13.0988,
      "duration": 0.1988,
      "velocity": 107,
      "chip": "ym2612"
    },
    {
      "channel": 5,
      "note": 20,
      "start": 13.102,
      "duration": 0.0973,
      "velocity": 127,
      "chip": "ym2612"
    },
    {
      "channel": 1,
      "note": 70,
      "start": 13.1979,
      "duration": 0.2001,
      "velocity": 107,
      "chip": "ym2612"
    },
    {
      "channel": 3,
      "note": 87,
      "start": 13.1986,
      "duration": 0.2997,
      "velocity": 93,
      "chip": "ym2612"
    },
    {
      "channel": 4,
      "note": 84,
      "start": 13.1991,
      "duration": 0.2994,
      "velocity": 93,
      "chip": "ym2612"
    },
    {
      "channel": 5,
      "note": 20,
      "start": 13.1996,
      "duration": 0.299,
      "velocity": 127,
      "chip": "ym2612"
    },
    {
      "channel": 2,
      "note": 72,
      "start": 13.2981,
      "duration": 0.1004,
      "velocity": 107,
      "chip": "ym2612"
    },
    {
      "channel": 0,
      "note": 48,
      "start": 13.3978,
      "duration": 0.0997,
      "velocity": 107,
      "chip": "ym2612"
    },
    {
      "channel": 1,
      "note": 72,
      "start": 13.3983,
      "duration": 0.0996,
      "velocity": 107,
      "chip": "ym2612"
    },
    {
      "channel": 2,
      "note": 70,
      "start": 13.3988,
      "duration": 0.199,
      "velocity": 107,
      "chip": "ym2612"
    },
    {
      "channel": 0,
      "note": 51,
      "start": 13.4978,
      "duration": 0.1997,
      "velocity": 107,
      "chip": "ym2612"
    },
    {
      "channel": 5,
      "note": 32,
      "start": 13.5012,
      "duration": 0.2978,
      "velocity": 69,
      "chip": "ym2612"
    },
    {
      "channel": 2,
      "note": 72,
      "start": 13.5981,
      "duration": 0.1003,
      "velocity": 107,
      "chip": "ym2612"
    },
    {
      "channel": 0,
      "note": 48,
      "start": 13.6978,
      "duration": 0.0997,
      "velocity": 107,
      "chip": "ym2612"
    },
    {
      "channel": 1,
      "note": 78,
      "start": 13.6983,
      "duration": 0.0996,
      "velocity": 107,
      "chip": "ym2612"
    },
    {
      "channel": 3,
      "note": 87,
      "start": 13.699,
      "duration": 0.0998,
      "velocity": 93,
      "chip": "ym2612"
    },
    {
      "channel": 4,
      "note": 84,
      "start": 13.6995,
      "duration": 0.0994,
      "velocity": 93,
      "chip": "ym2612"
    },
    {
      "channel": 0,
      "note": 53,
      "start": 13.7978,
      "duration": 0.1997,
      "velocity": 107,
      "chip": "ym2612"
    },
    {
      "channel": 1,
      "note": 77,
      "start": 13.7983,
      "duration": 0.1997,
      "velocity": 107,
      "chip": "ym2612"
    },
    {
      "channel": 5,
      "note": 80,
      "start": 13.8018,
      "duration": 0.2975,
      "velocity": 127,
      "chip": "ym2612"
    },
    {
      "channel": 2,
      "note": 78,
      "start": 13.8981,
      "duration": 0.1004,
      "velocity": 107,
      "chip": "ym2612"
    },
    {
      "channel": 0,
      "note": 48,
      "start": 13.9978,
      "duration": 0.0997,
      "velocity": 107,
      "chip": "ym2612"
    },
    {
      "channel": 1,
      "note": 75,
      "start": 13.9983,
      "duration": 0.0996,
      "velocity": 107,
      "chip": "ym2612"
    },
    {
      "channel": 2,
      "note": 77,
      "start": 13.9988,
      "duration": 0.1988,
      "velocity": 107,
      "chip": "ym2612"
    },
    {
      "channel": 3,
      "note": 96,
      "start": 14.0015,
      "duration": 0.0971,
      "velocity": 92,
      "chip": "ym2612"
    },
    {
      "channel": 4,
      "note": 96,
      "start": 14.0483,
      "duration": 0.0996,
      "velocity": 92,
      "chip": "ym2612"
    },
    {
      "channel": 0,
      "note": 54,
      "start": 14.0978,
      "duration": 0.1997,
      "velocity": 107,
      "chip": "ym2612"
    },
    {
      "channel": 1,
      "note": 72,
      "start": 14.0983,
      "duration": 0.1996,
      "velocity": 107,
      "chip": "ym2612"
    },
    {
      "channel": 3,
      "note": 103,
      "start": 14.099,
      "duration": 0.0992,
      "velocity": 92,
      "chip": "ym2612"
    },
    {
      "channel": 4,
      "note": 103,
      "start": 14.1483,
      "duration": 0.0997,
      "velocity": 92,
      "chip": "ym2612"
    },
    {
      "channel": 2,
      "note": 75,
      "start": 14.1981,
      "duration": 0.1004,
      "velocity": 107,
      "chip": "ym2612"
    },
    {
      "channel": 0,
      "note": 55,
      "start": 14.2978,
      "duration": 0.0997,
      "velocity": 107,
      "chip": "ym2612"
    },
    {
      "channel": 1,
      "note": 70,
      "start": 14.2983,
      "duration": 0.0998,
      "velocity": 107,
      "chip": "ym2612"
    },
    {
      "channel": 2,
      "note": 72,
      "start": 14.2988,
      "duration": 0.199,
      "velocity": 107,
      "chip": "ym2612"
    },
    {
      "channel": 3,
      "note": 96,
      "start": 14.2993,
      "duration": 0.0992,
      "velocity": 92,
      "chip": "ym2612"
    },
    {
      "channel": 5,
      "note": 20,
      "start": 14.3023,
      "duration": 0.1015,
      "velocity": 127,
      "chip": "ym2612"
    },
    {
      "channel": 4,
      "note": 96,
      "start": 14.3483,
      "duration": 0.0529,
      "velocity": 92,
      "chip": "ym2612"
    },
    {
      "channel": 0,
      "note": 48,
      "start": 14.398,
      "duration": 0.2995,
      "velocity": 107,
      "chip": "ym2612"
    },
    {
      "channel": 3,
      "note": 87,
      "start": 14.4011,
      "duration": 0.197,
      "velocity": 93,
      "chip": "ym2612"
    },
    {
      "channel": 4,
      "note": 84,
      "start": 14.4037,
      "duration": 0.1949,
      "velocity": 93,
      "chip": "ym2612"
    },
    {
      "channel": 5,
      "note": 20,
      "start": 14.4067,
      "duration": 0.2931,
      "velocity": 127,
      "chip": "ym2612"
    },
    {
      "channel": 2,
      "note": 70,
      "start": 14.4981,
      "duration": 0.0997,
      "velocity": 107,
      "chip": "ym2612"
    },
    {
      "channel": 3,
      "note": 84,
      "start": 14.5984,
      "duration": 0.1004,
      "velocity": 93,
      "chip": "ym2612"
    },
    {
      "channel": 4,
      "note": 79,
      "start": 14.599,
      "duration": 0.1003,
      "velocity": 93,
      "chip": "ym2612"
    },
    {
      "channel": 0,
      "note": 48,
      "start": 14.6978,
      "duration": 0.1997,
      "velocity": 107,
      "chip": "ym2612"
    },
    {
      "channel": 1,
      "note": 79,
      "start": 14.6984,
      "duration": 0.1996,
      "velocity": 107,
      "chip": "ym2612"
    },
    {
      "channel": 3,
      "note": 91,
      "start": 14.6992,
      "duration": 0.0988,
      "velocity": 93,
      "chip": "ym2612"
    },
    {
      "channel": 4,
      "note": 84,
      "start": 14.6997,
      "duration": 0.0985,
      "velocity": 93,
      "chip": "ym2612"
    },
    {
      "channel": 0,
      "note": 48,
      "start": 14.8978,
      "duration": 0.0997,
      "velocity": 107,
      "chip": "ym2612"
    },
    {
      "channel": 2,
      "note": 79,
      "start": 14.8985,
      "duration": 0.1993,
      "velocity": 107,
      "chip": "ym2612"
    },
    {
      "channel": 5,
      "note": 20,
      "start": 14.8993,
      "duration": 0.0993,
      "velocity": 127,
      "chip": "ym2612"
    },
    {
      "channel": 0,
      "note": 51,
      "start": 14.9978,
      "duration": 0.1997,
      "velocity": 107,
      "chip": "ym2612"
    },
    {
      "channel": 5,
      "note": 80,
      "start": 15.0012,
      "duration": 0.2975,
      "velocity": 127,
      "chip": "ym2612"
    },
    {
      "channel": 0,
      "note": 46,
      "start": 15.1978,
      "duration": 0.0997,
      "velocity": 107,
      "chip": "ym2612"
    },
    {
      "channel": 1,
      "note": 79,
      "start": 15.1983,
      "duration": 0.1992,
      "velocity": 107,
      "chip": "ym2612"
    },
    {
      "channel": 3,
      "note": 91,
      "start": 15.199,
      "duration": 0.0994,
      "velocity": 93,
      "chip": "ym2612"
    },
    {
      "channel": 4,
      "note": 84,
      "start": 15.1995,
      "duration": 0.099,
      "velocity": 93,
      "chip": "ym2612"
    },
    {
      "channel": 0,
      "note": 47,
      "start": 15.2978,
      "duration": 0.1997,
      "velocity": 107,
      "chip": "ym2612"
    },
    {
      "channel": 2,
      "note": 79,
      "start": 15.3981,
      "duration": 0.1996,
      "velocity": 107,
      "chip": "ym2612"
    },
    {
      "channel": 0,
      "note": 48,
      "start": 15.4978,
      "duration": 0.2997,
      "velocity": 107,
      "chip": "ym2612"
    },
    {
      "channel": 1,
      "note": 78,
      "start": 15.4983,
      "duration": 0.1992,
      "velocity": 107,
      "chip": "ym2612"
    },
    {
      "channel": 5,
      "note": 20,
      "start": 15.5016,
      "duration": 0.0973,
      "velocity": 127,
      "chip": "ym2612"
    },
    {
      "channel": 3,
      "note": 90,
      "start": 15.5983,
      "duration": 0.3004,
      "velocity": 93,
      "chip": "ym2612"
    },
    {
      "channel": 4,
      "note": 84,
      "start": 15.5988,
      "duration": 0.3001,
      "velocity": 93,
      "chip": "ym2612"
    },
    {
      "channel": 5,
      "note": 20,
      "start": 15.5993,
      "duration": 0.2997,
      "velocity": 127,
      "chip": "ym2612"
    },
    {
      "channel": 2,
      "note": 78,
      "start": 15.6981,
      "duration": 0.2004,
      "velocity": 107,
      "chip": "ym2612"
    },
    {
      "channel": 0,
      "note": 48,
      "start": 15.7978,
      "duration": 0.0997,
      "velocity": 107,
      "chip": "ym2612"
    },
    {
      "channel": 1,
      "note": 75,
      "start": 15.7983,
      "duration": 0.0325,
      "velocity": 107,
      "chip": "ym2612"
    },
    {
      "channel": 1,
      "note": 76,
      "start": 15.8312,
      "duration": 0.0329,
      "velocity": 107,
      "chip": "ym2612"
    },
    {
      "channel": 1,
      "note": 77,
      "start": 15.8646,
      "duration": 0.0334,
      "velocity": 107,
      "chip": "ym2612"
    },
    {
      "channel": 0,
      "note": 51,
      "start": 15.8978,
      "duration": 0.1997,
      "velocity": 107,
      "chip": "ym2612"
    },
    {
      "channel": 1,
      "note": 78,
      "start": 15.8983,
      "duration": 0.1996,
      "velocity": 107,
      "chip": "ym2612"
    },
    {
      "channel": 5,
      "note": 32,
      "start": 15.9016,
      "duration": 0.2975,
      "velocity": 69,
      "chip": "ym2612"
    },
    {
      "channel": 2,
      "note": 75,
      "start": 15.9981,
      "duration": 0.0329,
      "velocity": 107,
      "chip": "ym2612"
    },
    {
      "channel": 2,
      "note": 76,
      "start": 16.0314,
      "duration": 0.0329,
      "velocity": 107,
      "chip": "ym2612"
    },
    {
      "channel": 2,
      "note": 77,
      "start": 16.0647,
      "duration": 0.0334,
      "velocity": 107,
      "chip": "ym2612"
    },
    {
      "channel": 0,
      "note": 48,
      "start": 16.0978,
      "duration": 0.0997,
      "velocity": 107,
      "chip": "ym2612"
    },
    {
      "channel": 2,
      "note": 78,
      "start": 16.0985,
      "duration": 0.1992,
      "velocity": 107,
      "chip": "ym2612"
    },
    {
      "channel": 3,
      "note": 90,
      "start": 16.099,
      "duration": 0.0996,
      "velocity": 93,
      "chip": "ym2612"
    },
    {
      "channel": 4,
      "note": 84,
      "start": 16.0995,
      "duration": 0.0993,
      "velocity": 93,
      "chip": "ym2612"
    },
    {
      "channel": 0,
      "note": 53,
      "start": 16.1978,
      "duration": 0.1997,
      "velocity": 107,
      "chip": "ym2612"
    },
    {
      "channel": 1,
      "note": 77,
      "start": 16.1983,
      "duration": 0.1996,
      "velocity": 107,
      "chip": "ym2612"
    },
    {
      "channel": 5,
      "note": 80,
      "start": 16.2017,
      "duration": 0.2975,
      "velocity": 127,
      "chip": "ym2612"
    },
    {
      "channel": 0,
      "note": 48,
      "start": 16.3978,
      "duration": 0.0997,
      "velocity": 107,
      "chip": "ym2612"
    },
    {
      "channel": 2,
      "note": 77,
      "start": 16.3985,
      "duration": 0.1992,
      "velocity": 107,
      "chip": "ym2612"
    },
    {
      "channel": 3,
      "note": 96,
      "start": 16.4012,
      "duration": 0.0974,
      "velocity": 92,
      "chip": "ym2612"
    },
    {
      "channel": 4,
      "note": 96,
      "start": 16.4484,
      "duration": 0.0996,
      "velocity": 92,
      "chip": "ym2612"
    },
    {
      "channel": 0,
      "note": 54,
      "start": 16.4978,
      "duration": 0.1997,
      "velocity": 107,
      "chip": "ym2612"
    },
    {
      "channel": 1,
      "note": 77,
      "start": 16.4983,
      "duration": 0.1996,
      "velocity": 107,
      "chip": "ym2612"
    },
    {
      "channel": 3,
      "note": 103,
      "start": 16.499,
      "duration": 0.0989,
      "velocity": 92,
      "chip": "ym2612"
    },
    {
      "channel": 4,
      "note": 103,
      "start": 16.5483,
      "duration": 0.0998,
      "velocity": 92,
      "chip": "ym2612"
    },
    {
      "channel": 0,
      "note": 55,
      "start": 16.6978,
      "duration": 0.0997,
      "velocity": 107,
      "chip": "ym2612"
    },
    {
      "channel": 2,
      "note": 77,
      "start": 16.6985,
      "duration": 0.1992,
      "velocity": 107,
      "chip": "ym2612"
    },
    {
      "channel": 3,
      "note": 96,
      "start": 16.699,
      "duration": 0.0999,
      "velocity": 92,
      "chip": "ym2612"
    },
    {
      "channel": 5,
      "note": 20,
      "start": 16.702,
      "duration": 0.1022,
      "velocity": 127,
      "chip": "ym2612"
    },
    {
      "channel": 4,
      "note": 96,
      "start": 16.7484,
      "duration": 0.0531,
      "velocity": 92,
      "chip": "ym2612"
    },
    {
      "channel": 0,
      "note": 48,
      "start": 16.798,
      "duration": 0.2995,
      "velocity": 107,
      "chip": "ym2612"
    },
    {
      "channel": 1,
      "note": 75,
      "start": 16.7986,
      "duration": 0.1989,
      "velocity": 107,
      "chip": "ym2612"
    },
    {
      "channel": 3,
      "note": 87,
      "start": 16.8014,
      "duration": 0.1973,
      "velocity": 93,
      "chip": "ym2612"
    },
    {
      "channel": 4,
      "note": 84,
      "start": 16.8041,
      "duration": 0.1951,
      "velocity": 93,
      "chip": "ym2612"
    },
    {
      "channel": 5,
      "note": 20,
      "start": 16.807,
      "duration": 0.2927,
      "velocity": 127,
      "chip": "ym2612"
    },
    {
      "channel": 1,
      "note": 77,
      "start": 16.9979,
      "duration": 0.1001,
      "velocity": 107,
      "chip": "ym2612"
    },
    {
      "channel": 2,
      "note": 75,
      "start": 16.9985,
      "duration": 0.1992,
      "velocity": 107,
      "chip": "ym2612"
    },
    {
      "channel": 3,
      "note": 84,
      "start": 16.999,
      "duration": 0.0997,
      "velocity": 93,
      "chip": "ym2612"
    },
    {
      "channel": 4,
      "note": 79,
      "start": 16.9995,
      "duration": 0.0996,
      "velocity": 93,
      "chip": "ym2612"
    },
    {
      "channel": 0,
      "note": 48,
      "start": 17.0978,
      "duration": 0.1997,
      "velocity": 107,
      "chip": "ym2612"
    },
    {
      "channel": 1,
      "note": 78,
      "start": 17.0983,
      "duration": 0.1997,
      "velocity": 107,
      "chip": "ym2612"
    },
    {
      "channel": 3,
      "note": 91,
      "start": 17.099,
      "duration": 0.0992,
      "velocity": 93,
      "chip": "ym2612"
    },
    {
      "channel": 4,
      "note": 84,
      "start": 17.0996,
      "duration": 0.0988,
      "velocity": 93,
      "chip": "ym2612"
    },
    {
      "channel": 2,
      "note": 77,
      "start": 17.1981,
      "duration": 0.1004,
      "velocity": 107,
      "chip": "ym2612"
    },
    {
      "channel": 0,
      "note": 48,
      "start": 17.2978,
      "duration": 0.0997,
      "velocity": 107,
      "chip": "ym2612"
    },
    {
      "channel": 1,
      "note": 79,
      "start": 17.2983,
      "duration": 0.1992,
      "velocity": 107,
      "chip": "ym2612"
    },
    {
      "channel": 2,
      "note": 78,
      "start": 17.2988,
      "duration": 0.1988,
      "velocity": 107,
      "chip": "ym2612"
    },
    {
      "channel": 5,
      "note": 20,
      "start": 17.2997,
      "duration": 0.0989,
      "velocity": 127,
      "chip": "ym2612"
    },
    {
      "channel": 0,
      "note": 51,
      "start": 17.3978,
      "duration": 0.1997,
      "velocity": 107,
      "chip": "ym2612"
    },
    {
      "channel": 5,
      "note": 80,
      "start": 17.4013,
      "duration": 0.0302,
      "velocity": 127,
      "chip": "ym2612"
    },
    {
      "channel": 5,
      "note": 80,
      "start": 17.4319,
      "duration": 0.1995,
      "velocity": 127,
      "chip": "ym2612"
    },
    {
      "channel": 2,
      "note": 79,
      "start": 17.4981,
      "duration": 0.2005,
      "velocity": 107,
      "chip": "ym2612"
    },
    {
      "channel": 0,
      "note": 46,
      "start": 17.5978,
      "duration": 0.0997,
      "velocity": 107,
      "chip": "ym2612"
    },
    {
      "channel": 1,
      "note": 79,
      "start": 17.5983,
      "duration": 0.0996,
      "velocity": 107,
      "chip": "ym2612"
    },
    {
      "channel": 3,
      "note": 91,
      "start": 17.599,
      "duration": 0.0996,
      "velocity": 93,
      "chip": "ym2612"
    },
    {
      "channel": 4,
      "note": 84,
      "start": 17.5995,
      "duration": 0.0993,
      "velocity": 93,
      "chip": "ym2612"
    },
    {
      "channel": 0,
      "note": 47,
      "start": 17.6978,
      "duration": 0.1997,
      "velocity": 107,
      "chip": "ym2612"
    },
    {
      "channel": 1,
      "note": 84,
      "start": 17.6984,
      "duration": 0.1996,
      "velocity": 107,
      "chip": "ym2612"
    },
    {
      "channel": 5,
      "note": 32,
      "start": 17.7016,
      "duration": 0.0969,
      "velocity": 69,
      "chip": "ym2612"
    },
    {
      "channel": 2,
      "note": 79,
      "start": 17.7981,
      "duration": 0.1005,
      "velocity": 107,
      "chip": "ym2612"
    },
    {
      "channel": 0,
      "note": 48,
      "start": 17.8978,
      "duration": 0.0997,
      "velocity": 107,
      "chip": "ym2612"
    },
    {
      "channel": 1,
      "note": 79,
      "start": 17.8984,
      "duration": 0.0993,
      "velocity": 107,
      "chip": "ym2612"
    },
    {
      "channel": 2,
      "note": 84,
      "start": 17.8989,
      "duration": 0.1989,
      "velocity": 107,
      "chip": "ym2612"
    },
    {
      "channel": 5,
      "note": 20,
      "start": 17.902,
      "duration": 0.0974,
      "velocity": 127,
      "chip": "ym2612"
    },
    {
      "channel": 1,
      "note": 82,
      "start": 17.998,
      "duration": 0.2,
      "velocity": 107,
      "chip": "ym2612"
    },
    {
      "channel": 3,
      "note": 90,
      "start": 17.9987,
      "duration": 0.2999,
      "velocity": 93,
      "chip": "ym2612"
    },
    {
      "channel": 4,
      "note": 84,
      "start": 17.9992,
      "duration": 0.2996,
      "velocity": 93,
      "chip": "ym2612"
    },
    {
      "channel": 5,
      "note": 80,
      "start": 18.0021,
      "duration": 0.0963,
      "velocity": 127,
      "chip": "ym2612"
    },
    {
      "channel": 2,
      "note": 79,
      "start": 18.0982,
      "duration": 0.1003,
      "velocity": 107,
      "chip": "ym2612"
    },
    {
      "channel": 5,
      "note": 80,
      "start": 18.0988,
      "duration": 0.1004,
      "velocity": 127,
      "chip": "ym2612"
    },
    {
      "channel": 0,
      "note": 53,
      "start": 18.1978,
      "duration": 0.0997,
      "velocity": 107,
      "chip": "ym2612"
    },
    {
      "channel": 1,
      "note": 77,
      "start": 18.1984,
      "duration": 0.0996,
      "velocity": 107,
      "chip": "ym2612"
    },
    {
      "channel": 2,
      "note": 82,
      "start": 18.1989,
      "duration": 0.1988,
      "velocity": 107,
      "chip": "ym2612"
    },
    {
      "channel": 5,
      "note": 20,
      "start": 18.2018,
      "duration": 0.0972,
      "velocity": 127,
      "chip": "ym2612"
    },
    {
      "channel": 0,
      "note": 54,
      "start": 18.2978,
      "duration": 0.1997,
      "velocity": 107,
      "chip": "ym2612"
    },
    {
      "channel": 1,
      "note": 78,
      "start": 18.2983,
      "duration": 0.1997,
      "velocity": 107,
      "chip": "ym2612"
    },
    {
      "channel": 5,
      "note": 20,
      "start": 18.2994,
      "duration": 0.2006,
      "velocity": 127,
      "chip": "ym2612"
    },
    {
      "channel": 2,
      "note": 77,
      "start": 18.3981,
      "duration": 0.1004,
      "velocity": 107,
      "chip": "ym2612"
    },
    {
      "channel": 0,
      "note": 55,
      "start": 18.4978,
      "duration": 0.2997,
      "velocity": 107,
      "chip": "ym2612"
    },
    {
      "channel": 1,
      "note": 79,
      "start": 18.4984,
      "duration": 0.0994,
      "velocity": 107,
      "chip": "ym2612"
    },
    {
      "channel": 2,
      "note": 78,
      "start": 18.4989,
      "duration": 0.1988,
      "velocity": 107,
      "chip": "ym2612"
    },
    {
      "channel": 3,
      "note": 90,
      "start": 18.4994,
      "duration": 0.0987,
      "velocity": 93,
      "chip": "ym2612"
    },
    {
      "channel": 4,
      "note": 84,
      "start": 18.4999,
      "duration": 0.0983,
      "velocity": 93,
      "chip": "ym2612"
    },
    {
      "channel": 5,
      "note": 80,
      "start": 18.5027,
      "duration": 0.301,
      "velocity": 127,
      "chip": "ym2612"
    },
    {
      "channel": 1,
      "note": 79,
      "start": 18.5978,
      "duration": 0.6002,
      "velocity": 107,
      "chip": "ym2612"
    },
    {
      "channel": 2,
      "note": 79,
      "start": 18.6981,
      "duration": 0.1003,
      "velocity": 107,
      "chip": "ym2612"
    },
    {
      "channel": 0,
      "note": 46,
      "start": 18.7978,
      "duration": 0.0997,
      "velocity": 107,
      "chip": "ym2612"
    },
    {
      "channel": 2,
      "note": 79,
      "start": 18.7985,
      "duration": 0.4002,
      "velocity": 107,
      "chip": "ym2612"
    },
    {
      "channel": 3,
      "note": 96,
      "start": 18.8011,
      "duration": 0.0972,
      "velocity": 92,
      "chip": "ym2612"
    },
    {
      "channel": 5,
      "note": 20,
      "start": 18.8063,
      "duration": 0.0926,
      "velocity": 127,
      "chip": "ym2612"
    },
    {
      "channel": 4,
      "note": 96,
      "start": 18.8483,
      "duration": 0.0996,
      "velocity": 92,
      "chip": "ym2612"
    },
    {
      "channel": 0,
      "note": 51,
      "start": 18.8978,
      "duration": 0.1997,
      "velocity": 107,
      "chip": "ym2612"
    },
    {
      "channel": 3,
      "note": 103,
      "start": 18.8987,
      "duration": 0.0993,
      "velocity": 92,
      "chip": "ym2612"
    },
    {
      "channel": 5,
      "note": 80,
      "start": 18.9016,
      "duration": 0.0966,
      "velocity": 127,
      "chip": "ym2612"
    },
    {
      "channel": 4,
      "note": 103,
      "start": 18.9483,
      "duration": 0.0998,
      "velocity": 92,
      "chip": "ym2612"
    },
    {
      "channel": 5,
      "note": 80,
      "start": 18.9985,
      "duration": 0.1004,
      "velocity": 127,
      "chip": "ym2612"
    },
    {
      "channel": 0,
      "note": 46,
      "start": 19.0978,
      "duration": 0.0997,
      "velocity": 107,
      "chip": "ym2612"
    },
    {
      "channel": 3,
      "note": 96,
      "start": 19.0987,
      "duration": 0.1006,
      "velocity": 92,
      "chip": "ym2612"
    },
    {
      "channel": 5,
      "note": 75,
      "start": 19.0994,
      "duration": 0.105,
      "velocity": 127,
      "chip": "ym2612"
    },
    {
      "channel": 4,
      "note": 96,
      "start": 19.1483,
      "duration": 0.0538,
      "velocity": 92,
      "chip": "ym2612"
    },
    {
      "channel": 0,
      "note": 56,
      "start": 19.198,
      "duration": 0.3998,
      "velocity": 107,
      "chip": "ym2612"
    },
    {
      "channel": 1,
      "note": 80,
      "start": 19.1986,
      "duration": 0.3993,
      "velocity": 107,
      "chip": "ym2612"
    },
    {
      "channel": 2,
      "note": 72,
      "start": 19.1992,
      "duration": 0.3989,
      "velocity": 107,
      "chip": "ym2612"
    },
    {
      "channel": 3,
      "note": 80,
      "start": 19.202,
      "duration": 0.0959,
      "velocity": 92,
      "chip": "ym2612"
    },
    {
      "channel": 5,
      "note": 20,
      "start": 19.2072,
      "duration": 0.2912,
      "velocity": 127,
      "chip": "ym2612"
    },
    {
      "channel": 4,
      "note": 80,
      "start": 19.2317,
      "duration": 0.0996,
      "velocity": 92,
      "chip": "ym2612"
    },
    {
      "channel": 3,
      "note": 82,
      "start": 19.2983,
      "duration": 0.0997,
      "velocity": 92,
      "chip": "ym2612"
    },
    {
      "channel": 4,
      "note": 82,
      "start": 19.3317,
      "duration": 0.0996,
      "velocity": 92,
      "chip": "ym2612"
    },
    {
      "channel": 3,
      "note": 84,
      "start": 19.3983,
      "duration": 0.0996,
      "velocity": 92,
      "chip": "ym2612"
    },
    {
      "channel": 4,
      "note": 84,
      "start": 19.4317,
      "duration": 0.0996,
      "velocity": 92,
      "chip": "ym2612"
    },
    {
      "channel": 3,
      "note": 86,
      "start": 19.4983,
      "duration": 0.0999,
      "velocity": 92,
      "chip": "ym2612"
    },
    {
      "channel": 4,
      "note": 86,
      "start": 19.5317,
      "duration": 0.0998,
      "velocity": 92,
      "chip": "ym2612"
    },
    {
      "channel": 0,
      "note": 56,
      "start": 19.5978,
      "duration": 0.0998,
      "velocity": 107,
      "chip": "ym2612"
    },
    {
      "channel": 3,
      "note": 87,
      "start": 19.5986,
      "duration": 0.1004,
      "velocity": 92,
      "chip": "ym2612"
    },
    {
      "channel": 4,
      "note": 87,
      "start": 19.6318,
      "duration": 0.0995,
      "velocity": 92,
      "chip": "ym2612"
    },
    {
      "channel": 0,
      "note": 51,
      "start": 19.6979,
      "duration": 0.3996,
      "velocity": 107,
      "chip": "ym2612"
    },
    {
      "channel": 1,
      "note": 80,
      "start": 19.6984,
      "duration": 0.2991,
      "velocity": 107,
      "chip": "ym2612"
    },
    {
      "channel": 2,
      "note": 72,
      "start": 19.6989,
      "duration": 0.2988,
      "velocity": 107,
      "chip": "ym2612"
    },
    {
      "channel": 3,
      "note": 89,
      "start": 19.6994,
      "duration": 0.0985,
      "velocity": 92,
      "chip": "ym2612"
    },
    {
      "channel": 5,
      "note": 80,
      "start": 19.7023,
      "duration": 0.3973,
      "velocity": 127,
      "chip": "ym2612"
    },
    {
      "channel": 4,
      "note": 89,
      "start": 19.7317,
      "duration": 0.0996,
      "velocity": 92,
      "chip": "ym2612"
    },
    {
      "channel": 3,
      "note": 92,
      "start": 19.7983,
      "duration": 0.0997,
      "velocity": 92,
      "chip": "ym2612"
    },
    {
      "channel": 4,
      "note": 92,
      "start": 19.8317,
      "duration": 0.0996,
      "velocity": 92,
      "chip": "ym2612"
    },
    {
      "channel": 3,
      "note": 94,
      "start": 19.8983,
      "duration": 0.0996,
      "velocity": 92,
      "chip": "ym2612"
    },
    {
      "channel": 4,
      "note": 94,
      "start": 19.9317,
      "duration": 0.0998,
      "velocity": 92,
      "chip": "ym2612"
    },
    {
      "channel": 3,
      "note": 96,
      "start": 19.9982,
      "duration": 0.1008,
      "velocity": 92,
      "chip": "ym2612"
    },
    {
      "channel": 4,
      "note": 96,
      "start": 20.0318,
      "duration": 0.0995,
      "velocity": 92,
      "chip": "ym2612"
    },
    {
      "channel": 0,
      "note": 56,
      "start": 20.0979,
      "duration": 0.7996,
      "velocity": 107,
      "chip": "ym2612"
    },
    {
      "channel": 1,
      "note": 80,
      "start": 20.0984,
      "duration": 1.1999,
      "velocity": 107,
      "chip": "ym2612"
    },
    {
      "channel": 2,
      "note": 72,
      "start": 20.0989,
      "duration": 1.1998,
      "velocity": 107,
      "chip": "ym2612"
    },
    {
      "channel": 3,
      "note": 98,
      "start": 20.0994,
      "duration": 0.0985,
      "velocity": 92,
      "chip": "ym2612"
    },
    {
      "channel": 5,
      "note": 20,
      "start": 20.1023,
      "duration": 0.1962,
      "velocity": 127,
      "chip": "ym2612"
    },
    {
      "channel": 4,
      "note": 98,
      "start": 20.1317,
      "duration": 0.0996,
      "velocity": 92,
      "chip": "ym2612"
    },
    {
      "channel": 3,
      "note": 99,
      "start": 20.1983,
      "duration": 0.0997,
      "velocity": 92,
      "chip": "ym2612"
    },
    {
      "channel": 4,
      "note": 99,
      "start": 20.2317,
      "duration": 0.0996,
      "velocity": 92,
      "chip": "ym2612"
    },
    {
      "channel": 3,
      "note": 101,
      "start": 20.2983,
      "duration": 0.0996,
      "velocity": 92,
      "chip": "ym2612"
    },
    {
      "channel": 5,
      "note": 20,
      "start": 20.2988,
      "duration": 0.0996,
      "velocity": 127,
      "chip": "ym2612"
    },
    {
      "channel": 4,
      "note": 101,
      "start": 20.3317,
      "duration": 0.0996,
      "velocity": 92,
      "chip": "ym2612"
    },
    {
      "channel": 3,
      "note": 104,
      "start": 20.3983,
      "duration": 0.0997,
      "velocity": 92,
      "chip": "ym2612"
    },
    {
      "channel": 4,
      "note": 104,
      "start": 20.4317,
      "duration": 0.0996,
      "velocity": 92,
      "chip": "ym2612"
    },
    {
      "channel": 3,
      "note": 103,
      "start": 20.4983,
      "duration": 0.0996,
      "velocity": 92,
      "chip": "ym2612"
    },
    {
      "channel": 4,
      "note": 103,
      "start": 20.5317,
      "duration": 0.0996,
      "velocity": 92,
      "chip": "ym2612"
    },
    {
      "channel": 3,
      "note": 101,
      "start": 20.5983,
      "duration": 0.0997,
      "velocity": 92,
      "chip": "ym2612"
    },
    {
      "channel": 4,
      "note": 101,
      "start": 20.6317,
      "duration": 0.0996,
      "velocity": 92,
      "chip": "ym2612"
    },
    {
      "channel": 3,
      "note": 99,
      "start": 20.6983,
      "duration": 0.0996,
      "velocity": 92,
      "chip": "ym2612"
    },
    {
      "channel": 4,
      "note": 99,
      "start": 20.7317,
      "duration": 0.0996,
      "velocity": 92,
      "chip": "ym2612"
    },
    {
      "channel": 3,
      "note": 98,
      "start": 20.7983,
      "duration": 0.1001,
      "velocity": 92,
      "chip": "ym2612"
    },
    {
      "channel": 4,
      "note": 98,
      "start": 20.8317,
      "duration": 0.0996,
      "velocity": 92,
      "chip": "ym2612"
    },
    {
      "channel": 0,
      "note": 51,
      "start": 20.8979,
      "duration": 0.0996,
      "velocity": 107,
      "chip": "ym2612"
    },
    {
      "channel": 3,
      "note": 96,
      "start": 20.8988,
      "duration": 0.0996,
      "velocity": 92,
      "chip": "ym2612"
    },
    {
      "channel": 5,
      "note": 20,
      "start": 20.8993,
      "duration": 0.0996,
      "velocity": 127,
      "chip": "ym2612"
    },
    {
      "channel": 4,
      "note": 96,
      "start": 20.9317,
      "duration": 0.0996,
      "velocity": 92,
      "chip": "ym2612"
    },
    {
      "channel": 0,
      "note": 56,
      "start": 20.9979,
      "duration": 0.1996,
      "velocity": 107,
      "chip": "ym2612"
    },
    {
      "channel": 3,
      "note": 92,
      "start": 20.9988,
      "duration": 0.0992,
      "velocity": 92,
      "chip": "ym2612"
    },
    {
      "channel": 5,
      "note": 72,
      "start": 21.0016,
      "duration": 0.2977,
      "velocity": 127,
      "chip": "ym2612"
    },
    {
      "channel": 4,
      "note": 92,
      "start": 21.0317,
      "duration": 0.0996,
      "velocity": 92,
      "chip": "ym2612"
    },
    {
      "channel": 3,
      "note": 91,
      "start": 21.0983,
      "duration": 0.1001,
      "velocity": 92,
      "chip": "ym2612"
    },
    {
      "channel": 4,
      "note": 91,
      "start": 21.1317,
      "duration": 0.0996,
      "velocity": 92,
      "chip": "ym2612"
    },
    {
      "channel": 0,
      "note": 51,
      "start": 21.1979,
      "duration": 0.0996,
      "velocity": 107,
      "chip": "ym2612"
    },
    {
      "channel": 3,
      "note": 89,
      "start": 21.1988,
      "duration": 0.1001,
      "velocity": 92,
      "chip": "ym2612"
    },
    {
      "channel": 4,
      "note": 89,
      "start": 21.2317,
      "duration": 0.0996,
      "velocity": 92,
      "chip": "ym2612"
    },
    {
      "channel": 0,
      "note": 55,
      "start": 21.2978,
      "duration": 0.1997,
      "velocity": 107,
      "chip": "ym2612"
    },
    {
      "channel": 1,
      "note": 80,
      "start": 21.2983,
      "duration": 0.2998,
      "velocity": 107,
      "chip": "ym2612"
    },
    {
      "channel": 2,
      "note": 72,
      "start": 21.2987,
      "duration": 0.3,
      "velocity": 107,
      "chip": "ym2612"
    },
    {
      "channel": 3,
      "note": 87,
      "start": 21.2992,
      "duration": 0.0987,
      "velocity": 92,
      "chip": "ym2612"
    },
    {
      "channel": 5,
      "note": 32,
      "start": 21.302,
      "duration": 0.3003,
      "velocity": 69,
      "chip": "ym2612"
    },
    {
      "channel": 4,
      "note": 87,
      "start": 21.3317,
      "duration": 0.0996,
      "velocity": 92,
      "chip": "ym2612"
    },
    {
      "channel": 3,
      "note": 86,
      "start": 21.3983,
      "duration": 0.1001,
      "velocity": 92,
      "chip": "ym2612"
    },
    {
      "channel": 4,
      "note": 86,
      "start": 21.4317,
      "duration": 0.0996,
      "velocity": 92,
      "chip": "ym2612"
    },
    {
      "channel": 0,
      "note": 56,
      "start": 21.4979,
      "duration": 0.0996,
      "velocity": 107,
      "chip": "ym2612"
    },
    {
      "channel": 3,
      "note": 84,
      "start": 21.4988,
      "duration": 0.1006,
      "velocity": 92,
      "chip": "ym2612"
    },
    {
      "channel": 4,
      "note": 84,
      "start": 21.5317,
      "duration": 0.0996,
      "velocity": 92,
      "chip": "ym2612"
    },
    {
      "channel": 0,
      "note": 55,
      "start": 21.598,
      "duration": 0.3998,
      "velocity": 107,
      "chip": "ym2612"
    },
    {
      "channel": 1,
      "note": 79,
      "start": 21.5986,
      "duration": 0.3993,
      "velocity": 107,
      "chip": "ym2612"
    },
    {
      "channel": 2,
      "note": 72,
      "start": 21.5992,
      "duration": 0.3988,
      "velocity": 107,
      "chip": "ym2612"
    },
    {
      "channel": 3,
      "note": 79,
      "start": 21.602,
      "duration": 0.0959,
      "velocity": 92,
      "chip": "ym2612"
    },
    {
      "channel": 5,
      "note": 20,
      "start": 21.6049,
      "duration": 0.2935,
      "velocity": 127,
      "chip": "ym2612"
    },
    {
      "channel": 4,
      "note": 79,
      "start": 21.6339,
      "duration": 0.0974,
      "velocity": 92,
      "chip": "ym2612"
    },
    {
      "channel": 3,
      "note": 83,
      "start": 21.6983,
      "duration": 0.0997,
      "velocity": 92,
      "chip": "ym2612"
    },
    {
      "channel": 4,
      "note": 83,
      "start": 21.7317,
      "duration": 0.0996,
      "velocity": 92,
      "chip": "ym2612"
    },
    {
      "channel": 3,
      "note": 84,
      "start": 21.7983,
      "duration": 0.0996,
      "velocity": 92,
      "chip": "ym2612"
    },
    {
      "channel": 4,
      "note": 84,
      "start": 21.8317,
      "duration": 0.0996,
      "velocity": 92,
      "chip": "ym2612"
    },
    {
      "channel": 3,
      "note": 86,
      "start": 21.8983,
      "duration": 0.0999,
      "velocity": 92,
      "chip": "ym2612"
    },
    {
      "channel": 4,
      "note": 86,
      "start": 21.9317,
      "duration": 0.0998,
      "velocity": 92,
      "chip": "ym2612"
    },
    {
      "channel": 0,
      "note": 55,
      "start": 21.9978,
      "duration": 0.0998,
      "velocity": 107,
      "chip": "ym2612"
    },
    {
      "channel": 3,
      "note": 87,
      "start": 21.9986,
      "duration": 0.1004,
      "velocity": 92,
      "chip": "ym2612"
    },
    {
      "channel": 4,
      "note": 87,
      "start": 22.0318,
      "duration": 0.0995,
      "velocity": 92,
      "chip": "ym2612"
    },
    {
      "channel": 0,
      "note": 51,
      "start": 22.0978,
      "duration": 0.3997,
      "velocity": 107,
      "chip": "ym2612"
    },
    {
      "channel": 1,
      "note": 79,
      "start": 22.0983,
      "duration": 0.2992,
      "velocity": 107,
      "chip": "ym2612"
    },
    {
      "channel": 2,
      "note": 72,
      "start": 22.0988,
      "duration": 0.2988,
      "velocity": 107,
      "chip": "ym2612"
    },
    {
      "channel": 3,
      "note": 89,
      "start": 22.0993,
      "duration": 0.0985,
      "velocity": 92,
      "chip": "ym2612"
    },
    {
      "channel": 5,
      "note": 80,
      "start": 22.1022,
      "duration": 0.3973,
      "velocity": 127,
      "chip": "ym2612"
    },
    {
      "channel": 4,
      "note": 89,
      "start": 22.1317,
      "duration": 0.0996,
      "velocity": 92,
      "chip": "ym2612"
    },
    {
      "channel": 3,
      "note": 91,
      "start": 22.1983,
      "duration": 0.0997,
      "velocity": 92,
      "chip": "ym2612"
    },
    {
      "channel": 4,
      "note": 91,
      "start": 22.2317,
      "duration": 0.0996,
      "velocity": 92,
      "chip": "ym2612"
    },
    {
      "channel": 3,
      "note": 95,
      "start": 22.2983,
      "duration": 0.0996,
      "velocity": 92,
      "chip": "ym2612"
    },
    {
      "channel": 4,
      "note": 95,
      "start": 22.3317,
      "duration": 0.0998,
      "velocity": 92,
      "chip": "ym2612"
    },
    {
      "channel": 3,
      "note": 96,
      "start": 22.3982,
      "duration": 0.1008,
      "velocity": 92,
      "chip": "ym2612"
    },
    {
      "channel": 4,
      "note": 96,
      "start": 22.4318,
      "duration": 0.0995,
      "velocity": 92,
      "chip": "ym2612"
    },
    {
      "channel": 0,
      "note": 55,
      "start": 22.4978,
      "duration": 0.7997,
      "velocity": 107,
      "chip": "ym2612"
    },
    {
      "channel": 1,
      "note": 79,
      "start": 22.4983,
      "duration": 1.2,
      "velocity": 107,
      "chip": "ym2612"
    },
    {
      "channel": 2,
      "note": 72,
      "start": 22.4988,
      "duration": 1.1999,
      "velocity": 107,
      "chip": "ym2612"
    },
    {
      "channel": 3,
      "note": 98,
      "start": 22.4993,
      "duration": 0.0985,
      "velocity": 92,
      "chip": "ym2612"
    },
    {
      "channel": 5,
      "note": 20,
      "start": 22.5023,
      "duration": 0.1962,
      "velocity": 127,
      "chip": "ym2612"
    },
    {
      "channel": 4,
      "note": 98,
      "start": 22.5317,
      "duration": 0.0996,
      "velocity": 92,
      "chip": "ym2612"
    },
    {
      "channel": 3,
      "note": 99,
      "start": 22.5983,
      "duration": 0.0997,
      "velocity": 92,
      "chip": "ym2612"
    },
    {
      "channel": 4,
      "note": 99,
      "start": 22.6317,
      "duration": 0.0996,
      "velocity": 92,
      "chip": "ym2612"
    },
    {
      "channel": 3,
      "note": 101,
      "start": 22.6983,
      "duration": 0.0996,
      "velocity": 92,
      "chip": "ym2612"
    },
    {
      "channel": 5,
      "note": 20,
      "start": 22.6988,
      "duration": 0.0996,
      "velocity": 127,
      "chip": "ym2612"
    },
    {
      "channel": 4,
      "note": 101,
      "start": 22.7317,
      "duration": 0.0996,
      "velocity": 92,
      "chip": "ym2612"
    },
    {
      "channel": 3,
      "note": 104,
      "start": 22.7983,
      "duration": 0.0997,
      "velocity": 92,
      "chip": "ym2612"
    },
    {
      "channel": 4,
      "note": 104,
      "start": 22.8317,
      "duration": 0.0996,
      "velocity": 92,
      "chip": "ym2612"
    },
    {
      "channel": 3,
      "note": 103,
      "start": 22.8983,
      "duration": 0.0996,
      "velocity": 92,
      "chip": "ym2612"
    },
    {
      "channel": 4,
      "note": 103,
      "start": 22.9317,
      "duration": 0.0996,
      "velocity": 92,
      "chip": "ym2612"
    },
    {
      "channel": 3,
      "note": 101,
      "start": 22.9983,
      "duration": 0.0997,
      "velocity": 92,
      "chip": "ym2612"
    },
    {
      "channel": 4,
      "note": 101,
      "start": 23.0317,
      "duration": 0.0996,
      "velocity": 92,
      "chip": "ym2612"
    },
    {
      "channel": 3,
      "note": 99,
      "start": 23.0983,
      "duration": 0.0996,
      "velocity": 92,
      "chip": "ym2612"
    },
    {
      "channel": 4,
      "note": 99,
      "start": 23.1317,
      "duration": 0.0996,
      "velocity": 92,
      "chip": "ym2612"
    },
    {
      "channel": 3,
      "note": 98,
      "start": 23.1983,
      "duration": 0.1001,
      "velocity": 92,
      "chip": "ym2612"
    },
    {
      "channel": 4,
      "note": 98,
      "start": 23.2317,
      "duration": 0.0996,
      "velocity": 92,
      "chip": "ym2612"
    },
    {
      "channel": 0,
      "note": 51,
      "start": 23.2978,
      "duration": 0.0997,
      "velocity": 107,
      "chip": "ym2612"
    },
    {
      "channel": 3,
      "note": 96,
      "start": 23.2988,
      "duration": 0.0995,
      "velocity": 92,
      "chip": "ym2612"
    },
    {
      "channel": 5,
      "note": 20,
      "start": 23.2993,
      "duration": 0.0996,
      "velocity": 127,
      "chip": "ym2612"
    },
    {
      "channel": 4,
      "note": 96,
      "start": 23.3317,
      "duration": 0.0996,
      "velocity": 92,
      "chip": "ym2612"
    },
    {
      "channel": 0,
      "note": 55,
      "start": 23.3978,
      "duration": 0.1997,
      "velocity": 107,
      "chip": "ym2612"
    },
    {
      "channel": 3,
      "note": 95,
      "start": 23.3987,
      "duration": 0.0993,
      "velocity": 92,
      "chip": "ym2612"
    },
    {
      "channel": 5,
      "note": 80,
      "start": 23.4016,
      "duration": 0.1973,
      "velocity": 127,
      "chip": "ym2612"
    },
    {
      "channel": 4,
      "note": 95,
      "start": 23.4317,
      "duration": 0.0996,
      "velocity": 92,
      "chip": "ym2612"
    },
    {
      "channel": 3,
      "note": 92,
      "start": 23.4983,
      "duration": 0.1,
      "velocity": 92,
      "chip": "ym2612"
    },
    {
      "channel": 4,
      "note": 92,
      "start": 23.5317,
      "duration": 0.0996,
      "velocity": 92,
      "chip": "ym2612"
    },
    {
      "channel": 0,
      "note": 51,
      "start": 23.5978,
      "duration": 0.0997,
      "velocity": 107,
      "chip": "ym2612"
    },
    {
      "channel": 3,
      "note": 91,
      "start": 23.5988,
      "duration": 0.1001,
      "velocity": 92,
      "chip": "ym2612"
    },
    {
      "channel": 5,
      "note": 80,
      "start": 23.5993,
      "duration": 0.1,
      "velocity": 127,
      "chip": "ym2612"
    },
    {
      "channel": 4,
      "note": 91,
      "start": 23.6317,
      "duration": 0.0996,
      "velocity": 92,
      "chip": "ym2612"
    },
    {
      "channel": 0,
      "note": 54,
      "start": 23.6978,
      "duration": 0.1997,
      "velocity": 107,
      "chip": "ym2612"
    },
    {
      "channel": 1,
      "note": 79,
      "start": 23.6983,
      "duration": 0.2998,
      "velocity": 107,
      "chip": "ym2612"
    },
    {
      "channel": 2,
      "note": 72,
      "start": 23.6987,
      "duration": 0.3,
      "velocity": 107,
      "chip": "ym2612"
    },
    {
      "channel": 3,
      "note": 89,
      "start": 23.6992,
      "duration": 0.0987,
      "velocity": 92,
      "chip": "ym2612"
    },
    {
      "channel": 5,
      "note": 75,
      "start": 23.6998,
      "duration": 0.3024,
      "velocity": 127,
      "chip": "ym2612"
    },
    {
      "channel": 4,
      "note": 89,
      "start": 23.7317,
      "duration": 0.0996,
      "velocity": 92,
      "chip": "ym2612"
    },
    {
      "channel": 3,
      "note": 87,
      "start": 23.7983,
      "duration": 0.1001,
      "velocity": 92,
      "chip": "ym2612"
    },
    {
      "channel": 4,
      "note": 87,
      "start": 23.8317,
      "duration": 0.0996,
      "velocity": 92,
      "chip": "ym2612"
    },
    {
      "channel": 0,
      "note": 55,
      "start": 23.8978,
      "duration": 0.0997,
      "velocity": 107,
      "chip": "ym2612"
    },
    {
      "channel": 3,
      "note": 86,
      "start": 23.8988,
      "duration": 0.1006,
      "velocity": 92,
      "chip": "ym2612"
    },
    {
      "channel": 4,
      "note": 86,
      "start": 23.9317,
      "duration": 0.0996,
      "velocity": 92,
      "chip": "ym2612"
    },
    {
      "channel": 0,
      "note": 54,
      "start": 23.998,
      "duration": 0.3998,
      "velocity": 107,
      "chip": "ym2612"
    },
    {
      "channel": 1,
      "note": 78,
      "start": 23.9986,
      "duration": 0.3993,
      "velocity": 107,
      "chip": "ym2612"
    },
    {
      "channel": 2,
      "note": 72,
      "start": 23.9992,
      "duration": 0.3989,
      "velocity": 107,
      "chip": "ym2612"
    },
    {
      "channel": 3,
      "note": 78,
      "start": 24.002,
      "duration": 0.0959,
      "velocity": 92,
      "chip": "ym2612"
    },
    {
      "channel": 5,
      "note": 20,
      "start": 24.0049,
      "duration": 0.2935,
      "velocity": 127,
      "chip": "ym2612"
    },
    {
      "channel": 4,
      "note": 78,
      "start": 24.0339,
      "duration": 0.0974,
      "velocity": 92,
      "chip": "ym2612"
    },
    {
      "channel": 3,
      "note": 81,
      "start": 24.0983,
      "duration": 0.0997,
      "velocity": 92,
      "chip": "ym2612"
    },
    {
      "channel": 4,
      "note": 81,
      "start": 24.1317,
      "duration": 0.0996,
      "velocity": 92,
      "chip": "ym2612"
    },
    {
      "channel": 3,
      "note": 84,
      "start": 24.1983,
      "duration": 0.0996,
      "velocity": 92,
      "chip": "ym2612"
    },
    {
      "channel": 4,
      "note": 84,
      "start": 24.2317,
      "duration": 0.0996,
      "velocity": 92,
      "chip": "ym2612"
    },
    {
      "channel": 3,
      "note": 86,
      "start": 24.2983,
      "duration": 0.0999,
      "velocity": 92,
      "chip": "ym2612"
    },
    {
      "channel": 4,
      "note": 86,
      "start": 24.3317,
      "duration": 0.0998,
      "velocity": 92,
      "chip": "ym2612"
    },
    {
      "channel": 0,
      "note": 54,
      "start": 24.3978,
      "duration": 0.0998,
      "velocity": 107,
      "chip": "ym2612"
    },
    {
      "channel": 3,
      "note": 87,
      "start": 24.3986,
      "duration": 0.1004,
      "velocity": 92,
      "chip": "ym2612"
    },
    {
      "channel": 4,
      "note": 87,
      "start": 24.4318,
      "duration": 0.0995,
      "velocity": 92,
      "chip": "ym2612"
    },
    {
      "channel": 0,
      "note": 50,
      "start": 24.4978,
      "duration": 0.3997,
      "velocity": 107,
      "chip": "ym2612"
    },
    {
      "channel": 1,
      "note": 78,
      "start": 24.4983,
      "duration": 0.2992,
      "velocity": 107,
      "chip": "ym2612"
    },
    {
      "channel": 2,
      "note": 72,
      "start": 24.4988,
      "duration": 0.2988,
      "velocity": 107,
      "chip": "ym2612"
    },
    {
      "channel": 3,
      "note": 89,
      "start": 24.4993,
      "duration": 0.0985,
      "velocity": 92,
      "chip": "ym2612"
    },
    {
      "channel": 5,
      "note": 80,
      "start": 24.5022,
      "duration": 0.3973,
      "velocity": 127,
      "chip": "ym2612"
    },
    {
      "channel": 4,
      "note": 89,
      "start": 24.5317,
      "duration": 0.0996,
      "velocity": 92,
      "chip": "ym2612"
    },
    {
      "channel": 3,
      "note": 90,
      "start": 24.5983,
      "duration": 0.0997,
      "velocity": 92,
      "chip": "ym2612"
    },
    {
      "channel": 4,
      "note": 90,
      "start": 24.6317,
      "duration": 0.0996,
      "velocity": 92,
      "chip": "ym2612"
    },
    {
      "channel": 3,
      "note": 93,
      "start": 24.6983,
      "duration": 0.0996,
      "velocity": 92,
      "chip": "ym2612"
    },
    {
      "channel": 4,
      "note": 93,
      "start": 24.7317,
      "duration": 0.0998,
      "velocity": 92,
      "chip": "ym2612"
    },
    {
      "channel": 3,
      "note": 96,
      "start": 24.7982,
      "duration": 0.1008,
      "velocity": 92,
      "chip": "ym2612"
    },
    {
      "channel": 4,
      "note": 96,
      "start": 24.8318,
      "duration": 0.0995,
      "velocity": 92,
      "chip": "ym2612"
    },
    {
      "channel": 0,
      "note": 54,
      "start": 24.8978,
      "duration": 0.5997,
      "velocity": 107,
      "chip": "ym2612"
    },
    {
      "channel": 1,
      "note": 78,
      "start": 24.8983,
      "duration": 1.2,
      "velocity": 107,
      "chip": "ym2612"
    },
    {
      "channel": 2,
      "note": 72,
      "start": 24.8988,
      "duration": 1.1999,
      "velocity": 107,
      "chip": "ym2612"
    },
    {
      "channel": 3,
      "note": 98,
      "start": 24.8993,
      "duration": 0.0985,
      "velocity": 92,
      "chip": "ym2612"
    },
    {
      "channel": 5,
      "note": 20,
      "start": 24.9023,
      "duration": 0.1962,
      "velocity": 127,
      "chip": "ym2612"
    },
    {
      "channel": 4,
      "note": 98,
      "start": 24.9317,
      "duration": 0.0996,
      "velocity": 92,
      "chip": "ym2612"
    },
    {
      "channel": 3,
      "note": 99,
      "start": 24.9983,
      "duration": 0.0997,
      "velocity": 92,
      "chip": "ym2612"
    },
    {
      "channel": 4,
      "note": 99,
      "start": 25.0317,
      "duration": 0.0996,
      "velocity": 92,
      "chip": "ym2612"
    },
    {
      "channel": 3,
      "note": 101,
      "start": 25.0983,
      "duration": 0.0996,
      "velocity": 92,
      "chip": "ym2612"
    },
    {
      "channel": 5,
      "note": 20,
      "start": 25.0988,
      "duration": 0.0996,
      "velocity": 127,
      "chip": "ym2612"
    },
    {
      "channel": 4,
      "note": 101,
      "start": 25.1317,
      "duration": 0.0996,
      "velocity": 92,
      "chip": "ym2612"
    },
    {
      "channel": 3,
      "note": 104,
      "start": 25.1983,
      "duration": 0.0997,
      "velocity": 92,
      "chip": "ym2612"
    },
    {
      "channel": 4,
      "note": 104,
      "start": 25.2317,
      "duration": 0.0996,
      "velocity": 92,
      "chip": "ym2612"
    },
    {
      "channel": 3,
      "note": 103,
      "start": 25.2983,
      "duration": 0.0996,
      "velocity": 92,
      "chip": "ym2612"
    },
    {
      "channel": 4,
      "note": 103,
      "start": 25.3317,
      "duration": 0.0996,
      "velocity": 92,
      "chip": "ym2612"
    },
    {
      "channel": 3,
      "note": 101,
      "start": 25.3983,
      "duration": 0.1001,
      "velocity": 92,
      "chip": "ym2612"
    },
    {
      "channel": 4,
      "note": 101,
      "start": 25.4317,
      "duration": 0.0996,
      "velocity": 92,
      "chip": "ym2612"
    },
    {
      "channel": 0,
      "note": 55,
      "start": 25.4979,
      "duration": 0.2996,
      "velocity": 107,
      "chip": "ym2612"
    },
    {
      "channel": 3,
      "note": 99,
      "start": 25.4988,
      "duration": 0.0991,
      "velocity": 92,
      "chip": "ym2612"
    },
    {
      "channel": 4,
      "note": 99,
      "start": 25.5317,
      "duration": 0.0996,
      "velocity": 92,
      "chip": "ym2612"
    },
    {
      "channel": 3,
      "note": 98,
      "start": 25.5983,
      "duration": 0.0997,
      "velocity": 92,
      "chip": "ym2612"
    },
    {
      "channel": 4,
      "note": 98,
      "start": 25.6317,
      "duration": 0.0996,
      "velocity": 92,
      "chip": "ym2612"
    },
    {
      "channel": 3,
      "note": 96,
      "start": 25.6983,
      "duration": 0.1001,
      "velocity": 92,
      "chip": "ym2612"
    },
    {
      "channel": 5,
      "note": 20,
      "start": 25.6988,
      "duration": 0.1001,
      "velocity": 127,
      "chip": "ym2612"
    },
    {
      "channel": 4,
      "note": 96,
      "start": 25.7317,
      "duration": 0.0996,
      "velocity": 92,
      "chip": "ym2612"
    },
    {
      "channel": 0,
      "note": 57,
      "start": 25.7979,
      "duration": 0.2996,
      "velocity": 107,
      "chip": "ym2612"
    },
    {
      "channel": 3,
      "note": 95,
      "start": 25.7988,
      "duration": 0.0992,
      "velocity": 92,
      "chip": "ym2612"
    },
    {
      "channel": 5,
      "note": 72,
      "start": 25.8016,
      "duration": 0.2978,
      "velocity": 127,
      "chip": "ym2612"
    },
    {
      "channel": 4,
      "note": 95,
      "start": 25.8317,
      "duration": 0.0996,
      "velocity": 92,
      "chip": "ym2612"
    },
    {
      "channel": 3,
      "note": 92,
      "start": 25.8983,
      "duration": 0.0996,
      "velocity": 92,
      "chip": "ym2612"
    },
    {
      "channel": 4,
      "note": 92,
      "start": 25.9317,
      "duration": 0.0996,
      "velocity": 92,
      "chip": "ym2612"
    },
    {
      "channel": 3,
      "note": 91,
      "start": 25.9983,
      "duration": 0.1006,
      "velocity": 92,
      "chip": "ym2612"
    },
    {
      "channel": 4,
      "note": 91,
      "start": 26.0317,
      "duration": 0.0996,
      "velocity": 92,
      "chip": "ym2612"
    },
    {
      "channel": 0,
      "note": 54,
      "start": 26.0979,
      "duration": 0.2996,
      "velocity": 107,
      "chip": "ym2612"
    },
    {
      "channel": 1,
      "note": 78,
      "start": 26.0983,
      "duration": 0.2998,
      "velocity": 107,
      "chip": "ym2612"
    },
    {
      "channel": 2,
      "note": 72,
      "start": 26.0987,
      "duration": 0.3,
      "velocity": 107,
      "chip": "ym2612"
    },
    {
      "channel": 3,
      "note": 89,
      "start": 26.0992,
      "duration": 0.0987,
      "velocity": 92,
      "chip": "ym2612"
    },
    {
      "channel": 5,
      "note": 32,
      "start": 26.102,
      "duration": 0.3029,
      "velocity": 69,
      "chip": "ym2612"
    },
    {
      "channel": 4,
      "note": 89,
      "start": 26.1317,
      "duration": 0.0996,
      "velocity": 92,
      "chip": "ym2612"
    },
    {
      "channel": 3,
      "note": 87,
      "start": 26.1983,
      "duration": 0.0997,
      "velocity": 92,
      "chip": "ym2612"
    },
    {
      "channel": 4,
      "note": 87,
      "start": 26.2317,
      "duration": 0.0996,
      "velocity": 92,
      "chip": "ym2612"
    },
    {
      "channel": 3,
      "note": 86,
      "start": 26.2983,
      "duration": 0.101,
      "velocity": 92,
      "chip": "ym2612"
    },
    {
      "channel": 4,
      "note": 86,
      "start": 26.3317,
      "duration": 0.0704,
      "velocity": 92,
      "chip": "ym2612"
    },
    {
      "channel": 0,
      "note": 55,
      "start": 26.398,
      "duration": 0.1995,
      "velocity": 107,
      "chip": "ym2612"
    },
    {
      "channel": 1,
      "note": 79,
      "start": 26.3986,
      "duration": 0.199,
      "velocity": 107,
      "chip": "ym2612"
    },
    {
      "channel": 2,
      "note": 72,
      "start": 26.3992,
      "duration": 0.1987,
      "velocity": 107,
      "chip": "ym2612"
    },
    {
      "channel": 3,
      "note": 91,
      "start": 26.402,
      "duration": 0.1961,
      "velocity": 92,
      "chip": "ym2612"
    },
    {
      "channel": 4,
      "note": 86,
      "start": 26.4047,
      "duration": 0.1934,
      "velocity": 92,
      "chip": "ym2612"
    },
    {
      "channel": 5,
      "note": 80,
      "start": 26.4076,
      "duration": 0.2924,
      "velocity": 127,
      "chip": "ym2612"
    },
    {
      "channel": 0,
      "note": 55,
      "start": 26.6978,
      "duration": 0.1997,
      "velocity": 107,
      "chip": "ym2612"
    },
    {
      "channel": 1,
      "note": 79,
      "start": 26.6983,
      "duration": 0.1993,
      "velocity": 107,
      "chip": "ym2612"
    },
    {
      "channel": 2,
      "note": 72,
      "start": 26.6988,
      "duration": 0.199,
      "velocity": 107,
      "chip": "ym2612"
    },
    {
      "channel": 3,
      "note": 91,
      "start": 26.6993,
      "duration": 0.1986,
      "velocity": 92,
      "chip": "ym2612"
    },
    {
      "channel": 4,
      "note": 86,
      "start": 26.6999,
      "duration": 0.1983,
      "velocity": 92,
      "chip": "ym2612"
    },
    {
      "channel": 5,
      "note": 20,
      "start": 26.7027,
      "duration": 0.2973,
      "velocity": 127,
      "chip": "ym2612"
    },
    {
      "channel": 0,
      "note": 55,
      "start": 26.9978,
      "duration": 0.1997,
      "velocity": 107,
      "chip": "ym2612"
    },
    {
      "channel": 1,
      "note": 79,
      "start": 26.9983,
      "duration": 0.1993,
      "velocity": 107,
      "chip": "ym2612"
    },
    {
      "channel": 2,
      "note": 72,
      "start": 26.9988,
      "duration": 0.199,
      "velocity": 107,
      "chip": "ym2612"
    },
    {
      "channel": 3,
      "note": 91,
      "start": 26.9993,
      "duration": 0.1987,
      "velocity": 92,
      "chip": "ym2612"
    },
    {
      "channel": 4,
      "note": 86,
      "start": 26.9999,
      "duration": 0.1983,
      "velocity": 92,
      "chip": "ym2612"
    },
    {
      "channel": 5,
      "note": 80,
      "start": 27.0027,
      "duration": 0.0286,
      "velocity": 127,
      "chip": "ym2612"
    },
    {
      "channel": 5,
      "note": 80,
      "start": 27.0317,
      "duration": 0.2,
      "velocity": 127,
      "chip": "ym2612"
    },
    {
      "channel": 0,
      "note": 55,
      "start": 27.2978,
      "duration": 0.1997,
      "velocity": 107,
      "chip": "ym2612"
    },
    {
      "channel": 1,
      "note": 79,
      "start": 27.2983,
      "duration": 0.1993,
      "velocity": 107,
      "chip": "ym2612"
    },
    {
      "channel": 2,
      "note": 72,
      "start": 27.2988,
      "duration": 0.199,
      "velocity": 107,
      "chip": "ym2612"
    },
    {
      "channel": 3,
      "note": 91,
      "start": 27.2993,
      "duration": 0.1987,
      "velocity": 92,
      "chip": "ym2612"
    },
    {
      "channel": 4,
      "note": 86,
      "start": 27.2999,
      "duration": 0.1983,
      "velocity": 92,
      "chip": "ym2612"
    },
    {
      "channel": 5,
      "note": 32,
      "start": 27.3026,
      "duration": 0.0954,
      "velocity": 69,
      "chip": "ym2612"
    },
    {
      "channel": 5,
      "note": 20,
      "start": 27.501,
      "duration": 0.0987,
      "velocity": 127,
      "chip": "ym2612"
    },
    {
      "channel": 0,
      "note": 55,
      "start": 27.5978,
      "duration": 0.1997,
      "velocity": 107,
      "chip": "ym2612"
    },
    {
      "channel": 1,
      "note": 79,
      "start": 27.5983,
      "duration": 0.1997,
      "velocity": 107,
      "chip": "ym2612"
    },
    {
      "channel": 2,
      "note": 72,
      "start": 27.5988,
      "duration": 0.1997,
      "velocity": 107,
      "chip": "ym2612"
    },
    {
      "channel": 3,
      "note": 104,
      "start": 27.5994,
      "duration": 0.0985,
      "velocity": 92,
      "chip": "ym2612"
    },
    {
      "channel": 5,
      "note": 80,
      "start": 27.6024,
      "duration": 0.2971,
      "velocity": 127,
      "chip": "ym2612"
    },
    {
      "channel": 4,
      "note": 104,
      "start": 27.6319,
      "duration": 0.0994,
      "velocity": 92,
      "chip": "ym2612"
    },
    {
      "channel": 3,
      "note": 103,
      "start": 27.6983,
      "duration": 0.1007,
      "velocity": 92,
      "chip": "ym2612"
    },
    {
      "channel": 4,
      "note": 103,
      "start": 27.7317,
      "duration": 0.0996,
      "velocity": 92,
      "chip": "ym2612"
    },
    {
      "channel": 0,
      "note": 62,
      "start": 27.7979,
      "duration": 0.0996,
      "velocity": 107,
      "chip": "ym2612"
    },
    {
      "channel": 1,
      "note": 62,
      "start": 27.7984,
      "duration": 0.0996,
      "velocity": 107,
      "chip": "ym2612"
    },
    {
      "channel": 2,
      "note": 74,
      "start": 27.7989,
      "duration": 0.0995,
      "velocity": 107,
      "chip": "ym2612"
    },
    {
      "channel": 3,
      "note": 101,
      "start": 27.7994,
      "duration": 0.0995,
      "velocity": 92,
      "chip": "ym2612"
    },
    {
      "channel": 4,
      "note": 101,
      "start": 27.8317,
      "duration": 0.0996,
      "velocity": 92,
      "chip": "ym2612"
    },
    {
      "channel": 0,
      "note": 65,
      "start": 27.8978,
      "duration": 0.1997,
      "velocity": 107,
      "chip": "ym2612"
    },
    {
      "channel": 1,
      "note": 67,
      "start": 27.8983,
      "duration": 0.1996,
      "velocity": 107,
      "chip": "ym2612"
    },
    {
      "channel": 2,
      "note": 79,
      "start": 27.8988,
      "duration": 0.1996,
      "velocity": 107,
      "chip": "ym2612"
    },
    {
      "channel": 3,
      "note": 99,
      "start": 27.8993,
      "duration": 0.0985,
      "velocity": 92,
      "chip": "ym2612"
    },
    {
      "channel": 5,
      "note": 80,
      "start": 27.8999,
      "duration": 0.2996,
      "velocity": 127,
      "chip": "ym2612"
    },
    {
      "channel": 4,
      "note": 99,
      "start": 27.9317,
      "duration": 0.0996,
      "velocity": 92,
      "chip": "ym2612"
    },
    {
      "channel": 3,
      "note": 98,
      "start": 27.9983,
      "duration": 0.1007,
      "velocity": 92,
      "chip": "ym2612"
    },
    {
      "channel": 4,
      "note": 98,
      "start": 28.0317,
      "duration": 0.0996,
      "velocity": 92,
      "chip": "ym2612"
    },
    {
      "channel": 0,
      "note": 62,
      "start": 28.0978,
      "duration": 0.0997,
      "velocity": 107,
      "chip": "ym2612"
    },
    {
      "channel": 1,
      "note": 62,
      "start": 28.0983,
      "duration": 0.0996,
      "velocity": 107,
      "chip": "ym2612"
    },
    {
      "channel": 2,
      "note": 74,
      "start": 28.0988,
      "duration": 0.0996,
      "velocity": 107,
      "chip": "ym2612"
    },
    {
      "channel": 3,
      "note": 96,
      "start": 28.0993,
      "duration": 0.0996,
      "velocity": 92,
      "chip": "ym2612"
    },
    {
      "channel": 4,
      "note": 96,
      "start": 28.1317,
      "duration": 0.0996,
      "velocity": 92,
      "chip": "ym2612"
    },
    {
      "channel": 0,
      "note": 65,
      "start": 28.1978,
      "duration": 0.1997,
      "velocity": 107,
      "chip": "ym2612"
    },
    {
      "channel": 1,
      "note": 65,
      "start": 28.1983,
      "duration": 0.1996,
      "velocity": 107,
      "chip": "ym2612"
    },
    {
      "channel": 2,
      "note": 77,
      "start": 28.1988,
      "duration": 0.1996,
      "velocity": 107,
      "chip": "ym2612"
    },
    {
      "channel": 3,
      "note": 95,
      "start": 28.1993,
      "duration": 0.0985,
      "velocity": 92,
      "chip": "ym2612"
    },
    {
      "channel": 5,
      "note": 80,
      "start": 28.1999,
      "duration": 0.1997,
      "velocity": 127,
      "chip": "ym2612"
    },
    {
      "channel": 4,
      "note": 95,
      "start": 28.2317,
      "duration": 0.0996,
      "velocity": 92,
      "chip": "ym2612"
    },
    {
      "channel": 3,
      "note": 92,
      "start": 28.2983,
      "duration": 0.1007,
      "velocity": 92,
      "chip": "ym2612"
    },
    {
      "channel": 4,
      "note": 92,
      "start": 28.3317,
      "duration": 0.0996,
      "velocity": 92,
      "chip": "ym2612"
    },
    {
      "channel": 0,
      "note": 67,
      "start": 28.3978,
      "duration": 0.2997,
      "velocity": 107,
      "chip": "ym2612"
    },
    {
      "channel": 1,
      "note": 67,
      "start": 28.3983,
      "duration": 0.4018,
      "velocity": 107,
      "chip": "ym2612"
    },
    {
      "channel": 2,
      "note": 79,
      "start": 28.3988,
      "duration": 0.4038,
      "velocity": 107,
      "chip": "ym2612"
    },
    {
      "channel": 3,
      "note": 91,
      "start": 28.3994,
      "duration": 0.0985,
      "velocity": 92,
      "chip": "ym2612"
    },
    {
      "channel": 5,
      "note": 80,
      "start": 28.4,
      "duration": 0.0985,
      "velocity": 127,
      "chip": "ym2612"
    },
    {
      "channel": 4,
      "note": 91,
      "start": 28.4317,
      "duration": 0.0996,
      "velocity": 92,
      "chip": "ym2612"
    },
    {
      "channel": 3,
      "note": 89,
      "start": 28.4983,
      "duration": 0.0997,
      "velocity": 92,
      "chip": "ym2612"
    },
    {
      "channel": 5,
      "note": 75,
      "start": 28.4988,
      "duration": 0.3135,
      "velocity": 127,
      "chip": "ym2612"
    },
    {
      "channel": 4,
      "note": 89,
      "start": 28.5317,
      "duration": 0.0996,
      "velocity": 92,
      "chip": "ym2612"
    },
    {
      "channel": 3,
      "note": 87,
      "start": 28.5983,
      "duration": 0.1001,
      "velocity": 92,
      "chip": "ym2612"
    },
    {
      "channel": 4,
      "note": 87,
      "start": 28.6317,
      "duration": 0.0996,
      "velocity": 92,
      "chip": "ym2612"
    },
    {
      "channel": 0,
      "note": 55,
      "start": 28.6979,
      "duration": 0.0996,
      "velocity": 107,
      "chip": "ym2612"
    },
    {
      "channel": 3,
      "note": 86,
      "start": 28.6988,
      "duration": 0.1041,
      "velocity": 92,
      "chip": "ym2612"
    },
    {
      "channel": 4,
      "note": 86,
      "start": 28.7317,
      "duration": 0.076,
      "velocity": 92,
      "chip": "ym2612"
    },
    {
      "channel": 0,
      "note": 48,
      "start": 28.8,
      "duration": 0.2975,
      "velocity": 107,
      "chip": "ym2612"
    },
    {
      "channel": 3,
      "note": 87,
      "start": 28.8075,
      "duration": 0.1905,
      "velocity": 93,
      "chip": "ym2612"
    },
    {
      "channel": 4,
      "note": 84,
      "start": 28.8122,
      "duration": 0.1863,
      "velocity": 93,
      "chip": "ym2612"
    },
    {
      "channel": 5,
      "note": 20,
      "start": 28.8152,
      "duration": 0.2846,
      "velocity": 127,
      "chip": "ym2612"
    },
    {
      "channel": 3,
      "note": 84,
      "start": 28.9984,
      "duration": 0.1004,
      "velocity": 93,
      "chip": "ym2612"
    },
    {
      "channel": 4,
      "note": 79,
      "start": 28.9989,
      "duration": 0.1004,
      "velocity": 93,
      "chip": "ym2612"
    },
    {
      "channel": 0,
      "note": 48,
      "start": 29.0978,
      "duration": 0.1997,
      "velocity": 107,
      "chip": "ym2612"
    },
    {
      "channel": 1,
      "note": 79,
      "start": 29.0984,
      "duration": 0.1996,
      "velocity": 107,
      "chip": "ym2612"
    },
    {
      "channel": 3,
      "note": 91,
      "start": 29.0992,
      "duration": 0.0988,
      "velocity": 93,
      "chip": "ym2612"
    },
    {
      "channel": 4,
      "note": 84,
      "start": 29.0997,
      "duration": 0.0985,
      "velocity": 93,
      "chip": "ym2612"
    },
    {
      "channel": 0,
      "note": 48,
      "start": 29.2978,
      "duration": 0.0997,
      "velocity": 107,
      "chip": "ym2612"
    },
    {
      "channel": 2,
      "note": 79,
      "start": 29.2985,
      "duration": 0.1002,
      "velocity": 107,
      "chip": "ym2612"
    },
    {
      "channel": 5,
      "note": 20,
      "start": 29.2993,
      "duration": 0.0993,
      "velocity": 127,
      "chip": "ym2612"
    },
    {
      "channel": 0,
      "note": 51,
      "start": 29.3978,
      "duration": 0.0009,
      "velocity": 107,
      "chip": "ym2612"
    }
  ]
}