{
  "track_name": "13 - Jupiter Stage 1",
  "duration_sec": 124.7,
  "sample_rate": 44100,
  "note_count": 2423,
  "unique_pitches": 42,
  "pitch_range": 56,
  "avg_note_duration": 0.1533,
  "reconstruction_stats": {
    "notes_reconstructed": 2423,
    "keyon_events": 2423,
    "keyoff_events": 2420,
    "orphan_keyons": 3,
    "unique_pitches": 42,
    "pitch_range": 56,
    "avg_duration_sec": 0.1533
  },
  "metadata": {
    "source": "O\\Ooparts\\13 - Jupiter Stage 1.vgz"
  },
  "notes": [
    {
      "channel": 0,
      "note": -1,
      "start": 0.0244,
      "duration": 0.2171,
      "velocity": 99,
      "chip": "ym2612"
    },
    {
      "channel": 1,
      "note": -1,
      "start": 0.0248,
      "duration": 0.1076,
      "velocity": 93,
      "chip": "ym2612"
    },
    {
      "channel": 2,
      "note": -1,
      "start": 0.0252,
      "duration": 0.045,
      "velocity": 121,
      "chip": "ym2612"
    },
    {
      "channel": 3,
      "note": -1,
      "start": 0.0256,
      "duration": 0.0447,
      "velocity": 121,
      "chip": "ym2612"
    },
    {
      "channel": 0,
      "note": 53,
      "start": 0.2415,
      "duration": 0.2179,
      "velocity": 127,
      "chip": "ym2612"
    },
    {
      "channel": 2,
      "note": 64,
      "start": 0.2417,
      "duration": 0.0464,
      "velocity": 121,
      "chip": "ym2612"
    },
    {
      "channel": 3,
      "note": 60,
      "start": 0.2418,
      "duration": 0.0464,
      "velocity": 121,
      "chip": "ym2612"
    },
    {
      "channel": 0,
      "note": 61,
      "start": 0.4594,
      "duration": 0.0154,
      "velocity": 127,
      "chip": "ym2612"
    },
    {
      "channel": 1,
      "note": 57,
      "start": 0.4595,
      "duration": 0.2179,
      "velocity": 93,
      "chip": "ym2612"
    },
    {
      "channel": 2,
      "note": 64,
      "start": 0.4596,
      "duration": 0.0464,
      "velocity": 121,
      "chip": "ym2612"
    },
    {
      "channel": 3,
      "note": 60,
      "start": 0.4597,
      "duration": 0.0464,
      "velocity": 121,
      "chip": "ym2612"
    },
    {
      "channel": 0,
      "note": 76,
      "start": 0.4747,
      "duration": 0.2025,
      "velocity": 123,
      "chip": "ym2612"
    },
    {
      "channel": 0,
      "note": 66,
      "start": 0.6773,
      "duration": 0.2179,
      "velocity": 123,
      "chip": "ym2612"
    },
    {
      "channel": 1,
      "note": 60,
      "start": 0.6774,
      "duration": 0.2179,
      "velocity": 93,
      "chip": "ym2612"
    },
    {
      "channel": 2,
      "note": 64,
      "start": 0.6775,
      "duration": 0.0465,
      "velocity": 121,
      "chip": "ym2612"
    },
    {
      "channel": 3,
      "note": 60,
      "start": 0.6776,
      "duration": 0.0465,
      "velocity": 121,
      "chip": "ym2612"
    },
    {
      "channel": 0,
      "note": 53,
      "start": 0.8951,
      "duration": 0.2179,
      "velocity": 114,
      "chip": "ym2612"
    },
    {
      "channel": 1,
      "note": 64,
      "start": 0.8953,
      "duration": 0.1087,
      "velocity": 93,
      "chip": "ym2612"
    },
    {
      "channel": 2,
      "note": 64,
      "start": 0.8954,
      "duration": 0.0464,
      "velocity": 121,
      "chip": "ym2612"
    },
    {
      "channel": 3,
      "note": 60,
      "start": 0.8955,
      "duration": 0.0463,
      "velocity": 121,
      "chip": "ym2612"
    },
    {
      "channel": 0,
      "note": 53,
      "start": 1.113,
      "duration": 0.0309,
      "velocity": 114,
      "chip": "ym2612"
    },
    {
      "channel": 2,
      "note": 62,
      "start": 1.1132,
      "duration": 0.0464,
      "velocity": 121,
      "chip": "ym2612"
    },
    {
      "channel": 3,
      "note": 59,
      "start": 1.1133,
      "duration": 0.0464,
      "velocity": 121,
      "chip": "ym2612"
    },
    {
      "channel": 0,
      "note": 98,
      "start": 1.2218,
      "duration": 0.0311,
      "velocity": 114,
      "chip": "ym2612"
    },
    {
      "channel": 0,
      "note": 98,
      "start": 1.3309,
      "duration": 0.0153,
      "velocity": 127,
      "chip": "ym2612"
    },
    {
      "channel": 1,
      "note": 59,
      "start": 1.3311,
      "duration": 0.2179,
      "velocity": 93,
      "chip": "ym2612"
    },
    {
      "channel": 2,
      "note": 62,
      "start": 1.3312,
      "duration": 0.0463,
      "velocity": 121,
      "chip": "ym2612"
    },
    {
      "channel": 3,
      "note": 59,
      "start": 1.3313,
      "duration": 0.0463,
      "velocity": 121,
      "chip": "ym2612"
    },
    {
      "channel": 0,
      "note": 76,
      "start": 1.3463,
      "duration": 0.2025,
      "velocity": 123,
      "chip": "ym2612"
    },
    {
      "channel": 0,
      "note": 70,
      "start": 1.5488,
      "duration": 0.2178,
      "velocity": 114,
      "chip": "ym2612"
    },
    {
      "channel": 1,
      "note": 55,
      "start": 1.549,
      "duration": 0.4357,
      "velocity": 93,
      "chip": "ym2612"
    },
    {
      "channel": 2,
      "note": 62,
      "start": 1.549,
      "duration": 0.0464,
      "velocity": 121,
      "chip": "ym2612"
    },
    {
      "channel": 3,
      "note": 59,
      "start": 1.5492,
      "duration": 0.0463,
      "velocity": 121,
      "chip": "ym2612"
    },
    {
      "channel": 0,
      "note": 53,
      "start": 1.7667,
      "duration": 0.0309,
      "velocity": 114,
      "chip": "ym2612"
    },
    {
      "channel": 2,
      "note": 64,
      "start": 1.7669,
      "duration": 0.0464,
      "velocity": 121,
      "chip": "ym2612"
    },
    {
      "channel": 3,
      "note": 60,
      "start": 1.767,
      "duration": 0.0464,
      "velocity": 121,
      "chip": "ym2612"
    },
    {
      "channel": 0,
      "note": 98,
      "start": 1.9846,
      "duration": 0.2179,
      "velocity": 127,
      "chip": "ym2612"
    },
    {
      "channel": 1,
      "note": 60,
      "start": 1.9847,
      "duration": 0.2179,
      "velocity": 93,
      "chip": "ym2612"
    },
    {
      "channel": 2,
      "note": 64,
      "start": 1.9848,
      "duration": 0.0463,
      "velocity": 121,
      "chip": "ym2612"
    },
    {
      "channel": 3,
      "note": 60,
      "start": 1.9849,
      "duration": 0.0463,
      "velocity": 121,
      "chip": "ym2612"
    },
    {
      "channel": 0,
      "note": 61,
      "start": 2.2024,
      "duration": 0.0154,
      "velocity": 127,
      "chip": "ym2612"
    },
    {
      "channel": 1,
      "note": 55,
      "start": 2.2026,
      "duration": 0.2178,
      "velocity": 93,
      "chip": "ym2612"
    },
    {
      "channel": 2,
      "note": 64,
      "start": 2.2027,
      "duration": 0.0464,
      "velocity": 121,
      "chip": "ym2612"
    },
    {
      "channel": 3,
      "note": 60,
      "start": 2.2028,
      "duration": 0.0463,
      "velocity": 121,
      "chip": "ym2612"
    },
    {
      "channel": 0,
      "note": 76,
      "start": 2.2178,
      "duration": 0.2025,
      "velocity": 123,
      "chip": "ym2612"
    },
    {
      "channel": 0,
      "note": 66,
      "start": 2.4203,
      "duration": 0.2179,
      "velocity": 114,
      "chip": "ym2612"
    },
    {
      "channel": 1,
      "note": 60,
      "start": 2.4205,
      "duration": 0.4358,
      "velocity": 93,
      "chip": "ym2612"
    },
    {
      "channel": 2,
      "note": 64,
      "start": 2.4206,
      "duration": 0.0464,
      "velocity": 121,
      "chip": "ym2612"
    },
    {
      "channel": 3,
      "note": 60,
      "start": 2.4207,
      "duration": 0.0464,
      "velocity": 121,
      "chip": "ym2612"
    },
    {
      "channel": 0,
      "note": 53,
      "start": 2.6382,
      "duration": 0.0309,
      "velocity": 114,
      "chip": "ym2612"
    },
    {
      "channel": 2,
      "note": 64,
      "start": 2.6384,
      "duration": 0.0464,
      "velocity": 121,
      "chip": "ym2612"
    },
    {
      "channel": 3,
      "note": 60,
      "start": 2.6385,
      "duration": 0.0463,
      "velocity": 121,
      "chip": "ym2612"
    },
    {
      "channel": 0,
      "note": 98,
      "start": 2.8561,
      "duration": 0.218,
      "velocity": 127,
      "chip": "ym2612"
    },
    {
      "channel": 1,
      "note": 59,
      "start": 2.8562,
      "duration": 0.218,
      "velocity": 93,
      "chip": "ym2612"
    },
    {
      "channel": 2,
      "note": 67,
      "start": 2.8563,
      "duration": 0.0464,
      "velocity": 121,
      "chip": "ym2612"
    },
    {
      "channel": 3,
      "note": 59,
      "start": 2.8564,
      "duration": 0.0464,
      "velocity": 121,
      "chip": "ym2612"
    },
    {
      "channel": 0,
      "note": 53,
      "start": 3.0741,
      "duration": 0.0153,
      "velocity": 127,
      "chip": "ym2612"
    },
    {
      "channel": 1,
      "note": 55,
      "start": 3.0742,
      "duration": 0.2178,
      "velocity": 93,
      "chip": "ym2612"
    },
    {
      "channel": 2,
      "note": 67,
      "start": 3.0743,
      "duration": 0.0463,
      "velocity": 121,
      "chip": "ym2612"
    },
    {
      "channel": 3,
      "note": 59,
      "start": 3.0744,
      "duration": 0.0463,
      "velocity": 121,
      "chip": "ym2612"
    },
    {
      "channel": 0,
      "note": 76,
      "start": 3.0893,
      "duration": 0.2025,
      "velocity": 123,
      "chip": "ym2612"
    },
    {
      "channel": 0,
      "note": 70,
      "start": 3.2919,
      "duration": 0.2179,
      "velocity": 114,
      "chip": "ym2612"
    },
    {
      "channel": 1,
      "note": 59,
      "start": 3.292,
      "duration": 0.4357,
      "velocity": 93,
      "chip": "ym2612"
    },
    {
      "channel": 2,
      "note": 67,
      "start": 3.2921,
      "duration": 0.0463,
      "velocity": 121,
      "chip": "ym2612"
    },
    {
      "channel": 3,
      "note": 59,
      "start": 3.2922,
      "duration": 0.0463,
      "velocity": 121,
      "chip": "ym2612"
    },
    {
      "channel": 0,
      "note": 53,
      "start": 3.5098,
      "duration": 0.0309,
      "velocity": 114,
      "chip": "ym2612"
    },
    {
      "channel": 2,
      "note": 67,
      "start": 3.51,
      "duration": 0.0463,
      "velocity": 121,
      "chip": "ym2612"
    },
    {
      "channel": 3,
      "note": 59,
      "start": 3.5101,
      "duration": 0.0463,
      "velocity": 121,
      "chip": "ym2612"
    },
    {
      "channel": 0,
      "note": 98,
      "start": 3.7276,
      "duration": 0.2179,
      "velocity": 127,
      "chip": "ym2612"
    },
    {
      "channel": 2,
      "note": 65,
      "start": 3.7278,
      "duration": 0.0464,
      "velocity": 121,
      "chip": "ym2612"
    },
    {
      "channel": 3,
      "note": 62,
      "start": 3.7279,
      "duration": 0.0464,
      "velocity": 121,
      "chip": "ym2612"
    },
    {
      "channel": 0,
      "note": 61,
      "start": 3.9455,
      "duration": 0.0153,
      "velocity": 127,
      "chip": "ym2612"
    },
    {
      "channel": 1,
      "note": 58,
      "start": 3.9456,
      "duration": 0.2179,
      "velocity": 93,
      "chip": "ym2612"
    },
    {
      "channel": 2,
      "note": 65,
      "start": 3.9457,
      "duration": 0.0464,
      "velocity": 121,
      "chip": "ym2612"
    },
    {
      "channel": 3,
      "note": 62,
      "start": 3.9459,
      "duration": 0.0464,
      "velocity": 121,
      "chip": "ym2612"
    },
    {
      "channel": 0,
      "note": 76,
      "start": 3.9609,
      "duration": 0.2025,
      "velocity": 123,
      "chip": "ym2612"
    },
    {
      "channel": 0,
      "note": 66,
      "start": 4.1634,
      "duration": 0.2179,
      "velocity": 123,
      "chip": "ym2612"
    },
    {
      "channel": 1,
      "note": 58,
      "start": 4.1635,
      "duration": 0.2179,
      "velocity": 93,
      "chip": "ym2612"
    },
    {
      "channel": 2,
      "note": 65,
      "start": 4.1637,
      "duration": 0.0464,
      "velocity": 121,
      "chip": "ym2612"
    },
    {
      "channel": 3,
      "note": 62,
      "start": 4.1637,
      "duration": 0.0464,
      "velocity": 121,
      "chip": "ym2612"
    },
    {
      "channel": 0,
      "note": 53,
      "start": 4.3813,
      "duration": 0.2179,
      "velocity": 114,
      "chip": "ym2612"
    },
    {
      "channel": 1,
      "note": 53,
      "start": 4.3814,
      "duration": 0.2178,
      "velocity": 93,
      "chip": "ym2612"
    },
    {
      "channel": 2,
      "note": 65,
      "start": 4.3815,
      "duration": 0.0464,
      "velocity": 121,
      "chip": "ym2612"
    },
    {
      "channel": 3,
      "note": 62,
      "start": 4.3816,
      "duration": 0.0464,
      "velocity": 121,
      "chip": "ym2612"
    },
    {
      "channel": 0,
      "note": 53,
      "start": 4.5992,
      "duration": 0.0309,
      "velocity": 114,
      "chip": "ym2612"
    },
    {
      "channel": 2,
      "note": 65,
      "start": 4.5994,
      "duration": 0.0464,
      "velocity": 121,
      "chip": "ym2612"
    },
    {
      "channel": 3,
      "note": 62,
      "start": 4.5995,
      "duration": 0.0464,
      "velocity": 121,
      "chip": "ym2612"
    },
    {
      "channel": 0,
      "note": 98,
      "start": 4.7079,
      "duration": 0.0311,
      "velocity": 114,
      "chip": "ym2612"
    },
    {
      "channel": 0,
      "note": 98,
      "start": 4.8171,
      "duration": 0.0153,
      "velocity": 127,
      "chip": "ym2612"
    },
    {
      "channel": 1,
      "note": 58,
      "start": 4.8172,
      "duration": 0.2179,
      "velocity": 93,
      "chip": "ym2612"
    },
    {
      "channel": 2,
      "note": 65,
      "start": 4.8173,
      "duration": 0.0464,
      "velocity": 121,
      "chip": "ym2612"
    },
    {
      "channel": 3,
      "note": 62,
      "start": 4.8174,
      "duration": 0.0464,
      "velocity": 121,
      "chip": "ym2612"
    },
    {
      "channel": 0,
      "note": 76,
      "start": 4.8324,
      "duration": 0.2025,
      "velocity": 123,
      "chip": "ym2612"
    },
    {
      "channel": 0,
      "note": 70,
      "start": 5.0349,
      "duration": 0.2179,
      "velocity": 114,
      "chip": "ym2612"
    },
    {
      "channel": 1,
      "note": 57,
      "start": 5.0351,
      "duration": 0.4357,
      "velocity": 93,
      "chip": "ym2612"
    },
    {
      "channel": 2,
      "note": 65,
      "start": 5.0352,
      "duration": 0.0464,
      "velocity": 121,
      "chip": "ym2612"
    },
    {
      "channel": 3,
      "note": 62,
      "start": 5.0353,
      "duration": 0.0464,
      "velocity": 121,
      "chip": "ym2612"
    },
    {
      "channel": 0,
      "note": 53,
      "start": 5.2528,
      "duration": 0.0309,
      "velocity": 114,
      "chip": "ym2612"
    },
    {
      "channel": 2,
      "note": 65,
      "start": 5.253,
      "duration": 0.0464,
      "velocity": 121,
      "chip": "ym2612"
    },
    {
      "channel": 3,
      "note": 62,
      "start": 5.2532,
      "duration": 0.0463,
      "velocity": 121,
      "chip": "ym2612"
    },
    {
      "channel": 0,
      "note": 98,
      "start": 5.4707,
      "duration": 0.2179,
      "velocity": 127,
      "chip": "ym2612"
    },
    {
      "channel": 1,
      "note": 56,
      "start": 5.4708,
      "duration": 0.2179,
      "velocity": 93,
      "chip": "ym2612"
    },
    {
      "channel": 2,
      "note": 68,
      "start": 5.471,
      "duration": 0.0463,
      "velocity": 121,
      "chip": "ym2612"
    },
    {
      "channel": 3,
      "note": 62,
      "start": 5.471,
      "duration": 0.0463,
      "velocity": 121,
      "chip": "ym2612"
    },
    {
      "channel": 0,
      "note": 61,
      "start": 5.6886,
      "duration": 0.0154,
      "velocity": 127,
      "chip": "ym2612"
    },
    {
      "channel": 1,
      "note": 59,
      "start": 5.6887,
      "duration": 0.2179,
      "velocity": 93,
      "chip": "ym2612"
    },
    {
      "channel": 2,
      "note": 68,
      "start": 5.6888,
      "duration": 0.0464,
      "velocity": 121,
      "chip": "ym2612"
    },
    {
      "channel": 3,
      "note": 62,
      "start": 5.6889,
      "duration": 0.0464,
      "velocity": 121,
      "chip": "ym2612"
    },
    {
      "channel": 0,
      "note": 76,
      "start": 5.7039,
      "duration": 0.2025,
      "velocity": 123,
      "chip": "ym2612"
    },
    {
      "channel": 0,
      "note": 66,
      "start": 5.9065,
      "duration": 0.2179,
      "velocity": 114,
      "chip": "ym2612"
    },
    {
      "channel": 1,
      "note": 62,
      "start": 5.9066,
      "duration": 0.4358,
      "velocity": 93,
      "chip": "ym2612"
    },
    {
      "channel": 2,
      "note": 68,
      "start": 5.9067,
      "duration": 0.0464,
      "velocity": 121,
      "chip": "ym2612"
    },
    {
      "channel": 3,
      "note": 62,
      "start": 5.9068,
      "duration": 0.0464,
      "velocity": 121,
      "chip": "ym2612"
    },
    {
      "channel": 0,
      "note": 53,
      "start": 6.1244,
      "duration": 0.0309,
      "velocity": 114,
      "chip": "ym2612"
    },
    {
      "channel": 2,
      "note": 68,
      "start": 6.1246,
      "duration": 0.0464,
      "velocity": 121,
      "chip": "ym2612"
    },
    {
      "channel": 3,
      "note": 62,
      "start": 6.1247,
      "duration": 0.0464,
      "velocity": 121,
      "chip": "ym2612"
    },
    {
      "channel": 0,
      "note": 98,
      "start": 6.3422,
      "duration": 0.2179,
      "velocity": 127,
      "chip": "ym2612"
    },
    {
      "channel": 1,
      "note": 65,
      "start": 6.3424,
      "duration": 0.2179,
      "velocity": 93,
      "chip": "ym2612"
    },
    {
      "channel": 2,
      "note": 68,
      "start": 6.3425,
      "duration": 0.0464,
      "velocity": 121,
      "chip": "ym2612"
    },
    {
      "channel": 3,
      "note": 65,
      "start": 6.3426,
      "duration": 0.0464,
      "velocity": 121,
      "chip": "ym2612"
    },
    {
      "channel": 0,
      "note": 53,
      "start": 6.5601,
      "duration": 0.0153,
      "velocity": 127,
      "chip": "ym2612"
    },
    {
      "channel": 1,
      "note": 64,
      "start": 6.5603,
      "duration": 0.2179,
      "velocity": 93,
      "chip": "ym2612"
    },
    {
      "channel": 2,
      "note": 68,
      "start": 6.5604,
      "duration": 0.0463,
      "velocity": 121,
      "chip": "ym2612"
    },
    {
      "channel": 3,
      "note": 65,
      "start": 6.5605,
      "duration": 0.0463,
      "velocity": 121,
      "chip": "ym2612"
    },
    {
      "channel": 0,
      "note": 76,
      "start": 6.5755,
      "duration": 0.2025,
      "velocity": 127,
      "chip": "ym2612"
    },
    {
      "channel": 0,
      "note": 70,
      "start": 6.778,
      "duration": 0.0153,
      "velocity": 127,
      "chip": "ym2612"
    },
    {
      "channel": 1,
      "note": 62,
      "start": 6.7782,
      "duration": 0.2179,
      "velocity": 93,
      "chip": "ym2612"
    },
    {
      "channel": 2,
      "note": 68,
      "start": 6.7783,
      "duration": 0.0463,
      "velocity": 121,
      "chip": "ym2612"
    },
    {
      "channel": 3,
      "note": 65,
      "start": 6.7784,
      "duration": 0.0463,
      "velocity": 121,
      "chip": "ym2612"
    },
    {
      "channel": 0,
      "note": 76,
      "start": 6.7934,
      "duration": 0.2025,
      "velocity": 123,
      "chip": "ym2612"
    },
    {
      "channel": 0,
      "note": 70,
      "start": 6.9959,
      "duration": 0.2178,
      "velocity": 99,
      "chip": "ym2612"
    },
    {
      "channel": 1,
      "note": 59,
      "start": 6.9961,
      "duration": 0.1086,
      "velocity": 93,
      "chip": "ym2612"
    },
    {
      "channel": 2,
      "note": 68,
      "start": 6.9962,
      "duration": 0.0463,
      "velocity": 121,
      "chip": "ym2612"
    },
    {
      "channel": 3,
      "note": 65,
      "start": 6.9963,
      "duration": 0.0463,
      "velocity": 121,
      "chip": "ym2612"
    },
    {
      "channel": 0,
      "note": 53,
      "start": 7.2138,
      "duration": 0.2179,
      "velocity": 127,
      "chip": "ym2612"
    },
    {
      "channel": 2,
      "note": 64,
      "start": 7.214,
      "duration": 0.0464,
      "velocity": 121,
      "chip": "ym2612"
    },
    {
      "channel": 3,
      "note": 60,
      "start": 7.2141,
      "duration": 0.0464,
      "velocity": 121,
      "chip": "ym2612"
    },
    {
      "channel": 0,
      "note": 61,
      "start": 7.4317,
      "duration": 0.0154,
      "velocity": 127,
      "chip": "ym2612"
    },
    {
      "channel": 1,
      "note": 57,
      "start": 7.4318,
      "duration": 0.2179,
      "velocity": 93,
      "chip": "ym2612"
    },
    {
      "channel": 2,
      "note": 64,
      "start": 7.4319,
      "duration": 0.0464,
      "velocity": 121,
      "chip": "ym2612"
    },
    {
      "channel": 3,
      "note": 60,
      "start": 7.432,
      "duration": 0.0464,
      "velocity": 121,
      "chip": "ym2612"
    },
    {
      "channel": 0,
      "note": 76,
      "start": 7.447,
      "duration": 0.2025,
      "velocity": 123,
      "chip": "ym2612"
    },
    {
      "channel": 0,
      "note": 66,
      "start": 7.6495,
      "duration": 0.2179,
      "velocity": 123,
      "chip": "ym2612"
    },
    {
      "channel": 1,
      "note": 60,
      "start": 7.6497,
      "duration": 0.2179,
      "velocity": 93,
      "chip": "ym2612"
    },
    {
      "channel": 2,
      "note": 64,
      "start": 7.6498,
      "duration": 0.0464,
      "velocity": 121,
      "chip": "ym2612"
    },
    {
      "channel": 3,
      "note": 60,
      "start": 7.6499,
      "duration": 0.0463,
      "velocity": 121,
      "chip": "ym2612"
    },
    {
      "channel": 0,
      "note": 53,
      "start": 7.8674,
      "duration": 0.2179,
      "velocity": 114,
      "chip": "ym2612"
    },
    {
      "channel": 1,
      "note": 64,
      "start": 7.8676,
      "duration": 0.1087,
      "velocity": 93,
      "chip": "ym2612"
    },
    {
      "channel": 2,
      "note": 64,
      "start": 7.8677,
      "duration": 0.0464,
      "velocity": 121,
      "chip": "ym2612"
    },
    {
      "channel": 3,
      "note": 60,
      "start": 7.8678,
      "duration": 0.0463,
      "velocity": 121,
      "chip": "ym2612"
    },
    {
      "channel": 0,
      "note": 53,
      "start": 8.0853,
      "duration": 0.0309,
      "velocity": 114,
      "chip": "ym2612"
    },
    {
      "channel": 2,
      "note": 62,
      "start": 8.0855,
      "duration": 0.0464,
      "velocity": 121,
      "chip": "ym2612"
    },
    {
      "channel": 3,
      "note": 59,
      "start": 8.0856,
      "duration": 0.0464,
      "velocity": 121,
      "chip": "ym2612"
    },
    {
      "channel": 0,
      "note": 98,
      "start": 8.194,
      "duration": 0.0311,
      "velocity": 114,
      "chip": "ym2612"
    },
    {
      "channel": 0,
      "note": 98,
      "start": 8.3032,
      "duration": 0.0153,
      "velocity": 127,
      "chip": "ym2612"
    },
    {
      "channel": 1,
      "note": 59,
      "start": 8.3033,
      "duration": 0.2179,
      "velocity": 93,
      "chip": "ym2612"
    },
    {
      "channel": 2,
      "note": 62,
      "start": 8.3034,
      "duration": 0.0463,
      "velocity": 121,
      "chip": "ym2612"
    },
    {
      "channel": 3,
      "note": 59,
      "start": 8.3035,
      "duration": 0.0463,
      "velocity": 121,
      "chip": "ym2612"
    },
    {
      "channel": 0,
      "note": 76,
      "start": 8.3185,
      "duration": 0.2025,
      "velocity": 123,
      "chip": "ym2612"
    },
    {
      "channel": 0,
      "note": 70,
      "start": 8.5211,
      "duration": 0.2178,
      "velocity": 114,
      "chip": "ym2612"
    },
    {
      "channel": 1,
      "note": 55,
      "start": 8.5212,
      "duration": 0.4359,
      "velocity": 93,
      "chip": "ym2612"
    },
    {
      "channel": 2,
      "note": 62,
      "start": 8.5213,
      "duration": 0.0464,
      "velocity": 121,
      "chip": "ym2612"
    },
    {
      "channel": 3,
      "note": 59,
      "start": 8.5215,
      "duration": 0.0463,
      "velocity": 121,
      "chip": "ym2612"
    },
    {
      "channel": 0,
      "note": 53,
      "start": 8.739,
      "duration": 0.0309,
      "velocity": 114,
      "chip": "ym2612"
    },
    {
      "channel": 2,
      "note": 64,
      "start": 8.7392,
      "duration": 0.0464,
      "velocity": 121,
      "chip": "ym2612"
    },
    {
      "channel": 3,
      "note": 60,
      "start": 8.7393,
      "duration": 0.0463,
      "velocity": 121,
      "chip": "ym2612"
    },
    {
      "channel": 0,
      "note": 98,
      "start": 8.9568,
      "duration": 0.2179,
      "velocity": 127,
      "chip": "ym2612"
    },
    {
      "channel": 1,
      "note": 60,
      "start": 8.9571,
      "duration": 0.2177,
      "velocity": 93,
      "chip": "ym2612"
    },
    {
      "channel": 2,
      "note": 64,
      "start": 8.9573,
      "duration": 0.0462,
      "velocity": 121,
      "chip": "ym2612"
    },
    {
      "channel": 3,
      "note": 60,
      "start": 8.9573,
      "duration": 0.0462,
      "velocity": 121,
      "chip": "ym2612"
    },
    {
      "channel": 0,
      "note": 61,
      "start": 9.1747,
      "duration": 0.0153,
      "velocity": 127,
      "chip": "ym2612"
    },
    {
      "channel": 1,
      "note": 55,
      "start": 9.1749,
      "duration": 0.2178,
      "velocity": 93,
      "chip": "ym2612"
    },
    {
      "channel": 2,
      "note": 64,
      "start": 9.175,
      "duration": 0.0464,
      "velocity": 121,
      "chip": "ym2612"
    },
    {
      "channel": 3,
      "note": 60,
      "start": 9.1751,
      "duration": 0.0463,
      "velocity": 121,
      "chip": "ym2612"
    },
    {
      "channel": 0,
      "note": 76,
      "start": 9.1901,
      "duration": 0.2025,
      "velocity": 123,
      "chip": "ym2612"
    },
    {
      "channel": 0,
      "note": 66,
      "start": 9.3926,
      "duration": 0.2179,
      "velocity": 114,
      "chip": "ym2612"
    },
    {
      "channel": 1,
      "note": 60,
      "start": 9.3927,
      "duration": 0.4358,
      "velocity": 93,
      "chip": "ym2612"
    },
    {
      "channel": 2,
      "note": 64,
      "start": 9.3928,
      "duration": 0.0464,
      "velocity": 121,
      "chip": "ym2612"
    },
    {
      "channel": 3,
      "note": 60,
      "start": 9.3929,
      "duration": 0.0464,
      "velocity": 121,
      "chip": "ym2612"
    },
    {
      "channel": 0,
      "note": 53,
      "start": 9.6105,
      "duration": 0.0309,
      "velocity": 114,
      "chip": "ym2612"
    },
    {
      "channel": 2,
      "note": 64,
      "start": 9.6107,
      "duration": 0.0466,
      "velocity": 121,
      "chip": "ym2612"
    },
    {
      "channel": 3,
      "note": 60,
      "start": 9.6108,
      "duration": 0.0465,
      "velocity": 121,
      "chip": "ym2612"
    },
    {
      "channel": 0,
      "note": 98,
      "start": 9.8284,
      "duration": 0.2179,
      "velocity": 127,
      "chip": "ym2612"
    },
    {
      "channel": 1,
      "note": 59,
      "start": 9.8285,
      "duration": 0.2179,
      "velocity": 93,
      "chip": "ym2612"
    },
    {
      "channel": 2,
      "note": 67,
      "start": 9.8286,
      "duration": 0.0464,
      "velocity": 121,
      "chip": "ym2612"
    },
    {
      "channel": 3,
      "note": 59,
      "start": 9.8287,
      "duration": 0.0464,
      "velocity": 121,
      "chip": "ym2612"
    },
    {
      "channel": 0,
      "note": 53,
      "start": 10.0463,
      "duration": 0.0154,
      "velocity": 127,
      "chip": "ym2612"
    },
    {
      "channel": 1,
      "note": 55,
      "start": 10.0464,
      "duration": 0.2179,
      "velocity": 93,
      "chip": "ym2612"
    },
    {
      "channel": 2,
      "note": 67,
      "start": 10.0465,
      "duration": 0.0464,
      "velocity": 121,
      "chip": "ym2612"
    },
    {
      "channel": 3,
      "note": 59,
      "start": 10.0466,
      "duration": 0.0464,
      "velocity": 121,
      "chip": "ym2612"
    },
    {
      "channel": 0,
      "note": 76,
      "start": 10.0616,
      "duration": 0.2025,
      "velocity": 123,
      "chip": "ym2612"
    },
    {
      "channel": 0,
      "note": 70,
      "start": 10.2641,
      "duration": 0.2179,
      "velocity": 114,
      "chip": "ym2612"
    },
    {
      "channel": 1,
      "note": 59,
      "start": 10.2643,
      "duration": 0.4357,
      "velocity": 93,
      "chip": "ym2612"
    },
    {
      "channel": 2,
      "note": 67,
      "start": 10.2644,
      "duration": 0.0463,
      "velocity": 121,
      "chip": "ym2612"
    },
    {
      "channel": 3,
      "note": 59,
      "start": 10.2645,
      "duration": 0.0463,
      "velocity": 121,
      "chip": "ym2612"
    },
    {
      "channel": 0,
      "note": 53,
      "start": 10.482,
      "duration": 0.0309,
      "velocity": 114,
      "chip": "ym2612"
    },
    {
      "channel": 2,
      "note": 67,
      "start": 10.4823,
      "duration": 0.0463,
      "velocity": 121,
      "chip": "ym2612"
    },
    {
      "channel": 3,
      "note": 59,
      "start": 10.4824,
      "duration": 0.0463,
      "velocity": 121,
      "chip": "ym2612"
    },
    {
      "channel": 0,
      "note": 98,
      "start": 10.6999,
      "duration": 0.2179,
      "velocity": 127,
      "chip": "ym2612"
    },
    {
      "channel": 2,
      "note": 65,
      "start": 10.7001,
      "duration": 0.0464,
      "velocity": 121,
      "chip": "ym2612"
    },
    {
      "channel": 3,
      "note": 62,
      "start": 10.7002,
      "duration": 0.0464,
      "velocity": 121,
      "chip": "ym2612"
    },
    {
      "channel": 0,
      "note": 61,
      "start": 10.9178,
      "duration": 0.0153,
      "velocity": 127,
      "chip": "ym2612"
    },
    {
      "channel": 1,
      "note": 58,
      "start": 10.9179,
      "duration": 0.2179,
      "velocity": 93,
      "chip": "ym2612"
    },
    {
      "channel": 2,
      "note": 65,
      "start": 10.918,
      "duration": 0.0464,
      "velocity": 121,
      "chip": "ym2612"
    },
    {
      "channel": 3,
      "note": 62,
      "start": 10.9181,
      "duration": 0.0464,
      "velocity": 121,
      "chip": "ym2612"
    },
    {
      "channel": 0,
      "note": 76,
      "start": 10.9332,
      "duration": 0.2025,
      "velocity": 123,
      "chip": "ym2612"
    },
    {
      "channel": 0,
      "note": 66,
      "start": 11.1357,
      "duration": 0.2179,
      "velocity": 123,
      "chip": "ym2612"
    },
    {
      "channel": 1,
      "note": 58,
      "start": 11.1358,
      "duration": 0.2179,
      "velocity": 93,
      "chip": "ym2612"
    },
    {
      "channel": 2,
      "note": 65,
      "start": 11.1359,
      "duration": 0.0464,
      "velocity": 121,
      "chip": "ym2612"
    },
    {
      "channel": 3,
      "note": 62,
      "start": 11.136,
      "duration": 0.0464,
      "velocity": 121,
      "chip": "ym2612"
    },
    {
      "channel": 0,
      "note": 53,
      "start": 11.3535,
      "duration": 0.2179,
      "velocity": 114,
      "chip": "ym2612"
    },
    {
      "channel": 1,
      "note": 53,
      "start": 11.3537,
      "duration": 0.2179,
      "velocity": 93,
      "chip": "ym2612"
    },
    {
      "channel": 2,
      "note": 65,
      "start": 11.3538,
      "duration": 0.0464,
      "velocity": 121,
      "chip": "ym2612"
    },
    {
      "channel": 3,
      "note": 62,
      "start": 11.3539,
      "duration": 0.0464,
      "velocity": 121,
      "chip": "ym2612"
    },
    {
      "channel": 0,
      "note": 53,
      "start": 11.5714,
      "duration": 0.0309,
      "velocity": 114,
      "chip": "ym2612"
    },
    {
      "channel": 2,
      "note": 65,
      "start": 11.5716,
      "duration": 0.0464,
      "velocity": 121,
      "chip": "ym2612"
    },
    {
      "channel": 3,
      "note": 62,
      "start": 11.5717,
      "duration": 0.0464,
      "velocity": 121,
      "chip": "ym2612"
    },
    {
      "channel": 0,
      "note": 98,
      "start": 11.6802,
      "duration": 0.0311,
      "velocity": 114,
      "chip": "ym2612"
    },
    {
      "channel": 0,
      "note": 98,
      "start": 11.7893,
      "duration": 0.0153,
      "velocity": 127,
      "chip": "ym2612"
    },
    {
      "channel": 1,
      "note": 58,
      "start": 11.7895,
      "duration": 0.218,
      "velocity": 93,
      "chip": "ym2612"
    },
    {
      "channel": 2,
      "note": 65,
      "start": 11.7896,
      "duration": 0.0464,
      "velocity": 121,
      "chip": "ym2612"
    },
    {
      "channel": 3,
      "note": 62,
      "start": 11.7897,
      "duration": 0.0464,
      "velocity": 121,
      "chip": "ym2612"
    },
    {
      "channel": 0,
      "note": 76,
      "start": 11.8047,
      "duration": 0.2027,
      "velocity": 123,
      "chip": "ym2612"
    },
    {
      "channel": 0,
      "note": 70,
      "start": 12.0074,
      "duration": 0.2177,
      "velocity": 114,
      "chip": "ym2612"
    },
    {
      "channel": 1,
      "note": 57,
      "start": 12.0075,
      "duration": 0.4356,
      "velocity": 93,
      "chip": "ym2612"
    },
    {
      "channel": 2,
      "note": 65,
      "start": 12.0076,
      "duration": 0.0462,
      "velocity": 121,
      "chip": "ym2612"
    },
    {
      "channel": 3,
      "note": 62,
      "start": 12.0077,
      "duration": 0.0462,
      "velocity": 121,
      "chip": "ym2612"
    },
    {
      "channel": 0,
      "note": 53,
      "start": 12.2251,
      "duration": 0.0309,
      "velocity": 114,
      "chip": "ym2612"
    },
    {
      "channel": 2,
      "note": 65,
      "start": 12.2253,
      "duration": 0.0464,
      "velocity": 121,
      "chip": "ym2612"
    },
    {
      "channel": 3,
      "note": 62,
      "start": 12.2254,
      "duration": 0.0463,
      "velocity": 121,
      "chip": "ym2612"
    },
    {
      "channel": 0,
      "note": 98,
      "start": 12.443,
      "duration": 0.2179,
      "velocity": 127,
      "chip": "ym2612"
    },
    {
      "channel": 1,
      "note": 56,
      "start": 12.4431,
      "duration": 0.2179,
      "velocity": 93,
      "chip": "ym2612"
    },
    {
      "channel": 2,
      "note": 68,
      "start": 12.4432,
      "duration": 0.0463,
      "velocity": 121,
      "chip": "ym2612"
    },
    {
      "channel": 3,
      "note": 62,
      "start": 12.4433,
      "duration": 0.0463,
      "velocity": 121,
      "chip": "ym2612"
    },
    {
      "channel": 0,
      "note": 61,
      "start": 12.6609,
      "duration": 0.0154,
      "velocity": 127,
      "chip": "ym2612"
    },
    {
      "channel": 1,
      "note": 59,
      "start": 12.661,
      "duration": 0.2179,
      "velocity": 93,
      "chip": "ym2612"
    },
    {
      "channel": 2,
      "note": 68,
      "start": 12.6611,
      "duration": 0.0463,
      "velocity": 121,
      "chip": "ym2612"
    },
    {
      "channel": 3,
      "note": 62,
      "start": 12.6612,
      "duration": 0.0464,
      "velocity": 121,
      "chip": "ym2612"
    },
    {
      "channel": 0,
      "note": 76,
      "start": 12.6762,
      "duration": 0.2025,
      "velocity": 123,
      "chip": "ym2612"
    },
    {
      "channel": 0,
      "note": 66,
      "start": 12.8787,
      "duration": 0.2179,
      "velocity": 114,
      "chip": "ym2612"
    },
    {
      "channel": 1,
      "note": 62,
      "start": 12.8789,
      "duration": 0.4358,
      "velocity": 93,
      "chip": "ym2612"
    },
    {
      "channel": 2,
      "note": 68,
      "start": 12.879,
      "duration": 0.0464,
      "velocity": 121,
      "chip": "ym2612"
    },
    {
      "channel": 3,
      "note": 62,
      "start": 12.8791,
      "duration": 0.0464,
      "velocity": 121,
      "chip": "ym2612"
    },
    {
      "channel": 0,
      "note": 53,
      "start": 13.0966,
      "duration": 0.0309,
      "velocity": 114,
      "chip": "ym2612"
    },
    {
      "channel": 2,
      "note": 68,
      "start": 13.0968,
      "duration": 0.0464,
      "velocity": 121,
      "chip": "ym2612"
    },
    {
      "channel": 3,
      "note": 62,
      "start": 13.0969,
      "duration": 0.0464,
      "velocity": 121,
      "chip": "ym2612"
    },
    {
      "channel": 0,
      "note": 98,
      "start": 13.3145,
      "duration": 0.2179,
      "velocity": 127,
      "chip": "ym2612"
    },
    {
      "channel": 1,
      "note": 65,
      "start": 13.3146,
      "duration": 0.2179,
      "velocity": 93,
      "chip": "ym2612"
    },
    {
      "channel": 2,
      "note": 68,
      "start": 13.3147,
      "duration": 0.0464,
      "velocity": 121,
      "chip": "ym2612"
    },
    {
      "channel": 3,
      "note": 65,
      "start": 13.3149,
      "duration": 0.0464,
      "velocity": 121,
      "chip": "ym2612"
    },
    {
      "channel": 0,
      "note": 53,
      "start": 13.5324,
      "duration": 0.0153,
      "velocity": 127,
      "chip": "ym2612"
    },
    {
      "channel": 1,
      "note": 64,
      "start": 13.5325,
      "duration": 0.2179,
      "velocity": 93,
      "chip": "ym2612"
    },
    {
      "channel": 2,
      "note": 68,
      "start": 13.5326,
      "duration": 0.0464,
      "velocity": 121,
      "chip": "ym2612"
    },
    {
      "channel": 3,
      "note": 65,
      "start": 13.5327,
      "duration": 0.0463,
      "velocity": 121,
      "chip": "ym2612"
    },
    {
      "channel": 0,
      "note": 76,
      "start": 13.5478,
      "duration": 0.2025,
      "velocity": 127,
      "chip": "ym2612"
    },
    {
      "channel": 0,
      "note": 70,
      "start": 13.7503,
      "duration": 0.0153,
      "velocity": 127,
      "chip": "ym2612"
    },
    {
      "channel": 1,
      "note": 62,
      "start": 13.7504,
      "duration": 0.2179,
      "velocity": 93,
      "chip": "ym2612"
    },
    {
      "channel": 2,
      "note": 68,
      "start": 13.7505,
      "duration": 0.0463,
      "velocity": 121,
      "chip": "ym2612"
    },
    {
      "channel": 3,
      "note": 65,
      "start": 13.7506,
      "duration": 0.0463,
      "velocity": 121,
      "chip": "ym2612"
    },
    {
      "channel": 0,
      "note": 76,
      "start": 13.7656,
      "duration": 0.2025,
      "velocity": 123,
      "chip": "ym2612"
    },
    {
      "channel": 0,
      "note": 70,
      "start": 13.9682,
      "duration": 0.2178,
      "velocity": 99,
      "chip": "ym2612"
    },
    {
      "channel": 1,
      "note": 59,
      "start": 13.9683,
      "duration": 0.1086,
      "velocity": 93,
      "chip": "ym2612"
    },
    {
      "channel": 2,
      "note": 68,
      "start": 13.9685,
      "duration": 0.0463,
      "velocity": 121,
      "chip": "ym2612"
    },
    {
      "channel": 3,
      "note": 65,
      "start": 13.9686,
      "duration": 0.0463,
      "velocity": 121,
      "chip": "ym2612"
    },
    {
      "channel": 0,
      "note": 53,
      "start": 14.186,
      "duration": 0.2179,
      "velocity": 127,
      "chip": "ym2612"
    },
    {
      "channel": 2,
      "note": 64,
      "start": 14.1862,
      "duration": 0.0464,
      "velocity": 121,
      "chip": "ym2612"
    },
    {
      "channel": 3,
      "note": 60,
      "start": 14.1863,
      "duration": 0.0464,
      "velocity": 121,
      "chip": "ym2612"
    },
    {
      "channel": 0,
      "note": 61,
      "start": 14.4039,
      "duration": 0.0154,
      "velocity": 127,
      "chip": "ym2612"
    },
    {
      "channel": 1,
      "note": 57,
      "start": 14.4041,
      "duration": 0.2179,
      "velocity": 93,
      "chip": "ym2612"
    },
    {
      "channel": 2,
      "note": 64,
      "start": 14.4042,
      "duration": 0.0464,
      "velocity": 121,
      "chip": "ym2612"
    },
    {
      "channel": 3,
      "note": 60,
      "start": 14.4043,
      "duration": 0.0464,
      "velocity": 121,
      "chip": "ym2612"
    },
    {
      "channel": 0,
      "note": 76,
      "start": 14.4193,
      "duration": 0.2025,
      "velocity": 123,
      "chip": "ym2612"
    },
    {
      "channel": 0,
      "note": 66,
      "start": 14.6218,
      "duration": 0.2179,
      "velocity": 123,
      "chip": "ym2612"
    },
    {
      "channel": 1,
      "note": 60,
      "start": 14.6219,
      "duration": 0.2179,
      "velocity": 93,
      "chip": "ym2612"
    },
    {
      "channel": 2,
      "note": 64,
      "start": 14.622,
      "duration": 0.0464,
      "velocity": 121,
      "chip": "ym2612"
    },
    {
      "channel": 3,
      "note": 60,
      "start": 14.6222,
      "duration": 0.0463,
      "velocity": 121,
      "chip": "ym2612"
    },
    {
      "channel": 0,
      "note": 53,
      "start": 14.8397,
      "duration": 0.2179,
      "velocity": 114,
      "chip": "ym2612"
    },
    {
      "channel": 1,
      "note": 64,
      "start": 14.8398,
      "duration": 0.1087,
      "velocity": 93,
      "chip": "ym2612"
    },
    {
      "channel": 2,
      "note": 64,
      "start": 14.8399,
      "duration": 0.0464,
      "velocity": 121,
      "chip": "ym2612"
    },
    {
      "channel": 3,
      "note": 60,
      "start": 14.84,
      "duration": 0.0463,
      "velocity": 121,
      "chip": "ym2612"
    },
    {
      "channel": 0,
      "note": 53,
      "start": 15.0576,
      "duration": 0.0309,
      "velocity": 114,
      "chip": "ym2612"
    },
    {
      "channel": 2,
      "note": 62,
      "start": 15.0578,
      "duration": 0.0464,
      "velocity": 121,
      "chip": "ym2612"
    },
    {
      "channel": 3,
      "note": 59,
      "start": 15.0579,
      "duration": 0.0464,
      "velocity": 121,
      "chip": "ym2612"
    },
    {
      "channel": 0,
      "note": 98,
      "start": 15.1663,
      "duration": 0.0311,
      "velocity": 114,
      "chip": "ym2612"
    },
    {
      "channel": 0,
      "note": 98,
      "start": 15.2755,
      "duration": 0.0153,
      "velocity": 127,
      "chip": "ym2612"
    },
    {
      "channel": 1,
      "note": 59,
      "start": 15.2756,
      "duration": 0.2179,
      "velocity": 93,
      "chip": "ym2612"
    },
    {
      "channel": 2,
      "note": 62,
      "start": 15.2757,
      "duration": 0.0463,
      "velocity": 121,
      "chip": "ym2612"
    },
    {
      "channel": 3,
      "note": 59,
      "start": 15.2758,
      "duration": 0.0463,
      "velocity": 121,
      "chip": "ym2612"
    },
    {
      "channel": 0,
      "note": 76,
      "start": 15.2908,
      "duration": 0.2025,
      "velocity": 123,
      "chip": "ym2612"
    },
    {
      "channel": 0,
      "note": 70,
      "start": 15.4934,
      "duration": 0.2178,
      "velocity": 114,
      "chip": "ym2612"
    },
    {
      "channel": 1,
      "note": 55,
      "start": 15.4935,
      "duration": 0.4357,
      "velocity": 93,
      "chip": "ym2612"
    },
    {
      "channel": 2,
      "note": 62,
      "start": 15.4936,
      "duration": 0.0464,
      "velocity": 121,
      "chip": "ym2612"
    },
    {
      "channel": 3,
      "note": 59,
      "start": 15.4937,
      "duration": 0.0463,
      "velocity": 121,
      "chip": "ym2612"
    },
    {
      "channel": 0,
      "note": 53,
      "start": 15.7112,
      "duration": 0.0309,
      "velocity": 114,
      "chip": "ym2612"
    },
    {
      "channel": 2,
      "note": 64,
      "start": 15.7114,
      "duration": 0.0464,
      "velocity": 121,
      "chip": "ym2612"
    },
    {
      "channel": 3,
      "note": 60,
      "start": 15.7115,
      "duration": 0.0463,
      "velocity": 121,
      "chip": "ym2612"
    },
    {
      "channel": 0,
      "note": 98,
      "start": 15.9291,
      "duration": 0.2179,
      "velocity": 127,
      "chip": "ym2612"
    },
    {
      "channel": 1,
      "note": 60,
      "start": 15.9292,
      "duration": 0.2179,
      "velocity": 93,
      "chip": "ym2612"
    },
    {
      "channel": 2,
      "note": 64,
      "start": 15.9293,
      "duration": 0.0463,
      "velocity": 121,
      "chip": "ym2612"
    },
    {
      "channel": 3,
      "note": 60,
      "start": 15.9295,
      "duration": 0.0463,
      "velocity": 121,
      "chip": "ym2612"
    },
    {
      "channel": 0,
      "note": 61,
      "start": 16.147,
      "duration": 0.0154,
      "velocity": 127,
      "chip": "ym2612"
    },
    {
      "channel": 1,
      "note": 55,
      "start": 16.1471,
      "duration": 0.2178,
      "velocity": 93,
      "chip": "ym2612"
    },
    {
      "channel": 2,
      "note": 64,
      "start": 16.1472,
      "duration": 0.0464,
      "velocity": 121,
      "chip": "ym2612"
    },
    {
      "channel": 3,
      "note": 60,
      "start": 16.1473,
      "duration": 0.0463,
      "velocity": 121,
      "chip": "ym2612"
    },
    {
      "channel": 0,
      "note": 76,
      "start": 16.1623,
      "duration": 0.2025,
      "velocity": 123,
      "chip": "ym2612"
    },
    {
      "channel": 0,
      "note": 66,
      "start": 16.3649,
      "duration": 0.2179,
      "velocity": 114,
      "chip": "ym2612"
    },
    {
      "channel": 1,
      "note": 60,
      "start": 16.365,
      "duration": 0.4358,
      "velocity": 93,
      "chip": "ym2612"
    },
    {
      "channel": 2,
      "note": 64,
      "start": 16.3651,
      "duration": 0.0464,
      "velocity": 121,
      "chip": "ym2612"
    },
    {
      "channel": 3,
      "note": 60,
      "start": 16.3652,
      "duration": 0.0464,
      "velocity": 121,
      "chip": "ym2612"
    },
    {
      "channel": 0,
      "note": 53,
      "start": 16.5827,
      "duration": 0.0309,
      "velocity": 114,
      "chip": "ym2612"
    },
    {
      "channel": 2,
      "note": 64,
      "start": 16.583,
      "duration": 0.0464,
      "velocity": 121,
      "chip": "ym2612"
    },
    {
      "channel": 3,
      "note": 60,
      "start": 16.5831,
      "duration": 0.0463,
      "velocity": 121,
      "chip": "ym2612"
    },
    {
      "channel": 0,
      "note": 98,
      "start": 16.8006,
      "duration": 0.2179,
      "velocity": 127,
      "chip": "ym2612"
    },
    {
      "channel": 1,
      "note": 59,
      "start": 16.8008,
      "duration": 0.2179,
      "velocity": 93,
      "chip": "ym2612"
    },
    {
      "channel": 2,
      "note": 67,
      "start": 16.8009,
      "duration": 0.0464,
      "velocity": 121,
      "chip": "ym2612"
    },
    {
      "channel": 3,
      "note": 59,
      "start": 16.801,
      "duration": 0.0464,
      "velocity": 121,
      "chip": "ym2612"
    },
    {
      "channel": 0,
      "note": 53,
      "start": 17.0185,
      "duration": 0.0154,
      "velocity": 127,
      "chip": "ym2612"
    },
    {
      "channel": 1,
      "note": 55,
      "start": 17.0187,
      "duration": 0.2179,
      "velocity": 93,
      "chip": "ym2612"
    },
    {
      "channel": 2,
      "note": 67,
      "start": 17.0188,
      "duration": 0.0464,
      "velocity": 121,
      "chip": "ym2612"
    },
    {
      "channel": 3,
      "note": 59,
      "start": 17.0189,
      "duration": 0.0464,
      "velocity": 121,
      "chip": "ym2612"
    },
    {
      "channel": 0,
      "note": 76,
      "start": 17.0339,
      "duration": 0.2025,
      "velocity": 123,
      "chip": "ym2612"
    },
    {
      "channel": 0,
      "note": 70,
      "start": 17.2364,
      "duration": 0.2179,
      "velocity": 114,
      "chip": "ym2612"
    },
    {
      "channel": 1,
      "note": 59,
      "start": 17.2366,
      "duration": 0.4357,
      "velocity": 93,
      "chip": "ym2612"
    },
    {
      "channel": 2,
      "note": 67,
      "start": 17.2367,
      "duration": 0.0463,
      "velocity": 121,
      "chip": "ym2612"
    },
    {
      "channel": 3,
      "note": 59,
      "start": 17.2368,
      "duration": 0.0463,
      "velocity": 121,
      "chip": "ym2612"
    },
    {
      "channel": 0,
      "note": 53,
      "start": 17.4543,
      "duration": 0.0309,
      "velocity": 114,
      "chip": "ym2612"
    },
    {
      "channel": 2,
      "note": 67,
      "start": 17.4545,
      "duration": 0.0463,
      "velocity": 121,
      "chip": "ym2612"
    },
    {
      "channel": 3,
      "note": 59,
      "start": 17.4546,
      "duration": 0.0463,
      "velocity": 121,
      "chip": "ym2612"
    },
    {
      "channel": 0,
      "note": 98,
      "start": 17.6722,
      "duration": 0.2179,
      "velocity": 127,
      "chip": "ym2612"
    },
    {
      "channel": 2,
      "note": 65,
      "start": 17.6724,
      "duration": 0.0464,
      "velocity": 121,
      "chip": "ym2612"
    },
    {
      "channel": 3,
      "note": 62,
      "start": 17.6725,
      "duration": 0.0464,
      "velocity": 121,
      "chip": "ym2612"
    },
    {
      "channel": 0,
      "note": 61,
      "start": 17.8901,
      "duration": 0.0153,
      "velocity": 127,
      "chip": "ym2612"
    },
    {
      "channel": 1,
      "note": 58,
      "start": 17.8902,
      "duration": 0.2179,
      "velocity": 93,
      "chip": "ym2612"
    },
    {
      "channel": 2,
      "note": 65,
      "start": 17.8905,
      "duration": 0.0462,
      "velocity": 121,
      "chip": "ym2612"
    },
    {
      "channel": 3,
      "note": 62,
      "start": 17.8905,
      "duration": 0.0462,
      "velocity": 121,
      "chip": "ym2612"
    },
    {
      "channel": 0,
      "note": 76,
      "start": 17.9054,
      "duration": 0.2025,
      "velocity": 123,
      "chip": "ym2612"
    },
    {
      "channel": 0,
      "note": 66,
      "start": 18.1079,
      "duration": 0.2179,
      "velocity": 123,
      "chip": "ym2612"
    },
    {
      "channel": 1,
      "note": 58,
      "start": 18.1081,
      "duration": 0.2179,
      "velocity": 93,
      "chip": "ym2612"
    },
    {
      "channel": 2,
      "note": 65,
      "start": 18.1082,
      "duration": 0.0464,
      "velocity": 121,
      "chip": "ym2612"
    },
    {
      "channel": 3,
      "note": 62,
      "start": 18.1083,
      "duration": 0.0464,
      "velocity": 121,
      "chip": "ym2612"
    },
    {
      "channel": 0,
      "note": 53,
      "start": 18.3258,
      "duration": 0.2179,
      "velocity": 114,
      "chip": "ym2612"
    },
    {
      "channel": 1,
      "note": 53,
      "start": 18.326,
      "duration": 0.2178,
      "velocity": 93,
      "chip": "ym2612"
    },
    {
      "channel": 2,
      "note": 65,
      "start": 18.3261,
      "duration": 0.0464,
      "velocity": 121,
      "chip": "ym2612"
    },
    {
      "channel": 3,
      "note": 62,
      "start": 18.3262,
      "duration": 0.0464,
      "velocity": 121,
      "chip": "ym2612"
    },
    {
      "channel": 0,
      "note": 53,
      "start": 18.5437,
      "duration": 0.0309,
      "velocity": 114,
      "chip": "ym2612"
    },
    {
      "channel": 2,
      "note": 65,
      "start": 18.5439,
      "duration": 0.0466,
      "velocity": 121,
      "chip": "ym2612"
    },
    {
      "channel": 3,
      "note": 62,
      "start": 18.544,
      "duration": 0.0466,
      "velocity": 121,
      "chip": "ym2612"
    },
    {
      "channel": 0,
      "note": 98,
      "start": 18.6524,
      "duration": 0.0311,
      "velocity": 114,
      "chip": "ym2612"
    },
    {
      "channel": 0,
      "note": 98,
      "start": 18.7616,
      "duration": 0.0153,
      "velocity": 127,
      "chip": "ym2612"
    },
    {
      "channel": 1,
      "note": 58,
      "start": 18.7617,
      "duration": 0.2179,
      "velocity": 93,
      "chip": "ym2612"
    },
    {
      "channel": 2,
      "note": 65,
      "start": 18.7618,
      "duration": 0.0464,
      "velocity": 121,
      "chip": "ym2612"
    },
    {
      "channel": 3,
      "note": 62,
      "start": 18.7619,
      "duration": 0.0464,
      "velocity": 121,
      "chip": "ym2612"
    },
    {
      "channel": 0,
      "note": 76,
      "start": 18.7769,
      "duration": 0.2025,
      "velocity": 123,
      "chip": "ym2612"
    },
    {
      "channel": 0,
      "note": 70,
      "start": 18.9795,
      "duration": 0.2179,
      "velocity": 114,
      "chip": "ym2612"
    },
    {
      "channel": 1,
      "note": 57,
      "start": 18.9796,
      "duration": 0.4357,
      "velocity": 93,
      "chip": "ym2612"
    },
    {
      "channel": 2,
      "note": 65,
      "start": 18.9797,
      "duration": 0.0464,
      "velocity": 121,
      "chip": "ym2612"
    },
    {
      "channel": 3,
      "note": 62,
      "start": 18.9798,
      "duration": 0.0464,
      "velocity": 121,
      "chip": "ym2612"
    },
    {
      "channel": 0,
      "note": 53,
      "start": 19.1973,
      "duration": 0.0309,
      "velocity": 114,
      "chip": "ym2612"
    },
    {
      "channel": 2,
      "note": 65,
      "start": 19.1976,
      "duration": 0.0464,
      "velocity": 121,
      "chip": "ym2612"
    },
    {
      "channel": 3,
      "note": 62,
      "start": 19.1977,
      "duration": 0.0463,
      "velocity": 121,
      "chip": "ym2612"
    },
    {
      "channel": 0,
      "note": 98,
      "start": 19.4152,
      "duration": 0.2179,
      "velocity": 127,
      "chip": "ym2612"
    },
    {
      "channel": 1,
      "note": 56,
      "start": 19.4154,
      "duration": 0.2179,
      "velocity": 93,
      "chip": "ym2612"
    },
    {
      "channel": 2,
      "note": 68,
      "start": 19.4155,
      "duration": 0.0463,
      "velocity": 121,
      "chip": "ym2612"
    },
    {
      "channel": 3,
      "note": 62,
      "start": 19.4156,
      "duration": 0.0463,
      "velocity": 121,
      "chip": "ym2612"
    },
    {
      "channel": 0,
      "note": 61,
      "start": 19.6331,
      "duration": 0.0154,
      "velocity": 127,
      "chip": "ym2612"
    },
    {
      "channel": 1,
      "note": 59,
      "start": 19.6333,
      "duration": 0.2179,
      "velocity": 93,
      "chip": "ym2612"
    },
    {
      "channel": 2,
      "note": 68,
      "start": 19.6334,
      "duration": 0.0464,
      "velocity": 121,
      "chip": "ym2612"
    },
    {
      "channel": 3,
      "note": 62,
      "start": 19.6335,
      "duration": 0.0464,
      "velocity": 121,
      "chip": "ym2612"
    },
    {
      "channel": 0,
      "note": 76,
      "start": 19.6485,
      "duration": 0.2025,
      "velocity": 123,
      "chip": "ym2612"
    },
    {
      "channel": 0,
      "note": 66,
      "start": 19.851,
      "duration": 0.2179,
      "velocity": 114,
      "chip": "ym2612"
    },
    {
      "channel": 1,
      "note": 62,
      "start": 19.8511,
      "duration": 0.4358,
      "velocity": 93,
      "chip": "ym2612"
    },
    {
      "channel": 2,
      "note": 68,
      "start": 19.8512,
      "duration": 0.0464,
      "velocity": 121,
      "chip": "ym2612"
    },
    {
      "channel": 3,
      "note": 62,
      "start": 19.8513,
      "duration": 0.0464,
      "velocity": 121,
      "chip": "ym2612"
    },
    {
      "channel": 0,
      "note": 53,
      "start": 20.0689,
      "duration": 0.0309,
      "velocity": 114,
      "chip": "ym2612"
    },
    {
      "channel": 2,
      "note": 68,
      "start": 20.0691,
      "duration": 0.0464,
      "velocity": 121,
      "chip": "ym2612"
    },
    {
      "channel": 3,
      "note": 62,
      "start": 20.0692,
      "duration": 0.0464,
      "velocity": 121,
      "chip": "ym2612"
    },
    {
      "channel": 0,
      "note": 98,
      "start": 20.2868,
      "duration": 0.2179,
      "velocity": 127,
      "chip": "ym2612"
    },
    {
      "channel": 1,
      "note": 65,
      "start": 20.2869,
      "duration": 0.2179,
      "velocity": 93,
      "chip": "ym2612"
    },
    {
      "channel": 2,
      "note": 68,
      "start": 20.287,
      "duration": 0.0464,
      "velocity": 121,
      "chip": "ym2612"
    },
    {
      "channel": 3,
      "note": 65,
      "start": 20.2871,
      "duration": 0.0464,
      "velocity": 121,
      "chip": "ym2612"
    },
    {
      "channel": 0,
      "note": 53,
      "start": 20.5047,
      "duration": 0.0153,
      "velocity": 127,
      "chip": "ym2612"
    },
    {
      "channel": 1,
      "note": 64,
      "start": 20.5048,
      "duration": 0.2179,
      "velocity": 93,
      "chip": "ym2612"
    },
    {
      "channel": 2,
      "note": 68,
      "start": 20.5049,
      "duration": 0.0463,
      "velocity": 121,
      "chip": "ym2612"
    },
    {
      "channel": 3,
      "note": 65,
      "start": 20.505,
      "duration": 0.0463,
      "velocity": 121,
      "chip": "ym2612"
    },
    {
      "channel": 0,
      "note": 76,
      "start": 20.52,
      "duration": 0.2026,
      "velocity": 127,
      "chip": "ym2612"
    },
    {
      "channel": 0,
      "note": 70,
      "start": 20.7226,
      "duration": 0.0153,
      "velocity": 127,
      "chip": "ym2612"
    },
    {
      "channel": 1,
      "note": 62,
      "start": 20.7227,
      "duration": 0.2181,
      "velocity": 93,
      "chip": "ym2612"
    },
    {
      "channel": 2,
      "note": 68,
      "start": 20.7228,
      "duration": 0.0463,
      "velocity": 121,
      "chip": "ym2612"
    },
    {
      "channel": 3,
      "note": 65,
      "start": 20.7229,
      "duration": 0.0463,
      "velocity": 121,
      "chip": "ym2612"
    },
    {
      "channel": 0,
      "note": 76,
      "start": 20.7379,
      "duration": 0.2027,
      "velocity": 123,
      "chip": "ym2612"
    },
    {
      "channel": 0,
      "note": 70,
      "start": 20.9406,
      "duration": 0.2177,
      "velocity": 99,
      "chip": "ym2612"
    },
    {
      "channel": 1,
      "note": 59,
      "start": 20.9408,
      "duration": 0.1085,
      "velocity": 93,
      "chip": "ym2612"
    },
    {
      "channel": 2,
      "note": 68,
      "start": 20.9409,
      "duration": 0.0461,
      "velocity": 121,
      "chip": "ym2612"
    },
    {
      "channel": 3,
      "note": 65,
      "start": 20.941,
      "duration": 0.0461,
      "velocity": 121,
      "chip": "ym2612"
    },
    {
      "channel": 0,
      "note": 53,
      "start": 21.1583,
      "duration": 0.2179,
      "velocity": 127,
      "chip": "ym2612"
    },
    {
      "channel": 2,
      "note": 64,
      "start": 21.1585,
      "duration": 0.0464,
      "velocity": 121,
      "chip": "ym2612"
    },
    {
      "channel": 3,
      "note": 60,
      "start": 21.1586,
      "duration": 0.0464,
      "velocity": 121,
      "chip": "ym2612"
    },
    {
      "channel": 0,
      "note": 61,
      "start": 21.3762,
      "duration": 0.0154,
      "velocity": 127,
      "chip": "ym2612"
    },
    {
      "channel": 1,
      "note": 57,
      "start": 21.3763,
      "duration": 0.2179,
      "velocity": 93,
      "chip": "ym2612"
    },
    {
      "channel": 2,
      "note": 64,
      "start": 21.3764,
      "duration": 0.0464,
      "velocity": 121,
      "chip": "ym2612"
    },
    {
      "channel": 3,
      "note": 60,
      "start": 21.3765,
      "duration": 0.0464,
      "velocity": 121,
      "chip": "ym2612"
    },
    {
      "channel": 0,
      "note": 76,
      "start": 21.3915,
      "duration": 0.2025,
      "velocity": 123,
      "chip": "ym2612"
    },
    {
      "channel": 0,
      "note": 66,
      "start": 21.5941,
      "duration": 0.2179,
      "velocity": 123,
      "chip": "ym2612"
    },
    {
      "channel": 1,
      "note": 60,
      "start": 21.5942,
      "duration": 0.2179,
      "velocity": 93,
      "chip": "ym2612"
    },
    {
      "channel": 2,
      "note": 64,
      "start": 21.5943,
      "duration": 0.0464,
      "velocity": 121,
      "chip": "ym2612"
    },
    {
      "channel": 3,
      "note": 60,
      "start": 21.5944,
      "duration": 0.0463,
      "velocity": 121,
      "chip": "ym2612"
    },
    {
      "channel": 0,
      "note": 53,
      "start": 21.812,
      "duration": 0.2179,
      "velocity": 114,
      "chip": "ym2612"
    },
    {
      "channel": 1,
      "note": 64,
      "start": 21.8121,
      "duration": 0.1087,
      "velocity": 93,
      "chip": "ym2612"
    },
    {
      "channel": 2,
      "note": 64,
      "start": 21.8122,
      "duration": 0.0464,
      "velocity": 121,
      "chip": "ym2612"
    },
    {
      "channel": 3,
      "note": 60,
      "start": 21.8123,
      "duration": 0.0463,
      "velocity": 121,
      "chip": "ym2612"
    },
    {
      "channel": 0,
      "note": 53,
      "start": 22.0298,
      "duration": 0.0309,
      "velocity": 114,
      "chip": "ym2612"
    },
    {
      "channel": 2,
      "note": 62,
      "start": 22.03,
      "duration": 0.0464,
      "velocity": 121,
      "chip": "ym2612"
    },
    {
      "channel": 3,
      "note": 59,
      "start": 22.0301,
      "duration": 0.0464,
      "velocity": 121,
      "chip": "ym2612"
    },
    {
      "channel": 0,
      "note": 98,
      "start": 22.1386,
      "duration": 0.0311,
      "velocity": 114,
      "chip": "ym2612"
    },
    {
      "channel": 0,
      "note": 98,
      "start": 22.2477,
      "duration": 0.0153,
      "velocity": 127,
      "chip": "ym2612"
    },
    {
      "channel": 1,
      "note": 59,
      "start": 22.2479,
      "duration": 0.2179,
      "velocity": 93,
      "chip": "ym2612"
    },
    {
      "channel": 2,
      "note": 62,
      "start": 22.248,
      "duration": 0.0464,
      "velocity": 121,
      "chip": "ym2612"
    },
    {
      "channel": 3,
      "note": 59,
      "start": 22.2481,
      "duration": 0.0463,
      "velocity": 121,
      "chip": "ym2612"
    },
    {
      "channel": 0,
      "note": 76,
      "start": 22.2631,
      "duration": 0.2025,
      "velocity": 123,
      "chip": "ym2612"
    },
    {
      "channel": 0,
      "note": 70,
      "start": 22.4656,
      "duration": 0.2178,
      "velocity": 114,
      "chip": "ym2612"
    },
    {
      "channel": 1,
      "note": 55,
      "start": 22.4658,
      "duration": 0.4357,
      "velocity": 93,
      "chip": "ym2612"
    },
    {
      "channel": 2,
      "note": 62,
      "start": 22.4659,
      "duration": 0.0464,
      "velocity": 121,
      "chip": "ym2612"
    },
    {
      "channel": 3,
      "note": 59,
      "start": 22.466,
      "duration": 0.0463,
      "velocity": 121,
      "chip": "ym2612"
    },
    {
      "channel": 0,
      "note": 53,
      "start": 22.6835,
      "duration": 0.0309,
      "velocity": 114,
      "chip": "ym2612"
    },
    {
      "channel": 2,
      "note": 64,
      "start": 22.6837,
      "duration": 0.0464,
      "velocity": 121,
      "chip": "ym2612"
    },
    {
      "channel": 3,
      "note": 60,
      "start": 22.6838,
      "duration": 0.0463,
      "velocity": 121,
      "chip": "ym2612"
    },
    {
      "channel": 0,
      "note": 98,
      "start": 22.9014,
      "duration": 0.2179,
      "velocity": 127,
      "chip": "ym2612"
    },
    {
      "channel": 1,
      "note": 60,
      "start": 22.9015,
      "duration": 0.2179,
      "velocity": 93,
      "chip": "ym2612"
    },
    {
      "channel": 2,
      "note": 64,
      "start": 22.9016,
      "duration": 0.0463,
      "velocity": 121,
      "chip": "ym2612"
    },
    {
      "channel": 3,
      "note": 60,
      "start": 22.9017,
      "duration": 0.0463,
      "velocity": 121,
      "chip": "ym2612"
    },
    {
      "channel": 0,
      "note": 61,
      "start": 23.1193,
      "duration": 0.0154,
      "velocity": 127,
      "chip": "ym2612"
    },
    {
      "channel": 1,
      "note": 55,
      "start": 23.1194,
      "duration": 0.2178,
      "velocity": 93,
      "chip": "ym2612"
    },
    {
      "channel": 2,
      "note": 64,
      "start": 23.1195,
      "duration": 0.0464,
      "velocity": 121,
      "chip": "ym2612"
    },
    {
      "channel": 3,
      "note": 60,
      "start": 23.1196,
      "duration": 0.0463,
      "velocity": 121,
      "chip": "ym2612"
    },
    {
      "channel": 0,
      "note": 76,
      "start": 23.1346,
      "duration": 0.2025,
      "velocity": 123,
      "chip": "ym2612"
    },
    {
      "channel": 0,
      "note": 66,
      "start": 23.3371,
      "duration": 0.2179,
      "velocity": 114,
      "chip": "ym2612"
    },
    {
      "channel": 1,
      "note": 60,
      "start": 23.3373,
      "duration": 0.4358,
      "velocity": 93,
      "chip": "ym2612"
    },
    {
      "channel": 2,
      "note": 64,
      "start": 23.3374,
      "duration": 0.0464,
      "velocity": 121,
      "chip": "ym2612"
    },
    {
      "channel": 3,
      "note": 60,
      "start": 23.3375,
      "duration": 0.0464,
      "velocity": 121,
      "chip": "ym2612"
    },
    {
      "channel": 0,
      "note": 53,
      "start": 23.555,
      "duration": 0.0309,
      "velocity": 114,
      "chip": "ym2612"
    },
    {
      "channel": 2,
      "note": 64,
      "start": 23.5552,
      "duration": 0.0464,
      "velocity": 121,
      "chip": "ym2612"
    },
    {
      "channel": 3,
      "note": 60,
      "start": 23.5554,
      "duration": 0.0463,
      "velocity": 121,
      "chip": "ym2612"
    },
    {
      "channel": 0,
      "note": 98,
      "start": 23.7729,
      "duration": 0.2179,
      "velocity": 127,
      "chip": "ym2612"
    },
    {
      "channel": 1,
      "note": 59,
      "start": 23.773,
      "duration": 0.2179,
      "velocity": 93,
      "chip": "ym2612"
    },
    {
      "channel": 2,
      "note": 67,
      "start": 23.7732,
      "duration": 0.0464,
      "velocity": 121,
      "chip": "ym2612"
    },
    {
      "channel": 3,
      "note": 59,
      "start": 23.7732,
      "duration": 0.0464,
      "velocity": 121,
      "chip": "ym2612"
    },
    {
      "channel": 0,
      "note": 53,
      "start": 23.9908,
      "duration": 0.0154,
      "velocity": 127,
      "chip": "ym2612"
    },
    {
      "channel": 1,
      "note": 55,
      "start": 23.9909,
      "duration": 0.2179,
      "velocity": 93,
      "chip": "ym2612"
    },
    {
      "channel": 2,
      "note": 67,
      "start": 23.991,
      "duration": 0.0464,
      "velocity": 121,
      "chip": "ym2612"
    },
    {
      "channel": 3,
      "note": 59,
      "start": 23.9911,
      "duration": 0.0464,
      "velocity": 121,
      "chip": "ym2612"
    },
    {
      "channel": 0,
      "note": 76,
      "start": 24.0061,
      "duration": 0.2025,
      "velocity": 123,
      "chip": "ym2612"
    },
    {
      "channel": 0,
      "note": 70,
      "start": 24.2087,
      "duration": 0.2179,
      "velocity": 114,
      "chip": "ym2612"
    },
    {
      "channel": 1,
      "note": 59,
      "start": 24.2088,
      "duration": 0.4357,
      "velocity": 93,
      "chip": "ym2612"
    },
    {
      "channel": 2,
      "note": 67,
      "start": 24.2089,
      "duration": 0.0463,
      "velocity": 121,
      "chip": "ym2612"
    },
    {
      "channel": 3,
      "note": 59,
      "start": 24.209,
      "duration": 0.0463,
      "velocity": 121,
      "chip": "ym2612"
    },
    {
      "channel": 0,
      "note": 53,
      "start": 24.4266,
      "duration": 0.0309,
      "velocity": 114,
      "chip": "ym2612"
    },
    {
      "channel": 2,
      "note": 67,
      "start": 24.4268,
      "duration": 0.0463,
      "velocity": 121,
      "chip": "ym2612"
    },
    {
      "channel": 3,
      "note": 59,
      "start": 24.4269,
      "duration": 0.0463,
      "velocity": 121,
      "chip": "ym2612"
    },
    {
      "channel": 0,
      "note": 98,
      "start": 24.6444,
      "duration": 0.2179,
      "velocity": 127,
      "chip": "ym2612"
    },
    {
      "channel": 2,
      "note": 65,
      "start": 24.6446,
      "duration": 0.0464,
      "velocity": 121,
      "chip": "ym2612"
    },
    {
      "channel": 3,
      "note": 62,
      "start": 24.6447,
      "duration": 0.0464,
      "velocity": 121,
      "chip": "ym2612"
    },
    {
      "channel": 0,
      "note": 61,
      "start": 24.8623,
      "duration": 0.0153,
      "velocity": 127,
      "chip": "ym2612"
    },
    {
      "channel": 1,
      "note": 58,
      "start": 24.8624,
      "duration": 0.2179,
      "velocity": 93,
      "chip": "ym2612"
    },
    {
      "channel": 2,
      "note": 65,
      "start": 24.8625,
      "duration": 0.0464,
      "velocity": 121,
      "chip": "ym2612"
    },
    {
      "channel": 3,
      "note": 62,
      "start": 24.8627,
      "duration": 0.0464,
      "velocity": 121,
      "chip": "ym2612"
    },
    {
      "channel": 0,
      "note": 76,
      "start": 24.8777,
      "duration": 0.2025,
      "velocity": 123,
      "chip": "ym2612"
    },
    {
      "channel": 0,
      "note": 66,
      "start": 25.0802,
      "duration": 0.2179,
      "velocity": 123,
      "chip": "ym2612"
    },
    {
      "channel": 1,
      "note": 58,
      "start": 25.0803,
      "duration": 0.2179,
      "velocity": 93,
      "chip": "ym2612"
    },
    {
      "channel": 2,
      "note": 65,
      "start": 25.0805,
      "duration": 0.0464,
      "velocity": 121,
      "chip": "ym2612"
    },
    {
      "channel": 3,
      "note": 62,
      "start": 25.0805,
      "duration": 0.0464,
      "velocity": 121,
      "chip": "ym2612"
    },
    {
      "channel": 0,
      "note": 53,
      "start": 25.2981,
      "duration": 0.2179,
      "velocity": 114,
      "chip": "ym2612"
    },
    {
      "channel": 1,
      "note": 53,
      "start": 25.2982,
      "duration": 0.2179,
      "velocity": 93,
      "chip": "ym2612"
    },
    {
      "channel": 2,
      "note": 65,
      "start": 25.2983,
      "duration": 0.0464,
      "velocity": 121,
      "chip": "ym2612"
    },
    {
      "channel": 3,
      "note": 62,
      "start": 25.2984,
      "duration": 0.0464,
      "velocity": 121,
      "chip": "ym2612"
    },
    {
      "channel": 0,
      "note": 53,
      "start": 25.516,
      "duration": 0.0309,
      "velocity": 114,
      "chip": "ym2612"
    },
    {
      "channel": 2,
      "note": 65,
      "start": 25.5162,
      "duration": 0.0464,
      "velocity": 121,
      "chip": "ym2612"
    },
    {
      "channel": 3,
      "note": 62,
      "start": 25.5163,
      "duration": 0.0464,
      "velocity": 121,
      "chip": "ym2612"
    },
    {
      "channel": 0,
      "note": 98,
      "start": 25.6247,
      "duration": 0.0311,
      "velocity": 114,
      "chip": "ym2612"
    },
    {
      "channel": 0,
      "note": 98,
      "start": 25.7339,
      "duration": 0.0153,
      "velocity": 127,
      "chip": "ym2612"
    },
    {
      "channel": 1,
      "note": 58,
      "start": 25.734,
      "duration": 0.2179,
      "velocity": 93,
      "chip": "ym2612"
    },
    {
      "channel": 2,
      "note": 65,
      "start": 25.7341,
      "duration": 0.0464,
      "velocity": 121,
      "chip": "ym2612"
    },
    {
      "channel": 3,
      "note": 62,
      "start": 25.7342,
      "duration": 0.0464,
      "velocity": 121,
      "chip": "ym2612"
    },
    {
      "channel": 0,
      "note": 76,
      "start": 25.7492,
      "duration": 0.2025,
      "velocity": 123,
      "chip": "ym2612"
    },
    {
      "channel": 0,
      "note": 70,
      "start": 25.9517,
      "duration": 0.2179,
      "velocity": 114,
      "chip": "ym2612"
    },
    {
      "channel": 1,
      "note": 57,
      "start": 25.9519,
      "duration": 0.4357,
      "velocity": 93,
      "chip": "ym2612"
    },
    {
      "channel": 2,
      "note": 65,
      "start": 25.952,
      "duration": 0.0464,
      "velocity": 121,
      "chip": "ym2612"
    },
    {
      "channel": 3,
      "note": 62,
      "start": 25.9521,
      "duration": 0.0464,
      "velocity": 121,
      "chip": "ym2612"
    },
    {
      "channel": 0,
      "note": 53,
      "start": 26.1696,
      "duration": 0.0309,
      "velocity": 114,
      "chip": "ym2612"
    },
    {
      "channel": 2,
      "note": 65,
      "start": 26.1698,
      "duration": 0.0464,
      "velocity": 121,
      "chip": "ym2612"
    },
    {
      "channel": 3,
      "note": 62,
      "start": 26.17,
      "duration": 0.0463,
      "velocity": 121,
      "chip": "ym2612"
    },
    {
      "channel": 0,
      "note": 98,
      "start": 26.3875,
      "duration": 0.2179,
      "velocity": 127,
      "chip": "ym2612"
    },
    {
      "channel": 1,
      "note": 56,
      "start": 26.3876,
      "duration": 0.2179,
      "velocity": 93,
      "chip": "ym2612"
    },
    {
      "channel": 2,
      "note": 68,
      "start": 26.3878,
      "duration": 0.0463,
      "velocity": 121,
      "chip": "ym2612"
    },
    {
      "channel": 3,
      "note": 62,
      "start": 26.3878,
      "duration": 0.0463,
      "velocity": 121,
      "chip": "ym2612"
    },
    {
      "channel": 0,
      "note": 61,
      "start": 26.6054,
      "duration": 0.0153,
      "velocity": 127,
      "chip": "ym2612"
    },
    {
      "channel": 1,
      "note": 59,
      "start": 26.6055,
      "duration": 0.2179,
      "velocity": 93,
      "chip": "ym2612"
    },
    {
      "channel": 2,
      "note": 68,
      "start": 26.6056,
      "duration": 0.0463,
      "velocity": 121,
      "chip": "ym2612"
    },
    {
      "channel": 3,
      "note": 62,
      "start": 26.6057,
      "duration": 0.0464,
      "velocity": 121,
      "chip": "ym2612"
    },
    {
      "channel": 0,
      "note": 76,
      "start": 26.6207,
      "duration": 0.2025,
      "velocity": 123,
      "chip": "ym2612"
    },
    {
      "channel": 0,
      "note": 66,
      "start": 26.8233,
      "duration": 0.2179,
      "velocity": 114,
      "chip": "ym2612"
    },
    {
      "channel": 1,
      "note": 62,
      "start": 26.8234,
      "duration": 0.4358,
      "velocity": 93,
      "chip": "ym2612"
    },
    {
      "channel": 2,
      "note": 68,
      "start": 26.8235,
      "duration": 0.0464,
      "velocity": 121,
      "chip": "ym2612"
    },
    {
      "channel": 3,
      "note": 62,
      "start": 26.8238,
      "duration": 0.0462,
      "velocity": 121,
      "chip": "ym2612"
    },
    {
      "channel": 0,
      "note": 53,
      "start": 27.0412,
      "duration": 0.0309,
      "velocity": 114,
      "chip": "ym2612"
    },
    {
      "channel": 2,
      "note": 68,
      "start": 27.0414,
      "duration": 0.0464,
      "velocity": 121,
      "chip": "ym2612"
    },
    {
      "channel": 3,
      "note": 62,
      "start": 27.0415,
      "duration": 0.0464,
      "velocity": 121,
      "chip": "ym2612"
    },
    {
      "channel": 0,
      "note": 98,
      "start": 27.259,
      "duration": 0.2179,
      "velocity": 127,
      "chip": "ym2612"
    },
    {
      "channel": 1,
      "note": 65,
      "start": 27.2592,
      "duration": 0.2179,
      "velocity": 93,
      "chip": "ym2612"
    },
    {
      "channel": 2,
      "note": 68,
      "start": 27.2593,
      "duration": 0.0464,
      "velocity": 121,
      "chip": "ym2612"
    },
    {
      "channel": 3,
      "note": 65,
      "start": 27.2594,
      "duration": 0.0463,
      "velocity": 121,
      "chip": "ym2612"
    },
    {
      "channel": 0,
      "note": 53,
      "start": 27.4769,
      "duration": 0.0153,
      "velocity": 127,
      "chip": "ym2612"
    },
    {
      "channel": 1,
      "note": 64,
      "start": 27.4771,
      "duration": 0.2179,
      "velocity": 93,
      "chip": "ym2612"
    },
    {
      "channel": 2,
      "note": 68,
      "start": 27.4772,
      "duration": 0.0464,
      "velocity": 121,
      "chip": "ym2612"
    },
    {
      "channel": 3,
      "note": 65,
      "start": 27.4773,
      "duration": 0.0465,
      "velocity": 121,
      "chip": "ym2612"
    },
    {
      "channel": 0,
      "note": 76,
      "start": 27.4923,
      "duration": 0.2025,
      "velocity": 127,
      "chip": "ym2612"
    },
    {
      "channel": 0,
      "note": 70,
      "start": 27.6948,
      "duration": 0.0153,
      "velocity": 127,
      "chip": "ym2612"
    },
    {
      "channel": 1,
      "note": 62,
      "start": 27.695,
      "duration": 0.2179,
      "velocity": 93,
      "chip": "ym2612"
    },
    {
      "channel": 2,
      "note": 68,
      "start": 27.6951,
      "duration": 0.0463,
      "velocity": 121,
      "chip": "ym2612"
    },
    {
      "channel": 3,
      "note": 65,
      "start": 27.6952,
      "duration": 0.0463,
      "velocity": 121,
      "chip": "ym2612"
    },
    {
      "channel": 0,
      "note": 76,
      "start": 27.7102,
      "duration": 0.2025,
      "velocity": 123,
      "chip": "ym2612"
    },
    {
      "channel": 0,
      "note": 70,
      "start": 27.9127,
      "duration": 0.2178,
      "velocity": 99,
      "chip": "ym2612"
    },
    {
      "channel": 1,
      "note": 59,
      "start": 27.9129,
      "duration": 0.1086,
      "velocity": 93,
      "chip": "ym2612"
    },
    {
      "channel": 2,
      "note": 68,
      "start": 27.913,
      "duration": 0.0463,
      "velocity": 121,
      "chip": "ym2612"
    },
    {
      "channel": 3,
      "note": 65,
      "start": 27.9131,
      "duration": 0.0463,
      "velocity": 121,
      "chip": "ym2612"
    },
    {
      "channel": 4,
      "note": -1,
      "start": 27.9133,
      "duration": 0.4356,
      "velocity": 96,
      "chip": "ym2612"
    },
    {
      "channel": 5,
      "note": -1,
      "start": 27.9751,
      "duration": 0.4358,
      "velocity": 96,
      "chip": "ym2612"
    },
    {
      "channel": 0,
      "note": 53,
      "start": 28.1306,
      "duration": 0.2179,
      "velocity": 127,
      "chip": "ym2612"
    },
    {
      "channel": 2,
      "note": 64,
      "start": 28.1308,
      "duration": 0.0464,
      "velocity": 121,
      "chip": "ym2612"
    },
    {
      "channel": 3,
      "note": 60,
      "start": 28.1309,
      "duration": 0.0464,
      "velocity": 121,
      "chip": "ym2612"
    },
    {
      "channel": 0,
      "note": 61,
      "start": 28.3485,
      "duration": 0.0154,
      "velocity": 127,
      "chip": "ym2612"
    },
    {
      "channel": 1,
      "note": 57,
      "start": 28.3486,
      "duration": 0.2179,
      "velocity": 93,
      "chip": "ym2612"
    },
    {
      "channel": 2,
      "note": 64,
      "start": 28.3487,
      "duration": 0.0464,
      "velocity": 121,
      "chip": "ym2612"
    },
    {
      "channel": 3,
      "note": 60,
      "start": 28.3488,
      "duration": 0.0464,
      "velocity": 121,
      "chip": "ym2612"
    },
    {
      "channel": 4,
      "note": 96,
      "start": 28.3489,
      "duration": 0.3109,
      "velocity": 96,
      "chip": "ym2612"
    },
    {
      "channel": 0,
      "note": 76,
      "start": 28.3638,
      "duration": 0.2025,
      "velocity": 123,
      "chip": "ym2612"
    },
    {
      "channel": 5,
      "note": 96,
      "start": 28.4109,
      "duration": 0.3113,
      "velocity": 96,
      "chip": "ym2612"
    },
    {
      "channel": 0,
      "note": 66,
      "start": 28.5663,
      "duration": 0.2179,
      "velocity": 123,
      "chip": "ym2612"
    },
    {
      "channel": 1,
      "note": 60,
      "start": 28.5665,
      "duration": 0.2179,
      "velocity": 93,
      "chip": "ym2612"
    },
    {
      "channel": 2,
      "note": 64,
      "start": 28.5666,
      "duration": 0.0464,
      "velocity": 121,
      "chip": "ym2612"
    },
    {
      "channel": 3,
      "note": 60,
      "start": 28.5667,
      "duration": 0.0463,
      "velocity": 121,
      "chip": "ym2612"
    },
    {
      "channel": 4,
      "note": 95,
      "start": 28.6598,
      "duration": 0.0622,
      "velocity": 96,
      "chip": "ym2612"
    },
    {
      "channel": 4,
      "note": 96,
      "start": 28.722,
      "duration": 0.0627,
      "velocity": 96,
      "chip": "ym2612"
    },
    {
      "channel": 5,
      "note": 95,
      "start": 28.7222,
      "duration": 0.0627,
      "velocity": 96,
      "chip": "ym2612"
    },
    {
      "channel": 0,
      "note": 53,
      "start": 28.7842,
      "duration": 0.2179,
      "velocity": 114,
      "chip": "ym2612"
    },
    {
      "channel": 1,
      "note": 64,
      "start": 28.7844,
      "duration": 0.1087,
      "velocity": 93,
      "chip": "ym2612"
    },
    {
      "channel": 2,
      "note": 64,
      "start": 28.7845,
      "duration": 0.0464,
      "velocity": 121,
      "chip": "ym2612"
    },
    {
      "channel": 3,
      "note": 60,
      "start": 28.7846,
      "duration": 0.0463,
      "velocity": 121,
      "chip": "ym2612"
    },
    {
      "channel": 4,
      "note": 95,
      "start": 28.7847,
      "duration": 1.0895,
      "velocity": 96,
      "chip": "ym2612"
    },
    {
      "channel": 5,
      "note": 96,
      "start": 28.7849,
      "duration": 0.0618,
      "velocity": 96,
      "chip": "ym2612"
    },
    {
      "channel": 5,
      "note": 95,
      "start": 28.8466,
      "duration": 1.0894,
      "velocity": 96,
      "chip": "ym2612"
    },
    {
      "channel": 0,
      "note": 53,
      "start": 29.0021,
      "duration": 0.0309,
      "velocity": 114,
      "chip": "ym2612"
    },
    {
      "channel": 2,
      "note": 62,
      "start": 29.0023,
      "duration": 0.0464,
      "velocity": 121,
      "chip": "ym2612"
    },
    {
      "channel": 3,
      "note": 59,
      "start": 29.0024,
      "duration": 0.0464,
      "velocity": 121,
      "chip": "ym2612"
    },
    {
      "channel": 0,
      "note": 98,
      "start": 29.1108,
      "duration": 0.0311,
      "velocity": 114,
      "chip": "ym2612"
    },
    {
      "channel": 0,
      "note": 98,
      "start": 29.22,
      "duration": 0.0153,
      "velocity": 127,
      "chip": "ym2612"
    },
    {
      "channel": 1,
      "note": 59,
      "start": 29.2201,
      "duration": 0.2179,
      "velocity": 93,
      "chip": "ym2612"
    },
    {
      "channel": 2,
      "note": 62,
      "start": 29.2202,
      "duration": 0.0464,
      "velocity": 121,
      "chip": "ym2612"
    },
    {
      "channel": 3,
      "note": 59,
      "start": 29.2203,
      "duration": 0.0463,
      "velocity": 121,
      "chip": "ym2612"
    },
    {
      "channel": 0,
      "note": 76,
      "start": 29.2354,
      "duration": 0.2025,
      "velocity": 123,
      "chip": "ym2612"
    },
    {
      "channel": 0,
      "note": 70,
      "start": 29.4379,
      "duration": 0.2179,
      "velocity": 114,
      "chip": "ym2612"
    },
    {
      "channel": 1,
      "note": 55,
      "start": 29.438,
      "duration": 0.4359,
      "velocity": 93,
      "chip": "ym2612"
    },
    {
      "channel": 2,
      "note": 62,
      "start": 29.4381,
      "duration": 0.0464,
      "velocity": 121,
      "chip": "ym2612"
    },
    {
      "channel": 3,
      "note": 59,
      "start": 29.4383,
      "duration": 0.0463,
      "velocity": 121,
      "chip": "ym2612"
    },
    {
      "channel": 0,
      "note": 53,
      "start": 29.6558,
      "duration": 0.0309,
      "velocity": 114,
      "chip": "ym2612"
    },
    {
      "channel": 2,
      "note": 64,
      "start": 29.656,
      "duration": 0.0464,
      "velocity": 121,
      "chip": "ym2612"
    },
    {
      "channel": 3,
      "note": 60,
      "start": 29.6561,
      "duration": 0.0464,
      "velocity": 121,
      "chip": "ym2612"
    },
    {
      "channel": 0,
      "note": 98,
      "start": 29.8738,
      "duration": 0.2177,
      "velocity": 127,
      "chip": "ym2612"
    },
    {
      "channel": 1,
      "note": 60,
      "start": 29.8739,
      "duration": 0.2177,
      "velocity": 93,
      "chip": "ym2612"
    },
    {
      "channel": 2,
      "note": 64,
      "start": 29.8741,
      "duration": 0.0462,
      "velocity": 121,
      "chip": "ym2612"
    },
    {
      "channel": 3,
      "note": 60,
      "start": 29.8741,
      "duration": 0.0462,
      "velocity": 121,
      "chip": "ym2612"
    },
    {
      "channel": 4,
      "note": 93,
      "start": 29.8743,
      "duration": 0.2177,
      "velocity": 96,
      "chip": "ym2612"
    },
    {
      "channel": 5,
      "note": 93,
      "start": 29.936,
      "duration": 0.2179,
      "velocity": 96,
      "chip": "ym2612"
    },
    {
      "channel": 0,
      "note": 61,
      "start": 30.0915,
      "duration": 0.0154,
      "velocity": 127,
      "chip": "ym2612"
    },
    {
      "channel": 1,
      "note": 55,
      "start": 30.0917,
      "duration": 0.2178,
      "velocity": 93,
      "chip": "ym2612"
    },
    {
      "channel": 2,
      "note": 64,
      "start": 30.0918,
      "duration": 0.0464,
      "velocity": 121,
      "chip": "ym2612"
    },
    {
      "channel": 3,
      "note": 60,
      "start": 30.0919,
      "duration": 0.0463,
      "velocity": 121,
      "chip": "ym2612"
    },
    {
      "channel": 4,
      "note": 93,
      "start": 30.092,
      "duration": 0.0774,
      "velocity": 96,
      "chip": "ym2612"
    },
    {
      "channel": 0,
      "note": 76,
      "start": 30.1069,
      "duration": 0.2025,
      "velocity": 123,
      "chip": "ym2612"
    },
    {
      "channel": 5,
      "note": 93,
      "start": 30.1539,
      "duration": 0.0779,
      "velocity": 96,
      "chip": "ym2612"
    },
    {
      "channel": 4,
      "note": 91,
      "start": 30.1694,
      "duration": 0.0622,
      "velocity": 96,
      "chip": "ym2612"
    },
    {
      "channel": 4,
      "note": 93,
      "start": 30.2317,
      "duration": 0.0782,
      "velocity": 96,
      "chip": "ym2612"
    },
    {
      "channel": 5,
      "note": 91,
      "start": 30.2318,
      "duration": 0.0622,
      "velocity": 96,
      "chip": "ym2612"
    },
    {
      "channel": 5,
      "note": 93,
      "start": 30.294,
      "duration": 0.0778,
      "velocity": 96,
      "chip": "ym2612"
    },
    {
      "channel": 0,
      "note": 66,
      "start": 30.3094,
      "duration": 0.2179,
      "velocity": 114,
      "chip": "ym2612"
    },
    {
      "channel": 1,
      "note": 60,
      "start": 30.3095,
      "duration": 0.4358,
      "velocity": 93,
      "chip": "ym2612"
    },
    {
      "channel": 2,
      "note": 64,
      "start": 30.3096,
      "duration": 0.0464,
      "velocity": 121,
      "chip": "ym2612"
    },
    {
      "channel": 3,
      "note": 60,
      "start": 30.3098,
      "duration": 0.0464,
      "velocity": 121,
      "chip": "ym2612"
    },
    {
      "channel": 4,
      "note": 91,
      "start": 30.3099,
      "duration": 0.2179,
      "velocity": 96,
      "chip": "ym2612"
    },
    {
      "channel": 5,
      "note": 91,
      "start": 30.3718,
      "duration": 0.2178,
      "velocity": 96,
      "chip": "ym2612"
    },
    {
      "channel": 0,
      "note": 53,
      "start": 30.5273,
      "duration": 0.0309,
      "velocity": 114,
      "chip": "ym2612"
    },
    {
      "channel": 2,
      "note": 64,
      "start": 30.5275,
      "duration": 0.0465,
      "velocity": 121,
      "chip": "ym2612"
    },
    {
      "channel": 3,
      "note": 60,
      "start": 30.5276,
      "duration": 0.0464,
      "velocity": 121,
      "chip": "ym2612"
    },
    {
      "channel": 4,
      "note": 88,
      "start": 30.5278,
      "duration": 0.2179,
      "velocity": 96,
      "chip": "ym2612"
    },
    {
      "channel": 5,
      "note": 88,
      "start": 30.5897,
      "duration": 0.2179,
      "velocity": 96,
      "chip": "ym2612"
    },
    {
      "channel": 0,
      "note": 98,
      "start": 30.7452,
      "duration": 0.2179,
      "velocity": 127,
      "chip": "ym2612"
    },
    {
      "channel": 1,
      "note": 59,
      "start": 30.7453,
      "duration": 0.2179,
      "velocity": 93,
      "chip": "ym2612"
    },
    {
      "channel": 2,
      "note": 67,
      "start": 30.7454,
      "duration": 0.0464,
      "velocity": 121,
      "chip": "ym2612"
    },
    {
      "channel": 3,
      "note": 59,
      "start": 30.7455,
      "duration": 0.0464,
      "velocity": 121,
      "chip": "ym2612"
    },
    {
      "channel": 4,
      "note": 91,
      "start": 30.7456,
      "duration": 0.2179,
      "velocity": 96,
      "chip": "ym2612"
    },
    {
      "channel": 5,
      "note": 91,
      "start": 30.8076,
      "duration": 0.2179,
      "velocity": 96,
      "chip": "ym2612"
    },
    {
      "channel": 0,
      "note": 53,
      "start": 30.9631,
      "duration": 0.0154,
      "velocity": 127,
      "chip": "ym2612"
    },
    {
      "channel": 1,
      "note": 55,
      "start": 30.9632,
      "duration": 0.2179,
      "velocity": 93,
      "chip": "ym2612"
    },
    {
      "channel": 2,
      "note": 67,
      "start": 30.9633,
      "duration": 0.0464,
      "velocity": 121,
      "chip": "ym2612"
    },
    {
      "channel": 3,
      "note": 59,
      "start": 30.9634,
      "duration": 0.0464,
      "velocity": 121,
      "chip": "ym2612"
    },
    {
      "channel": 4,
      "note": 88,
      "start": 30.9635,
      "duration": 0.2179,
      "velocity": 96,
      "chip": "ym2612"
    },
    {
      "channel": 0,
      "note": 76,
      "start": 30.9784,
      "duration": 0.2025,
      "velocity": 123,
      "chip": "ym2612"
    },
    {
      "channel": 5,
      "note": 88,
      "start": 31.0255,
      "duration": 0.2179,
      "velocity": 96,
      "chip": "ym2612"
    },
    {
      "channel": 0,
      "note": 70,
      "start": 31.181,
      "duration": 0.2179,
      "velocity": 114,
      "chip": "ym2612"
    },
    {
      "channel": 1,
      "note": 59,
      "start": 31.1811,
      "duration": 0.4357,
      "velocity": 93,
      "chip": "ym2612"
    },
    {
      "channel": 2,
      "note": 67,
      "start": 31.1812,
      "duration": 0.0463,
      "velocity": 121,
      "chip": "ym2612"
    },
    {
      "channel": 3,
      "note": 59,
      "start": 31.1813,
      "duration": 0.0463,
      "velocity": 121,
      "chip": "ym2612"
    },
    {
      "channel": 4,
      "note": 86,
      "start": 31.1814,
      "duration": 0.2179,
      "velocity": 96,
      "chip": "ym2612"
    },
    {
      "channel": 5,
      "note": 86,
      "start": 31.2434,
      "duration": 0.2178,
      "velocity": 96,
      "chip": "ym2612"
    },
    {
      "channel": 0,
      "note": 53,
      "start": 31.3988,
      "duration": 0.0309,
      "velocity": 114,
      "chip": "ym2612"
    },
    {
      "channel": 2,
      "note": 67,
      "start": 31.3991,
      "duration": 0.0463,
      "velocity": 121,
      "chip": "ym2612"
    },
    {
      "channel": 3,
      "note": 59,
      "start": 31.3992,
      "duration": 0.0463,
      "velocity": 121,
      "chip": "ym2612"
    },
    {
      "channel": 4,
      "note": 88,
      "start": 31.3993,
      "duration": 0.4357,
      "velocity": 96,
      "chip": "ym2612"
    },
    {
      "channel": 5,
      "note": 88,
      "start": 31.4612,
      "duration": 0.4358,
      "velocity": 96,
      "chip": "ym2612"
    },
    {
      "channel": 0,
      "note": 98,
      "start": 31.6167,
      "duration": 0.2179,
      "velocity": 127,
      "chip": "ym2612"
    },
    {
      "channel": 2,
      "note": 65,
      "start": 31.6169,
      "duration": 0.0464,
      "velocity": 121,
      "chip": "ym2612"
    },
    {
      "channel": 3,
      "note": 62,
      "start": 31.617,
      "duration": 0.0464,
      "velocity": 121,
      "chip": "ym2612"
    },
    {
      "channel": 0,
      "note": 61,
      "start": 31.8346,
      "duration": 0.0153,
      "velocity": 127,
      "chip": "ym2612"
    },
    {
      "channel": 1,
      "note": 58,
      "start": 31.8347,
      "duration": 0.2179,
      "velocity": 93,
      "chip": "ym2612"
    },
    {
      "channel": 2,
      "note": 65,
      "start": 31.8348,
      "duration": 0.0464,
      "velocity": 121,
      "chip": "ym2612"
    },
    {
      "channel": 3,
      "note": 62,
      "start": 31.8349,
      "duration": 0.0464,
      "velocity": 121,
      "chip": "ym2612"
    },
    {
      "channel": 4,
      "note": 86,
      "start": 31.835,
      "duration": 0.2179,
      "velocity": 96,
      "chip": "ym2612"
    },
    {
      "channel": 0,
      "note": 76,
      "start": 31.85,
      "duration": 0.2025,
      "velocity": 123,
      "chip": "ym2612"
    },
    {
      "channel": 5,
      "note": 86,
      "start": 31.897,
      "duration": 0.2179,
      "velocity": 96,
      "chip": "ym2612"
    },
    {
      "channel": 0,
      "note": 66,
      "start": 32.0525,
      "duration": 0.2179,
      "velocity": 123,
      "chip": "ym2612"
    },
    {
      "channel": 1,
      "note": 58,
      "start": 32.0526,
      "duration": 0.2179,
      "velocity": 93,
      "chip": "ym2612"
    },
    {
      "channel": 2,
      "note": 65,
      "start": 32.0527,
      "duration": 0.0464,
      "velocity": 121,
      "chip": "ym2612"
    },
    {
      "channel": 3,
      "note": 62,
      "start": 32.0528,
      "duration": 0.0464,
      "velocity": 121,
      "chip": "ym2612"
    },
    {
      "channel": 4,
      "note": 88,
      "start": 32.0529,
      "duration": 1.0894,
      "velocity": 96,
      "chip": "ym2612"
    },
    {
      "channel": 5,
      "note": 88,
      "start": 32.1149,
      "duration": 1.0894,
      "velocity": 96,
      "chip": "ym2612"
    },
    {
      "channel": 0,
      "note": 53,
      "start": 32.2703,
      "duration": 0.2179,
      "velocity": 114,
      "chip": "ym2612"
    },
    {
      "channel": 1,
      "note": 53,
      "start": 32.2705,
      "duration": 0.2179,
      "velocity": 93,
      "chip": "ym2612"
    },
    {
      "channel": 2,
      "note": 65,
      "start": 32.2706,
      "duration": 0.0464,
      "velocity": 121,
      "chip": "ym2612"
    },
    {
      "channel": 3,
      "note": 62,
      "start": 32.2707,
      "duration": 0.0464,
      "velocity": 121,
      "chip": "ym2612"
    },
    {
      "channel": 0,
      "note": 53,
      "start": 32.4882,
      "duration": 0.0309,
      "velocity": 114,
      "chip": "ym2612"
    },
    {
      "channel": 2,
      "note": 65,
      "start": 32.4884,
      "duration": 0.0464,
      "velocity": 121,
      "chip": "ym2612"
    },
    {
      "channel": 3,
      "note": 62,
      "start": 32.4885,
      "duration": 0.0464,
      "velocity": 121,
      "chip": "ym2612"
    },
    {
      "channel": 0,
      "note": 98,
      "start": 32.597,
      "duration": 0.0311,
      "velocity": 114,
      "chip": "ym2612"
    },
    {
      "channel": 0,
      "note": 98,
      "start": 32.7061,
      "duration": 0.0154,
      "velocity": 127,
      "chip": "ym2612"
    },
    {
      "channel": 1,
      "note": 58,
      "start": 32.7063,
      "duration": 0.218,
      "velocity": 93,
      "chip": "ym2612"
    },
    {
      "channel": 2,
      "note": 65,
      "start": 32.7064,
      "duration": 0.0464,
      "velocity": 121,
      "chip": "ym2612"
    },
    {
      "channel": 3,
      "note": 62,
      "start": 32.7065,
      "duration": 0.0464,
      "velocity": 121,
      "chip": "ym2612"
    },
    {
      "channel": 0,
      "note": 76,
      "start": 32.7215,
      "duration": 0.2026,
      "velocity": 123,
      "chip": "ym2612"
    },
    {
      "channel": 0,
      "note": 70,
      "start": 32.9241,
      "duration": 0.2178,
      "velocity": 114,
      "chip": "ym2612"
    },
    {
      "channel": 1,
      "note": 57,
      "start": 32.9242,
      "duration": 0.4357,
      "velocity": 93,
      "chip": "ym2612"
    },
    {
      "channel": 2,
      "note": 65,
      "start": 32.9243,
      "duration": 0.0463,
      "velocity": 121,
      "chip": "ym2612"
    },
    {
      "channel": 3,
      "note": 62,
      "start": 32.9244,
      "duration": 0.0463,
      "velocity": 121,
      "chip": "ym2612"
    },
    {
      "channel": 0,
      "note": 53,
      "start": 33.1419,
      "duration": 0.0309,
      "velocity": 114,
      "chip": "ym2612"
    },
    {
      "channel": 2,
      "note": 65,
      "start": 33.1421,
      "duration": 0.0464,
      "velocity": 121,
      "chip": "ym2612"
    },
    {
      "channel": 3,
      "note": 62,
      "start": 33.1422,
      "duration": 0.0463,
      "velocity": 121,
      "chip": "ym2612"
    },
    {
      "channel": 0,
      "note": 98,
      "start": 33.3598,
      "duration": 0.2179,
      "velocity": 127,
      "chip": "ym2612"
    },
    {
      "channel": 1,
      "note": 56,
      "start": 33.3599,
      "duration": 0.2179,
      "velocity": 93,
      "chip": "ym2612"
    },
    {
      "channel": 2,
      "note": 68,
      "start": 33.36,
      "duration": 0.0463,
      "velocity": 121,
      "chip": "ym2612"
    },
    {
      "channel": 3,
      "note": 62,
      "start": 33.3601,
      "duration": 0.0463,
      "velocity": 121,
      "chip": "ym2612"
    },
    {
      "channel": 0,
      "note": 61,
      "start": 33.5777,
      "duration": 0.0153,
      "velocity": 127,
      "chip": "ym2612"
    },
    {
      "channel": 1,
      "note": 59,
      "start": 33.5778,
      "duration": 0.2179,
      "velocity": 93,
      "chip": "ym2612"
    },
    {
      "channel": 2,
      "note": 68,
      "start": 33.5779,
      "duration": 0.0464,
      "velocity": 121,
      "chip": "ym2612"
    },
    {
      "channel": 3,
      "note": 62,
      "start": 33.578,
      "duration": 0.0464,
      "velocity": 121,
      "chip": "ym2612"
    },
    {
      "channel": 0,
      "note": 76,
      "start": 33.593,
      "duration": 0.2025,
      "velocity": 123,
      "chip": "ym2612"
    },
    {
      "channel": 0,
      "note": 66,
      "start": 33.7955,
      "duration": 0.2179,
      "velocity": 114,
      "chip": "ym2612"
    },
    {
      "channel": 1,
      "note": 62,
      "start": 33.7957,
      "duration": 0.4358,
      "velocity": 93,
      "chip": "ym2612"
    },
    {
      "channel": 2,
      "note": 68,
      "start": 33.7958,
      "duration": 0.0464,
      "velocity": 121,
      "chip": "ym2612"
    },
    {
      "channel": 3,
      "note": 62,
      "start": 33.7959,
      "duration": 0.0464,
      "velocity": 121,
      "chip": "ym2612"
    },
    {
      "channel": 0,
      "note": 53,
      "start": 34.0134,
      "duration": 0.0309,
      "velocity": 114,
      "chip": "ym2612"
    },
    {
      "channel": 2,
      "note": 68,
      "start": 34.0136,
      "duration": 0.0464,
      "velocity": 121,
      "chip": "ym2612"
    },
    {
      "channel": 3,
      "note": 62,
      "start": 34.0137,
      "duration": 0.0464,
      "velocity": 121,
      "chip": "ym2612"
    },
    {
      "channel": 0,
      "note": 98,
      "start": 34.2313,
      "duration": 0.2179,
      "velocity": 127,
      "chip": "ym2612"
    },
    {
      "channel": 1,
      "note": 65,
      "start": 34.2315,
      "duration": 0.2179,
      "velocity": 93,
      "chip": "ym2612"
    },
    {
      "channel": 2,
      "note": 68,
      "start": 34.2315,
      "duration": 0.0464,
      "velocity": 121,
      "chip": "ym2612"
    },
    {
      "channel": 3,
      "note": 65,
      "start": 34.2317,
      "duration": 0.0463,
      "velocity": 121,
      "chip": "ym2612"
    },
    {
      "channel": 0,
      "note": 53,
      "start": 34.4492,
      "duration": 0.0153,
      "velocity": 127,
      "chip": "ym2612"
    },
    {
      "channel": 1,
      "note": 64,
      "start": 34.4493,
      "duration": 0.2179,
      "velocity": 93,
      "chip": "ym2612"
    },
    {
      "channel": 2,
      "note": 68,
      "start": 34.4494,
      "duration": 0.0464,
      "velocity": 121,
      "chip": "ym2612"
    },
    {
      "channel": 3,
      "note": 65,
      "start": 34.4495,
      "duration": 0.0463,
      "velocity": 121,
      "chip": "ym2612"
    },
    {
      "channel": 0,
      "note": 76,
      "start": 34.4645,
      "duration": 0.2025,
      "velocity": 127,
      "chip": "ym2612"
    },
    {
      "channel": 0,
      "note": 70,
      "start": 34.6671,
      "duration": 0.0153,
      "velocity": 127,
      "chip": "ym2612"
    },
    {
      "channel": 1,
      "note": 62,
      "start": 34.6672,
      "duration": 0.2179,
      "velocity": 93,
      "chip": "ym2612"
    },
    {
      "channel": 2,
      "note": 68,
      "start": 34.6673,
      "duration": 0.0463,
      "velocity": 121,
      "chip": "ym2612"
    },
    {
      "channel": 3,
      "note": 65,
      "start": 34.6674,
      "duration": 0.0463,
      "velocity": 121,
      "chip": "ym2612"
    },
    {
      "channel": 0,
      "note": 76,
      "start": 34.6824,
      "duration": 0.2025,
      "velocity": 123,
      "chip": "ym2612"
    },
    {
      "channel": 0,
      "note": 70,
      "start": 34.885,
      "duration": 0.2178,
      "velocity": 99,
      "chip": "ym2612"
    },
    {
      "channel": 1,
      "note": 59,
      "start": 34.8851,
      "duration": 0.1086,
      "velocity": 93,
      "chip": "ym2612"
    },
    {
      "channel": 2,
      "note": 68,
      "start": 34.8853,
      "duration": 0.0463,
      "velocity": 121,
      "chip": "ym2612"
    },
    {
      "channel": 3,
      "note": 65,
      "start": 34.8854,
      "duration": 0.0463,
      "velocity": 121,
      "chip": "ym2612"
    },
    {
      "channel": 4,
      "note": 89,
      "start": 34.8855,
      "duration": 0.4357,
      "velocity": 96,
      "chip": "ym2612"
    },
    {
      "channel": 5,
      "note": 89,
      "start": 34.9474,
      "duration": 0.4358,
      "velocity": 96,
      "chip": "ym2612"
    },
    {
      "channel": 0,
      "note": 53,
      "start": 35.1028,
      "duration": 0.2179,
      "velocity": 127,
      "chip": "ym2612"
    },
    {
      "channel": 2,
      "note": 64,
      "start": 35.103,
      "duration": 0.0464,
      "velocity": 121,
      "chip": "ym2612"
    },
    {
      "channel": 3,
      "note": 60,
      "start": 35.1031,
      "duration": 0.0464,
      "velocity": 121,
      "chip": "ym2612"
    },
    {
      "channel": 0,
      "note": 61,
      "start": 35.3207,
      "duration": 0.0154,
      "velocity": 127,
      "chip": "ym2612"
    },
    {
      "channel": 1,
      "note": 57,
      "start": 35.3209,
      "duration": 0.2179,
      "velocity": 93,
      "chip": "ym2612"
    },
    {
      "channel": 2,
      "note": 64,
      "start": 35.321,
      "duration": 0.0464,
      "velocity": 121,
      "chip": "ym2612"
    },
    {
      "channel": 3,
      "note": 60,
      "start": 35.3211,
      "duration": 0.0464,
      "velocity": 121,
      "chip": "ym2612"
    },
    {
      "channel": 4,
      "note": 96,
      "start": 35.3212,
      "duration": 0.3109,
      "velocity": 96,
      "chip": "ym2612"
    },
    {
      "channel": 0,
      "note": 76,
      "start": 35.3361,
      "duration": 0.2025,
      "velocity": 123,
      "chip": "ym2612"
    },
    {
      "channel": 5,
      "note": 96,
      "start": 35.3832,
      "duration": 0.3113,
      "velocity": 96,
      "chip": "ym2612"
    },
    {
      "channel": 0,
      "note": 66,
      "start": 35.5386,
      "duration": 0.2179,
      "velocity": 123,
      "chip": "ym2612"
    },
    {
      "channel": 1,
      "note": 60,
      "start": 35.5387,
      "duration": 0.2179,
      "velocity": 93,
      "chip": "ym2612"
    },
    {
      "channel": 2,
      "note": 64,
      "start": 35.5388,
      "duration": 0.0464,
      "velocity": 121,
      "chip": "ym2612"
    },
    {
      "channel": 3,
      "note": 60,
      "start": 35.539,
      "duration": 0.0463,
      "velocity": 121,
      "chip": "ym2612"
    },
    {
      "channel": 4,
      "note": 95,
      "start": 35.6321,
      "duration": 0.0622,
      "velocity": 96,
      "chip": "ym2612"
    },
    {
      "channel": 4,
      "note": 96,
      "start": 35.6943,
      "duration": 0.0628,
      "velocity": 96,
      "chip": "ym2612"
    },
    {
      "channel": 5,
      "note": 95,
      "start": 35.6945,
      "duration": 0.0628,
      "velocity": 96,
      "chip": "ym2612"
    },
    {
      "channel": 0,
      "note": 53,
      "start": 35.7565,
      "duration": 0.2179,
      "velocity": 114,
      "chip": "ym2612"
    },
    {
      "channel": 1,
      "note": 64,
      "start": 35.7566,
      "duration": 0.1087,
      "velocity": 93,
      "chip": "ym2612"
    },
    {
      "channel": 2,
      "note": 64,
      "start": 35.7567,
      "duration": 0.0464,
      "velocity": 121,
      "chip": "ym2612"
    },
    {
      "channel": 3,
      "note": 60,
      "start": 35.7568,
      "duration": 0.0463,
      "velocity": 121,
      "chip": "ym2612"
    },
    {
      "channel": 4,
      "note": 95,
      "start": 35.7571,
      "duration": 1.0892,
      "velocity": 96,
      "chip": "ym2612"
    },
    {
      "channel": 5,
      "note": 96,
      "start": 35.7573,
      "duration": 0.0616,
      "velocity": 96,
      "chip": "ym2612"
    },
    {
      "channel": 5,
      "note": 95,
      "start": 35.8189,
      "duration": 1.0894,
      "velocity": 96,
      "chip": "ym2612"
    },
    {
      "channel": 0,
      "note": 53,
      "start": 35.9744,
      "duration": 0.0309,
      "velocity": 114,
      "chip": "ym2612"
    },
    {
      "channel": 2,
      "note": 62,
      "start": 35.9746,
      "duration": 0.0464,
      "velocity": 121,
      "chip": "ym2612"
    },
    {
      "channel": 3,
      "note": 59,
      "start": 35.9747,
      "duration": 0.0464,
      "velocity": 121,
      "chip": "ym2612"
    },
    {
      "channel": 0,
      "note": 98,
      "start": 36.0831,
      "duration": 0.0311,
      "velocity": 114,
      "chip": "ym2612"
    },
    {
      "channel": 0,
      "note": 98,
      "start": 36.1923,
      "duration": 0.0153,
      "velocity": 127,
      "chip": "ym2612"
    },
    {
      "channel": 1,
      "note": 59,
      "start": 36.1924,
      "duration": 0.2179,
      "velocity": 93,
      "chip": "ym2612"
    },
    {
      "channel": 2,
      "note": 62,
      "start": 36.1925,
      "duration": 0.0464,
      "velocity": 121,
      "chip": "ym2612"
    },
    {
      "channel": 3,
      "note": 59,
      "start": 36.1926,
      "duration": 0.0463,
      "velocity": 121,
      "chip": "ym2612"
    },
    {
      "channel": 0,
      "note": 76,
      "start": 36.2076,
      "duration": 0.2025,
      "velocity": 123,
      "chip": "ym2612"
    },
    {
      "channel": 0,
      "note": 70,
      "start": 36.4102,
      "duration": 0.2178,
      "velocity": 114,
      "chip": "ym2612"
    },
    {
      "channel": 1,
      "note": 55,
      "start": 36.4103,
      "duration": 0.4357,
      "velocity": 93,
      "chip": "ym2612"
    },
    {
      "channel": 2,
      "note": 62,
      "start": 36.4104,
      "duration": 0.0464,
      "velocity": 121,
      "chip": "ym2612"
    },
    {
      "channel": 3,
      "note": 59,
      "start": 36.4105,
      "duration": 0.0463,
      "velocity": 121,
      "chip": "ym2612"
    },
    {
      "channel": 0,
      "note": 53,
      "start": 36.628,
      "duration": 0.0309,
      "velocity": 114,
      "chip": "ym2612"
    },
    {
      "channel": 2,
      "note": 64,
      "start": 36.6282,
      "duration": 0.0464,
      "velocity": 121,
      "chip": "ym2612"
    },
    {
      "channel": 3,
      "note": 60,
      "start": 36.6283,
      "duration": 0.0464,
      "velocity": 121,
      "chip": "ym2612"
    },
    {
      "channel": 0,
      "note": 98,
      "start": 36.8459,
      "duration": 0.2179,
      "velocity": 127,
      "chip": "ym2612"
    },
    {
      "channel": 1,
      "note": 60,
      "start": 36.846,
      "duration": 0.2179,
      "velocity": 93,
      "chip": "ym2612"
    },
    {
      "channel": 2,
      "note": 64,
      "start": 36.8461,
      "duration": 0.0463,
      "velocity": 121,
      "chip": "ym2612"
    },
    {
      "channel": 3,
      "note": 60,
      "start": 36.8462,
      "duration": 0.0463,
      "velocity": 121,
      "chip": "ym2612"
    },
    {
      "channel": 4,
      "note": 93,
      "start": 36.8463,
      "duration": 0.2179,
      "velocity": 96,
      "chip": "ym2612"
    },
    {
      "channel": 5,
      "note": 93,
      "start": 36.9083,
      "duration": 0.2179,
      "velocity": 96,
      "chip": "ym2612"
    },
    {
      "channel": 0,
      "note": 61,
      "start": 37.0638,
      "duration": 0.0154,
      "velocity": 127,
      "chip": "ym2612"
    },
    {
      "channel": 1,
      "note": 55,
      "start": 37.0639,
      "duration": 0.2179,
      "velocity": 93,
      "chip": "ym2612"
    },
    {
      "channel": 2,
      "note": 64,
      "start": 37.064,
      "duration": 0.0464,
      "velocity": 121,
      "chip": "ym2612"
    },
    {
      "channel": 3,
      "note": 60,
      "start": 37.0641,
      "duration": 0.0463,
      "velocity": 121,
      "chip": "ym2612"
    },
    {
      "channel": 4,
      "note": 93,
      "start": 37.0643,
      "duration": 0.0774,
      "velocity": 96,
      "chip": "ym2612"
    },
    {
      "channel": 0,
      "note": 76,
      "start": 37.0791,
      "duration": 0.2025,
      "velocity": 123,
      "chip": "ym2612"
    },
    {
      "channel": 5,
      "note": 93,
      "start": 37.1262,
      "duration": 0.0779,
      "velocity": 96,
      "chip": "ym2612"
    },
    {
      "channel": 4,
      "note": 91,
      "start": 37.1417,
      "duration": 0.0622,
      "velocity": 96,
      "chip": "ym2612"
    },
    {
      "channel": 4,
      "note": 93,
      "start": 37.2039,
      "duration": 0.0782,
      "velocity": 96,
      "chip": "ym2612"
    },
    {
      "channel": 5,
      "note": 91,
      "start": 37.2041,
      "duration": 0.0622,
      "velocity": 96,
      "chip": "ym2612"
    },
    {
      "channel": 5,
      "note": 93,
      "start": 37.2663,
      "duration": 0.0778,
      "velocity": 96,
      "chip": "ym2612"
    },
    {
      "channel": 0,
      "note": 66,
      "start": 37.2817,
      "duration": 0.2179,
      "velocity": 114,
      "chip": "ym2612"
    },
    {
      "channel": 1,
      "note": 60,
      "start": 37.2818,
      "duration": 0.4358,
      "velocity": 93,
      "chip": "ym2612"
    },
    {
      "channel": 2,
      "note": 64,
      "start": 37.2819,
      "duration": 0.0464,
      "velocity": 121,
      "chip": "ym2612"
    },
    {
      "channel": 3,
      "note": 60,
      "start": 37.282,
      "duration": 0.0464,
      "velocity": 121,
      "chip": "ym2612"
    },
    {
      "channel": 4,
      "note": 91,
      "start": 37.2821,
      "duration": 0.2179,
      "velocity": 96,
      "chip": "ym2612"
    },
    {
      "channel": 5,
      "note": 91,
      "start": 37.3441,
      "duration": 0.2178,
      "velocity": 96,
      "chip": "ym2612"
    },
    {
      "channel": 0,
      "note": 53,
      "start": 37.4995,
      "duration": 0.0309,
      "velocity": 114,
      "chip": "ym2612"
    },
    {
      "channel": 2,
      "note": 64,
      "start": 37.4998,
      "duration": 0.0464,
      "velocity": 121,
      "chip": "ym2612"
    },
    {
      "channel": 3,
      "note": 60,
      "start": 37.4999,
      "duration": 0.0463,
      "velocity": 121,
      "chip": "ym2612"
    },
    {
      "channel": 4,
      "note": 88,
      "start": 37.5,
      "duration": 0.2179,
      "velocity": 96,
      "chip": "ym2612"
    },
    {
      "channel": 5,
      "note": 88,
      "start": 37.562,
      "duration": 0.2179,
      "velocity": 96,
      "chip": "ym2612"
    },
    {
      "channel": 0,
      "note": 98,
      "start": 37.7174,
      "duration": 0.2179,
      "velocity": 127,
      "chip": "ym2612"
    },
    {
      "channel": 1,
      "note": 59,
      "start": 37.7176,
      "duration": 0.2179,
      "velocity": 93,
      "chip": "ym2612"
    },
    {
      "channel": 2,
      "note": 67,
      "start": 37.7177,
      "duration": 0.0464,
      "velocity": 121,
      "chip": "ym2612"
    },
    {
      "channel": 3,
      "note": 59,
      "start": 37.7178,
      "duration": 0.0464,
      "velocity": 121,
      "chip": "ym2612"
    },
    {
      "channel": 4,
      "note": 91,
      "start": 37.7179,
      "duration": 0.2179,
      "velocity": 96,
      "chip": "ym2612"
    },
    {
      "channel": 5,
      "note": 91,
      "start": 37.7799,
      "duration": 0.2179,
      "velocity": 96,
      "chip": "ym2612"
    },
    {
      "channel": 0,
      "note": 53,
      "start": 37.9353,
      "duration": 0.0154,
      "velocity": 127,
      "chip": "ym2612"
    },
    {
      "channel": 1,
      "note": 55,
      "start": 37.9355,
      "duration": 0.2179,
      "velocity": 93,
      "chip": "ym2612"
    },
    {
      "channel": 2,
      "note": 67,
      "start": 37.9356,
      "duration": 0.0464,
      "velocity": 121,
      "chip": "ym2612"
    },
    {
      "channel": 3,
      "note": 59,
      "start": 37.9357,
      "duration": 0.0464,
      "velocity": 121,
      "chip": "ym2612"
    },
    {
      "channel": 4,
      "note": 88,
      "start": 37.9358,
      "duration": 0.2179,
      "velocity": 96,
      "chip": "ym2612"
    },
    {
      "channel": 0,
      "note": 76,
      "start": 37.9507,
      "duration": 0.0934,
      "velocity": 127,
      "chip": "ym2612"
    },
    {
      "channel": 5,
      "note": 88,
      "start": 37.9978,
      "duration": 0.2179,
      "velocity": 96,
      "chip": "ym2612"
    },
    {
      "channel": 0,
      "note": 72,
      "start": 38.0441,
      "duration": 0.0156,
      "velocity": 127,
      "chip": "ym2612"
    },
    {
      "channel": 0,
      "note": 76,
      "start": 38.0596,
      "duration": 0.0936,
      "velocity": 127,
      "chip": "ym2612"
    },
    {
      "channel": 0,
      "note": 72,
      "start": 38.1532,
      "duration": 0.0153,
      "velocity": 127,
      "chip": "ym2612"
    },
    {
      "channel": 1,
      "note": 59,
      "start": 38.1534,
      "duration": 0.2179,
      "velocity": 93,
      "chip": "ym2612"
    },
    {
      "channel": 2,
      "note": 67,
      "start": 38.1535,
      "duration": 0.0463,
      "velocity": 121,
      "chip": "ym2612"
    },
    {
      "channel": 3,
      "note": 59,
      "start": 38.1536,
      "duration": 0.0463,
      "velocity": 121,
      "chip": "ym2612"
    },
    {
      "channel": 4,
      "note": 86,
      "start": 38.1537,
      "duration": 0.2185,
      "velocity": 96,
      "chip": "ym2612"
    },
    {
      "channel": 0,
      "note": 76,
      "start": 38.1686,
      "duration": 0.0934,
      "velocity": 127,
      "chip": "ym2612"
    },
    {
      "channel": 5,
      "note": 86,
      "start": 38.2156,
      "duration": 0.218,
      "velocity": 96,
      "chip": "ym2612"
    },
    {
      "channel": 0,
      "note": 72,
      "start": 38.262,
      "duration": 0.0156,
      "velocity": 127,
      "chip": "ym2612"
    },
    {
      "channel": 0,
      "note": 76,
      "start": 38.2775,
      "duration": 0.0936,
      "velocity": 123,
      "chip": "ym2612"
    },
    {
      "channel": 0,
      "note": 72,
      "start": 38.3711,
      "duration": 0.2178,
      "velocity": 99,
      "chip": "ym2612"
    },
    {
      "channel": 1,
      "note": 58,
      "start": 38.3713,
      "duration": 0.4359,
      "velocity": 93,
      "chip": "ym2612"
    },
    {
      "channel": 2,
      "note": 67,
      "start": 38.3716,
      "duration": 1.3071,
      "velocity": 111,
      "chip": "ym2612"
    },
    {
      "channel": 4,
      "note": 88,
      "start": 38.3722,
      "duration": 0.4353,
      "velocity": 96,
      "chip": "ym2612"
    },
    {
      "channel": 5,
      "note": 88,
      "start": 38.4336,
      "duration": 0.4357,
      "velocity": 96,
      "chip": "ym2612"
    },
    {
      "channel": 3,
      "note": 59,
      "start": 38.5112,
      "duration": 1.3073,
      "velocity": 111,
      "chip": "ym2612"
    },
    {
      "channel": 0,
      "note": 53,
      "start": 38.589,
      "duration": 0.2179,
      "velocity": 123,
      "chip": "ym2612"
    },
    {
      "channel": 0,
      "note": 61,
      "start": 38.8069,
      "duration": 0.2179,
      "velocity": 114,
      "chip": "ym2612"
    },
    {
      "channel": 1,
      "note": 58,
      "start": 38.8072,
      "duration": 0.2177,
      "velocity": 93,
      "chip": "ym2612"
    },
    {
      "channel": 4,
      "note": 86,
      "start": 38.8075,
      "duration": 0.2177,
      "velocity": 96,
      "chip": "ym2612"
    },
    {
      "channel": 5,
      "note": 86,
      "start": 38.8693,
      "duration": 0.2178,
      "velocity": 96,
      "chip": "ym2612"
    },
    {
      "channel": 0,
      "note": 53,
      "start": 39.0247,
      "duration": 0.0309,
      "velocity": 114,
      "chip": "ym2612"
    },
    {
      "channel": 1,
      "note": 58,
      "start": 39.0249,
      "duration": 0.4358,
      "velocity": 93,
      "chip": "ym2612"
    },
    {
      "channel": 4,
      "note": 88,
      "start": 39.0252,
      "duration": 0.6538,
      "velocity": 96,
      "chip": "ym2612"
    },
    {
      "channel": 5,
      "note": 88,
      "start": 39.0872,
      "duration": 0.6538,
      "velocity": 96,
      "chip": "ym2612"
    },
    {
      "channel": 0,
      "note": 98,
      "start": 39.1335,
      "duration": 0.0311,
      "velocity": 114,
      "chip": "ym2612"
    },
    {
      "channel": 0,
      "note": 98,
      "start": 39.2426,
      "duration": 0.2179,
      "velocity": 127,
      "chip": "ym2612"
    },
    {
      "channel": 0,
      "note": 53,
      "start": 39.4605,
      "duration": 0.0153,
      "velocity": 127,
      "chip": "ym2612"
    },
    {
      "channel": 1,
      "note": 70,
      "start": 39.4607,
      "duration": 0.2179,
      "velocity": 93,
      "chip": "ym2612"
    },
    {
      "channel": 0,
      "note": 76,
      "start": 39.4759,
      "duration": 0.2025,
      "velocity": 123,
      "chip": "ym2612"
    },
    {
      "channel": 0,
      "note": 70,
      "start": 39.6784,
      "duration": 0.2179,
      "velocity": 99,
      "chip": "ym2612"
    },
    {
      "channel": 1,
      "note": 58,
      "start": 39.6785,
      "duration": 0.4358,
      "velocity": 93,
      "chip": "ym2612"
    },
    {
      "channel": 2,
      "note": 46,
      "start": 39.6787,
      "duration": 1.3073,
      "velocity": 111,
      "chip": "ym2612"
    },
    {
      "channel": 4,
      "note": 89,
      "start": 39.6789,
      "duration": 0.6535,
      "velocity": 96,
      "chip": "ym2612"
    },
    {
      "channel": 5,
      "note": 89,
      "start": 39.741,
      "duration": 0.6535,
      "velocity": 96,
      "chip": "ym2612"
    },
    {
      "channel": 3,
      "note": 46,
      "start": 39.8185,
      "duration": 1.3073,
      "velocity": 111,
      "chip": "ym2612"
    },
    {
      "channel": 0,
      "note": 53,
      "start": 39.8963,
      "duration": 0.2179,
      "velocity": 123,
      "chip": "ym2612"
    },
    {
      "channel": 0,
      "note": 61,
      "start": 40.1142,
      "duration": 0.2178,
      "velocity": 114,
      "chip": "ym2612"
    },
    {
      "channel": 1,
      "note": 60,
      "start": 40.1143,
      "duration": 0.2178,
      "velocity": 93,
      "chip": "ym2612"
    },
    {
      "channel": 0,
      "note": 53,
      "start": 40.332,
      "duration": 0.0309,
      "velocity": 114,
      "chip": "ym2612"
    },
    {
      "channel": 1,
      "note": 60,
      "start": 40.3322,
      "duration": 0.2179,
      "velocity": 93,
      "chip": "ym2612"
    },
    {
      "channel": 4,
      "note": 89,
      "start": 40.3325,
      "duration": 0.6538,
      "velocity": 96,
      "chip": "ym2612"
    },
    {
      "channel": 5,
      "note": 89,
      "start": 40.3945,
      "duration": 0.6537,
      "velocity": 96,
      "chip": "ym2612"
    },
    {
      "channel": 0,
      "note": 98,
      "start": 40.4408,
      "duration": 0.0311,
      "velocity": 114,
      "chip": "ym2612"
    },
    {
      "channel": 0,
      "note": 98,
      "start": 40.5499,
      "duration": 0.2179,
      "velocity": 127,
      "chip": "ym2612"
    },
    {
      "channel": 1,
      "note": 72,
      "start": 40.5501,
      "duration": 0.2179,
      "velocity": 93,
      "chip": "ym2612"
    },
    {
      "channel": 0,
      "note": 53,
      "start": 40.7678,
      "duration": 0.0153,
      "velocity": 127,
      "chip": "ym2612"
    },
    {
      "channel": 1,
      "note": 67,
      "start": 40.768,
      "duration": 0.2179,
      "velocity": 93,
      "chip": "ym2612"
    },
    {
      "channel": 0,
      "note": 76,
      "start": 40.7832,
      "duration": 0.0934,
      "velocity": 127,
      "chip": "ym2612"
    },
    {
      "channel": 0,
      "note": 72,
      "start": 40.8765,
      "duration": 0.0156,
      "velocity": 127,
      "chip": "ym2612"
    },
    {
      "channel": 0,
      "note": 76,
      "start": 40.8921,
      "duration": 0.0936,
      "velocity": 123,
      "chip": "ym2612"
    },
    {
      "channel": 0,
      "note": 72,
      "start": 40.9857,
      "duration": 0.2178,
      "velocity": 99,
      "chip": "ym2612"
    },
    {
      "channel": 1,
      "note": 64,
      "start": 40.9859,
      "duration": 0.4357,
      "velocity": 93,
      "chip": "ym2612"
    },
    {
      "channel": 2,
      "note": 48,
      "start": 40.986,
      "duration": 1.3073,
      "velocity": 111,
      "chip": "ym2612"
    },
    {
      "channel": 4,
      "note": 91,
      "start": 40.9863,
      "duration": 0.4356,
      "velocity": 96,
      "chip": "ym2612"
    },
    {
      "channel": 5,
      "note": 91,
      "start": 41.0482,
      "duration": 0.4357,
      "velocity": 96,
      "chip": "ym2612"
    },
    {
      "channel": 3,
      "note": 48,
      "start": 41.1258,
      "duration": 1.3073,
      "velocity": 111,
      "chip": "ym2612"
    },
    {
      "channel": 0,
      "note": 53,
      "start": 41.2036,
      "duration": 0.2179,
      "velocity": 123,
      "chip": "ym2612"
    },
    {
      "channel": 0,
      "note": 61,
      "start": 41.4215,
      "duration": 0.2178,
      "velocity": 114,
      "chip": "ym2612"
    },
    {
      "channel": 1,
      "note": 63,
      "start": 41.4216,
      "duration": 0.2178,
      "velocity": 93,
      "chip": "ym2612"
    },
    {
      "channel": 4,
      "note": 89,
      "start": 41.4219,
      "duration": 0.2179,
      "velocity": 96,
      "chip": "ym2612"
    },
    {
      "channel": 5,
      "note": 89,
      "start": 41.4839,
      "duration": 0.2178,
      "velocity": 96,
      "chip": "ym2612"
    },
    {
      "channel": 0,
      "note": 53,
      "start": 41.6393,
      "duration": 0.0309,
      "velocity": 114,
      "chip": "ym2612"
    },
    {
      "channel": 1,
      "note": 63,
      "start": 41.6395,
      "duration": 0.218,
      "velocity": 93,
      "chip": "ym2612"
    },
    {
      "channel": 4,
      "note": 91,
      "start": 41.6398,
      "duration": 0.4358,
      "velocity": 96,
      "chip": "ym2612"
    },
    {
      "channel": 5,
      "note": 91,
      "start": 41.7018,
      "duration": 0.4358,
      "velocity": 96,
      "chip": "ym2612"
    },
    {
      "channel": 0,
      "note": 98,
      "start": 41.7481,
      "duration": 0.0311,
      "velocity": 114,
      "chip": "ym2612"
    },
    {
      "channel": 0,
      "note": 98,
      "start": 41.8574,
      "duration": 0.2177,
      "velocity": 127,
      "chip": "ym2612"
    },
    {
      "channel": 1,
      "note": 58,
      "start": 41.8575,
      "duration": 0.2177,
      "velocity": 93,
      "chip": "ym2612"
    },
    {
      "channel": 0,
      "note": 53,
      "start": 42.0751,
      "duration": 0.0154,
      "velocity": 127,
      "chip": "ym2612"
    },
    {
      "channel": 1,
      "note": 63,
      "start": 42.0753,
      "duration": 0.2179,
      "velocity": 93,
      "chip": "ym2612"
    },
    {
      "channel": 4,
      "note": 93,
      "start": 42.0756,
      "duration": 0.218,
      "velocity": 96,
      "chip": "ym2612"
    },
    {
      "channel": 0,
      "note": 76,
      "start": 42.0905,
      "duration": 0.2024,
      "velocity": 123,
      "chip": "ym2612"
    },
    {
      "channel": 5,
      "note": 93,
      "start": 42.1376,
      "duration": 0.2179,
      "velocity": 96,
      "chip": "ym2612"
    },
    {
      "channel": 0,
      "note": 70,
      "start": 42.293,
      "duration": 0.2179,
      "velocity": 99,
      "chip": "ym2612"
    },
    {
      "channel": 1,
      "note": 58,
      "start": 42.2931,
      "duration": 0.2179,
      "velocity": 93,
      "chip": "ym2612"
    },
    {
      "channel": 2,
      "note": 51,
      "start": 42.2933,
      "duration": 1.3073,
      "velocity": 111,
      "chip": "ym2612"
    },
    {
      "channel": 4,
      "note": 96,
      "start": 42.2935,
      "duration": 1.3073,
      "velocity": 96,
      "chip": "ym2612"
    },
    {
      "channel": 5,
      "note": 96,
      "start": 42.3555,
      "duration": 1.3073,
      "velocity": 96,
      "chip": "ym2612"
    },
    {
      "channel": 3,
      "note": 51,
      "start": 42.4331,
      "duration": 1.3075,
      "velocity": 111,
      "chip": "ym2612"
    },
    {
      "channel": 0,
      "note": 53,
      "start": 42.5109,
      "duration": 0.2179,
      "velocity": 123,
      "chip": "ym2612"
    },
    {
      "channel": 1,
      "note": 62,
      "start": 42.511,
      "duration": 0.2179,
      "velocity": 93,
      "chip": "ym2612"
    },
    {
      "channel": 0,
      "note": 61,
      "start": 42.7288,
      "duration": 0.2179,
      "velocity": 114,
      "chip": "ym2612"
    },
    {
      "channel": 1,
      "note": 62,
      "start": 42.7289,
      "duration": 0.4357,
      "velocity": 93,
      "chip": "ym2612"
    },
    {
      "channel": 0,
      "note": 53,
      "start": 42.9466,
      "duration": 0.0309,
      "velocity": 114,
      "chip": "ym2612"
    },
    {
      "channel": 0,
      "note": 98,
      "start": 43.0554,
      "duration": 0.0311,
      "velocity": 114,
      "chip": "ym2612"
    },
    {
      "channel": 0,
      "note": 98,
      "start": 43.1645,
      "duration": 0.2179,
      "velocity": 127,
      "chip": "ym2612"
    },
    {
      "channel": 1,
      "note": 65,
      "start": 43.1646,
      "duration": 0.2179,
      "velocity": 93,
      "chip": "ym2612"
    },
    {
      "channel": 0,
      "note": 53,
      "start": 43.3824,
      "duration": 0.0153,
      "velocity": 127,
      "chip": "ym2612"
    },
    {
      "channel": 1,
      "note": 69,
      "start": 43.3826,
      "duration": 0.2179,
      "velocity": 93,
      "chip": "ym2612"
    },
    {
      "channel": 0,
      "note": 76,
      "start": 43.3978,
      "duration": 0.0934,
      "velocity": 127,
      "chip": "ym2612"
    },
    {
      "channel": 0,
      "note": 72,
      "start": 43.4911,
      "duration": 0.0156,
      "velocity": 127,
      "chip": "ym2612"
    },
    {
      "channel": 0,
      "note": 76,
      "start": 43.5067,
      "duration": 0.0936,
      "velocity": 123,
      "chip": "ym2612"
    },
    {
      "channel": 0,
      "note": 72,
      "start": 43.6003,
      "duration": 0.2178,
      "velocity": 99,
      "chip": "ym2612"
    },
    {
      "channel": 1,
      "note": 74,
      "start": 43.6005,
      "duration": 0.4357,
      "velocity": 93,
      "chip": "ym2612"
    },
    {
      "channel": 2,
      "note": 50,
      "start": 43.6006,
      "duration": 1.3073,
      "velocity": 111,
      "chip": "ym2612"
    },
    {
      "channel": 4,
      "note": 98,
      "start": 43.6009,
      "duration": 0.4356,
      "velocity": 96,
      "chip": "ym2612"
    },
    {
      "channel": 5,
      "note": 98,
      "start": 43.6628,
      "duration": 0.4357,
      "velocity": 96,
      "chip": "ym2612"
    },
    {
      "channel": 3,
      "note": 50,
      "start": 43.7406,
      "duration": 1.3071,
      "velocity": 111,
      "chip": "ym2612"
    },
    {
      "channel": 0,
      "note": 53,
      "start": 43.8182,
      "duration": 0.2179,
      "velocity": 123,
      "chip": "ym2612"
    },
    {
      "channel": 0,
      "note": 61,
      "start": 44.0361,
      "duration": 0.2179,
      "velocity": 114,
      "chip": "ym2612"
    },
    {
      "channel": 1,
      "note": 58,
      "start": 44.0362,
      "duration": 0.2178,
      "velocity": 93,
      "chip": "ym2612"
    },
    {
      "channel": 4,
      "note": 98,
      "start": 44.0365,
      "duration": 0.2179,
      "velocity": 96,
      "chip": "ym2612"
    },
    {
      "channel": 5,
      "note": 98,
      "start": 44.0985,
      "duration": 0.2178,
      "velocity": 96,
      "chip": "ym2612"
    },
    {
      "channel": 0,
      "note": 53,
      "start": 44.2539,
      "duration": 0.0309,
      "velocity": 114,
      "chip": "ym2612"
    },
    {
      "channel": 1,
      "note": 58,
      "start": 44.2541,
      "duration": 0.4358,
      "velocity": 93,
      "chip": "ym2612"
    },
    {
      "channel": 4,
      "note": 96,
      "start": 44.2544,
      "duration": 0.4358,
      "velocity": 96,
      "chip": "ym2612"
    },
    {
      "channel": 5,
      "note": 96,
      "start": 44.3164,
      "duration": 0.4358,
      "velocity": 96,
      "chip": "ym2612"
    },
    {
      "channel": 0,
      "note": 98,
      "start": 44.3627,
      "duration": 0.0311,
      "velocity": 114,
      "chip": "ym2612"
    },
    {
      "channel": 0,
      "note": 98,
      "start": 44.4718,
      "duration": 0.2179,
      "velocity": 127,
      "chip": "ym2612"
    },
    {
      "channel": 0,
      "note": 53,
      "start": 44.6897,
      "duration": 0.0154,
      "velocity": 127,
      "chip": "ym2612"
    },
    {
      "channel": 1,
      "note": 70,
      "start": 44.6898,
      "duration": 0.2179,
      "velocity": 93,
      "chip": "ym2612"
    },
    {
      "channel": 4,
      "note": 94,
      "start": 44.6902,
      "duration": 0.218,
      "velocity": 96,
      "chip": "ym2612"
    },
    {
      "channel": 0,
      "note": 76,
      "start": 44.7051,
      "duration": 0.2025,
      "velocity": 123,
      "chip": "ym2612"
    },
    {
      "channel": 5,
      "note": 94,
      "start": 44.7522,
      "duration": 0.2179,
      "velocity": 96,
      "chip": "ym2612"
    },
    {
      "channel": 0,
      "note": 70,
      "start": 44.9076,
      "duration": 0.2179,
      "velocity": 99,
      "chip": "ym2612"
    },
    {
      "channel": 1,
      "note": 58,
      "start": 44.9077,
      "duration": 0.4358,
      "velocity": 93,
      "chip": "ym2612"
    },
    {
      "channel": 2,
      "note": 46,
      "start": 44.9079,
      "duration": 1.3073,
      "velocity": 111,
      "chip": "ym2612"
    },
    {
      "channel": 4,
      "note": 93,
      "start": 44.9081,
      "duration": 0.4356,
      "velocity": 96,
      "chip": "ym2612"
    },
    {
      "channel": 5,
      "note": 93,
      "start": 44.9701,
      "duration": 0.4357,
      "velocity": 96,
      "chip": "ym2612"
    },
    {
      "channel": 3,
      "note": 46,
      "start": 45.0477,
      "duration": 1.3073,
      "velocity": 111,
      "chip": "ym2612"
    },
    {
      "channel": 0,
      "note": 53,
      "start": 45.1255,
      "duration": 0.2179,
      "velocity": 123,
      "chip": "ym2612"
    },
    {
      "channel": 0,
      "note": 61,
      "start": 45.3434,
      "duration": 0.2179,
      "velocity": 114,
      "chip": "ym2612"
    },
    {
      "channel": 1,
      "note": 60,
      "start": 45.3435,
      "duration": 0.2179,
      "velocity": 93,
      "chip": "ym2612"
    },
    {
      "channel": 4,
      "note": 100,
      "start": 45.3438,
      "duration": 0.2179,
      "velocity": 96,
      "chip": "ym2612"
    },
    {
      "channel": 5,
      "note": 100,
      "start": 45.4059,
      "duration": 0.218,
      "velocity": 96,
      "chip": "ym2612"
    },
    {
      "channel": 0,
      "note": 53,
      "start": 45.5612,
      "duration": 0.0309,
      "velocity": 114,
      "chip": "ym2612"
    },
    {
      "channel": 1,
      "note": 60,
      "start": 45.5614,
      "duration": 0.2179,
      "velocity": 93,
      "chip": "ym2612"
    },
    {
      "channel": 4,
      "note": 98,
      "start": 45.5617,
      "duration": 0.4358,
      "velocity": 96,
      "chip": "ym2612"
    },
    {
      "channel": 5,
      "note": 98,
      "start": 45.6239,
      "duration": 0.4356,
      "velocity": 96,
      "chip": "ym2612"
    },
    {
      "channel": 0,
      "note": 98,
      "start": 45.67,
      "duration": 0.0311,
      "velocity": 114,
      "chip": "ym2612"
    },
    {
      "channel": 0,
      "note": 98,
      "start": 45.7791,
      "duration": 0.2179,
      "velocity": 127,
      "chip": "ym2612"
    },
    {
      "channel": 1,
      "note": 72,
      "start": 45.7793,
      "duration": 0.2179,
      "velocity": 93,
      "chip": "ym2612"
    },
    {
      "channel": 0,
      "note": 53,
      "start": 45.997,
      "duration": 0.0154,
      "velocity": 127,
      "chip": "ym2612"
    },
    {
      "channel": 1,
      "note": 67,
      "start": 45.9971,
      "duration": 0.2179,
      "velocity": 93,
      "chip": "ym2612"
    },
    {
      "channel": 4,
      "note": 96,
      "start": 45.9975,
      "duration": 0.218,
      "velocity": 96,
      "chip": "ym2612"
    },
    {
      "channel": 0,
      "note": 76,
      "start": 46.0124,
      "duration": 0.0934,
      "velocity": 127,
      "chip": "ym2612"
    },
    {
      "channel": 5,
      "note": 96,
      "start": 46.0595,
      "duration": 0.2179,
      "velocity": 96,
      "chip": "ym2612"
    },
    {
      "channel": 0,
      "note": 72,
      "start": 46.1057,
      "duration": 0.0156,
      "velocity": 127,
      "chip": "ym2612"
    },
    {
      "channel": 0,
      "note": 76,
      "start": 46.1213,
      "duration": 0.0936,
      "velocity": 123,
      "chip": "ym2612"
    },
    {
      "channel": 0,
      "note": 72,
      "start": 46.2149,
      "duration": 0.2178,
      "velocity": 99,
      "chip": "ym2612"
    },
    {
      "channel": 1,
      "note": 64,
      "start": 46.2151,
      "duration": 0.4357,
      "velocity": 93,
      "chip": "ym2612"
    },
    {
      "channel": 2,
      "note": 48,
      "start": 46.2152,
      "duration": 1.3073,
      "velocity": 111,
      "chip": "ym2612"
    },
    {
      "channel": 4,
      "note": 94,
      "start": 46.2154,
      "duration": 0.4356,
      "velocity": 96,
      "chip": "ym2612"
    },
    {
      "channel": 5,
      "note": 94,
      "start": 46.2774,
      "duration": 0.4357,
      "velocity": 96,
      "chip": "ym2612"
    },
    {
      "channel": 3,
      "note": 48,
      "start": 46.355,
      "duration": 1.3073,
      "velocity": 111,
      "chip": "ym2612"
    },
    {
      "channel": 0,
      "note": 53,
      "start": 46.4328,
      "duration": 0.2179,
      "velocity": 123,
      "chip": "ym2612"
    },
    {
      "channel": 0,
      "note": 61,
      "start": 46.6507,
      "duration": 0.2179,
      "velocity": 114,
      "chip": "ym2612"
    },
    {
      "channel": 1,
      "note": 63,
      "start": 46.6508,
      "duration": 0.2179,
      "velocity": 93,
      "chip": "ym2612"
    },
    {
      "channel": 4,
      "note": 99,
      "start": 46.6511,
      "duration": 0.2179,
      "velocity": 96,
      "chip": "ym2612"
    },
    {
      "channel": 5,
      "note": 99,
      "start": 46.7132,
      "duration": 0.2178,
      "velocity": 96,
      "chip": "ym2612"
    },
    {
      "channel": 0,
      "note": 53,
      "start": 46.8685,
      "duration": 0.0309,
      "velocity": 114,
      "chip": "ym2612"
    },
    {
      "channel": 1,
      "note": 63,
      "start": 46.8687,
      "duration": 0.2179,
      "velocity": 93,
      "chip": "ym2612"
    },
    {
      "channel": 4,
      "note": 98,
      "start": 46.869,
      "duration": 0.4358,
      "velocity": 96,
      "chip": "ym2612"
    },
    {
      "channel": 5,
      "note": 98,
      "start": 46.931,
      "duration": 0.4358,
      "velocity": 96,
      "chip": "ym2612"
    },
    {
      "channel": 0,
      "note": 98,
      "start": 46.9773,
      "duration": 0.0311,
      "velocity": 114,
      "chip": "ym2612"
    },
    {
      "channel": 0,
      "note": 98,
      "start": 47.0864,
      "duration": 0.2179,
      "velocity": 127,
      "chip": "ym2612"
    },
    {
      "channel": 1,
      "note": 58,
      "start": 47.0866,
      "duration": 0.2179,
      "velocity": 93,
      "chip": "ym2612"
    },
    {
      "channel": 0,
      "note": 53,
      "start": 47.3043,
      "duration": 0.0154,
      "velocity": 127,
      "chip": "ym2612"
    },
    {
      "channel": 1,
      "note": 63,
      "start": 47.3044,
      "duration": 0.2179,
      "velocity": 93,
      "chip": "ym2612"
    },
    {
      "channel": 4,
      "note": 96,
      "start": 47.3048,
      "duration": 0.218,
      "velocity": 96,
      "chip": "ym2612"
    },
    {
      "channel": 0,
      "note": 76,
      "start": 47.3197,
      "duration": 0.2025,
      "velocity": 123,
      "chip": "ym2612"
    },
    {
      "channel": 5,
      "note": 96,
      "start": 47.3668,
      "duration": 0.2179,
      "velocity": 96,
      "chip": "ym2612"
    },
    {
      "channel": 0,
      "note": 70,
      "start": 47.5222,
      "duration": 0.2179,
      "velocity": 99,
      "chip": "ym2612"
    },
    {
      "channel": 1,
      "note": 58,
      "start": 47.5223,
      "duration": 0.4358,
      "velocity": 93,
      "chip": "ym2612"
    },
    {
      "channel": 2,
      "note": 51,
      "start": 47.5225,
      "duration": 0.8719,
      "velocity": 121,
      "chip": "ym2612"
    },
    {
      "channel": 4,
      "note": 94,
      "start": 47.5227,
      "duration": 0.8722,
      "velocity": 96,
      "chip": "ym2612"
    },
    {
      "channel": 5,
      "note": 94,
      "start": 47.5847,
      "duration": 0.8715,
      "velocity": 96,
      "chip": "ym2612"
    },
    {
      "channel": 3,
      "note": 51,
      "start": 47.6623,
      "duration": 0.7324,
      "velocity": 121,
      "chip": "ym2612"
    },
    {
      "channel": 0,
      "note": 53,
      "start": 47.7401,
      "duration": 0.2179,
      "velocity": 123,
      "chip": "ym2612"
    },
    {
      "channel": 0,
      "note": 61,
      "start": 47.958,
      "duration": 0.2179,
      "velocity": 127,
      "chip": "ym2612"
    },
    {
      "channel": 1,
      "note": 65,
      "start": 47.9581,
      "duration": 0.2179,
      "velocity": 93,
      "chip": "ym2612"
    },
    {
      "channel": 0,
      "note": 53,
      "start": 48.1759,
      "duration": 0.0153,
      "velocity": 127,
      "chip": "ym2612"
    },
    {
      "channel": 1,
      "note": 65,
      "start": 48.176,
      "duration": 0.218,
      "velocity": 93,
      "chip": "ym2612"
    },
    {
      "channel": 0,
      "note": 76,
      "start": 48.1912,
      "duration": 0.0934,
      "velocity": 127,
      "chip": "ym2612"
    },
    {
      "channel": 0,
      "note": 72,
      "start": 48.2846,
      "duration": 0.0156,
      "velocity": 127,
      "chip": "ym2612"
    },
    {
      "channel": 0,
      "note": 76,
      "start": 48.3001,
      "duration": 0.0936,
      "velocity": 123,
      "chip": "ym2612"
    },
    {
      "channel": 0,
      "note": 72,
      "start": 48.3938,
      "duration": 0.2178,
      "velocity": 99,
      "chip": "ym2612"
    },
    {
      "channel": 1,
      "note": 61,
      "start": 48.3939,
      "duration": 0.1086,
      "velocity": 93,
      "chip": "ym2612"
    },
    {
      "channel": 2,
      "note": 53,
      "start": 48.3944,
      "duration": 0.0462,
      "velocity": 121,
      "chip": "ym2612"
    },
    {
      "channel": 3,
      "note": 53,
      "start": 48.3948,
      "duration": 0.0459,
      "velocity": 121,
      "chip": "ym2612"
    },
    {
      "channel": 0,
      "note": 53,
      "start": 48.6116,
      "duration": 0.2179,
      "velocity": 127,
      "chip": "ym2612"
    },
    {
      "channel": 2,
      "note": 62,
      "start": 48.6118,
      "duration": 0.0464,
      "velocity": 121,
      "chip": "ym2612"
    },
    {
      "channel": 3,
      "note": 58,
      "start": 48.6119,
      "duration": 0.0464,
      "velocity": 121,
      "chip": "ym2612"
    },
    {
      "channel": 0,
      "note": 61,
      "start": 48.8295,
      "duration": 0.0153,
      "velocity": 127,
      "chip": "ym2612"
    },
    {
      "channel": 1,
      "note": 55,
      "start": 48.8296,
      "duration": 0.2179,
      "velocity": 93,
      "chip": "ym2612"
    },
    {
      "channel": 2,
      "note": 62,
      "start": 48.8297,
      "duration": 0.0464,
      "velocity": 121,
      "chip": "ym2612"
    },
    {
      "channel": 3,
      "note": 58,
      "start": 48.8298,
      "duration": 0.0463,
      "velocity": 121,
      "chip": "ym2612"
    },
    {
      "channel": 0,
      "note": 76,
      "start": 48.8449,
      "duration": 0.2025,
      "velocity": 123,
      "chip": "ym2612"
    },
    {
      "channel": 0,
      "note": 66,
      "start": 49.0474,
      "duration": 0.2179,
      "velocity": 123,
      "chip": "ym2612"
    },
    {
      "channel": 1,
      "note": 58,
      "start": 49.0475,
      "duration": 0.2179,
      "velocity": 93,
      "chip": "ym2612"
    },
    {
      "channel": 2,
      "note": 62,
      "start": 49.0476,
      "duration": 0.0464,
      "velocity": 121,
      "chip": "ym2612"
    },
    {
      "channel": 3,
      "note": 58,
      "start": 49.0477,
      "duration": 0.0464,
      "velocity": 121,
      "chip": "ym2612"
    },
    {
      "channel": 0,
      "note": 53,
      "start": 49.2653,
      "duration": 0.2179,
      "velocity": 114,
      "chip": "ym2612"
    },
    {
      "channel": 1,
      "note": 62,
      "start": 49.2654,
      "duration": 0.1087,
      "velocity": 93,
      "chip": "ym2612"
    },
    {
      "channel": 2,
      "note": 62,
      "start": 49.2655,
      "duration": 0.0464,
      "velocity": 121,
      "chip": "ym2612"
    },
    {
      "channel": 3,
      "note": 58,
      "start": 49.2656,
      "duration": 0.0463,
      "velocity": 121,
      "chip": "ym2612"
    },
    {
      "channel": 0,
      "note": 53,
      "start": 49.4831,
      "duration": 0.0309,
      "velocity": 114,
      "chip": "ym2612"
    },
    {
      "channel": 2,
      "note": 60,
      "start": 49.4833,
      "duration": 0.0464,
      "velocity": 121,
      "chip": "ym2612"
    },
    {
      "channel": 3,
      "note": 57,
      "start": 49.4834,
      "duration": 0.0464,
      "velocity": 121,
      "chip": "ym2612"
    },
    {
      "channel": 0,
      "note": 98,
      "start": 49.5919,
      "duration": 0.0311,
      "velocity": 114,
      "chip": "ym2612"
    },
    {
      "channel": 0,
      "note": 98,
      "start": 49.701,
      "duration": 0.0153,
      "velocity": 127,
      "chip": "ym2612"
    },
    {
      "channel": 1,
      "note": 57,
      "start": 49.7012,
      "duration": 0.2179,
      "velocity": 93,
      "chip": "ym2612"
    },
    {
      "channel": 2,
      "note": 60,
      "start": 49.7013,
      "duration": 0.0464,
      "velocity": 121,
      "chip": "ym2612"
    },
    {
      "channel": 3,
      "note": 57,
      "start": 49.7014,
      "duration": 0.0463,
      "velocity": 121,
      "chip": "ym2612"
    },
    {
      "channel": 0,
      "note": 76,
      "start": 49.7164,
      "duration": 0.2025,
      "velocity": 123,
      "chip": "ym2612"
    },
    {
      "channel": 0,
      "note": 70,
      "start": 49.9189,
      "duration": 0.2179,
      "velocity": 114,
      "chip": "ym2612"
    },
    {
      "channel": 1,
      "note": 53,
      "start": 49.919,
      "duration": 0.4358,
      "velocity": 93,
      "chip": "ym2612"
    },
    {
      "channel": 2,
      "note": 60,
      "start": 49.9192,
      "duration": 0.0464,
      "velocity": 121,
      "chip": "ym2612"
    },
    {
      "channel": 3,
      "note": 57,
      "start": 49.9193,
      "duration": 0.0463,
      "velocity": 121,
      "chip": "ym2612"
    },
    {
      "channel": 0,
      "note": 53,
      "start": 50.1368,
      "duration": 0.0309,
      "velocity": 114,
      "chip": "ym2612"
    },
    {
      "channel": 2,
      "note": 62,
      "start": 50.137,
      "duration": 0.0464,
      "velocity": 121,
      "chip": "ym2612"
    },
    {
      "channel": 3,
      "note": 58,
      "start": 50.1371,
      "duration": 0.0464,
      "velocity": 121,
      "chip": "ym2612"
    },
    {
      "channel": 0,
      "note": 98,
      "start": 50.3547,
      "duration": 0.2179,
      "velocity": 127,
      "chip": "ym2612"
    },
    {
      "channel": 1,
      "note": 58,
      "start": 50.3548,
      "duration": 0.2179,
      "velocity": 93,
      "chip": "ym2612"
    },
    {
      "channel": 2,
      "note": 62,
      "start": 50.3549,
      "duration": 0.0463,
      "velocity": 121,
      "chip": "ym2612"
    },
    {
      "channel": 3,
      "note": 58,
      "start": 50.355,
      "duration": 0.0463,
      "velocity": 121,
      "chip": "ym2612"
    },
    {
      "channel": 0,
      "note": 61,
      "start": 50.5726,
      "duration": 0.0154,
      "velocity": 127,
      "chip": "ym2612"
    },
    {
      "channel": 1,
      "note": 53,
      "start": 50.5727,
      "duration": 0.218,
      "velocity": 93,
      "chip": "ym2612"
    },
    {
      "channel": 2,
      "note": 62,
      "start": 50.5728,
      "duration": 0.0464,
      "velocity": 121,
      "chip": "ym2612"
    },
    {
      "channel": 3,
      "note": 58,
      "start": 50.5729,
      "duration": 0.0464,
      "velocity": 121,
      "chip": "ym2612"
    },
    {
      "channel": 0,
      "note": 76,
      "start": 50.5879,
      "duration": 0.2027,
      "velocity": 123,
      "chip": "ym2612"
    },
    {
      "channel": 0,
      "note": 66,
      "start": 50.7906,
      "duration": 0.2177,
      "velocity": 114,
      "chip": "ym2612"
    },
    {
      "channel": 1,
      "note": 58,
      "start": 50.7907,
      "duration": 0.4356,
      "velocity": 93,
      "chip": "ym2612"
    },
    {
      "channel": 2,
      "note": 62,
      "start": 50.7909,
      "duration": 0.0462,
      "velocity": 121,
      "chip": "ym2612"
    },
    {
      "channel": 3,
      "note": 58,
      "start": 50.791,
      "duration": 0.0462,
      "velocity": 121,
      "chip": "ym2612"
    },
    {
      "channel": 0,
      "note": 53,
      "start": 51.0083,
      "duration": 0.0309,
      "velocity": 114,
      "chip": "ym2612"
    },
    {
      "channel": 2,
      "note": 62,
      "start": 51.0085,
      "duration": 0.0464,
      "velocity": 121,
      "chip": "ym2612"
    },
    {
      "channel": 3,
      "note": 58,
      "start": 51.0087,
      "duration": 0.0463,
      "velocity": 121,
      "chip": "ym2612"
    },
    {
      "channel": 0,
      "note": 98,
      "start": 51.2262,
      "duration": 0.2179,
      "velocity": 127,
      "chip": "ym2612"
    },
    {
      "channel": 1,
      "note": 57,
      "start": 51.2263,
      "duration": 0.2179,
      "velocity": 93,
      "chip": "ym2612"
    },
    {
      "channel": 2,
      "note": 65,
      "start": 51.2265,
      "duration": 0.0464,
      "velocity": 121,
      "chip": "ym2612"
    },
    {
      "channel": 3,
      "note": 57,
      "start": 51.2266,
      "duration": 0.0464,
      "velocity": 121,
      "chip": "ym2612"
    },
    {
      "channel": 0,
      "note": 53,
      "start": 51.4441,
      "duration": 0.0153,
      "velocity": 127,
      "chip": "ym2612"
    },
    {
      "channel": 1,
      "note": 53,
      "start": 51.4442,
      "duration": 0.2179,
      "velocity": 93,
      "chip": "ym2612"
    },
    {
      "channel": 2,
      "note": 65,
      "start": 51.4444,
      "duration": 0.0463,
      "velocity": 121,
      "chip": "ym2612"
    },
    {
      "channel": 3,
      "note": 57,
      "start": 51.4444,
      "duration": 0.0463,
      "velocity": 121,
      "chip": "ym2612"
    },
    {
      "channel": 0,
      "note": 76,
      "start": 51.4595,
      "duration": 0.2025,
      "velocity": 123,
      "chip": "ym2612"
    },
    {
      "channel": 0,
      "note": 70,
      "start": 51.662,
      "duration": 0.2179,
      "velocity": 114,
      "chip": "ym2612"
    },
    {
      "channel": 1,
      "note": 57,
      "start": 51.6621,
      "duration": 0.4357,
      "velocity": 93,
      "chip": "ym2612"
    },
    {
      "channel": 2,
      "note": 65,
      "start": 51.6622,
      "duration": 0.0464,
      "velocity": 121,
      "chip": "ym2612"
    },
    {
      "channel": 3,
      "note": 57,
      "start": 51.6623,
      "duration": 0.0463,
      "velocity": 121,
      "chip": "ym2612"
    },
    {
      "channel": 0,
      "note": 53,
      "start": 51.8799,
      "duration": 0.0309,
      "velocity": 114,
      "chip": "ym2612"
    },
    {
      "channel": 2,
      "note": 65,
      "start": 51.8801,
      "duration": 0.0463,
      "velocity": 121,
      "chip": "ym2612"
    },
    {
      "channel": 3,
      "note": 57,
      "start": 51.8802,
      "duration": 0.0463,
      "velocity": 121,
      "chip": "ym2612"
    },
    {
      "channel": 0,
      "note": 98,
      "start": 52.0978,
      "duration": 0.2179,
      "velocity": 127,
      "chip": "ym2612"
    },
    {
      "channel": 2,
      "note": 63,
      "start": 52.0979,
      "duration": 0.0464,
      "velocity": 121,
      "chip": "ym2612"
    },
    {
      "channel": 3,
      "note": 60,
      "start": 52.098,
      "duration": 0.0464,
      "velocity": 121,
      "chip": "ym2612"
    },
    {
      "channel": 0,
      "note": 61,
      "start": 52.3156,
      "duration": 0.0154,
      "velocity": 127,
      "chip": "ym2612"
    },
    {
      "channel": 1,
      "note": 56,
      "start": 52.3158,
      "duration": 0.2179,
      "velocity": 93,
      "chip": "ym2612"
    },
    {
      "channel": 2,
      "note": 63,
      "start": 52.3159,
      "duration": 0.0464,
      "velocity": 121,
      "chip": "ym2612"
    },
    {
      "channel": 3,
      "note": 60,
      "start": 52.3159,
      "duration": 0.0464,
      "velocity": 121,
      "chip": "ym2612"
    },
    {
      "channel": 0,
      "note": 76,
      "start": 52.331,
      "duration": 0.2025,
      "velocity": 123,
      "chip": "ym2612"
    },
    {
      "channel": 0,
      "note": 66,
      "start": 52.5335,
      "duration": 0.2179,
      "velocity": 123,
      "chip": "ym2612"
    },
    {
      "channel": 1,
      "note": 56,
      "start": 52.5336,
      "duration": 0.2179,
      "velocity": 93,
      "chip": "ym2612"
    },
    {
      "channel": 2,
      "note": 63,
      "start": 52.5337,
      "duration": 0.0464,
      "velocity": 121,
      "chip": "ym2612"
    },
    {
      "channel": 3,
      "note": 60,
      "start": 52.5339,
      "duration": 0.0464,
      "velocity": 121,
      "chip": "ym2612"
    },
    {
      "channel": 0,
      "note": 53,
      "start": 52.7514,
      "duration": 0.2179,
      "velocity": 114,
      "chip": "ym2612"
    },
    {
      "channel": 1,
      "note": 51,
      "start": 52.7515,
      "duration": 0.2179,
      "velocity": 93,
      "chip": "ym2612"
    },
    {
      "channel": 2,
      "note": 63,
      "start": 52.7516,
      "duration": 0.0464,
      "velocity": 121,
      "chip": "ym2612"
    },
    {
      "channel": 3,
      "note": 60,
      "start": 52.7517,
      "duration": 0.0464,
      "velocity": 121,
      "chip": "ym2612"
    },
    {
      "channel": 0,
      "note": 53,
      "start": 52.9693,
      "duration": 0.0309,
      "velocity": 114,
      "chip": "ym2612"
    },
    {
      "channel": 2,
      "note": 63,
      "start": 52.9695,
      "duration": 0.0464,
      "velocity": 121,
      "chip": "ym2612"
    },
    {
      "channel": 3,
      "note": 60,
      "start": 52.9696,
      "duration": 0.0464,
      "velocity": 121,
      "chip": "ym2612"
    },
    {
      "channel": 0,
      "note": 98,
      "start": 53.078,
      "duration": 0.0311,
      "velocity": 114,
      "chip": "ym2612"
    },
    {
      "channel": 0,
      "note": 98,
      "start": 53.1872,
      "duration": 0.0153,
      "velocity": 127,
      "chip": "ym2612"
    },
    {
      "channel": 1,
      "note": 56,
      "start": 53.1873,
      "duration": 0.2179,
      "velocity": 93,
      "chip": "ym2612"
    },
    {
      "channel": 2,
      "note": 63,
      "start": 53.1874,
      "duration": 0.0463,
      "velocity": 121,
      "chip": "ym2612"
    },
    {
      "channel": 3,
      "note": 60,
      "start": 53.1875,
      "duration": 0.0463,
      "velocity": 121,
      "chip": "ym2612"
    },
    {
      "channel": 0,
      "note": 76,
      "start": 53.2025,
      "duration": 0.2025,
      "velocity": 123,
      "chip": "ym2612"
    },
    {
      "channel": 0,
      "note": 70,
      "start": 53.4051,
      "duration": 0.2179,
      "velocity": 114,
      "chip": "ym2612"
    },
    {
      "channel": 1,
      "note": 55,
      "start": 53.4052,
      "duration": 0.4357,
      "velocity": 93,
      "chip": "ym2612"
    },
    {
      "channel": 2,
      "note": 63,
      "start": 53.4053,
      "duration": 0.0463,
      "velocity": 121,
      "chip": "ym2612"
    },
    {
      "channel": 3,
      "note": 60,
      "start": 53.4054,
      "duration": 0.0463,
      "velocity": 121,
      "chip": "ym2612"
    },
    {
      "channel": 0,
      "note": 53,
      "start": 53.6229,
      "duration": 0.0309,
      "velocity": 114,
      "chip": "ym2612"
    },
    {
      "channel": 2,
      "note": 63,
      "start": 53.6231,
      "duration": 0.0464,
      "velocity": 121,
      "chip": "ym2612"
    },
    {
      "channel": 3,
      "note": 60,
      "start": 53.6232,
      "duration": 0.0464,
      "velocity": 121,
      "chip": "ym2612"
    },
    {
      "channel": 0,
      "note": 98,
      "start": 53.8408,
      "duration": 0.2179,
      "velocity": 127,
      "chip": "ym2612"
    },
    {
      "channel": 1,
      "note": 54,
      "start": 53.8409,
      "duration": 0.2179,
      "velocity": 93,
      "chip": "ym2612"
    },
    {
      "channel": 2,
      "note": 66,
      "start": 53.841,
      "duration": 0.0463,
      "velocity": 121,
      "chip": "ym2612"
    },
    {
      "channel": 3,
      "note": 60,
      "start": 53.8412,
      "duration": 0.0463,
      "velocity": 121,
      "chip": "ym2612"
    },
    {
      "channel": 0,
      "note": 61,
      "start": 54.0587,
      "duration": 0.0153,
      "velocity": 127,
      "chip": "ym2612"
    },
    {
      "channel": 1,
      "note": 57,
      "start": 54.0588,
      "duration": 0.2178,
      "velocity": 93,
      "chip": "ym2612"
    },
    {
      "channel": 2,
      "note": 66,
      "start": 54.0589,
      "duration": 0.0464,
      "velocity": 121,
      "chip": "ym2612"
    },
    {
      "channel": 3,
      "note": 60,
      "start": 54.059,
      "duration": 0.0463,
      "velocity": 121,
      "chip": "ym2612"
    },
    {
      "channel": 0,
      "note": 76,
      "start": 54.074,
      "duration": 0.2025,
      "velocity": 123,
      "chip": "ym2612"
    },
    {
      "channel": 0,
      "note": 66,
      "start": 54.2766,
      "duration": 0.2179,
      "velocity": 114,
      "chip": "ym2612"
    },
    {
      "channel": 1,
      "note": 60,
      "start": 54.2767,
      "duration": 0.4358,
      "velocity": 93,
      "chip": "ym2612"
    },
    {
      "channel": 2,
      "note": 66,
      "start": 54.2768,
      "duration": 0.0464,
      "velocity": 121,
      "chip": "ym2612"
    },
    {
      "channel": 3,
      "note": 60,
      "start": 54.2769,
      "duration": 0.0464,
      "velocity": 121,
      "chip": "ym2612"
    },
    {
      "channel": 0,
      "note": 53,
      "start": 54.4945,
      "duration": 0.0309,
      "velocity": 114,
      "chip": "ym2612"
    },
    {
      "channel": 2,
      "note": 66,
      "start": 54.4947,
      "duration": 0.0464,
      "velocity": 121,
      "chip": "ym2612"
    },
    {
      "channel": 3,
      "note": 60,
      "start": 54.4948,
      "duration": 0.0464,
      "velocity": 121,
      "chip": "ym2612"
    },
    {
      "channel": 0,
      "note": 98,
      "start": 54.7123,
      "duration": 0.2179,
      "velocity": 127,
      "chip": "ym2612"
    },
    {
      "channel": 1,
      "note": 63,
      "start": 54.7125,
      "duration": 0.2179,
      "velocity": 93,
      "chip": "ym2612"
    },
    {
      "channel": 2,
      "note": 66,
      "start": 54.7126,
      "duration": 0.0464,
      "velocity": 121,
      "chip": "ym2612"
    },
    {
      "channel": 3,
      "note": 63,
      "start": 54.7127,
      "duration": 0.0464,
      "velocity": 121,
      "chip": "ym2612"
    },
    {
      "channel": 0,
      "note": 53,
      "start": 54.9302,
      "duration": 0.0154,
      "velocity": 127,
      "chip": "ym2612"
    },
    {
      "channel": 1,
      "note": 62,
      "start": 54.9304,
      "duration": 0.2179,
      "velocity": 93,
      "chip": "ym2612"
    },
    {
      "channel": 2,
      "note": 66,
      "start": 54.9305,
      "duration": 0.0464,
      "velocity": 121,
      "chip": "ym2612"
    },
    {
      "channel": 3,
      "note": 63,
      "start": 54.9306,
      "duration": 0.0463,
      "velocity": 121,
      "chip": "ym2612"
    },
    {
      "channel": 0,
      "note": 76,
      "start": 54.9456,
      "duration": 0.2025,
      "velocity": 127,
      "chip": "ym2612"
    },
    {
      "channel": 0,
      "note": 70,
      "start": 55.1481,
      "duration": 0.0153,
      "velocity": 127,
      "chip": "ym2612"
    },
    {
      "channel": 1,
      "note": 60,
      "start": 55.1483,
      "duration": 0.2179,
      "velocity": 93,
      "chip": "ym2612"
    },
    {
      "channel": 2,
      "note": 66,
      "start": 55.1484,
      "duration": 0.0463,
      "velocity": 121,
      "chip": "ym2612"
    },
    {
      "channel": 3,
      "note": 63,
      "start": 55.1485,
      "duration": 0.0463,
      "velocity": 121,
      "chip": "ym2612"
    },
    {
      "channel": 0,
      "note": 76,
      "start": 55.1635,
      "duration": 0.2025,
      "velocity": 123,
      "chip": "ym2612"
    },
    {
      "channel": 0,
      "note": 70,
      "start": 55.366,
      "duration": 0.2178,
      "velocity": 99,
      "chip": "ym2612"
    },
    {
      "channel": 1,
      "note": 57,
      "start": 55.3662,
      "duration": 0.1086,
      "velocity": 93,
      "chip": "ym2612"
    },
    {
      "channel": 2,
      "note": 66,
      "start": 55.3663,
      "duration": 0.0463,
      "velocity": 121,
      "chip": "ym2612"
    },
    {
      "channel": 3,
      "note": 63,
      "start": 55.3664,
      "duration": 0.0463,
      "velocity": 121,
      "chip": "ym2612"
    },
    {
      "channel": 0,
      "note": 53,
      "start": 55.5839,
      "duration": 0.2179,
      "velocity": 127,
      "chip": "ym2612"
    },
    {
      "channel": 2,
      "note": 62,
      "start": 55.5841,
      "duration": 0.0464,
      "velocity": 121,
      "chip": "ym2612"
    },
    {
      "channel": 3,
      "note": 58,
      "start": 55.5842,
      "duration": 0.0464,
      "velocity": 121,
      "chip": "ym2612"
    },
    {
      "channel": 0,
      "note": 61,
      "start": 55.8018,
      "duration": 0.0153,
      "velocity": 127,
      "chip": "ym2612"
    },
    {
      "channel": 1,
      "note": 55,
      "start": 55.8019,
      "duration": 0.2179,
      "velocity": 93,
      "chip": "ym2612"
    },
    {
      "channel": 2,
      "note": 62,
      "start": 55.802,
      "duration": 0.0464,
      "velocity": 121,
      "chip": "ym2612"
    },
    {
      "channel": 3,
      "note": 58,
      "start": 55.8021,
      "duration": 0.0463,
      "velocity": 121,
      "chip": "ym2612"
    },
    {
      "channel": 0,
      "note": 76,
      "start": 55.8171,
      "duration": 0.2025,
      "velocity": 123,
      "chip": "ym2612"
    },
    {
      "channel": 0,
      "note": 66,
      "start": 56.0196,
      "duration": 0.2179,
      "velocity": 123,
      "chip": "ym2612"
    },
    {
      "channel": 1,
      "note": 58,
      "start": 56.0198,
      "duration": 0.2179,
      "velocity": 93,
      "chip": "ym2612"
    },
    {
      "channel": 2,
      "note": 62,
      "start": 56.0199,
      "duration": 0.0464,
      "velocity": 121,
      "chip": "ym2612"
    },
    {
      "channel": 3,
      "note": 58,
      "start": 56.02,
      "duration": 0.0464,
      "velocity": 121,
      "chip": "ym2612"
    },
    {
      "channel": 0,
      "note": 53,
      "start": 56.2375,
      "duration": 0.2179,
      "velocity": 114,
      "chip": "ym2612"
    },
    {
      "channel": 1,
      "note": 62,
      "start": 56.2377,
      "duration": 0.1087,
      "velocity": 93,
      "chip": "ym2612"
    },
    {
      "channel": 2,
      "note": 62,
      "start": 56.2378,
      "duration": 0.0464,
      "velocity": 121,
      "chip": "ym2612"
    },
    {
      "channel": 3,
      "note": 58,
      "start": 56.2379,
      "duration": 0.0463,
      "velocity": 121,
      "chip": "ym2612"
    },
    {
      "channel": 0,
      "note": 53,
      "start": 56.4554,
      "duration": 0.0309,
      "velocity": 114,
      "chip": "ym2612"
    },
    {
      "channel": 2,
      "note": 60,
      "start": 56.4556,
      "duration": 0.0464,
      "velocity": 121,
      "chip": "ym2612"
    },
    {
      "channel": 3,
      "note": 57,
      "start": 56.4557,
      "duration": 0.0464,
      "velocity": 121,
      "chip": "ym2612"
    },
    {
      "channel": 0,
      "note": 98,
      "start": 56.5641,
      "duration": 0.0311,
      "velocity": 114,
      "chip": "ym2612"
    },
    {
      "channel": 0,
      "note": 98,
      "start": 56.6733,
      "duration": 0.0153,
      "velocity": 127,
      "chip": "ym2612"
    },
    {
      "channel": 1,
      "note": 57,
      "start": 56.6734,
      "duration": 0.2179,
      "velocity": 93,
      "chip": "ym2612"
    },
    {
      "channel": 2,
      "note": 60,
      "start": 56.6735,
      "duration": 0.0464,
      "velocity": 121,
      "chip": "ym2612"
    },
    {
      "channel": 3,
      "note": 57,
      "start": 56.6738,
      "duration": 0.0462,
      "velocity": 121,
      "chip": "ym2612"
    },
    {
      "channel": 0,
      "note": 76,
      "start": 56.6886,
      "duration": 0.2025,
      "velocity": 123,
      "chip": "ym2612"
    },
    {
      "channel": 0,
      "note": 70,
      "start": 56.8912,
      "duration": 0.2179,
      "velocity": 114,
      "chip": "ym2612"
    },
    {
      "channel": 1,
      "note": 53,
      "start": 56.8913,
      "duration": 0.4358,
      "velocity": 93,
      "chip": "ym2612"
    },
    {
      "channel": 2,
      "note": 60,
      "start": 56.8914,
      "duration": 0.0464,
      "velocity": 121,
      "chip": "ym2612"
    },
    {
      "channel": 3,
      "note": 57,
      "start": 56.8915,
      "duration": 0.0463,
      "velocity": 121,
      "chip": "ym2612"
    },
    {
      "channel": 0,
      "note": 53,
      "start": 57.109,
      "duration": 0.0309,
      "velocity": 114,
      "chip": "ym2612"
    },
    {
      "channel": 2,
      "note": 62,
      "start": 57.1093,
      "duration": 0.0464,
      "velocity": 121,
      "chip": "ym2612"
    },
    {
      "channel": 3,
      "note": 58,
      "start": 57.1094,
      "duration": 0.0464,
      "velocity": 121,
      "chip": "ym2612"
    },
    {
      "channel": 0,
      "note": 98,
      "start": 57.3269,
      "duration": 0.2179,
      "velocity": 127,
      "chip": "ym2612"
    },
    {
      "channel": 1,
      "note": 58,
      "start": 57.3271,
      "duration": 0.2179,
      "velocity": 93,
      "chip": "ym2612"
    },
    {
      "channel": 2,
      "note": 62,
      "start": 57.3272,
      "duration": 0.0463,
      "velocity": 121,
      "chip": "ym2612"
    },
    {
      "channel": 3,
      "note": 58,
      "start": 57.3273,
      "duration": 0.0465,
      "velocity": 121,
      "chip": "ym2612"
    },
    {
      "channel": 0,
      "note": 61,
      "start": 57.5448,
      "duration": 0.0154,
      "velocity": 127,
      "chip": "ym2612"
    },
    {
      "channel": 1,
      "note": 53,
      "start": 57.545,
      "duration": 0.2179,
      "velocity": 93,
      "chip": "ym2612"
    },
    {
      "channel": 2,
      "note": 62,
      "start": 57.5451,
      "duration": 0.0464,
      "velocity": 121,
      "chip": "ym2612"
    },
    {
      "channel": 3,
      "note": 58,
      "start": 57.5452,
      "duration": 0.0464,
      "velocity": 121,
      "chip": "ym2612"
    },
    {
      "channel": 0,
      "note": 76,
      "start": 57.5602,
      "duration": 0.2025,
      "velocity": 123,
      "chip": "ym2612"
    },
    {
      "channel": 0,
      "note": 66,
      "start": 57.7627,
      "duration": 0.2179,
      "velocity": 114,
      "chip": "ym2612"
    },
    {
      "channel": 1,
      "note": 58,
      "start": 57.7628,
      "duration": 0.4358,
      "velocity": 93,
      "chip": "ym2612"
    },
    {
      "channel": 2,
      "note": 62,
      "start": 57.7629,
      "duration": 0.0464,
      "velocity": 121,
      "chip": "ym2612"
    },
    {
      "channel": 3,
      "note": 58,
      "start": 57.763,
      "duration": 0.0464,
      "velocity": 121,
      "chip": "ym2612"
    },
    {
      "channel": 0,
      "note": 53,
      "start": 57.9806,
      "duration": 0.0309,
      "velocity": 114,
      "chip": "ym2612"
    },
    {
      "channel": 2,
      "note": 62,
      "start": 57.9808,
      "duration": 0.0464,
      "velocity": 121,
      "chip": "ym2612"
    },
    {
      "channel": 3,
      "note": 58,
      "start": 57.9809,
      "duration": 0.0463,
      "velocity": 121,
      "chip": "ym2612"
    },
    {
      "channel": 0,
      "note": 98,
      "start": 58.1985,
      "duration": 0.2179,
      "velocity": 127,
      "chip": "ym2612"
    },
    {
      "channel": 1,
      "note": 57,
      "start": 58.1986,
      "duration": 0.2179,
      "velocity": 93,
      "chip": "ym2612"
    },
    {
      "channel": 2,
      "note": 65,
      "start": 58.1987,
      "duration": 0.0464,
      "velocity": 121,
      "chip": "ym2612"
    },
    {
      "channel": 3,
      "note": 57,
      "start": 58.1988,
      "duration": 0.0464,
      "velocity": 121,
      "chip": "ym2612"
    },
    {
      "channel": 0,
      "note": 53,
      "start": 58.4164,
      "duration": 0.0153,
      "velocity": 127,
      "chip": "ym2612"
    },
    {
      "channel": 1,
      "note": 53,
      "start": 58.4165,
      "duration": 0.2179,
      "velocity": 93,
      "chip": "ym2612"
    },
    {
      "channel": 2,
      "note": 65,
      "start": 58.4166,
      "duration": 0.0463,
      "velocity": 121,
      "chip": "ym2612"
    },
    {
      "channel": 3,
      "note": 57,
      "start": 58.4167,
      "duration": 0.0463,
      "velocity": 121,
      "chip": "ym2612"
    },
    {
      "channel": 0,
      "note": 76,
      "start": 58.4317,
      "duration": 0.2025,
      "velocity": 123,
      "chip": "ym2612"
    },
    {
      "channel": 0,
      "note": 70,
      "start": 58.6342,
      "duration": 0.2179,
      "velocity": 114,
      "chip": "ym2612"
    },
    {
      "channel": 1,
      "note": 57,
      "start": 58.6344,
      "duration": 0.4357,
      "velocity": 93,
      "chip": "ym2612"
    },
    {
      "channel": 2,
      "note": 65,
      "start": 58.6345,
      "duration": 0.0464,
      "velocity": 121,
      "chip": "ym2612"
    },
    {
      "channel": 3,
      "note": 57,
      "start": 58.6346,
      "duration": 0.0463,
      "velocity": 121,
      "chip": "ym2612"
    },
    {
      "channel": 0,
      "note": 53,
      "start": 58.8521,
      "duration": 0.0309,
      "velocity": 114,
      "chip": "ym2612"
    },
    {
      "channel": 2,
      "note": 65,
      "start": 58.8524,
      "duration": 0.0463,
      "velocity": 121,
      "chip": "ym2612"
    },
    {
      "channel": 3,
      "note": 57,
      "start": 58.8525,
      "duration": 0.0463,
      "velocity": 121,
      "chip": "ym2612"
    },
    {
      "channel": 0,
      "note": 98,
      "start": 59.07,
      "duration": 0.2179,
      "velocity": 127,
      "chip": "ym2612"
    },
    {
      "channel": 2,
      "note": 63,
      "start": 59.0702,
      "duration": 0.0464,
      "velocity": 121,
      "chip": "ym2612"
    },
    {
      "channel": 3,
      "note": 60,
      "start": 59.0703,
      "duration": 0.0464,
      "velocity": 121,
      "chip": "ym2612"
    },
    {
      "channel": 0,
      "note": 61,
      "start": 59.2879,
      "duration": 0.0154,
      "velocity": 127,
      "chip": "ym2612"
    },
    {
      "channel": 1,
      "note": 56,
      "start": 59.288,
      "duration": 0.2179,
      "velocity": 93,
      "chip": "ym2612"
    },
    {
      "channel": 2,
      "note": 63,
      "start": 59.2881,
      "duration": 0.0464,
      "velocity": 121,
      "chip": "ym2612"
    },
    {
      "channel": 3,
      "note": 60,
      "start": 59.2882,
      "duration": 0.0464,
      "velocity": 121,
      "chip": "ym2612"
    },
    {
      "channel": 0,
      "note": 76,
      "start": 59.3032,
      "duration": 0.2025,
      "velocity": 123,
      "chip": "ym2612"
    },
    {
      "channel": 0,
      "note": 66,
      "start": 59.5058,
      "duration": 0.218,
      "velocity": 123,
      "chip": "ym2612"
    },
    {
      "channel": 1,
      "note": 56,
      "start": 59.5059,
      "duration": 0.218,
      "velocity": 93,
      "chip": "ym2612"
    },
    {
      "channel": 2,
      "note": 63,
      "start": 59.506,
      "duration": 0.0464,
      "velocity": 121,
      "chip": "ym2612"
    },
    {
      "channel": 3,
      "note": 60,
      "start": 59.5061,
      "duration": 0.0464,
      "velocity": 121,
      "chip": "ym2612"
    },
    {
      "channel": 0,
      "note": 53,
      "start": 59.7238,
      "duration": 0.2177,
      "velocity": 114,
      "chip": "ym2612"
    },
    {
      "channel": 1,
      "note": 51,
      "start": 59.724,
      "duration": 0.2177,
      "velocity": 93,
      "chip": "ym2612"
    },
    {
      "channel": 2,
      "note": 63,
      "start": 59.7241,
      "duration": 0.0462,
      "velocity": 121,
      "chip": "ym2612"
    },
    {
      "channel": 3,
      "note": 60,
      "start": 59.7242,
      "duration": 0.0462,
      "velocity": 121,
      "chip": "ym2612"
    },
    {
      "channel": 0,
      "note": 53,
      "start": 59.9415,
      "duration": 0.0309,
      "velocity": 114,
      "chip": "ym2612"
    },
    {
      "channel": 2,
      "note": 63,
      "start": 59.9417,
      "duration": 0.0464,
      "velocity": 121,
      "chip": "ym2612"
    },
    {
      "channel": 3,
      "note": 60,
      "start": 59.9418,
      "duration": 0.0464,
      "velocity": 121,
      "chip": "ym2612"
    },
    {
      "channel": 0,
      "note": 98,
      "start": 60.0503,
      "duration": 0.0311,
      "velocity": 114,
      "chip": "ym2612"
    },
    {
      "channel": 0,
      "note": 98,
      "start": 60.1594,
      "duration": 0.0153,
      "velocity": 127,
      "chip": "ym2612"
    },
    {
      "channel": 1,
      "note": 56,
      "start": 60.1596,
      "duration": 0.2179,
      "velocity": 93,
      "chip": "ym2612"
    },
    {
      "channel": 2,
      "note": 63,
      "start": 60.1597,
      "duration": 0.0463,
      "velocity": 121,
      "chip": "ym2612"
    },
    {
      "channel": 3,
      "note": 60,
      "start": 60.1598,
      "duration": 0.0464,
      "velocity": 121,
      "chip": "ym2612"
    },
    {
      "channel": 0,
      "note": 76,
      "start": 60.1748,
      "duration": 0.2025,
      "velocity": 123,
      "chip": "ym2612"
    },
    {
      "channel": 0,
      "note": 70,
      "start": 60.3773,
      "duration": 0.2178,
      "velocity": 114,
      "chip": "ym2612"
    },
    {
      "channel": 1,
      "note": 55,
      "start": 60.3775,
      "duration": 0.4357,
      "velocity": 93,
      "chip": "ym2612"
    },
    {
      "channel": 2,
      "note": 63,
      "start": 60.3776,
      "duration": 0.0464,
      "velocity": 121,
      "chip": "ym2612"
    },
    {
      "channel": 3,
      "note": 60,
      "start": 60.3777,
      "duration": 0.0464,
      "velocity": 121,
      "chip": "ym2612"
    },
    {
      "channel": 0,
      "note": 53,
      "start": 60.5952,
      "duration": 0.0309,
      "velocity": 114,
      "chip": "ym2612"
    },
    {
      "channel": 2,
      "note": 63,
      "start": 60.5954,
      "duration": 0.0464,
      "velocity": 121,
      "chip": "ym2612"
    },
    {
      "channel": 3,
      "note": 60,
      "start": 60.5955,
      "duration": 0.0464,
      "velocity": 121,
      "chip": "ym2612"
    },
    {
      "channel": 0,
      "note": 98,
      "start": 60.8131,
      "duration": 0.2179,
      "velocity": 127,
      "chip": "ym2612"
    },
    {
      "channel": 1,
      "note": 54,
      "start": 60.8132,
      "duration": 0.2179,
      "velocity": 93,
      "chip": "ym2612"
    },
    {
      "channel": 2,
      "note": 66,
      "start": 60.8133,
      "duration": 0.0463,
      "velocity": 121,
      "chip": "ym2612"
    },
    {
      "channel": 3,
      "note": 60,
      "start": 60.8134,
      "duration": 0.0463,
      "velocity": 121,
      "chip": "ym2612"
    },
    {
      "channel": 0,
      "note": 61,
      "start": 61.031,
      "duration": 0.0153,
      "velocity": 127,
      "chip": "ym2612"
    },
    {
      "channel": 1,
      "note": 57,
      "start": 61.0311,
      "duration": 0.2178,
      "velocity": 93,
      "chip": "ym2612"
    },
    {
      "channel": 2,
      "note": 66,
      "start": 61.0312,
      "duration": 0.0464,
      "velocity": 121,
      "chip": "ym2612"
    },
    {
      "channel": 3,
      "note": 60,
      "start": 61.0313,
      "duration": 0.0463,
      "velocity": 121,
      "chip": "ym2612"
    },
    {
      "channel": 0,
      "note": 76,
      "start": 61.0463,
      "duration": 0.2025,
      "velocity": 123,
      "chip": "ym2612"
    },
    {
      "channel": 0,
      "note": 66,
      "start": 61.2488,
      "duration": 0.2179,
      "velocity": 114,
      "chip": "ym2612"
    },
    {
      "channel": 1,
      "note": 60,
      "start": 61.249,
      "duration": 0.4358,
      "velocity": 93,
      "chip": "ym2612"
    },
    {
      "channel": 2,
      "note": 66,
      "start": 61.2491,
      "duration": 0.0464,
      "velocity": 121,
      "chip": "ym2612"
    },
    {
      "channel": 3,
      "note": 60,
      "start": 61.2492,
      "duration": 0.0464,
      "velocity": 121,
      "chip": "ym2612"
    },
    {
      "channel": 0,
      "note": 53,
      "start": 61.4667,
      "duration": 0.0309,
      "velocity": 114,
      "chip": "ym2612"
    },
    {
      "channel": 2,
      "note": 66,
      "start": 61.4669,
      "duration": 0.0464,
      "velocity": 121,
      "chip": "ym2612"
    },
    {
      "channel": 3,
      "note": 60,
      "start": 61.467,
      "duration": 0.0464,
      "velocity": 121,
      "chip": "ym2612"
    },
    {
      "channel": 0,
      "note": 98,
      "start": 61.6846,
      "duration": 0.2179,
      "velocity": 127,
      "chip": "ym2612"
    },
    {
      "channel": 1,
      "note": 63,
      "start": 61.6847,
      "duration": 0.2179,
      "velocity": 93,
      "chip": "ym2612"
    },
    {
      "channel": 2,
      "note": 66,
      "start": 61.6849,
      "duration": 0.0464,
      "velocity": 121,
      "chip": "ym2612"
    },
    {
      "channel": 3,
      "note": 63,
      "start": 61.6849,
      "duration": 0.0464,
      "velocity": 121,
      "chip": "ym2612"
    },
    {
      "channel": 0,
      "note": 53,
      "start": 61.9025,
      "duration": 0.0154,
      "velocity": 127,
      "chip": "ym2612"
    },
    {
      "channel": 1,
      "note": 62,
      "start": 61.9026,
      "duration": 0.2179,
      "velocity": 93,
      "chip": "ym2612"
    },
    {
      "channel": 2,
      "note": 66,
      "start": 61.9027,
      "duration": 0.0464,
      "velocity": 121,
      "chip": "ym2612"
    },
    {
      "channel": 3,
      "note": 63,
      "start": 61.9028,
      "duration": 0.0464,
      "velocity": 121,
      "chip": "ym2612"
    },
    {
      "channel": 0,
      "note": 76,
      "start": 61.9178,
      "duration": 0.2025,
      "velocity": 127,
      "chip": "ym2612"
    },
    {
      "channel": 0,
      "note": 70,
      "start": 62.1204,
      "duration": 0.0153,
      "velocity": 127,
      "chip": "ym2612"
    },
    {
      "channel": 1,
      "note": 60,
      "start": 62.1205,
      "duration": 0.2179,
      "velocity": 93,
      "chip": "ym2612"
    },
    {
      "channel": 2,
      "note": 66,
      "start": 62.1206,
      "duration": 0.0463,
      "velocity": 121,
      "chip": "ym2612"
    },
    {
      "channel": 3,
      "note": 63,
      "start": 62.1207,
      "duration": 0.0463,
      "velocity": 121,
      "chip": "ym2612"
    },
    {
      "channel": 0,
      "note": 76,
      "start": 62.1357,
      "duration": 0.2025,
      "velocity": 123,
      "chip": "ym2612"
    },
    {
      "channel": 0,
      "note": 70,
      "start": 62.3383,
      "duration": 0.2178,
      "velocity": 99,
      "chip": "ym2612"
    },
    {
      "channel": 1,
      "note": 57,
      "start": 62.3384,
      "duration": 0.1086,
      "velocity": 93,
      "chip": "ym2612"
    },
    {
      "channel": 2,
      "note": 66,
      "start": 62.3386,
      "duration": 0.0463,
      "velocity": 121,
      "chip": "ym2612"
    },
    {
      "channel": 3,
      "note": 63,
      "start": 62.3387,
      "duration": 0.0463,
      "velocity": 121,
      "chip": "ym2612"
    },
    {
      "channel": 0,
      "note": 53,
      "start": 62.5561,
      "duration": 0.2179,
      "velocity": 127,
      "chip": "ym2612"
    },
    {
      "channel": 2,
      "note": 62,
      "start": 62.5563,
      "duration": 0.0464,
      "velocity": 121,
      "chip": "ym2612"
    },
    {
      "channel": 3,
      "note": 58,
      "start": 62.5564,
      "duration": 0.0464,
      "velocity": 121,
      "chip": "ym2612"
    },
    {
      "channel": 0,
      "note": 61,
      "start": 62.7741,
      "duration": 0.0153,
      "velocity": 127,
      "chip": "ym2612"
    },
    {
      "channel": 1,
      "note": 55,
      "start": 62.7742,
      "duration": 0.2178,
      "velocity": 93,
      "chip": "ym2612"
    },
    {
      "channel": 2,
      "note": 62,
      "start": 62.7743,
      "duration": 0.0463,
      "velocity": 121,
      "chip": "ym2612"
    },
    {
      "channel": 3,
      "note": 58,
      "start": 62.7744,
      "duration": 0.0463,
      "velocity": 121,
      "chip": "ym2612"
    },
    {
      "channel": 0,
      "note": 76,
      "start": 62.7894,
      "duration": 0.2025,
      "velocity": 123,
      "chip": "ym2612"
    },
    {
      "channel": 0,
      "note": 66,
      "start": 62.9919,
      "duration": 0.2179,
      "velocity": 123,
      "chip": "ym2612"
    },
    {
      "channel": 1,
      "note": 58,
      "start": 62.992,
      "duration": 0.2179,
      "velocity": 93,
      "chip": "ym2612"
    },
    {
      "channel": 2,
      "note": 62,
      "start": 62.9922,
      "duration": 0.0464,
      "velocity": 121,
      "chip": "ym2612"
    },
    {
      "channel": 3,
      "note": 58,
      "start": 62.9922,
      "duration": 0.0464,
      "velocity": 121,
      "chip": "ym2612"
    },
    {
      "channel": 0,
      "note": 53,
      "start": 63.2098,
      "duration": 0.2179,
      "velocity": 114,
      "chip": "ym2612"
    },
    {
      "channel": 1,
      "note": 62,
      "start": 63.2099,
      "duration": 0.1087,
      "velocity": 93,
      "chip": "ym2612"
    },
    {
      "channel": 2,
      "note": 62,
      "start": 63.21,
      "duration": 0.0464,
      "velocity": 121,
      "chip": "ym2612"
    },
    {
      "channel": 3,
      "note": 58,
      "start": 63.2102,
      "duration": 0.0463,
      "velocity": 121,
      "chip": "ym2612"
    },
    {
      "channel": 0,
      "note": 53,
      "start": 63.4277,
      "duration": 0.0309,
      "velocity": 114,
      "chip": "ym2612"
    },
    {
      "channel": 2,
      "note": 60,
      "start": 63.4279,
      "duration": 0.0464,
      "velocity": 121,
      "chip": "ym2612"
    },
    {
      "channel": 3,
      "note": 57,
      "start": 63.428,
      "duration": 0.0464,
      "velocity": 121,
      "chip": "ym2612"
    },
    {
      "channel": 0,
      "note": 98,
      "start": 63.5364,
      "duration": 0.0311,
      "velocity": 114,
      "chip": "ym2612"
    },
    {
      "channel": 0,
      "note": 98,
      "start": 63.6456,
      "duration": 0.0153,
      "velocity": 127,
      "chip": "ym2612"
    },
    {
      "channel": 1,
      "note": 57,
      "start": 63.6457,
      "duration": 0.2179,
      "velocity": 93,
      "chip": "ym2612"
    },
    {
      "channel": 2,
      "note": 60,
      "start": 63.6458,
      "duration": 0.0464,
      "velocity": 121,
      "chip": "ym2612"
    },
    {
      "channel": 3,
      "note": 57,
      "start": 63.6459,
      "duration": 0.0464,
      "velocity": 121,
      "chip": "ym2612"
    },
    {
      "channel": 0,
      "note": 76,
      "start": 63.6609,
      "duration": 0.2025,
      "velocity": 123,
      "chip": "ym2612"
    },
    {
      "channel": 0,
      "note": 70,
      "start": 63.8634,
      "duration": 0.2179,
      "velocity": 114,
      "chip": "ym2612"
    },
    {
      "channel": 1,
      "note": 53,
      "start": 63.8636,
      "duration": 0.4358,
      "velocity": 93,
      "chip": "ym2612"
    },
    {
      "channel": 2,
      "note": 60,
      "start": 63.8637,
      "duration": 0.0464,
      "velocity": 121,
      "chip": "ym2612"
    },
    {
      "channel": 3,
      "note": 57,
      "start": 63.8638,
      "duration": 0.0463,
      "velocity": 121,
      "chip": "ym2612"
    },
    {
      "channel": 0,
      "note": 53,
      "start": 64.0813,
      "duration": 0.0309,
      "velocity": 114,
      "chip": "ym2612"
    },
    {
      "channel": 2,
      "note": 62,
      "start": 64.0815,
      "duration": 0.0464,
      "velocity": 121,
      "chip": "ym2612"
    },
    {
      "channel": 3,
      "note": 58,
      "start": 64.0816,
      "duration": 0.0464,
      "velocity": 121,
      "chip": "ym2612"
    },
    {
      "channel": 0,
      "note": 98,
      "start": 64.2992,
      "duration": 0.2179,
      "velocity": 127,
      "chip": "ym2612"
    },
    {
      "channel": 1,
      "note": 58,
      "start": 64.2993,
      "duration": 0.2179,
      "velocity": 93,
      "chip": "ym2612"
    },
    {
      "channel": 2,
      "note": 62,
      "start": 64.2995,
      "duration": 0.0463,
      "velocity": 121,
      "chip": "ym2612"
    },
    {
      "channel": 3,
      "note": 58,
      "start": 64.2995,
      "duration": 0.0463,
      "velocity": 121,
      "chip": "ym2612"
    },
    {
      "channel": 0,
      "note": 61,
      "start": 64.5171,
      "duration": 0.0154,
      "velocity": 127,
      "chip": "ym2612"
    },
    {
      "channel": 1,
      "note": 53,
      "start": 64.5172,
      "duration": 0.2179,
      "velocity": 93,
      "chip": "ym2612"
    },
    {
      "channel": 2,
      "note": 62,
      "start": 64.5173,
      "duration": 0.0464,
      "velocity": 121,
      "chip": "ym2612"
    },
    {
      "channel": 3,
      "note": 58,
      "start": 64.5174,
      "duration": 0.0464,
      "velocity": 121,
      "chip": "ym2612"
    },
    {
      "channel": 0,
      "note": 76,
      "start": 64.5324,
      "duration": 0.2025,
      "velocity": 123,
      "chip": "ym2612"
    },
    {
      "channel": 0,
      "note": 66,
      "start": 64.735,
      "duration": 0.2179,
      "velocity": 114,
      "chip": "ym2612"
    },
    {
      "channel": 1,
      "note": 58,
      "start": 64.7351,
      "duration": 0.4358,
      "velocity": 93,
      "chip": "ym2612"
    },
    {
      "channel": 2,
      "note": 62,
      "start": 64.7352,
      "duration": 0.0464,
      "velocity": 121,
      "chip": "ym2612"
    },
    {
      "channel": 3,
      "note": 58,
      "start": 64.7353,
      "duration": 0.0464,
      "velocity": 121,
      "chip": "ym2612"
    },
    {
      "channel": 0,
      "note": 53,
      "start": 64.9529,
      "duration": 0.0309,
      "velocity": 114,
      "chip": "ym2612"
    },
    {
      "channel": 2,
      "note": 62,
      "start": 64.9531,
      "duration": 0.0464,
      "velocity": 121,
      "chip": "ym2612"
    },
    {
      "channel": 3,
      "note": 58,
      "start": 64.9532,
      "duration": 0.0463,
      "velocity": 121,
      "chip": "ym2612"
    },
    {
      "channel": 0,
      "note": 98,
      "start": 65.1707,
      "duration": 0.2179,
      "velocity": 127,
      "chip": "ym2612"
    },
    {
      "channel": 1,
      "note": 57,
      "start": 65.1709,
      "duration": 0.2179,
      "velocity": 93,
      "chip": "ym2612"
    },
    {
      "channel": 2,
      "note": 65,
      "start": 65.171,
      "duration": 0.0464,
      "velocity": 121,
      "chip": "ym2612"
    },
    {
      "channel": 3,
      "note": 57,
      "start": 65.1711,
      "duration": 0.0464,
      "velocity": 121,
      "chip": "ym2612"
    },
    {
      "channel": 0,
      "note": 53,
      "start": 65.3886,
      "duration": 0.0153,
      "velocity": 127,
      "chip": "ym2612"
    },
    {
      "channel": 1,
      "note": 53,
      "start": 65.3888,
      "duration": 0.2179,
      "velocity": 93,
      "chip": "ym2612"
    },
    {
      "channel": 2,
      "note": 65,
      "start": 65.3889,
      "duration": 0.0463,
      "velocity": 121,
      "chip": "ym2612"
    },
    {
      "channel": 3,
      "note": 57,
      "start": 65.389,
      "duration": 0.0463,
      "velocity": 121,
      "chip": "ym2612"
    },
    {
      "channel": 0,
      "note": 76,
      "start": 65.404,
      "duration": 0.2025,
      "velocity": 123,
      "chip": "ym2612"
    },
    {
      "channel": 0,
      "note": 70,
      "start": 65.6065,
      "duration": 0.2179,
      "velocity": 114,
      "chip": "ym2612"
    },
    {
      "channel": 1,
      "note": 57,
      "start": 65.6066,
      "duration": 0.4357,
      "velocity": 93,
      "chip": "ym2612"
    },
    {
      "channel": 2,
      "note": 65,
      "start": 65.6068,
      "duration": 0.0464,
      "velocity": 121,
      "chip": "ym2612"
    },
    {
      "channel": 3,
      "note": 57,
      "start": 65.6069,
      "duration": 0.0463,
      "velocity": 121,
      "chip": "ym2612"
    },
    {
      "channel": 0,
      "note": 53,
      "start": 65.8244,
      "duration": 0.0309,
      "velocity": 114,
      "chip": "ym2612"
    },
    {
      "channel": 2,
      "note": 65,
      "start": 65.8246,
      "duration": 0.0463,
      "velocity": 121,
      "chip": "ym2612"
    },
    {
      "channel": 3,
      "note": 57,
      "start": 65.8248,
      "duration": 0.0463,
      "velocity": 121,
      "chip": "ym2612"
    },
    {
      "channel": 0,
      "note": 98,
      "start": 66.0423,
      "duration": 0.2179,
      "velocity": 127,
      "chip": "ym2612"
    },
    {
      "channel": 2,
      "note": 63,
      "start": 66.0425,
      "duration": 0.0464,
      "velocity": 121,
      "chip": "ym2612"
    },
    {
      "channel": 3,
      "note": 60,
      "start": 66.0426,
      "duration": 0.0464,
      "velocity": 121,
      "chip": "ym2612"
    },
    {
      "channel": 0,
      "note": 61,
      "start": 66.2602,
      "duration": 0.0154,
      "velocity": 127,
      "chip": "ym2612"
    },
    {
      "channel": 1,
      "note": 56,
      "start": 66.2603,
      "duration": 0.2179,
      "velocity": 93,
      "chip": "ym2612"
    },
    {
      "channel": 2,
      "note": 63,
      "start": 66.2604,
      "duration": 0.0464,
      "velocity": 121,
      "chip": "ym2612"
    },
    {
      "channel": 3,
      "note": 60,
      "start": 66.2605,
      "duration": 0.0464,
      "velocity": 121,
      "chip": "ym2612"
    },
    {
      "channel": 0,
      "note": 76,
      "start": 66.2755,
      "duration": 0.2025,
      "velocity": 123,
      "chip": "ym2612"
    },
    {
      "channel": 0,
      "note": 66,
      "start": 66.478,
      "duration": 0.2179,
      "velocity": 123,
      "chip": "ym2612"
    },
    {
      "channel": 1,
      "note": 56,
      "start": 66.4782,
      "duration": 0.2179,
      "velocity": 93,
      "chip": "ym2612"
    },
    {
      "channel": 2,
      "note": 63,
      "start": 66.4783,
      "duration": 0.0464,
      "velocity": 121,
      "chip": "ym2612"
    },
    {
      "channel": 3,
      "note": 60,
      "start": 66.4784,
      "duration": 0.0464,
      "velocity": 121,
      "chip": "ym2612"
    },
    {
      "channel": 0,
      "note": 53,
      "start": 66.6959,
      "duration": 0.2179,
      "velocity": 114,
      "chip": "ym2612"
    },
    {
      "channel": 1,
      "note": 51,
      "start": 66.6961,
      "duration": 0.2179,
      "velocity": 93,
      "chip": "ym2612"
    },
    {
      "channel": 2,
      "note": 63,
      "start": 66.6962,
      "duration": 0.0464,
      "velocity": 121,
      "chip": "ym2612"
    },
    {
      "channel": 3,
      "note": 60,
      "start": 66.6963,
      "duration": 0.0464,
      "velocity": 121,
      "chip": "ym2612"
    },
    {
      "channel": 0,
      "note": 53,
      "start": 66.9138,
      "duration": 0.0309,
      "velocity": 114,
      "chip": "ym2612"
    },
    {
      "channel": 2,
      "note": 63,
      "start": 66.914,
      "duration": 0.0464,
      "velocity": 121,
      "chip": "ym2612"
    },
    {
      "channel": 3,
      "note": 60,
      "start": 66.9141,
      "duration": 0.0464,
      "velocity": 121,
      "chip": "ym2612"
    },
    {
      "channel": 0,
      "note": 98,
      "start": 67.0225,
      "duration": 0.0311,
      "velocity": 114,
      "chip": "ym2612"
    },
    {
      "channel": 0,
      "note": 98,
      "start": 67.1317,
      "duration": 0.0153,
      "velocity": 127,
      "chip": "ym2612"
    },
    {
      "channel": 1,
      "note": 56,
      "start": 67.1318,
      "duration": 0.2179,
      "velocity": 93,
      "chip": "ym2612"
    },
    {
      "channel": 2,
      "note": 63,
      "start": 67.132,
      "duration": 0.0463,
      "velocity": 121,
      "chip": "ym2612"
    },
    {
      "channel": 3,
      "note": 60,
      "start": 67.132,
      "duration": 0.0463,
      "velocity": 121,
      "chip": "ym2612"
    },
    {
      "channel": 0,
      "note": 76,
      "start": 67.1471,
      "duration": 0.2025,
      "velocity": 123,
      "chip": "ym2612"
    },
    {
      "channel": 0,
      "note": 70,
      "start": 67.3496,
      "duration": 0.2178,
      "velocity": 114,
      "chip": "ym2612"
    },
    {
      "channel": 1,
      "note": 55,
      "start": 67.3497,
      "duration": 0.4357,
      "velocity": 93,
      "chip": "ym2612"
    },
    {
      "channel": 2,
      "note": 63,
      "start": 67.3498,
      "duration": 0.0463,
      "velocity": 121,
      "chip": "ym2612"
    },
    {
      "channel": 3,
      "note": 60,
      "start": 67.3499,
      "duration": 0.0463,
      "velocity": 121,
      "chip": "ym2612"
    },
    {
      "channel": 0,
      "note": 53,
      "start": 67.5675,
      "duration": 0.0309,
      "velocity": 114,
      "chip": "ym2612"
    },
    {
      "channel": 2,
      "note": 63,
      "start": 67.5677,
      "duration": 0.0464,
      "velocity": 121,
      "chip": "ym2612"
    },
    {
      "channel": 3,
      "note": 60,
      "start": 67.5678,
      "duration": 0.0464,
      "velocity": 121,
      "chip": "ym2612"
    },
    {
      "channel": 0,
      "note": 98,
      "start": 67.7854,
      "duration": 0.2179,
      "velocity": 127,
      "chip": "ym2612"
    },
    {
      "channel": 1,
      "note": 54,
      "start": 67.7855,
      "duration": 0.2179,
      "velocity": 93,
      "chip": "ym2612"
    },
    {
      "channel": 2,
      "note": 66,
      "start": 67.7856,
      "duration": 0.0463,
      "velocity": 121,
      "chip": "ym2612"
    },
    {
      "channel": 3,
      "note": 60,
      "start": 67.7857,
      "duration": 0.0463,
      "velocity": 121,
      "chip": "ym2612"
    },
    {
      "channel": 0,
      "note": 61,
      "start": 68.0032,
      "duration": 0.0153,
      "velocity": 127,
      "chip": "ym2612"
    },
    {
      "channel": 1,
      "note": 57,
      "start": 68.0034,
      "duration": 0.2178,
      "velocity": 93,
      "chip": "ym2612"
    },
    {
      "channel": 2,
      "note": 66,
      "start": 68.0035,
      "duration": 0.0464,
      "velocity": 121,
      "chip": "ym2612"
    },
    {
      "channel": 3,
      "note": 60,
      "start": 68.0036,
      "duration": 0.0463,
      "velocity": 121,
      "chip": "ym2612"
    },
    {
      "channel": 0,
      "note": 76,
      "start": 68.0186,
      "duration": 0.2025,
      "velocity": 123,
      "chip": "ym2612"
    },
    {
      "channel": 0,
      "note": 66,
      "start": 68.2211,
      "duration": 0.2179,
      "velocity": 114,
      "chip": "ym2612"
    },
    {
      "channel": 1,
      "note": 60,
      "start": 68.2212,
      "duration": 0.4359,
      "velocity": 93,
      "chip": "ym2612"
    },
    {
      "channel": 2,
      "note": 66,
      "start": 68.2213,
      "duration": 0.0464,
      "velocity": 121,
      "chip": "ym2612"
    },
    {
      "channel": 3,
      "note": 60,
      "start": 68.2215,
      "duration": 0.0464,
      "velocity": 121,
      "chip": "ym2612"
    },
    {
      "channel": 0,
      "note": 53,
      "start": 68.439,
      "duration": 0.0309,
      "velocity": 114,
      "chip": "ym2612"
    },
    {
      "channel": 2,
      "note": 66,
      "start": 68.4392,
      "duration": 0.0464,
      "velocity": 121,
      "chip": "ym2612"
    },
    {
      "channel": 3,
      "note": 60,
      "start": 68.4393,
      "duration": 0.0464,
      "velocity": 121,
      "chip": "ym2612"
    },
    {
      "channel": 0,
      "note": 98,
      "start": 68.6569,
      "duration": 0.2179,
      "velocity": 127,
      "chip": "ym2612"
    },
    {
      "channel": 1,
      "note": 63,
      "start": 68.6572,
      "duration": 0.2177,
      "velocity": 93,
      "chip": "ym2612"
    },
    {
      "channel": 2,
      "note": 66,
      "start": 68.6573,
      "duration": 0.0462,
      "velocity": 121,
      "chip": "ym2612"
    },
    {
      "channel": 3,
      "note": 63,
      "start": 68.6574,
      "duration": 0.0462,
      "velocity": 121,
      "chip": "ym2612"
    },
    {
      "channel": 0,
      "note": 53,
      "start": 68.8748,
      "duration": 0.0154,
      "velocity": 127,
      "chip": "ym2612"
    },
    {
      "channel": 1,
      "note": 62,
      "start": 68.8749,
      "duration": 0.2179,
      "velocity": 93,
      "chip": "ym2612"
    },
    {
      "channel": 2,
      "note": 66,
      "start": 68.875,
      "duration": 0.0464,
      "velocity": 121,
      "chip": "ym2612"
    },
    {
      "channel": 3,
      "note": 63,
      "start": 68.8751,
      "duration": 0.0464,
      "velocity": 121,
      "chip": "ym2612"
    },
    {
      "channel": 0,
      "note": 76,
      "start": 68.8901,
      "duration": 0.2025,
      "velocity": 127,
      "chip": "ym2612"
    },
    {
      "channel": 0,
      "note": 70,
      "start": 69.0927,
      "duration": 0.0153,
      "velocity": 127,
      "chip": "ym2612"
    },
    {
      "channel": 1,
      "note": 60,
      "start": 69.0928,
      "duration": 0.2179,
      "velocity": 93,
      "chip": "ym2612"
    },
    {
      "channel": 2,
      "note": 66,
      "start": 69.0929,
      "duration": 0.0463,
      "velocity": 121,
      "chip": "ym2612"
    },
    {
      "channel": 3,
      "note": 63,
      "start": 69.093,
      "duration": 0.0463,
      "velocity": 121,
      "chip": "ym2612"
    },
    {
      "channel": 0,
      "note": 76,
      "start": 69.108,
      "duration": 0.2025,
      "velocity": 123,
      "chip": "ym2612"
    },
    {
      "channel": 0,
      "note": 70,
      "start": 69.3105,
      "duration": 0.2178,
      "velocity": 99,
      "chip": "ym2612"
    },
    {
      "channel": 1,
      "note": 57,
      "start": 69.3107,
      "duration": 0.1086,
      "velocity": 93,
      "chip": "ym2612"
    },
    {
      "channel": 2,
      "note": 66,
      "start": 69.3108,
      "duration": 0.0465,
      "velocity": 121,
      "chip": "ym2612"
    },
    {
      "channel": 3,
      "note": 63,
      "start": 69.311,
      "duration": 0.0464,
      "velocity": 121,
      "chip": "ym2612"
    },
    {
      "channel": 0,
      "note": 53,
      "start": 69.5284,
      "duration": 0.2179,
      "velocity": 127,
      "chip": "ym2612"
    },
    {
      "channel": 2,
      "note": 62,
      "start": 69.5286,
      "duration": 0.0464,
      "velocity": 121,
      "chip": "ym2612"
    },
    {
      "channel": 3,
      "note": 58,
      "start": 69.5287,
      "duration": 0.0464,
      "velocity": 121,
      "chip": "ym2612"
    },
    {
      "channel": 0,
      "note": 61,
      "start": 69.7463,
      "duration": 0.0153,
      "velocity": 127,
      "chip": "ym2612"
    },
    {
      "channel": 1,
      "note": 55,
      "start": 69.7464,
      "duration": 0.2179,
      "velocity": 93,
      "chip": "ym2612"
    },
    {
      "channel": 2,
      "note": 62,
      "start": 69.7465,
      "duration": 0.0464,
      "velocity": 121,
      "chip": "ym2612"
    },
    {
      "channel": 3,
      "note": 58,
      "start": 69.7466,
      "duration": 0.0463,
      "velocity": 121,
      "chip": "ym2612"
    },
    {
      "channel": 0,
      "note": 76,
      "start": 69.7617,
      "duration": 0.2025,
      "velocity": 123,
      "chip": "ym2612"
    },
    {
      "channel": 0,
      "note": 66,
      "start": 69.9642,
      "duration": 0.2179,
      "velocity": 123,
      "chip": "ym2612"
    },
    {
      "channel": 1,
      "note": 58,
      "start": 69.9643,
      "duration": 0.2179,
      "velocity": 93,
      "chip": "ym2612"
    },
    {
      "channel": 2,
      "note": 62,
      "start": 69.9644,
      "duration": 0.0464,
      "velocity": 121,
      "chip": "ym2612"
    },
    {
      "channel": 3,
      "note": 58,
      "start": 69.9645,
      "duration": 0.0464,
      "velocity": 121,
      "chip": "ym2612"
    },
    {
      "channel": 0,
      "note": 53,
      "start": 70.182,
      "duration": 0.2179,
      "velocity": 114,
      "chip": "ym2612"
    },
    {
      "channel": 1,
      "note": 62,
      "start": 70.1822,
      "duration": 0.1087,
      "velocity": 93,
      "chip": "ym2612"
    },
    {
      "channel": 2,
      "note": 62,
      "start": 70.1823,
      "duration": 0.0464,
      "velocity": 121,
      "chip": "ym2612"
    },
    {
      "channel": 3,
      "note": 58,
      "start": 70.1824,
      "duration": 0.0463,
      "velocity": 121,
      "chip": "ym2612"
    },
    {
      "channel": 0,
      "note": 53,
      "start": 70.3999,
      "duration": 0.0309,
      "velocity": 114,
      "chip": "ym2612"
    },
    {
      "channel": 2,
      "note": 60,
      "start": 70.4001,
      "duration": 0.0464,
      "velocity": 121,
      "chip": "ym2612"
    },
    {
      "channel": 3,
      "note": 57,
      "start": 70.4002,
      "duration": 0.0464,
      "velocity": 121,
      "chip": "ym2612"
    },
    {
      "channel": 0,
      "note": 98,
      "start": 70.5087,
      "duration": 0.0311,
      "velocity": 114,
      "chip": "ym2612"
    },
    {
      "channel": 0,
      "note": 98,
      "start": 70.6178,
      "duration": 0.0153,
      "velocity": 127,
      "chip": "ym2612"
    },
    {
      "channel": 1,
      "note": 57,
      "start": 70.618,
      "duration": 0.2179,
      "velocity": 93,
      "chip": "ym2612"
    },
    {
      "channel": 2,
      "note": 60,
      "start": 70.6181,
      "duration": 0.0464,
      "velocity": 121,
      "chip": "ym2612"
    },
    {
      "channel": 3,
      "note": 57,
      "start": 70.6182,
      "duration": 0.0463,
      "velocity": 121,
      "chip": "ym2612"
    },
    {
      "channel": 0,
      "note": 76,
      "start": 70.6332,
      "duration": 0.2025,
      "velocity": 123,
      "chip": "ym2612"
    },
    {
      "channel": 0,
      "note": 70,
      "start": 70.8357,
      "duration": 0.2179,
      "velocity": 114,
      "chip": "ym2612"
    },
    {
      "channel": 1,
      "note": 53,
      "start": 70.8359,
      "duration": 0.4357,
      "velocity": 93,
      "chip": "ym2612"
    },
    {
      "channel": 2,
      "note": 60,
      "start": 70.836,
      "duration": 0.0464,
      "velocity": 121,
      "chip": "ym2612"
    },
    {
      "channel": 3,
      "note": 57,
      "start": 70.8361,
      "duration": 0.0463,
      "velocity": 121,
      "chip": "ym2612"
    },
    {
      "channel": 0,
      "note": 53,
      "start": 71.0536,
      "duration": 0.0309,
      "velocity": 114,
      "chip": "ym2612"
    },
    {
      "channel": 2,
      "note": 62,
      "start": 71.0538,
      "duration": 0.0464,
      "velocity": 121,
      "chip": "ym2612"
    },
    {
      "channel": 3,
      "note": 58,
      "start": 71.0539,
      "duration": 0.0464,
      "velocity": 121,
      "chip": "ym2612"
    },
    {
      "channel": 0,
      "note": 98,
      "start": 71.2715,
      "duration": 0.2179,
      "velocity": 127,
      "chip": "ym2612"
    },
    {
      "channel": 1,
      "note": 58,
      "start": 71.2716,
      "duration": 0.2179,
      "velocity": 93,
      "chip": "ym2612"
    },
    {
      "channel": 2,
      "note": 62,
      "start": 71.2717,
      "duration": 0.0463,
      "velocity": 121,
      "chip": "ym2612"
    },
    {
      "channel": 3,
      "note": 58,
      "start": 71.2718,
      "duration": 0.0463,
      "velocity": 121,
      "chip": "ym2612"
    },
    {
      "channel": 0,
      "note": 61,
      "start": 71.4894,
      "duration": 0.0154,
      "velocity": 127,
      "chip": "ym2612"
    },
    {
      "channel": 1,
      "note": 53,
      "start": 71.4895,
      "duration": 0.218,
      "velocity": 93,
      "chip": "ym2612"
    },
    {
      "channel": 2,
      "note": 62,
      "start": 71.4896,
      "duration": 0.0464,
      "velocity": 121,
      "chip": "ym2612"
    },
    {
      "channel": 3,
      "note": 58,
      "start": 71.4897,
      "duration": 0.0464,
      "velocity": 121,
      "chip": "ym2612"
    },
    {
      "channel": 0,
      "note": 76,
      "start": 71.5047,
      "duration": 0.2027,
      "velocity": 123,
      "chip": "ym2612"
    },
    {
      "channel": 0,
      "note": 66,
      "start": 71.7074,
      "duration": 0.2177,
      "velocity": 114,
      "chip": "ym2612"
    },
    {
      "channel": 1,
      "note": 58,
      "start": 71.7075,
      "duration": 0.4356,
      "velocity": 93,
      "chip": "ym2612"
    },
    {
      "channel": 2,
      "note": 62,
      "start": 71.7076,
      "duration": 0.0462,
      "velocity": 121,
      "chip": "ym2612"
    },
    {
      "channel": 3,
      "note": 58,
      "start": 71.7078,
      "duration": 0.0462,
      "velocity": 121,
      "chip": "ym2612"
    },
    {
      "channel": 0,
      "note": 53,
      "start": 71.9251,
      "duration": 0.0309,
      "velocity": 114,
      "chip": "ym2612"
    },
    {
      "channel": 2,
      "note": 62,
      "start": 71.9253,
      "duration": 0.0464,
      "velocity": 121,
      "chip": "ym2612"
    },
    {
      "channel": 3,
      "note": 58,
      "start": 71.9255,
      "duration": 0.0463,
      "velocity": 121,
      "chip": "ym2612"
    },
    {
      "channel": 0,
      "note": 98,
      "start": 72.143,
      "duration": 0.2179,
      "velocity": 127,
      "chip": "ym2612"
    },
    {
      "channel": 1,
      "note": 57,
      "start": 72.1432,
      "duration": 0.2179,
      "velocity": 93,
      "chip": "ym2612"
    },
    {
      "channel": 2,
      "note": 65,
      "start": 72.1432,
      "duration": 0.0464,
      "velocity": 121,
      "chip": "ym2612"
    },
    {
      "channel": 3,
      "note": 57,
      "start": 72.1434,
      "duration": 0.0464,
      "velocity": 121,
      "chip": "ym2612"
    },
    {
      "channel": 0,
      "note": 53,
      "start": 72.3609,
      "duration": 0.0153,
      "velocity": 127,
      "chip": "ym2612"
    },
    {
      "channel": 1,
      "note": 53,
      "start": 72.361,
      "duration": 0.2179,
      "velocity": 93,
      "chip": "ym2612"
    },
    {
      "channel": 2,
      "note": 65,
      "start": 72.3612,
      "duration": 0.0463,
      "velocity": 121,
      "chip": "ym2612"
    },
    {
      "channel": 3,
      "note": 57,
      "start": 72.3612,
      "duration": 0.0463,
      "velocity": 121,
      "chip": "ym2612"
    },
    {
      "channel": 0,
      "note": 76,
      "start": 72.3763,
      "duration": 0.2025,
      "velocity": 123,
      "chip": "ym2612"
    },
    {
      "channel": 0,
      "note": 70,
      "start": 72.5788,
      "duration": 0.2179,
      "velocity": 114,
      "chip": "ym2612"
    },
    {
      "channel": 1,
      "note": 57,
      "start": 72.5789,
      "duration": 0.4357,
      "velocity": 93,
      "chip": "ym2612"
    },
    {
      "channel": 2,
      "note": 65,
      "start": 72.579,
      "duration": 0.0464,
      "velocity": 121,
      "chip": "ym2612"
    },
    {
      "channel": 3,
      "note": 57,
      "start": 72.5791,
      "duration": 0.0463,
      "velocity": 121,
      "chip": "ym2612"
    },
    {
      "channel": 0,
      "note": 53,
      "start": 72.7967,
      "duration": 0.0309,
      "velocity": 114,
      "chip": "ym2612"
    },
    {
      "channel": 2,
      "note": 65,
      "start": 72.7969,
      "duration": 0.0463,
      "velocity": 121,
      "chip": "ym2612"
    },
    {
      "channel": 3,
      "note": 57,
      "start": 72.797,
      "duration": 0.0463,
      "velocity": 121,
      "chip": "ym2612"
    },
    {
      "channel": 0,
      "note": 98,
      "start": 73.0145,
      "duration": 0.2179,
      "velocity": 127,
      "chip": "ym2612"
    },
    {
      "channel": 2,
      "note": 63,
      "start": 73.0147,
      "duration": 0.0464,
      "velocity": 121,
      "chip": "ym2612"
    },
    {
      "channel": 3,
      "note": 60,
      "start": 73.0149,
      "duration": 0.0464,
      "velocity": 121,
      "chip": "ym2612"
    },
    {
      "channel": 0,
      "note": 61,
      "start": 73.2324,
      "duration": 0.0154,
      "velocity": 127,
      "chip": "ym2612"
    },
    {
      "channel": 1,
      "note": 56,
      "start": 73.2326,
      "duration": 0.2179,
      "velocity": 93,
      "chip": "ym2612"
    },
    {
      "channel": 2,
      "note": 63,
      "start": 73.2327,
      "duration": 0.0464,
      "velocity": 121,
      "chip": "ym2612"
    },
    {
      "channel": 3,
      "note": 60,
      "start": 73.2327,
      "duration": 0.0464,
      "velocity": 121,
      "chip": "ym2612"
    },
    {
      "channel": 0,
      "note": 76,
      "start": 73.2478,
      "duration": 0.2025,
      "velocity": 123,
      "chip": "ym2612"
    },
    {
      "channel": 0,
      "note": 66,
      "start": 73.4503,
      "duration": 0.2179,
      "velocity": 123,
      "chip": "ym2612"
    },
    {
      "channel": 1,
      "note": 56,
      "start": 73.4504,
      "duration": 0.2179,
      "velocity": 93,
      "chip": "ym2612"
    },
    {
      "channel": 2,
      "note": 63,
      "start": 73.4505,
      "duration": 0.0464,
      "velocity": 121,
      "chip": "ym2612"
    },
    {
      "channel": 3,
      "note": 60,
      "start": 73.4507,
      "duration": 0.0463,
      "velocity": 121,
      "chip": "ym2612"
    },
    {
      "channel": 0,
      "note": 53,
      "start": 73.6682,
      "duration": 0.2179,
      "velocity": 114,
      "chip": "ym2612"
    },
    {
      "channel": 1,
      "note": 51,
      "start": 73.6683,
      "duration": 0.2179,
      "velocity": 93,
      "chip": "ym2612"
    },
    {
      "channel": 2,
      "note": 63,
      "start": 73.6684,
      "duration": 0.0464,
      "velocity": 121,
      "chip": "ym2612"
    },
    {
      "channel": 3,
      "note": 60,
      "start": 73.6685,
      "duration": 0.0464,
      "velocity": 121,
      "chip": "ym2612"
    },
    {
      "channel": 0,
      "note": 53,
      "start": 73.8861,
      "duration": 0.0309,
      "velocity": 114,
      "chip": "ym2612"
    },
    {
      "channel": 2,
      "note": 63,
      "start": 73.8863,
      "duration": 0.0464,
      "velocity": 121,
      "chip": "ym2612"
    },
    {
      "channel": 3,
      "note": 60,
      "start": 73.8864,
      "duration": 0.0464,
      "velocity": 121,
      "chip": "ym2612"
    },
    {
      "channel": 0,
      "note": 98,
      "start": 73.9948,
      "duration": 0.0311,
      "velocity": 114,
      "chip": "ym2612"
    },
    {
      "channel": 0,
      "note": 98,
      "start": 74.104,
      "duration": 0.0153,
      "velocity": 127,
      "chip": "ym2612"
    },
    {
      "channel": 1,
      "note": 56,
      "start": 74.1041,
      "duration": 0.2179,
      "velocity": 93,
      "chip": "ym2612"
    },
    {
      "channel": 2,
      "note": 63,
      "start": 74.1042,
      "duration": 0.0463,
      "velocity": 121,
      "chip": "ym2612"
    },
    {
      "channel": 3,
      "note": 60,
      "start": 74.1043,
      "duration": 0.0463,
      "velocity": 121,
      "chip": "ym2612"
    },
    {
      "channel": 0,
      "note": 76,
      "start": 74.1193,
      "duration": 0.2025,
      "velocity": 123,
      "chip": "ym2612"
    },
    {
      "channel": 0,
      "note": 70,
      "start": 74.3219,
      "duration": 0.2178,
      "velocity": 114,
      "chip": "ym2612"
    },
    {
      "channel": 1,
      "note": 55,
      "start": 74.322,
      "duration": 0.4357,
      "velocity": 93,
      "chip": "ym2612"
    },
    {
      "channel": 2,
      "note": 63,
      "start": 74.3221,
      "duration": 0.0464,
      "velocity": 121,
      "chip": "ym2612"
    },
    {
      "channel": 3,
      "note": 60,
      "start": 74.3222,
      "duration": 0.0463,
      "velocity": 121,
      "chip": "ym2612"
    },
    {
      "channel": 0,
      "note": 53,
      "start": 74.5397,
      "duration": 0.0309,
      "velocity": 114,
      "chip": "ym2612"
    },
    {
      "channel": 2,
      "note": 63,
      "start": 74.5399,
      "duration": 0.0464,
      "velocity": 121,
      "chip": "ym2612"
    },
    {
      "channel": 3,
      "note": 60,
      "start": 74.54,
      "duration": 0.0464,
      "velocity": 121,
      "chip": "ym2612"
    },
    {
      "channel": 0,
      "note": 98,
      "start": 74.7576,
      "duration": 0.2179,
      "velocity": 127,
      "chip": "ym2612"
    },
    {
      "channel": 1,
      "note": 54,
      "start": 74.7577,
      "duration": 0.2179,
      "velocity": 93,
      "chip": "ym2612"
    },
    {
      "channel": 2,
      "note": 66,
      "start": 74.7578,
      "duration": 0.0463,
      "velocity": 121,
      "chip": "ym2612"
    },
    {
      "channel": 3,
      "note": 60,
      "start": 74.758,
      "duration": 0.0463,
      "velocity": 121,
      "chip": "ym2612"
    },
    {
      "channel": 0,
      "note": 61,
      "start": 74.9755,
      "duration": 0.0153,
      "velocity": 127,
      "chip": "ym2612"
    },
    {
      "channel": 1,
      "note": 57,
      "start": 74.9756,
      "duration": 0.2178,
      "velocity": 93,
      "chip": "ym2612"
    },
    {
      "channel": 2,
      "note": 66,
      "start": 74.9757,
      "duration": 0.0464,
      "velocity": 121,
      "chip": "ym2612"
    },
    {
      "channel": 3,
      "note": 60,
      "start": 74.9759,
      "duration": 0.0463,
      "velocity": 121,
      "chip": "ym2612"
    },
    {
      "channel": 0,
      "note": 76,
      "start": 74.9908,
      "duration": 0.2025,
      "velocity": 123,
      "chip": "ym2612"
    },
    {
      "channel": 0,
      "note": 66,
      "start": 75.1934,
      "duration": 0.2179,
      "velocity": 114,
      "chip": "ym2612"
    },
    {
      "channel": 1,
      "note": 60,
      "start": 75.1935,
      "duration": 0.4358,
      "velocity": 93,
      "chip": "ym2612"
    },
    {
      "channel": 2,
      "note": 66,
      "start": 75.1936,
      "duration": 0.0464,
      "velocity": 121,
      "chip": "ym2612"
    },
    {
      "channel": 3,
      "note": 60,
      "start": 75.1937,
      "duration": 0.0464,
      "velocity": 121,
      "chip": "ym2612"
    },
    {
      "channel": 0,
      "note": 53,
      "start": 75.4112,
      "duration": 0.0309,
      "velocity": 114,
      "chip": "ym2612"
    },
    {
      "channel": 2,
      "note": 66,
      "start": 75.4115,
      "duration": 0.0464,
      "velocity": 121,
      "chip": "ym2612"
    },
    {
      "channel": 3,
      "note": 60,
      "start": 75.4116,
      "duration": 0.0464,
      "velocity": 121,
      "chip": "ym2612"
    },
    {
      "channel": 0,
      "note": 98,
      "start": 75.6291,
      "duration": 0.2179,
      "velocity": 127,
      "chip": "ym2612"
    },
    {
      "channel": 1,
      "note": 63,
      "start": 75.6293,
      "duration": 0.2179,
      "velocity": 93,
      "chip": "ym2612"
    },
    {
      "channel": 2,
      "note": 66,
      "start": 75.6294,
      "duration": 0.0464,
      "velocity": 121,
      "chip": "ym2612"
    },
    {
      "channel": 3,
      "note": 63,
      "start": 75.6295,
      "duration": 0.0464,
      "velocity": 121,
      "chip": "ym2612"
    },
    {
      "channel": 0,
      "note": 53,
      "start": 75.847,
      "duration": 0.0154,
      "velocity": 127,
      "chip": "ym2612"
    },
    {
      "channel": 1,
      "note": 62,
      "start": 75.8472,
      "duration": 0.2179,
      "velocity": 93,
      "chip": "ym2612"
    },
    {
      "channel": 2,
      "note": 66,
      "start": 75.8473,
      "duration": 0.0464,
      "velocity": 121,
      "chip": "ym2612"
    },
    {
      "channel": 3,
      "note": 63,
      "start": 75.8474,
      "duration": 0.0464,
      "velocity": 121,
      "chip": "ym2612"
    },
    {
      "channel": 0,
      "note": 76,
      "start": 75.8624,
      "duration": 0.2025,
      "velocity": 127,
      "chip": "ym2612"
    },
    {
      "channel": 0,
      "note": 70,
      "start": 76.0649,
      "duration": 0.0153,
      "velocity": 127,
      "chip": "ym2612"
    },
    {
      "channel": 1,
      "note": 60,
      "start": 76.0651,
      "duration": 0.2179,
      "velocity": 93,
      "chip": "ym2612"
    },
    {
      "channel": 2,
      "note": 66,
      "start": 76.0652,
      "duration": 0.0463,
      "velocity": 121,
      "chip": "ym2612"
    },
    {
      "channel": 3,
      "note": 63,
      "start": 76.0653,
      "duration": 0.0463,
      "velocity": 121,
      "chip": "ym2612"
    },
    {
      "channel": 0,
      "note": 76,
      "start": 76.0803,
      "duration": 0.2025,
      "velocity": 123,
      "chip": "ym2612"
    },
    {
      "channel": 0,
      "note": 70,
      "start": 76.2828,
      "duration": 0.2178,
      "velocity": 99,
      "chip": "ym2612"
    },
    {
      "channel": 1,
      "note": 57,
      "start": 76.283,
      "duration": 0.1086,
      "velocity": 93,
      "chip": "ym2612"
    },
    {
      "channel": 2,
      "note": 66,
      "start": 76.2831,
      "duration": 0.0463,
      "velocity": 121,
      "chip": "ym2612"
    },
    {
      "channel": 3,
      "note": 63,
      "start": 76.2832,
      "duration": 0.0463,
      "velocity": 121,
      "chip": "ym2612"
    },
    {
      "channel": 4,
      "note": 93,
      "start": 76.2834,
      "duration": 0.4356,
      "velocity": 96,
      "chip": "ym2612"
    },
    {
      "channel": 5,
      "note": 93,
      "start": 76.3452,
      "duration": 0.4357,
      "velocity": 96,
      "chip": "ym2612"
    },
    {
      "channel": 0,
      "note": 53,
      "start": 76.5007,
      "duration": 0.2179,
      "velocity": 127,
      "chip": "ym2612"
    },
    {
      "channel": 2,
      "note": 62,
      "start": 76.5009,
      "duration": 0.0464,
      "velocity": 121,
      "chip": "ym2612"
    },
    {
      "channel": 3,
      "note": 58,
      "start": 76.501,
      "duration": 0.0464,
      "velocity": 121,
      "chip": "ym2612"
    },
    {
      "channel": 0,
      "note": 61,
      "start": 76.7186,
      "duration": 0.0153,
      "velocity": 127,
      "chip": "ym2612"
    },
    {
      "channel": 1,
      "note": 55,
      "start": 76.7187,
      "duration": 0.2179,
      "velocity": 93,
      "chip": "ym2612"
    },
    {
      "channel": 2,
      "note": 62,
      "start": 76.7188,
      "duration": 0.0464,
      "velocity": 121,
      "chip": "ym2612"
    },
    {
      "channel": 3,
      "note": 58,
      "start": 76.7189,
      "duration": 0.0463,
      "velocity": 121,
      "chip": "ym2612"
    },
    {
      "channel": 4,
      "note": 94,
      "start": 76.719,
      "duration": 0.3109,
      "velocity": 96,
      "chip": "ym2612"
    },
    {
      "channel": 0,
      "note": 76,
      "start": 76.7339,
      "duration": 0.2025,
      "velocity": 123,
      "chip": "ym2612"
    },
    {
      "channel": 5,
      "note": 94,
      "start": 76.781,
      "duration": 0.3113,
      "velocity": 96,
      "chip": "ym2612"
    },
    {
      "channel": 0,
      "note": 66,
      "start": 76.9364,
      "duration": 0.2179,
      "velocity": 123,
      "chip": "ym2612"
    },
    {
      "channel": 1,
      "note": 58,
      "start": 76.9366,
      "duration": 0.2179,
      "velocity": 93,
      "chip": "ym2612"
    },
    {
      "channel": 2,
      "note": 62,
      "start": 76.9367,
      "duration": 0.0464,
      "velocity": 121,
      "chip": "ym2612"
    },
    {
      "channel": 3,
      "note": 58,
      "start": 76.9368,
      "duration": 0.0464,
      "velocity": 121,
      "chip": "ym2612"
    },
    {
      "channel": 4,
      "note": 93,
      "start": 77.0299,
      "duration": 0.0622,
      "velocity": 96,
      "chip": "ym2612"
    },
    {
      "channel": 4,
      "note": 94,
      "start": 77.0922,
      "duration": 0.0627,
      "velocity": 96,
      "chip": "ym2612"
    },
    {
      "channel": 5,
      "note": 93,
      "start": 77.0923,
      "duration": 0.0627,
      "velocity": 96,
      "chip": "ym2612"
    },
    {
      "channel": 0,
      "note": 53,
      "start": 77.1543,
      "duration": 0.2179,
      "velocity": 114,
      "chip": "ym2612"
    },
    {
      "channel": 1,
      "note": 62,
      "start": 77.1545,
      "duration": 0.1087,
      "velocity": 93,
      "chip": "ym2612"
    },
    {
      "channel": 2,
      "note": 62,
      "start": 77.1546,
      "duration": 0.0464,
      "velocity": 121,
      "chip": "ym2612"
    },
    {
      "channel": 3,
      "note": 58,
      "start": 77.1547,
      "duration": 0.0463,
      "velocity": 121,
      "chip": "ym2612"
    },
    {
      "channel": 4,
      "note": 93,
      "start": 77.1548,
      "duration": 1.0894,
      "velocity": 96,
      "chip": "ym2612"
    },
    {
      "channel": 5,
      "note": 94,
      "start": 77.155,
      "duration": 0.0618,
      "velocity": 96,
      "chip": "ym2612"
    },
    {
      "channel": 5,
      "note": 93,
      "start": 77.2168,
      "duration": 1.0894,
      "velocity": 96,
      "chip": "ym2612"
    },
    {
      "channel": 0,
      "note": 53,
      "start": 77.3722,
      "duration": 0.0309,
      "velocity": 114,
      "chip": "ym2612"
    },
    {
      "channel": 2,
      "note": 60,
      "start": 77.3724,
      "duration": 0.0464,
      "velocity": 121,
      "chip": "ym2612"
    },
    {
      "channel": 3,
      "note": 57,
      "start": 77.3725,
      "duration": 0.0464,
      "velocity": 121,
      "chip": "ym2612"
    },
    {
      "channel": 0,
      "note": 98,
      "start": 77.4809,
      "duration": 0.0311,
      "velocity": 114,
      "chip": "ym2612"
    },
    {
      "channel": 0,
      "note": 98,
      "start": 77.5901,
      "duration": 0.0153,
      "velocity": 127,
      "chip": "ym2612"
    },
    {
      "channel": 1,
      "note": 57,
      "start": 77.5902,
      "duration": 0.2179,
      "velocity": 93,
      "chip": "ym2612"
    },
    {
      "channel": 2,
      "note": 60,
      "start": 77.5905,
      "duration": 0.0462,
      "velocity": 121,
      "chip": "ym2612"
    },
    {
      "channel": 3,
      "note": 57,
      "start": 77.5906,
      "duration": 0.0462,
      "velocity": 121,
      "chip": "ym2612"
    },
    {
      "channel": 0,
      "note": 76,
      "start": 77.6054,
      "duration": 0.2025,
      "velocity": 123,
      "chip": "ym2612"
    },
    {
      "channel": 0,
      "note": 70,
      "start": 77.808,
      "duration": 0.2179,
      "velocity": 114,
      "chip": "ym2612"
    },
    {
      "channel": 1,
      "note": 53,
      "start": 77.8081,
      "duration": 0.4357,
      "velocity": 93,
      "chip": "ym2612"
    },
    {
      "channel": 2,
      "note": 60,
      "start": 77.8082,
      "duration": 0.0464,
      "velocity": 121,
      "chip": "ym2612"
    },
    {
      "channel": 3,
      "note": 57,
      "start": 77.8083,
      "duration": 0.0463,
      "velocity": 121,
      "chip": "ym2612"
    },
    {
      "channel": 0,
      "note": 53,
      "start": 78.0259,
      "duration": 0.0309,
      "velocity": 114,
      "chip": "ym2612"
    },
    {
      "channel": 2,
      "note": 62,
      "start": 78.0261,
      "duration": 0.0464,
      "velocity": 121,
      "chip": "ym2612"
    },
    {
      "channel": 3,
      "note": 58,
      "start": 78.0262,
      "duration": 0.0464,
      "velocity": 121,
      "chip": "ym2612"
    },
    {
      "channel": 0,
      "note": 98,
      "start": 78.2437,
      "duration": 0.2179,
      "velocity": 127,
      "chip": "ym2612"
    },
    {
      "channel": 1,
      "note": 58,
      "start": 78.2439,
      "duration": 0.2179,
      "velocity": 93,
      "chip": "ym2612"
    },
    {
      "channel": 2,
      "note": 62,
      "start": 78.244,
      "duration": 0.0465,
      "velocity": 121,
      "chip": "ym2612"
    },
    {
      "channel": 3,
      "note": 58,
      "start": 78.2441,
      "duration": 0.0465,
      "velocity": 121,
      "chip": "ym2612"
    },
    {
      "channel": 4,
      "note": 91,
      "start": 78.2442,
      "duration": 0.2179,
      "velocity": 96,
      "chip": "ym2612"
    },
    {
      "channel": 5,
      "note": 91,
      "start": 78.3061,
      "duration": 0.2181,
      "velocity": 96,
      "chip": "ym2612"
    },
    {
      "channel": 0,
      "note": 61,
      "start": 78.4616,
      "duration": 0.0154,
      "velocity": 127,
      "chip": "ym2612"
    },
    {
      "channel": 1,
      "note": 53,
      "start": 78.4618,
      "duration": 0.2179,
      "velocity": 93,
      "chip": "ym2612"
    },
    {
      "channel": 2,
      "note": 62,
      "start": 78.4619,
      "duration": 0.0464,
      "velocity": 121,
      "chip": "ym2612"
    },
    {
      "channel": 3,
      "note": 58,
      "start": 78.462,
      "duration": 0.0464,
      "velocity": 121,
      "chip": "ym2612"
    },
    {
      "channel": 4,
      "note": 91,
      "start": 78.4621,
      "duration": 0.0774,
      "velocity": 96,
      "chip": "ym2612"
    },
    {
      "channel": 0,
      "note": 76,
      "start": 78.477,
      "duration": 0.2025,
      "velocity": 123,
      "chip": "ym2612"
    },
    {
      "channel": 5,
      "note": 91,
      "start": 78.5242,
      "duration": 0.0777,
      "velocity": 96,
      "chip": "ym2612"
    },
    {
      "channel": 4,
      "note": 89,
      "start": 78.5395,
      "duration": 0.0622,
      "velocity": 96,
      "chip": "ym2612"
    },
    {
      "channel": 4,
      "note": 91,
      "start": 78.6018,
      "duration": 0.0782,
      "velocity": 96,
      "chip": "ym2612"
    },
    {
      "channel": 5,
      "note": 89,
      "start": 78.6019,
      "duration": 0.0622,
      "velocity": 96,
      "chip": "ym2612"
    },
    {
      "channel": 5,
      "note": 91,
      "start": 78.6641,
      "duration": 0.0778,
      "velocity": 96,
      "chip": "ym2612"
    },
    {
      "channel": 0,
      "note": 66,
      "start": 78.6795,
      "duration": 0.2179,
      "velocity": 114,
      "chip": "ym2612"
    },
    {
      "channel": 1,
      "note": 58,
      "start": 78.6796,
      "duration": 0.4358,
      "velocity": 93,
      "chip": "ym2612"
    },
    {
      "channel": 2,
      "note": 62,
      "start": 78.6798,
      "duration": 0.0464,
      "velocity": 121,
      "chip": "ym2612"
    },
    {
      "channel": 3,
      "note": 58,
      "start": 78.6798,
      "duration": 0.0464,
      "velocity": 121,
      "chip": "ym2612"
    },
    {
      "channel": 4,
      "note": 89,
      "start": 78.68,
      "duration": 0.2179,
      "velocity": 96,
      "chip": "ym2612"
    },
    {
      "channel": 5,
      "note": 89,
      "start": 78.7419,
      "duration": 0.2179,
      "velocity": 96,
      "chip": "ym2612"
    },
    {
      "channel": 0,
      "note": 53,
      "start": 78.8974,
      "duration": 0.0309,
      "velocity": 114,
      "chip": "ym2612"
    },
    {
      "channel": 2,
      "note": 62,
      "start": 78.8976,
      "duration": 0.0464,
      "velocity": 121,
      "chip": "ym2612"
    },
    {
      "channel": 3,
      "note": 58,
      "start": 78.8977,
      "duration": 0.0463,
      "velocity": 121,
      "chip": "ym2612"
    },
    {
      "channel": 4,
      "note": 86,
      "start": 78.8978,
      "duration": 0.2179,
      "velocity": 96,
      "chip": "ym2612"
    },
    {
      "channel": 5,
      "note": 86,
      "start": 78.9598,
      "duration": 0.2179,
      "velocity": 96,
      "chip": "ym2612"
    },
    {
      "channel": 0,
      "note": 98,
      "start": 79.1153,
      "duration": 0.2179,
      "velocity": 127,
      "chip": "ym2612"
    },
    {
      "channel": 1,
      "note": 57,
      "start": 79.1154,
      "duration": 0.2179,
      "velocity": 93,
      "chip": "ym2612"
    },
    {
      "channel": 2,
      "note": 65,
      "start": 79.1155,
      "duration": 0.0464,
      "velocity": 121,
      "chip": "ym2612"
    },
    {
      "channel": 3,
      "note": 57,
      "start": 79.1156,
      "duration": 0.0464,
      "velocity": 121,
      "chip": "ym2612"
    },
    {
      "channel": 4,
      "note": 89,
      "start": 79.1157,
      "duration": 0.2179,
      "velocity": 96,
      "chip": "ym2612"
    },
    {
      "channel": 5,
      "note": 89,
      "start": 79.1777,
      "duration": 0.2179,
      "velocity": 96,
      "chip": "ym2612"
    },
    {
      "channel": 0,
      "note": 53,
      "start": 79.3332,
      "duration": 0.0153,
      "velocity": 127,
      "chip": "ym2612"
    },
    {
      "channel": 1,
      "note": 53,
      "start": 79.3333,
      "duration": 0.2179,
      "velocity": 93,
      "chip": "ym2612"
    },
    {
      "channel": 2,
      "note": 65,
      "start": 79.3334,
      "duration": 0.0463,
      "velocity": 121,
      "chip": "ym2612"
    },
    {
      "channel": 3,
      "note": 57,
      "start": 79.3335,
      "duration": 0.0463,
      "velocity": 121,
      "chip": "ym2612"
    },
    {
      "channel": 4,
      "note": 86,
      "start": 79.3336,
      "duration": 0.2179,
      "velocity": 96,
      "chip": "ym2612"
    },
    {
      "channel": 0,
      "note": 76,
      "start": 79.3485,
      "duration": 0.2025,
      "velocity": 123,
      "chip": "ym2612"
    },
    {
      "channel": 5,
      "note": 86,
      "start": 79.3956,
      "duration": 0.2179,
      "velocity": 96,
      "chip": "ym2612"
    },
    {
      "channel": 0,
      "note": 70,
      "start": 79.551,
      "duration": 0.2179,
      "velocity": 114,
      "chip": "ym2612"
    },
    {
      "channel": 1,
      "note": 57,
      "start": 79.5512,
      "duration": 0.4357,
      "velocity": 93,
      "chip": "ym2612"
    },
    {
      "channel": 2,
      "note": 65,
      "start": 79.5513,
      "duration": 0.0464,
      "velocity": 121,
      "chip": "ym2612"
    },
    {
      "channel": 3,
      "note": 57,
      "start": 79.5514,
      "duration": 0.0463,
      "velocity": 121,
      "chip": "ym2612"
    },
    {
      "channel": 4,
      "note": 84,
      "start": 79.5515,
      "duration": 0.2179,
      "velocity": 96,
      "chip": "ym2612"
    },
    {
      "channel": 5,
      "note": 84,
      "start": 79.6135,
      "duration": 0.2178,
      "velocity": 96,
      "chip": "ym2612"
    },
    {
      "channel": 0,
      "note": 53,
      "start": 79.7689,
      "duration": 0.0309,
      "velocity": 114,
      "chip": "ym2612"
    },
    {
      "channel": 2,
      "note": 65,
      "start": 79.7692,
      "duration": 0.0463,
      "velocity": 121,
      "chip": "ym2612"
    },
    {
      "channel": 3,
      "note": 57,
      "start": 79.7693,
      "duration": 0.0463,
      "velocity": 121,
      "chip": "ym2612"
    },
    {
      "channel": 4,
      "note": 86,
      "start": 79.7694,
      "duration": 0.4357,
      "velocity": 96,
      "chip": "ym2612"
    },
    {
      "channel": 5,
      "note": 86,
      "start": 79.8313,
      "duration": 0.4358,
      "velocity": 96,
      "chip": "ym2612"
    },
    {
      "channel": 0,
      "note": 98,
      "start": 79.9868,
      "duration": 0.2179,
      "velocity": 127,
      "chip": "ym2612"
    },
    {
      "channel": 2,
      "note": 63,
      "start": 79.987,
      "duration": 0.0464,
      "velocity": 121,
      "chip": "ym2612"
    },
    {
      "channel": 3,
      "note": 60,
      "start": 79.9871,
      "duration": 0.0464,
      "velocity": 121,
      "chip": "ym2612"
    },
    {
      "channel": 0,
      "note": 61,
      "start": 80.2047,
      "duration": 0.0154,
      "velocity": 127,
      "chip": "ym2612"
    },
    {
      "channel": 1,
      "note": 56,
      "start": 80.2048,
      "duration": 0.2179,
      "velocity": 93,
      "chip": "ym2612"
    },
    {
      "channel": 2,
      "note": 63,
      "start": 80.2049,
      "duration": 0.0464,
      "velocity": 121,
      "chip": "ym2612"
    },
    {
      "channel": 3,
      "note": 60,
      "start": 80.205,
      "duration": 0.0464,
      "velocity": 121,
      "chip": "ym2612"
    },
    {
      "channel": 4,
      "note": 84,
      "start": 80.2051,
      "duration": 0.2179,
      "velocity": 96,
      "chip": "ym2612"
    },
    {
      "channel": 0,
      "note": 76,
      "start": 80.22,
      "duration": 0.2025,
      "velocity": 123,
      "chip": "ym2612"
    },
    {
      "channel": 5,
      "note": 84,
      "start": 80.2671,
      "duration": 0.2179,
      "velocity": 96,
      "chip": "ym2612"
    },
    {
      "channel": 0,
      "note": 66,
      "start": 80.4226,
      "duration": 0.218,
      "velocity": 123,
      "chip": "ym2612"
    },
    {
      "channel": 1,
      "note": 56,
      "start": 80.4227,
      "duration": 0.218,
      "velocity": 93,
      "chip": "ym2612"
    },
    {
      "channel": 2,
      "note": 63,
      "start": 80.4228,
      "duration": 0.0464,
      "velocity": 121,
      "chip": "ym2612"
    },
    {
      "channel": 3,
      "note": 60,
      "start": 80.4229,
      "duration": 0.0463,
      "velocity": 121,
      "chip": "ym2612"
    },
    {
      "channel": 4,
      "note": 86,
      "start": 80.423,
      "duration": 1.0894,
      "velocity": 96,
      "chip": "ym2612"
    },
    {
      "channel": 5,
      "note": 86,
      "start": 80.485,
      "duration": 1.0894,
      "velocity": 96,
      "chip": "ym2612"
    },
    {
      "channel": 0,
      "note": 53,
      "start": 80.6406,
      "duration": 0.2177,
      "velocity": 114,
      "chip": "ym2612"
    },
    {
      "channel": 1,
      "note": 51,
      "start": 80.6408,
      "duration": 0.2177,
      "velocity": 93,
      "chip": "ym2612"
    },
    {
      "channel": 2,
      "note": 63,
      "start": 80.6409,
      "duration": 0.0462,
      "velocity": 121,
      "chip": "ym2612"
    },
    {
      "channel": 3,
      "note": 60,
      "start": 80.641,
      "duration": 0.0462,
      "velocity": 121,
      "chip": "ym2612"
    },
    {
      "channel": 0,
      "note": 53,
      "start": 80.8583,
      "duration": 0.0309,
      "velocity": 114,
      "chip": "ym2612"
    },
    {
      "channel": 2,
      "note": 63,
      "start": 80.8585,
      "duration": 0.0464,
      "velocity": 121,
      "chip": "ym2612"
    },
    {
      "channel": 3,
      "note": 60,
      "start": 80.8586,
      "duration": 0.0464,
      "velocity": 121,
      "chip": "ym2612"
    },
    {
      "channel": 0,
      "note": 98,
      "start": 80.9671,
      "duration": 0.0311,
      "velocity": 114,
      "chip": "ym2612"
    },
    {
      "channel": 0,
      "note": 98,
      "start": 81.0762,
      "duration": 0.0153,
      "velocity": 127,
      "chip": "ym2612"
    },
    {
      "channel": 1,
      "note": 56,
      "start": 81.0764,
      "duration": 0.2179,
      "velocity": 93,
      "chip": "ym2612"
    },
    {
      "channel": 2,
      "note": 63,
      "start": 81.0765,
      "duration": 0.0463,
      "velocity": 121,
      "chip": "ym2612"
    },
    {
      "channel": 3,
      "note": 60,
      "start": 81.0766,
      "duration": 0.0463,
      "velocity": 121,
      "chip": "ym2612"
    },
    {
      "channel": 0,
      "note": 76,
      "start": 81.0916,
      "duration": 0.2025,
      "velocity": 123,
      "chip": "ym2612"
    },
    {
      "channel": 0,
      "note": 70,
      "start": 81.2941,
      "duration": 0.2178,
      "velocity": 114,
      "chip": "ym2612"
    },
    {
      "channel": 1,
      "note": 55,
      "start": 81.2943,
      "duration": 0.4357,
      "velocity": 93,
      "chip": "ym2612"
    },
    {
      "channel": 2,
      "note": 63,
      "start": 81.2944,
      "duration": 0.0464,
      "velocity": 121,
      "chip": "ym2612"
    },
    {
      "channel": 3,
      "note": 60,
      "start": 81.2945,
      "duration": 0.0463,
      "velocity": 121,
      "chip": "ym2612"
    },
    {
      "channel": 0,
      "note": 53,
      "start": 81.512,
      "duration": 0.0309,
      "velocity": 114,
      "chip": "ym2612"
    },
    {
      "channel": 2,
      "note": 63,
      "start": 81.5122,
      "duration": 0.0464,
      "velocity": 121,
      "chip": "ym2612"
    },
    {
      "channel": 3,
      "note": 60,
      "start": 81.5123,
      "duration": 0.0464,
      "velocity": 121,
      "chip": "ym2612"
    },
    {
      "channel": 0,
      "note": 98,
      "start": 81.7299,
      "duration": 0.2179,
      "velocity": 127,
      "chip": "ym2612"
    },
    {
      "channel": 1,
      "note": 54,
      "start": 81.73,
      "duration": 0.2179,
      "velocity": 93,
      "chip": "ym2612"
    },
    {
      "channel": 2,
      "note": 66,
      "start": 81.7301,
      "duration": 0.0463,
      "velocity": 121,
      "chip": "ym2612"
    },
    {
      "channel": 3,
      "note": 60,
      "start": 81.7302,
      "duration": 0.0463,
      "velocity": 121,
      "chip": "ym2612"
    },
    {
      "channel": 0,
      "note": 61,
      "start": 81.9478,
      "duration": 0.0153,
      "velocity": 127,
      "chip": "ym2612"
    },
    {
      "channel": 1,
      "note": 57,
      "start": 81.9479,
      "duration": 0.2178,
      "velocity": 93,
      "chip": "ym2612"
    },
    {
      "channel": 2,
      "note": 66,
      "start": 81.948,
      "duration": 0.0464,
      "velocity": 121,
      "chip": "ym2612"
    },
    {
      "channel": 3,
      "note": 60,
      "start": 81.9481,
      "duration": 0.0463,
      "velocity": 121,
      "chip": "ym2612"
    },
    {
      "channel": 0,
      "note": 76,
      "start": 81.9631,
      "duration": 0.2025,
      "velocity": 123,
      "chip": "ym2612"
    },
    {
      "channel": 0,
      "note": 66,
      "start": 82.1656,
      "duration": 0.2179,
      "velocity": 114,
      "chip": "ym2612"
    },
    {
      "channel": 1,
      "note": 60,
      "start": 82.1658,
      "duration": 0.4358,
      "velocity": 93,
      "chip": "ym2612"
    },
    {
      "channel": 2,
      "note": 66,
      "start": 82.1659,
      "duration": 0.0464,
      "velocity": 121,
      "chip": "ym2612"
    },
    {
      "channel": 3,
      "note": 60,
      "start": 82.166,
      "duration": 0.0464,
      "velocity": 121,
      "chip": "ym2612"
    },
    {
      "channel": 0,
      "note": 53,
      "start": 82.3835,
      "duration": 0.0309,
      "velocity": 114,
      "chip": "ym2612"
    },
    {
      "channel": 2,
      "note": 66,
      "start": 82.3837,
      "duration": 0.0464,
      "velocity": 121,
      "chip": "ym2612"
    },
    {
      "channel": 3,
      "note": 60,
      "start": 82.3838,
      "duration": 0.0464,
      "velocity": 121,
      "chip": "ym2612"
    },
    {
      "channel": 0,
      "note": 98,
      "start": 82.6014,
      "duration": 0.2179,
      "velocity": 127,
      "chip": "ym2612"
    },
    {
      "channel": 1,
      "note": 63,
      "start": 82.6015,
      "duration": 0.2179,
      "velocity": 93,
      "chip": "ym2612"
    },
    {
      "channel": 2,
      "note": 66,
      "start": 82.6017,
      "duration": 0.0464,
      "velocity": 121,
      "chip": "ym2612"
    },
    {
      "channel": 3,
      "note": 63,
      "start": 82.6017,
      "duration": 0.0464,
      "velocity": 121,
      "chip": "ym2612"
    },
    {
      "channel": 0,
      "note": 53,
      "start": 82.8193,
      "duration": 0.0154,
      "velocity": 127,
      "chip": "ym2612"
    },
    {
      "channel": 1,
      "note": 62,
      "start": 82.8194,
      "duration": 0.2179,
      "velocity": 93,
      "chip": "ym2612"
    },
    {
      "channel": 2,
      "note": 66,
      "start": 82.8195,
      "duration": 0.0464,
      "velocity": 121,
      "chip": "ym2612"
    },
    {
      "channel": 3,
      "note": 63,
      "start": 82.8196,
      "duration": 0.0464,
      "velocity": 121,
      "chip": "ym2612"
    },
    {
      "channel": 0,
      "note": 76,
      "start": 82.8346,
      "duration": 0.2025,
      "velocity": 127,
      "chip": "ym2612"
    },
    {
      "channel": 0,
      "note": 70,
      "start": 83.0372,
      "duration": 0.0153,
      "velocity": 127,
      "chip": "ym2612"
    },
    {
      "channel": 1,
      "note": 60,
      "start": 83.0373,
      "duration": 0.2179,
      "velocity": 93,
      "chip": "ym2612"
    },
    {
      "channel": 2,
      "note": 66,
      "start": 83.0374,
      "duration": 0.0463,
      "velocity": 121,
      "chip": "ym2612"
    },
    {
      "channel": 3,
      "note": 63,
      "start": 83.0376,
      "duration": 0.0463,
      "velocity": 121,
      "chip": "ym2612"
    },
    {
      "channel": 0,
      "note": 76,
      "start": 83.0525,
      "duration": 0.2025,
      "velocity": 123,
      "chip": "ym2612"
    },
    {
      "channel": 0,
      "note": 70,
      "start": 83.2551,
      "duration": 0.2178,
      "velocity": 99,
      "chip": "ym2612"
    },
    {
      "channel": 1,
      "note": 57,
      "start": 83.2552,
      "duration": 0.1086,
      "velocity": 93,
      "chip": "ym2612"
    },
    {
      "channel": 2,
      "note": 66,
      "start": 83.2554,
      "duration": 0.0463,
      "velocity": 121,
      "chip": "ym2612"
    },
    {
      "channel": 3,
      "note": 63,
      "start": 83.2555,
      "duration": 0.0463,
      "velocity": 121,
      "chip": "ym2612"
    },
    {
      "channel": 4,
      "note": 87,
      "start": 83.2556,
      "duration": 0.4356,
      "velocity": 96,
      "chip": "ym2612"
    },
    {
      "channel": 5,
      "note": 87,
      "start": 83.3175,
      "duration": 0.4358,
      "velocity": 96,
      "chip": "ym2612"
    },
    {
      "channel": 0,
      "note": 53,
      "start": 83.4729,
      "duration": 0.2179,
      "velocity": 127,
      "chip": "ym2612"
    },
    {
      "channel": 2,
      "note": 62,
      "start": 83.4732,
      "duration": 0.0464,
      "velocity": 121,
      "chip": "ym2612"
    },
    {
      "channel": 3,
      "note": 58,
      "start": 83.4732,
      "duration": 0.0464,
      "velocity": 121,
      "chip": "ym2612"
    },
    {
      "channel": 0,
      "note": 61,
      "start": 83.6908,
      "duration": 0.0153,
      "velocity": 127,
      "chip": "ym2612"
    },
    {
      "channel": 1,
      "note": 55,
      "start": 83.691,
      "duration": 0.2179,
      "velocity": 93,
      "chip": "ym2612"
    },
    {
      "channel": 2,
      "note": 62,
      "start": 83.6911,
      "duration": 0.0464,
      "velocity": 121,
      "chip": "ym2612"
    },
    {
      "channel": 3,
      "note": 58,
      "start": 83.6912,
      "duration": 0.0463,
      "velocity": 121,
      "chip": "ym2612"
    },
    {
      "channel": 4,
      "note": 94,
      "start": 83.6913,
      "duration": 0.3109,
      "velocity": 96,
      "chip": "ym2612"
    },
    {
      "channel": 0,
      "note": 76,
      "start": 83.7062,
      "duration": 0.2025,
      "velocity": 123,
      "chip": "ym2612"
    },
    {
      "channel": 5,
      "note": 94,
      "start": 83.7533,
      "duration": 0.3113,
      "velocity": 96,
      "chip": "ym2612"
    },
    {
      "channel": 0,
      "note": 66,
      "start": 83.9087,
      "duration": 0.2179,
      "velocity": 123,
      "chip": "ym2612"
    },
    {
      "channel": 1,
      "note": 58,
      "start": 83.9088,
      "duration": 0.2179,
      "velocity": 93,
      "chip": "ym2612"
    },
    {
      "channel": 2,
      "note": 62,
      "start": 83.909,
      "duration": 0.0464,
      "velocity": 121,
      "chip": "ym2612"
    },
    {
      "channel": 3,
      "note": 58,
      "start": 83.909,
      "duration": 0.0464,
      "velocity": 121,
      "chip": "ym2612"
    },
    {
      "channel": 4,
      "note": 93,
      "start": 84.0022,
      "duration": 0.0622,
      "velocity": 96,
      "chip": "ym2612"
    },
    {
      "channel": 4,
      "note": 94,
      "start": 84.0644,
      "duration": 0.0627,
      "velocity": 96,
      "chip": "ym2612"
    },
    {
      "channel": 5,
      "note": 93,
      "start": 84.0646,
      "duration": 0.0627,
      "velocity": 96,
      "chip": "ym2612"
    },
    {
      "channel": 0,
      "note": 53,
      "start": 84.1266,
      "duration": 0.2179,
      "velocity": 114,
      "chip": "ym2612"
    },
    {
      "channel": 1,
      "note": 62,
      "start": 84.1267,
      "duration": 0.1087,
      "velocity": 93,
      "chip": "ym2612"
    },
    {
      "channel": 2,
      "note": 62,
      "start": 84.1268,
      "duration": 0.0464,
      "velocity": 121,
      "chip": "ym2612"
    },
    {
      "channel": 3,
      "note": 58,
      "start": 84.127,
      "duration": 0.0463,
      "velocity": 121,
      "chip": "ym2612"
    },
    {
      "channel": 4,
      "note": 93,
      "start": 84.1271,
      "duration": 1.0894,
      "velocity": 96,
      "chip": "ym2612"
    },
    {
      "channel": 5,
      "note": 94,
      "start": 84.1272,
      "duration": 0.0618,
      "velocity": 96,
      "chip": "ym2612"
    },
    {
      "channel": 5,
      "note": 93,
      "start": 84.189,
      "duration": 1.0894,
      "velocity": 96,
      "chip": "ym2612"
    },
    {
      "channel": 0,
      "note": 53,
      "start": 84.3445,
      "duration": 0.0309,
      "velocity": 114,
      "chip": "ym2612"
    },
    {
      "channel": 2,
      "note": 60,
      "start": 84.3447,
      "duration": 0.0464,
      "velocity": 121,
      "chip": "ym2612"
    },
    {
      "channel": 3,
      "note": 57,
      "start": 84.3448,
      "duration": 0.0464,
      "velocity": 121,
      "chip": "ym2612"
    },
    {
      "channel": 0,
      "note": 98,
      "start": 84.4532,
      "duration": 0.0311,
      "velocity": 114,
      "chip": "ym2612"
    },
    {
      "channel": 0,
      "note": 98,
      "start": 84.5624,
      "duration": 0.0153,
      "velocity": 127,
      "chip": "ym2612"
    },
    {
      "channel": 1,
      "note": 57,
      "start": 84.5625,
      "duration": 0.2179,
      "velocity": 93,
      "chip": "ym2612"
    },
    {
      "channel": 2,
      "note": 60,
      "start": 84.5626,
      "duration": 0.0464,
      "velocity": 121,
      "chip": "ym2612"
    },
    {
      "channel": 3,
      "note": 57,
      "start": 84.5627,
      "duration": 0.0464,
      "velocity": 121,
      "chip": "ym2612"
    },
    {
      "channel": 0,
      "note": 76,
      "start": 84.5777,
      "duration": 0.2025,
      "velocity": 123,
      "chip": "ym2612"
    },
    {
      "channel": 0,
      "note": 70,
      "start": 84.7802,
      "duration": 0.2179,
      "velocity": 114,
      "chip": "ym2612"
    },
    {
      "channel": 1,
      "note": 53,
      "start": 84.7804,
      "duration": 0.4357,
      "velocity": 93,
      "chip": "ym2612"
    },
    {
      "channel": 2,
      "note": 60,
      "start": 84.7805,
      "duration": 0.0464,
      "velocity": 121,
      "chip": "ym2612"
    },
    {
      "channel": 3,
      "note": 57,
      "start": 84.7806,
      "duration": 0.0463,
      "velocity": 121,
      "chip": "ym2612"
    },
    {
      "channel": 0,
      "note": 53,
      "start": 84.9981,
      "duration": 0.0309,
      "velocity": 114,
      "chip": "ym2612"
    },
    {
      "channel": 2,
      "note": 62,
      "start": 84.9983,
      "duration": 0.0464,
      "velocity": 121,
      "chip": "ym2612"
    },
    {
      "channel": 3,
      "note": 58,
      "start": 84.9984,
      "duration": 0.0464,
      "velocity": 121,
      "chip": "ym2612"
    },
    {
      "channel": 0,
      "note": 98,
      "start": 85.216,
      "duration": 0.2179,
      "velocity": 127,
      "chip": "ym2612"
    },
    {
      "channel": 1,
      "note": 58,
      "start": 85.2161,
      "duration": 0.2179,
      "velocity": 93,
      "chip": "ym2612"
    },
    {
      "channel": 2,
      "note": 62,
      "start": 85.2163,
      "duration": 0.0463,
      "velocity": 121,
      "chip": "ym2612"
    },
    {
      "channel": 3,
      "note": 58,
      "start": 85.2163,
      "duration": 0.0463,
      "velocity": 121,
      "chip": "ym2612"
    },
    {
      "channel": 4,
      "note": 91,
      "start": 85.2165,
      "duration": 0.2179,
      "velocity": 96,
      "chip": "ym2612"
    },
    {
      "channel": 5,
      "note": 91,
      "start": 85.2784,
      "duration": 0.2179,
      "velocity": 96,
      "chip": "ym2612"
    },
    {
      "channel": 0,
      "note": 61,
      "start": 85.4339,
      "duration": 0.0154,
      "velocity": 127,
      "chip": "ym2612"
    },
    {
      "channel": 1,
      "note": 53,
      "start": 85.434,
      "duration": 0.2179,
      "velocity": 93,
      "chip": "ym2612"
    },
    {
      "channel": 2,
      "note": 62,
      "start": 85.4341,
      "duration": 0.0464,
      "velocity": 121,
      "chip": "ym2612"
    },
    {
      "channel": 3,
      "note": 58,
      "start": 85.4342,
      "duration": 0.0464,
      "velocity": 121,
      "chip": "ym2612"
    },
    {
      "channel": 4,
      "note": 91,
      "start": 85.4344,
      "duration": 0.0774,
      "velocity": 96,
      "chip": "ym2612"
    },
    {
      "channel": 0,
      "note": 76,
      "start": 85.4493,
      "duration": 0.2025,
      "velocity": 123,
      "chip": "ym2612"
    },
    {
      "channel": 5,
      "note": 91,
      "start": 85.4963,
      "duration": 0.078,
      "velocity": 96,
      "chip": "ym2612"
    },
    {
      "channel": 4,
      "note": 89,
      "start": 85.5118,
      "duration": 0.0624,
      "velocity": 96,
      "chip": "ym2612"
    },
    {
      "channel": 4,
      "note": 91,
      "start": 85.5741,
      "duration": 0.0781,
      "velocity": 96,
      "chip": "ym2612"
    },
    {
      "channel": 5,
      "note": 89,
      "start": 85.5743,
      "duration": 0.0621,
      "velocity": 96,
      "chip": "ym2612"
    },
    {
      "channel": 5,
      "note": 91,
      "start": 85.6364,
      "duration": 0.0778,
      "velocity": 96,
      "chip": "ym2612"
    },
    {
      "channel": 0,
      "note": 66,
      "start": 85.6518,
      "duration": 0.2179,
      "velocity": 114,
      "chip": "ym2612"
    },
    {
      "channel": 1,
      "note": 58,
      "start": 85.6519,
      "duration": 0.4358,
      "velocity": 93,
      "chip": "ym2612"
    },
    {
      "channel": 2,
      "note": 62,
      "start": 85.652,
      "duration": 0.0464,
      "velocity": 121,
      "chip": "ym2612"
    },
    {
      "channel": 3,
      "note": 58,
      "start": 85.6521,
      "duration": 0.0464,
      "velocity": 121,
      "chip": "ym2612"
    },
    {
      "channel": 4,
      "note": 89,
      "start": 85.6522,
      "duration": 0.2179,
      "velocity": 96,
      "chip": "ym2612"
    },
    {
      "channel": 5,
      "note": 89,
      "start": 85.7142,
      "duration": 0.2179,
      "velocity": 96,
      "chip": "ym2612"
    },
    {
      "channel": 0,
      "note": 53,
      "start": 85.8697,
      "duration": 0.0309,
      "velocity": 114,
      "chip": "ym2612"
    },
    {
      "channel": 2,
      "note": 62,
      "start": 85.8699,
      "duration": 0.0464,
      "velocity": 121,
      "chip": "ym2612"
    },
    {
      "channel": 3,
      "note": 58,
      "start": 85.87,
      "duration": 0.0463,
      "velocity": 121,
      "chip": "ym2612"
    },
    {
      "channel": 4,
      "note": 86,
      "start": 85.8701,
      "duration": 0.2179,
      "velocity": 96,
      "chip": "ym2612"
    },
    {
      "channel": 5,
      "note": 86,
      "start": 85.9321,
      "duration": 0.2179,
      "velocity": 96,
      "chip": "ym2612"
    },
    {
      "channel": 0,
      "note": 98,
      "start": 86.0876,
      "duration": 0.2179,
      "velocity": 127,
      "chip": "ym2612"
    },
    {
      "channel": 1,
      "note": 57,
      "start": 86.0877,
      "duration": 0.2179,
      "velocity": 93,
      "chip": "ym2612"
    },
    {
      "channel": 2,
      "note": 65,
      "start": 86.0878,
      "duration": 0.0464,
      "velocity": 121,
      "chip": "ym2612"
    },
    {
      "channel": 3,
      "note": 57,
      "start": 86.0879,
      "duration": 0.0464,
      "velocity": 121,
      "chip": "ym2612"
    },
    {
      "channel": 4,
      "note": 89,
      "start": 86.088,
      "duration": 0.2179,
      "velocity": 96,
      "chip": "ym2612"
    },
    {
      "channel": 5,
      "note": 89,
      "start": 86.15,
      "duration": 0.2179,
      "velocity": 96,
      "chip": "ym2612"
    },
    {
      "channel": 0,
      "note": 53,
      "start": 86.3054,
      "duration": 0.0153,
      "velocity": 127,
      "chip": "ym2612"
    },
    {
      "channel": 1,
      "note": 53,
      "start": 86.3056,
      "duration": 0.2179,
      "velocity": 93,
      "chip": "ym2612"
    },
    {
      "channel": 2,
      "note": 65,
      "start": 86.3057,
      "duration": 0.0463,
      "velocity": 121,
      "chip": "ym2612"
    },
    {
      "channel": 3,
      "note": 57,
      "start": 86.3058,
      "duration": 0.0463,
      "velocity": 121,
      "chip": "ym2612"
    },
    {
      "channel": 4,
      "note": 86,
      "start": 86.3059,
      "duration": 0.218,
      "velocity": 96,
      "chip": "ym2612"
    },
    {
      "channel": 0,
      "note": 76,
      "start": 86.3208,
      "duration": 0.0934,
      "velocity": 127,
      "chip": "ym2612"
    },
    {
      "channel": 5,
      "note": 86,
      "start": 86.3678,
      "duration": 0.2179,
      "velocity": 96,
      "chip": "ym2612"
    },
    {
      "channel": 0,
      "note": 72,
      "start": 86.4142,
      "duration": 0.0155,
      "velocity": 127,
      "chip": "ym2612"
    },
    {
      "channel": 0,
      "note": 76,
      "start": 86.4297,
      "duration": 0.0936,
      "velocity": 127,
      "chip": "ym2612"
    },
    {
      "channel": 0,
      "note": 72,
      "start": 86.5233,
      "duration": 0.0153,
      "velocity": 127,
      "chip": "ym2612"
    },
    {
      "channel": 1,
      "note": 57,
      "start": 86.5235,
      "duration": 0.2179,
      "velocity": 93,
      "chip": "ym2612"
    },
    {
      "channel": 2,
      "note": 65,
      "start": 86.5237,
      "duration": 0.0462,
      "velocity": 121,
      "chip": "ym2612"
    },
    {
      "channel": 3,
      "note": 57,
      "start": 86.5239,
      "duration": 0.0462,
      "velocity": 121,
      "chip": "ym2612"
    },
    {
      "channel": 4,
      "note": 84,
      "start": 86.524,
      "duration": 0.2183,
      "velocity": 96,
      "chip": "ym2612"
    },
    {
      "channel": 0,
      "note": 76,
      "start": 86.5387,
      "duration": 0.0934,
      "velocity": 127,
      "chip": "ym2612"
    },
    {
      "channel": 5,
      "note": 84,
      "start": 86.5857,
      "duration": 0.218,
      "velocity": 96,
      "chip": "ym2612"
    },
    {
      "channel": 0,
      "note": 72,
      "start": 86.632,
      "duration": 0.0156,
      "velocity": 127,
      "chip": "ym2612"
    },
    {
      "channel": 0,
      "note": 76,
      "start": 86.6476,
      "duration": 0.0936,
      "velocity": 123,
      "chip": "ym2612"
    },
    {
      "channel": 0,
      "note": 72,
      "start": 86.7412,
      "duration": 0.2178,
      "velocity": 99,
      "chip": "ym2612"
    },
    {
      "channel": 1,
      "note": 56,
      "start": 86.7414,
      "duration": 0.4357,
      "velocity": 93,
      "chip": "ym2612"
    },
    {
      "channel": 2,
      "note": 65,
      "start": 86.7417,
      "duration": 1.3071,
      "velocity": 111,
      "chip": "ym2612"
    },
    {
      "channel": 4,
      "note": 86,
      "start": 86.7422,
      "duration": 0.4351,
      "velocity": 96,
      "chip": "ym2612"
    },
    {
      "channel": 5,
      "note": 86,
      "start": 86.8037,
      "duration": 0.4357,
      "velocity": 96,
      "chip": "ym2612"
    },
    {
      "channel": 3,
      "note": 57,
      "start": 86.8813,
      "duration": 1.3073,
      "velocity": 111,
      "chip": "ym2612"
    },
    {
      "channel": 0,
      "note": 53,
      "start": 86.9591,
      "duration": 0.2179,
      "velocity": 123,
      "chip": "ym2612"
    },
    {
      "channel": 0,
      "note": 61,
      "start": 87.177,
      "duration": 0.2179,
      "velocity": 114,
      "chip": "ym2612"
    },
    {
      "channel": 1,
      "note": 56,
      "start": 87.1771,
      "duration": 0.2179,
      "velocity": 93,
      "chip": "ym2612"
    },
    {
      "channel": 4,
      "note": 84,
      "start": 87.1774,
      "duration": 0.2179,
      "velocity": 96,
      "chip": "ym2612"
    },
    {
      "channel": 5,
      "note": 84,
      "start": 87.2395,
      "duration": 0.218,
      "velocity": 96,
      "chip": "ym2612"
    },
    {
      "channel": 0,
      "note": 53,
      "start": 87.3949,
      "duration": 0.0309,
      "velocity": 114,
      "chip": "ym2612"
    },
    {
      "channel": 1,
      "note": 56,
      "start": 87.395,
      "duration": 0.4358,
      "velocity": 93,
      "chip": "ym2612"
    },
    {
      "channel": 4,
      "note": 86,
      "start": 87.3953,
      "duration": 0.6537,
      "velocity": 96,
      "chip": "ym2612"
    },
    {
      "channel": 5,
      "note": 86,
      "start": 87.4575,
      "duration": 0.6535,
      "velocity": 96,
      "chip": "ym2612"
    },
    {
      "channel": 0,
      "note": 98,
      "start": 87.5036,
      "duration": 0.0311,
      "velocity": 114,
      "chip": "ym2612"
    },
    {
      "channel": 0,
      "note": 98,
      "start": 87.6127,
      "duration": 0.2179,
      "velocity": 127,
      "chip": "ym2612"
    },
    {
      "channel": 0,
      "note": 53,
      "start": 87.8306,
      "duration": 0.0154,
      "velocity": 127,
      "chip": "ym2612"
    },
    {
      "channel": 1,
      "note": 68,
      "start": 87.8307,
      "duration": 0.2179,
      "velocity": 93,
      "chip": "ym2612"
    },
    {
      "channel": 0,
      "note": 76,
      "start": 87.846,
      "duration": 0.2025,
      "velocity": 123,
      "chip": "ym2612"
    },
    {
      "channel": 0,
      "note": 70,
      "start": 88.0485,
      "duration": 0.2179,
      "velocity": 99,
      "chip": "ym2612"
    },
    {
      "channel": 1,
      "note": 56,
      "start": 88.0486,
      "duration": 0.4358,
      "velocity": 93,
      "chip": "ym2612"
    },
    {
      "channel": 2,
      "note": 44,
      "start": 88.0488,
      "duration": 1.3073,
      "velocity": 111,
      "chip": "ym2612"
    },
    {
      "channel": 4,
      "note": 87,
      "start": 88.049,
      "duration": 0.6535,
      "velocity": 96,
      "chip": "ym2612"
    },
    {
      "channel": 5,
      "note": 87,
      "start": 88.111,
      "duration": 0.6536,
      "velocity": 96,
      "chip": "ym2612"
    },
    {
      "channel": 3,
      "note": 44,
      "start": 88.1886,
      "duration": 1.3073,
      "velocity": 111,
      "chip": "ym2612"
    },
    {
      "channel": 0,
      "note": 53,
      "start": 88.2664,
      "duration": 0.2179,
      "velocity": 123,
      "chip": "ym2612"
    },
    {
      "channel": 0,
      "note": 61,
      "start": 88.4843,
      "duration": 0.2179,
      "velocity": 114,
      "chip": "ym2612"
    },
    {
      "channel": 1,
      "note": 58,
      "start": 88.4844,
      "duration": 0.2179,
      "velocity": 93,
      "chip": "ym2612"
    },
    {
      "channel": 0,
      "note": 53,
      "start": 88.7021,
      "duration": 0.0309,
      "velocity": 114,
      "chip": "ym2612"
    },
    {
      "channel": 1,
      "note": 58,
      "start": 88.7023,
      "duration": 0.2179,
      "velocity": 93,
      "chip": "ym2612"
    },
    {
      "channel": 4,
      "note": 87,
      "start": 88.7026,
      "duration": 0.6538,
      "velocity": 96,
      "chip": "ym2612"
    },
    {
      "channel": 5,
      "note": 87,
      "start": 88.7646,
      "duration": 0.6537,
      "velocity": 96,
      "chip": "ym2612"
    },
    {
      "channel": 0,
      "note": 98,
      "start": 88.8109,
      "duration": 0.0311,
      "velocity": 114,
      "chip": "ym2612"
    },
    {
      "channel": 0,
      "note": 98,
      "start": 88.92,
      "duration": 0.2179,
      "velocity": 127,
      "chip": "ym2612"
    },
    {
      "channel": 1,
      "note": 70,
      "start": 88.9202,
      "duration": 0.2179,
      "velocity": 93,
      "chip": "ym2612"
    },
    {
      "channel": 0,
      "note": 53,
      "start": 89.1379,
      "duration": 0.0154,
      "velocity": 127,
      "chip": "ym2612"
    },
    {
      "channel": 1,
      "note": 65,
      "start": 89.138,
      "duration": 0.2179,
      "velocity": 93,
      "chip": "ym2612"
    },
    {
      "channel": 0,
      "note": 76,
      "start": 89.1533,
      "duration": 0.0934,
      "velocity": 127,
      "chip": "ym2612"
    },
    {
      "channel": 0,
      "note": 72,
      "start": 89.2466,
      "duration": 0.0156,
      "velocity": 127,
      "chip": "ym2612"
    },
    {
      "channel": 0,
      "note": 76,
      "start": 89.2622,
      "duration": 0.0936,
      "velocity": 123,
      "chip": "ym2612"
    },
    {
      "channel": 0,
      "note": 72,
      "start": 89.3558,
      "duration": 0.218,
      "velocity": 99,
      "chip": "ym2612"
    },
    {
      "channel": 1,
      "note": 62,
      "start": 89.356,
      "duration": 0.4357,
      "velocity": 93,
      "chip": "ym2612"
    },
    {
      "channel": 2,
      "note": 46,
      "start": 89.3561,
      "duration": 1.3073,
      "velocity": 111,
      "chip": "ym2612"
    },
    {
      "channel": 4,
      "note": 89,
      "start": 89.3563,
      "duration": 0.4356,
      "velocity": 96,
      "chip": "ym2612"
    },
    {
      "channel": 5,
      "note": 89,
      "start": 89.4183,
      "duration": 0.4357,
      "velocity": 96,
      "chip": "ym2612"
    },
    {
      "channel": 3,
      "note": 46,
      "start": 89.4959,
      "duration": 1.3073,
      "velocity": 111,
      "chip": "ym2612"
    },
    {
      "channel": 0,
      "note": 53,
      "start": 89.5739,
      "duration": 0.2177,
      "velocity": 123,
      "chip": "ym2612"
    },
    {
      "channel": 0,
      "note": 61,
      "start": 89.7916,
      "duration": 0.2179,
      "velocity": 114,
      "chip": "ym2612"
    },
    {
      "channel": 1,
      "note": 61,
      "start": 89.7917,
      "duration": 0.2179,
      "velocity": 93,
      "chip": "ym2612"
    },
    {
      "channel": 4,
      "note": 87,
      "start": 89.792,
      "duration": 0.2179,
      "velocity": 96,
      "chip": "ym2612"
    },
    {
      "channel": 5,
      "note": 87,
      "start": 89.8541,
      "duration": 0.2178,
      "velocity": 96,
      "chip": "ym2612"
    },
    {
      "channel": 0,
      "note": 53,
      "start": 90.0094,
      "duration": 0.0311,
      "velocity": 114,
      "chip": "ym2612"
    },
    {
      "channel": 1,
      "note": 61,
      "start": 90.0096,
      "duration": 0.2179,
      "velocity": 93,
      "chip": "ym2612"
    },
    {
      "channel": 4,
      "note": 89,
      "start": 90.0099,
      "duration": 0.4358,
      "velocity": 96,
      "chip": "ym2612"
    },
    {
      "channel": 5,
      "note": 89,
      "start": 90.0719,
      "duration": 0.4358,
      "velocity": 96,
      "chip": "ym2612"
    },
    {
      "channel": 0,
      "note": 98,
      "start": 90.1182,
      "duration": 0.0311,
      "velocity": 114,
      "chip": "ym2612"
    },
    {
      "channel": 0,
      "note": 98,
      "start": 90.2273,
      "duration": 0.2179,
      "velocity": 127,
      "chip": "ym2612"
    },
    {
      "channel": 1,
      "note": 56,
      "start": 90.2275,
      "duration": 0.2179,
      "velocity": 93,
      "chip": "ym2612"
    },
    {
      "channel": 0,
      "note": 53,
      "start": 90.4452,
      "duration": 0.0154,
      "velocity": 127,
      "chip": "ym2612"
    },
    {
      "channel": 1,
      "note": 61,
      "start": 90.4454,
      "duration": 0.2179,
      "velocity": 93,
      "chip": "ym2612"
    },
    {
      "channel": 4,
      "note": 91,
      "start": 90.4457,
      "duration": 0.218,
      "velocity": 96,
      "chip": "ym2612"
    },
    {
      "channel": 0,
      "note": 76,
      "start": 90.4606,
      "duration": 0.2025,
      "velocity": 123,
      "chip": "ym2612"
    },
    {
      "channel": 5,
      "note": 91,
      "start": 90.5077,
      "duration": 0.2179,
      "velocity": 96,
      "chip": "ym2612"
    },
    {
      "channel": 0,
      "note": 70,
      "start": 90.6631,
      "duration": 0.2179,
      "velocity": 99,
      "chip": "ym2612"
    },
    {
      "channel": 1,
      "note": 56,
      "start": 90.6632,
      "duration": 0.2178,
      "velocity": 93,
      "chip": "ym2612"
    },
    {
      "channel": 2,
      "note": 49,
      "start": 90.6634,
      "duration": 1.3073,
      "velocity": 111,
      "chip": "ym2612"
    },
    {
      "channel": 4,
      "note": 94,
      "start": 90.6637,
      "duration": 1.3073,
      "velocity": 96,
      "chip": "ym2612"
    },
    {
      "channel": 5,
      "note": 94,
      "start": 90.7256,
      "duration": 1.3073,
      "velocity": 96,
      "chip": "ym2612"
    },
    {
      "channel": 3,
      "note": 49,
      "start": 90.8032,
      "duration": 1.3073,
      "velocity": 111,
      "chip": "ym2612"
    },
    {
      "channel": 0,
      "note": 53,
      "start": 90.881,
      "duration": 0.2179,
      "velocity": 123,
      "chip": "ym2612"
    },
    {
      "channel": 1,
      "note": 60,
      "start": 90.8811,
      "duration": 0.2179,
      "velocity": 93,
      "chip": "ym2612"
    },
    {
      "channel": 0,
      "note": 61,
      "start": 91.0989,
      "duration": 0.2179,
      "velocity": 114,
      "chip": "ym2612"
    },
    {
      "channel": 1,
      "note": 60,
      "start": 91.099,
      "duration": 0.4358,
      "velocity": 93,
      "chip": "ym2612"
    },
    {
      "channel": 0,
      "note": 53,
      "start": 91.3167,
      "duration": 0.0309,
      "velocity": 114,
      "chip": "ym2612"
    },
    {
      "channel": 0,
      "note": 98,
      "start": 91.4255,
      "duration": 0.0311,
      "velocity": 114,
      "chip": "ym2612"
    },
    {
      "channel": 0,
      "note": 98,
      "start": 91.5346,
      "duration": 0.2179,
      "velocity": 127,
      "chip": "ym2612"
    },
    {
      "channel": 1,
      "note": 63,
      "start": 91.5348,
      "duration": 0.2179,
      "velocity": 93,
      "chip": "ym2612"
    },
    {
      "channel": 0,
      "note": 53,
      "start": 91.7525,
      "duration": 0.0154,
      "velocity": 127,
      "chip": "ym2612"
    },
    {
      "channel": 1,
      "note": 67,
      "start": 91.7527,
      "duration": 0.2179,
      "velocity": 93,
      "chip": "ym2612"
    },
    {
      "channel": 0,
      "note": 76,
      "start": 91.7679,
      "duration": 0.0934,
      "velocity": 127,
      "chip": "ym2612"
    },
    {
      "channel": 0,
      "note": 72,
      "start": 91.8612,
      "duration": 0.0156,
      "velocity": 127,
      "chip": "ym2612"
    },
    {
      "channel": 0,
      "note": 76,
      "start": 91.8768,
      "duration": 0.0936,
      "velocity": 123,
      "chip": "ym2612"
    },
    {
      "channel": 0,
      "note": 72,
      "start": 91.9704,
      "duration": 0.2178,
      "velocity": 99,
      "chip": "ym2612"
    },
    {
      "channel": 1,
      "note": 72,
      "start": 91.9706,
      "duration": 0.4357,
      "velocity": 93,
      "chip": "ym2612"
    },
    {
      "channel": 2,
      "note": 48,
      "start": 91.9707,
      "duration": 1.3073,
      "velocity": 111,
      "chip": "ym2612"
    },
    {
      "channel": 4,
      "note": 96,
      "start": 91.971,
      "duration": 0.4356,
      "velocity": 96,
      "chip": "ym2612"
    },
    {
      "channel": 5,
      "note": 96,
      "start": 92.0329,
      "duration": 0.4357,
      "velocity": 96,
      "chip": "ym2612"
    },
    {
      "channel": 3,
      "note": 48,
      "start": 92.1105,
      "duration": 1.3073,
      "velocity": 111,
      "chip": "ym2612"
    },
    {
      "channel": 0,
      "note": 53,
      "start": 92.1883,
      "duration": 0.2179,
      "velocity": 123,
      "chip": "ym2612"
    },
    {
      "channel": 0,
      "note": 61,
      "start": 92.4062,
      "duration": 0.2179,
      "velocity": 114,
      "chip": "ym2612"
    },
    {
      "channel": 1,
      "note": 56,
      "start": 92.4063,
      "duration": 0.2179,
      "velocity": 93,
      "chip": "ym2612"
    },
    {
      "channel": 4,
      "note": 96,
      "start": 92.4066,
      "duration": 0.2179,
      "velocity": 96,
      "chip": "ym2612"
    },
    {
      "channel": 5,
      "note": 96,
      "start": 92.4687,
      "duration": 0.2178,
      "velocity": 96,
      "chip": "ym2612"
    },
    {
      "channel": 0,
      "note": 53,
      "start": 92.6241,
      "duration": 0.0309,
      "velocity": 114,
      "chip": "ym2612"
    },
    {
      "channel": 1,
      "note": 56,
      "start": 92.6242,
      "duration": 0.4358,
      "velocity": 93,
      "chip": "ym2612"
    },
    {
      "channel": 4,
      "note": 94,
      "start": 92.6245,
      "duration": 0.4357,
      "velocity": 96,
      "chip": "ym2612"
    },
    {
      "channel": 5,
      "note": 94,
      "start": 92.6865,
      "duration": 0.4358,
      "velocity": 96,
      "chip": "ym2612"
    },
    {
      "channel": 0,
      "note": 98,
      "start": 92.7328,
      "duration": 0.0311,
      "velocity": 114,
      "chip": "ym2612"
    },
    {
      "channel": 0,
      "note": 98,
      "start": 92.8419,
      "duration": 0.2179,
      "velocity": 127,
      "chip": "ym2612"
    },
    {
      "channel": 0,
      "note": 53,
      "start": 93.0598,
      "duration": 0.0153,
      "velocity": 127,
      "chip": "ym2612"
    },
    {
      "channel": 1,
      "note": 68,
      "start": 93.06,
      "duration": 0.2179,
      "velocity": 93,
      "chip": "ym2612"
    },
    {
      "channel": 4,
      "note": 92,
      "start": 93.0603,
      "duration": 0.218,
      "velocity": 96,
      "chip": "ym2612"
    },
    {
      "channel": 0,
      "note": 76,
      "start": 93.0752,
      "duration": 0.2025,
      "velocity": 123,
      "chip": "ym2612"
    },
    {
      "channel": 5,
      "note": 92,
      "start": 93.1223,
      "duration": 0.2179,
      "velocity": 96,
      "chip": "ym2612"
    },
    {
      "channel": 0,
      "note": 70,
      "start": 93.2777,
      "duration": 0.2179,
      "velocity": 99,
      "chip": "ym2612"
    },
    {
      "channel": 1,
      "note": 56,
      "start": 93.2778,
      "duration": 0.4358,
      "velocity": 93,
      "chip": "ym2612"
    },
    {
      "channel": 2,
      "note": 44,
      "start": 93.278,
      "duration": 1.3073,
      "velocity": 111,
      "chip": "ym2612"
    },
    {
      "channel": 4,
      "note": 91,
      "start": 93.2782,
      "duration": 0.4356,
      "velocity": 96,
      "chip": "ym2612"
    },
    {
      "channel": 5,
      "note": 91,
      "start": 93.3402,
      "duration": 0.4357,
      "velocity": 96,
      "chip": "ym2612"
    },
    {
      "channel": 3,
      "note": 44,
      "start": 93.4178,
      "duration": 1.3073,
      "velocity": 111,
      "chip": "ym2612"
    },
    {
      "channel": 0,
      "note": 53,
      "start": 93.4956,
      "duration": 0.2179,
      "velocity": 123,
      "chip": "ym2612"
    },
    {
      "channel": 0,
      "note": 61,
      "start": 93.7135,
      "duration": 0.2179,
      "velocity": 114,
      "chip": "ym2612"
    },
    {
      "channel": 1,
      "note": 58,
      "start": 93.7136,
      "duration": 0.2178,
      "velocity": 93,
      "chip": "ym2612"
    },
    {
      "channel": 4,
      "note": 98,
      "start": 93.7139,
      "duration": 0.2179,
      "velocity": 96,
      "chip": "ym2612"
    },
    {
      "channel": 5,
      "note": 98,
      "start": 93.776,
      "duration": 0.2178,
      "velocity": 96,
      "chip": "ym2612"
    },
    {
      "channel": 0,
      "note": 53,
      "start": 93.9313,
      "duration": 0.0309,
      "velocity": 114,
      "chip": "ym2612"
    },
    {
      "channel": 1,
      "note": 58,
      "start": 93.9315,
      "duration": 0.2179,
      "velocity": 93,
      "chip": "ym2612"
    },
    {
      "channel": 4,
      "note": 96,
      "start": 93.9318,
      "duration": 0.4358,
      "velocity": 96,
      "chip": "ym2612"
    },
    {
      "channel": 5,
      "note": 96,
      "start": 93.9938,
      "duration": 0.4358,
      "velocity": 96,
      "chip": "ym2612"
    },
    {
      "channel": 0,
      "note": 98,
      "start": 94.0401,
      "duration": 0.0311,
      "velocity": 114,
      "chip": "ym2612"
    },
    {
      "channel": 0,
      "note": 98,
      "start": 94.1492,
      "duration": 0.2179,
      "velocity": 127,
      "chip": "ym2612"
    },
    {
      "channel": 1,
      "note": 70,
      "start": 94.1494,
      "duration": 0.2179,
      "velocity": 93,
      "chip": "ym2612"
    },
    {
      "channel": 0,
      "note": 53,
      "start": 94.3671,
      "duration": 0.0153,
      "velocity": 127,
      "chip": "ym2612"
    },
    {
      "channel": 1,
      "note": 65,
      "start": 94.3673,
      "duration": 0.2179,
      "velocity": 93,
      "chip": "ym2612"
    },
    {
      "channel": 4,
      "note": 94,
      "start": 94.3676,
      "duration": 0.218,
      "velocity": 96,
      "chip": "ym2612"
    },
    {
      "channel": 0,
      "note": 76,
      "start": 94.3825,
      "duration": 0.0934,
      "velocity": 127,
      "chip": "ym2612"
    },
    {
      "channel": 5,
      "note": 94,
      "start": 94.4296,
      "duration": 0.2179,
      "velocity": 96,
      "chip": "ym2612"
    },
    {
      "channel": 0,
      "note": 72,
      "start": 94.4759,
      "duration": 0.0156,
      "velocity": 127,
      "chip": "ym2612"
    },
    {
      "channel": 0,
      "note": 76,
      "start": 94.4914,
      "duration": 0.0936,
      "velocity": 123,
      "chip": "ym2612"
    },
    {
      "channel": 0,
      "note": 72,
      "start": 94.585,
      "duration": 0.2178,
      "velocity": 99,
      "chip": "ym2612"
    },
    {
      "channel": 1,
      "note": 62,
      "start": 94.5851,
      "duration": 0.4358,
      "velocity": 93,
      "chip": "ym2612"
    },
    {
      "channel": 2,
      "note": 46,
      "start": 94.5853,
      "duration": 1.3073,
      "velocity": 111,
      "chip": "ym2612"
    },
    {
      "channel": 4,
      "note": 92,
      "start": 94.5856,
      "duration": 0.4356,
      "velocity": 96,
      "chip": "ym2612"
    },
    {
      "channel": 5,
      "note": 92,
      "start": 94.6475,
      "duration": 0.4357,
      "velocity": 96,
      "chip": "ym2612"
    },
    {
      "channel": 3,
      "note": 46,
      "start": 94.7251,
      "duration": 1.3073,
      "velocity": 111,
      "chip": "ym2612"
    },
    {
      "channel": 0,
      "note": 53,
      "start": 94.8029,
      "duration": 0.2179,
      "velocity": 123,
      "chip": "ym2612"
    },
    {
      "channel": 0,
      "note": 61,
      "start": 95.0208,
      "duration": 0.2179,
      "velocity": 114,
      "chip": "ym2612"
    },
    {
      "channel": 1,
      "note": 61,
      "start": 95.0209,
      "duration": 0.2178,
      "velocity": 93,
      "chip": "ym2612"
    },
    {
      "channel": 4,
      "note": 97,
      "start": 95.0212,
      "duration": 0.2179,
      "velocity": 96,
      "chip": "ym2612"
    },
    {
      "channel": 5,
      "note": 97,
      "start": 95.0832,
      "duration": 0.2178,
      "velocity": 96,
      "chip": "ym2612"
    },
    {
      "channel": 0,
      "note": 53,
      "start": 95.2386,
      "duration": 0.0309,
      "velocity": 114,
      "chip": "ym2612"
    },
    {
      "channel": 1,
      "note": 61,
      "start": 95.2388,
      "duration": 0.2179,
      "velocity": 93,
      "chip": "ym2612"
    },
    {
      "channel": 4,
      "note": 96,
      "start": 95.2391,
      "duration": 0.4358,
      "velocity": 96,
      "chip": "ym2612"
    },
    {
      "channel": 5,
      "note": 96,
      "start": 95.3011,
      "duration": 0.4358,
      "velocity": 96,
      "chip": "ym2612"
    },
    {
      "channel": 0,
      "note": 98,
      "start": 95.3474,
      "duration": 0.0311,
      "velocity": 114,
      "chip": "ym2612"
    },
    {
      "channel": 0,
      "note": 98,
      "start": 95.4565,
      "duration": 0.2179,
      "velocity": 127,
      "chip": "ym2612"
    },
    {
      "channel": 1,
      "note": 56,
      "start": 95.4567,
      "duration": 0.2179,
      "velocity": 93,
      "chip": "ym2612"
    },
    {
      "channel": 0,
      "note": 53,
      "start": 95.6744,
      "duration": 0.0153,
      "velocity": 127,
      "chip": "ym2612"
    },
    {
      "channel": 1,
      "note": 61,
      "start": 95.6746,
      "duration": 0.2179,
      "velocity": 93,
      "chip": "ym2612"
    },
    {
      "channel": 4,
      "note": 94,
      "start": 95.6749,
      "duration": 0.218,
      "velocity": 96,
      "chip": "ym2612"
    },
    {
      "channel": 0,
      "note": 76,
      "start": 95.6898,
      "duration": 0.2025,
      "velocity": 123,
      "chip": "ym2612"
    },
    {
      "channel": 5,
      "note": 94,
      "start": 95.7369,
      "duration": 0.2179,
      "velocity": 96,
      "chip": "ym2612"
    },
    {
      "channel": 0,
      "note": 70,
      "start": 95.8923,
      "duration": 0.2179,
      "velocity": 99,
      "chip": "ym2612"
    },
    {
      "channel": 1,
      "note": 56,
      "start": 95.8924,
      "duration": 0.4358,
      "velocity": 93,
      "chip": "ym2612"
    },
    {
      "channel": 2,
      "note": 49,
      "start": 95.8926,
      "duration": 0.8719,
      "velocity": 121,
      "chip": "ym2612"
    },
    {
      "channel": 4,
      "note": 92,
      "start": 95.8928,
      "duration": 0.8723,
      "velocity": 96,
      "chip": "ym2612"
    },
    {
      "channel": 5,
      "note": 92,
      "start": 95.9548,
      "duration": 0.8715,
      "velocity": 96,
      "chip": "ym2612"
    },
    {
      "channel": 3,
      "note": 49,
      "start": 96.0324,
      "duration": 0.7325,
      "velocity": 121,
      "chip": "ym2612"
    },
    {
      "channel": 0,
      "note": 53,
      "start": 96.1102,
      "duration": 0.2179,
      "velocity": 123,
      "chip": "ym2612"
    },
    {
      "channel": 0,
      "note": 61,
      "start": 96.3281,
      "duration": 0.2179,
      "velocity": 127,
      "chip": "ym2612"
    },
    {
      "channel": 1,
      "note": 63,
      "start": 96.3282,
      "duration": 0.2179,
      "velocity": 93,
      "chip": "ym2612"
    },
    {
      "channel": 0,
      "note": 53,
      "start": 96.5459,
      "duration": 0.0154,
      "velocity": 127,
      "chip": "ym2612"
    },
    {
      "channel": 1,
      "note": 63,
      "start": 96.5461,
      "duration": 0.218,
      "velocity": 93,
      "chip": "ym2612"
    },
    {
      "channel": 0,
      "note": 76,
      "start": 96.5613,
      "duration": 0.0934,
      "velocity": 127,
      "chip": "ym2612"
    },
    {
      "channel": 0,
      "note": 72,
      "start": 96.6547,
      "duration": 0.0156,
      "velocity": 127,
      "chip": "ym2612"
    },
    {
      "channel": 0,
      "note": 76,
      "start": 96.6702,
      "duration": 0.0936,
      "velocity": 123,
      "chip": "ym2612"
    },
    {
      "channel": 0,
      "note": 72,
      "start": 96.7639,
      "duration": 0.2178,
      "velocity": 99,
      "chip": "ym2612"
    },
    {
      "channel": 1,
      "note": 59,
      "start": 96.7641,
      "duration": 0.1085,
      "velocity": 93,
      "chip": "ym2612"
    },
    {
      "channel": 2,
      "note": 51,
      "start": 96.7645,
      "duration": 0.046,
      "velocity": 121,
      "chip": "ym2612"
    },
    {
      "channel": 3,
      "note": 51,
      "start": 96.7649,
      "duration": 0.0456,
      "velocity": 121,
      "chip": "ym2612"
    },
    {
      "channel": 0,
      "note": 53,
      "start": 96.9817,
      "duration": 0.2179,
      "velocity": 127,
      "chip": "ym2612"
    },
    {
      "channel": 2,
      "note": 64,
      "start": 96.9819,
      "duration": 0.0464,
      "velocity": 121,
      "chip": "ym2612"
    },
    {
      "channel": 3,
      "note": 60,
      "start": 96.982,
      "duration": 0.0464,
      "velocity": 121,
      "chip": "ym2612"
    },
    {
      "channel": 0,
      "note": 61,
      "start": 97.1996,
      "duration": 0.0154,
      "velocity": 127,
      "chip": "ym2612"
    },
    {
      "channel": 1,
      "note": 57,
      "start": 97.1997,
      "duration": 0.2179,
      "velocity": 93,
      "chip": "ym2612"
    },
    {
      "channel": 2,
      "note": 64,
      "start": 97.1998,
      "duration": 0.0464,
      "velocity": 121,
      "chip": "ym2612"
    },
    {
      "channel": 3,
      "note": 60,
      "start": 97.1999,
      "duration": 0.0464,
      "velocity": 121,
      "chip": "ym2612"
    },
    {
      "channel": 0,
      "note": 76,
      "start": 97.2149,
      "duration": 0.2025,
      "velocity": 123,
      "chip": "ym2612"
    },
    {
      "channel": 0,
      "note": 66,
      "start": 97.4175,
      "duration": 0.2179,
      "velocity": 123,
      "chip": "ym2612"
    },
    {
      "channel": 1,
      "note": 60,
      "start": 97.4176,
      "duration": 0.2179,
      "velocity": 93,
      "chip": "ym2612"
    },
    {
      "channel": 2,
      "note": 64,
      "start": 97.4177,
      "duration": 0.0464,
      "velocity": 121,
      "chip": "ym2612"
    },
    {
      "channel": 3,
      "note": 60,
      "start": 97.4178,
      "duration": 0.0464,
      "velocity": 121,
      "chip": "ym2612"
    },
    {
      "channel": 0,
      "note": 53,
      "start": 97.6354,
      "duration": 0.2179,
      "velocity": 114,
      "chip": "ym2612"
    },
    {
      "channel": 1,
      "note": 64,
      "start": 97.6355,
      "duration": 0.1087,
      "velocity": 93,
      "chip": "ym2612"
    },
    {
      "channel": 2,
      "note": 64,
      "start": 97.6356,
      "duration": 0.0464,
      "velocity": 121,
      "chip": "ym2612"
    },
    {
      "channel": 3,
      "note": 60,
      "start": 97.6357,
      "duration": 0.0463,
      "velocity": 121,
      "chip": "ym2612"
    },
    {
      "channel": 0,
      "note": 53,
      "start": 97.8532,
      "duration": 0.0309,
      "velocity": 114,
      "chip": "ym2612"
    },
    {
      "channel": 2,
      "note": 62,
      "start": 97.8534,
      "duration": 0.0464,
      "velocity": 121,
      "chip": "ym2612"
    },
    {
      "channel": 3,
      "note": 59,
      "start": 97.8535,
      "duration": 0.0464,
      "velocity": 121,
      "chip": "ym2612"
    },
    {
      "channel": 0,
      "note": 98,
      "start": 97.962,
      "duration": 0.0311,
      "velocity": 114,
      "chip": "ym2612"
    },
    {
      "channel": 0,
      "note": 98,
      "start": 98.0711,
      "duration": 0.0154,
      "velocity": 127,
      "chip": "ym2612"
    },
    {
      "channel": 1,
      "note": 59,
      "start": 98.0713,
      "duration": 0.2179,
      "velocity": 93,
      "chip": "ym2612"
    },
    {
      "channel": 2,
      "note": 62,
      "start": 98.0714,
      "duration": 0.0464,
      "velocity": 121,
      "chip": "ym2612"
    },
    {
      "channel": 3,
      "note": 59,
      "start": 98.0715,
      "duration": 0.0464,
      "velocity": 121,
      "chip": "ym2612"
    },
    {
      "channel": 0,
      "note": 76,
      "start": 98.0865,
      "duration": 0.2025,
      "velocity": 123,
      "chip": "ym2612"
    },
    {
      "channel": 0,
      "note": 70,
      "start": 98.289,
      "duration": 0.2179,
      "velocity": 114,
      "chip": "ym2612"
    },
    {
      "channel": 1,
      "note": 55,
      "start": 98.2892,
      "duration": 0.4357,
      "velocity": 93,
      "chip": "ym2612"
    },
    {
      "channel": 2,
      "note": 62,
      "start": 98.2893,
      "duration": 0.0463,
      "velocity": 121,
      "chip": "ym2612"
    },
    {
      "channel": 3,
      "note": 59,
      "start": 98.2894,
      "duration": 0.0463,
      "velocity": 121,
      "chip": "ym2612"
    },
    {
      "channel": 0,
      "note": 53,
      "start": 98.5069,
      "duration": 0.0309,
      "velocity": 114,
      "chip": "ym2612"
    },
    {
      "channel": 2,
      "note": 64,
      "start": 98.5073,
      "duration": 0.0462,
      "velocity": 121,
      "chip": "ym2612"
    },
    {
      "channel": 3,
      "note": 60,
      "start": 98.5074,
      "duration": 0.0462,
      "velocity": 121,
      "chip": "ym2612"
    },
    {
      "channel": 0,
      "note": 98,
      "start": 98.7248,
      "duration": 0.2179,
      "velocity": 127,
      "chip": "ym2612"
    },
    {
      "channel": 1,
      "note": 60,
      "start": 98.7249,
      "duration": 0.2179,
      "velocity": 93,
      "chip": "ym2612"
    },
    {
      "channel": 2,
      "note": 64,
      "start": 98.725,
      "duration": 0.0463,
      "velocity": 121,
      "chip": "ym2612"
    },
    {
      "channel": 3,
      "note": 60,
      "start": 98.7251,
      "duration": 0.0463,
      "velocity": 121,
      "chip": "ym2612"
    },
    {
      "channel": 0,
      "note": 61,
      "start": 98.9427,
      "duration": 0.0153,
      "velocity": 127,
      "chip": "ym2612"
    },
    {
      "channel": 1,
      "note": 55,
      "start": 98.9428,
      "duration": 0.2178,
      "velocity": 93,
      "chip": "ym2612"
    },
    {
      "channel": 2,
      "note": 64,
      "start": 98.9429,
      "duration": 0.0463,
      "velocity": 121,
      "chip": "ym2612"
    },
    {
      "channel": 3,
      "note": 60,
      "start": 98.943,
      "duration": 0.0463,
      "velocity": 121,
      "chip": "ym2612"
    },
    {
      "channel": 0,
      "note": 76,
      "start": 98.958,
      "duration": 0.2025,
      "velocity": 123,
      "chip": "ym2612"
    },
    {
      "channel": 0,
      "note": 66,
      "start": 99.1605,
      "duration": 0.2179,
      "velocity": 114,
      "chip": "ym2612"
    },
    {
      "channel": 1,
      "note": 60,
      "start": 99.1607,
      "duration": 0.4358,
      "velocity": 93,
      "chip": "ym2612"
    },
    {
      "channel": 2,
      "note": 64,
      "start": 99.1608,
      "duration": 0.0465,
      "velocity": 121,
      "chip": "ym2612"
    },
    {
      "channel": 3,
      "note": 60,
      "start": 99.1609,
      "duration": 0.0465,
      "velocity": 121,
      "chip": "ym2612"
    },
    {
      "channel": 0,
      "note": 53,
      "start": 99.3784,
      "duration": 0.0309,
      "velocity": 114,
      "chip": "ym2612"
    },
    {
      "channel": 2,
      "note": 64,
      "start": 99.3786,
      "duration": 0.0464,
      "velocity": 121,
      "chip": "ym2612"
    },
    {
      "channel": 3,
      "note": 60,
      "start": 99.3788,
      "duration": 0.0463,
      "velocity": 121,
      "chip": "ym2612"
    },
    {
      "channel": 0,
      "note": 98,
      "start": 99.5963,
      "duration": 0.2179,
      "velocity": 127,
      "chip": "ym2612"
    },
    {
      "channel": 1,
      "note": 59,
      "start": 99.5964,
      "duration": 0.2179,
      "velocity": 93,
      "chip": "ym2612"
    },
    {
      "channel": 2,
      "note": 67,
      "start": 99.5966,
      "duration": 0.0464,
      "velocity": 121,
      "chip": "ym2612"
    },
    {
      "channel": 3,
      "note": 59,
      "start": 99.5966,
      "duration": 0.0464,
      "velocity": 121,
      "chip": "ym2612"
    },
    {
      "channel": 0,
      "note": 53,
      "start": 99.8142,
      "duration": 0.0154,
      "velocity": 127,
      "chip": "ym2612"
    },
    {
      "channel": 1,
      "note": 55,
      "start": 99.8143,
      "duration": 0.2179,
      "velocity": 93,
      "chip": "ym2612"
    },
    {
      "channel": 2,
      "note": 67,
      "start": 99.8144,
      "duration": 0.0464,
      "velocity": 121,
      "chip": "ym2612"
    },
    {
      "channel": 3,
      "note": 59,
      "start": 99.8146,
      "duration": 0.0463,
      "velocity": 121,
      "chip": "ym2612"
    },
    {
      "channel": 0,
      "note": 76,
      "start": 99.8295,
      "duration": 0.2025,
      "velocity": 123,
      "chip": "ym2612"
    },
    {
      "channel": 0,
      "note": 70,
      "start": 100.0321,
      "duration": 0.2179,
      "velocity": 114,
      "chip": "ym2612"
    },
    {
      "channel": 1,
      "note": 59,
      "start": 100.0322,
      "duration": 0.4357,
      "velocity": 93,
      "chip": "ym2612"
    },
    {
      "channel": 2,
      "note": 67,
      "start": 100.0323,
      "duration": 0.0463,
      "velocity": 121,
      "chip": "ym2612"
    },
    {
      "channel": 3,
      "note": 59,
      "start": 100.0324,
      "duration": 0.0463,
      "velocity": 121,
      "chip": "ym2612"
    },
    {
      "channel": 0,
      "note": 53,
      "start": 100.25,
      "duration": 0.0309,
      "velocity": 114,
      "chip": "ym2612"
    },
    {
      "channel": 2,
      "note": 67,
      "start": 100.2502,
      "duration": 0.0463,
      "velocity": 121,
      "chip": "ym2612"
    },
    {
      "channel": 3,
      "note": 59,
      "start": 100.2503,
      "duration": 0.0463,
      "velocity": 121,
      "chip": "ym2612"
    },
    {
      "channel": 0,
      "note": 98,
      "start": 100.4678,
      "duration": 0.2179,
      "velocity": 127,
      "chip": "ym2612"
    },
    {
      "channel": 2,
      "note": 65,
      "start": 100.468,
      "duration": 0.0464,
      "velocity": 121,
      "chip": "ym2612"
    },
    {
      "channel": 3,
      "note": 62,
      "start": 100.4681,
      "duration": 0.0464,
      "velocity": 121,
      "chip": "ym2612"
    },
    {
      "channel": 0,
      "note": 61,
      "start": 100.6857,
      "duration": 0.0153,
      "velocity": 127,
      "chip": "ym2612"
    },
    {
      "channel": 1,
      "note": 58,
      "start": 100.6859,
      "duration": 0.2179,
      "velocity": 93,
      "chip": "ym2612"
    },
    {
      "channel": 2,
      "note": 65,
      "start": 100.686,
      "duration": 0.0464,
      "velocity": 121,
      "chip": "ym2612"
    },
    {
      "channel": 3,
      "note": 62,
      "start": 100.6861,
      "duration": 0.0464,
      "velocity": 121,
      "chip": "ym2612"
    },
    {
      "channel": 0,
      "note": 76,
      "start": 100.7011,
      "duration": 0.2025,
      "velocity": 123,
      "chip": "ym2612"
    },
    {
      "channel": 0,
      "note": 66,
      "start": 100.9036,
      "duration": 0.2179,
      "velocity": 123,
      "chip": "ym2612"
    },
    {
      "channel": 1,
      "note": 58,
      "start": 100.9037,
      "duration": 0.2179,
      "velocity": 93,
      "chip": "ym2612"
    },
    {
      "channel": 2,
      "note": 65,
      "start": 100.9039,
      "duration": 0.0464,
      "velocity": 121,
      "chip": "ym2612"
    },
    {
      "channel": 3,
      "note": 62,
      "start": 100.9039,
      "duration": 0.0464,
      "velocity": 121,
      "chip": "ym2612"
    },
    {
      "channel": 0,
      "note": 53,
      "start": 101.1215,
      "duration": 0.2179,
      "velocity": 114,
      "chip": "ym2612"
    },
    {
      "channel": 1,
      "note": 53,
      "start": 101.1216,
      "duration": 0.2178,
      "velocity": 93,
      "chip": "ym2612"
    },
    {
      "channel": 2,
      "note": 65,
      "start": 101.1217,
      "duration": 0.0464,
      "velocity": 121,
      "chip": "ym2612"
    },
    {
      "channel": 3,
      "note": 62,
      "start": 101.1218,
      "duration": 0.0464,
      "velocity": 121,
      "chip": "ym2612"
    },
    {
      "channel": 0,
      "note": 53,
      "start": 101.3394,
      "duration": 0.0309,
      "velocity": 114,
      "chip": "ym2612"
    },
    {
      "channel": 2,
      "note": 65,
      "start": 101.3396,
      "duration": 0.0464,
      "velocity": 121,
      "chip": "ym2612"
    },
    {
      "channel": 3,
      "note": 62,
      "start": 101.3397,
      "duration": 0.0464,
      "velocity": 121,
      "chip": "ym2612"
    },
    {
      "channel": 0,
      "note": 98,
      "start": 101.4481,
      "duration": 0.0311,
      "velocity": 114,
      "chip": "ym2612"
    },
    {
      "channel": 0,
      "note": 98,
      "start": 101.5574,
      "duration": 0.0152,
      "velocity": 127,
      "chip": "ym2612"
    },
    {
      "channel": 1,
      "note": 58,
      "start": 101.5576,
      "duration": 0.2177,
      "velocity": 93,
      "chip": "ym2612"
    },
    {
      "channel": 2,
      "note": 65,
      "start": 101.5577,
      "duration": 0.0462,
      "velocity": 121,
      "chip": "ym2612"
    },
    {
      "channel": 3,
      "note": 62,
      "start": 101.5578,
      "duration": 0.0462,
      "velocity": 121,
      "chip": "ym2612"
    },
    {
      "channel": 0,
      "note": 76,
      "start": 101.5726,
      "duration": 0.2025,
      "velocity": 123,
      "chip": "ym2612"
    },
    {
      "channel": 0,
      "note": 70,
      "start": 101.7751,
      "duration": 0.2179,
      "velocity": 114,
      "chip": "ym2612"
    },
    {
      "channel": 1,
      "note": 57,
      "start": 101.7753,
      "duration": 0.4358,
      "velocity": 93,
      "chip": "ym2612"
    },
    {
      "channel": 2,
      "note": 65,
      "start": 101.7754,
      "duration": 0.0464,
      "velocity": 121,
      "chip": "ym2612"
    },
    {
      "channel": 3,
      "note": 62,
      "start": 101.7755,
      "duration": 0.0463,
      "velocity": 121,
      "chip": "ym2612"
    },
    {
      "channel": 0,
      "note": 53,
      "start": 101.993,
      "duration": 0.0309,
      "velocity": 114,
      "chip": "ym2612"
    },
    {
      "channel": 2,
      "note": 65,
      "start": 101.9932,
      "duration": 0.0464,
      "velocity": 121,
      "chip": "ym2612"
    },
    {
      "channel": 3,
      "note": 62,
      "start": 101.9934,
      "duration": 0.0463,
      "velocity": 121,
      "chip": "ym2612"
    },
    {
      "channel": 0,
      "note": 98,
      "start": 102.2109,
      "duration": 0.2179,
      "velocity": 127,
      "chip": "ym2612"
    },
    {
      "channel": 1,
      "note": 56,
      "start": 102.211,
      "duration": 0.2179,
      "velocity": 93,
      "chip": "ym2612"
    },
    {
      "channel": 2,
      "note": 68,
      "start": 102.2112,
      "duration": 0.0463,
      "velocity": 121,
      "chip": "ym2612"
    },
    {
      "channel": 3,
      "note": 62,
      "start": 102.2112,
      "duration": 0.0463,
      "velocity": 121,
      "chip": "ym2612"
    },
    {
      "channel": 0,
      "note": 61,
      "start": 102.4288,
      "duration": 0.0154,
      "velocity": 127,
      "chip": "ym2612"
    },
    {
      "channel": 1,
      "note": 59,
      "start": 102.4289,
      "duration": 0.2179,
      "velocity": 93,
      "chip": "ym2612"
    },
    {
      "channel": 2,
      "note": 68,
      "start": 102.429,
      "duration": 0.0464,
      "velocity": 121,
      "chip": "ym2612"
    },
    {
      "channel": 3,
      "note": 62,
      "start": 102.4292,
      "duration": 0.0463,
      "velocity": 121,
      "chip": "ym2612"
    },
    {
      "channel": 0,
      "note": 76,
      "start": 102.4441,
      "duration": 0.2025,
      "velocity": 123,
      "chip": "ym2612"
    },
    {
      "channel": 0,
      "note": 66,
      "start": 102.6467,
      "duration": 0.2179,
      "velocity": 114,
      "chip": "ym2612"
    },
    {
      "channel": 1,
      "note": 62,
      "start": 102.6468,
      "duration": 0.4358,
      "velocity": 93,
      "chip": "ym2612"
    },
    {
      "channel": 2,
      "note": 68,
      "start": 102.6469,
      "duration": 0.0464,
      "velocity": 121,
      "chip": "ym2612"
    },
    {
      "channel": 3,
      "note": 62,
      "start": 102.647,
      "duration": 0.0463,
      "velocity": 121,
      "chip": "ym2612"
    },
    {
      "channel": 0,
      "note": 53,
      "start": 102.8646,
      "duration": 0.0309,
      "velocity": 114,
      "chip": "ym2612"
    },
    {
      "channel": 2,
      "note": 68,
      "start": 102.8648,
      "duration": 0.0464,
      "velocity": 121,
      "chip": "ym2612"
    },
    {
      "channel": 3,
      "note": 62,
      "start": 102.8649,
      "duration": 0.0464,
      "velocity": 121,
      "chip": "ym2612"
    },
    {
      "channel": 0,
      "note": 98,
      "start": 103.0824,
      "duration": 0.2179,
      "velocity": 127,
      "chip": "ym2612"
    },
    {
      "channel": 1,
      "note": 65,
      "start": 103.0826,
      "duration": 0.2179,
      "velocity": 93,
      "chip": "ym2612"
    },
    {
      "channel": 2,
      "note": 68,
      "start": 103.0827,
      "duration": 0.0464,
      "velocity": 121,
      "chip": "ym2612"
    },
    {
      "channel": 3,
      "note": 65,
      "start": 103.0828,
      "duration": 0.0464,
      "velocity": 121,
      "chip": "ym2612"
    },
    {
      "channel": 0,
      "note": 53,
      "start": 103.3003,
      "duration": 0.0153,
      "velocity": 127,
      "chip": "ym2612"
    },
    {
      "channel": 1,
      "note": 64,
      "start": 103.3005,
      "duration": 0.2179,
      "velocity": 93,
      "chip": "ym2612"
    },
    {
      "channel": 2,
      "note": 68,
      "start": 103.3006,
      "duration": 0.0463,
      "velocity": 121,
      "chip": "ym2612"
    },
    {
      "channel": 3,
      "note": 65,
      "start": 103.3007,
      "duration": 0.0463,
      "velocity": 121,
      "chip": "ym2612"
    },
    {
      "channel": 0,
      "note": 76,
      "start": 103.3157,
      "duration": 0.2025,
      "velocity": 127,
      "chip": "ym2612"
    },
    {
      "channel": 0,
      "note": 70,
      "start": 103.5182,
      "duration": 0.0153,
      "velocity": 127,
      "chip": "ym2612"
    },
    {
      "channel": 1,
      "note": 62,
      "start": 103.5184,
      "duration": 0.2179,
      "velocity": 93,
      "chip": "ym2612"
    },
    {
      "channel": 2,
      "note": 68,
      "start": 103.5185,
      "duration": 0.0463,
      "velocity": 121,
      "chip": "ym2612"
    },
    {
      "channel": 3,
      "note": 65,
      "start": 103.5186,
      "duration": 0.0463,
      "velocity": 121,
      "chip": "ym2612"
    },
    {
      "channel": 0,
      "note": 76,
      "start": 103.5336,
      "duration": 0.2026,
      "velocity": 123,
      "chip": "ym2612"
    },
    {
      "channel": 0,
      "note": 70,
      "start": 103.7361,
      "duration": 0.2178,
      "velocity": 99,
      "chip": "ym2612"
    },
    {
      "channel": 1,
      "note": 59,
      "start": 103.7363,
      "duration": 0.1086,
      "velocity": 93,
      "chip": "ym2612"
    },
    {
      "channel": 2,
      "note": 68,
      "start": 103.7364,
      "duration": 0.0463,
      "velocity": 121,
      "chip": "ym2612"
    },
    {
      "channel": 3,
      "note": 65,
      "start": 103.7365,
      "duration": 0.0463,
      "velocity": 121,
      "chip": "ym2612"
    },
    {
      "channel": 0,
      "note": 53,
      "start": 103.954,
      "duration": 0.2179,
      "velocity": 127,
      "chip": "ym2612"
    },
    {
      "channel": 2,
      "note": 64,
      "start": 103.9542,
      "duration": 0.0464,
      "velocity": 121,
      "chip": "ym2612"
    },
    {
      "channel": 3,
      "note": 60,
      "start": 103.9543,
      "duration": 0.0464,
      "velocity": 121,
      "chip": "ym2612"
    },
    {
      "channel": 0,
      "note": 61,
      "start": 104.1719,
      "duration": 0.0154,
      "velocity": 127,
      "chip": "ym2612"
    },
    {
      "channel": 1,
      "note": 57,
      "start": 104.172,
      "duration": 0.2179,
      "velocity": 93,
      "chip": "ym2612"
    },
    {
      "channel": 2,
      "note": 64,
      "start": 104.1721,
      "duration": 0.0464,
      "velocity": 121,
      "chip": "ym2612"
    },
    {
      "channel": 3,
      "note": 60,
      "start": 104.1722,
      "duration": 0.0464,
      "velocity": 121,
      "chip": "ym2612"
    },
    {
      "channel": 0,
      "note": 76,
      "start": 104.1872,
      "duration": 0.2025,
      "velocity": 123,
      "chip": "ym2612"
    },
    {
      "channel": 0,
      "note": 66,
      "start": 104.3897,
      "duration": 0.2179,
      "velocity": 123,
      "chip": "ym2612"
    },
    {
      "channel": 1,
      "note": 60,
      "start": 104.3899,
      "duration": 0.2179,
      "velocity": 93,
      "chip": "ym2612"
    },
    {
      "channel": 2,
      "note": 64,
      "start": 104.39,
      "duration": 0.0464,
      "velocity": 121,
      "chip": "ym2612"
    },
    {
      "channel": 3,
      "note": 60,
      "start": 104.3901,
      "duration": 0.0464,
      "velocity": 121,
      "chip": "ym2612"
    },
    {
      "channel": 0,
      "note": 53,
      "start": 104.6076,
      "duration": 0.2179,
      "velocity": 114,
      "chip": "ym2612"
    },
    {
      "channel": 1,
      "note": 64,
      "start": 104.6078,
      "duration": 0.1087,
      "velocity": 93,
      "chip": "ym2612"
    },
    {
      "channel": 2,
      "note": 64,
      "start": 104.6079,
      "duration": 0.0464,
      "velocity": 121,
      "chip": "ym2612"
    },
    {
      "channel": 3,
      "note": 60,
      "start": 104.608,
      "duration": 0.0463,
      "velocity": 121,
      "chip": "ym2612"
    },
    {
      "channel": 0,
      "note": 53,
      "start": 104.8255,
      "duration": 0.0309,
      "velocity": 114,
      "chip": "ym2612"
    },
    {
      "channel": 2,
      "note": 62,
      "start": 104.8257,
      "duration": 0.0464,
      "velocity": 121,
      "chip": "ym2612"
    },
    {
      "channel": 3,
      "note": 59,
      "start": 104.8258,
      "duration": 0.0464,
      "velocity": 121,
      "chip": "ym2612"
    },
    {
      "channel": 0,
      "note": 98,
      "start": 104.9342,
      "duration": 0.0311,
      "velocity": 114,
      "chip": "ym2612"
    },
    {
      "channel": 0,
      "note": 98,
      "start": 105.0434,
      "duration": 0.0154,
      "velocity": 127,
      "chip": "ym2612"
    },
    {
      "channel": 1,
      "note": 59,
      "start": 105.0435,
      "duration": 0.2179,
      "velocity": 93,
      "chip": "ym2612"
    },
    {
      "channel": 2,
      "note": 62,
      "start": 105.0437,
      "duration": 0.0464,
      "velocity": 121,
      "chip": "ym2612"
    },
    {
      "channel": 3,
      "note": 59,
      "start": 105.0437,
      "duration": 0.0464,
      "velocity": 121,
      "chip": "ym2612"
    },
    {
      "channel": 0,
      "note": 76,
      "start": 105.0588,
      "duration": 0.2025,
      "velocity": 123,
      "chip": "ym2612"
    },
    {
      "channel": 0,
      "note": 70,
      "start": 105.2613,
      "duration": 0.2179,
      "velocity": 114,
      "chip": "ym2612"
    },
    {
      "channel": 1,
      "note": 55,
      "start": 105.2614,
      "duration": 0.4357,
      "velocity": 93,
      "chip": "ym2612"
    },
    {
      "channel": 2,
      "note": 62,
      "start": 105.2615,
      "duration": 0.0463,
      "velocity": 121,
      "chip": "ym2612"
    },
    {
      "channel": 3,
      "note": 59,
      "start": 105.2617,
      "duration": 0.0463,
      "velocity": 121,
      "chip": "ym2612"
    },
    {
      "channel": 0,
      "note": 53,
      "start": 105.4792,
      "duration": 0.0309,
      "velocity": 114,
      "chip": "ym2612"
    },
    {
      "channel": 2,
      "note": 64,
      "start": 105.4794,
      "duration": 0.0464,
      "velocity": 121,
      "chip": "ym2612"
    },
    {
      "channel": 3,
      "note": 60,
      "start": 105.4795,
      "duration": 0.0464,
      "velocity": 121,
      "chip": "ym2612"
    },
    {
      "channel": 0,
      "note": 98,
      "start": 105.6971,
      "duration": 0.2179,
      "velocity": 127,
      "chip": "ym2612"
    },
    {
      "channel": 1,
      "note": 60,
      "start": 105.6972,
      "duration": 0.2179,
      "velocity": 93,
      "chip": "ym2612"
    },
    {
      "channel": 2,
      "note": 64,
      "start": 105.6973,
      "duration": 0.0463,
      "velocity": 121,
      "chip": "ym2612"
    },
    {
      "channel": 3,
      "note": 60,
      "start": 105.6974,
      "duration": 0.0463,
      "velocity": 121,
      "chip": "ym2612"
    },
    {
      "channel": 0,
      "note": 61,
      "start": 105.9149,
      "duration": 0.0153,
      "velocity": 127,
      "chip": "ym2612"
    },
    {
      "channel": 1,
      "note": 55,
      "start": 105.9151,
      "duration": 0.2178,
      "velocity": 93,
      "chip": "ym2612"
    },
    {
      "channel": 2,
      "note": 64,
      "start": 105.9152,
      "duration": 0.0463,
      "velocity": 121,
      "chip": "ym2612"
    },
    {
      "channel": 3,
      "note": 60,
      "start": 105.9153,
      "duration": 0.0463,
      "velocity": 121,
      "chip": "ym2612"
    },
    {
      "channel": 0,
      "note": 76,
      "start": 105.9303,
      "duration": 0.2025,
      "velocity": 123,
      "chip": "ym2612"
    },
    {
      "channel": 0,
      "note": 66,
      "start": 106.1328,
      "duration": 0.2179,
      "velocity": 114,
      "chip": "ym2612"
    },
    {
      "channel": 1,
      "note": 60,
      "start": 106.1329,
      "duration": 0.4358,
      "velocity": 93,
      "chip": "ym2612"
    },
    {
      "channel": 2,
      "note": 64,
      "start": 106.1331,
      "duration": 0.0464,
      "velocity": 121,
      "chip": "ym2612"
    },
    {
      "channel": 3,
      "note": 60,
      "start": 106.1332,
      "duration": 0.0464,
      "velocity": 121,
      "chip": "ym2612"
    },
    {
      "channel": 0,
      "note": 53,
      "start": 106.3507,
      "duration": 0.0309,
      "velocity": 114,
      "chip": "ym2612"
    },
    {
      "channel": 2,
      "note": 64,
      "start": 106.3509,
      "duration": 0.0464,
      "velocity": 121,
      "chip": "ym2612"
    },
    {
      "channel": 3,
      "note": 60,
      "start": 106.351,
      "duration": 0.0463,
      "velocity": 121,
      "chip": "ym2612"
    },
    {
      "channel": 0,
      "note": 98,
      "start": 106.5686,
      "duration": 0.2179,
      "velocity": 127,
      "chip": "ym2612"
    },
    {
      "channel": 1,
      "note": 59,
      "start": 106.5687,
      "duration": 0.2179,
      "velocity": 93,
      "chip": "ym2612"
    },
    {
      "channel": 2,
      "note": 67,
      "start": 106.5688,
      "duration": 0.0464,
      "velocity": 121,
      "chip": "ym2612"
    },
    {
      "channel": 3,
      "note": 59,
      "start": 106.5689,
      "duration": 0.0463,
      "velocity": 121,
      "chip": "ym2612"
    },
    {
      "channel": 0,
      "note": 53,
      "start": 106.7865,
      "duration": 0.0154,
      "velocity": 127,
      "chip": "ym2612"
    },
    {
      "channel": 1,
      "note": 55,
      "start": 106.7866,
      "duration": 0.2179,
      "velocity": 93,
      "chip": "ym2612"
    },
    {
      "channel": 2,
      "note": 67,
      "start": 106.7867,
      "duration": 0.0464,
      "velocity": 121,
      "chip": "ym2612"
    },
    {
      "channel": 3,
      "note": 59,
      "start": 106.7868,
      "duration": 0.0463,
      "velocity": 121,
      "chip": "ym2612"
    },
    {
      "channel": 0,
      "note": 76,
      "start": 106.8018,
      "duration": 0.2025,
      "velocity": 123,
      "chip": "ym2612"
    },
    {
      "channel": 0,
      "note": 70,
      "start": 107.0044,
      "duration": 0.2179,
      "velocity": 114,
      "chip": "ym2612"
    },
    {
      "channel": 1,
      "note": 59,
      "start": 107.0045,
      "duration": 0.4357,
      "velocity": 93,
      "chip": "ym2612"
    },
    {
      "channel": 2,
      "note": 67,
      "start": 107.0046,
      "duration": 0.0463,
      "velocity": 121,
      "chip": "ym2612"
    },
    {
      "channel": 3,
      "note": 59,
      "start": 107.0047,
      "duration": 0.0463,
      "velocity": 121,
      "chip": "ym2612"
    },
    {
      "channel": 0,
      "note": 53,
      "start": 107.2222,
      "duration": 0.0309,
      "velocity": 114,
      "chip": "ym2612"
    },
    {
      "channel": 2,
      "note": 67,
      "start": 107.2225,
      "duration": 0.0463,
      "velocity": 121,
      "chip": "ym2612"
    },
    {
      "channel": 3,
      "note": 59,
      "start": 107.2226,
      "duration": 0.0463,
      "velocity": 121,
      "chip": "ym2612"
    },
    {
      "channel": 0,
      "note": 98,
      "start": 107.4401,
      "duration": 0.2179,
      "velocity": 127,
      "chip": "ym2612"
    },
    {
      "channel": 2,
      "note": 65,
      "start": 107.4405,
      "duration": 0.0462,
      "velocity": 121,
      "chip": "ym2612"
    },
    {
      "channel": 3,
      "note": 62,
      "start": 107.4406,
      "duration": 0.0462,
      "velocity": 121,
      "chip": "ym2612"
    },
    {
      "channel": 0,
      "note": 61,
      "start": 107.658,
      "duration": 0.0153,
      "velocity": 127,
      "chip": "ym2612"
    },
    {
      "channel": 1,
      "note": 58,
      "start": 107.6581,
      "duration": 0.2179,
      "velocity": 93,
      "chip": "ym2612"
    },
    {
      "channel": 2,
      "note": 65,
      "start": 107.6582,
      "duration": 0.0464,
      "velocity": 121,
      "chip": "ym2612"
    },
    {
      "channel": 3,
      "note": 62,
      "start": 107.6583,
      "duration": 0.0464,
      "velocity": 121,
      "chip": "ym2612"
    },
    {
      "channel": 0,
      "note": 76,
      "start": 107.6734,
      "duration": 0.2025,
      "velocity": 123,
      "chip": "ym2612"
    },
    {
      "channel": 0,
      "note": 66,
      "start": 107.8759,
      "duration": 0.2179,
      "velocity": 123,
      "chip": "ym2612"
    },
    {
      "channel": 1,
      "note": 58,
      "start": 107.876,
      "duration": 0.2179,
      "velocity": 93,
      "chip": "ym2612"
    },
    {
      "channel": 2,
      "note": 65,
      "start": 107.8761,
      "duration": 0.0464,
      "velocity": 121,
      "chip": "ym2612"
    },
    {
      "channel": 3,
      "note": 62,
      "start": 107.8762,
      "duration": 0.0464,
      "velocity": 121,
      "chip": "ym2612"
    },
    {
      "channel": 0,
      "note": 53,
      "start": 108.0938,
      "duration": 0.2179,
      "velocity": 114,
      "chip": "ym2612"
    },
    {
      "channel": 1,
      "note": 53,
      "start": 108.0939,
      "duration": 0.2178,
      "velocity": 93,
      "chip": "ym2612"
    },
    {
      "channel": 2,
      "note": 65,
      "start": 108.094,
      "duration": 0.0465,
      "velocity": 121,
      "chip": "ym2612"
    },
    {
      "channel": 3,
      "note": 62,
      "start": 108.0941,
      "duration": 0.0465,
      "velocity": 121,
      "chip": "ym2612"
    },
    {
      "channel": 0,
      "note": 53,
      "start": 108.3117,
      "duration": 0.0309,
      "velocity": 114,
      "chip": "ym2612"
    },
    {
      "channel": 2,
      "note": 65,
      "start": 108.3118,
      "duration": 0.0464,
      "velocity": 121,
      "chip": "ym2612"
    },
    {
      "channel": 3,
      "note": 62,
      "start": 108.312,
      "duration": 0.0464,
      "velocity": 121,
      "chip": "ym2612"
    },
    {
      "channel": 0,
      "note": 98,
      "start": 108.4204,
      "duration": 0.0311,
      "velocity": 114,
      "chip": "ym2612"
    },
    {
      "channel": 0,
      "note": 98,
      "start": 108.5295,
      "duration": 0.0153,
      "velocity": 127,
      "chip": "ym2612"
    },
    {
      "channel": 1,
      "note": 58,
      "start": 108.5297,
      "duration": 0.2179,
      "velocity": 93,
      "chip": "ym2612"
    },
    {
      "channel": 2,
      "note": 65,
      "start": 108.5298,
      "duration": 0.0464,
      "velocity": 121,
      "chip": "ym2612"
    },
    {
      "channel": 3,
      "note": 62,
      "start": 108.5299,
      "duration": 0.0463,
      "velocity": 121,
      "chip": "ym2612"
    },
    {
      "channel": 0,
      "note": 76,
      "start": 108.5449,
      "duration": 0.2025,
      "velocity": 123,
      "chip": "ym2612"
    },
    {
      "channel": 0,
      "note": 70,
      "start": 108.7474,
      "duration": 0.2179,
      "velocity": 114,
      "chip": "ym2612"
    },
    {
      "channel": 1,
      "note": 57,
      "start": 108.7476,
      "duration": 0.4358,
      "velocity": 93,
      "chip": "ym2612"
    },
    {
      "channel": 2,
      "note": 65,
      "start": 108.7477,
      "duration": 0.0464,
      "velocity": 121,
      "chip": "ym2612"
    },
    {
      "channel": 3,
      "note": 62,
      "start": 108.7478,
      "duration": 0.0463,
      "velocity": 121,
      "chip": "ym2612"
    },
    {
      "channel": 0,
      "note": 53,
      "start": 108.9653,
      "duration": 0.0309,
      "velocity": 114,
      "chip": "ym2612"
    },
    {
      "channel": 2,
      "note": 65,
      "start": 108.9655,
      "duration": 0.0464,
      "velocity": 121,
      "chip": "ym2612"
    },
    {
      "channel": 3,
      "note": 62,
      "start": 108.9656,
      "duration": 0.0463,
      "velocity": 121,
      "chip": "ym2612"
    },
    {
      "channel": 0,
      "note": 98,
      "start": 109.1832,
      "duration": 0.2179,
      "velocity": 127,
      "chip": "ym2612"
    },
    {
      "channel": 1,
      "note": 56,
      "start": 109.1833,
      "duration": 0.2179,
      "velocity": 93,
      "chip": "ym2612"
    },
    {
      "channel": 2,
      "note": 68,
      "start": 109.1834,
      "duration": 0.0463,
      "velocity": 121,
      "chip": "ym2612"
    },
    {
      "channel": 3,
      "note": 62,
      "start": 109.1835,
      "duration": 0.0463,
      "velocity": 121,
      "chip": "ym2612"
    },
    {
      "channel": 0,
      "note": 61,
      "start": 109.4011,
      "duration": 0.0154,
      "velocity": 127,
      "chip": "ym2612"
    },
    {
      "channel": 1,
      "note": 59,
      "start": 109.4012,
      "duration": 0.2179,
      "velocity": 93,
      "chip": "ym2612"
    },
    {
      "channel": 2,
      "note": 68,
      "start": 109.4013,
      "duration": 0.0464,
      "velocity": 121,
      "chip": "ym2612"
    },
    {
      "channel": 3,
      "note": 62,
      "start": 109.4014,
      "duration": 0.0464,
      "velocity": 121,
      "chip": "ym2612"
    },
    {
      "channel": 0,
      "note": 76,
      "start": 109.4164,
      "duration": 0.2025,
      "velocity": 123,
      "chip": "ym2612"
    },
    {
      "channel": 0,
      "note": 66,
      "start": 109.6189,
      "duration": 0.2179,
      "velocity": 114,
      "chip": "ym2612"
    },
    {
      "channel": 1,
      "note": 62,
      "start": 109.6191,
      "duration": 0.4358,
      "velocity": 93,
      "chip": "ym2612"
    },
    {
      "channel": 2,
      "note": 68,
      "start": 109.6192,
      "duration": 0.0464,
      "velocity": 121,
      "chip": "ym2612"
    },
    {
      "channel": 3,
      "note": 62,
      "start": 109.6193,
      "duration": 0.0463,
      "velocity": 121,
      "chip": "ym2612"
    },
    {
      "channel": 0,
      "note": 53,
      "start": 109.8368,
      "duration": 0.0309,
      "velocity": 114,
      "chip": "ym2612"
    },
    {
      "channel": 2,
      "note": 68,
      "start": 109.837,
      "duration": 0.0464,
      "velocity": 121,
      "chip": "ym2612"
    },
    {
      "channel": 3,
      "note": 62,
      "start": 109.8371,
      "duration": 0.0464,
      "velocity": 121,
      "chip": "ym2612"
    },
    {
      "channel": 0,
      "note": 98,
      "start": 110.0547,
      "duration": 0.2179,
      "velocity": 127,
      "chip": "ym2612"
    },
    {
      "channel": 1,
      "note": 65,
      "start": 110.0549,
      "duration": 0.2179,
      "velocity": 93,
      "chip": "ym2612"
    },
    {
      "channel": 2,
      "note": 68,
      "start": 110.055,
      "duration": 0.0464,
      "velocity": 121,
      "chip": "ym2612"
    },
    {
      "channel": 3,
      "note": 65,
      "start": 110.0551,
      "duration": 0.0464,
      "velocity": 121,
      "chip": "ym2612"
    },
    {
      "channel": 0,
      "note": 53,
      "start": 110.2726,
      "duration": 0.0153,
      "velocity": 127,
      "chip": "ym2612"
    },
    {
      "channel": 1,
      "note": 64,
      "start": 110.2727,
      "duration": 0.218,
      "velocity": 93,
      "chip": "ym2612"
    },
    {
      "channel": 2,
      "note": 68,
      "start": 110.2729,
      "duration": 0.0463,
      "velocity": 121,
      "chip": "ym2612"
    },
    {
      "channel": 3,
      "note": 65,
      "start": 110.2729,
      "duration": 0.0463,
      "velocity": 121,
      "chip": "ym2612"
    },
    {
      "channel": 0,
      "note": 76,
      "start": 110.288,
      "duration": 0.2027,
      "velocity": 127,
      "chip": "ym2612"
    },
    {
      "channel": 0,
      "note": 70,
      "start": 110.4907,
      "duration": 0.0151,
      "velocity": 127,
      "chip": "ym2612"
    },
    {
      "channel": 1,
      "note": 62,
      "start": 110.4908,
      "duration": 0.2177,
      "velocity": 93,
      "chip": "ym2612"
    },
    {
      "channel": 2,
      "note": 68,
      "start": 110.4909,
      "duration": 0.0462,
      "velocity": 121,
      "chip": "ym2612"
    },
    {
      "channel": 3,
      "note": 65,
      "start": 110.491,
      "duration": 0.0462,
      "velocity": 121,
      "chip": "ym2612"
    },
    {
      "channel": 0,
      "note": 76,
      "start": 110.5058,
      "duration": 0.2025,
      "velocity": 123,
      "chip": "ym2612"
    },
    {
      "channel": 0,
      "note": 70,
      "start": 110.7084,
      "duration": 0.2178,
      "velocity": 99,
      "chip": "ym2612"
    },
    {
      "channel": 1,
      "note": 59,
      "start": 110.7085,
      "duration": 0.1086,
      "velocity": 93,
      "chip": "ym2612"
    },
    {
      "channel": 2,
      "note": 68,
      "start": 110.7087,
      "duration": 0.0463,
      "velocity": 121,
      "chip": "ym2612"
    },
    {
      "channel": 3,
      "note": 65,
      "start": 110.7088,
      "duration": 0.0463,
      "velocity": 121,
      "chip": "ym2612"
    },
    {
      "channel": 0,
      "note": 53,
      "start": 110.9262,
      "duration": 0.2179,
      "velocity": 127,
      "chip": "ym2612"
    },
    {
      "channel": 2,
      "note": 64,
      "start": 110.9264,
      "duration": 0.0464,
      "velocity": 121,
      "chip": "ym2612"
    },
    {
      "channel": 3,
      "note": 60,
      "start": 110.9266,
      "duration": 0.0464,
      "velocity": 121,
      "chip": "ym2612"
    },
    {
      "channel": 0,
      "note": 61,
      "start": 111.1441,
      "duration": 0.0154,
      "velocity": 127,
      "chip": "ym2612"
    },
    {
      "channel": 1,
      "note": 57,
      "start": 111.1443,
      "duration": 0.2179,
      "velocity": 93,
      "chip": "ym2612"
    },
    {
      "channel": 2,
      "note": 64,
      "start": 111.1444,
      "duration": 0.0464,
      "velocity": 121,
      "chip": "ym2612"
    },
    {
      "channel": 3,
      "note": 60,
      "start": 111.1445,
      "duration": 0.0464,
      "velocity": 121,
      "chip": "ym2612"
    },
    {
      "channel": 0,
      "note": 76,
      "start": 111.1595,
      "duration": 0.2025,
      "velocity": 123,
      "chip": "ym2612"
    },
    {
      "channel": 0,
      "note": 66,
      "start": 111.362,
      "duration": 0.2179,
      "velocity": 123,
      "chip": "ym2612"
    },
    {
      "channel": 1,
      "note": 60,
      "start": 111.3622,
      "duration": 0.2179,
      "velocity": 93,
      "chip": "ym2612"
    },
    {
      "channel": 2,
      "note": 64,
      "start": 111.3622,
      "duration": 0.0464,
      "velocity": 121,
      "chip": "ym2612"
    },
    {
      "channel": 3,
      "note": 60,
      "start": 111.3624,
      "duration": 0.0464,
      "velocity": 121,
      "chip": "ym2612"
    },
    {
      "channel": 0,
      "note": 53,
      "start": 111.5799,
      "duration": 0.2179,
      "velocity": 114,
      "chip": "ym2612"
    },
    {
      "channel": 1,
      "note": 64,
      "start": 111.58,
      "duration": 0.1087,
      "velocity": 93,
      "chip": "ym2612"
    },
    {
      "channel": 2,
      "note": 64,
      "start": 111.5801,
      "duration": 0.0464,
      "velocity": 121,
      "chip": "ym2612"
    },
    {
      "channel": 3,
      "note": 60,
      "start": 111.5802,
      "duration": 0.0463,
      "velocity": 121,
      "chip": "ym2612"
    },
    {
      "channel": 0,
      "note": 53,
      "start": 111.7978,
      "duration": 0.0309,
      "velocity": 114,
      "chip": "ym2612"
    },
    {
      "channel": 2,
      "note": 62,
      "start": 111.798,
      "duration": 0.0464,
      "velocity": 121,
      "chip": "ym2612"
    },
    {
      "channel": 3,
      "note": 59,
      "start": 111.7981,
      "duration": 0.0464,
      "velocity": 121,
      "chip": "ym2612"
    },
    {
      "channel": 0,
      "note": 98,
      "start": 111.9065,
      "duration": 0.0311,
      "velocity": 114,
      "chip": "ym2612"
    },
    {
      "channel": 0,
      "note": 98,
      "start": 112.0157,
      "duration": 0.0154,
      "velocity": 127,
      "chip": "ym2612"
    },
    {
      "channel": 1,
      "note": 59,
      "start": 112.0158,
      "duration": 0.2179,
      "velocity": 93,
      "chip": "ym2612"
    },
    {
      "channel": 2,
      "note": 62,
      "start": 112.0159,
      "duration": 0.0464,
      "velocity": 121,
      "chip": "ym2612"
    },
    {
      "channel": 3,
      "note": 59,
      "start": 112.016,
      "duration": 0.0464,
      "velocity": 121,
      "chip": "ym2612"
    },
    {
      "channel": 0,
      "note": 76,
      "start": 112.031,
      "duration": 0.2025,
      "velocity": 123,
      "chip": "ym2612"
    },
    {
      "channel": 0,
      "note": 70,
      "start": 112.2336,
      "duration": 0.2179,
      "velocity": 114,
      "chip": "ym2612"
    },
    {
      "channel": 1,
      "note": 55,
      "start": 112.2337,
      "duration": 0.4357,
      "velocity": 93,
      "chip": "ym2612"
    },
    {
      "channel": 2,
      "note": 62,
      "start": 112.2338,
      "duration": 0.0463,
      "velocity": 121,
      "chip": "ym2612"
    },
    {
      "channel": 3,
      "note": 59,
      "start": 112.2339,
      "duration": 0.0463,
      "velocity": 121,
      "chip": "ym2612"
    },
    {
      "channel": 0,
      "note": 53,
      "start": 112.4514,
      "duration": 0.0309,
      "velocity": 114,
      "chip": "ym2612"
    },
    {
      "channel": 2,
      "note": 64,
      "start": 112.4516,
      "duration": 0.0464,
      "velocity": 121,
      "chip": "ym2612"
    },
    {
      "channel": 3,
      "note": 60,
      "start": 112.4517,
      "duration": 0.0464,
      "velocity": 121,
      "chip": "ym2612"
    },
    {
      "channel": 0,
      "note": 98,
      "start": 112.6693,
      "duration": 0.2179,
      "velocity": 127,
      "chip": "ym2612"
    },
    {
      "channel": 1,
      "note": 60,
      "start": 112.6694,
      "duration": 0.2179,
      "velocity": 93,
      "chip": "ym2612"
    },
    {
      "channel": 2,
      "note": 64,
      "start": 112.6695,
      "duration": 0.0463,
      "velocity": 121,
      "chip": "ym2612"
    },
    {
      "channel": 3,
      "note": 60,
      "start": 112.6697,
      "duration": 0.0463,
      "velocity": 121,
      "chip": "ym2612"
    },
    {
      "channel": 0,
      "note": 61,
      "start": 112.8872,
      "duration": 0.0153,
      "velocity": 127,
      "chip": "ym2612"
    },
    {
      "channel": 1,
      "note": 55,
      "start": 112.8873,
      "duration": 0.2178,
      "velocity": 93,
      "chip": "ym2612"
    },
    {
      "channel": 2,
      "note": 64,
      "start": 112.8875,
      "duration": 0.0463,
      "velocity": 121,
      "chip": "ym2612"
    },
    {
      "channel": 3,
      "note": 60,
      "start": 112.8876,
      "duration": 0.0463,
      "velocity": 121,
      "chip": "ym2612"
    },
    {
      "channel": 0,
      "note": 76,
      "start": 112.9026,
      "duration": 0.2025,
      "velocity": 123,
      "chip": "ym2612"
    },
    {
      "channel": 0,
      "note": 66,
      "start": 113.1051,
      "duration": 0.2179,
      "velocity": 114,
      "chip": "ym2612"
    },
    {
      "channel": 1,
      "note": 60,
      "start": 113.1052,
      "duration": 0.4358,
      "velocity": 93,
      "chip": "ym2612"
    },
    {
      "channel": 2,
      "note": 64,
      "start": 113.1053,
      "duration": 0.0464,
      "velocity": 121,
      "chip": "ym2612"
    },
    {
      "channel": 3,
      "note": 60,
      "start": 113.1054,
      "duration": 0.0464,
      "velocity": 121,
      "chip": "ym2612"
    },
    {
      "channel": 0,
      "note": 53,
      "start": 113.323,
      "duration": 0.0309,
      "velocity": 114,
      "chip": "ym2612"
    },
    {
      "channel": 2,
      "note": 64,
      "start": 113.3232,
      "duration": 0.0464,
      "velocity": 121,
      "chip": "ym2612"
    },
    {
      "channel": 3,
      "note": 60,
      "start": 113.3233,
      "duration": 0.0463,
      "velocity": 121,
      "chip": "ym2612"
    },
    {
      "channel": 0,
      "note": 98,
      "start": 113.5408,
      "duration": 0.2179,
      "velocity": 127,
      "chip": "ym2612"
    },
    {
      "channel": 1,
      "note": 59,
      "start": 113.541,
      "duration": 0.2179,
      "velocity": 93,
      "chip": "ym2612"
    },
    {
      "channel": 2,
      "note": 67,
      "start": 113.5411,
      "duration": 0.0464,
      "velocity": 121,
      "chip": "ym2612"
    },
    {
      "channel": 3,
      "note": 59,
      "start": 113.5412,
      "duration": 0.0463,
      "velocity": 121,
      "chip": "ym2612"
    },
    {
      "channel": 0,
      "note": 53,
      "start": 113.7587,
      "duration": 0.0154,
      "velocity": 127,
      "chip": "ym2612"
    },
    {
      "channel": 1,
      "note": 55,
      "start": 113.7589,
      "duration": 0.2179,
      "velocity": 93,
      "chip": "ym2612"
    },
    {
      "channel": 2,
      "note": 67,
      "start": 113.759,
      "duration": 0.0464,
      "velocity": 121,
      "chip": "ym2612"
    },
    {
      "channel": 3,
      "note": 59,
      "start": 113.7591,
      "duration": 0.0463,
      "velocity": 121,
      "chip": "ym2612"
    },
    {
      "channel": 0,
      "note": 76,
      "start": 113.7741,
      "duration": 0.2025,
      "velocity": 123,
      "chip": "ym2612"
    },
    {
      "channel": 0,
      "note": 70,
      "start": 113.9766,
      "duration": 0.2179,
      "velocity": 114,
      "chip": "ym2612"
    },
    {
      "channel": 1,
      "note": 59,
      "start": 113.9768,
      "duration": 0.4357,
      "velocity": 93,
      "chip": "ym2612"
    },
    {
      "channel": 2,
      "note": 67,
      "start": 113.9769,
      "duration": 0.0463,
      "velocity": 121,
      "chip": "ym2612"
    },
    {
      "channel": 3,
      "note": 59,
      "start": 113.977,
      "duration": 0.0463,
      "velocity": 121,
      "chip": "ym2612"
    },
    {
      "channel": 0,
      "note": 53,
      "start": 114.1945,
      "duration": 0.0309,
      "velocity": 114,
      "chip": "ym2612"
    },
    {
      "channel": 2,
      "note": 67,
      "start": 114.1947,
      "duration": 0.0463,
      "velocity": 121,
      "chip": "ym2612"
    },
    {
      "channel": 3,
      "note": 59,
      "start": 114.1949,
      "duration": 0.0463,
      "velocity": 121,
      "chip": "ym2612"
    },
    {
      "channel": 0,
      "note": 98,
      "start": 114.4124,
      "duration": 0.2179,
      "velocity": 127,
      "chip": "ym2612"
    },
    {
      "channel": 2,
      "note": 65,
      "start": 114.4126,
      "duration": 0.0464,
      "velocity": 121,
      "chip": "ym2612"
    },
    {
      "channel": 3,
      "note": 62,
      "start": 114.4127,
      "duration": 0.0464,
      "velocity": 121,
      "chip": "ym2612"
    },
    {
      "channel": 0,
      "note": 61,
      "start": 114.6303,
      "duration": 0.0153,
      "velocity": 127,
      "chip": "ym2612"
    },
    {
      "channel": 1,
      "note": 58,
      "start": 114.6304,
      "duration": 0.2179,
      "velocity": 93,
      "chip": "ym2612"
    },
    {
      "channel": 2,
      "note": 65,
      "start": 114.6305,
      "duration": 0.0464,
      "velocity": 121,
      "chip": "ym2612"
    },
    {
      "channel": 3,
      "note": 62,
      "start": 114.6306,
      "duration": 0.0464,
      "velocity": 121,
      "chip": "ym2612"
    },
    {
      "channel": 0,
      "note": 76,
      "start": 114.6456,
      "duration": 0.2025,
      "velocity": 123,
      "chip": "ym2612"
    },
    {
      "channel": 0,
      "note": 66,
      "start": 114.8481,
      "duration": 0.2179,
      "velocity": 123,
      "chip": "ym2612"
    },
    {
      "channel": 1,
      "note": 58,
      "start": 114.8483,
      "duration": 0.2179,
      "velocity": 93,
      "chip": "ym2612"
    },
    {
      "channel": 2,
      "note": 65,
      "start": 114.8484,
      "duration": 0.0464,
      "velocity": 121,
      "chip": "ym2612"
    },
    {
      "channel": 3,
      "note": 62,
      "start": 114.8485,
      "duration": 0.0464,
      "velocity": 121,
      "chip": "ym2612"
    },
    {
      "channel": 0,
      "note": 53,
      "start": 115.066,
      "duration": 0.2179,
      "velocity": 114,
      "chip": "ym2612"
    },
    {
      "channel": 1,
      "note": 53,
      "start": 115.0662,
      "duration": 0.2178,
      "velocity": 93,
      "chip": "ym2612"
    },
    {
      "channel": 2,
      "note": 65,
      "start": 115.0663,
      "duration": 0.0464,
      "velocity": 121,
      "chip": "ym2612"
    },
    {
      "channel": 3,
      "note": 62,
      "start": 115.0664,
      "duration": 0.0464,
      "velocity": 121,
      "chip": "ym2612"
    },
    {
      "channel": 0,
      "note": 53,
      "start": 115.2839,
      "duration": 0.0309,
      "velocity": 114,
      "chip": "ym2612"
    },
    {
      "channel": 2,
      "note": 65,
      "start": 115.2841,
      "duration": 0.0464,
      "velocity": 121,
      "chip": "ym2612"
    },
    {
      "channel": 3,
      "note": 62,
      "start": 115.2842,
      "duration": 0.0464,
      "velocity": 121,
      "chip": "ym2612"
    },
    {
      "channel": 0,
      "note": 98,
      "start": 115.3926,
      "duration": 0.0312,
      "velocity": 114,
      "chip": "ym2612"
    },
    {
      "channel": 0,
      "note": 98,
      "start": 115.5018,
      "duration": 0.0153,
      "velocity": 127,
      "chip": "ym2612"
    },
    {
      "channel": 1,
      "note": 58,
      "start": 115.5019,
      "duration": 0.2179,
      "velocity": 93,
      "chip": "ym2612"
    },
    {
      "channel": 2,
      "note": 65,
      "start": 115.502,
      "duration": 0.0464,
      "velocity": 121,
      "chip": "ym2612"
    },
    {
      "channel": 3,
      "note": 62,
      "start": 115.5022,
      "duration": 0.0463,
      "velocity": 121,
      "chip": "ym2612"
    },
    {
      "channel": 0,
      "note": 76,
      "start": 115.5171,
      "duration": 0.2025,
      "velocity": 123,
      "chip": "ym2612"
    },
    {
      "channel": 0,
      "note": 70,
      "start": 115.7197,
      "duration": 0.2179,
      "velocity": 114,
      "chip": "ym2612"
    },
    {
      "channel": 1,
      "note": 57,
      "start": 115.7198,
      "duration": 0.4358,
      "velocity": 93,
      "chip": "ym2612"
    },
    {
      "channel": 2,
      "note": 65,
      "start": 115.7199,
      "duration": 0.0464,
      "velocity": 121,
      "chip": "ym2612"
    },
    {
      "channel": 3,
      "note": 62,
      "start": 115.72,
      "duration": 0.0463,
      "velocity": 121,
      "chip": "ym2612"
    },
    {
      "channel": 0,
      "note": 53,
      "start": 115.9376,
      "duration": 0.0309,
      "velocity": 114,
      "chip": "ym2612"
    },
    {
      "channel": 2,
      "note": 65,
      "start": 115.9378,
      "duration": 0.0464,
      "velocity": 121,
      "chip": "ym2612"
    },
    {
      "channel": 3,
      "note": 62,
      "start": 115.9379,
      "duration": 0.0463,
      "velocity": 121,
      "chip": "ym2612"
    },
    {
      "channel": 0,
      "note": 98,
      "start": 116.1554,
      "duration": 0.2179,
      "velocity": 127,
      "chip": "ym2612"
    },
    {
      "channel": 1,
      "note": 56,
      "start": 116.1556,
      "duration": 0.2179,
      "velocity": 93,
      "chip": "ym2612"
    },
    {
      "channel": 2,
      "note": 68,
      "start": 116.1557,
      "duration": 0.0463,
      "velocity": 121,
      "chip": "ym2612"
    },
    {
      "channel": 3,
      "note": 62,
      "start": 116.1558,
      "duration": 0.0463,
      "velocity": 121,
      "chip": "ym2612"
    },
    {
      "channel": 0,
      "note": 61,
      "start": 116.3733,
      "duration": 0.0154,
      "velocity": 127,
      "chip": "ym2612"
    },
    {
      "channel": 1,
      "note": 59,
      "start": 116.3735,
      "duration": 0.2179,
      "velocity": 93,
      "chip": "ym2612"
    },
    {
      "channel": 2,
      "note": 68,
      "start": 116.3738,
      "duration": 0.0462,
      "velocity": 121,
      "chip": "ym2612"
    },
    {
      "channel": 3,
      "note": 62,
      "start": 116.3739,
      "duration": 0.0462,
      "velocity": 121,
      "chip": "ym2612"
    },
    {
      "channel": 0,
      "note": 76,
      "start": 116.3887,
      "duration": 0.2025,
      "velocity": 123,
      "chip": "ym2612"
    },
    {
      "channel": 0,
      "note": 66,
      "start": 116.5912,
      "duration": 0.2179,
      "velocity": 114,
      "chip": "ym2612"
    },
    {
      "channel": 1,
      "note": 62,
      "start": 116.5913,
      "duration": 0.4358,
      "velocity": 93,
      "chip": "ym2612"
    },
    {
      "channel": 2,
      "note": 68,
      "start": 116.5915,
      "duration": 0.0464,
      "velocity": 121,
      "chip": "ym2612"
    },
    {
      "channel": 3,
      "note": 62,
      "start": 116.5915,
      "duration": 0.0464,
      "velocity": 121,
      "chip": "ym2612"
    },
    {
      "channel": 0,
      "note": 53,
      "start": 116.8091,
      "duration": 0.0309,
      "velocity": 114,
      "chip": "ym2612"
    },
    {
      "channel": 2,
      "note": 68,
      "start": 116.8093,
      "duration": 0.0464,
      "velocity": 121,
      "chip": "ym2612"
    },
    {
      "channel": 3,
      "note": 62,
      "start": 116.8094,
      "duration": 0.0464,
      "velocity": 121,
      "chip": "ym2612"
    },
    {
      "channel": 0,
      "note": 98,
      "start": 117.027,
      "duration": 0.2179,
      "velocity": 127,
      "chip": "ym2612"
    },
    {
      "channel": 1,
      "note": 65,
      "start": 117.0271,
      "duration": 0.2179,
      "velocity": 93,
      "chip": "ym2612"
    },
    {
      "channel": 2,
      "note": 68,
      "start": 117.0272,
      "duration": 0.0465,
      "velocity": 121,
      "chip": "ym2612"
    },
    {
      "channel": 3,
      "note": 65,
      "start": 117.0273,
      "duration": 0.0465,
      "velocity": 121,
      "chip": "ym2612"
    },
    {
      "channel": 0,
      "note": 53,
      "start": 117.2449,
      "duration": 0.0153,
      "velocity": 127,
      "chip": "ym2612"
    },
    {
      "channel": 1,
      "note": 64,
      "start": 117.245,
      "duration": 0.2179,
      "velocity": 93,
      "chip": "ym2612"
    },
    {
      "channel": 2,
      "note": 68,
      "start": 117.2451,
      "duration": 0.0463,
      "velocity": 121,
      "chip": "ym2612"
    },
    {
      "channel": 3,
      "note": 65,
      "start": 117.2452,
      "duration": 0.0463,
      "velocity": 121,
      "chip": "ym2612"
    },
    {
      "channel": 0,
      "note": 76,
      "start": 117.2602,
      "duration": 0.2025,
      "velocity": 127,
      "chip": "ym2612"
    },
    {
      "channel": 0,
      "note": 70,
      "start": 117.4628,
      "duration": 0.0153,
      "velocity": 127,
      "chip": "ym2612"
    },
    {
      "channel": 1,
      "note": 62,
      "start": 117.4629,
      "duration": 0.2179,
      "velocity": 93,
      "chip": "ym2612"
    },
    {
      "channel": 2,
      "note": 68,
      "start": 117.463,
      "duration": 0.0463,
      "velocity": 121,
      "chip": "ym2612"
    },
    {
      "channel": 3,
      "note": 65,
      "start": 117.4631,
      "duration": 0.0463,
      "velocity": 121,
      "chip": "ym2612"
    },
    {
      "channel": 0,
      "note": 76,
      "start": 117.4781,
      "duration": 0.2026,
      "velocity": 123,
      "chip": "ym2612"
    },
    {
      "channel": 0,
      "note": 70,
      "start": 117.6807,
      "duration": 0.2178,
      "velocity": 99,
      "chip": "ym2612"
    },
    {
      "channel": 1,
      "note": 59,
      "start": 117.6808,
      "duration": 0.1086,
      "velocity": 93,
      "chip": "ym2612"
    },
    {
      "channel": 2,
      "note": 68,
      "start": 117.6809,
      "duration": 0.0463,
      "velocity": 121,
      "chip": "ym2612"
    },
    {
      "channel": 3,
      "note": 65,
      "start": 117.6811,
      "duration": 0.0463,
      "velocity": 121,
      "chip": "ym2612"
    },
    {
      "channel": 0,
      "note": 53,
      "start": 117.8985,
      "duration": 0.2179,
      "velocity": 127,
      "chip": "ym2612"
    },
    {
      "channel": 2,
      "note": 64,
      "start": 117.8987,
      "duration": 0.0464,
      "velocity": 121,
      "chip": "ym2612"
    },
    {
      "channel": 3,
      "note": 60,
      "start": 117.8988,
      "duration": 0.0464,
      "velocity": 121,
      "chip": "ym2612"
    },
    {
      "channel": 0,
      "note": 61,
      "start": 118.1164,
      "duration": 0.0154,
      "velocity": 127,
      "chip": "ym2612"
    },
    {
      "channel": 1,
      "note": 57,
      "start": 118.1165,
      "duration": 0.2179,
      "velocity": 93,
      "chip": "ym2612"
    },
    {
      "channel": 2,
      "note": 64,
      "start": 118.1166,
      "duration": 0.0464,
      "velocity": 121,
      "chip": "ym2612"
    },
    {
      "channel": 3,
      "note": 60,
      "start": 118.1167,
      "duration": 0.0464,
      "velocity": 121,
      "chip": "ym2612"
    },
    {
      "channel": 0,
      "note": 76,
      "start": 118.1317,
      "duration": 0.2025,
      "velocity": 123,
      "chip": "ym2612"
    },
    {
      "channel": 0,
      "note": 66,
      "start": 118.3343,
      "duration": 0.2179,
      "velocity": 123,
      "chip": "ym2612"
    },
    {
      "channel": 1,
      "note": 60,
      "start": 118.3344,
      "duration": 0.2179,
      "velocity": 93,
      "chip": "ym2612"
    },
    {
      "channel": 2,
      "note": 64,
      "start": 118.3345,
      "duration": 0.0464,
      "velocity": 121,
      "chip": "ym2612"
    },
    {
      "channel": 3,
      "note": 60,
      "start": 118.3346,
      "duration": 0.0464,
      "velocity": 121,
      "chip": "ym2612"
    },
    {
      "channel": 0,
      "note": 53,
      "start": 118.5522,
      "duration": 0.2179,
      "velocity": 114,
      "chip": "ym2612"
    },
    {
      "channel": 1,
      "note": 64,
      "start": 118.5523,
      "duration": 0.1087,
      "velocity": 93,
      "chip": "ym2612"
    },
    {
      "channel": 2,
      "note": 64,
      "start": 118.5524,
      "duration": 0.0464,
      "velocity": 121,
      "chip": "ym2612"
    },
    {
      "channel": 3,
      "note": 60,
      "start": 118.5525,
      "duration": 0.0463,
      "velocity": 121,
      "chip": "ym2612"
    },
    {
      "channel": 0,
      "note": 53,
      "start": 118.77,
      "duration": 0.0309,
      "velocity": 114,
      "chip": "ym2612"
    },
    {
      "channel": 2,
      "note": 62,
      "start": 118.7702,
      "duration": 0.0464,
      "velocity": 121,
      "chip": "ym2612"
    },
    {
      "channel": 3,
      "note": 59,
      "start": 118.7703,
      "duration": 0.0464,
      "velocity": 121,
      "chip": "ym2612"
    },
    {
      "channel": 0,
      "note": 98,
      "start": 118.8788,
      "duration": 0.0311,
      "velocity": 114,
      "chip": "ym2612"
    },
    {
      "channel": 0,
      "note": 98,
      "start": 118.9879,
      "duration": 0.0154,
      "velocity": 127,
      "chip": "ym2612"
    },
    {
      "channel": 1,
      "note": 59,
      "start": 118.9881,
      "duration": 0.2179,
      "velocity": 93,
      "chip": "ym2612"
    },
    {
      "channel": 2,
      "note": 62,
      "start": 118.9882,
      "duration": 0.0463,
      "velocity": 121,
      "chip": "ym2612"
    },
    {
      "channel": 3,
      "note": 59,
      "start": 118.9883,
      "duration": 0.0464,
      "velocity": 121,
      "chip": "ym2612"
    },
    {
      "channel": 0,
      "note": 76,
      "start": 119.0033,
      "duration": 0.2025,
      "velocity": 123,
      "chip": "ym2612"
    },
    {
      "channel": 0,
      "note": 70,
      "start": 119.2058,
      "duration": 0.218,
      "velocity": 114,
      "chip": "ym2612"
    },
    {
      "channel": 1,
      "note": 55,
      "start": 119.206,
      "duration": 0.4357,
      "velocity": 93,
      "chip": "ym2612"
    },
    {
      "channel": 2,
      "note": 62,
      "start": 119.2061,
      "duration": 0.0463,
      "velocity": 121,
      "chip": "ym2612"
    },
    {
      "channel": 3,
      "note": 59,
      "start": 119.2062,
      "duration": 0.0463,
      "velocity": 121,
      "chip": "ym2612"
    },
    {
      "channel": 0,
      "note": 53,
      "start": 119.4239,
      "duration": 0.0307,
      "velocity": 114,
      "chip": "ym2612"
    },
    {
      "channel": 2,
      "note": 64,
      "start": 119.4241,
      "duration": 0.0462,
      "velocity": 121,
      "chip": "ym2612"
    },
    {
      "channel": 3,
      "note": 60,
      "start": 119.4242,
      "duration": 0.0462,
      "velocity": 121,
      "chip": "ym2612"
    },
    {
      "channel": 0,
      "note": 98,
      "start": 119.6416,
      "duration": 0.2179,
      "velocity": 127,
      "chip": "ym2612"
    },
    {
      "channel": 1,
      "note": 60,
      "start": 119.6417,
      "duration": 0.2179,
      "velocity": 93,
      "chip": "ym2612"
    },
    {
      "channel": 2,
      "note": 64,
      "start": 119.6418,
      "duration": 0.0463,
      "velocity": 121,
      "chip": "ym2612"
    },
    {
      "channel": 3,
      "note": 60,
      "start": 119.6419,
      "duration": 0.0463,
      "velocity": 121,
      "chip": "ym2612"
    },
    {
      "channel": 0,
      "note": 61,
      "start": 119.8595,
      "duration": 0.0153,
      "velocity": 127,
      "chip": "ym2612"
    },
    {
      "channel": 1,
      "note": 55,
      "start": 119.8596,
      "duration": 0.2178,
      "velocity": 93,
      "chip": "ym2612"
    },
    {
      "channel": 2,
      "note": 64,
      "start": 119.8597,
      "duration": 0.0463,
      "velocity": 121,
      "chip": "ym2612"
    },
    {
      "channel": 3,
      "note": 60,
      "start": 119.8598,
      "duration": 0.0463,
      "velocity": 121,
      "chip": "ym2612"
    },
    {
      "channel": 0,
      "note": 76,
      "start": 119.8748,
      "duration": 0.2025,
      "velocity": 123,
      "chip": "ym2612"
    },
    {
      "channel": 0,
      "note": 66,
      "start": 120.0773,
      "duration": 0.2179,
      "velocity": 114,
      "chip": "ym2612"
    },
    {
      "channel": 1,
      "note": 60,
      "start": 120.0775,
      "duration": 0.4358,
      "velocity": 93,
      "chip": "ym2612"
    },
    {
      "channel": 2,
      "note": 64,
      "start": 120.0776,
      "duration": 0.0464,
      "velocity": 121,
      "chip": "ym2612"
    },
    {
      "channel": 3,
      "note": 60,
      "start": 120.0777,
      "duration": 0.0464,
      "velocity": 121,
      "chip": "ym2612"
    },
    {
      "channel": 0,
      "note": 53,
      "start": 120.2952,
      "duration": 0.0309,
      "velocity": 114,
      "chip": "ym2612"
    },
    {
      "channel": 2,
      "note": 64,
      "start": 120.2954,
      "duration": 0.0464,
      "velocity": 121,
      "chip": "ym2612"
    },
    {
      "channel": 3,
      "note": 60,
      "start": 120.2956,
      "duration": 0.0463,
      "velocity": 121,
      "chip": "ym2612"
    },
    {
      "channel": 0,
      "note": 98,
      "start": 120.5131,
      "duration": 0.2179,
      "velocity": 127,
      "chip": "ym2612"
    },
    {
      "channel": 1,
      "note": 59,
      "start": 120.5132,
      "duration": 0.2179,
      "velocity": 93,
      "chip": "ym2612"
    },
    {
      "channel": 2,
      "note": 67,
      "start": 120.5134,
      "duration": 0.0464,
      "velocity": 121,
      "chip": "ym2612"
    },
    {
      "channel": 3,
      "note": 59,
      "start": 120.5134,
      "duration": 0.0464,
      "velocity": 121,
      "chip": "ym2612"
    },
    {
      "channel": 0,
      "note": 53,
      "start": 120.731,
      "duration": 0.0154,
      "velocity": 127,
      "chip": "ym2612"
    },
    {
      "channel": 1,
      "note": 55,
      "start": 120.7311,
      "duration": 0.2179,
      "velocity": 93,
      "chip": "ym2612"
    },
    {
      "channel": 2,
      "note": 67,
      "start": 120.7312,
      "duration": 0.0464,
      "velocity": 121,
      "chip": "ym2612"
    },
    {
      "channel": 3,
      "note": 59,
      "start": 120.7314,
      "duration": 0.0463,
      "velocity": 121,
      "chip": "ym2612"
    },
    {
      "channel": 0,
      "note": 76,
      "start": 120.7463,
      "duration": 0.2025,
      "velocity": 123,
      "chip": "ym2612"
    },
    {
      "channel": 0,
      "note": 70,
      "start": 120.9489,
      "duration": 0.2179,
      "velocity": 114,
      "chip": "ym2612"
    },
    {
      "channel": 1,
      "note": 59,
      "start": 120.949,
      "duration": 0.4357,
      "velocity": 93,
      "chip": "ym2612"
    },
    {
      "channel": 2,
      "note": 67,
      "start": 120.9491,
      "duration": 0.0463,
      "velocity": 121,
      "chip": "ym2612"
    },
    {
      "channel": 3,
      "note": 59,
      "start": 120.9492,
      "duration": 0.0463,
      "velocity": 121,
      "chip": "ym2612"
    },
    {
      "channel": 0,
      "note": 53,
      "start": 121.1668,
      "duration": 0.0309,
      "velocity": 114,
      "chip": "ym2612"
    },
    {
      "channel": 2,
      "note": 67,
      "start": 121.167,
      "duration": 0.0463,
      "velocity": 121,
      "chip": "ym2612"
    },
    {
      "channel": 3,
      "note": 59,
      "start": 121.1671,
      "duration": 0.0463,
      "velocity": 121,
      "chip": "ym2612"
    },
    {
      "channel": 0,
      "note": 98,
      "start": 121.3846,
      "duration": 0.2179,
      "velocity": 127,
      "chip": "ym2612"
    },
    {
      "channel": 2,
      "note": 65,
      "start": 121.3849,
      "duration": 0.0464,
      "velocity": 121,
      "chip": "ym2612"
    },
    {
      "channel": 3,
      "note": 62,
      "start": 121.3849,
      "duration": 0.0464,
      "velocity": 121,
      "chip": "ym2612"
    },
    {
      "channel": 0,
      "note": 61,
      "start": 121.6025,
      "duration": 0.0153,
      "velocity": 127,
      "chip": "ym2612"
    },
    {
      "channel": 1,
      "note": 58,
      "start": 121.6027,
      "duration": 0.2179,
      "velocity": 93,
      "chip": "ym2612"
    },
    {
      "channel": 2,
      "note": 65,
      "start": 121.6028,
      "duration": 0.0464,
      "velocity": 121,
      "chip": "ym2612"
    },
    {
      "channel": 3,
      "note": 62,
      "start": 121.6029,
      "duration": 0.0464,
      "velocity": 121,
      "chip": "ym2612"
    },
    {
      "channel": 0,
      "note": 76,
      "start": 121.6179,
      "duration": 0.2025,
      "velocity": 123,
      "chip": "ym2612"
    },
    {
      "channel": 0,
      "note": 66,
      "start": 121.8204,
      "duration": 0.2179,
      "velocity": 123,
      "chip": "ym2612"
    },
    {
      "channel": 1,
      "note": 58,
      "start": 121.8205,
      "duration": 0.2179,
      "velocity": 93,
      "chip": "ym2612"
    },
    {
      "channel": 2,
      "note": 65,
      "start": 121.8207,
      "duration": 0.0464,
      "velocity": 121,
      "chip": "ym2612"
    },
    {
      "channel": 3,
      "note": 62,
      "start": 121.8207,
      "duration": 0.0464,
      "velocity": 121,
      "chip": "ym2612"
    },
    {
      "channel": 0,
      "note": 53,
      "start": 122.0383,
      "duration": 0.2179,
      "velocity": 114,
      "chip": "ym2612"
    },
    {
      "channel": 1,
      "note": 53,
      "start": 122.0384,
      "duration": 0.2178,
      "velocity": 93,
      "chip": "ym2612"
    },
    {
      "channel": 2,
      "note": 65,
      "start": 122.0385,
      "duration": 0.0464,
      "velocity": 121,
      "chip": "ym2612"
    },
    {
      "channel": 3,
      "note": 62,
      "start": 122.0386,
      "duration": 0.0464,
      "velocity": 121,
      "chip": "ym2612"
    },
    {
      "channel": 0,
      "note": 53,
      "start": 122.2562,
      "duration": 0.0309,
      "velocity": 114,
      "chip": "ym2612"
    },
    {
      "channel": 2,
      "note": 65,
      "start": 122.2564,
      "duration": 0.0464,
      "velocity": 121,
      "chip": "ym2612"
    },
    {
      "channel": 3,
      "note": 62,
      "start": 122.2565,
      "duration": 0.0464,
      "velocity": 121,
      "chip": "ym2612"
    },
    {
      "channel": 0,
      "note": 98,
      "start": 122.3649,
      "duration": 0.0311,
      "velocity": 114,
      "chip": "ym2612"
    },
    {
      "channel": 0,
      "note": 98,
      "start": 122.4741,
      "duration": 0.0153,
      "velocity": 127,
      "chip": "ym2612"
    },
    {
      "channel": 1,
      "note": 58,
      "start": 122.4742,
      "duration": 0.2179,
      "velocity": 93,
      "chip": "ym2612"
    },
    {
      "channel": 2,
      "note": 65,
      "start": 122.4743,
      "duration": 0.0463,
      "velocity": 121,
      "chip": "ym2612"
    },
    {
      "channel": 3,
      "note": 62,
      "start": 122.4744,
      "duration": 0.0463,
      "velocity": 121,
      "chip": "ym2612"
    },
    {
      "channel": 0,
      "note": 76,
      "start": 122.4894,
      "duration": 0.2025,
      "velocity": 123,
      "chip": "ym2612"
    },
    {
      "channel": 0,
      "note": 70,
      "start": 122.692,
      "duration": 0.2179,
      "velocity": 114,
      "chip": "ym2612"
    },
    {
      "channel": 1,
      "note": 57,
      "start": 122.6921,
      "duration": 0.4358,
      "velocity": 93,
      "chip": "ym2612"
    },
    {
      "channel": 2,
      "note": 65,
      "start": 122.6922,
      "duration": 0.0464,
      "velocity": 121,
      "chip": "ym2612"
    },
    {
      "channel": 3,
      "note": 62,
      "start": 122.6923,
      "duration": 0.0463,
      "velocity": 121,
      "chip": "ym2612"
    },
    {
      "channel": 0,
      "note": 53,
      "start": 122.9098,
      "duration": 0.0309,
      "velocity": 114,
      "chip": "ym2612"
    },
    {
      "channel": 2,
      "note": 65,
      "start": 122.91,
      "duration": 0.0464,
      "velocity": 121,
      "chip": "ym2612"
    },
    {
      "channel": 3,
      "note": 62,
      "start": 122.9102,
      "duration": 0.0463,
      "velocity": 121,
      "chip": "ym2612"
    },
    {
      "channel": 0,
      "note": 98,
      "start": 123.1277,
      "duration": 0.2179,
      "velocity": 127,
      "chip": "ym2612"
    },
    {
      "channel": 1,
      "note": 56,
      "start": 123.1278,
      "duration": 0.2179,
      "velocity": 93,
      "chip": "ym2612"
    },
    {
      "channel": 2,
      "note": 68,
      "start": 123.128,
      "duration": 0.0463,
      "velocity": 121,
      "chip": "ym2612"
    },
    {
      "channel": 3,
      "note": 62,
      "start": 123.128,
      "duration": 0.0463,
      "velocity": 121,
      "chip": "ym2612"
    },
    {
      "channel": 0,
      "note": 61,
      "start": 123.3456,
      "duration": 0.0154,
      "velocity": 127,
      "chip": "ym2612"
    },
    {
      "channel": 1,
      "note": 59,
      "start": 123.3457,
      "duration": 0.2179,
      "velocity": 93,
      "chip": "ym2612"
    },
    {
      "channel": 2,
      "note": 68,
      "start": 123.3459,
      "duration": 0.0464,
      "velocity": 121,
      "chip": "ym2612"
    },
    {
      "channel": 3,
      "note": 62,
      "start": 123.3459,
      "duration": 0.0464,
      "velocity": 121,
      "chip": "ym2612"
    },
    {
      "channel": 0,
      "note": 76,
      "start": 123.361,
      "duration": 0.2025,
      "velocity": 123,
      "chip": "ym2612"
    },
    {
      "channel": 0,
      "note": 66,
      "start": 123.5635,
      "duration": 0.2179,
      "velocity": 114,
      "chip": "ym2612"
    },
    {
      "channel": 1,
      "note": 62,
      "start": 123.5636,
      "duration": 0.4358,
      "velocity": 93,
      "chip": "ym2612"
    },
    {
      "channel": 2,
      "note": 68,
      "start": 123.5637,
      "duration": 0.0464,
      "velocity": 121,
      "chip": "ym2612"
    },
    {
      "channel": 3,
      "note": 62,
      "start": 123.5638,
      "duration": 0.0464,
      "velocity": 121,
      "chip": "ym2612"
    },
    {
      "channel": 0,
      "note": 53,
      "start": 123.7814,
      "duration": 0.0309,
      "velocity": 114,
      "chip": "ym2612"
    },
    {
      "channel": 2,
      "note": 68,
      "start": 123.7816,
      "duration": 0.0464,
      "velocity": 121,
      "chip": "ym2612"
    },
    {
      "channel": 3,
      "note": 62,
      "start": 123.7817,
      "duration": 0.0464,
      "velocity": 121,
      "chip": "ym2612"
    },
    {
      "channel": 0,
      "note": 98,
      "start": 123.9993,
      "duration": 0.2179,
      "velocity": 127,
      "chip": "ym2612"
    },
    {
      "channel": 1,
      "note": 65,
      "start": 123.9994,
      "duration": 0.2179,
      "velocity": 93,
      "chip": "ym2612"
    },
    {
      "channel": 2,
      "note": 68,
      "start": 123.9995,
      "duration": 0.0464,
      "velocity": 121,
      "chip": "ym2612"
    },
    {
      "channel": 3,
      "note": 65,
      "start": 123.9996,
      "duration": 0.0464,
      "velocity": 121,
      "chip": "ym2612"
    },
    {
      "channel": 0,
      "note": 53,
      "start": 124.2171,
      "duration": 0.0153,
      "velocity": 127,
      "chip": "ym2612"
    },
    {
      "channel": 1,
      "note": 64,
      "start": 124.2173,
      "duration": 0.2179,
      "velocity": 93,
      "chip": "ym2612"
    },
    {
      "channel": 2,
      "note": 68,
      "start": 124.2174,
      "duration": 0.0463,
      "velocity": 121,
      "chip": "ym2612"
    },
    {
      "channel": 3,
      "note": 65,
      "start": 124.2175,
      "duration": 0.0463,
      "velocity": 121,
      "chip": "ym2612"
    },
    {
      "channel": 0,
      "note": 76,
      "start": 124.2325,
      "duration": 0.2025,
      "velocity": 127,
      "chip": "ym2612"
    },
    {
      "channel": 0,
      "note": 70,
      "start": 124.435,
      "duration": 0.0153,
      "velocity": 127,
      "chip": "ym2612"
    },
    {
      "channel": 1,
      "note": 62,
      "start": 124.4352,
      "duration": 0.2179,
      "velocity": 93,
      "chip": "ym2612"
    },
    {
      "channel": 2,
      "note": 68,
      "start": 124.4353,
      "duration": 0.0463,
      "velocity": 121,
      "chip": "ym2612"
    },
    {
      "channel": 3,
      "note": 65,
      "start": 124.4354,
      "duration": 0.0463,
      "velocity": 121,
      "chip": "ym2612"
    },
    {
      "channel": 0,
      "note": 76,
      "start": 124.4504,
      "duration": 0.2025,
      "velocity": 123,
      "chip": "ym2612"
    },
    {
      "channel": 0,
      "note": 70,
      "start": 124.6529,
      "duration": 0.0469,
      "velocity": 123,
      "chip": "ym2612"
    },
    {
      "channel": 1,
      "note": 59,
      "start": 124.6531,
      "duration": 0.0468,
      "velocity": 93,
      "chip": "ym2612"
    },
    {
      "channel": 2,
      "note": 68,
      "start": 124.6532,
      "duration": 0.0463,
      "velocity": 121,
      "chip": "ym2612"
    },
    {
      "channel": 3,
      "note": 65,
      "start": 124.6533,
      "duration": 0.0463,
      "velocity": 121,
      "chip": "ym2612"
    },
    {
      "channel": 4,
      "note": 91,
      "start": 124.6535,
      "duration": 0.0464,
      "velocity": 96,
      "chip": "ym2612"
    }
  ]
}