{
  "track_name": "13 - Boss A",
  "duration_sec": 41.995,
  "sample_rate": 44100,
  "note_count": 513,
  "unique_pitches": 36,
  "pitch_range": 48,
  "avg_note_duration": 0.31,
  "reconstruction_stats": {
    "notes_reconstructed": 513,
    "keyon_events": 513,
    "keyoff_events": 509,
    "orphan_keyons": 4,
    "unique_pitches": 36,
    "pitch_range": 48,
    "avg_duration_sec": 0.31
  },
  "metadata": {
    "source": "S\\Sword of Vermilion\\13 - Boss A.vgz"
  },
  "notes": [
    {
      "channel": 0,
      "note": 47,
      "start": 0.0034,
      "duration": 0.0304,
      "velocity": 81,
      "chip": "ym2612"
    },
    {
      "channel": 2,
      "note": 85,
      "start": 0.0066,
      "duration": 0.9199,
      "velocity": 101,
      "chip": "ym2612"
    },
    {
      "channel": 3,
      "note": 87,
      "start": 0.0083,
      "duration": 0.9183,
      "velocity": 101,
      "chip": "ym2612"
    },
    {
      "channel": 4,
      "note": 92,
      "start": 0.0099,
      "duration": 0.9167,
      "velocity": 101,
      "chip": "ym2612"
    },
    {
      "channel": 0,
      "note": 48,
      "start": 0.0341,
      "duration": 0.1482,
      "velocity": 81,
      "chip": "ym2612"
    },
    {
      "channel": 1,
      "note": 85,
      "start": 0.0344,
      "duration": 0.0146,
      "velocity": 71,
      "chip": "ym2612"
    },
    {
      "channel": 0,
      "note": 49,
      "start": 0.1824,
      "duration": 0.1483,
      "velocity": 81,
      "chip": "ym2612"
    },
    {
      "channel": 1,
      "note": 92,
      "start": 0.1827,
      "duration": 0.0814,
      "velocity": 71,
      "chip": "ym2612"
    },
    {
      "channel": 0,
      "note": 47,
      "start": 0.3309,
      "duration": 0.1482,
      "velocity": 81,
      "chip": "ym2612"
    },
    {
      "channel": 1,
      "note": 87,
      "start": 0.3312,
      "duration": 0.0146,
      "velocity": 71,
      "chip": "ym2612"
    },
    {
      "channel": 0,
      "note": 48,
      "start": 0.4793,
      "duration": 0.0052,
      "velocity": 81,
      "chip": "ym2612"
    },
    {
      "channel": 1,
      "note": 87,
      "start": 0.4796,
      "duration": 0.0034,
      "velocity": 71,
      "chip": "ym2612"
    },
    {
      "channel": 0,
      "note": 49,
      "start": 0.4847,
      "duration": 0.0656,
      "velocity": 81,
      "chip": "ym2612"
    },
    {
      "channel": 1,
      "note": 90,
      "start": 0.485,
      "duration": 0.0034,
      "velocity": 71,
      "chip": "ym2612"
    },
    {
      "channel": 0,
      "note": 47,
      "start": 0.5505,
      "duration": 0.0377,
      "velocity": 81,
      "chip": "ym2612"
    },
    {
      "channel": 1,
      "note": 88,
      "start": 0.5508,
      "duration": 0.0039,
      "velocity": 71,
      "chip": "ym2612"
    },
    {
      "channel": 0,
      "note": 48,
      "start": 0.5884,
      "duration": 0.1483,
      "velocity": 81,
      "chip": "ym2612"
    },
    {
      "channel": 1,
      "note": 95,
      "start": 0.5887,
      "duration": 0.0814,
      "velocity": 71,
      "chip": "ym2612"
    },
    {
      "channel": 0,
      "note": 47,
      "start": 0.7368,
      "duration": 0.0374,
      "velocity": 81,
      "chip": "ym2612"
    },
    {
      "channel": 0,
      "note": 48,
      "start": 0.7744,
      "duration": 0.1484,
      "velocity": 81,
      "chip": "ym2612"
    },
    {
      "channel": 1,
      "note": 94,
      "start": 0.7748,
      "duration": 0.0148,
      "velocity": 71,
      "chip": "ym2612"
    },
    {
      "channel": 0,
      "note": 49,
      "start": 0.923,
      "duration": 0.0052,
      "velocity": 81,
      "chip": "ym2612"
    },
    {
      "channel": 0,
      "note": 47,
      "start": 0.9284,
      "duration": 0.0012,
      "velocity": 81,
      "chip": "ym2612"
    },
    {
      "channel": 1,
      "note": 91,
      "start": 0.9287,
      "duration": 0.0011,
      "velocity": 71,
      "chip": "ym2612"
    },
    {
      "channel": 0,
      "note": 48,
      "start": 0.9297,
      "duration": 0.0394,
      "velocity": 81,
      "chip": "ym2612"
    },
    {
      "channel": 1,
      "note": 90,
      "start": 0.9299,
      "duration": 0.0057,
      "velocity": 71,
      "chip": "ym2612"
    },
    {
      "channel": 2,
      "note": 85,
      "start": 0.9303,
      "duration": 0.9313,
      "velocity": 101,
      "chip": "ym2612"
    },
    {
      "channel": 3,
      "note": 87,
      "start": 0.9307,
      "duration": 0.931,
      "velocity": 101,
      "chip": "ym2612"
    },
    {
      "channel": 4,
      "note": 94,
      "start": 0.931,
      "duration": 0.9307,
      "velocity": 101,
      "chip": "ym2612"
    },
    {
      "channel": 0,
      "note": 49,
      "start": 0.9693,
      "duration": 0.1483,
      "velocity": 81,
      "chip": "ym2612"
    },
    {
      "channel": 1,
      "note": 92,
      "start": 0.9696,
      "duration": 0.0814,
      "velocity": 71,
      "chip": "ym2612"
    },
    {
      "channel": 0,
      "note": 47,
      "start": 1.1178,
      "duration": 0.1483,
      "velocity": 81,
      "chip": "ym2612"
    },
    {
      "channel": 0,
      "note": 48,
      "start": 1.2662,
      "duration": 0.1483,
      "velocity": 81,
      "chip": "ym2612"
    },
    {
      "channel": 0,
      "note": 47,
      "start": 1.4147,
      "duration": 0.0051,
      "velocity": 81,
      "chip": "ym2612"
    },
    {
      "channel": 1,
      "note": 94,
      "start": 1.415,
      "duration": 0.002,
      "velocity": 71,
      "chip": "ym2612"
    },
    {
      "channel": 0,
      "note": 48,
      "start": 1.42,
      "duration": 0.0654,
      "velocity": 81,
      "chip": "ym2612"
    },
    {
      "channel": 1,
      "note": 87,
      "start": 1.4202,
      "duration": 0.0033,
      "velocity": 71,
      "chip": "ym2612"
    },
    {
      "channel": 0,
      "note": 49,
      "start": 1.4856,
      "duration": 0.0379,
      "velocity": 81,
      "chip": "ym2612"
    },
    {
      "channel": 1,
      "note": 88,
      "start": 1.4859,
      "duration": 0.0379,
      "velocity": 71,
      "chip": "ym2612"
    },
    {
      "channel": 0,
      "note": 47,
      "start": 1.5237,
      "duration": 0.1481,
      "velocity": 81,
      "chip": "ym2612"
    },
    {
      "channel": 1,
      "note": 92,
      "start": 1.524,
      "duration": 0.0812,
      "velocity": 71,
      "chip": "ym2612"
    },
    {
      "channel": 0,
      "note": 48,
      "start": 1.672,
      "duration": 0.0372,
      "velocity": 81,
      "chip": "ym2612"
    },
    {
      "channel": 0,
      "note": 52,
      "start": 1.7093,
      "duration": 0.1483,
      "velocity": 81,
      "chip": "ym2612"
    },
    {
      "channel": 1,
      "note": 90,
      "start": 1.7097,
      "duration": 0.1483,
      "velocity": 71,
      "chip": "ym2612"
    },
    {
      "channel": 0,
      "note": 51,
      "start": 1.8578,
      "duration": 0.0053,
      "velocity": 81,
      "chip": "ym2612"
    },
    {
      "channel": 1,
      "note": 87,
      "start": 1.8582,
      "duration": 0.0034,
      "velocity": 71,
      "chip": "ym2612"
    },
    {
      "channel": 0,
      "note": 48,
      "start": 1.8634,
      "duration": 0.0012,
      "velocity": 81,
      "chip": "ym2612"
    },
    {
      "channel": 1,
      "note": 85,
      "start": 1.8637,
      "duration": 0.0007,
      "velocity": 71,
      "chip": "ym2612"
    },
    {
      "channel": 0,
      "note": 47,
      "start": 1.8647,
      "duration": 0.0384,
      "velocity": 81,
      "chip": "ym2612"
    },
    {
      "channel": 2,
      "note": 85,
      "start": 1.8653,
      "duration": 0.9304,
      "velocity": 101,
      "chip": "ym2612"
    },
    {
      "channel": 3,
      "note": 87,
      "start": 1.8656,
      "duration": 0.9301,
      "velocity": 101,
      "chip": "ym2612"
    },
    {
      "channel": 4,
      "note": 93,
      "start": 1.866,
      "duration": 0.9298,
      "velocity": 101,
      "chip": "ym2612"
    },
    {
      "channel": 0,
      "note": 48,
      "start": 1.9033,
      "duration": 0.1483,
      "velocity": 81,
      "chip": "ym2612"
    },
    {
      "channel": 1,
      "note": 85,
      "start": 1.9036,
      "duration": 0.0147,
      "velocity": 71,
      "chip": "ym2612"
    },
    {
      "channel": 0,
      "note": 49,
      "start": 2.0518,
      "duration": 0.1483,
      "velocity": 81,
      "chip": "ym2612"
    },
    {
      "channel": 1,
      "note": 92,
      "start": 2.0521,
      "duration": 0.0814,
      "velocity": 71,
      "chip": "ym2612"
    },
    {
      "channel": 0,
      "note": 47,
      "start": 2.2003,
      "duration": 0.1483,
      "velocity": 81,
      "chip": "ym2612"
    },
    {
      "channel": 1,
      "note": 87,
      "start": 2.2006,
      "duration": 0.0147,
      "velocity": 71,
      "chip": "ym2612"
    },
    {
      "channel": 0,
      "note": 48,
      "start": 2.3488,
      "duration": 0.0053,
      "velocity": 81,
      "chip": "ym2612"
    },
    {
      "channel": 1,
      "note": 87,
      "start": 2.3491,
      "duration": 0.0035,
      "velocity": 71,
      "chip": "ym2612"
    },
    {
      "channel": 0,
      "note": 49,
      "start": 2.3543,
      "duration": 0.0652,
      "velocity": 81,
      "chip": "ym2612"
    },
    {
      "channel": 1,
      "note": 90,
      "start": 2.3546,
      "duration": 0.0031,
      "velocity": 71,
      "chip": "ym2612"
    },
    {
      "channel": 0,
      "note": 47,
      "start": 2.4197,
      "duration": 0.0377,
      "velocity": 81,
      "chip": "ym2612"
    },
    {
      "channel": 1,
      "note": 88,
      "start": 2.42,
      "duration": 0.0039,
      "velocity": 71,
      "chip": "ym2612"
    },
    {
      "channel": 0,
      "note": 48,
      "start": 2.4576,
      "duration": 0.1483,
      "velocity": 81,
      "chip": "ym2612"
    },
    {
      "channel": 1,
      "note": 95,
      "start": 2.4579,
      "duration": 0.0814,
      "velocity": 71,
      "chip": "ym2612"
    },
    {
      "channel": 0,
      "note": 47,
      "start": 2.606,
      "duration": 0.0374,
      "velocity": 81,
      "chip": "ym2612"
    },
    {
      "channel": 0,
      "note": 48,
      "start": 2.6436,
      "duration": 0.1484,
      "velocity": 81,
      "chip": "ym2612"
    },
    {
      "channel": 1,
      "note": 94,
      "start": 2.6439,
      "duration": 0.0148,
      "velocity": 71,
      "chip": "ym2612"
    },
    {
      "channel": 0,
      "note": 49,
      "start": 2.7922,
      "duration": 0.0052,
      "velocity": 81,
      "chip": "ym2612"
    },
    {
      "channel": 0,
      "note": 47,
      "start": 2.7976,
      "duration": 0.0012,
      "velocity": 81,
      "chip": "ym2612"
    },
    {
      "channel": 1,
      "note": 91,
      "start": 2.7979,
      "duration": 0.0011,
      "velocity": 71,
      "chip": "ym2612"
    },
    {
      "channel": 0,
      "note": 48,
      "start": 2.7989,
      "duration": 0.0393,
      "velocity": 81,
      "chip": "ym2612"
    },
    {
      "channel": 1,
      "note": 90,
      "start": 2.7991,
      "duration": 0.0058,
      "velocity": 71,
      "chip": "ym2612"
    },
    {
      "channel": 2,
      "note": 85,
      "start": 2.7995,
      "duration": 0.9309,
      "velocity": 101,
      "chip": "ym2612"
    },
    {
      "channel": 3,
      "note": 87,
      "start": 2.7998,
      "duration": 0.9306,
      "velocity": 101,
      "chip": "ym2612"
    },
    {
      "channel": 4,
      "note": 92,
      "start": 2.8002,
      "duration": 0.9303,
      "velocity": 101,
      "chip": "ym2612"
    },
    {
      "channel": 0,
      "note": 49,
      "start": 2.8384,
      "duration": 0.1483,
      "velocity": 81,
      "chip": "ym2612"
    },
    {
      "channel": 1,
      "note": 92,
      "start": 2.8387,
      "duration": 0.0814,
      "velocity": 71,
      "chip": "ym2612"
    },
    {
      "channel": 0,
      "note": 47,
      "start": 2.9869,
      "duration": 0.1482,
      "velocity": 81,
      "chip": "ym2612"
    },
    {
      "channel": 0,
      "note": 48,
      "start": 3.1353,
      "duration": 0.1482,
      "velocity": 81,
      "chip": "ym2612"
    },
    {
      "channel": 0,
      "note": 47,
      "start": 3.2837,
      "duration": 0.0051,
      "velocity": 81,
      "chip": "ym2612"
    },
    {
      "channel": 1,
      "note": 94,
      "start": 3.284,
      "duration": 0.002,
      "velocity": 71,
      "chip": "ym2612"
    },
    {
      "channel": 0,
      "note": 48,
      "start": 3.289,
      "duration": 0.0652,
      "velocity": 81,
      "chip": "ym2612"
    },
    {
      "channel": 1,
      "note": 87,
      "start": 3.2893,
      "duration": 0.0029,
      "velocity": 71,
      "chip": "ym2612"
    },
    {
      "channel": 0,
      "note": 49,
      "start": 3.3544,
      "duration": 0.0377,
      "velocity": 81,
      "chip": "ym2612"
    },
    {
      "channel": 1,
      "note": 88,
      "start": 3.3547,
      "duration": 0.0377,
      "velocity": 71,
      "chip": "ym2612"
    },
    {
      "channel": 0,
      "note": 47,
      "start": 3.3922,
      "duration": 0.1483,
      "velocity": 81,
      "chip": "ym2612"
    },
    {
      "channel": 1,
      "note": 92,
      "start": 3.3925,
      "duration": 0.0814,
      "velocity": 71,
      "chip": "ym2612"
    },
    {
      "channel": 0,
      "note": 48,
      "start": 3.5407,
      "duration": 0.0372,
      "velocity": 81,
      "chip": "ym2612"
    },
    {
      "channel": 0,
      "note": 52,
      "start": 3.5781,
      "duration": 0.1483,
      "velocity": 81,
      "chip": "ym2612"
    },
    {
      "channel": 1,
      "note": 90,
      "start": 3.5784,
      "duration": 0.1483,
      "velocity": 71,
      "chip": "ym2612"
    },
    {
      "channel": 0,
      "note": 51,
      "start": 3.7266,
      "duration": 0.0053,
      "velocity": 81,
      "chip": "ym2612"
    },
    {
      "channel": 1,
      "note": 87,
      "start": 3.7269,
      "duration": 0.0034,
      "velocity": 71,
      "chip": "ym2612"
    },
    {
      "channel": 0,
      "note": 48,
      "start": 3.7321,
      "duration": 0.0012,
      "velocity": 81,
      "chip": "ym2612"
    },
    {
      "channel": 1,
      "note": 85,
      "start": 3.7324,
      "duration": 0.0007,
      "velocity": 71,
      "chip": "ym2612"
    },
    {
      "channel": 0,
      "note": 47,
      "start": 3.7334,
      "duration": 0.0382,
      "velocity": 81,
      "chip": "ym2612"
    },
    {
      "channel": 2,
      "note": 85,
      "start": 3.734,
      "duration": 0.9293,
      "velocity": 101,
      "chip": "ym2612"
    },
    {
      "channel": 3,
      "note": 87,
      "start": 3.7345,
      "duration": 0.929,
      "velocity": 101,
      "chip": "ym2612"
    },
    {
      "channel": 4,
      "note": 92,
      "start": 3.7349,
      "duration": 0.9287,
      "velocity": 101,
      "chip": "ym2612"
    },
    {
      "channel": 0,
      "note": 48,
      "start": 3.7718,
      "duration": 0.1484,
      "velocity": 81,
      "chip": "ym2612"
    },
    {
      "channel": 1,
      "note": 85,
      "start": 3.7721,
      "duration": 0.0148,
      "velocity": 71,
      "chip": "ym2612"
    },
    {
      "channel": 0,
      "note": 49,
      "start": 3.9204,
      "duration": 0.1483,
      "velocity": 81,
      "chip": "ym2612"
    },
    {
      "channel": 1,
      "note": 92,
      "start": 3.9207,
      "duration": 0.0814,
      "velocity": 71,
      "chip": "ym2612"
    },
    {
      "channel": 0,
      "note": 47,
      "start": 4.0689,
      "duration": 0.1481,
      "velocity": 81,
      "chip": "ym2612"
    },
    {
      "channel": 1,
      "note": 87,
      "start": 4.0692,
      "duration": 0.0146,
      "velocity": 71,
      "chip": "ym2612"
    },
    {
      "channel": 0,
      "note": 48,
      "start": 4.2172,
      "duration": 0.0052,
      "velocity": 81,
      "chip": "ym2612"
    },
    {
      "channel": 1,
      "note": 87,
      "start": 4.2175,
      "duration": 0.0034,
      "velocity": 71,
      "chip": "ym2612"
    },
    {
      "channel": 0,
      "note": 49,
      "start": 4.2226,
      "duration": 0.065,
      "velocity": 81,
      "chip": "ym2612"
    },
    {
      "channel": 1,
      "note": 90,
      "start": 4.2228,
      "duration": 0.003,
      "velocity": 71,
      "chip": "ym2612"
    },
    {
      "channel": 0,
      "note": 47,
      "start": 4.2878,
      "duration": 0.0377,
      "velocity": 81,
      "chip": "ym2612"
    },
    {
      "channel": 1,
      "note": 88,
      "start": 4.2881,
      "duration": 0.0039,
      "velocity": 71,
      "chip": "ym2612"
    },
    {
      "channel": 0,
      "note": 48,
      "start": 4.3257,
      "duration": 0.1482,
      "velocity": 81,
      "chip": "ym2612"
    },
    {
      "channel": 1,
      "note": 95,
      "start": 4.326,
      "duration": 0.0813,
      "velocity": 71,
      "chip": "ym2612"
    },
    {
      "channel": 0,
      "note": 47,
      "start": 4.4741,
      "duration": 0.0374,
      "velocity": 81,
      "chip": "ym2612"
    },
    {
      "channel": 0,
      "note": 48,
      "start": 4.5117,
      "duration": 0.1483,
      "velocity": 81,
      "chip": "ym2612"
    },
    {
      "channel": 1,
      "note": 94,
      "start": 4.512,
      "duration": 0.0147,
      "velocity": 71,
      "chip": "ym2612"
    },
    {
      "channel": 0,
      "note": 49,
      "start": 4.6602,
      "duration": 0.0049,
      "velocity": 81,
      "chip": "ym2612"
    },
    {
      "channel": 0,
      "note": 47,
      "start": 4.6652,
      "duration": 0.0011,
      "velocity": 81,
      "chip": "ym2612"
    },
    {
      "channel": 1,
      "note": 91,
      "start": 4.6656,
      "duration": 0.001,
      "velocity": 71,
      "chip": "ym2612"
    },
    {
      "channel": 0,
      "note": 48,
      "start": 4.6665,
      "duration": 0.0391,
      "velocity": 81,
      "chip": "ym2612"
    },
    {
      "channel": 1,
      "note": 90,
      "start": 4.6668,
      "duration": 0.0057,
      "velocity": 71,
      "chip": "ym2612"
    },
    {
      "channel": 2,
      "note": 85,
      "start": 4.6672,
      "duration": 0.9306,
      "velocity": 101,
      "chip": "ym2612"
    },
    {
      "channel": 3,
      "note": 87,
      "start": 4.6675,
      "duration": 0.9303,
      "velocity": 101,
      "chip": "ym2612"
    },
    {
      "channel": 4,
      "note": 94,
      "start": 4.6679,
      "duration": 0.93,
      "velocity": 101,
      "chip": "ym2612"
    },
    {
      "channel": 0,
      "note": 49,
      "start": 4.7058,
      "duration": 0.1483,
      "velocity": 81,
      "chip": "ym2612"
    },
    {
      "channel": 1,
      "note": 92,
      "start": 4.7061,
      "duration": 0.0814,
      "velocity": 71,
      "chip": "ym2612"
    },
    {
      "channel": 0,
      "note": 47,
      "start": 4.8543,
      "duration": 0.1482,
      "velocity": 81,
      "chip": "ym2612"
    },
    {
      "channel": 0,
      "note": 48,
      "start": 5.0027,
      "duration": 0.1482,
      "velocity": 81,
      "chip": "ym2612"
    },
    {
      "channel": 0,
      "note": 47,
      "start": 5.1511,
      "duration": 0.0051,
      "velocity": 81,
      "chip": "ym2612"
    },
    {
      "channel": 1,
      "note": 94,
      "start": 5.1514,
      "duration": 0.002,
      "velocity": 71,
      "chip": "ym2612"
    },
    {
      "channel": 0,
      "note": 48,
      "start": 5.1564,
      "duration": 0.0652,
      "velocity": 81,
      "chip": "ym2612"
    },
    {
      "channel": 1,
      "note": 87,
      "start": 5.1567,
      "duration": 0.0029,
      "velocity": 71,
      "chip": "ym2612"
    },
    {
      "channel": 0,
      "note": 49,
      "start": 5.2218,
      "duration": 0.0377,
      "velocity": 81,
      "chip": "ym2612"
    },
    {
      "channel": 1,
      "note": 88,
      "start": 5.2221,
      "duration": 0.0377,
      "velocity": 71,
      "chip": "ym2612"
    },
    {
      "channel": 0,
      "note": 47,
      "start": 5.2596,
      "duration": 0.1483,
      "velocity": 81,
      "chip": "ym2612"
    },
    {
      "channel": 1,
      "note": 92,
      "start": 5.2599,
      "duration": 0.0814,
      "velocity": 71,
      "chip": "ym2612"
    },
    {
      "channel": 0,
      "note": 48,
      "start": 5.4081,
      "duration": 0.0372,
      "velocity": 81,
      "chip": "ym2612"
    },
    {
      "channel": 0,
      "note": 52,
      "start": 5.4455,
      "duration": 0.1483,
      "velocity": 81,
      "chip": "ym2612"
    },
    {
      "channel": 1,
      "note": 90,
      "start": 5.4458,
      "duration": 0.1483,
      "velocity": 71,
      "chip": "ym2612"
    },
    {
      "channel": 0,
      "note": 51,
      "start": 5.594,
      "duration": 0.0053,
      "velocity": 81,
      "chip": "ym2612"
    },
    {
      "channel": 1,
      "note": 87,
      "start": 5.5943,
      "duration": 0.0034,
      "velocity": 71,
      "chip": "ym2612"
    },
    {
      "channel": 0,
      "note": 48,
      "start": 5.5995,
      "duration": 0.0012,
      "velocity": 81,
      "chip": "ym2612"
    },
    {
      "channel": 1,
      "note": 85,
      "start": 5.5998,
      "duration": 0.0007,
      "velocity": 71,
      "chip": "ym2612"
    },
    {
      "channel": 0,
      "note": 47,
      "start": 5.6008,
      "duration": 0.0385,
      "velocity": 81,
      "chip": "ym2612"
    },
    {
      "channel": 2,
      "note": 85,
      "start": 5.6012,
      "duration": 0.9306,
      "velocity": 101,
      "chip": "ym2612"
    },
    {
      "channel": 3,
      "note": 87,
      "start": 5.6015,
      "duration": 0.9303,
      "velocity": 101,
      "chip": "ym2612"
    },
    {
      "channel": 4,
      "note": 93,
      "start": 5.6019,
      "duration": 0.93,
      "velocity": 101,
      "chip": "ym2612"
    },
    {
      "channel": 0,
      "note": 48,
      "start": 5.6395,
      "duration": 0.1483,
      "velocity": 81,
      "chip": "ym2612"
    },
    {
      "channel": 1,
      "note": 85,
      "start": 5.6399,
      "duration": 0.0147,
      "velocity": 71,
      "chip": "ym2612"
    },
    {
      "channel": 0,
      "note": 49,
      "start": 5.788,
      "duration": 0.1483,
      "velocity": 81,
      "chip": "ym2612"
    },
    {
      "channel": 1,
      "note": 92,
      "start": 5.7884,
      "duration": 0.0814,
      "velocity": 71,
      "chip": "ym2612"
    },
    {
      "channel": 0,
      "note": 47,
      "start": 5.9366,
      "duration": 0.1483,
      "velocity": 81,
      "chip": "ym2612"
    },
    {
      "channel": 1,
      "note": 87,
      "start": 5.9369,
      "duration": 0.0147,
      "velocity": 71,
      "chip": "ym2612"
    },
    {
      "channel": 0,
      "note": 48,
      "start": 6.085,
      "duration": 0.0052,
      "velocity": 81,
      "chip": "ym2612"
    },
    {
      "channel": 1,
      "note": 87,
      "start": 6.0853,
      "duration": 0.0034,
      "velocity": 71,
      "chip": "ym2612"
    },
    {
      "channel": 0,
      "note": 49,
      "start": 6.0904,
      "duration": 0.0652,
      "velocity": 81,
      "chip": "ym2612"
    },
    {
      "channel": 1,
      "note": 90,
      "start": 6.0907,
      "duration": 0.0031,
      "velocity": 71,
      "chip": "ym2612"
    },
    {
      "channel": 0,
      "note": 47,
      "start": 6.1558,
      "duration": 0.0377,
      "velocity": 81,
      "chip": "ym2612"
    },
    {
      "channel": 1,
      "note": 88,
      "start": 6.1561,
      "duration": 0.0039,
      "velocity": 71,
      "chip": "ym2612"
    },
    {
      "channel": 0,
      "note": 48,
      "start": 6.1937,
      "duration": 0.1483,
      "velocity": 81,
      "chip": "ym2612"
    },
    {
      "channel": 1,
      "note": 95,
      "start": 6.194,
      "duration": 0.0814,
      "velocity": 71,
      "chip": "ym2612"
    },
    {
      "channel": 0,
      "note": 47,
      "start": 6.3422,
      "duration": 0.0374,
      "velocity": 81,
      "chip": "ym2612"
    },
    {
      "channel": 0,
      "note": 48,
      "start": 6.3798,
      "duration": 0.1484,
      "velocity": 81,
      "chip": "ym2612"
    },
    {
      "channel": 1,
      "note": 94,
      "start": 6.3801,
      "duration": 0.0148,
      "velocity": 71,
      "chip": "ym2612"
    },
    {
      "channel": 0,
      "note": 49,
      "start": 6.5283,
      "duration": 0.0052,
      "velocity": 81,
      "chip": "ym2612"
    },
    {
      "channel": 0,
      "note": 47,
      "start": 6.5337,
      "duration": 0.0012,
      "velocity": 81,
      "chip": "ym2612"
    },
    {
      "channel": 1,
      "note": 91,
      "start": 6.534,
      "duration": 0.0011,
      "velocity": 71,
      "chip": "ym2612"
    },
    {
      "channel": 0,
      "note": 48,
      "start": 6.535,
      "duration": 0.0396,
      "velocity": 81,
      "chip": "ym2612"
    },
    {
      "channel": 1,
      "note": 90,
      "start": 6.5352,
      "duration": 0.0059,
      "velocity": 71,
      "chip": "ym2612"
    },
    {
      "channel": 2,
      "note": 85,
      "start": 6.5356,
      "duration": 0.789,
      "velocity": 101,
      "chip": "ym2612"
    },
    {
      "channel": 3,
      "note": 87,
      "start": 6.536,
      "duration": 0.7887,
      "velocity": 101,
      "chip": "ym2612"
    },
    {
      "channel": 4,
      "note": 92,
      "start": 6.5363,
      "duration": 0.7884,
      "velocity": 101,
      "chip": "ym2612"
    },
    {
      "channel": 0,
      "note": 49,
      "start": 6.5748,
      "duration": 0.1483,
      "velocity": 81,
      "chip": "ym2612"
    },
    {
      "channel": 1,
      "note": 92,
      "start": 6.5751,
      "duration": 0.0814,
      "velocity": 71,
      "chip": "ym2612"
    },
    {
      "channel": 0,
      "note": 47,
      "start": 6.7233,
      "duration": 0.1483,
      "velocity": 81,
      "chip": "ym2612"
    },
    {
      "channel": 0,
      "note": 48,
      "start": 6.8717,
      "duration": 0.1483,
      "velocity": 81,
      "chip": "ym2612"
    },
    {
      "channel": 0,
      "note": 47,
      "start": 7.0202,
      "duration": 0.005,
      "velocity": 81,
      "chip": "ym2612"
    },
    {
      "channel": 1,
      "note": 94,
      "start": 7.0205,
      "duration": 0.0019,
      "velocity": 71,
      "chip": "ym2612"
    },
    {
      "channel": 0,
      "note": 48,
      "start": 7.0254,
      "duration": 0.0652,
      "velocity": 81,
      "chip": "ym2612"
    },
    {
      "channel": 1,
      "note": 87,
      "start": 7.0257,
      "duration": 0.003,
      "velocity": 71,
      "chip": "ym2612"
    },
    {
      "channel": 0,
      "note": 47,
      "start": 7.0908,
      "duration": 0.0379,
      "velocity": 81,
      "chip": "ym2612"
    },
    {
      "channel": 1,
      "note": 88,
      "start": 7.0911,
      "duration": 0.0379,
      "velocity": 71,
      "chip": "ym2612"
    },
    {
      "channel": 0,
      "note": 48,
      "start": 7.1289,
      "duration": 0.1481,
      "velocity": 81,
      "chip": "ym2612"
    },
    {
      "channel": 1,
      "note": 92,
      "start": 7.1292,
      "duration": 0.0812,
      "velocity": 71,
      "chip": "ym2612"
    },
    {
      "channel": 0,
      "note": 49,
      "start": 7.2772,
      "duration": 0.0372,
      "velocity": 81,
      "chip": "ym2612"
    },
    {
      "channel": 0,
      "note": 50,
      "start": 7.3146,
      "duration": 0.0057,
      "velocity": 81,
      "chip": "ym2612"
    },
    {
      "channel": 1,
      "note": 90,
      "start": 7.3149,
      "duration": 0.0058,
      "velocity": 71,
      "chip": "ym2612"
    },
    {
      "channel": 0,
      "note": 52,
      "start": 7.3205,
      "duration": 0.0052,
      "velocity": 81,
      "chip": "ym2612"
    },
    {
      "channel": 1,
      "note": 87,
      "start": 7.3208,
      "duration": 0.0037,
      "velocity": 71,
      "chip": "ym2612"
    },
    {
      "channel": 0,
      "note": 53,
      "start": 7.326,
      "duration": 0.0013,
      "velocity": 81,
      "chip": "ym2612"
    },
    {
      "channel": 1,
      "note": 85,
      "start": 7.3263,
      "duration": 0.0008,
      "velocity": 71,
      "chip": "ym2612"
    },
    {
      "channel": 0,
      "note": 54,
      "start": 7.3275,
      "duration": 0.0329,
      "velocity": 81,
      "chip": "ym2612"
    },
    {
      "channel": 0,
      "note": 55,
      "start": 7.3606,
      "duration": 0.1475,
      "velocity": 81,
      "chip": "ym2612"
    },
    {
      "channel": 0,
      "note": 56,
      "start": 7.5083,
      "duration": 0.1998,
      "velocity": 81,
      "chip": "ym2612"
    },
    {
      "channel": 2,
      "note": 85,
      "start": 7.5087,
      "duration": 0.1998,
      "velocity": 96,
      "chip": "ym2612"
    },
    {
      "channel": 3,
      "note": 81,
      "start": 7.509,
      "duration": 0.1996,
      "velocity": 96,
      "chip": "ym2612"
    },
    {
      "channel": 4,
      "note": 80,
      "start": 7.5093,
      "duration": 0.1994,
      "velocity": 96,
      "chip": "ym2612"
    },
    {
      "channel": 0,
      "note": 54,
      "start": 7.7083,
      "duration": 0.1476,
      "velocity": 81,
      "chip": "ym2612"
    },
    {
      "channel": 0,
      "note": 55,
      "start": 7.8561,
      "duration": 0.0065,
      "velocity": 81,
      "chip": "ym2612"
    },
    {
      "channel": 2,
      "note": 85,
      "start": 7.8565,
      "duration": 0.0065,
      "velocity": 96,
      "chip": "ym2612"
    },
    {
      "channel": 3,
      "note": 81,
      "start": 7.8568,
      "duration": 0.0063,
      "velocity": 96,
      "chip": "ym2612"
    },
    {
      "channel": 4,
      "note": 80,
      "start": 7.8571,
      "duration": 0.0062,
      "velocity": 96,
      "chip": "ym2612"
    },
    {
      "channel": 0,
      "note": 56,
      "start": 7.8628,
      "duration": 0.0049,
      "velocity": 81,
      "chip": "ym2612"
    },
    {
      "channel": 0,
      "note": 54,
      "start": 7.8679,
      "duration": 0.0406,
      "velocity": 81,
      "chip": "ym2612"
    },
    {
      "channel": 1,
      "note": 75,
      "start": 7.8682,
      "duration": 0.0406,
      "velocity": 99,
      "chip": "ym2612"
    },
    {
      "channel": 2,
      "note": 85,
      "start": 7.8685,
      "duration": 0.0406,
      "velocity": 96,
      "chip": "ym2612"
    },
    {
      "channel": 3,
      "note": 81,
      "start": 7.8688,
      "duration": 0.0404,
      "velocity": 96,
      "chip": "ym2612"
    },
    {
      "channel": 4,
      "note": 80,
      "start": 7.8692,
      "duration": 0.0402,
      "velocity": 96,
      "chip": "ym2612"
    },
    {
      "channel": 0,
      "note": 55,
      "start": 7.9086,
      "duration": 0.148,
      "velocity": 81,
      "chip": "ym2612"
    },
    {
      "channel": 1,
      "note": 74,
      "start": 7.9089,
      "duration": 0.5502,
      "velocity": 99,
      "chip": "ym2612"
    },
    {
      "channel": 0,
      "note": 56,
      "start": 8.0568,
      "duration": 0.041,
      "velocity": 81,
      "chip": "ym2612"
    },
    {
      "channel": 2,
      "note": 85,
      "start": 8.0576,
      "duration": 0.0407,
      "velocity": 97,
      "chip": "ym2612"
    },
    {
      "channel": 3,
      "note": 81,
      "start": 8.0581,
      "duration": 0.0404,
      "velocity": 97,
      "chip": "ym2612"
    },
    {
      "channel": 4,
      "note": 80,
      "start": 8.0587,
      "duration": 0.0399,
      "velocity": 97,
      "chip": "ym2612"
    },
    {
      "channel": 0,
      "note": 54,
      "start": 8.098,
      "duration": 0.0667,
      "velocity": 81,
      "chip": "ym2612"
    },
    {
      "channel": 0,
      "note": 55,
      "start": 8.1649,
      "duration": 0.0088,
      "velocity": 81,
      "chip": "ym2612"
    },
    {
      "channel": 2,
      "note": 85,
      "start": 8.1656,
      "duration": 0.0084,
      "velocity": 98,
      "chip": "ym2612"
    },
    {
      "channel": 3,
      "note": 81,
      "start": 8.1662,
      "duration": 0.0079,
      "velocity": 98,
      "chip": "ym2612"
    },
    {
      "channel": 4,
      "note": 80,
      "start": 8.1668,
      "duration": 0.0074,
      "velocity": 98,
      "chip": "ym2612"
    },
    {
      "channel": 0,
      "note": 54,
      "start": 8.1739,
      "duration": 0.002,
      "velocity": 81,
      "chip": "ym2612"
    },
    {
      "channel": 0,
      "note": 55,
      "start": 8.1761,
      "duration": 0.0351,
      "velocity": 81,
      "chip": "ym2612"
    },
    {
      "channel": 0,
      "note": 56,
      "start": 8.2114,
      "duration": 0.1477,
      "velocity": 81,
      "chip": "ym2612"
    },
    {
      "channel": 0,
      "note": 54,
      "start": 8.3593,
      "duration": 0.1998,
      "velocity": 81,
      "chip": "ym2612"
    },
    {
      "channel": 2,
      "note": 85,
      "start": 8.3598,
      "duration": 0.1999,
      "velocity": 96,
      "chip": "ym2612"
    },
    {
      "channel": 3,
      "note": 81,
      "start": 8.3601,
      "duration": 0.1998,
      "velocity": 96,
      "chip": "ym2612"
    },
    {
      "channel": 4,
      "note": 80,
      "start": 8.3604,
      "duration": 0.1996,
      "velocity": 96,
      "chip": "ym2612"
    },
    {
      "channel": 0,
      "note": 55,
      "start": 8.5593,
      "duration": 0.1482,
      "velocity": 81,
      "chip": "ym2612"
    },
    {
      "channel": 1,
      "note": 71,
      "start": 8.5596,
      "duration": 0.048,
      "velocity": 99,
      "chip": "ym2612"
    },
    {
      "channel": 1,
      "note": 70,
      "start": 8.6077,
      "duration": 0.1001,
      "velocity": 99,
      "chip": "ym2612"
    },
    {
      "channel": 0,
      "note": 56,
      "start": 8.7077,
      "duration": 0.0087,
      "velocity": 81,
      "chip": "ym2612"
    },
    {
      "channel": 1,
      "note": 71,
      "start": 8.708,
      "duration": 0.0086,
      "velocity": 99,
      "chip": "ym2612"
    },
    {
      "channel": 2,
      "note": 85,
      "start": 8.7083,
      "duration": 0.0086,
      "velocity": 96,
      "chip": "ym2612"
    },
    {
      "channel": 3,
      "note": 81,
      "start": 8.7086,
      "duration": 0.0084,
      "velocity": 96,
      "chip": "ym2612"
    },
    {
      "channel": 4,
      "note": 80,
      "start": 8.7089,
      "duration": 0.0083,
      "velocity": 96,
      "chip": "ym2612"
    },
    {
      "channel": 0,
      "note": 54,
      "start": 8.7165,
      "duration": 0.0067,
      "velocity": 81,
      "chip": "ym2612"
    },
    {
      "channel": 1,
      "note": 70,
      "start": 8.7167,
      "duration": 0.0067,
      "velocity": 99,
      "chip": "ym2612"
    },
    {
      "channel": 0,
      "note": 55,
      "start": 8.7234,
      "duration": 0.0396,
      "velocity": 81,
      "chip": "ym2612"
    },
    {
      "channel": 2,
      "note": 85,
      "start": 8.7239,
      "duration": 0.0395,
      "velocity": 96,
      "chip": "ym2612"
    },
    {
      "channel": 3,
      "note": 81,
      "start": 8.7242,
      "duration": 0.0394,
      "velocity": 96,
      "chip": "ym2612"
    },
    {
      "channel": 4,
      "note": 80,
      "start": 8.7245,
      "duration": 0.0392,
      "velocity": 96,
      "chip": "ym2612"
    },
    {
      "channel": 1,
      "note": 78,
      "start": 8.7274,
      "duration": 0.0838,
      "velocity": 99,
      "chip": "ym2612"
    },
    {
      "channel": 0,
      "note": 59,
      "start": 8.7631,
      "duration": 0.148,
      "velocity": 81,
      "chip": "ym2612"
    },
    {
      "channel": 1,
      "note": 78,
      "start": 8.8114,
      "duration": 0.106,
      "velocity": 99,
      "chip": "ym2612"
    },
    {
      "channel": 0,
      "note": 58,
      "start": 8.9113,
      "duration": 0.0411,
      "velocity": 81,
      "chip": "ym2612"
    },
    {
      "channel": 2,
      "note": 85,
      "start": 8.912,
      "duration": 0.0411,
      "velocity": 97,
      "chip": "ym2612"
    },
    {
      "channel": 3,
      "note": 81,
      "start": 8.9126,
      "duration": 0.0406,
      "velocity": 97,
      "chip": "ym2612"
    },
    {
      "channel": 4,
      "note": 80,
      "start": 8.9132,
      "duration": 0.0402,
      "velocity": 97,
      "chip": "ym2612"
    },
    {
      "channel": 1,
      "note": 80,
      "start": 8.9176,
      "duration": 0.0352,
      "velocity": 99,
      "chip": "ym2612"
    },
    {
      "channel": 0,
      "note": 57,
      "start": 8.9526,
      "duration": 0.0671,
      "velocity": 81,
      "chip": "ym2612"
    },
    {
      "channel": 1,
      "note": 81,
      "start": 8.9529,
      "duration": 0.0024,
      "velocity": 99,
      "chip": "ym2612"
    },
    {
      "channel": 1,
      "note": 83,
      "start": 8.9555,
      "duration": 0.0659,
      "velocity": 99,
      "chip": "ym2612"
    },
    {
      "channel": 0,
      "note": 54,
      "start": 9.0199,
      "duration": 0.0029,
      "velocity": 81,
      "chip": "ym2612"
    },
    {
      "channel": 1,
      "note": 82,
      "start": 9.0216,
      "duration": 0.0028,
      "velocity": 99,
      "chip": "ym2612"
    },
    {
      "channel": 0,
      "note": 55,
      "start": 9.023,
      "duration": 0.0015,
      "velocity": 81,
      "chip": "ym2612"
    },
    {
      "channel": 0,
      "note": 56,
      "start": 9.0247,
      "duration": 0.0366,
      "velocity": 81,
      "chip": "ym2612"
    },
    {
      "channel": 1,
      "note": 78,
      "start": 9.0249,
      "duration": 0.3847,
      "velocity": 99,
      "chip": "ym2612"
    },
    {
      "channel": 0,
      "note": 54,
      "start": 9.0615,
      "duration": 0.1479,
      "velocity": 81,
      "chip": "ym2612"
    },
    {
      "channel": 0,
      "note": 55,
      "start": 9.2095,
      "duration": 0.1998,
      "velocity": 81,
      "chip": "ym2612"
    },
    {
      "channel": 2,
      "note": 85,
      "start": 9.2101,
      "duration": 0.1998,
      "velocity": 96,
      "chip": "ym2612"
    },
    {
      "channel": 3,
      "note": 81,
      "start": 9.2104,
      "duration": 0.1996,
      "velocity": 96,
      "chip": "ym2612"
    },
    {
      "channel": 4,
      "note": 80,
      "start": 9.2107,
      "duration": 0.1994,
      "velocity": 96,
      "chip": "ym2612"
    },
    {
      "channel": 0,
      "note": 56,
      "start": 9.4095,
      "duration": 0.1477,
      "velocity": 81,
      "chip": "ym2612"
    },
    {
      "channel": 0,
      "note": 54,
      "start": 9.5574,
      "duration": 0.0088,
      "velocity": 81,
      "chip": "ym2612"
    },
    {
      "channel": 1,
      "note": 86,
      "start": 9.5577,
      "duration": 0.0155,
      "velocity": 99,
      "chip": "ym2612"
    },
    {
      "channel": 2,
      "note": 85,
      "start": 9.558,
      "duration": 0.0085,
      "velocity": 96,
      "chip": "ym2612"
    },
    {
      "channel": 3,
      "note": 81,
      "start": 9.5584,
      "duration": 0.0084,
      "velocity": 96,
      "chip": "ym2612"
    },
    {
      "channel": 4,
      "note": 80,
      "start": 9.5587,
      "duration": 0.0083,
      "velocity": 96,
      "chip": "ym2612"
    },
    {
      "channel": 0,
      "note": 55,
      "start": 9.5663,
      "duration": 0.0066,
      "velocity": 81,
      "chip": "ym2612"
    },
    {
      "channel": 0,
      "note": 56,
      "start": 9.5731,
      "duration": 0.0408,
      "velocity": 81,
      "chip": "ym2612"
    },
    {
      "channel": 1,
      "note": 83,
      "start": 9.5734,
      "duration": 0.3053,
      "velocity": 99,
      "chip": "ym2612"
    },
    {
      "channel": 2,
      "note": 85,
      "start": 9.5738,
      "duration": 0.0406,
      "velocity": 96,
      "chip": "ym2612"
    },
    {
      "channel": 3,
      "note": 81,
      "start": 9.5741,
      "duration": 0.0404,
      "velocity": 96,
      "chip": "ym2612"
    },
    {
      "channel": 4,
      "note": 80,
      "start": 9.5744,
      "duration": 0.0402,
      "velocity": 96,
      "chip": "ym2612"
    },
    {
      "channel": 0,
      "note": 52,
      "start": 9.6141,
      "duration": 0.148,
      "velocity": 81,
      "chip": "ym2612"
    },
    {
      "channel": 0,
      "note": 54,
      "start": 9.7623,
      "duration": 0.0405,
      "velocity": 81,
      "chip": "ym2612"
    },
    {
      "channel": 2,
      "note": 85,
      "start": 9.763,
      "duration": 0.0403,
      "velocity": 97,
      "chip": "ym2612"
    },
    {
      "channel": 3,
      "note": 81,
      "start": 9.7635,
      "duration": 0.0399,
      "velocity": 97,
      "chip": "ym2612"
    },
    {
      "channel": 4,
      "note": 80,
      "start": 9.7641,
      "duration": 0.0394,
      "velocity": 97,
      "chip": "ym2612"
    },
    {
      "channel": 0,
      "note": 54,
      "start": 9.803,
      "duration": 0.0668,
      "velocity": 81,
      "chip": "ym2612"
    },
    {
      "channel": 0,
      "note": 55,
      "start": 9.87,
      "duration": 0.0085,
      "velocity": 81,
      "chip": "ym2612"
    },
    {
      "channel": 2,
      "note": 85,
      "start": 9.8707,
      "duration": 0.0081,
      "velocity": 98,
      "chip": "ym2612"
    },
    {
      "channel": 3,
      "note": 81,
      "start": 9.8712,
      "duration": 0.0077,
      "velocity": 98,
      "chip": "ym2612"
    },
    {
      "channel": 4,
      "note": 80,
      "start": 9.8718,
      "duration": 0.0071,
      "velocity": 98,
      "chip": "ym2612"
    },
    {
      "channel": 0,
      "note": 56,
      "start": 9.8786,
      "duration": 0.0008,
      "velocity": 81,
      "chip": "ym2612"
    },
    {
      "channel": 0,
      "note": 54,
      "start": 9.8796,
      "duration": 0.0343,
      "velocity": 81,
      "chip": "ym2612"
    },
    {
      "channel": 0,
      "note": 55,
      "start": 9.9141,
      "duration": 0.1479,
      "velocity": 81,
      "chip": "ym2612"
    },
    {
      "channel": 1,
      "note": 90,
      "start": 9.9144,
      "duration": 0.0477,
      "velocity": 99,
      "chip": "ym2612"
    },
    {
      "channel": 0,
      "note": 56,
      "start": 10.0622,
      "duration": 0.1998,
      "velocity": 81,
      "chip": "ym2612"
    },
    {
      "channel": 1,
      "note": 90,
      "start": 10.0625,
      "duration": 0.0996,
      "velocity": 99,
      "chip": "ym2612"
    },
    {
      "channel": 2,
      "note": 85,
      "start": 10.0628,
      "duration": 0.1998,
      "velocity": 96,
      "chip": "ym2612"
    },
    {
      "channel": 3,
      "note": 81,
      "start": 10.0631,
      "duration": 0.1996,
      "velocity": 96,
      "chip": "ym2612"
    },
    {
      "channel": 4,
      "note": 80,
      "start": 10.0634,
      "duration": 0.1995,
      "velocity": 96,
      "chip": "ym2612"
    },
    {
      "channel": 0,
      "note": 59,
      "start": 10.2622,
      "duration": 0.148,
      "velocity": 81,
      "chip": "ym2612"
    },
    {
      "channel": 1,
      "note": 86,
      "start": 10.2625,
      "duration": 0.0478,
      "velocity": 99,
      "chip": "ym2612"
    },
    {
      "channel": 0,
      "note": 55,
      "start": 10.4104,
      "duration": 0.0076,
      "velocity": 81,
      "chip": "ym2612"
    },
    {
      "channel": 1,
      "note": 86,
      "start": 10.4107,
      "duration": 0.0046,
      "velocity": 99,
      "chip": "ym2612"
    },
    {
      "channel": 2,
      "note": 85,
      "start": 10.411,
      "duration": 0.0076,
      "velocity": 96,
      "chip": "ym2612"
    },
    {
      "channel": 3,
      "note": 81,
      "start": 10.4113,
      "duration": 0.0075,
      "velocity": 96,
      "chip": "ym2612"
    },
    {
      "channel": 4,
      "note": 80,
      "start": 10.4117,
      "duration": 0.0073,
      "velocity": 96,
      "chip": "ym2612"
    },
    {
      "channel": 0,
      "note": 58,
      "start": 10.4182,
      "duration": 0.0058,
      "velocity": 81,
      "chip": "ym2612"
    },
    {
      "channel": 1,
      "note": 83,
      "start": 10.4185,
      "duration": 0.0032,
      "velocity": 99,
      "chip": "ym2612"
    },
    {
      "channel": 0,
      "note": 57,
      "start": 10.4242,
      "duration": 0.0406,
      "velocity": 81,
      "chip": "ym2612"
    },
    {
      "channel": 1,
      "note": 83,
      "start": 10.4245,
      "duration": 0.0406,
      "velocity": 99,
      "chip": "ym2612"
    },
    {
      "channel": 2,
      "note": 85,
      "start": 10.4248,
      "duration": 0.0406,
      "velocity": 96,
      "chip": "ym2612"
    },
    {
      "channel": 3,
      "note": 81,
      "start": 10.4252,
      "duration": 0.0404,
      "velocity": 96,
      "chip": "ym2612"
    },
    {
      "channel": 4,
      "note": 80,
      "start": 10.4255,
      "duration": 0.0402,
      "velocity": 96,
      "chip": "ym2612"
    },
    {
      "channel": 0,
      "note": 56,
      "start": 10.465,
      "duration": 0.1481,
      "velocity": 81,
      "chip": "ym2612"
    },
    {
      "channel": 1,
      "note": 81,
      "start": 10.4653,
      "duration": 0.0478,
      "velocity": 99,
      "chip": "ym2612"
    },
    {
      "channel": 0,
      "note": 53,
      "start": 10.6132,
      "duration": 0.0396,
      "velocity": 81,
      "chip": "ym2612"
    },
    {
      "channel": 1,
      "note": 83,
      "start": 10.6136,
      "duration": 0.0059,
      "velocity": 99,
      "chip": "ym2612"
    },
    {
      "channel": 2,
      "note": 85,
      "start": 10.6141,
      "duration": 0.0394,
      "velocity": 97,
      "chip": "ym2612"
    },
    {
      "channel": 3,
      "note": 81,
      "start": 10.6147,
      "duration": 0.0389,
      "velocity": 97,
      "chip": "ym2612"
    },
    {
      "channel": 4,
      "note": 80,
      "start": 10.6152,
      "duration": 0.0386,
      "velocity": 97,
      "chip": "ym2612"
    },
    {
      "channel": 0,
      "note": 55,
      "start": 10.6531,
      "duration": 0.0665,
      "velocity": 81,
      "chip": "ym2612"
    },
    {
      "channel": 1,
      "note": 78,
      "start": 10.6534,
      "duration": 0.0024,
      "velocity": 99,
      "chip": "ym2612"
    },
    {
      "channel": 0,
      "note": 52,
      "start": 10.7197,
      "duration": 0.0021,
      "velocity": 81,
      "chip": "ym2612"
    },
    {
      "channel": 1,
      "note": 78,
      "start": 10.72,
      "duration": 0.0016,
      "velocity": 99,
      "chip": "ym2612"
    },
    {
      "channel": 0,
      "note": 51,
      "start": 10.722,
      "duration": 0.0019,
      "velocity": 81,
      "chip": "ym2612"
    },
    {
      "channel": 1,
      "note": 81,
      "start": 10.7222,
      "duration": 0.0015,
      "velocity": 99,
      "chip": "ym2612"
    },
    {
      "channel": 0,
      "note": 54,
      "start": 10.7241,
      "duration": 0.0354,
      "velocity": 81,
      "chip": "ym2612"
    },
    {
      "channel": 1,
      "note": 83,
      "start": 10.7244,
      "duration": 0.0031,
      "velocity": 99,
      "chip": "ym2612"
    },
    {
      "channel": 0,
      "note": 55,
      "start": 10.7596,
      "duration": 0.1479,
      "velocity": 81,
      "chip": "ym2612"
    },
    {
      "channel": 1,
      "note": 66,
      "start": 10.76,
      "duration": 0.1479,
      "velocity": 99,
      "chip": "ym2612"
    },
    {
      "channel": 0,
      "note": 56,
      "start": 10.9077,
      "duration": 0.1998,
      "velocity": 81,
      "chip": "ym2612"
    },
    {
      "channel": 1,
      "note": 72,
      "start": 10.908,
      "duration": 0.1998,
      "velocity": 99,
      "chip": "ym2612"
    },
    {
      "channel": 2,
      "note": 85,
      "start": 10.9084,
      "duration": 0.1998,
      "velocity": 96,
      "chip": "ym2612"
    },
    {
      "channel": 3,
      "note": 81,
      "start": 10.9087,
      "duration": 0.1996,
      "velocity": 96,
      "chip": "ym2612"
    },
    {
      "channel": 4,
      "note": 80,
      "start": 10.909,
      "duration": 0.1995,
      "velocity": 96,
      "chip": "ym2612"
    },
    {
      "channel": 0,
      "note": 54,
      "start": 11.1077,
      "duration": 0.148,
      "velocity": 81,
      "chip": "ym2612"
    },
    {
      "channel": 1,
      "note": 75,
      "start": 11.108,
      "duration": 0.148,
      "velocity": 99,
      "chip": "ym2612"
    },
    {
      "channel": 0,
      "note": 55,
      "start": 11.256,
      "duration": 0.0085,
      "velocity": 81,
      "chip": "ym2612"
    },
    {
      "channel": 1,
      "note": 77,
      "start": 11.2563,
      "duration": 0.0084,
      "velocity": 99,
      "chip": "ym2612"
    },
    {
      "channel": 2,
      "note": 85,
      "start": 11.2566,
      "duration": 0.0085,
      "velocity": 96,
      "chip": "ym2612"
    },
    {
      "channel": 3,
      "note": 81,
      "start": 11.2569,
      "duration": 0.0083,
      "velocity": 96,
      "chip": "ym2612"
    },
    {
      "channel": 4,
      "note": 80,
      "start": 11.2572,
      "duration": 0.0081,
      "velocity": 96,
      "chip": "ym2612"
    },
    {
      "channel": 0,
      "note": 56,
      "start": 11.2646,
      "duration": 0.0068,
      "velocity": 81,
      "chip": "ym2612"
    },
    {
      "channel": 1,
      "note": 70,
      "start": 11.2649,
      "duration": 0.0067,
      "velocity": 99,
      "chip": "ym2612"
    },
    {
      "channel": 0,
      "note": 54,
      "start": 11.2715,
      "duration": 0.0407,
      "velocity": 81,
      "chip": "ym2612"
    },
    {
      "channel": 1,
      "note": 71,
      "start": 11.2718,
      "duration": 0.0407,
      "velocity": 99,
      "chip": "ym2612"
    },
    {
      "channel": 2,
      "note": 85,
      "start": 11.2722,
      "duration": 0.0407,
      "velocity": 96,
      "chip": "ym2612"
    },
    {
      "channel": 3,
      "note": 81,
      "start": 11.2725,
      "duration": 0.0405,
      "velocity": 96,
      "chip": "ym2612"
    },
    {
      "channel": 4,
      "note": 80,
      "start": 11.2729,
      "duration": 0.0403,
      "velocity": 96,
      "chip": "ym2612"
    },
    {
      "channel": 0,
      "note": 55,
      "start": 11.3124,
      "duration": 0.1482,
      "velocity": 81,
      "chip": "ym2612"
    },
    {
      "channel": 1,
      "note": 74,
      "start": 11.3127,
      "duration": 0.1482,
      "velocity": 99,
      "chip": "ym2612"
    },
    {
      "channel": 0,
      "note": 56,
      "start": 11.4608,
      "duration": 0.0406,
      "velocity": 81,
      "chip": "ym2612"
    },
    {
      "channel": 1,
      "note": 75,
      "start": 11.4611,
      "duration": 0.0406,
      "velocity": 99,
      "chip": "ym2612"
    },
    {
      "channel": 2,
      "note": 85,
      "start": 11.4617,
      "duration": 0.0403,
      "velocity": 97,
      "chip": "ym2612"
    },
    {
      "channel": 3,
      "note": 81,
      "start": 11.4622,
      "duration": 0.04,
      "velocity": 97,
      "chip": "ym2612"
    },
    {
      "channel": 4,
      "note": 80,
      "start": 11.4627,
      "duration": 0.0396,
      "velocity": 97,
      "chip": "ym2612"
    },
    {
      "channel": 0,
      "note": 54,
      "start": 11.5015,
      "duration": 0.0671,
      "velocity": 81,
      "chip": "ym2612"
    },
    {
      "channel": 1,
      "note": 78,
      "start": 11.5019,
      "duration": 0.0671,
      "velocity": 99,
      "chip": "ym2612"
    },
    {
      "channel": 0,
      "note": 55,
      "start": 11.5688,
      "duration": 0.0095,
      "velocity": 81,
      "chip": "ym2612"
    },
    {
      "channel": 1,
      "note": 78,
      "start": 11.5692,
      "duration": 0.0094,
      "velocity": 99,
      "chip": "ym2612"
    },
    {
      "channel": 2,
      "note": 85,
      "start": 11.5698,
      "duration": 0.009,
      "velocity": 98,
      "chip": "ym2612"
    },
    {
      "channel": 3,
      "note": 81,
      "start": 11.5703,
      "duration": 0.0085,
      "velocity": 98,
      "chip": "ym2612"
    },
    {
      "channel": 4,
      "note": 80,
      "start": 11.5708,
      "duration": 0.0081,
      "velocity": 98,
      "chip": "ym2612"
    },
    {
      "channel": 0,
      "note": 54,
      "start": 11.5785,
      "duration": 0.0029,
      "velocity": 81,
      "chip": "ym2612"
    },
    {
      "channel": 1,
      "note": 77,
      "start": 11.5787,
      "duration": 0.0029,
      "velocity": 99,
      "chip": "ym2612"
    },
    {
      "channel": 0,
      "note": 55,
      "start": 11.5815,
      "duration": 0.0352,
      "velocity": 81,
      "chip": "ym2612"
    },
    {
      "channel": 1,
      "note": 81,
      "start": 11.5817,
      "duration": 0.0027,
      "velocity": 99,
      "chip": "ym2612"
    },
    {
      "channel": 0,
      "note": 56,
      "start": 11.6169,
      "duration": 0.1481,
      "velocity": 81,
      "chip": "ym2612"
    },
    {
      "channel": 1,
      "note": 81,
      "start": 11.6172,
      "duration": 0.0478,
      "velocity": 99,
      "chip": "ym2612"
    },
    {
      "channel": 0,
      "note": 54,
      "start": 11.7652,
      "duration": 0.1998,
      "velocity": 81,
      "chip": "ym2612"
    },
    {
      "channel": 2,
      "note": 85,
      "start": 11.7656,
      "duration": 0.1998,
      "velocity": 96,
      "chip": "ym2612"
    },
    {
      "channel": 3,
      "note": 81,
      "start": 11.7659,
      "duration": 0.1996,
      "velocity": 96,
      "chip": "ym2612"
    },
    {
      "channel": 4,
      "note": 80,
      "start": 11.7662,
      "duration": 0.1994,
      "velocity": 96,
      "chip": "ym2612"
    },
    {
      "channel": 0,
      "note": 55,
      "start": 11.9652,
      "duration": 0.1476,
      "velocity": 81,
      "chip": "ym2612"
    },
    {
      "channel": 0,
      "note": 56,
      "start": 12.113,
      "duration": 0.006,
      "velocity": 81,
      "chip": "ym2612"
    },
    {
      "channel": 2,
      "note": 85,
      "start": 12.1134,
      "duration": 0.0061,
      "velocity": 96,
      "chip": "ym2612"
    },
    {
      "channel": 3,
      "note": 81,
      "start": 12.1137,
      "duration": 0.0058,
      "velocity": 96,
      "chip": "ym2612"
    },
    {
      "channel": 4,
      "note": 80,
      "start": 12.1139,
      "duration": 0.0056,
      "velocity": 96,
      "chip": "ym2612"
    },
    {
      "channel": 0,
      "note": 54,
      "start": 12.1192,
      "duration": 0.0051,
      "velocity": 81,
      "chip": "ym2612"
    },
    {
      "channel": 1,
      "note": 78,
      "start": 12.1194,
      "duration": 0.0017,
      "velocity": 99,
      "chip": "ym2612"
    },
    {
      "channel": 1,
      "note": 78,
      "start": 12.1213,
      "duration": 0.0034,
      "velocity": 99,
      "chip": "ym2612"
    },
    {
      "channel": 0,
      "note": 55,
      "start": 12.1245,
      "duration": 0.0399,
      "velocity": 81,
      "chip": "ym2612"
    },
    {
      "channel": 1,
      "note": 78,
      "start": 12.1249,
      "duration": 0.0056,
      "velocity": 99,
      "chip": "ym2612"
    },
    {
      "channel": 2,
      "note": 85,
      "start": 12.1252,
      "duration": 0.0398,
      "velocity": 96,
      "chip": "ym2612"
    },
    {
      "channel": 3,
      "note": 81,
      "start": 12.1256,
      "duration": 0.0396,
      "velocity": 96,
      "chip": "ym2612"
    },
    {
      "channel": 4,
      "note": 80,
      "start": 12.1259,
      "duration": 0.0395,
      "velocity": 96,
      "chip": "ym2612"
    },
    {
      "channel": 0,
      "note": 59,
      "start": 12.1646,
      "duration": 0.148,
      "velocity": 81,
      "chip": "ym2612"
    },
    {
      "channel": 1,
      "note": 78,
      "start": 12.1649,
      "duration": 0.0478,
      "velocity": 99,
      "chip": "ym2612"
    },
    {
      "channel": 0,
      "note": 58,
      "start": 12.3128,
      "duration": 0.0404,
      "velocity": 81,
      "chip": "ym2612"
    },
    {
      "channel": 1,
      "note": 77,
      "start": 12.3132,
      "duration": 0.0404,
      "velocity": 99,
      "chip": "ym2612"
    },
    {
      "channel": 2,
      "note": 85,
      "start": 12.3137,
      "duration": 0.0402,
      "velocity": 97,
      "chip": "ym2612"
    },
    {
      "channel": 3,
      "note": 81,
      "start": 12.3143,
      "duration": 0.0397,
      "velocity": 97,
      "chip": "ym2612"
    },
    {
      "channel": 4,
      "note": 80,
      "start": 12.3148,
      "duration": 0.0394,
      "velocity": 97,
      "chip": "ym2612"
    },
    {
      "channel": 0,
      "note": 57,
      "start": 12.3534,
      "duration": 0.0669,
      "velocity": 81,
      "chip": "ym2612"
    },
    {
      "channel": 1,
      "note": 78,
      "start": 12.3538,
      "duration": 0.0669,
      "velocity": 99,
      "chip": "ym2612"
    },
    {
      "channel": 0,
      "note": 54,
      "start": 12.4206,
      "duration": 0.003,
      "velocity": 81,
      "chip": "ym2612"
    },
    {
      "channel": 1,
      "note": 78,
      "start": 12.4209,
      "duration": 0.0029,
      "velocity": 99,
      "chip": "ym2612"
    },
    {
      "channel": 0,
      "note": 55,
      "start": 12.4237,
      "duration": 0.0024,
      "velocity": 81,
      "chip": "ym2612"
    },
    {
      "channel": 1,
      "note": 81,
      "start": 12.4239,
      "duration": 0.0025,
      "velocity": 99,
      "chip": "ym2612"
    },
    {
      "channel": 0,
      "note": 56,
      "start": 12.4263,
      "duration": 0.0357,
      "velocity": 81,
      "chip": "ym2612"
    },
    {
      "channel": 1,
      "note": 81,
      "start": 12.4265,
      "duration": 0.0036,
      "velocity": 99,
      "chip": "ym2612"
    },
    {
      "channel": 0,
      "note": 54,
      "start": 12.4622,
      "duration": 0.148,
      "velocity": 81,
      "chip": "ym2612"
    },
    {
      "channel": 1,
      "note": 81,
      "start": 12.4626,
      "duration": 0.0477,
      "velocity": 99,
      "chip": "ym2612"
    },
    {
      "channel": 0,
      "note": 55,
      "start": 12.6104,
      "duration": 0.1998,
      "velocity": 81,
      "chip": "ym2612"
    },
    {
      "channel": 2,
      "note": 85,
      "start": 12.6108,
      "duration": 0.2001,
      "velocity": 96,
      "chip": "ym2612"
    },
    {
      "channel": 3,
      "note": 81,
      "start": 12.6111,
      "duration": 0.1999,
      "velocity": 96,
      "chip": "ym2612"
    },
    {
      "channel": 4,
      "note": 80,
      "start": 12.6114,
      "duration": 0.1998,
      "velocity": 96,
      "chip": "ym2612"
    },
    {
      "channel": 0,
      "note": 56,
      "start": 12.8104,
      "duration": 0.1481,
      "velocity": 81,
      "chip": "ym2612"
    },
    {
      "channel": 1,
      "note": 87,
      "start": 12.8107,
      "duration": 0.0478,
      "velocity": 99,
      "chip": "ym2612"
    },
    {
      "channel": 0,
      "note": 54,
      "start": 12.9587,
      "duration": 0.0076,
      "velocity": 81,
      "chip": "ym2612"
    },
    {
      "channel": 1,
      "note": 87,
      "start": 12.959,
      "duration": 0.0048,
      "velocity": 99,
      "chip": "ym2612"
    },
    {
      "channel": 2,
      "note": 85,
      "start": 12.9593,
      "duration": 0.0074,
      "velocity": 96,
      "chip": "ym2612"
    },
    {
      "channel": 3,
      "note": 81,
      "start": 12.9596,
      "duration": 0.0072,
      "velocity": 96,
      "chip": "ym2612"
    },
    {
      "channel": 4,
      "note": 80,
      "start": 12.96,
      "duration": 0.0071,
      "velocity": 96,
      "chip": "ym2612"
    },
    {
      "channel": 0,
      "note": 55,
      "start": 12.9665,
      "duration": 0.0049,
      "velocity": 81,
      "chip": "ym2612"
    },
    {
      "channel": 0,
      "note": 56,
      "start": 12.9715,
      "duration": 0.0393,
      "velocity": 81,
      "chip": "ym2612"
    },
    {
      "channel": 1,
      "note": 86,
      "start": 12.9719,
      "duration": 0.0054,
      "velocity": 99,
      "chip": "ym2612"
    },
    {
      "channel": 2,
      "note": 85,
      "start": 12.9722,
      "duration": 0.0392,
      "velocity": 96,
      "chip": "ym2612"
    },
    {
      "channel": 3,
      "note": 81,
      "start": 12.9725,
      "duration": 0.039,
      "velocity": 96,
      "chip": "ym2612"
    },
    {
      "channel": 4,
      "note": 80,
      "start": 12.9729,
      "duration": 0.0388,
      "velocity": 96,
      "chip": "ym2612"
    },
    {
      "channel": 0,
      "note": 52,
      "start": 13.011,
      "duration": 0.1482,
      "velocity": 81,
      "chip": "ym2612"
    },
    {
      "channel": 1,
      "note": 86,
      "start": 13.0113,
      "duration": 0.0479,
      "velocity": 99,
      "chip": "ym2612"
    },
    {
      "channel": 0,
      "note": 54,
      "start": 13.1593,
      "duration": 0.0392,
      "velocity": 81,
      "chip": "ym2612"
    },
    {
      "channel": 2,
      "note": 85,
      "start": 13.1599,
      "duration": 0.0392,
      "velocity": 97,
      "chip": "ym2612"
    },
    {
      "channel": 3,
      "note": 81,
      "start": 13.1605,
      "duration": 0.0388,
      "velocity": 97,
      "chip": "ym2612"
    },
    {
      "channel": 4,
      "note": 80,
      "start": 13.1611,
      "duration": 0.0384,
      "velocity": 97,
      "chip": "ym2612"
    },
    {
      "channel": 0,
      "note": 54,
      "start": 13.1987,
      "duration": 0.0665,
      "velocity": 81,
      "chip": "ym2612"
    },
    {
      "channel": 1,
      "note": 90,
      "start": 13.199,
      "duration": 0.0024,
      "velocity": 99,
      "chip": "ym2612"
    },
    {
      "channel": 0,
      "note": 55,
      "start": 13.2654,
      "duration": 0.0083,
      "velocity": 81,
      "chip": "ym2612"
    },
    {
      "channel": 1,
      "note": 90,
      "start": 13.2657,
      "duration": 0.0053,
      "velocity": 99,
      "chip": "ym2612"
    },
    {
      "channel": 2,
      "note": 85,
      "start": 13.2663,
      "duration": 0.0078,
      "velocity": 98,
      "chip": "ym2612"
    },
    {
      "channel": 3,
      "note": 81,
      "start": 13.2669,
      "duration": 0.0073,
      "velocity": 98,
      "chip": "ym2612"
    },
    {
      "channel": 4,
      "note": 80,
      "start": 13.2674,
      "duration": 0.007,
      "velocity": 98,
      "chip": "ym2612"
    },
    {
      "channel": 0,
      "note": 56,
      "start": 13.2738,
      "duration": 0.0023,
      "velocity": 81,
      "chip": "ym2612"
    },
    {
      "channel": 1,
      "note": 90,
      "start": 13.274,
      "duration": 0.0019,
      "velocity": 99,
      "chip": "ym2612"
    },
    {
      "channel": 0,
      "note": 54,
      "start": 13.2763,
      "duration": 0.0352,
      "velocity": 81,
      "chip": "ym2612"
    },
    {
      "channel": 1,
      "note": 87,
      "start": 13.2765,
      "duration": 0.0027,
      "velocity": 99,
      "chip": "ym2612"
    },
    {
      "channel": 0,
      "note": 55,
      "start": 13.3117,
      "duration": 0.1479,
      "velocity": 81,
      "chip": "ym2612"
    },
    {
      "channel": 1,
      "note": 89,
      "start": 13.312,
      "duration": 0.1479,
      "velocity": 99,
      "chip": "ym2612"
    },
    {
      "channel": 0,
      "note": 56,
      "start": 13.4598,
      "duration": 0.1491,
      "velocity": 81,
      "chip": "ym2612"
    },
    {
      "channel": 1,
      "note": 90,
      "start": 13.4601,
      "duration": 0.0489,
      "velocity": 99,
      "chip": "ym2612"
    },
    {
      "channel": 2,
      "note": 85,
      "start": 13.4604,
      "duration": 0.1491,
      "velocity": 96,
      "chip": "ym2612"
    },
    {
      "channel": 3,
      "note": 81,
      "start": 13.4607,
      "duration": 0.1489,
      "velocity": 96,
      "chip": "ym2612"
    },
    {
      "channel": 4,
      "note": 80,
      "start": 13.461,
      "duration": 0.1488,
      "velocity": 96,
      "chip": "ym2612"
    },
    {
      "channel": 0,
      "note": 59,
      "start": 13.609,
      "duration": 0.1482,
      "velocity": 81,
      "chip": "ym2612"
    },
    {
      "channel": 1,
      "note": 90,
      "start": 13.6094,
      "duration": 0.0479,
      "velocity": 99,
      "chip": "ym2612"
    },
    {
      "channel": 0,
      "note": 55,
      "start": 13.7574,
      "duration": 0.0079,
      "velocity": 81,
      "chip": "ym2612"
    },
    {
      "channel": 2,
      "note": 85,
      "start": 13.7578,
      "duration": 0.0082,
      "velocity": 96,
      "chip": "ym2612"
    },
    {
      "channel": 3,
      "note": 81,
      "start": 13.7581,
      "duration": 0.008,
      "velocity": 96,
      "chip": "ym2612"
    },
    {
      "channel": 4,
      "note": 80,
      "start": 13.7584,
      "duration": 0.0079,
      "velocity": 96,
      "chip": "ym2612"
    },
    {
      "channel": 0,
      "note": 58,
      "start": 13.7655,
      "duration": 0.0073,
      "velocity": 81,
      "chip": "ym2612"
    },
    {
      "channel": 1,
      "note": 86,
      "start": 13.7659,
      "duration": 0.0035,
      "velocity": 99,
      "chip": "ym2612"
    },
    {
      "channel": 1,
      "note": 87,
      "start": 13.7696,
      "duration": 0.0035,
      "velocity": 99,
      "chip": "ym2612"
    },
    {
      "channel": 0,
      "note": 57,
      "start": 13.7729,
      "duration": 0.0095,
      "velocity": 81,
      "chip": "ym2612"
    },
    {
      "channel": 1,
      "note": 89,
      "start": 13.7733,
      "duration": 0.0094,
      "velocity": 99,
      "chip": "ym2612"
    },
    {
      "channel": 2,
      "note": 85,
      "start": 13.7736,
      "duration": 0.0094,
      "velocity": 96,
      "chip": "ym2612"
    },
    {
      "channel": 3,
      "note": 81,
      "start": 13.7739,
      "duration": 0.0091,
      "velocity": 96,
      "chip": "ym2612"
    },
    {
      "channel": 4,
      "note": 80,
      "start": 13.7742,
      "duration": 0.0089,
      "velocity": 96,
      "chip": "ym2612"
    },
    {
      "channel": 0,
      "note": 56,
      "start": 13.7826,
      "duration": 0.003,
      "velocity": 81,
      "chip": "ym2612"
    },
    {
      "channel": 1,
      "note": 90,
      "start": 13.7828,
      "duration": 0.003,
      "velocity": 99,
      "chip": "ym2612"
    },
    {
      "channel": 0,
      "note": 53,
      "start": 13.7858,
      "duration": 0.0102,
      "velocity": 81,
      "chip": "ym2612"
    },
    {
      "channel": 1,
      "note": 90,
      "start": 13.786,
      "duration": 0.0102,
      "velocity": 99,
      "chip": "ym2612"
    },
    {
      "channel": 2,
      "note": 85,
      "start": 13.7865,
      "duration": 0.0099,
      "velocity": 97,
      "chip": "ym2612"
    },
    {
      "channel": 3,
      "note": 81,
      "start": 13.787,
      "duration": 0.0095,
      "velocity": 97,
      "chip": "ym2612"
    },
    {
      "channel": 4,
      "note": 80,
      "start": 13.7874,
      "duration": 0.0092,
      "velocity": 97,
      "chip": "ym2612"
    },
    {
      "channel": 0,
      "note": 55,
      "start": 13.7961,
      "duration": 0.0046,
      "velocity": 81,
      "chip": "ym2612"
    },
    {
      "channel": 1,
      "note": 92,
      "start": 13.7963,
      "duration": 0.0047,
      "velocity": 99,
      "chip": "ym2612"
    },
    {
      "channel": 0,
      "note": 52,
      "start": 13.8009,
      "duration": 0.0019,
      "velocity": 81,
      "chip": "ym2612"
    },
    {
      "channel": 1,
      "note": 90,
      "start": 13.8013,
      "duration": 0.0013,
      "velocity": 99,
      "chip": "ym2612"
    },
    {
      "channel": 0,
      "note": 51,
      "start": 13.8029,
      "duration": 0.0016,
      "velocity": 81,
      "chip": "ym2612"
    },
    {
      "channel": 1,
      "note": 93,
      "start": 13.8032,
      "duration": 0.0012,
      "velocity": 99,
      "chip": "ym2612"
    },
    {
      "channel": 2,
      "note": 80,
      "start": 13.8721,
      "duration": 0.2,
      "velocity": 73,
      "chip": "ym2612"
    },
    {
      "channel": 3,
      "note": 81,
      "start": 13.8724,
      "duration": 0.2002,
      "velocity": 73,
      "chip": "ym2612"
    },
    {
      "channel": 4,
      "note": 85,
      "start": 13.8728,
      "duration": 0.2005,
      "velocity": 73,
      "chip": "ym2612"
    },
    {
      "channel": 2,
      "note": 80,
      "start": 14.0724,
      "duration": 0.1998,
      "velocity": 77,
      "chip": "ym2612"
    },
    {
      "channel": 3,
      "note": 81,
      "start": 14.0729,
      "duration": 0.1998,
      "velocity": 77,
      "chip": "ym2612"
    },
    {
      "channel": 4,
      "note": 85,
      "start": 14.0735,
      "duration": 0.1998,
      "velocity": 77,
      "chip": "ym2612"
    },
    {
      "channel": 2,
      "note": 80,
      "start": 14.2724,
      "duration": 0.1998,
      "velocity": 81,
      "chip": "ym2612"
    },
    {
      "channel": 3,
      "note": 81,
      "start": 14.2729,
      "duration": 0.1998,
      "velocity": 81,
      "chip": "ym2612"
    },
    {
      "channel": 4,
      "note": 85,
      "start": 14.2735,
      "duration": 0.1998,
      "velocity": 81,
      "chip": "ym2612"
    },
    {
      "channel": 2,
      "note": 80,
      "start": 14.4724,
      "duration": 0.1998,
      "velocity": 85,
      "chip": "ym2612"
    },
    {
      "channel": 3,
      "note": 81,
      "start": 14.4729,
      "duration": 0.1998,
      "velocity": 85,
      "chip": "ym2612"
    },
    {
      "channel": 4,
      "note": 85,
      "start": 14.4735,
      "duration": 0.1998,
      "velocity": 85,
      "chip": "ym2612"
    },
    {
      "channel": 2,
      "note": 80,
      "start": 14.6724,
      "duration": 0.1998,
      "velocity": 89,
      "chip": "ym2612"
    },
    {
      "channel": 3,
      "note": 81,
      "start": 14.6729,
      "duration": 0.1998,
      "velocity": 89,
      "chip": "ym2612"
    },
    {
      "channel": 4,
      "note": 85,
      "start": 14.6735,
      "duration": 0.1998,
      "velocity": 89,
      "chip": "ym2612"
    },
    {
      "channel": 2,
      "note": 80,
      "start": 14.8724,
      "duration": 0.1998,
      "velocity": 93,
      "chip": "ym2612"
    },
    {
      "channel": 3,
      "note": 81,
      "start": 14.8729,
      "duration": 0.1998,
      "velocity": 93,
      "chip": "ym2612"
    },
    {
      "channel": 4,
      "note": 85,
      "start": 14.8735,
      "duration": 0.1998,
      "velocity": 93,
      "chip": "ym2612"
    },
    {
      "channel": 2,
      "note": 80,
      "start": 15.0724,
      "duration": 0.1483,
      "velocity": 97,
      "chip": "ym2612"
    },
    {
      "channel": 3,
      "note": 81,
      "start": 15.0729,
      "duration": 0.1483,
      "velocity": 97,
      "chip": "ym2612"
    },
    {
      "channel": 4,
      "note": 85,
      "start": 15.0735,
      "duration": 0.1483,
      "velocity": 97,
      "chip": "ym2612"
    },
    {
      "channel": 2,
      "note": 80,
      "start": 15.2209,
      "duration": 0.1482,
      "velocity": 101,
      "chip": "ym2612"
    },
    {
      "channel": 3,
      "note": 81,
      "start": 15.2214,
      "duration": 0.1482,
      "velocity": 101,
      "chip": "ym2612"
    },
    {
      "channel": 4,
      "note": 85,
      "start": 15.222,
      "duration": 0.1482,
      "velocity": 101,
      "chip": "ym2612"
    },
    {
      "channel": 2,
      "note": 80,
      "start": 15.3693,
      "duration": 0.0673,
      "velocity": 105,
      "chip": "ym2612"
    },
    {
      "channel": 3,
      "note": 81,
      "start": 15.3699,
      "duration": 0.0673,
      "velocity": 105,
      "chip": "ym2612"
    },
    {
      "channel": 4,
      "note": 85,
      "start": 15.3704,
      "duration": 0.0673,
      "velocity": 105,
      "chip": "ym2612"
    },
    {
      "channel": 2,
      "note": 80,
      "start": 15.4368,
      "duration": 0.0056,
      "velocity": 109,
      "chip": "ym2612"
    },
    {
      "channel": 3,
      "note": 81,
      "start": 15.4374,
      "duration": 0.0057,
      "velocity": 109,
      "chip": "ym2612"
    },
    {
      "channel": 4,
      "note": 85,
      "start": 15.4379,
      "duration": 0.0058,
      "velocity": 109,
      "chip": "ym2612"
    },
    {
      "channel": 2,
      "note": 80,
      "start": 15.4427,
      "duration": 0.0086,
      "velocity": 101,
      "chip": "ym2612"
    },
    {
      "channel": 3,
      "note": 81,
      "start": 15.4433,
      "duration": 0.0099,
      "velocity": 101,
      "chip": "ym2612"
    },
    {
      "channel": 4,
      "note": 85,
      "start": 15.444,
      "duration": 0.0112,
      "velocity": 101,
      "chip": "ym2612"
    },
    {
      "channel": 0,
      "note": 47,
      "start": 15.448,
      "duration": 0.0371,
      "velocity": 81,
      "chip": "ym2612"
    },
    {
      "channel": 2,
      "note": 85,
      "start": 15.4515,
      "duration": 26.5433,
      "velocity": 101,
      "chip": "ym2612"
    },
    {
      "channel": 3,
      "note": 87,
      "start": 15.4535,
      "duration": 26.5412,
      "velocity": 101,
      "chip": "ym2612"
    },
    {
      "channel": 4,
      "note": 92,
      "start": 15.4554,
      "duration": 26.5394,
      "velocity": 101,
      "chip": "ym2612"
    },
    {
      "channel": 0,
      "note": 48,
      "start": 15.4852,
      "duration": 0.1484,
      "velocity": 81,
      "chip": "ym2612"
    },
    {
      "channel": 1,
      "note": 85,
      "start": 15.4855,
      "duration": 0.0148,
      "velocity": 71,
      "chip": "ym2612"
    },
    {
      "channel": 0,
      "note": 49,
      "start": 15.6338,
      "duration": 0.1483,
      "velocity": 81,
      "chip": "ym2612"
    },
    {
      "channel": 1,
      "note": 92,
      "start": 15.6341,
      "duration": 0.0814,
      "velocity": 71,
      "chip": "ym2612"
    },
    {
      "channel": 0,
      "note": 47,
      "start": 15.7823,
      "duration": 0.1481,
      "velocity": 81,
      "chip": "ym2612"
    },
    {
      "channel": 1,
      "note": 87,
      "start": 15.7826,
      "duration": 0.0146,
      "velocity": 71,
      "chip": "ym2612"
    },
    {
      "channel": 0,
      "note": 48,
      "start": 15.9306,
      "duration": 0.0052,
      "velocity": 81,
      "chip": "ym2612"
    },
    {
      "channel": 1,
      "note": 87,
      "start": 15.931,
      "duration": 0.0034,
      "velocity": 71,
      "chip": "ym2612"
    },
    {
      "channel": 0,
      "note": 49,
      "start": 15.936,
      "duration": 0.065,
      "velocity": 81,
      "chip": "ym2612"
    },
    {
      "channel": 1,
      "note": 90,
      "start": 15.9363,
      "duration": 0.003,
      "velocity": 71,
      "chip": "ym2612"
    },
    {
      "channel": 0,
      "note": 47,
      "start": 16.0012,
      "duration": 25.9935,
      "velocity": 81,
      "chip": "ym2612"
    }
  ]
}