{
  "track_name": "13 - World Map",
  "duration_sec": 50.276,
  "sample_rate": 44100,
  "note_count": 693,
  "unique_pitches": 34,
  "pitch_range": 72,
  "avg_note_duration": 0.4271,
  "reconstruction_stats": {
    "notes_reconstructed": 693,
    "keyon_events": 693,
    "keyoff_events": 687,
    "orphan_keyons": 6,
    "unique_pitches": 34,
    "pitch_range": 72,
    "avg_duration_sec": 0.4271
  },
  "metadata": {
    "source": "P\\Phantasy Star III\\13 - World Map.vgz"
  },
  "notes": [
    {
      "channel": 0,
      "note": 71,
      "start": 0.0,
      "duration": 1.5216,
      "velocity": 111,
      "chip": "ym2612"
    },
    {
      "channel": 1,
      "note": 35,
      "start": 0.0032,
      "duration": 0.3757,
      "velocity": 95,
      "chip": "ym2612"
    },
    {
      "channel": 3,
      "note": 66,
      "start": 0.0065,
      "duration": 1.5167,
      "velocity": 111,
      "chip": "ym2612"
    },
    {
      "channel": 4,
      "note": 71,
      "start": 0.0099,
      "duration": 0.7509,
      "velocity": 100,
      "chip": "ym2612"
    },
    {
      "channel": 5,
      "note": 47,
      "start": 0.0133,
      "duration": 0.367,
      "velocity": 127,
      "chip": "ym2612"
    },
    {
      "channel": 2,
      "note": 30,
      "start": 0.0141,
      "duration": 0.2364,
      "velocity": 119,
      "chip": "ym2612"
    },
    {
      "channel": 1,
      "note": 35,
      "start": 0.3795,
      "duration": 0.3803,
      "velocity": 95,
      "chip": "ym2612"
    },
    {
      "channel": 5,
      "note": 47,
      "start": 0.3808,
      "duration": 0.1233,
      "velocity": 127,
      "chip": "ym2612"
    },
    {
      "channel": 2,
      "note": 72,
      "start": 0.3815,
      "duration": 0.3751,
      "velocity": 120,
      "chip": "ym2612"
    },
    {
      "channel": 5,
      "note": 47,
      "start": 0.5045,
      "duration": 0.1267,
      "velocity": 127,
      "chip": "ym2612"
    },
    {
      "channel": 5,
      "note": 47,
      "start": 0.6316,
      "duration": 0.13,
      "velocity": 127,
      "chip": "ym2612"
    },
    {
      "channel": 1,
      "note": 35,
      "start": 0.7603,
      "duration": 0.3805,
      "velocity": 95,
      "chip": "ym2612"
    },
    {
      "channel": 4,
      "note": 70,
      "start": 0.7615,
      "duration": 0.3805,
      "velocity": 100,
      "chip": "ym2612"
    },
    {
      "channel": 5,
      "note": 47,
      "start": 0.7621,
      "duration": 0.3806,
      "velocity": 127,
      "chip": "ym2612"
    },
    {
      "channel": 2,
      "note": 72,
      "start": 0.7629,
      "duration": 0.3749,
      "velocity": 120,
      "chip": "ym2612"
    },
    {
      "channel": 1,
      "note": 35,
      "start": 1.1414,
      "duration": 0.381,
      "velocity": 95,
      "chip": "ym2612"
    },
    {
      "channel": 4,
      "note": 71,
      "start": 1.1425,
      "duration": 0.3812,
      "velocity": 100,
      "chip": "ym2612"
    },
    {
      "channel": 5,
      "note": 47,
      "start": 1.1431,
      "duration": 0.123,
      "velocity": 127,
      "chip": "ym2612"
    },
    {
      "channel": 2,
      "note": 72,
      "start": 1.1438,
      "duration": 0.3749,
      "velocity": 120,
      "chip": "ym2612"
    },
    {
      "channel": 5,
      "note": 47,
      "start": 1.2666,
      "duration": 0.1266,
      "velocity": 127,
      "chip": "ym2612"
    },
    {
      "channel": 5,
      "note": 47,
      "start": 1.3937,
      "duration": 0.1308,
      "velocity": 127,
      "chip": "ym2612"
    },
    {
      "channel": 0,
      "note": 70,
      "start": 1.5222,
      "duration": 0.7613,
      "velocity": 111,
      "chip": "ym2612"
    },
    {
      "channel": 1,
      "note": 35,
      "start": 1.523,
      "duration": 0.3798,
      "velocity": 95,
      "chip": "ym2612"
    },
    {
      "channel": 3,
      "note": 66,
      "start": 1.5236,
      "duration": 0.7613,
      "velocity": 111,
      "chip": "ym2612"
    },
    {
      "channel": 4,
      "note": 66,
      "start": 1.5244,
      "duration": 0.7611,
      "velocity": 100,
      "chip": "ym2612"
    },
    {
      "channel": 5,
      "note": 47,
      "start": 1.5249,
      "duration": 0.3794,
      "velocity": 127,
      "chip": "ym2612"
    },
    {
      "channel": 2,
      "note": 30,
      "start": 1.5258,
      "duration": 0.2488,
      "velocity": 119,
      "chip": "ym2612"
    },
    {
      "channel": 1,
      "note": 35,
      "start": 1.9034,
      "duration": 0.3808,
      "velocity": 95,
      "chip": "ym2612"
    },
    {
      "channel": 5,
      "note": 47,
      "start": 1.9048,
      "duration": 0.1233,
      "velocity": 127,
      "chip": "ym2612"
    },
    {
      "channel": 2,
      "note": 72,
      "start": 1.9055,
      "duration": 0.3752,
      "velocity": 120,
      "chip": "ym2612"
    },
    {
      "channel": 5,
      "note": 47,
      "start": 2.0286,
      "duration": 0.1265,
      "velocity": 127,
      "chip": "ym2612"
    },
    {
      "channel": 5,
      "note": 47,
      "start": 2.1556,
      "duration": 0.1307,
      "velocity": 127,
      "chip": "ym2612"
    },
    {
      "channel": 0,
      "note": 71,
      "start": 2.284,
      "duration": 0.7616,
      "velocity": 111,
      "chip": "ym2612"
    },
    {
      "channel": 1,
      "note": 35,
      "start": 2.2848,
      "duration": 0.3802,
      "velocity": 95,
      "chip": "ym2612"
    },
    {
      "channel": 3,
      "note": 66,
      "start": 2.2854,
      "duration": 0.7618,
      "velocity": 111,
      "chip": "ym2612"
    },
    {
      "channel": 4,
      "note": 71,
      "start": 2.2861,
      "duration": 0.3799,
      "velocity": 100,
      "chip": "ym2612"
    },
    {
      "channel": 5,
      "note": 47,
      "start": 2.2867,
      "duration": 0.3801,
      "velocity": 127,
      "chip": "ym2612"
    },
    {
      "channel": 2,
      "note": 72,
      "start": 2.2875,
      "duration": 0.3742,
      "velocity": 120,
      "chip": "ym2612"
    },
    {
      "channel": 1,
      "note": 35,
      "start": 2.6655,
      "duration": 0.3809,
      "velocity": 95,
      "chip": "ym2612"
    },
    {
      "channel": 4,
      "note": 75,
      "start": 2.6666,
      "duration": 0.3814,
      "velocity": 100,
      "chip": "ym2612"
    },
    {
      "channel": 5,
      "note": 47,
      "start": 2.6673,
      "duration": 0.3814,
      "velocity": 127,
      "chip": "ym2612"
    },
    {
      "channel": 2,
      "note": 72,
      "start": 2.6679,
      "duration": 0.3748,
      "velocity": 120,
      "chip": "ym2612"
    },
    {
      "channel": 0,
      "note": 73,
      "start": 3.0463,
      "duration": 3.0474,
      "velocity": 111,
      "chip": "ym2612"
    },
    {
      "channel": 1,
      "note": 35,
      "start": 3.047,
      "duration": 0.3798,
      "velocity": 95,
      "chip": "ym2612"
    },
    {
      "channel": 3,
      "note": 68,
      "start": 3.0478,
      "duration": 3.0475,
      "velocity": 111,
      "chip": "ym2612"
    },
    {
      "channel": 4,
      "note": 77,
      "start": 3.0485,
      "duration": 1.5254,
      "velocity": 95,
      "chip": "ym2612"
    },
    {
      "channel": 5,
      "note": 47,
      "start": 3.0491,
      "duration": 0.3791,
      "velocity": 127,
      "chip": "ym2612"
    },
    {
      "channel": 2,
      "note": 30,
      "start": 3.05,
      "duration": 0.2487,
      "velocity": 119,
      "chip": "ym2612"
    },
    {
      "channel": 1,
      "note": 35,
      "start": 3.4274,
      "duration": 0.3805,
      "velocity": 95,
      "chip": "ym2612"
    },
    {
      "channel": 5,
      "note": 47,
      "start": 3.4288,
      "duration": 0.1235,
      "velocity": 127,
      "chip": "ym2612"
    },
    {
      "channel": 2,
      "note": 72,
      "start": 3.4295,
      "duration": 0.3753,
      "velocity": 120,
      "chip": "ym2612"
    },
    {
      "channel": 5,
      "note": 47,
      "start": 3.5527,
      "duration": 0.1266,
      "velocity": 127,
      "chip": "ym2612"
    },
    {
      "channel": 5,
      "note": 47,
      "start": 3.6797,
      "duration": 0.1297,
      "velocity": 127,
      "chip": "ym2612"
    },
    {
      "channel": 1,
      "note": 35,
      "start": 3.8085,
      "duration": 0.3804,
      "velocity": 95,
      "chip": "ym2612"
    },
    {
      "channel": 5,
      "note": 47,
      "start": 3.8098,
      "duration": 0.3805,
      "velocity": 127,
      "chip": "ym2612"
    },
    {
      "channel": 2,
      "note": 72,
      "start": 3.8106,
      "duration": 0.3753,
      "velocity": 120,
      "chip": "ym2612"
    },
    {
      "channel": 1,
      "note": 35,
      "start": 4.1895,
      "duration": 0.3806,
      "velocity": 95,
      "chip": "ym2612"
    },
    {
      "channel": 5,
      "note": 47,
      "start": 4.1908,
      "duration": 0.1234,
      "velocity": 127,
      "chip": "ym2612"
    },
    {
      "channel": 2,
      "note": 72,
      "start": 4.1915,
      "duration": 0.3753,
      "velocity": 120,
      "chip": "ym2612"
    },
    {
      "channel": 5,
      "note": 47,
      "start": 4.3146,
      "duration": 0.1265,
      "velocity": 127,
      "chip": "ym2612"
    },
    {
      "channel": 5,
      "note": 47,
      "start": 4.4416,
      "duration": 0.1326,
      "velocity": 127,
      "chip": "ym2612"
    },
    {
      "channel": 1,
      "note": 35,
      "start": 4.5707,
      "duration": 0.3802,
      "velocity": 95,
      "chip": "ym2612"
    },
    {
      "channel": 5,
      "note": 47,
      "start": 4.5747,
      "duration": 0.378,
      "velocity": 127,
      "chip": "ym2612"
    },
    {
      "channel": 2,
      "note": 30,
      "start": 4.5755,
      "duration": 0.2471,
      "velocity": 119,
      "chip": "ym2612"
    },
    {
      "channel": 4,
      "note": 97,
      "start": 4.759,
      "duration": 0.193,
      "velocity": 95,
      "chip": "ym2612"
    },
    {
      "channel": 1,
      "note": 35,
      "start": 4.9515,
      "duration": 0.3805,
      "velocity": 95,
      "chip": "ym2612"
    },
    {
      "channel": 4,
      "note": 97,
      "start": 4.9526,
      "duration": 0.1868,
      "velocity": 95,
      "chip": "ym2612"
    },
    {
      "channel": 5,
      "note": 47,
      "start": 4.9532,
      "duration": 0.1231,
      "velocity": 127,
      "chip": "ym2612"
    },
    {
      "channel": 2,
      "note": 72,
      "start": 4.9539,
      "duration": 0.3749,
      "velocity": 120,
      "chip": "ym2612"
    },
    {
      "channel": 5,
      "note": 47,
      "start": 5.0767,
      "duration": 0.1265,
      "velocity": 127,
      "chip": "ym2612"
    },
    {
      "channel": 4,
      "note": 92,
      "start": 5.14,
      "duration": 0.193,
      "velocity": 95,
      "chip": "ym2612"
    },
    {
      "channel": 5,
      "note": 47,
      "start": 5.2036,
      "duration": 0.1302,
      "velocity": 127,
      "chip": "ym2612"
    },
    {
      "channel": 1,
      "note": 35,
      "start": 5.3326,
      "duration": 0.3804,
      "velocity": 95,
      "chip": "ym2612"
    },
    {
      "channel": 4,
      "note": 92,
      "start": 5.3337,
      "duration": 0.1868,
      "velocity": 95,
      "chip": "ym2612"
    },
    {
      "channel": 5,
      "note": 47,
      "start": 5.3342,
      "duration": 0.123,
      "velocity": 127,
      "chip": "ym2612"
    },
    {
      "channel": 2,
      "note": 72,
      "start": 5.335,
      "duration": 0.3748,
      "velocity": 120,
      "chip": "ym2612"
    },
    {
      "channel": 5,
      "note": 47,
      "start": 5.4577,
      "duration": 0.1265,
      "velocity": 127,
      "chip": "ym2612"
    },
    {
      "channel": 4,
      "note": 89,
      "start": 5.5211,
      "duration": 0.193,
      "velocity": 95,
      "chip": "ym2612"
    },
    {
      "channel": 5,
      "note": 47,
      "start": 5.5846,
      "duration": 0.1302,
      "velocity": 127,
      "chip": "ym2612"
    },
    {
      "channel": 1,
      "note": 35,
      "start": 5.7136,
      "duration": 0.3809,
      "velocity": 95,
      "chip": "ym2612"
    },
    {
      "channel": 4,
      "note": 89,
      "start": 5.7146,
      "duration": 0.1867,
      "velocity": 95,
      "chip": "ym2612"
    },
    {
      "channel": 5,
      "note": 47,
      "start": 5.7153,
      "duration": 0.1229,
      "velocity": 127,
      "chip": "ym2612"
    },
    {
      "channel": 2,
      "note": 72,
      "start": 5.716,
      "duration": 0.3749,
      "velocity": 120,
      "chip": "ym2612"
    },
    {
      "channel": 5,
      "note": 47,
      "start": 5.8386,
      "duration": 0.1267,
      "velocity": 127,
      "chip": "ym2612"
    },
    {
      "channel": 4,
      "note": 85,
      "start": 5.902,
      "duration": 0.1968,
      "velocity": 100,
      "chip": "ym2612"
    },
    {
      "channel": 5,
      "note": 47,
      "start": 5.9657,
      "duration": 0.1365,
      "velocity": 127,
      "chip": "ym2612"
    },
    {
      "channel": 0,
      "note": 71,
      "start": 6.0942,
      "duration": 1.5235,
      "velocity": 111,
      "chip": "ym2612"
    },
    {
      "channel": 1,
      "note": 35,
      "start": 6.0951,
      "duration": 0.3799,
      "velocity": 95,
      "chip": "ym2612"
    },
    {
      "channel": 3,
      "note": 67,
      "start": 6.0959,
      "duration": 1.5234,
      "velocity": 111,
      "chip": "ym2612"
    },
    {
      "channel": 4,
      "note": 71,
      "start": 6.0994,
      "duration": 0.7576,
      "velocity": 100,
      "chip": "ym2612"
    },
    {
      "channel": 5,
      "note": 47,
      "start": 6.1027,
      "duration": 0.3737,
      "velocity": 127,
      "chip": "ym2612"
    },
    {
      "channel": 2,
      "note": 30,
      "start": 6.1036,
      "duration": 0.2432,
      "velocity": 119,
      "chip": "ym2612"
    },
    {
      "channel": 1,
      "note": 35,
      "start": 6.4755,
      "duration": 0.3804,
      "velocity": 95,
      "chip": "ym2612"
    },
    {
      "channel": 5,
      "note": 47,
      "start": 6.4768,
      "duration": 0.1234,
      "velocity": 127,
      "chip": "ym2612"
    },
    {
      "channel": 2,
      "note": 72,
      "start": 6.4776,
      "duration": 0.3753,
      "velocity": 120,
      "chip": "ym2612"
    },
    {
      "channel": 5,
      "note": 47,
      "start": 6.6006,
      "duration": 0.127,
      "velocity": 127,
      "chip": "ym2612"
    },
    {
      "channel": 5,
      "note": 47,
      "start": 6.728,
      "duration": 0.1297,
      "velocity": 127,
      "chip": "ym2612"
    },
    {
      "channel": 1,
      "note": 35,
      "start": 6.8565,
      "duration": 0.3805,
      "velocity": 95,
      "chip": "ym2612"
    },
    {
      "channel": 4,
      "note": 70,
      "start": 6.8576,
      "duration": 0.3804,
      "velocity": 100,
      "chip": "ym2612"
    },
    {
      "channel": 5,
      "note": 47,
      "start": 6.8582,
      "duration": 0.3806,
      "velocity": 127,
      "chip": "ym2612"
    },
    {
      "channel": 2,
      "note": 72,
      "start": 6.859,
      "duration": 0.3748,
      "velocity": 120,
      "chip": "ym2612"
    },
    {
      "channel": 1,
      "note": 35,
      "start": 7.2375,
      "duration": 0.381,
      "velocity": 95,
      "chip": "ym2612"
    },
    {
      "channel": 4,
      "note": 71,
      "start": 7.2386,
      "duration": 0.3814,
      "velocity": 100,
      "chip": "ym2612"
    },
    {
      "channel": 5,
      "note": 47,
      "start": 7.2393,
      "duration": 0.1231,
      "velocity": 127,
      "chip": "ym2612"
    },
    {
      "channel": 2,
      "note": 72,
      "start": 7.24,
      "duration": 0.3749,
      "velocity": 120,
      "chip": "ym2612"
    },
    {
      "channel": 5,
      "note": 47,
      "start": 7.3628,
      "duration": 0.1265,
      "velocity": 127,
      "chip": "ym2612"
    },
    {
      "channel": 5,
      "note": 47,
      "start": 7.4897,
      "duration": 0.1311,
      "velocity": 127,
      "chip": "ym2612"
    },
    {
      "channel": 0,
      "note": 67,
      "start": 7.6183,
      "duration": 1.5234,
      "velocity": 111,
      "chip": "ym2612"
    },
    {
      "channel": 1,
      "note": 35,
      "start": 7.6192,
      "duration": 0.3798,
      "velocity": 95,
      "chip": "ym2612"
    },
    {
      "channel": 3,
      "note": 64,
      "start": 7.6199,
      "duration": 1.5233,
      "velocity": 111,
      "chip": "ym2612"
    },
    {
      "channel": 4,
      "note": 76,
      "start": 7.6206,
      "duration": 1.5234,
      "velocity": 100,
      "chip": "ym2612"
    },
    {
      "channel": 5,
      "note": 47,
      "start": 7.6212,
      "duration": 0.3792,
      "velocity": 127,
      "chip": "ym2612"
    },
    {
      "channel": 2,
      "note": 30,
      "start": 7.6221,
      "duration": 0.2487,
      "velocity": 119,
      "chip": "ym2612"
    },
    {
      "channel": 1,
      "note": 35,
      "start": 7.9996,
      "duration": 0.3805,
      "velocity": 95,
      "chip": "ym2612"
    },
    {
      "channel": 5,
      "note": 47,
      "start": 8.0009,
      "duration": 0.1234,
      "velocity": 127,
      "chip": "ym2612"
    },
    {
      "channel": 2,
      "note": 72,
      "start": 8.0016,
      "duration": 0.3752,
      "velocity": 120,
      "chip": "ym2612"
    },
    {
      "channel": 5,
      "note": 47,
      "start": 8.1248,
      "duration": 0.1265,
      "velocity": 127,
      "chip": "ym2612"
    },
    {
      "channel": 5,
      "note": 47,
      "start": 8.2517,
      "duration": 0.1298,
      "velocity": 127,
      "chip": "ym2612"
    },
    {
      "channel": 1,
      "note": 35,
      "start": 8.3806,
      "duration": 0.3804,
      "velocity": 95,
      "chip": "ym2612"
    },
    {
      "channel": 5,
      "note": 47,
      "start": 8.3819,
      "duration": 0.3807,
      "velocity": 127,
      "chip": "ym2612"
    },
    {
      "channel": 2,
      "note": 72,
      "start": 8.3826,
      "duration": 0.3753,
      "velocity": 120,
      "chip": "ym2612"
    },
    {
      "channel": 1,
      "note": 35,
      "start": 8.7616,
      "duration": 0.3809,
      "velocity": 95,
      "chip": "ym2612"
    },
    {
      "channel": 5,
      "note": 47,
      "start": 8.763,
      "duration": 0.3818,
      "velocity": 127,
      "chip": "ym2612"
    },
    {
      "channel": 2,
      "note": 72,
      "start": 8.7637,
      "duration": 0.3752,
      "velocity": 120,
      "chip": "ym2612"
    },
    {
      "channel": 0,
      "note": 66,
      "start": 9.1422,
      "duration": 3.0476,
      "velocity": 111,
      "chip": "ym2612"
    },
    {
      "channel": 1,
      "note": 35,
      "start": 9.1431,
      "duration": 0.3799,
      "velocity": 95,
      "chip": "ym2612"
    },
    {
      "channel": 3,
      "note": 63,
      "start": 9.1438,
      "duration": 3.0502,
      "velocity": 111,
      "chip": "ym2612"
    },
    {
      "channel": 4,
      "note": 75,
      "start": 9.1447,
      "duration": 1.5226,
      "velocity": 100,
      "chip": "ym2612"
    },
    {
      "channel": 5,
      "note": 47,
      "start": 9.1453,
      "duration": 0.3791,
      "velocity": 127,
      "chip": "ym2612"
    },
    {
      "channel": 2,
      "note": 30,
      "start": 9.1461,
      "duration": 0.2486,
      "velocity": 119,
      "chip": "ym2612"
    },
    {
      "channel": 1,
      "note": 35,
      "start": 9.5235,
      "duration": 0.3805,
      "velocity": 95,
      "chip": "ym2612"
    },
    {
      "channel": 5,
      "note": 47,
      "start": 9.5248,
      "duration": 0.1235,
      "velocity": 127,
      "chip": "ym2612"
    },
    {
      "channel": 2,
      "note": 72,
      "start": 9.5256,
      "duration": 0.3753,
      "velocity": 120,
      "chip": "ym2612"
    },
    {
      "channel": 5,
      "note": 47,
      "start": 9.6488,
      "duration": 0.1266,
      "velocity": 127,
      "chip": "ym2612"
    },
    {
      "channel": 5,
      "note": 47,
      "start": 9.7758,
      "duration": 0.1297,
      "velocity": 127,
      "chip": "ym2612"
    },
    {
      "channel": 1,
      "note": 35,
      "start": 9.9046,
      "duration": 0.3803,
      "velocity": 95,
      "chip": "ym2612"
    },
    {
      "channel": 5,
      "note": 47,
      "start": 9.9059,
      "duration": 0.3805,
      "velocity": 127,
      "chip": "ym2612"
    },
    {
      "channel": 2,
      "note": 72,
      "start": 9.9067,
      "duration": 0.3751,
      "velocity": 120,
      "chip": "ym2612"
    },
    {
      "channel": 1,
      "note": 35,
      "start": 10.2856,
      "duration": 0.3806,
      "velocity": 95,
      "chip": "ym2612"
    },
    {
      "channel": 5,
      "note": 47,
      "start": 10.2868,
      "duration": 0.1235,
      "velocity": 127,
      "chip": "ym2612"
    },
    {
      "channel": 2,
      "note": 72,
      "start": 10.2876,
      "duration": 0.3754,
      "velocity": 120,
      "chip": "ym2612"
    },
    {
      "channel": 5,
      "note": 47,
      "start": 10.4107,
      "duration": 0.1266,
      "velocity": 127,
      "chip": "ym2612"
    },
    {
      "channel": 5,
      "note": 47,
      "start": 10.5378,
      "duration": 0.1302,
      "velocity": 127,
      "chip": "ym2612"
    },
    {
      "channel": 1,
      "note": 35,
      "start": 10.6667,
      "duration": 0.3804,
      "velocity": 95,
      "chip": "ym2612"
    },
    {
      "channel": 4,
      "note": 71,
      "start": 10.6679,
      "duration": 1.527,
      "velocity": 100,
      "chip": "ym2612"
    },
    {
      "channel": 5,
      "note": 47,
      "start": 10.6685,
      "duration": 0.3801,
      "velocity": 127,
      "chip": "ym2612"
    },
    {
      "channel": 2,
      "note": 30,
      "start": 10.6693,
      "duration": 0.2494,
      "velocity": 119,
      "chip": "ym2612"
    },
    {
      "channel": 1,
      "note": 35,
      "start": 11.0477,
      "duration": 0.3803,
      "velocity": 95,
      "chip": "ym2612"
    },
    {
      "channel": 5,
      "note": 47,
      "start": 11.049,
      "duration": 0.1234,
      "velocity": 127,
      "chip": "ym2612"
    },
    {
      "channel": 2,
      "note": 72,
      "start": 11.0498,
      "duration": 0.3751,
      "velocity": 120,
      "chip": "ym2612"
    },
    {
      "channel": 5,
      "note": 47,
      "start": 11.1728,
      "duration": 0.1265,
      "velocity": 127,
      "chip": "ym2612"
    },
    {
      "channel": 5,
      "note": 47,
      "start": 11.2998,
      "duration": 0.1298,
      "velocity": 127,
      "chip": "ym2612"
    },
    {
      "channel": 1,
      "note": 35,
      "start": 11.4287,
      "duration": 0.3804,
      "velocity": 95,
      "chip": "ym2612"
    },
    {
      "channel": 5,
      "note": 47,
      "start": 11.43,
      "duration": 0.1234,
      "velocity": 127,
      "chip": "ym2612"
    },
    {
      "channel": 2,
      "note": 72,
      "start": 11.4307,
      "duration": 0.3752,
      "velocity": 120,
      "chip": "ym2612"
    },
    {
      "channel": 5,
      "note": 47,
      "start": 11.5538,
      "duration": 0.1265,
      "velocity": 127,
      "chip": "ym2612"
    },
    {
      "channel": 5,
      "note": 47,
      "start": 11.6808,
      "duration": 0.1297,
      "velocity": 127,
      "chip": "ym2612"
    },
    {
      "channel": 1,
      "note": 35,
      "start": 11.8097,
      "duration": 0.381,
      "velocity": 95,
      "chip": "ym2612"
    },
    {
      "channel": 5,
      "note": 47,
      "start": 11.811,
      "duration": 0.1234,
      "velocity": 127,
      "chip": "ym2612"
    },
    {
      "channel": 2,
      "note": 72,
      "start": 11.8117,
      "duration": 0.3752,
      "velocity": 120,
      "chip": "ym2612"
    },
    {
      "channel": 5,
      "note": 47,
      "start": 11.9348,
      "duration": 0.1266,
      "velocity": 127,
      "chip": "ym2612"
    },
    {
      "channel": 5,
      "note": 47,
      "start": 12.062,
      "duration": 0.1364,
      "velocity": 127,
      "chip": "ym2612"
    },
    {
      "channel": 0,
      "note": 71,
      "start": 12.1904,
      "duration": 1.5235,
      "velocity": 111,
      "chip": "ym2612"
    },
    {
      "channel": 1,
      "note": 35,
      "start": 12.1912,
      "duration": 0.3799,
      "velocity": 95,
      "chip": "ym2612"
    },
    {
      "channel": 3,
      "note": 66,
      "start": 12.1947,
      "duration": 1.5208,
      "velocity": 111,
      "chip": "ym2612"
    },
    {
      "channel": 4,
      "note": 71,
      "start": 12.1956,
      "duration": 0.7575,
      "velocity": 100,
      "chip": "ym2612"
    },
    {
      "channel": 5,
      "note": 47,
      "start": 12.199,
      "duration": 0.3735,
      "velocity": 127,
      "chip": "ym2612"
    },
    {
      "channel": 2,
      "note": 30,
      "start": 12.1998,
      "duration": 0.2429,
      "velocity": 119,
      "chip": "ym2612"
    },
    {
      "channel": 1,
      "note": 35,
      "start": 12.5717,
      "duration": 0.3803,
      "velocity": 95,
      "chip": "ym2612"
    },
    {
      "channel": 5,
      "note": 47,
      "start": 12.573,
      "duration": 0.1235,
      "velocity": 127,
      "chip": "ym2612"
    },
    {
      "channel": 2,
      "note": 72,
      "start": 12.5737,
      "duration": 0.3752,
      "velocity": 120,
      "chip": "ym2612"
    },
    {
      "channel": 5,
      "note": 47,
      "start": 12.697,
      "duration": 0.1264,
      "velocity": 127,
      "chip": "ym2612"
    },
    {
      "channel": 5,
      "note": 47,
      "start": 12.8238,
      "duration": 0.1301,
      "velocity": 127,
      "chip": "ym2612"
    },
    {
      "channel": 1,
      "note": 35,
      "start": 12.9526,
      "duration": 0.3805,
      "velocity": 95,
      "chip": "ym2612"
    },
    {
      "channel": 4,
      "note": 70,
      "start": 12.9537,
      "duration": 0.3805,
      "velocity": 100,
      "chip": "ym2612"
    },
    {
      "channel": 5,
      "note": 47,
      "start": 12.9543,
      "duration": 0.3806,
      "velocity": 127,
      "chip": "ym2612"
    },
    {
      "channel": 2,
      "note": 72,
      "start": 12.955,
      "duration": 0.3749,
      "velocity": 120,
      "chip": "ym2612"
    },
    {
      "channel": 1,
      "note": 35,
      "start": 13.3337,
      "duration": 0.381,
      "velocity": 95,
      "chip": "ym2612"
    },
    {
      "channel": 4,
      "note": 71,
      "start": 13.3347,
      "duration": 0.3813,
      "velocity": 100,
      "chip": "ym2612"
    },
    {
      "channel": 5,
      "note": 47,
      "start": 13.3354,
      "duration": 0.123,
      "velocity": 127,
      "chip": "ym2612"
    },
    {
      "channel": 2,
      "note": 72,
      "start": 13.3361,
      "duration": 0.3749,
      "velocity": 120,
      "chip": "ym2612"
    },
    {
      "channel": 5,
      "note": 47,
      "start": 13.4588,
      "duration": 0.1267,
      "velocity": 127,
      "chip": "ym2612"
    },
    {
      "channel": 5,
      "note": 47,
      "start": 13.5859,
      "duration": 0.1309,
      "velocity": 127,
      "chip": "ym2612"
    },
    {
      "channel": 0,
      "note": 70,
      "start": 13.7145,
      "duration": 0.7612,
      "velocity": 111,
      "chip": "ym2612"
    },
    {
      "channel": 1,
      "note": 35,
      "start": 13.7153,
      "duration": 0.3799,
      "velocity": 95,
      "chip": "ym2612"
    },
    {
      "channel": 3,
      "note": 66,
      "start": 13.7159,
      "duration": 0.7612,
      "velocity": 111,
      "chip": "ym2612"
    },
    {
      "channel": 4,
      "note": 66,
      "start": 13.7167,
      "duration": 0.7611,
      "velocity": 100,
      "chip": "ym2612"
    },
    {
      "channel": 5,
      "note": 47,
      "start": 13.7173,
      "duration": 0.3794,
      "velocity": 127,
      "chip": "ym2612"
    },
    {
      "channel": 2,
      "note": 30,
      "start": 13.7181,
      "duration": 0.2487,
      "velocity": 119,
      "chip": "ym2612"
    },
    {
      "channel": 1,
      "note": 35,
      "start": 14.0958,
      "duration": 0.3807,
      "velocity": 95,
      "chip": "ym2612"
    },
    {
      "channel": 5,
      "note": 47,
      "start": 14.0971,
      "duration": 0.1233,
      "velocity": 127,
      "chip": "ym2612"
    },
    {
      "channel": 2,
      "note": 72,
      "start": 14.0978,
      "duration": 0.3751,
      "velocity": 120,
      "chip": "ym2612"
    },
    {
      "channel": 5,
      "note": 47,
      "start": 14.2208,
      "duration": 0.1266,
      "velocity": 127,
      "chip": "ym2612"
    },
    {
      "channel": 5,
      "note": 47,
      "start": 14.3479,
      "duration": 0.1307,
      "velocity": 127,
      "chip": "ym2612"
    },
    {
      "channel": 0,
      "note": 71,
      "start": 14.4763,
      "duration": 0.7615,
      "velocity": 111,
      "chip": "ym2612"
    },
    {
      "channel": 1,
      "note": 35,
      "start": 14.4771,
      "duration": 0.3801,
      "velocity": 95,
      "chip": "ym2612"
    },
    {
      "channel": 3,
      "note": 66,
      "start": 14.4776,
      "duration": 0.7618,
      "velocity": 111,
      "chip": "ym2612"
    },
    {
      "channel": 4,
      "note": 71,
      "start": 14.4784,
      "duration": 0.3799,
      "velocity": 100,
      "chip": "ym2612"
    },
    {
      "channel": 5,
      "note": 47,
      "start": 14.479,
      "duration": 0.38,
      "velocity": 127,
      "chip": "ym2612"
    },
    {
      "channel": 2,
      "note": 72,
      "start": 14.4798,
      "duration": 0.3742,
      "velocity": 120,
      "chip": "ym2612"
    },
    {
      "channel": 1,
      "note": 35,
      "start": 14.8578,
      "duration": 0.3808,
      "velocity": 95,
      "chip": "ym2612"
    },
    {
      "channel": 4,
      "note": 75,
      "start": 14.8588,
      "duration": 0.3813,
      "velocity": 100,
      "chip": "ym2612"
    },
    {
      "channel": 5,
      "note": 47,
      "start": 14.8595,
      "duration": 0.3814,
      "velocity": 127,
      "chip": "ym2612"
    },
    {
      "channel": 2,
      "note": 72,
      "start": 14.8602,
      "duration": 0.3748,
      "velocity": 120,
      "chip": "ym2612"
    },
    {
      "channel": 0,
      "note": 73,
      "start": 15.2384,
      "duration": 3.0475,
      "velocity": 111,
      "chip": "ym2612"
    },
    {
      "channel": 1,
      "note": 35,
      "start": 15.2393,
      "duration": 0.3798,
      "velocity": 95,
      "chip": "ym2612"
    },
    {
      "channel": 3,
      "note": 68,
      "start": 15.24,
      "duration": 3.0475,
      "velocity": 111,
      "chip": "ym2612"
    },
    {
      "channel": 4,
      "note": 77,
      "start": 15.2407,
      "duration": 1.5256,
      "velocity": 95,
      "chip": "ym2612"
    },
    {
      "channel": 5,
      "note": 47,
      "start": 15.2414,
      "duration": 0.3792,
      "velocity": 127,
      "chip": "ym2612"
    },
    {
      "channel": 2,
      "note": 30,
      "start": 15.2422,
      "duration": 0.2487,
      "velocity": 119,
      "chip": "ym2612"
    },
    {
      "channel": 1,
      "note": 35,
      "start": 15.6197,
      "duration": 0.3805,
      "velocity": 95,
      "chip": "ym2612"
    },
    {
      "channel": 5,
      "note": 47,
      "start": 15.621,
      "duration": 0.1234,
      "velocity": 127,
      "chip": "ym2612"
    },
    {
      "channel": 2,
      "note": 72,
      "start": 15.6217,
      "duration": 0.3754,
      "velocity": 120,
      "chip": "ym2612"
    },
    {
      "channel": 5,
      "note": 47,
      "start": 15.7449,
      "duration": 0.1266,
      "velocity": 127,
      "chip": "ym2612"
    },
    {
      "channel": 5,
      "note": 47,
      "start": 15.8719,
      "duration": 0.1297,
      "velocity": 127,
      "chip": "ym2612"
    },
    {
      "channel": 1,
      "note": 35,
      "start": 16.0008,
      "duration": 0.3805,
      "velocity": 95,
      "chip": "ym2612"
    },
    {
      "channel": 5,
      "note": 47,
      "start": 16.002,
      "duration": 0.3806,
      "velocity": 127,
      "chip": "ym2612"
    },
    {
      "channel": 2,
      "note": 72,
      "start": 16.0028,
      "duration": 0.3752,
      "velocity": 120,
      "chip": "ym2612"
    },
    {
      "channel": 1,
      "note": 35,
      "start": 16.3818,
      "duration": 0.3807,
      "velocity": 95,
      "chip": "ym2612"
    },
    {
      "channel": 5,
      "note": 47,
      "start": 16.3831,
      "duration": 0.1234,
      "velocity": 127,
      "chip": "ym2612"
    },
    {
      "channel": 2,
      "note": 72,
      "start": 16.3839,
      "duration": 0.3754,
      "velocity": 120,
      "chip": "ym2612"
    },
    {
      "channel": 5,
      "note": 47,
      "start": 16.5069,
      "duration": 0.1267,
      "velocity": 127,
      "chip": "ym2612"
    },
    {
      "channel": 5,
      "note": 47,
      "start": 16.634,
      "duration": 0.1327,
      "velocity": 127,
      "chip": "ym2612"
    },
    {
      "channel": 1,
      "note": 35,
      "start": 16.7631,
      "duration": 0.3801,
      "velocity": 95,
      "chip": "ym2612"
    },
    {
      "channel": 5,
      "note": 47,
      "start": 16.7671,
      "duration": 0.378,
      "velocity": 127,
      "chip": "ym2612"
    },
    {
      "channel": 2,
      "note": 30,
      "start": 16.7679,
      "duration": 0.2471,
      "velocity": 119,
      "chip": "ym2612"
    },
    {
      "channel": 4,
      "note": 97,
      "start": 16.9512,
      "duration": 0.1931,
      "velocity": 95,
      "chip": "ym2612"
    },
    {
      "channel": 1,
      "note": 35,
      "start": 17.1438,
      "duration": 0.3805,
      "velocity": 95,
      "chip": "ym2612"
    },
    {
      "channel": 4,
      "note": 97,
      "start": 17.1449,
      "duration": 0.1869,
      "velocity": 95,
      "chip": "ym2612"
    },
    {
      "channel": 5,
      "note": 47,
      "start": 17.1456,
      "duration": 0.123,
      "velocity": 127,
      "chip": "ym2612"
    },
    {
      "channel": 2,
      "note": 72,
      "start": 17.1463,
      "duration": 0.3747,
      "velocity": 120,
      "chip": "ym2612"
    },
    {
      "channel": 5,
      "note": 47,
      "start": 17.269,
      "duration": 0.1266,
      "velocity": 127,
      "chip": "ym2612"
    },
    {
      "channel": 4,
      "note": 92,
      "start": 17.3324,
      "duration": 0.1929,
      "velocity": 95,
      "chip": "ym2612"
    },
    {
      "channel": 5,
      "note": 47,
      "start": 17.396,
      "duration": 0.1301,
      "velocity": 127,
      "chip": "ym2612"
    },
    {
      "channel": 1,
      "note": 35,
      "start": 17.5248,
      "duration": 0.3804,
      "velocity": 95,
      "chip": "ym2612"
    },
    {
      "channel": 4,
      "note": 92,
      "start": 17.5259,
      "duration": 0.187,
      "velocity": 95,
      "chip": "ym2612"
    },
    {
      "channel": 5,
      "note": 47,
      "start": 17.5265,
      "duration": 0.123,
      "velocity": 127,
      "chip": "ym2612"
    },
    {
      "channel": 2,
      "note": 72,
      "start": 17.5272,
      "duration": 0.3749,
      "velocity": 120,
      "chip": "ym2612"
    },
    {
      "channel": 5,
      "note": 47,
      "start": 17.65,
      "duration": 0.1265,
      "velocity": 127,
      "chip": "ym2612"
    },
    {
      "channel": 4,
      "note": 89,
      "start": 17.7134,
      "duration": 0.1929,
      "velocity": 95,
      "chip": "ym2612"
    },
    {
      "channel": 5,
      "note": 47,
      "start": 17.777,
      "duration": 0.1301,
      "velocity": 127,
      "chip": "ym2612"
    },
    {
      "channel": 1,
      "note": 35,
      "start": 17.9058,
      "duration": 0.381,
      "velocity": 95,
      "chip": "ym2612"
    },
    {
      "channel": 4,
      "note": 89,
      "start": 17.9069,
      "duration": 0.1867,
      "velocity": 95,
      "chip": "ym2612"
    },
    {
      "channel": 5,
      "note": 47,
      "start": 17.9075,
      "duration": 0.123,
      "velocity": 127,
      "chip": "ym2612"
    },
    {
      "channel": 2,
      "note": 72,
      "start": 17.9083,
      "duration": 0.3749,
      "velocity": 120,
      "chip": "ym2612"
    },
    {
      "channel": 5,
      "note": 47,
      "start": 18.0309,
      "duration": 0.1266,
      "velocity": 127,
      "chip": "ym2612"
    },
    {
      "channel": 4,
      "note": 85,
      "start": 18.0942,
      "duration": 0.1968,
      "velocity": 100,
      "chip": "ym2612"
    },
    {
      "channel": 5,
      "note": 47,
      "start": 18.158,
      "duration": 0.1364,
      "velocity": 127,
      "chip": "ym2612"
    },
    {
      "channel": 0,
      "note": 71,
      "start": 18.2865,
      "duration": 1.5235,
      "velocity": 111,
      "chip": "ym2612"
    },
    {
      "channel": 1,
      "note": 35,
      "start": 18.2873,
      "duration": 0.3798,
      "velocity": 95,
      "chip": "ym2612"
    },
    {
      "channel": 3,
      "note": 67,
      "start": 18.2881,
      "duration": 1.5235,
      "velocity": 111,
      "chip": "ym2612"
    },
    {
      "channel": 4,
      "note": 71,
      "start": 18.2915,
      "duration": 0.7579,
      "velocity": 100,
      "chip": "ym2612"
    },
    {
      "channel": 5,
      "note": 47,
      "start": 18.295,
      "duration": 0.3737,
      "velocity": 127,
      "chip": "ym2612"
    },
    {
      "channel": 2,
      "note": 30,
      "start": 18.2959,
      "duration": 0.2431,
      "velocity": 119,
      "chip": "ym2612"
    },
    {
      "channel": 1,
      "note": 35,
      "start": 18.6678,
      "duration": 0.3806,
      "velocity": 95,
      "chip": "ym2612"
    },
    {
      "channel": 5,
      "note": 47,
      "start": 18.6691,
      "duration": 0.1234,
      "velocity": 127,
      "chip": "ym2612"
    },
    {
      "channel": 2,
      "note": 72,
      "start": 18.6698,
      "duration": 0.3754,
      "velocity": 120,
      "chip": "ym2612"
    },
    {
      "channel": 5,
      "note": 47,
      "start": 18.7929,
      "duration": 0.1266,
      "velocity": 127,
      "chip": "ym2612"
    },
    {
      "channel": 5,
      "note": 47,
      "start": 18.92,
      "duration": 0.1302,
      "velocity": 127,
      "chip": "ym2612"
    },
    {
      "channel": 1,
      "note": 35,
      "start": 19.0489,
      "duration": 0.3804,
      "velocity": 95,
      "chip": "ym2612"
    },
    {
      "channel": 4,
      "note": 70,
      "start": 19.05,
      "duration": 0.3804,
      "velocity": 100,
      "chip": "ym2612"
    },
    {
      "channel": 5,
      "note": 47,
      "start": 19.0506,
      "duration": 0.3805,
      "velocity": 127,
      "chip": "ym2612"
    },
    {
      "channel": 2,
      "note": 72,
      "start": 19.0513,
      "duration": 0.3748,
      "velocity": 120,
      "chip": "ym2612"
    },
    {
      "channel": 1,
      "note": 35,
      "start": 19.4299,
      "duration": 0.381,
      "velocity": 95,
      "chip": "ym2612"
    },
    {
      "channel": 4,
      "note": 71,
      "start": 19.431,
      "duration": 0.3814,
      "velocity": 100,
      "chip": "ym2612"
    },
    {
      "channel": 5,
      "note": 47,
      "start": 19.4316,
      "duration": 0.1229,
      "velocity": 127,
      "chip": "ym2612"
    },
    {
      "channel": 2,
      "note": 72,
      "start": 19.4323,
      "duration": 0.3748,
      "velocity": 120,
      "chip": "ym2612"
    },
    {
      "channel": 5,
      "note": 47,
      "start": 19.555,
      "duration": 0.1265,
      "velocity": 127,
      "chip": "ym2612"
    },
    {
      "channel": 5,
      "note": 47,
      "start": 19.682,
      "duration": 0.1312,
      "velocity": 127,
      "chip": "ym2612"
    },
    {
      "channel": 0,
      "note": 70,
      "start": 19.8106,
      "duration": 1.5233,
      "velocity": 111,
      "chip": "ym2612"
    },
    {
      "channel": 1,
      "note": 35,
      "start": 19.8115,
      "duration": 0.3798,
      "velocity": 95,
      "chip": "ym2612"
    },
    {
      "channel": 3,
      "note": 64,
      "start": 19.8123,
      "duration": 1.5232,
      "velocity": 111,
      "chip": "ym2612"
    },
    {
      "channel": 4,
      "note": 76,
      "start": 19.813,
      "duration": 1.5234,
      "velocity": 100,
      "chip": "ym2612"
    },
    {
      "channel": 5,
      "note": 47,
      "start": 19.8136,
      "duration": 0.3791,
      "velocity": 127,
      "chip": "ym2612"
    },
    {
      "channel": 2,
      "note": 30,
      "start": 19.8144,
      "duration": 0.2486,
      "velocity": 119,
      "chip": "ym2612"
    },
    {
      "channel": 1,
      "note": 35,
      "start": 20.1918,
      "duration": 0.3805,
      "velocity": 95,
      "chip": "ym2612"
    },
    {
      "channel": 5,
      "note": 47,
      "start": 20.1931,
      "duration": 0.1234,
      "velocity": 127,
      "chip": "ym2612"
    },
    {
      "channel": 2,
      "note": 72,
      "start": 20.1938,
      "duration": 0.3753,
      "velocity": 120,
      "chip": "ym2612"
    },
    {
      "channel": 5,
      "note": 47,
      "start": 20.317,
      "duration": 0.1265,
      "velocity": 127,
      "chip": "ym2612"
    },
    {
      "channel": 5,
      "note": 47,
      "start": 20.444,
      "duration": 0.1298,
      "velocity": 127,
      "chip": "ym2612"
    },
    {
      "channel": 1,
      "note": 35,
      "start": 20.5729,
      "duration": 0.3803,
      "velocity": 95,
      "chip": "ym2612"
    },
    {
      "channel": 5,
      "note": 47,
      "start": 20.5742,
      "duration": 0.3805,
      "velocity": 127,
      "chip": "ym2612"
    },
    {
      "channel": 2,
      "note": 72,
      "start": 20.5749,
      "duration": 0.3752,
      "velocity": 120,
      "chip": "ym2612"
    },
    {
      "channel": 1,
      "note": 35,
      "start": 20.9538,
      "duration": 0.381,
      "velocity": 95,
      "chip": "ym2612"
    },
    {
      "channel": 5,
      "note": 47,
      "start": 20.9552,
      "duration": 0.3819,
      "velocity": 127,
      "chip": "ym2612"
    },
    {
      "channel": 2,
      "note": 72,
      "start": 20.9559,
      "duration": 0.3753,
      "velocity": 120,
      "chip": "ym2612"
    },
    {
      "channel": 0,
      "note": 71,
      "start": 21.3346,
      "duration": 3.0474,
      "velocity": 111,
      "chip": "ym2612"
    },
    {
      "channel": 1,
      "note": 35,
      "start": 21.3354,
      "duration": 0.3799,
      "velocity": 95,
      "chip": "ym2612"
    },
    {
      "channel": 3,
      "note": 63,
      "start": 21.3361,
      "duration": 3.0475,
      "velocity": 111,
      "chip": "ym2612"
    },
    {
      "channel": 4,
      "note": 75,
      "start": 21.337,
      "duration": 3.0475,
      "velocity": 100,
      "chip": "ym2612"
    },
    {
      "channel": 5,
      "note": 47,
      "start": 21.3375,
      "duration": 0.3792,
      "velocity": 127,
      "chip": "ym2612"
    },
    {
      "channel": 2,
      "note": 30,
      "start": 21.3384,
      "duration": 0.2486,
      "velocity": 119,
      "chip": "ym2612"
    },
    {
      "channel": 1,
      "note": 35,
      "start": 21.7159,
      "duration": 0.3805,
      "velocity": 95,
      "chip": "ym2612"
    },
    {
      "channel": 5,
      "note": 47,
      "start": 21.7172,
      "duration": 0.1235,
      "velocity": 127,
      "chip": "ym2612"
    },
    {
      "channel": 2,
      "note": 72,
      "start": 21.7179,
      "duration": 0.3753,
      "velocity": 120,
      "chip": "ym2612"
    },
    {
      "channel": 5,
      "note": 47,
      "start": 21.8411,
      "duration": 0.1265,
      "velocity": 127,
      "chip": "ym2612"
    },
    {
      "channel": 5,
      "note": 47,
      "start": 21.968,
      "duration": 0.1298,
      "velocity": 127,
      "chip": "ym2612"
    },
    {
      "channel": 1,
      "note": 35,
      "start": 22.097,
      "duration": 0.3803,
      "velocity": 95,
      "chip": "ym2612"
    },
    {
      "channel": 5,
      "note": 47,
      "start": 22.0983,
      "duration": 0.3805,
      "velocity": 127,
      "chip": "ym2612"
    },
    {
      "channel": 2,
      "note": 72,
      "start": 22.099,
      "duration": 0.3751,
      "velocity": 120,
      "chip": "ym2612"
    },
    {
      "channel": 1,
      "note": 35,
      "start": 22.4779,
      "duration": 0.3806,
      "velocity": 95,
      "chip": "ym2612"
    },
    {
      "channel": 5,
      "note": 47,
      "start": 22.4792,
      "duration": 0.1234,
      "velocity": 127,
      "chip": "ym2612"
    },
    {
      "channel": 2,
      "note": 72,
      "start": 22.48,
      "duration": 0.3752,
      "velocity": 120,
      "chip": "ym2612"
    },
    {
      "channel": 5,
      "note": 47,
      "start": 22.603,
      "duration": 0.1267,
      "velocity": 127,
      "chip": "ym2612"
    },
    {
      "channel": 5,
      "note": 47,
      "start": 22.7301,
      "duration": 0.1298,
      "velocity": 127,
      "chip": "ym2612"
    },
    {
      "channel": 1,
      "note": 35,
      "start": 22.859,
      "duration": 0.3802,
      "velocity": 95,
      "chip": "ym2612"
    },
    {
      "channel": 5,
      "note": 47,
      "start": 22.8604,
      "duration": 0.3803,
      "velocity": 127,
      "chip": "ym2612"
    },
    {
      "channel": 2,
      "note": 30,
      "start": 22.8612,
      "duration": 0.2498,
      "velocity": 119,
      "chip": "ym2612"
    },
    {
      "channel": 1,
      "note": 35,
      "start": 23.2398,
      "duration": 0.3805,
      "velocity": 95,
      "chip": "ym2612"
    },
    {
      "channel": 5,
      "note": 47,
      "start": 23.2411,
      "duration": 0.1235,
      "velocity": 127,
      "chip": "ym2612"
    },
    {
      "channel": 2,
      "note": 72,
      "start": 23.2419,
      "duration": 0.3753,
      "velocity": 120,
      "chip": "ym2612"
    },
    {
      "channel": 5,
      "note": 47,
      "start": 23.3651,
      "duration": 0.1267,
      "velocity": 127,
      "chip": "ym2612"
    },
    {
      "channel": 5,
      "note": 47,
      "start": 23.4922,
      "duration": 0.1296,
      "velocity": 127,
      "chip": "ym2612"
    },
    {
      "channel": 1,
      "note": 35,
      "start": 23.6209,
      "duration": 0.3805,
      "velocity": 95,
      "chip": "ym2612"
    },
    {
      "channel": 5,
      "note": 47,
      "start": 23.6222,
      "duration": 0.1235,
      "velocity": 127,
      "chip": "ym2612"
    },
    {
      "channel": 2,
      "note": 72,
      "start": 23.6229,
      "duration": 0.3753,
      "velocity": 120,
      "chip": "ym2612"
    },
    {
      "channel": 5,
      "note": 47,
      "start": 23.7461,
      "duration": 0.1265,
      "velocity": 127,
      "chip": "ym2612"
    },
    {
      "channel": 5,
      "note": 47,
      "start": 23.8731,
      "duration": 0.1296,
      "velocity": 127,
      "chip": "ym2612"
    },
    {
      "channel": 1,
      "note": 35,
      "start": 24.0019,
      "duration": 0.3809,
      "velocity": 95,
      "chip": "ym2612"
    },
    {
      "channel": 5,
      "note": 47,
      "start": 24.0032,
      "duration": 0.1235,
      "velocity": 127,
      "chip": "ym2612"
    },
    {
      "channel": 2,
      "note": 72,
      "start": 24.0039,
      "duration": 0.3753,
      "velocity": 120,
      "chip": "ym2612"
    },
    {
      "channel": 5,
      "note": 47,
      "start": 24.1271,
      "duration": 0.1265,
      "velocity": 127,
      "chip": "ym2612"
    },
    {
      "channel": 5,
      "note": 47,
      "start": 24.2541,
      "duration": 0.1312,
      "velocity": 127,
      "chip": "ym2612"
    },
    {
      "channel": 0,
      "note": 73,
      "start": 24.3826,
      "duration": 1.5234,
      "velocity": 111,
      "chip": "ym2612"
    },
    {
      "channel": 1,
      "note": 29,
      "start": 24.3834,
      "duration": 0.3801,
      "velocity": 95,
      "chip": "ym2612"
    },
    {
      "channel": 3,
      "note": 65,
      "start": 24.3842,
      "duration": 1.5234,
      "velocity": 111,
      "chip": "ym2612"
    },
    {
      "channel": 4,
      "note": 73,
      "start": 24.385,
      "duration": 2.2852,
      "velocity": 100,
      "chip": "ym2612"
    },
    {
      "channel": 5,
      "note": 53,
      "start": 24.3858,
      "duration": 0.3791,
      "velocity": 127,
      "chip": "ym2612"
    },
    {
      "channel": 2,
      "note": 30,
      "start": 24.3866,
      "duration": 0.2484,
      "velocity": 119,
      "chip": "ym2612"
    },
    {
      "channel": 1,
      "note": 29,
      "start": 24.7641,
      "duration": 0.3804,
      "velocity": 95,
      "chip": "ym2612"
    },
    {
      "channel": 5,
      "note": 53,
      "start": 24.7653,
      "duration": 0.1234,
      "velocity": 127,
      "chip": "ym2612"
    },
    {
      "channel": 2,
      "note": 72,
      "start": 24.7661,
      "duration": 0.3751,
      "velocity": 120,
      "chip": "ym2612"
    },
    {
      "channel": 5,
      "note": 53,
      "start": 24.8891,
      "duration": 0.1265,
      "velocity": 127,
      "chip": "ym2612"
    },
    {
      "channel": 5,
      "note": 53,
      "start": 25.0161,
      "duration": 0.1299,
      "velocity": 127,
      "chip": "ym2612"
    },
    {
      "channel": 1,
      "note": 29,
      "start": 25.1451,
      "duration": 0.3804,
      "velocity": 95,
      "chip": "ym2612"
    },
    {
      "channel": 5,
      "note": 53,
      "start": 25.1464,
      "duration": 0.3805,
      "velocity": 127,
      "chip": "ym2612"
    },
    {
      "channel": 2,
      "note": 72,
      "start": 25.1472,
      "duration": 0.375,
      "velocity": 120,
      "chip": "ym2612"
    },
    {
      "channel": 1,
      "note": 29,
      "start": 25.526,
      "duration": 0.3808,
      "velocity": 95,
      "chip": "ym2612"
    },
    {
      "channel": 5,
      "note": 53,
      "start": 25.5274,
      "duration": 0.1233,
      "velocity": 127,
      "chip": "ym2612"
    },
    {
      "channel": 2,
      "note": 72,
      "start": 25.5281,
      "duration": 0.3751,
      "velocity": 120,
      "chip": "ym2612"
    },
    {
      "channel": 5,
      "note": 53,
      "start": 25.6511,
      "duration": 0.1266,
      "velocity": 127,
      "chip": "ym2612"
    },
    {
      "channel": 5,
      "note": 53,
      "start": 25.7781,
      "duration": 0.1304,
      "velocity": 127,
      "chip": "ym2612"
    },
    {
      "channel": 0,
      "note": 72,
      "start": 25.9067,
      "duration": 0.3803,
      "velocity": 111,
      "chip": "ym2612"
    },
    {
      "channel": 1,
      "note": 29,
      "start": 25.9075,
      "duration": 0.3804,
      "velocity": 95,
      "chip": "ym2612"
    },
    {
      "channel": 3,
      "note": 65,
      "start": 25.9081,
      "duration": 0.7615,
      "velocity": 111,
      "chip": "ym2612"
    },
    {
      "channel": 5,
      "note": 53,
      "start": 25.909,
      "duration": 0.3803,
      "velocity": 127,
      "chip": "ym2612"
    },
    {
      "channel": 2,
      "note": 30,
      "start": 25.9098,
      "duration": 0.2493,
      "velocity": 119,
      "chip": "ym2612"
    },
    {
      "channel": 0,
      "note": 73,
      "start": 26.2876,
      "duration": 0.3804,
      "velocity": 111,
      "chip": "ym2612"
    },
    {
      "channel": 1,
      "note": 29,
      "start": 26.2884,
      "duration": 0.3804,
      "velocity": 95,
      "chip": "ym2612"
    },
    {
      "channel": 5,
      "note": 53,
      "start": 26.2897,
      "duration": 0.1231,
      "velocity": 127,
      "chip": "ym2612"
    },
    {
      "channel": 2,
      "note": 72,
      "start": 26.2905,
      "duration": 0.3747,
      "velocity": 120,
      "chip": "ym2612"
    },
    {
      "channel": 5,
      "note": 53,
      "start": 26.4132,
      "duration": 0.1264,
      "velocity": 127,
      "chip": "ym2612"
    },
    {
      "channel": 5,
      "note": 53,
      "start": 26.5401,
      "duration": 0.1308,
      "velocity": 127,
      "chip": "ym2612"
    },
    {
      "channel": 0,
      "note": 75,
      "start": 26.6686,
      "duration": 0.5683,
      "velocity": 111,
      "chip": "ym2612"
    },
    {
      "channel": 1,
      "note": 29,
      "start": 26.6694,
      "duration": 0.38,
      "velocity": 95,
      "chip": "ym2612"
    },
    {
      "channel": 3,
      "note": 65,
      "start": 26.67,
      "duration": 0.7618,
      "velocity": 111,
      "chip": "ym2612"
    },
    {
      "channel": 4,
      "note": 72,
      "start": 26.6707,
      "duration": 0.3798,
      "velocity": 100,
      "chip": "ym2612"
    },
    {
      "channel": 5,
      "note": 53,
      "start": 26.6713,
      "duration": 0.38,
      "velocity": 127,
      "chip": "ym2612"
    },
    {
      "channel": 2,
      "note": 72,
      "start": 26.6721,
      "duration": 0.3741,
      "velocity": 120,
      "chip": "ym2612"
    },
    {
      "channel": 1,
      "note": 29,
      "start": 27.05,
      "duration": 0.3811,
      "velocity": 95,
      "chip": "ym2612"
    },
    {
      "channel": 4,
      "note": 73,
      "start": 27.0512,
      "duration": 0.3814,
      "velocity": 100,
      "chip": "ym2612"
    },
    {
      "channel": 5,
      "note": 53,
      "start": 27.0517,
      "duration": 0.3816,
      "velocity": 127,
      "chip": "ym2612"
    },
    {
      "channel": 2,
      "note": 72,
      "start": 27.0525,
      "duration": 0.3749,
      "velocity": 120,
      "chip": "ym2612"
    },
    {
      "channel": 0,
      "note": 73,
      "start": 27.2374,
      "duration": 0.1928,
      "velocity": 111,
      "chip": "ym2612"
    },
    {
      "channel": 0,
      "note": 73,
      "start": 27.4309,
      "duration": 1.5233,
      "velocity": 111,
      "chip": "ym2612"
    },
    {
      "channel": 1,
      "note": 28,
      "start": 27.4317,
      "duration": 0.3798,
      "velocity": 95,
      "chip": "ym2612"
    },
    {
      "channel": 3,
      "note": 64,
      "start": 27.4324,
      "duration": 1.5234,
      "velocity": 111,
      "chip": "ym2612"
    },
    {
      "channel": 4,
      "note": 73,
      "start": 27.4332,
      "duration": 0.7605,
      "velocity": 100,
      "chip": "ym2612"
    },
    {
      "channel": 5,
      "note": 52,
      "start": 27.4339,
      "duration": 0.3791,
      "velocity": 127,
      "chip": "ym2612"
    },
    {
      "channel": 2,
      "note": 30,
      "start": 27.4347,
      "duration": 0.2483,
      "velocity": 119,
      "chip": "ym2612"
    },
    {
      "channel": 1,
      "note": 28,
      "start": 27.8121,
      "duration": 0.3805,
      "velocity": 95,
      "chip": "ym2612"
    },
    {
      "channel": 5,
      "note": 52,
      "start": 27.8134,
      "duration": 0.1234,
      "velocity": 127,
      "chip": "ym2612"
    },
    {
      "channel": 2,
      "note": 72,
      "start": 27.8142,
      "duration": 0.3751,
      "velocity": 120,
      "chip": "ym2612"
    },
    {
      "channel": 5,
      "note": 52,
      "start": 27.9372,
      "duration": 0.1265,
      "velocity": 127,
      "chip": "ym2612"
    },
    {
      "channel": 5,
      "note": 52,
      "start": 28.0642,
      "duration": 0.1302,
      "velocity": 127,
      "chip": "ym2612"
    },
    {
      "channel": 1,
      "note": 28,
      "start": 28.1931,
      "duration": 0.3803,
      "velocity": 95,
      "chip": "ym2612"
    },
    {
      "channel": 4,
      "note": 72,
      "start": 28.1943,
      "duration": 0.3803,
      "velocity": 100,
      "chip": "ym2612"
    },
    {
      "channel": 5,
      "note": 52,
      "start": 28.1949,
      "duration": 0.3805,
      "velocity": 127,
      "chip": "ym2612"
    },
    {
      "channel": 2,
      "note": 72,
      "start": 28.1957,
      "duration": 0.3746,
      "velocity": 120,
      "chip": "ym2612"
    },
    {
      "channel": 1,
      "note": 28,
      "start": 28.5741,
      "duration": 0.381,
      "velocity": 95,
      "chip": "ym2612"
    },
    {
      "channel": 4,
      "note": 73,
      "start": 28.5752,
      "duration": 0.3812,
      "velocity": 100,
      "chip": "ym2612"
    },
    {
      "channel": 5,
      "note": 52,
      "start": 28.5758,
      "duration": 0.123,
      "velocity": 127,
      "chip": "ym2612"
    },
    {
      "channel": 2,
      "note": 72,
      "start": 28.5765,
      "duration": 0.3749,
      "velocity": 120,
      "chip": "ym2612"
    },
    {
      "channel": 5,
      "note": 52,
      "start": 28.6992,
      "duration": 0.1265,
      "velocity": 127,
      "chip": "ym2612"
    },
    {
      "channel": 5,
      "note": 52,
      "start": 28.8261,
      "duration": 0.1309,
      "velocity": 127,
      "chip": "ym2612"
    },
    {
      "channel": 0,
      "note": 68,
      "start": 28.9548,
      "duration": 0.7613,
      "velocity": 111,
      "chip": "ym2612"
    },
    {
      "channel": 1,
      "note": 28,
      "start": 28.9556,
      "duration": 0.3799,
      "velocity": 95,
      "chip": "ym2612"
    },
    {
      "channel": 3,
      "note": 64,
      "start": 28.9562,
      "duration": 0.7615,
      "velocity": 111,
      "chip": "ym2612"
    },
    {
      "channel": 4,
      "note": 73,
      "start": 28.9569,
      "duration": 0.3796,
      "velocity": 100,
      "chip": "ym2612"
    },
    {
      "channel": 5,
      "note": 52,
      "start": 28.9575,
      "duration": 0.3798,
      "velocity": 127,
      "chip": "ym2612"
    },
    {
      "channel": 2,
      "note": 30,
      "start": 28.9583,
      "duration": 0.2488,
      "velocity": 119,
      "chip": "ym2612"
    },
    {
      "channel": 1,
      "note": 28,
      "start": 29.3361,
      "duration": 0.3809,
      "velocity": 95,
      "chip": "ym2612"
    },
    {
      "channel": 4,
      "note": 75,
      "start": 29.3372,
      "duration": 0.381,
      "velocity": 100,
      "chip": "ym2612"
    },
    {
      "channel": 5,
      "note": 52,
      "start": 29.3378,
      "duration": 0.1229,
      "velocity": 127,
      "chip": "ym2612"
    },
    {
      "channel": 2,
      "note": 72,
      "start": 29.3385,
      "duration": 0.3748,
      "velocity": 120,
      "chip": "ym2612"
    },
    {
      "channel": 5,
      "note": 52,
      "start": 29.4612,
      "duration": 0.1265,
      "velocity": 127,
      "chip": "ym2612"
    },
    {
      "channel": 5,
      "note": 52,
      "start": 29.5882,
      "duration": 0.1308,
      "velocity": 127,
      "chip": "ym2612"
    },
    {
      "channel": 0,
      "note": 73,
      "start": 29.7167,
      "duration": 0.3805,
      "velocity": 111,
      "chip": "ym2612"
    },
    {
      "channel": 1,
      "note": 28,
      "start": 29.7175,
      "duration": 0.3805,
      "velocity": 95,
      "chip": "ym2612"
    },
    {
      "channel": 3,
      "note": 64,
      "start": 29.7181,
      "duration": 0.3807,
      "velocity": 111,
      "chip": "ym2612"
    },
    {
      "channel": 4,
      "note": 75,
      "start": 29.7189,
      "duration": 0.567,
      "velocity": 100,
      "chip": "ym2612"
    },
    {
      "channel": 5,
      "note": 52,
      "start": 29.7195,
      "duration": 0.1223,
      "velocity": 127,
      "chip": "ym2612"
    },
    {
      "channel": 2,
      "note": 72,
      "start": 29.7202,
      "duration": 0.3741,
      "velocity": 120,
      "chip": "ym2612"
    },
    {
      "channel": 5,
      "note": 52,
      "start": 29.8422,
      "duration": 0.1265,
      "velocity": 127,
      "chip": "ym2612"
    },
    {
      "channel": 5,
      "note": 52,
      "start": 29.9692,
      "duration": 0.1305,
      "velocity": 127,
      "chip": "ym2612"
    },
    {
      "channel": 0,
      "note": 71,
      "start": 30.0978,
      "duration": 0.3803,
      "velocity": 111,
      "chip": "ym2612"
    },
    {
      "channel": 1,
      "note": 28,
      "start": 30.0986,
      "duration": 0.3805,
      "velocity": 95,
      "chip": "ym2612"
    },
    {
      "channel": 3,
      "note": 64,
      "start": 30.0993,
      "duration": 0.3805,
      "velocity": 111,
      "chip": "ym2612"
    },
    {
      "channel": 5,
      "note": 52,
      "start": 30.1001,
      "duration": 0.1228,
      "velocity": 127,
      "chip": "ym2612"
    },
    {
      "channel": 2,
      "note": 72,
      "start": 30.1009,
      "duration": 0.3745,
      "velocity": 120,
      "chip": "ym2612"
    },
    {
      "channel": 5,
      "note": 52,
      "start": 30.2234,
      "duration": 0.1265,
      "velocity": 127,
      "chip": "ym2612"
    },
    {
      "channel": 4,
      "note": 73,
      "start": 30.2865,
      "duration": 0.194,
      "velocity": 100,
      "chip": "ym2612"
    },
    {
      "channel": 5,
      "note": 52,
      "start": 30.3503,
      "duration": 0.131,
      "velocity": 127,
      "chip": "ym2612"
    },
    {
      "channel": 0,
      "note": 71,
      "start": 30.4788,
      "duration": 0.7613,
      "velocity": 111,
      "chip": "ym2612"
    },
    {
      "channel": 1,
      "note": 27,
      "start": 30.4797,
      "duration": 0.3799,
      "velocity": 95,
      "chip": "ym2612"
    },
    {
      "channel": 3,
      "note": 63,
      "start": 30.4803,
      "duration": 0.7613,
      "velocity": 111,
      "chip": "ym2612"
    },
    {
      "channel": 4,
      "note": 71,
      "start": 30.4811,
      "duration": 1.1424,
      "velocity": 100,
      "chip": "ym2612"
    },
    {
      "channel": 5,
      "note": 51,
      "start": 30.4819,
      "duration": 0.3791,
      "velocity": 127,
      "chip": "ym2612"
    },
    {
      "channel": 2,
      "note": 30,
      "start": 30.4827,
      "duration": 0.2485,
      "velocity": 119,
      "chip": "ym2612"
    },
    {
      "channel": 1,
      "note": 27,
      "start": 30.8601,
      "duration": 0.3808,
      "velocity": 95,
      "chip": "ym2612"
    },
    {
      "channel": 5,
      "note": 51,
      "start": 30.8615,
      "duration": 0.1234,
      "velocity": 127,
      "chip": "ym2612"
    },
    {
      "channel": 2,
      "note": 72,
      "start": 30.8623,
      "duration": 0.375,
      "velocity": 120,
      "chip": "ym2612"
    },
    {
      "channel": 5,
      "note": 51,
      "start": 30.9852,
      "duration": 0.1266,
      "velocity": 127,
      "chip": "ym2612"
    },
    {
      "channel": 5,
      "note": 51,
      "start": 31.1123,
      "duration": 0.1305,
      "velocity": 127,
      "chip": "ym2612"
    },
    {
      "channel": 0,
      "note": 66,
      "start": 31.2407,
      "duration": 0.3805,
      "velocity": 111,
      "chip": "ym2612"
    },
    {
      "channel": 1,
      "note": 27,
      "start": 31.2415,
      "duration": 0.3805,
      "velocity": 95,
      "chip": "ym2612"
    },
    {
      "channel": 3,
      "note": 59,
      "start": 31.2422,
      "duration": 0.3805,
      "velocity": 111,
      "chip": "ym2612"
    },
    {
      "channel": 5,
      "note": 51,
      "start": 31.2432,
      "duration": 0.381,
      "velocity": 127,
      "chip": "ym2612"
    },
    {
      "channel": 2,
      "note": 72,
      "start": 31.244,
      "duration": 0.3744,
      "velocity": 120,
      "chip": "ym2612"
    },
    {
      "channel": 0,
      "note": 71,
      "start": 31.6218,
      "duration": 0.3805,
      "velocity": 111,
      "chip": "ym2612"
    },
    {
      "channel": 1,
      "note": 27,
      "start": 31.6226,
      "duration": 0.3805,
      "velocity": 95,
      "chip": "ym2612"
    },
    {
      "channel": 3,
      "note": 63,
      "start": 31.6233,
      "duration": 0.3805,
      "velocity": 111,
      "chip": "ym2612"
    },
    {
      "channel": 4,
      "note": 66,
      "start": 31.6241,
      "duration": 0.3805,
      "velocity": 100,
      "chip": "ym2612"
    },
    {
      "channel": 5,
      "note": 51,
      "start": 31.6246,
      "duration": 0.1222,
      "velocity": 127,
      "chip": "ym2612"
    },
    {
      "channel": 2,
      "note": 72,
      "start": 31.6254,
      "duration": 0.3741,
      "velocity": 120,
      "chip": "ym2612"
    },
    {
      "channel": 5,
      "note": 51,
      "start": 31.7473,
      "duration": 0.1265,
      "velocity": 127,
      "chip": "ym2612"
    },
    {
      "channel": 5,
      "note": 51,
      "start": 31.8742,
      "duration": 0.131,
      "velocity": 127,
      "chip": "ym2612"
    },
    {
      "channel": 0,
      "note": 71,
      "start": 32.0029,
      "duration": 0.3803,
      "velocity": 111,
      "chip": "ym2612"
    },
    {
      "channel": 1,
      "note": 27,
      "start": 32.0037,
      "duration": 0.3803,
      "velocity": 95,
      "chip": "ym2612"
    },
    {
      "channel": 3,
      "note": 63,
      "start": 32.0044,
      "duration": 0.3803,
      "velocity": 111,
      "chip": "ym2612"
    },
    {
      "channel": 4,
      "note": 66,
      "start": 32.0052,
      "duration": 0.3803,
      "velocity": 100,
      "chip": "ym2612"
    },
    {
      "channel": 5,
      "note": 51,
      "start": 32.0057,
      "duration": 0.3804,
      "velocity": 127,
      "chip": "ym2612"
    },
    {
      "channel": 2,
      "note": 30,
      "start": 32.0066,
      "duration": 0.2487,
      "velocity": 119,
      "chip": "ym2612"
    },
    {
      "channel": 0,
      "note": 75,
      "start": 32.3837,
      "duration": 0.3805,
      "velocity": 111,
      "chip": "ym2612"
    },
    {
      "channel": 1,
      "note": 27,
      "start": 32.3846,
      "duration": 0.3805,
      "velocity": 95,
      "chip": "ym2612"
    },
    {
      "channel": 3,
      "note": 66,
      "start": 32.3852,
      "duration": 0.3805,
      "velocity": 111,
      "chip": "ym2612"
    },
    {
      "channel": 4,
      "note": 71,
      "start": 32.386,
      "duration": 0.3805,
      "velocity": 100,
      "chip": "ym2612"
    },
    {
      "channel": 5,
      "note": 51,
      "start": 32.3866,
      "duration": 0.1223,
      "velocity": 127,
      "chip": "ym2612"
    },
    {
      "channel": 2,
      "note": 72,
      "start": 32.3873,
      "duration": 0.374,
      "velocity": 120,
      "chip": "ym2612"
    },
    {
      "channel": 5,
      "note": 51,
      "start": 32.5093,
      "duration": 0.1265,
      "velocity": 127,
      "chip": "ym2612"
    },
    {
      "channel": 5,
      "note": 51,
      "start": 32.6363,
      "duration": 0.131,
      "velocity": 127,
      "chip": "ym2612"
    },
    {
      "channel": 0,
      "note": 75,
      "start": 32.7648,
      "duration": 0.3804,
      "velocity": 111,
      "chip": "ym2612"
    },
    {
      "channel": 1,
      "note": 27,
      "start": 32.7656,
      "duration": 0.3804,
      "velocity": 95,
      "chip": "ym2612"
    },
    {
      "channel": 3,
      "note": 66,
      "start": 32.7663,
      "duration": 0.3805,
      "velocity": 111,
      "chip": "ym2612"
    },
    {
      "channel": 4,
      "note": 71,
      "start": 32.7671,
      "duration": 0.5669,
      "velocity": 100,
      "chip": "ym2612"
    },
    {
      "channel": 5,
      "note": 51,
      "start": 32.7678,
      "duration": 0.3802,
      "velocity": 127,
      "chip": "ym2612"
    },
    {
      "channel": 2,
      "note": 72,
      "start": 32.7685,
      "duration": 0.3739,
      "velocity": 120,
      "chip": "ym2612"
    },
    {
      "channel": 0,
      "note": 71,
      "start": 33.1459,
      "duration": 0.3803,
      "velocity": 111,
      "chip": "ym2612"
    },
    {
      "channel": 1,
      "note": 27,
      "start": 33.1466,
      "duration": 0.3804,
      "velocity": 95,
      "chip": "ym2612"
    },
    {
      "channel": 3,
      "note": 63,
      "start": 33.1474,
      "duration": 0.3803,
      "velocity": 111,
      "chip": "ym2612"
    },
    {
      "channel": 5,
      "note": 51,
      "start": 33.1483,
      "duration": 0.381,
      "velocity": 127,
      "chip": "ym2612"
    },
    {
      "channel": 2,
      "note": 72,
      "start": 33.1491,
      "duration": 0.3743,
      "velocity": 120,
      "chip": "ym2612"
    },
    {
      "channel": 4,
      "note": 71,
      "start": 33.3345,
      "duration": 0.1941,
      "velocity": 100,
      "chip": "ym2612"
    },
    {
      "channel": 0,
      "note": 68,
      "start": 33.5268,
      "duration": 3.0476,
      "velocity": 111,
      "chip": "ym2612"
    },
    {
      "channel": 1,
      "note": 28,
      "start": 33.5276,
      "duration": 0.38,
      "velocity": 95,
      "chip": "ym2612"
    },
    {
      "channel": 3,
      "note": 64,
      "start": 33.5284,
      "duration": 3.0474,
      "velocity": 111,
      "chip": "ym2612"
    },
    {
      "channel": 4,
      "note": 76,
      "start": 33.5292,
      "duration": 1.5224,
      "velocity": 100,
      "chip": "ym2612"
    },
    {
      "channel": 5,
      "note": 52,
      "start": 33.5299,
      "duration": 0.3791,
      "velocity": 127,
      "chip": "ym2612"
    },
    {
      "channel": 2,
      "note": 30,
      "start": 33.5307,
      "duration": 0.2486,
      "velocity": 119,
      "chip": "ym2612"
    },
    {
      "channel": 1,
      "note": 28,
      "start": 33.9081,
      "duration": 0.3805,
      "velocity": 95,
      "chip": "ym2612"
    },
    {
      "channel": 5,
      "note": 52,
      "start": 33.9094,
      "duration": 0.1234,
      "velocity": 127,
      "chip": "ym2612"
    },
    {
      "channel": 2,
      "note": 72,
      "start": 33.9102,
      "duration": 0.3753,
      "velocity": 120,
      "chip": "ym2612"
    },
    {
      "channel": 5,
      "note": 52,
      "start": 34.0333,
      "duration": 0.1266,
      "velocity": 127,
      "chip": "ym2612"
    },
    {
      "channel": 5,
      "note": 52,
      "start": 34.1603,
      "duration": 0.1297,
      "velocity": 127,
      "chip": "ym2612"
    },
    {
      "channel": 1,
      "note": 28,
      "start": 34.2892,
      "duration": 0.3804,
      "velocity": 95,
      "chip": "ym2612"
    },
    {
      "channel": 5,
      "note": 52,
      "start": 34.2905,
      "duration": 0.3805,
      "velocity": 127,
      "chip": "ym2612"
    },
    {
      "channel": 2,
      "note": 72,
      "start": 34.2912,
      "duration": 0.3752,
      "velocity": 120,
      "chip": "ym2612"
    },
    {
      "channel": 1,
      "note": 28,
      "start": 34.6701,
      "duration": 0.3805,
      "velocity": 95,
      "chip": "ym2612"
    },
    {
      "channel": 5,
      "note": 52,
      "start": 34.6715,
      "duration": 0.1235,
      "velocity": 127,
      "chip": "ym2612"
    },
    {
      "channel": 2,
      "note": 72,
      "start": 34.6722,
      "duration": 0.3753,
      "velocity": 120,
      "chip": "ym2612"
    },
    {
      "channel": 5,
      "note": 52,
      "start": 34.7954,
      "duration": 0.1264,
      "velocity": 127,
      "chip": "ym2612"
    },
    {
      "channel": 5,
      "note": 52,
      "start": 34.9223,
      "duration": 0.1302,
      "velocity": 127,
      "chip": "ym2612"
    },
    {
      "channel": 1,
      "note": 27,
      "start": 35.0512,
      "duration": 0.3805,
      "velocity": 95,
      "chip": "ym2612"
    },
    {
      "channel": 4,
      "note": 75,
      "start": 35.0523,
      "duration": 0.3804,
      "velocity": 100,
      "chip": "ym2612"
    },
    {
      "channel": 5,
      "note": 52,
      "start": 35.0529,
      "duration": 0.3806,
      "velocity": 127,
      "chip": "ym2612"
    },
    {
      "channel": 2,
      "note": 30,
      "start": 35.0537,
      "duration": 0.2496,
      "velocity": 119,
      "chip": "ym2612"
    },
    {
      "channel": 1,
      "note": 28,
      "start": 35.4322,
      "duration": 0.3805,
      "velocity": 95,
      "chip": "ym2612"
    },
    {
      "channel": 4,
      "note": 76,
      "start": 35.4333,
      "duration": 0.3803,
      "velocity": 100,
      "chip": "ym2612"
    },
    {
      "channel": 5,
      "note": 52,
      "start": 35.4339,
      "duration": 0.1229,
      "velocity": 127,
      "chip": "ym2612"
    },
    {
      "channel": 2,
      "note": 72,
      "start": 35.4347,
      "duration": 0.3748,
      "velocity": 120,
      "chip": "ym2612"
    },
    {
      "channel": 5,
      "note": 52,
      "start": 35.5573,
      "duration": 0.1266,
      "velocity": 127,
      "chip": "ym2612"
    },
    {
      "channel": 5,
      "note": 52,
      "start": 35.6844,
      "duration": 0.1301,
      "velocity": 127,
      "chip": "ym2612"
    },
    {
      "channel": 1,
      "note": 30,
      "start": 35.8132,
      "duration": 0.3803,
      "velocity": 95,
      "chip": "ym2612"
    },
    {
      "channel": 4,
      "note": 78,
      "start": 35.8143,
      "duration": 0.3803,
      "velocity": 100,
      "chip": "ym2612"
    },
    {
      "channel": 5,
      "note": 52,
      "start": 35.8149,
      "duration": 0.123,
      "velocity": 127,
      "chip": "ym2612"
    },
    {
      "channel": 2,
      "note": 72,
      "start": 35.8156,
      "duration": 0.3748,
      "velocity": 120,
      "chip": "ym2612"
    },
    {
      "channel": 5,
      "note": 52,
      "start": 35.9384,
      "duration": 0.1265,
      "velocity": 127,
      "chip": "ym2612"
    },
    {
      "channel": 5,
      "note": 52,
      "start": 36.0653,
      "duration": 0.1301,
      "velocity": 127,
      "chip": "ym2612"
    },
    {
      "channel": 1,
      "note": 32,
      "start": 36.1941,
      "duration": 0.381,
      "velocity": 95,
      "chip": "ym2612"
    },
    {
      "channel": 4,
      "note": 80,
      "start": 36.1953,
      "duration": 0.3812,
      "velocity": 100,
      "chip": "ym2612"
    },
    {
      "channel": 5,
      "note": 52,
      "start": 36.1959,
      "duration": 0.123,
      "velocity": 127,
      "chip": "ym2612"
    },
    {
      "channel": 2,
      "note": 72,
      "start": 36.1966,
      "duration": 0.3749,
      "velocity": 120,
      "chip": "ym2612"
    },
    {
      "channel": 5,
      "note": 52,
      "start": 36.3193,
      "duration": 0.1266,
      "velocity": 127,
      "chip": "ym2612"
    },
    {
      "channel": 5,
      "note": 52,
      "start": 36.4464,
      "duration": 0.1309,
      "velocity": 127,
      "chip": "ym2612"
    },
    {
      "channel": 0,
      "note": 68,
      "start": 36.5749,
      "duration": 0.7613,
      "velocity": 111,
      "chip": "ym2612"
    },
    {
      "channel": 1,
      "note": 25,
      "start": 36.5756,
      "duration": 0.3802,
      "velocity": 95,
      "chip": "ym2612"
    },
    {
      "channel": 3,
      "note": 64,
      "start": 36.5764,
      "duration": 0.7614,
      "velocity": 111,
      "chip": "ym2612"
    },
    {
      "channel": 4,
      "note": 76,
      "start": 36.5772,
      "duration": 0.7613,
      "velocity": 100,
      "chip": "ym2612"
    },
    {
      "channel": 5,
      "note": 49,
      "start": 36.5779,
      "duration": 0.3794,
      "velocity": 127,
      "chip": "ym2612"
    },
    {
      "channel": 2,
      "note": 30,
      "start": 36.5788,
      "duration": 0.2486,
      "velocity": 119,
      "chip": "ym2612"
    },
    {
      "channel": 1,
      "note": 25,
      "start": 36.9564,
      "duration": 0.3807,
      "velocity": 95,
      "chip": "ym2612"
    },
    {
      "channel": 5,
      "note": 49,
      "start": 36.9577,
      "duration": 0.1232,
      "velocity": 127,
      "chip": "ym2612"
    },
    {
      "channel": 2,
      "note": 72,
      "start": 36.9585,
      "duration": 0.3749,
      "velocity": 120,
      "chip": "ym2612"
    },
    {
      "channel": 5,
      "note": 49,
      "start": 37.0814,
      "duration": 0.1265,
      "velocity": 127,
      "chip": "ym2612"
    },
    {
      "channel": 5,
      "note": 49,
      "start": 37.2083,
      "duration": 0.1309,
      "velocity": 127,
      "chip": "ym2612"
    },
    {
      "channel": 0,
      "note": 64,
      "start": 37.3368,
      "duration": 0.3804,
      "velocity": 111,
      "chip": "ym2612"
    },
    {
      "channel": 1,
      "note": 25,
      "start": 37.3376,
      "duration": 0.3805,
      "velocity": 95,
      "chip": "ym2612"
    },
    {
      "channel": 3,
      "note": 61,
      "start": 37.3384,
      "duration": 0.3804,
      "velocity": 111,
      "chip": "ym2612"
    },
    {
      "channel": 4,
      "note": 73,
      "start": 37.3391,
      "duration": 1.9037,
      "velocity": 100,
      "chip": "ym2612"
    },
    {
      "channel": 5,
      "note": 49,
      "start": 37.3397,
      "duration": 0.3802,
      "velocity": 127,
      "chip": "ym2612"
    },
    {
      "channel": 2,
      "note": 72,
      "start": 37.3405,
      "duration": 0.374,
      "velocity": 120,
      "chip": "ym2612"
    },
    {
      "channel": 0,
      "note": 68,
      "start": 37.7178,
      "duration": 0.3806,
      "velocity": 111,
      "chip": "ym2612"
    },
    {
      "channel": 1,
      "note": 25,
      "start": 37.7186,
      "duration": 0.3806,
      "velocity": 95,
      "chip": "ym2612"
    },
    {
      "channel": 3,
      "note": 64,
      "start": 37.7193,
      "duration": 0.3806,
      "velocity": 111,
      "chip": "ym2612"
    },
    {
      "channel": 5,
      "note": 49,
      "start": 37.7203,
      "duration": 0.1227,
      "velocity": 127,
      "chip": "ym2612"
    },
    {
      "channel": 2,
      "note": 72,
      "start": 37.7211,
      "duration": 0.3746,
      "velocity": 120,
      "chip": "ym2612"
    },
    {
      "channel": 5,
      "note": 49,
      "start": 37.8434,
      "duration": 0.1265,
      "velocity": 127,
      "chip": "ym2612"
    },
    {
      "channel": 5,
      "note": 49,
      "start": 37.9704,
      "duration": 0.1307,
      "velocity": 127,
      "chip": "ym2612"
    },
    {
      "channel": 0,
      "note": 68,
      "start": 38.099,
      "duration": 0.3804,
      "velocity": 111,
      "chip": "ym2612"
    },
    {
      "channel": 1,
      "note": 25,
      "start": 38.0998,
      "duration": 0.3804,
      "velocity": 95,
      "chip": "ym2612"
    },
    {
      "channel": 3,
      "note": 64,
      "start": 38.1005,
      "duration": 0.3804,
      "velocity": 111,
      "chip": "ym2612"
    },
    {
      "channel": 5,
      "note": 49,
      "start": 38.1015,
      "duration": 0.3805,
      "velocity": 127,
      "chip": "ym2612"
    },
    {
      "channel": 2,
      "note": 30,
      "start": 38.1023,
      "duration": 0.2491,
      "velocity": 119,
      "chip": "ym2612"
    },
    {
      "channel": 0,
      "note": 73,
      "start": 38.48,
      "duration": 0.3803,
      "velocity": 111,
      "chip": "ym2612"
    },
    {
      "channel": 1,
      "note": 25,
      "start": 38.4808,
      "duration": 0.3803,
      "velocity": 95,
      "chip": "ym2612"
    },
    {
      "channel": 3,
      "note": 68,
      "start": 38.4815,
      "duration": 0.3804,
      "velocity": 111,
      "chip": "ym2612"
    },
    {
      "channel": 5,
      "note": 49,
      "start": 38.4824,
      "duration": 0.1225,
      "velocity": 127,
      "chip": "ym2612"
    },
    {
      "channel": 2,
      "note": 72,
      "start": 38.4832,
      "duration": 0.3742,
      "velocity": 120,
      "chip": "ym2612"
    },
    {
      "channel": 5,
      "note": 49,
      "start": 38.6054,
      "duration": 0.1266,
      "velocity": 127,
      "chip": "ym2612"
    },
    {
      "channel": 5,
      "note": 49,
      "start": 38.7324,
      "duration": 0.1305,
      "velocity": 127,
      "chip": "ym2612"
    },
    {
      "channel": 0,
      "note": 73,
      "start": 38.8609,
      "duration": 0.5682,
      "velocity": 111,
      "chip": "ym2612"
    },
    {
      "channel": 1,
      "note": 25,
      "start": 38.8617,
      "duration": 0.3801,
      "velocity": 95,
      "chip": "ym2612"
    },
    {
      "channel": 3,
      "note": 68,
      "start": 38.8625,
      "duration": 0.5677,
      "velocity": 111,
      "chip": "ym2612"
    },
    {
      "channel": 5,
      "note": 49,
      "start": 38.8634,
      "duration": 0.3802,
      "velocity": 127,
      "chip": "ym2612"
    },
    {
      "channel": 2,
      "note": 72,
      "start": 38.8642,
      "duration": 0.3744,
      "velocity": 120,
      "chip": "ym2612"
    },
    {
      "channel": 1,
      "note": 25,
      "start": 39.2424,
      "duration": 0.3808,
      "velocity": 95,
      "chip": "ym2612"
    },
    {
      "channel": 4,
      "note": 71,
      "start": 39.2434,
      "duration": 0.381,
      "velocity": 100,
      "chip": "ym2612"
    },
    {
      "channel": 5,
      "note": 49,
      "start": 39.244,
      "duration": 0.3811,
      "velocity": 127,
      "chip": "ym2612"
    },
    {
      "channel": 2,
      "note": 72,
      "start": 39.2448,
      "duration": 0.3748,
      "velocity": 120,
      "chip": "ym2612"
    },
    {
      "channel": 0,
      "note": 71,
      "start": 39.4297,
      "duration": 0.1926,
      "velocity": 111,
      "chip": "ym2612"
    },
    {
      "channel": 3,
      "note": 68,
      "start": 39.4306,
      "duration": 0.1933,
      "velocity": 111,
      "chip": "ym2612"
    },
    {
      "channel": 0,
      "note": 71,
      "start": 39.623,
      "duration": 1.5236,
      "velocity": 111,
      "chip": "ym2612"
    },
    {
      "channel": 1,
      "note": 27,
      "start": 39.6238,
      "duration": 0.38,
      "velocity": 95,
      "chip": "ym2612"
    },
    {
      "channel": 3,
      "note": 68,
      "start": 39.6244,
      "duration": 1.5237,
      "velocity": 111,
      "chip": "ym2612"
    },
    {
      "channel": 4,
      "note": 71,
      "start": 39.6249,
      "duration": 0.7613,
      "velocity": 100,
      "chip": "ym2612"
    },
    {
      "channel": 5,
      "note": 51,
      "start": 39.6257,
      "duration": 0.3795,
      "velocity": 127,
      "chip": "ym2612"
    },
    {
      "channel": 2,
      "note": 30,
      "start": 39.6265,
      "duration": 0.2489,
      "velocity": 119,
      "chip": "ym2612"
    },
    {
      "channel": 1,
      "note": 27,
      "start": 40.0043,
      "duration": 0.3809,
      "velocity": 95,
      "chip": "ym2612"
    },
    {
      "channel": 5,
      "note": 51,
      "start": 40.0056,
      "duration": 0.1234,
      "velocity": 127,
      "chip": "ym2612"
    },
    {
      "channel": 2,
      "note": 72,
      "start": 40.0064,
      "duration": 0.3756,
      "velocity": 120,
      "chip": "ym2612"
    },
    {
      "channel": 5,
      "note": 51,
      "start": 40.1295,
      "duration": 0.1266,
      "velocity": 127,
      "chip": "ym2612"
    },
    {
      "channel": 5,
      "note": 51,
      "start": 40.2565,
      "duration": 0.1305,
      "velocity": 127,
      "chip": "ym2612"
    },
    {
      "channel": 1,
      "note": 27,
      "start": 40.3858,
      "duration": 0.38,
      "velocity": 95,
      "chip": "ym2612"
    },
    {
      "channel": 4,
      "note": 68,
      "start": 40.3869,
      "duration": 0.38,
      "velocity": 100,
      "chip": "ym2612"
    },
    {
      "channel": 5,
      "note": 51,
      "start": 40.3875,
      "duration": 0.3801,
      "velocity": 127,
      "chip": "ym2612"
    },
    {
      "channel": 2,
      "note": 72,
      "start": 40.3882,
      "duration": 0.3743,
      "velocity": 120,
      "chip": "ym2612"
    },
    {
      "channel": 1,
      "note": 27,
      "start": 40.7663,
      "duration": 0.381,
      "velocity": 95,
      "chip": "ym2612"
    },
    {
      "channel": 4,
      "note": 71,
      "start": 40.7675,
      "duration": 0.3813,
      "velocity": 100,
      "chip": "ym2612"
    },
    {
      "channel": 5,
      "note": 51,
      "start": 40.7681,
      "duration": 0.123,
      "velocity": 127,
      "chip": "ym2612"
    },
    {
      "channel": 2,
      "note": 72,
      "start": 40.7688,
      "duration": 0.3749,
      "velocity": 120,
      "chip": "ym2612"
    },
    {
      "channel": 5,
      "note": 51,
      "start": 40.8915,
      "duration": 0.1265,
      "velocity": 127,
      "chip": "ym2612"
    },
    {
      "channel": 5,
      "note": 51,
      "start": 41.0184,
      "duration": 0.1312,
      "velocity": 127,
      "chip": "ym2612"
    },
    {
      "channel": 0,
      "note": 68,
      "start": 41.1471,
      "duration": 1.5233,
      "velocity": 111,
      "chip": "ym2612"
    },
    {
      "channel": 1,
      "note": 27,
      "start": 41.1479,
      "duration": 0.38,
      "velocity": 95,
      "chip": "ym2612"
    },
    {
      "channel": 3,
      "note": 63,
      "start": 41.1487,
      "duration": 1.5233,
      "velocity": 111,
      "chip": "ym2612"
    },
    {
      "channel": 4,
      "note": 71,
      "start": 41.1494,
      "duration": 0.3796,
      "velocity": 100,
      "chip": "ym2612"
    },
    {
      "channel": 5,
      "note": 51,
      "start": 41.15,
      "duration": 0.3798,
      "velocity": 127,
      "chip": "ym2612"
    },
    {
      "channel": 2,
      "note": 30,
      "start": 41.1508,
      "duration": 0.2486,
      "velocity": 119,
      "chip": "ym2612"
    },
    {
      "channel": 1,
      "note": 27,
      "start": 41.5285,
      "duration": 0.3803,
      "velocity": 95,
      "chip": "ym2612"
    },
    {
      "channel": 4,
      "note": 73,
      "start": 41.5296,
      "duration": 0.3802,
      "velocity": 100,
      "chip": "ym2612"
    },
    {
      "channel": 5,
      "note": 51,
      "start": 41.5302,
      "duration": 0.1228,
      "velocity": 127,
      "chip": "ym2612"
    },
    {
      "channel": 2,
      "note": 72,
      "start": 41.5309,
      "duration": 0.3746,
      "velocity": 120,
      "chip": "ym2612"
    },
    {
      "channel": 5,
      "note": 51,
      "start": 41.6534,
      "duration": 0.1267,
      "velocity": 127,
      "chip": "ym2612"
    },
    {
      "channel": 5,
      "note": 51,
      "start": 41.7806,
      "duration": 0.13,
      "velocity": 127,
      "chip": "ym2612"
    },
    {
      "channel": 1,
      "note": 27,
      "start": 41.9094,
      "duration": 0.3805,
      "velocity": 95,
      "chip": "ym2612"
    },
    {
      "channel": 4,
      "note": 73,
      "start": 41.9104,
      "duration": 0.5678,
      "velocity": 100,
      "chip": "ym2612"
    },
    {
      "channel": 5,
      "note": 51,
      "start": 41.911,
      "duration": 0.123,
      "velocity": 127,
      "chip": "ym2612"
    },
    {
      "channel": 2,
      "note": 72,
      "start": 41.9118,
      "duration": 0.3747,
      "velocity": 120,
      "chip": "ym2612"
    },
    {
      "channel": 5,
      "note": 51,
      "start": 42.0345,
      "duration": 0.1266,
      "velocity": 127,
      "chip": "ym2612"
    },
    {
      "channel": 5,
      "note": 51,
      "start": 42.1616,
      "duration": 0.1296,
      "velocity": 127,
      "chip": "ym2612"
    },
    {
      "channel": 1,
      "note": 27,
      "start": 42.2904,
      "duration": 0.3808,
      "velocity": 95,
      "chip": "ym2612"
    },
    {
      "channel": 5,
      "note": 51,
      "start": 42.2917,
      "duration": 0.1234,
      "velocity": 127,
      "chip": "ym2612"
    },
    {
      "channel": 2,
      "note": 72,
      "start": 42.2924,
      "duration": 0.3752,
      "velocity": 120,
      "chip": "ym2612"
    },
    {
      "channel": 5,
      "note": 51,
      "start": 42.4155,
      "duration": 0.1265,
      "velocity": 127,
      "chip": "ym2612"
    },
    {
      "channel": 4,
      "note": 71,
      "start": 42.4789,
      "duration": 0.1938,
      "velocity": 100,
      "chip": "ym2612"
    },
    {
      "channel": 5,
      "note": 51,
      "start": 42.5425,
      "duration": 0.131,
      "velocity": 127,
      "chip": "ym2612"
    },
    {
      "channel": 0,
      "note": 71,
      "start": 42.671,
      "duration": 1.5235,
      "velocity": 111,
      "chip": "ym2612"
    },
    {
      "channel": 1,
      "note": 28,
      "start": 42.6718,
      "duration": 0.38,
      "velocity": 95,
      "chip": "ym2612"
    },
    {
      "channel": 3,
      "note": 64,
      "start": 42.6725,
      "duration": 1.5236,
      "velocity": 111,
      "chip": "ym2612"
    },
    {
      "channel": 4,
      "note": 71,
      "start": 42.6733,
      "duration": 1.5236,
      "velocity": 100,
      "chip": "ym2612"
    },
    {
      "channel": 5,
      "note": 52,
      "start": 42.6741,
      "duration": 0.3792,
      "velocity": 127,
      "chip": "ym2612"
    },
    {
      "channel": 2,
      "note": 30,
      "start": 42.6749,
      "duration": 0.2486,
      "velocity": 119,
      "chip": "ym2612"
    },
    {
      "channel": 1,
      "note": 28,
      "start": 43.0524,
      "duration": 0.3805,
      "velocity": 95,
      "chip": "ym2612"
    },
    {
      "channel": 5,
      "note": 52,
      "start": 43.0537,
      "duration": 0.1234,
      "velocity": 127,
      "chip": "ym2612"
    },
    {
      "channel": 2,
      "note": 72,
      "start": 43.0545,
      "duration": 0.3751,
      "velocity": 120,
      "chip": "ym2612"
    },
    {
      "channel": 5,
      "note": 52,
      "start": 43.1775,
      "duration": 0.1266,
      "velocity": 127,
      "chip": "ym2612"
    },
    {
      "channel": 5,
      "note": 52,
      "start": 43.3045,
      "duration": 0.1298,
      "velocity": 127,
      "chip": "ym2612"
    },
    {
      "channel": 1,
      "note": 28,
      "start": 43.4334,
      "duration": 0.3805,
      "velocity": 95,
      "chip": "ym2612"
    },
    {
      "channel": 5,
      "note": 52,
      "start": 43.4347,
      "duration": 0.3806,
      "velocity": 127,
      "chip": "ym2612"
    },
    {
      "channel": 2,
      "note": 72,
      "start": 43.4355,
      "duration": 0.3751,
      "velocity": 120,
      "chip": "ym2612"
    },
    {
      "channel": 1,
      "note": 28,
      "start": 43.8144,
      "duration": 0.381,
      "velocity": 95,
      "chip": "ym2612"
    },
    {
      "channel": 5,
      "note": 52,
      "start": 43.8158,
      "duration": 0.1234,
      "velocity": 127,
      "chip": "ym2612"
    },
    {
      "channel": 2,
      "note": 72,
      "start": 43.8166,
      "duration": 0.3752,
      "velocity": 120,
      "chip": "ym2612"
    },
    {
      "channel": 5,
      "note": 52,
      "start": 43.9396,
      "duration": 0.1265,
      "velocity": 127,
      "chip": "ym2612"
    },
    {
      "channel": 5,
      "note": 52,
      "start": 44.0665,
      "duration": 0.1312,
      "velocity": 127,
      "chip": "ym2612"
    },
    {
      "channel": 0,
      "note": 73,
      "start": 44.1952,
      "duration": 1.5234,
      "velocity": 111,
      "chip": "ym2612"
    },
    {
      "channel": 1,
      "note": 28,
      "start": 44.196,
      "duration": 0.3799,
      "velocity": 95,
      "chip": "ym2612"
    },
    {
      "channel": 3,
      "note": 64,
      "start": 44.1967,
      "duration": 1.5234,
      "velocity": 111,
      "chip": "ym2612"
    },
    {
      "channel": 4,
      "note": 70,
      "start": 44.1975,
      "duration": 0.7606,
      "velocity": 100,
      "chip": "ym2612"
    },
    {
      "channel": 5,
      "note": 52,
      "start": 44.1981,
      "duration": 0.3793,
      "velocity": 127,
      "chip": "ym2612"
    },
    {
      "channel": 2,
      "note": 30,
      "start": 44.1989,
      "duration": 0.2487,
      "velocity": 119,
      "chip": "ym2612"
    },
    {
      "channel": 1,
      "note": 28,
      "start": 44.5765,
      "duration": 0.3805,
      "velocity": 95,
      "chip": "ym2612"
    },
    {
      "channel": 5,
      "note": 52,
      "start": 44.5778,
      "duration": 0.1234,
      "velocity": 127,
      "chip": "ym2612"
    },
    {
      "channel": 2,
      "note": 72,
      "start": 44.5786,
      "duration": 0.3751,
      "velocity": 120,
      "chip": "ym2612"
    },
    {
      "channel": 5,
      "note": 52,
      "start": 44.7016,
      "duration": 0.1265,
      "velocity": 127,
      "chip": "ym2612"
    },
    {
      "channel": 5,
      "note": 52,
      "start": 44.8286,
      "duration": 0.1301,
      "velocity": 127,
      "chip": "ym2612"
    },
    {
      "channel": 1,
      "note": 28,
      "start": 44.9575,
      "duration": 0.3804,
      "velocity": 95,
      "chip": "ym2612"
    },
    {
      "channel": 4,
      "note": 71,
      "start": 44.9586,
      "duration": 0.7622,
      "velocity": 100,
      "chip": "ym2612"
    },
    {
      "channel": 5,
      "note": 52,
      "start": 44.9592,
      "duration": 0.3801,
      "velocity": 127,
      "chip": "ym2612"
    },
    {
      "channel": 2,
      "note": 72,
      "start": 44.9599,
      "duration": 0.3747,
      "velocity": 120,
      "chip": "ym2612"
    },
    {
      "channel": 1,
      "note": 28,
      "start": 45.3385,
      "duration": 0.3808,
      "velocity": 95,
      "chip": "ym2612"
    },
    {
      "channel": 5,
      "note": 52,
      "start": 45.3398,
      "duration": 0.3818,
      "velocity": 127,
      "chip": "ym2612"
    },
    {
      "channel": 2,
      "note": 72,
      "start": 45.3405,
      "duration": 0.3752,
      "velocity": 120,
      "chip": "ym2612"
    },
    {
      "channel": 0,
      "note": 75,
      "start": 45.7192,
      "duration": 1.5233,
      "velocity": 111,
      "chip": "ym2612"
    },
    {
      "channel": 1,
      "note": 30,
      "start": 45.7199,
      "duration": 0.38,
      "velocity": 95,
      "chip": "ym2612"
    },
    {
      "channel": 3,
      "note": 66,
      "start": 45.7207,
      "duration": 1.5233,
      "velocity": 111,
      "chip": "ym2612"
    },
    {
      "channel": 4,
      "note": 73,
      "start": 45.7215,
      "duration": 3.0579,
      "velocity": 100,
      "chip": "ym2612"
    },
    {
      "channel": 5,
      "note": 54,
      "start": 45.7222,
      "duration": 0.3791,
      "velocity": 127,
      "chip": "ym2612"
    },
    {
      "channel": 2,
      "note": 30,
      "start": 45.723,
      "duration": 0.2485,
      "velocity": 119,
      "chip": "ym2612"
    },
    {
      "channel": 1,
      "note": 30,
      "start": 46.1005,
      "duration": 0.3805,
      "velocity": 95,
      "chip": "ym2612"
    },
    {
      "channel": 5,
      "note": 54,
      "start": 46.1017,
      "duration": 0.1235,
      "velocity": 127,
      "chip": "ym2612"
    },
    {
      "channel": 2,
      "note": 72,
      "start": 46.1025,
      "duration": 0.3752,
      "velocity": 120,
      "chip": "ym2612"
    },
    {
      "channel": 5,
      "note": 54,
      "start": 46.2256,
      "duration": 0.1265,
      "velocity": 127,
      "chip": "ym2612"
    },
    {
      "channel": 5,
      "note": 54,
      "start": 46.3526,
      "duration": 0.1297,
      "velocity": 127,
      "chip": "ym2612"
    },
    {
      "channel": 1,
      "note": 30,
      "start": 46.4815,
      "duration": 0.3805,
      "velocity": 95,
      "chip": "ym2612"
    },
    {
      "channel": 5,
      "note": 54,
      "start": 46.4828,
      "duration": 0.3806,
      "velocity": 127,
      "chip": "ym2612"
    },
    {
      "channel": 2,
      "note": 72,
      "start": 46.4835,
      "duration": 0.3752,
      "velocity": 120,
      "chip": "ym2612"
    },
    {
      "channel": 1,
      "note": 30,
      "start": 46.8625,
      "duration": 0.3807,
      "velocity": 95,
      "chip": "ym2612"
    },
    {
      "channel": 5,
      "note": 54,
      "start": 46.8638,
      "duration": 0.1233,
      "velocity": 127,
      "chip": "ym2612"
    },
    {
      "channel": 2,
      "note": 72,
      "start": 46.8646,
      "duration": 0.3751,
      "velocity": 120,
      "chip": "ym2612"
    },
    {
      "channel": 5,
      "note": 54,
      "start": 46.9875,
      "duration": 0.1267,
      "velocity": 127,
      "chip": "ym2612"
    },
    {
      "channel": 5,
      "note": 54,
      "start": 47.1146,
      "duration": 0.1304,
      "velocity": 127,
      "chip": "ym2612"
    },
    {
      "channel": 0,
      "note": 73,
      "start": 47.2431,
      "duration": 1.5261,
      "velocity": 111,
      "chip": "ym2612"
    },
    {
      "channel": 1,
      "note": 30,
      "start": 47.2438,
      "duration": 0.38,
      "velocity": 95,
      "chip": "ym2612"
    },
    {
      "channel": 3,
      "note": 66,
      "start": 47.2445,
      "duration": 1.5313,
      "velocity": 111,
      "chip": "ym2612"
    },
    {
      "channel": 5,
      "note": 54,
      "start": 47.2456,
      "duration": 0.3797,
      "velocity": 127,
      "chip": "ym2612"
    },
    {
      "channel": 2,
      "note": 30,
      "start": 47.2464,
      "duration": 0.2493,
      "velocity": 119,
      "chip": "ym2612"
    },
    {
      "channel": 1,
      "note": 29,
      "start": 47.6244,
      "duration": 0.3805,
      "velocity": 95,
      "chip": "ym2612"
    },
    {
      "channel": 5,
      "note": 54,
      "start": 47.6257,
      "duration": 0.1234,
      "velocity": 127,
      "chip": "ym2612"
    },
    {
      "channel": 2,
      "note": 72,
      "start": 47.6265,
      "duration": 0.3753,
      "velocity": 120,
      "chip": "ym2612"
    },
    {
      "channel": 5,
      "note": 54,
      "start": 47.7496,
      "duration": 0.1266,
      "velocity": 127,
      "chip": "ym2612"
    },
    {
      "channel": 5,
      "note": 54,
      "start": 47.8767,
      "duration": 0.1296,
      "velocity": 127,
      "chip": "ym2612"
    },
    {
      "channel": 1,
      "note": 30,
      "start": 48.0055,
      "duration": 0.3805,
      "velocity": 95,
      "chip": "ym2612"
    },
    {
      "channel": 5,
      "note": 54,
      "start": 48.0068,
      "duration": 0.1235,
      "velocity": 127,
      "chip": "ym2612"
    },
    {
      "channel": 2,
      "note": 72,
      "start": 48.0075,
      "duration": 0.3753,
      "velocity": 120,
      "chip": "ym2612"
    },
    {
      "channel": 5,
      "note": 54,
      "start": 48.1307,
      "duration": 0.1265,
      "velocity": 127,
      "chip": "ym2612"
    },
    {
      "channel": 5,
      "note": 54,
      "start": 48.2576,
      "duration": 0.1298,
      "velocity": 127,
      "chip": "ym2612"
    },
    {
      "channel": 1,
      "note": 28,
      "start": 48.3865,
      "duration": 0.3859,
      "velocity": 95,
      "chip": "ym2612"
    },
    {
      "channel": 5,
      "note": 54,
      "start": 48.3878,
      "duration": 0.1233,
      "velocity": 127,
      "chip": "ym2612"
    },
    {
      "channel": 2,
      "note": 72,
      "start": 48.3885,
      "duration": 0.3753,
      "velocity": 120,
      "chip": "ym2612"
    },
    {
      "channel": 5,
      "note": 54,
      "start": 48.5116,
      "duration": 0.1266,
      "velocity": 127,
      "chip": "ym2612"
    },
    {
      "channel": 5,
      "note": 54,
      "start": 48.6386,
      "duration": 0.1441,
      "velocity": 127,
      "chip": "ym2612"
    },
    {
      "channel": 0,
      "note": 71,
      "start": 48.7698,
      "duration": 1.5058,
      "velocity": 111,
      "chip": "ym2612"
    },
    {
      "channel": 1,
      "note": 35,
      "start": 48.773,
      "duration": 0.3749,
      "velocity": 95,
      "chip": "ym2612"
    },
    {
      "channel": 3,
      "note": 66,
      "start": 48.7764,
      "duration": 1.4992,
      "velocity": 111,
      "chip": "ym2612"
    },
    {
      "channel": 4,
      "note": 71,
      "start": 48.78,
      "duration": 0.75,
      "velocity": 100,
      "chip": "ym2612"
    },
    {
      "channel": 5,
      "note": 47,
      "start": 48.7833,
      "duration": 0.366,
      "velocity": 127,
      "chip": "ym2612"
    },
    {
      "channel": 2,
      "note": 30,
      "start": 48.7842,
      "duration": 0.2354,
      "velocity": 119,
      "chip": "ym2612"
    },
    {
      "channel": 1,
      "note": 35,
      "start": 49.1485,
      "duration": 0.3805,
      "velocity": 95,
      "chip": "ym2612"
    },
    {
      "channel": 5,
      "note": 47,
      "start": 49.1498,
      "duration": 0.1234,
      "velocity": 127,
      "chip": "ym2612"
    },
    {
      "channel": 2,
      "note": 72,
      "start": 49.1506,
      "duration": 0.3752,
      "velocity": 120,
      "chip": "ym2612"
    },
    {
      "channel": 5,
      "note": 47,
      "start": 49.2737,
      "duration": 0.1266,
      "velocity": 127,
      "chip": "ym2612"
    },
    {
      "channel": 5,
      "note": 47,
      "start": 49.4007,
      "duration": 0.1301,
      "velocity": 127,
      "chip": "ym2612"
    },
    {
      "channel": 1,
      "note": 35,
      "start": 49.5296,
      "duration": 0.3803,
      "velocity": 95,
      "chip": "ym2612"
    },
    {
      "channel": 4,
      "note": 70,
      "start": 49.5307,
      "duration": 0.3804,
      "velocity": 100,
      "chip": "ym2612"
    },
    {
      "channel": 5,
      "note": 47,
      "start": 49.5312,
      "duration": 0.3805,
      "velocity": 127,
      "chip": "ym2612"
    },
    {
      "channel": 2,
      "note": 72,
      "start": 49.532,
      "duration": 0.3748,
      "velocity": 120,
      "chip": "ym2612"
    },
    {
      "channel": 1,
      "note": 35,
      "start": 49.9105,
      "duration": 0.3651,
      "velocity": 95,
      "chip": "ym2612"
    },
    {
      "channel": 4,
      "note": 71,
      "start": 49.9116,
      "duration": 0.364,
      "velocity": 100,
      "chip": "ym2612"
    },
    {
      "channel": 5,
      "note": 47,
      "start": 49.9123,
      "duration": 0.1229,
      "velocity": 127,
      "chip": "ym2612"
    },
    {
      "channel": 2,
      "note": 72,
      "start": 49.913,
      "duration": 0.3626,
      "velocity": 120,
      "chip": "ym2612"
    },
    {
      "channel": 5,
      "note": 47,
      "start": 50.0357,
      "duration": 0.1267,
      "velocity": 127,
      "chip": "ym2612"
    },
    {
      "channel": 5,
      "note": 47,
      "start": 50.1628,
      "duration": 0.1128,
      "velocity": 127,
      "chip": "ym2612"
    }
  ]
}