{
  "track_name": "13 - Garden",
  "duration_sec": 54.332,
  "sample_rate": 44100,
  "note_count": 569,
  "unique_pitches": 41,
  "pitch_range": 76,
  "avg_note_duration": 0.5037,
  "reconstruction_stats": {
    "notes_reconstructed": 569,
    "keyon_events": 569,
    "keyoff_events": 563,
    "orphan_keyons": 6,
    "unique_pitches": 41,
    "pitch_range": 76,
    "avg_duration_sec": 0.5037
  },
  "metadata": {
    "source": "M\\Mickey Mania\\13 - Garden.vgz"
  },
  "notes": [
    {
      "channel": 0,
      "note": 69,
      "start": 0.1032,
      "duration": 0.1962,
      "velocity": 92,
      "chip": "ym2612"
    },
    {
      "channel": 2,
      "note": 105,
      "start": 0.1068,
      "duration": 0.1962,
      "velocity": 95,
      "chip": "ym2612"
    },
    {
      "channel": 0,
      "note": 64,
      "start": 0.2996,
      "duration": 0.1991,
      "velocity": 92,
      "chip": "ym2612"
    },
    {
      "channel": 2,
      "note": 100,
      "start": 0.3033,
      "duration": 0.1991,
      "velocity": 95,
      "chip": "ym2612"
    },
    {
      "channel": 1,
      "note": 69,
      "start": 0.4022,
      "duration": 0.1963,
      "velocity": 92,
      "chip": "ym2612"
    },
    {
      "channel": 0,
      "note": 66,
      "start": 0.499,
      "duration": 0.2988,
      "velocity": 92,
      "chip": "ym2612"
    },
    {
      "channel": 2,
      "note": 102,
      "start": 0.5026,
      "duration": 0.2968,
      "velocity": 95,
      "chip": "ym2612"
    },
    {
      "channel": 1,
      "note": 64,
      "start": 0.5988,
      "duration": 0.1999,
      "velocity": 92,
      "chip": "ym2612"
    },
    {
      "channel": 0,
      "note": 62,
      "start": 0.798,
      "duration": 0.0994,
      "velocity": 92,
      "chip": "ym2612"
    },
    {
      "channel": 1,
      "note": 66,
      "start": 0.7989,
      "duration": 0.2988,
      "velocity": 92,
      "chip": "ym2612"
    },
    {
      "channel": 2,
      "note": 98,
      "start": 0.7997,
      "duration": 0.0986,
      "velocity": 95,
      "chip": "ym2612"
    },
    {
      "channel": 0,
      "note": 64,
      "start": 0.8977,
      "duration": 0.1991,
      "velocity": 92,
      "chip": "ym2612"
    },
    {
      "channel": 2,
      "note": 100,
      "start": 0.8986,
      "duration": 0.1998,
      "velocity": 95,
      "chip": "ym2612"
    },
    {
      "channel": 0,
      "note": 60,
      "start": 1.0971,
      "duration": 0.7971,
      "velocity": 92,
      "chip": "ym2612"
    },
    {
      "channel": 1,
      "note": 62,
      "start": 1.0979,
      "duration": 0.0986,
      "velocity": 92,
      "chip": "ym2612"
    },
    {
      "channel": 2,
      "note": 96,
      "start": 1.0988,
      "duration": 0.7964,
      "velocity": 95,
      "chip": "ym2612"
    },
    {
      "channel": 1,
      "note": 64,
      "start": 1.1969,
      "duration": 0.199,
      "velocity": 92,
      "chip": "ym2612"
    },
    {
      "channel": 1,
      "note": 60,
      "start": 1.3962,
      "duration": 0.7972,
      "velocity": 92,
      "chip": "ym2612"
    },
    {
      "channel": 0,
      "note": 64,
      "start": 1.8945,
      "duration": 0.1991,
      "velocity": 92,
      "chip": "ym2612"
    },
    {
      "channel": 2,
      "note": 100,
      "start": 1.8954,
      "duration": 0.1991,
      "velocity": 95,
      "chip": "ym2612"
    },
    {
      "channel": 0,
      "note": 66,
      "start": 2.0939,
      "duration": 0.2988,
      "velocity": 92,
      "chip": "ym2612"
    },
    {
      "channel": 2,
      "note": 102,
      "start": 2.0948,
      "duration": 0.2995,
      "velocity": 95,
      "chip": "ym2612"
    },
    {
      "channel": 1,
      "note": 64,
      "start": 2.1937,
      "duration": 0.1998,
      "velocity": 92,
      "chip": "ym2612"
    },
    {
      "channel": 0,
      "note": 62,
      "start": 2.393,
      "duration": 0.0994,
      "velocity": 92,
      "chip": "ym2612"
    },
    {
      "channel": 1,
      "note": 66,
      "start": 2.3938,
      "duration": 0.2988,
      "velocity": 92,
      "chip": "ym2612"
    },
    {
      "channel": 2,
      "note": 98,
      "start": 2.3946,
      "duration": 0.0987,
      "velocity": 95,
      "chip": "ym2612"
    },
    {
      "channel": 0,
      "note": 64,
      "start": 2.4927,
      "duration": 0.1991,
      "velocity": 92,
      "chip": "ym2612"
    },
    {
      "channel": 2,
      "note": 100,
      "start": 2.4936,
      "duration": 0.1998,
      "velocity": 95,
      "chip": "ym2612"
    },
    {
      "channel": 0,
      "note": 72,
      "start": 2.692,
      "duration": 0.5978,
      "velocity": 92,
      "chip": "ym2612"
    },
    {
      "channel": 1,
      "note": 62,
      "start": 2.6929,
      "duration": 0.0986,
      "velocity": 92,
      "chip": "ym2612"
    },
    {
      "channel": 2,
      "note": 108,
      "start": 2.6937,
      "duration": 0.597,
      "velocity": 95,
      "chip": "ym2612"
    },
    {
      "channel": 1,
      "note": 64,
      "start": 2.7918,
      "duration": 0.199,
      "velocity": 92,
      "chip": "ym2612"
    },
    {
      "channel": 1,
      "note": 72,
      "start": 2.9911,
      "duration": 0.5979,
      "velocity": 92,
      "chip": "ym2612"
    },
    {
      "channel": 0,
      "note": 71,
      "start": 3.2901,
      "duration": 0.1991,
      "velocity": 92,
      "chip": "ym2612"
    },
    {
      "channel": 2,
      "note": 107,
      "start": 3.291,
      "duration": 0.1991,
      "velocity": 95,
      "chip": "ym2612"
    },
    {
      "channel": 0,
      "note": 67,
      "start": 3.4895,
      "duration": 0.1991,
      "velocity": 92,
      "chip": "ym2612"
    },
    {
      "channel": 2,
      "note": 103,
      "start": 3.4904,
      "duration": 0.1991,
      "velocity": 95,
      "chip": "ym2612"
    },
    {
      "channel": 1,
      "note": 71,
      "start": 3.5893,
      "duration": 0.1991,
      "velocity": 92,
      "chip": "ym2612"
    },
    {
      "channel": 0,
      "note": 69,
      "start": 3.6888,
      "duration": 0.2988,
      "velocity": 92,
      "chip": "ym2612"
    },
    {
      "channel": 2,
      "note": 105,
      "start": 3.6898,
      "duration": 0.2995,
      "velocity": 95,
      "chip": "ym2612"
    },
    {
      "channel": 1,
      "note": 67,
      "start": 3.7886,
      "duration": 0.1998,
      "velocity": 92,
      "chip": "ym2612"
    },
    {
      "channel": 0,
      "note": 66,
      "start": 3.9879,
      "duration": 0.0994,
      "velocity": 92,
      "chip": "ym2612"
    },
    {
      "channel": 1,
      "note": 69,
      "start": 3.9887,
      "duration": 0.2988,
      "velocity": 92,
      "chip": "ym2612"
    },
    {
      "channel": 2,
      "note": 102,
      "start": 3.9896,
      "duration": 0.0986,
      "velocity": 95,
      "chip": "ym2612"
    },
    {
      "channel": 0,
      "note": 67,
      "start": 4.0876,
      "duration": 0.1991,
      "velocity": 92,
      "chip": "ym2612"
    },
    {
      "channel": 2,
      "note": 103,
      "start": 4.0885,
      "duration": 0.1998,
      "velocity": 95,
      "chip": "ym2612"
    },
    {
      "channel": 0,
      "note": 64,
      "start": 4.287,
      "duration": 0.1991,
      "velocity": 92,
      "chip": "ym2612"
    },
    {
      "channel": 1,
      "note": 66,
      "start": 4.2878,
      "duration": 0.0986,
      "velocity": 92,
      "chip": "ym2612"
    },
    {
      "channel": 2,
      "note": 100,
      "start": 4.2886,
      "duration": 0.1983,
      "velocity": 95,
      "chip": "ym2612"
    },
    {
      "channel": 1,
      "note": 67,
      "start": 4.3867,
      "duration": 0.1991,
      "velocity": 92,
      "chip": "ym2612"
    },
    {
      "channel": 0,
      "note": 66,
      "start": 4.4863,
      "duration": 0.1991,
      "velocity": 92,
      "chip": "ym2612"
    },
    {
      "channel": 2,
      "note": 102,
      "start": 4.4873,
      "duration": 0.1991,
      "velocity": 95,
      "chip": "ym2612"
    },
    {
      "channel": 1,
      "note": 64,
      "start": 4.5861,
      "duration": 0.1991,
      "velocity": 92,
      "chip": "ym2612"
    },
    {
      "channel": 0,
      "note": 62,
      "start": 4.6857,
      "duration": 0.1991,
      "velocity": 92,
      "chip": "ym2612"
    },
    {
      "channel": 2,
      "note": 98,
      "start": 4.6866,
      "duration": 0.1991,
      "velocity": 95,
      "chip": "ym2612"
    },
    {
      "channel": 1,
      "note": 66,
      "start": 4.7854,
      "duration": 0.1991,
      "velocity": 92,
      "chip": "ym2612"
    },
    {
      "channel": 0,
      "note": 64,
      "start": 4.8851,
      "duration": 0.1991,
      "velocity": 92,
      "chip": "ym2612"
    },
    {
      "channel": 2,
      "note": 100,
      "start": 4.886,
      "duration": 0.1991,
      "velocity": 95,
      "chip": "ym2612"
    },
    {
      "channel": 1,
      "note": 62,
      "start": 4.9848,
      "duration": 0.1991,
      "velocity": 92,
      "chip": "ym2612"
    },
    {
      "channel": 0,
      "note": 60,
      "start": 5.0844,
      "duration": 0.4981,
      "velocity": 92,
      "chip": "ym2612"
    },
    {
      "channel": 2,
      "note": 96,
      "start": 5.0853,
      "duration": 0.4981,
      "velocity": 95,
      "chip": "ym2612"
    },
    {
      "channel": 1,
      "note": 64,
      "start": 5.1842,
      "duration": 0.199,
      "velocity": 92,
      "chip": "ym2612"
    },
    {
      "channel": 1,
      "note": 60,
      "start": 5.3835,
      "duration": 0.4989,
      "velocity": 92,
      "chip": "ym2612"
    },
    {
      "channel": 0,
      "note": 62,
      "start": 5.5828,
      "duration": 0.0994,
      "velocity": 92,
      "chip": "ym2612"
    },
    {
      "channel": 2,
      "note": 98,
      "start": 5.5837,
      "duration": 0.0994,
      "velocity": 95,
      "chip": "ym2612"
    },
    {
      "channel": 0,
      "note": 64,
      "start": 5.6825,
      "duration": 0.1991,
      "velocity": 92,
      "chip": "ym2612"
    },
    {
      "channel": 2,
      "note": 100,
      "start": 5.6834,
      "duration": 0.1999,
      "velocity": 95,
      "chip": "ym2612"
    },
    {
      "channel": 0,
      "note": 72,
      "start": 5.8819,
      "duration": 0.6007,
      "velocity": 92,
      "chip": "ym2612"
    },
    {
      "channel": 1,
      "note": 62,
      "start": 5.8827,
      "duration": 0.0986,
      "velocity": 92,
      "chip": "ym2612"
    },
    {
      "channel": 2,
      "note": 108,
      "start": 5.8836,
      "duration": 0.6,
      "velocity": 95,
      "chip": "ym2612"
    },
    {
      "channel": 1,
      "note": 64,
      "start": 5.9817,
      "duration": 0.199,
      "velocity": 92,
      "chip": "ym2612"
    },
    {
      "channel": 1,
      "note": 72,
      "start": 6.181,
      "duration": 0.6006,
      "velocity": 92,
      "chip": "ym2612"
    },
    {
      "channel": 0,
      "note": 69,
      "start": 6.4829,
      "duration": 0.1962,
      "velocity": 92,
      "chip": "ym2612"
    },
    {
      "channel": 2,
      "note": 105,
      "start": 6.4839,
      "duration": 0.1988,
      "velocity": 95,
      "chip": "ym2612"
    },
    {
      "channel": 0,
      "note": 64,
      "start": 6.6793,
      "duration": 0.1991,
      "velocity": 92,
      "chip": "ym2612"
    },
    {
      "channel": 2,
      "note": 100,
      "start": 6.683,
      "duration": 0.1991,
      "velocity": 95,
      "chip": "ym2612"
    },
    {
      "channel": 1,
      "note": 69,
      "start": 6.7819,
      "duration": 0.1963,
      "velocity": 92,
      "chip": "ym2612"
    },
    {
      "channel": 0,
      "note": 66,
      "start": 6.8787,
      "duration": 0.2988,
      "velocity": 92,
      "chip": "ym2612"
    },
    {
      "channel": 2,
      "note": 102,
      "start": 6.8824,
      "duration": 0.2968,
      "velocity": 95,
      "chip": "ym2612"
    },
    {
      "channel": 1,
      "note": 64,
      "start": 6.9785,
      "duration": 0.1998,
      "velocity": 92,
      "chip": "ym2612"
    },
    {
      "channel": 0,
      "note": 62,
      "start": 7.1778,
      "duration": 0.0994,
      "velocity": 92,
      "chip": "ym2612"
    },
    {
      "channel": 1,
      "note": 66,
      "start": 7.1786,
      "duration": 0.2988,
      "velocity": 92,
      "chip": "ym2612"
    },
    {
      "channel": 2,
      "note": 98,
      "start": 7.1795,
      "duration": 0.0986,
      "velocity": 95,
      "chip": "ym2612"
    },
    {
      "channel": 0,
      "note": 64,
      "start": 7.2774,
      "duration": 0.1991,
      "velocity": 92,
      "chip": "ym2612"
    },
    {
      "channel": 2,
      "note": 100,
      "start": 7.2784,
      "duration": 0.1998,
      "velocity": 95,
      "chip": "ym2612"
    },
    {
      "channel": 0,
      "note": 60,
      "start": 7.4768,
      "duration": 0.7971,
      "velocity": 92,
      "chip": "ym2612"
    },
    {
      "channel": 1,
      "note": 62,
      "start": 7.4776,
      "duration": 0.0986,
      "velocity": 92,
      "chip": "ym2612"
    },
    {
      "channel": 2,
      "note": 96,
      "start": 7.4785,
      "duration": 0.7964,
      "velocity": 95,
      "chip": "ym2612"
    },
    {
      "channel": 1,
      "note": 64,
      "start": 7.5766,
      "duration": 0.199,
      "velocity": 92,
      "chip": "ym2612"
    },
    {
      "channel": 1,
      "note": 60,
      "start": 7.7759,
      "duration": 0.7973,
      "velocity": 92,
      "chip": "ym2612"
    },
    {
      "channel": 0,
      "note": 64,
      "start": 8.2742,
      "duration": 0.1991,
      "velocity": 92,
      "chip": "ym2612"
    },
    {
      "channel": 2,
      "note": 100,
      "start": 8.2752,
      "duration": 0.1991,
      "velocity": 95,
      "chip": "ym2612"
    },
    {
      "channel": 0,
      "note": 66,
      "start": 8.4736,
      "duration": 0.2988,
      "velocity": 92,
      "chip": "ym2612"
    },
    {
      "channel": 2,
      "note": 102,
      "start": 8.4745,
      "duration": 0.2996,
      "velocity": 95,
      "chip": "ym2612"
    },
    {
      "channel": 1,
      "note": 64,
      "start": 8.5734,
      "duration": 0.1999,
      "velocity": 92,
      "chip": "ym2612"
    },
    {
      "channel": 0,
      "note": 62,
      "start": 8.7727,
      "duration": 0.0994,
      "velocity": 92,
      "chip": "ym2612"
    },
    {
      "channel": 1,
      "note": 66,
      "start": 8.7735,
      "duration": 0.2988,
      "velocity": 92,
      "chip": "ym2612"
    },
    {
      "channel": 2,
      "note": 98,
      "start": 8.7744,
      "duration": 0.0986,
      "velocity": 95,
      "chip": "ym2612"
    },
    {
      "channel": 0,
      "note": 64,
      "start": 8.8724,
      "duration": 0.1991,
      "velocity": 92,
      "chip": "ym2612"
    },
    {
      "channel": 2,
      "note": 100,
      "start": 8.8733,
      "duration": 0.1998,
      "velocity": 95,
      "chip": "ym2612"
    },
    {
      "channel": 0,
      "note": 72,
      "start": 9.0717,
      "duration": 0.5978,
      "velocity": 92,
      "chip": "ym2612"
    },
    {
      "channel": 1,
      "note": 62,
      "start": 9.0726,
      "duration": 0.0986,
      "velocity": 92,
      "chip": "ym2612"
    },
    {
      "channel": 2,
      "note": 108,
      "start": 9.0734,
      "duration": 0.597,
      "velocity": 95,
      "chip": "ym2612"
    },
    {
      "channel": 1,
      "note": 64,
      "start": 9.1715,
      "duration": 0.199,
      "velocity": 92,
      "chip": "ym2612"
    },
    {
      "channel": 1,
      "note": 72,
      "start": 9.3708,
      "duration": 0.5979,
      "velocity": 92,
      "chip": "ym2612"
    },
    {
      "channel": 0,
      "note": 71,
      "start": 9.6698,
      "duration": 0.1991,
      "velocity": 92,
      "chip": "ym2612"
    },
    {
      "channel": 2,
      "note": 107,
      "start": 9.6707,
      "duration": 0.1991,
      "velocity": 95,
      "chip": "ym2612"
    },
    {
      "channel": 0,
      "note": 67,
      "start": 9.8692,
      "duration": 0.1991,
      "velocity": 92,
      "chip": "ym2612"
    },
    {
      "channel": 2,
      "note": 103,
      "start": 9.8701,
      "duration": 0.1991,
      "velocity": 95,
      "chip": "ym2612"
    },
    {
      "channel": 1,
      "note": 71,
      "start": 9.969,
      "duration": 0.1991,
      "velocity": 92,
      "chip": "ym2612"
    },
    {
      "channel": 0,
      "note": 69,
      "start": 10.0685,
      "duration": 0.2988,
      "velocity": 92,
      "chip": "ym2612"
    },
    {
      "channel": 2,
      "note": 105,
      "start": 10.0695,
      "duration": 0.2995,
      "velocity": 95,
      "chip": "ym2612"
    },
    {
      "channel": 1,
      "note": 67,
      "start": 10.1683,
      "duration": 0.1999,
      "velocity": 92,
      "chip": "ym2612"
    },
    {
      "channel": 0,
      "note": 66,
      "start": 10.3676,
      "duration": 0.0994,
      "velocity": 92,
      "chip": "ym2612"
    },
    {
      "channel": 1,
      "note": 69,
      "start": 10.3685,
      "duration": 0.2988,
      "velocity": 92,
      "chip": "ym2612"
    },
    {
      "channel": 2,
      "note": 102,
      "start": 10.3693,
      "duration": 0.0987,
      "velocity": 95,
      "chip": "ym2612"
    },
    {
      "channel": 0,
      "note": 67,
      "start": 10.4673,
      "duration": 0.1991,
      "velocity": 92,
      "chip": "ym2612"
    },
    {
      "channel": 2,
      "note": 103,
      "start": 10.4682,
      "duration": 0.1998,
      "velocity": 95,
      "chip": "ym2612"
    },
    {
      "channel": 0,
      "note": 64,
      "start": 10.6667,
      "duration": 0.1991,
      "velocity": 92,
      "chip": "ym2612"
    },
    {
      "channel": 1,
      "note": 66,
      "start": 10.6675,
      "duration": 0.0986,
      "velocity": 92,
      "chip": "ym2612"
    },
    {
      "channel": 2,
      "note": 100,
      "start": 10.6683,
      "duration": 0.1983,
      "velocity": 95,
      "chip": "ym2612"
    },
    {
      "channel": 1,
      "note": 67,
      "start": 10.7664,
      "duration": 0.1991,
      "velocity": 92,
      "chip": "ym2612"
    },
    {
      "channel": 0,
      "note": 66,
      "start": 10.866,
      "duration": 0.1991,
      "velocity": 92,
      "chip": "ym2612"
    },
    {
      "channel": 2,
      "note": 102,
      "start": 10.867,
      "duration": 0.1991,
      "velocity": 95,
      "chip": "ym2612"
    },
    {
      "channel": 1,
      "note": 64,
      "start": 10.9658,
      "duration": 0.1991,
      "velocity": 92,
      "chip": "ym2612"
    },
    {
      "channel": 0,
      "note": 62,
      "start": 11.0654,
      "duration": 0.1991,
      "velocity": 92,
      "chip": "ym2612"
    },
    {
      "channel": 2,
      "note": 98,
      "start": 11.0663,
      "duration": 0.1991,
      "velocity": 95,
      "chip": "ym2612"
    },
    {
      "channel": 1,
      "note": 66,
      "start": 11.1651,
      "duration": 0.1991,
      "velocity": 92,
      "chip": "ym2612"
    },
    {
      "channel": 0,
      "note": 64,
      "start": 11.2648,
      "duration": 0.1991,
      "velocity": 92,
      "chip": "ym2612"
    },
    {
      "channel": 2,
      "note": 100,
      "start": 11.2657,
      "duration": 0.1991,
      "velocity": 95,
      "chip": "ym2612"
    },
    {
      "channel": 1,
      "note": 62,
      "start": 11.3645,
      "duration": 0.1991,
      "velocity": 92,
      "chip": "ym2612"
    },
    {
      "channel": 0,
      "note": 60,
      "start": 11.4641,
      "duration": 0.4981,
      "velocity": 92,
      "chip": "ym2612"
    },
    {
      "channel": 2,
      "note": 96,
      "start": 11.4651,
      "duration": 0.4981,
      "velocity": 95,
      "chip": "ym2612"
    },
    {
      "channel": 1,
      "note": 64,
      "start": 11.5639,
      "duration": 0.199,
      "velocity": 92,
      "chip": "ym2612"
    },
    {
      "channel": 1,
      "note": 60,
      "start": 11.7632,
      "duration": 0.4989,
      "velocity": 92,
      "chip": "ym2612"
    },
    {
      "channel": 0,
      "note": 62,
      "start": 11.9625,
      "duration": 0.0994,
      "velocity": 92,
      "chip": "ym2612"
    },
    {
      "channel": 2,
      "note": 98,
      "start": 11.9634,
      "duration": 0.0994,
      "velocity": 95,
      "chip": "ym2612"
    },
    {
      "channel": 0,
      "note": 64,
      "start": 12.0622,
      "duration": 0.1991,
      "velocity": 92,
      "chip": "ym2612"
    },
    {
      "channel": 2,
      "note": 100,
      "start": 12.0631,
      "duration": 0.1999,
      "velocity": 95,
      "chip": "ym2612"
    },
    {
      "channel": 0,
      "note": 72,
      "start": 12.2616,
      "duration": 0.6007,
      "velocity": 92,
      "chip": "ym2612"
    },
    {
      "channel": 1,
      "note": 62,
      "start": 12.2624,
      "duration": 0.0986,
      "velocity": 92,
      "chip": "ym2612"
    },
    {
      "channel": 2,
      "note": 108,
      "start": 12.2633,
      "duration": 0.6,
      "velocity": 95,
      "chip": "ym2612"
    },
    {
      "channel": 1,
      "note": 64,
      "start": 12.3614,
      "duration": 0.199,
      "velocity": 92,
      "chip": "ym2612"
    },
    {
      "channel": 1,
      "note": 72,
      "start": 12.5607,
      "duration": 0.6006,
      "velocity": 92,
      "chip": "ym2612"
    },
    {
      "channel": 0,
      "note": 69,
      "start": 12.8625,
      "duration": 0.1962,
      "velocity": 92,
      "chip": "ym2612"
    },
    {
      "channel": 2,
      "note": 105,
      "start": 12.8636,
      "duration": 0.1989,
      "velocity": 95,
      "chip": "ym2612"
    },
    {
      "channel": 3,
      "note": 38,
      "start": 12.8671,
      "duration": 1.3881,
      "velocity": 95,
      "chip": "ym2612"
    },
    {
      "channel": 4,
      "note": 42,
      "start": 12.8707,
      "duration": 1.5848,
      "velocity": 83,
      "chip": "ym2612"
    },
    {
      "channel": 5,
      "note": 45,
      "start": 12.8743,
      "duration": 1.582,
      "velocity": 83,
      "chip": "ym2612"
    },
    {
      "channel": 0,
      "note": 64,
      "start": 13.059,
      "duration": 0.1991,
      "velocity": 92,
      "chip": "ym2612"
    },
    {
      "channel": 2,
      "note": 100,
      "start": 13.0627,
      "duration": 0.1991,
      "velocity": 95,
      "chip": "ym2612"
    },
    {
      "channel": 1,
      "note": 69,
      "start": 13.1616,
      "duration": 0.1963,
      "velocity": 92,
      "chip": "ym2612"
    },
    {
      "channel": 0,
      "note": 66,
      "start": 13.2584,
      "duration": 0.2988,
      "velocity": 92,
      "chip": "ym2612"
    },
    {
      "channel": 2,
      "note": 102,
      "start": 13.2621,
      "duration": 0.2968,
      "velocity": 95,
      "chip": "ym2612"
    },
    {
      "channel": 1,
      "note": 64,
      "start": 13.3582,
      "duration": 0.1998,
      "velocity": 92,
      "chip": "ym2612"
    },
    {
      "channel": 0,
      "note": 62,
      "start": 13.5575,
      "duration": 0.0994,
      "velocity": 92,
      "chip": "ym2612"
    },
    {
      "channel": 1,
      "note": 66,
      "start": 13.5583,
      "duration": 0.2988,
      "velocity": 92,
      "chip": "ym2612"
    },
    {
      "channel": 2,
      "note": 98,
      "start": 13.5591,
      "duration": 0.0987,
      "velocity": 95,
      "chip": "ym2612"
    },
    {
      "channel": 0,
      "note": 64,
      "start": 13.6571,
      "duration": 0.1991,
      "velocity": 92,
      "chip": "ym2612"
    },
    {
      "channel": 2,
      "note": 100,
      "start": 13.6581,
      "duration": 0.1999,
      "velocity": 95,
      "chip": "ym2612"
    },
    {
      "channel": 0,
      "note": 60,
      "start": 13.8565,
      "duration": 0.7971,
      "velocity": 92,
      "chip": "ym2612"
    },
    {
      "channel": 1,
      "note": 62,
      "start": 13.8574,
      "duration": 0.0987,
      "velocity": 92,
      "chip": "ym2612"
    },
    {
      "channel": 2,
      "note": 96,
      "start": 13.8582,
      "duration": 0.7964,
      "velocity": 95,
      "chip": "ym2612"
    },
    {
      "channel": 1,
      "note": 64,
      "start": 13.9563,
      "duration": 0.199,
      "velocity": 92,
      "chip": "ym2612"
    },
    {
      "channel": 1,
      "note": 60,
      "start": 14.1556,
      "duration": 0.7972,
      "velocity": 92,
      "chip": "ym2612"
    },
    {
      "channel": 3,
      "note": 45,
      "start": 14.2555,
      "duration": 0.1991,
      "velocity": 95,
      "chip": "ym2612"
    },
    {
      "channel": 3,
      "note": 48,
      "start": 14.4549,
      "duration": 0.7987,
      "velocity": 95,
      "chip": "ym2612"
    },
    {
      "channel": 4,
      "note": 40,
      "start": 14.4557,
      "duration": 1.5962,
      "velocity": 83,
      "chip": "ym2612"
    },
    {
      "channel": 5,
      "note": 43,
      "start": 14.4566,
      "duration": 1.5962,
      "velocity": 83,
      "chip": "ym2612"
    },
    {
      "channel": 0,
      "note": 64,
      "start": 14.6539,
      "duration": 0.1991,
      "velocity": 92,
      "chip": "ym2612"
    },
    {
      "channel": 2,
      "note": 100,
      "start": 14.6549,
      "duration": 0.1991,
      "velocity": 95,
      "chip": "ym2612"
    },
    {
      "channel": 0,
      "note": 66,
      "start": 14.8533,
      "duration": 0.2988,
      "velocity": 92,
      "chip": "ym2612"
    },
    {
      "channel": 2,
      "note": 102,
      "start": 14.8542,
      "duration": 0.2996,
      "velocity": 95,
      "chip": "ym2612"
    },
    {
      "channel": 1,
      "note": 64,
      "start": 14.9531,
      "duration": 0.1998,
      "velocity": 92,
      "chip": "ym2612"
    },
    {
      "channel": 0,
      "note": 62,
      "start": 15.1524,
      "duration": 0.0994,
      "velocity": 92,
      "chip": "ym2612"
    },
    {
      "channel": 1,
      "note": 66,
      "start": 15.1532,
      "duration": 0.2988,
      "velocity": 92,
      "chip": "ym2612"
    },
    {
      "channel": 2,
      "note": 98,
      "start": 15.1541,
      "duration": 0.0987,
      "velocity": 95,
      "chip": "ym2612"
    },
    {
      "channel": 0,
      "note": 64,
      "start": 15.2521,
      "duration": 0.199,
      "velocity": 92,
      "chip": "ym2612"
    },
    {
      "channel": 2,
      "note": 100,
      "start": 15.253,
      "duration": 0.1998,
      "velocity": 95,
      "chip": "ym2612"
    },
    {
      "channel": 3,
      "note": 43,
      "start": 15.2539,
      "duration": 0.7972,
      "velocity": 95,
      "chip": "ym2612"
    },
    {
      "channel": 0,
      "note": 72,
      "start": 15.4515,
      "duration": 0.5979,
      "velocity": 92,
      "chip": "ym2612"
    },
    {
      "channel": 1,
      "note": 62,
      "start": 15.4523,
      "duration": 0.0987,
      "velocity": 92,
      "chip": "ym2612"
    },
    {
      "channel": 2,
      "note": 108,
      "start": 15.4531,
      "duration": 0.5971,
      "velocity": 95,
      "chip": "ym2612"
    },
    {
      "channel": 1,
      "note": 64,
      "start": 15.5512,
      "duration": 0.199,
      "velocity": 92,
      "chip": "ym2612"
    },
    {
      "channel": 1,
      "note": 72,
      "start": 15.7505,
      "duration": 0.5979,
      "velocity": 92,
      "chip": "ym2612"
    },
    {
      "channel": 0,
      "note": 71,
      "start": 16.0496,
      "duration": 0.199,
      "velocity": 92,
      "chip": "ym2612"
    },
    {
      "channel": 2,
      "note": 107,
      "start": 16.0505,
      "duration": 0.199,
      "velocity": 95,
      "chip": "ym2612"
    },
    {
      "channel": 3,
      "note": 45,
      "start": 16.0514,
      "duration": 1.5946,
      "velocity": 95,
      "chip": "ym2612"
    },
    {
      "channel": 4,
      "note": 40,
      "start": 16.0522,
      "duration": 2.3921,
      "velocity": 83,
      "chip": "ym2612"
    },
    {
      "channel": 5,
      "note": 36,
      "start": 16.0531,
      "duration": 2.3921,
      "velocity": 83,
      "chip": "ym2612"
    },
    {
      "channel": 0,
      "note": 67,
      "start": 16.2489,
      "duration": 0.1991,
      "velocity": 92,
      "chip": "ym2612"
    },
    {
      "channel": 2,
      "note": 103,
      "start": 16.2498,
      "duration": 0.1991,
      "velocity": 95,
      "chip": "ym2612"
    },
    {
      "channel": 1,
      "note": 71,
      "start": 16.3487,
      "duration": 0.1991,
      "velocity": 92,
      "chip": "ym2612"
    },
    {
      "channel": 0,
      "note": 69,
      "start": 16.4483,
      "duration": 0.2988,
      "velocity": 92,
      "chip": "ym2612"
    },
    {
      "channel": 2,
      "note": 105,
      "start": 16.4492,
      "duration": 0.2995,
      "velocity": 95,
      "chip": "ym2612"
    },
    {
      "channel": 1,
      "note": 67,
      "start": 16.548,
      "duration": 0.1998,
      "velocity": 92,
      "chip": "ym2612"
    },
    {
      "channel": 0,
      "note": 66,
      "start": 16.7473,
      "duration": 0.0994,
      "velocity": 92,
      "chip": "ym2612"
    },
    {
      "channel": 1,
      "note": 69,
      "start": 16.7482,
      "duration": 0.2988,
      "velocity": 92,
      "chip": "ym2612"
    },
    {
      "channel": 2,
      "note": 102,
      "start": 16.749,
      "duration": 0.0987,
      "velocity": 95,
      "chip": "ym2612"
    },
    {
      "channel": 0,
      "note": 67,
      "start": 16.847,
      "duration": 0.1991,
      "velocity": 92,
      "chip": "ym2612"
    },
    {
      "channel": 2,
      "note": 103,
      "start": 16.848,
      "duration": 0.1998,
      "velocity": 95,
      "chip": "ym2612"
    },
    {
      "channel": 0,
      "note": 64,
      "start": 17.0464,
      "duration": 0.1991,
      "velocity": 92,
      "chip": "ym2612"
    },
    {
      "channel": 1,
      "note": 66,
      "start": 17.0472,
      "duration": 0.0987,
      "velocity": 92,
      "chip": "ym2612"
    },
    {
      "channel": 2,
      "note": 100,
      "start": 17.0481,
      "duration": 0.1983,
      "velocity": 95,
      "chip": "ym2612"
    },
    {
      "channel": 1,
      "note": 67,
      "start": 17.1462,
      "duration": 0.1991,
      "velocity": 92,
      "chip": "ym2612"
    },
    {
      "channel": 0,
      "note": 66,
      "start": 17.2457,
      "duration": 0.1991,
      "velocity": 92,
      "chip": "ym2612"
    },
    {
      "channel": 2,
      "note": 102,
      "start": 17.2467,
      "duration": 0.1991,
      "velocity": 95,
      "chip": "ym2612"
    },
    {
      "channel": 1,
      "note": 64,
      "start": 17.3455,
      "duration": 0.1991,
      "velocity": 92,
      "chip": "ym2612"
    },
    {
      "channel": 0,
      "note": 62,
      "start": 17.4451,
      "duration": 0.1991,
      "velocity": 92,
      "chip": "ym2612"
    },
    {
      "channel": 2,
      "note": 98,
      "start": 17.446,
      "duration": 0.1991,
      "velocity": 95,
      "chip": "ym2612"
    },
    {
      "channel": 1,
      "note": 66,
      "start": 17.5449,
      "duration": 0.1991,
      "velocity": 92,
      "chip": "ym2612"
    },
    {
      "channel": 0,
      "note": 64,
      "start": 17.6445,
      "duration": 0.199,
      "velocity": 92,
      "chip": "ym2612"
    },
    {
      "channel": 2,
      "note": 100,
      "start": 17.6454,
      "duration": 0.199,
      "velocity": 95,
      "chip": "ym2612"
    },
    {
      "channel": 3,
      "note": 48,
      "start": 17.6463,
      "duration": 0.7972,
      "velocity": 95,
      "chip": "ym2612"
    },
    {
      "channel": 1,
      "note": 62,
      "start": 17.7443,
      "duration": 0.1991,
      "velocity": 92,
      "chip": "ym2612"
    },
    {
      "channel": 0,
      "note": 60,
      "start": 17.8438,
      "duration": 0.4981,
      "velocity": 92,
      "chip": "ym2612"
    },
    {
      "channel": 2,
      "note": 96,
      "start": 17.8448,
      "duration": 0.4981,
      "velocity": 95,
      "chip": "ym2612"
    },
    {
      "channel": 1,
      "note": 64,
      "start": 17.9436,
      "duration": 0.199,
      "velocity": 92,
      "chip": "ym2612"
    },
    {
      "channel": 1,
      "note": 60,
      "start": 18.1429,
      "duration": 0.4989,
      "velocity": 92,
      "chip": "ym2612"
    },
    {
      "channel": 0,
      "note": 62,
      "start": 18.3422,
      "duration": 0.0995,
      "velocity": 92,
      "chip": "ym2612"
    },
    {
      "channel": 2,
      "note": 98,
      "start": 18.3432,
      "duration": 0.0995,
      "velocity": 95,
      "chip": "ym2612"
    },
    {
      "channel": 0,
      "note": 64,
      "start": 18.442,
      "duration": 0.199,
      "velocity": 92,
      "chip": "ym2612"
    },
    {
      "channel": 2,
      "note": 100,
      "start": 18.4429,
      "duration": 0.1998,
      "velocity": 95,
      "chip": "ym2612"
    },
    {
      "channel": 3,
      "note": 40,
      "start": 18.4438,
      "duration": 0.3968,
      "velocity": 95,
      "chip": "ym2612"
    },
    {
      "channel": 4,
      "note": 36,
      "start": 18.4446,
      "duration": 0.8002,
      "velocity": 83,
      "chip": "ym2612"
    },
    {
      "channel": 5,
      "note": 43,
      "start": 18.4455,
      "duration": 0.8003,
      "velocity": 83,
      "chip": "ym2612"
    },
    {
      "channel": 0,
      "note": 72,
      "start": 18.6413,
      "duration": 0.6007,
      "velocity": 92,
      "chip": "ym2612"
    },
    {
      "channel": 1,
      "note": 62,
      "start": 18.6421,
      "duration": 0.0987,
      "velocity": 92,
      "chip": "ym2612"
    },
    {
      "channel": 2,
      "note": 108,
      "start": 18.643,
      "duration": 0.6,
      "velocity": 95,
      "chip": "ym2612"
    },
    {
      "channel": 1,
      "note": 64,
      "start": 18.7411,
      "duration": 0.1991,
      "velocity": 92,
      "chip": "ym2612"
    },
    {
      "channel": 3,
      "note": 43,
      "start": 18.8409,
      "duration": 0.403,
      "velocity": 95,
      "chip": "ym2612"
    },
    {
      "channel": 1,
      "note": 72,
      "start": 18.9404,
      "duration": 0.6006,
      "velocity": 92,
      "chip": "ym2612"
    },
    {
      "channel": 0,
      "note": 69,
      "start": 19.2422,
      "duration": 0.1962,
      "velocity": 92,
      "chip": "ym2612"
    },
    {
      "channel": 2,
      "note": 105,
      "start": 19.2433,
      "duration": 0.1989,
      "velocity": 95,
      "chip": "ym2612"
    },
    {
      "channel": 3,
      "note": 38,
      "start": 19.2442,
      "duration": 1.3907,
      "velocity": 95,
      "chip": "ym2612"
    },
    {
      "channel": 4,
      "note": 42,
      "start": 19.2451,
      "duration": 1.59,
      "velocity": 83,
      "chip": "ym2612"
    },
    {
      "channel": 5,
      "note": 45,
      "start": 19.2461,
      "duration": 1.59,
      "velocity": 83,
      "chip": "ym2612"
    },
    {
      "channel": 0,
      "note": 64,
      "start": 19.4388,
      "duration": 0.1991,
      "velocity": 92,
      "chip": "ym2612"
    },
    {
      "channel": 2,
      "note": 100,
      "start": 19.4424,
      "duration": 0.1991,
      "velocity": 95,
      "chip": "ym2612"
    },
    {
      "channel": 1,
      "note": 69,
      "start": 19.5413,
      "duration": 0.1963,
      "velocity": 92,
      "chip": "ym2612"
    },
    {
      "channel": 0,
      "note": 66,
      "start": 19.6381,
      "duration": 0.2988,
      "velocity": 92,
      "chip": "ym2612"
    },
    {
      "channel": 2,
      "note": 102,
      "start": 19.6418,
      "duration": 0.2968,
      "velocity": 95,
      "chip": "ym2612"
    },
    {
      "channel": 1,
      "note": 64,
      "start": 19.7379,
      "duration": 0.1998,
      "velocity": 92,
      "chip": "ym2612"
    },
    {
      "channel": 0,
      "note": 62,
      "start": 19.9372,
      "duration": 0.0994,
      "velocity": 92,
      "chip": "ym2612"
    },
    {
      "channel": 1,
      "note": 66,
      "start": 19.938,
      "duration": 0.2988,
      "velocity": 92,
      "chip": "ym2612"
    },
    {
      "channel": 2,
      "note": 98,
      "start": 19.9389,
      "duration": 0.0986,
      "velocity": 95,
      "chip": "ym2612"
    },
    {
      "channel": 0,
      "note": 64,
      "start": 20.0369,
      "duration": 0.1991,
      "velocity": 92,
      "chip": "ym2612"
    },
    {
      "channel": 2,
      "note": 100,
      "start": 20.0378,
      "duration": 0.1998,
      "velocity": 95,
      "chip": "ym2612"
    },
    {
      "channel": 0,
      "note": 60,
      "start": 20.2362,
      "duration": 0.7971,
      "velocity": 92,
      "chip": "ym2612"
    },
    {
      "channel": 1,
      "note": 62,
      "start": 20.2371,
      "duration": 0.0986,
      "velocity": 92,
      "chip": "ym2612"
    },
    {
      "channel": 2,
      "note": 96,
      "start": 20.2379,
      "duration": 0.7964,
      "velocity": 95,
      "chip": "ym2612"
    },
    {
      "channel": 1,
      "note": 64,
      "start": 20.336,
      "duration": 0.199,
      "velocity": 92,
      "chip": "ym2612"
    },
    {
      "channel": 1,
      "note": 60,
      "start": 20.5353,
      "duration": 0.7973,
      "velocity": 92,
      "chip": "ym2612"
    },
    {
      "channel": 3,
      "note": 45,
      "start": 20.6352,
      "duration": 0.1991,
      "velocity": 95,
      "chip": "ym2612"
    },
    {
      "channel": 3,
      "note": 48,
      "start": 20.8346,
      "duration": 0.7987,
      "velocity": 95,
      "chip": "ym2612"
    },
    {
      "channel": 4,
      "note": 40,
      "start": 20.8354,
      "duration": 1.5962,
      "velocity": 83,
      "chip": "ym2612"
    },
    {
      "channel": 5,
      "note": 43,
      "start": 20.8363,
      "duration": 1.5962,
      "velocity": 83,
      "chip": "ym2612"
    },
    {
      "channel": 0,
      "note": 64,
      "start": 21.0337,
      "duration": 0.1991,
      "velocity": 92,
      "chip": "ym2612"
    },
    {
      "channel": 2,
      "note": 100,
      "start": 21.0346,
      "duration": 0.1991,
      "velocity": 95,
      "chip": "ym2612"
    },
    {
      "channel": 0,
      "note": 66,
      "start": 21.233,
      "duration": 0.2988,
      "velocity": 92,
      "chip": "ym2612"
    },
    {
      "channel": 2,
      "note": 102,
      "start": 21.234,
      "duration": 0.2995,
      "velocity": 95,
      "chip": "ym2612"
    },
    {
      "channel": 1,
      "note": 64,
      "start": 21.3328,
      "duration": 0.1998,
      "velocity": 92,
      "chip": "ym2612"
    },
    {
      "channel": 0,
      "note": 62,
      "start": 21.5321,
      "duration": 0.0995,
      "velocity": 92,
      "chip": "ym2612"
    },
    {
      "channel": 1,
      "note": 66,
      "start": 21.5329,
      "duration": 0.2988,
      "velocity": 92,
      "chip": "ym2612"
    },
    {
      "channel": 2,
      "note": 98,
      "start": 21.5338,
      "duration": 0.0987,
      "velocity": 95,
      "chip": "ym2612"
    },
    {
      "channel": 0,
      "note": 64,
      "start": 21.6318,
      "duration": 0.199,
      "velocity": 92,
      "chip": "ym2612"
    },
    {
      "channel": 2,
      "note": 100,
      "start": 21.6328,
      "duration": 0.1998,
      "velocity": 95,
      "chip": "ym2612"
    },
    {
      "channel": 3,
      "note": 43,
      "start": 21.6336,
      "duration": 0.7972,
      "velocity": 95,
      "chip": "ym2612"
    },
    {
      "channel": 0,
      "note": 72,
      "start": 21.8312,
      "duration": 0.5979,
      "velocity": 92,
      "chip": "ym2612"
    },
    {
      "channel": 1,
      "note": 62,
      "start": 21.832,
      "duration": 0.0987,
      "velocity": 92,
      "chip": "ym2612"
    },
    {
      "channel": 2,
      "note": 108,
      "start": 21.8328,
      "duration": 0.5971,
      "velocity": 95,
      "chip": "ym2612"
    },
    {
      "channel": 1,
      "note": 64,
      "start": 21.9309,
      "duration": 0.199,
      "velocity": 92,
      "chip": "ym2612"
    },
    {
      "channel": 1,
      "note": 72,
      "start": 22.1302,
      "duration": 0.5979,
      "velocity": 92,
      "chip": "ym2612"
    },
    {
      "channel": 0,
      "note": 71,
      "start": 22.4293,
      "duration": 0.199,
      "velocity": 92,
      "chip": "ym2612"
    },
    {
      "channel": 2,
      "note": 107,
      "start": 22.4302,
      "duration": 0.199,
      "velocity": 95,
      "chip": "ym2612"
    },
    {
      "channel": 3,
      "note": 45,
      "start": 22.4311,
      "duration": 1.5946,
      "velocity": 95,
      "chip": "ym2612"
    },
    {
      "channel": 4,
      "note": 40,
      "start": 22.432,
      "duration": 2.3921,
      "velocity": 83,
      "chip": "ym2612"
    },
    {
      "channel": 5,
      "note": 36,
      "start": 22.4328,
      "duration": 2.3921,
      "velocity": 83,
      "chip": "ym2612"
    },
    {
      "channel": 0,
      "note": 67,
      "start": 22.6286,
      "duration": 0.1991,
      "velocity": 92,
      "chip": "ym2612"
    },
    {
      "channel": 2,
      "note": 103,
      "start": 22.6295,
      "duration": 0.1991,
      "velocity": 95,
      "chip": "ym2612"
    },
    {
      "channel": 1,
      "note": 71,
      "start": 22.7284,
      "duration": 0.1991,
      "velocity": 92,
      "chip": "ym2612"
    },
    {
      "channel": 0,
      "note": 69,
      "start": 22.828,
      "duration": 0.2988,
      "velocity": 92,
      "chip": "ym2612"
    },
    {
      "channel": 2,
      "note": 105,
      "start": 22.8289,
      "duration": 0.2995,
      "velocity": 95,
      "chip": "ym2612"
    },
    {
      "channel": 1,
      "note": 67,
      "start": 22.9278,
      "duration": 0.1998,
      "velocity": 92,
      "chip": "ym2612"
    },
    {
      "channel": 0,
      "note": 66,
      "start": 23.1271,
      "duration": 0.0994,
      "velocity": 92,
      "chip": "ym2612"
    },
    {
      "channel": 1,
      "note": 69,
      "start": 23.1279,
      "duration": 0.2988,
      "velocity": 92,
      "chip": "ym2612"
    },
    {
      "channel": 2,
      "note": 102,
      "start": 23.1287,
      "duration": 0.0986,
      "velocity": 95,
      "chip": "ym2612"
    },
    {
      "channel": 0,
      "note": 67,
      "start": 23.2267,
      "duration": 0.1991,
      "velocity": 92,
      "chip": "ym2612"
    },
    {
      "channel": 2,
      "note": 103,
      "start": 23.2277,
      "duration": 0.1998,
      "velocity": 95,
      "chip": "ym2612"
    },
    {
      "channel": 0,
      "note": 64,
      "start": 23.4261,
      "duration": 0.1991,
      "velocity": 92,
      "chip": "ym2612"
    },
    {
      "channel": 1,
      "note": 66,
      "start": 23.4269,
      "duration": 0.0987,
      "velocity": 92,
      "chip": "ym2612"
    },
    {
      "channel": 2,
      "note": 100,
      "start": 23.4278,
      "duration": 0.1983,
      "velocity": 95,
      "chip": "ym2612"
    },
    {
      "channel": 1,
      "note": 67,
      "start": 23.5259,
      "duration": 0.1991,
      "velocity": 92,
      "chip": "ym2612"
    },
    {
      "channel": 0,
      "note": 66,
      "start": 23.6254,
      "duration": 0.1991,
      "velocity": 92,
      "chip": "ym2612"
    },
    {
      "channel": 2,
      "note": 102,
      "start": 23.6264,
      "duration": 0.1991,
      "velocity": 95,
      "chip": "ym2612"
    },
    {
      "channel": 1,
      "note": 64,
      "start": 23.7252,
      "duration": 0.1991,
      "velocity": 92,
      "chip": "ym2612"
    },
    {
      "channel": 0,
      "note": 62,
      "start": 23.8248,
      "duration": 0.1991,
      "velocity": 92,
      "chip": "ym2612"
    },
    {
      "channel": 2,
      "note": 98,
      "start": 23.8258,
      "duration": 0.1991,
      "velocity": 95,
      "chip": "ym2612"
    },
    {
      "channel": 1,
      "note": 66,
      "start": 23.9246,
      "duration": 0.1991,
      "velocity": 92,
      "chip": "ym2612"
    },
    {
      "channel": 0,
      "note": 64,
      "start": 24.0242,
      "duration": 0.1991,
      "velocity": 92,
      "chip": "ym2612"
    },
    {
      "channel": 2,
      "note": 100,
      "start": 24.0251,
      "duration": 0.199,
      "velocity": 95,
      "chip": "ym2612"
    },
    {
      "channel": 3,
      "note": 48,
      "start": 24.026,
      "duration": 0.7972,
      "velocity": 95,
      "chip": "ym2612"
    },
    {
      "channel": 1,
      "note": 62,
      "start": 24.124,
      "duration": 0.1991,
      "velocity": 92,
      "chip": "ym2612"
    },
    {
      "channel": 0,
      "note": 60,
      "start": 24.2236,
      "duration": 0.4981,
      "velocity": 92,
      "chip": "ym2612"
    },
    {
      "channel": 2,
      "note": 96,
      "start": 24.2245,
      "duration": 0.4981,
      "velocity": 95,
      "chip": "ym2612"
    },
    {
      "channel": 1,
      "note": 64,
      "start": 24.3233,
      "duration": 0.199,
      "velocity": 92,
      "chip": "ym2612"
    },
    {
      "channel": 1,
      "note": 60,
      "start": 24.5227,
      "duration": 0.4989,
      "velocity": 92,
      "chip": "ym2612"
    },
    {
      "channel": 0,
      "note": 62,
      "start": 24.722,
      "duration": 0.0995,
      "velocity": 92,
      "chip": "ym2612"
    },
    {
      "channel": 2,
      "note": 98,
      "start": 24.7229,
      "duration": 0.0995,
      "velocity": 95,
      "chip": "ym2612"
    },
    {
      "channel": 0,
      "note": 64,
      "start": 24.8217,
      "duration": 0.199,
      "velocity": 92,
      "chip": "ym2612"
    },
    {
      "channel": 2,
      "note": 100,
      "start": 24.8227,
      "duration": 0.1998,
      "velocity": 95,
      "chip": "ym2612"
    },
    {
      "channel": 3,
      "note": 40,
      "start": 24.8235,
      "duration": 0.3968,
      "velocity": 95,
      "chip": "ym2612"
    },
    {
      "channel": 4,
      "note": 36,
      "start": 24.8243,
      "duration": 0.802,
      "velocity": 83,
      "chip": "ym2612"
    },
    {
      "channel": 5,
      "note": 43,
      "start": 24.8252,
      "duration": 0.802,
      "velocity": 83,
      "chip": "ym2612"
    },
    {
      "channel": 0,
      "note": 72,
      "start": 25.021,
      "duration": 0.6006,
      "velocity": 90,
      "chip": "ym2612"
    },
    {
      "channel": 1,
      "note": 62,
      "start": 25.0219,
      "duration": 0.0986,
      "velocity": 92,
      "chip": "ym2612"
    },
    {
      "channel": 2,
      "note": 108,
      "start": 25.0227,
      "duration": 1.1971,
      "velocity": 90,
      "chip": "ym2612"
    },
    {
      "channel": 1,
      "note": 64,
      "start": 25.1208,
      "duration": 0.199,
      "velocity": 92,
      "chip": "ym2612"
    },
    {
      "channel": 3,
      "note": 43,
      "start": 25.2206,
      "duration": 0.4047,
      "velocity": 117,
      "chip": "ym2612"
    },
    {
      "channel": 1,
      "note": 72,
      "start": 25.3201,
      "duration": 0.7002,
      "velocity": 90,
      "chip": "ym2612"
    },
    {
      "channel": 0,
      "note": 78,
      "start": 25.6219,
      "duration": 0.9937,
      "velocity": 90,
      "chip": "ym2612"
    },
    {
      "channel": 3,
      "note": 50,
      "start": 25.6256,
      "duration": 0.3956,
      "velocity": 117,
      "chip": "ym2612"
    },
    {
      "channel": 4,
      "note": 42,
      "start": 25.6266,
      "duration": 1.5883,
      "velocity": 83,
      "chip": "ym2612"
    },
    {
      "channel": 5,
      "note": 45,
      "start": 25.6275,
      "duration": 1.5882,
      "velocity": 83,
      "chip": "ym2612"
    },
    {
      "channel": 1,
      "note": 79,
      "start": 26.0206,
      "duration": 1.5919,
      "velocity": 90,
      "chip": "ym2612"
    },
    {
      "channel": 3,
      "note": 50,
      "start": 26.0216,
      "duration": 0.5951,
      "velocity": 117,
      "chip": "ym2612"
    },
    {
      "channel": 2,
      "note": 81,
      "start": 26.2201,
      "duration": 1.5919,
      "velocity": 90,
      "chip": "ym2612"
    },
    {
      "channel": 0,
      "note": 74,
      "start": 26.6159,
      "duration": 1.3953,
      "velocity": 90,
      "chip": "ym2612"
    },
    {
      "channel": 3,
      "note": 50,
      "start": 26.6169,
      "duration": 0.1983,
      "velocity": 117,
      "chip": "ym2612"
    },
    {
      "channel": 3,
      "note": 60,
      "start": 26.8155,
      "duration": 0.1991,
      "velocity": 117,
      "chip": "ym2612"
    },
    {
      "channel": 3,
      "note": 62,
      "start": 27.0149,
      "duration": 0.1991,
      "velocity": 117,
      "chip": "ym2612"
    },
    {
      "channel": 3,
      "note": 48,
      "start": 27.2143,
      "duration": 0.3992,
      "velocity": 117,
      "chip": "ym2612"
    },
    {
      "channel": 4,
      "note": 40,
      "start": 27.2152,
      "duration": 1.5946,
      "velocity": 83,
      "chip": "ym2612"
    },
    {
      "channel": 5,
      "note": 43,
      "start": 27.216,
      "duration": 1.5946,
      "velocity": 83,
      "chip": "ym2612"
    },
    {
      "channel": 1,
      "note": 84,
      "start": 27.6128,
      "duration": 0.5978,
      "velocity": 90,
      "chip": "ym2612"
    },
    {
      "channel": 3,
      "note": 48,
      "start": 27.6138,
      "duration": 0.5978,
      "velocity": 117,
      "chip": "ym2612"
    },
    {
      "channel": 2,
      "note": 83,
      "start": 27.8123,
      "duration": 0.5978,
      "velocity": 90,
      "chip": "ym2612"
    },
    {
      "channel": 0,
      "note": 79,
      "start": 28.0115,
      "duration": 1.1959,
      "velocity": 90,
      "chip": "ym2612"
    },
    {
      "channel": 1,
      "note": 81,
      "start": 28.211,
      "duration": 1.1959,
      "velocity": 90,
      "chip": "ym2612"
    },
    {
      "channel": 3,
      "note": 48,
      "start": 28.2119,
      "duration": 0.1991,
      "velocity": 117,
      "chip": "ym2612"
    },
    {
      "channel": 2,
      "note": 72,
      "start": 28.4104,
      "duration": 1.1959,
      "velocity": 90,
      "chip": "ym2612"
    },
    {
      "channel": 3,
      "note": 57,
      "start": 28.4112,
      "duration": 0.1983,
      "velocity": 117,
      "chip": "ym2612"
    },
    {
      "channel": 3,
      "note": 60,
      "start": 28.6098,
      "duration": 0.1992,
      "velocity": 117,
      "chip": "ym2612"
    },
    {
      "channel": 3,
      "note": 50,
      "start": 28.8093,
      "duration": 0.3992,
      "velocity": 117,
      "chip": "ym2612"
    },
    {
      "channel": 4,
      "note": 40,
      "start": 28.8101,
      "duration": 2.3913,
      "velocity": 83,
      "chip": "ym2612"
    },
    {
      "channel": 5,
      "note": 36,
      "start": 28.811,
      "duration": 2.3913,
      "velocity": 83,
      "chip": "ym2612"
    },
    {
      "channel": 0,
      "note": 78,
      "start": 29.2077,
      "duration": 0.5978,
      "velocity": 90,
      "chip": "ym2612"
    },
    {
      "channel": 3,
      "note": 50,
      "start": 29.2087,
      "duration": 0.5978,
      "velocity": 117,
      "chip": "ym2612"
    },
    {
      "channel": 1,
      "note": 79,
      "start": 29.4071,
      "duration": 0.5978,
      "velocity": 90,
      "chip": "ym2612"
    },
    {
      "channel": 2,
      "note": 81,
      "start": 29.6066,
      "duration": 0.5978,
      "velocity": 90,
      "chip": "ym2612"
    },
    {
      "channel": 0,
      "note": 86,
      "start": 29.8058,
      "duration": 2.3922,
      "velocity": 90,
      "chip": "ym2612"
    },
    {
      "channel": 3,
      "note": 50,
      "start": 29.8068,
      "duration": 0.1991,
      "velocity": 117,
      "chip": "ym2612"
    },
    {
      "channel": 1,
      "note": 88,
      "start": 30.0052,
      "duration": 2.5915,
      "velocity": 90,
      "chip": "ym2612"
    },
    {
      "channel": 3,
      "note": 60,
      "start": 30.0062,
      "duration": 0.1991,
      "velocity": 117,
      "chip": "ym2612"
    },
    {
      "channel": 2,
      "note": 84,
      "start": 30.2047,
      "duration": 2.7909,
      "velocity": 90,
      "chip": "ym2612"
    },
    {
      "channel": 3,
      "note": 62,
      "start": 30.2055,
      "duration": 0.1983,
      "velocity": 117,
      "chip": "ym2612"
    },
    {
      "channel": 3,
      "note": 48,
      "start": 30.4041,
      "duration": 0.3984,
      "velocity": 117,
      "chip": "ym2612"
    },
    {
      "channel": 3,
      "note": 48,
      "start": 30.8029,
      "duration": 0.5978,
      "velocity": 117,
      "chip": "ym2612"
    },
    {
      "channel": 4,
      "note": 36,
      "start": 31.2017,
      "duration": 0.7982,
      "velocity": 83,
      "chip": "ym2612"
    },
    {
      "channel": 5,
      "note": 43,
      "start": 31.2026,
      "duration": 0.7983,
      "velocity": 83,
      "chip": "ym2612"
    },
    {
      "channel": 3,
      "note": 48,
      "start": 31.4009,
      "duration": 0.1991,
      "velocity": 117,
      "chip": "ym2612"
    },
    {
      "channel": 3,
      "note": 59,
      "start": 31.6003,
      "duration": 0.1991,
      "velocity": 117,
      "chip": "ym2612"
    },
    {
      "channel": 3,
      "note": 60,
      "start": 31.7997,
      "duration": 0.1993,
      "velocity": 117,
      "chip": "ym2612"
    },
    {
      "channel": 3,
      "note": 50,
      "start": 31.9993,
      "duration": 0.3982,
      "velocity": 117,
      "chip": "ym2612"
    },
    {
      "channel": 4,
      "note": 42,
      "start": 32.0002,
      "duration": 1.5944,
      "velocity": 83,
      "chip": "ym2612"
    },
    {
      "channel": 5,
      "note": 45,
      "start": 32.0011,
      "duration": 1.5943,
      "velocity": 83,
      "chip": "ym2612"
    },
    {
      "channel": 0,
      "note": 78,
      "start": 32.1982,
      "duration": 0.9965,
      "velocity": 90,
      "chip": "ym2612"
    },
    {
      "channel": 3,
      "note": 50,
      "start": 32.3978,
      "duration": 0.5987,
      "velocity": 117,
      "chip": "ym2612"
    },
    {
      "channel": 1,
      "note": 79,
      "start": 32.597,
      "duration": 3.3888,
      "velocity": 90,
      "chip": "ym2612"
    },
    {
      "channel": 2,
      "note": 86,
      "start": 32.9959,
      "duration": 3.7876,
      "velocity": 90,
      "chip": "ym2612"
    },
    {
      "channel": 3,
      "note": 50,
      "start": 32.9967,
      "duration": 0.199,
      "velocity": 117,
      "chip": "ym2612"
    },
    {
      "channel": 0,
      "note": 84,
      "start": 33.195,
      "duration": 1.9934,
      "velocity": 90,
      "chip": "ym2612"
    },
    {
      "channel": 3,
      "note": 60,
      "start": 33.196,
      "duration": 0.1983,
      "velocity": 117,
      "chip": "ym2612"
    },
    {
      "channel": 3,
      "note": 62,
      "start": 33.3946,
      "duration": 0.1991,
      "velocity": 117,
      "chip": "ym2612"
    },
    {
      "channel": 3,
      "note": 48,
      "start": 33.594,
      "duration": 0.3984,
      "velocity": 117,
      "chip": "ym2612"
    },
    {
      "channel": 4,
      "note": 40,
      "start": 33.5949,
      "duration": 1.5954,
      "velocity": 83,
      "chip": "ym2612"
    },
    {
      "channel": 5,
      "note": 43,
      "start": 33.5958,
      "duration": 1.5954,
      "velocity": 83,
      "chip": "ym2612"
    },
    {
      "channel": 3,
      "note": 48,
      "start": 33.9927,
      "duration": 0.5978,
      "velocity": 117,
      "chip": "ym2612"
    },
    {
      "channel": 3,
      "note": 48,
      "start": 34.5908,
      "duration": 0.1991,
      "velocity": 117,
      "chip": "ym2612"
    },
    {
      "channel": 3,
      "note": 57,
      "start": 34.7902,
      "duration": 0.1991,
      "velocity": 117,
      "chip": "ym2612"
    },
    {
      "channel": 3,
      "note": 60,
      "start": 34.9895,
      "duration": 0.1999,
      "velocity": 117,
      "chip": "ym2612"
    },
    {
      "channel": 0,
      "note": 88,
      "start": 35.1887,
      "duration": 1.7939,
      "velocity": 90,
      "chip": "ym2612"
    },
    {
      "channel": 3,
      "note": 50,
      "start": 35.1897,
      "duration": 0.3976,
      "velocity": 117,
      "chip": "ym2612"
    },
    {
      "channel": 4,
      "note": 40,
      "start": 35.1906,
      "duration": 2.3913,
      "velocity": 83,
      "chip": "ym2612"
    },
    {
      "channel": 5,
      "note": 36,
      "start": 35.1915,
      "duration": 2.3913,
      "velocity": 83,
      "chip": "ym2612"
    },
    {
      "channel": 3,
      "note": 50,
      "start": 35.5876,
      "duration": 0.5978,
      "velocity": 117,
      "chip": "ym2612"
    },
    {
      "channel": 1,
      "note": 84,
      "start": 35.9862,
      "duration": 1.1959,
      "velocity": 90,
      "chip": "ym2612"
    },
    {
      "channel": 3,
      "note": 50,
      "start": 36.1857,
      "duration": 0.1991,
      "velocity": 117,
      "chip": "ym2612"
    },
    {
      "channel": 3,
      "note": 60,
      "start": 36.3851,
      "duration": 0.1991,
      "velocity": 117,
      "chip": "ym2612"
    },
    {
      "channel": 3,
      "note": 62,
      "start": 36.5844,
      "duration": 0.1999,
      "velocity": 117,
      "chip": "ym2612"
    },
    {
      "channel": 2,
      "note": 91,
      "start": 36.7837,
      "duration": 0.5978,
      "velocity": 90,
      "chip": "ym2612"
    },
    {
      "channel": 3,
      "note": 48,
      "start": 36.7846,
      "duration": 0.3985,
      "velocity": 117,
      "chip": "ym2612"
    },
    {
      "channel": 0,
      "note": 90,
      "start": 36.9829,
      "duration": 0.5979,
      "velocity": 90,
      "chip": "ym2612"
    },
    {
      "channel": 1,
      "note": 86,
      "start": 37.1824,
      "duration": 0.5978,
      "velocity": 90,
      "chip": "ym2612"
    },
    {
      "channel": 3,
      "note": 48,
      "start": 37.1833,
      "duration": 0.5978,
      "velocity": 117,
      "chip": "ym2612"
    },
    {
      "channel": 2,
      "note": 84,
      "start": 37.3818,
      "duration": 0.5978,
      "velocity": 90,
      "chip": "ym2612"
    },
    {
      "channel": 0,
      "note": 83,
      "start": 37.5811,
      "duration": 0.5978,
      "velocity": 90,
      "chip": "ym2612"
    },
    {
      "channel": 4,
      "note": 36,
      "start": 37.5822,
      "duration": 0.8035,
      "velocity": 95,
      "chip": "ym2612"
    },
    {
      "channel": 5,
      "note": 43,
      "start": 37.583,
      "duration": 0.8062,
      "velocity": 106,
      "chip": "ym2612"
    },
    {
      "channel": 1,
      "note": 79,
      "start": 37.7805,
      "duration": 0.598,
      "velocity": 90,
      "chip": "ym2612"
    },
    {
      "channel": 3,
      "note": 48,
      "start": 37.7814,
      "duration": 0.1991,
      "velocity": 117,
      "chip": "ym2612"
    },
    {
      "channel": 2,
      "note": 76,
      "start": 37.98,
      "duration": 0.7973,
      "velocity": 90,
      "chip": "ym2612"
    },
    {
      "channel": 3,
      "note": 59,
      "start": 37.9808,
      "duration": 0.1991,
      "velocity": 117,
      "chip": "ym2612"
    },
    {
      "channel": 0,
      "note": 72,
      "start": 38.1791,
      "duration": 0.9967,
      "velocity": 90,
      "chip": "ym2612"
    },
    {
      "channel": 3,
      "note": 60,
      "start": 38.1802,
      "duration": 0.202,
      "velocity": 95,
      "chip": "ym2612"
    },
    {
      "channel": 1,
      "note": 71,
      "start": 38.3788,
      "duration": 1.1957,
      "velocity": 90,
      "chip": "ym2612"
    },
    {
      "channel": 3,
      "note": 47,
      "start": 38.3824,
      "duration": 0.9929,
      "velocity": 95,
      "chip": "ym2612"
    },
    {
      "channel": 4,
      "note": 95,
      "start": 38.386,
      "duration": 0.3922,
      "velocity": 95,
      "chip": "ym2612"
    },
    {
      "channel": 5,
      "note": 66,
      "start": 38.3895,
      "duration": 0.1885,
      "velocity": 106,
      "chip": "ym2612"
    },
    {
      "channel": 5,
      "note": 62,
      "start": 38.5783,
      "duration": 0.2007,
      "velocity": 106,
      "chip": "ym2612"
    },
    {
      "channel": 2,
      "note": 74,
      "start": 38.7775,
      "duration": 0.9965,
      "velocity": 90,
      "chip": "ym2612"
    },
    {
      "channel": 4,
      "note": 98,
      "start": 38.7785,
      "duration": 0.3984,
      "velocity": 95,
      "chip": "ym2612"
    },
    {
      "channel": 5,
      "note": 66,
      "start": 38.7793,
      "duration": 0.1974,
      "velocity": 106,
      "chip": "ym2612"
    },
    {
      "channel": 5,
      "note": 62,
      "start": 38.977,
      "duration": 0.2007,
      "velocity": 106,
      "chip": "ym2612"
    },
    {
      "channel": 0,
      "note": 78,
      "start": 39.1761,
      "duration": 2.3921,
      "velocity": 90,
      "chip": "ym2612"
    },
    {
      "channel": 4,
      "note": 102,
      "start": 39.1772,
      "duration": 0.3983,
      "velocity": 95,
      "chip": "ym2612"
    },
    {
      "channel": 5,
      "note": 66,
      "start": 39.178,
      "duration": 0.1982,
      "velocity": 106,
      "chip": "ym2612"
    },
    {
      "channel": 3,
      "note": 42,
      "start": 39.3756,
      "duration": 0.3993,
      "velocity": 95,
      "chip": "ym2612"
    },
    {
      "channel": 5,
      "note": 62,
      "start": 39.3766,
      "duration": 0.1999,
      "velocity": 106,
      "chip": "ym2612"
    },
    {
      "channel": 1,
      "note": 79,
      "start": 39.5748,
      "duration": 2.3921,
      "velocity": 90,
      "chip": "ym2612"
    },
    {
      "channel": 4,
      "note": 103,
      "start": 39.5758,
      "duration": 0.1999,
      "velocity": 95,
      "chip": "ym2612"
    },
    {
      "channel": 5,
      "note": 66,
      "start": 39.5767,
      "duration": 0.1999,
      "velocity": 106,
      "chip": "ym2612"
    },
    {
      "channel": 2,
      "note": 72,
      "start": 39.7743,
      "duration": 2.5915,
      "velocity": 90,
      "chip": "ym2612"
    },
    {
      "channel": 3,
      "note": 45,
      "start": 39.7751,
      "duration": 0.9957,
      "velocity": 95,
      "chip": "ym2612"
    },
    {
      "channel": 4,
      "note": 96,
      "start": 39.776,
      "duration": 1.794,
      "velocity": 95,
      "chip": "ym2612"
    },
    {
      "channel": 5,
      "note": 62,
      "start": 39.7768,
      "duration": 0.1967,
      "velocity": 106,
      "chip": "ym2612"
    },
    {
      "channel": 5,
      "note": 67,
      "start": 39.9739,
      "duration": 0.1991,
      "velocity": 106,
      "chip": "ym2612"
    },
    {
      "channel": 5,
      "note": 64,
      "start": 40.1732,
      "duration": 0.1991,
      "velocity": 106,
      "chip": "ym2612"
    },
    {
      "channel": 5,
      "note": 67,
      "start": 40.3726,
      "duration": 0.1991,
      "velocity": 106,
      "chip": "ym2612"
    },
    {
      "channel": 5,
      "note": 64,
      "start": 40.572,
      "duration": 0.1999,
      "velocity": 106,
      "chip": "ym2612"
    },
    {
      "channel": 3,
      "note": 36,
      "start": 40.7712,
      "duration": 0.798,
      "velocity": 95,
      "chip": "ym2612"
    },
    {
      "channel": 5,
      "note": 67,
      "start": 40.7721,
      "duration": 0.1983,
      "velocity": 106,
      "chip": "ym2612"
    },
    {
      "channel": 5,
      "note": 64,
      "start": 40.9707,
      "duration": 0.1991,
      "velocity": 106,
      "chip": "ym2612"
    },
    {
      "channel": 5,
      "note": 67,
      "start": 41.17,
      "duration": 0.1991,
      "velocity": 106,
      "chip": "ym2612"
    },
    {
      "channel": 5,
      "note": 64,
      "start": 41.3694,
      "duration": 0.2014,
      "velocity": 106,
      "chip": "ym2612"
    },
    {
      "channel": 0,
      "note": 71,
      "start": 41.5684,
      "duration": 1.1959,
      "velocity": 90,
      "chip": "ym2612"
    },
    {
      "channel": 3,
      "note": 47,
      "start": 41.5694,
      "duration": 1.5939,
      "velocity": 95,
      "chip": "ym2612"
    },
    {
      "channel": 4,
      "note": 95,
      "start": 41.5703,
      "duration": 0.3977,
      "velocity": 95,
      "chip": "ym2612"
    },
    {
      "channel": 5,
      "note": 69,
      "start": 41.5712,
      "duration": 0.1967,
      "velocity": 106,
      "chip": "ym2612"
    },
    {
      "channel": 5,
      "note": 66,
      "start": 41.7682,
      "duration": 0.2007,
      "velocity": 106,
      "chip": "ym2612"
    },
    {
      "channel": 1,
      "note": 74,
      "start": 41.9672,
      "duration": 0.9965,
      "velocity": 90,
      "chip": "ym2612"
    },
    {
      "channel": 4,
      "note": 98,
      "start": 41.9682,
      "duration": 0.3985,
      "velocity": 95,
      "chip": "ym2612"
    },
    {
      "channel": 5,
      "note": 69,
      "start": 41.9691,
      "duration": 0.1975,
      "velocity": 106,
      "chip": "ym2612"
    },
    {
      "channel": 5,
      "note": 66,
      "start": 42.1669,
      "duration": 0.2007,
      "velocity": 106,
      "chip": "ym2612"
    },
    {
      "channel": 2,
      "note": 78,
      "start": 42.366,
      "duration": 3.1896,
      "velocity": 90,
      "chip": "ym2612"
    },
    {
      "channel": 4,
      "note": 102,
      "start": 42.367,
      "duration": 0.3985,
      "velocity": 95,
      "chip": "ym2612"
    },
    {
      "channel": 5,
      "note": 69,
      "start": 42.3678,
      "duration": 0.1975,
      "velocity": 106,
      "chip": "ym2612"
    },
    {
      "channel": 5,
      "note": 66,
      "start": 42.5656,
      "duration": 0.2007,
      "velocity": 106,
      "chip": "ym2612"
    },
    {
      "channel": 0,
      "note": 79,
      "start": 42.7646,
      "duration": 2.3922,
      "velocity": 90,
      "chip": "ym2612"
    },
    {
      "channel": 4,
      "note": 103,
      "start": 42.7657,
      "duration": 0.1991,
      "velocity": 95,
      "chip": "ym2612"
    },
    {
      "channel": 5,
      "note": 69,
      "start": 42.7666,
      "duration": 0.1991,
      "velocity": 106,
      "chip": "ym2612"
    },
    {
      "channel": 1,
      "note": 81,
      "start": 42.964,
      "duration": 2.3922,
      "velocity": 90,
      "chip": "ym2612"
    },
    {
      "channel": 4,
      "note": 105,
      "start": 42.9651,
      "duration": 2.1929,
      "velocity": 95,
      "chip": "ym2612"
    },
    {
      "channel": 5,
      "note": 66,
      "start": 42.9659,
      "duration": 0.1983,
      "velocity": 106,
      "chip": "ym2612"
    },
    {
      "channel": 3,
      "note": 38,
      "start": 43.1636,
      "duration": 1.5949,
      "velocity": 95,
      "chip": "ym2612"
    },
    {
      "channel": 5,
      "note": 71,
      "start": 43.1645,
      "duration": 0.1983,
      "velocity": 106,
      "chip": "ym2612"
    },
    {
      "channel": 5,
      "note": 67,
      "start": 43.3631,
      "duration": 0.1991,
      "velocity": 106,
      "chip": "ym2612"
    },
    {
      "channel": 5,
      "note": 71,
      "start": 43.5624,
      "duration": 0.1991,
      "velocity": 106,
      "chip": "ym2612"
    },
    {
      "channel": 5,
      "note": 67,
      "start": 43.7618,
      "duration": 0.1991,
      "velocity": 106,
      "chip": "ym2612"
    },
    {
      "channel": 5,
      "note": 71,
      "start": 43.9612,
      "duration": 0.1991,
      "velocity": 106,
      "chip": "ym2612"
    },
    {
      "channel": 5,
      "note": 67,
      "start": 44.1606,
      "duration": 0.199,
      "velocity": 106,
      "chip": "ym2612"
    },
    {
      "channel": 5,
      "note": 71,
      "start": 44.3599,
      "duration": 0.1991,
      "velocity": 106,
      "chip": "ym2612"
    },
    {
      "channel": 5,
      "note": 67,
      "start": 44.5593,
      "duration": 0.2002,
      "velocity": 106,
      "chip": "ym2612"
    },
    {
      "channel": 3,
      "note": 47,
      "start": 44.7587,
      "duration": 0.9971,
      "velocity": 95,
      "chip": "ym2612"
    },
    {
      "channel": 5,
      "note": 66,
      "start": 44.7597,
      "duration": 0.198,
      "velocity": 106,
      "chip": "ym2612"
    },
    {
      "channel": 5,
      "note": 62,
      "start": 44.958,
      "duration": 0.2008,
      "velocity": 106,
      "chip": "ym2612"
    },
    {
      "channel": 0,
      "note": 81,
      "start": 45.1571,
      "duration": 0.5978,
      "velocity": 90,
      "chip": "ym2612"
    },
    {
      "channel": 4,
      "note": 105,
      "start": 45.1582,
      "duration": 0.199,
      "velocity": 95,
      "chip": "ym2612"
    },
    {
      "channel": 5,
      "note": 66,
      "start": 45.1591,
      "duration": 0.199,
      "velocity": 106,
      "chip": "ym2612"
    },
    {
      "channel": 1,
      "note": 79,
      "start": 45.3565,
      "duration": 0.5978,
      "velocity": 90,
      "chip": "ym2612"
    },
    {
      "channel": 4,
      "note": 103,
      "start": 45.3575,
      "duration": 0.1991,
      "velocity": 95,
      "chip": "ym2612"
    },
    {
      "channel": 5,
      "note": 62,
      "start": 45.3584,
      "duration": 0.1991,
      "velocity": 106,
      "chip": "ym2612"
    },
    {
      "channel": 2,
      "note": 78,
      "start": 45.556,
      "duration": 0.5978,
      "velocity": 90,
      "chip": "ym2612"
    },
    {
      "channel": 4,
      "note": 102,
      "start": 45.5569,
      "duration": 0.1998,
      "velocity": 95,
      "chip": "ym2612"
    },
    {
      "channel": 5,
      "note": 66,
      "start": 45.5578,
      "duration": 0.1998,
      "velocity": 106,
      "chip": "ym2612"
    },
    {
      "channel": 0,
      "note": 79,
      "start": 45.7551,
      "duration": 1.3953,
      "velocity": 90,
      "chip": "ym2612"
    },
    {
      "channel": 3,
      "note": 42,
      "start": 45.7561,
      "duration": 0.3984,
      "velocity": 95,
      "chip": "ym2612"
    },
    {
      "channel": 4,
      "note": 103,
      "start": 45.757,
      "duration": 0.1983,
      "velocity": 95,
      "chip": "ym2612"
    },
    {
      "channel": 5,
      "note": 62,
      "start": 45.7578,
      "duration": 0.1983,
      "velocity": 106,
      "chip": "ym2612"
    },
    {
      "channel": 1,
      "note": 71,
      "start": 45.9545,
      "duration": 1.5946,
      "velocity": 90,
      "chip": "ym2612"
    },
    {
      "channel": 4,
      "note": 95,
      "start": 45.9556,
      "duration": 0.1999,
      "velocity": 95,
      "chip": "ym2612"
    },
    {
      "channel": 5,
      "note": 66,
      "start": 45.9564,
      "duration": 0.1999,
      "velocity": 106,
      "chip": "ym2612"
    },
    {
      "channel": 2,
      "note": 72,
      "start": 46.154,
      "duration": 1.5946,
      "velocity": 90,
      "chip": "ym2612"
    },
    {
      "channel": 3,
      "note": 45,
      "start": 46.1549,
      "duration": 0.9965,
      "velocity": 95,
      "chip": "ym2612"
    },
    {
      "channel": 4,
      "note": 96,
      "start": 46.1557,
      "duration": 0.9966,
      "velocity": 95,
      "chip": "ym2612"
    },
    {
      "channel": 5,
      "note": 62,
      "start": 46.1566,
      "duration": 0.1967,
      "velocity": 106,
      "chip": "ym2612"
    },
    {
      "channel": 5,
      "note": 67,
      "start": 46.3536,
      "duration": 0.1991,
      "velocity": 106,
      "chip": "ym2612"
    },
    {
      "channel": 5,
      "note": 64,
      "start": 46.553,
      "duration": 0.1991,
      "velocity": 106,
      "chip": "ym2612"
    },
    {
      "channel": 5,
      "note": 67,
      "start": 46.7523,
      "duration": 0.1991,
      "velocity": 106,
      "chip": "ym2612"
    },
    {
      "channel": 5,
      "note": 64,
      "start": 46.9517,
      "duration": 0.2015,
      "velocity": 106,
      "chip": "ym2612"
    },
    {
      "channel": 0,
      "note": 83,
      "start": 47.1507,
      "duration": 0.9965,
      "velocity": 90,
      "chip": "ym2612"
    },
    {
      "channel": 3,
      "note": 36,
      "start": 47.1517,
      "duration": 0.7963,
      "velocity": 95,
      "chip": "ym2612"
    },
    {
      "channel": 4,
      "note": 107,
      "start": 47.1525,
      "duration": 0.3977,
      "velocity": 95,
      "chip": "ym2612"
    },
    {
      "channel": 5,
      "note": 67,
      "start": 47.1534,
      "duration": 0.1967,
      "velocity": 106,
      "chip": "ym2612"
    },
    {
      "channel": 5,
      "note": 64,
      "start": 47.3504,
      "duration": 0.2007,
      "velocity": 106,
      "chip": "ym2612"
    },
    {
      "channel": 1,
      "note": 84,
      "start": 47.5495,
      "duration": 0.7972,
      "velocity": 90,
      "chip": "ym2612"
    },
    {
      "channel": 4,
      "note": 108,
      "start": 47.5505,
      "duration": 0.1991,
      "velocity": 95,
      "chip": "ym2612"
    },
    {
      "channel": 5,
      "note": 67,
      "start": 47.5513,
      "duration": 0.1991,
      "velocity": 106,
      "chip": "ym2612"
    },
    {
      "channel": 2,
      "note": 88,
      "start": 47.7489,
      "duration": 0.7972,
      "velocity": 90,
      "chip": "ym2612"
    },
    {
      "channel": 4,
      "note": 112,
      "start": 47.7498,
      "duration": 0.3985,
      "velocity": 95,
      "chip": "ym2612"
    },
    {
      "channel": 5,
      "note": 64,
      "start": 47.7507,
      "duration": 0.1983,
      "velocity": 106,
      "chip": "ym2612"
    },
    {
      "channel": 3,
      "note": 47,
      "start": 47.9483,
      "duration": 1.5954,
      "velocity": 95,
      "chip": "ym2612"
    },
    {
      "channel": 5,
      "note": 69,
      "start": 47.9493,
      "duration": 0.1999,
      "velocity": 106,
      "chip": "ym2612"
    },
    {
      "channel": 0,
      "note": 86,
      "start": 48.1475,
      "duration": 1.3953,
      "velocity": 90,
      "chip": "ym2612"
    },
    {
      "channel": 4,
      "note": 110,
      "start": 48.1486,
      "duration": 0.1991,
      "velocity": 95,
      "chip": "ym2612"
    },
    {
      "channel": 5,
      "note": 66,
      "start": 48.1495,
      "duration": 0.1991,
      "velocity": 106,
      "chip": "ym2612"
    },
    {
      "channel": 1,
      "note": 83,
      "start": 48.3469,
      "duration": 1.3952,
      "velocity": 90,
      "chip": "ym2612"
    },
    {
      "channel": 4,
      "note": 107,
      "start": 48.348,
      "duration": 0.1991,
      "velocity": 95,
      "chip": "ym2612"
    },
    {
      "channel": 5,
      "note": 69,
      "start": 48.3488,
      "duration": 0.1991,
      "velocity": 106,
      "chip": "ym2612"
    },
    {
      "channel": 2,
      "note": 86,
      "start": 48.5464,
      "duration": 1.3953,
      "velocity": 90,
      "chip": "ym2612"
    },
    {
      "channel": 4,
      "note": 110,
      "start": 48.5473,
      "duration": 1.5973,
      "velocity": 97,
      "chip": "ym2612"
    },
    {
      "channel": 5,
      "note": 66,
      "start": 48.5482,
      "duration": 0.1975,
      "velocity": 106,
      "chip": "ym2612"
    },
    {
      "channel": 5,
      "note": 69,
      "start": 48.746,
      "duration": 0.1991,
      "velocity": 106,
      "chip": "ym2612"
    },
    {
      "channel": 5,
      "note": 66,
      "start": 48.9454,
      "duration": 0.1991,
      "velocity": 106,
      "chip": "ym2612"
    },
    {
      "channel": 5,
      "note": 69,
      "start": 49.1447,
      "duration": 0.1991,
      "velocity": 106,
      "chip": "ym2612"
    },
    {
      "channel": 5,
      "note": 66,
      "start": 49.3441,
      "duration": 0.2007,
      "velocity": 106,
      "chip": "ym2612"
    },
    {
      "channel": 0,
      "note": 74,
      "start": 49.543,
      "duration": 0.5978,
      "velocity": 90,
      "chip": "ym2612"
    },
    {
      "channel": 3,
      "note": 38,
      "start": 49.5441,
      "duration": 1.6011,
      "velocity": 95,
      "chip": "ym2612"
    },
    {
      "channel": 5,
      "note": 71,
      "start": 49.545,
      "duration": 0.1983,
      "velocity": 106,
      "chip": "ym2612"
    },
    {
      "channel": 1,
      "note": 79,
      "start": 49.7424,
      "duration": 0.7972,
      "velocity": 90,
      "chip": "ym2612"
    },
    {
      "channel": 5,
      "note": 67,
      "start": 49.7436,
      "duration": 0.1991,
      "velocity": 106,
      "chip": "ym2612"
    },
    {
      "channel": 2,
      "note": 84,
      "start": 49.9419,
      "duration": 0.7972,
      "velocity": 90,
      "chip": "ym2612"
    },
    {
      "channel": 5,
      "note": 71,
      "start": 49.943,
      "duration": 0.2026,
      "velocity": 106,
      "chip": "ym2612"
    },
    {
      "channel": 0,
      "note": 83,
      "start": 50.1411,
      "duration": 0.7972,
      "velocity": 90,
      "chip": "ym2612"
    },
    {
      "channel": 4,
      "note": 50,
      "start": 50.145,
      "duration": 4.1872,
      "velocity": 97,
      "chip": "ym2612"
    },
    {
      "channel": 5,
      "note": 67,
      "start": 50.1458,
      "duration": 0.1948,
      "velocity": 106,
      "chip": "ym2612"
    },
    {
      "channel": 5,
      "note": 71,
      "start": 50.3409,
      "duration": 0.1999,
      "velocity": 106,
      "chip": "ym2612"
    },
    {
      "channel": 1,
      "note": 79,
      "start": 50.5399,
      "duration": 0.8996,
      "velocity": 92,
      "chip": "ym2612"
    },
    {
      "channel": 5,
      "note": 67,
      "start": 50.541,
      "duration": 0.1991,
      "velocity": 106,
      "chip": "ym2612"
    },
    {
      "channel": 2,
      "note": 81,
      "start": 50.7394,
      "duration": 0.4049,
      "velocity": 95,
      "chip": "ym2612"
    },
    {
      "channel": 5,
      "note": 71,
      "start": 50.7404,
      "duration": 0.1991,
      "velocity": 106,
      "chip": "ym2612"
    },
    {
      "channel": 0,
      "note": 74,
      "start": 50.9386,
      "duration": 0.202,
      "velocity": 92,
      "chip": "ym2612"
    },
    {
      "channel": 5,
      "note": 67,
      "start": 50.9398,
      "duration": 3.3924,
      "velocity": 106,
      "chip": "ym2612"
    },
    {
      "channel": 0,
      "note": 69,
      "start": 51.1408,
      "duration": 0.1962,
      "velocity": 92,
      "chip": "ym2612"
    },
    {
      "channel": 2,
      "note": 105,
      "start": 51.1445,
      "duration": 0.1962,
      "velocity": 95,
      "chip": "ym2612"
    },
    {
      "channel": 3,
      "note": 38,
      "start": 51.1454,
      "duration": 3.1867,
      "velocity": 95,
      "chip": "ym2612"
    },
    {
      "channel": 0,
      "note": 64,
      "start": 51.3373,
      "duration": 0.1991,
      "velocity": 92,
      "chip": "ym2612"
    },
    {
      "channel": 2,
      "note": 100,
      "start": 51.341,
      "duration": 0.1991,
      "velocity": 95,
      "chip": "ym2612"
    },
    {
      "channel": 1,
      "note": 69,
      "start": 51.4399,
      "duration": 0.1963,
      "velocity": 92,
      "chip": "ym2612"
    },
    {
      "channel": 0,
      "note": 66,
      "start": 51.5367,
      "duration": 0.2988,
      "velocity": 92,
      "chip": "ym2612"
    },
    {
      "channel": 2,
      "note": 102,
      "start": 51.5404,
      "duration": 0.2968,
      "velocity": 95,
      "chip": "ym2612"
    },
    {
      "channel": 1,
      "note": 64,
      "start": 51.6365,
      "duration": 0.1998,
      "velocity": 92,
      "chip": "ym2612"
    },
    {
      "channel": 0,
      "note": 62,
      "start": 51.8357,
      "duration": 0.0994,
      "velocity": 92,
      "chip": "ym2612"
    },
    {
      "channel": 1,
      "note": 66,
      "start": 51.8366,
      "duration": 0.2988,
      "velocity": 92,
      "chip": "ym2612"
    },
    {
      "channel": 2,
      "note": 98,
      "start": 51.8374,
      "duration": 0.0987,
      "velocity": 95,
      "chip": "ym2612"
    },
    {
      "channel": 0,
      "note": 64,
      "start": 51.9354,
      "duration": 0.1991,
      "velocity": 92,
      "chip": "ym2612"
    },
    {
      "channel": 2,
      "note": 100,
      "start": 51.9364,
      "duration": 0.1998,
      "velocity": 95,
      "chip": "ym2612"
    },
    {
      "channel": 0,
      "note": 60,
      "start": 52.1348,
      "duration": 0.7971,
      "velocity": 92,
      "chip": "ym2612"
    },
    {
      "channel": 1,
      "note": 62,
      "start": 52.1356,
      "duration": 0.0986,
      "velocity": 92,
      "chip": "ym2612"
    },
    {
      "channel": 2,
      "note": 96,
      "start": 52.1365,
      "duration": 0.7964,
      "velocity": 95,
      "chip": "ym2612"
    },
    {
      "channel": 1,
      "note": 64,
      "start": 52.2346,
      "duration": 0.199,
      "velocity": 92,
      "chip": "ym2612"
    },
    {
      "channel": 1,
      "note": 60,
      "start": 52.4339,
      "duration": 0.7973,
      "velocity": 92,
      "chip": "ym2612"
    },
    {
      "channel": 0,
      "note": 64,
      "start": 52.9322,
      "duration": 0.1991,
      "velocity": 92,
      "chip": "ym2612"
    },
    {
      "channel": 2,
      "note": 100,
      "start": 52.9332,
      "duration": 0.1991,
      "velocity": 95,
      "chip": "ym2612"
    },
    {
      "channel": 0,
      "note": 66,
      "start": 53.1316,
      "duration": 0.2988,
      "velocity": 92,
      "chip": "ym2612"
    },
    {
      "channel": 2,
      "note": 102,
      "start": 53.1325,
      "duration": 0.2995,
      "velocity": 95,
      "chip": "ym2612"
    },
    {
      "channel": 1,
      "note": 64,
      "start": 53.2314,
      "duration": 0.1998,
      "velocity": 92,
      "chip": "ym2612"
    },
    {
      "channel": 0,
      "note": 62,
      "start": 53.4307,
      "duration": 0.0994,
      "velocity": 92,
      "chip": "ym2612"
    },
    {
      "channel": 1,
      "note": 66,
      "start": 53.4315,
      "duration": 0.2988,
      "velocity": 92,
      "chip": "ym2612"
    },
    {
      "channel": 2,
      "note": 98,
      "start": 53.4324,
      "duration": 0.0986,
      "velocity": 95,
      "chip": "ym2612"
    },
    {
      "channel": 0,
      "note": 64,
      "start": 53.5304,
      "duration": 0.1991,
      "velocity": 92,
      "chip": "ym2612"
    },
    {
      "channel": 2,
      "note": 100,
      "start": 53.5313,
      "duration": 0.1998,
      "velocity": 95,
      "chip": "ym2612"
    },
    {
      "channel": 0,
      "note": 72,
      "start": 53.7297,
      "duration": 0.6007,
      "velocity": 92,
      "chip": "ym2612"
    },
    {
      "channel": 1,
      "note": 62,
      "start": 53.7306,
      "duration": 0.0987,
      "velocity": 92,
      "chip": "ym2612"
    },
    {
      "channel": 2,
      "note": 108,
      "start": 53.7314,
      "duration": 0.6,
      "velocity": 95,
      "chip": "ym2612"
    },
    {
      "channel": 1,
      "note": 64,
      "start": 53.8295,
      "duration": 0.199,
      "velocity": 92,
      "chip": "ym2612"
    },
    {
      "channel": 1,
      "note": 72,
      "start": 54.0288,
      "duration": 0.3034,
      "velocity": 92,
      "chip": "ym2612"
    },
    {
      "channel": 0,
      "note": 69,
      "start": 54.3307,
      "duration": 0.0015,
      "velocity": 92,
      "chip": "ym2612"
    },
    {
      "channel": 2,
      "note": 105,
      "start": 54.3317,
      "duration": 0.0005,
      "velocity": 95,
      "chip": "ym2612"
    }
  ]
}