{
  "track_name": "13 - Boss",
  "duration_sec": 77.068,
  "sample_rate": 44100,
  "note_count": 2267,
  "unique_pitches": 59,
  "pitch_range": 74,
  "avg_note_duration": 0.1352,
  "reconstruction_stats": {
    "notes_reconstructed": 2267,
    "keyon_events": 2267,
    "keyoff_events": 2262,
    "orphan_keyons": 5,
    "unique_pitches": 59,
    "pitch_range": 74,
    "avg_duration_sec": 0.1352
  },
  "metadata": {
    "source": "R\\Rocket Knight Adventures\\13 - Boss.vgm"
  },
  "notes": [
    {
      "channel": 0,
      "note": 42,
      "start": 0.0,
      "duration": 0.5868,
      "velocity": 101,
      "chip": "ym2612"
    },
    {
      "channel": 2,
      "note": 42,
      "start": 0.0041,
      "duration": 0.5837,
      "velocity": 101,
      "chip": "ym2612"
    },
    {
      "channel": 1,
      "note": 42,
      "start": 0.1093,
      "duration": 0.5803,
      "velocity": 101,
      "chip": "ym2612"
    },
    {
      "channel": 5,
      "note": 41,
      "start": 0.2128,
      "duration": 0.58,
      "velocity": 101,
      "chip": "ym2612"
    },
    {
      "channel": 0,
      "note": 43,
      "start": 0.6215,
      "duration": 0.5798,
      "velocity": 101,
      "chip": "ym2612"
    },
    {
      "channel": 2,
      "note": 43,
      "start": 0.6225,
      "duration": 0.5796,
      "velocity": 101,
      "chip": "ym2612"
    },
    {
      "channel": 1,
      "note": 43,
      "start": 0.7242,
      "duration": 0.5798,
      "velocity": 101,
      "chip": "ym2612"
    },
    {
      "channel": 5,
      "note": 42,
      "start": 0.8277,
      "duration": 0.579,
      "velocity": 101,
      "chip": "ym2612"
    },
    {
      "channel": 0,
      "note": 40,
      "start": 1.2359,
      "duration": 0.3919,
      "velocity": 101,
      "chip": "ym2612"
    },
    {
      "channel": 2,
      "note": 39,
      "start": 1.2371,
      "duration": 0.3915,
      "velocity": 101,
      "chip": "ym2612"
    },
    {
      "channel": 1,
      "note": 40,
      "start": 1.3383,
      "duration": 0.3923,
      "velocity": 101,
      "chip": "ym2612"
    },
    {
      "channel": 5,
      "note": 39,
      "start": 1.4418,
      "duration": 0.3918,
      "velocity": 101,
      "chip": "ym2612"
    },
    {
      "channel": 0,
      "note": 42,
      "start": 1.6453,
      "duration": 0.5804,
      "velocity": 101,
      "chip": "ym2612"
    },
    {
      "channel": 2,
      "note": 42,
      "start": 1.6463,
      "duration": 0.5802,
      "velocity": 101,
      "chip": "ym2612"
    },
    {
      "channel": 1,
      "note": 42,
      "start": 1.7481,
      "duration": 0.58,
      "velocity": 101,
      "chip": "ym2612"
    },
    {
      "channel": 5,
      "note": 41,
      "start": 1.8518,
      "duration": 0.5791,
      "velocity": 101,
      "chip": "ym2612"
    },
    {
      "channel": 0,
      "note": 46,
      "start": 2.2602,
      "duration": 0.5795,
      "velocity": 101,
      "chip": "ym2612"
    },
    {
      "channel": 2,
      "note": 46,
      "start": 2.2612,
      "duration": 0.5793,
      "velocity": 101,
      "chip": "ym2612"
    },
    {
      "channel": 1,
      "note": 46,
      "start": 2.3628,
      "duration": 0.5794,
      "velocity": 101,
      "chip": "ym2612"
    },
    {
      "channel": 5,
      "note": 46,
      "start": 2.4662,
      "duration": 0.5788,
      "velocity": 101,
      "chip": "ym2612"
    },
    {
      "channel": 0,
      "note": 43,
      "start": 2.8742,
      "duration": 0.3919,
      "velocity": 101,
      "chip": "ym2612"
    },
    {
      "channel": 2,
      "note": 43,
      "start": 2.8752,
      "duration": 0.3917,
      "velocity": 101,
      "chip": "ym2612"
    },
    {
      "channel": 1,
      "note": 43,
      "start": 2.9768,
      "duration": 0.3923,
      "velocity": 101,
      "chip": "ym2612"
    },
    {
      "channel": 5,
      "note": 42,
      "start": 3.0803,
      "duration": 0.3919,
      "velocity": 101,
      "chip": "ym2612"
    },
    {
      "channel": 0,
      "note": 42,
      "start": 3.2839,
      "duration": 0.5802,
      "velocity": 101,
      "chip": "ym2612"
    },
    {
      "channel": 2,
      "note": 42,
      "start": 3.2849,
      "duration": 0.58,
      "velocity": 101,
      "chip": "ym2612"
    },
    {
      "channel": 1,
      "note": 42,
      "start": 3.3866,
      "duration": 0.58,
      "velocity": 101,
      "chip": "ym2612"
    },
    {
      "channel": 5,
      "note": 41,
      "start": 3.4903,
      "duration": 0.5791,
      "velocity": 101,
      "chip": "ym2612"
    },
    {
      "channel": 0,
      "note": 43,
      "start": 3.8986,
      "duration": 0.5795,
      "velocity": 101,
      "chip": "ym2612"
    },
    {
      "channel": 2,
      "note": 43,
      "start": 3.8996,
      "duration": 0.5793,
      "velocity": 101,
      "chip": "ym2612"
    },
    {
      "channel": 1,
      "note": 43,
      "start": 4.0011,
      "duration": 0.5796,
      "velocity": 101,
      "chip": "ym2612"
    },
    {
      "channel": 5,
      "note": 42,
      "start": 4.1048,
      "duration": 0.5788,
      "velocity": 101,
      "chip": "ym2612"
    },
    {
      "channel": 0,
      "note": 40,
      "start": 4.5127,
      "duration": 0.3926,
      "velocity": 101,
      "chip": "ym2612"
    },
    {
      "channel": 2,
      "note": 39,
      "start": 4.5137,
      "duration": 0.3924,
      "velocity": 101,
      "chip": "ym2612"
    },
    {
      "channel": 1,
      "note": 40,
      "start": 4.6152,
      "duration": 0.3927,
      "velocity": 101,
      "chip": "ym2612"
    },
    {
      "channel": 5,
      "note": 39,
      "start": 4.7189,
      "duration": 0.3919,
      "velocity": 101,
      "chip": "ym2612"
    },
    {
      "channel": 0,
      "note": 42,
      "start": 4.9228,
      "duration": 0.5797,
      "velocity": 101,
      "chip": "ym2612"
    },
    {
      "channel": 2,
      "note": 42,
      "start": 4.9238,
      "duration": 0.5795,
      "velocity": 101,
      "chip": "ym2612"
    },
    {
      "channel": 1,
      "note": 42,
      "start": 5.0256,
      "duration": 0.5793,
      "velocity": 101,
      "chip": "ym2612"
    },
    {
      "channel": 5,
      "note": 41,
      "start": 5.129,
      "duration": 0.5788,
      "velocity": 101,
      "chip": "ym2612"
    },
    {
      "channel": 0,
      "note": 38,
      "start": 5.5373,
      "duration": 0.5792,
      "velocity": 101,
      "chip": "ym2612"
    },
    {
      "channel": 2,
      "note": 38,
      "start": 5.5382,
      "duration": 0.5791,
      "velocity": 101,
      "chip": "ym2612"
    },
    {
      "channel": 1,
      "note": 38,
      "start": 5.6395,
      "duration": 0.5795,
      "velocity": 101,
      "chip": "ym2612"
    },
    {
      "channel": 5,
      "note": 38,
      "start": 5.7429,
      "duration": 0.5793,
      "velocity": 101,
      "chip": "ym2612"
    },
    {
      "channel": 0,
      "note": 37,
      "start": 6.1512,
      "duration": 0.3925,
      "velocity": 101,
      "chip": "ym2612"
    },
    {
      "channel": 2,
      "note": 37,
      "start": 6.1522,
      "duration": 0.3923,
      "velocity": 101,
      "chip": "ym2612"
    },
    {
      "channel": 1,
      "note": 37,
      "start": 6.2539,
      "duration": 0.3924,
      "velocity": 101,
      "chip": "ym2612"
    },
    {
      "channel": 5,
      "note": 37,
      "start": 6.3574,
      "duration": 0.3919,
      "velocity": 101,
      "chip": "ym2612"
    },
    {
      "channel": 0,
      "note": 90,
      "start": 6.5628,
      "duration": 0.0492,
      "velocity": 95,
      "chip": "ym2612"
    },
    {
      "channel": 2,
      "note": 42,
      "start": 6.5639,
      "duration": 0.5775,
      "velocity": 101,
      "chip": "ym2612"
    },
    {
      "channel": 0,
      "note": 90,
      "start": 6.6637,
      "duration": 0.0506,
      "velocity": 95,
      "chip": "ym2612"
    },
    {
      "channel": 1,
      "note": 42,
      "start": 6.6643,
      "duration": 0.5791,
      "velocity": 101,
      "chip": "ym2612"
    },
    {
      "channel": 3,
      "note": 90,
      "start": 6.6653,
      "duration": 0.0496,
      "velocity": 95,
      "chip": "ym2612"
    },
    {
      "channel": 0,
      "note": 78,
      "start": 6.766,
      "duration": 0.0508,
      "velocity": 95,
      "chip": "ym2612"
    },
    {
      "channel": 3,
      "note": 90,
      "start": 6.7673,
      "duration": 0.0504,
      "velocity": 95,
      "chip": "ym2612"
    },
    {
      "channel": 5,
      "note": 41,
      "start": 6.768,
      "duration": 0.5783,
      "velocity": 101,
      "chip": "ym2612"
    },
    {
      "channel": 0,
      "note": 78,
      "start": 6.8686,
      "duration": 0.0505,
      "velocity": 95,
      "chip": "ym2612"
    },
    {
      "channel": 3,
      "note": 78,
      "start": 6.8702,
      "duration": 0.05,
      "velocity": 95,
      "chip": "ym2612"
    },
    {
      "channel": 0,
      "note": 90,
      "start": 6.9715,
      "duration": 0.05,
      "velocity": 95,
      "chip": "ym2612"
    },
    {
      "channel": 3,
      "note": 78,
      "start": 6.9731,
      "duration": 0.0494,
      "velocity": 95,
      "chip": "ym2612"
    },
    {
      "channel": 0,
      "note": 90,
      "start": 7.0733,
      "duration": 0.0504,
      "velocity": 95,
      "chip": "ym2612"
    },
    {
      "channel": 3,
      "note": 90,
      "start": 7.0751,
      "duration": 0.0496,
      "velocity": 95,
      "chip": "ym2612"
    },
    {
      "channel": 0,
      "note": 78,
      "start": 7.1757,
      "duration": 0.0503,
      "velocity": 95,
      "chip": "ym2612"
    },
    {
      "channel": 2,
      "note": 43,
      "start": 7.1767,
      "duration": 0.5789,
      "velocity": 101,
      "chip": "ym2612"
    },
    {
      "channel": 3,
      "note": 90,
      "start": 7.1776,
      "duration": 0.0493,
      "velocity": 95,
      "chip": "ym2612"
    },
    {
      "channel": 0,
      "note": 90,
      "start": 7.2778,
      "duration": 0.0506,
      "velocity": 95,
      "chip": "ym2612"
    },
    {
      "channel": 1,
      "note": 43,
      "start": 7.2784,
      "duration": 0.579,
      "velocity": 101,
      "chip": "ym2612"
    },
    {
      "channel": 3,
      "note": 78,
      "start": 7.2795,
      "duration": 0.0495,
      "velocity": 95,
      "chip": "ym2612"
    },
    {
      "channel": 0,
      "note": 90,
      "start": 7.3805,
      "duration": 0.0503,
      "velocity": 95,
      "chip": "ym2612"
    },
    {
      "channel": 3,
      "note": 90,
      "start": 7.3818,
      "duration": 0.0498,
      "velocity": 95,
      "chip": "ym2612"
    },
    {
      "channel": 5,
      "note": 42,
      "start": 7.3824,
      "duration": 0.5784,
      "velocity": 101,
      "chip": "ym2612"
    },
    {
      "channel": 0,
      "note": 90,
      "start": 7.4826,
      "duration": 0.0505,
      "velocity": 95,
      "chip": "ym2612"
    },
    {
      "channel": 3,
      "note": 90,
      "start": 7.4845,
      "duration": 0.0496,
      "velocity": 95,
      "chip": "ym2612"
    },
    {
      "channel": 0,
      "note": 90,
      "start": 7.585,
      "duration": 0.0505,
      "velocity": 95,
      "chip": "ym2612"
    },
    {
      "channel": 3,
      "note": 90,
      "start": 7.5866,
      "duration": 0.0498,
      "velocity": 95,
      "chip": "ym2612"
    },
    {
      "channel": 0,
      "note": 78,
      "start": 7.6877,
      "duration": 0.0502,
      "velocity": 95,
      "chip": "ym2612"
    },
    {
      "channel": 3,
      "note": 90,
      "start": 7.6894,
      "duration": 0.0495,
      "velocity": 95,
      "chip": "ym2612"
    },
    {
      "channel": 0,
      "note": 90,
      "start": 7.7897,
      "duration": 0.0505,
      "velocity": 95,
      "chip": "ym2612"
    },
    {
      "channel": 2,
      "note": 39,
      "start": 7.7907,
      "duration": 0.392,
      "velocity": 101,
      "chip": "ym2612"
    },
    {
      "channel": 3,
      "note": 78,
      "start": 7.7916,
      "duration": 0.0494,
      "velocity": 95,
      "chip": "ym2612"
    },
    {
      "channel": 0,
      "note": 90,
      "start": 7.8925,
      "duration": 0.0504,
      "velocity": 95,
      "chip": "ym2612"
    },
    {
      "channel": 1,
      "note": 40,
      "start": 7.893,
      "duration": 0.3916,
      "velocity": 101,
      "chip": "ym2612"
    },
    {
      "channel": 3,
      "note": 90,
      "start": 7.894,
      "duration": 0.0495,
      "velocity": 95,
      "chip": "ym2612"
    },
    {
      "channel": 0,
      "note": 78,
      "start": 7.995,
      "duration": 0.0503,
      "velocity": 95,
      "chip": "ym2612"
    },
    {
      "channel": 3,
      "note": 90,
      "start": 7.9965,
      "duration": 0.0496,
      "velocity": 95,
      "chip": "ym2612"
    },
    {
      "channel": 5,
      "note": 39,
      "start": 7.9971,
      "duration": 0.3907,
      "velocity": 101,
      "chip": "ym2612"
    },
    {
      "channel": 0,
      "note": 78,
      "start": 8.0975,
      "duration": 0.0504,
      "velocity": 95,
      "chip": "ym2612"
    },
    {
      "channel": 3,
      "note": 78,
      "start": 8.0993,
      "duration": 0.0497,
      "velocity": 95,
      "chip": "ym2612"
    },
    {
      "channel": 0,
      "note": 90,
      "start": 8.2002,
      "duration": 0.0501,
      "velocity": 95,
      "chip": "ym2612"
    },
    {
      "channel": 2,
      "note": 42,
      "start": 8.2012,
      "duration": 0.5789,
      "velocity": 101,
      "chip": "ym2612"
    },
    {
      "channel": 3,
      "note": 78,
      "start": 8.2021,
      "duration": 0.0491,
      "velocity": 95,
      "chip": "ym2612"
    },
    {
      "channel": 0,
      "note": 90,
      "start": 8.302,
      "duration": 0.0508,
      "velocity": 95,
      "chip": "ym2612"
    },
    {
      "channel": 1,
      "note": 42,
      "start": 8.3027,
      "duration": 0.5795,
      "velocity": 101,
      "chip": "ym2612"
    },
    {
      "channel": 3,
      "note": 90,
      "start": 8.3042,
      "duration": 0.0493,
      "velocity": 95,
      "chip": "ym2612"
    },
    {
      "channel": 0,
      "note": 78,
      "start": 8.4046,
      "duration": 0.0505,
      "velocity": 95,
      "chip": "ym2612"
    },
    {
      "channel": 3,
      "note": 90,
      "start": 8.4059,
      "duration": 0.05,
      "velocity": 95,
      "chip": "ym2612"
    },
    {
      "channel": 5,
      "note": 41,
      "start": 8.4065,
      "duration": 0.5788,
      "velocity": 101,
      "chip": "ym2612"
    },
    {
      "channel": 0,
      "note": 78,
      "start": 8.5071,
      "duration": 0.0503,
      "velocity": 95,
      "chip": "ym2612"
    },
    {
      "channel": 3,
      "note": 78,
      "start": 8.5086,
      "duration": 0.0498,
      "velocity": 95,
      "chip": "ym2612"
    },
    {
      "channel": 0,
      "note": 90,
      "start": 8.6096,
      "duration": 0.0503,
      "velocity": 95,
      "chip": "ym2612"
    },
    {
      "channel": 3,
      "note": 78,
      "start": 8.6112,
      "duration": 0.0497,
      "velocity": 95,
      "chip": "ym2612"
    },
    {
      "channel": 0,
      "note": 90,
      "start": 8.7119,
      "duration": 0.0507,
      "velocity": 95,
      "chip": "ym2612"
    },
    {
      "channel": 3,
      "note": 90,
      "start": 8.7137,
      "duration": 0.05,
      "velocity": 95,
      "chip": "ym2612"
    },
    {
      "channel": 0,
      "note": 78,
      "start": 8.8145,
      "duration": 0.0504,
      "velocity": 95,
      "chip": "ym2612"
    },
    {
      "channel": 2,
      "note": 46,
      "start": 8.8155,
      "duration": 0.5796,
      "velocity": 101,
      "chip": "ym2612"
    },
    {
      "channel": 3,
      "note": 90,
      "start": 8.8164,
      "duration": 0.0493,
      "velocity": 95,
      "chip": "ym2612"
    },
    {
      "channel": 0,
      "note": 90,
      "start": 8.9166,
      "duration": 0.0508,
      "velocity": 95,
      "chip": "ym2612"
    },
    {
      "channel": 1,
      "note": 46,
      "start": 8.9173,
      "duration": 0.5798,
      "velocity": 101,
      "chip": "ym2612"
    },
    {
      "channel": 3,
      "note": 78,
      "start": 8.9184,
      "duration": 0.0497,
      "velocity": 95,
      "chip": "ym2612"
    },
    {
      "channel": 0,
      "note": 90,
      "start": 9.0194,
      "duration": 0.0503,
      "velocity": 95,
      "chip": "ym2612"
    },
    {
      "channel": 3,
      "note": 90,
      "start": 9.021,
      "duration": 0.0498,
      "velocity": 95,
      "chip": "ym2612"
    },
    {
      "channel": 5,
      "note": 46,
      "start": 9.0217,
      "duration": 0.5785,
      "velocity": 101,
      "chip": "ym2612"
    },
    {
      "channel": 0,
      "note": 90,
      "start": 9.1219,
      "duration": 0.0505,
      "velocity": 95,
      "chip": "ym2612"
    },
    {
      "channel": 3,
      "note": 90,
      "start": 9.1237,
      "duration": 0.0496,
      "velocity": 95,
      "chip": "ym2612"
    },
    {
      "channel": 0,
      "note": 90,
      "start": 9.2244,
      "duration": 0.0506,
      "velocity": 95,
      "chip": "ym2612"
    },
    {
      "channel": 3,
      "note": 90,
      "start": 9.226,
      "duration": 0.05,
      "velocity": 95,
      "chip": "ym2612"
    },
    {
      "channel": 0,
      "note": 78,
      "start": 9.327,
      "duration": 0.0505,
      "velocity": 95,
      "chip": "ym2612"
    },
    {
      "channel": 3,
      "note": 90,
      "start": 9.3287,
      "duration": 0.0498,
      "velocity": 95,
      "chip": "ym2612"
    },
    {
      "channel": 0,
      "note": 90,
      "start": 9.4293,
      "duration": 0.0507,
      "velocity": 95,
      "chip": "ym2612"
    },
    {
      "channel": 2,
      "note": 43,
      "start": 9.4303,
      "duration": 0.3913,
      "velocity": 101,
      "chip": "ym2612"
    },
    {
      "channel": 3,
      "note": 78,
      "start": 9.4312,
      "duration": 0.0495,
      "velocity": 95,
      "chip": "ym2612"
    },
    {
      "channel": 0,
      "note": 90,
      "start": 9.5319,
      "duration": 0.0503,
      "velocity": 95,
      "chip": "ym2612"
    },
    {
      "channel": 1,
      "note": 43,
      "start": 9.5326,
      "duration": 0.391,
      "velocity": 101,
      "chip": "ym2612"
    },
    {
      "channel": 3,
      "note": 90,
      "start": 9.5334,
      "duration": 0.0494,
      "velocity": 95,
      "chip": "ym2612"
    },
    {
      "channel": 0,
      "note": 78,
      "start": 9.6343,
      "duration": 0.0502,
      "velocity": 95,
      "chip": "ym2612"
    },
    {
      "channel": 3,
      "note": 90,
      "start": 9.6359,
      "duration": 0.0495,
      "velocity": 95,
      "chip": "ym2612"
    },
    {
      "channel": 5,
      "note": 42,
      "start": 9.6366,
      "duration": 0.39,
      "velocity": 101,
      "chip": "ym2612"
    },
    {
      "channel": 0,
      "note": 78,
      "start": 9.7366,
      "duration": 0.0507,
      "velocity": 95,
      "chip": "ym2612"
    },
    {
      "channel": 3,
      "note": 78,
      "start": 9.7386,
      "duration": 0.0496,
      "velocity": 95,
      "chip": "ym2612"
    },
    {
      "channel": 0,
      "note": 90,
      "start": 9.8391,
      "duration": 0.0502,
      "velocity": 95,
      "chip": "ym2612"
    },
    {
      "channel": 2,
      "note": 42,
      "start": 9.8401,
      "duration": 0.5787,
      "velocity": 101,
      "chip": "ym2612"
    },
    {
      "channel": 3,
      "note": 78,
      "start": 9.841,
      "duration": 0.0492,
      "velocity": 95,
      "chip": "ym2612"
    },
    {
      "channel": 0,
      "note": 90,
      "start": 9.9409,
      "duration": 0.0507,
      "velocity": 95,
      "chip": "ym2612"
    },
    {
      "channel": 1,
      "note": 42,
      "start": 9.9415,
      "duration": 0.5794,
      "velocity": 101,
      "chip": "ym2612"
    },
    {
      "channel": 3,
      "note": 90,
      "start": 9.9428,
      "duration": 0.0494,
      "velocity": 95,
      "chip": "ym2612"
    },
    {
      "channel": 0,
      "note": 78,
      "start": 10.0433,
      "duration": 0.0506,
      "velocity": 95,
      "chip": "ym2612"
    },
    {
      "channel": 3,
      "note": 90,
      "start": 10.0445,
      "duration": 0.0502,
      "velocity": 95,
      "chip": "ym2612"
    },
    {
      "channel": 5,
      "note": 41,
      "start": 10.0452,
      "duration": 0.5787,
      "velocity": 101,
      "chip": "ym2612"
    },
    {
      "channel": 0,
      "note": 78,
      "start": 10.1459,
      "duration": 0.0504,
      "velocity": 95,
      "chip": "ym2612"
    },
    {
      "channel": 3,
      "note": 78,
      "start": 10.1474,
      "duration": 0.0499,
      "velocity": 95,
      "chip": "ym2612"
    },
    {
      "channel": 0,
      "note": 90,
      "start": 10.2483,
      "duration": 0.0502,
      "velocity": 95,
      "chip": "ym2612"
    },
    {
      "channel": 3,
      "note": 78,
      "start": 10.25,
      "duration": 0.0496,
      "velocity": 95,
      "chip": "ym2612"
    },
    {
      "channel": 0,
      "note": 90,
      "start": 10.3506,
      "duration": 0.0505,
      "velocity": 95,
      "chip": "ym2612"
    },
    {
      "channel": 3,
      "note": 90,
      "start": 10.3523,
      "duration": 0.0498,
      "velocity": 95,
      "chip": "ym2612"
    },
    {
      "channel": 0,
      "note": 78,
      "start": 10.453,
      "duration": 0.0505,
      "velocity": 95,
      "chip": "ym2612"
    },
    {
      "channel": 2,
      "note": 43,
      "start": 10.4542,
      "duration": 0.5795,
      "velocity": 101,
      "chip": "ym2612"
    },
    {
      "channel": 3,
      "note": 90,
      "start": 10.4551,
      "duration": 0.0494,
      "velocity": 95,
      "chip": "ym2612"
    },
    {
      "channel": 0,
      "note": 90,
      "start": 10.5554,
      "duration": 0.0506,
      "velocity": 95,
      "chip": "ym2612"
    },
    {
      "channel": 1,
      "note": 43,
      "start": 10.556,
      "duration": 0.5796,
      "velocity": 101,
      "chip": "ym2612"
    },
    {
      "channel": 3,
      "note": 78,
      "start": 10.5571,
      "duration": 0.0496,
      "velocity": 95,
      "chip": "ym2612"
    },
    {
      "channel": 0,
      "note": 90,
      "start": 10.6583,
      "duration": 0.0504,
      "velocity": 95,
      "chip": "ym2612"
    },
    {
      "channel": 3,
      "note": 90,
      "start": 10.6596,
      "duration": 0.0499,
      "velocity": 95,
      "chip": "ym2612"
    },
    {
      "channel": 5,
      "note": 42,
      "start": 10.6602,
      "duration": 0.5783,
      "velocity": 101,
      "chip": "ym2612"
    },
    {
      "channel": 0,
      "note": 90,
      "start": 10.7607,
      "duration": 0.0505,
      "velocity": 95,
      "chip": "ym2612"
    },
    {
      "channel": 3,
      "note": 90,
      "start": 10.7626,
      "duration": 0.0496,
      "velocity": 95,
      "chip": "ym2612"
    },
    {
      "channel": 0,
      "note": 90,
      "start": 10.8633,
      "duration": 0.0503,
      "velocity": 95,
      "chip": "ym2612"
    },
    {
      "channel": 3,
      "note": 90,
      "start": 10.865,
      "duration": 0.0496,
      "velocity": 95,
      "chip": "ym2612"
    },
    {
      "channel": 0,
      "note": 78,
      "start": 10.9656,
      "duration": 0.0504,
      "velocity": 95,
      "chip": "ym2612"
    },
    {
      "channel": 3,
      "note": 90,
      "start": 10.9673,
      "duration": 0.0498,
      "velocity": 95,
      "chip": "ym2612"
    },
    {
      "channel": 0,
      "note": 90,
      "start": 11.0678,
      "duration": 0.0506,
      "velocity": 95,
      "chip": "ym2612"
    },
    {
      "channel": 2,
      "note": 39,
      "start": 11.0688,
      "duration": 0.3912,
      "velocity": 101,
      "chip": "ym2612"
    },
    {
      "channel": 3,
      "note": 78,
      "start": 11.0697,
      "duration": 0.0495,
      "velocity": 95,
      "chip": "ym2612"
    },
    {
      "channel": 0,
      "note": 90,
      "start": 11.1705,
      "duration": 0.0504,
      "velocity": 95,
      "chip": "ym2612"
    },
    {
      "channel": 1,
      "note": 40,
      "start": 11.1711,
      "duration": 0.3908,
      "velocity": 101,
      "chip": "ym2612"
    },
    {
      "channel": 3,
      "note": 90,
      "start": 11.1721,
      "duration": 0.0494,
      "velocity": 95,
      "chip": "ym2612"
    },
    {
      "channel": 0,
      "note": 78,
      "start": 11.2726,
      "duration": 0.0505,
      "velocity": 95,
      "chip": "ym2612"
    },
    {
      "channel": 3,
      "note": 90,
      "start": 11.2741,
      "duration": 0.0498,
      "velocity": 95,
      "chip": "ym2612"
    },
    {
      "channel": 5,
      "note": 39,
      "start": 11.2748,
      "duration": 0.3901,
      "velocity": 101,
      "chip": "ym2612"
    },
    {
      "channel": 0,
      "note": 78,
      "start": 11.3749,
      "duration": 0.0505,
      "velocity": 95,
      "chip": "ym2612"
    },
    {
      "channel": 3,
      "note": 78,
      "start": 11.3766,
      "duration": 0.0497,
      "velocity": 95,
      "chip": "ym2612"
    },
    {
      "channel": 0,
      "note": 90,
      "start": 11.4775,
      "duration": 0.0501,
      "velocity": 95,
      "chip": "ym2612"
    },
    {
      "channel": 2,
      "note": 42,
      "start": 11.4785,
      "duration": 0.579,
      "velocity": 101,
      "chip": "ym2612"
    },
    {
      "channel": 3,
      "note": 78,
      "start": 11.4794,
      "duration": 0.0491,
      "velocity": 95,
      "chip": "ym2612"
    },
    {
      "channel": 0,
      "note": 90,
      "start": 11.5793,
      "duration": 0.0507,
      "velocity": 95,
      "chip": "ym2612"
    },
    {
      "channel": 1,
      "note": 42,
      "start": 11.58,
      "duration": 0.5798,
      "velocity": 101,
      "chip": "ym2612"
    },
    {
      "channel": 3,
      "note": 90,
      "start": 11.5812,
      "duration": 0.0494,
      "velocity": 95,
      "chip": "ym2612"
    },
    {
      "channel": 0,
      "note": 78,
      "start": 11.6817,
      "duration": 0.0506,
      "velocity": 95,
      "chip": "ym2612"
    },
    {
      "channel": 3,
      "note": 90,
      "start": 11.683,
      "duration": 0.0501,
      "velocity": 95,
      "chip": "ym2612"
    },
    {
      "channel": 5,
      "note": 39,
      "start": 11.6842,
      "duration": 1.3475,
      "velocity": 101,
      "chip": "ym2612"
    },
    {
      "channel": 0,
      "note": 78,
      "start": 11.7844,
      "duration": 0.0505,
      "velocity": 95,
      "chip": "ym2612"
    },
    {
      "channel": 3,
      "note": 78,
      "start": 11.7859,
      "duration": 0.0499,
      "velocity": 95,
      "chip": "ym2612"
    },
    {
      "channel": 0,
      "note": 90,
      "start": 11.8868,
      "duration": 0.0507,
      "velocity": 95,
      "chip": "ym2612"
    },
    {
      "channel": 3,
      "note": 78,
      "start": 11.8887,
      "duration": 0.0498,
      "velocity": 95,
      "chip": "ym2612"
    },
    {
      "channel": 0,
      "note": 90,
      "start": 11.9894,
      "duration": 0.0504,
      "velocity": 95,
      "chip": "ym2612"
    },
    {
      "channel": 3,
      "note": 90,
      "start": 11.9911,
      "duration": 0.0497,
      "velocity": 95,
      "chip": "ym2612"
    },
    {
      "channel": 0,
      "note": 78,
      "start": 12.0918,
      "duration": 0.0506,
      "velocity": 95,
      "chip": "ym2612"
    },
    {
      "channel": 2,
      "note": 38,
      "start": 12.0928,
      "duration": 0.5798,
      "velocity": 101,
      "chip": "ym2612"
    },
    {
      "channel": 3,
      "note": 90,
      "start": 12.0937,
      "duration": 0.0496,
      "velocity": 95,
      "chip": "ym2612"
    },
    {
      "channel": 0,
      "note": 90,
      "start": 12.1943,
      "duration": 0.0506,
      "velocity": 95,
      "chip": "ym2612"
    },
    {
      "channel": 1,
      "note": 42,
      "start": 12.195,
      "duration": 0.9721,
      "velocity": 101,
      "chip": "ym2612"
    },
    {
      "channel": 3,
      "note": 78,
      "start": 12.196,
      "duration": 0.0498,
      "velocity": 95,
      "chip": "ym2612"
    },
    {
      "channel": 0,
      "note": 90,
      "start": 12.2971,
      "duration": 0.0503,
      "velocity": 95,
      "chip": "ym2612"
    },
    {
      "channel": 3,
      "note": 90,
      "start": 12.2988,
      "duration": 0.0499,
      "velocity": 95,
      "chip": "ym2612"
    },
    {
      "channel": 0,
      "note": 90,
      "start": 12.3995,
      "duration": 0.0504,
      "velocity": 95,
      "chip": "ym2612"
    },
    {
      "channel": 3,
      "note": 90,
      "start": 12.4016,
      "duration": 0.0496,
      "velocity": 95,
      "chip": "ym2612"
    },
    {
      "channel": 0,
      "note": 90,
      "start": 12.5019,
      "duration": 0.0505,
      "velocity": 95,
      "chip": "ym2612"
    },
    {
      "channel": 3,
      "note": 90,
      "start": 12.5041,
      "duration": 0.0498,
      "velocity": 95,
      "chip": "ym2612"
    },
    {
      "channel": 0,
      "note": 78,
      "start": 12.6046,
      "duration": 0.0501,
      "velocity": 95,
      "chip": "ym2612"
    },
    {
      "channel": 3,
      "note": 90,
      "start": 12.6065,
      "duration": 0.0495,
      "velocity": 95,
      "chip": "ym2612"
    },
    {
      "channel": 0,
      "note": 90,
      "start": 12.7066,
      "duration": 0.0505,
      "velocity": 95,
      "chip": "ym2612"
    },
    {
      "channel": 2,
      "note": 37,
      "start": 12.7079,
      "duration": 0.3912,
      "velocity": 101,
      "chip": "ym2612"
    },
    {
      "channel": 3,
      "note": 78,
      "start": 12.7088,
      "duration": 0.0494,
      "velocity": 95,
      "chip": "ym2612"
    },
    {
      "channel": 0,
      "note": 90,
      "start": 12.8091,
      "duration": 0.0503,
      "velocity": 95,
      "chip": "ym2612"
    },
    {
      "channel": 3,
      "note": 90,
      "start": 12.8106,
      "duration": 0.0499,
      "velocity": 95,
      "chip": "ym2612"
    },
    {
      "channel": 0,
      "note": 78,
      "start": 12.9114,
      "duration": 0.0504,
      "velocity": 95,
      "chip": "ym2612"
    },
    {
      "channel": 3,
      "note": 90,
      "start": 12.9134,
      "duration": 0.0497,
      "velocity": 95,
      "chip": "ym2612"
    },
    {
      "channel": 0,
      "note": 78,
      "start": 13.0139,
      "duration": 0.0504,
      "velocity": 95,
      "chip": "ym2612"
    },
    {
      "channel": 3,
      "note": 78,
      "start": 13.0158,
      "duration": 0.0498,
      "velocity": 95,
      "chip": "ym2612"
    },
    {
      "channel": 0,
      "note": 90,
      "start": 13.1164,
      "duration": 0.0504,
      "velocity": 95,
      "chip": "ym2612"
    },
    {
      "channel": 2,
      "note": 42,
      "start": 13.1178,
      "duration": 0.5793,
      "velocity": 101,
      "chip": "ym2612"
    },
    {
      "channel": 3,
      "note": 78,
      "start": 13.1187,
      "duration": 0.0492,
      "velocity": 95,
      "chip": "ym2612"
    },
    {
      "channel": 5,
      "note": 52,
      "start": 13.1211,
      "duration": 0.0812,
      "velocity": 93,
      "chip": "ym2612"
    },
    {
      "channel": 0,
      "note": 90,
      "start": 13.2185,
      "duration": 0.0508,
      "velocity": 95,
      "chip": "ym2612"
    },
    {
      "channel": 1,
      "note": 42,
      "start": 13.2193,
      "duration": 0.5798,
      "velocity": 101,
      "chip": "ym2612"
    },
    {
      "channel": 3,
      "note": 90,
      "start": 13.2208,
      "duration": 0.0492,
      "velocity": 95,
      "chip": "ym2612"
    },
    {
      "channel": 5,
      "note": 54,
      "start": 13.2214,
      "duration": 0.1856,
      "velocity": 93,
      "chip": "ym2612"
    },
    {
      "channel": 0,
      "note": 78,
      "start": 13.3213,
      "duration": 0.0506,
      "velocity": 95,
      "chip": "ym2612"
    },
    {
      "channel": 3,
      "note": 90,
      "start": 13.3226,
      "duration": 0.0502,
      "velocity": 95,
      "chip": "ym2612"
    },
    {
      "channel": 0,
      "note": 78,
      "start": 13.4239,
      "duration": 0.0505,
      "velocity": 95,
      "chip": "ym2612"
    },
    {
      "channel": 3,
      "note": 78,
      "start": 13.4254,
      "duration": 0.05,
      "velocity": 95,
      "chip": "ym2612"
    },
    {
      "channel": 5,
      "note": 52,
      "start": 13.426,
      "duration": 0.0839,
      "velocity": 93,
      "chip": "ym2612"
    },
    {
      "channel": 0,
      "note": 90,
      "start": 13.5266,
      "duration": 0.0504,
      "velocity": 95,
      "chip": "ym2612"
    },
    {
      "channel": 3,
      "note": 78,
      "start": 13.5282,
      "duration": 0.0498,
      "velocity": 95,
      "chip": "ym2612"
    },
    {
      "channel": 5,
      "note": 54,
      "start": 13.5289,
      "duration": 0.1859,
      "velocity": 93,
      "chip": "ym2612"
    },
    {
      "channel": 0,
      "note": 90,
      "start": 13.629,
      "duration": 0.0505,
      "velocity": 95,
      "chip": "ym2612"
    },
    {
      "channel": 3,
      "note": 90,
      "start": 13.6307,
      "duration": 0.0498,
      "velocity": 95,
      "chip": "ym2612"
    },
    {
      "channel": 0,
      "note": 78,
      "start": 13.7314,
      "duration": 0.0504,
      "velocity": 95,
      "chip": "ym2612"
    },
    {
      "channel": 2,
      "note": 43,
      "start": 13.7324,
      "duration": 0.5794,
      "velocity": 101,
      "chip": "ym2612"
    },
    {
      "channel": 3,
      "note": 90,
      "start": 13.7332,
      "duration": 0.0494,
      "velocity": 95,
      "chip": "ym2612"
    },
    {
      "channel": 5,
      "note": 52,
      "start": 13.7339,
      "duration": 0.083,
      "velocity": 93,
      "chip": "ym2612"
    },
    {
      "channel": 0,
      "note": 90,
      "start": 13.8335,
      "duration": 0.0507,
      "velocity": 95,
      "chip": "ym2612"
    },
    {
      "channel": 1,
      "note": 43,
      "start": 13.8341,
      "duration": 0.5799,
      "velocity": 101,
      "chip": "ym2612"
    },
    {
      "channel": 3,
      "note": 78,
      "start": 13.8352,
      "duration": 0.0497,
      "velocity": 95,
      "chip": "ym2612"
    },
    {
      "channel": 5,
      "note": 54,
      "start": 13.8358,
      "duration": 0.1863,
      "velocity": 93,
      "chip": "ym2612"
    },
    {
      "channel": 0,
      "note": 90,
      "start": 13.9363,
      "duration": 0.0505,
      "velocity": 95,
      "chip": "ym2612"
    },
    {
      "channel": 3,
      "note": 90,
      "start": 13.9379,
      "duration": 0.0499,
      "velocity": 95,
      "chip": "ym2612"
    },
    {
      "channel": 0,
      "note": 90,
      "start": 14.0388,
      "duration": 0.0505,
      "velocity": 95,
      "chip": "ym2612"
    },
    {
      "channel": 3,
      "note": 90,
      "start": 14.0407,
      "duration": 0.0496,
      "velocity": 95,
      "chip": "ym2612"
    },
    {
      "channel": 5,
      "note": 52,
      "start": 14.0413,
      "duration": 0.0833,
      "velocity": 93,
      "chip": "ym2612"
    },
    {
      "channel": 0,
      "note": 90,
      "start": 14.1413,
      "duration": 0.0505,
      "velocity": 95,
      "chip": "ym2612"
    },
    {
      "channel": 3,
      "note": 90,
      "start": 14.1429,
      "duration": 0.0499,
      "velocity": 95,
      "chip": "ym2612"
    },
    {
      "channel": 5,
      "note": 54,
      "start": 14.1435,
      "duration": 0.1859,
      "velocity": 93,
      "chip": "ym2612"
    },
    {
      "channel": 0,
      "note": 78,
      "start": 14.2438,
      "duration": 0.0502,
      "velocity": 95,
      "chip": "ym2612"
    },
    {
      "channel": 3,
      "note": 90,
      "start": 14.2455,
      "duration": 0.0496,
      "velocity": 95,
      "chip": "ym2612"
    },
    {
      "channel": 0,
      "note": 90,
      "start": 14.3459,
      "duration": 0.0508,
      "velocity": 95,
      "chip": "ym2612"
    },
    {
      "channel": 2,
      "note": 39,
      "start": 14.3469,
      "duration": 0.392,
      "velocity": 101,
      "chip": "ym2612"
    },
    {
      "channel": 3,
      "note": 78,
      "start": 14.3478,
      "duration": 0.0498,
      "velocity": 95,
      "chip": "ym2612"
    },
    {
      "channel": 5,
      "note": 47,
      "start": 14.3484,
      "duration": 0.1859,
      "velocity": 93,
      "chip": "ym2612"
    },
    {
      "channel": 0,
      "note": 90,
      "start": 14.4488,
      "duration": 0.0505,
      "velocity": 95,
      "chip": "ym2612"
    },
    {
      "channel": 1,
      "note": 40,
      "start": 14.4493,
      "duration": 0.3915,
      "velocity": 101,
      "chip": "ym2612"
    },
    {
      "channel": 3,
      "note": 90,
      "start": 14.4503,
      "duration": 0.0496,
      "velocity": 95,
      "chip": "ym2612"
    },
    {
      "channel": 0,
      "note": 78,
      "start": 14.5514,
      "duration": 0.0504,
      "velocity": 95,
      "chip": "ym2612"
    },
    {
      "channel": 3,
      "note": 90,
      "start": 14.5529,
      "duration": 0.0497,
      "velocity": 95,
      "chip": "ym2612"
    },
    {
      "channel": 5,
      "note": 49,
      "start": 14.5535,
      "duration": 0.1861,
      "velocity": 93,
      "chip": "ym2612"
    },
    {
      "channel": 0,
      "note": 78,
      "start": 14.654,
      "duration": 0.0502,
      "velocity": 95,
      "chip": "ym2612"
    },
    {
      "channel": 3,
      "note": 78,
      "start": 14.6558,
      "duration": 0.0495,
      "velocity": 95,
      "chip": "ym2612"
    },
    {
      "channel": 0,
      "note": 90,
      "start": 14.7564,
      "duration": 0.0502,
      "velocity": 95,
      "chip": "ym2612"
    },
    {
      "channel": 2,
      "note": 42,
      "start": 14.7574,
      "duration": 0.5787,
      "velocity": 101,
      "chip": "ym2612"
    },
    {
      "channel": 3,
      "note": 78,
      "start": 14.7583,
      "duration": 0.0492,
      "velocity": 95,
      "chip": "ym2612"
    },
    {
      "channel": 5,
      "note": 52,
      "start": 14.759,
      "duration": 0.0828,
      "velocity": 93,
      "chip": "ym2612"
    },
    {
      "channel": 0,
      "note": 90,
      "start": 14.8583,
      "duration": 0.0508,
      "velocity": 95,
      "chip": "ym2612"
    },
    {
      "channel": 1,
      "note": 42,
      "start": 14.8589,
      "duration": 0.5795,
      "velocity": 101,
      "chip": "ym2612"
    },
    {
      "channel": 3,
      "note": 90,
      "start": 14.8602,
      "duration": 0.0495,
      "velocity": 95,
      "chip": "ym2612"
    },
    {
      "channel": 5,
      "note": 54,
      "start": 14.8607,
      "duration": 0.1858,
      "velocity": 93,
      "chip": "ym2612"
    },
    {
      "channel": 0,
      "note": 78,
      "start": 14.9607,
      "duration": 0.0506,
      "velocity": 95,
      "chip": "ym2612"
    },
    {
      "channel": 3,
      "note": 90,
      "start": 14.962,
      "duration": 0.0501,
      "velocity": 95,
      "chip": "ym2612"
    },
    {
      "channel": 0,
      "note": 78,
      "start": 15.0633,
      "duration": 0.0504,
      "velocity": 95,
      "chip": "ym2612"
    },
    {
      "channel": 3,
      "note": 78,
      "start": 15.0648,
      "duration": 0.0499,
      "velocity": 95,
      "chip": "ym2612"
    },
    {
      "channel": 5,
      "note": 52,
      "start": 15.0654,
      "duration": 0.0837,
      "velocity": 93,
      "chip": "ym2612"
    },
    {
      "channel": 0,
      "note": 90,
      "start": 15.1658,
      "duration": 0.0503,
      "velocity": 95,
      "chip": "ym2612"
    },
    {
      "channel": 3,
      "note": 78,
      "start": 15.1674,
      "duration": 0.0497,
      "velocity": 95,
      "chip": "ym2612"
    },
    {
      "channel": 5,
      "note": 54,
      "start": 15.168,
      "duration": 0.1859,
      "velocity": 93,
      "chip": "ym2612"
    },
    {
      "channel": 0,
      "note": 90,
      "start": 15.2682,
      "duration": 0.0503,
      "velocity": 95,
      "chip": "ym2612"
    },
    {
      "channel": 3,
      "note": 90,
      "start": 15.27,
      "duration": 0.0495,
      "velocity": 95,
      "chip": "ym2612"
    },
    {
      "channel": 0,
      "note": 78,
      "start": 15.3707,
      "duration": 0.0504,
      "velocity": 95,
      "chip": "ym2612"
    },
    {
      "channel": 2,
      "note": 46,
      "start": 15.3717,
      "duration": 0.5793,
      "velocity": 101,
      "chip": "ym2612"
    },
    {
      "channel": 3,
      "note": 90,
      "start": 15.3726,
      "duration": 0.0493,
      "velocity": 95,
      "chip": "ym2612"
    },
    {
      "channel": 5,
      "note": 52,
      "start": 15.3732,
      "duration": 0.0831,
      "velocity": 93,
      "chip": "ym2612"
    },
    {
      "channel": 0,
      "note": 90,
      "start": 15.4729,
      "duration": 0.0507,
      "velocity": 95,
      "chip": "ym2612"
    },
    {
      "channel": 1,
      "note": 46,
      "start": 15.4735,
      "duration": 0.5795,
      "velocity": 101,
      "chip": "ym2612"
    },
    {
      "channel": 3,
      "note": 78,
      "start": 15.4746,
      "duration": 0.0496,
      "velocity": 95,
      "chip": "ym2612"
    },
    {
      "channel": 5,
      "note": 54,
      "start": 15.4752,
      "duration": 0.1862,
      "velocity": 93,
      "chip": "ym2612"
    },
    {
      "channel": 0,
      "note": 90,
      "start": 15.5759,
      "duration": 0.0503,
      "velocity": 95,
      "chip": "ym2612"
    },
    {
      "channel": 3,
      "note": 90,
      "start": 15.5772,
      "duration": 0.0498,
      "velocity": 95,
      "chip": "ym2612"
    },
    {
      "channel": 0,
      "note": 90,
      "start": 15.6782,
      "duration": 0.0504,
      "velocity": 95,
      "chip": "ym2612"
    },
    {
      "channel": 3,
      "note": 90,
      "start": 15.6801,
      "duration": 0.0496,
      "velocity": 95,
      "chip": "ym2612"
    },
    {
      "channel": 5,
      "note": 52,
      "start": 15.6806,
      "duration": 0.0835,
      "velocity": 93,
      "chip": "ym2612"
    },
    {
      "channel": 0,
      "note": 90,
      "start": 15.7808,
      "duration": 0.0503,
      "velocity": 95,
      "chip": "ym2612"
    },
    {
      "channel": 3,
      "note": 90,
      "start": 15.7824,
      "duration": 0.0498,
      "velocity": 95,
      "chip": "ym2612"
    },
    {
      "channel": 5,
      "note": 54,
      "start": 15.783,
      "duration": 0.1857,
      "velocity": 93,
      "chip": "ym2612"
    },
    {
      "channel": 0,
      "note": 78,
      "start": 15.8831,
      "duration": 0.0505,
      "velocity": 95,
      "chip": "ym2612"
    },
    {
      "channel": 3,
      "note": 90,
      "start": 15.8847,
      "duration": 0.0498,
      "velocity": 95,
      "chip": "ym2612"
    },
    {
      "channel": 0,
      "note": 90,
      "start": 15.9852,
      "duration": 0.0506,
      "velocity": 95,
      "chip": "ym2612"
    },
    {
      "channel": 2,
      "note": 43,
      "start": 15.9862,
      "duration": 0.3913,
      "velocity": 101,
      "chip": "ym2612"
    },
    {
      "channel": 3,
      "note": 78,
      "start": 15.9874,
      "duration": 0.0492,
      "velocity": 95,
      "chip": "ym2612"
    },
    {
      "channel": 5,
      "note": 47,
      "start": 15.988,
      "duration": 0.185,
      "velocity": 93,
      "chip": "ym2612"
    },
    {
      "channel": 0,
      "note": 90,
      "start": 16.088,
      "duration": 0.0501,
      "velocity": 95,
      "chip": "ym2612"
    },
    {
      "channel": 1,
      "note": 43,
      "start": 16.0887,
      "duration": 0.3908,
      "velocity": 101,
      "chip": "ym2612"
    },
    {
      "channel": 3,
      "note": 90,
      "start": 16.0896,
      "duration": 0.0491,
      "velocity": 95,
      "chip": "ym2612"
    },
    {
      "channel": 0,
      "note": 78,
      "start": 16.1901,
      "duration": 0.0503,
      "velocity": 95,
      "chip": "ym2612"
    },
    {
      "channel": 3,
      "note": 90,
      "start": 16.1916,
      "duration": 0.0496,
      "velocity": 95,
      "chip": "ym2612"
    },
    {
      "channel": 5,
      "note": 49,
      "start": 16.1922,
      "duration": 0.1859,
      "velocity": 93,
      "chip": "ym2612"
    },
    {
      "channel": 0,
      "note": 78,
      "start": 16.2924,
      "duration": 0.0504,
      "velocity": 95,
      "chip": "ym2612"
    },
    {
      "channel": 3,
      "note": 78,
      "start": 16.2941,
      "duration": 0.0496,
      "velocity": 95,
      "chip": "ym2612"
    },
    {
      "channel": 0,
      "note": 90,
      "start": 16.395,
      "duration": 0.0502,
      "velocity": 95,
      "chip": "ym2612"
    },
    {
      "channel": 2,
      "note": 42,
      "start": 16.3959,
      "duration": 0.5785,
      "velocity": 101,
      "chip": "ym2612"
    },
    {
      "channel": 3,
      "note": 78,
      "start": 16.3968,
      "duration": 0.0492,
      "velocity": 95,
      "chip": "ym2612"
    },
    {
      "channel": 5,
      "note": 52,
      "start": 16.3975,
      "duration": 0.0828,
      "velocity": 93,
      "chip": "ym2612"
    },
    {
      "channel": 0,
      "note": 90,
      "start": 16.4967,
      "duration": 0.0507,
      "velocity": 95,
      "chip": "ym2612"
    },
    {
      "channel": 1,
      "note": 42,
      "start": 16.4974,
      "duration": 0.5795,
      "velocity": 101,
      "chip": "ym2612"
    },
    {
      "channel": 3,
      "note": 90,
      "start": 16.4986,
      "duration": 0.0494,
      "velocity": 95,
      "chip": "ym2612"
    },
    {
      "channel": 5,
      "note": 54,
      "start": 16.4992,
      "duration": 0.1856,
      "velocity": 93,
      "chip": "ym2612"
    },
    {
      "channel": 0,
      "note": 78,
      "start": 16.599,
      "duration": 0.0507,
      "velocity": 95,
      "chip": "ym2612"
    },
    {
      "channel": 3,
      "note": 90,
      "start": 16.6003,
      "duration": 0.0502,
      "velocity": 95,
      "chip": "ym2612"
    },
    {
      "channel": 0,
      "note": 78,
      "start": 16.7016,
      "duration": 0.0505,
      "velocity": 95,
      "chip": "ym2612"
    },
    {
      "channel": 3,
      "note": 78,
      "start": 16.7032,
      "duration": 0.05,
      "velocity": 95,
      "chip": "ym2612"
    },
    {
      "channel": 5,
      "note": 52,
      "start": 16.704,
      "duration": 0.0837,
      "velocity": 93,
      "chip": "ym2612"
    },
    {
      "channel": 0,
      "note": 90,
      "start": 16.8045,
      "duration": 0.0501,
      "velocity": 95,
      "chip": "ym2612"
    },
    {
      "channel": 3,
      "note": 78,
      "start": 16.8061,
      "duration": 0.0495,
      "velocity": 95,
      "chip": "ym2612"
    },
    {
      "channel": 5,
      "note": 54,
      "start": 16.8067,
      "duration": 0.1854,
      "velocity": 93,
      "chip": "ym2612"
    },
    {
      "channel": 0,
      "note": 90,
      "start": 16.9065,
      "duration": 0.0503,
      "velocity": 95,
      "chip": "ym2612"
    },
    {
      "channel": 3,
      "note": 90,
      "start": 16.9083,
      "duration": 0.0496,
      "velocity": 95,
      "chip": "ym2612"
    },
    {
      "channel": 0,
      "note": 78,
      "start": 17.0091,
      "duration": 0.0504,
      "velocity": 95,
      "chip": "ym2612"
    },
    {
      "channel": 2,
      "note": 43,
      "start": 17.0101,
      "duration": 0.5793,
      "velocity": 101,
      "chip": "ym2612"
    },
    {
      "channel": 3,
      "note": 90,
      "start": 17.011,
      "duration": 0.0493,
      "velocity": 95,
      "chip": "ym2612"
    },
    {
      "channel": 5,
      "note": 52,
      "start": 17.0116,
      "duration": 0.0831,
      "velocity": 93,
      "chip": "ym2612"
    },
    {
      "channel": 0,
      "note": 90,
      "start": 17.1113,
      "duration": 0.0506,
      "velocity": 95,
      "chip": "ym2612"
    },
    {
      "channel": 1,
      "note": 43,
      "start": 17.1119,
      "duration": 0.5795,
      "velocity": 101,
      "chip": "ym2612"
    },
    {
      "channel": 3,
      "note": 78,
      "start": 17.113,
      "duration": 0.0496,
      "velocity": 95,
      "chip": "ym2612"
    },
    {
      "channel": 5,
      "note": 54,
      "start": 17.1136,
      "duration": 0.1862,
      "velocity": 93,
      "chip": "ym2612"
    },
    {
      "channel": 0,
      "note": 90,
      "start": 17.2143,
      "duration": 0.0503,
      "velocity": 95,
      "chip": "ym2612"
    },
    {
      "channel": 3,
      "note": 90,
      "start": 17.2156,
      "duration": 0.0498,
      "velocity": 95,
      "chip": "ym2612"
    },
    {
      "channel": 0,
      "note": 90,
      "start": 17.3166,
      "duration": 0.0505,
      "velocity": 95,
      "chip": "ym2612"
    },
    {
      "channel": 3,
      "note": 90,
      "start": 17.3185,
      "duration": 0.0497,
      "velocity": 95,
      "chip": "ym2612"
    },
    {
      "channel": 5,
      "note": 52,
      "start": 17.3191,
      "duration": 0.0833,
      "velocity": 93,
      "chip": "ym2612"
    },
    {
      "channel": 0,
      "note": 90,
      "start": 17.4191,
      "duration": 0.0503,
      "velocity": 95,
      "chip": "ym2612"
    },
    {
      "channel": 3,
      "note": 90,
      "start": 17.421,
      "duration": 0.0498,
      "velocity": 95,
      "chip": "ym2612"
    },
    {
      "channel": 5,
      "note": 54,
      "start": 17.4216,
      "duration": 0.1855,
      "velocity": 93,
      "chip": "ym2612"
    },
    {
      "channel": 0,
      "note": 78,
      "start": 17.5216,
      "duration": 0.0501,
      "velocity": 95,
      "chip": "ym2612"
    },
    {
      "channel": 3,
      "note": 90,
      "start": 17.5233,
      "duration": 0.0495,
      "velocity": 95,
      "chip": "ym2612"
    },
    {
      "channel": 0,
      "note": 90,
      "start": 17.6236,
      "duration": 0.0505,
      "velocity": 95,
      "chip": "ym2612"
    },
    {
      "channel": 2,
      "note": 39,
      "start": 17.6246,
      "duration": 0.3912,
      "velocity": 101,
      "chip": "ym2612"
    },
    {
      "channel": 3,
      "note": 78,
      "start": 17.6255,
      "duration": 0.0494,
      "velocity": 95,
      "chip": "ym2612"
    },
    {
      "channel": 5,
      "note": 47,
      "start": 17.6261,
      "duration": 0.1854,
      "velocity": 93,
      "chip": "ym2612"
    },
    {
      "channel": 0,
      "note": 90,
      "start": 17.7262,
      "duration": 0.0502,
      "velocity": 95,
      "chip": "ym2612"
    },
    {
      "channel": 1,
      "note": 40,
      "start": 17.7268,
      "duration": 0.391,
      "velocity": 101,
      "chip": "ym2612"
    },
    {
      "channel": 3,
      "note": 90,
      "start": 17.7277,
      "duration": 0.0493,
      "velocity": 95,
      "chip": "ym2612"
    },
    {
      "channel": 0,
      "note": 78,
      "start": 17.8285,
      "duration": 0.0503,
      "velocity": 95,
      "chip": "ym2612"
    },
    {
      "channel": 3,
      "note": 90,
      "start": 17.83,
      "duration": 0.0496,
      "velocity": 95,
      "chip": "ym2612"
    },
    {
      "channel": 5,
      "note": 49,
      "start": 17.8306,
      "duration": 0.1858,
      "velocity": 93,
      "chip": "ym2612"
    },
    {
      "channel": 0,
      "note": 78,
      "start": 17.9307,
      "duration": 0.0505,
      "velocity": 95,
      "chip": "ym2612"
    },
    {
      "channel": 3,
      "note": 78,
      "start": 17.9325,
      "duration": 0.0498,
      "velocity": 95,
      "chip": "ym2612"
    },
    {
      "channel": 0,
      "note": 90,
      "start": 18.0332,
      "duration": 0.0503,
      "velocity": 95,
      "chip": "ym2612"
    },
    {
      "channel": 2,
      "note": 42,
      "start": 18.0342,
      "duration": 0.5793,
      "velocity": 101,
      "chip": "ym2612"
    },
    {
      "channel": 3,
      "note": 78,
      "start": 18.0351,
      "duration": 0.0492,
      "velocity": 95,
      "chip": "ym2612"
    },
    {
      "channel": 5,
      "note": 52,
      "start": 18.0358,
      "duration": 0.0827,
      "velocity": 93,
      "chip": "ym2612"
    },
    {
      "channel": 0,
      "note": 90,
      "start": 18.1352,
      "duration": 0.0506,
      "velocity": 95,
      "chip": "ym2612"
    },
    {
      "channel": 1,
      "note": 42,
      "start": 18.1358,
      "duration": 0.5798,
      "velocity": 101,
      "chip": "ym2612"
    },
    {
      "channel": 3,
      "note": 90,
      "start": 18.1373,
      "duration": 0.0491,
      "velocity": 95,
      "chip": "ym2612"
    },
    {
      "channel": 5,
      "note": 54,
      "start": 18.1379,
      "duration": 0.1855,
      "velocity": 93,
      "chip": "ym2612"
    },
    {
      "channel": 0,
      "note": 78,
      "start": 18.2378,
      "duration": 0.0505,
      "velocity": 95,
      "chip": "ym2612"
    },
    {
      "channel": 3,
      "note": 90,
      "start": 18.2391,
      "duration": 0.05,
      "velocity": 95,
      "chip": "ym2612"
    },
    {
      "channel": 0,
      "note": 78,
      "start": 18.3402,
      "duration": 0.0504,
      "velocity": 95,
      "chip": "ym2612"
    },
    {
      "channel": 3,
      "note": 78,
      "start": 18.3417,
      "duration": 0.0499,
      "velocity": 95,
      "chip": "ym2612"
    },
    {
      "channel": 5,
      "note": 52,
      "start": 18.3423,
      "duration": 0.0839,
      "velocity": 93,
      "chip": "ym2612"
    },
    {
      "channel": 0,
      "note": 90,
      "start": 18.4429,
      "duration": 0.0505,
      "velocity": 95,
      "chip": "ym2612"
    },
    {
      "channel": 3,
      "note": 78,
      "start": 18.4445,
      "duration": 0.0498,
      "velocity": 95,
      "chip": "ym2612"
    },
    {
      "channel": 5,
      "note": 54,
      "start": 18.4451,
      "duration": 0.1861,
      "velocity": 93,
      "chip": "ym2612"
    },
    {
      "channel": 0,
      "note": 90,
      "start": 18.5453,
      "duration": 0.0506,
      "velocity": 95,
      "chip": "ym2612"
    },
    {
      "channel": 3,
      "note": 90,
      "start": 18.5471,
      "duration": 0.0499,
      "velocity": 95,
      "chip": "ym2612"
    },
    {
      "channel": 0,
      "note": 78,
      "start": 18.6479,
      "duration": 0.0505,
      "velocity": 95,
      "chip": "ym2612"
    },
    {
      "channel": 2,
      "note": 38,
      "start": 18.6489,
      "duration": 0.5789,
      "velocity": 101,
      "chip": "ym2612"
    },
    {
      "channel": 3,
      "note": 90,
      "start": 18.6498,
      "duration": 0.0494,
      "velocity": 95,
      "chip": "ym2612"
    },
    {
      "channel": 5,
      "note": 52,
      "start": 18.6504,
      "duration": 0.0832,
      "velocity": 93,
      "chip": "ym2612"
    },
    {
      "channel": 0,
      "note": 90,
      "start": 18.7501,
      "duration": 0.0507,
      "velocity": 95,
      "chip": "ym2612"
    },
    {
      "channel": 1,
      "note": 38,
      "start": 18.7507,
      "duration": 0.4938,
      "velocity": 101,
      "chip": "ym2612"
    },
    {
      "channel": 3,
      "note": 78,
      "start": 18.7518,
      "duration": 0.0497,
      "velocity": 95,
      "chip": "ym2612"
    },
    {
      "channel": 5,
      "note": 54,
      "start": 18.7524,
      "duration": 0.1861,
      "velocity": 93,
      "chip": "ym2612"
    },
    {
      "channel": 0,
      "note": 90,
      "start": 18.8529,
      "duration": 0.0502,
      "velocity": 95,
      "chip": "ym2612"
    },
    {
      "channel": 3,
      "note": 90,
      "start": 18.8545,
      "duration": 0.0498,
      "velocity": 95,
      "chip": "ym2612"
    },
    {
      "channel": 0,
      "note": 90,
      "start": 18.9551,
      "duration": 0.0503,
      "velocity": 95,
      "chip": "ym2612"
    },
    {
      "channel": 3,
      "note": 90,
      "start": 18.957,
      "duration": 0.0495,
      "velocity": 95,
      "chip": "ym2612"
    },
    {
      "channel": 5,
      "note": 52,
      "start": 18.9576,
      "duration": 0.0833,
      "velocity": 93,
      "chip": "ym2612"
    },
    {
      "channel": 0,
      "note": 90,
      "start": 19.0574,
      "duration": 0.0505,
      "velocity": 95,
      "chip": "ym2612"
    },
    {
      "channel": 3,
      "note": 90,
      "start": 19.0591,
      "duration": 0.0498,
      "velocity": 95,
      "chip": "ym2612"
    },
    {
      "channel": 5,
      "note": 54,
      "start": 19.0597,
      "duration": 0.1858,
      "velocity": 93,
      "chip": "ym2612"
    },
    {
      "channel": 0,
      "note": 78,
      "start": 19.1598,
      "duration": 0.0503,
      "velocity": 95,
      "chip": "ym2612"
    },
    {
      "channel": 3,
      "note": 90,
      "start": 19.1615,
      "duration": 0.0497,
      "velocity": 95,
      "chip": "ym2612"
    },
    {
      "channel": 0,
      "note": 90,
      "start": 19.262,
      "duration": 0.0506,
      "velocity": 95,
      "chip": "ym2612"
    },
    {
      "channel": 2,
      "note": 37,
      "start": 19.2631,
      "duration": 0.3912,
      "velocity": 101,
      "chip": "ym2612"
    },
    {
      "channel": 3,
      "note": 78,
      "start": 19.264,
      "duration": 0.0493,
      "velocity": 95,
      "chip": "ym2612"
    },
    {
      "channel": 5,
      "note": 47,
      "start": 19.2646,
      "duration": 0.1851,
      "velocity": 93,
      "chip": "ym2612"
    },
    {
      "channel": 1,
      "note": 63,
      "start": 19.2713,
      "duration": 0.0587,
      "velocity": 118,
      "chip": "ym2612"
    },
    {
      "channel": 1,
      "note": 63,
      "start": 19.3393,
      "duration": 0.0589,
      "velocity": 118,
      "chip": "ym2612"
    },
    {
      "channel": 0,
      "note": 90,
      "start": 19.3645,
      "duration": 0.0504,
      "velocity": 95,
      "chip": "ym2612"
    },
    {
      "channel": 3,
      "note": 90,
      "start": 19.3656,
      "duration": 0.05,
      "velocity": 95,
      "chip": "ym2612"
    },
    {
      "channel": 1,
      "note": 63,
      "start": 19.4076,
      "duration": 0.0595,
      "velocity": 118,
      "chip": "ym2612"
    },
    {
      "channel": 0,
      "note": 78,
      "start": 19.4668,
      "duration": 0.0503,
      "velocity": 95,
      "chip": "ym2612"
    },
    {
      "channel": 3,
      "note": 90,
      "start": 19.4685,
      "duration": 0.0495,
      "velocity": 95,
      "chip": "ym2612"
    },
    {
      "channel": 5,
      "note": 49,
      "start": 19.4691,
      "duration": 0.1859,
      "velocity": 93,
      "chip": "ym2612"
    },
    {
      "channel": 1,
      "note": 63,
      "start": 19.4757,
      "duration": 0.0588,
      "velocity": 118,
      "chip": "ym2612"
    },
    {
      "channel": 1,
      "note": 63,
      "start": 19.5439,
      "duration": 0.0588,
      "velocity": 118,
      "chip": "ym2612"
    },
    {
      "channel": 0,
      "note": 78,
      "start": 19.5691,
      "duration": 0.0503,
      "velocity": 95,
      "chip": "ym2612"
    },
    {
      "channel": 3,
      "note": 78,
      "start": 19.5709,
      "duration": 0.0497,
      "velocity": 95,
      "chip": "ym2612"
    },
    {
      "channel": 1,
      "note": 63,
      "start": 19.6122,
      "duration": 0.06,
      "velocity": 118,
      "chip": "ym2612"
    },
    {
      "channel": 0,
      "note": 90,
      "start": 19.6718,
      "duration": 0.05,
      "velocity": 95,
      "chip": "ym2612"
    },
    {
      "channel": 2,
      "note": 42,
      "start": 19.6729,
      "duration": 0.5792,
      "velocity": 101,
      "chip": "ym2612"
    },
    {
      "channel": 3,
      "note": 78,
      "start": 19.6738,
      "duration": 0.0486,
      "velocity": 95,
      "chip": "ym2612"
    },
    {
      "channel": 5,
      "note": 52,
      "start": 19.6749,
      "duration": 0.0819,
      "velocity": 93,
      "chip": "ym2612"
    },
    {
      "channel": 1,
      "note": 38,
      "start": 19.6804,
      "duration": 0.2989,
      "velocity": 127,
      "chip": "ym2612"
    },
    {
      "channel": 0,
      "note": 90,
      "start": 19.7736,
      "duration": 0.0507,
      "velocity": 95,
      "chip": "ym2612"
    },
    {
      "channel": 3,
      "note": 42,
      "start": 19.7761,
      "duration": 0.5789,
      "velocity": 101,
      "chip": "ym2612"
    },
    {
      "channel": 5,
      "note": 54,
      "start": 19.7769,
      "duration": 0.1853,
      "velocity": 93,
      "chip": "ym2612"
    },
    {
      "channel": 0,
      "note": 78,
      "start": 19.8763,
      "duration": 0.0507,
      "velocity": 95,
      "chip": "ym2612"
    },
    {
      "channel": 0,
      "note": 78,
      "start": 19.979,
      "duration": 0.0507,
      "velocity": 95,
      "chip": "ym2612"
    },
    {
      "channel": 5,
      "note": 52,
      "start": 19.9809,
      "duration": 0.0841,
      "velocity": 93,
      "chip": "ym2612"
    },
    {
      "channel": 1,
      "note": 38,
      "start": 19.9882,
      "duration": 0.0938,
      "velocity": 127,
      "chip": "ym2612"
    },
    {
      "channel": 0,
      "note": 90,
      "start": 20.0817,
      "duration": 0.0504,
      "velocity": 95,
      "chip": "ym2612"
    },
    {
      "channel": 5,
      "note": 54,
      "start": 20.0836,
      "duration": 0.1866,
      "velocity": 93,
      "chip": "ym2612"
    },
    {
      "channel": 1,
      "note": 63,
      "start": 20.0906,
      "duration": 0.1968,
      "velocity": 118,
      "chip": "ym2612"
    },
    {
      "channel": 0,
      "note": 90,
      "start": 20.1843,
      "duration": 0.0505,
      "velocity": 95,
      "chip": "ym2612"
    },
    {
      "channel": 0,
      "note": 78,
      "start": 20.2868,
      "duration": 0.0506,
      "velocity": 95,
      "chip": "ym2612"
    },
    {
      "channel": 2,
      "note": 43,
      "start": 20.288,
      "duration": 0.5784,
      "velocity": 101,
      "chip": "ym2612"
    },
    {
      "channel": 5,
      "note": 52,
      "start": 20.2891,
      "duration": 0.0834,
      "velocity": 93,
      "chip": "ym2612"
    },
    {
      "channel": 1,
      "note": 38,
      "start": 20.2957,
      "duration": 0.0936,
      "velocity": 127,
      "chip": "ym2612"
    },
    {
      "channel": 0,
      "note": 90,
      "start": 20.389,
      "duration": 0.0507,
      "velocity": 95,
      "chip": "ym2612"
    },
    {
      "channel": 3,
      "note": 43,
      "start": 20.3901,
      "duration": 0.5789,
      "velocity": 101,
      "chip": "ym2612"
    },
    {
      "channel": 5,
      "note": 54,
      "start": 20.3908,
      "duration": 0.1863,
      "velocity": 93,
      "chip": "ym2612"
    },
    {
      "channel": 1,
      "note": 63,
      "start": 20.3981,
      "duration": 0.0938,
      "velocity": 118,
      "chip": "ym2612"
    },
    {
      "channel": 0,
      "note": 90,
      "start": 20.4917,
      "duration": 0.0504,
      "velocity": 95,
      "chip": "ym2612"
    },
    {
      "channel": 1,
      "note": 38,
      "start": 20.5005,
      "duration": 0.0937,
      "velocity": 127,
      "chip": "ym2612"
    },
    {
      "channel": 0,
      "note": 90,
      "start": 20.5939,
      "duration": 0.0504,
      "velocity": 95,
      "chip": "ym2612"
    },
    {
      "channel": 5,
      "note": 52,
      "start": 20.5959,
      "duration": 0.0838,
      "velocity": 93,
      "chip": "ym2612"
    },
    {
      "channel": 1,
      "note": 63,
      "start": 20.6029,
      "duration": 0.0937,
      "velocity": 118,
      "chip": "ym2612"
    },
    {
      "channel": 0,
      "note": 90,
      "start": 20.6962,
      "duration": 0.0504,
      "velocity": 95,
      "chip": "ym2612"
    },
    {
      "channel": 5,
      "note": 54,
      "start": 20.6981,
      "duration": 0.1861,
      "velocity": 93,
      "chip": "ym2612"
    },
    {
      "channel": 1,
      "note": 38,
      "start": 20.7053,
      "duration": 0.0936,
      "velocity": 127,
      "chip": "ym2612"
    },
    {
      "channel": 0,
      "note": 78,
      "start": 20.7987,
      "duration": 0.0502,
      "velocity": 95,
      "chip": "ym2612"
    },
    {
      "channel": 1,
      "note": 105,
      "start": 20.8077,
      "duration": 0.0934,
      "velocity": 127,
      "chip": "ym2612"
    },
    {
      "channel": 0,
      "note": 90,
      "start": 20.9008,
      "duration": 0.0505,
      "velocity": 95,
      "chip": "ym2612"
    },
    {
      "channel": 2,
      "note": 39,
      "start": 20.9018,
      "duration": 0.3915,
      "velocity": 101,
      "chip": "ym2612"
    },
    {
      "channel": 5,
      "note": 47,
      "start": 20.9029,
      "duration": 0.1858,
      "velocity": 93,
      "chip": "ym2612"
    },
    {
      "channel": 1,
      "note": 38,
      "start": 20.9098,
      "duration": 0.1963,
      "velocity": 127,
      "chip": "ym2612"
    },
    {
      "channel": 0,
      "note": 90,
      "start": 21.0033,
      "duration": 0.0507,
      "velocity": 95,
      "chip": "ym2612"
    },
    {
      "channel": 3,
      "note": 39,
      "start": 21.0046,
      "duration": 0.3914,
      "velocity": 101,
      "chip": "ym2612"
    },
    {
      "channel": 0,
      "note": 78,
      "start": 21.1058,
      "duration": 0.0503,
      "velocity": 95,
      "chip": "ym2612"
    },
    {
      "channel": 5,
      "note": 49,
      "start": 21.1076,
      "duration": 0.1866,
      "velocity": 93,
      "chip": "ym2612"
    },
    {
      "channel": 1,
      "note": 63,
      "start": 21.1147,
      "duration": 0.1966,
      "velocity": 118,
      "chip": "ym2612"
    },
    {
      "channel": 0,
      "note": 78,
      "start": 21.208,
      "duration": 0.0506,
      "velocity": 95,
      "chip": "ym2612"
    },
    {
      "channel": 0,
      "note": 90,
      "start": 21.311,
      "duration": 0.0502,
      "velocity": 95,
      "chip": "ym2612"
    },
    {
      "channel": 2,
      "note": 42,
      "start": 21.312,
      "duration": 0.5789,
      "velocity": 101,
      "chip": "ym2612"
    },
    {
      "channel": 5,
      "note": 52,
      "start": 21.3132,
      "duration": 0.0831,
      "velocity": 93,
      "chip": "ym2612"
    },
    {
      "channel": 1,
      "note": 38,
      "start": 21.3196,
      "duration": 0.2989,
      "velocity": 127,
      "chip": "ym2612"
    },
    {
      "channel": 0,
      "note": 90,
      "start": 21.4131,
      "duration": 0.0507,
      "velocity": 95,
      "chip": "ym2612"
    },
    {
      "channel": 3,
      "note": 42,
      "start": 21.4141,
      "duration": 0.5793,
      "velocity": 101,
      "chip": "ym2612"
    },
    {
      "channel": 5,
      "note": 54,
      "start": 21.4149,
      "duration": 0.1866,
      "velocity": 93,
      "chip": "ym2612"
    },
    {
      "channel": 0,
      "note": 78,
      "start": 21.5156,
      "duration": 0.0506,
      "velocity": 95,
      "chip": "ym2612"
    },
    {
      "channel": 0,
      "note": 78,
      "start": 21.6182,
      "duration": 0.0505,
      "velocity": 95,
      "chip": "ym2612"
    },
    {
      "channel": 5,
      "note": 52,
      "start": 21.6202,
      "duration": 0.0841,
      "velocity": 93,
      "chip": "ym2612"
    },
    {
      "channel": 1,
      "note": 38,
      "start": 21.6272,
      "duration": 0.0941,
      "velocity": 127,
      "chip": "ym2612"
    },
    {
      "channel": 0,
      "note": 90,
      "start": 21.721,
      "duration": 0.05,
      "velocity": 95,
      "chip": "ym2612"
    },
    {
      "channel": 5,
      "note": 54,
      "start": 21.7228,
      "duration": 0.1859,
      "velocity": 93,
      "chip": "ym2612"
    },
    {
      "channel": 1,
      "note": 63,
      "start": 21.7296,
      "duration": 0.196,
      "velocity": 118,
      "chip": "ym2612"
    },
    {
      "channel": 0,
      "note": 90,
      "start": 21.8229,
      "duration": 0.0504,
      "velocity": 95,
      "chip": "ym2612"
    },
    {
      "channel": 0,
      "note": 78,
      "start": 21.9254,
      "duration": 0.0503,
      "velocity": 95,
      "chip": "ym2612"
    },
    {
      "channel": 2,
      "note": 46,
      "start": 21.9263,
      "duration": 0.5785,
      "velocity": 101,
      "chip": "ym2612"
    },
    {
      "channel": 5,
      "note": 52,
      "start": 21.9275,
      "duration": 0.0835,
      "velocity": 93,
      "chip": "ym2612"
    },
    {
      "channel": 1,
      "note": 38,
      "start": 21.9343,
      "duration": 0.0935,
      "velocity": 127,
      "chip": "ym2612"
    },
    {
      "channel": 0,
      "note": 90,
      "start": 22.0275,
      "duration": 0.0505,
      "velocity": 95,
      "chip": "ym2612"
    },
    {
      "channel": 3,
      "note": 46,
      "start": 22.0286,
      "duration": 0.5791,
      "velocity": 101,
      "chip": "ym2612"
    },
    {
      "channel": 5,
      "note": 54,
      "start": 22.0294,
      "duration": 0.1862,
      "velocity": 93,
      "chip": "ym2612"
    },
    {
      "channel": 1,
      "note": 63,
      "start": 22.0366,
      "duration": 0.0938,
      "velocity": 118,
      "chip": "ym2612"
    },
    {
      "channel": 0,
      "note": 90,
      "start": 22.1301,
      "duration": 0.0502,
      "velocity": 95,
      "chip": "ym2612"
    },
    {
      "channel": 1,
      "note": 38,
      "start": 22.139,
      "duration": 0.0936,
      "velocity": 127,
      "chip": "ym2612"
    },
    {
      "channel": 0,
      "note": 90,
      "start": 22.2323,
      "duration": 0.0504,
      "velocity": 95,
      "chip": "ym2612"
    },
    {
      "channel": 5,
      "note": 52,
      "start": 22.2342,
      "duration": 0.0839,
      "velocity": 93,
      "chip": "ym2612"
    },
    {
      "channel": 1,
      "note": 63,
      "start": 22.2413,
      "duration": 0.0936,
      "velocity": 118,
      "chip": "ym2612"
    },
    {
      "channel": 0,
      "note": 90,
      "start": 22.3346,
      "duration": 0.0504,
      "velocity": 95,
      "chip": "ym2612"
    },
    {
      "channel": 5,
      "note": 54,
      "start": 22.3364,
      "duration": 0.1864,
      "velocity": 93,
      "chip": "ym2612"
    },
    {
      "channel": 1,
      "note": 38,
      "start": 22.3436,
      "duration": 0.094,
      "velocity": 127,
      "chip": "ym2612"
    },
    {
      "channel": 0,
      "note": 78,
      "start": 22.4373,
      "duration": 0.0502,
      "velocity": 95,
      "chip": "ym2612"
    },
    {
      "channel": 1,
      "note": 105,
      "start": 22.446,
      "duration": 0.0937,
      "velocity": 127,
      "chip": "ym2612"
    },
    {
      "channel": 0,
      "note": 90,
      "start": 22.5394,
      "duration": 0.0506,
      "velocity": 95,
      "chip": "ym2612"
    },
    {
      "channel": 2,
      "note": 43,
      "start": 22.5403,
      "duration": 0.3919,
      "velocity": 101,
      "chip": "ym2612"
    },
    {
      "channel": 5,
      "note": 47,
      "start": 22.5415,
      "duration": 0.186,
      "velocity": 93,
      "chip": "ym2612"
    },
    {
      "channel": 1,
      "note": 38,
      "start": 22.5485,
      "duration": 0.1963,
      "velocity": 127,
      "chip": "ym2612"
    },
    {
      "channel": 0,
      "note": 90,
      "start": 22.642,
      "duration": 0.0504,
      "velocity": 95,
      "chip": "ym2612"
    },
    {
      "channel": 3,
      "note": 43,
      "start": 22.643,
      "duration": 0.3917,
      "velocity": 101,
      "chip": "ym2612"
    },
    {
      "channel": 0,
      "note": 78,
      "start": 22.7445,
      "duration": 0.0504,
      "velocity": 95,
      "chip": "ym2612"
    },
    {
      "channel": 5,
      "note": 49,
      "start": 22.7462,
      "duration": 0.1868,
      "velocity": 93,
      "chip": "ym2612"
    },
    {
      "channel": 1,
      "note": 63,
      "start": 22.7534,
      "duration": 0.1968,
      "velocity": 118,
      "chip": "ym2612"
    },
    {
      "channel": 0,
      "note": 78,
      "start": 22.8471,
      "duration": 0.0505,
      "velocity": 95,
      "chip": "ym2612"
    },
    {
      "channel": 0,
      "note": 90,
      "start": 22.9498,
      "duration": 0.0504,
      "velocity": 95,
      "chip": "ym2612"
    },
    {
      "channel": 2,
      "note": 42,
      "start": 22.9507,
      "duration": 0.5784,
      "velocity": 101,
      "chip": "ym2612"
    },
    {
      "channel": 5,
      "note": 52,
      "start": 22.952,
      "duration": 0.0832,
      "velocity": 93,
      "chip": "ym2612"
    },
    {
      "channel": 1,
      "note": 38,
      "start": 22.9586,
      "duration": 0.2984,
      "velocity": 127,
      "chip": "ym2612"
    },
    {
      "channel": 0,
      "note": 90,
      "start": 23.0517,
      "duration": 0.0508,
      "velocity": 95,
      "chip": "ym2612"
    },
    {
      "channel": 3,
      "note": 42,
      "start": 23.0527,
      "duration": 0.5791,
      "velocity": 101,
      "chip": "ym2612"
    },
    {
      "channel": 5,
      "note": 54,
      "start": 23.0535,
      "duration": 0.1863,
      "velocity": 93,
      "chip": "ym2612"
    },
    {
      "channel": 0,
      "note": 78,
      "start": 23.1544,
      "duration": 0.0503,
      "velocity": 95,
      "chip": "ym2612"
    },
    {
      "channel": 0,
      "note": 78,
      "start": 23.2567,
      "duration": 0.0504,
      "velocity": 95,
      "chip": "ym2612"
    },
    {
      "channel": 5,
      "note": 52,
      "start": 23.2586,
      "duration": 0.0839,
      "velocity": 93,
      "chip": "ym2612"
    },
    {
      "channel": 1,
      "note": 38,
      "start": 23.2656,
      "duration": 0.0938,
      "velocity": 127,
      "chip": "ym2612"
    },
    {
      "channel": 0,
      "note": 90,
      "start": 23.3591,
      "duration": 0.0502,
      "velocity": 95,
      "chip": "ym2612"
    },
    {
      "channel": 5,
      "note": 54,
      "start": 23.361,
      "duration": 0.1861,
      "velocity": 93,
      "chip": "ym2612"
    },
    {
      "channel": 1,
      "note": 63,
      "start": 23.368,
      "duration": 0.1959,
      "velocity": 118,
      "chip": "ym2612"
    },
    {
      "channel": 0,
      "note": 90,
      "start": 23.4614,
      "duration": 0.0503,
      "velocity": 95,
      "chip": "ym2612"
    },
    {
      "channel": 0,
      "note": 78,
      "start": 23.5637,
      "duration": 0.0504,
      "velocity": 95,
      "chip": "ym2612"
    },
    {
      "channel": 2,
      "note": 43,
      "start": 23.5646,
      "duration": 0.5787,
      "velocity": 101,
      "chip": "ym2612"
    },
    {
      "channel": 5,
      "note": 52,
      "start": 23.5658,
      "duration": 0.0835,
      "velocity": 93,
      "chip": "ym2612"
    },
    {
      "channel": 1,
      "note": 38,
      "start": 23.5726,
      "duration": 0.0934,
      "velocity": 127,
      "chip": "ym2612"
    },
    {
      "channel": 0,
      "note": 90,
      "start": 23.6658,
      "duration": 0.0506,
      "velocity": 95,
      "chip": "ym2612"
    },
    {
      "channel": 3,
      "note": 43,
      "start": 23.6668,
      "duration": 0.5791,
      "velocity": 101,
      "chip": "ym2612"
    },
    {
      "channel": 5,
      "note": 54,
      "start": 23.6676,
      "duration": 0.1865,
      "velocity": 93,
      "chip": "ym2612"
    },
    {
      "channel": 1,
      "note": 63,
      "start": 23.6749,
      "duration": 0.0938,
      "velocity": 118,
      "chip": "ym2612"
    },
    {
      "channel": 0,
      "note": 90,
      "start": 23.7684,
      "duration": 0.0503,
      "velocity": 95,
      "chip": "ym2612"
    },
    {
      "channel": 1,
      "note": 38,
      "start": 23.7773,
      "duration": 0.0939,
      "velocity": 127,
      "chip": "ym2612"
    },
    {
      "channel": 0,
      "note": 90,
      "start": 23.8708,
      "duration": 0.0502,
      "velocity": 95,
      "chip": "ym2612"
    },
    {
      "channel": 5,
      "note": 52,
      "start": 23.8728,
      "duration": 0.0836,
      "velocity": 93,
      "chip": "ym2612"
    },
    {
      "channel": 1,
      "note": 63,
      "start": 23.8796,
      "duration": 0.0937,
      "velocity": 118,
      "chip": "ym2612"
    },
    {
      "channel": 0,
      "note": 90,
      "start": 23.973,
      "duration": 0.0504,
      "velocity": 95,
      "chip": "ym2612"
    },
    {
      "channel": 5,
      "note": 54,
      "start": 23.9749,
      "duration": 0.1863,
      "velocity": 93,
      "chip": "ym2612"
    },
    {
      "channel": 1,
      "note": 38,
      "start": 23.982,
      "duration": 0.0937,
      "velocity": 127,
      "chip": "ym2612"
    },
    {
      "channel": 0,
      "note": 78,
      "start": 24.0754,
      "duration": 0.0505,
      "velocity": 95,
      "chip": "ym2612"
    },
    {
      "channel": 1,
      "note": 105,
      "start": 24.0844,
      "duration": 0.0935,
      "velocity": 127,
      "chip": "ym2612"
    },
    {
      "channel": 0,
      "note": 90,
      "start": 24.1776,
      "duration": 0.0506,
      "velocity": 95,
      "chip": "ym2612"
    },
    {
      "channel": 2,
      "note": 39,
      "start": 24.1785,
      "duration": 0.3922,
      "velocity": 101,
      "chip": "ym2612"
    },
    {
      "channel": 5,
      "note": 47,
      "start": 24.1797,
      "duration": 0.1862,
      "velocity": 93,
      "chip": "ym2612"
    },
    {
      "channel": 1,
      "note": 38,
      "start": 24.1867,
      "duration": 0.1965,
      "velocity": 127,
      "chip": "ym2612"
    },
    {
      "channel": 0,
      "note": 90,
      "start": 24.2804,
      "duration": 0.0505,
      "velocity": 95,
      "chip": "ym2612"
    },
    {
      "channel": 3,
      "note": 39,
      "start": 24.2815,
      "duration": 0.3917,
      "velocity": 101,
      "chip": "ym2612"
    },
    {
      "channel": 0,
      "note": 78,
      "start": 24.3829,
      "duration": 0.0505,
      "velocity": 95,
      "chip": "ym2612"
    },
    {
      "channel": 5,
      "note": 49,
      "start": 24.3846,
      "duration": 0.187,
      "velocity": 93,
      "chip": "ym2612"
    },
    {
      "channel": 1,
      "note": 63,
      "start": 24.3919,
      "duration": 0.1969,
      "velocity": 118,
      "chip": "ym2612"
    },
    {
      "channel": 0,
      "note": 78,
      "start": 24.4855,
      "duration": 0.0505,
      "velocity": 95,
      "chip": "ym2612"
    },
    {
      "channel": 0,
      "note": 90,
      "start": 24.5884,
      "duration": 0.05,
      "velocity": 95,
      "chip": "ym2612"
    },
    {
      "channel": 2,
      "note": 42,
      "start": 24.5894,
      "duration": 0.5781,
      "velocity": 101,
      "chip": "ym2612"
    },
    {
      "channel": 5,
      "note": 53,
      "start": 24.5908,
      "duration": 0.0828,
      "velocity": 93,
      "chip": "ym2612"
    },
    {
      "channel": 1,
      "note": 38,
      "start": 24.5971,
      "duration": 0.2983,
      "velocity": 127,
      "chip": "ym2612"
    },
    {
      "channel": 0,
      "note": 90,
      "start": 24.6901,
      "duration": 0.0506,
      "velocity": 95,
      "chip": "ym2612"
    },
    {
      "channel": 3,
      "note": 42,
      "start": 24.6911,
      "duration": 0.579,
      "velocity": 101,
      "chip": "ym2612"
    },
    {
      "channel": 5,
      "note": 55,
      "start": 24.6919,
      "duration": 0.1864,
      "velocity": 93,
      "chip": "ym2612"
    },
    {
      "channel": 0,
      "note": 78,
      "start": 24.7926,
      "duration": 0.0504,
      "velocity": 95,
      "chip": "ym2612"
    },
    {
      "channel": 0,
      "note": 78,
      "start": 24.8951,
      "duration": 0.0504,
      "velocity": 95,
      "chip": "ym2612"
    },
    {
      "channel": 5,
      "note": 53,
      "start": 24.8971,
      "duration": 0.0838,
      "velocity": 93,
      "chip": "ym2612"
    },
    {
      "channel": 1,
      "note": 38,
      "start": 24.9042,
      "duration": 0.0936,
      "velocity": 127,
      "chip": "ym2612"
    },
    {
      "channel": 0,
      "note": 90,
      "start": 24.9975,
      "duration": 0.0504,
      "velocity": 95,
      "chip": "ym2612"
    },
    {
      "channel": 5,
      "note": 55,
      "start": 24.9993,
      "duration": 0.1861,
      "velocity": 93,
      "chip": "ym2612"
    },
    {
      "channel": 1,
      "note": 63,
      "start": 25.0063,
      "duration": 0.196,
      "velocity": 118,
      "chip": "ym2612"
    },
    {
      "channel": 0,
      "note": 90,
      "start": 25.0997,
      "duration": 0.0505,
      "velocity": 95,
      "chip": "ym2612"
    },
    {
      "channel": 0,
      "note": 78,
      "start": 25.2021,
      "duration": 0.0504,
      "velocity": 95,
      "chip": "ym2612"
    },
    {
      "channel": 2,
      "note": 38,
      "start": 25.203,
      "duration": 0.5791,
      "velocity": 101,
      "chip": "ym2612"
    },
    {
      "channel": 5,
      "note": 53,
      "start": 25.2044,
      "duration": 0.0834,
      "velocity": 93,
      "chip": "ym2612"
    },
    {
      "channel": 1,
      "note": 38,
      "start": 25.211,
      "duration": 0.0937,
      "velocity": 127,
      "chip": "ym2612"
    },
    {
      "channel": 0,
      "note": 90,
      "start": 25.3044,
      "duration": 0.0503,
      "velocity": 95,
      "chip": "ym2612"
    },
    {
      "channel": 3,
      "note": 38,
      "start": 25.3056,
      "duration": 0.5792,
      "velocity": 101,
      "chip": "ym2612"
    },
    {
      "channel": 5,
      "note": 55,
      "start": 25.3063,
      "duration": 0.186,
      "velocity": 93,
      "chip": "ym2612"
    },
    {
      "channel": 1,
      "note": 63,
      "start": 25.3133,
      "duration": 0.0938,
      "velocity": 118,
      "chip": "ym2612"
    },
    {
      "channel": 0,
      "note": 90,
      "start": 25.4068,
      "duration": 0.0502,
      "velocity": 95,
      "chip": "ym2612"
    },
    {
      "channel": 1,
      "note": 38,
      "start": 25.4158,
      "duration": 0.0938,
      "velocity": 127,
      "chip": "ym2612"
    },
    {
      "channel": 0,
      "note": 90,
      "start": 25.5092,
      "duration": 0.0505,
      "velocity": 95,
      "chip": "ym2612"
    },
    {
      "channel": 5,
      "note": 53,
      "start": 25.5112,
      "duration": 0.0837,
      "velocity": 93,
      "chip": "ym2612"
    },
    {
      "channel": 1,
      "note": 63,
      "start": 25.5182,
      "duration": 0.0936,
      "velocity": 118,
      "chip": "ym2612"
    },
    {
      "channel": 0,
      "note": 90,
      "start": 25.6114,
      "duration": 0.0505,
      "velocity": 95,
      "chip": "ym2612"
    },
    {
      "channel": 5,
      "note": 55,
      "start": 25.6133,
      "duration": 0.1866,
      "velocity": 93,
      "chip": "ym2612"
    },
    {
      "channel": 1,
      "note": 38,
      "start": 25.6207,
      "duration": 0.0938,
      "velocity": 127,
      "chip": "ym2612"
    },
    {
      "channel": 0,
      "note": 78,
      "start": 25.7142,
      "duration": 0.0504,
      "velocity": 95,
      "chip": "ym2612"
    },
    {
      "channel": 1,
      "note": 105,
      "start": 25.7232,
      "duration": 0.0937,
      "velocity": 127,
      "chip": "ym2612"
    },
    {
      "channel": 0,
      "note": 90,
      "start": 25.8165,
      "duration": 0.0506,
      "velocity": 95,
      "chip": "ym2612"
    },
    {
      "channel": 2,
      "note": 37,
      "start": 25.8175,
      "duration": 0.3917,
      "velocity": 101,
      "chip": "ym2612"
    },
    {
      "channel": 5,
      "note": 48,
      "start": 25.8186,
      "duration": 0.1861,
      "velocity": 93,
      "chip": "ym2612"
    },
    {
      "channel": 1,
      "note": 38,
      "start": 25.8257,
      "duration": 0.1962,
      "velocity": 127,
      "chip": "ym2612"
    },
    {
      "channel": 0,
      "note": 90,
      "start": 25.9191,
      "duration": 0.0504,
      "velocity": 95,
      "chip": "ym2612"
    },
    {
      "channel": 3,
      "note": 37,
      "start": 25.9202,
      "duration": 0.3916,
      "velocity": 101,
      "chip": "ym2612"
    },
    {
      "channel": 0,
      "note": 78,
      "start": 26.0216,
      "duration": 0.0503,
      "velocity": 95,
      "chip": "ym2612"
    },
    {
      "channel": 5,
      "note": 50,
      "start": 26.0233,
      "duration": 0.1866,
      "velocity": 93,
      "chip": "ym2612"
    },
    {
      "channel": 1,
      "note": 63,
      "start": 26.0304,
      "duration": 0.1967,
      "velocity": 118,
      "chip": "ym2612"
    },
    {
      "channel": 0,
      "note": 78,
      "start": 26.1239,
      "duration": 0.0505,
      "velocity": 95,
      "chip": "ym2612"
    },
    {
      "channel": 0,
      "note": 90,
      "start": 26.2267,
      "duration": 0.0503,
      "velocity": 95,
      "chip": "ym2612"
    },
    {
      "channel": 2,
      "note": 42,
      "start": 26.2278,
      "duration": 0.5787,
      "velocity": 101,
      "chip": "ym2612"
    },
    {
      "channel": 5,
      "note": 53,
      "start": 26.229,
      "duration": 0.0832,
      "velocity": 93,
      "chip": "ym2612"
    },
    {
      "channel": 1,
      "note": 38,
      "start": 26.2354,
      "duration": 0.2986,
      "velocity": 127,
      "chip": "ym2612"
    },
    {
      "channel": 0,
      "note": 90,
      "start": 26.3287,
      "duration": 0.0508,
      "velocity": 95,
      "chip": "ym2612"
    },
    {
      "channel": 3,
      "note": 42,
      "start": 26.3297,
      "duration": 0.5796,
      "velocity": 101,
      "chip": "ym2612"
    },
    {
      "channel": 5,
      "note": 55,
      "start": 26.3305,
      "duration": 0.1864,
      "velocity": 93,
      "chip": "ym2612"
    },
    {
      "channel": 0,
      "note": 78,
      "start": 26.4311,
      "duration": 0.0507,
      "velocity": 95,
      "chip": "ym2612"
    },
    {
      "channel": 0,
      "note": 78,
      "start": 26.5337,
      "duration": 0.0505,
      "velocity": 95,
      "chip": "ym2612"
    },
    {
      "channel": 5,
      "note": 53,
      "start": 26.5357,
      "duration": 0.084,
      "velocity": 93,
      "chip": "ym2612"
    },
    {
      "channel": 1,
      "note": 38,
      "start": 26.5427,
      "duration": 0.0939,
      "velocity": 127,
      "chip": "ym2612"
    },
    {
      "channel": 0,
      "note": 90,
      "start": 26.6363,
      "duration": 0.0503,
      "velocity": 95,
      "chip": "ym2612"
    },
    {
      "channel": 5,
      "note": 55,
      "start": 26.6385,
      "duration": 0.1858,
      "velocity": 93,
      "chip": "ym2612"
    },
    {
      "channel": 1,
      "note": 63,
      "start": 26.6451,
      "duration": 0.1961,
      "velocity": 118,
      "chip": "ym2612"
    },
    {
      "channel": 0,
      "note": 90,
      "start": 26.7387,
      "duration": 0.0503,
      "velocity": 95,
      "chip": "ym2612"
    },
    {
      "channel": 0,
      "note": 78,
      "start": 26.841,
      "duration": 0.0506,
      "velocity": 95,
      "chip": "ym2612"
    },
    {
      "channel": 2,
      "note": 43,
      "start": 26.8419,
      "duration": 0.5795,
      "velocity": 101,
      "chip": "ym2612"
    },
    {
      "channel": 5,
      "note": 53,
      "start": 26.843,
      "duration": 0.0838,
      "velocity": 93,
      "chip": "ym2612"
    },
    {
      "channel": 1,
      "note": 38,
      "start": 26.8499,
      "duration": 0.0938,
      "velocity": 127,
      "chip": "ym2612"
    },
    {
      "channel": 0,
      "note": 90,
      "start": 26.9434,
      "duration": 0.0506,
      "velocity": 95,
      "chip": "ym2612"
    },
    {
      "channel": 3,
      "note": 43,
      "start": 26.9445,
      "duration": 0.5795,
      "velocity": 101,
      "chip": "ym2612"
    },
    {
      "channel": 5,
      "note": 55,
      "start": 26.9453,
      "duration": 0.1866,
      "velocity": 93,
      "chip": "ym2612"
    },
    {
      "channel": 1,
      "note": 63,
      "start": 26.9526,
      "duration": 0.0939,
      "velocity": 118,
      "chip": "ym2612"
    },
    {
      "channel": 0,
      "note": 90,
      "start": 27.0462,
      "duration": 0.0506,
      "velocity": 95,
      "chip": "ym2612"
    },
    {
      "channel": 1,
      "note": 38,
      "start": 27.0553,
      "duration": 0.0938,
      "velocity": 127,
      "chip": "ym2612"
    },
    {
      "channel": 0,
      "note": 90,
      "start": 27.1487,
      "duration": 0.0505,
      "velocity": 95,
      "chip": "ym2612"
    },
    {
      "channel": 5,
      "note": 53,
      "start": 27.1507,
      "duration": 0.0841,
      "velocity": 93,
      "chip": "ym2612"
    },
    {
      "channel": 1,
      "note": 63,
      "start": 27.1577,
      "duration": 0.0939,
      "velocity": 118,
      "chip": "ym2612"
    },
    {
      "channel": 0,
      "note": 90,
      "start": 27.2512,
      "duration": 0.0504,
      "velocity": 95,
      "chip": "ym2612"
    },
    {
      "channel": 5,
      "note": 55,
      "start": 27.2532,
      "duration": 0.1861,
      "velocity": 93,
      "chip": "ym2612"
    },
    {
      "channel": 1,
      "note": 38,
      "start": 27.2602,
      "duration": 0.0939,
      "velocity": 127,
      "chip": "ym2612"
    },
    {
      "channel": 0,
      "note": 78,
      "start": 27.3538,
      "duration": 0.0504,
      "velocity": 95,
      "chip": "ym2612"
    },
    {
      "channel": 1,
      "note": 105,
      "start": 27.3626,
      "duration": 0.0934,
      "velocity": 127,
      "chip": "ym2612"
    },
    {
      "channel": 0,
      "note": 90,
      "start": 27.4557,
      "duration": 0.0506,
      "velocity": 95,
      "chip": "ym2612"
    },
    {
      "channel": 2,
      "note": 39,
      "start": 27.4567,
      "duration": 0.3912,
      "velocity": 101,
      "chip": "ym2612"
    },
    {
      "channel": 5,
      "note": 48,
      "start": 27.4578,
      "duration": 0.1857,
      "velocity": 93,
      "chip": "ym2612"
    },
    {
      "channel": 1,
      "note": 38,
      "start": 27.4648,
      "duration": 0.196,
      "velocity": 127,
      "chip": "ym2612"
    },
    {
      "channel": 0,
      "note": 90,
      "start": 27.5583,
      "duration": 0.0505,
      "velocity": 95,
      "chip": "ym2612"
    },
    {
      "channel": 3,
      "note": 39,
      "start": 27.5593,
      "duration": 0.3911,
      "velocity": 101,
      "chip": "ym2612"
    },
    {
      "channel": 0,
      "note": 78,
      "start": 27.6605,
      "duration": 0.0505,
      "velocity": 95,
      "chip": "ym2612"
    },
    {
      "channel": 5,
      "note": 50,
      "start": 27.6623,
      "duration": 0.1864,
      "velocity": 93,
      "chip": "ym2612"
    },
    {
      "channel": 1,
      "note": 63,
      "start": 27.6695,
      "duration": 0.1964,
      "velocity": 118,
      "chip": "ym2612"
    },
    {
      "channel": 0,
      "note": 78,
      "start": 27.7629,
      "duration": 0.0504,
      "velocity": 95,
      "chip": "ym2612"
    },
    {
      "channel": 0,
      "note": 90,
      "start": 27.8656,
      "duration": 0.05,
      "velocity": 95,
      "chip": "ym2612"
    },
    {
      "channel": 2,
      "note": 42,
      "start": 27.8665,
      "duration": 0.5783,
      "velocity": 101,
      "chip": "ym2612"
    },
    {
      "channel": 5,
      "note": 56,
      "start": 27.8683,
      "duration": 0.0825,
      "velocity": 93,
      "chip": "ym2612"
    },
    {
      "channel": 1,
      "note": 38,
      "start": 27.8743,
      "duration": 0.2982,
      "velocity": 127,
      "chip": "ym2612"
    },
    {
      "channel": 0,
      "note": 90,
      "start": 27.9673,
      "duration": 0.0506,
      "velocity": 95,
      "chip": "ym2612"
    },
    {
      "channel": 3,
      "note": 42,
      "start": 27.9684,
      "duration": 0.5794,
      "velocity": 101,
      "chip": "ym2612"
    },
    {
      "channel": 5,
      "note": 57,
      "start": 27.9692,
      "duration": 0.1862,
      "velocity": 93,
      "chip": "ym2612"
    },
    {
      "channel": 0,
      "note": 78,
      "start": 28.0696,
      "duration": 0.051,
      "velocity": 95,
      "chip": "ym2612"
    },
    {
      "channel": 0,
      "note": 78,
      "start": 28.1722,
      "duration": 0.0505,
      "velocity": 95,
      "chip": "ym2612"
    },
    {
      "channel": 5,
      "note": 56,
      "start": 28.1741,
      "duration": 0.0839,
      "velocity": 93,
      "chip": "ym2612"
    },
    {
      "channel": 1,
      "note": 38,
      "start": 28.1812,
      "duration": 0.0938,
      "velocity": 127,
      "chip": "ym2612"
    },
    {
      "channel": 0,
      "note": 90,
      "start": 28.2747,
      "duration": 0.0504,
      "velocity": 95,
      "chip": "ym2612"
    },
    {
      "channel": 5,
      "note": 57,
      "start": 28.2766,
      "duration": 0.1862,
      "velocity": 93,
      "chip": "ym2612"
    },
    {
      "channel": 1,
      "note": 63,
      "start": 28.2835,
      "duration": 0.1962,
      "velocity": 118,
      "chip": "ym2612"
    },
    {
      "channel": 0,
      "note": 90,
      "start": 28.3771,
      "duration": 0.0502,
      "velocity": 95,
      "chip": "ym2612"
    },
    {
      "channel": 0,
      "note": 78,
      "start": 28.4794,
      "duration": 0.0506,
      "velocity": 95,
      "chip": "ym2612"
    },
    {
      "channel": 2,
      "note": 46,
      "start": 28.4804,
      "duration": 0.5793,
      "velocity": 101,
      "chip": "ym2612"
    },
    {
      "channel": 5,
      "note": 56,
      "start": 28.4815,
      "duration": 0.0837,
      "velocity": 93,
      "chip": "ym2612"
    },
    {
      "channel": 1,
      "note": 38,
      "start": 28.4886,
      "duration": 0.0936,
      "velocity": 127,
      "chip": "ym2612"
    },
    {
      "channel": 0,
      "note": 90,
      "start": 28.5819,
      "duration": 0.0507,
      "velocity": 95,
      "chip": "ym2612"
    },
    {
      "channel": 3,
      "note": 46,
      "start": 28.583,
      "duration": 0.5794,
      "velocity": 101,
      "chip": "ym2612"
    },
    {
      "channel": 5,
      "note": 57,
      "start": 28.5838,
      "duration": 0.1869,
      "velocity": 93,
      "chip": "ym2612"
    },
    {
      "channel": 1,
      "note": 63,
      "start": 28.591,
      "duration": 0.0941,
      "velocity": 118,
      "chip": "ym2612"
    },
    {
      "channel": 0,
      "note": 90,
      "start": 28.6848,
      "duration": 0.0504,
      "velocity": 95,
      "chip": "ym2612"
    },
    {
      "channel": 1,
      "note": 38,
      "start": 28.6936,
      "duration": 0.0941,
      "velocity": 127,
      "chip": "ym2612"
    },
    {
      "channel": 0,
      "note": 90,
      "start": 28.7875,
      "duration": 0.0502,
      "velocity": 95,
      "chip": "ym2612"
    },
    {
      "channel": 5,
      "note": 56,
      "start": 28.7894,
      "duration": 0.0836,
      "velocity": 93,
      "chip": "ym2612"
    },
    {
      "channel": 1,
      "note": 63,
      "start": 28.7961,
      "duration": 0.0938,
      "velocity": 118,
      "chip": "ym2612"
    },
    {
      "channel": 0,
      "note": 90,
      "start": 28.8895,
      "duration": 0.0505,
      "velocity": 95,
      "chip": "ym2612"
    },
    {
      "channel": 5,
      "note": 57,
      "start": 28.8915,
      "duration": 0.1861,
      "velocity": 93,
      "chip": "ym2612"
    },
    {
      "channel": 1,
      "note": 38,
      "start": 28.8986,
      "duration": 0.0937,
      "velocity": 127,
      "chip": "ym2612"
    },
    {
      "channel": 0,
      "note": 78,
      "start": 28.992,
      "duration": 0.0503,
      "velocity": 95,
      "chip": "ym2612"
    },
    {
      "channel": 1,
      "note": 105,
      "start": 29.001,
      "duration": 0.0934,
      "velocity": 127,
      "chip": "ym2612"
    },
    {
      "channel": 0,
      "note": 90,
      "start": 29.0941,
      "duration": 0.0505,
      "velocity": 95,
      "chip": "ym2612"
    },
    {
      "channel": 2,
      "note": 43,
      "start": 29.0951,
      "duration": 0.3912,
      "velocity": 101,
      "chip": "ym2612"
    },
    {
      "channel": 5,
      "note": 52,
      "start": 29.0963,
      "duration": 0.1857,
      "velocity": 93,
      "chip": "ym2612"
    },
    {
      "channel": 1,
      "note": 38,
      "start": 29.1032,
      "duration": 0.1961,
      "velocity": 127,
      "chip": "ym2612"
    },
    {
      "channel": 0,
      "note": 90,
      "start": 29.1966,
      "duration": 0.0504,
      "velocity": 95,
      "chip": "ym2612"
    },
    {
      "channel": 3,
      "note": 43,
      "start": 29.1977,
      "duration": 0.391,
      "velocity": 101,
      "chip": "ym2612"
    },
    {
      "channel": 0,
      "note": 78,
      "start": 29.299,
      "duration": 0.0503,
      "velocity": 95,
      "chip": "ym2612"
    },
    {
      "channel": 5,
      "note": 53,
      "start": 29.3007,
      "duration": 0.1866,
      "velocity": 93,
      "chip": "ym2612"
    },
    {
      "channel": 1,
      "note": 63,
      "start": 29.3079,
      "duration": 0.1965,
      "velocity": 118,
      "chip": "ym2612"
    },
    {
      "channel": 0,
      "note": 78,
      "start": 29.4012,
      "duration": 0.0505,
      "velocity": 95,
      "chip": "ym2612"
    },
    {
      "channel": 0,
      "note": 90,
      "start": 29.5041,
      "duration": 0.0501,
      "velocity": 95,
      "chip": "ym2612"
    },
    {
      "channel": 2,
      "note": 42,
      "start": 29.5051,
      "duration": 0.5788,
      "velocity": 101,
      "chip": "ym2612"
    },
    {
      "channel": 5,
      "note": 59,
      "start": 29.5067,
      "duration": 0.0824,
      "velocity": 93,
      "chip": "ym2612"
    },
    {
      "channel": 1,
      "note": 38,
      "start": 29.5125,
      "duration": 0.2985,
      "velocity": 127,
      "chip": "ym2612"
    },
    {
      "channel": 0,
      "note": 90,
      "start": 29.6056,
      "duration": 0.0508,
      "velocity": 95,
      "chip": "ym2612"
    },
    {
      "channel": 3,
      "note": 42,
      "start": 29.6067,
      "duration": 0.58,
      "velocity": 101,
      "chip": "ym2612"
    },
    {
      "channel": 5,
      "note": 60,
      "start": 29.6075,
      "duration": 0.1865,
      "velocity": 93,
      "chip": "ym2612"
    },
    {
      "channel": 0,
      "note": 78,
      "start": 29.708,
      "duration": 0.0508,
      "velocity": 95,
      "chip": "ym2612"
    },
    {
      "channel": 0,
      "note": 78,
      "start": 29.8107,
      "duration": 0.0504,
      "velocity": 95,
      "chip": "ym2612"
    },
    {
      "channel": 5,
      "note": 59,
      "start": 29.8127,
      "duration": 0.0839,
      "velocity": 93,
      "chip": "ym2612"
    },
    {
      "channel": 1,
      "note": 38,
      "start": 29.8197,
      "duration": 0.0941,
      "velocity": 127,
      "chip": "ym2612"
    },
    {
      "channel": 0,
      "note": 90,
      "start": 29.9135,
      "duration": 0.0503,
      "velocity": 95,
      "chip": "ym2612"
    },
    {
      "channel": 5,
      "note": 60,
      "start": 29.9154,
      "duration": 0.1865,
      "velocity": 93,
      "chip": "ym2612"
    },
    {
      "channel": 1,
      "note": 63,
      "start": 29.9223,
      "duration": 0.1964,
      "velocity": 118,
      "chip": "ym2612"
    },
    {
      "channel": 0,
      "note": 90,
      "start": 30.0159,
      "duration": 0.0503,
      "velocity": 95,
      "chip": "ym2612"
    },
    {
      "channel": 0,
      "note": 78,
      "start": 30.1185,
      "duration": 0.0504,
      "velocity": 95,
      "chip": "ym2612"
    },
    {
      "channel": 2,
      "note": 43,
      "start": 30.1194,
      "duration": 0.5787,
      "velocity": 101,
      "chip": "ym2612"
    },
    {
      "channel": 5,
      "note": 71,
      "start": 30.1212,
      "duration": 0.0832,
      "velocity": 93,
      "chip": "ym2612"
    },
    {
      "channel": 1,
      "note": 38,
      "start": 30.1274,
      "duration": 0.0938,
      "velocity": 127,
      "chip": "ym2612"
    },
    {
      "channel": 0,
      "note": 90,
      "start": 30.2209,
      "duration": 0.0505,
      "velocity": 95,
      "chip": "ym2612"
    },
    {
      "channel": 3,
      "note": 43,
      "start": 30.2221,
      "duration": 0.5788,
      "velocity": 101,
      "chip": "ym2612"
    },
    {
      "channel": 5,
      "note": 72,
      "start": 30.2228,
      "duration": 0.1861,
      "velocity": 93,
      "chip": "ym2612"
    },
    {
      "channel": 1,
      "note": 63,
      "start": 30.2298,
      "duration": 0.0939,
      "velocity": 118,
      "chip": "ym2612"
    },
    {
      "channel": 0,
      "note": 90,
      "start": 30.3234,
      "duration": 0.0503,
      "velocity": 95,
      "chip": "ym2612"
    },
    {
      "channel": 1,
      "note": 38,
      "start": 30.3322,
      "duration": 0.0938,
      "velocity": 127,
      "chip": "ym2612"
    },
    {
      "channel": 0,
      "note": 90,
      "start": 30.4257,
      "duration": 0.0503,
      "velocity": 95,
      "chip": "ym2612"
    },
    {
      "channel": 5,
      "note": 71,
      "start": 30.4277,
      "duration": 0.0838,
      "velocity": 93,
      "chip": "ym2612"
    },
    {
      "channel": 1,
      "note": 63,
      "start": 30.4347,
      "duration": 0.0936,
      "velocity": 118,
      "chip": "ym2612"
    },
    {
      "channel": 0,
      "note": 90,
      "start": 30.5281,
      "duration": 0.0503,
      "velocity": 95,
      "chip": "ym2612"
    },
    {
      "channel": 5,
      "note": 72,
      "start": 30.53,
      "duration": 0.186,
      "velocity": 93,
      "chip": "ym2612"
    },
    {
      "channel": 1,
      "note": 38,
      "start": 30.5373,
      "duration": 0.0934,
      "velocity": 127,
      "chip": "ym2612"
    },
    {
      "channel": 0,
      "note": 78,
      "start": 30.6304,
      "duration": 0.0503,
      "velocity": 95,
      "chip": "ym2612"
    },
    {
      "channel": 1,
      "note": 105,
      "start": 30.6394,
      "duration": 0.0934,
      "velocity": 127,
      "chip": "ym2612"
    },
    {
      "channel": 0,
      "note": 90,
      "start": 30.7325,
      "duration": 0.0506,
      "velocity": 95,
      "chip": "ym2612"
    },
    {
      "channel": 2,
      "note": 39,
      "start": 30.7334,
      "duration": 0.391,
      "velocity": 101,
      "chip": "ym2612"
    },
    {
      "channel": 5,
      "note": 70,
      "start": 30.7346,
      "duration": 0.1859,
      "velocity": 93,
      "chip": "ym2612"
    },
    {
      "channel": 1,
      "note": 38,
      "start": 30.7416,
      "duration": 0.1963,
      "velocity": 127,
      "chip": "ym2612"
    },
    {
      "channel": 0,
      "note": 90,
      "start": 30.835,
      "duration": 0.0504,
      "velocity": 95,
      "chip": "ym2612"
    },
    {
      "channel": 3,
      "note": 39,
      "start": 30.8361,
      "duration": 0.2889,
      "velocity": 101,
      "chip": "ym2612"
    },
    {
      "channel": 0,
      "note": 78,
      "start": 30.9376,
      "duration": 0.0501,
      "velocity": 95,
      "chip": "ym2612"
    },
    {
      "channel": 5,
      "note": 71,
      "start": 30.9394,
      "duration": 0.1861,
      "velocity": 93,
      "chip": "ym2612"
    },
    {
      "channel": 1,
      "note": 63,
      "start": 30.9463,
      "duration": 0.1973,
      "velocity": 118,
      "chip": "ym2612"
    },
    {
      "channel": 0,
      "note": 78,
      "start": 31.0397,
      "duration": 0.0504,
      "velocity": 95,
      "chip": "ym2612"
    },
    {
      "channel": 0,
      "note": 80,
      "start": 31.1433,
      "duration": 0.0363,
      "velocity": 88,
      "chip": "ym2612"
    },
    {
      "channel": 2,
      "note": 92,
      "start": 31.1458,
      "duration": 0.051,
      "velocity": 88,
      "chip": "ym2612"
    },
    {
      "channel": 3,
      "note": 93,
      "start": 31.1481,
      "duration": 0.049,
      "velocity": 88,
      "chip": "ym2612"
    },
    {
      "channel": 0,
      "note": 79,
      "start": 31.2142,
      "duration": 0.0337,
      "velocity": 88,
      "chip": "ym2612"
    },
    {
      "channel": 2,
      "note": 91,
      "start": 31.2151,
      "duration": 0.0501,
      "velocity": 88,
      "chip": "ym2612"
    },
    {
      "channel": 3,
      "note": 92,
      "start": 31.2158,
      "duration": 0.0495,
      "velocity": 88,
      "chip": "ym2612"
    },
    {
      "channel": 0,
      "note": 78,
      "start": 31.2825,
      "duration": 0.0336,
      "velocity": 88,
      "chip": "ym2612"
    },
    {
      "channel": 2,
      "note": 90,
      "start": 31.2833,
      "duration": 0.0501,
      "velocity": 88,
      "chip": "ym2612"
    },
    {
      "channel": 3,
      "note": 91,
      "start": 31.2841,
      "duration": 0.0495,
      "velocity": 88,
      "chip": "ym2612"
    },
    {
      "channel": 0,
      "note": 77,
      "start": 31.3509,
      "duration": 0.0335,
      "velocity": 88,
      "chip": "ym2612"
    },
    {
      "channel": 2,
      "note": 89,
      "start": 31.3518,
      "duration": 0.05,
      "velocity": 88,
      "chip": "ym2612"
    },
    {
      "channel": 3,
      "note": 90,
      "start": 31.3526,
      "duration": 0.0494,
      "velocity": 88,
      "chip": "ym2612"
    },
    {
      "channel": 0,
      "note": 76,
      "start": 31.4191,
      "duration": 0.0334,
      "velocity": 88,
      "chip": "ym2612"
    },
    {
      "channel": 2,
      "note": 88,
      "start": 31.4199,
      "duration": 0.05,
      "velocity": 88,
      "chip": "ym2612"
    },
    {
      "channel": 3,
      "note": 89,
      "start": 31.4209,
      "duration": 0.0493,
      "velocity": 88,
      "chip": "ym2612"
    },
    {
      "channel": 0,
      "note": 75,
      "start": 31.4876,
      "duration": 0.0335,
      "velocity": 88,
      "chip": "ym2612"
    },
    {
      "channel": 2,
      "note": 87,
      "start": 31.4884,
      "duration": 0.05,
      "velocity": 88,
      "chip": "ym2612"
    },
    {
      "channel": 3,
      "note": 88,
      "start": 31.4892,
      "duration": 0.0495,
      "velocity": 88,
      "chip": "ym2612"
    },
    {
      "channel": 0,
      "note": 74,
      "start": 31.5559,
      "duration": 0.0335,
      "velocity": 88,
      "chip": "ym2612"
    },
    {
      "channel": 2,
      "note": 86,
      "start": 31.5567,
      "duration": 0.05,
      "velocity": 88,
      "chip": "ym2612"
    },
    {
      "channel": 3,
      "note": 87,
      "start": 31.5576,
      "duration": 0.0494,
      "velocity": 88,
      "chip": "ym2612"
    },
    {
      "channel": 0,
      "note": 73,
      "start": 31.6241,
      "duration": 0.0335,
      "velocity": 88,
      "chip": "ym2612"
    },
    {
      "channel": 2,
      "note": 85,
      "start": 31.625,
      "duration": 0.0502,
      "velocity": 88,
      "chip": "ym2612"
    },
    {
      "channel": 3,
      "note": 86,
      "start": 31.6257,
      "duration": 0.0498,
      "velocity": 88,
      "chip": "ym2612"
    },
    {
      "channel": 0,
      "note": 72,
      "start": 31.6925,
      "duration": 0.0337,
      "velocity": 88,
      "chip": "ym2612"
    },
    {
      "channel": 2,
      "note": 84,
      "start": 31.6934,
      "duration": 0.0502,
      "velocity": 88,
      "chip": "ym2612"
    },
    {
      "channel": 3,
      "note": 85,
      "start": 31.6941,
      "duration": 0.0497,
      "velocity": 88,
      "chip": "ym2612"
    },
    {
      "channel": 0,
      "note": 71,
      "start": 31.761,
      "duration": 0.0335,
      "velocity": 88,
      "chip": "ym2612"
    },
    {
      "channel": 2,
      "note": 83,
      "start": 31.7618,
      "duration": 0.05,
      "velocity": 88,
      "chip": "ym2612"
    },
    {
      "channel": 3,
      "note": 84,
      "start": 31.7626,
      "duration": 0.0494,
      "velocity": 88,
      "chip": "ym2612"
    },
    {
      "channel": 0,
      "note": 70,
      "start": 31.8292,
      "duration": 0.0337,
      "velocity": 88,
      "chip": "ym2612"
    },
    {
      "channel": 2,
      "note": 82,
      "start": 31.83,
      "duration": 0.0502,
      "velocity": 88,
      "chip": "ym2612"
    },
    {
      "channel": 3,
      "note": 83,
      "start": 31.8308,
      "duration": 0.0497,
      "velocity": 88,
      "chip": "ym2612"
    },
    {
      "channel": 0,
      "note": 69,
      "start": 31.8975,
      "duration": 0.0336,
      "velocity": 88,
      "chip": "ym2612"
    },
    {
      "channel": 2,
      "note": 81,
      "start": 31.8983,
      "duration": 0.0501,
      "velocity": 88,
      "chip": "ym2612"
    },
    {
      "channel": 3,
      "note": 82,
      "start": 31.8991,
      "duration": 0.0495,
      "velocity": 88,
      "chip": "ym2612"
    },
    {
      "channel": 0,
      "note": 68,
      "start": 31.9658,
      "duration": 0.0335,
      "velocity": 88,
      "chip": "ym2612"
    },
    {
      "channel": 2,
      "note": 80,
      "start": 31.9667,
      "duration": 0.05,
      "velocity": 88,
      "chip": "ym2612"
    },
    {
      "channel": 3,
      "note": 81,
      "start": 31.9676,
      "duration": 0.0494,
      "velocity": 88,
      "chip": "ym2612"
    },
    {
      "channel": 0,
      "note": 67,
      "start": 32.0341,
      "duration": 0.0334,
      "velocity": 88,
      "chip": "ym2612"
    },
    {
      "channel": 2,
      "note": 79,
      "start": 32.0349,
      "duration": 0.0499,
      "velocity": 88,
      "chip": "ym2612"
    },
    {
      "channel": 3,
      "note": 80,
      "start": 32.0357,
      "duration": 0.0494,
      "velocity": 88,
      "chip": "ym2612"
    },
    {
      "channel": 0,
      "note": 66,
      "start": 32.1022,
      "duration": 0.0336,
      "velocity": 88,
      "chip": "ym2612"
    },
    {
      "channel": 2,
      "note": 78,
      "start": 32.103,
      "duration": 0.05,
      "velocity": 88,
      "chip": "ym2612"
    },
    {
      "channel": 3,
      "note": 79,
      "start": 32.1041,
      "duration": 0.0492,
      "velocity": 88,
      "chip": "ym2612"
    },
    {
      "channel": 0,
      "note": 65,
      "start": 32.1707,
      "duration": 0.0334,
      "velocity": 88,
      "chip": "ym2612"
    },
    {
      "channel": 2,
      "note": 77,
      "start": 32.1715,
      "duration": 0.0498,
      "velocity": 88,
      "chip": "ym2612"
    },
    {
      "channel": 3,
      "note": 78,
      "start": 32.1724,
      "duration": 0.0492,
      "velocity": 88,
      "chip": "ym2612"
    },
    {
      "channel": 0,
      "note": 64,
      "start": 32.2387,
      "duration": 0.0336,
      "velocity": 88,
      "chip": "ym2612"
    },
    {
      "channel": 2,
      "note": 76,
      "start": 32.2394,
      "duration": 0.0501,
      "velocity": 88,
      "chip": "ym2612"
    },
    {
      "channel": 3,
      "note": 77,
      "start": 32.2402,
      "duration": 0.0496,
      "velocity": 88,
      "chip": "ym2612"
    },
    {
      "channel": 0,
      "note": 63,
      "start": 32.307,
      "duration": 0.0334,
      "velocity": 88,
      "chip": "ym2612"
    },
    {
      "channel": 2,
      "note": 75,
      "start": 32.3077,
      "duration": 0.05,
      "velocity": 88,
      "chip": "ym2612"
    },
    {
      "channel": 3,
      "note": 76,
      "start": 32.3085,
      "duration": 0.0494,
      "velocity": 88,
      "chip": "ym2612"
    },
    {
      "channel": 0,
      "note": 62,
      "start": 32.3752,
      "duration": 0.0335,
      "velocity": 88,
      "chip": "ym2612"
    },
    {
      "channel": 2,
      "note": 74,
      "start": 32.376,
      "duration": 0.0499,
      "velocity": 88,
      "chip": "ym2612"
    },
    {
      "channel": 3,
      "note": 75,
      "start": 32.3768,
      "duration": 0.0494,
      "velocity": 88,
      "chip": "ym2612"
    },
    {
      "channel": 0,
      "note": 61,
      "start": 32.4433,
      "duration": 0.0336,
      "velocity": 88,
      "chip": "ym2612"
    },
    {
      "channel": 2,
      "note": 73,
      "start": 32.4441,
      "duration": 0.0501,
      "velocity": 88,
      "chip": "ym2612"
    },
    {
      "channel": 3,
      "note": 74,
      "start": 32.4448,
      "duration": 0.0496,
      "velocity": 88,
      "chip": "ym2612"
    },
    {
      "channel": 0,
      "note": 60,
      "start": 32.5116,
      "duration": 0.0335,
      "velocity": 88,
      "chip": "ym2612"
    },
    {
      "channel": 2,
      "note": 72,
      "start": 32.5123,
      "duration": 0.0501,
      "velocity": 88,
      "chip": "ym2612"
    },
    {
      "channel": 3,
      "note": 73,
      "start": 32.5131,
      "duration": 0.0495,
      "velocity": 88,
      "chip": "ym2612"
    },
    {
      "channel": 0,
      "note": 59,
      "start": 32.5798,
      "duration": 0.0335,
      "velocity": 88,
      "chip": "ym2612"
    },
    {
      "channel": 2,
      "note": 71,
      "start": 32.5806,
      "duration": 0.05,
      "velocity": 88,
      "chip": "ym2612"
    },
    {
      "channel": 3,
      "note": 72,
      "start": 32.5814,
      "duration": 0.0494,
      "velocity": 88,
      "chip": "ym2612"
    },
    {
      "channel": 0,
      "note": 58,
      "start": 32.648,
      "duration": 0.0335,
      "velocity": 88,
      "chip": "ym2612"
    },
    {
      "channel": 2,
      "note": 70,
      "start": 32.6488,
      "duration": 0.0501,
      "velocity": 88,
      "chip": "ym2612"
    },
    {
      "channel": 3,
      "note": 71,
      "start": 32.6495,
      "duration": 0.0495,
      "velocity": 88,
      "chip": "ym2612"
    },
    {
      "channel": 0,
      "note": 57,
      "start": 32.7162,
      "duration": 0.0336,
      "velocity": 88,
      "chip": "ym2612"
    },
    {
      "channel": 2,
      "note": 69,
      "start": 32.717,
      "duration": 0.0502,
      "velocity": 88,
      "chip": "ym2612"
    },
    {
      "channel": 3,
      "note": 70,
      "start": 32.7177,
      "duration": 0.0498,
      "velocity": 88,
      "chip": "ym2612"
    },
    {
      "channel": 0,
      "note": 61,
      "start": 32.786,
      "duration": 0.1902,
      "velocity": 119,
      "chip": "ym2612"
    },
    {
      "channel": 2,
      "note": 42,
      "start": 32.7889,
      "duration": 0.5806,
      "velocity": 101,
      "chip": "ym2612"
    },
    {
      "channel": 3,
      "note": 90,
      "start": 32.7911,
      "duration": 0.049,
      "velocity": 95,
      "chip": "ym2612"
    },
    {
      "channel": 5,
      "note": 52,
      "start": 32.7923,
      "duration": 0.0821,
      "velocity": 93,
      "chip": "ym2612"
    },
    {
      "channel": 1,
      "note": 38,
      "start": 32.798,
      "duration": 0.1964,
      "velocity": 127,
      "chip": "ym2612"
    },
    {
      "channel": 3,
      "note": 90,
      "start": 32.8917,
      "duration": 0.051,
      "velocity": 95,
      "chip": "ym2612"
    },
    {
      "channel": 5,
      "note": 54,
      "start": 32.8922,
      "duration": 0.1873,
      "velocity": 93,
      "chip": "ym2612"
    },
    {
      "channel": 0,
      "note": 61,
      "start": 32.9941,
      "duration": 0.0846,
      "velocity": 119,
      "chip": "ym2612"
    },
    {
      "channel": 3,
      "note": 78,
      "start": 32.9955,
      "duration": 0.0498,
      "velocity": 95,
      "chip": "ym2612"
    },
    {
      "channel": 1,
      "note": 105,
      "start": 33.0031,
      "duration": 0.0939,
      "velocity": 127,
      "chip": "ym2612"
    },
    {
      "channel": 0,
      "note": 61,
      "start": 33.0967,
      "duration": 0.0845,
      "velocity": 119,
      "chip": "ym2612"
    },
    {
      "channel": 3,
      "note": 78,
      "start": 33.0983,
      "duration": 0.0496,
      "velocity": 95,
      "chip": "ym2612"
    },
    {
      "channel": 5,
      "note": 52,
      "start": 33.0989,
      "duration": 0.0834,
      "velocity": 93,
      "chip": "ym2612"
    },
    {
      "channel": 1,
      "note": 38,
      "start": 33.1056,
      "duration": 0.0938,
      "velocity": 127,
      "chip": "ym2612"
    },
    {
      "channel": 0,
      "note": 61,
      "start": 33.1992,
      "duration": 0.0847,
      "velocity": 119,
      "chip": "ym2612"
    },
    {
      "channel": 3,
      "note": 90,
      "start": 33.2009,
      "duration": 0.0495,
      "velocity": 95,
      "chip": "ym2612"
    },
    {
      "channel": 5,
      "note": 54,
      "start": 33.2015,
      "duration": 0.186,
      "velocity": 93,
      "chip": "ym2612"
    },
    {
      "channel": 1,
      "note": 38,
      "start": 33.2081,
      "duration": 0.1964,
      "velocity": 127,
      "chip": "ym2612"
    },
    {
      "channel": 0,
      "note": 61,
      "start": 33.3016,
      "duration": 0.0846,
      "velocity": 119,
      "chip": "ym2612"
    },
    {
      "channel": 3,
      "note": 90,
      "start": 33.303,
      "duration": 0.0498,
      "velocity": 95,
      "chip": "ym2612"
    },
    {
      "channel": 0,
      "note": 61,
      "start": 33.4042,
      "duration": 0.1865,
      "velocity": 119,
      "chip": "ym2612"
    },
    {
      "channel": 2,
      "note": 43,
      "start": 33.4052,
      "duration": 0.5782,
      "velocity": 101,
      "chip": "ym2612"
    },
    {
      "channel": 3,
      "note": 78,
      "start": 33.4061,
      "duration": 0.0488,
      "velocity": 95,
      "chip": "ym2612"
    },
    {
      "channel": 5,
      "note": 52,
      "start": 33.4067,
      "duration": 0.0825,
      "velocity": 93,
      "chip": "ym2612"
    },
    {
      "channel": 1,
      "note": 111,
      "start": 33.413,
      "duration": 0.196,
      "velocity": 119,
      "chip": "ym2612"
    },
    {
      "channel": 3,
      "note": 90,
      "start": 33.5065,
      "duration": 0.0507,
      "velocity": 95,
      "chip": "ym2612"
    },
    {
      "channel": 5,
      "note": 54,
      "start": 33.5071,
      "duration": 0.1871,
      "velocity": 93,
      "chip": "ym2612"
    },
    {
      "channel": 0,
      "note": 61,
      "start": 33.6086,
      "duration": 0.0844,
      "velocity": 119,
      "chip": "ym2612"
    },
    {
      "channel": 3,
      "note": 90,
      "start": 33.6104,
      "duration": 0.0494,
      "velocity": 95,
      "chip": "ym2612"
    },
    {
      "channel": 1,
      "note": 38,
      "start": 33.6176,
      "duration": 0.1961,
      "velocity": 127,
      "chip": "ym2612"
    },
    {
      "channel": 0,
      "note": 61,
      "start": 33.7109,
      "duration": 0.0845,
      "velocity": 119,
      "chip": "ym2612"
    },
    {
      "channel": 3,
      "note": 90,
      "start": 33.7124,
      "duration": 0.0498,
      "velocity": 95,
      "chip": "ym2612"
    },
    {
      "channel": 5,
      "note": 52,
      "start": 33.713,
      "duration": 0.0836,
      "velocity": 93,
      "chip": "ym2612"
    },
    {
      "channel": 0,
      "note": 61,
      "start": 33.8133,
      "duration": 0.1868,
      "velocity": 119,
      "chip": "ym2612"
    },
    {
      "channel": 3,
      "note": 90,
      "start": 33.8149,
      "duration": 0.0494,
      "velocity": 95,
      "chip": "ym2612"
    },
    {
      "channel": 5,
      "note": 54,
      "start": 33.8155,
      "duration": 0.1856,
      "velocity": 93,
      "chip": "ym2612"
    },
    {
      "channel": 1,
      "note": 105,
      "start": 33.8223,
      "duration": 0.0929,
      "velocity": 127,
      "chip": "ym2612"
    },
    {
      "channel": 3,
      "note": 78,
      "start": 33.9165,
      "duration": 0.0502,
      "velocity": 95,
      "chip": "ym2612"
    },
    {
      "channel": 1,
      "note": 105,
      "start": 33.9247,
      "duration": 0.0936,
      "velocity": 127,
      "chip": "ym2612"
    },
    {
      "channel": 0,
      "note": 61,
      "start": 34.0179,
      "duration": 0.0846,
      "velocity": 119,
      "chip": "ym2612"
    },
    {
      "channel": 2,
      "note": 39,
      "start": 34.0188,
      "duration": 0.3912,
      "velocity": 101,
      "chip": "ym2612"
    },
    {
      "channel": 3,
      "note": 90,
      "start": 34.0196,
      "duration": 0.0494,
      "velocity": 95,
      "chip": "ym2612"
    },
    {
      "channel": 5,
      "note": 47,
      "start": 34.0204,
      "duration": 0.1852,
      "velocity": 93,
      "chip": "ym2612"
    },
    {
      "channel": 1,
      "note": 38,
      "start": 34.0269,
      "duration": 0.196,
      "velocity": 127,
      "chip": "ym2612"
    },
    {
      "channel": 0,
      "note": 61,
      "start": 34.1205,
      "duration": 0.0842,
      "velocity": 119,
      "chip": "ym2612"
    },
    {
      "channel": 3,
      "note": 90,
      "start": 34.1219,
      "duration": 0.0496,
      "velocity": 95,
      "chip": "ym2612"
    },
    {
      "channel": 0,
      "note": 61,
      "start": 34.2226,
      "duration": 0.0845,
      "velocity": 119,
      "chip": "ym2612"
    },
    {
      "channel": 3,
      "note": 78,
      "start": 34.2242,
      "duration": 0.0495,
      "velocity": 95,
      "chip": "ym2612"
    },
    {
      "channel": 5,
      "note": 49,
      "start": 34.2249,
      "duration": 0.1858,
      "velocity": 93,
      "chip": "ym2612"
    },
    {
      "channel": 1,
      "note": 105,
      "start": 34.2316,
      "duration": 0.0937,
      "velocity": 127,
      "chip": "ym2612"
    },
    {
      "channel": 0,
      "note": 61,
      "start": 34.325,
      "duration": 0.0847,
      "velocity": 119,
      "chip": "ym2612"
    },
    {
      "channel": 3,
      "note": 78,
      "start": 34.3266,
      "duration": 0.0496,
      "velocity": 95,
      "chip": "ym2612"
    },
    {
      "channel": 1,
      "note": 105,
      "start": 34.334,
      "duration": 0.0941,
      "velocity": 127,
      "chip": "ym2612"
    },
    {
      "channel": 0,
      "note": 61,
      "start": 34.4277,
      "duration": 0.1868,
      "velocity": 119,
      "chip": "ym2612"
    },
    {
      "channel": 2,
      "note": 42,
      "start": 34.4287,
      "duration": 0.5791,
      "velocity": 101,
      "chip": "ym2612"
    },
    {
      "channel": 3,
      "note": 90,
      "start": 34.4298,
      "duration": 0.0487,
      "velocity": 95,
      "chip": "ym2612"
    },
    {
      "channel": 5,
      "note": 52,
      "start": 34.4305,
      "duration": 0.0823,
      "velocity": 93,
      "chip": "ym2612"
    },
    {
      "channel": 1,
      "note": 38,
      "start": 34.4364,
      "duration": 0.1962,
      "velocity": 127,
      "chip": "ym2612"
    },
    {
      "channel": 3,
      "note": 90,
      "start": 34.5302,
      "duration": 0.0507,
      "velocity": 95,
      "chip": "ym2612"
    },
    {
      "channel": 5,
      "note": 54,
      "start": 34.5308,
      "duration": 0.1871,
      "velocity": 93,
      "chip": "ym2612"
    },
    {
      "channel": 0,
      "note": 61,
      "start": 34.6323,
      "duration": 0.0847,
      "velocity": 119,
      "chip": "ym2612"
    },
    {
      "channel": 3,
      "note": 78,
      "start": 34.6337,
      "duration": 0.0498,
      "velocity": 95,
      "chip": "ym2612"
    },
    {
      "channel": 1,
      "note": 105,
      "start": 34.6413,
      "duration": 0.0939,
      "velocity": 127,
      "chip": "ym2612"
    },
    {
      "channel": 0,
      "note": 61,
      "start": 34.7349,
      "duration": 0.0844,
      "velocity": 119,
      "chip": "ym2612"
    },
    {
      "channel": 3,
      "note": 78,
      "start": 34.7365,
      "duration": 0.0495,
      "velocity": 95,
      "chip": "ym2612"
    },
    {
      "channel": 5,
      "note": 52,
      "start": 34.7374,
      "duration": 0.0833,
      "velocity": 93,
      "chip": "ym2612"
    },
    {
      "channel": 1,
      "note": 38,
      "start": 34.7438,
      "duration": 0.0939,
      "velocity": 127,
      "chip": "ym2612"
    },
    {
      "channel": 0,
      "note": 61,
      "start": 34.8374,
      "duration": 0.0845,
      "velocity": 119,
      "chip": "ym2612"
    },
    {
      "channel": 3,
      "note": 90,
      "start": 34.8391,
      "duration": 0.0495,
      "velocity": 95,
      "chip": "ym2612"
    },
    {
      "channel": 5,
      "note": 54,
      "start": 34.8397,
      "duration": 0.1857,
      "velocity": 93,
      "chip": "ym2612"
    },
    {
      "channel": 1,
      "note": 38,
      "start": 34.8461,
      "duration": 0.1967,
      "velocity": 127,
      "chip": "ym2612"
    },
    {
      "channel": 0,
      "note": 61,
      "start": 34.9398,
      "duration": 0.0846,
      "velocity": 119,
      "chip": "ym2612"
    },
    {
      "channel": 3,
      "note": 90,
      "start": 34.9413,
      "duration": 0.0498,
      "velocity": 95,
      "chip": "ym2612"
    },
    {
      "channel": 0,
      "note": 61,
      "start": 35.0425,
      "duration": 0.1867,
      "velocity": 119,
      "chip": "ym2612"
    },
    {
      "channel": 2,
      "note": 46,
      "start": 35.0434,
      "duration": 0.5783,
      "velocity": 101,
      "chip": "ym2612"
    },
    {
      "channel": 3,
      "note": 78,
      "start": 35.0443,
      "duration": 0.0488,
      "velocity": 95,
      "chip": "ym2612"
    },
    {
      "channel": 5,
      "note": 52,
      "start": 35.045,
      "duration": 0.0826,
      "velocity": 93,
      "chip": "ym2612"
    },
    {
      "channel": 1,
      "note": 111,
      "start": 35.0515,
      "duration": 0.1959,
      "velocity": 119,
      "chip": "ym2612"
    },
    {
      "channel": 3,
      "note": 90,
      "start": 35.145,
      "duration": 0.0506,
      "velocity": 95,
      "chip": "ym2612"
    },
    {
      "channel": 5,
      "note": 54,
      "start": 35.1455,
      "duration": 0.1871,
      "velocity": 93,
      "chip": "ym2612"
    },
    {
      "channel": 0,
      "note": 61,
      "start": 35.247,
      "duration": 0.0846,
      "velocity": 119,
      "chip": "ym2612"
    },
    {
      "channel": 3,
      "note": 90,
      "start": 35.2488,
      "duration": 0.0495,
      "velocity": 95,
      "chip": "ym2612"
    },
    {
      "channel": 1,
      "note": 38,
      "start": 35.256,
      "duration": 0.1961,
      "velocity": 127,
      "chip": "ym2612"
    },
    {
      "channel": 0,
      "note": 61,
      "start": 35.3493,
      "duration": 0.0846,
      "velocity": 119,
      "chip": "ym2612"
    },
    {
      "channel": 3,
      "note": 90,
      "start": 35.3507,
      "duration": 0.0498,
      "velocity": 95,
      "chip": "ym2612"
    },
    {
      "channel": 5,
      "note": 52,
      "start": 35.3513,
      "duration": 0.0836,
      "velocity": 93,
      "chip": "ym2612"
    },
    {
      "channel": 0,
      "note": 61,
      "start": 35.4517,
      "duration": 0.1868,
      "velocity": 119,
      "chip": "ym2612"
    },
    {
      "channel": 3,
      "note": 90,
      "start": 35.4533,
      "duration": 0.0495,
      "velocity": 95,
      "chip": "ym2612"
    },
    {
      "channel": 5,
      "note": 54,
      "start": 35.4542,
      "duration": 0.1853,
      "velocity": 93,
      "chip": "ym2612"
    },
    {
      "channel": 1,
      "note": 105,
      "start": 35.4607,
      "duration": 0.0931,
      "velocity": 127,
      "chip": "ym2612"
    },
    {
      "channel": 3,
      "note": 78,
      "start": 35.5551,
      "duration": 0.05,
      "velocity": 95,
      "chip": "ym2612"
    },
    {
      "channel": 1,
      "note": 105,
      "start": 35.563,
      "duration": 0.0937,
      "velocity": 127,
      "chip": "ym2612"
    },
    {
      "channel": 0,
      "note": 61,
      "start": 35.6563,
      "duration": 0.0845,
      "velocity": 119,
      "chip": "ym2612"
    },
    {
      "channel": 2,
      "note": 43,
      "start": 35.6573,
      "duration": 0.3914,
      "velocity": 101,
      "chip": "ym2612"
    },
    {
      "channel": 3,
      "note": 90,
      "start": 35.658,
      "duration": 0.0493,
      "velocity": 95,
      "chip": "ym2612"
    },
    {
      "channel": 5,
      "note": 47,
      "start": 35.6586,
      "duration": 0.1856,
      "velocity": 93,
      "chip": "ym2612"
    },
    {
      "channel": 1,
      "note": 38,
      "start": 35.6653,
      "duration": 0.1961,
      "velocity": 127,
      "chip": "ym2612"
    },
    {
      "channel": 0,
      "note": 61,
      "start": 35.7588,
      "duration": 0.0846,
      "velocity": 119,
      "chip": "ym2612"
    },
    {
      "channel": 3,
      "note": 90,
      "start": 35.7601,
      "duration": 0.0498,
      "velocity": 95,
      "chip": "ym2612"
    },
    {
      "channel": 0,
      "note": 61,
      "start": 35.861,
      "duration": 0.0849,
      "velocity": 119,
      "chip": "ym2612"
    },
    {
      "channel": 3,
      "note": 78,
      "start": 35.8627,
      "duration": 0.0495,
      "velocity": 95,
      "chip": "ym2612"
    },
    {
      "channel": 5,
      "note": 49,
      "start": 35.8633,
      "duration": 0.1861,
      "velocity": 93,
      "chip": "ym2612"
    },
    {
      "channel": 1,
      "note": 105,
      "start": 35.8701,
      "duration": 0.0939,
      "velocity": 127,
      "chip": "ym2612"
    },
    {
      "channel": 0,
      "note": 61,
      "start": 35.9637,
      "duration": 0.0847,
      "velocity": 119,
      "chip": "ym2612"
    },
    {
      "channel": 3,
      "note": 78,
      "start": 35.9653,
      "duration": 0.0496,
      "velocity": 95,
      "chip": "ym2612"
    },
    {
      "channel": 1,
      "note": 105,
      "start": 35.9728,
      "duration": 0.0941,
      "velocity": 127,
      "chip": "ym2612"
    },
    {
      "channel": 0,
      "note": 61,
      "start": 36.0665,
      "duration": 0.1869,
      "velocity": 119,
      "chip": "ym2612"
    },
    {
      "channel": 2,
      "note": 42,
      "start": 36.0675,
      "duration": 0.5791,
      "velocity": 101,
      "chip": "ym2612"
    },
    {
      "channel": 3,
      "note": 90,
      "start": 36.0686,
      "duration": 0.0488,
      "velocity": 95,
      "chip": "ym2612"
    },
    {
      "channel": 5,
      "note": 52,
      "start": 36.0693,
      "duration": 0.0825,
      "velocity": 93,
      "chip": "ym2612"
    },
    {
      "channel": 1,
      "note": 38,
      "start": 36.0752,
      "duration": 0.1966,
      "velocity": 127,
      "chip": "ym2612"
    },
    {
      "channel": 3,
      "note": 90,
      "start": 36.1691,
      "duration": 0.0508,
      "velocity": 95,
      "chip": "ym2612"
    },
    {
      "channel": 5,
      "note": 54,
      "start": 36.1697,
      "duration": 0.1871,
      "velocity": 93,
      "chip": "ym2612"
    },
    {
      "channel": 0,
      "note": 61,
      "start": 36.2715,
      "duration": 0.0844,
      "velocity": 119,
      "chip": "ym2612"
    },
    {
      "channel": 3,
      "note": 78,
      "start": 36.2729,
      "duration": 0.0496,
      "velocity": 95,
      "chip": "ym2612"
    },
    {
      "channel": 1,
      "note": 105,
      "start": 36.2805,
      "duration": 0.0936,
      "velocity": 127,
      "chip": "ym2612"
    },
    {
      "channel": 0,
      "note": 61,
      "start": 36.3738,
      "duration": 0.0845,
      "velocity": 119,
      "chip": "ym2612"
    },
    {
      "channel": 3,
      "note": 78,
      "start": 36.3754,
      "duration": 0.0495,
      "velocity": 95,
      "chip": "ym2612"
    },
    {
      "channel": 5,
      "note": 52,
      "start": 36.3759,
      "duration": 0.0834,
      "velocity": 93,
      "chip": "ym2612"
    },
    {
      "channel": 1,
      "note": 38,
      "start": 36.3827,
      "duration": 0.0938,
      "velocity": 127,
      "chip": "ym2612"
    },
    {
      "channel": 0,
      "note": 61,
      "start": 36.4761,
      "duration": 0.0846,
      "velocity": 119,
      "chip": "ym2612"
    },
    {
      "channel": 3,
      "note": 90,
      "start": 36.4778,
      "duration": 0.0495,
      "velocity": 95,
      "chip": "ym2612"
    },
    {
      "channel": 5,
      "note": 54,
      "start": 36.4784,
      "duration": 0.1858,
      "velocity": 93,
      "chip": "ym2612"
    },
    {
      "channel": 1,
      "note": 38,
      "start": 36.4851,
      "duration": 0.1962,
      "velocity": 127,
      "chip": "ym2612"
    },
    {
      "channel": 0,
      "note": 61,
      "start": 36.5785,
      "duration": 0.0846,
      "velocity": 119,
      "chip": "ym2612"
    },
    {
      "channel": 3,
      "note": 90,
      "start": 36.58,
      "duration": 0.0498,
      "velocity": 95,
      "chip": "ym2612"
    },
    {
      "channel": 0,
      "note": 61,
      "start": 36.681,
      "duration": 0.187,
      "velocity": 119,
      "chip": "ym2612"
    },
    {
      "channel": 2,
      "note": 43,
      "start": 36.6819,
      "duration": 0.5791,
      "velocity": 101,
      "chip": "ym2612"
    },
    {
      "channel": 3,
      "note": 78,
      "start": 36.6829,
      "duration": 0.0492,
      "velocity": 95,
      "chip": "ym2612"
    },
    {
      "channel": 5,
      "note": 52,
      "start": 36.6834,
      "duration": 0.0829,
      "velocity": 93,
      "chip": "ym2612"
    },
    {
      "channel": 1,
      "note": 111,
      "start": 36.6901,
      "duration": 0.1961,
      "velocity": 119,
      "chip": "ym2612"
    },
    {
      "channel": 3,
      "note": 90,
      "start": 36.7837,
      "duration": 0.0506,
      "velocity": 95,
      "chip": "ym2612"
    },
    {
      "channel": 5,
      "note": 54,
      "start": 36.7843,
      "duration": 0.1874,
      "velocity": 93,
      "chip": "ym2612"
    },
    {
      "channel": 0,
      "note": 61,
      "start": 36.8858,
      "duration": 0.0849,
      "velocity": 119,
      "chip": "ym2612"
    },
    {
      "channel": 3,
      "note": 90,
      "start": 36.8878,
      "duration": 0.0494,
      "velocity": 95,
      "chip": "ym2612"
    },
    {
      "channel": 1,
      "note": 38,
      "start": 36.8948,
      "duration": 0.1961,
      "velocity": 127,
      "chip": "ym2612"
    },
    {
      "channel": 0,
      "note": 61,
      "start": 36.9883,
      "duration": 0.0845,
      "velocity": 119,
      "chip": "ym2612"
    },
    {
      "channel": 3,
      "note": 90,
      "start": 36.9898,
      "duration": 0.0498,
      "velocity": 95,
      "chip": "ym2612"
    },
    {
      "channel": 5,
      "note": 52,
      "start": 36.9903,
      "duration": 0.0835,
      "velocity": 93,
      "chip": "ym2612"
    },
    {
      "channel": 0,
      "note": 61,
      "start": 37.0906,
      "duration": 0.1873,
      "velocity": 119,
      "chip": "ym2612"
    },
    {
      "channel": 3,
      "note": 90,
      "start": 37.0922,
      "duration": 0.0495,
      "velocity": 95,
      "chip": "ym2612"
    },
    {
      "channel": 5,
      "note": 54,
      "start": 37.0928,
      "duration": 0.186,
      "velocity": 93,
      "chip": "ym2612"
    },
    {
      "channel": 1,
      "note": 105,
      "start": 37.0995,
      "duration": 0.0932,
      "velocity": 127,
      "chip": "ym2612"
    },
    {
      "channel": 3,
      "note": 78,
      "start": 37.1941,
      "duration": 0.0503,
      "velocity": 95,
      "chip": "ym2612"
    },
    {
      "channel": 1,
      "note": 105,
      "start": 37.2023,
      "duration": 0.0937,
      "velocity": 127,
      "chip": "ym2612"
    },
    {
      "channel": 0,
      "note": 61,
      "start": 37.2956,
      "duration": 0.0846,
      "velocity": 119,
      "chip": "ym2612"
    },
    {
      "channel": 2,
      "note": 39,
      "start": 37.2966,
      "duration": 0.3915,
      "velocity": 101,
      "chip": "ym2612"
    },
    {
      "channel": 3,
      "note": 90,
      "start": 37.2973,
      "duration": 0.0494,
      "velocity": 95,
      "chip": "ym2612"
    },
    {
      "channel": 5,
      "note": 47,
      "start": 37.2979,
      "duration": 0.1855,
      "velocity": 93,
      "chip": "ym2612"
    },
    {
      "channel": 1,
      "note": 38,
      "start": 37.3049,
      "duration": 0.1957,
      "velocity": 127,
      "chip": "ym2612"
    },
    {
      "channel": 0,
      "note": 61,
      "start": 37.3981,
      "duration": 0.0845,
      "velocity": 119,
      "chip": "ym2612"
    },
    {
      "channel": 3,
      "note": 90,
      "start": 37.3994,
      "duration": 0.0496,
      "velocity": 95,
      "chip": "ym2612"
    },
    {
      "channel": 0,
      "note": 61,
      "start": 37.5003,
      "duration": 0.0849,
      "velocity": 119,
      "chip": "ym2612"
    },
    {
      "channel": 3,
      "note": 78,
      "start": 37.502,
      "duration": 0.0498,
      "velocity": 95,
      "chip": "ym2612"
    },
    {
      "channel": 5,
      "note": 49,
      "start": 37.5026,
      "duration": 0.1861,
      "velocity": 93,
      "chip": "ym2612"
    },
    {
      "channel": 1,
      "note": 105,
      "start": 37.5096,
      "duration": 0.0937,
      "velocity": 127,
      "chip": "ym2612"
    },
    {
      "channel": 0,
      "note": 61,
      "start": 37.603,
      "duration": 0.0847,
      "velocity": 119,
      "chip": "ym2612"
    },
    {
      "channel": 3,
      "note": 78,
      "start": 37.6048,
      "duration": 0.0496,
      "velocity": 95,
      "chip": "ym2612"
    },
    {
      "channel": 1,
      "note": 105,
      "start": 37.6121,
      "duration": 0.0941,
      "velocity": 127,
      "chip": "ym2612"
    },
    {
      "channel": 0,
      "note": 61,
      "start": 37.7058,
      "duration": 0.1868,
      "velocity": 119,
      "chip": "ym2612"
    },
    {
      "channel": 2,
      "note": 42,
      "start": 37.7068,
      "duration": 0.5788,
      "velocity": 101,
      "chip": "ym2612"
    },
    {
      "channel": 3,
      "note": 90,
      "start": 37.7079,
      "duration": 0.0487,
      "velocity": 95,
      "chip": "ym2612"
    },
    {
      "channel": 5,
      "note": 52,
      "start": 37.7086,
      "duration": 0.0823,
      "velocity": 93,
      "chip": "ym2612"
    },
    {
      "channel": 1,
      "note": 38,
      "start": 37.7145,
      "duration": 0.1962,
      "velocity": 127,
      "chip": "ym2612"
    },
    {
      "channel": 3,
      "note": 90,
      "start": 37.8083,
      "duration": 0.0508,
      "velocity": 95,
      "chip": "ym2612"
    },
    {
      "channel": 5,
      "note": 54,
      "start": 37.8089,
      "duration": 0.187,
      "velocity": 93,
      "chip": "ym2612"
    },
    {
      "channel": 0,
      "note": 61,
      "start": 37.9104,
      "duration": 0.0846,
      "velocity": 119,
      "chip": "ym2612"
    },
    {
      "channel": 3,
      "note": 78,
      "start": 37.9118,
      "duration": 0.0498,
      "velocity": 95,
      "chip": "ym2612"
    },
    {
      "channel": 1,
      "note": 105,
      "start": 37.9195,
      "duration": 0.0937,
      "velocity": 127,
      "chip": "ym2612"
    },
    {
      "channel": 0,
      "note": 61,
      "start": 38.0128,
      "duration": 0.0846,
      "velocity": 119,
      "chip": "ym2612"
    },
    {
      "channel": 3,
      "note": 78,
      "start": 38.0144,
      "duration": 0.0496,
      "velocity": 95,
      "chip": "ym2612"
    },
    {
      "channel": 5,
      "note": 52,
      "start": 38.015,
      "duration": 0.0835,
      "velocity": 93,
      "chip": "ym2612"
    },
    {
      "channel": 1,
      "note": 38,
      "start": 38.022,
      "duration": 0.0936,
      "velocity": 127,
      "chip": "ym2612"
    },
    {
      "channel": 0,
      "note": 61,
      "start": 38.1153,
      "duration": 0.0845,
      "velocity": 119,
      "chip": "ym2612"
    },
    {
      "channel": 3,
      "note": 90,
      "start": 38.117,
      "duration": 0.0494,
      "velocity": 95,
      "chip": "ym2612"
    },
    {
      "channel": 5,
      "note": 54,
      "start": 38.1176,
      "duration": 0.1856,
      "velocity": 93,
      "chip": "ym2612"
    },
    {
      "channel": 1,
      "note": 38,
      "start": 38.1243,
      "duration": 0.1963,
      "velocity": 127,
      "chip": "ym2612"
    },
    {
      "channel": 0,
      "note": 61,
      "start": 38.2177,
      "duration": 0.0844,
      "velocity": 119,
      "chip": "ym2612"
    },
    {
      "channel": 3,
      "note": 90,
      "start": 38.2192,
      "duration": 0.0498,
      "velocity": 95,
      "chip": "ym2612"
    },
    {
      "channel": 0,
      "note": 61,
      "start": 38.32,
      "duration": 0.1873,
      "velocity": 119,
      "chip": "ym2612"
    },
    {
      "channel": 2,
      "note": 38,
      "start": 38.3212,
      "duration": 0.5793,
      "velocity": 101,
      "chip": "ym2612"
    },
    {
      "channel": 3,
      "note": 78,
      "start": 38.3221,
      "duration": 0.0492,
      "velocity": 95,
      "chip": "ym2612"
    },
    {
      "channel": 5,
      "note": 52,
      "start": 38.3227,
      "duration": 0.0829,
      "velocity": 93,
      "chip": "ym2612"
    },
    {
      "channel": 1,
      "note": 111,
      "start": 38.329,
      "duration": 0.1964,
      "velocity": 119,
      "chip": "ym2612"
    },
    {
      "channel": 3,
      "note": 90,
      "start": 38.4229,
      "duration": 0.0507,
      "velocity": 95,
      "chip": "ym2612"
    },
    {
      "channel": 5,
      "note": 54,
      "start": 38.4235,
      "duration": 0.1875,
      "velocity": 93,
      "chip": "ym2612"
    },
    {
      "channel": 0,
      "note": 61,
      "start": 38.5251,
      "duration": 0.0849,
      "velocity": 119,
      "chip": "ym2612"
    },
    {
      "channel": 3,
      "note": 90,
      "start": 38.5269,
      "duration": 0.0497,
      "velocity": 95,
      "chip": "ym2612"
    },
    {
      "channel": 1,
      "note": 38,
      "start": 38.5341,
      "duration": 0.1966,
      "velocity": 127,
      "chip": "ym2612"
    },
    {
      "channel": 0,
      "note": 61,
      "start": 38.6278,
      "duration": 0.0848,
      "velocity": 119,
      "chip": "ym2612"
    },
    {
      "channel": 3,
      "note": 90,
      "start": 38.6293,
      "duration": 0.0498,
      "velocity": 95,
      "chip": "ym2612"
    },
    {
      "channel": 5,
      "note": 52,
      "start": 38.6298,
      "duration": 0.0838,
      "velocity": 93,
      "chip": "ym2612"
    },
    {
      "channel": 0,
      "note": 61,
      "start": 38.7304,
      "duration": 0.1868,
      "velocity": 119,
      "chip": "ym2612"
    },
    {
      "channel": 3,
      "note": 90,
      "start": 38.732,
      "duration": 0.0494,
      "velocity": 95,
      "chip": "ym2612"
    },
    {
      "channel": 5,
      "note": 54,
      "start": 38.7326,
      "duration": 0.1856,
      "velocity": 93,
      "chip": "ym2612"
    },
    {
      "channel": 1,
      "note": 105,
      "start": 38.7394,
      "duration": 0.0929,
      "velocity": 127,
      "chip": "ym2612"
    },
    {
      "channel": 3,
      "note": 78,
      "start": 38.8335,
      "duration": 0.0502,
      "velocity": 95,
      "chip": "ym2612"
    },
    {
      "channel": 1,
      "note": 105,
      "start": 38.8417,
      "duration": 0.0936,
      "velocity": 127,
      "chip": "ym2612"
    },
    {
      "channel": 0,
      "note": 61,
      "start": 38.9349,
      "duration": 0.0846,
      "velocity": 119,
      "chip": "ym2612"
    },
    {
      "channel": 2,
      "note": 37,
      "start": 38.9358,
      "duration": 0.391,
      "velocity": 101,
      "chip": "ym2612"
    },
    {
      "channel": 3,
      "note": 90,
      "start": 38.9366,
      "duration": 0.0494,
      "velocity": 95,
      "chip": "ym2612"
    },
    {
      "channel": 5,
      "note": 47,
      "start": 38.9375,
      "duration": 0.1852,
      "velocity": 93,
      "chip": "ym2612"
    },
    {
      "channel": 1,
      "note": 38,
      "start": 38.9439,
      "duration": 0.196,
      "velocity": 127,
      "chip": "ym2612"
    },
    {
      "channel": 0,
      "note": 61,
      "start": 39.0376,
      "duration": 0.0842,
      "velocity": 119,
      "chip": "ym2612"
    },
    {
      "channel": 3,
      "note": 90,
      "start": 39.0389,
      "duration": 0.0494,
      "velocity": 95,
      "chip": "ym2612"
    },
    {
      "channel": 0,
      "note": 61,
      "start": 39.1395,
      "duration": 0.0845,
      "velocity": 119,
      "chip": "ym2612"
    },
    {
      "channel": 3,
      "note": 78,
      "start": 39.1412,
      "duration": 0.0495,
      "velocity": 95,
      "chip": "ym2612"
    },
    {
      "channel": 5,
      "note": 49,
      "start": 39.1418,
      "duration": 0.1857,
      "velocity": 93,
      "chip": "ym2612"
    },
    {
      "channel": 1,
      "note": 105,
      "start": 39.1486,
      "duration": 0.0937,
      "velocity": 127,
      "chip": "ym2612"
    },
    {
      "channel": 0,
      "note": 61,
      "start": 39.242,
      "duration": 0.0845,
      "velocity": 119,
      "chip": "ym2612"
    },
    {
      "channel": 3,
      "note": 78,
      "start": 39.2436,
      "duration": 0.0495,
      "velocity": 95,
      "chip": "ym2612"
    },
    {
      "channel": 1,
      "note": 105,
      "start": 39.251,
      "duration": 0.094,
      "velocity": 127,
      "chip": "ym2612"
    },
    {
      "channel": 0,
      "note": 61,
      "start": 39.3446,
      "duration": 0.1866,
      "velocity": 119,
      "chip": "ym2612"
    },
    {
      "channel": 2,
      "note": 42,
      "start": 39.3457,
      "duration": 0.5787,
      "velocity": 101,
      "chip": "ym2612"
    },
    {
      "channel": 3,
      "note": 90,
      "start": 39.3469,
      "duration": 0.0484,
      "velocity": 95,
      "chip": "ym2612"
    },
    {
      "channel": 5,
      "note": 52,
      "start": 39.3476,
      "duration": 0.0821,
      "velocity": 93,
      "chip": "ym2612"
    },
    {
      "channel": 1,
      "note": 38,
      "start": 39.3534,
      "duration": 0.1959,
      "velocity": 127,
      "chip": "ym2612"
    },
    {
      "channel": 3,
      "note": 90,
      "start": 39.4469,
      "duration": 0.0507,
      "velocity": 95,
      "chip": "ym2612"
    },
    {
      "channel": 5,
      "note": 54,
      "start": 39.4475,
      "duration": 0.1871,
      "velocity": 93,
      "chip": "ym2612"
    },
    {
      "channel": 0,
      "note": 61,
      "start": 39.549,
      "duration": 0.0847,
      "velocity": 119,
      "chip": "ym2612"
    },
    {
      "channel": 3,
      "note": 78,
      "start": 39.5504,
      "duration": 0.0498,
      "velocity": 95,
      "chip": "ym2612"
    },
    {
      "channel": 1,
      "note": 105,
      "start": 39.558,
      "duration": 0.0939,
      "velocity": 127,
      "chip": "ym2612"
    },
    {
      "channel": 0,
      "note": 61,
      "start": 39.6516,
      "duration": 0.0843,
      "velocity": 119,
      "chip": "ym2612"
    },
    {
      "channel": 3,
      "note": 78,
      "start": 39.6532,
      "duration": 0.0495,
      "velocity": 95,
      "chip": "ym2612"
    },
    {
      "channel": 5,
      "note": 52,
      "start": 39.6541,
      "duration": 0.0831,
      "velocity": 93,
      "chip": "ym2612"
    },
    {
      "channel": 1,
      "note": 38,
      "start": 39.6605,
      "duration": 0.0938,
      "velocity": 127,
      "chip": "ym2612"
    },
    {
      "channel": 0,
      "note": 61,
      "start": 39.754,
      "duration": 0.0846,
      "velocity": 119,
      "chip": "ym2612"
    },
    {
      "channel": 3,
      "note": 90,
      "start": 39.7557,
      "duration": 0.0495,
      "velocity": 95,
      "chip": "ym2612"
    },
    {
      "channel": 5,
      "note": 54,
      "start": 39.7563,
      "duration": 0.1858,
      "velocity": 93,
      "chip": "ym2612"
    },
    {
      "channel": 1,
      "note": 38,
      "start": 39.7627,
      "duration": 0.1968,
      "velocity": 127,
      "chip": "ym2612"
    },
    {
      "channel": 0,
      "note": 61,
      "start": 39.8564,
      "duration": 0.0846,
      "velocity": 119,
      "chip": "ym2612"
    },
    {
      "channel": 3,
      "note": 90,
      "start": 39.8579,
      "duration": 0.0499,
      "velocity": 95,
      "chip": "ym2612"
    },
    {
      "channel": 0,
      "note": 61,
      "start": 39.9591,
      "duration": 0.1871,
      "velocity": 119,
      "chip": "ym2612"
    },
    {
      "channel": 2,
      "note": 43,
      "start": 39.96,
      "duration": 0.5792,
      "velocity": 101,
      "chip": "ym2612"
    },
    {
      "channel": 3,
      "note": 78,
      "start": 39.961,
      "duration": 0.049,
      "velocity": 95,
      "chip": "ym2612"
    },
    {
      "channel": 5,
      "note": 52,
      "start": 39.9616,
      "duration": 0.0829,
      "velocity": 93,
      "chip": "ym2612"
    },
    {
      "channel": 1,
      "note": 111,
      "start": 39.9681,
      "duration": 0.1962,
      "velocity": 119,
      "chip": "ym2612"
    },
    {
      "channel": 3,
      "note": 90,
      "start": 40.0618,
      "duration": 0.0506,
      "velocity": 95,
      "chip": "ym2612"
    },
    {
      "channel": 5,
      "note": 54,
      "start": 40.0624,
      "duration": 0.1874,
      "velocity": 93,
      "chip": "ym2612"
    },
    {
      "channel": 0,
      "note": 61,
      "start": 40.164,
      "duration": 0.0847,
      "velocity": 119,
      "chip": "ym2612"
    },
    {
      "channel": 3,
      "note": 90,
      "start": 40.1658,
      "duration": 0.0495,
      "velocity": 95,
      "chip": "ym2612"
    },
    {
      "channel": 1,
      "note": 38,
      "start": 40.173,
      "duration": 0.1963,
      "velocity": 127,
      "chip": "ym2612"
    },
    {
      "channel": 0,
      "note": 61,
      "start": 40.2665,
      "duration": 0.0846,
      "velocity": 119,
      "chip": "ym2612"
    },
    {
      "channel": 3,
      "note": 90,
      "start": 40.268,
      "duration": 0.0499,
      "velocity": 95,
      "chip": "ym2612"
    },
    {
      "channel": 5,
      "note": 52,
      "start": 40.2685,
      "duration": 0.0837,
      "velocity": 93,
      "chip": "ym2612"
    },
    {
      "channel": 0,
      "note": 61,
      "start": 40.369,
      "duration": 0.187,
      "velocity": 119,
      "chip": "ym2612"
    },
    {
      "channel": 3,
      "note": 90,
      "start": 40.3708,
      "duration": 0.0494,
      "velocity": 95,
      "chip": "ym2612"
    },
    {
      "channel": 5,
      "note": 54,
      "start": 40.3715,
      "duration": 0.1854,
      "velocity": 93,
      "chip": "ym2612"
    },
    {
      "channel": 1,
      "note": 105,
      "start": 40.378,
      "duration": 0.0932,
      "velocity": 127,
      "chip": "ym2612"
    },
    {
      "channel": 3,
      "note": 78,
      "start": 40.4724,
      "duration": 0.05,
      "velocity": 95,
      "chip": "ym2612"
    },
    {
      "channel": 1,
      "note": 105,
      "start": 40.4804,
      "duration": 0.0938,
      "velocity": 127,
      "chip": "ym2612"
    },
    {
      "channel": 0,
      "note": 61,
      "start": 40.5738,
      "duration": 0.0848,
      "velocity": 119,
      "chip": "ym2612"
    },
    {
      "channel": 2,
      "note": 39,
      "start": 40.5747,
      "duration": 0.3915,
      "velocity": 101,
      "chip": "ym2612"
    },
    {
      "channel": 3,
      "note": 90,
      "start": 40.5755,
      "duration": 0.0494,
      "velocity": 95,
      "chip": "ym2612"
    },
    {
      "channel": 5,
      "note": 47,
      "start": 40.5761,
      "duration": 0.1858,
      "velocity": 93,
      "chip": "ym2612"
    },
    {
      "channel": 1,
      "note": 38,
      "start": 40.5828,
      "duration": 0.1963,
      "velocity": 127,
      "chip": "ym2612"
    },
    {
      "channel": 0,
      "note": 61,
      "start": 40.6765,
      "duration": 0.0845,
      "velocity": 119,
      "chip": "ym2612"
    },
    {
      "channel": 3,
      "note": 90,
      "start": 40.6778,
      "duration": 0.0497,
      "velocity": 95,
      "chip": "ym2612"
    },
    {
      "channel": 0,
      "note": 61,
      "start": 40.7788,
      "duration": 0.0847,
      "velocity": 119,
      "chip": "ym2612"
    },
    {
      "channel": 3,
      "note": 78,
      "start": 40.7805,
      "duration": 0.0496,
      "velocity": 95,
      "chip": "ym2612"
    },
    {
      "channel": 5,
      "note": 49,
      "start": 40.7811,
      "duration": 0.1858,
      "velocity": 93,
      "chip": "ym2612"
    },
    {
      "channel": 1,
      "note": 105,
      "start": 40.7881,
      "duration": 0.0935,
      "velocity": 127,
      "chip": "ym2612"
    },
    {
      "channel": 0,
      "note": 61,
      "start": 40.8813,
      "duration": 0.0846,
      "velocity": 119,
      "chip": "ym2612"
    },
    {
      "channel": 3,
      "note": 78,
      "start": 40.8829,
      "duration": 0.0495,
      "velocity": 95,
      "chip": "ym2612"
    },
    {
      "channel": 1,
      "note": 105,
      "start": 40.8903,
      "duration": 0.094,
      "velocity": 127,
      "chip": "ym2612"
    },
    {
      "channel": 0,
      "note": 61,
      "start": 40.9839,
      "duration": 0.1869,
      "velocity": 119,
      "chip": "ym2612"
    },
    {
      "channel": 2,
      "note": 42,
      "start": 40.9849,
      "duration": 0.5788,
      "velocity": 101,
      "chip": "ym2612"
    },
    {
      "channel": 3,
      "note": 90,
      "start": 40.9861,
      "duration": 0.0487,
      "velocity": 95,
      "chip": "ym2612"
    },
    {
      "channel": 5,
      "note": 52,
      "start": 40.9868,
      "duration": 0.0824,
      "velocity": 93,
      "chip": "ym2612"
    },
    {
      "channel": 1,
      "note": 38,
      "start": 40.9926,
      "duration": 0.1962,
      "velocity": 127,
      "chip": "ym2612"
    },
    {
      "channel": 3,
      "note": 90,
      "start": 41.0864,
      "duration": 0.0511,
      "velocity": 95,
      "chip": "ym2612"
    },
    {
      "channel": 5,
      "note": 54,
      "start": 41.0873,
      "duration": 0.1868,
      "velocity": 93,
      "chip": "ym2612"
    },
    {
      "channel": 0,
      "note": 61,
      "start": 41.1885,
      "duration": 0.0846,
      "velocity": 119,
      "chip": "ym2612"
    },
    {
      "channel": 3,
      "note": 78,
      "start": 41.1899,
      "duration": 0.0498,
      "velocity": 95,
      "chip": "ym2612"
    },
    {
      "channel": 1,
      "note": 105,
      "start": 41.1976,
      "duration": 0.0938,
      "velocity": 127,
      "chip": "ym2612"
    },
    {
      "channel": 0,
      "note": 61,
      "start": 41.2911,
      "duration": 0.0846,
      "velocity": 119,
      "chip": "ym2612"
    },
    {
      "channel": 3,
      "note": 78,
      "start": 41.2927,
      "duration": 0.0498,
      "velocity": 95,
      "chip": "ym2612"
    },
    {
      "channel": 5,
      "note": 52,
      "start": 41.2932,
      "duration": 0.0835,
      "velocity": 93,
      "chip": "ym2612"
    },
    {
      "channel": 1,
      "note": 38,
      "start": 41.3,
      "duration": 0.0938,
      "velocity": 127,
      "chip": "ym2612"
    },
    {
      "channel": 0,
      "note": 61,
      "start": 41.3934,
      "duration": 0.0846,
      "velocity": 119,
      "chip": "ym2612"
    },
    {
      "channel": 3,
      "note": 90,
      "start": 41.3951,
      "duration": 0.0496,
      "velocity": 95,
      "chip": "ym2612"
    },
    {
      "channel": 5,
      "note": 54,
      "start": 41.3957,
      "duration": 0.1856,
      "velocity": 93,
      "chip": "ym2612"
    },
    {
      "channel": 1,
      "note": 38,
      "start": 41.4024,
      "duration": 0.1961,
      "velocity": 127,
      "chip": "ym2612"
    },
    {
      "channel": 0,
      "note": 61,
      "start": 41.4958,
      "duration": 0.0845,
      "velocity": 119,
      "chip": "ym2612"
    },
    {
      "channel": 3,
      "note": 90,
      "start": 41.4973,
      "duration": 0.0498,
      "velocity": 95,
      "chip": "ym2612"
    },
    {
      "channel": 0,
      "note": 61,
      "start": 41.5982,
      "duration": 0.1868,
      "velocity": 119,
      "chip": "ym2612"
    },
    {
      "channel": 2,
      "note": 46,
      "start": 41.5992,
      "duration": 0.5784,
      "velocity": 101,
      "chip": "ym2612"
    },
    {
      "channel": 3,
      "note": 78,
      "start": 41.6,
      "duration": 0.049,
      "velocity": 95,
      "chip": "ym2612"
    },
    {
      "channel": 5,
      "note": 52,
      "start": 41.6007,
      "duration": 0.0828,
      "velocity": 93,
      "chip": "ym2612"
    },
    {
      "channel": 1,
      "note": 111,
      "start": 41.6072,
      "duration": 0.1959,
      "velocity": 119,
      "chip": "ym2612"
    },
    {
      "channel": 3,
      "note": 90,
      "start": 41.7007,
      "duration": 0.0506,
      "velocity": 95,
      "chip": "ym2612"
    },
    {
      "channel": 5,
      "note": 54,
      "start": 41.7013,
      "duration": 0.1872,
      "velocity": 93,
      "chip": "ym2612"
    },
    {
      "channel": 0,
      "note": 61,
      "start": 41.8028,
      "duration": 0.0847,
      "velocity": 119,
      "chip": "ym2612"
    },
    {
      "channel": 3,
      "note": 90,
      "start": 41.8048,
      "duration": 0.0494,
      "velocity": 95,
      "chip": "ym2612"
    },
    {
      "channel": 1,
      "note": 38,
      "start": 41.8118,
      "duration": 0.1961,
      "velocity": 127,
      "chip": "ym2612"
    },
    {
      "channel": 0,
      "note": 61,
      "start": 41.9051,
      "duration": 0.0846,
      "velocity": 119,
      "chip": "ym2612"
    },
    {
      "channel": 3,
      "note": 90,
      "start": 41.9066,
      "duration": 0.0498,
      "velocity": 95,
      "chip": "ym2612"
    },
    {
      "channel": 5,
      "note": 52,
      "start": 41.9072,
      "duration": 0.0837,
      "velocity": 93,
      "chip": "ym2612"
    },
    {
      "channel": 0,
      "note": 61,
      "start": 42.0076,
      "duration": 0.1868,
      "velocity": 119,
      "chip": "ym2612"
    },
    {
      "channel": 3,
      "note": 90,
      "start": 42.0091,
      "duration": 0.0494,
      "velocity": 95,
      "chip": "ym2612"
    },
    {
      "channel": 5,
      "note": 54,
      "start": 42.0098,
      "duration": 0.1855,
      "velocity": 93,
      "chip": "ym2612"
    },
    {
      "channel": 1,
      "note": 105,
      "start": 42.0165,
      "duration": 0.0929,
      "velocity": 127,
      "chip": "ym2612"
    },
    {
      "channel": 3,
      "note": 78,
      "start": 42.1107,
      "duration": 0.0502,
      "velocity": 95,
      "chip": "ym2612"
    },
    {
      "channel": 1,
      "note": 105,
      "start": 42.1188,
      "duration": 0.0936,
      "velocity": 127,
      "chip": "ym2612"
    },
    {
      "channel": 0,
      "note": 61,
      "start": 42.2121,
      "duration": 0.0846,
      "velocity": 119,
      "chip": "ym2612"
    },
    {
      "channel": 2,
      "note": 43,
      "start": 42.213,
      "duration": 0.3914,
      "velocity": 101,
      "chip": "ym2612"
    },
    {
      "channel": 3,
      "note": 90,
      "start": 42.2138,
      "duration": 0.0494,
      "velocity": 95,
      "chip": "ym2612"
    },
    {
      "channel": 5,
      "note": 47,
      "start": 42.2144,
      "duration": 0.1855,
      "velocity": 93,
      "chip": "ym2612"
    },
    {
      "channel": 1,
      "note": 38,
      "start": 42.2213,
      "duration": 0.1959,
      "velocity": 127,
      "chip": "ym2612"
    },
    {
      "channel": 0,
      "note": 61,
      "start": 42.3145,
      "duration": 0.0845,
      "velocity": 119,
      "chip": "ym2612"
    },
    {
      "channel": 3,
      "note": 90,
      "start": 42.3158,
      "duration": 0.0497,
      "velocity": 95,
      "chip": "ym2612"
    },
    {
      "channel": 0,
      "note": 61,
      "start": 42.4168,
      "duration": 0.0847,
      "velocity": 119,
      "chip": "ym2612"
    },
    {
      "channel": 3,
      "note": 78,
      "start": 42.4185,
      "duration": 0.0496,
      "velocity": 95,
      "chip": "ym2612"
    },
    {
      "channel": 5,
      "note": 49,
      "start": 42.4191,
      "duration": 0.1859,
      "velocity": 93,
      "chip": "ym2612"
    },
    {
      "channel": 1,
      "note": 105,
      "start": 42.4259,
      "duration": 0.0937,
      "velocity": 127,
      "chip": "ym2612"
    },
    {
      "channel": 0,
      "note": 61,
      "start": 42.5193,
      "duration": 0.0849,
      "velocity": 119,
      "chip": "ym2612"
    },
    {
      "channel": 3,
      "note": 78,
      "start": 42.5211,
      "duration": 0.0495,
      "velocity": 95,
      "chip": "ym2612"
    },
    {
      "channel": 1,
      "note": 105,
      "start": 42.5282,
      "duration": 0.0943,
      "velocity": 127,
      "chip": "ym2612"
    },
    {
      "channel": 0,
      "note": 61,
      "start": 42.6222,
      "duration": 0.1869,
      "velocity": 119,
      "chip": "ym2612"
    },
    {
      "channel": 2,
      "note": 42,
      "start": 42.6231,
      "duration": 0.579,
      "velocity": 101,
      "chip": "ym2612"
    },
    {
      "channel": 3,
      "note": 90,
      "start": 42.6243,
      "duration": 0.0487,
      "velocity": 95,
      "chip": "ym2612"
    },
    {
      "channel": 5,
      "note": 52,
      "start": 42.625,
      "duration": 0.0823,
      "velocity": 93,
      "chip": "ym2612"
    },
    {
      "channel": 1,
      "note": 38,
      "start": 42.6308,
      "duration": 0.1964,
      "velocity": 127,
      "chip": "ym2612"
    },
    {
      "channel": 3,
      "note": 90,
      "start": 42.7247,
      "duration": 0.051,
      "velocity": 95,
      "chip": "ym2612"
    },
    {
      "channel": 5,
      "note": 54,
      "start": 42.7252,
      "duration": 0.1873,
      "velocity": 93,
      "chip": "ym2612"
    },
    {
      "channel": 0,
      "note": 61,
      "start": 42.827,
      "duration": 0.0846,
      "velocity": 119,
      "chip": "ym2612"
    },
    {
      "channel": 3,
      "note": 78,
      "start": 42.8283,
      "duration": 0.0498,
      "velocity": 95,
      "chip": "ym2612"
    },
    {
      "channel": 1,
      "note": 105,
      "start": 42.836,
      "duration": 0.0938,
      "velocity": 127,
      "chip": "ym2612"
    },
    {
      "channel": 0,
      "note": 61,
      "start": 42.9294,
      "duration": 0.0846,
      "velocity": 119,
      "chip": "ym2612"
    },
    {
      "channel": 3,
      "note": 78,
      "start": 42.931,
      "duration": 0.0498,
      "velocity": 95,
      "chip": "ym2612"
    },
    {
      "channel": 5,
      "note": 52,
      "start": 42.9316,
      "duration": 0.0835,
      "velocity": 93,
      "chip": "ym2612"
    },
    {
      "channel": 1,
      "note": 38,
      "start": 42.9386,
      "duration": 0.0936,
      "velocity": 127,
      "chip": "ym2612"
    },
    {
      "channel": 0,
      "note": 61,
      "start": 43.0319,
      "duration": 0.0845,
      "velocity": 119,
      "chip": "ym2612"
    },
    {
      "channel": 3,
      "note": 90,
      "start": 43.0336,
      "duration": 0.0495,
      "velocity": 95,
      "chip": "ym2612"
    },
    {
      "channel": 5,
      "note": 54,
      "start": 43.0341,
      "duration": 0.1856,
      "velocity": 93,
      "chip": "ym2612"
    },
    {
      "channel": 1,
      "note": 38,
      "start": 43.0408,
      "duration": 0.1964,
      "velocity": 127,
      "chip": "ym2612"
    },
    {
      "channel": 0,
      "note": 61,
      "start": 43.1343,
      "duration": 0.0844,
      "velocity": 119,
      "chip": "ym2612"
    },
    {
      "channel": 3,
      "note": 90,
      "start": 43.1357,
      "duration": 0.0496,
      "velocity": 95,
      "chip": "ym2612"
    },
    {
      "channel": 0,
      "note": 61,
      "start": 43.2366,
      "duration": 0.1868,
      "velocity": 119,
      "chip": "ym2612"
    },
    {
      "channel": 2,
      "note": 43,
      "start": 43.2378,
      "duration": 0.5781,
      "velocity": 101,
      "chip": "ym2612"
    },
    {
      "channel": 3,
      "note": 78,
      "start": 43.2387,
      "duration": 0.049,
      "velocity": 95,
      "chip": "ym2612"
    },
    {
      "channel": 5,
      "note": 52,
      "start": 43.2393,
      "duration": 0.0825,
      "velocity": 93,
      "chip": "ym2612"
    },
    {
      "channel": 1,
      "note": 111,
      "start": 43.2456,
      "duration": 0.1959,
      "velocity": 119,
      "chip": "ym2612"
    },
    {
      "channel": 3,
      "note": 90,
      "start": 43.3391,
      "duration": 0.0507,
      "velocity": 95,
      "chip": "ym2612"
    },
    {
      "channel": 5,
      "note": 54,
      "start": 43.3397,
      "duration": 0.1871,
      "velocity": 93,
      "chip": "ym2612"
    },
    {
      "channel": 0,
      "note": 61,
      "start": 43.4411,
      "duration": 0.0846,
      "velocity": 119,
      "chip": "ym2612"
    },
    {
      "channel": 3,
      "note": 90,
      "start": 43.4429,
      "duration": 0.0495,
      "velocity": 95,
      "chip": "ym2612"
    },
    {
      "channel": 1,
      "note": 38,
      "start": 43.4501,
      "duration": 0.1961,
      "velocity": 127,
      "chip": "ym2612"
    },
    {
      "channel": 0,
      "note": 61,
      "start": 43.5435,
      "duration": 0.0845,
      "velocity": 119,
      "chip": "ym2612"
    },
    {
      "channel": 3,
      "note": 90,
      "start": 43.545,
      "duration": 0.0498,
      "velocity": 95,
      "chip": "ym2612"
    },
    {
      "channel": 5,
      "note": 52,
      "start": 43.5455,
      "duration": 0.0835,
      "velocity": 93,
      "chip": "ym2612"
    },
    {
      "channel": 0,
      "note": 61,
      "start": 43.6459,
      "duration": 0.1868,
      "velocity": 119,
      "chip": "ym2612"
    },
    {
      "channel": 3,
      "note": 90,
      "start": 43.6475,
      "duration": 0.0494,
      "velocity": 95,
      "chip": "ym2612"
    },
    {
      "channel": 5,
      "note": 54,
      "start": 43.6481,
      "duration": 0.1856,
      "velocity": 93,
      "chip": "ym2612"
    },
    {
      "channel": 1,
      "note": 105,
      "start": 43.6551,
      "duration": 0.0927,
      "velocity": 127,
      "chip": "ym2612"
    },
    {
      "channel": 3,
      "note": 78,
      "start": 43.7491,
      "duration": 0.0502,
      "velocity": 95,
      "chip": "ym2612"
    },
    {
      "channel": 1,
      "note": 105,
      "start": 43.7572,
      "duration": 0.0936,
      "velocity": 127,
      "chip": "ym2612"
    },
    {
      "channel": 0,
      "note": 61,
      "start": 43.8505,
      "duration": 0.0845,
      "velocity": 119,
      "chip": "ym2612"
    },
    {
      "channel": 2,
      "note": 39,
      "start": 43.8515,
      "duration": 0.3913,
      "velocity": 101,
      "chip": "ym2612"
    },
    {
      "channel": 3,
      "note": 90,
      "start": 43.8522,
      "duration": 0.0493,
      "velocity": 95,
      "chip": "ym2612"
    },
    {
      "channel": 5,
      "note": 47,
      "start": 43.8528,
      "duration": 0.1855,
      "velocity": 93,
      "chip": "ym2612"
    },
    {
      "channel": 1,
      "note": 38,
      "start": 43.8595,
      "duration": 0.1961,
      "velocity": 127,
      "chip": "ym2612"
    },
    {
      "channel": 0,
      "note": 61,
      "start": 43.9529,
      "duration": 0.0846,
      "velocity": 119,
      "chip": "ym2612"
    },
    {
      "channel": 3,
      "note": 90,
      "start": 43.9545,
      "duration": 0.0497,
      "velocity": 95,
      "chip": "ym2612"
    },
    {
      "channel": 0,
      "note": 61,
      "start": 44.0553,
      "duration": 0.0844,
      "velocity": 119,
      "chip": "ym2612"
    },
    {
      "channel": 3,
      "note": 78,
      "start": 44.057,
      "duration": 0.0494,
      "velocity": 95,
      "chip": "ym2612"
    },
    {
      "channel": 5,
      "note": 49,
      "start": 44.0576,
      "duration": 0.1858,
      "velocity": 93,
      "chip": "ym2612"
    },
    {
      "channel": 1,
      "note": 105,
      "start": 44.0644,
      "duration": 0.0936,
      "velocity": 127,
      "chip": "ym2612"
    },
    {
      "channel": 0,
      "note": 61,
      "start": 44.1576,
      "duration": 0.0848,
      "velocity": 119,
      "chip": "ym2612"
    },
    {
      "channel": 3,
      "note": 78,
      "start": 44.1592,
      "duration": 0.0498,
      "velocity": 95,
      "chip": "ym2612"
    },
    {
      "channel": 1,
      "note": 105,
      "start": 44.1666,
      "duration": 0.0942,
      "velocity": 127,
      "chip": "ym2612"
    },
    {
      "channel": 0,
      "note": 61,
      "start": 44.2605,
      "duration": 0.187,
      "velocity": 119,
      "chip": "ym2612"
    },
    {
      "channel": 2,
      "note": 42,
      "start": 44.2614,
      "duration": 0.579,
      "velocity": 101,
      "chip": "ym2612"
    },
    {
      "channel": 3,
      "note": 90,
      "start": 44.2626,
      "duration": 0.0488,
      "velocity": 95,
      "chip": "ym2612"
    },
    {
      "channel": 5,
      "note": 52,
      "start": 44.2633,
      "duration": 0.0824,
      "velocity": 93,
      "chip": "ym2612"
    },
    {
      "channel": 1,
      "note": 38,
      "start": 44.2693,
      "duration": 0.1964,
      "velocity": 127,
      "chip": "ym2612"
    },
    {
      "channel": 3,
      "note": 90,
      "start": 44.363,
      "duration": 0.051,
      "velocity": 95,
      "chip": "ym2612"
    },
    {
      "channel": 5,
      "note": 54,
      "start": 44.3636,
      "duration": 0.1876,
      "velocity": 93,
      "chip": "ym2612"
    },
    {
      "channel": 0,
      "note": 61,
      "start": 44.4654,
      "duration": 0.0848,
      "velocity": 119,
      "chip": "ym2612"
    },
    {
      "channel": 3,
      "note": 78,
      "start": 44.4668,
      "duration": 0.0499,
      "velocity": 95,
      "chip": "ym2612"
    },
    {
      "channel": 1,
      "note": 63,
      "start": 44.4744,
      "duration": 0.0939,
      "velocity": 118,
      "chip": "ym2612"
    },
    {
      "channel": 0,
      "note": 61,
      "start": 44.568,
      "duration": 0.0845,
      "velocity": 119,
      "chip": "ym2612"
    },
    {
      "channel": 3,
      "note": 78,
      "start": 44.5696,
      "duration": 0.0496,
      "velocity": 95,
      "chip": "ym2612"
    },
    {
      "channel": 5,
      "note": 52,
      "start": 44.5702,
      "duration": 0.0837,
      "velocity": 93,
      "chip": "ym2612"
    },
    {
      "channel": 1,
      "note": 63,
      "start": 44.5769,
      "duration": 0.0939,
      "velocity": 118,
      "chip": "ym2612"
    },
    {
      "channel": 0,
      "note": 61,
      "start": 44.6705,
      "duration": 0.0843,
      "velocity": 119,
      "chip": "ym2612"
    },
    {
      "channel": 3,
      "note": 90,
      "start": 44.6722,
      "duration": 0.0494,
      "velocity": 95,
      "chip": "ym2612"
    },
    {
      "channel": 5,
      "note": 54,
      "start": 44.6728,
      "duration": 0.1854,
      "velocity": 93,
      "chip": "ym2612"
    },
    {
      "channel": 1,
      "note": 38,
      "start": 44.6792,
      "duration": 0.1961,
      "velocity": 127,
      "chip": "ym2612"
    },
    {
      "channel": 0,
      "note": 61,
      "start": 44.7725,
      "duration": 0.0846,
      "velocity": 119,
      "chip": "ym2612"
    },
    {
      "channel": 3,
      "note": 90,
      "start": 44.774,
      "duration": 0.0499,
      "velocity": 95,
      "chip": "ym2612"
    },
    {
      "channel": 0,
      "note": 61,
      "start": 44.8749,
      "duration": 0.1868,
      "velocity": 119,
      "chip": "ym2612"
    },
    {
      "channel": 2,
      "note": 38,
      "start": 44.8758,
      "duration": 0.5788,
      "velocity": 101,
      "chip": "ym2612"
    },
    {
      "channel": 3,
      "note": 78,
      "start": 44.8768,
      "duration": 0.0493,
      "velocity": 95,
      "chip": "ym2612"
    },
    {
      "channel": 5,
      "note": 52,
      "start": 44.8773,
      "duration": 0.0829,
      "velocity": 93,
      "chip": "ym2612"
    },
    {
      "channel": 1,
      "note": 63,
      "start": 44.8839,
      "duration": 0.093,
      "velocity": 118,
      "chip": "ym2612"
    },
    {
      "channel": 3,
      "note": 90,
      "start": 44.9777,
      "duration": 0.0506,
      "velocity": 95,
      "chip": "ym2612"
    },
    {
      "channel": 5,
      "note": 54,
      "start": 44.9783,
      "duration": 0.1868,
      "velocity": 93,
      "chip": "ym2612"
    },
    {
      "channel": 1,
      "note": 63,
      "start": 44.9862,
      "duration": 0.0935,
      "velocity": 118,
      "chip": "ym2612"
    },
    {
      "channel": 0,
      "note": 61,
      "start": 45.0794,
      "duration": 0.0505,
      "velocity": 119,
      "chip": "ym2612"
    },
    {
      "channel": 3,
      "note": 90,
      "start": 45.0812,
      "duration": 0.0495,
      "velocity": 95,
      "chip": "ym2612"
    },
    {
      "channel": 1,
      "note": 38,
      "start": 45.0887,
      "duration": 0.0929,
      "velocity": 127,
      "chip": "ym2612"
    },
    {
      "channel": 0,
      "note": 63,
      "start": 45.1474,
      "duration": 0.0508,
      "velocity": 119,
      "chip": "ym2612"
    },
    {
      "channel": 3,
      "note": 90,
      "start": 45.1828,
      "duration": 0.0502,
      "velocity": 95,
      "chip": "ym2612"
    },
    {
      "channel": 5,
      "note": 52,
      "start": 45.1834,
      "duration": 0.084,
      "velocity": 93,
      "chip": "ym2612"
    },
    {
      "channel": 1,
      "note": 63,
      "start": 45.191,
      "duration": 0.0933,
      "velocity": 118,
      "chip": "ym2612"
    },
    {
      "channel": 0,
      "note": 65,
      "start": 45.2156,
      "duration": 0.0508,
      "velocity": 119,
      "chip": "ym2612"
    },
    {
      "channel": 0,
      "note": 67,
      "start": 45.284,
      "duration": 0.0506,
      "velocity": 119,
      "chip": "ym2612"
    },
    {
      "channel": 3,
      "note": 90,
      "start": 45.2856,
      "duration": 0.0499,
      "velocity": 95,
      "chip": "ym2612"
    },
    {
      "channel": 5,
      "note": 54,
      "start": 45.2862,
      "duration": 0.1861,
      "velocity": 93,
      "chip": "ym2612"
    },
    {
      "channel": 1,
      "note": 63,
      "start": 45.2932,
      "duration": 0.0929,
      "velocity": 118,
      "chip": "ym2612"
    },
    {
      "channel": 0,
      "note": 69,
      "start": 45.3522,
      "duration": 0.0506,
      "velocity": 119,
      "chip": "ym2612"
    },
    {
      "channel": 3,
      "note": 78,
      "start": 45.3877,
      "duration": 0.0504,
      "velocity": 95,
      "chip": "ym2612"
    },
    {
      "channel": 1,
      "note": 63,
      "start": 45.3955,
      "duration": 0.0936,
      "velocity": 118,
      "chip": "ym2612"
    },
    {
      "channel": 0,
      "note": 71,
      "start": 45.4207,
      "duration": 0.0505,
      "velocity": 119,
      "chip": "ym2612"
    },
    {
      "channel": 0,
      "note": 73,
      "start": 45.4888,
      "duration": 0.0506,
      "velocity": 119,
      "chip": "ym2612"
    },
    {
      "channel": 2,
      "note": 37,
      "start": 45.4898,
      "duration": 0.392,
      "velocity": 101,
      "chip": "ym2612"
    },
    {
      "channel": 3,
      "note": 90,
      "start": 45.4905,
      "duration": 0.0496,
      "velocity": 95,
      "chip": "ym2612"
    },
    {
      "channel": 5,
      "note": 47,
      "start": 45.4911,
      "duration": 0.186,
      "velocity": 93,
      "chip": "ym2612"
    },
    {
      "channel": 1,
      "note": 63,
      "start": 45.4981,
      "duration": 0.0929,
      "velocity": 118,
      "chip": "ym2612"
    },
    {
      "channel": 0,
      "note": 75,
      "start": 45.5569,
      "duration": 0.0507,
      "velocity": 119,
      "chip": "ym2612"
    },
    {
      "channel": 3,
      "note": 90,
      "start": 45.592,
      "duration": 0.0506,
      "velocity": 95,
      "chip": "ym2612"
    },
    {
      "channel": 1,
      "note": 63,
      "start": 45.6003,
      "duration": 0.0938,
      "velocity": 118,
      "chip": "ym2612"
    },
    {
      "channel": 0,
      "note": 77,
      "start": 45.6255,
      "duration": 0.0507,
      "velocity": 119,
      "chip": "ym2612"
    },
    {
      "channel": 0,
      "note": 79,
      "start": 45.6938,
      "duration": 0.0507,
      "velocity": 119,
      "chip": "ym2612"
    },
    {
      "channel": 3,
      "note": 78,
      "start": 45.6955,
      "duration": 0.0499,
      "velocity": 95,
      "chip": "ym2612"
    },
    {
      "channel": 5,
      "note": 49,
      "start": 45.6961,
      "duration": 0.1863,
      "velocity": 93,
      "chip": "ym2612"
    },
    {
      "channel": 1,
      "note": 63,
      "start": 45.703,
      "duration": 0.0933,
      "velocity": 118,
      "chip": "ym2612"
    },
    {
      "channel": 0,
      "note": 80,
      "start": 45.7621,
      "duration": 0.0509,
      "velocity": 119,
      "chip": "ym2612"
    },
    {
      "channel": 3,
      "note": 78,
      "start": 45.7975,
      "duration": 0.0504,
      "velocity": 95,
      "chip": "ym2612"
    },
    {
      "channel": 1,
      "note": 63,
      "start": 45.8056,
      "duration": 0.0938,
      "velocity": 118,
      "chip": "ym2612"
    },
    {
      "channel": 0,
      "note": 82,
      "start": 45.8306,
      "duration": 0.0507,
      "velocity": 119,
      "chip": "ym2612"
    },
    {
      "channel": 0,
      "note": 61,
      "start": 45.899,
      "duration": 0.0889,
      "velocity": 119,
      "chip": "ym2612"
    },
    {
      "channel": 2,
      "note": 66,
      "start": 45.9015,
      "duration": 0.087,
      "velocity": 119,
      "chip": "ym2612"
    },
    {
      "channel": 5,
      "note": 52,
      "start": 45.9043,
      "duration": 0.0845,
      "velocity": 93,
      "chip": "ym2612"
    },
    {
      "channel": 1,
      "note": 38,
      "start": 45.9123,
      "duration": 0.1958,
      "velocity": 127,
      "chip": "ym2612"
    },
    {
      "channel": 0,
      "note": 60,
      "start": 46.0055,
      "duration": 0.0848,
      "velocity": 119,
      "chip": "ym2612"
    },
    {
      "channel": 2,
      "note": 65,
      "start": 46.0063,
      "duration": 0.0844,
      "velocity": 119,
      "chip": "ym2612"
    },
    {
      "channel": 5,
      "note": 54,
      "start": 46.0071,
      "duration": 0.1864,
      "velocity": 93,
      "chip": "ym2612"
    },
    {
      "channel": 0,
      "note": 59,
      "start": 46.1078,
      "duration": 0.0849,
      "velocity": 119,
      "chip": "ym2612"
    },
    {
      "channel": 2,
      "note": 64,
      "start": 46.1088,
      "duration": 0.0843,
      "velocity": 119,
      "chip": "ym2612"
    },
    {
      "channel": 3,
      "note": 90,
      "start": 46.1094,
      "duration": 0.0498,
      "velocity": 108,
      "chip": "ym2612"
    },
    {
      "channel": 1,
      "note": 105,
      "start": 46.1172,
      "duration": 0.0933,
      "velocity": 127,
      "chip": "ym2612"
    },
    {
      "channel": 0,
      "note": 58,
      "start": 46.2102,
      "duration": 0.0849,
      "velocity": 119,
      "chip": "ym2612"
    },
    {
      "channel": 2,
      "note": 63,
      "start": 46.2111,
      "duration": 0.0844,
      "velocity": 119,
      "chip": "ym2612"
    },
    {
      "channel": 3,
      "note": 85,
      "start": 46.2117,
      "duration": 0.05,
      "velocity": 108,
      "chip": "ym2612"
    },
    {
      "channel": 5,
      "note": 52,
      "start": 46.2126,
      "duration": 0.0834,
      "velocity": 93,
      "chip": "ym2612"
    },
    {
      "channel": 1,
      "note": 38,
      "start": 46.2195,
      "duration": 0.0936,
      "velocity": 127,
      "chip": "ym2612"
    },
    {
      "channel": 0,
      "note": 61,
      "start": 46.3127,
      "duration": 0.0847,
      "velocity": 119,
      "chip": "ym2612"
    },
    {
      "channel": 2,
      "note": 66,
      "start": 46.3138,
      "duration": 0.0841,
      "velocity": 119,
      "chip": "ym2612"
    },
    {
      "channel": 5,
      "note": 52,
      "start": 46.3152,
      "duration": 0.0831,
      "velocity": 93,
      "chip": "ym2612"
    },
    {
      "channel": 1,
      "note": 38,
      "start": 46.322,
      "duration": 0.1956,
      "velocity": 127,
      "chip": "ym2612"
    },
    {
      "channel": 0,
      "note": 60,
      "start": 46.415,
      "duration": 0.0847,
      "velocity": 119,
      "chip": "ym2612"
    },
    {
      "channel": 2,
      "note": 65,
      "start": 46.4158,
      "duration": 0.0844,
      "velocity": 119,
      "chip": "ym2612"
    },
    {
      "channel": 5,
      "note": 54,
      "start": 46.4166,
      "duration": 0.1863,
      "velocity": 93,
      "chip": "ym2612"
    },
    {
      "channel": 0,
      "note": 59,
      "start": 46.5173,
      "duration": 0.0848,
      "velocity": 119,
      "chip": "ym2612"
    },
    {
      "channel": 2,
      "note": 64,
      "start": 46.5182,
      "duration": 0.0842,
      "velocity": 119,
      "chip": "ym2612"
    },
    {
      "channel": 3,
      "note": 90,
      "start": 46.5189,
      "duration": 0.0496,
      "velocity": 108,
      "chip": "ym2612"
    },
    {
      "channel": 1,
      "note": 105,
      "start": 46.5266,
      "duration": 0.0932,
      "velocity": 127,
      "chip": "ym2612"
    },
    {
      "channel": 0,
      "note": 58,
      "start": 46.6196,
      "duration": 0.085,
      "velocity": 119,
      "chip": "ym2612"
    },
    {
      "channel": 2,
      "note": 63,
      "start": 46.6208,
      "duration": 0.0842,
      "velocity": 119,
      "chip": "ym2612"
    },
    {
      "channel": 3,
      "note": 85,
      "start": 46.6214,
      "duration": 0.0499,
      "velocity": 108,
      "chip": "ym2612"
    },
    {
      "channel": 5,
      "note": 52,
      "start": 46.6222,
      "duration": 0.0832,
      "velocity": 93,
      "chip": "ym2612"
    },
    {
      "channel": 1,
      "note": 38,
      "start": 46.6289,
      "duration": 0.0938,
      "velocity": 127,
      "chip": "ym2612"
    },
    {
      "channel": 0,
      "note": 61,
      "start": 46.7222,
      "duration": 0.0846,
      "velocity": 119,
      "chip": "ym2612"
    },
    {
      "channel": 2,
      "note": 66,
      "start": 46.7233,
      "duration": 0.084,
      "velocity": 119,
      "chip": "ym2612"
    },
    {
      "channel": 5,
      "note": 52,
      "start": 46.7247,
      "duration": 0.083,
      "velocity": 93,
      "chip": "ym2612"
    },
    {
      "channel": 1,
      "note": 38,
      "start": 46.7314,
      "duration": 0.196,
      "velocity": 127,
      "chip": "ym2612"
    },
    {
      "channel": 0,
      "note": 60,
      "start": 46.8244,
      "duration": 0.0852,
      "velocity": 119,
      "chip": "ym2612"
    },
    {
      "channel": 2,
      "note": 65,
      "start": 46.8252,
      "duration": 0.0848,
      "velocity": 119,
      "chip": "ym2612"
    },
    {
      "channel": 5,
      "note": 54,
      "start": 46.8259,
      "duration": 0.1868,
      "velocity": 93,
      "chip": "ym2612"
    },
    {
      "channel": 0,
      "note": 59,
      "start": 46.9271,
      "duration": 0.0849,
      "velocity": 119,
      "chip": "ym2612"
    },
    {
      "channel": 2,
      "note": 64,
      "start": 46.928,
      "duration": 0.0843,
      "velocity": 119,
      "chip": "ym2612"
    },
    {
      "channel": 3,
      "note": 90,
      "start": 46.9287,
      "duration": 0.0497,
      "velocity": 108,
      "chip": "ym2612"
    },
    {
      "channel": 1,
      "note": 105,
      "start": 46.9364,
      "duration": 0.0936,
      "velocity": 127,
      "chip": "ym2612"
    },
    {
      "channel": 0,
      "note": 58,
      "start": 47.0297,
      "duration": 0.0849,
      "velocity": 119,
      "chip": "ym2612"
    },
    {
      "channel": 2,
      "note": 63,
      "start": 47.0306,
      "duration": 0.0844,
      "velocity": 119,
      "chip": "ym2612"
    },
    {
      "channel": 3,
      "note": 85,
      "start": 47.0312,
      "duration": 0.0499,
      "velocity": 108,
      "chip": "ym2612"
    },
    {
      "channel": 5,
      "note": 52,
      "start": 47.0321,
      "duration": 0.0834,
      "velocity": 93,
      "chip": "ym2612"
    },
    {
      "channel": 1,
      "note": 38,
      "start": 47.039,
      "duration": 0.0937,
      "velocity": 127,
      "chip": "ym2612"
    },
    {
      "channel": 0,
      "note": 61,
      "start": 47.1323,
      "duration": 0.0849,
      "velocity": 119,
      "chip": "ym2612"
    },
    {
      "channel": 2,
      "note": 66,
      "start": 47.1334,
      "duration": 0.0843,
      "velocity": 119,
      "chip": "ym2612"
    },
    {
      "channel": 5,
      "note": 52,
      "start": 47.1348,
      "duration": 0.0833,
      "velocity": 93,
      "chip": "ym2612"
    },
    {
      "channel": 1,
      "note": 38,
      "start": 47.1415,
      "duration": 0.1964,
      "velocity": 127,
      "chip": "ym2612"
    },
    {
      "channel": 0,
      "note": 60,
      "start": 47.2348,
      "duration": 0.085,
      "velocity": 119,
      "chip": "ym2612"
    },
    {
      "channel": 2,
      "note": 65,
      "start": 47.2356,
      "duration": 0.0849,
      "velocity": 119,
      "chip": "ym2612"
    },
    {
      "channel": 5,
      "note": 54,
      "start": 47.2364,
      "duration": 0.1866,
      "velocity": 93,
      "chip": "ym2612"
    },
    {
      "channel": 0,
      "note": 59,
      "start": 47.3375,
      "duration": 0.0846,
      "velocity": 119,
      "chip": "ym2612"
    },
    {
      "channel": 2,
      "note": 64,
      "start": 47.3384,
      "duration": 0.0841,
      "velocity": 119,
      "chip": "ym2612"
    },
    {
      "channel": 3,
      "note": 90,
      "start": 47.339,
      "duration": 0.0495,
      "velocity": 108,
      "chip": "ym2612"
    },
    {
      "channel": 1,
      "note": 105,
      "start": 47.3466,
      "duration": 0.0934,
      "velocity": 127,
      "chip": "ym2612"
    },
    {
      "channel": 0,
      "note": 58,
      "start": 47.4397,
      "duration": 0.0849,
      "velocity": 119,
      "chip": "ym2612"
    },
    {
      "channel": 2,
      "note": 63,
      "start": 47.4406,
      "duration": 0.0844,
      "velocity": 119,
      "chip": "ym2612"
    },
    {
      "channel": 3,
      "note": 85,
      "start": 47.4412,
      "duration": 0.0498,
      "velocity": 108,
      "chip": "ym2612"
    },
    {
      "channel": 5,
      "note": 52,
      "start": 47.4421,
      "duration": 0.0833,
      "velocity": 93,
      "chip": "ym2612"
    },
    {
      "channel": 1,
      "note": 38,
      "start": 47.4489,
      "duration": 0.0948,
      "velocity": 127,
      "chip": "ym2612"
    },
    {
      "channel": 2,
      "note": 61,
      "start": 47.5451,
      "duration": 0.1887,
      "velocity": 119,
      "chip": "ym2612"
    },
    {
      "channel": 3,
      "note": 90,
      "start": 47.5473,
      "duration": 0.0502,
      "velocity": 95,
      "chip": "ym2612"
    },
    {
      "channel": 5,
      "note": 52,
      "start": 47.5486,
      "duration": 0.0833,
      "velocity": 93,
      "chip": "ym2612"
    },
    {
      "channel": 1,
      "note": 38,
      "start": 47.5555,
      "duration": 0.2983,
      "velocity": 127,
      "chip": "ym2612"
    },
    {
      "channel": 3,
      "note": 90,
      "start": 47.6492,
      "duration": 0.0507,
      "velocity": 95,
      "chip": "ym2612"
    },
    {
      "channel": 5,
      "note": 54,
      "start": 47.6498,
      "duration": 0.1869,
      "velocity": 93,
      "chip": "ym2612"
    },
    {
      "channel": 0,
      "note": 90,
      "start": 47.751,
      "duration": 0.0848,
      "velocity": 108,
      "chip": "ym2612"
    },
    {
      "channel": 2,
      "note": 61,
      "start": 47.7522,
      "duration": 0.0841,
      "velocity": 119,
      "chip": "ym2612"
    },
    {
      "channel": 3,
      "note": 78,
      "start": 47.7528,
      "duration": 0.0495,
      "velocity": 95,
      "chip": "ym2612"
    },
    {
      "channel": 0,
      "note": 85,
      "start": 47.8533,
      "duration": 0.0848,
      "velocity": 108,
      "chip": "ym2612"
    },
    {
      "channel": 2,
      "note": 61,
      "start": 47.8548,
      "duration": 0.0837,
      "velocity": 119,
      "chip": "ym2612"
    },
    {
      "channel": 3,
      "note": 78,
      "start": 47.8557,
      "duration": 0.049,
      "velocity": 95,
      "chip": "ym2612"
    },
    {
      "channel": 5,
      "note": 52,
      "start": 47.8563,
      "duration": 0.0826,
      "velocity": 93,
      "chip": "ym2612"
    },
    {
      "channel": 1,
      "note": 38,
      "start": 47.8625,
      "duration": 0.0937,
      "velocity": 127,
      "chip": "ym2612"
    },
    {
      "channel": 0,
      "note": 85,
      "start": 47.9559,
      "duration": 0.0845,
      "velocity": 108,
      "chip": "ym2612"
    },
    {
      "channel": 2,
      "note": 61,
      "start": 47.9571,
      "duration": 0.0838,
      "velocity": 119,
      "chip": "ym2612"
    },
    {
      "channel": 3,
      "note": 90,
      "start": 47.9581,
      "duration": 0.0489,
      "velocity": 95,
      "chip": "ym2612"
    },
    {
      "channel": 5,
      "note": 54,
      "start": 47.9588,
      "duration": 0.1851,
      "velocity": 93,
      "chip": "ym2612"
    },
    {
      "channel": 1,
      "note": 38,
      "start": 47.9649,
      "duration": 0.1959,
      "velocity": 127,
      "chip": "ym2612"
    },
    {
      "channel": 0,
      "note": 90,
      "start": 48.0583,
      "duration": 0.0847,
      "velocity": 108,
      "chip": "ym2612"
    },
    {
      "channel": 2,
      "note": 61,
      "start": 48.0595,
      "duration": 0.084,
      "velocity": 119,
      "chip": "ym2612"
    },
    {
      "channel": 3,
      "note": 90,
      "start": 48.0603,
      "duration": 0.0491,
      "velocity": 95,
      "chip": "ym2612"
    },
    {
      "channel": 0,
      "note": 85,
      "start": 48.1605,
      "duration": 0.0849,
      "velocity": 108,
      "chip": "ym2612"
    },
    {
      "channel": 2,
      "note": 61,
      "start": 48.1617,
      "duration": 0.1865,
      "velocity": 119,
      "chip": "ym2612"
    },
    {
      "channel": 3,
      "note": 78,
      "start": 48.1626,
      "duration": 0.049,
      "velocity": 95,
      "chip": "ym2612"
    },
    {
      "channel": 5,
      "note": 52,
      "start": 48.1633,
      "duration": 0.0828,
      "velocity": 93,
      "chip": "ym2612"
    },
    {
      "channel": 1,
      "note": 111,
      "start": 48.1698,
      "duration": 0.1962,
      "velocity": 119,
      "chip": "ym2612"
    },
    {
      "channel": 0,
      "note": 85,
      "start": 48.2632,
      "duration": 0.0846,
      "velocity": 108,
      "chip": "ym2612"
    },
    {
      "channel": 3,
      "note": 90,
      "start": 48.2642,
      "duration": 0.0499,
      "velocity": 95,
      "chip": "ym2612"
    },
    {
      "channel": 5,
      "note": 54,
      "start": 48.2648,
      "duration": 0.1864,
      "velocity": 93,
      "chip": "ym2612"
    },
    {
      "channel": 0,
      "note": 84,
      "start": 48.3656,
      "duration": 0.0847,
      "velocity": 108,
      "chip": "ym2612"
    },
    {
      "channel": 2,
      "note": 61,
      "start": 48.3668,
      "duration": 0.0839,
      "velocity": 119,
      "chip": "ym2612"
    },
    {
      "channel": 3,
      "note": 90,
      "start": 48.3679,
      "duration": 0.0489,
      "velocity": 95,
      "chip": "ym2612"
    },
    {
      "channel": 1,
      "note": 38,
      "start": 48.3746,
      "duration": 0.1965,
      "velocity": 127,
      "chip": "ym2612"
    },
    {
      "channel": 0,
      "note": 84,
      "start": 48.4682,
      "duration": 0.0845,
      "velocity": 108,
      "chip": "ym2612"
    },
    {
      "channel": 2,
      "note": 61,
      "start": 48.4693,
      "duration": 0.0838,
      "velocity": 119,
      "chip": "ym2612"
    },
    {
      "channel": 3,
      "note": 90,
      "start": 48.4704,
      "duration": 0.0487,
      "velocity": 95,
      "chip": "ym2612"
    },
    {
      "channel": 5,
      "note": 52,
      "start": 48.471,
      "duration": 0.0828,
      "velocity": 93,
      "chip": "ym2612"
    },
    {
      "channel": 0,
      "note": 84,
      "start": 48.5708,
      "duration": 0.0843,
      "velocity": 108,
      "chip": "ym2612"
    },
    {
      "channel": 2,
      "note": 61,
      "start": 48.5721,
      "duration": 0.1857,
      "velocity": 119,
      "chip": "ym2612"
    },
    {
      "channel": 3,
      "note": 90,
      "start": 48.5729,
      "duration": 0.0485,
      "velocity": 95,
      "chip": "ym2612"
    },
    {
      "channel": 5,
      "note": 54,
      "start": 48.5735,
      "duration": 0.1847,
      "velocity": 93,
      "chip": "ym2612"
    },
    {
      "channel": 1,
      "note": 105,
      "start": 48.5795,
      "duration": 0.0936,
      "velocity": 127,
      "chip": "ym2612"
    },
    {
      "channel": 0,
      "note": 83,
      "start": 48.6728,
      "duration": 0.0846,
      "velocity": 108,
      "chip": "ym2612"
    },
    {
      "channel": 3,
      "note": 78,
      "start": 48.6742,
      "duration": 0.0494,
      "velocity": 95,
      "chip": "ym2612"
    },
    {
      "channel": 1,
      "note": 105,
      "start": 48.6819,
      "duration": 0.0936,
      "velocity": 127,
      "chip": "ym2612"
    },
    {
      "channel": 0,
      "note": 83,
      "start": 48.7751,
      "duration": 0.0848,
      "velocity": 108,
      "chip": "ym2612"
    },
    {
      "channel": 2,
      "note": 61,
      "start": 48.7763,
      "duration": 0.084,
      "velocity": 119,
      "chip": "ym2612"
    },
    {
      "channel": 3,
      "note": 90,
      "start": 48.7771,
      "duration": 0.0493,
      "velocity": 95,
      "chip": "ym2612"
    },
    {
      "channel": 5,
      "note": 47,
      "start": 48.7777,
      "duration": 0.1858,
      "velocity": 93,
      "chip": "ym2612"
    },
    {
      "channel": 1,
      "note": 38,
      "start": 48.7841,
      "duration": 0.1966,
      "velocity": 127,
      "chip": "ym2612"
    },
    {
      "channel": 0,
      "note": 83,
      "start": 48.8778,
      "duration": 0.0848,
      "velocity": 108,
      "chip": "ym2612"
    },
    {
      "channel": 2,
      "note": 61,
      "start": 48.879,
      "duration": 0.084,
      "velocity": 119,
      "chip": "ym2612"
    },
    {
      "channel": 3,
      "note": 90,
      "start": 48.8799,
      "duration": 0.049,
      "velocity": 95,
      "chip": "ym2612"
    },
    {
      "channel": 0,
      "note": 81,
      "start": 48.9803,
      "duration": 0.0846,
      "velocity": 108,
      "chip": "ym2612"
    },
    {
      "channel": 2,
      "note": 61,
      "start": 48.9815,
      "duration": 0.0837,
      "velocity": 119,
      "chip": "ym2612"
    },
    {
      "channel": 3,
      "note": 78,
      "start": 48.9824,
      "duration": 0.0488,
      "velocity": 95,
      "chip": "ym2612"
    },
    {
      "channel": 5,
      "note": 49,
      "start": 48.9831,
      "duration": 0.1849,
      "velocity": 93,
      "chip": "ym2612"
    },
    {
      "channel": 1,
      "note": 105,
      "start": 48.9894,
      "duration": 0.0936,
      "velocity": 127,
      "chip": "ym2612"
    },
    {
      "channel": 0,
      "note": 81,
      "start": 49.0826,
      "duration": 0.0846,
      "velocity": 108,
      "chip": "ym2612"
    },
    {
      "channel": 2,
      "note": 61,
      "start": 49.0838,
      "duration": 0.0837,
      "velocity": 119,
      "chip": "ym2612"
    },
    {
      "channel": 3,
      "note": 78,
      "start": 49.0847,
      "duration": 0.0488,
      "velocity": 95,
      "chip": "ym2612"
    },
    {
      "channel": 1,
      "note": 105,
      "start": 49.0917,
      "duration": 0.0935,
      "velocity": 127,
      "chip": "ym2612"
    },
    {
      "channel": 2,
      "note": 61,
      "start": 49.1863,
      "duration": 0.1858,
      "velocity": 119,
      "chip": "ym2612"
    },
    {
      "channel": 3,
      "note": 90,
      "start": 49.1877,
      "duration": 0.0482,
      "velocity": 95,
      "chip": "ym2612"
    },
    {
      "channel": 5,
      "note": 52,
      "start": 49.1884,
      "duration": 0.082,
      "velocity": 93,
      "chip": "ym2612"
    },
    {
      "channel": 1,
      "note": 38,
      "start": 49.1939,
      "duration": 0.1959,
      "velocity": 127,
      "chip": "ym2612"
    },
    {
      "channel": 3,
      "note": 90,
      "start": 49.2877,
      "duration": 0.0505,
      "velocity": 95,
      "chip": "ym2612"
    },
    {
      "channel": 5,
      "note": 54,
      "start": 49.2883,
      "duration": 0.1866,
      "velocity": 93,
      "chip": "ym2612"
    },
    {
      "channel": 0,
      "note": 90,
      "start": 49.3894,
      "duration": 0.0846,
      "velocity": 108,
      "chip": "ym2612"
    },
    {
      "channel": 2,
      "note": 61,
      "start": 49.3906,
      "duration": 0.0838,
      "velocity": 119,
      "chip": "ym2612"
    },
    {
      "channel": 3,
      "note": 78,
      "start": 49.3913,
      "duration": 0.0493,
      "velocity": 95,
      "chip": "ym2612"
    },
    {
      "channel": 1,
      "note": 105,
      "start": 49.3987,
      "duration": 0.0933,
      "velocity": 127,
      "chip": "ym2612"
    },
    {
      "channel": 0,
      "note": 85,
      "start": 49.4917,
      "duration": 0.0848,
      "velocity": 108,
      "chip": "ym2612"
    },
    {
      "channel": 2,
      "note": 61,
      "start": 49.493,
      "duration": 0.084,
      "velocity": 119,
      "chip": "ym2612"
    },
    {
      "channel": 3,
      "note": 78,
      "start": 49.4939,
      "duration": 0.0491,
      "velocity": 95,
      "chip": "ym2612"
    },
    {
      "channel": 5,
      "note": 52,
      "start": 49.4944,
      "duration": 0.0829,
      "velocity": 93,
      "chip": "ym2612"
    },
    {
      "channel": 1,
      "note": 38,
      "start": 49.5009,
      "duration": 0.0937,
      "velocity": 127,
      "chip": "ym2612"
    },
    {
      "channel": 0,
      "note": 85,
      "start": 49.5943,
      "duration": 0.0846,
      "velocity": 108,
      "chip": "ym2612"
    },
    {
      "channel": 2,
      "note": 61,
      "start": 49.5955,
      "duration": 0.0838,
      "velocity": 119,
      "chip": "ym2612"
    },
    {
      "channel": 3,
      "note": 90,
      "start": 49.5966,
      "duration": 0.0488,
      "velocity": 95,
      "chip": "ym2612"
    },
    {
      "channel": 5,
      "note": 54,
      "start": 49.5972,
      "duration": 0.1849,
      "velocity": 93,
      "chip": "ym2612"
    },
    {
      "channel": 1,
      "note": 38,
      "start": 49.6034,
      "duration": 0.1957,
      "velocity": 127,
      "chip": "ym2612"
    },
    {
      "channel": 0,
      "note": 90,
      "start": 49.6968,
      "duration": 0.0844,
      "velocity": 108,
      "chip": "ym2612"
    },
    {
      "channel": 2,
      "note": 61,
      "start": 49.6979,
      "duration": 0.0837,
      "velocity": 119,
      "chip": "ym2612"
    },
    {
      "channel": 3,
      "note": 90,
      "start": 49.6988,
      "duration": 0.049,
      "velocity": 95,
      "chip": "ym2612"
    },
    {
      "channel": 0,
      "note": 85,
      "start": 49.7988,
      "duration": 0.0851,
      "velocity": 108,
      "chip": "ym2612"
    },
    {
      "channel": 2,
      "note": 61,
      "start": 49.8,
      "duration": 0.1867,
      "velocity": 119,
      "chip": "ym2612"
    },
    {
      "channel": 3,
      "note": 78,
      "start": 49.8009,
      "duration": 0.049,
      "velocity": 95,
      "chip": "ym2612"
    },
    {
      "channel": 5,
      "note": 52,
      "start": 49.8016,
      "duration": 0.0831,
      "velocity": 93,
      "chip": "ym2612"
    },
    {
      "channel": 1,
      "note": 111,
      "start": 49.808,
      "duration": 0.1967,
      "velocity": 119,
      "chip": "ym2612"
    },
    {
      "channel": 0,
      "note": 85,
      "start": 49.9018,
      "duration": 0.0846,
      "velocity": 108,
      "chip": "ym2612"
    },
    {
      "channel": 3,
      "note": 90,
      "start": 49.9028,
      "duration": 0.0499,
      "velocity": 95,
      "chip": "ym2612"
    },
    {
      "channel": 5,
      "note": 54,
      "start": 49.9034,
      "duration": 0.1866,
      "velocity": 93,
      "chip": "ym2612"
    },
    {
      "channel": 0,
      "note": 84,
      "start": 50.0044,
      "duration": 0.0846,
      "velocity": 108,
      "chip": "ym2612"
    },
    {
      "channel": 2,
      "note": 61,
      "start": 50.0056,
      "duration": 0.0838,
      "velocity": 119,
      "chip": "ym2612"
    },
    {
      "channel": 3,
      "note": 90,
      "start": 50.0067,
      "duration": 0.0488,
      "velocity": 95,
      "chip": "ym2612"
    },
    {
      "channel": 1,
      "note": 38,
      "start": 50.0132,
      "duration": 0.1966,
      "velocity": 127,
      "chip": "ym2612"
    },
    {
      "channel": 0,
      "note": 84,
      "start": 50.1068,
      "duration": 0.0849,
      "velocity": 108,
      "chip": "ym2612"
    },
    {
      "channel": 2,
      "note": 61,
      "start": 50.1079,
      "duration": 0.0841,
      "velocity": 119,
      "chip": "ym2612"
    },
    {
      "channel": 3,
      "note": 90,
      "start": 50.1088,
      "duration": 0.0491,
      "velocity": 95,
      "chip": "ym2612"
    },
    {
      "channel": 5,
      "note": 52,
      "start": 50.1094,
      "duration": 0.0832,
      "velocity": 93,
      "chip": "ym2612"
    },
    {
      "channel": 0,
      "note": 84,
      "start": 50.2095,
      "duration": 0.0846,
      "velocity": 108,
      "chip": "ym2612"
    },
    {
      "channel": 2,
      "note": 61,
      "start": 50.2108,
      "duration": 0.1861,
      "velocity": 119,
      "chip": "ym2612"
    },
    {
      "channel": 3,
      "note": 90,
      "start": 50.2117,
      "duration": 0.0487,
      "velocity": 95,
      "chip": "ym2612"
    },
    {
      "channel": 5,
      "note": 54,
      "start": 50.2123,
      "duration": 0.185,
      "velocity": 93,
      "chip": "ym2612"
    },
    {
      "channel": 1,
      "note": 105,
      "start": 50.2185,
      "duration": 0.0937,
      "velocity": 127,
      "chip": "ym2612"
    },
    {
      "channel": 0,
      "note": 83,
      "start": 50.3119,
      "duration": 0.0846,
      "velocity": 108,
      "chip": "ym2612"
    },
    {
      "channel": 3,
      "note": 78,
      "start": 50.3133,
      "duration": 0.0495,
      "velocity": 95,
      "chip": "ym2612"
    },
    {
      "channel": 1,
      "note": 105,
      "start": 50.3212,
      "duration": 0.0934,
      "velocity": 127,
      "chip": "ym2612"
    },
    {
      "channel": 0,
      "note": 83,
      "start": 50.4143,
      "duration": 0.0846,
      "velocity": 108,
      "chip": "ym2612"
    },
    {
      "channel": 2,
      "note": 61,
      "start": 50.4155,
      "duration": 0.0838,
      "velocity": 119,
      "chip": "ym2612"
    },
    {
      "channel": 3,
      "note": 90,
      "start": 50.4163,
      "duration": 0.0493,
      "velocity": 95,
      "chip": "ym2612"
    },
    {
      "channel": 5,
      "note": 47,
      "start": 50.4169,
      "duration": 0.1853,
      "velocity": 93,
      "chip": "ym2612"
    },
    {
      "channel": 1,
      "note": 38,
      "start": 50.4233,
      "duration": 0.1961,
      "velocity": 127,
      "chip": "ym2612"
    },
    {
      "channel": 0,
      "note": 83,
      "start": 50.5168,
      "duration": 0.0845,
      "velocity": 108,
      "chip": "ym2612"
    },
    {
      "channel": 2,
      "note": 61,
      "start": 50.518,
      "duration": 0.0838,
      "velocity": 119,
      "chip": "ym2612"
    },
    {
      "channel": 3,
      "note": 90,
      "start": 50.5189,
      "duration": 0.0489,
      "velocity": 95,
      "chip": "ym2612"
    },
    {
      "channel": 0,
      "note": 81,
      "start": 50.6191,
      "duration": 0.0849,
      "velocity": 108,
      "chip": "ym2612"
    },
    {
      "channel": 2,
      "note": 61,
      "start": 50.6206,
      "duration": 0.0837,
      "velocity": 119,
      "chip": "ym2612"
    },
    {
      "channel": 3,
      "note": 78,
      "start": 50.6215,
      "duration": 0.0485,
      "velocity": 95,
      "chip": "ym2612"
    },
    {
      "channel": 5,
      "note": 49,
      "start": 50.6221,
      "duration": 0.1848,
      "velocity": 93,
      "chip": "ym2612"
    },
    {
      "channel": 1,
      "note": 105,
      "start": 50.6282,
      "duration": 0.0938,
      "velocity": 127,
      "chip": "ym2612"
    },
    {
      "channel": 0,
      "note": 81,
      "start": 50.7216,
      "duration": 0.0845,
      "velocity": 108,
      "chip": "ym2612"
    },
    {
      "channel": 2,
      "note": 61,
      "start": 50.7228,
      "duration": 0.0837,
      "velocity": 119,
      "chip": "ym2612"
    },
    {
      "channel": 3,
      "note": 78,
      "start": 50.7237,
      "duration": 0.0488,
      "velocity": 95,
      "chip": "ym2612"
    },
    {
      "channel": 1,
      "note": 105,
      "start": 50.7306,
      "duration": 0.0937,
      "velocity": 127,
      "chip": "ym2612"
    },
    {
      "channel": 0,
      "note": 84,
      "start": 50.8239,
      "duration": 0.5803,
      "velocity": 108,
      "chip": "ym2612"
    },
    {
      "channel": 2,
      "note": 60,
      "start": 50.8254,
      "duration": 0.1863,
      "velocity": 119,
      "chip": "ym2612"
    },
    {
      "channel": 3,
      "note": 90,
      "start": 50.8264,
      "duration": 0.0485,
      "velocity": 95,
      "chip": "ym2612"
    },
    {
      "channel": 5,
      "note": 49,
      "start": 50.8272,
      "duration": 0.0822,
      "velocity": 93,
      "chip": "ym2612"
    },
    {
      "channel": 1,
      "note": 38,
      "start": 50.8328,
      "duration": 0.1958,
      "velocity": 127,
      "chip": "ym2612"
    },
    {
      "channel": 3,
      "note": 90,
      "start": 50.9268,
      "duration": 0.0508,
      "velocity": 95,
      "chip": "ym2612"
    },
    {
      "channel": 5,
      "note": 50,
      "start": 50.9274,
      "duration": 0.1872,
      "velocity": 93,
      "chip": "ym2612"
    },
    {
      "channel": 2,
      "note": 60,
      "start": 51.0295,
      "duration": 0.0846,
      "velocity": 119,
      "chip": "ym2612"
    },
    {
      "channel": 3,
      "note": 78,
      "start": 51.0301,
      "duration": 0.05,
      "velocity": 95,
      "chip": "ym2612"
    },
    {
      "channel": 1,
      "note": 105,
      "start": 51.0383,
      "duration": 0.0929,
      "velocity": 127,
      "chip": "ym2612"
    },
    {
      "channel": 2,
      "note": 60,
      "start": 51.1322,
      "duration": 0.0847,
      "velocity": 119,
      "chip": "ym2612"
    },
    {
      "channel": 3,
      "note": 78,
      "start": 51.1331,
      "duration": 0.0499,
      "velocity": 95,
      "chip": "ym2612"
    },
    {
      "channel": 5,
      "note": 49,
      "start": 51.1336,
      "duration": 0.0837,
      "velocity": 93,
      "chip": "ym2612"
    },
    {
      "channel": 1,
      "note": 38,
      "start": 51.1406,
      "duration": 0.0935,
      "velocity": 127,
      "chip": "ym2612"
    },
    {
      "channel": 2,
      "note": 60,
      "start": 51.235,
      "duration": 0.0844,
      "velocity": 119,
      "chip": "ym2612"
    },
    {
      "channel": 3,
      "note": 90,
      "start": 51.2361,
      "duration": 0.0494,
      "velocity": 95,
      "chip": "ym2612"
    },
    {
      "channel": 5,
      "note": 50,
      "start": 51.2366,
      "duration": 0.1856,
      "velocity": 93,
      "chip": "ym2612"
    },
    {
      "channel": 1,
      "note": 38,
      "start": 51.2435,
      "duration": 0.1954,
      "velocity": 127,
      "chip": "ym2612"
    },
    {
      "channel": 2,
      "note": 60,
      "start": 51.3375,
      "duration": 0.0843,
      "velocity": 119,
      "chip": "ym2612"
    },
    {
      "channel": 3,
      "note": 90,
      "start": 51.3384,
      "duration": 0.0497,
      "velocity": 95,
      "chip": "ym2612"
    },
    {
      "channel": 0,
      "note": 83,
      "start": 51.4387,
      "duration": 0.0507,
      "velocity": 108,
      "chip": "ym2612"
    },
    {
      "channel": 2,
      "note": 60,
      "start": 51.4399,
      "duration": 0.1864,
      "velocity": 119,
      "chip": "ym2612"
    },
    {
      "channel": 3,
      "note": 78,
      "start": 51.4408,
      "duration": 0.0491,
      "velocity": 95,
      "chip": "ym2612"
    },
    {
      "channel": 5,
      "note": 49,
      "start": 51.4414,
      "duration": 0.0828,
      "velocity": 93,
      "chip": "ym2612"
    },
    {
      "channel": 1,
      "note": 111,
      "start": 51.4479,
      "duration": 0.196,
      "velocity": 119,
      "chip": "ym2612"
    },
    {
      "channel": 0,
      "note": 84,
      "start": 51.5068,
      "duration": 0.0508,
      "velocity": 108,
      "chip": "ym2612"
    },
    {
      "channel": 3,
      "note": 90,
      "start": 51.5416,
      "duration": 0.0508,
      "velocity": 95,
      "chip": "ym2612"
    },
    {
      "channel": 5,
      "note": 50,
      "start": 51.5422,
      "duration": 0.187,
      "velocity": 93,
      "chip": "ym2612"
    },
    {
      "channel": 0,
      "note": 83,
      "start": 51.5752,
      "duration": 0.0508,
      "velocity": 108,
      "chip": "ym2612"
    },
    {
      "channel": 0,
      "note": 81,
      "start": 51.6436,
      "duration": 2.3049,
      "velocity": 108,
      "chip": "ym2612"
    },
    {
      "channel": 2,
      "note": 60,
      "start": 51.6448,
      "duration": 0.084,
      "velocity": 119,
      "chip": "ym2612"
    },
    {
      "channel": 3,
      "note": 90,
      "start": 51.6458,
      "duration": 0.049,
      "velocity": 95,
      "chip": "ym2612"
    },
    {
      "channel": 1,
      "note": 38,
      "start": 51.6527,
      "duration": 0.1955,
      "velocity": 127,
      "chip": "ym2612"
    },
    {
      "channel": 2,
      "note": 60,
      "start": 51.7465,
      "duration": 0.0847,
      "velocity": 119,
      "chip": "ym2612"
    },
    {
      "channel": 3,
      "note": 90,
      "start": 51.7474,
      "duration": 0.0498,
      "velocity": 95,
      "chip": "ym2612"
    },
    {
      "channel": 5,
      "note": 49,
      "start": 51.7479,
      "duration": 0.0837,
      "velocity": 93,
      "chip": "ym2612"
    },
    {
      "channel": 2,
      "note": 60,
      "start": 51.8492,
      "duration": 0.1868,
      "velocity": 119,
      "chip": "ym2612"
    },
    {
      "channel": 3,
      "note": 90,
      "start": 51.8501,
      "duration": 0.0494,
      "velocity": 95,
      "chip": "ym2612"
    },
    {
      "channel": 5,
      "note": 50,
      "start": 51.8507,
      "duration": 0.1858,
      "velocity": 93,
      "chip": "ym2612"
    },
    {
      "channel": 1,
      "note": 105,
      "start": 51.8577,
      "duration": 0.093,
      "velocity": 127,
      "chip": "ym2612"
    },
    {
      "channel": 3,
      "note": 78,
      "start": 51.9518,
      "duration": 0.0505,
      "velocity": 95,
      "chip": "ym2612"
    },
    {
      "channel": 1,
      "note": 105,
      "start": 51.9601,
      "duration": 0.0931,
      "velocity": 127,
      "chip": "ym2612"
    },
    {
      "channel": 2,
      "note": 60,
      "start": 52.0543,
      "duration": 0.0845,
      "velocity": 119,
      "chip": "ym2612"
    },
    {
      "channel": 3,
      "note": 90,
      "start": 52.0551,
      "duration": 0.0499,
      "velocity": 95,
      "chip": "ym2612"
    },
    {
      "channel": 5,
      "note": 44,
      "start": 52.0557,
      "duration": 0.1861,
      "velocity": 93,
      "chip": "ym2612"
    },
    {
      "channel": 1,
      "note": 38,
      "start": 52.0625,
      "duration": 0.1957,
      "velocity": 127,
      "chip": "ym2612"
    },
    {
      "channel": 2,
      "note": 60,
      "start": 52.1567,
      "duration": 0.0846,
      "velocity": 119,
      "chip": "ym2612"
    },
    {
      "channel": 3,
      "note": 90,
      "start": 52.1576,
      "duration": 0.0498,
      "velocity": 95,
      "chip": "ym2612"
    },
    {
      "channel": 2,
      "note": 60,
      "start": 52.2591,
      "duration": 0.0847,
      "velocity": 119,
      "chip": "ym2612"
    },
    {
      "channel": 3,
      "note": 78,
      "start": 52.2601,
      "duration": 0.0498,
      "velocity": 95,
      "chip": "ym2612"
    },
    {
      "channel": 5,
      "note": 45,
      "start": 52.2607,
      "duration": 0.1862,
      "velocity": 93,
      "chip": "ym2612"
    },
    {
      "channel": 1,
      "note": 105,
      "start": 52.2677,
      "duration": 0.0932,
      "velocity": 127,
      "chip": "ym2612"
    },
    {
      "channel": 2,
      "note": 60,
      "start": 52.3618,
      "duration": 0.0847,
      "velocity": 119,
      "chip": "ym2612"
    },
    {
      "channel": 3,
      "note": 78,
      "start": 52.3627,
      "duration": 0.0496,
      "velocity": 95,
      "chip": "ym2612"
    },
    {
      "channel": 1,
      "note": 105,
      "start": 52.3707,
      "duration": 0.0929,
      "velocity": 127,
      "chip": "ym2612"
    },
    {
      "channel": 2,
      "note": 60,
      "start": 52.4646,
      "duration": 0.1869,
      "velocity": 119,
      "chip": "ym2612"
    },
    {
      "channel": 3,
      "note": 90,
      "start": 52.4657,
      "duration": 0.0493,
      "velocity": 95,
      "chip": "ym2612"
    },
    {
      "channel": 5,
      "note": 49,
      "start": 52.4664,
      "duration": 0.0829,
      "velocity": 93,
      "chip": "ym2612"
    },
    {
      "channel": 1,
      "note": 38,
      "start": 52.4729,
      "duration": 0.1955,
      "velocity": 127,
      "chip": "ym2612"
    },
    {
      "channel": 3,
      "note": 90,
      "start": 52.5667,
      "duration": 0.0508,
      "velocity": 95,
      "chip": "ym2612"
    },
    {
      "channel": 5,
      "note": 50,
      "start": 52.5673,
      "duration": 0.1872,
      "velocity": 93,
      "chip": "ym2612"
    },
    {
      "channel": 2,
      "note": 60,
      "start": 52.6693,
      "duration": 0.0847,
      "velocity": 119,
      "chip": "ym2612"
    },
    {
      "channel": 3,
      "note": 78,
      "start": 52.6699,
      "duration": 0.0499,
      "velocity": 95,
      "chip": "ym2612"
    },
    {
      "channel": 1,
      "note": 105,
      "start": 52.6778,
      "duration": 0.0932,
      "velocity": 127,
      "chip": "ym2612"
    },
    {
      "channel": 2,
      "note": 60,
      "start": 52.772,
      "duration": 0.0843,
      "velocity": 119,
      "chip": "ym2612"
    },
    {
      "channel": 3,
      "note": 78,
      "start": 52.7729,
      "duration": 0.0494,
      "velocity": 95,
      "chip": "ym2612"
    },
    {
      "channel": 5,
      "note": 49,
      "start": 52.7734,
      "duration": 0.0833,
      "velocity": 93,
      "chip": "ym2612"
    },
    {
      "channel": 1,
      "note": 38,
      "start": 52.7801,
      "duration": 0.0931,
      "velocity": 127,
      "chip": "ym2612"
    },
    {
      "channel": 2,
      "note": 60,
      "start": 52.8741,
      "duration": 0.0845,
      "velocity": 119,
      "chip": "ym2612"
    },
    {
      "channel": 3,
      "note": 90,
      "start": 52.8751,
      "duration": 0.0495,
      "velocity": 95,
      "chip": "ym2612"
    },
    {
      "channel": 5,
      "note": 50,
      "start": 52.8757,
      "duration": 0.1856,
      "velocity": 93,
      "chip": "ym2612"
    },
    {
      "channel": 1,
      "note": 38,
      "start": 52.8827,
      "duration": 0.1952,
      "velocity": 127,
      "chip": "ym2612"
    },
    {
      "channel": 2,
      "note": 60,
      "start": 52.9763,
      "duration": 0.0846,
      "velocity": 119,
      "chip": "ym2612"
    },
    {
      "channel": 3,
      "note": 90,
      "start": 52.9772,
      "duration": 0.0498,
      "velocity": 95,
      "chip": "ym2612"
    },
    {
      "channel": 2,
      "note": 60,
      "start": 53.0789,
      "duration": 0.1867,
      "velocity": 119,
      "chip": "ym2612"
    },
    {
      "channel": 3,
      "note": 78,
      "start": 53.0798,
      "duration": 0.0495,
      "velocity": 95,
      "chip": "ym2612"
    },
    {
      "channel": 5,
      "note": 49,
      "start": 53.0803,
      "duration": 0.0833,
      "velocity": 93,
      "chip": "ym2612"
    },
    {
      "channel": 1,
      "note": 111,
      "start": 53.0876,
      "duration": 0.195,
      "velocity": 119,
      "chip": "ym2612"
    },
    {
      "channel": 3,
      "note": 90,
      "start": 53.181,
      "duration": 0.0506,
      "velocity": 95,
      "chip": "ym2612"
    },
    {
      "channel": 5,
      "note": 50,
      "start": 53.1816,
      "duration": 0.1872,
      "velocity": 93,
      "chip": "ym2612"
    },
    {
      "channel": 2,
      "note": 60,
      "start": 53.2835,
      "duration": 0.0849,
      "velocity": 119,
      "chip": "ym2612"
    },
    {
      "channel": 3,
      "note": 90,
      "start": 53.2845,
      "duration": 0.0498,
      "velocity": 95,
      "chip": "ym2612"
    },
    {
      "channel": 1,
      "note": 38,
      "start": 53.292,
      "duration": 0.196,
      "velocity": 127,
      "chip": "ym2612"
    },
    {
      "channel": 2,
      "note": 60,
      "start": 53.3861,
      "duration": 0.0849,
      "velocity": 119,
      "chip": "ym2612"
    },
    {
      "channel": 3,
      "note": 90,
      "start": 53.3873,
      "duration": 0.0498,
      "velocity": 95,
      "chip": "ym2612"
    },
    {
      "channel": 5,
      "note": 49,
      "start": 53.3879,
      "duration": 0.0836,
      "velocity": 93,
      "chip": "ym2612"
    },
    {
      "channel": 2,
      "note": 60,
      "start": 53.489,
      "duration": 0.187,
      "velocity": 119,
      "chip": "ym2612"
    },
    {
      "channel": 3,
      "note": 90,
      "start": 53.4899,
      "duration": 0.0495,
      "velocity": 95,
      "chip": "ym2612"
    },
    {
      "channel": 5,
      "note": 50,
      "start": 53.4905,
      "duration": 0.1859,
      "velocity": 93,
      "chip": "ym2612"
    },
    {
      "channel": 1,
      "note": 105,
      "start": 53.4974,
      "duration": 0.0929,
      "velocity": 127,
      "chip": "ym2612"
    },
    {
      "channel": 3,
      "note": 78,
      "start": 53.5915,
      "duration": 0.0502,
      "velocity": 95,
      "chip": "ym2612"
    },
    {
      "channel": 1,
      "note": 105,
      "start": 53.5999,
      "duration": 0.093,
      "velocity": 127,
      "chip": "ym2612"
    },
    {
      "channel": 2,
      "note": 60,
      "start": 53.6938,
      "duration": 0.0847,
      "velocity": 119,
      "chip": "ym2612"
    },
    {
      "channel": 3,
      "note": 90,
      "start": 53.6946,
      "duration": 0.0499,
      "velocity": 95,
      "chip": "ym2612"
    },
    {
      "channel": 5,
      "note": 44,
      "start": 53.6952,
      "duration": 0.1861,
      "velocity": 93,
      "chip": "ym2612"
    },
    {
      "channel": 1,
      "note": 38,
      "start": 53.7023,
      "duration": 0.1955,
      "velocity": 127,
      "chip": "ym2612"
    },
    {
      "channel": 2,
      "note": 60,
      "start": 53.7963,
      "duration": 0.0846,
      "velocity": 119,
      "chip": "ym2612"
    },
    {
      "channel": 3,
      "note": 90,
      "start": 53.7972,
      "duration": 0.0498,
      "velocity": 95,
      "chip": "ym2612"
    },
    {
      "channel": 2,
      "note": 60,
      "start": 53.8987,
      "duration": 0.0844,
      "velocity": 119,
      "chip": "ym2612"
    },
    {
      "channel": 3,
      "note": 78,
      "start": 53.8997,
      "duration": 0.0496,
      "velocity": 95,
      "chip": "ym2612"
    },
    {
      "channel": 5,
      "note": 45,
      "start": 53.9003,
      "duration": 0.1858,
      "velocity": 93,
      "chip": "ym2612"
    },
    {
      "channel": 1,
      "note": 105,
      "start": 53.9072,
      "duration": 0.093,
      "velocity": 127,
      "chip": "ym2612"
    },
    {
      "channel": 2,
      "note": 60,
      "start": 54.0011,
      "duration": 0.0845,
      "velocity": 119,
      "chip": "ym2612"
    },
    {
      "channel": 3,
      "note": 78,
      "start": 54.002,
      "duration": 0.0497,
      "velocity": 95,
      "chip": "ym2612"
    },
    {
      "channel": 1,
      "note": 105,
      "start": 54.0097,
      "duration": 0.0931,
      "velocity": 127,
      "chip": "ym2612"
    },
    {
      "channel": 2,
      "note": 61,
      "start": 54.1043,
      "duration": 0.1863,
      "velocity": 119,
      "chip": "ym2612"
    },
    {
      "channel": 3,
      "note": 90,
      "start": 54.1054,
      "duration": 0.0487,
      "velocity": 95,
      "chip": "ym2612"
    },
    {
      "channel": 5,
      "note": 52,
      "start": 54.1063,
      "duration": 0.0822,
      "velocity": 93,
      "chip": "ym2612"
    },
    {
      "channel": 1,
      "note": 38,
      "start": 54.1118,
      "duration": 0.1964,
      "velocity": 127,
      "chip": "ym2612"
    },
    {
      "channel": 3,
      "note": 90,
      "start": 54.2058,
      "duration": 0.0507,
      "velocity": 95,
      "chip": "ym2612"
    },
    {
      "channel": 5,
      "note": 54,
      "start": 54.2064,
      "duration": 0.1873,
      "velocity": 93,
      "chip": "ym2612"
    },
    {
      "channel": 0,
      "note": 90,
      "start": 54.3079,
      "duration": 0.085,
      "velocity": 108,
      "chip": "ym2612"
    },
    {
      "channel": 2,
      "note": 61,
      "start": 54.3091,
      "duration": 0.0842,
      "velocity": 119,
      "chip": "ym2612"
    },
    {
      "channel": 3,
      "note": 78,
      "start": 54.3097,
      "duration": 0.0494,
      "velocity": 95,
      "chip": "ym2612"
    },
    {
      "channel": 1,
      "note": 105,
      "start": 54.3172,
      "duration": 0.0936,
      "velocity": 127,
      "chip": "ym2612"
    },
    {
      "channel": 0,
      "note": 85,
      "start": 54.4105,
      "duration": 0.0848,
      "velocity": 108,
      "chip": "ym2612"
    },
    {
      "channel": 2,
      "note": 61,
      "start": 54.4117,
      "duration": 0.084,
      "velocity": 119,
      "chip": "ym2612"
    },
    {
      "channel": 3,
      "note": 78,
      "start": 54.4126,
      "duration": 0.0492,
      "velocity": 95,
      "chip": "ym2612"
    },
    {
      "channel": 5,
      "note": 52,
      "start": 54.4132,
      "duration": 0.0829,
      "velocity": 93,
      "chip": "ym2612"
    },
    {
      "channel": 1,
      "note": 38,
      "start": 54.4197,
      "duration": 0.0939,
      "velocity": 127,
      "chip": "ym2612"
    },
    {
      "channel": 0,
      "note": 85,
      "start": 54.5133,
      "duration": 0.0846,
      "velocity": 108,
      "chip": "ym2612"
    },
    {
      "channel": 2,
      "note": 61,
      "start": 54.5146,
      "duration": 0.0838,
      "velocity": 119,
      "chip": "ym2612"
    },
    {
      "channel": 3,
      "note": 90,
      "start": 54.5156,
      "duration": 0.0488,
      "velocity": 95,
      "chip": "ym2612"
    },
    {
      "channel": 5,
      "note": 54,
      "start": 54.5162,
      "duration": 0.1852,
      "velocity": 93,
      "chip": "ym2612"
    },
    {
      "channel": 1,
      "note": 38,
      "start": 54.5222,
      "duration": 0.1961,
      "velocity": 127,
      "chip": "ym2612"
    },
    {
      "channel": 0,
      "note": 90,
      "start": 54.6158,
      "duration": 0.0847,
      "velocity": 108,
      "chip": "ym2612"
    },
    {
      "channel": 2,
      "note": 61,
      "start": 54.617,
      "duration": 0.084,
      "velocity": 119,
      "chip": "ym2612"
    },
    {
      "channel": 3,
      "note": 90,
      "start": 54.6179,
      "duration": 0.049,
      "velocity": 95,
      "chip": "ym2612"
    },
    {
      "channel": 0,
      "note": 85,
      "start": 54.718,
      "duration": 0.0848,
      "velocity": 108,
      "chip": "ym2612"
    },
    {
      "channel": 2,
      "note": 61,
      "start": 54.7193,
      "duration": 0.1863,
      "velocity": 119,
      "chip": "ym2612"
    },
    {
      "channel": 3,
      "note": 78,
      "start": 54.7202,
      "duration": 0.0491,
      "velocity": 95,
      "chip": "ym2612"
    },
    {
      "channel": 5,
      "note": 52,
      "start": 54.721,
      "duration": 0.0828,
      "velocity": 93,
      "chip": "ym2612"
    },
    {
      "channel": 1,
      "note": 111,
      "start": 54.7273,
      "duration": 0.1961,
      "velocity": 119,
      "chip": "ym2612"
    },
    {
      "channel": 0,
      "note": 85,
      "start": 54.8209,
      "duration": 0.0842,
      "velocity": 108,
      "chip": "ym2612"
    },
    {
      "channel": 3,
      "note": 90,
      "start": 54.8219,
      "duration": 0.0497,
      "velocity": 95,
      "chip": "ym2612"
    },
    {
      "channel": 5,
      "note": 54,
      "start": 54.8224,
      "duration": 0.1859,
      "velocity": 93,
      "chip": "ym2612"
    },
    {
      "channel": 0,
      "note": 84,
      "start": 54.923,
      "duration": 0.0844,
      "velocity": 108,
      "chip": "ym2612"
    },
    {
      "channel": 2,
      "note": 61,
      "start": 54.9242,
      "duration": 0.0837,
      "velocity": 119,
      "chip": "ym2612"
    },
    {
      "channel": 3,
      "note": 90,
      "start": 54.9252,
      "duration": 0.0488,
      "velocity": 95,
      "chip": "ym2612"
    },
    {
      "channel": 1,
      "note": 38,
      "start": 54.932,
      "duration": 0.196,
      "velocity": 127,
      "chip": "ym2612"
    },
    {
      "channel": 0,
      "note": 84,
      "start": 55.0253,
      "duration": 0.0845,
      "velocity": 108,
      "chip": "ym2612"
    },
    {
      "channel": 2,
      "note": 61,
      "start": 55.0264,
      "duration": 0.0839,
      "velocity": 119,
      "chip": "ym2612"
    },
    {
      "channel": 3,
      "note": 90,
      "start": 55.0273,
      "duration": 0.049,
      "velocity": 95,
      "chip": "ym2612"
    },
    {
      "channel": 5,
      "note": 52,
      "start": 55.0279,
      "duration": 0.0828,
      "velocity": 93,
      "chip": "ym2612"
    },
    {
      "channel": 0,
      "note": 84,
      "start": 55.1277,
      "duration": 0.0845,
      "velocity": 108,
      "chip": "ym2612"
    },
    {
      "channel": 2,
      "note": 61,
      "start": 55.129,
      "duration": 0.1859,
      "velocity": 119,
      "chip": "ym2612"
    },
    {
      "channel": 3,
      "note": 90,
      "start": 55.1299,
      "duration": 0.0486,
      "velocity": 95,
      "chip": "ym2612"
    },
    {
      "channel": 5,
      "note": 54,
      "start": 55.1305,
      "duration": 0.1849,
      "velocity": 93,
      "chip": "ym2612"
    },
    {
      "channel": 1,
      "note": 105,
      "start": 55.1368,
      "duration": 0.0935,
      "velocity": 127,
      "chip": "ym2612"
    },
    {
      "channel": 0,
      "note": 83,
      "start": 55.23,
      "duration": 0.0846,
      "velocity": 108,
      "chip": "ym2612"
    },
    {
      "channel": 3,
      "note": 78,
      "start": 55.2313,
      "duration": 0.0495,
      "velocity": 95,
      "chip": "ym2612"
    },
    {
      "channel": 1,
      "note": 105,
      "start": 55.239,
      "duration": 0.0936,
      "velocity": 127,
      "chip": "ym2612"
    },
    {
      "channel": 0,
      "note": 83,
      "start": 55.3323,
      "duration": 0.0847,
      "velocity": 108,
      "chip": "ym2612"
    },
    {
      "channel": 2,
      "note": 61,
      "start": 55.3335,
      "duration": 0.0839,
      "velocity": 119,
      "chip": "ym2612"
    },
    {
      "channel": 3,
      "note": 90,
      "start": 55.3343,
      "duration": 0.0491,
      "velocity": 95,
      "chip": "ym2612"
    },
    {
      "channel": 5,
      "note": 47,
      "start": 55.3349,
      "duration": 0.1852,
      "velocity": 93,
      "chip": "ym2612"
    },
    {
      "channel": 1,
      "note": 38,
      "start": 55.3413,
      "duration": 0.1964,
      "velocity": 127,
      "chip": "ym2612"
    },
    {
      "channel": 0,
      "note": 83,
      "start": 55.4349,
      "duration": 0.0843,
      "velocity": 108,
      "chip": "ym2612"
    },
    {
      "channel": 2,
      "note": 61,
      "start": 55.4361,
      "duration": 0.0836,
      "velocity": 119,
      "chip": "ym2612"
    },
    {
      "channel": 3,
      "note": 90,
      "start": 55.4373,
      "duration": 0.0485,
      "velocity": 95,
      "chip": "ym2612"
    },
    {
      "channel": 0,
      "note": 81,
      "start": 55.5373,
      "duration": 0.0846,
      "velocity": 108,
      "chip": "ym2612"
    },
    {
      "channel": 2,
      "note": 61,
      "start": 55.5385,
      "duration": 0.0838,
      "velocity": 119,
      "chip": "ym2612"
    },
    {
      "channel": 3,
      "note": 78,
      "start": 55.5394,
      "duration": 0.0488,
      "velocity": 95,
      "chip": "ym2612"
    },
    {
      "channel": 5,
      "note": 49,
      "start": 55.5401,
      "duration": 0.1851,
      "velocity": 93,
      "chip": "ym2612"
    },
    {
      "channel": 1,
      "note": 105,
      "start": 55.5461,
      "duration": 0.094,
      "velocity": 127,
      "chip": "ym2612"
    },
    {
      "channel": 0,
      "note": 81,
      "start": 55.6398,
      "duration": 0.0846,
      "velocity": 108,
      "chip": "ym2612"
    },
    {
      "channel": 2,
      "note": 61,
      "start": 55.641,
      "duration": 0.0838,
      "velocity": 119,
      "chip": "ym2612"
    },
    {
      "channel": 3,
      "note": 78,
      "start": 55.6418,
      "duration": 0.0489,
      "velocity": 95,
      "chip": "ym2612"
    },
    {
      "channel": 1,
      "note": 105,
      "start": 55.6488,
      "duration": 0.0939,
      "velocity": 127,
      "chip": "ym2612"
    },
    {
      "channel": 2,
      "note": 61,
      "start": 55.7437,
      "duration": 0.1861,
      "velocity": 119,
      "chip": "ym2612"
    },
    {
      "channel": 3,
      "note": 90,
      "start": 55.7449,
      "duration": 0.0485,
      "velocity": 95,
      "chip": "ym2612"
    },
    {
      "channel": 5,
      "note": 52,
      "start": 55.7456,
      "duration": 0.0822,
      "velocity": 93,
      "chip": "ym2612"
    },
    {
      "channel": 1,
      "note": 38,
      "start": 55.7513,
      "duration": 0.1961,
      "velocity": 127,
      "chip": "ym2612"
    },
    {
      "channel": 3,
      "note": 90,
      "start": 55.8451,
      "duration": 0.0507,
      "velocity": 95,
      "chip": "ym2612"
    },
    {
      "channel": 5,
      "note": 54,
      "start": 55.8457,
      "duration": 0.187,
      "velocity": 93,
      "chip": "ym2612"
    },
    {
      "channel": 0,
      "note": 90,
      "start": 55.9471,
      "duration": 0.0847,
      "velocity": 108,
      "chip": "ym2612"
    },
    {
      "channel": 2,
      "note": 61,
      "start": 55.9483,
      "duration": 0.0839,
      "velocity": 119,
      "chip": "ym2612"
    },
    {
      "channel": 3,
      "note": 78,
      "start": 55.949,
      "duration": 0.0493,
      "velocity": 95,
      "chip": "ym2612"
    },
    {
      "channel": 1,
      "note": 105,
      "start": 55.9563,
      "duration": 0.0934,
      "velocity": 127,
      "chip": "ym2612"
    },
    {
      "channel": 0,
      "note": 85,
      "start": 56.0494,
      "duration": 0.0847,
      "velocity": 108,
      "chip": "ym2612"
    },
    {
      "channel": 2,
      "note": 61,
      "start": 56.0507,
      "duration": 0.0839,
      "velocity": 119,
      "chip": "ym2612"
    },
    {
      "channel": 3,
      "note": 78,
      "start": 56.0516,
      "duration": 0.0493,
      "velocity": 95,
      "chip": "ym2612"
    },
    {
      "channel": 5,
      "note": 52,
      "start": 56.0522,
      "duration": 0.0829,
      "velocity": 93,
      "chip": "ym2612"
    },
    {
      "channel": 1,
      "note": 38,
      "start": 56.0586,
      "duration": 0.0936,
      "velocity": 127,
      "chip": "ym2612"
    },
    {
      "channel": 0,
      "note": 85,
      "start": 56.152,
      "duration": 0.0845,
      "velocity": 108,
      "chip": "ym2612"
    },
    {
      "channel": 2,
      "note": 61,
      "start": 56.1532,
      "duration": 0.0841,
      "velocity": 119,
      "chip": "ym2612"
    },
    {
      "channel": 3,
      "note": 90,
      "start": 56.1545,
      "duration": 0.0486,
      "velocity": 95,
      "chip": "ym2612"
    },
    {
      "channel": 5,
      "note": 54,
      "start": 56.1551,
      "duration": 0.1846,
      "velocity": 93,
      "chip": "ym2612"
    },
    {
      "channel": 1,
      "note": 38,
      "start": 56.1609,
      "duration": 0.1958,
      "velocity": 127,
      "chip": "ym2612"
    },
    {
      "channel": 0,
      "note": 90,
      "start": 56.2547,
      "duration": 0.0841,
      "velocity": 108,
      "chip": "ym2612"
    },
    {
      "channel": 2,
      "note": 61,
      "start": 56.2558,
      "duration": 0.0834,
      "velocity": 119,
      "chip": "ym2612"
    },
    {
      "channel": 3,
      "note": 90,
      "start": 56.2567,
      "duration": 0.0487,
      "velocity": 95,
      "chip": "ym2612"
    },
    {
      "channel": 0,
      "note": 85,
      "start": 56.3564,
      "duration": 0.0848,
      "velocity": 108,
      "chip": "ym2612"
    },
    {
      "channel": 2,
      "note": 61,
      "start": 56.3577,
      "duration": 0.1863,
      "velocity": 119,
      "chip": "ym2612"
    },
    {
      "channel": 3,
      "note": 78,
      "start": 56.3586,
      "duration": 0.049,
      "velocity": 95,
      "chip": "ym2612"
    },
    {
      "channel": 5,
      "note": 52,
      "start": 56.3592,
      "duration": 0.0828,
      "velocity": 93,
      "chip": "ym2612"
    },
    {
      "channel": 1,
      "note": 111,
      "start": 56.3656,
      "duration": 0.1961,
      "velocity": 119,
      "chip": "ym2612"
    },
    {
      "channel": 0,
      "note": 85,
      "start": 56.459,
      "duration": 0.0845,
      "velocity": 108,
      "chip": "ym2612"
    },
    {
      "channel": 3,
      "note": 90,
      "start": 56.46,
      "duration": 0.0499,
      "velocity": 95,
      "chip": "ym2612"
    },
    {
      "channel": 5,
      "note": 54,
      "start": 56.4606,
      "duration": 0.1862,
      "velocity": 93,
      "chip": "ym2612"
    },
    {
      "channel": 0,
      "note": 84,
      "start": 56.5614,
      "duration": 0.0846,
      "velocity": 108,
      "chip": "ym2612"
    },
    {
      "channel": 2,
      "note": 61,
      "start": 56.5626,
      "duration": 0.0838,
      "velocity": 119,
      "chip": "ym2612"
    },
    {
      "channel": 3,
      "note": 90,
      "start": 56.5636,
      "duration": 0.0488,
      "velocity": 95,
      "chip": "ym2612"
    },
    {
      "channel": 1,
      "note": 38,
      "start": 56.5706,
      "duration": 0.1957,
      "velocity": 127,
      "chip": "ym2612"
    },
    {
      "channel": 0,
      "note": 84,
      "start": 56.6637,
      "duration": 0.0846,
      "velocity": 108,
      "chip": "ym2612"
    },
    {
      "channel": 2,
      "note": 61,
      "start": 56.6648,
      "duration": 0.0838,
      "velocity": 119,
      "chip": "ym2612"
    },
    {
      "channel": 3,
      "note": 90,
      "start": 56.6657,
      "duration": 0.049,
      "velocity": 95,
      "chip": "ym2612"
    },
    {
      "channel": 5,
      "note": 52,
      "start": 56.6663,
      "duration": 0.0828,
      "velocity": 93,
      "chip": "ym2612"
    },
    {
      "channel": 0,
      "note": 84,
      "start": 56.7659,
      "duration": 0.0846,
      "velocity": 108,
      "chip": "ym2612"
    },
    {
      "channel": 2,
      "note": 61,
      "start": 56.7673,
      "duration": 0.1859,
      "velocity": 119,
      "chip": "ym2612"
    },
    {
      "channel": 3,
      "note": 90,
      "start": 56.7682,
      "duration": 0.0488,
      "velocity": 95,
      "chip": "ym2612"
    },
    {
      "channel": 5,
      "note": 54,
      "start": 56.7688,
      "duration": 0.1852,
      "velocity": 93,
      "chip": "ym2612"
    },
    {
      "channel": 1,
      "note": 105,
      "start": 56.775,
      "duration": 0.0936,
      "velocity": 127,
      "chip": "ym2612"
    },
    {
      "channel": 0,
      "note": 83,
      "start": 56.8683,
      "duration": 0.0845,
      "velocity": 108,
      "chip": "ym2612"
    },
    {
      "channel": 3,
      "note": 78,
      "start": 56.8697,
      "duration": 0.0495,
      "velocity": 95,
      "chip": "ym2612"
    },
    {
      "channel": 1,
      "note": 105,
      "start": 56.8773,
      "duration": 0.094,
      "velocity": 127,
      "chip": "ym2612"
    },
    {
      "channel": 0,
      "note": 83,
      "start": 56.971,
      "duration": 0.0844,
      "velocity": 108,
      "chip": "ym2612"
    },
    {
      "channel": 2,
      "note": 61,
      "start": 56.9722,
      "duration": 0.0836,
      "velocity": 119,
      "chip": "ym2612"
    },
    {
      "channel": 3,
      "note": 90,
      "start": 56.973,
      "duration": 0.0488,
      "velocity": 95,
      "chip": "ym2612"
    },
    {
      "channel": 5,
      "note": 47,
      "start": 56.9736,
      "duration": 0.1849,
      "velocity": 93,
      "chip": "ym2612"
    },
    {
      "channel": 1,
      "note": 38,
      "start": 56.9797,
      "duration": 0.1964,
      "velocity": 127,
      "chip": "ym2612"
    },
    {
      "channel": 0,
      "note": 83,
      "start": 57.0731,
      "duration": 0.0845,
      "velocity": 108,
      "chip": "ym2612"
    },
    {
      "channel": 2,
      "note": 61,
      "start": 57.0744,
      "duration": 0.0837,
      "velocity": 119,
      "chip": "ym2612"
    },
    {
      "channel": 3,
      "note": 90,
      "start": 57.0752,
      "duration": 0.0489,
      "velocity": 95,
      "chip": "ym2612"
    },
    {
      "channel": 0,
      "note": 81,
      "start": 57.1757,
      "duration": 0.0844,
      "velocity": 108,
      "chip": "ym2612"
    },
    {
      "channel": 2,
      "note": 61,
      "start": 57.177,
      "duration": 0.0836,
      "velocity": 119,
      "chip": "ym2612"
    },
    {
      "channel": 3,
      "note": 78,
      "start": 57.1778,
      "duration": 0.0487,
      "velocity": 95,
      "chip": "ym2612"
    },
    {
      "channel": 5,
      "note": 49,
      "start": 57.1785,
      "duration": 0.1851,
      "velocity": 93,
      "chip": "ym2612"
    },
    {
      "channel": 1,
      "note": 105,
      "start": 57.1847,
      "duration": 0.0936,
      "velocity": 127,
      "chip": "ym2612"
    },
    {
      "channel": 0,
      "note": 81,
      "start": 57.278,
      "duration": 0.0847,
      "velocity": 108,
      "chip": "ym2612"
    },
    {
      "channel": 2,
      "note": 61,
      "start": 57.2793,
      "duration": 0.0838,
      "velocity": 119,
      "chip": "ym2612"
    },
    {
      "channel": 3,
      "note": 78,
      "start": 57.2801,
      "duration": 0.0488,
      "velocity": 95,
      "chip": "ym2612"
    },
    {
      "channel": 1,
      "note": 105,
      "start": 57.2873,
      "duration": 0.0938,
      "velocity": 127,
      "chip": "ym2612"
    },
    {
      "channel": 0,
      "note": 84,
      "start": 57.3806,
      "duration": 0.5796,
      "velocity": 108,
      "chip": "ym2612"
    },
    {
      "channel": 2,
      "note": 60,
      "start": 57.3821,
      "duration": 0.186,
      "velocity": 119,
      "chip": "ym2612"
    },
    {
      "channel": 3,
      "note": 90,
      "start": 57.3832,
      "duration": 0.0483,
      "velocity": 95,
      "chip": "ym2612"
    },
    {
      "channel": 5,
      "note": 49,
      "start": 57.3839,
      "duration": 0.082,
      "velocity": 93,
      "chip": "ym2612"
    },
    {
      "channel": 1,
      "note": 38,
      "start": 57.3895,
      "duration": 0.1956,
      "velocity": 127,
      "chip": "ym2612"
    },
    {
      "channel": 3,
      "note": 90,
      "start": 57.4832,
      "duration": 0.051,
      "velocity": 95,
      "chip": "ym2612"
    },
    {
      "channel": 5,
      "note": 50,
      "start": 57.4838,
      "duration": 0.1873,
      "velocity": 93,
      "chip": "ym2612"
    },
    {
      "channel": 2,
      "note": 60,
      "start": 57.586,
      "duration": 0.0847,
      "velocity": 119,
      "chip": "ym2612"
    },
    {
      "channel": 3,
      "note": 78,
      "start": 57.5866,
      "duration": 0.0499,
      "velocity": 95,
      "chip": "ym2612"
    },
    {
      "channel": 1,
      "note": 105,
      "start": 57.5945,
      "duration": 0.0933,
      "velocity": 127,
      "chip": "ym2612"
    },
    {
      "channel": 2,
      "note": 60,
      "start": 57.6887,
      "duration": 0.0845,
      "velocity": 119,
      "chip": "ym2612"
    },
    {
      "channel": 3,
      "note": 78,
      "start": 57.6896,
      "duration": 0.0497,
      "velocity": 95,
      "chip": "ym2612"
    },
    {
      "channel": 5,
      "note": 49,
      "start": 57.6902,
      "duration": 0.0835,
      "velocity": 93,
      "chip": "ym2612"
    },
    {
      "channel": 1,
      "note": 38,
      "start": 57.6971,
      "duration": 0.0931,
      "velocity": 127,
      "chip": "ym2612"
    },
    {
      "channel": 2,
      "note": 60,
      "start": 57.7911,
      "duration": 0.0844,
      "velocity": 119,
      "chip": "ym2612"
    },
    {
      "channel": 3,
      "note": 90,
      "start": 57.7922,
      "duration": 0.0494,
      "velocity": 95,
      "chip": "ym2612"
    },
    {
      "channel": 5,
      "note": 50,
      "start": 57.7928,
      "duration": 0.1856,
      "velocity": 93,
      "chip": "ym2612"
    },
    {
      "channel": 1,
      "note": 38,
      "start": 57.7997,
      "duration": 0.1955,
      "velocity": 127,
      "chip": "ym2612"
    },
    {
      "channel": 2,
      "note": 60,
      "start": 57.8934,
      "duration": 0.0846,
      "velocity": 119,
      "chip": "ym2612"
    },
    {
      "channel": 3,
      "note": 90,
      "start": 57.8943,
      "duration": 0.0497,
      "velocity": 95,
      "chip": "ym2612"
    },
    {
      "channel": 0,
      "note": 83,
      "start": 57.9949,
      "duration": 0.0506,
      "velocity": 108,
      "chip": "ym2612"
    },
    {
      "channel": 2,
      "note": 60,
      "start": 57.9962,
      "duration": 0.1861,
      "velocity": 119,
      "chip": "ym2612"
    },
    {
      "channel": 3,
      "note": 78,
      "start": 57.9971,
      "duration": 0.049,
      "velocity": 95,
      "chip": "ym2612"
    },
    {
      "channel": 5,
      "note": 49,
      "start": 57.9976,
      "duration": 0.0827,
      "velocity": 93,
      "chip": "ym2612"
    },
    {
      "channel": 1,
      "note": 111,
      "start": 58.0043,
      "duration": 0.1955,
      "velocity": 119,
      "chip": "ym2612"
    },
    {
      "channel": 0,
      "note": 84,
      "start": 58.063,
      "duration": 0.0506,
      "velocity": 108,
      "chip": "ym2612"
    },
    {
      "channel": 3,
      "note": 90,
      "start": 58.0976,
      "duration": 0.0508,
      "velocity": 95,
      "chip": "ym2612"
    },
    {
      "channel": 5,
      "note": 50,
      "start": 58.0982,
      "duration": 0.1869,
      "velocity": 93,
      "chip": "ym2612"
    },
    {
      "channel": 0,
      "note": 85,
      "start": 58.1313,
      "duration": 0.0506,
      "velocity": 108,
      "chip": "ym2612"
    },
    {
      "channel": 0,
      "note": 86,
      "start": 58.1995,
      "duration": 2.3039,
      "velocity": 108,
      "chip": "ym2612"
    },
    {
      "channel": 2,
      "note": 60,
      "start": 58.2007,
      "duration": 0.084,
      "velocity": 119,
      "chip": "ym2612"
    },
    {
      "channel": 3,
      "note": 90,
      "start": 58.2017,
      "duration": 0.049,
      "velocity": 95,
      "chip": "ym2612"
    },
    {
      "channel": 1,
      "note": 38,
      "start": 58.2086,
      "duration": 0.1957,
      "velocity": 127,
      "chip": "ym2612"
    },
    {
      "channel": 2,
      "note": 60,
      "start": 58.3025,
      "duration": 0.0849,
      "velocity": 119,
      "chip": "ym2612"
    },
    {
      "channel": 3,
      "note": 90,
      "start": 58.3034,
      "duration": 0.0498,
      "velocity": 95,
      "chip": "ym2612"
    },
    {
      "channel": 5,
      "note": 49,
      "start": 58.3042,
      "duration": 0.0835,
      "velocity": 93,
      "chip": "ym2612"
    },
    {
      "channel": 2,
      "note": 60,
      "start": 58.4053,
      "duration": 0.187,
      "velocity": 119,
      "chip": "ym2612"
    },
    {
      "channel": 3,
      "note": 90,
      "start": 58.4061,
      "duration": 0.0494,
      "velocity": 95,
      "chip": "ym2612"
    },
    {
      "channel": 5,
      "note": 50,
      "start": 58.4068,
      "duration": 0.1859,
      "velocity": 93,
      "chip": "ym2612"
    },
    {
      "channel": 1,
      "note": 105,
      "start": 58.4135,
      "duration": 0.0929,
      "velocity": 127,
      "chip": "ym2612"
    },
    {
      "channel": 3,
      "note": 78,
      "start": 58.5076,
      "duration": 0.0505,
      "velocity": 95,
      "chip": "ym2612"
    },
    {
      "channel": 1,
      "note": 105,
      "start": 58.5158,
      "duration": 0.0934,
      "velocity": 127,
      "chip": "ym2612"
    },
    {
      "channel": 2,
      "note": 60,
      "start": 58.6101,
      "duration": 0.0847,
      "velocity": 119,
      "chip": "ym2612"
    },
    {
      "channel": 3,
      "note": 90,
      "start": 58.6109,
      "duration": 0.05,
      "velocity": 95,
      "chip": "ym2612"
    },
    {
      "channel": 5,
      "note": 44,
      "start": 58.6115,
      "duration": 0.1864,
      "velocity": 93,
      "chip": "ym2612"
    },
    {
      "channel": 1,
      "note": 38,
      "start": 58.6187,
      "duration": 0.1957,
      "velocity": 127,
      "chip": "ym2612"
    },
    {
      "channel": 2,
      "note": 60,
      "start": 58.7126,
      "duration": 0.0848,
      "velocity": 119,
      "chip": "ym2612"
    },
    {
      "channel": 3,
      "note": 90,
      "start": 58.7135,
      "duration": 0.0499,
      "velocity": 95,
      "chip": "ym2612"
    },
    {
      "channel": 2,
      "note": 60,
      "start": 58.8152,
      "duration": 0.0846,
      "velocity": 119,
      "chip": "ym2612"
    },
    {
      "channel": 3,
      "note": 78,
      "start": 58.8162,
      "duration": 0.0496,
      "velocity": 95,
      "chip": "ym2612"
    },
    {
      "channel": 5,
      "note": 45,
      "start": 58.8168,
      "duration": 0.1858,
      "velocity": 93,
      "chip": "ym2612"
    },
    {
      "channel": 1,
      "note": 105,
      "start": 58.8238,
      "duration": 0.0929,
      "velocity": 127,
      "chip": "ym2612"
    },
    {
      "channel": 2,
      "note": 60,
      "start": 58.9177,
      "duration": 0.0845,
      "velocity": 119,
      "chip": "ym2612"
    },
    {
      "channel": 3,
      "note": 78,
      "start": 58.9185,
      "duration": 0.0497,
      "velocity": 95,
      "chip": "ym2612"
    },
    {
      "channel": 1,
      "note": 105,
      "start": 58.9265,
      "duration": 0.0929,
      "velocity": 127,
      "chip": "ym2612"
    },
    {
      "channel": 2,
      "note": 60,
      "start": 59.0206,
      "duration": 0.1863,
      "velocity": 119,
      "chip": "ym2612"
    },
    {
      "channel": 3,
      "note": 90,
      "start": 59.0217,
      "duration": 0.0492,
      "velocity": 95,
      "chip": "ym2612"
    },
    {
      "channel": 5,
      "note": 49,
      "start": 59.0224,
      "duration": 0.0827,
      "velocity": 93,
      "chip": "ym2612"
    },
    {
      "channel": 1,
      "note": 38,
      "start": 59.0287,
      "duration": 0.0929,
      "velocity": 127,
      "chip": "ym2612"
    },
    {
      "channel": 3,
      "note": 90,
      "start": 59.1224,
      "duration": 0.0504,
      "velocity": 95,
      "chip": "ym2612"
    },
    {
      "channel": 5,
      "note": 50,
      "start": 59.123,
      "duration": 0.1868,
      "velocity": 93,
      "chip": "ym2612"
    },
    {
      "channel": 1,
      "note": 105,
      "start": 59.1311,
      "duration": 0.0928,
      "velocity": 127,
      "chip": "ym2612"
    },
    {
      "channel": 2,
      "note": 60,
      "start": 59.2248,
      "duration": 0.0846,
      "velocity": 119,
      "chip": "ym2612"
    },
    {
      "channel": 3,
      "note": 78,
      "start": 59.2254,
      "duration": 0.0499,
      "velocity": 95,
      "chip": "ym2612"
    },
    {
      "channel": 1,
      "note": 105,
      "start": 59.2334,
      "duration": 0.0929,
      "velocity": 127,
      "chip": "ym2612"
    },
    {
      "channel": 2,
      "note": 60,
      "start": 59.3273,
      "duration": 0.0844,
      "velocity": 119,
      "chip": "ym2612"
    },
    {
      "channel": 3,
      "note": 78,
      "start": 59.3282,
      "duration": 0.0495,
      "velocity": 95,
      "chip": "ym2612"
    },
    {
      "channel": 5,
      "note": 49,
      "start": 59.3287,
      "duration": 0.0834,
      "velocity": 93,
      "chip": "ym2612"
    },
    {
      "channel": 1,
      "note": 38,
      "start": 59.3356,
      "duration": 0.0929,
      "velocity": 127,
      "chip": "ym2612"
    },
    {
      "channel": 2,
      "note": 60,
      "start": 59.4294,
      "duration": 0.0845,
      "velocity": 119,
      "chip": "ym2612"
    },
    {
      "channel": 3,
      "note": 90,
      "start": 59.4305,
      "duration": 0.0496,
      "velocity": 95,
      "chip": "ym2612"
    },
    {
      "channel": 5,
      "note": 50,
      "start": 59.4311,
      "duration": 0.1856,
      "velocity": 93,
      "chip": "ym2612"
    },
    {
      "channel": 1,
      "note": 38,
      "start": 59.4382,
      "duration": 0.195,
      "velocity": 127,
      "chip": "ym2612"
    },
    {
      "channel": 2,
      "note": 60,
      "start": 59.5317,
      "duration": 0.0845,
      "velocity": 119,
      "chip": "ym2612"
    },
    {
      "channel": 3,
      "note": 90,
      "start": 59.5326,
      "duration": 0.0498,
      "velocity": 95,
      "chip": "ym2612"
    },
    {
      "channel": 2,
      "note": 60,
      "start": 59.6343,
      "duration": 0.187,
      "velocity": 119,
      "chip": "ym2612"
    },
    {
      "channel": 3,
      "note": 78,
      "start": 59.6352,
      "duration": 0.0495,
      "velocity": 95,
      "chip": "ym2612"
    },
    {
      "channel": 5,
      "note": 49,
      "start": 59.6357,
      "duration": 0.0833,
      "velocity": 93,
      "chip": "ym2612"
    },
    {
      "channel": 1,
      "note": 67,
      "start": 59.6427,
      "duration": 0.0929,
      "velocity": 127,
      "chip": "ym2612"
    },
    {
      "channel": 3,
      "note": 90,
      "start": 59.7365,
      "duration": 0.0508,
      "velocity": 95,
      "chip": "ym2612"
    },
    {
      "channel": 5,
      "note": 50,
      "start": 59.7373,
      "duration": 0.1864,
      "velocity": 93,
      "chip": "ym2612"
    },
    {
      "channel": 1,
      "note": 67,
      "start": 59.745,
      "duration": 0.0931,
      "velocity": 127,
      "chip": "ym2612"
    },
    {
      "channel": 2,
      "note": 60,
      "start": 59.839,
      "duration": 0.0844,
      "velocity": 119,
      "chip": "ym2612"
    },
    {
      "channel": 3,
      "note": 90,
      "start": 59.8399,
      "duration": 0.0494,
      "velocity": 95,
      "chip": "ym2612"
    },
    {
      "channel": 1,
      "note": 38,
      "start": 59.8473,
      "duration": 0.1954,
      "velocity": 127,
      "chip": "ym2612"
    },
    {
      "channel": 2,
      "note": 60,
      "start": 59.9411,
      "duration": 0.0847,
      "velocity": 119,
      "chip": "ym2612"
    },
    {
      "channel": 3,
      "note": 90,
      "start": 59.942,
      "duration": 0.0497,
      "velocity": 95,
      "chip": "ym2612"
    },
    {
      "channel": 5,
      "note": 49,
      "start": 59.9426,
      "duration": 0.0837,
      "velocity": 93,
      "chip": "ym2612"
    },
    {
      "channel": 2,
      "note": 60,
      "start": 60.0437,
      "duration": 0.187,
      "velocity": 119,
      "chip": "ym2612"
    },
    {
      "channel": 3,
      "note": 90,
      "start": 60.0446,
      "duration": 0.0495,
      "velocity": 95,
      "chip": "ym2612"
    },
    {
      "channel": 5,
      "note": 50,
      "start": 60.0452,
      "duration": 0.1859,
      "velocity": 93,
      "chip": "ym2612"
    },
    {
      "channel": 1,
      "note": 60,
      "start": 60.0522,
      "duration": 0.0928,
      "velocity": 127,
      "chip": "ym2612"
    },
    {
      "channel": 3,
      "note": 78,
      "start": 60.1462,
      "duration": 0.0506,
      "velocity": 95,
      "chip": "ym2612"
    },
    {
      "channel": 1,
      "note": 60,
      "start": 60.1547,
      "duration": 0.093,
      "velocity": 127,
      "chip": "ym2612"
    },
    {
      "channel": 2,
      "note": 60,
      "start": 60.2486,
      "duration": 0.0847,
      "velocity": 119,
      "chip": "ym2612"
    },
    {
      "channel": 3,
      "note": 90,
      "start": 60.2493,
      "duration": 0.0499,
      "velocity": 95,
      "chip": "ym2612"
    },
    {
      "channel": 5,
      "note": 44,
      "start": 60.25,
      "duration": 0.1863,
      "velocity": 93,
      "chip": "ym2612"
    },
    {
      "channel": 1,
      "note": 38,
      "start": 60.2571,
      "duration": 0.1957,
      "velocity": 127,
      "chip": "ym2612"
    },
    {
      "channel": 2,
      "note": 60,
      "start": 60.351,
      "duration": 0.0849,
      "velocity": 119,
      "chip": "ym2612"
    },
    {
      "channel": 3,
      "note": 90,
      "start": 60.3519,
      "duration": 0.05,
      "velocity": 95,
      "chip": "ym2612"
    },
    {
      "channel": 2,
      "note": 60,
      "start": 60.454,
      "duration": 0.0844,
      "velocity": 119,
      "chip": "ym2612"
    },
    {
      "channel": 3,
      "note": 78,
      "start": 60.4549,
      "duration": 0.0498,
      "velocity": 95,
      "chip": "ym2612"
    },
    {
      "channel": 5,
      "note": 45,
      "start": 60.4555,
      "duration": 0.1856,
      "velocity": 93,
      "chip": "ym2612"
    },
    {
      "channel": 1,
      "note": 55,
      "start": 60.4622,
      "duration": 0.0931,
      "velocity": 127,
      "chip": "ym2612"
    },
    {
      "channel": 2,
      "note": 60,
      "start": 60.5562,
      "duration": 0.0845,
      "velocity": 119,
      "chip": "ym2612"
    },
    {
      "channel": 3,
      "note": 78,
      "start": 60.5571,
      "duration": 0.0497,
      "velocity": 95,
      "chip": "ym2612"
    },
    {
      "channel": 1,
      "note": 55,
      "start": 60.5647,
      "duration": 0.0947,
      "velocity": 127,
      "chip": "ym2612"
    },
    {
      "channel": 0,
      "note": 37,
      "start": 60.659,
      "duration": 0.0877,
      "velocity": 101,
      "chip": "ym2612"
    },
    {
      "channel": 2,
      "note": 49,
      "start": 60.6616,
      "duration": 0.0854,
      "velocity": 101,
      "chip": "ym2612"
    },
    {
      "channel": 3,
      "note": 56,
      "start": 60.6637,
      "duration": 0.1861,
      "velocity": 119,
      "chip": "ym2612"
    },
    {
      "channel": 5,
      "note": 49,
      "start": 60.6651,
      "duration": 0.185,
      "velocity": 93,
      "chip": "ym2612"
    },
    {
      "channel": 1,
      "note": 38,
      "start": 60.6712,
      "duration": 0.1959,
      "velocity": 127,
      "chip": "ym2612"
    },
    {
      "channel": 0,
      "note": 37,
      "start": 60.7643,
      "duration": 0.0846,
      "velocity": 101,
      "chip": "ym2612"
    },
    {
      "channel": 2,
      "note": 49,
      "start": 60.7654,
      "duration": 0.084,
      "velocity": 101,
      "chip": "ym2612"
    },
    {
      "channel": 0,
      "note": 37,
      "start": 60.8667,
      "duration": 0.0845,
      "velocity": 101,
      "chip": "ym2612"
    },
    {
      "channel": 2,
      "note": 49,
      "start": 60.8679,
      "duration": 0.0837,
      "velocity": 101,
      "chip": "ym2612"
    },
    {
      "channel": 3,
      "note": 56,
      "start": 60.8688,
      "duration": 0.0831,
      "velocity": 119,
      "chip": "ym2612"
    },
    {
      "channel": 5,
      "note": 49,
      "start": 60.8696,
      "duration": 0.0825,
      "velocity": 93,
      "chip": "ym2612"
    },
    {
      "channel": 1,
      "note": 105,
      "start": 60.8758,
      "duration": 0.0936,
      "velocity": 127,
      "chip": "ym2612"
    },
    {
      "channel": 0,
      "note": 37,
      "start": 60.9691,
      "duration": 0.0848,
      "velocity": 101,
      "chip": "ym2612"
    },
    {
      "channel": 2,
      "note": 49,
      "start": 60.9702,
      "duration": 0.0841,
      "velocity": 101,
      "chip": "ym2612"
    },
    {
      "channel": 3,
      "note": 56,
      "start": 60.9714,
      "duration": 0.1852,
      "velocity": 119,
      "chip": "ym2612"
    },
    {
      "channel": 5,
      "note": 49,
      "start": 60.9722,
      "duration": 0.1846,
      "velocity": 93,
      "chip": "ym2612"
    },
    {
      "channel": 1,
      "note": 38,
      "start": 60.978,
      "duration": 0.0938,
      "velocity": 127,
      "chip": "ym2612"
    },
    {
      "channel": 0,
      "note": 37,
      "start": 61.0715,
      "duration": 0.0845,
      "velocity": 101,
      "chip": "ym2612"
    },
    {
      "channel": 2,
      "note": 49,
      "start": 61.0726,
      "duration": 0.0838,
      "velocity": 101,
      "chip": "ym2612"
    },
    {
      "channel": 1,
      "note": 38,
      "start": 61.0804,
      "duration": 0.196,
      "velocity": 127,
      "chip": "ym2612"
    },
    {
      "channel": 0,
      "note": 37,
      "start": 61.1738,
      "duration": 0.0845,
      "velocity": 101,
      "chip": "ym2612"
    },
    {
      "channel": 2,
      "note": 49,
      "start": 61.1749,
      "duration": 0.0839,
      "velocity": 101,
      "chip": "ym2612"
    },
    {
      "channel": 3,
      "note": 56,
      "start": 61.1757,
      "duration": 0.0833,
      "velocity": 119,
      "chip": "ym2612"
    },
    {
      "channel": 5,
      "note": 49,
      "start": 61.1766,
      "duration": 0.0826,
      "velocity": 93,
      "chip": "ym2612"
    },
    {
      "channel": 0,
      "note": 37,
      "start": 61.2761,
      "duration": 0.0846,
      "velocity": 101,
      "chip": "ym2612"
    },
    {
      "channel": 2,
      "note": 49,
      "start": 61.2771,
      "duration": 0.0839,
      "velocity": 101,
      "chip": "ym2612"
    },
    {
      "channel": 3,
      "note": 56,
      "start": 61.2781,
      "duration": 0.1858,
      "velocity": 119,
      "chip": "ym2612"
    },
    {
      "channel": 5,
      "note": 49,
      "start": 61.279,
      "duration": 0.1852,
      "velocity": 93,
      "chip": "ym2612"
    },
    {
      "channel": 1,
      "note": 111,
      "start": 61.2852,
      "duration": 0.1963,
      "velocity": 119,
      "chip": "ym2612"
    },
    {
      "channel": 0,
      "note": 37,
      "start": 61.3785,
      "duration": 0.0849,
      "velocity": 101,
      "chip": "ym2612"
    },
    {
      "channel": 2,
      "note": 49,
      "start": 61.3794,
      "duration": 0.0842,
      "velocity": 101,
      "chip": "ym2612"
    },
    {
      "channel": 0,
      "note": 37,
      "start": 61.4812,
      "duration": 0.0847,
      "velocity": 101,
      "chip": "ym2612"
    },
    {
      "channel": 2,
      "note": 49,
      "start": 61.4823,
      "duration": 0.084,
      "velocity": 101,
      "chip": "ym2612"
    },
    {
      "channel": 3,
      "note": 56,
      "start": 61.4832,
      "duration": 0.0834,
      "velocity": 119,
      "chip": "ym2612"
    },
    {
      "channel": 5,
      "note": 49,
      "start": 61.484,
      "duration": 0.0828,
      "velocity": 93,
      "chip": "ym2612"
    },
    {
      "channel": 1,
      "note": 38,
      "start": 61.4902,
      "duration": 0.1963,
      "velocity": 127,
      "chip": "ym2612"
    },
    {
      "channel": 0,
      "note": 37,
      "start": 61.5836,
      "duration": 0.0847,
      "velocity": 101,
      "chip": "ym2612"
    },
    {
      "channel": 2,
      "note": 49,
      "start": 61.5846,
      "duration": 0.0841,
      "velocity": 101,
      "chip": "ym2612"
    },
    {
      "channel": 3,
      "note": 56,
      "start": 61.5855,
      "duration": 0.0835,
      "velocity": 119,
      "chip": "ym2612"
    },
    {
      "channel": 5,
      "note": 49,
      "start": 61.5864,
      "duration": 0.0829,
      "velocity": 93,
      "chip": "ym2612"
    },
    {
      "channel": 0,
      "note": 38,
      "start": 61.6862,
      "duration": 0.5794,
      "velocity": 101,
      "chip": "ym2612"
    },
    {
      "channel": 2,
      "note": 50,
      "start": 61.6877,
      "duration": 0.5784,
      "velocity": 101,
      "chip": "ym2612"
    },
    {
      "channel": 3,
      "note": 57,
      "start": 61.6887,
      "duration": 2.1134,
      "velocity": 119,
      "chip": "ym2612"
    },
    {
      "channel": 5,
      "note": 48,
      "start": 61.6896,
      "duration": 1.5324,
      "velocity": 93,
      "chip": "ym2612"
    },
    {
      "channel": 1,
      "note": 105,
      "start": 61.6952,
      "duration": 0.0929,
      "velocity": 127,
      "chip": "ym2612"
    },
    {
      "channel": 1,
      "note": 105,
      "start": 61.7976,
      "duration": 0.0933,
      "velocity": 127,
      "chip": "ym2612"
    },
    {
      "channel": 1,
      "note": 38,
      "start": 61.9002,
      "duration": 0.1954,
      "velocity": 127,
      "chip": "ym2612"
    },
    {
      "channel": 1,
      "note": 105,
      "start": 62.1053,
      "duration": 0.0927,
      "velocity": 127,
      "chip": "ym2612"
    },
    {
      "channel": 1,
      "note": 105,
      "start": 62.2074,
      "duration": 0.0929,
      "velocity": 127,
      "chip": "ym2612"
    },
    {
      "channel": 1,
      "note": 38,
      "start": 62.3094,
      "duration": 0.1957,
      "velocity": 127,
      "chip": "ym2612"
    },
    {
      "channel": 0,
      "note": 37,
      "start": 62.5048,
      "duration": 0.1872,
      "velocity": 101,
      "chip": "ym2612"
    },
    {
      "channel": 2,
      "note": 49,
      "start": 62.5056,
      "duration": 0.1868,
      "velocity": 101,
      "chip": "ym2612"
    },
    {
      "channel": 1,
      "note": 105,
      "start": 62.5142,
      "duration": 0.0929,
      "velocity": 127,
      "chip": "ym2612"
    },
    {
      "channel": 1,
      "note": 38,
      "start": 62.6164,
      "duration": 0.0933,
      "velocity": 127,
      "chip": "ym2612"
    },
    {
      "channel": 0,
      "note": 38,
      "start": 62.7095,
      "duration": 0.1872,
      "velocity": 101,
      "chip": "ym2612"
    },
    {
      "channel": 2,
      "note": 50,
      "start": 62.7103,
      "duration": 0.1868,
      "velocity": 101,
      "chip": "ym2612"
    },
    {
      "channel": 1,
      "note": 38,
      "start": 62.7188,
      "duration": 0.1956,
      "velocity": 127,
      "chip": "ym2612"
    },
    {
      "channel": 0,
      "note": 41,
      "start": 62.9141,
      "duration": 0.1874,
      "velocity": 101,
      "chip": "ym2612"
    },
    {
      "channel": 2,
      "note": 53,
      "start": 62.9149,
      "duration": 0.187,
      "velocity": 101,
      "chip": "ym2612"
    },
    {
      "channel": 1,
      "note": 63,
      "start": 62.9234,
      "duration": 0.1957,
      "velocity": 118,
      "chip": "ym2612"
    },
    {
      "channel": 0,
      "note": 42,
      "start": 63.1189,
      "duration": 0.1875,
      "velocity": 101,
      "chip": "ym2612"
    },
    {
      "channel": 2,
      "note": 54,
      "start": 63.1198,
      "duration": 0.1871,
      "velocity": 101,
      "chip": "ym2612"
    },
    {
      "channel": 1,
      "note": 38,
      "start": 63.1282,
      "duration": 0.0933,
      "velocity": 127,
      "chip": "ym2612"
    },
    {
      "channel": 1,
      "note": 63,
      "start": 63.2308,
      "duration": 0.1957,
      "velocity": 118,
      "chip": "ym2612"
    },
    {
      "channel": 0,
      "note": 44,
      "start": 63.324,
      "duration": 0.1875,
      "velocity": 101,
      "chip": "ym2612"
    },
    {
      "channel": 2,
      "note": 56,
      "start": 63.3248,
      "duration": 0.1871,
      "velocity": 101,
      "chip": "ym2612"
    },
    {
      "channel": 5,
      "note": 38,
      "start": 63.3257,
      "duration": 0.0842,
      "velocity": 93,
      "chip": "ym2612"
    },
    {
      "channel": 5,
      "note": 38,
      "start": 63.4276,
      "duration": 0.0847,
      "velocity": 93,
      "chip": "ym2612"
    },
    {
      "channel": 1,
      "note": 105,
      "start": 63.436,
      "duration": 0.0934,
      "velocity": 127,
      "chip": "ym2612"
    },
    {
      "channel": 0,
      "note": 45,
      "start": 63.529,
      "duration": 0.1873,
      "velocity": 101,
      "chip": "ym2612"
    },
    {
      "channel": 2,
      "note": 57,
      "start": 63.53,
      "duration": 0.1869,
      "velocity": 101,
      "chip": "ym2612"
    },
    {
      "channel": 5,
      "note": 38,
      "start": 63.5308,
      "duration": 0.084,
      "velocity": 93,
      "chip": "ym2612"
    },
    {
      "channel": 1,
      "note": 38,
      "start": 63.5386,
      "duration": 0.1956,
      "velocity": 127,
      "chip": "ym2612"
    },
    {
      "channel": 5,
      "note": 38,
      "start": 63.6324,
      "duration": 0.0849,
      "velocity": 93,
      "chip": "ym2612"
    },
    {
      "channel": 0,
      "note": 48,
      "start": 63.7339,
      "duration": 0.1871,
      "velocity": 101,
      "chip": "ym2612"
    },
    {
      "channel": 2,
      "note": 60,
      "start": 63.7348,
      "duration": 0.1867,
      "velocity": 101,
      "chip": "ym2612"
    },
    {
      "channel": 5,
      "note": 38,
      "start": 63.7357,
      "duration": 0.0837,
      "velocity": 93,
      "chip": "ym2612"
    },
    {
      "channel": 1,
      "note": 111,
      "start": 63.7433,
      "duration": 0.0928,
      "velocity": 119,
      "chip": "ym2612"
    },
    {
      "channel": 5,
      "note": 38,
      "start": 63.8375,
      "duration": 0.0845,
      "velocity": 93,
      "chip": "ym2612"
    },
    {
      "channel": 1,
      "note": 63,
      "start": 63.8455,
      "duration": 0.0938,
      "velocity": 118,
      "chip": "ym2612"
    },
    {
      "channel": 0,
      "note": 49,
      "start": 63.9389,
      "duration": 0.0845,
      "velocity": 101,
      "chip": "ym2612"
    },
    {
      "channel": 2,
      "note": 61,
      "start": 63.9402,
      "duration": 0.0836,
      "velocity": 101,
      "chip": "ym2612"
    },
    {
      "channel": 3,
      "note": 56,
      "start": 63.9411,
      "duration": 0.1853,
      "velocity": 119,
      "chip": "ym2612"
    },
    {
      "channel": 5,
      "note": 49,
      "start": 63.9419,
      "duration": 0.1847,
      "velocity": 93,
      "chip": "ym2612"
    },
    {
      "channel": 1,
      "note": 38,
      "start": 63.9478,
      "duration": 0.1959,
      "velocity": 127,
      "chip": "ym2612"
    },
    {
      "channel": 0,
      "note": 49,
      "start": 64.0411,
      "duration": 0.0846,
      "velocity": 101,
      "chip": "ym2612"
    },
    {
      "channel": 2,
      "note": 61,
      "start": 64.0422,
      "duration": 0.084,
      "velocity": 101,
      "chip": "ym2612"
    },
    {
      "channel": 0,
      "note": 49,
      "start": 64.1434,
      "duration": 0.0846,
      "velocity": 101,
      "chip": "ym2612"
    },
    {
      "channel": 2,
      "note": 61,
      "start": 64.1446,
      "duration": 0.0837,
      "velocity": 101,
      "chip": "ym2612"
    },
    {
      "channel": 3,
      "note": 56,
      "start": 64.1455,
      "duration": 0.0831,
      "velocity": 119,
      "chip": "ym2612"
    },
    {
      "channel": 5,
      "note": 49,
      "start": 64.1463,
      "duration": 0.0825,
      "velocity": 93,
      "chip": "ym2612"
    },
    {
      "channel": 1,
      "note": 105,
      "start": 64.1525,
      "duration": 0.0936,
      "velocity": 127,
      "chip": "ym2612"
    },
    {
      "channel": 0,
      "note": 49,
      "start": 64.2458,
      "duration": 0.0845,
      "velocity": 101,
      "chip": "ym2612"
    },
    {
      "channel": 2,
      "note": 61,
      "start": 64.2469,
      "duration": 0.0839,
      "velocity": 101,
      "chip": "ym2612"
    },
    {
      "channel": 3,
      "note": 56,
      "start": 64.2478,
      "duration": 0.1856,
      "velocity": 119,
      "chip": "ym2612"
    },
    {
      "channel": 5,
      "note": 49,
      "start": 64.2487,
      "duration": 0.185,
      "velocity": 93,
      "chip": "ym2612"
    },
    {
      "channel": 1,
      "note": 38,
      "start": 64.2551,
      "duration": 0.0934,
      "velocity": 127,
      "chip": "ym2612"
    },
    {
      "channel": 0,
      "note": 49,
      "start": 64.3481,
      "duration": 0.0846,
      "velocity": 101,
      "chip": "ym2612"
    },
    {
      "channel": 2,
      "note": 61,
      "start": 64.3493,
      "duration": 0.0839,
      "velocity": 101,
      "chip": "ym2612"
    },
    {
      "channel": 1,
      "note": 38,
      "start": 64.3572,
      "duration": 0.196,
      "velocity": 127,
      "chip": "ym2612"
    },
    {
      "channel": 0,
      "note": 49,
      "start": 64.4505,
      "duration": 0.0847,
      "velocity": 101,
      "chip": "ym2612"
    },
    {
      "channel": 2,
      "note": 61,
      "start": 64.4516,
      "duration": 0.084,
      "velocity": 101,
      "chip": "ym2612"
    },
    {
      "channel": 3,
      "note": 56,
      "start": 64.4524,
      "duration": 0.0834,
      "velocity": 119,
      "chip": "ym2612"
    },
    {
      "channel": 5,
      "note": 49,
      "start": 64.4533,
      "duration": 0.0828,
      "velocity": 93,
      "chip": "ym2612"
    },
    {
      "channel": 0,
      "note": 49,
      "start": 64.5528,
      "duration": 0.0849,
      "velocity": 101,
      "chip": "ym2612"
    },
    {
      "channel": 2,
      "note": 61,
      "start": 64.5542,
      "duration": 0.0839,
      "velocity": 101,
      "chip": "ym2612"
    },
    {
      "channel": 3,
      "note": 56,
      "start": 64.5551,
      "duration": 0.1857,
      "velocity": 119,
      "chip": "ym2612"
    },
    {
      "channel": 5,
      "note": 49,
      "start": 64.556,
      "duration": 0.185,
      "velocity": 93,
      "chip": "ym2612"
    },
    {
      "channel": 1,
      "note": 111,
      "start": 64.562,
      "duration": 0.1964,
      "velocity": 119,
      "chip": "ym2612"
    },
    {
      "channel": 0,
      "note": 49,
      "start": 64.6555,
      "duration": 0.0847,
      "velocity": 101,
      "chip": "ym2612"
    },
    {
      "channel": 2,
      "note": 61,
      "start": 64.6565,
      "duration": 0.0841,
      "velocity": 101,
      "chip": "ym2612"
    },
    {
      "channel": 0,
      "note": 49,
      "start": 64.758,
      "duration": 0.0846,
      "velocity": 101,
      "chip": "ym2612"
    },
    {
      "channel": 2,
      "note": 61,
      "start": 64.7592,
      "duration": 0.0838,
      "velocity": 101,
      "chip": "ym2612"
    },
    {
      "channel": 3,
      "note": 56,
      "start": 64.7601,
      "duration": 0.0832,
      "velocity": 119,
      "chip": "ym2612"
    },
    {
      "channel": 5,
      "note": 49,
      "start": 64.7609,
      "duration": 0.0826,
      "velocity": 93,
      "chip": "ym2612"
    },
    {
      "channel": 1,
      "note": 38,
      "start": 64.767,
      "duration": 0.1961,
      "velocity": 127,
      "chip": "ym2612"
    },
    {
      "channel": 0,
      "note": 49,
      "start": 64.8603,
      "duration": 0.0846,
      "velocity": 101,
      "chip": "ym2612"
    },
    {
      "channel": 2,
      "note": 61,
      "start": 64.8614,
      "duration": 0.0839,
      "velocity": 101,
      "chip": "ym2612"
    },
    {
      "channel": 3,
      "note": 56,
      "start": 64.8623,
      "duration": 0.0833,
      "velocity": 119,
      "chip": "ym2612"
    },
    {
      "channel": 5,
      "note": 49,
      "start": 64.8632,
      "duration": 0.0827,
      "velocity": 93,
      "chip": "ym2612"
    },
    {
      "channel": 0,
      "note": 50,
      "start": 64.9628,
      "duration": 0.5796,
      "velocity": 101,
      "chip": "ym2612"
    },
    {
      "channel": 2,
      "note": 62,
      "start": 64.964,
      "duration": 0.5789,
      "velocity": 101,
      "chip": "ym2612"
    },
    {
      "channel": 3,
      "note": 57,
      "start": 64.9651,
      "duration": 2.1139,
      "velocity": 119,
      "chip": "ym2612"
    },
    {
      "channel": 5,
      "note": 48,
      "start": 64.9659,
      "duration": 1.5333,
      "velocity": 93,
      "chip": "ym2612"
    },
    {
      "channel": 1,
      "note": 105,
      "start": 64.972,
      "duration": 0.093,
      "velocity": 127,
      "chip": "ym2612"
    },
    {
      "channel": 1,
      "note": 105,
      "start": 65.0744,
      "duration": 0.0934,
      "velocity": 127,
      "chip": "ym2612"
    },
    {
      "channel": 1,
      "note": 38,
      "start": 65.1771,
      "duration": 0.1952,
      "velocity": 127,
      "chip": "ym2612"
    },
    {
      "channel": 1,
      "note": 105,
      "start": 65.3817,
      "duration": 0.093,
      "velocity": 127,
      "chip": "ym2612"
    },
    {
      "channel": 1,
      "note": 105,
      "start": 65.4841,
      "duration": 0.0929,
      "velocity": 127,
      "chip": "ym2612"
    },
    {
      "channel": 1,
      "note": 38,
      "start": 65.5862,
      "duration": 0.1957,
      "velocity": 127,
      "chip": "ym2612"
    },
    {
      "channel": 0,
      "note": 49,
      "start": 65.7817,
      "duration": 0.1871,
      "velocity": 101,
      "chip": "ym2612"
    },
    {
      "channel": 2,
      "note": 61,
      "start": 65.7825,
      "duration": 0.1867,
      "velocity": 101,
      "chip": "ym2612"
    },
    {
      "channel": 1,
      "note": 105,
      "start": 65.791,
      "duration": 0.0928,
      "velocity": 127,
      "chip": "ym2612"
    },
    {
      "channel": 1,
      "note": 38,
      "start": 65.8932,
      "duration": 0.0932,
      "velocity": 127,
      "chip": "ym2612"
    },
    {
      "channel": 0,
      "note": 50,
      "start": 65.9862,
      "duration": 0.1873,
      "velocity": 101,
      "chip": "ym2612"
    },
    {
      "channel": 2,
      "note": 62,
      "start": 65.9873,
      "duration": 0.1866,
      "velocity": 101,
      "chip": "ym2612"
    },
    {
      "channel": 1,
      "note": 38,
      "start": 65.9955,
      "duration": 0.1957,
      "velocity": 127,
      "chip": "ym2612"
    },
    {
      "channel": 0,
      "note": 53,
      "start": 66.191,
      "duration": 0.1876,
      "velocity": 101,
      "chip": "ym2612"
    },
    {
      "channel": 2,
      "note": 65,
      "start": 66.1918,
      "duration": 0.1872,
      "velocity": 101,
      "chip": "ym2612"
    },
    {
      "channel": 1,
      "note": 63,
      "start": 66.2003,
      "duration": 0.1963,
      "velocity": 118,
      "chip": "ym2612"
    },
    {
      "channel": 0,
      "note": 54,
      "start": 66.3963,
      "duration": 0.1875,
      "velocity": 101,
      "chip": "ym2612"
    },
    {
      "channel": 2,
      "note": 66,
      "start": 66.3972,
      "duration": 0.1871,
      "velocity": 101,
      "chip": "ym2612"
    },
    {
      "channel": 1,
      "note": 38,
      "start": 66.4056,
      "duration": 0.0931,
      "velocity": 127,
      "chip": "ym2612"
    },
    {
      "channel": 1,
      "note": 63,
      "start": 66.5081,
      "duration": 0.1954,
      "velocity": 118,
      "chip": "ym2612"
    },
    {
      "channel": 0,
      "note": 56,
      "start": 66.6012,
      "duration": 0.1872,
      "velocity": 101,
      "chip": "ym2612"
    },
    {
      "channel": 2,
      "note": 68,
      "start": 66.602,
      "duration": 0.1867,
      "velocity": 101,
      "chip": "ym2612"
    },
    {
      "channel": 5,
      "note": 38,
      "start": 66.603,
      "duration": 0.0842,
      "velocity": 93,
      "chip": "ym2612"
    },
    {
      "channel": 5,
      "note": 38,
      "start": 66.7049,
      "duration": 0.0843,
      "velocity": 93,
      "chip": "ym2612"
    },
    {
      "channel": 1,
      "note": 105,
      "start": 66.713,
      "duration": 0.0932,
      "velocity": 127,
      "chip": "ym2612"
    },
    {
      "channel": 0,
      "note": 57,
      "start": 66.8059,
      "duration": 0.1871,
      "velocity": 101,
      "chip": "ym2612"
    },
    {
      "channel": 2,
      "note": 69,
      "start": 66.8068,
      "duration": 0.1867,
      "velocity": 101,
      "chip": "ym2612"
    },
    {
      "channel": 5,
      "note": 38,
      "start": 66.8077,
      "duration": 0.0839,
      "velocity": 93,
      "chip": "ym2612"
    },
    {
      "channel": 1,
      "note": 38,
      "start": 66.8152,
      "duration": 0.1956,
      "velocity": 127,
      "chip": "ym2612"
    },
    {
      "channel": 5,
      "note": 38,
      "start": 66.9092,
      "duration": 0.0847,
      "velocity": 93,
      "chip": "ym2612"
    },
    {
      "channel": 0,
      "note": 60,
      "start": 67.0106,
      "duration": 0.1873,
      "velocity": 101,
      "chip": "ym2612"
    },
    {
      "channel": 2,
      "note": 72,
      "start": 67.0114,
      "duration": 0.1869,
      "velocity": 101,
      "chip": "ym2612"
    },
    {
      "channel": 5,
      "note": 38,
      "start": 67.0123,
      "duration": 0.0839,
      "velocity": 93,
      "chip": "ym2612"
    },
    {
      "channel": 1,
      "note": 111,
      "start": 67.02,
      "duration": 0.0929,
      "velocity": 119,
      "chip": "ym2612"
    },
    {
      "channel": 5,
      "note": 38,
      "start": 67.1139,
      "duration": 0.0849,
      "velocity": 93,
      "chip": "ym2612"
    },
    {
      "channel": 1,
      "note": 63,
      "start": 67.1222,
      "duration": 0.0938,
      "velocity": 118,
      "chip": "ym2612"
    },
    {
      "channel": 0,
      "note": 61,
      "start": 67.2157,
      "duration": 0.0845,
      "velocity": 101,
      "chip": "ym2612"
    },
    {
      "channel": 2,
      "note": 73,
      "start": 67.217,
      "duration": 0.0836,
      "velocity": 101,
      "chip": "ym2612"
    },
    {
      "channel": 3,
      "note": 56,
      "start": 67.2179,
      "duration": 0.1853,
      "velocity": 119,
      "chip": "ym2612"
    },
    {
      "channel": 5,
      "note": 49,
      "start": 67.2187,
      "duration": 0.1847,
      "velocity": 93,
      "chip": "ym2612"
    },
    {
      "channel": 1,
      "note": 38,
      "start": 67.2246,
      "duration": 0.1962,
      "velocity": 127,
      "chip": "ym2612"
    },
    {
      "channel": 0,
      "note": 61,
      "start": 67.3179,
      "duration": 0.0846,
      "velocity": 101,
      "chip": "ym2612"
    },
    {
      "channel": 2,
      "note": 73,
      "start": 67.3189,
      "duration": 0.084,
      "velocity": 101,
      "chip": "ym2612"
    },
    {
      "channel": 0,
      "note": 61,
      "start": 67.4205,
      "duration": 0.0845,
      "velocity": 101,
      "chip": "ym2612"
    },
    {
      "channel": 2,
      "note": 73,
      "start": 67.4216,
      "duration": 0.0837,
      "velocity": 101,
      "chip": "ym2612"
    },
    {
      "channel": 3,
      "note": 56,
      "start": 67.4225,
      "duration": 0.0831,
      "velocity": 119,
      "chip": "ym2612"
    },
    {
      "channel": 5,
      "note": 49,
      "start": 67.4234,
      "duration": 0.0824,
      "velocity": 93,
      "chip": "ym2612"
    },
    {
      "channel": 1,
      "note": 105,
      "start": 67.4293,
      "duration": 0.0938,
      "velocity": 127,
      "chip": "ym2612"
    },
    {
      "channel": 0,
      "note": 61,
      "start": 67.5228,
      "duration": 0.0846,
      "velocity": 101,
      "chip": "ym2612"
    },
    {
      "channel": 2,
      "note": 73,
      "start": 67.5239,
      "duration": 0.084,
      "velocity": 101,
      "chip": "ym2612"
    },
    {
      "channel": 3,
      "note": 56,
      "start": 67.5248,
      "duration": 0.1859,
      "velocity": 119,
      "chip": "ym2612"
    },
    {
      "channel": 5,
      "note": 49,
      "start": 67.5257,
      "duration": 0.1852,
      "velocity": 93,
      "chip": "ym2612"
    },
    {
      "channel": 1,
      "note": 38,
      "start": 67.5318,
      "duration": 0.0938,
      "velocity": 127,
      "chip": "ym2612"
    },
    {
      "channel": 0,
      "note": 61,
      "start": 67.6252,
      "duration": 0.0847,
      "velocity": 101,
      "chip": "ym2612"
    },
    {
      "channel": 2,
      "note": 73,
      "start": 67.6264,
      "duration": 0.084,
      "velocity": 101,
      "chip": "ym2612"
    },
    {
      "channel": 1,
      "note": 38,
      "start": 67.6343,
      "duration": 0.1964,
      "velocity": 127,
      "chip": "ym2612"
    },
    {
      "channel": 0,
      "note": 61,
      "start": 67.7277,
      "duration": 0.0849,
      "velocity": 101,
      "chip": "ym2612"
    },
    {
      "channel": 2,
      "note": 73,
      "start": 67.7288,
      "duration": 0.0842,
      "velocity": 101,
      "chip": "ym2612"
    },
    {
      "channel": 3,
      "note": 56,
      "start": 67.7296,
      "duration": 0.0837,
      "velocity": 119,
      "chip": "ym2612"
    },
    {
      "channel": 5,
      "note": 49,
      "start": 67.7305,
      "duration": 0.083,
      "velocity": 93,
      "chip": "ym2612"
    },
    {
      "channel": 0,
      "note": 61,
      "start": 67.8303,
      "duration": 0.0847,
      "velocity": 101,
      "chip": "ym2612"
    },
    {
      "channel": 2,
      "note": 73,
      "start": 67.8315,
      "duration": 0.0839,
      "velocity": 101,
      "chip": "ym2612"
    },
    {
      "channel": 3,
      "note": 56,
      "start": 67.8324,
      "duration": 0.1857,
      "velocity": 119,
      "chip": "ym2612"
    },
    {
      "channel": 5,
      "note": 49,
      "start": 67.8332,
      "duration": 0.1851,
      "velocity": 93,
      "chip": "ym2612"
    },
    {
      "channel": 1,
      "note": 111,
      "start": 67.8394,
      "duration": 0.1961,
      "velocity": 119,
      "chip": "ym2612"
    },
    {
      "channel": 0,
      "note": 61,
      "start": 67.9328,
      "duration": 0.0847,
      "velocity": 101,
      "chip": "ym2612"
    },
    {
      "channel": 2,
      "note": 73,
      "start": 67.9338,
      "duration": 0.084,
      "velocity": 101,
      "chip": "ym2612"
    },
    {
      "channel": 0,
      "note": 61,
      "start": 68.0352,
      "duration": 0.0846,
      "velocity": 101,
      "chip": "ym2612"
    },
    {
      "channel": 2,
      "note": 73,
      "start": 68.0364,
      "duration": 0.0841,
      "velocity": 101,
      "chip": "ym2612"
    },
    {
      "channel": 3,
      "note": 56,
      "start": 68.0375,
      "duration": 0.0833,
      "velocity": 119,
      "chip": "ym2612"
    },
    {
      "channel": 5,
      "note": 49,
      "start": 68.0384,
      "duration": 0.0826,
      "velocity": 93,
      "chip": "ym2612"
    },
    {
      "channel": 1,
      "note": 38,
      "start": 68.0443,
      "duration": 0.1961,
      "velocity": 127,
      "chip": "ym2612"
    },
    {
      "channel": 0,
      "note": 61,
      "start": 68.1379,
      "duration": 0.0842,
      "velocity": 101,
      "chip": "ym2612"
    },
    {
      "channel": 2,
      "note": 73,
      "start": 68.139,
      "duration": 0.0836,
      "velocity": 101,
      "chip": "ym2612"
    },
    {
      "channel": 3,
      "note": 56,
      "start": 68.1399,
      "duration": 0.0829,
      "velocity": 119,
      "chip": "ym2612"
    },
    {
      "channel": 5,
      "note": 49,
      "start": 68.1407,
      "duration": 0.0823,
      "velocity": 93,
      "chip": "ym2612"
    },
    {
      "channel": 0,
      "note": 62,
      "start": 68.2401,
      "duration": 0.5791,
      "velocity": 101,
      "chip": "ym2612"
    },
    {
      "channel": 2,
      "note": 74,
      "start": 68.2413,
      "duration": 0.5784,
      "velocity": 101,
      "chip": "ym2612"
    },
    {
      "channel": 3,
      "note": 57,
      "start": 68.2424,
      "duration": 2.1133,
      "velocity": 119,
      "chip": "ym2612"
    },
    {
      "channel": 5,
      "note": 48,
      "start": 68.2432,
      "duration": 1.533,
      "velocity": 93,
      "chip": "ym2612"
    },
    {
      "channel": 1,
      "note": 105,
      "start": 68.249,
      "duration": 0.0929,
      "velocity": 127,
      "chip": "ym2612"
    },
    {
      "channel": 1,
      "note": 105,
      "start": 68.3515,
      "duration": 0.0931,
      "velocity": 127,
      "chip": "ym2612"
    },
    {
      "channel": 1,
      "note": 38,
      "start": 68.4542,
      "duration": 0.1949,
      "velocity": 127,
      "chip": "ym2612"
    },
    {
      "channel": 1,
      "note": 105,
      "start": 68.6585,
      "duration": 0.093,
      "velocity": 127,
      "chip": "ym2612"
    },
    {
      "channel": 1,
      "note": 105,
      "start": 68.7609,
      "duration": 0.0931,
      "velocity": 127,
      "chip": "ym2612"
    },
    {
      "channel": 1,
      "note": 38,
      "start": 68.8629,
      "duration": 0.1957,
      "velocity": 127,
      "chip": "ym2612"
    },
    {
      "channel": 0,
      "note": 61,
      "start": 69.0584,
      "duration": 0.1875,
      "velocity": 101,
      "chip": "ym2612"
    },
    {
      "channel": 2,
      "note": 73,
      "start": 69.0592,
      "duration": 0.1871,
      "velocity": 101,
      "chip": "ym2612"
    },
    {
      "channel": 1,
      "note": 105,
      "start": 69.0677,
      "duration": 0.0929,
      "velocity": 127,
      "chip": "ym2612"
    },
    {
      "channel": 1,
      "note": 38,
      "start": 69.17,
      "duration": 0.0936,
      "velocity": 127,
      "chip": "ym2612"
    },
    {
      "channel": 0,
      "note": 62,
      "start": 69.2634,
      "duration": 0.1876,
      "velocity": 101,
      "chip": "ym2612"
    },
    {
      "channel": 2,
      "note": 74,
      "start": 69.2642,
      "duration": 0.1872,
      "velocity": 101,
      "chip": "ym2612"
    },
    {
      "channel": 1,
      "note": 38,
      "start": 69.2727,
      "duration": 0.1961,
      "velocity": 127,
      "chip": "ym2612"
    },
    {
      "channel": 0,
      "note": 65,
      "start": 69.4685,
      "duration": 0.1874,
      "velocity": 101,
      "chip": "ym2612"
    },
    {
      "channel": 2,
      "note": 77,
      "start": 69.4693,
      "duration": 0.187,
      "velocity": 101,
      "chip": "ym2612"
    },
    {
      "channel": 1,
      "note": 63,
      "start": 69.4778,
      "duration": 0.1959,
      "velocity": 118,
      "chip": "ym2612"
    },
    {
      "channel": 0,
      "note": 66,
      "start": 69.6734,
      "duration": 0.1872,
      "velocity": 101,
      "chip": "ym2612"
    },
    {
      "channel": 2,
      "note": 78,
      "start": 69.6743,
      "duration": 0.1868,
      "velocity": 101,
      "chip": "ym2612"
    },
    {
      "channel": 1,
      "note": 38,
      "start": 69.6827,
      "duration": 0.093,
      "velocity": 127,
      "chip": "ym2612"
    },
    {
      "channel": 1,
      "note": 63,
      "start": 69.785,
      "duration": 0.1952,
      "velocity": 118,
      "chip": "ym2612"
    },
    {
      "channel": 0,
      "note": 68,
      "start": 69.8781,
      "duration": 0.1871,
      "velocity": 101,
      "chip": "ym2612"
    },
    {
      "channel": 2,
      "note": 80,
      "start": 69.8789,
      "duration": 0.1866,
      "velocity": 101,
      "chip": "ym2612"
    },
    {
      "channel": 5,
      "note": 38,
      "start": 69.8798,
      "duration": 0.0839,
      "velocity": 93,
      "chip": "ym2612"
    },
    {
      "channel": 5,
      "note": 38,
      "start": 69.9813,
      "duration": 0.0846,
      "velocity": 93,
      "chip": "ym2612"
    },
    {
      "channel": 1,
      "note": 105,
      "start": 69.9897,
      "duration": 0.0933,
      "velocity": 127,
      "chip": "ym2612"
    },
    {
      "channel": 0,
      "note": 69,
      "start": 70.0827,
      "duration": 0.1871,
      "velocity": 101,
      "chip": "ym2612"
    },
    {
      "channel": 2,
      "note": 81,
      "start": 70.0836,
      "duration": 0.1868,
      "velocity": 101,
      "chip": "ym2612"
    },
    {
      "channel": 5,
      "note": 38,
      "start": 70.0845,
      "duration": 0.0838,
      "velocity": 93,
      "chip": "ym2612"
    },
    {
      "channel": 1,
      "note": 38,
      "start": 70.092,
      "duration": 0.196,
      "velocity": 127,
      "chip": "ym2612"
    },
    {
      "channel": 5,
      "note": 38,
      "start": 70.1859,
      "duration": 0.0851,
      "velocity": 93,
      "chip": "ym2612"
    },
    {
      "channel": 0,
      "note": 72,
      "start": 70.2876,
      "duration": 0.1869,
      "velocity": 101,
      "chip": "ym2612"
    },
    {
      "channel": 2,
      "note": 84,
      "start": 70.2885,
      "duration": 0.1865,
      "velocity": 101,
      "chip": "ym2612"
    },
    {
      "channel": 5,
      "note": 38,
      "start": 70.2894,
      "duration": 0.0835,
      "velocity": 93,
      "chip": "ym2612"
    },
    {
      "channel": 1,
      "note": 111,
      "start": 70.2967,
      "duration": 0.0929,
      "velocity": 119,
      "chip": "ym2612"
    },
    {
      "channel": 5,
      "note": 38,
      "start": 70.3907,
      "duration": 0.0847,
      "velocity": 93,
      "chip": "ym2612"
    },
    {
      "channel": 1,
      "note": 63,
      "start": 70.3991,
      "duration": 0.0938,
      "velocity": 118,
      "chip": "ym2612"
    },
    {
      "channel": 0,
      "note": 73,
      "start": 70.4924,
      "duration": 0.1186,
      "velocity": 101,
      "chip": "ym2612"
    },
    {
      "channel": 2,
      "note": 85,
      "start": 70.4938,
      "duration": 0.1176,
      "velocity": 101,
      "chip": "ym2612"
    },
    {
      "channel": 3,
      "note": 56,
      "start": 70.4947,
      "duration": 0.1853,
      "velocity": 119,
      "chip": "ym2612"
    },
    {
      "channel": 5,
      "note": 49,
      "start": 70.4956,
      "duration": 0.1846,
      "velocity": 93,
      "chip": "ym2612"
    },
    {
      "channel": 1,
      "note": 38,
      "start": 70.5014,
      "duration": 0.1954,
      "velocity": 127,
      "chip": "ym2612"
    },
    {
      "channel": 0,
      "note": 72,
      "start": 70.6285,
      "duration": 0.1191,
      "velocity": 101,
      "chip": "ym2612"
    },
    {
      "channel": 2,
      "note": 84,
      "start": 70.6293,
      "duration": 0.1186,
      "velocity": 101,
      "chip": "ym2612"
    },
    {
      "channel": 3,
      "note": 56,
      "start": 70.6978,
      "duration": 0.0843,
      "velocity": 119,
      "chip": "ym2612"
    },
    {
      "channel": 5,
      "note": 49,
      "start": 70.6986,
      "duration": 0.0837,
      "velocity": 93,
      "chip": "ym2612"
    },
    {
      "channel": 1,
      "note": 105,
      "start": 70.7063,
      "duration": 0.0927,
      "velocity": 127,
      "chip": "ym2612"
    },
    {
      "channel": 0,
      "note": 71,
      "start": 70.765,
      "duration": 0.1193,
      "velocity": 101,
      "chip": "ym2612"
    },
    {
      "channel": 2,
      "note": 83,
      "start": 70.7657,
      "duration": 0.1191,
      "velocity": 101,
      "chip": "ym2612"
    },
    {
      "channel": 3,
      "note": 56,
      "start": 70.8002,
      "duration": 0.1875,
      "velocity": 119,
      "chip": "ym2612"
    },
    {
      "channel": 5,
      "note": 49,
      "start": 70.801,
      "duration": 0.1869,
      "velocity": 93,
      "chip": "ym2612"
    },
    {
      "channel": 1,
      "note": 38,
      "start": 70.8084,
      "duration": 0.0937,
      "velocity": 127,
      "chip": "ym2612"
    },
    {
      "channel": 0,
      "note": 70,
      "start": 70.9018,
      "duration": 0.1193,
      "velocity": 101,
      "chip": "ym2612"
    },
    {
      "channel": 2,
      "note": 82,
      "start": 70.9027,
      "duration": 0.1188,
      "velocity": 101,
      "chip": "ym2612"
    },
    {
      "channel": 1,
      "note": 38,
      "start": 70.9112,
      "duration": 0.1956,
      "velocity": 127,
      "chip": "ym2612"
    },
    {
      "channel": 3,
      "note": 56,
      "start": 71.0054,
      "duration": 0.0846,
      "velocity": 119,
      "chip": "ym2612"
    },
    {
      "channel": 5,
      "note": 49,
      "start": 71.0062,
      "duration": 0.084,
      "velocity": 93,
      "chip": "ym2612"
    },
    {
      "channel": 0,
      "note": 69,
      "start": 71.0386,
      "duration": 0.1191,
      "velocity": 101,
      "chip": "ym2612"
    },
    {
      "channel": 2,
      "note": 81,
      "start": 71.0394,
      "duration": 0.1186,
      "velocity": 101,
      "chip": "ym2612"
    },
    {
      "channel": 3,
      "note": 57,
      "start": 71.108,
      "duration": 0.0845,
      "velocity": 119,
      "chip": "ym2612"
    },
    {
      "channel": 5,
      "note": 48,
      "start": 71.1088,
      "duration": 0.084,
      "velocity": 93,
      "chip": "ym2612"
    },
    {
      "channel": 1,
      "note": 111,
      "start": 71.1163,
      "duration": 0.1958,
      "velocity": 119,
      "chip": "ym2612"
    },
    {
      "channel": 0,
      "note": 68,
      "start": 71.1754,
      "duration": 0.1189,
      "velocity": 101,
      "chip": "ym2612"
    },
    {
      "channel": 2,
      "note": 80,
      "start": 71.1762,
      "duration": 0.1185,
      "velocity": 101,
      "chip": "ym2612"
    },
    {
      "channel": 3,
      "note": 57,
      "start": 71.2102,
      "duration": 0.0847,
      "velocity": 119,
      "chip": "ym2612"
    },
    {
      "channel": 5,
      "note": 48,
      "start": 71.211,
      "duration": 0.0841,
      "velocity": 93,
      "chip": "ym2612"
    },
    {
      "channel": 0,
      "note": 67,
      "start": 71.3117,
      "duration": 0.119,
      "velocity": 101,
      "chip": "ym2612"
    },
    {
      "channel": 2,
      "note": 79,
      "start": 71.3127,
      "duration": 0.1185,
      "velocity": 101,
      "chip": "ym2612"
    },
    {
      "channel": 3,
      "note": 56,
      "start": 71.3138,
      "duration": 0.1857,
      "velocity": 119,
      "chip": "ym2612"
    },
    {
      "channel": 5,
      "note": 49,
      "start": 71.3147,
      "duration": 0.1851,
      "velocity": 93,
      "chip": "ym2612"
    },
    {
      "channel": 1,
      "note": 38,
      "start": 71.3213,
      "duration": 0.195,
      "velocity": 127,
      "chip": "ym2612"
    },
    {
      "channel": 0,
      "note": 66,
      "start": 71.4482,
      "duration": 0.119,
      "velocity": 101,
      "chip": "ym2612"
    },
    {
      "channel": 2,
      "note": 78,
      "start": 71.449,
      "duration": 0.1185,
      "velocity": 101,
      "chip": "ym2612"
    },
    {
      "channel": 3,
      "note": 56,
      "start": 71.5174,
      "duration": 0.0844,
      "velocity": 119,
      "chip": "ym2612"
    },
    {
      "channel": 5,
      "note": 49,
      "start": 71.5182,
      "duration": 0.0838,
      "velocity": 93,
      "chip": "ym2612"
    },
    {
      "channel": 1,
      "note": 105,
      "start": 71.5258,
      "duration": 0.0929,
      "velocity": 127,
      "chip": "ym2612"
    },
    {
      "channel": 0,
      "note": 65,
      "start": 71.5846,
      "duration": 0.1193,
      "velocity": 101,
      "chip": "ym2612"
    },
    {
      "channel": 2,
      "note": 77,
      "start": 71.5853,
      "duration": 0.119,
      "velocity": 101,
      "chip": "ym2612"
    },
    {
      "channel": 3,
      "note": 56,
      "start": 71.6198,
      "duration": 0.1867,
      "velocity": 119,
      "chip": "ym2612"
    },
    {
      "channel": 5,
      "note": 49,
      "start": 71.621,
      "duration": 0.1858,
      "velocity": 93,
      "chip": "ym2612"
    },
    {
      "channel": 1,
      "note": 38,
      "start": 71.6281,
      "duration": 0.0934,
      "velocity": 127,
      "chip": "ym2612"
    },
    {
      "channel": 0,
      "note": 64,
      "start": 71.7212,
      "duration": 0.1188,
      "velocity": 101,
      "chip": "ym2612"
    },
    {
      "channel": 2,
      "note": 76,
      "start": 71.7221,
      "duration": 0.1184,
      "velocity": 101,
      "chip": "ym2612"
    },
    {
      "channel": 1,
      "note": 38,
      "start": 71.7304,
      "duration": 0.1953,
      "velocity": 127,
      "chip": "ym2612"
    },
    {
      "channel": 3,
      "note": 56,
      "start": 71.8244,
      "duration": 0.0845,
      "velocity": 119,
      "chip": "ym2612"
    },
    {
      "channel": 5,
      "note": 49,
      "start": 71.8252,
      "duration": 0.0838,
      "velocity": 93,
      "chip": "ym2612"
    },
    {
      "channel": 0,
      "note": 63,
      "start": 71.8575,
      "duration": 0.119,
      "velocity": 101,
      "chip": "ym2612"
    },
    {
      "channel": 2,
      "note": 75,
      "start": 71.8583,
      "duration": 0.1186,
      "velocity": 101,
      "chip": "ym2612"
    },
    {
      "channel": 3,
      "note": 57,
      "start": 71.9268,
      "duration": 0.0843,
      "velocity": 119,
      "chip": "ym2612"
    },
    {
      "channel": 5,
      "note": 48,
      "start": 71.9277,
      "duration": 0.0837,
      "velocity": 93,
      "chip": "ym2612"
    },
    {
      "channel": 1,
      "note": 111,
      "start": 71.9351,
      "duration": 0.1959,
      "velocity": 119,
      "chip": "ym2612"
    },
    {
      "channel": 0,
      "note": 62,
      "start": 71.994,
      "duration": 0.1191,
      "velocity": 101,
      "chip": "ym2612"
    },
    {
      "channel": 2,
      "note": 74,
      "start": 71.9946,
      "duration": 0.1188,
      "velocity": 101,
      "chip": "ym2612"
    },
    {
      "channel": 3,
      "note": 57,
      "start": 72.0289,
      "duration": 0.0848,
      "velocity": 119,
      "chip": "ym2612"
    },
    {
      "channel": 5,
      "note": 48,
      "start": 72.0297,
      "duration": 0.0842,
      "velocity": 93,
      "chip": "ym2612"
    },
    {
      "channel": 0,
      "note": 61,
      "start": 72.1306,
      "duration": 0.1191,
      "velocity": 101,
      "chip": "ym2612"
    },
    {
      "channel": 2,
      "note": 73,
      "start": 72.1315,
      "duration": 0.1186,
      "velocity": 101,
      "chip": "ym2612"
    },
    {
      "channel": 3,
      "note": 56,
      "start": 72.1326,
      "duration": 0.1861,
      "velocity": 119,
      "chip": "ym2612"
    },
    {
      "channel": 5,
      "note": 49,
      "start": 72.1336,
      "duration": 0.1853,
      "velocity": 93,
      "chip": "ym2612"
    },
    {
      "channel": 1,
      "note": 38,
      "start": 72.1399,
      "duration": 0.1956,
      "velocity": 127,
      "chip": "ym2612"
    },
    {
      "channel": 0,
      "note": 60,
      "start": 72.2672,
      "duration": 0.1192,
      "velocity": 101,
      "chip": "ym2612"
    },
    {
      "channel": 2,
      "note": 72,
      "start": 72.268,
      "duration": 0.1187,
      "velocity": 101,
      "chip": "ym2612"
    },
    {
      "channel": 3,
      "note": 56,
      "start": 72.3366,
      "duration": 0.0847,
      "velocity": 119,
      "chip": "ym2612"
    },
    {
      "channel": 5,
      "note": 49,
      "start": 72.3377,
      "duration": 0.0838,
      "velocity": 93,
      "chip": "ym2612"
    },
    {
      "channel": 1,
      "note": 105,
      "start": 72.345,
      "duration": 0.0931,
      "velocity": 127,
      "chip": "ym2612"
    },
    {
      "channel": 0,
      "note": 59,
      "start": 72.4041,
      "duration": 0.119,
      "velocity": 101,
      "chip": "ym2612"
    },
    {
      "channel": 2,
      "note": 71,
      "start": 72.4048,
      "duration": 0.1188,
      "velocity": 101,
      "chip": "ym2612"
    },
    {
      "channel": 3,
      "note": 56,
      "start": 72.4392,
      "duration": 0.187,
      "velocity": 119,
      "chip": "ym2612"
    },
    {
      "channel": 5,
      "note": 49,
      "start": 72.4401,
      "duration": 0.1864,
      "velocity": 93,
      "chip": "ym2612"
    },
    {
      "channel": 1,
      "note": 38,
      "start": 72.4475,
      "duration": 0.0934,
      "velocity": 127,
      "chip": "ym2612"
    },
    {
      "channel": 0,
      "note": 58,
      "start": 72.5406,
      "duration": 0.1191,
      "velocity": 101,
      "chip": "ym2612"
    },
    {
      "channel": 2,
      "note": 70,
      "start": 72.5415,
      "duration": 0.1186,
      "velocity": 101,
      "chip": "ym2612"
    },
    {
      "channel": 1,
      "note": 38,
      "start": 72.55,
      "duration": 0.1954,
      "velocity": 127,
      "chip": "ym2612"
    },
    {
      "channel": 3,
      "note": 56,
      "start": 72.6439,
      "duration": 0.0846,
      "velocity": 119,
      "chip": "ym2612"
    },
    {
      "channel": 5,
      "note": 49,
      "start": 72.6448,
      "duration": 0.084,
      "velocity": 93,
      "chip": "ym2612"
    },
    {
      "channel": 0,
      "note": 57,
      "start": 72.6772,
      "duration": 0.119,
      "velocity": 101,
      "chip": "ym2612"
    },
    {
      "channel": 2,
      "note": 69,
      "start": 72.678,
      "duration": 0.1185,
      "velocity": 101,
      "chip": "ym2612"
    },
    {
      "channel": 3,
      "note": 57,
      "start": 72.7466,
      "duration": 0.0842,
      "velocity": 119,
      "chip": "ym2612"
    },
    {
      "channel": 5,
      "note": 48,
      "start": 72.7474,
      "duration": 0.0837,
      "velocity": 93,
      "chip": "ym2612"
    },
    {
      "channel": 1,
      "note": 111,
      "start": 72.7551,
      "duration": 0.1954,
      "velocity": 119,
      "chip": "ym2612"
    },
    {
      "channel": 0,
      "note": 56,
      "start": 72.8137,
      "duration": 0.119,
      "velocity": 101,
      "chip": "ym2612"
    },
    {
      "channel": 2,
      "note": 68,
      "start": 72.8144,
      "duration": 0.1186,
      "velocity": 101,
      "chip": "ym2612"
    },
    {
      "channel": 3,
      "note": 57,
      "start": 72.8486,
      "duration": 0.0847,
      "velocity": 119,
      "chip": "ym2612"
    },
    {
      "channel": 5,
      "note": 48,
      "start": 72.8494,
      "duration": 0.0841,
      "velocity": 93,
      "chip": "ym2612"
    },
    {
      "channel": 0,
      "note": 55,
      "start": 72.9501,
      "duration": 0.119,
      "velocity": 101,
      "chip": "ym2612"
    },
    {
      "channel": 2,
      "note": 67,
      "start": 72.9511,
      "duration": 0.1185,
      "velocity": 101,
      "chip": "ym2612"
    },
    {
      "channel": 3,
      "note": 60,
      "start": 72.9521,
      "duration": 0.186,
      "velocity": 119,
      "chip": "ym2612"
    },
    {
      "channel": 5,
      "note": 53,
      "start": 72.953,
      "duration": 0.1853,
      "velocity": 93,
      "chip": "ym2612"
    },
    {
      "channel": 1,
      "note": 38,
      "start": 72.9595,
      "duration": 0.1952,
      "velocity": 127,
      "chip": "ym2612"
    },
    {
      "channel": 0,
      "note": 54,
      "start": 73.0866,
      "duration": 0.119,
      "velocity": 101,
      "chip": "ym2612"
    },
    {
      "channel": 2,
      "note": 66,
      "start": 73.0876,
      "duration": 0.1183,
      "velocity": 101,
      "chip": "ym2612"
    },
    {
      "channel": 3,
      "note": 60,
      "start": 73.1558,
      "duration": 0.0845,
      "velocity": 119,
      "chip": "ym2612"
    },
    {
      "channel": 5,
      "note": 53,
      "start": 73.1566,
      "duration": 0.0839,
      "velocity": 93,
      "chip": "ym2612"
    },
    {
      "channel": 1,
      "note": 105,
      "start": 73.1642,
      "duration": 0.0929,
      "velocity": 127,
      "chip": "ym2612"
    },
    {
      "channel": 0,
      "note": 53,
      "start": 73.223,
      "duration": 0.119,
      "velocity": 101,
      "chip": "ym2612"
    },
    {
      "channel": 2,
      "note": 65,
      "start": 73.2237,
      "duration": 0.1188,
      "velocity": 101,
      "chip": "ym2612"
    },
    {
      "channel": 3,
      "note": 57,
      "start": 73.2582,
      "duration": 0.1867,
      "velocity": 119,
      "chip": "ym2612"
    },
    {
      "channel": 5,
      "note": 50,
      "start": 73.259,
      "duration": 0.1861,
      "velocity": 93,
      "chip": "ym2612"
    },
    {
      "channel": 1,
      "note": 38,
      "start": 73.2664,
      "duration": 0.0933,
      "velocity": 127,
      "chip": "ym2612"
    },
    {
      "channel": 0,
      "note": 52,
      "start": 73.3595,
      "duration": 0.119,
      "velocity": 101,
      "chip": "ym2612"
    },
    {
      "channel": 2,
      "note": 64,
      "start": 73.3603,
      "duration": 0.1186,
      "velocity": 101,
      "chip": "ym2612"
    },
    {
      "channel": 1,
      "note": 38,
      "start": 73.3688,
      "duration": 0.1952,
      "velocity": 127,
      "chip": "ym2612"
    },
    {
      "channel": 3,
      "note": 57,
      "start": 73.4626,
      "duration": 0.0847,
      "velocity": 119,
      "chip": "ym2612"
    },
    {
      "channel": 5,
      "note": 50,
      "start": 73.4635,
      "duration": 0.084,
      "velocity": 93,
      "chip": "ym2612"
    },
    {
      "channel": 0,
      "note": 51,
      "start": 73.4959,
      "duration": 0.119,
      "velocity": 101,
      "chip": "ym2612"
    },
    {
      "channel": 2,
      "note": 63,
      "start": 73.4967,
      "duration": 0.1185,
      "velocity": 101,
      "chip": "ym2612"
    },
    {
      "channel": 3,
      "note": 60,
      "start": 73.5651,
      "duration": 0.0844,
      "velocity": 119,
      "chip": "ym2612"
    },
    {
      "channel": 5,
      "note": 53,
      "start": 73.5659,
      "duration": 0.1864,
      "velocity": 93,
      "chip": "ym2612"
    },
    {
      "channel": 1,
      "note": 105,
      "start": 73.5735,
      "duration": 0.0929,
      "velocity": 127,
      "chip": "ym2612"
    },
    {
      "channel": 0,
      "note": 50,
      "start": 73.6323,
      "duration": 0.1192,
      "velocity": 101,
      "chip": "ym2612"
    },
    {
      "channel": 2,
      "note": 62,
      "start": 73.633,
      "duration": 0.1188,
      "velocity": 101,
      "chip": "ym2612"
    },
    {
      "channel": 3,
      "note": 60,
      "start": 73.6675,
      "duration": 0.0846,
      "velocity": 119,
      "chip": "ym2612"
    },
    {
      "channel": 1,
      "note": 105,
      "start": 73.6759,
      "duration": 0.0934,
      "velocity": 127,
      "chip": "ym2612"
    },
    {
      "channel": 0,
      "note": 37,
      "start": 73.769,
      "duration": 0.0852,
      "velocity": 101,
      "chip": "ym2612"
    },
    {
      "channel": 2,
      "note": 49,
      "start": 73.77,
      "duration": 0.0846,
      "velocity": 101,
      "chip": "ym2612"
    },
    {
      "channel": 3,
      "note": 44,
      "start": 73.7712,
      "duration": 0.7662,
      "velocity": 119,
      "chip": "ym2612"
    },
    {
      "channel": 5,
      "note": 37,
      "start": 73.7719,
      "duration": 0.0832,
      "velocity": 93,
      "chip": "ym2612"
    },
    {
      "channel": 1,
      "note": 38,
      "start": 73.7782,
      "duration": 0.0938,
      "velocity": 127,
      "chip": "ym2612"
    },
    {
      "channel": 0,
      "note": 37,
      "start": 73.8717,
      "duration": 0.0847,
      "velocity": 101,
      "chip": "ym2612"
    },
    {
      "channel": 2,
      "note": 49,
      "start": 73.8728,
      "duration": 0.084,
      "velocity": 101,
      "chip": "ym2612"
    },
    {
      "channel": 5,
      "note": 37,
      "start": 73.8737,
      "duration": 0.0836,
      "velocity": 93,
      "chip": "ym2612"
    },
    {
      "channel": 1,
      "note": 38,
      "start": 73.8807,
      "duration": 0.0937,
      "velocity": 127,
      "chip": "ym2612"
    },
    {
      "channel": 0,
      "note": 37,
      "start": 73.9741,
      "duration": 0.0847,
      "velocity": 101,
      "chip": "ym2612"
    },
    {
      "channel": 2,
      "note": 49,
      "start": 73.9752,
      "duration": 0.0841,
      "velocity": 101,
      "chip": "ym2612"
    },
    {
      "channel": 5,
      "note": 37,
      "start": 73.976,
      "duration": 0.0837,
      "velocity": 93,
      "chip": "ym2612"
    },
    {
      "channel": 1,
      "note": 38,
      "start": 73.9831,
      "duration": 0.0938,
      "velocity": 127,
      "chip": "ym2612"
    },
    {
      "channel": 0,
      "note": 37,
      "start": 74.0766,
      "duration": 0.0845,
      "velocity": 101,
      "chip": "ym2612"
    },
    {
      "channel": 2,
      "note": 49,
      "start": 74.0778,
      "duration": 0.0839,
      "velocity": 101,
      "chip": "ym2612"
    },
    {
      "channel": 5,
      "note": 37,
      "start": 74.0786,
      "duration": 0.0834,
      "velocity": 93,
      "chip": "ym2612"
    },
    {
      "channel": 1,
      "note": 38,
      "start": 74.0857,
      "duration": 0.0936,
      "velocity": 127,
      "chip": "ym2612"
    },
    {
      "channel": 0,
      "note": 37,
      "start": 74.1789,
      "duration": 0.0847,
      "velocity": 101,
      "chip": "ym2612"
    },
    {
      "channel": 2,
      "note": 49,
      "start": 74.18,
      "duration": 0.084,
      "velocity": 101,
      "chip": "ym2612"
    },
    {
      "channel": 5,
      "note": 37,
      "start": 74.1808,
      "duration": 0.0837,
      "velocity": 93,
      "chip": "ym2612"
    },
    {
      "channel": 1,
      "note": 38,
      "start": 74.1883,
      "duration": 0.0934,
      "velocity": 127,
      "chip": "ym2612"
    },
    {
      "channel": 0,
      "note": 37,
      "start": 74.2813,
      "duration": 0.0847,
      "velocity": 101,
      "chip": "ym2612"
    },
    {
      "channel": 2,
      "note": 49,
      "start": 74.2825,
      "duration": 0.084,
      "velocity": 101,
      "chip": "ym2612"
    },
    {
      "channel": 5,
      "note": 37,
      "start": 74.2833,
      "duration": 0.0836,
      "velocity": 93,
      "chip": "ym2612"
    },
    {
      "channel": 1,
      "note": 38,
      "start": 74.2904,
      "duration": 0.0937,
      "velocity": 127,
      "chip": "ym2612"
    },
    {
      "channel": 0,
      "note": 37,
      "start": 74.3838,
      "duration": 0.0845,
      "velocity": 101,
      "chip": "ym2612"
    },
    {
      "channel": 2,
      "note": 49,
      "start": 74.3849,
      "duration": 0.0839,
      "velocity": 101,
      "chip": "ym2612"
    },
    {
      "channel": 5,
      "note": 37,
      "start": 74.3857,
      "duration": 0.0835,
      "velocity": 93,
      "chip": "ym2612"
    },
    {
      "channel": 1,
      "note": 38,
      "start": 74.3929,
      "duration": 0.0935,
      "velocity": 127,
      "chip": "ym2612"
    },
    {
      "channel": 0,
      "note": 37,
      "start": 74.4861,
      "duration": 0.0848,
      "velocity": 101,
      "chip": "ym2612"
    },
    {
      "channel": 2,
      "note": 49,
      "start": 74.4875,
      "duration": 0.0838,
      "velocity": 101,
      "chip": "ym2612"
    },
    {
      "channel": 5,
      "note": 37,
      "start": 74.4883,
      "duration": 0.0834,
      "velocity": 93,
      "chip": "ym2612"
    },
    {
      "channel": 1,
      "note": 38,
      "start": 74.4951,
      "duration": 0.0936,
      "velocity": 127,
      "chip": "ym2612"
    },
    {
      "channel": 0,
      "note": 49,
      "start": 74.5884,
      "duration": 0.0847,
      "velocity": 101,
      "chip": "ym2612"
    },
    {
      "channel": 2,
      "note": 61,
      "start": 74.5896,
      "duration": 0.0839,
      "velocity": 101,
      "chip": "ym2612"
    },
    {
      "channel": 3,
      "note": 68,
      "start": 74.5902,
      "duration": 0.0151,
      "velocity": 119,
      "chip": "ym2612"
    },
    {
      "channel": 5,
      "note": 49,
      "start": 74.5909,
      "duration": 0.0832,
      "velocity": 93,
      "chip": "ym2612"
    },
    {
      "channel": 1,
      "note": 38,
      "start": 74.5975,
      "duration": 0.0936,
      "velocity": 127,
      "chip": "ym2612"
    },
    {
      "channel": 3,
      "note": 67,
      "start": 74.6229,
      "duration": 0.0167,
      "velocity": 119,
      "chip": "ym2612"
    },
    {
      "channel": 3,
      "note": 66,
      "start": 74.6571,
      "duration": 0.0167,
      "velocity": 119,
      "chip": "ym2612"
    },
    {
      "channel": 0,
      "note": 49,
      "start": 74.6908,
      "duration": 0.0847,
      "velocity": 101,
      "chip": "ym2612"
    },
    {
      "channel": 2,
      "note": 61,
      "start": 74.692,
      "duration": 0.084,
      "velocity": 101,
      "chip": "ym2612"
    },
    {
      "channel": 3,
      "note": 65,
      "start": 74.6925,
      "duration": 0.0153,
      "velocity": 119,
      "chip": "ym2612"
    },
    {
      "channel": 5,
      "note": 49,
      "start": 74.6932,
      "duration": 0.0833,
      "velocity": 93,
      "chip": "ym2612"
    },
    {
      "channel": 1,
      "note": 38,
      "start": 74.6999,
      "duration": 0.0938,
      "velocity": 127,
      "chip": "ym2612"
    },
    {
      "channel": 3,
      "note": 64,
      "start": 74.7253,
      "duration": 0.0167,
      "velocity": 119,
      "chip": "ym2612"
    },
    {
      "channel": 3,
      "note": 63,
      "start": 74.7595,
      "duration": 0.0167,
      "velocity": 119,
      "chip": "ym2612"
    },
    {
      "channel": 0,
      "note": 49,
      "start": 74.7934,
      "duration": 0.0846,
      "velocity": 101,
      "chip": "ym2612"
    },
    {
      "channel": 2,
      "note": 61,
      "start": 74.7944,
      "duration": 0.084,
      "velocity": 101,
      "chip": "ym2612"
    },
    {
      "channel": 3,
      "note": 62,
      "start": 74.795,
      "duration": 0.0152,
      "velocity": 119,
      "chip": "ym2612"
    },
    {
      "channel": 5,
      "note": 49,
      "start": 74.7956,
      "duration": 0.0833,
      "velocity": 93,
      "chip": "ym2612"
    },
    {
      "channel": 1,
      "note": 38,
      "start": 74.8023,
      "duration": 0.0936,
      "velocity": 127,
      "chip": "ym2612"
    },
    {
      "channel": 3,
      "note": 61,
      "start": 74.8277,
      "duration": 0.0167,
      "velocity": 119,
      "chip": "ym2612"
    },
    {
      "channel": 3,
      "note": 60,
      "start": 74.8619,
      "duration": 0.0168,
      "velocity": 119,
      "chip": "ym2612"
    },
    {
      "channel": 0,
      "note": 49,
      "start": 74.8956,
      "duration": 0.0847,
      "velocity": 101,
      "chip": "ym2612"
    },
    {
      "channel": 2,
      "note": 61,
      "start": 74.8968,
      "duration": 0.084,
      "velocity": 101,
      "chip": "ym2612"
    },
    {
      "channel": 3,
      "note": 59,
      "start": 74.8974,
      "duration": 0.0153,
      "velocity": 119,
      "chip": "ym2612"
    },
    {
      "channel": 5,
      "note": 49,
      "start": 74.8979,
      "duration": 0.0833,
      "velocity": 93,
      "chip": "ym2612"
    },
    {
      "channel": 1,
      "note": 38,
      "start": 74.9049,
      "duration": 0.0936,
      "velocity": 127,
      "chip": "ym2612"
    },
    {
      "channel": 3,
      "note": 58,
      "start": 74.9301,
      "duration": 0.0167,
      "velocity": 119,
      "chip": "ym2612"
    },
    {
      "channel": 3,
      "note": 57,
      "start": 74.9642,
      "duration": 0.0168,
      "velocity": 119,
      "chip": "ym2612"
    },
    {
      "channel": 0,
      "note": 61,
      "start": 74.9981,
      "duration": 0.0846,
      "velocity": 101,
      "chip": "ym2612"
    },
    {
      "channel": 2,
      "note": 73,
      "start": 74.9994,
      "duration": 0.0838,
      "velocity": 101,
      "chip": "ym2612"
    },
    {
      "channel": 3,
      "note": 56,
      "start": 75.0,
      "duration": 0.0151,
      "velocity": 119,
      "chip": "ym2612"
    },
    {
      "channel": 5,
      "note": 61,
      "start": 75.0006,
      "duration": 0.0831,
      "velocity": 93,
      "chip": "ym2612"
    },
    {
      "channel": 1,
      "note": 38,
      "start": 75.0072,
      "duration": 0.0588,
      "velocity": 127,
      "chip": "ym2612"
    },
    {
      "channel": 3,
      "note": 55,
      "start": 75.0326,
      "duration": 0.0167,
      "velocity": 119,
      "chip": "ym2612"
    },
    {
      "channel": 3,
      "note": 54,
      "start": 75.0667,
      "duration": 0.0167,
      "velocity": 119,
      "chip": "ym2612"
    },
    {
      "channel": 1,
      "note": 38,
      "start": 75.0754,
      "duration": 0.0589,
      "velocity": 127,
      "chip": "ym2612"
    },
    {
      "channel": 0,
      "note": 61,
      "start": 75.1005,
      "duration": 0.0847,
      "velocity": 101,
      "chip": "ym2612"
    },
    {
      "channel": 2,
      "note": 73,
      "start": 75.1016,
      "duration": 0.084,
      "velocity": 101,
      "chip": "ym2612"
    },
    {
      "channel": 3,
      "note": 53,
      "start": 75.1022,
      "duration": 0.0154,
      "velocity": 119,
      "chip": "ym2612"
    },
    {
      "channel": 5,
      "note": 61,
      "start": 75.1027,
      "duration": 0.0834,
      "velocity": 93,
      "chip": "ym2612"
    },
    {
      "channel": 3,
      "note": 52,
      "start": 75.1351,
      "duration": 0.0166,
      "velocity": 119,
      "chip": "ym2612"
    },
    {
      "channel": 1,
      "note": 38,
      "start": 75.1437,
      "duration": 0.0594,
      "velocity": 127,
      "chip": "ym2612"
    },
    {
      "channel": 3,
      "note": 51,
      "start": 75.1692,
      "duration": 0.0167,
      "velocity": 119,
      "chip": "ym2612"
    },
    {
      "channel": 0,
      "note": 61,
      "start": 75.2028,
      "duration": 0.0849,
      "velocity": 101,
      "chip": "ym2612"
    },
    {
      "channel": 2,
      "note": 73,
      "start": 75.2042,
      "duration": 0.084,
      "velocity": 101,
      "chip": "ym2612"
    },
    {
      "channel": 3,
      "note": 50,
      "start": 75.2048,
      "duration": 0.0151,
      "velocity": 119,
      "chip": "ym2612"
    },
    {
      "channel": 5,
      "note": 61,
      "start": 75.2054,
      "duration": 0.0833,
      "velocity": 93,
      "chip": "ym2612"
    },
    {
      "channel": 1,
      "note": 38,
      "start": 75.2119,
      "duration": 0.0592,
      "velocity": 127,
      "chip": "ym2612"
    },
    {
      "channel": 3,
      "note": 49,
      "start": 75.2376,
      "duration": 0.0167,
      "velocity": 119,
      "chip": "ym2612"
    },
    {
      "channel": 3,
      "note": 48,
      "start": 75.2718,
      "duration": 0.0167,
      "velocity": 119,
      "chip": "ym2612"
    },
    {
      "channel": 1,
      "note": 38,
      "start": 75.2805,
      "duration": 0.0588,
      "velocity": 127,
      "chip": "ym2612"
    },
    {
      "channel": 0,
      "note": 61,
      "start": 75.3055,
      "duration": 0.0847,
      "velocity": 101,
      "chip": "ym2612"
    },
    {
      "channel": 2,
      "note": 73,
      "start": 75.3066,
      "duration": 0.0841,
      "velocity": 101,
      "chip": "ym2612"
    },
    {
      "channel": 3,
      "note": 47,
      "start": 75.3072,
      "duration": 0.0153,
      "velocity": 119,
      "chip": "ym2612"
    },
    {
      "channel": 5,
      "note": 61,
      "start": 75.3077,
      "duration": 0.0835,
      "velocity": 93,
      "chip": "ym2612"
    },
    {
      "channel": 3,
      "note": 46,
      "start": 75.3401,
      "duration": 0.0166,
      "velocity": 119,
      "chip": "ym2612"
    },
    {
      "channel": 1,
      "note": 38,
      "start": 75.3487,
      "duration": 0.061,
      "velocity": 127,
      "chip": "ym2612"
    },
    {
      "channel": 3,
      "note": 45,
      "start": 75.3741,
      "duration": 0.0168,
      "velocity": 119,
      "chip": "ym2612"
    },
    {
      "channel": 0,
      "note": 80,
      "start": 75.4093,
      "duration": 0.0534,
      "velocity": 88,
      "chip": "ym2612"
    },
    {
      "channel": 2,
      "note": 92,
      "start": 75.4119,
      "duration": 0.0513,
      "velocity": 88,
      "chip": "ym2612"
    },
    {
      "channel": 3,
      "note": 81,
      "start": 75.4142,
      "duration": 0.0492,
      "velocity": 88,
      "chip": "ym2612"
    },
    {
      "channel": 1,
      "note": 38,
      "start": 75.4215,
      "duration": 0.6817,
      "velocity": 127,
      "chip": "ym2612"
    },
    {
      "channel": 0,
      "note": 79,
      "start": 75.4804,
      "duration": 0.0505,
      "velocity": 88,
      "chip": "ym2612"
    },
    {
      "channel": 2,
      "note": 91,
      "start": 75.4813,
      "duration": 0.0501,
      "velocity": 88,
      "chip": "ym2612"
    },
    {
      "channel": 3,
      "note": 80,
      "start": 75.482,
      "duration": 0.0496,
      "velocity": 88,
      "chip": "ym2612"
    },
    {
      "channel": 0,
      "note": 78,
      "start": 75.5485,
      "duration": 0.0508,
      "velocity": 88,
      "chip": "ym2612"
    },
    {
      "channel": 2,
      "note": 90,
      "start": 75.5494,
      "duration": 0.0502,
      "velocity": 88,
      "chip": "ym2612"
    },
    {
      "channel": 3,
      "note": 79,
      "start": 75.5501,
      "duration": 0.0498,
      "velocity": 88,
      "chip": "ym2612"
    },
    {
      "channel": 0,
      "note": 77,
      "start": 75.6168,
      "duration": 0.0509,
      "velocity": 88,
      "chip": "ym2612"
    },
    {
      "channel": 2,
      "note": 89,
      "start": 75.6177,
      "duration": 0.0504,
      "velocity": 88,
      "chip": "ym2612"
    },
    {
      "channel": 3,
      "note": 78,
      "start": 75.6184,
      "duration": 0.0499,
      "velocity": 88,
      "chip": "ym2612"
    },
    {
      "channel": 0,
      "note": 76,
      "start": 75.6852,
      "duration": 0.0508,
      "velocity": 88,
      "chip": "ym2612"
    },
    {
      "channel": 2,
      "note": 88,
      "start": 75.6861,
      "duration": 0.0503,
      "velocity": 88,
      "chip": "ym2612"
    },
    {
      "channel": 3,
      "note": 77,
      "start": 75.6868,
      "duration": 0.0499,
      "velocity": 88,
      "chip": "ym2612"
    },
    {
      "channel": 0,
      "note": 75,
      "start": 75.7539,
      "duration": 0.0505,
      "velocity": 88,
      "chip": "ym2612"
    },
    {
      "channel": 2,
      "note": 87,
      "start": 75.7548,
      "duration": 0.05,
      "velocity": 88,
      "chip": "ym2612"
    },
    {
      "channel": 3,
      "note": 76,
      "start": 75.7554,
      "duration": 0.0496,
      "velocity": 88,
      "chip": "ym2612"
    },
    {
      "channel": 0,
      "note": 74,
      "start": 75.822,
      "duration": 0.0507,
      "velocity": 88,
      "chip": "ym2612"
    },
    {
      "channel": 2,
      "note": 86,
      "start": 75.8229,
      "duration": 0.0502,
      "velocity": 88,
      "chip": "ym2612"
    },
    {
      "channel": 3,
      "note": 75,
      "start": 75.8237,
      "duration": 0.0498,
      "velocity": 88,
      "chip": "ym2612"
    },
    {
      "channel": 0,
      "note": 73,
      "start": 75.8902,
      "duration": 0.0508,
      "velocity": 88,
      "chip": "ym2612"
    },
    {
      "channel": 2,
      "note": 85,
      "start": 75.8911,
      "duration": 0.0503,
      "velocity": 88,
      "chip": "ym2612"
    },
    {
      "channel": 3,
      "note": 74,
      "start": 75.8918,
      "duration": 0.0499,
      "velocity": 88,
      "chip": "ym2612"
    },
    {
      "channel": 0,
      "note": 72,
      "start": 75.9586,
      "duration": 0.0508,
      "velocity": 88,
      "chip": "ym2612"
    },
    {
      "channel": 2,
      "note": 84,
      "start": 75.9595,
      "duration": 0.0503,
      "velocity": 88,
      "chip": "ym2612"
    },
    {
      "channel": 3,
      "note": 73,
      "start": 75.9602,
      "duration": 0.0499,
      "velocity": 88,
      "chip": "ym2612"
    },
    {
      "channel": 0,
      "note": 71,
      "start": 76.0269,
      "duration": 0.0506,
      "velocity": 88,
      "chip": "ym2612"
    },
    {
      "channel": 2,
      "note": 83,
      "start": 76.0278,
      "duration": 0.0501,
      "velocity": 88,
      "chip": "ym2612"
    },
    {
      "channel": 3,
      "note": 72,
      "start": 76.0285,
      "duration": 0.0497,
      "velocity": 88,
      "chip": "ym2612"
    },
    {
      "channel": 0,
      "note": 70,
      "start": 76.0951,
      "duration": 0.0506,
      "velocity": 88,
      "chip": "ym2612"
    },
    {
      "channel": 2,
      "note": 82,
      "start": 76.096,
      "duration": 0.05,
      "velocity": 88,
      "chip": "ym2612"
    },
    {
      "channel": 3,
      "note": 71,
      "start": 76.0967,
      "duration": 0.0495,
      "velocity": 88,
      "chip": "ym2612"
    },
    {
      "channel": 0,
      "note": 69,
      "start": 76.1633,
      "duration": 0.0508,
      "velocity": 88,
      "chip": "ym2612"
    },
    {
      "channel": 2,
      "note": 81,
      "start": 76.1641,
      "duration": 0.0503,
      "velocity": 88,
      "chip": "ym2612"
    },
    {
      "channel": 3,
      "note": 70,
      "start": 76.1648,
      "duration": 0.0498,
      "velocity": 88,
      "chip": "ym2612"
    },
    {
      "channel": 0,
      "note": 68,
      "start": 76.2319,
      "duration": 0.0504,
      "velocity": 88,
      "chip": "ym2612"
    },
    {
      "channel": 2,
      "note": 80,
      "start": 76.2327,
      "duration": 0.0499,
      "velocity": 88,
      "chip": "ym2612"
    },
    {
      "channel": 3,
      "note": 69,
      "start": 76.2334,
      "duration": 0.0494,
      "velocity": 88,
      "chip": "ym2612"
    },
    {
      "channel": 0,
      "note": 67,
      "start": 76.2999,
      "duration": 0.0508,
      "velocity": 88,
      "chip": "ym2612"
    },
    {
      "channel": 2,
      "note": 79,
      "start": 76.3007,
      "duration": 0.0504,
      "velocity": 88,
      "chip": "ym2612"
    },
    {
      "channel": 3,
      "note": 68,
      "start": 76.3014,
      "duration": 0.0499,
      "velocity": 88,
      "chip": "ym2612"
    },
    {
      "channel": 0,
      "note": 66,
      "start": 76.3683,
      "duration": 0.0505,
      "velocity": 88,
      "chip": "ym2612"
    },
    {
      "channel": 2,
      "note": 78,
      "start": 76.3691,
      "duration": 0.0501,
      "velocity": 88,
      "chip": "ym2612"
    },
    {
      "channel": 3,
      "note": 67,
      "start": 76.3698,
      "duration": 0.0495,
      "velocity": 88,
      "chip": "ym2612"
    },
    {
      "channel": 0,
      "note": 65,
      "start": 76.4364,
      "duration": 0.051,
      "velocity": 88,
      "chip": "ym2612"
    },
    {
      "channel": 2,
      "note": 77,
      "start": 76.4375,
      "duration": 0.0502,
      "velocity": 88,
      "chip": "ym2612"
    },
    {
      "channel": 3,
      "note": 66,
      "start": 76.4382,
      "duration": 0.0498,
      "velocity": 88,
      "chip": "ym2612"
    },
    {
      "channel": 0,
      "note": 64,
      "start": 76.5049,
      "duration": 0.0507,
      "velocity": 88,
      "chip": "ym2612"
    },
    {
      "channel": 2,
      "note": 76,
      "start": 76.5057,
      "duration": 0.0502,
      "velocity": 88,
      "chip": "ym2612"
    },
    {
      "channel": 3,
      "note": 65,
      "start": 76.5063,
      "duration": 0.0498,
      "velocity": 88,
      "chip": "ym2612"
    },
    {
      "channel": 0,
      "note": 63,
      "start": 76.5732,
      "duration": 0.0508,
      "velocity": 88,
      "chip": "ym2612"
    },
    {
      "channel": 2,
      "note": 75,
      "start": 76.574,
      "duration": 0.0504,
      "velocity": 88,
      "chip": "ym2612"
    },
    {
      "channel": 3,
      "note": 64,
      "start": 76.5746,
      "duration": 0.0499,
      "velocity": 88,
      "chip": "ym2612"
    },
    {
      "channel": 0,
      "note": 62,
      "start": 76.6416,
      "duration": 0.0508,
      "velocity": 88,
      "chip": "ym2612"
    },
    {
      "channel": 2,
      "note": 74,
      "start": 76.6424,
      "duration": 0.0504,
      "velocity": 88,
      "chip": "ym2612"
    },
    {
      "channel": 3,
      "note": 63,
      "start": 76.643,
      "duration": 0.0499,
      "velocity": 88,
      "chip": "ym2612"
    },
    {
      "channel": 0,
      "note": 61,
      "start": 76.71,
      "duration": 0.0508,
      "velocity": 88,
      "chip": "ym2612"
    },
    {
      "channel": 2,
      "note": 73,
      "start": 76.7108,
      "duration": 0.0503,
      "velocity": 88,
      "chip": "ym2612"
    },
    {
      "channel": 3,
      "note": 62,
      "start": 76.7114,
      "duration": 0.0499,
      "velocity": 88,
      "chip": "ym2612"
    },
    {
      "channel": 0,
      "note": 60,
      "start": 76.7783,
      "duration": 0.0509,
      "velocity": 88,
      "chip": "ym2612"
    },
    {
      "channel": 2,
      "note": 72,
      "start": 76.7791,
      "duration": 0.0505,
      "velocity": 88,
      "chip": "ym2612"
    },
    {
      "channel": 3,
      "note": 61,
      "start": 76.7798,
      "duration": 0.05,
      "velocity": 88,
      "chip": "ym2612"
    },
    {
      "channel": 0,
      "note": 59,
      "start": 76.8468,
      "duration": 0.0506,
      "velocity": 88,
      "chip": "ym2612"
    },
    {
      "channel": 2,
      "note": 71,
      "start": 76.8476,
      "duration": 0.0501,
      "velocity": 88,
      "chip": "ym2612"
    },
    {
      "channel": 3,
      "note": 60,
      "start": 76.8483,
      "duration": 0.0496,
      "velocity": 88,
      "chip": "ym2612"
    },
    {
      "channel": 0,
      "note": 58,
      "start": 76.9149,
      "duration": 0.0507,
      "velocity": 88,
      "chip": "ym2612"
    },
    {
      "channel": 2,
      "note": 70,
      "start": 76.9157,
      "duration": 0.0502,
      "velocity": 88,
      "chip": "ym2612"
    },
    {
      "channel": 3,
      "note": 59,
      "start": 76.9163,
      "duration": 0.0498,
      "velocity": 88,
      "chip": "ym2612"
    },
    {
      "channel": 0,
      "note": 57,
      "start": 76.9832,
      "duration": 0.0506,
      "velocity": 88,
      "chip": "ym2612"
    },
    {
      "channel": 2,
      "note": 69,
      "start": 76.9839,
      "duration": 0.0502,
      "velocity": 88,
      "chip": "ym2612"
    },
    {
      "channel": 3,
      "note": 58,
      "start": 76.9846,
      "duration": 0.0498,
      "velocity": 88,
      "chip": "ym2612"
    },
    {
      "channel": 0,
      "note": 61,
      "start": 77.0527,
      "duration": 0.0155,
      "velocity": 119,
      "chip": "ym2612"
    },
    {
      "channel": 2,
      "note": 42,
      "start": 77.0557,
      "duration": 0.0125,
      "velocity": 101,
      "chip": "ym2612"
    },
    {
      "channel": 3,
      "note": 90,
      "start": 77.0579,
      "duration": 0.0102,
      "velocity": 95,
      "chip": "ym2612"
    },
    {
      "channel": 5,
      "note": 52,
      "start": 77.0592,
      "duration": 0.009,
      "velocity": 93,
      "chip": "ym2612"
    },
    {
      "channel": 1,
      "note": 38,
      "start": 77.0648,
      "duration": 0.0034,
      "velocity": 127,
      "chip": "ym2612"
    }
  ]
}