{
  "track_name": "13 - Dance With Blindness",
  "duration_sec": 82.987,
  "sample_rate": 44100,
  "note_count": 1695,
  "unique_pitches": 40,
  "pitch_range": 48,
  "avg_note_duration": 0.2142,
  "reconstruction_stats": {
    "notes_reconstructed": 1695,
    "keyon_events": 1695,
    "keyoff_events": 1691,
    "orphan_keyons": 4,
    "unique_pitches": 40,
    "pitch_range": 48,
    "avg_duration_sec": 0.2142
  },
  "metadata": {
    "source": "D\\Dyna Brothers 2\\13 - Dance With Blindness.vgm"
  },
  "notes": [
    {
      "channel": 0,
      "note": 73,
      "start": 0.0,
      "duration": 0.0441,
      "velocity": 97,
      "chip": "ym2612"
    },
    {
      "channel": 1,
      "note": 92,
      "start": 0.0,
      "duration": 0.0,
      "velocity": 1,
      "chip": "ym2612"
    },
    {
      "channel": 2,
      "note": 71,
      "start": 0.0,
      "duration": 0.0,
      "velocity": 1,
      "chip": "ym2612"
    },
    {
      "channel": 3,
      "note": 68,
      "start": 0.0,
      "duration": 0.0,
      "velocity": 1,
      "chip": "ym2612"
    },
    {
      "channel": 4,
      "note": 52,
      "start": 0.0,
      "duration": 0.0,
      "velocity": 1,
      "chip": "ym2612"
    },
    {
      "channel": 5,
      "note": 57,
      "start": 0.0,
      "duration": 0.0,
      "velocity": 1,
      "chip": "ym2612"
    },
    {
      "channel": 1,
      "note": 61,
      "start": 0.0034,
      "duration": 0.0408,
      "velocity": 97,
      "chip": "ym2612"
    },
    {
      "channel": 5,
      "note": 56,
      "start": 0.0159,
      "duration": 0.0447,
      "velocity": 117,
      "chip": "ym2612"
    },
    {
      "channel": 0,
      "note": 74,
      "start": 0.0639,
      "duration": 0.1135,
      "velocity": 97,
      "chip": "ym2612"
    },
    {
      "channel": 1,
      "note": 62,
      "start": 0.0648,
      "duration": 0.1128,
      "velocity": 97,
      "chip": "ym2612"
    },
    {
      "channel": 5,
      "note": 56,
      "start": 0.0691,
      "duration": 0.1583,
      "velocity": 117,
      "chip": "ym2612"
    },
    {
      "channel": 0,
      "note": 76,
      "start": 0.2307,
      "duration": 0.0468,
      "velocity": 97,
      "chip": "ym2612"
    },
    {
      "channel": 1,
      "note": 64,
      "start": 0.2316,
      "duration": 0.046,
      "velocity": 97,
      "chip": "ym2612"
    },
    {
      "channel": 5,
      "note": 56,
      "start": 0.2359,
      "duration": 0.0581,
      "velocity": 117,
      "chip": "ym2612"
    },
    {
      "channel": 0,
      "note": 78,
      "start": 0.2975,
      "duration": 0.1133,
      "velocity": 97,
      "chip": "ym2612"
    },
    {
      "channel": 1,
      "note": 61,
      "start": 0.2986,
      "duration": 0.1123,
      "velocity": 97,
      "chip": "ym2612"
    },
    {
      "channel": 5,
      "note": 56,
      "start": 0.3029,
      "duration": 0.4595,
      "velocity": 117,
      "chip": "ym2612"
    },
    {
      "channel": 0,
      "note": 73,
      "start": 0.4614,
      "duration": 0.0494,
      "velocity": 97,
      "chip": "ym2612"
    },
    {
      "channel": 0,
      "note": 76,
      "start": 0.5281,
      "duration": 0.116,
      "velocity": 97,
      "chip": "ym2612"
    },
    {
      "channel": 0,
      "note": 73,
      "start": 0.6949,
      "duration": 0.0492,
      "velocity": 97,
      "chip": "ym2612"
    },
    {
      "channel": 1,
      "note": 57,
      "start": 0.6958,
      "duration": 0.0484,
      "velocity": 97,
      "chip": "ym2612"
    },
    {
      "channel": 0,
      "note": 81,
      "start": 0.7616,
      "duration": 0.116,
      "velocity": 97,
      "chip": "ym2612"
    },
    {
      "channel": 0,
      "note": 80,
      "start": 0.9281,
      "duration": 0.0494,
      "velocity": 97,
      "chip": "ym2612"
    },
    {
      "channel": 1,
      "note": 49,
      "start": 1.0121,
      "duration": 0.1156,
      "velocity": 97,
      "chip": "ym2612"
    },
    {
      "channel": 0,
      "note": 78,
      "start": 1.1615,
      "duration": 0.1826,
      "velocity": 97,
      "chip": "ym2612"
    },
    {
      "channel": 1,
      "note": 61,
      "start": 1.1625,
      "duration": 0.1817,
      "velocity": 97,
      "chip": "ym2612"
    },
    {
      "channel": 0,
      "note": 73,
      "start": 1.3972,
      "duration": 0.047,
      "velocity": 97,
      "chip": "ym2612"
    },
    {
      "channel": 5,
      "note": 56,
      "start": 1.4012,
      "duration": 0.0761,
      "velocity": 117,
      "chip": "ym2612"
    },
    {
      "channel": 0,
      "note": 76,
      "start": 1.4807,
      "duration": 0.1132,
      "velocity": 97,
      "chip": "ym2612"
    },
    {
      "channel": 1,
      "note": 45,
      "start": 1.4816,
      "duration": 0.1125,
      "velocity": 97,
      "chip": "ym2612"
    },
    {
      "channel": 5,
      "note": 56,
      "start": 1.4852,
      "duration": 0.2255,
      "velocity": 117,
      "chip": "ym2612"
    },
    {
      "channel": 0,
      "note": 73,
      "start": 1.6282,
      "duration": 0.0494,
      "velocity": 97,
      "chip": "ym2612"
    },
    {
      "channel": 1,
      "note": 57,
      "start": 1.6292,
      "duration": 0.0485,
      "velocity": 97,
      "chip": "ym2612"
    },
    {
      "channel": 0,
      "note": 76,
      "start": 1.714,
      "duration": 0.1134,
      "velocity": 97,
      "chip": "ym2612"
    },
    {
      "channel": 1,
      "note": 61,
      "start": 1.7149,
      "duration": 0.1127,
      "velocity": 97,
      "chip": "ym2612"
    },
    {
      "channel": 5,
      "note": 56,
      "start": 1.7185,
      "duration": 0.4588,
      "velocity": 117,
      "chip": "ym2612"
    },
    {
      "channel": 0,
      "note": 78,
      "start": 1.8614,
      "duration": 0.0494,
      "velocity": 97,
      "chip": "ym2612"
    },
    {
      "channel": 1,
      "note": 61,
      "start": 1.8623,
      "duration": 0.0486,
      "velocity": 97,
      "chip": "ym2612"
    },
    {
      "channel": 0,
      "note": 66,
      "start": 2.0948,
      "duration": 0.0493,
      "velocity": 97,
      "chip": "ym2612"
    },
    {
      "channel": 0,
      "note": 78,
      "start": 2.1809,
      "duration": 0.1132,
      "velocity": 97,
      "chip": "ym2612"
    },
    {
      "channel": 1,
      "note": 62,
      "start": 2.1819,
      "duration": 0.1123,
      "velocity": 97,
      "chip": "ym2612"
    },
    {
      "channel": 5,
      "note": 56,
      "start": 2.1862,
      "duration": 0.4595,
      "velocity": 117,
      "chip": "ym2612"
    },
    {
      "channel": 0,
      "note": 74,
      "start": 2.3281,
      "duration": 0.0494,
      "velocity": 97,
      "chip": "ym2612"
    },
    {
      "channel": 0,
      "note": 76,
      "start": 2.4115,
      "duration": 0.1157,
      "velocity": 97,
      "chip": "ym2612"
    },
    {
      "channel": 0,
      "note": 74,
      "start": 2.5782,
      "duration": 0.0492,
      "velocity": 97,
      "chip": "ym2612"
    },
    {
      "channel": 1,
      "note": 57,
      "start": 2.5792,
      "duration": 0.0484,
      "velocity": 97,
      "chip": "ym2612"
    },
    {
      "channel": 0,
      "note": 81,
      "start": 2.6449,
      "duration": 0.1158,
      "velocity": 97,
      "chip": "ym2612"
    },
    {
      "channel": 0,
      "note": 80,
      "start": 2.8115,
      "duration": 0.049,
      "velocity": 97,
      "chip": "ym2612"
    },
    {
      "channel": 1,
      "note": 50,
      "start": 2.8786,
      "duration": 0.1158,
      "velocity": 97,
      "chip": "ym2612"
    },
    {
      "channel": 0,
      "note": 78,
      "start": 3.0473,
      "duration": 0.1801,
      "velocity": 97,
      "chip": "ym2612"
    },
    {
      "channel": 1,
      "note": 62,
      "start": 3.0483,
      "duration": 0.1793,
      "velocity": 97,
      "chip": "ym2612"
    },
    {
      "channel": 5,
      "note": 56,
      "start": 3.0519,
      "duration": 0.2255,
      "velocity": 117,
      "chip": "ym2612"
    },
    {
      "channel": 0,
      "note": 74,
      "start": 3.2807,
      "duration": 0.0466,
      "velocity": 97,
      "chip": "ym2612"
    },
    {
      "channel": 5,
      "note": 56,
      "start": 3.2847,
      "duration": 0.0593,
      "velocity": 117,
      "chip": "ym2612"
    },
    {
      "channel": 0,
      "note": 76,
      "start": 3.3473,
      "duration": 0.1134,
      "velocity": 97,
      "chip": "ym2612"
    },
    {
      "channel": 1,
      "note": 45,
      "start": 3.3483,
      "duration": 0.1126,
      "velocity": 97,
      "chip": "ym2612"
    },
    {
      "channel": 5,
      "note": 56,
      "start": 3.3519,
      "duration": 0.2421,
      "velocity": 117,
      "chip": "ym2612"
    },
    {
      "channel": 0,
      "note": 74,
      "start": 3.5115,
      "duration": 0.0492,
      "velocity": 97,
      "chip": "ym2612"
    },
    {
      "channel": 1,
      "note": 57,
      "start": 3.5125,
      "duration": 0.0484,
      "velocity": 97,
      "chip": "ym2612"
    },
    {
      "channel": 0,
      "note": 76,
      "start": 3.5972,
      "duration": 0.1135,
      "velocity": 97,
      "chip": "ym2612"
    },
    {
      "channel": 1,
      "note": 62,
      "start": 3.5981,
      "duration": 0.1128,
      "velocity": 97,
      "chip": "ym2612"
    },
    {
      "channel": 5,
      "note": 56,
      "start": 3.6017,
      "duration": 0.4588,
      "velocity": 117,
      "chip": "ym2612"
    },
    {
      "channel": 0,
      "note": 78,
      "start": 3.7449,
      "duration": 0.049,
      "velocity": 97,
      "chip": "ym2612"
    },
    {
      "channel": 1,
      "note": 62,
      "start": 3.7458,
      "duration": 0.0483,
      "velocity": 97,
      "chip": "ym2612"
    },
    {
      "channel": 0,
      "note": 66,
      "start": 3.9781,
      "duration": 0.0494,
      "velocity": 97,
      "chip": "ym2612"
    },
    {
      "channel": 0,
      "note": 80,
      "start": 4.0639,
      "duration": 0.1135,
      "velocity": 97,
      "chip": "ym2612"
    },
    {
      "channel": 1,
      "note": 64,
      "start": 4.0648,
      "duration": 0.1128,
      "velocity": 97,
      "chip": "ym2612"
    },
    {
      "channel": 5,
      "note": 56,
      "start": 4.0691,
      "duration": 0.4581,
      "velocity": 117,
      "chip": "ym2612"
    },
    {
      "channel": 0,
      "note": 76,
      "start": 4.2115,
      "duration": 0.049,
      "velocity": 97,
      "chip": "ym2612"
    },
    {
      "channel": 0,
      "note": 78,
      "start": 4.2949,
      "duration": 0.1159,
      "velocity": 97,
      "chip": "ym2612"
    },
    {
      "channel": 0,
      "note": 76,
      "start": 4.4449,
      "duration": 0.0492,
      "velocity": 97,
      "chip": "ym2612"
    },
    {
      "channel": 1,
      "note": 59,
      "start": 4.4458,
      "duration": 0.0484,
      "velocity": 97,
      "chip": "ym2612"
    },
    {
      "channel": 0,
      "note": 83,
      "start": 4.5306,
      "duration": 0.1135,
      "velocity": 97,
      "chip": "ym2612"
    },
    {
      "channel": 5,
      "note": 56,
      "start": 4.5346,
      "duration": 0.3761,
      "velocity": 117,
      "chip": "ym2612"
    },
    {
      "channel": 0,
      "note": 81,
      "start": 4.6783,
      "duration": 0.049,
      "velocity": 97,
      "chip": "ym2612"
    },
    {
      "channel": 1,
      "note": 52,
      "start": 4.762,
      "duration": 0.1159,
      "velocity": 97,
      "chip": "ym2612"
    },
    {
      "channel": 0,
      "note": 80,
      "start": 4.914,
      "duration": 0.1801,
      "velocity": 97,
      "chip": "ym2612"
    },
    {
      "channel": 1,
      "note": 64,
      "start": 4.9149,
      "duration": 0.1793,
      "velocity": 97,
      "chip": "ym2612"
    },
    {
      "channel": 5,
      "note": 56,
      "start": 4.9185,
      "duration": 0.3088,
      "velocity": 117,
      "chip": "ym2612"
    },
    {
      "channel": 0,
      "note": 76,
      "start": 5.1615,
      "duration": 0.0492,
      "velocity": 97,
      "chip": "ym2612"
    },
    {
      "channel": 0,
      "note": 78,
      "start": 5.2307,
      "duration": 0.1134,
      "velocity": 97,
      "chip": "ym2612"
    },
    {
      "channel": 1,
      "note": 47,
      "start": 5.2316,
      "duration": 0.1127,
      "velocity": 97,
      "chip": "ym2612"
    },
    {
      "channel": 5,
      "note": 56,
      "start": 5.2352,
      "duration": 0.2254,
      "velocity": 117,
      "chip": "ym2612"
    },
    {
      "channel": 0,
      "note": 76,
      "start": 5.3947,
      "duration": 0.0494,
      "velocity": 97,
      "chip": "ym2612"
    },
    {
      "channel": 1,
      "note": 59,
      "start": 5.3956,
      "duration": 0.0486,
      "velocity": 97,
      "chip": "ym2612"
    },
    {
      "channel": 0,
      "note": 78,
      "start": 5.4639,
      "duration": 0.1135,
      "velocity": 97,
      "chip": "ym2612"
    },
    {
      "channel": 1,
      "note": 64,
      "start": 5.4648,
      "duration": 0.1128,
      "velocity": 97,
      "chip": "ym2612"
    },
    {
      "channel": 5,
      "note": 56,
      "start": 5.4684,
      "duration": 0.4588,
      "velocity": 117,
      "chip": "ym2612"
    },
    {
      "channel": 0,
      "note": 80,
      "start": 5.6282,
      "duration": 0.0492,
      "velocity": 97,
      "chip": "ym2612"
    },
    {
      "channel": 1,
      "note": 64,
      "start": 5.6292,
      "duration": 0.0484,
      "velocity": 97,
      "chip": "ym2612"
    },
    {
      "channel": 0,
      "note": 80,
      "start": 5.8613,
      "duration": 0.0495,
      "velocity": 97,
      "chip": "ym2612"
    },
    {
      "channel": 0,
      "note": 81,
      "start": 5.9307,
      "duration": 0.18,
      "velocity": 97,
      "chip": "ym2612"
    },
    {
      "channel": 1,
      "note": 66,
      "start": 5.9318,
      "duration": 0.1791,
      "velocity": 97,
      "chip": "ym2612"
    },
    {
      "channel": 5,
      "note": 56,
      "start": 5.9361,
      "duration": 0.4746,
      "velocity": 117,
      "chip": "ym2612"
    },
    {
      "channel": 0,
      "note": 81,
      "start": 6.1782,
      "duration": 0.1159,
      "velocity": 97,
      "chip": "ym2612"
    },
    {
      "channel": 1,
      "note": 66,
      "start": 6.1792,
      "duration": 0.1151,
      "velocity": 97,
      "chip": "ym2612"
    },
    {
      "channel": 0,
      "note": 81,
      "start": 6.4139,
      "duration": 0.1133,
      "velocity": 97,
      "chip": "ym2612"
    },
    {
      "channel": 1,
      "note": 66,
      "start": 6.4148,
      "duration": 0.1127,
      "velocity": 97,
      "chip": "ym2612"
    },
    {
      "channel": 5,
      "note": 48,
      "start": 6.4184,
      "duration": 0.3755,
      "velocity": 127,
      "chip": "ym2612"
    },
    {
      "channel": 0,
      "note": 73,
      "start": 6.5615,
      "duration": 0.0494,
      "velocity": 97,
      "chip": "ym2612"
    },
    {
      "channel": 1,
      "note": 66,
      "start": 6.5625,
      "duration": 0.0485,
      "velocity": 97,
      "chip": "ym2612"
    },
    {
      "channel": 0,
      "note": 81,
      "start": 6.6449,
      "duration": 0.1158,
      "velocity": 97,
      "chip": "ym2612"
    },
    {
      "channel": 1,
      "note": 66,
      "start": 6.6458,
      "duration": 0.1151,
      "velocity": 97,
      "chip": "ym2612"
    },
    {
      "channel": 0,
      "note": 80,
      "start": 6.7972,
      "duration": 0.8303,
      "velocity": 97,
      "chip": "ym2612"
    },
    {
      "channel": 1,
      "note": 61,
      "start": 6.7981,
      "duration": 0.8296,
      "velocity": 97,
      "chip": "ym2612"
    },
    {
      "channel": 5,
      "note": 56,
      "start": 6.8017,
      "duration": 0.2256,
      "velocity": 117,
      "chip": "ym2612"
    },
    {
      "channel": 5,
      "note": 56,
      "start": 7.0343,
      "duration": 0.2263,
      "velocity": 117,
      "chip": "ym2612"
    },
    {
      "channel": 5,
      "note": 48,
      "start": 7.2675,
      "duration": 0.0765,
      "velocity": 127,
      "chip": "ym2612"
    },
    {
      "channel": 5,
      "note": 48,
      "start": 7.351,
      "duration": 0.2264,
      "velocity": 127,
      "chip": "ym2612"
    },
    {
      "channel": 2,
      "note": 65,
      "start": 7.4959,
      "duration": 0.0491,
      "velocity": 117,
      "chip": "ym2612"
    },
    {
      "channel": 3,
      "note": 61,
      "start": 7.4968,
      "duration": 0.0483,
      "velocity": 117,
      "chip": "ym2612"
    },
    {
      "channel": 2,
      "note": 65,
      "start": 7.5816,
      "duration": 0.1134,
      "velocity": 117,
      "chip": "ym2612"
    },
    {
      "channel": 3,
      "note": 61,
      "start": 7.5825,
      "duration": 0.1127,
      "velocity": 117,
      "chip": "ym2612"
    },
    {
      "channel": 5,
      "note": 48,
      "start": 7.586,
      "duration": 0.225,
      "velocity": 127,
      "chip": "ym2612"
    },
    {
      "channel": 2,
      "note": 65,
      "start": 7.7458,
      "duration": 0.049,
      "velocity": 117,
      "chip": "ym2612"
    },
    {
      "channel": 3,
      "note": 61,
      "start": 7.7467,
      "duration": 0.0482,
      "velocity": 117,
      "chip": "ym2612"
    },
    {
      "channel": 0,
      "note": 78,
      "start": 7.8145,
      "duration": 0.1128,
      "velocity": 97,
      "chip": "ym2612"
    },
    {
      "channel": 1,
      "note": 61,
      "start": 7.8156,
      "duration": 0.1119,
      "velocity": 97,
      "chip": "ym2612"
    },
    {
      "channel": 2,
      "note": 66,
      "start": 7.8165,
      "duration": 1.3951,
      "velocity": 117,
      "chip": "ym2612"
    },
    {
      "channel": 3,
      "note": 61,
      "start": 7.8174,
      "duration": 1.3944,
      "velocity": 117,
      "chip": "ym2612"
    },
    {
      "channel": 4,
      "note": 54,
      "start": 7.8183,
      "duration": 0.1775,
      "velocity": 94,
      "chip": "ym2612"
    },
    {
      "channel": 5,
      "note": 56,
      "start": 7.8217,
      "duration": 0.1557,
      "velocity": 117,
      "chip": "ym2612"
    },
    {
      "channel": 0,
      "note": 73,
      "start": 7.9807,
      "duration": 0.0468,
      "velocity": 97,
      "chip": "ym2612"
    },
    {
      "channel": 5,
      "note": 57,
      "start": 7.9858,
      "duration": 0.0583,
      "velocity": 115,
      "chip": "ym2612"
    },
    {
      "channel": 0,
      "note": 76,
      "start": 8.0473,
      "duration": 0.1134,
      "velocity": 97,
      "chip": "ym2612"
    },
    {
      "channel": 5,
      "note": 57,
      "start": 8.0524,
      "duration": 0.1583,
      "velocity": 115,
      "chip": "ym2612"
    },
    {
      "channel": 0,
      "note": 73,
      "start": 8.214,
      "duration": 0.0466,
      "velocity": 97,
      "chip": "ym2612"
    },
    {
      "channel": 1,
      "note": 57,
      "start": 8.2149,
      "duration": 0.0459,
      "velocity": 97,
      "chip": "ym2612"
    },
    {
      "channel": 5,
      "note": 57,
      "start": 8.2195,
      "duration": 0.0579,
      "velocity": 115,
      "chip": "ym2612"
    },
    {
      "channel": 0,
      "note": 81,
      "start": 8.2807,
      "duration": 0.1132,
      "velocity": 97,
      "chip": "ym2612"
    },
    {
      "channel": 4,
      "note": 49,
      "start": 8.2827,
      "duration": 0.1797,
      "velocity": 94,
      "chip": "ym2612"
    },
    {
      "channel": 5,
      "note": 48,
      "start": 8.2861,
      "duration": 0.2412,
      "velocity": 127,
      "chip": "ym2612"
    },
    {
      "channel": 0,
      "note": 80,
      "start": 8.4449,
      "duration": 0.0492,
      "velocity": 97,
      "chip": "ym2612"
    },
    {
      "channel": 1,
      "note": 49,
      "start": 8.5309,
      "duration": 0.1136,
      "velocity": 97,
      "chip": "ym2612"
    },
    {
      "channel": 5,
      "note": 57,
      "start": 8.5355,
      "duration": 0.1419,
      "velocity": 115,
      "chip": "ym2612"
    },
    {
      "channel": 0,
      "note": 78,
      "start": 8.6807,
      "duration": 0.18,
      "velocity": 97,
      "chip": "ym2612"
    },
    {
      "channel": 1,
      "note": 61,
      "start": 8.6816,
      "duration": 0.1793,
      "velocity": 97,
      "chip": "ym2612"
    },
    {
      "channel": 4,
      "note": 52,
      "start": 8.6833,
      "duration": 0.2324,
      "velocity": 94,
      "chip": "ym2612"
    },
    {
      "channel": 5,
      "note": 56,
      "start": 8.6866,
      "duration": 0.0741,
      "velocity": 117,
      "chip": "ym2612"
    },
    {
      "channel": 5,
      "note": 57,
      "start": 8.769,
      "duration": 0.1417,
      "velocity": 115,
      "chip": "ym2612"
    },
    {
      "channel": 0,
      "note": 73,
      "start": 8.914,
      "duration": 0.0469,
      "velocity": 97,
      "chip": "ym2612"
    },
    {
      "channel": 4,
      "note": 54,
      "start": 8.9162,
      "duration": 0.0461,
      "velocity": 94,
      "chip": "ym2612"
    },
    {
      "channel": 5,
      "note": 56,
      "start": 8.9195,
      "duration": 0.0744,
      "velocity": 117,
      "chip": "ym2612"
    },
    {
      "channel": 0,
      "note": 76,
      "start": 8.9972,
      "duration": 0.1135,
      "velocity": 97,
      "chip": "ym2612"
    },
    {
      "channel": 1,
      "note": 45,
      "start": 8.9981,
      "duration": 0.1128,
      "velocity": 97,
      "chip": "ym2612"
    },
    {
      "channel": 4,
      "note": 57,
      "start": 8.9998,
      "duration": 0.1796,
      "velocity": 94,
      "chip": "ym2612"
    },
    {
      "channel": 5,
      "note": 56,
      "start": 9.0032,
      "duration": 0.2242,
      "velocity": 117,
      "chip": "ym2612"
    },
    {
      "channel": 0,
      "note": 73,
      "start": 9.1449,
      "duration": 0.0492,
      "velocity": 97,
      "chip": "ym2612"
    },
    {
      "channel": 1,
      "note": 57,
      "start": 9.1458,
      "duration": 0.0483,
      "velocity": 97,
      "chip": "ym2612"
    },
    {
      "channel": 0,
      "note": 76,
      "start": 9.2307,
      "duration": 0.1134,
      "velocity": 97,
      "chip": "ym2612"
    },
    {
      "channel": 1,
      "note": 61,
      "start": 9.2316,
      "duration": 0.1127,
      "velocity": 97,
      "chip": "ym2612"
    },
    {
      "channel": 4,
      "note": 56,
      "start": 9.2332,
      "duration": 0.1795,
      "velocity": 94,
      "chip": "ym2612"
    },
    {
      "channel": 5,
      "note": 48,
      "start": 9.2365,
      "duration": 0.2241,
      "velocity": 127,
      "chip": "ym2612"
    },
    {
      "channel": 0,
      "note": 78,
      "start": 9.3782,
      "duration": 0.0492,
      "velocity": 97,
      "chip": "ym2612"
    },
    {
      "channel": 1,
      "note": 61,
      "start": 9.3792,
      "duration": 0.0484,
      "velocity": 97,
      "chip": "ym2612"
    },
    {
      "channel": 2,
      "note": 66,
      "start": 9.4647,
      "duration": 0.1136,
      "velocity": 117,
      "chip": "ym2612"
    },
    {
      "channel": 3,
      "note": 61,
      "start": 9.4656,
      "duration": 0.1129,
      "velocity": 117,
      "chip": "ym2612"
    },
    {
      "channel": 4,
      "note": 52,
      "start": 9.4663,
      "duration": 0.1793,
      "velocity": 94,
      "chip": "ym2612"
    },
    {
      "channel": 5,
      "note": 57,
      "start": 9.4697,
      "duration": 0.141,
      "velocity": 115,
      "chip": "ym2612"
    },
    {
      "channel": 0,
      "note": 66,
      "start": 9.6139,
      "duration": 0.0466,
      "velocity": 97,
      "chip": "ym2612"
    },
    {
      "channel": 2,
      "note": 66,
      "start": 9.6152,
      "duration": 0.0457,
      "velocity": 117,
      "chip": "ym2612"
    },
    {
      "channel": 3,
      "note": 61,
      "start": 9.6161,
      "duration": 0.0449,
      "velocity": 117,
      "chip": "ym2612"
    },
    {
      "channel": 5,
      "note": 57,
      "start": 9.6198,
      "duration": 0.0746,
      "velocity": 115,
      "chip": "ym2612"
    },
    {
      "channel": 0,
      "note": 78,
      "start": 9.6978,
      "duration": 0.113,
      "velocity": 97,
      "chip": "ym2612"
    },
    {
      "channel": 1,
      "note": 62,
      "start": 9.6988,
      "duration": 0.1121,
      "velocity": 97,
      "chip": "ym2612"
    },
    {
      "channel": 2,
      "note": 66,
      "start": 9.6997,
      "duration": 1.4153,
      "velocity": 117,
      "chip": "ym2612"
    },
    {
      "channel": 3,
      "note": 62,
      "start": 9.7006,
      "duration": 1.4153,
      "velocity": 117,
      "chip": "ym2612"
    },
    {
      "channel": 4,
      "note": 50,
      "start": 9.7016,
      "duration": 0.1104,
      "velocity": 94,
      "chip": "ym2612"
    },
    {
      "channel": 5,
      "note": 56,
      "start": 9.705,
      "duration": 0.139,
      "velocity": 117,
      "chip": "ym2612"
    },
    {
      "channel": 0,
      "note": 74,
      "start": 9.8473,
      "duration": 0.0468,
      "velocity": 97,
      "chip": "ym2612"
    },
    {
      "channel": 5,
      "note": 57,
      "start": 9.8523,
      "duration": 0.0749,
      "velocity": 115,
      "chip": "ym2612"
    },
    {
      "channel": 0,
      "note": 76,
      "start": 9.9306,
      "duration": 0.1135,
      "velocity": 97,
      "chip": "ym2612"
    },
    {
      "channel": 4,
      "note": 52,
      "start": 9.9327,
      "duration": 0.1798,
      "velocity": 94,
      "chip": "ym2612"
    },
    {
      "channel": 5,
      "note": 57,
      "start": 9.9361,
      "duration": 0.1413,
      "velocity": 115,
      "chip": "ym2612"
    },
    {
      "channel": 0,
      "note": 74,
      "start": 10.0807,
      "duration": 0.0466,
      "velocity": 97,
      "chip": "ym2612"
    },
    {
      "channel": 1,
      "note": 57,
      "start": 10.0816,
      "duration": 0.0459,
      "velocity": 97,
      "chip": "ym2612"
    },
    {
      "channel": 5,
      "note": 57,
      "start": 10.0861,
      "duration": 0.0746,
      "velocity": 115,
      "chip": "ym2612"
    },
    {
      "channel": 0,
      "note": 81,
      "start": 10.164,
      "duration": 0.1134,
      "velocity": 97,
      "chip": "ym2612"
    },
    {
      "channel": 4,
      "note": 54,
      "start": 10.1661,
      "duration": 0.1798,
      "velocity": 94,
      "chip": "ym2612"
    },
    {
      "channel": 5,
      "note": 48,
      "start": 10.1694,
      "duration": 0.2245,
      "velocity": 127,
      "chip": "ym2612"
    },
    {
      "channel": 0,
      "note": 80,
      "start": 10.3281,
      "duration": 0.0494,
      "velocity": 97,
      "chip": "ym2612"
    },
    {
      "channel": 1,
      "note": 50,
      "start": 10.3976,
      "duration": 0.1137,
      "velocity": 97,
      "chip": "ym2612"
    },
    {
      "channel": 4,
      "note": 50,
      "start": 10.3994,
      "duration": 0.1129,
      "velocity": 94,
      "chip": "ym2612"
    },
    {
      "channel": 5,
      "note": 57,
      "start": 10.4028,
      "duration": 0.1579,
      "velocity": 115,
      "chip": "ym2612"
    },
    {
      "channel": 0,
      "note": 78,
      "start": 10.564,
      "duration": 0.1801,
      "velocity": 97,
      "chip": "ym2612"
    },
    {
      "channel": 1,
      "note": 62,
      "start": 10.5649,
      "duration": 0.1793,
      "velocity": 97,
      "chip": "ym2612"
    },
    {
      "channel": 4,
      "note": 64,
      "start": 10.5666,
      "duration": 0.2969,
      "velocity": 94,
      "chip": "ym2612"
    },
    {
      "channel": 5,
      "note": 56,
      "start": 10.5699,
      "duration": 0.0574,
      "velocity": 117,
      "chip": "ym2612"
    },
    {
      "channel": 5,
      "note": 57,
      "start": 10.6356,
      "duration": 0.1583,
      "velocity": 115,
      "chip": "ym2612"
    },
    {
      "channel": 0,
      "note": 74,
      "start": 10.7972,
      "duration": 0.0469,
      "velocity": 97,
      "chip": "ym2612"
    },
    {
      "channel": 5,
      "note": 56,
      "start": 10.8023,
      "duration": 0.2251,
      "velocity": 117,
      "chip": "ym2612"
    },
    {
      "channel": 0,
      "note": 76,
      "start": 10.8614,
      "duration": 0.116,
      "velocity": 97,
      "chip": "ym2612"
    },
    {
      "channel": 1,
      "note": 45,
      "start": 10.8623,
      "duration": 0.1153,
      "velocity": 97,
      "chip": "ym2612"
    },
    {
      "channel": 4,
      "note": 57,
      "start": 10.8641,
      "duration": 0.1818,
      "velocity": 94,
      "chip": "ym2612"
    },
    {
      "channel": 0,
      "note": 74,
      "start": 11.0307,
      "duration": 0.0468,
      "velocity": 97,
      "chip": "ym2612"
    },
    {
      "channel": 1,
      "note": 57,
      "start": 11.0316,
      "duration": 0.046,
      "velocity": 97,
      "chip": "ym2612"
    },
    {
      "channel": 5,
      "note": 56,
      "start": 11.0361,
      "duration": 0.0746,
      "velocity": 117,
      "chip": "ym2612"
    },
    {
      "channel": 0,
      "note": 76,
      "start": 11.114,
      "duration": 0.1134,
      "velocity": 97,
      "chip": "ym2612"
    },
    {
      "channel": 1,
      "note": 62,
      "start": 11.1149,
      "duration": 0.1127,
      "velocity": 97,
      "chip": "ym2612"
    },
    {
      "channel": 2,
      "note": 69,
      "start": 11.1157,
      "duration": 0.466,
      "velocity": 117,
      "chip": "ym2612"
    },
    {
      "channel": 3,
      "note": 66,
      "start": 11.1166,
      "duration": 0.4659,
      "velocity": 117,
      "chip": "ym2612"
    },
    {
      "channel": 4,
      "note": 54,
      "start": 11.1174,
      "duration": 0.1112,
      "velocity": 94,
      "chip": "ym2612"
    },
    {
      "channel": 5,
      "note": 48,
      "start": 11.1208,
      "duration": 0.2232,
      "velocity": 127,
      "chip": "ym2612"
    },
    {
      "channel": 0,
      "note": 78,
      "start": 11.2614,
      "duration": 0.0494,
      "velocity": 97,
      "chip": "ym2612"
    },
    {
      "channel": 1,
      "note": 62,
      "start": 11.2623,
      "duration": 0.0486,
      "velocity": 97,
      "chip": "ym2612"
    },
    {
      "channel": 4,
      "note": 50,
      "start": 11.2639,
      "duration": 0.1821,
      "velocity": 94,
      "chip": "ym2612"
    },
    {
      "channel": 5,
      "note": 57,
      "start": 11.3519,
      "duration": 0.1421,
      "velocity": 115,
      "chip": "ym2612"
    },
    {
      "channel": 0,
      "note": 66,
      "start": 11.4973,
      "duration": 0.047,
      "velocity": 97,
      "chip": "ym2612"
    },
    {
      "channel": 5,
      "note": 56,
      "start": 11.5022,
      "duration": 0.0752,
      "velocity": 117,
      "chip": "ym2612"
    },
    {
      "channel": 0,
      "note": 80,
      "start": 11.5807,
      "duration": 0.1134,
      "velocity": 97,
      "chip": "ym2612"
    },
    {
      "channel": 1,
      "note": 64,
      "start": 11.5816,
      "duration": 0.1127,
      "velocity": 97,
      "chip": "ym2612"
    },
    {
      "channel": 2,
      "note": 68,
      "start": 11.5824,
      "duration": 0.9317,
      "velocity": 117,
      "chip": "ym2612"
    },
    {
      "channel": 3,
      "note": 64,
      "start": 11.5832,
      "duration": 0.9317,
      "velocity": 117,
      "chip": "ym2612"
    },
    {
      "channel": 4,
      "note": 52,
      "start": 11.5841,
      "duration": 0.1112,
      "velocity": 94,
      "chip": "ym2612"
    },
    {
      "channel": 5,
      "note": 56,
      "start": 11.5874,
      "duration": 0.1399,
      "velocity": 117,
      "chip": "ym2612"
    },
    {
      "channel": 0,
      "note": 76,
      "start": 11.7306,
      "duration": 0.047,
      "velocity": 97,
      "chip": "ym2612"
    },
    {
      "channel": 5,
      "note": 57,
      "start": 11.7355,
      "duration": 0.0752,
      "velocity": 115,
      "chip": "ym2612"
    },
    {
      "channel": 0,
      "note": 78,
      "start": 11.814,
      "duration": 0.1132,
      "velocity": 97,
      "chip": "ym2612"
    },
    {
      "channel": 4,
      "note": 59,
      "start": 11.8162,
      "duration": 0.1125,
      "velocity": 94,
      "chip": "ym2612"
    },
    {
      "channel": 5,
      "note": 57,
      "start": 11.8195,
      "duration": 0.1412,
      "velocity": 115,
      "chip": "ym2612"
    },
    {
      "channel": 0,
      "note": 76,
      "start": 11.964,
      "duration": 0.0468,
      "velocity": 97,
      "chip": "ym2612"
    },
    {
      "channel": 1,
      "note": 59,
      "start": 11.9649,
      "duration": 0.046,
      "velocity": 97,
      "chip": "ym2612"
    },
    {
      "channel": 5,
      "note": 57,
      "start": 11.9695,
      "duration": 0.0746,
      "velocity": 115,
      "chip": "ym2612"
    },
    {
      "channel": 0,
      "note": 83,
      "start": 12.0473,
      "duration": 0.1134,
      "velocity": 97,
      "chip": "ym2612"
    },
    {
      "channel": 4,
      "note": 56,
      "start": 12.0494,
      "duration": 0.1129,
      "velocity": 94,
      "chip": "ym2612"
    },
    {
      "channel": 5,
      "note": 48,
      "start": 12.0528,
      "duration": 0.2246,
      "velocity": 127,
      "chip": "ym2612"
    },
    {
      "channel": 0,
      "note": 81,
      "start": 12.1947,
      "duration": 0.0494,
      "velocity": 97,
      "chip": "ym2612"
    },
    {
      "channel": 1,
      "note": 52,
      "start": 12.2811,
      "duration": 0.1132,
      "velocity": 97,
      "chip": "ym2612"
    },
    {
      "channel": 4,
      "note": 52,
      "start": 12.2829,
      "duration": 0.1125,
      "velocity": 94,
      "chip": "ym2612"
    },
    {
      "channel": 5,
      "note": 57,
      "start": 12.2861,
      "duration": 0.1412,
      "velocity": 115,
      "chip": "ym2612"
    },
    {
      "channel": 0,
      "note": 80,
      "start": 12.4307,
      "duration": 0.1801,
      "velocity": 97,
      "chip": "ym2612"
    },
    {
      "channel": 1,
      "note": 64,
      "start": 12.4316,
      "duration": 0.1793,
      "velocity": 97,
      "chip": "ym2612"
    },
    {
      "channel": 4,
      "note": 52,
      "start": 12.4333,
      "duration": 0.1787,
      "velocity": 94,
      "chip": "ym2612"
    },
    {
      "channel": 5,
      "note": 56,
      "start": 12.4366,
      "duration": 0.0741,
      "velocity": 117,
      "chip": "ym2612"
    },
    {
      "channel": 2,
      "note": 64,
      "start": 12.5148,
      "duration": 0.9342,
      "velocity": 117,
      "chip": "ym2612"
    },
    {
      "channel": 3,
      "note": 59,
      "start": 12.5156,
      "duration": 0.9342,
      "velocity": 117,
      "chip": "ym2612"
    },
    {
      "channel": 5,
      "note": 57,
      "start": 12.5193,
      "duration": 0.2247,
      "velocity": 115,
      "chip": "ym2612"
    },
    {
      "channel": 0,
      "note": 76,
      "start": 12.6614,
      "duration": 0.0494,
      "velocity": 97,
      "chip": "ym2612"
    },
    {
      "channel": 4,
      "note": 52,
      "start": 12.6634,
      "duration": 0.0488,
      "velocity": 94,
      "chip": "ym2612"
    },
    {
      "channel": 0,
      "note": 78,
      "start": 12.7473,
      "duration": 0.1132,
      "velocity": 97,
      "chip": "ym2612"
    },
    {
      "channel": 1,
      "note": 47,
      "start": 12.7483,
      "duration": 0.1125,
      "velocity": 97,
      "chip": "ym2612"
    },
    {
      "channel": 4,
      "note": 52,
      "start": 12.75,
      "duration": 0.1118,
      "velocity": 94,
      "chip": "ym2612"
    },
    {
      "channel": 5,
      "note": 56,
      "start": 12.7534,
      "duration": 0.224,
      "velocity": 117,
      "chip": "ym2612"
    },
    {
      "channel": 0,
      "note": 76,
      "start": 12.9115,
      "duration": 0.0492,
      "velocity": 97,
      "chip": "ym2612"
    },
    {
      "channel": 1,
      "note": 59,
      "start": 12.9125,
      "duration": 0.0484,
      "velocity": 97,
      "chip": "ym2612"
    },
    {
      "channel": 4,
      "note": 52,
      "start": 12.9141,
      "duration": 0.1151,
      "velocity": 94,
      "chip": "ym2612"
    },
    {
      "channel": 0,
      "note": 78,
      "start": 12.9807,
      "duration": 0.1134,
      "velocity": 97,
      "chip": "ym2612"
    },
    {
      "channel": 1,
      "note": 64,
      "start": 12.9816,
      "duration": 0.1127,
      "velocity": 97,
      "chip": "ym2612"
    },
    {
      "channel": 5,
      "note": 48,
      "start": 12.9862,
      "duration": 0.2245,
      "velocity": 127,
      "chip": "ym2612"
    },
    {
      "channel": 0,
      "note": 80,
      "start": 13.1449,
      "duration": 0.049,
      "velocity": 97,
      "chip": "ym2612"
    },
    {
      "channel": 1,
      "note": 64,
      "start": 13.1458,
      "duration": 0.0483,
      "velocity": 97,
      "chip": "ym2612"
    },
    {
      "channel": 4,
      "note": 52,
      "start": 13.1476,
      "duration": 0.1148,
      "velocity": 94,
      "chip": "ym2612"
    },
    {
      "channel": 5,
      "note": 57,
      "start": 13.2186,
      "duration": 0.1588,
      "velocity": 115,
      "chip": "ym2612"
    },
    {
      "channel": 0,
      "note": 80,
      "start": 13.3806,
      "duration": 0.0468,
      "velocity": 97,
      "chip": "ym2612"
    },
    {
      "channel": 4,
      "note": 50,
      "start": 13.3826,
      "duration": 0.046,
      "velocity": 94,
      "chip": "ym2612"
    },
    {
      "channel": 5,
      "note": 57,
      "start": 13.386,
      "duration": 0.0583,
      "velocity": 115,
      "chip": "ym2612"
    },
    {
      "channel": 0,
      "note": 81,
      "start": 13.4477,
      "duration": 0.1797,
      "velocity": 97,
      "chip": "ym2612"
    },
    {
      "channel": 1,
      "note": 66,
      "start": 13.4488,
      "duration": 0.1788,
      "velocity": 97,
      "chip": "ym2612"
    },
    {
      "channel": 2,
      "note": 66,
      "start": 13.4497,
      "duration": 0.9476,
      "velocity": 117,
      "chip": "ym2612"
    },
    {
      "channel": 3,
      "note": 61,
      "start": 13.4505,
      "duration": 0.9476,
      "velocity": 117,
      "chip": "ym2612"
    },
    {
      "channel": 4,
      "note": 49,
      "start": 13.4515,
      "duration": 1.1803,
      "velocity": 94,
      "chip": "ym2612"
    },
    {
      "channel": 5,
      "note": 56,
      "start": 13.4549,
      "duration": 0.1559,
      "velocity": 117,
      "chip": "ym2612"
    },
    {
      "channel": 5,
      "note": 57,
      "start": 13.6187,
      "duration": 0.0753,
      "velocity": 115,
      "chip": "ym2612"
    },
    {
      "channel": 0,
      "note": 81,
      "start": 13.6973,
      "duration": 0.1134,
      "velocity": 97,
      "chip": "ym2612"
    },
    {
      "channel": 1,
      "note": 66,
      "start": 13.6983,
      "duration": 0.1127,
      "velocity": 97,
      "chip": "ym2612"
    },
    {
      "channel": 5,
      "note": 57,
      "start": 13.7028,
      "duration": 0.1412,
      "velocity": 115,
      "chip": "ym2612"
    },
    {
      "channel": 5,
      "note": 57,
      "start": 13.8519,
      "duration": 0.0753,
      "velocity": 115,
      "chip": "ym2612"
    },
    {
      "channel": 0,
      "note": 81,
      "start": 13.9305,
      "duration": 0.1136,
      "velocity": 97,
      "chip": "ym2612"
    },
    {
      "channel": 1,
      "note": 66,
      "start": 13.9313,
      "duration": 0.1129,
      "velocity": 97,
      "chip": "ym2612"
    },
    {
      "channel": 5,
      "note": 48,
      "start": 13.9359,
      "duration": 0.2248,
      "velocity": 127,
      "chip": "ym2612"
    },
    {
      "channel": 0,
      "note": 73,
      "start": 14.0782,
      "duration": 0.0492,
      "velocity": 97,
      "chip": "ym2612"
    },
    {
      "channel": 1,
      "note": 66,
      "start": 14.0792,
      "duration": 0.0483,
      "velocity": 97,
      "chip": "ym2612"
    },
    {
      "channel": 0,
      "note": 81,
      "start": 14.164,
      "duration": 0.1134,
      "velocity": 97,
      "chip": "ym2612"
    },
    {
      "channel": 1,
      "note": 66,
      "start": 14.1649,
      "duration": 0.1127,
      "velocity": 97,
      "chip": "ym2612"
    },
    {
      "channel": 5,
      "note": 57,
      "start": 14.1695,
      "duration": 0.1412,
      "velocity": 115,
      "chip": "ym2612"
    },
    {
      "channel": 0,
      "note": 80,
      "start": 14.314,
      "duration": 0.8302,
      "velocity": 97,
      "chip": "ym2612"
    },
    {
      "channel": 1,
      "note": 65,
      "start": 14.3149,
      "duration": 0.8294,
      "velocity": 97,
      "chip": "ym2612"
    },
    {
      "channel": 5,
      "note": 56,
      "start": 14.3195,
      "duration": 0.0744,
      "velocity": 117,
      "chip": "ym2612"
    },
    {
      "channel": 2,
      "note": 65,
      "start": 14.398,
      "duration": 0.466,
      "velocity": 117,
      "chip": "ym2612"
    },
    {
      "channel": 3,
      "note": 61,
      "start": 14.3988,
      "duration": 0.466,
      "velocity": 117,
      "chip": "ym2612"
    },
    {
      "channel": 5,
      "note": 57,
      "start": 14.4025,
      "duration": 0.1415,
      "velocity": 115,
      "chip": "ym2612"
    },
    {
      "channel": 5,
      "note": 56,
      "start": 14.552,
      "duration": 0.0754,
      "velocity": 117,
      "chip": "ym2612"
    },
    {
      "channel": 5,
      "note": 56,
      "start": 14.6351,
      "duration": 0.1422,
      "velocity": 117,
      "chip": "ym2612"
    },
    {
      "channel": 5,
      "note": 48,
      "start": 14.7853,
      "duration": 0.0753,
      "velocity": 127,
      "chip": "ym2612"
    },
    {
      "channel": 2,
      "note": 61,
      "start": 14.8646,
      "duration": 0.4678,
      "velocity": 117,
      "chip": "ym2612"
    },
    {
      "channel": 3,
      "note": 56,
      "start": 14.8655,
      "duration": 0.4678,
      "velocity": 117,
      "chip": "ym2612"
    },
    {
      "channel": 5,
      "note": 48,
      "start": 14.8692,
      "duration": 0.2249,
      "velocity": 127,
      "chip": "ym2612"
    },
    {
      "channel": 4,
      "note": 49,
      "start": 15.0133,
      "duration": 0.0491,
      "velocity": 94,
      "chip": "ym2612"
    },
    {
      "channel": 4,
      "note": 50,
      "start": 15.0991,
      "duration": 0.1134,
      "velocity": 94,
      "chip": "ym2612"
    },
    {
      "channel": 5,
      "note": 48,
      "start": 15.1025,
      "duration": 0.1415,
      "velocity": 127,
      "chip": "ym2612"
    },
    {
      "channel": 4,
      "note": 52,
      "start": 15.249,
      "duration": 0.0471,
      "velocity": 94,
      "chip": "ym2612"
    },
    {
      "channel": 5,
      "note": 48,
      "start": 15.2524,
      "duration": 0.0751,
      "velocity": 127,
      "chip": "ym2612"
    },
    {
      "channel": 0,
      "note": 78,
      "start": 15.331,
      "duration": 0.1131,
      "velocity": 97,
      "chip": "ym2612"
    },
    {
      "channel": 1,
      "note": 61,
      "start": 15.3322,
      "duration": 0.112,
      "velocity": 97,
      "chip": "ym2612"
    },
    {
      "channel": 2,
      "note": 66,
      "start": 15.3331,
      "duration": 0.2315,
      "velocity": 117,
      "chip": "ym2612"
    },
    {
      "channel": 3,
      "note": 61,
      "start": 15.334,
      "duration": 0.2314,
      "velocity": 117,
      "chip": "ym2612"
    },
    {
      "channel": 4,
      "note": 54,
      "start": 15.3349,
      "duration": 0.1777,
      "velocity": 94,
      "chip": "ym2612"
    },
    {
      "channel": 5,
      "note": 56,
      "start": 15.3383,
      "duration": 0.1557,
      "velocity": 117,
      "chip": "ym2612"
    },
    {
      "channel": 0,
      "note": 73,
      "start": 15.4973,
      "duration": 0.0468,
      "velocity": 97,
      "chip": "ym2612"
    },
    {
      "channel": 5,
      "note": 57,
      "start": 15.5028,
      "duration": 0.0579,
      "velocity": 115,
      "chip": "ym2612"
    },
    {
      "channel": 0,
      "note": 76,
      "start": 15.564,
      "duration": 0.1134,
      "velocity": 97,
      "chip": "ym2612"
    },
    {
      "channel": 2,
      "note": 73,
      "start": 15.5653,
      "duration": 0.2325,
      "velocity": 117,
      "chip": "ym2612"
    },
    {
      "channel": 3,
      "note": 69,
      "start": 15.5661,
      "duration": 0.2325,
      "velocity": 117,
      "chip": "ym2612"
    },
    {
      "channel": 5,
      "note": 57,
      "start": 15.5698,
      "duration": 0.1575,
      "velocity": 115,
      "chip": "ym2612"
    },
    {
      "channel": 0,
      "note": 73,
      "start": 15.7306,
      "duration": 0.0469,
      "velocity": 97,
      "chip": "ym2612"
    },
    {
      "channel": 1,
      "note": 57,
      "start": 15.7315,
      "duration": 0.0461,
      "velocity": 97,
      "chip": "ym2612"
    },
    {
      "channel": 5,
      "note": 57,
      "start": 15.7361,
      "duration": 0.0578,
      "velocity": 115,
      "chip": "ym2612"
    },
    {
      "channel": 0,
      "note": 81,
      "start": 15.7972,
      "duration": 0.1135,
      "velocity": 97,
      "chip": "ym2612"
    },
    {
      "channel": 2,
      "note": 69,
      "start": 15.7985,
      "duration": 0.2327,
      "velocity": 117,
      "chip": "ym2612"
    },
    {
      "channel": 3,
      "note": 66,
      "start": 15.7993,
      "duration": 0.2328,
      "velocity": 117,
      "chip": "ym2612"
    },
    {
      "channel": 4,
      "note": 49,
      "start": 15.8,
      "duration": 0.1793,
      "velocity": 94,
      "chip": "ym2612"
    },
    {
      "channel": 5,
      "note": 48,
      "start": 15.8034,
      "duration": 0.224,
      "velocity": 127,
      "chip": "ym2612"
    },
    {
      "channel": 0,
      "note": 80,
      "start": 15.9615,
      "duration": 0.0492,
      "velocity": 97,
      "chip": "ym2612"
    },
    {
      "channel": 1,
      "note": 49,
      "start": 16.0311,
      "duration": 0.1135,
      "velocity": 97,
      "chip": "ym2612"
    },
    {
      "channel": 2,
      "note": 68,
      "start": 16.032,
      "duration": 0.1663,
      "velocity": 117,
      "chip": "ym2612"
    },
    {
      "channel": 3,
      "note": 66,
      "start": 16.0328,
      "duration": 0.1663,
      "velocity": 117,
      "chip": "ym2612"
    },
    {
      "channel": 5,
      "note": 57,
      "start": 16.0365,
      "duration": 0.1574,
      "velocity": 115,
      "chip": "ym2612"
    },
    {
      "channel": 0,
      "note": 78,
      "start": 16.1972,
      "duration": 0.1803,
      "velocity": 97,
      "chip": "ym2612"
    },
    {
      "channel": 1,
      "note": 61,
      "start": 16.1981,
      "duration": 0.1796,
      "velocity": 97,
      "chip": "ym2612"
    },
    {
      "channel": 2,
      "note": 66,
      "start": 16.1989,
      "duration": 0.7818,
      "velocity": 117,
      "chip": "ym2612"
    },
    {
      "channel": 3,
      "note": 61,
      "start": 16.1998,
      "duration": 0.7818,
      "velocity": 117,
      "chip": "ym2612"
    },
    {
      "channel": 4,
      "note": 52,
      "start": 16.2006,
      "duration": 0.2317,
      "velocity": 94,
      "chip": "ym2612"
    },
    {
      "channel": 5,
      "note": 56,
      "start": 16.2039,
      "duration": 0.0735,
      "velocity": 117,
      "chip": "ym2612"
    },
    {
      "channel": 5,
      "note": 57,
      "start": 16.2856,
      "duration": 0.1417,
      "velocity": 115,
      "chip": "ym2612"
    },
    {
      "channel": 0,
      "note": 73,
      "start": 16.4307,
      "duration": 0.0468,
      "velocity": 97,
      "chip": "ym2612"
    },
    {
      "channel": 4,
      "note": 54,
      "start": 16.4329,
      "duration": 0.046,
      "velocity": 94,
      "chip": "ym2612"
    },
    {
      "channel": 5,
      "note": 56,
      "start": 16.4362,
      "duration": 0.0745,
      "velocity": 117,
      "chip": "ym2612"
    },
    {
      "channel": 0,
      "note": 76,
      "start": 16.514,
      "duration": 0.1134,
      "velocity": 97,
      "chip": "ym2612"
    },
    {
      "channel": 1,
      "note": 45,
      "start": 16.5149,
      "duration": 0.1127,
      "velocity": 97,
      "chip": "ym2612"
    },
    {
      "channel": 4,
      "note": 57,
      "start": 16.5166,
      "duration": 0.1794,
      "velocity": 94,
      "chip": "ym2612"
    },
    {
      "channel": 5,
      "note": 56,
      "start": 16.5199,
      "duration": 0.2241,
      "velocity": 117,
      "chip": "ym2612"
    },
    {
      "channel": 0,
      "note": 73,
      "start": 16.6614,
      "duration": 0.0495,
      "velocity": 97,
      "chip": "ym2612"
    },
    {
      "channel": 1,
      "note": 57,
      "start": 16.6623,
      "duration": 0.0487,
      "velocity": 97,
      "chip": "ym2612"
    },
    {
      "channel": 0,
      "note": 76,
      "start": 16.7473,
      "duration": 0.1132,
      "velocity": 97,
      "chip": "ym2612"
    },
    {
      "channel": 1,
      "note": 61,
      "start": 16.7483,
      "duration": 0.1125,
      "velocity": 97,
      "chip": "ym2612"
    },
    {
      "channel": 4,
      "note": 56,
      "start": 16.7498,
      "duration": 0.1792,
      "velocity": 94,
      "chip": "ym2612"
    },
    {
      "channel": 5,
      "note": 48,
      "start": 16.7532,
      "duration": 0.2242,
      "velocity": 127,
      "chip": "ym2612"
    },
    {
      "channel": 0,
      "note": 78,
      "start": 16.8949,
      "duration": 0.0494,
      "velocity": 97,
      "chip": "ym2612"
    },
    {
      "channel": 1,
      "note": 61,
      "start": 16.8958,
      "duration": 0.0485,
      "velocity": 97,
      "chip": "ym2612"
    },
    {
      "channel": 2,
      "note": 69,
      "start": 16.9815,
      "duration": 0.1495,
      "velocity": 117,
      "chip": "ym2612"
    },
    {
      "channel": 3,
      "note": 66,
      "start": 16.9823,
      "duration": 0.2341,
      "velocity": 117,
      "chip": "ym2612"
    },
    {
      "channel": 4,
      "note": 52,
      "start": 16.983,
      "duration": 0.1793,
      "velocity": 94,
      "chip": "ym2612"
    },
    {
      "channel": 5,
      "note": 57,
      "start": 16.9863,
      "duration": 0.1409,
      "velocity": 115,
      "chip": "ym2612"
    },
    {
      "channel": 0,
      "note": 66,
      "start": 17.1304,
      "duration": 0.047,
      "velocity": 97,
      "chip": "ym2612"
    },
    {
      "channel": 2,
      "note": 68,
      "start": 17.1316,
      "duration": 0.0839,
      "velocity": 117,
      "chip": "ym2612"
    },
    {
      "channel": 5,
      "note": 57,
      "start": 17.1358,
      "duration": 0.0751,
      "velocity": 115,
      "chip": "ym2612"
    },
    {
      "channel": 0,
      "note": 78,
      "start": 17.2144,
      "duration": 0.1129,
      "velocity": 97,
      "chip": "ym2612"
    },
    {
      "channel": 1,
      "note": 62,
      "start": 17.2154,
      "duration": 0.112,
      "velocity": 97,
      "chip": "ym2612"
    },
    {
      "channel": 2,
      "note": 66,
      "start": 17.2162,
      "duration": 0.9312,
      "velocity": 117,
      "chip": "ym2612"
    },
    {
      "channel": 3,
      "note": 62,
      "start": 17.2171,
      "duration": 0.9312,
      "velocity": 117,
      "chip": "ym2612"
    },
    {
      "channel": 4,
      "note": 50,
      "start": 17.218,
      "duration": 0.1104,
      "velocity": 94,
      "chip": "ym2612"
    },
    {
      "channel": 5,
      "note": 56,
      "start": 17.2214,
      "duration": 0.1393,
      "velocity": 117,
      "chip": "ym2612"
    },
    {
      "channel": 0,
      "note": 74,
      "start": 17.364,
      "duration": 0.0468,
      "velocity": 97,
      "chip": "ym2612"
    },
    {
      "channel": 5,
      "note": 57,
      "start": 17.369,
      "duration": 0.0751,
      "velocity": 115,
      "chip": "ym2612"
    },
    {
      "channel": 0,
      "note": 76,
      "start": 17.4473,
      "duration": 0.1134,
      "velocity": 97,
      "chip": "ym2612"
    },
    {
      "channel": 4,
      "note": 52,
      "start": 17.4496,
      "duration": 0.1797,
      "velocity": 94,
      "chip": "ym2612"
    },
    {
      "channel": 5,
      "note": 57,
      "start": 17.4529,
      "duration": 0.141,
      "velocity": 115,
      "chip": "ym2612"
    },
    {
      "channel": 0,
      "note": 74,
      "start": 17.5972,
      "duration": 0.0469,
      "velocity": 97,
      "chip": "ym2612"
    },
    {
      "channel": 1,
      "note": 57,
      "start": 17.5981,
      "duration": 0.0461,
      "velocity": 97,
      "chip": "ym2612"
    },
    {
      "channel": 5,
      "note": 57,
      "start": 17.6027,
      "duration": 0.0747,
      "velocity": 115,
      "chip": "ym2612"
    },
    {
      "channel": 0,
      "note": 81,
      "start": 17.6807,
      "duration": 0.1132,
      "velocity": 97,
      "chip": "ym2612"
    },
    {
      "channel": 4,
      "note": 54,
      "start": 17.6827,
      "duration": 0.1796,
      "velocity": 94,
      "chip": "ym2612"
    },
    {
      "channel": 5,
      "note": 48,
      "start": 17.6861,
      "duration": 0.2246,
      "velocity": 127,
      "chip": "ym2612"
    },
    {
      "channel": 0,
      "note": 80,
      "start": 17.8282,
      "duration": 0.0492,
      "velocity": 97,
      "chip": "ym2612"
    },
    {
      "channel": 1,
      "note": 50,
      "start": 17.9145,
      "duration": 0.1134,
      "velocity": 97,
      "chip": "ym2612"
    },
    {
      "channel": 4,
      "note": 50,
      "start": 17.9162,
      "duration": 0.1127,
      "velocity": 94,
      "chip": "ym2612"
    },
    {
      "channel": 5,
      "note": 57,
      "start": 17.9196,
      "duration": 0.1578,
      "velocity": 115,
      "chip": "ym2612"
    },
    {
      "channel": 0,
      "note": 78,
      "start": 18.0807,
      "duration": 0.1799,
      "velocity": 97,
      "chip": "ym2612"
    },
    {
      "channel": 1,
      "note": 62,
      "start": 18.0816,
      "duration": 0.1792,
      "velocity": 97,
      "chip": "ym2612"
    },
    {
      "channel": 4,
      "note": 64,
      "start": 18.0833,
      "duration": 0.2971,
      "velocity": 94,
      "chip": "ym2612"
    },
    {
      "channel": 5,
      "note": 56,
      "start": 18.0866,
      "duration": 0.0574,
      "velocity": 117,
      "chip": "ym2612"
    },
    {
      "channel": 2,
      "note": 78,
      "start": 18.1481,
      "duration": 0.9502,
      "velocity": 117,
      "chip": "ym2612"
    },
    {
      "channel": 3,
      "note": 74,
      "start": 18.149,
      "duration": 0.9502,
      "velocity": 117,
      "chip": "ym2612"
    },
    {
      "channel": 5,
      "note": 57,
      "start": 18.1531,
      "duration": 0.1576,
      "velocity": 115,
      "chip": "ym2612"
    },
    {
      "channel": 0,
      "note": 74,
      "start": 18.314,
      "duration": 0.0468,
      "velocity": 97,
      "chip": "ym2612"
    },
    {
      "channel": 5,
      "note": 56,
      "start": 18.3191,
      "duration": 0.2249,
      "velocity": 117,
      "chip": "ym2612"
    },
    {
      "channel": 0,
      "note": 76,
      "start": 18.3782,
      "duration": 0.1159,
      "velocity": 97,
      "chip": "ym2612"
    },
    {
      "channel": 1,
      "note": 45,
      "start": 18.3792,
      "duration": 0.1151,
      "velocity": 97,
      "chip": "ym2612"
    },
    {
      "channel": 4,
      "note": 57,
      "start": 18.3809,
      "duration": 0.1816,
      "velocity": 94,
      "chip": "ym2612"
    },
    {
      "channel": 0,
      "note": 74,
      "start": 18.5473,
      "duration": 0.0466,
      "velocity": 97,
      "chip": "ym2612"
    },
    {
      "channel": 1,
      "note": 57,
      "start": 18.5483,
      "duration": 0.0459,
      "velocity": 97,
      "chip": "ym2612"
    },
    {
      "channel": 5,
      "note": 56,
      "start": 18.5528,
      "duration": 0.0579,
      "velocity": 117,
      "chip": "ym2612"
    },
    {
      "channel": 0,
      "note": 76,
      "start": 18.614,
      "duration": 0.1132,
      "velocity": 97,
      "chip": "ym2612"
    },
    {
      "channel": 1,
      "note": 62,
      "start": 18.6149,
      "duration": 0.1125,
      "velocity": 97,
      "chip": "ym2612"
    },
    {
      "channel": 4,
      "note": 54,
      "start": 18.6166,
      "duration": 0.1118,
      "velocity": 94,
      "chip": "ym2612"
    },
    {
      "channel": 5,
      "note": 48,
      "start": 18.62,
      "duration": 0.2406,
      "velocity": 127,
      "chip": "ym2612"
    },
    {
      "channel": 0,
      "note": 78,
      "start": 18.7782,
      "duration": 0.0492,
      "velocity": 97,
      "chip": "ym2612"
    },
    {
      "channel": 1,
      "note": 62,
      "start": 18.7792,
      "duration": 0.0484,
      "velocity": 97,
      "chip": "ym2612"
    },
    {
      "channel": 4,
      "note": 50,
      "start": 18.7809,
      "duration": 0.1818,
      "velocity": 94,
      "chip": "ym2612"
    },
    {
      "channel": 5,
      "note": 57,
      "start": 18.8684,
      "duration": 0.1423,
      "velocity": 115,
      "chip": "ym2612"
    },
    {
      "channel": 0,
      "note": 66,
      "start": 19.0139,
      "duration": 0.0466,
      "velocity": 97,
      "chip": "ym2612"
    },
    {
      "channel": 5,
      "note": 56,
      "start": 19.0188,
      "duration": 0.0752,
      "velocity": 117,
      "chip": "ym2612"
    },
    {
      "channel": 0,
      "note": 80,
      "start": 19.0973,
      "duration": 0.1134,
      "velocity": 97,
      "chip": "ym2612"
    },
    {
      "channel": 1,
      "note": 64,
      "start": 19.0983,
      "duration": 0.1127,
      "velocity": 97,
      "chip": "ym2612"
    },
    {
      "channel": 2,
      "note": 76,
      "start": 19.0991,
      "duration": 0.4655,
      "velocity": 117,
      "chip": "ym2612"
    },
    {
      "channel": 3,
      "note": 71,
      "start": 19.1,
      "duration": 0.4655,
      "velocity": 117,
      "chip": "ym2612"
    },
    {
      "channel": 4,
      "note": 52,
      "start": 19.1007,
      "duration": 0.1112,
      "velocity": 94,
      "chip": "ym2612"
    },
    {
      "channel": 5,
      "note": 56,
      "start": 19.1041,
      "duration": 0.1399,
      "velocity": 117,
      "chip": "ym2612"
    },
    {
      "channel": 0,
      "note": 76,
      "start": 19.2473,
      "duration": 0.0469,
      "velocity": 97,
      "chip": "ym2612"
    },
    {
      "channel": 5,
      "note": 57,
      "start": 19.2523,
      "duration": 0.0749,
      "velocity": 115,
      "chip": "ym2612"
    },
    {
      "channel": 0,
      "note": 78,
      "start": 19.3306,
      "duration": 0.1135,
      "velocity": 97,
      "chip": "ym2612"
    },
    {
      "channel": 4,
      "note": 59,
      "start": 19.3327,
      "duration": 0.1129,
      "velocity": 94,
      "chip": "ym2612"
    },
    {
      "channel": 5,
      "note": 57,
      "start": 19.336,
      "duration": 0.1413,
      "velocity": 115,
      "chip": "ym2612"
    },
    {
      "channel": 0,
      "note": 76,
      "start": 19.4807,
      "duration": 0.0467,
      "velocity": 97,
      "chip": "ym2612"
    },
    {
      "channel": 1,
      "note": 59,
      "start": 19.4816,
      "duration": 0.0459,
      "velocity": 97,
      "chip": "ym2612"
    },
    {
      "channel": 5,
      "note": 57,
      "start": 19.4861,
      "duration": 0.0746,
      "velocity": 115,
      "chip": "ym2612"
    },
    {
      "channel": 0,
      "note": 83,
      "start": 19.564,
      "duration": 0.1134,
      "velocity": 97,
      "chip": "ym2612"
    },
    {
      "channel": 2,
      "note": 71,
      "start": 19.5653,
      "duration": 0.4655,
      "velocity": 117,
      "chip": "ym2612"
    },
    {
      "channel": 3,
      "note": 68,
      "start": 19.5661,
      "duration": 0.4655,
      "velocity": 117,
      "chip": "ym2612"
    },
    {
      "channel": 4,
      "note": 56,
      "start": 19.5668,
      "duration": 0.1121,
      "velocity": 94,
      "chip": "ym2612"
    },
    {
      "channel": 5,
      "note": 48,
      "start": 19.5702,
      "duration": 0.2237,
      "velocity": 127,
      "chip": "ym2612"
    },
    {
      "channel": 0,
      "note": 81,
      "start": 19.7116,
      "duration": 0.0492,
      "velocity": 97,
      "chip": "ym2612"
    },
    {
      "channel": 1,
      "note": 52,
      "start": 19.7976,
      "duration": 0.1136,
      "velocity": 97,
      "chip": "ym2612"
    },
    {
      "channel": 4,
      "note": 52,
      "start": 19.7993,
      "duration": 0.1129,
      "velocity": 94,
      "chip": "ym2612"
    },
    {
      "channel": 5,
      "note": 57,
      "start": 19.8027,
      "duration": 0.1413,
      "velocity": 115,
      "chip": "ym2612"
    },
    {
      "channel": 0,
      "note": 80,
      "start": 19.9473,
      "duration": 0.1799,
      "velocity": 97,
      "chip": "ym2612"
    },
    {
      "channel": 1,
      "note": 64,
      "start": 19.9483,
      "duration": 0.1792,
      "velocity": 97,
      "chip": "ym2612"
    },
    {
      "channel": 4,
      "note": 52,
      "start": 19.95,
      "duration": 0.1785,
      "velocity": 94,
      "chip": "ym2612"
    },
    {
      "channel": 5,
      "note": 56,
      "start": 19.9533,
      "duration": 0.0741,
      "velocity": 117,
      "chip": "ym2612"
    },
    {
      "channel": 2,
      "note": 64,
      "start": 20.0315,
      "duration": 0.4669,
      "velocity": 117,
      "chip": "ym2612"
    },
    {
      "channel": 3,
      "note": 59,
      "start": 20.0323,
      "duration": 0.4669,
      "velocity": 117,
      "chip": "ym2612"
    },
    {
      "channel": 5,
      "note": 57,
      "start": 20.036,
      "duration": 0.2246,
      "velocity": 115,
      "chip": "ym2612"
    },
    {
      "channel": 0,
      "note": 76,
      "start": 20.1782,
      "duration": 0.0492,
      "velocity": 97,
      "chip": "ym2612"
    },
    {
      "channel": 4,
      "note": 52,
      "start": 20.1803,
      "duration": 0.0487,
      "velocity": 94,
      "chip": "ym2612"
    },
    {
      "channel": 0,
      "note": 78,
      "start": 20.2639,
      "duration": 0.1135,
      "velocity": 97,
      "chip": "ym2612"
    },
    {
      "channel": 1,
      "note": 47,
      "start": 20.2648,
      "duration": 0.1128,
      "velocity": 97,
      "chip": "ym2612"
    },
    {
      "channel": 4,
      "note": 52,
      "start": 20.2666,
      "duration": 0.1121,
      "velocity": 94,
      "chip": "ym2612"
    },
    {
      "channel": 5,
      "note": 56,
      "start": 20.2699,
      "duration": 0.2241,
      "velocity": 117,
      "chip": "ym2612"
    },
    {
      "channel": 0,
      "note": 76,
      "start": 20.4115,
      "duration": 0.049,
      "velocity": 97,
      "chip": "ym2612"
    },
    {
      "channel": 1,
      "note": 59,
      "start": 20.4125,
      "duration": 0.0483,
      "velocity": 97,
      "chip": "ym2612"
    },
    {
      "channel": 4,
      "note": 52,
      "start": 20.4141,
      "duration": 0.1151,
      "velocity": 94,
      "chip": "ym2612"
    },
    {
      "channel": 0,
      "note": 78,
      "start": 20.4973,
      "duration": 0.1134,
      "velocity": 97,
      "chip": "ym2612"
    },
    {
      "channel": 1,
      "note": 64,
      "start": 20.4983,
      "duration": 0.1127,
      "velocity": 97,
      "chip": "ym2612"
    },
    {
      "channel": 2,
      "note": 68,
      "start": 20.4991,
      "duration": 0.4665,
      "velocity": 117,
      "chip": "ym2612"
    },
    {
      "channel": 3,
      "note": 64,
      "start": 20.4999,
      "duration": 0.4666,
      "velocity": 117,
      "chip": "ym2612"
    },
    {
      "channel": 5,
      "note": 48,
      "start": 20.5036,
      "duration": 0.2237,
      "velocity": 127,
      "chip": "ym2612"
    },
    {
      "channel": 0,
      "note": 80,
      "start": 20.6614,
      "duration": 0.0494,
      "velocity": 97,
      "chip": "ym2612"
    },
    {
      "channel": 1,
      "note": 64,
      "start": 20.6623,
      "duration": 0.0486,
      "velocity": 97,
      "chip": "ym2612"
    },
    {
      "channel": 4,
      "note": 52,
      "start": 20.664,
      "duration": 0.1152,
      "velocity": 94,
      "chip": "ym2612"
    },
    {
      "channel": 5,
      "note": 57,
      "start": 20.7351,
      "duration": 0.1589,
      "velocity": 115,
      "chip": "ym2612"
    },
    {
      "channel": 0,
      "note": 80,
      "start": 20.8973,
      "duration": 0.0468,
      "velocity": 97,
      "chip": "ym2612"
    },
    {
      "channel": 4,
      "note": 50,
      "start": 20.8993,
      "duration": 0.046,
      "velocity": 94,
      "chip": "ym2612"
    },
    {
      "channel": 5,
      "note": 57,
      "start": 20.9026,
      "duration": 0.0582,
      "velocity": 115,
      "chip": "ym2612"
    },
    {
      "channel": 0,
      "note": 78,
      "start": 20.9643,
      "duration": 0.1131,
      "velocity": 97,
      "chip": "ym2612"
    },
    {
      "channel": 1,
      "note": 61,
      "start": 20.9654,
      "duration": 0.1122,
      "velocity": 97,
      "chip": "ym2612"
    },
    {
      "channel": 2,
      "note": 69,
      "start": 20.9662,
      "duration": 1.8814,
      "velocity": 117,
      "chip": "ym2612"
    },
    {
      "channel": 3,
      "note": 66,
      "start": 20.9671,
      "duration": 1.8814,
      "velocity": 117,
      "chip": "ym2612"
    },
    {
      "channel": 4,
      "note": 54,
      "start": 20.9681,
      "duration": 0.3611,
      "velocity": 94,
      "chip": "ym2612"
    },
    {
      "channel": 5,
      "note": 56,
      "start": 20.9715,
      "duration": 0.4726,
      "velocity": 117,
      "chip": "ym2612"
    },
    {
      "channel": 0,
      "note": 73,
      "start": 21.1281,
      "duration": 0.0494,
      "velocity": 97,
      "chip": "ym2612"
    },
    {
      "channel": 0,
      "note": 76,
      "start": 21.1947,
      "duration": 0.1162,
      "velocity": 97,
      "chip": "ym2612"
    },
    {
      "channel": 0,
      "note": 73,
      "start": 21.3615,
      "duration": 0.0492,
      "velocity": 97,
      "chip": "ym2612"
    },
    {
      "channel": 1,
      "note": 57,
      "start": 21.3625,
      "duration": 0.0484,
      "velocity": 97,
      "chip": "ym2612"
    },
    {
      "channel": 0,
      "note": 76,
      "start": 21.4473,
      "duration": 0.1134,
      "velocity": 97,
      "chip": "ym2612"
    },
    {
      "channel": 4,
      "note": 54,
      "start": 21.4494,
      "duration": 0.3632,
      "velocity": 94,
      "chip": "ym2612"
    },
    {
      "channel": 5,
      "note": 56,
      "start": 21.4527,
      "duration": 0.3747,
      "velocity": 117,
      "chip": "ym2612"
    },
    {
      "channel": 0,
      "note": 78,
      "start": 21.5947,
      "duration": 0.0494,
      "velocity": 97,
      "chip": "ym2612"
    },
    {
      "channel": 1,
      "note": 49,
      "start": 21.6786,
      "duration": 0.1157,
      "velocity": 97,
      "chip": "ym2612"
    },
    {
      "channel": 0,
      "note": 78,
      "start": 21.8307,
      "duration": 0.1801,
      "velocity": 97,
      "chip": "ym2612"
    },
    {
      "channel": 1,
      "note": 61,
      "start": 21.8316,
      "duration": 0.1793,
      "velocity": 97,
      "chip": "ym2612"
    },
    {
      "channel": 5,
      "note": 56,
      "start": 21.8361,
      "duration": 0.0746,
      "velocity": 117,
      "chip": "ym2612"
    },
    {
      "channel": 4,
      "note": 54,
      "start": 21.9156,
      "duration": 0.1803,
      "velocity": 94,
      "chip": "ym2612"
    },
    {
      "channel": 5,
      "note": 48,
      "start": 21.919,
      "duration": 0.1415,
      "velocity": 127,
      "chip": "ym2612"
    },
    {
      "channel": 0,
      "note": 73,
      "start": 22.0639,
      "duration": 0.047,
      "velocity": 97,
      "chip": "ym2612"
    },
    {
      "channel": 5,
      "note": 56,
      "start": 22.069,
      "duration": 0.0751,
      "velocity": 117,
      "chip": "ym2612"
    },
    {
      "channel": 0,
      "note": 76,
      "start": 22.1473,
      "duration": 0.1132,
      "velocity": 97,
      "chip": "ym2612"
    },
    {
      "channel": 1,
      "note": 45,
      "start": 22.1483,
      "duration": 0.1125,
      "velocity": 97,
      "chip": "ym2612"
    },
    {
      "channel": 4,
      "note": 54,
      "start": 22.1498,
      "duration": 0.1794,
      "velocity": 94,
      "chip": "ym2612"
    },
    {
      "channel": 5,
      "note": 56,
      "start": 22.1532,
      "duration": 0.2242,
      "velocity": 117,
      "chip": "ym2612"
    },
    {
      "channel": 0,
      "note": 73,
      "start": 22.2949,
      "duration": 0.0492,
      "velocity": 97,
      "chip": "ym2612"
    },
    {
      "channel": 1,
      "note": 57,
      "start": 22.2958,
      "duration": 0.0484,
      "velocity": 97,
      "chip": "ym2612"
    },
    {
      "channel": 0,
      "note": 76,
      "start": 22.3807,
      "duration": 0.1134,
      "velocity": 97,
      "chip": "ym2612"
    },
    {
      "channel": 1,
      "note": 61,
      "start": 22.3816,
      "duration": 0.1127,
      "velocity": 97,
      "chip": "ym2612"
    },
    {
      "channel": 4,
      "note": 66,
      "start": 22.3832,
      "duration": 0.1795,
      "velocity": 94,
      "chip": "ym2612"
    },
    {
      "channel": 5,
      "note": 48,
      "start": 22.3865,
      "duration": 0.2242,
      "velocity": 127,
      "chip": "ym2612"
    },
    {
      "channel": 0,
      "note": 78,
      "start": 22.5281,
      "duration": 0.1827,
      "velocity": 97,
      "chip": "ym2612"
    },
    {
      "channel": 1,
      "note": 61,
      "start": 22.529,
      "duration": 0.0489,
      "velocity": 97,
      "chip": "ym2612"
    },
    {
      "channel": 4,
      "note": 54,
      "start": 22.6157,
      "duration": 0.1135,
      "velocity": 94,
      "chip": "ym2612"
    },
    {
      "channel": 5,
      "note": 48,
      "start": 22.619,
      "duration": 0.1417,
      "velocity": 127,
      "chip": "ym2612"
    },
    {
      "channel": 4,
      "note": 66,
      "start": 22.7656,
      "duration": 0.0466,
      "velocity": 94,
      "chip": "ym2612"
    },
    {
      "channel": 5,
      "note": 48,
      "start": 22.769,
      "duration": 0.0753,
      "velocity": 127,
      "chip": "ym2612"
    },
    {
      "channel": 2,
      "note": 71,
      "start": 22.8484,
      "duration": 1.6483,
      "velocity": 117,
      "chip": "ym2612"
    },
    {
      "channel": 3,
      "note": 67,
      "start": 22.8492,
      "duration": 1.6484,
      "velocity": 117,
      "chip": "ym2612"
    },
    {
      "channel": 4,
      "note": 52,
      "start": 22.8501,
      "duration": 0.1118,
      "velocity": 94,
      "chip": "ym2612"
    },
    {
      "channel": 5,
      "note": 56,
      "start": 22.8534,
      "duration": 0.1405,
      "velocity": 117,
      "chip": "ym2612"
    },
    {
      "channel": 4,
      "note": 52,
      "start": 22.9981,
      "duration": 0.0471,
      "velocity": 94,
      "chip": "ym2612"
    },
    {
      "channel": 5,
      "note": 57,
      "start": 23.0015,
      "duration": 0.0759,
      "velocity": 115,
      "chip": "ym2612"
    },
    {
      "channel": 5,
      "note": 57,
      "start": 23.0846,
      "duration": 0.1595,
      "velocity": 115,
      "chip": "ym2612"
    },
    {
      "channel": 4,
      "note": 52,
      "start": 23.2483,
      "duration": 0.1802,
      "velocity": 94,
      "chip": "ym2612"
    },
    {
      "channel": 5,
      "note": 57,
      "start": 23.2517,
      "duration": 0.059,
      "velocity": 115,
      "chip": "ym2612"
    },
    {
      "channel": 5,
      "note": 48,
      "start": 23.3179,
      "duration": 0.2261,
      "velocity": 127,
      "chip": "ym2612"
    },
    {
      "channel": 5,
      "note": 57,
      "start": 23.5513,
      "duration": 0.1594,
      "velocity": 115,
      "chip": "ym2612"
    },
    {
      "channel": 4,
      "note": 52,
      "start": 23.715,
      "duration": 0.0469,
      "velocity": 94,
      "chip": "ym2612"
    },
    {
      "channel": 5,
      "note": 56,
      "start": 23.7183,
      "duration": 0.0591,
      "velocity": 117,
      "chip": "ym2612"
    },
    {
      "channel": 4,
      "note": 52,
      "start": 23.7816,
      "duration": 0.1137,
      "velocity": 94,
      "chip": "ym2612"
    },
    {
      "channel": 5,
      "note": 57,
      "start": 23.785,
      "duration": 0.159,
      "velocity": 115,
      "chip": "ym2612"
    },
    {
      "channel": 4,
      "note": 52,
      "start": 23.9484,
      "duration": 0.0466,
      "velocity": 94,
      "chip": "ym2612"
    },
    {
      "channel": 5,
      "note": 56,
      "start": 23.9517,
      "duration": 0.0756,
      "velocity": 117,
      "chip": "ym2612"
    },
    {
      "channel": 5,
      "note": 56,
      "start": 24.0345,
      "duration": 0.2261,
      "velocity": 117,
      "chip": "ym2612"
    },
    {
      "channel": 4,
      "note": 52,
      "start": 24.1792,
      "duration": 0.1827,
      "velocity": 94,
      "chip": "ym2612"
    },
    {
      "channel": 5,
      "note": 48,
      "start": 24.2677,
      "duration": 0.2263,
      "velocity": 127,
      "chip": "ym2612"
    },
    {
      "channel": 4,
      "note": 52,
      "start": 24.4125,
      "duration": 0.1825,
      "velocity": 94,
      "chip": "ym2612"
    },
    {
      "channel": 2,
      "note": 71,
      "start": 24.4974,
      "duration": 0.1493,
      "velocity": 117,
      "chip": "ym2612"
    },
    {
      "channel": 3,
      "note": 67,
      "start": 24.4983,
      "duration": 0.1493,
      "velocity": 117,
      "chip": "ym2612"
    },
    {
      "channel": 5,
      "note": 57,
      "start": 24.502,
      "duration": 0.142,
      "velocity": 115,
      "chip": "ym2612"
    },
    {
      "channel": 2,
      "note": 71,
      "start": 24.6474,
      "duration": 0.0832,
      "velocity": 117,
      "chip": "ym2612"
    },
    {
      "channel": 3,
      "note": 67,
      "start": 24.6483,
      "duration": 0.0832,
      "velocity": 117,
      "chip": "ym2612"
    },
    {
      "channel": 4,
      "note": 52,
      "start": 24.6491,
      "duration": 0.0462,
      "velocity": 94,
      "chip": "ym2612"
    },
    {
      "channel": 5,
      "note": 57,
      "start": 24.6524,
      "duration": 0.075,
      "velocity": 115,
      "chip": "ym2612"
    },
    {
      "channel": 2,
      "note": 72,
      "start": 24.7313,
      "duration": 0.932,
      "velocity": 117,
      "chip": "ym2612"
    },
    {
      "channel": 3,
      "note": 67,
      "start": 24.7322,
      "duration": 0.9319,
      "velocity": 117,
      "chip": "ym2612"
    },
    {
      "channel": 4,
      "note": 52,
      "start": 24.733,
      "duration": 0.1122,
      "velocity": 94,
      "chip": "ym2612"
    },
    {
      "channel": 5,
      "note": 56,
      "start": 24.7363,
      "duration": 0.141,
      "velocity": 117,
      "chip": "ym2612"
    },
    {
      "channel": 4,
      "note": 52,
      "start": 24.8816,
      "duration": 0.0467,
      "velocity": 94,
      "chip": "ym2612"
    },
    {
      "channel": 5,
      "note": 57,
      "start": 24.8849,
      "duration": 0.0758,
      "velocity": 115,
      "chip": "ym2612"
    },
    {
      "channel": 5,
      "note": 57,
      "start": 24.9679,
      "duration": 0.1428,
      "velocity": 115,
      "chip": "ym2612"
    },
    {
      "channel": 4,
      "note": 52,
      "start": 25.115,
      "duration": 0.1803,
      "velocity": 94,
      "chip": "ym2612"
    },
    {
      "channel": 5,
      "note": 57,
      "start": 25.1183,
      "duration": 0.0756,
      "velocity": 115,
      "chip": "ym2612"
    },
    {
      "channel": 5,
      "note": 48,
      "start": 25.201,
      "duration": 0.2263,
      "velocity": 127,
      "chip": "ym2612"
    },
    {
      "channel": 5,
      "note": 57,
      "start": 25.4346,
      "duration": 0.1593,
      "velocity": 115,
      "chip": "ym2612"
    },
    {
      "channel": 4,
      "note": 52,
      "start": 25.5981,
      "duration": 0.0471,
      "velocity": 94,
      "chip": "ym2612"
    },
    {
      "channel": 5,
      "note": 56,
      "start": 25.6015,
      "duration": 0.0591,
      "velocity": 117,
      "chip": "ym2612"
    },
    {
      "channel": 2,
      "note": 76,
      "start": 25.6639,
      "duration": 0.466,
      "velocity": 117,
      "chip": "ym2612"
    },
    {
      "channel": 3,
      "note": 71,
      "start": 25.6649,
      "duration": 0.4659,
      "velocity": 117,
      "chip": "ym2612"
    },
    {
      "channel": 4,
      "note": 52,
      "start": 25.6656,
      "duration": 0.1129,
      "velocity": 94,
      "chip": "ym2612"
    },
    {
      "channel": 5,
      "note": 57,
      "start": 25.669,
      "duration": 0.1584,
      "velocity": 115,
      "chip": "ym2612"
    },
    {
      "channel": 4,
      "note": 52,
      "start": 25.8317,
      "duration": 0.0468,
      "velocity": 94,
      "chip": "ym2612"
    },
    {
      "channel": 5,
      "note": 56,
      "start": 25.8351,
      "duration": 0.2255,
      "velocity": 117,
      "chip": "ym2612"
    },
    {
      "channel": 4,
      "note": 52,
      "start": 26.0648,
      "duration": 0.1804,
      "velocity": 94,
      "chip": "ym2612"
    },
    {
      "channel": 5,
      "note": 56,
      "start": 26.0682,
      "duration": 0.0591,
      "velocity": 117,
      "chip": "ym2612"
    },
    {
      "channel": 2,
      "note": 74,
      "start": 26.1306,
      "duration": 0.4833,
      "velocity": 117,
      "chip": "ym2612"
    },
    {
      "channel": 3,
      "note": 69,
      "start": 26.1315,
      "duration": 0.4833,
      "velocity": 117,
      "chip": "ym2612"
    },
    {
      "channel": 5,
      "note": 48,
      "start": 26.1352,
      "duration": 0.2255,
      "velocity": 127,
      "chip": "ym2612"
    },
    {
      "channel": 4,
      "note": 52,
      "start": 26.2958,
      "duration": 0.1828,
      "velocity": 94,
      "chip": "ym2612"
    },
    {
      "channel": 5,
      "note": 57,
      "start": 26.3679,
      "duration": 0.1594,
      "velocity": 115,
      "chip": "ym2612"
    },
    {
      "channel": 4,
      "note": 52,
      "start": 26.5315,
      "duration": 0.0471,
      "velocity": 94,
      "chip": "ym2612"
    },
    {
      "channel": 5,
      "note": 56,
      "start": 26.5348,
      "duration": 0.0759,
      "velocity": 117,
      "chip": "ym2612"
    },
    {
      "channel": 2,
      "note": 74,
      "start": 26.6146,
      "duration": 1.3988,
      "velocity": 117,
      "chip": "ym2612"
    },
    {
      "channel": 3,
      "note": 69,
      "start": 26.6154,
      "duration": 1.3988,
      "velocity": 117,
      "chip": "ym2612"
    },
    {
      "channel": 4,
      "note": 52,
      "start": 26.6163,
      "duration": 0.112,
      "velocity": 94,
      "chip": "ym2612"
    },
    {
      "channel": 5,
      "note": 56,
      "start": 26.6197,
      "duration": 0.141,
      "velocity": 117,
      "chip": "ym2612"
    },
    {
      "channel": 4,
      "note": 52,
      "start": 26.7649,
      "duration": 0.0469,
      "velocity": 94,
      "chip": "ym2612"
    },
    {
      "channel": 5,
      "note": 57,
      "start": 26.7683,
      "duration": 0.0758,
      "velocity": 115,
      "chip": "ym2612"
    },
    {
      "channel": 5,
      "note": 57,
      "start": 26.8512,
      "duration": 0.1427,
      "velocity": 115,
      "chip": "ym2612"
    },
    {
      "channel": 4,
      "note": 52,
      "start": 26.9981,
      "duration": 0.1805,
      "velocity": 94,
      "chip": "ym2612"
    },
    {
      "channel": 5,
      "note": 57,
      "start": 27.0015,
      "duration": 0.0759,
      "velocity": 115,
      "chip": "ym2612"
    },
    {
      "channel": 5,
      "note": 48,
      "start": 27.0846,
      "duration": 0.2261,
      "velocity": 127,
      "chip": "ym2612"
    },
    {
      "channel": 5,
      "note": 57,
      "start": 27.318,
      "duration": 0.1426,
      "velocity": 115,
      "chip": "ym2612"
    },
    {
      "channel": 4,
      "note": 52,
      "start": 27.4648,
      "duration": 0.0471,
      "velocity": 94,
      "chip": "ym2612"
    },
    {
      "channel": 5,
      "note": 56,
      "start": 27.4682,
      "duration": 0.0759,
      "velocity": 117,
      "chip": "ym2612"
    },
    {
      "channel": 4,
      "note": 52,
      "start": 27.5483,
      "duration": 0.1134,
      "velocity": 94,
      "chip": "ym2612"
    },
    {
      "channel": 5,
      "note": 57,
      "start": 27.5516,
      "duration": 0.2258,
      "velocity": 115,
      "chip": "ym2612"
    },
    {
      "channel": 4,
      "note": 52,
      "start": 27.6958,
      "duration": 0.0494,
      "velocity": 94,
      "chip": "ym2612"
    },
    {
      "channel": 5,
      "note": 56,
      "start": 27.7846,
      "duration": 0.2261,
      "velocity": 117,
      "chip": "ym2612"
    },
    {
      "channel": 4,
      "note": 52,
      "start": 27.929,
      "duration": 0.1829,
      "velocity": 94,
      "chip": "ym2612"
    },
    {
      "channel": 2,
      "note": 78,
      "start": 28.0141,
      "duration": 0.4667,
      "velocity": 117,
      "chip": "ym2612"
    },
    {
      "channel": 3,
      "note": 74,
      "start": 28.015,
      "duration": 0.4666,
      "velocity": 117,
      "chip": "ym2612"
    },
    {
      "channel": 5,
      "note": 48,
      "start": 28.0187,
      "duration": 0.2254,
      "velocity": 127,
      "chip": "ym2612"
    },
    {
      "channel": 4,
      "note": 52,
      "start": 28.1792,
      "duration": 0.1827,
      "velocity": 94,
      "chip": "ym2612"
    },
    {
      "channel": 5,
      "note": 57,
      "start": 28.2513,
      "duration": 0.1594,
      "velocity": 115,
      "chip": "ym2612"
    },
    {
      "channel": 4,
      "note": 52,
      "start": 28.415,
      "duration": 0.0467,
      "velocity": 94,
      "chip": "ym2612"
    },
    {
      "channel": 5,
      "note": 57,
      "start": 28.4183,
      "duration": 0.0592,
      "velocity": 115,
      "chip": "ym2612"
    },
    {
      "channel": 2,
      "note": 79,
      "start": 28.4815,
      "duration": 0.9486,
      "velocity": 117,
      "chip": "ym2612"
    },
    {
      "channel": 3,
      "note": 74,
      "start": 28.4823,
      "duration": 0.9486,
      "velocity": 117,
      "chip": "ym2612"
    },
    {
      "channel": 4,
      "note": 55,
      "start": 28.4832,
      "duration": 0.1118,
      "velocity": 94,
      "chip": "ym2612"
    },
    {
      "channel": 5,
      "note": 56,
      "start": 28.4865,
      "duration": 0.1576,
      "velocity": 117,
      "chip": "ym2612"
    },
    {
      "channel": 4,
      "note": 55,
      "start": 28.6484,
      "duration": 0.0468,
      "velocity": 94,
      "chip": "ym2612"
    },
    {
      "channel": 5,
      "note": 57,
      "start": 28.6517,
      "duration": 0.059,
      "velocity": 115,
      "chip": "ym2612"
    },
    {
      "channel": 5,
      "note": 57,
      "start": 28.7179,
      "duration": 0.1595,
      "velocity": 115,
      "chip": "ym2612"
    },
    {
      "channel": 4,
      "note": 55,
      "start": 28.8816,
      "duration": 0.1802,
      "velocity": 94,
      "chip": "ym2612"
    },
    {
      "channel": 5,
      "note": 57,
      "start": 28.885,
      "duration": 0.059,
      "velocity": 115,
      "chip": "ym2612"
    },
    {
      "channel": 5,
      "note": 48,
      "start": 28.9512,
      "duration": 0.2427,
      "velocity": 127,
      "chip": "ym2612"
    },
    {
      "channel": 5,
      "note": 57,
      "start": 29.201,
      "duration": 0.143,
      "velocity": 115,
      "chip": "ym2612"
    },
    {
      "channel": 4,
      "note": 55,
      "start": 29.3483,
      "duration": 0.0467,
      "velocity": 94,
      "chip": "ym2612"
    },
    {
      "channel": 5,
      "note": 56,
      "start": 29.3516,
      "duration": 0.0758,
      "velocity": 117,
      "chip": "ym2612"
    },
    {
      "channel": 2,
      "note": 78,
      "start": 29.4307,
      "duration": 0.934,
      "velocity": 117,
      "chip": "ym2612"
    },
    {
      "channel": 3,
      "note": 74,
      "start": 29.4316,
      "duration": 0.934,
      "velocity": 117,
      "chip": "ym2612"
    },
    {
      "channel": 4,
      "note": 54,
      "start": 29.4324,
      "duration": 0.1128,
      "velocity": 94,
      "chip": "ym2612"
    },
    {
      "channel": 5,
      "note": 57,
      "start": 29.4358,
      "duration": 0.1416,
      "velocity": 115,
      "chip": "ym2612"
    },
    {
      "channel": 4,
      "note": 54,
      "start": 29.5816,
      "duration": 0.0471,
      "velocity": 94,
      "chip": "ym2612"
    },
    {
      "channel": 5,
      "note": 56,
      "start": 29.5849,
      "duration": 0.0756,
      "velocity": 117,
      "chip": "ym2612"
    },
    {
      "channel": 5,
      "note": 56,
      "start": 29.6678,
      "duration": 0.1429,
      "velocity": 117,
      "chip": "ym2612"
    },
    {
      "channel": 4,
      "note": 54,
      "start": 29.815,
      "duration": 0.1802,
      "velocity": 94,
      "chip": "ym2612"
    },
    {
      "channel": 5,
      "note": 48,
      "start": 29.8183,
      "duration": 0.0757,
      "velocity": 127,
      "chip": "ym2612"
    },
    {
      "channel": 5,
      "note": 48,
      "start": 29.9012,
      "duration": 0.226,
      "velocity": 127,
      "chip": "ym2612"
    },
    {
      "channel": 4,
      "note": 54,
      "start": 30.0458,
      "duration": 0.1828,
      "velocity": 94,
      "chip": "ym2612"
    },
    {
      "channel": 5,
      "note": 48,
      "start": 30.1345,
      "duration": 0.1429,
      "velocity": 127,
      "chip": "ym2612"
    },
    {
      "channel": 4,
      "note": 54,
      "start": 30.2816,
      "duration": 0.0468,
      "velocity": 94,
      "chip": "ym2612"
    },
    {
      "channel": 5,
      "note": 48,
      "start": 30.285,
      "duration": 0.076,
      "velocity": 127,
      "chip": "ym2612"
    },
    {
      "channel": 1,
      "note": 67,
      "start": 30.3646,
      "duration": 1.1798,
      "velocity": 97,
      "chip": "ym2612"
    },
    {
      "channel": 2,
      "note": 67,
      "start": 30.3654,
      "duration": 0.1487,
      "velocity": 117,
      "chip": "ym2612"
    },
    {
      "channel": 3,
      "note": 64,
      "start": 30.3662,
      "duration": 0.1487,
      "velocity": 117,
      "chip": "ym2612"
    },
    {
      "channel": 4,
      "note": 52,
      "start": 30.3671,
      "duration": 0.1122,
      "velocity": 94,
      "chip": "ym2612"
    },
    {
      "channel": 5,
      "note": 56,
      "start": 30.3704,
      "duration": 0.1403,
      "velocity": 117,
      "chip": "ym2612"
    },
    {
      "channel": 0,
      "note": 71,
      "start": 30.3947,
      "duration": 1.1495,
      "velocity": 97,
      "chip": "ym2612"
    },
    {
      "channel": 2,
      "note": 67,
      "start": 30.5149,
      "duration": 0.2494,
      "velocity": 117,
      "chip": "ym2612"
    },
    {
      "channel": 3,
      "note": 64,
      "start": 30.5157,
      "duration": 0.2495,
      "velocity": 117,
      "chip": "ym2612"
    },
    {
      "channel": 4,
      "note": 52,
      "start": 30.5164,
      "duration": 0.0462,
      "velocity": 94,
      "chip": "ym2612"
    },
    {
      "channel": 5,
      "note": 57,
      "start": 30.5198,
      "duration": 0.0741,
      "velocity": 115,
      "chip": "ym2612"
    },
    {
      "channel": 5,
      "note": 57,
      "start": 30.6017,
      "duration": 0.159,
      "velocity": 115,
      "chip": "ym2612"
    },
    {
      "channel": 2,
      "note": 67,
      "start": 30.765,
      "duration": 1.3993,
      "velocity": 117,
      "chip": "ym2612"
    },
    {
      "channel": 3,
      "note": 64,
      "start": 30.7659,
      "duration": 1.3992,
      "velocity": 117,
      "chip": "ym2612"
    },
    {
      "channel": 4,
      "note": 52,
      "start": 30.7667,
      "duration": 0.1792,
      "velocity": 94,
      "chip": "ym2612"
    },
    {
      "channel": 5,
      "note": 57,
      "start": 30.7701,
      "duration": 0.0573,
      "velocity": 115,
      "chip": "ym2612"
    },
    {
      "channel": 5,
      "note": 48,
      "start": 30.8353,
      "duration": 0.2253,
      "velocity": 127,
      "chip": "ym2612"
    },
    {
      "channel": 5,
      "note": 57,
      "start": 31.0686,
      "duration": 0.1588,
      "velocity": 115,
      "chip": "ym2612"
    },
    {
      "channel": 4,
      "note": 52,
      "start": 31.2324,
      "duration": 0.0468,
      "velocity": 94,
      "chip": "ym2612"
    },
    {
      "channel": 5,
      "note": 56,
      "start": 31.2358,
      "duration": 0.0583,
      "velocity": 117,
      "chip": "ym2612"
    },
    {
      "channel": 4,
      "note": 52,
      "start": 31.2991,
      "duration": 0.1135,
      "velocity": 94,
      "chip": "ym2612"
    },
    {
      "channel": 5,
      "note": 57,
      "start": 31.3024,
      "duration": 0.1581,
      "velocity": 115,
      "chip": "ym2612"
    },
    {
      "channel": 4,
      "note": 52,
      "start": 31.4657,
      "duration": 0.0469,
      "velocity": 94,
      "chip": "ym2612"
    },
    {
      "channel": 5,
      "note": 56,
      "start": 31.469,
      "duration": 0.0582,
      "velocity": 117,
      "chip": "ym2612"
    },
    {
      "channel": 5,
      "note": 56,
      "start": 31.5352,
      "duration": 0.2422,
      "velocity": 117,
      "chip": "ym2612"
    },
    {
      "channel": 4,
      "note": 52,
      "start": 31.6965,
      "duration": 0.1828,
      "velocity": 94,
      "chip": "ym2612"
    },
    {
      "channel": 0,
      "note": 71,
      "start": 31.7807,
      "duration": 0.3634,
      "velocity": 97,
      "chip": "ym2612"
    },
    {
      "channel": 1,
      "note": 67,
      "start": 31.7816,
      "duration": 0.3627,
      "velocity": 97,
      "chip": "ym2612"
    },
    {
      "channel": 5,
      "note": 48,
      "start": 31.7861,
      "duration": 0.2246,
      "velocity": 127,
      "chip": "ym2612"
    },
    {
      "channel": 4,
      "note": 52,
      "start": 31.9297,
      "duration": 0.1829,
      "velocity": 94,
      "chip": "ym2612"
    },
    {
      "channel": 5,
      "note": 57,
      "start": 32.0194,
      "duration": 0.1413,
      "velocity": 115,
      "chip": "ym2612"
    },
    {
      "channel": 2,
      "note": 69,
      "start": 32.1649,
      "duration": 0.083,
      "velocity": 117,
      "chip": "ym2612"
    },
    {
      "channel": 3,
      "note": 66,
      "start": 32.1657,
      "duration": 0.083,
      "velocity": 117,
      "chip": "ym2612"
    },
    {
      "channel": 4,
      "note": 50,
      "start": 32.1665,
      "duration": 0.0461,
      "velocity": 94,
      "chip": "ym2612"
    },
    {
      "channel": 5,
      "note": 57,
      "start": 32.1699,
      "duration": 0.0743,
      "velocity": 115,
      "chip": "ym2612"
    },
    {
      "channel": 1,
      "note": 67,
      "start": 32.2478,
      "duration": 0.7631,
      "velocity": 97,
      "chip": "ym2612"
    },
    {
      "channel": 2,
      "note": 67,
      "start": 32.2486,
      "duration": 0.3822,
      "velocity": 117,
      "chip": "ym2612"
    },
    {
      "channel": 3,
      "note": 64,
      "start": 32.2495,
      "duration": 0.3822,
      "velocity": 117,
      "chip": "ym2612"
    },
    {
      "channel": 4,
      "note": 48,
      "start": 32.2503,
      "duration": 0.1123,
      "velocity": 94,
      "chip": "ym2612"
    },
    {
      "channel": 5,
      "note": 56,
      "start": 32.2536,
      "duration": 0.1403,
      "velocity": 117,
      "chip": "ym2612"
    },
    {
      "channel": 0,
      "note": 72,
      "start": 32.2782,
      "duration": 0.7326,
      "velocity": 97,
      "chip": "ym2612"
    },
    {
      "channel": 4,
      "note": 48,
      "start": 32.3988,
      "duration": 0.0471,
      "velocity": 94,
      "chip": "ym2612"
    },
    {
      "channel": 5,
      "note": 57,
      "start": 32.4022,
      "duration": 0.0752,
      "velocity": 115,
      "chip": "ym2612"
    },
    {
      "channel": 5,
      "note": 57,
      "start": 32.4854,
      "duration": 0.142,
      "velocity": 115,
      "chip": "ym2612"
    },
    {
      "channel": 2,
      "note": 66,
      "start": 32.6315,
      "duration": 0.316,
      "velocity": 117,
      "chip": "ym2612"
    },
    {
      "channel": 3,
      "note": 62,
      "start": 32.6323,
      "duration": 0.316,
      "velocity": 117,
      "chip": "ym2612"
    },
    {
      "channel": 4,
      "note": 48,
      "start": 32.6331,
      "duration": 0.1795,
      "velocity": 94,
      "chip": "ym2612"
    },
    {
      "channel": 5,
      "note": 57,
      "start": 32.6365,
      "duration": 0.0742,
      "velocity": 115,
      "chip": "ym2612"
    },
    {
      "channel": 5,
      "note": 48,
      "start": 32.7187,
      "duration": 0.2254,
      "velocity": 127,
      "chip": "ym2612"
    },
    {
      "channel": 2,
      "note": 64,
      "start": 32.9482,
      "duration": 0.9327,
      "velocity": 117,
      "chip": "ym2612"
    },
    {
      "channel": 3,
      "note": 60,
      "start": 32.9491,
      "duration": 0.9326,
      "velocity": 117,
      "chip": "ym2612"
    },
    {
      "channel": 5,
      "note": 57,
      "start": 32.9528,
      "duration": 0.1413,
      "velocity": 115,
      "chip": "ym2612"
    },
    {
      "channel": 4,
      "note": 48,
      "start": 33.099,
      "duration": 0.0469,
      "velocity": 94,
      "chip": "ym2612"
    },
    {
      "channel": 5,
      "note": 56,
      "start": 33.1024,
      "duration": 0.075,
      "velocity": 117,
      "chip": "ym2612"
    },
    {
      "channel": 0,
      "note": 76,
      "start": 33.1807,
      "duration": 0.3634,
      "velocity": 97,
      "chip": "ym2612"
    },
    {
      "channel": 1,
      "note": 72,
      "start": 33.1816,
      "duration": 0.3627,
      "velocity": 97,
      "chip": "ym2612"
    },
    {
      "channel": 4,
      "note": 48,
      "start": 33.1834,
      "duration": 0.1125,
      "velocity": 94,
      "chip": "ym2612"
    },
    {
      "channel": 5,
      "note": 57,
      "start": 33.1868,
      "duration": 0.2239,
      "velocity": 115,
      "chip": "ym2612"
    },
    {
      "channel": 4,
      "note": 48,
      "start": 33.3466,
      "duration": 0.049,
      "velocity": 94,
      "chip": "ym2612"
    },
    {
      "channel": 5,
      "note": 56,
      "start": 33.4187,
      "duration": 0.2254,
      "velocity": 117,
      "chip": "ym2612"
    },
    {
      "channel": 4,
      "note": 48,
      "start": 33.58,
      "duration": 0.1826,
      "velocity": 94,
      "chip": "ym2612"
    },
    {
      "channel": 0,
      "note": 72,
      "start": 33.6472,
      "duration": 0.3637,
      "velocity": 97,
      "chip": "ym2612"
    },
    {
      "channel": 1,
      "note": 67,
      "start": 33.6481,
      "duration": 0.3629,
      "velocity": 97,
      "chip": "ym2612"
    },
    {
      "channel": 5,
      "note": 48,
      "start": 33.6528,
      "duration": 0.2246,
      "velocity": 127,
      "chip": "ym2612"
    },
    {
      "channel": 4,
      "note": 48,
      "start": 33.8133,
      "duration": 0.1824,
      "velocity": 94,
      "chip": "ym2612"
    },
    {
      "channel": 2,
      "note": 66,
      "start": 33.8816,
      "duration": 0.1634,
      "velocity": 117,
      "chip": "ym2612"
    },
    {
      "channel": 3,
      "note": 62,
      "start": 33.8824,
      "duration": 0.1634,
      "velocity": 117,
      "chip": "ym2612"
    },
    {
      "channel": 5,
      "note": 56,
      "start": 33.8861,
      "duration": 0.2412,
      "velocity": 117,
      "chip": "ym2612"
    },
    {
      "channel": 2,
      "note": 67,
      "start": 34.0457,
      "duration": 0.0858,
      "velocity": 117,
      "chip": "ym2612"
    },
    {
      "channel": 3,
      "note": 64,
      "start": 34.0465,
      "duration": 0.0857,
      "velocity": 117,
      "chip": "ym2612"
    },
    {
      "channel": 4,
      "note": 49,
      "start": 34.0473,
      "duration": 0.0487,
      "velocity": 94,
      "chip": "ym2612"
    },
    {
      "channel": 0,
      "note": 74,
      "start": 34.1304,
      "duration": 0.3637,
      "velocity": 97,
      "chip": "ym2612"
    },
    {
      "channel": 1,
      "note": 66,
      "start": 34.1312,
      "duration": 0.363,
      "velocity": 97,
      "chip": "ym2612"
    },
    {
      "channel": 2,
      "note": 69,
      "start": 34.1322,
      "duration": 0.466,
      "velocity": 117,
      "chip": "ym2612"
    },
    {
      "channel": 3,
      "note": 66,
      "start": 34.133,
      "duration": 0.466,
      "velocity": 117,
      "chip": "ym2612"
    },
    {
      "channel": 4,
      "note": 50,
      "start": 34.1337,
      "duration": 0.1122,
      "velocity": 94,
      "chip": "ym2612"
    },
    {
      "channel": 5,
      "note": 56,
      "start": 34.1371,
      "duration": 0.1402,
      "velocity": 117,
      "chip": "ym2612"
    },
    {
      "channel": 4,
      "note": 50,
      "start": 34.2823,
      "duration": 0.0468,
      "velocity": 94,
      "chip": "ym2612"
    },
    {
      "channel": 5,
      "note": 57,
      "start": 34.2856,
      "duration": 0.0751,
      "velocity": 115,
      "chip": "ym2612"
    },
    {
      "channel": 5,
      "note": 57,
      "start": 34.3687,
      "duration": 0.142,
      "velocity": 115,
      "chip": "ym2612"
    },
    {
      "channel": 4,
      "note": 50,
      "start": 34.5157,
      "duration": 0.1802,
      "velocity": 94,
      "chip": "ym2612"
    },
    {
      "channel": 5,
      "note": 57,
      "start": 34.5191,
      "duration": 0.0748,
      "velocity": 115,
      "chip": "ym2612"
    },
    {
      "channel": 0,
      "note": 78,
      "start": 34.5971,
      "duration": 0.3637,
      "velocity": 97,
      "chip": "ym2612"
    },
    {
      "channel": 1,
      "note": 69,
      "start": 34.5979,
      "duration": 0.363,
      "velocity": 97,
      "chip": "ym2612"
    },
    {
      "channel": 2,
      "note": 74,
      "start": 34.5988,
      "duration": 0.466,
      "velocity": 117,
      "chip": "ym2612"
    },
    {
      "channel": 3,
      "note": 69,
      "start": 34.5996,
      "duration": 0.466,
      "velocity": 117,
      "chip": "ym2612"
    },
    {
      "channel": 5,
      "note": 48,
      "start": 34.6033,
      "duration": 0.224,
      "velocity": 127,
      "chip": "ym2612"
    },
    {
      "channel": 5,
      "note": 57,
      "start": 34.8354,
      "duration": 0.142,
      "velocity": 115,
      "chip": "ym2612"
    },
    {
      "channel": 4,
      "note": 50,
      "start": 34.9824,
      "duration": 0.0469,
      "velocity": 94,
      "chip": "ym2612"
    },
    {
      "channel": 5,
      "note": 56,
      "start": 34.9858,
      "duration": 0.0748,
      "velocity": 117,
      "chip": "ym2612"
    },
    {
      "channel": 0,
      "note": 81,
      "start": 35.0638,
      "duration": 0.3636,
      "velocity": 97,
      "chip": "ym2612"
    },
    {
      "channel": 1,
      "note": 73,
      "start": 35.0646,
      "duration": 0.3629,
      "velocity": 97,
      "chip": "ym2612"
    },
    {
      "channel": 2,
      "note": 73,
      "start": 35.0655,
      "duration": 0.466,
      "velocity": 117,
      "chip": "ym2612"
    },
    {
      "channel": 3,
      "note": 66,
      "start": 35.0663,
      "duration": 0.466,
      "velocity": 117,
      "chip": "ym2612"
    },
    {
      "channel": 4,
      "note": 50,
      "start": 35.0671,
      "duration": 0.1122,
      "velocity": 94,
      "chip": "ym2612"
    },
    {
      "channel": 5,
      "note": 57,
      "start": 35.0705,
      "duration": 0.1402,
      "velocity": 115,
      "chip": "ym2612"
    },
    {
      "channel": 4,
      "note": 50,
      "start": 35.2156,
      "duration": 0.0468,
      "velocity": 94,
      "chip": "ym2612"
    },
    {
      "channel": 5,
      "note": 56,
      "start": 35.219,
      "duration": 0.0751,
      "velocity": 117,
      "chip": "ym2612"
    },
    {
      "channel": 5,
      "note": 56,
      "start": 35.3021,
      "duration": 0.2252,
      "velocity": 117,
      "chip": "ym2612"
    },
    {
      "channel": 4,
      "note": 50,
      "start": 35.4466,
      "duration": 0.1826,
      "velocity": 94,
      "chip": "ym2612"
    },
    {
      "channel": 0,
      "note": 86,
      "start": 35.5305,
      "duration": 0.3636,
      "velocity": 97,
      "chip": "ym2612"
    },
    {
      "channel": 1,
      "note": 78,
      "start": 35.5313,
      "duration": 0.3629,
      "velocity": 97,
      "chip": "ym2612"
    },
    {
      "channel": 2,
      "note": 69,
      "start": 35.5322,
      "duration": 0.4661,
      "velocity": 117,
      "chip": "ym2612"
    },
    {
      "channel": 3,
      "note": 66,
      "start": 35.533,
      "duration": 0.4662,
      "velocity": 117,
      "chip": "ym2612"
    },
    {
      "channel": 5,
      "note": 48,
      "start": 35.5367,
      "duration": 0.1407,
      "velocity": 127,
      "chip": "ym2612"
    },
    {
      "channel": 4,
      "note": 54,
      "start": 35.6822,
      "duration": 0.1801,
      "velocity": 94,
      "chip": "ym2612"
    },
    {
      "channel": 5,
      "note": 48,
      "start": 35.6856,
      "duration": 0.2417,
      "velocity": 127,
      "chip": "ym2612"
    },
    {
      "channel": 4,
      "note": 50,
      "start": 35.9322,
      "duration": 0.0471,
      "velocity": 94,
      "chip": "ym2612"
    },
    {
      "channel": 5,
      "note": 56,
      "start": 35.9356,
      "duration": 0.0583,
      "velocity": 117,
      "chip": "ym2612"
    },
    {
      "channel": 0,
      "note": 88,
      "start": 35.9972,
      "duration": 0.1802,
      "velocity": 97,
      "chip": "ym2612"
    },
    {
      "channel": 1,
      "note": 83,
      "start": 35.9982,
      "duration": 0.1794,
      "velocity": 97,
      "chip": "ym2612"
    },
    {
      "channel": 2,
      "note": 71,
      "start": 35.999,
      "duration": 0.2326,
      "velocity": 117,
      "chip": "ym2612"
    },
    {
      "channel": 3,
      "note": 64,
      "start": 35.9998,
      "duration": 0.2326,
      "velocity": 117,
      "chip": "ym2612"
    },
    {
      "channel": 4,
      "note": 52,
      "start": 36.0006,
      "duration": 0.178,
      "velocity": 94,
      "chip": "ym2612"
    },
    {
      "channel": 5,
      "note": 48,
      "start": 36.004,
      "duration": 0.2233,
      "velocity": 127,
      "chip": "ym2612"
    },
    {
      "channel": 0,
      "note": 86,
      "start": 36.2306,
      "duration": 0.1802,
      "velocity": 97,
      "chip": "ym2612"
    },
    {
      "channel": 1,
      "note": 81,
      "start": 36.2315,
      "duration": 0.1795,
      "velocity": 97,
      "chip": "ym2612"
    },
    {
      "channel": 2,
      "note": 69,
      "start": 36.2323,
      "duration": 0.2325,
      "velocity": 117,
      "chip": "ym2612"
    },
    {
      "channel": 3,
      "note": 62,
      "start": 36.2331,
      "duration": 0.2325,
      "velocity": 117,
      "chip": "ym2612"
    },
    {
      "channel": 4,
      "note": 50,
      "start": 36.2338,
      "duration": 0.1782,
      "velocity": 94,
      "chip": "ym2612"
    },
    {
      "channel": 5,
      "note": 48,
      "start": 36.2372,
      "duration": 0.2234,
      "velocity": 127,
      "chip": "ym2612"
    },
    {
      "channel": 0,
      "note": 88,
      "start": 36.4638,
      "duration": 0.1803,
      "velocity": 97,
      "chip": "ym2612"
    },
    {
      "channel": 1,
      "note": 83,
      "start": 36.4646,
      "duration": 0.1796,
      "velocity": 97,
      "chip": "ym2612"
    },
    {
      "channel": 2,
      "note": 71,
      "start": 36.4655,
      "duration": 0.2496,
      "velocity": 117,
      "chip": "ym2612"
    },
    {
      "channel": 3,
      "note": 64,
      "start": 36.4663,
      "duration": 0.2496,
      "velocity": 117,
      "chip": "ym2612"
    },
    {
      "channel": 4,
      "note": 52,
      "start": 36.467,
      "duration": 0.1783,
      "velocity": 94,
      "chip": "ym2612"
    },
    {
      "channel": 5,
      "note": 48,
      "start": 36.4704,
      "duration": 0.2403,
      "velocity": 127,
      "chip": "ym2612"
    },
    {
      "channel": 0,
      "note": 88,
      "start": 36.714,
      "duration": 0.1134,
      "velocity": 97,
      "chip": "ym2612"
    },
    {
      "channel": 1,
      "note": 83,
      "start": 36.715,
      "duration": 0.1126,
      "velocity": 97,
      "chip": "ym2612"
    },
    {
      "channel": 2,
      "note": 71,
      "start": 36.7158,
      "duration": 0.1492,
      "velocity": 117,
      "chip": "ym2612"
    },
    {
      "channel": 3,
      "note": 64,
      "start": 36.7166,
      "duration": 0.1492,
      "velocity": 117,
      "chip": "ym2612"
    },
    {
      "channel": 4,
      "note": 52,
      "start": 36.7175,
      "duration": 0.1112,
      "velocity": 94,
      "chip": "ym2612"
    },
    {
      "channel": 5,
      "note": 48,
      "start": 36.7208,
      "duration": 0.1398,
      "velocity": 127,
      "chip": "ym2612"
    },
    {
      "channel": 0,
      "note": 88,
      "start": 36.8639,
      "duration": 0.0469,
      "velocity": 97,
      "chip": "ym2612"
    },
    {
      "channel": 1,
      "note": 83,
      "start": 36.8649,
      "duration": 0.0461,
      "velocity": 97,
      "chip": "ym2612"
    },
    {
      "channel": 2,
      "note": 71,
      "start": 36.8657,
      "duration": 0.0791,
      "velocity": 117,
      "chip": "ym2612"
    },
    {
      "channel": 3,
      "note": 64,
      "start": 36.8665,
      "duration": 0.0786,
      "velocity": 117,
      "chip": "ym2612"
    },
    {
      "channel": 4,
      "note": 52,
      "start": 36.8673,
      "duration": 0.0447,
      "velocity": 94,
      "chip": "ym2612"
    },
    {
      "channel": 5,
      "note": 48,
      "start": 36.8707,
      "duration": 0.2233,
      "velocity": 127,
      "chip": "ym2612"
    },
    {
      "channel": 5,
      "note": 56,
      "start": 37.1002,
      "duration": 0.2271,
      "velocity": 117,
      "chip": "ym2612"
    },
    {
      "channel": 5,
      "note": 56,
      "start": 37.3334,
      "duration": 0.0773,
      "velocity": 117,
      "chip": "ym2612"
    },
    {
      "channel": 5,
      "note": 48,
      "start": 37.4169,
      "duration": 0.1438,
      "velocity": 127,
      "chip": "ym2612"
    },
    {
      "channel": 5,
      "note": 48,
      "start": 37.5669,
      "duration": 0.0772,
      "velocity": 127,
      "chip": "ym2612"
    },
    {
      "channel": 5,
      "note": 48,
      "start": 37.6502,
      "duration": 0.1437,
      "velocity": 127,
      "chip": "ym2612"
    },
    {
      "channel": 5,
      "note": 48,
      "start": 37.8001,
      "duration": 0.0774,
      "velocity": 127,
      "chip": "ym2612"
    },
    {
      "channel": 0,
      "note": 79,
      "start": 37.8808,
      "duration": 1.5798,
      "velocity": 97,
      "chip": "ym2612"
    },
    {
      "channel": 1,
      "note": 76,
      "start": 37.8817,
      "duration": 1.5791,
      "velocity": 97,
      "chip": "ym2612"
    },
    {
      "channel": 2,
      "note": 76,
      "start": 37.8827,
      "duration": 2.8156,
      "velocity": 117,
      "chip": "ym2612"
    },
    {
      "channel": 3,
      "note": 76,
      "start": 37.8835,
      "duration": 2.8157,
      "velocity": 117,
      "chip": "ym2612"
    },
    {
      "channel": 4,
      "note": 60,
      "start": 37.8844,
      "duration": 0.5617,
      "velocity": 94,
      "chip": "ym2612"
    },
    {
      "channel": 5,
      "note": 56,
      "start": 37.8878,
      "duration": 0.1396,
      "velocity": 117,
      "chip": "ym2612"
    },
    {
      "channel": 5,
      "note": 57,
      "start": 38.0352,
      "duration": 0.0755,
      "velocity": 115,
      "chip": "ym2612"
    },
    {
      "channel": 5,
      "note": 57,
      "start": 38.1187,
      "duration": 0.1419,
      "velocity": 115,
      "chip": "ym2612"
    },
    {
      "channel": 5,
      "note": 57,
      "start": 38.2685,
      "duration": 0.0756,
      "velocity": 115,
      "chip": "ym2612"
    },
    {
      "channel": 5,
      "note": 48,
      "start": 38.3519,
      "duration": 0.2254,
      "velocity": 127,
      "chip": "ym2612"
    },
    {
      "channel": 4,
      "note": 60,
      "start": 38.5825,
      "duration": 0.1134,
      "velocity": 94,
      "chip": "ym2612"
    },
    {
      "channel": 5,
      "note": 57,
      "start": 38.5859,
      "duration": 0.1581,
      "velocity": 115,
      "chip": "ym2612"
    },
    {
      "channel": 4,
      "note": 60,
      "start": 38.749,
      "duration": 0.7637,
      "velocity": 94,
      "chip": "ym2612"
    },
    {
      "channel": 5,
      "note": 56,
      "start": 38.7524,
      "duration": 0.0583,
      "velocity": 117,
      "chip": "ym2612"
    },
    {
      "channel": 5,
      "note": 57,
      "start": 38.8186,
      "duration": 0.1588,
      "velocity": 115,
      "chip": "ym2612"
    },
    {
      "channel": 5,
      "note": 56,
      "start": 38.9854,
      "duration": 0.0586,
      "velocity": 117,
      "chip": "ym2612"
    },
    {
      "channel": 5,
      "note": 56,
      "start": 39.0521,
      "duration": 0.242,
      "velocity": 117,
      "chip": "ym2612"
    },
    {
      "channel": 5,
      "note": 48,
      "start": 39.3019,
      "duration": 0.2254,
      "velocity": 127,
      "chip": "ym2612"
    },
    {
      "channel": 5,
      "note": 57,
      "start": 39.5352,
      "duration": 0.1422,
      "velocity": 115,
      "chip": "ym2612"
    },
    {
      "channel": 4,
      "note": 59,
      "start": 39.6823,
      "duration": 0.0469,
      "velocity": 94,
      "chip": "ym2612"
    },
    {
      "channel": 5,
      "note": 57,
      "start": 39.6857,
      "duration": 0.0751,
      "velocity": 115,
      "chip": "ym2612"
    },
    {
      "channel": 0,
      "note": 81,
      "start": 39.7641,
      "duration": 0.7631,
      "velocity": 97,
      "chip": "ym2612"
    },
    {
      "channel": 1,
      "note": 76,
      "start": 39.765,
      "duration": 0.7624,
      "velocity": 97,
      "chip": "ym2612"
    },
    {
      "channel": 4,
      "note": 57,
      "start": 39.7675,
      "duration": 0.5617,
      "velocity": 94,
      "chip": "ym2612"
    },
    {
      "channel": 5,
      "note": 56,
      "start": 39.7708,
      "duration": 0.1399,
      "velocity": 117,
      "chip": "ym2612"
    },
    {
      "channel": 5,
      "note": 57,
      "start": 39.9187,
      "duration": 0.0753,
      "velocity": 115,
      "chip": "ym2612"
    },
    {
      "channel": 5,
      "note": 57,
      "start": 40.0019,
      "duration": 0.1422,
      "velocity": 115,
      "chip": "ym2612"
    },
    {
      "channel": 5,
      "note": 57,
      "start": 40.1519,
      "duration": 0.0754,
      "velocity": 115,
      "chip": "ym2612"
    },
    {
      "channel": 5,
      "note": 48,
      "start": 40.2353,
      "duration": 0.2253,
      "velocity": 127,
      "chip": "ym2612"
    },
    {
      "channel": 4,
      "note": 48,
      "start": 40.4656,
      "duration": 0.1137,
      "velocity": 94,
      "chip": "ym2612"
    },
    {
      "channel": 5,
      "note": 57,
      "start": 40.469,
      "duration": 0.1417,
      "velocity": 115,
      "chip": "ym2612"
    },
    {
      "channel": 4,
      "note": 48,
      "start": 40.6157,
      "duration": 0.0466,
      "velocity": 94,
      "chip": "ym2612"
    },
    {
      "channel": 5,
      "note": 56,
      "start": 40.6191,
      "duration": 0.0749,
      "velocity": 117,
      "chip": "ym2612"
    },
    {
      "channel": 0,
      "note": 78,
      "start": 40.6973,
      "duration": 0.7633,
      "velocity": 97,
      "chip": "ym2612"
    },
    {
      "channel": 1,
      "note": 74,
      "start": 40.6981,
      "duration": 0.7627,
      "velocity": 97,
      "chip": "ym2612"
    },
    {
      "channel": 2,
      "note": 74,
      "start": 40.699,
      "duration": 2.8162,
      "velocity": 117,
      "chip": "ym2612"
    },
    {
      "channel": 3,
      "note": 74,
      "start": 40.7,
      "duration": 2.8161,
      "velocity": 117,
      "chip": "ym2612"
    },
    {
      "channel": 4,
      "note": 50,
      "start": 40.7007,
      "duration": 0.3619,
      "velocity": 94,
      "chip": "ym2612"
    },
    {
      "channel": 5,
      "note": 48,
      "start": 40.7041,
      "duration": 0.1399,
      "velocity": 127,
      "chip": "ym2612"
    },
    {
      "channel": 5,
      "note": 56,
      "start": 40.8519,
      "duration": 0.0754,
      "velocity": 117,
      "chip": "ym2612"
    },
    {
      "channel": 5,
      "note": 56,
      "start": 40.9353,
      "duration": 0.2254,
      "velocity": 117,
      "chip": "ym2612"
    },
    {
      "channel": 4,
      "note": 54,
      "start": 41.1656,
      "duration": 0.3636,
      "velocity": 94,
      "chip": "ym2612"
    },
    {
      "channel": 5,
      "note": 48,
      "start": 41.169,
      "duration": 0.2249,
      "velocity": 127,
      "chip": "ym2612"
    },
    {
      "channel": 5,
      "note": 48,
      "start": 41.402,
      "duration": 0.2255,
      "velocity": 127,
      "chip": "ym2612"
    },
    {
      "channel": 0,
      "note": 79,
      "start": 41.6308,
      "duration": 1.5801,
      "velocity": 97,
      "chip": "ym2612"
    },
    {
      "channel": 1,
      "note": 74,
      "start": 41.6317,
      "duration": 0.3627,
      "velocity": 97,
      "chip": "ym2612"
    },
    {
      "channel": 4,
      "note": 55,
      "start": 41.6341,
      "duration": 0.3615,
      "velocity": 94,
      "chip": "ym2612"
    },
    {
      "channel": 5,
      "note": 56,
      "start": 41.6375,
      "duration": 0.1564,
      "velocity": 117,
      "chip": "ym2612"
    },
    {
      "channel": 5,
      "note": 57,
      "start": 41.8019,
      "duration": 0.0754,
      "velocity": 115,
      "chip": "ym2612"
    },
    {
      "channel": 5,
      "note": 57,
      "start": 41.8853,
      "duration": 0.1421,
      "velocity": 115,
      "chip": "ym2612"
    },
    {
      "channel": 5,
      "note": 57,
      "start": 42.0353,
      "duration": 0.0754,
      "velocity": 115,
      "chip": "ym2612"
    },
    {
      "channel": 1,
      "note": 78,
      "start": 42.1143,
      "duration": 0.3636,
      "velocity": 97,
      "chip": "ym2612"
    },
    {
      "channel": 4,
      "note": 55,
      "start": 42.116,
      "duration": 0.363,
      "velocity": 94,
      "chip": "ym2612"
    },
    {
      "channel": 5,
      "note": 48,
      "start": 42.1194,
      "duration": 0.2247,
      "velocity": 127,
      "chip": "ym2612"
    },
    {
      "channel": 5,
      "note": 57,
      "start": 42.352,
      "duration": 0.142,
      "velocity": 115,
      "chip": "ym2612"
    },
    {
      "channel": 5,
      "note": 56,
      "start": 42.5019,
      "duration": 0.0754,
      "velocity": 117,
      "chip": "ym2612"
    },
    {
      "channel": 1,
      "note": 71,
      "start": 42.5811,
      "duration": 0.7635,
      "velocity": 97,
      "chip": "ym2612"
    },
    {
      "channel": 4,
      "note": 55,
      "start": 42.583,
      "duration": 0.3629,
      "velocity": 94,
      "chip": "ym2612"
    },
    {
      "channel": 5,
      "note": 57,
      "start": 42.5864,
      "duration": 0.1408,
      "velocity": 115,
      "chip": "ym2612"
    },
    {
      "channel": 5,
      "note": 56,
      "start": 42.7352,
      "duration": 0.0755,
      "velocity": 117,
      "chip": "ym2612"
    },
    {
      "channel": 5,
      "note": 56,
      "start": 42.8187,
      "duration": 0.2254,
      "velocity": 117,
      "chip": "ym2612"
    },
    {
      "channel": 4,
      "note": 55,
      "start": 43.0489,
      "duration": 0.1803,
      "velocity": 94,
      "chip": "ym2612"
    },
    {
      "channel": 5,
      "note": 48,
      "start": 43.0524,
      "duration": 0.225,
      "velocity": 127,
      "chip": "ym2612"
    },
    {
      "channel": 4,
      "note": 55,
      "start": 43.2824,
      "duration": 0.1134,
      "velocity": 94,
      "chip": "ym2612"
    },
    {
      "channel": 5,
      "note": 57,
      "start": 43.2858,
      "duration": 0.1416,
      "velocity": 115,
      "chip": "ym2612"
    },
    {
      "channel": 4,
      "note": 55,
      "start": 43.4324,
      "duration": 0.0469,
      "velocity": 94,
      "chip": "ym2612"
    },
    {
      "channel": 5,
      "note": 57,
      "start": 43.4358,
      "duration": 0.0751,
      "velocity": 115,
      "chip": "ym2612"
    },
    {
      "channel": 0,
      "note": 81,
      "start": 43.5141,
      "duration": 0.3633,
      "velocity": 97,
      "chip": "ym2612"
    },
    {
      "channel": 1,
      "note": 72,
      "start": 43.515,
      "duration": 0.3625,
      "velocity": 97,
      "chip": "ym2612"
    },
    {
      "channel": 2,
      "note": 72,
      "start": 43.5159,
      "duration": 0.9489,
      "velocity": 117,
      "chip": "ym2612"
    },
    {
      "channel": 3,
      "note": 79,
      "start": 43.5168,
      "duration": 0.9488,
      "velocity": 117,
      "chip": "ym2612"
    },
    {
      "channel": 4,
      "note": 57,
      "start": 43.5175,
      "duration": 0.1117,
      "velocity": 94,
      "chip": "ym2612"
    },
    {
      "channel": 5,
      "note": 56,
      "start": 43.5209,
      "duration": 0.1565,
      "velocity": 117,
      "chip": "ym2612"
    },
    {
      "channel": 4,
      "note": 57,
      "start": 43.6825,
      "duration": 0.0465,
      "velocity": 94,
      "chip": "ym2612"
    },
    {
      "channel": 5,
      "note": 57,
      "start": 43.6859,
      "duration": 0.0581,
      "velocity": 115,
      "chip": "ym2612"
    },
    {
      "channel": 4,
      "note": 57,
      "start": 43.7492,
      "duration": 0.5634,
      "velocity": 94,
      "chip": "ym2612"
    },
    {
      "channel": 5,
      "note": 57,
      "start": 43.7526,
      "duration": 0.1581,
      "velocity": 115,
      "chip": "ym2612"
    },
    {
      "channel": 5,
      "note": 57,
      "start": 43.9186,
      "duration": 0.0588,
      "velocity": 115,
      "chip": "ym2612"
    },
    {
      "channel": 0,
      "note": 84,
      "start": 43.9806,
      "duration": 0.3636,
      "velocity": 97,
      "chip": "ym2612"
    },
    {
      "channel": 1,
      "note": 76,
      "start": 43.9815,
      "duration": 0.3629,
      "velocity": 97,
      "chip": "ym2612"
    },
    {
      "channel": 5,
      "note": 48,
      "start": 43.986,
      "duration": 0.2247,
      "velocity": 127,
      "chip": "ym2612"
    },
    {
      "channel": 5,
      "note": 57,
      "start": 44.2187,
      "duration": 0.1586,
      "velocity": 115,
      "chip": "ym2612"
    },
    {
      "channel": 5,
      "note": 56,
      "start": 44.3852,
      "duration": 0.0754,
      "velocity": 117,
      "chip": "ym2612"
    },
    {
      "channel": 0,
      "note": 88,
      "start": 44.4638,
      "duration": 0.3636,
      "velocity": 97,
      "chip": "ym2612"
    },
    {
      "channel": 1,
      "note": 84,
      "start": 44.4646,
      "duration": 0.3629,
      "velocity": 97,
      "chip": "ym2612"
    },
    {
      "channel": 2,
      "note": 67,
      "start": 44.4655,
      "duration": 0.466,
      "velocity": 117,
      "chip": "ym2612"
    },
    {
      "channel": 3,
      "note": 72,
      "start": 44.4663,
      "duration": 0.466,
      "velocity": 117,
      "chip": "ym2612"
    },
    {
      "channel": 4,
      "note": 60,
      "start": 44.4671,
      "duration": 0.3617,
      "velocity": 94,
      "chip": "ym2612"
    },
    {
      "channel": 5,
      "note": 48,
      "start": 44.4705,
      "duration": 0.1402,
      "velocity": 127,
      "chip": "ym2612"
    },
    {
      "channel": 5,
      "note": 56,
      "start": 44.6185,
      "duration": 0.0755,
      "velocity": 117,
      "chip": "ym2612"
    },
    {
      "channel": 5,
      "note": 48,
      "start": 44.7021,
      "duration": 0.2251,
      "velocity": 127,
      "chip": "ym2612"
    },
    {
      "channel": 0,
      "note": 86,
      "start": 44.9305,
      "duration": 0.3636,
      "velocity": 97,
      "chip": "ym2612"
    },
    {
      "channel": 1,
      "note": 83,
      "start": 44.9313,
      "duration": 0.3629,
      "velocity": 97,
      "chip": "ym2612"
    },
    {
      "channel": 2,
      "note": 66,
      "start": 44.9322,
      "duration": 0.4662,
      "velocity": 117,
      "chip": "ym2612"
    },
    {
      "channel": 3,
      "note": 74,
      "start": 44.933,
      "duration": 0.4662,
      "velocity": 117,
      "chip": "ym2612"
    },
    {
      "channel": 4,
      "note": 62,
      "start": 44.9337,
      "duration": 0.3618,
      "velocity": 94,
      "chip": "ym2612"
    },
    {
      "channel": 5,
      "note": 48,
      "start": 44.9371,
      "duration": 0.1403,
      "velocity": 127,
      "chip": "ym2612"
    },
    {
      "channel": 5,
      "note": 48,
      "start": 45.0852,
      "duration": 0.0755,
      "velocity": 127,
      "chip": "ym2612"
    },
    {
      "channel": 5,
      "note": 48,
      "start": 45.1688,
      "duration": 0.2252,
      "velocity": 127,
      "chip": "ym2612"
    },
    {
      "channel": 0,
      "note": 83,
      "start": 45.3973,
      "duration": 0.7635,
      "velocity": 97,
      "chip": "ym2612"
    },
    {
      "channel": 1,
      "note": 79,
      "start": 45.3982,
      "duration": 0.7627,
      "velocity": 97,
      "chip": "ym2612"
    },
    {
      "channel": 2,
      "note": 64,
      "start": 45.3991,
      "duration": 0.6985,
      "velocity": 117,
      "chip": "ym2612"
    },
    {
      "channel": 3,
      "note": 71,
      "start": 45.3999,
      "duration": 0.6985,
      "velocity": 117,
      "chip": "ym2612"
    },
    {
      "channel": 4,
      "note": 64,
      "start": 45.4007,
      "duration": 0.1119,
      "velocity": 94,
      "chip": "ym2612"
    },
    {
      "channel": 5,
      "note": 56,
      "start": 45.404,
      "duration": 0.14,
      "velocity": 117,
      "chip": "ym2612"
    },
    {
      "channel": 4,
      "note": 52,
      "start": 45.5489,
      "duration": 0.0468,
      "velocity": 94,
      "chip": "ym2612"
    },
    {
      "channel": 5,
      "note": 57,
      "start": 45.5523,
      "duration": 0.0751,
      "velocity": 115,
      "chip": "ym2612"
    },
    {
      "channel": 4,
      "note": 52,
      "start": 45.6325,
      "duration": 0.18,
      "velocity": 94,
      "chip": "ym2612"
    },
    {
      "channel": 5,
      "note": 57,
      "start": 45.6359,
      "duration": 0.1415,
      "velocity": 115,
      "chip": "ym2612"
    },
    {
      "channel": 5,
      "note": 57,
      "start": 45.7853,
      "duration": 0.0753,
      "velocity": 115,
      "chip": "ym2612"
    },
    {
      "channel": 4,
      "note": 52,
      "start": 45.8655,
      "duration": 0.1804,
      "velocity": 94,
      "chip": "ym2612"
    },
    {
      "channel": 5,
      "note": 48,
      "start": 45.8688,
      "duration": 0.2252,
      "velocity": 127,
      "chip": "ym2612"
    },
    {
      "channel": 2,
      "note": 76,
      "start": 46.0983,
      "duration": 0.2332,
      "velocity": 117,
      "chip": "ym2612"
    },
    {
      "channel": 3,
      "note": 83,
      "start": 46.0991,
      "duration": 0.2331,
      "velocity": 117,
      "chip": "ym2612"
    },
    {
      "channel": 4,
      "note": 52,
      "start": 46.0999,
      "duration": 0.1127,
      "velocity": 94,
      "chip": "ym2612"
    },
    {
      "channel": 5,
      "note": 57,
      "start": 46.1033,
      "duration": 0.1573,
      "velocity": 115,
      "chip": "ym2612"
    },
    {
      "channel": 4,
      "note": 52,
      "start": 46.2656,
      "duration": 0.047,
      "velocity": 94,
      "chip": "ym2612"
    },
    {
      "channel": 5,
      "note": 56,
      "start": 46.269,
      "duration": 0.0583,
      "velocity": 117,
      "chip": "ym2612"
    },
    {
      "channel": 0,
      "note": 77,
      "start": 46.3304,
      "duration": 0.7637,
      "velocity": 97,
      "chip": "ym2612"
    },
    {
      "channel": 1,
      "note": 69,
      "start": 46.3312,
      "duration": 0.763,
      "velocity": 97,
      "chip": "ym2612"
    },
    {
      "channel": 2,
      "note": 77,
      "start": 46.3322,
      "duration": 0.9495,
      "velocity": 117,
      "chip": "ym2612"
    },
    {
      "channel": 3,
      "note": 84,
      "start": 46.333,
      "duration": 0.9496,
      "velocity": 117,
      "chip": "ym2612"
    },
    {
      "channel": 4,
      "note": 53,
      "start": 46.3338,
      "duration": 0.1121,
      "velocity": 94,
      "chip": "ym2612"
    },
    {
      "channel": 5,
      "note": 57,
      "start": 46.3372,
      "duration": 0.1569,
      "velocity": 115,
      "chip": "ym2612"
    },
    {
      "channel": 4,
      "note": 53,
      "start": 46.4992,
      "duration": 0.0467,
      "velocity": 94,
      "chip": "ym2612"
    },
    {
      "channel": 5,
      "note": 56,
      "start": 46.5026,
      "duration": 0.0581,
      "velocity": 117,
      "chip": "ym2612"
    },
    {
      "channel": 4,
      "note": 53,
      "start": 46.5659,
      "duration": 0.18,
      "velocity": 94,
      "chip": "ym2612"
    },
    {
      "channel": 5,
      "note": 56,
      "start": 46.5692,
      "duration": 0.2247,
      "velocity": 117,
      "chip": "ym2612"
    },
    {
      "channel": 4,
      "note": 53,
      "start": 46.7988,
      "duration": 0.1804,
      "velocity": 94,
      "chip": "ym2612"
    },
    {
      "channel": 5,
      "note": 48,
      "start": 46.8022,
      "duration": 0.2419,
      "velocity": 127,
      "chip": "ym2612"
    },
    {
      "channel": 4,
      "note": 53,
      "start": 47.0489,
      "duration": 0.1804,
      "velocity": 94,
      "chip": "ym2612"
    },
    {
      "channel": 5,
      "note": 57,
      "start": 47.0523,
      "duration": 0.1416,
      "velocity": 115,
      "chip": "ym2612"
    },
    {
      "channel": 5,
      "note": 57,
      "start": 47.2017,
      "duration": 0.0758,
      "velocity": 115,
      "chip": "ym2612"
    },
    {
      "channel": 0,
      "note": 74,
      "start": 47.2807,
      "duration": 0.7636,
      "velocity": 97,
      "chip": "ym2612"
    },
    {
      "channel": 1,
      "note": 83,
      "start": 47.2816,
      "duration": 0.7628,
      "velocity": 97,
      "chip": "ym2612"
    },
    {
      "channel": 2,
      "note": 74,
      "start": 47.2824,
      "duration": 1.866,
      "velocity": 117,
      "chip": "ym2612"
    },
    {
      "channel": 3,
      "note": 83,
      "start": 47.2832,
      "duration": 0.9322,
      "velocity": 117,
      "chip": "ym2612"
    },
    {
      "channel": 4,
      "note": 55,
      "start": 47.2841,
      "duration": 0.1116,
      "velocity": 94,
      "chip": "ym2612"
    },
    {
      "channel": 5,
      "note": 56,
      "start": 47.2874,
      "duration": 0.14,
      "velocity": 117,
      "chip": "ym2612"
    },
    {
      "channel": 4,
      "note": 55,
      "start": 47.4323,
      "duration": 0.0471,
      "velocity": 94,
      "chip": "ym2612"
    },
    {
      "channel": 5,
      "note": 57,
      "start": 47.4356,
      "duration": 0.0751,
      "velocity": 115,
      "chip": "ym2612"
    },
    {
      "channel": 4,
      "note": 55,
      "start": 47.5159,
      "duration": 0.18,
      "velocity": 94,
      "chip": "ym2612"
    },
    {
      "channel": 5,
      "note": 57,
      "start": 47.5192,
      "duration": 0.1414,
      "velocity": 115,
      "chip": "ym2612"
    },
    {
      "channel": 5,
      "note": 57,
      "start": 47.6685,
      "duration": 0.0756,
      "velocity": 115,
      "chip": "ym2612"
    },
    {
      "channel": 4,
      "note": 55,
      "start": 47.7489,
      "duration": 0.1802,
      "velocity": 94,
      "chip": "ym2612"
    },
    {
      "channel": 5,
      "note": 48,
      "start": 47.7523,
      "duration": 0.2251,
      "velocity": 127,
      "chip": "ym2612"
    },
    {
      "channel": 4,
      "note": 55,
      "start": 47.9825,
      "duration": 0.1134,
      "velocity": 94,
      "chip": "ym2612"
    },
    {
      "channel": 5,
      "note": 57,
      "start": 47.9859,
      "duration": 0.1414,
      "velocity": 115,
      "chip": "ym2612"
    },
    {
      "channel": 4,
      "note": 55,
      "start": 48.1323,
      "duration": 0.047,
      "velocity": 94,
      "chip": "ym2612"
    },
    {
      "channel": 5,
      "note": 56,
      "start": 48.1356,
      "duration": 0.0751,
      "velocity": 117,
      "chip": "ym2612"
    },
    {
      "channel": 0,
      "note": 78,
      "start": 48.2139,
      "duration": 0.7635,
      "velocity": 97,
      "chip": "ym2612"
    },
    {
      "channel": 1,
      "note": 74,
      "start": 48.2149,
      "duration": 0.3631,
      "velocity": 97,
      "chip": "ym2612"
    },
    {
      "channel": 3,
      "note": 78,
      "start": 48.2161,
      "duration": 0.9331,
      "velocity": 117,
      "chip": "ym2612"
    },
    {
      "channel": 4,
      "note": 59,
      "start": 48.2169,
      "duration": 0.1121,
      "velocity": 94,
      "chip": "ym2612"
    },
    {
      "channel": 5,
      "note": 48,
      "start": 48.2203,
      "duration": 0.1404,
      "velocity": 127,
      "chip": "ym2612"
    },
    {
      "channel": 4,
      "note": 59,
      "start": 48.3656,
      "duration": 0.047,
      "velocity": 94,
      "chip": "ym2612"
    },
    {
      "channel": 5,
      "note": 56,
      "start": 48.369,
      "duration": 0.0751,
      "velocity": 117,
      "chip": "ym2612"
    },
    {
      "channel": 4,
      "note": 59,
      "start": 48.4492,
      "duration": 0.1134,
      "velocity": 94,
      "chip": "ym2612"
    },
    {
      "channel": 5,
      "note": 56,
      "start": 48.4526,
      "duration": 0.2248,
      "velocity": 117,
      "chip": "ym2612"
    },
    {
      "channel": 4,
      "note": 59,
      "start": 48.5964,
      "duration": 0.0496,
      "velocity": 94,
      "chip": "ym2612"
    },
    {
      "channel": 1,
      "note": 86,
      "start": 48.6811,
      "duration": 0.3636,
      "velocity": 97,
      "chip": "ym2612"
    },
    {
      "channel": 4,
      "note": 59,
      "start": 48.6827,
      "duration": 0.1796,
      "velocity": 94,
      "chip": "ym2612"
    },
    {
      "channel": 5,
      "note": 48,
      "start": 48.6861,
      "duration": 0.2246,
      "velocity": 127,
      "chip": "ym2612"
    },
    {
      "channel": 4,
      "note": 59,
      "start": 48.9158,
      "duration": 0.1801,
      "velocity": 94,
      "chip": "ym2612"
    },
    {
      "channel": 5,
      "note": 48,
      "start": 48.9192,
      "duration": 0.2249,
      "velocity": 127,
      "chip": "ym2612"
    },
    {
      "channel": 0,
      "note": 79,
      "start": 49.1473,
      "duration": 1.3636,
      "velocity": 97,
      "chip": "ym2612"
    },
    {
      "channel": 1,
      "note": 83,
      "start": 49.1483,
      "duration": 1.3627,
      "velocity": 97,
      "chip": "ym2612"
    },
    {
      "channel": 2,
      "note": 71,
      "start": 49.1491,
      "duration": 1.6492,
      "velocity": 117,
      "chip": "ym2612"
    },
    {
      "channel": 3,
      "note": 79,
      "start": 49.15,
      "duration": 1.6492,
      "velocity": 117,
      "chip": "ym2612"
    },
    {
      "channel": 4,
      "note": 60,
      "start": 49.1507,
      "duration": 0.1116,
      "velocity": 94,
      "chip": "ym2612"
    },
    {
      "channel": 5,
      "note": 56,
      "start": 49.1541,
      "duration": 0.1566,
      "velocity": 117,
      "chip": "ym2612"
    },
    {
      "channel": 4,
      "note": 52,
      "start": 49.3159,
      "duration": 0.0467,
      "velocity": 94,
      "chip": "ym2612"
    },
    {
      "channel": 5,
      "note": 48,
      "start": 49.3192,
      "duration": 0.0581,
      "velocity": 127,
      "chip": "ym2612"
    },
    {
      "channel": 4,
      "note": 52,
      "start": 49.3825,
      "duration": 0.18,
      "velocity": 94,
      "chip": "ym2612"
    },
    {
      "channel": 5,
      "note": 48,
      "start": 49.3859,
      "duration": 0.2415,
      "velocity": 127,
      "chip": "ym2612"
    },
    {
      "channel": 4,
      "note": 52,
      "start": 49.6322,
      "duration": 0.1803,
      "velocity": 94,
      "chip": "ym2612"
    },
    {
      "channel": 5,
      "note": 48,
      "start": 49.6356,
      "duration": 0.3751,
      "velocity": 127,
      "chip": "ym2612"
    },
    {
      "channel": 4,
      "note": 52,
      "start": 49.8629,
      "duration": 0.1831,
      "velocity": 94,
      "chip": "ym2612"
    },
    {
      "channel": 5,
      "note": 56,
      "start": 50.0186,
      "duration": 0.0754,
      "velocity": 117,
      "chip": "ym2612"
    },
    {
      "channel": 4,
      "note": 52,
      "start": 50.0989,
      "duration": 0.1136,
      "velocity": 94,
      "chip": "ym2612"
    },
    {
      "channel": 5,
      "note": 48,
      "start": 50.1024,
      "duration": 0.2249,
      "velocity": 127,
      "chip": "ym2612"
    },
    {
      "channel": 4,
      "note": 52,
      "start": 50.2467,
      "duration": 0.0493,
      "velocity": 94,
      "chip": "ym2612"
    },
    {
      "channel": 4,
      "note": 52,
      "start": 50.3322,
      "duration": 0.18,
      "velocity": 94,
      "chip": "ym2612"
    },
    {
      "channel": 5,
      "note": 48,
      "start": 50.3356,
      "duration": 0.1418,
      "velocity": 127,
      "chip": "ym2612"
    },
    {
      "channel": 5,
      "note": 48,
      "start": 50.4853,
      "duration": 0.0754,
      "velocity": 127,
      "chip": "ym2612"
    },
    {
      "channel": 4,
      "note": 52,
      "start": 50.5656,
      "duration": 0.1805,
      "velocity": 94,
      "chip": "ym2612"
    },
    {
      "channel": 5,
      "note": 48,
      "start": 50.569,
      "duration": 0.1417,
      "velocity": 127,
      "chip": "ym2612"
    },
    {
      "channel": 5,
      "note": 48,
      "start": 50.7187,
      "duration": 0.0753,
      "velocity": 127,
      "chip": "ym2612"
    },
    {
      "channel": 0,
      "note": 80,
      "start": 50.7972,
      "duration": 2.1161,
      "velocity": 97,
      "chip": "ym2612"
    },
    {
      "channel": 1,
      "note": 84,
      "start": 50.7981,
      "duration": 2.1161,
      "velocity": 97,
      "chip": "ym2612"
    },
    {
      "channel": 2,
      "note": 72,
      "start": 50.799,
      "duration": 0.2328,
      "velocity": 117,
      "chip": "ym2612"
    },
    {
      "channel": 3,
      "note": 80,
      "start": 50.7998,
      "duration": 0.2323,
      "velocity": 117,
      "chip": "ym2612"
    },
    {
      "channel": 4,
      "note": 53,
      "start": 50.8006,
      "duration": 2.1152,
      "velocity": 94,
      "chip": "ym2612"
    },
    {
      "channel": 5,
      "note": 56,
      "start": 50.804,
      "duration": 0.1401,
      "velocity": 117,
      "chip": "ym2612"
    },
    {
      "channel": 5,
      "note": 56,
      "start": 50.9519,
      "duration": 0.0755,
      "velocity": 122,
      "chip": "ym2612"
    },
    {
      "channel": 5,
      "note": 56,
      "start": 51.0365,
      "duration": 0.1574,
      "velocity": 122,
      "chip": "ym2612"
    },
    {
      "channel": 5,
      "note": 56,
      "start": 51.201,
      "duration": 0.0595,
      "velocity": 122,
      "chip": "ym2612"
    },
    {
      "channel": 5,
      "note": 51,
      "start": 51.2677,
      "duration": 0.1597,
      "velocity": 122,
      "chip": "ym2612"
    },
    {
      "channel": 5,
      "note": 51,
      "start": 51.4346,
      "duration": 0.0595,
      "velocity": 122,
      "chip": "ym2612"
    },
    {
      "channel": 5,
      "note": 44,
      "start": 51.5012,
      "duration": 0.1594,
      "velocity": 122,
      "chip": "ym2612"
    },
    {
      "channel": 5,
      "note": 44,
      "start": 51.6677,
      "duration": 0.0595,
      "velocity": 122,
      "chip": "ym2612"
    },
    {
      "channel": 5,
      "note": 56,
      "start": 51.7344,
      "duration": 0.2263,
      "velocity": 117,
      "chip": "ym2612"
    },
    {
      "channel": 5,
      "note": 48,
      "start": 51.9678,
      "duration": 0.4778,
      "velocity": 127,
      "chip": "ym2612"
    },
    {
      "channel": 0,
      "note": 66,
      "start": 52.914,
      "duration": 0.1802,
      "velocity": 97,
      "chip": "ym2612"
    },
    {
      "channel": 1,
      "note": 45,
      "start": 52.9149,
      "duration": 0.1794,
      "velocity": 97,
      "chip": "ym2612"
    },
    {
      "channel": 4,
      "note": 54,
      "start": 52.9164,
      "duration": 0.1783,
      "velocity": 94,
      "chip": "ym2612"
    },
    {
      "channel": 5,
      "note": 56,
      "start": 52.9197,
      "duration": 0.2244,
      "velocity": 117,
      "chip": "ym2612"
    },
    {
      "channel": 0,
      "note": 85,
      "start": 53.1473,
      "duration": 0.5634,
      "velocity": 97,
      "chip": "ym2612"
    },
    {
      "channel": 1,
      "note": 81,
      "start": 53.1483,
      "duration": 0.5626,
      "velocity": 97,
      "chip": "ym2612"
    },
    {
      "channel": 2,
      "note": 66,
      "start": 53.1491,
      "duration": 0.6993,
      "velocity": 117,
      "chip": "ym2612"
    },
    {
      "channel": 3,
      "note": 61,
      "start": 53.15,
      "duration": 0.6993,
      "velocity": 117,
      "chip": "ym2612"
    },
    {
      "channel": 4,
      "note": 54,
      "start": 53.1507,
      "duration": 0.1784,
      "velocity": 94,
      "chip": "ym2612"
    },
    {
      "channel": 5,
      "note": 48,
      "start": 53.154,
      "duration": 0.3732,
      "velocity": 127,
      "chip": "ym2612"
    },
    {
      "channel": 4,
      "note": 49,
      "start": 53.38,
      "duration": 0.1826,
      "velocity": 94,
      "chip": "ym2612"
    },
    {
      "channel": 5,
      "note": 56,
      "start": 53.5351,
      "duration": 0.0756,
      "velocity": 122,
      "chip": "ym2612"
    },
    {
      "channel": 5,
      "note": 56,
      "start": 53.6186,
      "duration": 0.1588,
      "velocity": 122,
      "chip": "ym2612"
    },
    {
      "channel": 4,
      "note": 52,
      "start": 53.7824,
      "duration": 0.2333,
      "velocity": 94,
      "chip": "ym2612"
    },
    {
      "channel": 5,
      "note": 56,
      "start": 53.7858,
      "duration": 0.0583,
      "velocity": 117,
      "chip": "ym2612"
    },
    {
      "channel": 0,
      "note": 78,
      "start": 53.8473,
      "duration": 0.1134,
      "velocity": 97,
      "chip": "ym2612"
    },
    {
      "channel": 1,
      "note": 73,
      "start": 53.8483,
      "duration": 0.1796,
      "velocity": 97,
      "chip": "ym2612"
    },
    {
      "channel": 2,
      "note": 67,
      "start": 53.8491,
      "duration": 0.2326,
      "velocity": 117,
      "chip": "ym2612"
    },
    {
      "channel": 3,
      "note": 64,
      "start": 53.85,
      "duration": 0.2326,
      "velocity": 117,
      "chip": "ym2612"
    },
    {
      "channel": 5,
      "note": 57,
      "start": 53.8541,
      "duration": 0.1566,
      "velocity": 115,
      "chip": "ym2612"
    },
    {
      "channel": 0,
      "note": 73,
      "start": 54.014,
      "duration": 0.0466,
      "velocity": 97,
      "chip": "ym2612"
    },
    {
      "channel": 4,
      "note": 54,
      "start": 54.0163,
      "duration": 0.0457,
      "velocity": 94,
      "chip": "ym2612"
    },
    {
      "channel": 5,
      "note": 56,
      "start": 54.0196,
      "duration": 0.0578,
      "velocity": 117,
      "chip": "ym2612"
    },
    {
      "channel": 0,
      "note": 76,
      "start": 54.0807,
      "duration": 0.1132,
      "velocity": 97,
      "chip": "ym2612"
    },
    {
      "channel": 1,
      "note": 45,
      "start": 54.0816,
      "duration": 0.1125,
      "velocity": 97,
      "chip": "ym2612"
    },
    {
      "channel": 2,
      "note": 66,
      "start": 54.0824,
      "duration": 0.2326,
      "velocity": 117,
      "chip": "ym2612"
    },
    {
      "channel": 3,
      "note": 61,
      "start": 54.0832,
      "duration": 0.2327,
      "velocity": 117,
      "chip": "ym2612"
    },
    {
      "channel": 4,
      "note": 57,
      "start": 54.084,
      "duration": 0.1784,
      "velocity": 94,
      "chip": "ym2612"
    },
    {
      "channel": 5,
      "note": 56,
      "start": 54.0874,
      "duration": 0.2233,
      "velocity": 117,
      "chip": "ym2612"
    },
    {
      "channel": 0,
      "note": 73,
      "start": 54.2449,
      "duration": 0.0492,
      "velocity": 97,
      "chip": "ym2612"
    },
    {
      "channel": 1,
      "note": 57,
      "start": 54.2458,
      "duration": 0.0484,
      "velocity": 97,
      "chip": "ym2612"
    },
    {
      "channel": 0,
      "note": 76,
      "start": 54.314,
      "duration": 0.1134,
      "velocity": 97,
      "chip": "ym2612"
    },
    {
      "channel": 1,
      "note": 61,
      "start": 54.3149,
      "duration": 0.1127,
      "velocity": 97,
      "chip": "ym2612"
    },
    {
      "channel": 2,
      "note": 64,
      "start": 54.3157,
      "duration": 0.2317,
      "velocity": 117,
      "chip": "ym2612"
    },
    {
      "channel": 3,
      "note": 59,
      "start": 54.3166,
      "duration": 0.2317,
      "velocity": 117,
      "chip": "ym2612"
    },
    {
      "channel": 4,
      "note": 56,
      "start": 54.3173,
      "duration": 0.1786,
      "velocity": 94,
      "chip": "ym2612"
    },
    {
      "channel": 5,
      "note": 48,
      "start": 54.3206,
      "duration": 0.2234,
      "velocity": 127,
      "chip": "ym2612"
    },
    {
      "channel": 0,
      "note": 78,
      "start": 54.4782,
      "duration": 0.049,
      "velocity": 97,
      "chip": "ym2612"
    },
    {
      "channel": 1,
      "note": 61,
      "start": 54.4792,
      "duration": 0.0483,
      "velocity": 97,
      "chip": "ym2612"
    },
    {
      "channel": 2,
      "note": 61,
      "start": 54.5481,
      "duration": 0.1663,
      "velocity": 117,
      "chip": "ym2612"
    },
    {
      "channel": 3,
      "note": 57,
      "start": 54.5489,
      "duration": 0.1665,
      "velocity": 117,
      "chip": "ym2612"
    },
    {
      "channel": 4,
      "note": 52,
      "start": 54.5496,
      "duration": 0.179,
      "velocity": 94,
      "chip": "ym2612"
    },
    {
      "channel": 5,
      "note": 57,
      "start": 54.553,
      "duration": 0.1577,
      "velocity": 115,
      "chip": "ym2612"
    },
    {
      "channel": 0,
      "note": 66,
      "start": 54.7139,
      "duration": 0.0468,
      "velocity": 97,
      "chip": "ym2612"
    },
    {
      "channel": 2,
      "note": 62,
      "start": 54.7152,
      "duration": 0.5798,
      "velocity": 117,
      "chip": "ym2612"
    },
    {
      "channel": 3,
      "note": 57,
      "start": 54.7161,
      "duration": 0.5797,
      "velocity": 117,
      "chip": "ym2612"
    },
    {
      "channel": 5,
      "note": 57,
      "start": 54.7198,
      "duration": 0.0744,
      "velocity": 115,
      "chip": "ym2612"
    },
    {
      "channel": 0,
      "note": 78,
      "start": 54.7975,
      "duration": 0.1133,
      "velocity": 97,
      "chip": "ym2612"
    },
    {
      "channel": 1,
      "note": 62,
      "start": 54.7986,
      "duration": 0.1123,
      "velocity": 97,
      "chip": "ym2612"
    },
    {
      "channel": 4,
      "note": 50,
      "start": 54.801,
      "duration": 0.1109,
      "velocity": 94,
      "chip": "ym2612"
    },
    {
      "channel": 5,
      "note": 56,
      "start": 54.8044,
      "duration": 0.1396,
      "velocity": 117,
      "chip": "ym2612"
    },
    {
      "channel": 0,
      "note": 74,
      "start": 54.9473,
      "duration": 0.0466,
      "velocity": 97,
      "chip": "ym2612"
    },
    {
      "channel": 5,
      "note": 57,
      "start": 54.9524,
      "duration": 0.0749,
      "velocity": 115,
      "chip": "ym2612"
    },
    {
      "channel": 0,
      "note": 76,
      "start": 55.0307,
      "duration": 0.1134,
      "velocity": 97,
      "chip": "ym2612"
    },
    {
      "channel": 4,
      "note": 52,
      "start": 55.0328,
      "duration": 0.1798,
      "velocity": 94,
      "chip": "ym2612"
    },
    {
      "channel": 5,
      "note": 57,
      "start": 55.0361,
      "duration": 0.1412,
      "velocity": 115,
      "chip": "ym2612"
    },
    {
      "channel": 0,
      "note": 74,
      "start": 55.1807,
      "duration": 0.0469,
      "velocity": 97,
      "chip": "ym2612"
    },
    {
      "channel": 1,
      "note": 57,
      "start": 55.1816,
      "duration": 0.0461,
      "velocity": 97,
      "chip": "ym2612"
    },
    {
      "channel": 5,
      "note": 57,
      "start": 55.1861,
      "duration": 0.0744,
      "velocity": 115,
      "chip": "ym2612"
    },
    {
      "channel": 0,
      "note": 81,
      "start": 55.2639,
      "duration": 0.1135,
      "velocity": 97,
      "chip": "ym2612"
    },
    {
      "channel": 4,
      "note": 54,
      "start": 55.2659,
      "duration": 0.1801,
      "velocity": 94,
      "chip": "ym2612"
    },
    {
      "channel": 5,
      "note": 48,
      "start": 55.2693,
      "duration": 0.2247,
      "velocity": 127,
      "chip": "ym2612"
    },
    {
      "channel": 2,
      "note": 74,
      "start": 55.2957,
      "duration": 0.8193,
      "velocity": 117,
      "chip": "ym2612"
    },
    {
      "channel": 3,
      "note": 69,
      "start": 55.2965,
      "duration": 0.8194,
      "velocity": 117,
      "chip": "ym2612"
    },
    {
      "channel": 0,
      "note": 80,
      "start": 55.4115,
      "duration": 0.049,
      "velocity": 97,
      "chip": "ym2612"
    },
    {
      "channel": 1,
      "note": 50,
      "start": 55.4978,
      "duration": 0.1134,
      "velocity": 97,
      "chip": "ym2612"
    },
    {
      "channel": 4,
      "note": 50,
      "start": 55.4995,
      "duration": 0.1128,
      "velocity": 94,
      "chip": "ym2612"
    },
    {
      "channel": 5,
      "note": 57,
      "start": 55.5028,
      "duration": 0.1412,
      "velocity": 115,
      "chip": "ym2612"
    },
    {
      "channel": 0,
      "note": 78,
      "start": 55.6473,
      "duration": 0.1801,
      "velocity": 97,
      "chip": "ym2612"
    },
    {
      "channel": 1,
      "note": 62,
      "start": 55.6483,
      "duration": 0.1793,
      "velocity": 97,
      "chip": "ym2612"
    },
    {
      "channel": 4,
      "note": 64,
      "start": 55.6499,
      "duration": 0.3137,
      "velocity": 94,
      "chip": "ym2612"
    },
    {
      "channel": 5,
      "note": 56,
      "start": 55.6533,
      "duration": 0.074,
      "velocity": 117,
      "chip": "ym2612"
    },
    {
      "channel": 5,
      "note": 57,
      "start": 55.7356,
      "duration": 0.1418,
      "velocity": 115,
      "chip": "ym2612"
    },
    {
      "channel": 0,
      "note": 74,
      "start": 55.8807,
      "duration": 0.0466,
      "velocity": 97,
      "chip": "ym2612"
    },
    {
      "channel": 5,
      "note": 56,
      "start": 55.8856,
      "duration": 0.2251,
      "velocity": 117,
      "chip": "ym2612"
    },
    {
      "channel": 0,
      "note": 76,
      "start": 55.9615,
      "duration": 0.1159,
      "velocity": 97,
      "chip": "ym2612"
    },
    {
      "channel": 1,
      "note": 45,
      "start": 55.9625,
      "duration": 0.1151,
      "velocity": 97,
      "chip": "ym2612"
    },
    {
      "channel": 4,
      "note": 57,
      "start": 55.9641,
      "duration": 0.1817,
      "velocity": 94,
      "chip": "ym2612"
    },
    {
      "channel": 0,
      "note": 74,
      "start": 56.114,
      "duration": 0.0468,
      "velocity": 97,
      "chip": "ym2612"
    },
    {
      "channel": 1,
      "note": 57,
      "start": 56.1149,
      "duration": 0.046,
      "velocity": 97,
      "chip": "ym2612"
    },
    {
      "channel": 2,
      "note": 76,
      "start": 56.1157,
      "duration": 0.315,
      "velocity": 117,
      "chip": "ym2612"
    },
    {
      "channel": 3,
      "note": 76,
      "start": 56.1166,
      "duration": 0.315,
      "velocity": 117,
      "chip": "ym2612"
    },
    {
      "channel": 5,
      "note": 56,
      "start": 56.1203,
      "duration": 0.0736,
      "velocity": 117,
      "chip": "ym2612"
    },
    {
      "channel": 0,
      "note": 76,
      "start": 56.1972,
      "duration": 0.1135,
      "velocity": 97,
      "chip": "ym2612"
    },
    {
      "channel": 1,
      "note": 62,
      "start": 56.1981,
      "duration": 0.1128,
      "velocity": 97,
      "chip": "ym2612"
    },
    {
      "channel": 4,
      "note": 54,
      "start": 56.1998,
      "duration": 0.1122,
      "velocity": 94,
      "chip": "ym2612"
    },
    {
      "channel": 5,
      "note": 48,
      "start": 56.2032,
      "duration": 0.2242,
      "velocity": 127,
      "chip": "ym2612"
    },
    {
      "channel": 0,
      "note": 78,
      "start": 56.3615,
      "duration": 0.0492,
      "velocity": 97,
      "chip": "ym2612"
    },
    {
      "channel": 1,
      "note": 62,
      "start": 56.3625,
      "duration": 0.0484,
      "velocity": 97,
      "chip": "ym2612"
    },
    {
      "channel": 4,
      "note": 50,
      "start": 56.3641,
      "duration": 0.1818,
      "velocity": 94,
      "chip": "ym2612"
    },
    {
      "channel": 2,
      "note": 74,
      "start": 56.4315,
      "duration": 0.2335,
      "velocity": 117,
      "chip": "ym2612"
    },
    {
      "channel": 3,
      "note": 74,
      "start": 56.4323,
      "duration": 0.2335,
      "velocity": 117,
      "chip": "ym2612"
    },
    {
      "channel": 5,
      "note": 57,
      "start": 56.436,
      "duration": 0.158,
      "velocity": 115,
      "chip": "ym2612"
    },
    {
      "channel": 0,
      "note": 66,
      "start": 56.5971,
      "duration": 0.047,
      "velocity": 97,
      "chip": "ym2612"
    },
    {
      "channel": 5,
      "note": 56,
      "start": 56.6021,
      "duration": 0.0585,
      "velocity": 117,
      "chip": "ym2612"
    },
    {
      "channel": 0,
      "note": 80,
      "start": 56.6639,
      "duration": 0.1135,
      "velocity": 97,
      "chip": "ym2612"
    },
    {
      "channel": 1,
      "note": 64,
      "start": 56.6648,
      "duration": 0.1128,
      "velocity": 97,
      "chip": "ym2612"
    },
    {
      "channel": 2,
      "note": 71,
      "start": 56.6656,
      "duration": 0.9485,
      "velocity": 117,
      "chip": "ym2612"
    },
    {
      "channel": 3,
      "note": 68,
      "start": 56.6665,
      "duration": 0.9485,
      "velocity": 117,
      "chip": "ym2612"
    },
    {
      "channel": 4,
      "note": 52,
      "start": 56.6673,
      "duration": 0.1114,
      "velocity": 94,
      "chip": "ym2612"
    },
    {
      "channel": 5,
      "note": 56,
      "start": 56.6706,
      "duration": 0.1567,
      "velocity": 117,
      "chip": "ym2612"
    },
    {
      "channel": 0,
      "note": 76,
      "start": 56.8307,
      "duration": 0.0468,
      "velocity": 97,
      "chip": "ym2612"
    },
    {
      "channel": 5,
      "note": 57,
      "start": 56.8358,
      "duration": 0.0583,
      "velocity": 115,
      "chip": "ym2612"
    },
    {
      "channel": 0,
      "note": 78,
      "start": 56.8973,
      "duration": 0.1134,
      "velocity": 97,
      "chip": "ym2612"
    },
    {
      "channel": 4,
      "note": 59,
      "start": 56.8995,
      "duration": 0.1127,
      "velocity": 94,
      "chip": "ym2612"
    },
    {
      "channel": 5,
      "note": 57,
      "start": 56.9028,
      "duration": 0.1578,
      "velocity": 115,
      "chip": "ym2612"
    },
    {
      "channel": 0,
      "note": 76,
      "start": 57.0639,
      "duration": 0.0469,
      "velocity": 97,
      "chip": "ym2612"
    },
    {
      "channel": 1,
      "note": 59,
      "start": 57.0648,
      "duration": 0.0461,
      "velocity": 97,
      "chip": "ym2612"
    },
    {
      "channel": 5,
      "note": 57,
      "start": 57.0694,
      "duration": 0.0579,
      "velocity": 115,
      "chip": "ym2612"
    },
    {
      "channel": 0,
      "note": 83,
      "start": 57.1306,
      "duration": 0.1137,
      "velocity": 97,
      "chip": "ym2612"
    },
    {
      "channel": 4,
      "note": 56,
      "start": 57.1326,
      "duration": 0.1132,
      "velocity": 94,
      "chip": "ym2612"
    },
    {
      "channel": 5,
      "note": 48,
      "start": 57.136,
      "duration": 0.2414,
      "velocity": 127,
      "chip": "ym2612"
    },
    {
      "channel": 0,
      "note": 81,
      "start": 57.2949,
      "duration": 0.0492,
      "velocity": 97,
      "chip": "ym2612"
    },
    {
      "channel": 1,
      "note": 52,
      "start": 57.3811,
      "duration": 0.1134,
      "velocity": 97,
      "chip": "ym2612"
    },
    {
      "channel": 4,
      "note": 52,
      "start": 57.3827,
      "duration": 0.113,
      "velocity": 94,
      "chip": "ym2612"
    },
    {
      "channel": 5,
      "note": 57,
      "start": 57.3861,
      "duration": 0.1412,
      "velocity": 115,
      "chip": "ym2612"
    },
    {
      "channel": 0,
      "note": 80,
      "start": 57.5306,
      "duration": 0.1802,
      "velocity": 97,
      "chip": "ym2612"
    },
    {
      "channel": 1,
      "note": 64,
      "start": 57.5315,
      "duration": 0.1795,
      "velocity": 97,
      "chip": "ym2612"
    },
    {
      "channel": 4,
      "note": 52,
      "start": 57.5332,
      "duration": 0.1788,
      "velocity": 94,
      "chip": "ym2612"
    },
    {
      "channel": 5,
      "note": 56,
      "start": 57.5365,
      "duration": 0.0742,
      "velocity": 117,
      "chip": "ym2612"
    },
    {
      "channel": 2,
      "note": 76,
      "start": 57.6148,
      "duration": 0.9343,
      "velocity": 117,
      "chip": "ym2612"
    },
    {
      "channel": 3,
      "note": 59,
      "start": 57.6156,
      "duration": 0.9344,
      "velocity": 117,
      "chip": "ym2612"
    },
    {
      "channel": 5,
      "note": 57,
      "start": 57.6193,
      "duration": 0.2247,
      "velocity": 115,
      "chip": "ym2612"
    },
    {
      "channel": 0,
      "note": 76,
      "start": 57.7615,
      "duration": 0.0494,
      "velocity": 97,
      "chip": "ym2612"
    },
    {
      "channel": 4,
      "note": 52,
      "start": 57.7636,
      "duration": 0.0487,
      "velocity": 94,
      "chip": "ym2612"
    },
    {
      "channel": 0,
      "note": 78,
      "start": 57.8473,
      "duration": 0.1134,
      "velocity": 97,
      "chip": "ym2612"
    },
    {
      "channel": 1,
      "note": 47,
      "start": 57.8483,
      "duration": 0.1127,
      "velocity": 97,
      "chip": "ym2612"
    },
    {
      "channel": 4,
      "note": 52,
      "start": 57.85,
      "duration": 0.112,
      "velocity": 94,
      "chip": "ym2612"
    },
    {
      "channel": 5,
      "note": 56,
      "start": 57.8534,
      "duration": 0.224,
      "velocity": 117,
      "chip": "ym2612"
    },
    {
      "channel": 0,
      "note": 76,
      "start": 57.9947,
      "duration": 0.0494,
      "velocity": 97,
      "chip": "ym2612"
    },
    {
      "channel": 1,
      "note": 59,
      "start": 57.9956,
      "duration": 0.0486,
      "velocity": 97,
      "chip": "ym2612"
    },
    {
      "channel": 4,
      "note": 52,
      "start": 57.9972,
      "duration": 0.1154,
      "velocity": 94,
      "chip": "ym2612"
    },
    {
      "channel": 0,
      "note": 78,
      "start": 58.0807,
      "duration": 0.1132,
      "velocity": 97,
      "chip": "ym2612"
    },
    {
      "channel": 1,
      "note": 64,
      "start": 58.0816,
      "duration": 0.1125,
      "velocity": 97,
      "chip": "ym2612"
    },
    {
      "channel": 5,
      "note": 48,
      "start": 58.0862,
      "duration": 0.2245,
      "velocity": 127,
      "chip": "ym2612"
    },
    {
      "channel": 0,
      "note": 80,
      "start": 58.2282,
      "duration": 0.0492,
      "velocity": 97,
      "chip": "ym2612"
    },
    {
      "channel": 1,
      "note": 64,
      "start": 58.2292,
      "duration": 0.0484,
      "velocity": 97,
      "chip": "ym2612"
    },
    {
      "channel": 4,
      "note": 52,
      "start": 58.2307,
      "duration": 0.1151,
      "velocity": 94,
      "chip": "ym2612"
    },
    {
      "channel": 5,
      "note": 57,
      "start": 58.3186,
      "duration": 0.142,
      "velocity": 115,
      "chip": "ym2612"
    },
    {
      "channel": 0,
      "note": 80,
      "start": 58.4638,
      "duration": 0.0469,
      "velocity": 97,
      "chip": "ym2612"
    },
    {
      "channel": 4,
      "note": 50,
      "start": 58.4658,
      "duration": 0.0462,
      "velocity": 94,
      "chip": "ym2612"
    },
    {
      "channel": 5,
      "note": 57,
      "start": 58.4692,
      "duration": 0.0751,
      "velocity": 115,
      "chip": "ym2612"
    },
    {
      "channel": 0,
      "note": 81,
      "start": 58.5477,
      "duration": 0.1795,
      "velocity": 97,
      "chip": "ym2612"
    },
    {
      "channel": 1,
      "note": 66,
      "start": 58.5488,
      "duration": 0.1786,
      "velocity": 97,
      "chip": "ym2612"
    },
    {
      "channel": 2,
      "note": 73,
      "start": 58.5498,
      "duration": 0.1285,
      "velocity": 117,
      "chip": "ym2612"
    },
    {
      "channel": 3,
      "note": 68,
      "start": 58.5507,
      "duration": 0.1277,
      "velocity": 117,
      "chip": "ym2612"
    },
    {
      "channel": 4,
      "note": 49,
      "start": 58.5517,
      "duration": 1.1799,
      "velocity": 94,
      "chip": "ym2612"
    },
    {
      "channel": 5,
      "note": 56,
      "start": 58.5551,
      "duration": 0.139,
      "velocity": 117,
      "chip": "ym2612"
    },
    {
      "channel": 2,
      "note": 73,
      "start": 58.6983,
      "duration": 0.0467,
      "velocity": 117,
      "chip": "ym2612"
    },
    {
      "channel": 3,
      "note": 68,
      "start": 58.6991,
      "duration": 0.046,
      "velocity": 117,
      "chip": "ym2612"
    },
    {
      "channel": 5,
      "note": 57,
      "start": 58.7028,
      "duration": 0.0746,
      "velocity": 115,
      "chip": "ym2612"
    },
    {
      "channel": 0,
      "note": 81,
      "start": 58.7807,
      "duration": 0.1134,
      "velocity": 97,
      "chip": "ym2612"
    },
    {
      "channel": 1,
      "note": 66,
      "start": 58.7816,
      "duration": 0.1127,
      "velocity": 97,
      "chip": "ym2612"
    },
    {
      "channel": 2,
      "note": 73,
      "start": 58.7825,
      "duration": 0.1291,
      "velocity": 117,
      "chip": "ym2612"
    },
    {
      "channel": 3,
      "note": 68,
      "start": 58.7834,
      "duration": 0.1284,
      "velocity": 117,
      "chip": "ym2612"
    },
    {
      "channel": 5,
      "note": 57,
      "start": 58.7871,
      "duration": 0.1569,
      "velocity": 115,
      "chip": "ym2612"
    },
    {
      "channel": 5,
      "note": 57,
      "start": 58.9518,
      "duration": 0.0589,
      "velocity": 115,
      "chip": "ym2612"
    },
    {
      "channel": 0,
      "note": 81,
      "start": 59.0139,
      "duration": 0.1133,
      "velocity": 97,
      "chip": "ym2612"
    },
    {
      "channel": 1,
      "note": 66,
      "start": 59.0148,
      "duration": 0.1127,
      "velocity": 97,
      "chip": "ym2612"
    },
    {
      "channel": 5,
      "note": 48,
      "start": 59.0192,
      "duration": 0.2249,
      "velocity": 127,
      "chip": "ym2612"
    },
    {
      "channel": 0,
      "note": 73,
      "start": 59.1782,
      "duration": 0.0492,
      "velocity": 97,
      "chip": "ym2612"
    },
    {
      "channel": 1,
      "note": 66,
      "start": 59.1792,
      "duration": 0.0484,
      "velocity": 97,
      "chip": "ym2612"
    },
    {
      "channel": 2,
      "note": 73,
      "start": 59.18,
      "duration": 0.3007,
      "velocity": 117,
      "chip": "ym2612"
    },
    {
      "channel": 3,
      "note": 68,
      "start": 59.181,
      "duration": 0.3006,
      "velocity": 117,
      "chip": "ym2612"
    },
    {
      "channel": 0,
      "note": 81,
      "start": 59.2473,
      "duration": 0.1134,
      "velocity": 97,
      "chip": "ym2612"
    },
    {
      "channel": 1,
      "note": 66,
      "start": 59.2483,
      "duration": 0.1127,
      "velocity": 97,
      "chip": "ym2612"
    },
    {
      "channel": 5,
      "note": 57,
      "start": 59.2528,
      "duration": 0.1579,
      "velocity": 115,
      "chip": "ym2612"
    },
    {
      "channel": 0,
      "note": 80,
      "start": 59.414,
      "duration": 0.8301,
      "velocity": 97,
      "chip": "ym2612"
    },
    {
      "channel": 1,
      "note": 65,
      "start": 59.4149,
      "duration": 0.8293,
      "velocity": 97,
      "chip": "ym2612"
    },
    {
      "channel": 5,
      "note": 56,
      "start": 59.4196,
      "duration": 0.0578,
      "velocity": 117,
      "chip": "ym2612"
    },
    {
      "channel": 2,
      "note": 89,
      "start": 59.4815,
      "duration": 0.951,
      "velocity": 117,
      "chip": "ym2612"
    },
    {
      "channel": 3,
      "note": 85,
      "start": 59.4823,
      "duration": 0.951,
      "velocity": 117,
      "chip": "ym2612"
    },
    {
      "channel": 5,
      "note": 57,
      "start": 59.486,
      "duration": 0.158,
      "velocity": 115,
      "chip": "ym2612"
    },
    {
      "channel": 5,
      "note": 56,
      "start": 59.6521,
      "duration": 0.0752,
      "velocity": 117,
      "chip": "ym2612"
    },
    {
      "channel": 5,
      "note": 56,
      "start": 59.7349,
      "duration": 0.1424,
      "velocity": 117,
      "chip": "ym2612"
    },
    {
      "channel": 5,
      "note": 48,
      "start": 59.8853,
      "duration": 0.0754,
      "velocity": 127,
      "chip": "ym2612"
    },
    {
      "channel": 5,
      "note": 48,
      "start": 59.9685,
      "duration": 0.2254,
      "velocity": 127,
      "chip": "ym2612"
    },
    {
      "channel": 4,
      "note": 49,
      "start": 60.1134,
      "duration": 0.0493,
      "velocity": 94,
      "chip": "ym2612"
    },
    {
      "channel": 4,
      "note": 50,
      "start": 60.1989,
      "duration": 0.1137,
      "velocity": 94,
      "chip": "ym2612"
    },
    {
      "channel": 5,
      "note": 48,
      "start": 60.2022,
      "duration": 0.1418,
      "velocity": 127,
      "chip": "ym2612"
    },
    {
      "channel": 4,
      "note": 52,
      "start": 60.349,
      "duration": 0.0469,
      "velocity": 94,
      "chip": "ym2612"
    },
    {
      "channel": 5,
      "note": 48,
      "start": 60.3524,
      "duration": 0.0753,
      "velocity": 127,
      "chip": "ym2612"
    },
    {
      "channel": 0,
      "note": 78,
      "start": 60.4312,
      "duration": 0.1129,
      "velocity": 97,
      "chip": "ym2612"
    },
    {
      "channel": 1,
      "note": 61,
      "start": 60.4324,
      "duration": 0.1118,
      "velocity": 97,
      "chip": "ym2612"
    },
    {
      "channel": 2,
      "note": 66,
      "start": 60.4332,
      "duration": 1.3985,
      "velocity": 117,
      "chip": "ym2612"
    },
    {
      "channel": 3,
      "note": 61,
      "start": 60.4341,
      "duration": 1.3985,
      "velocity": 117,
      "chip": "ym2612"
    },
    {
      "channel": 4,
      "note": 54,
      "start": 60.435,
      "duration": 0.1777,
      "velocity": 94,
      "chip": "ym2612"
    },
    {
      "channel": 5,
      "note": 56,
      "start": 60.4384,
      "duration": 0.139,
      "velocity": 117,
      "chip": "ym2612"
    },
    {
      "channel": 0,
      "note": 73,
      "start": 60.5807,
      "duration": 0.0468,
      "velocity": 97,
      "chip": "ym2612"
    },
    {
      "channel": 5,
      "note": 57,
      "start": 60.5857,
      "duration": 0.0749,
      "velocity": 115,
      "chip": "ym2612"
    },
    {
      "channel": 0,
      "note": 76,
      "start": 60.6639,
      "duration": 0.1135,
      "velocity": 97,
      "chip": "ym2612"
    },
    {
      "channel": 5,
      "note": 57,
      "start": 60.669,
      "duration": 0.1417,
      "velocity": 115,
      "chip": "ym2612"
    },
    {
      "channel": 0,
      "note": 73,
      "start": 60.814,
      "duration": 0.0466,
      "velocity": 97,
      "chip": "ym2612"
    },
    {
      "channel": 1,
      "note": 57,
      "start": 60.8149,
      "duration": 0.0459,
      "velocity": 97,
      "chip": "ym2612"
    },
    {
      "channel": 5,
      "note": 57,
      "start": 60.8195,
      "duration": 0.0746,
      "velocity": 115,
      "chip": "ym2612"
    },
    {
      "channel": 0,
      "note": 81,
      "start": 60.8973,
      "duration": 0.1134,
      "velocity": 97,
      "chip": "ym2612"
    },
    {
      "channel": 4,
      "note": 49,
      "start": 60.8994,
      "duration": 0.1798,
      "velocity": 94,
      "chip": "ym2612"
    },
    {
      "channel": 5,
      "note": 48,
      "start": 60.9028,
      "duration": 0.2245,
      "velocity": 127,
      "chip": "ym2612"
    },
    {
      "channel": 0,
      "note": 80,
      "start": 61.0449,
      "duration": 0.0492,
      "velocity": 97,
      "chip": "ym2612"
    },
    {
      "channel": 1,
      "note": 49,
      "start": 61.1309,
      "duration": 0.1136,
      "velocity": 97,
      "chip": "ym2612"
    },
    {
      "channel": 5,
      "note": 57,
      "start": 61.1356,
      "duration": 0.1417,
      "velocity": 115,
      "chip": "ym2612"
    },
    {
      "channel": 0,
      "note": 78,
      "start": 61.2807,
      "duration": 0.1799,
      "velocity": 97,
      "chip": "ym2612"
    },
    {
      "channel": 1,
      "note": 61,
      "start": 61.2816,
      "duration": 0.1792,
      "velocity": 97,
      "chip": "ym2612"
    },
    {
      "channel": 4,
      "note": 52,
      "start": 61.2833,
      "duration": 0.2489,
      "velocity": 94,
      "chip": "ym2612"
    },
    {
      "channel": 5,
      "note": 56,
      "start": 61.2866,
      "duration": 0.0741,
      "velocity": 117,
      "chip": "ym2612"
    },
    {
      "channel": 5,
      "note": 57,
      "start": 61.369,
      "duration": 0.1583,
      "velocity": 115,
      "chip": "ym2612"
    },
    {
      "channel": 0,
      "note": 73,
      "start": 61.5306,
      "duration": 0.0469,
      "velocity": 97,
      "chip": "ym2612"
    },
    {
      "channel": 4,
      "note": 54,
      "start": 61.5328,
      "duration": 0.0461,
      "velocity": 94,
      "chip": "ym2612"
    },
    {
      "channel": 5,
      "note": 56,
      "start": 61.5361,
      "duration": 0.0578,
      "velocity": 117,
      "chip": "ym2612"
    },
    {
      "channel": 0,
      "note": 76,
      "start": 61.5972,
      "duration": 0.1135,
      "velocity": 97,
      "chip": "ym2612"
    },
    {
      "channel": 1,
      "note": 45,
      "start": 61.5981,
      "duration": 0.1128,
      "velocity": 97,
      "chip": "ym2612"
    },
    {
      "channel": 4,
      "note": 57,
      "start": 61.5999,
      "duration": 0.1793,
      "velocity": 94,
      "chip": "ym2612"
    },
    {
      "channel": 5,
      "note": 56,
      "start": 61.6033,
      "duration": 0.2241,
      "velocity": 117,
      "chip": "ym2612"
    },
    {
      "channel": 0,
      "note": 73,
      "start": 61.7615,
      "duration": 0.0492,
      "velocity": 97,
      "chip": "ym2612"
    },
    {
      "channel": 1,
      "note": 57,
      "start": 61.7625,
      "duration": 0.0484,
      "velocity": 97,
      "chip": "ym2612"
    },
    {
      "channel": 0,
      "note": 76,
      "start": 61.8307,
      "duration": 0.1134,
      "velocity": 97,
      "chip": "ym2612"
    },
    {
      "channel": 1,
      "note": 61,
      "start": 61.8316,
      "duration": 0.1127,
      "velocity": 97,
      "chip": "ym2612"
    },
    {
      "channel": 2,
      "note": 64,
      "start": 61.8324,
      "duration": 0.4832,
      "velocity": 117,
      "chip": "ym2612"
    },
    {
      "channel": 3,
      "note": 59,
      "start": 61.8332,
      "duration": 0.4832,
      "velocity": 117,
      "chip": "ym2612"
    },
    {
      "channel": 4,
      "note": 56,
      "start": 61.8339,
      "duration": 0.1786,
      "velocity": 94,
      "chip": "ym2612"
    },
    {
      "channel": 5,
      "note": 48,
      "start": 61.8374,
      "duration": 0.2232,
      "velocity": 127,
      "chip": "ym2612"
    },
    {
      "channel": 0,
      "note": 78,
      "start": 61.9947,
      "duration": 0.0494,
      "velocity": 97,
      "chip": "ym2612"
    },
    {
      "channel": 1,
      "note": 61,
      "start": 61.9956,
      "duration": 0.0486,
      "velocity": 97,
      "chip": "ym2612"
    },
    {
      "channel": 4,
      "note": 52,
      "start": 62.0655,
      "duration": 0.18,
      "velocity": 94,
      "chip": "ym2612"
    },
    {
      "channel": 5,
      "note": 57,
      "start": 62.0688,
      "duration": 0.1585,
      "velocity": 115,
      "chip": "ym2612"
    },
    {
      "channel": 0,
      "note": 66,
      "start": 62.2306,
      "duration": 0.0468,
      "velocity": 97,
      "chip": "ym2612"
    },
    {
      "channel": 5,
      "note": 57,
      "start": 62.2355,
      "duration": 0.0754,
      "velocity": 115,
      "chip": "ym2612"
    },
    {
      "channel": 0,
      "note": 78,
      "start": 62.3144,
      "duration": 0.113,
      "velocity": 97,
      "chip": "ym2612"
    },
    {
      "channel": 1,
      "note": 62,
      "start": 62.3154,
      "duration": 0.1122,
      "velocity": 97,
      "chip": "ym2612"
    },
    {
      "channel": 2,
      "note": 62,
      "start": 62.3162,
      "duration": 0.9312,
      "velocity": 117,
      "chip": "ym2612"
    },
    {
      "channel": 3,
      "note": 57,
      "start": 62.3171,
      "duration": 0.9312,
      "velocity": 117,
      "chip": "ym2612"
    },
    {
      "channel": 4,
      "note": 50,
      "start": 62.318,
      "duration": 0.1106,
      "velocity": 94,
      "chip": "ym2612"
    },
    {
      "channel": 5,
      "note": 56,
      "start": 62.3214,
      "duration": 0.1392,
      "velocity": 117,
      "chip": "ym2612"
    },
    {
      "channel": 0,
      "note": 74,
      "start": 62.4639,
      "duration": 0.0469,
      "velocity": 97,
      "chip": "ym2612"
    },
    {
      "channel": 5,
      "note": 57,
      "start": 62.4688,
      "duration": 0.0752,
      "velocity": 115,
      "chip": "ym2612"
    },
    {
      "channel": 0,
      "note": 76,
      "start": 62.5473,
      "duration": 0.1132,
      "velocity": 97,
      "chip": "ym2612"
    },
    {
      "channel": 4,
      "note": 52,
      "start": 62.5496,
      "duration": 0.1795,
      "velocity": 94,
      "chip": "ym2612"
    },
    {
      "channel": 5,
      "note": 57,
      "start": 62.5529,
      "duration": 0.1412,
      "velocity": 115,
      "chip": "ym2612"
    },
    {
      "channel": 0,
      "note": 74,
      "start": 62.6973,
      "duration": 0.0469,
      "velocity": 97,
      "chip": "ym2612"
    },
    {
      "channel": 1,
      "note": 57,
      "start": 62.6983,
      "duration": 0.0461,
      "velocity": 97,
      "chip": "ym2612"
    },
    {
      "channel": 5,
      "note": 57,
      "start": 62.7028,
      "duration": 0.0746,
      "velocity": 115,
      "chip": "ym2612"
    },
    {
      "channel": 0,
      "note": 81,
      "start": 62.7807,
      "duration": 0.1134,
      "velocity": 97,
      "chip": "ym2612"
    },
    {
      "channel": 4,
      "note": 54,
      "start": 62.7827,
      "duration": 0.1798,
      "velocity": 94,
      "chip": "ym2612"
    },
    {
      "channel": 5,
      "note": 48,
      "start": 62.7861,
      "duration": 0.2246,
      "velocity": 127,
      "chip": "ym2612"
    },
    {
      "channel": 0,
      "note": 80,
      "start": 62.9281,
      "duration": 0.0495,
      "velocity": 97,
      "chip": "ym2612"
    },
    {
      "channel": 1,
      "note": 50,
      "start": 63.0145,
      "duration": 0.1132,
      "velocity": 97,
      "chip": "ym2612"
    },
    {
      "channel": 4,
      "note": 50,
      "start": 63.0162,
      "duration": 0.1125,
      "velocity": 94,
      "chip": "ym2612"
    },
    {
      "channel": 5,
      "note": 57,
      "start": 63.0196,
      "duration": 0.1411,
      "velocity": 115,
      "chip": "ym2612"
    },
    {
      "channel": 0,
      "note": 78,
      "start": 63.164,
      "duration": 0.1801,
      "velocity": 97,
      "chip": "ym2612"
    },
    {
      "channel": 1,
      "note": 62,
      "start": 63.1649,
      "duration": 0.1793,
      "velocity": 97,
      "chip": "ym2612"
    },
    {
      "channel": 4,
      "note": 64,
      "start": 63.1666,
      "duration": 0.3137,
      "velocity": 94,
      "chip": "ym2612"
    },
    {
      "channel": 5,
      "note": 56,
      "start": 63.1699,
      "duration": 0.0741,
      "velocity": 117,
      "chip": "ym2612"
    },
    {
      "channel": 2,
      "note": 69,
      "start": 63.2482,
      "duration": 0.4668,
      "velocity": 117,
      "chip": "ym2612"
    },
    {
      "channel": 3,
      "note": 66,
      "start": 63.249,
      "duration": 0.4669,
      "velocity": 117,
      "chip": "ym2612"
    },
    {
      "channel": 5,
      "note": 57,
      "start": 63.2532,
      "duration": 0.1408,
      "velocity": 115,
      "chip": "ym2612"
    },
    {
      "channel": 0,
      "note": 74,
      "start": 63.3972,
      "duration": 0.0469,
      "velocity": 97,
      "chip": "ym2612"
    },
    {
      "channel": 5,
      "note": 56,
      "start": 63.4022,
      "duration": 0.2252,
      "velocity": 117,
      "chip": "ym2612"
    },
    {
      "channel": 0,
      "note": 76,
      "start": 63.4782,
      "duration": 0.1157,
      "velocity": 97,
      "chip": "ym2612"
    },
    {
      "channel": 1,
      "note": 45,
      "start": 63.4792,
      "duration": 0.1149,
      "velocity": 97,
      "chip": "ym2612"
    },
    {
      "channel": 4,
      "note": 57,
      "start": 63.4809,
      "duration": 0.1814,
      "velocity": 94,
      "chip": "ym2612"
    },
    {
      "channel": 0,
      "note": 74,
      "start": 63.6307,
      "duration": 0.0468,
      "velocity": 97,
      "chip": "ym2612"
    },
    {
      "channel": 1,
      "note": 57,
      "start": 63.6316,
      "duration": 0.046,
      "velocity": 97,
      "chip": "ym2612"
    },
    {
      "channel": 5,
      "note": 56,
      "start": 63.6361,
      "duration": 0.0746,
      "velocity": 117,
      "chip": "ym2612"
    },
    {
      "channel": 0,
      "note": 76,
      "start": 63.714,
      "duration": 0.1134,
      "velocity": 97,
      "chip": "ym2612"
    },
    {
      "channel": 1,
      "note": 62,
      "start": 63.7149,
      "duration": 0.1127,
      "velocity": 97,
      "chip": "ym2612"
    },
    {
      "channel": 2,
      "note": 66,
      "start": 63.7157,
      "duration": 0.466,
      "velocity": 117,
      "chip": "ym2612"
    },
    {
      "channel": 3,
      "note": 62,
      "start": 63.7166,
      "duration": 0.4655,
      "velocity": 117,
      "chip": "ym2612"
    },
    {
      "channel": 4,
      "note": 54,
      "start": 63.7174,
      "duration": 0.1112,
      "velocity": 94,
      "chip": "ym2612"
    },
    {
      "channel": 5,
      "note": 48,
      "start": 63.7208,
      "duration": 0.2233,
      "velocity": 127,
      "chip": "ym2612"
    },
    {
      "channel": 0,
      "note": 78,
      "start": 63.8614,
      "duration": 0.0494,
      "velocity": 97,
      "chip": "ym2612"
    },
    {
      "channel": 1,
      "note": 62,
      "start": 63.8623,
      "duration": 0.0486,
      "velocity": 97,
      "chip": "ym2612"
    },
    {
      "channel": 4,
      "note": 50,
      "start": 63.8639,
      "duration": 0.182,
      "velocity": 94,
      "chip": "ym2612"
    },
    {
      "channel": 5,
      "note": 57,
      "start": 63.9519,
      "duration": 0.1588,
      "velocity": 115,
      "chip": "ym2612"
    },
    {
      "channel": 0,
      "note": 66,
      "start": 64.1139,
      "duration": 0.0468,
      "velocity": 97,
      "chip": "ym2612"
    },
    {
      "channel": 5,
      "note": 56,
      "start": 64.1188,
      "duration": 0.0585,
      "velocity": 117,
      "chip": "ym2612"
    },
    {
      "channel": 0,
      "note": 80,
      "start": 64.1807,
      "duration": 0.1134,
      "velocity": 97,
      "chip": "ym2612"
    },
    {
      "channel": 1,
      "note": 64,
      "start": 64.1816,
      "duration": 0.1127,
      "velocity": 97,
      "chip": "ym2612"
    },
    {
      "channel": 3,
      "note": 76,
      "start": 64.1828,
      "duration": 0.166,
      "velocity": 117,
      "chip": "ym2612"
    },
    {
      "channel": 4,
      "note": 52,
      "start": 64.1835,
      "duration": 0.1114,
      "velocity": 94,
      "chip": "ym2612"
    },
    {
      "channel": 5,
      "note": 56,
      "start": 64.1869,
      "duration": 0.1571,
      "velocity": 117,
      "chip": "ym2612"
    },
    {
      "channel": 0,
      "note": 76,
      "start": 64.3473,
      "duration": 0.0466,
      "velocity": 97,
      "chip": "ym2612"
    },
    {
      "channel": 2,
      "note": 64,
      "start": 64.3486,
      "duration": 0.066,
      "velocity": 117,
      "chip": "ym2612"
    },
    {
      "channel": 3,
      "note": 59,
      "start": 64.3495,
      "duration": 0.066,
      "velocity": 117,
      "chip": "ym2612"
    },
    {
      "channel": 5,
      "note": 57,
      "start": 64.3531,
      "duration": 0.0576,
      "velocity": 115,
      "chip": "ym2612"
    },
    {
      "channel": 0,
      "note": 78,
      "start": 64.414,
      "duration": 0.1132,
      "velocity": 97,
      "chip": "ym2612"
    },
    {
      "channel": 2,
      "note": 59,
      "start": 64.4153,
      "duration": 0.1664,
      "velocity": 117,
      "chip": "ym2612"
    },
    {
      "channel": 3,
      "note": 56,
      "start": 64.4161,
      "duration": 0.1665,
      "velocity": 117,
      "chip": "ym2612"
    },
    {
      "channel": 4,
      "note": 59,
      "start": 64.4168,
      "duration": 0.112,
      "velocity": 94,
      "chip": "ym2612"
    },
    {
      "channel": 5,
      "note": 57,
      "start": 64.4202,
      "duration": 0.1572,
      "velocity": 115,
      "chip": "ym2612"
    },
    {
      "channel": 0,
      "note": 76,
      "start": 64.5807,
      "duration": 0.0468,
      "velocity": 97,
      "chip": "ym2612"
    },
    {
      "channel": 1,
      "note": 59,
      "start": 64.5816,
      "duration": 0.046,
      "velocity": 97,
      "chip": "ym2612"
    },
    {
      "channel": 2,
      "note": 76,
      "start": 64.5824,
      "duration": 0.0655,
      "velocity": 117,
      "chip": "ym2612"
    },
    {
      "channel": 5,
      "note": 57,
      "start": 64.5864,
      "duration": 0.0576,
      "velocity": 115,
      "chip": "ym2612"
    },
    {
      "channel": 0,
      "note": 83,
      "start": 64.6473,
      "duration": 0.1134,
      "velocity": 97,
      "chip": "ym2612"
    },
    {
      "channel": 2,
      "note": 64,
      "start": 64.6486,
      "duration": 0.1636,
      "velocity": 117,
      "chip": "ym2612"
    },
    {
      "channel": 3,
      "note": 59,
      "start": 64.6495,
      "duration": 0.1635,
      "velocity": 117,
      "chip": "ym2612"
    },
    {
      "channel": 4,
      "note": 56,
      "start": 64.6502,
      "duration": 0.1121,
      "velocity": 94,
      "chip": "ym2612"
    },
    {
      "channel": 5,
      "note": 48,
      "start": 64.6535,
      "duration": 0.2405,
      "velocity": 127,
      "chip": "ym2612"
    },
    {
      "channel": 0,
      "note": 81,
      "start": 64.8116,
      "duration": 0.049,
      "velocity": 97,
      "chip": "ym2612"
    },
    {
      "channel": 2,
      "note": 59,
      "start": 64.8128,
      "duration": 0.0851,
      "velocity": 117,
      "chip": "ym2612"
    },
    {
      "channel": 3,
      "note": 56,
      "start": 64.8137,
      "duration": 0.0851,
      "velocity": 117,
      "chip": "ym2612"
    },
    {
      "channel": 1,
      "note": 52,
      "start": 64.8978,
      "duration": 0.1134,
      "velocity": 97,
      "chip": "ym2612"
    },
    {
      "channel": 2,
      "note": 78,
      "start": 64.8986,
      "duration": 0.1498,
      "velocity": 117,
      "chip": "ym2612"
    },
    {
      "channel": 3,
      "note": 73,
      "start": 64.8995,
      "duration": 0.1498,
      "velocity": 117,
      "chip": "ym2612"
    },
    {
      "channel": 4,
      "note": 52,
      "start": 64.9002,
      "duration": 0.1121,
      "velocity": 94,
      "chip": "ym2612"
    },
    {
      "channel": 5,
      "note": 57,
      "start": 64.9035,
      "duration": 0.1405,
      "velocity": 115,
      "chip": "ym2612"
    },
    {
      "channel": 0,
      "note": 80,
      "start": 65.0473,
      "duration": 0.1802,
      "velocity": 97,
      "chip": "ym2612"
    },
    {
      "channel": 1,
      "note": 64,
      "start": 65.0483,
      "duration": 0.1794,
      "velocity": 97,
      "chip": "ym2612"
    },
    {
      "channel": 2,
      "note": 66,
      "start": 65.0491,
      "duration": 0.0815,
      "velocity": 117,
      "chip": "ym2612"
    },
    {
      "channel": 3,
      "note": 61,
      "start": 65.0499,
      "duration": 0.0816,
      "velocity": 117,
      "chip": "ym2612"
    },
    {
      "channel": 4,
      "note": 52,
      "start": 65.0507,
      "duration": 0.1777,
      "velocity": 94,
      "chip": "ym2612"
    },
    {
      "channel": 5,
      "note": 56,
      "start": 65.054,
      "duration": 0.0732,
      "velocity": 117,
      "chip": "ym2612"
    },
    {
      "channel": 2,
      "note": 80,
      "start": 65.1313,
      "duration": 0.1475,
      "velocity": 117,
      "chip": "ym2612"
    },
    {
      "channel": 5,
      "note": 57,
      "start": 65.1353,
      "duration": 0.2254,
      "velocity": 115,
      "chip": "ym2612"
    },
    {
      "channel": 0,
      "note": 76,
      "start": 65.2782,
      "duration": 0.0492,
      "velocity": 97,
      "chip": "ym2612"
    },
    {
      "channel": 2,
      "note": 64,
      "start": 65.2795,
      "duration": 0.0856,
      "velocity": 117,
      "chip": "ym2612"
    },
    {
      "channel": 3,
      "note": 56,
      "start": 65.2804,
      "duration": 0.0855,
      "velocity": 117,
      "chip": "ym2612"
    },
    {
      "channel": 4,
      "note": 52,
      "start": 65.2811,
      "duration": 0.0477,
      "velocity": 94,
      "chip": "ym2612"
    },
    {
      "channel": 0,
      "note": 78,
      "start": 65.364,
      "duration": 0.1134,
      "velocity": 97,
      "chip": "ym2612"
    },
    {
      "channel": 1,
      "note": 47,
      "start": 65.3649,
      "duration": 0.1127,
      "velocity": 97,
      "chip": "ym2612"
    },
    {
      "channel": 2,
      "note": 59,
      "start": 65.3657,
      "duration": 0.1469,
      "velocity": 117,
      "chip": "ym2612"
    },
    {
      "channel": 3,
      "note": 52,
      "start": 65.3666,
      "duration": 0.1464,
      "velocity": 117,
      "chip": "ym2612"
    },
    {
      "channel": 4,
      "note": 52,
      "start": 65.3673,
      "duration": 0.1113,
      "velocity": 94,
      "chip": "ym2612"
    },
    {
      "channel": 5,
      "note": 56,
      "start": 65.3707,
      "duration": 0.2232,
      "velocity": 117,
      "chip": "ym2612"
    },
    {
      "channel": 0,
      "note": 76,
      "start": 65.5115,
      "duration": 0.0494,
      "velocity": 97,
      "chip": "ym2612"
    },
    {
      "channel": 1,
      "note": 59,
      "start": 65.5125,
      "duration": 0.0485,
      "velocity": 97,
      "chip": "ym2612"
    },
    {
      "channel": 3,
      "note": 80,
      "start": 65.5137,
      "duration": 0.0854,
      "velocity": 117,
      "chip": "ym2612"
    },
    {
      "channel": 4,
      "note": 52,
      "start": 65.5144,
      "duration": 0.1148,
      "velocity": 94,
      "chip": "ym2612"
    },
    {
      "channel": 0,
      "note": 78,
      "start": 65.5972,
      "duration": 0.1135,
      "velocity": 97,
      "chip": "ym2612"
    },
    {
      "channel": 1,
      "note": 64,
      "start": 65.5981,
      "duration": 0.1128,
      "velocity": 97,
      "chip": "ym2612"
    },
    {
      "channel": 2,
      "note": 64,
      "start": 65.5989,
      "duration": 0.147,
      "velocity": 117,
      "chip": "ym2612"
    },
    {
      "channel": 3,
      "note": 56,
      "start": 65.5998,
      "duration": 0.147,
      "velocity": 117,
      "chip": "ym2612"
    },
    {
      "channel": 5,
      "note": 48,
      "start": 65.6035,
      "duration": 0.2239,
      "velocity": 127,
      "chip": "ym2612"
    },
    {
      "channel": 0,
      "note": 80,
      "start": 65.7449,
      "duration": 0.049,
      "velocity": 97,
      "chip": "ym2612"
    },
    {
      "channel": 1,
      "note": 64,
      "start": 65.7458,
      "duration": 0.0483,
      "velocity": 97,
      "chip": "ym2612"
    },
    {
      "channel": 2,
      "note": 59,
      "start": 65.7466,
      "duration": 0.0841,
      "velocity": 117,
      "chip": "ym2612"
    },
    {
      "channel": 3,
      "note": 52,
      "start": 65.7475,
      "duration": 0.0841,
      "velocity": 117,
      "chip": "ym2612"
    },
    {
      "channel": 4,
      "note": 52,
      "start": 65.7482,
      "duration": 0.1142,
      "velocity": 94,
      "chip": "ym2612"
    },
    {
      "channel": 2,
      "note": 80,
      "start": 65.8315,
      "duration": 0.1496,
      "velocity": 117,
      "chip": "ym2612"
    },
    {
      "channel": 3,
      "note": 76,
      "start": 65.8323,
      "duration": 0.1496,
      "velocity": 117,
      "chip": "ym2612"
    },
    {
      "channel": 5,
      "note": 57,
      "start": 65.836,
      "duration": 0.1413,
      "velocity": 115,
      "chip": "ym2612"
    },
    {
      "channel": 0,
      "note": 80,
      "start": 65.9806,
      "duration": 0.0468,
      "velocity": 97,
      "chip": "ym2612"
    },
    {
      "channel": 2,
      "note": 68,
      "start": 65.9818,
      "duration": 0.0836,
      "velocity": 117,
      "chip": "ym2612"
    },
    {
      "channel": 3,
      "note": 64,
      "start": 65.9826,
      "duration": 0.0837,
      "velocity": 117,
      "chip": "ym2612"
    },
    {
      "channel": 4,
      "note": 50,
      "start": 65.9834,
      "duration": 0.0452,
      "velocity": 94,
      "chip": "ym2612"
    },
    {
      "channel": 5,
      "note": 57,
      "start": 65.9868,
      "duration": 0.0739,
      "velocity": 115,
      "chip": "ym2612"
    },
    {
      "channel": 0,
      "note": 78,
      "start": 66.0641,
      "duration": 0.1133,
      "velocity": 97,
      "chip": "ym2612"
    },
    {
      "channel": 1,
      "note": 61,
      "start": 66.0652,
      "duration": 0.1123,
      "velocity": 97,
      "chip": "ym2612"
    },
    {
      "channel": 2,
      "note": 69,
      "start": 66.0661,
      "duration": 1.8833,
      "velocity": 117,
      "chip": "ym2612"
    },
    {
      "channel": 3,
      "note": 66,
      "start": 66.0669,
      "duration": 1.8832,
      "velocity": 117,
      "chip": "ym2612"
    },
    {
      "channel": 4,
      "note": 54,
      "start": 66.0679,
      "duration": 0.3614,
      "velocity": 94,
      "chip": "ym2612"
    },
    {
      "channel": 5,
      "note": 56,
      "start": 66.0713,
      "duration": 0.1394,
      "velocity": 117,
      "chip": "ym2612"
    },
    {
      "channel": 0,
      "note": 73,
      "start": 66.214,
      "duration": 0.0466,
      "velocity": 97,
      "chip": "ym2612"
    },
    {
      "channel": 5,
      "note": 57,
      "start": 66.219,
      "duration": 0.075,
      "velocity": 115,
      "chip": "ym2612"
    },
    {
      "channel": 0,
      "note": 76,
      "start": 66.2973,
      "duration": 0.1134,
      "velocity": 97,
      "chip": "ym2612"
    },
    {
      "channel": 5,
      "note": 57,
      "start": 66.3024,
      "duration": 0.1416,
      "velocity": 115,
      "chip": "ym2612"
    },
    {
      "channel": 0,
      "note": 73,
      "start": 66.4473,
      "duration": 0.0468,
      "velocity": 97,
      "chip": "ym2612"
    },
    {
      "channel": 1,
      "note": 57,
      "start": 66.4483,
      "duration": 0.046,
      "velocity": 97,
      "chip": "ym2612"
    },
    {
      "channel": 5,
      "note": 57,
      "start": 66.4528,
      "duration": 0.0744,
      "velocity": 115,
      "chip": "ym2612"
    },
    {
      "channel": 0,
      "note": 76,
      "start": 66.5306,
      "duration": 0.1135,
      "velocity": 97,
      "chip": "ym2612"
    },
    {
      "channel": 4,
      "note": 54,
      "start": 66.5326,
      "duration": 0.3634,
      "velocity": 94,
      "chip": "ym2612"
    },
    {
      "channel": 5,
      "note": 48,
      "start": 66.536,
      "duration": 0.2247,
      "velocity": 127,
      "chip": "ym2612"
    },
    {
      "channel": 0,
      "note": 78,
      "start": 66.6949,
      "duration": 0.0492,
      "velocity": 97,
      "chip": "ym2612"
    },
    {
      "channel": 1,
      "note": 49,
      "start": 66.7645,
      "duration": 0.1135,
      "velocity": 97,
      "chip": "ym2612"
    },
    {
      "channel": 5,
      "note": 57,
      "start": 66.7691,
      "duration": 0.1581,
      "velocity": 115,
      "chip": "ym2612"
    },
    {
      "channel": 0,
      "note": 78,
      "start": 66.9306,
      "duration": 0.1802,
      "velocity": 97,
      "chip": "ym2612"
    },
    {
      "channel": 1,
      "note": 61,
      "start": 66.9315,
      "duration": 0.1795,
      "velocity": 97,
      "chip": "ym2612"
    },
    {
      "channel": 5,
      "note": 56,
      "start": 66.936,
      "duration": 0.2247,
      "velocity": 122,
      "chip": "ym2612"
    },
    {
      "channel": 4,
      "note": 54,
      "start": 66.9963,
      "duration": 0.183,
      "velocity": 94,
      "chip": "ym2612"
    },
    {
      "channel": 0,
      "note": 73,
      "start": 67.164,
      "duration": 0.0468,
      "velocity": 97,
      "chip": "ym2612"
    },
    {
      "channel": 5,
      "note": 56,
      "start": 67.1691,
      "duration": 0.0583,
      "velocity": 117,
      "chip": "ym2612"
    },
    {
      "channel": 0,
      "note": 76,
      "start": 67.2307,
      "duration": 0.1134,
      "velocity": 97,
      "chip": "ym2612"
    },
    {
      "channel": 1,
      "note": 45,
      "start": 67.2316,
      "duration": 0.1127,
      "velocity": 97,
      "chip": "ym2612"
    },
    {
      "channel": 4,
      "note": 54,
      "start": 67.2333,
      "duration": 0.1793,
      "velocity": 94,
      "chip": "ym2612"
    },
    {
      "channel": 5,
      "note": 56,
      "start": 67.2367,
      "duration": 0.2407,
      "velocity": 122,
      "chip": "ym2612"
    },
    {
      "channel": 0,
      "note": 73,
      "start": 67.3947,
      "duration": 0.0494,
      "velocity": 97,
      "chip": "ym2612"
    },
    {
      "channel": 1,
      "note": 57,
      "start": 67.3956,
      "duration": 0.0486,
      "velocity": 97,
      "chip": "ym2612"
    },
    {
      "channel": 0,
      "note": 76,
      "start": 67.4807,
      "duration": 0.1132,
      "velocity": 97,
      "chip": "ym2612"
    },
    {
      "channel": 1,
      "note": 61,
      "start": 67.4816,
      "duration": 0.1125,
      "velocity": 97,
      "chip": "ym2612"
    },
    {
      "channel": 4,
      "note": 66,
      "start": 67.4832,
      "duration": 0.1792,
      "velocity": 94,
      "chip": "ym2612"
    },
    {
      "channel": 5,
      "note": 51,
      "start": 67.4865,
      "duration": 0.1408,
      "velocity": 122,
      "chip": "ym2612"
    },
    {
      "channel": 0,
      "note": 78,
      "start": 67.6307,
      "duration": 0.1802,
      "velocity": 97,
      "chip": "ym2612"
    },
    {
      "channel": 1,
      "note": 61,
      "start": 67.6316,
      "duration": 0.0463,
      "velocity": 97,
      "chip": "ym2612"
    },
    {
      "channel": 5,
      "note": 44,
      "start": 67.6363,
      "duration": 0.0744,
      "velocity": 122,
      "chip": "ym2612"
    },
    {
      "channel": 4,
      "note": 54,
      "start": 67.7157,
      "duration": 0.1137,
      "velocity": 94,
      "chip": "ym2612"
    },
    {
      "channel": 5,
      "note": 48,
      "start": 67.719,
      "duration": 0.1415,
      "velocity": 127,
      "chip": "ym2612"
    },
    {
      "channel": 4,
      "note": 66,
      "start": 67.8654,
      "duration": 0.0469,
      "velocity": 94,
      "chip": "ym2612"
    },
    {
      "channel": 5,
      "note": 48,
      "start": 67.8688,
      "duration": 0.0756,
      "velocity": 127,
      "chip": "ym2612"
    },
    {
      "channel": 0,
      "note": 78,
      "start": 67.9479,
      "duration": 0.1127,
      "velocity": 97,
      "chip": "ym2612"
    },
    {
      "channel": 1,
      "note": 61,
      "start": 67.9492,
      "duration": 0.1116,
      "velocity": 97,
      "chip": "ym2612"
    },
    {
      "channel": 2,
      "note": 69,
      "start": 67.95,
      "duration": 0.4646,
      "velocity": 117,
      "chip": "ym2612"
    },
    {
      "channel": 3,
      "note": 66,
      "start": 67.9509,
      "duration": 0.4646,
      "velocity": 117,
      "chip": "ym2612"
    },
    {
      "channel": 4,
      "note": 54,
      "start": 67.9519,
      "duration": 0.1772,
      "velocity": 94,
      "chip": "ym2612"
    },
    {
      "channel": 5,
      "note": 56,
      "start": 67.9552,
      "duration": 0.1388,
      "velocity": 117,
      "chip": "ym2612"
    },
    {
      "channel": 0,
      "note": 73,
      "start": 68.0973,
      "duration": 0.0469,
      "velocity": 97,
      "chip": "ym2612"
    },
    {
      "channel": 5,
      "note": 57,
      "start": 68.1024,
      "duration": 0.075,
      "velocity": 115,
      "chip": "ym2612"
    },
    {
      "channel": 0,
      "note": 76,
      "start": 68.1807,
      "duration": 0.1134,
      "velocity": 97,
      "chip": "ym2612"
    },
    {
      "channel": 5,
      "note": 57,
      "start": 68.1858,
      "duration": 0.1415,
      "velocity": 115,
      "chip": "ym2612"
    },
    {
      "channel": 0,
      "note": 73,
      "start": 68.3306,
      "duration": 0.0469,
      "velocity": 97,
      "chip": "ym2612"
    },
    {
      "channel": 1,
      "note": 57,
      "start": 68.3315,
      "duration": 0.0461,
      "velocity": 97,
      "chip": "ym2612"
    },
    {
      "channel": 5,
      "note": 57,
      "start": 68.336,
      "duration": 0.0747,
      "velocity": 115,
      "chip": "ym2612"
    },
    {
      "channel": 0,
      "note": 81,
      "start": 68.414,
      "duration": 0.1132,
      "velocity": 97,
      "chip": "ym2612"
    },
    {
      "channel": 2,
      "note": 78,
      "start": 68.4153,
      "duration": 0.4655,
      "velocity": 117,
      "chip": "ym2612"
    },
    {
      "channel": 3,
      "note": 73,
      "start": 68.4161,
      "duration": 0.4655,
      "velocity": 117,
      "chip": "ym2612"
    },
    {
      "channel": 4,
      "note": 49,
      "start": 68.4168,
      "duration": 0.179,
      "velocity": 94,
      "chip": "ym2612"
    },
    {
      "channel": 5,
      "note": 48,
      "start": 68.4202,
      "duration": 0.2239,
      "velocity": 127,
      "chip": "ym2612"
    },
    {
      "channel": 0,
      "note": 80,
      "start": 68.5615,
      "duration": 0.0492,
      "velocity": 97,
      "chip": "ym2612"
    },
    {
      "channel": 1,
      "note": 49,
      "start": 68.6478,
      "duration": 0.1134,
      "velocity": 97,
      "chip": "ym2612"
    },
    {
      "channel": 5,
      "note": 57,
      "start": 68.6524,
      "duration": 0.1415,
      "velocity": 115,
      "chip": "ym2612"
    },
    {
      "channel": 0,
      "note": 78,
      "start": 68.7972,
      "duration": 0.1802,
      "velocity": 97,
      "chip": "ym2612"
    },
    {
      "channel": 1,
      "note": 61,
      "start": 68.7981,
      "duration": 0.1795,
      "velocity": 97,
      "chip": "ym2612"
    },
    {
      "channel": 4,
      "note": 52,
      "start": 68.7998,
      "duration": 0.2324,
      "velocity": 94,
      "chip": "ym2612"
    },
    {
      "channel": 5,
      "note": 56,
      "start": 68.8032,
      "duration": 0.0742,
      "velocity": 117,
      "chip": "ym2612"
    },
    {
      "channel": 2,
      "note": 73,
      "start": 68.8815,
      "duration": 0.4669,
      "velocity": 117,
      "chip": "ym2612"
    },
    {
      "channel": 3,
      "note": 69,
      "start": 68.8823,
      "duration": 0.4669,
      "velocity": 117,
      "chip": "ym2612"
    },
    {
      "channel": 5,
      "note": 57,
      "start": 68.8864,
      "duration": 0.141,
      "velocity": 115,
      "chip": "ym2612"
    },
    {
      "channel": 0,
      "note": 73,
      "start": 69.0307,
      "duration": 0.0468,
      "velocity": 97,
      "chip": "ym2612"
    },
    {
      "channel": 4,
      "note": 54,
      "start": 69.0328,
      "duration": 0.0462,
      "velocity": 94,
      "chip": "ym2612"
    },
    {
      "channel": 5,
      "note": 56,
      "start": 69.0361,
      "duration": 0.0746,
      "velocity": 117,
      "chip": "ym2612"
    },
    {
      "channel": 0,
      "note": 76,
      "start": 69.114,
      "duration": 0.1134,
      "velocity": 97,
      "chip": "ym2612"
    },
    {
      "channel": 1,
      "note": 45,
      "start": 69.1149,
      "duration": 0.1127,
      "velocity": 97,
      "chip": "ym2612"
    },
    {
      "channel": 4,
      "note": 57,
      "start": 69.1167,
      "duration": 0.1792,
      "velocity": 94,
      "chip": "ym2612"
    },
    {
      "channel": 5,
      "note": 56,
      "start": 69.1201,
      "duration": 0.224,
      "velocity": 117,
      "chip": "ym2612"
    },
    {
      "channel": 0,
      "note": 73,
      "start": 69.2782,
      "duration": 0.049,
      "velocity": 97,
      "chip": "ym2612"
    },
    {
      "channel": 1,
      "note": 57,
      "start": 69.2792,
      "duration": 0.0483,
      "velocity": 97,
      "chip": "ym2612"
    },
    {
      "channel": 0,
      "note": 76,
      "start": 69.3473,
      "duration": 0.1132,
      "velocity": 97,
      "chip": "ym2612"
    },
    {
      "channel": 1,
      "note": 61,
      "start": 69.3483,
      "duration": 0.1125,
      "velocity": 97,
      "chip": "ym2612"
    },
    {
      "channel": 2,
      "note": 69,
      "start": 69.3491,
      "duration": 0.4667,
      "velocity": 117,
      "chip": "ym2612"
    },
    {
      "channel": 3,
      "note": 66,
      "start": 69.3499,
      "duration": 0.4668,
      "velocity": 117,
      "chip": "ym2612"
    },
    {
      "channel": 4,
      "note": 56,
      "start": 69.3506,
      "duration": 0.1784,
      "velocity": 94,
      "chip": "ym2612"
    },
    {
      "channel": 5,
      "note": 48,
      "start": 69.354,
      "duration": 0.2233,
      "velocity": 127,
      "chip": "ym2612"
    },
    {
      "channel": 0,
      "note": 78,
      "start": 69.5115,
      "duration": 0.0492,
      "velocity": 97,
      "chip": "ym2612"
    },
    {
      "channel": 1,
      "note": 61,
      "start": 69.5125,
      "duration": 0.0484,
      "velocity": 97,
      "chip": "ym2612"
    },
    {
      "channel": 4,
      "note": 52,
      "start": 69.5823,
      "duration": 0.1798,
      "velocity": 94,
      "chip": "ym2612"
    },
    {
      "channel": 5,
      "note": 57,
      "start": 69.5856,
      "duration": 0.1584,
      "velocity": 115,
      "chip": "ym2612"
    },
    {
      "channel": 0,
      "note": 66,
      "start": 69.7473,
      "duration": 0.0466,
      "velocity": 97,
      "chip": "ym2612"
    },
    {
      "channel": 5,
      "note": 57,
      "start": 69.7522,
      "duration": 0.0588,
      "velocity": 115,
      "chip": "ym2612"
    },
    {
      "channel": 0,
      "note": 78,
      "start": 69.8145,
      "duration": 0.1128,
      "velocity": 97,
      "chip": "ym2612"
    },
    {
      "channel": 1,
      "note": 62,
      "start": 69.8155,
      "duration": 0.112,
      "velocity": 97,
      "chip": "ym2612"
    },
    {
      "channel": 2,
      "note": 66,
      "start": 69.8164,
      "duration": 1.4153,
      "velocity": 117,
      "chip": "ym2612"
    },
    {
      "channel": 3,
      "note": 62,
      "start": 69.8174,
      "duration": 1.4152,
      "velocity": 117,
      "chip": "ym2612"
    },
    {
      "channel": 4,
      "note": 50,
      "start": 69.8184,
      "duration": 0.11,
      "velocity": 94,
      "chip": "ym2612"
    },
    {
      "channel": 5,
      "note": 56,
      "start": 69.8218,
      "duration": 0.1556,
      "velocity": 117,
      "chip": "ym2612"
    },
    {
      "channel": 0,
      "note": 74,
      "start": 69.9807,
      "duration": 0.0468,
      "velocity": 97,
      "chip": "ym2612"
    },
    {
      "channel": 5,
      "note": 57,
      "start": 69.9858,
      "duration": 0.0748,
      "velocity": 115,
      "chip": "ym2612"
    },
    {
      "channel": 0,
      "note": 76,
      "start": 70.0639,
      "duration": 0.1135,
      "velocity": 97,
      "chip": "ym2612"
    },
    {
      "channel": 4,
      "note": 52,
      "start": 70.0661,
      "duration": 0.18,
      "velocity": 94,
      "chip": "ym2612"
    },
    {
      "channel": 5,
      "note": 57,
      "start": 70.0694,
      "duration": 0.1413,
      "velocity": 115,
      "chip": "ym2612"
    },
    {
      "channel": 0,
      "note": 74,
      "start": 70.214,
      "duration": 0.0466,
      "velocity": 97,
      "chip": "ym2612"
    },
    {
      "channel": 1,
      "note": 57,
      "start": 70.2149,
      "duration": 0.0459,
      "velocity": 97,
      "chip": "ym2612"
    },
    {
      "channel": 5,
      "note": 57,
      "start": 70.2195,
      "duration": 0.0746,
      "velocity": 115,
      "chip": "ym2612"
    },
    {
      "channel": 0,
      "note": 81,
      "start": 70.2973,
      "duration": 0.1134,
      "velocity": 97,
      "chip": "ym2612"
    },
    {
      "channel": 4,
      "note": 54,
      "start": 70.2994,
      "duration": 0.1798,
      "velocity": 94,
      "chip": "ym2612"
    },
    {
      "channel": 5,
      "note": 48,
      "start": 70.3028,
      "duration": 0.2245,
      "velocity": 127,
      "chip": "ym2612"
    },
    {
      "channel": 0,
      "note": 80,
      "start": 70.4449,
      "duration": 0.0494,
      "velocity": 97,
      "chip": "ym2612"
    },
    {
      "channel": 1,
      "note": 50,
      "start": 70.5309,
      "duration": 0.1136,
      "velocity": 97,
      "chip": "ym2612"
    },
    {
      "channel": 4,
      "note": 50,
      "start": 70.5327,
      "duration": 0.113,
      "velocity": 94,
      "chip": "ym2612"
    },
    {
      "channel": 5,
      "note": 57,
      "start": 70.536,
      "duration": 0.1413,
      "velocity": 115,
      "chip": "ym2612"
    },
    {
      "channel": 0,
      "note": 78,
      "start": 70.6807,
      "duration": 0.1799,
      "velocity": 97,
      "chip": "ym2612"
    },
    {
      "channel": 1,
      "note": 62,
      "start": 70.6816,
      "duration": 0.1792,
      "velocity": 97,
      "chip": "ym2612"
    },
    {
      "channel": 4,
      "note": 64,
      "start": 70.6833,
      "duration": 0.3134,
      "velocity": 94,
      "chip": "ym2612"
    },
    {
      "channel": 5,
      "note": 56,
      "start": 70.6866,
      "duration": 0.0741,
      "velocity": 117,
      "chip": "ym2612"
    },
    {
      "channel": 5,
      "note": 57,
      "start": 70.769,
      "duration": 0.1417,
      "velocity": 115,
      "chip": "ym2612"
    },
    {
      "channel": 0,
      "note": 74,
      "start": 70.914,
      "duration": 0.0468,
      "velocity": 97,
      "chip": "ym2612"
    },
    {
      "channel": 5,
      "note": 56,
      "start": 70.9191,
      "duration": 0.2249,
      "velocity": 117,
      "chip": "ym2612"
    },
    {
      "channel": 0,
      "note": 76,
      "start": 70.9947,
      "duration": 0.116,
      "velocity": 97,
      "chip": "ym2612"
    },
    {
      "channel": 1,
      "note": 45,
      "start": 70.9956,
      "duration": 0.1153,
      "velocity": 97,
      "chip": "ym2612"
    },
    {
      "channel": 4,
      "note": 57,
      "start": 70.9973,
      "duration": 0.1821,
      "velocity": 94,
      "chip": "ym2612"
    },
    {
      "channel": 0,
      "note": 74,
      "start": 71.1473,
      "duration": 0.0466,
      "velocity": 97,
      "chip": "ym2612"
    },
    {
      "channel": 1,
      "note": 57,
      "start": 71.1483,
      "duration": 0.0459,
      "velocity": 97,
      "chip": "ym2612"
    },
    {
      "channel": 5,
      "note": 56,
      "start": 71.1528,
      "duration": 0.0746,
      "velocity": 117,
      "chip": "ym2612"
    },
    {
      "channel": 0,
      "note": 76,
      "start": 71.2307,
      "duration": 0.1134,
      "velocity": 97,
      "chip": "ym2612"
    },
    {
      "channel": 1,
      "note": 62,
      "start": 71.2316,
      "duration": 0.1127,
      "velocity": 97,
      "chip": "ym2612"
    },
    {
      "channel": 2,
      "note": 69,
      "start": 71.2324,
      "duration": 0.466,
      "velocity": 117,
      "chip": "ym2612"
    },
    {
      "channel": 3,
      "note": 66,
      "start": 71.2333,
      "duration": 0.4659,
      "velocity": 117,
      "chip": "ym2612"
    },
    {
      "channel": 4,
      "note": 54,
      "start": 71.2341,
      "duration": 0.1112,
      "velocity": 94,
      "chip": "ym2612"
    },
    {
      "channel": 5,
      "note": 48,
      "start": 71.2375,
      "duration": 0.2231,
      "velocity": 127,
      "chip": "ym2612"
    },
    {
      "channel": 0,
      "note": 78,
      "start": 71.3782,
      "duration": 0.0492,
      "velocity": 97,
      "chip": "ym2612"
    },
    {
      "channel": 1,
      "note": 62,
      "start": 71.3792,
      "duration": 0.0484,
      "velocity": 97,
      "chip": "ym2612"
    },
    {
      "channel": 4,
      "note": 50,
      "start": 71.3808,
      "duration": 0.1818,
      "velocity": 94,
      "chip": "ym2612"
    },
    {
      "channel": 5,
      "note": 57,
      "start": 71.4685,
      "duration": 0.1422,
      "velocity": 115,
      "chip": "ym2612"
    },
    {
      "channel": 0,
      "note": 66,
      "start": 71.6139,
      "duration": 0.0466,
      "velocity": 97,
      "chip": "ym2612"
    },
    {
      "channel": 5,
      "note": 56,
      "start": 71.6188,
      "duration": 0.0752,
      "velocity": 117,
      "chip": "ym2612"
    },
    {
      "channel": 0,
      "note": 80,
      "start": 71.6973,
      "duration": 0.1134,
      "velocity": 97,
      "chip": "ym2612"
    },
    {
      "channel": 1,
      "note": 64,
      "start": 71.6983,
      "duration": 0.1127,
      "velocity": 97,
      "chip": "ym2612"
    },
    {
      "channel": 2,
      "note": 68,
      "start": 71.6991,
      "duration": 0.9483,
      "velocity": 117,
      "chip": "ym2612"
    },
    {
      "channel": 3,
      "note": 64,
      "start": 71.6999,
      "duration": 0.9484,
      "velocity": 117,
      "chip": "ym2612"
    },
    {
      "channel": 4,
      "note": 52,
      "start": 71.7007,
      "duration": 0.1112,
      "velocity": 94,
      "chip": "ym2612"
    },
    {
      "channel": 5,
      "note": 56,
      "start": 71.704,
      "duration": 0.1566,
      "velocity": 117,
      "chip": "ym2612"
    },
    {
      "channel": 0,
      "note": 76,
      "start": 71.8639,
      "duration": 0.0469,
      "velocity": 97,
      "chip": "ym2612"
    },
    {
      "channel": 5,
      "note": 57,
      "start": 71.869,
      "duration": 0.0583,
      "velocity": 115,
      "chip": "ym2612"
    },
    {
      "channel": 0,
      "note": 78,
      "start": 71.9306,
      "duration": 0.1135,
      "velocity": 97,
      "chip": "ym2612"
    },
    {
      "channel": 4,
      "note": 59,
      "start": 71.9327,
      "duration": 0.1129,
      "velocity": 94,
      "chip": "ym2612"
    },
    {
      "channel": 5,
      "note": 57,
      "start": 71.936,
      "duration": 0.158,
      "velocity": 115,
      "chip": "ym2612"
    },
    {
      "channel": 0,
      "note": 76,
      "start": 72.0973,
      "duration": 0.0468,
      "velocity": 97,
      "chip": "ym2612"
    },
    {
      "channel": 1,
      "note": 59,
      "start": 72.0983,
      "duration": 0.046,
      "velocity": 97,
      "chip": "ym2612"
    },
    {
      "channel": 5,
      "note": 57,
      "start": 72.1028,
      "duration": 0.0579,
      "velocity": 115,
      "chip": "ym2612"
    },
    {
      "channel": 0,
      "note": 83,
      "start": 72.164,
      "duration": 0.1134,
      "velocity": 97,
      "chip": "ym2612"
    },
    {
      "channel": 4,
      "note": 56,
      "start": 72.1661,
      "duration": 0.1129,
      "velocity": 94,
      "chip": "ym2612"
    },
    {
      "channel": 5,
      "note": 48,
      "start": 72.1694,
      "duration": 0.2245,
      "velocity": 127,
      "chip": "ym2612"
    },
    {
      "channel": 0,
      "note": 81,
      "start": 72.3281,
      "duration": 0.0494,
      "velocity": 97,
      "chip": "ym2612"
    },
    {
      "channel": 1,
      "note": 52,
      "start": 72.3976,
      "duration": 0.1138,
      "velocity": 97,
      "chip": "ym2612"
    },
    {
      "channel": 4,
      "note": 52,
      "start": 72.3993,
      "duration": 0.1131,
      "velocity": 94,
      "chip": "ym2612"
    },
    {
      "channel": 5,
      "note": 57,
      "start": 72.4027,
      "duration": 0.158,
      "velocity": 115,
      "chip": "ym2612"
    },
    {
      "channel": 0,
      "note": 80,
      "start": 72.564,
      "duration": 0.1802,
      "velocity": 97,
      "chip": "ym2612"
    },
    {
      "channel": 1,
      "note": 64,
      "start": 72.5649,
      "duration": 0.1794,
      "velocity": 97,
      "chip": "ym2612"
    },
    {
      "channel": 4,
      "note": 52,
      "start": 72.5666,
      "duration": 0.1788,
      "velocity": 94,
      "chip": "ym2612"
    },
    {
      "channel": 5,
      "note": 56,
      "start": 72.5699,
      "duration": 0.0741,
      "velocity": 117,
      "chip": "ym2612"
    },
    {
      "channel": 2,
      "note": 64,
      "start": 72.6481,
      "duration": 0.9342,
      "velocity": 117,
      "chip": "ym2612"
    },
    {
      "channel": 3,
      "note": 59,
      "start": 72.6489,
      "duration": 0.9342,
      "velocity": 117,
      "chip": "ym2612"
    },
    {
      "channel": 5,
      "note": 57,
      "start": 72.6526,
      "duration": 0.2247,
      "velocity": 115,
      "chip": "ym2612"
    },
    {
      "channel": 0,
      "note": 76,
      "start": 72.7947,
      "duration": 0.0494,
      "velocity": 97,
      "chip": "ym2612"
    },
    {
      "channel": 4,
      "note": 52,
      "start": 72.7968,
      "duration": 0.0488,
      "velocity": 94,
      "chip": "ym2612"
    },
    {
      "channel": 0,
      "note": 78,
      "start": 72.8807,
      "duration": 0.1132,
      "velocity": 97,
      "chip": "ym2612"
    },
    {
      "channel": 1,
      "note": 47,
      "start": 72.8816,
      "duration": 0.1125,
      "velocity": 97,
      "chip": "ym2612"
    },
    {
      "channel": 4,
      "note": 52,
      "start": 72.8834,
      "duration": 0.1118,
      "velocity": 94,
      "chip": "ym2612"
    },
    {
      "channel": 5,
      "note": 56,
      "start": 72.8867,
      "duration": 0.224,
      "velocity": 117,
      "chip": "ym2612"
    },
    {
      "channel": 0,
      "note": 76,
      "start": 73.0282,
      "duration": 0.0494,
      "velocity": 97,
      "chip": "ym2612"
    },
    {
      "channel": 1,
      "note": 59,
      "start": 73.0292,
      "duration": 0.0485,
      "velocity": 97,
      "chip": "ym2612"
    },
    {
      "channel": 4,
      "note": 52,
      "start": 73.0307,
      "duration": 0.1153,
      "velocity": 94,
      "chip": "ym2612"
    },
    {
      "channel": 0,
      "note": 78,
      "start": 73.114,
      "duration": 0.1134,
      "velocity": 97,
      "chip": "ym2612"
    },
    {
      "channel": 1,
      "note": 64,
      "start": 73.1149,
      "duration": 0.1127,
      "velocity": 97,
      "chip": "ym2612"
    },
    {
      "channel": 5,
      "note": 48,
      "start": 73.1195,
      "duration": 0.2245,
      "velocity": 127,
      "chip": "ym2612"
    },
    {
      "channel": 0,
      "note": 80,
      "start": 73.2614,
      "duration": 0.0495,
      "velocity": 97,
      "chip": "ym2612"
    },
    {
      "channel": 1,
      "note": 64,
      "start": 73.2623,
      "duration": 0.0487,
      "velocity": 97,
      "chip": "ym2612"
    },
    {
      "channel": 4,
      "note": 52,
      "start": 73.2639,
      "duration": 0.1153,
      "velocity": 94,
      "chip": "ym2612"
    },
    {
      "channel": 5,
      "note": 57,
      "start": 73.3519,
      "duration": 0.1421,
      "velocity": 115,
      "chip": "ym2612"
    },
    {
      "channel": 0,
      "note": 80,
      "start": 73.4973,
      "duration": 0.0468,
      "velocity": 97,
      "chip": "ym2612"
    },
    {
      "channel": 4,
      "note": 50,
      "start": 73.4993,
      "duration": 0.0461,
      "velocity": 94,
      "chip": "ym2612"
    },
    {
      "channel": 5,
      "note": 57,
      "start": 73.5026,
      "duration": 0.0749,
      "velocity": 115,
      "chip": "ym2612"
    },
    {
      "channel": 0,
      "note": 81,
      "start": 73.5811,
      "duration": 0.1798,
      "velocity": 97,
      "chip": "ym2612"
    },
    {
      "channel": 1,
      "note": 66,
      "start": 73.5822,
      "duration": 0.1789,
      "velocity": 97,
      "chip": "ym2612"
    },
    {
      "channel": 2,
      "note": 66,
      "start": 73.583,
      "duration": 0.931,
      "velocity": 117,
      "chip": "ym2612"
    },
    {
      "channel": 3,
      "note": 61,
      "start": 73.5839,
      "duration": 0.9311,
      "velocity": 117,
      "chip": "ym2612"
    },
    {
      "channel": 4,
      "note": 49,
      "start": 73.5848,
      "duration": 1.1778,
      "velocity": 94,
      "chip": "ym2612"
    },
    {
      "channel": 5,
      "note": 56,
      "start": 73.5882,
      "duration": 0.1391,
      "velocity": 117,
      "chip": "ym2612"
    },
    {
      "channel": 5,
      "note": 57,
      "start": 73.7351,
      "duration": 0.0756,
      "velocity": 115,
      "chip": "ym2612"
    },
    {
      "channel": 0,
      "note": 81,
      "start": 73.814,
      "duration": 0.1132,
      "velocity": 97,
      "chip": "ym2612"
    },
    {
      "channel": 1,
      "note": 66,
      "start": 73.8149,
      "duration": 0.1125,
      "velocity": 97,
      "chip": "ym2612"
    },
    {
      "channel": 5,
      "note": 57,
      "start": 73.8196,
      "duration": 0.1411,
      "velocity": 115,
      "chip": "ym2612"
    },
    {
      "channel": 5,
      "note": 57,
      "start": 73.9686,
      "duration": 0.0754,
      "velocity": 115,
      "chip": "ym2612"
    },
    {
      "channel": 0,
      "note": 81,
      "start": 74.0473,
      "duration": 0.1135,
      "velocity": 97,
      "chip": "ym2612"
    },
    {
      "channel": 1,
      "note": 66,
      "start": 74.0481,
      "duration": 0.1128,
      "velocity": 97,
      "chip": "ym2612"
    },
    {
      "channel": 5,
      "note": 48,
      "start": 74.0527,
      "duration": 0.2247,
      "velocity": 127,
      "chip": "ym2612"
    },
    {
      "channel": 0,
      "note": 73,
      "start": 74.1947,
      "duration": 0.0494,
      "velocity": 97,
      "chip": "ym2612"
    },
    {
      "channel": 1,
      "note": 66,
      "start": 74.1956,
      "duration": 0.0486,
      "velocity": 97,
      "chip": "ym2612"
    },
    {
      "channel": 0,
      "note": 81,
      "start": 74.2807,
      "duration": 0.1132,
      "velocity": 97,
      "chip": "ym2612"
    },
    {
      "channel": 1,
      "note": 66,
      "start": 74.2816,
      "duration": 0.1125,
      "velocity": 97,
      "chip": "ym2612"
    },
    {
      "channel": 5,
      "note": 57,
      "start": 74.2863,
      "duration": 0.1578,
      "velocity": 115,
      "chip": "ym2612"
    },
    {
      "channel": 0,
      "note": 80,
      "start": 74.4473,
      "duration": 0.8301,
      "velocity": 97,
      "chip": "ym2612"
    },
    {
      "channel": 1,
      "note": 65,
      "start": 74.4483,
      "duration": 0.8293,
      "velocity": 97,
      "chip": "ym2612"
    },
    {
      "channel": 5,
      "note": 56,
      "start": 74.4528,
      "duration": 0.0579,
      "velocity": 117,
      "chip": "ym2612"
    },
    {
      "channel": 2,
      "note": 65,
      "start": 74.5148,
      "duration": 0.466,
      "velocity": 117,
      "chip": "ym2612"
    },
    {
      "channel": 3,
      "note": 61,
      "start": 74.5157,
      "duration": 0.466,
      "velocity": 117,
      "chip": "ym2612"
    },
    {
      "channel": 5,
      "note": 57,
      "start": 74.5194,
      "duration": 0.158,
      "velocity": 115,
      "chip": "ym2612"
    },
    {
      "channel": 5,
      "note": 56,
      "start": 74.6854,
      "duration": 0.0586,
      "velocity": 117,
      "chip": "ym2612"
    },
    {
      "channel": 5,
      "note": 56,
      "start": 74.7521,
      "duration": 0.1586,
      "velocity": 117,
      "chip": "ym2612"
    },
    {
      "channel": 5,
      "note": 48,
      "start": 74.9186,
      "duration": 0.0588,
      "velocity": 127,
      "chip": "ym2612"
    },
    {
      "channel": 2,
      "note": 61,
      "start": 74.9815,
      "duration": 0.4842,
      "velocity": 117,
      "chip": "ym2612"
    },
    {
      "channel": 3,
      "note": 56,
      "start": 74.9823,
      "duration": 0.4843,
      "velocity": 117,
      "chip": "ym2612"
    },
    {
      "channel": 5,
      "note": 48,
      "start": 74.986,
      "duration": 0.2413,
      "velocity": 127,
      "chip": "ym2612"
    },
    {
      "channel": 4,
      "note": 49,
      "start": 75.1467,
      "duration": 0.049,
      "velocity": 94,
      "chip": "ym2612"
    },
    {
      "channel": 4,
      "note": 50,
      "start": 75.2323,
      "duration": 0.1136,
      "velocity": 94,
      "chip": "ym2612"
    },
    {
      "channel": 5,
      "note": 48,
      "start": 75.2358,
      "duration": 0.1416,
      "velocity": 127,
      "chip": "ym2612"
    },
    {
      "channel": 4,
      "note": 52,
      "start": 75.3823,
      "duration": 0.047,
      "velocity": 94,
      "chip": "ym2612"
    },
    {
      "channel": 5,
      "note": 48,
      "start": 75.3857,
      "duration": 0.0751,
      "velocity": 127,
      "chip": "ym2612"
    },
    {
      "channel": 0,
      "note": 78,
      "start": 75.4643,
      "duration": 0.1131,
      "velocity": 97,
      "chip": "ym2612"
    },
    {
      "channel": 1,
      "note": 61,
      "start": 75.4656,
      "duration": 0.112,
      "velocity": 97,
      "chip": "ym2612"
    },
    {
      "channel": 2,
      "note": 66,
      "start": 75.4664,
      "duration": 0.2315,
      "velocity": 117,
      "chip": "ym2612"
    },
    {
      "channel": 3,
      "note": 61,
      "start": 75.4673,
      "duration": 0.2314,
      "velocity": 117,
      "chip": "ym2612"
    },
    {
      "channel": 4,
      "note": 54,
      "start": 75.4683,
      "duration": 0.1777,
      "velocity": 94,
      "chip": "ym2612"
    },
    {
      "channel": 5,
      "note": 56,
      "start": 75.4717,
      "duration": 0.139,
      "velocity": 117,
      "chip": "ym2612"
    },
    {
      "channel": 0,
      "note": 73,
      "start": 75.614,
      "duration": 0.0467,
      "velocity": 97,
      "chip": "ym2612"
    },
    {
      "channel": 5,
      "note": 57,
      "start": 75.6194,
      "duration": 0.0747,
      "velocity": 115,
      "chip": "ym2612"
    },
    {
      "channel": 0,
      "note": 76,
      "start": 75.6973,
      "duration": 0.1134,
      "velocity": 97,
      "chip": "ym2612"
    },
    {
      "channel": 2,
      "note": 73,
      "start": 75.6986,
      "duration": 0.2325,
      "velocity": 117,
      "chip": "ym2612"
    },
    {
      "channel": 3,
      "note": 69,
      "start": 75.6995,
      "duration": 0.2325,
      "velocity": 117,
      "chip": "ym2612"
    },
    {
      "channel": 5,
      "note": 57,
      "start": 75.7031,
      "duration": 0.141,
      "velocity": 115,
      "chip": "ym2612"
    },
    {
      "channel": 0,
      "note": 73,
      "start": 75.8473,
      "duration": 0.0469,
      "velocity": 97,
      "chip": "ym2612"
    },
    {
      "channel": 1,
      "note": 57,
      "start": 75.8483,
      "duration": 0.0461,
      "velocity": 97,
      "chip": "ym2612"
    },
    {
      "channel": 5,
      "note": 57,
      "start": 75.8528,
      "duration": 0.0745,
      "velocity": 115,
      "chip": "ym2612"
    },
    {
      "channel": 0,
      "note": 81,
      "start": 75.9306,
      "duration": 0.1135,
      "velocity": 97,
      "chip": "ym2612"
    },
    {
      "channel": 2,
      "note": 69,
      "start": 75.9318,
      "duration": 0.2327,
      "velocity": 117,
      "chip": "ym2612"
    },
    {
      "channel": 3,
      "note": 66,
      "start": 75.9327,
      "duration": 0.2328,
      "velocity": 117,
      "chip": "ym2612"
    },
    {
      "channel": 4,
      "note": 49,
      "start": 75.9334,
      "duration": 0.1793,
      "velocity": 94,
      "chip": "ym2612"
    },
    {
      "channel": 5,
      "note": 48,
      "start": 75.9367,
      "duration": 0.224,
      "velocity": 127,
      "chip": "ym2612"
    },
    {
      "channel": 0,
      "note": 80,
      "start": 76.0782,
      "duration": 0.049,
      "velocity": 97,
      "chip": "ym2612"
    },
    {
      "channel": 1,
      "note": 49,
      "start": 76.1645,
      "duration": 0.1134,
      "velocity": 97,
      "chip": "ym2612"
    },
    {
      "channel": 2,
      "note": 68,
      "start": 76.1653,
      "duration": 0.1498,
      "velocity": 117,
      "chip": "ym2612"
    },
    {
      "channel": 3,
      "note": 66,
      "start": 76.1661,
      "duration": 0.1498,
      "velocity": 117,
      "chip": "ym2612"
    },
    {
      "channel": 5,
      "note": 57,
      "start": 76.1698,
      "duration": 0.1409,
      "velocity": 115,
      "chip": "ym2612"
    },
    {
      "channel": 0,
      "note": 78,
      "start": 76.314,
      "duration": 0.1801,
      "velocity": 97,
      "chip": "ym2612"
    },
    {
      "channel": 1,
      "note": 61,
      "start": 76.3149,
      "duration": 0.1793,
      "velocity": 97,
      "chip": "ym2612"
    },
    {
      "channel": 2,
      "note": 66,
      "start": 76.3157,
      "duration": 0.7817,
      "velocity": 117,
      "chip": "ym2612"
    },
    {
      "channel": 3,
      "note": 61,
      "start": 76.3166,
      "duration": 0.7817,
      "velocity": 117,
      "chip": "ym2612"
    },
    {
      "channel": 4,
      "note": 52,
      "start": 76.3174,
      "duration": 0.2316,
      "velocity": 94,
      "chip": "ym2612"
    },
    {
      "channel": 5,
      "note": 56,
      "start": 76.3207,
      "duration": 0.0732,
      "velocity": 117,
      "chip": "ym2612"
    },
    {
      "channel": 5,
      "note": 57,
      "start": 76.4021,
      "duration": 0.1419,
      "velocity": 115,
      "chip": "ym2612"
    },
    {
      "channel": 0,
      "note": 73,
      "start": 76.5473,
      "duration": 0.0466,
      "velocity": 97,
      "chip": "ym2612"
    },
    {
      "channel": 4,
      "note": 54,
      "start": 76.5496,
      "duration": 0.0458,
      "velocity": 94,
      "chip": "ym2612"
    },
    {
      "channel": 5,
      "note": 56,
      "start": 76.5529,
      "duration": 0.0745,
      "velocity": 117,
      "chip": "ym2612"
    },
    {
      "channel": 0,
      "note": 76,
      "start": 76.6307,
      "duration": 0.1134,
      "velocity": 97,
      "chip": "ym2612"
    },
    {
      "channel": 1,
      "note": 45,
      "start": 76.6316,
      "duration": 0.1127,
      "velocity": 97,
      "chip": "ym2612"
    },
    {
      "channel": 4,
      "note": 57,
      "start": 76.6333,
      "duration": 0.1794,
      "velocity": 94,
      "chip": "ym2612"
    },
    {
      "channel": 5,
      "note": 56,
      "start": 76.6366,
      "duration": 0.224,
      "velocity": 117,
      "chip": "ym2612"
    },
    {
      "channel": 0,
      "note": 73,
      "start": 76.7947,
      "duration": 0.0494,
      "velocity": 97,
      "chip": "ym2612"
    },
    {
      "channel": 1,
      "note": 57,
      "start": 76.7956,
      "duration": 0.0486,
      "velocity": 97,
      "chip": "ym2612"
    },
    {
      "channel": 0,
      "note": 76,
      "start": 76.8639,
      "duration": 0.1135,
      "velocity": 97,
      "chip": "ym2612"
    },
    {
      "channel": 1,
      "note": 61,
      "start": 76.8648,
      "duration": 0.1128,
      "velocity": 97,
      "chip": "ym2612"
    },
    {
      "channel": 4,
      "note": 56,
      "start": 76.8664,
      "duration": 0.1795,
      "velocity": 94,
      "chip": "ym2612"
    },
    {
      "channel": 5,
      "note": 48,
      "start": 76.8698,
      "duration": 0.2243,
      "velocity": 127,
      "chip": "ym2612"
    },
    {
      "channel": 0,
      "note": 78,
      "start": 77.0282,
      "duration": 0.0492,
      "velocity": 97,
      "chip": "ym2612"
    },
    {
      "channel": 1,
      "note": 61,
      "start": 77.0292,
      "duration": 0.0484,
      "velocity": 97,
      "chip": "ym2612"
    },
    {
      "channel": 2,
      "note": 69,
      "start": 77.0981,
      "duration": 0.1661,
      "velocity": 117,
      "chip": "ym2612"
    },
    {
      "channel": 3,
      "note": 66,
      "start": 77.0989,
      "duration": 0.2339,
      "velocity": 117,
      "chip": "ym2612"
    },
    {
      "channel": 4,
      "note": 52,
      "start": 77.0996,
      "duration": 0.1792,
      "velocity": 94,
      "chip": "ym2612"
    },
    {
      "channel": 5,
      "note": 57,
      "start": 77.103,
      "duration": 0.1576,
      "velocity": 115,
      "chip": "ym2612"
    },
    {
      "channel": 0,
      "note": 66,
      "start": 77.2638,
      "duration": 0.047,
      "velocity": 97,
      "chip": "ym2612"
    },
    {
      "channel": 2,
      "note": 68,
      "start": 77.265,
      "duration": 0.0671,
      "velocity": 117,
      "chip": "ym2612"
    },
    {
      "channel": 5,
      "note": 57,
      "start": 77.2692,
      "duration": 0.0582,
      "velocity": 115,
      "chip": "ym2612"
    },
    {
      "channel": 0,
      "note": 78,
      "start": 77.3309,
      "duration": 0.1132,
      "velocity": 97,
      "chip": "ym2612"
    },
    {
      "channel": 1,
      "note": 62,
      "start": 77.3319,
      "duration": 0.1123,
      "velocity": 97,
      "chip": "ym2612"
    },
    {
      "channel": 2,
      "note": 66,
      "start": 77.3327,
      "duration": 0.948,
      "velocity": 117,
      "chip": "ym2612"
    },
    {
      "channel": 3,
      "note": 62,
      "start": 77.3335,
      "duration": 0.9481,
      "velocity": 117,
      "chip": "ym2612"
    },
    {
      "channel": 4,
      "note": 50,
      "start": 77.3345,
      "duration": 0.1108,
      "velocity": 94,
      "chip": "ym2612"
    },
    {
      "channel": 5,
      "note": 56,
      "start": 77.3379,
      "duration": 0.1562,
      "velocity": 117,
      "chip": "ym2612"
    },
    {
      "channel": 0,
      "note": 74,
      "start": 77.4973,
      "duration": 0.0468,
      "velocity": 97,
      "chip": "ym2612"
    },
    {
      "channel": 5,
      "note": 57,
      "start": 77.5024,
      "duration": 0.0583,
      "velocity": 115,
      "chip": "ym2612"
    },
    {
      "channel": 0,
      "note": 76,
      "start": 77.564,
      "duration": 0.1136,
      "velocity": 97,
      "chip": "ym2612"
    },
    {
      "channel": 4,
      "note": 52,
      "start": 77.5662,
      "duration": 0.1797,
      "velocity": 94,
      "chip": "ym2612"
    },
    {
      "channel": 5,
      "note": 57,
      "start": 77.5695,
      "duration": 0.1577,
      "velocity": 115,
      "chip": "ym2612"
    },
    {
      "channel": 0,
      "note": 74,
      "start": 77.7306,
      "duration": 0.0469,
      "velocity": 97,
      "chip": "ym2612"
    },
    {
      "channel": 1,
      "note": 57,
      "start": 77.7315,
      "duration": 0.0461,
      "velocity": 97,
      "chip": "ym2612"
    },
    {
      "channel": 5,
      "note": 57,
      "start": 77.736,
      "duration": 0.0747,
      "velocity": 115,
      "chip": "ym2612"
    },
    {
      "channel": 0,
      "note": 81,
      "start": 77.814,
      "duration": 0.1132,
      "velocity": 97,
      "chip": "ym2612"
    },
    {
      "channel": 4,
      "note": 54,
      "start": 77.8161,
      "duration": 0.1796,
      "velocity": 94,
      "chip": "ym2612"
    },
    {
      "channel": 5,
      "note": 48,
      "start": 77.8194,
      "duration": 0.2246,
      "velocity": 127,
      "chip": "ym2612"
    },
    {
      "channel": 0,
      "note": 80,
      "start": 77.9615,
      "duration": 0.0492,
      "velocity": 97,
      "chip": "ym2612"
    },
    {
      "channel": 1,
      "note": 50,
      "start": 78.0478,
      "duration": 0.1134,
      "velocity": 97,
      "chip": "ym2612"
    },
    {
      "channel": 4,
      "note": 50,
      "start": 78.0495,
      "duration": 0.1129,
      "velocity": 94,
      "chip": "ym2612"
    },
    {
      "channel": 5,
      "note": 57,
      "start": 78.0528,
      "duration": 0.1411,
      "velocity": 115,
      "chip": "ym2612"
    },
    {
      "channel": 0,
      "note": 78,
      "start": 78.1972,
      "duration": 0.1802,
      "velocity": 97,
      "chip": "ym2612"
    },
    {
      "channel": 1,
      "note": 62,
      "start": 78.1981,
      "duration": 0.1795,
      "velocity": 97,
      "chip": "ym2612"
    },
    {
      "channel": 4,
      "note": 64,
      "start": 78.1998,
      "duration": 0.3139,
      "velocity": 94,
      "chip": "ym2612"
    },
    {
      "channel": 5,
      "note": 56,
      "start": 78.2032,
      "duration": 0.0742,
      "velocity": 117,
      "chip": "ym2612"
    },
    {
      "channel": 2,
      "note": 78,
      "start": 78.2815,
      "duration": 0.9336,
      "velocity": 117,
      "chip": "ym2612"
    },
    {
      "channel": 3,
      "note": 74,
      "start": 78.2823,
      "duration": 0.9336,
      "velocity": 117,
      "chip": "ym2612"
    },
    {
      "channel": 5,
      "note": 57,
      "start": 78.2864,
      "duration": 0.141,
      "velocity": 115,
      "chip": "ym2612"
    },
    {
      "channel": 0,
      "note": 74,
      "start": 78.4307,
      "duration": 0.0469,
      "velocity": 97,
      "chip": "ym2612"
    },
    {
      "channel": 5,
      "note": 56,
      "start": 78.4356,
      "duration": 0.2249,
      "velocity": 117,
      "chip": "ym2612"
    },
    {
      "channel": 0,
      "note": 76,
      "start": 78.5115,
      "duration": 0.1159,
      "velocity": 97,
      "chip": "ym2612"
    },
    {
      "channel": 1,
      "note": 45,
      "start": 78.5125,
      "duration": 0.1151,
      "velocity": 97,
      "chip": "ym2612"
    },
    {
      "channel": 4,
      "note": 57,
      "start": 78.5143,
      "duration": 0.1817,
      "velocity": 94,
      "chip": "ym2612"
    },
    {
      "channel": 0,
      "note": 74,
      "start": 78.6639,
      "duration": 0.0469,
      "velocity": 97,
      "chip": "ym2612"
    },
    {
      "channel": 1,
      "note": 57,
      "start": 78.6648,
      "duration": 0.0461,
      "velocity": 97,
      "chip": "ym2612"
    },
    {
      "channel": 5,
      "note": 56,
      "start": 78.6694,
      "duration": 0.0747,
      "velocity": 117,
      "chip": "ym2612"
    },
    {
      "channel": 0,
      "note": 76,
      "start": 78.7473,
      "duration": 0.1132,
      "velocity": 97,
      "chip": "ym2612"
    },
    {
      "channel": 1,
      "note": 62,
      "start": 78.7483,
      "duration": 0.1125,
      "velocity": 97,
      "chip": "ym2612"
    },
    {
      "channel": 4,
      "note": 54,
      "start": 78.75,
      "duration": 0.1118,
      "velocity": 94,
      "chip": "ym2612"
    },
    {
      "channel": 5,
      "note": 48,
      "start": 78.7533,
      "duration": 0.224,
      "velocity": 127,
      "chip": "ym2612"
    },
    {
      "channel": 0,
      "note": 78,
      "start": 78.8949,
      "duration": 0.0492,
      "velocity": 97,
      "chip": "ym2612"
    },
    {
      "channel": 1,
      "note": 62,
      "start": 78.8958,
      "duration": 0.0484,
      "velocity": 97,
      "chip": "ym2612"
    },
    {
      "channel": 4,
      "note": 50,
      "start": 78.8975,
      "duration": 0.1818,
      "velocity": 94,
      "chip": "ym2612"
    },
    {
      "channel": 5,
      "note": 57,
      "start": 78.9853,
      "duration": 0.142,
      "velocity": 115,
      "chip": "ym2612"
    },
    {
      "channel": 0,
      "note": 66,
      "start": 79.1304,
      "duration": 0.047,
      "velocity": 97,
      "chip": "ym2612"
    },
    {
      "channel": 5,
      "note": 56,
      "start": 79.1354,
      "duration": 0.0753,
      "velocity": 117,
      "chip": "ym2612"
    },
    {
      "channel": 0,
      "note": 80,
      "start": 79.214,
      "duration": 0.1132,
      "velocity": 97,
      "chip": "ym2612"
    },
    {
      "channel": 1,
      "note": 64,
      "start": 79.2149,
      "duration": 0.1125,
      "velocity": 97,
      "chip": "ym2612"
    },
    {
      "channel": 2,
      "note": 76,
      "start": 79.2157,
      "duration": 0.4655,
      "velocity": 117,
      "chip": "ym2612"
    },
    {
      "channel": 3,
      "note": 71,
      "start": 79.2166,
      "duration": 0.4655,
      "velocity": 117,
      "chip": "ym2612"
    },
    {
      "channel": 4,
      "note": 52,
      "start": 79.2174,
      "duration": 0.1111,
      "velocity": 94,
      "chip": "ym2612"
    },
    {
      "channel": 5,
      "note": 56,
      "start": 79.2208,
      "duration": 0.1566,
      "velocity": 117,
      "chip": "ym2612"
    },
    {
      "channel": 0,
      "note": 76,
      "start": 79.3807,
      "duration": 0.0468,
      "velocity": 97,
      "chip": "ym2612"
    },
    {
      "channel": 5,
      "note": 57,
      "start": 79.3858,
      "duration": 0.0583,
      "velocity": 115,
      "chip": "ym2612"
    },
    {
      "channel": 0,
      "note": 78,
      "start": 79.4473,
      "duration": 0.1134,
      "velocity": 97,
      "chip": "ym2612"
    },
    {
      "channel": 4,
      "note": 59,
      "start": 79.4495,
      "duration": 0.1127,
      "velocity": 94,
      "chip": "ym2612"
    },
    {
      "channel": 5,
      "note": 57,
      "start": 79.4528,
      "duration": 0.1579,
      "velocity": 115,
      "chip": "ym2612"
    },
    {
      "channel": 0,
      "note": 76,
      "start": 79.614,
      "duration": 0.0466,
      "velocity": 97,
      "chip": "ym2612"
    },
    {
      "channel": 1,
      "note": 59,
      "start": 79.6149,
      "duration": 0.0459,
      "velocity": 97,
      "chip": "ym2612"
    },
    {
      "channel": 5,
      "note": 57,
      "start": 79.6195,
      "duration": 0.0579,
      "velocity": 115,
      "chip": "ym2612"
    },
    {
      "channel": 0,
      "note": 83,
      "start": 79.6807,
      "duration": 0.1132,
      "velocity": 97,
      "chip": "ym2612"
    },
    {
      "channel": 2,
      "note": 71,
      "start": 79.682,
      "duration": 0.4655,
      "velocity": 117,
      "chip": "ym2612"
    },
    {
      "channel": 3,
      "note": 68,
      "start": 79.6828,
      "duration": 0.4655,
      "velocity": 117,
      "chip": "ym2612"
    },
    {
      "channel": 4,
      "note": 56,
      "start": 79.6835,
      "duration": 0.112,
      "velocity": 94,
      "chip": "ym2612"
    },
    {
      "channel": 5,
      "note": 48,
      "start": 79.6868,
      "duration": 0.2239,
      "velocity": 127,
      "chip": "ym2612"
    },
    {
      "channel": 0,
      "note": 81,
      "start": 79.8449,
      "duration": 0.0492,
      "velocity": 97,
      "chip": "ym2612"
    },
    {
      "channel": 1,
      "note": 52,
      "start": 79.9145,
      "duration": 0.1135,
      "velocity": 97,
      "chip": "ym2612"
    },
    {
      "channel": 4,
      "note": 52,
      "start": 79.9162,
      "duration": 0.1128,
      "velocity": 94,
      "chip": "ym2612"
    },
    {
      "channel": 5,
      "note": 57,
      "start": 79.9195,
      "duration": 0.1579,
      "velocity": 115,
      "chip": "ym2612"
    },
    {
      "channel": 0,
      "note": 80,
      "start": 80.0807,
      "duration": 0.18,
      "velocity": 97,
      "chip": "ym2612"
    },
    {
      "channel": 1,
      "note": 64,
      "start": 80.0816,
      "duration": 0.1793,
      "velocity": 97,
      "chip": "ym2612"
    },
    {
      "channel": 4,
      "note": 52,
      "start": 80.0833,
      "duration": 0.1786,
      "velocity": 94,
      "chip": "ym2612"
    },
    {
      "channel": 5,
      "note": 56,
      "start": 80.0866,
      "duration": 0.0574,
      "velocity": 117,
      "chip": "ym2612"
    },
    {
      "channel": 2,
      "note": 64,
      "start": 80.1481,
      "duration": 0.4836,
      "velocity": 117,
      "chip": "ym2612"
    },
    {
      "channel": 3,
      "note": 59,
      "start": 80.1489,
      "duration": 0.4836,
      "velocity": 117,
      "chip": "ym2612"
    },
    {
      "channel": 5,
      "note": 57,
      "start": 80.1526,
      "duration": 0.2413,
      "velocity": 115,
      "chip": "ym2612"
    },
    {
      "channel": 0,
      "note": 76,
      "start": 80.3115,
      "duration": 0.0492,
      "velocity": 97,
      "chip": "ym2612"
    },
    {
      "channel": 4,
      "note": 52,
      "start": 80.3138,
      "duration": 0.0485,
      "velocity": 94,
      "chip": "ym2612"
    },
    {
      "channel": 0,
      "note": 78,
      "start": 80.3972,
      "duration": 0.1135,
      "velocity": 97,
      "chip": "ym2612"
    },
    {
      "channel": 1,
      "note": 47,
      "start": 80.3981,
      "duration": 0.1128,
      "velocity": 97,
      "chip": "ym2612"
    },
    {
      "channel": 4,
      "note": 52,
      "start": 80.3998,
      "duration": 0.1123,
      "velocity": 94,
      "chip": "ym2612"
    },
    {
      "channel": 5,
      "note": 56,
      "start": 80.4032,
      "duration": 0.2242,
      "velocity": 117,
      "chip": "ym2612"
    },
    {
      "channel": 0,
      "note": 76,
      "start": 80.5449,
      "duration": 0.049,
      "velocity": 97,
      "chip": "ym2612"
    },
    {
      "channel": 1,
      "note": 59,
      "start": 80.5458,
      "duration": 0.0483,
      "velocity": 97,
      "chip": "ym2612"
    },
    {
      "channel": 4,
      "note": 52,
      "start": 80.5474,
      "duration": 0.1149,
      "velocity": 94,
      "chip": "ym2612"
    },
    {
      "channel": 0,
      "note": 78,
      "start": 80.6307,
      "duration": 0.1134,
      "velocity": 97,
      "chip": "ym2612"
    },
    {
      "channel": 1,
      "note": 64,
      "start": 80.6316,
      "duration": 0.1127,
      "velocity": 97,
      "chip": "ym2612"
    },
    {
      "channel": 2,
      "note": 68,
      "start": 80.6324,
      "duration": 0.4665,
      "velocity": 117,
      "chip": "ym2612"
    },
    {
      "channel": 3,
      "note": 64,
      "start": 80.6332,
      "duration": 0.4666,
      "velocity": 117,
      "chip": "ym2612"
    },
    {
      "channel": 5,
      "note": 48,
      "start": 80.6369,
      "duration": 0.2237,
      "velocity": 127,
      "chip": "ym2612"
    },
    {
      "channel": 0,
      "note": 80,
      "start": 80.7782,
      "duration": 0.0494,
      "velocity": 97,
      "chip": "ym2612"
    },
    {
      "channel": 1,
      "note": 64,
      "start": 80.7792,
      "duration": 0.0485,
      "velocity": 97,
      "chip": "ym2612"
    },
    {
      "channel": 4,
      "note": 52,
      "start": 80.7807,
      "duration": 0.1151,
      "velocity": 94,
      "chip": "ym2612"
    },
    {
      "channel": 5,
      "note": 57,
      "start": 80.8685,
      "duration": 0.1422,
      "velocity": 115,
      "chip": "ym2612"
    },
    {
      "channel": 0,
      "note": 80,
      "start": 81.0139,
      "duration": 0.0466,
      "velocity": 97,
      "chip": "ym2612"
    },
    {
      "channel": 4,
      "note": 50,
      "start": 81.0159,
      "duration": 0.0459,
      "velocity": 94,
      "chip": "ym2612"
    },
    {
      "channel": 5,
      "note": 57,
      "start": 81.0193,
      "duration": 0.0749,
      "velocity": 115,
      "chip": "ym2612"
    },
    {
      "channel": 0,
      "note": 78,
      "start": 81.0977,
      "duration": 0.1131,
      "velocity": 97,
      "chip": "ym2612"
    },
    {
      "channel": 1,
      "note": 61,
      "start": 81.0988,
      "duration": 0.1122,
      "velocity": 97,
      "chip": "ym2612"
    },
    {
      "channel": 2,
      "note": 69,
      "start": 81.0996,
      "duration": 1.8814,
      "velocity": 117,
      "chip": "ym2612"
    },
    {
      "channel": 3,
      "note": 66,
      "start": 81.1005,
      "duration": 1.8814,
      "velocity": 117,
      "chip": "ym2612"
    },
    {
      "channel": 4,
      "note": 54,
      "start": 81.1014,
      "duration": 0.3611,
      "velocity": 94,
      "chip": "ym2612"
    },
    {
      "channel": 5,
      "note": 56,
      "start": 81.1048,
      "duration": 0.4559,
      "velocity": 117,
      "chip": "ym2612"
    },
    {
      "channel": 0,
      "note": 73,
      "start": 81.2449,
      "duration": 0.0492,
      "velocity": 97,
      "chip": "ym2612"
    },
    {
      "channel": 0,
      "note": 76,
      "start": 81.3281,
      "duration": 0.116,
      "velocity": 97,
      "chip": "ym2612"
    },
    {
      "channel": 0,
      "note": 73,
      "start": 81.4782,
      "duration": 0.049,
      "velocity": 97,
      "chip": "ym2612"
    },
    {
      "channel": 1,
      "note": 57,
      "start": 81.4792,
      "duration": 0.0483,
      "velocity": 97,
      "chip": "ym2612"
    },
    {
      "channel": 0,
      "note": 76,
      "start": 81.564,
      "duration": 0.1134,
      "velocity": 97,
      "chip": "ym2612"
    },
    {
      "channel": 4,
      "note": 54,
      "start": 81.5661,
      "duration": 0.3631,
      "velocity": 94,
      "chip": "ym2612"
    },
    {
      "channel": 5,
      "note": 56,
      "start": 81.5694,
      "duration": 0.3913,
      "velocity": 117,
      "chip": "ym2612"
    },
    {
      "channel": 0,
      "note": 78,
      "start": 81.7115,
      "duration": 0.0492,
      "velocity": 97,
      "chip": "ym2612"
    },
    {
      "channel": 1,
      "note": 49,
      "start": 81.7951,
      "duration": 0.1161,
      "velocity": 97,
      "chip": "ym2612"
    },
    {
      "channel": 0,
      "note": 78,
      "start": 81.964,
      "duration": 0.1801,
      "velocity": 97,
      "chip": "ym2612"
    },
    {
      "channel": 1,
      "note": 61,
      "start": 81.9649,
      "duration": 0.1793,
      "velocity": 97,
      "chip": "ym2612"
    },
    {
      "channel": 5,
      "note": 56,
      "start": 81.9695,
      "duration": 0.0579,
      "velocity": 117,
      "chip": "ym2612"
    },
    {
      "channel": 4,
      "note": 54,
      "start": 82.0323,
      "duration": 0.1803,
      "velocity": 94,
      "chip": "ym2612"
    },
    {
      "channel": 5,
      "note": 48,
      "start": 82.0357,
      "duration": 0.1582,
      "velocity": 127,
      "chip": "ym2612"
    },
    {
      "channel": 0,
      "note": 73,
      "start": 82.1972,
      "duration": 0.0469,
      "velocity": 97,
      "chip": "ym2612"
    },
    {
      "channel": 5,
      "note": 56,
      "start": 82.2023,
      "duration": 0.0583,
      "velocity": 117,
      "chip": "ym2612"
    },
    {
      "channel": 0,
      "note": 76,
      "start": 82.2639,
      "duration": 0.1135,
      "velocity": 97,
      "chip": "ym2612"
    },
    {
      "channel": 1,
      "note": 45,
      "start": 82.2648,
      "duration": 0.1128,
      "velocity": 97,
      "chip": "ym2612"
    },
    {
      "channel": 4,
      "note": 54,
      "start": 82.2665,
      "duration": 0.1794,
      "velocity": 94,
      "chip": "ym2612"
    },
    {
      "channel": 5,
      "note": 56,
      "start": 82.2698,
      "duration": 0.2242,
      "velocity": 117,
      "chip": "ym2612"
    },
    {
      "channel": 0,
      "note": 73,
      "start": 82.4282,
      "duration": 0.0492,
      "velocity": 97,
      "chip": "ym2612"
    },
    {
      "channel": 1,
      "note": 57,
      "start": 82.4292,
      "duration": 0.0484,
      "velocity": 97,
      "chip": "ym2612"
    },
    {
      "channel": 0,
      "note": 76,
      "start": 82.4973,
      "duration": 0.1134,
      "velocity": 97,
      "chip": "ym2612"
    },
    {
      "channel": 1,
      "note": 61,
      "start": 82.4983,
      "duration": 0.1127,
      "velocity": 97,
      "chip": "ym2612"
    },
    {
      "channel": 4,
      "note": 66,
      "start": 82.4998,
      "duration": 0.1794,
      "velocity": 94,
      "chip": "ym2612"
    },
    {
      "channel": 5,
      "note": 48,
      "start": 82.5033,
      "duration": 0.224,
      "velocity": 127,
      "chip": "ym2612"
    },
    {
      "channel": 0,
      "note": 78,
      "start": 82.6614,
      "duration": 0.1828,
      "velocity": 97,
      "chip": "ym2612"
    },
    {
      "channel": 1,
      "note": 61,
      "start": 82.6623,
      "duration": 0.0489,
      "velocity": 97,
      "chip": "ym2612"
    },
    {
      "channel": 4,
      "note": 54,
      "start": 82.7323,
      "duration": 0.1135,
      "velocity": 94,
      "chip": "ym2612"
    },
    {
      "channel": 5,
      "note": 48,
      "start": 82.7356,
      "duration": 0.1584,
      "velocity": 127,
      "chip": "ym2612"
    },
    {
      "channel": 4,
      "note": 66,
      "start": 82.8989,
      "duration": 0.0466,
      "velocity": 94,
      "chip": "ym2612"
    },
    {
      "channel": 5,
      "note": 48,
      "start": 82.9023,
      "duration": 0.0753,
      "velocity": 127,
      "chip": "ym2612"
    },
    {
      "channel": 2,
      "note": 71,
      "start": 82.9817,
      "duration": 0.0051,
      "velocity": 117,
      "chip": "ym2612"
    },
    {
      "channel": 3,
      "note": 67,
      "start": 82.9825,
      "duration": 0.0042,
      "velocity": 117,
      "chip": "ym2612"
    },
    {
      "channel": 4,
      "note": 52,
      "start": 82.9834,
      "duration": 0.0034,
      "velocity": 94,
      "chip": "ym2612"
    },
    {
      "channel": 5,
      "note": 56,
      "start": 82.9867,
      "duration": 0.0,
      "velocity": 117,
      "chip": "ym2612"
    }
  ]
}