{
  "track_name": "13 - Melting Ground",
  "duration_sec": 38.977,
  "sample_rate": 44100,
  "note_count": 513,
  "unique_pitches": 17,
  "pitch_range": 51,
  "avg_note_duration": 0.4254,
  "reconstruction_stats": {
    "notes_reconstructed": 513,
    "keyon_events": 513,
    "keyoff_events": 508,
    "orphan_keyons": 5,
    "unique_pitches": 17,
    "pitch_range": 51,
    "avg_duration_sec": 0.4254
  },
  "metadata": {
    "source": "S\\Sorcerer's Kingdom\\13 - Melting Ground.vgm"
  },
  "notes": [
    {
      "channel": 0,
      "note": 90,
      "start": 0.0066,
      "duration": 2.4031,
      "velocity": 97,
      "chip": "ym2612"
    },
    {
      "channel": 1,
      "note": 97,
      "start": 0.0067,
      "duration": 2.4031,
      "velocity": 97,
      "chip": "ym2612"
    },
    {
      "channel": 2,
      "note": 61,
      "start": 0.0068,
      "duration": 0.2964,
      "velocity": 117,
      "chip": "ym2612"
    },
    {
      "channel": 3,
      "note": 61,
      "start": 0.0068,
      "duration": 0.2964,
      "velocity": 92,
      "chip": "ym2612"
    },
    {
      "channel": 4,
      "note": 61,
      "start": 0.0069,
      "duration": 0.2964,
      "velocity": 117,
      "chip": "ym2612"
    },
    {
      "channel": 5,
      "note": 49,
      "start": 0.007,
      "duration": 0.361,
      "velocity": 101,
      "chip": "ym2612"
    },
    {
      "channel": 2,
      "note": 61,
      "start": 0.3032,
      "duration": 0.3035,
      "velocity": 117,
      "chip": "ym2612"
    },
    {
      "channel": 3,
      "note": 61,
      "start": 0.3033,
      "duration": 0.3036,
      "velocity": 92,
      "chip": "ym2612"
    },
    {
      "channel": 4,
      "note": 61,
      "start": 0.3034,
      "duration": 0.3036,
      "velocity": 117,
      "chip": "ym2612"
    },
    {
      "channel": 2,
      "note": 71,
      "start": 0.6068,
      "duration": 0.2964,
      "velocity": 117,
      "chip": "ym2612"
    },
    {
      "channel": 3,
      "note": 61,
      "start": 0.6069,
      "duration": 0.2963,
      "velocity": 92,
      "chip": "ym2612"
    },
    {
      "channel": 4,
      "note": 71,
      "start": 0.607,
      "duration": 0.2964,
      "velocity": 117,
      "chip": "ym2612"
    },
    {
      "channel": 5,
      "note": 49,
      "start": 0.607,
      "duration": 0.3609,
      "velocity": 101,
      "chip": "ym2612"
    },
    {
      "channel": 2,
      "note": 73,
      "start": 0.9032,
      "duration": 0.3036,
      "velocity": 117,
      "chip": "ym2612"
    },
    {
      "channel": 3,
      "note": 62,
      "start": 0.9033,
      "duration": 0.3036,
      "velocity": 92,
      "chip": "ym2612"
    },
    {
      "channel": 4,
      "note": 73,
      "start": 0.9034,
      "duration": 0.3036,
      "velocity": 117,
      "chip": "ym2612"
    },
    {
      "channel": 2,
      "note": 61,
      "start": 1.2068,
      "duration": 0.2964,
      "velocity": 117,
      "chip": "ym2612"
    },
    {
      "channel": 3,
      "note": 64,
      "start": 1.2069,
      "duration": 0.2964,
      "velocity": 92,
      "chip": "ym2612"
    },
    {
      "channel": 4,
      "note": 61,
      "start": 1.207,
      "duration": 0.2964,
      "velocity": 117,
      "chip": "ym2612"
    },
    {
      "channel": 5,
      "note": 49,
      "start": 1.207,
      "duration": 0.3609,
      "velocity": 101,
      "chip": "ym2612"
    },
    {
      "channel": 2,
      "note": 61,
      "start": 1.5032,
      "duration": 0.3035,
      "velocity": 117,
      "chip": "ym2612"
    },
    {
      "channel": 3,
      "note": 62,
      "start": 1.5033,
      "duration": 0.3036,
      "velocity": 92,
      "chip": "ym2612"
    },
    {
      "channel": 4,
      "note": 61,
      "start": 1.5034,
      "duration": 0.3036,
      "velocity": 117,
      "chip": "ym2612"
    },
    {
      "channel": 2,
      "note": 74,
      "start": 1.8068,
      "duration": 0.2964,
      "velocity": 117,
      "chip": "ym2612"
    },
    {
      "channel": 3,
      "note": 61,
      "start": 1.8069,
      "duration": 0.2963,
      "velocity": 92,
      "chip": "ym2612"
    },
    {
      "channel": 4,
      "note": 74,
      "start": 1.807,
      "duration": 0.2964,
      "velocity": 117,
      "chip": "ym2612"
    },
    {
      "channel": 5,
      "note": 49,
      "start": 1.807,
      "duration": 0.3609,
      "velocity": 101,
      "chip": "ym2612"
    },
    {
      "channel": 2,
      "note": 73,
      "start": 2.1032,
      "duration": 0.3068,
      "velocity": 117,
      "chip": "ym2612"
    },
    {
      "channel": 3,
      "note": 61,
      "start": 2.1033,
      "duration": 0.3068,
      "velocity": 92,
      "chip": "ym2612"
    },
    {
      "channel": 4,
      "note": 73,
      "start": 2.1034,
      "duration": 0.3068,
      "velocity": 117,
      "chip": "ym2612"
    },
    {
      "channel": 0,
      "note": 91,
      "start": 2.4098,
      "duration": 2.3999,
      "velocity": 97,
      "chip": "ym2612"
    },
    {
      "channel": 1,
      "note": 98,
      "start": 2.4099,
      "duration": 2.4,
      "velocity": 97,
      "chip": "ym2612"
    },
    {
      "channel": 2,
      "note": 61,
      "start": 2.41,
      "duration": 0.2931,
      "velocity": 117,
      "chip": "ym2612"
    },
    {
      "channel": 3,
      "note": 61,
      "start": 2.4101,
      "duration": 0.2932,
      "velocity": 92,
      "chip": "ym2612"
    },
    {
      "channel": 4,
      "note": 61,
      "start": 2.4102,
      "duration": 0.2931,
      "velocity": 117,
      "chip": "ym2612"
    },
    {
      "channel": 5,
      "note": 49,
      "start": 2.4103,
      "duration": 0.3576,
      "velocity": 101,
      "chip": "ym2612"
    },
    {
      "channel": 2,
      "note": 61,
      "start": 2.7032,
      "duration": 0.3036,
      "velocity": 117,
      "chip": "ym2612"
    },
    {
      "channel": 3,
      "note": 61,
      "start": 2.7033,
      "duration": 0.3036,
      "velocity": 92,
      "chip": "ym2612"
    },
    {
      "channel": 4,
      "note": 61,
      "start": 2.7034,
      "duration": 0.3036,
      "velocity": 117,
      "chip": "ym2612"
    },
    {
      "channel": 2,
      "note": 71,
      "start": 3.0068,
      "duration": 0.2963,
      "velocity": 117,
      "chip": "ym2612"
    },
    {
      "channel": 3,
      "note": 61,
      "start": 3.0069,
      "duration": 0.2963,
      "velocity": 92,
      "chip": "ym2612"
    },
    {
      "channel": 4,
      "note": 71,
      "start": 3.007,
      "duration": 0.2963,
      "velocity": 117,
      "chip": "ym2612"
    },
    {
      "channel": 5,
      "note": 49,
      "start": 3.0071,
      "duration": 0.3608,
      "velocity": 101,
      "chip": "ym2612"
    },
    {
      "channel": 2,
      "note": 73,
      "start": 3.3032,
      "duration": 0.3036,
      "velocity": 117,
      "chip": "ym2612"
    },
    {
      "channel": 3,
      "note": 62,
      "start": 3.3033,
      "duration": 0.3036,
      "velocity": 92,
      "chip": "ym2612"
    },
    {
      "channel": 4,
      "note": 73,
      "start": 3.3034,
      "duration": 0.3036,
      "velocity": 117,
      "chip": "ym2612"
    },
    {
      "channel": 2,
      "note": 61,
      "start": 3.6068,
      "duration": 0.2963,
      "velocity": 117,
      "chip": "ym2612"
    },
    {
      "channel": 3,
      "note": 64,
      "start": 3.6069,
      "duration": 0.2964,
      "velocity": 92,
      "chip": "ym2612"
    },
    {
      "channel": 4,
      "note": 61,
      "start": 3.607,
      "duration": 0.2963,
      "velocity": 117,
      "chip": "ym2612"
    },
    {
      "channel": 5,
      "note": 49,
      "start": 3.6071,
      "duration": 0.3608,
      "velocity": 101,
      "chip": "ym2612"
    },
    {
      "channel": 2,
      "note": 61,
      "start": 3.9032,
      "duration": 0.3036,
      "velocity": 117,
      "chip": "ym2612"
    },
    {
      "channel": 3,
      "note": 62,
      "start": 3.9033,
      "duration": 0.3036,
      "velocity": 92,
      "chip": "ym2612"
    },
    {
      "channel": 4,
      "note": 61,
      "start": 3.9034,
      "duration": 0.3036,
      "velocity": 117,
      "chip": "ym2612"
    },
    {
      "channel": 2,
      "note": 74,
      "start": 4.2068,
      "duration": 0.2963,
      "velocity": 117,
      "chip": "ym2612"
    },
    {
      "channel": 3,
      "note": 61,
      "start": 4.2069,
      "duration": 0.2963,
      "velocity": 92,
      "chip": "ym2612"
    },
    {
      "channel": 4,
      "note": 74,
      "start": 4.207,
      "duration": 0.2963,
      "velocity": 117,
      "chip": "ym2612"
    },
    {
      "channel": 5,
      "note": 49,
      "start": 4.2071,
      "duration": 0.3608,
      "velocity": 101,
      "chip": "ym2612"
    },
    {
      "channel": 2,
      "note": 73,
      "start": 4.5032,
      "duration": 0.3068,
      "velocity": 117,
      "chip": "ym2612"
    },
    {
      "channel": 3,
      "note": 61,
      "start": 4.5033,
      "duration": 0.3068,
      "velocity": 92,
      "chip": "ym2612"
    },
    {
      "channel": 4,
      "note": 73,
      "start": 4.5034,
      "duration": 0.3068,
      "velocity": 117,
      "chip": "ym2612"
    },
    {
      "channel": 0,
      "note": 93,
      "start": 4.8098,
      "duration": 2.3984,
      "velocity": 97,
      "chip": "ym2612"
    },
    {
      "channel": 1,
      "note": 100,
      "start": 4.8099,
      "duration": 2.3984,
      "velocity": 97,
      "chip": "ym2612"
    },
    {
      "channel": 2,
      "note": 61,
      "start": 4.81,
      "duration": 0.2931,
      "velocity": 117,
      "chip": "ym2612"
    },
    {
      "channel": 3,
      "note": 61,
      "start": 4.8101,
      "duration": 0.2932,
      "velocity": 92,
      "chip": "ym2612"
    },
    {
      "channel": 4,
      "note": 61,
      "start": 4.8102,
      "duration": 0.2931,
      "velocity": 117,
      "chip": "ym2612"
    },
    {
      "channel": 5,
      "note": 49,
      "start": 4.8103,
      "duration": 0.3576,
      "velocity": 101,
      "chip": "ym2612"
    },
    {
      "channel": 2,
      "note": 61,
      "start": 5.1032,
      "duration": 0.3036,
      "velocity": 117,
      "chip": "ym2612"
    },
    {
      "channel": 3,
      "note": 61,
      "start": 5.1033,
      "duration": 0.3036,
      "velocity": 92,
      "chip": "ym2612"
    },
    {
      "channel": 4,
      "note": 61,
      "start": 5.1034,
      "duration": 0.3036,
      "velocity": 117,
      "chip": "ym2612"
    },
    {
      "channel": 2,
      "note": 71,
      "start": 5.4068,
      "duration": 0.2963,
      "velocity": 117,
      "chip": "ym2612"
    },
    {
      "channel": 3,
      "note": 61,
      "start": 5.4069,
      "duration": 0.2964,
      "velocity": 92,
      "chip": "ym2612"
    },
    {
      "channel": 4,
      "note": 71,
      "start": 5.407,
      "duration": 0.2963,
      "velocity": 117,
      "chip": "ym2612"
    },
    {
      "channel": 5,
      "note": 49,
      "start": 5.4071,
      "duration": 0.3608,
      "velocity": 101,
      "chip": "ym2612"
    },
    {
      "channel": 2,
      "note": 73,
      "start": 5.7032,
      "duration": 0.3036,
      "velocity": 117,
      "chip": "ym2612"
    },
    {
      "channel": 3,
      "note": 62,
      "start": 5.7033,
      "duration": 0.3036,
      "velocity": 92,
      "chip": "ym2612"
    },
    {
      "channel": 4,
      "note": 73,
      "start": 5.7034,
      "duration": 0.3036,
      "velocity": 117,
      "chip": "ym2612"
    },
    {
      "channel": 2,
      "note": 61,
      "start": 6.0068,
      "duration": 0.2963,
      "velocity": 117,
      "chip": "ym2612"
    },
    {
      "channel": 3,
      "note": 64,
      "start": 6.0069,
      "duration": 0.2964,
      "velocity": 92,
      "chip": "ym2612"
    },
    {
      "channel": 4,
      "note": 61,
      "start": 6.007,
      "duration": 0.2963,
      "velocity": 117,
      "chip": "ym2612"
    },
    {
      "channel": 5,
      "note": 49,
      "start": 6.0071,
      "duration": 0.3608,
      "velocity": 101,
      "chip": "ym2612"
    },
    {
      "channel": 2,
      "note": 61,
      "start": 6.3032,
      "duration": 0.3036,
      "velocity": 117,
      "chip": "ym2612"
    },
    {
      "channel": 3,
      "note": 62,
      "start": 6.3033,
      "duration": 0.3036,
      "velocity": 92,
      "chip": "ym2612"
    },
    {
      "channel": 4,
      "note": 61,
      "start": 6.3034,
      "duration": 0.3036,
      "velocity": 117,
      "chip": "ym2612"
    },
    {
      "channel": 2,
      "note": 74,
      "start": 6.6068,
      "duration": 0.2963,
      "velocity": 117,
      "chip": "ym2612"
    },
    {
      "channel": 3,
      "note": 61,
      "start": 6.6069,
      "duration": 0.2964,
      "velocity": 92,
      "chip": "ym2612"
    },
    {
      "channel": 4,
      "note": 74,
      "start": 6.607,
      "duration": 0.2963,
      "velocity": 117,
      "chip": "ym2612"
    },
    {
      "channel": 5,
      "note": 49,
      "start": 6.6071,
      "duration": 0.3608,
      "velocity": 101,
      "chip": "ym2612"
    },
    {
      "channel": 2,
      "note": 73,
      "start": 6.9032,
      "duration": 0.3052,
      "velocity": 117,
      "chip": "ym2612"
    },
    {
      "channel": 3,
      "note": 61,
      "start": 6.9033,
      "duration": 0.3053,
      "velocity": 92,
      "chip": "ym2612"
    },
    {
      "channel": 4,
      "note": 73,
      "start": 6.9034,
      "duration": 0.3052,
      "velocity": 117,
      "chip": "ym2612"
    },
    {
      "channel": 0,
      "note": 95,
      "start": 7.2083,
      "duration": 2.402,
      "velocity": 97,
      "chip": "ym2612"
    },
    {
      "channel": 1,
      "note": 98,
      "start": 7.2084,
      "duration": 2.402,
      "velocity": 97,
      "chip": "ym2612"
    },
    {
      "channel": 2,
      "note": 61,
      "start": 7.2085,
      "duration": 0.2946,
      "velocity": 117,
      "chip": "ym2612"
    },
    {
      "channel": 3,
      "note": 61,
      "start": 7.2085,
      "duration": 0.2947,
      "velocity": 92,
      "chip": "ym2612"
    },
    {
      "channel": 4,
      "note": 61,
      "start": 7.2087,
      "duration": 0.2946,
      "velocity": 117,
      "chip": "ym2612"
    },
    {
      "channel": 5,
      "note": 49,
      "start": 7.2088,
      "duration": 0.3592,
      "velocity": 101,
      "chip": "ym2612"
    },
    {
      "channel": 2,
      "note": 61,
      "start": 7.5032,
      "duration": 0.3036,
      "velocity": 117,
      "chip": "ym2612"
    },
    {
      "channel": 3,
      "note": 61,
      "start": 7.5033,
      "duration": 0.3036,
      "velocity": 92,
      "chip": "ym2612"
    },
    {
      "channel": 4,
      "note": 61,
      "start": 7.5034,
      "duration": 0.3036,
      "velocity": 117,
      "chip": "ym2612"
    },
    {
      "channel": 2,
      "note": 71,
      "start": 7.8068,
      "duration": 0.2963,
      "velocity": 117,
      "chip": "ym2612"
    },
    {
      "channel": 3,
      "note": 61,
      "start": 7.8069,
      "duration": 0.2964,
      "velocity": 92,
      "chip": "ym2612"
    },
    {
      "channel": 4,
      "note": 71,
      "start": 7.807,
      "duration": 0.2963,
      "velocity": 117,
      "chip": "ym2612"
    },
    {
      "channel": 5,
      "note": 49,
      "start": 7.8071,
      "duration": 0.3608,
      "velocity": 101,
      "chip": "ym2612"
    },
    {
      "channel": 2,
      "note": 73,
      "start": 8.1032,
      "duration": 0.3036,
      "velocity": 117,
      "chip": "ym2612"
    },
    {
      "channel": 3,
      "note": 62,
      "start": 8.1033,
      "duration": 0.3036,
      "velocity": 92,
      "chip": "ym2612"
    },
    {
      "channel": 4,
      "note": 73,
      "start": 8.1034,
      "duration": 0.3036,
      "velocity": 117,
      "chip": "ym2612"
    },
    {
      "channel": 2,
      "note": 61,
      "start": 8.4068,
      "duration": 0.2963,
      "velocity": 117,
      "chip": "ym2612"
    },
    {
      "channel": 3,
      "note": 64,
      "start": 8.4069,
      "duration": 0.2964,
      "velocity": 92,
      "chip": "ym2612"
    },
    {
      "channel": 4,
      "note": 61,
      "start": 8.407,
      "duration": 0.2963,
      "velocity": 117,
      "chip": "ym2612"
    },
    {
      "channel": 5,
      "note": 49,
      "start": 8.4071,
      "duration": 0.3608,
      "velocity": 101,
      "chip": "ym2612"
    },
    {
      "channel": 2,
      "note": 61,
      "start": 8.7032,
      "duration": 0.3036,
      "velocity": 117,
      "chip": "ym2612"
    },
    {
      "channel": 3,
      "note": 62,
      "start": 8.7033,
      "duration": 0.3036,
      "velocity": 92,
      "chip": "ym2612"
    },
    {
      "channel": 4,
      "note": 61,
      "start": 8.7034,
      "duration": 0.3036,
      "velocity": 117,
      "chip": "ym2612"
    },
    {
      "channel": 2,
      "note": 74,
      "start": 9.0068,
      "duration": 0.2963,
      "velocity": 117,
      "chip": "ym2612"
    },
    {
      "channel": 3,
      "note": 61,
      "start": 9.0069,
      "duration": 0.2964,
      "velocity": 92,
      "chip": "ym2612"
    },
    {
      "channel": 4,
      "note": 74,
      "start": 9.007,
      "duration": 0.2963,
      "velocity": 117,
      "chip": "ym2612"
    },
    {
      "channel": 5,
      "note": 49,
      "start": 9.0071,
      "duration": 0.3608,
      "velocity": 101,
      "chip": "ym2612"
    },
    {
      "channel": 2,
      "note": 73,
      "start": 9.3032,
      "duration": 0.3073,
      "velocity": 117,
      "chip": "ym2612"
    },
    {
      "channel": 3,
      "note": 61,
      "start": 9.3033,
      "duration": 0.3073,
      "velocity": 92,
      "chip": "ym2612"
    },
    {
      "channel": 4,
      "note": 73,
      "start": 9.3034,
      "duration": 0.3073,
      "velocity": 117,
      "chip": "ym2612"
    },
    {
      "channel": 0,
      "note": 90,
      "start": 9.6103,
      "duration": 2.3994,
      "velocity": 97,
      "chip": "ym2612"
    },
    {
      "channel": 1,
      "note": 97,
      "start": 9.6104,
      "duration": 2.3994,
      "velocity": 97,
      "chip": "ym2612"
    },
    {
      "channel": 2,
      "note": 61,
      "start": 9.6105,
      "duration": 0.2926,
      "velocity": 117,
      "chip": "ym2612"
    },
    {
      "channel": 3,
      "note": 61,
      "start": 9.6106,
      "duration": 0.2927,
      "velocity": 92,
      "chip": "ym2612"
    },
    {
      "channel": 4,
      "note": 61,
      "start": 9.6107,
      "duration": 0.2926,
      "velocity": 117,
      "chip": "ym2612"
    },
    {
      "channel": 5,
      "note": 49,
      "start": 9.6108,
      "duration": 0.3571,
      "velocity": 101,
      "chip": "ym2612"
    },
    {
      "channel": 2,
      "note": 61,
      "start": 9.9032,
      "duration": 0.3035,
      "velocity": 117,
      "chip": "ym2612"
    },
    {
      "channel": 3,
      "note": 61,
      "start": 9.9033,
      "duration": 0.3036,
      "velocity": 92,
      "chip": "ym2612"
    },
    {
      "channel": 4,
      "note": 61,
      "start": 9.9034,
      "duration": 0.3036,
      "velocity": 117,
      "chip": "ym2612"
    },
    {
      "channel": 2,
      "note": 71,
      "start": 10.2068,
      "duration": 0.2964,
      "velocity": 117,
      "chip": "ym2612"
    },
    {
      "channel": 3,
      "note": 61,
      "start": 10.2069,
      "duration": 0.2963,
      "velocity": 92,
      "chip": "ym2612"
    },
    {
      "channel": 4,
      "note": 71,
      "start": 10.207,
      "duration": 0.2964,
      "velocity": 117,
      "chip": "ym2612"
    },
    {
      "channel": 5,
      "note": 49,
      "start": 10.207,
      "duration": 0.3609,
      "velocity": 101,
      "chip": "ym2612"
    },
    {
      "channel": 2,
      "note": 73,
      "start": 10.5032,
      "duration": 0.3036,
      "velocity": 117,
      "chip": "ym2612"
    },
    {
      "channel": 3,
      "note": 62,
      "start": 10.5033,
      "duration": 0.3036,
      "velocity": 92,
      "chip": "ym2612"
    },
    {
      "channel": 4,
      "note": 73,
      "start": 10.5034,
      "duration": 0.3036,
      "velocity": 117,
      "chip": "ym2612"
    },
    {
      "channel": 2,
      "note": 61,
      "start": 10.8068,
      "duration": 0.2964,
      "velocity": 117,
      "chip": "ym2612"
    },
    {
      "channel": 3,
      "note": 64,
      "start": 10.8069,
      "duration": 0.2964,
      "velocity": 92,
      "chip": "ym2612"
    },
    {
      "channel": 4,
      "note": 61,
      "start": 10.807,
      "duration": 0.2964,
      "velocity": 117,
      "chip": "ym2612"
    },
    {
      "channel": 5,
      "note": 49,
      "start": 10.807,
      "duration": 0.3609,
      "velocity": 101,
      "chip": "ym2612"
    },
    {
      "channel": 2,
      "note": 61,
      "start": 11.1032,
      "duration": 0.3035,
      "velocity": 117,
      "chip": "ym2612"
    },
    {
      "channel": 3,
      "note": 62,
      "start": 11.1033,
      "duration": 0.3036,
      "velocity": 92,
      "chip": "ym2612"
    },
    {
      "channel": 4,
      "note": 61,
      "start": 11.1034,
      "duration": 0.3036,
      "velocity": 117,
      "chip": "ym2612"
    },
    {
      "channel": 2,
      "note": 74,
      "start": 11.4068,
      "duration": 0.2964,
      "velocity": 117,
      "chip": "ym2612"
    },
    {
      "channel": 3,
      "note": 61,
      "start": 11.4069,
      "duration": 0.2963,
      "velocity": 92,
      "chip": "ym2612"
    },
    {
      "channel": 4,
      "note": 74,
      "start": 11.407,
      "duration": 0.2964,
      "velocity": 117,
      "chip": "ym2612"
    },
    {
      "channel": 5,
      "note": 49,
      "start": 11.407,
      "duration": 0.3609,
      "velocity": 101,
      "chip": "ym2612"
    },
    {
      "channel": 2,
      "note": 73,
      "start": 11.7032,
      "duration": 0.3068,
      "velocity": 117,
      "chip": "ym2612"
    },
    {
      "channel": 3,
      "note": 61,
      "start": 11.7033,
      "duration": 0.3068,
      "velocity": 92,
      "chip": "ym2612"
    },
    {
      "channel": 4,
      "note": 73,
      "start": 11.7034,
      "duration": 0.3068,
      "velocity": 117,
      "chip": "ym2612"
    },
    {
      "channel": 0,
      "note": 91,
      "start": 12.0098,
      "duration": 2.3999,
      "velocity": 97,
      "chip": "ym2612"
    },
    {
      "channel": 1,
      "note": 98,
      "start": 12.0099,
      "duration": 2.4,
      "velocity": 97,
      "chip": "ym2612"
    },
    {
      "channel": 2,
      "note": 61,
      "start": 12.01,
      "duration": 0.2931,
      "velocity": 117,
      "chip": "ym2612"
    },
    {
      "channel": 3,
      "note": 61,
      "start": 12.0101,
      "duration": 0.2932,
      "velocity": 92,
      "chip": "ym2612"
    },
    {
      "channel": 4,
      "note": 61,
      "start": 12.0102,
      "duration": 0.2931,
      "velocity": 117,
      "chip": "ym2612"
    },
    {
      "channel": 5,
      "note": 49,
      "start": 12.0103,
      "duration": 0.3576,
      "velocity": 101,
      "chip": "ym2612"
    },
    {
      "channel": 2,
      "note": 61,
      "start": 12.3032,
      "duration": 0.3036,
      "velocity": 117,
      "chip": "ym2612"
    },
    {
      "channel": 3,
      "note": 61,
      "start": 12.3033,
      "duration": 0.3036,
      "velocity": 92,
      "chip": "ym2612"
    },
    {
      "channel": 4,
      "note": 61,
      "start": 12.3034,
      "duration": 0.3036,
      "velocity": 117,
      "chip": "ym2612"
    },
    {
      "channel": 2,
      "note": 71,
      "start": 12.6068,
      "duration": 0.2963,
      "velocity": 117,
      "chip": "ym2612"
    },
    {
      "channel": 3,
      "note": 61,
      "start": 12.6069,
      "duration": 0.2963,
      "velocity": 92,
      "chip": "ym2612"
    },
    {
      "channel": 4,
      "note": 71,
      "start": 12.607,
      "duration": 0.2963,
      "velocity": 117,
      "chip": "ym2612"
    },
    {
      "channel": 5,
      "note": 49,
      "start": 12.6071,
      "duration": 0.3608,
      "velocity": 101,
      "chip": "ym2612"
    },
    {
      "channel": 2,
      "note": 73,
      "start": 12.9032,
      "duration": 0.3036,
      "velocity": 117,
      "chip": "ym2612"
    },
    {
      "channel": 3,
      "note": 62,
      "start": 12.9033,
      "duration": 0.3036,
      "velocity": 92,
      "chip": "ym2612"
    },
    {
      "channel": 4,
      "note": 73,
      "start": 12.9034,
      "duration": 0.3036,
      "velocity": 117,
      "chip": "ym2612"
    },
    {
      "channel": 2,
      "note": 61,
      "start": 13.2068,
      "duration": 0.2963,
      "velocity": 117,
      "chip": "ym2612"
    },
    {
      "channel": 3,
      "note": 64,
      "start": 13.2069,
      "duration": 0.2964,
      "velocity": 92,
      "chip": "ym2612"
    },
    {
      "channel": 4,
      "note": 61,
      "start": 13.207,
      "duration": 0.2963,
      "velocity": 117,
      "chip": "ym2612"
    },
    {
      "channel": 5,
      "note": 49,
      "start": 13.2071,
      "duration": 0.3608,
      "velocity": 101,
      "chip": "ym2612"
    },
    {
      "channel": 2,
      "note": 61,
      "start": 13.5032,
      "duration": 0.3036,
      "velocity": 117,
      "chip": "ym2612"
    },
    {
      "channel": 3,
      "note": 62,
      "start": 13.5033,
      "duration": 0.3036,
      "velocity": 92,
      "chip": "ym2612"
    },
    {
      "channel": 4,
      "note": 61,
      "start": 13.5034,
      "duration": 0.3036,
      "velocity": 117,
      "chip": "ym2612"
    },
    {
      "channel": 2,
      "note": 74,
      "start": 13.8068,
      "duration": 0.2963,
      "velocity": 117,
      "chip": "ym2612"
    },
    {
      "channel": 3,
      "note": 61,
      "start": 13.8069,
      "duration": 0.2963,
      "velocity": 92,
      "chip": "ym2612"
    },
    {
      "channel": 4,
      "note": 74,
      "start": 13.807,
      "duration": 0.2963,
      "velocity": 117,
      "chip": "ym2612"
    },
    {
      "channel": 5,
      "note": 49,
      "start": 13.8071,
      "duration": 0.3608,
      "velocity": 101,
      "chip": "ym2612"
    },
    {
      "channel": 2,
      "note": 73,
      "start": 14.1032,
      "duration": 0.3068,
      "velocity": 117,
      "chip": "ym2612"
    },
    {
      "channel": 3,
      "note": 61,
      "start": 14.1033,
      "duration": 0.3068,
      "velocity": 92,
      "chip": "ym2612"
    },
    {
      "channel": 4,
      "note": 73,
      "start": 14.1034,
      "duration": 0.3068,
      "velocity": 117,
      "chip": "ym2612"
    },
    {
      "channel": 0,
      "note": 93,
      "start": 14.4098,
      "duration": 2.3984,
      "velocity": 97,
      "chip": "ym2612"
    },
    {
      "channel": 1,
      "note": 100,
      "start": 14.4099,
      "duration": 2.3984,
      "velocity": 97,
      "chip": "ym2612"
    },
    {
      "channel": 2,
      "note": 61,
      "start": 14.41,
      "duration": 0.2931,
      "velocity": 117,
      "chip": "ym2612"
    },
    {
      "channel": 3,
      "note": 61,
      "start": 14.4101,
      "duration": 0.2932,
      "velocity": 92,
      "chip": "ym2612"
    },
    {
      "channel": 4,
      "note": 61,
      "start": 14.4102,
      "duration": 0.2931,
      "velocity": 117,
      "chip": "ym2612"
    },
    {
      "channel": 5,
      "note": 49,
      "start": 14.4103,
      "duration": 0.3576,
      "velocity": 101,
      "chip": "ym2612"
    },
    {
      "channel": 2,
      "note": 61,
      "start": 14.7032,
      "duration": 0.3036,
      "velocity": 117,
      "chip": "ym2612"
    },
    {
      "channel": 3,
      "note": 61,
      "start": 14.7033,
      "duration": 0.3036,
      "velocity": 92,
      "chip": "ym2612"
    },
    {
      "channel": 4,
      "note": 61,
      "start": 14.7034,
      "duration": 0.3036,
      "velocity": 117,
      "chip": "ym2612"
    },
    {
      "channel": 2,
      "note": 71,
      "start": 15.0068,
      "duration": 0.2963,
      "velocity": 117,
      "chip": "ym2612"
    },
    {
      "channel": 3,
      "note": 61,
      "start": 15.0069,
      "duration": 0.2964,
      "velocity": 92,
      "chip": "ym2612"
    },
    {
      "channel": 4,
      "note": 71,
      "start": 15.007,
      "duration": 0.2963,
      "velocity": 117,
      "chip": "ym2612"
    },
    {
      "channel": 5,
      "note": 49,
      "start": 15.0071,
      "duration": 0.3608,
      "velocity": 101,
      "chip": "ym2612"
    },
    {
      "channel": 2,
      "note": 73,
      "start": 15.3032,
      "duration": 0.3036,
      "velocity": 117,
      "chip": "ym2612"
    },
    {
      "channel": 3,
      "note": 62,
      "start": 15.3033,
      "duration": 0.3036,
      "velocity": 92,
      "chip": "ym2612"
    },
    {
      "channel": 4,
      "note": 73,
      "start": 15.3034,
      "duration": 0.3036,
      "velocity": 117,
      "chip": "ym2612"
    },
    {
      "channel": 2,
      "note": 61,
      "start": 15.6068,
      "duration": 0.2963,
      "velocity": 117,
      "chip": "ym2612"
    },
    {
      "channel": 3,
      "note": 64,
      "start": 15.6069,
      "duration": 0.2964,
      "velocity": 92,
      "chip": "ym2612"
    },
    {
      "channel": 4,
      "note": 61,
      "start": 15.607,
      "duration": 0.2963,
      "velocity": 117,
      "chip": "ym2612"
    },
    {
      "channel": 5,
      "note": 49,
      "start": 15.6071,
      "duration": 0.3608,
      "velocity": 101,
      "chip": "ym2612"
    },
    {
      "channel": 2,
      "note": 61,
      "start": 15.9032,
      "duration": 0.3036,
      "velocity": 117,
      "chip": "ym2612"
    },
    {
      "channel": 3,
      "note": 62,
      "start": 15.9033,
      "duration": 0.3036,
      "velocity": 92,
      "chip": "ym2612"
    },
    {
      "channel": 4,
      "note": 61,
      "start": 15.9034,
      "duration": 0.3036,
      "velocity": 117,
      "chip": "ym2612"
    },
    {
      "channel": 2,
      "note": 74,
      "start": 16.2068,
      "duration": 0.2963,
      "velocity": 117,
      "chip": "ym2612"
    },
    {
      "channel": 3,
      "note": 61,
      "start": 16.2069,
      "duration": 0.2964,
      "velocity": 92,
      "chip": "ym2612"
    },
    {
      "channel": 4,
      "note": 74,
      "start": 16.207,
      "duration": 0.2963,
      "velocity": 117,
      "chip": "ym2612"
    },
    {
      "channel": 5,
      "note": 49,
      "start": 16.2071,
      "duration": 0.3608,
      "velocity": 101,
      "chip": "ym2612"
    },
    {
      "channel": 2,
      "note": 73,
      "start": 16.5032,
      "duration": 0.3052,
      "velocity": 117,
      "chip": "ym2612"
    },
    {
      "channel": 3,
      "note": 61,
      "start": 16.5033,
      "duration": 0.3053,
      "velocity": 92,
      "chip": "ym2612"
    },
    {
      "channel": 4,
      "note": 73,
      "start": 16.5034,
      "duration": 0.3052,
      "velocity": 117,
      "chip": "ym2612"
    },
    {
      "channel": 0,
      "note": 95,
      "start": 16.8083,
      "duration": 2.4013,
      "velocity": 97,
      "chip": "ym2612"
    },
    {
      "channel": 1,
      "note": 98,
      "start": 16.8084,
      "duration": 2.4013,
      "velocity": 97,
      "chip": "ym2612"
    },
    {
      "channel": 2,
      "note": 61,
      "start": 16.8085,
      "duration": 0.2946,
      "velocity": 117,
      "chip": "ym2612"
    },
    {
      "channel": 3,
      "note": 61,
      "start": 16.8085,
      "duration": 0.2947,
      "velocity": 92,
      "chip": "ym2612"
    },
    {
      "channel": 4,
      "note": 61,
      "start": 16.8087,
      "duration": 0.2946,
      "velocity": 117,
      "chip": "ym2612"
    },
    {
      "channel": 5,
      "note": 49,
      "start": 16.8088,
      "duration": 0.3592,
      "velocity": 101,
      "chip": "ym2612"
    },
    {
      "channel": 2,
      "note": 61,
      "start": 17.1032,
      "duration": 0.3036,
      "velocity": 117,
      "chip": "ym2612"
    },
    {
      "channel": 3,
      "note": 61,
      "start": 17.1033,
      "duration": 0.3036,
      "velocity": 92,
      "chip": "ym2612"
    },
    {
      "channel": 4,
      "note": 61,
      "start": 17.1034,
      "duration": 0.3036,
      "velocity": 117,
      "chip": "ym2612"
    },
    {
      "channel": 2,
      "note": 71,
      "start": 17.4068,
      "duration": 0.2963,
      "velocity": 117,
      "chip": "ym2612"
    },
    {
      "channel": 3,
      "note": 61,
      "start": 17.4069,
      "duration": 0.2964,
      "velocity": 92,
      "chip": "ym2612"
    },
    {
      "channel": 4,
      "note": 71,
      "start": 17.407,
      "duration": 0.2963,
      "velocity": 117,
      "chip": "ym2612"
    },
    {
      "channel": 5,
      "note": 49,
      "start": 17.4071,
      "duration": 0.3608,
      "velocity": 101,
      "chip": "ym2612"
    },
    {
      "channel": 2,
      "note": 73,
      "start": 17.7032,
      "duration": 0.3036,
      "velocity": 117,
      "chip": "ym2612"
    },
    {
      "channel": 3,
      "note": 62,
      "start": 17.7033,
      "duration": 0.3036,
      "velocity": 92,
      "chip": "ym2612"
    },
    {
      "channel": 4,
      "note": 73,
      "start": 17.7034,
      "duration": 0.3036,
      "velocity": 117,
      "chip": "ym2612"
    },
    {
      "channel": 2,
      "note": 61,
      "start": 18.0068,
      "duration": 0.2963,
      "velocity": 117,
      "chip": "ym2612"
    },
    {
      "channel": 3,
      "note": 64,
      "start": 18.0069,
      "duration": 0.2964,
      "velocity": 92,
      "chip": "ym2612"
    },
    {
      "channel": 4,
      "note": 61,
      "start": 18.007,
      "duration": 0.2963,
      "velocity": 117,
      "chip": "ym2612"
    },
    {
      "channel": 5,
      "note": 49,
      "start": 18.0071,
      "duration": 0.3608,
      "velocity": 101,
      "chip": "ym2612"
    },
    {
      "channel": 2,
      "note": 61,
      "start": 18.3032,
      "duration": 0.3036,
      "velocity": 117,
      "chip": "ym2612"
    },
    {
      "channel": 3,
      "note": 62,
      "start": 18.3033,
      "duration": 0.3036,
      "velocity": 92,
      "chip": "ym2612"
    },
    {
      "channel": 4,
      "note": 61,
      "start": 18.3034,
      "duration": 0.3036,
      "velocity": 117,
      "chip": "ym2612"
    },
    {
      "channel": 2,
      "note": 74,
      "start": 18.6068,
      "duration": 0.2963,
      "velocity": 117,
      "chip": "ym2612"
    },
    {
      "channel": 3,
      "note": 61,
      "start": 18.6069,
      "duration": 0.2964,
      "velocity": 92,
      "chip": "ym2612"
    },
    {
      "channel": 4,
      "note": 74,
      "start": 18.607,
      "duration": 0.2963,
      "velocity": 117,
      "chip": "ym2612"
    },
    {
      "channel": 5,
      "note": 49,
      "start": 18.6071,
      "duration": 0.3608,
      "velocity": 101,
      "chip": "ym2612"
    },
    {
      "channel": 2,
      "note": 73,
      "start": 18.9032,
      "duration": 0.3066,
      "velocity": 117,
      "chip": "ym2612"
    },
    {
      "channel": 3,
      "note": 61,
      "start": 18.9033,
      "duration": 0.3066,
      "velocity": 92,
      "chip": "ym2612"
    },
    {
      "channel": 4,
      "note": 73,
      "start": 18.9034,
      "duration": 0.3066,
      "velocity": 117,
      "chip": "ym2612"
    },
    {
      "channel": 0,
      "note": 90,
      "start": 19.2096,
      "duration": 0.5977,
      "velocity": 97,
      "chip": "ym2612"
    },
    {
      "channel": 1,
      "note": 97,
      "start": 19.2097,
      "duration": 2.3994,
      "velocity": 97,
      "chip": "ym2612"
    },
    {
      "channel": 2,
      "note": 61,
      "start": 19.2098,
      "duration": 0.2933,
      "velocity": 117,
      "chip": "ym2612"
    },
    {
      "channel": 3,
      "note": 61,
      "start": 19.2099,
      "duration": 0.2934,
      "velocity": 92,
      "chip": "ym2612"
    },
    {
      "channel": 4,
      "note": 61,
      "start": 19.21,
      "duration": 0.2933,
      "velocity": 117,
      "chip": "ym2612"
    },
    {
      "channel": 5,
      "note": 49,
      "start": 19.2101,
      "duration": 0.3578,
      "velocity": 101,
      "chip": "ym2612"
    },
    {
      "channel": 2,
      "note": 61,
      "start": 19.5032,
      "duration": 0.3043,
      "velocity": 117,
      "chip": "ym2612"
    },
    {
      "channel": 3,
      "note": 61,
      "start": 19.5033,
      "duration": 0.3043,
      "velocity": 92,
      "chip": "ym2612"
    },
    {
      "channel": 4,
      "note": 61,
      "start": 19.5034,
      "duration": 0.3043,
      "velocity": 117,
      "chip": "ym2612"
    },
    {
      "channel": 0,
      "note": 91,
      "start": 19.8074,
      "duration": 0.5999,
      "velocity": 97,
      "chip": "ym2612"
    },
    {
      "channel": 2,
      "note": 71,
      "start": 19.8076,
      "duration": 0.2956,
      "velocity": 117,
      "chip": "ym2612"
    },
    {
      "channel": 3,
      "note": 61,
      "start": 19.8077,
      "duration": 0.2956,
      "velocity": 92,
      "chip": "ym2612"
    },
    {
      "channel": 4,
      "note": 71,
      "start": 19.8077,
      "duration": 0.2956,
      "velocity": 117,
      "chip": "ym2612"
    },
    {
      "channel": 5,
      "note": 49,
      "start": 19.8078,
      "duration": 0.3601,
      "velocity": 101,
      "chip": "ym2612"
    },
    {
      "channel": 2,
      "note": 73,
      "start": 20.1032,
      "duration": 0.3043,
      "velocity": 117,
      "chip": "ym2612"
    },
    {
      "channel": 3,
      "note": 62,
      "start": 20.1033,
      "duration": 0.3043,
      "velocity": 92,
      "chip": "ym2612"
    },
    {
      "channel": 4,
      "note": 73,
      "start": 20.1034,
      "duration": 0.3043,
      "velocity": 117,
      "chip": "ym2612"
    },
    {
      "channel": 0,
      "note": 92,
      "start": 20.4074,
      "duration": 0.6,
      "velocity": 97,
      "chip": "ym2612"
    },
    {
      "channel": 2,
      "note": 61,
      "start": 20.4076,
      "duration": 0.2956,
      "velocity": 117,
      "chip": "ym2612"
    },
    {
      "channel": 3,
      "note": 64,
      "start": 20.4077,
      "duration": 0.2956,
      "velocity": 92,
      "chip": "ym2612"
    },
    {
      "channel": 4,
      "note": 61,
      "start": 20.4077,
      "duration": 0.2956,
      "velocity": 117,
      "chip": "ym2612"
    },
    {
      "channel": 5,
      "note": 49,
      "start": 20.4078,
      "duration": 0.3601,
      "velocity": 101,
      "chip": "ym2612"
    },
    {
      "channel": 2,
      "note": 61,
      "start": 20.7032,
      "duration": 0.3043,
      "velocity": 117,
      "chip": "ym2612"
    },
    {
      "channel": 3,
      "note": 62,
      "start": 20.7033,
      "duration": 0.3043,
      "velocity": 92,
      "chip": "ym2612"
    },
    {
      "channel": 4,
      "note": 61,
      "start": 20.7034,
      "duration": 0.3043,
      "velocity": 117,
      "chip": "ym2612"
    },
    {
      "channel": 0,
      "note": 93,
      "start": 21.0075,
      "duration": 0.6016,
      "velocity": 97,
      "chip": "ym2612"
    },
    {
      "channel": 2,
      "note": 74,
      "start": 21.0076,
      "duration": 0.2956,
      "velocity": 117,
      "chip": "ym2612"
    },
    {
      "channel": 3,
      "note": 61,
      "start": 21.0077,
      "duration": 0.2956,
      "velocity": 92,
      "chip": "ym2612"
    },
    {
      "channel": 4,
      "note": 74,
      "start": 21.0078,
      "duration": 0.2955,
      "velocity": 117,
      "chip": "ym2612"
    },
    {
      "channel": 5,
      "note": 49,
      "start": 21.0079,
      "duration": 0.36,
      "velocity": 101,
      "chip": "ym2612"
    },
    {
      "channel": 2,
      "note": 73,
      "start": 21.3032,
      "duration": 0.306,
      "velocity": 117,
      "chip": "ym2612"
    },
    {
      "channel": 3,
      "note": 61,
      "start": 21.3033,
      "duration": 0.3061,
      "velocity": 92,
      "chip": "ym2612"
    },
    {
      "channel": 4,
      "note": 73,
      "start": 21.3034,
      "duration": 0.3061,
      "velocity": 117,
      "chip": "ym2612"
    },
    {
      "channel": 0,
      "note": 91,
      "start": 21.6091,
      "duration": 0.5982,
      "velocity": 97,
      "chip": "ym2612"
    },
    {
      "channel": 1,
      "note": 98,
      "start": 21.6092,
      "duration": 2.3999,
      "velocity": 97,
      "chip": "ym2612"
    },
    {
      "channel": 2,
      "note": 61,
      "start": 21.6093,
      "duration": 0.2938,
      "velocity": 117,
      "chip": "ym2612"
    },
    {
      "channel": 3,
      "note": 61,
      "start": 21.6094,
      "duration": 0.2939,
      "velocity": 92,
      "chip": "ym2612"
    },
    {
      "channel": 4,
      "note": 61,
      "start": 21.6095,
      "duration": 0.2938,
      "velocity": 117,
      "chip": "ym2612"
    },
    {
      "channel": 5,
      "note": 49,
      "start": 21.6096,
      "duration": 0.3583,
      "velocity": 101,
      "chip": "ym2612"
    },
    {
      "channel": 2,
      "note": 61,
      "start": 21.9032,
      "duration": 0.3043,
      "velocity": 117,
      "chip": "ym2612"
    },
    {
      "channel": 3,
      "note": 61,
      "start": 21.9033,
      "duration": 0.3043,
      "velocity": 92,
      "chip": "ym2612"
    },
    {
      "channel": 4,
      "note": 61,
      "start": 21.9034,
      "duration": 0.3043,
      "velocity": 117,
      "chip": "ym2612"
    },
    {
      "channel": 0,
      "note": 92,
      "start": 22.2074,
      "duration": 0.6,
      "velocity": 97,
      "chip": "ym2612"
    },
    {
      "channel": 2,
      "note": 71,
      "start": 22.2076,
      "duration": 0.2956,
      "velocity": 117,
      "chip": "ym2612"
    },
    {
      "channel": 3,
      "note": 61,
      "start": 22.2077,
      "duration": 0.2956,
      "velocity": 92,
      "chip": "ym2612"
    },
    {
      "channel": 4,
      "note": 71,
      "start": 22.2077,
      "duration": 0.2956,
      "velocity": 117,
      "chip": "ym2612"
    },
    {
      "channel": 5,
      "note": 49,
      "start": 22.2078,
      "duration": 0.3601,
      "velocity": 101,
      "chip": "ym2612"
    },
    {
      "channel": 2,
      "note": 73,
      "start": 22.5032,
      "duration": 0.3043,
      "velocity": 117,
      "chip": "ym2612"
    },
    {
      "channel": 3,
      "note": 62,
      "start": 22.5033,
      "duration": 0.3043,
      "velocity": 92,
      "chip": "ym2612"
    },
    {
      "channel": 4,
      "note": 73,
      "start": 22.5034,
      "duration": 0.3043,
      "velocity": 117,
      "chip": "ym2612"
    },
    {
      "channel": 0,
      "note": 93,
      "start": 22.8075,
      "duration": 0.5999,
      "velocity": 97,
      "chip": "ym2612"
    },
    {
      "channel": 2,
      "note": 61,
      "start": 22.8076,
      "duration": 0.2956,
      "velocity": 117,
      "chip": "ym2612"
    },
    {
      "channel": 3,
      "note": 64,
      "start": 22.8077,
      "duration": 0.2956,
      "velocity": 92,
      "chip": "ym2612"
    },
    {
      "channel": 4,
      "note": 61,
      "start": 22.8078,
      "duration": 0.2955,
      "velocity": 117,
      "chip": "ym2612"
    },
    {
      "channel": 5,
      "note": 49,
      "start": 22.8079,
      "duration": 0.36,
      "velocity": 101,
      "chip": "ym2612"
    },
    {
      "channel": 2,
      "note": 61,
      "start": 23.1032,
      "duration": 0.3043,
      "velocity": 117,
      "chip": "ym2612"
    },
    {
      "channel": 3,
      "note": 62,
      "start": 23.1033,
      "duration": 0.3043,
      "velocity": 92,
      "chip": "ym2612"
    },
    {
      "channel": 4,
      "note": 61,
      "start": 23.1034,
      "duration": 0.3043,
      "velocity": 117,
      "chip": "ym2612"
    },
    {
      "channel": 0,
      "note": 94,
      "start": 23.4074,
      "duration": 0.6016,
      "velocity": 97,
      "chip": "ym2612"
    },
    {
      "channel": 2,
      "note": 74,
      "start": 23.4076,
      "duration": 0.2956,
      "velocity": 117,
      "chip": "ym2612"
    },
    {
      "channel": 3,
      "note": 61,
      "start": 23.4077,
      "duration": 0.2956,
      "velocity": 92,
      "chip": "ym2612"
    },
    {
      "channel": 4,
      "note": 74,
      "start": 23.4077,
      "duration": 0.2956,
      "velocity": 117,
      "chip": "ym2612"
    },
    {
      "channel": 5,
      "note": 49,
      "start": 23.4078,
      "duration": 0.3601,
      "velocity": 101,
      "chip": "ym2612"
    },
    {
      "channel": 2,
      "note": 73,
      "start": 23.7032,
      "duration": 0.306,
      "velocity": 117,
      "chip": "ym2612"
    },
    {
      "channel": 3,
      "note": 61,
      "start": 23.7033,
      "duration": 0.306,
      "velocity": 92,
      "chip": "ym2612"
    },
    {
      "channel": 4,
      "note": 73,
      "start": 23.7034,
      "duration": 0.306,
      "velocity": 117,
      "chip": "ym2612"
    },
    {
      "channel": 0,
      "note": 93,
      "start": 24.0091,
      "duration": 0.5983,
      "velocity": 97,
      "chip": "ym2612"
    },
    {
      "channel": 1,
      "note": 100,
      "start": 24.0091,
      "duration": 2.3999,
      "velocity": 97,
      "chip": "ym2612"
    },
    {
      "channel": 2,
      "note": 61,
      "start": 24.0093,
      "duration": 0.2939,
      "velocity": 117,
      "chip": "ym2612"
    },
    {
      "channel": 3,
      "note": 61,
      "start": 24.0093,
      "duration": 0.294,
      "velocity": 92,
      "chip": "ym2612"
    },
    {
      "channel": 4,
      "note": 61,
      "start": 24.0095,
      "duration": 0.2939,
      "velocity": 117,
      "chip": "ym2612"
    },
    {
      "channel": 5,
      "note": 49,
      "start": 24.0095,
      "duration": 0.3584,
      "velocity": 101,
      "chip": "ym2612"
    },
    {
      "channel": 2,
      "note": 61,
      "start": 24.3032,
      "duration": 0.3043,
      "velocity": 117,
      "chip": "ym2612"
    },
    {
      "channel": 3,
      "note": 61,
      "start": 24.3033,
      "duration": 0.3043,
      "velocity": 92,
      "chip": "ym2612"
    },
    {
      "channel": 4,
      "note": 61,
      "start": 24.3034,
      "duration": 0.3043,
      "velocity": 117,
      "chip": "ym2612"
    },
    {
      "channel": 0,
      "note": 94,
      "start": 24.6074,
      "duration": 0.5999,
      "velocity": 97,
      "chip": "ym2612"
    },
    {
      "channel": 2,
      "note": 71,
      "start": 24.6076,
      "duration": 0.2956,
      "velocity": 117,
      "chip": "ym2612"
    },
    {
      "channel": 3,
      "note": 61,
      "start": 24.6077,
      "duration": 0.2956,
      "velocity": 92,
      "chip": "ym2612"
    },
    {
      "channel": 4,
      "note": 71,
      "start": 24.6077,
      "duration": 0.2956,
      "velocity": 117,
      "chip": "ym2612"
    },
    {
      "channel": 5,
      "note": 49,
      "start": 24.6078,
      "duration": 0.3601,
      "velocity": 101,
      "chip": "ym2612"
    },
    {
      "channel": 2,
      "note": 73,
      "start": 24.9032,
      "duration": 0.3043,
      "velocity": 117,
      "chip": "ym2612"
    },
    {
      "channel": 3,
      "note": 62,
      "start": 24.9033,
      "duration": 0.3043,
      "velocity": 92,
      "chip": "ym2612"
    },
    {
      "channel": 4,
      "note": 73,
      "start": 24.9034,
      "duration": 0.3043,
      "velocity": 117,
      "chip": "ym2612"
    },
    {
      "channel": 0,
      "note": 95,
      "start": 25.2074,
      "duration": 0.5999,
      "velocity": 97,
      "chip": "ym2612"
    },
    {
      "channel": 2,
      "note": 61,
      "start": 25.2076,
      "duration": 0.2956,
      "velocity": 117,
      "chip": "ym2612"
    },
    {
      "channel": 3,
      "note": 64,
      "start": 25.2077,
      "duration": 0.2956,
      "velocity": 92,
      "chip": "ym2612"
    },
    {
      "channel": 4,
      "note": 61,
      "start": 25.2077,
      "duration": 0.2956,
      "velocity": 117,
      "chip": "ym2612"
    },
    {
      "channel": 5,
      "note": 49,
      "start": 25.2078,
      "duration": 0.3601,
      "velocity": 101,
      "chip": "ym2612"
    },
    {
      "channel": 2,
      "note": 61,
      "start": 25.5032,
      "duration": 0.3043,
      "velocity": 117,
      "chip": "ym2612"
    },
    {
      "channel": 3,
      "note": 62,
      "start": 25.5033,
      "duration": 0.3043,
      "velocity": 92,
      "chip": "ym2612"
    },
    {
      "channel": 4,
      "note": 61,
      "start": 25.5034,
      "duration": 0.3043,
      "velocity": 117,
      "chip": "ym2612"
    },
    {
      "channel": 0,
      "note": 96,
      "start": 25.8074,
      "duration": 0.6016,
      "velocity": 97,
      "chip": "ym2612"
    },
    {
      "channel": 2,
      "note": 74,
      "start": 25.8076,
      "duration": 0.2956,
      "velocity": 117,
      "chip": "ym2612"
    },
    {
      "channel": 3,
      "note": 61,
      "start": 25.8077,
      "duration": 0.2956,
      "velocity": 92,
      "chip": "ym2612"
    },
    {
      "channel": 4,
      "note": 74,
      "start": 25.8077,
      "duration": 0.2956,
      "velocity": 117,
      "chip": "ym2612"
    },
    {
      "channel": 5,
      "note": 49,
      "start": 25.8078,
      "duration": 0.3601,
      "velocity": 101,
      "chip": "ym2612"
    },
    {
      "channel": 2,
      "note": 73,
      "start": 26.1032,
      "duration": 0.306,
      "velocity": 117,
      "chip": "ym2612"
    },
    {
      "channel": 3,
      "note": 61,
      "start": 26.1033,
      "duration": 0.306,
      "velocity": 92,
      "chip": "ym2612"
    },
    {
      "channel": 4,
      "note": 73,
      "start": 26.1034,
      "duration": 0.306,
      "velocity": 117,
      "chip": "ym2612"
    },
    {
      "channel": 0,
      "note": 95,
      "start": 26.4091,
      "duration": 0.5983,
      "velocity": 97,
      "chip": "ym2612"
    },
    {
      "channel": 1,
      "note": 98,
      "start": 26.4091,
      "duration": 2.4012,
      "velocity": 97,
      "chip": "ym2612"
    },
    {
      "channel": 2,
      "note": 61,
      "start": 26.4093,
      "duration": 0.2939,
      "velocity": 117,
      "chip": "ym2612"
    },
    {
      "channel": 3,
      "note": 61,
      "start": 26.4093,
      "duration": 0.294,
      "velocity": 92,
      "chip": "ym2612"
    },
    {
      "channel": 4,
      "note": 61,
      "start": 26.4095,
      "duration": 0.2939,
      "velocity": 117,
      "chip": "ym2612"
    },
    {
      "channel": 5,
      "note": 49,
      "start": 26.4095,
      "duration": 0.3584,
      "velocity": 101,
      "chip": "ym2612"
    },
    {
      "channel": 2,
      "note": 61,
      "start": 26.7032,
      "duration": 0.3043,
      "velocity": 117,
      "chip": "ym2612"
    },
    {
      "channel": 3,
      "note": 61,
      "start": 26.7033,
      "duration": 0.3043,
      "velocity": 92,
      "chip": "ym2612"
    },
    {
      "channel": 4,
      "note": 61,
      "start": 26.7034,
      "duration": 0.3043,
      "velocity": 117,
      "chip": "ym2612"
    },
    {
      "channel": 0,
      "note": 96,
      "start": 27.0074,
      "duration": 0.5999,
      "velocity": 97,
      "chip": "ym2612"
    },
    {
      "channel": 2,
      "note": 71,
      "start": 27.0076,
      "duration": 0.2956,
      "velocity": 117,
      "chip": "ym2612"
    },
    {
      "channel": 3,
      "note": 61,
      "start": 27.0077,
      "duration": 0.2956,
      "velocity": 92,
      "chip": "ym2612"
    },
    {
      "channel": 4,
      "note": 71,
      "start": 27.0077,
      "duration": 0.2956,
      "velocity": 117,
      "chip": "ym2612"
    },
    {
      "channel": 5,
      "note": 49,
      "start": 27.0078,
      "duration": 0.3601,
      "velocity": 101,
      "chip": "ym2612"
    },
    {
      "channel": 2,
      "note": 73,
      "start": 27.3032,
      "duration": 0.3043,
      "velocity": 117,
      "chip": "ym2612"
    },
    {
      "channel": 3,
      "note": 62,
      "start": 27.3033,
      "duration": 0.3043,
      "velocity": 92,
      "chip": "ym2612"
    },
    {
      "channel": 4,
      "note": 73,
      "start": 27.3034,
      "duration": 0.3043,
      "velocity": 117,
      "chip": "ym2612"
    },
    {
      "channel": 0,
      "note": 97,
      "start": 27.6074,
      "duration": 0.5999,
      "velocity": 97,
      "chip": "ym2612"
    },
    {
      "channel": 2,
      "note": 61,
      "start": 27.6076,
      "duration": 0.2956,
      "velocity": 117,
      "chip": "ym2612"
    },
    {
      "channel": 3,
      "note": 64,
      "start": 27.6077,
      "duration": 0.2956,
      "velocity": 92,
      "chip": "ym2612"
    },
    {
      "channel": 4,
      "note": 61,
      "start": 27.6077,
      "duration": 0.2956,
      "velocity": 117,
      "chip": "ym2612"
    },
    {
      "channel": 5,
      "note": 49,
      "start": 27.6078,
      "duration": 0.3601,
      "velocity": 101,
      "chip": "ym2612"
    },
    {
      "channel": 2,
      "note": 61,
      "start": 27.9032,
      "duration": 0.3043,
      "velocity": 117,
      "chip": "ym2612"
    },
    {
      "channel": 3,
      "note": 62,
      "start": 27.9033,
      "duration": 0.3043,
      "velocity": 92,
      "chip": "ym2612"
    },
    {
      "channel": 4,
      "note": 61,
      "start": 27.9034,
      "duration": 0.3043,
      "velocity": 117,
      "chip": "ym2612"
    },
    {
      "channel": 0,
      "note": 98,
      "start": 28.2074,
      "duration": 0.6029,
      "velocity": 97,
      "chip": "ym2612"
    },
    {
      "channel": 2,
      "note": 74,
      "start": 28.2076,
      "duration": 0.2956,
      "velocity": 117,
      "chip": "ym2612"
    },
    {
      "channel": 3,
      "note": 61,
      "start": 28.2077,
      "duration": 0.2956,
      "velocity": 92,
      "chip": "ym2612"
    },
    {
      "channel": 4,
      "note": 74,
      "start": 28.2077,
      "duration": 0.2956,
      "velocity": 117,
      "chip": "ym2612"
    },
    {
      "channel": 5,
      "note": 49,
      "start": 28.2078,
      "duration": 0.3601,
      "velocity": 101,
      "chip": "ym2612"
    },
    {
      "channel": 2,
      "note": 73,
      "start": 28.5032,
      "duration": 0.3073,
      "velocity": 117,
      "chip": "ym2612"
    },
    {
      "channel": 3,
      "note": 61,
      "start": 28.5033,
      "duration": 0.3073,
      "velocity": 92,
      "chip": "ym2612"
    },
    {
      "channel": 4,
      "note": 73,
      "start": 28.5034,
      "duration": 0.3073,
      "velocity": 117,
      "chip": "ym2612"
    },
    {
      "channel": 0,
      "note": 90,
      "start": 28.8103,
      "duration": 0.597,
      "velocity": 97,
      "chip": "ym2612"
    },
    {
      "channel": 1,
      "note": 97,
      "start": 28.8104,
      "duration": 2.3987,
      "velocity": 97,
      "chip": "ym2612"
    },
    {
      "channel": 2,
      "note": 61,
      "start": 28.8105,
      "duration": 0.2926,
      "velocity": 117,
      "chip": "ym2612"
    },
    {
      "channel": 3,
      "note": 61,
      "start": 28.8106,
      "duration": 0.2927,
      "velocity": 92,
      "chip": "ym2612"
    },
    {
      "channel": 4,
      "note": 61,
      "start": 28.8107,
      "duration": 0.2926,
      "velocity": 117,
      "chip": "ym2612"
    },
    {
      "channel": 5,
      "note": 49,
      "start": 28.8108,
      "duration": 0.3571,
      "velocity": 101,
      "chip": "ym2612"
    },
    {
      "channel": 2,
      "note": 61,
      "start": 29.1032,
      "duration": 0.3043,
      "velocity": 117,
      "chip": "ym2612"
    },
    {
      "channel": 3,
      "note": 61,
      "start": 29.1033,
      "duration": 0.3043,
      "velocity": 92,
      "chip": "ym2612"
    },
    {
      "channel": 4,
      "note": 61,
      "start": 29.1034,
      "duration": 0.3043,
      "velocity": 117,
      "chip": "ym2612"
    },
    {
      "channel": 0,
      "note": 91,
      "start": 29.4074,
      "duration": 0.5999,
      "velocity": 97,
      "chip": "ym2612"
    },
    {
      "channel": 2,
      "note": 71,
      "start": 29.4076,
      "duration": 0.2956,
      "velocity": 117,
      "chip": "ym2612"
    },
    {
      "channel": 3,
      "note": 61,
      "start": 29.4077,
      "duration": 0.2956,
      "velocity": 92,
      "chip": "ym2612"
    },
    {
      "channel": 4,
      "note": 71,
      "start": 29.4077,
      "duration": 0.2956,
      "velocity": 117,
      "chip": "ym2612"
    },
    {
      "channel": 5,
      "note": 49,
      "start": 29.4078,
      "duration": 0.3601,
      "velocity": 101,
      "chip": "ym2612"
    },
    {
      "channel": 2,
      "note": 73,
      "start": 29.7032,
      "duration": 0.3043,
      "velocity": 117,
      "chip": "ym2612"
    },
    {
      "channel": 3,
      "note": 62,
      "start": 29.7033,
      "duration": 0.3043,
      "velocity": 92,
      "chip": "ym2612"
    },
    {
      "channel": 4,
      "note": 73,
      "start": 29.7034,
      "duration": 0.3043,
      "velocity": 117,
      "chip": "ym2612"
    },
    {
      "channel": 0,
      "note": 92,
      "start": 30.0074,
      "duration": 0.6,
      "velocity": 97,
      "chip": "ym2612"
    },
    {
      "channel": 2,
      "note": 61,
      "start": 30.0076,
      "duration": 0.2956,
      "velocity": 117,
      "chip": "ym2612"
    },
    {
      "channel": 3,
      "note": 64,
      "start": 30.0077,
      "duration": 0.2956,
      "velocity": 92,
      "chip": "ym2612"
    },
    {
      "channel": 4,
      "note": 61,
      "start": 30.0077,
      "duration": 0.2956,
      "velocity": 117,
      "chip": "ym2612"
    },
    {
      "channel": 5,
      "note": 49,
      "start": 30.0078,
      "duration": 0.3601,
      "velocity": 101,
      "chip": "ym2612"
    },
    {
      "channel": 2,
      "note": 61,
      "start": 30.3032,
      "duration": 0.3043,
      "velocity": 117,
      "chip": "ym2612"
    },
    {
      "channel": 3,
      "note": 62,
      "start": 30.3033,
      "duration": 0.3043,
      "velocity": 92,
      "chip": "ym2612"
    },
    {
      "channel": 4,
      "note": 61,
      "start": 30.3034,
      "duration": 0.3043,
      "velocity": 117,
      "chip": "ym2612"
    },
    {
      "channel": 0,
      "note": 93,
      "start": 30.6075,
      "duration": 0.6016,
      "velocity": 97,
      "chip": "ym2612"
    },
    {
      "channel": 2,
      "note": 74,
      "start": 30.6076,
      "duration": 0.2956,
      "velocity": 117,
      "chip": "ym2612"
    },
    {
      "channel": 3,
      "note": 61,
      "start": 30.6077,
      "duration": 0.2956,
      "velocity": 92,
      "chip": "ym2612"
    },
    {
      "channel": 4,
      "note": 74,
      "start": 30.6078,
      "duration": 0.2955,
      "velocity": 117,
      "chip": "ym2612"
    },
    {
      "channel": 5,
      "note": 49,
      "start": 30.6079,
      "duration": 0.36,
      "velocity": 101,
      "chip": "ym2612"
    },
    {
      "channel": 2,
      "note": 73,
      "start": 30.9032,
      "duration": 0.306,
      "velocity": 117,
      "chip": "ym2612"
    },
    {
      "channel": 3,
      "note": 61,
      "start": 30.9033,
      "duration": 0.3061,
      "velocity": 92,
      "chip": "ym2612"
    },
    {
      "channel": 4,
      "note": 73,
      "start": 30.9034,
      "duration": 0.3061,
      "velocity": 117,
      "chip": "ym2612"
    },
    {
      "channel": 0,
      "note": 91,
      "start": 31.2091,
      "duration": 0.5982,
      "velocity": 97,
      "chip": "ym2612"
    },
    {
      "channel": 1,
      "note": 98,
      "start": 31.2092,
      "duration": 2.3999,
      "velocity": 97,
      "chip": "ym2612"
    },
    {
      "channel": 2,
      "note": 61,
      "start": 31.2093,
      "duration": 0.2938,
      "velocity": 117,
      "chip": "ym2612"
    },
    {
      "channel": 3,
      "note": 61,
      "start": 31.2094,
      "duration": 0.2939,
      "velocity": 92,
      "chip": "ym2612"
    },
    {
      "channel": 4,
      "note": 61,
      "start": 31.2095,
      "duration": 0.2938,
      "velocity": 117,
      "chip": "ym2612"
    },
    {
      "channel": 5,
      "note": 49,
      "start": 31.2096,
      "duration": 0.3583,
      "velocity": 101,
      "chip": "ym2612"
    },
    {
      "channel": 2,
      "note": 61,
      "start": 31.5032,
      "duration": 0.3043,
      "velocity": 117,
      "chip": "ym2612"
    },
    {
      "channel": 3,
      "note": 61,
      "start": 31.5033,
      "duration": 0.3043,
      "velocity": 92,
      "chip": "ym2612"
    },
    {
      "channel": 4,
      "note": 61,
      "start": 31.5034,
      "duration": 0.3043,
      "velocity": 117,
      "chip": "ym2612"
    },
    {
      "channel": 0,
      "note": 92,
      "start": 31.8074,
      "duration": 0.6,
      "velocity": 97,
      "chip": "ym2612"
    },
    {
      "channel": 2,
      "note": 71,
      "start": 31.8076,
      "duration": 0.2956,
      "velocity": 117,
      "chip": "ym2612"
    },
    {
      "channel": 3,
      "note": 61,
      "start": 31.8077,
      "duration": 0.2956,
      "velocity": 92,
      "chip": "ym2612"
    },
    {
      "channel": 4,
      "note": 71,
      "start": 31.8077,
      "duration": 0.2956,
      "velocity": 117,
      "chip": "ym2612"
    },
    {
      "channel": 5,
      "note": 49,
      "start": 31.8078,
      "duration": 0.3601,
      "velocity": 101,
      "chip": "ym2612"
    },
    {
      "channel": 2,
      "note": 73,
      "start": 32.1032,
      "duration": 0.3043,
      "velocity": 117,
      "chip": "ym2612"
    },
    {
      "channel": 3,
      "note": 62,
      "start": 32.1033,
      "duration": 0.3043,
      "velocity": 92,
      "chip": "ym2612"
    },
    {
      "channel": 4,
      "note": 73,
      "start": 32.1034,
      "duration": 0.3043,
      "velocity": 117,
      "chip": "ym2612"
    },
    {
      "channel": 0,
      "note": 93,
      "start": 32.4075,
      "duration": 0.5999,
      "velocity": 97,
      "chip": "ym2612"
    },
    {
      "channel": 2,
      "note": 61,
      "start": 32.4076,
      "duration": 0.2956,
      "velocity": 117,
      "chip": "ym2612"
    },
    {
      "channel": 3,
      "note": 64,
      "start": 32.4077,
      "duration": 0.2956,
      "velocity": 92,
      "chip": "ym2612"
    },
    {
      "channel": 4,
      "note": 61,
      "start": 32.4078,
      "duration": 0.2955,
      "velocity": 117,
      "chip": "ym2612"
    },
    {
      "channel": 5,
      "note": 49,
      "start": 32.4079,
      "duration": 0.36,
      "velocity": 101,
      "chip": "ym2612"
    },
    {
      "channel": 2,
      "note": 61,
      "start": 32.7032,
      "duration": 0.3043,
      "velocity": 117,
      "chip": "ym2612"
    },
    {
      "channel": 3,
      "note": 62,
      "start": 32.7033,
      "duration": 0.3043,
      "velocity": 92,
      "chip": "ym2612"
    },
    {
      "channel": 4,
      "note": 61,
      "start": 32.7034,
      "duration": 0.3043,
      "velocity": 117,
      "chip": "ym2612"
    },
    {
      "channel": 0,
      "note": 94,
      "start": 33.0074,
      "duration": 0.6016,
      "velocity": 97,
      "chip": "ym2612"
    },
    {
      "channel": 2,
      "note": 74,
      "start": 33.0076,
      "duration": 0.2956,
      "velocity": 117,
      "chip": "ym2612"
    },
    {
      "channel": 3,
      "note": 61,
      "start": 33.0077,
      "duration": 0.2956,
      "velocity": 92,
      "chip": "ym2612"
    },
    {
      "channel": 4,
      "note": 74,
      "start": 33.0077,
      "duration": 0.2956,
      "velocity": 117,
      "chip": "ym2612"
    },
    {
      "channel": 5,
      "note": 49,
      "start": 33.0078,
      "duration": 0.3601,
      "velocity": 101,
      "chip": "ym2612"
    },
    {
      "channel": 2,
      "note": 73,
      "start": 33.3032,
      "duration": 0.306,
      "velocity": 117,
      "chip": "ym2612"
    },
    {
      "channel": 3,
      "note": 61,
      "start": 33.3033,
      "duration": 0.306,
      "velocity": 92,
      "chip": "ym2612"
    },
    {
      "channel": 4,
      "note": 73,
      "start": 33.3034,
      "duration": 0.306,
      "velocity": 117,
      "chip": "ym2612"
    },
    {
      "channel": 0,
      "note": 93,
      "start": 33.6091,
      "duration": 0.5983,
      "velocity": 97,
      "chip": "ym2612"
    },
    {
      "channel": 1,
      "note": 100,
      "start": 33.6091,
      "duration": 2.3999,
      "velocity": 97,
      "chip": "ym2612"
    },
    {
      "channel": 2,
      "note": 61,
      "start": 33.6093,
      "duration": 0.2939,
      "velocity": 117,
      "chip": "ym2612"
    },
    {
      "channel": 3,
      "note": 61,
      "start": 33.6093,
      "duration": 0.294,
      "velocity": 92,
      "chip": "ym2612"
    },
    {
      "channel": 4,
      "note": 61,
      "start": 33.6095,
      "duration": 0.2939,
      "velocity": 117,
      "chip": "ym2612"
    },
    {
      "channel": 5,
      "note": 49,
      "start": 33.6095,
      "duration": 0.3584,
      "velocity": 101,
      "chip": "ym2612"
    },
    {
      "channel": 2,
      "note": 61,
      "start": 33.9032,
      "duration": 0.3043,
      "velocity": 117,
      "chip": "ym2612"
    },
    {
      "channel": 3,
      "note": 61,
      "start": 33.9033,
      "duration": 0.3043,
      "velocity": 92,
      "chip": "ym2612"
    },
    {
      "channel": 4,
      "note": 61,
      "start": 33.9034,
      "duration": 0.3043,
      "velocity": 117,
      "chip": "ym2612"
    },
    {
      "channel": 0,
      "note": 94,
      "start": 34.2074,
      "duration": 0.5999,
      "velocity": 97,
      "chip": "ym2612"
    },
    {
      "channel": 2,
      "note": 71,
      "start": 34.2076,
      "duration": 0.2956,
      "velocity": 117,
      "chip": "ym2612"
    },
    {
      "channel": 3,
      "note": 61,
      "start": 34.2077,
      "duration": 0.2956,
      "velocity": 92,
      "chip": "ym2612"
    },
    {
      "channel": 4,
      "note": 71,
      "start": 34.2077,
      "duration": 0.2956,
      "velocity": 117,
      "chip": "ym2612"
    },
    {
      "channel": 5,
      "note": 49,
      "start": 34.2078,
      "duration": 0.3601,
      "velocity": 101,
      "chip": "ym2612"
    },
    {
      "channel": 2,
      "note": 73,
      "start": 34.5032,
      "duration": 0.3043,
      "velocity": 117,
      "chip": "ym2612"
    },
    {
      "channel": 3,
      "note": 62,
      "start": 34.5033,
      "duration": 0.3043,
      "velocity": 92,
      "chip": "ym2612"
    },
    {
      "channel": 4,
      "note": 73,
      "start": 34.5034,
      "duration": 0.3043,
      "velocity": 117,
      "chip": "ym2612"
    },
    {
      "channel": 0,
      "note": 95,
      "start": 34.8074,
      "duration": 0.5999,
      "velocity": 97,
      "chip": "ym2612"
    },
    {
      "channel": 2,
      "note": 61,
      "start": 34.8076,
      "duration": 0.2956,
      "velocity": 117,
      "chip": "ym2612"
    },
    {
      "channel": 3,
      "note": 64,
      "start": 34.8077,
      "duration": 0.2956,
      "velocity": 92,
      "chip": "ym2612"
    },
    {
      "channel": 4,
      "note": 61,
      "start": 34.8077,
      "duration": 0.2956,
      "velocity": 117,
      "chip": "ym2612"
    },
    {
      "channel": 5,
      "note": 49,
      "start": 34.8078,
      "duration": 0.3601,
      "velocity": 101,
      "chip": "ym2612"
    },
    {
      "channel": 2,
      "note": 61,
      "start": 35.1032,
      "duration": 0.3043,
      "velocity": 117,
      "chip": "ym2612"
    },
    {
      "channel": 3,
      "note": 62,
      "start": 35.1033,
      "duration": 0.3043,
      "velocity": 92,
      "chip": "ym2612"
    },
    {
      "channel": 4,
      "note": 61,
      "start": 35.1034,
      "duration": 0.3043,
      "velocity": 117,
      "chip": "ym2612"
    },
    {
      "channel": 0,
      "note": 96,
      "start": 35.4074,
      "duration": 0.6016,
      "velocity": 97,
      "chip": "ym2612"
    },
    {
      "channel": 2,
      "note": 74,
      "start": 35.4076,
      "duration": 0.2956,
      "velocity": 117,
      "chip": "ym2612"
    },
    {
      "channel": 3,
      "note": 61,
      "start": 35.4077,
      "duration": 0.2956,
      "velocity": 92,
      "chip": "ym2612"
    },
    {
      "channel": 4,
      "note": 74,
      "start": 35.4077,
      "duration": 0.2956,
      "velocity": 117,
      "chip": "ym2612"
    },
    {
      "channel": 5,
      "note": 49,
      "start": 35.4078,
      "duration": 0.3601,
      "velocity": 101,
      "chip": "ym2612"
    },
    {
      "channel": 2,
      "note": 73,
      "start": 35.7032,
      "duration": 0.306,
      "velocity": 117,
      "chip": "ym2612"
    },
    {
      "channel": 3,
      "note": 61,
      "start": 35.7033,
      "duration": 0.306,
      "velocity": 92,
      "chip": "ym2612"
    },
    {
      "channel": 4,
      "note": 73,
      "start": 35.7034,
      "duration": 0.306,
      "velocity": 117,
      "chip": "ym2612"
    },
    {
      "channel": 0,
      "note": 95,
      "start": 36.0091,
      "duration": 0.5983,
      "velocity": 97,
      "chip": "ym2612"
    },
    {
      "channel": 1,
      "note": 98,
      "start": 36.0091,
      "duration": 2.4013,
      "velocity": 97,
      "chip": "ym2612"
    },
    {
      "channel": 2,
      "note": 61,
      "start": 36.0093,
      "duration": 0.2939,
      "velocity": 117,
      "chip": "ym2612"
    },
    {
      "channel": 3,
      "note": 61,
      "start": 36.0093,
      "duration": 0.294,
      "velocity": 92,
      "chip": "ym2612"
    },
    {
      "channel": 4,
      "note": 61,
      "start": 36.0095,
      "duration": 0.2939,
      "velocity": 117,
      "chip": "ym2612"
    },
    {
      "channel": 5,
      "note": 49,
      "start": 36.0095,
      "duration": 0.3584,
      "velocity": 101,
      "chip": "ym2612"
    },
    {
      "channel": 2,
      "note": 61,
      "start": 36.3032,
      "duration": 0.3043,
      "velocity": 117,
      "chip": "ym2612"
    },
    {
      "channel": 3,
      "note": 61,
      "start": 36.3033,
      "duration": 0.3043,
      "velocity": 92,
      "chip": "ym2612"
    },
    {
      "channel": 4,
      "note": 61,
      "start": 36.3034,
      "duration": 0.3043,
      "velocity": 117,
      "chip": "ym2612"
    },
    {
      "channel": 0,
      "note": 96,
      "start": 36.6074,
      "duration": 0.5999,
      "velocity": 97,
      "chip": "ym2612"
    },
    {
      "channel": 2,
      "note": 71,
      "start": 36.6076,
      "duration": 0.2956,
      "velocity": 117,
      "chip": "ym2612"
    },
    {
      "channel": 3,
      "note": 61,
      "start": 36.6077,
      "duration": 0.2956,
      "velocity": 92,
      "chip": "ym2612"
    },
    {
      "channel": 4,
      "note": 71,
      "start": 36.6077,
      "duration": 0.2956,
      "velocity": 117,
      "chip": "ym2612"
    },
    {
      "channel": 5,
      "note": 49,
      "start": 36.6078,
      "duration": 0.3601,
      "velocity": 101,
      "chip": "ym2612"
    },
    {
      "channel": 2,
      "note": 73,
      "start": 36.9032,
      "duration": 0.3043,
      "velocity": 117,
      "chip": "ym2612"
    },
    {
      "channel": 3,
      "note": 62,
      "start": 36.9033,
      "duration": 0.3043,
      "velocity": 92,
      "chip": "ym2612"
    },
    {
      "channel": 4,
      "note": 73,
      "start": 36.9034,
      "duration": 0.3043,
      "velocity": 117,
      "chip": "ym2612"
    },
    {
      "channel": 0,
      "note": 97,
      "start": 37.2074,
      "duration": 0.5999,
      "velocity": 97,
      "chip": "ym2612"
    },
    {
      "channel": 2,
      "note": 61,
      "start": 37.2076,
      "duration": 0.2956,
      "velocity": 117,
      "chip": "ym2612"
    },
    {
      "channel": 3,
      "note": 64,
      "start": 37.2077,
      "duration": 0.2956,
      "velocity": 92,
      "chip": "ym2612"
    },
    {
      "channel": 4,
      "note": 61,
      "start": 37.2077,
      "duration": 0.2956,
      "velocity": 117,
      "chip": "ym2612"
    },
    {
      "channel": 5,
      "note": 49,
      "start": 37.2078,
      "duration": 0.3601,
      "velocity": 101,
      "chip": "ym2612"
    },
    {
      "channel": 2,
      "note": 61,
      "start": 37.5032,
      "duration": 0.3043,
      "velocity": 117,
      "chip": "ym2612"
    },
    {
      "channel": 3,
      "note": 62,
      "start": 37.5033,
      "duration": 0.3043,
      "velocity": 92,
      "chip": "ym2612"
    },
    {
      "channel": 4,
      "note": 61,
      "start": 37.5034,
      "duration": 0.3043,
      "velocity": 117,
      "chip": "ym2612"
    },
    {
      "channel": 0,
      "note": 98,
      "start": 37.8074,
      "duration": 0.603,
      "velocity": 97,
      "chip": "ym2612"
    },
    {
      "channel": 2,
      "note": 74,
      "start": 37.8076,
      "duration": 0.2956,
      "velocity": 117,
      "chip": "ym2612"
    },
    {
      "channel": 3,
      "note": 61,
      "start": 37.8077,
      "duration": 0.2956,
      "velocity": 92,
      "chip": "ym2612"
    },
    {
      "channel": 4,
      "note": 74,
      "start": 37.8077,
      "duration": 0.2956,
      "velocity": 117,
      "chip": "ym2612"
    },
    {
      "channel": 5,
      "note": 49,
      "start": 37.8078,
      "duration": 0.3601,
      "velocity": 101,
      "chip": "ym2612"
    },
    {
      "channel": 2,
      "note": 73,
      "start": 38.1032,
      "duration": 0.3074,
      "velocity": 117,
      "chip": "ym2612"
    },
    {
      "channel": 3,
      "note": 61,
      "start": 38.1033,
      "duration": 0.3074,
      "velocity": 92,
      "chip": "ym2612"
    },
    {
      "channel": 4,
      "note": 73,
      "start": 38.1034,
      "duration": 0.3074,
      "velocity": 117,
      "chip": "ym2612"
    },
    {
      "channel": 0,
      "note": 90,
      "start": 38.4105,
      "duration": 0.5664,
      "velocity": 97,
      "chip": "ym2612"
    },
    {
      "channel": 1,
      "note": 97,
      "start": 38.4105,
      "duration": 0.5664,
      "velocity": 97,
      "chip": "ym2612"
    },
    {
      "channel": 2,
      "note": 61,
      "start": 38.4107,
      "duration": 0.2925,
      "velocity": 117,
      "chip": "ym2612"
    },
    {
      "channel": 3,
      "note": 61,
      "start": 38.4107,
      "duration": 0.2926,
      "velocity": 92,
      "chip": "ym2612"
    },
    {
      "channel": 4,
      "note": 61,
      "start": 38.4108,
      "duration": 0.2925,
      "velocity": 117,
      "chip": "ym2612"
    },
    {
      "channel": 5,
      "note": 49,
      "start": 38.4109,
      "duration": 0.357,
      "velocity": 101,
      "chip": "ym2612"
    },
    {
      "channel": 2,
      "note": 61,
      "start": 38.7032,
      "duration": 0.2737,
      "velocity": 117,
      "chip": "ym2612"
    },
    {
      "channel": 3,
      "note": 61,
      "start": 38.7033,
      "duration": 0.2736,
      "velocity": 92,
      "chip": "ym2612"
    },
    {
      "channel": 4,
      "note": 61,
      "start": 38.7034,
      "duration": 0.2735,
      "velocity": 117,
      "chip": "ym2612"
    }
  ]
}