{
  "track_name": "13 - Finale",
  "duration_sec": 79.398,
  "sample_rate": 44100,
  "note_count": 697,
  "unique_pitches": 34,
  "pitch_range": 65,
  "avg_note_duration": 0.6577,
  "reconstruction_stats": {
    "notes_reconstructed": 697,
    "keyon_events": 697,
    "keyoff_events": 691,
    "orphan_keyons": 6,
    "unique_pitches": 34,
    "pitch_range": 65,
    "avg_duration_sec": 0.6577
  },
  "metadata": {
    "source": "T\\The Lion King\\13 - Finale.vgm"
  },
  "notes": [
    {
      "channel": 0,
      "note": 50,
      "start": 0.0,
      "duration": 0.2538,
      "velocity": 112,
      "chip": "ym2612"
    },
    {
      "channel": 1,
      "note": 74,
      "start": 0.0027,
      "duration": 0.5074,
      "velocity": 103,
      "chip": "ym2612"
    },
    {
      "channel": 2,
      "note": 78,
      "start": 0.0053,
      "duration": 1.569,
      "velocity": 109,
      "chip": "ym2612"
    },
    {
      "channel": 3,
      "note": 81,
      "start": 0.0079,
      "duration": 1.5667,
      "velocity": 109,
      "chip": "ym2612"
    },
    {
      "channel": 4,
      "note": 74,
      "start": 0.0104,
      "duration": 1.5647,
      "velocity": 109,
      "chip": "ym2612"
    },
    {
      "channel": 0,
      "note": 50,
      "start": 0.254,
      "duration": 0.0553,
      "velocity": 112,
      "chip": "ym2612"
    },
    {
      "channel": 0,
      "note": 57,
      "start": 0.3095,
      "duration": 0.1999,
      "velocity": 112,
      "chip": "ym2612"
    },
    {
      "channel": 0,
      "note": 50,
      "start": 0.5096,
      "duration": 0.2554,
      "velocity": 112,
      "chip": "ym2612"
    },
    {
      "channel": 1,
      "note": 76,
      "start": 0.5103,
      "duration": 0.4757,
      "velocity": 103,
      "chip": "ym2612"
    },
    {
      "channel": 0,
      "note": 50,
      "start": 0.7652,
      "duration": 0.02,
      "velocity": 112,
      "chip": "ym2612"
    },
    {
      "channel": 0,
      "note": 57,
      "start": 0.7854,
      "duration": 0.1999,
      "velocity": 112,
      "chip": "ym2612"
    },
    {
      "channel": 0,
      "note": 50,
      "start": 0.9855,
      "duration": 0.2554,
      "velocity": 112,
      "chip": "ym2612"
    },
    {
      "channel": 1,
      "note": 74,
      "start": 0.9862,
      "duration": 0.511,
      "velocity": 103,
      "chip": "ym2612"
    },
    {
      "channel": 0,
      "note": 50,
      "start": 1.2411,
      "duration": 0.0553,
      "velocity": 112,
      "chip": "ym2612"
    },
    {
      "channel": 0,
      "note": 57,
      "start": 1.2966,
      "duration": 0.1999,
      "velocity": 112,
      "chip": "ym2612"
    },
    {
      "channel": 0,
      "note": 50,
      "start": 1.4967,
      "duration": 0.0559,
      "velocity": 112,
      "chip": "ym2612"
    },
    {
      "channel": 1,
      "note": 69,
      "start": 1.4974,
      "duration": 0.0765,
      "velocity": 103,
      "chip": "ym2612"
    },
    {
      "channel": 0,
      "note": 50,
      "start": 1.5528,
      "duration": 0.0196,
      "velocity": 112,
      "chip": "ym2612"
    },
    {
      "channel": 0,
      "note": 57,
      "start": 1.5726,
      "duration": 0.0009,
      "velocity": 112,
      "chip": "ym2612"
    },
    {
      "channel": 0,
      "note": 55,
      "start": 1.5737,
      "duration": 0.2521,
      "velocity": 112,
      "chip": "ym2612"
    },
    {
      "channel": 1,
      "note": 71,
      "start": 1.574,
      "duration": 0.508,
      "velocity": 103,
      "chip": "ym2612"
    },
    {
      "channel": 2,
      "note": 81,
      "start": 1.5745,
      "duration": 0.5083,
      "velocity": 109,
      "chip": "ym2612"
    },
    {
      "channel": 3,
      "note": 79,
      "start": 1.5749,
      "duration": 0.9845,
      "velocity": 109,
      "chip": "ym2612"
    },
    {
      "channel": 4,
      "note": 74,
      "start": 1.5754,
      "duration": 0.9847,
      "velocity": 109,
      "chip": "ym2612"
    },
    {
      "channel": 0,
      "note": 55,
      "start": 1.8259,
      "duration": 0.0553,
      "velocity": 112,
      "chip": "ym2612"
    },
    {
      "channel": 0,
      "note": 50,
      "start": 1.8814,
      "duration": 0.1999,
      "velocity": 112,
      "chip": "ym2612"
    },
    {
      "channel": 0,
      "note": 55,
      "start": 2.0815,
      "duration": 0.2554,
      "velocity": 112,
      "chip": "ym2612"
    },
    {
      "channel": 1,
      "note": 69,
      "start": 2.0822,
      "duration": 0.4758,
      "velocity": 103,
      "chip": "ym2612"
    },
    {
      "channel": 2,
      "note": 83,
      "start": 2.0829,
      "duration": 0.4758,
      "velocity": 109,
      "chip": "ym2612"
    },
    {
      "channel": 0,
      "note": 55,
      "start": 2.3371,
      "duration": 0.02,
      "velocity": 112,
      "chip": "ym2612"
    },
    {
      "channel": 0,
      "note": 50,
      "start": 2.3573,
      "duration": 0.2,
      "velocity": 112,
      "chip": "ym2612"
    },
    {
      "channel": 0,
      "note": 55,
      "start": 2.5575,
      "duration": 0.2553,
      "velocity": 112,
      "chip": "ym2612"
    },
    {
      "channel": 1,
      "note": 71,
      "start": 2.5582,
      "duration": 0.3117,
      "velocity": 103,
      "chip": "ym2612"
    },
    {
      "channel": 2,
      "note": 86,
      "start": 2.5589,
      "duration": 0.3114,
      "velocity": 109,
      "chip": "ym2612"
    },
    {
      "channel": 3,
      "note": 83,
      "start": 2.5596,
      "duration": 0.3111,
      "velocity": 109,
      "chip": "ym2612"
    },
    {
      "channel": 4,
      "note": 79,
      "start": 2.5603,
      "duration": 0.3108,
      "velocity": 109,
      "chip": "ym2612"
    },
    {
      "channel": 0,
      "note": 55,
      "start": 2.813,
      "duration": 0.0554,
      "velocity": 112,
      "chip": "ym2612"
    },
    {
      "channel": 0,
      "note": 50,
      "start": 2.8685,
      "duration": 0.0009,
      "velocity": 112,
      "chip": "ym2612"
    },
    {
      "channel": 0,
      "note": 55,
      "start": 2.8696,
      "duration": 0.0525,
      "velocity": 112,
      "chip": "ym2612"
    },
    {
      "channel": 1,
      "note": 74,
      "start": 2.87,
      "duration": 0.0735,
      "velocity": 103,
      "chip": "ym2612"
    },
    {
      "channel": 2,
      "note": 83,
      "start": 2.8705,
      "duration": 0.0734,
      "velocity": 109,
      "chip": "ym2612"
    },
    {
      "channel": 3,
      "note": 79,
      "start": 2.8709,
      "duration": 0.0733,
      "velocity": 109,
      "chip": "ym2612"
    },
    {
      "channel": 4,
      "note": 76,
      "start": 2.8714,
      "duration": 0.0734,
      "velocity": 109,
      "chip": "ym2612"
    },
    {
      "channel": 0,
      "note": 55,
      "start": 2.9224,
      "duration": 0.0196,
      "velocity": 112,
      "chip": "ym2612"
    },
    {
      "channel": 0,
      "note": 57,
      "start": 2.9421,
      "duration": 0.001,
      "velocity": 112,
      "chip": "ym2612"
    },
    {
      "channel": 0,
      "note": 50,
      "start": 2.9434,
      "duration": 0.2514,
      "velocity": 112,
      "chip": "ym2612"
    },
    {
      "channel": 1,
      "note": 74,
      "start": 2.9437,
      "duration": 0.5074,
      "velocity": 103,
      "chip": "ym2612"
    },
    {
      "channel": 2,
      "note": 78,
      "start": 2.9441,
      "duration": 1.5711,
      "velocity": 109,
      "chip": "ym2612"
    },
    {
      "channel": 3,
      "note": 81,
      "start": 2.9444,
      "duration": 1.5712,
      "velocity": 109,
      "chip": "ym2612"
    },
    {
      "channel": 4,
      "note": 74,
      "start": 2.9449,
      "duration": 1.571,
      "velocity": 109,
      "chip": "ym2612"
    },
    {
      "channel": 0,
      "note": 50,
      "start": 3.195,
      "duration": 0.0553,
      "velocity": 112,
      "chip": "ym2612"
    },
    {
      "channel": 0,
      "note": 57,
      "start": 3.2505,
      "duration": 0.1999,
      "velocity": 112,
      "chip": "ym2612"
    },
    {
      "channel": 0,
      "note": 50,
      "start": 3.4505,
      "duration": 0.2554,
      "velocity": 112,
      "chip": "ym2612"
    },
    {
      "channel": 1,
      "note": 76,
      "start": 3.4512,
      "duration": 0.4757,
      "velocity": 103,
      "chip": "ym2612"
    },
    {
      "channel": 0,
      "note": 50,
      "start": 3.7062,
      "duration": 0.02,
      "velocity": 112,
      "chip": "ym2612"
    },
    {
      "channel": 0,
      "note": 57,
      "start": 3.7264,
      "duration": 0.1999,
      "velocity": 112,
      "chip": "ym2612"
    },
    {
      "channel": 0,
      "note": 54,
      "start": 3.9264,
      "duration": 0.2554,
      "velocity": 112,
      "chip": "ym2612"
    },
    {
      "channel": 1,
      "note": 74,
      "start": 3.9271,
      "duration": 0.5674,
      "velocity": 103,
      "chip": "ym2612"
    },
    {
      "channel": 0,
      "note": 54,
      "start": 4.1821,
      "duration": 0.0553,
      "velocity": 112,
      "chip": "ym2612"
    },
    {
      "channel": 0,
      "note": 57,
      "start": 4.2376,
      "duration": 0.1999,
      "velocity": 112,
      "chip": "ym2612"
    },
    {
      "channel": 0,
      "note": 54,
      "start": 4.4376,
      "duration": 0.0559,
      "velocity": 112,
      "chip": "ym2612"
    },
    {
      "channel": 0,
      "note": 54,
      "start": 4.4938,
      "duration": 0.0195,
      "velocity": 112,
      "chip": "ym2612"
    },
    {
      "channel": 1,
      "note": 81,
      "start": 4.4948,
      "duration": 0.02,
      "velocity": 103,
      "chip": "ym2612"
    },
    {
      "channel": 0,
      "note": 57,
      "start": 4.5135,
      "duration": 0.0009,
      "velocity": 112,
      "chip": "ym2612"
    },
    {
      "channel": 0,
      "note": 55,
      "start": 4.5146,
      "duration": 0.252,
      "velocity": 112,
      "chip": "ym2612"
    },
    {
      "channel": 1,
      "note": 81,
      "start": 4.515,
      "duration": 0.508,
      "velocity": 103,
      "chip": "ym2612"
    },
    {
      "channel": 2,
      "note": 81,
      "start": 4.5154,
      "duration": 0.5083,
      "velocity": 109,
      "chip": "ym2612"
    },
    {
      "channel": 3,
      "note": 79,
      "start": 4.5158,
      "duration": 0.9846,
      "velocity": 109,
      "chip": "ym2612"
    },
    {
      "channel": 4,
      "note": 74,
      "start": 4.5164,
      "duration": 0.9847,
      "velocity": 109,
      "chip": "ym2612"
    },
    {
      "channel": 0,
      "note": 55,
      "start": 4.7668,
      "duration": 0.0553,
      "velocity": 112,
      "chip": "ym2612"
    },
    {
      "channel": 0,
      "note": 50,
      "start": 4.8224,
      "duration": 0.1999,
      "velocity": 112,
      "chip": "ym2612"
    },
    {
      "channel": 0,
      "note": 55,
      "start": 5.0225,
      "duration": 0.2554,
      "velocity": 112,
      "chip": "ym2612"
    },
    {
      "channel": 1,
      "note": 79,
      "start": 5.0232,
      "duration": 0.4758,
      "velocity": 103,
      "chip": "ym2612"
    },
    {
      "channel": 2,
      "note": 83,
      "start": 5.0239,
      "duration": 0.4758,
      "velocity": 109,
      "chip": "ym2612"
    },
    {
      "channel": 0,
      "note": 55,
      "start": 5.278,
      "duration": 0.02,
      "velocity": 112,
      "chip": "ym2612"
    },
    {
      "channel": 0,
      "note": 50,
      "start": 5.2983,
      "duration": 0.2,
      "velocity": 112,
      "chip": "ym2612"
    },
    {
      "channel": 0,
      "note": 55,
      "start": 5.4985,
      "duration": 0.2553,
      "velocity": 112,
      "chip": "ym2612"
    },
    {
      "channel": 1,
      "note": 78,
      "start": 5.4991,
      "duration": 0.3116,
      "velocity": 103,
      "chip": "ym2612"
    },
    {
      "channel": 2,
      "note": 86,
      "start": 5.4998,
      "duration": 0.3113,
      "velocity": 109,
      "chip": "ym2612"
    },
    {
      "channel": 3,
      "note": 83,
      "start": 5.5005,
      "duration": 0.311,
      "velocity": 109,
      "chip": "ym2612"
    },
    {
      "channel": 4,
      "note": 79,
      "start": 5.5012,
      "duration": 0.3107,
      "velocity": 109,
      "chip": "ym2612"
    },
    {
      "channel": 0,
      "note": 55,
      "start": 5.7539,
      "duration": 0.0554,
      "velocity": 112,
      "chip": "ym2612"
    },
    {
      "channel": 0,
      "note": 50,
      "start": 5.8095,
      "duration": 0.0009,
      "velocity": 112,
      "chip": "ym2612"
    },
    {
      "channel": 0,
      "note": 57,
      "start": 5.8106,
      "duration": 0.0525,
      "velocity": 112,
      "chip": "ym2612"
    },
    {
      "channel": 1,
      "note": 76,
      "start": 5.811,
      "duration": 0.0733,
      "velocity": 103,
      "chip": "ym2612"
    },
    {
      "channel": 2,
      "note": 83,
      "start": 5.8114,
      "duration": 0.0734,
      "velocity": 109,
      "chip": "ym2612"
    },
    {
      "channel": 3,
      "note": 79,
      "start": 5.8117,
      "duration": 0.0734,
      "velocity": 109,
      "chip": "ym2612"
    },
    {
      "channel": 4,
      "note": 76,
      "start": 5.8123,
      "duration": 0.0734,
      "velocity": 109,
      "chip": "ym2612"
    },
    {
      "channel": 0,
      "note": 57,
      "start": 5.8633,
      "duration": 0.0196,
      "velocity": 112,
      "chip": "ym2612"
    },
    {
      "channel": 0,
      "note": 45,
      "start": 5.8831,
      "duration": 0.0009,
      "velocity": 112,
      "chip": "ym2612"
    },
    {
      "channel": 0,
      "note": 54,
      "start": 5.8842,
      "duration": 0.2514,
      "velocity": 112,
      "chip": "ym2612"
    },
    {
      "channel": 1,
      "note": 79,
      "start": 5.8845,
      "duration": 0.5074,
      "velocity": 103,
      "chip": "ym2612"
    },
    {
      "channel": 2,
      "note": 86,
      "start": 5.885,
      "duration": 0.9836,
      "velocity": 109,
      "chip": "ym2612"
    },
    {
      "channel": 3,
      "note": 81,
      "start": 5.8853,
      "duration": 0.984,
      "velocity": 109,
      "chip": "ym2612"
    },
    {
      "channel": 4,
      "note": 78,
      "start": 5.886,
      "duration": 0.984,
      "velocity": 109,
      "chip": "ym2612"
    },
    {
      "channel": 0,
      "note": 54,
      "start": 6.1358,
      "duration": 0.0553,
      "velocity": 112,
      "chip": "ym2612"
    },
    {
      "channel": 0,
      "note": 50,
      "start": 6.1913,
      "duration": 0.1999,
      "velocity": 112,
      "chip": "ym2612"
    },
    {
      "channel": 0,
      "note": 54,
      "start": 6.3914,
      "duration": 0.2554,
      "velocity": 112,
      "chip": "ym2612"
    },
    {
      "channel": 1,
      "note": 78,
      "start": 6.3921,
      "duration": 0.4758,
      "velocity": 103,
      "chip": "ym2612"
    },
    {
      "channel": 0,
      "note": 54,
      "start": 6.647,
      "duration": 0.02,
      "velocity": 112,
      "chip": "ym2612"
    },
    {
      "channel": 0,
      "note": 50,
      "start": 6.6672,
      "duration": 0.2,
      "velocity": 112,
      "chip": "ym2612"
    },
    {
      "channel": 0,
      "note": 47,
      "start": 6.8674,
      "duration": 0.2553,
      "velocity": 112,
      "chip": "ym2612"
    },
    {
      "channel": 1,
      "note": 74,
      "start": 6.8681,
      "duration": 0.5672,
      "velocity": 103,
      "chip": "ym2612"
    },
    {
      "channel": 2,
      "note": 81,
      "start": 6.8688,
      "duration": 0.5872,
      "velocity": 109,
      "chip": "ym2612"
    },
    {
      "channel": 3,
      "note": 78,
      "start": 6.8695,
      "duration": 0.5869,
      "velocity": 109,
      "chip": "ym2612"
    },
    {
      "channel": 4,
      "note": 74,
      "start": 6.8702,
      "duration": 0.5866,
      "velocity": 109,
      "chip": "ym2612"
    },
    {
      "channel": 0,
      "note": 47,
      "start": 7.1229,
      "duration": 0.0553,
      "velocity": 112,
      "chip": "ym2612"
    },
    {
      "channel": 0,
      "note": 54,
      "start": 7.1784,
      "duration": 0.1999,
      "velocity": 112,
      "chip": "ym2612"
    },
    {
      "channel": 0,
      "note": 47,
      "start": 7.3785,
      "duration": 0.0559,
      "velocity": 112,
      "chip": "ym2612"
    },
    {
      "channel": 0,
      "note": 47,
      "start": 7.4346,
      "duration": 0.0195,
      "velocity": 112,
      "chip": "ym2612"
    },
    {
      "channel": 1,
      "note": 78,
      "start": 7.4356,
      "duration": 0.02,
      "velocity": 103,
      "chip": "ym2612"
    },
    {
      "channel": 0,
      "note": 54,
      "start": 7.4544,
      "duration": 0.0009,
      "velocity": 112,
      "chip": "ym2612"
    },
    {
      "channel": 0,
      "note": 57,
      "start": 7.4554,
      "duration": 0.252,
      "velocity": 112,
      "chip": "ym2612"
    },
    {
      "channel": 1,
      "note": 76,
      "start": 7.4558,
      "duration": 1.3714,
      "velocity": 103,
      "chip": "ym2612"
    },
    {
      "channel": 2,
      "note": 86,
      "start": 7.4562,
      "duration": 0.9836,
      "velocity": 109,
      "chip": "ym2612"
    },
    {
      "channel": 3,
      "note": 81,
      "start": 7.4566,
      "duration": 0.9839,
      "velocity": 109,
      "chip": "ym2612"
    },
    {
      "channel": 4,
      "note": 76,
      "start": 7.4572,
      "duration": 0.984,
      "velocity": 109,
      "chip": "ym2612"
    },
    {
      "channel": 0,
      "note": 57,
      "start": 7.7077,
      "duration": 0.0553,
      "velocity": 112,
      "chip": "ym2612"
    },
    {
      "channel": 0,
      "note": 52,
      "start": 7.7632,
      "duration": 0.1999,
      "velocity": 112,
      "chip": "ym2612"
    },
    {
      "channel": 0,
      "note": 57,
      "start": 7.9632,
      "duration": 0.2554,
      "velocity": 112,
      "chip": "ym2612"
    },
    {
      "channel": 0,
      "note": 57,
      "start": 8.2188,
      "duration": 0.02,
      "velocity": 112,
      "chip": "ym2612"
    },
    {
      "channel": 0,
      "note": 52,
      "start": 8.239,
      "duration": 0.1999,
      "velocity": 112,
      "chip": "ym2612"
    },
    {
      "channel": 0,
      "note": 45,
      "start": 8.4392,
      "duration": 0.2553,
      "velocity": 112,
      "chip": "ym2612"
    },
    {
      "channel": 2,
      "note": 85,
      "start": 8.44,
      "duration": 0.3876,
      "velocity": 109,
      "chip": "ym2612"
    },
    {
      "channel": 3,
      "note": 81,
      "start": 8.4407,
      "duration": 0.3872,
      "velocity": 109,
      "chip": "ym2612"
    },
    {
      "channel": 4,
      "note": 76,
      "start": 8.4414,
      "duration": 0.3871,
      "velocity": 109,
      "chip": "ym2612"
    },
    {
      "channel": 0,
      "note": 45,
      "start": 8.6947,
      "duration": 0.0554,
      "velocity": 112,
      "chip": "ym2612"
    },
    {
      "channel": 0,
      "note": 52,
      "start": 8.7502,
      "duration": 0.0009,
      "velocity": 112,
      "chip": "ym2612"
    },
    {
      "channel": 0,
      "note": 45,
      "start": 8.7513,
      "duration": 0.0546,
      "velocity": 112,
      "chip": "ym2612"
    },
    {
      "channel": 0,
      "note": 45,
      "start": 8.8061,
      "duration": 0.0196,
      "velocity": 112,
      "chip": "ym2612"
    },
    {
      "channel": 0,
      "note": 52,
      "start": 8.8259,
      "duration": 0.001,
      "velocity": 112,
      "chip": "ym2612"
    },
    {
      "channel": 0,
      "note": 50,
      "start": 8.8271,
      "duration": 0.2514,
      "velocity": 112,
      "chip": "ym2612"
    },
    {
      "channel": 1,
      "note": 74,
      "start": 8.8274,
      "duration": 0.5074,
      "velocity": 103,
      "chip": "ym2612"
    },
    {
      "channel": 2,
      "note": 78,
      "start": 8.8278,
      "duration": 1.5711,
      "velocity": 109,
      "chip": "ym2612"
    },
    {
      "channel": 3,
      "note": 81,
      "start": 8.8281,
      "duration": 1.5712,
      "velocity": 109,
      "chip": "ym2612"
    },
    {
      "channel": 4,
      "note": 74,
      "start": 8.8287,
      "duration": 1.571,
      "velocity": 109,
      "chip": "ym2612"
    },
    {
      "channel": 0,
      "note": 50,
      "start": 9.0787,
      "duration": 0.0553,
      "velocity": 112,
      "chip": "ym2612"
    },
    {
      "channel": 0,
      "note": 57,
      "start": 9.1342,
      "duration": 0.1999,
      "velocity": 112,
      "chip": "ym2612"
    },
    {
      "channel": 0,
      "note": 50,
      "start": 9.3343,
      "duration": 0.2554,
      "velocity": 112,
      "chip": "ym2612"
    },
    {
      "channel": 1,
      "note": 76,
      "start": 9.335,
      "duration": 0.4757,
      "velocity": 103,
      "chip": "ym2612"
    },
    {
      "channel": 0,
      "note": 50,
      "start": 9.5899,
      "duration": 0.02,
      "velocity": 112,
      "chip": "ym2612"
    },
    {
      "channel": 0,
      "note": 57,
      "start": 9.6101,
      "duration": 0.1999,
      "velocity": 112,
      "chip": "ym2612"
    },
    {
      "channel": 0,
      "note": 50,
      "start": 9.8102,
      "duration": 0.2554,
      "velocity": 112,
      "chip": "ym2612"
    },
    {
      "channel": 1,
      "note": 74,
      "start": 9.8109,
      "duration": 0.511,
      "velocity": 103,
      "chip": "ym2612"
    },
    {
      "channel": 0,
      "note": 50,
      "start": 10.0658,
      "duration": 0.0553,
      "velocity": 112,
      "chip": "ym2612"
    },
    {
      "channel": 0,
      "note": 57,
      "start": 10.1213,
      "duration": 0.1999,
      "velocity": 112,
      "chip": "ym2612"
    },
    {
      "channel": 0,
      "note": 50,
      "start": 10.3214,
      "duration": 0.0559,
      "velocity": 112,
      "chip": "ym2612"
    },
    {
      "channel": 1,
      "note": 69,
      "start": 10.3221,
      "duration": 0.0764,
      "velocity": 103,
      "chip": "ym2612"
    },
    {
      "channel": 0,
      "note": 50,
      "start": 10.3775,
      "duration": 0.0196,
      "velocity": 112,
      "chip": "ym2612"
    },
    {
      "channel": 0,
      "note": 57,
      "start": 10.3973,
      "duration": 0.0009,
      "velocity": 112,
      "chip": "ym2612"
    },
    {
      "channel": 0,
      "note": 55,
      "start": 10.3983,
      "duration": 0.252,
      "velocity": 112,
      "chip": "ym2612"
    },
    {
      "channel": 1,
      "note": 71,
      "start": 10.3987,
      "duration": 0.508,
      "velocity": 103,
      "chip": "ym2612"
    },
    {
      "channel": 2,
      "note": 81,
      "start": 10.3991,
      "duration": 0.5083,
      "velocity": 109,
      "chip": "ym2612"
    },
    {
      "channel": 3,
      "note": 79,
      "start": 10.3995,
      "duration": 0.9846,
      "velocity": 109,
      "chip": "ym2612"
    },
    {
      "channel": 4,
      "note": 74,
      "start": 10.4001,
      "duration": 0.9847,
      "velocity": 109,
      "chip": "ym2612"
    },
    {
      "channel": 0,
      "note": 55,
      "start": 10.6506,
      "duration": 0.0553,
      "velocity": 112,
      "chip": "ym2612"
    },
    {
      "channel": 0,
      "note": 50,
      "start": 10.7061,
      "duration": 0.1999,
      "velocity": 112,
      "chip": "ym2612"
    },
    {
      "channel": 0,
      "note": 55,
      "start": 10.9062,
      "duration": 0.2554,
      "velocity": 112,
      "chip": "ym2612"
    },
    {
      "channel": 1,
      "note": 69,
      "start": 10.9069,
      "duration": 0.4758,
      "velocity": 103,
      "chip": "ym2612"
    },
    {
      "channel": 2,
      "note": 83,
      "start": 10.9076,
      "duration": 0.4758,
      "velocity": 109,
      "chip": "ym2612"
    },
    {
      "channel": 0,
      "note": 55,
      "start": 11.1618,
      "duration": 0.02,
      "velocity": 112,
      "chip": "ym2612"
    },
    {
      "channel": 0,
      "note": 50,
      "start": 11.182,
      "duration": 0.2,
      "velocity": 112,
      "chip": "ym2612"
    },
    {
      "channel": 0,
      "note": 55,
      "start": 11.3822,
      "duration": 0.2553,
      "velocity": 112,
      "chip": "ym2612"
    },
    {
      "channel": 1,
      "note": 71,
      "start": 11.3829,
      "duration": 0.3116,
      "velocity": 103,
      "chip": "ym2612"
    },
    {
      "channel": 2,
      "note": 86,
      "start": 11.3836,
      "duration": 0.3113,
      "velocity": 109,
      "chip": "ym2612"
    },
    {
      "channel": 3,
      "note": 83,
      "start": 11.3843,
      "duration": 0.311,
      "velocity": 109,
      "chip": "ym2612"
    },
    {
      "channel": 4,
      "note": 79,
      "start": 11.385,
      "duration": 0.3107,
      "velocity": 109,
      "chip": "ym2612"
    },
    {
      "channel": 0,
      "note": 55,
      "start": 11.6376,
      "duration": 0.0554,
      "velocity": 112,
      "chip": "ym2612"
    },
    {
      "channel": 0,
      "note": 50,
      "start": 11.6932,
      "duration": 0.0009,
      "velocity": 112,
      "chip": "ym2612"
    },
    {
      "channel": 0,
      "note": 55,
      "start": 11.6943,
      "duration": 0.0525,
      "velocity": 112,
      "chip": "ym2612"
    },
    {
      "channel": 1,
      "note": 74,
      "start": 11.6947,
      "duration": 0.0734,
      "velocity": 103,
      "chip": "ym2612"
    },
    {
      "channel": 2,
      "note": 83,
      "start": 11.6951,
      "duration": 0.0733,
      "velocity": 109,
      "chip": "ym2612"
    },
    {
      "channel": 3,
      "note": 79,
      "start": 11.6955,
      "duration": 0.0732,
      "velocity": 109,
      "chip": "ym2612"
    },
    {
      "channel": 4,
      "note": 76,
      "start": 11.6961,
      "duration": 0.0732,
      "velocity": 109,
      "chip": "ym2612"
    },
    {
      "channel": 0,
      "note": 55,
      "start": 11.747,
      "duration": 0.0196,
      "velocity": 112,
      "chip": "ym2612"
    },
    {
      "channel": 0,
      "note": 57,
      "start": 11.7668,
      "duration": 0.0009,
      "velocity": 112,
      "chip": "ym2612"
    },
    {
      "channel": 0,
      "note": 50,
      "start": 11.768,
      "duration": 0.2514,
      "velocity": 112,
      "chip": "ym2612"
    },
    {
      "channel": 1,
      "note": 74,
      "start": 11.7682,
      "duration": 0.5073,
      "velocity": 103,
      "chip": "ym2612"
    },
    {
      "channel": 2,
      "note": 78,
      "start": 11.7686,
      "duration": 1.5712,
      "velocity": 109,
      "chip": "ym2612"
    },
    {
      "channel": 3,
      "note": 81,
      "start": 11.7689,
      "duration": 1.5713,
      "velocity": 109,
      "chip": "ym2612"
    },
    {
      "channel": 4,
      "note": 74,
      "start": 11.7695,
      "duration": 1.5711,
      "velocity": 109,
      "chip": "ym2612"
    },
    {
      "channel": 0,
      "note": 50,
      "start": 12.0195,
      "duration": 0.0553,
      "velocity": 112,
      "chip": "ym2612"
    },
    {
      "channel": 0,
      "note": 57,
      "start": 12.075,
      "duration": 0.1999,
      "velocity": 112,
      "chip": "ym2612"
    },
    {
      "channel": 0,
      "note": 50,
      "start": 12.2751,
      "duration": 0.2554,
      "velocity": 112,
      "chip": "ym2612"
    },
    {
      "channel": 1,
      "note": 76,
      "start": 12.2758,
      "duration": 0.4757,
      "velocity": 103,
      "chip": "ym2612"
    },
    {
      "channel": 0,
      "note": 50,
      "start": 12.5307,
      "duration": 0.02,
      "velocity": 112,
      "chip": "ym2612"
    },
    {
      "channel": 0,
      "note": 57,
      "start": 12.5509,
      "duration": 0.1999,
      "velocity": 112,
      "chip": "ym2612"
    },
    {
      "channel": 0,
      "note": 54,
      "start": 12.751,
      "duration": 0.2554,
      "velocity": 112,
      "chip": "ym2612"
    },
    {
      "channel": 1,
      "note": 74,
      "start": 12.7517,
      "duration": 0.5674,
      "velocity": 103,
      "chip": "ym2612"
    },
    {
      "channel": 0,
      "note": 54,
      "start": 13.0066,
      "duration": 0.0553,
      "velocity": 112,
      "chip": "ym2612"
    },
    {
      "channel": 0,
      "note": 57,
      "start": 13.0621,
      "duration": 0.1999,
      "velocity": 112,
      "chip": "ym2612"
    },
    {
      "channel": 0,
      "note": 54,
      "start": 13.2622,
      "duration": 0.0559,
      "velocity": 112,
      "chip": "ym2612"
    },
    {
      "channel": 0,
      "note": 54,
      "start": 13.3183,
      "duration": 0.0195,
      "velocity": 112,
      "chip": "ym2612"
    },
    {
      "channel": 1,
      "note": 81,
      "start": 13.3194,
      "duration": 0.02,
      "velocity": 103,
      "chip": "ym2612"
    },
    {
      "channel": 0,
      "note": 57,
      "start": 13.3381,
      "duration": 0.0009,
      "velocity": 112,
      "chip": "ym2612"
    },
    {
      "channel": 0,
      "note": 55,
      "start": 13.3392,
      "duration": 0.2521,
      "velocity": 112,
      "chip": "ym2612"
    },
    {
      "channel": 1,
      "note": 81,
      "start": 13.3395,
      "duration": 0.508,
      "velocity": 103,
      "chip": "ym2612"
    },
    {
      "channel": 2,
      "note": 81,
      "start": 13.34,
      "duration": 0.5083,
      "velocity": 109,
      "chip": "ym2612"
    },
    {
      "channel": 3,
      "note": 79,
      "start": 13.3404,
      "duration": 0.9845,
      "velocity": 109,
      "chip": "ym2612"
    },
    {
      "channel": 4,
      "note": 74,
      "start": 13.3409,
      "duration": 0.9847,
      "velocity": 109,
      "chip": "ym2612"
    },
    {
      "channel": 0,
      "note": 55,
      "start": 13.5914,
      "duration": 0.0553,
      "velocity": 112,
      "chip": "ym2612"
    },
    {
      "channel": 0,
      "note": 50,
      "start": 13.6469,
      "duration": 0.1999,
      "velocity": 112,
      "chip": "ym2612"
    },
    {
      "channel": 0,
      "note": 55,
      "start": 13.8471,
      "duration": 0.2554,
      "velocity": 112,
      "chip": "ym2612"
    },
    {
      "channel": 1,
      "note": 79,
      "start": 13.8478,
      "duration": 0.4758,
      "velocity": 103,
      "chip": "ym2612"
    },
    {
      "channel": 2,
      "note": 83,
      "start": 13.8485,
      "duration": 0.4758,
      "velocity": 109,
      "chip": "ym2612"
    },
    {
      "channel": 0,
      "note": 55,
      "start": 14.1026,
      "duration": 0.02,
      "velocity": 112,
      "chip": "ym2612"
    },
    {
      "channel": 0,
      "note": 50,
      "start": 14.1228,
      "duration": 0.2,
      "velocity": 112,
      "chip": "ym2612"
    },
    {
      "channel": 0,
      "note": 55,
      "start": 14.323,
      "duration": 0.2553,
      "velocity": 112,
      "chip": "ym2612"
    },
    {
      "channel": 1,
      "note": 78,
      "start": 14.3237,
      "duration": 0.3116,
      "velocity": 103,
      "chip": "ym2612"
    },
    {
      "channel": 2,
      "note": 86,
      "start": 14.3244,
      "duration": 0.3113,
      "velocity": 109,
      "chip": "ym2612"
    },
    {
      "channel": 3,
      "note": 83,
      "start": 14.3251,
      "duration": 0.311,
      "velocity": 109,
      "chip": "ym2612"
    },
    {
      "channel": 4,
      "note": 79,
      "start": 14.3258,
      "duration": 0.3107,
      "velocity": 109,
      "chip": "ym2612"
    },
    {
      "channel": 0,
      "note": 55,
      "start": 14.5785,
      "duration": 0.0554,
      "velocity": 112,
      "chip": "ym2612"
    },
    {
      "channel": 0,
      "note": 50,
      "start": 14.6341,
      "duration": 0.0009,
      "velocity": 112,
      "chip": "ym2612"
    },
    {
      "channel": 0,
      "note": 57,
      "start": 14.6351,
      "duration": 0.0525,
      "velocity": 112,
      "chip": "ym2612"
    },
    {
      "channel": 1,
      "note": 76,
      "start": 14.6355,
      "duration": 0.0733,
      "velocity": 103,
      "chip": "ym2612"
    },
    {
      "channel": 2,
      "note": 83,
      "start": 14.6359,
      "duration": 0.0733,
      "velocity": 109,
      "chip": "ym2612"
    },
    {
      "channel": 3,
      "note": 79,
      "start": 14.6363,
      "duration": 0.0733,
      "velocity": 109,
      "chip": "ym2612"
    },
    {
      "channel": 4,
      "note": 76,
      "start": 14.6369,
      "duration": 0.0732,
      "velocity": 109,
      "chip": "ym2612"
    },
    {
      "channel": 0,
      "note": 57,
      "start": 14.6878,
      "duration": 0.0196,
      "velocity": 112,
      "chip": "ym2612"
    },
    {
      "channel": 0,
      "note": 45,
      "start": 14.7076,
      "duration": 0.0009,
      "velocity": 112,
      "chip": "ym2612"
    },
    {
      "channel": 0,
      "note": 54,
      "start": 14.7087,
      "duration": 0.2513,
      "velocity": 112,
      "chip": "ym2612"
    },
    {
      "channel": 1,
      "note": 79,
      "start": 14.709,
      "duration": 0.5073,
      "velocity": 103,
      "chip": "ym2612"
    },
    {
      "channel": 2,
      "note": 86,
      "start": 14.7094,
      "duration": 0.9836,
      "velocity": 109,
      "chip": "ym2612"
    },
    {
      "channel": 3,
      "note": 81,
      "start": 14.7098,
      "duration": 0.984,
      "velocity": 109,
      "chip": "ym2612"
    },
    {
      "channel": 4,
      "note": 78,
      "start": 14.7105,
      "duration": 0.984,
      "velocity": 109,
      "chip": "ym2612"
    },
    {
      "channel": 0,
      "note": 54,
      "start": 14.9602,
      "duration": 0.0553,
      "velocity": 112,
      "chip": "ym2612"
    },
    {
      "channel": 0,
      "note": 50,
      "start": 15.0157,
      "duration": 0.1999,
      "velocity": 112,
      "chip": "ym2612"
    },
    {
      "channel": 0,
      "note": 54,
      "start": 15.2158,
      "duration": 0.2554,
      "velocity": 112,
      "chip": "ym2612"
    },
    {
      "channel": 1,
      "note": 78,
      "start": 15.2165,
      "duration": 0.4758,
      "velocity": 103,
      "chip": "ym2612"
    },
    {
      "channel": 0,
      "note": 54,
      "start": 15.4714,
      "duration": 0.02,
      "velocity": 112,
      "chip": "ym2612"
    },
    {
      "channel": 0,
      "note": 50,
      "start": 15.4916,
      "duration": 0.2,
      "velocity": 112,
      "chip": "ym2612"
    },
    {
      "channel": 0,
      "note": 47,
      "start": 15.6918,
      "duration": 0.2553,
      "velocity": 112,
      "chip": "ym2612"
    },
    {
      "channel": 1,
      "note": 74,
      "start": 15.6925,
      "duration": 0.5672,
      "velocity": 103,
      "chip": "ym2612"
    },
    {
      "channel": 2,
      "note": 81,
      "start": 15.6932,
      "duration": 0.5873,
      "velocity": 109,
      "chip": "ym2612"
    },
    {
      "channel": 3,
      "note": 78,
      "start": 15.6939,
      "duration": 0.587,
      "velocity": 109,
      "chip": "ym2612"
    },
    {
      "channel": 4,
      "note": 74,
      "start": 15.6946,
      "duration": 0.5867,
      "velocity": 109,
      "chip": "ym2612"
    },
    {
      "channel": 0,
      "note": 47,
      "start": 15.9473,
      "duration": 0.0553,
      "velocity": 112,
      "chip": "ym2612"
    },
    {
      "channel": 0,
      "note": 54,
      "start": 16.0028,
      "duration": 0.1999,
      "velocity": 112,
      "chip": "ym2612"
    },
    {
      "channel": 0,
      "note": 47,
      "start": 16.2029,
      "duration": 0.0559,
      "velocity": 112,
      "chip": "ym2612"
    },
    {
      "channel": 0,
      "note": 47,
      "start": 16.259,
      "duration": 0.0195,
      "velocity": 112,
      "chip": "ym2612"
    },
    {
      "channel": 1,
      "note": 78,
      "start": 16.2601,
      "duration": 0.02,
      "velocity": 103,
      "chip": "ym2612"
    },
    {
      "channel": 0,
      "note": 54,
      "start": 16.2788,
      "duration": 0.0009,
      "velocity": 112,
      "chip": "ym2612"
    },
    {
      "channel": 0,
      "note": 57,
      "start": 16.2799,
      "duration": 0.2521,
      "velocity": 112,
      "chip": "ym2612"
    },
    {
      "channel": 1,
      "note": 76,
      "start": 16.2802,
      "duration": 1.3731,
      "velocity": 117,
      "chip": "ym2612"
    },
    {
      "channel": 2,
      "note": 86,
      "start": 16.2807,
      "duration": 0.9836,
      "velocity": 109,
      "chip": "ym2612"
    },
    {
      "channel": 3,
      "note": 81,
      "start": 16.2811,
      "duration": 0.9838,
      "velocity": 109,
      "chip": "ym2612"
    },
    {
      "channel": 4,
      "note": 76,
      "start": 16.2816,
      "duration": 0.984,
      "velocity": 109,
      "chip": "ym2612"
    },
    {
      "channel": 0,
      "note": 57,
      "start": 16.5321,
      "duration": 0.0553,
      "velocity": 112,
      "chip": "ym2612"
    },
    {
      "channel": 0,
      "note": 52,
      "start": 16.5876,
      "duration": 0.1999,
      "velocity": 112,
      "chip": "ym2612"
    },
    {
      "channel": 0,
      "note": 57,
      "start": 16.7877,
      "duration": 0.2554,
      "velocity": 112,
      "chip": "ym2612"
    },
    {
      "channel": 0,
      "note": 57,
      "start": 17.0433,
      "duration": 0.02,
      "velocity": 112,
      "chip": "ym2612"
    },
    {
      "channel": 0,
      "note": 52,
      "start": 17.0635,
      "duration": 0.1999,
      "velocity": 112,
      "chip": "ym2612"
    },
    {
      "channel": 0,
      "note": 45,
      "start": 17.2636,
      "duration": 0.2553,
      "velocity": 112,
      "chip": "ym2612"
    },
    {
      "channel": 2,
      "note": 85,
      "start": 17.2644,
      "duration": 0.4037,
      "velocity": 119,
      "chip": "ym2612"
    },
    {
      "channel": 3,
      "note": 81,
      "start": 17.2651,
      "duration": 0.3904,
      "velocity": 127,
      "chip": "ym2612"
    },
    {
      "channel": 4,
      "note": 76,
      "start": 17.2658,
      "duration": 0.3918,
      "velocity": 1,
      "chip": "ym2612"
    },
    {
      "channel": 0,
      "note": 45,
      "start": 17.5191,
      "duration": 0.0554,
      "velocity": 112,
      "chip": "ym2612"
    },
    {
      "channel": 0,
      "note": 52,
      "start": 17.5747,
      "duration": 0.001,
      "velocity": 112,
      "chip": "ym2612"
    },
    {
      "channel": 0,
      "note": 45,
      "start": 17.5759,
      "duration": 0.0546,
      "velocity": 112,
      "chip": "ym2612"
    },
    {
      "channel": 0,
      "note": 45,
      "start": 17.6307,
      "duration": 0.0196,
      "velocity": 112,
      "chip": "ym2612"
    },
    {
      "channel": 0,
      "note": 52,
      "start": 17.6504,
      "duration": 0.0009,
      "velocity": 112,
      "chip": "ym2612"
    },
    {
      "channel": 0,
      "note": 50,
      "start": 17.6516,
      "duration": 0.3311,
      "velocity": 112,
      "chip": "ym2612"
    },
    {
      "channel": 1,
      "note": 98,
      "start": 17.6536,
      "duration": 0.1625,
      "velocity": 117,
      "chip": "ym2612"
    },
    {
      "channel": 3,
      "note": 33,
      "start": 17.6557,
      "duration": 0.1612,
      "velocity": 127,
      "chip": "ym2612"
    },
    {
      "channel": 4,
      "note": 55,
      "start": 17.6577,
      "duration": 0.0131,
      "velocity": 119,
      "chip": "ym2612"
    },
    {
      "channel": 2,
      "note": 66,
      "start": 17.6683,
      "duration": 0.3153,
      "velocity": 119,
      "chip": "ym2612"
    },
    {
      "channel": 4,
      "note": 69,
      "start": 17.671,
      "duration": 0.3139,
      "velocity": 119,
      "chip": "ym2612"
    },
    {
      "channel": 1,
      "note": 93,
      "start": 17.8163,
      "duration": 0.2056,
      "velocity": 117,
      "chip": "ym2612"
    },
    {
      "channel": 3,
      "note": 69,
      "start": 17.8171,
      "duration": 0.1672,
      "velocity": 127,
      "chip": "ym2612"
    },
    {
      "channel": 5,
      "note": 83,
      "start": 17.8199,
      "duration": 1.2828,
      "velocity": 103,
      "chip": "ym2612"
    },
    {
      "channel": 0,
      "note": 50,
      "start": 17.9829,
      "duration": 0.2056,
      "velocity": 112,
      "chip": "ym2612"
    },
    {
      "channel": 2,
      "note": 66,
      "start": 17.9838,
      "duration": 0.2056,
      "velocity": 119,
      "chip": "ym2612"
    },
    {
      "channel": 3,
      "note": 74,
      "start": 17.9845,
      "duration": 0.0383,
      "velocity": 127,
      "chip": "ym2612"
    },
    {
      "channel": 4,
      "note": 69,
      "start": 17.9852,
      "duration": 0.205,
      "velocity": 119,
      "chip": "ym2612"
    },
    {
      "channel": 1,
      "note": 95,
      "start": 18.0221,
      "duration": 0.3339,
      "velocity": 117,
      "chip": "ym2612"
    },
    {
      "channel": 3,
      "note": 69,
      "start": 18.0229,
      "duration": 0.3345,
      "velocity": 127,
      "chip": "ym2612"
    },
    {
      "channel": 0,
      "note": 50,
      "start": 18.1887,
      "duration": 0.1666,
      "velocity": 112,
      "chip": "ym2612"
    },
    {
      "channel": 2,
      "note": 66,
      "start": 18.1895,
      "duration": 0.1672,
      "velocity": 119,
      "chip": "ym2612"
    },
    {
      "channel": 4,
      "note": 69,
      "start": 18.1903,
      "duration": 0.1678,
      "velocity": 119,
      "chip": "ym2612"
    },
    {
      "channel": 0,
      "note": 45,
      "start": 18.3555,
      "duration": 0.1953,
      "velocity": 112,
      "chip": "ym2612"
    },
    {
      "channel": 1,
      "note": 93,
      "start": 18.3562,
      "duration": 0.1954,
      "velocity": 117,
      "chip": "ym2612"
    },
    {
      "channel": 2,
      "note": 67,
      "start": 18.3569,
      "duration": 0.1954,
      "velocity": 119,
      "chip": "ym2612"
    },
    {
      "channel": 3,
      "note": 33,
      "start": 18.3576,
      "duration": 0.1954,
      "velocity": 127,
      "chip": "ym2612"
    },
    {
      "channel": 4,
      "note": 71,
      "start": 18.3583,
      "duration": 0.1954,
      "velocity": 119,
      "chip": "ym2612"
    },
    {
      "channel": 0,
      "note": 50,
      "start": 18.5511,
      "duration": 0.1721,
      "velocity": 112,
      "chip": "ym2612"
    },
    {
      "channel": 1,
      "note": 91,
      "start": 18.5518,
      "duration": 0.1491,
      "velocity": 117,
      "chip": "ym2612"
    },
    {
      "channel": 2,
      "note": 69,
      "start": 18.5525,
      "duration": 0.1736,
      "velocity": 119,
      "chip": "ym2612"
    },
    {
      "channel": 3,
      "note": 69,
      "start": 18.5532,
      "duration": 0.1485,
      "velocity": 127,
      "chip": "ym2612"
    },
    {
      "channel": 4,
      "note": 74,
      "start": 18.5539,
      "duration": 0.1735,
      "velocity": 119,
      "chip": "ym2612"
    },
    {
      "channel": 1,
      "note": 90,
      "start": 18.7011,
      "duration": 0.1906,
      "velocity": 1,
      "chip": "ym2612"
    },
    {
      "channel": 3,
      "note": 76,
      "start": 18.7019,
      "duration": 0.0248,
      "velocity": 127,
      "chip": "ym2612"
    },
    {
      "channel": 0,
      "note": 57,
      "start": 18.7234,
      "duration": 0.2056,
      "velocity": 112,
      "chip": "ym2612"
    },
    {
      "channel": 2,
      "note": 57,
      "start": 18.7262,
      "duration": 0.225,
      "velocity": 119,
      "chip": "ym2612"
    },
    {
      "channel": 3,
      "note": 69,
      "start": 18.7269,
      "duration": 0.2056,
      "velocity": 127,
      "chip": "ym2612"
    },
    {
      "channel": 4,
      "note": 62,
      "start": 18.7276,
      "duration": 0.2076,
      "velocity": 1,
      "chip": "ym2612"
    },
    {
      "channel": 1,
      "note": 91,
      "start": 18.892,
      "duration": 0.0396,
      "velocity": 117,
      "chip": "ym2612"
    },
    {
      "channel": 0,
      "note": 50,
      "start": 18.9292,
      "duration": 0.3386,
      "velocity": 112,
      "chip": "ym2612"
    },
    {
      "channel": 1,
      "note": 98,
      "start": 18.9318,
      "duration": 0.1693,
      "velocity": 117,
      "chip": "ym2612"
    },
    {
      "channel": 3,
      "note": 33,
      "start": 18.9327,
      "duration": 0.1692,
      "velocity": 127,
      "chip": "ym2612"
    },
    {
      "channel": 4,
      "note": 55,
      "start": 18.9354,
      "duration": 0.0186,
      "velocity": 119,
      "chip": "ym2612"
    },
    {
      "channel": 2,
      "note": 66,
      "start": 18.9515,
      "duration": 0.3171,
      "velocity": 119,
      "chip": "ym2612"
    },
    {
      "channel": 4,
      "note": 69,
      "start": 18.9542,
      "duration": 0.3158,
      "velocity": 119,
      "chip": "ym2612"
    },
    {
      "channel": 1,
      "note": 93,
      "start": 19.1014,
      "duration": 0.2222,
      "velocity": 117,
      "chip": "ym2612"
    },
    {
      "channel": 3,
      "note": 69,
      "start": 19.1021,
      "duration": 0.1672,
      "velocity": 127,
      "chip": "ym2612"
    },
    {
      "channel": 5,
      "note": 83,
      "start": 19.103,
      "duration": 1.3015,
      "velocity": 103,
      "chip": "ym2612"
    },
    {
      "channel": 0,
      "note": 50,
      "start": 19.268,
      "duration": 0.2056,
      "velocity": 112,
      "chip": "ym2612"
    },
    {
      "channel": 2,
      "note": 66,
      "start": 19.2688,
      "duration": 0.2056,
      "velocity": 119,
      "chip": "ym2612"
    },
    {
      "channel": 3,
      "note": 74,
      "start": 19.2695,
      "duration": 0.0549,
      "velocity": 127,
      "chip": "ym2612"
    },
    {
      "channel": 4,
      "note": 69,
      "start": 19.2702,
      "duration": 0.205,
      "velocity": 119,
      "chip": "ym2612"
    },
    {
      "channel": 1,
      "note": 95,
      "start": 19.3238,
      "duration": 0.3172,
      "velocity": 117,
      "chip": "ym2612"
    },
    {
      "channel": 3,
      "note": 69,
      "start": 19.3246,
      "duration": 0.3178,
      "velocity": 127,
      "chip": "ym2612"
    },
    {
      "channel": 0,
      "note": 50,
      "start": 19.4737,
      "duration": 0.1666,
      "velocity": 112,
      "chip": "ym2612"
    },
    {
      "channel": 2,
      "note": 66,
      "start": 19.4746,
      "duration": 0.1672,
      "velocity": 119,
      "chip": "ym2612"
    },
    {
      "channel": 4,
      "note": 69,
      "start": 19.4753,
      "duration": 0.1678,
      "velocity": 119,
      "chip": "ym2612"
    },
    {
      "channel": 0,
      "note": 45,
      "start": 19.6405,
      "duration": 0.1954,
      "velocity": 112,
      "chip": "ym2612"
    },
    {
      "channel": 1,
      "note": 93,
      "start": 19.6412,
      "duration": 0.1954,
      "velocity": 117,
      "chip": "ym2612"
    },
    {
      "channel": 2,
      "note": 67,
      "start": 19.6419,
      "duration": 0.1954,
      "velocity": 119,
      "chip": "ym2612"
    },
    {
      "channel": 3,
      "note": 33,
      "start": 19.6426,
      "duration": 0.1954,
      "velocity": 127,
      "chip": "ym2612"
    },
    {
      "channel": 4,
      "note": 71,
      "start": 19.6433,
      "duration": 0.1954,
      "velocity": 119,
      "chip": "ym2612"
    },
    {
      "channel": 0,
      "note": 50,
      "start": 19.8361,
      "duration": 0.1721,
      "velocity": 112,
      "chip": "ym2612"
    },
    {
      "channel": 1,
      "note": 91,
      "start": 19.8368,
      "duration": 0.1658,
      "velocity": 117,
      "chip": "ym2612"
    },
    {
      "channel": 2,
      "note": 69,
      "start": 19.8375,
      "duration": 0.1736,
      "velocity": 119,
      "chip": "ym2612"
    },
    {
      "channel": 3,
      "note": 69,
      "start": 19.8383,
      "duration": 0.1651,
      "velocity": 127,
      "chip": "ym2612"
    },
    {
      "channel": 4,
      "note": 74,
      "start": 19.839,
      "duration": 0.1735,
      "velocity": 119,
      "chip": "ym2612"
    },
    {
      "channel": 1,
      "note": 90,
      "start": 20.0028,
      "duration": 0.174,
      "velocity": 1,
      "chip": "ym2612"
    },
    {
      "channel": 3,
      "note": 76,
      "start": 20.0036,
      "duration": 0.0082,
      "velocity": 127,
      "chip": "ym2612"
    },
    {
      "channel": 0,
      "note": 57,
      "start": 20.0084,
      "duration": 0.2056,
      "velocity": 112,
      "chip": "ym2612"
    },
    {
      "channel": 2,
      "note": 57,
      "start": 20.0113,
      "duration": 0.2249,
      "velocity": 119,
      "chip": "ym2612"
    },
    {
      "channel": 3,
      "note": 69,
      "start": 20.012,
      "duration": 0.2055,
      "velocity": 127,
      "chip": "ym2612"
    },
    {
      "channel": 4,
      "note": 62,
      "start": 20.0127,
      "duration": 0.2075,
      "velocity": 1,
      "chip": "ym2612"
    },
    {
      "channel": 1,
      "note": 91,
      "start": 20.1771,
      "duration": 0.0395,
      "velocity": 117,
      "chip": "ym2612"
    },
    {
      "channel": 0,
      "note": 50,
      "start": 20.2142,
      "duration": 0.3386,
      "velocity": 112,
      "chip": "ym2612"
    },
    {
      "channel": 1,
      "note": 98,
      "start": 20.2168,
      "duration": 0.186,
      "velocity": 117,
      "chip": "ym2612"
    },
    {
      "channel": 3,
      "note": 33,
      "start": 20.2177,
      "duration": 0.1859,
      "velocity": 127,
      "chip": "ym2612"
    },
    {
      "channel": 4,
      "note": 55,
      "start": 20.2203,
      "duration": 0.0186,
      "velocity": 119,
      "chip": "ym2612"
    },
    {
      "channel": 2,
      "note": 66,
      "start": 20.2365,
      "duration": 0.3171,
      "velocity": 119,
      "chip": "ym2612"
    },
    {
      "channel": 4,
      "note": 69,
      "start": 20.2392,
      "duration": 0.3158,
      "velocity": 119,
      "chip": "ym2612"
    },
    {
      "channel": 1,
      "note": 93,
      "start": 20.403,
      "duration": 0.2056,
      "velocity": 117,
      "chip": "ym2612"
    },
    {
      "channel": 3,
      "note": 69,
      "start": 20.4038,
      "duration": 0.1505,
      "velocity": 127,
      "chip": "ym2612"
    },
    {
      "channel": 5,
      "note": 83,
      "start": 20.4047,
      "duration": 1.1152,
      "velocity": 103,
      "chip": "ym2612"
    },
    {
      "channel": 0,
      "note": 50,
      "start": 20.5529,
      "duration": 0.2056,
      "velocity": 112,
      "chip": "ym2612"
    },
    {
      "channel": 2,
      "note": 66,
      "start": 20.5538,
      "duration": 0.2056,
      "velocity": 119,
      "chip": "ym2612"
    },
    {
      "channel": 3,
      "note": 74,
      "start": 20.5545,
      "duration": 0.0549,
      "velocity": 127,
      "chip": "ym2612"
    },
    {
      "channel": 4,
      "note": 69,
      "start": 20.5552,
      "duration": 0.205,
      "velocity": 119,
      "chip": "ym2612"
    },
    {
      "channel": 1,
      "note": 95,
      "start": 20.6088,
      "duration": 0.3172,
      "velocity": 117,
      "chip": "ym2612"
    },
    {
      "channel": 3,
      "note": 69,
      "start": 20.6096,
      "duration": 0.3178,
      "velocity": 127,
      "chip": "ym2612"
    },
    {
      "channel": 0,
      "note": 50,
      "start": 20.7587,
      "duration": 0.1666,
      "velocity": 112,
      "chip": "ym2612"
    },
    {
      "channel": 2,
      "note": 66,
      "start": 20.7595,
      "duration": 0.1672,
      "velocity": 119,
      "chip": "ym2612"
    },
    {
      "channel": 4,
      "note": 69,
      "start": 20.7603,
      "duration": 0.1678,
      "velocity": 119,
      "chip": "ym2612"
    },
    {
      "channel": 0,
      "note": 45,
      "start": 20.9255,
      "duration": 0.1954,
      "velocity": 112,
      "chip": "ym2612"
    },
    {
      "channel": 1,
      "note": 93,
      "start": 20.9262,
      "duration": 0.1954,
      "velocity": 117,
      "chip": "ym2612"
    },
    {
      "channel": 2,
      "note": 67,
      "start": 20.9269,
      "duration": 0.1954,
      "velocity": 119,
      "chip": "ym2612"
    },
    {
      "channel": 3,
      "note": 33,
      "start": 20.9276,
      "duration": 0.1954,
      "velocity": 127,
      "chip": "ym2612"
    },
    {
      "channel": 4,
      "note": 71,
      "start": 20.9283,
      "duration": 0.1954,
      "velocity": 119,
      "chip": "ym2612"
    },
    {
      "channel": 0,
      "note": 50,
      "start": 21.1211,
      "duration": 0.1721,
      "velocity": 112,
      "chip": "ym2612"
    },
    {
      "channel": 1,
      "note": 91,
      "start": 21.1218,
      "duration": 0.1658,
      "velocity": 117,
      "chip": "ym2612"
    },
    {
      "channel": 2,
      "note": 69,
      "start": 21.1225,
      "duration": 0.1736,
      "velocity": 119,
      "chip": "ym2612"
    },
    {
      "channel": 3,
      "note": 69,
      "start": 21.1232,
      "duration": 0.1651,
      "velocity": 127,
      "chip": "ym2612"
    },
    {
      "channel": 4,
      "note": 74,
      "start": 21.1239,
      "duration": 0.1735,
      "velocity": 119,
      "chip": "ym2612"
    },
    {
      "channel": 1,
      "note": 90,
      "start": 21.2878,
      "duration": 0.174,
      "velocity": 1,
      "chip": "ym2612"
    },
    {
      "channel": 3,
      "note": 76,
      "start": 21.2886,
      "duration": 0.0082,
      "velocity": 127,
      "chip": "ym2612"
    },
    {
      "channel": 0,
      "note": 57,
      "start": 21.2934,
      "duration": 0.2223,
      "velocity": 112,
      "chip": "ym2612"
    },
    {
      "channel": 2,
      "note": 57,
      "start": 21.2962,
      "duration": 0.3717,
      "velocity": 119,
      "chip": "ym2612"
    },
    {
      "channel": 3,
      "note": 69,
      "start": 21.2969,
      "duration": 0.2222,
      "velocity": 127,
      "chip": "ym2612"
    },
    {
      "channel": 4,
      "note": 62,
      "start": 21.2976,
      "duration": 0.371,
      "velocity": 119,
      "chip": "ym2612"
    },
    {
      "channel": 1,
      "note": 91,
      "start": 21.462,
      "duration": 0.0563,
      "velocity": 117,
      "chip": "ym2612"
    },
    {
      "channel": 0,
      "note": 52,
      "start": 21.5159,
      "duration": 0.201,
      "velocity": 112,
      "chip": "ym2612"
    },
    {
      "channel": 1,
      "note": 93,
      "start": 21.5185,
      "duration": 0.1948,
      "velocity": 117,
      "chip": "ym2612"
    },
    {
      "channel": 3,
      "note": 33,
      "start": 21.5193,
      "duration": 0.1948,
      "velocity": 127,
      "chip": "ym2612"
    },
    {
      "channel": 5,
      "note": 73,
      "start": 21.5202,
      "duration": 0.5393,
      "velocity": 103,
      "chip": "ym2612"
    },
    {
      "channel": 2,
      "note": 69,
      "start": 21.6681,
      "duration": 0.0502,
      "velocity": 119,
      "chip": "ym2612"
    },
    {
      "channel": 4,
      "note": 64,
      "start": 21.6689,
      "duration": 0.0502,
      "velocity": 119,
      "chip": "ym2612"
    },
    {
      "channel": 1,
      "note": 93,
      "start": 21.7135,
      "duration": 0.0041,
      "velocity": 117,
      "chip": "ym2612"
    },
    {
      "channel": 3,
      "note": 79,
      "start": 21.7143,
      "duration": 0.1715,
      "velocity": 127,
      "chip": "ym2612"
    },
    {
      "channel": 0,
      "note": 54,
      "start": 21.7171,
      "duration": 0.1888,
      "velocity": 112,
      "chip": "ym2612"
    },
    {
      "channel": 1,
      "note": 91,
      "start": 21.7178,
      "duration": 0.1907,
      "velocity": 117,
      "chip": "ym2612"
    },
    {
      "channel": 2,
      "note": 69,
      "start": 21.7185,
      "duration": 0.1907,
      "velocity": 119,
      "chip": "ym2612"
    },
    {
      "channel": 4,
      "note": 64,
      "start": 21.7193,
      "duration": 0.1908,
      "velocity": 119,
      "chip": "ym2612"
    },
    {
      "channel": 3,
      "note": 33,
      "start": 21.8861,
      "duration": 0.172,
      "velocity": 127,
      "chip": "ym2612"
    },
    {
      "channel": 0,
      "note": 52,
      "start": 21.9061,
      "duration": 0.1499,
      "velocity": 112,
      "chip": "ym2612"
    },
    {
      "channel": 1,
      "note": 90,
      "start": 21.9088,
      "duration": 0.1479,
      "velocity": 117,
      "chip": "ym2612"
    },
    {
      "channel": 2,
      "note": 69,
      "start": 21.9094,
      "duration": 0.1479,
      "velocity": 119,
      "chip": "ym2612"
    },
    {
      "channel": 4,
      "note": 64,
      "start": 21.9102,
      "duration": 0.1485,
      "velocity": 119,
      "chip": "ym2612"
    },
    {
      "channel": 0,
      "note": 57,
      "start": 22.0561,
      "duration": 0.2056,
      "velocity": 112,
      "chip": "ym2612"
    },
    {
      "channel": 1,
      "note": 88,
      "start": 22.0568,
      "duration": 0.4311,
      "velocity": 109,
      "chip": "ym2612"
    },
    {
      "channel": 2,
      "note": 71,
      "start": 22.0575,
      "duration": 0.1651,
      "velocity": 119,
      "chip": "ym2612"
    },
    {
      "channel": 3,
      "note": 69,
      "start": 22.0582,
      "duration": 0.1651,
      "velocity": 127,
      "chip": "ym2612"
    },
    {
      "channel": 4,
      "note": 66,
      "start": 22.0589,
      "duration": 0.1652,
      "velocity": 119,
      "chip": "ym2612"
    },
    {
      "channel": 5,
      "note": 83,
      "start": 22.0597,
      "duration": 2.0506,
      "velocity": 127,
      "chip": "ym2612"
    },
    {
      "channel": 2,
      "note": 67,
      "start": 22.2229,
      "duration": 0.0396,
      "velocity": 119,
      "chip": "ym2612"
    },
    {
      "channel": 3,
      "note": 74,
      "start": 22.2236,
      "duration": 0.0396,
      "velocity": 127,
      "chip": "ym2612"
    },
    {
      "channel": 4,
      "note": 62,
      "start": 22.2243,
      "duration": 0.0396,
      "velocity": 119,
      "chip": "ym2612"
    },
    {
      "channel": 0,
      "note": 45,
      "start": 22.2619,
      "duration": 0.0512,
      "velocity": 112,
      "chip": "ym2612"
    },
    {
      "channel": 2,
      "note": 69,
      "start": 22.2627,
      "duration": 0.0041,
      "velocity": 119,
      "chip": "ym2612"
    },
    {
      "channel": 3,
      "note": 69,
      "start": 22.2634,
      "duration": 0.0037,
      "velocity": 127,
      "chip": "ym2612"
    },
    {
      "channel": 4,
      "note": 64,
      "start": 22.2641,
      "duration": 0.0034,
      "velocity": 119,
      "chip": "ym2612"
    },
    {
      "channel": 2,
      "note": 57,
      "start": 22.267,
      "duration": 0.2236,
      "velocity": 109,
      "chip": "ym2612"
    },
    {
      "channel": 3,
      "note": 33,
      "start": 22.2673,
      "duration": 0.0468,
      "velocity": 127,
      "chip": "ym2612"
    },
    {
      "channel": 4,
      "note": 61,
      "start": 22.2678,
      "duration": 0.2262,
      "velocity": 109,
      "chip": "ym2612"
    },
    {
      "channel": 0,
      "note": 55,
      "start": 22.3133,
      "duration": 0.172,
      "velocity": 112,
      "chip": "ym2612"
    },
    {
      "channel": 3,
      "note": 33,
      "start": 22.3143,
      "duration": 0.177,
      "velocity": 127,
      "chip": "ym2612"
    },
    {
      "channel": 0,
      "note": 67,
      "start": 22.4855,
      "duration": 0.0093,
      "velocity": 112,
      "chip": "ym2612"
    },
    {
      "channel": 1,
      "note": 83,
      "start": 22.4882,
      "duration": 0.0068,
      "velocity": 109,
      "chip": "ym2612"
    },
    {
      "channel": 2,
      "note": 79,
      "start": 22.4908,
      "duration": 0.0045,
      "velocity": 109,
      "chip": "ym2612"
    },
    {
      "channel": 3,
      "note": 69,
      "start": 22.4915,
      "duration": 0.004,
      "velocity": 127,
      "chip": "ym2612"
    },
    {
      "channel": 4,
      "note": 74,
      "start": 22.4941,
      "duration": 0.0017,
      "velocity": 109,
      "chip": "ym2612"
    },
    {
      "channel": 0,
      "note": 67,
      "start": 22.4949,
      "duration": 0.0617,
      "velocity": 112,
      "chip": "ym2612"
    },
    {
      "channel": 1,
      "note": 83,
      "start": 22.4952,
      "duration": 0.0621,
      "velocity": 109,
      "chip": "ym2612"
    },
    {
      "channel": 2,
      "note": 79,
      "start": 22.4954,
      "duration": 0.0625,
      "velocity": 109,
      "chip": "ym2612"
    },
    {
      "channel": 3,
      "note": 74,
      "start": 22.4957,
      "duration": 0.0024,
      "velocity": 127,
      "chip": "ym2612"
    },
    {
      "channel": 4,
      "note": 74,
      "start": 22.496,
      "duration": 0.0627,
      "velocity": 109,
      "chip": "ym2612"
    },
    {
      "channel": 3,
      "note": 69,
      "start": 22.4983,
      "duration": 0.0625,
      "velocity": 127,
      "chip": "ym2612"
    },
    {
      "channel": 0,
      "note": 67,
      "start": 22.5568,
      "duration": 0.0028,
      "velocity": 112,
      "chip": "ym2612"
    },
    {
      "channel": 1,
      "note": 83,
      "start": 22.5575,
      "duration": 0.0025,
      "velocity": 109,
      "chip": "ym2612"
    },
    {
      "channel": 2,
      "note": 79,
      "start": 22.5582,
      "duration": 0.0023,
      "velocity": 109,
      "chip": "ym2612"
    },
    {
      "channel": 4,
      "note": 74,
      "start": 22.559,
      "duration": 0.0023,
      "velocity": 109,
      "chip": "ym2612"
    },
    {
      "channel": 0,
      "note": 62,
      "start": 22.5598,
      "duration": 0.0763,
      "velocity": 112,
      "chip": "ym2612"
    },
    {
      "channel": 1,
      "note": 81,
      "start": 22.5602,
      "duration": 0.0766,
      "velocity": 109,
      "chip": "ym2612"
    },
    {
      "channel": 2,
      "note": 78,
      "start": 22.5606,
      "duration": 0.0769,
      "velocity": 109,
      "chip": "ym2612"
    },
    {
      "channel": 3,
      "note": 33,
      "start": 22.561,
      "duration": 0.0772,
      "velocity": 127,
      "chip": "ym2612"
    },
    {
      "channel": 4,
      "note": 74,
      "start": 22.5614,
      "duration": 0.0775,
      "velocity": 109,
      "chip": "ym2612"
    },
    {
      "channel": 0,
      "note": 67,
      "start": 22.6363,
      "duration": 0.0663,
      "velocity": 112,
      "chip": "ym2612"
    },
    {
      "channel": 1,
      "note": 83,
      "start": 22.637,
      "duration": 0.0663,
      "velocity": 109,
      "chip": "ym2612"
    },
    {
      "channel": 2,
      "note": 79,
      "start": 22.6377,
      "duration": 0.0663,
      "velocity": 109,
      "chip": "ym2612"
    },
    {
      "channel": 3,
      "note": 69,
      "start": 22.6384,
      "duration": 0.0029,
      "velocity": 127,
      "chip": "ym2612"
    },
    {
      "channel": 4,
      "note": 74,
      "start": 22.6391,
      "duration": 0.0663,
      "velocity": 109,
      "chip": "ym2612"
    },
    {
      "channel": 3,
      "note": 76,
      "start": 22.6415,
      "duration": 0.0632,
      "velocity": 127,
      "chip": "ym2612"
    },
    {
      "channel": 0,
      "note": 67,
      "start": 22.7028,
      "duration": 0.064,
      "velocity": 112,
      "chip": "ym2612"
    },
    {
      "channel": 1,
      "note": 83,
      "start": 22.7034,
      "duration": 0.2344,
      "velocity": 109,
      "chip": "ym2612"
    },
    {
      "channel": 2,
      "note": 79,
      "start": 22.7041,
      "duration": 0.2344,
      "velocity": 109,
      "chip": "ym2612"
    },
    {
      "channel": 3,
      "note": 69,
      "start": 22.7049,
      "duration": 0.0627,
      "velocity": 127,
      "chip": "ym2612"
    },
    {
      "channel": 4,
      "note": 74,
      "start": 22.7056,
      "duration": 0.2344,
      "velocity": 109,
      "chip": "ym2612"
    },
    {
      "channel": 0,
      "note": 55,
      "start": 22.7669,
      "duration": 0.1702,
      "velocity": 112,
      "chip": "ym2612"
    },
    {
      "channel": 3,
      "note": 33,
      "start": 22.7678,
      "duration": 0.1714,
      "velocity": 127,
      "chip": "ym2612"
    },
    {
      "channel": 0,
      "note": 67,
      "start": 22.9373,
      "duration": 0.0034,
      "velocity": 112,
      "chip": "ym2612"
    },
    {
      "channel": 1,
      "note": 83,
      "start": 22.938,
      "duration": 0.0031,
      "velocity": 109,
      "chip": "ym2612"
    },
    {
      "channel": 2,
      "note": 79,
      "start": 22.9387,
      "duration": 0.0028,
      "velocity": 109,
      "chip": "ym2612"
    },
    {
      "channel": 3,
      "note": 79,
      "start": 22.9394,
      "duration": 0.005,
      "velocity": 127,
      "chip": "ym2612"
    },
    {
      "channel": 4,
      "note": 74,
      "start": 22.9401,
      "duration": 0.0017,
      "velocity": 109,
      "chip": "ym2612"
    },
    {
      "channel": 0,
      "note": 67,
      "start": 22.9409,
      "duration": 0.0631,
      "velocity": 112,
      "chip": "ym2612"
    },
    {
      "channel": 1,
      "note": 83,
      "start": 22.9413,
      "duration": 0.0634,
      "velocity": 109,
      "chip": "ym2612"
    },
    {
      "channel": 2,
      "note": 79,
      "start": 22.9417,
      "duration": 0.0637,
      "velocity": 109,
      "chip": "ym2612"
    },
    {
      "channel": 4,
      "note": 74,
      "start": 22.9421,
      "duration": 0.064,
      "velocity": 109,
      "chip": "ym2612"
    },
    {
      "channel": 3,
      "note": 33,
      "start": 22.9446,
      "duration": 0.063,
      "velocity": 127,
      "chip": "ym2612"
    },
    {
      "channel": 0,
      "note": 67,
      "start": 23.0042,
      "duration": 0.0028,
      "velocity": 112,
      "chip": "ym2612"
    },
    {
      "channel": 1,
      "note": 83,
      "start": 23.0049,
      "duration": 0.0023,
      "velocity": 109,
      "chip": "ym2612"
    },
    {
      "channel": 2,
      "note": 79,
      "start": 23.0056,
      "duration": 0.0019,
      "velocity": 109,
      "chip": "ym2612"
    },
    {
      "channel": 4,
      "note": 74,
      "start": 23.0064,
      "duration": 0.0016,
      "velocity": 109,
      "chip": "ym2612"
    },
    {
      "channel": 0,
      "note": 62,
      "start": 23.0071,
      "duration": 0.0589,
      "velocity": 112,
      "chip": "ym2612"
    },
    {
      "channel": 1,
      "note": 86,
      "start": 23.0073,
      "duration": 0.0594,
      "velocity": 109,
      "chip": "ym2612"
    },
    {
      "channel": 2,
      "note": 83,
      "start": 23.0076,
      "duration": 0.0598,
      "velocity": 109,
      "chip": "ym2612"
    },
    {
      "channel": 3,
      "note": 69,
      "start": 23.0078,
      "duration": 0.0007,
      "velocity": 127,
      "chip": "ym2612"
    },
    {
      "channel": 4,
      "note": 79,
      "start": 23.0081,
      "duration": 0.0607,
      "velocity": 109,
      "chip": "ym2612"
    },
    {
      "channel": 3,
      "note": 74,
      "start": 23.0088,
      "duration": 0.0594,
      "velocity": 127,
      "chip": "ym2612"
    },
    {
      "channel": 0,
      "note": 67,
      "start": 23.0662,
      "duration": 0.066,
      "velocity": 112,
      "chip": "ym2612"
    },
    {
      "channel": 1,
      "note": 85,
      "start": 23.0669,
      "duration": 0.0661,
      "velocity": 109,
      "chip": "ym2612"
    },
    {
      "channel": 2,
      "note": 81,
      "start": 23.0676,
      "duration": 0.0661,
      "velocity": 109,
      "chip": "ym2612"
    },
    {
      "channel": 3,
      "note": 69,
      "start": 23.0683,
      "duration": 0.0661,
      "velocity": 127,
      "chip": "ym2612"
    },
    {
      "channel": 4,
      "note": 76,
      "start": 23.069,
      "duration": 0.0661,
      "velocity": 109,
      "chip": "ym2612"
    },
    {
      "channel": 0,
      "note": 67,
      "start": 23.1324,
      "duration": 0.0048,
      "velocity": 1,
      "chip": "ym2612"
    },
    {
      "channel": 1,
      "note": 83,
      "start": 23.1331,
      "duration": 0.2342,
      "velocity": 109,
      "chip": "ym2612"
    },
    {
      "channel": 2,
      "note": 79,
      "start": 23.1338,
      "duration": 0.2343,
      "velocity": 109,
      "chip": "ym2612"
    },
    {
      "channel": 3,
      "note": 33,
      "start": 23.1345,
      "duration": 0.0627,
      "velocity": 127,
      "chip": "ym2612"
    },
    {
      "channel": 4,
      "note": 74,
      "start": 23.1352,
      "duration": 0.2343,
      "velocity": 109,
      "chip": "ym2612"
    },
    {
      "channel": 0,
      "note": 67,
      "start": 23.1373,
      "duration": 0.0589,
      "velocity": 112,
      "chip": "ym2612"
    },
    {
      "channel": 0,
      "note": 55,
      "start": 23.1965,
      "duration": 0.1701,
      "velocity": 112,
      "chip": "ym2612"
    },
    {
      "channel": 3,
      "note": 33,
      "start": 23.1974,
      "duration": 0.1714,
      "velocity": 127,
      "chip": "ym2612"
    },
    {
      "channel": 0,
      "note": 67,
      "start": 23.3668,
      "duration": 0.0036,
      "velocity": 112,
      "chip": "ym2612"
    },
    {
      "channel": 1,
      "note": 83,
      "start": 23.3675,
      "duration": 0.0031,
      "velocity": 109,
      "chip": "ym2612"
    },
    {
      "channel": 2,
      "note": 79,
      "start": 23.3683,
      "duration": 0.0027,
      "velocity": 109,
      "chip": "ym2612"
    },
    {
      "channel": 3,
      "note": 69,
      "start": 23.369,
      "duration": 0.0022,
      "velocity": 127,
      "chip": "ym2612"
    },
    {
      "channel": 4,
      "note": 74,
      "start": 23.3698,
      "duration": 0.0023,
      "velocity": 109,
      "chip": "ym2612"
    },
    {
      "channel": 0,
      "note": 67,
      "start": 23.3705,
      "duration": 0.063,
      "velocity": 112,
      "chip": "ym2612"
    },
    {
      "channel": 1,
      "note": 83,
      "start": 23.3708,
      "duration": 0.0634,
      "velocity": 109,
      "chip": "ym2612"
    },
    {
      "channel": 2,
      "note": 79,
      "start": 23.3711,
      "duration": 0.0639,
      "velocity": 109,
      "chip": "ym2612"
    },
    {
      "channel": 3,
      "note": 74,
      "start": 23.3713,
      "duration": 0.0037,
      "velocity": 127,
      "chip": "ym2612"
    },
    {
      "channel": 4,
      "note": 74,
      "start": 23.3724,
      "duration": 0.0633,
      "velocity": 109,
      "chip": "ym2612"
    },
    {
      "channel": 3,
      "note": 69,
      "start": 23.3752,
      "duration": 0.0625,
      "velocity": 127,
      "chip": "ym2612"
    },
    {
      "channel": 0,
      "note": 67,
      "start": 23.4337,
      "duration": 0.0028,
      "velocity": 112,
      "chip": "ym2612"
    },
    {
      "channel": 1,
      "note": 83,
      "start": 23.4344,
      "duration": 0.0025,
      "velocity": 109,
      "chip": "ym2612"
    },
    {
      "channel": 2,
      "note": 79,
      "start": 23.4351,
      "duration": 0.0022,
      "velocity": 109,
      "chip": "ym2612"
    },
    {
      "channel": 4,
      "note": 74,
      "start": 23.436,
      "duration": 0.0021,
      "velocity": 109,
      "chip": "ym2612"
    },
    {
      "channel": 0,
      "note": 62,
      "start": 23.4367,
      "duration": 0.0595,
      "velocity": 112,
      "chip": "ym2612"
    },
    {
      "channel": 1,
      "note": 81,
      "start": 23.4371,
      "duration": 0.0598,
      "velocity": 109,
      "chip": "ym2612"
    },
    {
      "channel": 2,
      "note": 78,
      "start": 23.4375,
      "duration": 0.0601,
      "velocity": 109,
      "chip": "ym2612"
    },
    {
      "channel": 3,
      "note": 33,
      "start": 23.4378,
      "duration": 0.0605,
      "velocity": 127,
      "chip": "ym2612"
    },
    {
      "channel": 4,
      "note": 74,
      "start": 23.4383,
      "duration": 0.0608,
      "velocity": 109,
      "chip": "ym2612"
    },
    {
      "channel": 0,
      "note": 67,
      "start": 23.4964,
      "duration": 0.0666,
      "velocity": 112,
      "chip": "ym2612"
    },
    {
      "channel": 1,
      "note": 83,
      "start": 23.4971,
      "duration": 0.0666,
      "velocity": 109,
      "chip": "ym2612"
    },
    {
      "channel": 2,
      "note": 79,
      "start": 23.4978,
      "duration": 0.0666,
      "velocity": 109,
      "chip": "ym2612"
    },
    {
      "channel": 3,
      "note": 69,
      "start": 23.4985,
      "duration": 0.0032,
      "velocity": 127,
      "chip": "ym2612"
    },
    {
      "channel": 4,
      "note": 74,
      "start": 23.4993,
      "duration": 0.0665,
      "velocity": 109,
      "chip": "ym2612"
    },
    {
      "channel": 3,
      "note": 76,
      "start": 23.5019,
      "duration": 0.0632,
      "velocity": 127,
      "chip": "ym2612"
    },
    {
      "channel": 0,
      "note": 67,
      "start": 23.5632,
      "duration": 0.0645,
      "velocity": 112,
      "chip": "ym2612"
    },
    {
      "channel": 1,
      "note": 83,
      "start": 23.5639,
      "duration": 0.2517,
      "velocity": 109,
      "chip": "ym2612"
    },
    {
      "channel": 2,
      "note": 79,
      "start": 23.5646,
      "duration": 0.2517,
      "velocity": 109,
      "chip": "ym2612"
    },
    {
      "channel": 3,
      "note": 69,
      "start": 23.5653,
      "duration": 0.0632,
      "velocity": 127,
      "chip": "ym2612"
    },
    {
      "channel": 4,
      "note": 74,
      "start": 23.566,
      "duration": 0.2517,
      "velocity": 109,
      "chip": "ym2612"
    },
    {
      "channel": 0,
      "note": 55,
      "start": 23.6279,
      "duration": 0.1869,
      "velocity": 112,
      "chip": "ym2612"
    },
    {
      "channel": 3,
      "note": 33,
      "start": 23.6288,
      "duration": 0.1882,
      "velocity": 127,
      "chip": "ym2612"
    },
    {
      "channel": 0,
      "note": 67,
      "start": 23.815,
      "duration": 0.0034,
      "velocity": 112,
      "chip": "ym2612"
    },
    {
      "channel": 1,
      "note": 83,
      "start": 23.8157,
      "duration": 0.0029,
      "velocity": 109,
      "chip": "ym2612"
    },
    {
      "channel": 2,
      "note": 79,
      "start": 23.8164,
      "duration": 0.0024,
      "velocity": 109,
      "chip": "ym2612"
    },
    {
      "channel": 3,
      "note": 79,
      "start": 23.8171,
      "duration": 0.0046,
      "velocity": 127,
      "chip": "ym2612"
    },
    {
      "channel": 4,
      "note": 74,
      "start": 23.8178,
      "duration": 0.0013,
      "velocity": 109,
      "chip": "ym2612"
    },
    {
      "channel": 0,
      "note": 67,
      "start": 23.8185,
      "duration": 0.0629,
      "velocity": 112,
      "chip": "ym2612"
    },
    {
      "channel": 1,
      "note": 83,
      "start": 23.8187,
      "duration": 0.0633,
      "velocity": 109,
      "chip": "ym2612"
    },
    {
      "channel": 2,
      "note": 79,
      "start": 23.8189,
      "duration": 0.0638,
      "velocity": 109,
      "chip": "ym2612"
    },
    {
      "channel": 4,
      "note": 74,
      "start": 23.8194,
      "duration": 0.0641,
      "velocity": 109,
      "chip": "ym2612"
    },
    {
      "channel": 3,
      "note": 33,
      "start": 23.8219,
      "duration": 0.0632,
      "velocity": 127,
      "chip": "ym2612"
    },
    {
      "channel": 0,
      "note": 67,
      "start": 23.8815,
      "duration": 0.0028,
      "velocity": 112,
      "chip": "ym2612"
    },
    {
      "channel": 1,
      "note": 83,
      "start": 23.8822,
      "duration": 0.0023,
      "velocity": 109,
      "chip": "ym2612"
    },
    {
      "channel": 2,
      "note": 79,
      "start": 23.8829,
      "duration": 0.0019,
      "velocity": 109,
      "chip": "ym2612"
    },
    {
      "channel": 4,
      "note": 74,
      "start": 23.8838,
      "duration": 0.0016,
      "velocity": 109,
      "chip": "ym2612"
    },
    {
      "channel": 0,
      "note": 62,
      "start": 23.8845,
      "duration": 0.059,
      "velocity": 112,
      "chip": "ym2612"
    },
    {
      "channel": 1,
      "note": 86,
      "start": 23.8847,
      "duration": 0.0595,
      "velocity": 109,
      "chip": "ym2612"
    },
    {
      "channel": 2,
      "note": 83,
      "start": 23.885,
      "duration": 0.0599,
      "velocity": 109,
      "chip": "ym2612"
    },
    {
      "channel": 3,
      "note": 69,
      "start": 23.8853,
      "duration": 0.0008,
      "velocity": 127,
      "chip": "ym2612"
    },
    {
      "channel": 4,
      "note": 79,
      "start": 23.8856,
      "duration": 0.0608,
      "velocity": 109,
      "chip": "ym2612"
    },
    {
      "channel": 3,
      "note": 74,
      "start": 23.8863,
      "duration": 0.0594,
      "velocity": 127,
      "chip": "ym2612"
    },
    {
      "channel": 0,
      "note": 67,
      "start": 23.9437,
      "duration": 0.0662,
      "velocity": 112,
      "chip": "ym2612"
    },
    {
      "channel": 1,
      "note": 85,
      "start": 23.9444,
      "duration": 0.0663,
      "velocity": 109,
      "chip": "ym2612"
    },
    {
      "channel": 2,
      "note": 81,
      "start": 23.9451,
      "duration": 0.0663,
      "velocity": 109,
      "chip": "ym2612"
    },
    {
      "channel": 3,
      "note": 69,
      "start": 23.9458,
      "duration": 0.0663,
      "velocity": 127,
      "chip": "ym2612"
    },
    {
      "channel": 4,
      "note": 76,
      "start": 23.9465,
      "duration": 0.0663,
      "velocity": 109,
      "chip": "ym2612"
    },
    {
      "channel": 0,
      "note": 67,
      "start": 24.0102,
      "duration": 0.0052,
      "velocity": 1,
      "chip": "ym2612"
    },
    {
      "channel": 1,
      "note": 83,
      "start": 24.0108,
      "duration": 0.0829,
      "velocity": 103,
      "chip": "ym2612"
    },
    {
      "channel": 2,
      "note": 79,
      "start": 24.0115,
      "duration": 0.0849,
      "velocity": 109,
      "chip": "ym2612"
    },
    {
      "channel": 3,
      "note": 33,
      "start": 24.0122,
      "duration": 0.0868,
      "velocity": 109,
      "chip": "ym2612"
    },
    {
      "channel": 4,
      "note": 74,
      "start": 24.0129,
      "duration": 0.0888,
      "velocity": 109,
      "chip": "ym2612"
    },
    {
      "channel": 0,
      "note": 67,
      "start": 24.0155,
      "duration": 0.0756,
      "velocity": 112,
      "chip": "ym2612"
    },
    {
      "channel": 0,
      "note": 50,
      "start": 24.0913,
      "duration": 0.1666,
      "velocity": 112,
      "chip": "ym2612"
    },
    {
      "channel": 1,
      "note": 78,
      "start": 24.094,
      "duration": 2.1504,
      "velocity": 103,
      "chip": "ym2612"
    },
    {
      "channel": 2,
      "note": 81,
      "start": 24.0966,
      "duration": 1.7973,
      "velocity": 109,
      "chip": "ym2612"
    },
    {
      "channel": 3,
      "note": 78,
      "start": 24.0993,
      "duration": 1.7953,
      "velocity": 109,
      "chip": "ym2612"
    },
    {
      "channel": 4,
      "note": 74,
      "start": 24.102,
      "duration": 1.7932,
      "velocity": 109,
      "chip": "ym2612"
    },
    {
      "channel": 5,
      "note": 55,
      "start": 24.1105,
      "duration": 0.6318,
      "velocity": 127,
      "chip": "ym2612"
    },
    {
      "channel": 0,
      "note": 50,
      "start": 24.2581,
      "duration": 0.4832,
      "velocity": 112,
      "chip": "ym2612"
    },
    {
      "channel": 0,
      "note": 45,
      "start": 24.7415,
      "duration": 0.1665,
      "velocity": 112,
      "chip": "ym2612"
    },
    {
      "channel": 5,
      "note": 55,
      "start": 24.7426,
      "duration": 0.2008,
      "velocity": 127,
      "chip": "ym2612"
    },
    {
      "channel": 0,
      "note": 47,
      "start": 24.9082,
      "duration": 0.0012,
      "velocity": 112,
      "chip": "ym2612"
    },
    {
      "channel": 0,
      "note": 50,
      "start": 24.9096,
      "duration": 0.1834,
      "velocity": 112,
      "chip": "ym2612"
    },
    {
      "channel": 5,
      "note": 55,
      "start": 24.9436,
      "duration": 0.6337,
      "velocity": 127,
      "chip": "ym2612"
    },
    {
      "channel": 0,
      "note": 50,
      "start": 25.0931,
      "duration": 0.1665,
      "velocity": 112,
      "chip": "ym2612"
    },
    {
      "channel": 0,
      "note": 62,
      "start": 25.2598,
      "duration": 0.3166,
      "velocity": 112,
      "chip": "ym2612"
    },
    {
      "channel": 0,
      "note": 57,
      "start": 25.5765,
      "duration": 0.1664,
      "velocity": 112,
      "chip": "ym2612"
    },
    {
      "channel": 5,
      "note": 55,
      "start": 25.5776,
      "duration": 0.3337,
      "velocity": 127,
      "chip": "ym2612"
    },
    {
      "channel": 0,
      "note": 59,
      "start": 25.7431,
      "duration": 0.1499,
      "velocity": 112,
      "chip": "ym2612"
    },
    {
      "channel": 0,
      "note": 47,
      "start": 25.8932,
      "duration": 0.1843,
      "velocity": 112,
      "chip": "ym2612"
    },
    {
      "channel": 2,
      "note": 83,
      "start": 25.8941,
      "duration": 1.8031,
      "velocity": 109,
      "chip": "ym2612"
    },
    {
      "channel": 3,
      "note": 78,
      "start": 25.8948,
      "duration": 1.8032,
      "velocity": 109,
      "chip": "ym2612"
    },
    {
      "channel": 4,
      "note": 74,
      "start": 25.8955,
      "duration": 1.8033,
      "velocity": 109,
      "chip": "ym2612"
    },
    {
      "channel": 5,
      "note": 55,
      "start": 25.9116,
      "duration": 0.6504,
      "velocity": 127,
      "chip": "ym2612"
    },
    {
      "channel": 0,
      "note": 47,
      "start": 26.0778,
      "duration": 0.4832,
      "velocity": 112,
      "chip": "ym2612"
    },
    {
      "channel": 1,
      "note": 78,
      "start": 26.2446,
      "duration": 0.4675,
      "velocity": 103,
      "chip": "ym2612"
    },
    {
      "channel": 0,
      "note": 54,
      "start": 26.5612,
      "duration": 0.1498,
      "velocity": 112,
      "chip": "ym2612"
    },
    {
      "channel": 5,
      "note": 55,
      "start": 26.5622,
      "duration": 0.1676,
      "velocity": 127,
      "chip": "ym2612"
    },
    {
      "channel": 0,
      "note": 57,
      "start": 26.7112,
      "duration": 0.0023,
      "velocity": 112,
      "chip": "ym2612"
    },
    {
      "channel": 1,
      "note": 79,
      "start": 26.7123,
      "duration": 0.3339,
      "velocity": 103,
      "chip": "ym2612"
    },
    {
      "channel": 0,
      "note": 47,
      "start": 26.7137,
      "duration": 0.1824,
      "velocity": 112,
      "chip": "ym2612"
    },
    {
      "channel": 5,
      "note": 55,
      "start": 26.7301,
      "duration": 0.651,
      "velocity": 127,
      "chip": "ym2612"
    },
    {
      "channel": 0,
      "note": 47,
      "start": 26.8963,
      "duration": 0.3165,
      "velocity": 112,
      "chip": "ym2612"
    },
    {
      "channel": 1,
      "note": 81,
      "start": 27.0464,
      "duration": 0.3338,
      "velocity": 103,
      "chip": "ym2612"
    },
    {
      "channel": 0,
      "note": 47,
      "start": 27.2129,
      "duration": 0.1666,
      "velocity": 112,
      "chip": "ym2612"
    },
    {
      "channel": 0,
      "note": 54,
      "start": 27.3797,
      "duration": 0.1498,
      "velocity": 112,
      "chip": "ym2612"
    },
    {
      "channel": 1,
      "note": 79,
      "start": 27.3804,
      "duration": 3.6059,
      "velocity": 103,
      "chip": "ym2612"
    },
    {
      "channel": 5,
      "note": 55,
      "start": 27.3814,
      "duration": 0.3332,
      "velocity": 127,
      "chip": "ym2612"
    },
    {
      "channel": 0,
      "note": 47,
      "start": 27.5296,
      "duration": 0.1667,
      "velocity": 112,
      "chip": "ym2612"
    },
    {
      "channel": 0,
      "note": 52,
      "start": 27.6965,
      "duration": 0.1842,
      "velocity": 112,
      "chip": "ym2612"
    },
    {
      "channel": 2,
      "note": 79,
      "start": 27.6974,
      "duration": 1.7859,
      "velocity": 109,
      "chip": "ym2612"
    },
    {
      "channel": 3,
      "note": 83,
      "start": 27.6982,
      "duration": 1.7859,
      "velocity": 109,
      "chip": "ym2612"
    },
    {
      "channel": 4,
      "note": 88,
      "start": 27.6989,
      "duration": 1.7858,
      "velocity": 109,
      "chip": "ym2612"
    },
    {
      "channel": 5,
      "note": 55,
      "start": 27.7148,
      "duration": 0.6337,
      "velocity": 127,
      "chip": "ym2612"
    },
    {
      "channel": 0,
      "note": 52,
      "start": 27.8809,
      "duration": 0.4666,
      "velocity": 112,
      "chip": "ym2612"
    },
    {
      "channel": 0,
      "note": 47,
      "start": 28.3476,
      "duration": 0.1665,
      "velocity": 112,
      "chip": "ym2612"
    },
    {
      "channel": 5,
      "note": 55,
      "start": 28.3487,
      "duration": 0.1841,
      "velocity": 127,
      "chip": "ym2612"
    },
    {
      "channel": 0,
      "note": 50,
      "start": 28.5143,
      "duration": 0.0012,
      "velocity": 112,
      "chip": "ym2612"
    },
    {
      "channel": 0,
      "note": 52,
      "start": 28.5157,
      "duration": 0.1667,
      "velocity": 112,
      "chip": "ym2612"
    },
    {
      "channel": 5,
      "note": 55,
      "start": 28.5331,
      "duration": 0.6337,
      "velocity": 127,
      "chip": "ym2612"
    },
    {
      "channel": 0,
      "note": 52,
      "start": 28.6825,
      "duration": 0.4832,
      "velocity": 112,
      "chip": "ym2612"
    },
    {
      "channel": 0,
      "note": 52,
      "start": 29.1659,
      "duration": 0.3165,
      "velocity": 112,
      "chip": "ym2612"
    },
    {
      "channel": 5,
      "note": 55,
      "start": 29.167,
      "duration": 0.3504,
      "velocity": 127,
      "chip": "ym2612"
    },
    {
      "channel": 0,
      "note": 48,
      "start": 29.4827,
      "duration": 0.1843,
      "velocity": 112,
      "chip": "ym2612"
    },
    {
      "channel": 2,
      "note": 88,
      "start": 29.4835,
      "duration": 1.8204,
      "velocity": 109,
      "chip": "ym2612"
    },
    {
      "channel": 3,
      "note": 84,
      "start": 29.4842,
      "duration": 1.8204,
      "velocity": 109,
      "chip": "ym2612"
    },
    {
      "channel": 4,
      "note": 79,
      "start": 29.4849,
      "duration": 1.8205,
      "velocity": 109,
      "chip": "ym2612"
    },
    {
      "channel": 5,
      "note": 55,
      "start": 29.5176,
      "duration": 0.6338,
      "velocity": 127,
      "chip": "ym2612"
    },
    {
      "channel": 0,
      "note": 48,
      "start": 29.6672,
      "duration": 0.4832,
      "velocity": 112,
      "chip": "ym2612"
    },
    {
      "channel": 0,
      "note": 55,
      "start": 30.1506,
      "duration": 0.1665,
      "velocity": 112,
      "chip": "ym2612"
    },
    {
      "channel": 5,
      "note": 55,
      "start": 30.1517,
      "duration": 0.1842,
      "velocity": 127,
      "chip": "ym2612"
    },
    {
      "channel": 0,
      "note": 57,
      "start": 30.3173,
      "duration": 0.0012,
      "velocity": 112,
      "chip": "ym2612"
    },
    {
      "channel": 0,
      "note": 48,
      "start": 30.3188,
      "duration": 0.5,
      "velocity": 112,
      "chip": "ym2612"
    },
    {
      "channel": 5,
      "note": 55,
      "start": 30.3361,
      "duration": 0.6511,
      "velocity": 127,
      "chip": "ym2612"
    },
    {
      "channel": 0,
      "note": 48,
      "start": 30.8189,
      "duration": 0.1666,
      "velocity": 112,
      "chip": "ym2612"
    },
    {
      "channel": 0,
      "note": 55,
      "start": 30.9857,
      "duration": 0.1498,
      "velocity": 112,
      "chip": "ym2612"
    },
    {
      "channel": 1,
      "note": 76,
      "start": 30.9864,
      "duration": 0.3167,
      "velocity": 103,
      "chip": "ym2612"
    },
    {
      "channel": 5,
      "note": 55,
      "start": 30.9875,
      "duration": 0.3331,
      "velocity": 127,
      "chip": "ym2612"
    },
    {
      "channel": 0,
      "note": 57,
      "start": 31.1356,
      "duration": 0.1667,
      "velocity": 112,
      "chip": "ym2612"
    },
    {
      "channel": 0,
      "note": 50,
      "start": 31.3025,
      "duration": 0.1842,
      "velocity": 112,
      "chip": "ym2612"
    },
    {
      "channel": 1,
      "note": 81,
      "start": 31.3033,
      "duration": 0.6675,
      "velocity": 103,
      "chip": "ym2612"
    },
    {
      "channel": 2,
      "note": 86,
      "start": 31.3041,
      "duration": 1.8022,
      "velocity": 109,
      "chip": "ym2612"
    },
    {
      "channel": 3,
      "note": 81,
      "start": 31.3048,
      "duration": 1.8022,
      "velocity": 109,
      "chip": "ym2612"
    },
    {
      "channel": 4,
      "note": 78,
      "start": 31.3056,
      "duration": 1.8021,
      "velocity": 109,
      "chip": "ym2612"
    },
    {
      "channel": 5,
      "note": 55,
      "start": 31.3208,
      "duration": 0.651,
      "velocity": 127,
      "chip": "ym2612"
    },
    {
      "channel": 0,
      "note": 50,
      "start": 31.4869,
      "duration": 0.4832,
      "velocity": 112,
      "chip": "ym2612"
    },
    {
      "channel": 0,
      "note": 45,
      "start": 31.9703,
      "duration": 0.1498,
      "velocity": 112,
      "chip": "ym2612"
    },
    {
      "channel": 1,
      "note": 78,
      "start": 31.971,
      "duration": 0.1498,
      "velocity": 103,
      "chip": "ym2612"
    },
    {
      "channel": 5,
      "note": 55,
      "start": 31.972,
      "duration": 0.1671,
      "velocity": 127,
      "chip": "ym2612"
    },
    {
      "channel": 0,
      "note": 47,
      "start": 32.1203,
      "duration": 0.0024,
      "velocity": 112,
      "chip": "ym2612"
    },
    {
      "channel": 1,
      "note": 76,
      "start": 32.121,
      "duration": 0.0009,
      "velocity": 103,
      "chip": "ym2612"
    },
    {
      "channel": 1,
      "note": 74,
      "start": 32.1221,
      "duration": 1.318,
      "velocity": 103,
      "chip": "ym2612"
    },
    {
      "channel": 0,
      "note": 50,
      "start": 32.1229,
      "duration": 0.3324,
      "velocity": 112,
      "chip": "ym2612"
    },
    {
      "channel": 5,
      "note": 55,
      "start": 32.1394,
      "duration": 0.6337,
      "velocity": 127,
      "chip": "ym2612"
    },
    {
      "channel": 0,
      "note": 62,
      "start": 32.4555,
      "duration": 0.3166,
      "velocity": 112,
      "chip": "ym2612"
    },
    {
      "channel": 0,
      "note": 55,
      "start": 32.7722,
      "duration": 0.3332,
      "velocity": 112,
      "chip": "ym2612"
    },
    {
      "channel": 5,
      "note": 55,
      "start": 32.7733,
      "duration": 0.3504,
      "velocity": 127,
      "chip": "ym2612"
    },
    {
      "channel": 0,
      "note": 57,
      "start": 33.1057,
      "duration": 0.1676,
      "velocity": 112,
      "chip": "ym2612"
    },
    {
      "channel": 2,
      "note": 86,
      "start": 33.1065,
      "duration": 0.8177,
      "velocity": 109,
      "chip": "ym2612"
    },
    {
      "channel": 3,
      "note": 81,
      "start": 33.1072,
      "duration": 1.8019,
      "velocity": 109,
      "chip": "ym2612"
    },
    {
      "channel": 4,
      "note": 76,
      "start": 33.1079,
      "duration": 1.8019,
      "velocity": 109,
      "chip": "ym2612"
    },
    {
      "channel": 5,
      "note": 55,
      "start": 33.1239,
      "duration": 0.6331,
      "velocity": 127,
      "chip": "ym2612"
    },
    {
      "channel": 0,
      "note": 57,
      "start": 33.2735,
      "duration": 0.6515,
      "velocity": 112,
      "chip": "ym2612"
    },
    {
      "channel": 1,
      "note": 78,
      "start": 33.4403,
      "duration": 0.4836,
      "velocity": 103,
      "chip": "ym2612"
    },
    {
      "channel": 5,
      "note": 55,
      "start": 33.7573,
      "duration": 0.1996,
      "velocity": 127,
      "chip": "ym2612"
    },
    {
      "channel": 1,
      "note": 79,
      "start": 33.924,
      "duration": 0.1825,
      "velocity": 103,
      "chip": "ym2612"
    },
    {
      "channel": 2,
      "note": 85,
      "start": 33.9244,
      "duration": 0.9838,
      "velocity": 109,
      "chip": "ym2612"
    },
    {
      "channel": 0,
      "note": 57,
      "start": 33.9252,
      "duration": 0.348,
      "velocity": 112,
      "chip": "ym2612"
    },
    {
      "channel": 5,
      "note": 55,
      "start": 33.9572,
      "duration": 0.6344,
      "velocity": 127,
      "chip": "ym2612"
    },
    {
      "channel": 1,
      "note": 78,
      "start": 34.1068,
      "duration": 0.4838,
      "velocity": 103,
      "chip": "ym2612"
    },
    {
      "channel": 0,
      "note": 57,
      "start": 34.2733,
      "duration": 0.3166,
      "velocity": 112,
      "chip": "ym2612"
    },
    {
      "channel": 0,
      "note": 52,
      "start": 34.5901,
      "duration": 0.1664,
      "velocity": 112,
      "chip": "ym2612"
    },
    {
      "channel": 1,
      "note": 76,
      "start": 34.5908,
      "duration": 0.3167,
      "velocity": 103,
      "chip": "ym2612"
    },
    {
      "channel": 5,
      "note": 55,
      "start": 34.5918,
      "duration": 0.3332,
      "velocity": 127,
      "chip": "ym2612"
    },
    {
      "channel": 0,
      "note": 54,
      "start": 34.7567,
      "duration": 0.1501,
      "velocity": 112,
      "chip": "ym2612"
    },
    {
      "channel": 0,
      "note": 55,
      "start": 34.9069,
      "duration": 0.1842,
      "velocity": 112,
      "chip": "ym2612"
    },
    {
      "channel": 1,
      "note": 76,
      "start": 34.9077,
      "duration": 1.8007,
      "velocity": 103,
      "chip": "ym2612"
    },
    {
      "channel": 2,
      "note": 79,
      "start": 34.9085,
      "duration": 0.3496,
      "velocity": 109,
      "chip": "ym2612"
    },
    {
      "channel": 3,
      "note": 74,
      "start": 34.9092,
      "duration": 0.3495,
      "velocity": 109,
      "chip": "ym2612"
    },
    {
      "channel": 4,
      "note": 71,
      "start": 34.91,
      "duration": 0.3494,
      "velocity": 109,
      "chip": "ym2612"
    },
    {
      "channel": 5,
      "note": 55,
      "start": 34.9252,
      "duration": 0.6503,
      "velocity": 127,
      "chip": "ym2612"
    },
    {
      "channel": 0,
      "note": 55,
      "start": 35.0913,
      "duration": 0.4832,
      "velocity": 112,
      "chip": "ym2612"
    },
    {
      "channel": 2,
      "note": 83,
      "start": 35.2582,
      "duration": 0.4675,
      "velocity": 109,
      "chip": "ym2612"
    },
    {
      "channel": 3,
      "note": 79,
      "start": 35.2589,
      "duration": 0.4671,
      "velocity": 109,
      "chip": "ym2612"
    },
    {
      "channel": 4,
      "note": 74,
      "start": 35.2596,
      "duration": 0.4668,
      "velocity": 109,
      "chip": "ym2612"
    },
    {
      "channel": 0,
      "note": 50,
      "start": 35.5747,
      "duration": 0.1498,
      "velocity": 112,
      "chip": "ym2612"
    },
    {
      "channel": 5,
      "note": 55,
      "start": 35.5758,
      "duration": 0.1655,
      "velocity": 127,
      "chip": "ym2612"
    },
    {
      "channel": 0,
      "note": 52,
      "start": 35.7247,
      "duration": 0.0023,
      "velocity": 112,
      "chip": "ym2612"
    },
    {
      "channel": 2,
      "note": 86,
      "start": 35.7259,
      "duration": 0.3326,
      "velocity": 109,
      "chip": "ym2612"
    },
    {
      "channel": 3,
      "note": 83,
      "start": 35.7262,
      "duration": 0.333,
      "velocity": 109,
      "chip": "ym2612"
    },
    {
      "channel": 4,
      "note": 79,
      "start": 35.7266,
      "duration": 0.3332,
      "velocity": 109,
      "chip": "ym2612"
    },
    {
      "channel": 0,
      "note": 55,
      "start": 35.7273,
      "duration": 0.3304,
      "velocity": 112,
      "chip": "ym2612"
    },
    {
      "channel": 5,
      "note": 55,
      "start": 35.7416,
      "duration": 0.6504,
      "velocity": 127,
      "chip": "ym2612"
    },
    {
      "channel": 0,
      "note": 55,
      "start": 36.0579,
      "duration": 0.3331,
      "velocity": 112,
      "chip": "ym2612"
    },
    {
      "channel": 2,
      "note": 91,
      "start": 36.0586,
      "duration": 0.6505,
      "velocity": 109,
      "chip": "ym2612"
    },
    {
      "channel": 3,
      "note": 86,
      "start": 36.0593,
      "duration": 0.6505,
      "velocity": 109,
      "chip": "ym2612"
    },
    {
      "channel": 4,
      "note": 83,
      "start": 36.06,
      "duration": 0.6505,
      "velocity": 109,
      "chip": "ym2612"
    },
    {
      "channel": 0,
      "note": 57,
      "start": 36.3911,
      "duration": 0.1498,
      "velocity": 112,
      "chip": "ym2612"
    },
    {
      "channel": 5,
      "note": 55,
      "start": 36.3922,
      "duration": 0.3338,
      "velocity": 127,
      "chip": "ym2612"
    },
    {
      "channel": 0,
      "note": 59,
      "start": 36.5411,
      "duration": 0.1667,
      "velocity": 112,
      "chip": "ym2612"
    },
    {
      "channel": 0,
      "note": 62,
      "start": 36.7079,
      "duration": 0.1843,
      "velocity": 112,
      "chip": "ym2612"
    },
    {
      "channel": 1,
      "note": 74,
      "start": 36.7086,
      "duration": 3.0898,
      "velocity": 109,
      "chip": "ym2612"
    },
    {
      "channel": 2,
      "note": 93,
      "start": 36.7093,
      "duration": 3.0917,
      "velocity": 109,
      "chip": "ym2612"
    },
    {
      "channel": 3,
      "note": 90,
      "start": 36.71,
      "duration": 3.0937,
      "velocity": 109,
      "chip": "ym2612"
    },
    {
      "channel": 4,
      "note": 86,
      "start": 36.7107,
      "duration": 3.0957,
      "velocity": 109,
      "chip": "ym2612"
    },
    {
      "channel": 5,
      "note": 55,
      "start": 36.7262,
      "duration": 0.6338,
      "velocity": 127,
      "chip": "ym2612"
    },
    {
      "channel": 0,
      "note": 62,
      "start": 36.8924,
      "duration": 0.4666,
      "velocity": 112,
      "chip": "ym2612"
    },
    {
      "channel": 0,
      "note": 57,
      "start": 37.3591,
      "duration": 0.1665,
      "velocity": 112,
      "chip": "ym2612"
    },
    {
      "channel": 5,
      "note": 55,
      "start": 37.3602,
      "duration": 0.1845,
      "velocity": 127,
      "chip": "ym2612"
    },
    {
      "channel": 0,
      "note": 59,
      "start": 37.5258,
      "duration": 0.001,
      "velocity": 112,
      "chip": "ym2612"
    },
    {
      "channel": 0,
      "note": 50,
      "start": 37.527,
      "duration": 0.1673,
      "velocity": 112,
      "chip": "ym2612"
    },
    {
      "channel": 5,
      "note": 55,
      "start": 37.545,
      "duration": 0.6337,
      "velocity": 127,
      "chip": "ym2612"
    },
    {
      "channel": 0,
      "note": 50,
      "start": 37.6945,
      "duration": 0.4832,
      "velocity": 112,
      "chip": "ym2612"
    },
    {
      "channel": 0,
      "note": 57,
      "start": 38.1779,
      "duration": 0.1664,
      "velocity": 112,
      "chip": "ym2612"
    },
    {
      "channel": 5,
      "note": 55,
      "start": 38.179,
      "duration": 4.5521,
      "velocity": 1,
      "chip": "ym2612"
    },
    {
      "channel": 0,
      "note": 59,
      "start": 38.3445,
      "duration": 0.1501,
      "velocity": 112,
      "chip": "ym2612"
    },
    {
      "channel": 0,
      "note": 62,
      "start": 38.4947,
      "duration": 1.3011,
      "velocity": 112,
      "chip": "ym2612"
    },
    {
      "channel": 0,
      "note": 50,
      "start": 39.796,
      "duration": 0.0113,
      "velocity": 112,
      "chip": "ym2612"
    },
    {
      "channel": 1,
      "note": 81,
      "start": 39.7986,
      "duration": 0.009,
      "velocity": 109,
      "chip": "ym2612"
    },
    {
      "channel": 2,
      "note": 86,
      "start": 39.8012,
      "duration": 0.0068,
      "velocity": 109,
      "chip": "ym2612"
    },
    {
      "channel": 3,
      "note": 78,
      "start": 39.8039,
      "duration": 0.0044,
      "velocity": 109,
      "chip": "ym2612"
    },
    {
      "channel": 4,
      "note": 74,
      "start": 39.8066,
      "duration": 0.0021,
      "velocity": 109,
      "chip": "ym2612"
    },
    {
      "channel": 0,
      "note": 50,
      "start": 39.8074,
      "duration": 0.0038,
      "velocity": 87,
      "chip": "ym2612"
    },
    {
      "channel": 1,
      "note": 81,
      "start": 39.8078,
      "duration": 0.0038,
      "velocity": 109,
      "chip": "ym2612"
    },
    {
      "channel": 2,
      "note": 86,
      "start": 39.8082,
      "duration": 0.0038,
      "velocity": 109,
      "chip": "ym2612"
    },
    {
      "channel": 3,
      "note": 78,
      "start": 39.8085,
      "duration": 0.0039,
      "velocity": 109,
      "chip": "ym2612"
    },
    {
      "channel": 4,
      "note": 74,
      "start": 39.8089,
      "duration": 0.0045,
      "velocity": 109,
      "chip": "ym2612"
    },
    {
      "channel": 0,
      "note": 50,
      "start": 39.8114,
      "duration": 39.5867,
      "velocity": 1,
      "chip": "ym2612"
    },
    {
      "channel": 1,
      "note": 81,
      "start": 39.8118,
      "duration": 2.8972,
      "velocity": 1,
      "chip": "ym2612"
    },
    {
      "channel": 2,
      "note": 86,
      "start": 39.8122,
      "duration": 2.8995,
      "velocity": 1,
      "chip": "ym2612"
    },
    {
      "channel": 3,
      "note": 78,
      "start": 39.8127,
      "duration": 2.9131,
      "velocity": 1,
      "chip": "ym2612"
    },
    {
      "channel": 4,
      "note": 74,
      "start": 39.8138,
      "duration": 2.9147,
      "velocity": 1,
      "chip": "ym2612"
    },
    {
      "channel": 1,
      "note": 43,
      "start": 42.7092,
      "duration": 36.6889,
      "velocity": 1,
      "chip": "ym2612"
    },
    {
      "channel": 2,
      "note": 43,
      "start": 42.7119,
      "duration": 36.6862,
      "velocity": 1,
      "chip": "ym2612"
    },
    {
      "channel": 3,
      "note": 43,
      "start": 42.726,
      "duration": 36.6721,
      "velocity": 1,
      "chip": "ym2612"
    },
    {
      "channel": 4,
      "note": 43,
      "start": 42.7287,
      "duration": 36.6694,
      "velocity": 1,
      "chip": "ym2612"
    },
    {
      "channel": 5,
      "note": 43,
      "start": 42.7313,
      "duration": 36.6668,
      "velocity": 1,
      "chip": "ym2612"
    }
  ]
}