{
  "track_name": "13 - Try Again",
  "duration_sec": 50.584,
  "sample_rate": 44100,
  "note_count": 1214,
  "unique_pitches": 30,
  "pitch_range": 55,
  "avg_note_duration": 0.121,
  "reconstruction_stats": {
    "notes_reconstructed": 1214,
    "keyon_events": 1214,
    "keyoff_events": 1211,
    "orphan_keyons": 3,
    "unique_pitches": 30,
    "pitch_range": 55,
    "avg_duration_sec": 0.121
  },
  "metadata": {
    "source": "S\\Saint Sword\\13 - Try Again.vgz"
  },
  "notes": [
    {
      "channel": 1,
      "note": 54,
      "start": 0.0,
      "duration": 0.0964,
      "velocity": 80,
      "chip": "ym2612"
    },
    {
      "channel": 2,
      "note": 37,
      "start": 0.0052,
      "duration": 0.0876,
      "velocity": 120,
      "chip": "ym2612"
    },
    {
      "channel": 0,
      "note": 66,
      "start": 0.0963,
      "duration": 0.1113,
      "velocity": 87,
      "chip": "ym2612"
    },
    {
      "channel": 1,
      "note": 54,
      "start": 0.097,
      "duration": 0.1115,
      "velocity": 80,
      "chip": "ym2612"
    },
    {
      "channel": 2,
      "note": 37,
      "start": 0.098,
      "duration": 0.1068,
      "velocity": 120,
      "chip": "ym2612"
    },
    {
      "channel": 0,
      "note": 73,
      "start": 0.2083,
      "duration": 0.1084,
      "velocity": 87,
      "chip": "ym2612"
    },
    {
      "channel": 3,
      "note": 90,
      "start": 0.2096,
      "duration": 0.1081,
      "velocity": 91,
      "chip": "ym2612"
    },
    {
      "channel": 2,
      "note": 37,
      "start": 0.2105,
      "duration": 0.1272,
      "velocity": 120,
      "chip": "ym2612"
    },
    {
      "channel": 4,
      "note": 66,
      "start": 0.2438,
      "duration": 0.1112,
      "velocity": 87,
      "chip": "ym2612"
    },
    {
      "channel": 0,
      "note": 76,
      "start": 0.3175,
      "duration": 0.114,
      "velocity": 87,
      "chip": "ym2612"
    },
    {
      "channel": 3,
      "note": 90,
      "start": 0.3188,
      "duration": 0.1137,
      "velocity": 91,
      "chip": "ym2612"
    },
    {
      "channel": 4,
      "note": 73,
      "start": 0.3558,
      "duration": 0.1109,
      "velocity": 87,
      "chip": "ym2612"
    },
    {
      "channel": 0,
      "note": 75,
      "start": 0.4322,
      "duration": 0.1114,
      "velocity": 87,
      "chip": "ym2612"
    },
    {
      "channel": 2,
      "note": 77,
      "start": 0.4342,
      "duration": 0.1065,
      "velocity": 127,
      "chip": "ym2612"
    },
    {
      "channel": 4,
      "note": 76,
      "start": 0.4674,
      "duration": 0.1113,
      "velocity": 87,
      "chip": "ym2612"
    },
    {
      "channel": 5,
      "note": 90,
      "start": 0.5054,
      "duration": 0.1111,
      "velocity": 91,
      "chip": "ym2612"
    },
    {
      "channel": 0,
      "note": 71,
      "start": 0.5443,
      "duration": 0.1088,
      "velocity": 87,
      "chip": "ym2612"
    },
    {
      "channel": 2,
      "note": 37,
      "start": 0.546,
      "duration": 0.1268,
      "velocity": 120,
      "chip": "ym2612"
    },
    {
      "channel": 4,
      "note": 75,
      "start": 0.5794,
      "duration": 0.1111,
      "velocity": 87,
      "chip": "ym2612"
    },
    {
      "channel": 5,
      "note": 90,
      "start": 0.6173,
      "duration": 0.1109,
      "velocity": 91,
      "chip": "ym2612"
    },
    {
      "channel": 1,
      "note": 54,
      "start": 0.654,
      "duration": 0.1115,
      "velocity": 80,
      "chip": "ym2612"
    },
    {
      "channel": 4,
      "note": 71,
      "start": 0.6912,
      "duration": 0.1122,
      "velocity": 87,
      "chip": "ym2612"
    },
    {
      "channel": 0,
      "note": 73,
      "start": 0.7654,
      "duration": 0.1141,
      "velocity": 87,
      "chip": "ym2612"
    },
    {
      "channel": 1,
      "note": 54,
      "start": 0.7661,
      "duration": 0.1137,
      "velocity": 80,
      "chip": "ym2612"
    },
    {
      "channel": 2,
      "note": 37,
      "start": 0.8809,
      "duration": 0.1076,
      "velocity": 120,
      "chip": "ym2612"
    },
    {
      "channel": 4,
      "note": 73,
      "start": 0.9148,
      "duration": 0.1117,
      "velocity": 87,
      "chip": "ym2612"
    },
    {
      "channel": 0,
      "note": 71,
      "start": 0.992,
      "duration": 0.1119,
      "velocity": 87,
      "chip": "ym2612"
    },
    {
      "channel": 2,
      "note": 37,
      "start": 0.9935,
      "duration": 0.107,
      "velocity": 120,
      "chip": "ym2612"
    },
    {
      "channel": 2,
      "note": 37,
      "start": 1.1051,
      "duration": 0.1272,
      "velocity": 120,
      "chip": "ym2612"
    },
    {
      "channel": 4,
      "note": 71,
      "start": 1.1388,
      "duration": 0.1116,
      "velocity": 87,
      "chip": "ym2612"
    },
    {
      "channel": 0,
      "note": 69,
      "start": 1.2132,
      "duration": 0.1139,
      "velocity": 87,
      "chip": "ym2612"
    },
    {
      "channel": 2,
      "note": 77,
      "start": 1.3285,
      "duration": 0.2198,
      "velocity": 127,
      "chip": "ym2612"
    },
    {
      "channel": 4,
      "note": 69,
      "start": 1.3627,
      "duration": 0.1116,
      "velocity": 87,
      "chip": "ym2612"
    },
    {
      "channel": 0,
      "note": 68,
      "start": 1.4375,
      "duration": 0.1135,
      "velocity": 87,
      "chip": "ym2612"
    },
    {
      "channel": 0,
      "note": 69,
      "start": 1.552,
      "duration": 0.1083,
      "velocity": 87,
      "chip": "ym2612"
    },
    {
      "channel": 3,
      "note": 90,
      "start": 1.5534,
      "duration": 0.1079,
      "velocity": 91,
      "chip": "ym2612"
    },
    {
      "channel": 2,
      "note": 37,
      "start": 1.5543,
      "duration": 0.1262,
      "velocity": 120,
      "chip": "ym2612"
    },
    {
      "channel": 4,
      "note": 68,
      "start": 1.5877,
      "duration": 0.1107,
      "velocity": 87,
      "chip": "ym2612"
    },
    {
      "channel": 0,
      "note": 71,
      "start": 1.661,
      "duration": 0.1142,
      "velocity": 87,
      "chip": "ym2612"
    },
    {
      "channel": 3,
      "note": 90,
      "start": 1.6621,
      "duration": 0.1172,
      "velocity": 91,
      "chip": "ym2612"
    },
    {
      "channel": 4,
      "note": 69,
      "start": 1.6992,
      "duration": 0.1108,
      "velocity": 87,
      "chip": "ym2612"
    },
    {
      "channel": 1,
      "note": 54,
      "start": 1.7762,
      "duration": 0.1122,
      "velocity": 80,
      "chip": "ym2612"
    },
    {
      "channel": 2,
      "note": 37,
      "start": 1.7809,
      "duration": 0.1032,
      "velocity": 120,
      "chip": "ym2612"
    },
    {
      "channel": 4,
      "note": 71,
      "start": 1.8107,
      "duration": 0.1117,
      "velocity": 87,
      "chip": "ym2612"
    },
    {
      "channel": 5,
      "note": 90,
      "start": 1.8487,
      "duration": 0.1111,
      "velocity": 91,
      "chip": "ym2612"
    },
    {
      "channel": 0,
      "note": 66,
      "start": 1.8883,
      "duration": 0.1107,
      "velocity": 87,
      "chip": "ym2612"
    },
    {
      "channel": 1,
      "note": 54,
      "start": 1.8889,
      "duration": 0.1109,
      "velocity": 80,
      "chip": "ym2612"
    },
    {
      "channel": 2,
      "note": 37,
      "start": 1.8906,
      "duration": 0.1055,
      "velocity": 120,
      "chip": "ym2612"
    },
    {
      "channel": 5,
      "note": 90,
      "start": 1.9606,
      "duration": 0.1145,
      "velocity": 91,
      "chip": "ym2612"
    },
    {
      "channel": 0,
      "note": 73,
      "start": 1.9997,
      "duration": 0.1084,
      "velocity": 87,
      "chip": "ym2612"
    },
    {
      "channel": 3,
      "note": 90,
      "start": 2.001,
      "duration": 0.1081,
      "velocity": 91,
      "chip": "ym2612"
    },
    {
      "channel": 2,
      "note": 37,
      "start": 2.0023,
      "duration": 0.1259,
      "velocity": 120,
      "chip": "ym2612"
    },
    {
      "channel": 4,
      "note": 66,
      "start": 2.0353,
      "duration": 0.1109,
      "velocity": 87,
      "chip": "ym2612"
    },
    {
      "channel": 0,
      "note": 76,
      "start": 2.1088,
      "duration": 0.1141,
      "velocity": 87,
      "chip": "ym2612"
    },
    {
      "channel": 3,
      "note": 90,
      "start": 2.1099,
      "duration": 0.1139,
      "velocity": 91,
      "chip": "ym2612"
    },
    {
      "channel": 4,
      "note": 73,
      "start": 2.147,
      "duration": 0.111,
      "velocity": 87,
      "chip": "ym2612"
    },
    {
      "channel": 0,
      "note": 75,
      "start": 2.2236,
      "duration": 0.1112,
      "velocity": 87,
      "chip": "ym2612"
    },
    {
      "channel": 2,
      "note": 77,
      "start": 2.2256,
      "duration": 0.1064,
      "velocity": 127,
      "chip": "ym2612"
    },
    {
      "channel": 4,
      "note": 76,
      "start": 2.2588,
      "duration": 0.1115,
      "velocity": 87,
      "chip": "ym2612"
    },
    {
      "channel": 5,
      "note": 90,
      "start": 2.2966,
      "duration": 0.1111,
      "velocity": 91,
      "chip": "ym2612"
    },
    {
      "channel": 0,
      "note": 71,
      "start": 2.3358,
      "duration": 0.1082,
      "velocity": 87,
      "chip": "ym2612"
    },
    {
      "channel": 2,
      "note": 37,
      "start": 2.3379,
      "duration": 0.1262,
      "velocity": 120,
      "chip": "ym2612"
    },
    {
      "channel": 4,
      "note": 75,
      "start": 2.371,
      "duration": 0.1108,
      "velocity": 87,
      "chip": "ym2612"
    },
    {
      "channel": 5,
      "note": 90,
      "start": 2.4085,
      "duration": 0.1117,
      "velocity": 91,
      "chip": "ym2612"
    },
    {
      "channel": 1,
      "note": 54,
      "start": 2.4449,
      "duration": 0.112,
      "velocity": 80,
      "chip": "ym2612"
    },
    {
      "channel": 4,
      "note": 71,
      "start": 2.4825,
      "duration": 0.1116,
      "velocity": 87,
      "chip": "ym2612"
    },
    {
      "channel": 0,
      "note": 73,
      "start": 2.5566,
      "duration": 0.1146,
      "velocity": 87,
      "chip": "ym2612"
    },
    {
      "channel": 1,
      "note": 54,
      "start": 2.5574,
      "duration": 0.1142,
      "velocity": 80,
      "chip": "ym2612"
    },
    {
      "channel": 2,
      "note": 37,
      "start": 2.6727,
      "duration": 0.1071,
      "velocity": 120,
      "chip": "ym2612"
    },
    {
      "channel": 4,
      "note": 73,
      "start": 2.7062,
      "duration": 0.1112,
      "velocity": 87,
      "chip": "ym2612"
    },
    {
      "channel": 2,
      "note": 37,
      "start": 2.784,
      "duration": 0.1077,
      "velocity": 120,
      "chip": "ym2612"
    },
    {
      "channel": 1,
      "note": 52,
      "start": 2.8952,
      "duration": 0.1086,
      "velocity": 80,
      "chip": "ym2612"
    },
    {
      "channel": 2,
      "note": 37,
      "start": 2.8962,
      "duration": 0.127,
      "velocity": 120,
      "chip": "ym2612"
    },
    {
      "channel": 1,
      "note": 56,
      "start": 3.0044,
      "duration": 0.1144,
      "velocity": 80,
      "chip": "ym2612"
    },
    {
      "channel": 2,
      "note": 77,
      "start": 3.1204,
      "duration": 0.2191,
      "velocity": 127,
      "chip": "ym2612"
    },
    {
      "channel": 1,
      "note": 57,
      "start": 3.2284,
      "duration": 0.1141,
      "velocity": 80,
      "chip": "ym2612"
    },
    {
      "channel": 1,
      "note": 56,
      "start": 3.343,
      "duration": 0.1087,
      "velocity": 80,
      "chip": "ym2612"
    },
    {
      "channel": 3,
      "note": 90,
      "start": 3.344,
      "duration": 0.1091,
      "velocity": 91,
      "chip": "ym2612"
    },
    {
      "channel": 2,
      "note": 37,
      "start": 3.3449,
      "duration": 0.1263,
      "velocity": 120,
      "chip": "ym2612"
    },
    {
      "channel": 1,
      "note": 54,
      "start": 3.4525,
      "duration": 0.1206,
      "velocity": 80,
      "chip": "ym2612"
    },
    {
      "channel": 3,
      "note": 90,
      "start": 3.4538,
      "duration": 0.123,
      "velocity": 91,
      "chip": "ym2612"
    },
    {
      "channel": 1,
      "note": 54,
      "start": 3.5737,
      "duration": 0.1055,
      "velocity": 80,
      "chip": "ym2612"
    },
    {
      "channel": 2,
      "note": 37,
      "start": 3.578,
      "duration": 0.0975,
      "velocity": 120,
      "chip": "ym2612"
    },
    {
      "channel": 5,
      "note": 90,
      "start": 3.6395,
      "duration": 0.1116,
      "velocity": 91,
      "chip": "ym2612"
    },
    {
      "channel": 0,
      "note": 66,
      "start": 3.679,
      "duration": 0.1113,
      "velocity": 87,
      "chip": "ym2612"
    },
    {
      "channel": 1,
      "note": 54,
      "start": 3.6797,
      "duration": 0.1113,
      "velocity": 80,
      "chip": "ym2612"
    },
    {
      "channel": 2,
      "note": 37,
      "start": 3.6809,
      "duration": 0.1065,
      "velocity": 120,
      "chip": "ym2612"
    },
    {
      "channel": 5,
      "note": 90,
      "start": 3.7521,
      "duration": 0.1143,
      "velocity": 91,
      "chip": "ym2612"
    },
    {
      "channel": 0,
      "note": 73,
      "start": 3.7909,
      "duration": 0.1084,
      "velocity": 87,
      "chip": "ym2612"
    },
    {
      "channel": 3,
      "note": 90,
      "start": 3.7922,
      "duration": 0.1081,
      "velocity": 91,
      "chip": "ym2612"
    },
    {
      "channel": 2,
      "note": 37,
      "start": 3.7933,
      "duration": 0.1268,
      "velocity": 120,
      "chip": "ym2612"
    },
    {
      "channel": 4,
      "note": 66,
      "start": 3.8263,
      "duration": 0.1115,
      "velocity": 87,
      "chip": "ym2612"
    },
    {
      "channel": 0,
      "note": 76,
      "start": 3.9,
      "duration": 0.1141,
      "velocity": 87,
      "chip": "ym2612"
    },
    {
      "channel": 3,
      "note": 90,
      "start": 3.9011,
      "duration": 0.1139,
      "velocity": 91,
      "chip": "ym2612"
    },
    {
      "channel": 4,
      "note": 73,
      "start": 3.9384,
      "duration": 0.1109,
      "velocity": 87,
      "chip": "ym2612"
    },
    {
      "channel": 0,
      "note": 75,
      "start": 4.0148,
      "duration": 0.1113,
      "velocity": 87,
      "chip": "ym2612"
    },
    {
      "channel": 2,
      "note": 77,
      "start": 4.0167,
      "duration": 0.1065,
      "velocity": 127,
      "chip": "ym2612"
    },
    {
      "channel": 4,
      "note": 76,
      "start": 4.0501,
      "duration": 0.1111,
      "velocity": 87,
      "chip": "ym2612"
    },
    {
      "channel": 5,
      "note": 90,
      "start": 4.0883,
      "duration": 0.1107,
      "velocity": 91,
      "chip": "ym2612"
    },
    {
      "channel": 0,
      "note": 71,
      "start": 4.1267,
      "duration": 0.1087,
      "velocity": 87,
      "chip": "ym2612"
    },
    {
      "channel": 2,
      "note": 37,
      "start": 4.1285,
      "duration": 0.1268,
      "velocity": 120,
      "chip": "ym2612"
    },
    {
      "channel": 4,
      "note": 75,
      "start": 4.1619,
      "duration": 0.1112,
      "velocity": 87,
      "chip": "ym2612"
    },
    {
      "channel": 5,
      "note": 90,
      "start": 4.1998,
      "duration": 0.111,
      "velocity": 91,
      "chip": "ym2612"
    },
    {
      "channel": 1,
      "note": 54,
      "start": 4.2367,
      "duration": 0.1114,
      "velocity": 80,
      "chip": "ym2612"
    },
    {
      "channel": 4,
      "note": 71,
      "start": 4.2738,
      "duration": 0.1118,
      "velocity": 87,
      "chip": "ym2612"
    },
    {
      "channel": 0,
      "note": 73,
      "start": 4.348,
      "duration": 0.1139,
      "velocity": 87,
      "chip": "ym2612"
    },
    {
      "channel": 1,
      "note": 54,
      "start": 4.3487,
      "duration": 0.1135,
      "velocity": 80,
      "chip": "ym2612"
    },
    {
      "channel": 2,
      "note": 37,
      "start": 4.4634,
      "duration": 0.1077,
      "velocity": 120,
      "chip": "ym2612"
    },
    {
      "channel": 4,
      "note": 73,
      "start": 4.4974,
      "duration": 0.1116,
      "velocity": 87,
      "chip": "ym2612"
    },
    {
      "channel": 0,
      "note": 71,
      "start": 4.5746,
      "duration": 0.112,
      "velocity": 87,
      "chip": "ym2612"
    },
    {
      "channel": 2,
      "note": 37,
      "start": 4.576,
      "duration": 0.107,
      "velocity": 120,
      "chip": "ym2612"
    },
    {
      "channel": 2,
      "note": 37,
      "start": 4.6877,
      "duration": 0.1272,
      "velocity": 120,
      "chip": "ym2612"
    },
    {
      "channel": 4,
      "note": 71,
      "start": 4.7214,
      "duration": 0.1116,
      "velocity": 87,
      "chip": "ym2612"
    },
    {
      "channel": 0,
      "note": 69,
      "start": 4.7957,
      "duration": 0.1141,
      "velocity": 87,
      "chip": "ym2612"
    },
    {
      "channel": 2,
      "note": 77,
      "start": 4.9111,
      "duration": 0.2198,
      "velocity": 127,
      "chip": "ym2612"
    },
    {
      "channel": 4,
      "note": 69,
      "start": 4.9452,
      "duration": 0.1117,
      "velocity": 87,
      "chip": "ym2612"
    },
    {
      "channel": 0,
      "note": 68,
      "start": 5.0202,
      "duration": 0.1134,
      "velocity": 87,
      "chip": "ym2612"
    },
    {
      "channel": 0,
      "note": 69,
      "start": 5.1344,
      "duration": 0.1085,
      "velocity": 87,
      "chip": "ym2612"
    },
    {
      "channel": 3,
      "note": 90,
      "start": 5.1357,
      "duration": 0.1081,
      "velocity": 91,
      "chip": "ym2612"
    },
    {
      "channel": 2,
      "note": 37,
      "start": 5.137,
      "duration": 0.1261,
      "velocity": 120,
      "chip": "ym2612"
    },
    {
      "channel": 4,
      "note": 68,
      "start": 5.1705,
      "duration": 0.1106,
      "velocity": 87,
      "chip": "ym2612"
    },
    {
      "channel": 0,
      "note": 71,
      "start": 5.2436,
      "duration": 0.1143,
      "velocity": 87,
      "chip": "ym2612"
    },
    {
      "channel": 3,
      "note": 90,
      "start": 5.2447,
      "duration": 0.1172,
      "velocity": 91,
      "chip": "ym2612"
    },
    {
      "channel": 4,
      "note": 69,
      "start": 5.2817,
      "duration": 0.1108,
      "velocity": 87,
      "chip": "ym2612"
    },
    {
      "channel": 1,
      "note": 54,
      "start": 5.3587,
      "duration": 0.1123,
      "velocity": 80,
      "chip": "ym2612"
    },
    {
      "channel": 2,
      "note": 37,
      "start": 5.3634,
      "duration": 0.1033,
      "velocity": 120,
      "chip": "ym2612"
    },
    {
      "channel": 4,
      "note": 71,
      "start": 5.3933,
      "duration": 0.1118,
      "velocity": 87,
      "chip": "ym2612"
    },
    {
      "channel": 5,
      "note": 90,
      "start": 5.4312,
      "duration": 0.1111,
      "velocity": 91,
      "chip": "ym2612"
    },
    {
      "channel": 0,
      "note": 66,
      "start": 5.4709,
      "duration": 0.1105,
      "velocity": 87,
      "chip": "ym2612"
    },
    {
      "channel": 1,
      "note": 54,
      "start": 5.4716,
      "duration": 0.1107,
      "velocity": 80,
      "chip": "ym2612"
    },
    {
      "channel": 2,
      "note": 37,
      "start": 5.4732,
      "duration": 0.1054,
      "velocity": 120,
      "chip": "ym2612"
    },
    {
      "channel": 5,
      "note": 90,
      "start": 5.5432,
      "duration": 0.1146,
      "velocity": 91,
      "chip": "ym2612"
    },
    {
      "channel": 0,
      "note": 73,
      "start": 5.5821,
      "duration": 0.1086,
      "velocity": 87,
      "chip": "ym2612"
    },
    {
      "channel": 3,
      "note": 90,
      "start": 5.5834,
      "duration": 0.1083,
      "velocity": 91,
      "chip": "ym2612"
    },
    {
      "channel": 2,
      "note": 37,
      "start": 5.5846,
      "duration": 0.1263,
      "velocity": 120,
      "chip": "ym2612"
    },
    {
      "channel": 4,
      "note": 66,
      "start": 5.6176,
      "duration": 0.1112,
      "velocity": 87,
      "chip": "ym2612"
    },
    {
      "channel": 0,
      "note": 76,
      "start": 5.6914,
      "duration": 0.1144,
      "velocity": 87,
      "chip": "ym2612"
    },
    {
      "channel": 3,
      "note": 90,
      "start": 5.6925,
      "duration": 0.1143,
      "velocity": 91,
      "chip": "ym2612"
    },
    {
      "channel": 4,
      "note": 73,
      "start": 5.7297,
      "duration": 0.1109,
      "velocity": 87,
      "chip": "ym2612"
    },
    {
      "channel": 0,
      "note": 75,
      "start": 5.8066,
      "duration": 0.1107,
      "velocity": 87,
      "chip": "ym2612"
    },
    {
      "channel": 2,
      "note": 77,
      "start": 5.8085,
      "duration": 0.106,
      "velocity": 127,
      "chip": "ym2612"
    },
    {
      "channel": 4,
      "note": 76,
      "start": 5.8412,
      "duration": 0.1119,
      "velocity": 87,
      "chip": "ym2612"
    },
    {
      "channel": 5,
      "note": 90,
      "start": 5.8791,
      "duration": 0.1111,
      "velocity": 91,
      "chip": "ym2612"
    },
    {
      "channel": 0,
      "note": 71,
      "start": 5.918,
      "duration": 0.1085,
      "velocity": 87,
      "chip": "ym2612"
    },
    {
      "channel": 2,
      "note": 37,
      "start": 5.9204,
      "duration": 0.1262,
      "velocity": 120,
      "chip": "ym2612"
    },
    {
      "channel": 4,
      "note": 75,
      "start": 5.9538,
      "duration": 0.1105,
      "velocity": 87,
      "chip": "ym2612"
    },
    {
      "channel": 5,
      "note": 90,
      "start": 5.9911,
      "duration": 0.1113,
      "velocity": 91,
      "chip": "ym2612"
    },
    {
      "channel": 1,
      "note": 54,
      "start": 6.0274,
      "duration": 0.112,
      "velocity": 80,
      "chip": "ym2612"
    },
    {
      "channel": 4,
      "note": 71,
      "start": 6.065,
      "duration": 0.1116,
      "velocity": 87,
      "chip": "ym2612"
    },
    {
      "channel": 0,
      "note": 73,
      "start": 6.1393,
      "duration": 0.1146,
      "velocity": 87,
      "chip": "ym2612"
    },
    {
      "channel": 1,
      "note": 54,
      "start": 6.14,
      "duration": 0.1143,
      "velocity": 80,
      "chip": "ym2612"
    },
    {
      "channel": 2,
      "note": 37,
      "start": 6.2554,
      "duration": 0.107,
      "velocity": 120,
      "chip": "ym2612"
    },
    {
      "channel": 4,
      "note": 73,
      "start": 6.2887,
      "duration": 0.1112,
      "velocity": 87,
      "chip": "ym2612"
    },
    {
      "channel": 2,
      "note": 37,
      "start": 6.3666,
      "duration": 0.1078,
      "velocity": 120,
      "chip": "ym2612"
    },
    {
      "channel": 1,
      "note": 52,
      "start": 6.4778,
      "duration": 0.109,
      "velocity": 80,
      "chip": "ym2612"
    },
    {
      "channel": 2,
      "note": 37,
      "start": 6.4788,
      "duration": 0.1269,
      "velocity": 120,
      "chip": "ym2612"
    },
    {
      "channel": 1,
      "note": 56,
      "start": 6.5874,
      "duration": 0.1137,
      "velocity": 80,
      "chip": "ym2612"
    },
    {
      "channel": 2,
      "note": 77,
      "start": 6.7029,
      "duration": 0.2192,
      "velocity": 127,
      "chip": "ym2612"
    },
    {
      "channel": 1,
      "note": 57,
      "start": 6.811,
      "duration": 0.1141,
      "velocity": 80,
      "chip": "ym2612"
    },
    {
      "channel": 1,
      "note": 56,
      "start": 6.9256,
      "duration": 0.1086,
      "velocity": 80,
      "chip": "ym2612"
    },
    {
      "channel": 3,
      "note": 90,
      "start": 6.9265,
      "duration": 0.1083,
      "velocity": 91,
      "chip": "ym2612"
    },
    {
      "channel": 2,
      "note": 37,
      "start": 6.9274,
      "duration": 0.1268,
      "velocity": 120,
      "chip": "ym2612"
    },
    {
      "channel": 1,
      "note": 54,
      "start": 7.0347,
      "duration": 0.1209,
      "velocity": 80,
      "chip": "ym2612"
    },
    {
      "channel": 3,
      "note": 90,
      "start": 7.0363,
      "duration": 0.1231,
      "velocity": 91,
      "chip": "ym2612"
    },
    {
      "channel": 1,
      "note": 54,
      "start": 7.1563,
      "duration": 0.1054,
      "velocity": 80,
      "chip": "ym2612"
    },
    {
      "channel": 2,
      "note": 37,
      "start": 7.1606,
      "duration": 0.0973,
      "velocity": 120,
      "chip": "ym2612"
    },
    {
      "channel": 5,
      "note": 90,
      "start": 7.2221,
      "duration": 0.1116,
      "velocity": 91,
      "chip": "ym2612"
    },
    {
      "channel": 0,
      "note": 66,
      "start": 7.2615,
      "duration": 0.1114,
      "velocity": 87,
      "chip": "ym2612"
    },
    {
      "channel": 1,
      "note": 54,
      "start": 7.2622,
      "duration": 0.1115,
      "velocity": 80,
      "chip": "ym2612"
    },
    {
      "channel": 2,
      "note": 37,
      "start": 7.2634,
      "duration": 0.1066,
      "velocity": 120,
      "chip": "ym2612"
    },
    {
      "channel": 5,
      "note": 90,
      "start": 7.3344,
      "duration": 0.1145,
      "velocity": 91,
      "chip": "ym2612"
    },
    {
      "channel": 0,
      "note": 73,
      "start": 7.3736,
      "duration": 0.1083,
      "velocity": 87,
      "chip": "ym2612"
    },
    {
      "channel": 3,
      "note": 90,
      "start": 7.3749,
      "duration": 0.108,
      "velocity": 91,
      "chip": "ym2612"
    },
    {
      "channel": 2,
      "note": 37,
      "start": 7.376,
      "duration": 0.1263,
      "velocity": 120,
      "chip": "ym2612"
    },
    {
      "channel": 4,
      "note": 66,
      "start": 7.409,
      "duration": 0.1115,
      "velocity": 87,
      "chip": "ym2612"
    },
    {
      "channel": 0,
      "note": 76,
      "start": 7.4827,
      "duration": 0.1139,
      "velocity": 87,
      "chip": "ym2612"
    },
    {
      "channel": 3,
      "note": 90,
      "start": 7.4837,
      "duration": 0.1139,
      "velocity": 91,
      "chip": "ym2612"
    },
    {
      "channel": 4,
      "note": 73,
      "start": 7.5213,
      "duration": 0.1105,
      "velocity": 87,
      "chip": "ym2612"
    },
    {
      "channel": 0,
      "note": 75,
      "start": 7.5973,
      "duration": 0.1113,
      "velocity": 87,
      "chip": "ym2612"
    },
    {
      "channel": 2,
      "note": 77,
      "start": 7.5993,
      "duration": 0.1066,
      "velocity": 127,
      "chip": "ym2612"
    },
    {
      "channel": 4,
      "note": 76,
      "start": 7.6325,
      "duration": 0.1113,
      "velocity": 87,
      "chip": "ym2612"
    },
    {
      "channel": 5,
      "note": 90,
      "start": 7.6711,
      "duration": 0.1106,
      "velocity": 91,
      "chip": "ym2612"
    },
    {
      "channel": 0,
      "note": 71,
      "start": 7.7094,
      "duration": 0.1085,
      "velocity": 87,
      "chip": "ym2612"
    },
    {
      "channel": 2,
      "note": 37,
      "start": 7.7111,
      "duration": 0.127,
      "velocity": 120,
      "chip": "ym2612"
    },
    {
      "channel": 4,
      "note": 75,
      "start": 7.7445,
      "duration": 0.1111,
      "velocity": 87,
      "chip": "ym2612"
    },
    {
      "channel": 5,
      "note": 90,
      "start": 7.7824,
      "duration": 0.111,
      "velocity": 91,
      "chip": "ym2612"
    },
    {
      "channel": 1,
      "note": 54,
      "start": 7.819,
      "duration": 0.1116,
      "velocity": 80,
      "chip": "ym2612"
    },
    {
      "channel": 4,
      "note": 71,
      "start": 7.8563,
      "duration": 0.1117,
      "velocity": 87,
      "chip": "ym2612"
    },
    {
      "channel": 0,
      "note": 73,
      "start": 7.9305,
      "duration": 0.1141,
      "velocity": 87,
      "chip": "ym2612"
    },
    {
      "channel": 1,
      "note": 54,
      "start": 7.9312,
      "duration": 0.1137,
      "velocity": 80,
      "chip": "ym2612"
    },
    {
      "channel": 2,
      "note": 37,
      "start": 8.046,
      "duration": 0.1077,
      "velocity": 120,
      "chip": "ym2612"
    },
    {
      "channel": 4,
      "note": 73,
      "start": 8.08,
      "duration": 0.1116,
      "velocity": 87,
      "chip": "ym2612"
    },
    {
      "channel": 0,
      "note": 71,
      "start": 8.1572,
      "duration": 0.1115,
      "velocity": 87,
      "chip": "ym2612"
    },
    {
      "channel": 2,
      "note": 37,
      "start": 8.1587,
      "duration": 0.1069,
      "velocity": 120,
      "chip": "ym2612"
    },
    {
      "channel": 2,
      "note": 37,
      "start": 8.2703,
      "duration": 0.1272,
      "velocity": 120,
      "chip": "ym2612"
    },
    {
      "channel": 4,
      "note": 71,
      "start": 8.3043,
      "duration": 0.1112,
      "velocity": 87,
      "chip": "ym2612"
    },
    {
      "channel": 0,
      "note": 69,
      "start": 8.3783,
      "duration": 0.114,
      "velocity": 87,
      "chip": "ym2612"
    },
    {
      "channel": 2,
      "note": 77,
      "start": 8.4936,
      "duration": 0.2198,
      "velocity": 127,
      "chip": "ym2612"
    },
    {
      "channel": 4,
      "note": 69,
      "start": 8.5279,
      "duration": 0.1115,
      "velocity": 87,
      "chip": "ym2612"
    },
    {
      "channel": 0,
      "note": 68,
      "start": 8.6025,
      "duration": 0.1137,
      "velocity": 87,
      "chip": "ym2612"
    },
    {
      "channel": 0,
      "note": 69,
      "start": 8.717,
      "duration": 0.1085,
      "velocity": 87,
      "chip": "ym2612"
    },
    {
      "channel": 3,
      "note": 90,
      "start": 8.718,
      "duration": 0.1084,
      "velocity": 91,
      "chip": "ym2612"
    },
    {
      "channel": 2,
      "note": 37,
      "start": 8.7191,
      "duration": 0.1265,
      "velocity": 120,
      "chip": "ym2612"
    },
    {
      "channel": 4,
      "note": 68,
      "start": 8.753,
      "duration": 0.1106,
      "velocity": 87,
      "chip": "ym2612"
    },
    {
      "channel": 0,
      "note": 71,
      "start": 8.8262,
      "duration": 0.1142,
      "velocity": 87,
      "chip": "ym2612"
    },
    {
      "channel": 3,
      "note": 90,
      "start": 8.8272,
      "duration": 0.1172,
      "velocity": 91,
      "chip": "ym2612"
    },
    {
      "channel": 4,
      "note": 69,
      "start": 8.8643,
      "duration": 0.1109,
      "velocity": 87,
      "chip": "ym2612"
    },
    {
      "channel": 1,
      "note": 54,
      "start": 8.9413,
      "duration": 0.1122,
      "velocity": 80,
      "chip": "ym2612"
    },
    {
      "channel": 2,
      "note": 37,
      "start": 8.946,
      "duration": 0.1032,
      "velocity": 120,
      "chip": "ym2612"
    },
    {
      "channel": 4,
      "note": 71,
      "start": 8.976,
      "duration": 0.1117,
      "velocity": 87,
      "chip": "ym2612"
    },
    {
      "channel": 5,
      "note": 90,
      "start": 9.0138,
      "duration": 0.1112,
      "velocity": 91,
      "chip": "ym2612"
    },
    {
      "channel": 0,
      "note": 66,
      "start": 9.0534,
      "duration": 0.1107,
      "velocity": 87,
      "chip": "ym2612"
    },
    {
      "channel": 1,
      "note": 54,
      "start": 9.0541,
      "duration": 0.1108,
      "velocity": 80,
      "chip": "ym2612"
    },
    {
      "channel": 2,
      "note": 37,
      "start": 9.0557,
      "duration": 0.1055,
      "velocity": 120,
      "chip": "ym2612"
    },
    {
      "channel": 5,
      "note": 90,
      "start": 9.1258,
      "duration": 0.1148,
      "velocity": 91,
      "chip": "ym2612"
    },
    {
      "channel": 0,
      "note": 73,
      "start": 9.1648,
      "duration": 0.1085,
      "velocity": 87,
      "chip": "ym2612"
    },
    {
      "channel": 3,
      "note": 90,
      "start": 9.1661,
      "duration": 0.1082,
      "velocity": 91,
      "chip": "ym2612"
    },
    {
      "channel": 2,
      "note": 37,
      "start": 9.1672,
      "duration": 0.1263,
      "velocity": 120,
      "chip": "ym2612"
    },
    {
      "channel": 4,
      "note": 66,
      "start": 9.2001,
      "duration": 0.1113,
      "velocity": 87,
      "chip": "ym2612"
    },
    {
      "channel": 0,
      "note": 76,
      "start": 9.274,
      "duration": 0.1146,
      "velocity": 87,
      "chip": "ym2612"
    },
    {
      "channel": 3,
      "note": 90,
      "start": 9.2751,
      "duration": 0.1144,
      "velocity": 91,
      "chip": "ym2612"
    },
    {
      "channel": 4,
      "note": 73,
      "start": 9.3122,
      "duration": 0.111,
      "velocity": 87,
      "chip": "ym2612"
    },
    {
      "channel": 0,
      "note": 75,
      "start": 9.3893,
      "duration": 0.1106,
      "velocity": 87,
      "chip": "ym2612"
    },
    {
      "channel": 2,
      "note": 77,
      "start": 9.3913,
      "duration": 0.1058,
      "velocity": 127,
      "chip": "ym2612"
    },
    {
      "channel": 4,
      "note": 76,
      "start": 9.4239,
      "duration": 0.1115,
      "velocity": 87,
      "chip": "ym2612"
    },
    {
      "channel": 5,
      "note": 90,
      "start": 9.4618,
      "duration": 0.1111,
      "velocity": 91,
      "chip": "ym2612"
    },
    {
      "channel": 0,
      "note": 71,
      "start": 9.5006,
      "duration": 0.1085,
      "velocity": 87,
      "chip": "ym2612"
    },
    {
      "channel": 2,
      "note": 37,
      "start": 9.5025,
      "duration": 0.1266,
      "velocity": 120,
      "chip": "ym2612"
    },
    {
      "channel": 4,
      "note": 75,
      "start": 9.5365,
      "duration": 0.1104,
      "velocity": 87,
      "chip": "ym2612"
    },
    {
      "channel": 5,
      "note": 90,
      "start": 9.5737,
      "duration": 0.111,
      "velocity": 91,
      "chip": "ym2612"
    },
    {
      "channel": 1,
      "note": 54,
      "start": 9.6101,
      "duration": 0.1119,
      "velocity": 80,
      "chip": "ym2612"
    },
    {
      "channel": 4,
      "note": 71,
      "start": 9.6476,
      "duration": 0.1116,
      "velocity": 87,
      "chip": "ym2612"
    },
    {
      "channel": 0,
      "note": 73,
      "start": 9.7218,
      "duration": 0.1146,
      "velocity": 87,
      "chip": "ym2612"
    },
    {
      "channel": 1,
      "note": 54,
      "start": 9.7225,
      "duration": 0.1142,
      "velocity": 80,
      "chip": "ym2612"
    },
    {
      "channel": 2,
      "note": 37,
      "start": 9.8379,
      "duration": 0.1069,
      "velocity": 120,
      "chip": "ym2612"
    },
    {
      "channel": 4,
      "note": 73,
      "start": 9.8713,
      "duration": 0.1112,
      "velocity": 87,
      "chip": "ym2612"
    },
    {
      "channel": 2,
      "note": 37,
      "start": 9.949,
      "duration": 0.1078,
      "velocity": 120,
      "chip": "ym2612"
    },
    {
      "channel": 1,
      "note": 52,
      "start": 10.0603,
      "duration": 0.1088,
      "velocity": 80,
      "chip": "ym2612"
    },
    {
      "channel": 2,
      "note": 37,
      "start": 10.0613,
      "duration": 0.127,
      "velocity": 120,
      "chip": "ym2612"
    },
    {
      "channel": 1,
      "note": 56,
      "start": 10.1701,
      "duration": 0.1136,
      "velocity": 80,
      "chip": "ym2612"
    },
    {
      "channel": 2,
      "note": 77,
      "start": 10.2849,
      "duration": 0.2197,
      "velocity": 127,
      "chip": "ym2612"
    },
    {
      "channel": 1,
      "note": 57,
      "start": 10.3935,
      "duration": 0.1141,
      "velocity": 80,
      "chip": "ym2612"
    },
    {
      "channel": 1,
      "note": 56,
      "start": 10.5081,
      "duration": 0.1086,
      "velocity": 80,
      "chip": "ym2612"
    },
    {
      "channel": 3,
      "note": 90,
      "start": 10.509,
      "duration": 0.1084,
      "velocity": 91,
      "chip": "ym2612"
    },
    {
      "channel": 2,
      "note": 37,
      "start": 10.5099,
      "duration": 0.127,
      "velocity": 120,
      "chip": "ym2612"
    },
    {
      "channel": 1,
      "note": 54,
      "start": 10.6173,
      "duration": 0.1209,
      "velocity": 80,
      "chip": "ym2612"
    },
    {
      "channel": 3,
      "note": 90,
      "start": 10.6183,
      "duration": 0.1237,
      "velocity": 91,
      "chip": "ym2612"
    },
    {
      "channel": 1,
      "note": 54,
      "start": 10.7389,
      "duration": 0.1053,
      "velocity": 80,
      "chip": "ym2612"
    },
    {
      "channel": 2,
      "note": 37,
      "start": 10.7432,
      "duration": 0.0973,
      "velocity": 120,
      "chip": "ym2612"
    },
    {
      "channel": 5,
      "note": 90,
      "start": 10.8049,
      "duration": 0.1112,
      "velocity": 91,
      "chip": "ym2612"
    },
    {
      "channel": 0,
      "note": 66,
      "start": 10.844,
      "duration": 0.1118,
      "velocity": 87,
      "chip": "ym2612"
    },
    {
      "channel": 1,
      "note": 54,
      "start": 10.8448,
      "duration": 0.1118,
      "velocity": 80,
      "chip": "ym2612"
    },
    {
      "channel": 2,
      "note": 37,
      "start": 10.846,
      "duration": 0.1066,
      "velocity": 120,
      "chip": "ym2612"
    },
    {
      "channel": 5,
      "note": 90,
      "start": 10.9169,
      "duration": 0.1146,
      "velocity": 91,
      "chip": "ym2612"
    },
    {
      "channel": 0,
      "note": 73,
      "start": 10.9565,
      "duration": 0.108,
      "velocity": 87,
      "chip": "ym2612"
    },
    {
      "channel": 3,
      "note": 90,
      "start": 10.9578,
      "duration": 0.1077,
      "velocity": 91,
      "chip": "ym2612"
    },
    {
      "channel": 2,
      "note": 37,
      "start": 10.9589,
      "duration": 0.1258,
      "velocity": 120,
      "chip": "ym2612"
    },
    {
      "channel": 4,
      "note": 66,
      "start": 10.9915,
      "duration": 0.1119,
      "velocity": 87,
      "chip": "ym2612"
    },
    {
      "channel": 0,
      "note": 76,
      "start": 11.0652,
      "duration": 0.1141,
      "velocity": 87,
      "chip": "ym2612"
    },
    {
      "channel": 3,
      "note": 90,
      "start": 11.0663,
      "duration": 0.1139,
      "velocity": 91,
      "chip": "ym2612"
    },
    {
      "channel": 4,
      "note": 73,
      "start": 11.1041,
      "duration": 0.1103,
      "velocity": 87,
      "chip": "ym2612"
    },
    {
      "channel": 0,
      "note": 75,
      "start": 11.18,
      "duration": 0.1112,
      "velocity": 87,
      "chip": "ym2612"
    },
    {
      "channel": 2,
      "note": 77,
      "start": 11.182,
      "duration": 0.1063,
      "velocity": 127,
      "chip": "ym2612"
    },
    {
      "channel": 4,
      "note": 76,
      "start": 11.2151,
      "duration": 0.1113,
      "velocity": 87,
      "chip": "ym2612"
    },
    {
      "channel": 5,
      "note": 90,
      "start": 11.2536,
      "duration": 0.1105,
      "velocity": 91,
      "chip": "ym2612"
    },
    {
      "channel": 0,
      "note": 71,
      "start": 11.2919,
      "duration": 0.1085,
      "velocity": 87,
      "chip": "ym2612"
    },
    {
      "channel": 2,
      "note": 37,
      "start": 11.2936,
      "duration": 0.1273,
      "velocity": 120,
      "chip": "ym2612"
    },
    {
      "channel": 4,
      "note": 75,
      "start": 11.3271,
      "duration": 0.1111,
      "velocity": 87,
      "chip": "ym2612"
    },
    {
      "channel": 5,
      "note": 90,
      "start": 11.365,
      "duration": 0.1111,
      "velocity": 91,
      "chip": "ym2612"
    },
    {
      "channel": 1,
      "note": 54,
      "start": 11.4013,
      "duration": 0.1119,
      "velocity": 80,
      "chip": "ym2612"
    },
    {
      "channel": 4,
      "note": 71,
      "start": 11.4389,
      "duration": 0.1116,
      "velocity": 87,
      "chip": "ym2612"
    },
    {
      "channel": 0,
      "note": 73,
      "start": 11.5131,
      "duration": 0.114,
      "velocity": 87,
      "chip": "ym2612"
    },
    {
      "channel": 1,
      "note": 54,
      "start": 11.5138,
      "duration": 0.1136,
      "velocity": 80,
      "chip": "ym2612"
    },
    {
      "channel": 2,
      "note": 37,
      "start": 11.6285,
      "duration": 0.1081,
      "velocity": 120,
      "chip": "ym2612"
    },
    {
      "channel": 4,
      "note": 73,
      "start": 11.6626,
      "duration": 0.1116,
      "velocity": 87,
      "chip": "ym2612"
    },
    {
      "channel": 0,
      "note": 71,
      "start": 11.7402,
      "duration": 0.1109,
      "velocity": 87,
      "chip": "ym2612"
    },
    {
      "channel": 2,
      "note": 37,
      "start": 11.7416,
      "duration": 0.1066,
      "velocity": 120,
      "chip": "ym2612"
    },
    {
      "channel": 2,
      "note": 37,
      "start": 11.8524,
      "duration": 0.1276,
      "velocity": 120,
      "chip": "ym2612"
    },
    {
      "channel": 4,
      "note": 71,
      "start": 11.8875,
      "duration": 0.1106,
      "velocity": 87,
      "chip": "ym2612"
    },
    {
      "channel": 0,
      "note": 69,
      "start": 11.9608,
      "duration": 0.1141,
      "velocity": 87,
      "chip": "ym2612"
    },
    {
      "channel": 2,
      "note": 77,
      "start": 12.0762,
      "duration": 0.2198,
      "velocity": 127,
      "chip": "ym2612"
    },
    {
      "channel": 4,
      "note": 69,
      "start": 12.1104,
      "duration": 0.1116,
      "velocity": 87,
      "chip": "ym2612"
    },
    {
      "channel": 0,
      "note": 68,
      "start": 12.1847,
      "duration": 0.1141,
      "velocity": 87,
      "chip": "ym2612"
    },
    {
      "channel": 0,
      "note": 69,
      "start": 12.2995,
      "duration": 0.1084,
      "velocity": 87,
      "chip": "ym2612"
    },
    {
      "channel": 3,
      "note": 90,
      "start": 12.3005,
      "duration": 0.1083,
      "velocity": 91,
      "chip": "ym2612"
    },
    {
      "channel": 2,
      "note": 37,
      "start": 12.3014,
      "duration": 0.1267,
      "velocity": 120,
      "chip": "ym2612"
    },
    {
      "channel": 4,
      "note": 68,
      "start": 12.3349,
      "duration": 0.1112,
      "velocity": 87,
      "chip": "ym2612"
    },
    {
      "channel": 0,
      "note": 71,
      "start": 12.4087,
      "duration": 0.1144,
      "velocity": 87,
      "chip": "ym2612"
    },
    {
      "channel": 3,
      "note": 90,
      "start": 12.4097,
      "duration": 0.1174,
      "velocity": 91,
      "chip": "ym2612"
    },
    {
      "channel": 4,
      "note": 69,
      "start": 12.447,
      "duration": 0.1107,
      "velocity": 87,
      "chip": "ym2612"
    },
    {
      "channel": 1,
      "note": 54,
      "start": 12.524,
      "duration": 0.1118,
      "velocity": 80,
      "chip": "ym2612"
    },
    {
      "channel": 2,
      "note": 37,
      "start": 12.5288,
      "duration": 0.103,
      "velocity": 120,
      "chip": "ym2612"
    },
    {
      "channel": 4,
      "note": 71,
      "start": 12.5584,
      "duration": 0.1121,
      "velocity": 87,
      "chip": "ym2612"
    },
    {
      "channel": 5,
      "note": 90,
      "start": 12.5964,
      "duration": 0.1111,
      "velocity": 91,
      "chip": "ym2612"
    },
    {
      "channel": 0,
      "note": 66,
      "start": 12.6356,
      "duration": 0.111,
      "velocity": 87,
      "chip": "ym2612"
    },
    {
      "channel": 1,
      "note": 54,
      "start": 12.6367,
      "duration": 0.1107,
      "velocity": 80,
      "chip": "ym2612"
    },
    {
      "channel": 2,
      "note": 37,
      "start": 12.6384,
      "duration": 0.1054,
      "velocity": 120,
      "chip": "ym2612"
    },
    {
      "channel": 5,
      "note": 90,
      "start": 12.7083,
      "duration": 0.1151,
      "velocity": 91,
      "chip": "ym2612"
    },
    {
      "channel": 0,
      "note": 73,
      "start": 12.7473,
      "duration": 0.1089,
      "velocity": 87,
      "chip": "ym2612"
    },
    {
      "channel": 3,
      "note": 90,
      "start": 12.7485,
      "duration": 0.1087,
      "velocity": 91,
      "chip": "ym2612"
    },
    {
      "channel": 2,
      "note": 37,
      "start": 12.7497,
      "duration": 0.1263,
      "velocity": 120,
      "chip": "ym2612"
    },
    {
      "channel": 4,
      "note": 66,
      "start": 12.7828,
      "duration": 0.1113,
      "velocity": 87,
      "chip": "ym2612"
    },
    {
      "channel": 0,
      "note": 76,
      "start": 12.8569,
      "duration": 0.1141,
      "velocity": 87,
      "chip": "ym2612"
    },
    {
      "channel": 3,
      "note": 90,
      "start": 12.858,
      "duration": 0.1141,
      "velocity": 91,
      "chip": "ym2612"
    },
    {
      "channel": 4,
      "note": 73,
      "start": 12.8947,
      "duration": 0.111,
      "velocity": 87,
      "chip": "ym2612"
    },
    {
      "channel": 0,
      "note": 75,
      "start": 12.9718,
      "duration": 0.1107,
      "velocity": 87,
      "chip": "ym2612"
    },
    {
      "channel": 2,
      "note": 77,
      "start": 12.9737,
      "duration": 0.1059,
      "velocity": 127,
      "chip": "ym2612"
    },
    {
      "channel": 4,
      "note": 76,
      "start": 13.0064,
      "duration": 0.1112,
      "velocity": 87,
      "chip": "ym2612"
    },
    {
      "channel": 5,
      "note": 90,
      "start": 13.0444,
      "duration": 0.1111,
      "velocity": 91,
      "chip": "ym2612"
    },
    {
      "channel": 0,
      "note": 71,
      "start": 13.0832,
      "duration": 0.1085,
      "velocity": 87,
      "chip": "ym2612"
    },
    {
      "channel": 2,
      "note": 37,
      "start": 13.0849,
      "duration": 0.1268,
      "velocity": 120,
      "chip": "ym2612"
    },
    {
      "channel": 4,
      "note": 75,
      "start": 13.1187,
      "duration": 0.1108,
      "velocity": 87,
      "chip": "ym2612"
    },
    {
      "channel": 5,
      "note": 90,
      "start": 13.1562,
      "duration": 0.111,
      "velocity": 91,
      "chip": "ym2612"
    },
    {
      "channel": 1,
      "note": 54,
      "start": 13.1925,
      "duration": 0.112,
      "velocity": 80,
      "chip": "ym2612"
    },
    {
      "channel": 4,
      "note": 71,
      "start": 13.2302,
      "duration": 0.1117,
      "velocity": 87,
      "chip": "ym2612"
    },
    {
      "channel": 0,
      "note": 73,
      "start": 13.3043,
      "duration": 0.114,
      "velocity": 87,
      "chip": "ym2612"
    },
    {
      "channel": 1,
      "note": 54,
      "start": 13.3051,
      "duration": 0.1137,
      "velocity": 80,
      "chip": "ym2612"
    },
    {
      "channel": 2,
      "note": 37,
      "start": 13.4204,
      "duration": 0.107,
      "velocity": 120,
      "chip": "ym2612"
    },
    {
      "channel": 4,
      "note": 73,
      "start": 13.4543,
      "duration": 0.1108,
      "velocity": 87,
      "chip": "ym2612"
    },
    {
      "channel": 2,
      "note": 37,
      "start": 13.5316,
      "duration": 0.1078,
      "velocity": 120,
      "chip": "ym2612"
    },
    {
      "channel": 1,
      "note": 52,
      "start": 13.6429,
      "duration": 0.112,
      "velocity": 80,
      "chip": "ym2612"
    },
    {
      "channel": 2,
      "note": 77,
      "start": 13.644,
      "duration": 0.1074,
      "velocity": 127,
      "chip": "ym2612"
    },
    {
      "channel": 1,
      "note": 56,
      "start": 13.7555,
      "duration": 0.1107,
      "velocity": 80,
      "chip": "ym2612"
    },
    {
      "channel": 2,
      "note": 77,
      "start": 13.7566,
      "duration": 0.0322,
      "velocity": 127,
      "chip": "ym2612"
    },
    {
      "channel": 2,
      "note": 77,
      "start": 13.7929,
      "duration": 0.0704,
      "velocity": 127,
      "chip": "ym2612"
    },
    {
      "channel": 2,
      "note": 77,
      "start": 13.8675,
      "duration": 0.1078,
      "velocity": 127,
      "chip": "ym2612"
    },
    {
      "channel": 1,
      "note": 57,
      "start": 13.9788,
      "duration": 0.1114,
      "velocity": 80,
      "chip": "ym2612"
    },
    {
      "channel": 2,
      "note": 77,
      "start": 13.9798,
      "duration": 0.1074,
      "velocity": 127,
      "chip": "ym2612"
    },
    {
      "channel": 1,
      "note": 56,
      "start": 14.0907,
      "duration": 0.1115,
      "velocity": 80,
      "chip": "ym2612"
    },
    {
      "channel": 3,
      "note": 90,
      "start": 14.0917,
      "duration": 0.1117,
      "velocity": 91,
      "chip": "ym2612"
    },
    {
      "channel": 2,
      "note": 77,
      "start": 14.0927,
      "duration": 0.1065,
      "velocity": 127,
      "chip": "ym2612"
    },
    {
      "channel": 1,
      "note": 54,
      "start": 14.2033,
      "duration": 0.112,
      "velocity": 80,
      "chip": "ym2612"
    },
    {
      "channel": 3,
      "note": 90,
      "start": 14.2042,
      "duration": 0.1119,
      "velocity": 91,
      "chip": "ym2612"
    },
    {
      "channel": 2,
      "note": 77,
      "start": 14.2052,
      "duration": 0.1059,
      "velocity": 127,
      "chip": "ym2612"
    },
    {
      "channel": 0,
      "note": 83,
      "start": 14.3149,
      "duration": 0.111,
      "velocity": 87,
      "chip": "ym2612"
    },
    {
      "channel": 1,
      "note": 59,
      "start": 14.3158,
      "duration": 0.111,
      "velocity": 80,
      "chip": "ym2612"
    },
    {
      "channel": 2,
      "note": 86,
      "start": 14.3176,
      "duration": 0.1054,
      "velocity": 127,
      "chip": "ym2612"
    },
    {
      "channel": 5,
      "note": 90,
      "start": 14.388,
      "duration": 0.1111,
      "velocity": 91,
      "chip": "ym2612"
    },
    {
      "channel": 0,
      "note": 81,
      "start": 14.4266,
      "duration": 0.1119,
      "velocity": 87,
      "chip": "ym2612"
    },
    {
      "channel": 1,
      "note": 59,
      "start": 14.4274,
      "duration": 0.5599,
      "velocity": 80,
      "chip": "ym2612"
    },
    {
      "channel": 2,
      "note": 86,
      "start": 14.4288,
      "duration": 0.1065,
      "velocity": 127,
      "chip": "ym2612"
    },
    {
      "channel": 4,
      "note": 83,
      "start": 14.4622,
      "duration": 0.1113,
      "velocity": 87,
      "chip": "ym2612"
    },
    {
      "channel": 5,
      "note": 90,
      "start": 14.5,
      "duration": 0.1116,
      "velocity": 91,
      "chip": "ym2612"
    },
    {
      "channel": 0,
      "note": 78,
      "start": 14.5392,
      "duration": 0.1105,
      "velocity": 87,
      "chip": "ym2612"
    },
    {
      "channel": 3,
      "note": 83,
      "start": 14.5405,
      "duration": 0.1104,
      "velocity": 91,
      "chip": "ym2612"
    },
    {
      "channel": 2,
      "note": 82,
      "start": 14.5422,
      "duration": 0.1048,
      "velocity": 127,
      "chip": "ym2612"
    },
    {
      "channel": 4,
      "note": 81,
      "start": 14.5743,
      "duration": 0.1115,
      "velocity": 87,
      "chip": "ym2612"
    },
    {
      "channel": 0,
      "note": 76,
      "start": 14.6505,
      "duration": 0.1113,
      "velocity": 87,
      "chip": "ym2612"
    },
    {
      "channel": 3,
      "note": 83,
      "start": 14.652,
      "duration": 0.111,
      "velocity": 91,
      "chip": "ym2612"
    },
    {
      "channel": 2,
      "note": 82,
      "start": 14.6538,
      "duration": 0.1051,
      "velocity": 127,
      "chip": "ym2612"
    },
    {
      "channel": 4,
      "note": 78,
      "start": 14.6869,
      "duration": 0.1104,
      "velocity": 87,
      "chip": "ym2612"
    },
    {
      "channel": 0,
      "note": 71,
      "start": 14.7625,
      "duration": 0.2238,
      "velocity": 87,
      "chip": "ym2612"
    },
    {
      "channel": 2,
      "note": 74,
      "start": 14.7649,
      "duration": 0.218,
      "velocity": 127,
      "chip": "ym2612"
    },
    {
      "channel": 4,
      "note": 76,
      "start": 14.798,
      "duration": 0.1115,
      "velocity": 87,
      "chip": "ym2612"
    },
    {
      "channel": 5,
      "note": 83,
      "start": 14.8365,
      "duration": 0.1107,
      "velocity": 91,
      "chip": "ym2612"
    },
    {
      "channel": 3,
      "note": 83,
      "start": 14.8726,
      "duration": 0.1154,
      "velocity": 91,
      "chip": "ym2612"
    },
    {
      "channel": 4,
      "note": 71,
      "start": 14.9102,
      "duration": 0.2232,
      "velocity": 87,
      "chip": "ym2612"
    },
    {
      "channel": 5,
      "note": 83,
      "start": 14.948,
      "duration": 0.111,
      "velocity": 91,
      "chip": "ym2612"
    },
    {
      "channel": 0,
      "note": 83,
      "start": 14.9871,
      "duration": 0.1106,
      "velocity": 87,
      "chip": "ym2612"
    },
    {
      "channel": 1,
      "note": 59,
      "start": 14.9878,
      "duration": 0.1107,
      "velocity": 80,
      "chip": "ym2612"
    },
    {
      "channel": 2,
      "note": 86,
      "start": 14.9902,
      "duration": 0.1047,
      "velocity": 127,
      "chip": "ym2612"
    },
    {
      "channel": 0,
      "note": 81,
      "start": 15.0984,
      "duration": 0.1112,
      "velocity": 87,
      "chip": "ym2612"
    },
    {
      "channel": 1,
      "note": 59,
      "start": 15.0991,
      "duration": 0.5588,
      "velocity": 80,
      "chip": "ym2612"
    },
    {
      "channel": 3,
      "note": 83,
      "start": 15.1001,
      "duration": 0.1107,
      "velocity": 91,
      "chip": "ym2612"
    },
    {
      "channel": 2,
      "note": 86,
      "start": 15.1016,
      "duration": 0.1052,
      "velocity": 127,
      "chip": "ym2612"
    },
    {
      "channel": 4,
      "note": 83,
      "start": 15.1342,
      "duration": 0.111,
      "velocity": 87,
      "chip": "ym2612"
    },
    {
      "channel": 5,
      "note": 83,
      "start": 15.1723,
      "duration": 0.1105,
      "velocity": 91,
      "chip": "ym2612"
    },
    {
      "channel": 0,
      "note": 78,
      "start": 15.2103,
      "duration": 0.112,
      "velocity": 87,
      "chip": "ym2612"
    },
    {
      "channel": 2,
      "note": 82,
      "start": 15.2128,
      "duration": 0.1063,
      "velocity": 127,
      "chip": "ym2612"
    },
    {
      "channel": 4,
      "note": 81,
      "start": 15.2458,
      "duration": 0.1112,
      "velocity": 87,
      "chip": "ym2612"
    },
    {
      "channel": 0,
      "note": 76,
      "start": 15.323,
      "duration": 0.1106,
      "velocity": 87,
      "chip": "ym2612"
    },
    {
      "channel": 2,
      "note": 82,
      "start": 15.3248,
      "duration": 0.1059,
      "velocity": 127,
      "chip": "ym2612"
    },
    {
      "channel": 4,
      "note": 78,
      "start": 15.3578,
      "duration": 0.1114,
      "velocity": 87,
      "chip": "ym2612"
    },
    {
      "channel": 5,
      "note": 83,
      "start": 15.3956,
      "duration": 0.1111,
      "velocity": 91,
      "chip": "ym2612"
    },
    {
      "channel": 0,
      "note": 71,
      "start": 15.4342,
      "duration": 0.6714,
      "velocity": 87,
      "chip": "ym2612"
    },
    {
      "channel": 2,
      "note": 74,
      "start": 15.4371,
      "duration": 0.1056,
      "velocity": 127,
      "chip": "ym2612"
    },
    {
      "channel": 4,
      "note": 76,
      "start": 15.4703,
      "duration": 0.1134,
      "velocity": 87,
      "chip": "ym2612"
    },
    {
      "channel": 2,
      "note": 77,
      "start": 15.5477,
      "duration": 0.0323,
      "velocity": 127,
      "chip": "ym2612"
    },
    {
      "channel": 4,
      "note": 71,
      "start": 15.5844,
      "duration": 0.6688,
      "velocity": 87,
      "chip": "ym2612"
    },
    {
      "channel": 2,
      "note": 77,
      "start": 15.5856,
      "duration": 0.069,
      "velocity": 127,
      "chip": "ym2612"
    },
    {
      "channel": 1,
      "note": 54,
      "start": 15.6585,
      "duration": 0.112,
      "velocity": 80,
      "chip": "ym2612"
    },
    {
      "channel": 2,
      "note": 77,
      "start": 15.6599,
      "duration": 0.1067,
      "velocity": 127,
      "chip": "ym2612"
    },
    {
      "channel": 1,
      "note": 55,
      "start": 15.7711,
      "duration": 0.1107,
      "velocity": 80,
      "chip": "ym2612"
    },
    {
      "channel": 2,
      "note": 77,
      "start": 15.7726,
      "duration": 0.1059,
      "velocity": 127,
      "chip": "ym2612"
    },
    {
      "channel": 1,
      "note": 56,
      "start": 15.8824,
      "duration": 0.1113,
      "velocity": 80,
      "chip": "ym2612"
    },
    {
      "channel": 2,
      "note": 77,
      "start": 15.8839,
      "duration": 0.1066,
      "velocity": 127,
      "chip": "ym2612"
    },
    {
      "channel": 1,
      "note": 57,
      "start": 15.9943,
      "duration": 0.1123,
      "velocity": 80,
      "chip": "ym2612"
    },
    {
      "channel": 2,
      "note": 77,
      "start": 15.9958,
      "duration": 0.1067,
      "velocity": 127,
      "chip": "ym2612"
    },
    {
      "channel": 0,
      "note": 83,
      "start": 16.1064,
      "duration": 0.1107,
      "velocity": 87,
      "chip": "ym2612"
    },
    {
      "channel": 1,
      "note": 59,
      "start": 16.1071,
      "duration": 0.1109,
      "velocity": 80,
      "chip": "ym2612"
    },
    {
      "channel": 2,
      "note": 86,
      "start": 16.1093,
      "duration": 0.1051,
      "velocity": 127,
      "chip": "ym2612"
    },
    {
      "channel": 0,
      "note": 81,
      "start": 16.218,
      "duration": 0.1111,
      "velocity": 87,
      "chip": "ym2612"
    },
    {
      "channel": 1,
      "note": 59,
      "start": 16.2189,
      "duration": 0.5585,
      "velocity": 80,
      "chip": "ym2612"
    },
    {
      "channel": 2,
      "note": 86,
      "start": 16.221,
      "duration": 0.1053,
      "velocity": 127,
      "chip": "ym2612"
    },
    {
      "channel": 4,
      "note": 83,
      "start": 16.254,
      "duration": 0.1108,
      "velocity": 87,
      "chip": "ym2612"
    },
    {
      "channel": 0,
      "note": 78,
      "start": 16.3298,
      "duration": 0.1113,
      "velocity": 87,
      "chip": "ym2612"
    },
    {
      "channel": 3,
      "note": 83,
      "start": 16.3311,
      "duration": 0.1111,
      "velocity": 91,
      "chip": "ym2612"
    },
    {
      "channel": 2,
      "note": 82,
      "start": 16.3325,
      "duration": 0.1057,
      "velocity": 127,
      "chip": "ym2612"
    },
    {
      "channel": 4,
      "note": 81,
      "start": 16.3656,
      "duration": 0.1112,
      "velocity": 87,
      "chip": "ym2612"
    },
    {
      "channel": 0,
      "note": 76,
      "start": 16.4417,
      "duration": 0.1119,
      "velocity": 87,
      "chip": "ym2612"
    },
    {
      "channel": 3,
      "note": 83,
      "start": 16.443,
      "duration": 0.1118,
      "velocity": 91,
      "chip": "ym2612"
    },
    {
      "channel": 2,
      "note": 82,
      "start": 16.4444,
      "duration": 0.1058,
      "velocity": 127,
      "chip": "ym2612"
    },
    {
      "channel": 4,
      "note": 78,
      "start": 16.4776,
      "duration": 0.111,
      "velocity": 87,
      "chip": "ym2612"
    },
    {
      "channel": 0,
      "note": 71,
      "start": 16.5544,
      "duration": 0.5557,
      "velocity": 87,
      "chip": "ym2612"
    },
    {
      "channel": 2,
      "note": 74,
      "start": 16.5568,
      "duration": 0.2174,
      "velocity": 127,
      "chip": "ym2612"
    },
    {
      "channel": 4,
      "note": 76,
      "start": 16.5893,
      "duration": 0.1115,
      "velocity": 87,
      "chip": "ym2612"
    },
    {
      "channel": 5,
      "note": 83,
      "start": 16.6271,
      "duration": 0.1115,
      "velocity": 91,
      "chip": "ym2612"
    },
    {
      "channel": 3,
      "note": 83,
      "start": 16.6638,
      "duration": 0.1143,
      "velocity": 91,
      "chip": "ym2612"
    },
    {
      "channel": 4,
      "note": 71,
      "start": 16.7015,
      "duration": 0.5588,
      "velocity": 87,
      "chip": "ym2612"
    },
    {
      "channel": 5,
      "note": 83,
      "start": 16.7393,
      "duration": 0.111,
      "velocity": 91,
      "chip": "ym2612"
    },
    {
      "channel": 1,
      "note": 59,
      "start": 16.778,
      "duration": 0.1091,
      "velocity": 80,
      "chip": "ym2612"
    },
    {
      "channel": 2,
      "note": 77,
      "start": 16.7802,
      "duration": 0.2179,
      "velocity": 127,
      "chip": "ym2612"
    },
    {
      "channel": 1,
      "note": 59,
      "start": 16.8877,
      "duration": 0.5618,
      "velocity": 80,
      "chip": "ym2612"
    },
    {
      "channel": 3,
      "note": 83,
      "start": 16.8886,
      "duration": 0.1131,
      "velocity": 91,
      "chip": "ym2612"
    },
    {
      "channel": 5,
      "note": 83,
      "start": 16.9632,
      "duration": 0.1109,
      "velocity": 91,
      "chip": "ym2612"
    },
    {
      "channel": 2,
      "note": 77,
      "start": 17.0043,
      "duration": 0.2177,
      "velocity": 127,
      "chip": "ym2612"
    },
    {
      "channel": 0,
      "note": 66,
      "start": 17.1108,
      "duration": 0.114,
      "velocity": 87,
      "chip": "ym2612"
    },
    {
      "channel": 5,
      "note": 83,
      "start": 17.1876,
      "duration": 0.1105,
      "velocity": 91,
      "chip": "ym2612"
    },
    {
      "channel": 0,
      "note": 78,
      "start": 17.2255,
      "duration": 0.1085,
      "velocity": 87,
      "chip": "ym2612"
    },
    {
      "channel": 2,
      "note": 77,
      "start": 17.2276,
      "duration": 0.2183,
      "velocity": 127,
      "chip": "ym2612"
    },
    {
      "channel": 4,
      "note": 66,
      "start": 17.261,
      "duration": 0.1112,
      "velocity": 87,
      "chip": "ym2612"
    },
    {
      "channel": 0,
      "note": 66,
      "start": 17.3347,
      "duration": 0.114,
      "velocity": 87,
      "chip": "ym2612"
    },
    {
      "channel": 4,
      "note": 78,
      "start": 17.373,
      "duration": 0.111,
      "velocity": 87,
      "chip": "ym2612"
    },
    {
      "channel": 0,
      "note": 67,
      "start": 17.4494,
      "duration": 0.1112,
      "velocity": 87,
      "chip": "ym2612"
    },
    {
      "channel": 2,
      "note": 77,
      "start": 17.4512,
      "duration": 0.1067,
      "velocity": 127,
      "chip": "ym2612"
    },
    {
      "channel": 4,
      "note": 66,
      "start": 17.4847,
      "duration": 0.1111,
      "velocity": 87,
      "chip": "ym2612"
    },
    {
      "channel": 0,
      "note": 79,
      "start": 17.5613,
      "duration": 0.1115,
      "velocity": 87,
      "chip": "ym2612"
    },
    {
      "channel": 2,
      "note": 77,
      "start": 17.5629,
      "duration": 0.1071,
      "velocity": 127,
      "chip": "ym2612"
    },
    {
      "channel": 4,
      "note": 67,
      "start": 17.5965,
      "duration": 0.1117,
      "velocity": 87,
      "chip": "ym2612"
    },
    {
      "channel": 0,
      "note": 68,
      "start": 17.6735,
      "duration": 0.1111,
      "velocity": 87,
      "chip": "ym2612"
    },
    {
      "channel": 2,
      "note": 77,
      "start": 17.6751,
      "duration": 0.1067,
      "velocity": 127,
      "chip": "ym2612"
    },
    {
      "channel": 4,
      "note": 79,
      "start": 17.7089,
      "duration": 0.1113,
      "velocity": 87,
      "chip": "ym2612"
    },
    {
      "channel": 0,
      "note": 80,
      "start": 17.7855,
      "duration": 0.1112,
      "velocity": 87,
      "chip": "ym2612"
    },
    {
      "channel": 2,
      "note": 77,
      "start": 17.7875,
      "duration": 0.1063,
      "velocity": 127,
      "chip": "ym2612"
    },
    {
      "channel": 4,
      "note": 68,
      "start": 17.8209,
      "duration": 0.1107,
      "velocity": 87,
      "chip": "ym2612"
    },
    {
      "channel": 1,
      "note": 54,
      "start": 17.8977,
      "duration": 0.1116,
      "velocity": 80,
      "chip": "ym2612"
    },
    {
      "channel": 2,
      "note": 37,
      "start": 17.8997,
      "duration": 0.106,
      "velocity": 120,
      "chip": "ym2612"
    },
    {
      "channel": 4,
      "note": 80,
      "start": 17.9323,
      "duration": 0.1117,
      "velocity": 87,
      "chip": "ym2612"
    },
    {
      "channel": 0,
      "note": 66,
      "start": 18.0092,
      "duration": 0.1119,
      "velocity": 87,
      "chip": "ym2612"
    },
    {
      "channel": 1,
      "note": 54,
      "start": 18.0099,
      "duration": 0.1121,
      "velocity": 80,
      "chip": "ym2612"
    },
    {
      "channel": 2,
      "note": 37,
      "start": 18.0113,
      "duration": 0.1063,
      "velocity": 120,
      "chip": "ym2612"
    },
    {
      "channel": 0,
      "note": 73,
      "start": 18.1218,
      "duration": 0.1078,
      "velocity": 87,
      "chip": "ym2612"
    },
    {
      "channel": 3,
      "note": 90,
      "start": 18.1232,
      "duration": 0.1074,
      "velocity": 91,
      "chip": "ym2612"
    },
    {
      "channel": 2,
      "note": 37,
      "start": 18.1241,
      "duration": 0.1257,
      "velocity": 120,
      "chip": "ym2612"
    },
    {
      "channel": 4,
      "note": 66,
      "start": 18.1566,
      "duration": 0.1113,
      "velocity": 87,
      "chip": "ym2612"
    },
    {
      "channel": 0,
      "note": 76,
      "start": 18.2304,
      "duration": 0.1141,
      "velocity": 87,
      "chip": "ym2612"
    },
    {
      "channel": 3,
      "note": 90,
      "start": 18.2314,
      "duration": 0.114,
      "velocity": 91,
      "chip": "ym2612"
    },
    {
      "channel": 4,
      "note": 73,
      "start": 18.2688,
      "duration": 0.1107,
      "velocity": 87,
      "chip": "ym2612"
    },
    {
      "channel": 0,
      "note": 75,
      "start": 18.3451,
      "duration": 0.1112,
      "velocity": 87,
      "chip": "ym2612"
    },
    {
      "channel": 2,
      "note": 77,
      "start": 18.3471,
      "duration": 0.1064,
      "velocity": 127,
      "chip": "ym2612"
    },
    {
      "channel": 4,
      "note": 76,
      "start": 18.3803,
      "duration": 0.1112,
      "velocity": 87,
      "chip": "ym2612"
    },
    {
      "channel": 5,
      "note": 90,
      "start": 18.4181,
      "duration": 0.1111,
      "velocity": 91,
      "chip": "ym2612"
    },
    {
      "channel": 0,
      "note": 71,
      "start": 18.4571,
      "duration": 0.1084,
      "velocity": 87,
      "chip": "ym2612"
    },
    {
      "channel": 2,
      "note": 37,
      "start": 18.4588,
      "duration": 0.127,
      "velocity": 120,
      "chip": "ym2612"
    },
    {
      "channel": 4,
      "note": 75,
      "start": 18.4922,
      "duration": 0.1116,
      "velocity": 87,
      "chip": "ym2612"
    },
    {
      "channel": 5,
      "note": 90,
      "start": 18.5301,
      "duration": 0.1111,
      "velocity": 91,
      "chip": "ym2612"
    },
    {
      "channel": 1,
      "note": 54,
      "start": 18.5664,
      "duration": 0.1119,
      "velocity": 80,
      "chip": "ym2612"
    },
    {
      "channel": 4,
      "note": 71,
      "start": 18.6045,
      "duration": 0.1112,
      "velocity": 87,
      "chip": "ym2612"
    },
    {
      "channel": 0,
      "note": 73,
      "start": 18.6782,
      "duration": 0.1141,
      "velocity": 87,
      "chip": "ym2612"
    },
    {
      "channel": 1,
      "note": 54,
      "start": 18.6789,
      "duration": 0.1137,
      "velocity": 80,
      "chip": "ym2612"
    },
    {
      "channel": 2,
      "note": 37,
      "start": 18.7937,
      "duration": 0.1076,
      "velocity": 120,
      "chip": "ym2612"
    },
    {
      "channel": 4,
      "note": 73,
      "start": 18.8277,
      "duration": 0.1116,
      "velocity": 87,
      "chip": "ym2612"
    },
    {
      "channel": 0,
      "note": 71,
      "start": 18.9055,
      "duration": 0.1106,
      "velocity": 87,
      "chip": "ym2612"
    },
    {
      "channel": 2,
      "note": 37,
      "start": 18.9069,
      "duration": 0.1064,
      "velocity": 120,
      "chip": "ym2612"
    },
    {
      "channel": 2,
      "note": 37,
      "start": 19.0173,
      "duration": 0.1278,
      "velocity": 120,
      "chip": "ym2612"
    },
    {
      "channel": 4,
      "note": 71,
      "start": 19.0516,
      "duration": 0.1116,
      "velocity": 87,
      "chip": "ym2612"
    },
    {
      "channel": 0,
      "note": 69,
      "start": 19.126,
      "duration": 0.114,
      "velocity": 87,
      "chip": "ym2612"
    },
    {
      "channel": 2,
      "note": 77,
      "start": 19.2414,
      "duration": 0.2198,
      "velocity": 127,
      "chip": "ym2612"
    },
    {
      "channel": 4,
      "note": 69,
      "start": 19.2755,
      "duration": 0.1118,
      "velocity": 87,
      "chip": "ym2612"
    },
    {
      "channel": 0,
      "note": 68,
      "start": 19.3499,
      "duration": 0.1141,
      "velocity": 87,
      "chip": "ym2612"
    },
    {
      "channel": 0,
      "note": 69,
      "start": 19.4646,
      "duration": 0.1084,
      "velocity": 87,
      "chip": "ym2612"
    },
    {
      "channel": 3,
      "note": 90,
      "start": 19.4657,
      "duration": 0.1083,
      "velocity": 91,
      "chip": "ym2612"
    },
    {
      "channel": 2,
      "note": 37,
      "start": 19.4666,
      "duration": 0.1267,
      "velocity": 120,
      "chip": "ym2612"
    },
    {
      "channel": 4,
      "note": 68,
      "start": 19.5001,
      "duration": 0.1112,
      "velocity": 87,
      "chip": "ym2612"
    },
    {
      "channel": 0,
      "note": 71,
      "start": 19.5737,
      "duration": 0.1151,
      "velocity": 87,
      "chip": "ym2612"
    },
    {
      "channel": 3,
      "note": 90,
      "start": 19.5748,
      "duration": 0.1154,
      "velocity": 91,
      "chip": "ym2612"
    },
    {
      "channel": 4,
      "note": 69,
      "start": 19.612,
      "duration": 0.1109,
      "velocity": 87,
      "chip": "ym2612"
    },
    {
      "channel": 1,
      "note": 54,
      "start": 19.6897,
      "duration": 0.1109,
      "velocity": 80,
      "chip": "ym2612"
    },
    {
      "channel": 2,
      "note": 37,
      "start": 19.6917,
      "duration": 0.1051,
      "velocity": 120,
      "chip": "ym2612"
    },
    {
      "channel": 4,
      "note": 71,
      "start": 19.7236,
      "duration": 0.1119,
      "velocity": 87,
      "chip": "ym2612"
    },
    {
      "channel": 5,
      "note": 90,
      "start": 19.7615,
      "duration": 0.1112,
      "velocity": 91,
      "chip": "ym2612"
    },
    {
      "channel": 0,
      "note": 66,
      "start": 19.8004,
      "duration": 0.1114,
      "velocity": 87,
      "chip": "ym2612"
    },
    {
      "channel": 1,
      "note": 54,
      "start": 19.8012,
      "duration": 0.1115,
      "velocity": 80,
      "chip": "ym2612"
    },
    {
      "channel": 2,
      "note": 37,
      "start": 19.8034,
      "duration": 0.1055,
      "velocity": 120,
      "chip": "ym2612"
    },
    {
      "channel": 5,
      "note": 90,
      "start": 19.8734,
      "duration": 0.1121,
      "velocity": 91,
      "chip": "ym2612"
    },
    {
      "channel": 0,
      "note": 73,
      "start": 19.9125,
      "duration": 0.1085,
      "velocity": 87,
      "chip": "ym2612"
    },
    {
      "channel": 3,
      "note": 90,
      "start": 19.9138,
      "duration": 0.1081,
      "velocity": 91,
      "chip": "ym2612"
    },
    {
      "channel": 2,
      "note": 37,
      "start": 19.9149,
      "duration": 0.1262,
      "velocity": 120,
      "chip": "ym2612"
    },
    {
      "channel": 4,
      "note": 66,
      "start": 19.9479,
      "duration": 0.1112,
      "velocity": 87,
      "chip": "ym2612"
    },
    {
      "channel": 0,
      "note": 76,
      "start": 20.0217,
      "duration": 0.1146,
      "velocity": 87,
      "chip": "ym2612"
    },
    {
      "channel": 3,
      "note": 90,
      "start": 20.0227,
      "duration": 0.1146,
      "velocity": 91,
      "chip": "ym2612"
    },
    {
      "channel": 4,
      "note": 73,
      "start": 20.0598,
      "duration": 0.1111,
      "velocity": 87,
      "chip": "ym2612"
    },
    {
      "channel": 0,
      "note": 75,
      "start": 20.137,
      "duration": 0.1106,
      "velocity": 87,
      "chip": "ym2612"
    },
    {
      "channel": 2,
      "note": 77,
      "start": 20.139,
      "duration": 0.1057,
      "velocity": 127,
      "chip": "ym2612"
    },
    {
      "channel": 4,
      "note": 76,
      "start": 20.1716,
      "duration": 0.1112,
      "velocity": 87,
      "chip": "ym2612"
    },
    {
      "channel": 5,
      "note": 90,
      "start": 20.2095,
      "duration": 0.1115,
      "velocity": 91,
      "chip": "ym2612"
    },
    {
      "channel": 0,
      "note": 71,
      "start": 20.2483,
      "duration": 0.1085,
      "velocity": 87,
      "chip": "ym2612"
    },
    {
      "channel": 2,
      "note": 37,
      "start": 20.25,
      "duration": 0.1268,
      "velocity": 120,
      "chip": "ym2612"
    },
    {
      "channel": 4,
      "note": 75,
      "start": 20.2835,
      "duration": 0.1111,
      "velocity": 87,
      "chip": "ym2612"
    },
    {
      "channel": 5,
      "note": 90,
      "start": 20.3217,
      "duration": 0.1107,
      "velocity": 91,
      "chip": "ym2612"
    },
    {
      "channel": 1,
      "note": 54,
      "start": 20.3576,
      "duration": 0.1125,
      "velocity": 80,
      "chip": "ym2612"
    },
    {
      "channel": 4,
      "note": 71,
      "start": 20.3953,
      "duration": 0.1116,
      "velocity": 87,
      "chip": "ym2612"
    },
    {
      "channel": 0,
      "note": 73,
      "start": 20.47,
      "duration": 0.1135,
      "velocity": 87,
      "chip": "ym2612"
    },
    {
      "channel": 1,
      "note": 54,
      "start": 20.4707,
      "duration": 0.1131,
      "velocity": 80,
      "chip": "ym2612"
    },
    {
      "channel": 2,
      "note": 37,
      "start": 20.585,
      "duration": 0.1076,
      "velocity": 120,
      "chip": "ym2612"
    },
    {
      "channel": 4,
      "note": 73,
      "start": 20.6192,
      "duration": 0.111,
      "velocity": 87,
      "chip": "ym2612"
    },
    {
      "channel": 2,
      "note": 37,
      "start": 20.6967,
      "duration": 0.1079,
      "velocity": 120,
      "chip": "ym2612"
    },
    {
      "channel": 1,
      "note": 52,
      "start": 20.8081,
      "duration": 0.1086,
      "velocity": 80,
      "chip": "ym2612"
    },
    {
      "channel": 2,
      "note": 37,
      "start": 20.809,
      "duration": 0.1276,
      "velocity": 120,
      "chip": "ym2612"
    },
    {
      "channel": 1,
      "note": 56,
      "start": 20.9173,
      "duration": 0.1141,
      "velocity": 80,
      "chip": "ym2612"
    },
    {
      "channel": 2,
      "note": 77,
      "start": 21.0326,
      "duration": 0.2199,
      "velocity": 127,
      "chip": "ym2612"
    },
    {
      "channel": 1,
      "note": 57,
      "start": 21.1412,
      "duration": 0.1146,
      "velocity": 80,
      "chip": "ym2612"
    },
    {
      "channel": 1,
      "note": 56,
      "start": 21.2564,
      "duration": 0.1081,
      "velocity": 80,
      "chip": "ym2612"
    },
    {
      "channel": 3,
      "note": 90,
      "start": 21.2573,
      "duration": 0.1079,
      "velocity": 91,
      "chip": "ym2612"
    },
    {
      "channel": 2,
      "note": 37,
      "start": 21.2582,
      "duration": 0.1258,
      "velocity": 120,
      "chip": "ym2612"
    },
    {
      "channel": 1,
      "note": 54,
      "start": 21.3651,
      "duration": 0.1151,
      "velocity": 80,
      "chip": "ym2612"
    },
    {
      "channel": 3,
      "note": 90,
      "start": 21.3661,
      "duration": 0.1151,
      "velocity": 91,
      "chip": "ym2612"
    },
    {
      "channel": 1,
      "note": 54,
      "start": 21.4807,
      "duration": 0.1111,
      "velocity": 80,
      "chip": "ym2612"
    },
    {
      "channel": 2,
      "note": 37,
      "start": 21.4824,
      "duration": 0.1059,
      "velocity": 120,
      "chip": "ym2612"
    },
    {
      "channel": 5,
      "note": 90,
      "start": 21.5531,
      "duration": 0.1108,
      "velocity": 91,
      "chip": "ym2612"
    },
    {
      "channel": 0,
      "note": 66,
      "start": 21.5917,
      "duration": 0.1119,
      "velocity": 87,
      "chip": "ym2612"
    },
    {
      "channel": 1,
      "note": 54,
      "start": 21.5924,
      "duration": 0.112,
      "velocity": 80,
      "chip": "ym2612"
    },
    {
      "channel": 2,
      "note": 37,
      "start": 21.5937,
      "duration": 0.1065,
      "velocity": 120,
      "chip": "ym2612"
    },
    {
      "channel": 5,
      "note": 90,
      "start": 21.6647,
      "duration": 0.1119,
      "velocity": 91,
      "chip": "ym2612"
    },
    {
      "channel": 0,
      "note": 73,
      "start": 21.7043,
      "duration": 0.1079,
      "velocity": 87,
      "chip": "ym2612"
    },
    {
      "channel": 3,
      "note": 90,
      "start": 21.7056,
      "duration": 0.1076,
      "velocity": 91,
      "chip": "ym2612"
    },
    {
      "channel": 2,
      "note": 37,
      "start": 21.7068,
      "duration": 0.1256,
      "velocity": 120,
      "chip": "ym2612"
    },
    {
      "channel": 4,
      "note": 66,
      "start": 21.7391,
      "duration": 0.1113,
      "velocity": 87,
      "chip": "ym2612"
    },
    {
      "channel": 0,
      "note": 76,
      "start": 21.8129,
      "duration": 0.1141,
      "velocity": 87,
      "chip": "ym2612"
    },
    {
      "channel": 3,
      "note": 90,
      "start": 21.8139,
      "duration": 0.114,
      "velocity": 91,
      "chip": "ym2612"
    },
    {
      "channel": 4,
      "note": 73,
      "start": 21.8512,
      "duration": 0.1109,
      "velocity": 87,
      "chip": "ym2612"
    },
    {
      "channel": 0,
      "note": 75,
      "start": 21.9277,
      "duration": 0.1116,
      "velocity": 87,
      "chip": "ym2612"
    },
    {
      "channel": 2,
      "note": 77,
      "start": 21.9297,
      "duration": 0.1068,
      "velocity": 127,
      "chip": "ym2612"
    },
    {
      "channel": 4,
      "note": 76,
      "start": 21.9629,
      "duration": 0.1112,
      "velocity": 87,
      "chip": "ym2612"
    },
    {
      "channel": 5,
      "note": 90,
      "start": 22.0008,
      "duration": 0.1111,
      "velocity": 91,
      "chip": "ym2612"
    },
    {
      "channel": 0,
      "note": 71,
      "start": 22.04,
      "duration": 0.1081,
      "velocity": 87,
      "chip": "ym2612"
    },
    {
      "channel": 2,
      "note": 37,
      "start": 22.0417,
      "duration": 0.1264,
      "velocity": 120,
      "chip": "ym2612"
    },
    {
      "channel": 4,
      "note": 75,
      "start": 22.0748,
      "duration": 0.1117,
      "velocity": 87,
      "chip": "ym2612"
    },
    {
      "channel": 5,
      "note": 90,
      "start": 22.1126,
      "duration": 0.1111,
      "velocity": 91,
      "chip": "ym2612"
    },
    {
      "channel": 1,
      "note": 54,
      "start": 22.1489,
      "duration": 0.112,
      "velocity": 80,
      "chip": "ym2612"
    },
    {
      "channel": 4,
      "note": 71,
      "start": 22.1872,
      "duration": 0.1111,
      "velocity": 87,
      "chip": "ym2612"
    },
    {
      "channel": 0,
      "note": 73,
      "start": 22.2608,
      "duration": 0.114,
      "velocity": 87,
      "chip": "ym2612"
    },
    {
      "channel": 1,
      "note": 54,
      "start": 22.2615,
      "duration": 0.1136,
      "velocity": 80,
      "chip": "ym2612"
    },
    {
      "channel": 2,
      "note": 37,
      "start": 22.3762,
      "duration": 0.1077,
      "velocity": 120,
      "chip": "ym2612"
    },
    {
      "channel": 4,
      "note": 73,
      "start": 22.4102,
      "duration": 0.1117,
      "velocity": 87,
      "chip": "ym2612"
    },
    {
      "channel": 0,
      "note": 71,
      "start": 22.4881,
      "duration": 0.1106,
      "velocity": 87,
      "chip": "ym2612"
    },
    {
      "channel": 2,
      "note": 37,
      "start": 22.4896,
      "duration": 0.1063,
      "velocity": 120,
      "chip": "ym2612"
    },
    {
      "channel": 2,
      "note": 37,
      "start": 22.5999,
      "duration": 0.1279,
      "velocity": 120,
      "chip": "ym2612"
    },
    {
      "channel": 4,
      "note": 71,
      "start": 22.6342,
      "duration": 0.1116,
      "velocity": 87,
      "chip": "ym2612"
    },
    {
      "channel": 0,
      "note": 69,
      "start": 22.7085,
      "duration": 0.1143,
      "velocity": 87,
      "chip": "ym2612"
    },
    {
      "channel": 2,
      "note": 77,
      "start": 22.8241,
      "duration": 0.2195,
      "velocity": 127,
      "chip": "ym2612"
    },
    {
      "channel": 4,
      "note": 69,
      "start": 22.8581,
      "duration": 0.1121,
      "velocity": 87,
      "chip": "ym2612"
    },
    {
      "channel": 0,
      "note": 68,
      "start": 22.9325,
      "duration": 0.1139,
      "velocity": 87,
      "chip": "ym2612"
    },
    {
      "channel": 0,
      "note": 69,
      "start": 23.0471,
      "duration": 0.1085,
      "velocity": 87,
      "chip": "ym2612"
    },
    {
      "channel": 3,
      "note": 90,
      "start": 23.0482,
      "duration": 0.1085,
      "velocity": 91,
      "chip": "ym2612"
    },
    {
      "channel": 2,
      "note": 37,
      "start": 23.049,
      "duration": 0.1267,
      "velocity": 120,
      "chip": "ym2612"
    },
    {
      "channel": 4,
      "note": 68,
      "start": 23.0827,
      "duration": 0.1112,
      "velocity": 87,
      "chip": "ym2612"
    },
    {
      "channel": 0,
      "note": 71,
      "start": 23.1564,
      "duration": 0.1149,
      "velocity": 87,
      "chip": "ym2612"
    },
    {
      "channel": 3,
      "note": 90,
      "start": 23.1574,
      "duration": 0.1152,
      "velocity": 91,
      "chip": "ym2612"
    },
    {
      "channel": 4,
      "note": 69,
      "start": 23.1947,
      "duration": 0.1107,
      "velocity": 87,
      "chip": "ym2612"
    },
    {
      "channel": 1,
      "note": 54,
      "start": 23.2722,
      "duration": 0.111,
      "velocity": 80,
      "chip": "ym2612"
    },
    {
      "channel": 2,
      "note": 37,
      "start": 23.2742,
      "duration": 0.1053,
      "velocity": 120,
      "chip": "ym2612"
    },
    {
      "channel": 4,
      "note": 71,
      "start": 23.3061,
      "duration": 0.1116,
      "velocity": 87,
      "chip": "ym2612"
    },
    {
      "channel": 5,
      "note": 90,
      "start": 23.3441,
      "duration": 0.1111,
      "velocity": 91,
      "chip": "ym2612"
    },
    {
      "channel": 0,
      "note": 66,
      "start": 23.383,
      "duration": 0.1113,
      "velocity": 87,
      "chip": "ym2612"
    },
    {
      "channel": 1,
      "note": 54,
      "start": 23.3837,
      "duration": 0.1115,
      "velocity": 80,
      "chip": "ym2612"
    },
    {
      "channel": 2,
      "note": 37,
      "start": 23.3856,
      "duration": 0.1059,
      "velocity": 120,
      "chip": "ym2612"
    },
    {
      "channel": 5,
      "note": 90,
      "start": 23.4559,
      "duration": 0.112,
      "velocity": 91,
      "chip": "ym2612"
    },
    {
      "channel": 0,
      "note": 73,
      "start": 23.4951,
      "duration": 0.1085,
      "velocity": 87,
      "chip": "ym2612"
    },
    {
      "channel": 3,
      "note": 90,
      "start": 23.4963,
      "duration": 0.1081,
      "velocity": 91,
      "chip": "ym2612"
    },
    {
      "channel": 2,
      "note": 37,
      "start": 23.4975,
      "duration": 0.1262,
      "velocity": 120,
      "chip": "ym2612"
    },
    {
      "channel": 4,
      "note": 66,
      "start": 23.5305,
      "duration": 0.1112,
      "velocity": 87,
      "chip": "ym2612"
    },
    {
      "channel": 0,
      "note": 76,
      "start": 23.6042,
      "duration": 0.114,
      "velocity": 87,
      "chip": "ym2612"
    },
    {
      "channel": 3,
      "note": 90,
      "start": 23.6052,
      "duration": 0.1146,
      "velocity": 91,
      "chip": "ym2612"
    },
    {
      "channel": 4,
      "note": 73,
      "start": 23.6424,
      "duration": 0.1115,
      "velocity": 87,
      "chip": "ym2612"
    },
    {
      "channel": 0,
      "note": 75,
      "start": 23.7191,
      "duration": 0.1111,
      "velocity": 87,
      "chip": "ym2612"
    },
    {
      "channel": 2,
      "note": 77,
      "start": 23.7215,
      "duration": 0.1059,
      "velocity": 127,
      "chip": "ym2612"
    },
    {
      "channel": 4,
      "note": 76,
      "start": 23.7546,
      "duration": 0.1108,
      "velocity": 87,
      "chip": "ym2612"
    },
    {
      "channel": 5,
      "note": 90,
      "start": 23.792,
      "duration": 0.1118,
      "velocity": 91,
      "chip": "ym2612"
    },
    {
      "channel": 0,
      "note": 71,
      "start": 23.8309,
      "duration": 0.1085,
      "velocity": 87,
      "chip": "ym2612"
    },
    {
      "channel": 2,
      "note": 37,
      "start": 23.8326,
      "duration": 0.1268,
      "velocity": 120,
      "chip": "ym2612"
    },
    {
      "channel": 4,
      "note": 75,
      "start": 23.8661,
      "duration": 0.111,
      "velocity": 87,
      "chip": "ym2612"
    },
    {
      "channel": 5,
      "note": 90,
      "start": 23.9046,
      "duration": 0.1104,
      "velocity": 91,
      "chip": "ym2612"
    },
    {
      "channel": 1,
      "note": 54,
      "start": 23.9403,
      "duration": 0.1121,
      "velocity": 80,
      "chip": "ym2612"
    },
    {
      "channel": 4,
      "note": 71,
      "start": 23.9779,
      "duration": 0.1117,
      "velocity": 87,
      "chip": "ym2612"
    },
    {
      "channel": 0,
      "note": 73,
      "start": 24.0522,
      "duration": 0.1138,
      "velocity": 87,
      "chip": "ym2612"
    },
    {
      "channel": 1,
      "note": 54,
      "start": 24.0534,
      "duration": 0.113,
      "velocity": 80,
      "chip": "ym2612"
    },
    {
      "channel": 2,
      "note": 77,
      "start": 24.1676,
      "duration": 0.2195,
      "velocity": 127,
      "chip": "ym2612"
    },
    {
      "channel": 4,
      "note": 73,
      "start": 24.2015,
      "duration": 0.1112,
      "velocity": 87,
      "chip": "ym2612"
    },
    {
      "channel": 1,
      "note": 52,
      "start": 24.3905,
      "duration": 0.1087,
      "velocity": 80,
      "chip": "ym2612"
    },
    {
      "channel": 2,
      "note": 37,
      "start": 24.3915,
      "duration": 0.1273,
      "velocity": 120,
      "chip": "ym2612"
    },
    {
      "channel": 1,
      "note": 56,
      "start": 24.4998,
      "duration": 0.1141,
      "velocity": 80,
      "chip": "ym2612"
    },
    {
      "channel": 2,
      "note": 37,
      "start": 24.6151,
      "duration": 0.1273,
      "velocity": 120,
      "chip": "ym2612"
    },
    {
      "channel": 1,
      "note": 57,
      "start": 24.7237,
      "duration": 0.1148,
      "velocity": 80,
      "chip": "ym2612"
    },
    {
      "channel": 1,
      "note": 56,
      "start": 24.839,
      "duration": 0.108,
      "velocity": 80,
      "chip": "ym2612"
    },
    {
      "channel": 3,
      "note": 90,
      "start": 24.84,
      "duration": 0.1077,
      "velocity": 91,
      "chip": "ym2612"
    },
    {
      "channel": 2,
      "note": 37,
      "start": 24.8409,
      "duration": 0.1256,
      "velocity": 120,
      "chip": "ym2612"
    },
    {
      "channel": 1,
      "note": 54,
      "start": 24.9475,
      "duration": 0.1204,
      "velocity": 80,
      "chip": "ym2612"
    },
    {
      "channel": 3,
      "note": 90,
      "start": 24.9485,
      "duration": 0.1239,
      "velocity": 91,
      "chip": "ym2612"
    },
    {
      "channel": 1,
      "note": 56,
      "start": 25.0688,
      "duration": 0.1057,
      "velocity": 80,
      "chip": "ym2612"
    },
    {
      "channel": 2,
      "note": 37,
      "start": 25.0737,
      "duration": 0.0971,
      "velocity": 120,
      "chip": "ym2612"
    },
    {
      "channel": 5,
      "note": 90,
      "start": 25.135,
      "duration": 0.1114,
      "velocity": 91,
      "chip": "ym2612"
    },
    {
      "channel": 0,
      "note": 68,
      "start": 25.1743,
      "duration": 0.1115,
      "velocity": 87,
      "chip": "ym2612"
    },
    {
      "channel": 1,
      "note": 56,
      "start": 25.1751,
      "duration": 0.112,
      "velocity": 80,
      "chip": "ym2612"
    },
    {
      "channel": 2,
      "note": 37,
      "start": 25.1763,
      "duration": 0.1066,
      "velocity": 120,
      "chip": "ym2612"
    },
    {
      "channel": 5,
      "note": 90,
      "start": 25.2472,
      "duration": 0.1148,
      "velocity": 91,
      "chip": "ym2612"
    },
    {
      "channel": 0,
      "note": 75,
      "start": 25.287,
      "duration": 0.1078,
      "velocity": 87,
      "chip": "ym2612"
    },
    {
      "channel": 3,
      "note": 92,
      "start": 25.2883,
      "duration": 0.1074,
      "velocity": 91,
      "chip": "ym2612"
    },
    {
      "channel": 2,
      "note": 37,
      "start": 25.2894,
      "duration": 0.1255,
      "velocity": 120,
      "chip": "ym2612"
    },
    {
      "channel": 4,
      "note": 68,
      "start": 25.3217,
      "duration": 0.1112,
      "velocity": 87,
      "chip": "ym2612"
    },
    {
      "channel": 0,
      "note": 78,
      "start": 25.3955,
      "duration": 0.114,
      "velocity": 87,
      "chip": "ym2612"
    },
    {
      "channel": 3,
      "note": 92,
      "start": 25.3965,
      "duration": 0.1139,
      "velocity": 91,
      "chip": "ym2612"
    },
    {
      "channel": 4,
      "note": 75,
      "start": 25.4337,
      "duration": 0.111,
      "velocity": 87,
      "chip": "ym2612"
    },
    {
      "channel": 0,
      "note": 77,
      "start": 25.5102,
      "duration": 0.1118,
      "velocity": 87,
      "chip": "ym2612"
    },
    {
      "channel": 2,
      "note": 77,
      "start": 25.5122,
      "duration": 0.1066,
      "velocity": 127,
      "chip": "ym2612"
    },
    {
      "channel": 4,
      "note": 78,
      "start": 25.5454,
      "duration": 0.1112,
      "velocity": 87,
      "chip": "ym2612"
    },
    {
      "channel": 5,
      "note": 92,
      "start": 25.5832,
      "duration": 0.1112,
      "velocity": 91,
      "chip": "ym2612"
    },
    {
      "channel": 0,
      "note": 73,
      "start": 25.6227,
      "duration": 0.1079,
      "velocity": 87,
      "chip": "ym2612"
    },
    {
      "channel": 2,
      "note": 37,
      "start": 25.6244,
      "duration": 0.1263,
      "velocity": 120,
      "chip": "ym2612"
    },
    {
      "channel": 4,
      "note": 77,
      "start": 25.6573,
      "duration": 0.1115,
      "velocity": 87,
      "chip": "ym2612"
    },
    {
      "channel": 5,
      "note": 92,
      "start": 25.6952,
      "duration": 0.111,
      "velocity": 91,
      "chip": "ym2612"
    },
    {
      "channel": 1,
      "note": 56,
      "start": 25.7315,
      "duration": 0.112,
      "velocity": 80,
      "chip": "ym2612"
    },
    {
      "channel": 4,
      "note": 73,
      "start": 25.7698,
      "duration": 0.111,
      "velocity": 87,
      "chip": "ym2612"
    },
    {
      "channel": 0,
      "note": 75,
      "start": 25.8433,
      "duration": 0.1141,
      "velocity": 87,
      "chip": "ym2612"
    },
    {
      "channel": 1,
      "note": 56,
      "start": 25.844,
      "duration": 0.1136,
      "velocity": 80,
      "chip": "ym2612"
    },
    {
      "channel": 2,
      "note": 37,
      "start": 25.9588,
      "duration": 0.1077,
      "velocity": 120,
      "chip": "ym2612"
    },
    {
      "channel": 4,
      "note": 75,
      "start": 25.9928,
      "duration": 0.1116,
      "velocity": 87,
      "chip": "ym2612"
    },
    {
      "channel": 0,
      "note": 73,
      "start": 26.0706,
      "duration": 0.1106,
      "velocity": 87,
      "chip": "ym2612"
    },
    {
      "channel": 2,
      "note": 37,
      "start": 26.0721,
      "duration": 0.1064,
      "velocity": 120,
      "chip": "ym2612"
    },
    {
      "channel": 2,
      "note": 37,
      "start": 26.1824,
      "duration": 0.1279,
      "velocity": 120,
      "chip": "ym2612"
    },
    {
      "channel": 4,
      "note": 73,
      "start": 26.2167,
      "duration": 0.1117,
      "velocity": 87,
      "chip": "ym2612"
    },
    {
      "channel": 0,
      "note": 71,
      "start": 26.2912,
      "duration": 0.1145,
      "velocity": 87,
      "chip": "ym2612"
    },
    {
      "channel": 2,
      "note": 77,
      "start": 26.4069,
      "duration": 0.2193,
      "velocity": 127,
      "chip": "ym2612"
    },
    {
      "channel": 4,
      "note": 71,
      "start": 26.4406,
      "duration": 0.1119,
      "velocity": 87,
      "chip": "ym2612"
    },
    {
      "channel": 0,
      "note": 70,
      "start": 26.515,
      "duration": 0.1141,
      "velocity": 87,
      "chip": "ym2612"
    },
    {
      "channel": 0,
      "note": 71,
      "start": 26.6298,
      "duration": 0.1085,
      "velocity": 87,
      "chip": "ym2612"
    },
    {
      "channel": 3,
      "note": 92,
      "start": 26.6308,
      "duration": 0.1085,
      "velocity": 91,
      "chip": "ym2612"
    },
    {
      "channel": 2,
      "note": 37,
      "start": 26.6317,
      "duration": 0.1267,
      "velocity": 120,
      "chip": "ym2612"
    },
    {
      "channel": 4,
      "note": 70,
      "start": 26.6652,
      "duration": 0.1112,
      "velocity": 87,
      "chip": "ym2612"
    },
    {
      "channel": 0,
      "note": 73,
      "start": 26.739,
      "duration": 0.1149,
      "velocity": 87,
      "chip": "ym2612"
    },
    {
      "channel": 3,
      "note": 92,
      "start": 26.74,
      "duration": 0.1179,
      "velocity": 91,
      "chip": "ym2612"
    },
    {
      "channel": 4,
      "note": 71,
      "start": 26.7772,
      "duration": 0.1109,
      "velocity": 87,
      "chip": "ym2612"
    },
    {
      "channel": 1,
      "note": 56,
      "start": 26.8549,
      "duration": 0.1109,
      "velocity": 80,
      "chip": "ym2612"
    },
    {
      "channel": 2,
      "note": 37,
      "start": 26.8595,
      "duration": 0.1026,
      "velocity": 120,
      "chip": "ym2612"
    },
    {
      "channel": 4,
      "note": 73,
      "start": 26.8888,
      "duration": 0.1116,
      "velocity": 87,
      "chip": "ym2612"
    },
    {
      "channel": 5,
      "note": 92,
      "start": 26.9266,
      "duration": 0.1112,
      "velocity": 91,
      "chip": "ym2612"
    },
    {
      "channel": 0,
      "note": 68,
      "start": 26.9656,
      "duration": 0.1113,
      "velocity": 87,
      "chip": "ym2612"
    },
    {
      "channel": 1,
      "note": 56,
      "start": 26.9663,
      "duration": 0.1115,
      "velocity": 80,
      "chip": "ym2612"
    },
    {
      "channel": 2,
      "note": 37,
      "start": 26.968,
      "duration": 0.1062,
      "velocity": 120,
      "chip": "ym2612"
    },
    {
      "channel": 5,
      "note": 92,
      "start": 27.0386,
      "duration": 0.1151,
      "velocity": 91,
      "chip": "ym2612"
    },
    {
      "channel": 0,
      "note": 75,
      "start": 27.0776,
      "duration": 0.1088,
      "velocity": 87,
      "chip": "ym2612"
    },
    {
      "channel": 3,
      "note": 92,
      "start": 27.0789,
      "duration": 0.1085,
      "velocity": 91,
      "chip": "ym2612"
    },
    {
      "channel": 2,
      "note": 37,
      "start": 27.08,
      "duration": 0.1262,
      "velocity": 120,
      "chip": "ym2612"
    },
    {
      "channel": 4,
      "note": 68,
      "start": 27.113,
      "duration": 0.1112,
      "velocity": 87,
      "chip": "ym2612"
    },
    {
      "channel": 0,
      "note": 78,
      "start": 27.1872,
      "duration": 0.1136,
      "velocity": 87,
      "chip": "ym2612"
    },
    {
      "channel": 3,
      "note": 92,
      "start": 27.1883,
      "duration": 0.1137,
      "velocity": 91,
      "chip": "ym2612"
    },
    {
      "channel": 4,
      "note": 75,
      "start": 27.225,
      "duration": 0.1116,
      "velocity": 87,
      "chip": "ym2612"
    },
    {
      "channel": 0,
      "note": 77,
      "start": 27.3015,
      "duration": 0.1112,
      "velocity": 87,
      "chip": "ym2612"
    },
    {
      "channel": 2,
      "note": 77,
      "start": 27.3041,
      "duration": 0.1058,
      "velocity": 127,
      "chip": "ym2612"
    },
    {
      "channel": 4,
      "note": 78,
      "start": 27.3373,
      "duration": 0.1105,
      "velocity": 87,
      "chip": "ym2612"
    },
    {
      "channel": 5,
      "note": 92,
      "start": 27.3745,
      "duration": 0.1114,
      "velocity": 91,
      "chip": "ym2612"
    },
    {
      "channel": 0,
      "note": 73,
      "start": 27.4134,
      "duration": 0.1085,
      "velocity": 87,
      "chip": "ym2612"
    },
    {
      "channel": 2,
      "note": 37,
      "start": 27.4151,
      "duration": 0.1269,
      "velocity": 120,
      "chip": "ym2612"
    },
    {
      "channel": 4,
      "note": 77,
      "start": 27.4485,
      "duration": 0.1112,
      "velocity": 87,
      "chip": "ym2612"
    },
    {
      "channel": 5,
      "note": 92,
      "start": 27.4871,
      "duration": 0.1104,
      "velocity": 91,
      "chip": "ym2612"
    },
    {
      "channel": 1,
      "note": 56,
      "start": 27.5228,
      "duration": 0.112,
      "velocity": 80,
      "chip": "ym2612"
    },
    {
      "channel": 4,
      "note": 73,
      "start": 27.5605,
      "duration": 0.1116,
      "velocity": 87,
      "chip": "ym2612"
    },
    {
      "channel": 0,
      "note": 75,
      "start": 27.6346,
      "duration": 0.114,
      "velocity": 87,
      "chip": "ym2612"
    },
    {
      "channel": 1,
      "note": 56,
      "start": 27.6356,
      "duration": 0.1134,
      "velocity": 80,
      "chip": "ym2612"
    },
    {
      "channel": 2,
      "note": 37,
      "start": 27.7501,
      "duration": 0.1076,
      "velocity": 120,
      "chip": "ym2612"
    },
    {
      "channel": 4,
      "note": 75,
      "start": 27.7841,
      "duration": 0.1117,
      "velocity": 87,
      "chip": "ym2612"
    },
    {
      "channel": 2,
      "note": 37,
      "start": 27.8619,
      "duration": 0.1081,
      "velocity": 120,
      "chip": "ym2612"
    },
    {
      "channel": 1,
      "note": 54,
      "start": 27.9736,
      "duration": 0.1082,
      "velocity": 80,
      "chip": "ym2612"
    },
    {
      "channel": 2,
      "note": 37,
      "start": 27.9745,
      "duration": 0.1266,
      "velocity": 120,
      "chip": "ym2612"
    },
    {
      "channel": 1,
      "note": 58,
      "start": 28.0823,
      "duration": 0.1142,
      "velocity": 80,
      "chip": "ym2612"
    },
    {
      "channel": 2,
      "note": 77,
      "start": 28.1977,
      "duration": 0.2198,
      "velocity": 127,
      "chip": "ym2612"
    },
    {
      "channel": 1,
      "note": 59,
      "start": 28.3062,
      "duration": 0.1148,
      "velocity": 80,
      "chip": "ym2612"
    },
    {
      "channel": 1,
      "note": 58,
      "start": 28.4216,
      "duration": 0.108,
      "velocity": 80,
      "chip": "ym2612"
    },
    {
      "channel": 3,
      "note": 92,
      "start": 28.4225,
      "duration": 0.1078,
      "velocity": 91,
      "chip": "ym2612"
    },
    {
      "channel": 2,
      "note": 37,
      "start": 28.4234,
      "duration": 0.1258,
      "velocity": 120,
      "chip": "ym2612"
    },
    {
      "channel": 1,
      "note": 56,
      "start": 28.5302,
      "duration": 0.1203,
      "velocity": 80,
      "chip": "ym2612"
    },
    {
      "channel": 3,
      "note": 92,
      "start": 28.5311,
      "duration": 0.1237,
      "velocity": 91,
      "chip": "ym2612"
    },
    {
      "channel": 1,
      "note": 56,
      "start": 28.651,
      "duration": 0.1061,
      "velocity": 80,
      "chip": "ym2612"
    },
    {
      "channel": 2,
      "note": 37,
      "start": 28.656,
      "duration": 0.0974,
      "velocity": 120,
      "chip": "ym2612"
    },
    {
      "channel": 5,
      "note": 92,
      "start": 28.7174,
      "duration": 0.1116,
      "velocity": 91,
      "chip": "ym2612"
    },
    {
      "channel": 0,
      "note": 68,
      "start": 28.7569,
      "duration": 0.1112,
      "velocity": 87,
      "chip": "ym2612"
    },
    {
      "channel": 1,
      "note": 56,
      "start": 28.7576,
      "duration": 0.1116,
      "velocity": 80,
      "chip": "ym2612"
    },
    {
      "channel": 2,
      "note": 37,
      "start": 28.7589,
      "duration": 0.1064,
      "velocity": 120,
      "chip": "ym2612"
    },
    {
      "channel": 5,
      "note": 92,
      "start": 28.8298,
      "duration": 0.1145,
      "velocity": 91,
      "chip": "ym2612"
    },
    {
      "channel": 0,
      "note": 75,
      "start": 28.869,
      "duration": 0.1083,
      "velocity": 87,
      "chip": "ym2612"
    },
    {
      "channel": 3,
      "note": 92,
      "start": 28.8707,
      "duration": 0.1076,
      "velocity": 91,
      "chip": "ym2612"
    },
    {
      "channel": 2,
      "note": 37,
      "start": 28.8719,
      "duration": 0.1256,
      "velocity": 120,
      "chip": "ym2612"
    },
    {
      "channel": 4,
      "note": 68,
      "start": 28.9047,
      "duration": 0.1108,
      "velocity": 87,
      "chip": "ym2612"
    },
    {
      "channel": 0,
      "note": 78,
      "start": 28.9781,
      "duration": 0.1139,
      "velocity": 87,
      "chip": "ym2612"
    },
    {
      "channel": 3,
      "note": 92,
      "start": 28.9791,
      "duration": 0.1138,
      "velocity": 91,
      "chip": "ym2612"
    },
    {
      "channel": 4,
      "note": 75,
      "start": 29.0162,
      "duration": 0.1111,
      "velocity": 87,
      "chip": "ym2612"
    },
    {
      "channel": 0,
      "note": 77,
      "start": 29.0927,
      "duration": 0.112,
      "velocity": 87,
      "chip": "ym2612"
    },
    {
      "channel": 2,
      "note": 77,
      "start": 29.0947,
      "duration": 0.1064,
      "velocity": 127,
      "chip": "ym2612"
    },
    {
      "channel": 4,
      "note": 78,
      "start": 29.128,
      "duration": 0.1111,
      "velocity": 87,
      "chip": "ym2612"
    },
    {
      "channel": 5,
      "note": 92,
      "start": 29.1659,
      "duration": 0.1111,
      "velocity": 91,
      "chip": "ym2612"
    },
    {
      "channel": 0,
      "note": 73,
      "start": 29.2054,
      "duration": 0.1078,
      "velocity": 87,
      "chip": "ym2612"
    },
    {
      "channel": 2,
      "note": 37,
      "start": 29.2071,
      "duration": 0.1261,
      "velocity": 120,
      "chip": "ym2612"
    },
    {
      "channel": 4,
      "note": 77,
      "start": 29.2399,
      "duration": 0.1111,
      "velocity": 87,
      "chip": "ym2612"
    },
    {
      "channel": 5,
      "note": 92,
      "start": 29.2778,
      "duration": 0.111,
      "velocity": 91,
      "chip": "ym2612"
    },
    {
      "channel": 1,
      "note": 56,
      "start": 29.3141,
      "duration": 0.112,
      "velocity": 80,
      "chip": "ym2612"
    },
    {
      "channel": 4,
      "note": 73,
      "start": 29.352,
      "duration": 0.1113,
      "velocity": 87,
      "chip": "ym2612"
    },
    {
      "channel": 0,
      "note": 75,
      "start": 29.4259,
      "duration": 0.1139,
      "velocity": 87,
      "chip": "ym2612"
    },
    {
      "channel": 1,
      "note": 56,
      "start": 29.4267,
      "duration": 0.1135,
      "velocity": 80,
      "chip": "ym2612"
    },
    {
      "channel": 2,
      "note": 37,
      "start": 29.5413,
      "duration": 0.1077,
      "velocity": 120,
      "chip": "ym2612"
    },
    {
      "channel": 4,
      "note": 75,
      "start": 29.5754,
      "duration": 0.112,
      "velocity": 87,
      "chip": "ym2612"
    },
    {
      "channel": 0,
      "note": 73,
      "start": 29.6531,
      "duration": 0.1107,
      "velocity": 87,
      "chip": "ym2612"
    },
    {
      "channel": 2,
      "note": 37,
      "start": 29.6546,
      "duration": 0.1063,
      "velocity": 120,
      "chip": "ym2612"
    },
    {
      "channel": 2,
      "note": 37,
      "start": 29.765,
      "duration": 0.1278,
      "velocity": 120,
      "chip": "ym2612"
    },
    {
      "channel": 4,
      "note": 73,
      "start": 29.7993,
      "duration": 0.1116,
      "velocity": 87,
      "chip": "ym2612"
    },
    {
      "channel": 0,
      "note": 71,
      "start": 29.8736,
      "duration": 0.1147,
      "velocity": 87,
      "chip": "ym2612"
    },
    {
      "channel": 2,
      "note": 77,
      "start": 29.9896,
      "duration": 0.2192,
      "velocity": 127,
      "chip": "ym2612"
    },
    {
      "channel": 4,
      "note": 71,
      "start": 30.0232,
      "duration": 0.1117,
      "velocity": 87,
      "chip": "ym2612"
    },
    {
      "channel": 0,
      "note": 70,
      "start": 30.0975,
      "duration": 0.1141,
      "velocity": 87,
      "chip": "ym2612"
    },
    {
      "channel": 0,
      "note": 71,
      "start": 30.2123,
      "duration": 0.1085,
      "velocity": 87,
      "chip": "ym2612"
    },
    {
      "channel": 3,
      "note": 92,
      "start": 30.2133,
      "duration": 0.1085,
      "velocity": 91,
      "chip": "ym2612"
    },
    {
      "channel": 2,
      "note": 37,
      "start": 30.2142,
      "duration": 0.1268,
      "velocity": 120,
      "chip": "ym2612"
    },
    {
      "channel": 4,
      "note": 70,
      "start": 30.2477,
      "duration": 0.1112,
      "velocity": 87,
      "chip": "ym2612"
    },
    {
      "channel": 0,
      "note": 73,
      "start": 30.3215,
      "duration": 0.1149,
      "velocity": 87,
      "chip": "ym2612"
    },
    {
      "channel": 3,
      "note": 92,
      "start": 30.3225,
      "duration": 0.1179,
      "velocity": 91,
      "chip": "ym2612"
    },
    {
      "channel": 4,
      "note": 71,
      "start": 30.3597,
      "duration": 0.1111,
      "velocity": 87,
      "chip": "ym2612"
    },
    {
      "channel": 1,
      "note": 56,
      "start": 30.4373,
      "duration": 0.111,
      "velocity": 80,
      "chip": "ym2612"
    },
    {
      "channel": 2,
      "note": 37,
      "start": 30.4421,
      "duration": 0.1025,
      "velocity": 120,
      "chip": "ym2612"
    },
    {
      "channel": 4,
      "note": 73,
      "start": 30.4715,
      "duration": 0.1113,
      "velocity": 87,
      "chip": "ym2612"
    },
    {
      "channel": 5,
      "note": 92,
      "start": 30.5091,
      "duration": 0.1116,
      "velocity": 91,
      "chip": "ym2612"
    },
    {
      "channel": 0,
      "note": 68,
      "start": 30.5482,
      "duration": 0.1113,
      "velocity": 87,
      "chip": "ym2612"
    },
    {
      "channel": 1,
      "note": 56,
      "start": 30.5489,
      "duration": 0.1113,
      "velocity": 80,
      "chip": "ym2612"
    },
    {
      "channel": 2,
      "note": 37,
      "start": 30.5505,
      "duration": 0.1061,
      "velocity": 120,
      "chip": "ym2612"
    },
    {
      "channel": 5,
      "note": 92,
      "start": 30.6215,
      "duration": 0.1143,
      "velocity": 91,
      "chip": "ym2612"
    },
    {
      "channel": 0,
      "note": 75,
      "start": 30.6601,
      "duration": 0.1086,
      "velocity": 87,
      "chip": "ym2612"
    },
    {
      "channel": 3,
      "note": 92,
      "start": 30.6614,
      "duration": 0.1087,
      "velocity": 91,
      "chip": "ym2612"
    },
    {
      "channel": 2,
      "note": 37,
      "start": 30.6625,
      "duration": 0.1262,
      "velocity": 120,
      "chip": "ym2612"
    },
    {
      "channel": 4,
      "note": 68,
      "start": 30.6956,
      "duration": 0.1112,
      "velocity": 87,
      "chip": "ym2612"
    },
    {
      "channel": 0,
      "note": 78,
      "start": 30.7699,
      "duration": 0.1134,
      "velocity": 87,
      "chip": "ym2612"
    },
    {
      "channel": 3,
      "note": 92,
      "start": 30.771,
      "duration": 0.1133,
      "velocity": 91,
      "chip": "ym2612"
    },
    {
      "channel": 4,
      "note": 75,
      "start": 30.8076,
      "duration": 0.1111,
      "velocity": 87,
      "chip": "ym2612"
    },
    {
      "channel": 0,
      "note": 77,
      "start": 30.884,
      "duration": 0.1113,
      "velocity": 87,
      "chip": "ym2612"
    },
    {
      "channel": 2,
      "note": 77,
      "start": 30.8866,
      "duration": 0.1059,
      "velocity": 127,
      "chip": "ym2612"
    },
    {
      "channel": 4,
      "note": 78,
      "start": 30.9199,
      "duration": 0.1106,
      "velocity": 87,
      "chip": "ym2612"
    },
    {
      "channel": 5,
      "note": 92,
      "start": 30.9571,
      "duration": 0.1111,
      "velocity": 91,
      "chip": "ym2612"
    },
    {
      "channel": 0,
      "note": 73,
      "start": 30.996,
      "duration": 0.1085,
      "velocity": 87,
      "chip": "ym2612"
    },
    {
      "channel": 2,
      "note": 37,
      "start": 30.9977,
      "duration": 0.1267,
      "velocity": 120,
      "chip": "ym2612"
    },
    {
      "channel": 4,
      "note": 77,
      "start": 31.0312,
      "duration": 0.1111,
      "velocity": 87,
      "chip": "ym2612"
    },
    {
      "channel": 5,
      "note": 92,
      "start": 31.0697,
      "duration": 0.1103,
      "velocity": 91,
      "chip": "ym2612"
    },
    {
      "channel": 1,
      "note": 56,
      "start": 31.1054,
      "duration": 0.112,
      "velocity": 80,
      "chip": "ym2612"
    },
    {
      "channel": 4,
      "note": 73,
      "start": 31.143,
      "duration": 0.1116,
      "velocity": 87,
      "chip": "ym2612"
    },
    {
      "channel": 0,
      "note": 75,
      "start": 31.2172,
      "duration": 0.114,
      "velocity": 87,
      "chip": "ym2612"
    },
    {
      "channel": 1,
      "note": 56,
      "start": 31.2179,
      "duration": 0.1136,
      "velocity": 80,
      "chip": "ym2612"
    },
    {
      "channel": 2,
      "note": 37,
      "start": 31.3327,
      "duration": 0.1076,
      "velocity": 120,
      "chip": "ym2612"
    },
    {
      "channel": 4,
      "note": 75,
      "start": 31.3666,
      "duration": 0.1113,
      "velocity": 87,
      "chip": "ym2612"
    },
    {
      "channel": 2,
      "note": 37,
      "start": 31.4445,
      "duration": 0.1079,
      "velocity": 120,
      "chip": "ym2612"
    },
    {
      "channel": 1,
      "note": 54,
      "start": 31.5562,
      "duration": 0.1082,
      "velocity": 80,
      "chip": "ym2612"
    },
    {
      "channel": 2,
      "note": 37,
      "start": 31.5572,
      "duration": 0.1263,
      "velocity": 120,
      "chip": "ym2612"
    },
    {
      "channel": 1,
      "note": 58,
      "start": 31.665,
      "duration": 0.1141,
      "velocity": 80,
      "chip": "ym2612"
    },
    {
      "channel": 2,
      "note": 77,
      "start": 31.7803,
      "duration": 0.2198,
      "velocity": 127,
      "chip": "ym2612"
    },
    {
      "channel": 1,
      "note": 59,
      "start": 31.8888,
      "duration": 0.1148,
      "velocity": 80,
      "chip": "ym2612"
    },
    {
      "channel": 1,
      "note": 58,
      "start": 32.0042,
      "duration": 0.1079,
      "velocity": 80,
      "chip": "ym2612"
    },
    {
      "channel": 3,
      "note": 92,
      "start": 32.0052,
      "duration": 0.1078,
      "velocity": 91,
      "chip": "ym2612"
    },
    {
      "channel": 2,
      "note": 37,
      "start": 32.0061,
      "duration": 0.1256,
      "velocity": 120,
      "chip": "ym2612"
    },
    {
      "channel": 1,
      "note": 56,
      "start": 32.1127,
      "duration": 0.1203,
      "velocity": 80,
      "chip": "ym2612"
    },
    {
      "channel": 3,
      "note": 92,
      "start": 32.1138,
      "duration": 0.1236,
      "velocity": 91,
      "chip": "ym2612"
    },
    {
      "channel": 1,
      "note": 56,
      "start": 32.2336,
      "duration": 0.1065,
      "velocity": 80,
      "chip": "ym2612"
    },
    {
      "channel": 2,
      "note": 37,
      "start": 32.2386,
      "duration": 0.0978,
      "velocity": 120,
      "chip": "ym2612"
    },
    {
      "channel": 5,
      "note": 92,
      "start": 32.3001,
      "duration": 0.1115,
      "velocity": 91,
      "chip": "ym2612"
    },
    {
      "channel": 0,
      "note": 68,
      "start": 32.3399,
      "duration": 0.1107,
      "velocity": 87,
      "chip": "ym2612"
    },
    {
      "channel": 1,
      "note": 56,
      "start": 32.3407,
      "duration": 0.1108,
      "velocity": 80,
      "chip": "ym2612"
    },
    {
      "channel": 2,
      "note": 37,
      "start": 32.3419,
      "duration": 0.106,
      "velocity": 120,
      "chip": "ym2612"
    },
    {
      "channel": 5,
      "note": 92,
      "start": 32.4124,
      "duration": 0.1145,
      "velocity": 91,
      "chip": "ym2612"
    },
    {
      "channel": 0,
      "note": 75,
      "start": 32.4513,
      "duration": 0.1085,
      "velocity": 87,
      "chip": "ym2612"
    },
    {
      "channel": 3,
      "note": 92,
      "start": 32.4533,
      "duration": 0.1076,
      "velocity": 91,
      "chip": "ym2612"
    },
    {
      "channel": 2,
      "note": 37,
      "start": 32.4544,
      "duration": 0.1256,
      "velocity": 120,
      "chip": "ym2612"
    },
    {
      "channel": 4,
      "note": 68,
      "start": 32.4875,
      "duration": 0.1106,
      "velocity": 87,
      "chip": "ym2612"
    },
    {
      "channel": 0,
      "note": 78,
      "start": 32.5606,
      "duration": 0.114,
      "velocity": 87,
      "chip": "ym2612"
    },
    {
      "channel": 3,
      "note": 92,
      "start": 32.5616,
      "duration": 0.1139,
      "velocity": 91,
      "chip": "ym2612"
    },
    {
      "channel": 4,
      "note": 75,
      "start": 32.5989,
      "duration": 0.1109,
      "velocity": 87,
      "chip": "ym2612"
    },
    {
      "channel": 0,
      "note": 77,
      "start": 32.6753,
      "duration": 0.112,
      "velocity": 87,
      "chip": "ym2612"
    },
    {
      "channel": 2,
      "note": 77,
      "start": 32.6773,
      "duration": 0.1065,
      "velocity": 127,
      "chip": "ym2612"
    },
    {
      "channel": 4,
      "note": 78,
      "start": 32.7105,
      "duration": 0.1112,
      "velocity": 87,
      "chip": "ym2612"
    },
    {
      "channel": 5,
      "note": 92,
      "start": 32.7488,
      "duration": 0.1107,
      "velocity": 91,
      "chip": "ym2612"
    },
    {
      "channel": 0,
      "note": 73,
      "start": 32.788,
      "duration": 0.1078,
      "velocity": 87,
      "chip": "ym2612"
    },
    {
      "channel": 2,
      "note": 37,
      "start": 32.7897,
      "duration": 0.126,
      "velocity": 120,
      "chip": "ym2612"
    },
    {
      "channel": 4,
      "note": 77,
      "start": 32.8224,
      "duration": 0.1112,
      "velocity": 87,
      "chip": "ym2612"
    },
    {
      "channel": 5,
      "note": 92,
      "start": 32.8603,
      "duration": 0.111,
      "velocity": 91,
      "chip": "ym2612"
    },
    {
      "channel": 1,
      "note": 56,
      "start": 32.8966,
      "duration": 0.1119,
      "velocity": 80,
      "chip": "ym2612"
    },
    {
      "channel": 4,
      "note": 73,
      "start": 32.9343,
      "duration": 0.1116,
      "velocity": 87,
      "chip": "ym2612"
    },
    {
      "channel": 0,
      "note": 75,
      "start": 33.0083,
      "duration": 0.1145,
      "velocity": 87,
      "chip": "ym2612"
    },
    {
      "channel": 1,
      "note": 56,
      "start": 33.0091,
      "duration": 0.1141,
      "velocity": 80,
      "chip": "ym2612"
    },
    {
      "channel": 2,
      "note": 37,
      "start": 33.1243,
      "duration": 0.1073,
      "velocity": 120,
      "chip": "ym2612"
    },
    {
      "channel": 4,
      "note": 75,
      "start": 33.158,
      "duration": 0.1122,
      "velocity": 87,
      "chip": "ym2612"
    },
    {
      "channel": 0,
      "note": 73,
      "start": 33.2354,
      "duration": 0.111,
      "velocity": 87,
      "chip": "ym2612"
    },
    {
      "channel": 2,
      "note": 37,
      "start": 33.2372,
      "duration": 0.1062,
      "velocity": 120,
      "chip": "ym2612"
    },
    {
      "channel": 2,
      "note": 37,
      "start": 33.3475,
      "duration": 0.1279,
      "velocity": 120,
      "chip": "ym2612"
    },
    {
      "channel": 4,
      "note": 73,
      "start": 33.3819,
      "duration": 0.1116,
      "velocity": 87,
      "chip": "ym2612"
    },
    {
      "channel": 0,
      "note": 71,
      "start": 33.4562,
      "duration": 0.1146,
      "velocity": 87,
      "chip": "ym2612"
    },
    {
      "channel": 2,
      "note": 77,
      "start": 33.5722,
      "duration": 0.2191,
      "velocity": 127,
      "chip": "ym2612"
    },
    {
      "channel": 4,
      "note": 71,
      "start": 33.6058,
      "duration": 0.1116,
      "velocity": 87,
      "chip": "ym2612"
    },
    {
      "channel": 0,
      "note": 70,
      "start": 33.6802,
      "duration": 0.1141,
      "velocity": 87,
      "chip": "ym2612"
    },
    {
      "channel": 0,
      "note": 71,
      "start": 33.7949,
      "duration": 0.1085,
      "velocity": 87,
      "chip": "ym2612"
    },
    {
      "channel": 3,
      "note": 92,
      "start": 33.7959,
      "duration": 0.1085,
      "velocity": 91,
      "chip": "ym2612"
    },
    {
      "channel": 2,
      "note": 37,
      "start": 33.7968,
      "duration": 0.1267,
      "velocity": 120,
      "chip": "ym2612"
    },
    {
      "channel": 4,
      "note": 70,
      "start": 33.8304,
      "duration": 0.1112,
      "velocity": 87,
      "chip": "ym2612"
    },
    {
      "channel": 0,
      "note": 73,
      "start": 33.9041,
      "duration": 0.1144,
      "velocity": 87,
      "chip": "ym2612"
    },
    {
      "channel": 3,
      "note": 92,
      "start": 33.9052,
      "duration": 0.1178,
      "velocity": 91,
      "chip": "ym2612"
    },
    {
      "channel": 4,
      "note": 71,
      "start": 33.9423,
      "duration": 0.1113,
      "velocity": 87,
      "chip": "ym2612"
    },
    {
      "channel": 1,
      "note": 56,
      "start": 34.0199,
      "duration": 0.1109,
      "velocity": 80,
      "chip": "ym2612"
    },
    {
      "channel": 2,
      "note": 37,
      "start": 34.0246,
      "duration": 0.1025,
      "velocity": 120,
      "chip": "ym2612"
    },
    {
      "channel": 4,
      "note": 73,
      "start": 34.0543,
      "duration": 0.1112,
      "velocity": 87,
      "chip": "ym2612"
    },
    {
      "channel": 5,
      "note": 92,
      "start": 34.0917,
      "duration": 0.1118,
      "velocity": 91,
      "chip": "ym2612"
    },
    {
      "channel": 0,
      "note": 68,
      "start": 34.1307,
      "duration": 0.1114,
      "velocity": 87,
      "chip": "ym2612"
    },
    {
      "channel": 1,
      "note": 56,
      "start": 34.1314,
      "duration": 0.1115,
      "velocity": 80,
      "chip": "ym2612"
    },
    {
      "channel": 2,
      "note": 37,
      "start": 34.133,
      "duration": 0.1062,
      "velocity": 120,
      "chip": "ym2612"
    },
    {
      "channel": 5,
      "note": 92,
      "start": 34.2043,
      "duration": 0.1138,
      "velocity": 91,
      "chip": "ym2612"
    },
    {
      "channel": 0,
      "note": 75,
      "start": 34.2428,
      "duration": 0.1085,
      "velocity": 87,
      "chip": "ym2612"
    },
    {
      "channel": 3,
      "note": 92,
      "start": 34.244,
      "duration": 0.1084,
      "velocity": 91,
      "chip": "ym2612"
    },
    {
      "channel": 2,
      "note": 37,
      "start": 34.2452,
      "duration": 0.1265,
      "velocity": 120,
      "chip": "ym2612"
    },
    {
      "channel": 4,
      "note": 68,
      "start": 34.2781,
      "duration": 0.1112,
      "velocity": 87,
      "chip": "ym2612"
    },
    {
      "channel": 0,
      "note": 78,
      "start": 34.3522,
      "duration": 0.1137,
      "velocity": 87,
      "chip": "ym2612"
    },
    {
      "channel": 3,
      "note": 92,
      "start": 34.3536,
      "duration": 0.1132,
      "velocity": 91,
      "chip": "ym2612"
    },
    {
      "channel": 4,
      "note": 75,
      "start": 34.3902,
      "duration": 0.1109,
      "velocity": 87,
      "chip": "ym2612"
    },
    {
      "channel": 0,
      "note": 77,
      "start": 34.4666,
      "duration": 0.1113,
      "velocity": 87,
      "chip": "ym2612"
    },
    {
      "channel": 2,
      "note": 77,
      "start": 34.4688,
      "duration": 0.1062,
      "velocity": 127,
      "chip": "ym2612"
    },
    {
      "channel": 4,
      "note": 78,
      "start": 34.502,
      "duration": 0.111,
      "velocity": 87,
      "chip": "ym2612"
    },
    {
      "channel": 5,
      "note": 92,
      "start": 34.5397,
      "duration": 0.1111,
      "velocity": 91,
      "chip": "ym2612"
    },
    {
      "channel": 0,
      "note": 73,
      "start": 34.5786,
      "duration": 0.1084,
      "velocity": 87,
      "chip": "ym2612"
    },
    {
      "channel": 2,
      "note": 37,
      "start": 34.5804,
      "duration": 0.1267,
      "velocity": 120,
      "chip": "ym2612"
    },
    {
      "channel": 4,
      "note": 77,
      "start": 34.6138,
      "duration": 0.1111,
      "velocity": 87,
      "chip": "ym2612"
    },
    {
      "channel": 5,
      "note": 92,
      "start": 34.6517,
      "duration": 0.1109,
      "velocity": 91,
      "chip": "ym2612"
    },
    {
      "channel": 1,
      "note": 56,
      "start": 34.688,
      "duration": 0.1119,
      "velocity": 80,
      "chip": "ym2612"
    },
    {
      "channel": 4,
      "note": 73,
      "start": 34.7256,
      "duration": 0.112,
      "velocity": 87,
      "chip": "ym2612"
    },
    {
      "channel": 0,
      "note": 75,
      "start": 34.7998,
      "duration": 0.1139,
      "velocity": 87,
      "chip": "ym2612"
    },
    {
      "channel": 1,
      "note": 56,
      "start": 34.8005,
      "duration": 0.1136,
      "velocity": 80,
      "chip": "ym2612"
    },
    {
      "channel": 2,
      "note": 37,
      "start": 34.9151,
      "duration": 0.1078,
      "velocity": 120,
      "chip": "ym2612"
    },
    {
      "channel": 4,
      "note": 75,
      "start": 34.9493,
      "duration": 0.1112,
      "velocity": 87,
      "chip": "ym2612"
    },
    {
      "channel": 2,
      "note": 37,
      "start": 35.0271,
      "duration": 0.1077,
      "velocity": 120,
      "chip": "ym2612"
    },
    {
      "channel": 1,
      "note": 54,
      "start": 35.1389,
      "duration": 0.1079,
      "velocity": 80,
      "chip": "ym2612"
    },
    {
      "channel": 2,
      "note": 37,
      "start": 35.1398,
      "duration": 0.1263,
      "velocity": 120,
      "chip": "ym2612"
    },
    {
      "channel": 1,
      "note": 58,
      "start": 35.2475,
      "duration": 0.1141,
      "velocity": 80,
      "chip": "ym2612"
    },
    {
      "channel": 2,
      "note": 77,
      "start": 35.3629,
      "duration": 0.2199,
      "velocity": 127,
      "chip": "ym2612"
    },
    {
      "channel": 1,
      "note": 59,
      "start": 35.4714,
      "duration": 0.1144,
      "velocity": 80,
      "chip": "ym2612"
    },
    {
      "channel": 1,
      "note": 58,
      "start": 35.5868,
      "duration": 0.108,
      "velocity": 80,
      "chip": "ym2612"
    },
    {
      "channel": 3,
      "note": 92,
      "start": 35.5877,
      "duration": 0.1078,
      "velocity": 91,
      "chip": "ym2612"
    },
    {
      "channel": 2,
      "note": 37,
      "start": 35.5886,
      "duration": 0.1256,
      "velocity": 120,
      "chip": "ym2612"
    },
    {
      "channel": 1,
      "note": 56,
      "start": 35.6953,
      "duration": 0.1203,
      "velocity": 80,
      "chip": "ym2612"
    },
    {
      "channel": 3,
      "note": 92,
      "start": 35.6963,
      "duration": 0.1237,
      "velocity": 91,
      "chip": "ym2612"
    },
    {
      "channel": 1,
      "note": 56,
      "start": 35.8162,
      "duration": 0.1066,
      "velocity": 80,
      "chip": "ym2612"
    },
    {
      "channel": 2,
      "note": 37,
      "start": 35.8212,
      "duration": 0.0975,
      "velocity": 120,
      "chip": "ym2612"
    },
    {
      "channel": 5,
      "note": 92,
      "start": 35.8827,
      "duration": 0.1115,
      "velocity": 91,
      "chip": "ym2612"
    },
    {
      "channel": 0,
      "note": 68,
      "start": 35.9226,
      "duration": 0.1107,
      "velocity": 87,
      "chip": "ym2612"
    },
    {
      "channel": 1,
      "note": 56,
      "start": 35.9234,
      "duration": 0.1107,
      "velocity": 80,
      "chip": "ym2612"
    },
    {
      "channel": 2,
      "note": 37,
      "start": 35.9246,
      "duration": 0.1059,
      "velocity": 120,
      "chip": "ym2612"
    },
    {
      "channel": 5,
      "note": 92,
      "start": 35.995,
      "duration": 0.1145,
      "velocity": 91,
      "chip": "ym2612"
    },
    {
      "channel": 0,
      "note": 75,
      "start": 36.034,
      "duration": 0.1085,
      "velocity": 87,
      "chip": "ym2612"
    },
    {
      "channel": 3,
      "note": 92,
      "start": 36.0354,
      "duration": 0.108,
      "velocity": 91,
      "chip": "ym2612"
    },
    {
      "channel": 2,
      "note": 37,
      "start": 36.037,
      "duration": 0.1256,
      "velocity": 120,
      "chip": "ym2612"
    },
    {
      "channel": 4,
      "note": 68,
      "start": 36.0701,
      "duration": 0.1106,
      "velocity": 87,
      "chip": "ym2612"
    },
    {
      "channel": 0,
      "note": 78,
      "start": 36.1432,
      "duration": 0.1139,
      "velocity": 87,
      "chip": "ym2612"
    },
    {
      "channel": 3,
      "note": 92,
      "start": 36.1443,
      "duration": 0.1138,
      "velocity": 91,
      "chip": "ym2612"
    },
    {
      "channel": 4,
      "note": 75,
      "start": 36.1814,
      "duration": 0.1109,
      "velocity": 87,
      "chip": "ym2612"
    },
    {
      "channel": 0,
      "note": 77,
      "start": 36.2578,
      "duration": 0.112,
      "velocity": 87,
      "chip": "ym2612"
    },
    {
      "channel": 2,
      "note": 77,
      "start": 36.2599,
      "duration": 0.1064,
      "velocity": 127,
      "chip": "ym2612"
    },
    {
      "channel": 4,
      "note": 78,
      "start": 36.293,
      "duration": 0.1113,
      "velocity": 87,
      "chip": "ym2612"
    },
    {
      "channel": 5,
      "note": 92,
      "start": 36.3309,
      "duration": 0.1112,
      "velocity": 91,
      "chip": "ym2612"
    },
    {
      "channel": 0,
      "note": 73,
      "start": 36.3705,
      "duration": 0.1078,
      "velocity": 87,
      "chip": "ym2612"
    },
    {
      "channel": 2,
      "note": 37,
      "start": 36.3722,
      "duration": 0.1261,
      "velocity": 120,
      "chip": "ym2612"
    },
    {
      "channel": 4,
      "note": 77,
      "start": 36.405,
      "duration": 0.1111,
      "velocity": 87,
      "chip": "ym2612"
    },
    {
      "channel": 5,
      "note": 92,
      "start": 36.4429,
      "duration": 0.1114,
      "velocity": 91,
      "chip": "ym2612"
    },
    {
      "channel": 1,
      "note": 56,
      "start": 36.4792,
      "duration": 0.112,
      "velocity": 80,
      "chip": "ym2612"
    },
    {
      "channel": 4,
      "note": 73,
      "start": 36.5169,
      "duration": 0.1116,
      "velocity": 87,
      "chip": "ym2612"
    },
    {
      "channel": 0,
      "note": 75,
      "start": 36.591,
      "duration": 0.1146,
      "velocity": 87,
      "chip": "ym2612"
    },
    {
      "channel": 1,
      "note": 56,
      "start": 36.5917,
      "duration": 0.1142,
      "velocity": 80,
      "chip": "ym2612"
    },
    {
      "channel": 2,
      "note": 37,
      "start": 36.7071,
      "duration": 0.1071,
      "velocity": 120,
      "chip": "ym2612"
    },
    {
      "channel": 4,
      "note": 75,
      "start": 36.7405,
      "duration": 0.1118,
      "velocity": 87,
      "chip": "ym2612"
    },
    {
      "channel": 0,
      "note": 73,
      "start": 36.8176,
      "duration": 0.1112,
      "velocity": 87,
      "chip": "ym2612"
    },
    {
      "channel": 2,
      "note": 37,
      "start": 36.8197,
      "duration": 0.1064,
      "velocity": 120,
      "chip": "ym2612"
    },
    {
      "channel": 2,
      "note": 37,
      "start": 36.9301,
      "duration": 0.1279,
      "velocity": 120,
      "chip": "ym2612"
    },
    {
      "channel": 4,
      "note": 73,
      "start": 36.9644,
      "duration": 0.1117,
      "velocity": 87,
      "chip": "ym2612"
    },
    {
      "channel": 0,
      "note": 71,
      "start": 37.0388,
      "duration": 0.1146,
      "velocity": 87,
      "chip": "ym2612"
    },
    {
      "channel": 2,
      "note": 77,
      "start": 37.1547,
      "duration": 0.2192,
      "velocity": 127,
      "chip": "ym2612"
    },
    {
      "channel": 4,
      "note": 71,
      "start": 37.1884,
      "duration": 0.1117,
      "velocity": 87,
      "chip": "ym2612"
    },
    {
      "channel": 0,
      "note": 70,
      "start": 37.2627,
      "duration": 0.1139,
      "velocity": 87,
      "chip": "ym2612"
    },
    {
      "channel": 0,
      "note": 71,
      "start": 37.3774,
      "duration": 0.1085,
      "velocity": 87,
      "chip": "ym2612"
    },
    {
      "channel": 3,
      "note": 92,
      "start": 37.3785,
      "duration": 0.1088,
      "velocity": 91,
      "chip": "ym2612"
    },
    {
      "channel": 2,
      "note": 37,
      "start": 37.3793,
      "duration": 0.1267,
      "velocity": 120,
      "chip": "ym2612"
    },
    {
      "channel": 4,
      "note": 70,
      "start": 37.4129,
      "duration": 0.1112,
      "velocity": 87,
      "chip": "ym2612"
    },
    {
      "channel": 0,
      "note": 73,
      "start": 37.487,
      "duration": 0.1139,
      "velocity": 87,
      "chip": "ym2612"
    },
    {
      "channel": 3,
      "note": 92,
      "start": 37.488,
      "duration": 0.1174,
      "velocity": 91,
      "chip": "ym2612"
    },
    {
      "channel": 4,
      "note": 71,
      "start": 37.5248,
      "duration": 0.1116,
      "velocity": 87,
      "chip": "ym2612"
    },
    {
      "channel": 1,
      "note": 56,
      "start": 37.6019,
      "duration": 0.1115,
      "velocity": 80,
      "chip": "ym2612"
    },
    {
      "channel": 2,
      "note": 37,
      "start": 37.6071,
      "duration": 0.1027,
      "velocity": 120,
      "chip": "ym2612"
    },
    {
      "channel": 4,
      "note": 73,
      "start": 37.6371,
      "duration": 0.111,
      "velocity": 87,
      "chip": "ym2612"
    },
    {
      "channel": 5,
      "note": 92,
      "start": 37.6743,
      "duration": 0.1113,
      "velocity": 91,
      "chip": "ym2612"
    },
    {
      "channel": 0,
      "note": 68,
      "start": 37.7133,
      "duration": 0.1112,
      "velocity": 87,
      "chip": "ym2612"
    },
    {
      "channel": 1,
      "note": 56,
      "start": 37.714,
      "duration": 0.1114,
      "velocity": 80,
      "chip": "ym2612"
    },
    {
      "channel": 2,
      "note": 37,
      "start": 37.7157,
      "duration": 0.1061,
      "velocity": 120,
      "chip": "ym2612"
    },
    {
      "channel": 5,
      "note": 92,
      "start": 37.7868,
      "duration": 0.1139,
      "velocity": 91,
      "chip": "ym2612"
    },
    {
      "channel": 0,
      "note": 75,
      "start": 37.8253,
      "duration": 0.1085,
      "velocity": 87,
      "chip": "ym2612"
    },
    {
      "channel": 3,
      "note": 92,
      "start": 37.8265,
      "duration": 0.1081,
      "velocity": 91,
      "chip": "ym2612"
    },
    {
      "channel": 2,
      "note": 37,
      "start": 37.8277,
      "duration": 0.1266,
      "velocity": 120,
      "chip": "ym2612"
    },
    {
      "channel": 4,
      "note": 68,
      "start": 37.8606,
      "duration": 0.1113,
      "velocity": 87,
      "chip": "ym2612"
    },
    {
      "channel": 0,
      "note": 78,
      "start": 37.9344,
      "duration": 0.114,
      "velocity": 87,
      "chip": "ym2612"
    },
    {
      "channel": 3,
      "note": 92,
      "start": 37.9357,
      "duration": 0.1137,
      "velocity": 91,
      "chip": "ym2612"
    },
    {
      "channel": 4,
      "note": 75,
      "start": 37.9727,
      "duration": 0.111,
      "velocity": 87,
      "chip": "ym2612"
    },
    {
      "channel": 0,
      "note": 77,
      "start": 38.0491,
      "duration": 0.1113,
      "velocity": 87,
      "chip": "ym2612"
    },
    {
      "channel": 2,
      "note": 77,
      "start": 38.0511,
      "duration": 0.1064,
      "velocity": 127,
      "chip": "ym2612"
    },
    {
      "channel": 4,
      "note": 78,
      "start": 38.0844,
      "duration": 0.1113,
      "velocity": 87,
      "chip": "ym2612"
    },
    {
      "channel": 5,
      "note": 92,
      "start": 38.1223,
      "duration": 0.1111,
      "velocity": 91,
      "chip": "ym2612"
    },
    {
      "channel": 0,
      "note": 73,
      "start": 38.1611,
      "duration": 0.109,
      "velocity": 87,
      "chip": "ym2612"
    },
    {
      "channel": 2,
      "note": 37,
      "start": 38.1628,
      "duration": 0.1269,
      "velocity": 120,
      "chip": "ym2612"
    },
    {
      "channel": 4,
      "note": 77,
      "start": 38.1963,
      "duration": 0.1111,
      "velocity": 87,
      "chip": "ym2612"
    },
    {
      "channel": 5,
      "note": 92,
      "start": 38.2342,
      "duration": 0.1109,
      "velocity": 91,
      "chip": "ym2612"
    },
    {
      "channel": 1,
      "note": 56,
      "start": 38.271,
      "duration": 0.1115,
      "velocity": 80,
      "chip": "ym2612"
    },
    {
      "channel": 4,
      "note": 73,
      "start": 38.3082,
      "duration": 0.1122,
      "velocity": 87,
      "chip": "ym2612"
    },
    {
      "channel": 0,
      "note": 75,
      "start": 38.3823,
      "duration": 0.1139,
      "velocity": 87,
      "chip": "ym2612"
    },
    {
      "channel": 1,
      "note": 56,
      "start": 38.383,
      "duration": 0.1135,
      "velocity": 80,
      "chip": "ym2612"
    },
    {
      "channel": 2,
      "note": 37,
      "start": 38.4977,
      "duration": 0.1077,
      "velocity": 120,
      "chip": "ym2612"
    },
    {
      "channel": 4,
      "note": 75,
      "start": 38.5318,
      "duration": 0.1113,
      "velocity": 87,
      "chip": "ym2612"
    },
    {
      "channel": 2,
      "note": 37,
      "start": 38.6095,
      "duration": 0.1078,
      "velocity": 120,
      "chip": "ym2612"
    },
    {
      "channel": 1,
      "note": 54,
      "start": 38.7215,
      "duration": 0.1106,
      "velocity": 80,
      "chip": "ym2612"
    },
    {
      "channel": 2,
      "note": 77,
      "start": 38.7226,
      "duration": 0.1067,
      "velocity": 127,
      "chip": "ym2612"
    },
    {
      "channel": 1,
      "note": 58,
      "start": 38.8328,
      "duration": 0.1115,
      "velocity": 80,
      "chip": "ym2612"
    },
    {
      "channel": 2,
      "note": 77,
      "start": 38.8339,
      "duration": 0.0328,
      "velocity": 127,
      "chip": "ym2612"
    },
    {
      "channel": 2,
      "note": 77,
      "start": 38.8715,
      "duration": 0.0698,
      "velocity": 127,
      "chip": "ym2612"
    },
    {
      "channel": 2,
      "note": 77,
      "start": 38.9455,
      "duration": 0.1083,
      "velocity": 127,
      "chip": "ym2612"
    },
    {
      "channel": 1,
      "note": 59,
      "start": 39.0573,
      "duration": 0.1108,
      "velocity": 80,
      "chip": "ym2612"
    },
    {
      "channel": 2,
      "note": 77,
      "start": 39.0583,
      "duration": 0.1069,
      "velocity": 127,
      "chip": "ym2612"
    },
    {
      "channel": 1,
      "note": 58,
      "start": 39.1689,
      "duration": 0.1111,
      "velocity": 80,
      "chip": "ym2612"
    },
    {
      "channel": 3,
      "note": 92,
      "start": 39.1702,
      "duration": 0.1105,
      "velocity": 91,
      "chip": "ym2612"
    },
    {
      "channel": 2,
      "note": 77,
      "start": 39.1713,
      "duration": 0.1059,
      "velocity": 127,
      "chip": "ym2612"
    },
    {
      "channel": 1,
      "note": 56,
      "start": 39.2805,
      "duration": 0.1126,
      "velocity": 80,
      "chip": "ym2612"
    },
    {
      "channel": 3,
      "note": 92,
      "start": 39.2815,
      "duration": 0.1125,
      "velocity": 91,
      "chip": "ym2612"
    },
    {
      "channel": 2,
      "note": 77,
      "start": 39.2825,
      "duration": 0.1066,
      "velocity": 127,
      "chip": "ym2612"
    },
    {
      "channel": 0,
      "note": 85,
      "start": 39.3928,
      "duration": 0.1117,
      "velocity": 87,
      "chip": "ym2612"
    },
    {
      "channel": 1,
      "note": 61,
      "start": 39.3937,
      "duration": 0.1117,
      "velocity": 80,
      "chip": "ym2612"
    },
    {
      "channel": 2,
      "note": 86,
      "start": 39.3956,
      "duration": 0.1055,
      "velocity": 127,
      "chip": "ym2612"
    },
    {
      "channel": 5,
      "note": 92,
      "start": 39.4656,
      "duration": 0.1115,
      "velocity": 91,
      "chip": "ym2612"
    },
    {
      "channel": 0,
      "note": 83,
      "start": 39.5052,
      "duration": 0.1105,
      "velocity": 87,
      "chip": "ym2612"
    },
    {
      "channel": 1,
      "note": 61,
      "start": 39.506,
      "duration": 0.5585,
      "velocity": 80,
      "chip": "ym2612"
    },
    {
      "channel": 2,
      "note": 86,
      "start": 39.5075,
      "duration": 0.1055,
      "velocity": 127,
      "chip": "ym2612"
    },
    {
      "channel": 4,
      "note": 85,
      "start": 39.5402,
      "duration": 0.1112,
      "velocity": 87,
      "chip": "ym2612"
    },
    {
      "channel": 5,
      "note": 92,
      "start": 39.5779,
      "duration": 0.1116,
      "velocity": 91,
      "chip": "ym2612"
    },
    {
      "channel": 0,
      "note": 80,
      "start": 39.6165,
      "duration": 0.1113,
      "velocity": 87,
      "chip": "ym2612"
    },
    {
      "channel": 3,
      "note": 85,
      "start": 39.6178,
      "duration": 0.1112,
      "velocity": 91,
      "chip": "ym2612"
    },
    {
      "channel": 2,
      "note": 82,
      "start": 39.6201,
      "duration": 0.1049,
      "velocity": 127,
      "chip": "ym2612"
    },
    {
      "channel": 4,
      "note": 83,
      "start": 39.6524,
      "duration": 0.1111,
      "velocity": 87,
      "chip": "ym2612"
    },
    {
      "channel": 0,
      "note": 78,
      "start": 39.7285,
      "duration": 0.1112,
      "velocity": 87,
      "chip": "ym2612"
    },
    {
      "channel": 3,
      "note": 85,
      "start": 39.7298,
      "duration": 0.1111,
      "velocity": 91,
      "chip": "ym2612"
    },
    {
      "channel": 2,
      "note": 82,
      "start": 39.7312,
      "duration": 0.1056,
      "velocity": 127,
      "chip": "ym2612"
    },
    {
      "channel": 4,
      "note": 80,
      "start": 39.7643,
      "duration": 0.1109,
      "velocity": 87,
      "chip": "ym2612"
    },
    {
      "channel": 0,
      "note": 73,
      "start": 39.8404,
      "duration": 0.2232,
      "velocity": 87,
      "chip": "ym2612"
    },
    {
      "channel": 2,
      "note": 74,
      "start": 39.8428,
      "duration": 0.218,
      "velocity": 127,
      "chip": "ym2612"
    },
    {
      "channel": 4,
      "note": 78,
      "start": 39.8759,
      "duration": 0.1119,
      "velocity": 87,
      "chip": "ym2612"
    },
    {
      "channel": 5,
      "note": 85,
      "start": 39.9138,
      "duration": 0.1113,
      "velocity": 91,
      "chip": "ym2612"
    },
    {
      "channel": 3,
      "note": 85,
      "start": 39.9505,
      "duration": 0.1147,
      "velocity": 91,
      "chip": "ym2612"
    },
    {
      "channel": 4,
      "note": 73,
      "start": 39.9886,
      "duration": 0.2228,
      "velocity": 87,
      "chip": "ym2612"
    },
    {
      "channel": 5,
      "note": 85,
      "start": 40.026,
      "duration": 0.1117,
      "velocity": 91,
      "chip": "ym2612"
    },
    {
      "channel": 0,
      "note": 85,
      "start": 40.0643,
      "duration": 0.1112,
      "velocity": 87,
      "chip": "ym2612"
    },
    {
      "channel": 1,
      "note": 61,
      "start": 40.0651,
      "duration": 0.1113,
      "velocity": 80,
      "chip": "ym2612"
    },
    {
      "channel": 2,
      "note": 86,
      "start": 40.0674,
      "duration": 0.1054,
      "velocity": 127,
      "chip": "ym2612"
    },
    {
      "channel": 0,
      "note": 83,
      "start": 40.1763,
      "duration": 0.1118,
      "velocity": 87,
      "chip": "ym2612"
    },
    {
      "channel": 1,
      "note": 61,
      "start": 40.1771,
      "duration": 0.5594,
      "velocity": 80,
      "chip": "ym2612"
    },
    {
      "channel": 3,
      "note": 85,
      "start": 40.1779,
      "duration": 0.1114,
      "velocity": 91,
      "chip": "ym2612"
    },
    {
      "channel": 2,
      "note": 86,
      "start": 40.1795,
      "duration": 0.1052,
      "velocity": 127,
      "chip": "ym2612"
    },
    {
      "channel": 4,
      "note": 85,
      "start": 40.2121,
      "duration": 0.1109,
      "velocity": 87,
      "chip": "ym2612"
    },
    {
      "channel": 5,
      "note": 85,
      "start": 40.2499,
      "duration": 0.1109,
      "velocity": 91,
      "chip": "ym2612"
    },
    {
      "channel": 0,
      "note": 80,
      "start": 40.2888,
      "duration": 0.1107,
      "velocity": 87,
      "chip": "ym2612"
    },
    {
      "channel": 2,
      "note": 82,
      "start": 40.2914,
      "duration": 0.1054,
      "velocity": 127,
      "chip": "ym2612"
    },
    {
      "channel": 4,
      "note": 83,
      "start": 40.3238,
      "duration": 0.1112,
      "velocity": 87,
      "chip": "ym2612"
    },
    {
      "channel": 0,
      "note": 78,
      "start": 40.4002,
      "duration": 0.1113,
      "velocity": 87,
      "chip": "ym2612"
    },
    {
      "channel": 2,
      "note": 82,
      "start": 40.4022,
      "duration": 0.1064,
      "velocity": 127,
      "chip": "ym2612"
    },
    {
      "channel": 4,
      "note": 80,
      "start": 40.4363,
      "duration": 0.1106,
      "velocity": 87,
      "chip": "ym2612"
    },
    {
      "channel": 5,
      "note": 85,
      "start": 40.4736,
      "duration": 0.1111,
      "velocity": 91,
      "chip": "ym2612"
    },
    {
      "channel": 0,
      "note": 73,
      "start": 40.5122,
      "duration": 0.6711,
      "velocity": 87,
      "chip": "ym2612"
    },
    {
      "channel": 2,
      "note": 74,
      "start": 40.5144,
      "duration": 0.1062,
      "velocity": 127,
      "chip": "ym2612"
    },
    {
      "channel": 4,
      "note": 78,
      "start": 40.5477,
      "duration": 0.114,
      "velocity": 87,
      "chip": "ym2612"
    },
    {
      "channel": 2,
      "note": 77,
      "start": 40.6255,
      "duration": 0.0324,
      "velocity": 127,
      "chip": "ym2612"
    },
    {
      "channel": 4,
      "note": 73,
      "start": 40.6624,
      "duration": 0.6681,
      "velocity": 87,
      "chip": "ym2612"
    },
    {
      "channel": 2,
      "note": 77,
      "start": 40.6633,
      "duration": 0.0693,
      "velocity": 127,
      "chip": "ym2612"
    },
    {
      "channel": 1,
      "note": 56,
      "start": 40.7371,
      "duration": 0.1107,
      "velocity": 80,
      "chip": "ym2612"
    },
    {
      "channel": 2,
      "note": 77,
      "start": 40.7386,
      "duration": 0.106,
      "velocity": 127,
      "chip": "ym2612"
    },
    {
      "channel": 1,
      "note": 57,
      "start": 40.8484,
      "duration": 0.1115,
      "velocity": 80,
      "chip": "ym2612"
    },
    {
      "channel": 2,
      "note": 77,
      "start": 40.8498,
      "duration": 0.1066,
      "velocity": 127,
      "chip": "ym2612"
    },
    {
      "channel": 1,
      "note": 58,
      "start": 40.9604,
      "duration": 0.112,
      "velocity": 80,
      "chip": "ym2612"
    },
    {
      "channel": 2,
      "note": 77,
      "start": 40.9619,
      "duration": 0.1068,
      "velocity": 127,
      "chip": "ym2612"
    },
    {
      "channel": 1,
      "note": 59,
      "start": 41.0729,
      "duration": 0.1111,
      "velocity": 80,
      "chip": "ym2612"
    },
    {
      "channel": 2,
      "note": 77,
      "start": 41.0744,
      "duration": 0.1061,
      "velocity": 127,
      "chip": "ym2612"
    },
    {
      "channel": 0,
      "note": 85,
      "start": 41.1839,
      "duration": 0.1112,
      "velocity": 87,
      "chip": "ym2612"
    },
    {
      "channel": 1,
      "note": 61,
      "start": 41.1847,
      "duration": 0.1113,
      "velocity": 80,
      "chip": "ym2612"
    },
    {
      "channel": 2,
      "note": 86,
      "start": 41.1875,
      "duration": 0.1048,
      "velocity": 127,
      "chip": "ym2612"
    },
    {
      "channel": 0,
      "note": 83,
      "start": 41.2958,
      "duration": 0.1113,
      "velocity": 87,
      "chip": "ym2612"
    },
    {
      "channel": 1,
      "note": 61,
      "start": 41.2966,
      "duration": 0.5595,
      "velocity": 80,
      "chip": "ym2612"
    },
    {
      "channel": 2,
      "note": 86,
      "start": 41.2982,
      "duration": 0.1062,
      "velocity": 127,
      "chip": "ym2612"
    },
    {
      "channel": 4,
      "note": 85,
      "start": 41.3313,
      "duration": 0.1115,
      "velocity": 87,
      "chip": "ym2612"
    },
    {
      "channel": 0,
      "note": 80,
      "start": 41.4078,
      "duration": 0.1119,
      "velocity": 87,
      "chip": "ym2612"
    },
    {
      "channel": 3,
      "note": 85,
      "start": 41.4092,
      "duration": 0.1118,
      "velocity": 91,
      "chip": "ym2612"
    },
    {
      "channel": 2,
      "note": 82,
      "start": 41.4106,
      "duration": 0.1057,
      "velocity": 127,
      "chip": "ym2612"
    },
    {
      "channel": 4,
      "note": 83,
      "start": 41.4435,
      "duration": 0.1113,
      "velocity": 87,
      "chip": "ym2612"
    },
    {
      "channel": 0,
      "note": 78,
      "start": 41.5204,
      "duration": 0.1106,
      "velocity": 87,
      "chip": "ym2612"
    },
    {
      "channel": 3,
      "note": 85,
      "start": 41.5217,
      "duration": 0.1106,
      "velocity": 91,
      "chip": "ym2612"
    },
    {
      "channel": 2,
      "note": 82,
      "start": 41.5231,
      "duration": 0.1051,
      "velocity": 127,
      "chip": "ym2612"
    },
    {
      "channel": 4,
      "note": 80,
      "start": 41.5555,
      "duration": 0.1109,
      "velocity": 87,
      "chip": "ym2612"
    },
    {
      "channel": 0,
      "note": 73,
      "start": 41.6317,
      "duration": 0.5563,
      "velocity": 87,
      "chip": "ym2612"
    },
    {
      "channel": 2,
      "note": 74,
      "start": 41.6342,
      "duration": 0.2182,
      "velocity": 127,
      "chip": "ym2612"
    },
    {
      "channel": 4,
      "note": 78,
      "start": 41.6671,
      "duration": 0.1116,
      "velocity": 87,
      "chip": "ym2612"
    },
    {
      "channel": 5,
      "note": 85,
      "start": 41.7054,
      "duration": 0.1111,
      "velocity": 91,
      "chip": "ym2612"
    },
    {
      "channel": 3,
      "note": 85,
      "start": 41.7418,
      "duration": 0.1149,
      "velocity": 91,
      "chip": "ym2612"
    },
    {
      "channel": 4,
      "note": 73,
      "start": 41.7795,
      "duration": 0.5587,
      "velocity": 87,
      "chip": "ym2612"
    },
    {
      "channel": 5,
      "note": 85,
      "start": 41.8173,
      "duration": 0.1109,
      "velocity": 91,
      "chip": "ym2612"
    },
    {
      "channel": 1,
      "note": 61,
      "start": 41.8566,
      "duration": 0.108,
      "velocity": 80,
      "chip": "ym2612"
    },
    {
      "channel": 2,
      "note": 77,
      "start": 41.8588,
      "duration": 0.2173,
      "velocity": 127,
      "chip": "ym2612"
    },
    {
      "channel": 1,
      "note": 61,
      "start": 41.9652,
      "duration": 0.5623,
      "velocity": 80,
      "chip": "ym2612"
    },
    {
      "channel": 3,
      "note": 85,
      "start": 41.9662,
      "duration": 0.1136,
      "velocity": 91,
      "chip": "ym2612"
    },
    {
      "channel": 5,
      "note": 85,
      "start": 42.0412,
      "duration": 0.1111,
      "velocity": 91,
      "chip": "ym2612"
    },
    {
      "channel": 2,
      "note": 77,
      "start": 42.0817,
      "duration": 0.2181,
      "velocity": 127,
      "chip": "ym2612"
    },
    {
      "channel": 0,
      "note": 68,
      "start": 42.1888,
      "duration": 0.1146,
      "velocity": 87,
      "chip": "ym2612"
    },
    {
      "channel": 5,
      "note": 85,
      "start": 42.2648,
      "duration": 0.1112,
      "velocity": 91,
      "chip": "ym2612"
    },
    {
      "channel": 0,
      "note": 80,
      "start": 42.304,
      "duration": 0.1079,
      "velocity": 87,
      "chip": "ym2612"
    },
    {
      "channel": 2,
      "note": 77,
      "start": 42.3061,
      "duration": 0.2178,
      "velocity": 127,
      "chip": "ym2612"
    },
    {
      "channel": 4,
      "note": 68,
      "start": 42.3389,
      "duration": 0.1112,
      "velocity": 87,
      "chip": "ym2612"
    },
    {
      "channel": 0,
      "note": 68,
      "start": 42.4127,
      "duration": 0.114,
      "velocity": 87,
      "chip": "ym2612"
    },
    {
      "channel": 4,
      "note": 80,
      "start": 42.4509,
      "duration": 0.111,
      "velocity": 87,
      "chip": "ym2612"
    },
    {
      "channel": 0,
      "note": 69,
      "start": 42.5274,
      "duration": 0.1116,
      "velocity": 87,
      "chip": "ym2612"
    },
    {
      "channel": 2,
      "note": 77,
      "start": 42.5292,
      "duration": 0.1066,
      "velocity": 127,
      "chip": "ym2612"
    },
    {
      "channel": 4,
      "note": 68,
      "start": 42.5626,
      "duration": 0.1112,
      "velocity": 87,
      "chip": "ym2612"
    },
    {
      "channel": 0,
      "note": 81,
      "start": 42.6397,
      "duration": 0.1109,
      "velocity": 87,
      "chip": "ym2612"
    },
    {
      "channel": 2,
      "note": 77,
      "start": 42.6413,
      "duration": 0.1065,
      "velocity": 127,
      "chip": "ym2612"
    },
    {
      "channel": 4,
      "note": 69,
      "start": 42.6746,
      "duration": 0.1118,
      "velocity": 87,
      "chip": "ym2612"
    },
    {
      "channel": 0,
      "note": 70,
      "start": 42.7513,
      "duration": 0.1112,
      "velocity": 87,
      "chip": "ym2612"
    },
    {
      "channel": 2,
      "note": 77,
      "start": 42.7534,
      "duration": 0.1062,
      "velocity": 127,
      "chip": "ym2612"
    },
    {
      "channel": 4,
      "note": 81,
      "start": 42.7871,
      "duration": 0.1106,
      "velocity": 87,
      "chip": "ym2612"
    },
    {
      "channel": 0,
      "note": 82,
      "start": 42.8632,
      "duration": 0.1115,
      "velocity": 87,
      "chip": "ym2612"
    },
    {
      "channel": 2,
      "note": 77,
      "start": 42.8648,
      "duration": 0.1071,
      "velocity": 127,
      "chip": "ym2612"
    },
    {
      "channel": 4,
      "note": 70,
      "start": 42.8984,
      "duration": 0.1111,
      "velocity": 87,
      "chip": "ym2612"
    },
    {
      "channel": 1,
      "note": 56,
      "start": 42.9757,
      "duration": 0.1122,
      "velocity": 80,
      "chip": "ym2612"
    },
    {
      "channel": 2,
      "note": 37,
      "start": 42.9777,
      "duration": 0.1059,
      "velocity": 120,
      "chip": "ym2612"
    },
    {
      "channel": 4,
      "note": 82,
      "start": 43.0103,
      "duration": 0.1116,
      "velocity": 87,
      "chip": "ym2612"
    },
    {
      "channel": 0,
      "note": 68,
      "start": 43.0877,
      "duration": 0.1107,
      "velocity": 87,
      "chip": "ym2612"
    },
    {
      "channel": 1,
      "note": 56,
      "start": 43.0885,
      "duration": 0.1108,
      "velocity": 80,
      "chip": "ym2612"
    },
    {
      "channel": 2,
      "note": 37,
      "start": 43.0898,
      "duration": 0.1058,
      "velocity": 120,
      "chip": "ym2612"
    },
    {
      "channel": 0,
      "note": 75,
      "start": 43.1991,
      "duration": 0.1085,
      "velocity": 87,
      "chip": "ym2612"
    },
    {
      "channel": 3,
      "note": 92,
      "start": 43.2005,
      "duration": 0.1081,
      "velocity": 91,
      "chip": "ym2612"
    },
    {
      "channel": 2,
      "note": 37,
      "start": 43.2013,
      "duration": 0.1265,
      "velocity": 120,
      "chip": "ym2612"
    },
    {
      "channel": 4,
      "note": 68,
      "start": 43.2346,
      "duration": 0.1112,
      "velocity": 87,
      "chip": "ym2612"
    },
    {
      "channel": 0,
      "note": 78,
      "start": 43.3083,
      "duration": 0.1143,
      "velocity": 87,
      "chip": "ym2612"
    },
    {
      "channel": 3,
      "note": 92,
      "start": 43.3094,
      "duration": 0.1142,
      "velocity": 91,
      "chip": "ym2612"
    },
    {
      "channel": 4,
      "note": 75,
      "start": 43.3465,
      "duration": 0.111,
      "velocity": 87,
      "chip": "ym2612"
    },
    {
      "channel": 0,
      "note": 77,
      "start": 43.4234,
      "duration": 0.111,
      "velocity": 87,
      "chip": "ym2612"
    },
    {
      "channel": 2,
      "note": 77,
      "start": 43.4254,
      "duration": 0.106,
      "velocity": 127,
      "chip": "ym2612"
    },
    {
      "channel": 4,
      "note": 78,
      "start": 43.4582,
      "duration": 0.112,
      "velocity": 87,
      "chip": "ym2612"
    },
    {
      "channel": 5,
      "note": 92,
      "start": 43.4961,
      "duration": 0.1111,
      "velocity": 91,
      "chip": "ym2612"
    },
    {
      "channel": 0,
      "note": 73,
      "start": 43.535,
      "duration": 0.1084,
      "velocity": 87,
      "chip": "ym2612"
    },
    {
      "channel": 2,
      "note": 37,
      "start": 43.5373,
      "duration": 0.1262,
      "velocity": 120,
      "chip": "ym2612"
    },
    {
      "channel": 4,
      "note": 77,
      "start": 43.5709,
      "duration": 0.1104,
      "velocity": 87,
      "chip": "ym2612"
    },
    {
      "channel": 5,
      "note": 92,
      "start": 43.608,
      "duration": 0.1117,
      "velocity": 91,
      "chip": "ym2612"
    },
    {
      "channel": 1,
      "note": 56,
      "start": 43.6443,
      "duration": 0.112,
      "velocity": 80,
      "chip": "ym2612"
    },
    {
      "channel": 4,
      "note": 73,
      "start": 43.682,
      "duration": 0.1117,
      "velocity": 87,
      "chip": "ym2612"
    },
    {
      "channel": 0,
      "note": 75,
      "start": 43.7562,
      "duration": 0.1146,
      "velocity": 87,
      "chip": "ym2612"
    },
    {
      "channel": 1,
      "note": 56,
      "start": 43.7569,
      "duration": 0.1142,
      "velocity": 80,
      "chip": "ym2612"
    },
    {
      "channel": 2,
      "note": 37,
      "start": 43.8723,
      "duration": 0.1069,
      "velocity": 120,
      "chip": "ym2612"
    },
    {
      "channel": 4,
      "note": 75,
      "start": 43.9057,
      "duration": 0.1117,
      "velocity": 87,
      "chip": "ym2612"
    },
    {
      "channel": 0,
      "note": 73,
      "start": 43.9828,
      "duration": 0.1113,
      "velocity": 87,
      "chip": "ym2612"
    },
    {
      "channel": 2,
      "note": 37,
      "start": 43.9842,
      "duration": 0.1069,
      "velocity": 120,
      "chip": "ym2612"
    },
    {
      "channel": 2,
      "note": 37,
      "start": 44.0952,
      "duration": 0.1279,
      "velocity": 120,
      "chip": "ym2612"
    },
    {
      "channel": 4,
      "note": 73,
      "start": 44.1295,
      "duration": 0.1116,
      "velocity": 87,
      "chip": "ym2612"
    },
    {
      "channel": 0,
      "note": 71,
      "start": 44.2041,
      "duration": 0.1138,
      "velocity": 87,
      "chip": "ym2612"
    },
    {
      "channel": 2,
      "note": 77,
      "start": 44.3199,
      "duration": 0.2191,
      "velocity": 127,
      "chip": "ym2612"
    },
    {
      "channel": 4,
      "note": 71,
      "start": 44.3539,
      "duration": 0.1111,
      "velocity": 87,
      "chip": "ym2612"
    },
    {
      "channel": 0,
      "note": 70,
      "start": 44.4279,
      "duration": 0.114,
      "velocity": 87,
      "chip": "ym2612"
    },
    {
      "channel": 0,
      "note": 71,
      "start": 44.5426,
      "duration": 0.1084,
      "velocity": 87,
      "chip": "ym2612"
    },
    {
      "channel": 3,
      "note": 92,
      "start": 44.5437,
      "duration": 0.1085,
      "velocity": 91,
      "chip": "ym2612"
    },
    {
      "channel": 2,
      "note": 37,
      "start": 44.5445,
      "duration": 0.127,
      "velocity": 120,
      "chip": "ym2612"
    },
    {
      "channel": 4,
      "note": 70,
      "start": 44.578,
      "duration": 0.1112,
      "velocity": 87,
      "chip": "ym2612"
    },
    {
      "channel": 0,
      "note": 73,
      "start": 44.652,
      "duration": 0.1141,
      "velocity": 87,
      "chip": "ym2612"
    },
    {
      "channel": 3,
      "note": 92,
      "start": 44.6534,
      "duration": 0.114,
      "velocity": 91,
      "chip": "ym2612"
    },
    {
      "channel": 4,
      "note": 71,
      "start": 44.69,
      "duration": 0.1107,
      "velocity": 87,
      "chip": "ym2612"
    },
    {
      "channel": 1,
      "note": 56,
      "start": 44.7669,
      "duration": 0.1116,
      "velocity": 80,
      "chip": "ym2612"
    },
    {
      "channel": 2,
      "note": 37,
      "start": 44.7692,
      "duration": 0.1056,
      "velocity": 120,
      "chip": "ym2612"
    },
    {
      "channel": 4,
      "note": 73,
      "start": 44.8015,
      "duration": 0.1116,
      "velocity": 87,
      "chip": "ym2612"
    },
    {
      "channel": 5,
      "note": 92,
      "start": 44.8395,
      "duration": 0.1111,
      "velocity": 91,
      "chip": "ym2612"
    },
    {
      "channel": 0,
      "note": 68,
      "start": 44.8784,
      "duration": 0.1112,
      "velocity": 87,
      "chip": "ym2612"
    },
    {
      "channel": 1,
      "note": 56,
      "start": 44.8791,
      "duration": 0.1113,
      "velocity": 80,
      "chip": "ym2612"
    },
    {
      "channel": 2,
      "note": 37,
      "start": 44.8807,
      "duration": 0.106,
      "velocity": 120,
      "chip": "ym2612"
    },
    {
      "channel": 5,
      "note": 92,
      "start": 44.9513,
      "duration": 0.1118,
      "velocity": 91,
      "chip": "ym2612"
    },
    {
      "channel": 0,
      "note": 75,
      "start": 44.9903,
      "duration": 0.1085,
      "velocity": 87,
      "chip": "ym2612"
    },
    {
      "channel": 3,
      "note": 92,
      "start": 44.9916,
      "duration": 0.1081,
      "velocity": 91,
      "chip": "ym2612"
    },
    {
      "channel": 2,
      "note": 37,
      "start": 44.9928,
      "duration": 0.1269,
      "velocity": 120,
      "chip": "ym2612"
    },
    {
      "channel": 4,
      "note": 68,
      "start": 45.0259,
      "duration": 0.1116,
      "velocity": 87,
      "chip": "ym2612"
    },
    {
      "channel": 0,
      "note": 78,
      "start": 45.0996,
      "duration": 0.114,
      "velocity": 87,
      "chip": "ym2612"
    },
    {
      "channel": 3,
      "note": 92,
      "start": 45.1006,
      "duration": 0.1139,
      "velocity": 91,
      "chip": "ym2612"
    },
    {
      "channel": 4,
      "note": 75,
      "start": 45.1382,
      "duration": 0.1105,
      "velocity": 87,
      "chip": "ym2612"
    },
    {
      "channel": 0,
      "note": 77,
      "start": 45.2143,
      "duration": 0.1113,
      "velocity": 87,
      "chip": "ym2612"
    },
    {
      "channel": 2,
      "note": 77,
      "start": 45.2162,
      "duration": 0.1064,
      "velocity": 127,
      "chip": "ym2612"
    },
    {
      "channel": 4,
      "note": 78,
      "start": 45.2494,
      "duration": 0.1113,
      "velocity": 87,
      "chip": "ym2612"
    },
    {
      "channel": 5,
      "note": 92,
      "start": 45.2881,
      "duration": 0.1104,
      "velocity": 91,
      "chip": "ym2612"
    },
    {
      "channel": 0,
      "note": 73,
      "start": 45.3262,
      "duration": 0.1085,
      "velocity": 87,
      "chip": "ym2612"
    },
    {
      "channel": 2,
      "note": 37,
      "start": 45.3279,
      "duration": 0.1269,
      "velocity": 120,
      "chip": "ym2612"
    },
    {
      "channel": 4,
      "note": 77,
      "start": 45.3615,
      "duration": 0.1111,
      "velocity": 87,
      "chip": "ym2612"
    },
    {
      "channel": 5,
      "note": 92,
      "start": 45.3993,
      "duration": 0.111,
      "velocity": 91,
      "chip": "ym2612"
    },
    {
      "channel": 1,
      "note": 56,
      "start": 45.4358,
      "duration": 0.1117,
      "velocity": 80,
      "chip": "ym2612"
    },
    {
      "channel": 4,
      "note": 73,
      "start": 45.4733,
      "duration": 0.1116,
      "velocity": 87,
      "chip": "ym2612"
    },
    {
      "channel": 0,
      "note": 75,
      "start": 45.5474,
      "duration": 0.1141,
      "velocity": 87,
      "chip": "ym2612"
    },
    {
      "channel": 1,
      "note": 56,
      "start": 45.5481,
      "duration": 0.1137,
      "velocity": 80,
      "chip": "ym2612"
    },
    {
      "channel": 2,
      "note": 37,
      "start": 45.6629,
      "duration": 0.1076,
      "velocity": 120,
      "chip": "ym2612"
    },
    {
      "channel": 4,
      "note": 75,
      "start": 45.697,
      "duration": 0.1111,
      "velocity": 87,
      "chip": "ym2612"
    },
    {
      "channel": 2,
      "note": 37,
      "start": 45.7747,
      "duration": 0.1078,
      "velocity": 120,
      "chip": "ym2612"
    },
    {
      "channel": 1,
      "note": 54,
      "start": 45.8866,
      "duration": 0.1079,
      "velocity": 80,
      "chip": "ym2612"
    },
    {
      "channel": 2,
      "note": 37,
      "start": 45.8876,
      "duration": 0.1263,
      "velocity": 120,
      "chip": "ym2612"
    },
    {
      "channel": 1,
      "note": 58,
      "start": 45.9951,
      "duration": 0.1142,
      "velocity": 80,
      "chip": "ym2612"
    },
    {
      "channel": 2,
      "note": 77,
      "start": 46.1106,
      "duration": 0.2197,
      "velocity": 127,
      "chip": "ym2612"
    },
    {
      "channel": 1,
      "note": 59,
      "start": 46.2197,
      "duration": 0.1134,
      "velocity": 80,
      "chip": "ym2612"
    },
    {
      "channel": 1,
      "note": 58,
      "start": 46.3337,
      "duration": 0.1087,
      "velocity": 80,
      "chip": "ym2612"
    },
    {
      "channel": 3,
      "note": 92,
      "start": 46.3347,
      "duration": 0.1085,
      "velocity": 91,
      "chip": "ym2612"
    },
    {
      "channel": 2,
      "note": 37,
      "start": 46.3358,
      "duration": 0.1261,
      "velocity": 120,
      "chip": "ym2612"
    },
    {
      "channel": 1,
      "note": 56,
      "start": 46.443,
      "duration": 0.1151,
      "velocity": 80,
      "chip": "ym2612"
    },
    {
      "channel": 3,
      "note": 92,
      "start": 46.444,
      "duration": 0.1151,
      "velocity": 91,
      "chip": "ym2612"
    },
    {
      "channel": 1,
      "note": 56,
      "start": 46.5587,
      "duration": 0.1119,
      "velocity": 80,
      "chip": "ym2612"
    },
    {
      "channel": 2,
      "note": 37,
      "start": 46.5604,
      "duration": 0.1059,
      "velocity": 120,
      "chip": "ym2612"
    },
    {
      "channel": 5,
      "note": 92,
      "start": 46.6304,
      "duration": 0.1115,
      "velocity": 91,
      "chip": "ym2612"
    },
    {
      "channel": 0,
      "note": 68,
      "start": 46.6704,
      "duration": 0.1106,
      "velocity": 87,
      "chip": "ym2612"
    },
    {
      "channel": 1,
      "note": 56,
      "start": 46.6711,
      "duration": 0.1107,
      "velocity": 80,
      "chip": "ym2612"
    },
    {
      "channel": 2,
      "note": 37,
      "start": 46.6723,
      "duration": 0.1059,
      "velocity": 120,
      "chip": "ym2612"
    },
    {
      "channel": 5,
      "note": 92,
      "start": 46.7426,
      "duration": 0.1123,
      "velocity": 91,
      "chip": "ym2612"
    },
    {
      "channel": 0,
      "note": 75,
      "start": 46.7817,
      "duration": 0.1085,
      "velocity": 87,
      "chip": "ym2612"
    },
    {
      "channel": 3,
      "note": 92,
      "start": 46.783,
      "duration": 0.1082,
      "velocity": 91,
      "chip": "ym2612"
    },
    {
      "channel": 2,
      "note": 37,
      "start": 46.7841,
      "duration": 0.1262,
      "velocity": 120,
      "chip": "ym2612"
    },
    {
      "channel": 4,
      "note": 68,
      "start": 46.8171,
      "duration": 0.1112,
      "velocity": 87,
      "chip": "ym2612"
    },
    {
      "channel": 0,
      "note": 78,
      "start": 46.8909,
      "duration": 0.1146,
      "velocity": 87,
      "chip": "ym2612"
    },
    {
      "channel": 3,
      "note": 92,
      "start": 46.8919,
      "duration": 0.1146,
      "velocity": 91,
      "chip": "ym2612"
    },
    {
      "channel": 4,
      "note": 75,
      "start": 46.9291,
      "duration": 0.1109,
      "velocity": 87,
      "chip": "ym2612"
    },
    {
      "channel": 0,
      "note": 77,
      "start": 47.0062,
      "duration": 0.1106,
      "velocity": 87,
      "chip": "ym2612"
    },
    {
      "channel": 2,
      "note": 77,
      "start": 47.0083,
      "duration": 0.1058,
      "velocity": 127,
      "chip": "ym2612"
    },
    {
      "channel": 4,
      "note": 78,
      "start": 47.0407,
      "duration": 0.1116,
      "velocity": 87,
      "chip": "ym2612"
    },
    {
      "channel": 5,
      "note": 92,
      "start": 47.0786,
      "duration": 0.1111,
      "velocity": 91,
      "chip": "ym2612"
    },
    {
      "channel": 0,
      "note": 73,
      "start": 47.1176,
      "duration": 0.1084,
      "velocity": 87,
      "chip": "ym2612"
    },
    {
      "channel": 2,
      "note": 37,
      "start": 47.1199,
      "duration": 0.1261,
      "velocity": 120,
      "chip": "ym2612"
    },
    {
      "channel": 4,
      "note": 77,
      "start": 47.1534,
      "duration": 0.1104,
      "velocity": 87,
      "chip": "ym2612"
    },
    {
      "channel": 5,
      "note": 92,
      "start": 47.1905,
      "duration": 0.1111,
      "velocity": 91,
      "chip": "ym2612"
    },
    {
      "channel": 1,
      "note": 56,
      "start": 47.2268,
      "duration": 0.112,
      "velocity": 80,
      "chip": "ym2612"
    },
    {
      "channel": 4,
      "note": 73,
      "start": 47.2646,
      "duration": 0.1116,
      "velocity": 87,
      "chip": "ym2612"
    },
    {
      "channel": 0,
      "note": 75,
      "start": 47.3388,
      "duration": 0.1145,
      "velocity": 87,
      "chip": "ym2612"
    },
    {
      "channel": 1,
      "note": 56,
      "start": 47.3395,
      "duration": 0.1141,
      "velocity": 80,
      "chip": "ym2612"
    },
    {
      "channel": 2,
      "note": 37,
      "start": 47.4547,
      "duration": 0.1071,
      "velocity": 120,
      "chip": "ym2612"
    },
    {
      "channel": 4,
      "note": 75,
      "start": 47.4883,
      "duration": 0.1116,
      "velocity": 87,
      "chip": "ym2612"
    },
    {
      "channel": 0,
      "note": 73,
      "start": 47.5653,
      "duration": 0.1114,
      "velocity": 87,
      "chip": "ym2612"
    },
    {
      "channel": 2,
      "note": 37,
      "start": 47.5667,
      "duration": 0.1071,
      "velocity": 120,
      "chip": "ym2612"
    },
    {
      "channel": 2,
      "note": 37,
      "start": 47.6779,
      "duration": 0.1279,
      "velocity": 120,
      "chip": "ym2612"
    },
    {
      "channel": 4,
      "note": 73,
      "start": 47.7121,
      "duration": 0.1116,
      "velocity": 87,
      "chip": "ym2612"
    },
    {
      "channel": 0,
      "note": 71,
      "start": 47.7868,
      "duration": 0.1137,
      "velocity": 87,
      "chip": "ym2612"
    },
    {
      "channel": 2,
      "note": 77,
      "start": 47.902,
      "duration": 0.2196,
      "velocity": 127,
      "chip": "ym2612"
    },
    {
      "channel": 4,
      "note": 71,
      "start": 47.9366,
      "duration": 0.111,
      "velocity": 87,
      "chip": "ym2612"
    },
    {
      "channel": 0,
      "note": 70,
      "start": 48.0104,
      "duration": 0.1141,
      "velocity": 87,
      "chip": "ym2612"
    },
    {
      "channel": 0,
      "note": 71,
      "start": 48.1251,
      "duration": 0.1085,
      "velocity": 87,
      "chip": "ym2612"
    },
    {
      "channel": 3,
      "note": 92,
      "start": 48.1262,
      "duration": 0.1085,
      "velocity": 91,
      "chip": "ym2612"
    },
    {
      "channel": 2,
      "note": 37,
      "start": 48.1271,
      "duration": 0.1272,
      "velocity": 120,
      "chip": "ym2612"
    },
    {
      "channel": 4,
      "note": 70,
      "start": 48.1606,
      "duration": 0.1112,
      "velocity": 87,
      "chip": "ym2612"
    },
    {
      "channel": 0,
      "note": 73,
      "start": 48.2344,
      "duration": 0.1141,
      "velocity": 87,
      "chip": "ym2612"
    },
    {
      "channel": 3,
      "note": 92,
      "start": 48.2356,
      "duration": 0.1142,
      "velocity": 91,
      "chip": "ym2612"
    },
    {
      "channel": 4,
      "note": 71,
      "start": 48.2725,
      "duration": 0.1108,
      "velocity": 87,
      "chip": "ym2612"
    },
    {
      "channel": 1,
      "note": 56,
      "start": 48.3494,
      "duration": 0.1117,
      "velocity": 80,
      "chip": "ym2612"
    },
    {
      "channel": 2,
      "note": 37,
      "start": 48.3514,
      "duration": 0.1061,
      "velocity": 120,
      "chip": "ym2612"
    },
    {
      "channel": 4,
      "note": 73,
      "start": 48.384,
      "duration": 0.1117,
      "velocity": 87,
      "chip": "ym2612"
    },
    {
      "channel": 5,
      "note": 92,
      "start": 48.4223,
      "duration": 0.1108,
      "velocity": 91,
      "chip": "ym2612"
    },
    {
      "channel": 0,
      "note": 68,
      "start": 48.461,
      "duration": 0.1117,
      "velocity": 87,
      "chip": "ym2612"
    },
    {
      "channel": 1,
      "note": 56,
      "start": 48.4617,
      "duration": 0.1118,
      "velocity": 80,
      "chip": "ym2612"
    },
    {
      "channel": 2,
      "note": 37,
      "start": 48.4633,
      "duration": 0.1066,
      "velocity": 120,
      "chip": "ym2612"
    },
    {
      "channel": 5,
      "note": 92,
      "start": 48.5339,
      "duration": 0.1118,
      "velocity": 91,
      "chip": "ym2612"
    },
    {
      "channel": 0,
      "note": 75,
      "start": 48.5734,
      "duration": 0.1081,
      "velocity": 87,
      "chip": "ym2612"
    },
    {
      "channel": 3,
      "note": 92,
      "start": 48.5747,
      "duration": 0.1077,
      "velocity": 91,
      "chip": "ym2612"
    },
    {
      "channel": 2,
      "note": 37,
      "start": 48.5759,
      "duration": 0.1258,
      "velocity": 120,
      "chip": "ym2612"
    },
    {
      "channel": 4,
      "note": 68,
      "start": 48.6085,
      "duration": 0.1118,
      "velocity": 87,
      "chip": "ym2612"
    },
    {
      "channel": 0,
      "note": 78,
      "start": 48.6821,
      "duration": 0.1141,
      "velocity": 87,
      "chip": "ym2612"
    },
    {
      "channel": 3,
      "note": 92,
      "start": 48.6832,
      "duration": 0.114,
      "velocity": 91,
      "chip": "ym2612"
    },
    {
      "channel": 4,
      "note": 75,
      "start": 48.7211,
      "duration": 0.1103,
      "velocity": 87,
      "chip": "ym2612"
    },
    {
      "channel": 0,
      "note": 77,
      "start": 48.7969,
      "duration": 0.1112,
      "velocity": 87,
      "chip": "ym2612"
    },
    {
      "channel": 2,
      "note": 77,
      "start": 48.7989,
      "duration": 0.1064,
      "velocity": 127,
      "chip": "ym2612"
    },
    {
      "channel": 4,
      "note": 78,
      "start": 48.8321,
      "duration": 0.1113,
      "velocity": 87,
      "chip": "ym2612"
    },
    {
      "channel": 5,
      "note": 92,
      "start": 48.8706,
      "duration": 0.1105,
      "velocity": 91,
      "chip": "ym2612"
    },
    {
      "channel": 0,
      "note": 73,
      "start": 48.9088,
      "duration": 0.1085,
      "velocity": 87,
      "chip": "ym2612"
    },
    {
      "channel": 2,
      "note": 37,
      "start": 48.9105,
      "duration": 0.1272,
      "velocity": 120,
      "chip": "ym2612"
    },
    {
      "channel": 4,
      "note": 77,
      "start": 48.944,
      "duration": 0.1111,
      "velocity": 87,
      "chip": "ym2612"
    },
    {
      "channel": 5,
      "note": 92,
      "start": 48.9819,
      "duration": 0.111,
      "velocity": 91,
      "chip": "ym2612"
    },
    {
      "channel": 1,
      "note": 56,
      "start": 49.0182,
      "duration": 0.1119,
      "velocity": 80,
      "chip": "ym2612"
    },
    {
      "channel": 4,
      "note": 73,
      "start": 49.0558,
      "duration": 0.1117,
      "velocity": 87,
      "chip": "ym2612"
    },
    {
      "channel": 0,
      "note": 75,
      "start": 49.13,
      "duration": 0.1139,
      "velocity": 87,
      "chip": "ym2612"
    },
    {
      "channel": 1,
      "note": 56,
      "start": 49.1307,
      "duration": 0.1135,
      "velocity": 80,
      "chip": "ym2612"
    },
    {
      "channel": 2,
      "note": 77,
      "start": 49.2455,
      "duration": 0.2196,
      "velocity": 127,
      "chip": "ym2612"
    },
    {
      "channel": 4,
      "note": 75,
      "start": 49.2795,
      "duration": 0.1113,
      "velocity": 87,
      "chip": "ym2612"
    },
    {
      "channel": 1,
      "note": 54,
      "start": 49.4688,
      "duration": 0.1083,
      "velocity": 80,
      "chip": "ym2612"
    },
    {
      "channel": 2,
      "note": 37,
      "start": 49.4702,
      "duration": 0.1263,
      "velocity": 120,
      "chip": "ym2612"
    },
    {
      "channel": 1,
      "note": 58,
      "start": 49.5777,
      "duration": 0.1142,
      "velocity": 80,
      "chip": "ym2612"
    },
    {
      "channel": 2,
      "note": 37,
      "start": 49.693,
      "duration": 0.1278,
      "velocity": 120,
      "chip": "ym2612"
    },
    {
      "channel": 1,
      "note": 59,
      "start": 49.8017,
      "duration": 0.1141,
      "velocity": 80,
      "chip": "ym2612"
    },
    {
      "channel": 1,
      "note": 58,
      "start": 49.9164,
      "duration": 0.1085,
      "velocity": 80,
      "chip": "ym2612"
    },
    {
      "channel": 3,
      "note": 92,
      "start": 49.9173,
      "duration": 0.1083,
      "velocity": 91,
      "chip": "ym2612"
    },
    {
      "channel": 2,
      "note": 37,
      "start": 49.9182,
      "duration": 0.1263,
      "velocity": 120,
      "chip": "ym2612"
    },
    {
      "channel": 1,
      "note": 56,
      "start": 50.0255,
      "duration": 0.1207,
      "velocity": 80,
      "chip": "ym2612"
    },
    {
      "channel": 3,
      "note": 92,
      "start": 50.0264,
      "duration": 0.1237,
      "velocity": 91,
      "chip": "ym2612"
    },
    {
      "channel": 1,
      "note": 54,
      "start": 50.1467,
      "duration": 0.1063,
      "velocity": 80,
      "chip": "ym2612"
    },
    {
      "channel": 2,
      "note": 37,
      "start": 50.1513,
      "duration": 0.0973,
      "velocity": 120,
      "chip": "ym2612"
    },
    {
      "channel": 5,
      "note": 92,
      "start": 50.2133,
      "duration": 0.1111,
      "velocity": 91,
      "chip": "ym2612"
    },
    {
      "channel": 0,
      "note": 66,
      "start": 50.2524,
      "duration": 0.1111,
      "velocity": 87,
      "chip": "ym2612"
    },
    {
      "channel": 1,
      "note": 54,
      "start": 50.2536,
      "duration": 0.1107,
      "velocity": 80,
      "chip": "ym2612"
    },
    {
      "channel": 2,
      "note": 37,
      "start": 50.2548,
      "duration": 0.1059,
      "velocity": 120,
      "chip": "ym2612"
    },
    {
      "channel": 5,
      "note": 92,
      "start": 50.3252,
      "duration": 0.1154,
      "velocity": 91,
      "chip": "ym2612"
    },
    {
      "channel": 0,
      "note": 73,
      "start": 50.3642,
      "duration": 0.1085,
      "velocity": 87,
      "chip": "ym2612"
    },
    {
      "channel": 3,
      "note": 90,
      "start": 50.3655,
      "duration": 0.1081,
      "velocity": 91,
      "chip": "ym2612"
    },
    {
      "channel": 2,
      "note": 37,
      "start": 50.3666,
      "duration": 0.1263,
      "velocity": 120,
      "chip": "ym2612"
    },
    {
      "channel": 4,
      "note": 66,
      "start": 50.3997,
      "duration": 0.1112,
      "velocity": 87,
      "chip": "ym2612"
    },
    {
      "channel": 0,
      "note": 76,
      "start": 50.4734,
      "duration": 0.1107,
      "velocity": 87,
      "chip": "ym2612"
    },
    {
      "channel": 3,
      "note": 90,
      "start": 50.4744,
      "duration": 0.1096,
      "velocity": 91,
      "chip": "ym2612"
    },
    {
      "channel": 4,
      "note": 73,
      "start": 50.5117,
      "duration": 0.0724,
      "velocity": 87,
      "chip": "ym2612"
    }
  ]
}