{
  "track_name": "13 - Meteor-Man",
  "duration_sec": 60.672,
  "sample_rate": 44100,
  "note_count": 851,
  "unique_pitches": 24,
  "pitch_range": 41,
  "avg_note_duration": 0.0918,
  "reconstruction_stats": {
    "notes_reconstructed": 851,
    "keyon_events": 851,
    "keyoff_events": 828,
    "orphan_keyons": 1,
    "unique_pitches": 24,
    "pitch_range": 41,
    "avg_duration_sec": 0.0918
  },
  "metadata": {
    "source": "S\\Side Pocket\\13 - Meteor-Man.vgz"
  },
  "notes": [
    {
      "channel": 0,
      "note": 84,
      "start": 0.0154,
      "duration": 0.0121,
      "velocity": 99,
      "chip": "ym2612"
    },
    {
      "channel": 1,
      "note": 81,
      "start": 0.0174,
      "duration": 0.0103,
      "velocity": 99,
      "chip": "ym2612"
    },
    {
      "channel": 2,
      "note": 79,
      "start": 0.0194,
      "duration": 0.0084,
      "velocity": 99,
      "chip": "ym2612"
    },
    {
      "channel": 3,
      "note": 75,
      "start": 0.0213,
      "duration": 0.0066,
      "velocity": 99,
      "chip": "ym2612"
    },
    {
      "channel": 4,
      "note": 48,
      "start": 0.0231,
      "duration": 0.0049,
      "velocity": 105,
      "chip": "ym2612"
    },
    {
      "channel": 0,
      "note": 79,
      "start": 0.0777,
      "duration": 0.0544,
      "velocity": 99,
      "chip": "ym2612"
    },
    {
      "channel": 1,
      "note": 75,
      "start": 0.078,
      "duration": 0.0541,
      "velocity": 99,
      "chip": "ym2612"
    },
    {
      "channel": 2,
      "note": 72,
      "start": 0.0784,
      "duration": 0.0538,
      "velocity": 99,
      "chip": "ym2612"
    },
    {
      "channel": 3,
      "note": 70,
      "start": 0.0786,
      "duration": 0.0536,
      "velocity": 99,
      "chip": "ym2612"
    },
    {
      "channel": 4,
      "note": 51,
      "start": 0.0789,
      "duration": 0.0533,
      "velocity": 105,
      "chip": "ym2612"
    },
    {
      "channel": 0,
      "note": 77,
      "start": 0.1851,
      "duration": 0.0031,
      "velocity": 99,
      "chip": "ym2612"
    },
    {
      "channel": 1,
      "note": 75,
      "start": 0.1854,
      "duration": 0.0028,
      "velocity": 99,
      "chip": "ym2612"
    },
    {
      "channel": 2,
      "note": 72,
      "start": 0.1857,
      "duration": 0.0025,
      "velocity": 99,
      "chip": "ym2612"
    },
    {
      "channel": 3,
      "note": 69,
      "start": 0.186,
      "duration": 0.0024,
      "velocity": 99,
      "chip": "ym2612"
    },
    {
      "channel": 4,
      "note": 53,
      "start": 0.1863,
      "duration": 0.0021,
      "velocity": 105,
      "chip": "ym2612"
    },
    {
      "channel": 0,
      "note": 75,
      "start": 0.2412,
      "duration": 0.0035,
      "velocity": 99,
      "chip": "ym2612"
    },
    {
      "channel": 1,
      "note": 72,
      "start": 0.2415,
      "duration": 0.0033,
      "velocity": 99,
      "chip": "ym2612"
    },
    {
      "channel": 2,
      "note": 70,
      "start": 0.2418,
      "duration": 0.003,
      "velocity": 99,
      "chip": "ym2612"
    },
    {
      "channel": 3,
      "note": 67,
      "start": 0.2421,
      "duration": 0.0029,
      "velocity": 99,
      "chip": "ym2612"
    },
    {
      "channel": 4,
      "note": 54,
      "start": 0.2424,
      "duration": 0.0027,
      "velocity": 105,
      "chip": "ym2612"
    },
    {
      "channel": 0,
      "note": 77,
      "start": 0.2949,
      "duration": 0.0035,
      "velocity": 99,
      "chip": "ym2612"
    },
    {
      "channel": 1,
      "note": 75,
      "start": 0.2952,
      "duration": 0.0033,
      "velocity": 99,
      "chip": "ym2612"
    },
    {
      "channel": 2,
      "note": 72,
      "start": 0.2955,
      "duration": 0.0031,
      "velocity": 99,
      "chip": "ym2612"
    },
    {
      "channel": 3,
      "note": 69,
      "start": 0.2957,
      "duration": 0.0029,
      "velocity": 99,
      "chip": "ym2612"
    },
    {
      "channel": 4,
      "note": 55,
      "start": 0.2961,
      "duration": 0.0558,
      "velocity": 105,
      "chip": "ym2612"
    },
    {
      "channel": 4,
      "note": 53,
      "start": 0.4052,
      "duration": 0.0404,
      "velocity": 105,
      "chip": "ym2612"
    },
    {
      "channel": 4,
      "note": 51,
      "start": 0.4958,
      "duration": 0.006,
      "velocity": 105,
      "chip": "ym2612"
    },
    {
      "channel": 0,
      "note": 79,
      "start": 0.4981,
      "duration": 0.0201,
      "velocity": 99,
      "chip": "ym2612"
    },
    {
      "channel": 1,
      "note": 75,
      "start": 0.4984,
      "duration": 0.0199,
      "velocity": 99,
      "chip": "ym2612"
    },
    {
      "channel": 2,
      "note": 72,
      "start": 0.4988,
      "duration": 0.0196,
      "velocity": 99,
      "chip": "ym2612"
    },
    {
      "channel": 3,
      "note": 70,
      "start": 0.499,
      "duration": 0.0195,
      "velocity": 99,
      "chip": "ym2612"
    },
    {
      "channel": 0,
      "note": 82,
      "start": 0.5517,
      "duration": 0.0021,
      "velocity": 99,
      "chip": "ym2612"
    },
    {
      "channel": 1,
      "note": 77,
      "start": 0.552,
      "duration": 0.0018,
      "velocity": 99,
      "chip": "ym2612"
    },
    {
      "channel": 2,
      "note": 75,
      "start": 0.5524,
      "duration": 0.0016,
      "velocity": 99,
      "chip": "ym2612"
    },
    {
      "channel": 3,
      "note": 72,
      "start": 0.5526,
      "duration": 0.0014,
      "velocity": 99,
      "chip": "ym2612"
    },
    {
      "channel": 4,
      "note": 50,
      "start": 0.5529,
      "duration": 0.0033,
      "velocity": 105,
      "chip": "ym2612"
    },
    {
      "channel": 0,
      "note": 79,
      "start": 0.5546,
      "duration": 0.0019,
      "velocity": 99,
      "chip": "ym2612"
    },
    {
      "channel": 1,
      "note": 75,
      "start": 0.5548,
      "duration": 0.0017,
      "velocity": 99,
      "chip": "ym2612"
    },
    {
      "channel": 2,
      "note": 72,
      "start": 0.5551,
      "duration": 0.0015,
      "velocity": 99,
      "chip": "ym2612"
    },
    {
      "channel": 3,
      "note": 70,
      "start": 0.5554,
      "duration": 0.0012,
      "velocity": 99,
      "chip": "ym2612"
    },
    {
      "channel": 0,
      "note": 84,
      "start": 0.5571,
      "duration": 0.0056,
      "velocity": 99,
      "chip": "ym2612"
    },
    {
      "channel": 1,
      "note": 81,
      "start": 0.5573,
      "duration": 0.0054,
      "velocity": 99,
      "chip": "ym2612"
    },
    {
      "channel": 2,
      "note": 79,
      "start": 0.5577,
      "duration": 0.0052,
      "velocity": 99,
      "chip": "ym2612"
    },
    {
      "channel": 3,
      "note": 75,
      "start": 0.558,
      "duration": 0.005,
      "velocity": 99,
      "chip": "ym2612"
    },
    {
      "channel": 4,
      "note": 48,
      "start": 0.5582,
      "duration": 0.0048,
      "velocity": 105,
      "chip": "ym2612"
    },
    {
      "channel": 0,
      "note": 79,
      "start": 0.6128,
      "duration": 0.0544,
      "velocity": 99,
      "chip": "ym2612"
    },
    {
      "channel": 1,
      "note": 75,
      "start": 0.6132,
      "duration": 0.0542,
      "velocity": 99,
      "chip": "ym2612"
    },
    {
      "channel": 2,
      "note": 72,
      "start": 0.6135,
      "duration": 0.0539,
      "velocity": 99,
      "chip": "ym2612"
    },
    {
      "channel": 3,
      "note": 70,
      "start": 0.6137,
      "duration": 0.0537,
      "velocity": 99,
      "chip": "ym2612"
    },
    {
      "channel": 4,
      "note": 51,
      "start": 0.614,
      "duration": 0.0534,
      "velocity": 105,
      "chip": "ym2612"
    },
    {
      "channel": 0,
      "note": 77,
      "start": 0.7203,
      "duration": 0.003,
      "velocity": 99,
      "chip": "ym2612"
    },
    {
      "channel": 1,
      "note": 75,
      "start": 0.7206,
      "duration": 0.0028,
      "velocity": 99,
      "chip": "ym2612"
    },
    {
      "channel": 2,
      "note": 72,
      "start": 0.7209,
      "duration": 0.0025,
      "velocity": 99,
      "chip": "ym2612"
    },
    {
      "channel": 3,
      "note": 69,
      "start": 0.7212,
      "duration": 0.0023,
      "velocity": 99,
      "chip": "ym2612"
    },
    {
      "channel": 4,
      "note": 53,
      "start": 0.7215,
      "duration": 0.002,
      "velocity": 105,
      "chip": "ym2612"
    },
    {
      "channel": 0,
      "note": 75,
      "start": 0.7763,
      "duration": 0.0035,
      "velocity": 99,
      "chip": "ym2612"
    },
    {
      "channel": 1,
      "note": 72,
      "start": 0.7766,
      "duration": 0.0033,
      "velocity": 99,
      "chip": "ym2612"
    },
    {
      "channel": 2,
      "note": 70,
      "start": 0.7769,
      "duration": 0.003,
      "velocity": 99,
      "chip": "ym2612"
    },
    {
      "channel": 3,
      "note": 67,
      "start": 0.7772,
      "duration": 0.0029,
      "velocity": 99,
      "chip": "ym2612"
    },
    {
      "channel": 4,
      "note": 54,
      "start": 0.7775,
      "duration": 0.0027,
      "velocity": 105,
      "chip": "ym2612"
    },
    {
      "channel": 0,
      "note": 77,
      "start": 0.83,
      "duration": 0.0035,
      "velocity": 99,
      "chip": "ym2612"
    },
    {
      "channel": 1,
      "note": 75,
      "start": 0.8303,
      "duration": 0.0033,
      "velocity": 99,
      "chip": "ym2612"
    },
    {
      "channel": 2,
      "note": 72,
      "start": 0.8306,
      "duration": 0.0031,
      "velocity": 99,
      "chip": "ym2612"
    },
    {
      "channel": 3,
      "note": 69,
      "start": 0.8309,
      "duration": 0.0029,
      "velocity": 99,
      "chip": "ym2612"
    },
    {
      "channel": 4,
      "note": 55,
      "start": 0.8312,
      "duration": 0.0558,
      "velocity": 105,
      "chip": "ym2612"
    },
    {
      "channel": 4,
      "note": 58,
      "start": 0.9236,
      "duration": 0.057,
      "velocity": 105,
      "chip": "ym2612"
    },
    {
      "channel": 0,
      "note": 79,
      "start": 1.0306,
      "duration": 0.0022,
      "velocity": 99,
      "chip": "ym2612"
    },
    {
      "channel": 1,
      "note": 75,
      "start": 1.0309,
      "duration": 0.0019,
      "velocity": 99,
      "chip": "ym2612"
    },
    {
      "channel": 2,
      "note": 72,
      "start": 1.0312,
      "duration": 0.0017,
      "velocity": 99,
      "chip": "ym2612"
    },
    {
      "channel": 3,
      "note": 70,
      "start": 1.0315,
      "duration": 0.0015,
      "velocity": 99,
      "chip": "ym2612"
    },
    {
      "channel": 4,
      "note": 58,
      "start": 1.0318,
      "duration": 0.0054,
      "velocity": 105,
      "chip": "ym2612"
    },
    {
      "channel": 0,
      "note": 82,
      "start": 1.0335,
      "duration": 0.02,
      "velocity": 99,
      "chip": "ym2612"
    },
    {
      "channel": 1,
      "note": 79,
      "start": 1.0338,
      "duration": 0.0199,
      "velocity": 99,
      "chip": "ym2612"
    },
    {
      "channel": 2,
      "note": 75,
      "start": 1.0341,
      "duration": 0.0196,
      "velocity": 99,
      "chip": "ym2612"
    },
    {
      "channel": 3,
      "note": 72,
      "start": 1.0344,
      "duration": 0.0195,
      "velocity": 99,
      "chip": "ym2612"
    },
    {
      "channel": 0,
      "note": 89,
      "start": 1.0871,
      "duration": 0.0021,
      "velocity": 99,
      "chip": "ym2612"
    },
    {
      "channel": 1,
      "note": 87,
      "start": 1.0874,
      "duration": 0.0018,
      "velocity": 99,
      "chip": "ym2612"
    },
    {
      "channel": 2,
      "note": 84,
      "start": 1.0877,
      "duration": 0.0016,
      "velocity": 99,
      "chip": "ym2612"
    },
    {
      "channel": 3,
      "note": 81,
      "start": 1.088,
      "duration": 0.0014,
      "velocity": 99,
      "chip": "ym2612"
    },
    {
      "channel": 4,
      "note": 60,
      "start": 1.0883,
      "duration": 0.0012,
      "velocity": 105,
      "chip": "ym2612"
    },
    {
      "channel": 0,
      "note": 87,
      "start": 1.0899,
      "duration": 0.5153,
      "velocity": 99,
      "chip": "ym2612"
    },
    {
      "channel": 1,
      "note": 84,
      "start": 1.0902,
      "duration": 0.5151,
      "velocity": 99,
      "chip": "ym2612"
    },
    {
      "channel": 2,
      "note": 81,
      "start": 1.0905,
      "duration": 0.5149,
      "velocity": 99,
      "chip": "ym2612"
    },
    {
      "channel": 3,
      "note": 79,
      "start": 1.0908,
      "duration": 0.5147,
      "velocity": 99,
      "chip": "ym2612"
    },
    {
      "channel": 4,
      "note": 53,
      "start": 1.091,
      "duration": 0.0043,
      "velocity": 105,
      "chip": "ym2612"
    },
    {
      "channel": 4,
      "note": 57,
      "start": 1.1487,
      "duration": 0.0541,
      "velocity": 105,
      "chip": "ym2612"
    },
    {
      "channel": 4,
      "note": 58,
      "start": 1.256,
      "duration": 0.0031,
      "velocity": 105,
      "chip": "ym2612"
    },
    {
      "channel": 4,
      "note": 59,
      "start": 1.3122,
      "duration": 0.0034,
      "velocity": 105,
      "chip": "ym2612"
    },
    {
      "channel": 4,
      "note": 60,
      "start": 1.3659,
      "duration": 0.0564,
      "velocity": 105,
      "chip": "ym2612"
    },
    {
      "channel": 4,
      "note": 58,
      "start": 1.4755,
      "duration": 0.057,
      "velocity": 105,
      "chip": "ym2612"
    },
    {
      "channel": 4,
      "note": 57,
      "start": 1.5827,
      "duration": 0.006,
      "velocity": 105,
      "chip": "ym2612"
    },
    {
      "channel": 4,
      "note": 55,
      "start": 1.639,
      "duration": 0.0031,
      "velocity": 105,
      "chip": "ym2612"
    },
    {
      "channel": 4,
      "note": 53,
      "start": 1.6473,
      "duration": 0.0017,
      "velocity": 105,
      "chip": "ym2612"
    },
    {
      "channel": 0,
      "note": 82,
      "start": 1.702,
      "duration": 0.0544,
      "velocity": 97,
      "chip": "ym2612"
    },
    {
      "channel": 1,
      "note": 77,
      "start": 1.7023,
      "duration": 0.0541,
      "velocity": 97,
      "chip": "ym2612"
    },
    {
      "channel": 2,
      "note": 72,
      "start": 1.7026,
      "duration": 0.0539,
      "velocity": 97,
      "chip": "ym2612"
    },
    {
      "channel": 4,
      "note": 57,
      "start": 1.7029,
      "duration": 0.0536,
      "velocity": 105,
      "chip": "ym2612"
    },
    {
      "channel": 4,
      "note": 58,
      "start": 1.8098,
      "duration": 0.003,
      "velocity": 105,
      "chip": "ym2612"
    },
    {
      "channel": 0,
      "note": 81,
      "start": 1.8658,
      "duration": 0.0546,
      "velocity": 97,
      "chip": "ym2612"
    },
    {
      "channel": 1,
      "note": 77,
      "start": 1.8661,
      "duration": 0.0544,
      "velocity": 97,
      "chip": "ym2612"
    },
    {
      "channel": 2,
      "note": 72,
      "start": 1.8664,
      "duration": 0.0541,
      "velocity": 97,
      "chip": "ym2612"
    },
    {
      "channel": 4,
      "note": 59,
      "start": 1.8668,
      "duration": 0.0028,
      "velocity": 105,
      "chip": "ym2612"
    },
    {
      "channel": 4,
      "note": 60,
      "start": 1.9197,
      "duration": 0.0566,
      "velocity": 105,
      "chip": "ym2612"
    },
    {
      "channel": 0,
      "note": 82,
      "start": 2.0293,
      "duration": 0.0571,
      "velocity": 97,
      "chip": "ym2612"
    },
    {
      "channel": 1,
      "note": 77,
      "start": 2.0297,
      "duration": 0.0568,
      "velocity": 97,
      "chip": "ym2612"
    },
    {
      "channel": 2,
      "note": 72,
      "start": 2.03,
      "duration": 0.0566,
      "velocity": 97,
      "chip": "ym2612"
    },
    {
      "channel": 4,
      "note": 63,
      "start": 2.0303,
      "duration": 0.0564,
      "velocity": 105,
      "chip": "ym2612"
    },
    {
      "channel": 4,
      "note": 63,
      "start": 2.137,
      "duration": 0.0059,
      "velocity": 105,
      "chip": "ym2612"
    },
    {
      "channel": 0,
      "note": 81,
      "start": 2.1392,
      "duration": 0.0201,
      "velocity": 97,
      "chip": "ym2612"
    },
    {
      "channel": 1,
      "note": 77,
      "start": 2.1395,
      "duration": 0.0199,
      "velocity": 97,
      "chip": "ym2612"
    },
    {
      "channel": 2,
      "note": 72,
      "start": 2.1398,
      "duration": 0.0196,
      "velocity": 97,
      "chip": "ym2612"
    },
    {
      "channel": 4,
      "note": 65,
      "start": 2.1932,
      "duration": 0.001,
      "velocity": 105,
      "chip": "ym2612"
    },
    {
      "channel": 0,
      "note": 79,
      "start": 2.1955,
      "duration": 0.0018,
      "velocity": 97,
      "chip": "ym2612"
    },
    {
      "channel": 1,
      "note": 75,
      "start": 2.1958,
      "duration": 0.0016,
      "velocity": 97,
      "chip": "ym2612"
    },
    {
      "channel": 2,
      "note": 72,
      "start": 2.1961,
      "duration": 0.0013,
      "velocity": 97,
      "chip": "ym2612"
    },
    {
      "channel": 4,
      "note": 48,
      "start": 2.1964,
      "duration": 0.0098,
      "velocity": 105,
      "chip": "ym2612"
    },
    {
      "channel": 0,
      "note": 84,
      "start": 2.1993,
      "duration": 0.0071,
      "velocity": 99,
      "chip": "ym2612"
    },
    {
      "channel": 1,
      "note": 81,
      "start": 2.201,
      "duration": 0.0055,
      "velocity": 99,
      "chip": "ym2612"
    },
    {
      "channel": 2,
      "note": 79,
      "start": 2.2028,
      "duration": 0.0038,
      "velocity": 99,
      "chip": "ym2612"
    },
    {
      "channel": 3,
      "note": 75,
      "start": 2.2047,
      "duration": 0.0019,
      "velocity": 99,
      "chip": "ym2612"
    },
    {
      "channel": 0,
      "note": 79,
      "start": 2.2594,
      "duration": 0.0545,
      "velocity": 99,
      "chip": "ym2612"
    },
    {
      "channel": 1,
      "note": 75,
      "start": 2.2597,
      "duration": 0.0542,
      "velocity": 99,
      "chip": "ym2612"
    },
    {
      "channel": 2,
      "note": 72,
      "start": 2.26,
      "duration": 0.0539,
      "velocity": 99,
      "chip": "ym2612"
    },
    {
      "channel": 3,
      "note": 70,
      "start": 2.2602,
      "duration": 0.0537,
      "velocity": 99,
      "chip": "ym2612"
    },
    {
      "channel": 4,
      "note": 51,
      "start": 2.2606,
      "duration": 0.0534,
      "velocity": 105,
      "chip": "ym2612"
    },
    {
      "channel": 0,
      "note": 77,
      "start": 2.3668,
      "duration": 0.003,
      "velocity": 99,
      "chip": "ym2612"
    },
    {
      "channel": 1,
      "note": 75,
      "start": 2.3671,
      "duration": 0.0028,
      "velocity": 99,
      "chip": "ym2612"
    },
    {
      "channel": 2,
      "note": 72,
      "start": 2.3675,
      "duration": 0.0025,
      "velocity": 99,
      "chip": "ym2612"
    },
    {
      "channel": 3,
      "note": 69,
      "start": 2.3677,
      "duration": 0.0023,
      "velocity": 99,
      "chip": "ym2612"
    },
    {
      "channel": 4,
      "note": 53,
      "start": 2.368,
      "duration": 0.002,
      "velocity": 105,
      "chip": "ym2612"
    },
    {
      "channel": 0,
      "note": 75,
      "start": 2.4229,
      "duration": 0.0035,
      "velocity": 99,
      "chip": "ym2612"
    },
    {
      "channel": 1,
      "note": 72,
      "start": 2.4232,
      "duration": 0.0033,
      "velocity": 99,
      "chip": "ym2612"
    },
    {
      "channel": 2,
      "note": 70,
      "start": 2.4235,
      "duration": 0.003,
      "velocity": 99,
      "chip": "ym2612"
    },
    {
      "channel": 3,
      "note": 67,
      "start": 2.4237,
      "duration": 0.0029,
      "velocity": 99,
      "chip": "ym2612"
    },
    {
      "channel": 4,
      "note": 54,
      "start": 2.4241,
      "duration": 0.0027,
      "velocity": 105,
      "chip": "ym2612"
    },
    {
      "channel": 0,
      "note": 77,
      "start": 2.4765,
      "duration": 0.0035,
      "velocity": 99,
      "chip": "ym2612"
    },
    {
      "channel": 1,
      "note": 75,
      "start": 2.4768,
      "duration": 0.0033,
      "velocity": 99,
      "chip": "ym2612"
    },
    {
      "channel": 2,
      "note": 72,
      "start": 2.4772,
      "duration": 0.0031,
      "velocity": 99,
      "chip": "ym2612"
    },
    {
      "channel": 3,
      "note": 69,
      "start": 2.4774,
      "duration": 0.0029,
      "velocity": 99,
      "chip": "ym2612"
    },
    {
      "channel": 4,
      "note": 55,
      "start": 2.4777,
      "duration": 0.0391,
      "velocity": 105,
      "chip": "ym2612"
    },
    {
      "channel": 4,
      "note": 53,
      "start": 2.5701,
      "duration": 0.0571,
      "velocity": 105,
      "chip": "ym2612"
    },
    {
      "channel": 4,
      "note": 51,
      "start": 2.6773,
      "duration": 0.0061,
      "velocity": 105,
      "chip": "ym2612"
    },
    {
      "channel": 0,
      "note": 79,
      "start": 2.6797,
      "duration": 0.0201,
      "velocity": 99,
      "chip": "ym2612"
    },
    {
      "channel": 1,
      "note": 75,
      "start": 2.68,
      "duration": 0.0199,
      "velocity": 99,
      "chip": "ym2612"
    },
    {
      "channel": 2,
      "note": 72,
      "start": 2.6803,
      "duration": 0.0196,
      "velocity": 99,
      "chip": "ym2612"
    },
    {
      "channel": 3,
      "note": 70,
      "start": 2.6806,
      "duration": 0.0195,
      "velocity": 99,
      "chip": "ym2612"
    },
    {
      "channel": 0,
      "note": 82,
      "start": 2.7333,
      "duration": 0.0021,
      "velocity": 99,
      "chip": "ym2612"
    },
    {
      "channel": 1,
      "note": 77,
      "start": 2.7336,
      "duration": 0.0018,
      "velocity": 99,
      "chip": "ym2612"
    },
    {
      "channel": 2,
      "note": 75,
      "start": 2.7339,
      "duration": 0.0016,
      "velocity": 99,
      "chip": "ym2612"
    },
    {
      "channel": 3,
      "note": 72,
      "start": 2.7342,
      "duration": 0.0014,
      "velocity": 99,
      "chip": "ym2612"
    },
    {
      "channel": 4,
      "note": 50,
      "start": 2.7345,
      "duration": 0.0033,
      "velocity": 105,
      "chip": "ym2612"
    },
    {
      "channel": 0,
      "note": 79,
      "start": 2.7361,
      "duration": 0.0018,
      "velocity": 99,
      "chip": "ym2612"
    },
    {
      "channel": 1,
      "note": 75,
      "start": 2.7364,
      "duration": 0.0016,
      "velocity": 99,
      "chip": "ym2612"
    },
    {
      "channel": 2,
      "note": 72,
      "start": 2.7367,
      "duration": 0.0014,
      "velocity": 99,
      "chip": "ym2612"
    },
    {
      "channel": 3,
      "note": 70,
      "start": 2.737,
      "duration": 0.0012,
      "velocity": 99,
      "chip": "ym2612"
    },
    {
      "channel": 0,
      "note": 84,
      "start": 2.7387,
      "duration": 0.0028,
      "velocity": 99,
      "chip": "ym2612"
    },
    {
      "channel": 1,
      "note": 81,
      "start": 2.739,
      "duration": 0.0026,
      "velocity": 99,
      "chip": "ym2612"
    },
    {
      "channel": 2,
      "note": 79,
      "start": 2.7393,
      "duration": 0.0023,
      "velocity": 99,
      "chip": "ym2612"
    },
    {
      "channel": 3,
      "note": 75,
      "start": 2.7396,
      "duration": 0.0021,
      "velocity": 99,
      "chip": "ym2612"
    },
    {
      "channel": 4,
      "note": 48,
      "start": 2.7399,
      "duration": 0.0018,
      "velocity": 105,
      "chip": "ym2612"
    },
    {
      "channel": 0,
      "note": 79,
      "start": 2.7945,
      "duration": 0.0544,
      "velocity": 99,
      "chip": "ym2612"
    },
    {
      "channel": 1,
      "note": 75,
      "start": 2.7948,
      "duration": 0.0542,
      "velocity": 99,
      "chip": "ym2612"
    },
    {
      "channel": 2,
      "note": 72,
      "start": 2.7951,
      "duration": 0.0539,
      "velocity": 99,
      "chip": "ym2612"
    },
    {
      "channel": 3,
      "note": 70,
      "start": 2.7954,
      "duration": 0.0537,
      "velocity": 99,
      "chip": "ym2612"
    },
    {
      "channel": 4,
      "note": 51,
      "start": 2.7957,
      "duration": 0.0534,
      "velocity": 105,
      "chip": "ym2612"
    },
    {
      "channel": 0,
      "note": 77,
      "start": 2.902,
      "duration": 0.003,
      "velocity": 99,
      "chip": "ym2612"
    },
    {
      "channel": 1,
      "note": 75,
      "start": 2.9023,
      "duration": 0.0028,
      "velocity": 99,
      "chip": "ym2612"
    },
    {
      "channel": 2,
      "note": 72,
      "start": 2.9026,
      "duration": 0.0025,
      "velocity": 99,
      "chip": "ym2612"
    },
    {
      "channel": 3,
      "note": 69,
      "start": 2.9028,
      "duration": 0.0023,
      "velocity": 99,
      "chip": "ym2612"
    },
    {
      "channel": 4,
      "note": 53,
      "start": 2.9032,
      "duration": 0.002,
      "velocity": 105,
      "chip": "ym2612"
    },
    {
      "channel": 0,
      "note": 75,
      "start": 2.958,
      "duration": 0.0035,
      "velocity": 99,
      "chip": "ym2612"
    },
    {
      "channel": 1,
      "note": 72,
      "start": 2.9583,
      "duration": 0.0033,
      "velocity": 99,
      "chip": "ym2612"
    },
    {
      "channel": 2,
      "note": 70,
      "start": 2.9586,
      "duration": 0.003,
      "velocity": 99,
      "chip": "ym2612"
    },
    {
      "channel": 3,
      "note": 67,
      "start": 2.9589,
      "duration": 0.0029,
      "velocity": 99,
      "chip": "ym2612"
    },
    {
      "channel": 4,
      "note": 54,
      "start": 2.9592,
      "duration": 0.0027,
      "velocity": 105,
      "chip": "ym2612"
    },
    {
      "channel": 0,
      "note": 77,
      "start": 2.995,
      "duration": 0.0201,
      "velocity": 99,
      "chip": "ym2612"
    },
    {
      "channel": 1,
      "note": 75,
      "start": 2.9953,
      "duration": 0.0199,
      "velocity": 99,
      "chip": "ym2612"
    },
    {
      "channel": 2,
      "note": 72,
      "start": 2.9956,
      "duration": 0.0197,
      "velocity": 99,
      "chip": "ym2612"
    },
    {
      "channel": 3,
      "note": 69,
      "start": 2.9959,
      "duration": 0.0196,
      "velocity": 99,
      "chip": "ym2612"
    },
    {
      "channel": 4,
      "note": 55,
      "start": 2.9962,
      "duration": 0.0557,
      "velocity": 105,
      "chip": "ym2612"
    },
    {
      "channel": 4,
      "note": 58,
      "start": 3.1051,
      "duration": 0.0571,
      "velocity": 105,
      "chip": "ym2612"
    },
    {
      "channel": 0,
      "note": 79,
      "start": 3.2121,
      "duration": 0.0021,
      "velocity": 99,
      "chip": "ym2612"
    },
    {
      "channel": 1,
      "note": 75,
      "start": 3.2124,
      "duration": 0.0018,
      "velocity": 99,
      "chip": "ym2612"
    },
    {
      "channel": 2,
      "note": 72,
      "start": 3.2128,
      "duration": 0.0016,
      "velocity": 99,
      "chip": "ym2612"
    },
    {
      "channel": 3,
      "note": 70,
      "start": 3.213,
      "duration": 0.0014,
      "velocity": 99,
      "chip": "ym2612"
    },
    {
      "channel": 4,
      "note": 58,
      "start": 3.2133,
      "duration": 0.0052,
      "velocity": 105,
      "chip": "ym2612"
    },
    {
      "channel": 0,
      "note": 82,
      "start": 3.215,
      "duration": 0.02,
      "velocity": 99,
      "chip": "ym2612"
    },
    {
      "channel": 1,
      "note": 79,
      "start": 3.2152,
      "duration": 0.0199,
      "velocity": 99,
      "chip": "ym2612"
    },
    {
      "channel": 2,
      "note": 75,
      "start": 3.2155,
      "duration": 0.0196,
      "velocity": 99,
      "chip": "ym2612"
    },
    {
      "channel": 3,
      "note": 72,
      "start": 3.2158,
      "duration": 0.0195,
      "velocity": 99,
      "chip": "ym2612"
    },
    {
      "channel": 0,
      "note": 89,
      "start": 3.2685,
      "duration": 0.0022,
      "velocity": 99,
      "chip": "ym2612"
    },
    {
      "channel": 1,
      "note": 87,
      "start": 3.2688,
      "duration": 0.0019,
      "velocity": 99,
      "chip": "ym2612"
    },
    {
      "channel": 2,
      "note": 84,
      "start": 3.2691,
      "duration": 0.0017,
      "velocity": 99,
      "chip": "ym2612"
    },
    {
      "channel": 3,
      "note": 81,
      "start": 3.2694,
      "duration": 0.0015,
      "velocity": 99,
      "chip": "ym2612"
    },
    {
      "channel": 4,
      "note": 60,
      "start": 3.2697,
      "duration": 0.0013,
      "velocity": 105,
      "chip": "ym2612"
    },
    {
      "channel": 0,
      "note": 87,
      "start": 3.2715,
      "duration": 0.4987,
      "velocity": 99,
      "chip": "ym2612"
    },
    {
      "channel": 1,
      "note": 84,
      "start": 3.2718,
      "duration": 0.4986,
      "velocity": 99,
      "chip": "ym2612"
    },
    {
      "channel": 2,
      "note": 81,
      "start": 3.2721,
      "duration": 0.4983,
      "velocity": 99,
      "chip": "ym2612"
    },
    {
      "channel": 3,
      "note": 79,
      "start": 3.2724,
      "duration": 0.4982,
      "velocity": 99,
      "chip": "ym2612"
    },
    {
      "channel": 4,
      "note": 53,
      "start": 3.2727,
      "duration": 0.0043,
      "velocity": 105,
      "chip": "ym2612"
    },
    {
      "channel": 4,
      "note": 57,
      "start": 3.3304,
      "duration": 0.0541,
      "velocity": 105,
      "chip": "ym2612"
    },
    {
      "channel": 4,
      "note": 58,
      "start": 3.4377,
      "duration": 0.0031,
      "velocity": 105,
      "chip": "ym2612"
    },
    {
      "channel": 4,
      "note": 59,
      "start": 3.4773,
      "duration": 0.0201,
      "velocity": 105,
      "chip": "ym2612"
    },
    {
      "channel": 4,
      "note": 60,
      "start": 3.5309,
      "duration": 0.0564,
      "velocity": 105,
      "chip": "ym2612"
    },
    {
      "channel": 4,
      "note": 58,
      "start": 3.6405,
      "duration": 0.057,
      "velocity": 105,
      "chip": "ym2612"
    },
    {
      "channel": 4,
      "note": 57,
      "start": 3.7478,
      "duration": 0.0031,
      "velocity": 105,
      "chip": "ym2612"
    },
    {
      "channel": 4,
      "note": 55,
      "start": 3.804,
      "duration": 0.003,
      "velocity": 105,
      "chip": "ym2612"
    },
    {
      "channel": 4,
      "note": 53,
      "start": 3.8124,
      "duration": 0.0493,
      "velocity": 105,
      "chip": "ym2612"
    },
    {
      "channel": 0,
      "note": 82,
      "start": 3.9146,
      "duration": 0.0544,
      "velocity": 97,
      "chip": "ym2612"
    },
    {
      "channel": 1,
      "note": 77,
      "start": 3.915,
      "duration": 0.0541,
      "velocity": 97,
      "chip": "ym2612"
    },
    {
      "channel": 2,
      "note": 72,
      "start": 3.9153,
      "duration": 0.0539,
      "velocity": 97,
      "chip": "ym2612"
    },
    {
      "channel": 4,
      "note": 57,
      "start": 3.9156,
      "duration": 0.0536,
      "velocity": 105,
      "chip": "ym2612"
    },
    {
      "channel": 4,
      "note": 58,
      "start": 4.0225,
      "duration": 0.0058,
      "velocity": 105,
      "chip": "ym2612"
    },
    {
      "channel": 0,
      "note": 81,
      "start": 4.0782,
      "duration": 0.0571,
      "velocity": 97,
      "chip": "ym2612"
    },
    {
      "channel": 1,
      "note": 77,
      "start": 4.0785,
      "duration": 0.0569,
      "velocity": 97,
      "chip": "ym2612"
    },
    {
      "channel": 2,
      "note": 72,
      "start": 4.0789,
      "duration": 0.0566,
      "velocity": 97,
      "chip": "ym2612"
    },
    {
      "channel": 4,
      "note": 59,
      "start": 4.0792,
      "duration": 0.0194,
      "velocity": 105,
      "chip": "ym2612"
    },
    {
      "channel": 4,
      "note": 60,
      "start": 4.1321,
      "duration": 0.0565,
      "velocity": 105,
      "chip": "ym2612"
    },
    {
      "channel": 0,
      "note": 82,
      "start": 4.2416,
      "duration": 0.057,
      "velocity": 97,
      "chip": "ym2612"
    },
    {
      "channel": 1,
      "note": 77,
      "start": 4.2419,
      "duration": 0.0568,
      "velocity": 97,
      "chip": "ym2612"
    },
    {
      "channel": 2,
      "note": 72,
      "start": 4.2422,
      "duration": 0.0566,
      "velocity": 97,
      "chip": "ym2612"
    },
    {
      "channel": 4,
      "note": 63,
      "start": 4.2425,
      "duration": 0.0564,
      "velocity": 105,
      "chip": "ym2612"
    },
    {
      "channel": 4,
      "note": 63,
      "start": 4.3492,
      "duration": 0.0029,
      "velocity": 105,
      "chip": "ym2612"
    },
    {
      "channel": 0,
      "note": 81,
      "start": 4.3508,
      "duration": 0.0197,
      "velocity": 97,
      "chip": "ym2612"
    },
    {
      "channel": 1,
      "note": 77,
      "start": 4.3511,
      "duration": 0.0196,
      "velocity": 97,
      "chip": "ym2612"
    },
    {
      "channel": 2,
      "note": 72,
      "start": 4.3512,
      "duration": 0.0195,
      "velocity": 97,
      "chip": "ym2612"
    },
    {
      "channel": 4,
      "note": 65,
      "start": 4.4044,
      "duration": 0.0053,
      "velocity": 105,
      "chip": "ym2612"
    },
    {
      "channel": 0,
      "note": 79,
      "start": 4.4084,
      "duration": 0.0015,
      "velocity": 97,
      "chip": "ym2612"
    },
    {
      "channel": 1,
      "note": 75,
      "start": 4.4086,
      "duration": 0.0013,
      "velocity": 97,
      "chip": "ym2612"
    },
    {
      "channel": 2,
      "note": 72,
      "start": 4.4088,
      "duration": 0.0011,
      "velocity": 97,
      "chip": "ym2612"
    },
    {
      "channel": 0,
      "note": 82,
      "start": 4.4118,
      "duration": 0.006,
      "velocity": 99,
      "chip": "ym2612"
    },
    {
      "channel": 1,
      "note": 77,
      "start": 4.4136,
      "duration": 0.0043,
      "velocity": 99,
      "chip": "ym2612"
    },
    {
      "channel": 2,
      "note": 75,
      "start": 4.4153,
      "duration": 0.0026,
      "velocity": 99,
      "chip": "ym2612"
    },
    {
      "channel": 3,
      "note": 72,
      "start": 4.4169,
      "duration": 0.0011,
      "velocity": 99,
      "chip": "ym2612"
    },
    {
      "channel": 4,
      "note": 48,
      "start": 4.4172,
      "duration": 0.0474,
      "velocity": 105,
      "chip": "ym2612"
    },
    {
      "channel": 0,
      "note": 82,
      "start": 4.4629,
      "duration": 0.0034,
      "velocity": 99,
      "chip": "ym2612"
    },
    {
      "channel": 1,
      "note": 77,
      "start": 4.4632,
      "duration": 0.0032,
      "velocity": 99,
      "chip": "ym2612"
    },
    {
      "channel": 2,
      "note": 75,
      "start": 4.4635,
      "duration": 0.003,
      "velocity": 99,
      "chip": "ym2612"
    },
    {
      "channel": 3,
      "note": 72,
      "start": 4.4638,
      "duration": 0.0029,
      "velocity": 99,
      "chip": "ym2612"
    },
    {
      "channel": 0,
      "note": 81,
      "start": 4.5165,
      "duration": 0.0545,
      "velocity": 99,
      "chip": "ym2612"
    },
    {
      "channel": 1,
      "note": 77,
      "start": 4.5168,
      "duration": 0.0543,
      "velocity": 99,
      "chip": "ym2612"
    },
    {
      "channel": 2,
      "note": 75,
      "start": 4.5172,
      "duration": 0.0541,
      "velocity": 99,
      "chip": "ym2612"
    },
    {
      "channel": 3,
      "note": 72,
      "start": 4.5174,
      "duration": 0.0028,
      "velocity": 99,
      "chip": "ym2612"
    },
    {
      "channel": 4,
      "note": 51,
      "start": 4.5177,
      "duration": 0.0536,
      "velocity": 105,
      "chip": "ym2612"
    },
    {
      "channel": 0,
      "note": 82,
      "start": 4.6075,
      "duration": 0.0058,
      "velocity": 99,
      "chip": "ym2612"
    },
    {
      "channel": 1,
      "note": 77,
      "start": 4.6078,
      "duration": 0.0056,
      "velocity": 99,
      "chip": "ym2612"
    },
    {
      "channel": 2,
      "note": 75,
      "start": 4.6082,
      "duration": 0.0053,
      "velocity": 99,
      "chip": "ym2612"
    },
    {
      "channel": 3,
      "note": 72,
      "start": 4.6084,
      "duration": 0.0013,
      "velocity": 99,
      "chip": "ym2612"
    },
    {
      "channel": 4,
      "note": 55,
      "start": 4.6087,
      "duration": 0.0049,
      "velocity": 105,
      "chip": "ym2612"
    },
    {
      "channel": 4,
      "note": 58,
      "start": 4.6639,
      "duration": 0.0199,
      "velocity": 105,
      "chip": "ym2612"
    },
    {
      "channel": 4,
      "note": 60,
      "start": 4.7173,
      "duration": 0.0541,
      "velocity": 105,
      "chip": "ym2612"
    },
    {
      "channel": 4,
      "note": 58,
      "start": 4.7735,
      "duration": 0.0201,
      "velocity": 105,
      "chip": "ym2612"
    },
    {
      "channel": 4,
      "note": 60,
      "start": 4.8271,
      "duration": 0.0541,
      "velocity": 105,
      "chip": "ym2612"
    },
    {
      "channel": 4,
      "note": 55,
      "start": 4.9345,
      "duration": 0.0043,
      "velocity": 105,
      "chip": "ym2612"
    },
    {
      "channel": 0,
      "note": 84,
      "start": 4.937,
      "duration": 0.0546,
      "velocity": 99,
      "chip": "ym2612"
    },
    {
      "channel": 1,
      "note": 77,
      "start": 4.9373,
      "duration": 0.0544,
      "velocity": 99,
      "chip": "ym2612"
    },
    {
      "channel": 2,
      "note": 75,
      "start": 4.9376,
      "duration": 0.0541,
      "velocity": 99,
      "chip": "ym2612"
    },
    {
      "channel": 3,
      "note": 72,
      "start": 4.9379,
      "duration": 0.0539,
      "velocity": 99,
      "chip": "ym2612"
    },
    {
      "channel": 4,
      "note": 51,
      "start": 4.9909,
      "duration": 0.0012,
      "velocity": 105,
      "chip": "ym2612"
    },
    {
      "channel": 0,
      "note": 82,
      "start": 4.9935,
      "duration": 0.0031,
      "velocity": 99,
      "chip": "ym2612"
    },
    {
      "channel": 1,
      "note": 77,
      "start": 4.9938,
      "duration": 0.0029,
      "velocity": 99,
      "chip": "ym2612"
    },
    {
      "channel": 2,
      "note": 75,
      "start": 4.9941,
      "duration": 0.0026,
      "velocity": 99,
      "chip": "ym2612"
    },
    {
      "channel": 3,
      "note": 72,
      "start": 4.9944,
      "duration": 0.0023,
      "velocity": 99,
      "chip": "ym2612"
    },
    {
      "channel": 4,
      "note": 48,
      "start": 4.9946,
      "duration": 0.0564,
      "velocity": 105,
      "chip": "ym2612"
    },
    {
      "channel": 0,
      "note": 82,
      "start": 5.0495,
      "duration": 0.0035,
      "velocity": 99,
      "chip": "ym2612"
    },
    {
      "channel": 1,
      "note": 77,
      "start": 5.0498,
      "duration": 0.0033,
      "velocity": 99,
      "chip": "ym2612"
    },
    {
      "channel": 2,
      "note": 75,
      "start": 5.0501,
      "duration": 0.0031,
      "velocity": 99,
      "chip": "ym2612"
    },
    {
      "channel": 3,
      "note": 72,
      "start": 5.0504,
      "duration": 0.003,
      "velocity": 99,
      "chip": "ym2612"
    },
    {
      "channel": 0,
      "note": 81,
      "start": 5.1032,
      "duration": 0.0404,
      "velocity": 99,
      "chip": "ym2612"
    },
    {
      "channel": 1,
      "note": 77,
      "start": 5.1035,
      "duration": 0.0402,
      "velocity": 99,
      "chip": "ym2612"
    },
    {
      "channel": 2,
      "note": 75,
      "start": 5.1038,
      "duration": 0.04,
      "velocity": 99,
      "chip": "ym2612"
    },
    {
      "channel": 3,
      "note": 72,
      "start": 5.1041,
      "duration": 0.0028,
      "velocity": 99,
      "chip": "ym2612"
    },
    {
      "channel": 4,
      "note": 51,
      "start": 5.1044,
      "duration": 0.0395,
      "velocity": 105,
      "chip": "ym2612"
    },
    {
      "channel": 0,
      "note": 79,
      "start": 5.1938,
      "duration": 0.0058,
      "velocity": 99,
      "chip": "ym2612"
    },
    {
      "channel": 1,
      "note": 75,
      "start": 5.1941,
      "duration": 0.0056,
      "velocity": 99,
      "chip": "ym2612"
    },
    {
      "channel": 2,
      "note": 72,
      "start": 5.1944,
      "duration": 0.0053,
      "velocity": 99,
      "chip": "ym2612"
    },
    {
      "channel": 3,
      "note": 70,
      "start": 5.1947,
      "duration": 0.0013,
      "velocity": 99,
      "chip": "ym2612"
    },
    {
      "channel": 4,
      "note": 55,
      "start": 5.195,
      "duration": 0.0049,
      "velocity": 105,
      "chip": "ym2612"
    },
    {
      "channel": 4,
      "note": 58,
      "start": 5.2502,
      "duration": 0.02,
      "velocity": 105,
      "chip": "ym2612"
    },
    {
      "channel": 4,
      "note": 60,
      "start": 5.3037,
      "duration": 0.0541,
      "velocity": 105,
      "chip": "ym2612"
    },
    {
      "channel": 4,
      "note": 58,
      "start": 5.3599,
      "duration": 0.0201,
      "velocity": 105,
      "chip": "ym2612"
    },
    {
      "channel": 4,
      "note": 60,
      "start": 5.4135,
      "duration": 0.0542,
      "velocity": 105,
      "chip": "ym2612"
    },
    {
      "channel": 4,
      "note": 55,
      "start": 5.5208,
      "duration": 0.003,
      "velocity": 105,
      "chip": "ym2612"
    },
    {
      "channel": 4,
      "note": 51,
      "start": 5.5771,
      "duration": 0.0009,
      "velocity": 105,
      "chip": "ym2612"
    },
    {
      "channel": 4,
      "note": 48,
      "start": 5.5796,
      "duration": 0.0085,
      "velocity": 105,
      "chip": "ym2612"
    },
    {
      "channel": 0,
      "note": 82,
      "start": 5.5828,
      "duration": 0.0062,
      "velocity": 99,
      "chip": "ym2612"
    },
    {
      "channel": 1,
      "note": 77,
      "start": 5.5844,
      "duration": 0.0047,
      "velocity": 99,
      "chip": "ym2612"
    },
    {
      "channel": 2,
      "note": 75,
      "start": 5.5862,
      "duration": 0.003,
      "velocity": 99,
      "chip": "ym2612"
    },
    {
      "channel": 3,
      "note": 72,
      "start": 5.5879,
      "duration": 0.0014,
      "velocity": 99,
      "chip": "ym2612"
    },
    {
      "channel": 4,
      "note": 53,
      "start": 5.5881,
      "duration": 0.048,
      "velocity": 105,
      "chip": "ym2612"
    },
    {
      "channel": 0,
      "note": 82,
      "start": 5.6343,
      "duration": 0.0034,
      "velocity": 99,
      "chip": "ym2612"
    },
    {
      "channel": 1,
      "note": 77,
      "start": 5.6346,
      "duration": 0.0032,
      "velocity": 99,
      "chip": "ym2612"
    },
    {
      "channel": 2,
      "note": 75,
      "start": 5.6349,
      "duration": 0.003,
      "velocity": 99,
      "chip": "ym2612"
    },
    {
      "channel": 3,
      "note": 72,
      "start": 5.6352,
      "duration": 0.0029,
      "velocity": 99,
      "chip": "ym2612"
    },
    {
      "channel": 0,
      "note": 81,
      "start": 5.6879,
      "duration": 0.0405,
      "velocity": 99,
      "chip": "ym2612"
    },
    {
      "channel": 1,
      "note": 77,
      "start": 5.6883,
      "duration": 0.0402,
      "velocity": 99,
      "chip": "ym2612"
    },
    {
      "channel": 2,
      "note": 75,
      "start": 5.6886,
      "duration": 0.04,
      "velocity": 99,
      "chip": "ym2612"
    },
    {
      "channel": 3,
      "note": 72,
      "start": 5.6888,
      "duration": 0.0028,
      "velocity": 99,
      "chip": "ym2612"
    },
    {
      "channel": 4,
      "note": 57,
      "start": 5.6891,
      "duration": 0.0396,
      "velocity": 105,
      "chip": "ym2612"
    },
    {
      "channel": 0,
      "note": 82,
      "start": 5.7786,
      "duration": 0.0059,
      "velocity": 99,
      "chip": "ym2612"
    },
    {
      "channel": 1,
      "note": 77,
      "start": 5.7789,
      "duration": 0.0056,
      "velocity": 99,
      "chip": "ym2612"
    },
    {
      "channel": 2,
      "note": 75,
      "start": 5.7792,
      "duration": 0.0054,
      "velocity": 99,
      "chip": "ym2612"
    },
    {
      "channel": 3,
      "note": 72,
      "start": 5.7795,
      "duration": 0.0013,
      "velocity": 99,
      "chip": "ym2612"
    },
    {
      "channel": 4,
      "note": 60,
      "start": 5.7798,
      "duration": 0.005,
      "velocity": 105,
      "chip": "ym2612"
    },
    {
      "channel": 4,
      "note": 63,
      "start": 5.835,
      "duration": 0.02,
      "velocity": 105,
      "chip": "ym2612"
    },
    {
      "channel": 4,
      "note": 65,
      "start": 5.8885,
      "duration": 0.0541,
      "velocity": 105,
      "chip": "ym2612"
    },
    {
      "channel": 4,
      "note": 63,
      "start": 5.9447,
      "duration": 0.0535,
      "velocity": 105,
      "chip": "ym2612"
    },
    {
      "channel": 4,
      "note": 65,
      "start": 5.9982,
      "duration": 0.0542,
      "velocity": 105,
      "chip": "ym2612"
    },
    {
      "channel": 4,
      "note": 63,
      "start": 6.1056,
      "duration": 0.0042,
      "velocity": 105,
      "chip": "ym2612"
    },
    {
      "channel": 0,
      "note": 84,
      "start": 6.1081,
      "duration": 0.0546,
      "velocity": 99,
      "chip": "ym2612"
    },
    {
      "channel": 1,
      "note": 77,
      "start": 6.1084,
      "duration": 0.0544,
      "velocity": 99,
      "chip": "ym2612"
    },
    {
      "channel": 2,
      "note": 75,
      "start": 6.1088,
      "duration": 0.0542,
      "velocity": 99,
      "chip": "ym2612"
    },
    {
      "channel": 3,
      "note": 72,
      "start": 6.109,
      "duration": 0.054,
      "velocity": 99,
      "chip": "ym2612"
    },
    {
      "channel": 4,
      "note": 60,
      "start": 6.162,
      "duration": 0.0038,
      "velocity": 105,
      "chip": "ym2612"
    },
    {
      "channel": 0,
      "note": 82,
      "start": 6.1646,
      "duration": 0.0031,
      "velocity": 99,
      "chip": "ym2612"
    },
    {
      "channel": 1,
      "note": 77,
      "start": 6.1649,
      "duration": 0.0029,
      "velocity": 99,
      "chip": "ym2612"
    },
    {
      "channel": 2,
      "note": 75,
      "start": 6.1652,
      "duration": 0.0026,
      "velocity": 99,
      "chip": "ym2612"
    },
    {
      "channel": 3,
      "note": 72,
      "start": 6.1655,
      "duration": 0.0025,
      "velocity": 99,
      "chip": "ym2612"
    },
    {
      "channel": 4,
      "note": 53,
      "start": 6.1658,
      "duration": 0.0566,
      "velocity": 105,
      "chip": "ym2612"
    },
    {
      "channel": 0,
      "note": 82,
      "start": 6.2208,
      "duration": 0.0035,
      "velocity": 99,
      "chip": "ym2612"
    },
    {
      "channel": 1,
      "note": 77,
      "start": 6.2211,
      "duration": 0.0033,
      "velocity": 99,
      "chip": "ym2612"
    },
    {
      "channel": 2,
      "note": 75,
      "start": 6.2215,
      "duration": 0.0031,
      "velocity": 99,
      "chip": "ym2612"
    },
    {
      "channel": 3,
      "note": 72,
      "start": 6.2217,
      "duration": 0.003,
      "velocity": 99,
      "chip": "ym2612"
    },
    {
      "channel": 0,
      "note": 81,
      "start": 6.2579,
      "duration": 0.0571,
      "velocity": 99,
      "chip": "ym2612"
    },
    {
      "channel": 1,
      "note": 77,
      "start": 6.2582,
      "duration": 0.0569,
      "velocity": 99,
      "chip": "ym2612"
    },
    {
      "channel": 2,
      "note": 75,
      "start": 6.2585,
      "duration": 0.0566,
      "velocity": 99,
      "chip": "ym2612"
    },
    {
      "channel": 3,
      "note": 72,
      "start": 6.2588,
      "duration": 0.0194,
      "velocity": 99,
      "chip": "ym2612"
    },
    {
      "channel": 4,
      "note": 57,
      "start": 6.2591,
      "duration": 0.0562,
      "velocity": 105,
      "chip": "ym2612"
    },
    {
      "channel": 0,
      "note": 79,
      "start": 6.3651,
      "duration": 0.0058,
      "velocity": 99,
      "chip": "ym2612"
    },
    {
      "channel": 1,
      "note": 75,
      "start": 6.3654,
      "duration": 0.0056,
      "velocity": 99,
      "chip": "ym2612"
    },
    {
      "channel": 2,
      "note": 72,
      "start": 6.3658,
      "duration": 0.0054,
      "velocity": 99,
      "chip": "ym2612"
    },
    {
      "channel": 3,
      "note": 70,
      "start": 6.366,
      "duration": 0.0012,
      "velocity": 99,
      "chip": "ym2612"
    },
    {
      "channel": 4,
      "note": 60,
      "start": 6.3663,
      "duration": 0.0049,
      "velocity": 105,
      "chip": "ym2612"
    },
    {
      "channel": 4,
      "note": 63,
      "start": 6.4215,
      "duration": 0.02,
      "velocity": 105,
      "chip": "ym2612"
    },
    {
      "channel": 4,
      "note": 65,
      "start": 6.475,
      "duration": 0.0541,
      "velocity": 105,
      "chip": "ym2612"
    },
    {
      "channel": 4,
      "note": 63,
      "start": 6.5312,
      "duration": 0.0536,
      "velocity": 105,
      "chip": "ym2612"
    },
    {
      "channel": 4,
      "note": 65,
      "start": 6.5848,
      "duration": 0.0542,
      "velocity": 105,
      "chip": "ym2612"
    },
    {
      "channel": 4,
      "note": 63,
      "start": 6.6922,
      "duration": 0.003,
      "velocity": 105,
      "chip": "ym2612"
    },
    {
      "channel": 4,
      "note": 60,
      "start": 6.7484,
      "duration": 0.0026,
      "velocity": 105,
      "chip": "ym2612"
    },
    {
      "channel": 4,
      "note": 48,
      "start": 6.751,
      "duration": 0.0396,
      "velocity": 105,
      "chip": "ym2612"
    },
    {
      "channel": 0,
      "note": 82,
      "start": 6.7542,
      "duration": 0.0062,
      "velocity": 99,
      "chip": "ym2612"
    },
    {
      "channel": 1,
      "note": 77,
      "start": 6.7558,
      "duration": 0.0046,
      "velocity": 99,
      "chip": "ym2612"
    },
    {
      "channel": 2,
      "note": 75,
      "start": 6.7576,
      "duration": 0.0029,
      "velocity": 99,
      "chip": "ym2612"
    },
    {
      "channel": 3,
      "note": 72,
      "start": 6.7593,
      "duration": 0.0012,
      "velocity": 99,
      "chip": "ym2612"
    },
    {
      "channel": 0,
      "note": 82,
      "start": 6.789,
      "duration": 0.0201,
      "velocity": 99,
      "chip": "ym2612"
    },
    {
      "channel": 1,
      "note": 77,
      "start": 6.7893,
      "duration": 0.0199,
      "velocity": 99,
      "chip": "ym2612"
    },
    {
      "channel": 2,
      "note": 75,
      "start": 6.7896,
      "duration": 0.0197,
      "velocity": 99,
      "chip": "ym2612"
    },
    {
      "channel": 3,
      "note": 72,
      "start": 6.7899,
      "duration": 0.0195,
      "velocity": 99,
      "chip": "ym2612"
    },
    {
      "channel": 0,
      "note": 81,
      "start": 6.8426,
      "duration": 0.0571,
      "velocity": 99,
      "chip": "ym2612"
    },
    {
      "channel": 1,
      "note": 77,
      "start": 6.8429,
      "duration": 0.0569,
      "velocity": 99,
      "chip": "ym2612"
    },
    {
      "channel": 2,
      "note": 75,
      "start": 6.8432,
      "duration": 0.0567,
      "velocity": 99,
      "chip": "ym2612"
    },
    {
      "channel": 3,
      "note": 72,
      "start": 6.8435,
      "duration": 0.0194,
      "velocity": 99,
      "chip": "ym2612"
    },
    {
      "channel": 4,
      "note": 51,
      "start": 6.8438,
      "duration": 0.0562,
      "velocity": 105,
      "chip": "ym2612"
    },
    {
      "channel": 0,
      "note": 82,
      "start": 6.9499,
      "duration": 0.0058,
      "velocity": 99,
      "chip": "ym2612"
    },
    {
      "channel": 1,
      "note": 77,
      "start": 6.9502,
      "duration": 0.0056,
      "velocity": 99,
      "chip": "ym2612"
    },
    {
      "channel": 2,
      "note": 75,
      "start": 6.9505,
      "duration": 0.0054,
      "velocity": 99,
      "chip": "ym2612"
    },
    {
      "channel": 3,
      "note": 72,
      "start": 6.9508,
      "duration": 0.0012,
      "velocity": 99,
      "chip": "ym2612"
    },
    {
      "channel": 4,
      "note": 55,
      "start": 6.9511,
      "duration": 0.0049,
      "velocity": 105,
      "chip": "ym2612"
    },
    {
      "channel": 4,
      "note": 58,
      "start": 7.0063,
      "duration": 0.02,
      "velocity": 105,
      "chip": "ym2612"
    },
    {
      "channel": 4,
      "note": 60,
      "start": 7.0598,
      "duration": 0.0541,
      "velocity": 105,
      "chip": "ym2612"
    },
    {
      "channel": 4,
      "note": 58,
      "start": 7.116,
      "duration": 0.0202,
      "velocity": 105,
      "chip": "ym2612"
    },
    {
      "channel": 4,
      "note": 60,
      "start": 7.1697,
      "duration": 0.0542,
      "velocity": 105,
      "chip": "ym2612"
    },
    {
      "channel": 4,
      "note": 55,
      "start": 7.2771,
      "duration": 0.0042,
      "velocity": 105,
      "chip": "ym2612"
    },
    {
      "channel": 0,
      "note": 84,
      "start": 7.2796,
      "duration": 0.0546,
      "velocity": 99,
      "chip": "ym2612"
    },
    {
      "channel": 1,
      "note": 77,
      "start": 7.2799,
      "duration": 0.0544,
      "velocity": 99,
      "chip": "ym2612"
    },
    {
      "channel": 2,
      "note": 75,
      "start": 7.2802,
      "duration": 0.0541,
      "velocity": 99,
      "chip": "ym2612"
    },
    {
      "channel": 3,
      "note": 72,
      "start": 7.2805,
      "duration": 0.0539,
      "velocity": 99,
      "chip": "ym2612"
    },
    {
      "channel": 4,
      "note": 51,
      "start": 7.3335,
      "duration": 0.0012,
      "velocity": 105,
      "chip": "ym2612"
    },
    {
      "channel": 0,
      "note": 82,
      "start": 7.336,
      "duration": 0.0055,
      "velocity": 99,
      "chip": "ym2612"
    },
    {
      "channel": 1,
      "note": 77,
      "start": 7.3363,
      "duration": 0.0053,
      "velocity": 99,
      "chip": "ym2612"
    },
    {
      "channel": 2,
      "note": 75,
      "start": 7.3366,
      "duration": 0.0051,
      "velocity": 99,
      "chip": "ym2612"
    },
    {
      "channel": 3,
      "note": 72,
      "start": 7.3369,
      "duration": 0.0049,
      "velocity": 99,
      "chip": "ym2612"
    },
    {
      "channel": 4,
      "note": 48,
      "start": 7.3372,
      "duration": 0.0561,
      "velocity": 105,
      "chip": "ym2612"
    },
    {
      "channel": 0,
      "note": 82,
      "start": 7.3917,
      "duration": 0.0201,
      "velocity": 99,
      "chip": "ym2612"
    },
    {
      "channel": 1,
      "note": 77,
      "start": 7.392,
      "duration": 0.0199,
      "velocity": 99,
      "chip": "ym2612"
    },
    {
      "channel": 2,
      "note": 75,
      "start": 7.3923,
      "duration": 0.0197,
      "velocity": 99,
      "chip": "ym2612"
    },
    {
      "channel": 3,
      "note": 72,
      "start": 7.3926,
      "duration": 0.0195,
      "velocity": 99,
      "chip": "ym2612"
    },
    {
      "channel": 0,
      "note": 81,
      "start": 7.4453,
      "duration": 0.0571,
      "velocity": 99,
      "chip": "ym2612"
    },
    {
      "channel": 1,
      "note": 77,
      "start": 7.4456,
      "duration": 0.0569,
      "velocity": 99,
      "chip": "ym2612"
    },
    {
      "channel": 2,
      "note": 75,
      "start": 7.446,
      "duration": 0.0566,
      "velocity": 99,
      "chip": "ym2612"
    },
    {
      "channel": 3,
      "note": 72,
      "start": 7.4462,
      "duration": 0.0194,
      "velocity": 99,
      "chip": "ym2612"
    },
    {
      "channel": 4,
      "note": 51,
      "start": 7.4465,
      "duration": 0.0562,
      "velocity": 105,
      "chip": "ym2612"
    },
    {
      "channel": 0,
      "note": 79,
      "start": 7.5526,
      "duration": 0.0058,
      "velocity": 99,
      "chip": "ym2612"
    },
    {
      "channel": 1,
      "note": 75,
      "start": 7.5529,
      "duration": 0.0056,
      "velocity": 99,
      "chip": "ym2612"
    },
    {
      "channel": 2,
      "note": 72,
      "start": 7.5532,
      "duration": 0.0054,
      "velocity": 99,
      "chip": "ym2612"
    },
    {
      "channel": 3,
      "note": 70,
      "start": 7.5535,
      "duration": 0.0012,
      "velocity": 99,
      "chip": "ym2612"
    },
    {
      "channel": 4,
      "note": 55,
      "start": 7.5538,
      "duration": 0.0049,
      "velocity": 105,
      "chip": "ym2612"
    },
    {
      "channel": 4,
      "note": 58,
      "start": 7.609,
      "duration": 0.02,
      "velocity": 105,
      "chip": "ym2612"
    },
    {
      "channel": 4,
      "note": 60,
      "start": 7.6625,
      "duration": 0.0541,
      "velocity": 105,
      "chip": "ym2612"
    },
    {
      "channel": 4,
      "note": 58,
      "start": 7.7188,
      "duration": 0.0035,
      "velocity": 105,
      "chip": "ym2612"
    },
    {
      "channel": 4,
      "note": 60,
      "start": 7.7724,
      "duration": 0.0542,
      "velocity": 105,
      "chip": "ym2612"
    },
    {
      "channel": 4,
      "note": 55,
      "start": 7.8798,
      "duration": 0.0031,
      "velocity": 105,
      "chip": "ym2612"
    },
    {
      "channel": 4,
      "note": 51,
      "start": 7.936,
      "duration": 0.0009,
      "velocity": 105,
      "chip": "ym2612"
    },
    {
      "channel": 4,
      "note": 53,
      "start": 7.9384,
      "duration": 0.0559,
      "velocity": 105,
      "chip": "ym2612"
    },
    {
      "channel": 0,
      "note": 82,
      "start": 7.9415,
      "duration": 0.0176,
      "velocity": 99,
      "chip": "ym2612"
    },
    {
      "channel": 1,
      "note": 77,
      "start": 7.9432,
      "duration": 0.016,
      "velocity": 99,
      "chip": "ym2612"
    },
    {
      "channel": 2,
      "note": 75,
      "start": 7.9448,
      "duration": 0.0145,
      "velocity": 99,
      "chip": "ym2612"
    },
    {
      "channel": 3,
      "note": 72,
      "start": 7.9464,
      "duration": 0.013,
      "velocity": 99,
      "chip": "ym2612"
    },
    {
      "channel": 0,
      "note": 82,
      "start": 7.9926,
      "duration": 0.0201,
      "velocity": 99,
      "chip": "ym2612"
    },
    {
      "channel": 1,
      "note": 77,
      "start": 7.9929,
      "duration": 0.0199,
      "velocity": 99,
      "chip": "ym2612"
    },
    {
      "channel": 2,
      "note": 75,
      "start": 7.9932,
      "duration": 0.0197,
      "velocity": 99,
      "chip": "ym2612"
    },
    {
      "channel": 3,
      "note": 72,
      "start": 7.9935,
      "duration": 0.0195,
      "velocity": 99,
      "chip": "ym2612"
    },
    {
      "channel": 0,
      "note": 81,
      "start": 8.0462,
      "duration": 0.0571,
      "velocity": 99,
      "chip": "ym2612"
    },
    {
      "channel": 1,
      "note": 77,
      "start": 8.0466,
      "duration": 0.0569,
      "velocity": 99,
      "chip": "ym2612"
    },
    {
      "channel": 2,
      "note": 75,
      "start": 8.0469,
      "duration": 0.0566,
      "velocity": 99,
      "chip": "ym2612"
    },
    {
      "channel": 3,
      "note": 72,
      "start": 8.0471,
      "duration": 0.0194,
      "velocity": 99,
      "chip": "ym2612"
    },
    {
      "channel": 4,
      "note": 57,
      "start": 8.0474,
      "duration": 0.0562,
      "velocity": 105,
      "chip": "ym2612"
    },
    {
      "channel": 0,
      "note": 82,
      "start": 8.1535,
      "duration": 0.0058,
      "velocity": 99,
      "chip": "ym2612"
    },
    {
      "channel": 1,
      "note": 77,
      "start": 8.1538,
      "duration": 0.0056,
      "velocity": 99,
      "chip": "ym2612"
    },
    {
      "channel": 2,
      "note": 75,
      "start": 8.1541,
      "duration": 0.0054,
      "velocity": 99,
      "chip": "ym2612"
    },
    {
      "channel": 3,
      "note": 72,
      "start": 8.1544,
      "duration": 0.0012,
      "velocity": 99,
      "chip": "ym2612"
    },
    {
      "channel": 4,
      "note": 60,
      "start": 8.1547,
      "duration": 0.0049,
      "velocity": 105,
      "chip": "ym2612"
    },
    {
      "channel": 4,
      "note": 63,
      "start": 8.2099,
      "duration": 0.02,
      "velocity": 105,
      "chip": "ym2612"
    },
    {
      "channel": 4,
      "note": 65,
      "start": 8.2634,
      "duration": 0.0541,
      "velocity": 105,
      "chip": "ym2612"
    },
    {
      "channel": 4,
      "note": 63,
      "start": 8.3197,
      "duration": 0.0536,
      "velocity": 105,
      "chip": "ym2612"
    },
    {
      "channel": 4,
      "note": 65,
      "start": 8.3733,
      "duration": 0.0542,
      "velocity": 105,
      "chip": "ym2612"
    },
    {
      "channel": 4,
      "note": 63,
      "start": 8.4807,
      "duration": 0.0042,
      "velocity": 105,
      "chip": "ym2612"
    },
    {
      "channel": 0,
      "note": 84,
      "start": 8.4832,
      "duration": 0.0379,
      "velocity": 99,
      "chip": "ym2612"
    },
    {
      "channel": 1,
      "note": 77,
      "start": 8.4835,
      "duration": 0.0377,
      "velocity": 99,
      "chip": "ym2612"
    },
    {
      "channel": 2,
      "note": 75,
      "start": 8.4838,
      "duration": 0.0375,
      "velocity": 99,
      "chip": "ym2612"
    },
    {
      "channel": 3,
      "note": 72,
      "start": 8.4841,
      "duration": 0.0373,
      "velocity": 99,
      "chip": "ym2612"
    },
    {
      "channel": 4,
      "note": 60,
      "start": 8.5204,
      "duration": 0.0037,
      "velocity": 105,
      "chip": "ym2612"
    },
    {
      "channel": 0,
      "note": 82,
      "start": 8.523,
      "duration": 0.0036,
      "velocity": 99,
      "chip": "ym2612"
    },
    {
      "channel": 1,
      "note": 77,
      "start": 8.5233,
      "duration": 0.0034,
      "velocity": 99,
      "chip": "ym2612"
    },
    {
      "channel": 2,
      "note": 75,
      "start": 8.5236,
      "duration": 0.0031,
      "velocity": 99,
      "chip": "ym2612"
    },
    {
      "channel": 3,
      "note": 72,
      "start": 8.5239,
      "duration": 0.0029,
      "velocity": 99,
      "chip": "ym2612"
    },
    {
      "channel": 4,
      "note": 53,
      "start": 8.5241,
      "duration": 0.0049,
      "velocity": 105,
      "chip": "ym2612"
    },
    {
      "channel": 0,
      "note": 82,
      "start": 8.5274,
      "duration": 0.0018,
      "velocity": 99,
      "chip": "ym2612"
    },
    {
      "channel": 1,
      "note": 77,
      "start": 8.5277,
      "duration": 0.0016,
      "velocity": 99,
      "chip": "ym2612"
    },
    {
      "channel": 2,
      "note": 75,
      "start": 8.5279,
      "duration": 0.0015,
      "velocity": 99,
      "chip": "ym2612"
    },
    {
      "channel": 3,
      "note": 72,
      "start": 8.5282,
      "duration": 0.0014,
      "velocity": 99,
      "chip": "ym2612"
    },
    {
      "channel": 0,
      "note": 81,
      "start": 8.53,
      "duration": 0.0556,
      "velocity": 99,
      "chip": "ym2612"
    },
    {
      "channel": 1,
      "note": 77,
      "start": 8.5303,
      "duration": 0.0554,
      "velocity": 99,
      "chip": "ym2612"
    },
    {
      "channel": 2,
      "note": 75,
      "start": 8.5307,
      "duration": 0.0551,
      "velocity": 99,
      "chip": "ym2612"
    },
    {
      "channel": 3,
      "note": 72,
      "start": 8.531,
      "duration": 0.0194,
      "velocity": 99,
      "chip": "ym2612"
    },
    {
      "channel": 4,
      "note": 57,
      "start": 8.5312,
      "duration": 0.0546,
      "velocity": 105,
      "chip": "ym2612"
    },
    {
      "channel": 0,
      "note": 79,
      "start": 8.5875,
      "duration": 0.003,
      "velocity": 99,
      "chip": "ym2612"
    },
    {
      "channel": 1,
      "note": 75,
      "start": 8.5878,
      "duration": 0.0029,
      "velocity": 99,
      "chip": "ym2612"
    },
    {
      "channel": 2,
      "note": 72,
      "start": 8.588,
      "duration": 0.0027,
      "velocity": 99,
      "chip": "ym2612"
    },
    {
      "channel": 3,
      "note": 70,
      "start": 8.5883,
      "duration": 0.0011,
      "velocity": 99,
      "chip": "ym2612"
    },
    {
      "channel": 4,
      "note": 60,
      "start": 8.5886,
      "duration": 0.0022,
      "velocity": 105,
      "chip": "ym2612"
    },
    {
      "channel": 4,
      "note": 63,
      "start": 8.6441,
      "duration": 0.0041,
      "velocity": 105,
      "chip": "ym2612"
    },
    {
      "channel": 4,
      "note": 65,
      "start": 8.6498,
      "duration": 0.054,
      "velocity": 105,
      "chip": "ym2612"
    },
    {
      "channel": 4,
      "note": 63,
      "start": 8.7059,
      "duration": 0.0536,
      "velocity": 105,
      "chip": "ym2612"
    },
    {
      "channel": 4,
      "note": 65,
      "start": 8.7595,
      "duration": 0.0542,
      "velocity": 105,
      "chip": "ym2612"
    },
    {
      "channel": 4,
      "note": 63,
      "start": 8.8669,
      "duration": 0.003,
      "velocity": 105,
      "chip": "ym2612"
    },
    {
      "channel": 4,
      "note": 65,
      "start": 8.8719,
      "duration": 0.0025,
      "velocity": 105,
      "chip": "ym2612"
    },
    {
      "channel": 4,
      "note": 53,
      "start": 8.8744,
      "duration": 0.0077,
      "velocity": 105,
      "chip": "ym2612"
    },
    {
      "channel": 3,
      "note": 48,
      "start": 8.8819,
      "duration": 0.5497,
      "velocity": 96,
      "chip": "ym2612"
    },
    {
      "channel": 4,
      "note": 48,
      "start": 8.8821,
      "duration": 0.0049,
      "velocity": 105,
      "chip": "ym2612"
    },
    {
      "channel": 4,
      "note": 51,
      "start": 8.9371,
      "duration": 0.057,
      "velocity": 105,
      "chip": "ym2612"
    },
    {
      "channel": 4,
      "note": 53,
      "start": 9.0443,
      "duration": 0.0033,
      "velocity": 105,
      "chip": "ym2612"
    },
    {
      "channel": 0,
      "note": 84,
      "start": 9.1004,
      "duration": 0.3278,
      "velocity": 96,
      "chip": "ym2612"
    },
    {
      "channel": 2,
      "note": 72,
      "start": 9.1008,
      "duration": 0.3275,
      "velocity": 96,
      "chip": "ym2612"
    },
    {
      "channel": 4,
      "note": 54,
      "start": 9.1011,
      "duration": 0.0197,
      "velocity": 105,
      "chip": "ym2612"
    },
    {
      "channel": 4,
      "note": 55,
      "start": 9.1543,
      "duration": 0.0566,
      "velocity": 105,
      "chip": "ym2612"
    },
    {
      "channel": 4,
      "note": 53,
      "start": 9.2643,
      "duration": 0.0542,
      "velocity": 105,
      "chip": "ym2612"
    },
    {
      "channel": 1,
      "note": 79,
      "start": 9.3715,
      "duration": 0.4962,
      "velocity": 96,
      "chip": "ym2612"
    },
    {
      "channel": 4,
      "note": 51,
      "start": 9.372,
      "duration": 0.0054,
      "velocity": 105,
      "chip": "ym2612"
    },
    {
      "channel": 4,
      "note": 50,
      "start": 9.4275,
      "duration": 0.0031,
      "velocity": 105,
      "chip": "ym2612"
    },
    {
      "channel": 0,
      "note": 82,
      "start": 9.4312,
      "duration": 0.2554,
      "velocity": 96,
      "chip": "ym2612"
    },
    {
      "channel": 2,
      "note": 72,
      "start": 9.4314,
      "duration": 0.4729,
      "velocity": 96,
      "chip": "ym2612"
    },
    {
      "channel": 3,
      "note": 48,
      "start": 9.4315,
      "duration": 0.4728,
      "velocity": 96,
      "chip": "ym2612"
    },
    {
      "channel": 4,
      "note": 48,
      "start": 9.4317,
      "duration": 0.0047,
      "velocity": 105,
      "chip": "ym2612"
    },
    {
      "channel": 4,
      "note": 51,
      "start": 9.4866,
      "duration": 0.057,
      "velocity": 105,
      "chip": "ym2612"
    },
    {
      "channel": 4,
      "note": 53,
      "start": 9.5939,
      "duration": 0.003,
      "velocity": 105,
      "chip": "ym2612"
    },
    {
      "channel": 4,
      "note": 54,
      "start": 9.6501,
      "duration": 0.0034,
      "velocity": 105,
      "chip": "ym2612"
    },
    {
      "channel": 4,
      "note": 55,
      "start": 9.7037,
      "duration": 0.0566,
      "velocity": 105,
      "chip": "ym2612"
    },
    {
      "channel": 0,
      "note": 82,
      "start": 9.7571,
      "duration": 0.1105,
      "velocity": 96,
      "chip": "ym2612"
    },
    {
      "channel": 4,
      "note": 58,
      "start": 9.8136,
      "duration": 0.0542,
      "velocity": 105,
      "chip": "ym2612"
    },
    {
      "channel": 0,
      "note": 84,
      "start": 9.9041,
      "duration": 0.0058,
      "velocity": 96,
      "chip": "ym2612"
    },
    {
      "channel": 4,
      "note": 58,
      "start": 9.9047,
      "duration": 0.0055,
      "velocity": 105,
      "chip": "ym2612"
    },
    {
      "channel": 0,
      "note": 81,
      "start": 9.9601,
      "duration": 0.4846,
      "velocity": 96,
      "chip": "ym2612"
    },
    {
      "channel": 1,
      "note": 77,
      "start": 9.9604,
      "duration": 0.4844,
      "velocity": 96,
      "chip": "ym2612"
    },
    {
      "channel": 2,
      "note": 72,
      "start": 9.9607,
      "duration": 0.4842,
      "velocity": 96,
      "chip": "ym2612"
    },
    {
      "channel": 3,
      "note": 53,
      "start": 9.961,
      "duration": 0.4841,
      "velocity": 96,
      "chip": "ym2612"
    },
    {
      "channel": 4,
      "note": 60,
      "start": 9.9613,
      "duration": 0.0008,
      "velocity": 105,
      "chip": "ym2612"
    },
    {
      "channel": 4,
      "note": 53,
      "start": 9.9627,
      "duration": 0.0055,
      "velocity": 105,
      "chip": "ym2612"
    },
    {
      "channel": 4,
      "note": 57,
      "start": 10.0214,
      "duration": 0.0541,
      "velocity": 105,
      "chip": "ym2612"
    },
    {
      "channel": 4,
      "note": 58,
      "start": 10.1287,
      "duration": 0.0031,
      "velocity": 105,
      "chip": "ym2612"
    },
    {
      "channel": 4,
      "note": 59,
      "start": 10.185,
      "duration": 0.0034,
      "velocity": 105,
      "chip": "ym2612"
    },
    {
      "channel": 4,
      "note": 60,
      "start": 10.2386,
      "duration": 0.0566,
      "velocity": 105,
      "chip": "ym2612"
    },
    {
      "channel": 4,
      "note": 58,
      "start": 10.3484,
      "duration": 0.0404,
      "velocity": 105,
      "chip": "ym2612"
    },
    {
      "channel": 4,
      "note": 57,
      "start": 10.439,
      "duration": 0.0061,
      "velocity": 105,
      "chip": "ym2612"
    },
    {
      "channel": 4,
      "note": 55,
      "start": 10.4952,
      "duration": 0.0031,
      "velocity": 105,
      "chip": "ym2612"
    },
    {
      "channel": 0,
      "note": 82,
      "start": 10.5002,
      "duration": 0.0032,
      "velocity": 97,
      "chip": "ym2612"
    },
    {
      "channel": 1,
      "note": 79,
      "start": 10.502,
      "duration": 0.0015,
      "velocity": 97,
      "chip": "ym2612"
    },
    {
      "channel": 4,
      "note": 53,
      "start": 10.5025,
      "duration": 0.0062,
      "velocity": 105,
      "chip": "ym2612"
    },
    {
      "channel": 0,
      "note": 82,
      "start": 10.5051,
      "duration": 0.02,
      "velocity": 97,
      "chip": "ym2612"
    },
    {
      "channel": 1,
      "note": 79,
      "start": 10.5054,
      "duration": 0.0199,
      "velocity": 97,
      "chip": "ym2612"
    },
    {
      "channel": 0,
      "note": 81,
      "start": 10.5587,
      "duration": 0.0202,
      "velocity": 97,
      "chip": "ym2612"
    },
    {
      "channel": 1,
      "note": 77,
      "start": 10.559,
      "duration": 0.02,
      "velocity": 97,
      "chip": "ym2612"
    },
    {
      "channel": 4,
      "note": 57,
      "start": 10.5594,
      "duration": 0.0538,
      "velocity": 105,
      "chip": "ym2612"
    },
    {
      "channel": 0,
      "note": 79,
      "start": 10.6661,
      "duration": 0.0031,
      "velocity": 97,
      "chip": "ym2612"
    },
    {
      "channel": 1,
      "note": 75,
      "start": 10.6664,
      "duration": 0.0028,
      "velocity": 97,
      "chip": "ym2612"
    },
    {
      "channel": 4,
      "note": 58,
      "start": 10.6668,
      "duration": 0.0024,
      "velocity": 105,
      "chip": "ym2612"
    },
    {
      "channel": 4,
      "note": 59,
      "start": 10.7224,
      "duration": 0.0034,
      "velocity": 105,
      "chip": "ym2612"
    },
    {
      "channel": 4,
      "note": 60,
      "start": 10.776,
      "duration": 0.0566,
      "velocity": 105,
      "chip": "ym2612"
    },
    {
      "channel": 4,
      "note": 63,
      "start": 10.8692,
      "duration": 0.057,
      "velocity": 105,
      "chip": "ym2612"
    },
    {
      "channel": 4,
      "note": 63,
      "start": 10.9764,
      "duration": 0.0061,
      "velocity": 105,
      "chip": "ym2612"
    },
    {
      "channel": 4,
      "note": 65,
      "start": 11.0326,
      "duration": 0.0009,
      "velocity": 105,
      "chip": "ym2612"
    },
    {
      "channel": 4,
      "note": 48,
      "start": 11.0352,
      "duration": 0.0098,
      "velocity": 105,
      "chip": "ym2612"
    },
    {
      "channel": 3,
      "note": 48,
      "start": 11.0427,
      "duration": 0.5502,
      "velocity": 96,
      "chip": "ym2612"
    },
    {
      "channel": 4,
      "note": 51,
      "start": 11.0983,
      "duration": 0.0543,
      "velocity": 105,
      "chip": "ym2612"
    },
    {
      "channel": 4,
      "note": 53,
      "start": 11.2058,
      "duration": 0.0031,
      "velocity": 105,
      "chip": "ym2612"
    },
    {
      "channel": 0,
      "note": 84,
      "start": 11.2618,
      "duration": 0.3278,
      "velocity": 96,
      "chip": "ym2612"
    },
    {
      "channel": 2,
      "note": 72,
      "start": 11.2622,
      "duration": 0.3275,
      "velocity": 96,
      "chip": "ym2612"
    },
    {
      "channel": 4,
      "note": 54,
      "start": 11.2625,
      "duration": 0.003,
      "velocity": 105,
      "chip": "ym2612"
    },
    {
      "channel": 4,
      "note": 55,
      "start": 11.3156,
      "duration": 0.0566,
      "velocity": 105,
      "chip": "ym2612"
    },
    {
      "channel": 4,
      "note": 53,
      "start": 11.4255,
      "duration": 0.057,
      "velocity": 105,
      "chip": "ym2612"
    },
    {
      "channel": 1,
      "note": 79,
      "start": 11.5325,
      "duration": 0.4829,
      "velocity": 96,
      "chip": "ym2612"
    },
    {
      "channel": 4,
      "note": 51,
      "start": 11.533,
      "duration": 0.0056,
      "velocity": 105,
      "chip": "ym2612"
    },
    {
      "channel": 4,
      "note": 50,
      "start": 11.5888,
      "duration": 0.0031,
      "velocity": 105,
      "chip": "ym2612"
    },
    {
      "channel": 0,
      "note": 82,
      "start": 11.5926,
      "duration": 0.2389,
      "velocity": 96,
      "chip": "ym2612"
    },
    {
      "channel": 2,
      "note": 72,
      "start": 11.5928,
      "duration": 0.4729,
      "velocity": 96,
      "chip": "ym2612"
    },
    {
      "channel": 3,
      "note": 48,
      "start": 11.5929,
      "duration": 0.4728,
      "velocity": 96,
      "chip": "ym2612"
    },
    {
      "channel": 4,
      "note": 48,
      "start": 11.5931,
      "duration": 0.0018,
      "velocity": 105,
      "chip": "ym2612"
    },
    {
      "channel": 4,
      "note": 51,
      "start": 11.648,
      "duration": 0.0542,
      "velocity": 105,
      "chip": "ym2612"
    },
    {
      "channel": 4,
      "note": 53,
      "start": 11.7554,
      "duration": 0.003,
      "velocity": 105,
      "chip": "ym2612"
    },
    {
      "channel": 4,
      "note": 54,
      "start": 11.8116,
      "duration": 0.0034,
      "velocity": 105,
      "chip": "ym2612"
    },
    {
      "channel": 4,
      "note": 55,
      "start": 11.8652,
      "duration": 0.0399,
      "velocity": 105,
      "chip": "ym2612"
    },
    {
      "channel": 0,
      "note": 82,
      "start": 11.902,
      "duration": 0.1104,
      "velocity": 96,
      "chip": "ym2612"
    },
    {
      "channel": 4,
      "note": 58,
      "start": 11.9584,
      "duration": 0.0571,
      "velocity": 105,
      "chip": "ym2612"
    },
    {
      "channel": 0,
      "note": 84,
      "start": 12.0655,
      "duration": 0.0057,
      "velocity": 96,
      "chip": "ym2612"
    },
    {
      "channel": 4,
      "note": 58,
      "start": 12.0661,
      "duration": 0.0054,
      "velocity": 105,
      "chip": "ym2612"
    },
    {
      "channel": 0,
      "note": 81,
      "start": 12.1214,
      "duration": 0.4846,
      "velocity": 96,
      "chip": "ym2612"
    },
    {
      "channel": 1,
      "note": 77,
      "start": 12.1217,
      "duration": 0.4844,
      "velocity": 96,
      "chip": "ym2612"
    },
    {
      "channel": 2,
      "note": 72,
      "start": 12.122,
      "duration": 0.4842,
      "velocity": 96,
      "chip": "ym2612"
    },
    {
      "channel": 3,
      "note": 53,
      "start": 12.1222,
      "duration": 0.4841,
      "velocity": 96,
      "chip": "ym2612"
    },
    {
      "channel": 4,
      "note": 60,
      "start": 12.1226,
      "duration": 0.0008,
      "velocity": 105,
      "chip": "ym2612"
    },
    {
      "channel": 4,
      "note": 53,
      "start": 12.1239,
      "duration": 0.0055,
      "velocity": 105,
      "chip": "ym2612"
    },
    {
      "channel": 4,
      "note": 57,
      "start": 12.1827,
      "duration": 0.0541,
      "velocity": 105,
      "chip": "ym2612"
    },
    {
      "channel": 4,
      "note": 58,
      "start": 12.29,
      "duration": 0.0031,
      "velocity": 105,
      "chip": "ym2612"
    },
    {
      "channel": 4,
      "note": 59,
      "start": 12.3462,
      "duration": 0.0034,
      "velocity": 105,
      "chip": "ym2612"
    },
    {
      "channel": 4,
      "note": 60,
      "start": 12.3999,
      "duration": 0.0399,
      "velocity": 105,
      "chip": "ym2612"
    },
    {
      "channel": 4,
      "note": 58,
      "start": 12.493,
      "duration": 0.0571,
      "velocity": 105,
      "chip": "ym2612"
    },
    {
      "channel": 4,
      "note": 57,
      "start": 12.6003,
      "duration": 0.0061,
      "velocity": 105,
      "chip": "ym2612"
    },
    {
      "channel": 4,
      "note": 55,
      "start": 12.6564,
      "duration": 0.0031,
      "velocity": 105,
      "chip": "ym2612"
    },
    {
      "channel": 0,
      "note": 82,
      "start": 12.6615,
      "duration": 0.0183,
      "velocity": 97,
      "chip": "ym2612"
    },
    {
      "channel": 1,
      "note": 79,
      "start": 12.6633,
      "duration": 0.0166,
      "velocity": 97,
      "chip": "ym2612"
    },
    {
      "channel": 4,
      "note": 53,
      "start": 12.6638,
      "duration": 0.0507,
      "velocity": 105,
      "chip": "ym2612"
    },
    {
      "channel": 0,
      "note": 82,
      "start": 12.7133,
      "duration": 0.0035,
      "velocity": 97,
      "chip": "ym2612"
    },
    {
      "channel": 1,
      "note": 79,
      "start": 12.7136,
      "duration": 0.0033,
      "velocity": 97,
      "chip": "ym2612"
    },
    {
      "channel": 0,
      "note": 81,
      "start": 12.767,
      "duration": 0.0035,
      "velocity": 97,
      "chip": "ym2612"
    },
    {
      "channel": 1,
      "note": 77,
      "start": 12.7673,
      "duration": 0.0033,
      "velocity": 97,
      "chip": "ym2612"
    },
    {
      "channel": 4,
      "note": 57,
      "start": 12.7677,
      "duration": 0.0538,
      "velocity": 105,
      "chip": "ym2612"
    },
    {
      "channel": 0,
      "note": 82,
      "start": 12.8743,
      "duration": 0.0017,
      "velocity": 97,
      "chip": "ym2612"
    },
    {
      "channel": 1,
      "note": 79,
      "start": 12.8746,
      "duration": 0.0015,
      "velocity": 97,
      "chip": "ym2612"
    },
    {
      "channel": 4,
      "note": 58,
      "start": 12.875,
      "duration": 0.0026,
      "velocity": 105,
      "chip": "ym2612"
    },
    {
      "channel": 0,
      "note": 81,
      "start": 12.9305,
      "duration": 0.0035,
      "velocity": 97,
      "chip": "ym2612"
    },
    {
      "channel": 1,
      "note": 77,
      "start": 12.9308,
      "duration": 0.0033,
      "velocity": 97,
      "chip": "ym2612"
    },
    {
      "channel": 4,
      "note": 59,
      "start": 12.9312,
      "duration": 0.0031,
      "velocity": 105,
      "chip": "ym2612"
    },
    {
      "channel": 0,
      "note": 82,
      "start": 12.9675,
      "duration": 0.0201,
      "velocity": 97,
      "chip": "ym2612"
    },
    {
      "channel": 1,
      "note": 79,
      "start": 12.9678,
      "duration": 0.0199,
      "velocity": 97,
      "chip": "ym2612"
    },
    {
      "channel": 4,
      "note": 60,
      "start": 12.9682,
      "duration": 0.0567,
      "velocity": 105,
      "chip": "ym2612"
    },
    {
      "channel": 0,
      "note": 82,
      "start": 13.0238,
      "duration": 0.0201,
      "velocity": 97,
      "chip": "ym2612"
    },
    {
      "channel": 1,
      "note": 79,
      "start": 13.0241,
      "duration": 0.0199,
      "velocity": 97,
      "chip": "ym2612"
    },
    {
      "channel": 0,
      "note": 81,
      "start": 13.0773,
      "duration": 0.0201,
      "velocity": 97,
      "chip": "ym2612"
    },
    {
      "channel": 1,
      "note": 77,
      "start": 13.0777,
      "duration": 0.0199,
      "velocity": 97,
      "chip": "ym2612"
    },
    {
      "channel": 4,
      "note": 63,
      "start": 13.078,
      "duration": 0.0566,
      "velocity": 105,
      "chip": "ym2612"
    },
    {
      "channel": 0,
      "note": 82,
      "start": 13.1846,
      "duration": 0.0018,
      "velocity": 97,
      "chip": "ym2612"
    },
    {
      "channel": 1,
      "note": 79,
      "start": 13.1849,
      "duration": 0.0016,
      "velocity": 97,
      "chip": "ym2612"
    },
    {
      "channel": 4,
      "note": 63,
      "start": 13.1853,
      "duration": 0.005,
      "velocity": 105,
      "chip": "ym2612"
    },
    {
      "channel": 0,
      "note": 84,
      "start": 13.187,
      "duration": 0.0196,
      "velocity": 97,
      "chip": "ym2612"
    },
    {
      "channel": 1,
      "note": 81,
      "start": 13.1873,
      "duration": 0.0195,
      "velocity": 97,
      "chip": "ym2612"
    },
    {
      "channel": 4,
      "note": 65,
      "start": 13.2405,
      "duration": 0.0042,
      "velocity": 105,
      "chip": "ym2612"
    },
    {
      "channel": 2,
      "note": 48,
      "start": 13.2469,
      "duration": 0.5621,
      "velocity": 97,
      "chip": "ym2612"
    },
    {
      "channel": 4,
      "note": 48,
      "start": 13.2488,
      "duration": 0.0505,
      "velocity": 105,
      "chip": "ym2612"
    },
    {
      "channel": 0,
      "note": 82,
      "start": 13.3522,
      "duration": 0.0546,
      "velocity": 97,
      "chip": "ym2612"
    },
    {
      "channel": 1,
      "note": 79,
      "start": 13.3526,
      "duration": 0.0544,
      "velocity": 97,
      "chip": "ym2612"
    },
    {
      "channel": 4,
      "note": 51,
      "start": 13.3529,
      "duration": 0.0541,
      "velocity": 105,
      "chip": "ym2612"
    },
    {
      "channel": 3,
      "note": 60,
      "start": 13.4061,
      "duration": 0.0036,
      "velocity": 97,
      "chip": "ym2612"
    },
    {
      "channel": 0,
      "note": 84,
      "start": 13.4597,
      "duration": 0.0017,
      "velocity": 97,
      "chip": "ym2612"
    },
    {
      "channel": 1,
      "note": 79,
      "start": 13.46,
      "duration": 0.0015,
      "velocity": 97,
      "chip": "ym2612"
    },
    {
      "channel": 4,
      "note": 55,
      "start": 13.4605,
      "duration": 0.0028,
      "velocity": 105,
      "chip": "ym2612"
    },
    {
      "channel": 0,
      "note": 84,
      "start": 13.462,
      "duration": 0.0404,
      "velocity": 97,
      "chip": "ym2612"
    },
    {
      "channel": 1,
      "note": 79,
      "start": 13.4624,
      "duration": 0.0402,
      "velocity": 97,
      "chip": "ym2612"
    },
    {
      "channel": 3,
      "note": 60,
      "start": 13.4992,
      "duration": 0.0201,
      "velocity": 97,
      "chip": "ym2612"
    },
    {
      "channel": 4,
      "note": 58,
      "start": 13.4995,
      "duration": 0.0199,
      "velocity": 105,
      "chip": "ym2612"
    },
    {
      "channel": 0,
      "note": 82,
      "start": 13.5527,
      "duration": 0.0201,
      "velocity": 97,
      "chip": "ym2612"
    },
    {
      "channel": 1,
      "note": 79,
      "start": 13.553,
      "duration": 0.0199,
      "velocity": 97,
      "chip": "ym2612"
    },
    {
      "channel": 4,
      "note": 60,
      "start": 13.5534,
      "duration": 0.0537,
      "velocity": 105,
      "chip": "ym2612"
    },
    {
      "channel": 0,
      "note": 82,
      "start": 13.6088,
      "duration": 0.0201,
      "velocity": 97,
      "chip": "ym2612"
    },
    {
      "channel": 1,
      "note": 79,
      "start": 13.6091,
      "duration": 0.0199,
      "velocity": 97,
      "chip": "ym2612"
    },
    {
      "channel": 4,
      "note": 58,
      "start": 13.6095,
      "duration": 0.0197,
      "velocity": 105,
      "chip": "ym2612"
    },
    {
      "channel": 3,
      "note": 60,
      "start": 13.6627,
      "duration": 0.02,
      "velocity": 97,
      "chip": "ym2612"
    },
    {
      "channel": 4,
      "note": 60,
      "start": 13.663,
      "duration": 0.0567,
      "velocity": 105,
      "chip": "ym2612"
    },
    {
      "channel": 3,
      "note": 55,
      "start": 13.7163,
      "duration": 0.0201,
      "velocity": 97,
      "chip": "ym2612"
    },
    {
      "channel": 0,
      "note": 84,
      "start": 13.7697,
      "duration": 0.0019,
      "velocity": 97,
      "chip": "ym2612"
    },
    {
      "channel": 1,
      "note": 79,
      "start": 13.77,
      "duration": 0.0016,
      "velocity": 97,
      "chip": "ym2612"
    },
    {
      "channel": 3,
      "note": 55,
      "start": 13.7704,
      "duration": 0.0029,
      "velocity": 97,
      "chip": "ym2612"
    },
    {
      "channel": 4,
      "note": 55,
      "start": 13.7706,
      "duration": 0.0027,
      "velocity": 105,
      "chip": "ym2612"
    },
    {
      "channel": 0,
      "note": 84,
      "start": 13.772,
      "duration": 0.0549,
      "velocity": 97,
      "chip": "ym2612"
    },
    {
      "channel": 1,
      "note": 79,
      "start": 13.7723,
      "duration": 0.0547,
      "velocity": 97,
      "chip": "ym2612"
    },
    {
      "channel": 3,
      "note": 60,
      "start": 13.8259,
      "duration": 0.0013,
      "velocity": 97,
      "chip": "ym2612"
    },
    {
      "channel": 4,
      "note": 51,
      "start": 13.8262,
      "duration": 0.0011,
      "velocity": 105,
      "chip": "ym2612"
    },
    {
      "channel": 0,
      "note": 82,
      "start": 13.8286,
      "duration": 0.0015,
      "velocity": 97,
      "chip": "ym2612"
    },
    {
      "channel": 1,
      "note": 79,
      "start": 13.8289,
      "duration": 0.0012,
      "velocity": 97,
      "chip": "ym2612"
    },
    {
      "channel": 4,
      "note": 48,
      "start": 13.8293,
      "duration": 0.0556,
      "velocity": 105,
      "chip": "ym2612"
    },
    {
      "channel": 2,
      "note": 48,
      "start": 13.8308,
      "duration": 0.5804,
      "velocity": 97,
      "chip": "ym2612"
    },
    {
      "channel": 0,
      "note": 82,
      "start": 13.9379,
      "duration": 0.0546,
      "velocity": 97,
      "chip": "ym2612"
    },
    {
      "channel": 1,
      "note": 79,
      "start": 13.9382,
      "duration": 0.0544,
      "velocity": 97,
      "chip": "ym2612"
    },
    {
      "channel": 4,
      "note": 51,
      "start": 13.9386,
      "duration": 0.0541,
      "velocity": 105,
      "chip": "ym2612"
    },
    {
      "channel": 3,
      "note": 60,
      "start": 13.9918,
      "duration": 0.0036,
      "velocity": 97,
      "chip": "ym2612"
    },
    {
      "channel": 0,
      "note": 84,
      "start": 14.0454,
      "duration": 0.0017,
      "velocity": 97,
      "chip": "ym2612"
    },
    {
      "channel": 1,
      "note": 79,
      "start": 14.0457,
      "duration": 0.0015,
      "velocity": 97,
      "chip": "ym2612"
    },
    {
      "channel": 4,
      "note": 55,
      "start": 14.0462,
      "duration": 0.0052,
      "velocity": 105,
      "chip": "ym2612"
    },
    {
      "channel": 0,
      "note": 84,
      "start": 14.0477,
      "duration": 0.0571,
      "velocity": 97,
      "chip": "ym2612"
    },
    {
      "channel": 1,
      "note": 79,
      "start": 14.048,
      "duration": 0.0569,
      "velocity": 97,
      "chip": "ym2612"
    },
    {
      "channel": 3,
      "note": 60,
      "start": 14.1015,
      "duration": 0.0201,
      "velocity": 97,
      "chip": "ym2612"
    },
    {
      "channel": 4,
      "note": 58,
      "start": 14.1018,
      "duration": 0.0199,
      "velocity": 105,
      "chip": "ym2612"
    },
    {
      "channel": 0,
      "note": 82,
      "start": 14.1549,
      "duration": 0.0201,
      "velocity": 97,
      "chip": "ym2612"
    },
    {
      "channel": 1,
      "note": 79,
      "start": 14.1553,
      "duration": 0.0199,
      "velocity": 97,
      "chip": "ym2612"
    },
    {
      "channel": 4,
      "note": 60,
      "start": 14.1557,
      "duration": 0.0537,
      "velocity": 105,
      "chip": "ym2612"
    },
    {
      "channel": 0,
      "note": 82,
      "start": 14.2111,
      "duration": 0.0201,
      "velocity": 97,
      "chip": "ym2612"
    },
    {
      "channel": 1,
      "note": 79,
      "start": 14.2114,
      "duration": 0.0199,
      "velocity": 97,
      "chip": "ym2612"
    },
    {
      "channel": 4,
      "note": 58,
      "start": 14.2118,
      "duration": 0.0197,
      "velocity": 105,
      "chip": "ym2612"
    },
    {
      "channel": 3,
      "note": 60,
      "start": 14.2649,
      "duration": 0.02,
      "velocity": 97,
      "chip": "ym2612"
    },
    {
      "channel": 4,
      "note": 60,
      "start": 14.2653,
      "duration": 0.0567,
      "velocity": 105,
      "chip": "ym2612"
    },
    {
      "channel": 3,
      "note": 55,
      "start": 14.3185,
      "duration": 0.0201,
      "velocity": 97,
      "chip": "ym2612"
    },
    {
      "channel": 0,
      "note": 84,
      "start": 14.3719,
      "duration": 0.0019,
      "velocity": 97,
      "chip": "ym2612"
    },
    {
      "channel": 1,
      "note": 79,
      "start": 14.3722,
      "duration": 0.0016,
      "velocity": 97,
      "chip": "ym2612"
    },
    {
      "channel": 3,
      "note": 55,
      "start": 14.3726,
      "duration": 0.0029,
      "velocity": 97,
      "chip": "ym2612"
    },
    {
      "channel": 4,
      "note": 55,
      "start": 14.3729,
      "duration": 0.0027,
      "velocity": 105,
      "chip": "ym2612"
    },
    {
      "channel": 0,
      "note": 84,
      "start": 14.3743,
      "duration": 0.0549,
      "velocity": 97,
      "chip": "ym2612"
    },
    {
      "channel": 1,
      "note": 79,
      "start": 14.3746,
      "duration": 0.0547,
      "velocity": 97,
      "chip": "ym2612"
    },
    {
      "channel": 3,
      "note": 60,
      "start": 14.4282,
      "duration": 0.0013,
      "velocity": 97,
      "chip": "ym2612"
    },
    {
      "channel": 4,
      "note": 51,
      "start": 14.4284,
      "duration": 0.0011,
      "velocity": 105,
      "chip": "ym2612"
    },
    {
      "channel": 0,
      "note": 81,
      "start": 14.4308,
      "duration": 0.0015,
      "velocity": 97,
      "chip": "ym2612"
    },
    {
      "channel": 1,
      "note": 77,
      "start": 14.4311,
      "duration": 0.0012,
      "velocity": 97,
      "chip": "ym2612"
    },
    {
      "channel": 4,
      "note": 48,
      "start": 14.4315,
      "duration": 0.0018,
      "velocity": 105,
      "chip": "ym2612"
    },
    {
      "channel": 2,
      "note": 53,
      "start": 14.433,
      "duration": 0.5639,
      "velocity": 97,
      "chip": "ym2612"
    },
    {
      "channel": 4,
      "note": 53,
      "start": 14.4333,
      "duration": 0.0539,
      "velocity": 105,
      "chip": "ym2612"
    },
    {
      "channel": 0,
      "note": 81,
      "start": 14.5402,
      "duration": 0.0546,
      "velocity": 97,
      "chip": "ym2612"
    },
    {
      "channel": 1,
      "note": 77,
      "start": 14.5405,
      "duration": 0.0544,
      "velocity": 97,
      "chip": "ym2612"
    },
    {
      "channel": 4,
      "note": 57,
      "start": 14.5409,
      "duration": 0.0541,
      "velocity": 105,
      "chip": "ym2612"
    },
    {
      "channel": 3,
      "note": 65,
      "start": 14.5941,
      "duration": 0.0036,
      "velocity": 97,
      "chip": "ym2612"
    },
    {
      "channel": 0,
      "note": 82,
      "start": 14.631,
      "duration": 0.0017,
      "velocity": 97,
      "chip": "ym2612"
    },
    {
      "channel": 1,
      "note": 79,
      "start": 14.6313,
      "duration": 0.0015,
      "velocity": 97,
      "chip": "ym2612"
    },
    {
      "channel": 4,
      "note": 60,
      "start": 14.6318,
      "duration": 0.0053,
      "velocity": 105,
      "chip": "ym2612"
    },
    {
      "channel": 0,
      "note": 82,
      "start": 14.6334,
      "duration": 0.057,
      "velocity": 97,
      "chip": "ym2612"
    },
    {
      "channel": 1,
      "note": 79,
      "start": 14.6337,
      "duration": 0.0568,
      "velocity": 97,
      "chip": "ym2612"
    },
    {
      "channel": 3,
      "note": 65,
      "start": 14.6872,
      "duration": 0.0201,
      "velocity": 97,
      "chip": "ym2612"
    },
    {
      "channel": 4,
      "note": 63,
      "start": 14.6875,
      "duration": 0.0199,
      "velocity": 105,
      "chip": "ym2612"
    },
    {
      "channel": 0,
      "note": 81,
      "start": 14.7406,
      "duration": 0.0201,
      "velocity": 97,
      "chip": "ym2612"
    },
    {
      "channel": 1,
      "note": 77,
      "start": 14.7409,
      "duration": 0.0199,
      "velocity": 97,
      "chip": "ym2612"
    },
    {
      "channel": 4,
      "note": 65,
      "start": 14.7414,
      "duration": 0.0537,
      "velocity": 105,
      "chip": "ym2612"
    },
    {
      "channel": 0,
      "note": 81,
      "start": 14.7968,
      "duration": 0.0201,
      "velocity": 97,
      "chip": "ym2612"
    },
    {
      "channel": 1,
      "note": 77,
      "start": 14.7971,
      "duration": 0.0199,
      "velocity": 97,
      "chip": "ym2612"
    },
    {
      "channel": 4,
      "note": 63,
      "start": 14.7975,
      "duration": 0.0534,
      "velocity": 105,
      "chip": "ym2612"
    },
    {
      "channel": 3,
      "note": 65,
      "start": 14.8506,
      "duration": 0.02,
      "velocity": 97,
      "chip": "ym2612"
    },
    {
      "channel": 4,
      "note": 65,
      "start": 14.8509,
      "duration": 0.054,
      "velocity": 105,
      "chip": "ym2612"
    },
    {
      "channel": 3,
      "note": 60,
      "start": 14.9041,
      "duration": 0.0202,
      "velocity": 97,
      "chip": "ym2612"
    },
    {
      "channel": 0,
      "note": 82,
      "start": 14.9576,
      "duration": 0.0019,
      "velocity": 97,
      "chip": "ym2612"
    },
    {
      "channel": 1,
      "note": 79,
      "start": 14.9579,
      "duration": 0.0016,
      "velocity": 97,
      "chip": "ym2612"
    },
    {
      "channel": 3,
      "note": 60,
      "start": 14.9583,
      "duration": 0.0029,
      "velocity": 97,
      "chip": "ym2612"
    },
    {
      "channel": 4,
      "note": 63,
      "start": 14.9585,
      "duration": 0.0027,
      "velocity": 105,
      "chip": "ym2612"
    },
    {
      "channel": 0,
      "note": 82,
      "start": 14.96,
      "duration": 0.0549,
      "velocity": 97,
      "chip": "ym2612"
    },
    {
      "channel": 1,
      "note": 79,
      "start": 14.9603,
      "duration": 0.0547,
      "velocity": 97,
      "chip": "ym2612"
    },
    {
      "channel": 3,
      "note": 65,
      "start": 15.0139,
      "duration": 0.0013,
      "velocity": 97,
      "chip": "ym2612"
    },
    {
      "channel": 4,
      "note": 60,
      "start": 15.0142,
      "duration": 0.0026,
      "velocity": 105,
      "chip": "ym2612"
    },
    {
      "channel": 0,
      "note": 81,
      "start": 15.016,
      "duration": 0.0016,
      "velocity": 97,
      "chip": "ym2612"
    },
    {
      "channel": 1,
      "note": 77,
      "start": 15.0163,
      "duration": 0.0014,
      "velocity": 97,
      "chip": "ym2612"
    },
    {
      "channel": 4,
      "note": 53,
      "start": 15.0168,
      "duration": 0.0559,
      "velocity": 105,
      "chip": "ym2612"
    },
    {
      "channel": 2,
      "note": 53,
      "start": 15.0186,
      "duration": 0.5637,
      "velocity": 97,
      "chip": "ym2612"
    },
    {
      "channel": 0,
      "note": 81,
      "start": 15.1257,
      "duration": 0.0405,
      "velocity": 97,
      "chip": "ym2612"
    },
    {
      "channel": 1,
      "note": 77,
      "start": 15.126,
      "duration": 0.0403,
      "velocity": 97,
      "chip": "ym2612"
    },
    {
      "channel": 4,
      "note": 57,
      "start": 15.1264,
      "duration": 0.0401,
      "velocity": 105,
      "chip": "ym2612"
    },
    {
      "channel": 3,
      "note": 65,
      "start": 15.1629,
      "duration": 0.0201,
      "velocity": 97,
      "chip": "ym2612"
    },
    {
      "channel": 0,
      "note": 82,
      "start": 15.2164,
      "duration": 0.0017,
      "velocity": 97,
      "chip": "ym2612"
    },
    {
      "channel": 1,
      "note": 79,
      "start": 15.2167,
      "duration": 0.0015,
      "velocity": 97,
      "chip": "ym2612"
    },
    {
      "channel": 4,
      "note": 60,
      "start": 15.2171,
      "duration": 0.0053,
      "velocity": 105,
      "chip": "ym2612"
    },
    {
      "channel": 0,
      "note": 82,
      "start": 15.2188,
      "duration": 0.057,
      "velocity": 97,
      "chip": "ym2612"
    },
    {
      "channel": 1,
      "note": 79,
      "start": 15.2191,
      "duration": 0.0568,
      "velocity": 97,
      "chip": "ym2612"
    },
    {
      "channel": 3,
      "note": 65,
      "start": 15.2726,
      "duration": 0.0201,
      "velocity": 97,
      "chip": "ym2612"
    },
    {
      "channel": 4,
      "note": 63,
      "start": 15.2728,
      "duration": 0.0199,
      "velocity": 105,
      "chip": "ym2612"
    },
    {
      "channel": 0,
      "note": 81,
      "start": 15.326,
      "duration": 0.0201,
      "velocity": 97,
      "chip": "ym2612"
    },
    {
      "channel": 1,
      "note": 77,
      "start": 15.3263,
      "duration": 0.0199,
      "velocity": 97,
      "chip": "ym2612"
    },
    {
      "channel": 4,
      "note": 65,
      "start": 15.3268,
      "duration": 0.0537,
      "velocity": 105,
      "chip": "ym2612"
    },
    {
      "channel": 0,
      "note": 81,
      "start": 15.3821,
      "duration": 0.0201,
      "velocity": 97,
      "chip": "ym2612"
    },
    {
      "channel": 1,
      "note": 77,
      "start": 15.3824,
      "duration": 0.0199,
      "velocity": 97,
      "chip": "ym2612"
    },
    {
      "channel": 4,
      "note": 63,
      "start": 15.3829,
      "duration": 0.0534,
      "velocity": 105,
      "chip": "ym2612"
    },
    {
      "channel": 3,
      "note": 65,
      "start": 15.4359,
      "duration": 0.02,
      "velocity": 97,
      "chip": "ym2612"
    },
    {
      "channel": 4,
      "note": 65,
      "start": 15.4362,
      "duration": 0.0541,
      "velocity": 105,
      "chip": "ym2612"
    },
    {
      "channel": 3,
      "note": 60,
      "start": 15.4895,
      "duration": 0.0202,
      "velocity": 97,
      "chip": "ym2612"
    },
    {
      "channel": 0,
      "note": 82,
      "start": 15.543,
      "duration": 0.0019,
      "velocity": 97,
      "chip": "ym2612"
    },
    {
      "channel": 1,
      "note": 79,
      "start": 15.5433,
      "duration": 0.0016,
      "velocity": 97,
      "chip": "ym2612"
    },
    {
      "channel": 3,
      "note": 60,
      "start": 15.5437,
      "duration": 0.0029,
      "velocity": 97,
      "chip": "ym2612"
    },
    {
      "channel": 4,
      "note": 63,
      "start": 15.5439,
      "duration": 0.0027,
      "velocity": 105,
      "chip": "ym2612"
    },
    {
      "channel": 0,
      "note": 82,
      "start": 15.5454,
      "duration": 0.0549,
      "velocity": 97,
      "chip": "ym2612"
    },
    {
      "channel": 1,
      "note": 79,
      "start": 15.5457,
      "duration": 0.0547,
      "velocity": 97,
      "chip": "ym2612"
    },
    {
      "channel": 3,
      "note": 65,
      "start": 15.5993,
      "duration": 0.0013,
      "velocity": 97,
      "chip": "ym2612"
    },
    {
      "channel": 4,
      "note": 60,
      "start": 15.5996,
      "duration": 0.0026,
      "velocity": 105,
      "chip": "ym2612"
    },
    {
      "channel": 0,
      "note": 81,
      "start": 15.6014,
      "duration": 0.0016,
      "velocity": 97,
      "chip": "ym2612"
    },
    {
      "channel": 1,
      "note": 77,
      "start": 15.6017,
      "duration": 0.0014,
      "velocity": 97,
      "chip": "ym2612"
    },
    {
      "channel": 4,
      "note": 48,
      "start": 15.6022,
      "duration": 0.0551,
      "velocity": 105,
      "chip": "ym2612"
    },
    {
      "channel": 2,
      "note": 48,
      "start": 15.6052,
      "duration": 0.5617,
      "velocity": 97,
      "chip": "ym2612"
    },
    {
      "channel": 0,
      "note": 82,
      "start": 15.6936,
      "duration": 0.0571,
      "velocity": 97,
      "chip": "ym2612"
    },
    {
      "channel": 1,
      "note": 79,
      "start": 15.6939,
      "duration": 0.0568,
      "velocity": 97,
      "chip": "ym2612"
    },
    {
      "channel": 4,
      "note": 51,
      "start": 15.6943,
      "duration": 0.0567,
      "velocity": 105,
      "chip": "ym2612"
    },
    {
      "channel": 3,
      "note": 60,
      "start": 15.7474,
      "duration": 0.0201,
      "velocity": 97,
      "chip": "ym2612"
    },
    {
      "channel": 0,
      "note": 84,
      "start": 15.8008,
      "duration": 0.0017,
      "velocity": 97,
      "chip": "ym2612"
    },
    {
      "channel": 1,
      "note": 79,
      "start": 15.8012,
      "duration": 0.0015,
      "velocity": 97,
      "chip": "ym2612"
    },
    {
      "channel": 4,
      "note": 55,
      "start": 15.8016,
      "duration": 0.0053,
      "velocity": 105,
      "chip": "ym2612"
    },
    {
      "channel": 0,
      "note": 84,
      "start": 15.8032,
      "duration": 0.057,
      "velocity": 97,
      "chip": "ym2612"
    },
    {
      "channel": 1,
      "note": 79,
      "start": 15.8035,
      "duration": 0.0568,
      "velocity": 97,
      "chip": "ym2612"
    },
    {
      "channel": 3,
      "note": 60,
      "start": 15.857,
      "duration": 0.0201,
      "velocity": 97,
      "chip": "ym2612"
    },
    {
      "channel": 4,
      "note": 58,
      "start": 15.8573,
      "duration": 0.0199,
      "velocity": 105,
      "chip": "ym2612"
    },
    {
      "channel": 0,
      "note": 82,
      "start": 15.9104,
      "duration": 0.0201,
      "velocity": 97,
      "chip": "ym2612"
    },
    {
      "channel": 1,
      "note": 79,
      "start": 15.9107,
      "duration": 0.0199,
      "velocity": 97,
      "chip": "ym2612"
    },
    {
      "channel": 4,
      "note": 60,
      "start": 15.9112,
      "duration": 0.0537,
      "velocity": 105,
      "chip": "ym2612"
    },
    {
      "channel": 0,
      "note": 82,
      "start": 15.9666,
      "duration": 0.0201,
      "velocity": 97,
      "chip": "ym2612"
    },
    {
      "channel": 1,
      "note": 79,
      "start": 15.9668,
      "duration": 0.0199,
      "velocity": 97,
      "chip": "ym2612"
    },
    {
      "channel": 4,
      "note": 58,
      "start": 15.9672,
      "duration": 0.0197,
      "velocity": 105,
      "chip": "ym2612"
    },
    {
      "channel": 3,
      "note": 60,
      "start": 16.0204,
      "duration": 0.0201,
      "velocity": 97,
      "chip": "ym2612"
    },
    {
      "channel": 4,
      "note": 60,
      "start": 16.0207,
      "duration": 0.0541,
      "velocity": 105,
      "chip": "ym2612"
    },
    {
      "channel": 3,
      "note": 55,
      "start": 16.0741,
      "duration": 0.0202,
      "velocity": 97,
      "chip": "ym2612"
    },
    {
      "channel": 0,
      "note": 84,
      "start": 16.1276,
      "duration": 0.0019,
      "velocity": 97,
      "chip": "ym2612"
    },
    {
      "channel": 1,
      "note": 79,
      "start": 16.1279,
      "duration": 0.0017,
      "velocity": 97,
      "chip": "ym2612"
    },
    {
      "channel": 3,
      "note": 55,
      "start": 16.1283,
      "duration": 0.0029,
      "velocity": 97,
      "chip": "ym2612"
    },
    {
      "channel": 4,
      "note": 55,
      "start": 16.1285,
      "duration": 0.0027,
      "velocity": 105,
      "chip": "ym2612"
    },
    {
      "channel": 0,
      "note": 84,
      "start": 16.13,
      "duration": 0.0549,
      "velocity": 97,
      "chip": "ym2612"
    },
    {
      "channel": 1,
      "note": 79,
      "start": 16.1302,
      "duration": 0.0547,
      "velocity": 97,
      "chip": "ym2612"
    },
    {
      "channel": 3,
      "note": 60,
      "start": 16.1838,
      "duration": 0.0013,
      "velocity": 97,
      "chip": "ym2612"
    },
    {
      "channel": 4,
      "note": 51,
      "start": 16.1841,
      "duration": 0.0011,
      "velocity": 105,
      "chip": "ym2612"
    },
    {
      "channel": 0,
      "note": 82,
      "start": 16.1864,
      "duration": 0.0015,
      "velocity": 97,
      "chip": "ym2612"
    },
    {
      "channel": 1,
      "note": 79,
      "start": 16.1867,
      "duration": 0.0012,
      "velocity": 97,
      "chip": "ym2612"
    },
    {
      "channel": 4,
      "note": 48,
      "start": 16.1872,
      "duration": 0.0557,
      "velocity": 105,
      "chip": "ym2612"
    },
    {
      "channel": 2,
      "note": 48,
      "start": 16.1887,
      "duration": 0.547,
      "velocity": 97,
      "chip": "ym2612"
    },
    {
      "channel": 0,
      "note": 82,
      "start": 16.2792,
      "duration": 0.0571,
      "velocity": 97,
      "chip": "ym2612"
    },
    {
      "channel": 1,
      "note": 79,
      "start": 16.2795,
      "duration": 0.0568,
      "velocity": 97,
      "chip": "ym2612"
    },
    {
      "channel": 4,
      "note": 51,
      "start": 16.2799,
      "duration": 0.0567,
      "velocity": 105,
      "chip": "ym2612"
    },
    {
      "channel": 3,
      "note": 60,
      "start": 16.333,
      "duration": 0.0201,
      "velocity": 97,
      "chip": "ym2612"
    },
    {
      "channel": 0,
      "note": 84,
      "start": 16.3864,
      "duration": 0.0016,
      "velocity": 97,
      "chip": "ym2612"
    },
    {
      "channel": 1,
      "note": 79,
      "start": 16.3867,
      "duration": 0.0014,
      "velocity": 97,
      "chip": "ym2612"
    },
    {
      "channel": 4,
      "note": 55,
      "start": 16.3872,
      "duration": 0.0052,
      "velocity": 105,
      "chip": "ym2612"
    },
    {
      "channel": 0,
      "note": 84,
      "start": 16.3887,
      "duration": 0.057,
      "velocity": 97,
      "chip": "ym2612"
    },
    {
      "channel": 1,
      "note": 79,
      "start": 16.389,
      "duration": 0.0568,
      "velocity": 97,
      "chip": "ym2612"
    },
    {
      "channel": 3,
      "note": 60,
      "start": 16.4425,
      "duration": 0.0201,
      "velocity": 97,
      "chip": "ym2612"
    },
    {
      "channel": 4,
      "note": 58,
      "start": 16.4427,
      "duration": 0.0199,
      "velocity": 105,
      "chip": "ym2612"
    },
    {
      "channel": 0,
      "note": 82,
      "start": 16.4959,
      "duration": 0.0201,
      "velocity": 97,
      "chip": "ym2612"
    },
    {
      "channel": 1,
      "note": 79,
      "start": 16.4962,
      "duration": 0.0199,
      "velocity": 97,
      "chip": "ym2612"
    },
    {
      "channel": 4,
      "note": 60,
      "start": 16.4967,
      "duration": 0.0537,
      "velocity": 105,
      "chip": "ym2612"
    },
    {
      "channel": 0,
      "note": 82,
      "start": 16.552,
      "duration": 0.0201,
      "velocity": 97,
      "chip": "ym2612"
    },
    {
      "channel": 1,
      "note": 79,
      "start": 16.5523,
      "duration": 0.0199,
      "velocity": 97,
      "chip": "ym2612"
    },
    {
      "channel": 4,
      "note": 58,
      "start": 16.5527,
      "duration": 0.0197,
      "velocity": 105,
      "chip": "ym2612"
    },
    {
      "channel": 3,
      "note": 60,
      "start": 16.6059,
      "duration": 0.0201,
      "velocity": 97,
      "chip": "ym2612"
    },
    {
      "channel": 4,
      "note": 60,
      "start": 16.6062,
      "duration": 0.0541,
      "velocity": 105,
      "chip": "ym2612"
    },
    {
      "channel": 3,
      "note": 55,
      "start": 16.6595,
      "duration": 0.0035,
      "velocity": 97,
      "chip": "ym2612"
    },
    {
      "channel": 0,
      "note": 84,
      "start": 16.713,
      "duration": 0.0019,
      "velocity": 97,
      "chip": "ym2612"
    },
    {
      "channel": 1,
      "note": 79,
      "start": 16.7133,
      "duration": 0.0017,
      "velocity": 97,
      "chip": "ym2612"
    },
    {
      "channel": 3,
      "note": 55,
      "start": 16.7137,
      "duration": 0.0029,
      "velocity": 97,
      "chip": "ym2612"
    },
    {
      "channel": 4,
      "note": 55,
      "start": 16.714,
      "duration": 0.0027,
      "velocity": 105,
      "chip": "ym2612"
    },
    {
      "channel": 0,
      "note": 84,
      "start": 16.7154,
      "duration": 0.0549,
      "velocity": 97,
      "chip": "ym2612"
    },
    {
      "channel": 1,
      "note": 79,
      "start": 16.7157,
      "duration": 0.0547,
      "velocity": 97,
      "chip": "ym2612"
    },
    {
      "channel": 3,
      "note": 60,
      "start": 16.7693,
      "duration": 0.0013,
      "velocity": 97,
      "chip": "ym2612"
    },
    {
      "channel": 4,
      "note": 51,
      "start": 16.7695,
      "duration": 0.0011,
      "velocity": 105,
      "chip": "ym2612"
    },
    {
      "channel": 0,
      "note": 81,
      "start": 16.7719,
      "duration": 0.0015,
      "velocity": 97,
      "chip": "ym2612"
    },
    {
      "channel": 1,
      "note": 77,
      "start": 16.7722,
      "duration": 0.0012,
      "velocity": 97,
      "chip": "ym2612"
    },
    {
      "channel": 4,
      "note": 53,
      "start": 16.7726,
      "duration": 0.039,
      "velocity": 105,
      "chip": "ym2612"
    },
    {
      "channel": 2,
      "note": 53,
      "start": 16.7742,
      "duration": 0.547,
      "velocity": 97,
      "chip": "ym2612"
    },
    {
      "channel": 0,
      "note": 81,
      "start": 16.8647,
      "duration": 0.057,
      "velocity": 97,
      "chip": "ym2612"
    },
    {
      "channel": 1,
      "note": 77,
      "start": 16.865,
      "duration": 0.0568,
      "velocity": 97,
      "chip": "ym2612"
    },
    {
      "channel": 4,
      "note": 57,
      "start": 16.8654,
      "duration": 0.0566,
      "velocity": 105,
      "chip": "ym2612"
    },
    {
      "channel": 3,
      "note": 65,
      "start": 16.9185,
      "duration": 0.0201,
      "velocity": 97,
      "chip": "ym2612"
    },
    {
      "channel": 0,
      "note": 82,
      "start": 16.9719,
      "duration": 0.0016,
      "velocity": 97,
      "chip": "ym2612"
    },
    {
      "channel": 1,
      "note": 79,
      "start": 16.9722,
      "duration": 0.0014,
      "velocity": 97,
      "chip": "ym2612"
    },
    {
      "channel": 4,
      "note": 60,
      "start": 16.9727,
      "duration": 0.0052,
      "velocity": 105,
      "chip": "ym2612"
    },
    {
      "channel": 0,
      "note": 82,
      "start": 16.9742,
      "duration": 0.057,
      "velocity": 97,
      "chip": "ym2612"
    },
    {
      "channel": 1,
      "note": 79,
      "start": 16.9745,
      "duration": 0.0568,
      "velocity": 97,
      "chip": "ym2612"
    },
    {
      "channel": 3,
      "note": 65,
      "start": 17.028,
      "duration": 0.0201,
      "velocity": 97,
      "chip": "ym2612"
    },
    {
      "channel": 4,
      "note": 63,
      "start": 17.0282,
      "duration": 0.0199,
      "velocity": 105,
      "chip": "ym2612"
    },
    {
      "channel": 0,
      "note": 81,
      "start": 17.0814,
      "duration": 0.0201,
      "velocity": 97,
      "chip": "ym2612"
    },
    {
      "channel": 1,
      "note": 77,
      "start": 17.0817,
      "duration": 0.0199,
      "velocity": 97,
      "chip": "ym2612"
    },
    {
      "channel": 4,
      "note": 65,
      "start": 17.0822,
      "duration": 0.0537,
      "velocity": 105,
      "chip": "ym2612"
    },
    {
      "channel": 0,
      "note": 81,
      "start": 17.1376,
      "duration": 0.0201,
      "velocity": 97,
      "chip": "ym2612"
    },
    {
      "channel": 1,
      "note": 77,
      "start": 17.1378,
      "duration": 0.0199,
      "velocity": 97,
      "chip": "ym2612"
    },
    {
      "channel": 4,
      "note": 63,
      "start": 17.1383,
      "duration": 0.0534,
      "velocity": 105,
      "chip": "ym2612"
    },
    {
      "channel": 3,
      "note": 65,
      "start": 17.1914,
      "duration": 0.0034,
      "velocity": 97,
      "chip": "ym2612"
    },
    {
      "channel": 4,
      "note": 65,
      "start": 17.1917,
      "duration": 0.0541,
      "velocity": 105,
      "chip": "ym2612"
    },
    {
      "channel": 3,
      "note": 60,
      "start": 17.245,
      "duration": 0.0035,
      "velocity": 97,
      "chip": "ym2612"
    },
    {
      "channel": 0,
      "note": 82,
      "start": 17.2985,
      "duration": 0.0019,
      "velocity": 97,
      "chip": "ym2612"
    },
    {
      "channel": 1,
      "note": 79,
      "start": 17.2988,
      "duration": 0.0017,
      "velocity": 97,
      "chip": "ym2612"
    },
    {
      "channel": 3,
      "note": 60,
      "start": 17.2992,
      "duration": 0.003,
      "velocity": 97,
      "chip": "ym2612"
    },
    {
      "channel": 4,
      "note": 63,
      "start": 17.2994,
      "duration": 0.0028,
      "velocity": 105,
      "chip": "ym2612"
    },
    {
      "channel": 0,
      "note": 82,
      "start": 17.301,
      "duration": 0.0549,
      "velocity": 97,
      "chip": "ym2612"
    },
    {
      "channel": 1,
      "note": 79,
      "start": 17.3012,
      "duration": 0.0547,
      "velocity": 97,
      "chip": "ym2612"
    },
    {
      "channel": 3,
      "note": 65,
      "start": 17.3548,
      "duration": 0.0013,
      "velocity": 97,
      "chip": "ym2612"
    },
    {
      "channel": 4,
      "note": 60,
      "start": 17.3551,
      "duration": 0.0026,
      "velocity": 105,
      "chip": "ym2612"
    },
    {
      "channel": 0,
      "note": 81,
      "start": 17.357,
      "duration": 0.0016,
      "velocity": 97,
      "chip": "ym2612"
    },
    {
      "channel": 1,
      "note": 77,
      "start": 17.3573,
      "duration": 0.0014,
      "velocity": 97,
      "chip": "ym2612"
    },
    {
      "channel": 4,
      "note": 53,
      "start": 17.3578,
      "duration": 0.0038,
      "velocity": 105,
      "chip": "ym2612"
    },
    {
      "channel": 2,
      "note": 53,
      "start": 17.3595,
      "duration": 0.3444,
      "velocity": 97,
      "chip": "ym2612"
    },
    {
      "channel": 0,
      "note": 81,
      "start": 17.3635,
      "duration": 0.0562,
      "velocity": 97,
      "chip": "ym2612"
    },
    {
      "channel": 1,
      "note": 77,
      "start": 17.3638,
      "duration": 0.056,
      "velocity": 97,
      "chip": "ym2612"
    },
    {
      "channel": 4,
      "note": 57,
      "start": 17.3641,
      "duration": 0.0557,
      "velocity": 105,
      "chip": "ym2612"
    },
    {
      "channel": 3,
      "note": 65,
      "start": 17.4173,
      "duration": 0.0031,
      "velocity": 97,
      "chip": "ym2612"
    },
    {
      "channel": 0,
      "note": 82,
      "start": 17.4213,
      "duration": 0.0013,
      "velocity": 97,
      "chip": "ym2612"
    },
    {
      "channel": 1,
      "note": 79,
      "start": 17.4216,
      "duration": 0.0011,
      "velocity": 97,
      "chip": "ym2612"
    },
    {
      "channel": 4,
      "note": 60,
      "start": 17.422,
      "duration": 0.005,
      "velocity": 105,
      "chip": "ym2612"
    },
    {
      "channel": 0,
      "note": 82,
      "start": 17.4233,
      "duration": 0.0571,
      "velocity": 97,
      "chip": "ym2612"
    },
    {
      "channel": 1,
      "note": 79,
      "start": 17.4236,
      "duration": 0.0568,
      "velocity": 97,
      "chip": "ym2612"
    },
    {
      "channel": 3,
      "note": 65,
      "start": 17.4771,
      "duration": 0.0041,
      "velocity": 97,
      "chip": "ym2612"
    },
    {
      "channel": 4,
      "note": 63,
      "start": 17.4773,
      "duration": 0.0039,
      "velocity": 105,
      "chip": "ym2612"
    },
    {
      "channel": 0,
      "note": 81,
      "start": 17.4827,
      "duration": 0.0201,
      "velocity": 97,
      "chip": "ym2612"
    },
    {
      "channel": 1,
      "note": 77,
      "start": 17.483,
      "duration": 0.0199,
      "velocity": 97,
      "chip": "ym2612"
    },
    {
      "channel": 4,
      "note": 65,
      "start": 17.4835,
      "duration": 0.0537,
      "velocity": 105,
      "chip": "ym2612"
    },
    {
      "channel": 0,
      "note": 81,
      "start": 17.5389,
      "duration": 0.0034,
      "velocity": 97,
      "chip": "ym2612"
    },
    {
      "channel": 1,
      "note": 77,
      "start": 17.5392,
      "duration": 0.0032,
      "velocity": 97,
      "chip": "ym2612"
    },
    {
      "channel": 4,
      "note": 63,
      "start": 17.5396,
      "duration": 0.0534,
      "velocity": 105,
      "chip": "ym2612"
    },
    {
      "channel": 3,
      "note": 65,
      "start": 17.5927,
      "duration": 0.0034,
      "velocity": 97,
      "chip": "ym2612"
    },
    {
      "channel": 4,
      "note": 65,
      "start": 17.593,
      "duration": 0.0541,
      "velocity": 105,
      "chip": "ym2612"
    },
    {
      "channel": 3,
      "note": 60,
      "start": 17.6463,
      "duration": 0.0035,
      "velocity": 97,
      "chip": "ym2612"
    },
    {
      "channel": 0,
      "note": 82,
      "start": 17.6998,
      "duration": 0.0019,
      "velocity": 97,
      "chip": "ym2612"
    },
    {
      "channel": 1,
      "note": 79,
      "start": 17.7001,
      "duration": 0.0017,
      "velocity": 97,
      "chip": "ym2612"
    },
    {
      "channel": 3,
      "note": 60,
      "start": 17.7005,
      "duration": 0.003,
      "velocity": 97,
      "chip": "ym2612"
    },
    {
      "channel": 4,
      "note": 63,
      "start": 17.7007,
      "duration": 0.0028,
      "velocity": 105,
      "chip": "ym2612"
    },
    {
      "channel": 0,
      "note": 82,
      "start": 17.7023,
      "duration": 0.0036,
      "velocity": 97,
      "chip": "ym2612"
    },
    {
      "channel": 1,
      "note": 79,
      "start": 17.7026,
      "duration": 0.0034,
      "velocity": 97,
      "chip": "ym2612"
    },
    {
      "channel": 3,
      "note": 65,
      "start": 17.7049,
      "duration": 0.0013,
      "velocity": 97,
      "chip": "ym2612"
    },
    {
      "channel": 4,
      "note": 65,
      "start": 17.7052,
      "duration": 0.0026,
      "velocity": 105,
      "chip": "ym2612"
    },
    {
      "channel": 0,
      "note": 81,
      "start": 17.7071,
      "duration": 0.0016,
      "velocity": 97,
      "chip": "ym2612"
    },
    {
      "channel": 1,
      "note": 77,
      "start": 17.7073,
      "duration": 0.0014,
      "velocity": 97,
      "chip": "ym2612"
    },
    {
      "channel": 4,
      "note": 53,
      "start": 17.7078,
      "duration": 0.0094,
      "velocity": 105,
      "chip": "ym2612"
    },
    {
      "channel": 0,
      "note": 84,
      "start": 17.7107,
      "duration": 0.011,
      "velocity": 99,
      "chip": "ym2612"
    },
    {
      "channel": 1,
      "note": 81,
      "start": 17.7124,
      "duration": 0.0094,
      "velocity": 99,
      "chip": "ym2612"
    },
    {
      "channel": 2,
      "note": 79,
      "start": 17.7141,
      "duration": 0.0077,
      "velocity": 99,
      "chip": "ym2612"
    },
    {
      "channel": 3,
      "note": 75,
      "start": 17.7157,
      "duration": 0.0063,
      "velocity": 99,
      "chip": "ym2612"
    },
    {
      "channel": 4,
      "note": 48,
      "start": 17.7172,
      "duration": 0.0049,
      "velocity": 105,
      "chip": "ym2612"
    },
    {
      "channel": 0,
      "note": 79,
      "start": 17.7719,
      "duration": 0.0571,
      "velocity": 99,
      "chip": "ym2612"
    },
    {
      "channel": 1,
      "note": 75,
      "start": 17.7722,
      "duration": 0.0569,
      "velocity": 99,
      "chip": "ym2612"
    },
    {
      "channel": 2,
      "note": 72,
      "start": 17.7725,
      "duration": 0.0566,
      "velocity": 99,
      "chip": "ym2612"
    },
    {
      "channel": 3,
      "note": 70,
      "start": 17.7728,
      "duration": 0.0565,
      "velocity": 99,
      "chip": "ym2612"
    },
    {
      "channel": 4,
      "note": 51,
      "start": 17.7731,
      "duration": 0.0563,
      "velocity": 105,
      "chip": "ym2612"
    },
    {
      "channel": 0,
      "note": 77,
      "start": 17.8791,
      "duration": 0.0057,
      "velocity": 99,
      "chip": "ym2612"
    },
    {
      "channel": 1,
      "note": 75,
      "start": 17.8795,
      "duration": 0.0055,
      "velocity": 99,
      "chip": "ym2612"
    },
    {
      "channel": 2,
      "note": 72,
      "start": 17.8798,
      "duration": 0.0052,
      "velocity": 99,
      "chip": "ym2612"
    },
    {
      "channel": 3,
      "note": 69,
      "start": 17.88,
      "duration": 0.0051,
      "velocity": 99,
      "chip": "ym2612"
    },
    {
      "channel": 4,
      "note": 53,
      "start": 17.8803,
      "duration": 0.0049,
      "velocity": 105,
      "chip": "ym2612"
    },
    {
      "channel": 0,
      "note": 75,
      "start": 17.935,
      "duration": 0.0202,
      "velocity": 99,
      "chip": "ym2612"
    },
    {
      "channel": 1,
      "note": 72,
      "start": 17.9353,
      "duration": 0.02,
      "velocity": 99,
      "chip": "ym2612"
    },
    {
      "channel": 2,
      "note": 70,
      "start": 17.9356,
      "duration": 0.0197,
      "velocity": 99,
      "chip": "ym2612"
    },
    {
      "channel": 3,
      "note": 67,
      "start": 17.9359,
      "duration": 0.0196,
      "velocity": 99,
      "chip": "ym2612"
    },
    {
      "channel": 4,
      "note": 54,
      "start": 17.9362,
      "duration": 0.0193,
      "velocity": 105,
      "chip": "ym2612"
    },
    {
      "channel": 0,
      "note": 77,
      "start": 17.9887,
      "duration": 0.0202,
      "velocity": 99,
      "chip": "ym2612"
    },
    {
      "channel": 1,
      "note": 75,
      "start": 17.989,
      "duration": 0.02,
      "velocity": 99,
      "chip": "ym2612"
    },
    {
      "channel": 2,
      "note": 72,
      "start": 17.9893,
      "duration": 0.0197,
      "velocity": 99,
      "chip": "ym2612"
    },
    {
      "channel": 3,
      "note": 69,
      "start": 17.9895,
      "duration": 0.0196,
      "velocity": 99,
      "chip": "ym2612"
    },
    {
      "channel": 4,
      "note": 55,
      "start": 17.9899,
      "duration": 0.0557,
      "velocity": 105,
      "chip": "ym2612"
    },
    {
      "channel": 4,
      "note": 53,
      "start": 18.099,
      "duration": 0.0541,
      "velocity": 105,
      "chip": "ym2612"
    },
    {
      "channel": 4,
      "note": 51,
      "start": 18.2063,
      "duration": 42.4661,
      "velocity": 105,
      "chip": "ym2612"
    }
  ]
}