{
  "track_name": "13 - Requiem",
  "duration_sec": 38.841,
  "sample_rate": 44100,
  "note_count": 189,
  "unique_pitches": 22,
  "pitch_range": 34,
  "avg_note_duration": 1.2331,
  "reconstruction_stats": {
    "notes_reconstructed": 189,
    "keyon_events": 189,
    "keyoff_events": 181,
    "orphan_keyons": 6,
    "unique_pitches": 22,
    "pitch_range": 34,
    "avg_duration_sec": 1.2331
  },
  "metadata": {
    "source": "F\\Fushigi no Umi no Nadia\\13 - Requiem.vgz"
  },
  "notes": [
    {
      "channel": 0,
      "note": 57,
      "start": 0.0,
      "duration": 1.7473,
      "velocity": 73,
      "chip": "ym2612"
    },
    {
      "channel": 3,
      "note": -1,
      "start": 0.0,
      "duration": 0.0,
      "velocity": 1,
      "chip": "ym2612"
    },
    {
      "channel": 3,
      "note": -1,
      "start": 0.0,
      "duration": 0.3539,
      "velocity": 73,
      "chip": "ym2612"
    },
    {
      "channel": 4,
      "note": -1,
      "start": 0.0,
      "duration": 0.0,
      "velocity": 1,
      "chip": "ym2612"
    },
    {
      "channel": 4,
      "note": -1,
      "start": 0.0,
      "duration": 0.7046,
      "velocity": 73,
      "chip": "ym2612"
    },
    {
      "channel": 5,
      "note": -1,
      "start": 0.0,
      "duration": 38.8408,
      "velocity": 127,
      "chip": "ym2612"
    },
    {
      "channel": 1,
      "note": 64,
      "start": 0.3503,
      "duration": 0.6973,
      "velocity": 73,
      "chip": "ym2612"
    },
    {
      "channel": 3,
      "note": 57,
      "start": 0.3539,
      "duration": 1.7445,
      "velocity": 73,
      "chip": "ym2612"
    },
    {
      "channel": 2,
      "note": 72,
      "start": 0.7008,
      "duration": 0.6971,
      "velocity": 73,
      "chip": "ym2612"
    },
    {
      "channel": 4,
      "note": 64,
      "start": 0.7046,
      "duration": 0.344,
      "velocity": 73,
      "chip": "ym2612"
    },
    {
      "channel": 1,
      "note": 71,
      "start": 1.0476,
      "duration": 1.4,
      "velocity": 73,
      "chip": "ym2612"
    },
    {
      "channel": 4,
      "note": 72,
      "start": 1.0487,
      "duration": 0.35,
      "velocity": 73,
      "chip": "ym2612"
    },
    {
      "channel": 2,
      "note": 76,
      "start": 1.3979,
      "duration": 1.3999,
      "velocity": 73,
      "chip": "ym2612"
    },
    {
      "channel": 4,
      "note": 71,
      "start": 1.3987,
      "duration": 0.3499,
      "velocity": 73,
      "chip": "ym2612"
    },
    {
      "channel": 0,
      "note": 64,
      "start": 1.7474,
      "duration": 0.3499,
      "velocity": 73,
      "chip": "ym2612"
    },
    {
      "channel": 4,
      "note": 76,
      "start": 1.7487,
      "duration": 1.0499,
      "velocity": 73,
      "chip": "ym2612"
    },
    {
      "channel": 0,
      "note": 57,
      "start": 2.0973,
      "duration": 1.75,
      "velocity": 73,
      "chip": "ym2612"
    },
    {
      "channel": 3,
      "note": 64,
      "start": 2.0984,
      "duration": 0.3499,
      "velocity": 73,
      "chip": "ym2612"
    },
    {
      "channel": 1,
      "note": 64,
      "start": 2.4476,
      "duration": 0.7001,
      "velocity": 73,
      "chip": "ym2612"
    },
    {
      "channel": 3,
      "note": 57,
      "start": 2.4484,
      "duration": 1.7532,
      "velocity": 92,
      "chip": "ym2612"
    },
    {
      "channel": 2,
      "note": 72,
      "start": 2.7979,
      "duration": 0.6999,
      "velocity": 73,
      "chip": "ym2612"
    },
    {
      "channel": 4,
      "note": 64,
      "start": 2.7987,
      "duration": 0.35,
      "velocity": 73,
      "chip": "ym2612"
    },
    {
      "channel": 1,
      "note": 71,
      "start": 3.1476,
      "duration": 1.3999,
      "velocity": 73,
      "chip": "ym2612"
    },
    {
      "channel": 4,
      "note": 72,
      "start": 3.1487,
      "duration": 0.3499,
      "velocity": 73,
      "chip": "ym2612"
    },
    {
      "channel": 2,
      "note": 76,
      "start": 3.4979,
      "duration": 1.3999,
      "velocity": 73,
      "chip": "ym2612"
    },
    {
      "channel": 4,
      "note": 71,
      "start": 3.4987,
      "duration": 0.35,
      "velocity": 73,
      "chip": "ym2612"
    },
    {
      "channel": 0,
      "note": 64,
      "start": 3.8474,
      "duration": 0.3502,
      "velocity": 73,
      "chip": "ym2612"
    },
    {
      "channel": 4,
      "note": 76,
      "start": 3.8487,
      "duration": 0.7029,
      "velocity": 92,
      "chip": "ym2612"
    },
    {
      "channel": 0,
      "note": 57,
      "start": 4.1977,
      "duration": 1.7496,
      "velocity": 73,
      "chip": "ym2612"
    },
    {
      "channel": 3,
      "note": 71,
      "start": 4.2017,
      "duration": 1.0467,
      "velocity": 92,
      "chip": "ym2612"
    },
    {
      "channel": 1,
      "note": 64,
      "start": 4.5476,
      "duration": 0.6999,
      "velocity": 73,
      "chip": "ym2612"
    },
    {
      "channel": 4,
      "note": 71,
      "start": 4.5517,
      "duration": 1.0473,
      "velocity": 92,
      "chip": "ym2612"
    },
    {
      "channel": 2,
      "note": 72,
      "start": 4.8978,
      "duration": 0.7001,
      "velocity": 73,
      "chip": "ym2612"
    },
    {
      "channel": 1,
      "note": 71,
      "start": 5.2476,
      "duration": 1.3999,
      "velocity": 73,
      "chip": "ym2612"
    },
    {
      "channel": 3,
      "note": 69,
      "start": 5.2484,
      "duration": 0.35,
      "velocity": 92,
      "chip": "ym2612"
    },
    {
      "channel": 2,
      "note": 76,
      "start": 5.5979,
      "duration": 1.3999,
      "velocity": 73,
      "chip": "ym2612"
    },
    {
      "channel": 3,
      "note": 71,
      "start": 5.5985,
      "duration": 1.75,
      "velocity": 92,
      "chip": "ym2612"
    },
    {
      "channel": 4,
      "note": 69,
      "start": 5.599,
      "duration": 0.3497,
      "velocity": 92,
      "chip": "ym2612"
    },
    {
      "channel": 0,
      "note": 64,
      "start": 5.9474,
      "duration": 0.3499,
      "velocity": 73,
      "chip": "ym2612"
    },
    {
      "channel": 4,
      "note": 71,
      "start": 5.9487,
      "duration": 1.7502,
      "velocity": 92,
      "chip": "ym2612"
    },
    {
      "channel": 0,
      "note": 57,
      "start": 6.2973,
      "duration": 1.7501,
      "velocity": 73,
      "chip": "ym2612"
    },
    {
      "channel": 1,
      "note": 64,
      "start": 6.6476,
      "duration": 0.7,
      "velocity": 73,
      "chip": "ym2612"
    },
    {
      "channel": 2,
      "note": 72,
      "start": 6.9978,
      "duration": 0.7001,
      "velocity": 73,
      "chip": "ym2612"
    },
    {
      "channel": 1,
      "note": 71,
      "start": 7.3476,
      "duration": 1.4001,
      "velocity": 73,
      "chip": "ym2612"
    },
    {
      "channel": 3,
      "note": 72,
      "start": 7.3484,
      "duration": 0.35,
      "velocity": 92,
      "chip": "ym2612"
    },
    {
      "channel": 2,
      "note": 76,
      "start": 7.6979,
      "duration": 1.3999,
      "velocity": 73,
      "chip": "ym2612"
    },
    {
      "channel": 3,
      "note": 74,
      "start": 7.6985,
      "duration": 0.7,
      "velocity": 92,
      "chip": "ym2612"
    },
    {
      "channel": 4,
      "note": 72,
      "start": 7.699,
      "duration": 0.3497,
      "velocity": 92,
      "chip": "ym2612"
    },
    {
      "channel": 0,
      "note": 64,
      "start": 8.0474,
      "duration": 0.3499,
      "velocity": 73,
      "chip": "ym2612"
    },
    {
      "channel": 4,
      "note": 74,
      "start": 8.0487,
      "duration": 0.6999,
      "velocity": 92,
      "chip": "ym2612"
    },
    {
      "channel": 0,
      "note": 55,
      "start": 8.3974,
      "duration": 1.7499,
      "velocity": 73,
      "chip": "ym2612"
    },
    {
      "channel": 3,
      "note": 64,
      "start": 8.3984,
      "duration": 3.15,
      "velocity": 92,
      "chip": "ym2612"
    },
    {
      "channel": 1,
      "note": 64,
      "start": 8.7476,
      "duration": 0.6999,
      "velocity": 73,
      "chip": "ym2612"
    },
    {
      "channel": 4,
      "note": 64,
      "start": 8.7487,
      "duration": 3.1502,
      "velocity": 92,
      "chip": "ym2612"
    },
    {
      "channel": 2,
      "note": 72,
      "start": 9.0978,
      "duration": 0.7,
      "velocity": 73,
      "chip": "ym2612"
    },
    {
      "channel": 1,
      "note": 71,
      "start": 9.4475,
      "duration": 1.4001,
      "velocity": 73,
      "chip": "ym2612"
    },
    {
      "channel": 2,
      "note": 76,
      "start": 9.7978,
      "duration": 1.4,
      "velocity": 73,
      "chip": "ym2612"
    },
    {
      "channel": 0,
      "note": 64,
      "start": 10.1473,
      "duration": 0.35,
      "velocity": 73,
      "chip": "ym2612"
    },
    {
      "channel": 0,
      "note": 55,
      "start": 10.4973,
      "duration": 1.7501,
      "velocity": 73,
      "chip": "ym2612"
    },
    {
      "channel": 1,
      "note": 64,
      "start": 10.8476,
      "duration": 0.7,
      "velocity": 73,
      "chip": "ym2612"
    },
    {
      "channel": 2,
      "note": 72,
      "start": 11.1978,
      "duration": 0.7001,
      "velocity": 73,
      "chip": "ym2612"
    },
    {
      "channel": 1,
      "note": 71,
      "start": 11.5476,
      "duration": 1.4001,
      "velocity": 73,
      "chip": "ym2612"
    },
    {
      "channel": 3,
      "note": 65,
      "start": 11.5484,
      "duration": 0.35,
      "velocity": 92,
      "chip": "ym2612"
    },
    {
      "channel": 2,
      "note": 76,
      "start": 11.8979,
      "duration": 1.3999,
      "velocity": 73,
      "chip": "ym2612"
    },
    {
      "channel": 3,
      "note": 67,
      "start": 11.8985,
      "duration": 0.7,
      "velocity": 92,
      "chip": "ym2612"
    },
    {
      "channel": 4,
      "note": 65,
      "start": 11.899,
      "duration": 0.3497,
      "velocity": 92,
      "chip": "ym2612"
    },
    {
      "channel": 0,
      "note": 64,
      "start": 12.2474,
      "duration": 0.3499,
      "velocity": 73,
      "chip": "ym2612"
    },
    {
      "channel": 4,
      "note": 67,
      "start": 12.2487,
      "duration": 0.6999,
      "velocity": 92,
      "chip": "ym2612"
    },
    {
      "channel": 0,
      "note": 53,
      "start": 12.5974,
      "duration": 1.7499,
      "velocity": 73,
      "chip": "ym2612"
    },
    {
      "channel": 3,
      "note": 71,
      "start": 12.5984,
      "duration": 1.05,
      "velocity": 92,
      "chip": "ym2612"
    },
    {
      "channel": 1,
      "note": 60,
      "start": 12.9476,
      "duration": 0.6999,
      "velocity": 73,
      "chip": "ym2612"
    },
    {
      "channel": 4,
      "note": 71,
      "start": 12.9487,
      "duration": 1.0502,
      "velocity": 92,
      "chip": "ym2612"
    },
    {
      "channel": 2,
      "note": 69,
      "start": 13.2978,
      "duration": 0.7001,
      "velocity": 73,
      "chip": "ym2612"
    },
    {
      "channel": 1,
      "note": 67,
      "start": 13.6476,
      "duration": 1.3999,
      "velocity": 73,
      "chip": "ym2612"
    },
    {
      "channel": 3,
      "note": 69,
      "start": 13.6484,
      "duration": 0.35,
      "velocity": 92,
      "chip": "ym2612"
    },
    {
      "channel": 2,
      "note": 76,
      "start": 13.9979,
      "duration": 1.3999,
      "velocity": 73,
      "chip": "ym2612"
    },
    {
      "channel": 3,
      "note": 71,
      "start": 13.9985,
      "duration": 1.75,
      "velocity": 92,
      "chip": "ym2612"
    },
    {
      "channel": 4,
      "note": 69,
      "start": 13.999,
      "duration": 0.3497,
      "velocity": 92,
      "chip": "ym2612"
    },
    {
      "channel": 0,
      "note": 60,
      "start": 14.3474,
      "duration": 0.3499,
      "velocity": 73,
      "chip": "ym2612"
    },
    {
      "channel": 4,
      "note": 71,
      "start": 14.3487,
      "duration": 1.7502,
      "velocity": 92,
      "chip": "ym2612"
    },
    {
      "channel": 0,
      "note": 53,
      "start": 14.6973,
      "duration": 1.7501,
      "velocity": 73,
      "chip": "ym2612"
    },
    {
      "channel": 1,
      "note": 60,
      "start": 15.0476,
      "duration": 0.7,
      "velocity": 73,
      "chip": "ym2612"
    },
    {
      "channel": 2,
      "note": 69,
      "start": 15.3978,
      "duration": 0.7001,
      "velocity": 73,
      "chip": "ym2612"
    },
    {
      "channel": 1,
      "note": 67,
      "start": 15.7476,
      "duration": 1.4001,
      "velocity": 73,
      "chip": "ym2612"
    },
    {
      "channel": 3,
      "note": 72,
      "start": 15.7484,
      "duration": 0.35,
      "velocity": 92,
      "chip": "ym2612"
    },
    {
      "channel": 2,
      "note": 76,
      "start": 16.0979,
      "duration": 1.3999,
      "velocity": 73,
      "chip": "ym2612"
    },
    {
      "channel": 3,
      "note": 74,
      "start": 16.0985,
      "duration": 0.7,
      "velocity": 92,
      "chip": "ym2612"
    },
    {
      "channel": 4,
      "note": 72,
      "start": 16.099,
      "duration": 0.3497,
      "velocity": 92,
      "chip": "ym2612"
    },
    {
      "channel": 0,
      "note": 60,
      "start": 16.4474,
      "duration": 0.3499,
      "velocity": 73,
      "chip": "ym2612"
    },
    {
      "channel": 4,
      "note": 74,
      "start": 16.4487,
      "duration": 0.6999,
      "velocity": 92,
      "chip": "ym2612"
    },
    {
      "channel": 0,
      "note": 52,
      "start": 16.7974,
      "duration": 1.7499,
      "velocity": 73,
      "chip": "ym2612"
    },
    {
      "channel": 3,
      "note": 64,
      "start": 16.7984,
      "duration": 4.1997,
      "velocity": 92,
      "chip": "ym2612"
    },
    {
      "channel": 1,
      "note": 59,
      "start": 17.1476,
      "duration": 0.6999,
      "velocity": 73,
      "chip": "ym2612"
    },
    {
      "channel": 4,
      "note": 64,
      "start": 17.1487,
      "duration": 4.1995,
      "velocity": 92,
      "chip": "ym2612"
    },
    {
      "channel": 2,
      "note": 67,
      "start": 17.4978,
      "duration": 0.7,
      "velocity": 73,
      "chip": "ym2612"
    },
    {
      "channel": 1,
      "note": 66,
      "start": 17.8475,
      "duration": 1.4001,
      "velocity": 73,
      "chip": "ym2612"
    },
    {
      "channel": 2,
      "note": 74,
      "start": 18.1978,
      "duration": 1.4,
      "velocity": 73,
      "chip": "ym2612"
    },
    {
      "channel": 0,
      "note": 59,
      "start": 18.5473,
      "duration": 0.35,
      "velocity": 73,
      "chip": "ym2612"
    },
    {
      "channel": 0,
      "note": 52,
      "start": 18.8973,
      "duration": 1.75,
      "velocity": 73,
      "chip": "ym2612"
    },
    {
      "channel": 1,
      "note": 59,
      "start": 19.2476,
      "duration": 0.6999,
      "velocity": 73,
      "chip": "ym2612"
    },
    {
      "channel": 2,
      "note": 67,
      "start": 19.5978,
      "duration": 0.7,
      "velocity": 73,
      "chip": "ym2612"
    },
    {
      "channel": 1,
      "note": 66,
      "start": 19.9475,
      "duration": 1.4,
      "velocity": 73,
      "chip": "ym2612"
    },
    {
      "channel": 2,
      "note": 74,
      "start": 20.2978,
      "duration": 1.4,
      "velocity": 73,
      "chip": "ym2612"
    },
    {
      "channel": 0,
      "note": 59,
      "start": 20.6473,
      "duration": 0.3501,
      "velocity": 73,
      "chip": "ym2612"
    },
    {
      "channel": 0,
      "note": 50,
      "start": 20.9973,
      "duration": 1.75,
      "velocity": 73,
      "chip": "ym2612"
    },
    {
      "channel": 1,
      "note": 60,
      "start": 21.3476,
      "duration": 0.7001,
      "velocity": 73,
      "chip": "ym2612"
    },
    {
      "channel": 2,
      "note": 65,
      "start": 21.6979,
      "duration": 0.6999,
      "velocity": 73,
      "chip": "ym2612"
    },
    {
      "channel": 3,
      "note": 64,
      "start": 21.6984,
      "duration": 0.7,
      "velocity": 92,
      "chip": "ym2612"
    },
    {
      "channel": 1,
      "note": 64,
      "start": 22.0476,
      "duration": 1.4,
      "velocity": 73,
      "chip": "ym2612"
    },
    {
      "channel": 4,
      "note": 64,
      "start": 22.0487,
      "duration": 0.6999,
      "velocity": 92,
      "chip": "ym2612"
    },
    {
      "channel": 2,
      "note": 72,
      "start": 22.3979,
      "duration": 1.3999,
      "velocity": 73,
      "chip": "ym2612"
    },
    {
      "channel": 3,
      "note": 62,
      "start": 22.3984,
      "duration": 0.7,
      "velocity": 92,
      "chip": "ym2612"
    },
    {
      "channel": 0,
      "note": 60,
      "start": 22.7474,
      "duration": 0.3499,
      "velocity": 73,
      "chip": "ym2612"
    },
    {
      "channel": 4,
      "note": 62,
      "start": 22.7487,
      "duration": 0.6999,
      "velocity": 92,
      "chip": "ym2612"
    },
    {
      "channel": 0,
      "note": 55,
      "start": 23.0974,
      "duration": 1.7499,
      "velocity": 73,
      "chip": "ym2612"
    },
    {
      "channel": 3,
      "note": 64,
      "start": 23.0984,
      "duration": 1.05,
      "velocity": 92,
      "chip": "ym2612"
    },
    {
      "channel": 1,
      "note": 62,
      "start": 23.4476,
      "duration": 0.6999,
      "velocity": 73,
      "chip": "ym2612"
    },
    {
      "channel": 4,
      "note": 64,
      "start": 23.4487,
      "duration": 1.0502,
      "velocity": 92,
      "chip": "ym2612"
    },
    {
      "channel": 2,
      "note": 71,
      "start": 23.7978,
      "duration": 0.7001,
      "velocity": 73,
      "chip": "ym2612"
    },
    {
      "channel": 1,
      "note": 65,
      "start": 24.1476,
      "duration": 1.3999,
      "velocity": 73,
      "chip": "ym2612"
    },
    {
      "channel": 3,
      "note": 67,
      "start": 24.1484,
      "duration": 0.35,
      "velocity": 92,
      "chip": "ym2612"
    },
    {
      "channel": 2,
      "note": 74,
      "start": 24.4979,
      "duration": 1.3999,
      "velocity": 73,
      "chip": "ym2612"
    },
    {
      "channel": 3,
      "note": 71,
      "start": 24.4985,
      "duration": 1.4,
      "velocity": 92,
      "chip": "ym2612"
    },
    {
      "channel": 4,
      "note": 67,
      "start": 24.499,
      "duration": 0.3497,
      "velocity": 92,
      "chip": "ym2612"
    },
    {
      "channel": 0,
      "note": 62,
      "start": 24.8474,
      "duration": 0.3499,
      "velocity": 73,
      "chip": "ym2612"
    },
    {
      "channel": 4,
      "note": 71,
      "start": 24.8487,
      "duration": 1.3999,
      "velocity": 92,
      "chip": "ym2612"
    },
    {
      "channel": 0,
      "note": 48,
      "start": 25.1973,
      "duration": 1.7501,
      "velocity": 73,
      "chip": "ym2612"
    },
    {
      "channel": 1,
      "note": 55,
      "start": 25.5475,
      "duration": 0.7001,
      "velocity": 73,
      "chip": "ym2612"
    },
    {
      "channel": 2,
      "note": 71,
      "start": 25.8979,
      "duration": 0.6999,
      "velocity": 73,
      "chip": "ym2612"
    },
    {
      "channel": 3,
      "note": 74,
      "start": 25.8984,
      "duration": 0.7,
      "velocity": 92,
      "chip": "ym2612"
    },
    {
      "channel": 1,
      "note": 64,
      "start": 26.2476,
      "duration": 1.4,
      "velocity": 73,
      "chip": "ym2612"
    },
    {
      "channel": 4,
      "note": 74,
      "start": 26.2487,
      "duration": 0.6999,
      "velocity": 92,
      "chip": "ym2612"
    },
    {
      "channel": 2,
      "note": 76,
      "start": 26.5979,
      "duration": 1.3999,
      "velocity": 73,
      "chip": "ym2612"
    },
    {
      "channel": 3,
      "note": 67,
      "start": 26.5984,
      "duration": 0.7,
      "velocity": 92,
      "chip": "ym2612"
    },
    {
      "channel": 0,
      "note": 55,
      "start": 26.9474,
      "duration": 0.3499,
      "velocity": 73,
      "chip": "ym2612"
    },
    {
      "channel": 4,
      "note": 67,
      "start": 26.9487,
      "duration": 0.6999,
      "velocity": 92,
      "chip": "ym2612"
    },
    {
      "channel": 0,
      "note": 53,
      "start": 27.2974,
      "duration": 1.7499,
      "velocity": 73,
      "chip": "ym2612"
    },
    {
      "channel": 3,
      "note": 79,
      "start": 27.2984,
      "duration": 1.75,
      "velocity": 92,
      "chip": "ym2612"
    },
    {
      "channel": 1,
      "note": 60,
      "start": 27.6476,
      "duration": 0.6999,
      "velocity": 73,
      "chip": "ym2612"
    },
    {
      "channel": 4,
      "note": 79,
      "start": 27.6487,
      "duration": 1.7502,
      "velocity": 92,
      "chip": "ym2612"
    },
    {
      "channel": 2,
      "note": 69,
      "start": 27.9978,
      "duration": 0.7,
      "velocity": 73,
      "chip": "ym2612"
    },
    {
      "channel": 1,
      "note": 67,
      "start": 28.3475,
      "duration": 1.4001,
      "velocity": 73,
      "chip": "ym2612"
    },
    {
      "channel": 2,
      "note": 76,
      "start": 28.6978,
      "duration": 1.4,
      "velocity": 73,
      "chip": "ym2612"
    },
    {
      "channel": 0,
      "note": 60,
      "start": 29.0473,
      "duration": 0.3501,
      "velocity": 73,
      "chip": "ym2612"
    },
    {
      "channel": 3,
      "note": 76,
      "start": 29.0484,
      "duration": 0.35,
      "velocity": 92,
      "chip": "ym2612"
    },
    {
      "channel": 0,
      "note": 46,
      "start": 29.3974,
      "duration": 1.7499,
      "velocity": 73,
      "chip": "ym2612"
    },
    {
      "channel": 3,
      "note": 72,
      "start": 29.3985,
      "duration": 0.7,
      "velocity": 92,
      "chip": "ym2612"
    },
    {
      "channel": 4,
      "note": 76,
      "start": 29.399,
      "duration": 0.3497,
      "velocity": 92,
      "chip": "ym2612"
    },
    {
      "channel": 1,
      "note": 57,
      "start": 29.7476,
      "duration": 0.7,
      "velocity": 73,
      "chip": "ym2612"
    },
    {
      "channel": 4,
      "note": 72,
      "start": 29.7487,
      "duration": 0.7002,
      "velocity": 92,
      "chip": "ym2612"
    },
    {
      "channel": 2,
      "note": 69,
      "start": 30.0979,
      "duration": 0.7,
      "velocity": 73,
      "chip": "ym2612"
    },
    {
      "channel": 3,
      "note": 69,
      "start": 30.0984,
      "duration": 0.35,
      "velocity": 92,
      "chip": "ym2612"
    },
    {
      "channel": 1,
      "note": 62,
      "start": 30.4476,
      "duration": 1.3999,
      "velocity": 73,
      "chip": "ym2612"
    },
    {
      "channel": 3,
      "note": 74,
      "start": 30.4485,
      "duration": 2.8,
      "velocity": 92,
      "chip": "ym2612"
    },
    {
      "channel": 4,
      "note": 69,
      "start": 30.449,
      "duration": 0.3497,
      "velocity": 92,
      "chip": "ym2612"
    },
    {
      "channel": 2,
      "note": 74,
      "start": 30.7979,
      "duration": 1.3999,
      "velocity": 73,
      "chip": "ym2612"
    },
    {
      "channel": 4,
      "note": 74,
      "start": 30.7987,
      "duration": 2.8002,
      "velocity": 92,
      "chip": "ym2612"
    },
    {
      "channel": 0,
      "note": 62,
      "start": 31.1473,
      "duration": 0.35,
      "velocity": 73,
      "chip": "ym2612"
    },
    {
      "channel": 0,
      "note": 46,
      "start": 31.4973,
      "duration": 1.7501,
      "velocity": 73,
      "chip": "ym2612"
    },
    {
      "channel": 1,
      "note": 57,
      "start": 31.8475,
      "duration": 0.7,
      "velocity": 73,
      "chip": "ym2612"
    },
    {
      "channel": 2,
      "note": 69,
      "start": 32.1978,
      "duration": 0.7,
      "velocity": 73,
      "chip": "ym2612"
    },
    {
      "channel": 1,
      "note": 62,
      "start": 32.5475,
      "duration": 1.4001,
      "velocity": 73,
      "chip": "ym2612"
    },
    {
      "channel": 2,
      "note": 74,
      "start": 32.8978,
      "duration": 1.4,
      "velocity": 73,
      "chip": "ym2612"
    },
    {
      "channel": 0,
      "note": 62,
      "start": 33.2473,
      "duration": 0.3501,
      "velocity": 73,
      "chip": "ym2612"
    },
    {
      "channel": 3,
      "note": 76,
      "start": 33.2484,
      "duration": 0.35,
      "velocity": 92,
      "chip": "ym2612"
    },
    {
      "channel": 0,
      "note": 47,
      "start": 33.5974,
      "duration": 1.7499,
      "velocity": 73,
      "chip": "ym2612"
    },
    {
      "channel": 3,
      "note": 72,
      "start": 33.5985,
      "duration": 0.7,
      "velocity": 92,
      "chip": "ym2612"
    },
    {
      "channel": 4,
      "note": 76,
      "start": 33.599,
      "duration": 0.3497,
      "velocity": 92,
      "chip": "ym2612"
    },
    {
      "channel": 1,
      "note": 57,
      "start": 33.9476,
      "duration": 0.7,
      "velocity": 73,
      "chip": "ym2612"
    },
    {
      "channel": 4,
      "note": 72,
      "start": 33.9487,
      "duration": 0.7002,
      "velocity": 92,
      "chip": "ym2612"
    },
    {
      "channel": 2,
      "note": 65,
      "start": 34.2979,
      "duration": 0.7,
      "velocity": 73,
      "chip": "ym2612"
    },
    {
      "channel": 3,
      "note": 69,
      "start": 34.2984,
      "duration": 0.35,
      "velocity": 92,
      "chip": "ym2612"
    },
    {
      "channel": 1,
      "note": 62,
      "start": 34.6476,
      "duration": 1.3999,
      "velocity": 73,
      "chip": "ym2612"
    },
    {
      "channel": 3,
      "note": 74,
      "start": 34.6485,
      "duration": 3.15,
      "velocity": 92,
      "chip": "ym2612"
    },
    {
      "channel": 4,
      "note": 69,
      "start": 34.649,
      "duration": 0.3497,
      "velocity": 92,
      "chip": "ym2612"
    },
    {
      "channel": 2,
      "note": 69,
      "start": 34.9979,
      "duration": 1.3999,
      "velocity": 73,
      "chip": "ym2612"
    },
    {
      "channel": 4,
      "note": 74,
      "start": 34.9987,
      "duration": 3.1499,
      "velocity": 92,
      "chip": "ym2612"
    },
    {
      "channel": 0,
      "note": 74,
      "start": 35.3473,
      "duration": 0.35,
      "velocity": 73,
      "chip": "ym2612"
    },
    {
      "channel": 0,
      "note": 52,
      "start": 35.6973,
      "duration": 1.7501,
      "velocity": 73,
      "chip": "ym2612"
    },
    {
      "channel": 1,
      "note": 71,
      "start": 36.0475,
      "duration": 0.7001,
      "velocity": 73,
      "chip": "ym2612"
    },
    {
      "channel": 2,
      "note": 80,
      "start": 36.3978,
      "duration": 0.7,
      "velocity": 73,
      "chip": "ym2612"
    },
    {
      "channel": 1,
      "note": 72,
      "start": 36.7476,
      "duration": 1.4001,
      "velocity": 73,
      "chip": "ym2612"
    },
    {
      "channel": 2,
      "note": 74,
      "start": 37.0978,
      "duration": 1.4,
      "velocity": 73,
      "chip": "ym2612"
    },
    {
      "channel": 0,
      "note": 76,
      "start": 37.4473,
      "duration": 0.3501,
      "velocity": 73,
      "chip": "ym2612"
    },
    {
      "channel": 0,
      "note": 57,
      "start": 37.7974,
      "duration": 1.0434,
      "velocity": 73,
      "chip": "ym2612"
    },
    {
      "channel": 3,
      "note": 71,
      "start": 37.7985,
      "duration": 1.0424,
      "velocity": 92,
      "chip": "ym2612"
    },
    {
      "channel": 1,
      "note": 64,
      "start": 38.1476,
      "duration": 0.6932,
      "velocity": 73,
      "chip": "ym2612"
    },
    {
      "channel": 4,
      "note": 71,
      "start": 38.1487,
      "duration": 0.6921,
      "velocity": 92,
      "chip": "ym2612"
    },
    {
      "channel": 2,
      "note": 72,
      "start": 38.4978,
      "duration": 0.343,
      "velocity": 73,
      "chip": "ym2612"
    }
  ]
}