{
  "track_name": "13 - Dungeon 3, Post-Orc Village",
  "duration_sec": 64.799,
  "sample_rate": 44100,
  "note_count": 788,
  "unique_pitches": 44,
  "pitch_range": 46,
  "avg_note_duration": 0.2399,
  "reconstruction_stats": {
    "notes_reconstructed": 788,
    "keyon_events": 788,
    "keyoff_events": 750,
    "orphan_keyons": 2,
    "unique_pitches": 44,
    "pitch_range": 46,
    "avg_duration_sec": 0.2399
  },
  "metadata": {
    "source": "L\\Light Crusader\\13 - Dungeon 3, Post-Orc Village.vgz"
  },
  "notes": [
    {
      "channel": 0,
      "note": 53,
      "start": 0.0,
      "duration": 0.1814,
      "velocity": 90,
      "chip": "ym2612"
    },
    {
      "channel": 5,
      "note": 65,
      "start": 0.0,
      "duration": 0.1817,
      "velocity": 98,
      "chip": "ym2612"
    },
    {
      "channel": 0,
      "note": 61,
      "start": 0.1814,
      "duration": 0.1998,
      "velocity": 90,
      "chip": "ym2612"
    },
    {
      "channel": 5,
      "note": 73,
      "start": 0.182,
      "duration": 0.1998,
      "velocity": 98,
      "chip": "ym2612"
    },
    {
      "channel": 0,
      "note": 67,
      "start": 0.3815,
      "duration": 0.1999,
      "velocity": 90,
      "chip": "ym2612"
    },
    {
      "channel": 5,
      "note": 79,
      "start": 0.382,
      "duration": 0.2012,
      "velocity": 98,
      "chip": "ym2612"
    },
    {
      "channel": 0,
      "note": 69,
      "start": 0.5814,
      "duration": 0.2,
      "velocity": 90,
      "chip": "ym2612"
    },
    {
      "channel": 4,
      "note": 53,
      "start": 0.5832,
      "duration": 0.1987,
      "velocity": 90,
      "chip": "ym2612"
    },
    {
      "channel": 5,
      "note": 81,
      "start": 0.5834,
      "duration": 0.1985,
      "velocity": 98,
      "chip": "ym2612"
    },
    {
      "channel": 0,
      "note": 73,
      "start": 0.7814,
      "duration": 0.1998,
      "velocity": 90,
      "chip": "ym2612"
    },
    {
      "channel": 4,
      "note": 61,
      "start": 0.7819,
      "duration": 0.1999,
      "velocity": 90,
      "chip": "ym2612"
    },
    {
      "channel": 5,
      "note": 85,
      "start": 0.7822,
      "duration": 0.1999,
      "velocity": 98,
      "chip": "ym2612"
    },
    {
      "channel": 0,
      "note": 81,
      "start": 0.9815,
      "duration": 0.1998,
      "velocity": 90,
      "chip": "ym2612"
    },
    {
      "channel": 4,
      "note": 67,
      "start": 0.982,
      "duration": 0.1999,
      "velocity": 90,
      "chip": "ym2612"
    },
    {
      "channel": 5,
      "note": 93,
      "start": 0.9823,
      "duration": 0.1998,
      "velocity": 98,
      "chip": "ym2612"
    },
    {
      "channel": 0,
      "note": 80,
      "start": 1.1815,
      "duration": 0.0998,
      "velocity": 90,
      "chip": "ym2612"
    },
    {
      "channel": 4,
      "note": 69,
      "start": 1.182,
      "duration": 0.2,
      "velocity": 90,
      "chip": "ym2612"
    },
    {
      "channel": 5,
      "note": 92,
      "start": 1.1823,
      "duration": 0.0997,
      "velocity": 98,
      "chip": "ym2612"
    },
    {
      "channel": 0,
      "note": 81,
      "start": 1.2816,
      "duration": 0.0997,
      "velocity": 90,
      "chip": "ym2612"
    },
    {
      "channel": 5,
      "note": 93,
      "start": 1.2822,
      "duration": 0.0998,
      "velocity": 98,
      "chip": "ym2612"
    },
    {
      "channel": 0,
      "note": 80,
      "start": 1.3815,
      "duration": 0.0999,
      "velocity": 90,
      "chip": "ym2612"
    },
    {
      "channel": 4,
      "note": 73,
      "start": 1.382,
      "duration": 0.1998,
      "velocity": 90,
      "chip": "ym2612"
    },
    {
      "channel": 5,
      "note": 92,
      "start": 1.3822,
      "duration": 0.0997,
      "velocity": 98,
      "chip": "ym2612"
    },
    {
      "channel": 0,
      "note": 78,
      "start": 1.4814,
      "duration": 0.0998,
      "velocity": 90,
      "chip": "ym2612"
    },
    {
      "channel": 5,
      "note": 90,
      "start": 1.4821,
      "duration": 0.1,
      "velocity": 98,
      "chip": "ym2612"
    },
    {
      "channel": 0,
      "note": 80,
      "start": 1.5815,
      "duration": 0.6998,
      "velocity": 90,
      "chip": "ym2612"
    },
    {
      "channel": 4,
      "note": 81,
      "start": 1.582,
      "duration": 0.1996,
      "velocity": 90,
      "chip": "ym2612"
    },
    {
      "channel": 5,
      "note": 92,
      "start": 1.5823,
      "duration": 0.6995,
      "velocity": 98,
      "chip": "ym2612"
    },
    {
      "channel": 4,
      "note": 80,
      "start": 1.7818,
      "duration": 0.0998,
      "velocity": 90,
      "chip": "ym2612"
    },
    {
      "channel": 4,
      "note": 81,
      "start": 1.8818,
      "duration": 0.0998,
      "velocity": 90,
      "chip": "ym2612"
    },
    {
      "channel": 4,
      "note": 80,
      "start": 1.9818,
      "duration": 0.1,
      "velocity": 90,
      "chip": "ym2612"
    },
    {
      "channel": 4,
      "note": 78,
      "start": 2.0818,
      "duration": 0.0998,
      "velocity": 90,
      "chip": "ym2612"
    },
    {
      "channel": 4,
      "note": 80,
      "start": 2.1819,
      "duration": 0.6998,
      "velocity": 90,
      "chip": "ym2612"
    },
    {
      "channel": 0,
      "note": 79,
      "start": 2.2815,
      "duration": 1.3498,
      "velocity": 90,
      "chip": "ym2612"
    },
    {
      "channel": 5,
      "note": 91,
      "start": 2.2821,
      "duration": 1.3497,
      "velocity": 98,
      "chip": "ym2612"
    },
    {
      "channel": 4,
      "note": 79,
      "start": 2.8819,
      "duration": 1.3496,
      "velocity": 90,
      "chip": "ym2612"
    },
    {
      "channel": 0,
      "note": 75,
      "start": 4.6815,
      "duration": 0.1998,
      "velocity": 90,
      "chip": "ym2612"
    },
    {
      "channel": 5,
      "note": 87,
      "start": 4.6821,
      "duration": 0.2,
      "velocity": 98,
      "chip": "ym2612"
    },
    {
      "channel": 1,
      "note": 71,
      "start": 4.7817,
      "duration": 0.1997,
      "velocity": 92,
      "chip": "ym2612"
    },
    {
      "channel": 2,
      "note": 64,
      "start": 4.782,
      "duration": 0.1997,
      "velocity": 92,
      "chip": "ym2612"
    },
    {
      "channel": 3,
      "note": 62,
      "start": 4.7823,
      "duration": 0.1997,
      "velocity": 92,
      "chip": "ym2612"
    },
    {
      "channel": 0,
      "note": 74,
      "start": 4.8815,
      "duration": 0.1998,
      "velocity": 90,
      "chip": "ym2612"
    },
    {
      "channel": 5,
      "note": 86,
      "start": 4.8823,
      "duration": 0.1997,
      "velocity": 98,
      "chip": "ym2612"
    },
    {
      "channel": 1,
      "note": 71,
      "start": 4.9816,
      "duration": 0.1999,
      "velocity": 92,
      "chip": "ym2612"
    },
    {
      "channel": 2,
      "note": 64,
      "start": 4.982,
      "duration": 0.1999,
      "velocity": 92,
      "chip": "ym2612"
    },
    {
      "channel": 3,
      "note": 62,
      "start": 4.9822,
      "duration": 0.1999,
      "velocity": 92,
      "chip": "ym2612"
    },
    {
      "channel": 0,
      "note": 64,
      "start": 5.1815,
      "duration": 0.7998,
      "velocity": 90,
      "chip": "ym2612"
    },
    {
      "channel": 1,
      "note": 71,
      "start": 5.1818,
      "duration": 0.1995,
      "velocity": 92,
      "chip": "ym2612"
    },
    {
      "channel": 2,
      "note": 64,
      "start": 5.1821,
      "duration": 0.1995,
      "velocity": 92,
      "chip": "ym2612"
    },
    {
      "channel": 3,
      "note": 62,
      "start": 5.1824,
      "duration": 0.1994,
      "velocity": 92,
      "chip": "ym2612"
    },
    {
      "channel": 5,
      "note": 76,
      "start": 5.1828,
      "duration": 0.7998,
      "velocity": 98,
      "chip": "ym2612"
    },
    {
      "channel": 4,
      "note": 75,
      "start": 5.2821,
      "duration": 0.1995,
      "velocity": 90,
      "chip": "ym2612"
    },
    {
      "channel": 4,
      "note": 74,
      "start": 5.4817,
      "duration": 0.1998,
      "velocity": 90,
      "chip": "ym2612"
    },
    {
      "channel": 4,
      "note": 64,
      "start": 5.7819,
      "duration": 0.8,
      "velocity": 90,
      "chip": "ym2612"
    },
    {
      "channel": 1,
      "note": 71,
      "start": 5.9817,
      "duration": 0.1996,
      "velocity": 92,
      "chip": "ym2612"
    },
    {
      "channel": 2,
      "note": 64,
      "start": 5.9821,
      "duration": 0.1996,
      "velocity": 92,
      "chip": "ym2612"
    },
    {
      "channel": 3,
      "note": 62,
      "start": 5.9824,
      "duration": 0.1995,
      "velocity": 92,
      "chip": "ym2612"
    },
    {
      "channel": 1,
      "note": 71,
      "start": 6.1816,
      "duration": 0.1998,
      "velocity": 92,
      "chip": "ym2612"
    },
    {
      "channel": 2,
      "note": 64,
      "start": 6.1818,
      "duration": 0.1998,
      "velocity": 92,
      "chip": "ym2612"
    },
    {
      "channel": 3,
      "note": 62,
      "start": 6.1821,
      "duration": 0.1998,
      "velocity": 92,
      "chip": "ym2612"
    },
    {
      "channel": 1,
      "note": 71,
      "start": 6.3816,
      "duration": 0.1998,
      "velocity": 92,
      "chip": "ym2612"
    },
    {
      "channel": 2,
      "note": 64,
      "start": 6.3818,
      "duration": 0.1997,
      "velocity": 92,
      "chip": "ym2612"
    },
    {
      "channel": 3,
      "note": 62,
      "start": 6.3821,
      "duration": 0.1996,
      "velocity": 92,
      "chip": "ym2612"
    },
    {
      "channel": 0,
      "note": 70,
      "start": 6.8815,
      "duration": 0.5998,
      "velocity": 90,
      "chip": "ym2612"
    },
    {
      "channel": 5,
      "note": 82,
      "start": 6.882,
      "duration": 0.6003,
      "velocity": 98,
      "chip": "ym2612"
    },
    {
      "channel": 1,
      "note": 71,
      "start": 7.3817,
      "duration": 0.1998,
      "velocity": 92,
      "chip": "ym2612"
    },
    {
      "channel": 2,
      "note": 64,
      "start": 7.3821,
      "duration": 0.1998,
      "velocity": 92,
      "chip": "ym2612"
    },
    {
      "channel": 3,
      "note": 62,
      "start": 7.3823,
      "duration": 0.1997,
      "velocity": 92,
      "chip": "ym2612"
    },
    {
      "channel": 0,
      "note": 68,
      "start": 7.4815,
      "duration": 0.0999,
      "velocity": 90,
      "chip": "ym2612"
    },
    {
      "channel": 4,
      "note": 70,
      "start": 7.4823,
      "duration": 0.5996,
      "velocity": 90,
      "chip": "ym2612"
    },
    {
      "channel": 5,
      "note": 80,
      "start": 7.4826,
      "duration": 0.0999,
      "velocity": 98,
      "chip": "ym2612"
    },
    {
      "channel": 0,
      "note": 67,
      "start": 7.5814,
      "duration": 0.1001,
      "velocity": 90,
      "chip": "ym2612"
    },
    {
      "channel": 1,
      "note": 71,
      "start": 7.5817,
      "duration": 0.1998,
      "velocity": 92,
      "chip": "ym2612"
    },
    {
      "channel": 2,
      "note": 64,
      "start": 7.582,
      "duration": 0.1999,
      "velocity": 92,
      "chip": "ym2612"
    },
    {
      "channel": 3,
      "note": 62,
      "start": 7.5823,
      "duration": 0.1999,
      "velocity": 92,
      "chip": "ym2612"
    },
    {
      "channel": 5,
      "note": 79,
      "start": 7.5828,
      "duration": 0.0994,
      "velocity": 98,
      "chip": "ym2612"
    },
    {
      "channel": 0,
      "note": 65,
      "start": 7.6815,
      "duration": 0.0999,
      "velocity": 90,
      "chip": "ym2612"
    },
    {
      "channel": 5,
      "note": 77,
      "start": 7.6824,
      "duration": 0.1003,
      "velocity": 98,
      "chip": "ym2612"
    },
    {
      "channel": 0,
      "note": 55,
      "start": 7.7814,
      "duration": 1.1998,
      "velocity": 90,
      "chip": "ym2612"
    },
    {
      "channel": 1,
      "note": 71,
      "start": 7.7818,
      "duration": 0.1996,
      "velocity": 92,
      "chip": "ym2612"
    },
    {
      "channel": 2,
      "note": 64,
      "start": 7.7821,
      "duration": 0.1996,
      "velocity": 92,
      "chip": "ym2612"
    },
    {
      "channel": 3,
      "note": 62,
      "start": 7.7824,
      "duration": 0.1996,
      "velocity": 92,
      "chip": "ym2612"
    },
    {
      "channel": 5,
      "note": 67,
      "start": 7.7828,
      "duration": 1.199,
      "velocity": 98,
      "chip": "ym2612"
    },
    {
      "channel": 1,
      "note": 71,
      "start": 7.9816,
      "duration": 0.1998,
      "velocity": 92,
      "chip": "ym2612"
    },
    {
      "channel": 2,
      "note": 64,
      "start": 7.982,
      "duration": 0.1998,
      "velocity": 92,
      "chip": "ym2612"
    },
    {
      "channel": 3,
      "note": 62,
      "start": 7.9823,
      "duration": 0.1998,
      "velocity": 92,
      "chip": "ym2612"
    },
    {
      "channel": 4,
      "note": 68,
      "start": 8.0821,
      "duration": 0.1004,
      "velocity": 90,
      "chip": "ym2612"
    },
    {
      "channel": 1,
      "note": 71,
      "start": 8.1816,
      "duration": 0.1998,
      "velocity": 92,
      "chip": "ym2612"
    },
    {
      "channel": 2,
      "note": 64,
      "start": 8.182,
      "duration": 0.1997,
      "velocity": 92,
      "chip": "ym2612"
    },
    {
      "channel": 3,
      "note": 62,
      "start": 8.1823,
      "duration": 0.1995,
      "velocity": 92,
      "chip": "ym2612"
    },
    {
      "channel": 4,
      "note": 67,
      "start": 8.1825,
      "duration": 0.0995,
      "velocity": 90,
      "chip": "ym2612"
    },
    {
      "channel": 4,
      "note": 65,
      "start": 8.2821,
      "duration": 0.1001,
      "velocity": 90,
      "chip": "ym2612"
    },
    {
      "channel": 4,
      "note": 55,
      "start": 8.3822,
      "duration": 1.2001,
      "velocity": 90,
      "chip": "ym2612"
    },
    {
      "channel": 1,
      "note": 71,
      "start": 9.5817,
      "duration": 0.1996,
      "velocity": 92,
      "chip": "ym2612"
    },
    {
      "channel": 2,
      "note": 64,
      "start": 9.582,
      "duration": 0.1997,
      "velocity": 92,
      "chip": "ym2612"
    },
    {
      "channel": 3,
      "note": 62,
      "start": 9.5823,
      "duration": 0.1996,
      "velocity": 92,
      "chip": "ym2612"
    },
    {
      "channel": 1,
      "note": 71,
      "start": 9.7816,
      "duration": 0.1998,
      "velocity": 92,
      "chip": "ym2612"
    },
    {
      "channel": 2,
      "note": 64,
      "start": 9.7818,
      "duration": 0.1998,
      "velocity": 92,
      "chip": "ym2612"
    },
    {
      "channel": 3,
      "note": 62,
      "start": 9.7821,
      "duration": 0.1998,
      "velocity": 92,
      "chip": "ym2612"
    },
    {
      "channel": 1,
      "note": 71,
      "start": 9.9816,
      "duration": 0.1998,
      "velocity": 92,
      "chip": "ym2612"
    },
    {
      "channel": 2,
      "note": 64,
      "start": 9.9818,
      "duration": 0.1997,
      "velocity": 92,
      "chip": "ym2612"
    },
    {
      "channel": 3,
      "note": 62,
      "start": 9.9821,
      "duration": 0.1996,
      "velocity": 92,
      "chip": "ym2612"
    },
    {
      "channel": 1,
      "note": 71,
      "start": 10.7816,
      "duration": 0.1997,
      "velocity": 92,
      "chip": "ym2612"
    },
    {
      "channel": 2,
      "note": 64,
      "start": 10.782,
      "duration": 0.1997,
      "velocity": 92,
      "chip": "ym2612"
    },
    {
      "channel": 3,
      "note": 62,
      "start": 10.7823,
      "duration": 0.1996,
      "velocity": 92,
      "chip": "ym2612"
    },
    {
      "channel": 1,
      "note": 71,
      "start": 10.9816,
      "duration": 0.1998,
      "velocity": 92,
      "chip": "ym2612"
    },
    {
      "channel": 2,
      "note": 64,
      "start": 10.9818,
      "duration": 0.1998,
      "velocity": 92,
      "chip": "ym2612"
    },
    {
      "channel": 3,
      "note": 62,
      "start": 10.9821,
      "duration": 0.1998,
      "velocity": 92,
      "chip": "ym2612"
    },
    {
      "channel": 1,
      "note": 71,
      "start": 11.1816,
      "duration": 0.2,
      "velocity": 92,
      "chip": "ym2612"
    },
    {
      "channel": 2,
      "note": 64,
      "start": 11.1818,
      "duration": 0.1999,
      "velocity": 92,
      "chip": "ym2612"
    },
    {
      "channel": 3,
      "note": 62,
      "start": 11.1821,
      "duration": 0.1998,
      "velocity": 92,
      "chip": "ym2612"
    },
    {
      "channel": 0,
      "note": 54,
      "start": 11.3815,
      "duration": 0.1998,
      "velocity": 90,
      "chip": "ym2612"
    },
    {
      "channel": 5,
      "note": 66,
      "start": 11.3824,
      "duration": 0.1993,
      "velocity": 98,
      "chip": "ym2612"
    },
    {
      "channel": 0,
      "note": 66,
      "start": 11.5815,
      "duration": 0.1999,
      "velocity": 90,
      "chip": "ym2612"
    },
    {
      "channel": 5,
      "note": 78,
      "start": 11.582,
      "duration": 0.1997,
      "velocity": 98,
      "chip": "ym2612"
    },
    {
      "channel": 0,
      "note": 65,
      "start": 11.7814,
      "duration": 1.1998,
      "velocity": 90,
      "chip": "ym2612"
    },
    {
      "channel": 5,
      "note": 77,
      "start": 11.782,
      "duration": 1.2005,
      "velocity": 98,
      "chip": "ym2612"
    },
    {
      "channel": 4,
      "note": 54,
      "start": 11.9818,
      "duration": 0.2006,
      "velocity": 90,
      "chip": "ym2612"
    },
    {
      "channel": 1,
      "note": 71,
      "start": 12.1817,
      "duration": 0.1997,
      "velocity": 92,
      "chip": "ym2612"
    },
    {
      "channel": 2,
      "note": 64,
      "start": 12.1821,
      "duration": 0.1996,
      "velocity": 92,
      "chip": "ym2612"
    },
    {
      "channel": 3,
      "note": 62,
      "start": 12.1823,
      "duration": 0.1997,
      "velocity": 92,
      "chip": "ym2612"
    },
    {
      "channel": 4,
      "note": 66,
      "start": 12.1827,
      "duration": 0.1999,
      "velocity": 90,
      "chip": "ym2612"
    },
    {
      "channel": 1,
      "note": 71,
      "start": 12.3816,
      "duration": 0.1999,
      "velocity": 92,
      "chip": "ym2612"
    },
    {
      "channel": 2,
      "note": 64,
      "start": 12.382,
      "duration": 0.1998,
      "velocity": 92,
      "chip": "ym2612"
    },
    {
      "channel": 3,
      "note": 62,
      "start": 12.3823,
      "duration": 0.1998,
      "velocity": 92,
      "chip": "ym2612"
    },
    {
      "channel": 4,
      "note": 65,
      "start": 12.3825,
      "duration": 1.199,
      "velocity": 90,
      "chip": "ym2612"
    },
    {
      "channel": 1,
      "note": 71,
      "start": 12.5817,
      "duration": 0.1997,
      "velocity": 92,
      "chip": "ym2612"
    },
    {
      "channel": 2,
      "note": 64,
      "start": 12.582,
      "duration": 0.1997,
      "velocity": 92,
      "chip": "ym2612"
    },
    {
      "channel": 3,
      "note": 62,
      "start": 12.5823,
      "duration": 0.1997,
      "velocity": 92,
      "chip": "ym2612"
    },
    {
      "channel": 1,
      "note": 71,
      "start": 12.7816,
      "duration": 0.1998,
      "velocity": 92,
      "chip": "ym2612"
    },
    {
      "channel": 2,
      "note": 64,
      "start": 12.782,
      "duration": 0.1998,
      "velocity": 92,
      "chip": "ym2612"
    },
    {
      "channel": 3,
      "note": 62,
      "start": 12.7823,
      "duration": 0.1998,
      "velocity": 92,
      "chip": "ym2612"
    },
    {
      "channel": 1,
      "note": 71,
      "start": 12.9817,
      "duration": 0.1996,
      "velocity": 92,
      "chip": "ym2612"
    },
    {
      "channel": 2,
      "note": 64,
      "start": 12.982,
      "duration": 0.1995,
      "velocity": 92,
      "chip": "ym2612"
    },
    {
      "channel": 3,
      "note": 62,
      "start": 12.9823,
      "duration": 0.1994,
      "velocity": 92,
      "chip": "ym2612"
    },
    {
      "channel": 0,
      "note": 54,
      "start": 14.3815,
      "duration": 0.1998,
      "velocity": 90,
      "chip": "ym2612"
    },
    {
      "channel": 5,
      "note": 66,
      "start": 14.3824,
      "duration": 0.1996,
      "velocity": 98,
      "chip": "ym2612"
    },
    {
      "channel": 0,
      "note": 66,
      "start": 14.5815,
      "duration": 0.1998,
      "velocity": 90,
      "chip": "ym2612"
    },
    {
      "channel": 1,
      "note": 76,
      "start": 14.5819,
      "duration": 0.1997,
      "velocity": 92,
      "chip": "ym2612"
    },
    {
      "channel": 5,
      "note": 78,
      "start": 14.5823,
      "duration": 0.1997,
      "velocity": 98,
      "chip": "ym2612"
    },
    {
      "channel": 0,
      "note": 65,
      "start": 14.7815,
      "duration": 0.1998,
      "velocity": 90,
      "chip": "ym2612"
    },
    {
      "channel": 1,
      "note": 71,
      "start": 14.7817,
      "duration": 0.1998,
      "velocity": 92,
      "chip": "ym2612"
    },
    {
      "channel": 5,
      "note": 77,
      "start": 14.7823,
      "duration": 0.2001,
      "velocity": 98,
      "chip": "ym2612"
    },
    {
      "channel": 0,
      "note": 63,
      "start": 14.9815,
      "duration": 0.3998,
      "velocity": 90,
      "chip": "ym2612"
    },
    {
      "channel": 1,
      "note": 69,
      "start": 14.9818,
      "duration": 0.1997,
      "velocity": 92,
      "chip": "ym2612"
    },
    {
      "channel": 4,
      "note": 54,
      "start": 14.9823,
      "duration": 0.1996,
      "velocity": 90,
      "chip": "ym2612"
    },
    {
      "channel": 5,
      "note": 75,
      "start": 14.9825,
      "duration": 0.3998,
      "velocity": 98,
      "chip": "ym2612"
    },
    {
      "channel": 1,
      "note": 76,
      "start": 15.1817,
      "duration": 0.1999,
      "velocity": 92,
      "chip": "ym2612"
    },
    {
      "channel": 4,
      "note": 66,
      "start": 15.1821,
      "duration": 0.1999,
      "velocity": 90,
      "chip": "ym2612"
    },
    {
      "channel": 0,
      "note": 51,
      "start": 15.3815,
      "duration": 0.5998,
      "velocity": 90,
      "chip": "ym2612"
    },
    {
      "channel": 1,
      "note": 71,
      "start": 15.3818,
      "duration": 0.1995,
      "velocity": 92,
      "chip": "ym2612"
    },
    {
      "channel": 4,
      "note": 65,
      "start": 15.3822,
      "duration": 0.1996,
      "velocity": 90,
      "chip": "ym2612"
    },
    {
      "channel": 5,
      "note": 63,
      "start": 15.3825,
      "duration": 0.5998,
      "velocity": 98,
      "chip": "ym2612"
    },
    {
      "channel": 1,
      "note": 69,
      "start": 15.5816,
      "duration": 0.1999,
      "velocity": 92,
      "chip": "ym2612"
    },
    {
      "channel": 4,
      "note": 63,
      "start": 15.5821,
      "duration": 0.4,
      "velocity": 90,
      "chip": "ym2612"
    },
    {
      "channel": 1,
      "note": 76,
      "start": 15.7817,
      "duration": 0.1998,
      "velocity": 92,
      "chip": "ym2612"
    },
    {
      "channel": 0,
      "note": 58,
      "start": 15.9815,
      "duration": 0.3998,
      "velocity": 90,
      "chip": "ym2612"
    },
    {
      "channel": 1,
      "note": 71,
      "start": 15.9818,
      "duration": 0.1995,
      "velocity": 92,
      "chip": "ym2612"
    },
    {
      "channel": 4,
      "note": 51,
      "start": 15.9823,
      "duration": 0.5995,
      "velocity": 90,
      "chip": "ym2612"
    },
    {
      "channel": 5,
      "note": 70,
      "start": 15.9825,
      "duration": 0.3997,
      "velocity": 98,
      "chip": "ym2612"
    },
    {
      "channel": 1,
      "note": 69,
      "start": 16.1816,
      "duration": 0.2,
      "velocity": 92,
      "chip": "ym2612"
    },
    {
      "channel": 0,
      "note": 59,
      "start": 16.3815,
      "duration": 1.5998,
      "velocity": 90,
      "chip": "ym2612"
    },
    {
      "channel": 1,
      "note": 76,
      "start": 16.3819,
      "duration": 0.1995,
      "velocity": 92,
      "chip": "ym2612"
    },
    {
      "channel": 5,
      "note": 71,
      "start": 16.3824,
      "duration": 1.5996,
      "velocity": 98,
      "chip": "ym2612"
    },
    {
      "channel": 1,
      "note": 71,
      "start": 16.5816,
      "duration": 0.1998,
      "velocity": 92,
      "chip": "ym2612"
    },
    {
      "channel": 4,
      "note": 58,
      "start": 16.5821,
      "duration": 0.3999,
      "velocity": 90,
      "chip": "ym2612"
    },
    {
      "channel": 1,
      "note": 69,
      "start": 16.7816,
      "duration": 0.1999,
      "velocity": 92,
      "chip": "ym2612"
    },
    {
      "channel": 1,
      "note": 76,
      "start": 16.9817,
      "duration": 0.1997,
      "velocity": 92,
      "chip": "ym2612"
    },
    {
      "channel": 4,
      "note": 59,
      "start": 16.9821,
      "duration": 1.5996,
      "velocity": 90,
      "chip": "ym2612"
    },
    {
      "channel": 1,
      "note": 71,
      "start": 17.1816,
      "duration": 0.1998,
      "velocity": 92,
      "chip": "ym2612"
    },
    {
      "channel": 1,
      "note": 69,
      "start": 17.3816,
      "duration": 0.1999,
      "velocity": 92,
      "chip": "ym2612"
    },
    {
      "channel": 1,
      "note": 76,
      "start": 17.5817,
      "duration": 0.1997,
      "velocity": 92,
      "chip": "ym2612"
    },
    {
      "channel": 1,
      "note": 71,
      "start": 17.7816,
      "duration": 0.1998,
      "velocity": 92,
      "chip": "ym2612"
    },
    {
      "channel": 1,
      "note": 69,
      "start": 17.9817,
      "duration": 0.1997,
      "velocity": 92,
      "chip": "ym2612"
    },
    {
      "channel": 1,
      "note": 76,
      "start": 18.1816,
      "duration": 0.1997,
      "velocity": 92,
      "chip": "ym2612"
    },
    {
      "channel": 1,
      "note": 71,
      "start": 18.3816,
      "duration": 0.1998,
      "velocity": 92,
      "chip": "ym2612"
    },
    {
      "channel": 1,
      "note": 69,
      "start": 18.5816,
      "duration": 0.1998,
      "velocity": 92,
      "chip": "ym2612"
    },
    {
      "channel": 1,
      "note": 76,
      "start": 18.7816,
      "duration": 0.1997,
      "velocity": 92,
      "chip": "ym2612"
    },
    {
      "channel": 1,
      "note": 69,
      "start": 18.9816,
      "duration": 0.1998,
      "velocity": 92,
      "chip": "ym2612"
    },
    {
      "channel": 1,
      "note": 76,
      "start": 19.1816,
      "duration": 0.1997,
      "velocity": 92,
      "chip": "ym2612"
    },
    {
      "channel": 1,
      "note": 71,
      "start": 19.3816,
      "duration": 0.1999,
      "velocity": 92,
      "chip": "ym2612"
    },
    {
      "channel": 0,
      "note": 85,
      "start": 19.4815,
      "duration": 0.0999,
      "velocity": 90,
      "chip": "ym2612"
    },
    {
      "channel": 5,
      "note": 97,
      "start": 19.4821,
      "duration": 0.0999,
      "velocity": 98,
      "chip": "ym2612"
    },
    {
      "channel": 0,
      "note": 82,
      "start": 19.5814,
      "duration": 0.1,
      "velocity": 90,
      "chip": "ym2612"
    },
    {
      "channel": 1,
      "note": 69,
      "start": 19.5817,
      "duration": 0.1998,
      "velocity": 92,
      "chip": "ym2612"
    },
    {
      "channel": 5,
      "note": 94,
      "start": 19.5822,
      "duration": 0.0997,
      "velocity": 98,
      "chip": "ym2612"
    },
    {
      "channel": 0,
      "note": 79,
      "start": 19.6814,
      "duration": 0.1,
      "velocity": 90,
      "chip": "ym2612"
    },
    {
      "channel": 5,
      "note": 91,
      "start": 19.6821,
      "duration": 0.1,
      "velocity": 98,
      "chip": "ym2612"
    },
    {
      "channel": 0,
      "note": 74,
      "start": 19.7814,
      "duration": 1.1998,
      "velocity": 90,
      "chip": "ym2612"
    },
    {
      "channel": 1,
      "note": 76,
      "start": 19.7818,
      "duration": 0.1996,
      "velocity": 92,
      "chip": "ym2612"
    },
    {
      "channel": 5,
      "note": 86,
      "start": 19.7823,
      "duration": 1.1997,
      "velocity": 98,
      "chip": "ym2612"
    },
    {
      "channel": 1,
      "note": 71,
      "start": 19.9816,
      "duration": 0.1998,
      "velocity": 92,
      "chip": "ym2612"
    },
    {
      "channel": 4,
      "note": 85,
      "start": 20.082,
      "duration": 0.1001,
      "velocity": 90,
      "chip": "ym2612"
    },
    {
      "channel": 1,
      "note": 69,
      "start": 20.1816,
      "duration": 0.1999,
      "velocity": 92,
      "chip": "ym2612"
    },
    {
      "channel": 4,
      "note": 82,
      "start": 20.182,
      "duration": 0.0999,
      "velocity": 90,
      "chip": "ym2612"
    },
    {
      "channel": 4,
      "note": 79,
      "start": 20.2819,
      "duration": 0.1002,
      "velocity": 90,
      "chip": "ym2612"
    },
    {
      "channel": 1,
      "note": 76,
      "start": 20.3817,
      "duration": 0.1997,
      "velocity": 92,
      "chip": "ym2612"
    },
    {
      "channel": 4,
      "note": 74,
      "start": 20.3821,
      "duration": 1.2002,
      "velocity": 90,
      "chip": "ym2612"
    },
    {
      "channel": 1,
      "note": 71,
      "start": 20.5816,
      "duration": 0.1998,
      "velocity": 92,
      "chip": "ym2612"
    },
    {
      "channel": 1,
      "note": 69,
      "start": 20.7816,
      "duration": 0.1999,
      "velocity": 92,
      "chip": "ym2612"
    },
    {
      "channel": 1,
      "note": 76,
      "start": 20.9817,
      "duration": 0.1996,
      "velocity": 92,
      "chip": "ym2612"
    },
    {
      "channel": 1,
      "note": 71,
      "start": 21.1816,
      "duration": 0.1998,
      "velocity": 92,
      "chip": "ym2612"
    },
    {
      "channel": 1,
      "note": 69,
      "start": 21.3816,
      "duration": 0.1999,
      "velocity": 92,
      "chip": "ym2612"
    },
    {
      "channel": 0,
      "note": 72,
      "start": 21.4315,
      "duration": 0.2998,
      "velocity": 90,
      "chip": "ym2612"
    },
    {
      "channel": 5,
      "note": 84,
      "start": 21.4323,
      "duration": 0.2997,
      "velocity": 98,
      "chip": "ym2612"
    },
    {
      "channel": 1,
      "note": 64,
      "start": 21.5817,
      "duration": 0.1996,
      "velocity": 92,
      "chip": "ym2612"
    },
    {
      "channel": 2,
      "note": 59,
      "start": 21.582,
      "duration": 0.1996,
      "velocity": 92,
      "chip": "ym2612"
    },
    {
      "channel": 3,
      "note": 57,
      "start": 21.5823,
      "duration": 0.1995,
      "velocity": 92,
      "chip": "ym2612"
    },
    {
      "channel": 1,
      "note": 64,
      "start": 21.7815,
      "duration": 0.1998,
      "velocity": 92,
      "chip": "ym2612"
    },
    {
      "channel": 2,
      "note": 59,
      "start": 21.7818,
      "duration": 0.1998,
      "velocity": 92,
      "chip": "ym2612"
    },
    {
      "channel": 3,
      "note": 57,
      "start": 21.7821,
      "duration": 0.1998,
      "velocity": 92,
      "chip": "ym2612"
    },
    {
      "channel": 1,
      "note": 64,
      "start": 21.9815,
      "duration": 0.1998,
      "velocity": 92,
      "chip": "ym2612"
    },
    {
      "channel": 2,
      "note": 59,
      "start": 21.9818,
      "duration": 0.1997,
      "velocity": 92,
      "chip": "ym2612"
    },
    {
      "channel": 3,
      "note": 57,
      "start": 21.9821,
      "duration": 0.1996,
      "velocity": 92,
      "chip": "ym2612"
    },
    {
      "channel": 4,
      "note": 72,
      "start": 22.032,
      "duration": 0.2994,
      "velocity": 90,
      "chip": "ym2612"
    },
    {
      "channel": 0,
      "note": 57,
      "start": 22.7815,
      "duration": 0.2998,
      "velocity": 90,
      "chip": "ym2612"
    },
    {
      "channel": 5,
      "note": 69,
      "start": 22.7821,
      "duration": 0.2996,
      "velocity": 98,
      "chip": "ym2612"
    },
    {
      "channel": 0,
      "note": 60,
      "start": 23.2315,
      "duration": 0.1498,
      "velocity": 90,
      "chip": "ym2612"
    },
    {
      "channel": 5,
      "note": 72,
      "start": 23.2321,
      "duration": 0.1502,
      "velocity": 98,
      "chip": "ym2612"
    },
    {
      "channel": 1,
      "note": 71,
      "start": 23.3817,
      "duration": 0.1997,
      "velocity": 92,
      "chip": "ym2612"
    },
    {
      "channel": 4,
      "note": 57,
      "start": 23.3822,
      "duration": 0.2995,
      "velocity": 90,
      "chip": "ym2612"
    },
    {
      "channel": 0,
      "note": 63,
      "start": 23.5315,
      "duration": 0.2998,
      "velocity": 90,
      "chip": "ym2612"
    },
    {
      "channel": 5,
      "note": 75,
      "start": 23.5323,
      "duration": 0.2999,
      "velocity": 98,
      "chip": "ym2612"
    },
    {
      "channel": 1,
      "note": 71,
      "start": 23.5816,
      "duration": 0.1997,
      "velocity": 92,
      "chip": "ym2612"
    },
    {
      "channel": 1,
      "note": 71,
      "start": 23.7816,
      "duration": 0.1999,
      "velocity": 92,
      "chip": "ym2612"
    },
    {
      "channel": 0,
      "note": 68,
      "start": 23.8315,
      "duration": 0.5998,
      "velocity": 90,
      "chip": "ym2612"
    },
    {
      "channel": 4,
      "note": 60,
      "start": 23.8321,
      "duration": 0.1502,
      "velocity": 90,
      "chip": "ym2612"
    },
    {
      "channel": 5,
      "note": 80,
      "start": 23.8324,
      "duration": 0.5998,
      "velocity": 98,
      "chip": "ym2612"
    },
    {
      "channel": 1,
      "note": 71,
      "start": 23.9817,
      "duration": 0.1997,
      "velocity": 92,
      "chip": "ym2612"
    },
    {
      "channel": 2,
      "note": 69,
      "start": 23.982,
      "duration": 0.1997,
      "velocity": 92,
      "chip": "ym2612"
    },
    {
      "channel": 4,
      "note": 63,
      "start": 24.132,
      "duration": 0.2998,
      "velocity": 90,
      "chip": "ym2612"
    },
    {
      "channel": 1,
      "note": 71,
      "start": 24.1816,
      "duration": 0.1998,
      "velocity": 92,
      "chip": "ym2612"
    },
    {
      "channel": 2,
      "note": 69,
      "start": 24.182,
      "duration": 0.1998,
      "velocity": 92,
      "chip": "ym2612"
    },
    {
      "channel": 1,
      "note": 71,
      "start": 24.3816,
      "duration": 0.1997,
      "velocity": 92,
      "chip": "ym2612"
    },
    {
      "channel": 2,
      "note": 69,
      "start": 24.382,
      "duration": 0.1997,
      "velocity": 92,
      "chip": "ym2612"
    },
    {
      "channel": 4,
      "note": 68,
      "start": 24.4321,
      "duration": 0.5996,
      "velocity": 90,
      "chip": "ym2612"
    },
    {
      "channel": 1,
      "note": 71,
      "start": 24.5816,
      "duration": 0.1998,
      "velocity": 92,
      "chip": "ym2612"
    },
    {
      "channel": 2,
      "note": 68,
      "start": 24.5818,
      "duration": 0.1998,
      "velocity": 92,
      "chip": "ym2612"
    },
    {
      "channel": 1,
      "note": 71,
      "start": 24.7816,
      "duration": 0.1998,
      "velocity": 92,
      "chip": "ym2612"
    },
    {
      "channel": 2,
      "note": 68,
      "start": 24.7818,
      "duration": 0.1998,
      "velocity": 92,
      "chip": "ym2612"
    },
    {
      "channel": 1,
      "note": 71,
      "start": 24.9816,
      "duration": 0.1998,
      "velocity": 92,
      "chip": "ym2612"
    },
    {
      "channel": 2,
      "note": 68,
      "start": 24.9818,
      "duration": 0.1999,
      "velocity": 92,
      "chip": "ym2612"
    },
    {
      "channel": 1,
      "note": 71,
      "start": 25.1816,
      "duration": 0.1997,
      "velocity": 92,
      "chip": "ym2612"
    },
    {
      "channel": 2,
      "note": 66,
      "start": 25.1819,
      "duration": 0.1998,
      "velocity": 92,
      "chip": "ym2612"
    },
    {
      "channel": 1,
      "note": 71,
      "start": 25.3816,
      "duration": 0.1998,
      "velocity": 92,
      "chip": "ym2612"
    },
    {
      "channel": 2,
      "note": 66,
      "start": 25.3818,
      "duration": 0.1998,
      "velocity": 92,
      "chip": "ym2612"
    },
    {
      "channel": 1,
      "note": 71,
      "start": 25.5816,
      "duration": 0.1998,
      "velocity": 92,
      "chip": "ym2612"
    },
    {
      "channel": 2,
      "note": 66,
      "start": 25.5818,
      "duration": 0.1998,
      "velocity": 92,
      "chip": "ym2612"
    },
    {
      "channel": 1,
      "note": 71,
      "start": 25.7816,
      "duration": 0.1998,
      "velocity": 92,
      "chip": "ym2612"
    },
    {
      "channel": 2,
      "note": 64,
      "start": 25.7818,
      "duration": 0.1998,
      "velocity": 92,
      "chip": "ym2612"
    },
    {
      "channel": 1,
      "note": 71,
      "start": 25.9816,
      "duration": 0.1998,
      "velocity": 92,
      "chip": "ym2612"
    },
    {
      "channel": 2,
      "note": 64,
      "start": 25.9818,
      "duration": 0.1998,
      "velocity": 92,
      "chip": "ym2612"
    },
    {
      "channel": 1,
      "note": 71,
      "start": 26.1816,
      "duration": 0.1999,
      "velocity": 92,
      "chip": "ym2612"
    },
    {
      "channel": 2,
      "note": 64,
      "start": 26.1818,
      "duration": 0.1999,
      "velocity": 92,
      "chip": "ym2612"
    },
    {
      "channel": 1,
      "note": 71,
      "start": 26.3816,
      "duration": 0.1998,
      "velocity": 92,
      "chip": "ym2612"
    },
    {
      "channel": 2,
      "note": 63,
      "start": 26.382,
      "duration": 0.1998,
      "velocity": 92,
      "chip": "ym2612"
    },
    {
      "channel": 0,
      "note": 80,
      "start": 26.4315,
      "duration": 0.0999,
      "velocity": 90,
      "chip": "ym2612"
    },
    {
      "channel": 5,
      "note": 92,
      "start": 26.4322,
      "duration": 0.0999,
      "velocity": 98,
      "chip": "ym2612"
    },
    {
      "channel": 0,
      "note": 81,
      "start": 26.5314,
      "duration": 0.1998,
      "velocity": 90,
      "chip": "ym2612"
    },
    {
      "channel": 5,
      "note": 93,
      "start": 26.5323,
      "duration": 0.1996,
      "velocity": 98,
      "chip": "ym2612"
    },
    {
      "channel": 1,
      "note": 71,
      "start": 26.5816,
      "duration": 0.1997,
      "velocity": 92,
      "chip": "ym2612"
    },
    {
      "channel": 2,
      "note": 63,
      "start": 26.582,
      "duration": 0.1998,
      "velocity": 92,
      "chip": "ym2612"
    },
    {
      "channel": 0,
      "note": 80,
      "start": 26.7315,
      "duration": 0.1998,
      "velocity": 90,
      "chip": "ym2612"
    },
    {
      "channel": 5,
      "note": 92,
      "start": 26.7322,
      "duration": 0.1998,
      "velocity": 98,
      "chip": "ym2612"
    },
    {
      "channel": 1,
      "note": 71,
      "start": 26.7816,
      "duration": 0.1997,
      "velocity": 92,
      "chip": "ym2612"
    },
    {
      "channel": 2,
      "note": 63,
      "start": 26.782,
      "duration": 0.1998,
      "velocity": 92,
      "chip": "ym2612"
    },
    {
      "channel": 0,
      "note": 79,
      "start": 26.9315,
      "duration": 0.1998,
      "velocity": 90,
      "chip": "ym2612"
    },
    {
      "channel": 5,
      "note": 91,
      "start": 26.9322,
      "duration": 0.2,
      "velocity": 98,
      "chip": "ym2612"
    },
    {
      "channel": 1,
      "note": 71,
      "start": 26.9816,
      "duration": 0.1997,
      "velocity": 92,
      "chip": "ym2612"
    },
    {
      "channel": 2,
      "note": 62,
      "start": 26.982,
      "duration": 0.1998,
      "velocity": 92,
      "chip": "ym2612"
    },
    {
      "channel": 4,
      "note": 80,
      "start": 27.032,
      "duration": 0.1001,
      "velocity": 90,
      "chip": "ym2612"
    },
    {
      "channel": 0,
      "note": 76,
      "start": 27.1315,
      "duration": 0.1998,
      "velocity": 90,
      "chip": "ym2612"
    },
    {
      "channel": 4,
      "note": 81,
      "start": 27.1321,
      "duration": 0.1998,
      "velocity": 90,
      "chip": "ym2612"
    },
    {
      "channel": 5,
      "note": 88,
      "start": 27.1324,
      "duration": 0.1998,
      "velocity": 98,
      "chip": "ym2612"
    },
    {
      "channel": 1,
      "note": 71,
      "start": 27.1816,
      "duration": 0.1997,
      "velocity": 92,
      "chip": "ym2612"
    },
    {
      "channel": 2,
      "note": 62,
      "start": 27.182,
      "duration": 0.1998,
      "velocity": 92,
      "chip": "ym2612"
    },
    {
      "channel": 0,
      "note": 77,
      "start": 27.3315,
      "duration": 0.1998,
      "velocity": 90,
      "chip": "ym2612"
    },
    {
      "channel": 4,
      "note": 80,
      "start": 27.3321,
      "duration": 0.1998,
      "velocity": 90,
      "chip": "ym2612"
    },
    {
      "channel": 5,
      "note": 89,
      "start": 27.3324,
      "duration": 0.1998,
      "velocity": 98,
      "chip": "ym2612"
    },
    {
      "channel": 1,
      "note": 71,
      "start": 27.3816,
      "duration": 0.1999,
      "velocity": 92,
      "chip": "ym2612"
    },
    {
      "channel": 2,
      "note": 62,
      "start": 27.382,
      "duration": 0.1998,
      "velocity": 92,
      "chip": "ym2612"
    },
    {
      "channel": 0,
      "note": 68,
      "start": 27.5315,
      "duration": 0.1998,
      "velocity": 90,
      "chip": "ym2612"
    },
    {
      "channel": 4,
      "note": 79,
      "start": 27.5321,
      "duration": 0.1998,
      "velocity": 90,
      "chip": "ym2612"
    },
    {
      "channel": 5,
      "note": 80,
      "start": 27.5324,
      "duration": 0.1998,
      "velocity": 98,
      "chip": "ym2612"
    },
    {
      "channel": 1,
      "note": 71,
      "start": 27.5817,
      "duration": 0.1997,
      "velocity": 92,
      "chip": "ym2612"
    },
    {
      "channel": 2,
      "note": 63,
      "start": 27.582,
      "duration": 0.1997,
      "velocity": 92,
      "chip": "ym2612"
    },
    {
      "channel": 0,
      "note": 73,
      "start": 27.7315,
      "duration": 0.1998,
      "velocity": 90,
      "chip": "ym2612"
    },
    {
      "channel": 4,
      "note": 76,
      "start": 27.7321,
      "duration": 0.1998,
      "velocity": 90,
      "chip": "ym2612"
    },
    {
      "channel": 5,
      "note": 85,
      "start": 27.7324,
      "duration": 0.1998,
      "velocity": 98,
      "chip": "ym2612"
    },
    {
      "channel": 1,
      "note": 71,
      "start": 27.7816,
      "duration": 0.1997,
      "velocity": 92,
      "chip": "ym2612"
    },
    {
      "channel": 2,
      "note": 63,
      "start": 27.782,
      "duration": 0.1998,
      "velocity": 92,
      "chip": "ym2612"
    },
    {
      "channel": 0,
      "note": 77,
      "start": 27.9315,
      "duration": 0.1998,
      "velocity": 90,
      "chip": "ym2612"
    },
    {
      "channel": 4,
      "note": 77,
      "start": 27.9321,
      "duration": 0.1998,
      "velocity": 90,
      "chip": "ym2612"
    },
    {
      "channel": 5,
      "note": 89,
      "start": 27.9324,
      "duration": 0.1998,
      "velocity": 98,
      "chip": "ym2612"
    },
    {
      "channel": 1,
      "note": 71,
      "start": 27.9816,
      "duration": 0.1998,
      "velocity": 92,
      "chip": "ym2612"
    },
    {
      "channel": 2,
      "note": 63,
      "start": 27.982,
      "duration": 0.1998,
      "velocity": 92,
      "chip": "ym2612"
    },
    {
      "channel": 0,
      "note": 71,
      "start": 28.1315,
      "duration": 0.1998,
      "velocity": 90,
      "chip": "ym2612"
    },
    {
      "channel": 4,
      "note": 68,
      "start": 28.1321,
      "duration": 0.1997,
      "velocity": 90,
      "chip": "ym2612"
    },
    {
      "channel": 5,
      "note": 83,
      "start": 28.1324,
      "duration": 0.1997,
      "velocity": 98,
      "chip": "ym2612"
    },
    {
      "channel": 1,
      "note": 71,
      "start": 28.1816,
      "duration": 0.1997,
      "velocity": 92,
      "chip": "ym2612"
    },
    {
      "channel": 0,
      "note": 64,
      "start": 28.3315,
      "duration": 0.3998,
      "velocity": 90,
      "chip": "ym2612"
    },
    {
      "channel": 4,
      "note": 73,
      "start": 28.3321,
      "duration": 0.1996,
      "velocity": 90,
      "chip": "ym2612"
    },
    {
      "channel": 5,
      "note": 76,
      "start": 28.3324,
      "duration": 0.3998,
      "velocity": 98,
      "chip": "ym2612"
    },
    {
      "channel": 1,
      "note": 71,
      "start": 28.3816,
      "duration": 0.1997,
      "velocity": 92,
      "chip": "ym2612"
    },
    {
      "channel": 4,
      "note": 77,
      "start": 28.5319,
      "duration": 0.1999,
      "velocity": 90,
      "chip": "ym2612"
    },
    {
      "channel": 1,
      "note": 71,
      "start": 28.5816,
      "duration": 0.1999,
      "velocity": 92,
      "chip": "ym2612"
    },
    {
      "channel": 0,
      "note": 70,
      "start": 28.7315,
      "duration": 1.3998,
      "velocity": 90,
      "chip": "ym2612"
    },
    {
      "channel": 4,
      "note": 71,
      "start": 28.7321,
      "duration": 0.1997,
      "velocity": 90,
      "chip": "ym2612"
    },
    {
      "channel": 5,
      "note": 82,
      "start": 28.7324,
      "duration": 1.3996,
      "velocity": 98,
      "chip": "ym2612"
    },
    {
      "channel": 1,
      "note": 71,
      "start": 28.7817,
      "duration": 0.1996,
      "velocity": 92,
      "chip": "ym2612"
    },
    {
      "channel": 2,
      "note": 69,
      "start": 28.782,
      "duration": 0.1997,
      "velocity": 92,
      "chip": "ym2612"
    },
    {
      "channel": 4,
      "note": 64,
      "start": 28.932,
      "duration": 0.3997,
      "velocity": 90,
      "chip": "ym2612"
    },
    {
      "channel": 1,
      "note": 71,
      "start": 28.9816,
      "duration": 0.1998,
      "velocity": 92,
      "chip": "ym2612"
    },
    {
      "channel": 2,
      "note": 69,
      "start": 28.982,
      "duration": 0.1998,
      "velocity": 92,
      "chip": "ym2612"
    },
    {
      "channel": 1,
      "note": 71,
      "start": 29.1816,
      "duration": 0.1998,
      "velocity": 92,
      "chip": "ym2612"
    },
    {
      "channel": 2,
      "note": 69,
      "start": 29.182,
      "duration": 0.1998,
      "velocity": 92,
      "chip": "ym2612"
    },
    {
      "channel": 4,
      "note": 70,
      "start": 29.332,
      "duration": 1.3999,
      "velocity": 90,
      "chip": "ym2612"
    },
    {
      "channel": 1,
      "note": 71,
      "start": 29.3816,
      "duration": 0.1998,
      "velocity": 92,
      "chip": "ym2612"
    },
    {
      "channel": 2,
      "note": 68,
      "start": 29.382,
      "duration": 0.1998,
      "velocity": 92,
      "chip": "ym2612"
    },
    {
      "channel": 1,
      "note": 71,
      "start": 29.5816,
      "duration": 0.1998,
      "velocity": 92,
      "chip": "ym2612"
    },
    {
      "channel": 2,
      "note": 68,
      "start": 29.582,
      "duration": 0.1998,
      "velocity": 92,
      "chip": "ym2612"
    },
    {
      "channel": 1,
      "note": 71,
      "start": 29.7816,
      "duration": 0.1999,
      "velocity": 92,
      "chip": "ym2612"
    },
    {
      "channel": 2,
      "note": 68,
      "start": 29.782,
      "duration": 0.1998,
      "velocity": 92,
      "chip": "ym2612"
    },
    {
      "channel": 1,
      "note": 71,
      "start": 29.9817,
      "duration": 0.1996,
      "velocity": 92,
      "chip": "ym2612"
    },
    {
      "channel": 2,
      "note": 66,
      "start": 29.982,
      "duration": 0.1996,
      "velocity": 92,
      "chip": "ym2612"
    },
    {
      "channel": 1,
      "note": 71,
      "start": 30.1816,
      "duration": 0.1998,
      "velocity": 92,
      "chip": "ym2612"
    },
    {
      "channel": 2,
      "note": 66,
      "start": 30.1818,
      "duration": 0.1999,
      "velocity": 92,
      "chip": "ym2612"
    },
    {
      "channel": 0,
      "note": 51,
      "start": 30.2815,
      "duration": 0.2998,
      "velocity": 90,
      "chip": "ym2612"
    },
    {
      "channel": 5,
      "note": 63,
      "start": 30.2823,
      "duration": 0.3,
      "velocity": 98,
      "chip": "ym2612"
    },
    {
      "channel": 1,
      "note": 71,
      "start": 30.3816,
      "duration": 0.1999,
      "velocity": 92,
      "chip": "ym2612"
    },
    {
      "channel": 2,
      "note": 66,
      "start": 30.382,
      "duration": 0.1999,
      "velocity": 92,
      "chip": "ym2612"
    },
    {
      "channel": 0,
      "note": 65,
      "start": 30.5815,
      "duration": 0.1498,
      "velocity": 90,
      "chip": "ym2612"
    },
    {
      "channel": 1,
      "note": 71,
      "start": 30.5818,
      "duration": 0.1995,
      "velocity": 92,
      "chip": "ym2612"
    },
    {
      "channel": 2,
      "note": 64,
      "start": 30.5821,
      "duration": 0.1996,
      "velocity": 92,
      "chip": "ym2612"
    },
    {
      "channel": 5,
      "note": 77,
      "start": 30.5827,
      "duration": 0.1495,
      "velocity": 98,
      "chip": "ym2612"
    },
    {
      "channel": 0,
      "note": 60,
      "start": 30.7315,
      "duration": 0.2998,
      "velocity": 90,
      "chip": "ym2612"
    },
    {
      "channel": 5,
      "note": 72,
      "start": 30.7324,
      "duration": 0.2997,
      "velocity": 98,
      "chip": "ym2612"
    },
    {
      "channel": 1,
      "note": 71,
      "start": 30.7816,
      "duration": 0.1997,
      "velocity": 92,
      "chip": "ym2612"
    },
    {
      "channel": 2,
      "note": 64,
      "start": 30.782,
      "duration": 0.1998,
      "velocity": 92,
      "chip": "ym2612"
    },
    {
      "channel": 4,
      "note": 51,
      "start": 30.882,
      "duration": 0.3002,
      "velocity": 90,
      "chip": "ym2612"
    },
    {
      "channel": 1,
      "note": 71,
      "start": 30.9816,
      "duration": 0.1999,
      "velocity": 92,
      "chip": "ym2612"
    },
    {
      "channel": 2,
      "note": 64,
      "start": 30.982,
      "duration": 0.1999,
      "velocity": 92,
      "chip": "ym2612"
    },
    {
      "channel": 0,
      "note": 58,
      "start": 31.0315,
      "duration": 2.3998,
      "velocity": 90,
      "chip": "ym2612"
    },
    {
      "channel": 5,
      "note": 70,
      "start": 31.0323,
      "duration": 2.3995,
      "velocity": 98,
      "chip": "ym2612"
    },
    {
      "channel": 1,
      "note": 71,
      "start": 31.1817,
      "duration": 0.1996,
      "velocity": 92,
      "chip": "ym2612"
    },
    {
      "channel": 2,
      "note": 63,
      "start": 31.182,
      "duration": 0.1997,
      "velocity": 92,
      "chip": "ym2612"
    },
    {
      "channel": 4,
      "note": 65,
      "start": 31.1825,
      "duration": 0.1492,
      "velocity": 90,
      "chip": "ym2612"
    },
    {
      "channel": 4,
      "note": 60,
      "start": 31.332,
      "duration": 0.2997,
      "velocity": 90,
      "chip": "ym2612"
    },
    {
      "channel": 1,
      "note": 71,
      "start": 31.3816,
      "duration": 0.1998,
      "velocity": 92,
      "chip": "ym2612"
    },
    {
      "channel": 2,
      "note": 63,
      "start": 31.382,
      "duration": 0.1998,
      "velocity": 92,
      "chip": "ym2612"
    },
    {
      "channel": 1,
      "note": 71,
      "start": 31.5816,
      "duration": 0.1998,
      "velocity": 92,
      "chip": "ym2612"
    },
    {
      "channel": 2,
      "note": 63,
      "start": 31.582,
      "duration": 0.1998,
      "velocity": 92,
      "chip": "ym2612"
    },
    {
      "channel": 4,
      "note": 58,
      "start": 31.632,
      "duration": 2.3996,
      "velocity": 90,
      "chip": "ym2612"
    },
    {
      "channel": 1,
      "note": 71,
      "start": 31.7816,
      "duration": 0.1998,
      "velocity": 92,
      "chip": "ym2612"
    },
    {
      "channel": 2,
      "note": 62,
      "start": 31.782,
      "duration": 0.1998,
      "velocity": 92,
      "chip": "ym2612"
    },
    {
      "channel": 1,
      "note": 71,
      "start": 31.9816,
      "duration": 0.1998,
      "velocity": 92,
      "chip": "ym2612"
    },
    {
      "channel": 2,
      "note": 62,
      "start": 31.982,
      "duration": 0.1998,
      "velocity": 92,
      "chip": "ym2612"
    },
    {
      "channel": 1,
      "note": 71,
      "start": 32.1816,
      "duration": 0.1999,
      "velocity": 92,
      "chip": "ym2612"
    },
    {
      "channel": 2,
      "note": 62,
      "start": 32.182,
      "duration": 0.1998,
      "velocity": 92,
      "chip": "ym2612"
    },
    {
      "channel": 1,
      "note": 71,
      "start": 32.3817,
      "duration": 0.1997,
      "velocity": 92,
      "chip": "ym2612"
    },
    {
      "channel": 2,
      "note": 63,
      "start": 32.382,
      "duration": 0.1997,
      "velocity": 92,
      "chip": "ym2612"
    },
    {
      "channel": 1,
      "note": 71,
      "start": 32.5816,
      "duration": 0.1998,
      "velocity": 92,
      "chip": "ym2612"
    },
    {
      "channel": 2,
      "note": 63,
      "start": 32.582,
      "duration": 0.1998,
      "velocity": 92,
      "chip": "ym2612"
    },
    {
      "channel": 1,
      "note": 71,
      "start": 32.7816,
      "duration": 0.1998,
      "velocity": 92,
      "chip": "ym2612"
    },
    {
      "channel": 2,
      "note": 63,
      "start": 32.782,
      "duration": 0.1997,
      "velocity": 92,
      "chip": "ym2612"
    },
    {
      "channel": 0,
      "note": 54,
      "start": 33.5815,
      "duration": 0.1498,
      "velocity": 90,
      "chip": "ym2612"
    },
    {
      "channel": 5,
      "note": 66,
      "start": 33.5823,
      "duration": 0.1495,
      "velocity": 98,
      "chip": "ym2612"
    },
    {
      "channel": 0,
      "note": 54,
      "start": 33.8815,
      "duration": 0.1498,
      "velocity": 90,
      "chip": "ym2612"
    },
    {
      "channel": 5,
      "note": 66,
      "start": 33.8821,
      "duration": 0.1497,
      "velocity": 98,
      "chip": "ym2612"
    },
    {
      "channel": 4,
      "note": 54,
      "start": 34.1817,
      "duration": 0.1498,
      "velocity": 90,
      "chip": "ym2612"
    },
    {
      "channel": 0,
      "note": 54,
      "start": 34.4815,
      "duration": 0.1498,
      "velocity": 90,
      "chip": "ym2612"
    },
    {
      "channel": 4,
      "note": 54,
      "start": 34.482,
      "duration": 0.1496,
      "velocity": 90,
      "chip": "ym2612"
    },
    {
      "channel": 5,
      "note": 66,
      "start": 34.4823,
      "duration": 0.1495,
      "velocity": 98,
      "chip": "ym2612"
    },
    {
      "channel": 0,
      "note": 61,
      "start": 34.7815,
      "duration": 0.1498,
      "velocity": 90,
      "chip": "ym2612"
    },
    {
      "channel": 1,
      "note": 64,
      "start": 34.7819,
      "duration": 0.5994,
      "velocity": 92,
      "chip": "ym2612"
    },
    {
      "channel": 5,
      "note": 73,
      "start": 34.7823,
      "duration": 0.1494,
      "velocity": 98,
      "chip": "ym2612"
    },
    {
      "channel": 0,
      "note": 54,
      "start": 35.0815,
      "duration": 0.1498,
      "velocity": 90,
      "chip": "ym2612"
    },
    {
      "channel": 4,
      "note": 54,
      "start": 35.0821,
      "duration": 0.1497,
      "velocity": 90,
      "chip": "ym2612"
    },
    {
      "channel": 5,
      "note": 66,
      "start": 35.0824,
      "duration": 0.1496,
      "velocity": 98,
      "chip": "ym2612"
    },
    {
      "channel": 1,
      "note": 73,
      "start": 35.3816,
      "duration": 0.3,
      "velocity": 92,
      "chip": "ym2612"
    },
    {
      "channel": 2,
      "note": 66,
      "start": 35.3819,
      "duration": 0.2999,
      "velocity": 92,
      "chip": "ym2612"
    },
    {
      "channel": 4,
      "note": 61,
      "start": 35.3822,
      "duration": 0.1495,
      "velocity": 90,
      "chip": "ym2612"
    },
    {
      "channel": 0,
      "note": 54,
      "start": 35.6815,
      "duration": 0.1498,
      "velocity": 90,
      "chip": "ym2612"
    },
    {
      "channel": 4,
      "note": 54,
      "start": 35.6823,
      "duration": 0.1493,
      "velocity": 90,
      "chip": "ym2612"
    },
    {
      "channel": 5,
      "note": 66,
      "start": 35.6825,
      "duration": 0.1492,
      "velocity": 98,
      "chip": "ym2612"
    },
    {
      "channel": 0,
      "note": 59,
      "start": 35.9815,
      "duration": 0.1498,
      "velocity": 90,
      "chip": "ym2612"
    },
    {
      "channel": 5,
      "note": 71,
      "start": 35.9821,
      "duration": 0.1496,
      "velocity": 98,
      "chip": "ym2612"
    },
    {
      "channel": 0,
      "note": 54,
      "start": 36.2815,
      "duration": 0.1498,
      "velocity": 90,
      "chip": "ym2612"
    },
    {
      "channel": 4,
      "note": 54,
      "start": 36.282,
      "duration": 0.1497,
      "velocity": 90,
      "chip": "ym2612"
    },
    {
      "channel": 5,
      "note": 66,
      "start": 36.2823,
      "duration": 0.1495,
      "velocity": 98,
      "chip": "ym2612"
    },
    {
      "channel": 1,
      "note": 64,
      "start": 36.5816,
      "duration": 0.5999,
      "velocity": 92,
      "chip": "ym2612"
    },
    {
      "channel": 4,
      "note": 59,
      "start": 36.582,
      "duration": 0.1495,
      "velocity": 90,
      "chip": "ym2612"
    },
    {
      "channel": 0,
      "note": 54,
      "start": 36.8815,
      "duration": 0.1498,
      "velocity": 90,
      "chip": "ym2612"
    },
    {
      "channel": 4,
      "note": 54,
      "start": 36.8821,
      "duration": 0.1497,
      "velocity": 90,
      "chip": "ym2612"
    },
    {
      "channel": 5,
      "note": 66,
      "start": 36.8824,
      "duration": 0.1496,
      "velocity": 98,
      "chip": "ym2612"
    },
    {
      "channel": 0,
      "note": 61,
      "start": 37.1815,
      "duration": 0.1498,
      "velocity": 90,
      "chip": "ym2612"
    },
    {
      "channel": 1,
      "note": 73,
      "start": 37.1818,
      "duration": 0.2998,
      "velocity": 92,
      "chip": "ym2612"
    },
    {
      "channel": 2,
      "note": 66,
      "start": 37.1821,
      "duration": 0.2997,
      "velocity": 92,
      "chip": "ym2612"
    },
    {
      "channel": 5,
      "note": 73,
      "start": 37.1825,
      "duration": 0.1493,
      "velocity": 98,
      "chip": "ym2612"
    },
    {
      "channel": 0,
      "note": 54,
      "start": 37.4815,
      "duration": 0.1498,
      "velocity": 90,
      "chip": "ym2612"
    },
    {
      "channel": 4,
      "note": 54,
      "start": 37.4822,
      "duration": 0.1494,
      "velocity": 90,
      "chip": "ym2612"
    },
    {
      "channel": 5,
      "note": 66,
      "start": 37.4825,
      "duration": 0.1492,
      "velocity": 98,
      "chip": "ym2612"
    },
    {
      "channel": 4,
      "note": 61,
      "start": 37.7817,
      "duration": 0.1498,
      "velocity": 90,
      "chip": "ym2612"
    },
    {
      "channel": 0,
      "note": 54,
      "start": 38.0815,
      "duration": 0.1498,
      "velocity": 90,
      "chip": "ym2612"
    },
    {
      "channel": 4,
      "note": 54,
      "start": 38.082,
      "duration": 0.1496,
      "velocity": 90,
      "chip": "ym2612"
    },
    {
      "channel": 5,
      "note": 66,
      "start": 38.0823,
      "duration": 0.1495,
      "velocity": 98,
      "chip": "ym2612"
    },
    {
      "channel": 0,
      "note": 56,
      "start": 38.3815,
      "duration": 0.1498,
      "velocity": 90,
      "chip": "ym2612"
    },
    {
      "channel": 5,
      "note": 68,
      "start": 38.3821,
      "duration": 0.1495,
      "velocity": 98,
      "chip": "ym2612"
    },
    {
      "channel": 0,
      "note": 56,
      "start": 38.6815,
      "duration": 0.1498,
      "velocity": 90,
      "chip": "ym2612"
    },
    {
      "channel": 4,
      "note": 54,
      "start": 38.682,
      "duration": 0.1497,
      "velocity": 90,
      "chip": "ym2612"
    },
    {
      "channel": 5,
      "note": 68,
      "start": 38.6823,
      "duration": 0.1495,
      "velocity": 98,
      "chip": "ym2612"
    },
    {
      "channel": 1,
      "note": 64,
      "start": 38.9816,
      "duration": 0.5999,
      "velocity": 92,
      "chip": "ym2612"
    },
    {
      "channel": 4,
      "note": 56,
      "start": 38.982,
      "duration": 0.1495,
      "velocity": 90,
      "chip": "ym2612"
    },
    {
      "channel": 0,
      "note": 56,
      "start": 39.2815,
      "duration": 0.1498,
      "velocity": 90,
      "chip": "ym2612"
    },
    {
      "channel": 4,
      "note": 56,
      "start": 39.2821,
      "duration": 0.1497,
      "velocity": 90,
      "chip": "ym2612"
    },
    {
      "channel": 5,
      "note": 68,
      "start": 39.2824,
      "duration": 0.1496,
      "velocity": 98,
      "chip": "ym2612"
    },
    {
      "channel": 0,
      "note": 65,
      "start": 39.5815,
      "duration": 0.1498,
      "velocity": 90,
      "chip": "ym2612"
    },
    {
      "channel": 1,
      "note": 73,
      "start": 39.5818,
      "duration": 0.2998,
      "velocity": 92,
      "chip": "ym2612"
    },
    {
      "channel": 2,
      "note": 66,
      "start": 39.5821,
      "duration": 0.2997,
      "velocity": 92,
      "chip": "ym2612"
    },
    {
      "channel": 5,
      "note": 77,
      "start": 39.5825,
      "duration": 0.1493,
      "velocity": 98,
      "chip": "ym2612"
    },
    {
      "channel": 0,
      "note": 56,
      "start": 39.8815,
      "duration": 0.1498,
      "velocity": 90,
      "chip": "ym2612"
    },
    {
      "channel": 4,
      "note": 56,
      "start": 39.8822,
      "duration": 0.1494,
      "velocity": 90,
      "chip": "ym2612"
    },
    {
      "channel": 5,
      "note": 68,
      "start": 39.8825,
      "duration": 0.1492,
      "velocity": 98,
      "chip": "ym2612"
    },
    {
      "channel": 4,
      "note": 65,
      "start": 40.1817,
      "duration": 0.1498,
      "velocity": 90,
      "chip": "ym2612"
    },
    {
      "channel": 0,
      "note": 56,
      "start": 40.4815,
      "duration": 0.1498,
      "velocity": 90,
      "chip": "ym2612"
    },
    {
      "channel": 4,
      "note": 56,
      "start": 40.482,
      "duration": 0.1496,
      "velocity": 90,
      "chip": "ym2612"
    },
    {
      "channel": 5,
      "note": 68,
      "start": 40.4823,
      "duration": 0.1495,
      "velocity": 98,
      "chip": "ym2612"
    },
    {
      "channel": 0,
      "note": 66,
      "start": 40.7815,
      "duration": 0.1498,
      "velocity": 90,
      "chip": "ym2612"
    },
    {
      "channel": 5,
      "note": 78,
      "start": 40.7821,
      "duration": 0.1495,
      "velocity": 98,
      "chip": "ym2612"
    },
    {
      "channel": 0,
      "note": 56,
      "start": 41.0815,
      "duration": 0.1498,
      "velocity": 90,
      "chip": "ym2612"
    },
    {
      "channel": 4,
      "note": 56,
      "start": 41.082,
      "duration": 0.1497,
      "velocity": 90,
      "chip": "ym2612"
    },
    {
      "channel": 5,
      "note": 68,
      "start": 41.0823,
      "duration": 0.1495,
      "velocity": 98,
      "chip": "ym2612"
    },
    {
      "channel": 1,
      "note": 64,
      "start": 41.3816,
      "duration": 0.5999,
      "velocity": 92,
      "chip": "ym2612"
    },
    {
      "channel": 4,
      "note": 66,
      "start": 41.382,
      "duration": 0.1495,
      "velocity": 90,
      "chip": "ym2612"
    },
    {
      "channel": 0,
      "note": 56,
      "start": 41.6815,
      "duration": 0.1498,
      "velocity": 90,
      "chip": "ym2612"
    },
    {
      "channel": 4,
      "note": 56,
      "start": 41.6821,
      "duration": 0.1497,
      "velocity": 90,
      "chip": "ym2612"
    },
    {
      "channel": 5,
      "note": 68,
      "start": 41.6824,
      "duration": 0.1496,
      "velocity": 98,
      "chip": "ym2612"
    },
    {
      "channel": 0,
      "note": 63,
      "start": 41.9815,
      "duration": 0.1498,
      "velocity": 90,
      "chip": "ym2612"
    },
    {
      "channel": 1,
      "note": 73,
      "start": 41.9818,
      "duration": 0.2998,
      "velocity": 92,
      "chip": "ym2612"
    },
    {
      "channel": 2,
      "note": 66,
      "start": 41.9821,
      "duration": 0.2997,
      "velocity": 92,
      "chip": "ym2612"
    },
    {
      "channel": 5,
      "note": 75,
      "start": 41.9825,
      "duration": 0.1493,
      "velocity": 98,
      "chip": "ym2612"
    },
    {
      "channel": 0,
      "note": 56,
      "start": 42.2815,
      "duration": 0.1498,
      "velocity": 90,
      "chip": "ym2612"
    },
    {
      "channel": 4,
      "note": 56,
      "start": 42.2822,
      "duration": 0.1494,
      "velocity": 90,
      "chip": "ym2612"
    },
    {
      "channel": 5,
      "note": 68,
      "start": 42.2825,
      "duration": 0.1492,
      "velocity": 98,
      "chip": "ym2612"
    },
    {
      "channel": 4,
      "note": 63,
      "start": 42.5817,
      "duration": 0.1498,
      "velocity": 90,
      "chip": "ym2612"
    },
    {
      "channel": 0,
      "note": 56,
      "start": 42.8816,
      "duration": 0.1497,
      "velocity": 90,
      "chip": "ym2612"
    },
    {
      "channel": 4,
      "note": 56,
      "start": 42.8821,
      "duration": 0.1496,
      "velocity": 90,
      "chip": "ym2612"
    },
    {
      "channel": 5,
      "note": 68,
      "start": 42.8823,
      "duration": 0.1495,
      "velocity": 98,
      "chip": "ym2612"
    },
    {
      "channel": 0,
      "note": 54,
      "start": 43.1815,
      "duration": 0.1498,
      "velocity": 90,
      "chip": "ym2612"
    },
    {
      "channel": 3,
      "note": 61,
      "start": 43.183,
      "duration": 0.1485,
      "velocity": 98,
      "chip": "ym2612"
    },
    {
      "channel": 5,
      "note": 66,
      "start": 43.1833,
      "duration": 0.1484,
      "velocity": 98,
      "chip": "ym2612"
    },
    {
      "channel": 0,
      "note": 54,
      "start": 43.4815,
      "duration": 0.1498,
      "velocity": 90,
      "chip": "ym2612"
    },
    {
      "channel": 3,
      "note": 61,
      "start": 43.4819,
      "duration": 0.1497,
      "velocity": 98,
      "chip": "ym2612"
    },
    {
      "channel": 4,
      "note": 56,
      "start": 43.4822,
      "duration": 0.1495,
      "velocity": 90,
      "chip": "ym2612"
    },
    {
      "channel": 5,
      "note": 66,
      "start": 43.4825,
      "duration": 0.1494,
      "velocity": 98,
      "chip": "ym2612"
    },
    {
      "channel": 1,
      "note": 64,
      "start": 43.7816,
      "duration": 0.1497,
      "velocity": 92,
      "chip": "ym2612"
    },
    {
      "channel": 2,
      "note": 57,
      "start": 43.782,
      "duration": 0.1497,
      "velocity": 92,
      "chip": "ym2612"
    },
    {
      "channel": 4,
      "note": 54,
      "start": 43.7823,
      "duration": 0.1497,
      "velocity": 90,
      "chip": "ym2612"
    },
    {
      "channel": 1,
      "note": 66,
      "start": 43.9316,
      "duration": 0.15,
      "velocity": 92,
      "chip": "ym2612"
    },
    {
      "channel": 2,
      "note": 59,
      "start": 43.9318,
      "duration": 0.1501,
      "velocity": 92,
      "chip": "ym2612"
    },
    {
      "channel": 0,
      "note": 54,
      "start": 44.0815,
      "duration": 0.1498,
      "velocity": 90,
      "chip": "ym2612"
    },
    {
      "channel": 1,
      "note": 71,
      "start": 44.0818,
      "duration": 0.1496,
      "velocity": 92,
      "chip": "ym2612"
    },
    {
      "channel": 2,
      "note": 64,
      "start": 44.0821,
      "duration": 0.1496,
      "velocity": 92,
      "chip": "ym2612"
    },
    {
      "channel": 3,
      "note": 61,
      "start": 44.0824,
      "duration": 0.1496,
      "velocity": 98,
      "chip": "ym2612"
    },
    {
      "channel": 4,
      "note": 54,
      "start": 44.0827,
      "duration": 0.1495,
      "velocity": 90,
      "chip": "ym2612"
    },
    {
      "channel": 5,
      "note": 66,
      "start": 44.083,
      "duration": 0.1494,
      "velocity": 98,
      "chip": "ym2612"
    },
    {
      "channel": 1,
      "note": 66,
      "start": 44.2316,
      "duration": 0.1499,
      "velocity": 92,
      "chip": "ym2612"
    },
    {
      "channel": 2,
      "note": 59,
      "start": 44.232,
      "duration": 0.1499,
      "velocity": 92,
      "chip": "ym2612"
    },
    {
      "channel": 0,
      "note": 61,
      "start": 44.3815,
      "duration": 0.1498,
      "velocity": 90,
      "chip": "ym2612"
    },
    {
      "channel": 1,
      "note": 64,
      "start": 44.3817,
      "duration": 0.1497,
      "velocity": 92,
      "chip": "ym2612"
    },
    {
      "channel": 2,
      "note": 57,
      "start": 44.3821,
      "duration": 0.1496,
      "velocity": 92,
      "chip": "ym2612"
    },
    {
      "channel": 3,
      "note": 68,
      "start": 44.3824,
      "duration": 0.1496,
      "velocity": 98,
      "chip": "ym2612"
    },
    {
      "channel": 5,
      "note": 73,
      "start": 44.3827,
      "duration": 0.1496,
      "velocity": 98,
      "chip": "ym2612"
    },
    {
      "channel": 1,
      "note": 66,
      "start": 44.5316,
      "duration": 0.1499,
      "velocity": 92,
      "chip": "ym2612"
    },
    {
      "channel": 2,
      "note": 59,
      "start": 44.532,
      "duration": 0.1499,
      "velocity": 92,
      "chip": "ym2612"
    },
    {
      "channel": 0,
      "note": 54,
      "start": 44.6815,
      "duration": 0.1498,
      "velocity": 90,
      "chip": "ym2612"
    },
    {
      "channel": 1,
      "note": 71,
      "start": 44.6817,
      "duration": 0.1497,
      "velocity": 92,
      "chip": "ym2612"
    },
    {
      "channel": 2,
      "note": 64,
      "start": 44.6821,
      "duration": 0.1497,
      "velocity": 92,
      "chip": "ym2612"
    },
    {
      "channel": 3,
      "note": 61,
      "start": 44.6824,
      "duration": 0.1496,
      "velocity": 98,
      "chip": "ym2612"
    },
    {
      "channel": 4,
      "note": 54,
      "start": 44.6827,
      "duration": 0.1495,
      "velocity": 90,
      "chip": "ym2612"
    },
    {
      "channel": 5,
      "note": 66,
      "start": 44.683,
      "duration": 0.1494,
      "velocity": 98,
      "chip": "ym2612"
    },
    {
      "channel": 1,
      "note": 66,
      "start": 44.8317,
      "duration": 0.1497,
      "velocity": 92,
      "chip": "ym2612"
    },
    {
      "channel": 2,
      "note": 59,
      "start": 44.832,
      "duration": 0.1498,
      "velocity": 92,
      "chip": "ym2612"
    },
    {
      "channel": 1,
      "note": 64,
      "start": 44.9816,
      "duration": 0.1497,
      "velocity": 92,
      "chip": "ym2612"
    },
    {
      "channel": 2,
      "note": 57,
      "start": 44.9819,
      "duration": 0.1498,
      "velocity": 92,
      "chip": "ym2612"
    },
    {
      "channel": 4,
      "note": 61,
      "start": 44.9823,
      "duration": 0.1497,
      "velocity": 90,
      "chip": "ym2612"
    },
    {
      "channel": 1,
      "note": 66,
      "start": 45.1316,
      "duration": 0.15,
      "velocity": 92,
      "chip": "ym2612"
    },
    {
      "channel": 2,
      "note": 59,
      "start": 45.1318,
      "duration": 0.1501,
      "velocity": 92,
      "chip": "ym2612"
    },
    {
      "channel": 0,
      "note": 54,
      "start": 45.2815,
      "duration": 0.1498,
      "velocity": 90,
      "chip": "ym2612"
    },
    {
      "channel": 1,
      "note": 71,
      "start": 45.2818,
      "duration": 0.1496,
      "velocity": 92,
      "chip": "ym2612"
    },
    {
      "channel": 2,
      "note": 64,
      "start": 45.2821,
      "duration": 0.1496,
      "velocity": 92,
      "chip": "ym2612"
    },
    {
      "channel": 3,
      "note": 61,
      "start": 45.2824,
      "duration": 0.1496,
      "velocity": 98,
      "chip": "ym2612"
    },
    {
      "channel": 4,
      "note": 54,
      "start": 45.2827,
      "duration": 0.1495,
      "velocity": 90,
      "chip": "ym2612"
    },
    {
      "channel": 5,
      "note": 66,
      "start": 45.283,
      "duration": 0.1494,
      "velocity": 98,
      "chip": "ym2612"
    },
    {
      "channel": 1,
      "note": 66,
      "start": 45.4316,
      "duration": 0.1499,
      "velocity": 92,
      "chip": "ym2612"
    },
    {
      "channel": 2,
      "note": 59,
      "start": 45.432,
      "duration": 0.1499,
      "velocity": 92,
      "chip": "ym2612"
    },
    {
      "channel": 0,
      "note": 59,
      "start": 45.5815,
      "duration": 0.1498,
      "velocity": 90,
      "chip": "ym2612"
    },
    {
      "channel": 1,
      "note": 64,
      "start": 45.5817,
      "duration": 0.1497,
      "velocity": 92,
      "chip": "ym2612"
    },
    {
      "channel": 2,
      "note": 57,
      "start": 45.5821,
      "duration": 0.1496,
      "velocity": 92,
      "chip": "ym2612"
    },
    {
      "channel": 3,
      "note": 66,
      "start": 45.5824,
      "duration": 0.1496,
      "velocity": 98,
      "chip": "ym2612"
    },
    {
      "channel": 5,
      "note": 71,
      "start": 45.5827,
      "duration": 0.1496,
      "velocity": 98,
      "chip": "ym2612"
    },
    {
      "channel": 1,
      "note": 66,
      "start": 45.7316,
      "duration": 0.1499,
      "velocity": 92,
      "chip": "ym2612"
    },
    {
      "channel": 2,
      "note": 59,
      "start": 45.732,
      "duration": 0.1499,
      "velocity": 92,
      "chip": "ym2612"
    },
    {
      "channel": 0,
      "note": 54,
      "start": 45.8815,
      "duration": 0.1498,
      "velocity": 90,
      "chip": "ym2612"
    },
    {
      "channel": 1,
      "note": 71,
      "start": 45.8817,
      "duration": 0.1497,
      "velocity": 92,
      "chip": "ym2612"
    },
    {
      "channel": 2,
      "note": 64,
      "start": 45.8821,
      "duration": 0.1497,
      "velocity": 92,
      "chip": "ym2612"
    },
    {
      "channel": 3,
      "note": 61,
      "start": 45.8824,
      "duration": 0.1496,
      "velocity": 98,
      "chip": "ym2612"
    },
    {
      "channel": 4,
      "note": 54,
      "start": 45.8827,
      "duration": 0.1495,
      "velocity": 90,
      "chip": "ym2612"
    },
    {
      "channel": 5,
      "note": 66,
      "start": 45.883,
      "duration": 0.1494,
      "velocity": 98,
      "chip": "ym2612"
    },
    {
      "channel": 1,
      "note": 66,
      "start": 46.0317,
      "duration": 0.1497,
      "velocity": 92,
      "chip": "ym2612"
    },
    {
      "channel": 2,
      "note": 59,
      "start": 46.032,
      "duration": 0.1498,
      "velocity": 92,
      "chip": "ym2612"
    },
    {
      "channel": 1,
      "note": 64,
      "start": 46.1816,
      "duration": 0.1497,
      "velocity": 92,
      "chip": "ym2612"
    },
    {
      "channel": 2,
      "note": 57,
      "start": 46.1819,
      "duration": 0.1498,
      "velocity": 92,
      "chip": "ym2612"
    },
    {
      "channel": 4,
      "note": 59,
      "start": 46.1823,
      "duration": 0.1497,
      "velocity": 90,
      "chip": "ym2612"
    },
    {
      "channel": 1,
      "note": 66,
      "start": 46.3316,
      "duration": 0.15,
      "velocity": 92,
      "chip": "ym2612"
    },
    {
      "channel": 2,
      "note": 59,
      "start": 46.3318,
      "duration": 0.1501,
      "velocity": 92,
      "chip": "ym2612"
    },
    {
      "channel": 0,
      "note": 54,
      "start": 46.4815,
      "duration": 0.1498,
      "velocity": 90,
      "chip": "ym2612"
    },
    {
      "channel": 1,
      "note": 71,
      "start": 46.4818,
      "duration": 0.1496,
      "velocity": 92,
      "chip": "ym2612"
    },
    {
      "channel": 2,
      "note": 64,
      "start": 46.4821,
      "duration": 0.1496,
      "velocity": 92,
      "chip": "ym2612"
    },
    {
      "channel": 3,
      "note": 61,
      "start": 46.4824,
      "duration": 0.1496,
      "velocity": 98,
      "chip": "ym2612"
    },
    {
      "channel": 4,
      "note": 54,
      "start": 46.4827,
      "duration": 0.1495,
      "velocity": 90,
      "chip": "ym2612"
    },
    {
      "channel": 5,
      "note": 66,
      "start": 46.483,
      "duration": 0.1494,
      "velocity": 98,
      "chip": "ym2612"
    },
    {
      "channel": 1,
      "note": 66,
      "start": 46.6316,
      "duration": 0.1499,
      "velocity": 92,
      "chip": "ym2612"
    },
    {
      "channel": 2,
      "note": 59,
      "start": 46.632,
      "duration": 0.1499,
      "velocity": 92,
      "chip": "ym2612"
    },
    {
      "channel": 0,
      "note": 61,
      "start": 46.7815,
      "duration": 0.1498,
      "velocity": 90,
      "chip": "ym2612"
    },
    {
      "channel": 1,
      "note": 64,
      "start": 46.7817,
      "duration": 0.1497,
      "velocity": 92,
      "chip": "ym2612"
    },
    {
      "channel": 2,
      "note": 57,
      "start": 46.7821,
      "duration": 0.1496,
      "velocity": 92,
      "chip": "ym2612"
    },
    {
      "channel": 3,
      "note": 68,
      "start": 46.7824,
      "duration": 0.1496,
      "velocity": 98,
      "chip": "ym2612"
    },
    {
      "channel": 5,
      "note": 73,
      "start": 46.7827,
      "duration": 0.1496,
      "velocity": 98,
      "chip": "ym2612"
    },
    {
      "channel": 1,
      "note": 66,
      "start": 46.9316,
      "duration": 0.1499,
      "velocity": 92,
      "chip": "ym2612"
    },
    {
      "channel": 2,
      "note": 59,
      "start": 46.932,
      "duration": 0.1499,
      "velocity": 92,
      "chip": "ym2612"
    },
    {
      "channel": 0,
      "note": 54,
      "start": 47.0815,
      "duration": 0.1498,
      "velocity": 90,
      "chip": "ym2612"
    },
    {
      "channel": 1,
      "note": 71,
      "start": 47.0817,
      "duration": 0.1497,
      "velocity": 92,
      "chip": "ym2612"
    },
    {
      "channel": 2,
      "note": 64,
      "start": 47.0821,
      "duration": 0.1497,
      "velocity": 92,
      "chip": "ym2612"
    },
    {
      "channel": 3,
      "note": 61,
      "start": 47.0824,
      "duration": 0.1496,
      "velocity": 98,
      "chip": "ym2612"
    },
    {
      "channel": 4,
      "note": 54,
      "start": 47.0827,
      "duration": 0.1495,
      "velocity": 90,
      "chip": "ym2612"
    },
    {
      "channel": 5,
      "note": 66,
      "start": 47.083,
      "duration": 0.1494,
      "velocity": 98,
      "chip": "ym2612"
    },
    {
      "channel": 1,
      "note": 66,
      "start": 47.2317,
      "duration": 0.1497,
      "velocity": 92,
      "chip": "ym2612"
    },
    {
      "channel": 2,
      "note": 59,
      "start": 47.232,
      "duration": 0.1498,
      "velocity": 92,
      "chip": "ym2612"
    },
    {
      "channel": 1,
      "note": 64,
      "start": 47.3816,
      "duration": 0.1497,
      "velocity": 92,
      "chip": "ym2612"
    },
    {
      "channel": 2,
      "note": 57,
      "start": 47.3819,
      "duration": 0.1498,
      "velocity": 92,
      "chip": "ym2612"
    },
    {
      "channel": 4,
      "note": 61,
      "start": 47.3823,
      "duration": 0.1497,
      "velocity": 90,
      "chip": "ym2612"
    },
    {
      "channel": 1,
      "note": 66,
      "start": 47.5316,
      "duration": 0.15,
      "velocity": 92,
      "chip": "ym2612"
    },
    {
      "channel": 2,
      "note": 59,
      "start": 47.5318,
      "duration": 0.1501,
      "velocity": 92,
      "chip": "ym2612"
    },
    {
      "channel": 0,
      "note": 54,
      "start": 47.6815,
      "duration": 0.1498,
      "velocity": 90,
      "chip": "ym2612"
    },
    {
      "channel": 1,
      "note": 71,
      "start": 47.6818,
      "duration": 0.1496,
      "velocity": 92,
      "chip": "ym2612"
    },
    {
      "channel": 2,
      "note": 64,
      "start": 47.6821,
      "duration": 0.1496,
      "velocity": 92,
      "chip": "ym2612"
    },
    {
      "channel": 3,
      "note": 61,
      "start": 47.6824,
      "duration": 0.1496,
      "velocity": 98,
      "chip": "ym2612"
    },
    {
      "channel": 4,
      "note": 54,
      "start": 47.6827,
      "duration": 0.1495,
      "velocity": 90,
      "chip": "ym2612"
    },
    {
      "channel": 5,
      "note": 66,
      "start": 47.683,
      "duration": 0.1494,
      "velocity": 98,
      "chip": "ym2612"
    },
    {
      "channel": 1,
      "note": 66,
      "start": 47.8316,
      "duration": 0.15,
      "velocity": 92,
      "chip": "ym2612"
    },
    {
      "channel": 2,
      "note": 59,
      "start": 47.832,
      "duration": 0.1499,
      "velocity": 92,
      "chip": "ym2612"
    },
    {
      "channel": 0,
      "note": 58,
      "start": 47.9815,
      "duration": 0.1498,
      "velocity": 90,
      "chip": "ym2612"
    },
    {
      "channel": 1,
      "note": 64,
      "start": 47.9818,
      "duration": 0.1496,
      "velocity": 92,
      "chip": "ym2612"
    },
    {
      "channel": 2,
      "note": 57,
      "start": 47.9821,
      "duration": 0.1496,
      "velocity": 92,
      "chip": "ym2612"
    },
    {
      "channel": 3,
      "note": 65,
      "start": 47.9824,
      "duration": 0.1496,
      "velocity": 98,
      "chip": "ym2612"
    },
    {
      "channel": 5,
      "note": 70,
      "start": 47.9828,
      "duration": 0.1495,
      "velocity": 98,
      "chip": "ym2612"
    },
    {
      "channel": 1,
      "note": 66,
      "start": 48.1316,
      "duration": 0.1499,
      "velocity": 92,
      "chip": "ym2612"
    },
    {
      "channel": 2,
      "note": 59,
      "start": 48.132,
      "duration": 0.1499,
      "velocity": 92,
      "chip": "ym2612"
    },
    {
      "channel": 0,
      "note": 58,
      "start": 48.2815,
      "duration": 0.1498,
      "velocity": 90,
      "chip": "ym2612"
    },
    {
      "channel": 1,
      "note": 71,
      "start": 48.2817,
      "duration": 0.1497,
      "velocity": 92,
      "chip": "ym2612"
    },
    {
      "channel": 2,
      "note": 64,
      "start": 48.2821,
      "duration": 0.1497,
      "velocity": 92,
      "chip": "ym2612"
    },
    {
      "channel": 3,
      "note": 65,
      "start": 48.2824,
      "duration": 0.1496,
      "velocity": 98,
      "chip": "ym2612"
    },
    {
      "channel": 4,
      "note": 54,
      "start": 48.2827,
      "duration": 0.1495,
      "velocity": 90,
      "chip": "ym2612"
    },
    {
      "channel": 5,
      "note": 70,
      "start": 48.283,
      "duration": 0.1494,
      "velocity": 98,
      "chip": "ym2612"
    },
    {
      "channel": 1,
      "note": 66,
      "start": 48.4317,
      "duration": 0.1496,
      "velocity": 92,
      "chip": "ym2612"
    },
    {
      "channel": 2,
      "note": 59,
      "start": 48.432,
      "duration": 0.1497,
      "velocity": 92,
      "chip": "ym2612"
    },
    {
      "channel": 1,
      "note": 64,
      "start": 48.5815,
      "duration": 0.1498,
      "velocity": 92,
      "chip": "ym2612"
    },
    {
      "channel": 2,
      "note": 57,
      "start": 48.5818,
      "duration": 0.1498,
      "velocity": 92,
      "chip": "ym2612"
    },
    {
      "channel": 4,
      "note": 58,
      "start": 48.5822,
      "duration": 0.1498,
      "velocity": 90,
      "chip": "ym2612"
    },
    {
      "channel": 1,
      "note": 66,
      "start": 48.7316,
      "duration": 0.15,
      "velocity": 92,
      "chip": "ym2612"
    },
    {
      "channel": 2,
      "note": 59,
      "start": 48.7318,
      "duration": 0.1501,
      "velocity": 92,
      "chip": "ym2612"
    },
    {
      "channel": 0,
      "note": 58,
      "start": 48.8815,
      "duration": 0.1498,
      "velocity": 90,
      "chip": "ym2612"
    },
    {
      "channel": 1,
      "note": 71,
      "start": 48.8818,
      "duration": 0.1496,
      "velocity": 92,
      "chip": "ym2612"
    },
    {
      "channel": 2,
      "note": 64,
      "start": 48.8821,
      "duration": 0.1496,
      "velocity": 92,
      "chip": "ym2612"
    },
    {
      "channel": 3,
      "note": 65,
      "start": 48.8824,
      "duration": 0.1496,
      "velocity": 98,
      "chip": "ym2612"
    },
    {
      "channel": 4,
      "note": 58,
      "start": 48.8827,
      "duration": 0.1495,
      "velocity": 90,
      "chip": "ym2612"
    },
    {
      "channel": 5,
      "note": 70,
      "start": 48.883,
      "duration": 0.1494,
      "velocity": 98,
      "chip": "ym2612"
    },
    {
      "channel": 1,
      "note": 66,
      "start": 49.0316,
      "duration": 0.15,
      "velocity": 92,
      "chip": "ym2612"
    },
    {
      "channel": 2,
      "note": 59,
      "start": 49.032,
      "duration": 0.1499,
      "velocity": 92,
      "chip": "ym2612"
    },
    {
      "channel": 0,
      "note": 68,
      "start": 49.1815,
      "duration": 0.1498,
      "velocity": 90,
      "chip": "ym2612"
    },
    {
      "channel": 1,
      "note": 64,
      "start": 49.1818,
      "duration": 0.1496,
      "velocity": 92,
      "chip": "ym2612"
    },
    {
      "channel": 2,
      "note": 57,
      "start": 49.1821,
      "duration": 0.1496,
      "velocity": 92,
      "chip": "ym2612"
    },
    {
      "channel": 3,
      "note": 75,
      "start": 49.1824,
      "duration": 0.1496,
      "velocity": 98,
      "chip": "ym2612"
    },
    {
      "channel": 5,
      "note": 80,
      "start": 49.1828,
      "duration": 0.1495,
      "velocity": 98,
      "chip": "ym2612"
    },
    {
      "channel": 1,
      "note": 66,
      "start": 49.3316,
      "duration": 0.1499,
      "velocity": 92,
      "chip": "ym2612"
    },
    {
      "channel": 2,
      "note": 59,
      "start": 49.332,
      "duration": 0.1499,
      "velocity": 92,
      "chip": "ym2612"
    },
    {
      "channel": 0,
      "note": 58,
      "start": 49.4815,
      "duration": 0.1498,
      "velocity": 90,
      "chip": "ym2612"
    },
    {
      "channel": 1,
      "note": 71,
      "start": 49.4817,
      "duration": 0.1497,
      "velocity": 92,
      "chip": "ym2612"
    },
    {
      "channel": 2,
      "note": 64,
      "start": 49.4821,
      "duration": 0.1497,
      "velocity": 92,
      "chip": "ym2612"
    },
    {
      "channel": 3,
      "note": 65,
      "start": 49.4824,
      "duration": 0.1496,
      "velocity": 98,
      "chip": "ym2612"
    },
    {
      "channel": 4,
      "note": 58,
      "start": 49.4827,
      "duration": 0.1495,
      "velocity": 90,
      "chip": "ym2612"
    },
    {
      "channel": 5,
      "note": 70,
      "start": 49.483,
      "duration": 0.1494,
      "velocity": 98,
      "chip": "ym2612"
    },
    {
      "channel": 1,
      "note": 66,
      "start": 49.6317,
      "duration": 0.1496,
      "velocity": 92,
      "chip": "ym2612"
    },
    {
      "channel": 2,
      "note": 59,
      "start": 49.632,
      "duration": 0.1497,
      "velocity": 92,
      "chip": "ym2612"
    },
    {
      "channel": 1,
      "note": 64,
      "start": 49.7816,
      "duration": 0.1498,
      "velocity": 92,
      "chip": "ym2612"
    },
    {
      "channel": 2,
      "note": 57,
      "start": 49.7818,
      "duration": 0.1498,
      "velocity": 92,
      "chip": "ym2612"
    },
    {
      "channel": 4,
      "note": 68,
      "start": 49.7822,
      "duration": 0.1498,
      "velocity": 90,
      "chip": "ym2612"
    },
    {
      "channel": 1,
      "note": 66,
      "start": 49.9316,
      "duration": 0.15,
      "velocity": 92,
      "chip": "ym2612"
    },
    {
      "channel": 2,
      "note": 59,
      "start": 49.9318,
      "duration": 0.1501,
      "velocity": 92,
      "chip": "ym2612"
    },
    {
      "channel": 0,
      "note": 58,
      "start": 50.0815,
      "duration": 0.1498,
      "velocity": 90,
      "chip": "ym2612"
    },
    {
      "channel": 1,
      "note": 71,
      "start": 50.0818,
      "duration": 0.1496,
      "velocity": 92,
      "chip": "ym2612"
    },
    {
      "channel": 2,
      "note": 64,
      "start": 50.0821,
      "duration": 0.1497,
      "velocity": 92,
      "chip": "ym2612"
    },
    {
      "channel": 3,
      "note": 65,
      "start": 50.0824,
      "duration": 0.1496,
      "velocity": 98,
      "chip": "ym2612"
    },
    {
      "channel": 4,
      "note": 58,
      "start": 50.0827,
      "duration": 0.1495,
      "velocity": 90,
      "chip": "ym2612"
    },
    {
      "channel": 5,
      "note": 70,
      "start": 50.083,
      "duration": 0.1494,
      "velocity": 98,
      "chip": "ym2612"
    },
    {
      "channel": 1,
      "note": 66,
      "start": 50.2317,
      "duration": 0.1499,
      "velocity": 92,
      "chip": "ym2612"
    },
    {
      "channel": 2,
      "note": 59,
      "start": 50.232,
      "duration": 0.1499,
      "velocity": 92,
      "chip": "ym2612"
    },
    {
      "channel": 0,
      "note": 62,
      "start": 50.3815,
      "duration": 0.1498,
      "velocity": 90,
      "chip": "ym2612"
    },
    {
      "channel": 1,
      "note": 64,
      "start": 50.3818,
      "duration": 0.1496,
      "velocity": 92,
      "chip": "ym2612"
    },
    {
      "channel": 2,
      "note": 57,
      "start": 50.3821,
      "duration": 0.1496,
      "velocity": 92,
      "chip": "ym2612"
    },
    {
      "channel": 3,
      "note": 69,
      "start": 50.3824,
      "duration": 0.1496,
      "velocity": 98,
      "chip": "ym2612"
    },
    {
      "channel": 5,
      "note": 74,
      "start": 50.3828,
      "duration": 0.1495,
      "velocity": 98,
      "chip": "ym2612"
    },
    {
      "channel": 1,
      "note": 66,
      "start": 50.5316,
      "duration": 0.1499,
      "velocity": 92,
      "chip": "ym2612"
    },
    {
      "channel": 2,
      "note": 59,
      "start": 50.532,
      "duration": 0.1499,
      "velocity": 92,
      "chip": "ym2612"
    },
    {
      "channel": 0,
      "note": 58,
      "start": 50.6815,
      "duration": 0.1498,
      "velocity": 90,
      "chip": "ym2612"
    },
    {
      "channel": 1,
      "note": 71,
      "start": 50.6817,
      "duration": 0.1497,
      "velocity": 92,
      "chip": "ym2612"
    },
    {
      "channel": 2,
      "note": 64,
      "start": 50.6821,
      "duration": 0.1497,
      "velocity": 92,
      "chip": "ym2612"
    },
    {
      "channel": 3,
      "note": 65,
      "start": 50.6824,
      "duration": 0.1496,
      "velocity": 98,
      "chip": "ym2612"
    },
    {
      "channel": 4,
      "note": 58,
      "start": 50.6827,
      "duration": 0.1495,
      "velocity": 90,
      "chip": "ym2612"
    },
    {
      "channel": 5,
      "note": 70,
      "start": 50.683,
      "duration": 0.1494,
      "velocity": 98,
      "chip": "ym2612"
    },
    {
      "channel": 1,
      "note": 66,
      "start": 50.8317,
      "duration": 0.1496,
      "velocity": 92,
      "chip": "ym2612"
    },
    {
      "channel": 2,
      "note": 59,
      "start": 50.832,
      "duration": 0.1497,
      "velocity": 92,
      "chip": "ym2612"
    },
    {
      "channel": 1,
      "note": 64,
      "start": 50.9816,
      "duration": 0.1498,
      "velocity": 92,
      "chip": "ym2612"
    },
    {
      "channel": 2,
      "note": 57,
      "start": 50.9818,
      "duration": 0.1498,
      "velocity": 92,
      "chip": "ym2612"
    },
    {
      "channel": 4,
      "note": 62,
      "start": 50.9822,
      "duration": 0.1498,
      "velocity": 90,
      "chip": "ym2612"
    },
    {
      "channel": 1,
      "note": 66,
      "start": 51.1316,
      "duration": 0.15,
      "velocity": 92,
      "chip": "ym2612"
    },
    {
      "channel": 2,
      "note": 59,
      "start": 51.1318,
      "duration": 0.1501,
      "velocity": 92,
      "chip": "ym2612"
    },
    {
      "channel": 0,
      "note": 58,
      "start": 51.2815,
      "duration": 0.1498,
      "velocity": 90,
      "chip": "ym2612"
    },
    {
      "channel": 1,
      "note": 71,
      "start": 51.2818,
      "duration": 0.1496,
      "velocity": 92,
      "chip": "ym2612"
    },
    {
      "channel": 2,
      "note": 64,
      "start": 51.2821,
      "duration": 0.1496,
      "velocity": 92,
      "chip": "ym2612"
    },
    {
      "channel": 3,
      "note": 65,
      "start": 51.2824,
      "duration": 0.1496,
      "velocity": 98,
      "chip": "ym2612"
    },
    {
      "channel": 4,
      "note": 58,
      "start": 51.2827,
      "duration": 0.1495,
      "velocity": 90,
      "chip": "ym2612"
    },
    {
      "channel": 5,
      "note": 70,
      "start": 51.283,
      "duration": 0.1494,
      "velocity": 98,
      "chip": "ym2612"
    },
    {
      "channel": 1,
      "note": 66,
      "start": 51.4316,
      "duration": 0.15,
      "velocity": 92,
      "chip": "ym2612"
    },
    {
      "channel": 2,
      "note": 59,
      "start": 51.432,
      "duration": 0.1499,
      "velocity": 92,
      "chip": "ym2612"
    },
    {
      "channel": 0,
      "note": 70,
      "start": 51.5815,
      "duration": 0.1498,
      "velocity": 90,
      "chip": "ym2612"
    },
    {
      "channel": 1,
      "note": 64,
      "start": 51.5818,
      "duration": 0.1496,
      "velocity": 92,
      "chip": "ym2612"
    },
    {
      "channel": 2,
      "note": 57,
      "start": 51.5821,
      "duration": 0.1496,
      "velocity": 92,
      "chip": "ym2612"
    },
    {
      "channel": 3,
      "note": 77,
      "start": 51.5824,
      "duration": 0.1496,
      "velocity": 98,
      "chip": "ym2612"
    },
    {
      "channel": 5,
      "note": 82,
      "start": 51.5828,
      "duration": 0.1495,
      "velocity": 98,
      "chip": "ym2612"
    },
    {
      "channel": 1,
      "note": 66,
      "start": 51.7317,
      "duration": 0.1499,
      "velocity": 92,
      "chip": "ym2612"
    },
    {
      "channel": 2,
      "note": 59,
      "start": 51.732,
      "duration": 0.1499,
      "velocity": 92,
      "chip": "ym2612"
    },
    {
      "channel": 0,
      "note": 58,
      "start": 51.8815,
      "duration": 0.1498,
      "velocity": 90,
      "chip": "ym2612"
    },
    {
      "channel": 1,
      "note": 71,
      "start": 51.8817,
      "duration": 0.1497,
      "velocity": 92,
      "chip": "ym2612"
    },
    {
      "channel": 2,
      "note": 64,
      "start": 51.8821,
      "duration": 0.1497,
      "velocity": 92,
      "chip": "ym2612"
    },
    {
      "channel": 3,
      "note": 65,
      "start": 51.8824,
      "duration": 0.1496,
      "velocity": 98,
      "chip": "ym2612"
    },
    {
      "channel": 4,
      "note": 58,
      "start": 51.8827,
      "duration": 0.1495,
      "velocity": 90,
      "chip": "ym2612"
    },
    {
      "channel": 5,
      "note": 70,
      "start": 51.883,
      "duration": 0.1494,
      "velocity": 98,
      "chip": "ym2612"
    },
    {
      "channel": 1,
      "note": 66,
      "start": 52.0317,
      "duration": 0.1496,
      "velocity": 92,
      "chip": "ym2612"
    },
    {
      "channel": 2,
      "note": 59,
      "start": 52.032,
      "duration": 0.1497,
      "velocity": 92,
      "chip": "ym2612"
    },
    {
      "channel": 1,
      "note": 64,
      "start": 52.1816,
      "duration": 0.1498,
      "velocity": 92,
      "chip": "ym2612"
    },
    {
      "channel": 2,
      "note": 57,
      "start": 52.1818,
      "duration": 0.1498,
      "velocity": 92,
      "chip": "ym2612"
    },
    {
      "channel": 4,
      "note": 70,
      "start": 52.1822,
      "duration": 0.1498,
      "velocity": 90,
      "chip": "ym2612"
    },
    {
      "channel": 1,
      "note": 66,
      "start": 52.3316,
      "duration": 0.1501,
      "velocity": 92,
      "chip": "ym2612"
    },
    {
      "channel": 2,
      "note": 59,
      "start": 52.3318,
      "duration": 0.1501,
      "velocity": 92,
      "chip": "ym2612"
    },
    {
      "channel": 0,
      "note": 58,
      "start": 52.4816,
      "duration": 0.1497,
      "velocity": 90,
      "chip": "ym2612"
    },
    {
      "channel": 1,
      "note": 71,
      "start": 52.4818,
      "duration": 0.1496,
      "velocity": 92,
      "chip": "ym2612"
    },
    {
      "channel": 2,
      "note": 64,
      "start": 52.4821,
      "duration": 0.1496,
      "velocity": 92,
      "chip": "ym2612"
    },
    {
      "channel": 3,
      "note": 65,
      "start": 52.4824,
      "duration": 0.1496,
      "velocity": 98,
      "chip": "ym2612"
    },
    {
      "channel": 4,
      "note": 58,
      "start": 52.4828,
      "duration": 0.1494,
      "velocity": 90,
      "chip": "ym2612"
    },
    {
      "channel": 5,
      "note": 70,
      "start": 52.483,
      "duration": 0.1494,
      "velocity": 98,
      "chip": "ym2612"
    },
    {
      "channel": 1,
      "note": 66,
      "start": 52.6316,
      "duration": 0.15,
      "velocity": 92,
      "chip": "ym2612"
    },
    {
      "channel": 2,
      "note": 59,
      "start": 52.632,
      "duration": 0.1499,
      "velocity": 92,
      "chip": "ym2612"
    },
    {
      "channel": 0,
      "note": 73,
      "start": 52.7815,
      "duration": 0.1498,
      "velocity": 90,
      "chip": "ym2612"
    },
    {
      "channel": 5,
      "note": 85,
      "start": 52.7835,
      "duration": 0.1481,
      "velocity": 98,
      "chip": "ym2612"
    },
    {
      "channel": 4,
      "note": 58,
      "start": 53.0817,
      "duration": 0.1498,
      "velocity": 90,
      "chip": "ym2612"
    },
    {
      "channel": 0,
      "note": 73,
      "start": 53.3815,
      "duration": 0.1498,
      "velocity": 90,
      "chip": "ym2612"
    },
    {
      "channel": 4,
      "note": 73,
      "start": 53.382,
      "duration": 0.1496,
      "velocity": 90,
      "chip": "ym2612"
    },
    {
      "channel": 5,
      "note": 85,
      "start": 53.3823,
      "duration": 0.1495,
      "velocity": 98,
      "chip": "ym2612"
    },
    {
      "channel": 0,
      "note": 78,
      "start": 53.9815,
      "duration": 0.1498,
      "velocity": 90,
      "chip": "ym2612"
    },
    {
      "channel": 1,
      "note": 73,
      "start": 53.9818,
      "duration": 0.2996,
      "velocity": 92,
      "chip": "ym2612"
    },
    {
      "channel": 2,
      "note": 68,
      "start": 53.9821,
      "duration": 0.2996,
      "velocity": 92,
      "chip": "ym2612"
    },
    {
      "channel": 3,
      "note": 64,
      "start": 53.9824,
      "duration": 0.2996,
      "velocity": 92,
      "chip": "ym2612"
    },
    {
      "channel": 4,
      "note": 73,
      "start": 53.9827,
      "duration": 0.1493,
      "velocity": 90,
      "chip": "ym2612"
    },
    {
      "channel": 5,
      "note": 90,
      "start": 53.983,
      "duration": 0.1492,
      "velocity": 98,
      "chip": "ym2612"
    },
    {
      "channel": 0,
      "note": 75,
      "start": 54.1315,
      "duration": 0.2998,
      "velocity": 90,
      "chip": "ym2612"
    },
    {
      "channel": 5,
      "note": 87,
      "start": 54.1324,
      "duration": 0.2997,
      "velocity": 98,
      "chip": "ym2612"
    },
    {
      "channel": 1,
      "note": 72,
      "start": 54.2816,
      "duration": 0.1499,
      "velocity": 92,
      "chip": "ym2612"
    },
    {
      "channel": 2,
      "note": 67,
      "start": 54.282,
      "duration": 0.1498,
      "velocity": 92,
      "chip": "ym2612"
    },
    {
      "channel": 3,
      "note": 63,
      "start": 54.2823,
      "duration": 0.1496,
      "velocity": 92,
      "chip": "ym2612"
    },
    {
      "channel": 0,
      "note": 77,
      "start": 54.4315,
      "duration": 0.7499,
      "velocity": 90,
      "chip": "ym2612"
    },
    {
      "channel": 5,
      "note": 89,
      "start": 54.4324,
      "duration": 0.7494,
      "velocity": 98,
      "chip": "ym2612"
    },
    {
      "channel": 1,
      "note": 73,
      "start": 54.5817,
      "duration": 0.1497,
      "velocity": 92,
      "chip": "ym2612"
    },
    {
      "channel": 2,
      "note": 68,
      "start": 54.582,
      "duration": 0.2997,
      "velocity": 92,
      "chip": "ym2612"
    },
    {
      "channel": 3,
      "note": 64,
      "start": 54.5823,
      "duration": 0.2997,
      "velocity": 92,
      "chip": "ym2612"
    },
    {
      "channel": 4,
      "note": 78,
      "start": 54.5827,
      "duration": 0.1492,
      "velocity": 90,
      "chip": "ym2612"
    },
    {
      "channel": 4,
      "note": 75,
      "start": 54.7321,
      "duration": 0.2999,
      "velocity": 90,
      "chip": "ym2612"
    },
    {
      "channel": 1,
      "note": 72,
      "start": 54.8816,
      "duration": 0.1498,
      "velocity": 92,
      "chip": "ym2612"
    },
    {
      "channel": 2,
      "note": 67,
      "start": 54.882,
      "duration": 0.1497,
      "velocity": 92,
      "chip": "ym2612"
    },
    {
      "channel": 3,
      "note": 63,
      "start": 54.8823,
      "duration": 0.1495,
      "velocity": 92,
      "chip": "ym2612"
    },
    {
      "channel": 4,
      "note": 77,
      "start": 55.0322,
      "duration": 0.7498,
      "velocity": 90,
      "chip": "ym2612"
    },
    {
      "channel": 0,
      "note": 75,
      "start": 55.1814,
      "duration": 0.5998,
      "velocity": 90,
      "chip": "ym2612"
    },
    {
      "channel": 5,
      "note": 87,
      "start": 55.1821,
      "duration": 0.6,
      "velocity": 98,
      "chip": "ym2612"
    },
    {
      "channel": 0,
      "note": 73,
      "start": 55.7815,
      "duration": 0.1498,
      "velocity": 90,
      "chip": "ym2612"
    },
    {
      "channel": 4,
      "note": 75,
      "start": 55.782,
      "duration": 0.6006,
      "velocity": 90,
      "chip": "ym2612"
    },
    {
      "channel": 5,
      "note": 85,
      "start": 55.7823,
      "duration": 0.1495,
      "velocity": 98,
      "chip": "ym2612"
    },
    {
      "channel": 0,
      "note": 73,
      "start": 56.3815,
      "duration": 0.1498,
      "velocity": 90,
      "chip": "ym2612"
    },
    {
      "channel": 1,
      "note": 71,
      "start": 56.3819,
      "duration": 0.2994,
      "velocity": 92,
      "chip": "ym2612"
    },
    {
      "channel": 2,
      "note": 66,
      "start": 56.3822,
      "duration": 0.2994,
      "velocity": 92,
      "chip": "ym2612"
    },
    {
      "channel": 3,
      "note": 62,
      "start": 56.3825,
      "duration": 0.2994,
      "velocity": 92,
      "chip": "ym2612"
    },
    {
      "channel": 4,
      "note": 73,
      "start": 56.3828,
      "duration": 0.1491,
      "velocity": 90,
      "chip": "ym2612"
    },
    {
      "channel": 5,
      "note": 85,
      "start": 56.3831,
      "duration": 0.149,
      "velocity": 98,
      "chip": "ym2612"
    },
    {
      "channel": 1,
      "note": 70,
      "start": 56.6816,
      "duration": 0.1498,
      "velocity": 92,
      "chip": "ym2612"
    },
    {
      "channel": 2,
      "note": 65,
      "start": 56.6819,
      "duration": 0.1496,
      "velocity": 92,
      "chip": "ym2612"
    },
    {
      "channel": 3,
      "note": 61,
      "start": 56.6821,
      "duration": 0.1495,
      "velocity": 92,
      "chip": "ym2612"
    },
    {
      "channel": 0,
      "note": 78,
      "start": 56.9815,
      "duration": 0.1498,
      "velocity": 90,
      "chip": "ym2612"
    },
    {
      "channel": 1,
      "note": 71,
      "start": 56.9819,
      "duration": 0.2995,
      "velocity": 92,
      "chip": "ym2612"
    },
    {
      "channel": 2,
      "note": 66,
      "start": 56.9822,
      "duration": 0.2995,
      "velocity": 92,
      "chip": "ym2612"
    },
    {
      "channel": 3,
      "note": 62,
      "start": 56.9825,
      "duration": 0.2995,
      "velocity": 92,
      "chip": "ym2612"
    },
    {
      "channel": 4,
      "note": 73,
      "start": 56.9828,
      "duration": 0.1493,
      "velocity": 90,
      "chip": "ym2612"
    },
    {
      "channel": 5,
      "note": 90,
      "start": 56.9831,
      "duration": 0.1491,
      "velocity": 98,
      "chip": "ym2612"
    },
    {
      "channel": 0,
      "note": 75,
      "start": 57.1315,
      "duration": 0.2998,
      "velocity": 90,
      "chip": "ym2612"
    },
    {
      "channel": 5,
      "note": 87,
      "start": 57.1324,
      "duration": 0.2998,
      "velocity": 98,
      "chip": "ym2612"
    },
    {
      "channel": 1,
      "note": 70,
      "start": 57.2816,
      "duration": 0.1499,
      "velocity": 92,
      "chip": "ym2612"
    },
    {
      "channel": 2,
      "note": 65,
      "start": 57.282,
      "duration": 0.1498,
      "velocity": 92,
      "chip": "ym2612"
    },
    {
      "channel": 3,
      "note": 61,
      "start": 57.2823,
      "duration": 0.1497,
      "velocity": 92,
      "chip": "ym2612"
    },
    {
      "channel": 0,
      "note": 77,
      "start": 57.4315,
      "duration": 0.4498,
      "velocity": 90,
      "chip": "ym2612"
    },
    {
      "channel": 5,
      "note": 89,
      "start": 57.4324,
      "duration": 0.4495,
      "velocity": 98,
      "chip": "ym2612"
    },
    {
      "channel": 4,
      "note": 78,
      "start": 57.5821,
      "duration": 0.1495,
      "velocity": 90,
      "chip": "ym2612"
    },
    {
      "channel": 4,
      "note": 75,
      "start": 57.7318,
      "duration": 0.2999,
      "velocity": 90,
      "chip": "ym2612"
    },
    {
      "channel": 0,
      "note": 78,
      "start": 57.8815,
      "duration": 0.1499,
      "velocity": 90,
      "chip": "ym2612"
    },
    {
      "channel": 5,
      "note": 90,
      "start": 57.8821,
      "duration": 0.1499,
      "velocity": 98,
      "chip": "ym2612"
    },
    {
      "channel": 0,
      "note": 77,
      "start": 58.0314,
      "duration": 0.1498,
      "velocity": 90,
      "chip": "ym2612"
    },
    {
      "channel": 4,
      "note": 77,
      "start": 58.032,
      "duration": 0.4497,
      "velocity": 90,
      "chip": "ym2612"
    },
    {
      "channel": 5,
      "note": 89,
      "start": 58.0323,
      "duration": 0.1496,
      "velocity": 98,
      "chip": "ym2612"
    },
    {
      "channel": 0,
      "note": 75,
      "start": 58.1815,
      "duration": 0.5998,
      "velocity": 90,
      "chip": "ym2612"
    },
    {
      "channel": 5,
      "note": 87,
      "start": 58.1821,
      "duration": 0.5999,
      "velocity": 98,
      "chip": "ym2612"
    },
    {
      "channel": 4,
      "note": 78,
      "start": 58.4818,
      "duration": 0.15,
      "velocity": 90,
      "chip": "ym2612"
    },
    {
      "channel": 4,
      "note": 77,
      "start": 58.6318,
      "duration": 0.1499,
      "velocity": 90,
      "chip": "ym2612"
    },
    {
      "channel": 0,
      "note": 81,
      "start": 58.7815,
      "duration": 0.7498,
      "velocity": 90,
      "chip": "ym2612"
    },
    {
      "channel": 4,
      "note": 75,
      "start": 58.782,
      "duration": 0.5996,
      "velocity": 90,
      "chip": "ym2612"
    },
    {
      "channel": 5,
      "note": 93,
      "start": 58.7823,
      "duration": 0.7494,
      "velocity": 98,
      "chip": "ym2612"
    },
    {
      "channel": 4,
      "note": 81,
      "start": 59.3819,
      "duration": 0.7499,
      "velocity": 90,
      "chip": "ym2612"
    },
    {
      "channel": 1,
      "note": 73,
      "start": 59.9816,
      "duration": 0.2999,
      "velocity": 92,
      "chip": "ym2612"
    },
    {
      "channel": 2,
      "note": 68,
      "start": 59.982,
      "duration": 0.2999,
      "velocity": 92,
      "chip": "ym2612"
    },
    {
      "channel": 3,
      "note": 64,
      "start": 59.9823,
      "duration": 0.2998,
      "velocity": 92,
      "chip": "ym2612"
    },
    {
      "channel": 0,
      "note": 80,
      "start": 60.2815,
      "duration": 0.2998,
      "velocity": 90,
      "chip": "ym2612"
    },
    {
      "channel": 1,
      "note": 72,
      "start": 60.2818,
      "duration": 0.1495,
      "velocity": 92,
      "chip": "ym2612"
    },
    {
      "channel": 3,
      "note": 63,
      "start": 60.2823,
      "duration": 0.1494,
      "velocity": 92,
      "chip": "ym2612"
    },
    {
      "channel": 5,
      "note": 92,
      "start": 60.2827,
      "duration": 0.2998,
      "velocity": 98,
      "chip": "ym2612"
    },
    {
      "channel": 1,
      "note": 73,
      "start": 60.5817,
      "duration": 0.2996,
      "velocity": 92,
      "chip": "ym2612"
    },
    {
      "channel": 2,
      "note": 68,
      "start": 60.5821,
      "duration": 0.2996,
      "velocity": 92,
      "chip": "ym2612"
    },
    {
      "channel": 3,
      "note": 64,
      "start": 60.5823,
      "duration": 0.2996,
      "velocity": 92,
      "chip": "ym2612"
    },
    {
      "channel": 1,
      "note": 72,
      "start": 60.8816,
      "duration": 0.1498,
      "velocity": 92,
      "chip": "ym2612"
    },
    {
      "channel": 2,
      "note": 67,
      "start": 60.8819,
      "duration": 0.1496,
      "velocity": 92,
      "chip": "ym2612"
    },
    {
      "channel": 3,
      "note": 63,
      "start": 60.8821,
      "duration": 0.1496,
      "velocity": 92,
      "chip": "ym2612"
    },
    {
      "channel": 4,
      "note": 80,
      "start": 60.8824,
      "duration": 0.2999,
      "velocity": 90,
      "chip": "ym2612"
    },
    {
      "channel": 1,
      "note": 73,
      "start": 61.1816,
      "duration": 0.2997,
      "velocity": 92,
      "chip": "ym2612"
    },
    {
      "channel": 2,
      "note": 68,
      "start": 61.182,
      "duration": 0.2997,
      "velocity": 92,
      "chip": "ym2612"
    },
    {
      "channel": 3,
      "note": 64,
      "start": 61.1823,
      "duration": 0.1494,
      "velocity": 92,
      "chip": "ym2612"
    },
    {
      "channel": 1,
      "note": 72,
      "start": 61.4816,
      "duration": 0.1498,
      "velocity": 92,
      "chip": "ym2612"
    },
    {
      "channel": 2,
      "note": 67,
      "start": 61.4819,
      "duration": 0.1496,
      "velocity": 92,
      "chip": "ym2612"
    },
    {
      "channel": 3,
      "note": 63,
      "start": 61.4822,
      "duration": 0.1495,
      "velocity": 92,
      "chip": "ym2612"
    },
    {
      "channel": 0,
      "note": 76,
      "start": 61.6815,
      "duration": 0.0999,
      "velocity": 90,
      "chip": "ym2612"
    },
    {
      "channel": 5,
      "note": 88,
      "start": 61.682,
      "duration": 0.0997,
      "velocity": 98,
      "chip": "ym2612"
    },
    {
      "channel": 0,
      "note": 72,
      "start": 61.7814,
      "duration": 0.1,
      "velocity": 90,
      "chip": "ym2612"
    },
    {
      "channel": 5,
      "note": 84,
      "start": 61.782,
      "duration": 0.0998,
      "velocity": 98,
      "chip": "ym2612"
    },
    {
      "channel": 0,
      "note": 70,
      "start": 61.8814,
      "duration": 0.1,
      "velocity": 90,
      "chip": "ym2612"
    },
    {
      "channel": 5,
      "note": 82,
      "start": 61.882,
      "duration": 0.0998,
      "velocity": 98,
      "chip": "ym2612"
    },
    {
      "channel": 0,
      "note": 64,
      "start": 61.9814,
      "duration": 0.1001,
      "velocity": 90,
      "chip": "ym2612"
    },
    {
      "channel": 5,
      "note": 76,
      "start": 61.982,
      "duration": 0.0999,
      "velocity": 98,
      "chip": "ym2612"
    },
    {
      "channel": 0,
      "note": 54,
      "start": 62.0815,
      "duration": 2.0998,
      "velocity": 90,
      "chip": "ym2612"
    },
    {
      "channel": 5,
      "note": 66,
      "start": 62.0821,
      "duration": 2.0997,
      "velocity": 98,
      "chip": "ym2612"
    },
    {
      "channel": 4,
      "note": 76,
      "start": 62.2819,
      "duration": 0.1007,
      "velocity": 90,
      "chip": "ym2612"
    },
    {
      "channel": 1,
      "note": 71,
      "start": 62.3817,
      "duration": 0.1497,
      "velocity": 92,
      "chip": "ym2612"
    },
    {
      "channel": 2,
      "note": 66,
      "start": 62.3821,
      "duration": 0.1496,
      "velocity": 92,
      "chip": "ym2612"
    },
    {
      "channel": 3,
      "note": 62,
      "start": 62.3823,
      "duration": 0.1494,
      "velocity": 92,
      "chip": "ym2612"
    },
    {
      "channel": 4,
      "note": 72,
      "start": 62.3826,
      "duration": 0.0995,
      "velocity": 90,
      "chip": "ym2612"
    },
    {
      "channel": 4,
      "note": 70,
      "start": 62.4821,
      "duration": 0.0997,
      "velocity": 90,
      "chip": "ym2612"
    },
    {
      "channel": 4,
      "note": 64,
      "start": 62.5817,
      "duration": 0.1008,
      "velocity": 90,
      "chip": "ym2612"
    },
    {
      "channel": 1,
      "note": 71,
      "start": 62.6817,
      "duration": 0.1497,
      "velocity": 92,
      "chip": "ym2612"
    },
    {
      "channel": 2,
      "note": 66,
      "start": 62.682,
      "duration": 0.1496,
      "velocity": 92,
      "chip": "ym2612"
    },
    {
      "channel": 3,
      "note": 62,
      "start": 62.6823,
      "duration": 0.1494,
      "velocity": 92,
      "chip": "ym2612"
    },
    {
      "channel": 4,
      "note": 54,
      "start": 62.6826,
      "duration": 2.1041,
      "velocity": 90,
      "chip": "ym2612"
    },
    {
      "channel": 1,
      "note": 71,
      "start": 62.9816,
      "duration": 0.1499,
      "velocity": 92,
      "chip": "ym2612"
    },
    {
      "channel": 2,
      "note": 66,
      "start": 62.982,
      "duration": 0.1497,
      "velocity": 92,
      "chip": "ym2612"
    },
    {
      "channel": 3,
      "note": 62,
      "start": 62.9823,
      "duration": 0.1495,
      "velocity": 92,
      "chip": "ym2612"
    },
    {
      "channel": 1,
      "note": 71,
      "start": 63.2816,
      "duration": 0.1498,
      "velocity": 92,
      "chip": "ym2612"
    },
    {
      "channel": 2,
      "note": 66,
      "start": 63.282,
      "duration": 0.1497,
      "velocity": 92,
      "chip": "ym2612"
    },
    {
      "channel": 3,
      "note": 62,
      "start": 63.2823,
      "duration": 0.1495,
      "velocity": 92,
      "chip": "ym2612"
    },
    {
      "channel": 1,
      "note": 71,
      "start": 63.5816,
      "duration": 0.1498,
      "velocity": 92,
      "chip": "ym2612"
    },
    {
      "channel": 2,
      "note": 66,
      "start": 63.582,
      "duration": 0.1497,
      "velocity": 92,
      "chip": "ym2612"
    },
    {
      "channel": 3,
      "note": 62,
      "start": 63.5823,
      "duration": 0.1495,
      "velocity": 92,
      "chip": "ym2612"
    },
    {
      "channel": 2,
      "note": 66,
      "start": 63.8817,
      "duration": 0.1498,
      "velocity": 92,
      "chip": "ym2612"
    },
    {
      "channel": 3,
      "note": 62,
      "start": 63.882,
      "duration": 0.1496,
      "velocity": 92,
      "chip": "ym2612"
    },
    {
      "channel": 0,
      "note": 53,
      "start": 64.7827,
      "duration": 0.0164,
      "velocity": 90,
      "chip": "ym2612"
    },
    {
      "channel": 5,
      "note": 65,
      "start": 64.7884,
      "duration": 0.0107,
      "velocity": 98,
      "chip": "ym2612"
    }
  ]
}