{
  "track_name": "13 - I Miss You",
  "duration_sec": 31.201,
  "sample_rate": 44100,
  "note_count": 180,
  "unique_pitches": 39,
  "pitch_range": 61,
  "avg_note_duration": 1.0206,
  "reconstruction_stats": {
    "notes_reconstructed": 180,
    "keyon_events": 180,
    "keyoff_events": 153,
    "orphan_keyons": 4,
    "unique_pitches": 39,
    "pitch_range": 61,
    "avg_duration_sec": 1.0206
  },
  "metadata": {
    "source": "S\\Shining Force II\\13 - I Miss You.vgz"
  },
  "notes": [
    {
      "channel": 0,
      "note": 73,
      "start": 0.0,
      "duration": 0.0,
      "velocity": 98,
      "chip": "ym2612"
    },
    {
      "channel": 0,
      "note": 43,
      "start": 0.0,
      "duration": 2.5945,
      "velocity": 112,
      "chip": "ym2612"
    },
    {
      "channel": 2,
      "note": 86,
      "start": 0.0,
      "duration": 0.0,
      "velocity": 104,
      "chip": "ym2612"
    },
    {
      "channel": 2,
      "note": 69,
      "start": 0.0,
      "duration": 0.2653,
      "velocity": 92,
      "chip": "ym2612"
    },
    {
      "channel": 3,
      "note": 83,
      "start": 0.0,
      "duration": 0.0,
      "velocity": 104,
      "chip": "ym2612"
    },
    {
      "channel": 4,
      "note": 67,
      "start": 0.0,
      "duration": 0.0,
      "velocity": 98,
      "chip": "ym2612"
    },
    {
      "channel": 4,
      "note": 74,
      "start": 0.0,
      "duration": 0.0,
      "velocity": 98,
      "chip": "ym2612"
    },
    {
      "channel": 3,
      "note": 83,
      "start": 0.0036,
      "duration": 0.262,
      "velocity": 92,
      "chip": "ym2612"
    },
    {
      "channel": 2,
      "note": 69,
      "start": 0.2835,
      "duration": 0.2707,
      "velocity": 92,
      "chip": "ym2612"
    },
    {
      "channel": 3,
      "note": 67,
      "start": 0.2841,
      "duration": 0.2704,
      "velocity": 92,
      "chip": "ym2612"
    },
    {
      "channel": 2,
      "note": 69,
      "start": 0.5725,
      "duration": 0.2707,
      "velocity": 92,
      "chip": "ym2612"
    },
    {
      "channel": 3,
      "note": 67,
      "start": 0.5732,
      "duration": 0.2704,
      "velocity": 92,
      "chip": "ym2612"
    },
    {
      "channel": 2,
      "note": 69,
      "start": 0.8614,
      "duration": 1.7153,
      "velocity": 92,
      "chip": "ym2612"
    },
    {
      "channel": 3,
      "note": 67,
      "start": 0.862,
      "duration": 1.715,
      "velocity": 92,
      "chip": "ym2612"
    },
    {
      "channel": 1,
      "note": 62,
      "start": 1.2963,
      "duration": 0.4134,
      "velocity": 99,
      "chip": "ym2612"
    },
    {
      "channel": 4,
      "note": 73,
      "start": 1.4429,
      "duration": 0.4121,
      "velocity": 99,
      "chip": "ym2612"
    },
    {
      "channel": 1,
      "note": 63,
      "start": 1.7279,
      "duration": 0.6319,
      "velocity": 99,
      "chip": "ym2612"
    },
    {
      "channel": 4,
      "note": 62,
      "start": 1.8734,
      "duration": 0.6317,
      "velocity": 99,
      "chip": "ym2612"
    },
    {
      "channel": 1,
      "note": 65,
      "start": 2.3779,
      "duration": 0.1985,
      "velocity": 99,
      "chip": "ym2612"
    },
    {
      "channel": 4,
      "note": 63,
      "start": 2.5234,
      "duration": 0.1983,
      "velocity": 99,
      "chip": "ym2612"
    },
    {
      "channel": 0,
      "note": 43,
      "start": 2.5945,
      "duration": 2.6001,
      "velocity": 112,
      "chip": "ym2612"
    },
    {
      "channel": 1,
      "note": 65,
      "start": 2.5951,
      "duration": 3.8817,
      "velocity": 99,
      "chip": "ym2612"
    },
    {
      "channel": 2,
      "note": 70,
      "start": 2.5957,
      "duration": 2.5813,
      "velocity": 92,
      "chip": "ym2612"
    },
    {
      "channel": 3,
      "note": 67,
      "start": 2.5963,
      "duration": 2.581,
      "velocity": 92,
      "chip": "ym2612"
    },
    {
      "channel": 4,
      "note": 65,
      "start": 2.74,
      "duration": 3.882,
      "velocity": 99,
      "chip": "ym2612"
    },
    {
      "channel": 5,
      "note": 86,
      "start": 3.0317,
      "duration": 0.4127,
      "velocity": 90,
      "chip": "ym2612"
    },
    {
      "channel": 5,
      "note": 93,
      "start": 3.4627,
      "duration": 0.8484,
      "velocity": 90,
      "chip": "ym2612"
    },
    {
      "channel": 5,
      "note": 89,
      "start": 4.3295,
      "duration": 3.8821,
      "velocity": 90,
      "chip": "ym2612"
    },
    {
      "channel": 0,
      "note": 43,
      "start": 5.1946,
      "duration": 2.6003,
      "velocity": 112,
      "chip": "ym2612"
    },
    {
      "channel": 2,
      "note": 72,
      "start": 5.1955,
      "duration": 0.2704,
      "velocity": 92,
      "chip": "ym2612"
    },
    {
      "channel": 3,
      "note": 67,
      "start": 5.1961,
      "duration": 0.27,
      "velocity": 92,
      "chip": "ym2612"
    },
    {
      "channel": 2,
      "note": 72,
      "start": 5.4841,
      "duration": 0.2707,
      "velocity": 92,
      "chip": "ym2612"
    },
    {
      "channel": 3,
      "note": 69,
      "start": 5.4847,
      "duration": 0.2703,
      "velocity": 92,
      "chip": "ym2612"
    },
    {
      "channel": 2,
      "note": 72,
      "start": 5.773,
      "duration": 0.2706,
      "velocity": 92,
      "chip": "ym2612"
    },
    {
      "channel": 3,
      "note": 69,
      "start": 5.7737,
      "duration": 0.2703,
      "velocity": 92,
      "chip": "ym2612"
    },
    {
      "channel": 2,
      "note": 72,
      "start": 6.0619,
      "duration": 1.7153,
      "velocity": 92,
      "chip": "ym2612"
    },
    {
      "channel": 3,
      "note": 69,
      "start": 6.0625,
      "duration": 1.715,
      "velocity": 92,
      "chip": "ym2612"
    },
    {
      "channel": 1,
      "note": 62,
      "start": 6.495,
      "duration": 0.4151,
      "velocity": 99,
      "chip": "ym2612"
    },
    {
      "channel": 4,
      "note": 65,
      "start": 6.6405,
      "duration": 0.415,
      "velocity": 99,
      "chip": "ym2612"
    },
    {
      "channel": 1,
      "note": 63,
      "start": 6.9284,
      "duration": 0.2706,
      "velocity": 99,
      "chip": "ym2612"
    },
    {
      "channel": 4,
      "note": 62,
      "start": 7.0738,
      "duration": 0.2706,
      "velocity": 99,
      "chip": "ym2612"
    },
    {
      "channel": 1,
      "note": 65,
      "start": 7.2174,
      "duration": 0.2706,
      "velocity": 99,
      "chip": "ym2612"
    },
    {
      "channel": 4,
      "note": 63,
      "start": 7.3628,
      "duration": 0.2705,
      "velocity": 99,
      "chip": "ym2612"
    },
    {
      "channel": 1,
      "note": 67,
      "start": 7.5062,
      "duration": 0.2707,
      "velocity": 99,
      "chip": "ym2612"
    },
    {
      "channel": 4,
      "note": 65,
      "start": 7.6517,
      "duration": 0.2705,
      "velocity": 99,
      "chip": "ym2612"
    },
    {
      "channel": 0,
      "note": 43,
      "start": 7.795,
      "duration": 2.5819,
      "velocity": 112,
      "chip": "ym2612"
    },
    {
      "channel": 1,
      "note": 67,
      "start": 7.7956,
      "duration": 0.4147,
      "velocity": 99,
      "chip": "ym2612"
    },
    {
      "channel": 2,
      "note": 74,
      "start": 7.7961,
      "duration": 1.7146,
      "velocity": 92,
      "chip": "ym2612"
    },
    {
      "channel": 3,
      "note": 69,
      "start": 7.7968,
      "duration": 1.7143,
      "velocity": 92,
      "chip": "ym2612"
    },
    {
      "channel": 4,
      "note": 67,
      "start": 7.9405,
      "duration": 0.4151,
      "velocity": 99,
      "chip": "ym2612"
    },
    {
      "channel": 1,
      "note": 66,
      "start": 8.2285,
      "duration": 2.1487,
      "velocity": 99,
      "chip": "ym2612"
    },
    {
      "channel": 5,
      "note": 86,
      "start": 8.2301,
      "duration": 0.4148,
      "velocity": 90,
      "chip": "ym2612"
    },
    {
      "channel": 4,
      "note": 67,
      "start": 8.3739,
      "duration": 2.1485,
      "velocity": 99,
      "chip": "ym2612"
    },
    {
      "channel": 5,
      "note": 98,
      "start": 8.6632,
      "duration": 0.8487,
      "velocity": 90,
      "chip": "ym2612"
    },
    {
      "channel": 2,
      "note": 72,
      "start": 9.5289,
      "duration": 0.8485,
      "velocity": 92,
      "chip": "ym2612"
    },
    {
      "channel": 3,
      "note": 70,
      "start": 9.5296,
      "duration": 0.8483,
      "velocity": 92,
      "chip": "ym2612"
    },
    {
      "channel": 5,
      "note": 96,
      "start": 9.5306,
      "duration": 0.848,
      "velocity": 90,
      "chip": "ym2612"
    },
    {
      "channel": 0,
      "note": 43,
      "start": 10.3969,
      "duration": 0.8467,
      "velocity": 90,
      "chip": "ym2612"
    },
    {
      "channel": 1,
      "note": 74,
      "start": 10.3992,
      "duration": 1.7115,
      "velocity": 90,
      "chip": "ym2612"
    },
    {
      "channel": 2,
      "note": 70,
      "start": 10.4015,
      "duration": 1.7095,
      "velocity": 99,
      "chip": "ym2612"
    },
    {
      "channel": 3,
      "note": 69,
      "start": 10.4045,
      "duration": 1.7068,
      "velocity": 99,
      "chip": "ym2612"
    },
    {
      "channel": 5,
      "note": 94,
      "start": 10.4056,
      "duration": 2.6812,
      "velocity": 90,
      "chip": "ym2612"
    },
    {
      "channel": 4,
      "note": 66,
      "start": 10.5437,
      "duration": 1.7122,
      "velocity": 90,
      "chip": "ym2612"
    },
    {
      "channel": 0,
      "note": 41,
      "start": 11.2619,
      "duration": 1.7153,
      "velocity": 90,
      "chip": "ym2612"
    },
    {
      "channel": 1,
      "note": 81,
      "start": 12.1289,
      "duration": 0.4151,
      "velocity": 90,
      "chip": "ym2612"
    },
    {
      "channel": 2,
      "note": 74,
      "start": 12.1295,
      "duration": 0.8483,
      "velocity": 99,
      "chip": "ym2612"
    },
    {
      "channel": 3,
      "note": 67,
      "start": 12.1301,
      "duration": 0.848,
      "velocity": 99,
      "chip": "ym2612"
    },
    {
      "channel": 4,
      "note": 74,
      "start": 12.2742,
      "duration": 0.4151,
      "velocity": 90,
      "chip": "ym2612"
    },
    {
      "channel": 1,
      "note": 79,
      "start": 12.5623,
      "duration": 0.4151,
      "velocity": 90,
      "chip": "ym2612"
    },
    {
      "channel": 4,
      "note": 81,
      "start": 12.7077,
      "duration": 0.415,
      "velocity": 90,
      "chip": "ym2612"
    },
    {
      "channel": 0,
      "note": 40,
      "start": 12.9954,
      "duration": 0.8485,
      "velocity": 90,
      "chip": "ym2612"
    },
    {
      "channel": 1,
      "note": 84,
      "start": 12.9959,
      "duration": 0.4148,
      "velocity": 90,
      "chip": "ym2612"
    },
    {
      "channel": 2,
      "note": 73,
      "start": 12.9964,
      "duration": 0.8481,
      "velocity": 99,
      "chip": "ym2612"
    },
    {
      "channel": 3,
      "note": 70,
      "start": 12.9971,
      "duration": 0.8478,
      "velocity": 99,
      "chip": "ym2612"
    },
    {
      "channel": 5,
      "note": 67,
      "start": 13.1079,
      "duration": 0.8457,
      "velocity": 99,
      "chip": "ym2612"
    },
    {
      "channel": 4,
      "note": 79,
      "start": 13.141,
      "duration": 0.4151,
      "velocity": 90,
      "chip": "ym2612"
    },
    {
      "channel": 1,
      "note": 82,
      "start": 13.429,
      "duration": 0.4152,
      "velocity": 90,
      "chip": "ym2612"
    },
    {
      "channel": 4,
      "note": 84,
      "start": 13.5744,
      "duration": 0.415,
      "velocity": 90,
      "chip": "ym2612"
    },
    {
      "channel": 0,
      "note": 39,
      "start": 13.8622,
      "duration": 1.7153,
      "velocity": 90,
      "chip": "ym2612"
    },
    {
      "channel": 1,
      "note": 81,
      "start": 13.8627,
      "duration": 1.2816,
      "velocity": 90,
      "chip": "ym2612"
    },
    {
      "channel": 2,
      "note": 73,
      "start": 13.8632,
      "duration": 1.7148,
      "velocity": 99,
      "chip": "ym2612"
    },
    {
      "channel": 3,
      "note": 67,
      "start": 13.8639,
      "duration": 1.7145,
      "velocity": 99,
      "chip": "ym2612"
    },
    {
      "channel": 5,
      "note": 65,
      "start": 13.9719,
      "duration": 1.7151,
      "velocity": 99,
      "chip": "ym2612"
    },
    {
      "channel": 4,
      "note": 82,
      "start": 14.0077,
      "duration": 1.2819,
      "velocity": 90,
      "chip": "ym2612"
    },
    {
      "channel": 1,
      "note": 82,
      "start": 15.1625,
      "duration": 0.4152,
      "velocity": 90,
      "chip": "ym2612"
    },
    {
      "channel": 4,
      "note": 81,
      "start": 15.308,
      "duration": 0.4149,
      "velocity": 90,
      "chip": "ym2612"
    },
    {
      "channel": 0,
      "note": 38,
      "start": 15.5956,
      "duration": 2.5821,
      "velocity": 90,
      "chip": "ym2612"
    },
    {
      "channel": 1,
      "note": 77,
      "start": 15.5962,
      "duration": 2.1483,
      "velocity": 90,
      "chip": "ym2612"
    },
    {
      "channel": 2,
      "note": 68,
      "start": 15.5967,
      "duration": 0.848,
      "velocity": 99,
      "chip": "ym2612"
    },
    {
      "channel": 3,
      "note": 65,
      "start": 15.5973,
      "duration": 2.5814,
      "velocity": 99,
      "chip": "ym2612"
    },
    {
      "channel": 5,
      "note": 68,
      "start": 15.7054,
      "duration": 0.8488,
      "velocity": 99,
      "chip": "ym2612"
    },
    {
      "channel": 4,
      "note": 82,
      "start": 15.7412,
      "duration": 2.1486,
      "velocity": 90,
      "chip": "ym2612"
    },
    {
      "channel": 2,
      "note": 69,
      "start": 16.4629,
      "duration": 1.7154,
      "velocity": 99,
      "chip": "ym2612"
    },
    {
      "channel": 5,
      "note": 69,
      "start": 16.5723,
      "duration": 1.7151,
      "velocity": 99,
      "chip": "ym2612"
    },
    {
      "channel": 1,
      "note": 75,
      "start": 17.7628,
      "duration": 0.4152,
      "velocity": 90,
      "chip": "ym2612"
    },
    {
      "channel": 4,
      "note": 77,
      "start": 17.9086,
      "duration": 0.4146,
      "velocity": 90,
      "chip": "ym2612"
    },
    {
      "channel": 0,
      "note": 43,
      "start": 18.1959,
      "duration": 2.582,
      "velocity": 90,
      "chip": "ym2612"
    },
    {
      "channel": 1,
      "note": 75,
      "start": 18.1964,
      "duration": 0.8482,
      "velocity": 90,
      "chip": "ym2612"
    },
    {
      "channel": 2,
      "note": 70,
      "start": 18.1969,
      "duration": 2.5816,
      "velocity": 99,
      "chip": "ym2612"
    },
    {
      "channel": 3,
      "note": 66,
      "start": 18.1976,
      "duration": 1.7144,
      "velocity": 99,
      "chip": "ym2612"
    },
    {
      "channel": 5,
      "note": 69,
      "start": 18.3057,
      "duration": 1.7154,
      "velocity": 99,
      "chip": "ym2612"
    },
    {
      "channel": 4,
      "note": 75,
      "start": 18.3417,
      "duration": 0.8483,
      "velocity": 90,
      "chip": "ym2612"
    },
    {
      "channel": 1,
      "note": 74,
      "start": 19.0629,
      "duration": 1.7153,
      "velocity": 90,
      "chip": "ym2612"
    },
    {
      "channel": 4,
      "note": 75,
      "start": 19.2087,
      "duration": 1.7869,
      "velocity": 90,
      "chip": "ym2612"
    },
    {
      "channel": 3,
      "note": 69,
      "start": 19.9303,
      "duration": 0.8487,
      "velocity": 99,
      "chip": "ym2612"
    },
    {
      "channel": 5,
      "note": 67,
      "start": 20.0393,
      "duration": 0.8483,
      "velocity": 99,
      "chip": "ym2612"
    },
    {
      "channel": 0,
      "note": 48,
      "start": 20.7978,
      "duration": 0.4134,
      "velocity": 112,
      "chip": "ym2612"
    },
    {
      "channel": 1,
      "note": 86,
      "start": 20.8001,
      "duration": 1.7116,
      "velocity": 87,
      "chip": "ym2612"
    },
    {
      "channel": 2,
      "note": 79,
      "start": 20.8023,
      "duration": 2.5765,
      "velocity": 92,
      "chip": "ym2612"
    },
    {
      "channel": 3,
      "note": 67,
      "start": 20.8054,
      "duration": 2.5737,
      "velocity": 92,
      "chip": "ym2612"
    },
    {
      "channel": 5,
      "note": 48,
      "start": 20.9087,
      "duration": 0.4124,
      "velocity": 112,
      "chip": "ym2612"
    },
    {
      "channel": 4,
      "note": 74,
      "start": 21.0163,
      "duration": 1.7129,
      "velocity": 87,
      "chip": "ym2612"
    },
    {
      "channel": 0,
      "note": 50,
      "start": 21.2295,
      "duration": 0.4151,
      "velocity": 112,
      "chip": "ym2612"
    },
    {
      "channel": 5,
      "note": 50,
      "start": 21.3394,
      "duration": 0.4153,
      "velocity": 112,
      "chip": "ym2612"
    },
    {
      "channel": 0,
      "note": 51,
      "start": 21.6629,
      "duration": 0.4151,
      "velocity": 112,
      "chip": "ym2612"
    },
    {
      "channel": 5,
      "note": 51,
      "start": 21.7728,
      "duration": 0.4151,
      "velocity": 112,
      "chip": "ym2612"
    },
    {
      "channel": 0,
      "note": 55,
      "start": 22.0979,
      "duration": 0.4135,
      "velocity": 112,
      "chip": "ym2612"
    },
    {
      "channel": 5,
      "note": 55,
      "start": 22.2089,
      "duration": 0.4123,
      "velocity": 112,
      "chip": "ym2612"
    },
    {
      "channel": 0,
      "note": 60,
      "start": 22.5296,
      "duration": 0.8485,
      "velocity": 112,
      "chip": "ym2612"
    },
    {
      "channel": 1,
      "note": 84,
      "start": 22.5302,
      "duration": 0.8483,
      "velocity": 87,
      "chip": "ym2612"
    },
    {
      "channel": 5,
      "note": 60,
      "start": 22.6395,
      "duration": 0.8483,
      "velocity": 112,
      "chip": "ym2612"
    },
    {
      "channel": 4,
      "note": 86,
      "start": 22.7475,
      "duration": 0.8483,
      "velocity": 87,
      "chip": "ym2612"
    },
    {
      "channel": 0,
      "note": 62,
      "start": 23.3965,
      "duration": 0.4349,
      "velocity": 112,
      "chip": "ym2612"
    },
    {
      "channel": 1,
      "note": 81,
      "start": 23.3971,
      "duration": 1.7351,
      "velocity": 87,
      "chip": "ym2612"
    },
    {
      "channel": 2,
      "note": 78,
      "start": 23.3976,
      "duration": 2.5814,
      "velocity": 92,
      "chip": "ym2612"
    },
    {
      "channel": 3,
      "note": 75,
      "start": 23.3983,
      "duration": 2.5811,
      "velocity": 92,
      "chip": "ym2612"
    },
    {
      "channel": 5,
      "note": 62,
      "start": 23.5063,
      "duration": 0.4361,
      "velocity": 112,
      "chip": "ym2612"
    },
    {
      "channel": 4,
      "note": 84,
      "start": 23.6142,
      "duration": 1.736,
      "velocity": 87,
      "chip": "ym2612"
    },
    {
      "channel": 0,
      "note": 62,
      "start": 23.8314,
      "duration": 0.2168,
      "velocity": 112,
      "chip": "ym2612"
    },
    {
      "channel": 5,
      "note": 62,
      "start": 23.9424,
      "duration": 0.2167,
      "velocity": 112,
      "chip": "ym2612"
    },
    {
      "channel": 0,
      "note": 62,
      "start": 24.0482,
      "duration": 0.1967,
      "velocity": 112,
      "chip": "ym2612"
    },
    {
      "channel": 5,
      "note": 62,
      "start": 24.1592,
      "duration": 0.1957,
      "velocity": 112,
      "chip": "ym2612"
    },
    {
      "channel": 0,
      "note": 57,
      "start": 24.2648,
      "duration": 0.8468,
      "velocity": 93,
      "chip": "ym2612"
    },
    {
      "channel": 5,
      "note": 57,
      "start": 24.3759,
      "duration": 0.8455,
      "velocity": 93,
      "chip": "ym2612"
    },
    {
      "channel": 0,
      "note": 50,
      "start": 25.1299,
      "duration": 0.8485,
      "velocity": 93,
      "chip": "ym2612"
    },
    {
      "channel": 1,
      "note": 81,
      "start": 25.1322,
      "duration": 0.2885,
      "velocity": 87,
      "chip": "ym2612"
    },
    {
      "channel": 5,
      "note": 50,
      "start": 25.2398,
      "duration": 0.8483,
      "velocity": 93,
      "chip": "ym2612"
    },
    {
      "channel": 4,
      "note": 81,
      "start": 25.3502,
      "duration": 0.2889,
      "velocity": 87,
      "chip": "ym2612"
    },
    {
      "channel": 1,
      "note": 81,
      "start": 25.4207,
      "duration": 0.2894,
      "velocity": 87,
      "chip": "ym2612"
    },
    {
      "channel": 4,
      "note": 81,
      "start": 25.6391,
      "duration": 0.2893,
      "velocity": 87,
      "chip": "ym2612"
    },
    {
      "channel": 1,
      "note": 81,
      "start": 25.71,
      "duration": 0.2686,
      "velocity": 87,
      "chip": "ym2612"
    },
    {
      "channel": 4,
      "note": 81,
      "start": 25.9284,
      "duration": 0.2676,
      "velocity": 87,
      "chip": "ym2612"
    },
    {
      "channel": 0,
      "note": 45,
      "start": 25.9983,
      "duration": 0.4135,
      "velocity": 112,
      "chip": "ym2612"
    },
    {
      "channel": 1,
      "note": 99,
      "start": 26.0006,
      "duration": 1.7115,
      "velocity": 98,
      "chip": "ym2612"
    },
    {
      "channel": 2,
      "note": 79,
      "start": 26.0012,
      "duration": 2.578,
      "velocity": 92,
      "chip": "ym2612"
    },
    {
      "channel": 3,
      "note": 74,
      "start": 26.0018,
      "duration": 2.5778,
      "velocity": 92,
      "chip": "ym2612"
    },
    {
      "channel": 5,
      "note": 45,
      "start": 26.1093,
      "duration": 0.4122,
      "velocity": 112,
      "chip": "ym2612"
    },
    {
      "channel": 4,
      "note": 81,
      "start": 26.2171,
      "duration": 1.7125,
      "velocity": 98,
      "chip": "ym2612"
    },
    {
      "channel": 0,
      "note": 46,
      "start": 26.43,
      "duration": 0.4151,
      "velocity": 112,
      "chip": "ym2612"
    },
    {
      "channel": 5,
      "note": 46,
      "start": 26.5398,
      "duration": 0.4153,
      "velocity": 112,
      "chip": "ym2612"
    },
    {
      "channel": 0,
      "note": 48,
      "start": 26.8634,
      "duration": 0.4151,
      "velocity": 112,
      "chip": "ym2612"
    },
    {
      "channel": 5,
      "note": 48,
      "start": 26.9733,
      "duration": 0.4151,
      "velocity": 112,
      "chip": "ym2612"
    },
    {
      "channel": 0,
      "note": 51,
      "start": 27.2984,
      "duration": 0.4134,
      "velocity": 112,
      "chip": "ym2612"
    },
    {
      "channel": 5,
      "note": 51,
      "start": 27.4094,
      "duration": 0.4123,
      "velocity": 112,
      "chip": "ym2612"
    },
    {
      "channel": 0,
      "note": 57,
      "start": 27.7302,
      "duration": 0.8485,
      "velocity": 112,
      "chip": "ym2612"
    },
    {
      "channel": 1,
      "note": 98,
      "start": 27.7307,
      "duration": 0.8483,
      "velocity": 98,
      "chip": "ym2612"
    },
    {
      "channel": 5,
      "note": 57,
      "start": 27.84,
      "duration": 0.8484,
      "velocity": 112,
      "chip": "ym2612"
    },
    {
      "channel": 4,
      "note": 99,
      "start": 27.948,
      "duration": 0.8483,
      "velocity": 98,
      "chip": "ym2612"
    },
    {
      "channel": 0,
      "note": 62,
      "start": 28.5969,
      "duration": 0.4349,
      "velocity": 112,
      "chip": "ym2612"
    },
    {
      "channel": 1,
      "note": 93,
      "start": 28.5976,
      "duration": 1.7351,
      "velocity": 98,
      "chip": "ym2612"
    },
    {
      "channel": 2,
      "note": 78,
      "start": 28.5982,
      "duration": 2.5814,
      "velocity": 92,
      "chip": "ym2612"
    },
    {
      "channel": 3,
      "note": 72,
      "start": 28.5988,
      "duration": 2.5811,
      "velocity": 92,
      "chip": "ym2612"
    },
    {
      "channel": 5,
      "note": 62,
      "start": 28.7067,
      "duration": 0.4361,
      "velocity": 112,
      "chip": "ym2612"
    },
    {
      "channel": 4,
      "note": 98,
      "start": 28.8147,
      "duration": 1.7361,
      "velocity": 98,
      "chip": "ym2612"
    },
    {
      "channel": 0,
      "note": 62,
      "start": 29.0319,
      "duration": 0.2168,
      "velocity": 112,
      "chip": "ym2612"
    },
    {
      "channel": 5,
      "note": 62,
      "start": 29.1429,
      "duration": 0.2172,
      "velocity": 112,
      "chip": "ym2612"
    },
    {
      "channel": 0,
      "note": 62,
      "start": 29.2487,
      "duration": 0.1967,
      "velocity": 112,
      "chip": "ym2612"
    },
    {
      "channel": 5,
      "note": 62,
      "start": 29.3601,
      "duration": 0.1952,
      "velocity": 112,
      "chip": "ym2612"
    },
    {
      "channel": 0,
      "note": 57,
      "start": 29.4653,
      "duration": 0.8468,
      "velocity": 93,
      "chip": "ym2612"
    },
    {
      "channel": 5,
      "note": 57,
      "start": 29.5764,
      "duration": 0.8456,
      "velocity": 93,
      "chip": "ym2612"
    },
    {
      "channel": 0,
      "note": 50,
      "start": 30.3304,
      "duration": 0.8485,
      "velocity": 93,
      "chip": "ym2612"
    },
    {
      "channel": 1,
      "note": 93,
      "start": 30.3327,
      "duration": 0.2885,
      "velocity": 98,
      "chip": "ym2612"
    },
    {
      "channel": 5,
      "note": 50,
      "start": 30.4403,
      "duration": 0.7603,
      "velocity": 93,
      "chip": "ym2612"
    },
    {
      "channel": 4,
      "note": 93,
      "start": 30.5508,
      "duration": 0.2889,
      "velocity": 98,
      "chip": "ym2612"
    },
    {
      "channel": 1,
      "note": 93,
      "start": 30.6212,
      "duration": 0.2894,
      "velocity": 98,
      "chip": "ym2612"
    },
    {
      "channel": 4,
      "note": 93,
      "start": 30.8396,
      "duration": 0.2894,
      "velocity": 98,
      "chip": "ym2612"
    },
    {
      "channel": 1,
      "note": 93,
      "start": 30.9106,
      "duration": 0.2686,
      "velocity": 98,
      "chip": "ym2612"
    },
    {
      "channel": 4,
      "note": 93,
      "start": 31.129,
      "duration": 0.0716,
      "velocity": 98,
      "chip": "ym2612"
    },
    {
      "channel": 0,
      "note": 43,
      "start": 31.1992,
      "duration": 0.0014,
      "velocity": 112,
      "chip": "ym2612"
    },
    {
      "channel": 2,
      "note": 69,
      "start": 31.2006,
      "duration": 0.0,
      "velocity": 92,
      "chip": "ym2612"
    }
  ]
}