{
  "track_name": "13 - Heart of Icegrave",
  "duration_sec": 67.266,
  "sample_rate": 44100,
  "note_count": 1281,
  "unique_pitches": 37,
  "pitch_range": 79,
  "avg_note_duration": 0.2258,
  "reconstruction_stats": {
    "notes_reconstructed": 1281,
    "keyon_events": 1281,
    "keyoff_events": 1280,
    "orphan_keyons": 1,
    "unique_pitches": 37,
    "pitch_range": 79,
    "avg_duration_sec": 0.2258
  },
  "metadata": {
    "source": "M\\Monster World IV\\13 - Heart of Icegrave.vgz"
  },
  "notes": [
    {
      "channel": 0,
      "note": 72,
      "start": 0.0,
      "duration": 3.3467,
      "velocity": 109,
      "chip": "ym2612"
    },
    {
      "channel": 3,
      "note": 86,
      "start": 0.0027,
      "duration": 0.1615,
      "velocity": 97,
      "chip": "ym2612"
    },
    {
      "channel": 2,
      "note": 88,
      "start": 0.0058,
      "duration": 0.1131,
      "velocity": 118,
      "chip": "ym2612"
    },
    {
      "channel": 5,
      "note": 117,
      "start": 0.0085,
      "duration": 0.1106,
      "velocity": 127,
      "chip": "ym2612"
    },
    {
      "channel": 2,
      "note": 105,
      "start": 0.1256,
      "duration": 0.2343,
      "velocity": 118,
      "chip": "ym2612"
    },
    {
      "channel": 1,
      "note": 77,
      "start": 0.2465,
      "duration": 0.0726,
      "velocity": 97,
      "chip": "ym2612"
    },
    {
      "channel": 4,
      "note": 86,
      "start": 0.3675,
      "duration": 0.2384,
      "velocity": 97,
      "chip": "ym2612"
    },
    {
      "channel": 2,
      "note": 105,
      "start": 0.3694,
      "duration": 0.1109,
      "velocity": 118,
      "chip": "ym2612"
    },
    {
      "channel": 5,
      "note": 38,
      "start": 0.3713,
      "duration": 0.1091,
      "velocity": 127,
      "chip": "ym2612"
    },
    {
      "channel": 2,
      "note": 105,
      "start": 0.4867,
      "duration": 0.2339,
      "velocity": 118,
      "chip": "ym2612"
    },
    {
      "channel": 3,
      "note": 70,
      "start": 0.7269,
      "duration": 0.2377,
      "velocity": 97,
      "chip": "ym2612"
    },
    {
      "channel": 2,
      "note": 105,
      "start": 0.7297,
      "duration": 0.1108,
      "velocity": 118,
      "chip": "ym2612"
    },
    {
      "channel": 5,
      "note": 38,
      "start": 0.7313,
      "duration": 0.1094,
      "velocity": 127,
      "chip": "ym2612"
    },
    {
      "channel": 2,
      "note": 105,
      "start": 0.8472,
      "duration": 0.1133,
      "velocity": 118,
      "chip": "ym2612"
    },
    {
      "channel": 5,
      "note": 38,
      "start": 0.9684,
      "duration": 0.0841,
      "velocity": 127,
      "chip": "ym2612"
    },
    {
      "channel": 1,
      "note": 69,
      "start": 1.0868,
      "duration": 0.073,
      "velocity": 97,
      "chip": "ym2612"
    },
    {
      "channel": 2,
      "note": 105,
      "start": 1.0896,
      "duration": 0.2311,
      "velocity": 118,
      "chip": "ym2612"
    },
    {
      "channel": 4,
      "note": 70,
      "start": 1.207,
      "duration": 0.1591,
      "velocity": 97,
      "chip": "ym2612"
    },
    {
      "channel": 2,
      "note": 105,
      "start": 1.3276,
      "duration": 0.1134,
      "velocity": 118,
      "chip": "ym2612"
    },
    {
      "channel": 5,
      "note": 44,
      "start": 1.3299,
      "duration": 0.1112,
      "velocity": 127,
      "chip": "ym2612"
    },
    {
      "channel": 3,
      "note": 77,
      "start": 1.4459,
      "duration": 0.1593,
      "velocity": 97,
      "chip": "ym2612"
    },
    {
      "channel": 2,
      "note": 105,
      "start": 1.4486,
      "duration": 0.2324,
      "velocity": 118,
      "chip": "ym2612"
    },
    {
      "channel": 1,
      "note": 72,
      "start": 1.6892,
      "duration": 0.1508,
      "velocity": 97,
      "chip": "ym2612"
    },
    {
      "channel": 2,
      "note": 105,
      "start": 1.6915,
      "duration": 0.1097,
      "velocity": 118,
      "chip": "ym2612"
    },
    {
      "channel": 5,
      "note": 38,
      "start": 1.693,
      "duration": 0.1084,
      "velocity": 127,
      "chip": "ym2612"
    },
    {
      "channel": 2,
      "note": 105,
      "start": 1.8078,
      "duration": 0.2336,
      "velocity": 118,
      "chip": "ym2612"
    },
    {
      "channel": 4,
      "note": 70,
      "start": 1.9271,
      "duration": 0.0737,
      "velocity": 97,
      "chip": "ym2612"
    },
    {
      "channel": 3,
      "note": 69,
      "start": 2.0475,
      "duration": 0.238,
      "velocity": 97,
      "chip": "ym2612"
    },
    {
      "channel": 2,
      "note": 105,
      "start": 2.0504,
      "duration": 0.111,
      "velocity": 118,
      "chip": "ym2612"
    },
    {
      "channel": 5,
      "note": 38,
      "start": 2.052,
      "duration": 0.1096,
      "velocity": 127,
      "chip": "ym2612"
    },
    {
      "channel": 2,
      "note": 105,
      "start": 2.1678,
      "duration": 0.2339,
      "velocity": 118,
      "chip": "ym2612"
    },
    {
      "channel": 1,
      "note": 70,
      "start": 2.4086,
      "duration": 0.2379,
      "velocity": 97,
      "chip": "ym2612"
    },
    {
      "channel": 2,
      "note": 105,
      "start": 2.4108,
      "duration": 0.1111,
      "velocity": 118,
      "chip": "ym2612"
    },
    {
      "channel": 5,
      "note": 38,
      "start": 2.4124,
      "duration": 0.1097,
      "velocity": 127,
      "chip": "ym2612"
    },
    {
      "channel": 2,
      "note": 105,
      "start": 2.5283,
      "duration": 0.1134,
      "velocity": 118,
      "chip": "ym2612"
    },
    {
      "channel": 5,
      "note": 38,
      "start": 2.6495,
      "duration": 0.0841,
      "velocity": 127,
      "chip": "ym2612"
    },
    {
      "channel": 4,
      "note": 69,
      "start": 2.7686,
      "duration": 0.0728,
      "velocity": 97,
      "chip": "ym2612"
    },
    {
      "channel": 2,
      "note": 105,
      "start": 2.7705,
      "duration": 0.2314,
      "velocity": 118,
      "chip": "ym2612"
    },
    {
      "channel": 3,
      "note": 70,
      "start": 2.8868,
      "duration": 0.1593,
      "velocity": 97,
      "chip": "ym2612"
    },
    {
      "channel": 2,
      "note": 105,
      "start": 3.0088,
      "duration": 0.1137,
      "velocity": 118,
      "chip": "ym2612"
    },
    {
      "channel": 5,
      "note": 44,
      "start": 3.0111,
      "duration": 0.1115,
      "velocity": 127,
      "chip": "ym2612"
    },
    {
      "channel": 1,
      "note": 77,
      "start": 3.1276,
      "duration": 0.1593,
      "velocity": 97,
      "chip": "ym2612"
    },
    {
      "channel": 2,
      "note": 105,
      "start": 3.13,
      "duration": 0.2211,
      "velocity": 118,
      "chip": "ym2612"
    },
    {
      "channel": 0,
      "note": 48,
      "start": 3.3528,
      "duration": 1.4311,
      "velocity": 109,
      "chip": "ym2612"
    },
    {
      "channel": 4,
      "note": 72,
      "start": 3.3559,
      "duration": 0.1604,
      "velocity": 97,
      "chip": "ym2612"
    },
    {
      "channel": 2,
      "note": 105,
      "start": 3.3577,
      "duration": 0.1135,
      "velocity": 118,
      "chip": "ym2612"
    },
    {
      "channel": 5,
      "note": 38,
      "start": 3.3592,
      "duration": 0.1122,
      "velocity": 127,
      "chip": "ym2612"
    },
    {
      "channel": 2,
      "note": 105,
      "start": 3.4775,
      "duration": 0.2337,
      "velocity": 118,
      "chip": "ym2612"
    },
    {
      "channel": 3,
      "note": 70,
      "start": 3.5959,
      "duration": 0.0735,
      "velocity": 97,
      "chip": "ym2612"
    },
    {
      "channel": 1,
      "note": 69,
      "start": 3.7178,
      "duration": 0.238,
      "velocity": 97,
      "chip": "ym2612"
    },
    {
      "channel": 2,
      "note": 105,
      "start": 3.7201,
      "duration": 0.111,
      "velocity": 118,
      "chip": "ym2612"
    },
    {
      "channel": 5,
      "note": 38,
      "start": 3.722,
      "duration": 0.1092,
      "velocity": 127,
      "chip": "ym2612"
    },
    {
      "channel": 2,
      "note": 105,
      "start": 3.8378,
      "duration": 0.2339,
      "velocity": 118,
      "chip": "ym2612"
    },
    {
      "channel": 4,
      "note": 70,
      "start": 4.0788,
      "duration": 0.2381,
      "velocity": 97,
      "chip": "ym2612"
    },
    {
      "channel": 2,
      "note": 105,
      "start": 4.0805,
      "duration": 0.1108,
      "velocity": 118,
      "chip": "ym2612"
    },
    {
      "channel": 5,
      "note": 38,
      "start": 4.0821,
      "duration": 0.1094,
      "velocity": 127,
      "chip": "ym2612"
    },
    {
      "channel": 2,
      "note": 105,
      "start": 4.1979,
      "duration": 0.1134,
      "velocity": 118,
      "chip": "ym2612"
    },
    {
      "channel": 5,
      "note": 38,
      "start": 4.3193,
      "duration": 0.0841,
      "velocity": 127,
      "chip": "ym2612"
    },
    {
      "channel": 3,
      "note": 69,
      "start": 4.4371,
      "duration": 0.0729,
      "velocity": 97,
      "chip": "ym2612"
    },
    {
      "channel": 2,
      "note": 105,
      "start": 4.4404,
      "duration": 0.2315,
      "velocity": 118,
      "chip": "ym2612"
    },
    {
      "channel": 1,
      "note": 70,
      "start": 4.557,
      "duration": 0.1536,
      "velocity": 97,
      "chip": "ym2612"
    },
    {
      "channel": 2,
      "note": 105,
      "start": 4.6784,
      "duration": 0.1134,
      "velocity": 118,
      "chip": "ym2612"
    },
    {
      "channel": 5,
      "note": 44,
      "start": 4.6808,
      "duration": 0.1112,
      "velocity": 127,
      "chip": "ym2612"
    },
    {
      "channel": 0,
      "note": 39,
      "start": 4.7971,
      "duration": 0.2327,
      "velocity": 109,
      "chip": "ym2612"
    },
    {
      "channel": 4,
      "note": 77,
      "start": 4.7998,
      "duration": 0.1576,
      "velocity": 97,
      "chip": "ym2612"
    },
    {
      "channel": 2,
      "note": 105,
      "start": 4.8016,
      "duration": 0.2299,
      "velocity": 118,
      "chip": "ym2612"
    },
    {
      "channel": 0,
      "note": 41,
      "start": 5.0391,
      "duration": 1.6661,
      "velocity": 109,
      "chip": "ym2612"
    },
    {
      "channel": 3,
      "note": 72,
      "start": 5.0407,
      "duration": 0.1554,
      "velocity": 97,
      "chip": "ym2612"
    },
    {
      "channel": 2,
      "note": 105,
      "start": 5.0436,
      "duration": 0.1085,
      "velocity": 118,
      "chip": "ym2612"
    },
    {
      "channel": 5,
      "note": 38,
      "start": 5.0451,
      "duration": 0.1071,
      "velocity": 127,
      "chip": "ym2612"
    },
    {
      "channel": 2,
      "note": 105,
      "start": 5.1586,
      "duration": 0.2336,
      "velocity": 118,
      "chip": "ym2612"
    },
    {
      "channel": 1,
      "note": 70,
      "start": 5.2775,
      "duration": 0.0735,
      "velocity": 97,
      "chip": "ym2612"
    },
    {
      "channel": 4,
      "note": 69,
      "start": 5.3994,
      "duration": 0.2385,
      "velocity": 97,
      "chip": "ym2612"
    },
    {
      "channel": 2,
      "note": 105,
      "start": 5.4012,
      "duration": 0.111,
      "velocity": 118,
      "chip": "ym2612"
    },
    {
      "channel": 5,
      "note": 38,
      "start": 5.4028,
      "duration": 0.1095,
      "velocity": 127,
      "chip": "ym2612"
    },
    {
      "channel": 2,
      "note": 105,
      "start": 5.5187,
      "duration": 0.2338,
      "velocity": 118,
      "chip": "ym2612"
    },
    {
      "channel": 3,
      "note": 70,
      "start": 5.7589,
      "duration": 0.2377,
      "velocity": 97,
      "chip": "ym2612"
    },
    {
      "channel": 2,
      "note": 105,
      "start": 5.7616,
      "duration": 0.1111,
      "velocity": 118,
      "chip": "ym2612"
    },
    {
      "channel": 5,
      "note": 38,
      "start": 5.7632,
      "duration": 0.1097,
      "velocity": 127,
      "chip": "ym2612"
    },
    {
      "channel": 2,
      "note": 105,
      "start": 5.8791,
      "duration": 0.1134,
      "velocity": 118,
      "chip": "ym2612"
    },
    {
      "channel": 5,
      "note": 38,
      "start": 6.0004,
      "duration": 0.0841,
      "velocity": 127,
      "chip": "ym2612"
    },
    {
      "channel": 1,
      "note": 69,
      "start": 6.1188,
      "duration": 0.073,
      "velocity": 97,
      "chip": "ym2612"
    },
    {
      "channel": 2,
      "note": 105,
      "start": 6.1215,
      "duration": 0.2312,
      "velocity": 118,
      "chip": "ym2612"
    },
    {
      "channel": 4,
      "note": 70,
      "start": 6.2389,
      "duration": 0.1591,
      "velocity": 97,
      "chip": "ym2612"
    },
    {
      "channel": 2,
      "note": 105,
      "start": 6.3595,
      "duration": 0.1137,
      "velocity": 118,
      "chip": "ym2612"
    },
    {
      "channel": 5,
      "note": 44,
      "start": 6.3619,
      "duration": 0.1115,
      "velocity": 127,
      "chip": "ym2612"
    },
    {
      "channel": 3,
      "note": 77,
      "start": 6.478,
      "duration": 0.1534,
      "velocity": 97,
      "chip": "ym2612"
    },
    {
      "channel": 2,
      "note": 105,
      "start": 6.4808,
      "duration": 0.2322,
      "velocity": 118,
      "chip": "ym2612"
    },
    {
      "channel": 0,
      "note": 46,
      "start": 6.7228,
      "duration": 3.2455,
      "velocity": 109,
      "chip": "ym2612"
    },
    {
      "channel": 3,
      "note": 69,
      "start": 6.7254,
      "duration": 0.2239,
      "velocity": 91,
      "chip": "ym2612"
    },
    {
      "channel": 1,
      "note": 72,
      "start": 6.7283,
      "duration": 0.222,
      "velocity": 91,
      "chip": "ym2612"
    },
    {
      "channel": 4,
      "note": 70,
      "start": 6.7301,
      "duration": 0.1596,
      "velocity": 97,
      "chip": "ym2612"
    },
    {
      "channel": 2,
      "note": 105,
      "start": 6.7319,
      "duration": 0.0981,
      "velocity": 118,
      "chip": "ym2612"
    },
    {
      "channel": 5,
      "note": 38,
      "start": 6.7334,
      "duration": 0.1116,
      "velocity": 127,
      "chip": "ym2612"
    },
    {
      "channel": 2,
      "note": 105,
      "start": 6.8338,
      "duration": 0.2337,
      "velocity": 118,
      "chip": "ym2612"
    },
    {
      "channel": 3,
      "note": 94,
      "start": 6.9539,
      "duration": 0.2322,
      "velocity": 91,
      "chip": "ym2612"
    },
    {
      "channel": 1,
      "note": 98,
      "start": 6.956,
      "duration": 0.2302,
      "velocity": 91,
      "chip": "ym2612"
    },
    {
      "channel": 4,
      "note": 70,
      "start": 6.9577,
      "duration": 0.0695,
      "velocity": 97,
      "chip": "ym2612"
    },
    {
      "channel": 4,
      "note": 69,
      "start": 7.0749,
      "duration": 0.2379,
      "velocity": 97,
      "chip": "ym2612"
    },
    {
      "channel": 2,
      "note": 105,
      "start": 7.0768,
      "duration": 0.1101,
      "velocity": 118,
      "chip": "ym2612"
    },
    {
      "channel": 5,
      "note": 38,
      "start": 7.0783,
      "duration": 0.1087,
      "velocity": 127,
      "chip": "ym2612"
    },
    {
      "channel": 3,
      "note": 98,
      "start": 7.1928,
      "duration": 0.2334,
      "velocity": 91,
      "chip": "ym2612"
    },
    {
      "channel": 1,
      "note": 94,
      "start": 7.1944,
      "duration": 0.2319,
      "velocity": 91,
      "chip": "ym2612"
    },
    {
      "channel": 2,
      "note": 105,
      "start": 7.1966,
      "duration": 0.2306,
      "velocity": 118,
      "chip": "ym2612"
    },
    {
      "channel": 3,
      "note": 98,
      "start": 7.4352,
      "duration": 0.2368,
      "velocity": 91,
      "chip": "ym2612"
    },
    {
      "channel": 1,
      "note": 94,
      "start": 7.4369,
      "duration": 0.2354,
      "velocity": 91,
      "chip": "ym2612"
    },
    {
      "channel": 4,
      "note": 70,
      "start": 7.4388,
      "duration": 0.2425,
      "velocity": 97,
      "chip": "ym2612"
    },
    {
      "channel": 2,
      "note": 105,
      "start": 7.4406,
      "duration": 0.1128,
      "velocity": 118,
      "chip": "ym2612"
    },
    {
      "channel": 5,
      "note": 38,
      "start": 7.4422,
      "duration": 0.1115,
      "velocity": 127,
      "chip": "ym2612"
    },
    {
      "channel": 2,
      "note": 105,
      "start": 7.56,
      "duration": 0.1129,
      "velocity": 118,
      "chip": "ym2612"
    },
    {
      "channel": 3,
      "note": 98,
      "start": 7.6789,
      "duration": 0.2334,
      "velocity": 91,
      "chip": "ym2612"
    },
    {
      "channel": 1,
      "note": 94,
      "start": 7.6805,
      "duration": 0.2319,
      "velocity": 91,
      "chip": "ym2612"
    },
    {
      "channel": 5,
      "note": 38,
      "start": 7.6836,
      "duration": 0.0823,
      "velocity": 127,
      "chip": "ym2612"
    },
    {
      "channel": 4,
      "note": 77,
      "start": 7.8004,
      "duration": 0.0728,
      "velocity": 97,
      "chip": "ym2612"
    },
    {
      "channel": 2,
      "note": 105,
      "start": 7.8022,
      "duration": 0.2316,
      "velocity": 118,
      "chip": "ym2612"
    },
    {
      "channel": 3,
      "note": 98,
      "start": 7.9195,
      "duration": 0.2329,
      "velocity": 91,
      "chip": "ym2612"
    },
    {
      "channel": 1,
      "note": 94,
      "start": 7.9214,
      "duration": 0.2311,
      "velocity": 91,
      "chip": "ym2612"
    },
    {
      "channel": 4,
      "note": 72,
      "start": 7.9231,
      "duration": 0.156,
      "velocity": 97,
      "chip": "ym2612"
    },
    {
      "channel": 2,
      "note": 105,
      "start": 8.0406,
      "duration": 0.1126,
      "velocity": 118,
      "chip": "ym2612"
    },
    {
      "channel": 5,
      "note": 44,
      "start": 8.043,
      "duration": 0.1104,
      "velocity": 127,
      "chip": "ym2612"
    },
    {
      "channel": 3,
      "note": 98,
      "start": 8.1603,
      "duration": 0.2323,
      "velocity": 91,
      "chip": "ym2612"
    },
    {
      "channel": 1,
      "note": 94,
      "start": 8.1619,
      "duration": 0.2308,
      "velocity": 91,
      "chip": "ym2612"
    },
    {
      "channel": 4,
      "note": 70,
      "start": 8.1635,
      "duration": 0.1557,
      "velocity": 97,
      "chip": "ym2612"
    },
    {
      "channel": 2,
      "note": 105,
      "start": 8.1654,
      "duration": 0.228,
      "velocity": 118,
      "chip": "ym2612"
    },
    {
      "channel": 3,
      "note": 98,
      "start": 8.4024,
      "duration": 0.2361,
      "velocity": 91,
      "chip": "ym2612"
    },
    {
      "channel": 1,
      "note": 94,
      "start": 8.4042,
      "duration": 0.2345,
      "velocity": 91,
      "chip": "ym2612"
    },
    {
      "channel": 4,
      "note": 69,
      "start": 8.406,
      "duration": 0.1591,
      "velocity": 97,
      "chip": "ym2612"
    },
    {
      "channel": 2,
      "note": 105,
      "start": 8.4078,
      "duration": 0.1121,
      "velocity": 118,
      "chip": "ym2612"
    },
    {
      "channel": 5,
      "note": 38,
      "start": 8.4093,
      "duration": 0.1107,
      "velocity": 127,
      "chip": "ym2612"
    },
    {
      "channel": 2,
      "note": 105,
      "start": 8.5264,
      "duration": 0.2336,
      "velocity": 118,
      "chip": "ym2612"
    },
    {
      "channel": 3,
      "note": 98,
      "start": 8.6459,
      "duration": 0.2327,
      "velocity": 91,
      "chip": "ym2612"
    },
    {
      "channel": 1,
      "note": 94,
      "start": 8.6475,
      "duration": 0.2312,
      "velocity": 91,
      "chip": "ym2612"
    },
    {
      "channel": 4,
      "note": 70,
      "start": 8.6491,
      "duration": 0.0708,
      "velocity": 97,
      "chip": "ym2612"
    },
    {
      "channel": 4,
      "note": 69,
      "start": 8.7672,
      "duration": 0.2385,
      "velocity": 97,
      "chip": "ym2612"
    },
    {
      "channel": 2,
      "note": 105,
      "start": 8.7691,
      "duration": 0.1104,
      "velocity": 118,
      "chip": "ym2612"
    },
    {
      "channel": 5,
      "note": 38,
      "start": 8.7707,
      "duration": 0.1089,
      "velocity": 127,
      "chip": "ym2612"
    },
    {
      "channel": 3,
      "note": 98,
      "start": 8.8851,
      "duration": 0.2337,
      "velocity": 91,
      "chip": "ym2612"
    },
    {
      "channel": 1,
      "note": 94,
      "start": 8.8867,
      "duration": 0.2321,
      "velocity": 91,
      "chip": "ym2612"
    },
    {
      "channel": 2,
      "note": 105,
      "start": 8.8892,
      "duration": 0.2305,
      "velocity": 118,
      "chip": "ym2612"
    },
    {
      "channel": 3,
      "note": 98,
      "start": 9.1282,
      "duration": 0.2364,
      "velocity": 91,
      "chip": "ym2612"
    },
    {
      "channel": 1,
      "note": 94,
      "start": 9.1298,
      "duration": 0.235,
      "velocity": 91,
      "chip": "ym2612"
    },
    {
      "channel": 4,
      "note": 70,
      "start": 9.1314,
      "duration": 0.2426,
      "velocity": 97,
      "chip": "ym2612"
    },
    {
      "channel": 2,
      "note": 105,
      "start": 9.1332,
      "duration": 0.1129,
      "velocity": 118,
      "chip": "ym2612"
    },
    {
      "channel": 5,
      "note": 38,
      "start": 9.1348,
      "duration": 0.1115,
      "velocity": 127,
      "chip": "ym2612"
    },
    {
      "channel": 2,
      "note": 105,
      "start": 9.2527,
      "duration": 0.1128,
      "velocity": 118,
      "chip": "ym2612"
    },
    {
      "channel": 3,
      "note": 98,
      "start": 9.3715,
      "duration": 0.2335,
      "velocity": 91,
      "chip": "ym2612"
    },
    {
      "channel": 1,
      "note": 94,
      "start": 9.3732,
      "duration": 0.232,
      "velocity": 91,
      "chip": "ym2612"
    },
    {
      "channel": 5,
      "note": 38,
      "start": 9.3764,
      "duration": 0.0822,
      "velocity": 127,
      "chip": "ym2612"
    },
    {
      "channel": 4,
      "note": 77,
      "start": 9.4932,
      "duration": 0.0725,
      "velocity": 97,
      "chip": "ym2612"
    },
    {
      "channel": 2,
      "note": 105,
      "start": 9.4951,
      "duration": 0.2313,
      "velocity": 118,
      "chip": "ym2612"
    },
    {
      "channel": 3,
      "note": 98,
      "start": 9.6124,
      "duration": 0.2325,
      "velocity": 91,
      "chip": "ym2612"
    },
    {
      "channel": 1,
      "note": 94,
      "start": 9.6141,
      "duration": 0.231,
      "velocity": 91,
      "chip": "ym2612"
    },
    {
      "channel": 4,
      "note": 72,
      "start": 9.6157,
      "duration": 0.1562,
      "velocity": 97,
      "chip": "ym2612"
    },
    {
      "channel": 2,
      "note": 105,
      "start": 9.7329,
      "duration": 0.1129,
      "velocity": 118,
      "chip": "ym2612"
    },
    {
      "channel": 5,
      "note": 44,
      "start": 9.7353,
      "duration": 0.1106,
      "velocity": 127,
      "chip": "ym2612"
    },
    {
      "channel": 3,
      "note": 98,
      "start": 9.8524,
      "duration": 0.2323,
      "velocity": 91,
      "chip": "ym2612"
    },
    {
      "channel": 1,
      "note": 94,
      "start": 9.8542,
      "duration": 0.2307,
      "velocity": 91,
      "chip": "ym2612"
    },
    {
      "channel": 4,
      "note": 70,
      "start": 9.856,
      "duration": 0.1558,
      "velocity": 97,
      "chip": "ym2612"
    },
    {
      "channel": 2,
      "note": 105,
      "start": 9.8578,
      "duration": 0.2278,
      "velocity": 118,
      "chip": "ym2612"
    },
    {
      "channel": 0,
      "note": 48,
      "start": 9.9714,
      "duration": 0.1133,
      "velocity": 109,
      "chip": "ym2612"
    },
    {
      "channel": 0,
      "note": 46,
      "start": 10.0934,
      "duration": 0.2179,
      "velocity": 109,
      "chip": "ym2612"
    },
    {
      "channel": 4,
      "note": 69,
      "start": 10.0961,
      "duration": 0.1501,
      "velocity": 97,
      "chip": "ym2612"
    },
    {
      "channel": 2,
      "note": 105,
      "start": 10.0979,
      "duration": 0.1088,
      "velocity": 118,
      "chip": "ym2612"
    },
    {
      "channel": 5,
      "note": 38,
      "start": 10.0994,
      "duration": 0.1075,
      "velocity": 127,
      "chip": "ym2612"
    },
    {
      "channel": 2,
      "note": 105,
      "start": 10.2137,
      "duration": 0.2207,
      "velocity": 118,
      "chip": "ym2612"
    },
    {
      "channel": 0,
      "note": 39,
      "start": 10.3145,
      "duration": 0.2333,
      "velocity": 109,
      "chip": "ym2612"
    },
    {
      "channel": 3,
      "note": 98,
      "start": 10.3171,
      "duration": 0.0713,
      "velocity": 97,
      "chip": "ym2612"
    },
    {
      "channel": 1,
      "note": 94,
      "start": 10.4382,
      "duration": 0.2374,
      "velocity": 97,
      "chip": "ym2612"
    },
    {
      "channel": 2,
      "note": 105,
      "start": 10.4406,
      "duration": 0.1089,
      "velocity": 118,
      "chip": "ym2612"
    },
    {
      "channel": 5,
      "note": 38,
      "start": 10.4422,
      "duration": 0.1075,
      "velocity": 127,
      "chip": "ym2612"
    },
    {
      "channel": 0,
      "note": 43,
      "start": 10.5546,
      "duration": 0.1132,
      "velocity": 109,
      "chip": "ym2612"
    },
    {
      "channel": 2,
      "note": 105,
      "start": 10.558,
      "duration": 0.232,
      "velocity": 118,
      "chip": "ym2612"
    },
    {
      "channel": 0,
      "note": 46,
      "start": 10.6744,
      "duration": 0.1136,
      "velocity": 109,
      "chip": "ym2612"
    },
    {
      "channel": 0,
      "note": 46,
      "start": 10.7965,
      "duration": 0.1115,
      "velocity": 109,
      "chip": "ym2612"
    },
    {
      "channel": 4,
      "note": 70,
      "start": 10.7993,
      "duration": 0.2377,
      "velocity": 97,
      "chip": "ym2612"
    },
    {
      "channel": 2,
      "note": 105,
      "start": 10.801,
      "duration": 0.1088,
      "velocity": 118,
      "chip": "ym2612"
    },
    {
      "channel": 5,
      "note": 38,
      "start": 10.8026,
      "duration": 0.1074,
      "velocity": 127,
      "chip": "ym2612"
    },
    {
      "channel": 0,
      "note": 48,
      "start": 10.9145,
      "duration": 0.1136,
      "velocity": 109,
      "chip": "ym2612"
    },
    {
      "channel": 2,
      "note": 105,
      "start": 10.9178,
      "duration": 0.112,
      "velocity": 118,
      "chip": "ym2612"
    },
    {
      "channel": 0,
      "note": 48,
      "start": 11.0346,
      "duration": 0.1135,
      "velocity": 109,
      "chip": "ym2612"
    },
    {
      "channel": 5,
      "note": 38,
      "start": 11.0395,
      "duration": 0.0828,
      "velocity": 127,
      "chip": "ym2612"
    },
    {
      "channel": 0,
      "note": 51,
      "start": 11.1563,
      "duration": 0.112,
      "velocity": 109,
      "chip": "ym2612"
    },
    {
      "channel": 3,
      "note": 69,
      "start": 11.1578,
      "duration": 0.0709,
      "velocity": 97,
      "chip": "ym2612"
    },
    {
      "channel": 2,
      "note": 105,
      "start": 11.1609,
      "duration": 0.2295,
      "velocity": 118,
      "chip": "ym2612"
    },
    {
      "channel": 0,
      "note": 51,
      "start": 11.2753,
      "duration": 0.2332,
      "velocity": 109,
      "chip": "ym2612"
    },
    {
      "channel": 1,
      "note": 70,
      "start": 11.2776,
      "duration": 0.1576,
      "velocity": 97,
      "chip": "ym2612"
    },
    {
      "channel": 2,
      "note": 105,
      "start": 11.3971,
      "duration": 0.1132,
      "velocity": 118,
      "chip": "ym2612"
    },
    {
      "channel": 5,
      "note": 44,
      "start": 11.3995,
      "duration": 0.111,
      "velocity": 127,
      "chip": "ym2612"
    },
    {
      "channel": 0,
      "note": 53,
      "start": 11.5155,
      "duration": 0.1171,
      "velocity": 109,
      "chip": "ym2612"
    },
    {
      "channel": 4,
      "note": 77,
      "start": 11.5182,
      "duration": 0.1519,
      "velocity": 97,
      "chip": "ym2612"
    },
    {
      "channel": 2,
      "note": 105,
      "start": 11.52,
      "duration": 0.2303,
      "velocity": 118,
      "chip": "ym2612"
    },
    {
      "channel": 0,
      "note": 55,
      "start": 11.6351,
      "duration": 0.1135,
      "velocity": 109,
      "chip": "ym2612"
    },
    {
      "channel": 0,
      "note": 55,
      "start": 11.758,
      "duration": 1.666,
      "velocity": 109,
      "chip": "ym2612"
    },
    {
      "channel": 3,
      "note": 72,
      "start": 11.7598,
      "duration": 0.1551,
      "velocity": 97,
      "chip": "ym2612"
    },
    {
      "channel": 2,
      "note": 105,
      "start": 11.7626,
      "duration": 0.1086,
      "velocity": 118,
      "chip": "ym2612"
    },
    {
      "channel": 5,
      "note": 38,
      "start": 11.7641,
      "duration": 0.1073,
      "velocity": 127,
      "chip": "ym2612"
    },
    {
      "channel": 2,
      "note": 105,
      "start": 11.8774,
      "duration": 0.2337,
      "velocity": 118,
      "chip": "ym2612"
    },
    {
      "channel": 1,
      "note": 70,
      "start": 11.9963,
      "duration": 0.0735,
      "velocity": 97,
      "chip": "ym2612"
    },
    {
      "channel": 4,
      "note": 69,
      "start": 12.1182,
      "duration": 0.2382,
      "velocity": 97,
      "chip": "ym2612"
    },
    {
      "channel": 2,
      "note": 105,
      "start": 12.1201,
      "duration": 0.111,
      "velocity": 118,
      "chip": "ym2612"
    },
    {
      "channel": 5,
      "note": 38,
      "start": 12.1219,
      "duration": 0.1093,
      "velocity": 127,
      "chip": "ym2612"
    },
    {
      "channel": 2,
      "note": 105,
      "start": 12.2378,
      "duration": 0.2338,
      "velocity": 118,
      "chip": "ym2612"
    },
    {
      "channel": 3,
      "note": 70,
      "start": 12.4777,
      "duration": 0.2377,
      "velocity": 97,
      "chip": "ym2612"
    },
    {
      "channel": 2,
      "note": 105,
      "start": 12.4805,
      "duration": 0.1108,
      "velocity": 118,
      "chip": "ym2612"
    },
    {
      "channel": 5,
      "note": 38,
      "start": 12.482,
      "duration": 0.1093,
      "velocity": 127,
      "chip": "ym2612"
    },
    {
      "channel": 2,
      "note": 105,
      "start": 12.5979,
      "duration": 0.1133,
      "velocity": 118,
      "chip": "ym2612"
    },
    {
      "channel": 2,
      "note": 105,
      "start": 12.7178,
      "duration": 0.1137,
      "velocity": 118,
      "chip": "ym2612"
    },
    {
      "channel": 5,
      "note": 38,
      "start": 12.7201,
      "duration": 0.0831,
      "velocity": 127,
      "chip": "ym2612"
    },
    {
      "channel": 1,
      "note": 69,
      "start": 12.8371,
      "duration": 0.0735,
      "velocity": 97,
      "chip": "ym2612"
    },
    {
      "channel": 2,
      "note": 105,
      "start": 12.8399,
      "duration": 0.1116,
      "velocity": 118,
      "chip": "ym2612"
    },
    {
      "channel": 4,
      "note": 70,
      "start": 12.9579,
      "duration": 0.1532,
      "velocity": 97,
      "chip": "ym2612"
    },
    {
      "channel": 2,
      "note": 105,
      "start": 12.9597,
      "duration": 0.112,
      "velocity": 118,
      "chip": "ym2612"
    },
    {
      "channel": 2,
      "note": 105,
      "start": 13.0782,
      "duration": 0.1135,
      "velocity": 118,
      "chip": "ym2612"
    },
    {
      "channel": 5,
      "note": 44,
      "start": 13.0806,
      "duration": 0.1113,
      "velocity": 127,
      "chip": "ym2612"
    },
    {
      "channel": 3,
      "note": 77,
      "start": 13.1973,
      "duration": 0.1586,
      "velocity": 97,
      "chip": "ym2612"
    },
    {
      "channel": 2,
      "note": 105,
      "start": 13.2001,
      "duration": 0.1118,
      "velocity": 118,
      "chip": "ym2612"
    },
    {
      "channel": 5,
      "note": 38,
      "start": 13.2024,
      "duration": 0.0813,
      "velocity": 127,
      "chip": "ym2612"
    },
    {
      "channel": 2,
      "note": 105,
      "start": 13.3182,
      "duration": 0.1136,
      "velocity": 118,
      "chip": "ym2612"
    },
    {
      "channel": 0,
      "note": 53,
      "start": 13.4418,
      "duration": 3.3529,
      "velocity": 109,
      "chip": "ym2612"
    },
    {
      "channel": 3,
      "note": 69,
      "start": 13.4444,
      "duration": 2.7464,
      "velocity": 85,
      "chip": "ym2612"
    },
    {
      "channel": 1,
      "note": 72,
      "start": 13.4472,
      "duration": 2.7448,
      "velocity": 85,
      "chip": "ym2612"
    },
    {
      "channel": 4,
      "note": 70,
      "start": 13.449,
      "duration": 0.1595,
      "velocity": 97,
      "chip": "ym2612"
    },
    {
      "channel": 2,
      "note": 105,
      "start": 13.4509,
      "duration": 0.1124,
      "velocity": 118,
      "chip": "ym2612"
    },
    {
      "channel": 5,
      "note": 44,
      "start": 13.4532,
      "duration": 0.1102,
      "velocity": 127,
      "chip": "ym2612"
    },
    {
      "channel": 2,
      "note": 105,
      "start": 13.5698,
      "duration": 0.2338,
      "velocity": 118,
      "chip": "ym2612"
    },
    {
      "channel": 4,
      "note": 70,
      "start": 13.6897,
      "duration": 0.0732,
      "velocity": 97,
      "chip": "ym2612"
    },
    {
      "channel": 4,
      "note": 69,
      "start": 13.8114,
      "duration": 0.2382,
      "velocity": 97,
      "chip": "ym2612"
    },
    {
      "channel": 2,
      "note": 105,
      "start": 13.8132,
      "duration": 0.0958,
      "velocity": 118,
      "chip": "ym2612"
    },
    {
      "channel": 5,
      "note": 38,
      "start": 13.8148,
      "duration": 0.1096,
      "velocity": 127,
      "chip": "ym2612"
    },
    {
      "channel": 2,
      "note": 105,
      "start": 13.9137,
      "duration": 0.2337,
      "velocity": 118,
      "chip": "ym2612"
    },
    {
      "channel": 4,
      "note": 70,
      "start": 14.155,
      "duration": 0.2376,
      "velocity": 97,
      "chip": "ym2612"
    },
    {
      "channel": 2,
      "note": 105,
      "start": 14.1568,
      "duration": 0.1103,
      "velocity": 118,
      "chip": "ym2612"
    },
    {
      "channel": 5,
      "note": 38,
      "start": 14.1584,
      "duration": 0.1089,
      "velocity": 127,
      "chip": "ym2612"
    },
    {
      "channel": 2,
      "note": 105,
      "start": 14.2739,
      "duration": 0.1134,
      "velocity": 118,
      "chip": "ym2612"
    },
    {
      "channel": 5,
      "note": 38,
      "start": 14.3949,
      "duration": 0.0844,
      "velocity": 127,
      "chip": "ym2612"
    },
    {
      "channel": 4,
      "note": 77,
      "start": 14.5144,
      "duration": 0.0723,
      "velocity": 97,
      "chip": "ym2612"
    },
    {
      "channel": 2,
      "note": 105,
      "start": 14.5161,
      "duration": 0.2314,
      "velocity": 118,
      "chip": "ym2612"
    },
    {
      "channel": 4,
      "note": 72,
      "start": 14.6337,
      "duration": 0.1588,
      "velocity": 97,
      "chip": "ym2612"
    },
    {
      "channel": 2,
      "note": 105,
      "start": 14.7548,
      "duration": 0.1126,
      "velocity": 118,
      "chip": "ym2612"
    },
    {
      "channel": 5,
      "note": 44,
      "start": 14.7572,
      "duration": 0.1104,
      "velocity": 127,
      "chip": "ym2612"
    },
    {
      "channel": 4,
      "note": 70,
      "start": 14.8737,
      "duration": 0.159,
      "velocity": 97,
      "chip": "ym2612"
    },
    {
      "channel": 2,
      "note": 105,
      "start": 14.8756,
      "duration": 0.2322,
      "velocity": 118,
      "chip": "ym2612"
    },
    {
      "channel": 4,
      "note": 69,
      "start": 15.1163,
      "duration": 0.1511,
      "velocity": 97,
      "chip": "ym2612"
    },
    {
      "channel": 2,
      "note": 105,
      "start": 15.1182,
      "duration": 0.1097,
      "velocity": 118,
      "chip": "ym2612"
    },
    {
      "channel": 5,
      "note": 38,
      "start": 15.1196,
      "duration": 0.1083,
      "velocity": 127,
      "chip": "ym2612"
    },
    {
      "channel": 2,
      "note": 105,
      "start": 15.2343,
      "duration": 0.2333,
      "velocity": 118,
      "chip": "ym2612"
    },
    {
      "channel": 4,
      "note": 70,
      "start": 15.3542,
      "duration": 0.0731,
      "velocity": 97,
      "chip": "ym2612"
    },
    {
      "channel": 4,
      "note": 69,
      "start": 15.4757,
      "duration": 0.2377,
      "velocity": 97,
      "chip": "ym2612"
    },
    {
      "channel": 2,
      "note": 105,
      "start": 15.4776,
      "duration": 0.1109,
      "velocity": 118,
      "chip": "ym2612"
    },
    {
      "channel": 5,
      "note": 38,
      "start": 15.4792,
      "duration": 0.1094,
      "velocity": 127,
      "chip": "ym2612"
    },
    {
      "channel": 2,
      "note": 105,
      "start": 15.5947,
      "duration": 0.2337,
      "velocity": 118,
      "chip": "ym2612"
    },
    {
      "channel": 4,
      "note": 70,
      "start": 15.8358,
      "duration": 0.2379,
      "velocity": 97,
      "chip": "ym2612"
    },
    {
      "channel": 2,
      "note": 105,
      "start": 15.8379,
      "duration": 0.1104,
      "velocity": 118,
      "chip": "ym2612"
    },
    {
      "channel": 5,
      "note": 38,
      "start": 15.8395,
      "duration": 0.109,
      "velocity": 127,
      "chip": "ym2612"
    },
    {
      "channel": 2,
      "note": 105,
      "start": 15.9553,
      "duration": 0.1132,
      "velocity": 118,
      "chip": "ym2612"
    },
    {
      "channel": 5,
      "note": 38,
      "start": 16.0761,
      "duration": 0.0845,
      "velocity": 127,
      "chip": "ym2612"
    },
    {
      "channel": 3,
      "note": 86,
      "start": 16.1965,
      "duration": 0.1156,
      "velocity": 85,
      "chip": "ym2612"
    },
    {
      "channel": 1,
      "note": 82,
      "start": 16.1983,
      "duration": 0.114,
      "velocity": 85,
      "chip": "ym2612"
    },
    {
      "channel": 4,
      "note": 77,
      "start": 16.2002,
      "duration": 0.073,
      "velocity": 97,
      "chip": "ym2612"
    },
    {
      "channel": 2,
      "note": 105,
      "start": 16.202,
      "duration": 0.2317,
      "velocity": 118,
      "chip": "ym2612"
    },
    {
      "channel": 3,
      "note": 86,
      "start": 16.3195,
      "duration": 0.2328,
      "velocity": 85,
      "chip": "ym2612"
    },
    {
      "channel": 1,
      "note": 82,
      "start": 16.3217,
      "duration": 0.2308,
      "velocity": 85,
      "chip": "ym2612"
    },
    {
      "channel": 4,
      "note": 72,
      "start": 16.3235,
      "duration": 0.1555,
      "velocity": 97,
      "chip": "ym2612"
    },
    {
      "channel": 2,
      "note": 105,
      "start": 16.4406,
      "duration": 0.1126,
      "velocity": 118,
      "chip": "ym2612"
    },
    {
      "channel": 5,
      "note": 44,
      "start": 16.4429,
      "duration": 0.1104,
      "velocity": 127,
      "chip": "ym2612"
    },
    {
      "channel": 3,
      "note": 87,
      "start": 16.56,
      "duration": 0.2324,
      "velocity": 85,
      "chip": "ym2612"
    },
    {
      "channel": 1,
      "note": 84,
      "start": 16.5617,
      "duration": 0.2309,
      "velocity": 85,
      "chip": "ym2612"
    },
    {
      "channel": 4,
      "note": 70,
      "start": 16.5635,
      "duration": 0.1557,
      "velocity": 97,
      "chip": "ym2612"
    },
    {
      "channel": 2,
      "note": 105,
      "start": 16.5653,
      "duration": 0.228,
      "velocity": 118,
      "chip": "ym2612"
    },
    {
      "channel": 0,
      "note": 48,
      "start": 16.8023,
      "duration": 1.4273,
      "velocity": 109,
      "chip": "ym2612"
    },
    {
      "channel": 3,
      "note": 89,
      "start": 16.804,
      "duration": 1.3018,
      "velocity": 85,
      "chip": "ym2612"
    },
    {
      "channel": 1,
      "note": 86,
      "start": 16.806,
      "duration": 1.3009,
      "velocity": 85,
      "chip": "ym2612"
    },
    {
      "channel": 4,
      "note": 69,
      "start": 16.8077,
      "duration": 0.1573,
      "velocity": 97,
      "chip": "ym2612"
    },
    {
      "channel": 2,
      "note": 105,
      "start": 16.8096,
      "duration": 0.1102,
      "velocity": 118,
      "chip": "ym2612"
    },
    {
      "channel": 5,
      "note": 38,
      "start": 16.811,
      "duration": 0.109,
      "velocity": 127,
      "chip": "ym2612"
    },
    {
      "channel": 2,
      "note": 105,
      "start": 16.9264,
      "duration": 0.2338,
      "velocity": 118,
      "chip": "ym2612"
    },
    {
      "channel": 4,
      "note": 70,
      "start": 17.0459,
      "duration": 0.0735,
      "velocity": 97,
      "chip": "ym2612"
    },
    {
      "channel": 4,
      "note": 69,
      "start": 17.1677,
      "duration": 0.2386,
      "velocity": 97,
      "chip": "ym2612"
    },
    {
      "channel": 2,
      "note": 105,
      "start": 17.1695,
      "duration": 0.111,
      "velocity": 118,
      "chip": "ym2612"
    },
    {
      "channel": 5,
      "note": 38,
      "start": 17.1714,
      "duration": 0.1092,
      "velocity": 127,
      "chip": "ym2612"
    },
    {
      "channel": 2,
      "note": 105,
      "start": 17.2866,
      "duration": 0.2218,
      "velocity": 118,
      "chip": "ym2612"
    },
    {
      "channel": 4,
      "note": 70,
      "start": 17.5119,
      "duration": 0.2372,
      "velocity": 97,
      "chip": "ym2612"
    },
    {
      "channel": 2,
      "note": 105,
      "start": 17.5137,
      "duration": 0.1102,
      "velocity": 118,
      "chip": "ym2612"
    },
    {
      "channel": 5,
      "note": 38,
      "start": 17.5153,
      "duration": 0.1088,
      "velocity": 127,
      "chip": "ym2612"
    },
    {
      "channel": 2,
      "note": 105,
      "start": 17.6301,
      "duration": 0.1137,
      "velocity": 118,
      "chip": "ym2612"
    },
    {
      "channel": 5,
      "note": 38,
      "start": 17.7515,
      "duration": 0.0844,
      "velocity": 127,
      "chip": "ym2612"
    },
    {
      "channel": 4,
      "note": 77,
      "start": 17.8712,
      "duration": 0.0721,
      "velocity": 97,
      "chip": "ym2612"
    },
    {
      "channel": 2,
      "note": 105,
      "start": 17.873,
      "duration": 0.2311,
      "velocity": 118,
      "chip": "ym2612"
    },
    {
      "channel": 4,
      "note": 72,
      "start": 17.9914,
      "duration": 0.1573,
      "velocity": 97,
      "chip": "ym2612"
    },
    {
      "channel": 3,
      "note": 86,
      "start": 18.1111,
      "duration": 0.1167,
      "velocity": 85,
      "chip": "ym2612"
    },
    {
      "channel": 1,
      "note": 82,
      "start": 18.1129,
      "duration": 0.115,
      "velocity": 85,
      "chip": "ym2612"
    },
    {
      "channel": 2,
      "note": 105,
      "start": 18.1154,
      "duration": 0.1132,
      "velocity": 118,
      "chip": "ym2612"
    },
    {
      "channel": 5,
      "note": 44,
      "start": 18.1177,
      "duration": 0.111,
      "velocity": 127,
      "chip": "ym2612"
    },
    {
      "channel": 0,
      "note": 39,
      "start": 18.2359,
      "duration": 0.2373,
      "velocity": 109,
      "chip": "ym2612"
    },
    {
      "channel": 3,
      "note": 86,
      "start": 18.2378,
      "duration": 0.2354,
      "velocity": 85,
      "chip": "ym2612"
    },
    {
      "channel": 1,
      "note": 82,
      "start": 18.2397,
      "duration": 0.2338,
      "velocity": 85,
      "chip": "ym2612"
    },
    {
      "channel": 4,
      "note": 70,
      "start": 18.2415,
      "duration": 0.1588,
      "velocity": 97,
      "chip": "ym2612"
    },
    {
      "channel": 2,
      "note": 105,
      "start": 18.2434,
      "duration": 0.2308,
      "velocity": 118,
      "chip": "ym2612"
    },
    {
      "channel": 0,
      "note": 41,
      "start": 18.4829,
      "duration": 1.6716,
      "velocity": 109,
      "chip": "ym2612"
    },
    {
      "channel": 3,
      "note": 82,
      "start": 18.4845,
      "duration": 0.1149,
      "velocity": 85,
      "chip": "ym2612"
    },
    {
      "channel": 1,
      "note": 79,
      "start": 18.4863,
      "duration": 0.1133,
      "velocity": 85,
      "chip": "ym2612"
    },
    {
      "channel": 4,
      "note": 69,
      "start": 18.4883,
      "duration": 0.1579,
      "velocity": 97,
      "chip": "ym2612"
    },
    {
      "channel": 2,
      "note": 105,
      "start": 18.4901,
      "duration": 0.1101,
      "velocity": 118,
      "chip": "ym2612"
    },
    {
      "channel": 5,
      "note": 38,
      "start": 18.4916,
      "duration": 0.1088,
      "velocity": 127,
      "chip": "ym2612"
    },
    {
      "channel": 3,
      "note": 84,
      "start": 18.6061,
      "duration": 1.4285,
      "velocity": 85,
      "chip": "ym2612"
    },
    {
      "channel": 1,
      "note": 75,
      "start": 18.6079,
      "duration": 1.427,
      "velocity": 85,
      "chip": "ym2612"
    },
    {
      "channel": 2,
      "note": 105,
      "start": 18.6102,
      "duration": 0.2309,
      "velocity": 118,
      "chip": "ym2612"
    },
    {
      "channel": 4,
      "note": 70,
      "start": 18.7271,
      "duration": 0.0735,
      "velocity": 97,
      "chip": "ym2612"
    },
    {
      "channel": 4,
      "note": 69,
      "start": 18.8483,
      "duration": 0.2382,
      "velocity": 97,
      "chip": "ym2612"
    },
    {
      "channel": 2,
      "note": 105,
      "start": 18.8501,
      "duration": 0.1112,
      "velocity": 118,
      "chip": "ym2612"
    },
    {
      "channel": 5,
      "note": 38,
      "start": 18.8517,
      "duration": 0.1098,
      "velocity": 127,
      "chip": "ym2612"
    },
    {
      "channel": 2,
      "note": 105,
      "start": 18.968,
      "duration": 0.2342,
      "velocity": 118,
      "chip": "ym2612"
    },
    {
      "channel": 4,
      "note": 70,
      "start": 19.2103,
      "duration": 0.2371,
      "velocity": 97,
      "chip": "ym2612"
    },
    {
      "channel": 2,
      "note": 105,
      "start": 19.2122,
      "duration": 0.1097,
      "velocity": 118,
      "chip": "ym2612"
    },
    {
      "channel": 5,
      "note": 38,
      "start": 19.2138,
      "duration": 0.1083,
      "velocity": 127,
      "chip": "ym2612"
    },
    {
      "channel": 2,
      "note": 105,
      "start": 19.3287,
      "duration": 0.1134,
      "velocity": 118,
      "chip": "ym2612"
    },
    {
      "channel": 5,
      "note": 38,
      "start": 19.4498,
      "duration": 0.0844,
      "velocity": 127,
      "chip": "ym2612"
    },
    {
      "channel": 4,
      "note": 77,
      "start": 19.5697,
      "duration": 0.0718,
      "velocity": 97,
      "chip": "ym2612"
    },
    {
      "channel": 2,
      "note": 105,
      "start": 19.5718,
      "duration": 0.2305,
      "velocity": 118,
      "chip": "ym2612"
    },
    {
      "channel": 4,
      "note": 72,
      "start": 19.6887,
      "duration": 0.1583,
      "velocity": 97,
      "chip": "ym2612"
    },
    {
      "channel": 2,
      "note": 105,
      "start": 19.8096,
      "duration": 0.1132,
      "velocity": 118,
      "chip": "ym2612"
    },
    {
      "channel": 5,
      "note": 44,
      "start": 19.812,
      "duration": 0.111,
      "velocity": 127,
      "chip": "ym2612"
    },
    {
      "channel": 4,
      "note": 70,
      "start": 19.9292,
      "duration": 0.1522,
      "velocity": 97,
      "chip": "ym2612"
    },
    {
      "channel": 2,
      "note": 105,
      "start": 19.9311,
      "duration": 0.2302,
      "velocity": 118,
      "chip": "ym2612"
    },
    {
      "channel": 3,
      "note": 82,
      "start": 20.0477,
      "duration": 0.1128,
      "velocity": 85,
      "chip": "ym2612"
    },
    {
      "channel": 1,
      "note": 77,
      "start": 20.0495,
      "duration": 0.1111,
      "velocity": 85,
      "chip": "ym2612"
    },
    {
      "channel": 0,
      "note": 46,
      "start": 20.1707,
      "duration": 3.2294,
      "velocity": 109,
      "chip": "ym2612"
    },
    {
      "channel": 3,
      "note": 82,
      "start": 20.1726,
      "duration": 2.7424,
      "velocity": 85,
      "chip": "ym2612"
    },
    {
      "channel": 1,
      "note": 77,
      "start": 20.1745,
      "duration": 2.7417,
      "velocity": 85,
      "chip": "ym2612"
    },
    {
      "channel": 4,
      "note": 69,
      "start": 20.1763,
      "duration": 0.1568,
      "velocity": 97,
      "chip": "ym2612"
    },
    {
      "channel": 2,
      "note": 105,
      "start": 20.1782,
      "duration": 0.1099,
      "velocity": 118,
      "chip": "ym2612"
    },
    {
      "channel": 5,
      "note": 38,
      "start": 20.1797,
      "duration": 0.1085,
      "velocity": 127,
      "chip": "ym2612"
    },
    {
      "channel": 2,
      "note": 105,
      "start": 20.2943,
      "duration": 0.2339,
      "velocity": 118,
      "chip": "ym2612"
    },
    {
      "channel": 4,
      "note": 70,
      "start": 20.4139,
      "duration": 0.0736,
      "velocity": 97,
      "chip": "ym2612"
    },
    {
      "channel": 4,
      "note": 69,
      "start": 20.5357,
      "duration": 0.2383,
      "velocity": 97,
      "chip": "ym2612"
    },
    {
      "channel": 2,
      "note": 105,
      "start": 20.5378,
      "duration": 0.1106,
      "velocity": 118,
      "chip": "ym2612"
    },
    {
      "channel": 5,
      "note": 38,
      "start": 20.5393,
      "duration": 0.1092,
      "velocity": 127,
      "chip": "ym2612"
    },
    {
      "channel": 2,
      "note": 105,
      "start": 20.6549,
      "duration": 0.2216,
      "velocity": 118,
      "chip": "ym2612"
    },
    {
      "channel": 4,
      "note": 70,
      "start": 20.8799,
      "duration": 0.2372,
      "velocity": 97,
      "chip": "ym2612"
    },
    {
      "channel": 2,
      "note": 105,
      "start": 20.8817,
      "duration": 0.11,
      "velocity": 118,
      "chip": "ym2612"
    },
    {
      "channel": 5,
      "note": 38,
      "start": 20.8833,
      "duration": 0.1085,
      "velocity": 127,
      "chip": "ym2612"
    },
    {
      "channel": 2,
      "note": 105,
      "start": 20.9981,
      "duration": 0.1137,
      "velocity": 118,
      "chip": "ym2612"
    },
    {
      "channel": 5,
      "note": 38,
      "start": 21.1194,
      "duration": 0.0845,
      "velocity": 127,
      "chip": "ym2612"
    },
    {
      "channel": 4,
      "note": 77,
      "start": 21.2392,
      "duration": 0.0721,
      "velocity": 97,
      "chip": "ym2612"
    },
    {
      "channel": 2,
      "note": 105,
      "start": 21.241,
      "duration": 0.2314,
      "velocity": 118,
      "chip": "ym2612"
    },
    {
      "channel": 4,
      "note": 72,
      "start": 21.3585,
      "duration": 0.1586,
      "velocity": 97,
      "chip": "ym2612"
    },
    {
      "channel": 2,
      "note": 105,
      "start": 21.4794,
      "duration": 0.1125,
      "velocity": 118,
      "chip": "ym2612"
    },
    {
      "channel": 5,
      "note": 44,
      "start": 21.4817,
      "duration": 0.1103,
      "velocity": 127,
      "chip": "ym2612"
    },
    {
      "channel": 4,
      "note": 70,
      "start": 21.5979,
      "duration": 0.1593,
      "velocity": 97,
      "chip": "ym2612"
    },
    {
      "channel": 2,
      "note": 105,
      "start": 21.5998,
      "duration": 0.2325,
      "velocity": 118,
      "chip": "ym2612"
    },
    {
      "channel": 4,
      "note": 69,
      "start": 21.8411,
      "duration": 0.1562,
      "velocity": 97,
      "chip": "ym2612"
    },
    {
      "channel": 2,
      "note": 105,
      "start": 21.8429,
      "duration": 0.1094,
      "velocity": 118,
      "chip": "ym2612"
    },
    {
      "channel": 5,
      "note": 38,
      "start": 21.8444,
      "duration": 0.1081,
      "velocity": 127,
      "chip": "ym2612"
    },
    {
      "channel": 2,
      "note": 105,
      "start": 21.9588,
      "duration": 0.2333,
      "velocity": 118,
      "chip": "ym2612"
    },
    {
      "channel": 4,
      "note": 70,
      "start": 22.0789,
      "duration": 0.0729,
      "velocity": 97,
      "chip": "ym2612"
    },
    {
      "channel": 4,
      "note": 69,
      "start": 22.2,
      "duration": 0.2383,
      "velocity": 97,
      "chip": "ym2612"
    },
    {
      "channel": 2,
      "note": 105,
      "start": 22.2018,
      "duration": 0.1109,
      "velocity": 118,
      "chip": "ym2612"
    },
    {
      "channel": 5,
      "note": 38,
      "start": 22.2034,
      "duration": 0.1094,
      "velocity": 127,
      "chip": "ym2612"
    },
    {
      "channel": 2,
      "note": 105,
      "start": 22.3193,
      "duration": 0.2337,
      "velocity": 118,
      "chip": "ym2612"
    },
    {
      "channel": 4,
      "note": 70,
      "start": 22.5606,
      "duration": 0.2377,
      "velocity": 97,
      "chip": "ym2612"
    },
    {
      "channel": 2,
      "note": 105,
      "start": 22.5624,
      "duration": 0.1107,
      "velocity": 118,
      "chip": "ym2612"
    },
    {
      "channel": 5,
      "note": 38,
      "start": 22.564,
      "duration": 0.1092,
      "velocity": 127,
      "chip": "ym2612"
    },
    {
      "channel": 2,
      "note": 105,
      "start": 22.6795,
      "duration": 0.1134,
      "velocity": 118,
      "chip": "ym2612"
    },
    {
      "channel": 5,
      "note": 38,
      "start": 22.8006,
      "duration": 0.0844,
      "velocity": 127,
      "chip": "ym2612"
    },
    {
      "channel": 3,
      "note": 86,
      "start": 22.9207,
      "duration": 0.116,
      "velocity": 85,
      "chip": "ym2612"
    },
    {
      "channel": 1,
      "note": 82,
      "start": 22.9229,
      "duration": 0.1139,
      "velocity": 85,
      "chip": "ym2612"
    },
    {
      "channel": 4,
      "note": 77,
      "start": 22.9247,
      "duration": 0.073,
      "velocity": 97,
      "chip": "ym2612"
    },
    {
      "channel": 2,
      "note": 105,
      "start": 22.9265,
      "duration": 0.2318,
      "velocity": 118,
      "chip": "ym2612"
    },
    {
      "channel": 3,
      "note": 86,
      "start": 23.0443,
      "duration": 0.2326,
      "velocity": 85,
      "chip": "ym2612"
    },
    {
      "channel": 1,
      "note": 82,
      "start": 23.0462,
      "duration": 0.2308,
      "velocity": 85,
      "chip": "ym2612"
    },
    {
      "channel": 4,
      "note": 72,
      "start": 23.048,
      "duration": 0.1555,
      "velocity": 97,
      "chip": "ym2612"
    },
    {
      "channel": 2,
      "note": 105,
      "start": 23.1648,
      "duration": 0.1129,
      "velocity": 118,
      "chip": "ym2612"
    },
    {
      "channel": 5,
      "note": 44,
      "start": 23.1671,
      "duration": 0.1107,
      "velocity": 127,
      "chip": "ym2612"
    },
    {
      "channel": 3,
      "note": 87,
      "start": 23.2843,
      "duration": 0.2324,
      "velocity": 85,
      "chip": "ym2612"
    },
    {
      "channel": 1,
      "note": 84,
      "start": 23.2861,
      "duration": 0.2308,
      "velocity": 85,
      "chip": "ym2612"
    },
    {
      "channel": 4,
      "note": 70,
      "start": 23.288,
      "duration": 0.1556,
      "velocity": 97,
      "chip": "ym2612"
    },
    {
      "channel": 2,
      "note": 105,
      "start": 23.2899,
      "duration": 0.2277,
      "velocity": 118,
      "chip": "ym2612"
    },
    {
      "channel": 0,
      "note": 48,
      "start": 23.403,
      "duration": 0.1135,
      "velocity": 109,
      "chip": "ym2612"
    },
    {
      "channel": 0,
      "note": 46,
      "start": 23.5268,
      "duration": 0.2356,
      "velocity": 109,
      "chip": "ym2612"
    },
    {
      "channel": 3,
      "note": 89,
      "start": 23.5285,
      "duration": 1.0625,
      "velocity": 85,
      "chip": "ym2612"
    },
    {
      "channel": 1,
      "note": 86,
      "start": 23.5302,
      "duration": 1.0618,
      "velocity": 85,
      "chip": "ym2612"
    },
    {
      "channel": 4,
      "note": 69,
      "start": 23.532,
      "duration": 0.1519,
      "velocity": 97,
      "chip": "ym2612"
    },
    {
      "channel": 2,
      "note": 105,
      "start": 23.5338,
      "duration": 0.1105,
      "velocity": 118,
      "chip": "ym2612"
    },
    {
      "channel": 5,
      "note": 38,
      "start": 23.5353,
      "duration": 0.1092,
      "velocity": 127,
      "chip": "ym2612"
    },
    {
      "channel": 2,
      "note": 105,
      "start": 23.6509,
      "duration": 0.2338,
      "velocity": 118,
      "chip": "ym2612"
    },
    {
      "channel": 0,
      "note": 39,
      "start": 23.769,
      "duration": 0.2336,
      "velocity": 109,
      "chip": "ym2612"
    },
    {
      "channel": 4,
      "note": 70,
      "start": 23.772,
      "duration": 0.072,
      "velocity": 97,
      "chip": "ym2612"
    },
    {
      "channel": 4,
      "note": 69,
      "start": 23.8925,
      "duration": 0.2392,
      "velocity": 97,
      "chip": "ym2612"
    },
    {
      "channel": 2,
      "note": 105,
      "start": 23.8943,
      "duration": 0.1106,
      "velocity": 118,
      "chip": "ym2612"
    },
    {
      "channel": 5,
      "note": 38,
      "start": 23.8959,
      "duration": 0.1092,
      "velocity": 127,
      "chip": "ym2612"
    },
    {
      "channel": 0,
      "note": 43,
      "start": 24.0091,
      "duration": 0.1135,
      "velocity": 109,
      "chip": "ym2612"
    },
    {
      "channel": 2,
      "note": 105,
      "start": 24.0123,
      "duration": 0.2324,
      "velocity": 118,
      "chip": "ym2612"
    },
    {
      "channel": 0,
      "note": 46,
      "start": 24.1292,
      "duration": 0.1135,
      "velocity": 109,
      "chip": "ym2612"
    },
    {
      "channel": 0,
      "note": 46,
      "start": 24.2513,
      "duration": 0.1115,
      "velocity": 109,
      "chip": "ym2612"
    },
    {
      "channel": 4,
      "note": 70,
      "start": 24.2551,
      "duration": 0.2363,
      "velocity": 97,
      "chip": "ym2612"
    },
    {
      "channel": 2,
      "note": 105,
      "start": 24.2568,
      "duration": 0.1083,
      "velocity": 118,
      "chip": "ym2612"
    },
    {
      "channel": 5,
      "note": 38,
      "start": 24.2584,
      "duration": 0.1068,
      "velocity": 127,
      "chip": "ym2612"
    },
    {
      "channel": 0,
      "note": 48,
      "start": 24.3694,
      "duration": 0.1006,
      "velocity": 109,
      "chip": "ym2612"
    },
    {
      "channel": 2,
      "note": 105,
      "start": 24.3734,
      "duration": 0.1137,
      "velocity": 118,
      "chip": "ym2612"
    },
    {
      "channel": 0,
      "note": 48,
      "start": 24.4742,
      "duration": 0.1116,
      "velocity": 109,
      "chip": "ym2612"
    },
    {
      "channel": 5,
      "note": 38,
      "start": 24.4795,
      "duration": 0.0809,
      "velocity": 127,
      "chip": "ym2612"
    },
    {
      "channel": 0,
      "note": 51,
      "start": 24.5961,
      "duration": 0.1155,
      "velocity": 109,
      "chip": "ym2612"
    },
    {
      "channel": 3,
      "note": 86,
      "start": 24.5976,
      "duration": 0.1141,
      "velocity": 85,
      "chip": "ym2612"
    },
    {
      "channel": 1,
      "note": 82,
      "start": 24.5995,
      "duration": 0.1124,
      "velocity": 85,
      "chip": "ym2612"
    },
    {
      "channel": 4,
      "note": 77,
      "start": 24.6013,
      "duration": 0.0717,
      "velocity": 97,
      "chip": "ym2612"
    },
    {
      "channel": 2,
      "note": 105,
      "start": 24.6032,
      "duration": 0.2305,
      "velocity": 118,
      "chip": "ym2612"
    },
    {
      "channel": 0,
      "note": 51,
      "start": 24.7197,
      "duration": 0.2321,
      "velocity": 109,
      "chip": "ym2612"
    },
    {
      "channel": 3,
      "note": 86,
      "start": 24.7217,
      "duration": 0.2302,
      "velocity": 85,
      "chip": "ym2612"
    },
    {
      "channel": 1,
      "note": 82,
      "start": 24.7235,
      "duration": 0.2286,
      "velocity": 85,
      "chip": "ym2612"
    },
    {
      "channel": 4,
      "note": 72,
      "start": 24.7254,
      "duration": 0.1536,
      "velocity": 97,
      "chip": "ym2612"
    },
    {
      "channel": 2,
      "note": 105,
      "start": 24.8405,
      "duration": 0.1123,
      "velocity": 118,
      "chip": "ym2612"
    },
    {
      "channel": 5,
      "note": 44,
      "start": 24.8429,
      "duration": 0.11,
      "velocity": 127,
      "chip": "ym2612"
    },
    {
      "channel": 0,
      "note": 53,
      "start": 24.9601,
      "duration": 0.1156,
      "velocity": 109,
      "chip": "ym2612"
    },
    {
      "channel": 3,
      "note": 79,
      "start": 24.9617,
      "duration": 0.2303,
      "velocity": 85,
      "chip": "ym2612"
    },
    {
      "channel": 1,
      "note": 75,
      "start": 24.9635,
      "duration": 0.2287,
      "velocity": 85,
      "chip": "ym2612"
    },
    {
      "channel": 4,
      "note": 70,
      "start": 24.9652,
      "duration": 0.1482,
      "velocity": 97,
      "chip": "ym2612"
    },
    {
      "channel": 2,
      "note": 105,
      "start": 24.9671,
      "duration": 0.2258,
      "velocity": 118,
      "chip": "ym2612"
    },
    {
      "channel": 0,
      "note": 55,
      "start": 25.0784,
      "duration": 0.1135,
      "velocity": 109,
      "chip": "ym2612"
    },
    {
      "channel": 0,
      "note": 55,
      "start": 25.2017,
      "duration": 1.6828,
      "velocity": 109,
      "chip": "ym2612"
    },
    {
      "channel": 3,
      "note": 82,
      "start": 25.2034,
      "duration": 0.355,
      "velocity": 85,
      "chip": "ym2612"
    },
    {
      "channel": 1,
      "note": 77,
      "start": 25.2054,
      "duration": 0.3531,
      "velocity": 85,
      "chip": "ym2612"
    },
    {
      "channel": 4,
      "note": 69,
      "start": 25.2072,
      "duration": 0.1578,
      "velocity": 97,
      "chip": "ym2612"
    },
    {
      "channel": 2,
      "note": 105,
      "start": 25.209,
      "duration": 0.1107,
      "velocity": 118,
      "chip": "ym2612"
    },
    {
      "channel": 5,
      "note": 38,
      "start": 25.2114,
      "duration": 0.0803,
      "velocity": 127,
      "chip": "ym2612"
    },
    {
      "channel": 2,
      "note": 105,
      "start": 25.3263,
      "duration": 0.1137,
      "velocity": 118,
      "chip": "ym2612"
    },
    {
      "channel": 4,
      "note": 70,
      "start": 25.4462,
      "duration": 0.0732,
      "velocity": 97,
      "chip": "ym2612"
    },
    {
      "channel": 5,
      "note": 44,
      "start": 25.4485,
      "duration": 0.0837,
      "velocity": 127,
      "chip": "ym2612"
    },
    {
      "channel": 3,
      "note": 84,
      "start": 25.5674,
      "duration": 0.3569,
      "velocity": 85,
      "chip": "ym2612"
    },
    {
      "channel": 1,
      "note": 79,
      "start": 25.5693,
      "duration": 0.3553,
      "velocity": 85,
      "chip": "ym2612"
    },
    {
      "channel": 4,
      "note": 69,
      "start": 25.5714,
      "duration": 0.2396,
      "velocity": 97,
      "chip": "ym2612"
    },
    {
      "channel": 2,
      "note": 105,
      "start": 25.5732,
      "duration": 0.1125,
      "velocity": 118,
      "chip": "ym2612"
    },
    {
      "channel": 5,
      "note": 44,
      "start": 25.5756,
      "duration": 0.1104,
      "velocity": 127,
      "chip": "ym2612"
    },
    {
      "channel": 2,
      "note": 105,
      "start": 25.6923,
      "duration": 0.1138,
      "velocity": 118,
      "chip": "ym2612"
    },
    {
      "channel": 5,
      "note": 38,
      "start": 25.8135,
      "duration": 0.1124,
      "velocity": 127,
      "chip": "ym2612"
    },
    {
      "channel": 3,
      "note": 86,
      "start": 25.9332,
      "duration": 0.237,
      "velocity": 85,
      "chip": "ym2612"
    },
    {
      "channel": 1,
      "note": 82,
      "start": 25.9351,
      "duration": 0.2353,
      "velocity": 85,
      "chip": "ym2612"
    },
    {
      "channel": 4,
      "note": 70,
      "start": 25.9369,
      "duration": 0.243,
      "velocity": 97,
      "chip": "ym2612"
    },
    {
      "channel": 2,
      "note": 105,
      "start": 25.9391,
      "duration": 0.1126,
      "velocity": 118,
      "chip": "ym2612"
    },
    {
      "channel": 5,
      "note": 67,
      "start": 25.9415,
      "duration": 0.1104,
      "velocity": 127,
      "chip": "ym2612"
    },
    {
      "channel": 2,
      "note": 105,
      "start": 26.0583,
      "duration": 0.1131,
      "velocity": 118,
      "chip": "ym2612"
    },
    {
      "channel": 3,
      "note": 82,
      "start": 26.1773,
      "duration": 0.5934,
      "velocity": 85,
      "chip": "ym2612"
    },
    {
      "channel": 1,
      "note": 79,
      "start": 26.179,
      "duration": 0.5919,
      "velocity": 85,
      "chip": "ym2612"
    },
    {
      "channel": 5,
      "note": 38,
      "start": 26.1823,
      "duration": 0.0815,
      "velocity": 127,
      "chip": "ym2612"
    },
    {
      "channel": 4,
      "note": 77,
      "start": 26.2985,
      "duration": 0.0732,
      "velocity": 97,
      "chip": "ym2612"
    },
    {
      "channel": 2,
      "note": 105,
      "start": 26.3004,
      "duration": 0.1116,
      "velocity": 118,
      "chip": "ym2612"
    },
    {
      "channel": 4,
      "note": 72,
      "start": 26.418,
      "duration": 0.1541,
      "velocity": 97,
      "chip": "ym2612"
    },
    {
      "channel": 2,
      "note": 105,
      "start": 26.4199,
      "duration": 0.1123,
      "velocity": 118,
      "chip": "ym2612"
    },
    {
      "channel": 5,
      "note": 44,
      "start": 26.5406,
      "duration": 0.1123,
      "velocity": 127,
      "chip": "ym2612"
    },
    {
      "channel": 4,
      "note": 70,
      "start": 26.6597,
      "duration": 0.1577,
      "velocity": 97,
      "chip": "ym2612"
    },
    {
      "channel": 2,
      "note": 105,
      "start": 26.6616,
      "duration": 0.1102,
      "velocity": 118,
      "chip": "ym2612"
    },
    {
      "channel": 5,
      "note": 71,
      "start": 26.664,
      "duration": 0.108,
      "velocity": 127,
      "chip": "ym2612"
    },
    {
      "channel": 3,
      "note": 84,
      "start": 26.7775,
      "duration": 0.1132,
      "velocity": 85,
      "chip": "ym2612"
    },
    {
      "channel": 1,
      "note": 77,
      "start": 26.7793,
      "duration": 0.1116,
      "velocity": 85,
      "chip": "ym2612"
    },
    {
      "channel": 5,
      "note": 38,
      "start": 26.7822,
      "duration": 0.1099,
      "velocity": 127,
      "chip": "ym2612"
    },
    {
      "channel": 0,
      "note": 53,
      "start": 26.9011,
      "duration": 3.3484,
      "velocity": 109,
      "chip": "ym2612"
    },
    {
      "channel": 3,
      "note": 84,
      "start": 26.9028,
      "duration": 2.7426,
      "velocity": 85,
      "chip": "ym2612"
    },
    {
      "channel": 1,
      "note": 77,
      "start": 26.9049,
      "duration": 2.7415,
      "velocity": 85,
      "chip": "ym2612"
    },
    {
      "channel": 4,
      "note": 69,
      "start": 26.9068,
      "duration": 0.1565,
      "velocity": 97,
      "chip": "ym2612"
    },
    {
      "channel": 2,
      "note": 105,
      "start": 26.9086,
      "duration": 0.1094,
      "velocity": 118,
      "chip": "ym2612"
    },
    {
      "channel": 5,
      "note": 38,
      "start": 26.9101,
      "duration": 0.1081,
      "velocity": 127,
      "chip": "ym2612"
    },
    {
      "channel": 2,
      "note": 105,
      "start": 27.0246,
      "duration": 0.2338,
      "velocity": 118,
      "chip": "ym2612"
    },
    {
      "channel": 4,
      "note": 70,
      "start": 27.1442,
      "duration": 0.0735,
      "velocity": 97,
      "chip": "ym2612"
    },
    {
      "channel": 4,
      "note": 69,
      "start": 27.2659,
      "duration": 0.2387,
      "velocity": 97,
      "chip": "ym2612"
    },
    {
      "channel": 2,
      "note": 105,
      "start": 27.2677,
      "duration": 0.1109,
      "velocity": 118,
      "chip": "ym2612"
    },
    {
      "channel": 5,
      "note": 38,
      "start": 27.2693,
      "duration": 0.1095,
      "velocity": 127,
      "chip": "ym2612"
    },
    {
      "channel": 2,
      "note": 105,
      "start": 27.3848,
      "duration": 0.234,
      "velocity": 118,
      "chip": "ym2612"
    },
    {
      "channel": 4,
      "note": 70,
      "start": 27.6269,
      "duration": 0.2377,
      "velocity": 97,
      "chip": "ym2612"
    },
    {
      "channel": 2,
      "note": 105,
      "start": 27.6288,
      "duration": 0.1106,
      "velocity": 118,
      "chip": "ym2612"
    },
    {
      "channel": 5,
      "note": 38,
      "start": 27.6304,
      "duration": 0.1092,
      "velocity": 127,
      "chip": "ym2612"
    },
    {
      "channel": 2,
      "note": 105,
      "start": 27.7458,
      "duration": 0.1134,
      "velocity": 118,
      "chip": "ym2612"
    },
    {
      "channel": 5,
      "note": 38,
      "start": 27.867,
      "duration": 0.0843,
      "velocity": 127,
      "chip": "ym2612"
    },
    {
      "channel": 4,
      "note": 77,
      "start": 27.9691,
      "duration": 0.0723,
      "velocity": 97,
      "chip": "ym2612"
    },
    {
      "channel": 2,
      "note": 105,
      "start": 27.9712,
      "duration": 0.231,
      "velocity": 118,
      "chip": "ym2612"
    },
    {
      "channel": 4,
      "note": 72,
      "start": 28.0888,
      "duration": 0.1585,
      "velocity": 97,
      "chip": "ym2612"
    },
    {
      "channel": 2,
      "note": 105,
      "start": 28.2096,
      "duration": 0.1128,
      "velocity": 118,
      "chip": "ym2612"
    },
    {
      "channel": 5,
      "note": 44,
      "start": 28.212,
      "duration": 0.1106,
      "velocity": 127,
      "chip": "ym2612"
    },
    {
      "channel": 4,
      "note": 70,
      "start": 28.3285,
      "duration": 0.1593,
      "velocity": 97,
      "chip": "ym2612"
    },
    {
      "channel": 2,
      "note": 105,
      "start": 28.3303,
      "duration": 0.2322,
      "velocity": 118,
      "chip": "ym2612"
    },
    {
      "channel": 4,
      "note": 69,
      "start": 28.5714,
      "duration": 0.1511,
      "velocity": 97,
      "chip": "ym2612"
    },
    {
      "channel": 2,
      "note": 105,
      "start": 28.5732,
      "duration": 0.1094,
      "velocity": 118,
      "chip": "ym2612"
    },
    {
      "channel": 5,
      "note": 38,
      "start": 28.5747,
      "duration": 0.108,
      "velocity": 127,
      "chip": "ym2612"
    },
    {
      "channel": 2,
      "note": 105,
      "start": 28.6893,
      "duration": 0.2333,
      "velocity": 118,
      "chip": "ym2612"
    },
    {
      "channel": 4,
      "note": 70,
      "start": 28.8091,
      "duration": 0.0729,
      "velocity": 97,
      "chip": "ym2612"
    },
    {
      "channel": 4,
      "note": 69,
      "start": 28.9305,
      "duration": 0.2377,
      "velocity": 97,
      "chip": "ym2612"
    },
    {
      "channel": 2,
      "note": 105,
      "start": 28.9324,
      "duration": 0.1106,
      "velocity": 118,
      "chip": "ym2612"
    },
    {
      "channel": 5,
      "note": 38,
      "start": 28.9339,
      "duration": 0.1092,
      "velocity": 127,
      "chip": "ym2612"
    },
    {
      "channel": 2,
      "note": 105,
      "start": 29.0495,
      "duration": 0.2337,
      "velocity": 118,
      "chip": "ym2612"
    },
    {
      "channel": 4,
      "note": 70,
      "start": 29.2909,
      "duration": 0.2376,
      "velocity": 97,
      "chip": "ym2612"
    },
    {
      "channel": 2,
      "note": 105,
      "start": 29.2927,
      "duration": 0.1104,
      "velocity": 118,
      "chip": "ym2612"
    },
    {
      "channel": 5,
      "note": 38,
      "start": 29.2942,
      "duration": 0.109,
      "velocity": 127,
      "chip": "ym2612"
    },
    {
      "channel": 2,
      "note": 105,
      "start": 29.4098,
      "duration": 0.1137,
      "velocity": 118,
      "chip": "ym2612"
    },
    {
      "channel": 5,
      "note": 38,
      "start": 29.5308,
      "duration": 0.0845,
      "velocity": 127,
      "chip": "ym2612"
    },
    {
      "channel": 3,
      "note": 86,
      "start": 29.651,
      "duration": 0.116,
      "velocity": 85,
      "chip": "ym2612"
    },
    {
      "channel": 1,
      "note": 82,
      "start": 29.6528,
      "duration": 0.1143,
      "velocity": 85,
      "chip": "ym2612"
    },
    {
      "channel": 4,
      "note": 77,
      "start": 29.655,
      "duration": 0.0729,
      "velocity": 97,
      "chip": "ym2612"
    },
    {
      "channel": 2,
      "note": 105,
      "start": 29.6568,
      "duration": 0.232,
      "velocity": 118,
      "chip": "ym2612"
    },
    {
      "channel": 3,
      "note": 86,
      "start": 29.7746,
      "duration": 0.2324,
      "velocity": 85,
      "chip": "ym2612"
    },
    {
      "channel": 1,
      "note": 82,
      "start": 29.7765,
      "duration": 0.2307,
      "velocity": 85,
      "chip": "ym2612"
    },
    {
      "channel": 4,
      "note": 72,
      "start": 29.7783,
      "duration": 0.1554,
      "velocity": 97,
      "chip": "ym2612"
    },
    {
      "channel": 2,
      "note": 105,
      "start": 29.8952,
      "duration": 0.1127,
      "velocity": 118,
      "chip": "ym2612"
    },
    {
      "channel": 5,
      "note": 44,
      "start": 29.8976,
      "duration": 0.1105,
      "velocity": 127,
      "chip": "ym2612"
    },
    {
      "channel": 3,
      "note": 87,
      "start": 30.0145,
      "duration": 0.2327,
      "velocity": 85,
      "chip": "ym2612"
    },
    {
      "channel": 1,
      "note": 84,
      "start": 30.0163,
      "duration": 0.2312,
      "velocity": 85,
      "chip": "ym2612"
    },
    {
      "channel": 4,
      "note": 70,
      "start": 30.018,
      "duration": 0.156,
      "velocity": 97,
      "chip": "ym2612"
    },
    {
      "channel": 2,
      "note": 105,
      "start": 30.0198,
      "duration": 0.2283,
      "velocity": 118,
      "chip": "ym2612"
    },
    {
      "channel": 0,
      "note": 48,
      "start": 30.2573,
      "duration": 1.427,
      "velocity": 109,
      "chip": "ym2612"
    },
    {
      "channel": 3,
      "note": 89,
      "start": 30.259,
      "duration": 1.3017,
      "velocity": 85,
      "chip": "ym2612"
    },
    {
      "channel": 1,
      "note": 86,
      "start": 30.2608,
      "duration": 1.301,
      "velocity": 85,
      "chip": "ym2612"
    },
    {
      "channel": 4,
      "note": 69,
      "start": 30.2625,
      "duration": 0.1573,
      "velocity": 97,
      "chip": "ym2612"
    },
    {
      "channel": 2,
      "note": 105,
      "start": 30.2644,
      "duration": 0.1102,
      "velocity": 118,
      "chip": "ym2612"
    },
    {
      "channel": 5,
      "note": 38,
      "start": 30.2658,
      "duration": 0.109,
      "velocity": 127,
      "chip": "ym2612"
    },
    {
      "channel": 2,
      "note": 105,
      "start": 30.3812,
      "duration": 0.2338,
      "velocity": 118,
      "chip": "ym2612"
    },
    {
      "channel": 4,
      "note": 70,
      "start": 30.5007,
      "duration": 0.0735,
      "velocity": 97,
      "chip": "ym2612"
    },
    {
      "channel": 4,
      "note": 69,
      "start": 30.6227,
      "duration": 0.2382,
      "velocity": 97,
      "chip": "ym2612"
    },
    {
      "channel": 2,
      "note": 105,
      "start": 30.6245,
      "duration": 0.1107,
      "velocity": 118,
      "chip": "ym2612"
    },
    {
      "channel": 5,
      "note": 38,
      "start": 30.6261,
      "duration": 0.1093,
      "velocity": 127,
      "chip": "ym2612"
    },
    {
      "channel": 2,
      "note": 105,
      "start": 30.7414,
      "duration": 0.234,
      "velocity": 118,
      "chip": "ym2612"
    },
    {
      "channel": 4,
      "note": 70,
      "start": 30.9832,
      "duration": 0.2383,
      "velocity": 97,
      "chip": "ym2612"
    },
    {
      "channel": 2,
      "note": 105,
      "start": 30.985,
      "duration": 0.1107,
      "velocity": 118,
      "chip": "ym2612"
    },
    {
      "channel": 5,
      "note": 38,
      "start": 30.9866,
      "duration": 0.1092,
      "velocity": 127,
      "chip": "ym2612"
    },
    {
      "channel": 2,
      "note": 105,
      "start": 31.1023,
      "duration": 0.1134,
      "velocity": 118,
      "chip": "ym2612"
    },
    {
      "channel": 5,
      "note": 38,
      "start": 31.2238,
      "duration": 0.0841,
      "velocity": 127,
      "chip": "ym2612"
    },
    {
      "channel": 4,
      "note": 77,
      "start": 31.3435,
      "duration": 0.0717,
      "velocity": 97,
      "chip": "ym2612"
    },
    {
      "channel": 2,
      "note": 105,
      "start": 31.3453,
      "duration": 0.2185,
      "velocity": 118,
      "chip": "ym2612"
    },
    {
      "channel": 4,
      "note": 72,
      "start": 31.4633,
      "duration": 0.1631,
      "velocity": 97,
      "chip": "ym2612"
    },
    {
      "channel": 3,
      "note": 86,
      "start": 31.5659,
      "duration": 0.1165,
      "velocity": 85,
      "chip": "ym2612"
    },
    {
      "channel": 1,
      "note": 82,
      "start": 31.5678,
      "duration": 0.1149,
      "velocity": 85,
      "chip": "ym2612"
    },
    {
      "channel": 2,
      "note": 105,
      "start": 31.5702,
      "duration": 0.1131,
      "velocity": 118,
      "chip": "ym2612"
    },
    {
      "channel": 5,
      "note": 44,
      "start": 31.5728,
      "duration": 0.1107,
      "velocity": 127,
      "chip": "ym2612"
    },
    {
      "channel": 0,
      "note": 39,
      "start": 31.6909,
      "duration": 0.237,
      "velocity": 109,
      "chip": "ym2612"
    },
    {
      "channel": 3,
      "note": 86,
      "start": 31.6925,
      "duration": 0.2355,
      "velocity": 85,
      "chip": "ym2612"
    },
    {
      "channel": 1,
      "note": 82,
      "start": 31.6944,
      "duration": 0.2338,
      "velocity": 85,
      "chip": "ym2612"
    },
    {
      "channel": 4,
      "note": 70,
      "start": 31.6963,
      "duration": 0.1591,
      "velocity": 97,
      "chip": "ym2612"
    },
    {
      "channel": 2,
      "note": 105,
      "start": 31.6981,
      "duration": 0.2308,
      "velocity": 118,
      "chip": "ym2612"
    },
    {
      "channel": 0,
      "note": 41,
      "start": 31.938,
      "duration": 1.6711,
      "velocity": 109,
      "chip": "ym2612"
    },
    {
      "channel": 3,
      "note": 82,
      "start": 31.9396,
      "duration": 0.1148,
      "velocity": 85,
      "chip": "ym2612"
    },
    {
      "channel": 1,
      "note": 79,
      "start": 31.9414,
      "duration": 0.1132,
      "velocity": 85,
      "chip": "ym2612"
    },
    {
      "channel": 4,
      "note": 69,
      "start": 31.9432,
      "duration": 0.1578,
      "velocity": 97,
      "chip": "ym2612"
    },
    {
      "channel": 2,
      "note": 105,
      "start": 31.9449,
      "duration": 0.1103,
      "velocity": 118,
      "chip": "ym2612"
    },
    {
      "channel": 5,
      "note": 38,
      "start": 31.9465,
      "duration": 0.109,
      "velocity": 127,
      "chip": "ym2612"
    },
    {
      "channel": 3,
      "note": 84,
      "start": 32.0609,
      "duration": 1.4285,
      "velocity": 85,
      "chip": "ym2612"
    },
    {
      "channel": 1,
      "note": 75,
      "start": 32.0626,
      "duration": 1.427,
      "velocity": 85,
      "chip": "ym2612"
    },
    {
      "channel": 2,
      "note": 105,
      "start": 32.0649,
      "duration": 0.231,
      "velocity": 118,
      "chip": "ym2612"
    },
    {
      "channel": 4,
      "note": 70,
      "start": 32.1818,
      "duration": 0.0738,
      "velocity": 97,
      "chip": "ym2612"
    },
    {
      "channel": 4,
      "note": 69,
      "start": 32.3031,
      "duration": 0.2382,
      "velocity": 97,
      "chip": "ym2612"
    },
    {
      "channel": 2,
      "note": 105,
      "start": 32.3052,
      "duration": 0.111,
      "velocity": 118,
      "chip": "ym2612"
    },
    {
      "channel": 5,
      "note": 38,
      "start": 32.3068,
      "duration": 0.1095,
      "velocity": 127,
      "chip": "ym2612"
    },
    {
      "channel": 2,
      "note": 105,
      "start": 32.4231,
      "duration": 0.2342,
      "velocity": 118,
      "chip": "ym2612"
    },
    {
      "channel": 4,
      "note": 70,
      "start": 32.6652,
      "duration": 0.2374,
      "velocity": 97,
      "chip": "ym2612"
    },
    {
      "channel": 2,
      "note": 105,
      "start": 32.667,
      "duration": 0.1093,
      "velocity": 118,
      "chip": "ym2612"
    },
    {
      "channel": 5,
      "note": 38,
      "start": 32.6686,
      "duration": 0.108,
      "velocity": 127,
      "chip": "ym2612"
    },
    {
      "channel": 2,
      "note": 105,
      "start": 32.7835,
      "duration": 0.1134,
      "velocity": 118,
      "chip": "ym2612"
    },
    {
      "channel": 2,
      "note": 105,
      "start": 32.9035,
      "duration": 0.1136,
      "velocity": 118,
      "chip": "ym2612"
    },
    {
      "channel": 5,
      "note": 38,
      "start": 32.9062,
      "duration": 0.083,
      "velocity": 127,
      "chip": "ym2612"
    },
    {
      "channel": 4,
      "note": 77,
      "start": 33.0243,
      "duration": 0.072,
      "velocity": 97,
      "chip": "ym2612"
    },
    {
      "channel": 2,
      "note": 105,
      "start": 33.0262,
      "duration": 0.1108,
      "velocity": 118,
      "chip": "ym2612"
    },
    {
      "channel": 4,
      "note": 72,
      "start": 33.1441,
      "duration": 0.1576,
      "velocity": 97,
      "chip": "ym2612"
    },
    {
      "channel": 2,
      "note": 105,
      "start": 33.146,
      "duration": 0.1113,
      "velocity": 118,
      "chip": "ym2612"
    },
    {
      "channel": 2,
      "note": 105,
      "start": 33.2643,
      "duration": 0.113,
      "velocity": 118,
      "chip": "ym2612"
    },
    {
      "channel": 5,
      "note": 44,
      "start": 33.2666,
      "duration": 0.1108,
      "velocity": 127,
      "chip": "ym2612"
    },
    {
      "channel": 4,
      "note": 70,
      "start": 33.3846,
      "duration": 0.1517,
      "velocity": 97,
      "chip": "ym2612"
    },
    {
      "channel": 2,
      "note": 105,
      "start": 33.3864,
      "duration": 0.1106,
      "velocity": 118,
      "chip": "ym2612"
    },
    {
      "channel": 5,
      "note": 38,
      "start": 33.3891,
      "duration": 0.0802,
      "velocity": 127,
      "chip": "ym2612"
    },
    {
      "channel": 3,
      "note": 82,
      "start": 33.503,
      "duration": 0.1122,
      "velocity": 85,
      "chip": "ym2612"
    },
    {
      "channel": 1,
      "note": 77,
      "start": 33.5052,
      "duration": 0.1102,
      "velocity": 85,
      "chip": "ym2612"
    },
    {
      "channel": 2,
      "note": 105,
      "start": 33.5076,
      "duration": 0.1085,
      "velocity": 118,
      "chip": "ym2612"
    },
    {
      "channel": 0,
      "note": 46,
      "start": 33.6259,
      "duration": 3.2294,
      "velocity": 109,
      "chip": "ym2612"
    },
    {
      "channel": 3,
      "note": 82,
      "start": 33.6275,
      "duration": 2.7424,
      "velocity": 85,
      "chip": "ym2612"
    },
    {
      "channel": 1,
      "note": 77,
      "start": 33.6294,
      "duration": 2.7419,
      "velocity": 85,
      "chip": "ym2612"
    },
    {
      "channel": 4,
      "note": 69,
      "start": 33.6312,
      "duration": 0.1569,
      "velocity": 97,
      "chip": "ym2612"
    },
    {
      "channel": 2,
      "note": 105,
      "start": 33.6331,
      "duration": 0.1095,
      "velocity": 118,
      "chip": "ym2612"
    },
    {
      "channel": 5,
      "note": 44,
      "start": 33.6354,
      "duration": 0.1074,
      "velocity": 127,
      "chip": "ym2612"
    },
    {
      "channel": 2,
      "note": 105,
      "start": 33.7491,
      "duration": 0.2338,
      "velocity": 118,
      "chip": "ym2612"
    },
    {
      "channel": 4,
      "note": 70,
      "start": 33.8687,
      "duration": 0.0735,
      "velocity": 97,
      "chip": "ym2612"
    },
    {
      "channel": 4,
      "note": 69,
      "start": 33.9907,
      "duration": 0.2381,
      "velocity": 97,
      "chip": "ym2612"
    },
    {
      "channel": 2,
      "note": 105,
      "start": 33.9925,
      "duration": 0.1106,
      "velocity": 118,
      "chip": "ym2612"
    },
    {
      "channel": 5,
      "note": 38,
      "start": 33.9941,
      "duration": 0.1092,
      "velocity": 127,
      "chip": "ym2612"
    },
    {
      "channel": 2,
      "note": 105,
      "start": 34.1093,
      "duration": 0.234,
      "velocity": 118,
      "chip": "ym2612"
    },
    {
      "channel": 4,
      "note": 70,
      "start": 34.3511,
      "duration": 0.2384,
      "velocity": 97,
      "chip": "ym2612"
    },
    {
      "channel": 2,
      "note": 105,
      "start": 34.353,
      "duration": 0.1107,
      "velocity": 118,
      "chip": "ym2612"
    },
    {
      "channel": 5,
      "note": 38,
      "start": 34.3549,
      "duration": 0.109,
      "velocity": 127,
      "chip": "ym2612"
    },
    {
      "channel": 2,
      "note": 105,
      "start": 34.4703,
      "duration": 0.1134,
      "velocity": 118,
      "chip": "ym2612"
    },
    {
      "channel": 5,
      "note": 38,
      "start": 34.5918,
      "duration": 0.084,
      "velocity": 127,
      "chip": "ym2612"
    },
    {
      "channel": 4,
      "note": 77,
      "start": 34.7114,
      "duration": 0.0717,
      "velocity": 97,
      "chip": "ym2612"
    },
    {
      "channel": 2,
      "note": 105,
      "start": 34.7133,
      "duration": 0.2308,
      "velocity": 118,
      "chip": "ym2612"
    },
    {
      "channel": 4,
      "note": 72,
      "start": 34.8302,
      "duration": 0.1534,
      "velocity": 97,
      "chip": "ym2612"
    },
    {
      "channel": 2,
      "note": 105,
      "start": 34.9511,
      "duration": 0.0989,
      "velocity": 118,
      "chip": "ym2612"
    },
    {
      "channel": 5,
      "note": 44,
      "start": 34.9535,
      "duration": 0.1111,
      "velocity": 127,
      "chip": "ym2612"
    },
    {
      "channel": 4,
      "note": 70,
      "start": 35.0534,
      "duration": 0.1586,
      "velocity": 97,
      "chip": "ym2612"
    },
    {
      "channel": 2,
      "note": 105,
      "start": 35.0556,
      "duration": 0.2315,
      "velocity": 118,
      "chip": "ym2612"
    },
    {
      "channel": 4,
      "note": 69,
      "start": 35.2959,
      "duration": 0.1563,
      "velocity": 97,
      "chip": "ym2612"
    },
    {
      "channel": 2,
      "note": 105,
      "start": 35.2978,
      "duration": 0.1095,
      "velocity": 118,
      "chip": "ym2612"
    },
    {
      "channel": 5,
      "note": 38,
      "start": 35.2992,
      "duration": 0.1082,
      "velocity": 127,
      "chip": "ym2612"
    },
    {
      "channel": 2,
      "note": 105,
      "start": 35.4136,
      "duration": 0.2333,
      "velocity": 118,
      "chip": "ym2612"
    },
    {
      "channel": 4,
      "note": 70,
      "start": 35.5334,
      "duration": 0.0732,
      "velocity": 97,
      "chip": "ym2612"
    },
    {
      "channel": 4,
      "note": 69,
      "start": 35.6551,
      "duration": 0.2377,
      "velocity": 97,
      "chip": "ym2612"
    },
    {
      "channel": 2,
      "note": 105,
      "start": 35.6569,
      "duration": 0.1106,
      "velocity": 118,
      "chip": "ym2612"
    },
    {
      "channel": 5,
      "note": 38,
      "start": 35.6585,
      "duration": 0.1092,
      "velocity": 127,
      "chip": "ym2612"
    },
    {
      "channel": 2,
      "note": 105,
      "start": 35.7743,
      "duration": 0.2334,
      "velocity": 118,
      "chip": "ym2612"
    },
    {
      "channel": 4,
      "note": 70,
      "start": 36.0151,
      "duration": 0.2379,
      "velocity": 97,
      "chip": "ym2612"
    },
    {
      "channel": 2,
      "note": 105,
      "start": 36.017,
      "duration": 0.1106,
      "velocity": 118,
      "chip": "ym2612"
    },
    {
      "channel": 5,
      "note": 38,
      "start": 36.0185,
      "duration": 0.1092,
      "velocity": 127,
      "chip": "ym2612"
    },
    {
      "channel": 2,
      "note": 105,
      "start": 36.1343,
      "duration": 0.1135,
      "velocity": 118,
      "chip": "ym2612"
    },
    {
      "channel": 5,
      "note": 38,
      "start": 36.2556,
      "duration": 0.0844,
      "velocity": 127,
      "chip": "ym2612"
    },
    {
      "channel": 3,
      "note": 86,
      "start": 36.3759,
      "duration": 0.1156,
      "velocity": 85,
      "chip": "ym2612"
    },
    {
      "channel": 1,
      "note": 82,
      "start": 36.3777,
      "duration": 0.1139,
      "velocity": 85,
      "chip": "ym2612"
    },
    {
      "channel": 4,
      "note": 77,
      "start": 36.3795,
      "duration": 0.0729,
      "velocity": 97,
      "chip": "ym2612"
    },
    {
      "channel": 2,
      "note": 105,
      "start": 36.3814,
      "duration": 0.2317,
      "velocity": 118,
      "chip": "ym2612"
    },
    {
      "channel": 3,
      "note": 86,
      "start": 36.4988,
      "duration": 0.2328,
      "velocity": 85,
      "chip": "ym2612"
    },
    {
      "channel": 1,
      "note": 82,
      "start": 36.5007,
      "duration": 0.2311,
      "velocity": 85,
      "chip": "ym2612"
    },
    {
      "channel": 4,
      "note": 72,
      "start": 36.5025,
      "duration": 0.1558,
      "velocity": 97,
      "chip": "ym2612"
    },
    {
      "channel": 2,
      "note": 105,
      "start": 36.6196,
      "duration": 0.1128,
      "velocity": 118,
      "chip": "ym2612"
    },
    {
      "channel": 5,
      "note": 44,
      "start": 36.6223,
      "duration": 0.1103,
      "velocity": 127,
      "chip": "ym2612"
    },
    {
      "channel": 3,
      "note": 87,
      "start": 36.7393,
      "duration": 0.2322,
      "velocity": 85,
      "chip": "ym2612"
    },
    {
      "channel": 1,
      "note": 84,
      "start": 36.7411,
      "duration": 0.2306,
      "velocity": 85,
      "chip": "ym2612"
    },
    {
      "channel": 4,
      "note": 70,
      "start": 36.7428,
      "duration": 0.1557,
      "velocity": 97,
      "chip": "ym2612"
    },
    {
      "channel": 2,
      "note": 105,
      "start": 36.7446,
      "duration": 0.2277,
      "velocity": 118,
      "chip": "ym2612"
    },
    {
      "channel": 0,
      "note": 48,
      "start": 36.8577,
      "duration": 0.1136,
      "velocity": 109,
      "chip": "ym2612"
    },
    {
      "channel": 0,
      "note": 46,
      "start": 36.9813,
      "duration": 0.2359,
      "velocity": 109,
      "chip": "ym2612"
    },
    {
      "channel": 3,
      "note": 89,
      "start": 36.983,
      "duration": 0.8447,
      "velocity": 85,
      "chip": "ym2612"
    },
    {
      "channel": 1,
      "note": 86,
      "start": 36.9848,
      "duration": 0.844,
      "velocity": 85,
      "chip": "ym2612"
    },
    {
      "channel": 4,
      "note": 69,
      "start": 36.9866,
      "duration": 0.1524,
      "velocity": 97,
      "chip": "ym2612"
    },
    {
      "channel": 2,
      "note": 105,
      "start": 36.9887,
      "duration": 0.1104,
      "velocity": 118,
      "chip": "ym2612"
    },
    {
      "channel": 5,
      "note": 38,
      "start": 36.9901,
      "duration": 0.1092,
      "velocity": 127,
      "chip": "ym2612"
    },
    {
      "channel": 2,
      "note": 105,
      "start": 37.106,
      "duration": 0.2338,
      "velocity": 118,
      "chip": "ym2612"
    },
    {
      "channel": 0,
      "note": 39,
      "start": 37.224,
      "duration": 0.2333,
      "velocity": 109,
      "chip": "ym2612"
    },
    {
      "channel": 4,
      "note": 70,
      "start": 37.2268,
      "duration": 0.072,
      "velocity": 97,
      "chip": "ym2612"
    },
    {
      "channel": 4,
      "note": 69,
      "start": 37.3472,
      "duration": 0.2392,
      "velocity": 97,
      "chip": "ym2612"
    },
    {
      "channel": 2,
      "note": 105,
      "start": 37.3491,
      "duration": 0.1104,
      "velocity": 118,
      "chip": "ym2612"
    },
    {
      "channel": 5,
      "note": 38,
      "start": 37.3507,
      "duration": 0.1089,
      "velocity": 127,
      "chip": "ym2612"
    },
    {
      "channel": 0,
      "note": 43,
      "start": 37.4639,
      "duration": 0.1136,
      "velocity": 109,
      "chip": "ym2612"
    },
    {
      "channel": 2,
      "note": 105,
      "start": 37.4671,
      "duration": 0.2324,
      "velocity": 118,
      "chip": "ym2612"
    },
    {
      "channel": 0,
      "note": 46,
      "start": 37.584,
      "duration": 0.1135,
      "velocity": 109,
      "chip": "ym2612"
    },
    {
      "channel": 0,
      "note": 46,
      "start": 37.7073,
      "duration": 0.116,
      "velocity": 109,
      "chip": "ym2612"
    },
    {
      "channel": 4,
      "note": 70,
      "start": 37.7107,
      "duration": 0.245,
      "velocity": 97,
      "chip": "ym2612"
    },
    {
      "channel": 2,
      "note": 105,
      "start": 37.7126,
      "duration": 0.1131,
      "velocity": 118,
      "chip": "ym2612"
    },
    {
      "channel": 5,
      "note": 38,
      "start": 37.7142,
      "duration": 0.1116,
      "velocity": 127,
      "chip": "ym2612"
    },
    {
      "channel": 0,
      "note": 48,
      "start": 37.8317,
      "duration": 0.1117,
      "velocity": 109,
      "chip": "ym2612"
    },
    {
      "channel": 3,
      "note": 91,
      "start": 37.8332,
      "duration": 0.1104,
      "velocity": 85,
      "chip": "ym2612"
    },
    {
      "channel": 1,
      "note": 87,
      "start": 37.835,
      "duration": 0.1086,
      "velocity": 85,
      "chip": "ym2612"
    },
    {
      "channel": 2,
      "note": 105,
      "start": 37.8374,
      "duration": 0.107,
      "velocity": 118,
      "chip": "ym2612"
    },
    {
      "channel": 0,
      "note": 48,
      "start": 37.9508,
      "duration": 0.1127,
      "velocity": 109,
      "chip": "ym2612"
    },
    {
      "channel": 3,
      "note": 91,
      "start": 37.9525,
      "duration": 0.3517,
      "velocity": 85,
      "chip": "ym2612"
    },
    {
      "channel": 1,
      "note": 87,
      "start": 37.9547,
      "duration": 0.3499,
      "velocity": 85,
      "chip": "ym2612"
    },
    {
      "channel": 5,
      "note": 38,
      "start": 37.958,
      "duration": 0.0793,
      "velocity": 127,
      "chip": "ym2612"
    },
    {
      "channel": 0,
      "note": 51,
      "start": 38.0716,
      "duration": 0.112,
      "velocity": 109,
      "chip": "ym2612"
    },
    {
      "channel": 4,
      "note": 77,
      "start": 38.0742,
      "duration": 0.0708,
      "velocity": 97,
      "chip": "ym2612"
    },
    {
      "channel": 2,
      "note": 105,
      "start": 38.0761,
      "duration": 0.2291,
      "velocity": 118,
      "chip": "ym2612"
    },
    {
      "channel": 0,
      "note": 51,
      "start": 38.1905,
      "duration": 0.2332,
      "velocity": 109,
      "chip": "ym2612"
    },
    {
      "channel": 4,
      "note": 72,
      "start": 38.1933,
      "duration": 0.1576,
      "velocity": 97,
      "chip": "ym2612"
    },
    {
      "channel": 3,
      "note": 79,
      "start": 38.3119,
      "duration": 0.3394,
      "velocity": 85,
      "chip": "ym2612"
    },
    {
      "channel": 1,
      "note": 75,
      "start": 38.3138,
      "duration": 0.3385,
      "velocity": 85,
      "chip": "ym2612"
    },
    {
      "channel": 2,
      "note": 105,
      "start": 38.3161,
      "duration": 0.1093,
      "velocity": 118,
      "chip": "ym2612"
    },
    {
      "channel": 5,
      "note": 44,
      "start": 38.3185,
      "duration": 0.1071,
      "velocity": 127,
      "chip": "ym2612"
    },
    {
      "channel": 0,
      "note": 53,
      "start": 38.4306,
      "duration": 0.0999,
      "velocity": 109,
      "chip": "ym2612"
    },
    {
      "channel": 4,
      "note": 70,
      "start": 38.4332,
      "duration": 0.1578,
      "velocity": 97,
      "chip": "ym2612"
    },
    {
      "channel": 2,
      "note": 105,
      "start": 38.4351,
      "duration": 0.221,
      "velocity": 118,
      "chip": "ym2612"
    },
    {
      "channel": 0,
      "note": 55,
      "start": 38.5332,
      "duration": 0.1136,
      "velocity": 109,
      "chip": "ym2612"
    },
    {
      "channel": 0,
      "note": 55,
      "start": 38.6578,
      "duration": 1.67,
      "velocity": 109,
      "chip": "ym2612"
    },
    {
      "channel": 3,
      "note": 82,
      "start": 38.6595,
      "duration": 1.5569,
      "velocity": 85,
      "chip": "ym2612"
    },
    {
      "channel": 1,
      "note": 77,
      "start": 38.6614,
      "duration": 0.9529,
      "velocity": 85,
      "chip": "ym2612"
    },
    {
      "channel": 4,
      "note": 69,
      "start": 38.6633,
      "duration": 0.1565,
      "velocity": 97,
      "chip": "ym2612"
    },
    {
      "channel": 2,
      "note": 105,
      "start": 38.6651,
      "duration": 0.1094,
      "velocity": 118,
      "chip": "ym2612"
    },
    {
      "channel": 5,
      "note": 38,
      "start": 38.6675,
      "duration": 0.079,
      "velocity": 127,
      "chip": "ym2612"
    },
    {
      "channel": 2,
      "note": 105,
      "start": 38.7811,
      "duration": 0.1135,
      "velocity": 118,
      "chip": "ym2612"
    },
    {
      "channel": 4,
      "note": 70,
      "start": 38.9008,
      "duration": 0.0734,
      "velocity": 97,
      "chip": "ym2612"
    },
    {
      "channel": 5,
      "note": 44,
      "start": 38.9032,
      "duration": 0.0838,
      "velocity": 127,
      "chip": "ym2612"
    },
    {
      "channel": 4,
      "note": 69,
      "start": 39.0228,
      "duration": 0.238,
      "velocity": 97,
      "chip": "ym2612"
    },
    {
      "channel": 2,
      "note": 105,
      "start": 39.0246,
      "duration": 0.1105,
      "velocity": 118,
      "chip": "ym2612"
    },
    {
      "channel": 5,
      "note": 44,
      "start": 39.027,
      "duration": 0.1083,
      "velocity": 127,
      "chip": "ym2612"
    },
    {
      "channel": 2,
      "note": 105,
      "start": 39.1413,
      "duration": 0.1146,
      "velocity": 118,
      "chip": "ym2612"
    },
    {
      "channel": 5,
      "note": 38,
      "start": 39.2633,
      "duration": 0.1125,
      "velocity": 127,
      "chip": "ym2612"
    },
    {
      "channel": 4,
      "note": 70,
      "start": 39.3829,
      "duration": 0.2394,
      "velocity": 97,
      "chip": "ym2612"
    },
    {
      "channel": 2,
      "note": 105,
      "start": 39.3848,
      "duration": 0.1109,
      "velocity": 118,
      "chip": "ym2612"
    },
    {
      "channel": 5,
      "note": 67,
      "start": 39.3872,
      "duration": 0.1086,
      "velocity": 127,
      "chip": "ym2612"
    },
    {
      "channel": 2,
      "note": 105,
      "start": 39.5023,
      "duration": 0.1128,
      "velocity": 118,
      "chip": "ym2612"
    },
    {
      "channel": 1,
      "note": 84,
      "start": 39.6213,
      "duration": 0.5932,
      "velocity": 85,
      "chip": "ym2612"
    },
    {
      "channel": 5,
      "note": 38,
      "start": 39.6247,
      "duration": 0.0829,
      "velocity": 127,
      "chip": "ym2612"
    },
    {
      "channel": 4,
      "note": 77,
      "start": 39.7427,
      "duration": 0.0722,
      "velocity": 97,
      "chip": "ym2612"
    },
    {
      "channel": 2,
      "note": 105,
      "start": 39.7446,
      "duration": 0.1112,
      "velocity": 118,
      "chip": "ym2612"
    },
    {
      "channel": 4,
      "note": 72,
      "start": 39.8623,
      "duration": 0.1531,
      "velocity": 97,
      "chip": "ym2612"
    },
    {
      "channel": 2,
      "note": 105,
      "start": 39.8642,
      "duration": 0.1116,
      "velocity": 118,
      "chip": "ym2612"
    },
    {
      "channel": 5,
      "note": 44,
      "start": 39.9839,
      "duration": 0.1125,
      "velocity": 127,
      "chip": "ym2612"
    },
    {
      "channel": 4,
      "note": 70,
      "start": 40.1036,
      "duration": 0.1571,
      "velocity": 97,
      "chip": "ym2612"
    },
    {
      "channel": 2,
      "note": 105,
      "start": 40.1058,
      "duration": 0.1095,
      "velocity": 118,
      "chip": "ym2612"
    },
    {
      "channel": 5,
      "note": 71,
      "start": 40.1082,
      "duration": 0.1072,
      "velocity": 127,
      "chip": "ym2612"
    },
    {
      "channel": 3,
      "note": 89,
      "start": 40.2212,
      "duration": 0.1129,
      "velocity": 85,
      "chip": "ym2612"
    },
    {
      "channel": 1,
      "note": 81,
      "start": 40.2228,
      "duration": 0.1114,
      "velocity": 85,
      "chip": "ym2612"
    },
    {
      "channel": 5,
      "note": 38,
      "start": 40.2257,
      "duration": 0.1097,
      "velocity": 127,
      "chip": "ym2612"
    },
    {
      "channel": 0,
      "note": 53,
      "start": 40.3451,
      "duration": 2.147,
      "velocity": 109,
      "chip": "ym2612"
    },
    {
      "channel": 3,
      "note": 89,
      "start": 40.3467,
      "duration": 0.2332,
      "velocity": 85,
      "chip": "ym2612"
    },
    {
      "channel": 1,
      "note": 81,
      "start": 40.3495,
      "duration": 0.1109,
      "velocity": 80,
      "chip": "ym2612"
    },
    {
      "channel": 4,
      "note": 69,
      "start": 40.3514,
      "duration": 0.1552,
      "velocity": 97,
      "chip": "ym2612"
    },
    {
      "channel": 2,
      "note": 105,
      "start": 40.3532,
      "duration": 0.1078,
      "velocity": 118,
      "chip": "ym2612"
    },
    {
      "channel": 5,
      "note": 38,
      "start": 40.355,
      "duration": 0.1062,
      "velocity": 127,
      "chip": "ym2612"
    },
    {
      "channel": 1,
      "note": 106,
      "start": 40.467,
      "duration": 0.1131,
      "velocity": 80,
      "chip": "ym2612"
    },
    {
      "channel": 2,
      "note": 105,
      "start": 40.4692,
      "duration": 0.2321,
      "velocity": 118,
      "chip": "ym2612"
    },
    {
      "channel": 3,
      "note": 87,
      "start": 40.5872,
      "duration": 0.2329,
      "velocity": 85,
      "chip": "ym2612"
    },
    {
      "channel": 1,
      "note": 94,
      "start": 40.5892,
      "duration": 0.1113,
      "velocity": 80,
      "chip": "ym2612"
    },
    {
      "channel": 4,
      "note": 70,
      "start": 40.591,
      "duration": 0.0701,
      "velocity": 97,
      "chip": "ym2612"
    },
    {
      "channel": 1,
      "note": 101,
      "start": 40.7092,
      "duration": 0.1111,
      "velocity": 80,
      "chip": "ym2612"
    },
    {
      "channel": 4,
      "note": 68,
      "start": 40.7109,
      "duration": 0.2372,
      "velocity": 97,
      "chip": "ym2612"
    },
    {
      "channel": 2,
      "note": 105,
      "start": 40.7127,
      "duration": 0.1085,
      "velocity": 118,
      "chip": "ym2612"
    },
    {
      "channel": 5,
      "note": 38,
      "start": 40.7143,
      "duration": 0.1071,
      "velocity": 127,
      "chip": "ym2612"
    },
    {
      "channel": 3,
      "note": 82,
      "start": 40.8268,
      "duration": 0.8368,
      "velocity": 85,
      "chip": "ym2612"
    },
    {
      "channel": 1,
      "note": 89,
      "start": 40.8285,
      "duration": 0.1121,
      "velocity": 80,
      "chip": "ym2612"
    },
    {
      "channel": 2,
      "note": 105,
      "start": 40.8308,
      "duration": 0.2308,
      "velocity": 118,
      "chip": "ym2612"
    },
    {
      "channel": 1,
      "note": 99,
      "start": 40.9473,
      "duration": 0.1135,
      "velocity": 80,
      "chip": "ym2612"
    },
    {
      "channel": 1,
      "note": 87,
      "start": 41.0693,
      "duration": 0.1116,
      "velocity": 80,
      "chip": "ym2612"
    },
    {
      "channel": 4,
      "note": 70,
      "start": 41.0713,
      "duration": 0.2371,
      "velocity": 97,
      "chip": "ym2612"
    },
    {
      "channel": 2,
      "note": 105,
      "start": 41.0731,
      "duration": 0.1085,
      "velocity": 118,
      "chip": "ym2612"
    },
    {
      "channel": 5,
      "note": 38,
      "start": 41.0746,
      "duration": 0.1071,
      "velocity": 127,
      "chip": "ym2612"
    },
    {
      "channel": 1,
      "note": 94,
      "start": 41.1879,
      "duration": 0.1132,
      "velocity": 80,
      "chip": "ym2612"
    },
    {
      "channel": 2,
      "note": 105,
      "start": 41.19,
      "duration": 0.1117,
      "velocity": 118,
      "chip": "ym2612"
    },
    {
      "channel": 1,
      "note": 106,
      "start": 41.3076,
      "duration": 0.1141,
      "velocity": 80,
      "chip": "ym2612"
    },
    {
      "channel": 5,
      "note": 38,
      "start": 41.3107,
      "duration": 0.0834,
      "velocity": 127,
      "chip": "ym2612"
    },
    {
      "channel": 1,
      "note": 94,
      "start": 41.4299,
      "duration": 0.1113,
      "velocity": 80,
      "chip": "ym2612"
    },
    {
      "channel": 4,
      "note": 75,
      "start": 41.4316,
      "duration": 0.07,
      "velocity": 97,
      "chip": "ym2612"
    },
    {
      "channel": 2,
      "note": 105,
      "start": 41.4334,
      "duration": 0.2287,
      "velocity": 118,
      "chip": "ym2612"
    },
    {
      "channel": 1,
      "note": 101,
      "start": 41.5486,
      "duration": 0.1129,
      "velocity": 80,
      "chip": "ym2612"
    },
    {
      "channel": 4,
      "note": 70,
      "start": 41.5504,
      "duration": 0.1571,
      "velocity": 97,
      "chip": "ym2612"
    },
    {
      "channel": 3,
      "note": 87,
      "start": 41.6689,
      "duration": 0.1118,
      "velocity": 85,
      "chip": "ym2612"
    },
    {
      "channel": 1,
      "note": 89,
      "start": 41.6711,
      "duration": 0.1098,
      "velocity": 80,
      "chip": "ym2612"
    },
    {
      "channel": 2,
      "note": 105,
      "start": 41.6733,
      "duration": 0.1083,
      "velocity": 118,
      "chip": "ym2612"
    },
    {
      "channel": 5,
      "note": 44,
      "start": 41.6757,
      "duration": 0.1061,
      "velocity": 127,
      "chip": "ym2612"
    },
    {
      "channel": 3,
      "note": 87,
      "start": 41.7886,
      "duration": 0.2354,
      "velocity": 85,
      "chip": "ym2612"
    },
    {
      "channel": 1,
      "note": 99,
      "start": 41.7905,
      "duration": 0.1109,
      "velocity": 80,
      "chip": "ym2612"
    },
    {
      "channel": 4,
      "note": 68,
      "start": 41.7922,
      "duration": 0.1497,
      "velocity": 97,
      "chip": "ym2612"
    },
    {
      "channel": 2,
      "note": 105,
      "start": 41.794,
      "duration": 0.2284,
      "velocity": 118,
      "chip": "ym2612"
    },
    {
      "channel": 1,
      "note": 94,
      "start": 41.9079,
      "duration": 0.1137,
      "velocity": 80,
      "chip": "ym2612"
    },
    {
      "channel": 3,
      "note": 91,
      "start": 42.031,
      "duration": 0.4622,
      "velocity": 85,
      "chip": "ym2612"
    },
    {
      "channel": 1,
      "note": 82,
      "start": 42.0327,
      "duration": 0.1003,
      "velocity": 80,
      "chip": "ym2612"
    },
    {
      "channel": 4,
      "note": 67,
      "start": 42.0344,
      "duration": 0.159,
      "velocity": 97,
      "chip": "ym2612"
    },
    {
      "channel": 2,
      "note": 105,
      "start": 42.0362,
      "duration": 0.098,
      "velocity": 118,
      "chip": "ym2612"
    },
    {
      "channel": 5,
      "note": 38,
      "start": 42.038,
      "duration": 0.1107,
      "velocity": 127,
      "chip": "ym2612"
    },
    {
      "channel": 1,
      "note": 106,
      "start": 42.1369,
      "duration": 0.1132,
      "velocity": 80,
      "chip": "ym2612"
    },
    {
      "channel": 2,
      "note": 105,
      "start": 42.1394,
      "duration": 0.2317,
      "velocity": 118,
      "chip": "ym2612"
    },
    {
      "channel": 1,
      "note": 94,
      "start": 42.2572,
      "duration": 0.113,
      "velocity": 80,
      "chip": "ym2612"
    },
    {
      "channel": 4,
      "note": 70,
      "start": 42.2588,
      "duration": 0.0719,
      "velocity": 97,
      "chip": "ym2612"
    },
    {
      "channel": 1,
      "note": 101,
      "start": 42.3789,
      "duration": 0.1115,
      "velocity": 80,
      "chip": "ym2612"
    },
    {
      "channel": 4,
      "note": 68,
      "start": 42.3806,
      "duration": 0.2373,
      "velocity": 97,
      "chip": "ym2612"
    },
    {
      "channel": 2,
      "note": 105,
      "start": 42.3824,
      "duration": 0.1086,
      "velocity": 118,
      "chip": "ym2612"
    },
    {
      "channel": 5,
      "note": 38,
      "start": 42.384,
      "duration": 0.1072,
      "velocity": 127,
      "chip": "ym2612"
    },
    {
      "channel": 0,
      "note": 39,
      "start": 42.4971,
      "duration": 0.2324,
      "velocity": 109,
      "chip": "ym2612"
    },
    {
      "channel": 3,
      "note": 89,
      "start": 42.4986,
      "duration": 0.4143,
      "velocity": 85,
      "chip": "ym2612"
    },
    {
      "channel": 1,
      "note": 89,
      "start": 42.5004,
      "duration": 0.11,
      "velocity": 80,
      "chip": "ym2612"
    },
    {
      "channel": 2,
      "note": 105,
      "start": 42.5027,
      "duration": 0.2284,
      "velocity": 118,
      "chip": "ym2612"
    },
    {
      "channel": 1,
      "note": 99,
      "start": 42.617,
      "duration": 0.1132,
      "velocity": 80,
      "chip": "ym2612"
    },
    {
      "channel": 0,
      "note": 39,
      "start": 42.7388,
      "duration": 0.2365,
      "velocity": 109,
      "chip": "ym2612"
    },
    {
      "channel": 1,
      "note": 87,
      "start": 42.7408,
      "duration": 0.1155,
      "velocity": 80,
      "chip": "ym2612"
    },
    {
      "channel": 4,
      "note": 70,
      "start": 42.7425,
      "duration": 0.2445,
      "velocity": 97,
      "chip": "ym2612"
    },
    {
      "channel": 2,
      "note": 105,
      "start": 42.7443,
      "duration": 0.1127,
      "velocity": 118,
      "chip": "ym2612"
    },
    {
      "channel": 5,
      "note": 38,
      "start": 42.7459,
      "duration": 0.1113,
      "velocity": 127,
      "chip": "ym2612"
    },
    {
      "channel": 1,
      "note": 94,
      "start": 42.863,
      "duration": 0.113,
      "velocity": 80,
      "chip": "ym2612"
    },
    {
      "channel": 2,
      "note": 105,
      "start": 42.8652,
      "duration": 0.1115,
      "velocity": 118,
      "chip": "ym2612"
    },
    {
      "channel": 3,
      "note": 87,
      "start": 42.9309,
      "duration": 0.0482,
      "velocity": 85,
      "chip": "ym2612"
    },
    {
      "channel": 0,
      "note": 39,
      "start": 42.983,
      "duration": 0.2325,
      "velocity": 109,
      "chip": "ym2612"
    },
    {
      "channel": 3,
      "note": 87,
      "start": 42.9844,
      "duration": 0.4714,
      "velocity": 85,
      "chip": "ym2612"
    },
    {
      "channel": 1,
      "note": 106,
      "start": 42.9862,
      "duration": 0.1102,
      "velocity": 80,
      "chip": "ym2612"
    },
    {
      "channel": 5,
      "note": 38,
      "start": 42.9897,
      "duration": 0.0797,
      "velocity": 127,
      "chip": "ym2612"
    },
    {
      "channel": 1,
      "note": 94,
      "start": 43.1046,
      "duration": 0.1116,
      "velocity": 80,
      "chip": "ym2612"
    },
    {
      "channel": 4,
      "note": 75,
      "start": 43.1063,
      "duration": 0.0707,
      "velocity": 97,
      "chip": "ym2612"
    },
    {
      "channel": 2,
      "note": 105,
      "start": 43.1081,
      "duration": 0.2292,
      "velocity": 118,
      "chip": "ym2612"
    },
    {
      "channel": 0,
      "note": 39,
      "start": 43.223,
      "duration": 0.2327,
      "velocity": 109,
      "chip": "ym2612"
    },
    {
      "channel": 1,
      "note": 101,
      "start": 43.2253,
      "duration": 0.1114,
      "velocity": 80,
      "chip": "ym2612"
    },
    {
      "channel": 4,
      "note": 70,
      "start": 43.2269,
      "duration": 0.1561,
      "velocity": 97,
      "chip": "ym2612"
    },
    {
      "channel": 1,
      "note": 89,
      "start": 43.3441,
      "duration": 0.1118,
      "velocity": 80,
      "chip": "ym2612"
    },
    {
      "channel": 2,
      "note": 105,
      "start": 43.3463,
      "duration": 0.1103,
      "velocity": 118,
      "chip": "ym2612"
    },
    {
      "channel": 5,
      "note": 44,
      "start": 43.3487,
      "duration": 0.1081,
      "velocity": 127,
      "chip": "ym2612"
    },
    {
      "channel": 0,
      "note": 41,
      "start": 43.4638,
      "duration": 0.2321,
      "velocity": 109,
      "chip": "ym2612"
    },
    {
      "channel": 3,
      "note": 87,
      "start": 43.4654,
      "duration": 0.2137,
      "velocity": 85,
      "chip": "ym2612"
    },
    {
      "channel": 1,
      "note": 99,
      "start": 43.4673,
      "duration": 0.1094,
      "velocity": 80,
      "chip": "ym2612"
    },
    {
      "channel": 4,
      "note": 68,
      "start": 43.4691,
      "duration": 0.1539,
      "velocity": 97,
      "chip": "ym2612"
    },
    {
      "channel": 2,
      "note": 105,
      "start": 43.4712,
      "duration": 0.226,
      "velocity": 118,
      "chip": "ym2612"
    },
    {
      "channel": 1,
      "note": 94,
      "start": 43.5834,
      "duration": 0.1131,
      "velocity": 80,
      "chip": "ym2612"
    },
    {
      "channel": 0,
      "note": 43,
      "start": 43.7065,
      "duration": 1.4303,
      "velocity": 109,
      "chip": "ym2612"
    },
    {
      "channel": 3,
      "note": 89,
      "start": 43.7082,
      "duration": 3.1132,
      "velocity": 85,
      "chip": "ym2612"
    },
    {
      "channel": 1,
      "note": 82,
      "start": 43.7098,
      "duration": 0.1129,
      "velocity": 80,
      "chip": "ym2612"
    },
    {
      "channel": 4,
      "note": 67,
      "start": 43.7115,
      "duration": 0.1574,
      "velocity": 97,
      "chip": "ym2612"
    },
    {
      "channel": 2,
      "note": 105,
      "start": 43.7133,
      "duration": 0.11,
      "velocity": 118,
      "chip": "ym2612"
    },
    {
      "channel": 5,
      "note": 38,
      "start": 43.7148,
      "duration": 0.1086,
      "velocity": 127,
      "chip": "ym2612"
    },
    {
      "channel": 1,
      "note": 106,
      "start": 43.8292,
      "duration": 0.1135,
      "velocity": 80,
      "chip": "ym2612"
    },
    {
      "channel": 2,
      "note": 105,
      "start": 43.8315,
      "duration": 0.2321,
      "velocity": 118,
      "chip": "ym2612"
    },
    {
      "channel": 1,
      "note": 94,
      "start": 43.9494,
      "duration": 0.1135,
      "velocity": 80,
      "chip": "ym2612"
    },
    {
      "channel": 4,
      "note": 70,
      "start": 43.9511,
      "duration": 0.0722,
      "velocity": 97,
      "chip": "ym2612"
    },
    {
      "channel": 1,
      "note": 101,
      "start": 44.0717,
      "duration": 0.1113,
      "velocity": 80,
      "chip": "ym2612"
    },
    {
      "channel": 4,
      "note": 68,
      "start": 44.0734,
      "duration": 0.2374,
      "velocity": 97,
      "chip": "ym2612"
    },
    {
      "channel": 2,
      "note": 105,
      "start": 44.0752,
      "duration": 0.1085,
      "velocity": 118,
      "chip": "ym2612"
    },
    {
      "channel": 5,
      "note": 38,
      "start": 44.0768,
      "duration": 0.1071,
      "velocity": 127,
      "chip": "ym2612"
    },
    {
      "channel": 1,
      "note": 89,
      "start": 44.1897,
      "duration": 0.1136,
      "velocity": 80,
      "chip": "ym2612"
    },
    {
      "channel": 2,
      "note": 105,
      "start": 44.192,
      "duration": 0.232,
      "velocity": 118,
      "chip": "ym2612"
    },
    {
      "channel": 1,
      "note": 99,
      "start": 44.3099,
      "duration": 0.1132,
      "velocity": 80,
      "chip": "ym2612"
    },
    {
      "channel": 1,
      "note": 87,
      "start": 44.432,
      "duration": 0.1115,
      "velocity": 80,
      "chip": "ym2612"
    },
    {
      "channel": 4,
      "note": 70,
      "start": 44.4337,
      "duration": 0.2377,
      "velocity": 97,
      "chip": "ym2612"
    },
    {
      "channel": 2,
      "note": 105,
      "start": 44.4355,
      "duration": 0.1086,
      "velocity": 118,
      "chip": "ym2612"
    },
    {
      "channel": 5,
      "note": 38,
      "start": 44.4371,
      "duration": 0.1072,
      "velocity": 127,
      "chip": "ym2612"
    },
    {
      "channel": 1,
      "note": 94,
      "start": 44.55,
      "duration": 0.1134,
      "velocity": 80,
      "chip": "ym2612"
    },
    {
      "channel": 2,
      "note": 105,
      "start": 44.5523,
      "duration": 0.1119,
      "velocity": 118,
      "chip": "ym2612"
    },
    {
      "channel": 1,
      "note": 106,
      "start": 44.6702,
      "duration": 0.1134,
      "velocity": 80,
      "chip": "ym2612"
    },
    {
      "channel": 5,
      "note": 38,
      "start": 44.6737,
      "duration": 0.0832,
      "velocity": 127,
      "chip": "ym2612"
    },
    {
      "channel": 1,
      "note": 94,
      "start": 44.7921,
      "duration": 0.1115,
      "velocity": 80,
      "chip": "ym2612"
    },
    {
      "channel": 4,
      "note": 75,
      "start": 44.7938,
      "duration": 0.0702,
      "velocity": 97,
      "chip": "ym2612"
    },
    {
      "channel": 2,
      "note": 105,
      "start": 44.7956,
      "duration": 0.2289,
      "velocity": 118,
      "chip": "ym2612"
    },
    {
      "channel": 1,
      "note": 101,
      "start": 44.9109,
      "duration": 0.1129,
      "velocity": 80,
      "chip": "ym2612"
    },
    {
      "channel": 4,
      "note": 70,
      "start": 44.9126,
      "duration": 0.1573,
      "velocity": 97,
      "chip": "ym2612"
    },
    {
      "channel": 1,
      "note": 89,
      "start": 45.0312,
      "duration": 0.1127,
      "velocity": 80,
      "chip": "ym2612"
    },
    {
      "channel": 2,
      "note": 105,
      "start": 45.0334,
      "duration": 0.1111,
      "velocity": 118,
      "chip": "ym2612"
    },
    {
      "channel": 5,
      "note": 44,
      "start": 45.0357,
      "duration": 0.1089,
      "velocity": 127,
      "chip": "ym2612"
    },
    {
      "channel": 0,
      "note": 44,
      "start": 45.1507,
      "duration": 0.2353,
      "velocity": 109,
      "chip": "ym2612"
    },
    {
      "channel": 1,
      "note": 99,
      "start": 45.1532,
      "duration": 0.1104,
      "velocity": 80,
      "chip": "ym2612"
    },
    {
      "channel": 4,
      "note": 68,
      "start": 45.1552,
      "duration": 0.1548,
      "velocity": 97,
      "chip": "ym2612"
    },
    {
      "channel": 2,
      "note": 105,
      "start": 45.157,
      "duration": 0.2276,
      "velocity": 118,
      "chip": "ym2612"
    },
    {
      "channel": 1,
      "note": 94,
      "start": 45.2705,
      "duration": 0.1134,
      "velocity": 80,
      "chip": "ym2612"
    },
    {
      "channel": 0,
      "note": 43,
      "start": 45.3929,
      "duration": 1.1825,
      "velocity": 109,
      "chip": "ym2612"
    },
    {
      "channel": 1,
      "note": 82,
      "start": 45.3954,
      "duration": 0.1144,
      "velocity": 80,
      "chip": "ym2612"
    },
    {
      "channel": 4,
      "note": 67,
      "start": 45.3971,
      "duration": 0.153,
      "velocity": 97,
      "chip": "ym2612"
    },
    {
      "channel": 2,
      "note": 105,
      "start": 45.399,
      "duration": 0.1115,
      "velocity": 118,
      "chip": "ym2612"
    },
    {
      "channel": 5,
      "note": 38,
      "start": 45.4004,
      "duration": 0.1102,
      "velocity": 127,
      "chip": "ym2612"
    },
    {
      "channel": 1,
      "note": 106,
      "start": 45.5164,
      "duration": 0.0993,
      "velocity": 80,
      "chip": "ym2612"
    },
    {
      "channel": 2,
      "note": 105,
      "start": 45.5186,
      "duration": 0.2202,
      "velocity": 118,
      "chip": "ym2612"
    },
    {
      "channel": 1,
      "note": 94,
      "start": 45.6201,
      "duration": 0.1125,
      "velocity": 80,
      "chip": "ym2612"
    },
    {
      "channel": 4,
      "note": 70,
      "start": 45.622,
      "duration": 0.0711,
      "velocity": 97,
      "chip": "ym2612"
    },
    {
      "channel": 1,
      "note": 101,
      "start": 45.7419,
      "duration": 0.111,
      "velocity": 80,
      "chip": "ym2612"
    },
    {
      "channel": 4,
      "note": 68,
      "start": 45.7436,
      "duration": 0.2368,
      "velocity": 97,
      "chip": "ym2612"
    },
    {
      "channel": 2,
      "note": 105,
      "start": 45.7454,
      "duration": 0.1082,
      "velocity": 118,
      "chip": "ym2612"
    },
    {
      "channel": 5,
      "note": 38,
      "start": 45.7469,
      "duration": 0.1068,
      "velocity": 127,
      "chip": "ym2612"
    },
    {
      "channel": 1,
      "note": 89,
      "start": 45.8595,
      "duration": 0.1134,
      "velocity": 80,
      "chip": "ym2612"
    },
    {
      "channel": 2,
      "note": 105,
      "start": 45.8617,
      "duration": 0.2321,
      "velocity": 118,
      "chip": "ym2612"
    },
    {
      "channel": 1,
      "note": 99,
      "start": 45.9795,
      "duration": 0.1134,
      "velocity": 80,
      "chip": "ym2612"
    },
    {
      "channel": 1,
      "note": 87,
      "start": 46.1016,
      "duration": 0.1115,
      "velocity": 80,
      "chip": "ym2612"
    },
    {
      "channel": 4,
      "note": 70,
      "start": 46.1034,
      "duration": 0.2383,
      "velocity": 97,
      "chip": "ym2612"
    },
    {
      "channel": 2,
      "note": 105,
      "start": 46.1054,
      "duration": 0.1083,
      "velocity": 118,
      "chip": "ym2612"
    },
    {
      "channel": 5,
      "note": 38,
      "start": 46.107,
      "duration": 0.1069,
      "velocity": 127,
      "chip": "ym2612"
    },
    {
      "channel": 1,
      "note": 94,
      "start": 46.2197,
      "duration": 0.1135,
      "velocity": 80,
      "chip": "ym2612"
    },
    {
      "channel": 2,
      "note": 105,
      "start": 46.2222,
      "duration": 0.1116,
      "velocity": 118,
      "chip": "ym2612"
    },
    {
      "channel": 1,
      "note": 106,
      "start": 46.3408,
      "duration": 0.1125,
      "velocity": 80,
      "chip": "ym2612"
    },
    {
      "channel": 2,
      "note": 105,
      "start": 46.3427,
      "duration": 0.1115,
      "velocity": 118,
      "chip": "ym2612"
    },
    {
      "channel": 5,
      "note": 38,
      "start": 46.345,
      "duration": 0.0812,
      "velocity": 127,
      "chip": "ym2612"
    },
    {
      "channel": 1,
      "note": 94,
      "start": 46.4614,
      "duration": 0.112,
      "velocity": 80,
      "chip": "ym2612"
    },
    {
      "channel": 4,
      "note": 75,
      "start": 46.4631,
      "duration": 0.0707,
      "velocity": 97,
      "chip": "ym2612"
    },
    {
      "channel": 2,
      "note": 105,
      "start": 46.4649,
      "duration": 0.1092,
      "velocity": 118,
      "chip": "ym2612"
    },
    {
      "channel": 0,
      "note": 41,
      "start": 46.5815,
      "duration": 0.4766,
      "velocity": 109,
      "chip": "ym2612"
    },
    {
      "channel": 1,
      "note": 101,
      "start": 46.584,
      "duration": 0.1151,
      "velocity": 80,
      "chip": "ym2612"
    },
    {
      "channel": 4,
      "note": 70,
      "start": 46.5857,
      "duration": 0.1595,
      "velocity": 97,
      "chip": "ym2612"
    },
    {
      "channel": 2,
      "note": 105,
      "start": 46.5878,
      "duration": 0.112,
      "velocity": 118,
      "chip": "ym2612"
    },
    {
      "channel": 5,
      "note": 44,
      "start": 46.5893,
      "duration": 0.0831,
      "velocity": 127,
      "chip": "ym2612"
    },
    {
      "channel": 1,
      "note": 89,
      "start": 46.7067,
      "duration": 0.1125,
      "velocity": 80,
      "chip": "ym2612"
    },
    {
      "channel": 2,
      "note": 105,
      "start": 46.709,
      "duration": 0.111,
      "velocity": 118,
      "chip": "ym2612"
    },
    {
      "channel": 5,
      "note": 44,
      "start": 46.7113,
      "duration": 0.1088,
      "velocity": 127,
      "chip": "ym2612"
    },
    {
      "channel": 3,
      "note": 89,
      "start": 46.8269,
      "duration": 0.1116,
      "velocity": 85,
      "chip": "ym2612"
    },
    {
      "channel": 1,
      "note": 99,
      "start": 46.8288,
      "duration": 0.1099,
      "velocity": 80,
      "chip": "ym2612"
    },
    {
      "channel": 4,
      "note": 68,
      "start": 46.8305,
      "duration": 0.1491,
      "velocity": 97,
      "chip": "ym2612"
    },
    {
      "channel": 2,
      "note": 105,
      "start": 46.8323,
      "duration": 0.1071,
      "velocity": 118,
      "chip": "ym2612"
    },
    {
      "channel": 3,
      "note": 89,
      "start": 46.9461,
      "duration": 0.1122,
      "velocity": 85,
      "chip": "ym2612"
    },
    {
      "channel": 1,
      "note": 94,
      "start": 46.9478,
      "duration": 0.1106,
      "velocity": 80,
      "chip": "ym2612"
    },
    {
      "channel": 2,
      "note": 105,
      "start": 46.95,
      "duration": 0.109,
      "velocity": 118,
      "chip": "ym2612"
    },
    {
      "channel": 5,
      "note": 38,
      "start": 46.9524,
      "duration": 0.0796,
      "velocity": 127,
      "chip": "ym2612"
    },
    {
      "channel": 0,
      "note": 46,
      "start": 47.0684,
      "duration": 2.1492,
      "velocity": 109,
      "chip": "ym2612"
    },
    {
      "channel": 3,
      "note": 89,
      "start": 47.0701,
      "duration": 0.2347,
      "velocity": 85,
      "chip": "ym2612"
    },
    {
      "channel": 1,
      "note": 82,
      "start": 47.0723,
      "duration": 0.1126,
      "velocity": 80,
      "chip": "ym2612"
    },
    {
      "channel": 4,
      "note": 67,
      "start": 47.074,
      "duration": 0.1572,
      "velocity": 97,
      "chip": "ym2612"
    },
    {
      "channel": 2,
      "note": 105,
      "start": 47.0758,
      "duration": 0.1098,
      "velocity": 118,
      "chip": "ym2612"
    },
    {
      "channel": 5,
      "note": 44,
      "start": 47.0782,
      "duration": 0.1076,
      "velocity": 127,
      "chip": "ym2612"
    },
    {
      "channel": 1,
      "note": 106,
      "start": 47.1915,
      "duration": 0.1134,
      "velocity": 80,
      "chip": "ym2612"
    },
    {
      "channel": 2,
      "note": 105,
      "start": 47.1937,
      "duration": 0.2321,
      "velocity": 118,
      "chip": "ym2612"
    },
    {
      "channel": 3,
      "note": 87,
      "start": 47.3119,
      "duration": 0.2327,
      "velocity": 85,
      "chip": "ym2612"
    },
    {
      "channel": 1,
      "note": 94,
      "start": 47.3137,
      "duration": 0.1113,
      "velocity": 80,
      "chip": "ym2612"
    },
    {
      "channel": 4,
      "note": 70,
      "start": 47.3154,
      "duration": 0.0701,
      "velocity": 97,
      "chip": "ym2612"
    },
    {
      "channel": 1,
      "note": 101,
      "start": 47.4334,
      "duration": 0.1113,
      "velocity": 80,
      "chip": "ym2612"
    },
    {
      "channel": 4,
      "note": 68,
      "start": 47.4351,
      "duration": 0.2378,
      "velocity": 97,
      "chip": "ym2612"
    },
    {
      "channel": 2,
      "note": 105,
      "start": 47.4369,
      "duration": 0.1085,
      "velocity": 118,
      "chip": "ym2612"
    },
    {
      "channel": 5,
      "note": 38,
      "start": 47.4388,
      "duration": 0.1067,
      "velocity": 127,
      "chip": "ym2612"
    },
    {
      "channel": 3,
      "note": 82,
      "start": 47.5512,
      "duration": 0.8373,
      "velocity": 85,
      "chip": "ym2612"
    },
    {
      "channel": 1,
      "note": 89,
      "start": 47.553,
      "duration": 0.1122,
      "velocity": 80,
      "chip": "ym2612"
    },
    {
      "channel": 2,
      "note": 105,
      "start": 47.5554,
      "duration": 0.2307,
      "velocity": 118,
      "chip": "ym2612"
    },
    {
      "channel": 1,
      "note": 99,
      "start": 47.6721,
      "duration": 0.1132,
      "velocity": 80,
      "chip": "ym2612"
    },
    {
      "channel": 1,
      "note": 87,
      "start": 47.7941,
      "duration": 0.1116,
      "velocity": 80,
      "chip": "ym2612"
    },
    {
      "channel": 4,
      "note": 70,
      "start": 47.7958,
      "duration": 0.2371,
      "velocity": 97,
      "chip": "ym2612"
    },
    {
      "channel": 2,
      "note": 105,
      "start": 47.7976,
      "duration": 0.1088,
      "velocity": 118,
      "chip": "ym2612"
    },
    {
      "channel": 5,
      "note": 38,
      "start": 47.7992,
      "duration": 0.1073,
      "velocity": 127,
      "chip": "ym2612"
    },
    {
      "channel": 1,
      "note": 94,
      "start": 47.9121,
      "duration": 0.1135,
      "velocity": 80,
      "chip": "ym2612"
    },
    {
      "channel": 2,
      "note": 105,
      "start": 47.9144,
      "duration": 0.112,
      "velocity": 118,
      "chip": "ym2612"
    },
    {
      "channel": 1,
      "note": 106,
      "start": 48.032,
      "duration": 0.1139,
      "velocity": 80,
      "chip": "ym2612"
    },
    {
      "channel": 5,
      "note": 38,
      "start": 48.0353,
      "duration": 0.0834,
      "velocity": 127,
      "chip": "ym2612"
    },
    {
      "channel": 1,
      "note": 94,
      "start": 48.1544,
      "duration": 0.1113,
      "velocity": 80,
      "chip": "ym2612"
    },
    {
      "channel": 4,
      "note": 75,
      "start": 48.1561,
      "duration": 0.07,
      "velocity": 97,
      "chip": "ym2612"
    },
    {
      "channel": 2,
      "note": 105,
      "start": 48.1579,
      "duration": 0.2288,
      "velocity": 118,
      "chip": "ym2612"
    },
    {
      "channel": 1,
      "note": 101,
      "start": 48.2734,
      "duration": 0.1126,
      "velocity": 80,
      "chip": "ym2612"
    },
    {
      "channel": 4,
      "note": 70,
      "start": 48.2751,
      "duration": 0.1512,
      "velocity": 97,
      "chip": "ym2612"
    },
    {
      "channel": 3,
      "note": 87,
      "start": 48.3937,
      "duration": 0.1115,
      "velocity": 85,
      "chip": "ym2612"
    },
    {
      "channel": 1,
      "note": 89,
      "start": 48.3956,
      "duration": 0.1098,
      "velocity": 80,
      "chip": "ym2612"
    },
    {
      "channel": 2,
      "note": 105,
      "start": 48.3979,
      "duration": 0.1082,
      "velocity": 118,
      "chip": "ym2612"
    },
    {
      "channel": 5,
      "note": 44,
      "start": 48.4002,
      "duration": 0.1061,
      "velocity": 127,
      "chip": "ym2612"
    },
    {
      "channel": 3,
      "note": 87,
      "start": 48.5128,
      "duration": 0.2355,
      "velocity": 85,
      "chip": "ym2612"
    },
    {
      "channel": 1,
      "note": 99,
      "start": 48.5147,
      "duration": 0.1111,
      "velocity": 80,
      "chip": "ym2612"
    },
    {
      "channel": 4,
      "note": 68,
      "start": 48.5165,
      "duration": 0.1559,
      "velocity": 97,
      "chip": "ym2612"
    },
    {
      "channel": 2,
      "note": 105,
      "start": 48.5182,
      "duration": 0.2284,
      "velocity": 118,
      "chip": "ym2612"
    },
    {
      "channel": 1,
      "note": 94,
      "start": 48.6325,
      "duration": 0.1135,
      "velocity": 80,
      "chip": "ym2612"
    },
    {
      "channel": 3,
      "note": 91,
      "start": 48.7556,
      "duration": 0.5822,
      "velocity": 85,
      "chip": "ym2612"
    },
    {
      "channel": 1,
      "note": 82,
      "start": 48.7573,
      "duration": 0.1146,
      "velocity": 80,
      "chip": "ym2612"
    },
    {
      "channel": 4,
      "note": 67,
      "start": 48.7591,
      "duration": 0.1589,
      "velocity": 97,
      "chip": "ym2612"
    },
    {
      "channel": 2,
      "note": 105,
      "start": 48.7609,
      "duration": 0.1118,
      "velocity": 118,
      "chip": "ym2612"
    },
    {
      "channel": 5,
      "note": 38,
      "start": 48.7624,
      "duration": 0.1104,
      "velocity": 127,
      "chip": "ym2612"
    },
    {
      "channel": 1,
      "note": 106,
      "start": 48.8783,
      "duration": 0.1135,
      "velocity": 80,
      "chip": "ym2612"
    },
    {
      "channel": 2,
      "note": 105,
      "start": 48.8806,
      "duration": 0.2321,
      "velocity": 118,
      "chip": "ym2612"
    },
    {
      "channel": 1,
      "note": 94,
      "start": 48.9985,
      "duration": 0.1135,
      "velocity": 80,
      "chip": "ym2612"
    },
    {
      "channel": 4,
      "note": 70,
      "start": 49.0002,
      "duration": 0.0724,
      "velocity": 97,
      "chip": "ym2612"
    },
    {
      "channel": 1,
      "note": 101,
      "start": 49.1205,
      "duration": 0.0983,
      "velocity": 80,
      "chip": "ym2612"
    },
    {
      "channel": 4,
      "note": 68,
      "start": 49.1225,
      "duration": 0.2358,
      "velocity": 97,
      "chip": "ym2612"
    },
    {
      "channel": 2,
      "note": 105,
      "start": 49.1243,
      "duration": 0.0957,
      "velocity": 118,
      "chip": "ym2612"
    },
    {
      "channel": 5,
      "note": 38,
      "start": 49.1259,
      "duration": 0.1081,
      "velocity": 127,
      "chip": "ym2612"
    },
    {
      "channel": 0,
      "note": 39,
      "start": 49.222,
      "duration": 0.232,
      "velocity": 109,
      "chip": "ym2612"
    },
    {
      "channel": 1,
      "note": 89,
      "start": 49.2244,
      "duration": 0.1106,
      "velocity": 80,
      "chip": "ym2612"
    },
    {
      "channel": 2,
      "note": 105,
      "start": 49.2266,
      "duration": 0.2288,
      "velocity": 118,
      "chip": "ym2612"
    },
    {
      "channel": 3,
      "note": 89,
      "start": 49.3413,
      "duration": 0.1129,
      "velocity": 85,
      "chip": "ym2612"
    },
    {
      "channel": 1,
      "note": 99,
      "start": 49.3432,
      "duration": 0.1114,
      "velocity": 80,
      "chip": "ym2612"
    },
    {
      "channel": 0,
      "note": 39,
      "start": 49.464,
      "duration": 0.2359,
      "velocity": 109,
      "chip": "ym2612"
    },
    {
      "channel": 3,
      "note": 89,
      "start": 49.4654,
      "duration": 0.2345,
      "velocity": 85,
      "chip": "ym2612"
    },
    {
      "channel": 1,
      "note": 87,
      "start": 49.4671,
      "duration": 0.1136,
      "velocity": 80,
      "chip": "ym2612"
    },
    {
      "channel": 4,
      "note": 70,
      "start": 49.4689,
      "duration": 0.2435,
      "velocity": 97,
      "chip": "ym2612"
    },
    {
      "channel": 2,
      "note": 105,
      "start": 49.4707,
      "duration": 0.1107,
      "velocity": 118,
      "chip": "ym2612"
    },
    {
      "channel": 5,
      "note": 38,
      "start": 49.4726,
      "duration": 0.109,
      "velocity": 127,
      "chip": "ym2612"
    },
    {
      "channel": 1,
      "note": 94,
      "start": 49.5874,
      "duration": 0.1128,
      "velocity": 80,
      "chip": "ym2612"
    },
    {
      "channel": 2,
      "note": 105,
      "start": 49.5899,
      "duration": 0.111,
      "velocity": 118,
      "chip": "ym2612"
    },
    {
      "channel": 0,
      "note": 39,
      "start": 49.7083,
      "duration": 0.2318,
      "velocity": 109,
      "chip": "ym2612"
    },
    {
      "channel": 3,
      "note": 89,
      "start": 49.7097,
      "duration": 0.2305,
      "velocity": 85,
      "chip": "ym2612"
    },
    {
      "channel": 1,
      "note": 106,
      "start": 49.7115,
      "duration": 0.1097,
      "velocity": 80,
      "chip": "ym2612"
    },
    {
      "channel": 2,
      "note": 105,
      "start": 49.7133,
      "duration": 0.1088,
      "velocity": 118,
      "chip": "ym2612"
    },
    {
      "channel": 5,
      "note": 38,
      "start": 49.7157,
      "duration": 0.0782,
      "velocity": 127,
      "chip": "ym2612"
    },
    {
      "channel": 1,
      "note": 94,
      "start": 49.8287,
      "duration": 0.1116,
      "velocity": 80,
      "chip": "ym2612"
    },
    {
      "channel": 4,
      "note": 75,
      "start": 49.8304,
      "duration": 0.0711,
      "velocity": 97,
      "chip": "ym2612"
    },
    {
      "channel": 2,
      "note": 105,
      "start": 49.8322,
      "duration": 0.1088,
      "velocity": 118,
      "chip": "ym2612"
    },
    {
      "channel": 0,
      "note": 39,
      "start": 49.9485,
      "duration": 0.2375,
      "velocity": 109,
      "chip": "ym2612"
    },
    {
      "channel": 3,
      "note": 94,
      "start": 49.9501,
      "duration": 0.2359,
      "velocity": 85,
      "chip": "ym2612"
    },
    {
      "channel": 1,
      "note": 101,
      "start": 49.9519,
      "duration": 0.1149,
      "velocity": 80,
      "chip": "ym2612"
    },
    {
      "channel": 4,
      "note": 70,
      "start": 49.9536,
      "duration": 0.1595,
      "velocity": 97,
      "chip": "ym2612"
    },
    {
      "channel": 2,
      "note": 105,
      "start": 49.9557,
      "duration": 0.1118,
      "velocity": 118,
      "chip": "ym2612"
    },
    {
      "channel": 1,
      "note": 89,
      "start": 50.0741,
      "duration": 0.1121,
      "velocity": 80,
      "chip": "ym2612"
    },
    {
      "channel": 2,
      "note": 105,
      "start": 50.0763,
      "duration": 0.1106,
      "velocity": 118,
      "chip": "ym2612"
    },
    {
      "channel": 5,
      "note": 44,
      "start": 50.0787,
      "duration": 0.1084,
      "velocity": 127,
      "chip": "ym2612"
    },
    {
      "channel": 0,
      "note": 41,
      "start": 50.1951,
      "duration": 0.2367,
      "velocity": 109,
      "chip": "ym2612"
    },
    {
      "channel": 3,
      "note": 92,
      "start": 50.1967,
      "duration": 0.2352,
      "velocity": 85,
      "chip": "ym2612"
    },
    {
      "channel": 1,
      "note": 99,
      "start": 50.1986,
      "duration": 0.1141,
      "velocity": 80,
      "chip": "ym2612"
    },
    {
      "channel": 4,
      "note": 68,
      "start": 50.2002,
      "duration": 0.1587,
      "velocity": 97,
      "chip": "ym2612"
    },
    {
      "channel": 2,
      "note": 105,
      "start": 50.2021,
      "duration": 0.1113,
      "velocity": 118,
      "chip": "ym2612"
    },
    {
      "channel": 5,
      "note": 38,
      "start": 50.2047,
      "duration": 0.0809,
      "velocity": 127,
      "chip": "ym2612"
    },
    {
      "channel": 1,
      "note": 94,
      "start": 50.3193,
      "duration": 0.1128,
      "velocity": 80,
      "chip": "ym2612"
    },
    {
      "channel": 2,
      "note": 105,
      "start": 50.3218,
      "duration": 0.111,
      "velocity": 118,
      "chip": "ym2612"
    },
    {
      "channel": 0,
      "note": 43,
      "start": 50.4422,
      "duration": 1.6879,
      "velocity": 109,
      "chip": "ym2612"
    },
    {
      "channel": 3,
      "note": 89,
      "start": 50.4438,
      "duration": 1.3298,
      "velocity": 85,
      "chip": "ym2612"
    },
    {
      "channel": 1,
      "note": 82,
      "start": 50.4456,
      "duration": 0.113,
      "velocity": 80,
      "chip": "ym2612"
    },
    {
      "channel": 4,
      "note": 67,
      "start": 50.4473,
      "duration": 0.1518,
      "velocity": 97,
      "chip": "ym2612"
    },
    {
      "channel": 2,
      "note": 105,
      "start": 50.4491,
      "duration": 0.1101,
      "velocity": 118,
      "chip": "ym2612"
    },
    {
      "channel": 5,
      "note": 44,
      "start": 50.4506,
      "duration": 0.0809,
      "velocity": 127,
      "chip": "ym2612"
    },
    {
      "channel": 1,
      "note": 106,
      "start": 50.5652,
      "duration": 0.1135,
      "velocity": 80,
      "chip": "ym2612"
    },
    {
      "channel": 2,
      "note": 105,
      "start": 50.5674,
      "duration": 0.112,
      "velocity": 118,
      "chip": "ym2612"
    },
    {
      "channel": 1,
      "note": 94,
      "start": 50.6861,
      "duration": 0.1128,
      "velocity": 80,
      "chip": "ym2612"
    },
    {
      "channel": 4,
      "note": 70,
      "start": 50.688,
      "duration": 0.0712,
      "velocity": 97,
      "chip": "ym2612"
    },
    {
      "channel": 5,
      "note": 44,
      "start": 50.6903,
      "duration": 0.0818,
      "velocity": 127,
      "chip": "ym2612"
    },
    {
      "channel": 1,
      "note": 101,
      "start": 50.8078,
      "duration": 0.117,
      "velocity": 80,
      "chip": "ym2612"
    },
    {
      "channel": 4,
      "note": 68,
      "start": 50.8095,
      "duration": 0.2429,
      "velocity": 97,
      "chip": "ym2612"
    },
    {
      "channel": 2,
      "note": 105,
      "start": 50.8114,
      "duration": 0.1141,
      "velocity": 118,
      "chip": "ym2612"
    },
    {
      "channel": 5,
      "note": 44,
      "start": 50.8137,
      "duration": 0.1119,
      "velocity": 127,
      "chip": "ym2612"
    },
    {
      "channel": 1,
      "note": 89,
      "start": 50.9312,
      "duration": 0.1139,
      "velocity": 80,
      "chip": "ym2612"
    },
    {
      "channel": 2,
      "note": 105,
      "start": 50.9334,
      "duration": 0.1123,
      "velocity": 118,
      "chip": "ym2612"
    },
    {
      "channel": 1,
      "note": 99,
      "start": 51.0516,
      "duration": 0.1132,
      "velocity": 80,
      "chip": "ym2612"
    },
    {
      "channel": 5,
      "note": 38,
      "start": 51.0552,
      "duration": 0.111,
      "velocity": 127,
      "chip": "ym2612"
    },
    {
      "channel": 1,
      "note": 87,
      "start": 51.1737,
      "duration": 0.1172,
      "velocity": 80,
      "chip": "ym2612"
    },
    {
      "channel": 4,
      "note": 70,
      "start": 51.1754,
      "duration": 0.2431,
      "velocity": 97,
      "chip": "ym2612"
    },
    {
      "channel": 2,
      "note": 105,
      "start": 51.1773,
      "duration": 0.1143,
      "velocity": 118,
      "chip": "ym2612"
    },
    {
      "channel": 5,
      "note": 67,
      "start": 51.1797,
      "duration": 0.112,
      "velocity": 127,
      "chip": "ym2612"
    },
    {
      "channel": 1,
      "note": 94,
      "start": 51.2974,
      "duration": 0.1134,
      "velocity": 80,
      "chip": "ym2612"
    },
    {
      "channel": 2,
      "note": 105,
      "start": 51.2997,
      "duration": 0.1119,
      "velocity": 118,
      "chip": "ym2612"
    },
    {
      "channel": 1,
      "note": 106,
      "start": 51.4176,
      "duration": 0.1134,
      "velocity": 80,
      "chip": "ym2612"
    },
    {
      "channel": 5,
      "note": 38,
      "start": 51.4211,
      "duration": 0.0829,
      "velocity": 127,
      "chip": "ym2612"
    },
    {
      "channel": 1,
      "note": 94,
      "start": 51.5394,
      "duration": 0.1116,
      "velocity": 80,
      "chip": "ym2612"
    },
    {
      "channel": 4,
      "note": 75,
      "start": 51.5411,
      "duration": 0.0704,
      "velocity": 97,
      "chip": "ym2612"
    },
    {
      "channel": 2,
      "note": 105,
      "start": 51.5429,
      "duration": 0.1088,
      "velocity": 118,
      "chip": "ym2612"
    },
    {
      "channel": 1,
      "note": 101,
      "start": 51.659,
      "duration": 0.1125,
      "velocity": 80,
      "chip": "ym2612"
    },
    {
      "channel": 4,
      "note": 70,
      "start": 51.6607,
      "duration": 0.1564,
      "velocity": 97,
      "chip": "ym2612"
    },
    {
      "channel": 2,
      "note": 105,
      "start": 51.6625,
      "duration": 0.1096,
      "velocity": 118,
      "chip": "ym2612"
    },
    {
      "channel": 3,
      "note": 91,
      "start": 51.778,
      "duration": 0.1124,
      "velocity": 85,
      "chip": "ym2612"
    },
    {
      "channel": 1,
      "note": 89,
      "start": 51.7799,
      "duration": 0.1106,
      "velocity": 80,
      "chip": "ym2612"
    },
    {
      "channel": 5,
      "note": 44,
      "start": 51.7836,
      "duration": 0.1081,
      "velocity": 127,
      "chip": "ym2612"
    },
    {
      "channel": 3,
      "note": 91,
      "start": 51.8991,
      "duration": 1.6757,
      "velocity": 85,
      "chip": "ym2612"
    },
    {
      "channel": 1,
      "note": 99,
      "start": 51.901,
      "duration": 0.1157,
      "velocity": 80,
      "chip": "ym2612"
    },
    {
      "channel": 4,
      "note": 68,
      "start": 51.9027,
      "duration": 0.1603,
      "velocity": 97,
      "chip": "ym2612"
    },
    {
      "channel": 2,
      "note": 105,
      "start": 51.9048,
      "duration": 0.1126,
      "velocity": 118,
      "chip": "ym2612"
    },
    {
      "channel": 5,
      "note": 71,
      "start": 51.9072,
      "duration": 0.1103,
      "velocity": 127,
      "chip": "ym2612"
    },
    {
      "channel": 1,
      "note": 94,
      "start": 52.0235,
      "duration": 0.1133,
      "velocity": 80,
      "chip": "ym2612"
    },
    {
      "channel": 5,
      "note": 38,
      "start": 52.0263,
      "duration": 0.112,
      "velocity": 127,
      "chip": "ym2612"
    },
    {
      "channel": 0,
      "note": 44,
      "start": 52.1461,
      "duration": 1.6742,
      "velocity": 109,
      "chip": "ym2612"
    },
    {
      "channel": 1,
      "note": 82,
      "start": 52.1485,
      "duration": 0.1142,
      "velocity": 80,
      "chip": "ym2612"
    },
    {
      "channel": 4,
      "note": 67,
      "start": 52.1502,
      "duration": 0.1589,
      "velocity": 97,
      "chip": "ym2612"
    },
    {
      "channel": 2,
      "note": 105,
      "start": 52.152,
      "duration": 0.1114,
      "velocity": 118,
      "chip": "ym2612"
    },
    {
      "channel": 5,
      "note": 38,
      "start": 52.1535,
      "duration": 0.11,
      "velocity": 127,
      "chip": "ym2612"
    },
    {
      "channel": 1,
      "note": 106,
      "start": 52.2693,
      "duration": 0.1135,
      "velocity": 80,
      "chip": "ym2612"
    },
    {
      "channel": 5,
      "note": 38,
      "start": 52.2733,
      "duration": 0.1108,
      "velocity": 127,
      "chip": "ym2612"
    },
    {
      "channel": 1,
      "note": 94,
      "start": 52.3913,
      "duration": 0.1118,
      "velocity": 80,
      "chip": "ym2612"
    },
    {
      "channel": 4,
      "note": 70,
      "start": 52.393,
      "duration": 0.0702,
      "velocity": 97,
      "chip": "ym2612"
    },
    {
      "channel": 2,
      "note": 105,
      "start": 52.3948,
      "duration": 0.109,
      "velocity": 118,
      "chip": "ym2612"
    },
    {
      "channel": 5,
      "note": 71,
      "start": 52.3963,
      "duration": 0.1076,
      "velocity": 127,
      "chip": "ym2612"
    },
    {
      "channel": 1,
      "note": 101,
      "start": 52.5107,
      "duration": 0.1122,
      "velocity": 80,
      "chip": "ym2612"
    },
    {
      "channel": 4,
      "note": 68,
      "start": 52.5124,
      "duration": 0.2371,
      "velocity": 97,
      "chip": "ym2612"
    },
    {
      "channel": 5,
      "note": 71,
      "start": 52.5157,
      "duration": 0.1084,
      "velocity": 127,
      "chip": "ym2612"
    },
    {
      "channel": 1,
      "note": 89,
      "start": 52.6298,
      "duration": 0.0993,
      "velocity": 80,
      "chip": "ym2612"
    },
    {
      "channel": 2,
      "note": 105,
      "start": 52.632,
      "duration": 0.1123,
      "velocity": 118,
      "chip": "ym2612"
    },
    {
      "channel": 1,
      "note": 99,
      "start": 52.7331,
      "duration": 0.113,
      "velocity": 80,
      "chip": "ym2612"
    },
    {
      "channel": 5,
      "note": 38,
      "start": 52.7358,
      "duration": 0.1117,
      "velocity": 127,
      "chip": "ym2612"
    },
    {
      "channel": 1,
      "note": 87,
      "start": 52.8551,
      "duration": 0.1169,
      "velocity": 80,
      "chip": "ym2612"
    },
    {
      "channel": 4,
      "note": 70,
      "start": 52.8568,
      "duration": 0.2434,
      "velocity": 97,
      "chip": "ym2612"
    },
    {
      "channel": 2,
      "note": 105,
      "start": 52.8587,
      "duration": 0.234,
      "velocity": 118,
      "chip": "ym2612"
    },
    {
      "channel": 5,
      "note": 38,
      "start": 52.861,
      "duration": 0.1753,
      "velocity": 127,
      "chip": "ym2612"
    },
    {
      "channel": 1,
      "note": 94,
      "start": 52.9786,
      "duration": 0.1135,
      "velocity": 80,
      "chip": "ym2612"
    },
    {
      "channel": 1,
      "note": 106,
      "start": 53.0994,
      "duration": 0.1127,
      "velocity": 80,
      "chip": "ym2612"
    },
    {
      "channel": 2,
      "note": 105,
      "start": 53.1012,
      "duration": 0.1117,
      "velocity": 118,
      "chip": "ym2612"
    },
    {
      "channel": 5,
      "note": 44,
      "start": 53.1038,
      "duration": 0.1093,
      "velocity": 127,
      "chip": "ym2612"
    },
    {
      "channel": 1,
      "note": 94,
      "start": 53.2196,
      "duration": 0.1125,
      "velocity": 80,
      "chip": "ym2612"
    },
    {
      "channel": 4,
      "note": 75,
      "start": 53.2215,
      "duration": 0.0711,
      "velocity": 97,
      "chip": "ym2612"
    },
    {
      "channel": 5,
      "note": 73,
      "start": 53.2249,
      "duration": 0.1084,
      "velocity": 127,
      "chip": "ym2612"
    },
    {
      "channel": 1,
      "note": 101,
      "start": 53.3407,
      "duration": 0.1116,
      "velocity": 80,
      "chip": "ym2612"
    },
    {
      "channel": 4,
      "note": 70,
      "start": 53.3424,
      "duration": 0.1505,
      "velocity": 97,
      "chip": "ym2612"
    },
    {
      "channel": 2,
      "note": 105,
      "start": 53.3442,
      "duration": 0.1087,
      "velocity": 118,
      "chip": "ym2612"
    },
    {
      "channel": 5,
      "note": 38,
      "start": 53.3467,
      "duration": 0.1064,
      "velocity": 127,
      "chip": "ym2612"
    },
    {
      "channel": 1,
      "note": 89,
      "start": 53.4589,
      "duration": 0.1137,
      "velocity": 80,
      "chip": "ym2612"
    },
    {
      "channel": 5,
      "note": 67,
      "start": 53.4625,
      "duration": 0.1112,
      "velocity": 127,
      "chip": "ym2612"
    },
    {
      "channel": 3,
      "note": 89,
      "start": 53.5812,
      "duration": 0.1162,
      "velocity": 85,
      "chip": "ym2612"
    },
    {
      "channel": 1,
      "note": 99,
      "start": 53.5831,
      "duration": 0.1144,
      "velocity": 80,
      "chip": "ym2612"
    },
    {
      "channel": 4,
      "note": 68,
      "start": 53.5848,
      "duration": 0.1594,
      "velocity": 97,
      "chip": "ym2612"
    },
    {
      "channel": 2,
      "note": 105,
      "start": 53.5866,
      "duration": 0.1116,
      "velocity": 118,
      "chip": "ym2612"
    },
    {
      "channel": 5,
      "note": 38,
      "start": 53.5893,
      "duration": 0.0815,
      "velocity": 127,
      "chip": "ym2612"
    },
    {
      "channel": 3,
      "note": 89,
      "start": 53.7042,
      "duration": 0.1132,
      "velocity": 85,
      "chip": "ym2612"
    },
    {
      "channel": 1,
      "note": 94,
      "start": 53.7061,
      "duration": 0.1115,
      "velocity": 80,
      "chip": "ym2612"
    },
    {
      "channel": 5,
      "note": 44,
      "start": 53.7088,
      "duration": 0.0821,
      "velocity": 127,
      "chip": "ym2612"
    },
    {
      "channel": 0,
      "note": 49,
      "start": 53.8292,
      "duration": 3.3641,
      "velocity": 109,
      "chip": "ym2612"
    },
    {
      "channel": 3,
      "note": 89,
      "start": 53.8317,
      "duration": 0.2373,
      "velocity": 91,
      "chip": "ym2612"
    },
    {
      "channel": 1,
      "note": 82,
      "start": 53.8344,
      "duration": 0.2347,
      "velocity": 91,
      "chip": "ym2612"
    },
    {
      "channel": 4,
      "note": 67,
      "start": 53.8363,
      "duration": 0.1594,
      "velocity": 97,
      "chip": "ym2612"
    },
    {
      "channel": 2,
      "note": 105,
      "start": 53.8384,
      "duration": 0.1121,
      "velocity": 118,
      "chip": "ym2612"
    },
    {
      "channel": 5,
      "note": 44,
      "start": 53.8407,
      "duration": 0.1099,
      "velocity": 127,
      "chip": "ym2612"
    },
    {
      "channel": 2,
      "note": 105,
      "start": 53.9573,
      "duration": 0.2333,
      "velocity": 118,
      "chip": "ym2612"
    },
    {
      "channel": 3,
      "note": 99,
      "start": 54.0766,
      "duration": 0.2326,
      "velocity": 91,
      "chip": "ym2612"
    },
    {
      "channel": 1,
      "note": 94,
      "start": 54.0782,
      "duration": 0.2311,
      "velocity": 91,
      "chip": "ym2612"
    },
    {
      "channel": 4,
      "note": 70,
      "start": 54.0798,
      "duration": 0.0707,
      "velocity": 97,
      "chip": "ym2612"
    },
    {
      "channel": 4,
      "note": 69,
      "start": 54.1978,
      "duration": 0.2382,
      "velocity": 97,
      "chip": "ym2612"
    },
    {
      "channel": 2,
      "note": 105,
      "start": 54.1997,
      "duration": 0.1104,
      "velocity": 118,
      "chip": "ym2612"
    },
    {
      "channel": 5,
      "note": 38,
      "start": 54.2012,
      "duration": 0.1089,
      "velocity": 127,
      "chip": "ym2612"
    },
    {
      "channel": 3,
      "note": 99,
      "start": 54.3157,
      "duration": 0.2337,
      "velocity": 91,
      "chip": "ym2612"
    },
    {
      "channel": 1,
      "note": 94,
      "start": 54.3173,
      "duration": 0.2321,
      "velocity": 91,
      "chip": "ym2612"
    },
    {
      "channel": 2,
      "note": 105,
      "start": 54.3195,
      "duration": 0.2309,
      "velocity": 118,
      "chip": "ym2612"
    },
    {
      "channel": 3,
      "note": 99,
      "start": 54.5587,
      "duration": 0.2365,
      "velocity": 91,
      "chip": "ym2612"
    },
    {
      "channel": 1,
      "note": 94,
      "start": 54.5603,
      "duration": 0.235,
      "velocity": 91,
      "chip": "ym2612"
    },
    {
      "channel": 4,
      "note": 70,
      "start": 54.5619,
      "duration": 0.2428,
      "velocity": 97,
      "chip": "ym2612"
    },
    {
      "channel": 2,
      "note": 105,
      "start": 54.5638,
      "duration": 0.1129,
      "velocity": 118,
      "chip": "ym2612"
    },
    {
      "channel": 5,
      "note": 38,
      "start": 54.5654,
      "duration": 0.1115,
      "velocity": 127,
      "chip": "ym2612"
    },
    {
      "channel": 2,
      "note": 105,
      "start": 54.6832,
      "duration": 0.1129,
      "velocity": 118,
      "chip": "ym2612"
    },
    {
      "channel": 3,
      "note": 99,
      "start": 54.802,
      "duration": 0.2335,
      "velocity": 91,
      "chip": "ym2612"
    },
    {
      "channel": 1,
      "note": 94,
      "start": 54.8036,
      "duration": 0.2319,
      "velocity": 91,
      "chip": "ym2612"
    },
    {
      "channel": 5,
      "note": 38,
      "start": 54.807,
      "duration": 0.0824,
      "velocity": 127,
      "chip": "ym2612"
    },
    {
      "channel": 4,
      "note": 77,
      "start": 54.9238,
      "duration": 0.0726,
      "velocity": 97,
      "chip": "ym2612"
    },
    {
      "channel": 2,
      "note": 105,
      "start": 54.9257,
      "duration": 0.2313,
      "velocity": 118,
      "chip": "ym2612"
    },
    {
      "channel": 3,
      "note": 99,
      "start": 55.0429,
      "duration": 0.2326,
      "velocity": 91,
      "chip": "ym2612"
    },
    {
      "channel": 1,
      "note": 94,
      "start": 55.0446,
      "duration": 0.2312,
      "velocity": 91,
      "chip": "ym2612"
    },
    {
      "channel": 4,
      "note": 72,
      "start": 55.0462,
      "duration": 0.1561,
      "velocity": 97,
      "chip": "ym2612"
    },
    {
      "channel": 2,
      "note": 105,
      "start": 55.1635,
      "duration": 0.1129,
      "velocity": 118,
      "chip": "ym2612"
    },
    {
      "channel": 5,
      "note": 44,
      "start": 55.1659,
      "duration": 0.1107,
      "velocity": 127,
      "chip": "ym2612"
    },
    {
      "channel": 3,
      "note": 99,
      "start": 55.2832,
      "duration": 0.2326,
      "velocity": 91,
      "chip": "ym2612"
    },
    {
      "channel": 1,
      "note": 94,
      "start": 55.2848,
      "duration": 0.231,
      "velocity": 91,
      "chip": "ym2612"
    },
    {
      "channel": 4,
      "note": 70,
      "start": 55.2864,
      "duration": 0.1503,
      "velocity": 97,
      "chip": "ym2612"
    },
    {
      "channel": 2,
      "note": 105,
      "start": 55.2886,
      "duration": 0.228,
      "velocity": 118,
      "chip": "ym2612"
    },
    {
      "channel": 3,
      "note": 99,
      "start": 55.5259,
      "duration": 0.2356,
      "velocity": 91,
      "chip": "ym2612"
    },
    {
      "channel": 1,
      "note": 94,
      "start": 55.5276,
      "duration": 0.2342,
      "velocity": 91,
      "chip": "ym2612"
    },
    {
      "channel": 4,
      "note": 69,
      "start": 55.5292,
      "duration": 0.1593,
      "velocity": 97,
      "chip": "ym2612"
    },
    {
      "channel": 2,
      "note": 105,
      "start": 55.531,
      "duration": 0.112,
      "velocity": 118,
      "chip": "ym2612"
    },
    {
      "channel": 5,
      "note": 38,
      "start": 55.5325,
      "duration": 0.1106,
      "velocity": 127,
      "chip": "ym2612"
    },
    {
      "channel": 2,
      "note": 105,
      "start": 55.6496,
      "duration": 0.2336,
      "velocity": 118,
      "chip": "ym2612"
    },
    {
      "channel": 3,
      "note": 99,
      "start": 55.7689,
      "duration": 0.2328,
      "velocity": 91,
      "chip": "ym2612"
    },
    {
      "channel": 1,
      "note": 94,
      "start": 55.7706,
      "duration": 0.2313,
      "velocity": 91,
      "chip": "ym2612"
    },
    {
      "channel": 4,
      "note": 70,
      "start": 55.7725,
      "duration": 0.0705,
      "velocity": 97,
      "chip": "ym2612"
    },
    {
      "channel": 4,
      "note": 69,
      "start": 55.8906,
      "duration": 0.238,
      "velocity": 97,
      "chip": "ym2612"
    },
    {
      "channel": 2,
      "note": 105,
      "start": 55.8925,
      "duration": 0.1101,
      "velocity": 118,
      "chip": "ym2612"
    },
    {
      "channel": 5,
      "note": 38,
      "start": 55.8941,
      "duration": 0.1087,
      "velocity": 127,
      "chip": "ym2612"
    },
    {
      "channel": 3,
      "note": 99,
      "start": 56.0084,
      "duration": 0.22,
      "velocity": 91,
      "chip": "ym2612"
    },
    {
      "channel": 1,
      "note": 94,
      "start": 56.0101,
      "duration": 0.2193,
      "velocity": 91,
      "chip": "ym2612"
    },
    {
      "channel": 2,
      "note": 105,
      "start": 56.0122,
      "duration": 0.2206,
      "velocity": 118,
      "chip": "ym2612"
    },
    {
      "channel": 3,
      "note": 99,
      "start": 56.235,
      "duration": 0.2356,
      "velocity": 91,
      "chip": "ym2612"
    },
    {
      "channel": 1,
      "note": 94,
      "start": 56.2367,
      "duration": 0.2341,
      "velocity": 91,
      "chip": "ym2612"
    },
    {
      "channel": 4,
      "note": 70,
      "start": 56.2386,
      "duration": 0.2415,
      "velocity": 97,
      "chip": "ym2612"
    },
    {
      "channel": 2,
      "note": 105,
      "start": 56.2404,
      "duration": 0.1117,
      "velocity": 118,
      "chip": "ym2612"
    },
    {
      "channel": 5,
      "note": 38,
      "start": 56.242,
      "duration": 0.1102,
      "velocity": 127,
      "chip": "ym2612"
    },
    {
      "channel": 2,
      "note": 105,
      "start": 56.3586,
      "duration": 0.1131,
      "velocity": 118,
      "chip": "ym2612"
    },
    {
      "channel": 3,
      "note": 99,
      "start": 56.4776,
      "duration": 0.2332,
      "velocity": 91,
      "chip": "ym2612"
    },
    {
      "channel": 1,
      "note": 94,
      "start": 56.4792,
      "duration": 0.2317,
      "velocity": 91,
      "chip": "ym2612"
    },
    {
      "channel": 5,
      "note": 38,
      "start": 56.4824,
      "duration": 0.0821,
      "velocity": 127,
      "chip": "ym2612"
    },
    {
      "channel": 4,
      "note": 77,
      "start": 56.599,
      "duration": 0.0731,
      "velocity": 97,
      "chip": "ym2612"
    },
    {
      "channel": 2,
      "note": 105,
      "start": 56.6008,
      "duration": 0.2316,
      "velocity": 118,
      "chip": "ym2612"
    },
    {
      "channel": 3,
      "note": 99,
      "start": 56.7182,
      "duration": 0.2328,
      "velocity": 91,
      "chip": "ym2612"
    },
    {
      "channel": 1,
      "note": 94,
      "start": 56.7198,
      "duration": 0.2313,
      "velocity": 91,
      "chip": "ym2612"
    },
    {
      "channel": 4,
      "note": 72,
      "start": 56.7217,
      "duration": 0.1559,
      "velocity": 97,
      "chip": "ym2612"
    },
    {
      "channel": 2,
      "note": 105,
      "start": 56.8392,
      "duration": 0.1126,
      "velocity": 118,
      "chip": "ym2612"
    },
    {
      "channel": 5,
      "note": 44,
      "start": 56.8416,
      "duration": 0.1104,
      "velocity": 127,
      "chip": "ym2612"
    },
    {
      "channel": 3,
      "note": 99,
      "start": 56.9588,
      "duration": 0.2324,
      "velocity": 91,
      "chip": "ym2612"
    },
    {
      "channel": 1,
      "note": 94,
      "start": 56.9604,
      "duration": 0.2309,
      "velocity": 91,
      "chip": "ym2612"
    },
    {
      "channel": 4,
      "note": 70,
      "start": 56.962,
      "duration": 0.1558,
      "velocity": 97,
      "chip": "ym2612"
    },
    {
      "channel": 2,
      "note": 105,
      "start": 56.9639,
      "duration": 0.2281,
      "velocity": 118,
      "chip": "ym2612"
    },
    {
      "channel": 0,
      "note": 48,
      "start": 57.1997,
      "duration": 1.4262,
      "velocity": 109,
      "chip": "ym2612"
    },
    {
      "channel": 4,
      "note": 69,
      "start": 57.2023,
      "duration": 0.1556,
      "velocity": 97,
      "chip": "ym2612"
    },
    {
      "channel": 2,
      "note": 105,
      "start": 57.2045,
      "duration": 0.1083,
      "velocity": 118,
      "chip": "ym2612"
    },
    {
      "channel": 5,
      "note": 38,
      "start": 57.206,
      "duration": 0.1069,
      "velocity": 127,
      "chip": "ym2612"
    },
    {
      "channel": 2,
      "note": 105,
      "start": 57.3197,
      "duration": 0.2334,
      "velocity": 118,
      "chip": "ym2612"
    },
    {
      "channel": 3,
      "note": 99,
      "start": 57.439,
      "duration": 0.0723,
      "velocity": 97,
      "chip": "ym2612"
    },
    {
      "channel": 1,
      "note": 94,
      "start": 57.561,
      "duration": 0.2368,
      "velocity": 97,
      "chip": "ym2612"
    },
    {
      "channel": 2,
      "note": 105,
      "start": 57.5633,
      "duration": 0.11,
      "velocity": 118,
      "chip": "ym2612"
    },
    {
      "channel": 5,
      "note": 38,
      "start": 57.5649,
      "duration": 0.1086,
      "velocity": 127,
      "chip": "ym2612"
    },
    {
      "channel": 2,
      "note": 105,
      "start": 57.6795,
      "duration": 0.2339,
      "velocity": 118,
      "chip": "ym2612"
    },
    {
      "channel": 4,
      "note": 70,
      "start": 57.9205,
      "duration": 0.2384,
      "velocity": 97,
      "chip": "ym2612"
    },
    {
      "channel": 2,
      "note": 105,
      "start": 57.9225,
      "duration": 0.1108,
      "velocity": 118,
      "chip": "ym2612"
    },
    {
      "channel": 5,
      "note": 38,
      "start": 57.9241,
      "duration": 0.1094,
      "velocity": 127,
      "chip": "ym2612"
    },
    {
      "channel": 2,
      "note": 105,
      "start": 58.0402,
      "duration": 0.1131,
      "velocity": 118,
      "chip": "ym2612"
    },
    {
      "channel": 5,
      "note": 38,
      "start": 58.1612,
      "duration": 0.084,
      "velocity": 127,
      "chip": "ym2612"
    },
    {
      "channel": 3,
      "note": 69,
      "start": 58.279,
      "duration": 0.0728,
      "velocity": 97,
      "chip": "ym2612"
    },
    {
      "channel": 2,
      "note": 105,
      "start": 58.2821,
      "duration": 0.2314,
      "velocity": 118,
      "chip": "ym2612"
    },
    {
      "channel": 1,
      "note": 70,
      "start": 58.399,
      "duration": 0.1593,
      "velocity": 97,
      "chip": "ym2612"
    },
    {
      "channel": 2,
      "note": 105,
      "start": 58.5203,
      "duration": 0.1135,
      "velocity": 118,
      "chip": "ym2612"
    },
    {
      "channel": 5,
      "note": 44,
      "start": 58.5229,
      "duration": 0.1111,
      "velocity": 127,
      "chip": "ym2612"
    },
    {
      "channel": 0,
      "note": 39,
      "start": 58.6393,
      "duration": 0.2324,
      "velocity": 109,
      "chip": "ym2612"
    },
    {
      "channel": 4,
      "note": 77,
      "start": 58.642,
      "duration": 0.1573,
      "velocity": 97,
      "chip": "ym2612"
    },
    {
      "channel": 2,
      "note": 105,
      "start": 58.6439,
      "duration": 0.2296,
      "velocity": 118,
      "chip": "ym2612"
    },
    {
      "channel": 0,
      "note": 41,
      "start": 58.8808,
      "duration": 1.6588,
      "velocity": 109,
      "chip": "ym2612"
    },
    {
      "channel": 3,
      "note": 72,
      "start": 58.8825,
      "duration": 0.1499,
      "velocity": 97,
      "chip": "ym2612"
    },
    {
      "channel": 2,
      "note": 105,
      "start": 58.8854,
      "duration": 0.1087,
      "velocity": 118,
      "chip": "ym2612"
    },
    {
      "channel": 5,
      "note": 38,
      "start": 58.8868,
      "duration": 0.1074,
      "velocity": 127,
      "chip": "ym2612"
    },
    {
      "channel": 2,
      "note": 105,
      "start": 59.0006,
      "duration": 0.2336,
      "velocity": 118,
      "chip": "ym2612"
    },
    {
      "channel": 1,
      "note": 70,
      "start": 59.1194,
      "duration": 0.0735,
      "velocity": 97,
      "chip": "ym2612"
    },
    {
      "channel": 4,
      "note": 69,
      "start": 59.2416,
      "duration": 0.2379,
      "velocity": 97,
      "chip": "ym2612"
    },
    {
      "channel": 2,
      "note": 105,
      "start": 59.2435,
      "duration": 0.1109,
      "velocity": 118,
      "chip": "ym2612"
    },
    {
      "channel": 5,
      "note": 38,
      "start": 59.2451,
      "duration": 0.1095,
      "velocity": 127,
      "chip": "ym2612"
    },
    {
      "channel": 2,
      "note": 105,
      "start": 59.3607,
      "duration": 0.2339,
      "velocity": 118,
      "chip": "ym2612"
    },
    {
      "channel": 3,
      "note": 70,
      "start": 59.6006,
      "duration": 0.238,
      "velocity": 97,
      "chip": "ym2612"
    },
    {
      "channel": 2,
      "note": 105,
      "start": 59.6034,
      "duration": 0.1111,
      "velocity": 118,
      "chip": "ym2612"
    },
    {
      "channel": 5,
      "note": 38,
      "start": 59.6053,
      "duration": 0.1093,
      "velocity": 127,
      "chip": "ym2612"
    },
    {
      "channel": 2,
      "note": 105,
      "start": 59.7214,
      "duration": 0.1131,
      "velocity": 118,
      "chip": "ym2612"
    },
    {
      "channel": 5,
      "note": 38,
      "start": 59.8259,
      "duration": 0.0834,
      "velocity": 127,
      "chip": "ym2612"
    },
    {
      "channel": 1,
      "note": 69,
      "start": 59.9439,
      "duration": 0.0727,
      "velocity": 97,
      "chip": "ym2612"
    },
    {
      "channel": 2,
      "note": 105,
      "start": 59.9463,
      "duration": 0.2312,
      "velocity": 118,
      "chip": "ym2612"
    },
    {
      "channel": 4,
      "note": 70,
      "start": 60.0637,
      "duration": 0.1593,
      "velocity": 97,
      "chip": "ym2612"
    },
    {
      "channel": 2,
      "note": 105,
      "start": 60.1843,
      "duration": 0.1135,
      "velocity": 118,
      "chip": "ym2612"
    },
    {
      "channel": 5,
      "note": 44,
      "start": 60.1866,
      "duration": 0.1113,
      "velocity": 127,
      "chip": "ym2612"
    },
    {
      "channel": 3,
      "note": 77,
      "start": 60.3026,
      "duration": 0.1536,
      "velocity": 97,
      "chip": "ym2612"
    },
    {
      "channel": 2,
      "note": 105,
      "start": 60.3058,
      "duration": 0.2323,
      "velocity": 118,
      "chip": "ym2612"
    },
    {
      "channel": 0,
      "note": 46,
      "start": 60.5476,
      "duration": 3.2455,
      "velocity": 109,
      "chip": "ym2612"
    },
    {
      "channel": 3,
      "note": 69,
      "start": 60.5503,
      "duration": 0.2378,
      "velocity": 91,
      "chip": "ym2612"
    },
    {
      "channel": 1,
      "note": 72,
      "start": 60.5531,
      "duration": 0.2352,
      "velocity": 91,
      "chip": "ym2612"
    },
    {
      "channel": 4,
      "note": 70,
      "start": 60.5552,
      "duration": 0.1593,
      "velocity": 97,
      "chip": "ym2612"
    },
    {
      "channel": 2,
      "note": 105,
      "start": 60.557,
      "duration": 0.1122,
      "velocity": 118,
      "chip": "ym2612"
    },
    {
      "channel": 5,
      "note": 38,
      "start": 60.5585,
      "duration": 0.1109,
      "velocity": 127,
      "chip": "ym2612"
    },
    {
      "channel": 2,
      "note": 105,
      "start": 60.6759,
      "duration": 0.2336,
      "velocity": 118,
      "chip": "ym2612"
    },
    {
      "channel": 3,
      "note": 94,
      "start": 60.7954,
      "duration": 0.2326,
      "velocity": 91,
      "chip": "ym2612"
    },
    {
      "channel": 1,
      "note": 98,
      "start": 60.7972,
      "duration": 0.2309,
      "velocity": 91,
      "chip": "ym2612"
    },
    {
      "channel": 4,
      "note": 70,
      "start": 60.799,
      "duration": 0.0703,
      "velocity": 97,
      "chip": "ym2612"
    },
    {
      "channel": 4,
      "note": 69,
      "start": 60.9166,
      "duration": 0.2384,
      "velocity": 97,
      "chip": "ym2612"
    },
    {
      "channel": 2,
      "note": 105,
      "start": 60.9184,
      "duration": 0.1104,
      "velocity": 118,
      "chip": "ym2612"
    },
    {
      "channel": 5,
      "note": 38,
      "start": 60.92,
      "duration": 0.109,
      "velocity": 127,
      "chip": "ym2612"
    },
    {
      "channel": 3,
      "note": 98,
      "start": 61.0345,
      "duration": 0.2337,
      "velocity": 91,
      "chip": "ym2612"
    },
    {
      "channel": 1,
      "note": 94,
      "start": 61.0362,
      "duration": 0.2321,
      "velocity": 91,
      "chip": "ym2612"
    },
    {
      "channel": 2,
      "note": 105,
      "start": 61.0386,
      "duration": 0.2306,
      "velocity": 118,
      "chip": "ym2612"
    },
    {
      "channel": 3,
      "note": 98,
      "start": 61.2775,
      "duration": 0.2365,
      "velocity": 91,
      "chip": "ym2612"
    },
    {
      "channel": 1,
      "note": 94,
      "start": 61.2792,
      "duration": 0.235,
      "velocity": 91,
      "chip": "ym2612"
    },
    {
      "channel": 4,
      "note": 70,
      "start": 61.2808,
      "duration": 0.2427,
      "velocity": 97,
      "chip": "ym2612"
    },
    {
      "channel": 2,
      "note": 105,
      "start": 61.2826,
      "duration": 0.1129,
      "velocity": 118,
      "chip": "ym2612"
    },
    {
      "channel": 5,
      "note": 38,
      "start": 61.2842,
      "duration": 0.1115,
      "velocity": 127,
      "chip": "ym2612"
    },
    {
      "channel": 2,
      "note": 105,
      "start": 61.402,
      "duration": 0.1128,
      "velocity": 118,
      "chip": "ym2612"
    },
    {
      "channel": 3,
      "note": 98,
      "start": 61.5208,
      "duration": 0.2336,
      "velocity": 91,
      "chip": "ym2612"
    },
    {
      "channel": 1,
      "note": 94,
      "start": 61.5227,
      "duration": 0.232,
      "velocity": 91,
      "chip": "ym2612"
    },
    {
      "channel": 5,
      "note": 38,
      "start": 61.5259,
      "duration": 0.0821,
      "velocity": 127,
      "chip": "ym2612"
    },
    {
      "channel": 4,
      "note": 77,
      "start": 61.6427,
      "duration": 0.0725,
      "velocity": 97,
      "chip": "ym2612"
    },
    {
      "channel": 2,
      "note": 105,
      "start": 61.6445,
      "duration": 0.2313,
      "velocity": 118,
      "chip": "ym2612"
    },
    {
      "channel": 3,
      "note": 98,
      "start": 61.7617,
      "duration": 0.2326,
      "velocity": 91,
      "chip": "ym2612"
    },
    {
      "channel": 1,
      "note": 94,
      "start": 61.7634,
      "duration": 0.2311,
      "velocity": 91,
      "chip": "ym2612"
    },
    {
      "channel": 4,
      "note": 72,
      "start": 61.765,
      "duration": 0.1503,
      "velocity": 97,
      "chip": "ym2612"
    },
    {
      "channel": 2,
      "note": 105,
      "start": 61.8824,
      "duration": 0.1129,
      "velocity": 118,
      "chip": "ym2612"
    },
    {
      "channel": 5,
      "note": 44,
      "start": 61.8847,
      "duration": 0.1106,
      "velocity": 127,
      "chip": "ym2612"
    },
    {
      "channel": 3,
      "note": 98,
      "start": 62.002,
      "duration": 0.2326,
      "velocity": 91,
      "chip": "ym2612"
    },
    {
      "channel": 1,
      "note": 94,
      "start": 62.0036,
      "duration": 0.231,
      "velocity": 91,
      "chip": "ym2612"
    },
    {
      "channel": 4,
      "note": 70,
      "start": 62.0055,
      "duration": 0.1557,
      "velocity": 97,
      "chip": "ym2612"
    },
    {
      "channel": 2,
      "note": 105,
      "start": 62.0073,
      "duration": 0.228,
      "velocity": 118,
      "chip": "ym2612"
    },
    {
      "channel": 3,
      "note": 98,
      "start": 62.2447,
      "duration": 0.2357,
      "velocity": 91,
      "chip": "ym2612"
    },
    {
      "channel": 1,
      "note": 94,
      "start": 62.2463,
      "duration": 0.2342,
      "velocity": 91,
      "chip": "ym2612"
    },
    {
      "channel": 4,
      "note": 69,
      "start": 62.2479,
      "duration": 0.1592,
      "velocity": 97,
      "chip": "ym2612"
    },
    {
      "channel": 2,
      "note": 105,
      "start": 62.2498,
      "duration": 0.1121,
      "velocity": 118,
      "chip": "ym2612"
    },
    {
      "channel": 5,
      "note": 38,
      "start": 62.2513,
      "duration": 0.1107,
      "velocity": 127,
      "chip": "ym2612"
    },
    {
      "channel": 2,
      "note": 105,
      "start": 62.3684,
      "duration": 0.2337,
      "velocity": 118,
      "chip": "ym2612"
    },
    {
      "channel": 3,
      "note": 98,
      "start": 62.488,
      "duration": 0.2326,
      "velocity": 91,
      "chip": "ym2612"
    },
    {
      "channel": 1,
      "note": 94,
      "start": 62.4897,
      "duration": 0.2311,
      "velocity": 91,
      "chip": "ym2612"
    },
    {
      "channel": 4,
      "note": 70,
      "start": 62.4913,
      "duration": 0.0705,
      "velocity": 97,
      "chip": "ym2612"
    },
    {
      "channel": 4,
      "note": 69,
      "start": 62.6095,
      "duration": 0.2379,
      "velocity": 97,
      "chip": "ym2612"
    },
    {
      "channel": 2,
      "note": 105,
      "start": 62.6113,
      "duration": 0.1104,
      "velocity": 118,
      "chip": "ym2612"
    },
    {
      "channel": 5,
      "note": 38,
      "start": 62.6129,
      "duration": 0.1089,
      "velocity": 127,
      "chip": "ym2612"
    },
    {
      "channel": 3,
      "note": 98,
      "start": 62.7273,
      "duration": 0.2335,
      "velocity": 91,
      "chip": "ym2612"
    },
    {
      "channel": 1,
      "note": 94,
      "start": 62.7289,
      "duration": 0.232,
      "velocity": 91,
      "chip": "ym2612"
    },
    {
      "channel": 2,
      "note": 105,
      "start": 62.7311,
      "duration": 0.2307,
      "velocity": 118,
      "chip": "ym2612"
    },
    {
      "channel": 3,
      "note": 98,
      "start": 62.9699,
      "duration": 0.2367,
      "velocity": 91,
      "chip": "ym2612"
    },
    {
      "channel": 1,
      "note": 94,
      "start": 62.9718,
      "duration": 0.235,
      "velocity": 91,
      "chip": "ym2612"
    },
    {
      "channel": 4,
      "note": 70,
      "start": 62.9734,
      "duration": 0.2423,
      "velocity": 97,
      "chip": "ym2612"
    },
    {
      "channel": 2,
      "note": 105,
      "start": 62.9753,
      "duration": 0.1131,
      "velocity": 118,
      "chip": "ym2612"
    },
    {
      "channel": 5,
      "note": 38,
      "start": 62.9769,
      "duration": 0.1116,
      "velocity": 127,
      "chip": "ym2612"
    },
    {
      "channel": 2,
      "note": 105,
      "start": 63.0946,
      "duration": 0.1128,
      "velocity": 118,
      "chip": "ym2612"
    },
    {
      "channel": 3,
      "note": 98,
      "start": 63.2133,
      "duration": 0.2199,
      "velocity": 91,
      "chip": "ym2612"
    },
    {
      "channel": 1,
      "note": 94,
      "start": 63.2149,
      "duration": 0.2192,
      "velocity": 91,
      "chip": "ym2612"
    },
    {
      "channel": 5,
      "note": 38,
      "start": 63.2181,
      "duration": 0.0824,
      "velocity": 127,
      "chip": "ym2612"
    },
    {
      "channel": 4,
      "note": 77,
      "start": 63.3182,
      "duration": 0.0724,
      "velocity": 97,
      "chip": "ym2612"
    },
    {
      "channel": 2,
      "note": 105,
      "start": 63.3201,
      "duration": 0.2312,
      "velocity": 118,
      "chip": "ym2612"
    },
    {
      "channel": 3,
      "note": 98,
      "start": 63.438,
      "duration": 0.2318,
      "velocity": 91,
      "chip": "ym2612"
    },
    {
      "channel": 1,
      "note": 94,
      "start": 63.4396,
      "duration": 0.2303,
      "velocity": 91,
      "chip": "ym2612"
    },
    {
      "channel": 4,
      "note": 72,
      "start": 63.4412,
      "duration": 0.1553,
      "velocity": 97,
      "chip": "ym2612"
    },
    {
      "channel": 2,
      "note": 105,
      "start": 63.5579,
      "duration": 0.1127,
      "velocity": 118,
      "chip": "ym2612"
    },
    {
      "channel": 5,
      "note": 44,
      "start": 63.5602,
      "duration": 0.1105,
      "velocity": 127,
      "chip": "ym2612"
    },
    {
      "channel": 3,
      "note": 98,
      "start": 63.6776,
      "duration": 0.232,
      "velocity": 91,
      "chip": "ym2612"
    },
    {
      "channel": 1,
      "note": 94,
      "start": 63.6792,
      "duration": 0.2305,
      "velocity": 91,
      "chip": "ym2612"
    },
    {
      "channel": 4,
      "note": 70,
      "start": 63.6808,
      "duration": 0.1558,
      "velocity": 97,
      "chip": "ym2612"
    },
    {
      "channel": 2,
      "note": 105,
      "start": 63.6827,
      "duration": 0.2277,
      "velocity": 118,
      "chip": "ym2612"
    },
    {
      "channel": 0,
      "note": 48,
      "start": 63.7959,
      "duration": 0.1136,
      "velocity": 109,
      "chip": "ym2612"
    },
    {
      "channel": 0,
      "note": 46,
      "start": 63.9179,
      "duration": 0.2317,
      "velocity": 109,
      "chip": "ym2612"
    },
    {
      "channel": 4,
      "note": 69,
      "start": 63.9207,
      "duration": 0.1506,
      "velocity": 97,
      "chip": "ym2612"
    },
    {
      "channel": 2,
      "note": 105,
      "start": 63.9227,
      "duration": 0.1088,
      "velocity": 118,
      "chip": "ym2612"
    },
    {
      "channel": 5,
      "note": 38,
      "start": 63.9242,
      "duration": 0.1075,
      "velocity": 127,
      "chip": "ym2612"
    },
    {
      "channel": 2,
      "note": 105,
      "start": 64.0388,
      "duration": 0.2334,
      "velocity": 118,
      "chip": "ym2612"
    },
    {
      "channel": 0,
      "note": 39,
      "start": 64.1565,
      "duration": 0.2333,
      "velocity": 109,
      "chip": "ym2612"
    },
    {
      "channel": 3,
      "note": 98,
      "start": 64.1591,
      "duration": 0.0711,
      "velocity": 97,
      "chip": "ym2612"
    },
    {
      "channel": 1,
      "note": 94,
      "start": 64.2798,
      "duration": 0.2378,
      "velocity": 97,
      "chip": "ym2612"
    },
    {
      "channel": 2,
      "note": 105,
      "start": 64.2822,
      "duration": 0.1094,
      "velocity": 118,
      "chip": "ym2612"
    },
    {
      "channel": 5,
      "note": 38,
      "start": 64.2838,
      "duration": 0.1079,
      "velocity": 127,
      "chip": "ym2612"
    },
    {
      "channel": 0,
      "note": 43,
      "start": 64.3963,
      "duration": 0.1136,
      "velocity": 109,
      "chip": "ym2612"
    },
    {
      "channel": 2,
      "note": 105,
      "start": 64.3995,
      "duration": 0.2323,
      "velocity": 118,
      "chip": "ym2612"
    },
    {
      "channel": 0,
      "note": 46,
      "start": 64.5164,
      "duration": 0.1135,
      "velocity": 109,
      "chip": "ym2612"
    },
    {
      "channel": 0,
      "note": 46,
      "start": 64.6387,
      "duration": 0.1113,
      "velocity": 109,
      "chip": "ym2612"
    },
    {
      "channel": 4,
      "note": 70,
      "start": 64.6415,
      "duration": 0.2375,
      "velocity": 97,
      "chip": "ym2612"
    },
    {
      "channel": 2,
      "note": 105,
      "start": 64.6432,
      "duration": 0.1086,
      "velocity": 118,
      "chip": "ym2612"
    },
    {
      "channel": 5,
      "note": 38,
      "start": 64.6448,
      "duration": 0.1072,
      "velocity": 127,
      "chip": "ym2612"
    },
    {
      "channel": 0,
      "note": 48,
      "start": 64.7565,
      "duration": 0.1135,
      "velocity": 109,
      "chip": "ym2612"
    },
    {
      "channel": 2,
      "note": 105,
      "start": 64.7598,
      "duration": 0.1123,
      "velocity": 118,
      "chip": "ym2612"
    },
    {
      "channel": 0,
      "note": 48,
      "start": 64.8766,
      "duration": 0.1136,
      "velocity": 109,
      "chip": "ym2612"
    },
    {
      "channel": 5,
      "note": 38,
      "start": 64.8813,
      "duration": 0.0828,
      "velocity": 127,
      "chip": "ym2612"
    },
    {
      "channel": 0,
      "note": 51,
      "start": 64.998,
      "duration": 0.1122,
      "velocity": 109,
      "chip": "ym2612"
    },
    {
      "channel": 3,
      "note": 69,
      "start": 64.9995,
      "duration": 0.0712,
      "velocity": 97,
      "chip": "ym2612"
    },
    {
      "channel": 2,
      "note": 105,
      "start": 65.0025,
      "duration": 0.2298,
      "velocity": 118,
      "chip": "ym2612"
    },
    {
      "channel": 0,
      "note": 51,
      "start": 65.117,
      "duration": 0.2334,
      "velocity": 109,
      "chip": "ym2612"
    },
    {
      "channel": 1,
      "note": 70,
      "start": 65.1193,
      "duration": 0.1578,
      "velocity": 97,
      "chip": "ym2612"
    },
    {
      "channel": 2,
      "note": 105,
      "start": 65.2393,
      "duration": 0.113,
      "velocity": 118,
      "chip": "ym2612"
    },
    {
      "channel": 5,
      "note": 44,
      "start": 65.2417,
      "duration": 0.1107,
      "velocity": 127,
      "chip": "ym2612"
    },
    {
      "channel": 0,
      "note": 53,
      "start": 65.3578,
      "duration": 0.117,
      "velocity": 109,
      "chip": "ym2612"
    },
    {
      "channel": 4,
      "note": 77,
      "start": 65.3605,
      "duration": 0.1576,
      "velocity": 97,
      "chip": "ym2612"
    },
    {
      "channel": 2,
      "note": 105,
      "start": 65.3623,
      "duration": 0.23,
      "velocity": 118,
      "chip": "ym2612"
    },
    {
      "channel": 0,
      "note": 55,
      "start": 65.4771,
      "duration": 0.1135,
      "velocity": 109,
      "chip": "ym2612"
    },
    {
      "channel": 0,
      "note": 55,
      "start": 65.5997,
      "duration": 1.6586,
      "velocity": 109,
      "chip": "ym2612"
    },
    {
      "channel": 3,
      "note": 72,
      "start": 65.6014,
      "duration": 0.1555,
      "velocity": 97,
      "chip": "ym2612"
    },
    {
      "channel": 2,
      "note": 105,
      "start": 65.6046,
      "duration": 0.1083,
      "velocity": 118,
      "chip": "ym2612"
    },
    {
      "channel": 5,
      "note": 38,
      "start": 65.6061,
      "duration": 0.1069,
      "velocity": 127,
      "chip": "ym2612"
    },
    {
      "channel": 2,
      "note": 105,
      "start": 65.7194,
      "duration": 0.2337,
      "velocity": 118,
      "chip": "ym2612"
    },
    {
      "channel": 1,
      "note": 70,
      "start": 65.8385,
      "duration": 0.0733,
      "velocity": 97,
      "chip": "ym2612"
    },
    {
      "channel": 4,
      "note": 69,
      "start": 65.9605,
      "duration": 0.2379,
      "velocity": 97,
      "chip": "ym2612"
    },
    {
      "channel": 2,
      "note": 105,
      "start": 65.9623,
      "duration": 0.111,
      "velocity": 118,
      "chip": "ym2612"
    },
    {
      "channel": 5,
      "note": 38,
      "start": 65.9639,
      "duration": 0.1095,
      "velocity": 127,
      "chip": "ym2612"
    },
    {
      "channel": 2,
      "note": 105,
      "start": 66.0795,
      "duration": 0.2338,
      "velocity": 118,
      "chip": "ym2612"
    },
    {
      "channel": 3,
      "note": 70,
      "start": 66.3194,
      "duration": 0.238,
      "velocity": 97,
      "chip": "ym2612"
    },
    {
      "channel": 2,
      "note": 105,
      "start": 66.3224,
      "duration": 0.1108,
      "velocity": 118,
      "chip": "ym2612"
    },
    {
      "channel": 5,
      "note": 38,
      "start": 66.324,
      "duration": 0.1094,
      "velocity": 127,
      "chip": "ym2612"
    },
    {
      "channel": 2,
      "note": 105,
      "start": 66.4401,
      "duration": 0.1131,
      "velocity": 118,
      "chip": "ym2612"
    },
    {
      "channel": 2,
      "note": 105,
      "start": 66.5598,
      "duration": 0.1137,
      "velocity": 118,
      "chip": "ym2612"
    },
    {
      "channel": 5,
      "note": 38,
      "start": 66.5622,
      "duration": 0.0831,
      "velocity": 127,
      "chip": "ym2612"
    },
    {
      "channel": 1,
      "note": 69,
      "start": 66.6792,
      "duration": 0.0734,
      "velocity": 97,
      "chip": "ym2612"
    },
    {
      "channel": 2,
      "note": 105,
      "start": 66.6817,
      "duration": 0.1118,
      "velocity": 118,
      "chip": "ym2612"
    },
    {
      "channel": 4,
      "note": 70,
      "start": 66.7996,
      "duration": 0.1592,
      "velocity": 97,
      "chip": "ym2612"
    },
    {
      "channel": 2,
      "note": 105,
      "start": 66.8014,
      "duration": 0.0978,
      "velocity": 118,
      "chip": "ym2612"
    },
    {
      "channel": 2,
      "note": 105,
      "start": 66.9032,
      "duration": 0.1135,
      "velocity": 118,
      "chip": "ym2612"
    },
    {
      "channel": 5,
      "note": 44,
      "start": 66.9058,
      "duration": 0.111,
      "velocity": 127,
      "chip": "ym2612"
    },
    {
      "channel": 3,
      "note": 77,
      "start": 67.0224,
      "duration": 0.1583,
      "velocity": 97,
      "chip": "ym2612"
    },
    {
      "channel": 2,
      "note": 105,
      "start": 67.0253,
      "duration": 0.1114,
      "velocity": 118,
      "chip": "ym2612"
    },
    {
      "channel": 5,
      "note": 38,
      "start": 67.0276,
      "duration": 0.0808,
      "velocity": 127,
      "chip": "ym2612"
    },
    {
      "channel": 2,
      "note": 105,
      "start": 67.1432,
      "duration": 0.1135,
      "velocity": 118,
      "chip": "ym2612"
    },
    {
      "channel": 0,
      "note": 53,
      "start": 67.2664,
      "duration": 0.0,
      "velocity": 109,
      "chip": "ym2612"
    }
  ]
}