{
  "track_name": "13 - Mission 8",
  "duration_sec": 53.086,
  "sample_rate": 44100,
  "note_count": 940,
  "unique_pitches": 41,
  "pitch_range": 103,
  "avg_note_duration": 0.2145,
  "reconstruction_stats": {
    "notes_reconstructed": 940,
    "keyon_events": 940,
    "keyoff_events": 936,
    "orphan_keyons": 4,
    "unique_pitches": 41,
    "pitch_range": 103,
    "avg_duration_sec": 0.2145
  },
  "metadata": {
    "source": "G\\Gaiares\\13 - Mission 8.vgz"
  },
  "notes": [
    {
      "channel": 1,
      "note": 101,
      "start": 0.0,
      "duration": 0.0,
      "velocity": 79,
      "chip": "ym2612"
    },
    {
      "channel": 1,
      "note": 103,
      "start": 0.0,
      "duration": 0.0,
      "velocity": 1,
      "chip": "ym2612"
    },
    {
      "channel": 3,
      "note": 53,
      "start": 0.0,
      "duration": 0.0,
      "velocity": 1,
      "chip": "ym2612"
    },
    {
      "channel": 4,
      "note": 72,
      "start": 0.0,
      "duration": 0.0,
      "velocity": 1,
      "chip": "ym2612"
    },
    {
      "channel": 5,
      "note": -1,
      "start": 0.0,
      "duration": 0.1014,
      "velocity": 112,
      "chip": "ym2612"
    },
    {
      "channel": 5,
      "note": 45,
      "start": 0.1052,
      "duration": 0.092,
      "velocity": 112,
      "chip": "ym2612"
    },
    {
      "channel": 5,
      "note": 39,
      "start": 0.2011,
      "duration": 0.0937,
      "velocity": 112,
      "chip": "ym2612"
    },
    {
      "channel": 5,
      "note": 33,
      "start": 0.2985,
      "duration": 0.0938,
      "velocity": 112,
      "chip": "ym2612"
    },
    {
      "channel": 5,
      "note": 34,
      "start": 0.3961,
      "duration": 0.3862,
      "velocity": 126,
      "chip": "ym2612"
    },
    {
      "channel": 5,
      "note": 0,
      "start": 0.7861,
      "duration": 0.1912,
      "velocity": 112,
      "chip": "ym2612"
    },
    {
      "channel": 5,
      "note": 57,
      "start": 0.9812,
      "duration": 0.1911,
      "velocity": 112,
      "chip": "ym2612"
    },
    {
      "channel": 5,
      "note": 57,
      "start": 1.176,
      "duration": 0.3912,
      "velocity": 126,
      "chip": "ym2612"
    },
    {
      "channel": 0,
      "note": -1,
      "start": 1.5627,
      "duration": 1.5686,
      "velocity": 93,
      "chip": "ym2612"
    },
    {
      "channel": 1,
      "note": -1,
      "start": 1.5646,
      "duration": 0.7689,
      "velocity": 97,
      "chip": "ym2612"
    },
    {
      "channel": 3,
      "note": -1,
      "start": 1.5665,
      "duration": 0.0851,
      "velocity": 106,
      "chip": "ym2612"
    },
    {
      "channel": 5,
      "note": 0,
      "start": 1.5713,
      "duration": 0.3904,
      "velocity": 112,
      "chip": "ym2612"
    },
    {
      "channel": 4,
      "note": -1,
      "start": 1.5831,
      "duration": 0.174,
      "velocity": 107,
      "chip": "ym2612"
    },
    {
      "channel": 3,
      "note": 65,
      "start": 1.766,
      "duration": 0.0802,
      "velocity": 106,
      "chip": "ym2612"
    },
    {
      "channel": 4,
      "note": 77,
      "start": 1.7745,
      "duration": 0.1776,
      "velocity": 107,
      "chip": "ym2612"
    },
    {
      "channel": 3,
      "note": 65,
      "start": 1.961,
      "duration": 0.0802,
      "velocity": 106,
      "chip": "ym2612"
    },
    {
      "channel": 5,
      "note": 49,
      "start": 1.9654,
      "duration": 0.3875,
      "velocity": 126,
      "chip": "ym2612"
    },
    {
      "channel": 4,
      "note": 79,
      "start": 1.9705,
      "duration": 0.1767,
      "velocity": 107,
      "chip": "ym2612"
    },
    {
      "channel": 3,
      "note": 65,
      "start": 2.1574,
      "duration": 0.0789,
      "velocity": 106,
      "chip": "ym2612"
    },
    {
      "channel": 4,
      "note": 80,
      "start": 2.1646,
      "duration": 0.1776,
      "velocity": 107,
      "chip": "ym2612"
    },
    {
      "channel": 1,
      "note": 53,
      "start": 2.3508,
      "duration": 0.1858,
      "velocity": 97,
      "chip": "ym2612"
    },
    {
      "channel": 3,
      "note": 65,
      "start": 2.3522,
      "duration": 0.0871,
      "velocity": 106,
      "chip": "ym2612"
    },
    {
      "channel": 5,
      "note": 0,
      "start": 2.3568,
      "duration": 0.1993,
      "velocity": 112,
      "chip": "ym2612"
    },
    {
      "channel": 4,
      "note": 77,
      "start": 2.3677,
      "duration": 0.1776,
      "velocity": 107,
      "chip": "ym2612"
    },
    {
      "channel": 1,
      "note": 70,
      "start": 2.554,
      "duration": 0.3727,
      "velocity": 97,
      "chip": "ym2612"
    },
    {
      "channel": 3,
      "note": 65,
      "start": 2.5554,
      "duration": 0.0889,
      "velocity": 106,
      "chip": "ym2612"
    },
    {
      "channel": 5,
      "note": 57,
      "start": 2.5599,
      "duration": 0.1981,
      "velocity": 112,
      "chip": "ym2612"
    },
    {
      "channel": 4,
      "note": 79,
      "start": 2.5708,
      "duration": 0.1783,
      "velocity": 107,
      "chip": "ym2612"
    },
    {
      "channel": 3,
      "note": 65,
      "start": 2.7573,
      "duration": 0.0802,
      "velocity": 106,
      "chip": "ym2612"
    },
    {
      "channel": 5,
      "note": 56,
      "start": 2.7617,
      "duration": 0.3887,
      "velocity": 126,
      "chip": "ym2612"
    },
    {
      "channel": 4,
      "note": 80,
      "start": 2.7676,
      "duration": 0.1758,
      "velocity": 107,
      "chip": "ym2612"
    },
    {
      "channel": 1,
      "note": 68,
      "start": 2.9521,
      "duration": 0.3809,
      "velocity": 97,
      "chip": "ym2612"
    },
    {
      "channel": 3,
      "note": 65,
      "start": 2.9535,
      "duration": 0.0791,
      "velocity": 106,
      "chip": "ym2612"
    },
    {
      "channel": 4,
      "note": 77,
      "start": 2.9608,
      "duration": 0.1777,
      "velocity": 107,
      "chip": "ym2612"
    },
    {
      "channel": 0,
      "note": 65,
      "start": 3.1472,
      "duration": 1.5669,
      "velocity": 93,
      "chip": "ym2612"
    },
    {
      "channel": 3,
      "note": 65,
      "start": 3.1498,
      "duration": 0.0866,
      "velocity": 106,
      "chip": "ym2612"
    },
    {
      "channel": 5,
      "note": 0,
      "start": 3.1545,
      "duration": 0.1979,
      "velocity": 112,
      "chip": "ym2612"
    },
    {
      "channel": 4,
      "note": 79,
      "start": 3.1643,
      "duration": 0.1773,
      "velocity": 107,
      "chip": "ym2612"
    },
    {
      "channel": 1,
      "note": 67,
      "start": 3.3503,
      "duration": 0.3739,
      "velocity": 97,
      "chip": "ym2612"
    },
    {
      "channel": 3,
      "note": 65,
      "start": 3.3517,
      "duration": 0.0872,
      "velocity": 106,
      "chip": "ym2612"
    },
    {
      "channel": 5,
      "note": 56,
      "start": 3.3562,
      "duration": 0.1982,
      "velocity": 112,
      "chip": "ym2612"
    },
    {
      "channel": 4,
      "note": 80,
      "start": 3.3671,
      "duration": 0.1776,
      "velocity": 107,
      "chip": "ym2612"
    },
    {
      "channel": 3,
      "note": 65,
      "start": 3.5537,
      "duration": 0.0802,
      "velocity": 106,
      "chip": "ym2612"
    },
    {
      "channel": 5,
      "note": 56,
      "start": 3.558,
      "duration": 0.1926,
      "velocity": 126,
      "chip": "ym2612"
    },
    {
      "channel": 4,
      "note": 77,
      "start": 3.5622,
      "duration": 0.1794,
      "velocity": 107,
      "chip": "ym2612"
    },
    {
      "channel": 1,
      "note": 68,
      "start": 3.7485,
      "duration": 0.1858,
      "velocity": 97,
      "chip": "ym2612"
    },
    {
      "channel": 3,
      "note": 65,
      "start": 3.75,
      "duration": 0.0871,
      "velocity": 106,
      "chip": "ym2612"
    },
    {
      "channel": 5,
      "note": 10,
      "start": 3.7544,
      "duration": 0.3932,
      "velocity": 112,
      "chip": "ym2612"
    },
    {
      "channel": 4,
      "note": 79,
      "start": 3.7654,
      "duration": 0.1776,
      "velocity": 107,
      "chip": "ym2612"
    },
    {
      "channel": 1,
      "note": 70,
      "start": 3.9516,
      "duration": 0.7629,
      "velocity": 97,
      "chip": "ym2612"
    },
    {
      "channel": 3,
      "note": 65,
      "start": 3.953,
      "duration": 0.079,
      "velocity": 106,
      "chip": "ym2612"
    },
    {
      "channel": 4,
      "note": 80,
      "start": 3.9603,
      "duration": 0.1776,
      "velocity": 107,
      "chip": "ym2612"
    },
    {
      "channel": 3,
      "note": 65,
      "start": 4.1468,
      "duration": 0.0825,
      "velocity": 106,
      "chip": "ym2612"
    },
    {
      "channel": 5,
      "note": 49,
      "start": 4.1514,
      "duration": 0.1912,
      "velocity": 112,
      "chip": "ym2612"
    },
    {
      "channel": 4,
      "note": 77,
      "start": 4.1554,
      "duration": 0.1787,
      "velocity": 107,
      "chip": "ym2612"
    },
    {
      "channel": 3,
      "note": 65,
      "start": 4.3419,
      "duration": 0.0802,
      "velocity": 106,
      "chip": "ym2612"
    },
    {
      "channel": 5,
      "note": 57,
      "start": 4.3463,
      "duration": 0.3893,
      "velocity": 126,
      "chip": "ym2612"
    },
    {
      "channel": 4,
      "note": 79,
      "start": 4.3526,
      "duration": 0.1754,
      "velocity": 107,
      "chip": "ym2612"
    },
    {
      "channel": 3,
      "note": 65,
      "start": 4.5369,
      "duration": 0.0802,
      "velocity": 106,
      "chip": "ym2612"
    },
    {
      "channel": 4,
      "note": 80,
      "start": 4.5454,
      "duration": 0.1776,
      "velocity": 107,
      "chip": "ym2612"
    },
    {
      "channel": 0,
      "note": 67,
      "start": 4.7318,
      "duration": 1.5668,
      "velocity": 93,
      "chip": "ym2612"
    },
    {
      "channel": 1,
      "note": 68,
      "start": 4.7333,
      "duration": 0.7693,
      "velocity": 97,
      "chip": "ym2612"
    },
    {
      "channel": 3,
      "note": 65,
      "start": 4.7349,
      "duration": 0.0865,
      "velocity": 106,
      "chip": "ym2612"
    },
    {
      "channel": 5,
      "note": 0,
      "start": 4.7396,
      "duration": 0.3912,
      "velocity": 112,
      "chip": "ym2612"
    },
    {
      "channel": 4,
      "note": 77,
      "start": 4.7488,
      "duration": 0.1774,
      "velocity": 107,
      "chip": "ym2612"
    },
    {
      "channel": 3,
      "note": 65,
      "start": 4.9351,
      "duration": 0.0802,
      "velocity": 106,
      "chip": "ym2612"
    },
    {
      "channel": 4,
      "note": 77,
      "start": 4.9447,
      "duration": 0.1765,
      "velocity": 107,
      "chip": "ym2612"
    },
    {
      "channel": 3,
      "note": 65,
      "start": 5.13,
      "duration": 0.0802,
      "velocity": 106,
      "chip": "ym2612"
    },
    {
      "channel": 5,
      "note": 49,
      "start": 5.1345,
      "duration": 0.3875,
      "velocity": 126,
      "chip": "ym2612"
    },
    {
      "channel": 4,
      "note": 79,
      "start": 5.1396,
      "duration": 0.1766,
      "velocity": 107,
      "chip": "ym2612"
    },
    {
      "channel": 3,
      "note": 65,
      "start": 5.3251,
      "duration": 0.0802,
      "velocity": 106,
      "chip": "ym2612"
    },
    {
      "channel": 4,
      "note": 80,
      "start": 5.3336,
      "duration": 0.1776,
      "velocity": 107,
      "chip": "ym2612"
    },
    {
      "channel": 1,
      "note": 53,
      "start": 5.5199,
      "duration": 0.1858,
      "velocity": 97,
      "chip": "ym2612"
    },
    {
      "channel": 3,
      "note": 65,
      "start": 5.5213,
      "duration": 0.0871,
      "velocity": 106,
      "chip": "ym2612"
    },
    {
      "channel": 5,
      "note": 0,
      "start": 5.5258,
      "duration": 0.1994,
      "velocity": 112,
      "chip": "ym2612"
    },
    {
      "channel": 4,
      "note": 77,
      "start": 5.5368,
      "duration": 0.1776,
      "velocity": 107,
      "chip": "ym2612"
    },
    {
      "channel": 1,
      "note": 70,
      "start": 5.723,
      "duration": 0.3727,
      "velocity": 97,
      "chip": "ym2612"
    },
    {
      "channel": 3,
      "note": 65,
      "start": 5.7244,
      "duration": 0.0871,
      "velocity": 106,
      "chip": "ym2612"
    },
    {
      "channel": 5,
      "note": 57,
      "start": 5.729,
      "duration": 0.1981,
      "velocity": 112,
      "chip": "ym2612"
    },
    {
      "channel": 4,
      "note": 79,
      "start": 5.7399,
      "duration": 0.1792,
      "velocity": 107,
      "chip": "ym2612"
    },
    {
      "channel": 3,
      "note": 65,
      "start": 5.9263,
      "duration": 0.0803,
      "velocity": 106,
      "chip": "ym2612"
    },
    {
      "channel": 5,
      "note": 56,
      "start": 5.9307,
      "duration": 0.3887,
      "velocity": 126,
      "chip": "ym2612"
    },
    {
      "channel": 4,
      "note": 80,
      "start": 5.9349,
      "duration": 0.1776,
      "velocity": 107,
      "chip": "ym2612"
    },
    {
      "channel": 1,
      "note": 68,
      "start": 6.1211,
      "duration": 0.3809,
      "velocity": 97,
      "chip": "ym2612"
    },
    {
      "channel": 3,
      "note": 65,
      "start": 6.1226,
      "duration": 0.079,
      "velocity": 106,
      "chip": "ym2612"
    },
    {
      "channel": 4,
      "note": 77,
      "start": 6.1299,
      "duration": 0.1776,
      "velocity": 107,
      "chip": "ym2612"
    },
    {
      "channel": 0,
      "note": 68,
      "start": 6.3162,
      "duration": 0.7787,
      "velocity": 93,
      "chip": "ym2612"
    },
    {
      "channel": 3,
      "note": 65,
      "start": 6.3188,
      "duration": 0.0877,
      "velocity": 106,
      "chip": "ym2612"
    },
    {
      "channel": 5,
      "note": 0,
      "start": 6.3235,
      "duration": 0.3919,
      "velocity": 112,
      "chip": "ym2612"
    },
    {
      "channel": 4,
      "note": 79,
      "start": 6.3332,
      "duration": 0.1779,
      "velocity": 107,
      "chip": "ym2612"
    },
    {
      "channel": 1,
      "note": 67,
      "start": 6.5194,
      "duration": 0.3646,
      "velocity": 97,
      "chip": "ym2612"
    },
    {
      "channel": 3,
      "note": 65,
      "start": 6.5207,
      "duration": 0.079,
      "velocity": 106,
      "chip": "ym2612"
    },
    {
      "channel": 4,
      "note": 80,
      "start": 6.5298,
      "duration": 0.1759,
      "velocity": 107,
      "chip": "ym2612"
    },
    {
      "channel": 3,
      "note": 65,
      "start": 6.7146,
      "duration": 0.0802,
      "velocity": 106,
      "chip": "ym2612"
    },
    {
      "channel": 5,
      "note": 49,
      "start": 6.719,
      "duration": 0.3888,
      "velocity": 126,
      "chip": "ym2612"
    },
    {
      "channel": 4,
      "note": 77,
      "start": 6.7244,
      "duration": 0.1763,
      "velocity": 107,
      "chip": "ym2612"
    },
    {
      "channel": 1,
      "note": 68,
      "start": 6.9094,
      "duration": 0.1777,
      "velocity": 97,
      "chip": "ym2612"
    },
    {
      "channel": 3,
      "note": 65,
      "start": 6.9108,
      "duration": 0.079,
      "velocity": 106,
      "chip": "ym2612"
    },
    {
      "channel": 4,
      "note": 79,
      "start": 6.9181,
      "duration": 0.1778,
      "velocity": 107,
      "chip": "ym2612"
    },
    {
      "channel": 0,
      "note": 70,
      "start": 7.1043,
      "duration": 0.787,
      "velocity": 93,
      "chip": "ym2612"
    },
    {
      "channel": 1,
      "note": 70,
      "start": 7.1057,
      "duration": 0.7776,
      "velocity": 97,
      "chip": "ym2612"
    },
    {
      "channel": 3,
      "note": 65,
      "start": 7.1071,
      "duration": 0.0858,
      "velocity": 106,
      "chip": "ym2612"
    },
    {
      "channel": 5,
      "note": 0,
      "start": 7.1117,
      "duration": 0.098,
      "velocity": 112,
      "chip": "ym2612"
    },
    {
      "channel": 4,
      "note": 80,
      "start": 7.1219,
      "duration": 0.177,
      "velocity": 107,
      "chip": "ym2612"
    },
    {
      "channel": 5,
      "note": 45,
      "start": 7.2135,
      "duration": 0.0949,
      "velocity": 112,
      "chip": "ym2612"
    },
    {
      "channel": 3,
      "note": 65,
      "start": 7.3078,
      "duration": 0.0802,
      "velocity": 106,
      "chip": "ym2612"
    },
    {
      "channel": 5,
      "note": 46,
      "start": 7.3123,
      "duration": 0.0925,
      "velocity": 112,
      "chip": "ym2612"
    },
    {
      "channel": 4,
      "note": 77,
      "start": 7.3177,
      "duration": 0.1762,
      "velocity": 107,
      "chip": "ym2612"
    },
    {
      "channel": 5,
      "note": 38,
      "start": 7.4085,
      "duration": 0.0969,
      "velocity": 112,
      "chip": "ym2612"
    },
    {
      "channel": 3,
      "note": 65,
      "start": 7.5047,
      "duration": 0.0864,
      "velocity": 106,
      "chip": "ym2612"
    },
    {
      "channel": 5,
      "note": 38,
      "start": 7.5093,
      "duration": 0.0995,
      "velocity": 112,
      "chip": "ym2612"
    },
    {
      "channel": 4,
      "note": 79,
      "start": 7.5194,
      "duration": 0.1776,
      "velocity": 107,
      "chip": "ym2612"
    },
    {
      "channel": 5,
      "note": 33,
      "start": 7.6125,
      "duration": 0.0941,
      "velocity": 112,
      "chip": "ym2612"
    },
    {
      "channel": 3,
      "note": 65,
      "start": 7.7059,
      "duration": 0.0802,
      "velocity": 106,
      "chip": "ym2612"
    },
    {
      "channel": 5,
      "note": 34,
      "start": 7.7104,
      "duration": 0.0926,
      "velocity": 126,
      "chip": "ym2612"
    },
    {
      "channel": 4,
      "note": 80,
      "start": 7.7155,
      "duration": 0.1767,
      "velocity": 107,
      "chip": "ym2612"
    },
    {
      "channel": 5,
      "note": 18,
      "start": 7.8066,
      "duration": 0.0979,
      "velocity": 126,
      "chip": "ym2612"
    },
    {
      "channel": 0,
      "note": 72,
      "start": 7.9007,
      "duration": 3.1515,
      "velocity": 93,
      "chip": "ym2612"
    },
    {
      "channel": 1,
      "note": 68,
      "start": 7.9023,
      "duration": 0.7693,
      "velocity": 97,
      "chip": "ym2612"
    },
    {
      "channel": 3,
      "note": 65,
      "start": 7.9039,
      "duration": 0.0876,
      "velocity": 106,
      "chip": "ym2612"
    },
    {
      "channel": 5,
      "note": 19,
      "start": 7.9085,
      "duration": 0.3912,
      "velocity": 112,
      "chip": "ym2612"
    },
    {
      "channel": 4,
      "note": 77,
      "start": 7.9177,
      "duration": 0.1785,
      "velocity": 107,
      "chip": "ym2612"
    },
    {
      "channel": 3,
      "note": 61,
      "start": 8.1041,
      "duration": 0.0802,
      "velocity": 106,
      "chip": "ym2612"
    },
    {
      "channel": 4,
      "note": 77,
      "start": 8.1147,
      "duration": 0.1755,
      "velocity": 107,
      "chip": "ym2612"
    },
    {
      "channel": 3,
      "note": 61,
      "start": 8.2991,
      "duration": 0.0802,
      "velocity": 106,
      "chip": "ym2612"
    },
    {
      "channel": 5,
      "note": 49,
      "start": 8.3034,
      "duration": 0.3876,
      "velocity": 126,
      "chip": "ym2612"
    },
    {
      "channel": 4,
      "note": 79,
      "start": 8.3085,
      "duration": 0.1766,
      "velocity": 107,
      "chip": "ym2612"
    },
    {
      "channel": 3,
      "note": 61,
      "start": 8.4941,
      "duration": 0.0803,
      "velocity": 106,
      "chip": "ym2612"
    },
    {
      "channel": 4,
      "note": 80,
      "start": 8.5026,
      "duration": 0.1776,
      "velocity": 107,
      "chip": "ym2612"
    },
    {
      "channel": 1,
      "note": 49,
      "start": 8.689,
      "duration": 0.1857,
      "velocity": 97,
      "chip": "ym2612"
    },
    {
      "channel": 3,
      "note": 61,
      "start": 8.6903,
      "duration": 0.0872,
      "velocity": 106,
      "chip": "ym2612"
    },
    {
      "channel": 5,
      "note": 0,
      "start": 8.6949,
      "duration": 0.1993,
      "velocity": 112,
      "chip": "ym2612"
    },
    {
      "channel": 4,
      "note": 77,
      "start": 8.7069,
      "duration": 0.1765,
      "velocity": 107,
      "chip": "ym2612"
    },
    {
      "channel": 1,
      "note": 70,
      "start": 8.8921,
      "duration": 0.3727,
      "velocity": 97,
      "chip": "ym2612"
    },
    {
      "channel": 3,
      "note": 61,
      "start": 8.8935,
      "duration": 0.0871,
      "velocity": 106,
      "chip": "ym2612"
    },
    {
      "channel": 5,
      "note": 57,
      "start": 8.898,
      "duration": 0.1981,
      "velocity": 112,
      "chip": "ym2612"
    },
    {
      "channel": 4,
      "note": 79,
      "start": 8.9089,
      "duration": 0.1776,
      "velocity": 107,
      "chip": "ym2612"
    },
    {
      "channel": 3,
      "note": 61,
      "start": 9.0954,
      "duration": 0.0804,
      "velocity": 106,
      "chip": "ym2612"
    },
    {
      "channel": 5,
      "note": 56,
      "start": 9.0999,
      "duration": 0.388,
      "velocity": 126,
      "chip": "ym2612"
    },
    {
      "channel": 4,
      "note": 80,
      "start": 9.104,
      "duration": 0.1776,
      "velocity": 107,
      "chip": "ym2612"
    },
    {
      "channel": 1,
      "note": 68,
      "start": 9.2902,
      "duration": 0.3809,
      "velocity": 97,
      "chip": "ym2612"
    },
    {
      "channel": 3,
      "note": 61,
      "start": 9.2916,
      "duration": 0.0791,
      "velocity": 106,
      "chip": "ym2612"
    },
    {
      "channel": 4,
      "note": 77,
      "start": 9.2993,
      "duration": 0.1773,
      "velocity": 107,
      "chip": "ym2612"
    },
    {
      "channel": 3,
      "note": 61,
      "start": 9.4872,
      "duration": 0.0866,
      "velocity": 106,
      "chip": "ym2612"
    },
    {
      "channel": 5,
      "note": 0,
      "start": 9.4919,
      "duration": 0.1986,
      "velocity": 112,
      "chip": "ym2612"
    },
    {
      "channel": 4,
      "note": 79,
      "start": 9.5023,
      "duration": 0.1788,
      "velocity": 107,
      "chip": "ym2612"
    },
    {
      "channel": 1,
      "note": 67,
      "start": 9.6884,
      "duration": 0.3727,
      "velocity": 97,
      "chip": "ym2612"
    },
    {
      "channel": 3,
      "note": 61,
      "start": 9.6898,
      "duration": 0.0871,
      "velocity": 106,
      "chip": "ym2612"
    },
    {
      "channel": 5,
      "note": 56,
      "start": 9.6943,
      "duration": 0.1982,
      "velocity": 112,
      "chip": "ym2612"
    },
    {
      "channel": 4,
      "note": 80,
      "start": 9.7052,
      "duration": 0.1777,
      "velocity": 107,
      "chip": "ym2612"
    },
    {
      "channel": 3,
      "note": 61,
      "start": 9.8918,
      "duration": 0.0802,
      "velocity": 106,
      "chip": "ym2612"
    },
    {
      "channel": 5,
      "note": 56,
      "start": 9.8961,
      "duration": 0.1925,
      "velocity": 126,
      "chip": "ym2612"
    },
    {
      "channel": 4,
      "note": 77,
      "start": 9.9003,
      "duration": 0.1776,
      "velocity": 107,
      "chip": "ym2612"
    },
    {
      "channel": 1,
      "note": 68,
      "start": 10.0866,
      "duration": 0.1863,
      "velocity": 97,
      "chip": "ym2612"
    },
    {
      "channel": 3,
      "note": 61,
      "start": 10.088,
      "duration": 0.0871,
      "velocity": 106,
      "chip": "ym2612"
    },
    {
      "channel": 5,
      "note": 10,
      "start": 10.0925,
      "duration": 0.3931,
      "velocity": 112,
      "chip": "ym2612"
    },
    {
      "channel": 4,
      "note": 79,
      "start": 10.1034,
      "duration": 0.1776,
      "velocity": 107,
      "chip": "ym2612"
    },
    {
      "channel": 1,
      "note": 70,
      "start": 10.2913,
      "duration": 0.7613,
      "velocity": 97,
      "chip": "ym2612"
    },
    {
      "channel": 3,
      "note": 61,
      "start": 10.2928,
      "duration": 0.0773,
      "velocity": 106,
      "chip": "ym2612"
    },
    {
      "channel": 4,
      "note": 80,
      "start": 10.2985,
      "duration": 0.1776,
      "velocity": 107,
      "chip": "ym2612"
    },
    {
      "channel": 3,
      "note": 61,
      "start": 10.4849,
      "duration": 0.0802,
      "velocity": 106,
      "chip": "ym2612"
    },
    {
      "channel": 5,
      "note": 49,
      "start": 10.4895,
      "duration": 0.1912,
      "velocity": 112,
      "chip": "ym2612"
    },
    {
      "channel": 4,
      "note": 77,
      "start": 10.4935,
      "duration": 0.1776,
      "velocity": 107,
      "chip": "ym2612"
    },
    {
      "channel": 3,
      "note": 61,
      "start": 10.68,
      "duration": 0.0809,
      "velocity": 106,
      "chip": "ym2612"
    },
    {
      "channel": 5,
      "note": 57,
      "start": 10.6844,
      "duration": 0.3893,
      "velocity": 126,
      "chip": "ym2612"
    },
    {
      "channel": 4,
      "note": 79,
      "start": 10.6885,
      "duration": 0.1776,
      "velocity": 107,
      "chip": "ym2612"
    },
    {
      "channel": 3,
      "note": 61,
      "start": 10.875,
      "duration": 0.0802,
      "velocity": 106,
      "chip": "ym2612"
    },
    {
      "channel": 4,
      "note": 80,
      "start": 10.8845,
      "duration": 0.1766,
      "velocity": 107,
      "chip": "ym2612"
    },
    {
      "channel": 0,
      "note": 61,
      "start": 11.0697,
      "duration": 2.5746,
      "velocity": 93,
      "chip": "ym2612"
    },
    {
      "channel": 1,
      "note": 68,
      "start": 11.0713,
      "duration": 0.7693,
      "velocity": 97,
      "chip": "ym2612"
    },
    {
      "channel": 3,
      "note": 61,
      "start": 11.073,
      "duration": 0.0854,
      "velocity": 106,
      "chip": "ym2612"
    },
    {
      "channel": 5,
      "note": 0,
      "start": 11.0776,
      "duration": 0.3912,
      "velocity": 112,
      "chip": "ym2612"
    },
    {
      "channel": 4,
      "note": 77,
      "start": 11.0868,
      "duration": 0.1795,
      "velocity": 107,
      "chip": "ym2612"
    },
    {
      "channel": 3,
      "note": 61,
      "start": 11.2732,
      "duration": 0.0802,
      "velocity": 106,
      "chip": "ym2612"
    },
    {
      "channel": 4,
      "note": 77,
      "start": 11.2817,
      "duration": 0.1776,
      "velocity": 107,
      "chip": "ym2612"
    },
    {
      "channel": 3,
      "note": 61,
      "start": 11.4681,
      "duration": 0.0802,
      "velocity": 106,
      "chip": "ym2612"
    },
    {
      "channel": 5,
      "note": 49,
      "start": 11.4725,
      "duration": 0.3885,
      "velocity": 126,
      "chip": "ym2612"
    },
    {
      "channel": 4,
      "note": 79,
      "start": 11.4776,
      "duration": 0.1767,
      "velocity": 107,
      "chip": "ym2612"
    },
    {
      "channel": 3,
      "note": 61,
      "start": 11.6632,
      "duration": 0.0802,
      "velocity": 106,
      "chip": "ym2612"
    },
    {
      "channel": 4,
      "note": 80,
      "start": 11.6717,
      "duration": 0.1776,
      "velocity": 107,
      "chip": "ym2612"
    },
    {
      "channel": 1,
      "note": 49,
      "start": 11.8589,
      "duration": 0.1849,
      "velocity": 97,
      "chip": "ym2612"
    },
    {
      "channel": 3,
      "note": 61,
      "start": 11.8603,
      "duration": 0.0862,
      "velocity": 106,
      "chip": "ym2612"
    },
    {
      "channel": 5,
      "note": 0,
      "start": 11.8649,
      "duration": 0.1983,
      "velocity": 112,
      "chip": "ym2612"
    },
    {
      "channel": 4,
      "note": 77,
      "start": 11.8769,
      "duration": 0.1755,
      "velocity": 107,
      "chip": "ym2612"
    },
    {
      "channel": 1,
      "note": 70,
      "start": 12.0612,
      "duration": 0.3726,
      "velocity": 97,
      "chip": "ym2612"
    },
    {
      "channel": 3,
      "note": 61,
      "start": 12.0625,
      "duration": 0.0872,
      "velocity": 106,
      "chip": "ym2612"
    },
    {
      "channel": 5,
      "note": 57,
      "start": 12.0671,
      "duration": 0.1981,
      "velocity": 112,
      "chip": "ym2612"
    },
    {
      "channel": 4,
      "note": 79,
      "start": 12.078,
      "duration": 0.1776,
      "velocity": 107,
      "chip": "ym2612"
    },
    {
      "channel": 3,
      "note": 61,
      "start": 12.2645,
      "duration": 0.0814,
      "velocity": 106,
      "chip": "ym2612"
    },
    {
      "channel": 5,
      "note": 56,
      "start": 12.2689,
      "duration": 0.388,
      "velocity": 126,
      "chip": "ym2612"
    },
    {
      "channel": 4,
      "note": 80,
      "start": 12.273,
      "duration": 0.1776,
      "velocity": 107,
      "chip": "ym2612"
    },
    {
      "channel": 1,
      "note": 68,
      "start": 12.4593,
      "duration": 0.3808,
      "velocity": 97,
      "chip": "ym2612"
    },
    {
      "channel": 3,
      "note": 61,
      "start": 12.4607,
      "duration": 0.079,
      "velocity": 106,
      "chip": "ym2612"
    },
    {
      "channel": 4,
      "note": 77,
      "start": 12.4692,
      "duration": 0.1765,
      "velocity": 107,
      "chip": "ym2612"
    },
    {
      "channel": 3,
      "note": 61,
      "start": 12.6563,
      "duration": 0.0866,
      "velocity": 106,
      "chip": "ym2612"
    },
    {
      "channel": 5,
      "note": 0,
      "start": 12.6609,
      "duration": 0.0987,
      "velocity": 112,
      "chip": "ym2612"
    },
    {
      "channel": 4,
      "note": 79,
      "start": 12.6713,
      "duration": 0.1774,
      "velocity": 107,
      "chip": "ym2612"
    },
    {
      "channel": 5,
      "note": 59,
      "start": 12.7634,
      "duration": 0.0961,
      "velocity": 112,
      "chip": "ym2612"
    },
    {
      "channel": 1,
      "note": 67,
      "start": 12.8575,
      "duration": 0.3727,
      "velocity": 97,
      "chip": "ym2612"
    },
    {
      "channel": 3,
      "note": 61,
      "start": 12.8589,
      "duration": 0.0871,
      "velocity": 106,
      "chip": "ym2612"
    },
    {
      "channel": 5,
      "note": 59,
      "start": 12.8632,
      "duration": 0.0996,
      "velocity": 126,
      "chip": "ym2612"
    },
    {
      "channel": 4,
      "note": 80,
      "start": 12.8743,
      "duration": 0.1776,
      "velocity": 107,
      "chip": "ym2612"
    },
    {
      "channel": 5,
      "note": 18,
      "start": 12.9667,
      "duration": 0.0952,
      "velocity": 112,
      "chip": "ym2612"
    },
    {
      "channel": 3,
      "note": 61,
      "start": 13.0612,
      "duration": 0.0798,
      "velocity": 106,
      "chip": "ym2612"
    },
    {
      "channel": 5,
      "note": 59,
      "start": 13.0657,
      "duration": 0.0921,
      "velocity": 112,
      "chip": "ym2612"
    },
    {
      "channel": 4,
      "note": 77,
      "start": 13.0693,
      "duration": 0.1777,
      "velocity": 107,
      "chip": "ym2612"
    },
    {
      "channel": 5,
      "note": 60,
      "start": 13.1615,
      "duration": 0.0962,
      "velocity": 126,
      "chip": "ym2612"
    },
    {
      "channel": 1,
      "note": 68,
      "start": 13.2556,
      "duration": 0.1873,
      "velocity": 97,
      "chip": "ym2612"
    },
    {
      "channel": 3,
      "note": 61,
      "start": 13.257,
      "duration": 0.0872,
      "velocity": 106,
      "chip": "ym2612"
    },
    {
      "channel": 5,
      "note": 18,
      "start": 13.2615,
      "duration": 0.0994,
      "velocity": 112,
      "chip": "ym2612"
    },
    {
      "channel": 4,
      "note": 79,
      "start": 13.2725,
      "duration": 0.1776,
      "velocity": 107,
      "chip": "ym2612"
    },
    {
      "channel": 5,
      "note": 59,
      "start": 13.3648,
      "duration": 0.096,
      "velocity": 112,
      "chip": "ym2612"
    },
    {
      "channel": 1,
      "note": 70,
      "start": 13.4587,
      "duration": 0.7791,
      "velocity": 97,
      "chip": "ym2612"
    },
    {
      "channel": 3,
      "note": 61,
      "start": 13.4602,
      "duration": 0.0877,
      "velocity": 106,
      "chip": "ym2612"
    },
    {
      "channel": 5,
      "note": 60,
      "start": 13.4645,
      "duration": 0.1013,
      "velocity": 126,
      "chip": "ym2612"
    },
    {
      "channel": 4,
      "note": 80,
      "start": 13.4756,
      "duration": 0.1776,
      "velocity": 107,
      "chip": "ym2612"
    },
    {
      "channel": 5,
      "note": 16,
      "start": 13.5696,
      "duration": 0.0946,
      "velocity": 112,
      "chip": "ym2612"
    },
    {
      "channel": 0,
      "note": 61,
      "start": 13.6617,
      "duration": 0.2832,
      "velocity": 93,
      "chip": "ym2612"
    },
    {
      "channel": 3,
      "note": 61,
      "start": 13.6634,
      "duration": 0.087,
      "velocity": 106,
      "chip": "ym2612"
    },
    {
      "channel": 5,
      "note": 60,
      "start": 13.668,
      "duration": 0.0992,
      "velocity": 112,
      "chip": "ym2612"
    },
    {
      "channel": 4,
      "note": 77,
      "start": 13.6788,
      "duration": 0.1776,
      "velocity": 107,
      "chip": "ym2612"
    },
    {
      "channel": 5,
      "note": 59,
      "start": 13.771,
      "duration": 0.095,
      "velocity": 126,
      "chip": "ym2612"
    },
    {
      "channel": 3,
      "note": 61,
      "start": 13.8654,
      "duration": 0.0802,
      "velocity": 106,
      "chip": "ym2612"
    },
    {
      "channel": 5,
      "note": 18,
      "start": 13.8698,
      "duration": 0.0938,
      "velocity": 112,
      "chip": "ym2612"
    },
    {
      "channel": 4,
      "note": 79,
      "start": 13.8738,
      "duration": 0.1793,
      "velocity": 107,
      "chip": "ym2612"
    },
    {
      "channel": 0,
      "note": 63,
      "start": 13.9624,
      "duration": 0.2751,
      "velocity": 93,
      "chip": "ym2612"
    },
    {
      "channel": 5,
      "note": 60,
      "start": 13.9674,
      "duration": 0.0935,
      "velocity": 112,
      "chip": "ym2612"
    },
    {
      "channel": 3,
      "note": 61,
      "start": 14.0603,
      "duration": 0.0802,
      "velocity": 106,
      "chip": "ym2612"
    },
    {
      "channel": 5,
      "note": 59,
      "start": 14.0646,
      "duration": 0.0933,
      "velocity": 126,
      "chip": "ym2612"
    },
    {
      "channel": 4,
      "note": 80,
      "start": 14.0688,
      "duration": 0.1776,
      "velocity": 107,
      "chip": "ym2612"
    },
    {
      "channel": 5,
      "note": 18,
      "start": 14.1618,
      "duration": 0.0971,
      "velocity": 112,
      "chip": "ym2612"
    },
    {
      "channel": 0,
      "note": 64,
      "start": 14.2551,
      "duration": 1.5669,
      "velocity": 93,
      "chip": "ym2612"
    },
    {
      "channel": 1,
      "note": 68,
      "start": 14.2566,
      "duration": 0.7712,
      "velocity": 97,
      "chip": "ym2612"
    },
    {
      "channel": 3,
      "note": 61,
      "start": 14.2583,
      "duration": 0.0854,
      "velocity": 106,
      "chip": "ym2612"
    },
    {
      "channel": 5,
      "note": 60,
      "start": 14.2629,
      "duration": 0.3912,
      "velocity": 112,
      "chip": "ym2612"
    },
    {
      "channel": 4,
      "note": 77,
      "start": 14.2721,
      "duration": 0.1775,
      "velocity": 107,
      "chip": "ym2612"
    },
    {
      "channel": 3,
      "note": 65,
      "start": 14.4585,
      "duration": 0.0819,
      "velocity": 106,
      "chip": "ym2612"
    },
    {
      "channel": 4,
      "note": 77,
      "start": 14.4669,
      "duration": 0.1782,
      "velocity": 107,
      "chip": "ym2612"
    },
    {
      "channel": 3,
      "note": 65,
      "start": 14.6534,
      "duration": 0.0802,
      "velocity": 106,
      "chip": "ym2612"
    },
    {
      "channel": 5,
      "note": 49,
      "start": 14.6578,
      "duration": 0.3875,
      "velocity": 126,
      "chip": "ym2612"
    },
    {
      "channel": 4,
      "note": 79,
      "start": 14.664,
      "duration": 0.1756,
      "velocity": 107,
      "chip": "ym2612"
    },
    {
      "channel": 3,
      "note": 65,
      "start": 14.8485,
      "duration": 0.0802,
      "velocity": 106,
      "chip": "ym2612"
    },
    {
      "channel": 4,
      "note": 80,
      "start": 14.857,
      "duration": 0.1776,
      "velocity": 107,
      "chip": "ym2612"
    },
    {
      "channel": 1,
      "note": 53,
      "start": 15.0433,
      "duration": 0.1858,
      "velocity": 97,
      "chip": "ym2612"
    },
    {
      "channel": 3,
      "note": 65,
      "start": 15.0447,
      "duration": 0.0882,
      "velocity": 106,
      "chip": "ym2612"
    },
    {
      "channel": 5,
      "note": 0,
      "start": 15.0493,
      "duration": 0.1994,
      "velocity": 112,
      "chip": "ym2612"
    },
    {
      "channel": 4,
      "note": 77,
      "start": 15.0601,
      "duration": 0.1776,
      "velocity": 107,
      "chip": "ym2612"
    },
    {
      "channel": 1,
      "note": 70,
      "start": 15.2465,
      "duration": 0.3739,
      "velocity": 97,
      "chip": "ym2612"
    },
    {
      "channel": 3,
      "note": 65,
      "start": 15.2479,
      "duration": 0.0871,
      "velocity": 106,
      "chip": "ym2612"
    },
    {
      "channel": 5,
      "note": 56,
      "start": 15.2524,
      "duration": 0.198,
      "velocity": 112,
      "chip": "ym2612"
    },
    {
      "channel": 4,
      "note": 79,
      "start": 15.2633,
      "duration": 0.1776,
      "velocity": 107,
      "chip": "ym2612"
    },
    {
      "channel": 3,
      "note": 65,
      "start": 15.4498,
      "duration": 0.0802,
      "velocity": 106,
      "chip": "ym2612"
    },
    {
      "channel": 5,
      "note": 56,
      "start": 15.4541,
      "duration": 0.3888,
      "velocity": 126,
      "chip": "ym2612"
    },
    {
      "channel": 4,
      "note": 80,
      "start": 15.4583,
      "duration": 0.1797,
      "velocity": 107,
      "chip": "ym2612"
    },
    {
      "channel": 1,
      "note": 68,
      "start": 15.6445,
      "duration": 0.3809,
      "velocity": 97,
      "chip": "ym2612"
    },
    {
      "channel": 3,
      "note": 65,
      "start": 15.646,
      "duration": 0.079,
      "velocity": 106,
      "chip": "ym2612"
    },
    {
      "channel": 4,
      "note": 77,
      "start": 15.6533,
      "duration": 0.1777,
      "velocity": 107,
      "chip": "ym2612"
    },
    {
      "channel": 0,
      "note": 65,
      "start": 15.8396,
      "duration": 1.5751,
      "velocity": 93,
      "chip": "ym2612"
    },
    {
      "channel": 3,
      "note": 65,
      "start": 15.8422,
      "duration": 0.0859,
      "velocity": 106,
      "chip": "ym2612"
    },
    {
      "channel": 5,
      "note": 0,
      "start": 15.8469,
      "duration": 0.198,
      "velocity": 112,
      "chip": "ym2612"
    },
    {
      "channel": 4,
      "note": 79,
      "start": 15.8566,
      "duration": 0.1774,
      "velocity": 107,
      "chip": "ym2612"
    },
    {
      "channel": 1,
      "note": 67,
      "start": 16.0428,
      "duration": 0.3727,
      "velocity": 97,
      "chip": "ym2612"
    },
    {
      "channel": 3,
      "note": 65,
      "start": 16.0442,
      "duration": 0.0871,
      "velocity": 106,
      "chip": "ym2612"
    },
    {
      "channel": 5,
      "note": 56,
      "start": 16.0488,
      "duration": 0.198,
      "velocity": 112,
      "chip": "ym2612"
    },
    {
      "channel": 4,
      "note": 80,
      "start": 16.0596,
      "duration": 0.1776,
      "velocity": 107,
      "chip": "ym2612"
    },
    {
      "channel": 3,
      "note": 65,
      "start": 16.2461,
      "duration": 0.0802,
      "velocity": 106,
      "chip": "ym2612"
    },
    {
      "channel": 5,
      "note": 57,
      "start": 16.2505,
      "duration": 0.1925,
      "velocity": 126,
      "chip": "ym2612"
    },
    {
      "channel": 4,
      "note": 77,
      "start": 16.2559,
      "duration": 0.1764,
      "velocity": 107,
      "chip": "ym2612"
    },
    {
      "channel": 1,
      "note": 68,
      "start": 16.4409,
      "duration": 0.1858,
      "velocity": 97,
      "chip": "ym2612"
    },
    {
      "channel": 3,
      "note": 65,
      "start": 16.4423,
      "duration": 0.0872,
      "velocity": 106,
      "chip": "ym2612"
    },
    {
      "channel": 5,
      "note": 7,
      "start": 16.4468,
      "duration": 0.3948,
      "velocity": 112,
      "chip": "ym2612"
    },
    {
      "channel": 4,
      "note": 79,
      "start": 16.4579,
      "duration": 0.1775,
      "velocity": 107,
      "chip": "ym2612"
    },
    {
      "channel": 1,
      "note": 70,
      "start": 16.644,
      "duration": 0.7709,
      "velocity": 97,
      "chip": "ym2612"
    },
    {
      "channel": 3,
      "note": 65,
      "start": 16.6455,
      "duration": 0.079,
      "velocity": 106,
      "chip": "ym2612"
    },
    {
      "channel": 4,
      "note": 80,
      "start": 16.6527,
      "duration": 0.1777,
      "velocity": 107,
      "chip": "ym2612"
    },
    {
      "channel": 3,
      "note": 65,
      "start": 16.8409,
      "duration": 0.0867,
      "velocity": 106,
      "chip": "ym2612"
    },
    {
      "channel": 5,
      "note": 49,
      "start": 16.8454,
      "duration": 0.1976,
      "velocity": 112,
      "chip": "ym2612"
    },
    {
      "channel": 4,
      "note": 77,
      "start": 16.8559,
      "duration": 0.1776,
      "velocity": 107,
      "chip": "ym2612"
    },
    {
      "channel": 3,
      "note": 65,
      "start": 17.0424,
      "duration": 0.0802,
      "velocity": 106,
      "chip": "ym2612"
    },
    {
      "channel": 5,
      "note": 57,
      "start": 17.0468,
      "duration": 0.3896,
      "velocity": 126,
      "chip": "ym2612"
    },
    {
      "channel": 4,
      "note": 79,
      "start": 17.0521,
      "duration": 0.1765,
      "velocity": 107,
      "chip": "ym2612"
    },
    {
      "channel": 3,
      "note": 65,
      "start": 17.2375,
      "duration": 0.0802,
      "velocity": 106,
      "chip": "ym2612"
    },
    {
      "channel": 4,
      "note": 80,
      "start": 17.2459,
      "duration": 0.1777,
      "velocity": 107,
      "chip": "ym2612"
    },
    {
      "channel": 0,
      "note": 67,
      "start": 17.4326,
      "duration": 1.5666,
      "velocity": 93,
      "chip": "ym2612"
    },
    {
      "channel": 1,
      "note": 68,
      "start": 17.4341,
      "duration": 0.769,
      "velocity": 97,
      "chip": "ym2612"
    },
    {
      "channel": 3,
      "note": 65,
      "start": 17.4358,
      "duration": 0.0851,
      "velocity": 106,
      "chip": "ym2612"
    },
    {
      "channel": 5,
      "note": 0,
      "start": 17.4404,
      "duration": 0.391,
      "velocity": 112,
      "chip": "ym2612"
    },
    {
      "channel": 4,
      "note": 77,
      "start": 17.4507,
      "duration": 0.176,
      "velocity": 107,
      "chip": "ym2612"
    },
    {
      "channel": 3,
      "note": 65,
      "start": 17.6356,
      "duration": 0.0802,
      "velocity": 106,
      "chip": "ym2612"
    },
    {
      "channel": 4,
      "note": 77,
      "start": 17.6442,
      "duration": 0.1776,
      "velocity": 107,
      "chip": "ym2612"
    },
    {
      "channel": 3,
      "note": 65,
      "start": 17.8307,
      "duration": 0.0802,
      "velocity": 106,
      "chip": "ym2612"
    },
    {
      "channel": 5,
      "note": 50,
      "start": 17.835,
      "duration": 0.3876,
      "velocity": 126,
      "chip": "ym2612"
    },
    {
      "channel": 4,
      "note": 79,
      "start": 17.8399,
      "duration": 0.1769,
      "velocity": 107,
      "chip": "ym2612"
    },
    {
      "channel": 3,
      "note": 65,
      "start": 18.0256,
      "duration": 0.0802,
      "velocity": 106,
      "chip": "ym2612"
    },
    {
      "channel": 4,
      "note": 80,
      "start": 18.0342,
      "duration": 0.1776,
      "velocity": 107,
      "chip": "ym2612"
    },
    {
      "channel": 1,
      "note": 53,
      "start": 18.2204,
      "duration": 0.1866,
      "velocity": 97,
      "chip": "ym2612"
    },
    {
      "channel": 3,
      "note": 65,
      "start": 18.2219,
      "duration": 0.0871,
      "velocity": 106,
      "chip": "ym2612"
    },
    {
      "channel": 5,
      "note": 0,
      "start": 18.2264,
      "duration": 0.201,
      "velocity": 112,
      "chip": "ym2612"
    },
    {
      "channel": 4,
      "note": 77,
      "start": 18.2373,
      "duration": 0.1777,
      "velocity": 107,
      "chip": "ym2612"
    },
    {
      "channel": 1,
      "note": 70,
      "start": 18.4253,
      "duration": 0.371,
      "velocity": 97,
      "chip": "ym2612"
    },
    {
      "channel": 3,
      "note": 65,
      "start": 18.4267,
      "duration": 0.0854,
      "velocity": 106,
      "chip": "ym2612"
    },
    {
      "channel": 5,
      "note": 56,
      "start": 18.4313,
      "duration": 0.1963,
      "velocity": 112,
      "chip": "ym2612"
    },
    {
      "channel": 4,
      "note": 79,
      "start": 18.4405,
      "duration": 0.1776,
      "velocity": 107,
      "chip": "ym2612"
    },
    {
      "channel": 3,
      "note": 65,
      "start": 18.627,
      "duration": 0.0802,
      "velocity": 106,
      "chip": "ym2612"
    },
    {
      "channel": 5,
      "note": 57,
      "start": 18.6314,
      "duration": 0.3898,
      "velocity": 126,
      "chip": "ym2612"
    },
    {
      "channel": 4,
      "note": 80,
      "start": 18.6366,
      "duration": 0.1765,
      "velocity": 107,
      "chip": "ym2612"
    },
    {
      "channel": 1,
      "note": 68,
      "start": 18.8217,
      "duration": 0.3809,
      "velocity": 97,
      "chip": "ym2612"
    },
    {
      "channel": 3,
      "note": 65,
      "start": 18.8232,
      "duration": 0.0791,
      "velocity": 106,
      "chip": "ym2612"
    },
    {
      "channel": 4,
      "note": 77,
      "start": 18.8305,
      "duration": 0.1776,
      "velocity": 107,
      "chip": "ym2612"
    },
    {
      "channel": 0,
      "note": 68,
      "start": 19.0179,
      "duration": 0.7776,
      "velocity": 93,
      "chip": "ym2612"
    },
    {
      "channel": 3,
      "note": 65,
      "start": 19.0205,
      "duration": 0.0849,
      "velocity": 106,
      "chip": "ym2612"
    },
    {
      "channel": 5,
      "note": 0,
      "start": 19.0251,
      "duration": 0.3907,
      "velocity": 112,
      "chip": "ym2612"
    },
    {
      "channel": 4,
      "note": 79,
      "start": 19.0358,
      "duration": 0.1754,
      "velocity": 107,
      "chip": "ym2612"
    },
    {
      "channel": 1,
      "note": 67,
      "start": 19.2199,
      "duration": 0.3646,
      "velocity": 97,
      "chip": "ym2612"
    },
    {
      "channel": 3,
      "note": 65,
      "start": 19.2214,
      "duration": 0.079,
      "velocity": 106,
      "chip": "ym2612"
    },
    {
      "channel": 4,
      "note": 80,
      "start": 19.2286,
      "duration": 0.1776,
      "velocity": 107,
      "chip": "ym2612"
    },
    {
      "channel": 3,
      "note": 65,
      "start": 19.4152,
      "duration": 0.0802,
      "velocity": 106,
      "chip": "ym2612"
    },
    {
      "channel": 5,
      "note": 50,
      "start": 19.4195,
      "duration": 0.3889,
      "velocity": 126,
      "chip": "ym2612"
    },
    {
      "channel": 4,
      "note": 77,
      "start": 19.4248,
      "duration": 0.1765,
      "velocity": 107,
      "chip": "ym2612"
    },
    {
      "channel": 1,
      "note": 68,
      "start": 19.61,
      "duration": 0.1777,
      "velocity": 97,
      "chip": "ym2612"
    },
    {
      "channel": 3,
      "note": 65,
      "start": 19.6114,
      "duration": 0.079,
      "velocity": 106,
      "chip": "ym2612"
    },
    {
      "channel": 4,
      "note": 79,
      "start": 19.6187,
      "duration": 0.1777,
      "velocity": 107,
      "chip": "ym2612"
    },
    {
      "channel": 0,
      "note": 70,
      "start": 19.8049,
      "duration": 0.7789,
      "velocity": 93,
      "chip": "ym2612"
    },
    {
      "channel": 1,
      "note": 70,
      "start": 19.8063,
      "duration": 0.7695,
      "velocity": 97,
      "chip": "ym2612"
    },
    {
      "channel": 3,
      "note": 65,
      "start": 19.8078,
      "duration": 0.0858,
      "velocity": 106,
      "chip": "ym2612"
    },
    {
      "channel": 5,
      "note": 0,
      "start": 19.8123,
      "duration": 0.098,
      "velocity": 112,
      "chip": "ym2612"
    },
    {
      "channel": 4,
      "note": 80,
      "start": 19.8218,
      "duration": 0.1776,
      "velocity": 107,
      "chip": "ym2612"
    },
    {
      "channel": 5,
      "note": 45,
      "start": 19.9141,
      "duration": 0.0949,
      "velocity": 112,
      "chip": "ym2612"
    },
    {
      "channel": 3,
      "note": 65,
      "start": 20.0083,
      "duration": 0.0802,
      "velocity": 106,
      "chip": "ym2612"
    },
    {
      "channel": 5,
      "note": 46,
      "start": 20.0129,
      "duration": 0.0924,
      "velocity": 112,
      "chip": "ym2612"
    },
    {
      "channel": 4,
      "note": 77,
      "start": 20.0183,
      "duration": 0.1761,
      "velocity": 107,
      "chip": "ym2612"
    },
    {
      "channel": 5,
      "note": 38,
      "start": 20.1091,
      "duration": 0.0949,
      "velocity": 112,
      "chip": "ym2612"
    },
    {
      "channel": 3,
      "note": 65,
      "start": 20.2034,
      "duration": 0.0802,
      "velocity": 106,
      "chip": "ym2612"
    },
    {
      "channel": 5,
      "note": 38,
      "start": 20.2078,
      "duration": 0.0926,
      "velocity": 112,
      "chip": "ym2612"
    },
    {
      "channel": 4,
      "note": 79,
      "start": 20.2119,
      "duration": 0.1776,
      "velocity": 107,
      "chip": "ym2612"
    },
    {
      "channel": 5,
      "note": 34,
      "start": 20.3041,
      "duration": 0.095,
      "velocity": 112,
      "chip": "ym2612"
    },
    {
      "channel": 3,
      "note": 65,
      "start": 20.3985,
      "duration": 0.0814,
      "velocity": 106,
      "chip": "ym2612"
    },
    {
      "channel": 5,
      "note": 33,
      "start": 20.4029,
      "duration": 0.0925,
      "velocity": 126,
      "chip": "ym2612"
    },
    {
      "channel": 4,
      "note": 80,
      "start": 20.4069,
      "duration": 0.1777,
      "velocity": 107,
      "chip": "ym2612"
    },
    {
      "channel": 5,
      "note": 19,
      "start": 20.4991,
      "duration": 0.0979,
      "velocity": 126,
      "chip": "ym2612"
    },
    {
      "channel": 0,
      "note": 72,
      "start": 20.5932,
      "duration": 3.1514,
      "velocity": 93,
      "chip": "ym2612"
    },
    {
      "channel": 1,
      "note": 68,
      "start": 20.5947,
      "duration": 0.7693,
      "velocity": 97,
      "chip": "ym2612"
    },
    {
      "channel": 3,
      "note": 65,
      "start": 20.5964,
      "duration": 0.0854,
      "velocity": 106,
      "chip": "ym2612"
    },
    {
      "channel": 5,
      "note": 18,
      "start": 20.6011,
      "duration": 0.3912,
      "velocity": 112,
      "chip": "ym2612"
    },
    {
      "channel": 4,
      "note": 77,
      "start": 20.6102,
      "duration": 0.1775,
      "velocity": 107,
      "chip": "ym2612"
    },
    {
      "channel": 3,
      "note": 61,
      "start": 20.7965,
      "duration": 0.0803,
      "velocity": 106,
      "chip": "ym2612"
    },
    {
      "channel": 4,
      "note": 77,
      "start": 20.805,
      "duration": 0.1777,
      "velocity": 107,
      "chip": "ym2612"
    },
    {
      "channel": 3,
      "note": 61,
      "start": 20.9916,
      "duration": 0.0807,
      "velocity": 106,
      "chip": "ym2612"
    },
    {
      "channel": 5,
      "note": 49,
      "start": 20.9959,
      "duration": 0.3876,
      "velocity": 126,
      "chip": "ym2612"
    },
    {
      "channel": 4,
      "note": 79,
      "start": 21.0001,
      "duration": 0.1776,
      "velocity": 107,
      "chip": "ym2612"
    },
    {
      "channel": 3,
      "note": 61,
      "start": 21.1866,
      "duration": 0.0802,
      "velocity": 106,
      "chip": "ym2612"
    },
    {
      "channel": 4,
      "note": 80,
      "start": 21.1954,
      "duration": 0.1773,
      "velocity": 107,
      "chip": "ym2612"
    },
    {
      "channel": 1,
      "note": 49,
      "start": 21.3815,
      "duration": 0.1857,
      "velocity": 97,
      "chip": "ym2612"
    },
    {
      "channel": 3,
      "note": 61,
      "start": 21.3828,
      "duration": 0.0871,
      "velocity": 106,
      "chip": "ym2612"
    },
    {
      "channel": 5,
      "note": 0,
      "start": 21.3873,
      "duration": 0.1993,
      "velocity": 112,
      "chip": "ym2612"
    },
    {
      "channel": 4,
      "note": 77,
      "start": 21.3983,
      "duration": 0.1791,
      "velocity": 107,
      "chip": "ym2612"
    },
    {
      "channel": 1,
      "note": 70,
      "start": 21.5846,
      "duration": 0.3727,
      "velocity": 97,
      "chip": "ym2612"
    },
    {
      "channel": 3,
      "note": 61,
      "start": 21.586,
      "duration": 0.0871,
      "velocity": 106,
      "chip": "ym2612"
    },
    {
      "channel": 5,
      "note": 56,
      "start": 21.5905,
      "duration": 0.1981,
      "velocity": 112,
      "chip": "ym2612"
    },
    {
      "channel": 4,
      "note": 79,
      "start": 21.6014,
      "duration": 0.1776,
      "velocity": 107,
      "chip": "ym2612"
    },
    {
      "channel": 3,
      "note": 61,
      "start": 21.7879,
      "duration": 0.0802,
      "velocity": 106,
      "chip": "ym2612"
    },
    {
      "channel": 5,
      "note": 56,
      "start": 21.7922,
      "duration": 0.388,
      "velocity": 126,
      "chip": "ym2612"
    },
    {
      "channel": 4,
      "note": 80,
      "start": 21.7964,
      "duration": 0.1777,
      "velocity": 107,
      "chip": "ym2612"
    },
    {
      "channel": 1,
      "note": 68,
      "start": 21.9827,
      "duration": 0.3808,
      "velocity": 97,
      "chip": "ym2612"
    },
    {
      "channel": 3,
      "note": 61,
      "start": 21.9841,
      "duration": 0.0809,
      "velocity": 106,
      "chip": "ym2612"
    },
    {
      "channel": 4,
      "note": 77,
      "start": 21.9914,
      "duration": 0.1783,
      "velocity": 107,
      "chip": "ym2612"
    },
    {
      "channel": 3,
      "note": 61,
      "start": 22.1797,
      "duration": 0.0866,
      "velocity": 106,
      "chip": "ym2612"
    },
    {
      "channel": 5,
      "note": 0,
      "start": 22.1844,
      "duration": 0.1987,
      "velocity": 112,
      "chip": "ym2612"
    },
    {
      "channel": 4,
      "note": 79,
      "start": 22.1947,
      "duration": 0.1774,
      "velocity": 107,
      "chip": "ym2612"
    },
    {
      "channel": 1,
      "note": 67,
      "start": 22.3809,
      "duration": 0.3727,
      "velocity": 97,
      "chip": "ym2612"
    },
    {
      "channel": 3,
      "note": 61,
      "start": 22.3823,
      "duration": 0.0871,
      "velocity": 106,
      "chip": "ym2612"
    },
    {
      "channel": 5,
      "note": 56,
      "start": 22.3868,
      "duration": 0.198,
      "velocity": 112,
      "chip": "ym2612"
    },
    {
      "channel": 4,
      "note": 80,
      "start": 22.3977,
      "duration": 0.1776,
      "velocity": 107,
      "chip": "ym2612"
    },
    {
      "channel": 3,
      "note": 61,
      "start": 22.5842,
      "duration": 0.0802,
      "velocity": 106,
      "chip": "ym2612"
    },
    {
      "channel": 5,
      "note": 57,
      "start": 22.5886,
      "duration": 0.1934,
      "velocity": 126,
      "chip": "ym2612"
    },
    {
      "channel": 4,
      "note": 77,
      "start": 22.5938,
      "duration": 0.1766,
      "velocity": 107,
      "chip": "ym2612"
    },
    {
      "channel": 1,
      "note": 68,
      "start": 22.7798,
      "duration": 0.185,
      "velocity": 97,
      "chip": "ym2612"
    },
    {
      "channel": 3,
      "note": 61,
      "start": 22.7813,
      "duration": 0.0863,
      "velocity": 106,
      "chip": "ym2612"
    },
    {
      "channel": 5,
      "note": 7,
      "start": 22.7858,
      "duration": 0.3923,
      "velocity": 112,
      "chip": "ym2612"
    },
    {
      "channel": 4,
      "note": 79,
      "start": 22.7979,
      "duration": 0.1756,
      "velocity": 107,
      "chip": "ym2612"
    },
    {
      "channel": 1,
      "note": 70,
      "start": 22.9821,
      "duration": 0.7629,
      "velocity": 97,
      "chip": "ym2612"
    },
    {
      "channel": 3,
      "note": 61,
      "start": 22.9836,
      "duration": 0.079,
      "velocity": 106,
      "chip": "ym2612"
    },
    {
      "channel": 4,
      "note": 80,
      "start": 22.9909,
      "duration": 0.1776,
      "velocity": 107,
      "chip": "ym2612"
    },
    {
      "channel": 3,
      "note": 61,
      "start": 23.1774,
      "duration": 0.0803,
      "velocity": 106,
      "chip": "ym2612"
    },
    {
      "channel": 5,
      "note": 50,
      "start": 23.182,
      "duration": 0.1912,
      "velocity": 112,
      "chip": "ym2612"
    },
    {
      "channel": 4,
      "note": 77,
      "start": 23.1872,
      "duration": 0.1763,
      "velocity": 107,
      "chip": "ym2612"
    },
    {
      "channel": 3,
      "note": 61,
      "start": 23.3724,
      "duration": 0.0802,
      "velocity": 106,
      "chip": "ym2612"
    },
    {
      "channel": 5,
      "note": 56,
      "start": 23.3768,
      "duration": 0.3893,
      "velocity": 126,
      "chip": "ym2612"
    },
    {
      "channel": 4,
      "note": 79,
      "start": 23.381,
      "duration": 0.1776,
      "velocity": 107,
      "chip": "ym2612"
    },
    {
      "channel": 3,
      "note": 61,
      "start": 23.5674,
      "duration": 0.0803,
      "velocity": 106,
      "chip": "ym2612"
    },
    {
      "channel": 4,
      "note": 80,
      "start": 23.5759,
      "duration": 0.1786,
      "velocity": 107,
      "chip": "ym2612"
    },
    {
      "channel": 0,
      "note": 61,
      "start": 23.7622,
      "duration": 2.5745,
      "velocity": 93,
      "chip": "ym2612"
    },
    {
      "channel": 1,
      "note": 68,
      "start": 23.7638,
      "duration": 0.7693,
      "velocity": 97,
      "chip": "ym2612"
    },
    {
      "channel": 3,
      "note": 61,
      "start": 23.7655,
      "duration": 0.0853,
      "velocity": 106,
      "chip": "ym2612"
    },
    {
      "channel": 5,
      "note": 0,
      "start": 23.7701,
      "duration": 0.3912,
      "velocity": 112,
      "chip": "ym2612"
    },
    {
      "channel": 4,
      "note": 77,
      "start": 23.7793,
      "duration": 0.1774,
      "velocity": 107,
      "chip": "ym2612"
    },
    {
      "channel": 3,
      "note": 61,
      "start": 23.9657,
      "duration": 0.0802,
      "velocity": 106,
      "chip": "ym2612"
    },
    {
      "channel": 4,
      "note": 77,
      "start": 23.9741,
      "duration": 0.1776,
      "velocity": 107,
      "chip": "ym2612"
    },
    {
      "channel": 3,
      "note": 61,
      "start": 24.1606,
      "duration": 0.0816,
      "velocity": 106,
      "chip": "ym2612"
    },
    {
      "channel": 5,
      "note": 49,
      "start": 24.165,
      "duration": 0.3875,
      "velocity": 126,
      "chip": "ym2612"
    },
    {
      "channel": 4,
      "note": 79,
      "start": 24.1691,
      "duration": 0.1779,
      "velocity": 107,
      "chip": "ym2612"
    },
    {
      "channel": 3,
      "note": 61,
      "start": 24.3556,
      "duration": 0.0802,
      "velocity": 106,
      "chip": "ym2612"
    },
    {
      "channel": 4,
      "note": 80,
      "start": 24.3655,
      "duration": 0.1763,
      "velocity": 107,
      "chip": "ym2612"
    },
    {
      "channel": 1,
      "note": 49,
      "start": 24.5504,
      "duration": 0.1859,
      "velocity": 97,
      "chip": "ym2612"
    },
    {
      "channel": 3,
      "note": 61,
      "start": 24.5519,
      "duration": 0.0871,
      "velocity": 106,
      "chip": "ym2612"
    },
    {
      "channel": 5,
      "note": 0,
      "start": 24.5564,
      "duration": 0.1993,
      "velocity": 112,
      "chip": "ym2612"
    },
    {
      "channel": 4,
      "note": 77,
      "start": 24.5673,
      "duration": 0.1776,
      "velocity": 107,
      "chip": "ym2612"
    },
    {
      "channel": 1,
      "note": 70,
      "start": 24.7536,
      "duration": 0.3727,
      "velocity": 97,
      "chip": "ym2612"
    },
    {
      "channel": 3,
      "note": 61,
      "start": 24.755,
      "duration": 0.0871,
      "velocity": 106,
      "chip": "ym2612"
    },
    {
      "channel": 5,
      "note": 56,
      "start": 24.7595,
      "duration": 0.1987,
      "velocity": 112,
      "chip": "ym2612"
    },
    {
      "channel": 4,
      "note": 79,
      "start": 24.7704,
      "duration": 0.1777,
      "velocity": 107,
      "chip": "ym2612"
    },
    {
      "channel": 3,
      "note": 61,
      "start": 24.9575,
      "duration": 0.0796,
      "velocity": 106,
      "chip": "ym2612"
    },
    {
      "channel": 5,
      "note": 56,
      "start": 24.9619,
      "duration": 0.3876,
      "velocity": 126,
      "chip": "ym2612"
    },
    {
      "channel": 4,
      "note": 80,
      "start": 24.9655,
      "duration": 0.1776,
      "velocity": 107,
      "chip": "ym2612"
    },
    {
      "channel": 1,
      "note": 68,
      "start": 25.1517,
      "duration": 0.3808,
      "velocity": 97,
      "chip": "ym2612"
    },
    {
      "channel": 3,
      "note": 61,
      "start": 25.1531,
      "duration": 0.0791,
      "velocity": 106,
      "chip": "ym2612"
    },
    {
      "channel": 4,
      "note": 77,
      "start": 25.1605,
      "duration": 0.1793,
      "velocity": 107,
      "chip": "ym2612"
    },
    {
      "channel": 3,
      "note": 61,
      "start": 25.3488,
      "duration": 0.0866,
      "velocity": 106,
      "chip": "ym2612"
    },
    {
      "channel": 5,
      "note": 0,
      "start": 25.3534,
      "duration": 0.0987,
      "velocity": 112,
      "chip": "ym2612"
    },
    {
      "channel": 4,
      "note": 79,
      "start": 25.3638,
      "duration": 0.1774,
      "velocity": 107,
      "chip": "ym2612"
    },
    {
      "channel": 5,
      "note": 59,
      "start": 25.4559,
      "duration": 0.0961,
      "velocity": 112,
      "chip": "ym2612"
    },
    {
      "channel": 1,
      "note": 67,
      "start": 25.5499,
      "duration": 0.3727,
      "velocity": 97,
      "chip": "ym2612"
    },
    {
      "channel": 3,
      "note": 61,
      "start": 25.5514,
      "duration": 0.0871,
      "velocity": 106,
      "chip": "ym2612"
    },
    {
      "channel": 5,
      "note": 59,
      "start": 25.5557,
      "duration": 0.0996,
      "velocity": 126,
      "chip": "ym2612"
    },
    {
      "channel": 4,
      "note": 80,
      "start": 25.5674,
      "duration": 0.177,
      "velocity": 107,
      "chip": "ym2612"
    },
    {
      "channel": 5,
      "note": 18,
      "start": 25.6591,
      "duration": 0.0949,
      "velocity": 112,
      "chip": "ym2612"
    },
    {
      "channel": 3,
      "note": 61,
      "start": 25.7533,
      "duration": 0.0802,
      "velocity": 106,
      "chip": "ym2612"
    },
    {
      "channel": 5,
      "note": 60,
      "start": 25.7578,
      "duration": 0.0925,
      "velocity": 112,
      "chip": "ym2612"
    },
    {
      "channel": 4,
      "note": 77,
      "start": 25.7631,
      "duration": 0.1763,
      "velocity": 107,
      "chip": "ym2612"
    },
    {
      "channel": 5,
      "note": 59,
      "start": 25.854,
      "duration": 0.0981,
      "velocity": 126,
      "chip": "ym2612"
    },
    {
      "channel": 1,
      "note": 68,
      "start": 25.95,
      "duration": 0.1839,
      "velocity": 97,
      "chip": "ym2612"
    },
    {
      "channel": 3,
      "note": 61,
      "start": 25.9514,
      "duration": 0.0853,
      "velocity": 106,
      "chip": "ym2612"
    },
    {
      "channel": 5,
      "note": 18,
      "start": 25.9559,
      "duration": 0.0985,
      "velocity": 112,
      "chip": "ym2612"
    },
    {
      "channel": 4,
      "note": 79,
      "start": 25.965,
      "duration": 0.1776,
      "velocity": 107,
      "chip": "ym2612"
    },
    {
      "channel": 5,
      "note": 59,
      "start": 26.0582,
      "duration": 0.0951,
      "velocity": 112,
      "chip": "ym2612"
    },
    {
      "channel": 1,
      "note": 70,
      "start": 26.1512,
      "duration": 0.7872,
      "velocity": 97,
      "chip": "ym2612"
    },
    {
      "channel": 3,
      "note": 61,
      "start": 26.1526,
      "duration": 0.0871,
      "velocity": 106,
      "chip": "ym2612"
    },
    {
      "channel": 5,
      "note": 60,
      "start": 26.157,
      "duration": 0.0996,
      "velocity": 126,
      "chip": "ym2612"
    },
    {
      "channel": 4,
      "note": 80,
      "start": 26.1681,
      "duration": 0.1776,
      "velocity": 107,
      "chip": "ym2612"
    },
    {
      "channel": 5,
      "note": 18,
      "start": 26.2604,
      "duration": 0.0962,
      "velocity": 112,
      "chip": "ym2612"
    },
    {
      "channel": 0,
      "note": 61,
      "start": 26.3542,
      "duration": 0.2913,
      "velocity": 93,
      "chip": "ym2612"
    },
    {
      "channel": 3,
      "note": 61,
      "start": 26.3559,
      "duration": 0.087,
      "velocity": 106,
      "chip": "ym2612"
    },
    {
      "channel": 5,
      "note": 59,
      "start": 26.3604,
      "duration": 0.0993,
      "velocity": 112,
      "chip": "ym2612"
    },
    {
      "channel": 4,
      "note": 77,
      "start": 26.3712,
      "duration": 0.1777,
      "velocity": 107,
      "chip": "ym2612"
    },
    {
      "channel": 5,
      "note": 59,
      "start": 26.4634,
      "duration": 0.0973,
      "velocity": 126,
      "chip": "ym2612"
    },
    {
      "channel": 3,
      "note": 61,
      "start": 26.5601,
      "duration": 0.0861,
      "velocity": 106,
      "chip": "ym2612"
    },
    {
      "channel": 5,
      "note": 18,
      "start": 26.5646,
      "duration": 0.1007,
      "velocity": 112,
      "chip": "ym2612"
    },
    {
      "channel": 4,
      "note": 79,
      "start": 26.5744,
      "duration": 0.1776,
      "velocity": 107,
      "chip": "ym2612"
    },
    {
      "channel": 0,
      "note": 63,
      "start": 26.6641,
      "duration": 0.274,
      "velocity": 93,
      "chip": "ym2612"
    },
    {
      "channel": 5,
      "note": 59,
      "start": 26.6691,
      "duration": 0.0924,
      "velocity": 112,
      "chip": "ym2612"
    },
    {
      "channel": 3,
      "note": 61,
      "start": 26.7609,
      "duration": 0.0802,
      "velocity": 106,
      "chip": "ym2612"
    },
    {
      "channel": 5,
      "note": 60,
      "start": 26.7653,
      "duration": 0.0926,
      "velocity": 126,
      "chip": "ym2612"
    },
    {
      "channel": 4,
      "note": 80,
      "start": 26.7706,
      "duration": 0.1764,
      "velocity": 107,
      "chip": "ym2612"
    },
    {
      "channel": 5,
      "note": 18,
      "start": 26.8617,
      "duration": 0.0978,
      "velocity": 112,
      "chip": "ym2612"
    },
    {
      "channel": 0,
      "note": 64,
      "start": 26.9557,
      "duration": 0.5756,
      "velocity": 93,
      "chip": "ym2612"
    },
    {
      "channel": 1,
      "note": 68,
      "start": 26.9573,
      "duration": 0.1029,
      "velocity": 97,
      "chip": "ym2612"
    },
    {
      "channel": 3,
      "note": 61,
      "start": 26.9589,
      "duration": 0.0878,
      "velocity": 106,
      "chip": "ym2612"
    },
    {
      "channel": 5,
      "note": 60,
      "start": 26.9635,
      "duration": 0.3914,
      "velocity": 112,
      "chip": "ym2612"
    },
    {
      "channel": 4,
      "note": 77,
      "start": 26.9759,
      "duration": 0.1752,
      "velocity": 101,
      "chip": "ym2612"
    },
    {
      "channel": 1,
      "note": 60,
      "start": 27.1587,
      "duration": 0.0966,
      "velocity": 97,
      "chip": "ym2612"
    },
    {
      "channel": 4,
      "note": 84,
      "start": 27.1697,
      "duration": 0.1755,
      "velocity": 101,
      "chip": "ym2612"
    },
    {
      "channel": 1,
      "note": 60,
      "start": 27.3538,
      "duration": 0.0964,
      "velocity": 97,
      "chip": "ym2612"
    },
    {
      "channel": 5,
      "note": 49,
      "start": 27.3586,
      "duration": 0.3861,
      "velocity": 126,
      "chip": "ym2612"
    },
    {
      "channel": 4,
      "note": 85,
      "start": 27.3642,
      "duration": 0.176,
      "velocity": 101,
      "chip": "ym2612"
    },
    {
      "channel": 0,
      "note": 60,
      "start": 27.5487,
      "duration": 2.5584,
      "velocity": 93,
      "chip": "ym2612"
    },
    {
      "channel": 1,
      "note": 60,
      "start": 27.5501,
      "duration": 0.0951,
      "velocity": 97,
      "chip": "ym2612"
    },
    {
      "channel": 3,
      "note": 60,
      "start": 27.5515,
      "duration": 0.0777,
      "velocity": 106,
      "chip": "ym2612"
    },
    {
      "channel": 4,
      "note": 84,
      "start": 27.5575,
      "duration": 0.1777,
      "velocity": 101,
      "chip": "ym2612"
    },
    {
      "channel": 1,
      "note": 60,
      "start": 27.7439,
      "duration": 0.0964,
      "velocity": 97,
      "chip": "ym2612"
    },
    {
      "channel": 5,
      "note": 0,
      "start": 27.7486,
      "duration": 0.1914,
      "velocity": 112,
      "chip": "ym2612"
    },
    {
      "channel": 4,
      "note": 79,
      "start": 27.7526,
      "duration": 0.3644,
      "velocity": 101,
      "chip": "ym2612"
    },
    {
      "channel": 1,
      "note": 60,
      "start": 27.9388,
      "duration": 0.0965,
      "velocity": 97,
      "chip": "ym2612"
    },
    {
      "channel": 5,
      "note": 57,
      "start": 27.9439,
      "duration": 0.1921,
      "velocity": 112,
      "chip": "ym2612"
    },
    {
      "channel": 1,
      "note": 60,
      "start": 28.1339,
      "duration": 0.1046,
      "velocity": 97,
      "chip": "ym2612"
    },
    {
      "channel": 3,
      "note": 60,
      "start": 28.1353,
      "duration": 0.0872,
      "velocity": 106,
      "chip": "ym2612"
    },
    {
      "channel": 5,
      "note": 57,
      "start": 28.1396,
      "duration": 0.3957,
      "velocity": 126,
      "chip": "ym2612"
    },
    {
      "channel": 4,
      "note": 82,
      "start": 28.1508,
      "duration": 0.1776,
      "velocity": 101,
      "chip": "ym2612"
    },
    {
      "channel": 1,
      "note": 60,
      "start": 28.337,
      "duration": 0.0965,
      "velocity": 97,
      "chip": "ym2612"
    },
    {
      "channel": 4,
      "note": 80,
      "start": 28.3457,
      "duration": 1.1772,
      "velocity": 101,
      "chip": "ym2612"
    },
    {
      "channel": 1,
      "note": 60,
      "start": 28.533,
      "duration": 0.1036,
      "velocity": 97,
      "chip": "ym2612"
    },
    {
      "channel": 3,
      "note": 60,
      "start": 28.5347,
      "duration": 0.0859,
      "velocity": 106,
      "chip": "ym2612"
    },
    {
      "channel": 5,
      "note": 0,
      "start": 28.5393,
      "duration": 0.1981,
      "velocity": 112,
      "chip": "ym2612"
    },
    {
      "channel": 1,
      "note": 60,
      "start": 28.7365,
      "duration": 0.1038,
      "velocity": 97,
      "chip": "ym2612"
    },
    {
      "channel": 5,
      "note": 56,
      "start": 28.7412,
      "duration": 0.1982,
      "velocity": 112,
      "chip": "ym2612"
    },
    {
      "channel": 1,
      "note": 60,
      "start": 28.9383,
      "duration": 0.0964,
      "velocity": 97,
      "chip": "ym2612"
    },
    {
      "channel": 5,
      "note": 57,
      "start": 28.9432,
      "duration": 0.1923,
      "velocity": 126,
      "chip": "ym2612"
    },
    {
      "channel": 1,
      "note": 60,
      "start": 29.1334,
      "duration": 0.1046,
      "velocity": 97,
      "chip": "ym2612"
    },
    {
      "channel": 3,
      "note": 60,
      "start": 29.1347,
      "duration": 0.0891,
      "velocity": 106,
      "chip": "ym2612"
    },
    {
      "channel": 5,
      "note": 10,
      "start": 29.1393,
      "duration": 0.3934,
      "velocity": 112,
      "chip": "ym2612"
    },
    {
      "channel": 1,
      "note": 60,
      "start": 29.3365,
      "duration": 0.0964,
      "velocity": 97,
      "chip": "ym2612"
    },
    {
      "channel": 1,
      "note": 60,
      "start": 29.5315,
      "duration": 0.0964,
      "velocity": 97,
      "chip": "ym2612"
    },
    {
      "channel": 5,
      "note": 49,
      "start": 29.5365,
      "duration": 0.1921,
      "velocity": 112,
      "chip": "ym2612"
    },
    {
      "channel": 4,
      "note": 79,
      "start": 29.5419,
      "duration": 0.371,
      "velocity": 101,
      "chip": "ym2612"
    },
    {
      "channel": 1,
      "note": 60,
      "start": 29.7265,
      "duration": 0.1067,
      "velocity": 97,
      "chip": "ym2612"
    },
    {
      "channel": 3,
      "note": 60,
      "start": 29.7279,
      "duration": 0.0882,
      "velocity": 106,
      "chip": "ym2612"
    },
    {
      "channel": 5,
      "note": 57,
      "start": 29.7323,
      "duration": 0.3962,
      "velocity": 126,
      "chip": "ym2612"
    },
    {
      "channel": 1,
      "note": 60,
      "start": 29.9297,
      "duration": 0.0964,
      "velocity": 97,
      "chip": "ym2612"
    },
    {
      "channel": 4,
      "note": 77,
      "start": 29.9392,
      "duration": 0.1768,
      "velocity": 101,
      "chip": "ym2612"
    },
    {
      "channel": 0,
      "note": 60,
      "start": 30.1247,
      "duration": 0.5756,
      "velocity": 93,
      "chip": "ym2612"
    },
    {
      "channel": 1,
      "note": 60,
      "start": 30.1263,
      "duration": 0.103,
      "velocity": 97,
      "chip": "ym2612"
    },
    {
      "channel": 3,
      "note": 60,
      "start": 30.1279,
      "duration": 0.0853,
      "velocity": 106,
      "chip": "ym2612"
    },
    {
      "channel": 5,
      "note": 0,
      "start": 30.1327,
      "duration": 0.3913,
      "velocity": 112,
      "chip": "ym2612"
    },
    {
      "channel": 4,
      "note": 79,
      "start": 30.1417,
      "duration": 0.9656,
      "velocity": 101,
      "chip": "ym2612"
    },
    {
      "channel": 1,
      "note": 61,
      "start": 30.3278,
      "duration": 0.0976,
      "velocity": 97,
      "chip": "ym2612"
    },
    {
      "channel": 1,
      "note": 61,
      "start": 30.5228,
      "duration": 0.0965,
      "velocity": 97,
      "chip": "ym2612"
    },
    {
      "channel": 5,
      "note": 49,
      "start": 30.5276,
      "duration": 0.3872,
      "velocity": 126,
      "chip": "ym2612"
    },
    {
      "channel": 0,
      "note": 61,
      "start": 30.7177,
      "duration": 2.5585,
      "velocity": 93,
      "chip": "ym2612"
    },
    {
      "channel": 1,
      "note": 61,
      "start": 30.7192,
      "duration": 0.0952,
      "velocity": 97,
      "chip": "ym2612"
    },
    {
      "channel": 3,
      "note": 61,
      "start": 30.7206,
      "duration": 0.0778,
      "velocity": 106,
      "chip": "ym2612"
    },
    {
      "channel": 1,
      "note": 61,
      "start": 30.9138,
      "duration": 0.1037,
      "velocity": 97,
      "chip": "ym2612"
    },
    {
      "channel": 5,
      "note": 0,
      "start": 30.9187,
      "duration": 0.1985,
      "velocity": 112,
      "chip": "ym2612"
    },
    {
      "channel": 1,
      "note": 61,
      "start": 31.116,
      "duration": 0.0965,
      "velocity": 97,
      "chip": "ym2612"
    },
    {
      "channel": 5,
      "note": 57,
      "start": 31.121,
      "duration": 0.1921,
      "velocity": 112,
      "chip": "ym2612"
    },
    {
      "channel": 4,
      "note": 80,
      "start": 31.1265,
      "duration": 0.1759,
      "velocity": 101,
      "chip": "ym2612"
    },
    {
      "channel": 1,
      "note": 61,
      "start": 31.311,
      "duration": 0.1046,
      "velocity": 97,
      "chip": "ym2612"
    },
    {
      "channel": 3,
      "note": 61,
      "start": 31.3125,
      "duration": 0.0887,
      "velocity": 106,
      "chip": "ym2612"
    },
    {
      "channel": 5,
      "note": 57,
      "start": 31.3169,
      "duration": 0.3956,
      "velocity": 126,
      "chip": "ym2612"
    },
    {
      "channel": 4,
      "note": 84,
      "start": 31.3279,
      "duration": 0.1776,
      "velocity": 101,
      "chip": "ym2612"
    },
    {
      "channel": 1,
      "note": 61,
      "start": 31.5142,
      "duration": 0.0964,
      "velocity": 97,
      "chip": "ym2612"
    },
    {
      "channel": 4,
      "note": 92,
      "start": 31.5242,
      "duration": 0.5664,
      "velocity": 101,
      "chip": "ym2612"
    },
    {
      "channel": 1,
      "note": 61,
      "start": 31.7101,
      "duration": 0.1037,
      "velocity": 97,
      "chip": "ym2612"
    },
    {
      "channel": 3,
      "note": 61,
      "start": 31.7118,
      "duration": 0.0861,
      "velocity": 106,
      "chip": "ym2612"
    },
    {
      "channel": 5,
      "note": 0,
      "start": 31.7165,
      "duration": 0.1968,
      "velocity": 112,
      "chip": "ym2612"
    },
    {
      "channel": 1,
      "note": 61,
      "start": 31.9124,
      "duration": 0.098,
      "velocity": 97,
      "chip": "ym2612"
    },
    {
      "channel": 5,
      "note": 56,
      "start": 31.9171,
      "duration": 0.1914,
      "velocity": 112,
      "chip": "ym2612"
    },
    {
      "channel": 1,
      "note": 61,
      "start": 32.1073,
      "duration": 0.0965,
      "velocity": 97,
      "chip": "ym2612"
    },
    {
      "channel": 5,
      "note": 57,
      "start": 32.1122,
      "duration": 0.1923,
      "velocity": 126,
      "chip": "ym2612"
    },
    {
      "channel": 4,
      "note": 91,
      "start": 32.1176,
      "duration": 0.3711,
      "velocity": 101,
      "chip": "ym2612"
    },
    {
      "channel": 1,
      "note": 61,
      "start": 32.3024,
      "duration": 0.1046,
      "velocity": 97,
      "chip": "ym2612"
    },
    {
      "channel": 3,
      "note": 61,
      "start": 32.3038,
      "duration": 0.0872,
      "velocity": 106,
      "chip": "ym2612"
    },
    {
      "channel": 5,
      "note": 10,
      "start": 32.3083,
      "duration": 0.3934,
      "velocity": 112,
      "chip": "ym2612"
    },
    {
      "channel": 1,
      "note": 61,
      "start": 32.5056,
      "duration": 0.097,
      "velocity": 97,
      "chip": "ym2612"
    },
    {
      "channel": 4,
      "note": 89,
      "start": 32.5143,
      "duration": 0.3645,
      "velocity": 101,
      "chip": "ym2612"
    },
    {
      "channel": 1,
      "note": 61,
      "start": 32.7005,
      "duration": 0.0965,
      "velocity": 97,
      "chip": "ym2612"
    },
    {
      "channel": 5,
      "note": 49,
      "start": 32.7056,
      "duration": 0.1922,
      "velocity": 112,
      "chip": "ym2612"
    },
    {
      "channel": 1,
      "note": 61,
      "start": 32.8956,
      "duration": 0.1046,
      "velocity": 97,
      "chip": "ym2612"
    },
    {
      "channel": 3,
      "note": 61,
      "start": 32.897,
      "duration": 0.0891,
      "velocity": 106,
      "chip": "ym2612"
    },
    {
      "channel": 5,
      "note": 57,
      "start": 32.9015,
      "duration": 0.1981,
      "velocity": 112,
      "chip": "ym2612"
    },
    {
      "channel": 4,
      "note": 87,
      "start": 32.9124,
      "duration": 0.3646,
      "velocity": 101,
      "chip": "ym2612"
    },
    {
      "channel": 1,
      "note": 61,
      "start": 33.0988,
      "duration": 0.0964,
      "velocity": 97,
      "chip": "ym2612"
    },
    {
      "channel": 5,
      "note": 29,
      "start": 33.1034,
      "duration": 0.1942,
      "velocity": 112,
      "chip": "ym2612"
    },
    {
      "channel": 0,
      "note": 61,
      "start": 33.2938,
      "duration": 0.5756,
      "velocity": 93,
      "chip": "ym2612"
    },
    {
      "channel": 1,
      "note": 61,
      "start": 33.2954,
      "duration": 0.1029,
      "velocity": 97,
      "chip": "ym2612"
    },
    {
      "channel": 3,
      "note": 61,
      "start": 33.297,
      "duration": 0.0854,
      "velocity": 106,
      "chip": "ym2612"
    },
    {
      "channel": 5,
      "note": 30,
      "start": 33.3018,
      "duration": 0.3912,
      "velocity": 112,
      "chip": "ym2612"
    },
    {
      "channel": 4,
      "note": 85,
      "start": 33.3108,
      "duration": 0.1774,
      "velocity": 101,
      "chip": "ym2612"
    },
    {
      "channel": 1,
      "note": 60,
      "start": 33.4968,
      "duration": 0.0986,
      "velocity": 97,
      "chip": "ym2612"
    },
    {
      "channel": 4,
      "note": 84,
      "start": 33.5056,
      "duration": 0.1777,
      "velocity": 101,
      "chip": "ym2612"
    },
    {
      "channel": 1,
      "note": 60,
      "start": 33.6919,
      "duration": 0.0965,
      "velocity": 97,
      "chip": "ym2612"
    },
    {
      "channel": 5,
      "note": 49,
      "start": 33.6967,
      "duration": 0.3882,
      "velocity": 126,
      "chip": "ym2612"
    },
    {
      "channel": 4,
      "note": 85,
      "start": 33.7023,
      "duration": 0.1759,
      "velocity": 101,
      "chip": "ym2612"
    },
    {
      "channel": 0,
      "note": 60,
      "start": 33.8868,
      "duration": 2.5584,
      "velocity": 93,
      "chip": "ym2612"
    },
    {
      "channel": 1,
      "note": 60,
      "start": 33.8882,
      "duration": 0.0952,
      "velocity": 97,
      "chip": "ym2612"
    },
    {
      "channel": 3,
      "note": 60,
      "start": 33.8896,
      "duration": 0.0778,
      "velocity": 106,
      "chip": "ym2612"
    },
    {
      "channel": 4,
      "note": 84,
      "start": 33.8956,
      "duration": 0.1777,
      "velocity": 101,
      "chip": "ym2612"
    },
    {
      "channel": 1,
      "note": 60,
      "start": 34.084,
      "duration": 0.1037,
      "velocity": 97,
      "chip": "ym2612"
    },
    {
      "channel": 5,
      "note": 0,
      "start": 34.0887,
      "duration": 0.1975,
      "velocity": 112,
      "chip": "ym2612"
    },
    {
      "channel": 4,
      "note": 79,
      "start": 34.0989,
      "duration": 0.3644,
      "velocity": 101,
      "chip": "ym2612"
    },
    {
      "channel": 1,
      "note": 60,
      "start": 34.2851,
      "duration": 0.0965,
      "velocity": 97,
      "chip": "ym2612"
    },
    {
      "channel": 5,
      "note": 57,
      "start": 34.29,
      "duration": 0.1922,
      "velocity": 112,
      "chip": "ym2612"
    },
    {
      "channel": 1,
      "note": 60,
      "start": 34.4801,
      "duration": 0.1046,
      "velocity": 97,
      "chip": "ym2612"
    },
    {
      "channel": 3,
      "note": 60,
      "start": 34.4816,
      "duration": 0.0896,
      "velocity": 106,
      "chip": "ym2612"
    },
    {
      "channel": 5,
      "note": 57,
      "start": 34.486,
      "duration": 0.3955,
      "velocity": 126,
      "chip": "ym2612"
    },
    {
      "channel": 4,
      "note": 82,
      "start": 34.497,
      "duration": 0.1786,
      "velocity": 101,
      "chip": "ym2612"
    },
    {
      "channel": 1,
      "note": 60,
      "start": 34.6832,
      "duration": 0.0966,
      "velocity": 97,
      "chip": "ym2612"
    },
    {
      "channel": 4,
      "note": 80,
      "start": 34.6942,
      "duration": 1.1668,
      "velocity": 101,
      "chip": "ym2612"
    },
    {
      "channel": 1,
      "note": 60,
      "start": 34.8792,
      "duration": 0.1036,
      "velocity": 97,
      "chip": "ym2612"
    },
    {
      "channel": 3,
      "note": 60,
      "start": 34.8809,
      "duration": 0.086,
      "velocity": 106,
      "chip": "ym2612"
    },
    {
      "channel": 5,
      "note": 0,
      "start": 34.8855,
      "duration": 0.1969,
      "velocity": 112,
      "chip": "ym2612"
    },
    {
      "channel": 1,
      "note": 60,
      "start": 35.0815,
      "duration": 0.0964,
      "velocity": 97,
      "chip": "ym2612"
    },
    {
      "channel": 5,
      "note": 56,
      "start": 35.0862,
      "duration": 0.1913,
      "velocity": 112,
      "chip": "ym2612"
    },
    {
      "channel": 1,
      "note": 60,
      "start": 35.2764,
      "duration": 0.0965,
      "velocity": 97,
      "chip": "ym2612"
    },
    {
      "channel": 5,
      "note": 57,
      "start": 35.2813,
      "duration": 0.1922,
      "velocity": 126,
      "chip": "ym2612"
    },
    {
      "channel": 1,
      "note": 60,
      "start": 35.4715,
      "duration": 0.1046,
      "velocity": 97,
      "chip": "ym2612"
    },
    {
      "channel": 3,
      "note": 60,
      "start": 35.4729,
      "duration": 0.0871,
      "velocity": 106,
      "chip": "ym2612"
    },
    {
      "channel": 5,
      "note": 10,
      "start": 35.4774,
      "duration": 0.3934,
      "velocity": 112,
      "chip": "ym2612"
    },
    {
      "channel": 1,
      "note": 60,
      "start": 35.6746,
      "duration": 0.098,
      "velocity": 97,
      "chip": "ym2612"
    },
    {
      "channel": 1,
      "note": 60,
      "start": 35.8696,
      "duration": 0.0964,
      "velocity": 97,
      "chip": "ym2612"
    },
    {
      "channel": 5,
      "note": 49,
      "start": 35.8746,
      "duration": 0.1922,
      "velocity": 112,
      "chip": "ym2612"
    },
    {
      "channel": 4,
      "note": 79,
      "start": 35.8799,
      "duration": 0.1761,
      "velocity": 101,
      "chip": "ym2612"
    },
    {
      "channel": 1,
      "note": 60,
      "start": 36.0646,
      "duration": 0.1046,
      "velocity": 97,
      "chip": "ym2612"
    },
    {
      "channel": 3,
      "note": 60,
      "start": 36.0661,
      "duration": 0.0871,
      "velocity": 106,
      "chip": "ym2612"
    },
    {
      "channel": 5,
      "note": 57,
      "start": 36.0704,
      "duration": 0.3963,
      "velocity": 126,
      "chip": "ym2612"
    },
    {
      "channel": 4,
      "note": 77,
      "start": 36.0815,
      "duration": 0.179,
      "velocity": 101,
      "chip": "ym2612"
    },
    {
      "channel": 1,
      "note": 60,
      "start": 36.2678,
      "duration": 0.0971,
      "velocity": 97,
      "chip": "ym2612"
    },
    {
      "channel": 4,
      "note": 79,
      "start": 36.2766,
      "duration": 1.1608,
      "velocity": 101,
      "chip": "ym2612"
    },
    {
      "channel": 0,
      "note": 60,
      "start": 36.4628,
      "duration": 0.5756,
      "velocity": 93,
      "chip": "ym2612"
    },
    {
      "channel": 1,
      "note": 60,
      "start": 36.4645,
      "duration": 0.1029,
      "velocity": 97,
      "chip": "ym2612"
    },
    {
      "channel": 3,
      "note": 60,
      "start": 36.4661,
      "duration": 0.0853,
      "velocity": 106,
      "chip": "ym2612"
    },
    {
      "channel": 5,
      "note": 0,
      "start": 36.4707,
      "duration": 0.3914,
      "velocity": 112,
      "chip": "ym2612"
    },
    {
      "channel": 1,
      "note": 61,
      "start": 36.6659,
      "duration": 0.0965,
      "velocity": 97,
      "chip": "ym2612"
    },
    {
      "channel": 1,
      "note": 61,
      "start": 36.861,
      "duration": 0.0964,
      "velocity": 97,
      "chip": "ym2612"
    },
    {
      "channel": 5,
      "note": 49,
      "start": 36.8658,
      "duration": 0.3861,
      "velocity": 126,
      "chip": "ym2612"
    },
    {
      "channel": 0,
      "note": 61,
      "start": 37.0559,
      "duration": 2.5584,
      "velocity": 93,
      "chip": "ym2612"
    },
    {
      "channel": 1,
      "note": 61,
      "start": 37.0573,
      "duration": 0.0951,
      "velocity": 97,
      "chip": "ym2612"
    },
    {
      "channel": 3,
      "note": 61,
      "start": 37.0587,
      "duration": 0.0777,
      "velocity": 106,
      "chip": "ym2612"
    },
    {
      "channel": 1,
      "note": 61,
      "start": 37.251,
      "duration": 0.0965,
      "velocity": 97,
      "chip": "ym2612"
    },
    {
      "channel": 5,
      "note": 0,
      "start": 37.2557,
      "duration": 0.1914,
      "velocity": 112,
      "chip": "ym2612"
    },
    {
      "channel": 1,
      "note": 61,
      "start": 37.446,
      "duration": 0.0964,
      "velocity": 97,
      "chip": "ym2612"
    },
    {
      "channel": 5,
      "note": 56,
      "start": 37.451,
      "duration": 0.1921,
      "velocity": 112,
      "chip": "ym2612"
    },
    {
      "channel": 4,
      "note": 80,
      "start": 37.4547,
      "duration": 0.1777,
      "velocity": 101,
      "chip": "ym2612"
    },
    {
      "channel": 1,
      "note": 61,
      "start": 37.641,
      "duration": 0.1046,
      "velocity": 97,
      "chip": "ym2612"
    },
    {
      "channel": 3,
      "note": 61,
      "start": 37.6424,
      "duration": 0.0872,
      "velocity": 106,
      "chip": "ym2612"
    },
    {
      "channel": 5,
      "note": 57,
      "start": 37.6468,
      "duration": 0.3956,
      "velocity": 126,
      "chip": "ym2612"
    },
    {
      "channel": 4,
      "note": 79,
      "start": 37.6579,
      "duration": 0.1776,
      "velocity": 101,
      "chip": "ym2612"
    },
    {
      "channel": 1,
      "note": 61,
      "start": 37.8461,
      "duration": 0.0945,
      "velocity": 97,
      "chip": "ym2612"
    },
    {
      "channel": 4,
      "note": 80,
      "start": 37.8529,
      "duration": 0.5676,
      "velocity": 101,
      "chip": "ym2612"
    },
    {
      "channel": 1,
      "note": 61,
      "start": 38.0402,
      "duration": 0.1036,
      "velocity": 97,
      "chip": "ym2612"
    },
    {
      "channel": 3,
      "note": 61,
      "start": 38.0417,
      "duration": 0.0861,
      "velocity": 106,
      "chip": "ym2612"
    },
    {
      "channel": 5,
      "note": 0,
      "start": 38.0464,
      "duration": 0.1968,
      "velocity": 112,
      "chip": "ym2612"
    },
    {
      "channel": 1,
      "note": 61,
      "start": 38.2423,
      "duration": 0.0964,
      "velocity": 97,
      "chip": "ym2612"
    },
    {
      "channel": 5,
      "note": 57,
      "start": 38.247,
      "duration": 0.1924,
      "velocity": 112,
      "chip": "ym2612"
    },
    {
      "channel": 1,
      "note": 61,
      "start": 38.4383,
      "duration": 0.1037,
      "velocity": 97,
      "chip": "ym2612"
    },
    {
      "channel": 5,
      "note": 56,
      "start": 38.4432,
      "duration": 0.1994,
      "velocity": 126,
      "chip": "ym2612"
    },
    {
      "channel": 4,
      "note": 82,
      "start": 38.4564,
      "duration": 0.3704,
      "velocity": 101,
      "chip": "ym2612"
    },
    {
      "channel": 1,
      "note": 61,
      "start": 38.6405,
      "duration": 0.1046,
      "velocity": 97,
      "chip": "ym2612"
    },
    {
      "channel": 3,
      "note": 61,
      "start": 38.6419,
      "duration": 0.0872,
      "velocity": 106,
      "chip": "ym2612"
    },
    {
      "channel": 5,
      "note": 10,
      "start": 38.6464,
      "duration": 0.3934,
      "velocity": 112,
      "chip": "ym2612"
    },
    {
      "channel": 1,
      "note": 61,
      "start": 38.8436,
      "duration": 0.0965,
      "velocity": 97,
      "chip": "ym2612"
    },
    {
      "channel": 4,
      "note": 80,
      "start": 38.8523,
      "duration": 0.3646,
      "velocity": 101,
      "chip": "ym2612"
    },
    {
      "channel": 1,
      "note": 61,
      "start": 39.0386,
      "duration": 0.0965,
      "velocity": 97,
      "chip": "ym2612"
    },
    {
      "channel": 5,
      "note": 49,
      "start": 39.0436,
      "duration": 0.1922,
      "velocity": 112,
      "chip": "ym2612"
    },
    {
      "channel": 1,
      "note": 61,
      "start": 39.2337,
      "duration": 0.1046,
      "velocity": 97,
      "chip": "ym2612"
    },
    {
      "channel": 3,
      "note": 61,
      "start": 39.2351,
      "duration": 0.0872,
      "velocity": 106,
      "chip": "ym2612"
    },
    {
      "channel": 5,
      "note": 57,
      "start": 39.2396,
      "duration": 0.1981,
      "velocity": 112,
      "chip": "ym2612"
    },
    {
      "channel": 4,
      "note": 79,
      "start": 39.2505,
      "duration": 0.3646,
      "velocity": 101,
      "chip": "ym2612"
    },
    {
      "channel": 1,
      "note": 61,
      "start": 39.4368,
      "duration": 0.098,
      "velocity": 97,
      "chip": "ym2612"
    },
    {
      "channel": 5,
      "note": 29,
      "start": 39.4416,
      "duration": 0.1942,
      "velocity": 112,
      "chip": "ym2612"
    },
    {
      "channel": 0,
      "note": 61,
      "start": 39.632,
      "duration": 0.5755,
      "velocity": 93,
      "chip": "ym2612"
    },
    {
      "channel": 1,
      "note": 61,
      "start": 39.6335,
      "duration": 0.1029,
      "velocity": 97,
      "chip": "ym2612"
    },
    {
      "channel": 3,
      "note": 61,
      "start": 39.6351,
      "duration": 0.0853,
      "velocity": 106,
      "chip": "ym2612"
    },
    {
      "channel": 5,
      "note": 30,
      "start": 39.6398,
      "duration": 0.0975,
      "velocity": 126,
      "chip": "ym2612"
    },
    {
      "channel": 4,
      "note": 85,
      "start": 39.6489,
      "duration": 0.0799,
      "velocity": 101,
      "chip": "ym2612"
    },
    {
      "channel": 5,
      "note": 18,
      "start": 39.741,
      "duration": 0.0949,
      "velocity": 126,
      "chip": "ym2612"
    },
    {
      "channel": 4,
      "note": 79,
      "start": 39.7462,
      "duration": 0.0802,
      "velocity": 101,
      "chip": "ym2612"
    },
    {
      "channel": 1,
      "note": 60,
      "start": 39.8349,
      "duration": 0.0965,
      "velocity": 97,
      "chip": "ym2612"
    },
    {
      "channel": 5,
      "note": 18,
      "start": 39.8396,
      "duration": 0.0927,
      "velocity": 126,
      "chip": "ym2612"
    },
    {
      "channel": 4,
      "note": 82,
      "start": 39.8438,
      "duration": 0.0801,
      "velocity": 101,
      "chip": "ym2612"
    },
    {
      "channel": 5,
      "note": 19,
      "start": 39.936,
      "duration": 0.0951,
      "velocity": 126,
      "chip": "ym2612"
    },
    {
      "channel": 4,
      "note": 84,
      "start": 39.9412,
      "duration": 0.0815,
      "velocity": 101,
      "chip": "ym2612"
    },
    {
      "channel": 1,
      "note": 60,
      "start": 40.03,
      "duration": 0.0969,
      "velocity": 97,
      "chip": "ym2612"
    },
    {
      "channel": 5,
      "note": 18,
      "start": 40.0349,
      "duration": 0.3861,
      "velocity": 126,
      "chip": "ym2612"
    },
    {
      "channel": 4,
      "note": 79,
      "start": 40.0388,
      "duration": 0.0801,
      "velocity": 101,
      "chip": "ym2612"
    },
    {
      "channel": 4,
      "note": 82,
      "start": 40.1363,
      "duration": 0.0801,
      "velocity": 101,
      "chip": "ym2612"
    },
    {
      "channel": 0,
      "note": 60,
      "start": 40.2249,
      "duration": 2.5584,
      "velocity": 93,
      "chip": "ym2612"
    },
    {
      "channel": 1,
      "note": 60,
      "start": 40.2263,
      "duration": 0.0952,
      "velocity": 97,
      "chip": "ym2612"
    },
    {
      "channel": 3,
      "note": 60,
      "start": 40.2278,
      "duration": 0.0777,
      "velocity": 106,
      "chip": "ym2612"
    },
    {
      "channel": 4,
      "note": 84,
      "start": 40.2337,
      "duration": 0.0801,
      "velocity": 101,
      "chip": "ym2612"
    },
    {
      "channel": 4,
      "note": 79,
      "start": 40.3313,
      "duration": 0.0801,
      "velocity": 101,
      "chip": "ym2612"
    },
    {
      "channel": 1,
      "note": 60,
      "start": 40.42,
      "duration": 0.0965,
      "velocity": 97,
      "chip": "ym2612"
    },
    {
      "channel": 5,
      "note": 0,
      "start": 40.4248,
      "duration": 0.1919,
      "velocity": 112,
      "chip": "ym2612"
    },
    {
      "channel": 4,
      "note": 82,
      "start": 40.4302,
      "duration": 0.0805,
      "velocity": 101,
      "chip": "ym2612"
    },
    {
      "channel": 4,
      "note": 84,
      "start": 40.5262,
      "duration": 0.0802,
      "velocity": 101,
      "chip": "ym2612"
    },
    {
      "channel": 1,
      "note": 60,
      "start": 40.6155,
      "duration": 0.0961,
      "velocity": 97,
      "chip": "ym2612"
    },
    {
      "channel": 5,
      "note": 56,
      "start": 40.6204,
      "duration": 0.1917,
      "velocity": 112,
      "chip": "ym2612"
    },
    {
      "channel": 4,
      "note": 79,
      "start": 40.6238,
      "duration": 0.0802,
      "velocity": 101,
      "chip": "ym2612"
    },
    {
      "channel": 4,
      "note": 82,
      "start": 40.7213,
      "duration": 0.0801,
      "velocity": 101,
      "chip": "ym2612"
    },
    {
      "channel": 1,
      "note": 60,
      "start": 40.8101,
      "duration": 0.1046,
      "velocity": 97,
      "chip": "ym2612"
    },
    {
      "channel": 3,
      "note": 60,
      "start": 40.8115,
      "duration": 0.0871,
      "velocity": 106,
      "chip": "ym2612"
    },
    {
      "channel": 5,
      "note": 57,
      "start": 40.8159,
      "duration": 0.3955,
      "velocity": 126,
      "chip": "ym2612"
    },
    {
      "channel": 4,
      "note": 84,
      "start": 40.8269,
      "duration": 0.0802,
      "velocity": 101,
      "chip": "ym2612"
    },
    {
      "channel": 4,
      "note": 79,
      "start": 40.9244,
      "duration": 0.0802,
      "velocity": 101,
      "chip": "ym2612"
    },
    {
      "channel": 1,
      "note": 60,
      "start": 41.0132,
      "duration": 0.0965,
      "velocity": 97,
      "chip": "ym2612"
    },
    {
      "channel": 4,
      "note": 82,
      "start": 41.022,
      "duration": 0.0809,
      "velocity": 101,
      "chip": "ym2612"
    },
    {
      "channel": 1,
      "note": 60,
      "start": 41.2092,
      "duration": 0.1036,
      "velocity": 97,
      "chip": "ym2612"
    },
    {
      "channel": 3,
      "note": 60,
      "start": 41.2108,
      "duration": 0.0861,
      "velocity": 106,
      "chip": "ym2612"
    },
    {
      "channel": 5,
      "note": 0,
      "start": 41.2155,
      "duration": 0.1968,
      "velocity": 112,
      "chip": "ym2612"
    },
    {
      "channel": 4,
      "note": 84,
      "start": 41.2259,
      "duration": 0.0793,
      "velocity": 101,
      "chip": "ym2612"
    },
    {
      "channel": 4,
      "note": 79,
      "start": 41.3226,
      "duration": 0.0801,
      "velocity": 101,
      "chip": "ym2612"
    },
    {
      "channel": 1,
      "note": 60,
      "start": 41.4113,
      "duration": 0.0965,
      "velocity": 97,
      "chip": "ym2612"
    },
    {
      "channel": 5,
      "note": 57,
      "start": 41.4161,
      "duration": 0.0927,
      "velocity": 126,
      "chip": "ym2612"
    },
    {
      "channel": 4,
      "note": 82,
      "start": 41.4214,
      "duration": 0.0789,
      "velocity": 101,
      "chip": "ym2612"
    },
    {
      "channel": 5,
      "note": 18,
      "start": 41.5125,
      "duration": 0.1912,
      "velocity": 112,
      "chip": "ym2612"
    },
    {
      "channel": 4,
      "note": 84,
      "start": 41.5176,
      "duration": 0.0802,
      "velocity": 101,
      "chip": "ym2612"
    },
    {
      "channel": 1,
      "note": 60,
      "start": 41.6083,
      "duration": 0.0945,
      "velocity": 97,
      "chip": "ym2612"
    },
    {
      "channel": 4,
      "note": 79,
      "start": 41.6152,
      "duration": 0.08,
      "velocity": 101,
      "chip": "ym2612"
    },
    {
      "channel": 5,
      "note": 57,
      "start": 41.7075,
      "duration": 0.0961,
      "velocity": 126,
      "chip": "ym2612"
    },
    {
      "channel": 4,
      "note": 82,
      "start": 41.7134,
      "duration": 0.0793,
      "velocity": 101,
      "chip": "ym2612"
    },
    {
      "channel": 1,
      "note": 60,
      "start": 41.8014,
      "duration": 0.1046,
      "velocity": 97,
      "chip": "ym2612"
    },
    {
      "channel": 3,
      "note": 60,
      "start": 41.8029,
      "duration": 0.0871,
      "velocity": 106,
      "chip": "ym2612"
    },
    {
      "channel": 5,
      "note": 18,
      "start": 41.8073,
      "duration": 0.1982,
      "velocity": 112,
      "chip": "ym2612"
    },
    {
      "channel": 4,
      "note": 84,
      "start": 41.8183,
      "duration": 0.0802,
      "velocity": 101,
      "chip": "ym2612"
    },
    {
      "channel": 4,
      "note": 79,
      "start": 41.9159,
      "duration": 0.0801,
      "velocity": 101,
      "chip": "ym2612"
    },
    {
      "channel": 1,
      "note": 60,
      "start": 42.0045,
      "duration": 0.0965,
      "velocity": 97,
      "chip": "ym2612"
    },
    {
      "channel": 5,
      "note": 57,
      "start": 42.0093,
      "duration": 0.1924,
      "velocity": 112,
      "chip": "ym2612"
    },
    {
      "channel": 4,
      "note": 82,
      "start": 42.0148,
      "duration": 0.081,
      "velocity": 101,
      "chip": "ym2612"
    },
    {
      "channel": 4,
      "note": 84,
      "start": 42.1108,
      "duration": 0.0802,
      "velocity": 101,
      "chip": "ym2612"
    },
    {
      "channel": 1,
      "note": 60,
      "start": 42.2005,
      "duration": 0.1038,
      "velocity": 97,
      "chip": "ym2612"
    },
    {
      "channel": 5,
      "note": 56,
      "start": 42.2055,
      "duration": 0.1994,
      "velocity": 112,
      "chip": "ym2612"
    },
    {
      "channel": 4,
      "note": 79,
      "start": 42.2187,
      "duration": 0.0779,
      "velocity": 101,
      "chip": "ym2612"
    },
    {
      "channel": 4,
      "note": 82,
      "start": 42.314,
      "duration": 0.0801,
      "velocity": 101,
      "chip": "ym2612"
    },
    {
      "channel": 1,
      "note": 60,
      "start": 42.4027,
      "duration": 0.1046,
      "velocity": 97,
      "chip": "ym2612"
    },
    {
      "channel": 3,
      "note": 60,
      "start": 42.4041,
      "duration": 0.0871,
      "velocity": 106,
      "chip": "ym2612"
    },
    {
      "channel": 5,
      "note": 57,
      "start": 42.4085,
      "duration": 0.1982,
      "velocity": 126,
      "chip": "ym2612"
    },
    {
      "channel": 4,
      "note": 84,
      "start": 42.4195,
      "duration": 0.0802,
      "velocity": 101,
      "chip": "ym2612"
    },
    {
      "channel": 4,
      "note": 79,
      "start": 42.5171,
      "duration": 0.0801,
      "velocity": 101,
      "chip": "ym2612"
    },
    {
      "channel": 1,
      "note": 60,
      "start": 42.6059,
      "duration": 0.0964,
      "velocity": 97,
      "chip": "ym2612"
    },
    {
      "channel": 5,
      "note": 7,
      "start": 42.6106,
      "duration": 0.0926,
      "velocity": 112,
      "chip": "ym2612"
    },
    {
      "channel": 4,
      "note": 82,
      "start": 42.6147,
      "duration": 0.08,
      "velocity": 101,
      "chip": "ym2612"
    },
    {
      "channel": 5,
      "note": 60,
      "start": 42.707,
      "duration": 0.0978,
      "velocity": 112,
      "chip": "ym2612"
    },
    {
      "channel": 0,
      "note": 60,
      "start": 42.8009,
      "duration": 0.5756,
      "velocity": 93,
      "chip": "ym2612"
    },
    {
      "channel": 1,
      "note": 60,
      "start": 42.8025,
      "duration": 0.103,
      "velocity": 97,
      "chip": "ym2612"
    },
    {
      "channel": 3,
      "note": 60,
      "start": 42.8041,
      "duration": 0.0853,
      "velocity": 106,
      "chip": "ym2612"
    },
    {
      "channel": 5,
      "note": 59,
      "start": 42.8087,
      "duration": 0.0977,
      "velocity": 126,
      "chip": "ym2612"
    },
    {
      "channel": 4,
      "note": 84,
      "start": 42.818,
      "duration": 0.08,
      "velocity": 101,
      "chip": "ym2612"
    },
    {
      "channel": 5,
      "note": 18,
      "start": 42.9101,
      "duration": 0.0949,
      "velocity": 126,
      "chip": "ym2612"
    },
    {
      "channel": 4,
      "note": 80,
      "start": 42.9154,
      "duration": 0.0801,
      "velocity": 101,
      "chip": "ym2612"
    },
    {
      "channel": 1,
      "note": 61,
      "start": 43.004,
      "duration": 0.0964,
      "velocity": 97,
      "chip": "ym2612"
    },
    {
      "channel": 5,
      "note": 18,
      "start": 43.0087,
      "duration": 0.0927,
      "velocity": 126,
      "chip": "ym2612"
    },
    {
      "channel": 4,
      "note": 84,
      "start": 43.0128,
      "duration": 0.0801,
      "velocity": 101,
      "chip": "ym2612"
    },
    {
      "channel": 5,
      "note": 19,
      "start": 43.1051,
      "duration": 0.0951,
      "velocity": 126,
      "chip": "ym2612"
    },
    {
      "channel": 4,
      "note": 85,
      "start": 43.1103,
      "duration": 0.0801,
      "velocity": 101,
      "chip": "ym2612"
    },
    {
      "channel": 1,
      "note": 61,
      "start": 43.199,
      "duration": 0.098,
      "velocity": 97,
      "chip": "ym2612"
    },
    {
      "channel": 5,
      "note": 18,
      "start": 43.2038,
      "duration": 0.3861,
      "velocity": 126,
      "chip": "ym2612"
    },
    {
      "channel": 4,
      "note": 80,
      "start": 43.2078,
      "duration": 0.0801,
      "velocity": 101,
      "chip": "ym2612"
    },
    {
      "channel": 4,
      "note": 84,
      "start": 43.3053,
      "duration": 0.0801,
      "velocity": 101,
      "chip": "ym2612"
    },
    {
      "channel": 0,
      "note": 61,
      "start": 43.394,
      "duration": 2.5584,
      "velocity": 93,
      "chip": "ym2612"
    },
    {
      "channel": 1,
      "note": 61,
      "start": 43.3954,
      "duration": 0.0952,
      "velocity": 97,
      "chip": "ym2612"
    },
    {
      "channel": 3,
      "note": 61,
      "start": 43.3968,
      "duration": 0.0778,
      "velocity": 106,
      "chip": "ym2612"
    },
    {
      "channel": 4,
      "note": 85,
      "start": 43.403,
      "duration": 0.08,
      "velocity": 101,
      "chip": "ym2612"
    },
    {
      "channel": 4,
      "note": 80,
      "start": 43.5003,
      "duration": 0.0801,
      "velocity": 101,
      "chip": "ym2612"
    },
    {
      "channel": 1,
      "note": 61,
      "start": 43.5891,
      "duration": 0.0964,
      "velocity": 97,
      "chip": "ym2612"
    },
    {
      "channel": 5,
      "note": 0,
      "start": 43.5938,
      "duration": 0.1928,
      "velocity": 112,
      "chip": "ym2612"
    },
    {
      "channel": 4,
      "note": 84,
      "start": 43.5993,
      "duration": 0.0786,
      "velocity": 101,
      "chip": "ym2612"
    },
    {
      "channel": 4,
      "note": 85,
      "start": 43.6954,
      "duration": 0.0801,
      "velocity": 101,
      "chip": "ym2612"
    },
    {
      "channel": 1,
      "note": 61,
      "start": 43.7854,
      "duration": 0.1037,
      "velocity": 97,
      "chip": "ym2612"
    },
    {
      "channel": 5,
      "note": 56,
      "start": 43.7904,
      "duration": 0.1989,
      "velocity": 112,
      "chip": "ym2612"
    },
    {
      "channel": 4,
      "note": 80,
      "start": 43.801,
      "duration": 0.0802,
      "velocity": 101,
      "chip": "ym2612"
    },
    {
      "channel": 4,
      "note": 84,
      "start": 43.8985,
      "duration": 0.0801,
      "velocity": 101,
      "chip": "ym2612"
    },
    {
      "channel": 1,
      "note": 61,
      "start": 43.9872,
      "duration": 0.1046,
      "velocity": 97,
      "chip": "ym2612"
    },
    {
      "channel": 3,
      "note": 61,
      "start": 43.9887,
      "duration": 0.0872,
      "velocity": 106,
      "chip": "ym2612"
    },
    {
      "channel": 5,
      "note": 57,
      "start": 43.993,
      "duration": 0.3956,
      "velocity": 126,
      "chip": "ym2612"
    },
    {
      "channel": 4,
      "note": 85,
      "start": 44.0041,
      "duration": 0.0801,
      "velocity": 101,
      "chip": "ym2612"
    },
    {
      "channel": 4,
      "note": 80,
      "start": 44.1017,
      "duration": 0.0801,
      "velocity": 101,
      "chip": "ym2612"
    },
    {
      "channel": 1,
      "note": 61,
      "start": 44.1904,
      "duration": 0.0964,
      "velocity": 97,
      "chip": "ym2612"
    },
    {
      "channel": 4,
      "note": 84,
      "start": 44.1993,
      "duration": 0.08,
      "velocity": 101,
      "chip": "ym2612"
    },
    {
      "channel": 1,
      "note": 61,
      "start": 44.3863,
      "duration": 0.1037,
      "velocity": 97,
      "chip": "ym2612"
    },
    {
      "channel": 3,
      "note": 61,
      "start": 44.388,
      "duration": 0.086,
      "velocity": 106,
      "chip": "ym2612"
    },
    {
      "channel": 5,
      "note": 0,
      "start": 44.3926,
      "duration": 0.1968,
      "velocity": 112,
      "chip": "ym2612"
    },
    {
      "channel": 4,
      "note": 85,
      "start": 44.4025,
      "duration": 0.0799,
      "velocity": 101,
      "chip": "ym2612"
    },
    {
      "channel": 4,
      "note": 80,
      "start": 44.5004,
      "duration": 0.0795,
      "velocity": 101,
      "chip": "ym2612"
    },
    {
      "channel": 1,
      "note": 61,
      "start": 44.5886,
      "duration": 0.0964,
      "velocity": 97,
      "chip": "ym2612"
    },
    {
      "channel": 5,
      "note": 56,
      "start": 44.5932,
      "duration": 0.0927,
      "velocity": 126,
      "chip": "ym2612"
    },
    {
      "channel": 4,
      "note": 84,
      "start": 44.5973,
      "duration": 0.0801,
      "velocity": 101,
      "chip": "ym2612"
    },
    {
      "channel": 5,
      "note": 19,
      "start": 44.6897,
      "duration": 0.1933,
      "velocity": 112,
      "chip": "ym2612"
    },
    {
      "channel": 4,
      "note": 85,
      "start": 44.6949,
      "duration": 0.0801,
      "velocity": 101,
      "chip": "ym2612"
    },
    {
      "channel": 1,
      "note": 61,
      "start": 44.7835,
      "duration": 0.0985,
      "velocity": 97,
      "chip": "ym2612"
    },
    {
      "channel": 4,
      "note": 80,
      "start": 44.7923,
      "duration": 0.0802,
      "velocity": 101,
      "chip": "ym2612"
    },
    {
      "channel": 5,
      "note": 56,
      "start": 44.8867,
      "duration": 0.094,
      "velocity": 126,
      "chip": "ym2612"
    },
    {
      "channel": 4,
      "note": 84,
      "start": 44.8898,
      "duration": 0.0802,
      "velocity": 101,
      "chip": "ym2612"
    },
    {
      "channel": 1,
      "note": 61,
      "start": 44.9786,
      "duration": 0.1046,
      "velocity": 97,
      "chip": "ym2612"
    },
    {
      "channel": 3,
      "note": 61,
      "start": 44.98,
      "duration": 0.0871,
      "velocity": 106,
      "chip": "ym2612"
    },
    {
      "channel": 5,
      "note": 19,
      "start": 44.9846,
      "duration": 0.1982,
      "velocity": 112,
      "chip": "ym2612"
    },
    {
      "channel": 4,
      "note": 85,
      "start": 44.9955,
      "duration": 0.0801,
      "velocity": 101,
      "chip": "ym2612"
    },
    {
      "channel": 4,
      "note": 80,
      "start": 45.0929,
      "duration": 0.0802,
      "velocity": 101,
      "chip": "ym2612"
    },
    {
      "channel": 1,
      "note": 61,
      "start": 45.1818,
      "duration": 0.0964,
      "velocity": 97,
      "chip": "ym2612"
    },
    {
      "channel": 5,
      "note": 56,
      "start": 45.1865,
      "duration": 0.1913,
      "velocity": 112,
      "chip": "ym2612"
    },
    {
      "channel": 4,
      "note": 84,
      "start": 45.1905,
      "duration": 0.0801,
      "velocity": 101,
      "chip": "ym2612"
    },
    {
      "channel": 4,
      "note": 85,
      "start": 45.288,
      "duration": 0.082,
      "velocity": 101,
      "chip": "ym2612"
    },
    {
      "channel": 1,
      "note": 61,
      "start": 45.3767,
      "duration": 0.0975,
      "velocity": 97,
      "chip": "ym2612"
    },
    {
      "channel": 5,
      "note": 57,
      "start": 45.3818,
      "duration": 0.1921,
      "velocity": 112,
      "chip": "ym2612"
    },
    {
      "channel": 4,
      "note": 80,
      "start": 45.3855,
      "duration": 0.0802,
      "velocity": 101,
      "chip": "ym2612"
    },
    {
      "channel": 4,
      "note": 84,
      "start": 45.483,
      "duration": 0.0801,
      "velocity": 101,
      "chip": "ym2612"
    },
    {
      "channel": 1,
      "note": 61,
      "start": 45.5718,
      "duration": 0.1046,
      "velocity": 97,
      "chip": "ym2612"
    },
    {
      "channel": 3,
      "note": 61,
      "start": 45.5732,
      "duration": 0.0872,
      "velocity": 106,
      "chip": "ym2612"
    },
    {
      "channel": 5,
      "note": 57,
      "start": 45.5776,
      "duration": 0.1983,
      "velocity": 126,
      "chip": "ym2612"
    },
    {
      "channel": 4,
      "note": 85,
      "start": 45.5886,
      "duration": 0.0801,
      "velocity": 101,
      "chip": "ym2612"
    },
    {
      "channel": 4,
      "note": 80,
      "start": 45.6861,
      "duration": 0.0802,
      "velocity": 101,
      "chip": "ym2612"
    },
    {
      "channel": 1,
      "note": 61,
      "start": 45.7749,
      "duration": 0.0965,
      "velocity": 97,
      "chip": "ym2612"
    },
    {
      "channel": 5,
      "note": 7,
      "start": 45.7797,
      "duration": 0.1941,
      "velocity": 112,
      "chip": "ym2612"
    },
    {
      "channel": 4,
      "note": 84,
      "start": 45.7837,
      "duration": 0.0802,
      "velocity": 101,
      "chip": "ym2612"
    },
    {
      "channel": 0,
      "note": 61,
      "start": 45.97,
      "duration": 0.5756,
      "velocity": 93,
      "chip": "ym2612"
    },
    {
      "channel": 1,
      "note": 61,
      "start": 45.9716,
      "duration": 0.1029,
      "velocity": 97,
      "chip": "ym2612"
    },
    {
      "channel": 3,
      "note": 61,
      "start": 45.9732,
      "duration": 0.0854,
      "velocity": 106,
      "chip": "ym2612"
    },
    {
      "channel": 5,
      "note": 57,
      "start": 45.9777,
      "duration": 0.0978,
      "velocity": 126,
      "chip": "ym2612"
    },
    {
      "channel": 4,
      "note": 85,
      "start": 45.987,
      "duration": 0.0801,
      "velocity": 101,
      "chip": "ym2612"
    },
    {
      "channel": 5,
      "note": 18,
      "start": 46.0792,
      "duration": 0.0948,
      "velocity": 126,
      "chip": "ym2612"
    },
    {
      "channel": 4,
      "note": 79,
      "start": 46.0853,
      "duration": 0.0793,
      "velocity": 101,
      "chip": "ym2612"
    },
    {
      "channel": 1,
      "note": 60,
      "start": 46.173,
      "duration": 0.0965,
      "velocity": 97,
      "chip": "ym2612"
    },
    {
      "channel": 5,
      "note": 18,
      "start": 46.1777,
      "duration": 0.0927,
      "velocity": 126,
      "chip": "ym2612"
    },
    {
      "channel": 4,
      "note": 82,
      "start": 46.1819,
      "duration": 0.0801,
      "velocity": 101,
      "chip": "ym2612"
    },
    {
      "channel": 5,
      "note": 19,
      "start": 46.2741,
      "duration": 0.0951,
      "velocity": 126,
      "chip": "ym2612"
    },
    {
      "channel": 4,
      "note": 84,
      "start": 46.2793,
      "duration": 0.0802,
      "velocity": 101,
      "chip": "ym2612"
    },
    {
      "channel": 1,
      "note": 60,
      "start": 46.3681,
      "duration": 0.0964,
      "velocity": 97,
      "chip": "ym2612"
    },
    {
      "channel": 5,
      "note": 18,
      "start": 46.3729,
      "duration": 0.3861,
      "velocity": 126,
      "chip": "ym2612"
    },
    {
      "channel": 4,
      "note": 79,
      "start": 46.3769,
      "duration": 0.0801,
      "velocity": 101,
      "chip": "ym2612"
    },
    {
      "channel": 4,
      "note": 82,
      "start": 46.4744,
      "duration": 0.0801,
      "velocity": 101,
      "chip": "ym2612"
    },
    {
      "channel": 0,
      "note": 60,
      "start": 46.563,
      "duration": 2.5509,
      "velocity": 93,
      "chip": "ym2612"
    },
    {
      "channel": 1,
      "note": 60,
      "start": 46.5645,
      "duration": 0.0951,
      "velocity": 97,
      "chip": "ym2612"
    },
    {
      "channel": 3,
      "note": 60,
      "start": 46.5659,
      "duration": 0.0777,
      "velocity": 106,
      "chip": "ym2612"
    },
    {
      "channel": 4,
      "note": 84,
      "start": 46.573,
      "duration": 0.079,
      "velocity": 101,
      "chip": "ym2612"
    },
    {
      "channel": 4,
      "note": 79,
      "start": 46.6694,
      "duration": 0.0801,
      "velocity": 101,
      "chip": "ym2612"
    },
    {
      "channel": 1,
      "note": 60,
      "start": 46.7581,
      "duration": 0.0965,
      "velocity": 97,
      "chip": "ym2612"
    },
    {
      "channel": 5,
      "note": 0,
      "start": 46.7629,
      "duration": 0.1914,
      "velocity": 112,
      "chip": "ym2612"
    },
    {
      "channel": 4,
      "note": 82,
      "start": 46.7684,
      "duration": 0.0786,
      "velocity": 101,
      "chip": "ym2612"
    },
    {
      "channel": 4,
      "note": 84,
      "start": 46.8644,
      "duration": 0.0801,
      "velocity": 101,
      "chip": "ym2612"
    },
    {
      "channel": 1,
      "note": 60,
      "start": 46.9531,
      "duration": 0.0965,
      "velocity": 97,
      "chip": "ym2612"
    },
    {
      "channel": 5,
      "note": 57,
      "start": 46.9581,
      "duration": 0.1922,
      "velocity": 112,
      "chip": "ym2612"
    },
    {
      "channel": 4,
      "note": 79,
      "start": 46.9635,
      "duration": 0.079,
      "velocity": 101,
      "chip": "ym2612"
    },
    {
      "channel": 4,
      "note": 82,
      "start": 47.0606,
      "duration": 0.0789,
      "velocity": 101,
      "chip": "ym2612"
    },
    {
      "channel": 1,
      "note": 60,
      "start": 47.1482,
      "duration": 0.1045,
      "velocity": 97,
      "chip": "ym2612"
    },
    {
      "channel": 3,
      "note": 60,
      "start": 47.1496,
      "duration": 0.0871,
      "velocity": 106,
      "chip": "ym2612"
    },
    {
      "channel": 5,
      "note": 56,
      "start": 47.154,
      "duration": 0.3968,
      "velocity": 126,
      "chip": "ym2612"
    },
    {
      "channel": 4,
      "note": 84,
      "start": 47.1653,
      "duration": 0.0799,
      "velocity": 101,
      "chip": "ym2612"
    },
    {
      "channel": 4,
      "note": 79,
      "start": 47.2625,
      "duration": 0.0802,
      "velocity": 101,
      "chip": "ym2612"
    },
    {
      "channel": 1,
      "note": 60,
      "start": 47.3513,
      "duration": 0.0965,
      "velocity": 97,
      "chip": "ym2612"
    },
    {
      "channel": 4,
      "note": 82,
      "start": 47.3601,
      "duration": 0.0802,
      "velocity": 101,
      "chip": "ym2612"
    },
    {
      "channel": 1,
      "note": 60,
      "start": 47.5485,
      "duration": 0.1029,
      "velocity": 97,
      "chip": "ym2612"
    },
    {
      "channel": 3,
      "note": 60,
      "start": 47.5501,
      "duration": 0.0848,
      "velocity": 106,
      "chip": "ym2612"
    },
    {
      "channel": 5,
      "note": 0,
      "start": 47.5548,
      "duration": 0.1956,
      "velocity": 112,
      "chip": "ym2612"
    },
    {
      "channel": 4,
      "note": 84,
      "start": 47.5634,
      "duration": 0.08,
      "velocity": 101,
      "chip": "ym2612"
    },
    {
      "channel": 4,
      "note": 79,
      "start": 47.6608,
      "duration": 0.0801,
      "velocity": 101,
      "chip": "ym2612"
    },
    {
      "channel": 1,
      "note": 60,
      "start": 47.7494,
      "duration": 0.0965,
      "velocity": 97,
      "chip": "ym2612"
    },
    {
      "channel": 5,
      "note": 57,
      "start": 47.7541,
      "duration": 0.0927,
      "velocity": 126,
      "chip": "ym2612"
    },
    {
      "channel": 4,
      "note": 82,
      "start": 47.7595,
      "duration": 0.0789,
      "velocity": 101,
      "chip": "ym2612"
    },
    {
      "channel": 5,
      "note": 18,
      "start": 47.8507,
      "duration": 0.1912,
      "velocity": 112,
      "chip": "ym2612"
    },
    {
      "channel": 4,
      "note": 84,
      "start": 47.8557,
      "duration": 0.0802,
      "velocity": 101,
      "chip": "ym2612"
    },
    {
      "channel": 1,
      "note": 60,
      "start": 47.9445,
      "duration": 0.0964,
      "velocity": 97,
      "chip": "ym2612"
    },
    {
      "channel": 4,
      "note": 79,
      "start": 47.9533,
      "duration": 0.0819,
      "velocity": 101,
      "chip": "ym2612"
    },
    {
      "channel": 5,
      "note": 57,
      "start": 48.0456,
      "duration": 0.0964,
      "velocity": 126,
      "chip": "ym2612"
    },
    {
      "channel": 4,
      "note": 82,
      "start": 48.0508,
      "duration": 0.0802,
      "velocity": 101,
      "chip": "ym2612"
    },
    {
      "channel": 1,
      "note": 60,
      "start": 48.1399,
      "duration": 0.1042,
      "velocity": 97,
      "chip": "ym2612"
    },
    {
      "channel": 3,
      "note": 60,
      "start": 48.1413,
      "duration": 0.0868,
      "velocity": 106,
      "chip": "ym2612"
    },
    {
      "channel": 5,
      "note": 18,
      "start": 48.1458,
      "duration": 0.1978,
      "velocity": 112,
      "chip": "ym2612"
    },
    {
      "channel": 4,
      "note": 84,
      "start": 48.1582,
      "duration": 0.0784,
      "velocity": 101,
      "chip": "ym2612"
    },
    {
      "channel": 4,
      "note": 79,
      "start": 48.2539,
      "duration": 0.0802,
      "velocity": 101,
      "chip": "ym2612"
    },
    {
      "channel": 1,
      "note": 60,
      "start": 48.3426,
      "duration": 0.0965,
      "velocity": 97,
      "chip": "ym2612"
    },
    {
      "channel": 5,
      "note": 57,
      "start": 48.3475,
      "duration": 0.1913,
      "velocity": 112,
      "chip": "ym2612"
    },
    {
      "channel": 4,
      "note": 82,
      "start": 48.3528,
      "duration": 0.0788,
      "velocity": 101,
      "chip": "ym2612"
    },
    {
      "channel": 4,
      "note": 84,
      "start": 48.4489,
      "duration": 0.0801,
      "velocity": 101,
      "chip": "ym2612"
    },
    {
      "channel": 1,
      "note": 60,
      "start": 48.5377,
      "duration": 0.0965,
      "velocity": 97,
      "chip": "ym2612"
    },
    {
      "channel": 5,
      "note": 57,
      "start": 48.5426,
      "duration": 0.1922,
      "velocity": 112,
      "chip": "ym2612"
    },
    {
      "channel": 4,
      "note": 79,
      "start": 48.5482,
      "duration": 0.0792,
      "velocity": 101,
      "chip": "ym2612"
    },
    {
      "channel": 4,
      "note": 82,
      "start": 48.6458,
      "duration": 0.0783,
      "velocity": 101,
      "chip": "ym2612"
    },
    {
      "channel": 1,
      "note": 60,
      "start": 48.7327,
      "duration": 0.1046,
      "velocity": 97,
      "chip": "ym2612"
    },
    {
      "channel": 3,
      "note": 60,
      "start": 48.7341,
      "duration": 0.0872,
      "velocity": 106,
      "chip": "ym2612"
    },
    {
      "channel": 5,
      "note": 56,
      "start": 48.7385,
      "duration": 0.1983,
      "velocity": 126,
      "chip": "ym2612"
    },
    {
      "channel": 4,
      "note": 84,
      "start": 48.7503,
      "duration": 0.0794,
      "velocity": 101,
      "chip": "ym2612"
    },
    {
      "channel": 4,
      "note": 79,
      "start": 48.8471,
      "duration": 0.0801,
      "velocity": 101,
      "chip": "ym2612"
    },
    {
      "channel": 1,
      "note": 60,
      "start": 48.9358,
      "duration": 0.0964,
      "velocity": 97,
      "chip": "ym2612"
    },
    {
      "channel": 5,
      "note": 10,
      "start": 48.9406,
      "duration": 0.0926,
      "velocity": 112,
      "chip": "ym2612"
    },
    {
      "channel": 4,
      "note": 82,
      "start": 48.946,
      "duration": 0.0787,
      "velocity": 101,
      "chip": "ym2612"
    },
    {
      "channel": 5,
      "note": 59,
      "start": 49.037,
      "duration": 0.0994,
      "velocity": 112,
      "chip": "ym2612"
    },
    {
      "channel": 0,
      "note": 60,
      "start": 49.1327,
      "duration": 0.5738,
      "velocity": 93,
      "chip": "ym2612"
    },
    {
      "channel": 1,
      "note": 60,
      "start": 49.1342,
      "duration": 0.1022,
      "velocity": 97,
      "chip": "ym2612"
    },
    {
      "channel": 3,
      "note": 60,
      "start": 49.1358,
      "duration": 0.0837,
      "velocity": 106,
      "chip": "ym2612"
    },
    {
      "channel": 5,
      "note": 59,
      "start": 49.1403,
      "duration": 0.0971,
      "velocity": 126,
      "chip": "ym2612"
    },
    {
      "channel": 4,
      "note": 84,
      "start": 49.148,
      "duration": 0.0799,
      "velocity": 101,
      "chip": "ym2612"
    },
    {
      "channel": 5,
      "note": 18,
      "start": 49.2411,
      "duration": 0.0938,
      "velocity": 126,
      "chip": "ym2612"
    },
    {
      "channel": 4,
      "note": 80,
      "start": 49.2452,
      "duration": 0.0802,
      "velocity": 101,
      "chip": "ym2612"
    },
    {
      "channel": 1,
      "note": 61,
      "start": 49.334,
      "duration": 0.0964,
      "velocity": 97,
      "chip": "ym2612"
    },
    {
      "channel": 5,
      "note": 19,
      "start": 49.3386,
      "duration": 0.0928,
      "velocity": 126,
      "chip": "ym2612"
    },
    {
      "channel": 4,
      "note": 84,
      "start": 49.3441,
      "duration": 0.0788,
      "velocity": 101,
      "chip": "ym2612"
    },
    {
      "channel": 5,
      "note": 18,
      "start": 49.4351,
      "duration": 0.095,
      "velocity": 126,
      "chip": "ym2612"
    },
    {
      "channel": 4,
      "note": 85,
      "start": 49.4403,
      "duration": 0.0801,
      "velocity": 101,
      "chip": "ym2612"
    },
    {
      "channel": 1,
      "note": 61,
      "start": 49.529,
      "duration": 0.0964,
      "velocity": 97,
      "chip": "ym2612"
    },
    {
      "channel": 5,
      "note": 19,
      "start": 49.5339,
      "duration": 0.3861,
      "velocity": 126,
      "chip": "ym2612"
    },
    {
      "channel": 4,
      "note": 80,
      "start": 49.5393,
      "duration": 0.081,
      "velocity": 101,
      "chip": "ym2612"
    },
    {
      "channel": 4,
      "note": 84,
      "start": 49.6353,
      "duration": 0.0802,
      "velocity": 101,
      "chip": "ym2612"
    },
    {
      "channel": 0,
      "note": 61,
      "start": 49.7248,
      "duration": 2.5495,
      "velocity": 93,
      "chip": "ym2612"
    },
    {
      "channel": 1,
      "note": 61,
      "start": 49.7262,
      "duration": 0.0943,
      "velocity": 97,
      "chip": "ym2612"
    },
    {
      "channel": 3,
      "note": 61,
      "start": 49.7276,
      "duration": 0.0769,
      "velocity": 106,
      "chip": "ym2612"
    },
    {
      "channel": 4,
      "note": 85,
      "start": 49.7328,
      "duration": 0.0801,
      "velocity": 101,
      "chip": "ym2612"
    },
    {
      "channel": 4,
      "note": 80,
      "start": 49.8303,
      "duration": 0.0802,
      "velocity": 101,
      "chip": "ym2612"
    },
    {
      "channel": 1,
      "note": 61,
      "start": 49.919,
      "duration": 0.0965,
      "velocity": 97,
      "chip": "ym2612"
    },
    {
      "channel": 5,
      "note": 0,
      "start": 49.9238,
      "duration": 0.1915,
      "velocity": 112,
      "chip": "ym2612"
    },
    {
      "channel": 4,
      "note": 84,
      "start": 49.9278,
      "duration": 0.0801,
      "velocity": 101,
      "chip": "ym2612"
    },
    {
      "channel": 4,
      "note": 85,
      "start": 50.0253,
      "duration": 0.0801,
      "velocity": 101,
      "chip": "ym2612"
    },
    {
      "channel": 1,
      "note": 61,
      "start": 50.1141,
      "duration": 0.0978,
      "velocity": 97,
      "chip": "ym2612"
    },
    {
      "channel": 5,
      "note": 57,
      "start": 50.1191,
      "duration": 0.1921,
      "velocity": 112,
      "chip": "ym2612"
    },
    {
      "channel": 4,
      "note": 80,
      "start": 50.1229,
      "duration": 0.0801,
      "velocity": 101,
      "chip": "ym2612"
    },
    {
      "channel": 4,
      "note": 84,
      "start": 50.2204,
      "duration": 0.0801,
      "velocity": 101,
      "chip": "ym2612"
    },
    {
      "channel": 1,
      "note": 61,
      "start": 50.3091,
      "duration": 0.1046,
      "velocity": 97,
      "chip": "ym2612"
    },
    {
      "channel": 3,
      "note": 61,
      "start": 50.3105,
      "duration": 0.0873,
      "velocity": 106,
      "chip": "ym2612"
    },
    {
      "channel": 5,
      "note": 57,
      "start": 50.3149,
      "duration": 0.3956,
      "velocity": 126,
      "chip": "ym2612"
    },
    {
      "channel": 4,
      "note": 85,
      "start": 50.326,
      "duration": 0.0802,
      "velocity": 101,
      "chip": "ym2612"
    },
    {
      "channel": 4,
      "note": 80,
      "start": 50.4235,
      "duration": 0.0802,
      "velocity": 101,
      "chip": "ym2612"
    },
    {
      "channel": 1,
      "note": 61,
      "start": 50.5122,
      "duration": 0.0964,
      "velocity": 97,
      "chip": "ym2612"
    },
    {
      "channel": 4,
      "note": 84,
      "start": 50.521,
      "duration": 0.0801,
      "velocity": 101,
      "chip": "ym2612"
    },
    {
      "channel": 1,
      "note": 61,
      "start": 50.7082,
      "duration": 0.1036,
      "velocity": 97,
      "chip": "ym2612"
    },
    {
      "channel": 3,
      "note": 61,
      "start": 50.7098,
      "duration": 0.0861,
      "velocity": 106,
      "chip": "ym2612"
    },
    {
      "channel": 5,
      "note": 0,
      "start": 50.7143,
      "duration": 0.0984,
      "velocity": 126,
      "chip": "ym2612"
    },
    {
      "channel": 4,
      "note": 85,
      "start": 50.7243,
      "duration": 0.0804,
      "velocity": 101,
      "chip": "ym2612"
    },
    {
      "channel": 5,
      "note": 18,
      "start": 50.8165,
      "duration": 0.0949,
      "velocity": 126,
      "chip": "ym2612"
    },
    {
      "channel": 4,
      "note": 80,
      "start": 50.8229,
      "duration": 0.0789,
      "velocity": 101,
      "chip": "ym2612"
    },
    {
      "channel": 1,
      "note": 61,
      "start": 50.9104,
      "duration": 0.0965,
      "velocity": 97,
      "chip": "ym2612"
    },
    {
      "channel": 5,
      "note": 18,
      "start": 50.9152,
      "duration": 0.0926,
      "velocity": 112,
      "chip": "ym2612"
    },
    {
      "channel": 4,
      "note": 84,
      "start": 50.9192,
      "duration": 0.0801,
      "velocity": 101,
      "chip": "ym2612"
    },
    {
      "channel": 5,
      "note": 60,
      "start": 51.0116,
      "duration": 0.095,
      "velocity": 112,
      "chip": "ym2612"
    },
    {
      "channel": 4,
      "note": 85,
      "start": 51.0167,
      "duration": 0.0801,
      "velocity": 101,
      "chip": "ym2612"
    },
    {
      "channel": 1,
      "note": 61,
      "start": 51.1054,
      "duration": 0.0965,
      "velocity": 97,
      "chip": "ym2612"
    },
    {
      "channel": 5,
      "note": 59,
      "start": 51.1102,
      "duration": 0.0926,
      "velocity": 126,
      "chip": "ym2612"
    },
    {
      "channel": 4,
      "note": 80,
      "start": 51.1143,
      "duration": 0.08,
      "velocity": 101,
      "chip": "ym2612"
    },
    {
      "channel": 5,
      "note": 19,
      "start": 51.2065,
      "duration": 0.0961,
      "velocity": 126,
      "chip": "ym2612"
    },
    {
      "channel": 4,
      "note": 84,
      "start": 51.2117,
      "duration": 0.0803,
      "velocity": 101,
      "chip": "ym2612"
    },
    {
      "channel": 1,
      "note": 61,
      "start": 51.3005,
      "duration": 0.1046,
      "velocity": 97,
      "chip": "ym2612"
    },
    {
      "channel": 3,
      "note": 61,
      "start": 51.3019,
      "duration": 0.0872,
      "velocity": 106,
      "chip": "ym2612"
    },
    {
      "channel": 5,
      "note": 18,
      "start": 51.3064,
      "duration": 0.0996,
      "velocity": 112,
      "chip": "ym2612"
    },
    {
      "channel": 4,
      "note": 85,
      "start": 51.3173,
      "duration": 0.0802,
      "velocity": 101,
      "chip": "ym2612"
    },
    {
      "channel": 5,
      "note": 59,
      "start": 51.4098,
      "duration": 0.0948,
      "velocity": 112,
      "chip": "ym2612"
    },
    {
      "channel": 4,
      "note": 80,
      "start": 51.4151,
      "duration": 0.0799,
      "velocity": 101,
      "chip": "ym2612"
    },
    {
      "channel": 1,
      "note": 61,
      "start": 51.5036,
      "duration": 0.0964,
      "velocity": 97,
      "chip": "ym2612"
    },
    {
      "channel": 5,
      "note": 59,
      "start": 51.5082,
      "duration": 0.0927,
      "velocity": 126,
      "chip": "ym2612"
    },
    {
      "channel": 4,
      "note": 84,
      "start": 51.5124,
      "duration": 0.0801,
      "velocity": 101,
      "chip": "ym2612"
    },
    {
      "channel": 5,
      "note": 19,
      "start": 51.6047,
      "duration": 0.0951,
      "velocity": 126,
      "chip": "ym2612"
    },
    {
      "channel": 4,
      "note": 85,
      "start": 51.6099,
      "duration": 0.0801,
      "velocity": 101,
      "chip": "ym2612"
    },
    {
      "channel": 1,
      "note": 61,
      "start": 51.6986,
      "duration": 0.0982,
      "velocity": 97,
      "chip": "ym2612"
    },
    {
      "channel": 5,
      "note": 18,
      "start": 51.7037,
      "duration": 0.0941,
      "velocity": 112,
      "chip": "ym2612"
    },
    {
      "channel": 4,
      "note": 80,
      "start": 51.7073,
      "duration": 0.0802,
      "velocity": 101,
      "chip": "ym2612"
    },
    {
      "channel": 5,
      "note": 59,
      "start": 51.8016,
      "duration": 0.0941,
      "velocity": 112,
      "chip": "ym2612"
    },
    {
      "channel": 4,
      "note": 84,
      "start": 51.8049,
      "duration": 0.0802,
      "velocity": 101,
      "chip": "ym2612"
    },
    {
      "channel": 1,
      "note": 61,
      "start": 51.8936,
      "duration": 0.1046,
      "velocity": 97,
      "chip": "ym2612"
    },
    {
      "channel": 3,
      "note": 61,
      "start": 51.8951,
      "duration": 0.0871,
      "velocity": 106,
      "chip": "ym2612"
    },
    {
      "channel": 5,
      "note": 60,
      "start": 51.8994,
      "duration": 0.0997,
      "velocity": 126,
      "chip": "ym2612"
    },
    {
      "channel": 4,
      "note": 85,
      "start": 51.9105,
      "duration": 0.0801,
      "velocity": 101,
      "chip": "ym2612"
    },
    {
      "channel": 5,
      "note": 18,
      "start": 52.0028,
      "duration": 0.0949,
      "velocity": 126,
      "chip": "ym2612"
    },
    {
      "channel": 4,
      "note": 80,
      "start": 52.008,
      "duration": 0.0801,
      "velocity": 101,
      "chip": "ym2612"
    },
    {
      "channel": 1,
      "note": 61,
      "start": 52.0968,
      "duration": 0.0964,
      "velocity": 97,
      "chip": "ym2612"
    },
    {
      "channel": 5,
      "note": 18,
      "start": 52.1015,
      "duration": 0.0926,
      "velocity": 112,
      "chip": "ym2612"
    },
    {
      "channel": 4,
      "note": 84,
      "start": 52.1056,
      "duration": 0.0801,
      "velocity": 101,
      "chip": "ym2612"
    },
    {
      "channel": 5,
      "note": 60,
      "start": 52.198,
      "duration": 0.0984,
      "velocity": 112,
      "chip": "ym2612"
    },
    {
      "channel": 0,
      "note": 61,
      "start": 52.292,
      "duration": 0.7941,
      "velocity": 93,
      "chip": "ym2612"
    },
    {
      "channel": 1,
      "note": 61,
      "start": 52.2939,
      "duration": 0.7688,
      "velocity": 97,
      "chip": "ym2612"
    },
    {
      "channel": 3,
      "note": 61,
      "start": 52.2957,
      "duration": 0.0847,
      "velocity": 106,
      "chip": "ym2612"
    },
    {
      "channel": 5,
      "note": 59,
      "start": 52.3007,
      "duration": 0.3903,
      "velocity": 112,
      "chip": "ym2612"
    },
    {
      "channel": 4,
      "note": 85,
      "start": 52.3122,
      "duration": 0.1741,
      "velocity": 107,
      "chip": "ym2612"
    },
    {
      "channel": 3,
      "note": 65,
      "start": 52.4952,
      "duration": 0.0802,
      "velocity": 106,
      "chip": "ym2612"
    },
    {
      "channel": 4,
      "note": 77,
      "start": 52.5037,
      "duration": 0.1777,
      "velocity": 107,
      "chip": "ym2612"
    },
    {
      "channel": 3,
      "note": 65,
      "start": 52.6902,
      "duration": 0.0823,
      "velocity": 106,
      "chip": "ym2612"
    },
    {
      "channel": 5,
      "note": 49,
      "start": 52.6946,
      "duration": 0.3875,
      "velocity": 126,
      "chip": "ym2612"
    },
    {
      "channel": 4,
      "note": 79,
      "start": 52.6988,
      "duration": 0.1784,
      "velocity": 107,
      "chip": "ym2612"
    },
    {
      "channel": 3,
      "note": 65,
      "start": 52.8853,
      "duration": 0.0802,
      "velocity": 106,
      "chip": "ym2612"
    },
    {
      "channel": 4,
      "note": 80,
      "start": 52.8957,
      "duration": 0.1756,
      "velocity": 107,
      "chip": "ym2612"
    },
    {
      "channel": 1,
      "note": 53,
      "start": 53.08,
      "duration": 0.006,
      "velocity": 97,
      "chip": "ym2612"
    },
    {
      "channel": 3,
      "note": 65,
      "start": 53.0815,
      "duration": 0.0046,
      "velocity": 106,
      "chip": "ym2612"
    },
    {
      "channel": 5,
      "note": 0,
      "start": 53.086,
      "duration": 0.0001,
      "velocity": 112,
      "chip": "ym2612"
    }
  ]
}