{
  "track_name": "13 - Evil Storm",
  "duration_sec": 41.151,
  "sample_rate": 44100,
  "note_count": 1488,
  "unique_pitches": 47,
  "pitch_range": 58,
  "avg_note_duration": 0.1254,
  "reconstruction_stats": {
    "notes_reconstructed": 1488,
    "keyon_events": 1488,
    "keyoff_events": 1484,
    "orphan_keyons": 4,
    "unique_pitches": 47,
    "pitch_range": 58,
    "avg_duration_sec": 0.1254
  },
  "metadata": {
    "source": "M\\Mirage 2\\13 - Evil Storm.vgz"
  },
  "notes": [
    {
      "channel": 0,
      "note": 86,
      "start": 0.0029,
      "duration": 0.0483,
      "velocity": 98,
      "chip": "ym2612"
    },
    {
      "channel": 2,
      "note": 36,
      "start": 0.0045,
      "duration": 1.1504,
      "velocity": 106,
      "chip": "ym2612"
    },
    {
      "channel": 3,
      "note": 36,
      "start": 0.0064,
      "duration": 1.1486,
      "velocity": 106,
      "chip": "ym2612"
    },
    {
      "channel": 4,
      "note": 90,
      "start": 0.0079,
      "duration": 0.0434,
      "velocity": 98,
      "chip": "ym2612"
    },
    {
      "channel": 0,
      "note": 86,
      "start": 0.0826,
      "duration": 0.0478,
      "velocity": 98,
      "chip": "ym2612"
    },
    {
      "channel": 4,
      "note": 90,
      "start": 0.083,
      "duration": 0.0474,
      "velocity": 98,
      "chip": "ym2612"
    },
    {
      "channel": 1,
      "note": 86,
      "start": 0.1253,
      "duration": 0.0463,
      "velocity": 98,
      "chip": "ym2612"
    },
    {
      "channel": 5,
      "note": 90,
      "start": 0.1269,
      "duration": 0.0448,
      "velocity": 98,
      "chip": "ym2612"
    },
    {
      "channel": 0,
      "note": 86,
      "start": 0.1653,
      "duration": 0.0476,
      "velocity": 98,
      "chip": "ym2612"
    },
    {
      "channel": 4,
      "note": 90,
      "start": 0.1657,
      "duration": 0.0472,
      "velocity": 98,
      "chip": "ym2612"
    },
    {
      "channel": 1,
      "note": 86,
      "start": 0.2063,
      "duration": 0.0478,
      "velocity": 98,
      "chip": "ym2612"
    },
    {
      "channel": 5,
      "note": 90,
      "start": 0.2068,
      "duration": 0.0474,
      "velocity": 98,
      "chip": "ym2612"
    },
    {
      "channel": 0,
      "note": 86,
      "start": 0.2476,
      "duration": 0.0478,
      "velocity": 98,
      "chip": "ym2612"
    },
    {
      "channel": 4,
      "note": 90,
      "start": 0.2482,
      "duration": 0.0473,
      "velocity": 98,
      "chip": "ym2612"
    },
    {
      "channel": 1,
      "note": 86,
      "start": 0.2897,
      "duration": 0.0471,
      "velocity": 98,
      "chip": "ym2612"
    },
    {
      "channel": 5,
      "note": 90,
      "start": 0.2902,
      "duration": 0.0467,
      "velocity": 98,
      "chip": "ym2612"
    },
    {
      "channel": 0,
      "note": 86,
      "start": 0.3301,
      "duration": 0.0478,
      "velocity": 98,
      "chip": "ym2612"
    },
    {
      "channel": 4,
      "note": 90,
      "start": 0.3306,
      "duration": 0.0474,
      "velocity": 98,
      "chip": "ym2612"
    },
    {
      "channel": 1,
      "note": 86,
      "start": 0.3715,
      "duration": 0.0478,
      "velocity": 98,
      "chip": "ym2612"
    },
    {
      "channel": 5,
      "note": 90,
      "start": 0.3719,
      "duration": 0.0475,
      "velocity": 98,
      "chip": "ym2612"
    },
    {
      "channel": 0,
      "note": 86,
      "start": 0.4126,
      "duration": 0.0478,
      "velocity": 98,
      "chip": "ym2612"
    },
    {
      "channel": 4,
      "note": 90,
      "start": 0.4131,
      "duration": 0.0474,
      "velocity": 98,
      "chip": "ym2612"
    },
    {
      "channel": 1,
      "note": 86,
      "start": 0.4539,
      "duration": 0.0478,
      "velocity": 98,
      "chip": "ym2612"
    },
    {
      "channel": 5,
      "note": 90,
      "start": 0.4543,
      "duration": 0.0475,
      "velocity": 98,
      "chip": "ym2612"
    },
    {
      "channel": 0,
      "note": 86,
      "start": 0.4953,
      "duration": 0.0476,
      "velocity": 98,
      "chip": "ym2612"
    },
    {
      "channel": 4,
      "note": 90,
      "start": 0.4957,
      "duration": 0.0473,
      "velocity": 98,
      "chip": "ym2612"
    },
    {
      "channel": 1,
      "note": 86,
      "start": 0.5364,
      "duration": 0.0478,
      "velocity": 98,
      "chip": "ym2612"
    },
    {
      "channel": 5,
      "note": 90,
      "start": 0.5369,
      "duration": 0.0474,
      "velocity": 98,
      "chip": "ym2612"
    },
    {
      "channel": 0,
      "note": 86,
      "start": 0.5776,
      "duration": 0.0479,
      "velocity": 98,
      "chip": "ym2612"
    },
    {
      "channel": 4,
      "note": 90,
      "start": 0.5781,
      "duration": 0.0475,
      "velocity": 98,
      "chip": "ym2612"
    },
    {
      "channel": 1,
      "note": 86,
      "start": 0.6189,
      "duration": 0.0478,
      "velocity": 98,
      "chip": "ym2612"
    },
    {
      "channel": 5,
      "note": 90,
      "start": 0.6194,
      "duration": 0.0474,
      "velocity": 98,
      "chip": "ym2612"
    },
    {
      "channel": 0,
      "note": 87,
      "start": 0.6602,
      "duration": 0.0479,
      "velocity": 98,
      "chip": "ym2612"
    },
    {
      "channel": 4,
      "note": 91,
      "start": 0.6606,
      "duration": 0.0475,
      "velocity": 98,
      "chip": "ym2612"
    },
    {
      "channel": 1,
      "note": 86,
      "start": 0.7016,
      "duration": 0.0477,
      "velocity": 98,
      "chip": "ym2612"
    },
    {
      "channel": 5,
      "note": 90,
      "start": 0.7021,
      "duration": 0.0473,
      "velocity": 98,
      "chip": "ym2612"
    },
    {
      "channel": 0,
      "note": 87,
      "start": 0.7433,
      "duration": 0.0472,
      "velocity": 98,
      "chip": "ym2612"
    },
    {
      "channel": 4,
      "note": 91,
      "start": 0.7438,
      "duration": 0.0469,
      "velocity": 98,
      "chip": "ym2612"
    },
    {
      "channel": 1,
      "note": 87,
      "start": 0.7839,
      "duration": 0.0478,
      "velocity": 98,
      "chip": "ym2612"
    },
    {
      "channel": 5,
      "note": 91,
      "start": 0.7844,
      "duration": 0.0474,
      "velocity": 98,
      "chip": "ym2612"
    },
    {
      "channel": 0,
      "note": 87,
      "start": 0.8252,
      "duration": 0.0479,
      "velocity": 98,
      "chip": "ym2612"
    },
    {
      "channel": 4,
      "note": 91,
      "start": 0.8257,
      "duration": 0.0475,
      "velocity": 98,
      "chip": "ym2612"
    },
    {
      "channel": 1,
      "note": 87,
      "start": 0.8664,
      "duration": 0.0479,
      "velocity": 98,
      "chip": "ym2612"
    },
    {
      "channel": 5,
      "note": 91,
      "start": 0.8669,
      "duration": 0.0475,
      "velocity": 98,
      "chip": "ym2612"
    },
    {
      "channel": 0,
      "note": 87,
      "start": 0.9078,
      "duration": 0.0476,
      "velocity": 98,
      "chip": "ym2612"
    },
    {
      "channel": 4,
      "note": 91,
      "start": 0.9083,
      "duration": 0.0473,
      "velocity": 98,
      "chip": "ym2612"
    },
    {
      "channel": 1,
      "note": 87,
      "start": 0.949,
      "duration": 0.0478,
      "velocity": 98,
      "chip": "ym2612"
    },
    {
      "channel": 5,
      "note": 91,
      "start": 0.9494,
      "duration": 0.0474,
      "velocity": 98,
      "chip": "ym2612"
    },
    {
      "channel": 0,
      "note": 87,
      "start": 0.9903,
      "duration": 0.0477,
      "velocity": 98,
      "chip": "ym2612"
    },
    {
      "channel": 4,
      "note": 91,
      "start": 0.9908,
      "duration": 0.0473,
      "velocity": 98,
      "chip": "ym2612"
    },
    {
      "channel": 1,
      "note": 87,
      "start": 1.0316,
      "duration": 0.0477,
      "velocity": 98,
      "chip": "ym2612"
    },
    {
      "channel": 5,
      "note": 91,
      "start": 1.032,
      "duration": 0.0474,
      "velocity": 98,
      "chip": "ym2612"
    },
    {
      "channel": 0,
      "note": 87,
      "start": 1.0728,
      "duration": 0.0477,
      "velocity": 98,
      "chip": "ym2612"
    },
    {
      "channel": 4,
      "note": 91,
      "start": 1.0732,
      "duration": 0.0474,
      "velocity": 98,
      "chip": "ym2612"
    },
    {
      "channel": 1,
      "note": 87,
      "start": 1.114,
      "duration": 0.0478,
      "velocity": 98,
      "chip": "ym2612"
    },
    {
      "channel": 5,
      "note": 91,
      "start": 1.1144,
      "duration": 0.0474,
      "velocity": 98,
      "chip": "ym2612"
    },
    {
      "channel": 0,
      "note": 87,
      "start": 1.1556,
      "duration": 0.0474,
      "velocity": 98,
      "chip": "ym2612"
    },
    {
      "channel": 2,
      "note": 35,
      "start": 1.1561,
      "duration": 0.0779,
      "velocity": 106,
      "chip": "ym2612"
    },
    {
      "channel": 3,
      "note": 35,
      "start": 1.1566,
      "duration": 0.0775,
      "velocity": 106,
      "chip": "ym2612"
    },
    {
      "channel": 4,
      "note": 91,
      "start": 1.157,
      "duration": 0.0461,
      "velocity": 98,
      "chip": "ym2612"
    },
    {
      "channel": 1,
      "note": 87,
      "start": 1.1966,
      "duration": 0.0478,
      "velocity": 98,
      "chip": "ym2612"
    },
    {
      "channel": 5,
      "note": 91,
      "start": 1.1971,
      "duration": 0.0477,
      "velocity": 98,
      "chip": "ym2612"
    },
    {
      "channel": 0,
      "note": 87,
      "start": 1.2378,
      "duration": 0.0478,
      "velocity": 98,
      "chip": "ym2612"
    },
    {
      "channel": 2,
      "note": 36,
      "start": 1.2382,
      "duration": 0.0783,
      "velocity": 106,
      "chip": "ym2612"
    },
    {
      "channel": 3,
      "note": 36,
      "start": 1.2387,
      "duration": 0.0779,
      "velocity": 106,
      "chip": "ym2612"
    },
    {
      "channel": 4,
      "note": 91,
      "start": 1.2392,
      "duration": 0.0465,
      "velocity": 98,
      "chip": "ym2612"
    },
    {
      "channel": 1,
      "note": 87,
      "start": 1.2791,
      "duration": 0.0477,
      "velocity": 98,
      "chip": "ym2612"
    },
    {
      "channel": 5,
      "note": 91,
      "start": 1.2795,
      "duration": 0.0473,
      "velocity": 98,
      "chip": "ym2612"
    },
    {
      "channel": 0,
      "note": 80,
      "start": 1.3204,
      "duration": 0.0477,
      "velocity": 98,
      "chip": "ym2612"
    },
    {
      "channel": 2,
      "note": 37,
      "start": 1.3208,
      "duration": 1.1542,
      "velocity": 106,
      "chip": "ym2612"
    },
    {
      "channel": 3,
      "note": 37,
      "start": 1.3213,
      "duration": 1.1539,
      "velocity": 106,
      "chip": "ym2612"
    },
    {
      "channel": 4,
      "note": 84,
      "start": 1.3218,
      "duration": 0.0463,
      "velocity": 98,
      "chip": "ym2612"
    },
    {
      "channel": 1,
      "note": 87,
      "start": 1.3615,
      "duration": 0.0479,
      "velocity": 98,
      "chip": "ym2612"
    },
    {
      "channel": 5,
      "note": 91,
      "start": 1.362,
      "duration": 0.0475,
      "velocity": 98,
      "chip": "ym2612"
    },
    {
      "channel": 0,
      "note": 80,
      "start": 1.4028,
      "duration": 0.0478,
      "velocity": 98,
      "chip": "ym2612"
    },
    {
      "channel": 4,
      "note": 84,
      "start": 1.4032,
      "duration": 0.0474,
      "velocity": 98,
      "chip": "ym2612"
    },
    {
      "channel": 1,
      "note": 80,
      "start": 1.444,
      "duration": 0.0478,
      "velocity": 98,
      "chip": "ym2612"
    },
    {
      "channel": 5,
      "note": 84,
      "start": 1.4449,
      "duration": 0.0471,
      "velocity": 98,
      "chip": "ym2612"
    },
    {
      "channel": 0,
      "note": 80,
      "start": 1.4853,
      "duration": 0.0478,
      "velocity": 98,
      "chip": "ym2612"
    },
    {
      "channel": 4,
      "note": 84,
      "start": 1.4858,
      "duration": 0.0474,
      "velocity": 98,
      "chip": "ym2612"
    },
    {
      "channel": 1,
      "note": 80,
      "start": 1.5267,
      "duration": 0.0478,
      "velocity": 98,
      "chip": "ym2612"
    },
    {
      "channel": 5,
      "note": 84,
      "start": 1.5271,
      "duration": 0.0477,
      "velocity": 98,
      "chip": "ym2612"
    },
    {
      "channel": 0,
      "note": 80,
      "start": 1.5678,
      "duration": 0.0478,
      "velocity": 98,
      "chip": "ym2612"
    },
    {
      "channel": 4,
      "note": 84,
      "start": 1.5683,
      "duration": 0.0475,
      "velocity": 98,
      "chip": "ym2612"
    },
    {
      "channel": 1,
      "note": 80,
      "start": 1.6092,
      "duration": 0.0511,
      "velocity": 98,
      "chip": "ym2612"
    },
    {
      "channel": 5,
      "note": 84,
      "start": 1.6096,
      "duration": 0.0507,
      "velocity": 98,
      "chip": "ym2612"
    },
    {
      "channel": 0,
      "note": 80,
      "start": 1.6537,
      "duration": 0.0479,
      "velocity": 98,
      "chip": "ym2612"
    },
    {
      "channel": 4,
      "note": 84,
      "start": 1.6542,
      "duration": 0.0475,
      "velocity": 98,
      "chip": "ym2612"
    },
    {
      "channel": 1,
      "note": 80,
      "start": 1.6952,
      "duration": 0.0476,
      "velocity": 98,
      "chip": "ym2612"
    },
    {
      "channel": 5,
      "note": 84,
      "start": 1.6957,
      "duration": 0.0472,
      "velocity": 98,
      "chip": "ym2612"
    },
    {
      "channel": 0,
      "note": 80,
      "start": 1.7363,
      "duration": 0.0477,
      "velocity": 98,
      "chip": "ym2612"
    },
    {
      "channel": 4,
      "note": 84,
      "start": 1.7368,
      "duration": 0.0474,
      "velocity": 98,
      "chip": "ym2612"
    },
    {
      "channel": 1,
      "note": 80,
      "start": 1.7776,
      "duration": 0.0477,
      "velocity": 98,
      "chip": "ym2612"
    },
    {
      "channel": 5,
      "note": 84,
      "start": 1.778,
      "duration": 0.0474,
      "velocity": 98,
      "chip": "ym2612"
    },
    {
      "channel": 0,
      "note": 80,
      "start": 1.8188,
      "duration": 0.0478,
      "velocity": 98,
      "chip": "ym2612"
    },
    {
      "channel": 4,
      "note": 84,
      "start": 1.8192,
      "duration": 0.0474,
      "velocity": 98,
      "chip": "ym2612"
    },
    {
      "channel": 1,
      "note": 80,
      "start": 1.86,
      "duration": 0.0479,
      "velocity": 98,
      "chip": "ym2612"
    },
    {
      "channel": 5,
      "note": 84,
      "start": 1.8605,
      "duration": 0.0475,
      "velocity": 98,
      "chip": "ym2612"
    },
    {
      "channel": 0,
      "note": 80,
      "start": 1.9014,
      "duration": 0.0477,
      "velocity": 98,
      "chip": "ym2612"
    },
    {
      "channel": 4,
      "note": 84,
      "start": 1.9018,
      "duration": 0.0473,
      "velocity": 98,
      "chip": "ym2612"
    },
    {
      "channel": 1,
      "note": 80,
      "start": 1.9429,
      "duration": 0.0475,
      "velocity": 98,
      "chip": "ym2612"
    },
    {
      "channel": 5,
      "note": 84,
      "start": 1.9434,
      "duration": 0.0471,
      "velocity": 98,
      "chip": "ym2612"
    },
    {
      "channel": 0,
      "note": 81,
      "start": 1.9838,
      "duration": 0.0479,
      "velocity": 98,
      "chip": "ym2612"
    },
    {
      "channel": 4,
      "note": 85,
      "start": 1.9842,
      "duration": 0.0476,
      "velocity": 98,
      "chip": "ym2612"
    },
    {
      "channel": 1,
      "note": 80,
      "start": 2.0253,
      "duration": 0.0483,
      "velocity": 98,
      "chip": "ym2612"
    },
    {
      "channel": 5,
      "note": 84,
      "start": 2.0257,
      "duration": 0.048,
      "velocity": 98,
      "chip": "ym2612"
    },
    {
      "channel": 0,
      "note": 81,
      "start": 2.0663,
      "duration": 0.0478,
      "velocity": 98,
      "chip": "ym2612"
    },
    {
      "channel": 4,
      "note": 85,
      "start": 2.0668,
      "duration": 0.0475,
      "velocity": 98,
      "chip": "ym2612"
    },
    {
      "channel": 1,
      "note": 81,
      "start": 2.1077,
      "duration": 0.0477,
      "velocity": 98,
      "chip": "ym2612"
    },
    {
      "channel": 5,
      "note": 85,
      "start": 2.1081,
      "duration": 0.0473,
      "velocity": 98,
      "chip": "ym2612"
    },
    {
      "channel": 0,
      "note": 81,
      "start": 2.1489,
      "duration": 0.0478,
      "velocity": 98,
      "chip": "ym2612"
    },
    {
      "channel": 4,
      "note": 85,
      "start": 2.1494,
      "duration": 0.0474,
      "velocity": 98,
      "chip": "ym2612"
    },
    {
      "channel": 1,
      "note": 81,
      "start": 2.1901,
      "duration": 0.0478,
      "velocity": 98,
      "chip": "ym2612"
    },
    {
      "channel": 5,
      "note": 85,
      "start": 2.1905,
      "duration": 0.0475,
      "velocity": 98,
      "chip": "ym2612"
    },
    {
      "channel": 0,
      "note": 81,
      "start": 2.2315,
      "duration": 0.0476,
      "velocity": 98,
      "chip": "ym2612"
    },
    {
      "channel": 4,
      "note": 85,
      "start": 2.2319,
      "duration": 0.0473,
      "velocity": 98,
      "chip": "ym2612"
    },
    {
      "channel": 1,
      "note": 81,
      "start": 2.2727,
      "duration": 0.0477,
      "velocity": 98,
      "chip": "ym2612"
    },
    {
      "channel": 5,
      "note": 85,
      "start": 2.2731,
      "duration": 0.0473,
      "velocity": 98,
      "chip": "ym2612"
    },
    {
      "channel": 0,
      "note": 81,
      "start": 2.314,
      "duration": 0.0476,
      "velocity": 98,
      "chip": "ym2612"
    },
    {
      "channel": 4,
      "note": 85,
      "start": 2.3148,
      "duration": 0.0469,
      "velocity": 98,
      "chip": "ym2612"
    },
    {
      "channel": 1,
      "note": 81,
      "start": 2.3553,
      "duration": 0.0476,
      "velocity": 98,
      "chip": "ym2612"
    },
    {
      "channel": 5,
      "note": 85,
      "start": 2.3558,
      "duration": 0.0472,
      "velocity": 98,
      "chip": "ym2612"
    },
    {
      "channel": 0,
      "note": 81,
      "start": 2.3963,
      "duration": 0.0478,
      "velocity": 98,
      "chip": "ym2612"
    },
    {
      "channel": 4,
      "note": 85,
      "start": 2.3968,
      "duration": 0.0474,
      "velocity": 98,
      "chip": "ym2612"
    },
    {
      "channel": 1,
      "note": 81,
      "start": 2.4376,
      "duration": 0.0478,
      "velocity": 98,
      "chip": "ym2612"
    },
    {
      "channel": 5,
      "note": 85,
      "start": 2.4381,
      "duration": 0.0474,
      "velocity": 98,
      "chip": "ym2612"
    },
    {
      "channel": 0,
      "note": 81,
      "start": 2.4789,
      "duration": 0.0483,
      "velocity": 98,
      "chip": "ym2612"
    },
    {
      "channel": 2,
      "note": 36,
      "start": 2.4794,
      "duration": 0.0783,
      "velocity": 106,
      "chip": "ym2612"
    },
    {
      "channel": 3,
      "note": 36,
      "start": 2.4798,
      "duration": 0.078,
      "velocity": 106,
      "chip": "ym2612"
    },
    {
      "channel": 4,
      "note": 85,
      "start": 2.4803,
      "duration": 0.0469,
      "velocity": 98,
      "chip": "ym2612"
    },
    {
      "channel": 1,
      "note": 81,
      "start": 2.5202,
      "duration": 0.0477,
      "velocity": 98,
      "chip": "ym2612"
    },
    {
      "channel": 5,
      "note": 85,
      "start": 2.5206,
      "duration": 0.0474,
      "velocity": 98,
      "chip": "ym2612"
    },
    {
      "channel": 0,
      "note": 81,
      "start": 2.5615,
      "duration": 0.0477,
      "velocity": 98,
      "chip": "ym2612"
    },
    {
      "channel": 2,
      "note": 37,
      "start": 2.562,
      "duration": 0.0782,
      "velocity": 106,
      "chip": "ym2612"
    },
    {
      "channel": 3,
      "note": 37,
      "start": 2.5624,
      "duration": 0.0778,
      "velocity": 106,
      "chip": "ym2612"
    },
    {
      "channel": 4,
      "note": 85,
      "start": 2.5629,
      "duration": 0.0463,
      "velocity": 98,
      "chip": "ym2612"
    },
    {
      "channel": 1,
      "note": 81,
      "start": 2.6027,
      "duration": 0.0477,
      "velocity": 98,
      "chip": "ym2612"
    },
    {
      "channel": 5,
      "note": 85,
      "start": 2.6031,
      "duration": 0.0474,
      "velocity": 98,
      "chip": "ym2612"
    },
    {
      "channel": 0,
      "note": 86,
      "start": 2.6441,
      "duration": 0.0476,
      "velocity": 98,
      "chip": "ym2612"
    },
    {
      "channel": 2,
      "note": 38,
      "start": 2.6448,
      "duration": 1.1538,
      "velocity": 106,
      "chip": "ym2612"
    },
    {
      "channel": 3,
      "note": 38,
      "start": 2.6453,
      "duration": 1.1534,
      "velocity": 106,
      "chip": "ym2612"
    },
    {
      "channel": 4,
      "note": 90,
      "start": 2.6458,
      "duration": 0.0461,
      "velocity": 98,
      "chip": "ym2612"
    },
    {
      "channel": 1,
      "note": 81,
      "start": 2.6852,
      "duration": 0.0477,
      "velocity": 98,
      "chip": "ym2612"
    },
    {
      "channel": 5,
      "note": 85,
      "start": 2.6857,
      "duration": 0.0473,
      "velocity": 98,
      "chip": "ym2612"
    },
    {
      "channel": 0,
      "note": 86,
      "start": 2.7264,
      "duration": 0.0478,
      "velocity": 98,
      "chip": "ym2612"
    },
    {
      "channel": 4,
      "note": 90,
      "start": 2.7268,
      "duration": 0.0474,
      "velocity": 98,
      "chip": "ym2612"
    },
    {
      "channel": 1,
      "note": 86,
      "start": 2.7676,
      "duration": 0.0478,
      "velocity": 98,
      "chip": "ym2612"
    },
    {
      "channel": 5,
      "note": 90,
      "start": 2.7682,
      "duration": 0.0473,
      "velocity": 98,
      "chip": "ym2612"
    },
    {
      "channel": 0,
      "note": 86,
      "start": 2.809,
      "duration": 0.0477,
      "velocity": 98,
      "chip": "ym2612"
    },
    {
      "channel": 4,
      "note": 90,
      "start": 2.8094,
      "duration": 0.0473,
      "velocity": 98,
      "chip": "ym2612"
    },
    {
      "channel": 1,
      "note": 86,
      "start": 2.8501,
      "duration": 0.0479,
      "velocity": 98,
      "chip": "ym2612"
    },
    {
      "channel": 5,
      "note": 90,
      "start": 2.8506,
      "duration": 0.0475,
      "velocity": 98,
      "chip": "ym2612"
    },
    {
      "channel": 0,
      "note": 86,
      "start": 2.8914,
      "duration": 0.048,
      "velocity": 98,
      "chip": "ym2612"
    },
    {
      "channel": 4,
      "note": 90,
      "start": 2.8919,
      "duration": 0.0476,
      "velocity": 98,
      "chip": "ym2612"
    },
    {
      "channel": 1,
      "note": 86,
      "start": 2.9327,
      "duration": 0.048,
      "velocity": 98,
      "chip": "ym2612"
    },
    {
      "channel": 5,
      "note": 90,
      "start": 2.9331,
      "duration": 0.0477,
      "velocity": 98,
      "chip": "ym2612"
    },
    {
      "channel": 0,
      "note": 86,
      "start": 2.974,
      "duration": 0.0478,
      "velocity": 98,
      "chip": "ym2612"
    },
    {
      "channel": 4,
      "note": 90,
      "start": 2.9747,
      "duration": 0.0471,
      "velocity": 98,
      "chip": "ym2612"
    },
    {
      "channel": 1,
      "note": 86,
      "start": 3.0152,
      "duration": 0.0477,
      "velocity": 98,
      "chip": "ym2612"
    },
    {
      "channel": 5,
      "note": 90,
      "start": 3.0157,
      "duration": 0.0473,
      "velocity": 98,
      "chip": "ym2612"
    },
    {
      "channel": 0,
      "note": 86,
      "start": 3.0564,
      "duration": 0.0512,
      "velocity": 98,
      "chip": "ym2612"
    },
    {
      "channel": 4,
      "note": 90,
      "start": 3.0569,
      "duration": 0.0509,
      "velocity": 98,
      "chip": "ym2612"
    },
    {
      "channel": 1,
      "note": 86,
      "start": 3.0978,
      "duration": 0.0511,
      "velocity": 98,
      "chip": "ym2612"
    },
    {
      "channel": 5,
      "note": 90,
      "start": 3.0983,
      "duration": 0.0507,
      "velocity": 98,
      "chip": "ym2612"
    },
    {
      "channel": 0,
      "note": 86,
      "start": 3.1424,
      "duration": 0.0478,
      "velocity": 98,
      "chip": "ym2612"
    },
    {
      "channel": 4,
      "note": 90,
      "start": 3.1428,
      "duration": 0.0474,
      "velocity": 98,
      "chip": "ym2612"
    },
    {
      "channel": 1,
      "note": 86,
      "start": 3.1837,
      "duration": 0.0478,
      "velocity": 98,
      "chip": "ym2612"
    },
    {
      "channel": 5,
      "note": 90,
      "start": 3.1842,
      "duration": 0.0475,
      "velocity": 98,
      "chip": "ym2612"
    },
    {
      "channel": 0,
      "note": 86,
      "start": 3.2252,
      "duration": 0.0478,
      "velocity": 98,
      "chip": "ym2612"
    },
    {
      "channel": 4,
      "note": 90,
      "start": 3.2256,
      "duration": 0.0475,
      "velocity": 98,
      "chip": "ym2612"
    },
    {
      "channel": 1,
      "note": 86,
      "start": 3.2662,
      "duration": 0.0478,
      "velocity": 98,
      "chip": "ym2612"
    },
    {
      "channel": 5,
      "note": 90,
      "start": 3.2667,
      "duration": 0.0474,
      "velocity": 98,
      "chip": "ym2612"
    },
    {
      "channel": 0,
      "note": 87,
      "start": 3.3075,
      "duration": 0.0478,
      "velocity": 98,
      "chip": "ym2612"
    },
    {
      "channel": 4,
      "note": 91,
      "start": 3.3079,
      "duration": 0.0474,
      "velocity": 98,
      "chip": "ym2612"
    },
    {
      "channel": 1,
      "note": 86,
      "start": 3.3487,
      "duration": 0.0478,
      "velocity": 98,
      "chip": "ym2612"
    },
    {
      "channel": 5,
      "note": 90,
      "start": 3.3491,
      "duration": 0.0474,
      "velocity": 98,
      "chip": "ym2612"
    },
    {
      "channel": 0,
      "note": 87,
      "start": 3.39,
      "duration": 0.0477,
      "velocity": 98,
      "chip": "ym2612"
    },
    {
      "channel": 4,
      "note": 91,
      "start": 3.3905,
      "duration": 0.0473,
      "velocity": 98,
      "chip": "ym2612"
    },
    {
      "channel": 1,
      "note": 87,
      "start": 3.4312,
      "duration": 0.0478,
      "velocity": 98,
      "chip": "ym2612"
    },
    {
      "channel": 5,
      "note": 91,
      "start": 3.4316,
      "duration": 0.0474,
      "velocity": 98,
      "chip": "ym2612"
    },
    {
      "channel": 0,
      "note": 87,
      "start": 3.4725,
      "duration": 0.0477,
      "velocity": 98,
      "chip": "ym2612"
    },
    {
      "channel": 4,
      "note": 91,
      "start": 3.473,
      "duration": 0.0473,
      "velocity": 98,
      "chip": "ym2612"
    },
    {
      "channel": 1,
      "note": 87,
      "start": 3.5138,
      "duration": 0.0477,
      "velocity": 98,
      "chip": "ym2612"
    },
    {
      "channel": 5,
      "note": 91,
      "start": 3.5144,
      "duration": 0.0473,
      "velocity": 98,
      "chip": "ym2612"
    },
    {
      "channel": 0,
      "note": 87,
      "start": 3.5552,
      "duration": 0.0476,
      "velocity": 98,
      "chip": "ym2612"
    },
    {
      "channel": 4,
      "note": 91,
      "start": 3.5556,
      "duration": 0.0473,
      "velocity": 98,
      "chip": "ym2612"
    },
    {
      "channel": 1,
      "note": 87,
      "start": 3.5963,
      "duration": 0.0477,
      "velocity": 98,
      "chip": "ym2612"
    },
    {
      "channel": 5,
      "note": 91,
      "start": 3.5968,
      "duration": 0.0473,
      "velocity": 98,
      "chip": "ym2612"
    },
    {
      "channel": 0,
      "note": 87,
      "start": 3.6374,
      "duration": 0.0479,
      "velocity": 98,
      "chip": "ym2612"
    },
    {
      "channel": 4,
      "note": 91,
      "start": 3.6379,
      "duration": 0.0475,
      "velocity": 98,
      "chip": "ym2612"
    },
    {
      "channel": 1,
      "note": 87,
      "start": 3.6788,
      "duration": 0.0477,
      "velocity": 98,
      "chip": "ym2612"
    },
    {
      "channel": 5,
      "note": 91,
      "start": 3.6793,
      "duration": 0.0474,
      "velocity": 98,
      "chip": "ym2612"
    },
    {
      "channel": 0,
      "note": 87,
      "start": 3.72,
      "duration": 0.0477,
      "velocity": 98,
      "chip": "ym2612"
    },
    {
      "channel": 4,
      "note": 91,
      "start": 3.7205,
      "duration": 0.0474,
      "velocity": 98,
      "chip": "ym2612"
    },
    {
      "channel": 1,
      "note": 87,
      "start": 3.7613,
      "duration": 0.0478,
      "velocity": 98,
      "chip": "ym2612"
    },
    {
      "channel": 5,
      "note": 91,
      "start": 3.7618,
      "duration": 0.0474,
      "velocity": 98,
      "chip": "ym2612"
    },
    {
      "channel": 0,
      "note": 87,
      "start": 3.8025,
      "duration": 0.0478,
      "velocity": 98,
      "chip": "ym2612"
    },
    {
      "channel": 2,
      "note": 38,
      "start": 3.8029,
      "duration": 0.0783,
      "velocity": 106,
      "chip": "ym2612"
    },
    {
      "channel": 3,
      "note": 38,
      "start": 3.8034,
      "duration": 0.0779,
      "velocity": 106,
      "chip": "ym2612"
    },
    {
      "channel": 4,
      "note": 91,
      "start": 3.8039,
      "duration": 0.0464,
      "velocity": 98,
      "chip": "ym2612"
    },
    {
      "channel": 1,
      "note": 87,
      "start": 3.8437,
      "duration": 0.0478,
      "velocity": 98,
      "chip": "ym2612"
    },
    {
      "channel": 5,
      "note": 91,
      "start": 3.8442,
      "duration": 0.0474,
      "velocity": 98,
      "chip": "ym2612"
    },
    {
      "channel": 0,
      "note": 87,
      "start": 3.8852,
      "duration": 0.0476,
      "velocity": 98,
      "chip": "ym2612"
    },
    {
      "channel": 2,
      "note": 39,
      "start": 3.8857,
      "duration": 0.078,
      "velocity": 106,
      "chip": "ym2612"
    },
    {
      "channel": 3,
      "note": 39,
      "start": 3.8862,
      "duration": 0.0776,
      "velocity": 106,
      "chip": "ym2612"
    },
    {
      "channel": 4,
      "note": 91,
      "start": 3.8866,
      "duration": 0.0463,
      "velocity": 98,
      "chip": "ym2612"
    },
    {
      "channel": 1,
      "note": 87,
      "start": 3.9263,
      "duration": 0.0477,
      "velocity": 98,
      "chip": "ym2612"
    },
    {
      "channel": 5,
      "note": 91,
      "start": 3.9268,
      "duration": 0.0473,
      "velocity": 98,
      "chip": "ym2612"
    },
    {
      "channel": 0,
      "note": 80,
      "start": 3.9676,
      "duration": 0.0477,
      "velocity": 98,
      "chip": "ym2612"
    },
    {
      "channel": 2,
      "note": 40,
      "start": 3.9681,
      "duration": 1.1543,
      "velocity": 106,
      "chip": "ym2612"
    },
    {
      "channel": 3,
      "note": 40,
      "start": 3.9686,
      "duration": 1.1539,
      "velocity": 106,
      "chip": "ym2612"
    },
    {
      "channel": 4,
      "note": 84,
      "start": 3.969,
      "duration": 0.0463,
      "velocity": 98,
      "chip": "ym2612"
    },
    {
      "channel": 1,
      "note": 87,
      "start": 4.0092,
      "duration": 0.0473,
      "velocity": 98,
      "chip": "ym2612"
    },
    {
      "channel": 5,
      "note": 91,
      "start": 4.0097,
      "duration": 0.047,
      "velocity": 98,
      "chip": "ym2612"
    },
    {
      "channel": 0,
      "note": 80,
      "start": 4.05,
      "duration": 0.0479,
      "velocity": 98,
      "chip": "ym2612"
    },
    {
      "channel": 4,
      "note": 84,
      "start": 4.0505,
      "duration": 0.0475,
      "velocity": 98,
      "chip": "ym2612"
    },
    {
      "channel": 1,
      "note": 80,
      "start": 4.0913,
      "duration": 0.0486,
      "velocity": 98,
      "chip": "ym2612"
    },
    {
      "channel": 5,
      "note": 84,
      "start": 4.0917,
      "duration": 0.0483,
      "velocity": 98,
      "chip": "ym2612"
    },
    {
      "channel": 0,
      "note": 80,
      "start": 4.1325,
      "duration": 0.0478,
      "velocity": 98,
      "chip": "ym2612"
    },
    {
      "channel": 4,
      "note": 84,
      "start": 4.133,
      "duration": 0.0474,
      "velocity": 98,
      "chip": "ym2612"
    },
    {
      "channel": 1,
      "note": 80,
      "start": 4.1738,
      "duration": 0.0479,
      "velocity": 98,
      "chip": "ym2612"
    },
    {
      "channel": 5,
      "note": 84,
      "start": 4.1742,
      "duration": 0.0475,
      "velocity": 98,
      "chip": "ym2612"
    },
    {
      "channel": 0,
      "note": 80,
      "start": 4.2152,
      "duration": 0.0476,
      "velocity": 98,
      "chip": "ym2612"
    },
    {
      "channel": 4,
      "note": 84,
      "start": 4.2157,
      "duration": 0.0472,
      "velocity": 98,
      "chip": "ym2612"
    },
    {
      "channel": 1,
      "note": 80,
      "start": 4.2564,
      "duration": 0.0477,
      "velocity": 98,
      "chip": "ym2612"
    },
    {
      "channel": 5,
      "note": 84,
      "start": 4.2568,
      "duration": 0.0473,
      "velocity": 98,
      "chip": "ym2612"
    },
    {
      "channel": 0,
      "note": 80,
      "start": 4.2976,
      "duration": 0.0478,
      "velocity": 98,
      "chip": "ym2612"
    },
    {
      "channel": 4,
      "note": 84,
      "start": 4.298,
      "duration": 0.0474,
      "velocity": 98,
      "chip": "ym2612"
    },
    {
      "channel": 1,
      "note": 80,
      "start": 4.3389,
      "duration": 0.0477,
      "velocity": 98,
      "chip": "ym2612"
    },
    {
      "channel": 5,
      "note": 84,
      "start": 4.3393,
      "duration": 0.0473,
      "velocity": 98,
      "chip": "ym2612"
    },
    {
      "channel": 0,
      "note": 80,
      "start": 4.3801,
      "duration": 0.0478,
      "velocity": 98,
      "chip": "ym2612"
    },
    {
      "channel": 4,
      "note": 84,
      "start": 4.3805,
      "duration": 0.0475,
      "velocity": 98,
      "chip": "ym2612"
    },
    {
      "channel": 1,
      "note": 80,
      "start": 4.4215,
      "duration": 0.0477,
      "velocity": 98,
      "chip": "ym2612"
    },
    {
      "channel": 5,
      "note": 84,
      "start": 4.422,
      "duration": 0.0473,
      "velocity": 98,
      "chip": "ym2612"
    },
    {
      "channel": 0,
      "note": 80,
      "start": 4.4626,
      "duration": 0.0479,
      "velocity": 98,
      "chip": "ym2612"
    },
    {
      "channel": 4,
      "note": 84,
      "start": 4.463,
      "duration": 0.0475,
      "velocity": 98,
      "chip": "ym2612"
    },
    {
      "channel": 1,
      "note": 80,
      "start": 4.5038,
      "duration": 0.0478,
      "velocity": 98,
      "chip": "ym2612"
    },
    {
      "channel": 5,
      "note": 84,
      "start": 4.5043,
      "duration": 0.0474,
      "velocity": 98,
      "chip": "ym2612"
    },
    {
      "channel": 0,
      "note": 80,
      "start": 4.5453,
      "duration": 0.0476,
      "velocity": 98,
      "chip": "ym2612"
    },
    {
      "channel": 4,
      "note": 84,
      "start": 4.5457,
      "duration": 0.0472,
      "velocity": 98,
      "chip": "ym2612"
    },
    {
      "channel": 1,
      "note": 80,
      "start": 4.5864,
      "duration": 0.0477,
      "velocity": 98,
      "chip": "ym2612"
    },
    {
      "channel": 5,
      "note": 84,
      "start": 4.5869,
      "duration": 0.0473,
      "velocity": 98,
      "chip": "ym2612"
    },
    {
      "channel": 0,
      "note": 81,
      "start": 4.6276,
      "duration": 0.0478,
      "velocity": 98,
      "chip": "ym2612"
    },
    {
      "channel": 4,
      "note": 85,
      "start": 4.628,
      "duration": 0.0475,
      "velocity": 98,
      "chip": "ym2612"
    },
    {
      "channel": 1,
      "note": 80,
      "start": 4.669,
      "duration": 0.0477,
      "velocity": 98,
      "chip": "ym2612"
    },
    {
      "channel": 5,
      "note": 84,
      "start": 4.6694,
      "duration": 0.0473,
      "velocity": 98,
      "chip": "ym2612"
    },
    {
      "channel": 0,
      "note": 81,
      "start": 4.7102,
      "duration": 0.0477,
      "velocity": 98,
      "chip": "ym2612"
    },
    {
      "channel": 4,
      "note": 85,
      "start": 4.7107,
      "duration": 0.0473,
      "velocity": 98,
      "chip": "ym2612"
    },
    {
      "channel": 1,
      "note": 81,
      "start": 4.7514,
      "duration": 0.0479,
      "velocity": 98,
      "chip": "ym2612"
    },
    {
      "channel": 5,
      "note": 85,
      "start": 4.7518,
      "duration": 0.0475,
      "velocity": 98,
      "chip": "ym2612"
    },
    {
      "channel": 0,
      "note": 81,
      "start": 4.7927,
      "duration": 0.0476,
      "velocity": 98,
      "chip": "ym2612"
    },
    {
      "channel": 4,
      "note": 85,
      "start": 4.7932,
      "duration": 0.0473,
      "velocity": 98,
      "chip": "ym2612"
    },
    {
      "channel": 1,
      "note": 81,
      "start": 4.834,
      "duration": 0.0477,
      "velocity": 98,
      "chip": "ym2612"
    },
    {
      "channel": 5,
      "note": 85,
      "start": 4.8348,
      "duration": 0.0469,
      "velocity": 98,
      "chip": "ym2612"
    },
    {
      "channel": 0,
      "note": 81,
      "start": 4.8753,
      "duration": 0.0477,
      "velocity": 98,
      "chip": "ym2612"
    },
    {
      "channel": 4,
      "note": 85,
      "start": 4.8757,
      "duration": 0.0474,
      "velocity": 98,
      "chip": "ym2612"
    },
    {
      "channel": 1,
      "note": 81,
      "start": 4.9164,
      "duration": 0.0479,
      "velocity": 98,
      "chip": "ym2612"
    },
    {
      "channel": 5,
      "note": 85,
      "start": 4.9168,
      "duration": 0.0475,
      "velocity": 98,
      "chip": "ym2612"
    },
    {
      "channel": 0,
      "note": 81,
      "start": 4.9576,
      "duration": 0.0478,
      "velocity": 98,
      "chip": "ym2612"
    },
    {
      "channel": 4,
      "note": 85,
      "start": 4.9581,
      "duration": 0.0474,
      "velocity": 98,
      "chip": "ym2612"
    },
    {
      "channel": 1,
      "note": 81,
      "start": 4.999,
      "duration": 0.0511,
      "velocity": 98,
      "chip": "ym2612"
    },
    {
      "channel": 5,
      "note": 85,
      "start": 4.9995,
      "duration": 0.0507,
      "velocity": 98,
      "chip": "ym2612"
    },
    {
      "channel": 0,
      "note": 81,
      "start": 5.0436,
      "duration": 0.0479,
      "velocity": 98,
      "chip": "ym2612"
    },
    {
      "channel": 4,
      "note": 85,
      "start": 5.044,
      "duration": 0.0475,
      "velocity": 98,
      "chip": "ym2612"
    },
    {
      "channel": 1,
      "note": 81,
      "start": 5.0852,
      "duration": 0.0475,
      "velocity": 98,
      "chip": "ym2612"
    },
    {
      "channel": 5,
      "note": 85,
      "start": 5.0856,
      "duration": 0.0472,
      "velocity": 98,
      "chip": "ym2612"
    },
    {
      "channel": 0,
      "note": 81,
      "start": 5.1261,
      "duration": 0.0478,
      "velocity": 98,
      "chip": "ym2612"
    },
    {
      "channel": 2,
      "note": 43,
      "start": 5.1266,
      "duration": 0.0783,
      "velocity": 106,
      "chip": "ym2612"
    },
    {
      "channel": 3,
      "note": 43,
      "start": 5.1272,
      "duration": 0.0778,
      "velocity": 106,
      "chip": "ym2612"
    },
    {
      "channel": 4,
      "note": 85,
      "start": 5.1276,
      "duration": 0.0464,
      "velocity": 98,
      "chip": "ym2612"
    },
    {
      "channel": 1,
      "note": 81,
      "start": 5.1675,
      "duration": 0.0478,
      "velocity": 98,
      "chip": "ym2612"
    },
    {
      "channel": 5,
      "note": 85,
      "start": 5.168,
      "duration": 0.0474,
      "velocity": 98,
      "chip": "ym2612"
    },
    {
      "channel": 0,
      "note": 81,
      "start": 5.2086,
      "duration": 0.0478,
      "velocity": 98,
      "chip": "ym2612"
    },
    {
      "channel": 2,
      "note": 42,
      "start": 5.2091,
      "duration": 0.0783,
      "velocity": 106,
      "chip": "ym2612"
    },
    {
      "channel": 3,
      "note": 42,
      "start": 5.2096,
      "duration": 0.0779,
      "velocity": 106,
      "chip": "ym2612"
    },
    {
      "channel": 4,
      "note": 85,
      "start": 5.21,
      "duration": 0.0465,
      "velocity": 98,
      "chip": "ym2612"
    },
    {
      "channel": 1,
      "note": 81,
      "start": 5.2499,
      "duration": 0.0478,
      "velocity": 98,
      "chip": "ym2612"
    },
    {
      "channel": 5,
      "note": 85,
      "start": 5.2503,
      "duration": 0.0475,
      "velocity": 98,
      "chip": "ym2612"
    },
    {
      "channel": 0,
      "note": 89,
      "start": 5.2912,
      "duration": 0.0478,
      "velocity": 98,
      "chip": "ym2612"
    },
    {
      "channel": 2,
      "note": 41,
      "start": 5.2916,
      "duration": 1.151,
      "velocity": 106,
      "chip": "ym2612"
    },
    {
      "channel": 3,
      "note": 41,
      "start": 5.2921,
      "duration": 1.1506,
      "velocity": 106,
      "chip": "ym2612"
    },
    {
      "channel": 4,
      "note": 92,
      "start": 5.2926,
      "duration": 0.0465,
      "velocity": 98,
      "chip": "ym2612"
    },
    {
      "channel": 1,
      "note": 81,
      "start": 5.3325,
      "duration": 0.0477,
      "velocity": 98,
      "chip": "ym2612"
    },
    {
      "channel": 5,
      "note": 85,
      "start": 5.3329,
      "duration": 0.0473,
      "velocity": 98,
      "chip": "ym2612"
    },
    {
      "channel": 0,
      "note": 89,
      "start": 5.3736,
      "duration": 0.0478,
      "velocity": 98,
      "chip": "ym2612"
    },
    {
      "channel": 4,
      "note": 92,
      "start": 5.3741,
      "duration": 0.0474,
      "velocity": 98,
      "chip": "ym2612"
    },
    {
      "channel": 1,
      "note": 89,
      "start": 5.4151,
      "duration": 0.0475,
      "velocity": 98,
      "chip": "ym2612"
    },
    {
      "channel": 5,
      "note": 92,
      "start": 5.4156,
      "duration": 0.0472,
      "velocity": 98,
      "chip": "ym2612"
    },
    {
      "channel": 0,
      "note": 89,
      "start": 5.4561,
      "duration": 0.0478,
      "velocity": 98,
      "chip": "ym2612"
    },
    {
      "channel": 4,
      "note": 92,
      "start": 5.4566,
      "duration": 0.0474,
      "velocity": 98,
      "chip": "ym2612"
    },
    {
      "channel": 1,
      "note": 89,
      "start": 5.4975,
      "duration": 0.0477,
      "velocity": 98,
      "chip": "ym2612"
    },
    {
      "channel": 5,
      "note": 92,
      "start": 5.498,
      "duration": 0.0473,
      "velocity": 98,
      "chip": "ym2612"
    },
    {
      "channel": 0,
      "note": 89,
      "start": 5.5387,
      "duration": 0.0478,
      "velocity": 98,
      "chip": "ym2612"
    },
    {
      "channel": 4,
      "note": 92,
      "start": 5.5391,
      "duration": 0.0474,
      "velocity": 98,
      "chip": "ym2612"
    },
    {
      "channel": 1,
      "note": 89,
      "start": 5.58,
      "duration": 0.0477,
      "velocity": 98,
      "chip": "ym2612"
    },
    {
      "channel": 5,
      "note": 92,
      "start": 5.5806,
      "duration": 0.0473,
      "velocity": 98,
      "chip": "ym2612"
    },
    {
      "channel": 0,
      "note": 89,
      "start": 5.622,
      "duration": 0.0469,
      "velocity": 98,
      "chip": "ym2612"
    },
    {
      "channel": 4,
      "note": 92,
      "start": 5.6224,
      "duration": 0.0466,
      "velocity": 98,
      "chip": "ym2612"
    },
    {
      "channel": 1,
      "note": 89,
      "start": 5.6624,
      "duration": 0.0479,
      "velocity": 98,
      "chip": "ym2612"
    },
    {
      "channel": 5,
      "note": 92,
      "start": 5.6629,
      "duration": 0.0475,
      "velocity": 98,
      "chip": "ym2612"
    },
    {
      "channel": 0,
      "note": 89,
      "start": 5.7037,
      "duration": 0.0478,
      "velocity": 98,
      "chip": "ym2612"
    },
    {
      "channel": 4,
      "note": 92,
      "start": 5.7041,
      "duration": 0.0474,
      "velocity": 98,
      "chip": "ym2612"
    },
    {
      "channel": 1,
      "note": 89,
      "start": 5.7452,
      "duration": 0.0479,
      "velocity": 98,
      "chip": "ym2612"
    },
    {
      "channel": 5,
      "note": 92,
      "start": 5.7456,
      "duration": 0.0476,
      "velocity": 98,
      "chip": "ym2612"
    },
    {
      "channel": 0,
      "note": 89,
      "start": 5.7862,
      "duration": 0.0478,
      "velocity": 98,
      "chip": "ym2612"
    },
    {
      "channel": 4,
      "note": 92,
      "start": 5.7866,
      "duration": 0.0475,
      "velocity": 98,
      "chip": "ym2612"
    },
    {
      "channel": 1,
      "note": 89,
      "start": 5.8275,
      "duration": 0.0479,
      "velocity": 98,
      "chip": "ym2612"
    },
    {
      "channel": 5,
      "note": 92,
      "start": 5.8279,
      "duration": 0.0475,
      "velocity": 98,
      "chip": "ym2612"
    },
    {
      "channel": 0,
      "note": 89,
      "start": 5.8688,
      "duration": 0.0477,
      "velocity": 98,
      "chip": "ym2612"
    },
    {
      "channel": 4,
      "note": 92,
      "start": 5.8693,
      "duration": 0.0473,
      "velocity": 98,
      "chip": "ym2612"
    },
    {
      "channel": 1,
      "note": 89,
      "start": 5.91,
      "duration": 0.0478,
      "velocity": 98,
      "chip": "ym2612"
    },
    {
      "channel": 5,
      "note": 92,
      "start": 5.9104,
      "duration": 0.0474,
      "velocity": 98,
      "chip": "ym2612"
    },
    {
      "channel": 0,
      "note": 90,
      "start": 5.9513,
      "duration": 0.0477,
      "velocity": 98,
      "chip": "ym2612"
    },
    {
      "channel": 4,
      "note": 93,
      "start": 5.9517,
      "duration": 0.0474,
      "velocity": 98,
      "chip": "ym2612"
    },
    {
      "channel": 1,
      "note": 89,
      "start": 5.9926,
      "duration": 0.0478,
      "velocity": 98,
      "chip": "ym2612"
    },
    {
      "channel": 5,
      "note": 92,
      "start": 5.993,
      "duration": 0.0474,
      "velocity": 98,
      "chip": "ym2612"
    },
    {
      "channel": 0,
      "note": 90,
      "start": 6.0339,
      "duration": 0.0476,
      "velocity": 98,
      "chip": "ym2612"
    },
    {
      "channel": 4,
      "note": 93,
      "start": 6.0344,
      "duration": 0.0472,
      "velocity": 98,
      "chip": "ym2612"
    },
    {
      "channel": 1,
      "note": 90,
      "start": 6.0752,
      "duration": 0.0476,
      "velocity": 98,
      "chip": "ym2612"
    },
    {
      "channel": 5,
      "note": 93,
      "start": 6.0757,
      "duration": 0.0472,
      "velocity": 98,
      "chip": "ym2612"
    },
    {
      "channel": 0,
      "note": 90,
      "start": 6.1163,
      "duration": 0.0478,
      "velocity": 98,
      "chip": "ym2612"
    },
    {
      "channel": 4,
      "note": 93,
      "start": 6.1168,
      "duration": 0.0474,
      "velocity": 98,
      "chip": "ym2612"
    },
    {
      "channel": 1,
      "note": 90,
      "start": 6.1575,
      "duration": 0.0479,
      "velocity": 98,
      "chip": "ym2612"
    },
    {
      "channel": 5,
      "note": 93,
      "start": 6.158,
      "duration": 0.0475,
      "velocity": 98,
      "chip": "ym2612"
    },
    {
      "channel": 0,
      "note": 90,
      "start": 6.1989,
      "duration": 0.0477,
      "velocity": 98,
      "chip": "ym2612"
    },
    {
      "channel": 4,
      "note": 93,
      "start": 6.1993,
      "duration": 0.0473,
      "velocity": 98,
      "chip": "ym2612"
    },
    {
      "channel": 1,
      "note": 90,
      "start": 6.2401,
      "duration": 0.0477,
      "velocity": 98,
      "chip": "ym2612"
    },
    {
      "channel": 5,
      "note": 93,
      "start": 6.2406,
      "duration": 0.0473,
      "velocity": 98,
      "chip": "ym2612"
    },
    {
      "channel": 0,
      "note": 90,
      "start": 6.2814,
      "duration": 0.0477,
      "velocity": 98,
      "chip": "ym2612"
    },
    {
      "channel": 4,
      "note": 93,
      "start": 6.2818,
      "duration": 0.0473,
      "velocity": 98,
      "chip": "ym2612"
    },
    {
      "channel": 1,
      "note": 90,
      "start": 6.3225,
      "duration": 0.0479,
      "velocity": 98,
      "chip": "ym2612"
    },
    {
      "channel": 5,
      "note": 93,
      "start": 6.323,
      "duration": 0.0475,
      "velocity": 98,
      "chip": "ym2612"
    },
    {
      "channel": 0,
      "note": 90,
      "start": 6.3639,
      "duration": 0.0477,
      "velocity": 98,
      "chip": "ym2612"
    },
    {
      "channel": 4,
      "note": 93,
      "start": 6.3643,
      "duration": 0.0473,
      "velocity": 98,
      "chip": "ym2612"
    },
    {
      "channel": 1,
      "note": 90,
      "start": 6.4052,
      "duration": 0.0477,
      "velocity": 98,
      "chip": "ym2612"
    },
    {
      "channel": 5,
      "note": 93,
      "start": 6.4056,
      "duration": 0.0473,
      "velocity": 98,
      "chip": "ym2612"
    },
    {
      "channel": 0,
      "note": 90,
      "start": 6.4464,
      "duration": 0.0477,
      "velocity": 98,
      "chip": "ym2612"
    },
    {
      "channel": 2,
      "note": 39,
      "start": 6.4469,
      "duration": 0.1606,
      "velocity": 106,
      "chip": "ym2612"
    },
    {
      "channel": 3,
      "note": 39,
      "start": 6.4475,
      "duration": 0.1602,
      "velocity": 106,
      "chip": "ym2612"
    },
    {
      "channel": 4,
      "note": 93,
      "start": 6.4479,
      "duration": 0.0462,
      "velocity": 98,
      "chip": "ym2612"
    },
    {
      "channel": 1,
      "note": 90,
      "start": 6.4876,
      "duration": 0.0477,
      "velocity": 98,
      "chip": "ym2612"
    },
    {
      "channel": 5,
      "note": 93,
      "start": 6.4881,
      "duration": 0.0473,
      "velocity": 98,
      "chip": "ym2612"
    },
    {
      "channel": 0,
      "note": 90,
      "start": 6.5288,
      "duration": 0.0479,
      "velocity": 98,
      "chip": "ym2612"
    },
    {
      "channel": 4,
      "note": 93,
      "start": 6.5293,
      "duration": 0.0475,
      "velocity": 98,
      "chip": "ym2612"
    },
    {
      "channel": 1,
      "note": 90,
      "start": 6.5701,
      "duration": 0.0478,
      "velocity": 98,
      "chip": "ym2612"
    },
    {
      "channel": 5,
      "note": 93,
      "start": 6.5705,
      "duration": 0.0474,
      "velocity": 98,
      "chip": "ym2612"
    },
    {
      "channel": 0,
      "note": 85,
      "start": 6.6114,
      "duration": 0.0485,
      "velocity": 98,
      "chip": "ym2612"
    },
    {
      "channel": 2,
      "note": 38,
      "start": 6.6118,
      "duration": 1.3193,
      "velocity": 106,
      "chip": "ym2612"
    },
    {
      "channel": 3,
      "note": 38,
      "start": 6.6123,
      "duration": 1.3189,
      "velocity": 106,
      "chip": "ym2612"
    },
    {
      "channel": 4,
      "note": 89,
      "start": 6.6128,
      "duration": 0.0472,
      "velocity": 98,
      "chip": "ym2612"
    },
    {
      "channel": 1,
      "note": 90,
      "start": 6.6526,
      "duration": 0.0478,
      "velocity": 98,
      "chip": "ym2612"
    },
    {
      "channel": 5,
      "note": 93,
      "start": 6.653,
      "duration": 0.0474,
      "velocity": 98,
      "chip": "ym2612"
    },
    {
      "channel": 0,
      "note": 85,
      "start": 6.694,
      "duration": 0.0476,
      "velocity": 98,
      "chip": "ym2612"
    },
    {
      "channel": 4,
      "note": 89,
      "start": 6.6944,
      "duration": 0.0473,
      "velocity": 98,
      "chip": "ym2612"
    },
    {
      "channel": 1,
      "note": 85,
      "start": 6.7352,
      "duration": 0.0477,
      "velocity": 98,
      "chip": "ym2612"
    },
    {
      "channel": 5,
      "note": 89,
      "start": 6.7357,
      "duration": 0.0473,
      "velocity": 98,
      "chip": "ym2612"
    },
    {
      "channel": 0,
      "note": 85,
      "start": 6.7764,
      "duration": 0.0477,
      "velocity": 98,
      "chip": "ym2612"
    },
    {
      "channel": 4,
      "note": 89,
      "start": 6.7768,
      "duration": 0.0473,
      "velocity": 98,
      "chip": "ym2612"
    },
    {
      "channel": 1,
      "note": 85,
      "start": 6.8177,
      "duration": 0.0477,
      "velocity": 98,
      "chip": "ym2612"
    },
    {
      "channel": 5,
      "note": 89,
      "start": 6.8182,
      "duration": 0.0473,
      "velocity": 98,
      "chip": "ym2612"
    },
    {
      "channel": 0,
      "note": 85,
      "start": 6.8588,
      "duration": 0.0479,
      "velocity": 98,
      "chip": "ym2612"
    },
    {
      "channel": 4,
      "note": 89,
      "start": 6.8593,
      "duration": 0.0475,
      "velocity": 98,
      "chip": "ym2612"
    },
    {
      "channel": 1,
      "note": 85,
      "start": 6.9001,
      "duration": 0.0478,
      "velocity": 98,
      "chip": "ym2612"
    },
    {
      "channel": 5,
      "note": 89,
      "start": 6.9006,
      "duration": 0.0474,
      "velocity": 98,
      "chip": "ym2612"
    },
    {
      "channel": 0,
      "note": 85,
      "start": 6.9416,
      "duration": 0.0476,
      "velocity": 98,
      "chip": "ym2612"
    },
    {
      "channel": 4,
      "note": 89,
      "start": 6.942,
      "duration": 0.0472,
      "velocity": 98,
      "chip": "ym2612"
    },
    {
      "channel": 1,
      "note": 85,
      "start": 6.9829,
      "duration": 0.0476,
      "velocity": 98,
      "chip": "ym2612"
    },
    {
      "channel": 5,
      "note": 89,
      "start": 6.9834,
      "duration": 0.0472,
      "velocity": 98,
      "chip": "ym2612"
    },
    {
      "channel": 0,
      "note": 85,
      "start": 7.0239,
      "duration": 0.0478,
      "velocity": 98,
      "chip": "ym2612"
    },
    {
      "channel": 4,
      "note": 89,
      "start": 7.0243,
      "duration": 0.0474,
      "velocity": 98,
      "chip": "ym2612"
    },
    {
      "channel": 1,
      "note": 85,
      "start": 7.0653,
      "duration": 0.0482,
      "velocity": 98,
      "chip": "ym2612"
    },
    {
      "channel": 5,
      "note": 89,
      "start": 7.0657,
      "duration": 0.0479,
      "velocity": 98,
      "chip": "ym2612"
    },
    {
      "channel": 0,
      "note": 85,
      "start": 7.1064,
      "duration": 0.0478,
      "velocity": 98,
      "chip": "ym2612"
    },
    {
      "channel": 4,
      "note": 89,
      "start": 7.1068,
      "duration": 0.0474,
      "velocity": 98,
      "chip": "ym2612"
    },
    {
      "channel": 1,
      "note": 85,
      "start": 7.1477,
      "duration": 0.0478,
      "velocity": 98,
      "chip": "ym2612"
    },
    {
      "channel": 5,
      "note": 89,
      "start": 7.1482,
      "duration": 0.0474,
      "velocity": 98,
      "chip": "ym2612"
    },
    {
      "channel": 0,
      "note": 85,
      "start": 7.189,
      "duration": 0.0478,
      "velocity": 98,
      "chip": "ym2612"
    },
    {
      "channel": 4,
      "note": 89,
      "start": 7.1895,
      "duration": 0.0474,
      "velocity": 98,
      "chip": "ym2612"
    },
    {
      "channel": 1,
      "note": 85,
      "start": 7.2302,
      "duration": 0.0478,
      "velocity": 98,
      "chip": "ym2612"
    },
    {
      "channel": 5,
      "note": 89,
      "start": 7.2306,
      "duration": 0.0474,
      "velocity": 98,
      "chip": "ym2612"
    },
    {
      "channel": 0,
      "note": 86,
      "start": 7.2714,
      "duration": 0.0479,
      "velocity": 98,
      "chip": "ym2612"
    },
    {
      "channel": 4,
      "note": 89,
      "start": 7.2719,
      "duration": 0.0475,
      "velocity": 98,
      "chip": "ym2612"
    },
    {
      "channel": 1,
      "note": 85,
      "start": 7.3128,
      "duration": 0.0477,
      "velocity": 98,
      "chip": "ym2612"
    },
    {
      "channel": 5,
      "note": 89,
      "start": 7.3132,
      "duration": 0.0473,
      "velocity": 98,
      "chip": "ym2612"
    },
    {
      "channel": 0,
      "note": 86,
      "start": 7.3539,
      "duration": 0.0478,
      "velocity": 98,
      "chip": "ym2612"
    },
    {
      "channel": 4,
      "note": 89,
      "start": 7.3548,
      "duration": 0.0471,
      "velocity": 98,
      "chip": "ym2612"
    },
    {
      "channel": 1,
      "note": 86,
      "start": 7.3953,
      "duration": 0.0477,
      "velocity": 98,
      "chip": "ym2612"
    },
    {
      "channel": 5,
      "note": 89,
      "start": 7.3957,
      "duration": 0.0473,
      "velocity": 98,
      "chip": "ym2612"
    },
    {
      "channel": 0,
      "note": 86,
      "start": 7.4364,
      "duration": 0.0479,
      "velocity": 98,
      "chip": "ym2612"
    },
    {
      "channel": 4,
      "note": 89,
      "start": 7.4369,
      "duration": 0.0475,
      "velocity": 98,
      "chip": "ym2612"
    },
    {
      "channel": 1,
      "note": 86,
      "start": 7.4778,
      "duration": 0.0477,
      "velocity": 98,
      "chip": "ym2612"
    },
    {
      "channel": 5,
      "note": 89,
      "start": 7.4783,
      "duration": 0.0473,
      "velocity": 98,
      "chip": "ym2612"
    },
    {
      "channel": 0,
      "note": 86,
      "start": 7.519,
      "duration": 0.048,
      "velocity": 98,
      "chip": "ym2612"
    },
    {
      "channel": 4,
      "note": 89,
      "start": 7.5195,
      "duration": 0.0477,
      "velocity": 98,
      "chip": "ym2612"
    },
    {
      "channel": 1,
      "note": 86,
      "start": 7.5603,
      "duration": 0.0478,
      "velocity": 98,
      "chip": "ym2612"
    },
    {
      "channel": 5,
      "note": 89,
      "start": 7.5607,
      "duration": 0.0474,
      "velocity": 98,
      "chip": "ym2612"
    },
    {
      "channel": 0,
      "note": 86,
      "start": 7.6016,
      "duration": 0.0476,
      "velocity": 98,
      "chip": "ym2612"
    },
    {
      "channel": 4,
      "note": 89,
      "start": 7.602,
      "duration": 0.0473,
      "velocity": 98,
      "chip": "ym2612"
    },
    {
      "channel": 1,
      "note": 86,
      "start": 7.6428,
      "duration": 0.0477,
      "velocity": 98,
      "chip": "ym2612"
    },
    {
      "channel": 5,
      "note": 89,
      "start": 7.6433,
      "duration": 0.0473,
      "velocity": 98,
      "chip": "ym2612"
    },
    {
      "channel": 0,
      "note": 86,
      "start": 7.684,
      "duration": 0.0512,
      "velocity": 98,
      "chip": "ym2612"
    },
    {
      "channel": 4,
      "note": 89,
      "start": 7.6847,
      "duration": 0.0506,
      "velocity": 98,
      "chip": "ym2612"
    },
    {
      "channel": 1,
      "note": 86,
      "start": 7.7287,
      "duration": 0.0478,
      "velocity": 98,
      "chip": "ym2612"
    },
    {
      "channel": 5,
      "note": 89,
      "start": 7.7292,
      "duration": 0.0474,
      "velocity": 98,
      "chip": "ym2612"
    },
    {
      "channel": 0,
      "note": 86,
      "start": 7.7699,
      "duration": 0.0478,
      "velocity": 98,
      "chip": "ym2612"
    },
    {
      "channel": 4,
      "note": 89,
      "start": 7.7704,
      "duration": 0.0474,
      "velocity": 98,
      "chip": "ym2612"
    },
    {
      "channel": 1,
      "note": 86,
      "start": 7.8113,
      "duration": 0.0478,
      "velocity": 98,
      "chip": "ym2612"
    },
    {
      "channel": 5,
      "note": 89,
      "start": 7.8117,
      "duration": 0.0474,
      "velocity": 98,
      "chip": "ym2612"
    },
    {
      "channel": 0,
      "note": 86,
      "start": 7.8525,
      "duration": 0.0477,
      "velocity": 98,
      "chip": "ym2612"
    },
    {
      "channel": 4,
      "note": 89,
      "start": 7.853,
      "duration": 0.0473,
      "velocity": 98,
      "chip": "ym2612"
    },
    {
      "channel": 1,
      "note": 86,
      "start": 7.8938,
      "duration": 0.0477,
      "velocity": 98,
      "chip": "ym2612"
    },
    {
      "channel": 5,
      "note": 89,
      "start": 7.8943,
      "duration": 0.0473,
      "velocity": 98,
      "chip": "ym2612"
    },
    {
      "channel": 0,
      "note": 89,
      "start": 7.9352,
      "duration": 0.0475,
      "velocity": 98,
      "chip": "ym2612"
    },
    {
      "channel": 2,
      "note": 40,
      "start": 7.9357,
      "duration": 1.1506,
      "velocity": 106,
      "chip": "ym2612"
    },
    {
      "channel": 3,
      "note": 40,
      "start": 7.9362,
      "duration": 1.1502,
      "velocity": 106,
      "chip": "ym2612"
    },
    {
      "channel": 4,
      "note": 92,
      "start": 7.9366,
      "duration": 0.0462,
      "velocity": 98,
      "chip": "ym2612"
    },
    {
      "channel": 1,
      "note": 86,
      "start": 7.9763,
      "duration": 0.0477,
      "velocity": 98,
      "chip": "ym2612"
    },
    {
      "channel": 5,
      "note": 89,
      "start": 7.9767,
      "duration": 0.0474,
      "velocity": 98,
      "chip": "ym2612"
    },
    {
      "channel": 0,
      "note": 89,
      "start": 8.0176,
      "duration": 0.0478,
      "velocity": 98,
      "chip": "ym2612"
    },
    {
      "channel": 4,
      "note": 92,
      "start": 8.018,
      "duration": 0.0474,
      "velocity": 98,
      "chip": "ym2612"
    },
    {
      "channel": 1,
      "note": 89,
      "start": 8.0588,
      "duration": 0.0477,
      "velocity": 98,
      "chip": "ym2612"
    },
    {
      "channel": 5,
      "note": 92,
      "start": 8.0593,
      "duration": 0.0473,
      "velocity": 98,
      "chip": "ym2612"
    },
    {
      "channel": 0,
      "note": 89,
      "start": 8.1001,
      "duration": 0.0477,
      "velocity": 98,
      "chip": "ym2612"
    },
    {
      "channel": 4,
      "note": 92,
      "start": 8.1006,
      "duration": 0.0472,
      "velocity": 98,
      "chip": "ym2612"
    },
    {
      "channel": 1,
      "note": 89,
      "start": 8.142,
      "duration": 0.047,
      "velocity": 98,
      "chip": "ym2612"
    },
    {
      "channel": 5,
      "note": 92,
      "start": 8.1425,
      "duration": 0.0466,
      "velocity": 98,
      "chip": "ym2612"
    },
    {
      "channel": 0,
      "note": 89,
      "start": 8.1826,
      "duration": 0.0477,
      "velocity": 98,
      "chip": "ym2612"
    },
    {
      "channel": 4,
      "note": 92,
      "start": 8.1831,
      "duration": 0.0473,
      "velocity": 98,
      "chip": "ym2612"
    },
    {
      "channel": 1,
      "note": 89,
      "start": 8.2237,
      "duration": 0.048,
      "velocity": 98,
      "chip": "ym2612"
    },
    {
      "channel": 5,
      "note": 92,
      "start": 8.2242,
      "duration": 0.0476,
      "velocity": 98,
      "chip": "ym2612"
    },
    {
      "channel": 0,
      "note": 89,
      "start": 8.2653,
      "duration": 0.0478,
      "velocity": 98,
      "chip": "ym2612"
    },
    {
      "channel": 4,
      "note": 92,
      "start": 8.2657,
      "duration": 0.0475,
      "velocity": 98,
      "chip": "ym2612"
    },
    {
      "channel": 1,
      "note": 89,
      "start": 8.3063,
      "duration": 0.0478,
      "velocity": 98,
      "chip": "ym2612"
    },
    {
      "channel": 5,
      "note": 92,
      "start": 8.3068,
      "duration": 0.0474,
      "velocity": 98,
      "chip": "ym2612"
    },
    {
      "channel": 0,
      "note": 89,
      "start": 8.3475,
      "duration": 0.0478,
      "velocity": 98,
      "chip": "ym2612"
    },
    {
      "channel": 4,
      "note": 92,
      "start": 8.348,
      "duration": 0.0474,
      "velocity": 98,
      "chip": "ym2612"
    },
    {
      "channel": 1,
      "note": 89,
      "start": 8.3889,
      "duration": 0.0477,
      "velocity": 98,
      "chip": "ym2612"
    },
    {
      "channel": 5,
      "note": 92,
      "start": 8.3893,
      "duration": 0.0473,
      "velocity": 98,
      "chip": "ym2612"
    },
    {
      "channel": 0,
      "note": 89,
      "start": 8.43,
      "duration": 0.0478,
      "velocity": 98,
      "chip": "ym2612"
    },
    {
      "channel": 4,
      "note": 92,
      "start": 8.4305,
      "duration": 0.0475,
      "velocity": 98,
      "chip": "ym2612"
    },
    {
      "channel": 1,
      "note": 89,
      "start": 8.4714,
      "duration": 0.0477,
      "velocity": 98,
      "chip": "ym2612"
    },
    {
      "channel": 5,
      "note": 92,
      "start": 8.4718,
      "duration": 0.0473,
      "velocity": 98,
      "chip": "ym2612"
    },
    {
      "channel": 0,
      "note": 89,
      "start": 8.5126,
      "duration": 0.0477,
      "velocity": 98,
      "chip": "ym2612"
    },
    {
      "channel": 4,
      "note": 92,
      "start": 8.5131,
      "duration": 0.0474,
      "velocity": 98,
      "chip": "ym2612"
    },
    {
      "channel": 1,
      "note": 89,
      "start": 8.5539,
      "duration": 0.0478,
      "velocity": 98,
      "chip": "ym2612"
    },
    {
      "channel": 5,
      "note": 92,
      "start": 8.5544,
      "duration": 0.0474,
      "velocity": 98,
      "chip": "ym2612"
    },
    {
      "channel": 0,
      "note": 90,
      "start": 8.596,
      "duration": 0.0468,
      "velocity": 98,
      "chip": "ym2612"
    },
    {
      "channel": 4,
      "note": 93,
      "start": 8.5964,
      "duration": 0.0465,
      "velocity": 98,
      "chip": "ym2612"
    },
    {
      "channel": 1,
      "note": 89,
      "start": 8.6364,
      "duration": 0.0478,
      "velocity": 98,
      "chip": "ym2612"
    },
    {
      "channel": 5,
      "note": 92,
      "start": 8.6368,
      "duration": 0.0475,
      "velocity": 98,
      "chip": "ym2612"
    },
    {
      "channel": 0,
      "note": 90,
      "start": 8.6776,
      "duration": 0.0477,
      "velocity": 98,
      "chip": "ym2612"
    },
    {
      "channel": 4,
      "note": 93,
      "start": 8.6781,
      "duration": 0.0474,
      "velocity": 98,
      "chip": "ym2612"
    },
    {
      "channel": 1,
      "note": 90,
      "start": 8.7188,
      "duration": 0.0478,
      "velocity": 98,
      "chip": "ym2612"
    },
    {
      "channel": 5,
      "note": 93,
      "start": 8.7193,
      "duration": 0.0474,
      "velocity": 98,
      "chip": "ym2612"
    },
    {
      "channel": 0,
      "note": 90,
      "start": 8.7602,
      "duration": 0.0477,
      "velocity": 98,
      "chip": "ym2612"
    },
    {
      "channel": 4,
      "note": 93,
      "start": 8.7606,
      "duration": 0.0473,
      "velocity": 98,
      "chip": "ym2612"
    },
    {
      "channel": 1,
      "note": 90,
      "start": 8.8013,
      "duration": 0.0478,
      "velocity": 98,
      "chip": "ym2612"
    },
    {
      "channel": 5,
      "note": 93,
      "start": 8.8018,
      "duration": 0.0474,
      "velocity": 98,
      "chip": "ym2612"
    },
    {
      "channel": 0,
      "note": 90,
      "start": 8.8426,
      "duration": 0.0478,
      "velocity": 98,
      "chip": "ym2612"
    },
    {
      "channel": 4,
      "note": 93,
      "start": 8.843,
      "duration": 0.0474,
      "velocity": 98,
      "chip": "ym2612"
    },
    {
      "channel": 1,
      "note": 90,
      "start": 8.8838,
      "duration": 0.0478,
      "velocity": 98,
      "chip": "ym2612"
    },
    {
      "channel": 5,
      "note": 93,
      "start": 8.8843,
      "duration": 0.0474,
      "velocity": 98,
      "chip": "ym2612"
    },
    {
      "channel": 0,
      "note": 90,
      "start": 8.9253,
      "duration": 0.0477,
      "velocity": 98,
      "chip": "ym2612"
    },
    {
      "channel": 4,
      "note": 93,
      "start": 8.9257,
      "duration": 0.0473,
      "velocity": 98,
      "chip": "ym2612"
    },
    {
      "channel": 1,
      "note": 90,
      "start": 8.9664,
      "duration": 0.0478,
      "velocity": 98,
      "chip": "ym2612"
    },
    {
      "channel": 5,
      "note": 93,
      "start": 8.9668,
      "duration": 0.0475,
      "velocity": 98,
      "chip": "ym2612"
    },
    {
      "channel": 0,
      "note": 90,
      "start": 9.0077,
      "duration": 0.0477,
      "velocity": 98,
      "chip": "ym2612"
    },
    {
      "channel": 4,
      "note": 93,
      "start": 9.0082,
      "duration": 0.0473,
      "velocity": 98,
      "chip": "ym2612"
    },
    {
      "channel": 1,
      "note": 90,
      "start": 9.0492,
      "duration": 0.0474,
      "velocity": 98,
      "chip": "ym2612"
    },
    {
      "channel": 5,
      "note": 93,
      "start": 9.0497,
      "duration": 0.0471,
      "velocity": 98,
      "chip": "ym2612"
    },
    {
      "channel": 0,
      "note": 90,
      "start": 9.0901,
      "duration": 0.0479,
      "velocity": 98,
      "chip": "ym2612"
    },
    {
      "channel": 2,
      "note": 40,
      "start": 9.0906,
      "duration": 0.1608,
      "velocity": 106,
      "chip": "ym2612"
    },
    {
      "channel": 3,
      "note": 40,
      "start": 9.0911,
      "duration": 0.1604,
      "velocity": 106,
      "chip": "ym2612"
    },
    {
      "channel": 4,
      "note": 93,
      "start": 9.0915,
      "duration": 0.0465,
      "velocity": 98,
      "chip": "ym2612"
    },
    {
      "channel": 1,
      "note": 90,
      "start": 9.1314,
      "duration": 0.0478,
      "velocity": 98,
      "chip": "ym2612"
    },
    {
      "channel": 5,
      "note": 93,
      "start": 9.1318,
      "duration": 0.0474,
      "velocity": 98,
      "chip": "ym2612"
    },
    {
      "channel": 0,
      "note": 90,
      "start": 9.1726,
      "duration": 0.0478,
      "velocity": 98,
      "chip": "ym2612"
    },
    {
      "channel": 4,
      "note": 93,
      "start": 9.1731,
      "duration": 0.0474,
      "velocity": 98,
      "chip": "ym2612"
    },
    {
      "channel": 1,
      "note": 90,
      "start": 9.214,
      "duration": 0.0477,
      "velocity": 98,
      "chip": "ym2612"
    },
    {
      "channel": 5,
      "note": 93,
      "start": 9.2147,
      "duration": 0.0471,
      "velocity": 98,
      "chip": "ym2612"
    },
    {
      "channel": 0,
      "note": 85,
      "start": 9.2553,
      "duration": 0.0476,
      "velocity": 98,
      "chip": "ym2612"
    },
    {
      "channel": 2,
      "note": 41,
      "start": 9.2558,
      "duration": 1.3159,
      "velocity": 106,
      "chip": "ym2612"
    },
    {
      "channel": 3,
      "note": 41,
      "start": 9.2562,
      "duration": 1.3155,
      "velocity": 106,
      "chip": "ym2612"
    },
    {
      "channel": 4,
      "note": 89,
      "start": 9.2567,
      "duration": 0.0463,
      "velocity": 98,
      "chip": "ym2612"
    },
    {
      "channel": 1,
      "note": 90,
      "start": 9.2964,
      "duration": 0.0479,
      "velocity": 98,
      "chip": "ym2612"
    },
    {
      "channel": 5,
      "note": 93,
      "start": 9.2968,
      "duration": 0.0475,
      "velocity": 98,
      "chip": "ym2612"
    },
    {
      "channel": 0,
      "note": 85,
      "start": 9.3378,
      "duration": 0.0476,
      "velocity": 98,
      "chip": "ym2612"
    },
    {
      "channel": 4,
      "note": 89,
      "start": 9.3382,
      "duration": 0.0473,
      "velocity": 98,
      "chip": "ym2612"
    },
    {
      "channel": 1,
      "note": 85,
      "start": 9.3789,
      "duration": 0.0478,
      "velocity": 98,
      "chip": "ym2612"
    },
    {
      "channel": 5,
      "note": 89,
      "start": 9.3794,
      "duration": 0.0474,
      "velocity": 98,
      "chip": "ym2612"
    },
    {
      "channel": 0,
      "note": 85,
      "start": 9.4202,
      "duration": 0.0479,
      "velocity": 98,
      "chip": "ym2612"
    },
    {
      "channel": 4,
      "note": 89,
      "start": 9.4206,
      "duration": 0.0475,
      "velocity": 98,
      "chip": "ym2612"
    },
    {
      "channel": 1,
      "note": 85,
      "start": 9.4616,
      "duration": 0.0476,
      "velocity": 98,
      "chip": "ym2612"
    },
    {
      "channel": 5,
      "note": 89,
      "start": 9.4621,
      "duration": 0.0472,
      "velocity": 98,
      "chip": "ym2612"
    },
    {
      "channel": 0,
      "note": 85,
      "start": 9.5029,
      "duration": 0.0476,
      "velocity": 98,
      "chip": "ym2612"
    },
    {
      "channel": 4,
      "note": 89,
      "start": 9.5034,
      "duration": 0.0473,
      "velocity": 98,
      "chip": "ym2612"
    },
    {
      "channel": 1,
      "note": 85,
      "start": 9.5439,
      "duration": 0.0479,
      "velocity": 98,
      "chip": "ym2612"
    },
    {
      "channel": 5,
      "note": 89,
      "start": 9.5444,
      "duration": 0.0475,
      "velocity": 98,
      "chip": "ym2612"
    },
    {
      "channel": 0,
      "note": 85,
      "start": 9.5852,
      "duration": 0.0483,
      "velocity": 98,
      "chip": "ym2612"
    },
    {
      "channel": 4,
      "note": 89,
      "start": 9.5857,
      "duration": 0.048,
      "velocity": 98,
      "chip": "ym2612"
    },
    {
      "channel": 1,
      "note": 85,
      "start": 9.6264,
      "duration": 0.0478,
      "velocity": 98,
      "chip": "ym2612"
    },
    {
      "channel": 5,
      "note": 89,
      "start": 9.6269,
      "duration": 0.0474,
      "velocity": 98,
      "chip": "ym2612"
    },
    {
      "channel": 0,
      "note": 85,
      "start": 9.6677,
      "duration": 0.0478,
      "velocity": 98,
      "chip": "ym2612"
    },
    {
      "channel": 4,
      "note": 89,
      "start": 9.6682,
      "duration": 0.0474,
      "velocity": 98,
      "chip": "ym2612"
    },
    {
      "channel": 1,
      "note": 85,
      "start": 9.709,
      "duration": 0.0477,
      "velocity": 98,
      "chip": "ym2612"
    },
    {
      "channel": 5,
      "note": 89,
      "start": 9.7095,
      "duration": 0.0473,
      "velocity": 98,
      "chip": "ym2612"
    },
    {
      "channel": 0,
      "note": 85,
      "start": 9.7503,
      "duration": 0.0476,
      "velocity": 98,
      "chip": "ym2612"
    },
    {
      "channel": 4,
      "note": 89,
      "start": 9.7508,
      "duration": 0.0473,
      "velocity": 98,
      "chip": "ym2612"
    },
    {
      "channel": 1,
      "note": 85,
      "start": 9.7916,
      "duration": 0.0478,
      "velocity": 98,
      "chip": "ym2612"
    },
    {
      "channel": 5,
      "note": 89,
      "start": 9.792,
      "duration": 0.0474,
      "velocity": 98,
      "chip": "ym2612"
    },
    {
      "channel": 0,
      "note": 85,
      "start": 9.8327,
      "duration": 0.0478,
      "velocity": 98,
      "chip": "ym2612"
    },
    {
      "channel": 4,
      "note": 89,
      "start": 9.8332,
      "duration": 0.0475,
      "velocity": 98,
      "chip": "ym2612"
    },
    {
      "channel": 1,
      "note": 85,
      "start": 9.8741,
      "duration": 0.0478,
      "velocity": 98,
      "chip": "ym2612"
    },
    {
      "channel": 5,
      "note": 89,
      "start": 9.8749,
      "duration": 0.0471,
      "velocity": 98,
      "chip": "ym2612"
    },
    {
      "channel": 0,
      "note": 86,
      "start": 9.9153,
      "duration": 0.0478,
      "velocity": 98,
      "chip": "ym2612"
    },
    {
      "channel": 4,
      "note": 89,
      "start": 9.9157,
      "duration": 0.0474,
      "velocity": 98,
      "chip": "ym2612"
    },
    {
      "channel": 1,
      "note": 85,
      "start": 9.9565,
      "duration": 0.0479,
      "velocity": 98,
      "chip": "ym2612"
    },
    {
      "channel": 5,
      "note": 89,
      "start": 9.957,
      "duration": 0.0478,
      "velocity": 98,
      "chip": "ym2612"
    },
    {
      "channel": 0,
      "note": 86,
      "start": 9.9978,
      "duration": 0.0477,
      "velocity": 98,
      "chip": "ym2612"
    },
    {
      "channel": 4,
      "note": 89,
      "start": 9.9983,
      "duration": 0.0473,
      "velocity": 98,
      "chip": "ym2612"
    },
    {
      "channel": 1,
      "note": 86,
      "start": 10.039,
      "duration": 0.0481,
      "velocity": 98,
      "chip": "ym2612"
    },
    {
      "channel": 5,
      "note": 89,
      "start": 10.0395,
      "duration": 0.0477,
      "velocity": 98,
      "chip": "ym2612"
    },
    {
      "channel": 0,
      "note": 86,
      "start": 10.0804,
      "duration": 0.0477,
      "velocity": 98,
      "chip": "ym2612"
    },
    {
      "channel": 4,
      "note": 89,
      "start": 10.0808,
      "duration": 0.0473,
      "velocity": 98,
      "chip": "ym2612"
    },
    {
      "channel": 1,
      "note": 86,
      "start": 10.1216,
      "duration": 0.0477,
      "velocity": 98,
      "chip": "ym2612"
    },
    {
      "channel": 5,
      "note": 89,
      "start": 10.1221,
      "duration": 0.0473,
      "velocity": 98,
      "chip": "ym2612"
    },
    {
      "channel": 0,
      "note": 86,
      "start": 10.1629,
      "duration": 0.0477,
      "velocity": 98,
      "chip": "ym2612"
    },
    {
      "channel": 4,
      "note": 89,
      "start": 10.1633,
      "duration": 0.0473,
      "velocity": 98,
      "chip": "ym2612"
    },
    {
      "channel": 1,
      "note": 86,
      "start": 10.204,
      "duration": 0.0479,
      "velocity": 98,
      "chip": "ym2612"
    },
    {
      "channel": 5,
      "note": 89,
      "start": 10.2047,
      "duration": 0.0473,
      "velocity": 98,
      "chip": "ym2612"
    },
    {
      "channel": 0,
      "note": 86,
      "start": 10.2453,
      "duration": 0.0479,
      "velocity": 98,
      "chip": "ym2612"
    },
    {
      "channel": 4,
      "note": 89,
      "start": 10.2457,
      "duration": 0.0475,
      "velocity": 98,
      "chip": "ym2612"
    },
    {
      "channel": 1,
      "note": 86,
      "start": 10.2866,
      "duration": 0.0477,
      "velocity": 98,
      "chip": "ym2612"
    },
    {
      "channel": 5,
      "note": 89,
      "start": 10.2871,
      "duration": 0.0476,
      "velocity": 98,
      "chip": "ym2612"
    },
    {
      "channel": 0,
      "note": 86,
      "start": 10.328,
      "duration": 0.0476,
      "velocity": 98,
      "chip": "ym2612"
    },
    {
      "channel": 4,
      "note": 89,
      "start": 10.3284,
      "duration": 0.0472,
      "velocity": 98,
      "chip": "ym2612"
    },
    {
      "channel": 1,
      "note": 86,
      "start": 10.3698,
      "duration": 0.0471,
      "velocity": 98,
      "chip": "ym2612"
    },
    {
      "channel": 5,
      "note": 89,
      "start": 10.3702,
      "duration": 0.0467,
      "velocity": 98,
      "chip": "ym2612"
    },
    {
      "channel": 0,
      "note": 86,
      "start": 10.4103,
      "duration": 0.0478,
      "velocity": 98,
      "chip": "ym2612"
    },
    {
      "channel": 4,
      "note": 89,
      "start": 10.4108,
      "duration": 0.0474,
      "velocity": 98,
      "chip": "ym2612"
    },
    {
      "channel": 1,
      "note": 86,
      "start": 10.4516,
      "duration": 0.0479,
      "velocity": 98,
      "chip": "ym2612"
    },
    {
      "channel": 5,
      "note": 89,
      "start": 10.452,
      "duration": 0.0475,
      "velocity": 98,
      "chip": "ym2612"
    },
    {
      "channel": 0,
      "note": 86,
      "start": 10.4928,
      "duration": 0.048,
      "velocity": 98,
      "chip": "ym2612"
    },
    {
      "channel": 4,
      "note": 89,
      "start": 10.4933,
      "duration": 0.0476,
      "velocity": 98,
      "chip": "ym2612"
    },
    {
      "channel": 1,
      "note": 86,
      "start": 10.5341,
      "duration": 0.0206,
      "velocity": 98,
      "chip": "ym2612"
    },
    {
      "channel": 5,
      "note": 89,
      "start": 10.5348,
      "duration": 0.02,
      "velocity": 98,
      "chip": "ym2612"
    },
    {
      "channel": 0,
      "note": 86,
      "start": 10.5763,
      "duration": 0.0465,
      "velocity": 98,
      "chip": "ym2612"
    },
    {
      "channel": 2,
      "note": 36,
      "start": 10.5778,
      "duration": 1.152,
      "velocity": 106,
      "chip": "ym2612"
    },
    {
      "channel": 3,
      "note": 36,
      "start": 10.5795,
      "duration": 1.1504,
      "velocity": 106,
      "chip": "ym2612"
    },
    {
      "channel": 4,
      "note": 90,
      "start": 10.581,
      "duration": 0.0419,
      "velocity": 98,
      "chip": "ym2612"
    },
    {
      "channel": 0,
      "note": 86,
      "start": 10.6575,
      "duration": 0.0478,
      "velocity": 98,
      "chip": "ym2612"
    },
    {
      "channel": 4,
      "note": 90,
      "start": 10.658,
      "duration": 0.0474,
      "velocity": 98,
      "chip": "ym2612"
    },
    {
      "channel": 1,
      "note": 86,
      "start": 10.6998,
      "duration": 0.0467,
      "velocity": 98,
      "chip": "ym2612"
    },
    {
      "channel": 5,
      "note": 90,
      "start": 10.7015,
      "duration": 0.0451,
      "velocity": 98,
      "chip": "ym2612"
    },
    {
      "channel": 0,
      "note": 86,
      "start": 10.7401,
      "duration": 0.0477,
      "velocity": 98,
      "chip": "ym2612"
    },
    {
      "channel": 4,
      "note": 90,
      "start": 10.7406,
      "duration": 0.0473,
      "velocity": 98,
      "chip": "ym2612"
    },
    {
      "channel": 1,
      "note": 86,
      "start": 10.7814,
      "duration": 0.0478,
      "velocity": 98,
      "chip": "ym2612"
    },
    {
      "channel": 5,
      "note": 90,
      "start": 10.7818,
      "duration": 0.0474,
      "velocity": 98,
      "chip": "ym2612"
    },
    {
      "channel": 0,
      "note": 86,
      "start": 10.8226,
      "duration": 0.0478,
      "velocity": 98,
      "chip": "ym2612"
    },
    {
      "channel": 4,
      "note": 90,
      "start": 10.8231,
      "duration": 0.0474,
      "velocity": 98,
      "chip": "ym2612"
    },
    {
      "channel": 1,
      "note": 86,
      "start": 10.8638,
      "duration": 0.0479,
      "velocity": 98,
      "chip": "ym2612"
    },
    {
      "channel": 5,
      "note": 90,
      "start": 10.8645,
      "duration": 0.0473,
      "velocity": 98,
      "chip": "ym2612"
    },
    {
      "channel": 0,
      "note": 86,
      "start": 10.905,
      "duration": 0.0479,
      "velocity": 98,
      "chip": "ym2612"
    },
    {
      "channel": 4,
      "note": 90,
      "start": 10.9055,
      "duration": 0.0475,
      "velocity": 98,
      "chip": "ym2612"
    },
    {
      "channel": 1,
      "note": 86,
      "start": 10.9463,
      "duration": 0.0478,
      "velocity": 98,
      "chip": "ym2612"
    },
    {
      "channel": 5,
      "note": 90,
      "start": 10.9468,
      "duration": 0.0477,
      "velocity": 98,
      "chip": "ym2612"
    },
    {
      "channel": 0,
      "note": 86,
      "start": 10.9876,
      "duration": 0.0477,
      "velocity": 98,
      "chip": "ym2612"
    },
    {
      "channel": 4,
      "note": 90,
      "start": 10.9881,
      "duration": 0.0473,
      "velocity": 98,
      "chip": "ym2612"
    },
    {
      "channel": 1,
      "note": 86,
      "start": 11.0289,
      "duration": 0.0477,
      "velocity": 98,
      "chip": "ym2612"
    },
    {
      "channel": 5,
      "note": 90,
      "start": 11.0294,
      "duration": 0.0473,
      "velocity": 98,
      "chip": "ym2612"
    },
    {
      "channel": 0,
      "note": 86,
      "start": 11.0702,
      "duration": 0.0477,
      "velocity": 98,
      "chip": "ym2612"
    },
    {
      "channel": 4,
      "note": 90,
      "start": 11.0706,
      "duration": 0.0473,
      "velocity": 98,
      "chip": "ym2612"
    },
    {
      "channel": 1,
      "note": 86,
      "start": 11.1113,
      "duration": 0.0478,
      "velocity": 98,
      "chip": "ym2612"
    },
    {
      "channel": 5,
      "note": 90,
      "start": 11.1118,
      "duration": 0.0475,
      "velocity": 98,
      "chip": "ym2612"
    },
    {
      "channel": 0,
      "note": 86,
      "start": 11.1527,
      "duration": 0.0478,
      "velocity": 98,
      "chip": "ym2612"
    },
    {
      "channel": 4,
      "note": 90,
      "start": 11.1531,
      "duration": 0.0474,
      "velocity": 98,
      "chip": "ym2612"
    },
    {
      "channel": 1,
      "note": 86,
      "start": 11.1939,
      "duration": 0.0478,
      "velocity": 98,
      "chip": "ym2612"
    },
    {
      "channel": 5,
      "note": 90,
      "start": 11.1948,
      "duration": 0.0471,
      "velocity": 98,
      "chip": "ym2612"
    },
    {
      "channel": 0,
      "note": 87,
      "start": 11.2352,
      "duration": 0.0511,
      "velocity": 98,
      "chip": "ym2612"
    },
    {
      "channel": 4,
      "note": 91,
      "start": 11.2356,
      "duration": 0.0507,
      "velocity": 98,
      "chip": "ym2612"
    },
    {
      "channel": 1,
      "note": 86,
      "start": 11.2798,
      "duration": 0.0478,
      "velocity": 98,
      "chip": "ym2612"
    },
    {
      "channel": 5,
      "note": 90,
      "start": 11.2802,
      "duration": 0.0474,
      "velocity": 98,
      "chip": "ym2612"
    },
    {
      "channel": 0,
      "note": 87,
      "start": 11.3211,
      "duration": 0.0477,
      "velocity": 98,
      "chip": "ym2612"
    },
    {
      "channel": 4,
      "note": 91,
      "start": 11.3216,
      "duration": 0.0473,
      "velocity": 98,
      "chip": "ym2612"
    },
    {
      "channel": 1,
      "note": 87,
      "start": 11.3624,
      "duration": 0.0477,
      "velocity": 98,
      "chip": "ym2612"
    },
    {
      "channel": 5,
      "note": 91,
      "start": 11.3629,
      "duration": 0.0473,
      "velocity": 98,
      "chip": "ym2612"
    },
    {
      "channel": 0,
      "note": 87,
      "start": 11.4036,
      "duration": 0.0478,
      "velocity": 98,
      "chip": "ym2612"
    },
    {
      "channel": 4,
      "note": 91,
      "start": 11.404,
      "duration": 0.0475,
      "velocity": 98,
      "chip": "ym2612"
    },
    {
      "channel": 1,
      "note": 87,
      "start": 11.4451,
      "duration": 0.0477,
      "velocity": 98,
      "chip": "ym2612"
    },
    {
      "channel": 5,
      "note": 91,
      "start": 11.4455,
      "duration": 0.0473,
      "velocity": 98,
      "chip": "ym2612"
    },
    {
      "channel": 0,
      "note": 87,
      "start": 11.4861,
      "duration": 0.0478,
      "velocity": 98,
      "chip": "ym2612"
    },
    {
      "channel": 4,
      "note": 91,
      "start": 11.4865,
      "duration": 0.0474,
      "velocity": 98,
      "chip": "ym2612"
    },
    {
      "channel": 1,
      "note": 87,
      "start": 11.5274,
      "duration": 0.0478,
      "velocity": 98,
      "chip": "ym2612"
    },
    {
      "channel": 5,
      "note": 91,
      "start": 11.5279,
      "duration": 0.0474,
      "velocity": 98,
      "chip": "ym2612"
    },
    {
      "channel": 0,
      "note": 87,
      "start": 11.5686,
      "duration": 0.0478,
      "velocity": 98,
      "chip": "ym2612"
    },
    {
      "channel": 4,
      "note": 91,
      "start": 11.569,
      "duration": 0.0475,
      "velocity": 98,
      "chip": "ym2612"
    },
    {
      "channel": 1,
      "note": 87,
      "start": 11.6098,
      "duration": 0.0479,
      "velocity": 98,
      "chip": "ym2612"
    },
    {
      "channel": 5,
      "note": 91,
      "start": 11.6103,
      "duration": 0.0475,
      "velocity": 98,
      "chip": "ym2612"
    },
    {
      "channel": 0,
      "note": 87,
      "start": 11.6511,
      "duration": 0.0478,
      "velocity": 98,
      "chip": "ym2612"
    },
    {
      "channel": 4,
      "note": 91,
      "start": 11.6515,
      "duration": 0.0474,
      "velocity": 98,
      "chip": "ym2612"
    },
    {
      "channel": 1,
      "note": 87,
      "start": 11.6923,
      "duration": 0.0479,
      "velocity": 98,
      "chip": "ym2612"
    },
    {
      "channel": 5,
      "note": 91,
      "start": 11.6928,
      "duration": 0.0475,
      "velocity": 98,
      "chip": "ym2612"
    },
    {
      "channel": 0,
      "note": 87,
      "start": 11.7336,
      "duration": 0.0478,
      "velocity": 98,
      "chip": "ym2612"
    },
    {
      "channel": 2,
      "note": 35,
      "start": 11.7341,
      "duration": 0.0782,
      "velocity": 106,
      "chip": "ym2612"
    },
    {
      "channel": 3,
      "note": 35,
      "start": 11.7348,
      "duration": 0.0776,
      "velocity": 106,
      "chip": "ym2612"
    },
    {
      "channel": 4,
      "note": 91,
      "start": 11.7353,
      "duration": 0.0462,
      "velocity": 98,
      "chip": "ym2612"
    },
    {
      "channel": 1,
      "note": 87,
      "start": 11.7749,
      "duration": 0.0478,
      "velocity": 98,
      "chip": "ym2612"
    },
    {
      "channel": 5,
      "note": 91,
      "start": 11.7754,
      "duration": 0.0475,
      "velocity": 98,
      "chip": "ym2612"
    },
    {
      "channel": 0,
      "note": 87,
      "start": 11.8161,
      "duration": 0.0479,
      "velocity": 98,
      "chip": "ym2612"
    },
    {
      "channel": 2,
      "note": 36,
      "start": 11.8166,
      "duration": 0.0782,
      "velocity": 106,
      "chip": "ym2612"
    },
    {
      "channel": 3,
      "note": 36,
      "start": 11.8171,
      "duration": 0.0778,
      "velocity": 106,
      "chip": "ym2612"
    },
    {
      "channel": 4,
      "note": 91,
      "start": 11.8175,
      "duration": 0.0466,
      "velocity": 98,
      "chip": "ym2612"
    },
    {
      "channel": 1,
      "note": 87,
      "start": 11.8575,
      "duration": 0.0478,
      "velocity": 98,
      "chip": "ym2612"
    },
    {
      "channel": 5,
      "note": 91,
      "start": 11.858,
      "duration": 0.0474,
      "velocity": 98,
      "chip": "ym2612"
    },
    {
      "channel": 0,
      "note": 80,
      "start": 11.8986,
      "duration": 0.0478,
      "velocity": 98,
      "chip": "ym2612"
    },
    {
      "channel": 2,
      "note": 37,
      "start": 11.8991,
      "duration": 1.1544,
      "velocity": 106,
      "chip": "ym2612"
    },
    {
      "channel": 3,
      "note": 37,
      "start": 11.8996,
      "duration": 1.154,
      "velocity": 106,
      "chip": "ym2612"
    },
    {
      "channel": 4,
      "note": 84,
      "start": 11.9002,
      "duration": 0.0463,
      "velocity": 98,
      "chip": "ym2612"
    },
    {
      "channel": 1,
      "note": 87,
      "start": 11.94,
      "duration": 0.0478,
      "velocity": 98,
      "chip": "ym2612"
    },
    {
      "channel": 5,
      "note": 91,
      "start": 11.9406,
      "duration": 0.0473,
      "velocity": 98,
      "chip": "ym2612"
    },
    {
      "channel": 0,
      "note": 80,
      "start": 11.9813,
      "duration": 0.0511,
      "velocity": 98,
      "chip": "ym2612"
    },
    {
      "channel": 4,
      "note": 84,
      "start": 11.9817,
      "duration": 0.0507,
      "velocity": 98,
      "chip": "ym2612"
    },
    {
      "channel": 1,
      "note": 80,
      "start": 12.0258,
      "duration": 0.0479,
      "velocity": 98,
      "chip": "ym2612"
    },
    {
      "channel": 5,
      "note": 84,
      "start": 12.0263,
      "duration": 0.0475,
      "velocity": 98,
      "chip": "ym2612"
    },
    {
      "channel": 0,
      "note": 80,
      "start": 12.0671,
      "duration": 0.0478,
      "velocity": 98,
      "chip": "ym2612"
    },
    {
      "channel": 4,
      "note": 84,
      "start": 12.0676,
      "duration": 0.0475,
      "velocity": 98,
      "chip": "ym2612"
    },
    {
      "channel": 1,
      "note": 80,
      "start": 12.1083,
      "duration": 0.0479,
      "velocity": 98,
      "chip": "ym2612"
    },
    {
      "channel": 5,
      "note": 84,
      "start": 12.1088,
      "duration": 0.0475,
      "velocity": 98,
      "chip": "ym2612"
    },
    {
      "channel": 0,
      "note": 80,
      "start": 12.1497,
      "duration": 0.0477,
      "velocity": 98,
      "chip": "ym2612"
    },
    {
      "channel": 4,
      "note": 84,
      "start": 12.1502,
      "duration": 0.0473,
      "velocity": 98,
      "chip": "ym2612"
    },
    {
      "channel": 1,
      "note": 80,
      "start": 12.1909,
      "duration": 0.0479,
      "velocity": 98,
      "chip": "ym2612"
    },
    {
      "channel": 5,
      "note": 84,
      "start": 12.1913,
      "duration": 0.0475,
      "velocity": 98,
      "chip": "ym2612"
    },
    {
      "channel": 0,
      "note": 80,
      "start": 12.2322,
      "duration": 0.0477,
      "velocity": 98,
      "chip": "ym2612"
    },
    {
      "channel": 4,
      "note": 84,
      "start": 12.2327,
      "duration": 0.0473,
      "velocity": 98,
      "chip": "ym2612"
    },
    {
      "channel": 1,
      "note": 80,
      "start": 12.2735,
      "duration": 0.0478,
      "velocity": 98,
      "chip": "ym2612"
    },
    {
      "channel": 5,
      "note": 84,
      "start": 12.2739,
      "duration": 0.0474,
      "velocity": 98,
      "chip": "ym2612"
    },
    {
      "channel": 0,
      "note": 80,
      "start": 12.3151,
      "duration": 0.0473,
      "velocity": 98,
      "chip": "ym2612"
    },
    {
      "channel": 4,
      "note": 84,
      "start": 12.3156,
      "duration": 0.047,
      "velocity": 98,
      "chip": "ym2612"
    },
    {
      "channel": 1,
      "note": 80,
      "start": 12.3559,
      "duration": 0.0479,
      "velocity": 98,
      "chip": "ym2612"
    },
    {
      "channel": 5,
      "note": 84,
      "start": 12.3563,
      "duration": 0.0475,
      "velocity": 98,
      "chip": "ym2612"
    },
    {
      "channel": 0,
      "note": 80,
      "start": 12.3972,
      "duration": 0.0477,
      "velocity": 98,
      "chip": "ym2612"
    },
    {
      "channel": 4,
      "note": 84,
      "start": 12.3977,
      "duration": 0.0473,
      "velocity": 98,
      "chip": "ym2612"
    },
    {
      "channel": 1,
      "note": 80,
      "start": 12.4384,
      "duration": 0.0479,
      "velocity": 98,
      "chip": "ym2612"
    },
    {
      "channel": 5,
      "note": 84,
      "start": 12.4388,
      "duration": 0.0475,
      "velocity": 98,
      "chip": "ym2612"
    },
    {
      "channel": 0,
      "note": 80,
      "start": 12.4797,
      "duration": 0.0477,
      "velocity": 98,
      "chip": "ym2612"
    },
    {
      "channel": 4,
      "note": 84,
      "start": 12.4802,
      "duration": 0.0473,
      "velocity": 98,
      "chip": "ym2612"
    },
    {
      "channel": 1,
      "note": 80,
      "start": 12.521,
      "duration": 0.0478,
      "velocity": 98,
      "chip": "ym2612"
    },
    {
      "channel": 5,
      "note": 84,
      "start": 12.5215,
      "duration": 0.0474,
      "velocity": 98,
      "chip": "ym2612"
    },
    {
      "channel": 0,
      "note": 81,
      "start": 12.5622,
      "duration": 0.0478,
      "velocity": 98,
      "chip": "ym2612"
    },
    {
      "channel": 4,
      "note": 85,
      "start": 12.5627,
      "duration": 0.0474,
      "velocity": 98,
      "chip": "ym2612"
    },
    {
      "channel": 1,
      "note": 80,
      "start": 12.6035,
      "duration": 0.0477,
      "velocity": 98,
      "chip": "ym2612"
    },
    {
      "channel": 5,
      "note": 84,
      "start": 12.604,
      "duration": 0.0473,
      "velocity": 98,
      "chip": "ym2612"
    },
    {
      "channel": 0,
      "note": 81,
      "start": 12.6448,
      "duration": 0.0477,
      "velocity": 98,
      "chip": "ym2612"
    },
    {
      "channel": 4,
      "note": 85,
      "start": 12.6453,
      "duration": 0.0474,
      "velocity": 98,
      "chip": "ym2612"
    },
    {
      "channel": 1,
      "note": 81,
      "start": 12.6859,
      "duration": 0.0479,
      "velocity": 98,
      "chip": "ym2612"
    },
    {
      "channel": 5,
      "note": 85,
      "start": 12.6865,
      "duration": 0.0474,
      "velocity": 98,
      "chip": "ym2612"
    },
    {
      "channel": 0,
      "note": 81,
      "start": 12.7273,
      "duration": 0.0476,
      "velocity": 98,
      "chip": "ym2612"
    },
    {
      "channel": 4,
      "note": 85,
      "start": 12.7278,
      "duration": 0.0473,
      "velocity": 98,
      "chip": "ym2612"
    },
    {
      "channel": 1,
      "note": 81,
      "start": 12.7685,
      "duration": 0.0478,
      "velocity": 98,
      "chip": "ym2612"
    },
    {
      "channel": 5,
      "note": 85,
      "start": 12.7689,
      "duration": 0.0474,
      "velocity": 98,
      "chip": "ym2612"
    },
    {
      "channel": 0,
      "note": 81,
      "start": 12.8098,
      "duration": 0.0477,
      "velocity": 98,
      "chip": "ym2612"
    },
    {
      "channel": 4,
      "note": 85,
      "start": 12.8102,
      "duration": 0.0473,
      "velocity": 98,
      "chip": "ym2612"
    },
    {
      "channel": 1,
      "note": 81,
      "start": 12.851,
      "duration": 0.0481,
      "velocity": 98,
      "chip": "ym2612"
    },
    {
      "channel": 5,
      "note": 85,
      "start": 12.8515,
      "duration": 0.0477,
      "velocity": 98,
      "chip": "ym2612"
    },
    {
      "channel": 0,
      "note": 81,
      "start": 12.8922,
      "duration": 0.0478,
      "velocity": 98,
      "chip": "ym2612"
    },
    {
      "channel": 4,
      "note": 85,
      "start": 12.8927,
      "duration": 0.0475,
      "velocity": 98,
      "chip": "ym2612"
    },
    {
      "channel": 1,
      "note": 81,
      "start": 12.9336,
      "duration": 0.0477,
      "velocity": 98,
      "chip": "ym2612"
    },
    {
      "channel": 5,
      "note": 85,
      "start": 12.934,
      "duration": 0.0473,
      "velocity": 98,
      "chip": "ym2612"
    },
    {
      "channel": 0,
      "note": 81,
      "start": 12.9749,
      "duration": 0.0476,
      "velocity": 98,
      "chip": "ym2612"
    },
    {
      "channel": 4,
      "note": 85,
      "start": 12.9754,
      "duration": 0.0472,
      "velocity": 98,
      "chip": "ym2612"
    },
    {
      "channel": 1,
      "note": 81,
      "start": 13.016,
      "duration": 0.0479,
      "velocity": 98,
      "chip": "ym2612"
    },
    {
      "channel": 5,
      "note": 85,
      "start": 13.0164,
      "duration": 0.0475,
      "velocity": 98,
      "chip": "ym2612"
    },
    {
      "channel": 0,
      "note": 81,
      "start": 13.0572,
      "duration": 0.0478,
      "velocity": 98,
      "chip": "ym2612"
    },
    {
      "channel": 2,
      "note": 36,
      "start": 13.0577,
      "duration": 0.0783,
      "velocity": 106,
      "chip": "ym2612"
    },
    {
      "channel": 3,
      "note": 36,
      "start": 13.0582,
      "duration": 0.0779,
      "velocity": 106,
      "chip": "ym2612"
    },
    {
      "channel": 4,
      "note": 85,
      "start": 13.0586,
      "duration": 0.0465,
      "velocity": 98,
      "chip": "ym2612"
    },
    {
      "channel": 1,
      "note": 81,
      "start": 13.0986,
      "duration": 0.0477,
      "velocity": 98,
      "chip": "ym2612"
    },
    {
      "channel": 5,
      "note": 85,
      "start": 13.099,
      "duration": 0.0473,
      "velocity": 98,
      "chip": "ym2612"
    },
    {
      "channel": 0,
      "note": 81,
      "start": 13.1397,
      "duration": 0.0512,
      "velocity": 98,
      "chip": "ym2612"
    },
    {
      "channel": 2,
      "note": 37,
      "start": 13.1403,
      "duration": 0.0816,
      "velocity": 106,
      "chip": "ym2612"
    },
    {
      "channel": 3,
      "note": 37,
      "start": 13.1408,
      "duration": 0.0812,
      "velocity": 106,
      "chip": "ym2612"
    },
    {
      "channel": 4,
      "note": 85,
      "start": 13.1413,
      "duration": 0.0498,
      "velocity": 98,
      "chip": "ym2612"
    },
    {
      "channel": 1,
      "note": 81,
      "start": 13.1848,
      "duration": 0.0474,
      "velocity": 98,
      "chip": "ym2612"
    },
    {
      "channel": 5,
      "note": 85,
      "start": 13.1853,
      "duration": 0.047,
      "velocity": 98,
      "chip": "ym2612"
    },
    {
      "channel": 0,
      "note": 86,
      "start": 13.2257,
      "duration": 0.0479,
      "velocity": 98,
      "chip": "ym2612"
    },
    {
      "channel": 2,
      "note": 38,
      "start": 13.2262,
      "duration": 1.1509,
      "velocity": 106,
      "chip": "ym2612"
    },
    {
      "channel": 3,
      "note": 38,
      "start": 13.2267,
      "duration": 1.1505,
      "velocity": 106,
      "chip": "ym2612"
    },
    {
      "channel": 4,
      "note": 90,
      "start": 13.2271,
      "duration": 0.0465,
      "velocity": 98,
      "chip": "ym2612"
    },
    {
      "channel": 1,
      "note": 81,
      "start": 13.267,
      "duration": 0.0478,
      "velocity": 98,
      "chip": "ym2612"
    },
    {
      "channel": 5,
      "note": 85,
      "start": 13.2674,
      "duration": 0.0475,
      "velocity": 98,
      "chip": "ym2612"
    },
    {
      "channel": 0,
      "note": 86,
      "start": 13.3083,
      "duration": 0.0477,
      "velocity": 98,
      "chip": "ym2612"
    },
    {
      "channel": 4,
      "note": 90,
      "start": 13.3088,
      "duration": 0.0473,
      "velocity": 98,
      "chip": "ym2612"
    },
    {
      "channel": 1,
      "note": 86,
      "start": 13.3495,
      "duration": 0.0478,
      "velocity": 98,
      "chip": "ym2612"
    },
    {
      "channel": 5,
      "note": 90,
      "start": 13.3499,
      "duration": 0.0475,
      "velocity": 98,
      "chip": "ym2612"
    },
    {
      "channel": 0,
      "note": 86,
      "start": 13.3908,
      "duration": 0.0477,
      "velocity": 98,
      "chip": "ym2612"
    },
    {
      "channel": 4,
      "note": 90,
      "start": 13.3913,
      "duration": 0.0473,
      "velocity": 98,
      "chip": "ym2612"
    },
    {
      "channel": 1,
      "note": 86,
      "start": 13.432,
      "duration": 0.0478,
      "velocity": 98,
      "chip": "ym2612"
    },
    {
      "channel": 5,
      "note": 90,
      "start": 13.4325,
      "duration": 0.0473,
      "velocity": 98,
      "chip": "ym2612"
    },
    {
      "channel": 0,
      "note": 86,
      "start": 13.4733,
      "duration": 0.0478,
      "velocity": 98,
      "chip": "ym2612"
    },
    {
      "channel": 4,
      "note": 90,
      "start": 13.4737,
      "duration": 0.0474,
      "velocity": 98,
      "chip": "ym2612"
    },
    {
      "channel": 1,
      "note": 86,
      "start": 13.5147,
      "duration": 0.0477,
      "velocity": 98,
      "chip": "ym2612"
    },
    {
      "channel": 5,
      "note": 90,
      "start": 13.5152,
      "duration": 0.0473,
      "velocity": 98,
      "chip": "ym2612"
    },
    {
      "channel": 0,
      "note": 86,
      "start": 13.5557,
      "duration": 0.048,
      "velocity": 98,
      "chip": "ym2612"
    },
    {
      "channel": 4,
      "note": 90,
      "start": 13.5562,
      "duration": 0.0476,
      "velocity": 98,
      "chip": "ym2612"
    },
    {
      "channel": 1,
      "note": 86,
      "start": 13.5971,
      "duration": 0.0478,
      "velocity": 98,
      "chip": "ym2612"
    },
    {
      "channel": 5,
      "note": 90,
      "start": 13.5976,
      "duration": 0.0474,
      "velocity": 98,
      "chip": "ym2612"
    },
    {
      "channel": 0,
      "note": 86,
      "start": 13.6383,
      "duration": 0.0477,
      "velocity": 98,
      "chip": "ym2612"
    },
    {
      "channel": 4,
      "note": 90,
      "start": 13.6388,
      "duration": 0.0474,
      "velocity": 98,
      "chip": "ym2612"
    },
    {
      "channel": 1,
      "note": 86,
      "start": 13.6795,
      "duration": 0.0478,
      "velocity": 98,
      "chip": "ym2612"
    },
    {
      "channel": 5,
      "note": 90,
      "start": 13.68,
      "duration": 0.0474,
      "velocity": 98,
      "chip": "ym2612"
    },
    {
      "channel": 0,
      "note": 86,
      "start": 13.7209,
      "duration": 0.0478,
      "velocity": 98,
      "chip": "ym2612"
    },
    {
      "channel": 4,
      "note": 90,
      "start": 13.7213,
      "duration": 0.0474,
      "velocity": 98,
      "chip": "ym2612"
    },
    {
      "channel": 1,
      "note": 86,
      "start": 13.762,
      "duration": 0.0479,
      "velocity": 98,
      "chip": "ym2612"
    },
    {
      "channel": 5,
      "note": 90,
      "start": 13.7625,
      "duration": 0.0475,
      "velocity": 98,
      "chip": "ym2612"
    },
    {
      "channel": 0,
      "note": 86,
      "start": 13.8034,
      "duration": 0.0478,
      "velocity": 98,
      "chip": "ym2612"
    },
    {
      "channel": 4,
      "note": 90,
      "start": 13.8038,
      "duration": 0.0474,
      "velocity": 98,
      "chip": "ym2612"
    },
    {
      "channel": 1,
      "note": 86,
      "start": 13.8448,
      "duration": 0.0476,
      "velocity": 98,
      "chip": "ym2612"
    },
    {
      "channel": 5,
      "note": 90,
      "start": 13.8453,
      "duration": 0.0473,
      "velocity": 98,
      "chip": "ym2612"
    },
    {
      "channel": 0,
      "note": 87,
      "start": 13.8859,
      "duration": 0.0477,
      "velocity": 98,
      "chip": "ym2612"
    },
    {
      "channel": 4,
      "note": 91,
      "start": 13.8863,
      "duration": 0.0473,
      "velocity": 98,
      "chip": "ym2612"
    },
    {
      "channel": 1,
      "note": 86,
      "start": 13.9277,
      "duration": 0.0473,
      "velocity": 98,
      "chip": "ym2612"
    },
    {
      "channel": 5,
      "note": 90,
      "start": 13.9281,
      "duration": 0.0469,
      "velocity": 98,
      "chip": "ym2612"
    },
    {
      "channel": 0,
      "note": 87,
      "start": 13.9683,
      "duration": 0.0478,
      "velocity": 98,
      "chip": "ym2612"
    },
    {
      "channel": 4,
      "note": 91,
      "start": 13.9688,
      "duration": 0.0474,
      "velocity": 98,
      "chip": "ym2612"
    },
    {
      "channel": 1,
      "note": 87,
      "start": 14.0097,
      "duration": 0.0478,
      "velocity": 98,
      "chip": "ym2612"
    },
    {
      "channel": 5,
      "note": 91,
      "start": 14.0101,
      "duration": 0.0475,
      "velocity": 98,
      "chip": "ym2612"
    },
    {
      "channel": 0,
      "note": 87,
      "start": 14.0508,
      "duration": 0.0478,
      "velocity": 98,
      "chip": "ym2612"
    },
    {
      "channel": 4,
      "note": 91,
      "start": 14.0513,
      "duration": 0.0474,
      "velocity": 98,
      "chip": "ym2612"
    },
    {
      "channel": 1,
      "note": 87,
      "start": 14.0922,
      "duration": 0.0478,
      "velocity": 98,
      "chip": "ym2612"
    },
    {
      "channel": 5,
      "note": 91,
      "start": 14.0926,
      "duration": 0.0474,
      "velocity": 98,
      "chip": "ym2612"
    },
    {
      "channel": 0,
      "note": 87,
      "start": 14.1333,
      "duration": 0.0478,
      "velocity": 98,
      "chip": "ym2612"
    },
    {
      "channel": 4,
      "note": 91,
      "start": 14.1338,
      "duration": 0.0474,
      "velocity": 98,
      "chip": "ym2612"
    },
    {
      "channel": 1,
      "note": 87,
      "start": 14.1749,
      "duration": 0.0476,
      "velocity": 98,
      "chip": "ym2612"
    },
    {
      "channel": 5,
      "note": 91,
      "start": 14.1753,
      "duration": 0.0473,
      "velocity": 98,
      "chip": "ym2612"
    },
    {
      "channel": 0,
      "note": 87,
      "start": 14.2158,
      "duration": 0.0479,
      "velocity": 98,
      "chip": "ym2612"
    },
    {
      "channel": 4,
      "note": 91,
      "start": 14.2163,
      "duration": 0.0475,
      "velocity": 98,
      "chip": "ym2612"
    },
    {
      "channel": 1,
      "note": 87,
      "start": 14.2571,
      "duration": 0.0478,
      "velocity": 98,
      "chip": "ym2612"
    },
    {
      "channel": 5,
      "note": 91,
      "start": 14.2576,
      "duration": 0.0474,
      "velocity": 98,
      "chip": "ym2612"
    },
    {
      "channel": 0,
      "note": 87,
      "start": 14.2983,
      "duration": 0.0478,
      "velocity": 98,
      "chip": "ym2612"
    },
    {
      "channel": 4,
      "note": 91,
      "start": 14.2988,
      "duration": 0.0474,
      "velocity": 98,
      "chip": "ym2612"
    },
    {
      "channel": 1,
      "note": 87,
      "start": 14.3398,
      "duration": 0.0476,
      "velocity": 98,
      "chip": "ym2612"
    },
    {
      "channel": 5,
      "note": 91,
      "start": 14.3402,
      "duration": 0.0472,
      "velocity": 98,
      "chip": "ym2612"
    },
    {
      "channel": 0,
      "note": 87,
      "start": 14.3809,
      "duration": 0.0478,
      "velocity": 98,
      "chip": "ym2612"
    },
    {
      "channel": 2,
      "note": 38,
      "start": 14.3813,
      "duration": 0.0783,
      "velocity": 106,
      "chip": "ym2612"
    },
    {
      "channel": 3,
      "note": 38,
      "start": 14.3818,
      "duration": 0.0779,
      "velocity": 106,
      "chip": "ym2612"
    },
    {
      "channel": 4,
      "note": 91,
      "start": 14.3823,
      "duration": 0.0465,
      "velocity": 98,
      "chip": "ym2612"
    },
    {
      "channel": 1,
      "note": 87,
      "start": 14.4222,
      "duration": 0.0477,
      "velocity": 98,
      "chip": "ym2612"
    },
    {
      "channel": 5,
      "note": 91,
      "start": 14.4227,
      "duration": 0.0473,
      "velocity": 98,
      "chip": "ym2612"
    },
    {
      "channel": 0,
      "note": 87,
      "start": 14.4635,
      "duration": 0.0477,
      "velocity": 98,
      "chip": "ym2612"
    },
    {
      "channel": 2,
      "note": 39,
      "start": 14.4639,
      "duration": 0.0781,
      "velocity": 106,
      "chip": "ym2612"
    },
    {
      "channel": 3,
      "note": 39,
      "start": 14.4647,
      "duration": 0.0775,
      "velocity": 106,
      "chip": "ym2612"
    },
    {
      "channel": 4,
      "note": 91,
      "start": 14.4651,
      "duration": 0.0461,
      "velocity": 98,
      "chip": "ym2612"
    },
    {
      "channel": 1,
      "note": 87,
      "start": 14.5049,
      "duration": 0.0476,
      "velocity": 98,
      "chip": "ym2612"
    },
    {
      "channel": 5,
      "note": 91,
      "start": 14.5053,
      "duration": 0.0473,
      "velocity": 98,
      "chip": "ym2612"
    },
    {
      "channel": 0,
      "note": 80,
      "start": 14.5459,
      "duration": 0.0478,
      "velocity": 98,
      "chip": "ym2612"
    },
    {
      "channel": 2,
      "note": 40,
      "start": 14.5464,
      "duration": 1.1509,
      "velocity": 106,
      "chip": "ym2612"
    },
    {
      "channel": 3,
      "note": 40,
      "start": 14.5468,
      "duration": 1.1505,
      "velocity": 106,
      "chip": "ym2612"
    },
    {
      "channel": 4,
      "note": 84,
      "start": 14.5473,
      "duration": 0.0464,
      "velocity": 98,
      "chip": "ym2612"
    },
    {
      "channel": 1,
      "note": 87,
      "start": 14.5872,
      "duration": 0.0477,
      "velocity": 98,
      "chip": "ym2612"
    },
    {
      "channel": 5,
      "note": 91,
      "start": 14.5877,
      "duration": 0.0473,
      "velocity": 98,
      "chip": "ym2612"
    },
    {
      "channel": 0,
      "note": 80,
      "start": 14.6284,
      "duration": 0.0479,
      "velocity": 98,
      "chip": "ym2612"
    },
    {
      "channel": 4,
      "note": 84,
      "start": 14.6289,
      "duration": 0.0475,
      "velocity": 98,
      "chip": "ym2612"
    },
    {
      "channel": 1,
      "note": 80,
      "start": 14.6698,
      "duration": 0.0477,
      "velocity": 98,
      "chip": "ym2612"
    },
    {
      "channel": 5,
      "note": 84,
      "start": 14.6702,
      "duration": 0.0474,
      "velocity": 98,
      "chip": "ym2612"
    },
    {
      "channel": 0,
      "note": 80,
      "start": 14.711,
      "duration": 0.0477,
      "velocity": 98,
      "chip": "ym2612"
    },
    {
      "channel": 4,
      "note": 84,
      "start": 14.7115,
      "duration": 0.0473,
      "velocity": 98,
      "chip": "ym2612"
    },
    {
      "channel": 1,
      "note": 80,
      "start": 14.7522,
      "duration": 0.0477,
      "velocity": 98,
      "chip": "ym2612"
    },
    {
      "channel": 5,
      "note": 84,
      "start": 14.7528,
      "duration": 0.0472,
      "velocity": 98,
      "chip": "ym2612"
    },
    {
      "channel": 0,
      "note": 80,
      "start": 14.7935,
      "duration": 0.0477,
      "velocity": 98,
      "chip": "ym2612"
    },
    {
      "channel": 4,
      "note": 84,
      "start": 14.794,
      "duration": 0.0473,
      "velocity": 98,
      "chip": "ym2612"
    },
    {
      "channel": 1,
      "note": 80,
      "start": 14.8351,
      "duration": 0.0474,
      "velocity": 98,
      "chip": "ym2612"
    },
    {
      "channel": 5,
      "note": 84,
      "start": 14.8356,
      "duration": 0.047,
      "velocity": 98,
      "chip": "ym2612"
    },
    {
      "channel": 0,
      "note": 80,
      "start": 14.8759,
      "duration": 0.0479,
      "velocity": 98,
      "chip": "ym2612"
    },
    {
      "channel": 4,
      "note": 84,
      "start": 14.8764,
      "duration": 0.0475,
      "velocity": 98,
      "chip": "ym2612"
    },
    {
      "channel": 1,
      "note": 80,
      "start": 14.9172,
      "duration": 0.0483,
      "velocity": 98,
      "chip": "ym2612"
    },
    {
      "channel": 5,
      "note": 84,
      "start": 14.9176,
      "duration": 0.0479,
      "velocity": 98,
      "chip": "ym2612"
    },
    {
      "channel": 0,
      "note": 80,
      "start": 14.9585,
      "duration": 0.0477,
      "velocity": 98,
      "chip": "ym2612"
    },
    {
      "channel": 4,
      "note": 84,
      "start": 14.959,
      "duration": 0.0473,
      "velocity": 98,
      "chip": "ym2612"
    },
    {
      "channel": 1,
      "note": 80,
      "start": 14.9998,
      "duration": 0.0477,
      "velocity": 98,
      "chip": "ym2612"
    },
    {
      "channel": 5,
      "note": 84,
      "start": 15.0002,
      "duration": 0.0473,
      "velocity": 98,
      "chip": "ym2612"
    },
    {
      "channel": 0,
      "note": 80,
      "start": 15.041,
      "duration": 0.0478,
      "velocity": 98,
      "chip": "ym2612"
    },
    {
      "channel": 4,
      "note": 84,
      "start": 15.0414,
      "duration": 0.0474,
      "velocity": 98,
      "chip": "ym2612"
    },
    {
      "channel": 1,
      "note": 80,
      "start": 15.0822,
      "duration": 0.0479,
      "velocity": 98,
      "chip": "ym2612"
    },
    {
      "channel": 5,
      "note": 84,
      "start": 15.0827,
      "duration": 0.0475,
      "velocity": 98,
      "chip": "ym2612"
    },
    {
      "channel": 0,
      "note": 80,
      "start": 15.1235,
      "duration": 0.0478,
      "velocity": 98,
      "chip": "ym2612"
    },
    {
      "channel": 4,
      "note": 84,
      "start": 15.1239,
      "duration": 0.0474,
      "velocity": 98,
      "chip": "ym2612"
    },
    {
      "channel": 1,
      "note": 80,
      "start": 15.1649,
      "duration": 0.0477,
      "velocity": 98,
      "chip": "ym2612"
    },
    {
      "channel": 5,
      "note": 84,
      "start": 15.1654,
      "duration": 0.0473,
      "velocity": 98,
      "chip": "ym2612"
    },
    {
      "channel": 0,
      "note": 81,
      "start": 15.206,
      "duration": 0.0478,
      "velocity": 98,
      "chip": "ym2612"
    },
    {
      "channel": 4,
      "note": 85,
      "start": 15.2065,
      "duration": 0.0474,
      "velocity": 98,
      "chip": "ym2612"
    },
    {
      "channel": 1,
      "note": 80,
      "start": 15.2473,
      "duration": 0.0477,
      "velocity": 98,
      "chip": "ym2612"
    },
    {
      "channel": 5,
      "note": 84,
      "start": 15.2477,
      "duration": 0.0474,
      "velocity": 98,
      "chip": "ym2612"
    },
    {
      "channel": 0,
      "note": 81,
      "start": 15.2885,
      "duration": 0.0478,
      "velocity": 98,
      "chip": "ym2612"
    },
    {
      "channel": 4,
      "note": 85,
      "start": 15.2889,
      "duration": 0.0474,
      "velocity": 98,
      "chip": "ym2612"
    },
    {
      "channel": 1,
      "note": 81,
      "start": 15.3298,
      "duration": 0.0477,
      "velocity": 98,
      "chip": "ym2612"
    },
    {
      "channel": 5,
      "note": 85,
      "start": 15.3303,
      "duration": 0.0473,
      "velocity": 98,
      "chip": "ym2612"
    },
    {
      "channel": 0,
      "note": 81,
      "start": 15.3711,
      "duration": 0.0477,
      "velocity": 98,
      "chip": "ym2612"
    },
    {
      "channel": 4,
      "note": 85,
      "start": 15.3715,
      "duration": 0.0473,
      "velocity": 98,
      "chip": "ym2612"
    },
    {
      "channel": 1,
      "note": 81,
      "start": 15.4122,
      "duration": 0.0479,
      "velocity": 98,
      "chip": "ym2612"
    },
    {
      "channel": 5,
      "note": 85,
      "start": 15.4127,
      "duration": 0.0475,
      "velocity": 98,
      "chip": "ym2612"
    },
    {
      "channel": 0,
      "note": 81,
      "start": 15.4535,
      "duration": 0.0478,
      "velocity": 98,
      "chip": "ym2612"
    },
    {
      "channel": 4,
      "note": 85,
      "start": 15.454,
      "duration": 0.0474,
      "velocity": 98,
      "chip": "ym2612"
    },
    {
      "channel": 1,
      "note": 81,
      "start": 15.4949,
      "duration": 0.0477,
      "velocity": 98,
      "chip": "ym2612"
    },
    {
      "channel": 5,
      "note": 85,
      "start": 15.4954,
      "duration": 0.0473,
      "velocity": 98,
      "chip": "ym2612"
    },
    {
      "channel": 0,
      "note": 81,
      "start": 15.5361,
      "duration": 0.0478,
      "velocity": 98,
      "chip": "ym2612"
    },
    {
      "channel": 4,
      "note": 85,
      "start": 15.5365,
      "duration": 0.0475,
      "velocity": 98,
      "chip": "ym2612"
    },
    {
      "channel": 1,
      "note": 81,
      "start": 15.5773,
      "duration": 0.0478,
      "velocity": 98,
      "chip": "ym2612"
    },
    {
      "channel": 5,
      "note": 85,
      "start": 15.5777,
      "duration": 0.0474,
      "velocity": 98,
      "chip": "ym2612"
    },
    {
      "channel": 0,
      "note": 81,
      "start": 15.6185,
      "duration": 0.0479,
      "velocity": 98,
      "chip": "ym2612"
    },
    {
      "channel": 4,
      "note": 85,
      "start": 15.619,
      "duration": 0.0475,
      "velocity": 98,
      "chip": "ym2612"
    },
    {
      "channel": 1,
      "note": 81,
      "start": 15.6598,
      "duration": 0.0478,
      "velocity": 98,
      "chip": "ym2612"
    },
    {
      "channel": 5,
      "note": 85,
      "start": 15.6604,
      "duration": 0.0473,
      "velocity": 98,
      "chip": "ym2612"
    },
    {
      "channel": 0,
      "note": 81,
      "start": 15.7047,
      "duration": 0.0442,
      "velocity": 98,
      "chip": "ym2612"
    },
    {
      "channel": 2,
      "note": 43,
      "start": 15.7052,
      "duration": 0.0746,
      "velocity": 106,
      "chip": "ym2612"
    },
    {
      "channel": 3,
      "note": 43,
      "start": 15.7057,
      "duration": 0.0742,
      "velocity": 106,
      "chip": "ym2612"
    },
    {
      "channel": 4,
      "note": 85,
      "start": 15.7062,
      "duration": 0.0428,
      "velocity": 98,
      "chip": "ym2612"
    },
    {
      "channel": 1,
      "note": 81,
      "start": 15.7423,
      "duration": 0.0478,
      "velocity": 98,
      "chip": "ym2612"
    },
    {
      "channel": 5,
      "note": 85,
      "start": 15.7428,
      "duration": 0.0474,
      "velocity": 98,
      "chip": "ym2612"
    },
    {
      "channel": 0,
      "note": 81,
      "start": 15.7836,
      "duration": 0.0479,
      "velocity": 98,
      "chip": "ym2612"
    },
    {
      "channel": 2,
      "note": 42,
      "start": 15.784,
      "duration": 0.0782,
      "velocity": 106,
      "chip": "ym2612"
    },
    {
      "channel": 3,
      "note": 42,
      "start": 15.7848,
      "duration": 0.0776,
      "velocity": 106,
      "chip": "ym2612"
    },
    {
      "channel": 4,
      "note": 85,
      "start": 15.7852,
      "duration": 0.0463,
      "velocity": 98,
      "chip": "ym2612"
    },
    {
      "channel": 1,
      "note": 81,
      "start": 15.8248,
      "duration": 0.0478,
      "velocity": 98,
      "chip": "ym2612"
    },
    {
      "channel": 5,
      "note": 85,
      "start": 15.8253,
      "duration": 0.0475,
      "velocity": 98,
      "chip": "ym2612"
    },
    {
      "channel": 0,
      "note": 89,
      "start": 15.8661,
      "duration": 0.0478,
      "velocity": 98,
      "chip": "ym2612"
    },
    {
      "channel": 2,
      "note": 41,
      "start": 15.8666,
      "duration": 1.151,
      "velocity": 106,
      "chip": "ym2612"
    },
    {
      "channel": 3,
      "note": 41,
      "start": 15.8671,
      "duration": 1.1506,
      "velocity": 106,
      "chip": "ym2612"
    },
    {
      "channel": 4,
      "note": 92,
      "start": 15.8675,
      "duration": 0.0464,
      "velocity": 98,
      "chip": "ym2612"
    },
    {
      "channel": 1,
      "note": 81,
      "start": 15.9074,
      "duration": 0.0478,
      "velocity": 98,
      "chip": "ym2612"
    },
    {
      "channel": 5,
      "note": 85,
      "start": 15.9079,
      "duration": 0.0475,
      "velocity": 98,
      "chip": "ym2612"
    },
    {
      "channel": 0,
      "note": 89,
      "start": 15.9486,
      "duration": 0.0478,
      "velocity": 98,
      "chip": "ym2612"
    },
    {
      "channel": 4,
      "note": 92,
      "start": 15.949,
      "duration": 0.0474,
      "velocity": 98,
      "chip": "ym2612"
    },
    {
      "channel": 1,
      "note": 89,
      "start": 15.9899,
      "duration": 0.0478,
      "velocity": 98,
      "chip": "ym2612"
    },
    {
      "channel": 5,
      "note": 92,
      "start": 15.9904,
      "duration": 0.0474,
      "velocity": 98,
      "chip": "ym2612"
    },
    {
      "channel": 0,
      "note": 89,
      "start": 16.0312,
      "duration": 0.0478,
      "velocity": 98,
      "chip": "ym2612"
    },
    {
      "channel": 4,
      "note": 92,
      "start": 16.0316,
      "duration": 0.0474,
      "velocity": 98,
      "chip": "ym2612"
    },
    {
      "channel": 1,
      "note": 89,
      "start": 16.0724,
      "duration": 0.0477,
      "velocity": 98,
      "chip": "ym2612"
    },
    {
      "channel": 5,
      "note": 92,
      "start": 16.0729,
      "duration": 0.0473,
      "velocity": 98,
      "chip": "ym2612"
    },
    {
      "channel": 0,
      "note": 89,
      "start": 16.1137,
      "duration": 0.0476,
      "velocity": 98,
      "chip": "ym2612"
    },
    {
      "channel": 4,
      "note": 92,
      "start": 16.1144,
      "duration": 0.047,
      "velocity": 98,
      "chip": "ym2612"
    },
    {
      "channel": 1,
      "note": 89,
      "start": 16.1549,
      "duration": 0.0478,
      "velocity": 98,
      "chip": "ym2612"
    },
    {
      "channel": 5,
      "note": 92,
      "start": 16.1553,
      "duration": 0.0474,
      "velocity": 98,
      "chip": "ym2612"
    },
    {
      "channel": 0,
      "note": 89,
      "start": 16.1961,
      "duration": 0.0478,
      "velocity": 98,
      "chip": "ym2612"
    },
    {
      "channel": 4,
      "note": 92,
      "start": 16.1966,
      "duration": 0.0475,
      "velocity": 98,
      "chip": "ym2612"
    },
    {
      "channel": 1,
      "note": 89,
      "start": 16.2375,
      "duration": 0.0477,
      "velocity": 98,
      "chip": "ym2612"
    },
    {
      "channel": 5,
      "note": 92,
      "start": 16.2379,
      "duration": 0.0474,
      "velocity": 98,
      "chip": "ym2612"
    },
    {
      "channel": 0,
      "note": 89,
      "start": 16.2786,
      "duration": 0.0478,
      "velocity": 98,
      "chip": "ym2612"
    },
    {
      "channel": 4,
      "note": 92,
      "start": 16.2791,
      "duration": 0.0474,
      "velocity": 98,
      "chip": "ym2612"
    },
    {
      "channel": 1,
      "note": 89,
      "start": 16.32,
      "duration": 0.0477,
      "velocity": 98,
      "chip": "ym2612"
    },
    {
      "channel": 5,
      "note": 92,
      "start": 16.3205,
      "duration": 0.0473,
      "velocity": 98,
      "chip": "ym2612"
    },
    {
      "channel": 0,
      "note": 89,
      "start": 16.3612,
      "duration": 0.0477,
      "velocity": 98,
      "chip": "ym2612"
    },
    {
      "channel": 4,
      "note": 92,
      "start": 16.3617,
      "duration": 0.0473,
      "velocity": 98,
      "chip": "ym2612"
    },
    {
      "channel": 1,
      "note": 89,
      "start": 16.4025,
      "duration": 0.0477,
      "velocity": 98,
      "chip": "ym2612"
    },
    {
      "channel": 5,
      "note": 92,
      "start": 16.403,
      "duration": 0.0473,
      "velocity": 98,
      "chip": "ym2612"
    },
    {
      "channel": 0,
      "note": 89,
      "start": 16.4438,
      "duration": 0.0478,
      "velocity": 98,
      "chip": "ym2612"
    },
    {
      "channel": 4,
      "note": 92,
      "start": 16.4445,
      "duration": 0.0471,
      "velocity": 98,
      "chip": "ym2612"
    },
    {
      "channel": 1,
      "note": 89,
      "start": 16.4849,
      "duration": 0.0479,
      "velocity": 98,
      "chip": "ym2612"
    },
    {
      "channel": 5,
      "note": 92,
      "start": 16.4854,
      "duration": 0.0475,
      "velocity": 98,
      "chip": "ym2612"
    },
    {
      "channel": 0,
      "note": 90,
      "start": 16.5262,
      "duration": 0.0478,
      "velocity": 98,
      "chip": "ym2612"
    },
    {
      "channel": 4,
      "note": 93,
      "start": 16.5266,
      "duration": 0.0474,
      "velocity": 98,
      "chip": "ym2612"
    },
    {
      "channel": 1,
      "note": 89,
      "start": 16.5676,
      "duration": 0.0476,
      "velocity": 98,
      "chip": "ym2612"
    },
    {
      "channel": 5,
      "note": 92,
      "start": 16.5681,
      "duration": 0.0472,
      "velocity": 98,
      "chip": "ym2612"
    },
    {
      "channel": 0,
      "note": 90,
      "start": 16.6087,
      "duration": 0.0477,
      "velocity": 98,
      "chip": "ym2612"
    },
    {
      "channel": 4,
      "note": 93,
      "start": 16.6092,
      "duration": 0.0474,
      "velocity": 98,
      "chip": "ym2612"
    },
    {
      "channel": 1,
      "note": 90,
      "start": 16.6499,
      "duration": 0.0479,
      "velocity": 98,
      "chip": "ym2612"
    },
    {
      "channel": 5,
      "note": 93,
      "start": 16.6504,
      "duration": 0.0475,
      "velocity": 98,
      "chip": "ym2612"
    },
    {
      "channel": 0,
      "note": 90,
      "start": 16.6912,
      "duration": 0.0479,
      "velocity": 98,
      "chip": "ym2612"
    },
    {
      "channel": 4,
      "note": 93,
      "start": 16.6917,
      "duration": 0.0475,
      "velocity": 98,
      "chip": "ym2612"
    },
    {
      "channel": 1,
      "note": 90,
      "start": 16.7324,
      "duration": 0.0478,
      "velocity": 98,
      "chip": "ym2612"
    },
    {
      "channel": 5,
      "note": 93,
      "start": 16.7329,
      "duration": 0.0474,
      "velocity": 98,
      "chip": "ym2612"
    },
    {
      "channel": 0,
      "note": 90,
      "start": 16.7737,
      "duration": 0.0478,
      "velocity": 98,
      "chip": "ym2612"
    },
    {
      "channel": 4,
      "note": 93,
      "start": 16.7744,
      "duration": 0.0471,
      "velocity": 98,
      "chip": "ym2612"
    },
    {
      "channel": 1,
      "note": 90,
      "start": 16.8151,
      "duration": 0.0477,
      "velocity": 98,
      "chip": "ym2612"
    },
    {
      "channel": 5,
      "note": 93,
      "start": 16.8155,
      "duration": 0.0473,
      "velocity": 98,
      "chip": "ym2612"
    },
    {
      "channel": 0,
      "note": 90,
      "start": 16.8563,
      "duration": 0.0481,
      "velocity": 98,
      "chip": "ym2612"
    },
    {
      "channel": 4,
      "note": 93,
      "start": 16.8568,
      "duration": 0.0477,
      "velocity": 98,
      "chip": "ym2612"
    },
    {
      "channel": 1,
      "note": 90,
      "start": 16.8976,
      "duration": 0.0478,
      "velocity": 98,
      "chip": "ym2612"
    },
    {
      "channel": 5,
      "note": 93,
      "start": 16.898,
      "duration": 0.0474,
      "velocity": 98,
      "chip": "ym2612"
    },
    {
      "channel": 0,
      "note": 90,
      "start": 16.9387,
      "duration": 0.0479,
      "velocity": 98,
      "chip": "ym2612"
    },
    {
      "channel": 4,
      "note": 93,
      "start": 16.9392,
      "duration": 0.0475,
      "velocity": 98,
      "chip": "ym2612"
    },
    {
      "channel": 1,
      "note": 90,
      "start": 16.9801,
      "duration": 0.0512,
      "velocity": 98,
      "chip": "ym2612"
    },
    {
      "channel": 5,
      "note": 93,
      "start": 16.9807,
      "duration": 0.0507,
      "velocity": 98,
      "chip": "ym2612"
    },
    {
      "channel": 0,
      "note": 90,
      "start": 17.0249,
      "duration": 0.0476,
      "velocity": 98,
      "chip": "ym2612"
    },
    {
      "channel": 2,
      "note": 39,
      "start": 17.0254,
      "duration": 0.1605,
      "velocity": 106,
      "chip": "ym2612"
    },
    {
      "channel": 3,
      "note": 39,
      "start": 17.0259,
      "duration": 0.1602,
      "velocity": 106,
      "chip": "ym2612"
    },
    {
      "channel": 4,
      "note": 93,
      "start": 17.0263,
      "duration": 0.0463,
      "velocity": 98,
      "chip": "ym2612"
    },
    {
      "channel": 1,
      "note": 90,
      "start": 17.066,
      "duration": 0.0477,
      "velocity": 98,
      "chip": "ym2612"
    },
    {
      "channel": 5,
      "note": 93,
      "start": 17.0665,
      "duration": 0.0473,
      "velocity": 98,
      "chip": "ym2612"
    },
    {
      "channel": 0,
      "note": 90,
      "start": 17.1072,
      "duration": 0.0478,
      "velocity": 98,
      "chip": "ym2612"
    },
    {
      "channel": 4,
      "note": 93,
      "start": 17.1076,
      "duration": 0.0474,
      "velocity": 98,
      "chip": "ym2612"
    },
    {
      "channel": 1,
      "note": 90,
      "start": 17.1485,
      "duration": 0.0478,
      "velocity": 98,
      "chip": "ym2612"
    },
    {
      "channel": 5,
      "note": 93,
      "start": 17.149,
      "duration": 0.0474,
      "velocity": 98,
      "chip": "ym2612"
    },
    {
      "channel": 0,
      "note": 85,
      "start": 17.1898,
      "duration": 0.0478,
      "velocity": 98,
      "chip": "ym2612"
    },
    {
      "channel": 2,
      "note": 38,
      "start": 17.1903,
      "duration": 1.3158,
      "velocity": 106,
      "chip": "ym2612"
    },
    {
      "channel": 3,
      "note": 38,
      "start": 17.1908,
      "duration": 1.3154,
      "velocity": 106,
      "chip": "ym2612"
    },
    {
      "channel": 4,
      "note": 89,
      "start": 17.1912,
      "duration": 0.0464,
      "velocity": 98,
      "chip": "ym2612"
    },
    {
      "channel": 1,
      "note": 90,
      "start": 17.231,
      "duration": 0.0477,
      "velocity": 98,
      "chip": "ym2612"
    },
    {
      "channel": 5,
      "note": 93,
      "start": 17.2315,
      "duration": 0.0473,
      "velocity": 98,
      "chip": "ym2612"
    },
    {
      "channel": 0,
      "note": 85,
      "start": 17.2722,
      "duration": 0.0478,
      "velocity": 98,
      "chip": "ym2612"
    },
    {
      "channel": 4,
      "note": 89,
      "start": 17.2728,
      "duration": 0.0474,
      "velocity": 98,
      "chip": "ym2612"
    },
    {
      "channel": 1,
      "note": 85,
      "start": 17.3135,
      "duration": 0.0477,
      "velocity": 98,
      "chip": "ym2612"
    },
    {
      "channel": 5,
      "note": 89,
      "start": 17.314,
      "duration": 0.0474,
      "velocity": 98,
      "chip": "ym2612"
    },
    {
      "channel": 0,
      "note": 85,
      "start": 17.3548,
      "duration": 0.0478,
      "velocity": 98,
      "chip": "ym2612"
    },
    {
      "channel": 4,
      "note": 89,
      "start": 17.3553,
      "duration": 0.0474,
      "velocity": 98,
      "chip": "ym2612"
    },
    {
      "channel": 1,
      "note": 85,
      "start": 17.396,
      "duration": 0.0478,
      "velocity": 98,
      "chip": "ym2612"
    },
    {
      "channel": 5,
      "note": 89,
      "start": 17.3965,
      "duration": 0.0475,
      "velocity": 98,
      "chip": "ym2612"
    },
    {
      "channel": 0,
      "note": 85,
      "start": 17.4372,
      "duration": 0.0482,
      "velocity": 98,
      "chip": "ym2612"
    },
    {
      "channel": 4,
      "note": 89,
      "start": 17.4377,
      "duration": 0.0479,
      "velocity": 98,
      "chip": "ym2612"
    },
    {
      "channel": 1,
      "note": 85,
      "start": 17.4785,
      "duration": 0.0478,
      "velocity": 98,
      "chip": "ym2612"
    },
    {
      "channel": 5,
      "note": 89,
      "start": 17.479,
      "duration": 0.0474,
      "velocity": 98,
      "chip": "ym2612"
    },
    {
      "channel": 0,
      "note": 85,
      "start": 17.5198,
      "duration": 0.0478,
      "velocity": 98,
      "chip": "ym2612"
    },
    {
      "channel": 4,
      "note": 89,
      "start": 17.5203,
      "duration": 0.0474,
      "velocity": 98,
      "chip": "ym2612"
    },
    {
      "channel": 1,
      "note": 85,
      "start": 17.561,
      "duration": 0.0479,
      "velocity": 98,
      "chip": "ym2612"
    },
    {
      "channel": 5,
      "note": 89,
      "start": 17.5615,
      "duration": 0.0475,
      "velocity": 98,
      "chip": "ym2612"
    },
    {
      "channel": 0,
      "note": 85,
      "start": 17.6023,
      "duration": 0.0478,
      "velocity": 98,
      "chip": "ym2612"
    },
    {
      "channel": 4,
      "note": 89,
      "start": 17.6027,
      "duration": 0.0475,
      "velocity": 98,
      "chip": "ym2612"
    },
    {
      "channel": 1,
      "note": 85,
      "start": 17.6435,
      "duration": 0.0478,
      "velocity": 98,
      "chip": "ym2612"
    },
    {
      "channel": 5,
      "note": 89,
      "start": 17.644,
      "duration": 0.0474,
      "velocity": 98,
      "chip": "ym2612"
    },
    {
      "channel": 0,
      "note": 85,
      "start": 17.6849,
      "duration": 0.0476,
      "velocity": 98,
      "chip": "ym2612"
    },
    {
      "channel": 4,
      "note": 89,
      "start": 17.6854,
      "duration": 0.0472,
      "velocity": 98,
      "chip": "ym2612"
    },
    {
      "channel": 1,
      "note": 85,
      "start": 17.7261,
      "duration": 0.0477,
      "velocity": 98,
      "chip": "ym2612"
    },
    {
      "channel": 5,
      "note": 89,
      "start": 17.7267,
      "duration": 0.0472,
      "velocity": 98,
      "chip": "ym2612"
    },
    {
      "channel": 0,
      "note": 85,
      "start": 17.7673,
      "duration": 0.0477,
      "velocity": 98,
      "chip": "ym2612"
    },
    {
      "channel": 4,
      "note": 89,
      "start": 17.7678,
      "duration": 0.0473,
      "velocity": 98,
      "chip": "ym2612"
    },
    {
      "channel": 1,
      "note": 85,
      "start": 17.8085,
      "duration": 0.0479,
      "velocity": 98,
      "chip": "ym2612"
    },
    {
      "channel": 5,
      "note": 89,
      "start": 17.809,
      "duration": 0.0475,
      "velocity": 98,
      "chip": "ym2612"
    },
    {
      "channel": 0,
      "note": 86,
      "start": 17.8498,
      "duration": 0.0479,
      "velocity": 98,
      "chip": "ym2612"
    },
    {
      "channel": 4,
      "note": 89,
      "start": 17.8503,
      "duration": 0.0476,
      "velocity": 98,
      "chip": "ym2612"
    },
    {
      "channel": 1,
      "note": 85,
      "start": 17.891,
      "duration": 0.0478,
      "velocity": 98,
      "chip": "ym2612"
    },
    {
      "channel": 5,
      "note": 89,
      "start": 17.8915,
      "duration": 0.0474,
      "velocity": 98,
      "chip": "ym2612"
    },
    {
      "channel": 0,
      "note": 86,
      "start": 17.9323,
      "duration": 0.0478,
      "velocity": 98,
      "chip": "ym2612"
    },
    {
      "channel": 4,
      "note": 89,
      "start": 17.9328,
      "duration": 0.0474,
      "velocity": 98,
      "chip": "ym2612"
    },
    {
      "channel": 1,
      "note": 86,
      "start": 17.9736,
      "duration": 0.0478,
      "velocity": 98,
      "chip": "ym2612"
    },
    {
      "channel": 5,
      "note": 89,
      "start": 17.974,
      "duration": 0.0474,
      "velocity": 98,
      "chip": "ym2612"
    },
    {
      "channel": 0,
      "note": 86,
      "start": 18.0149,
      "duration": 0.0478,
      "velocity": 98,
      "chip": "ym2612"
    },
    {
      "channel": 4,
      "note": 89,
      "start": 18.0154,
      "duration": 0.0474,
      "velocity": 98,
      "chip": "ym2612"
    },
    {
      "channel": 1,
      "note": 86,
      "start": 18.0561,
      "duration": 0.0478,
      "velocity": 98,
      "chip": "ym2612"
    },
    {
      "channel": 5,
      "note": 89,
      "start": 18.0566,
      "duration": 0.0474,
      "velocity": 98,
      "chip": "ym2612"
    },
    {
      "channel": 0,
      "note": 86,
      "start": 18.0974,
      "duration": 0.0477,
      "velocity": 98,
      "chip": "ym2612"
    },
    {
      "channel": 4,
      "note": 89,
      "start": 18.0979,
      "duration": 0.0473,
      "velocity": 98,
      "chip": "ym2612"
    },
    {
      "channel": 1,
      "note": 86,
      "start": 18.1386,
      "duration": 0.0479,
      "velocity": 98,
      "chip": "ym2612"
    },
    {
      "channel": 5,
      "note": 89,
      "start": 18.139,
      "duration": 0.0475,
      "velocity": 98,
      "chip": "ym2612"
    },
    {
      "channel": 0,
      "note": 86,
      "start": 18.1798,
      "duration": 0.0478,
      "velocity": 98,
      "chip": "ym2612"
    },
    {
      "channel": 4,
      "note": 89,
      "start": 18.1804,
      "duration": 0.0473,
      "velocity": 98,
      "chip": "ym2612"
    },
    {
      "channel": 1,
      "note": 86,
      "start": 18.2212,
      "duration": 0.0478,
      "velocity": 98,
      "chip": "ym2612"
    },
    {
      "channel": 5,
      "note": 89,
      "start": 18.2217,
      "duration": 0.0474,
      "velocity": 98,
      "chip": "ym2612"
    },
    {
      "channel": 0,
      "note": 86,
      "start": 18.2624,
      "duration": 0.0478,
      "velocity": 98,
      "chip": "ym2612"
    },
    {
      "channel": 4,
      "note": 89,
      "start": 18.2628,
      "duration": 0.0474,
      "velocity": 98,
      "chip": "ym2612"
    },
    {
      "channel": 1,
      "note": 86,
      "start": 18.3036,
      "duration": 0.0479,
      "velocity": 98,
      "chip": "ym2612"
    },
    {
      "channel": 5,
      "note": 89,
      "start": 18.3041,
      "duration": 0.0476,
      "velocity": 98,
      "chip": "ym2612"
    },
    {
      "channel": 0,
      "note": 86,
      "start": 18.3449,
      "duration": 0.0477,
      "velocity": 98,
      "chip": "ym2612"
    },
    {
      "channel": 4,
      "note": 89,
      "start": 18.3454,
      "duration": 0.0474,
      "velocity": 98,
      "chip": "ym2612"
    },
    {
      "channel": 1,
      "note": 86,
      "start": 18.3861,
      "duration": 0.0478,
      "velocity": 98,
      "chip": "ym2612"
    },
    {
      "channel": 5,
      "note": 89,
      "start": 18.3866,
      "duration": 0.0474,
      "velocity": 98,
      "chip": "ym2612"
    },
    {
      "channel": 0,
      "note": 86,
      "start": 18.4275,
      "duration": 0.0477,
      "velocity": 98,
      "chip": "ym2612"
    },
    {
      "channel": 4,
      "note": 89,
      "start": 18.4279,
      "duration": 0.0474,
      "velocity": 98,
      "chip": "ym2612"
    },
    {
      "channel": 1,
      "note": 86,
      "start": 18.4686,
      "duration": 0.0478,
      "velocity": 98,
      "chip": "ym2612"
    },
    {
      "channel": 5,
      "note": 89,
      "start": 18.4691,
      "duration": 0.0474,
      "velocity": 98,
      "chip": "ym2612"
    },
    {
      "channel": 0,
      "note": 89,
      "start": 18.5099,
      "duration": 0.0478,
      "velocity": 98,
      "chip": "ym2612"
    },
    {
      "channel": 2,
      "note": 40,
      "start": 18.5104,
      "duration": 1.1544,
      "velocity": 106,
      "chip": "ym2612"
    },
    {
      "channel": 3,
      "note": 40,
      "start": 18.5109,
      "duration": 1.154,
      "velocity": 106,
      "chip": "ym2612"
    },
    {
      "channel": 4,
      "note": 92,
      "start": 18.5113,
      "duration": 0.0464,
      "velocity": 98,
      "chip": "ym2612"
    },
    {
      "channel": 1,
      "note": 86,
      "start": 18.5513,
      "duration": 0.0478,
      "velocity": 98,
      "chip": "ym2612"
    },
    {
      "channel": 5,
      "note": 89,
      "start": 18.5517,
      "duration": 0.0474,
      "velocity": 98,
      "chip": "ym2612"
    },
    {
      "channel": 0,
      "note": 89,
      "start": 18.5924,
      "duration": 0.0478,
      "velocity": 98,
      "chip": "ym2612"
    },
    {
      "channel": 4,
      "note": 92,
      "start": 18.5929,
      "duration": 0.0474,
      "velocity": 98,
      "chip": "ym2612"
    },
    {
      "channel": 1,
      "note": 89,
      "start": 18.6339,
      "duration": 0.0476,
      "velocity": 98,
      "chip": "ym2612"
    },
    {
      "channel": 5,
      "note": 92,
      "start": 18.6346,
      "duration": 0.047,
      "velocity": 98,
      "chip": "ym2612"
    },
    {
      "channel": 0,
      "note": 89,
      "start": 18.6757,
      "duration": 0.0471,
      "velocity": 98,
      "chip": "ym2612"
    },
    {
      "channel": 4,
      "note": 92,
      "start": 18.6761,
      "duration": 0.0467,
      "velocity": 98,
      "chip": "ym2612"
    },
    {
      "channel": 1,
      "note": 89,
      "start": 18.7162,
      "duration": 0.0478,
      "velocity": 98,
      "chip": "ym2612"
    },
    {
      "channel": 5,
      "note": 92,
      "start": 18.7166,
      "duration": 0.0474,
      "velocity": 98,
      "chip": "ym2612"
    },
    {
      "channel": 0,
      "note": 89,
      "start": 18.7574,
      "duration": 0.0478,
      "velocity": 98,
      "chip": "ym2612"
    },
    {
      "channel": 4,
      "note": 92,
      "start": 18.7579,
      "duration": 0.0474,
      "velocity": 98,
      "chip": "ym2612"
    },
    {
      "channel": 1,
      "note": 89,
      "start": 18.7987,
      "duration": 0.0478,
      "velocity": 98,
      "chip": "ym2612"
    },
    {
      "channel": 5,
      "note": 92,
      "start": 18.7991,
      "duration": 0.0474,
      "velocity": 98,
      "chip": "ym2612"
    },
    {
      "channel": 0,
      "note": 89,
      "start": 18.8399,
      "duration": 0.0478,
      "velocity": 98,
      "chip": "ym2612"
    },
    {
      "channel": 4,
      "note": 92,
      "start": 18.8404,
      "duration": 0.0474,
      "velocity": 98,
      "chip": "ym2612"
    },
    {
      "channel": 1,
      "note": 89,
      "start": 18.8813,
      "duration": 0.0477,
      "velocity": 98,
      "chip": "ym2612"
    },
    {
      "channel": 5,
      "note": 92,
      "start": 18.8817,
      "duration": 0.0473,
      "velocity": 98,
      "chip": "ym2612"
    },
    {
      "channel": 0,
      "note": 89,
      "start": 18.9224,
      "duration": 0.0512,
      "velocity": 98,
      "chip": "ym2612"
    },
    {
      "channel": 4,
      "note": 92,
      "start": 18.9229,
      "duration": 0.0509,
      "velocity": 98,
      "chip": "ym2612"
    },
    {
      "channel": 1,
      "note": 89,
      "start": 18.9677,
      "duration": 0.0473,
      "velocity": 98,
      "chip": "ym2612"
    },
    {
      "channel": 5,
      "note": 92,
      "start": 18.9681,
      "duration": 0.0469,
      "velocity": 98,
      "chip": "ym2612"
    },
    {
      "channel": 0,
      "note": 89,
      "start": 19.0084,
      "duration": 0.0478,
      "velocity": 98,
      "chip": "ym2612"
    },
    {
      "channel": 4,
      "note": 92,
      "start": 19.0089,
      "duration": 0.0475,
      "velocity": 98,
      "chip": "ym2612"
    },
    {
      "channel": 1,
      "note": 89,
      "start": 19.0497,
      "duration": 0.0486,
      "velocity": 98,
      "chip": "ym2612"
    },
    {
      "channel": 5,
      "note": 92,
      "start": 19.0501,
      "duration": 0.0483,
      "velocity": 98,
      "chip": "ym2612"
    },
    {
      "channel": 0,
      "note": 89,
      "start": 19.0909,
      "duration": 0.0478,
      "velocity": 98,
      "chip": "ym2612"
    },
    {
      "channel": 4,
      "note": 92,
      "start": 19.0914,
      "duration": 0.0474,
      "velocity": 98,
      "chip": "ym2612"
    },
    {
      "channel": 1,
      "note": 89,
      "start": 19.1323,
      "duration": 0.0477,
      "velocity": 98,
      "chip": "ym2612"
    },
    {
      "channel": 5,
      "note": 92,
      "start": 19.1327,
      "duration": 0.0473,
      "velocity": 98,
      "chip": "ym2612"
    },
    {
      "channel": 0,
      "note": 90,
      "start": 19.1734,
      "duration": 0.0478,
      "velocity": 98,
      "chip": "ym2612"
    },
    {
      "channel": 4,
      "note": 93,
      "start": 19.1739,
      "duration": 0.0474,
      "velocity": 98,
      "chip": "ym2612"
    },
    {
      "channel": 1,
      "note": 89,
      "start": 19.2149,
      "duration": 0.0476,
      "velocity": 98,
      "chip": "ym2612"
    },
    {
      "channel": 5,
      "note": 92,
      "start": 19.2153,
      "duration": 0.0472,
      "velocity": 98,
      "chip": "ym2612"
    },
    {
      "channel": 0,
      "note": 90,
      "start": 19.2559,
      "duration": 0.0479,
      "velocity": 98,
      "chip": "ym2612"
    },
    {
      "channel": 4,
      "note": 93,
      "start": 19.2564,
      "duration": 0.0475,
      "velocity": 98,
      "chip": "ym2612"
    },
    {
      "channel": 1,
      "note": 90,
      "start": 19.2972,
      "duration": 0.0479,
      "velocity": 98,
      "chip": "ym2612"
    },
    {
      "channel": 5,
      "note": 93,
      "start": 19.2977,
      "duration": 0.0475,
      "velocity": 98,
      "chip": "ym2612"
    },
    {
      "channel": 0,
      "note": 90,
      "start": 19.3385,
      "duration": 0.0478,
      "velocity": 98,
      "chip": "ym2612"
    },
    {
      "channel": 4,
      "note": 93,
      "start": 19.339,
      "duration": 0.0474,
      "velocity": 98,
      "chip": "ym2612"
    },
    {
      "channel": 1,
      "note": 90,
      "start": 19.3798,
      "duration": 0.0477,
      "velocity": 98,
      "chip": "ym2612"
    },
    {
      "channel": 5,
      "note": 93,
      "start": 19.3803,
      "duration": 0.0473,
      "velocity": 98,
      "chip": "ym2612"
    },
    {
      "channel": 0,
      "note": 90,
      "start": 19.4212,
      "duration": 0.0475,
      "velocity": 98,
      "chip": "ym2612"
    },
    {
      "channel": 4,
      "note": 93,
      "start": 19.4217,
      "duration": 0.0472,
      "velocity": 98,
      "chip": "ym2612"
    },
    {
      "channel": 1,
      "note": 90,
      "start": 19.4622,
      "duration": 0.0479,
      "velocity": 98,
      "chip": "ym2612"
    },
    {
      "channel": 5,
      "note": 93,
      "start": 19.4627,
      "duration": 0.0475,
      "velocity": 98,
      "chip": "ym2612"
    },
    {
      "channel": 0,
      "note": 90,
      "start": 19.5035,
      "duration": 0.0484,
      "velocity": 98,
      "chip": "ym2612"
    },
    {
      "channel": 4,
      "note": 93,
      "start": 19.5039,
      "duration": 0.048,
      "velocity": 98,
      "chip": "ym2612"
    },
    {
      "channel": 1,
      "note": 90,
      "start": 19.5449,
      "duration": 0.0476,
      "velocity": 98,
      "chip": "ym2612"
    },
    {
      "channel": 5,
      "note": 93,
      "start": 19.5454,
      "duration": 0.0473,
      "velocity": 98,
      "chip": "ym2612"
    },
    {
      "channel": 0,
      "note": 90,
      "start": 19.5861,
      "duration": 0.0477,
      "velocity": 98,
      "chip": "ym2612"
    },
    {
      "channel": 4,
      "note": 93,
      "start": 19.5866,
      "duration": 0.0473,
      "velocity": 98,
      "chip": "ym2612"
    },
    {
      "channel": 1,
      "note": 90,
      "start": 19.6272,
      "duration": 0.0478,
      "velocity": 98,
      "chip": "ym2612"
    },
    {
      "channel": 5,
      "note": 93,
      "start": 19.6277,
      "duration": 0.0474,
      "velocity": 98,
      "chip": "ym2612"
    },
    {
      "channel": 0,
      "note": 90,
      "start": 19.6685,
      "duration": 0.0479,
      "velocity": 98,
      "chip": "ym2612"
    },
    {
      "channel": 2,
      "note": 40,
      "start": 19.669,
      "duration": 0.1608,
      "velocity": 106,
      "chip": "ym2612"
    },
    {
      "channel": 3,
      "note": 40,
      "start": 19.6695,
      "duration": 0.1605,
      "velocity": 106,
      "chip": "ym2612"
    },
    {
      "channel": 4,
      "note": 93,
      "start": 19.6699,
      "duration": 0.0465,
      "velocity": 98,
      "chip": "ym2612"
    },
    {
      "channel": 1,
      "note": 90,
      "start": 19.7098,
      "duration": 0.0478,
      "velocity": 98,
      "chip": "ym2612"
    },
    {
      "channel": 5,
      "note": 93,
      "start": 19.7102,
      "duration": 0.0474,
      "velocity": 98,
      "chip": "ym2612"
    },
    {
      "channel": 0,
      "note": 90,
      "start": 19.751,
      "duration": 0.0479,
      "velocity": 98,
      "chip": "ym2612"
    },
    {
      "channel": 4,
      "note": 93,
      "start": 19.7515,
      "duration": 0.0475,
      "velocity": 98,
      "chip": "ym2612"
    },
    {
      "channel": 1,
      "note": 90,
      "start": 19.7923,
      "duration": 0.0478,
      "velocity": 98,
      "chip": "ym2612"
    },
    {
      "channel": 5,
      "note": 93,
      "start": 19.7928,
      "duration": 0.0473,
      "velocity": 98,
      "chip": "ym2612"
    },
    {
      "channel": 0,
      "note": 85,
      "start": 19.8336,
      "duration": 0.0478,
      "velocity": 98,
      "chip": "ym2612"
    },
    {
      "channel": 2,
      "note": 41,
      "start": 19.8341,
      "duration": 1.3227,
      "velocity": 106,
      "chip": "ym2612"
    },
    {
      "channel": 3,
      "note": 41,
      "start": 19.8348,
      "duration": 1.3221,
      "velocity": 106,
      "chip": "ym2612"
    },
    {
      "channel": 4,
      "note": 89,
      "start": 19.8353,
      "duration": 0.0462,
      "velocity": 98,
      "chip": "ym2612"
    },
    {
      "channel": 1,
      "note": 90,
      "start": 19.8749,
      "duration": 0.0478,
      "velocity": 98,
      "chip": "ym2612"
    },
    {
      "channel": 5,
      "note": 93,
      "start": 19.8753,
      "duration": 0.0474,
      "velocity": 98,
      "chip": "ym2612"
    },
    {
      "channel": 0,
      "note": 85,
      "start": 19.9161,
      "duration": 0.0478,
      "velocity": 98,
      "chip": "ym2612"
    },
    {
      "channel": 4,
      "note": 89,
      "start": 19.9166,
      "duration": 0.0474,
      "velocity": 98,
      "chip": "ym2612"
    },
    {
      "channel": 1,
      "note": 85,
      "start": 19.9573,
      "duration": 0.0482,
      "velocity": 98,
      "chip": "ym2612"
    },
    {
      "channel": 5,
      "note": 89,
      "start": 19.9578,
      "duration": 0.0478,
      "velocity": 98,
      "chip": "ym2612"
    },
    {
      "channel": 0,
      "note": 85,
      "start": 19.9985,
      "duration": 0.0478,
      "velocity": 98,
      "chip": "ym2612"
    },
    {
      "channel": 4,
      "note": 89,
      "start": 19.999,
      "duration": 0.0474,
      "velocity": 98,
      "chip": "ym2612"
    },
    {
      "channel": 1,
      "note": 85,
      "start": 20.0398,
      "duration": 0.0479,
      "velocity": 98,
      "chip": "ym2612"
    },
    {
      "channel": 5,
      "note": 89,
      "start": 20.0403,
      "duration": 0.0475,
      "velocity": 98,
      "chip": "ym2612"
    },
    {
      "channel": 0,
      "note": 85,
      "start": 20.0811,
      "duration": 0.0478,
      "velocity": 98,
      "chip": "ym2612"
    },
    {
      "channel": 4,
      "note": 89,
      "start": 20.0815,
      "duration": 0.0474,
      "velocity": 98,
      "chip": "ym2612"
    },
    {
      "channel": 1,
      "note": 85,
      "start": 20.1224,
      "duration": 0.0477,
      "velocity": 98,
      "chip": "ym2612"
    },
    {
      "channel": 5,
      "note": 89,
      "start": 20.1229,
      "duration": 0.0473,
      "velocity": 98,
      "chip": "ym2612"
    },
    {
      "channel": 0,
      "note": 85,
      "start": 20.1636,
      "duration": 0.0479,
      "velocity": 98,
      "chip": "ym2612"
    },
    {
      "channel": 4,
      "note": 89,
      "start": 20.164,
      "duration": 0.0475,
      "velocity": 98,
      "chip": "ym2612"
    },
    {
      "channel": 1,
      "note": 85,
      "start": 20.2049,
      "duration": 0.0478,
      "velocity": 98,
      "chip": "ym2612"
    },
    {
      "channel": 5,
      "note": 89,
      "start": 20.2054,
      "duration": 0.0474,
      "velocity": 98,
      "chip": "ym2612"
    },
    {
      "channel": 0,
      "note": 85,
      "start": 20.2461,
      "duration": 0.0478,
      "velocity": 98,
      "chip": "ym2612"
    },
    {
      "channel": 4,
      "note": 89,
      "start": 20.2466,
      "duration": 0.0473,
      "velocity": 98,
      "chip": "ym2612"
    },
    {
      "channel": 1,
      "note": 85,
      "start": 20.2881,
      "duration": 0.0471,
      "velocity": 98,
      "chip": "ym2612"
    },
    {
      "channel": 5,
      "note": 89,
      "start": 20.2885,
      "duration": 0.0468,
      "velocity": 98,
      "chip": "ym2612"
    },
    {
      "channel": 0,
      "note": 85,
      "start": 20.3286,
      "duration": 0.0478,
      "velocity": 98,
      "chip": "ym2612"
    },
    {
      "channel": 4,
      "note": 89,
      "start": 20.329,
      "duration": 0.0474,
      "velocity": 98,
      "chip": "ym2612"
    },
    {
      "channel": 1,
      "note": 85,
      "start": 20.3699,
      "duration": 0.0478,
      "velocity": 98,
      "chip": "ym2612"
    },
    {
      "channel": 5,
      "note": 89,
      "start": 20.3704,
      "duration": 0.0475,
      "velocity": 98,
      "chip": "ym2612"
    },
    {
      "channel": 0,
      "note": 85,
      "start": 20.4112,
      "duration": 0.0511,
      "velocity": 98,
      "chip": "ym2612"
    },
    {
      "channel": 4,
      "note": 89,
      "start": 20.4117,
      "duration": 0.0508,
      "velocity": 98,
      "chip": "ym2612"
    },
    {
      "channel": 1,
      "note": 85,
      "start": 20.4558,
      "duration": 0.0479,
      "velocity": 98,
      "chip": "ym2612"
    },
    {
      "channel": 5,
      "note": 89,
      "start": 20.4563,
      "duration": 0.0475,
      "velocity": 98,
      "chip": "ym2612"
    },
    {
      "channel": 0,
      "note": 86,
      "start": 20.4972,
      "duration": 0.0477,
      "velocity": 98,
      "chip": "ym2612"
    },
    {
      "channel": 4,
      "note": 89,
      "start": 20.4976,
      "duration": 0.0473,
      "velocity": 98,
      "chip": "ym2612"
    },
    {
      "channel": 1,
      "note": 85,
      "start": 20.5383,
      "duration": 0.0478,
      "velocity": 98,
      "chip": "ym2612"
    },
    {
      "channel": 5,
      "note": 89,
      "start": 20.5389,
      "duration": 0.0473,
      "velocity": 98,
      "chip": "ym2612"
    },
    {
      "channel": 0,
      "note": 86,
      "start": 20.5804,
      "duration": 0.0469,
      "velocity": 98,
      "chip": "ym2612"
    },
    {
      "channel": 4,
      "note": 89,
      "start": 20.5809,
      "duration": 0.0466,
      "velocity": 98,
      "chip": "ym2612"
    },
    {
      "channel": 1,
      "note": 86,
      "start": 20.6208,
      "duration": 0.0479,
      "velocity": 98,
      "chip": "ym2612"
    },
    {
      "channel": 5,
      "note": 89,
      "start": 20.6213,
      "duration": 0.0475,
      "velocity": 98,
      "chip": "ym2612"
    },
    {
      "channel": 0,
      "note": 86,
      "start": 20.6621,
      "duration": 0.0478,
      "velocity": 98,
      "chip": "ym2612"
    },
    {
      "channel": 4,
      "note": 89,
      "start": 20.6626,
      "duration": 0.0476,
      "velocity": 98,
      "chip": "ym2612"
    },
    {
      "channel": 1,
      "note": 86,
      "start": 20.7033,
      "duration": 0.0478,
      "velocity": 98,
      "chip": "ym2612"
    },
    {
      "channel": 5,
      "note": 89,
      "start": 20.7038,
      "duration": 0.0474,
      "velocity": 98,
      "chip": "ym2612"
    },
    {
      "channel": 0,
      "note": 86,
      "start": 20.7448,
      "duration": 0.0476,
      "velocity": 98,
      "chip": "ym2612"
    },
    {
      "channel": 4,
      "note": 89,
      "start": 20.7453,
      "duration": 0.0473,
      "velocity": 98,
      "chip": "ym2612"
    },
    {
      "channel": 1,
      "note": 86,
      "start": 20.7859,
      "duration": 0.0477,
      "velocity": 98,
      "chip": "ym2612"
    },
    {
      "channel": 5,
      "note": 89,
      "start": 20.7864,
      "duration": 0.0473,
      "velocity": 98,
      "chip": "ym2612"
    },
    {
      "channel": 0,
      "note": 86,
      "start": 20.8272,
      "duration": 0.0512,
      "velocity": 98,
      "chip": "ym2612"
    },
    {
      "channel": 4,
      "note": 89,
      "start": 20.8276,
      "duration": 0.0509,
      "velocity": 98,
      "chip": "ym2612"
    },
    {
      "channel": 1,
      "note": 86,
      "start": 20.8684,
      "duration": 0.0513,
      "velocity": 98,
      "chip": "ym2612"
    },
    {
      "channel": 5,
      "note": 89,
      "start": 20.8688,
      "duration": 0.051,
      "velocity": 98,
      "chip": "ym2612"
    },
    {
      "channel": 0,
      "note": 86,
      "start": 20.9131,
      "duration": 0.0478,
      "velocity": 98,
      "chip": "ym2612"
    },
    {
      "channel": 4,
      "note": 89,
      "start": 20.9135,
      "duration": 0.0474,
      "velocity": 98,
      "chip": "ym2612"
    },
    {
      "channel": 1,
      "note": 86,
      "start": 20.9547,
      "duration": 0.0474,
      "velocity": 98,
      "chip": "ym2612"
    },
    {
      "channel": 5,
      "note": 89,
      "start": 20.9551,
      "duration": 0.0471,
      "velocity": 98,
      "chip": "ym2612"
    },
    {
      "channel": 0,
      "note": 86,
      "start": 20.9956,
      "duration": 0.0478,
      "velocity": 98,
      "chip": "ym2612"
    },
    {
      "channel": 4,
      "note": 89,
      "start": 20.996,
      "duration": 0.0474,
      "velocity": 98,
      "chip": "ym2612"
    },
    {
      "channel": 1,
      "note": 86,
      "start": 21.0368,
      "duration": 0.0478,
      "velocity": 98,
      "chip": "ym2612"
    },
    {
      "channel": 5,
      "note": 89,
      "start": 21.0373,
      "duration": 0.0474,
      "velocity": 98,
      "chip": "ym2612"
    },
    {
      "channel": 0,
      "note": 86,
      "start": 21.0782,
      "duration": 0.0478,
      "velocity": 98,
      "chip": "ym2612"
    },
    {
      "channel": 4,
      "note": 89,
      "start": 21.0786,
      "duration": 0.0474,
      "velocity": 98,
      "chip": "ym2612"
    },
    {
      "channel": 1,
      "note": 86,
      "start": 21.1194,
      "duration": 0.0202,
      "velocity": 98,
      "chip": "ym2612"
    },
    {
      "channel": 5,
      "note": 89,
      "start": 21.1199,
      "duration": 0.0198,
      "velocity": 98,
      "chip": "ym2612"
    },
    {
      "channel": 0,
      "note": 78,
      "start": 21.1615,
      "duration": 0.2016,
      "velocity": 103,
      "chip": "ym2612"
    },
    {
      "channel": 2,
      "note": 39,
      "start": 21.1629,
      "duration": 0.1041,
      "velocity": 106,
      "chip": "ym2612"
    },
    {
      "channel": 3,
      "note": 39,
      "start": 21.1634,
      "duration": 0.1037,
      "velocity": 106,
      "chip": "ym2612"
    },
    {
      "channel": 4,
      "note": 72,
      "start": 21.1651,
      "duration": 0.1981,
      "velocity": 103,
      "chip": "ym2612"
    },
    {
      "channel": 5,
      "note": 75,
      "start": 21.1665,
      "duration": 0.1969,
      "velocity": 103,
      "chip": "ym2612"
    },
    {
      "channel": 2,
      "note": 39,
      "start": 21.2707,
      "duration": 0.1061,
      "velocity": 106,
      "chip": "ym2612"
    },
    {
      "channel": 3,
      "note": 39,
      "start": 21.2712,
      "duration": 0.1057,
      "velocity": 106,
      "chip": "ym2612"
    },
    {
      "channel": 1,
      "note": 78,
      "start": 21.2849,
      "duration": 0.2027,
      "velocity": 103,
      "chip": "ym2612"
    },
    {
      "channel": 2,
      "note": 39,
      "start": 21.3807,
      "duration": 0.1067,
      "velocity": 106,
      "chip": "ym2612"
    },
    {
      "channel": 3,
      "note": 39,
      "start": 21.3811,
      "duration": 0.1063,
      "velocity": 106,
      "chip": "ym2612"
    },
    {
      "channel": 0,
      "note": 66,
      "start": 21.4907,
      "duration": 0.0649,
      "velocity": 103,
      "chip": "ym2612"
    },
    {
      "channel": 2,
      "note": 39,
      "start": 21.4912,
      "duration": 0.1641,
      "velocity": 106,
      "chip": "ym2612"
    },
    {
      "channel": 3,
      "note": 39,
      "start": 21.4917,
      "duration": 0.1637,
      "velocity": 106,
      "chip": "ym2612"
    },
    {
      "channel": 4,
      "note": 60,
      "start": 21.4922,
      "duration": 0.0635,
      "velocity": 103,
      "chip": "ym2612"
    },
    {
      "channel": 5,
      "note": 63,
      "start": 21.4927,
      "duration": 0.0631,
      "velocity": 103,
      "chip": "ym2612"
    },
    {
      "channel": 0,
      "note": 66,
      "start": 21.6007,
      "duration": 0.0684,
      "velocity": 103,
      "chip": "ym2612"
    },
    {
      "channel": 4,
      "note": 60,
      "start": 21.6012,
      "duration": 0.0681,
      "velocity": 103,
      "chip": "ym2612"
    },
    {
      "channel": 5,
      "note": 63,
      "start": 21.6017,
      "duration": 0.0677,
      "velocity": 103,
      "chip": "ym2612"
    },
    {
      "channel": 1,
      "note": 66,
      "start": 21.6147,
      "duration": 0.0681,
      "velocity": 103,
      "chip": "ym2612"
    },
    {
      "channel": 0,
      "note": 66,
      "start": 21.7145,
      "duration": 0.065,
      "velocity": 103,
      "chip": "ym2612"
    },
    {
      "channel": 4,
      "note": 60,
      "start": 21.715,
      "duration": 0.0647,
      "velocity": 103,
      "chip": "ym2612"
    },
    {
      "channel": 5,
      "note": 63,
      "start": 21.7154,
      "duration": 0.0643,
      "velocity": 103,
      "chip": "ym2612"
    },
    {
      "channel": 1,
      "note": 66,
      "start": 21.7279,
      "duration": 0.065,
      "velocity": 103,
      "chip": "ym2612"
    },
    {
      "channel": 0,
      "note": 66,
      "start": 21.8244,
      "duration": 0.0992,
      "velocity": 103,
      "chip": "ym2612"
    },
    {
      "channel": 2,
      "note": 39,
      "start": 21.8249,
      "duration": 0.1059,
      "velocity": 106,
      "chip": "ym2612"
    },
    {
      "channel": 3,
      "note": 39,
      "start": 21.8254,
      "duration": 0.1055,
      "velocity": 106,
      "chip": "ym2612"
    },
    {
      "channel": 4,
      "note": 60,
      "start": 21.8259,
      "duration": 0.0978,
      "velocity": 103,
      "chip": "ym2612"
    },
    {
      "channel": 5,
      "note": 63,
      "start": 21.8263,
      "duration": 0.0974,
      "velocity": 103,
      "chip": "ym2612"
    },
    {
      "channel": 1,
      "note": 66,
      "start": 21.8379,
      "duration": 0.0649,
      "velocity": 103,
      "chip": "ym2612"
    },
    {
      "channel": 2,
      "note": 39,
      "start": 21.9344,
      "duration": 0.106,
      "velocity": 106,
      "chip": "ym2612"
    },
    {
      "channel": 3,
      "note": 39,
      "start": 21.9349,
      "duration": 0.1058,
      "velocity": 106,
      "chip": "ym2612"
    },
    {
      "channel": 1,
      "note": 66,
      "start": 21.9479,
      "duration": 0.0993,
      "velocity": 103,
      "chip": "ym2612"
    },
    {
      "channel": 2,
      "note": 39,
      "start": 22.0445,
      "duration": 0.106,
      "velocity": 106,
      "chip": "ym2612"
    },
    {
      "channel": 3,
      "note": 39,
      "start": 22.045,
      "duration": 0.1056,
      "velocity": 106,
      "chip": "ym2612"
    },
    {
      "channel": 0,
      "note": 78,
      "start": 22.1545,
      "duration": 0.2023,
      "velocity": 103,
      "chip": "ym2612"
    },
    {
      "channel": 2,
      "note": 39,
      "start": 22.1549,
      "duration": 0.1605,
      "velocity": 106,
      "chip": "ym2612"
    },
    {
      "channel": 3,
      "note": 39,
      "start": 22.1554,
      "duration": 0.16,
      "velocity": 106,
      "chip": "ym2612"
    },
    {
      "channel": 4,
      "note": 72,
      "start": 22.1559,
      "duration": 0.2009,
      "velocity": 103,
      "chip": "ym2612"
    },
    {
      "channel": 5,
      "note": 75,
      "start": 22.1564,
      "duration": 0.2005,
      "velocity": 103,
      "chip": "ym2612"
    },
    {
      "channel": 1,
      "note": 78,
      "start": 22.278,
      "duration": 0.2026,
      "velocity": 103,
      "chip": "ym2612"
    },
    {
      "channel": 0,
      "note": 66,
      "start": 22.4846,
      "duration": 0.0647,
      "velocity": 103,
      "chip": "ym2612"
    },
    {
      "channel": 2,
      "note": 39,
      "start": 22.4851,
      "duration": 0.1053,
      "velocity": 106,
      "chip": "ym2612"
    },
    {
      "channel": 3,
      "note": 39,
      "start": 22.4856,
      "duration": 0.1049,
      "velocity": 106,
      "chip": "ym2612"
    },
    {
      "channel": 4,
      "note": 60,
      "start": 22.4861,
      "duration": 0.0633,
      "velocity": 103,
      "chip": "ym2612"
    },
    {
      "channel": 5,
      "note": 63,
      "start": 22.4866,
      "duration": 0.0629,
      "velocity": 103,
      "chip": "ym2612"
    },
    {
      "channel": 0,
      "note": 66,
      "start": 22.5945,
      "duration": 0.0647,
      "velocity": 103,
      "chip": "ym2612"
    },
    {
      "channel": 2,
      "note": 39,
      "start": 22.5951,
      "duration": 0.1054,
      "velocity": 106,
      "chip": "ym2612"
    },
    {
      "channel": 3,
      "note": 39,
      "start": 22.5956,
      "duration": 0.105,
      "velocity": 106,
      "chip": "ym2612"
    },
    {
      "channel": 4,
      "note": 60,
      "start": 22.5961,
      "duration": 0.0632,
      "velocity": 103,
      "chip": "ym2612"
    },
    {
      "channel": 5,
      "note": 63,
      "start": 22.5966,
      "duration": 0.0628,
      "velocity": 103,
      "chip": "ym2612"
    },
    {
      "channel": 1,
      "note": 66,
      "start": 22.608,
      "duration": 0.0649,
      "velocity": 103,
      "chip": "ym2612"
    },
    {
      "channel": 0,
      "note": 66,
      "start": 22.7046,
      "duration": 0.0647,
      "velocity": 103,
      "chip": "ym2612"
    },
    {
      "channel": 2,
      "note": 39,
      "start": 22.7051,
      "duration": 0.1054,
      "velocity": 106,
      "chip": "ym2612"
    },
    {
      "channel": 3,
      "note": 39,
      "start": 22.7055,
      "duration": 0.105,
      "velocity": 106,
      "chip": "ym2612"
    },
    {
      "channel": 4,
      "note": 60,
      "start": 22.7061,
      "duration": 0.0632,
      "velocity": 103,
      "chip": "ym2612"
    },
    {
      "channel": 5,
      "note": 63,
      "start": 22.7066,
      "duration": 0.0628,
      "velocity": 103,
      "chip": "ym2612"
    },
    {
      "channel": 1,
      "note": 66,
      "start": 22.718,
      "duration": 0.0651,
      "velocity": 103,
      "chip": "ym2612"
    },
    {
      "channel": 0,
      "note": 66,
      "start": 22.8146,
      "duration": 0.0991,
      "velocity": 103,
      "chip": "ym2612"
    },
    {
      "channel": 2,
      "note": 39,
      "start": 22.8151,
      "duration": 0.1605,
      "velocity": 106,
      "chip": "ym2612"
    },
    {
      "channel": 3,
      "note": 39,
      "start": 22.8156,
      "duration": 0.1601,
      "velocity": 106,
      "chip": "ym2612"
    },
    {
      "channel": 4,
      "note": 60,
      "start": 22.8161,
      "duration": 0.0977,
      "velocity": 103,
      "chip": "ym2612"
    },
    {
      "channel": 5,
      "note": 63,
      "start": 22.8166,
      "duration": 0.0973,
      "velocity": 103,
      "chip": "ym2612"
    },
    {
      "channel": 1,
      "note": 66,
      "start": 22.828,
      "duration": 0.0649,
      "velocity": 103,
      "chip": "ym2612"
    },
    {
      "channel": 1,
      "note": 66,
      "start": 22.9382,
      "duration": 0.0992,
      "velocity": 103,
      "chip": "ym2612"
    },
    {
      "channel": 0,
      "note": 78,
      "start": 23.1446,
      "duration": 0.2022,
      "velocity": 103,
      "chip": "ym2612"
    },
    {
      "channel": 2,
      "note": 39,
      "start": 23.1451,
      "duration": 0.1054,
      "velocity": 106,
      "chip": "ym2612"
    },
    {
      "channel": 3,
      "note": 39,
      "start": 23.1456,
      "duration": 0.1051,
      "velocity": 106,
      "chip": "ym2612"
    },
    {
      "channel": 4,
      "note": 72,
      "start": 23.146,
      "duration": 0.2009,
      "velocity": 103,
      "chip": "ym2612"
    },
    {
      "channel": 5,
      "note": 75,
      "start": 23.1465,
      "duration": 0.2005,
      "velocity": 103,
      "chip": "ym2612"
    },
    {
      "channel": 2,
      "note": 39,
      "start": 23.2547,
      "duration": 0.1059,
      "velocity": 106,
      "chip": "ym2612"
    },
    {
      "channel": 3,
      "note": 39,
      "start": 23.2552,
      "duration": 0.1055,
      "velocity": 106,
      "chip": "ym2612"
    },
    {
      "channel": 1,
      "note": 78,
      "start": 23.2682,
      "duration": 0.2029,
      "velocity": 103,
      "chip": "ym2612"
    },
    {
      "channel": 2,
      "note": 39,
      "start": 23.3647,
      "duration": 0.106,
      "velocity": 106,
      "chip": "ym2612"
    },
    {
      "channel": 3,
      "note": 39,
      "start": 23.3652,
      "duration": 0.1056,
      "velocity": 106,
      "chip": "ym2612"
    },
    {
      "channel": 0,
      "note": 79,
      "start": 23.4747,
      "duration": 0.2021,
      "velocity": 103,
      "chip": "ym2612"
    },
    {
      "channel": 2,
      "note": 40,
      "start": 23.4752,
      "duration": 0.1054,
      "velocity": 106,
      "chip": "ym2612"
    },
    {
      "channel": 3,
      "note": 40,
      "start": 23.4757,
      "duration": 0.105,
      "velocity": 106,
      "chip": "ym2612"
    },
    {
      "channel": 4,
      "note": 73,
      "start": 23.4762,
      "duration": 0.2008,
      "velocity": 103,
      "chip": "ym2612"
    },
    {
      "channel": 5,
      "note": 76,
      "start": 23.4767,
      "duration": 0.2004,
      "velocity": 103,
      "chip": "ym2612"
    },
    {
      "channel": 2,
      "note": 40,
      "start": 23.5847,
      "duration": 0.106,
      "velocity": 106,
      "chip": "ym2612"
    },
    {
      "channel": 3,
      "note": 40,
      "start": 23.5851,
      "duration": 0.1056,
      "velocity": 106,
      "chip": "ym2612"
    },
    {
      "channel": 1,
      "note": 79,
      "start": 23.5982,
      "duration": 0.2028,
      "velocity": 103,
      "chip": "ym2612"
    },
    {
      "channel": 2,
      "note": 40,
      "start": 23.6956,
      "duration": 0.1052,
      "velocity": 106,
      "chip": "ym2612"
    },
    {
      "channel": 3,
      "note": 40,
      "start": 23.6961,
      "duration": 0.1048,
      "velocity": 106,
      "chip": "ym2612"
    },
    {
      "channel": 0,
      "note": 67,
      "start": 23.8049,
      "duration": 0.068,
      "velocity": 103,
      "chip": "ym2612"
    },
    {
      "channel": 2,
      "note": 40,
      "start": 23.8054,
      "duration": 0.1637,
      "velocity": 106,
      "chip": "ym2612"
    },
    {
      "channel": 3,
      "note": 40,
      "start": 23.8059,
      "duration": 0.1634,
      "velocity": 106,
      "chip": "ym2612"
    },
    {
      "channel": 4,
      "note": 61,
      "start": 23.8064,
      "duration": 0.0666,
      "velocity": 103,
      "chip": "ym2612"
    },
    {
      "channel": 5,
      "note": 64,
      "start": 23.8069,
      "duration": 0.0662,
      "velocity": 103,
      "chip": "ym2612"
    },
    {
      "channel": 0,
      "note": 67,
      "start": 23.918,
      "duration": 0.0648,
      "velocity": 103,
      "chip": "ym2612"
    },
    {
      "channel": 4,
      "note": 61,
      "start": 23.9185,
      "duration": 0.0644,
      "velocity": 103,
      "chip": "ym2612"
    },
    {
      "channel": 5,
      "note": 64,
      "start": 23.919,
      "duration": 0.0641,
      "velocity": 103,
      "chip": "ym2612"
    },
    {
      "channel": 1,
      "note": 67,
      "start": 23.9317,
      "duration": 0.0649,
      "velocity": 103,
      "chip": "ym2612"
    },
    {
      "channel": 0,
      "note": 67,
      "start": 24.0281,
      "duration": 0.0649,
      "velocity": 103,
      "chip": "ym2612"
    },
    {
      "channel": 4,
      "note": 61,
      "start": 24.0285,
      "duration": 0.0645,
      "velocity": 103,
      "chip": "ym2612"
    },
    {
      "channel": 5,
      "note": 64,
      "start": 24.029,
      "duration": 0.0641,
      "velocity": 103,
      "chip": "ym2612"
    },
    {
      "channel": 1,
      "note": 67,
      "start": 24.0417,
      "duration": 0.0649,
      "velocity": 103,
      "chip": "ym2612"
    },
    {
      "channel": 2,
      "note": 40,
      "start": 24.083,
      "duration": 0.1061,
      "velocity": 106,
      "chip": "ym2612"
    },
    {
      "channel": 3,
      "note": 40,
      "start": 24.0835,
      "duration": 0.1057,
      "velocity": 106,
      "chip": "ym2612"
    },
    {
      "channel": 0,
      "note": 67,
      "start": 24.1386,
      "duration": 0.0986,
      "velocity": 103,
      "chip": "ym2612"
    },
    {
      "channel": 4,
      "note": 61,
      "start": 24.1391,
      "duration": 0.0982,
      "velocity": 103,
      "chip": "ym2612"
    },
    {
      "channel": 5,
      "note": 64,
      "start": 24.1396,
      "duration": 0.0978,
      "velocity": 103,
      "chip": "ym2612"
    },
    {
      "channel": 1,
      "note": 67,
      "start": 24.1518,
      "duration": 0.0649,
      "velocity": 103,
      "chip": "ym2612"
    },
    {
      "channel": 2,
      "note": 40,
      "start": 24.1929,
      "duration": 0.1062,
      "velocity": 106,
      "chip": "ym2612"
    },
    {
      "channel": 3,
      "note": 40,
      "start": 24.1934,
      "duration": 0.1058,
      "velocity": 106,
      "chip": "ym2612"
    },
    {
      "channel": 1,
      "note": 67,
      "start": 24.2618,
      "duration": 0.0993,
      "velocity": 103,
      "chip": "ym2612"
    },
    {
      "channel": 2,
      "note": 40,
      "start": 24.3029,
      "duration": 0.1062,
      "velocity": 106,
      "chip": "ym2612"
    },
    {
      "channel": 3,
      "note": 40,
      "start": 24.3034,
      "duration": 0.1058,
      "velocity": 106,
      "chip": "ym2612"
    },
    {
      "channel": 2,
      "note": 40,
      "start": 24.413,
      "duration": 0.1615,
      "velocity": 106,
      "chip": "ym2612"
    },
    {
      "channel": 3,
      "note": 40,
      "start": 24.4134,
      "duration": 0.1612,
      "velocity": 106,
      "chip": "ym2612"
    },
    {
      "channel": 0,
      "note": 79,
      "start": 24.468,
      "duration": 0.2026,
      "velocity": 103,
      "chip": "ym2612"
    },
    {
      "channel": 4,
      "note": 73,
      "start": 24.4685,
      "duration": 0.2022,
      "velocity": 103,
      "chip": "ym2612"
    },
    {
      "channel": 5,
      "note": 76,
      "start": 24.4689,
      "duration": 0.2018,
      "velocity": 103,
      "chip": "ym2612"
    },
    {
      "channel": 1,
      "note": 79,
      "start": 24.5924,
      "duration": 0.2022,
      "velocity": 103,
      "chip": "ym2612"
    },
    {
      "channel": 2,
      "note": 40,
      "start": 24.7434,
      "duration": 0.1059,
      "velocity": 106,
      "chip": "ym2612"
    },
    {
      "channel": 3,
      "note": 40,
      "start": 24.7439,
      "duration": 0.1055,
      "velocity": 106,
      "chip": "ym2612"
    },
    {
      "channel": 0,
      "note": 67,
      "start": 24.798,
      "duration": 0.0651,
      "velocity": 103,
      "chip": "ym2612"
    },
    {
      "channel": 4,
      "note": 61,
      "start": 24.7985,
      "duration": 0.0647,
      "velocity": 103,
      "chip": "ym2612"
    },
    {
      "channel": 5,
      "note": 64,
      "start": 24.799,
      "duration": 0.0644,
      "velocity": 103,
      "chip": "ym2612"
    },
    {
      "channel": 2,
      "note": 40,
      "start": 24.8531,
      "duration": 0.1062,
      "velocity": 106,
      "chip": "ym2612"
    },
    {
      "channel": 3,
      "note": 40,
      "start": 24.8536,
      "duration": 0.1058,
      "velocity": 106,
      "chip": "ym2612"
    },
    {
      "channel": 0,
      "note": 67,
      "start": 24.9081,
      "duration": 0.0649,
      "velocity": 103,
      "chip": "ym2612"
    },
    {
      "channel": 4,
      "note": 61,
      "start": 24.9086,
      "duration": 0.0646,
      "velocity": 103,
      "chip": "ym2612"
    },
    {
      "channel": 5,
      "note": 64,
      "start": 24.9091,
      "duration": 0.0641,
      "velocity": 103,
      "chip": "ym2612"
    },
    {
      "channel": 1,
      "note": 67,
      "start": 24.9219,
      "duration": 0.0649,
      "velocity": 103,
      "chip": "ym2612"
    },
    {
      "channel": 2,
      "note": 40,
      "start": 24.963,
      "duration": 0.1063,
      "velocity": 106,
      "chip": "ym2612"
    },
    {
      "channel": 3,
      "note": 40,
      "start": 24.9635,
      "duration": 0.1059,
      "velocity": 106,
      "chip": "ym2612"
    },
    {
      "channel": 0,
      "note": 67,
      "start": 25.018,
      "duration": 0.0649,
      "velocity": 103,
      "chip": "ym2612"
    },
    {
      "channel": 4,
      "note": 61,
      "start": 25.0185,
      "duration": 0.0646,
      "velocity": 103,
      "chip": "ym2612"
    },
    {
      "channel": 5,
      "note": 64,
      "start": 25.019,
      "duration": 0.0641,
      "velocity": 103,
      "chip": "ym2612"
    },
    {
      "channel": 1,
      "note": 67,
      "start": 25.0319,
      "duration": 0.0649,
      "velocity": 103,
      "chip": "ym2612"
    },
    {
      "channel": 2,
      "note": 40,
      "start": 25.0731,
      "duration": 0.1614,
      "velocity": 106,
      "chip": "ym2612"
    },
    {
      "channel": 3,
      "note": 40,
      "start": 25.0736,
      "duration": 0.161,
      "velocity": 106,
      "chip": "ym2612"
    },
    {
      "channel": 0,
      "note": 67,
      "start": 25.1281,
      "duration": 0.0993,
      "velocity": 103,
      "chip": "ym2612"
    },
    {
      "channel": 4,
      "note": 61,
      "start": 25.1286,
      "duration": 0.0989,
      "velocity": 103,
      "chip": "ym2612"
    },
    {
      "channel": 5,
      "note": 64,
      "start": 25.129,
      "duration": 0.0985,
      "velocity": 103,
      "chip": "ym2612"
    },
    {
      "channel": 1,
      "note": 67,
      "start": 25.1419,
      "duration": 0.0649,
      "velocity": 103,
      "chip": "ym2612"
    },
    {
      "channel": 1,
      "note": 67,
      "start": 25.252,
      "duration": 0.0992,
      "velocity": 103,
      "chip": "ym2612"
    },
    {
      "channel": 2,
      "note": 40,
      "start": 25.4032,
      "duration": 0.1061,
      "velocity": 106,
      "chip": "ym2612"
    },
    {
      "channel": 3,
      "note": 40,
      "start": 25.4037,
      "duration": 0.1057,
      "velocity": 106,
      "chip": "ym2612"
    },
    {
      "channel": 0,
      "note": 79,
      "start": 25.4582,
      "duration": 0.2024,
      "velocity": 103,
      "chip": "ym2612"
    },
    {
      "channel": 4,
      "note": 73,
      "start": 25.4587,
      "duration": 0.202,
      "velocity": 103,
      "chip": "ym2612"
    },
    {
      "channel": 5,
      "note": 76,
      "start": 25.4592,
      "duration": 0.2016,
      "velocity": 103,
      "chip": "ym2612"
    },
    {
      "channel": 2,
      "note": 40,
      "start": 25.5131,
      "duration": 0.1062,
      "velocity": 106,
      "chip": "ym2612"
    },
    {
      "channel": 3,
      "note": 40,
      "start": 25.5136,
      "duration": 0.1058,
      "velocity": 106,
      "chip": "ym2612"
    },
    {
      "channel": 1,
      "note": 79,
      "start": 25.5819,
      "duration": 0.2029,
      "velocity": 103,
      "chip": "ym2612"
    },
    {
      "channel": 2,
      "note": 40,
      "start": 25.6232,
      "duration": 0.1062,
      "velocity": 106,
      "chip": "ym2612"
    },
    {
      "channel": 3,
      "note": 40,
      "start": 25.6237,
      "duration": 0.1059,
      "velocity": 106,
      "chip": "ym2612"
    },
    {
      "channel": 2,
      "note": 39,
      "start": 25.7333,
      "duration": 0.1062,
      "velocity": 106,
      "chip": "ym2612"
    },
    {
      "channel": 3,
      "note": 39,
      "start": 25.7337,
      "duration": 0.1058,
      "velocity": 106,
      "chip": "ym2612"
    },
    {
      "channel": 0,
      "note": 78,
      "start": 25.789,
      "duration": 0.2017,
      "velocity": 103,
      "chip": "ym2612"
    },
    {
      "channel": 4,
      "note": 72,
      "start": 25.7904,
      "duration": 0.2003,
      "velocity": 103,
      "chip": "ym2612"
    },
    {
      "channel": 5,
      "note": 75,
      "start": 25.7918,
      "duration": 0.199,
      "velocity": 103,
      "chip": "ym2612"
    },
    {
      "channel": 2,
      "note": 39,
      "start": 25.8432,
      "duration": 0.1063,
      "velocity": 106,
      "chip": "ym2612"
    },
    {
      "channel": 3,
      "note": 39,
      "start": 25.8437,
      "duration": 0.1059,
      "velocity": 106,
      "chip": "ym2612"
    },
    {
      "channel": 1,
      "note": 78,
      "start": 25.912,
      "duration": 0.2026,
      "velocity": 103,
      "chip": "ym2612"
    },
    {
      "channel": 2,
      "note": 39,
      "start": 25.9532,
      "duration": 0.1063,
      "velocity": 106,
      "chip": "ym2612"
    },
    {
      "channel": 3,
      "note": 39,
      "start": 25.9537,
      "duration": 0.1059,
      "velocity": 106,
      "chip": "ym2612"
    },
    {
      "channel": 2,
      "note": 39,
      "start": 26.0639,
      "duration": 0.1613,
      "velocity": 106,
      "chip": "ym2612"
    },
    {
      "channel": 3,
      "note": 39,
      "start": 26.0647,
      "duration": 0.1607,
      "velocity": 106,
      "chip": "ym2612"
    },
    {
      "channel": 0,
      "note": 66,
      "start": 26.1182,
      "duration": 0.065,
      "velocity": 103,
      "chip": "ym2612"
    },
    {
      "channel": 4,
      "note": 60,
      "start": 26.1187,
      "duration": 0.0646,
      "velocity": 103,
      "chip": "ym2612"
    },
    {
      "channel": 5,
      "note": 63,
      "start": 26.1192,
      "duration": 0.0642,
      "velocity": 103,
      "chip": "ym2612"
    },
    {
      "channel": 0,
      "note": 66,
      "start": 26.2282,
      "duration": 0.0649,
      "velocity": 103,
      "chip": "ym2612"
    },
    {
      "channel": 4,
      "note": 60,
      "start": 26.2287,
      "duration": 0.0646,
      "velocity": 103,
      "chip": "ym2612"
    },
    {
      "channel": 5,
      "note": 63,
      "start": 26.2292,
      "duration": 0.0642,
      "velocity": 103,
      "chip": "ym2612"
    },
    {
      "channel": 1,
      "note": 66,
      "start": 26.242,
      "duration": 0.0649,
      "velocity": 103,
      "chip": "ym2612"
    },
    {
      "channel": 0,
      "note": 66,
      "start": 26.3383,
      "duration": 0.065,
      "velocity": 103,
      "chip": "ym2612"
    },
    {
      "channel": 4,
      "note": 60,
      "start": 26.3388,
      "duration": 0.0646,
      "velocity": 103,
      "chip": "ym2612"
    },
    {
      "channel": 5,
      "note": 63,
      "start": 26.3392,
      "duration": 0.0642,
      "velocity": 103,
      "chip": "ym2612"
    },
    {
      "channel": 1,
      "note": 66,
      "start": 26.352,
      "duration": 0.0651,
      "velocity": 103,
      "chip": "ym2612"
    },
    {
      "channel": 2,
      "note": 39,
      "start": 26.3933,
      "duration": 0.1062,
      "velocity": 106,
      "chip": "ym2612"
    },
    {
      "channel": 3,
      "note": 39,
      "start": 26.3938,
      "duration": 0.1058,
      "velocity": 106,
      "chip": "ym2612"
    },
    {
      "channel": 0,
      "note": 66,
      "start": 26.4484,
      "duration": 0.0993,
      "velocity": 103,
      "chip": "ym2612"
    },
    {
      "channel": 4,
      "note": 60,
      "start": 26.4489,
      "duration": 0.0989,
      "velocity": 103,
      "chip": "ym2612"
    },
    {
      "channel": 5,
      "note": 63,
      "start": 26.4494,
      "duration": 0.0985,
      "velocity": 103,
      "chip": "ym2612"
    },
    {
      "channel": 1,
      "note": 66,
      "start": 26.462,
      "duration": 0.0649,
      "velocity": 103,
      "chip": "ym2612"
    },
    {
      "channel": 2,
      "note": 39,
      "start": 26.5033,
      "duration": 0.1062,
      "velocity": 106,
      "chip": "ym2612"
    },
    {
      "channel": 3,
      "note": 39,
      "start": 26.5038,
      "duration": 0.1058,
      "velocity": 106,
      "chip": "ym2612"
    },
    {
      "channel": 1,
      "note": 66,
      "start": 26.5721,
      "duration": 0.1027,
      "velocity": 103,
      "chip": "ym2612"
    },
    {
      "channel": 2,
      "note": 39,
      "start": 26.6133,
      "duration": 0.1096,
      "velocity": 106,
      "chip": "ym2612"
    },
    {
      "channel": 3,
      "note": 39,
      "start": 26.6138,
      "duration": 0.1093,
      "velocity": 106,
      "chip": "ym2612"
    },
    {
      "channel": 2,
      "note": 39,
      "start": 26.7268,
      "duration": 0.1613,
      "velocity": 106,
      "chip": "ym2612"
    },
    {
      "channel": 3,
      "note": 39,
      "start": 26.7272,
      "duration": 0.1609,
      "velocity": 106,
      "chip": "ym2612"
    },
    {
      "channel": 0,
      "note": 78,
      "start": 26.7818,
      "duration": 0.2026,
      "velocity": 103,
      "chip": "ym2612"
    },
    {
      "channel": 4,
      "note": 72,
      "start": 26.7823,
      "duration": 0.2022,
      "velocity": 103,
      "chip": "ym2612"
    },
    {
      "channel": 5,
      "note": 75,
      "start": 26.7828,
      "duration": 0.2018,
      "velocity": 103,
      "chip": "ym2612"
    },
    {
      "channel": 1,
      "note": 78,
      "start": 26.9056,
      "duration": 0.2026,
      "velocity": 103,
      "chip": "ym2612"
    },
    {
      "channel": 2,
      "note": 39,
      "start": 27.0568,
      "duration": 0.1062,
      "velocity": 106,
      "chip": "ym2612"
    },
    {
      "channel": 3,
      "note": 39,
      "start": 27.0573,
      "duration": 0.1058,
      "velocity": 106,
      "chip": "ym2612"
    },
    {
      "channel": 0,
      "note": 66,
      "start": 27.1123,
      "duration": 0.0645,
      "velocity": 103,
      "chip": "ym2612"
    },
    {
      "channel": 4,
      "note": 60,
      "start": 27.1127,
      "duration": 0.0641,
      "velocity": 103,
      "chip": "ym2612"
    },
    {
      "channel": 5,
      "note": 63,
      "start": 27.1132,
      "duration": 0.0637,
      "velocity": 103,
      "chip": "ym2612"
    },
    {
      "channel": 2,
      "note": 39,
      "start": 27.1668,
      "duration": 0.1064,
      "velocity": 106,
      "chip": "ym2612"
    },
    {
      "channel": 3,
      "note": 39,
      "start": 27.1673,
      "duration": 0.1061,
      "velocity": 106,
      "chip": "ym2612"
    },
    {
      "channel": 0,
      "note": 66,
      "start": 27.2219,
      "duration": 0.0649,
      "velocity": 103,
      "chip": "ym2612"
    },
    {
      "channel": 4,
      "note": 60,
      "start": 27.2224,
      "duration": 0.0644,
      "velocity": 103,
      "chip": "ym2612"
    },
    {
      "channel": 5,
      "note": 63,
      "start": 27.2229,
      "duration": 0.0641,
      "velocity": 103,
      "chip": "ym2612"
    },
    {
      "channel": 1,
      "note": 66,
      "start": 27.2357,
      "duration": 0.0649,
      "velocity": 103,
      "chip": "ym2612"
    },
    {
      "channel": 2,
      "note": 39,
      "start": 27.2768,
      "duration": 0.1063,
      "velocity": 106,
      "chip": "ym2612"
    },
    {
      "channel": 3,
      "note": 39,
      "start": 27.2773,
      "duration": 0.1059,
      "velocity": 106,
      "chip": "ym2612"
    },
    {
      "channel": 0,
      "note": 66,
      "start": 27.332,
      "duration": 0.0649,
      "velocity": 103,
      "chip": "ym2612"
    },
    {
      "channel": 4,
      "note": 60,
      "start": 27.3324,
      "duration": 0.0645,
      "velocity": 103,
      "chip": "ym2612"
    },
    {
      "channel": 5,
      "note": 63,
      "start": 27.333,
      "duration": 0.064,
      "velocity": 103,
      "chip": "ym2612"
    },
    {
      "channel": 1,
      "note": 66,
      "start": 27.3456,
      "duration": 0.0649,
      "velocity": 103,
      "chip": "ym2612"
    },
    {
      "channel": 2,
      "note": 39,
      "start": 27.3868,
      "duration": 0.1612,
      "velocity": 106,
      "chip": "ym2612"
    },
    {
      "channel": 3,
      "note": 39,
      "start": 27.3873,
      "duration": 0.1609,
      "velocity": 106,
      "chip": "ym2612"
    },
    {
      "channel": 0,
      "note": 66,
      "start": 27.4419,
      "duration": 0.0992,
      "velocity": 103,
      "chip": "ym2612"
    },
    {
      "channel": 4,
      "note": 60,
      "start": 27.4424,
      "duration": 0.0988,
      "velocity": 103,
      "chip": "ym2612"
    },
    {
      "channel": 5,
      "note": 63,
      "start": 27.4429,
      "duration": 0.0985,
      "velocity": 103,
      "chip": "ym2612"
    },
    {
      "channel": 1,
      "note": 66,
      "start": 27.4556,
      "duration": 0.065,
      "velocity": 103,
      "chip": "ym2612"
    },
    {
      "channel": 1,
      "note": 66,
      "start": 27.5659,
      "duration": 0.0991,
      "velocity": 103,
      "chip": "ym2612"
    },
    {
      "channel": 2,
      "note": 39,
      "start": 27.7171,
      "duration": 0.1061,
      "velocity": 106,
      "chip": "ym2612"
    },
    {
      "channel": 3,
      "note": 39,
      "start": 27.7175,
      "duration": 0.1057,
      "velocity": 106,
      "chip": "ym2612"
    },
    {
      "channel": 0,
      "note": 78,
      "start": 27.7719,
      "duration": 0.2026,
      "velocity": 103,
      "chip": "ym2612"
    },
    {
      "channel": 4,
      "note": 72,
      "start": 27.7724,
      "duration": 0.2022,
      "velocity": 103,
      "chip": "ym2612"
    },
    {
      "channel": 5,
      "note": 75,
      "start": 27.7729,
      "duration": 0.2018,
      "velocity": 103,
      "chip": "ym2612"
    },
    {
      "channel": 2,
      "note": 39,
      "start": 27.827,
      "duration": 0.1062,
      "velocity": 106,
      "chip": "ym2612"
    },
    {
      "channel": 3,
      "note": 39,
      "start": 27.8275,
      "duration": 0.1058,
      "velocity": 106,
      "chip": "ym2612"
    },
    {
      "channel": 1,
      "note": 78,
      "start": 27.8958,
      "duration": 0.2027,
      "velocity": 103,
      "chip": "ym2612"
    },
    {
      "channel": 2,
      "note": 39,
      "start": 27.9369,
      "duration": 0.1063,
      "velocity": 106,
      "chip": "ym2612"
    },
    {
      "channel": 3,
      "note": 39,
      "start": 27.9375,
      "duration": 0.1058,
      "velocity": 106,
      "chip": "ym2612"
    },
    {
      "channel": 2,
      "note": 40,
      "start": 28.0469,
      "duration": 0.1062,
      "velocity": 106,
      "chip": "ym2612"
    },
    {
      "channel": 3,
      "note": 40,
      "start": 28.0474,
      "duration": 0.1058,
      "velocity": 106,
      "chip": "ym2612"
    },
    {
      "channel": 0,
      "note": 79,
      "start": 28.102,
      "duration": 0.2025,
      "velocity": 103,
      "chip": "ym2612"
    },
    {
      "channel": 4,
      "note": 73,
      "start": 28.1025,
      "duration": 0.2021,
      "velocity": 103,
      "chip": "ym2612"
    },
    {
      "channel": 5,
      "note": 76,
      "start": 28.103,
      "duration": 0.2017,
      "velocity": 103,
      "chip": "ym2612"
    },
    {
      "channel": 2,
      "note": 40,
      "start": 28.157,
      "duration": 0.1062,
      "velocity": 106,
      "chip": "ym2612"
    },
    {
      "channel": 3,
      "note": 40,
      "start": 28.1575,
      "duration": 0.1058,
      "velocity": 106,
      "chip": "ym2612"
    },
    {
      "channel": 1,
      "note": 79,
      "start": 28.2257,
      "duration": 0.2025,
      "velocity": 103,
      "chip": "ym2612"
    },
    {
      "channel": 2,
      "note": 40,
      "start": 28.267,
      "duration": 0.1063,
      "velocity": 106,
      "chip": "ym2612"
    },
    {
      "channel": 3,
      "note": 40,
      "start": 28.2675,
      "duration": 0.1059,
      "velocity": 106,
      "chip": "ym2612"
    },
    {
      "channel": 2,
      "note": 40,
      "start": 28.377,
      "duration": 0.1612,
      "velocity": 106,
      "chip": "ym2612"
    },
    {
      "channel": 3,
      "note": 40,
      "start": 28.3775,
      "duration": 0.1609,
      "velocity": 106,
      "chip": "ym2612"
    },
    {
      "channel": 0,
      "note": 67,
      "start": 28.4327,
      "duration": 0.0643,
      "velocity": 103,
      "chip": "ym2612"
    },
    {
      "channel": 4,
      "note": 61,
      "start": 28.4332,
      "duration": 0.0639,
      "velocity": 103,
      "chip": "ym2612"
    },
    {
      "channel": 5,
      "note": 64,
      "start": 28.4337,
      "duration": 0.0635,
      "velocity": 103,
      "chip": "ym2612"
    },
    {
      "channel": 0,
      "note": 67,
      "start": 28.5422,
      "duration": 0.0648,
      "velocity": 103,
      "chip": "ym2612"
    },
    {
      "channel": 4,
      "note": 61,
      "start": 28.5427,
      "duration": 0.0644,
      "velocity": 103,
      "chip": "ym2612"
    },
    {
      "channel": 5,
      "note": 64,
      "start": 28.5432,
      "duration": 0.064,
      "velocity": 103,
      "chip": "ym2612"
    },
    {
      "channel": 1,
      "note": 67,
      "start": 28.5559,
      "duration": 0.0649,
      "velocity": 103,
      "chip": "ym2612"
    },
    {
      "channel": 0,
      "note": 67,
      "start": 28.6522,
      "duration": 0.0648,
      "velocity": 103,
      "chip": "ym2612"
    },
    {
      "channel": 2,
      "note": 40,
      "start": 28.6526,
      "duration": 0.1056,
      "velocity": 106,
      "chip": "ym2612"
    },
    {
      "channel": 3,
      "note": 40,
      "start": 28.6532,
      "duration": 0.1051,
      "velocity": 106,
      "chip": "ym2612"
    },
    {
      "channel": 4,
      "note": 61,
      "start": 28.6537,
      "duration": 0.0634,
      "velocity": 103,
      "chip": "ym2612"
    },
    {
      "channel": 5,
      "note": 64,
      "start": 28.6544,
      "duration": 0.0627,
      "velocity": 103,
      "chip": "ym2612"
    },
    {
      "channel": 1,
      "note": 67,
      "start": 28.6659,
      "duration": 0.0649,
      "velocity": 103,
      "chip": "ym2612"
    },
    {
      "channel": 0,
      "note": 67,
      "start": 28.7621,
      "duration": 0.0992,
      "velocity": 103,
      "chip": "ym2612"
    },
    {
      "channel": 2,
      "note": 40,
      "start": 28.7626,
      "duration": 0.1056,
      "velocity": 106,
      "chip": "ym2612"
    },
    {
      "channel": 3,
      "note": 40,
      "start": 28.7631,
      "duration": 0.1052,
      "velocity": 106,
      "chip": "ym2612"
    },
    {
      "channel": 4,
      "note": 61,
      "start": 28.7636,
      "duration": 0.0979,
      "velocity": 103,
      "chip": "ym2612"
    },
    {
      "channel": 5,
      "note": 64,
      "start": 28.7644,
      "duration": 0.0971,
      "velocity": 103,
      "chip": "ym2612"
    },
    {
      "channel": 1,
      "note": 67,
      "start": 28.7758,
      "duration": 0.0649,
      "velocity": 103,
      "chip": "ym2612"
    },
    {
      "channel": 2,
      "note": 40,
      "start": 28.8721,
      "duration": 0.1062,
      "velocity": 106,
      "chip": "ym2612"
    },
    {
      "channel": 3,
      "note": 40,
      "start": 28.8726,
      "duration": 0.1058,
      "velocity": 106,
      "chip": "ym2612"
    },
    {
      "channel": 1,
      "note": 67,
      "start": 28.8863,
      "duration": 0.0988,
      "velocity": 103,
      "chip": "ym2612"
    },
    {
      "channel": 2,
      "note": 40,
      "start": 28.9822,
      "duration": 0.1611,
      "velocity": 106,
      "chip": "ym2612"
    },
    {
      "channel": 3,
      "note": 40,
      "start": 28.9826,
      "duration": 0.1607,
      "velocity": 106,
      "chip": "ym2612"
    },
    {
      "channel": 0,
      "note": 79,
      "start": 29.0921,
      "duration": 0.2025,
      "velocity": 103,
      "chip": "ym2612"
    },
    {
      "channel": 4,
      "note": 73,
      "start": 29.0926,
      "duration": 0.2021,
      "velocity": 103,
      "chip": "ym2612"
    },
    {
      "channel": 5,
      "note": 76,
      "start": 29.0931,
      "duration": 0.2017,
      "velocity": 103,
      "chip": "ym2612"
    },
    {
      "channel": 1,
      "note": 79,
      "start": 29.2159,
      "duration": 0.2025,
      "velocity": 103,
      "chip": "ym2612"
    },
    {
      "channel": 2,
      "note": 40,
      "start": 29.3122,
      "duration": 0.1061,
      "velocity": 106,
      "chip": "ym2612"
    },
    {
      "channel": 3,
      "note": 40,
      "start": 29.3126,
      "duration": 0.1059,
      "velocity": 106,
      "chip": "ym2612"
    },
    {
      "channel": 0,
      "note": 67,
      "start": 29.4221,
      "duration": 0.065,
      "velocity": 103,
      "chip": "ym2612"
    },
    {
      "channel": 2,
      "note": 40,
      "start": 29.4226,
      "duration": 0.1057,
      "velocity": 106,
      "chip": "ym2612"
    },
    {
      "channel": 3,
      "note": 40,
      "start": 29.4231,
      "duration": 0.1053,
      "velocity": 106,
      "chip": "ym2612"
    },
    {
      "channel": 4,
      "note": 61,
      "start": 29.4236,
      "duration": 0.0637,
      "velocity": 103,
      "chip": "ym2612"
    },
    {
      "channel": 5,
      "note": 64,
      "start": 29.4241,
      "duration": 0.0633,
      "velocity": 103,
      "chip": "ym2612"
    },
    {
      "channel": 0,
      "note": 67,
      "start": 29.5322,
      "duration": 0.065,
      "velocity": 103,
      "chip": "ym2612"
    },
    {
      "channel": 2,
      "note": 40,
      "start": 29.5326,
      "duration": 0.1058,
      "velocity": 106,
      "chip": "ym2612"
    },
    {
      "channel": 3,
      "note": 40,
      "start": 29.5331,
      "duration": 0.1054,
      "velocity": 106,
      "chip": "ym2612"
    },
    {
      "channel": 4,
      "note": 61,
      "start": 29.5336,
      "duration": 0.0637,
      "velocity": 103,
      "chip": "ym2612"
    },
    {
      "channel": 5,
      "note": 64,
      "start": 29.5341,
      "duration": 0.0633,
      "velocity": 103,
      "chip": "ym2612"
    },
    {
      "channel": 1,
      "note": 67,
      "start": 29.546,
      "duration": 0.0657,
      "velocity": 103,
      "chip": "ym2612"
    },
    {
      "channel": 0,
      "note": 67,
      "start": 29.6422,
      "duration": 0.065,
      "velocity": 103,
      "chip": "ym2612"
    },
    {
      "channel": 2,
      "note": 40,
      "start": 29.6427,
      "duration": 0.1607,
      "velocity": 106,
      "chip": "ym2612"
    },
    {
      "channel": 3,
      "note": 40,
      "start": 29.6432,
      "duration": 0.1603,
      "velocity": 106,
      "chip": "ym2612"
    },
    {
      "channel": 4,
      "note": 61,
      "start": 29.6437,
      "duration": 0.0636,
      "velocity": 103,
      "chip": "ym2612"
    },
    {
      "channel": 5,
      "note": 64,
      "start": 29.6444,
      "duration": 0.063,
      "velocity": 103,
      "chip": "ym2612"
    },
    {
      "channel": 1,
      "note": 67,
      "start": 29.656,
      "duration": 0.0649,
      "velocity": 103,
      "chip": "ym2612"
    },
    {
      "channel": 0,
      "note": 67,
      "start": 29.7523,
      "duration": 0.0992,
      "velocity": 103,
      "chip": "ym2612"
    },
    {
      "channel": 4,
      "note": 61,
      "start": 29.7528,
      "duration": 0.0988,
      "velocity": 103,
      "chip": "ym2612"
    },
    {
      "channel": 5,
      "note": 64,
      "start": 29.7532,
      "duration": 0.0985,
      "velocity": 103,
      "chip": "ym2612"
    },
    {
      "channel": 1,
      "note": 67,
      "start": 29.7661,
      "duration": 0.0648,
      "velocity": 103,
      "chip": "ym2612"
    },
    {
      "channel": 1,
      "note": 67,
      "start": 29.8759,
      "duration": 0.0993,
      "velocity": 103,
      "chip": "ym2612"
    },
    {
      "channel": 2,
      "note": 40,
      "start": 29.9722,
      "duration": 0.1062,
      "velocity": 106,
      "chip": "ym2612"
    },
    {
      "channel": 3,
      "note": 40,
      "start": 29.9727,
      "duration": 0.1058,
      "velocity": 106,
      "chip": "ym2612"
    },
    {
      "channel": 0,
      "note": 79,
      "start": 30.0823,
      "duration": 0.2058,
      "velocity": 103,
      "chip": "ym2612"
    },
    {
      "channel": 2,
      "note": 40,
      "start": 30.0828,
      "duration": 0.1058,
      "velocity": 106,
      "chip": "ym2612"
    },
    {
      "channel": 3,
      "note": 40,
      "start": 30.0833,
      "duration": 0.1054,
      "velocity": 106,
      "chip": "ym2612"
    },
    {
      "channel": 4,
      "note": 73,
      "start": 30.0838,
      "duration": 0.2044,
      "velocity": 103,
      "chip": "ym2612"
    },
    {
      "channel": 5,
      "note": 76,
      "start": 30.0846,
      "duration": 0.2037,
      "velocity": 103,
      "chip": "ym2612"
    },
    {
      "channel": 2,
      "note": 40,
      "start": 30.1923,
      "duration": 0.1097,
      "velocity": 106,
      "chip": "ym2612"
    },
    {
      "channel": 3,
      "note": 40,
      "start": 30.1928,
      "duration": 0.1093,
      "velocity": 106,
      "chip": "ym2612"
    },
    {
      "channel": 1,
      "note": 79,
      "start": 30.2095,
      "duration": 0.1854,
      "velocity": 103,
      "chip": "ym2612"
    },
    {
      "channel": 0,
      "note": 53,
      "start": 30.4165,
      "duration": 0.9856,
      "velocity": 101,
      "chip": "ym2612"
    },
    {
      "channel": 2,
      "note": 41,
      "start": 30.4171,
      "duration": 1.3151,
      "velocity": 106,
      "chip": "ym2612"
    },
    {
      "channel": 3,
      "note": 41,
      "start": 30.4176,
      "duration": 1.3147,
      "velocity": 106,
      "chip": "ym2612"
    },
    {
      "channel": 4,
      "note": 56,
      "start": 30.419,
      "duration": 0.9832,
      "velocity": 101,
      "chip": "ym2612"
    },
    {
      "channel": 1,
      "note": 53,
      "start": 30.6645,
      "duration": 0.9851,
      "velocity": 101,
      "chip": "ym2612"
    },
    {
      "channel": 5,
      "note": 56,
      "start": 30.6659,
      "duration": 0.9838,
      "velocity": 101,
      "chip": "ym2612"
    },
    {
      "channel": 0,
      "note": 56,
      "start": 31.4064,
      "duration": 0.3257,
      "velocity": 101,
      "chip": "ym2612"
    },
    {
      "channel": 4,
      "note": 60,
      "start": 31.4069,
      "duration": 0.3255,
      "velocity": 101,
      "chip": "ym2612"
    },
    {
      "channel": 1,
      "note": 56,
      "start": 31.6534,
      "duration": 0.3264,
      "velocity": 101,
      "chip": "ym2612"
    },
    {
      "channel": 5,
      "note": 60,
      "start": 31.6538,
      "duration": 0.3261,
      "velocity": 101,
      "chip": "ym2612"
    },
    {
      "channel": 0,
      "note": 55,
      "start": 31.7359,
      "duration": 0.9864,
      "velocity": 101,
      "chip": "ym2612"
    },
    {
      "channel": 2,
      "note": 43,
      "start": 31.7364,
      "duration": 1.3161,
      "velocity": 106,
      "chip": "ym2612"
    },
    {
      "channel": 3,
      "note": 43,
      "start": 31.7369,
      "duration": 1.3157,
      "velocity": 106,
      "chip": "ym2612"
    },
    {
      "channel": 4,
      "note": 59,
      "start": 31.7373,
      "duration": 0.9851,
      "velocity": 101,
      "chip": "ym2612"
    },
    {
      "channel": 1,
      "note": 55,
      "start": 31.9834,
      "duration": 0.9863,
      "velocity": 101,
      "chip": "ym2612"
    },
    {
      "channel": 5,
      "note": 59,
      "start": 31.9839,
      "duration": 0.9859,
      "velocity": 101,
      "chip": "ym2612"
    },
    {
      "channel": 0,
      "note": 58,
      "start": 32.7269,
      "duration": 0.3255,
      "velocity": 101,
      "chip": "ym2612"
    },
    {
      "channel": 4,
      "note": 62,
      "start": 32.7273,
      "duration": 0.3253,
      "velocity": 101,
      "chip": "ym2612"
    },
    {
      "channel": 1,
      "note": 58,
      "start": 32.9736,
      "duration": 0.3262,
      "velocity": 101,
      "chip": "ym2612"
    },
    {
      "channel": 5,
      "note": 62,
      "start": 32.974,
      "duration": 0.326,
      "velocity": 101,
      "chip": "ym2612"
    },
    {
      "channel": 0,
      "note": 57,
      "start": 33.0561,
      "duration": 0.9932,
      "velocity": 101,
      "chip": "ym2612"
    },
    {
      "channel": 2,
      "note": 45,
      "start": 33.0566,
      "duration": 1.3263,
      "velocity": 106,
      "chip": "ym2612"
    },
    {
      "channel": 3,
      "note": 45,
      "start": 33.0571,
      "duration": 1.3259,
      "velocity": 106,
      "chip": "ym2612"
    },
    {
      "channel": 4,
      "note": 61,
      "start": 33.0575,
      "duration": 0.9919,
      "velocity": 101,
      "chip": "ym2612"
    },
    {
      "channel": 1,
      "note": 57,
      "start": 33.3036,
      "duration": 0.9932,
      "velocity": 101,
      "chip": "ym2612"
    },
    {
      "channel": 5,
      "note": 61,
      "start": 33.3041,
      "duration": 0.9929,
      "velocity": 101,
      "chip": "ym2612"
    },
    {
      "channel": 0,
      "note": 58,
      "start": 34.0532,
      "duration": 0.3296,
      "velocity": 101,
      "chip": "ym2612"
    },
    {
      "channel": 4,
      "note": 62,
      "start": 34.0536,
      "duration": 0.3295,
      "velocity": 101,
      "chip": "ym2612"
    },
    {
      "channel": 1,
      "note": 58,
      "start": 34.3006,
      "duration": 0.3297,
      "velocity": 101,
      "chip": "ym2612"
    },
    {
      "channel": 5,
      "note": 62,
      "start": 34.3011,
      "duration": 0.3295,
      "velocity": 101,
      "chip": "ym2612"
    },
    {
      "channel": 0,
      "note": 59,
      "start": 34.3866,
      "duration": 0.6564,
      "velocity": 101,
      "chip": "ym2612"
    },
    {
      "channel": 2,
      "note": 47,
      "start": 34.3871,
      "duration": 1.3161,
      "velocity": 106,
      "chip": "ym2612"
    },
    {
      "channel": 3,
      "note": 47,
      "start": 34.3876,
      "duration": 1.3157,
      "velocity": 106,
      "chip": "ym2612"
    },
    {
      "channel": 4,
      "note": 63,
      "start": 34.388,
      "duration": 0.6551,
      "velocity": 101,
      "chip": "ym2612"
    },
    {
      "channel": 1,
      "note": 59,
      "start": 34.6344,
      "duration": 0.6561,
      "velocity": 101,
      "chip": "ym2612"
    },
    {
      "channel": 5,
      "note": 63,
      "start": 34.6348,
      "duration": 0.6558,
      "velocity": 101,
      "chip": "ym2612"
    },
    {
      "channel": 0,
      "note": 58,
      "start": 35.0467,
      "duration": 0.1613,
      "velocity": 101,
      "chip": "ym2612"
    },
    {
      "channel": 4,
      "note": 62,
      "start": 35.0471,
      "duration": 0.161,
      "velocity": 101,
      "chip": "ym2612"
    },
    {
      "channel": 0,
      "note": 57,
      "start": 35.2117,
      "duration": 0.1613,
      "velocity": 101,
      "chip": "ym2612"
    },
    {
      "channel": 4,
      "note": 61,
      "start": 35.2122,
      "duration": 0.161,
      "velocity": 101,
      "chip": "ym2612"
    },
    {
      "channel": 1,
      "note": 58,
      "start": 35.2945,
      "duration": 0.1611,
      "velocity": 101,
      "chip": "ym2612"
    },
    {
      "channel": 5,
      "note": 62,
      "start": 35.2949,
      "duration": 0.1607,
      "velocity": 101,
      "chip": "ym2612"
    },
    {
      "channel": 0,
      "note": 56,
      "start": 35.3768,
      "duration": 0.1612,
      "velocity": 101,
      "chip": "ym2612"
    },
    {
      "channel": 4,
      "note": 60,
      "start": 35.3773,
      "duration": 0.1609,
      "velocity": 101,
      "chip": "ym2612"
    },
    {
      "channel": 1,
      "note": 57,
      "start": 35.4592,
      "duration": 0.1613,
      "velocity": 101,
      "chip": "ym2612"
    },
    {
      "channel": 5,
      "note": 61,
      "start": 35.4597,
      "duration": 0.161,
      "velocity": 101,
      "chip": "ym2612"
    },
    {
      "channel": 0,
      "note": 55,
      "start": 35.5418,
      "duration": 0.1612,
      "velocity": 101,
      "chip": "ym2612"
    },
    {
      "channel": 4,
      "note": 59,
      "start": 35.5423,
      "duration": 0.1611,
      "velocity": 101,
      "chip": "ym2612"
    },
    {
      "channel": 1,
      "note": 56,
      "start": 35.6245,
      "duration": 0.1611,
      "velocity": 101,
      "chip": "ym2612"
    },
    {
      "channel": 5,
      "note": 60,
      "start": 35.625,
      "duration": 0.1607,
      "velocity": 101,
      "chip": "ym2612"
    },
    {
      "channel": 0,
      "note": 65,
      "start": 35.7068,
      "duration": 0.9863,
      "velocity": 101,
      "chip": "ym2612"
    },
    {
      "channel": 2,
      "note": 41,
      "start": 35.7073,
      "duration": 1.316,
      "velocity": 106,
      "chip": "ym2612"
    },
    {
      "channel": 3,
      "note": 41,
      "start": 35.7077,
      "duration": 1.3156,
      "velocity": 106,
      "chip": "ym2612"
    },
    {
      "channel": 4,
      "note": 68,
      "start": 35.7082,
      "duration": 0.985,
      "velocity": 101,
      "chip": "ym2612"
    },
    {
      "channel": 1,
      "note": 55,
      "start": 35.7893,
      "duration": 0.1612,
      "velocity": 101,
      "chip": "ym2612"
    },
    {
      "channel": 5,
      "note": 59,
      "start": 35.7898,
      "duration": 0.1608,
      "velocity": 101,
      "chip": "ym2612"
    },
    {
      "channel": 1,
      "note": 65,
      "start": 35.9546,
      "duration": 0.9861,
      "velocity": 101,
      "chip": "ym2612"
    },
    {
      "channel": 5,
      "note": 68,
      "start": 35.955,
      "duration": 0.9857,
      "velocity": 101,
      "chip": "ym2612"
    },
    {
      "channel": 0,
      "note": 68,
      "start": 36.6971,
      "duration": 0.326,
      "velocity": 101,
      "chip": "ym2612"
    },
    {
      "channel": 4,
      "note": 72,
      "start": 36.6976,
      "duration": 0.3259,
      "velocity": 101,
      "chip": "ym2612"
    },
    {
      "channel": 1,
      "note": 68,
      "start": 36.9447,
      "duration": 0.3261,
      "velocity": 101,
      "chip": "ym2612"
    },
    {
      "channel": 5,
      "note": 72,
      "start": 36.9452,
      "duration": 0.3257,
      "velocity": 101,
      "chip": "ym2612"
    },
    {
      "channel": 0,
      "note": 67,
      "start": 37.027,
      "duration": 0.9864,
      "velocity": 101,
      "chip": "ym2612"
    },
    {
      "channel": 2,
      "note": 43,
      "start": 37.0275,
      "duration": 1.3159,
      "velocity": 106,
      "chip": "ym2612"
    },
    {
      "channel": 3,
      "note": 43,
      "start": 37.028,
      "duration": 1.3156,
      "velocity": 106,
      "chip": "ym2612"
    },
    {
      "channel": 4,
      "note": 71,
      "start": 37.0284,
      "duration": 0.9851,
      "velocity": 101,
      "chip": "ym2612"
    },
    {
      "channel": 1,
      "note": 67,
      "start": 37.2748,
      "duration": 0.9862,
      "velocity": 101,
      "chip": "ym2612"
    },
    {
      "channel": 5,
      "note": 71,
      "start": 37.2752,
      "duration": 0.9858,
      "velocity": 101,
      "chip": "ym2612"
    },
    {
      "channel": 0,
      "note": 70,
      "start": 38.0171,
      "duration": 0.3263,
      "velocity": 101,
      "chip": "ym2612"
    },
    {
      "channel": 4,
      "note": 74,
      "start": 38.0177,
      "duration": 0.326,
      "velocity": 101,
      "chip": "ym2612"
    },
    {
      "channel": 1,
      "note": 70,
      "start": 38.2649,
      "duration": 0.3261,
      "velocity": 101,
      "chip": "ym2612"
    },
    {
      "channel": 5,
      "note": 74,
      "start": 38.2654,
      "duration": 0.3257,
      "velocity": 101,
      "chip": "ym2612"
    },
    {
      "channel": 0,
      "note": 69,
      "start": 38.3473,
      "duration": 0.9862,
      "velocity": 101,
      "chip": "ym2612"
    },
    {
      "channel": 2,
      "note": 45,
      "start": 38.3477,
      "duration": 1.3159,
      "velocity": 106,
      "chip": "ym2612"
    },
    {
      "channel": 3,
      "note": 45,
      "start": 38.3482,
      "duration": 1.3155,
      "velocity": 106,
      "chip": "ym2612"
    },
    {
      "channel": 4,
      "note": 73,
      "start": 38.3487,
      "duration": 0.9849,
      "velocity": 101,
      "chip": "ym2612"
    },
    {
      "channel": 1,
      "note": 69,
      "start": 38.5949,
      "duration": 0.9862,
      "velocity": 101,
      "chip": "ym2612"
    },
    {
      "channel": 5,
      "note": 73,
      "start": 38.5954,
      "duration": 0.9858,
      "velocity": 101,
      "chip": "ym2612"
    },
    {
      "channel": 0,
      "note": 70,
      "start": 39.3374,
      "duration": 0.3261,
      "velocity": 101,
      "chip": "ym2612"
    },
    {
      "channel": 4,
      "note": 74,
      "start": 39.338,
      "duration": 0.3259,
      "velocity": 101,
      "chip": "ym2612"
    },
    {
      "channel": 1,
      "note": 70,
      "start": 39.5849,
      "duration": 0.3263,
      "velocity": 101,
      "chip": "ym2612"
    },
    {
      "channel": 5,
      "note": 74,
      "start": 39.5854,
      "duration": 0.326,
      "velocity": 101,
      "chip": "ym2612"
    },
    {
      "channel": 0,
      "note": 71,
      "start": 39.6674,
      "duration": 0.6564,
      "velocity": 101,
      "chip": "ym2612"
    },
    {
      "channel": 2,
      "note": 47,
      "start": 39.6678,
      "duration": 1.3161,
      "velocity": 106,
      "chip": "ym2612"
    },
    {
      "channel": 3,
      "note": 47,
      "start": 39.6683,
      "duration": 1.3157,
      "velocity": 106,
      "chip": "ym2612"
    },
    {
      "channel": 4,
      "note": 75,
      "start": 39.6688,
      "duration": 0.655,
      "velocity": 101,
      "chip": "ym2612"
    },
    {
      "channel": 1,
      "note": 71,
      "start": 39.9149,
      "duration": 0.6563,
      "velocity": 101,
      "chip": "ym2612"
    },
    {
      "channel": 5,
      "note": 75,
      "start": 39.9154,
      "duration": 0.6559,
      "velocity": 101,
      "chip": "ym2612"
    },
    {
      "channel": 0,
      "note": 78,
      "start": 40.3275,
      "duration": 0.6564,
      "velocity": 101,
      "chip": "ym2612"
    },
    {
      "channel": 4,
      "note": 75,
      "start": 40.3279,
      "duration": 0.6565,
      "velocity": 101,
      "chip": "ym2612"
    },
    {
      "channel": 1,
      "note": 78,
      "start": 40.575,
      "duration": 0.4097,
      "velocity": 101,
      "chip": "ym2612"
    },
    {
      "channel": 5,
      "note": 75,
      "start": 40.5754,
      "duration": 0.4093,
      "velocity": 101,
      "chip": "ym2612"
    },
    {
      "channel": 0,
      "note": 86,
      "start": 40.9886,
      "duration": 0.0467,
      "velocity": 98,
      "chip": "ym2612"
    },
    {
      "channel": 2,
      "note": 36,
      "start": 40.9902,
      "duration": 0.161,
      "velocity": 106,
      "chip": "ym2612"
    },
    {
      "channel": 3,
      "note": 36,
      "start": 40.992,
      "duration": 0.1592,
      "velocity": 106,
      "chip": "ym2612"
    },
    {
      "channel": 4,
      "note": 90,
      "start": 40.9934,
      "duration": 0.0421,
      "velocity": 98,
      "chip": "ym2612"
    },
    {
      "channel": 0,
      "note": 86,
      "start": 41.07,
      "duration": 0.0478,
      "velocity": 98,
      "chip": "ym2612"
    },
    {
      "channel": 4,
      "note": 90,
      "start": 41.0705,
      "duration": 0.0474,
      "velocity": 98,
      "chip": "ym2612"
    },
    {
      "channel": 1,
      "note": 86,
      "start": 41.1126,
      "duration": 0.0386,
      "velocity": 98,
      "chip": "ym2612"
    },
    {
      "channel": 5,
      "note": 90,
      "start": 41.1145,
      "duration": 0.0367,
      "velocity": 98,
      "chip": "ym2612"
    }
  ]
}