{
  "track_name": "13 - The Bay of Scattered Song",
  "duration_sec": 106.599,
  "sample_rate": 44100,
  "note_count": 1585,
  "unique_pitches": 15,
  "pitch_range": 28,
  "avg_note_duration": 0.1977,
  "reconstruction_stats": {
    "notes_reconstructed": 1585,
    "keyon_events": 1585,
    "keyoff_events": 1581,
    "orphan_keyons": 4,
    "unique_pitches": 15,
    "pitch_range": 28,
    "avg_duration_sec": 0.1977
  },
  "metadata": {
    "source": "E\\Ecco Jr\\13 - The Bay of Scattered Song.vgz"
  },
  "notes": [
    {
      "channel": 4,
      "note": 69,
      "start": 0.0,
      "duration": 0.1375,
      "velocity": 122,
      "chip": "ym2612"
    },
    {
      "channel": 4,
      "note": 71,
      "start": 0.1578,
      "duration": 0.1464,
      "velocity": 122,
      "chip": "ym2612"
    },
    {
      "channel": 4,
      "note": 69,
      "start": 0.3407,
      "duration": 0.1468,
      "velocity": 122,
      "chip": "ym2612"
    },
    {
      "channel": 5,
      "note": 69,
      "start": 0.3439,
      "duration": 0.1437,
      "velocity": 122,
      "chip": "ym2612"
    },
    {
      "channel": 4,
      "note": 71,
      "start": 0.5074,
      "duration": 0.1466,
      "velocity": 122,
      "chip": "ym2612"
    },
    {
      "channel": 5,
      "note": 71,
      "start": 0.5103,
      "duration": 0.1439,
      "velocity": 122,
      "chip": "ym2612"
    },
    {
      "channel": 4,
      "note": 73,
      "start": 0.6906,
      "duration": 0.1468,
      "velocity": 122,
      "chip": "ym2612"
    },
    {
      "channel": 5,
      "note": 69,
      "start": 0.6939,
      "duration": 0.1437,
      "velocity": 122,
      "chip": "ym2612"
    },
    {
      "channel": 4,
      "note": 74,
      "start": 0.8573,
      "duration": 0.1468,
      "velocity": 122,
      "chip": "ym2612"
    },
    {
      "channel": 5,
      "note": 71,
      "start": 0.8602,
      "duration": 0.144,
      "velocity": 122,
      "chip": "ym2612"
    },
    {
      "channel": 4,
      "note": 73,
      "start": 1.0407,
      "duration": 0.1468,
      "velocity": 122,
      "chip": "ym2612"
    },
    {
      "channel": 5,
      "note": 73,
      "start": 1.0436,
      "duration": 0.144,
      "velocity": 122,
      "chip": "ym2612"
    },
    {
      "channel": 4,
      "note": 74,
      "start": 1.2073,
      "duration": 0.1468,
      "velocity": 122,
      "chip": "ym2612"
    },
    {
      "channel": 5,
      "note": 74,
      "start": 1.2102,
      "duration": 0.144,
      "velocity": 122,
      "chip": "ym2612"
    },
    {
      "channel": 4,
      "note": 71,
      "start": 1.3907,
      "duration": 0.1468,
      "velocity": 122,
      "chip": "ym2612"
    },
    {
      "channel": 5,
      "note": 73,
      "start": 1.3936,
      "duration": 0.144,
      "velocity": 122,
      "chip": "ym2612"
    },
    {
      "channel": 4,
      "note": 73,
      "start": 1.5573,
      "duration": 0.1468,
      "velocity": 122,
      "chip": "ym2612"
    },
    {
      "channel": 5,
      "note": 74,
      "start": 1.5602,
      "duration": 0.144,
      "velocity": 122,
      "chip": "ym2612"
    },
    {
      "channel": 4,
      "note": 71,
      "start": 1.7407,
      "duration": 0.1468,
      "velocity": 122,
      "chip": "ym2612"
    },
    {
      "channel": 5,
      "note": 71,
      "start": 1.7436,
      "duration": 0.144,
      "velocity": 122,
      "chip": "ym2612"
    },
    {
      "channel": 4,
      "note": 73,
      "start": 1.9241,
      "duration": 0.13,
      "velocity": 122,
      "chip": "ym2612"
    },
    {
      "channel": 5,
      "note": 73,
      "start": 1.927,
      "duration": 0.1272,
      "velocity": 122,
      "chip": "ym2612"
    },
    {
      "channel": 4,
      "note": 69,
      "start": 2.0907,
      "duration": 0.1468,
      "velocity": 122,
      "chip": "ym2612"
    },
    {
      "channel": 5,
      "note": 71,
      "start": 2.0936,
      "duration": 0.144,
      "velocity": 122,
      "chip": "ym2612"
    },
    {
      "channel": 4,
      "note": 71,
      "start": 2.2741,
      "duration": 0.13,
      "velocity": 122,
      "chip": "ym2612"
    },
    {
      "channel": 5,
      "note": 73,
      "start": 2.277,
      "duration": 0.1272,
      "velocity": 122,
      "chip": "ym2612"
    },
    {
      "channel": 4,
      "note": 69,
      "start": 2.4407,
      "duration": 0.1468,
      "velocity": 122,
      "chip": "ym2612"
    },
    {
      "channel": 5,
      "note": 69,
      "start": 2.4436,
      "duration": 0.144,
      "velocity": 122,
      "chip": "ym2612"
    },
    {
      "channel": 4,
      "note": 71,
      "start": 2.6241,
      "duration": 0.13,
      "velocity": 122,
      "chip": "ym2612"
    },
    {
      "channel": 5,
      "note": 71,
      "start": 2.627,
      "duration": 0.1272,
      "velocity": 122,
      "chip": "ym2612"
    },
    {
      "channel": 4,
      "note": 69,
      "start": 2.7907,
      "duration": 0.1468,
      "velocity": 122,
      "chip": "ym2612"
    },
    {
      "channel": 5,
      "note": 69,
      "start": 2.7936,
      "duration": 0.144,
      "velocity": 122,
      "chip": "ym2612"
    },
    {
      "channel": 4,
      "note": 71,
      "start": 2.9745,
      "duration": 0.1297,
      "velocity": 122,
      "chip": "ym2612"
    },
    {
      "channel": 5,
      "note": 71,
      "start": 2.9773,
      "duration": 0.127,
      "velocity": 122,
      "chip": "ym2612"
    },
    {
      "channel": 4,
      "note": 69,
      "start": 3.1406,
      "duration": 0.1468,
      "velocity": 122,
      "chip": "ym2612"
    },
    {
      "channel": 5,
      "note": 69,
      "start": 3.1436,
      "duration": 0.144,
      "velocity": 122,
      "chip": "ym2612"
    },
    {
      "channel": 4,
      "note": 71,
      "start": 3.324,
      "duration": 0.1302,
      "velocity": 122,
      "chip": "ym2612"
    },
    {
      "channel": 5,
      "note": 71,
      "start": 3.327,
      "duration": 0.1273,
      "velocity": 122,
      "chip": "ym2612"
    },
    {
      "channel": 4,
      "note": 67,
      "start": 3.4906,
      "duration": 0.1468,
      "velocity": 122,
      "chip": "ym2612"
    },
    {
      "channel": 5,
      "note": 69,
      "start": 3.4939,
      "duration": 0.1437,
      "velocity": 122,
      "chip": "ym2612"
    },
    {
      "channel": 4,
      "note": 69,
      "start": 3.6741,
      "duration": 0.1301,
      "velocity": 122,
      "chip": "ym2612"
    },
    {
      "channel": 5,
      "note": 71,
      "start": 3.677,
      "duration": 0.1273,
      "velocity": 122,
      "chip": "ym2612"
    },
    {
      "channel": 4,
      "note": 67,
      "start": 3.8406,
      "duration": 0.1468,
      "velocity": 122,
      "chip": "ym2612"
    },
    {
      "channel": 5,
      "note": 67,
      "start": 3.8436,
      "duration": 0.144,
      "velocity": 122,
      "chip": "ym2612"
    },
    {
      "channel": 4,
      "note": 69,
      "start": 4.024,
      "duration": 0.1468,
      "velocity": 122,
      "chip": "ym2612"
    },
    {
      "channel": 5,
      "note": 69,
      "start": 4.027,
      "duration": 0.144,
      "velocity": 122,
      "chip": "ym2612"
    },
    {
      "channel": 4,
      "note": 66,
      "start": 4.1907,
      "duration": 0.1467,
      "velocity": 122,
      "chip": "ym2612"
    },
    {
      "channel": 5,
      "note": 67,
      "start": 4.1936,
      "duration": 0.144,
      "velocity": 122,
      "chip": "ym2612"
    },
    {
      "channel": 4,
      "note": 67,
      "start": 4.374,
      "duration": 0.1468,
      "velocity": 122,
      "chip": "ym2612"
    },
    {
      "channel": 5,
      "note": 69,
      "start": 4.377,
      "duration": 0.144,
      "velocity": 122,
      "chip": "ym2612"
    },
    {
      "channel": 4,
      "note": 66,
      "start": 4.5407,
      "duration": 0.1467,
      "velocity": 122,
      "chip": "ym2612"
    },
    {
      "channel": 5,
      "note": 66,
      "start": 4.5436,
      "duration": 0.144,
      "velocity": 122,
      "chip": "ym2612"
    },
    {
      "channel": 4,
      "note": 67,
      "start": 4.724,
      "duration": 0.1468,
      "velocity": 122,
      "chip": "ym2612"
    },
    {
      "channel": 5,
      "note": 67,
      "start": 4.727,
      "duration": 0.144,
      "velocity": 122,
      "chip": "ym2612"
    },
    {
      "channel": 4,
      "note": 64,
      "start": 4.8907,
      "duration": 0.1467,
      "velocity": 122,
      "chip": "ym2612"
    },
    {
      "channel": 5,
      "note": 66,
      "start": 4.8936,
      "duration": 0.144,
      "velocity": 122,
      "chip": "ym2612"
    },
    {
      "channel": 4,
      "note": 66,
      "start": 5.074,
      "duration": 0.1468,
      "velocity": 122,
      "chip": "ym2612"
    },
    {
      "channel": 5,
      "note": 67,
      "start": 5.077,
      "duration": 0.144,
      "velocity": 122,
      "chip": "ym2612"
    },
    {
      "channel": 4,
      "note": 64,
      "start": 5.2407,
      "duration": 0.1467,
      "velocity": 122,
      "chip": "ym2612"
    },
    {
      "channel": 5,
      "note": 64,
      "start": 5.2436,
      "duration": 0.144,
      "velocity": 122,
      "chip": "ym2612"
    },
    {
      "channel": 4,
      "note": 66,
      "start": 5.424,
      "duration": 0.1468,
      "velocity": 122,
      "chip": "ym2612"
    },
    {
      "channel": 5,
      "note": 66,
      "start": 5.427,
      "duration": 0.144,
      "velocity": 122,
      "chip": "ym2612"
    },
    {
      "channel": 4,
      "note": 69,
      "start": 5.5907,
      "duration": 0.1467,
      "velocity": 122,
      "chip": "ym2612"
    },
    {
      "channel": 5,
      "note": 64,
      "start": 5.5936,
      "duration": 0.144,
      "velocity": 122,
      "chip": "ym2612"
    },
    {
      "channel": 4,
      "note": 71,
      "start": 5.7744,
      "duration": 0.1463,
      "velocity": 122,
      "chip": "ym2612"
    },
    {
      "channel": 5,
      "note": 66,
      "start": 5.7773,
      "duration": 0.1435,
      "velocity": 122,
      "chip": "ym2612"
    },
    {
      "channel": 4,
      "note": 69,
      "start": 5.9408,
      "duration": 0.1466,
      "velocity": 122,
      "chip": "ym2612"
    },
    {
      "channel": 5,
      "note": 69,
      "start": 5.9437,
      "duration": 0.1438,
      "velocity": 122,
      "chip": "ym2612"
    },
    {
      "channel": 4,
      "note": 71,
      "start": 6.124,
      "duration": 0.1468,
      "velocity": 122,
      "chip": "ym2612"
    },
    {
      "channel": 5,
      "note": 71,
      "start": 6.1269,
      "duration": 0.144,
      "velocity": 122,
      "chip": "ym2612"
    },
    {
      "channel": 4,
      "note": 73,
      "start": 6.3074,
      "duration": 0.13,
      "velocity": 122,
      "chip": "ym2612"
    },
    {
      "channel": 5,
      "note": 69,
      "start": 6.3106,
      "duration": 0.1269,
      "velocity": 122,
      "chip": "ym2612"
    },
    {
      "channel": 4,
      "note": 74,
      "start": 6.474,
      "duration": 0.1468,
      "velocity": 122,
      "chip": "ym2612"
    },
    {
      "channel": 5,
      "note": 71,
      "start": 6.477,
      "duration": 0.144,
      "velocity": 122,
      "chip": "ym2612"
    },
    {
      "channel": 4,
      "note": 73,
      "start": 6.6574,
      "duration": 0.1301,
      "velocity": 122,
      "chip": "ym2612"
    },
    {
      "channel": 5,
      "note": 73,
      "start": 6.6603,
      "duration": 0.1273,
      "velocity": 122,
      "chip": "ym2612"
    },
    {
      "channel": 4,
      "note": 74,
      "start": 6.824,
      "duration": 0.1468,
      "velocity": 122,
      "chip": "ym2612"
    },
    {
      "channel": 5,
      "note": 74,
      "start": 6.8269,
      "duration": 0.144,
      "velocity": 122,
      "chip": "ym2612"
    },
    {
      "channel": 4,
      "note": 71,
      "start": 7.0073,
      "duration": 0.1302,
      "velocity": 122,
      "chip": "ym2612"
    },
    {
      "channel": 5,
      "note": 73,
      "start": 7.0102,
      "duration": 0.1274,
      "velocity": 122,
      "chip": "ym2612"
    },
    {
      "channel": 4,
      "note": 73,
      "start": 7.174,
      "duration": 0.1468,
      "velocity": 122,
      "chip": "ym2612"
    },
    {
      "channel": 5,
      "note": 74,
      "start": 7.177,
      "duration": 0.144,
      "velocity": 122,
      "chip": "ym2612"
    },
    {
      "channel": 4,
      "note": 71,
      "start": 7.3574,
      "duration": 0.13,
      "velocity": 122,
      "chip": "ym2612"
    },
    {
      "channel": 5,
      "note": 71,
      "start": 7.3604,
      "duration": 0.1272,
      "velocity": 122,
      "chip": "ym2612"
    },
    {
      "channel": 4,
      "note": 73,
      "start": 7.524,
      "duration": 0.1468,
      "velocity": 122,
      "chip": "ym2612"
    },
    {
      "channel": 5,
      "note": 73,
      "start": 7.527,
      "duration": 0.144,
      "velocity": 122,
      "chip": "ym2612"
    },
    {
      "channel": 4,
      "note": 69,
      "start": 7.7074,
      "duration": 0.1301,
      "velocity": 122,
      "chip": "ym2612"
    },
    {
      "channel": 5,
      "note": 71,
      "start": 7.7104,
      "duration": 0.1273,
      "velocity": 122,
      "chip": "ym2612"
    },
    {
      "channel": 4,
      "note": 71,
      "start": 7.874,
      "duration": 0.1468,
      "velocity": 122,
      "chip": "ym2612"
    },
    {
      "channel": 5,
      "note": 73,
      "start": 7.8769,
      "duration": 0.144,
      "velocity": 122,
      "chip": "ym2612"
    },
    {
      "channel": 4,
      "note": 69,
      "start": 8.0574,
      "duration": 0.1301,
      "velocity": 122,
      "chip": "ym2612"
    },
    {
      "channel": 5,
      "note": 69,
      "start": 8.0602,
      "duration": 0.1274,
      "velocity": 122,
      "chip": "ym2612"
    },
    {
      "channel": 4,
      "note": 71,
      "start": 8.224,
      "duration": 0.1468,
      "velocity": 122,
      "chip": "ym2612"
    },
    {
      "channel": 5,
      "note": 71,
      "start": 8.227,
      "duration": 0.144,
      "velocity": 122,
      "chip": "ym2612"
    },
    {
      "channel": 4,
      "note": 69,
      "start": 8.4074,
      "duration": 0.1466,
      "velocity": 122,
      "chip": "ym2612"
    },
    {
      "channel": 5,
      "note": 69,
      "start": 8.4104,
      "duration": 0.1438,
      "velocity": 122,
      "chip": "ym2612"
    },
    {
      "channel": 4,
      "note": 71,
      "start": 8.5744,
      "duration": 0.1463,
      "velocity": 122,
      "chip": "ym2612"
    },
    {
      "channel": 5,
      "note": 71,
      "start": 8.5773,
      "duration": 0.1436,
      "velocity": 122,
      "chip": "ym2612"
    },
    {
      "channel": 4,
      "note": 69,
      "start": 8.7574,
      "duration": 0.1467,
      "velocity": 122,
      "chip": "ym2612"
    },
    {
      "channel": 5,
      "note": 69,
      "start": 8.7602,
      "duration": 0.144,
      "velocity": 122,
      "chip": "ym2612"
    },
    {
      "channel": 4,
      "note": 71,
      "start": 8.9241,
      "duration": 0.1466,
      "velocity": 122,
      "chip": "ym2612"
    },
    {
      "channel": 5,
      "note": 71,
      "start": 8.927,
      "duration": 0.1439,
      "velocity": 122,
      "chip": "ym2612"
    },
    {
      "channel": 4,
      "note": 67,
      "start": 9.1073,
      "duration": 0.1468,
      "velocity": 122,
      "chip": "ym2612"
    },
    {
      "channel": 5,
      "note": 69,
      "start": 9.1106,
      "duration": 0.1437,
      "velocity": 122,
      "chip": "ym2612"
    },
    {
      "channel": 4,
      "note": 69,
      "start": 9.274,
      "duration": 0.1467,
      "velocity": 122,
      "chip": "ym2612"
    },
    {
      "channel": 5,
      "note": 71,
      "start": 9.2769,
      "duration": 0.144,
      "velocity": 122,
      "chip": "ym2612"
    },
    {
      "channel": 4,
      "note": 67,
      "start": 9.4574,
      "duration": 0.1468,
      "velocity": 122,
      "chip": "ym2612"
    },
    {
      "channel": 5,
      "note": 67,
      "start": 9.4603,
      "duration": 0.144,
      "velocity": 122,
      "chip": "ym2612"
    },
    {
      "channel": 4,
      "note": 69,
      "start": 9.624,
      "duration": 0.1467,
      "velocity": 122,
      "chip": "ym2612"
    },
    {
      "channel": 5,
      "note": 69,
      "start": 9.6269,
      "duration": 0.144,
      "velocity": 122,
      "chip": "ym2612"
    },
    {
      "channel": 4,
      "note": 66,
      "start": 9.8074,
      "duration": 0.1468,
      "velocity": 122,
      "chip": "ym2612"
    },
    {
      "channel": 5,
      "note": 67,
      "start": 9.8103,
      "duration": 0.144,
      "velocity": 122,
      "chip": "ym2612"
    },
    {
      "channel": 4,
      "note": 67,
      "start": 9.974,
      "duration": 0.1467,
      "velocity": 122,
      "chip": "ym2612"
    },
    {
      "channel": 5,
      "note": 69,
      "start": 9.9769,
      "duration": 0.144,
      "velocity": 122,
      "chip": "ym2612"
    },
    {
      "channel": 4,
      "note": 66,
      "start": 10.1574,
      "duration": 0.1468,
      "velocity": 122,
      "chip": "ym2612"
    },
    {
      "channel": 5,
      "note": 66,
      "start": 10.1603,
      "duration": 0.144,
      "velocity": 122,
      "chip": "ym2612"
    },
    {
      "channel": 4,
      "note": 67,
      "start": 10.324,
      "duration": 0.1467,
      "velocity": 122,
      "chip": "ym2612"
    },
    {
      "channel": 5,
      "note": 67,
      "start": 10.3269,
      "duration": 0.144,
      "velocity": 122,
      "chip": "ym2612"
    },
    {
      "channel": 4,
      "note": 64,
      "start": 10.5074,
      "duration": 0.1468,
      "velocity": 122,
      "chip": "ym2612"
    },
    {
      "channel": 5,
      "note": 66,
      "start": 10.5103,
      "duration": 0.144,
      "velocity": 122,
      "chip": "ym2612"
    },
    {
      "channel": 4,
      "note": 66,
      "start": 10.6908,
      "duration": 0.13,
      "velocity": 122,
      "chip": "ym2612"
    },
    {
      "channel": 5,
      "note": 67,
      "start": 10.6937,
      "duration": 0.1272,
      "velocity": 122,
      "chip": "ym2612"
    },
    {
      "channel": 4,
      "note": 64,
      "start": 10.8574,
      "duration": 0.1468,
      "velocity": 122,
      "chip": "ym2612"
    },
    {
      "channel": 5,
      "note": 64,
      "start": 10.8603,
      "duration": 0.144,
      "velocity": 122,
      "chip": "ym2612"
    },
    {
      "channel": 4,
      "note": 66,
      "start": 11.0408,
      "duration": 0.13,
      "velocity": 122,
      "chip": "ym2612"
    },
    {
      "channel": 5,
      "note": 66,
      "start": 11.0437,
      "duration": 0.1272,
      "velocity": 122,
      "chip": "ym2612"
    },
    {
      "channel": 4,
      "note": 69,
      "start": 11.2074,
      "duration": 0.1466,
      "velocity": 122,
      "chip": "ym2612"
    },
    {
      "channel": 5,
      "note": 64,
      "start": 11.2103,
      "duration": 0.1439,
      "velocity": 122,
      "chip": "ym2612"
    },
    {
      "channel": 4,
      "note": 71,
      "start": 11.391,
      "duration": 0.1297,
      "velocity": 122,
      "chip": "ym2612"
    },
    {
      "channel": 5,
      "note": 66,
      "start": 11.3939,
      "duration": 0.1269,
      "velocity": 122,
      "chip": "ym2612"
    },
    {
      "channel": 4,
      "note": 69,
      "start": 11.5574,
      "duration": 0.1468,
      "velocity": 122,
      "chip": "ym2612"
    },
    {
      "channel": 5,
      "note": 69,
      "start": 11.5603,
      "duration": 0.144,
      "velocity": 122,
      "chip": "ym2612"
    },
    {
      "channel": 4,
      "note": 71,
      "start": 11.7408,
      "duration": 0.1301,
      "velocity": 122,
      "chip": "ym2612"
    },
    {
      "channel": 5,
      "note": 71,
      "start": 11.7436,
      "duration": 0.1273,
      "velocity": 122,
      "chip": "ym2612"
    },
    {
      "channel": 4,
      "note": 73,
      "start": 11.9073,
      "duration": 0.1468,
      "velocity": 122,
      "chip": "ym2612"
    },
    {
      "channel": 5,
      "note": 69,
      "start": 11.9105,
      "duration": 0.1437,
      "velocity": 122,
      "chip": "ym2612"
    },
    {
      "channel": 4,
      "note": 74,
      "start": 12.0908,
      "duration": 0.13,
      "velocity": 122,
      "chip": "ym2612"
    },
    {
      "channel": 5,
      "note": 71,
      "start": 12.0937,
      "duration": 0.1272,
      "velocity": 122,
      "chip": "ym2612"
    },
    {
      "channel": 4,
      "note": 73,
      "start": 12.2574,
      "duration": 0.1468,
      "velocity": 122,
      "chip": "ym2612"
    },
    {
      "channel": 5,
      "note": 73,
      "start": 12.2603,
      "duration": 0.144,
      "velocity": 122,
      "chip": "ym2612"
    },
    {
      "channel": 4,
      "note": 74,
      "start": 12.4408,
      "duration": 0.1467,
      "velocity": 122,
      "chip": "ym2612"
    },
    {
      "channel": 5,
      "note": 74,
      "start": 12.4436,
      "duration": 0.144,
      "velocity": 122,
      "chip": "ym2612"
    },
    {
      "channel": 4,
      "note": 71,
      "start": 12.6073,
      "duration": 0.1468,
      "velocity": 122,
      "chip": "ym2612"
    },
    {
      "channel": 5,
      "note": 73,
      "start": 12.6102,
      "duration": 0.144,
      "velocity": 122,
      "chip": "ym2612"
    },
    {
      "channel": 4,
      "note": 73,
      "start": 12.7907,
      "duration": 0.1468,
      "velocity": 122,
      "chip": "ym2612"
    },
    {
      "channel": 5,
      "note": 74,
      "start": 12.7936,
      "duration": 0.144,
      "velocity": 122,
      "chip": "ym2612"
    },
    {
      "channel": 4,
      "note": 71,
      "start": 12.9573,
      "duration": 0.1468,
      "velocity": 122,
      "chip": "ym2612"
    },
    {
      "channel": 5,
      "note": 71,
      "start": 12.9602,
      "duration": 0.144,
      "velocity": 122,
      "chip": "ym2612"
    },
    {
      "channel": 4,
      "note": 73,
      "start": 13.1407,
      "duration": 0.1468,
      "velocity": 122,
      "chip": "ym2612"
    },
    {
      "channel": 5,
      "note": 73,
      "start": 13.1436,
      "duration": 0.144,
      "velocity": 122,
      "chip": "ym2612"
    },
    {
      "channel": 4,
      "note": 69,
      "start": 13.3074,
      "duration": 0.1467,
      "velocity": 122,
      "chip": "ym2612"
    },
    {
      "channel": 5,
      "note": 71,
      "start": 13.3102,
      "duration": 0.144,
      "velocity": 122,
      "chip": "ym2612"
    },
    {
      "channel": 4,
      "note": 71,
      "start": 13.4907,
      "duration": 0.1468,
      "velocity": 122,
      "chip": "ym2612"
    },
    {
      "channel": 5,
      "note": 73,
      "start": 13.4936,
      "duration": 0.144,
      "velocity": 122,
      "chip": "ym2612"
    },
    {
      "channel": 4,
      "note": 69,
      "start": 13.6574,
      "duration": 0.1467,
      "velocity": 122,
      "chip": "ym2612"
    },
    {
      "channel": 5,
      "note": 69,
      "start": 13.6602,
      "duration": 0.144,
      "velocity": 122,
      "chip": "ym2612"
    },
    {
      "channel": 4,
      "note": 71,
      "start": 13.8407,
      "duration": 0.1468,
      "velocity": 122,
      "chip": "ym2612"
    },
    {
      "channel": 5,
      "note": 71,
      "start": 13.8436,
      "duration": 0.144,
      "velocity": 122,
      "chip": "ym2612"
    },
    {
      "channel": 4,
      "note": 69,
      "start": 14.0074,
      "duration": 0.1467,
      "velocity": 122,
      "chip": "ym2612"
    },
    {
      "channel": 5,
      "note": 69,
      "start": 14.0102,
      "duration": 0.144,
      "velocity": 122,
      "chip": "ym2612"
    },
    {
      "channel": 4,
      "note": 71,
      "start": 14.1911,
      "duration": 0.1463,
      "velocity": 122,
      "chip": "ym2612"
    },
    {
      "channel": 5,
      "note": 71,
      "start": 14.194,
      "duration": 0.1435,
      "velocity": 122,
      "chip": "ym2612"
    },
    {
      "channel": 4,
      "note": 69,
      "start": 14.3574,
      "duration": 0.1467,
      "velocity": 122,
      "chip": "ym2612"
    },
    {
      "channel": 5,
      "note": 69,
      "start": 14.3603,
      "duration": 0.1439,
      "velocity": 122,
      "chip": "ym2612"
    },
    {
      "channel": 4,
      "note": 71,
      "start": 14.5407,
      "duration": 0.1468,
      "velocity": 122,
      "chip": "ym2612"
    },
    {
      "channel": 5,
      "note": 71,
      "start": 14.5436,
      "duration": 0.144,
      "velocity": 122,
      "chip": "ym2612"
    },
    {
      "channel": 4,
      "note": 67,
      "start": 14.7241,
      "duration": 0.1301,
      "velocity": 122,
      "chip": "ym2612"
    },
    {
      "channel": 5,
      "note": 69,
      "start": 14.7274,
      "duration": 0.1269,
      "velocity": 122,
      "chip": "ym2612"
    },
    {
      "channel": 4,
      "note": 69,
      "start": 14.8906,
      "duration": 0.1468,
      "velocity": 122,
      "chip": "ym2612"
    },
    {
      "channel": 5,
      "note": 71,
      "start": 14.8936,
      "duration": 0.144,
      "velocity": 122,
      "chip": "ym2612"
    },
    {
      "channel": 4,
      "note": 67,
      "start": 15.074,
      "duration": 0.1302,
      "velocity": 122,
      "chip": "ym2612"
    },
    {
      "channel": 5,
      "note": 67,
      "start": 15.077,
      "duration": 0.1273,
      "velocity": 122,
      "chip": "ym2612"
    },
    {
      "channel": 4,
      "note": 69,
      "start": 15.2406,
      "duration": 0.1468,
      "velocity": 122,
      "chip": "ym2612"
    },
    {
      "channel": 5,
      "note": 69,
      "start": 15.2436,
      "duration": 0.144,
      "velocity": 122,
      "chip": "ym2612"
    },
    {
      "channel": 4,
      "note": 66,
      "start": 15.424,
      "duration": 0.1302,
      "velocity": 122,
      "chip": "ym2612"
    },
    {
      "channel": 5,
      "note": 67,
      "start": 15.427,
      "duration": 0.1273,
      "velocity": 122,
      "chip": "ym2612"
    },
    {
      "channel": 4,
      "note": 67,
      "start": 15.5906,
      "duration": 0.1468,
      "velocity": 122,
      "chip": "ym2612"
    },
    {
      "channel": 5,
      "note": 69,
      "start": 15.5936,
      "duration": 0.144,
      "velocity": 122,
      "chip": "ym2612"
    },
    {
      "channel": 4,
      "note": 66,
      "start": 15.774,
      "duration": 0.1302,
      "velocity": 122,
      "chip": "ym2612"
    },
    {
      "channel": 5,
      "note": 66,
      "start": 15.777,
      "duration": 0.1273,
      "velocity": 122,
      "chip": "ym2612"
    },
    {
      "channel": 4,
      "note": 67,
      "start": 15.9406,
      "duration": 0.1468,
      "velocity": 122,
      "chip": "ym2612"
    },
    {
      "channel": 5,
      "note": 67,
      "start": 15.9436,
      "duration": 0.144,
      "velocity": 122,
      "chip": "ym2612"
    },
    {
      "channel": 4,
      "note": 64,
      "start": 16.124,
      "duration": 0.1302,
      "velocity": 122,
      "chip": "ym2612"
    },
    {
      "channel": 5,
      "note": 66,
      "start": 16.127,
      "duration": 0.1273,
      "velocity": 122,
      "chip": "ym2612"
    },
    {
      "channel": 4,
      "note": 66,
      "start": 16.2906,
      "duration": 0.1468,
      "velocity": 122,
      "chip": "ym2612"
    },
    {
      "channel": 5,
      "note": 67,
      "start": 16.2936,
      "duration": 0.144,
      "velocity": 122,
      "chip": "ym2612"
    },
    {
      "channel": 4,
      "note": 64,
      "start": 16.474,
      "duration": 0.1302,
      "velocity": 122,
      "chip": "ym2612"
    },
    {
      "channel": 5,
      "note": 64,
      "start": 16.477,
      "duration": 0.1273,
      "velocity": 122,
      "chip": "ym2612"
    },
    {
      "channel": 4,
      "note": 66,
      "start": 16.6406,
      "duration": 0.1468,
      "velocity": 122,
      "chip": "ym2612"
    },
    {
      "channel": 5,
      "note": 66,
      "start": 16.6436,
      "duration": 0.144,
      "velocity": 122,
      "chip": "ym2612"
    },
    {
      "channel": 4,
      "note": 69,
      "start": 16.824,
      "duration": 0.1468,
      "velocity": 122,
      "chip": "ym2612"
    },
    {
      "channel": 5,
      "note": 64,
      "start": 16.827,
      "duration": 0.144,
      "velocity": 122,
      "chip": "ym2612"
    },
    {
      "channel": 4,
      "note": 71,
      "start": 16.991,
      "duration": 0.1464,
      "velocity": 122,
      "chip": "ym2612"
    },
    {
      "channel": 5,
      "note": 66,
      "start": 16.9939,
      "duration": 0.1436,
      "velocity": 122,
      "chip": "ym2612"
    },
    {
      "channel": 4,
      "note": 69,
      "start": 17.174,
      "duration": 0.1467,
      "velocity": 122,
      "chip": "ym2612"
    },
    {
      "channel": 5,
      "note": 69,
      "start": 17.1769,
      "duration": 0.144,
      "velocity": 122,
      "chip": "ym2612"
    },
    {
      "channel": 4,
      "note": 71,
      "start": 17.3408,
      "duration": 0.1466,
      "velocity": 122,
      "chip": "ym2612"
    },
    {
      "channel": 5,
      "note": 71,
      "start": 17.3436,
      "duration": 0.1439,
      "velocity": 122,
      "chip": "ym2612"
    },
    {
      "channel": 4,
      "note": 73,
      "start": 17.524,
      "duration": 0.1468,
      "velocity": 122,
      "chip": "ym2612"
    },
    {
      "channel": 5,
      "note": 69,
      "start": 17.5273,
      "duration": 0.1437,
      "velocity": 122,
      "chip": "ym2612"
    },
    {
      "channel": 4,
      "note": 74,
      "start": 17.6906,
      "duration": 0.1468,
      "velocity": 122,
      "chip": "ym2612"
    },
    {
      "channel": 5,
      "note": 71,
      "start": 17.6936,
      "duration": 0.144,
      "velocity": 122,
      "chip": "ym2612"
    },
    {
      "channel": 4,
      "note": 73,
      "start": 17.874,
      "duration": 0.1468,
      "velocity": 122,
      "chip": "ym2612"
    },
    {
      "channel": 5,
      "note": 73,
      "start": 17.877,
      "duration": 0.144,
      "velocity": 122,
      "chip": "ym2612"
    },
    {
      "channel": 4,
      "note": 74,
      "start": 18.0406,
      "duration": 0.1468,
      "velocity": 122,
      "chip": "ym2612"
    },
    {
      "channel": 5,
      "note": 74,
      "start": 18.0436,
      "duration": 0.144,
      "velocity": 122,
      "chip": "ym2612"
    },
    {
      "channel": 4,
      "note": 71,
      "start": 18.224,
      "duration": 0.1468,
      "velocity": 122,
      "chip": "ym2612"
    },
    {
      "channel": 5,
      "note": 73,
      "start": 18.227,
      "duration": 0.144,
      "velocity": 122,
      "chip": "ym2612"
    },
    {
      "channel": 4,
      "note": 73,
      "start": 18.3906,
      "duration": 0.1468,
      "velocity": 122,
      "chip": "ym2612"
    },
    {
      "channel": 5,
      "note": 74,
      "start": 18.3936,
      "duration": 0.144,
      "velocity": 122,
      "chip": "ym2612"
    },
    {
      "channel": 4,
      "note": 71,
      "start": 18.574,
      "duration": 0.1467,
      "velocity": 122,
      "chip": "ym2612"
    },
    {
      "channel": 5,
      "note": 71,
      "start": 18.577,
      "duration": 0.1439,
      "velocity": 122,
      "chip": "ym2612"
    },
    {
      "channel": 4,
      "note": 73,
      "start": 18.7407,
      "duration": 0.1467,
      "velocity": 122,
      "chip": "ym2612"
    },
    {
      "channel": 5,
      "note": 73,
      "start": 18.7436,
      "duration": 0.144,
      "velocity": 122,
      "chip": "ym2612"
    },
    {
      "channel": 4,
      "note": 69,
      "start": 18.924,
      "duration": 0.1468,
      "velocity": 122,
      "chip": "ym2612"
    },
    {
      "channel": 5,
      "note": 71,
      "start": 18.927,
      "duration": 0.144,
      "velocity": 122,
      "chip": "ym2612"
    },
    {
      "channel": 4,
      "note": 71,
      "start": 19.1074,
      "duration": 0.13,
      "velocity": 122,
      "chip": "ym2612"
    },
    {
      "channel": 5,
      "note": 73,
      "start": 19.1104,
      "duration": 0.1272,
      "velocity": 122,
      "chip": "ym2612"
    },
    {
      "channel": 4,
      "note": 69,
      "start": 19.274,
      "duration": 0.1468,
      "velocity": 122,
      "chip": "ym2612"
    },
    {
      "channel": 5,
      "note": 69,
      "start": 19.277,
      "duration": 0.144,
      "velocity": 122,
      "chip": "ym2612"
    },
    {
      "channel": 4,
      "note": 71,
      "start": 19.4574,
      "duration": 0.1301,
      "velocity": 122,
      "chip": "ym2612"
    },
    {
      "channel": 5,
      "note": 71,
      "start": 19.4603,
      "duration": 0.1273,
      "velocity": 122,
      "chip": "ym2612"
    },
    {
      "channel": 4,
      "note": 69,
      "start": 19.624,
      "duration": 0.1468,
      "velocity": 122,
      "chip": "ym2612"
    },
    {
      "channel": 5,
      "note": 69,
      "start": 19.6269,
      "duration": 0.144,
      "velocity": 122,
      "chip": "ym2612"
    },
    {
      "channel": 4,
      "note": 71,
      "start": 19.8078,
      "duration": 0.1296,
      "velocity": 122,
      "chip": "ym2612"
    },
    {
      "channel": 5,
      "note": 71,
      "start": 19.8107,
      "duration": 0.1268,
      "velocity": 122,
      "chip": "ym2612"
    },
    {
      "channel": 4,
      "note": 69,
      "start": 19.974,
      "duration": 0.1468,
      "velocity": 122,
      "chip": "ym2612"
    },
    {
      "channel": 5,
      "note": 69,
      "start": 19.977,
      "duration": 0.144,
      "velocity": 122,
      "chip": "ym2612"
    },
    {
      "channel": 4,
      "note": 71,
      "start": 20.1574,
      "duration": 0.13,
      "velocity": 122,
      "chip": "ym2612"
    },
    {
      "channel": 5,
      "note": 71,
      "start": 20.1604,
      "duration": 0.1272,
      "velocity": 122,
      "chip": "ym2612"
    },
    {
      "channel": 4,
      "note": 67,
      "start": 20.324,
      "duration": 0.1467,
      "velocity": 122,
      "chip": "ym2612"
    },
    {
      "channel": 5,
      "note": 69,
      "start": 20.3273,
      "duration": 0.1435,
      "velocity": 122,
      "chip": "ym2612"
    },
    {
      "channel": 4,
      "note": 69,
      "start": 20.5074,
      "duration": 0.1301,
      "velocity": 122,
      "chip": "ym2612"
    },
    {
      "channel": 5,
      "note": 71,
      "start": 20.5102,
      "duration": 0.1274,
      "velocity": 122,
      "chip": "ym2612"
    },
    {
      "channel": 4,
      "note": 67,
      "start": 20.674,
      "duration": 0.1468,
      "velocity": 122,
      "chip": "ym2612"
    },
    {
      "channel": 5,
      "note": 67,
      "start": 20.677,
      "duration": 0.144,
      "velocity": 122,
      "chip": "ym2612"
    },
    {
      "channel": 4,
      "note": 69,
      "start": 20.8574,
      "duration": 0.13,
      "velocity": 122,
      "chip": "ym2612"
    },
    {
      "channel": 5,
      "note": 69,
      "start": 20.8604,
      "duration": 0.1272,
      "velocity": 122,
      "chip": "ym2612"
    },
    {
      "channel": 4,
      "note": 66,
      "start": 21.024,
      "duration": 0.1468,
      "velocity": 122,
      "chip": "ym2612"
    },
    {
      "channel": 5,
      "note": 67,
      "start": 21.027,
      "duration": 0.144,
      "velocity": 122,
      "chip": "ym2612"
    },
    {
      "channel": 4,
      "note": 67,
      "start": 21.2074,
      "duration": 0.1466,
      "velocity": 122,
      "chip": "ym2612"
    },
    {
      "channel": 5,
      "note": 69,
      "start": 21.2104,
      "duration": 0.1438,
      "velocity": 122,
      "chip": "ym2612"
    },
    {
      "channel": 4,
      "note": 66,
      "start": 21.374,
      "duration": 0.1468,
      "velocity": 122,
      "chip": "ym2612"
    },
    {
      "channel": 5,
      "note": 66,
      "start": 21.377,
      "duration": 0.144,
      "velocity": 122,
      "chip": "ym2612"
    },
    {
      "channel": 4,
      "note": 67,
      "start": 21.5574,
      "duration": 0.1466,
      "velocity": 122,
      "chip": "ym2612"
    },
    {
      "channel": 5,
      "note": 67,
      "start": 21.5604,
      "duration": 0.1438,
      "velocity": 122,
      "chip": "ym2612"
    },
    {
      "channel": 4,
      "note": 64,
      "start": 21.724,
      "duration": 0.1468,
      "velocity": 122,
      "chip": "ym2612"
    },
    {
      "channel": 5,
      "note": 66,
      "start": 21.727,
      "duration": 0.144,
      "velocity": 122,
      "chip": "ym2612"
    },
    {
      "channel": 4,
      "note": 66,
      "start": 21.9074,
      "duration": 0.1466,
      "velocity": 122,
      "chip": "ym2612"
    },
    {
      "channel": 5,
      "note": 67,
      "start": 21.9104,
      "duration": 0.1438,
      "velocity": 122,
      "chip": "ym2612"
    },
    {
      "channel": 4,
      "note": 64,
      "start": 22.074,
      "duration": 0.1468,
      "velocity": 122,
      "chip": "ym2612"
    },
    {
      "channel": 5,
      "note": 64,
      "start": 22.077,
      "duration": 0.144,
      "velocity": 122,
      "chip": "ym2612"
    },
    {
      "channel": 4,
      "note": 66,
      "start": 22.2574,
      "duration": 0.1466,
      "velocity": 122,
      "chip": "ym2612"
    },
    {
      "channel": 5,
      "note": 66,
      "start": 22.2604,
      "duration": 0.1438,
      "velocity": 122,
      "chip": "ym2612"
    },
    {
      "channel": 0,
      "note": 50,
      "start": 22.4237,
      "duration": 0.3303,
      "velocity": 95,
      "chip": "ym2612"
    },
    {
      "channel": 4,
      "note": 69,
      "start": 22.4266,
      "duration": 0.1443,
      "velocity": 122,
      "chip": "ym2612"
    },
    {
      "channel": 5,
      "note": 64,
      "start": 22.4296,
      "duration": 0.1415,
      "velocity": 122,
      "chip": "ym2612"
    },
    {
      "channel": 4,
      "note": 71,
      "start": 22.6078,
      "duration": 0.1464,
      "velocity": 122,
      "chip": "ym2612"
    },
    {
      "channel": 5,
      "note": 66,
      "start": 22.6107,
      "duration": 0.1436,
      "velocity": 122,
      "chip": "ym2612"
    },
    {
      "channel": 0,
      "note": 57,
      "start": 22.7734,
      "duration": 0.3307,
      "velocity": 95,
      "chip": "ym2612"
    },
    {
      "channel": 4,
      "note": 69,
      "start": 22.7764,
      "duration": 0.1444,
      "velocity": 122,
      "chip": "ym2612"
    },
    {
      "channel": 5,
      "note": 69,
      "start": 22.7793,
      "duration": 0.1417,
      "velocity": 122,
      "chip": "ym2612"
    },
    {
      "channel": 4,
      "note": 71,
      "start": 22.9574,
      "duration": 0.1468,
      "velocity": 122,
      "chip": "ym2612"
    },
    {
      "channel": 5,
      "note": 71,
      "start": 22.9604,
      "duration": 0.144,
      "velocity": 122,
      "chip": "ym2612"
    },
    {
      "channel": 0,
      "note": 62,
      "start": 23.1239,
      "duration": 0.3302,
      "velocity": 95,
      "chip": "ym2612"
    },
    {
      "channel": 4,
      "note": 73,
      "start": 23.1268,
      "duration": 0.1441,
      "velocity": 122,
      "chip": "ym2612"
    },
    {
      "channel": 5,
      "note": 69,
      "start": 23.1301,
      "duration": 0.141,
      "velocity": 122,
      "chip": "ym2612"
    },
    {
      "channel": 4,
      "note": 74,
      "start": 23.3074,
      "duration": 0.1468,
      "velocity": 122,
      "chip": "ym2612"
    },
    {
      "channel": 5,
      "note": 71,
      "start": 23.3103,
      "duration": 0.1441,
      "velocity": 122,
      "chip": "ym2612"
    },
    {
      "channel": 0,
      "note": 66,
      "start": 23.49,
      "duration": 0.314,
      "velocity": 95,
      "chip": "ym2612"
    },
    {
      "channel": 4,
      "note": 73,
      "start": 23.493,
      "duration": 0.1279,
      "velocity": 122,
      "chip": "ym2612"
    },
    {
      "channel": 5,
      "note": 73,
      "start": 23.4959,
      "duration": 0.1251,
      "velocity": 122,
      "chip": "ym2612"
    },
    {
      "channel": 4,
      "note": 74,
      "start": 23.6574,
      "duration": 0.1468,
      "velocity": 122,
      "chip": "ym2612"
    },
    {
      "channel": 5,
      "note": 74,
      "start": 23.6604,
      "duration": 0.1439,
      "velocity": 122,
      "chip": "ym2612"
    },
    {
      "channel": 0,
      "note": 67,
      "start": 23.8401,
      "duration": 0.3139,
      "velocity": 95,
      "chip": "ym2612"
    },
    {
      "channel": 4,
      "note": 71,
      "start": 23.8431,
      "duration": 0.1277,
      "velocity": 122,
      "chip": "ym2612"
    },
    {
      "channel": 5,
      "note": 73,
      "start": 23.846,
      "duration": 0.1251,
      "velocity": 122,
      "chip": "ym2612"
    },
    {
      "channel": 4,
      "note": 73,
      "start": 24.0075,
      "duration": 0.1468,
      "velocity": 122,
      "chip": "ym2612"
    },
    {
      "channel": 5,
      "note": 74,
      "start": 24.0104,
      "duration": 0.1439,
      "velocity": 122,
      "chip": "ym2612"
    },
    {
      "channel": 0,
      "note": 64,
      "start": 24.1901,
      "duration": 0.3139,
      "velocity": 95,
      "chip": "ym2612"
    },
    {
      "channel": 4,
      "note": 71,
      "start": 24.1931,
      "duration": 0.1277,
      "velocity": 122,
      "chip": "ym2612"
    },
    {
      "channel": 5,
      "note": 71,
      "start": 24.1961,
      "duration": 0.1249,
      "velocity": 122,
      "chip": "ym2612"
    },
    {
      "channel": 4,
      "note": 73,
      "start": 24.3575,
      "duration": 0.1467,
      "velocity": 122,
      "chip": "ym2612"
    },
    {
      "channel": 5,
      "note": 73,
      "start": 24.3604,
      "duration": 0.1439,
      "velocity": 122,
      "chip": "ym2612"
    },
    {
      "channel": 0,
      "note": 66,
      "start": 24.5401,
      "duration": 0.3139,
      "velocity": 95,
      "chip": "ym2612"
    },
    {
      "channel": 4,
      "note": 69,
      "start": 24.5431,
      "duration": 0.1277,
      "velocity": 122,
      "chip": "ym2612"
    },
    {
      "channel": 5,
      "note": 71,
      "start": 24.546,
      "duration": 0.1251,
      "velocity": 122,
      "chip": "ym2612"
    },
    {
      "channel": 4,
      "note": 71,
      "start": 24.7075,
      "duration": 0.1468,
      "velocity": 122,
      "chip": "ym2612"
    },
    {
      "channel": 5,
      "note": 73,
      "start": 24.7104,
      "duration": 0.144,
      "velocity": 122,
      "chip": "ym2612"
    },
    {
      "channel": 0,
      "note": 57,
      "start": 24.8901,
      "duration": 0.3139,
      "velocity": 95,
      "chip": "ym2612"
    },
    {
      "channel": 4,
      "note": 69,
      "start": 24.8931,
      "duration": 0.1278,
      "velocity": 122,
      "chip": "ym2612"
    },
    {
      "channel": 5,
      "note": 69,
      "start": 24.8959,
      "duration": 0.1251,
      "velocity": 122,
      "chip": "ym2612"
    },
    {
      "channel": 4,
      "note": 71,
      "start": 25.0574,
      "duration": 0.1468,
      "velocity": 122,
      "chip": "ym2612"
    },
    {
      "channel": 5,
      "note": 71,
      "start": 25.0604,
      "duration": 0.1439,
      "velocity": 122,
      "chip": "ym2612"
    },
    {
      "channel": 0,
      "note": 50,
      "start": 25.2401,
      "duration": 0.3139,
      "velocity": 95,
      "chip": "ym2612"
    },
    {
      "channel": 4,
      "note": 69,
      "start": 25.2431,
      "duration": 0.1445,
      "velocity": 122,
      "chip": "ym2612"
    },
    {
      "channel": 5,
      "note": 69,
      "start": 25.246,
      "duration": 0.1417,
      "velocity": 122,
      "chip": "ym2612"
    },
    {
      "channel": 4,
      "note": 71,
      "start": 25.4079,
      "duration": 0.1463,
      "velocity": 122,
      "chip": "ym2612"
    },
    {
      "channel": 5,
      "note": 71,
      "start": 25.4107,
      "duration": 0.1436,
      "velocity": 122,
      "chip": "ym2612"
    },
    {
      "channel": 0,
      "note": 57,
      "start": 25.5901,
      "duration": 0.3139,
      "velocity": 95,
      "chip": "ym2612"
    },
    {
      "channel": 4,
      "note": 69,
      "start": 25.5931,
      "duration": 0.1445,
      "velocity": 122,
      "chip": "ym2612"
    },
    {
      "channel": 5,
      "note": 69,
      "start": 25.596,
      "duration": 0.1417,
      "velocity": 122,
      "chip": "ym2612"
    },
    {
      "channel": 4,
      "note": 71,
      "start": 25.7575,
      "duration": 0.1468,
      "velocity": 122,
      "chip": "ym2612"
    },
    {
      "channel": 5,
      "note": 71,
      "start": 25.7604,
      "duration": 0.144,
      "velocity": 122,
      "chip": "ym2612"
    },
    {
      "channel": 0,
      "note": 62,
      "start": 25.9401,
      "duration": 0.3139,
      "velocity": 95,
      "chip": "ym2612"
    },
    {
      "channel": 4,
      "note": 67,
      "start": 25.9431,
      "duration": 0.1445,
      "velocity": 122,
      "chip": "ym2612"
    },
    {
      "channel": 5,
      "note": 69,
      "start": 25.9463,
      "duration": 0.1413,
      "velocity": 122,
      "chip": "ym2612"
    },
    {
      "channel": 4,
      "note": 69,
      "start": 26.1075,
      "duration": 0.1468,
      "velocity": 122,
      "chip": "ym2612"
    },
    {
      "channel": 5,
      "note": 71,
      "start": 26.1104,
      "duration": 0.144,
      "velocity": 122,
      "chip": "ym2612"
    },
    {
      "channel": 0,
      "note": 66,
      "start": 26.2901,
      "duration": 0.3139,
      "velocity": 95,
      "chip": "ym2612"
    },
    {
      "channel": 4,
      "note": 67,
      "start": 26.2931,
      "duration": 0.1444,
      "velocity": 122,
      "chip": "ym2612"
    },
    {
      "channel": 5,
      "note": 67,
      "start": 26.2961,
      "duration": 0.1416,
      "velocity": 122,
      "chip": "ym2612"
    },
    {
      "channel": 4,
      "note": 69,
      "start": 26.4575,
      "duration": 0.1467,
      "velocity": 122,
      "chip": "ym2612"
    },
    {
      "channel": 5,
      "note": 69,
      "start": 26.4604,
      "duration": 0.1439,
      "velocity": 122,
      "chip": "ym2612"
    },
    {
      "channel": 0,
      "note": 67,
      "start": 26.6401,
      "duration": 0.314,
      "velocity": 95,
      "chip": "ym2612"
    },
    {
      "channel": 4,
      "note": 66,
      "start": 26.6431,
      "duration": 0.1445,
      "velocity": 122,
      "chip": "ym2612"
    },
    {
      "channel": 5,
      "note": 67,
      "start": 26.646,
      "duration": 0.1417,
      "velocity": 122,
      "chip": "ym2612"
    },
    {
      "channel": 4,
      "note": 67,
      "start": 26.8075,
      "duration": 0.1468,
      "velocity": 122,
      "chip": "ym2612"
    },
    {
      "channel": 5,
      "note": 69,
      "start": 26.8104,
      "duration": 0.144,
      "velocity": 122,
      "chip": "ym2612"
    },
    {
      "channel": 0,
      "note": 64,
      "start": 26.9901,
      "duration": 0.314,
      "velocity": 95,
      "chip": "ym2612"
    },
    {
      "channel": 4,
      "note": 66,
      "start": 26.9931,
      "duration": 0.1445,
      "velocity": 122,
      "chip": "ym2612"
    },
    {
      "channel": 5,
      "note": 66,
      "start": 26.9959,
      "duration": 0.1418,
      "velocity": 122,
      "chip": "ym2612"
    },
    {
      "channel": 4,
      "note": 67,
      "start": 27.1576,
      "duration": 0.1467,
      "velocity": 122,
      "chip": "ym2612"
    },
    {
      "channel": 5,
      "note": 67,
      "start": 27.1604,
      "duration": 0.144,
      "velocity": 122,
      "chip": "ym2612"
    },
    {
      "channel": 0,
      "note": 66,
      "start": 27.3403,
      "duration": 0.6637,
      "velocity": 95,
      "chip": "ym2612"
    },
    {
      "channel": 4,
      "note": 64,
      "start": 27.3433,
      "duration": 0.1443,
      "velocity": 122,
      "chip": "ym2612"
    },
    {
      "channel": 5,
      "note": 66,
      "start": 27.3462,
      "duration": 0.1415,
      "velocity": 122,
      "chip": "ym2612"
    },
    {
      "channel": 4,
      "note": 66,
      "start": 27.5242,
      "duration": 0.13,
      "velocity": 122,
      "chip": "ym2612"
    },
    {
      "channel": 5,
      "note": 67,
      "start": 27.5271,
      "duration": 0.1273,
      "velocity": 122,
      "chip": "ym2612"
    },
    {
      "channel": 4,
      "note": 64,
      "start": 27.6909,
      "duration": 0.1465,
      "velocity": 122,
      "chip": "ym2612"
    },
    {
      "channel": 5,
      "note": 64,
      "start": 27.6938,
      "duration": 0.1438,
      "velocity": 122,
      "chip": "ym2612"
    },
    {
      "channel": 4,
      "note": 66,
      "start": 27.8741,
      "duration": 0.1302,
      "velocity": 122,
      "chip": "ym2612"
    },
    {
      "channel": 5,
      "note": 66,
      "start": 27.877,
      "duration": 0.1274,
      "velocity": 122,
      "chip": "ym2612"
    },
    {
      "channel": 0,
      "note": 50,
      "start": 28.0407,
      "duration": 0.3133,
      "velocity": 95,
      "chip": "ym2612"
    },
    {
      "channel": 4,
      "note": 69,
      "start": 28.0437,
      "duration": 0.1439,
      "velocity": 122,
      "chip": "ym2612"
    },
    {
      "channel": 5,
      "note": 64,
      "start": 28.0466,
      "duration": 0.1411,
      "velocity": 122,
      "chip": "ym2612"
    },
    {
      "channel": 4,
      "note": 71,
      "start": 28.2246,
      "duration": 0.1297,
      "velocity": 122,
      "chip": "ym2612"
    },
    {
      "channel": 5,
      "note": 66,
      "start": 28.2275,
      "duration": 0.1269,
      "velocity": 122,
      "chip": "ym2612"
    },
    {
      "channel": 0,
      "note": 57,
      "start": 28.3901,
      "duration": 0.314,
      "velocity": 95,
      "chip": "ym2612"
    },
    {
      "channel": 4,
      "note": 69,
      "start": 28.3931,
      "duration": 0.1445,
      "velocity": 122,
      "chip": "ym2612"
    },
    {
      "channel": 5,
      "note": 69,
      "start": 28.3961,
      "duration": 0.1417,
      "velocity": 122,
      "chip": "ym2612"
    },
    {
      "channel": 4,
      "note": 71,
      "start": 28.5741,
      "duration": 0.1302,
      "velocity": 122,
      "chip": "ym2612"
    },
    {
      "channel": 5,
      "note": 71,
      "start": 28.577,
      "duration": 0.1275,
      "velocity": 122,
      "chip": "ym2612"
    },
    {
      "channel": 0,
      "note": 62,
      "start": 28.7401,
      "duration": 0.3139,
      "velocity": 95,
      "chip": "ym2612"
    },
    {
      "channel": 4,
      "note": 73,
      "start": 28.7431,
      "duration": 0.1445,
      "velocity": 122,
      "chip": "ym2612"
    },
    {
      "channel": 5,
      "note": 69,
      "start": 28.7463,
      "duration": 0.1413,
      "velocity": 122,
      "chip": "ym2612"
    },
    {
      "channel": 4,
      "note": 74,
      "start": 28.9242,
      "duration": 0.1301,
      "velocity": 122,
      "chip": "ym2612"
    },
    {
      "channel": 5,
      "note": 71,
      "start": 28.927,
      "duration": 0.1273,
      "velocity": 122,
      "chip": "ym2612"
    },
    {
      "channel": 0,
      "note": 66,
      "start": 29.0901,
      "duration": 0.314,
      "velocity": 95,
      "chip": "ym2612"
    },
    {
      "channel": 4,
      "note": 73,
      "start": 29.0931,
      "duration": 0.1445,
      "velocity": 122,
      "chip": "ym2612"
    },
    {
      "channel": 5,
      "note": 73,
      "start": 29.0961,
      "duration": 0.1417,
      "velocity": 122,
      "chip": "ym2612"
    },
    {
      "channel": 4,
      "note": 74,
      "start": 29.2742,
      "duration": 0.1301,
      "velocity": 122,
      "chip": "ym2612"
    },
    {
      "channel": 5,
      "note": 74,
      "start": 29.2771,
      "duration": 0.1273,
      "velocity": 122,
      "chip": "ym2612"
    },
    {
      "channel": 0,
      "note": 67,
      "start": 29.4401,
      "duration": 0.3307,
      "velocity": 95,
      "chip": "ym2612"
    },
    {
      "channel": 4,
      "note": 71,
      "start": 29.4431,
      "duration": 0.1445,
      "velocity": 122,
      "chip": "ym2612"
    },
    {
      "channel": 5,
      "note": 73,
      "start": 29.446,
      "duration": 0.1417,
      "velocity": 122,
      "chip": "ym2612"
    },
    {
      "channel": 4,
      "note": 73,
      "start": 29.6241,
      "duration": 0.1468,
      "velocity": 122,
      "chip": "ym2612"
    },
    {
      "channel": 5,
      "note": 74,
      "start": 29.627,
      "duration": 0.1441,
      "velocity": 122,
      "chip": "ym2612"
    },
    {
      "channel": 0,
      "note": 64,
      "start": 29.79,
      "duration": 0.3307,
      "velocity": 95,
      "chip": "ym2612"
    },
    {
      "channel": 4,
      "note": 71,
      "start": 29.793,
      "duration": 0.1446,
      "velocity": 122,
      "chip": "ym2612"
    },
    {
      "channel": 5,
      "note": 71,
      "start": 29.7959,
      "duration": 0.1418,
      "velocity": 122,
      "chip": "ym2612"
    },
    {
      "channel": 4,
      "note": 73,
      "start": 29.9742,
      "duration": 0.1467,
      "velocity": 122,
      "chip": "ym2612"
    },
    {
      "channel": 5,
      "note": 73,
      "start": 29.9771,
      "duration": 0.1439,
      "velocity": 122,
      "chip": "ym2612"
    },
    {
      "channel": 0,
      "note": 66,
      "start": 30.1401,
      "duration": 0.3306,
      "velocity": 95,
      "chip": "ym2612"
    },
    {
      "channel": 4,
      "note": 69,
      "start": 30.1431,
      "duration": 0.1445,
      "velocity": 122,
      "chip": "ym2612"
    },
    {
      "channel": 5,
      "note": 71,
      "start": 30.146,
      "duration": 0.1417,
      "velocity": 122,
      "chip": "ym2612"
    },
    {
      "channel": 4,
      "note": 71,
      "start": 30.3242,
      "duration": 0.1467,
      "velocity": 122,
      "chip": "ym2612"
    },
    {
      "channel": 5,
      "note": 73,
      "start": 30.3271,
      "duration": 0.1439,
      "velocity": 122,
      "chip": "ym2612"
    },
    {
      "channel": 0,
      "note": 57,
      "start": 30.4901,
      "duration": 0.3307,
      "velocity": 95,
      "chip": "ym2612"
    },
    {
      "channel": 4,
      "note": 69,
      "start": 30.4931,
      "duration": 0.1444,
      "velocity": 122,
      "chip": "ym2612"
    },
    {
      "channel": 5,
      "note": 69,
      "start": 30.4959,
      "duration": 0.1417,
      "velocity": 122,
      "chip": "ym2612"
    },
    {
      "channel": 4,
      "note": 71,
      "start": 30.6741,
      "duration": 0.1468,
      "velocity": 122,
      "chip": "ym2612"
    },
    {
      "channel": 5,
      "note": 71,
      "start": 30.677,
      "duration": 0.1441,
      "velocity": 122,
      "chip": "ym2612"
    },
    {
      "channel": 0,
      "note": 50,
      "start": 30.84,
      "duration": 0.3307,
      "velocity": 95,
      "chip": "ym2612"
    },
    {
      "channel": 4,
      "note": 69,
      "start": 30.843,
      "duration": 0.1445,
      "velocity": 122,
      "chip": "ym2612"
    },
    {
      "channel": 5,
      "note": 69,
      "start": 30.8459,
      "duration": 0.1417,
      "velocity": 122,
      "chip": "ym2612"
    },
    {
      "channel": 4,
      "note": 71,
      "start": 31.0245,
      "duration": 0.1464,
      "velocity": 122,
      "chip": "ym2612"
    },
    {
      "channel": 5,
      "note": 71,
      "start": 31.0274,
      "duration": 0.1437,
      "velocity": 122,
      "chip": "ym2612"
    },
    {
      "channel": 0,
      "note": 57,
      "start": 31.19,
      "duration": 0.3307,
      "velocity": 95,
      "chip": "ym2612"
    },
    {
      "channel": 4,
      "note": 69,
      "start": 31.193,
      "duration": 0.1445,
      "velocity": 122,
      "chip": "ym2612"
    },
    {
      "channel": 5,
      "note": 69,
      "start": 31.1959,
      "duration": 0.1417,
      "velocity": 122,
      "chip": "ym2612"
    },
    {
      "channel": 4,
      "note": 71,
      "start": 31.3741,
      "duration": 0.1468,
      "velocity": 122,
      "chip": "ym2612"
    },
    {
      "channel": 5,
      "note": 71,
      "start": 31.377,
      "duration": 0.1441,
      "velocity": 122,
      "chip": "ym2612"
    },
    {
      "channel": 0,
      "note": 62,
      "start": 31.54,
      "duration": 0.3307,
      "velocity": 95,
      "chip": "ym2612"
    },
    {
      "channel": 4,
      "note": 67,
      "start": 31.543,
      "duration": 0.1445,
      "velocity": 122,
      "chip": "ym2612"
    },
    {
      "channel": 5,
      "note": 69,
      "start": 31.5463,
      "duration": 0.1413,
      "velocity": 122,
      "chip": "ym2612"
    },
    {
      "channel": 4,
      "note": 69,
      "start": 31.7242,
      "duration": 0.1466,
      "velocity": 122,
      "chip": "ym2612"
    },
    {
      "channel": 5,
      "note": 71,
      "start": 31.7271,
      "duration": 0.1439,
      "velocity": 122,
      "chip": "ym2612"
    },
    {
      "channel": 0,
      "note": 66,
      "start": 31.9068,
      "duration": 0.3139,
      "velocity": 95,
      "chip": "ym2612"
    },
    {
      "channel": 4,
      "note": 67,
      "start": 31.9098,
      "duration": 0.1277,
      "velocity": 122,
      "chip": "ym2612"
    },
    {
      "channel": 5,
      "note": 67,
      "start": 31.9127,
      "duration": 0.1251,
      "velocity": 122,
      "chip": "ym2612"
    },
    {
      "channel": 4,
      "note": 69,
      "start": 32.0742,
      "duration": 0.1467,
      "velocity": 122,
      "chip": "ym2612"
    },
    {
      "channel": 5,
      "note": 69,
      "start": 32.0771,
      "duration": 0.144,
      "velocity": 122,
      "chip": "ym2612"
    },
    {
      "channel": 0,
      "note": 67,
      "start": 32.2567,
      "duration": 0.314,
      "velocity": 95,
      "chip": "ym2612"
    },
    {
      "channel": 4,
      "note": 66,
      "start": 32.2597,
      "duration": 0.1278,
      "velocity": 122,
      "chip": "ym2612"
    },
    {
      "channel": 5,
      "note": 67,
      "start": 32.2626,
      "duration": 0.1251,
      "velocity": 122,
      "chip": "ym2612"
    },
    {
      "channel": 4,
      "note": 67,
      "start": 32.4242,
      "duration": 0.1467,
      "velocity": 122,
      "chip": "ym2612"
    },
    {
      "channel": 5,
      "note": 69,
      "start": 32.4271,
      "duration": 0.144,
      "velocity": 122,
      "chip": "ym2612"
    },
    {
      "channel": 0,
      "note": 64,
      "start": 32.6067,
      "duration": 0.314,
      "velocity": 95,
      "chip": "ym2612"
    },
    {
      "channel": 4,
      "note": 66,
      "start": 32.6097,
      "duration": 0.1278,
      "velocity": 122,
      "chip": "ym2612"
    },
    {
      "channel": 5,
      "note": 66,
      "start": 32.6126,
      "duration": 0.1251,
      "velocity": 122,
      "chip": "ym2612"
    },
    {
      "channel": 4,
      "note": 67,
      "start": 32.7742,
      "duration": 0.1467,
      "velocity": 122,
      "chip": "ym2612"
    },
    {
      "channel": 5,
      "note": 67,
      "start": 32.7771,
      "duration": 0.144,
      "velocity": 122,
      "chip": "ym2612"
    },
    {
      "channel": 0,
      "note": 66,
      "start": 32.9574,
      "duration": 0.6632,
      "velocity": 95,
      "chip": "ym2612"
    },
    {
      "channel": 4,
      "note": 64,
      "start": 32.9604,
      "duration": 0.1272,
      "velocity": 122,
      "chip": "ym2612"
    },
    {
      "channel": 5,
      "note": 66,
      "start": 32.9633,
      "duration": 0.1244,
      "velocity": 122,
      "chip": "ym2612"
    },
    {
      "channel": 4,
      "note": 66,
      "start": 33.1242,
      "duration": 0.1466,
      "velocity": 122,
      "chip": "ym2612"
    },
    {
      "channel": 5,
      "note": 67,
      "start": 33.1271,
      "duration": 0.1439,
      "velocity": 122,
      "chip": "ym2612"
    },
    {
      "channel": 4,
      "note": 64,
      "start": 33.3075,
      "duration": 0.13,
      "velocity": 122,
      "chip": "ym2612"
    },
    {
      "channel": 5,
      "note": 64,
      "start": 33.3104,
      "duration": 0.1272,
      "velocity": 122,
      "chip": "ym2612"
    },
    {
      "channel": 4,
      "note": 66,
      "start": 33.474,
      "duration": 0.1468,
      "velocity": 122,
      "chip": "ym2612"
    },
    {
      "channel": 5,
      "note": 66,
      "start": 33.4769,
      "duration": 0.1441,
      "velocity": 122,
      "chip": "ym2612"
    },
    {
      "channel": 0,
      "note": 50,
      "start": 33.6575,
      "duration": 0.3132,
      "velocity": 95,
      "chip": "ym2612"
    },
    {
      "channel": 4,
      "note": 69,
      "start": 33.6628,
      "duration": 0.1248,
      "velocity": 122,
      "chip": "ym2612"
    },
    {
      "channel": 5,
      "note": 64,
      "start": 33.667,
      "duration": 0.1208,
      "velocity": 122,
      "chip": "ym2612"
    },
    {
      "channel": 1,
      "note": 57,
      "start": 33.6721,
      "duration": 0.1154,
      "velocity": 118,
      "chip": "ym2612"
    },
    {
      "channel": 4,
      "note": 71,
      "start": 33.8242,
      "duration": 0.1468,
      "velocity": 122,
      "chip": "ym2612"
    },
    {
      "channel": 5,
      "note": 66,
      "start": 33.8271,
      "duration": 0.144,
      "velocity": 122,
      "chip": "ym2612"
    },
    {
      "channel": 0,
      "note": 57,
      "start": 34.0069,
      "duration": 0.3139,
      "velocity": 95,
      "chip": "ym2612"
    },
    {
      "channel": 4,
      "note": 69,
      "start": 34.0099,
      "duration": 0.1443,
      "velocity": 122,
      "chip": "ym2612"
    },
    {
      "channel": 5,
      "note": 69,
      "start": 34.0128,
      "duration": 0.1416,
      "velocity": 122,
      "chip": "ym2612"
    },
    {
      "channel": 4,
      "note": 71,
      "start": 34.1742,
      "duration": 0.1467,
      "velocity": 122,
      "chip": "ym2612"
    },
    {
      "channel": 5,
      "note": 71,
      "start": 34.1771,
      "duration": 0.144,
      "velocity": 122,
      "chip": "ym2612"
    },
    {
      "channel": 0,
      "note": 62,
      "start": 34.3567,
      "duration": 0.3141,
      "velocity": 95,
      "chip": "ym2612"
    },
    {
      "channel": 4,
      "note": 73,
      "start": 34.3598,
      "duration": 0.1445,
      "velocity": 122,
      "chip": "ym2612"
    },
    {
      "channel": 5,
      "note": 69,
      "start": 34.3627,
      "duration": 0.1417,
      "velocity": 122,
      "chip": "ym2612"
    },
    {
      "channel": 3,
      "note": 69,
      "start": 34.3662,
      "duration": 0.1379,
      "velocity": 127,
      "chip": "ym2612"
    },
    {
      "channel": 4,
      "note": 74,
      "start": 34.5242,
      "duration": 0.1467,
      "velocity": 122,
      "chip": "ym2612"
    },
    {
      "channel": 5,
      "note": 71,
      "start": 34.5271,
      "duration": 0.1441,
      "velocity": 122,
      "chip": "ym2612"
    },
    {
      "channel": 0,
      "note": 66,
      "start": 34.7067,
      "duration": 0.314,
      "velocity": 95,
      "chip": "ym2612"
    },
    {
      "channel": 4,
      "note": 73,
      "start": 34.7097,
      "duration": 0.1445,
      "velocity": 122,
      "chip": "ym2612"
    },
    {
      "channel": 5,
      "note": 73,
      "start": 34.7127,
      "duration": 0.1417,
      "velocity": 122,
      "chip": "ym2612"
    },
    {
      "channel": 4,
      "note": 74,
      "start": 34.8742,
      "duration": 0.1468,
      "velocity": 122,
      "chip": "ym2612"
    },
    {
      "channel": 5,
      "note": 74,
      "start": 34.877,
      "duration": 0.1441,
      "velocity": 122,
      "chip": "ym2612"
    },
    {
      "channel": 0,
      "note": 67,
      "start": 35.0569,
      "duration": 0.3139,
      "velocity": 95,
      "chip": "ym2612"
    },
    {
      "channel": 4,
      "note": 71,
      "start": 35.0599,
      "duration": 0.1443,
      "velocity": 122,
      "chip": "ym2612"
    },
    {
      "channel": 5,
      "note": 73,
      "start": 35.0627,
      "duration": 0.1416,
      "velocity": 122,
      "chip": "ym2612"
    },
    {
      "channel": 4,
      "note": 73,
      "start": 35.2242,
      "duration": 0.1468,
      "velocity": 122,
      "chip": "ym2612"
    },
    {
      "channel": 5,
      "note": 74,
      "start": 35.227,
      "duration": 0.1441,
      "velocity": 122,
      "chip": "ym2612"
    },
    {
      "channel": 0,
      "note": 64,
      "start": 35.4069,
      "duration": 0.3139,
      "velocity": 95,
      "chip": "ym2612"
    },
    {
      "channel": 4,
      "note": 71,
      "start": 35.4099,
      "duration": 0.1443,
      "velocity": 122,
      "chip": "ym2612"
    },
    {
      "channel": 5,
      "note": 71,
      "start": 35.4127,
      "duration": 0.1416,
      "velocity": 122,
      "chip": "ym2612"
    },
    {
      "channel": 4,
      "note": 73,
      "start": 35.5746,
      "duration": 0.1464,
      "velocity": 122,
      "chip": "ym2612"
    },
    {
      "channel": 5,
      "note": 73,
      "start": 35.5774,
      "duration": 0.1436,
      "velocity": 122,
      "chip": "ym2612"
    },
    {
      "channel": 0,
      "note": 66,
      "start": 35.7568,
      "duration": 0.3139,
      "velocity": 95,
      "chip": "ym2612"
    },
    {
      "channel": 4,
      "note": 69,
      "start": 35.7598,
      "duration": 0.1444,
      "velocity": 122,
      "chip": "ym2612"
    },
    {
      "channel": 5,
      "note": 71,
      "start": 35.7627,
      "duration": 0.1416,
      "velocity": 122,
      "chip": "ym2612"
    },
    {
      "channel": 4,
      "note": 71,
      "start": 35.9242,
      "duration": 0.1468,
      "velocity": 122,
      "chip": "ym2612"
    },
    {
      "channel": 5,
      "note": 73,
      "start": 35.927,
      "duration": 0.144,
      "velocity": 122,
      "chip": "ym2612"
    },
    {
      "channel": 0,
      "note": 57,
      "start": 36.1068,
      "duration": 0.314,
      "velocity": 95,
      "chip": "ym2612"
    },
    {
      "channel": 4,
      "note": 69,
      "start": 36.1098,
      "duration": 0.1445,
      "velocity": 122,
      "chip": "ym2612"
    },
    {
      "channel": 5,
      "note": 69,
      "start": 36.1131,
      "duration": 0.1413,
      "velocity": 122,
      "chip": "ym2612"
    },
    {
      "channel": 4,
      "note": 71,
      "start": 36.2908,
      "duration": 0.1302,
      "velocity": 122,
      "chip": "ym2612"
    },
    {
      "channel": 5,
      "note": 71,
      "start": 36.2938,
      "duration": 0.1274,
      "velocity": 122,
      "chip": "ym2612"
    },
    {
      "channel": 0,
      "note": 50,
      "start": 36.4571,
      "duration": 0.3136,
      "velocity": 95,
      "chip": "ym2612"
    },
    {
      "channel": 4,
      "note": 69,
      "start": 36.4601,
      "duration": 0.1443,
      "velocity": 122,
      "chip": "ym2612"
    },
    {
      "channel": 5,
      "note": 69,
      "start": 36.463,
      "duration": 0.1415,
      "velocity": 122,
      "chip": "ym2612"
    },
    {
      "channel": 1,
      "note": 57,
      "start": 36.4654,
      "duration": 0.1388,
      "velocity": 118,
      "chip": "ym2612"
    },
    {
      "channel": 4,
      "note": 71,
      "start": 36.6409,
      "duration": 0.1301,
      "velocity": 122,
      "chip": "ym2612"
    },
    {
      "channel": 5,
      "note": 71,
      "start": 36.6438,
      "duration": 0.1273,
      "velocity": 122,
      "chip": "ym2612"
    },
    {
      "channel": 0,
      "note": 57,
      "start": 36.8069,
      "duration": 0.3139,
      "velocity": 95,
      "chip": "ym2612"
    },
    {
      "channel": 4,
      "note": 69,
      "start": 36.8099,
      "duration": 0.1443,
      "velocity": 122,
      "chip": "ym2612"
    },
    {
      "channel": 5,
      "note": 69,
      "start": 36.8128,
      "duration": 0.1415,
      "velocity": 122,
      "chip": "ym2612"
    },
    {
      "channel": 4,
      "note": 71,
      "start": 36.9909,
      "duration": 0.1301,
      "velocity": 122,
      "chip": "ym2612"
    },
    {
      "channel": 5,
      "note": 71,
      "start": 36.9938,
      "duration": 0.1274,
      "velocity": 122,
      "chip": "ym2612"
    },
    {
      "channel": 0,
      "note": 62,
      "start": 37.1567,
      "duration": 0.3141,
      "velocity": 95,
      "chip": "ym2612"
    },
    {
      "channel": 4,
      "note": 67,
      "start": 37.1598,
      "duration": 0.1445,
      "velocity": 122,
      "chip": "ym2612"
    },
    {
      "channel": 5,
      "note": 69,
      "start": 37.1627,
      "duration": 0.1418,
      "velocity": 122,
      "chip": "ym2612"
    },
    {
      "channel": 3,
      "note": 69,
      "start": 37.1653,
      "duration": 0.1389,
      "velocity": 127,
      "chip": "ym2612"
    },
    {
      "channel": 4,
      "note": 69,
      "start": 37.3408,
      "duration": 0.1302,
      "velocity": 122,
      "chip": "ym2612"
    },
    {
      "channel": 5,
      "note": 71,
      "start": 37.3438,
      "duration": 0.1274,
      "velocity": 122,
      "chip": "ym2612"
    },
    {
      "channel": 0,
      "note": 66,
      "start": 37.5069,
      "duration": 0.3139,
      "velocity": 95,
      "chip": "ym2612"
    },
    {
      "channel": 4,
      "note": 67,
      "start": 37.5099,
      "duration": 0.1443,
      "velocity": 122,
      "chip": "ym2612"
    },
    {
      "channel": 5,
      "note": 67,
      "start": 37.5128,
      "duration": 0.1415,
      "velocity": 122,
      "chip": "ym2612"
    },
    {
      "channel": 4,
      "note": 69,
      "start": 37.6908,
      "duration": 0.1302,
      "velocity": 122,
      "chip": "ym2612"
    },
    {
      "channel": 5,
      "note": 69,
      "start": 37.6938,
      "duration": 0.1274,
      "velocity": 122,
      "chip": "ym2612"
    },
    {
      "channel": 0,
      "note": 67,
      "start": 37.8567,
      "duration": 0.3307,
      "velocity": 95,
      "chip": "ym2612"
    },
    {
      "channel": 4,
      "note": 66,
      "start": 37.8597,
      "duration": 0.1445,
      "velocity": 122,
      "chip": "ym2612"
    },
    {
      "channel": 5,
      "note": 67,
      "start": 37.8627,
      "duration": 0.1417,
      "velocity": 122,
      "chip": "ym2612"
    },
    {
      "channel": 4,
      "note": 67,
      "start": 38.0408,
      "duration": 0.1468,
      "velocity": 122,
      "chip": "ym2612"
    },
    {
      "channel": 5,
      "note": 69,
      "start": 38.0438,
      "duration": 0.1439,
      "velocity": 122,
      "chip": "ym2612"
    },
    {
      "channel": 0,
      "note": 64,
      "start": 38.2069,
      "duration": 0.3305,
      "velocity": 95,
      "chip": "ym2612"
    },
    {
      "channel": 4,
      "note": 66,
      "start": 38.2099,
      "duration": 0.1444,
      "velocity": 122,
      "chip": "ym2612"
    },
    {
      "channel": 5,
      "note": 66,
      "start": 38.2127,
      "duration": 0.1417,
      "velocity": 122,
      "chip": "ym2612"
    },
    {
      "channel": 4,
      "note": 67,
      "start": 38.3912,
      "duration": 0.1464,
      "velocity": 122,
      "chip": "ym2612"
    },
    {
      "channel": 5,
      "note": 67,
      "start": 38.3941,
      "duration": 0.1436,
      "velocity": 122,
      "chip": "ym2612"
    },
    {
      "channel": 0,
      "note": 66,
      "start": 38.5572,
      "duration": 0.6801,
      "velocity": 95,
      "chip": "ym2612"
    },
    {
      "channel": 4,
      "note": 64,
      "start": 38.5602,
      "duration": 0.144,
      "velocity": 122,
      "chip": "ym2612"
    },
    {
      "channel": 5,
      "note": 66,
      "start": 38.563,
      "duration": 0.1413,
      "velocity": 122,
      "chip": "ym2612"
    },
    {
      "channel": 4,
      "note": 66,
      "start": 38.7408,
      "duration": 0.1467,
      "velocity": 122,
      "chip": "ym2612"
    },
    {
      "channel": 5,
      "note": 67,
      "start": 38.7438,
      "duration": 0.1439,
      "velocity": 122,
      "chip": "ym2612"
    },
    {
      "channel": 4,
      "note": 64,
      "start": 38.9075,
      "duration": 0.1466,
      "velocity": 122,
      "chip": "ym2612"
    },
    {
      "channel": 5,
      "note": 64,
      "start": 38.9107,
      "duration": 0.1435,
      "velocity": 122,
      "chip": "ym2612"
    },
    {
      "channel": 4,
      "note": 66,
      "start": 39.0908,
      "duration": 0.1467,
      "velocity": 122,
      "chip": "ym2612"
    },
    {
      "channel": 5,
      "note": 66,
      "start": 39.0937,
      "duration": 0.1439,
      "velocity": 122,
      "chip": "ym2612"
    },
    {
      "channel": 0,
      "note": 50,
      "start": 39.257,
      "duration": 0.3305,
      "velocity": 95,
      "chip": "ym2612"
    },
    {
      "channel": 4,
      "note": 69,
      "start": 39.26,
      "duration": 0.1443,
      "velocity": 122,
      "chip": "ym2612"
    },
    {
      "channel": 5,
      "note": 64,
      "start": 39.2629,
      "duration": 0.1415,
      "velocity": 122,
      "chip": "ym2612"
    },
    {
      "channel": 1,
      "note": 57,
      "start": 39.2656,
      "duration": 0.1385,
      "velocity": 118,
      "chip": "ym2612"
    },
    {
      "channel": 4,
      "note": 71,
      "start": 39.4408,
      "duration": 0.1468,
      "velocity": 122,
      "chip": "ym2612"
    },
    {
      "channel": 5,
      "note": 66,
      "start": 39.4438,
      "duration": 0.1441,
      "velocity": 122,
      "chip": "ym2612"
    },
    {
      "channel": 0,
      "note": 57,
      "start": 39.6068,
      "duration": 0.3306,
      "velocity": 95,
      "chip": "ym2612"
    },
    {
      "channel": 4,
      "note": 69,
      "start": 39.6098,
      "duration": 0.1445,
      "velocity": 122,
      "chip": "ym2612"
    },
    {
      "channel": 5,
      "note": 69,
      "start": 39.6127,
      "duration": 0.1417,
      "velocity": 122,
      "chip": "ym2612"
    },
    {
      "channel": 4,
      "note": 71,
      "start": 39.7908,
      "duration": 0.1468,
      "velocity": 122,
      "chip": "ym2612"
    },
    {
      "channel": 5,
      "note": 71,
      "start": 39.7937,
      "duration": 0.144,
      "velocity": 122,
      "chip": "ym2612"
    },
    {
      "channel": 0,
      "note": 62,
      "start": 39.9569,
      "duration": 0.3306,
      "velocity": 95,
      "chip": "ym2612"
    },
    {
      "channel": 4,
      "note": 73,
      "start": 39.9599,
      "duration": 0.1445,
      "velocity": 122,
      "chip": "ym2612"
    },
    {
      "channel": 5,
      "note": 69,
      "start": 39.9627,
      "duration": 0.1418,
      "velocity": 122,
      "chip": "ym2612"
    },
    {
      "channel": 3,
      "note": 69,
      "start": 39.9653,
      "duration": 0.1389,
      "velocity": 127,
      "chip": "ym2612"
    },
    {
      "channel": 4,
      "note": 74,
      "start": 40.1409,
      "duration": 0.1467,
      "velocity": 122,
      "chip": "ym2612"
    },
    {
      "channel": 5,
      "note": 71,
      "start": 40.1438,
      "duration": 0.144,
      "velocity": 122,
      "chip": "ym2612"
    },
    {
      "channel": 0,
      "note": 66,
      "start": 40.3234,
      "duration": 0.314,
      "velocity": 95,
      "chip": "ym2612"
    },
    {
      "channel": 4,
      "note": 73,
      "start": 40.3264,
      "duration": 0.1278,
      "velocity": 122,
      "chip": "ym2612"
    },
    {
      "channel": 5,
      "note": 73,
      "start": 40.3293,
      "duration": 0.125,
      "velocity": 122,
      "chip": "ym2612"
    },
    {
      "channel": 4,
      "note": 74,
      "start": 40.4909,
      "duration": 0.1467,
      "velocity": 122,
      "chip": "ym2612"
    },
    {
      "channel": 5,
      "note": 74,
      "start": 40.4938,
      "duration": 0.1439,
      "velocity": 122,
      "chip": "ym2612"
    },
    {
      "channel": 0,
      "note": 67,
      "start": 40.6735,
      "duration": 0.3139,
      "velocity": 95,
      "chip": "ym2612"
    },
    {
      "channel": 4,
      "note": 71,
      "start": 40.6765,
      "duration": 0.1278,
      "velocity": 122,
      "chip": "ym2612"
    },
    {
      "channel": 5,
      "note": 73,
      "start": 40.6794,
      "duration": 0.125,
      "velocity": 122,
      "chip": "ym2612"
    },
    {
      "channel": 4,
      "note": 73,
      "start": 40.8408,
      "duration": 0.1469,
      "velocity": 122,
      "chip": "ym2612"
    },
    {
      "channel": 5,
      "note": 74,
      "start": 40.8437,
      "duration": 0.1441,
      "velocity": 122,
      "chip": "ym2612"
    },
    {
      "channel": 0,
      "note": 64,
      "start": 41.0239,
      "duration": 0.3135,
      "velocity": 95,
      "chip": "ym2612"
    },
    {
      "channel": 4,
      "note": 71,
      "start": 41.0269,
      "duration": 0.1274,
      "velocity": 122,
      "chip": "ym2612"
    },
    {
      "channel": 5,
      "note": 71,
      "start": 41.0298,
      "duration": 0.1246,
      "velocity": 122,
      "chip": "ym2612"
    },
    {
      "channel": 4,
      "note": 73,
      "start": 41.1912,
      "duration": 0.1464,
      "velocity": 122,
      "chip": "ym2612"
    },
    {
      "channel": 5,
      "note": 73,
      "start": 41.1941,
      "duration": 0.1436,
      "velocity": 122,
      "chip": "ym2612"
    },
    {
      "channel": 0,
      "note": 66,
      "start": 41.3735,
      "duration": 0.314,
      "velocity": 95,
      "chip": "ym2612"
    },
    {
      "channel": 4,
      "note": 69,
      "start": 41.3765,
      "duration": 0.1278,
      "velocity": 122,
      "chip": "ym2612"
    },
    {
      "channel": 5,
      "note": 71,
      "start": 41.3794,
      "duration": 0.1251,
      "velocity": 122,
      "chip": "ym2612"
    },
    {
      "channel": 4,
      "note": 71,
      "start": 41.5408,
      "duration": 0.1468,
      "velocity": 122,
      "chip": "ym2612"
    },
    {
      "channel": 5,
      "note": 73,
      "start": 41.5438,
      "duration": 0.1441,
      "velocity": 122,
      "chip": "ym2612"
    },
    {
      "channel": 0,
      "note": 57,
      "start": 41.7234,
      "duration": 0.3141,
      "velocity": 95,
      "chip": "ym2612"
    },
    {
      "channel": 4,
      "note": 69,
      "start": 41.7264,
      "duration": 0.1279,
      "velocity": 122,
      "chip": "ym2612"
    },
    {
      "channel": 5,
      "note": 69,
      "start": 41.7297,
      "duration": 0.1247,
      "velocity": 122,
      "chip": "ym2612"
    },
    {
      "channel": 4,
      "note": 71,
      "start": 41.8908,
      "duration": 0.1468,
      "velocity": 122,
      "chip": "ym2612"
    },
    {
      "channel": 5,
      "note": 71,
      "start": 41.8938,
      "duration": 0.1441,
      "velocity": 122,
      "chip": "ym2612"
    },
    {
      "channel": 0,
      "note": 50,
      "start": 42.0734,
      "duration": 0.314,
      "velocity": 95,
      "chip": "ym2612"
    },
    {
      "channel": 4,
      "note": 69,
      "start": 42.0764,
      "duration": 0.1278,
      "velocity": 122,
      "chip": "ym2612"
    },
    {
      "channel": 5,
      "note": 69,
      "start": 42.0793,
      "duration": 0.125,
      "velocity": 122,
      "chip": "ym2612"
    },
    {
      "channel": 4,
      "note": 71,
      "start": 42.2408,
      "duration": 0.1468,
      "velocity": 122,
      "chip": "ym2612"
    },
    {
      "channel": 5,
      "note": 71,
      "start": 42.2438,
      "duration": 0.144,
      "velocity": 122,
      "chip": "ym2612"
    },
    {
      "channel": 0,
      "note": 57,
      "start": 42.4235,
      "duration": 0.3139,
      "velocity": 95,
      "chip": "ym2612"
    },
    {
      "channel": 4,
      "note": 69,
      "start": 42.4265,
      "duration": 0.1443,
      "velocity": 122,
      "chip": "ym2612"
    },
    {
      "channel": 5,
      "note": 69,
      "start": 42.4294,
      "duration": 0.1416,
      "velocity": 122,
      "chip": "ym2612"
    },
    {
      "channel": 4,
      "note": 71,
      "start": 42.5908,
      "duration": 0.1468,
      "velocity": 122,
      "chip": "ym2612"
    },
    {
      "channel": 5,
      "note": 71,
      "start": 42.5937,
      "duration": 0.1441,
      "velocity": 122,
      "chip": "ym2612"
    },
    {
      "channel": 0,
      "note": 62,
      "start": 42.7735,
      "duration": 0.3139,
      "velocity": 95,
      "chip": "ym2612"
    },
    {
      "channel": 4,
      "note": 67,
      "start": 42.7765,
      "duration": 0.1444,
      "velocity": 122,
      "chip": "ym2612"
    },
    {
      "channel": 5,
      "note": 69,
      "start": 42.7794,
      "duration": 0.1417,
      "velocity": 122,
      "chip": "ym2612"
    },
    {
      "channel": 3,
      "note": 69,
      "start": 42.7821,
      "duration": 0.1388,
      "velocity": 127,
      "chip": "ym2612"
    },
    {
      "channel": 4,
      "note": 69,
      "start": 42.9408,
      "duration": 0.1468,
      "velocity": 122,
      "chip": "ym2612"
    },
    {
      "channel": 5,
      "note": 71,
      "start": 42.9437,
      "duration": 0.1441,
      "velocity": 122,
      "chip": "ym2612"
    },
    {
      "channel": 0,
      "note": 66,
      "start": 43.1235,
      "duration": 0.3139,
      "velocity": 95,
      "chip": "ym2612"
    },
    {
      "channel": 4,
      "note": 67,
      "start": 43.1265,
      "duration": 0.1443,
      "velocity": 122,
      "chip": "ym2612"
    },
    {
      "channel": 5,
      "note": 67,
      "start": 43.1294,
      "duration": 0.1416,
      "velocity": 122,
      "chip": "ym2612"
    },
    {
      "channel": 4,
      "note": 69,
      "start": 43.2908,
      "duration": 0.1468,
      "velocity": 122,
      "chip": "ym2612"
    },
    {
      "channel": 5,
      "note": 69,
      "start": 43.2937,
      "duration": 0.1441,
      "velocity": 122,
      "chip": "ym2612"
    },
    {
      "channel": 0,
      "note": 67,
      "start": 43.4735,
      "duration": 0.3139,
      "velocity": 95,
      "chip": "ym2612"
    },
    {
      "channel": 4,
      "note": 66,
      "start": 43.4765,
      "duration": 0.1443,
      "velocity": 122,
      "chip": "ym2612"
    },
    {
      "channel": 5,
      "note": 67,
      "start": 43.4794,
      "duration": 0.1416,
      "velocity": 122,
      "chip": "ym2612"
    },
    {
      "channel": 4,
      "note": 67,
      "start": 43.6408,
      "duration": 0.1468,
      "velocity": 122,
      "chip": "ym2612"
    },
    {
      "channel": 5,
      "note": 69,
      "start": 43.6437,
      "duration": 0.1441,
      "velocity": 122,
      "chip": "ym2612"
    },
    {
      "channel": 0,
      "note": 64,
      "start": 43.8235,
      "duration": 0.3139,
      "velocity": 95,
      "chip": "ym2612"
    },
    {
      "channel": 4,
      "note": 66,
      "start": 43.8265,
      "duration": 0.1444,
      "velocity": 122,
      "chip": "ym2612"
    },
    {
      "channel": 5,
      "note": 66,
      "start": 43.8294,
      "duration": 0.1417,
      "velocity": 122,
      "chip": "ym2612"
    },
    {
      "channel": 3,
      "note": 69,
      "start": 43.8321,
      "duration": 0.1388,
      "velocity": 127,
      "chip": "ym2612"
    },
    {
      "channel": 4,
      "note": 67,
      "start": 43.9912,
      "duration": 0.1466,
      "velocity": 122,
      "chip": "ym2612"
    },
    {
      "channel": 5,
      "note": 67,
      "start": 43.9941,
      "duration": 0.1438,
      "velocity": 122,
      "chip": "ym2612"
    },
    {
      "channel": 3,
      "note": 69,
      "start": 43.9966,
      "duration": 0.141,
      "velocity": 127,
      "chip": "ym2612"
    },
    {
      "channel": 0,
      "note": 66,
      "start": 44.1738,
      "duration": 0.4968,
      "velocity": 95,
      "chip": "ym2612"
    },
    {
      "channel": 4,
      "note": 64,
      "start": 44.1768,
      "duration": 0.1443,
      "velocity": 122,
      "chip": "ym2612"
    },
    {
      "channel": 5,
      "note": 66,
      "start": 44.1796,
      "duration": 0.1415,
      "velocity": 122,
      "chip": "ym2612"
    },
    {
      "channel": 3,
      "note": 69,
      "start": 44.1824,
      "duration": 0.1385,
      "velocity": 127,
      "chip": "ym2612"
    },
    {
      "channel": 4,
      "note": 66,
      "start": 44.3408,
      "duration": 0.1468,
      "velocity": 122,
      "chip": "ym2612"
    },
    {
      "channel": 5,
      "note": 67,
      "start": 44.3438,
      "duration": 0.144,
      "velocity": 122,
      "chip": "ym2612"
    },
    {
      "channel": 1,
      "note": 57,
      "start": 44.3464,
      "duration": 0.1411,
      "velocity": 118,
      "chip": "ym2612"
    },
    {
      "channel": 4,
      "note": 64,
      "start": 44.5242,
      "duration": 0.1466,
      "velocity": 122,
      "chip": "ym2612"
    },
    {
      "channel": 5,
      "note": 64,
      "start": 44.5275,
      "duration": 0.1435,
      "velocity": 122,
      "chip": "ym2612"
    },
    {
      "channel": 4,
      "note": 66,
      "start": 44.7075,
      "duration": 0.13,
      "velocity": 122,
      "chip": "ym2612"
    },
    {
      "channel": 5,
      "note": 66,
      "start": 44.7104,
      "duration": 0.1273,
      "velocity": 122,
      "chip": "ym2612"
    },
    {
      "channel": 0,
      "note": 50,
      "start": 44.8736,
      "duration": 0.3138,
      "velocity": 95,
      "chip": "ym2612"
    },
    {
      "channel": 2,
      "note": 66,
      "start": 44.8768,
      "duration": 2.7778,
      "velocity": 86,
      "chip": "ym2612"
    },
    {
      "channel": 4,
      "note": 69,
      "start": 44.8798,
      "duration": 0.1412,
      "velocity": 122,
      "chip": "ym2612"
    },
    {
      "channel": 5,
      "note": 64,
      "start": 44.8826,
      "duration": 0.1384,
      "velocity": 122,
      "chip": "ym2612"
    },
    {
      "channel": 1,
      "note": 57,
      "start": 44.8852,
      "duration": 0.1355,
      "velocity": 118,
      "chip": "ym2612"
    },
    {
      "channel": 4,
      "note": 71,
      "start": 45.0576,
      "duration": 0.1301,
      "velocity": 122,
      "chip": "ym2612"
    },
    {
      "channel": 5,
      "note": 66,
      "start": 45.0604,
      "duration": 0.1273,
      "velocity": 122,
      "chip": "ym2612"
    },
    {
      "channel": 0,
      "note": 57,
      "start": 45.2235,
      "duration": 0.3139,
      "velocity": 95,
      "chip": "ym2612"
    },
    {
      "channel": 4,
      "note": 69,
      "start": 45.2265,
      "duration": 0.1443,
      "velocity": 122,
      "chip": "ym2612"
    },
    {
      "channel": 5,
      "note": 69,
      "start": 45.2295,
      "duration": 0.1415,
      "velocity": 122,
      "chip": "ym2612"
    },
    {
      "channel": 4,
      "note": 71,
      "start": 45.4076,
      "duration": 0.13,
      "velocity": 122,
      "chip": "ym2612"
    },
    {
      "channel": 5,
      "note": 71,
      "start": 45.4105,
      "duration": 0.1273,
      "velocity": 122,
      "chip": "ym2612"
    },
    {
      "channel": 0,
      "note": 62,
      "start": 45.5738,
      "duration": 0.3137,
      "velocity": 95,
      "chip": "ym2612"
    },
    {
      "channel": 4,
      "note": 73,
      "start": 45.5782,
      "duration": 0.1428,
      "velocity": 122,
      "chip": "ym2612"
    },
    {
      "channel": 5,
      "note": 69,
      "start": 45.5811,
      "duration": 0.1401,
      "velocity": 122,
      "chip": "ym2612"
    },
    {
      "channel": 3,
      "note": 69,
      "start": 45.5837,
      "duration": 0.1372,
      "velocity": 127,
      "chip": "ym2612"
    },
    {
      "channel": 4,
      "note": 74,
      "start": 45.7576,
      "duration": 0.1301,
      "velocity": 122,
      "chip": "ym2612"
    },
    {
      "channel": 5,
      "note": 71,
      "start": 45.7604,
      "duration": 0.1274,
      "velocity": 122,
      "chip": "ym2612"
    },
    {
      "channel": 0,
      "note": 66,
      "start": 45.9237,
      "duration": 0.3138,
      "velocity": 95,
      "chip": "ym2612"
    },
    {
      "channel": 4,
      "note": 73,
      "start": 45.9266,
      "duration": 0.1444,
      "velocity": 122,
      "chip": "ym2612"
    },
    {
      "channel": 5,
      "note": 73,
      "start": 45.9295,
      "duration": 0.1417,
      "velocity": 122,
      "chip": "ym2612"
    },
    {
      "channel": 1,
      "note": 57,
      "start": 45.9321,
      "duration": 0.1388,
      "velocity": 118,
      "chip": "ym2612"
    },
    {
      "channel": 4,
      "note": 74,
      "start": 46.1076,
      "duration": 0.1301,
      "velocity": 122,
      "chip": "ym2612"
    },
    {
      "channel": 5,
      "note": 74,
      "start": 46.1105,
      "duration": 0.1273,
      "velocity": 122,
      "chip": "ym2612"
    },
    {
      "channel": 0,
      "note": 67,
      "start": 46.2735,
      "duration": 0.3139,
      "velocity": 95,
      "chip": "ym2612"
    },
    {
      "channel": 4,
      "note": 71,
      "start": 46.2765,
      "duration": 0.1444,
      "velocity": 122,
      "chip": "ym2612"
    },
    {
      "channel": 5,
      "note": 73,
      "start": 46.2794,
      "duration": 0.1417,
      "velocity": 122,
      "chip": "ym2612"
    },
    {
      "channel": 4,
      "note": 73,
      "start": 46.4576,
      "duration": 0.1301,
      "velocity": 122,
      "chip": "ym2612"
    },
    {
      "channel": 5,
      "note": 74,
      "start": 46.4604,
      "duration": 0.1274,
      "velocity": 122,
      "chip": "ym2612"
    },
    {
      "channel": 1,
      "note": 57,
      "start": 46.463,
      "duration": 0.1245,
      "velocity": 118,
      "chip": "ym2612"
    },
    {
      "channel": 0,
      "note": 64,
      "start": 46.6235,
      "duration": 0.3305,
      "velocity": 95,
      "chip": "ym2612"
    },
    {
      "channel": 4,
      "note": 71,
      "start": 46.6265,
      "duration": 0.1445,
      "velocity": 122,
      "chip": "ym2612"
    },
    {
      "channel": 5,
      "note": 71,
      "start": 46.6293,
      "duration": 0.1417,
      "velocity": 122,
      "chip": "ym2612"
    },
    {
      "channel": 4,
      "note": 73,
      "start": 46.8079,
      "duration": 0.1464,
      "velocity": 122,
      "chip": "ym2612"
    },
    {
      "channel": 5,
      "note": 73,
      "start": 46.8107,
      "duration": 0.1436,
      "velocity": 122,
      "chip": "ym2612"
    },
    {
      "channel": 0,
      "note": 66,
      "start": 46.9735,
      "duration": 0.3306,
      "velocity": 95,
      "chip": "ym2612"
    },
    {
      "channel": 4,
      "note": 69,
      "start": 46.9765,
      "duration": 0.1445,
      "velocity": 122,
      "chip": "ym2612"
    },
    {
      "channel": 5,
      "note": 71,
      "start": 46.9794,
      "duration": 0.1417,
      "velocity": 122,
      "chip": "ym2612"
    },
    {
      "channel": 3,
      "note": 69,
      "start": 46.982,
      "duration": 0.1388,
      "velocity": 127,
      "chip": "ym2612"
    },
    {
      "channel": 4,
      "note": 71,
      "start": 47.1575,
      "duration": 0.1468,
      "velocity": 122,
      "chip": "ym2612"
    },
    {
      "channel": 5,
      "note": 73,
      "start": 47.1604,
      "duration": 0.144,
      "velocity": 122,
      "chip": "ym2612"
    },
    {
      "channel": 0,
      "note": 57,
      "start": 47.3235,
      "duration": 0.3306,
      "velocity": 95,
      "chip": "ym2612"
    },
    {
      "channel": 4,
      "note": 69,
      "start": 47.3265,
      "duration": 0.1444,
      "velocity": 122,
      "chip": "ym2612"
    },
    {
      "channel": 5,
      "note": 69,
      "start": 47.3298,
      "duration": 0.1412,
      "velocity": 122,
      "chip": "ym2612"
    },
    {
      "channel": 1,
      "note": 57,
      "start": 47.3324,
      "duration": 0.1383,
      "velocity": 118,
      "chip": "ym2612"
    },
    {
      "channel": 4,
      "note": 71,
      "start": 47.5076,
      "duration": 0.1467,
      "velocity": 122,
      "chip": "ym2612"
    },
    {
      "channel": 5,
      "note": 71,
      "start": 47.5104,
      "duration": 0.1441,
      "velocity": 122,
      "chip": "ym2612"
    },
    {
      "channel": 0,
      "note": 50,
      "start": 47.6735,
      "duration": 0.3305,
      "velocity": 95,
      "chip": "ym2612"
    },
    {
      "channel": 2,
      "note": 57,
      "start": 47.6765,
      "duration": 2.778,
      "velocity": 86,
      "chip": "ym2612"
    },
    {
      "channel": 4,
      "note": 69,
      "start": 47.6794,
      "duration": 0.1416,
      "velocity": 122,
      "chip": "ym2612"
    },
    {
      "channel": 5,
      "note": 69,
      "start": 47.6822,
      "duration": 0.1389,
      "velocity": 122,
      "chip": "ym2612"
    },
    {
      "channel": 1,
      "note": 57,
      "start": 47.6852,
      "duration": 0.1356,
      "velocity": 118,
      "chip": "ym2612"
    },
    {
      "channel": 4,
      "note": 71,
      "start": 47.8576,
      "duration": 0.1466,
      "velocity": 122,
      "chip": "ym2612"
    },
    {
      "channel": 5,
      "note": 71,
      "start": 47.8605,
      "duration": 0.1439,
      "velocity": 122,
      "chip": "ym2612"
    },
    {
      "channel": 0,
      "note": 57,
      "start": 48.0235,
      "duration": 0.3307,
      "velocity": 95,
      "chip": "ym2612"
    },
    {
      "channel": 4,
      "note": 69,
      "start": 48.0265,
      "duration": 0.1445,
      "velocity": 122,
      "chip": "ym2612"
    },
    {
      "channel": 5,
      "note": 69,
      "start": 48.0294,
      "duration": 0.1417,
      "velocity": 122,
      "chip": "ym2612"
    },
    {
      "channel": 4,
      "note": 71,
      "start": 48.2076,
      "duration": 0.1467,
      "velocity": 122,
      "chip": "ym2612"
    },
    {
      "channel": 5,
      "note": 71,
      "start": 48.2104,
      "duration": 0.1441,
      "velocity": 122,
      "chip": "ym2612"
    },
    {
      "channel": 0,
      "note": 62,
      "start": 48.3735,
      "duration": 0.3307,
      "velocity": 95,
      "chip": "ym2612"
    },
    {
      "channel": 4,
      "note": 67,
      "start": 48.3779,
      "duration": 0.1432,
      "velocity": 122,
      "chip": "ym2612"
    },
    {
      "channel": 5,
      "note": 69,
      "start": 48.3808,
      "duration": 0.1405,
      "velocity": 122,
      "chip": "ym2612"
    },
    {
      "channel": 3,
      "note": 69,
      "start": 48.3834,
      "duration": 0.1375,
      "velocity": 127,
      "chip": "ym2612"
    },
    {
      "channel": 4,
      "note": 69,
      "start": 48.5576,
      "duration": 0.1469,
      "velocity": 122,
      "chip": "ym2612"
    },
    {
      "channel": 5,
      "note": 71,
      "start": 48.5604,
      "duration": 0.1441,
      "velocity": 122,
      "chip": "ym2612"
    },
    {
      "channel": 0,
      "note": 66,
      "start": 48.7236,
      "duration": 0.3305,
      "velocity": 95,
      "chip": "ym2612"
    },
    {
      "channel": 4,
      "note": 67,
      "start": 48.7266,
      "duration": 0.1445,
      "velocity": 122,
      "chip": "ym2612"
    },
    {
      "channel": 5,
      "note": 67,
      "start": 48.7295,
      "duration": 0.1418,
      "velocity": 122,
      "chip": "ym2612"
    },
    {
      "channel": 1,
      "note": 57,
      "start": 48.7321,
      "duration": 0.1389,
      "velocity": 118,
      "chip": "ym2612"
    },
    {
      "channel": 4,
      "note": 69,
      "start": 48.9076,
      "duration": 0.1467,
      "velocity": 122,
      "chip": "ym2612"
    },
    {
      "channel": 5,
      "note": 69,
      "start": 48.9105,
      "duration": 0.1439,
      "velocity": 122,
      "chip": "ym2612"
    },
    {
      "channel": 0,
      "note": 67,
      "start": 49.0901,
      "duration": 0.314,
      "velocity": 95,
      "chip": "ym2612"
    },
    {
      "channel": 4,
      "note": 66,
      "start": 49.0931,
      "duration": 0.1278,
      "velocity": 122,
      "chip": "ym2612"
    },
    {
      "channel": 5,
      "note": 67,
      "start": 49.0961,
      "duration": 0.1251,
      "velocity": 122,
      "chip": "ym2612"
    },
    {
      "channel": 4,
      "note": 67,
      "start": 49.2576,
      "duration": 0.1469,
      "velocity": 122,
      "chip": "ym2612"
    },
    {
      "channel": 5,
      "note": 69,
      "start": 49.2604,
      "duration": 0.1441,
      "velocity": 122,
      "chip": "ym2612"
    },
    {
      "channel": 1,
      "note": 57,
      "start": 49.263,
      "duration": 0.1412,
      "velocity": 118,
      "chip": "ym2612"
    },
    {
      "channel": 0,
      "note": 64,
      "start": 49.4401,
      "duration": 0.3139,
      "velocity": 95,
      "chip": "ym2612"
    },
    {
      "channel": 4,
      "note": 66,
      "start": 49.4432,
      "duration": 0.1277,
      "velocity": 122,
      "chip": "ym2612"
    },
    {
      "channel": 5,
      "note": 66,
      "start": 49.4461,
      "duration": 0.125,
      "velocity": 122,
      "chip": "ym2612"
    },
    {
      "channel": 4,
      "note": 67,
      "start": 49.6079,
      "duration": 0.1464,
      "velocity": 122,
      "chip": "ym2612"
    },
    {
      "channel": 5,
      "note": 67,
      "start": 49.6108,
      "duration": 0.1436,
      "velocity": 122,
      "chip": "ym2612"
    },
    {
      "channel": 0,
      "note": 66,
      "start": 49.7904,
      "duration": 0.6636,
      "velocity": 95,
      "chip": "ym2612"
    },
    {
      "channel": 4,
      "note": 64,
      "start": 49.7934,
      "duration": 0.1276,
      "velocity": 122,
      "chip": "ym2612"
    },
    {
      "channel": 5,
      "note": 66,
      "start": 49.7963,
      "duration": 0.1247,
      "velocity": 122,
      "chip": "ym2612"
    },
    {
      "channel": 3,
      "note": 69,
      "start": 49.7989,
      "duration": 0.1219,
      "velocity": 127,
      "chip": "ym2612"
    },
    {
      "channel": 4,
      "note": 66,
      "start": 49.9575,
      "duration": 0.1466,
      "velocity": 122,
      "chip": "ym2612"
    },
    {
      "channel": 5,
      "note": 67,
      "start": 49.9604,
      "duration": 0.1439,
      "velocity": 122,
      "chip": "ym2612"
    },
    {
      "channel": 4,
      "note": 64,
      "start": 50.1409,
      "duration": 0.13,
      "velocity": 122,
      "chip": "ym2612"
    },
    {
      "channel": 5,
      "note": 64,
      "start": 50.1441,
      "duration": 0.1268,
      "velocity": 122,
      "chip": "ym2612"
    },
    {
      "channel": 4,
      "note": 66,
      "start": 50.3074,
      "duration": 0.1468,
      "velocity": 122,
      "chip": "ym2612"
    },
    {
      "channel": 5,
      "note": 66,
      "start": 50.3104,
      "duration": 0.144,
      "velocity": 122,
      "chip": "ym2612"
    },
    {
      "channel": 0,
      "note": 50,
      "start": 50.4908,
      "duration": 0.3133,
      "velocity": 95,
      "chip": "ym2612"
    },
    {
      "channel": 2,
      "note": 64,
      "start": 50.4943,
      "duration": 4.9268,
      "velocity": 86,
      "chip": "ym2612"
    },
    {
      "channel": 4,
      "note": 69,
      "start": 50.4972,
      "duration": 0.1238,
      "velocity": 122,
      "chip": "ym2612"
    },
    {
      "channel": 5,
      "note": 64,
      "start": 50.5001,
      "duration": 0.121,
      "velocity": 122,
      "chip": "ym2612"
    },
    {
      "channel": 1,
      "note": 57,
      "start": 50.5039,
      "duration": 0.1169,
      "velocity": 118,
      "chip": "ym2612"
    },
    {
      "channel": 4,
      "note": 71,
      "start": 50.6576,
      "duration": 0.1467,
      "velocity": 122,
      "chip": "ym2612"
    },
    {
      "channel": 5,
      "note": 66,
      "start": 50.6605,
      "duration": 0.1439,
      "velocity": 122,
      "chip": "ym2612"
    },
    {
      "channel": 0,
      "note": 57,
      "start": 50.8402,
      "duration": 0.3139,
      "velocity": 95,
      "chip": "ym2612"
    },
    {
      "channel": 4,
      "note": 69,
      "start": 50.8432,
      "duration": 0.1444,
      "velocity": 122,
      "chip": "ym2612"
    },
    {
      "channel": 5,
      "note": 69,
      "start": 50.8461,
      "duration": 0.1416,
      "velocity": 122,
      "chip": "ym2612"
    },
    {
      "channel": 4,
      "note": 71,
      "start": 51.0075,
      "duration": 0.1468,
      "velocity": 122,
      "chip": "ym2612"
    },
    {
      "channel": 5,
      "note": 71,
      "start": 51.0104,
      "duration": 0.1441,
      "velocity": 122,
      "chip": "ym2612"
    },
    {
      "channel": 0,
      "note": 62,
      "start": 51.1901,
      "duration": 0.3141,
      "velocity": 95,
      "chip": "ym2612"
    },
    {
      "channel": 4,
      "note": 73,
      "start": 51.1945,
      "duration": 0.1432,
      "velocity": 122,
      "chip": "ym2612"
    },
    {
      "channel": 5,
      "note": 69,
      "start": 51.1974,
      "duration": 0.1405,
      "velocity": 122,
      "chip": "ym2612"
    },
    {
      "channel": 3,
      "note": 69,
      "start": 51.2,
      "duration": 0.1376,
      "velocity": 127,
      "chip": "ym2612"
    },
    {
      "channel": 4,
      "note": 74,
      "start": 51.3576,
      "duration": 0.1468,
      "velocity": 122,
      "chip": "ym2612"
    },
    {
      "channel": 5,
      "note": 71,
      "start": 51.3605,
      "duration": 0.1441,
      "velocity": 122,
      "chip": "ym2612"
    },
    {
      "channel": 0,
      "note": 66,
      "start": 51.5403,
      "duration": 0.3139,
      "velocity": 95,
      "chip": "ym2612"
    },
    {
      "channel": 4,
      "note": 73,
      "start": 51.5432,
      "duration": 0.1445,
      "velocity": 122,
      "chip": "ym2612"
    },
    {
      "channel": 5,
      "note": 73,
      "start": 51.5461,
      "duration": 0.1418,
      "velocity": 122,
      "chip": "ym2612"
    },
    {
      "channel": 1,
      "note": 57,
      "start": 51.5487,
      "duration": 0.1389,
      "velocity": 118,
      "chip": "ym2612"
    },
    {
      "channel": 4,
      "note": 74,
      "start": 51.7076,
      "duration": 0.1468,
      "velocity": 122,
      "chip": "ym2612"
    },
    {
      "channel": 5,
      "note": 74,
      "start": 51.7105,
      "duration": 0.144,
      "velocity": 122,
      "chip": "ym2612"
    },
    {
      "channel": 0,
      "note": 67,
      "start": 51.8902,
      "duration": 0.3139,
      "velocity": 95,
      "chip": "ym2612"
    },
    {
      "channel": 4,
      "note": 71,
      "start": 51.8932,
      "duration": 0.1443,
      "velocity": 122,
      "chip": "ym2612"
    },
    {
      "channel": 5,
      "note": 73,
      "start": 51.8961,
      "duration": 0.1417,
      "velocity": 122,
      "chip": "ym2612"
    },
    {
      "channel": 4,
      "note": 73,
      "start": 52.0576,
      "duration": 0.1468,
      "velocity": 122,
      "chip": "ym2612"
    },
    {
      "channel": 5,
      "note": 74,
      "start": 52.0604,
      "duration": 0.1441,
      "velocity": 122,
      "chip": "ym2612"
    },
    {
      "channel": 1,
      "note": 57,
      "start": 52.063,
      "duration": 0.1412,
      "velocity": 118,
      "chip": "ym2612"
    },
    {
      "channel": 0,
      "note": 64,
      "start": 52.2401,
      "duration": 0.3139,
      "velocity": 95,
      "chip": "ym2612"
    },
    {
      "channel": 4,
      "note": 71,
      "start": 52.2432,
      "duration": 0.1444,
      "velocity": 122,
      "chip": "ym2612"
    },
    {
      "channel": 5,
      "note": 71,
      "start": 52.2461,
      "duration": 0.1417,
      "velocity": 122,
      "chip": "ym2612"
    },
    {
      "channel": 4,
      "note": 73,
      "start": 52.4079,
      "duration": 0.1463,
      "velocity": 122,
      "chip": "ym2612"
    },
    {
      "channel": 5,
      "note": 73,
      "start": 52.4108,
      "duration": 0.1436,
      "velocity": 122,
      "chip": "ym2612"
    },
    {
      "channel": 0,
      "note": 66,
      "start": 52.5901,
      "duration": 0.314,
      "velocity": 95,
      "chip": "ym2612"
    },
    {
      "channel": 4,
      "note": 69,
      "start": 52.5931,
      "duration": 0.1445,
      "velocity": 122,
      "chip": "ym2612"
    },
    {
      "channel": 5,
      "note": 71,
      "start": 52.596,
      "duration": 0.1417,
      "velocity": 122,
      "chip": "ym2612"
    },
    {
      "channel": 3,
      "note": 69,
      "start": 52.5989,
      "duration": 0.1385,
      "velocity": 127,
      "chip": "ym2612"
    },
    {
      "channel": 4,
      "note": 71,
      "start": 52.7574,
      "duration": 0.1469,
      "velocity": 122,
      "chip": "ym2612"
    },
    {
      "channel": 5,
      "note": 73,
      "start": 52.7604,
      "duration": 0.1441,
      "velocity": 122,
      "chip": "ym2612"
    },
    {
      "channel": 0,
      "note": 57,
      "start": 52.9402,
      "duration": 0.3139,
      "velocity": 95,
      "chip": "ym2612"
    },
    {
      "channel": 4,
      "note": 69,
      "start": 52.9432,
      "duration": 0.1444,
      "velocity": 122,
      "chip": "ym2612"
    },
    {
      "channel": 5,
      "note": 69,
      "start": 52.9464,
      "duration": 0.1413,
      "velocity": 122,
      "chip": "ym2612"
    },
    {
      "channel": 1,
      "note": 57,
      "start": 52.949,
      "duration": 0.1384,
      "velocity": 118,
      "chip": "ym2612"
    },
    {
      "channel": 4,
      "note": 71,
      "start": 53.1243,
      "duration": 0.13,
      "velocity": 122,
      "chip": "ym2612"
    },
    {
      "channel": 5,
      "note": 71,
      "start": 53.1272,
      "duration": 0.1273,
      "velocity": 122,
      "chip": "ym2612"
    },
    {
      "channel": 0,
      "note": 50,
      "start": 53.2901,
      "duration": 0.3141,
      "velocity": 95,
      "chip": "ym2612"
    },
    {
      "channel": 4,
      "note": 69,
      "start": 53.2944,
      "duration": 0.1433,
      "velocity": 122,
      "chip": "ym2612"
    },
    {
      "channel": 5,
      "note": 69,
      "start": 53.2973,
      "duration": 0.1406,
      "velocity": 122,
      "chip": "ym2612"
    },
    {
      "channel": 1,
      "note": 57,
      "start": 53.2999,
      "duration": 0.1377,
      "velocity": 118,
      "chip": "ym2612"
    },
    {
      "channel": 4,
      "note": 71,
      "start": 53.4743,
      "duration": 0.13,
      "velocity": 122,
      "chip": "ym2612"
    },
    {
      "channel": 5,
      "note": 71,
      "start": 53.4772,
      "duration": 0.1273,
      "velocity": 122,
      "chip": "ym2612"
    },
    {
      "channel": 0,
      "note": 57,
      "start": 53.6403,
      "duration": 0.3139,
      "velocity": 95,
      "chip": "ym2612"
    },
    {
      "channel": 4,
      "note": 69,
      "start": 53.6433,
      "duration": 0.1443,
      "velocity": 122,
      "chip": "ym2612"
    },
    {
      "channel": 5,
      "note": 69,
      "start": 53.6462,
      "duration": 0.1416,
      "velocity": 122,
      "chip": "ym2612"
    },
    {
      "channel": 4,
      "note": 71,
      "start": 53.8242,
      "duration": 0.1302,
      "velocity": 122,
      "chip": "ym2612"
    },
    {
      "channel": 5,
      "note": 71,
      "start": 53.8271,
      "duration": 0.1275,
      "velocity": 122,
      "chip": "ym2612"
    },
    {
      "channel": 0,
      "note": 62,
      "start": 53.9903,
      "duration": 0.3139,
      "velocity": 95,
      "chip": "ym2612"
    },
    {
      "channel": 4,
      "note": 67,
      "start": 53.9946,
      "duration": 0.1431,
      "velocity": 122,
      "chip": "ym2612"
    },
    {
      "channel": 5,
      "note": 69,
      "start": 53.9975,
      "duration": 0.1403,
      "velocity": 122,
      "chip": "ym2612"
    },
    {
      "channel": 3,
      "note": 69,
      "start": 54.0001,
      "duration": 0.1375,
      "velocity": 127,
      "chip": "ym2612"
    },
    {
      "channel": 4,
      "note": 69,
      "start": 54.1743,
      "duration": 0.1301,
      "velocity": 122,
      "chip": "ym2612"
    },
    {
      "channel": 5,
      "note": 71,
      "start": 54.1772,
      "duration": 0.1273,
      "velocity": 122,
      "chip": "ym2612"
    },
    {
      "channel": 0,
      "note": 66,
      "start": 54.3403,
      "duration": 0.3139,
      "velocity": 95,
      "chip": "ym2612"
    },
    {
      "channel": 4,
      "note": 67,
      "start": 54.3432,
      "duration": 0.1445,
      "velocity": 122,
      "chip": "ym2612"
    },
    {
      "channel": 5,
      "note": 67,
      "start": 54.3462,
      "duration": 0.1417,
      "velocity": 122,
      "chip": "ym2612"
    },
    {
      "channel": 1,
      "note": 57,
      "start": 54.3492,
      "duration": 0.1384,
      "velocity": 118,
      "chip": "ym2612"
    },
    {
      "channel": 4,
      "note": 69,
      "start": 54.5244,
      "duration": 0.13,
      "velocity": 122,
      "chip": "ym2612"
    },
    {
      "channel": 5,
      "note": 69,
      "start": 54.5272,
      "duration": 0.1273,
      "velocity": 122,
      "chip": "ym2612"
    },
    {
      "channel": 0,
      "note": 67,
      "start": 54.6902,
      "duration": 0.3139,
      "velocity": 95,
      "chip": "ym2612"
    },
    {
      "channel": 4,
      "note": 66,
      "start": 54.6932,
      "duration": 0.1443,
      "velocity": 122,
      "chip": "ym2612"
    },
    {
      "channel": 5,
      "note": 67,
      "start": 54.6961,
      "duration": 0.1415,
      "velocity": 122,
      "chip": "ym2612"
    },
    {
      "channel": 4,
      "note": 67,
      "start": 54.8743,
      "duration": 0.1301,
      "velocity": 122,
      "chip": "ym2612"
    },
    {
      "channel": 5,
      "note": 69,
      "start": 54.8772,
      "duration": 0.1274,
      "velocity": 122,
      "chip": "ym2612"
    },
    {
      "channel": 1,
      "note": 57,
      "start": 54.8798,
      "duration": 0.1245,
      "velocity": 118,
      "chip": "ym2612"
    },
    {
      "channel": 0,
      "note": 64,
      "start": 55.0401,
      "duration": 0.3307,
      "velocity": 95,
      "chip": "ym2612"
    },
    {
      "channel": 4,
      "note": 66,
      "start": 55.0432,
      "duration": 0.1444,
      "velocity": 122,
      "chip": "ym2612"
    },
    {
      "channel": 5,
      "note": 66,
      "start": 55.0461,
      "duration": 0.1417,
      "velocity": 122,
      "chip": "ym2612"
    },
    {
      "channel": 4,
      "note": 67,
      "start": 55.2246,
      "duration": 0.1464,
      "velocity": 122,
      "chip": "ym2612"
    },
    {
      "channel": 5,
      "note": 67,
      "start": 55.2274,
      "duration": 0.1438,
      "velocity": 122,
      "chip": "ym2612"
    },
    {
      "channel": 0,
      "note": 66,
      "start": 55.3908,
      "duration": 0.6798,
      "velocity": 95,
      "chip": "ym2612"
    },
    {
      "channel": 4,
      "note": 64,
      "start": 55.3938,
      "duration": 0.1438,
      "velocity": 122,
      "chip": "ym2612"
    },
    {
      "channel": 5,
      "note": 66,
      "start": 55.3967,
      "duration": 0.141,
      "velocity": 122,
      "chip": "ym2612"
    },
    {
      "channel": 3,
      "note": 69,
      "start": 55.3993,
      "duration": 0.1382,
      "velocity": 127,
      "chip": "ym2612"
    },
    {
      "channel": 4,
      "note": 66,
      "start": 55.5742,
      "duration": 0.1468,
      "velocity": 122,
      "chip": "ym2612"
    },
    {
      "channel": 5,
      "note": 67,
      "start": 55.5771,
      "duration": 0.1439,
      "velocity": 122,
      "chip": "ym2612"
    },
    {
      "channel": 4,
      "note": 64,
      "start": 55.7409,
      "duration": 0.1466,
      "velocity": 122,
      "chip": "ym2612"
    },
    {
      "channel": 5,
      "note": 64,
      "start": 55.7441,
      "duration": 0.1434,
      "velocity": 122,
      "chip": "ym2612"
    },
    {
      "channel": 4,
      "note": 66,
      "start": 55.9242,
      "duration": 0.1467,
      "velocity": 122,
      "chip": "ym2612"
    },
    {
      "channel": 5,
      "note": 66,
      "start": 55.927,
      "duration": 0.1439,
      "velocity": 122,
      "chip": "ym2612"
    },
    {
      "channel": 0,
      "note": 50,
      "start": 56.0903,
      "duration": 0.3305,
      "velocity": 95,
      "chip": "ym2612"
    },
    {
      "channel": 2,
      "note": 69,
      "start": 56.0939,
      "duration": 2.6938,
      "velocity": 86,
      "chip": "ym2612"
    },
    {
      "channel": 4,
      "note": 69,
      "start": 56.0968,
      "duration": 0.1408,
      "velocity": 122,
      "chip": "ym2612"
    },
    {
      "channel": 5,
      "note": 64,
      "start": 56.0997,
      "duration": 0.138,
      "velocity": 122,
      "chip": "ym2612"
    },
    {
      "channel": 1,
      "note": 57,
      "start": 56.1034,
      "duration": 0.134,
      "velocity": 118,
      "chip": "ym2612"
    },
    {
      "channel": 4,
      "note": 71,
      "start": 56.2742,
      "duration": 0.1467,
      "velocity": 122,
      "chip": "ym2612"
    },
    {
      "channel": 5,
      "note": 66,
      "start": 56.2771,
      "duration": 0.1441,
      "velocity": 122,
      "chip": "ym2612"
    },
    {
      "channel": 0,
      "note": 57,
      "start": 56.4401,
      "duration": 0.3307,
      "velocity": 95,
      "chip": "ym2612"
    },
    {
      "channel": 4,
      "note": 69,
      "start": 56.4431,
      "duration": 0.1445,
      "velocity": 122,
      "chip": "ym2612"
    },
    {
      "channel": 5,
      "note": 69,
      "start": 56.4461,
      "duration": 0.1417,
      "velocity": 122,
      "chip": "ym2612"
    },
    {
      "channel": 4,
      "note": 71,
      "start": 56.6242,
      "duration": 0.1467,
      "velocity": 122,
      "chip": "ym2612"
    },
    {
      "channel": 5,
      "note": 71,
      "start": 56.6271,
      "duration": 0.1441,
      "velocity": 122,
      "chip": "ym2612"
    },
    {
      "channel": 0,
      "note": 62,
      "start": 56.7901,
      "duration": 0.3307,
      "velocity": 95,
      "chip": "ym2612"
    },
    {
      "channel": 4,
      "note": 73,
      "start": 56.7946,
      "duration": 0.1432,
      "velocity": 122,
      "chip": "ym2612"
    },
    {
      "channel": 5,
      "note": 69,
      "start": 56.7975,
      "duration": 0.1405,
      "velocity": 122,
      "chip": "ym2612"
    },
    {
      "channel": 3,
      "note": 69,
      "start": 56.8001,
      "duration": 0.1375,
      "velocity": 127,
      "chip": "ym2612"
    },
    {
      "channel": 4,
      "note": 74,
      "start": 56.9742,
      "duration": 0.1468,
      "velocity": 122,
      "chip": "ym2612"
    },
    {
      "channel": 5,
      "note": 71,
      "start": 56.9771,
      "duration": 0.1441,
      "velocity": 122,
      "chip": "ym2612"
    },
    {
      "channel": 0,
      "note": 66,
      "start": 57.1402,
      "duration": 0.3306,
      "velocity": 95,
      "chip": "ym2612"
    },
    {
      "channel": 4,
      "note": 73,
      "start": 57.1432,
      "duration": 0.1446,
      "velocity": 122,
      "chip": "ym2612"
    },
    {
      "channel": 5,
      "note": 73,
      "start": 57.1461,
      "duration": 0.1418,
      "velocity": 122,
      "chip": "ym2612"
    },
    {
      "channel": 1,
      "note": 57,
      "start": 57.1487,
      "duration": 0.1389,
      "velocity": 118,
      "chip": "ym2612"
    },
    {
      "channel": 4,
      "note": 74,
      "start": 57.3244,
      "duration": 0.1467,
      "velocity": 122,
      "chip": "ym2612"
    },
    {
      "channel": 5,
      "note": 74,
      "start": 57.3272,
      "duration": 0.144,
      "velocity": 122,
      "chip": "ym2612"
    },
    {
      "channel": 0,
      "note": 67,
      "start": 57.5069,
      "duration": 0.3139,
      "velocity": 95,
      "chip": "ym2612"
    },
    {
      "channel": 4,
      "note": 71,
      "start": 57.5099,
      "duration": 0.1277,
      "velocity": 122,
      "chip": "ym2612"
    },
    {
      "channel": 5,
      "note": 73,
      "start": 57.5127,
      "duration": 0.1249,
      "velocity": 122,
      "chip": "ym2612"
    },
    {
      "channel": 4,
      "note": 73,
      "start": 57.6742,
      "duration": 0.1469,
      "velocity": 122,
      "chip": "ym2612"
    },
    {
      "channel": 5,
      "note": 74,
      "start": 57.6771,
      "duration": 0.1441,
      "velocity": 122,
      "chip": "ym2612"
    },
    {
      "channel": 1,
      "note": 57,
      "start": 57.6797,
      "duration": 0.1412,
      "velocity": 118,
      "chip": "ym2612"
    },
    {
      "channel": 0,
      "note": 64,
      "start": 57.8568,
      "duration": 0.3139,
      "velocity": 95,
      "chip": "ym2612"
    },
    {
      "channel": 4,
      "note": 71,
      "start": 57.8599,
      "duration": 0.1277,
      "velocity": 122,
      "chip": "ym2612"
    },
    {
      "channel": 5,
      "note": 71,
      "start": 57.8627,
      "duration": 0.1249,
      "velocity": 122,
      "chip": "ym2612"
    },
    {
      "channel": 4,
      "note": 73,
      "start": 58.0246,
      "duration": 0.1464,
      "velocity": 122,
      "chip": "ym2612"
    },
    {
      "channel": 5,
      "note": 73,
      "start": 58.0275,
      "duration": 0.1436,
      "velocity": 122,
      "chip": "ym2612"
    },
    {
      "channel": 0,
      "note": 66,
      "start": 58.2069,
      "duration": 0.3139,
      "velocity": 95,
      "chip": "ym2612"
    },
    {
      "channel": 4,
      "note": 69,
      "start": 58.2099,
      "duration": 0.1278,
      "velocity": 122,
      "chip": "ym2612"
    },
    {
      "channel": 5,
      "note": 71,
      "start": 58.2128,
      "duration": 0.1251,
      "velocity": 122,
      "chip": "ym2612"
    },
    {
      "channel": 3,
      "note": 69,
      "start": 58.2153,
      "duration": 0.1223,
      "velocity": 127,
      "chip": "ym2612"
    },
    {
      "channel": 4,
      "note": 71,
      "start": 58.3741,
      "duration": 0.1469,
      "velocity": 122,
      "chip": "ym2612"
    },
    {
      "channel": 5,
      "note": 73,
      "start": 58.377,
      "duration": 0.1441,
      "velocity": 122,
      "chip": "ym2612"
    },
    {
      "channel": 0,
      "note": 57,
      "start": 58.5569,
      "duration": 0.3138,
      "velocity": 95,
      "chip": "ym2612"
    },
    {
      "channel": 4,
      "note": 69,
      "start": 58.5599,
      "duration": 0.1278,
      "velocity": 122,
      "chip": "ym2612"
    },
    {
      "channel": 5,
      "note": 69,
      "start": 58.5631,
      "duration": 0.1247,
      "velocity": 122,
      "chip": "ym2612"
    },
    {
      "channel": 1,
      "note": 57,
      "start": 58.5657,
      "duration": 0.1217,
      "velocity": 118,
      "chip": "ym2612"
    },
    {
      "channel": 4,
      "note": 71,
      "start": 58.7242,
      "duration": 0.1467,
      "velocity": 122,
      "chip": "ym2612"
    },
    {
      "channel": 5,
      "note": 71,
      "start": 58.7271,
      "duration": 0.1439,
      "velocity": 122,
      "chip": "ym2612"
    },
    {
      "channel": 0,
      "note": 50,
      "start": 58.9067,
      "duration": 0.314,
      "velocity": 95,
      "chip": "ym2612"
    },
    {
      "channel": 2,
      "note": 61,
      "start": 58.91,
      "duration": 2.7612,
      "velocity": 86,
      "chip": "ym2612"
    },
    {
      "channel": 4,
      "note": 69,
      "start": 58.9129,
      "duration": 0.1247,
      "velocity": 122,
      "chip": "ym2612"
    },
    {
      "channel": 5,
      "note": 69,
      "start": 58.9158,
      "duration": 0.122,
      "velocity": 122,
      "chip": "ym2612"
    },
    {
      "channel": 1,
      "note": 57,
      "start": 58.9184,
      "duration": 0.119,
      "velocity": 118,
      "chip": "ym2612"
    },
    {
      "channel": 4,
      "note": 71,
      "start": 59.0742,
      "duration": 0.1467,
      "velocity": 122,
      "chip": "ym2612"
    },
    {
      "channel": 5,
      "note": 71,
      "start": 59.0771,
      "duration": 0.1439,
      "velocity": 122,
      "chip": "ym2612"
    },
    {
      "channel": 0,
      "note": 57,
      "start": 59.2569,
      "duration": 0.3139,
      "velocity": 95,
      "chip": "ym2612"
    },
    {
      "channel": 4,
      "note": 69,
      "start": 59.2599,
      "duration": 0.1277,
      "velocity": 122,
      "chip": "ym2612"
    },
    {
      "channel": 5,
      "note": 69,
      "start": 59.2628,
      "duration": 0.1249,
      "velocity": 122,
      "chip": "ym2612"
    },
    {
      "channel": 4,
      "note": 71,
      "start": 59.4242,
      "duration": 0.1468,
      "velocity": 122,
      "chip": "ym2612"
    },
    {
      "channel": 5,
      "note": 71,
      "start": 59.427,
      "duration": 0.1441,
      "velocity": 122,
      "chip": "ym2612"
    },
    {
      "channel": 0,
      "note": 62,
      "start": 59.6067,
      "duration": 0.3141,
      "velocity": 95,
      "chip": "ym2612"
    },
    {
      "channel": 4,
      "note": 67,
      "start": 59.6112,
      "duration": 0.1433,
      "velocity": 122,
      "chip": "ym2612"
    },
    {
      "channel": 5,
      "note": 69,
      "start": 59.6141,
      "duration": 0.1405,
      "velocity": 122,
      "chip": "ym2612"
    },
    {
      "channel": 3,
      "note": 69,
      "start": 59.6167,
      "duration": 0.1376,
      "velocity": 127,
      "chip": "ym2612"
    },
    {
      "channel": 4,
      "note": 69,
      "start": 59.7742,
      "duration": 0.1469,
      "velocity": 122,
      "chip": "ym2612"
    },
    {
      "channel": 5,
      "note": 71,
      "start": 59.7771,
      "duration": 0.1441,
      "velocity": 122,
      "chip": "ym2612"
    },
    {
      "channel": 0,
      "note": 66,
      "start": 59.9569,
      "duration": 0.3139,
      "velocity": 95,
      "chip": "ym2612"
    },
    {
      "channel": 4,
      "note": 67,
      "start": 59.9599,
      "duration": 0.1445,
      "velocity": 122,
      "chip": "ym2612"
    },
    {
      "channel": 5,
      "note": 67,
      "start": 59.9628,
      "duration": 0.1417,
      "velocity": 122,
      "chip": "ym2612"
    },
    {
      "channel": 1,
      "note": 57,
      "start": 59.9654,
      "duration": 0.1388,
      "velocity": 118,
      "chip": "ym2612"
    },
    {
      "channel": 4,
      "note": 69,
      "start": 60.1243,
      "duration": 0.1468,
      "velocity": 122,
      "chip": "ym2612"
    },
    {
      "channel": 5,
      "note": 69,
      "start": 60.1272,
      "duration": 0.144,
      "velocity": 122,
      "chip": "ym2612"
    },
    {
      "channel": 0,
      "note": 67,
      "start": 60.3073,
      "duration": 0.3134,
      "velocity": 95,
      "chip": "ym2612"
    },
    {
      "channel": 4,
      "note": 66,
      "start": 60.3102,
      "duration": 0.144,
      "velocity": 122,
      "chip": "ym2612"
    },
    {
      "channel": 5,
      "note": 67,
      "start": 60.3132,
      "duration": 0.1412,
      "velocity": 122,
      "chip": "ym2612"
    },
    {
      "channel": 4,
      "note": 67,
      "start": 60.4742,
      "duration": 0.1468,
      "velocity": 122,
      "chip": "ym2612"
    },
    {
      "channel": 5,
      "note": 69,
      "start": 60.477,
      "duration": 0.1441,
      "velocity": 122,
      "chip": "ym2612"
    },
    {
      "channel": 1,
      "note": 57,
      "start": 60.48,
      "duration": 0.1408,
      "velocity": 118,
      "chip": "ym2612"
    },
    {
      "channel": 0,
      "note": 64,
      "start": 60.6567,
      "duration": 0.314,
      "velocity": 95,
      "chip": "ym2612"
    },
    {
      "channel": 4,
      "note": 66,
      "start": 60.6598,
      "duration": 0.1445,
      "velocity": 122,
      "chip": "ym2612"
    },
    {
      "channel": 5,
      "note": 66,
      "start": 60.6627,
      "duration": 0.1417,
      "velocity": 122,
      "chip": "ym2612"
    },
    {
      "channel": 4,
      "note": 67,
      "start": 60.8246,
      "duration": 0.1464,
      "velocity": 122,
      "chip": "ym2612"
    },
    {
      "channel": 5,
      "note": 67,
      "start": 60.8274,
      "duration": 0.1437,
      "velocity": 122,
      "chip": "ym2612"
    },
    {
      "channel": 0,
      "note": 66,
      "start": 61.0072,
      "duration": 0.6635,
      "velocity": 95,
      "chip": "ym2612"
    },
    {
      "channel": 4,
      "note": 64,
      "start": 61.0102,
      "duration": 0.1441,
      "velocity": 122,
      "chip": "ym2612"
    },
    {
      "channel": 5,
      "note": 66,
      "start": 61.013,
      "duration": 0.1414,
      "velocity": 122,
      "chip": "ym2612"
    },
    {
      "channel": 3,
      "note": 69,
      "start": 61.0156,
      "duration": 0.1385,
      "velocity": 127,
      "chip": "ym2612"
    },
    {
      "channel": 4,
      "note": 66,
      "start": 61.1742,
      "duration": 0.1467,
      "velocity": 122,
      "chip": "ym2612"
    },
    {
      "channel": 5,
      "note": 67,
      "start": 61.1771,
      "duration": 0.1439,
      "velocity": 122,
      "chip": "ym2612"
    },
    {
      "channel": 4,
      "note": 64,
      "start": 61.3576,
      "duration": 0.1467,
      "velocity": 122,
      "chip": "ym2612"
    },
    {
      "channel": 5,
      "note": 64,
      "start": 61.3608,
      "duration": 0.1436,
      "velocity": 122,
      "chip": "ym2612"
    },
    {
      "channel": 1,
      "note": 57,
      "start": 61.3634,
      "duration": 0.1406,
      "velocity": 118,
      "chip": "ym2612"
    },
    {
      "channel": 4,
      "note": 66,
      "start": 61.5241,
      "duration": 0.1468,
      "velocity": 122,
      "chip": "ym2612"
    },
    {
      "channel": 5,
      "note": 66,
      "start": 61.527,
      "duration": 0.1441,
      "velocity": 122,
      "chip": "ym2612"
    },
    {
      "channel": 0,
      "note": 50,
      "start": 61.7071,
      "duration": 0.3137,
      "velocity": 95,
      "chip": "ym2612"
    },
    {
      "channel": 2,
      "note": 66,
      "start": 61.71,
      "duration": 2.7779,
      "velocity": 86,
      "chip": "ym2612"
    },
    {
      "channel": 4,
      "note": 69,
      "start": 61.7129,
      "duration": 0.1414,
      "velocity": 122,
      "chip": "ym2612"
    },
    {
      "channel": 5,
      "note": 64,
      "start": 61.7158,
      "duration": 0.1386,
      "velocity": 122,
      "chip": "ym2612"
    },
    {
      "channel": 1,
      "note": 57,
      "start": 61.7184,
      "duration": 0.1357,
      "velocity": 118,
      "chip": "ym2612"
    },
    {
      "channel": 4,
      "note": 71,
      "start": 61.8909,
      "duration": 0.1301,
      "velocity": 122,
      "chip": "ym2612"
    },
    {
      "channel": 5,
      "note": 66,
      "start": 61.8938,
      "duration": 0.1273,
      "velocity": 122,
      "chip": "ym2612"
    },
    {
      "channel": 0,
      "note": 57,
      "start": 62.0569,
      "duration": 0.3139,
      "velocity": 95,
      "chip": "ym2612"
    },
    {
      "channel": 4,
      "note": 69,
      "start": 62.0599,
      "duration": 0.1443,
      "velocity": 122,
      "chip": "ym2612"
    },
    {
      "channel": 5,
      "note": 69,
      "start": 62.0628,
      "duration": 0.1415,
      "velocity": 122,
      "chip": "ym2612"
    },
    {
      "channel": 4,
      "note": 71,
      "start": 62.241,
      "duration": 0.13,
      "velocity": 122,
      "chip": "ym2612"
    },
    {
      "channel": 5,
      "note": 71,
      "start": 62.2438,
      "duration": 0.1273,
      "velocity": 122,
      "chip": "ym2612"
    },
    {
      "channel": 0,
      "note": 62,
      "start": 62.4069,
      "duration": 0.3139,
      "velocity": 95,
      "chip": "ym2612"
    },
    {
      "channel": 4,
      "note": 73,
      "start": 62.4117,
      "duration": 0.1427,
      "velocity": 122,
      "chip": "ym2612"
    },
    {
      "channel": 5,
      "note": 69,
      "start": 62.4146,
      "duration": 0.14,
      "velocity": 122,
      "chip": "ym2612"
    },
    {
      "channel": 3,
      "note": 69,
      "start": 62.4172,
      "duration": 0.1371,
      "velocity": 127,
      "chip": "ym2612"
    },
    {
      "channel": 4,
      "note": 74,
      "start": 62.5909,
      "duration": 0.1301,
      "velocity": 122,
      "chip": "ym2612"
    },
    {
      "channel": 5,
      "note": 71,
      "start": 62.5938,
      "duration": 0.1274,
      "velocity": 122,
      "chip": "ym2612"
    },
    {
      "channel": 0,
      "note": 66,
      "start": 62.757,
      "duration": 0.3138,
      "velocity": 95,
      "chip": "ym2612"
    },
    {
      "channel": 4,
      "note": 73,
      "start": 62.76,
      "duration": 0.1445,
      "velocity": 122,
      "chip": "ym2612"
    },
    {
      "channel": 5,
      "note": 73,
      "start": 62.7628,
      "duration": 0.1417,
      "velocity": 122,
      "chip": "ym2612"
    },
    {
      "channel": 1,
      "note": 57,
      "start": 62.7654,
      "duration": 0.1388,
      "velocity": 118,
      "chip": "ym2612"
    },
    {
      "channel": 4,
      "note": 74,
      "start": 62.941,
      "duration": 0.13,
      "velocity": 122,
      "chip": "ym2612"
    },
    {
      "channel": 5,
      "note": 74,
      "start": 62.9439,
      "duration": 0.1273,
      "velocity": 122,
      "chip": "ym2612"
    },
    {
      "channel": 0,
      "note": 67,
      "start": 63.1069,
      "duration": 0.3139,
      "velocity": 95,
      "chip": "ym2612"
    },
    {
      "channel": 4,
      "note": 71,
      "start": 63.1099,
      "duration": 0.1444,
      "velocity": 122,
      "chip": "ym2612"
    },
    {
      "channel": 5,
      "note": 73,
      "start": 63.1127,
      "duration": 0.1417,
      "velocity": 122,
      "chip": "ym2612"
    },
    {
      "channel": 4,
      "note": 73,
      "start": 63.2908,
      "duration": 0.1302,
      "velocity": 122,
      "chip": "ym2612"
    },
    {
      "channel": 5,
      "note": 74,
      "start": 63.2937,
      "duration": 0.1275,
      "velocity": 122,
      "chip": "ym2612"
    },
    {
      "channel": 1,
      "note": 57,
      "start": 63.2963,
      "duration": 0.1246,
      "velocity": 118,
      "chip": "ym2612"
    },
    {
      "channel": 0,
      "note": 64,
      "start": 63.4568,
      "duration": 0.3305,
      "velocity": 95,
      "chip": "ym2612"
    },
    {
      "channel": 4,
      "note": 71,
      "start": 63.4598,
      "duration": 0.1444,
      "velocity": 122,
      "chip": "ym2612"
    },
    {
      "channel": 5,
      "note": 71,
      "start": 63.4627,
      "duration": 0.1417,
      "velocity": 122,
      "chip": "ym2612"
    },
    {
      "channel": 4,
      "note": 73,
      "start": 63.6413,
      "duration": 0.1463,
      "velocity": 122,
      "chip": "ym2612"
    },
    {
      "channel": 5,
      "note": 73,
      "start": 63.6442,
      "duration": 0.1435,
      "velocity": 122,
      "chip": "ym2612"
    },
    {
      "channel": 0,
      "note": 66,
      "start": 63.8068,
      "duration": 0.3307,
      "velocity": 95,
      "chip": "ym2612"
    },
    {
      "channel": 4,
      "note": 69,
      "start": 63.8098,
      "duration": 0.1445,
      "velocity": 122,
      "chip": "ym2612"
    },
    {
      "channel": 5,
      "note": 71,
      "start": 63.8127,
      "duration": 0.1417,
      "velocity": 122,
      "chip": "ym2612"
    },
    {
      "channel": 3,
      "note": 69,
      "start": 63.8153,
      "duration": 0.1388,
      "velocity": 127,
      "chip": "ym2612"
    },
    {
      "channel": 4,
      "note": 71,
      "start": 63.9908,
      "duration": 0.1468,
      "velocity": 122,
      "chip": "ym2612"
    },
    {
      "channel": 5,
      "note": 73,
      "start": 63.9938,
      "duration": 0.1441,
      "velocity": 122,
      "chip": "ym2612"
    },
    {
      "channel": 0,
      "note": 57,
      "start": 64.1568,
      "duration": 0.3305,
      "velocity": 95,
      "chip": "ym2612"
    },
    {
      "channel": 4,
      "note": 69,
      "start": 64.1598,
      "duration": 0.1445,
      "velocity": 122,
      "chip": "ym2612"
    },
    {
      "channel": 5,
      "note": 69,
      "start": 64.163,
      "duration": 0.1414,
      "velocity": 122,
      "chip": "ym2612"
    },
    {
      "channel": 1,
      "note": 57,
      "start": 64.1656,
      "duration": 0.1385,
      "velocity": 118,
      "chip": "ym2612"
    },
    {
      "channel": 4,
      "note": 71,
      "start": 64.341,
      "duration": 0.1466,
      "velocity": 122,
      "chip": "ym2612"
    },
    {
      "channel": 5,
      "note": 71,
      "start": 64.3438,
      "duration": 0.1439,
      "velocity": 122,
      "chip": "ym2612"
    },
    {
      "channel": 0,
      "note": 50,
      "start": 64.5069,
      "duration": 0.3305,
      "velocity": 95,
      "chip": "ym2612"
    },
    {
      "channel": 2,
      "note": 57,
      "start": 64.5099,
      "duration": 2.7779,
      "velocity": 86,
      "chip": "ym2612"
    },
    {
      "channel": 4,
      "note": 69,
      "start": 64.5127,
      "duration": 0.1417,
      "velocity": 122,
      "chip": "ym2612"
    },
    {
      "channel": 5,
      "note": 69,
      "start": 64.5156,
      "duration": 0.1389,
      "velocity": 122,
      "chip": "ym2612"
    },
    {
      "channel": 1,
      "note": 57,
      "start": 64.5183,
      "duration": 0.1359,
      "velocity": 118,
      "chip": "ym2612"
    },
    {
      "channel": 4,
      "note": 71,
      "start": 64.6908,
      "duration": 0.1468,
      "velocity": 122,
      "chip": "ym2612"
    },
    {
      "channel": 5,
      "note": 71,
      "start": 64.6937,
      "duration": 0.144,
      "velocity": 122,
      "chip": "ym2612"
    },
    {
      "channel": 0,
      "note": 57,
      "start": 64.8573,
      "duration": 0.3301,
      "velocity": 95,
      "chip": "ym2612"
    },
    {
      "channel": 4,
      "note": 69,
      "start": 64.8602,
      "duration": 0.1439,
      "velocity": 122,
      "chip": "ym2612"
    },
    {
      "channel": 5,
      "note": 69,
      "start": 64.8632,
      "duration": 0.1412,
      "velocity": 122,
      "chip": "ym2612"
    },
    {
      "channel": 4,
      "note": 71,
      "start": 65.0409,
      "duration": 0.1467,
      "velocity": 122,
      "chip": "ym2612"
    },
    {
      "channel": 5,
      "note": 71,
      "start": 65.0438,
      "duration": 0.1439,
      "velocity": 122,
      "chip": "ym2612"
    },
    {
      "channel": 0,
      "note": 62,
      "start": 65.2068,
      "duration": 0.3307,
      "velocity": 95,
      "chip": "ym2612"
    },
    {
      "channel": 4,
      "note": 67,
      "start": 65.2112,
      "duration": 0.1431,
      "velocity": 122,
      "chip": "ym2612"
    },
    {
      "channel": 5,
      "note": 69,
      "start": 65.2141,
      "duration": 0.1405,
      "velocity": 122,
      "chip": "ym2612"
    },
    {
      "channel": 3,
      "note": 69,
      "start": 65.2167,
      "duration": 0.1375,
      "velocity": 127,
      "chip": "ym2612"
    },
    {
      "channel": 4,
      "note": 69,
      "start": 65.3909,
      "duration": 0.1469,
      "velocity": 122,
      "chip": "ym2612"
    },
    {
      "channel": 5,
      "note": 71,
      "start": 65.3938,
      "duration": 0.1441,
      "velocity": 122,
      "chip": "ym2612"
    },
    {
      "channel": 0,
      "note": 66,
      "start": 65.5569,
      "duration": 0.3305,
      "velocity": 95,
      "chip": "ym2612"
    },
    {
      "channel": 4,
      "note": 67,
      "start": 65.5599,
      "duration": 0.1445,
      "velocity": 122,
      "chip": "ym2612"
    },
    {
      "channel": 5,
      "note": 67,
      "start": 65.5628,
      "duration": 0.1418,
      "velocity": 122,
      "chip": "ym2612"
    },
    {
      "channel": 1,
      "note": 57,
      "start": 65.5654,
      "duration": 0.1389,
      "velocity": 118,
      "chip": "ym2612"
    },
    {
      "channel": 4,
      "note": 69,
      "start": 65.741,
      "duration": 0.1467,
      "velocity": 122,
      "chip": "ym2612"
    },
    {
      "channel": 5,
      "note": 69,
      "start": 65.7439,
      "duration": 0.144,
      "velocity": 122,
      "chip": "ym2612"
    },
    {
      "channel": 0,
      "note": 67,
      "start": 65.9235,
      "duration": 0.3139,
      "velocity": 95,
      "chip": "ym2612"
    },
    {
      "channel": 4,
      "note": 66,
      "start": 65.9265,
      "duration": 0.1277,
      "velocity": 122,
      "chip": "ym2612"
    },
    {
      "channel": 5,
      "note": 67,
      "start": 65.9295,
      "duration": 0.1249,
      "velocity": 122,
      "chip": "ym2612"
    },
    {
      "channel": 4,
      "note": 67,
      "start": 66.0908,
      "duration": 0.1469,
      "velocity": 122,
      "chip": "ym2612"
    },
    {
      "channel": 5,
      "note": 69,
      "start": 66.0937,
      "duration": 0.1442,
      "velocity": 122,
      "chip": "ym2612"
    },
    {
      "channel": 1,
      "note": 57,
      "start": 66.0967,
      "duration": 0.1409,
      "velocity": 118,
      "chip": "ym2612"
    },
    {
      "channel": 0,
      "note": 64,
      "start": 66.2735,
      "duration": 0.3139,
      "velocity": 95,
      "chip": "ym2612"
    },
    {
      "channel": 4,
      "note": 66,
      "start": 66.2765,
      "duration": 0.1277,
      "velocity": 122,
      "chip": "ym2612"
    },
    {
      "channel": 5,
      "note": 66,
      "start": 66.2794,
      "duration": 0.1249,
      "velocity": 122,
      "chip": "ym2612"
    },
    {
      "channel": 4,
      "note": 67,
      "start": 66.4413,
      "duration": 0.1464,
      "velocity": 122,
      "chip": "ym2612"
    },
    {
      "channel": 5,
      "note": 67,
      "start": 66.4442,
      "duration": 0.1436,
      "velocity": 122,
      "chip": "ym2612"
    },
    {
      "channel": 0,
      "note": 66,
      "start": 66.6239,
      "duration": 0.4801,
      "velocity": 95,
      "chip": "ym2612"
    },
    {
      "channel": 4,
      "note": 64,
      "start": 66.6268,
      "duration": 0.1274,
      "velocity": 122,
      "chip": "ym2612"
    },
    {
      "channel": 5,
      "note": 66,
      "start": 66.6297,
      "duration": 0.1247,
      "velocity": 122,
      "chip": "ym2612"
    },
    {
      "channel": 3,
      "note": 69,
      "start": 66.6323,
      "duration": 0.1218,
      "velocity": 127,
      "chip": "ym2612"
    },
    {
      "channel": 4,
      "note": 66,
      "start": 66.7909,
      "duration": 0.1467,
      "velocity": 122,
      "chip": "ym2612"
    },
    {
      "channel": 5,
      "note": 67,
      "start": 66.7938,
      "duration": 0.1439,
      "velocity": 122,
      "chip": "ym2612"
    },
    {
      "channel": 4,
      "note": 64,
      "start": 66.9742,
      "duration": 0.1301,
      "velocity": 122,
      "chip": "ym2612"
    },
    {
      "channel": 5,
      "note": 64,
      "start": 66.9774,
      "duration": 0.127,
      "velocity": 122,
      "chip": "ym2612"
    },
    {
      "channel": 1,
      "note": 57,
      "start": 66.98,
      "duration": 0.1241,
      "velocity": 118,
      "chip": "ym2612"
    },
    {
      "channel": 4,
      "note": 66,
      "start": 67.1408,
      "duration": 0.1467,
      "velocity": 122,
      "chip": "ym2612"
    },
    {
      "channel": 5,
      "note": 66,
      "start": 67.1438,
      "duration": 0.1438,
      "velocity": 122,
      "chip": "ym2612"
    },
    {
      "channel": 0,
      "note": 59,
      "start": 67.3237,
      "duration": 0.3137,
      "velocity": 95,
      "chip": "ym2612"
    },
    {
      "channel": 2,
      "note": 66,
      "start": 67.3266,
      "duration": 2.7613,
      "velocity": 86,
      "chip": "ym2612"
    },
    {
      "channel": 4,
      "note": 71,
      "start": 67.3295,
      "duration": 0.1249,
      "velocity": 122,
      "chip": "ym2612"
    },
    {
      "channel": 1,
      "note": 57,
      "start": 67.3322,
      "duration": 0.122,
      "velocity": 118,
      "chip": "ym2612"
    },
    {
      "channel": 4,
      "note": 73,
      "start": 67.4909,
      "duration": 0.1467,
      "velocity": 122,
      "chip": "ym2612"
    },
    {
      "channel": 0,
      "note": 66,
      "start": 67.6735,
      "duration": 0.3139,
      "velocity": 95,
      "chip": "ym2612"
    },
    {
      "channel": 4,
      "note": 71,
      "start": 67.6765,
      "duration": 0.1277,
      "velocity": 122,
      "chip": "ym2612"
    },
    {
      "channel": 5,
      "note": 71,
      "start": 67.6796,
      "duration": 0.1248,
      "velocity": 122,
      "chip": "ym2612"
    },
    {
      "channel": 4,
      "note": 73,
      "start": 67.8409,
      "duration": 0.1467,
      "velocity": 122,
      "chip": "ym2612"
    },
    {
      "channel": 5,
      "note": 73,
      "start": 67.8438,
      "duration": 0.1439,
      "velocity": 122,
      "chip": "ym2612"
    },
    {
      "channel": 0,
      "note": 73,
      "start": 68.0235,
      "duration": 0.314,
      "velocity": 95,
      "chip": "ym2612"
    },
    {
      "channel": 4,
      "note": 74,
      "start": 68.028,
      "duration": 0.1431,
      "velocity": 122,
      "chip": "ym2612"
    },
    {
      "channel": 5,
      "note": 71,
      "start": 68.0308,
      "duration": 0.1403,
      "velocity": 122,
      "chip": "ym2612"
    },
    {
      "channel": 3,
      "note": 69,
      "start": 68.0334,
      "duration": 0.1375,
      "velocity": 127,
      "chip": "ym2612"
    },
    {
      "channel": 4,
      "note": 76,
      "start": 68.191,
      "duration": 0.1468,
      "velocity": 122,
      "chip": "ym2612"
    },
    {
      "channel": 5,
      "note": 73,
      "start": 68.1938,
      "duration": 0.144,
      "velocity": 122,
      "chip": "ym2612"
    },
    {
      "channel": 0,
      "note": 74,
      "start": 68.3735,
      "duration": 0.3139,
      "velocity": 95,
      "chip": "ym2612"
    },
    {
      "channel": 4,
      "note": 74,
      "start": 68.3765,
      "duration": 0.1446,
      "velocity": 122,
      "chip": "ym2612"
    },
    {
      "channel": 5,
      "note": 74,
      "start": 68.3794,
      "duration": 0.1419,
      "velocity": 122,
      "chip": "ym2612"
    },
    {
      "channel": 1,
      "note": 57,
      "start": 68.382,
      "duration": 0.1389,
      "velocity": 118,
      "chip": "ym2612"
    },
    {
      "channel": 4,
      "note": 76,
      "start": 68.541,
      "duration": 0.1468,
      "velocity": 122,
      "chip": "ym2612"
    },
    {
      "channel": 5,
      "note": 76,
      "start": 68.5438,
      "duration": 0.144,
      "velocity": 122,
      "chip": "ym2612"
    },
    {
      "channel": 0,
      "note": 78,
      "start": 68.7235,
      "duration": 0.3139,
      "velocity": 95,
      "chip": "ym2612"
    },
    {
      "channel": 4,
      "note": 73,
      "start": 68.7265,
      "duration": 0.1443,
      "velocity": 122,
      "chip": "ym2612"
    },
    {
      "channel": 5,
      "note": 74,
      "start": 68.7294,
      "duration": 0.1417,
      "velocity": 122,
      "chip": "ym2612"
    },
    {
      "channel": 4,
      "note": 74,
      "start": 68.8909,
      "duration": 0.1468,
      "velocity": 122,
      "chip": "ym2612"
    },
    {
      "channel": 5,
      "note": 76,
      "start": 68.8938,
      "duration": 0.1441,
      "velocity": 122,
      "chip": "ym2612"
    },
    {
      "channel": 1,
      "note": 57,
      "start": 68.8964,
      "duration": 0.1412,
      "velocity": 118,
      "chip": "ym2612"
    },
    {
      "channel": 0,
      "note": 73,
      "start": 69.0735,
      "duration": 0.3139,
      "velocity": 95,
      "chip": "ym2612"
    },
    {
      "channel": 4,
      "note": 73,
      "start": 69.0765,
      "duration": 0.1444,
      "velocity": 122,
      "chip": "ym2612"
    },
    {
      "channel": 5,
      "note": 73,
      "start": 69.0794,
      "duration": 0.1417,
      "velocity": 122,
      "chip": "ym2612"
    },
    {
      "channel": 4,
      "note": 74,
      "start": 69.2412,
      "duration": 0.1464,
      "velocity": 122,
      "chip": "ym2612"
    },
    {
      "channel": 5,
      "note": 74,
      "start": 69.2441,
      "duration": 0.1437,
      "velocity": 122,
      "chip": "ym2612"
    },
    {
      "channel": 0,
      "note": 74,
      "start": 69.4239,
      "duration": 0.3134,
      "velocity": 95,
      "chip": "ym2612"
    },
    {
      "channel": 4,
      "note": 71,
      "start": 69.4269,
      "duration": 0.1441,
      "velocity": 122,
      "chip": "ym2612"
    },
    {
      "channel": 5,
      "note": 73,
      "start": 69.4298,
      "duration": 0.1413,
      "velocity": 122,
      "chip": "ym2612"
    },
    {
      "channel": 3,
      "note": 69,
      "start": 69.4324,
      "duration": 0.1385,
      "velocity": 127,
      "chip": "ym2612"
    },
    {
      "channel": 4,
      "note": 73,
      "start": 69.5908,
      "duration": 0.1468,
      "velocity": 122,
      "chip": "ym2612"
    },
    {
      "channel": 5,
      "note": 74,
      "start": 69.5938,
      "duration": 0.1439,
      "velocity": 122,
      "chip": "ym2612"
    },
    {
      "channel": 0,
      "note": 71,
      "start": 69.7734,
      "duration": 0.3139,
      "velocity": 95,
      "chip": "ym2612"
    },
    {
      "channel": 4,
      "note": 71,
      "start": 69.7764,
      "duration": 0.1446,
      "velocity": 122,
      "chip": "ym2612"
    },
    {
      "channel": 5,
      "note": 71,
      "start": 69.7796,
      "duration": 0.1415,
      "velocity": 122,
      "chip": "ym2612"
    },
    {
      "channel": 1,
      "note": 57,
      "start": 69.7822,
      "duration": 0.1385,
      "velocity": 118,
      "chip": "ym2612"
    },
    {
      "channel": 4,
      "note": 73,
      "start": 69.9409,
      "duration": 0.1467,
      "velocity": 122,
      "chip": "ym2612"
    },
    {
      "channel": 5,
      "note": 73,
      "start": 69.9438,
      "duration": 0.1439,
      "velocity": 122,
      "chip": "ym2612"
    },
    {
      "channel": 0,
      "note": 59,
      "start": 70.1235,
      "duration": 0.3139,
      "velocity": 95,
      "chip": "ym2612"
    },
    {
      "channel": 2,
      "note": 73,
      "start": 70.1268,
      "duration": 2.7778,
      "velocity": 86,
      "chip": "ym2612"
    },
    {
      "channel": 4,
      "note": 71,
      "start": 70.1297,
      "duration": 0.1413,
      "velocity": 122,
      "chip": "ym2612"
    },
    {
      "channel": 5,
      "note": 71,
      "start": 70.1326,
      "duration": 0.1385,
      "velocity": 122,
      "chip": "ym2612"
    },
    {
      "channel": 1,
      "note": 57,
      "start": 70.1352,
      "duration": 0.1356,
      "velocity": 118,
      "chip": "ym2612"
    },
    {
      "channel": 4,
      "note": 73,
      "start": 70.3076,
      "duration": 0.13,
      "velocity": 122,
      "chip": "ym2612"
    },
    {
      "channel": 5,
      "note": 73,
      "start": 70.3105,
      "duration": 0.1273,
      "velocity": 122,
      "chip": "ym2612"
    },
    {
      "channel": 0,
      "note": 66,
      "start": 70.4734,
      "duration": 0.314,
      "velocity": 95,
      "chip": "ym2612"
    },
    {
      "channel": 4,
      "note": 71,
      "start": 70.4765,
      "duration": 0.1445,
      "velocity": 122,
      "chip": "ym2612"
    },
    {
      "channel": 5,
      "note": 71,
      "start": 70.4793,
      "duration": 0.1417,
      "velocity": 122,
      "chip": "ym2612"
    },
    {
      "channel": 4,
      "note": 73,
      "start": 70.6575,
      "duration": 0.1301,
      "velocity": 122,
      "chip": "ym2612"
    },
    {
      "channel": 5,
      "note": 73,
      "start": 70.6604,
      "duration": 0.1273,
      "velocity": 122,
      "chip": "ym2612"
    },
    {
      "channel": 0,
      "note": 73,
      "start": 70.8235,
      "duration": 0.3139,
      "velocity": 95,
      "chip": "ym2612"
    },
    {
      "channel": 4,
      "note": 69,
      "start": 70.828,
      "duration": 0.1431,
      "velocity": 122,
      "chip": "ym2612"
    },
    {
      "channel": 5,
      "note": 71,
      "start": 70.8308,
      "duration": 0.1403,
      "velocity": 122,
      "chip": "ym2612"
    },
    {
      "channel": 3,
      "note": 69,
      "start": 70.8334,
      "duration": 0.1375,
      "velocity": 127,
      "chip": "ym2612"
    },
    {
      "channel": 4,
      "note": 71,
      "start": 71.0076,
      "duration": 0.1301,
      "velocity": 122,
      "chip": "ym2612"
    },
    {
      "channel": 5,
      "note": 73,
      "start": 71.0104,
      "duration": 0.1274,
      "velocity": 122,
      "chip": "ym2612"
    },
    {
      "channel": 0,
      "note": 74,
      "start": 71.1736,
      "duration": 0.3139,
      "velocity": 95,
      "chip": "ym2612"
    },
    {
      "channel": 4,
      "note": 69,
      "start": 71.1766,
      "duration": 0.1445,
      "velocity": 122,
      "chip": "ym2612"
    },
    {
      "channel": 5,
      "note": 69,
      "start": 71.1795,
      "duration": 0.1417,
      "velocity": 122,
      "chip": "ym2612"
    },
    {
      "channel": 1,
      "note": 57,
      "start": 71.1821,
      "duration": 0.1388,
      "velocity": 118,
      "chip": "ym2612"
    },
    {
      "channel": 4,
      "note": 71,
      "start": 71.3576,
      "duration": 0.1301,
      "velocity": 122,
      "chip": "ym2612"
    },
    {
      "channel": 5,
      "note": 71,
      "start": 71.3604,
      "duration": 0.1274,
      "velocity": 122,
      "chip": "ym2612"
    },
    {
      "channel": 0,
      "note": 78,
      "start": 71.5235,
      "duration": 0.3139,
      "velocity": 95,
      "chip": "ym2612"
    },
    {
      "channel": 4,
      "note": 67,
      "start": 71.5265,
      "duration": 0.1443,
      "velocity": 122,
      "chip": "ym2612"
    },
    {
      "channel": 5,
      "note": 69,
      "start": 71.5295,
      "duration": 0.1415,
      "velocity": 122,
      "chip": "ym2612"
    },
    {
      "channel": 4,
      "note": 69,
      "start": 71.7076,
      "duration": 0.1301,
      "velocity": 122,
      "chip": "ym2612"
    },
    {
      "channel": 5,
      "note": 71,
      "start": 71.7105,
      "duration": 0.1274,
      "velocity": 122,
      "chip": "ym2612"
    },
    {
      "channel": 1,
      "note": 57,
      "start": 71.7135,
      "duration": 0.1241,
      "velocity": 118,
      "chip": "ym2612"
    },
    {
      "channel": 0,
      "note": 73,
      "start": 71.8735,
      "duration": 0.3139,
      "velocity": 95,
      "chip": "ym2612"
    },
    {
      "channel": 4,
      "note": 67,
      "start": 71.8765,
      "duration": 0.1444,
      "velocity": 122,
      "chip": "ym2612"
    },
    {
      "channel": 5,
      "note": 67,
      "start": 71.8794,
      "duration": 0.1417,
      "velocity": 122,
      "chip": "ym2612"
    },
    {
      "channel": 4,
      "note": 69,
      "start": 72.0579,
      "duration": 0.1297,
      "velocity": 122,
      "chip": "ym2612"
    },
    {
      "channel": 5,
      "note": 69,
      "start": 72.0608,
      "duration": 0.1269,
      "velocity": 122,
      "chip": "ym2612"
    },
    {
      "channel": 0,
      "note": 74,
      "start": 72.2238,
      "duration": 0.6804,
      "velocity": 95,
      "chip": "ym2612"
    },
    {
      "channel": 4,
      "note": 66,
      "start": 72.2268,
      "duration": 0.1441,
      "velocity": 122,
      "chip": "ym2612"
    },
    {
      "channel": 5,
      "note": 67,
      "start": 72.2297,
      "duration": 0.1414,
      "velocity": 122,
      "chip": "ym2612"
    },
    {
      "channel": 3,
      "note": 69,
      "start": 72.2323,
      "duration": 0.1385,
      "velocity": 127,
      "chip": "ym2612"
    },
    {
      "channel": 4,
      "note": 67,
      "start": 72.4076,
      "duration": 0.1466,
      "velocity": 122,
      "chip": "ym2612"
    },
    {
      "channel": 5,
      "note": 69,
      "start": 72.4105,
      "duration": 0.1438,
      "velocity": 122,
      "chip": "ym2612"
    },
    {
      "channel": 4,
      "note": 66,
      "start": 72.5742,
      "duration": 0.1469,
      "velocity": 122,
      "chip": "ym2612"
    },
    {
      "channel": 5,
      "note": 66,
      "start": 72.5774,
      "duration": 0.1438,
      "velocity": 122,
      "chip": "ym2612"
    },
    {
      "channel": 1,
      "note": 57,
      "start": 72.58,
      "duration": 0.1409,
      "velocity": 118,
      "chip": "ym2612"
    },
    {
      "channel": 4,
      "note": 67,
      "start": 72.7576,
      "duration": 0.1469,
      "velocity": 122,
      "chip": "ym2612"
    },
    {
      "channel": 5,
      "note": 67,
      "start": 72.7604,
      "duration": 0.1441,
      "velocity": 122,
      "chip": "ym2612"
    },
    {
      "channel": 0,
      "note": 55,
      "start": 72.9239,
      "duration": 0.3303,
      "velocity": 95,
      "chip": "ym2612"
    },
    {
      "channel": 2,
      "note": 69,
      "start": 72.9268,
      "duration": 2.7778,
      "velocity": 86,
      "chip": "ym2612"
    },
    {
      "channel": 4,
      "note": 67,
      "start": 72.9297,
      "duration": 0.1414,
      "velocity": 122,
      "chip": "ym2612"
    },
    {
      "channel": 5,
      "note": 66,
      "start": 72.9326,
      "duration": 0.1386,
      "velocity": 122,
      "chip": "ym2612"
    },
    {
      "channel": 1,
      "note": 57,
      "start": 72.9352,
      "duration": 0.1357,
      "velocity": 118,
      "chip": "ym2612"
    },
    {
      "channel": 4,
      "note": 69,
      "start": 73.1076,
      "duration": 0.1469,
      "velocity": 122,
      "chip": "ym2612"
    },
    {
      "channel": 5,
      "note": 67,
      "start": 73.1104,
      "duration": 0.1441,
      "velocity": 122,
      "chip": "ym2612"
    },
    {
      "channel": 0,
      "note": 62,
      "start": 73.2735,
      "duration": 0.3307,
      "velocity": 95,
      "chip": "ym2612"
    },
    {
      "channel": 4,
      "note": 67,
      "start": 73.2765,
      "duration": 0.1444,
      "velocity": 122,
      "chip": "ym2612"
    },
    {
      "channel": 5,
      "note": 67,
      "start": 73.2795,
      "duration": 0.1417,
      "velocity": 122,
      "chip": "ym2612"
    },
    {
      "channel": 4,
      "note": 69,
      "start": 73.4577,
      "duration": 0.1468,
      "velocity": 122,
      "chip": "ym2612"
    },
    {
      "channel": 5,
      "note": 69,
      "start": 73.4605,
      "duration": 0.144,
      "velocity": 122,
      "chip": "ym2612"
    },
    {
      "channel": 0,
      "note": 69,
      "start": 73.6235,
      "duration": 0.3307,
      "velocity": 95,
      "chip": "ym2612"
    },
    {
      "channel": 4,
      "note": 71,
      "start": 73.628,
      "duration": 0.1432,
      "velocity": 122,
      "chip": "ym2612"
    },
    {
      "channel": 5,
      "note": 67,
      "start": 73.6308,
      "duration": 0.1405,
      "velocity": 122,
      "chip": "ym2612"
    },
    {
      "channel": 3,
      "note": 69,
      "start": 73.6334,
      "duration": 0.1376,
      "velocity": 127,
      "chip": "ym2612"
    },
    {
      "channel": 4,
      "note": 73,
      "start": 73.8077,
      "duration": 0.1468,
      "velocity": 122,
      "chip": "ym2612"
    },
    {
      "channel": 5,
      "note": 69,
      "start": 73.8105,
      "duration": 0.144,
      "velocity": 122,
      "chip": "ym2612"
    },
    {
      "channel": 0,
      "note": 71,
      "start": 73.974,
      "duration": 0.3302,
      "velocity": 95,
      "chip": "ym2612"
    },
    {
      "channel": 4,
      "note": 71,
      "start": 73.977,
      "duration": 0.1441,
      "velocity": 122,
      "chip": "ym2612"
    },
    {
      "channel": 5,
      "note": 71,
      "start": 73.9799,
      "duration": 0.1414,
      "velocity": 122,
      "chip": "ym2612"
    },
    {
      "channel": 1,
      "note": 57,
      "start": 73.9825,
      "duration": 0.1385,
      "velocity": 118,
      "chip": "ym2612"
    },
    {
      "channel": 4,
      "note": 73,
      "start": 74.1576,
      "duration": 0.1469,
      "velocity": 122,
      "chip": "ym2612"
    },
    {
      "channel": 5,
      "note": 73,
      "start": 74.1605,
      "duration": 0.1441,
      "velocity": 122,
      "chip": "ym2612"
    },
    {
      "channel": 0,
      "note": 74,
      "start": 74.3236,
      "duration": 0.3306,
      "velocity": 95,
      "chip": "ym2612"
    },
    {
      "channel": 4,
      "note": 69,
      "start": 74.3266,
      "duration": 0.1444,
      "velocity": 122,
      "chip": "ym2612"
    },
    {
      "channel": 5,
      "note": 71,
      "start": 74.3295,
      "duration": 0.1416,
      "velocity": 122,
      "chip": "ym2612"
    },
    {
      "channel": 4,
      "note": 71,
      "start": 74.5076,
      "duration": 0.1469,
      "velocity": 122,
      "chip": "ym2612"
    },
    {
      "channel": 5,
      "note": 73,
      "start": 74.5104,
      "duration": 0.1441,
      "velocity": 122,
      "chip": "ym2612"
    },
    {
      "channel": 1,
      "note": 57,
      "start": 74.513,
      "duration": 0.1413,
      "velocity": 118,
      "chip": "ym2612"
    },
    {
      "channel": 0,
      "note": 69,
      "start": 74.6902,
      "duration": 0.314,
      "velocity": 95,
      "chip": "ym2612"
    },
    {
      "channel": 4,
      "note": 69,
      "start": 74.6932,
      "duration": 0.1277,
      "velocity": 122,
      "chip": "ym2612"
    },
    {
      "channel": 5,
      "note": 69,
      "start": 74.6961,
      "duration": 0.125,
      "velocity": 122,
      "chip": "ym2612"
    },
    {
      "channel": 4,
      "note": 71,
      "start": 74.8581,
      "duration": 0.1464,
      "velocity": 122,
      "chip": "ym2612"
    },
    {
      "channel": 5,
      "note": 71,
      "start": 74.8609,
      "duration": 0.1437,
      "velocity": 122,
      "chip": "ym2612"
    },
    {
      "channel": 0,
      "note": 71,
      "start": 75.0403,
      "duration": 0.3138,
      "velocity": 95,
      "chip": "ym2612"
    },
    {
      "channel": 4,
      "note": 67,
      "start": 75.0433,
      "duration": 0.1277,
      "velocity": 122,
      "chip": "ym2612"
    },
    {
      "channel": 5,
      "note": 69,
      "start": 75.0462,
      "duration": 0.1249,
      "velocity": 122,
      "chip": "ym2612"
    },
    {
      "channel": 3,
      "note": 69,
      "start": 75.0492,
      "duration": 0.1218,
      "velocity": 127,
      "chip": "ym2612"
    },
    {
      "channel": 4,
      "note": 69,
      "start": 75.2076,
      "duration": 0.1468,
      "velocity": 122,
      "chip": "ym2612"
    },
    {
      "channel": 5,
      "note": 71,
      "start": 75.2105,
      "duration": 0.144,
      "velocity": 122,
      "chip": "ym2612"
    },
    {
      "channel": 0,
      "note": 67,
      "start": 75.3903,
      "duration": 0.3139,
      "velocity": 95,
      "chip": "ym2612"
    },
    {
      "channel": 4,
      "note": 67,
      "start": 75.3932,
      "duration": 0.1279,
      "velocity": 122,
      "chip": "ym2612"
    },
    {
      "channel": 5,
      "note": 67,
      "start": 75.3965,
      "duration": 0.1248,
      "velocity": 122,
      "chip": "ym2612"
    },
    {
      "channel": 1,
      "note": 57,
      "start": 75.3991,
      "duration": 0.1218,
      "velocity": 118,
      "chip": "ym2612"
    },
    {
      "channel": 4,
      "note": 69,
      "start": 75.5577,
      "duration": 0.1467,
      "velocity": 122,
      "chip": "ym2612"
    },
    {
      "channel": 5,
      "note": 69,
      "start": 75.5605,
      "duration": 0.144,
      "velocity": 122,
      "chip": "ym2612"
    },
    {
      "channel": 0,
      "note": 55,
      "start": 75.7403,
      "duration": 0.3138,
      "velocity": 95,
      "chip": "ym2612"
    },
    {
      "channel": 2,
      "note": 62,
      "start": 75.7432,
      "duration": 2.7614,
      "velocity": 86,
      "chip": "ym2612"
    },
    {
      "channel": 4,
      "note": 67,
      "start": 75.7461,
      "duration": 0.125,
      "velocity": 122,
      "chip": "ym2612"
    },
    {
      "channel": 5,
      "note": 67,
      "start": 75.749,
      "duration": 0.1222,
      "velocity": 122,
      "chip": "ym2612"
    },
    {
      "channel": 1,
      "note": 57,
      "start": 75.7517,
      "duration": 0.1193,
      "velocity": 118,
      "chip": "ym2612"
    },
    {
      "channel": 4,
      "note": 69,
      "start": 75.9077,
      "duration": 0.1467,
      "velocity": 122,
      "chip": "ym2612"
    },
    {
      "channel": 5,
      "note": 69,
      "start": 75.9105,
      "duration": 0.144,
      "velocity": 122,
      "chip": "ym2612"
    },
    {
      "channel": 0,
      "note": 62,
      "start": 76.0903,
      "duration": 0.3139,
      "velocity": 95,
      "chip": "ym2612"
    },
    {
      "channel": 4,
      "note": 67,
      "start": 76.0932,
      "duration": 0.1278,
      "velocity": 122,
      "chip": "ym2612"
    },
    {
      "channel": 5,
      "note": 67,
      "start": 76.0962,
      "duration": 0.125,
      "velocity": 122,
      "chip": "ym2612"
    },
    {
      "channel": 4,
      "note": 69,
      "start": 76.2576,
      "duration": 0.1468,
      "velocity": 122,
      "chip": "ym2612"
    },
    {
      "channel": 5,
      "note": 69,
      "start": 76.2605,
      "duration": 0.1441,
      "velocity": 122,
      "chip": "ym2612"
    },
    {
      "channel": 0,
      "note": 69,
      "start": 76.4403,
      "duration": 0.3139,
      "velocity": 95,
      "chip": "ym2612"
    },
    {
      "channel": 4,
      "note": 66,
      "start": 76.4452,
      "duration": 0.1427,
      "velocity": 122,
      "chip": "ym2612"
    },
    {
      "channel": 5,
      "note": 67,
      "start": 76.448,
      "duration": 0.14,
      "velocity": 122,
      "chip": "ym2612"
    },
    {
      "channel": 3,
      "note": 69,
      "start": 76.4506,
      "duration": 0.1371,
      "velocity": 127,
      "chip": "ym2612"
    },
    {
      "channel": 4,
      "note": 67,
      "start": 76.6077,
      "duration": 0.1467,
      "velocity": 122,
      "chip": "ym2612"
    },
    {
      "channel": 5,
      "note": 69,
      "start": 76.6105,
      "duration": 0.144,
      "velocity": 122,
      "chip": "ym2612"
    },
    {
      "channel": 0,
      "note": 71,
      "start": 76.7904,
      "duration": 0.3138,
      "velocity": 95,
      "chip": "ym2612"
    },
    {
      "channel": 4,
      "note": 66,
      "start": 76.7934,
      "duration": 0.1444,
      "velocity": 122,
      "chip": "ym2612"
    },
    {
      "channel": 5,
      "note": 66,
      "start": 76.7963,
      "duration": 0.1416,
      "velocity": 122,
      "chip": "ym2612"
    },
    {
      "channel": 1,
      "note": 57,
      "start": 76.7989,
      "duration": 0.1387,
      "velocity": 118,
      "chip": "ym2612"
    },
    {
      "channel": 4,
      "note": 67,
      "start": 76.9577,
      "duration": 0.1468,
      "velocity": 122,
      "chip": "ym2612"
    },
    {
      "channel": 5,
      "note": 67,
      "start": 76.9605,
      "duration": 0.144,
      "velocity": 122,
      "chip": "ym2612"
    },
    {
      "channel": 0,
      "note": 74,
      "start": 77.1403,
      "duration": 0.3138,
      "velocity": 95,
      "chip": "ym2612"
    },
    {
      "channel": 4,
      "note": 64,
      "start": 77.1433,
      "duration": 0.1444,
      "velocity": 122,
      "chip": "ym2612"
    },
    {
      "channel": 5,
      "note": 66,
      "start": 77.1462,
      "duration": 0.1416,
      "velocity": 122,
      "chip": "ym2612"
    },
    {
      "channel": 4,
      "note": 66,
      "start": 77.3077,
      "duration": 0.1468,
      "velocity": 122,
      "chip": "ym2612"
    },
    {
      "channel": 5,
      "note": 67,
      "start": 77.3105,
      "duration": 0.144,
      "velocity": 122,
      "chip": "ym2612"
    },
    {
      "channel": 1,
      "note": 57,
      "start": 77.3135,
      "duration": 0.1407,
      "velocity": 118,
      "chip": "ym2612"
    },
    {
      "channel": 0,
      "note": 69,
      "start": 77.4902,
      "duration": 0.3139,
      "velocity": 95,
      "chip": "ym2612"
    },
    {
      "channel": 4,
      "note": 64,
      "start": 77.4932,
      "duration": 0.1445,
      "velocity": 122,
      "chip": "ym2612"
    },
    {
      "channel": 5,
      "note": 64,
      "start": 77.4961,
      "duration": 0.1417,
      "velocity": 122,
      "chip": "ym2612"
    },
    {
      "channel": 4,
      "note": 66,
      "start": 77.6581,
      "duration": 0.1463,
      "velocity": 122,
      "chip": "ym2612"
    },
    {
      "channel": 5,
      "note": 66,
      "start": 77.6609,
      "duration": 0.1436,
      "velocity": 122,
      "chip": "ym2612"
    },
    {
      "channel": 0,
      "note": 71,
      "start": 77.8405,
      "duration": 0.6636,
      "velocity": 95,
      "chip": "ym2612"
    },
    {
      "channel": 4,
      "note": 62,
      "start": 77.8436,
      "duration": 0.1441,
      "velocity": 122,
      "chip": "ym2612"
    },
    {
      "channel": 5,
      "note": 64,
      "start": 77.8464,
      "duration": 0.1414,
      "velocity": 122,
      "chip": "ym2612"
    },
    {
      "channel": 3,
      "note": 69,
      "start": 77.849,
      "duration": 0.1385,
      "velocity": 127,
      "chip": "ym2612"
    },
    {
      "channel": 4,
      "note": 64,
      "start": 78.0077,
      "duration": 0.1466,
      "velocity": 122,
      "chip": "ym2612"
    },
    {
      "channel": 5,
      "note": 66,
      "start": 78.0105,
      "duration": 0.1439,
      "velocity": 122,
      "chip": "ym2612"
    },
    {
      "channel": 4,
      "note": 62,
      "start": 78.191,
      "duration": 0.1467,
      "velocity": 122,
      "chip": "ym2612"
    },
    {
      "channel": 5,
      "note": 62,
      "start": 78.1943,
      "duration": 0.1436,
      "velocity": 122,
      "chip": "ym2612"
    },
    {
      "channel": 1,
      "note": 57,
      "start": 78.1969,
      "duration": 0.1407,
      "velocity": 118,
      "chip": "ym2612"
    },
    {
      "channel": 4,
      "note": 64,
      "start": 78.3577,
      "duration": 0.1467,
      "velocity": 122,
      "chip": "ym2612"
    },
    {
      "channel": 5,
      "note": 64,
      "start": 78.3605,
      "duration": 0.144,
      "velocity": 122,
      "chip": "ym2612"
    },
    {
      "channel": 0,
      "note": 59,
      "start": 78.5408,
      "duration": 0.3133,
      "velocity": 95,
      "chip": "ym2612"
    },
    {
      "channel": 2,
      "note": 66,
      "start": 78.5438,
      "duration": 2.7776,
      "velocity": 86,
      "chip": "ym2612"
    },
    {
      "channel": 4,
      "note": 71,
      "start": 78.5467,
      "duration": 0.1411,
      "velocity": 122,
      "chip": "ym2612"
    },
    {
      "channel": 5,
      "note": 62,
      "start": 78.5495,
      "duration": 0.1384,
      "velocity": 122,
      "chip": "ym2612"
    },
    {
      "channel": 1,
      "note": 57,
      "start": 78.5533,
      "duration": 0.1343,
      "velocity": 118,
      "chip": "ym2612"
    },
    {
      "channel": 4,
      "note": 73,
      "start": 78.7242,
      "duration": 0.1301,
      "velocity": 122,
      "chip": "ym2612"
    },
    {
      "channel": 5,
      "note": 64,
      "start": 78.7271,
      "duration": 0.1274,
      "velocity": 122,
      "chip": "ym2612"
    },
    {
      "channel": 0,
      "note": 66,
      "start": 78.8903,
      "duration": 0.3139,
      "velocity": 95,
      "chip": "ym2612"
    },
    {
      "channel": 4,
      "note": 71,
      "start": 78.8932,
      "duration": 0.1444,
      "velocity": 122,
      "chip": "ym2612"
    },
    {
      "channel": 5,
      "note": 71,
      "start": 78.8961,
      "duration": 0.1417,
      "velocity": 122,
      "chip": "ym2612"
    },
    {
      "channel": 4,
      "note": 73,
      "start": 79.0744,
      "duration": 0.13,
      "velocity": 122,
      "chip": "ym2612"
    },
    {
      "channel": 5,
      "note": 73,
      "start": 79.0772,
      "duration": 0.1273,
      "velocity": 122,
      "chip": "ym2612"
    },
    {
      "channel": 0,
      "note": 73,
      "start": 79.2403,
      "duration": 0.314,
      "velocity": 95,
      "chip": "ym2612"
    },
    {
      "channel": 4,
      "note": 74,
      "start": 79.2447,
      "duration": 0.1431,
      "velocity": 122,
      "chip": "ym2612"
    },
    {
      "channel": 5,
      "note": 71,
      "start": 79.2476,
      "duration": 0.1403,
      "velocity": 122,
      "chip": "ym2612"
    },
    {
      "channel": 3,
      "note": 69,
      "start": 79.2502,
      "duration": 0.1375,
      "velocity": 127,
      "chip": "ym2612"
    },
    {
      "channel": 4,
      "note": 76,
      "start": 79.4244,
      "duration": 0.1302,
      "velocity": 122,
      "chip": "ym2612"
    },
    {
      "channel": 5,
      "note": 73,
      "start": 79.4272,
      "duration": 0.1274,
      "velocity": 122,
      "chip": "ym2612"
    },
    {
      "channel": 0,
      "note": 74,
      "start": 79.5904,
      "duration": 0.3139,
      "velocity": 95,
      "chip": "ym2612"
    },
    {
      "channel": 4,
      "note": 74,
      "start": 79.5934,
      "duration": 0.1444,
      "velocity": 122,
      "chip": "ym2612"
    },
    {
      "channel": 5,
      "note": 74,
      "start": 79.5963,
      "duration": 0.1417,
      "velocity": 122,
      "chip": "ym2612"
    },
    {
      "channel": 1,
      "note": 57,
      "start": 79.5988,
      "duration": 0.1388,
      "velocity": 118,
      "chip": "ym2612"
    },
    {
      "channel": 4,
      "note": 76,
      "start": 79.7744,
      "duration": 0.1301,
      "velocity": 122,
      "chip": "ym2612"
    },
    {
      "channel": 5,
      "note": 76,
      "start": 79.7773,
      "duration": 0.1274,
      "velocity": 122,
      "chip": "ym2612"
    },
    {
      "channel": 0,
      "note": 78,
      "start": 79.9403,
      "duration": 0.3139,
      "velocity": 95,
      "chip": "ym2612"
    },
    {
      "channel": 4,
      "note": 73,
      "start": 79.9432,
      "duration": 0.1445,
      "velocity": 122,
      "chip": "ym2612"
    },
    {
      "channel": 5,
      "note": 74,
      "start": 79.9461,
      "duration": 0.1417,
      "velocity": 122,
      "chip": "ym2612"
    },
    {
      "channel": 4,
      "note": 74,
      "start": 80.1243,
      "duration": 0.1301,
      "velocity": 122,
      "chip": "ym2612"
    },
    {
      "channel": 5,
      "note": 76,
      "start": 80.1272,
      "duration": 0.1273,
      "velocity": 122,
      "chip": "ym2612"
    },
    {
      "channel": 1,
      "note": 57,
      "start": 80.1298,
      "duration": 0.1245,
      "velocity": 118,
      "chip": "ym2612"
    },
    {
      "channel": 0,
      "note": 73,
      "start": 80.2903,
      "duration": 0.3139,
      "velocity": 95,
      "chip": "ym2612"
    },
    {
      "channel": 4,
      "note": 73,
      "start": 80.2933,
      "duration": 0.1443,
      "velocity": 122,
      "chip": "ym2612"
    },
    {
      "channel": 5,
      "note": 73,
      "start": 80.2962,
      "duration": 0.1416,
      "velocity": 122,
      "chip": "ym2612"
    },
    {
      "channel": 4,
      "note": 74,
      "start": 80.4747,
      "duration": 0.1297,
      "velocity": 122,
      "chip": "ym2612"
    },
    {
      "channel": 5,
      "note": 74,
      "start": 80.4776,
      "duration": 0.127,
      "velocity": 122,
      "chip": "ym2612"
    },
    {
      "channel": 0,
      "note": 74,
      "start": 80.6403,
      "duration": 0.3305,
      "velocity": 95,
      "chip": "ym2612"
    },
    {
      "channel": 4,
      "note": 71,
      "start": 80.6433,
      "duration": 0.1444,
      "velocity": 122,
      "chip": "ym2612"
    },
    {
      "channel": 5,
      "note": 73,
      "start": 80.6462,
      "duration": 0.1417,
      "velocity": 122,
      "chip": "ym2612"
    },
    {
      "channel": 3,
      "note": 69,
      "start": 80.6488,
      "duration": 0.1388,
      "velocity": 127,
      "chip": "ym2612"
    },
    {
      "channel": 4,
      "note": 73,
      "start": 80.8244,
      "duration": 0.1467,
      "velocity": 122,
      "chip": "ym2612"
    },
    {
      "channel": 5,
      "note": 74,
      "start": 80.8272,
      "duration": 0.144,
      "velocity": 122,
      "chip": "ym2612"
    },
    {
      "channel": 0,
      "note": 71,
      "start": 80.9903,
      "duration": 0.3306,
      "velocity": 95,
      "chip": "ym2612"
    },
    {
      "channel": 4,
      "note": 71,
      "start": 80.9932,
      "duration": 0.1445,
      "velocity": 122,
      "chip": "ym2612"
    },
    {
      "channel": 5,
      "note": 71,
      "start": 80.9965,
      "duration": 0.1414,
      "velocity": 122,
      "chip": "ym2612"
    },
    {
      "channel": 1,
      "note": 57,
      "start": 80.9991,
      "duration": 0.1384,
      "velocity": 118,
      "chip": "ym2612"
    },
    {
      "channel": 4,
      "note": 73,
      "start": 81.1743,
      "duration": 0.1468,
      "velocity": 122,
      "chip": "ym2612"
    },
    {
      "channel": 5,
      "note": 73,
      "start": 81.1772,
      "duration": 0.144,
      "velocity": 122,
      "chip": "ym2612"
    },
    {
      "channel": 0,
      "note": 59,
      "start": 81.3403,
      "duration": 0.3306,
      "velocity": 95,
      "chip": "ym2612"
    },
    {
      "channel": 2,
      "note": 73,
      "start": 81.3432,
      "duration": 2.7781,
      "velocity": 86,
      "chip": "ym2612"
    },
    {
      "channel": 4,
      "note": 71,
      "start": 81.3461,
      "duration": 0.1417,
      "velocity": 122,
      "chip": "ym2612"
    },
    {
      "channel": 5,
      "note": 71,
      "start": 81.3489,
      "duration": 0.139,
      "velocity": 122,
      "chip": "ym2612"
    },
    {
      "channel": 1,
      "note": 57,
      "start": 81.3515,
      "duration": 0.1361,
      "velocity": 118,
      "chip": "ym2612"
    },
    {
      "channel": 4,
      "note": 73,
      "start": 81.5242,
      "duration": 0.1469,
      "velocity": 122,
      "chip": "ym2612"
    },
    {
      "channel": 5,
      "note": 73,
      "start": 81.5271,
      "duration": 0.1441,
      "velocity": 122,
      "chip": "ym2612"
    },
    {
      "channel": 0,
      "note": 66,
      "start": 81.6902,
      "duration": 0.3307,
      "velocity": 95,
      "chip": "ym2612"
    },
    {
      "channel": 4,
      "note": 71,
      "start": 81.6932,
      "duration": 0.1444,
      "velocity": 122,
      "chip": "ym2612"
    },
    {
      "channel": 5,
      "note": 71,
      "start": 81.6961,
      "duration": 0.1417,
      "velocity": 122,
      "chip": "ym2612"
    },
    {
      "channel": 4,
      "note": 73,
      "start": 81.8744,
      "duration": 0.1468,
      "velocity": 122,
      "chip": "ym2612"
    },
    {
      "channel": 5,
      "note": 73,
      "start": 81.8772,
      "duration": 0.144,
      "velocity": 122,
      "chip": "ym2612"
    },
    {
      "channel": 0,
      "note": 73,
      "start": 82.0402,
      "duration": 0.3307,
      "velocity": 95,
      "chip": "ym2612"
    },
    {
      "channel": 4,
      "note": 69,
      "start": 82.0446,
      "duration": 0.1432,
      "velocity": 122,
      "chip": "ym2612"
    },
    {
      "channel": 5,
      "note": 71,
      "start": 82.0476,
      "duration": 0.1404,
      "velocity": 122,
      "chip": "ym2612"
    },
    {
      "channel": 3,
      "note": 69,
      "start": 82.0501,
      "duration": 0.1376,
      "velocity": 127,
      "chip": "ym2612"
    },
    {
      "channel": 4,
      "note": 71,
      "start": 82.2244,
      "duration": 0.1467,
      "velocity": 122,
      "chip": "ym2612"
    },
    {
      "channel": 5,
      "note": 73,
      "start": 82.2272,
      "duration": 0.144,
      "velocity": 122,
      "chip": "ym2612"
    },
    {
      "channel": 0,
      "note": 74,
      "start": 82.3904,
      "duration": 0.3305,
      "velocity": 95,
      "chip": "ym2612"
    },
    {
      "channel": 4,
      "note": 69,
      "start": 82.3934,
      "duration": 0.1445,
      "velocity": 122,
      "chip": "ym2612"
    },
    {
      "channel": 5,
      "note": 69,
      "start": 82.3963,
      "duration": 0.1417,
      "velocity": 122,
      "chip": "ym2612"
    },
    {
      "channel": 1,
      "note": 57,
      "start": 82.3989,
      "duration": 0.1388,
      "velocity": 118,
      "chip": "ym2612"
    },
    {
      "channel": 4,
      "note": 71,
      "start": 82.5744,
      "duration": 0.1468,
      "velocity": 122,
      "chip": "ym2612"
    },
    {
      "channel": 5,
      "note": 71,
      "start": 82.5772,
      "duration": 0.144,
      "velocity": 122,
      "chip": "ym2612"
    },
    {
      "channel": 0,
      "note": 78,
      "start": 82.7403,
      "duration": 0.3305,
      "velocity": 95,
      "chip": "ym2612"
    },
    {
      "channel": 4,
      "note": 67,
      "start": 82.7433,
      "duration": 0.1443,
      "velocity": 122,
      "chip": "ym2612"
    },
    {
      "channel": 5,
      "note": 69,
      "start": 82.7462,
      "duration": 0.1415,
      "velocity": 122,
      "chip": "ym2612"
    },
    {
      "channel": 4,
      "note": 69,
      "start": 82.9244,
      "duration": 0.1468,
      "velocity": 122,
      "chip": "ym2612"
    },
    {
      "channel": 5,
      "note": 71,
      "start": 82.9272,
      "duration": 0.144,
      "velocity": 122,
      "chip": "ym2612"
    },
    {
      "channel": 1,
      "note": 57,
      "start": 82.9302,
      "duration": 0.1407,
      "velocity": 118,
      "chip": "ym2612"
    },
    {
      "channel": 0,
      "note": 73,
      "start": 83.107,
      "duration": 0.3138,
      "velocity": 95,
      "chip": "ym2612"
    },
    {
      "channel": 4,
      "note": 67,
      "start": 83.11,
      "duration": 0.1277,
      "velocity": 122,
      "chip": "ym2612"
    },
    {
      "channel": 5,
      "note": 67,
      "start": 83.1129,
      "duration": 0.1249,
      "velocity": 122,
      "chip": "ym2612"
    },
    {
      "channel": 4,
      "note": 69,
      "start": 83.2747,
      "duration": 0.1463,
      "velocity": 122,
      "chip": "ym2612"
    },
    {
      "channel": 5,
      "note": 69,
      "start": 83.2776,
      "duration": 0.1436,
      "velocity": 122,
      "chip": "ym2612"
    },
    {
      "channel": 0,
      "note": 74,
      "start": 83.4576,
      "duration": 0.6632,
      "velocity": 95,
      "chip": "ym2612"
    },
    {
      "channel": 4,
      "note": 66,
      "start": 83.4605,
      "duration": 0.1272,
      "velocity": 122,
      "chip": "ym2612"
    },
    {
      "channel": 5,
      "note": 67,
      "start": 83.4635,
      "duration": 0.1244,
      "velocity": 122,
      "chip": "ym2612"
    },
    {
      "channel": 3,
      "note": 69,
      "start": 83.4661,
      "duration": 0.1216,
      "velocity": 127,
      "chip": "ym2612"
    },
    {
      "channel": 4,
      "note": 67,
      "start": 83.6244,
      "duration": 0.1466,
      "velocity": 122,
      "chip": "ym2612"
    },
    {
      "channel": 5,
      "note": 69,
      "start": 83.6272,
      "duration": 0.1439,
      "velocity": 122,
      "chip": "ym2612"
    },
    {
      "channel": 4,
      "note": 66,
      "start": 83.8077,
      "duration": 0.1301,
      "velocity": 122,
      "chip": "ym2612"
    },
    {
      "channel": 5,
      "note": 66,
      "start": 83.8109,
      "duration": 0.127,
      "velocity": 122,
      "chip": "ym2612"
    },
    {
      "channel": 1,
      "note": 57,
      "start": 83.8135,
      "duration": 0.1241,
      "velocity": 118,
      "chip": "ym2612"
    },
    {
      "channel": 4,
      "note": 67,
      "start": 83.9742,
      "duration": 0.1468,
      "velocity": 122,
      "chip": "ym2612"
    },
    {
      "channel": 5,
      "note": 67,
      "start": 83.9771,
      "duration": 0.1441,
      "velocity": 122,
      "chip": "ym2612"
    },
    {
      "channel": 0,
      "note": 55,
      "start": 84.1571,
      "duration": 0.3137,
      "velocity": 95,
      "chip": "ym2612"
    },
    {
      "channel": 2,
      "note": 69,
      "start": 84.16,
      "duration": 2.7613,
      "velocity": 86,
      "chip": "ym2612"
    },
    {
      "channel": 4,
      "note": 67,
      "start": 84.163,
      "duration": 0.1247,
      "velocity": 122,
      "chip": "ym2612"
    },
    {
      "channel": 5,
      "note": 66,
      "start": 84.1658,
      "duration": 0.122,
      "velocity": 122,
      "chip": "ym2612"
    },
    {
      "channel": 1,
      "note": 57,
      "start": 84.1684,
      "duration": 0.119,
      "velocity": 118,
      "chip": "ym2612"
    },
    {
      "channel": 4,
      "note": 69,
      "start": 84.3242,
      "duration": 0.1468,
      "velocity": 122,
      "chip": "ym2612"
    },
    {
      "channel": 5,
      "note": 67,
      "start": 84.3271,
      "duration": 0.1441,
      "velocity": 122,
      "chip": "ym2612"
    },
    {
      "channel": 0,
      "note": 62,
      "start": 84.5069,
      "duration": 0.3139,
      "velocity": 95,
      "chip": "ym2612"
    },
    {
      "channel": 4,
      "note": 67,
      "start": 84.5099,
      "duration": 0.1278,
      "velocity": 122,
      "chip": "ym2612"
    },
    {
      "channel": 5,
      "note": 67,
      "start": 84.5128,
      "duration": 0.125,
      "velocity": 122,
      "chip": "ym2612"
    },
    {
      "channel": 4,
      "note": 69,
      "start": 84.6743,
      "duration": 0.1468,
      "velocity": 122,
      "chip": "ym2612"
    },
    {
      "channel": 5,
      "note": 69,
      "start": 84.6772,
      "duration": 0.144,
      "velocity": 122,
      "chip": "ym2612"
    },
    {
      "channel": 0,
      "note": 69,
      "start": 84.8569,
      "duration": 0.314,
      "velocity": 95,
      "chip": "ym2612"
    },
    {
      "channel": 4,
      "note": 71,
      "start": 84.8618,
      "duration": 0.1261,
      "velocity": 122,
      "chip": "ym2612"
    },
    {
      "channel": 5,
      "note": 67,
      "start": 84.8646,
      "duration": 0.1234,
      "velocity": 122,
      "chip": "ym2612"
    },
    {
      "channel": 3,
      "note": 69,
      "start": 84.8672,
      "duration": 0.1205,
      "velocity": 127,
      "chip": "ym2612"
    },
    {
      "channel": 4,
      "note": 73,
      "start": 85.0244,
      "duration": 0.1467,
      "velocity": 122,
      "chip": "ym2612"
    },
    {
      "channel": 5,
      "note": 69,
      "start": 85.0273,
      "duration": 0.144,
      "velocity": 122,
      "chip": "ym2612"
    },
    {
      "channel": 0,
      "note": 71,
      "start": 85.207,
      "duration": 0.3139,
      "velocity": 95,
      "chip": "ym2612"
    },
    {
      "channel": 4,
      "note": 71,
      "start": 85.21,
      "duration": 0.1445,
      "velocity": 122,
      "chip": "ym2612"
    },
    {
      "channel": 5,
      "note": 71,
      "start": 85.2129,
      "duration": 0.1417,
      "velocity": 122,
      "chip": "ym2612"
    },
    {
      "channel": 1,
      "note": 57,
      "start": 85.2154,
      "duration": 0.1389,
      "velocity": 118,
      "chip": "ym2612"
    },
    {
      "channel": 4,
      "note": 73,
      "start": 85.3744,
      "duration": 0.1468,
      "velocity": 122,
      "chip": "ym2612"
    },
    {
      "channel": 5,
      "note": 73,
      "start": 85.3772,
      "duration": 0.144,
      "velocity": 122,
      "chip": "ym2612"
    },
    {
      "channel": 0,
      "note": 74,
      "start": 85.557,
      "duration": 0.3139,
      "velocity": 95,
      "chip": "ym2612"
    },
    {
      "channel": 4,
      "note": 69,
      "start": 85.56,
      "duration": 0.1443,
      "velocity": 122,
      "chip": "ym2612"
    },
    {
      "channel": 5,
      "note": 71,
      "start": 85.5629,
      "duration": 0.1415,
      "velocity": 122,
      "chip": "ym2612"
    },
    {
      "channel": 4,
      "note": 71,
      "start": 85.7243,
      "duration": 0.1469,
      "velocity": 122,
      "chip": "ym2612"
    },
    {
      "channel": 5,
      "note": 73,
      "start": 85.7272,
      "duration": 0.1441,
      "velocity": 122,
      "chip": "ym2612"
    },
    {
      "channel": 1,
      "note": 57,
      "start": 85.7298,
      "duration": 0.1413,
      "velocity": 118,
      "chip": "ym2612"
    },
    {
      "channel": 0,
      "note": 69,
      "start": 85.907,
      "duration": 0.3139,
      "velocity": 95,
      "chip": "ym2612"
    },
    {
      "channel": 4,
      "note": 69,
      "start": 85.91,
      "duration": 0.1444,
      "velocity": 122,
      "chip": "ym2612"
    },
    {
      "channel": 5,
      "note": 69,
      "start": 85.9129,
      "duration": 0.1416,
      "velocity": 122,
      "chip": "ym2612"
    },
    {
      "channel": 4,
      "note": 71,
      "start": 86.0747,
      "duration": 0.1464,
      "velocity": 122,
      "chip": "ym2612"
    },
    {
      "channel": 5,
      "note": 71,
      "start": 86.0776,
      "duration": 0.1437,
      "velocity": 122,
      "chip": "ym2612"
    },
    {
      "channel": 0,
      "note": 71,
      "start": 86.257,
      "duration": 0.3139,
      "velocity": 95,
      "chip": "ym2612"
    },
    {
      "channel": 4,
      "note": 67,
      "start": 86.26,
      "duration": 0.1444,
      "velocity": 122,
      "chip": "ym2612"
    },
    {
      "channel": 5,
      "note": 69,
      "start": 86.2629,
      "duration": 0.1416,
      "velocity": 122,
      "chip": "ym2612"
    },
    {
      "channel": 3,
      "note": 69,
      "start": 86.2654,
      "duration": 0.1388,
      "velocity": 127,
      "chip": "ym2612"
    },
    {
      "channel": 4,
      "note": 69,
      "start": 86.4244,
      "duration": 0.1468,
      "velocity": 122,
      "chip": "ym2612"
    },
    {
      "channel": 5,
      "note": 71,
      "start": 86.4272,
      "duration": 0.144,
      "velocity": 122,
      "chip": "ym2612"
    },
    {
      "channel": 0,
      "note": 67,
      "start": 86.607,
      "duration": 0.3138,
      "velocity": 95,
      "chip": "ym2612"
    },
    {
      "channel": 4,
      "note": 67,
      "start": 86.61,
      "duration": 0.1444,
      "velocity": 122,
      "chip": "ym2612"
    },
    {
      "channel": 5,
      "note": 67,
      "start": 86.6132,
      "duration": 0.1413,
      "velocity": 122,
      "chip": "ym2612"
    },
    {
      "channel": 1,
      "note": 57,
      "start": 86.6158,
      "duration": 0.1384,
      "velocity": 118,
      "chip": "ym2612"
    },
    {
      "channel": 4,
      "note": 69,
      "start": 86.7742,
      "duration": 0.1468,
      "velocity": 122,
      "chip": "ym2612"
    },
    {
      "channel": 5,
      "note": 69,
      "start": 86.7771,
      "duration": 0.1441,
      "velocity": 122,
      "chip": "ym2612"
    },
    {
      "channel": 0,
      "note": 55,
      "start": 86.9569,
      "duration": 0.314,
      "velocity": 95,
      "chip": "ym2612"
    },
    {
      "channel": 2,
      "note": 76,
      "start": 86.96,
      "duration": 8.3779,
      "velocity": 86,
      "chip": "ym2612"
    },
    {
      "channel": 4,
      "note": 67,
      "start": 86.963,
      "duration": 0.1415,
      "velocity": 122,
      "chip": "ym2612"
    },
    {
      "channel": 5,
      "note": 67,
      "start": 86.9658,
      "duration": 0.1388,
      "velocity": 122,
      "chip": "ym2612"
    },
    {
      "channel": 1,
      "note": 57,
      "start": 86.9684,
      "duration": 0.1358,
      "velocity": 118,
      "chip": "ym2612"
    },
    {
      "channel": 4,
      "note": 69,
      "start": 87.1243,
      "duration": 0.1468,
      "velocity": 122,
      "chip": "ym2612"
    },
    {
      "channel": 5,
      "note": 69,
      "start": 87.1272,
      "duration": 0.1441,
      "velocity": 122,
      "chip": "ym2612"
    },
    {
      "channel": 0,
      "note": 62,
      "start": 87.307,
      "duration": 0.3138,
      "velocity": 95,
      "chip": "ym2612"
    },
    {
      "channel": 4,
      "note": 67,
      "start": 87.31,
      "duration": 0.1443,
      "velocity": 122,
      "chip": "ym2612"
    },
    {
      "channel": 5,
      "note": 67,
      "start": 87.3129,
      "duration": 0.1415,
      "velocity": 122,
      "chip": "ym2612"
    },
    {
      "channel": 4,
      "note": 69,
      "start": 87.491,
      "duration": 0.13,
      "velocity": 122,
      "chip": "ym2612"
    },
    {
      "channel": 5,
      "note": 69,
      "start": 87.4939,
      "duration": 0.1273,
      "velocity": 122,
      "chip": "ym2612"
    },
    {
      "channel": 0,
      "note": 69,
      "start": 87.6569,
      "duration": 0.3139,
      "velocity": 95,
      "chip": "ym2612"
    },
    {
      "channel": 4,
      "note": 66,
      "start": 87.6614,
      "duration": 0.143,
      "velocity": 122,
      "chip": "ym2612"
    },
    {
      "channel": 5,
      "note": 67,
      "start": 87.6642,
      "duration": 0.1403,
      "velocity": 122,
      "chip": "ym2612"
    },
    {
      "channel": 3,
      "note": 69,
      "start": 87.6668,
      "duration": 0.1374,
      "velocity": 127,
      "chip": "ym2612"
    },
    {
      "channel": 4,
      "note": 67,
      "start": 87.841,
      "duration": 0.1301,
      "velocity": 122,
      "chip": "ym2612"
    },
    {
      "channel": 5,
      "note": 69,
      "start": 87.8439,
      "duration": 0.1274,
      "velocity": 122,
      "chip": "ym2612"
    },
    {
      "channel": 0,
      "note": 71,
      "start": 88.0071,
      "duration": 0.3138,
      "velocity": 95,
      "chip": "ym2612"
    },
    {
      "channel": 4,
      "note": 66,
      "start": 88.01,
      "duration": 0.1443,
      "velocity": 122,
      "chip": "ym2612"
    },
    {
      "channel": 5,
      "note": 66,
      "start": 88.013,
      "duration": 0.1415,
      "velocity": 122,
      "chip": "ym2612"
    },
    {
      "channel": 1,
      "note": 57,
      "start": 88.0156,
      "duration": 0.1387,
      "velocity": 118,
      "chip": "ym2612"
    },
    {
      "channel": 4,
      "note": 67,
      "start": 88.191,
      "duration": 0.13,
      "velocity": 122,
      "chip": "ym2612"
    },
    {
      "channel": 5,
      "note": 67,
      "start": 88.1939,
      "duration": 0.1272,
      "velocity": 122,
      "chip": "ym2612"
    },
    {
      "channel": 0,
      "note": 74,
      "start": 88.357,
      "duration": 0.3138,
      "velocity": 95,
      "chip": "ym2612"
    },
    {
      "channel": 4,
      "note": 64,
      "start": 88.36,
      "duration": 0.1443,
      "velocity": 122,
      "chip": "ym2612"
    },
    {
      "channel": 5,
      "note": 66,
      "start": 88.3629,
      "duration": 0.1415,
      "velocity": 122,
      "chip": "ym2612"
    },
    {
      "channel": 4,
      "note": 66,
      "start": 88.541,
      "duration": 0.1301,
      "velocity": 122,
      "chip": "ym2612"
    },
    {
      "channel": 5,
      "note": 67,
      "start": 88.5439,
      "duration": 0.1274,
      "velocity": 122,
      "chip": "ym2612"
    },
    {
      "channel": 1,
      "note": 57,
      "start": 88.5469,
      "duration": 0.1241,
      "velocity": 118,
      "chip": "ym2612"
    },
    {
      "channel": 0,
      "note": 69,
      "start": 88.7073,
      "duration": 0.3135,
      "velocity": 95,
      "chip": "ym2612"
    },
    {
      "channel": 4,
      "note": 64,
      "start": 88.7102,
      "duration": 0.1441,
      "velocity": 122,
      "chip": "ym2612"
    },
    {
      "channel": 5,
      "note": 64,
      "start": 88.7132,
      "duration": 0.1413,
      "velocity": 122,
      "chip": "ym2612"
    },
    {
      "channel": 4,
      "note": 66,
      "start": 88.8914,
      "duration": 0.1296,
      "velocity": 122,
      "chip": "ym2612"
    },
    {
      "channel": 5,
      "note": 66,
      "start": 88.8943,
      "duration": 0.1269,
      "velocity": 122,
      "chip": "ym2612"
    },
    {
      "channel": 0,
      "note": 71,
      "start": 89.0573,
      "duration": 0.6803,
      "velocity": 95,
      "chip": "ym2612"
    },
    {
      "channel": 4,
      "note": 62,
      "start": 89.0602,
      "duration": 0.1441,
      "velocity": 122,
      "chip": "ym2612"
    },
    {
      "channel": 5,
      "note": 64,
      "start": 89.0631,
      "duration": 0.1414,
      "velocity": 122,
      "chip": "ym2612"
    },
    {
      "channel": 3,
      "note": 69,
      "start": 89.0657,
      "duration": 0.1385,
      "velocity": 127,
      "chip": "ym2612"
    },
    {
      "channel": 4,
      "note": 64,
      "start": 89.241,
      "duration": 0.1467,
      "velocity": 122,
      "chip": "ym2612"
    },
    {
      "channel": 5,
      "note": 66,
      "start": 89.2439,
      "duration": 0.144,
      "velocity": 122,
      "chip": "ym2612"
    },
    {
      "channel": 4,
      "note": 62,
      "start": 89.4077,
      "duration": 0.1468,
      "velocity": 122,
      "chip": "ym2612"
    },
    {
      "channel": 5,
      "note": 62,
      "start": 89.4109,
      "duration": 0.1437,
      "velocity": 122,
      "chip": "ym2612"
    },
    {
      "channel": 1,
      "note": 57,
      "start": 89.4135,
      "duration": 0.1407,
      "velocity": 118,
      "chip": "ym2612"
    },
    {
      "channel": 4,
      "note": 64,
      "start": 89.5909,
      "duration": 0.1469,
      "velocity": 122,
      "chip": "ym2612"
    },
    {
      "channel": 5,
      "note": 64,
      "start": 89.5939,
      "duration": 0.144,
      "velocity": 122,
      "chip": "ym2612"
    },
    {
      "channel": 0,
      "note": 59,
      "start": 89.7572,
      "duration": 0.3303,
      "velocity": 95,
      "chip": "ym2612"
    },
    {
      "channel": 4,
      "note": 71,
      "start": 89.7602,
      "duration": 0.1442,
      "velocity": 122,
      "chip": "ym2612"
    },
    {
      "channel": 1,
      "note": 57,
      "start": 89.7629,
      "duration": 0.1413,
      "velocity": 118,
      "chip": "ym2612"
    },
    {
      "channel": 4,
      "note": 73,
      "start": 89.941,
      "duration": 0.1467,
      "velocity": 122,
      "chip": "ym2612"
    },
    {
      "channel": 0,
      "note": 66,
      "start": 90.107,
      "duration": 0.3305,
      "velocity": 95,
      "chip": "ym2612"
    },
    {
      "channel": 4,
      "note": 71,
      "start": 90.11,
      "duration": 0.1443,
      "velocity": 122,
      "chip": "ym2612"
    },
    {
      "channel": 5,
      "note": 71,
      "start": 90.113,
      "duration": 0.1414,
      "velocity": 122,
      "chip": "ym2612"
    },
    {
      "channel": 4,
      "note": 73,
      "start": 90.291,
      "duration": 0.1468,
      "velocity": 122,
      "chip": "ym2612"
    },
    {
      "channel": 5,
      "note": 73,
      "start": 90.2939,
      "duration": 0.144,
      "velocity": 122,
      "chip": "ym2612"
    },
    {
      "channel": 0,
      "note": 73,
      "start": 90.4569,
      "duration": 0.3306,
      "velocity": 95,
      "chip": "ym2612"
    },
    {
      "channel": 4,
      "note": 74,
      "start": 90.4599,
      "duration": 0.1446,
      "velocity": 122,
      "chip": "ym2612"
    },
    {
      "channel": 5,
      "note": 71,
      "start": 90.4628,
      "duration": 0.1418,
      "velocity": 122,
      "chip": "ym2612"
    },
    {
      "channel": 3,
      "note": 69,
      "start": 90.4653,
      "duration": 0.139,
      "velocity": 127,
      "chip": "ym2612"
    },
    {
      "channel": 4,
      "note": 76,
      "start": 90.6409,
      "duration": 0.1468,
      "velocity": 122,
      "chip": "ym2612"
    },
    {
      "channel": 5,
      "note": 73,
      "start": 90.6438,
      "duration": 0.1441,
      "velocity": 122,
      "chip": "ym2612"
    },
    {
      "channel": 0,
      "note": 74,
      "start": 90.8069,
      "duration": 0.3306,
      "velocity": 95,
      "chip": "ym2612"
    },
    {
      "channel": 4,
      "note": 74,
      "start": 90.8099,
      "duration": 0.1445,
      "velocity": 122,
      "chip": "ym2612"
    },
    {
      "channel": 5,
      "note": 74,
      "start": 90.8128,
      "duration": 0.1417,
      "velocity": 122,
      "chip": "ym2612"
    },
    {
      "channel": 1,
      "note": 57,
      "start": 90.8154,
      "duration": 0.1388,
      "velocity": 118,
      "chip": "ym2612"
    },
    {
      "channel": 4,
      "note": 76,
      "start": 90.9909,
      "duration": 0.1469,
      "velocity": 122,
      "chip": "ym2612"
    },
    {
      "channel": 5,
      "note": 76,
      "start": 90.9938,
      "duration": 0.1441,
      "velocity": 122,
      "chip": "ym2612"
    },
    {
      "channel": 0,
      "note": 78,
      "start": 91.1569,
      "duration": 0.3307,
      "velocity": 95,
      "chip": "ym2612"
    },
    {
      "channel": 4,
      "note": 73,
      "start": 91.1613,
      "duration": 0.1431,
      "velocity": 122,
      "chip": "ym2612"
    },
    {
      "channel": 5,
      "note": 74,
      "start": 91.1642,
      "duration": 0.1403,
      "velocity": 122,
      "chip": "ym2612"
    },
    {
      "channel": 4,
      "note": 74,
      "start": 91.3411,
      "duration": 0.1468,
      "velocity": 122,
      "chip": "ym2612"
    },
    {
      "channel": 5,
      "note": 76,
      "start": 91.3439,
      "duration": 0.144,
      "velocity": 122,
      "chip": "ym2612"
    },
    {
      "channel": 1,
      "note": 57,
      "start": 91.3466,
      "duration": 0.1411,
      "velocity": 118,
      "chip": "ym2612"
    },
    {
      "channel": 0,
      "note": 73,
      "start": 91.5237,
      "duration": 0.3139,
      "velocity": 95,
      "chip": "ym2612"
    },
    {
      "channel": 4,
      "note": 73,
      "start": 91.5266,
      "duration": 0.1278,
      "velocity": 122,
      "chip": "ym2612"
    },
    {
      "channel": 5,
      "note": 73,
      "start": 91.5296,
      "duration": 0.125,
      "velocity": 122,
      "chip": "ym2612"
    },
    {
      "channel": 4,
      "note": 74,
      "start": 91.6914,
      "duration": 0.1464,
      "velocity": 122,
      "chip": "ym2612"
    },
    {
      "channel": 5,
      "note": 74,
      "start": 91.6943,
      "duration": 0.1437,
      "velocity": 122,
      "chip": "ym2612"
    },
    {
      "channel": 0,
      "note": 74,
      "start": 91.8736,
      "duration": 0.3139,
      "velocity": 95,
      "chip": "ym2612"
    },
    {
      "channel": 4,
      "note": 71,
      "start": 91.8766,
      "duration": 0.1277,
      "velocity": 122,
      "chip": "ym2612"
    },
    {
      "channel": 5,
      "note": 73,
      "start": 91.8795,
      "duration": 0.125,
      "velocity": 122,
      "chip": "ym2612"
    },
    {
      "channel": 3,
      "note": 69,
      "start": 91.8821,
      "duration": 0.1221,
      "velocity": 127,
      "chip": "ym2612"
    },
    {
      "channel": 4,
      "note": 73,
      "start": 92.041,
      "duration": 0.1468,
      "velocity": 122,
      "chip": "ym2612"
    },
    {
      "channel": 5,
      "note": 74,
      "start": 92.0438,
      "duration": 0.144,
      "velocity": 122,
      "chip": "ym2612"
    },
    {
      "channel": 0,
      "note": 71,
      "start": 92.2236,
      "duration": 0.3139,
      "velocity": 95,
      "chip": "ym2612"
    },
    {
      "channel": 4,
      "note": 71,
      "start": 92.2266,
      "duration": 0.1278,
      "velocity": 122,
      "chip": "ym2612"
    },
    {
      "channel": 5,
      "note": 71,
      "start": 92.2298,
      "duration": 0.1248,
      "velocity": 122,
      "chip": "ym2612"
    },
    {
      "channel": 1,
      "note": 57,
      "start": 92.2324,
      "duration": 0.1218,
      "velocity": 118,
      "chip": "ym2612"
    },
    {
      "channel": 4,
      "note": 73,
      "start": 92.391,
      "duration": 0.1467,
      "velocity": 122,
      "chip": "ym2612"
    },
    {
      "channel": 5,
      "note": 73,
      "start": 92.3939,
      "duration": 0.144,
      "velocity": 122,
      "chip": "ym2612"
    },
    {
      "channel": 0,
      "note": 59,
      "start": 92.5736,
      "duration": 0.3139,
      "velocity": 95,
      "chip": "ym2612"
    },
    {
      "channel": 4,
      "note": 71,
      "start": 92.5766,
      "duration": 0.1279,
      "velocity": 122,
      "chip": "ym2612"
    },
    {
      "channel": 5,
      "note": 71,
      "start": 92.5795,
      "duration": 0.1251,
      "velocity": 122,
      "chip": "ym2612"
    },
    {
      "channel": 1,
      "note": 57,
      "start": 92.5821,
      "duration": 0.1222,
      "velocity": 118,
      "chip": "ym2612"
    },
    {
      "channel": 4,
      "note": 73,
      "start": 92.741,
      "duration": 0.1467,
      "velocity": 122,
      "chip": "ym2612"
    },
    {
      "channel": 5,
      "note": 73,
      "start": 92.7439,
      "duration": 0.144,
      "velocity": 122,
      "chip": "ym2612"
    },
    {
      "channel": 0,
      "note": 66,
      "start": 92.9236,
      "duration": 0.3139,
      "velocity": 95,
      "chip": "ym2612"
    },
    {
      "channel": 4,
      "note": 71,
      "start": 92.9266,
      "duration": 0.1277,
      "velocity": 122,
      "chip": "ym2612"
    },
    {
      "channel": 5,
      "note": 71,
      "start": 92.9295,
      "duration": 0.1251,
      "velocity": 122,
      "chip": "ym2612"
    },
    {
      "channel": 4,
      "note": 73,
      "start": 93.091,
      "duration": 0.1468,
      "velocity": 122,
      "chip": "ym2612"
    },
    {
      "channel": 5,
      "note": 73,
      "start": 93.0938,
      "duration": 0.144,
      "velocity": 122,
      "chip": "ym2612"
    },
    {
      "channel": 0,
      "note": 73,
      "start": 93.274,
      "duration": 0.3136,
      "velocity": 95,
      "chip": "ym2612"
    },
    {
      "channel": 4,
      "note": 69,
      "start": 93.277,
      "duration": 0.1275,
      "velocity": 122,
      "chip": "ym2612"
    },
    {
      "channel": 5,
      "note": 71,
      "start": 93.2798,
      "duration": 0.1248,
      "velocity": 122,
      "chip": "ym2612"
    },
    {
      "channel": 3,
      "note": 69,
      "start": 93.2824,
      "duration": 0.1219,
      "velocity": 127,
      "chip": "ym2612"
    },
    {
      "channel": 4,
      "note": 71,
      "start": 93.441,
      "duration": 0.1468,
      "velocity": 122,
      "chip": "ym2612"
    },
    {
      "channel": 5,
      "note": 73,
      "start": 93.4439,
      "duration": 0.144,
      "velocity": 122,
      "chip": "ym2612"
    },
    {
      "channel": 0,
      "note": 74,
      "start": 93.6237,
      "duration": 0.3139,
      "velocity": 95,
      "chip": "ym2612"
    },
    {
      "channel": 4,
      "note": 69,
      "start": 93.6266,
      "duration": 0.1444,
      "velocity": 122,
      "chip": "ym2612"
    },
    {
      "channel": 5,
      "note": 69,
      "start": 93.6295,
      "duration": 0.1417,
      "velocity": 122,
      "chip": "ym2612"
    },
    {
      "channel": 1,
      "note": 57,
      "start": 93.6321,
      "duration": 0.1388,
      "velocity": 118,
      "chip": "ym2612"
    },
    {
      "channel": 4,
      "note": 71,
      "start": 93.791,
      "duration": 0.1468,
      "velocity": 122,
      "chip": "ym2612"
    },
    {
      "channel": 5,
      "note": 71,
      "start": 93.7938,
      "duration": 0.1441,
      "velocity": 122,
      "chip": "ym2612"
    },
    {
      "channel": 0,
      "note": 78,
      "start": 93.9737,
      "duration": 0.3139,
      "velocity": 95,
      "chip": "ym2612"
    },
    {
      "channel": 4,
      "note": 67,
      "start": 93.9766,
      "duration": 0.1444,
      "velocity": 122,
      "chip": "ym2612"
    },
    {
      "channel": 5,
      "note": 69,
      "start": 93.9796,
      "duration": 0.1416,
      "velocity": 122,
      "chip": "ym2612"
    },
    {
      "channel": 4,
      "note": 69,
      "start": 94.141,
      "duration": 0.1468,
      "velocity": 122,
      "chip": "ym2612"
    },
    {
      "channel": 5,
      "note": 71,
      "start": 94.1439,
      "duration": 0.144,
      "velocity": 122,
      "chip": "ym2612"
    },
    {
      "channel": 1,
      "note": 57,
      "start": 94.1469,
      "duration": 0.1408,
      "velocity": 118,
      "chip": "ym2612"
    },
    {
      "channel": 0,
      "note": 73,
      "start": 94.3235,
      "duration": 0.3139,
      "velocity": 95,
      "chip": "ym2612"
    },
    {
      "channel": 4,
      "note": 67,
      "start": 94.3266,
      "duration": 0.1445,
      "velocity": 122,
      "chip": "ym2612"
    },
    {
      "channel": 5,
      "note": 67,
      "start": 94.3295,
      "duration": 0.1417,
      "velocity": 122,
      "chip": "ym2612"
    },
    {
      "channel": 4,
      "note": 69,
      "start": 94.4914,
      "duration": 0.1463,
      "velocity": 122,
      "chip": "ym2612"
    },
    {
      "channel": 5,
      "note": 69,
      "start": 94.4943,
      "duration": 0.1436,
      "velocity": 122,
      "chip": "ym2612"
    },
    {
      "channel": 0,
      "note": 74,
      "start": 94.6739,
      "duration": 0.6635,
      "velocity": 95,
      "chip": "ym2612"
    },
    {
      "channel": 4,
      "note": 66,
      "start": 94.6769,
      "duration": 0.1442,
      "velocity": 122,
      "chip": "ym2612"
    },
    {
      "channel": 5,
      "note": 67,
      "start": 94.6798,
      "duration": 0.1415,
      "velocity": 122,
      "chip": "ym2612"
    },
    {
      "channel": 3,
      "note": 69,
      "start": 94.6824,
      "duration": 0.1386,
      "velocity": 127,
      "chip": "ym2612"
    },
    {
      "channel": 4,
      "note": 67,
      "start": 94.841,
      "duration": 0.1466,
      "velocity": 122,
      "chip": "ym2612"
    },
    {
      "channel": 5,
      "note": 69,
      "start": 94.8438,
      "duration": 0.1439,
      "velocity": 122,
      "chip": "ym2612"
    },
    {
      "channel": 4,
      "note": 66,
      "start": 95.0244,
      "duration": 0.1467,
      "velocity": 122,
      "chip": "ym2612"
    },
    {
      "channel": 5,
      "note": 66,
      "start": 95.0276,
      "duration": 0.1436,
      "velocity": 122,
      "chip": "ym2612"
    },
    {
      "channel": 1,
      "note": 57,
      "start": 95.0302,
      "duration": 0.1407,
      "velocity": 118,
      "chip": "ym2612"
    },
    {
      "channel": 4,
      "note": 67,
      "start": 95.191,
      "duration": 0.1467,
      "velocity": 122,
      "chip": "ym2612"
    },
    {
      "channel": 5,
      "note": 67,
      "start": 95.1941,
      "duration": 0.1438,
      "velocity": 122,
      "chip": "ym2612"
    },
    {
      "channel": 0,
      "note": 59,
      "start": 95.3738,
      "duration": 0.3137,
      "velocity": 95,
      "chip": "ym2612"
    },
    {
      "channel": 4,
      "note": 71,
      "start": 95.3768,
      "duration": 0.1442,
      "velocity": 122,
      "chip": "ym2612"
    },
    {
      "channel": 1,
      "note": 57,
      "start": 95.3795,
      "duration": 0.1414,
      "velocity": 118,
      "chip": "ym2612"
    },
    {
      "channel": 4,
      "note": 73,
      "start": 95.541,
      "duration": 0.1468,
      "velocity": 122,
      "chip": "ym2612"
    },
    {
      "channel": 0,
      "note": 66,
      "start": 95.7236,
      "duration": 0.3139,
      "velocity": 95,
      "chip": "ym2612"
    },
    {
      "channel": 4,
      "note": 71,
      "start": 95.7266,
      "duration": 0.1444,
      "velocity": 122,
      "chip": "ym2612"
    },
    {
      "channel": 5,
      "note": 71,
      "start": 95.7296,
      "duration": 0.1415,
      "velocity": 122,
      "chip": "ym2612"
    },
    {
      "channel": 4,
      "note": 73,
      "start": 95.9077,
      "duration": 0.13,
      "velocity": 122,
      "chip": "ym2612"
    },
    {
      "channel": 5,
      "note": 73,
      "start": 95.9105,
      "duration": 0.1273,
      "velocity": 122,
      "chip": "ym2612"
    },
    {
      "channel": 0,
      "note": 73,
      "start": 96.0736,
      "duration": 0.3139,
      "velocity": 95,
      "chip": "ym2612"
    },
    {
      "channel": 4,
      "note": 74,
      "start": 96.0766,
      "duration": 0.1445,
      "velocity": 122,
      "chip": "ym2612"
    },
    {
      "channel": 5,
      "note": 71,
      "start": 96.0795,
      "duration": 0.1417,
      "velocity": 122,
      "chip": "ym2612"
    },
    {
      "channel": 3,
      "note": 69,
      "start": 96.0821,
      "duration": 0.1389,
      "velocity": 127,
      "chip": "ym2612"
    },
    {
      "channel": 4,
      "note": 76,
      "start": 96.2576,
      "duration": 0.1301,
      "velocity": 122,
      "chip": "ym2612"
    },
    {
      "channel": 5,
      "note": 73,
      "start": 96.2605,
      "duration": 0.1273,
      "velocity": 122,
      "chip": "ym2612"
    },
    {
      "channel": 0,
      "note": 74,
      "start": 96.4236,
      "duration": 0.3139,
      "velocity": 95,
      "chip": "ym2612"
    },
    {
      "channel": 4,
      "note": 74,
      "start": 96.4266,
      "duration": 0.1445,
      "velocity": 122,
      "chip": "ym2612"
    },
    {
      "channel": 5,
      "note": 74,
      "start": 96.4295,
      "duration": 0.1418,
      "velocity": 122,
      "chip": "ym2612"
    },
    {
      "channel": 1,
      "note": 57,
      "start": 96.4321,
      "duration": 0.1389,
      "velocity": 118,
      "chip": "ym2612"
    },
    {
      "channel": 4,
      "note": 76,
      "start": 96.6076,
      "duration": 0.1301,
      "velocity": 122,
      "chip": "ym2612"
    },
    {
      "channel": 5,
      "note": 76,
      "start": 96.6104,
      "duration": 0.1274,
      "velocity": 122,
      "chip": "ym2612"
    },
    {
      "channel": 0,
      "note": 78,
      "start": 96.7736,
      "duration": 0.3139,
      "velocity": 95,
      "chip": "ym2612"
    },
    {
      "channel": 4,
      "note": 73,
      "start": 96.7766,
      "duration": 0.1444,
      "velocity": 122,
      "chip": "ym2612"
    },
    {
      "channel": 5,
      "note": 74,
      "start": 96.7795,
      "duration": 0.1417,
      "velocity": 122,
      "chip": "ym2612"
    },
    {
      "channel": 4,
      "note": 74,
      "start": 96.9577,
      "duration": 0.1301,
      "velocity": 122,
      "chip": "ym2612"
    },
    {
      "channel": 5,
      "note": 76,
      "start": 96.9605,
      "duration": 0.1274,
      "velocity": 122,
      "chip": "ym2612"
    },
    {
      "channel": 1,
      "note": 57,
      "start": 96.9632,
      "duration": 0.1245,
      "velocity": 118,
      "chip": "ym2612"
    },
    {
      "channel": 0,
      "note": 73,
      "start": 97.1235,
      "duration": 0.314,
      "velocity": 95,
      "chip": "ym2612"
    },
    {
      "channel": 4,
      "note": 73,
      "start": 97.1265,
      "duration": 0.1445,
      "velocity": 122,
      "chip": "ym2612"
    },
    {
      "channel": 5,
      "note": 73,
      "start": 97.1295,
      "duration": 0.1417,
      "velocity": 122,
      "chip": "ym2612"
    },
    {
      "channel": 4,
      "note": 74,
      "start": 97.3079,
      "duration": 0.1298,
      "velocity": 122,
      "chip": "ym2612"
    },
    {
      "channel": 5,
      "note": 74,
      "start": 97.3109,
      "duration": 0.1271,
      "velocity": 122,
      "chip": "ym2612"
    },
    {
      "channel": 0,
      "note": 74,
      "start": 97.4737,
      "duration": 0.3139,
      "velocity": 95,
      "chip": "ym2612"
    },
    {
      "channel": 4,
      "note": 71,
      "start": 97.4766,
      "duration": 0.1445,
      "velocity": 122,
      "chip": "ym2612"
    },
    {
      "channel": 5,
      "note": 73,
      "start": 97.4795,
      "duration": 0.1417,
      "velocity": 122,
      "chip": "ym2612"
    },
    {
      "channel": 3,
      "note": 69,
      "start": 97.4825,
      "duration": 0.1385,
      "velocity": 127,
      "chip": "ym2612"
    },
    {
      "channel": 4,
      "note": 73,
      "start": 97.6576,
      "duration": 0.1302,
      "velocity": 122,
      "chip": "ym2612"
    },
    {
      "channel": 5,
      "note": 74,
      "start": 97.6604,
      "duration": 0.1275,
      "velocity": 122,
      "chip": "ym2612"
    },
    {
      "channel": 0,
      "note": 71,
      "start": 97.824,
      "duration": 0.3301,
      "velocity": 95,
      "chip": "ym2612"
    },
    {
      "channel": 4,
      "note": 71,
      "start": 97.827,
      "duration": 0.1441,
      "velocity": 122,
      "chip": "ym2612"
    },
    {
      "channel": 5,
      "note": 71,
      "start": 97.8303,
      "duration": 0.141,
      "velocity": 122,
      "chip": "ym2612"
    },
    {
      "channel": 1,
      "note": 57,
      "start": 97.8329,
      "duration": 0.138,
      "velocity": 118,
      "chip": "ym2612"
    },
    {
      "channel": 4,
      "note": 73,
      "start": 98.0076,
      "duration": 0.1468,
      "velocity": 122,
      "chip": "ym2612"
    },
    {
      "channel": 5,
      "note": 73,
      "start": 98.0104,
      "duration": 0.1441,
      "velocity": 122,
      "chip": "ym2612"
    },
    {
      "channel": 0,
      "note": 59,
      "start": 98.1736,
      "duration": 0.3305,
      "velocity": 95,
      "chip": "ym2612"
    },
    {
      "channel": 4,
      "note": 71,
      "start": 98.1766,
      "duration": 0.1445,
      "velocity": 122,
      "chip": "ym2612"
    },
    {
      "channel": 5,
      "note": 71,
      "start": 98.1795,
      "duration": 0.1418,
      "velocity": 122,
      "chip": "ym2612"
    },
    {
      "channel": 1,
      "note": 57,
      "start": 98.1821,
      "duration": 0.1389,
      "velocity": 118,
      "chip": "ym2612"
    },
    {
      "channel": 4,
      "note": 73,
      "start": 98.3576,
      "duration": 0.1468,
      "velocity": 122,
      "chip": "ym2612"
    },
    {
      "channel": 5,
      "note": 73,
      "start": 98.3604,
      "duration": 0.1441,
      "velocity": 122,
      "chip": "ym2612"
    },
    {
      "channel": 0,
      "note": 66,
      "start": 98.5236,
      "duration": 0.3306,
      "velocity": 95,
      "chip": "ym2612"
    },
    {
      "channel": 4,
      "note": 71,
      "start": 98.5266,
      "duration": 0.1444,
      "velocity": 122,
      "chip": "ym2612"
    },
    {
      "channel": 5,
      "note": 71,
      "start": 98.5295,
      "duration": 0.1417,
      "velocity": 122,
      "chip": "ym2612"
    },
    {
      "channel": 4,
      "note": 73,
      "start": 98.7077,
      "duration": 0.1468,
      "velocity": 122,
      "chip": "ym2612"
    },
    {
      "channel": 5,
      "note": 73,
      "start": 98.7105,
      "duration": 0.144,
      "velocity": 122,
      "chip": "ym2612"
    },
    {
      "channel": 0,
      "note": 73,
      "start": 98.8735,
      "duration": 0.3306,
      "velocity": 95,
      "chip": "ym2612"
    },
    {
      "channel": 4,
      "note": 69,
      "start": 98.8765,
      "duration": 0.1444,
      "velocity": 122,
      "chip": "ym2612"
    },
    {
      "channel": 5,
      "note": 71,
      "start": 98.8795,
      "duration": 0.1417,
      "velocity": 122,
      "chip": "ym2612"
    },
    {
      "channel": 3,
      "note": 69,
      "start": 98.882,
      "duration": 0.1389,
      "velocity": 127,
      "chip": "ym2612"
    },
    {
      "channel": 4,
      "note": 71,
      "start": 99.0576,
      "duration": 0.1468,
      "velocity": 122,
      "chip": "ym2612"
    },
    {
      "channel": 5,
      "note": 73,
      "start": 99.0604,
      "duration": 0.1441,
      "velocity": 122,
      "chip": "ym2612"
    },
    {
      "channel": 0,
      "note": 74,
      "start": 99.2236,
      "duration": 0.3306,
      "velocity": 95,
      "chip": "ym2612"
    },
    {
      "channel": 4,
      "note": 69,
      "start": 99.2266,
      "duration": 0.1444,
      "velocity": 122,
      "chip": "ym2612"
    },
    {
      "channel": 5,
      "note": 69,
      "start": 99.2295,
      "duration": 0.1417,
      "velocity": 122,
      "chip": "ym2612"
    },
    {
      "channel": 1,
      "note": 57,
      "start": 99.2321,
      "duration": 0.1387,
      "velocity": 118,
      "chip": "ym2612"
    },
    {
      "channel": 4,
      "note": 71,
      "start": 99.4076,
      "duration": 0.1469,
      "velocity": 122,
      "chip": "ym2612"
    },
    {
      "channel": 5,
      "note": 71,
      "start": 99.4104,
      "duration": 0.1441,
      "velocity": 122,
      "chip": "ym2612"
    },
    {
      "channel": 0,
      "note": 78,
      "start": 99.5735,
      "duration": 0.3307,
      "velocity": 95,
      "chip": "ym2612"
    },
    {
      "channel": 4,
      "note": 67,
      "start": 99.5765,
      "duration": 0.1445,
      "velocity": 122,
      "chip": "ym2612"
    },
    {
      "channel": 5,
      "note": 69,
      "start": 99.5795,
      "duration": 0.1417,
      "velocity": 122,
      "chip": "ym2612"
    },
    {
      "channel": 4,
      "note": 69,
      "start": 99.7576,
      "duration": 0.1469,
      "velocity": 122,
      "chip": "ym2612"
    },
    {
      "channel": 5,
      "note": 71,
      "start": 99.7605,
      "duration": 0.1441,
      "velocity": 122,
      "chip": "ym2612"
    },
    {
      "channel": 1,
      "note": 57,
      "start": 99.7635,
      "duration": 0.1409,
      "velocity": 118,
      "chip": "ym2612"
    },
    {
      "channel": 0,
      "note": 73,
      "start": 99.9237,
      "duration": 0.3305,
      "velocity": 95,
      "chip": "ym2612"
    },
    {
      "channel": 4,
      "note": 67,
      "start": 99.9266,
      "duration": 0.1443,
      "velocity": 122,
      "chip": "ym2612"
    },
    {
      "channel": 5,
      "note": 67,
      "start": 99.9296,
      "duration": 0.1416,
      "velocity": 122,
      "chip": "ym2612"
    },
    {
      "channel": 4,
      "note": 69,
      "start": 100.1079,
      "duration": 0.1465,
      "velocity": 122,
      "chip": "ym2612"
    },
    {
      "channel": 5,
      "note": 69,
      "start": 100.1109,
      "duration": 0.1437,
      "velocity": 122,
      "chip": "ym2612"
    },
    {
      "channel": 0,
      "note": 74,
      "start": 100.2906,
      "duration": 0.6302,
      "velocity": 95,
      "chip": "ym2612"
    },
    {
      "channel": 4,
      "note": 66,
      "start": 100.2936,
      "duration": 0.1274,
      "velocity": 122,
      "chip": "ym2612"
    },
    {
      "channel": 5,
      "note": 67,
      "start": 100.2965,
      "duration": 0.1247,
      "velocity": 122,
      "chip": "ym2612"
    },
    {
      "channel": 3,
      "note": 69,
      "start": 100.2992,
      "duration": 0.1217,
      "velocity": 127,
      "chip": "ym2612"
    },
    {
      "channel": 4,
      "note": 67,
      "start": 100.4576,
      "duration": 0.1466,
      "velocity": 122,
      "chip": "ym2612"
    },
    {
      "channel": 5,
      "note": 69,
      "start": 100.4605,
      "duration": 0.1439,
      "velocity": 122,
      "chip": "ym2612"
    },
    {
      "channel": 4,
      "note": 66,
      "start": 100.641,
      "duration": 0.13,
      "velocity": 122,
      "chip": "ym2612"
    },
    {
      "channel": 5,
      "note": 66,
      "start": 100.6443,
      "duration": 0.1268,
      "velocity": 122,
      "chip": "ym2612"
    },
    {
      "channel": 1,
      "note": 57,
      "start": 100.6469,
      "duration": 0.124,
      "velocity": 118,
      "chip": "ym2612"
    },
    {
      "channel": 4,
      "note": 67,
      "start": 100.8077,
      "duration": 0.1133,
      "velocity": 122,
      "chip": "ym2612"
    },
    {
      "channel": 5,
      "note": 67,
      "start": 100.8107,
      "duration": 0.1104,
      "velocity": 122,
      "chip": "ym2612"
    },
    {
      "channel": 0,
      "note": 50,
      "start": 100.9916,
      "duration": 0.3126,
      "velocity": 95,
      "chip": "ym2612"
    },
    {
      "channel": 4,
      "note": 69,
      "start": 100.9976,
      "duration": 0.1235,
      "velocity": 122,
      "chip": "ym2612"
    },
    {
      "channel": 5,
      "note": 64,
      "start": 101.0018,
      "duration": 0.1194,
      "velocity": 122,
      "chip": "ym2612"
    },
    {
      "channel": 1,
      "note": 57,
      "start": 101.0069,
      "duration": 0.1139,
      "velocity": 118,
      "chip": "ym2612"
    },
    {
      "channel": 4,
      "note": 71,
      "start": 101.1576,
      "duration": 0.1468,
      "velocity": 122,
      "chip": "ym2612"
    },
    {
      "channel": 5,
      "note": 66,
      "start": 101.1605,
      "duration": 0.1441,
      "velocity": 122,
      "chip": "ym2612"
    },
    {
      "channel": 0,
      "note": 57,
      "start": 101.3403,
      "duration": 0.3138,
      "velocity": 95,
      "chip": "ym2612"
    },
    {
      "channel": 4,
      "note": 69,
      "start": 101.3433,
      "duration": 0.1276,
      "velocity": 122,
      "chip": "ym2612"
    },
    {
      "channel": 5,
      "note": 69,
      "start": 101.3462,
      "duration": 0.1248,
      "velocity": 122,
      "chip": "ym2612"
    },
    {
      "channel": 4,
      "note": 71,
      "start": 101.5076,
      "duration": 0.1467,
      "velocity": 122,
      "chip": "ym2612"
    },
    {
      "channel": 5,
      "note": 71,
      "start": 101.5105,
      "duration": 0.144,
      "velocity": 122,
      "chip": "ym2612"
    },
    {
      "channel": 0,
      "note": 62,
      "start": 101.6902,
      "duration": 0.3139,
      "velocity": 95,
      "chip": "ym2612"
    },
    {
      "channel": 4,
      "note": 73,
      "start": 101.6932,
      "duration": 0.1277,
      "velocity": 122,
      "chip": "ym2612"
    },
    {
      "channel": 5,
      "note": 69,
      "start": 101.6961,
      "duration": 0.125,
      "velocity": 122,
      "chip": "ym2612"
    },
    {
      "channel": 3,
      "note": 69,
      "start": 101.6992,
      "duration": 0.1217,
      "velocity": 127,
      "chip": "ym2612"
    },
    {
      "channel": 4,
      "note": 74,
      "start": 101.8576,
      "duration": 0.1467,
      "velocity": 122,
      "chip": "ym2612"
    },
    {
      "channel": 5,
      "note": 71,
      "start": 101.8605,
      "duration": 0.1439,
      "velocity": 122,
      "chip": "ym2612"
    },
    {
      "channel": 0,
      "note": 66,
      "start": 102.0401,
      "duration": 0.3139,
      "velocity": 95,
      "chip": "ym2612"
    },
    {
      "channel": 4,
      "note": 73,
      "start": 102.0431,
      "duration": 0.1444,
      "velocity": 122,
      "chip": "ym2612"
    },
    {
      "channel": 5,
      "note": 73,
      "start": 102.0461,
      "duration": 0.1416,
      "velocity": 122,
      "chip": "ym2612"
    },
    {
      "channel": 4,
      "note": 74,
      "start": 102.2075,
      "duration": 0.1468,
      "velocity": 122,
      "chip": "ym2612"
    },
    {
      "channel": 5,
      "note": 74,
      "start": 102.2104,
      "duration": 0.1441,
      "velocity": 122,
      "chip": "ym2612"
    },
    {
      "channel": 0,
      "note": 67,
      "start": 102.3902,
      "duration": 0.3139,
      "velocity": 95,
      "chip": "ym2612"
    },
    {
      "channel": 4,
      "note": 71,
      "start": 102.3932,
      "duration": 0.1443,
      "velocity": 122,
      "chip": "ym2612"
    },
    {
      "channel": 5,
      "note": 73,
      "start": 102.3961,
      "duration": 0.1416,
      "velocity": 122,
      "chip": "ym2612"
    },
    {
      "channel": 4,
      "note": 73,
      "start": 102.5575,
      "duration": 0.1468,
      "velocity": 122,
      "chip": "ym2612"
    },
    {
      "channel": 5,
      "note": 74,
      "start": 102.5604,
      "duration": 0.1441,
      "velocity": 122,
      "chip": "ym2612"
    },
    {
      "channel": 0,
      "note": 64,
      "start": 102.7401,
      "duration": 0.314,
      "velocity": 95,
      "chip": "ym2612"
    },
    {
      "channel": 4,
      "note": 71,
      "start": 102.7431,
      "duration": 0.1445,
      "velocity": 122,
      "chip": "ym2612"
    },
    {
      "channel": 5,
      "note": 71,
      "start": 102.746,
      "duration": 0.1417,
      "velocity": 122,
      "chip": "ym2612"
    },
    {
      "channel": 4,
      "note": 73,
      "start": 102.9075,
      "duration": 0.1468,
      "velocity": 122,
      "chip": "ym2612"
    },
    {
      "channel": 5,
      "note": 73,
      "start": 102.9104,
      "duration": 0.1441,
      "velocity": 122,
      "chip": "ym2612"
    },
    {
      "channel": 0,
      "note": 66,
      "start": 103.0902,
      "duration": 0.3139,
      "velocity": 95,
      "chip": "ym2612"
    },
    {
      "channel": 4,
      "note": 69,
      "start": 103.0936,
      "duration": 0.144,
      "velocity": 122,
      "chip": "ym2612"
    },
    {
      "channel": 5,
      "note": 71,
      "start": 103.0968,
      "duration": 0.1409,
      "velocity": 122,
      "chip": "ym2612"
    },
    {
      "channel": 4,
      "note": 71,
      "start": 103.2575,
      "duration": 0.1468,
      "velocity": 122,
      "chip": "ym2612"
    },
    {
      "channel": 5,
      "note": 73,
      "start": 103.2604,
      "duration": 0.1441,
      "velocity": 122,
      "chip": "ym2612"
    },
    {
      "channel": 0,
      "note": 57,
      "start": 103.4401,
      "duration": 0.3141,
      "velocity": 95,
      "chip": "ym2612"
    },
    {
      "channel": 4,
      "note": 69,
      "start": 103.4431,
      "duration": 0.1445,
      "velocity": 122,
      "chip": "ym2612"
    },
    {
      "channel": 5,
      "note": 69,
      "start": 103.446,
      "duration": 0.1417,
      "velocity": 122,
      "chip": "ym2612"
    },
    {
      "channel": 4,
      "note": 71,
      "start": 103.6075,
      "duration": 0.1468,
      "velocity": 122,
      "chip": "ym2612"
    },
    {
      "channel": 5,
      "note": 71,
      "start": 103.6104,
      "duration": 0.1441,
      "velocity": 122,
      "chip": "ym2612"
    },
    {
      "channel": 0,
      "note": 50,
      "start": 103.7901,
      "duration": 0.314,
      "velocity": 95,
      "chip": "ym2612"
    },
    {
      "channel": 4,
      "note": 69,
      "start": 103.7931,
      "duration": 0.1446,
      "velocity": 122,
      "chip": "ym2612"
    },
    {
      "channel": 5,
      "note": 69,
      "start": 103.796,
      "duration": 0.1418,
      "velocity": 122,
      "chip": "ym2612"
    },
    {
      "channel": 1,
      "note": 57,
      "start": 103.7985,
      "duration": 0.139,
      "velocity": 118,
      "chip": "ym2612"
    },
    {
      "channel": 4,
      "note": 71,
      "start": 103.9575,
      "duration": 0.1468,
      "velocity": 122,
      "chip": "ym2612"
    },
    {
      "channel": 5,
      "note": 71,
      "start": 103.9604,
      "duration": 0.1441,
      "velocity": 122,
      "chip": "ym2612"
    },
    {
      "channel": 0,
      "note": 57,
      "start": 104.1402,
      "duration": 0.3139,
      "velocity": 95,
      "chip": "ym2612"
    },
    {
      "channel": 4,
      "note": 69,
      "start": 104.1432,
      "duration": 0.1444,
      "velocity": 122,
      "chip": "ym2612"
    },
    {
      "channel": 5,
      "note": 69,
      "start": 104.1461,
      "duration": 0.1416,
      "velocity": 122,
      "chip": "ym2612"
    },
    {
      "channel": 4,
      "note": 71,
      "start": 104.3242,
      "duration": 0.1302,
      "velocity": 122,
      "chip": "ym2612"
    },
    {
      "channel": 5,
      "note": 71,
      "start": 104.3271,
      "duration": 0.1274,
      "velocity": 122,
      "chip": "ym2612"
    },
    {
      "channel": 0,
      "note": 62,
      "start": 104.4901,
      "duration": 0.3139,
      "velocity": 95,
      "chip": "ym2612"
    },
    {
      "channel": 4,
      "note": 67,
      "start": 104.4931,
      "duration": 0.1445,
      "velocity": 122,
      "chip": "ym2612"
    },
    {
      "channel": 5,
      "note": 69,
      "start": 104.496,
      "duration": 0.1418,
      "velocity": 122,
      "chip": "ym2612"
    },
    {
      "channel": 3,
      "note": 69,
      "start": 104.4986,
      "duration": 0.1389,
      "velocity": 127,
      "chip": "ym2612"
    },
    {
      "channel": 4,
      "note": 69,
      "start": 104.6742,
      "duration": 0.1301,
      "velocity": 122,
      "chip": "ym2612"
    },
    {
      "channel": 5,
      "note": 71,
      "start": 104.6771,
      "duration": 0.1273,
      "velocity": 122,
      "chip": "ym2612"
    },
    {
      "channel": 0,
      "note": 66,
      "start": 104.8401,
      "duration": 0.314,
      "velocity": 95,
      "chip": "ym2612"
    },
    {
      "channel": 4,
      "note": 67,
      "start": 104.8431,
      "duration": 0.1444,
      "velocity": 122,
      "chip": "ym2612"
    },
    {
      "channel": 5,
      "note": 67,
      "start": 104.846,
      "duration": 0.1417,
      "velocity": 122,
      "chip": "ym2612"
    },
    {
      "channel": 4,
      "note": 69,
      "start": 105.0242,
      "duration": 0.1302,
      "velocity": 122,
      "chip": "ym2612"
    },
    {
      "channel": 5,
      "note": 69,
      "start": 105.0271,
      "duration": 0.1274,
      "velocity": 122,
      "chip": "ym2612"
    },
    {
      "channel": 0,
      "note": 67,
      "start": 105.1905,
      "duration": 0.3136,
      "velocity": 95,
      "chip": "ym2612"
    },
    {
      "channel": 4,
      "note": 66,
      "start": 105.1934,
      "duration": 0.1441,
      "velocity": 122,
      "chip": "ym2612"
    },
    {
      "channel": 5,
      "note": 67,
      "start": 105.1964,
      "duration": 0.1413,
      "velocity": 122,
      "chip": "ym2612"
    },
    {
      "channel": 4,
      "note": 67,
      "start": 105.3742,
      "duration": 0.1301,
      "velocity": 122,
      "chip": "ym2612"
    },
    {
      "channel": 5,
      "note": 69,
      "start": 105.3771,
      "duration": 0.1273,
      "velocity": 122,
      "chip": "ym2612"
    },
    {
      "channel": 0,
      "note": 64,
      "start": 105.5402,
      "duration": 0.3139,
      "velocity": 95,
      "chip": "ym2612"
    },
    {
      "channel": 4,
      "note": 66,
      "start": 105.5432,
      "duration": 0.1444,
      "velocity": 122,
      "chip": "ym2612"
    },
    {
      "channel": 5,
      "note": 66,
      "start": 105.5461,
      "duration": 0.1417,
      "velocity": 122,
      "chip": "ym2612"
    },
    {
      "channel": 4,
      "note": 67,
      "start": 105.7242,
      "duration": 0.1302,
      "velocity": 122,
      "chip": "ym2612"
    },
    {
      "channel": 5,
      "note": 67,
      "start": 105.7271,
      "duration": 0.1274,
      "velocity": 122,
      "chip": "ym2612"
    },
    {
      "channel": 0,
      "note": 66,
      "start": 105.8904,
      "duration": 0.6803,
      "velocity": 95,
      "chip": "ym2612"
    },
    {
      "channel": 4,
      "note": 64,
      "start": 105.8938,
      "duration": 0.1438,
      "velocity": 122,
      "chip": "ym2612"
    },
    {
      "channel": 5,
      "note": 66,
      "start": 105.897,
      "duration": 0.1407,
      "velocity": 122,
      "chip": "ym2612"
    },
    {
      "channel": 4,
      "note": 66,
      "start": 106.0742,
      "duration": 0.1301,
      "velocity": 122,
      "chip": "ym2612"
    },
    {
      "channel": 5,
      "note": 67,
      "start": 106.0771,
      "duration": 0.1273,
      "velocity": 122,
      "chip": "ym2612"
    },
    {
      "channel": 4,
      "note": 64,
      "start": 106.2408,
      "duration": 0.1467,
      "velocity": 122,
      "chip": "ym2612"
    },
    {
      "channel": 5,
      "note": 64,
      "start": 106.2438,
      "duration": 0.1439,
      "velocity": 122,
      "chip": "ym2612"
    },
    {
      "channel": 4,
      "note": 66,
      "start": 106.424,
      "duration": 0.1469,
      "velocity": 122,
      "chip": "ym2612"
    },
    {
      "channel": 5,
      "note": 66,
      "start": 106.427,
      "duration": 0.1441,
      "velocity": 122,
      "chip": "ym2612"
    },
    {
      "channel": 0,
      "note": 50,
      "start": 106.5904,
      "duration": 0.0087,
      "velocity": 95,
      "chip": "ym2612"
    },
    {
      "channel": 4,
      "note": 69,
      "start": 106.5934,
      "duration": 0.0057,
      "velocity": 122,
      "chip": "ym2612"
    },
    {
      "channel": 5,
      "note": 64,
      "start": 106.5963,
      "duration": 0.0028,
      "velocity": 122,
      "chip": "ym2612"
    },
    {
      "channel": 1,
      "note": 57,
      "start": 106.599,
      "duration": 0.0,
      "velocity": 118,
      "chip": "ym2612"
    }
  ]
}