{
  "track_name": "13 - Eternal Champion's Stage",
  "duration_sec": 70.283,
  "sample_rate": 44100,
  "note_count": 1300,
  "unique_pitches": 50,
  "pitch_range": 53,
  "avg_note_duration": 0.1918,
  "reconstruction_stats": {
    "notes_reconstructed": 1300,
    "keyon_events": 1300,
    "keyoff_events": 1299,
    "orphan_keyons": 1,
    "unique_pitches": 50,
    "pitch_range": 53,
    "avg_duration_sec": 0.1918
  },
  "metadata": {
    "source": "E\\Eternal Champions\\13 - Eternal Champion's Stage.vgz"
  },
  "notes": [
    {
      "channel": 1,
      "note": 61,
      "start": 0.0,
      "duration": 0.307,
      "velocity": 105,
      "chip": "ym2612"
    },
    {
      "channel": 0,
      "note": 66,
      "start": 0.003,
      "duration": 0.3039,
      "velocity": 105,
      "chip": "ym2612"
    },
    {
      "channel": 2,
      "note": 54,
      "start": 0.0108,
      "duration": 0.113,
      "velocity": 92,
      "chip": "ym2612"
    },
    {
      "channel": 3,
      "note": 45,
      "start": 0.0224,
      "duration": 0.0345,
      "velocity": 117,
      "chip": "ym2612"
    },
    {
      "channel": 2,
      "note": 54,
      "start": 0.1436,
      "duration": 0.1468,
      "velocity": 92,
      "chip": "ym2612"
    },
    {
      "channel": 2,
      "note": 54,
      "start": 0.3106,
      "duration": 0.1464,
      "velocity": 92,
      "chip": "ym2612"
    },
    {
      "channel": 0,
      "note": 69,
      "start": 0.4771,
      "duration": 0.1964,
      "velocity": 105,
      "chip": "ym2612"
    },
    {
      "channel": 1,
      "note": 64,
      "start": 0.4797,
      "duration": 0.194,
      "velocity": 105,
      "chip": "ym2612"
    },
    {
      "channel": 2,
      "note": 54,
      "start": 0.4823,
      "duration": 0.1414,
      "velocity": 92,
      "chip": "ym2612"
    },
    {
      "channel": 3,
      "note": 45,
      "start": 0.485,
      "duration": 0.072,
      "velocity": 117,
      "chip": "ym2612"
    },
    {
      "channel": 2,
      "note": 54,
      "start": 0.6437,
      "duration": 0.1468,
      "velocity": 92,
      "chip": "ym2612"
    },
    {
      "channel": 3,
      "note": 45,
      "start": 0.6462,
      "duration": 0.0773,
      "velocity": 117,
      "chip": "ym2612"
    },
    {
      "channel": 0,
      "note": 61,
      "start": 0.8102,
      "duration": 0.1966,
      "velocity": 105,
      "chip": "ym2612"
    },
    {
      "channel": 1,
      "note": 66,
      "start": 0.8127,
      "duration": 0.1943,
      "velocity": 105,
      "chip": "ym2612"
    },
    {
      "channel": 2,
      "note": 54,
      "start": 0.8154,
      "duration": 0.1417,
      "velocity": 92,
      "chip": "ym2612"
    },
    {
      "channel": 3,
      "note": 45,
      "start": 0.8181,
      "duration": 0.0723,
      "velocity": 117,
      "chip": "ym2612"
    },
    {
      "channel": 2,
      "note": 54,
      "start": 0.9771,
      "duration": 0.1467,
      "velocity": 92,
      "chip": "ym2612"
    },
    {
      "channel": 0,
      "note": 64,
      "start": 1.1438,
      "duration": 0.313,
      "velocity": 105,
      "chip": "ym2612"
    },
    {
      "channel": 1,
      "note": 69,
      "start": 1.1464,
      "duration": 0.3105,
      "velocity": 105,
      "chip": "ym2612"
    },
    {
      "channel": 2,
      "note": 54,
      "start": 1.149,
      "duration": 0.1413,
      "velocity": 92,
      "chip": "ym2612"
    },
    {
      "channel": 3,
      "note": 45,
      "start": 1.1515,
      "duration": 0.0887,
      "velocity": 117,
      "chip": "ym2612"
    },
    {
      "channel": 2,
      "note": 54,
      "start": 1.327,
      "duration": 0.1302,
      "velocity": 92,
      "chip": "ym2612"
    },
    {
      "channel": 0,
      "note": 69,
      "start": 1.4941,
      "duration": 0.1627,
      "velocity": 105,
      "chip": "ym2612"
    },
    {
      "channel": 1,
      "note": 64,
      "start": 1.4966,
      "duration": 0.1603,
      "velocity": 105,
      "chip": "ym2612"
    },
    {
      "channel": 2,
      "note": 54,
      "start": 1.4993,
      "duration": 0.1244,
      "velocity": 92,
      "chip": "ym2612"
    },
    {
      "channel": 3,
      "note": 45,
      "start": 1.5018,
      "duration": 0.0718,
      "velocity": 117,
      "chip": "ym2612"
    },
    {
      "channel": 0,
      "note": 64,
      "start": 1.6604,
      "duration": 0.1631,
      "velocity": 105,
      "chip": "ym2612"
    },
    {
      "channel": 1,
      "note": 69,
      "start": 1.6629,
      "duration": 0.1607,
      "velocity": 105,
      "chip": "ym2612"
    },
    {
      "channel": 2,
      "note": 54,
      "start": 1.6655,
      "duration": 0.1249,
      "velocity": 92,
      "chip": "ym2612"
    },
    {
      "channel": 0,
      "note": 69,
      "start": 1.8271,
      "duration": 0.1631,
      "velocity": 105,
      "chip": "ym2612"
    },
    {
      "channel": 1,
      "note": 64,
      "start": 1.8296,
      "duration": 0.1607,
      "velocity": 105,
      "chip": "ym2612"
    },
    {
      "channel": 2,
      "note": 54,
      "start": 1.8323,
      "duration": 0.1248,
      "velocity": 92,
      "chip": "ym2612"
    },
    {
      "channel": 3,
      "note": 45,
      "start": 1.8349,
      "duration": 0.072,
      "velocity": 117,
      "chip": "ym2612"
    },
    {
      "channel": 0,
      "note": 64,
      "start": 1.9938,
      "duration": 0.1631,
      "velocity": 105,
      "chip": "ym2612"
    },
    {
      "channel": 1,
      "note": 69,
      "start": 1.9967,
      "duration": 0.1603,
      "velocity": 105,
      "chip": "ym2612"
    },
    {
      "channel": 2,
      "note": 54,
      "start": 1.9993,
      "duration": 0.1244,
      "velocity": 92,
      "chip": "ym2612"
    },
    {
      "channel": 3,
      "note": 45,
      "start": 2.0019,
      "duration": 0.0718,
      "velocity": 117,
      "chip": "ym2612"
    },
    {
      "channel": 0,
      "note": 68,
      "start": 2.1605,
      "duration": 0.163,
      "velocity": 105,
      "chip": "ym2612"
    },
    {
      "channel": 1,
      "note": 63,
      "start": 2.163,
      "duration": 0.1606,
      "velocity": 105,
      "chip": "ym2612"
    },
    {
      "channel": 2,
      "note": 54,
      "start": 2.1656,
      "duration": 0.1249,
      "velocity": 92,
      "chip": "ym2612"
    },
    {
      "channel": 3,
      "note": 45,
      "start": 2.1683,
      "duration": 0.0719,
      "velocity": 117,
      "chip": "ym2612"
    },
    {
      "channel": 2,
      "note": 54,
      "start": 2.3272,
      "duration": 0.13,
      "velocity": 92,
      "chip": "ym2612"
    },
    {
      "channel": 0,
      "note": 61,
      "start": 2.4938,
      "duration": 0.3798,
      "velocity": 105,
      "chip": "ym2612"
    },
    {
      "channel": 1,
      "note": 66,
      "start": 2.4963,
      "duration": 0.3774,
      "velocity": 105,
      "chip": "ym2612"
    },
    {
      "channel": 2,
      "note": 54,
      "start": 2.4997,
      "duration": 0.2908,
      "velocity": 92,
      "chip": "ym2612"
    },
    {
      "channel": 3,
      "note": 45,
      "start": 2.5024,
      "duration": 0.0712,
      "velocity": 117,
      "chip": "ym2612"
    },
    {
      "channel": 3,
      "note": 45,
      "start": 2.661,
      "duration": 0.0793,
      "velocity": 117,
      "chip": "ym2612"
    },
    {
      "channel": 2,
      "note": 54,
      "start": 2.8273,
      "duration": 0.1298,
      "velocity": 92,
      "chip": "ym2612"
    },
    {
      "channel": 2,
      "note": 54,
      "start": 2.9937,
      "duration": 0.1301,
      "velocity": 92,
      "chip": "ym2612"
    },
    {
      "channel": 0,
      "note": 69,
      "start": 3.1605,
      "duration": 0.1964,
      "velocity": 105,
      "chip": "ym2612"
    },
    {
      "channel": 1,
      "note": 64,
      "start": 3.163,
      "duration": 0.194,
      "velocity": 105,
      "chip": "ym2612"
    },
    {
      "channel": 2,
      "note": 54,
      "start": 3.1656,
      "duration": 0.1249,
      "velocity": 92,
      "chip": "ym2612"
    },
    {
      "channel": 3,
      "note": 45,
      "start": 3.1683,
      "duration": 0.072,
      "velocity": 117,
      "chip": "ym2612"
    },
    {
      "channel": 2,
      "note": 54,
      "start": 3.3269,
      "duration": 0.1302,
      "velocity": 92,
      "chip": "ym2612"
    },
    {
      "channel": 3,
      "note": 45,
      "start": 3.3297,
      "duration": 0.0772,
      "velocity": 117,
      "chip": "ym2612"
    },
    {
      "channel": 0,
      "note": 61,
      "start": 3.494,
      "duration": 0.1963,
      "velocity": 105,
      "chip": "ym2612"
    },
    {
      "channel": 1,
      "note": 66,
      "start": 3.4964,
      "duration": 0.194,
      "velocity": 105,
      "chip": "ym2612"
    },
    {
      "channel": 2,
      "note": 54,
      "start": 3.4991,
      "duration": 0.1246,
      "velocity": 92,
      "chip": "ym2612"
    },
    {
      "channel": 2,
      "note": 54,
      "start": 3.6604,
      "duration": 0.1301,
      "velocity": 92,
      "chip": "ym2612"
    },
    {
      "channel": 0,
      "note": 64,
      "start": 3.8271,
      "duration": 0.3131,
      "velocity": 105,
      "chip": "ym2612"
    },
    {
      "channel": 1,
      "note": 69,
      "start": 3.8297,
      "duration": 0.3107,
      "velocity": 105,
      "chip": "ym2612"
    },
    {
      "channel": 2,
      "note": 54,
      "start": 3.8323,
      "duration": 0.1249,
      "velocity": 92,
      "chip": "ym2612"
    },
    {
      "channel": 3,
      "note": 45,
      "start": 3.835,
      "duration": 0.072,
      "velocity": 117,
      "chip": "ym2612"
    },
    {
      "channel": 2,
      "note": 54,
      "start": 3.9936,
      "duration": 0.147,
      "velocity": 92,
      "chip": "ym2612"
    },
    {
      "channel": 0,
      "note": 69,
      "start": 4.1605,
      "duration": 0.163,
      "velocity": 105,
      "chip": "ym2612"
    },
    {
      "channel": 1,
      "note": 64,
      "start": 4.163,
      "duration": 0.1606,
      "velocity": 105,
      "chip": "ym2612"
    },
    {
      "channel": 2,
      "note": 54,
      "start": 4.1656,
      "duration": 0.1415,
      "velocity": 92,
      "chip": "ym2612"
    },
    {
      "channel": 3,
      "note": 45,
      "start": 4.1681,
      "duration": 0.0721,
      "velocity": 117,
      "chip": "ym2612"
    },
    {
      "channel": 0,
      "note": 64,
      "start": 4.327,
      "duration": 0.1632,
      "velocity": 105,
      "chip": "ym2612"
    },
    {
      "channel": 1,
      "note": 69,
      "start": 4.3299,
      "duration": 0.1604,
      "velocity": 105,
      "chip": "ym2612"
    },
    {
      "channel": 2,
      "note": 54,
      "start": 4.3325,
      "duration": 0.1412,
      "velocity": 92,
      "chip": "ym2612"
    },
    {
      "channel": 0,
      "note": 69,
      "start": 4.4938,
      "duration": 0.163,
      "velocity": 105,
      "chip": "ym2612"
    },
    {
      "channel": 1,
      "note": 64,
      "start": 4.4963,
      "duration": 0.1606,
      "velocity": 105,
      "chip": "ym2612"
    },
    {
      "channel": 2,
      "note": 54,
      "start": 4.499,
      "duration": 0.1413,
      "velocity": 92,
      "chip": "ym2612"
    },
    {
      "channel": 3,
      "note": 45,
      "start": 4.5017,
      "duration": 0.072,
      "velocity": 117,
      "chip": "ym2612"
    },
    {
      "channel": 0,
      "note": 64,
      "start": 4.6603,
      "duration": 0.1631,
      "velocity": 105,
      "chip": "ym2612"
    },
    {
      "channel": 1,
      "note": 69,
      "start": 4.6629,
      "duration": 0.1607,
      "velocity": 105,
      "chip": "ym2612"
    },
    {
      "channel": 2,
      "note": 54,
      "start": 4.6655,
      "duration": 0.1417,
      "velocity": 92,
      "chip": "ym2612"
    },
    {
      "channel": 3,
      "note": 45,
      "start": 4.668,
      "duration": 0.0722,
      "velocity": 117,
      "chip": "ym2612"
    },
    {
      "channel": 0,
      "note": 68,
      "start": 4.827,
      "duration": 0.1632,
      "velocity": 105,
      "chip": "ym2612"
    },
    {
      "channel": 1,
      "note": 63,
      "start": 4.8295,
      "duration": 0.1607,
      "velocity": 105,
      "chip": "ym2612"
    },
    {
      "channel": 2,
      "note": 54,
      "start": 4.8326,
      "duration": 0.1411,
      "velocity": 92,
      "chip": "ym2612"
    },
    {
      "channel": 3,
      "note": 45,
      "start": 4.8353,
      "duration": 0.0717,
      "velocity": 117,
      "chip": "ym2612"
    },
    {
      "channel": 2,
      "note": 54,
      "start": 4.9938,
      "duration": 0.1466,
      "velocity": 92,
      "chip": "ym2612"
    },
    {
      "channel": 0,
      "note": 64,
      "start": 5.1605,
      "duration": 0.513,
      "velocity": 105,
      "chip": "ym2612"
    },
    {
      "channel": 1,
      "note": 59,
      "start": 5.1634,
      "duration": 0.5102,
      "velocity": 105,
      "chip": "ym2612"
    },
    {
      "channel": 2,
      "note": 52,
      "start": 5.1663,
      "duration": 0.3407,
      "velocity": 92,
      "chip": "ym2612"
    },
    {
      "channel": 3,
      "note": 45,
      "start": 5.1689,
      "duration": 0.0714,
      "velocity": 117,
      "chip": "ym2612"
    },
    {
      "channel": 2,
      "note": 52,
      "start": 5.5108,
      "duration": 0.163,
      "velocity": 92,
      "chip": "ym2612"
    },
    {
      "channel": 3,
      "note": 45,
      "start": 5.5134,
      "duration": 0.077,
      "velocity": 117,
      "chip": "ym2612"
    },
    {
      "channel": 2,
      "note": 52,
      "start": 5.6772,
      "duration": 0.1631,
      "velocity": 92,
      "chip": "ym2612"
    },
    {
      "channel": 0,
      "note": 67,
      "start": 5.8438,
      "duration": 0.1797,
      "velocity": 105,
      "chip": "ym2612"
    },
    {
      "channel": 1,
      "note": 60,
      "start": 5.8464,
      "duration": 0.1772,
      "velocity": 105,
      "chip": "ym2612"
    },
    {
      "channel": 2,
      "note": 52,
      "start": 5.8494,
      "duration": 0.3244,
      "velocity": 92,
      "chip": "ym2612"
    },
    {
      "channel": 3,
      "note": 45,
      "start": 5.8525,
      "duration": 0.0711,
      "velocity": 117,
      "chip": "ym2612"
    },
    {
      "channel": 3,
      "note": 45,
      "start": 6.0103,
      "duration": 0.08,
      "velocity": 117,
      "chip": "ym2612"
    },
    {
      "channel": 0,
      "note": 64,
      "start": 6.1772,
      "duration": 0.163,
      "velocity": 105,
      "chip": "ym2612"
    },
    {
      "channel": 1,
      "note": 59,
      "start": 6.1798,
      "duration": 0.1771,
      "velocity": 105,
      "chip": "ym2612"
    },
    {
      "channel": 2,
      "note": 52,
      "start": 6.1828,
      "duration": 0.1577,
      "velocity": 92,
      "chip": "ym2612"
    },
    {
      "channel": 3,
      "note": 45,
      "start": 6.1856,
      "duration": 0.0714,
      "velocity": 117,
      "chip": "ym2612"
    },
    {
      "channel": 2,
      "note": 52,
      "start": 6.3439,
      "duration": 0.1631,
      "velocity": 92,
      "chip": "ym2612"
    },
    {
      "channel": 0,
      "note": 58,
      "start": 6.5111,
      "duration": 2.6457,
      "velocity": 105,
      "chip": "ym2612"
    },
    {
      "channel": 1,
      "note": 67,
      "start": 6.5138,
      "duration": 2.6432,
      "velocity": 105,
      "chip": "ym2612"
    },
    {
      "channel": 2,
      "note": 56,
      "start": 6.5172,
      "duration": 0.0734,
      "velocity": 92,
      "chip": "ym2612"
    },
    {
      "channel": 3,
      "note": 45,
      "start": 6.5199,
      "duration": 0.0705,
      "velocity": 117,
      "chip": "ym2612"
    },
    {
      "channel": 2,
      "note": 57,
      "start": 6.594,
      "duration": 0.0798,
      "velocity": 92,
      "chip": "ym2612"
    },
    {
      "channel": 4,
      "note": 91,
      "start": 6.6776,
      "duration": 0.0796,
      "velocity": 106,
      "chip": "ym2612"
    },
    {
      "channel": 5,
      "note": 82,
      "start": 6.681,
      "duration": 0.0762,
      "velocity": 106,
      "chip": "ym2612"
    },
    {
      "channel": 2,
      "note": 58,
      "start": 6.6841,
      "duration": 0.3231,
      "velocity": 92,
      "chip": "ym2612"
    },
    {
      "channel": 3,
      "note": 45,
      "start": 6.6868,
      "duration": 0.0702,
      "velocity": 117,
      "chip": "ym2612"
    },
    {
      "channel": 4,
      "note": 86,
      "start": 6.7603,
      "duration": 0.0801,
      "velocity": 106,
      "chip": "ym2612"
    },
    {
      "channel": 5,
      "note": 79,
      "start": 6.7629,
      "duration": 0.0776,
      "velocity": 106,
      "chip": "ym2612"
    },
    {
      "channel": 4,
      "note": 82,
      "start": 6.8436,
      "duration": 0.0801,
      "velocity": 106,
      "chip": "ym2612"
    },
    {
      "channel": 5,
      "note": 74,
      "start": 6.8462,
      "duration": 0.0776,
      "velocity": 106,
      "chip": "ym2612"
    },
    {
      "channel": 4,
      "note": 86,
      "start": 6.9268,
      "duration": 0.0801,
      "velocity": 106,
      "chip": "ym2612"
    },
    {
      "channel": 5,
      "note": 79,
      "start": 6.9295,
      "duration": 0.0776,
      "velocity": 106,
      "chip": "ym2612"
    },
    {
      "channel": 4,
      "note": 91,
      "start": 7.0102,
      "duration": 0.0802,
      "velocity": 106,
      "chip": "ym2612"
    },
    {
      "channel": 5,
      "note": 82,
      "start": 7.0129,
      "duration": 0.0777,
      "velocity": 106,
      "chip": "ym2612"
    },
    {
      "channel": 2,
      "note": 58,
      "start": 7.016,
      "duration": 0.1579,
      "velocity": 92,
      "chip": "ym2612"
    },
    {
      "channel": 4,
      "note": 86,
      "start": 7.0936,
      "duration": 0.08,
      "velocity": 106,
      "chip": "ym2612"
    },
    {
      "channel": 5,
      "note": 79,
      "start": 7.0963,
      "duration": 0.0775,
      "velocity": 106,
      "chip": "ym2612"
    },
    {
      "channel": 4,
      "note": 82,
      "start": 7.177,
      "duration": 0.0802,
      "velocity": 106,
      "chip": "ym2612"
    },
    {
      "channel": 5,
      "note": 74,
      "start": 7.1797,
      "duration": 0.0776,
      "velocity": 106,
      "chip": "ym2612"
    },
    {
      "channel": 2,
      "note": 58,
      "start": 7.1827,
      "duration": 0.3245,
      "velocity": 92,
      "chip": "ym2612"
    },
    {
      "channel": 3,
      "note": 45,
      "start": 7.1854,
      "duration": 0.0716,
      "velocity": 117,
      "chip": "ym2612"
    },
    {
      "channel": 4,
      "note": 86,
      "start": 7.2603,
      "duration": 0.08,
      "velocity": 106,
      "chip": "ym2612"
    },
    {
      "channel": 5,
      "note": 79,
      "start": 7.263,
      "duration": 0.0775,
      "velocity": 106,
      "chip": "ym2612"
    },
    {
      "channel": 4,
      "note": 90,
      "start": 7.3435,
      "duration": 0.0802,
      "velocity": 106,
      "chip": "ym2612"
    },
    {
      "channel": 5,
      "note": 82,
      "start": 7.3462,
      "duration": 0.0776,
      "velocity": 106,
      "chip": "ym2612"
    },
    {
      "channel": 3,
      "note": 45,
      "start": 7.3489,
      "duration": 0.0746,
      "velocity": 117,
      "chip": "ym2612"
    },
    {
      "channel": 4,
      "note": 86,
      "start": 7.4268,
      "duration": 0.0801,
      "velocity": 106,
      "chip": "ym2612"
    },
    {
      "channel": 5,
      "note": 78,
      "start": 7.4295,
      "duration": 0.0776,
      "velocity": 106,
      "chip": "ym2612"
    },
    {
      "channel": 4,
      "note": 82,
      "start": 7.5102,
      "duration": 0.0802,
      "velocity": 106,
      "chip": "ym2612"
    },
    {
      "channel": 5,
      "note": 74,
      "start": 7.5129,
      "duration": 0.0777,
      "velocity": 106,
      "chip": "ym2612"
    },
    {
      "channel": 2,
      "note": 58,
      "start": 7.5156,
      "duration": 0.325,
      "velocity": 92,
      "chip": "ym2612"
    },
    {
      "channel": 3,
      "note": 45,
      "start": 7.5183,
      "duration": 0.072,
      "velocity": 117,
      "chip": "ym2612"
    },
    {
      "channel": 4,
      "note": 86,
      "start": 7.5936,
      "duration": 0.0801,
      "velocity": 106,
      "chip": "ym2612"
    },
    {
      "channel": 5,
      "note": 78,
      "start": 7.5963,
      "duration": 0.0776,
      "velocity": 106,
      "chip": "ym2612"
    },
    {
      "channel": 4,
      "note": 90,
      "start": 7.6768,
      "duration": 0.0802,
      "velocity": 106,
      "chip": "ym2612"
    },
    {
      "channel": 5,
      "note": 82,
      "start": 7.6795,
      "duration": 0.0776,
      "velocity": 106,
      "chip": "ym2612"
    },
    {
      "channel": 4,
      "note": 86,
      "start": 7.7602,
      "duration": 0.08,
      "velocity": 106,
      "chip": "ym2612"
    },
    {
      "channel": 5,
      "note": 78,
      "start": 7.7629,
      "duration": 0.0776,
      "velocity": 106,
      "chip": "ym2612"
    },
    {
      "channel": 4,
      "note": 82,
      "start": 7.8441,
      "duration": 0.0797,
      "velocity": 106,
      "chip": "ym2612"
    },
    {
      "channel": 5,
      "note": 74,
      "start": 7.8471,
      "duration": 0.0768,
      "velocity": 106,
      "chip": "ym2612"
    },
    {
      "channel": 2,
      "note": 58,
      "start": 7.8506,
      "duration": 0.1567,
      "velocity": 92,
      "chip": "ym2612"
    },
    {
      "channel": 3,
      "note": 45,
      "start": 7.8533,
      "duration": 0.0704,
      "velocity": 117,
      "chip": "ym2612"
    },
    {
      "channel": 4,
      "note": 86,
      "start": 7.927,
      "duration": 0.08,
      "velocity": 106,
      "chip": "ym2612"
    },
    {
      "channel": 5,
      "note": 78,
      "start": 7.9297,
      "duration": 0.0775,
      "velocity": 106,
      "chip": "ym2612"
    },
    {
      "channel": 4,
      "note": 89,
      "start": 8.0102,
      "duration": 0.0802,
      "velocity": 106,
      "chip": "ym2612"
    },
    {
      "channel": 5,
      "note": 82,
      "start": 8.0129,
      "duration": 0.0776,
      "velocity": 106,
      "chip": "ym2612"
    },
    {
      "channel": 2,
      "note": 58,
      "start": 8.016,
      "duration": 0.3246,
      "velocity": 92,
      "chip": "ym2612"
    },
    {
      "channel": 3,
      "note": 45,
      "start": 8.0191,
      "duration": 0.0711,
      "velocity": 117,
      "chip": "ym2612"
    },
    {
      "channel": 4,
      "note": 86,
      "start": 8.0936,
      "duration": 0.0801,
      "velocity": 106,
      "chip": "ym2612"
    },
    {
      "channel": 5,
      "note": 77,
      "start": 8.0962,
      "duration": 0.0776,
      "velocity": 106,
      "chip": "ym2612"
    },
    {
      "channel": 4,
      "note": 82,
      "start": 8.1768,
      "duration": 0.0801,
      "velocity": 106,
      "chip": "ym2612"
    },
    {
      "channel": 5,
      "note": 74,
      "start": 8.1795,
      "duration": 0.0776,
      "velocity": 106,
      "chip": "ym2612"
    },
    {
      "channel": 4,
      "note": 86,
      "start": 8.2601,
      "duration": 0.0802,
      "velocity": 106,
      "chip": "ym2612"
    },
    {
      "channel": 5,
      "note": 77,
      "start": 8.2628,
      "duration": 0.0777,
      "velocity": 106,
      "chip": "ym2612"
    },
    {
      "channel": 4,
      "note": 89,
      "start": 8.3437,
      "duration": 0.0801,
      "velocity": 106,
      "chip": "ym2612"
    },
    {
      "channel": 5,
      "note": 82,
      "start": 8.3463,
      "duration": 0.0776,
      "velocity": 106,
      "chip": "ym2612"
    },
    {
      "channel": 2,
      "note": 46,
      "start": 8.3494,
      "duration": 0.1579,
      "velocity": 92,
      "chip": "ym2612"
    },
    {
      "channel": 4,
      "note": 86,
      "start": 8.4269,
      "duration": 0.0801,
      "velocity": 106,
      "chip": "ym2612"
    },
    {
      "channel": 5,
      "note": 77,
      "start": 8.4296,
      "duration": 0.0776,
      "velocity": 106,
      "chip": "ym2612"
    },
    {
      "channel": 4,
      "note": 82,
      "start": 8.5103,
      "duration": 0.0802,
      "velocity": 106,
      "chip": "ym2612"
    },
    {
      "channel": 5,
      "note": 74,
      "start": 8.513,
      "duration": 0.0777,
      "velocity": 106,
      "chip": "ym2612"
    },
    {
      "channel": 2,
      "note": 46,
      "start": 8.516,
      "duration": 0.3246,
      "velocity": 92,
      "chip": "ym2612"
    },
    {
      "channel": 3,
      "note": 45,
      "start": 8.5187,
      "duration": 0.0716,
      "velocity": 117,
      "chip": "ym2612"
    },
    {
      "channel": 4,
      "note": 86,
      "start": 8.5937,
      "duration": 0.08,
      "velocity": 106,
      "chip": "ym2612"
    },
    {
      "channel": 5,
      "note": 77,
      "start": 8.5963,
      "duration": 0.0775,
      "velocity": 106,
      "chip": "ym2612"
    },
    {
      "channel": 4,
      "note": 88,
      "start": 8.6769,
      "duration": 0.0802,
      "velocity": 106,
      "chip": "ym2612"
    },
    {
      "channel": 5,
      "note": 82,
      "start": 8.6795,
      "duration": 0.0777,
      "velocity": 106,
      "chip": "ym2612"
    },
    {
      "channel": 3,
      "note": 45,
      "start": 8.6824,
      "duration": 0.0745,
      "velocity": 117,
      "chip": "ym2612"
    },
    {
      "channel": 4,
      "note": 84,
      "start": 8.7602,
      "duration": 0.0801,
      "velocity": 106,
      "chip": "ym2612"
    },
    {
      "channel": 5,
      "note": 79,
      "start": 8.7629,
      "duration": 0.0776,
      "velocity": 106,
      "chip": "ym2612"
    },
    {
      "channel": 4,
      "note": 79,
      "start": 8.8437,
      "duration": 0.0801,
      "velocity": 106,
      "chip": "ym2612"
    },
    {
      "channel": 5,
      "note": 76,
      "start": 8.8463,
      "duration": 0.0776,
      "velocity": 106,
      "chip": "ym2612"
    },
    {
      "channel": 2,
      "note": 50,
      "start": 8.849,
      "duration": 0.3249,
      "velocity": 92,
      "chip": "ym2612"
    },
    {
      "channel": 4,
      "note": 84,
      "start": 8.9269,
      "duration": 0.0801,
      "velocity": 106,
      "chip": "ym2612"
    },
    {
      "channel": 5,
      "note": 79,
      "start": 8.9296,
      "duration": 0.0776,
      "velocity": 106,
      "chip": "ym2612"
    },
    {
      "channel": 4,
      "note": 88,
      "start": 9.0102,
      "duration": 0.0802,
      "velocity": 106,
      "chip": "ym2612"
    },
    {
      "channel": 5,
      "note": 82,
      "start": 9.0129,
      "duration": 0.0776,
      "velocity": 106,
      "chip": "ym2612"
    },
    {
      "channel": 4,
      "note": 84,
      "start": 9.0936,
      "duration": 0.0801,
      "velocity": 106,
      "chip": "ym2612"
    },
    {
      "channel": 5,
      "note": 79,
      "start": 9.0962,
      "duration": 0.0776,
      "velocity": 106,
      "chip": "ym2612"
    },
    {
      "channel": 4,
      "note": 79,
      "start": 9.1774,
      "duration": 0.0798,
      "velocity": 106,
      "chip": "ym2612"
    },
    {
      "channel": 5,
      "note": 76,
      "start": 9.1805,
      "duration": 0.0768,
      "velocity": 106,
      "chip": "ym2612"
    },
    {
      "channel": 0,
      "note": 59,
      "start": 9.1833,
      "duration": 0.4902,
      "velocity": 105,
      "chip": "ym2612"
    },
    {
      "channel": 1,
      "note": 64,
      "start": 9.1858,
      "duration": 0.4878,
      "velocity": 105,
      "chip": "ym2612"
    },
    {
      "channel": 2,
      "note": 52,
      "start": 9.1884,
      "duration": 0.3188,
      "velocity": 92,
      "chip": "ym2612"
    },
    {
      "channel": 3,
      "note": 45,
      "start": 9.1916,
      "duration": 0.0655,
      "velocity": 117,
      "chip": "ym2612"
    },
    {
      "channel": 4,
      "note": 84,
      "start": 9.2604,
      "duration": 0.08,
      "velocity": 106,
      "chip": "ym2612"
    },
    {
      "channel": 5,
      "note": 79,
      "start": 9.2631,
      "duration": 0.0775,
      "velocity": 106,
      "chip": "ym2612"
    },
    {
      "channel": 4,
      "note": 76,
      "start": 9.3439,
      "duration": 0.1631,
      "velocity": 106,
      "chip": "ym2612"
    },
    {
      "channel": 5,
      "note": 67,
      "start": 9.3469,
      "duration": 0.1602,
      "velocity": 106,
      "chip": "ym2612"
    },
    {
      "channel": 4,
      "note": 79,
      "start": 9.5106,
      "duration": 0.3464,
      "velocity": 106,
      "chip": "ym2612"
    },
    {
      "channel": 5,
      "note": 71,
      "start": 9.5136,
      "duration": 0.3435,
      "velocity": 106,
      "chip": "ym2612"
    },
    {
      "channel": 2,
      "note": 52,
      "start": 9.5167,
      "duration": 0.1572,
      "velocity": 92,
      "chip": "ym2612"
    },
    {
      "channel": 3,
      "note": 45,
      "start": 9.5192,
      "duration": 0.071,
      "velocity": 117,
      "chip": "ym2612"
    },
    {
      "channel": 2,
      "note": 52,
      "start": 9.6772,
      "duration": 0.18,
      "velocity": 92,
      "chip": "ym2612"
    },
    {
      "channel": 4,
      "note": 83,
      "start": 9.8604,
      "duration": 0.33,
      "velocity": 106,
      "chip": "ym2612"
    },
    {
      "channel": 5,
      "note": 76,
      "start": 9.8631,
      "duration": 0.3274,
      "velocity": 106,
      "chip": "ym2612"
    },
    {
      "channel": 0,
      "note": 60,
      "start": 9.8659,
      "duration": 0.1576,
      "velocity": 105,
      "chip": "ym2612"
    },
    {
      "channel": 1,
      "note": 67,
      "start": 9.8683,
      "duration": 0.1553,
      "velocity": 105,
      "chip": "ym2612"
    },
    {
      "channel": 2,
      "note": 52,
      "start": 9.8717,
      "duration": 0.319,
      "velocity": 92,
      "chip": "ym2612"
    },
    {
      "channel": 3,
      "note": 45,
      "start": 9.8749,
      "duration": 0.0655,
      "velocity": 117,
      "chip": "ym2612"
    },
    {
      "channel": 3,
      "note": 45,
      "start": 10.0272,
      "duration": 0.0797,
      "velocity": 117,
      "chip": "ym2612"
    },
    {
      "channel": 4,
      "note": 88,
      "start": 10.1937,
      "duration": 0.33,
      "velocity": 106,
      "chip": "ym2612"
    },
    {
      "channel": 5,
      "note": 79,
      "start": 10.1963,
      "duration": 0.3274,
      "velocity": 106,
      "chip": "ym2612"
    },
    {
      "channel": 0,
      "note": 64,
      "start": 10.1989,
      "duration": 0.1579,
      "velocity": 105,
      "chip": "ym2612"
    },
    {
      "channel": 1,
      "note": 59,
      "start": 10.2019,
      "duration": 0.1551,
      "velocity": 105,
      "chip": "ym2612"
    },
    {
      "channel": 2,
      "note": 52,
      "start": 10.2048,
      "duration": 0.1525,
      "velocity": 92,
      "chip": "ym2612"
    },
    {
      "channel": 3,
      "note": 45,
      "start": 10.2079,
      "duration": 0.0657,
      "velocity": 117,
      "chip": "ym2612"
    },
    {
      "channel": 2,
      "note": 52,
      "start": 10.3606,
      "duration": 0.1632,
      "velocity": 92,
      "chip": "ym2612"
    },
    {
      "channel": 4,
      "note": 90,
      "start": 10.5274,
      "duration": 0.1629,
      "velocity": 106,
      "chip": "ym2612"
    },
    {
      "channel": 5,
      "note": 81,
      "start": 10.5304,
      "duration": 0.16,
      "velocity": 106,
      "chip": "ym2612"
    },
    {
      "channel": 0,
      "note": 67,
      "start": 10.5333,
      "duration": 2.8235,
      "velocity": 105,
      "chip": "ym2612"
    },
    {
      "channel": 1,
      "note": 58,
      "start": 10.536,
      "duration": 2.821,
      "velocity": 105,
      "chip": "ym2612"
    },
    {
      "channel": 2,
      "note": 56,
      "start": 10.5391,
      "duration": 0.0682,
      "velocity": 92,
      "chip": "ym2612"
    },
    {
      "channel": 3,
      "note": 45,
      "start": 10.542,
      "duration": 0.065,
      "velocity": 117,
      "chip": "ym2612"
    },
    {
      "channel": 2,
      "note": 57,
      "start": 10.6106,
      "duration": 0.0799,
      "velocity": 92,
      "chip": "ym2612"
    },
    {
      "channel": 4,
      "note": 91,
      "start": 10.6939,
      "duration": 0.0798,
      "velocity": 106,
      "chip": "ym2612"
    },
    {
      "channel": 5,
      "note": 82,
      "start": 10.6969,
      "duration": 0.077,
      "velocity": 106,
      "chip": "ym2612"
    },
    {
      "channel": 2,
      "note": 58,
      "start": 10.7,
      "duration": 0.3239,
      "velocity": 92,
      "chip": "ym2612"
    },
    {
      "channel": 4,
      "note": 86,
      "start": 10.7773,
      "duration": 0.0797,
      "velocity": 106,
      "chip": "ym2612"
    },
    {
      "channel": 5,
      "note": 79,
      "start": 10.7804,
      "duration": 0.0768,
      "velocity": 106,
      "chip": "ym2612"
    },
    {
      "channel": 4,
      "note": 82,
      "start": 10.8602,
      "duration": 0.0803,
      "velocity": 106,
      "chip": "ym2612"
    },
    {
      "channel": 5,
      "note": 74,
      "start": 10.8629,
      "duration": 0.0777,
      "velocity": 106,
      "chip": "ym2612"
    },
    {
      "channel": 3,
      "note": 45,
      "start": 10.8656,
      "duration": 0.0747,
      "velocity": 117,
      "chip": "ym2612"
    },
    {
      "channel": 4,
      "note": 86,
      "start": 10.9437,
      "duration": 0.08,
      "velocity": 106,
      "chip": "ym2612"
    },
    {
      "channel": 5,
      "note": 79,
      "start": 10.9463,
      "duration": 0.0774,
      "velocity": 106,
      "chip": "ym2612"
    },
    {
      "channel": 4,
      "note": 91,
      "start": 11.0269,
      "duration": 0.0802,
      "velocity": 106,
      "chip": "ym2612"
    },
    {
      "channel": 5,
      "note": 82,
      "start": 11.0295,
      "duration": 0.0777,
      "velocity": 106,
      "chip": "ym2612"
    },
    {
      "channel": 2,
      "note": 58,
      "start": 11.033,
      "duration": 0.1576,
      "velocity": 92,
      "chip": "ym2612"
    },
    {
      "channel": 4,
      "note": 86,
      "start": 11.1103,
      "duration": 0.0801,
      "velocity": 106,
      "chip": "ym2612"
    },
    {
      "channel": 5,
      "note": 79,
      "start": 11.113,
      "duration": 0.0775,
      "velocity": 106,
      "chip": "ym2612"
    },
    {
      "channel": 4,
      "note": 82,
      "start": 11.1938,
      "duration": 0.08,
      "velocity": 106,
      "chip": "ym2612"
    },
    {
      "channel": 5,
      "note": 74,
      "start": 11.1964,
      "duration": 0.0775,
      "velocity": 106,
      "chip": "ym2612"
    },
    {
      "channel": 2,
      "note": 58,
      "start": 11.1995,
      "duration": 0.3244,
      "velocity": 92,
      "chip": "ym2612"
    },
    {
      "channel": 3,
      "note": 45,
      "start": 11.2026,
      "duration": 0.0711,
      "velocity": 117,
      "chip": "ym2612"
    },
    {
      "channel": 4,
      "note": 86,
      "start": 11.277,
      "duration": 0.08,
      "velocity": 106,
      "chip": "ym2612"
    },
    {
      "channel": 5,
      "note": 79,
      "start": 11.2797,
      "duration": 0.0775,
      "velocity": 106,
      "chip": "ym2612"
    },
    {
      "channel": 4,
      "note": 90,
      "start": 11.3602,
      "duration": 0.0803,
      "velocity": 106,
      "chip": "ym2612"
    },
    {
      "channel": 5,
      "note": 82,
      "start": 11.3629,
      "duration": 0.0777,
      "velocity": 106,
      "chip": "ym2612"
    },
    {
      "channel": 3,
      "note": 45,
      "start": 11.3656,
      "duration": 0.0747,
      "velocity": 117,
      "chip": "ym2612"
    },
    {
      "channel": 4,
      "note": 86,
      "start": 11.4437,
      "duration": 0.08,
      "velocity": 106,
      "chip": "ym2612"
    },
    {
      "channel": 5,
      "note": 78,
      "start": 11.4463,
      "duration": 0.0774,
      "velocity": 106,
      "chip": "ym2612"
    },
    {
      "channel": 4,
      "note": 82,
      "start": 11.5269,
      "duration": 0.0802,
      "velocity": 106,
      "chip": "ym2612"
    },
    {
      "channel": 5,
      "note": 74,
      "start": 11.5295,
      "duration": 0.0777,
      "velocity": 106,
      "chip": "ym2612"
    },
    {
      "channel": 2,
      "note": 58,
      "start": 11.5323,
      "duration": 0.325,
      "velocity": 92,
      "chip": "ym2612"
    },
    {
      "channel": 3,
      "note": 45,
      "start": 11.5349,
      "duration": 0.072,
      "velocity": 117,
      "chip": "ym2612"
    },
    {
      "channel": 4,
      "note": 86,
      "start": 11.6102,
      "duration": 0.0801,
      "velocity": 106,
      "chip": "ym2612"
    },
    {
      "channel": 5,
      "note": 78,
      "start": 11.6129,
      "duration": 0.0776,
      "velocity": 106,
      "chip": "ym2612"
    },
    {
      "channel": 4,
      "note": 90,
      "start": 11.6935,
      "duration": 0.0802,
      "velocity": 106,
      "chip": "ym2612"
    },
    {
      "channel": 5,
      "note": 82,
      "start": 11.6962,
      "duration": 0.0776,
      "velocity": 106,
      "chip": "ym2612"
    },
    {
      "channel": 4,
      "note": 86,
      "start": 11.7769,
      "duration": 0.08,
      "velocity": 106,
      "chip": "ym2612"
    },
    {
      "channel": 5,
      "note": 78,
      "start": 11.7795,
      "duration": 0.0776,
      "velocity": 106,
      "chip": "ym2612"
    },
    {
      "channel": 4,
      "note": 82,
      "start": 11.8603,
      "duration": 0.0802,
      "velocity": 106,
      "chip": "ym2612"
    },
    {
      "channel": 5,
      "note": 74,
      "start": 11.863,
      "duration": 0.0776,
      "velocity": 106,
      "chip": "ym2612"
    },
    {
      "channel": 2,
      "note": 58,
      "start": 11.866,
      "duration": 0.1579,
      "velocity": 92,
      "chip": "ym2612"
    },
    {
      "channel": 3,
      "note": 45,
      "start": 11.8687,
      "duration": 0.0716,
      "velocity": 117,
      "chip": "ym2612"
    },
    {
      "channel": 4,
      "note": 86,
      "start": 11.9437,
      "duration": 0.08,
      "velocity": 106,
      "chip": "ym2612"
    },
    {
      "channel": 5,
      "note": 78,
      "start": 11.9463,
      "duration": 0.0775,
      "velocity": 106,
      "chip": "ym2612"
    },
    {
      "channel": 4,
      "note": 89,
      "start": 12.0269,
      "duration": 0.0802,
      "velocity": 106,
      "chip": "ym2612"
    },
    {
      "channel": 5,
      "note": 82,
      "start": 12.0296,
      "duration": 0.0776,
      "velocity": 106,
      "chip": "ym2612"
    },
    {
      "channel": 2,
      "note": 58,
      "start": 12.0327,
      "duration": 0.3246,
      "velocity": 92,
      "chip": "ym2612"
    },
    {
      "channel": 3,
      "note": 45,
      "start": 12.0353,
      "duration": 0.0716,
      "velocity": 117,
      "chip": "ym2612"
    },
    {
      "channel": 4,
      "note": 86,
      "start": 12.1106,
      "duration": 0.0797,
      "velocity": 106,
      "chip": "ym2612"
    },
    {
      "channel": 5,
      "note": 77,
      "start": 12.1137,
      "duration": 0.0768,
      "velocity": 106,
      "chip": "ym2612"
    },
    {
      "channel": 4,
      "note": 82,
      "start": 12.1935,
      "duration": 0.0801,
      "velocity": 106,
      "chip": "ym2612"
    },
    {
      "channel": 5,
      "note": 74,
      "start": 12.1962,
      "duration": 0.0776,
      "velocity": 106,
      "chip": "ym2612"
    },
    {
      "channel": 4,
      "note": 86,
      "start": 12.2768,
      "duration": 0.0802,
      "velocity": 106,
      "chip": "ym2612"
    },
    {
      "channel": 5,
      "note": 77,
      "start": 12.2795,
      "duration": 0.0777,
      "velocity": 106,
      "chip": "ym2612"
    },
    {
      "channel": 4,
      "note": 89,
      "start": 12.3603,
      "duration": 0.0801,
      "velocity": 106,
      "chip": "ym2612"
    },
    {
      "channel": 5,
      "note": 82,
      "start": 12.3629,
      "duration": 0.0776,
      "velocity": 106,
      "chip": "ym2612"
    },
    {
      "channel": 2,
      "note": 46,
      "start": 12.366,
      "duration": 0.1579,
      "velocity": 92,
      "chip": "ym2612"
    },
    {
      "channel": 4,
      "note": 86,
      "start": 12.4437,
      "duration": 0.08,
      "velocity": 106,
      "chip": "ym2612"
    },
    {
      "channel": 5,
      "note": 77,
      "start": 12.4463,
      "duration": 0.0776,
      "velocity": 106,
      "chip": "ym2612"
    },
    {
      "channel": 4,
      "note": 82,
      "start": 12.5271,
      "duration": 0.0801,
      "velocity": 106,
      "chip": "ym2612"
    },
    {
      "channel": 5,
      "note": 74,
      "start": 12.5297,
      "duration": 0.0777,
      "velocity": 106,
      "chip": "ym2612"
    },
    {
      "channel": 2,
      "note": 46,
      "start": 12.5332,
      "duration": 0.3242,
      "velocity": 92,
      "chip": "ym2612"
    },
    {
      "channel": 3,
      "note": 45,
      "start": 12.5358,
      "duration": 0.0712,
      "velocity": 117,
      "chip": "ym2612"
    },
    {
      "channel": 4,
      "note": 86,
      "start": 12.6104,
      "duration": 0.08,
      "velocity": 106,
      "chip": "ym2612"
    },
    {
      "channel": 5,
      "note": 77,
      "start": 12.6131,
      "duration": 0.0775,
      "velocity": 106,
      "chip": "ym2612"
    },
    {
      "channel": 4,
      "note": 88,
      "start": 12.6936,
      "duration": 0.0802,
      "velocity": 106,
      "chip": "ym2612"
    },
    {
      "channel": 5,
      "note": 82,
      "start": 12.6963,
      "duration": 0.0777,
      "velocity": 106,
      "chip": "ym2612"
    },
    {
      "channel": 3,
      "note": 45,
      "start": 12.6991,
      "duration": 0.0745,
      "velocity": 117,
      "chip": "ym2612"
    },
    {
      "channel": 4,
      "note": 84,
      "start": 12.777,
      "duration": 0.0801,
      "velocity": 106,
      "chip": "ym2612"
    },
    {
      "channel": 5,
      "note": 79,
      "start": 12.7796,
      "duration": 0.0776,
      "velocity": 106,
      "chip": "ym2612"
    },
    {
      "channel": 4,
      "note": 79,
      "start": 12.8603,
      "duration": 0.08,
      "velocity": 106,
      "chip": "ym2612"
    },
    {
      "channel": 5,
      "note": 76,
      "start": 12.863,
      "duration": 0.0775,
      "velocity": 106,
      "chip": "ym2612"
    },
    {
      "channel": 2,
      "note": 50,
      "start": 12.866,
      "duration": 0.4915,
      "velocity": 92,
      "chip": "ym2612"
    },
    {
      "channel": 4,
      "note": 84,
      "start": 12.9435,
      "duration": 0.0801,
      "velocity": 106,
      "chip": "ym2612"
    },
    {
      "channel": 5,
      "note": 79,
      "start": 12.9462,
      "duration": 0.0776,
      "velocity": 106,
      "chip": "ym2612"
    },
    {
      "channel": 4,
      "note": 88,
      "start": 13.0268,
      "duration": 0.0803,
      "velocity": 106,
      "chip": "ym2612"
    },
    {
      "channel": 5,
      "note": 82,
      "start": 13.0295,
      "duration": 0.0778,
      "velocity": 106,
      "chip": "ym2612"
    },
    {
      "channel": 4,
      "note": 84,
      "start": 13.1103,
      "duration": 0.08,
      "velocity": 106,
      "chip": "ym2612"
    },
    {
      "channel": 5,
      "note": 79,
      "start": 13.1129,
      "duration": 0.0776,
      "velocity": 106,
      "chip": "ym2612"
    },
    {
      "channel": 4,
      "note": 79,
      "start": 13.1936,
      "duration": 0.0803,
      "velocity": 106,
      "chip": "ym2612"
    },
    {
      "channel": 5,
      "note": 76,
      "start": 13.1963,
      "duration": 0.0777,
      "velocity": 106,
      "chip": "ym2612"
    },
    {
      "channel": 3,
      "note": 45,
      "start": 13.1991,
      "duration": 0.0746,
      "velocity": 117,
      "chip": "ym2612"
    },
    {
      "channel": 4,
      "note": 84,
      "start": 13.2771,
      "duration": 0.0801,
      "velocity": 106,
      "chip": "ym2612"
    },
    {
      "channel": 5,
      "note": 79,
      "start": 13.2797,
      "duration": 0.0777,
      "velocity": 106,
      "chip": "ym2612"
    },
    {
      "channel": 4,
      "note": 85,
      "start": 13.3615,
      "duration": 2.3457,
      "velocity": 106,
      "chip": "ym2612"
    },
    {
      "channel": 5,
      "note": 81,
      "start": 13.3651,
      "duration": 2.3423,
      "velocity": 106,
      "chip": "ym2612"
    },
    {
      "channel": 0,
      "note": 61,
      "start": 13.3678,
      "duration": 0.3224,
      "velocity": 105,
      "chip": "ym2612"
    },
    {
      "channel": 1,
      "note": 66,
      "start": 13.3704,
      "duration": 0.32,
      "velocity": 105,
      "chip": "ym2612"
    },
    {
      "channel": 2,
      "note": 54,
      "start": 13.3737,
      "duration": 0.1333,
      "velocity": 92,
      "chip": "ym2612"
    },
    {
      "channel": 3,
      "note": 45,
      "start": 13.3765,
      "duration": 0.0637,
      "velocity": 117,
      "chip": "ym2612"
    },
    {
      "channel": 2,
      "note": 54,
      "start": 13.5271,
      "duration": 0.1468,
      "velocity": 92,
      "chip": "ym2612"
    },
    {
      "channel": 2,
      "note": 54,
      "start": 13.6954,
      "duration": 0.145,
      "velocity": 92,
      "chip": "ym2612"
    },
    {
      "channel": 0,
      "note": 69,
      "start": 13.8645,
      "duration": 0.1924,
      "velocity": 105,
      "chip": "ym2612"
    },
    {
      "channel": 1,
      "note": 64,
      "start": 13.8671,
      "duration": 0.19,
      "velocity": 105,
      "chip": "ym2612"
    },
    {
      "channel": 2,
      "note": 54,
      "start": 13.8697,
      "duration": 0.1374,
      "velocity": 92,
      "chip": "ym2612"
    },
    {
      "channel": 3,
      "note": 45,
      "start": 13.8729,
      "duration": 0.0674,
      "velocity": 117,
      "chip": "ym2612"
    },
    {
      "channel": 2,
      "note": 54,
      "start": 14.0455,
      "duration": 0.1283,
      "velocity": 92,
      "chip": "ym2612"
    },
    {
      "channel": 3,
      "note": 45,
      "start": 14.048,
      "duration": 0.0756,
      "velocity": 117,
      "chip": "ym2612"
    },
    {
      "channel": 0,
      "note": 61,
      "start": 14.2102,
      "duration": 0.18,
      "velocity": 105,
      "chip": "ym2612"
    },
    {
      "channel": 1,
      "note": 66,
      "start": 14.2128,
      "duration": 0.1776,
      "velocity": 105,
      "chip": "ym2612"
    },
    {
      "channel": 2,
      "note": 54,
      "start": 14.2154,
      "duration": 0.125,
      "velocity": 92,
      "chip": "ym2612"
    },
    {
      "channel": 3,
      "note": 45,
      "start": 14.2181,
      "duration": 0.0721,
      "velocity": 117,
      "chip": "ym2612"
    },
    {
      "channel": 2,
      "note": 54,
      "start": 14.3771,
      "duration": 0.1301,
      "velocity": 92,
      "chip": "ym2612"
    },
    {
      "channel": 0,
      "note": 64,
      "start": 14.5438,
      "duration": 0.2964,
      "velocity": 105,
      "chip": "ym2612"
    },
    {
      "channel": 1,
      "note": 69,
      "start": 14.5463,
      "duration": 0.2939,
      "velocity": 105,
      "chip": "ym2612"
    },
    {
      "channel": 2,
      "note": 54,
      "start": 14.5489,
      "duration": 0.1249,
      "velocity": 92,
      "chip": "ym2612"
    },
    {
      "channel": 3,
      "note": 45,
      "start": 14.5515,
      "duration": 0.0721,
      "velocity": 117,
      "chip": "ym2612"
    },
    {
      "channel": 2,
      "note": 54,
      "start": 14.7103,
      "duration": 0.1302,
      "velocity": 92,
      "chip": "ym2612"
    },
    {
      "channel": 0,
      "note": 69,
      "start": 14.8771,
      "duration": 0.163,
      "velocity": 105,
      "chip": "ym2612"
    },
    {
      "channel": 1,
      "note": 64,
      "start": 14.88,
      "duration": 0.1602,
      "velocity": 105,
      "chip": "ym2612"
    },
    {
      "channel": 2,
      "note": 54,
      "start": 14.8827,
      "duration": 0.1245,
      "velocity": 92,
      "chip": "ym2612"
    },
    {
      "channel": 3,
      "note": 45,
      "start": 14.8852,
      "duration": 0.0718,
      "velocity": 117,
      "chip": "ym2612"
    },
    {
      "channel": 0,
      "note": 64,
      "start": 15.0437,
      "duration": 0.1632,
      "velocity": 105,
      "chip": "ym2612"
    },
    {
      "channel": 1,
      "note": 69,
      "start": 15.0462,
      "duration": 0.1608,
      "velocity": 105,
      "chip": "ym2612"
    },
    {
      "channel": 2,
      "note": 54,
      "start": 15.0493,
      "duration": 0.1246,
      "velocity": 92,
      "chip": "ym2612"
    },
    {
      "channel": 0,
      "note": 69,
      "start": 15.2105,
      "duration": 0.163,
      "velocity": 105,
      "chip": "ym2612"
    },
    {
      "channel": 1,
      "note": 64,
      "start": 15.2131,
      "duration": 0.1606,
      "velocity": 105,
      "chip": "ym2612"
    },
    {
      "channel": 2,
      "note": 54,
      "start": 15.2157,
      "duration": 0.1248,
      "velocity": 92,
      "chip": "ym2612"
    },
    {
      "channel": 3,
      "note": 45,
      "start": 15.2183,
      "duration": 0.072,
      "velocity": 117,
      "chip": "ym2612"
    },
    {
      "channel": 0,
      "note": 64,
      "start": 15.3771,
      "duration": 0.1631,
      "velocity": 105,
      "chip": "ym2612"
    },
    {
      "channel": 1,
      "note": 69,
      "start": 15.3797,
      "duration": 0.1607,
      "velocity": 105,
      "chip": "ym2612"
    },
    {
      "channel": 2,
      "note": 54,
      "start": 15.3823,
      "duration": 0.1248,
      "velocity": 92,
      "chip": "ym2612"
    },
    {
      "channel": 3,
      "note": 45,
      "start": 15.3848,
      "duration": 0.0721,
      "velocity": 117,
      "chip": "ym2612"
    },
    {
      "channel": 0,
      "note": 68,
      "start": 15.5438,
      "duration": 0.1631,
      "velocity": 105,
      "chip": "ym2612"
    },
    {
      "channel": 1,
      "note": 63,
      "start": 15.5467,
      "duration": 0.1603,
      "velocity": 105,
      "chip": "ym2612"
    },
    {
      "channel": 2,
      "note": 54,
      "start": 15.5493,
      "duration": 0.1245,
      "velocity": 92,
      "chip": "ym2612"
    },
    {
      "channel": 3,
      "note": 45,
      "start": 15.552,
      "duration": 0.0716,
      "velocity": 117,
      "chip": "ym2612"
    },
    {
      "channel": 2,
      "note": 54,
      "start": 15.7108,
      "duration": 0.1297,
      "velocity": 92,
      "chip": "ym2612"
    },
    {
      "channel": 0,
      "note": 61,
      "start": 15.8771,
      "duration": 0.3797,
      "velocity": 105,
      "chip": "ym2612"
    },
    {
      "channel": 1,
      "note": 66,
      "start": 15.8797,
      "duration": 0.3773,
      "velocity": 105,
      "chip": "ym2612"
    },
    {
      "channel": 2,
      "note": 54,
      "start": 15.8826,
      "duration": 0.2911,
      "velocity": 92,
      "chip": "ym2612"
    },
    {
      "channel": 3,
      "note": 45,
      "start": 15.8853,
      "duration": 0.0717,
      "velocity": 117,
      "chip": "ym2612"
    },
    {
      "channel": 3,
      "note": 45,
      "start": 16.0438,
      "duration": 0.0797,
      "velocity": 117,
      "chip": "ym2612"
    },
    {
      "channel": 2,
      "note": 54,
      "start": 16.2107,
      "duration": 0.1296,
      "velocity": 92,
      "chip": "ym2612"
    },
    {
      "channel": 2,
      "note": 54,
      "start": 16.377,
      "duration": 0.1302,
      "velocity": 92,
      "chip": "ym2612"
    },
    {
      "channel": 0,
      "note": 69,
      "start": 16.5437,
      "duration": 0.1965,
      "velocity": 105,
      "chip": "ym2612"
    },
    {
      "channel": 1,
      "note": 64,
      "start": 16.5463,
      "duration": 0.1941,
      "velocity": 105,
      "chip": "ym2612"
    },
    {
      "channel": 2,
      "note": 54,
      "start": 16.5489,
      "duration": 0.125,
      "velocity": 92,
      "chip": "ym2612"
    },
    {
      "channel": 3,
      "note": 45,
      "start": 16.552,
      "duration": 0.0717,
      "velocity": 117,
      "chip": "ym2612"
    },
    {
      "channel": 2,
      "note": 54,
      "start": 16.7103,
      "duration": 0.1302,
      "velocity": 92,
      "chip": "ym2612"
    },
    {
      "channel": 3,
      "note": 45,
      "start": 16.713,
      "duration": 0.0772,
      "velocity": 117,
      "chip": "ym2612"
    },
    {
      "channel": 0,
      "note": 61,
      "start": 16.8768,
      "duration": 0.1968,
      "velocity": 105,
      "chip": "ym2612"
    },
    {
      "channel": 1,
      "note": 66,
      "start": 16.8793,
      "duration": 0.1944,
      "velocity": 105,
      "chip": "ym2612"
    },
    {
      "channel": 2,
      "note": 54,
      "start": 16.882,
      "duration": 0.1417,
      "velocity": 92,
      "chip": "ym2612"
    },
    {
      "channel": 2,
      "note": 54,
      "start": 17.0437,
      "duration": 0.1468,
      "velocity": 92,
      "chip": "ym2612"
    },
    {
      "channel": 0,
      "note": 64,
      "start": 17.211,
      "duration": 0.3126,
      "velocity": 105,
      "chip": "ym2612"
    },
    {
      "channel": 1,
      "note": 69,
      "start": 17.2134,
      "duration": 0.3102,
      "velocity": 105,
      "chip": "ym2612"
    },
    {
      "channel": 2,
      "note": 54,
      "start": 17.2165,
      "duration": 0.1406,
      "velocity": 92,
      "chip": "ym2612"
    },
    {
      "channel": 3,
      "note": 45,
      "start": 17.2192,
      "duration": 0.0712,
      "velocity": 117,
      "chip": "ym2612"
    },
    {
      "channel": 2,
      "note": 54,
      "start": 17.3771,
      "duration": 0.1469,
      "velocity": 92,
      "chip": "ym2612"
    },
    {
      "channel": 0,
      "note": 69,
      "start": 17.5437,
      "duration": 0.1632,
      "velocity": 105,
      "chip": "ym2612"
    },
    {
      "channel": 1,
      "note": 64,
      "start": 17.5462,
      "duration": 0.1607,
      "velocity": 105,
      "chip": "ym2612"
    },
    {
      "channel": 2,
      "note": 54,
      "start": 17.5488,
      "duration": 0.1415,
      "velocity": 92,
      "chip": "ym2612"
    },
    {
      "channel": 3,
      "note": 45,
      "start": 17.5513,
      "duration": 0.0723,
      "velocity": 117,
      "chip": "ym2612"
    },
    {
      "channel": 0,
      "note": 64,
      "start": 17.7104,
      "duration": 0.1631,
      "velocity": 105,
      "chip": "ym2612"
    },
    {
      "channel": 1,
      "note": 69,
      "start": 17.7129,
      "duration": 0.1607,
      "velocity": 105,
      "chip": "ym2612"
    },
    {
      "channel": 2,
      "note": 54,
      "start": 17.7155,
      "duration": 0.1415,
      "velocity": 92,
      "chip": "ym2612"
    },
    {
      "channel": 0,
      "note": 69,
      "start": 17.8771,
      "duration": 0.163,
      "velocity": 105,
      "chip": "ym2612"
    },
    {
      "channel": 1,
      "note": 64,
      "start": 17.88,
      "duration": 0.1602,
      "velocity": 105,
      "chip": "ym2612"
    },
    {
      "channel": 2,
      "note": 54,
      "start": 17.8827,
      "duration": 0.141,
      "velocity": 92,
      "chip": "ym2612"
    },
    {
      "channel": 3,
      "note": 45,
      "start": 17.8854,
      "duration": 0.0716,
      "velocity": 117,
      "chip": "ym2612"
    },
    {
      "channel": 0,
      "note": 64,
      "start": 18.0437,
      "duration": 0.1631,
      "velocity": 105,
      "chip": "ym2612"
    },
    {
      "channel": 1,
      "note": 69,
      "start": 18.0462,
      "duration": 0.1607,
      "velocity": 105,
      "chip": "ym2612"
    },
    {
      "channel": 2,
      "note": 54,
      "start": 18.0489,
      "duration": 0.1415,
      "velocity": 92,
      "chip": "ym2612"
    },
    {
      "channel": 3,
      "note": 45,
      "start": 18.0513,
      "duration": 0.0723,
      "velocity": 117,
      "chip": "ym2612"
    },
    {
      "channel": 0,
      "note": 68,
      "start": 18.2104,
      "duration": 0.1798,
      "velocity": 105,
      "chip": "ym2612"
    },
    {
      "channel": 1,
      "note": 63,
      "start": 18.2129,
      "duration": 0.1774,
      "velocity": 105,
      "chip": "ym2612"
    },
    {
      "channel": 2,
      "note": 54,
      "start": 18.2155,
      "duration": 0.1415,
      "velocity": 92,
      "chip": "ym2612"
    },
    {
      "channel": 3,
      "note": 45,
      "start": 18.2183,
      "duration": 0.0887,
      "velocity": 117,
      "chip": "ym2612"
    },
    {
      "channel": 2,
      "note": 54,
      "start": 18.3939,
      "duration": 0.1299,
      "velocity": 92,
      "chip": "ym2612"
    },
    {
      "channel": 0,
      "note": 64,
      "start": 18.5605,
      "duration": 0.4964,
      "velocity": 105,
      "chip": "ym2612"
    },
    {
      "channel": 1,
      "note": 59,
      "start": 18.563,
      "duration": 0.494,
      "velocity": 105,
      "chip": "ym2612"
    },
    {
      "channel": 2,
      "note": 52,
      "start": 18.5659,
      "duration": 0.3245,
      "velocity": 92,
      "chip": "ym2612"
    },
    {
      "channel": 3,
      "note": 45,
      "start": 18.5685,
      "duration": 0.0719,
      "velocity": 117,
      "chip": "ym2612"
    },
    {
      "channel": 4,
      "note": 79,
      "start": 18.7274,
      "duration": 0.4962,
      "velocity": 106,
      "chip": "ym2612"
    },
    {
      "channel": 5,
      "note": 76,
      "start": 18.7304,
      "duration": 0.4934,
      "velocity": 106,
      "chip": "ym2612"
    },
    {
      "channel": 2,
      "note": 52,
      "start": 18.8974,
      "duration": 0.1599,
      "velocity": 92,
      "chip": "ym2612"
    },
    {
      "channel": 3,
      "note": 45,
      "start": 18.8999,
      "duration": 0.0737,
      "velocity": 117,
      "chip": "ym2612"
    },
    {
      "channel": 2,
      "note": 52,
      "start": 19.0639,
      "duration": 0.16,
      "velocity": 92,
      "chip": "ym2612"
    },
    {
      "channel": 4,
      "note": 83,
      "start": 19.2272,
      "duration": 0.4964,
      "velocity": 106,
      "chip": "ym2612"
    },
    {
      "channel": 5,
      "note": 79,
      "start": 19.23,
      "duration": 0.4938,
      "velocity": 106,
      "chip": "ym2612"
    },
    {
      "channel": 0,
      "note": 67,
      "start": 19.2332,
      "duration": 0.1735,
      "velocity": 105,
      "chip": "ym2612"
    },
    {
      "channel": 1,
      "note": 60,
      "start": 19.2358,
      "duration": 0.1712,
      "velocity": 105,
      "chip": "ym2612"
    },
    {
      "channel": 2,
      "note": 52,
      "start": 19.2392,
      "duration": 0.3179,
      "velocity": 92,
      "chip": "ym2612"
    },
    {
      "channel": 3,
      "note": 45,
      "start": 19.2423,
      "duration": 0.0646,
      "velocity": 117,
      "chip": "ym2612"
    },
    {
      "channel": 3,
      "note": 45,
      "start": 19.3941,
      "duration": 0.0795,
      "velocity": 117,
      "chip": "ym2612"
    },
    {
      "channel": 0,
      "note": 64,
      "start": 19.5641,
      "duration": 0.1593,
      "velocity": 105,
      "chip": "ym2612"
    },
    {
      "channel": 1,
      "note": 59,
      "start": 19.5669,
      "duration": 0.19,
      "velocity": 105,
      "chip": "ym2612"
    },
    {
      "channel": 2,
      "note": 52,
      "start": 19.5698,
      "duration": 0.1542,
      "velocity": 92,
      "chip": "ym2612"
    },
    {
      "channel": 3,
      "note": 45,
      "start": 19.5725,
      "duration": 0.0677,
      "velocity": 117,
      "chip": "ym2612"
    },
    {
      "channel": 4,
      "note": 88,
      "start": 19.7278,
      "duration": 0.3293,
      "velocity": 106,
      "chip": "ym2612"
    },
    {
      "channel": 5,
      "note": 83,
      "start": 19.7307,
      "duration": 0.3265,
      "velocity": 106,
      "chip": "ym2612"
    },
    {
      "channel": 2,
      "note": 52,
      "start": 19.7335,
      "duration": 0.1569,
      "velocity": 92,
      "chip": "ym2612"
    },
    {
      "channel": 0,
      "note": 58,
      "start": 19.8941,
      "duration": 2.6461,
      "velocity": 105,
      "chip": "ym2612"
    },
    {
      "channel": 1,
      "note": 67,
      "start": 19.8968,
      "duration": 2.6435,
      "velocity": 105,
      "chip": "ym2612"
    },
    {
      "channel": 2,
      "note": 56,
      "start": 19.8998,
      "duration": 0.0741,
      "velocity": 92,
      "chip": "ym2612"
    },
    {
      "channel": 3,
      "note": 45,
      "start": 19.9025,
      "duration": 0.0712,
      "velocity": 117,
      "chip": "ym2612"
    },
    {
      "channel": 2,
      "note": 57,
      "start": 19.9773,
      "duration": 0.08,
      "velocity": 92,
      "chip": "ym2612"
    },
    {
      "channel": 4,
      "note": 91,
      "start": 20.0607,
      "duration": 0.0798,
      "velocity": 106,
      "chip": "ym2612"
    },
    {
      "channel": 5,
      "note": 82,
      "start": 20.0636,
      "duration": 0.077,
      "velocity": 106,
      "chip": "ym2612"
    },
    {
      "channel": 2,
      "note": 58,
      "start": 20.0667,
      "duration": 0.3238,
      "velocity": 92,
      "chip": "ym2612"
    },
    {
      "channel": 3,
      "note": 45,
      "start": 20.0694,
      "duration": 0.0709,
      "velocity": 117,
      "chip": "ym2612"
    },
    {
      "channel": 4,
      "note": 86,
      "start": 20.1437,
      "duration": 0.0801,
      "velocity": 106,
      "chip": "ym2612"
    },
    {
      "channel": 5,
      "note": 79,
      "start": 20.1463,
      "duration": 0.0776,
      "velocity": 106,
      "chip": "ym2612"
    },
    {
      "channel": 4,
      "note": 82,
      "start": 20.2269,
      "duration": 0.0801,
      "velocity": 106,
      "chip": "ym2612"
    },
    {
      "channel": 5,
      "note": 74,
      "start": 20.23,
      "duration": 0.0772,
      "velocity": 106,
      "chip": "ym2612"
    },
    {
      "channel": 4,
      "note": 86,
      "start": 20.3102,
      "duration": 0.0801,
      "velocity": 106,
      "chip": "ym2612"
    },
    {
      "channel": 5,
      "note": 79,
      "start": 20.3129,
      "duration": 0.0776,
      "velocity": 106,
      "chip": "ym2612"
    },
    {
      "channel": 4,
      "note": 91,
      "start": 20.3936,
      "duration": 0.0801,
      "velocity": 106,
      "chip": "ym2612"
    },
    {
      "channel": 5,
      "note": 82,
      "start": 20.3962,
      "duration": 0.0776,
      "velocity": 106,
      "chip": "ym2612"
    },
    {
      "channel": 2,
      "note": 58,
      "start": 20.3993,
      "duration": 0.1579,
      "velocity": 92,
      "chip": "ym2612"
    },
    {
      "channel": 4,
      "note": 86,
      "start": 20.4769,
      "duration": 0.08,
      "velocity": 106,
      "chip": "ym2612"
    },
    {
      "channel": 5,
      "note": 79,
      "start": 20.4795,
      "duration": 0.0776,
      "velocity": 106,
      "chip": "ym2612"
    },
    {
      "channel": 4,
      "note": 82,
      "start": 20.5603,
      "duration": 0.0802,
      "velocity": 106,
      "chip": "ym2612"
    },
    {
      "channel": 5,
      "note": 74,
      "start": 20.563,
      "duration": 0.0776,
      "velocity": 106,
      "chip": "ym2612"
    },
    {
      "channel": 2,
      "note": 58,
      "start": 20.5664,
      "duration": 0.3241,
      "velocity": 92,
      "chip": "ym2612"
    },
    {
      "channel": 3,
      "note": 45,
      "start": 20.5692,
      "duration": 0.0712,
      "velocity": 117,
      "chip": "ym2612"
    },
    {
      "channel": 4,
      "note": 86,
      "start": 20.6437,
      "duration": 0.08,
      "velocity": 106,
      "chip": "ym2612"
    },
    {
      "channel": 5,
      "note": 79,
      "start": 20.6463,
      "duration": 0.0775,
      "velocity": 106,
      "chip": "ym2612"
    },
    {
      "channel": 4,
      "note": 90,
      "start": 20.7268,
      "duration": 0.0803,
      "velocity": 106,
      "chip": "ym2612"
    },
    {
      "channel": 5,
      "note": 82,
      "start": 20.7295,
      "duration": 0.0777,
      "velocity": 106,
      "chip": "ym2612"
    },
    {
      "channel": 3,
      "note": 45,
      "start": 20.7323,
      "duration": 0.0747,
      "velocity": 117,
      "chip": "ym2612"
    },
    {
      "channel": 4,
      "note": 86,
      "start": 20.8103,
      "duration": 0.08,
      "velocity": 106,
      "chip": "ym2612"
    },
    {
      "channel": 5,
      "note": 78,
      "start": 20.813,
      "duration": 0.0774,
      "velocity": 106,
      "chip": "ym2612"
    },
    {
      "channel": 4,
      "note": 82,
      "start": 20.8936,
      "duration": 0.0802,
      "velocity": 106,
      "chip": "ym2612"
    },
    {
      "channel": 5,
      "note": 74,
      "start": 20.8962,
      "duration": 0.0777,
      "velocity": 106,
      "chip": "ym2612"
    },
    {
      "channel": 2,
      "note": 58,
      "start": 20.8989,
      "duration": 0.3251,
      "velocity": 92,
      "chip": "ym2612"
    },
    {
      "channel": 3,
      "note": 45,
      "start": 20.9016,
      "duration": 0.072,
      "velocity": 117,
      "chip": "ym2612"
    },
    {
      "channel": 4,
      "note": 86,
      "start": 20.9774,
      "duration": 0.0796,
      "velocity": 106,
      "chip": "ym2612"
    },
    {
      "channel": 5,
      "note": 78,
      "start": 20.98,
      "duration": 0.0772,
      "velocity": 106,
      "chip": "ym2612"
    },
    {
      "channel": 4,
      "note": 90,
      "start": 21.0602,
      "duration": 0.0803,
      "velocity": 106,
      "chip": "ym2612"
    },
    {
      "channel": 5,
      "note": 82,
      "start": 21.0629,
      "duration": 0.0777,
      "velocity": 106,
      "chip": "ym2612"
    },
    {
      "channel": 4,
      "note": 86,
      "start": 21.1437,
      "duration": 0.0801,
      "velocity": 106,
      "chip": "ym2612"
    },
    {
      "channel": 5,
      "note": 78,
      "start": 21.1463,
      "duration": 0.0775,
      "velocity": 106,
      "chip": "ym2612"
    },
    {
      "channel": 4,
      "note": 82,
      "start": 21.2271,
      "duration": 0.08,
      "velocity": 106,
      "chip": "ym2612"
    },
    {
      "channel": 5,
      "note": 74,
      "start": 21.2297,
      "duration": 0.0775,
      "velocity": 106,
      "chip": "ym2612"
    },
    {
      "channel": 2,
      "note": 58,
      "start": 21.2328,
      "duration": 0.1578,
      "velocity": 92,
      "chip": "ym2612"
    },
    {
      "channel": 3,
      "note": 45,
      "start": 21.2355,
      "duration": 0.0715,
      "velocity": 117,
      "chip": "ym2612"
    },
    {
      "channel": 4,
      "note": 86,
      "start": 21.3103,
      "duration": 0.08,
      "velocity": 106,
      "chip": "ym2612"
    },
    {
      "channel": 5,
      "note": 78,
      "start": 21.313,
      "duration": 0.0775,
      "velocity": 106,
      "chip": "ym2612"
    },
    {
      "channel": 4,
      "note": 89,
      "start": 21.3937,
      "duration": 0.0802,
      "velocity": 106,
      "chip": "ym2612"
    },
    {
      "channel": 5,
      "note": 82,
      "start": 21.3963,
      "duration": 0.0777,
      "velocity": 106,
      "chip": "ym2612"
    },
    {
      "channel": 2,
      "note": 58,
      "start": 21.3994,
      "duration": 0.3245,
      "velocity": 92,
      "chip": "ym2612"
    },
    {
      "channel": 3,
      "note": 45,
      "start": 21.402,
      "duration": 0.0716,
      "velocity": 117,
      "chip": "ym2612"
    },
    {
      "channel": 4,
      "note": 86,
      "start": 21.477,
      "duration": 0.0801,
      "velocity": 106,
      "chip": "ym2612"
    },
    {
      "channel": 5,
      "note": 77,
      "start": 21.4796,
      "duration": 0.0776,
      "velocity": 106,
      "chip": "ym2612"
    },
    {
      "channel": 4,
      "note": 82,
      "start": 21.5602,
      "duration": 0.0801,
      "velocity": 106,
      "chip": "ym2612"
    },
    {
      "channel": 5,
      "note": 74,
      "start": 21.5633,
      "duration": 0.0772,
      "velocity": 106,
      "chip": "ym2612"
    },
    {
      "channel": 4,
      "note": 86,
      "start": 21.6435,
      "duration": 0.0801,
      "velocity": 106,
      "chip": "ym2612"
    },
    {
      "channel": 5,
      "note": 77,
      "start": 21.6462,
      "duration": 0.0776,
      "velocity": 106,
      "chip": "ym2612"
    },
    {
      "channel": 4,
      "note": 89,
      "start": 21.7269,
      "duration": 0.0801,
      "velocity": 106,
      "chip": "ym2612"
    },
    {
      "channel": 5,
      "note": 82,
      "start": 21.7295,
      "duration": 0.0776,
      "velocity": 106,
      "chip": "ym2612"
    },
    {
      "channel": 2,
      "note": 46,
      "start": 21.7327,
      "duration": 0.158,
      "velocity": 92,
      "chip": "ym2612"
    },
    {
      "channel": 4,
      "note": 86,
      "start": 21.8102,
      "duration": 0.0802,
      "velocity": 106,
      "chip": "ym2612"
    },
    {
      "channel": 5,
      "note": 77,
      "start": 21.8129,
      "duration": 0.0777,
      "velocity": 106,
      "chip": "ym2612"
    },
    {
      "channel": 4,
      "note": 82,
      "start": 21.8938,
      "duration": 0.08,
      "velocity": 106,
      "chip": "ym2612"
    },
    {
      "channel": 5,
      "note": 74,
      "start": 21.8964,
      "duration": 0.0775,
      "velocity": 106,
      "chip": "ym2612"
    },
    {
      "channel": 2,
      "note": 46,
      "start": 21.8995,
      "duration": 0.3244,
      "velocity": 92,
      "chip": "ym2612"
    },
    {
      "channel": 3,
      "note": 45,
      "start": 21.9026,
      "duration": 0.071,
      "velocity": 117,
      "chip": "ym2612"
    },
    {
      "channel": 4,
      "note": 86,
      "start": 21.977,
      "duration": 0.08,
      "velocity": 106,
      "chip": "ym2612"
    },
    {
      "channel": 5,
      "note": 77,
      "start": 21.9796,
      "duration": 0.0776,
      "velocity": 106,
      "chip": "ym2612"
    },
    {
      "channel": 4,
      "note": 88,
      "start": 22.0602,
      "duration": 0.0802,
      "velocity": 106,
      "chip": "ym2612"
    },
    {
      "channel": 5,
      "note": 82,
      "start": 22.0629,
      "duration": 0.0777,
      "velocity": 106,
      "chip": "ym2612"
    },
    {
      "channel": 3,
      "note": 45,
      "start": 22.0657,
      "duration": 0.0745,
      "velocity": 117,
      "chip": "ym2612"
    },
    {
      "channel": 4,
      "note": 84,
      "start": 22.1436,
      "duration": 0.0801,
      "velocity": 106,
      "chip": "ym2612"
    },
    {
      "channel": 5,
      "note": 79,
      "start": 22.1462,
      "duration": 0.0776,
      "velocity": 106,
      "chip": "ym2612"
    },
    {
      "channel": 4,
      "note": 79,
      "start": 22.227,
      "duration": 0.0801,
      "velocity": 106,
      "chip": "ym2612"
    },
    {
      "channel": 5,
      "note": 76,
      "start": 22.2296,
      "duration": 0.0776,
      "velocity": 106,
      "chip": "ym2612"
    },
    {
      "channel": 2,
      "note": 50,
      "start": 22.2327,
      "duration": 0.3412,
      "velocity": 92,
      "chip": "ym2612"
    },
    {
      "channel": 4,
      "note": 84,
      "start": 22.3106,
      "duration": 0.0797,
      "velocity": 106,
      "chip": "ym2612"
    },
    {
      "channel": 5,
      "note": 79,
      "start": 22.3133,
      "duration": 0.0772,
      "velocity": 106,
      "chip": "ym2612"
    },
    {
      "channel": 4,
      "note": 88,
      "start": 22.3935,
      "duration": 0.0802,
      "velocity": 106,
      "chip": "ym2612"
    },
    {
      "channel": 5,
      "note": 82,
      "start": 22.3962,
      "duration": 0.0776,
      "velocity": 106,
      "chip": "ym2612"
    },
    {
      "channel": 4,
      "note": 84,
      "start": 22.4769,
      "duration": 0.0968,
      "velocity": 106,
      "chip": "ym2612"
    },
    {
      "channel": 5,
      "note": 79,
      "start": 22.4795,
      "duration": 0.0943,
      "velocity": 106,
      "chip": "ym2612"
    },
    {
      "channel": 4,
      "note": 79,
      "start": 22.5771,
      "duration": 0.08,
      "velocity": 106,
      "chip": "ym2612"
    },
    {
      "channel": 5,
      "note": 76,
      "start": 22.5797,
      "duration": 0.0775,
      "velocity": 106,
      "chip": "ym2612"
    },
    {
      "channel": 0,
      "note": 59,
      "start": 22.5829,
      "duration": 0.4906,
      "velocity": 105,
      "chip": "ym2612"
    },
    {
      "channel": 1,
      "note": 64,
      "start": 22.5854,
      "duration": 0.4882,
      "velocity": 105,
      "chip": "ym2612"
    },
    {
      "channel": 2,
      "note": 52,
      "start": 22.588,
      "duration": 0.3193,
      "velocity": 92,
      "chip": "ym2612"
    },
    {
      "channel": 3,
      "note": 45,
      "start": 22.5912,
      "duration": 0.0658,
      "velocity": 117,
      "chip": "ym2612"
    },
    {
      "channel": 4,
      "note": 84,
      "start": 22.6602,
      "duration": 0.08,
      "velocity": 106,
      "chip": "ym2612"
    },
    {
      "channel": 5,
      "note": 79,
      "start": 22.6629,
      "duration": 0.0775,
      "velocity": 106,
      "chip": "ym2612"
    },
    {
      "channel": 4,
      "note": 76,
      "start": 22.7438,
      "duration": 0.1632,
      "velocity": 106,
      "chip": "ym2612"
    },
    {
      "channel": 5,
      "note": 67,
      "start": 22.7472,
      "duration": 0.16,
      "velocity": 106,
      "chip": "ym2612"
    },
    {
      "channel": 4,
      "note": 79,
      "start": 22.9107,
      "duration": 0.3296,
      "velocity": 106,
      "chip": "ym2612"
    },
    {
      "channel": 5,
      "note": 71,
      "start": 22.9136,
      "duration": 0.3268,
      "velocity": 106,
      "chip": "ym2612"
    },
    {
      "channel": 2,
      "note": 52,
      "start": 22.9167,
      "duration": 0.1572,
      "velocity": 92,
      "chip": "ym2612"
    },
    {
      "channel": 3,
      "note": 45,
      "start": 22.9192,
      "duration": 0.071,
      "velocity": 117,
      "chip": "ym2612"
    },
    {
      "channel": 2,
      "note": 52,
      "start": 23.0773,
      "duration": 0.1632,
      "velocity": 92,
      "chip": "ym2612"
    },
    {
      "channel": 4,
      "note": 83,
      "start": 23.2437,
      "duration": 0.33,
      "velocity": 106,
      "chip": "ym2612"
    },
    {
      "channel": 5,
      "note": 76,
      "start": 23.2463,
      "duration": 0.3275,
      "velocity": 106,
      "chip": "ym2612"
    },
    {
      "channel": 0,
      "note": 60,
      "start": 23.2491,
      "duration": 0.1576,
      "velocity": 105,
      "chip": "ym2612"
    },
    {
      "channel": 1,
      "note": 67,
      "start": 23.2517,
      "duration": 0.1553,
      "velocity": 105,
      "chip": "ym2612"
    },
    {
      "channel": 2,
      "note": 52,
      "start": 23.2546,
      "duration": 0.3193,
      "velocity": 92,
      "chip": "ym2612"
    },
    {
      "channel": 3,
      "note": 45,
      "start": 23.2577,
      "duration": 0.066,
      "velocity": 117,
      "chip": "ym2612"
    },
    {
      "channel": 3,
      "note": 45,
      "start": 23.4105,
      "duration": 0.0797,
      "velocity": 117,
      "chip": "ym2612"
    },
    {
      "channel": 4,
      "note": 88,
      "start": 23.5769,
      "duration": 0.33,
      "velocity": 106,
      "chip": "ym2612"
    },
    {
      "channel": 5,
      "note": 79,
      "start": 23.5796,
      "duration": 0.3275,
      "velocity": 106,
      "chip": "ym2612"
    },
    {
      "channel": 0,
      "note": 64,
      "start": 23.5822,
      "duration": 0.158,
      "velocity": 105,
      "chip": "ym2612"
    },
    {
      "channel": 1,
      "note": 59,
      "start": 23.5847,
      "duration": 0.1556,
      "velocity": 105,
      "chip": "ym2612"
    },
    {
      "channel": 2,
      "note": 52,
      "start": 23.5877,
      "duration": 0.1529,
      "velocity": 92,
      "chip": "ym2612"
    },
    {
      "channel": 3,
      "note": 45,
      "start": 23.5908,
      "duration": 0.0661,
      "velocity": 117,
      "chip": "ym2612"
    },
    {
      "channel": 2,
      "note": 52,
      "start": 23.744,
      "duration": 0.1632,
      "velocity": 92,
      "chip": "ym2612"
    },
    {
      "channel": 4,
      "note": 90,
      "start": 23.9107,
      "duration": 0.1629,
      "velocity": 106,
      "chip": "ym2612"
    },
    {
      "channel": 5,
      "note": 81,
      "start": 23.9137,
      "duration": 0.16,
      "velocity": 106,
      "chip": "ym2612"
    },
    {
      "channel": 0,
      "note": 67,
      "start": 23.9171,
      "duration": 2.8231,
      "velocity": 105,
      "chip": "ym2612"
    },
    {
      "channel": 1,
      "note": 58,
      "start": 23.9198,
      "duration": 2.8205,
      "velocity": 105,
      "chip": "ym2612"
    },
    {
      "channel": 2,
      "note": 56,
      "start": 23.9229,
      "duration": 0.0677,
      "velocity": 92,
      "chip": "ym2612"
    },
    {
      "channel": 3,
      "note": 45,
      "start": 23.9258,
      "duration": 0.0646,
      "velocity": 117,
      "chip": "ym2612"
    },
    {
      "channel": 2,
      "note": 57,
      "start": 23.9944,
      "duration": 0.0795,
      "velocity": 92,
      "chip": "ym2612"
    },
    {
      "channel": 4,
      "note": 91,
      "start": 24.0777,
      "duration": 0.0793,
      "velocity": 106,
      "chip": "ym2612"
    },
    {
      "channel": 5,
      "note": 82,
      "start": 24.0806,
      "duration": 0.0765,
      "velocity": 106,
      "chip": "ym2612"
    },
    {
      "channel": 2,
      "note": 58,
      "start": 24.0837,
      "duration": 0.3235,
      "velocity": 92,
      "chip": "ym2612"
    },
    {
      "channel": 4,
      "note": 86,
      "start": 24.1601,
      "duration": 0.0802,
      "velocity": 106,
      "chip": "ym2612"
    },
    {
      "channel": 5,
      "note": 79,
      "start": 24.1628,
      "duration": 0.0777,
      "velocity": 106,
      "chip": "ym2612"
    },
    {
      "channel": 4,
      "note": 82,
      "start": 24.2435,
      "duration": 0.0803,
      "velocity": 106,
      "chip": "ym2612"
    },
    {
      "channel": 5,
      "note": 74,
      "start": 24.2462,
      "duration": 0.0777,
      "velocity": 106,
      "chip": "ym2612"
    },
    {
      "channel": 3,
      "note": 45,
      "start": 24.2489,
      "duration": 0.0747,
      "velocity": 117,
      "chip": "ym2612"
    },
    {
      "channel": 4,
      "note": 86,
      "start": 24.327,
      "duration": 0.08,
      "velocity": 106,
      "chip": "ym2612"
    },
    {
      "channel": 5,
      "note": 79,
      "start": 24.3297,
      "duration": 0.0774,
      "velocity": 106,
      "chip": "ym2612"
    },
    {
      "channel": 4,
      "note": 91,
      "start": 24.4102,
      "duration": 0.0801,
      "velocity": 106,
      "chip": "ym2612"
    },
    {
      "channel": 5,
      "note": 82,
      "start": 24.4129,
      "duration": 0.0776,
      "velocity": 106,
      "chip": "ym2612"
    },
    {
      "channel": 2,
      "note": 58,
      "start": 24.416,
      "duration": 0.158,
      "velocity": 92,
      "chip": "ym2612"
    },
    {
      "channel": 4,
      "note": 86,
      "start": 24.4936,
      "duration": 0.0802,
      "velocity": 106,
      "chip": "ym2612"
    },
    {
      "channel": 5,
      "note": 79,
      "start": 24.4966,
      "duration": 0.0773,
      "velocity": 106,
      "chip": "ym2612"
    },
    {
      "channel": 4,
      "note": 82,
      "start": 24.5771,
      "duration": 0.08,
      "velocity": 106,
      "chip": "ym2612"
    },
    {
      "channel": 5,
      "note": 74,
      "start": 24.5797,
      "duration": 0.0775,
      "velocity": 106,
      "chip": "ym2612"
    },
    {
      "channel": 2,
      "note": 58,
      "start": 24.5828,
      "duration": 0.3245,
      "velocity": 92,
      "chip": "ym2612"
    },
    {
      "channel": 3,
      "note": 45,
      "start": 24.5855,
      "duration": 0.0715,
      "velocity": 117,
      "chip": "ym2612"
    },
    {
      "channel": 4,
      "note": 86,
      "start": 24.6603,
      "duration": 0.08,
      "velocity": 106,
      "chip": "ym2612"
    },
    {
      "channel": 5,
      "note": 79,
      "start": 24.663,
      "duration": 0.0775,
      "velocity": 106,
      "chip": "ym2612"
    },
    {
      "channel": 4,
      "note": 90,
      "start": 24.7435,
      "duration": 0.0803,
      "velocity": 106,
      "chip": "ym2612"
    },
    {
      "channel": 5,
      "note": 82,
      "start": 24.7462,
      "duration": 0.0777,
      "velocity": 106,
      "chip": "ym2612"
    },
    {
      "channel": 3,
      "note": 45,
      "start": 24.7493,
      "duration": 0.0743,
      "velocity": 117,
      "chip": "ym2612"
    },
    {
      "channel": 4,
      "note": 86,
      "start": 24.827,
      "duration": 0.0801,
      "velocity": 106,
      "chip": "ym2612"
    },
    {
      "channel": 5,
      "note": 78,
      "start": 24.8296,
      "duration": 0.0776,
      "velocity": 106,
      "chip": "ym2612"
    },
    {
      "channel": 4,
      "note": 82,
      "start": 24.9103,
      "duration": 0.0801,
      "velocity": 106,
      "chip": "ym2612"
    },
    {
      "channel": 5,
      "note": 74,
      "start": 24.913,
      "duration": 0.0775,
      "velocity": 106,
      "chip": "ym2612"
    },
    {
      "channel": 2,
      "note": 58,
      "start": 24.9157,
      "duration": 0.3249,
      "velocity": 92,
      "chip": "ym2612"
    },
    {
      "channel": 3,
      "note": 45,
      "start": 24.9184,
      "duration": 0.0718,
      "velocity": 117,
      "chip": "ym2612"
    },
    {
      "channel": 4,
      "note": 86,
      "start": 24.9936,
      "duration": 0.0801,
      "velocity": 106,
      "chip": "ym2612"
    },
    {
      "channel": 5,
      "note": 78,
      "start": 24.9962,
      "duration": 0.0776,
      "velocity": 106,
      "chip": "ym2612"
    },
    {
      "channel": 4,
      "note": 90,
      "start": 25.0768,
      "duration": 0.0802,
      "velocity": 106,
      "chip": "ym2612"
    },
    {
      "channel": 5,
      "note": 82,
      "start": 25.0795,
      "duration": 0.0776,
      "velocity": 106,
      "chip": "ym2612"
    },
    {
      "channel": 4,
      "note": 86,
      "start": 25.1602,
      "duration": 0.08,
      "velocity": 106,
      "chip": "ym2612"
    },
    {
      "channel": 5,
      "note": 78,
      "start": 25.1629,
      "duration": 0.0776,
      "velocity": 106,
      "chip": "ym2612"
    },
    {
      "channel": 4,
      "note": 82,
      "start": 25.2441,
      "duration": 0.0797,
      "velocity": 106,
      "chip": "ym2612"
    },
    {
      "channel": 5,
      "note": 74,
      "start": 25.2467,
      "duration": 0.0772,
      "velocity": 106,
      "chip": "ym2612"
    },
    {
      "channel": 2,
      "note": 58,
      "start": 25.2498,
      "duration": 0.1575,
      "velocity": 92,
      "chip": "ym2612"
    },
    {
      "channel": 3,
      "note": 45,
      "start": 25.2525,
      "duration": 0.0712,
      "velocity": 117,
      "chip": "ym2612"
    },
    {
      "channel": 4,
      "note": 86,
      "start": 25.327,
      "duration": 0.08,
      "velocity": 106,
      "chip": "ym2612"
    },
    {
      "channel": 5,
      "note": 78,
      "start": 25.3297,
      "duration": 0.0775,
      "velocity": 106,
      "chip": "ym2612"
    },
    {
      "channel": 4,
      "note": 89,
      "start": 25.4102,
      "duration": 0.0802,
      "velocity": 106,
      "chip": "ym2612"
    },
    {
      "channel": 5,
      "note": 82,
      "start": 25.4129,
      "duration": 0.0777,
      "velocity": 106,
      "chip": "ym2612"
    },
    {
      "channel": 2,
      "note": 58,
      "start": 25.4163,
      "duration": 0.3242,
      "velocity": 92,
      "chip": "ym2612"
    },
    {
      "channel": 3,
      "note": 45,
      "start": 25.419,
      "duration": 0.0713,
      "velocity": 117,
      "chip": "ym2612"
    },
    {
      "channel": 4,
      "note": 86,
      "start": 25.4937,
      "duration": 0.08,
      "velocity": 106,
      "chip": "ym2612"
    },
    {
      "channel": 5,
      "note": 77,
      "start": 25.4963,
      "duration": 0.0774,
      "velocity": 106,
      "chip": "ym2612"
    },
    {
      "channel": 4,
      "note": 82,
      "start": 25.5768,
      "duration": 0.0802,
      "velocity": 106,
      "chip": "ym2612"
    },
    {
      "channel": 5,
      "note": 74,
      "start": 25.5795,
      "duration": 0.0777,
      "velocity": 106,
      "chip": "ym2612"
    },
    {
      "channel": 4,
      "note": 86,
      "start": 25.6602,
      "duration": 0.0801,
      "velocity": 106,
      "chip": "ym2612"
    },
    {
      "channel": 5,
      "note": 77,
      "start": 25.6629,
      "duration": 0.0776,
      "velocity": 106,
      "chip": "ym2612"
    },
    {
      "channel": 4,
      "note": 89,
      "start": 25.7437,
      "duration": 0.0801,
      "velocity": 106,
      "chip": "ym2612"
    },
    {
      "channel": 5,
      "note": 82,
      "start": 25.7463,
      "duration": 0.0776,
      "velocity": 106,
      "chip": "ym2612"
    },
    {
      "channel": 2,
      "note": 46,
      "start": 25.7494,
      "duration": 0.1579,
      "velocity": 92,
      "chip": "ym2612"
    },
    {
      "channel": 4,
      "note": 86,
      "start": 25.8269,
      "duration": 0.0801,
      "velocity": 106,
      "chip": "ym2612"
    },
    {
      "channel": 5,
      "note": 77,
      "start": 25.83,
      "duration": 0.0772,
      "velocity": 106,
      "chip": "ym2612"
    },
    {
      "channel": 4,
      "note": 82,
      "start": 25.9103,
      "duration": 0.0802,
      "velocity": 106,
      "chip": "ym2612"
    },
    {
      "channel": 5,
      "note": 74,
      "start": 25.913,
      "duration": 0.0777,
      "velocity": 106,
      "chip": "ym2612"
    },
    {
      "channel": 2,
      "note": 46,
      "start": 25.916,
      "duration": 0.3246,
      "velocity": 92,
      "chip": "ym2612"
    },
    {
      "channel": 3,
      "note": 45,
      "start": 25.9187,
      "duration": 0.0716,
      "velocity": 117,
      "chip": "ym2612"
    },
    {
      "channel": 4,
      "note": 86,
      "start": 25.9937,
      "duration": 0.08,
      "velocity": 106,
      "chip": "ym2612"
    },
    {
      "channel": 5,
      "note": 77,
      "start": 25.9963,
      "duration": 0.0775,
      "velocity": 106,
      "chip": "ym2612"
    },
    {
      "channel": 4,
      "note": 88,
      "start": 26.0769,
      "duration": 0.0802,
      "velocity": 106,
      "chip": "ym2612"
    },
    {
      "channel": 5,
      "note": 82,
      "start": 26.0795,
      "duration": 0.0777,
      "velocity": 106,
      "chip": "ym2612"
    },
    {
      "channel": 3,
      "note": 45,
      "start": 26.0824,
      "duration": 0.0745,
      "velocity": 117,
      "chip": "ym2612"
    },
    {
      "channel": 4,
      "note": 84,
      "start": 26.1602,
      "duration": 0.0801,
      "velocity": 106,
      "chip": "ym2612"
    },
    {
      "channel": 5,
      "note": 79,
      "start": 26.1629,
      "duration": 0.0776,
      "velocity": 106,
      "chip": "ym2612"
    },
    {
      "channel": 4,
      "note": 79,
      "start": 26.2437,
      "duration": 0.08,
      "velocity": 106,
      "chip": "ym2612"
    },
    {
      "channel": 5,
      "note": 76,
      "start": 26.2463,
      "duration": 0.0776,
      "velocity": 106,
      "chip": "ym2612"
    },
    {
      "channel": 2,
      "note": 50,
      "start": 26.2493,
      "duration": 0.4915,
      "velocity": 92,
      "chip": "ym2612"
    },
    {
      "channel": 4,
      "note": 84,
      "start": 26.3268,
      "duration": 0.0801,
      "velocity": 106,
      "chip": "ym2612"
    },
    {
      "channel": 5,
      "note": 79,
      "start": 26.3295,
      "duration": 0.0776,
      "velocity": 106,
      "chip": "ym2612"
    },
    {
      "channel": 4,
      "note": 88,
      "start": 26.4101,
      "duration": 0.0803,
      "velocity": 106,
      "chip": "ym2612"
    },
    {
      "channel": 5,
      "note": 82,
      "start": 26.4128,
      "duration": 0.0778,
      "velocity": 106,
      "chip": "ym2612"
    },
    {
      "channel": 4,
      "note": 84,
      "start": 26.4937,
      "duration": 0.08,
      "velocity": 106,
      "chip": "ym2612"
    },
    {
      "channel": 5,
      "note": 79,
      "start": 26.4963,
      "duration": 0.0776,
      "velocity": 106,
      "chip": "ym2612"
    },
    {
      "channel": 4,
      "note": 79,
      "start": 26.5773,
      "duration": 0.0798,
      "velocity": 106,
      "chip": "ym2612"
    },
    {
      "channel": 5,
      "note": 76,
      "start": 26.58,
      "duration": 0.0773,
      "velocity": 106,
      "chip": "ym2612"
    },
    {
      "channel": 3,
      "note": 45,
      "start": 26.5828,
      "duration": 0.0741,
      "velocity": 117,
      "chip": "ym2612"
    },
    {
      "channel": 4,
      "note": 84,
      "start": 26.6603,
      "duration": 0.0802,
      "velocity": 106,
      "chip": "ym2612"
    },
    {
      "channel": 5,
      "note": 79,
      "start": 26.6629,
      "duration": 0.0777,
      "velocity": 106,
      "chip": "ym2612"
    },
    {
      "channel": 4,
      "note": 88,
      "start": 26.7441,
      "duration": 0.6796,
      "velocity": 106,
      "chip": "ym2612"
    },
    {
      "channel": 5,
      "note": 76,
      "start": 26.7471,
      "duration": 1.1766,
      "velocity": 106,
      "chip": "ym2612"
    },
    {
      "channel": 0,
      "note": 52,
      "start": 26.75,
      "duration": 0.3402,
      "velocity": 105,
      "chip": "ym2612"
    },
    {
      "channel": 1,
      "note": 57,
      "start": 26.7525,
      "duration": 0.3378,
      "velocity": 105,
      "chip": "ym2612"
    },
    {
      "channel": 2,
      "note": 57,
      "start": 26.7552,
      "duration": 0.3354,
      "velocity": 92,
      "chip": "ym2612"
    },
    {
      "channel": 3,
      "note": 45,
      "start": 26.7584,
      "duration": 0.0818,
      "velocity": 117,
      "chip": "ym2612"
    },
    {
      "channel": 3,
      "note": 78,
      "start": 27.2606,
      "duration": 0.163,
      "velocity": 106,
      "chip": "ym2612"
    },
    {
      "channel": 0,
      "note": 57,
      "start": 27.2635,
      "duration": 0.0069,
      "velocity": 105,
      "chip": "ym2612"
    },
    {
      "channel": 1,
      "note": 52,
      "start": 27.266,
      "duration": 0.5408,
      "velocity": 105,
      "chip": "ym2612"
    },
    {
      "channel": 2,
      "note": 57,
      "start": 27.269,
      "duration": 0.155,
      "velocity": 92,
      "chip": "ym2612"
    },
    {
      "channel": 0,
      "note": 45,
      "start": 27.2723,
      "duration": 0.0679,
      "velocity": 117,
      "chip": "ym2612"
    },
    {
      "channel": 3,
      "note": 79,
      "start": 27.4269,
      "duration": 0.1634,
      "velocity": 106,
      "chip": "ym2612"
    },
    {
      "channel": 2,
      "note": 57,
      "start": 27.4305,
      "duration": 0.3266,
      "velocity": 92,
      "chip": "ym2612"
    },
    {
      "channel": 0,
      "note": 45,
      "start": 27.433,
      "duration": 0.0739,
      "velocity": 117,
      "chip": "ym2612"
    },
    {
      "channel": 3,
      "note": 83,
      "start": 27.5934,
      "duration": 0.1634,
      "velocity": 106,
      "chip": "ym2612"
    },
    {
      "channel": 0,
      "note": 45,
      "start": 27.5964,
      "duration": 0.0771,
      "velocity": 117,
      "chip": "ym2612"
    },
    {
      "channel": 3,
      "note": 85,
      "start": 27.7601,
      "duration": 0.1634,
      "velocity": 106,
      "chip": "ym2612"
    },
    {
      "channel": 3,
      "note": 87,
      "start": 27.9272,
      "duration": 0.663,
      "velocity": 106,
      "chip": "ym2612"
    },
    {
      "channel": 5,
      "note": 75,
      "start": 27.9306,
      "duration": 1.4931,
      "velocity": 106,
      "chip": "ym2612"
    },
    {
      "channel": 1,
      "note": 52,
      "start": 27.9339,
      "duration": 0.5231,
      "velocity": 105,
      "chip": "ym2612"
    },
    {
      "channel": 4,
      "note": 57,
      "start": 27.9366,
      "duration": 0.5205,
      "velocity": 105,
      "chip": "ym2612"
    },
    {
      "channel": 2,
      "note": 57,
      "start": 27.9396,
      "duration": 0.4842,
      "velocity": 92,
      "chip": "ym2612"
    },
    {
      "channel": 0,
      "note": 45,
      "start": 27.9424,
      "duration": 0.0644,
      "velocity": 117,
      "chip": "ym2612"
    },
    {
      "channel": 0,
      "note": 45,
      "start": 28.2602,
      "duration": 0.08,
      "velocity": 117,
      "chip": "ym2612"
    },
    {
      "channel": 3,
      "note": 78,
      "start": 28.5941,
      "duration": 0.1628,
      "velocity": 106,
      "chip": "ym2612"
    },
    {
      "channel": 1,
      "note": 57,
      "start": 28.5971,
      "duration": 0.6597,
      "velocity": 105,
      "chip": "ym2612"
    },
    {
      "channel": 4,
      "note": 52,
      "start": 28.5998,
      "duration": 0.6574,
      "velocity": 105,
      "chip": "ym2612"
    },
    {
      "channel": 2,
      "note": 57,
      "start": 28.6027,
      "duration": 0.1545,
      "velocity": 92,
      "chip": "ym2612"
    },
    {
      "channel": 0,
      "note": 45,
      "start": 28.6053,
      "duration": 0.0683,
      "velocity": 117,
      "chip": "ym2612"
    },
    {
      "channel": 3,
      "note": 79,
      "start": 28.7601,
      "duration": 0.1634,
      "velocity": 106,
      "chip": "ym2612"
    },
    {
      "channel": 2,
      "note": 57,
      "start": 28.7633,
      "duration": 0.494,
      "velocity": 92,
      "chip": "ym2612"
    },
    {
      "channel": 0,
      "note": 45,
      "start": 28.7658,
      "duration": 0.0744,
      "velocity": 117,
      "chip": "ym2612"
    },
    {
      "channel": 3,
      "note": 83,
      "start": 28.9267,
      "duration": 0.1637,
      "velocity": 106,
      "chip": "ym2612"
    },
    {
      "channel": 0,
      "note": 45,
      "start": 28.9296,
      "duration": 0.0773,
      "velocity": 117,
      "chip": "ym2612"
    },
    {
      "channel": 3,
      "note": 85,
      "start": 29.0937,
      "duration": 0.1634,
      "velocity": 106,
      "chip": "ym2612"
    },
    {
      "channel": 0,
      "note": 45,
      "start": 29.2608,
      "duration": 0.0793,
      "velocity": 117,
      "chip": "ym2612"
    },
    {
      "channel": 3,
      "note": 86,
      "start": 29.4271,
      "duration": 0.6632,
      "velocity": 106,
      "chip": "ym2612"
    },
    {
      "channel": 5,
      "note": 74,
      "start": 29.4301,
      "duration": 0.6605,
      "velocity": 106,
      "chip": "ym2612"
    },
    {
      "channel": 1,
      "note": 52,
      "start": 29.433,
      "duration": 0.3239,
      "velocity": 105,
      "chip": "ym2612"
    },
    {
      "channel": 4,
      "note": 57,
      "start": 29.4358,
      "duration": 0.3045,
      "velocity": 105,
      "chip": "ym2612"
    },
    {
      "channel": 2,
      "note": 57,
      "start": 29.4388,
      "duration": 0.3184,
      "velocity": 92,
      "chip": "ym2612"
    },
    {
      "channel": 0,
      "note": 45,
      "start": 29.4418,
      "duration": 0.0651,
      "velocity": 117,
      "chip": "ym2612"
    },
    {
      "channel": 1,
      "note": 52,
      "start": 29.9277,
      "duration": 0.1625,
      "velocity": 105,
      "chip": "ym2612"
    },
    {
      "channel": 4,
      "note": 57,
      "start": 29.9303,
      "duration": 0.1602,
      "velocity": 105,
      "chip": "ym2612"
    },
    {
      "channel": 2,
      "note": 57,
      "start": 29.9337,
      "duration": 0.1571,
      "velocity": 92,
      "chip": "ym2612"
    },
    {
      "channel": 0,
      "note": 45,
      "start": 29.9366,
      "duration": 0.0703,
      "velocity": 117,
      "chip": "ym2612"
    },
    {
      "channel": 3,
      "note": 85,
      "start": 30.0937,
      "duration": 0.6632,
      "velocity": 106,
      "chip": "ym2612"
    },
    {
      "channel": 5,
      "note": 73,
      "start": 30.0964,
      "duration": 0.6607,
      "velocity": 106,
      "chip": "ym2612"
    },
    {
      "channel": 1,
      "note": 57,
      "start": 30.0993,
      "duration": 0.491,
      "velocity": 105,
      "chip": "ym2612"
    },
    {
      "channel": 4,
      "note": 52,
      "start": 30.1019,
      "duration": 0.4885,
      "velocity": 105,
      "chip": "ym2612"
    },
    {
      "channel": 2,
      "note": 57,
      "start": 30.1049,
      "duration": 0.319,
      "velocity": 92,
      "chip": "ym2612"
    },
    {
      "channel": 0,
      "note": 45,
      "start": 30.1078,
      "duration": 0.0657,
      "velocity": 117,
      "chip": "ym2612"
    },
    {
      "channel": 2,
      "note": 55,
      "start": 30.4275,
      "duration": 0.1631,
      "velocity": 92,
      "chip": "ym2612"
    },
    {
      "channel": 2,
      "note": 53,
      "start": 30.594,
      "duration": 0.1632,
      "velocity": 92,
      "chip": "ym2612"
    },
    {
      "channel": 0,
      "note": 45,
      "start": 30.5966,
      "duration": 0.0768,
      "velocity": 117,
      "chip": "ym2612"
    },
    {
      "channel": 3,
      "note": 84,
      "start": 30.7606,
      "duration": 0.1632,
      "velocity": 106,
      "chip": "ym2612"
    },
    {
      "channel": 5,
      "note": 77,
      "start": 30.7636,
      "duration": 0.1604,
      "velocity": 106,
      "chip": "ym2612"
    },
    {
      "channel": 1,
      "note": 65,
      "start": 30.7664,
      "duration": 0.1572,
      "velocity": 105,
      "chip": "ym2612"
    },
    {
      "channel": 4,
      "note": 60,
      "start": 30.7691,
      "duration": 0.1548,
      "velocity": 105,
      "chip": "ym2612"
    },
    {
      "channel": 2,
      "note": 50,
      "start": 30.772,
      "duration": 0.3354,
      "velocity": 92,
      "chip": "ym2612"
    },
    {
      "channel": 3,
      "note": 83,
      "start": 30.9271,
      "duration": 0.18,
      "velocity": 106,
      "chip": "ym2612"
    },
    {
      "channel": 5,
      "note": 76,
      "start": 30.9297,
      "duration": 0.1776,
      "velocity": 106,
      "chip": "ym2612"
    },
    {
      "channel": 1,
      "note": 59,
      "start": 30.9324,
      "duration": 0.1745,
      "velocity": 105,
      "chip": "ym2612"
    },
    {
      "channel": 4,
      "note": 64,
      "start": 30.9354,
      "duration": 0.1718,
      "velocity": 105,
      "chip": "ym2612"
    },
    {
      "channel": 0,
      "note": 45,
      "start": 30.9379,
      "duration": 0.069,
      "velocity": 117,
      "chip": "ym2612"
    },
    {
      "channel": 3,
      "note": 82,
      "start": 31.1105,
      "duration": 0.1632,
      "velocity": 106,
      "chip": "ym2612"
    },
    {
      "channel": 5,
      "note": 75,
      "start": 31.1131,
      "duration": 0.1608,
      "velocity": 106,
      "chip": "ym2612"
    },
    {
      "channel": 1,
      "note": 58,
      "start": 31.1158,
      "duration": 0.1578,
      "velocity": 105,
      "chip": "ym2612"
    },
    {
      "channel": 4,
      "note": 63,
      "start": 31.1184,
      "duration": 0.1554,
      "velocity": 105,
      "chip": "ym2612"
    },
    {
      "channel": 3,
      "note": 81,
      "start": 31.2778,
      "duration": 0.3292,
      "velocity": 106,
      "chip": "ym2612"
    },
    {
      "channel": 5,
      "note": 74,
      "start": 31.2807,
      "duration": 0.3263,
      "velocity": 106,
      "chip": "ym2612"
    },
    {
      "channel": 1,
      "note": 57,
      "start": 31.2834,
      "duration": 0.1568,
      "velocity": 105,
      "chip": "ym2612"
    },
    {
      "channel": 4,
      "note": 62,
      "start": 31.286,
      "duration": 0.1544,
      "velocity": 105,
      "chip": "ym2612"
    },
    {
      "channel": 2,
      "note": 50,
      "start": 31.2888,
      "duration": 0.3184,
      "velocity": 92,
      "chip": "ym2612"
    },
    {
      "channel": 0,
      "note": 45,
      "start": 31.2919,
      "duration": 0.0651,
      "velocity": 117,
      "chip": "ym2612"
    },
    {
      "channel": 0,
      "note": 45,
      "start": 31.4438,
      "duration": 0.0798,
      "velocity": 117,
      "chip": "ym2612"
    },
    {
      "channel": 1,
      "note": 62,
      "start": 31.6107,
      "duration": 0.4962,
      "velocity": 105,
      "chip": "ym2612"
    },
    {
      "channel": 4,
      "note": 57,
      "start": 31.6133,
      "duration": 0.4938,
      "velocity": 105,
      "chip": "ym2612"
    },
    {
      "channel": 2,
      "note": 53,
      "start": 31.6163,
      "duration": 0.1574,
      "velocity": 92,
      "chip": "ym2612"
    },
    {
      "channel": 0,
      "note": 45,
      "start": 31.6189,
      "duration": 0.0713,
      "velocity": 117,
      "chip": "ym2612"
    },
    {
      "channel": 2,
      "note": 55,
      "start": 31.7775,
      "duration": 0.1629,
      "velocity": 92,
      "chip": "ym2612"
    },
    {
      "channel": 2,
      "note": 57,
      "start": 31.9439,
      "duration": 0.1634,
      "velocity": 92,
      "chip": "ym2612"
    },
    {
      "channel": 0,
      "note": 45,
      "start": 31.9463,
      "duration": 0.0772,
      "velocity": 117,
      "chip": "ym2612"
    },
    {
      "channel": 3,
      "note": 81,
      "start": 32.1104,
      "duration": 0.83,
      "velocity": 106,
      "chip": "ym2612"
    },
    {
      "channel": 5,
      "note": 74,
      "start": 32.1132,
      "duration": 0.8273,
      "velocity": 106,
      "chip": "ym2612"
    },
    {
      "channel": 1,
      "note": 58,
      "start": 32.1165,
      "duration": 0.3237,
      "velocity": 105,
      "chip": "ym2612"
    },
    {
      "channel": 4,
      "note": 53,
      "start": 32.1191,
      "duration": 0.3213,
      "velocity": 105,
      "chip": "ym2612"
    },
    {
      "channel": 2,
      "note": 58,
      "start": 32.1221,
      "duration": 0.3185,
      "velocity": 92,
      "chip": "ym2612"
    },
    {
      "channel": 0,
      "note": 45,
      "start": 32.2769,
      "duration": 0.08,
      "velocity": 117,
      "chip": "ym2612"
    },
    {
      "channel": 1,
      "note": 53,
      "start": 32.6105,
      "duration": 0.8297,
      "velocity": 105,
      "chip": "ym2612"
    },
    {
      "channel": 4,
      "note": 58,
      "start": 32.6131,
      "duration": 0.8274,
      "velocity": 105,
      "chip": "ym2612"
    },
    {
      "channel": 2,
      "note": 58,
      "start": 32.6161,
      "duration": 0.1576,
      "velocity": 92,
      "chip": "ym2612"
    },
    {
      "channel": 0,
      "note": 45,
      "start": 32.6187,
      "duration": 0.0715,
      "velocity": 117,
      "chip": "ym2612"
    },
    {
      "channel": 2,
      "note": 58,
      "start": 32.7774,
      "duration": 0.6633,
      "velocity": 92,
      "chip": "ym2612"
    },
    {
      "channel": 0,
      "note": 45,
      "start": 32.7799,
      "duration": 0.077,
      "velocity": 117,
      "chip": "ym2612"
    },
    {
      "channel": 3,
      "note": 77,
      "start": 32.9439,
      "duration": 0.163,
      "velocity": 106,
      "chip": "ym2612"
    },
    {
      "channel": 5,
      "note": 70,
      "start": 32.9473,
      "duration": 0.1599,
      "velocity": 106,
      "chip": "ym2612"
    },
    {
      "channel": 0,
      "note": 45,
      "start": 32.9505,
      "duration": 0.073,
      "velocity": 117,
      "chip": "ym2612"
    },
    {
      "channel": 3,
      "note": 81,
      "start": 33.1101,
      "duration": 0.1634,
      "velocity": 106,
      "chip": "ym2612"
    },
    {
      "channel": 5,
      "note": 74,
      "start": 33.1128,
      "duration": 0.161,
      "velocity": 106,
      "chip": "ym2612"
    },
    {
      "channel": 3,
      "note": 86,
      "start": 33.2768,
      "duration": 0.1635,
      "velocity": 106,
      "chip": "ym2612"
    },
    {
      "channel": 5,
      "note": 77,
      "start": 33.2795,
      "duration": 0.1611,
      "velocity": 106,
      "chip": "ym2612"
    },
    {
      "channel": 0,
      "note": 45,
      "start": 33.2821,
      "duration": 0.0747,
      "velocity": 117,
      "chip": "ym2612"
    },
    {
      "channel": 3,
      "note": 88,
      "start": 33.444,
      "duration": 1.2796,
      "velocity": 106,
      "chip": "ym2612"
    },
    {
      "channel": 5,
      "note": 81,
      "start": 33.447,
      "duration": 1.2768,
      "velocity": 106,
      "chip": "ym2612"
    },
    {
      "channel": 1,
      "note": 57,
      "start": 33.4499,
      "duration": 0.3236,
      "velocity": 105,
      "chip": "ym2612"
    },
    {
      "channel": 4,
      "note": 52,
      "start": 33.4525,
      "duration": 0.3212,
      "velocity": 105,
      "chip": "ym2612"
    },
    {
      "channel": 2,
      "note": 57,
      "start": 33.4555,
      "duration": 0.3184,
      "velocity": 92,
      "chip": "ym2612"
    },
    {
      "channel": 0,
      "note": 45,
      "start": 33.6103,
      "duration": 0.0798,
      "velocity": 117,
      "chip": "ym2612"
    },
    {
      "channel": 1,
      "note": 57,
      "start": 33.9443,
      "duration": 0.5627,
      "velocity": 105,
      "chip": "ym2612"
    },
    {
      "channel": 4,
      "note": 52,
      "start": 33.9471,
      "duration": 0.6099,
      "velocity": 105,
      "chip": "ym2612"
    },
    {
      "channel": 2,
      "note": 57,
      "start": 33.9505,
      "duration": 0.1566,
      "velocity": 92,
      "chip": "ym2612"
    },
    {
      "channel": 0,
      "note": 45,
      "start": 33.9531,
      "duration": 0.0705,
      "velocity": 117,
      "chip": "ym2612"
    },
    {
      "channel": 2,
      "note": 57,
      "start": 34.1108,
      "duration": 0.3296,
      "velocity": 92,
      "chip": "ym2612"
    },
    {
      "channel": 0,
      "note": 45,
      "start": 34.1132,
      "duration": 0.077,
      "velocity": 117,
      "chip": "ym2612"
    },
    {
      "channel": 0,
      "note": 45,
      "start": 34.2772,
      "duration": 0.0797,
      "velocity": 117,
      "chip": "ym2612"
    },
    {
      "channel": 2,
      "note": 57,
      "start": 34.6108,
      "duration": 0.1629,
      "velocity": 92,
      "chip": "ym2612"
    },
    {
      "channel": 0,
      "note": 45,
      "start": 34.6133,
      "duration": 0.0768,
      "velocity": 117,
      "chip": "ym2612"
    },
    {
      "channel": 3,
      "note": 81,
      "start": 34.7771,
      "duration": 0.8465,
      "velocity": 106,
      "chip": "ym2612"
    },
    {
      "channel": 5,
      "note": 74,
      "start": 34.7801,
      "duration": 0.8437,
      "velocity": 106,
      "chip": "ym2612"
    },
    {
      "channel": 1,
      "note": 62,
      "start": 34.7829,
      "duration": 0.4906,
      "velocity": 105,
      "chip": "ym2612"
    },
    {
      "channel": 4,
      "note": 57,
      "start": 34.7856,
      "duration": 0.4882,
      "velocity": 105,
      "chip": "ym2612"
    },
    {
      "channel": 2,
      "note": 50,
      "start": 34.7885,
      "duration": 0.3186,
      "velocity": 92,
      "chip": "ym2612"
    },
    {
      "channel": 0,
      "note": 45,
      "start": 34.9437,
      "duration": 0.0799,
      "velocity": 117,
      "chip": "ym2612"
    },
    {
      "channel": 1,
      "note": 57,
      "start": 35.2774,
      "duration": 0.6795,
      "velocity": 105,
      "chip": "ym2612"
    },
    {
      "channel": 4,
      "note": 62,
      "start": 35.2802,
      "duration": 0.7268,
      "velocity": 105,
      "chip": "ym2612"
    },
    {
      "channel": 2,
      "note": 50,
      "start": 35.283,
      "duration": 0.3409,
      "velocity": 92,
      "chip": "ym2612"
    },
    {
      "channel": 0,
      "note": 45,
      "start": 35.2856,
      "duration": 0.088,
      "velocity": 117,
      "chip": "ym2612"
    },
    {
      "channel": 0,
      "note": 45,
      "start": 35.4603,
      "duration": 0.0798,
      "velocity": 117,
      "chip": "ym2612"
    },
    {
      "channel": 3,
      "note": 77,
      "start": 35.6276,
      "duration": 0.1627,
      "velocity": 106,
      "chip": "ym2612"
    },
    {
      "channel": 5,
      "note": 70,
      "start": 35.6306,
      "duration": 0.1599,
      "velocity": 106,
      "chip": "ym2612"
    },
    {
      "channel": 2,
      "note": 50,
      "start": 35.6335,
      "duration": 0.1571,
      "velocity": 92,
      "chip": "ym2612"
    },
    {
      "channel": 0,
      "note": 45,
      "start": 35.6361,
      "duration": 0.0708,
      "velocity": 117,
      "chip": "ym2612"
    },
    {
      "channel": 3,
      "note": 81,
      "start": 35.7936,
      "duration": 0.1634,
      "velocity": 106,
      "chip": "ym2612"
    },
    {
      "channel": 5,
      "note": 74,
      "start": 35.7963,
      "duration": 0.1609,
      "velocity": 106,
      "chip": "ym2612"
    },
    {
      "channel": 3,
      "note": 86,
      "start": 35.9603,
      "duration": 0.1634,
      "velocity": 106,
      "chip": "ym2612"
    },
    {
      "channel": 5,
      "note": 77,
      "start": 35.9629,
      "duration": 0.1609,
      "velocity": 106,
      "chip": "ym2612"
    },
    {
      "channel": 2,
      "note": 50,
      "start": 35.9659,
      "duration": 0.1581,
      "velocity": 92,
      "chip": "ym2612"
    },
    {
      "channel": 0,
      "note": 45,
      "start": 35.9686,
      "duration": 0.0716,
      "velocity": 117,
      "chip": "ym2612"
    },
    {
      "channel": 3,
      "note": 89,
      "start": 36.1273,
      "duration": 0.5464,
      "velocity": 106,
      "chip": "ym2612"
    },
    {
      "channel": 5,
      "note": 80,
      "start": 36.1307,
      "duration": 0.5431,
      "velocity": 106,
      "chip": "ym2612"
    },
    {
      "channel": 1,
      "note": 61,
      "start": 36.134,
      "duration": 0.4896,
      "velocity": 105,
      "chip": "ym2612"
    },
    {
      "channel": 4,
      "note": 56,
      "start": 36.1366,
      "duration": 0.4871,
      "velocity": 105,
      "chip": "ym2612"
    },
    {
      "channel": 2,
      "note": 49,
      "start": 36.1403,
      "duration": 0.3168,
      "velocity": 92,
      "chip": "ym2612"
    },
    {
      "channel": 0,
      "note": 45,
      "start": 36.2936,
      "duration": 0.08,
      "velocity": 117,
      "chip": "ym2612"
    },
    {
      "channel": 1,
      "note": 61,
      "start": 36.6276,
      "duration": 2.1627,
      "velocity": 105,
      "chip": "ym2612"
    },
    {
      "channel": 4,
      "note": 56,
      "start": 36.6304,
      "duration": 2.1602,
      "velocity": 105,
      "chip": "ym2612"
    },
    {
      "channel": 2,
      "note": 49,
      "start": 36.6332,
      "duration": 0.3239,
      "velocity": 92,
      "chip": "ym2612"
    },
    {
      "channel": 0,
      "note": 45,
      "start": 36.6358,
      "duration": 0.0711,
      "velocity": 117,
      "chip": "ym2612"
    },
    {
      "channel": 3,
      "note": 88,
      "start": 36.6772,
      "duration": 0.0798,
      "velocity": 106,
      "chip": "ym2612"
    },
    {
      "channel": 5,
      "note": 79,
      "start": 36.6802,
      "duration": 0.0771,
      "velocity": 106,
      "chip": "ym2612"
    },
    {
      "channel": 0,
      "note": 87,
      "start": 36.7269,
      "duration": 0.0007,
      "velocity": 106,
      "chip": "ym2612"
    },
    {
      "channel": 0,
      "note": 78,
      "start": 36.7296,
      "duration": 0.0681,
      "velocity": 106,
      "chip": "ym2612"
    },
    {
      "channel": 3,
      "note": 85,
      "start": 36.7937,
      "duration": 0.6632,
      "velocity": 106,
      "chip": "ym2612"
    },
    {
      "channel": 5,
      "note": 77,
      "start": 36.7966,
      "duration": 0.6605,
      "velocity": 106,
      "chip": "ym2612"
    },
    {
      "channel": 0,
      "note": 45,
      "start": 36.7995,
      "duration": 0.074,
      "velocity": 117,
      "chip": "ym2612"
    },
    {
      "channel": 2,
      "note": 49,
      "start": 36.9606,
      "duration": 0.1632,
      "velocity": 92,
      "chip": "ym2612"
    },
    {
      "channel": 0,
      "note": 45,
      "start": 36.9632,
      "duration": 0.077,
      "velocity": 117,
      "chip": "ym2612"
    },
    {
      "channel": 2,
      "note": 49,
      "start": 37.2939,
      "duration": 0.1633,
      "velocity": 92,
      "chip": "ym2612"
    },
    {
      "channel": 0,
      "note": 45,
      "start": 37.2965,
      "duration": 0.077,
      "velocity": 117,
      "chip": "ym2612"
    },
    {
      "channel": 3,
      "note": 85,
      "start": 37.4606,
      "duration": 0.1631,
      "velocity": 106,
      "chip": "ym2612"
    },
    {
      "channel": 5,
      "note": 80,
      "start": 37.4635,
      "duration": 0.1604,
      "velocity": 106,
      "chip": "ym2612"
    },
    {
      "channel": 2,
      "note": 61,
      "start": 37.4666,
      "duration": 0.324,
      "velocity": 92,
      "chip": "ym2612"
    },
    {
      "channel": 0,
      "note": 45,
      "start": 37.4692,
      "duration": 0.071,
      "velocity": 117,
      "chip": "ym2612"
    },
    {
      "channel": 3,
      "note": 77,
      "start": 37.6276,
      "duration": 0.046,
      "velocity": 106,
      "chip": "ym2612"
    },
    {
      "channel": 5,
      "note": 73,
      "start": 37.6306,
      "duration": 0.0432,
      "velocity": 106,
      "chip": "ym2612"
    },
    {
      "channel": 3,
      "note": 80,
      "start": 37.6768,
      "duration": 0.0636,
      "velocity": 106,
      "chip": "ym2612"
    },
    {
      "channel": 5,
      "note": 77,
      "start": 37.6795,
      "duration": 0.0611,
      "velocity": 106,
      "chip": "ym2612"
    },
    {
      "channel": 3,
      "note": 85,
      "start": 37.7435,
      "duration": 0.0468,
      "velocity": 106,
      "chip": "ym2612"
    },
    {
      "channel": 5,
      "note": 80,
      "start": 37.7466,
      "duration": 0.0439,
      "velocity": 106,
      "chip": "ym2612"
    },
    {
      "channel": 3,
      "note": 89,
      "start": 37.7939,
      "duration": 0.163,
      "velocity": 106,
      "chip": "ym2612"
    },
    {
      "channel": 5,
      "note": 85,
      "start": 37.7969,
      "duration": 0.1602,
      "velocity": 106,
      "chip": "ym2612"
    },
    {
      "channel": 2,
      "note": 56,
      "start": 37.7996,
      "duration": 0.3242,
      "velocity": 92,
      "chip": "ym2612"
    },
    {
      "channel": 0,
      "note": 45,
      "start": 37.802,
      "duration": 0.0715,
      "velocity": 117,
      "chip": "ym2612"
    },
    {
      "channel": 3,
      "note": 80,
      "start": 37.9605,
      "duration": 0.0464,
      "velocity": 106,
      "chip": "ym2612"
    },
    {
      "channel": 5,
      "note": 77,
      "start": 37.9635,
      "duration": 0.0436,
      "velocity": 106,
      "chip": "ym2612"
    },
    {
      "channel": 3,
      "note": 85,
      "start": 38.0101,
      "duration": 0.0635,
      "velocity": 106,
      "chip": "ym2612"
    },
    {
      "channel": 5,
      "note": 80,
      "start": 38.0127,
      "duration": 0.0611,
      "velocity": 106,
      "chip": "ym2612"
    },
    {
      "channel": 3,
      "note": 89,
      "start": 38.0768,
      "duration": 0.0467,
      "velocity": 106,
      "chip": "ym2612"
    },
    {
      "channel": 5,
      "note": 85,
      "start": 38.0795,
      "duration": 0.0443,
      "velocity": 106,
      "chip": "ym2612"
    },
    {
      "channel": 3,
      "note": 92,
      "start": 38.1272,
      "duration": 0.163,
      "velocity": 106,
      "chip": "ym2612"
    },
    {
      "channel": 5,
      "note": 89,
      "start": 38.1302,
      "duration": 0.1603,
      "velocity": 106,
      "chip": "ym2612"
    },
    {
      "channel": 2,
      "note": 53,
      "start": 38.1329,
      "duration": 0.3244,
      "velocity": 92,
      "chip": "ym2612"
    },
    {
      "channel": 0,
      "note": 45,
      "start": 38.1354,
      "duration": 0.0715,
      "velocity": 117,
      "chip": "ym2612"
    },
    {
      "channel": 3,
      "note": 85,
      "start": 38.2942,
      "duration": 0.0628,
      "velocity": 106,
      "chip": "ym2612"
    },
    {
      "channel": 5,
      "note": 80,
      "start": 38.2972,
      "duration": 0.06,
      "velocity": 106,
      "chip": "ym2612"
    },
    {
      "channel": 3,
      "note": 89,
      "start": 38.3602,
      "duration": 0.0468,
      "velocity": 106,
      "chip": "ym2612"
    },
    {
      "channel": 5,
      "note": 85,
      "start": 38.3629,
      "duration": 0.0443,
      "velocity": 106,
      "chip": "ym2612"
    },
    {
      "channel": 3,
      "note": 92,
      "start": 38.4101,
      "duration": 0.0469,
      "velocity": 106,
      "chip": "ym2612"
    },
    {
      "channel": 5,
      "note": 89,
      "start": 38.4132,
      "duration": 0.044,
      "velocity": 106,
      "chip": "ym2612"
    },
    {
      "channel": 3,
      "note": 97,
      "start": 38.4606,
      "duration": 0.3298,
      "velocity": 106,
      "chip": "ym2612"
    },
    {
      "channel": 5,
      "note": 92,
      "start": 38.4636,
      "duration": 0.327,
      "velocity": 106,
      "chip": "ym2612"
    },
    {
      "channel": 2,
      "note": 49,
      "start": 38.4663,
      "duration": 0.3245,
      "velocity": 92,
      "chip": "ym2612"
    },
    {
      "channel": 0,
      "note": 45,
      "start": 38.469,
      "duration": 0.0712,
      "velocity": 117,
      "chip": "ym2612"
    },
    {
      "channel": 3,
      "note": 87,
      "start": 38.7941,
      "duration": 0.1628,
      "velocity": 106,
      "chip": "ym2612"
    },
    {
      "channel": 5,
      "note": 75,
      "start": 38.7971,
      "duration": 0.16,
      "velocity": 106,
      "chip": "ym2612"
    },
    {
      "channel": 2,
      "note": 63,
      "start": 38.8006,
      "duration": 0.1566,
      "velocity": 92,
      "chip": "ym2612"
    },
    {
      "channel": 3,
      "note": 85,
      "start": 38.9605,
      "duration": 0.1632,
      "velocity": 106,
      "chip": "ym2612"
    },
    {
      "channel": 5,
      "note": 73,
      "start": 38.9633,
      "duration": 0.1605,
      "velocity": 106,
      "chip": "ym2612"
    },
    {
      "channel": 2,
      "note": 61,
      "start": 38.9662,
      "duration": 0.1578,
      "velocity": 92,
      "chip": "ym2612"
    },
    {
      "channel": 0,
      "note": 45,
      "start": 38.9692,
      "duration": 0.071,
      "velocity": 117,
      "chip": "ym2612"
    },
    {
      "channel": 3,
      "note": 81,
      "start": 39.2933,
      "duration": 0.1637,
      "velocity": 106,
      "chip": "ym2612"
    },
    {
      "channel": 5,
      "note": 69,
      "start": 39.2959,
      "duration": 0.1611,
      "velocity": 106,
      "chip": "ym2612"
    },
    {
      "channel": 2,
      "note": 57,
      "start": 39.2987,
      "duration": 0.1586,
      "velocity": 92,
      "chip": "ym2612"
    },
    {
      "channel": 0,
      "note": 45,
      "start": 39.3012,
      "duration": 0.0724,
      "velocity": 117,
      "chip": "ym2612"
    },
    {
      "channel": 3,
      "note": 80,
      "start": 39.6434,
      "duration": 0.1635,
      "velocity": 106,
      "chip": "ym2612"
    },
    {
      "channel": 5,
      "note": 68,
      "start": 39.6463,
      "duration": 0.1608,
      "velocity": 106,
      "chip": "ym2612"
    },
    {
      "channel": 2,
      "note": 56,
      "start": 39.6491,
      "duration": 0.1581,
      "velocity": 92,
      "chip": "ym2612"
    },
    {
      "channel": 0,
      "note": 45,
      "start": 39.6516,
      "duration": 0.0719,
      "velocity": 117,
      "chip": "ym2612"
    },
    {
      "channel": 3,
      "note": 75,
      "start": 39.8106,
      "duration": 0.163,
      "velocity": 106,
      "chip": "ym2612"
    },
    {
      "channel": 5,
      "note": 63,
      "start": 39.8132,
      "duration": 0.1606,
      "velocity": 106,
      "chip": "ym2612"
    },
    {
      "channel": 2,
      "note": 51,
      "start": 39.816,
      "duration": 0.1579,
      "velocity": 92,
      "chip": "ym2612"
    },
    {
      "channel": 3,
      "note": 73,
      "start": 39.9772,
      "duration": 0.1631,
      "velocity": 106,
      "chip": "ym2612"
    },
    {
      "channel": 5,
      "note": 61,
      "start": 39.98,
      "duration": 0.1605,
      "velocity": 106,
      "chip": "ym2612"
    },
    {
      "channel": 2,
      "note": 49,
      "start": 39.9829,
      "duration": 0.1577,
      "velocity": 92,
      "chip": "ym2612"
    },
    {
      "channel": 0,
      "note": 45,
      "start": 39.9854,
      "duration": 0.0715,
      "velocity": 117,
      "chip": "ym2612"
    },
    {
      "channel": 3,
      "note": 69,
      "start": 40.3099,
      "duration": 0.1636,
      "velocity": 106,
      "chip": "ym2612"
    },
    {
      "channel": 5,
      "note": 57,
      "start": 40.3125,
      "duration": 0.1612,
      "velocity": 106,
      "chip": "ym2612"
    },
    {
      "channel": 2,
      "note": 57,
      "start": 40.3154,
      "duration": 0.1585,
      "velocity": 92,
      "chip": "ym2612"
    },
    {
      "channel": 0,
      "note": 45,
      "start": 40.3178,
      "duration": 0.0724,
      "velocity": 117,
      "chip": "ym2612"
    },
    {
      "channel": 3,
      "note": 68,
      "start": 40.6437,
      "duration": 0.1632,
      "velocity": 106,
      "chip": "ym2612"
    },
    {
      "channel": 5,
      "note": 56,
      "start": 40.6471,
      "duration": 0.1599,
      "velocity": 106,
      "chip": "ym2612"
    },
    {
      "channel": 2,
      "note": 56,
      "start": 40.65,
      "duration": 0.1572,
      "velocity": 92,
      "chip": "ym2612"
    },
    {
      "channel": 0,
      "note": 45,
      "start": 40.6526,
      "duration": 0.0709,
      "velocity": 117,
      "chip": "ym2612"
    },
    {
      "channel": 1,
      "note": 61,
      "start": 40.8107,
      "duration": 0.3295,
      "velocity": 105,
      "chip": "ym2612"
    },
    {
      "channel": 4,
      "note": 66,
      "start": 40.8133,
      "duration": 0.3271,
      "velocity": 105,
      "chip": "ym2612"
    },
    {
      "channel": 2,
      "note": 54,
      "start": 40.8161,
      "duration": 0.1244,
      "velocity": 92,
      "chip": "ym2612"
    },
    {
      "channel": 0,
      "note": 45,
      "start": 40.8187,
      "duration": 0.0715,
      "velocity": 117,
      "chip": "ym2612"
    },
    {
      "channel": 2,
      "note": 54,
      "start": 40.977,
      "duration": 0.13,
      "velocity": 92,
      "chip": "ym2612"
    },
    {
      "channel": 2,
      "note": 54,
      "start": 41.1443,
      "duration": 0.1296,
      "velocity": 92,
      "chip": "ym2612"
    },
    {
      "channel": 1,
      "note": 69,
      "start": 41.311,
      "duration": 0.1959,
      "velocity": 105,
      "chip": "ym2612"
    },
    {
      "channel": 4,
      "note": 64,
      "start": 41.3136,
      "duration": 0.1934,
      "velocity": 105,
      "chip": "ym2612"
    },
    {
      "channel": 2,
      "note": 54,
      "start": 41.3162,
      "duration": 0.1242,
      "velocity": 92,
      "chip": "ym2612"
    },
    {
      "channel": 0,
      "note": 45,
      "start": 41.3188,
      "duration": 0.0713,
      "velocity": 117,
      "chip": "ym2612"
    },
    {
      "channel": 2,
      "note": 54,
      "start": 41.477,
      "duration": 0.13,
      "velocity": 92,
      "chip": "ym2612"
    },
    {
      "channel": 0,
      "note": 45,
      "start": 41.4794,
      "duration": 0.0775,
      "velocity": 117,
      "chip": "ym2612"
    },
    {
      "channel": 1,
      "note": 61,
      "start": 41.6436,
      "duration": 0.1966,
      "velocity": 105,
      "chip": "ym2612"
    },
    {
      "channel": 4,
      "note": 66,
      "start": 41.6462,
      "duration": 0.1942,
      "velocity": 105,
      "chip": "ym2612"
    },
    {
      "channel": 2,
      "note": 54,
      "start": 41.6488,
      "duration": 0.1249,
      "velocity": 92,
      "chip": "ym2612"
    },
    {
      "channel": 0,
      "note": 45,
      "start": 41.6514,
      "duration": 0.0721,
      "velocity": 117,
      "chip": "ym2612"
    },
    {
      "channel": 2,
      "note": 54,
      "start": 41.8105,
      "duration": 0.13,
      "velocity": 92,
      "chip": "ym2612"
    },
    {
      "channel": 1,
      "note": 64,
      "start": 41.9771,
      "duration": 0.2964,
      "velocity": 105,
      "chip": "ym2612"
    },
    {
      "channel": 4,
      "note": 69,
      "start": 41.9798,
      "duration": 0.2939,
      "velocity": 105,
      "chip": "ym2612"
    },
    {
      "channel": 2,
      "note": 54,
      "start": 41.9824,
      "duration": 0.1248,
      "velocity": 92,
      "chip": "ym2612"
    },
    {
      "channel": 0,
      "note": 45,
      "start": 41.9849,
      "duration": 0.072,
      "velocity": 117,
      "chip": "ym2612"
    },
    {
      "channel": 2,
      "note": 54,
      "start": 42.1437,
      "duration": 0.1301,
      "velocity": 92,
      "chip": "ym2612"
    },
    {
      "channel": 1,
      "note": 69,
      "start": 42.3109,
      "duration": 0.1627,
      "velocity": 105,
      "chip": "ym2612"
    },
    {
      "channel": 4,
      "note": 64,
      "start": 42.3136,
      "duration": 0.1602,
      "velocity": 105,
      "chip": "ym2612"
    },
    {
      "channel": 2,
      "note": 54,
      "start": 42.3162,
      "duration": 0.1242,
      "velocity": 92,
      "chip": "ym2612"
    },
    {
      "channel": 0,
      "note": 45,
      "start": 42.3186,
      "duration": 0.0716,
      "velocity": 117,
      "chip": "ym2612"
    },
    {
      "channel": 1,
      "note": 64,
      "start": 42.4772,
      "duration": 0.163,
      "velocity": 105,
      "chip": "ym2612"
    },
    {
      "channel": 4,
      "note": 69,
      "start": 42.4798,
      "duration": 0.1606,
      "velocity": 105,
      "chip": "ym2612"
    },
    {
      "channel": 2,
      "note": 54,
      "start": 42.4824,
      "duration": 0.1414,
      "velocity": 92,
      "chip": "ym2612"
    },
    {
      "channel": 1,
      "note": 69,
      "start": 42.6438,
      "duration": 0.163,
      "velocity": 105,
      "chip": "ym2612"
    },
    {
      "channel": 4,
      "note": 64,
      "start": 42.6464,
      "duration": 0.1606,
      "velocity": 105,
      "chip": "ym2612"
    },
    {
      "channel": 2,
      "note": 54,
      "start": 42.649,
      "duration": 0.1414,
      "velocity": 92,
      "chip": "ym2612"
    },
    {
      "channel": 0,
      "note": 45,
      "start": 42.6521,
      "duration": 0.0714,
      "velocity": 117,
      "chip": "ym2612"
    },
    {
      "channel": 1,
      "note": 64,
      "start": 42.8105,
      "duration": 0.163,
      "velocity": 105,
      "chip": "ym2612"
    },
    {
      "channel": 4,
      "note": 69,
      "start": 42.8131,
      "duration": 0.1606,
      "velocity": 105,
      "chip": "ym2612"
    },
    {
      "channel": 2,
      "note": 54,
      "start": 42.8157,
      "duration": 0.1414,
      "velocity": 92,
      "chip": "ym2612"
    },
    {
      "channel": 0,
      "note": 45,
      "start": 42.8182,
      "duration": 0.072,
      "velocity": 117,
      "chip": "ym2612"
    },
    {
      "channel": 1,
      "note": 68,
      "start": 42.9776,
      "duration": 0.1627,
      "velocity": 105,
      "chip": "ym2612"
    },
    {
      "channel": 4,
      "note": 63,
      "start": 42.9802,
      "duration": 0.1602,
      "velocity": 105,
      "chip": "ym2612"
    },
    {
      "channel": 2,
      "note": 54,
      "start": 42.9828,
      "duration": 0.1409,
      "velocity": 92,
      "chip": "ym2612"
    },
    {
      "channel": 0,
      "note": 45,
      "start": 42.9854,
      "duration": 0.0714,
      "velocity": 117,
      "chip": "ym2612"
    },
    {
      "channel": 2,
      "note": 54,
      "start": 43.1439,
      "duration": 0.1464,
      "velocity": 92,
      "chip": "ym2612"
    },
    {
      "channel": 1,
      "note": 61,
      "start": 43.3105,
      "duration": 0.3964,
      "velocity": 105,
      "chip": "ym2612"
    },
    {
      "channel": 4,
      "note": 66,
      "start": 43.3132,
      "duration": 0.3939,
      "velocity": 105,
      "chip": "ym2612"
    },
    {
      "channel": 2,
      "note": 54,
      "start": 43.3161,
      "duration": 0.3076,
      "velocity": 92,
      "chip": "ym2612"
    },
    {
      "channel": 0,
      "note": 45,
      "start": 43.3187,
      "duration": 0.0715,
      "velocity": 117,
      "chip": "ym2612"
    },
    {
      "channel": 0,
      "note": 45,
      "start": 43.4771,
      "duration": 0.0798,
      "velocity": 117,
      "chip": "ym2612"
    },
    {
      "channel": 2,
      "note": 54,
      "start": 43.6445,
      "duration": 0.1459,
      "velocity": 92,
      "chip": "ym2612"
    },
    {
      "channel": 2,
      "note": 54,
      "start": 43.8103,
      "duration": 0.1467,
      "velocity": 92,
      "chip": "ym2612"
    },
    {
      "channel": 1,
      "note": 69,
      "start": 43.9938,
      "duration": 0.1797,
      "velocity": 105,
      "chip": "ym2612"
    },
    {
      "channel": 4,
      "note": 64,
      "start": 43.9965,
      "duration": 0.1772,
      "velocity": 105,
      "chip": "ym2612"
    },
    {
      "channel": 2,
      "note": 54,
      "start": 43.9991,
      "duration": 0.1247,
      "velocity": 92,
      "chip": "ym2612"
    },
    {
      "channel": 0,
      "note": 45,
      "start": 44.0017,
      "duration": 0.0718,
      "velocity": 117,
      "chip": "ym2612"
    },
    {
      "channel": 2,
      "note": 54,
      "start": 44.1603,
      "duration": 0.13,
      "velocity": 92,
      "chip": "ym2612"
    },
    {
      "channel": 0,
      "note": 45,
      "start": 44.1629,
      "duration": 0.0773,
      "velocity": 117,
      "chip": "ym2612"
    },
    {
      "channel": 1,
      "note": 61,
      "start": 44.3269,
      "duration": 0.18,
      "velocity": 105,
      "chip": "ym2612"
    },
    {
      "channel": 4,
      "note": 66,
      "start": 44.33,
      "duration": 0.1772,
      "velocity": 105,
      "chip": "ym2612"
    },
    {
      "channel": 2,
      "note": 54,
      "start": 44.3326,
      "duration": 0.1245,
      "velocity": 92,
      "chip": "ym2612"
    },
    {
      "channel": 2,
      "note": 54,
      "start": 44.4938,
      "duration": 0.13,
      "velocity": 92,
      "chip": "ym2612"
    },
    {
      "channel": 1,
      "note": 64,
      "start": 44.6605,
      "duration": 0.2963,
      "velocity": 105,
      "chip": "ym2612"
    },
    {
      "channel": 4,
      "note": 69,
      "start": 44.6632,
      "duration": 0.2938,
      "velocity": 105,
      "chip": "ym2612"
    },
    {
      "channel": 2,
      "note": 54,
      "start": 44.6658,
      "duration": 0.1247,
      "velocity": 92,
      "chip": "ym2612"
    },
    {
      "channel": 0,
      "note": 45,
      "start": 44.6684,
      "duration": 0.0718,
      "velocity": 117,
      "chip": "ym2612"
    },
    {
      "channel": 2,
      "note": 54,
      "start": 44.827,
      "duration": 0.1302,
      "velocity": 92,
      "chip": "ym2612"
    },
    {
      "channel": 1,
      "note": 69,
      "start": 44.9938,
      "duration": 0.163,
      "velocity": 105,
      "chip": "ym2612"
    },
    {
      "channel": 4,
      "note": 64,
      "start": 44.9964,
      "duration": 0.1606,
      "velocity": 105,
      "chip": "ym2612"
    },
    {
      "channel": 2,
      "note": 54,
      "start": 44.999,
      "duration": 0.1248,
      "velocity": 92,
      "chip": "ym2612"
    },
    {
      "channel": 0,
      "note": 45,
      "start": 45.0015,
      "duration": 0.072,
      "velocity": 117,
      "chip": "ym2612"
    },
    {
      "channel": 1,
      "note": 64,
      "start": 45.1604,
      "duration": 0.1632,
      "velocity": 105,
      "chip": "ym2612"
    },
    {
      "channel": 4,
      "note": 69,
      "start": 45.1631,
      "duration": 0.1607,
      "velocity": 105,
      "chip": "ym2612"
    },
    {
      "channel": 2,
      "note": 54,
      "start": 45.1657,
      "duration": 0.1248,
      "velocity": 92,
      "chip": "ym2612"
    },
    {
      "channel": 1,
      "note": 69,
      "start": 45.3276,
      "duration": 0.1627,
      "velocity": 105,
      "chip": "ym2612"
    },
    {
      "channel": 4,
      "note": 64,
      "start": 45.3302,
      "duration": 0.1602,
      "velocity": 105,
      "chip": "ym2612"
    },
    {
      "channel": 2,
      "note": 54,
      "start": 45.3328,
      "duration": 0.1244,
      "velocity": 92,
      "chip": "ym2612"
    },
    {
      "channel": 0,
      "note": 45,
      "start": 45.3359,
      "duration": 0.071,
      "velocity": 117,
      "chip": "ym2612"
    },
    {
      "channel": 1,
      "note": 64,
      "start": 45.4938,
      "duration": 0.163,
      "velocity": 105,
      "chip": "ym2612"
    },
    {
      "channel": 4,
      "note": 69,
      "start": 45.4964,
      "duration": 0.1606,
      "velocity": 105,
      "chip": "ym2612"
    },
    {
      "channel": 2,
      "note": 54,
      "start": 45.499,
      "duration": 0.1248,
      "velocity": 92,
      "chip": "ym2612"
    },
    {
      "channel": 0,
      "note": 45,
      "start": 45.5015,
      "duration": 0.072,
      "velocity": 117,
      "chip": "ym2612"
    },
    {
      "channel": 1,
      "note": 68,
      "start": 45.6604,
      "duration": 0.1631,
      "velocity": 105,
      "chip": "ym2612"
    },
    {
      "channel": 4,
      "note": 63,
      "start": 45.6631,
      "duration": 0.1606,
      "velocity": 105,
      "chip": "ym2612"
    },
    {
      "channel": 2,
      "note": 54,
      "start": 45.6657,
      "duration": 0.1248,
      "velocity": 92,
      "chip": "ym2612"
    },
    {
      "channel": 0,
      "note": 45,
      "start": 45.6683,
      "duration": 0.0719,
      "velocity": 117,
      "chip": "ym2612"
    },
    {
      "channel": 2,
      "note": 54,
      "start": 45.8272,
      "duration": 0.13,
      "velocity": 92,
      "chip": "ym2612"
    },
    {
      "channel": 1,
      "note": 64,
      "start": 45.9938,
      "duration": 0.4964,
      "velocity": 105,
      "chip": "ym2612"
    },
    {
      "channel": 4,
      "note": 59,
      "start": 45.9965,
      "duration": 0.4939,
      "velocity": 105,
      "chip": "ym2612"
    },
    {
      "channel": 2,
      "note": 52,
      "start": 45.9999,
      "duration": 0.3239,
      "velocity": 92,
      "chip": "ym2612"
    },
    {
      "channel": 0,
      "note": 45,
      "start": 46.0023,
      "duration": 0.0712,
      "velocity": 117,
      "chip": "ym2612"
    },
    {
      "channel": 2,
      "note": 52,
      "start": 46.3275,
      "duration": 0.1631,
      "velocity": 92,
      "chip": "ym2612"
    },
    {
      "channel": 0,
      "note": 45,
      "start": 46.33,
      "duration": 0.0768,
      "velocity": 117,
      "chip": "ym2612"
    },
    {
      "channel": 2,
      "note": 52,
      "start": 46.494,
      "duration": 0.163,
      "velocity": 92,
      "chip": "ym2612"
    },
    {
      "channel": 1,
      "note": 67,
      "start": 46.661,
      "duration": 0.1959,
      "velocity": 105,
      "chip": "ym2612"
    },
    {
      "channel": 4,
      "note": 60,
      "start": 46.6636,
      "duration": 0.1934,
      "velocity": 105,
      "chip": "ym2612"
    },
    {
      "channel": 2,
      "note": 52,
      "start": 46.6666,
      "duration": 0.3238,
      "velocity": 92,
      "chip": "ym2612"
    },
    {
      "channel": 0,
      "note": 45,
      "start": 46.6692,
      "duration": 0.071,
      "velocity": 117,
      "chip": "ym2612"
    },
    {
      "channel": 0,
      "note": 45,
      "start": 46.8269,
      "duration": 0.08,
      "velocity": 117,
      "chip": "ym2612"
    },
    {
      "channel": 1,
      "note": 64,
      "start": 46.9939,
      "duration": 0.163,
      "velocity": 105,
      "chip": "ym2612"
    },
    {
      "channel": 4,
      "note": 59,
      "start": 46.9967,
      "duration": 0.1936,
      "velocity": 105,
      "chip": "ym2612"
    },
    {
      "channel": 2,
      "note": 52,
      "start": 46.9997,
      "duration": 0.1575,
      "velocity": 92,
      "chip": "ym2612"
    },
    {
      "channel": 0,
      "note": 45,
      "start": 47.0023,
      "duration": 0.0712,
      "velocity": 117,
      "chip": "ym2612"
    },
    {
      "channel": 2,
      "note": 52,
      "start": 47.1606,
      "duration": 0.1632,
      "velocity": 92,
      "chip": "ym2612"
    },
    {
      "channel": 1,
      "note": 58,
      "start": 47.3276,
      "duration": 2.6461,
      "velocity": 105,
      "chip": "ym2612"
    },
    {
      "channel": 4,
      "note": 67,
      "start": 47.3308,
      "duration": 2.643,
      "velocity": 105,
      "chip": "ym2612"
    },
    {
      "channel": 2,
      "note": 56,
      "start": 47.3342,
      "duration": 0.073,
      "velocity": 92,
      "chip": "ym2612"
    },
    {
      "channel": 0,
      "note": 45,
      "start": 47.3368,
      "duration": 0.0701,
      "velocity": 117,
      "chip": "ym2612"
    },
    {
      "channel": 2,
      "note": 57,
      "start": 47.4106,
      "duration": 0.0798,
      "velocity": 92,
      "chip": "ym2612"
    },
    {
      "channel": 3,
      "note": 91,
      "start": 47.4938,
      "duration": 0.0799,
      "velocity": 106,
      "chip": "ym2612"
    },
    {
      "channel": 5,
      "note": 82,
      "start": 47.4967,
      "duration": 0.0771,
      "velocity": 106,
      "chip": "ym2612"
    },
    {
      "channel": 2,
      "note": 58,
      "start": 47.4998,
      "duration": 0.3241,
      "velocity": 92,
      "chip": "ym2612"
    },
    {
      "channel": 0,
      "note": 45,
      "start": 47.5024,
      "duration": 0.0711,
      "velocity": 117,
      "chip": "ym2612"
    },
    {
      "channel": 3,
      "note": 86,
      "start": 47.5768,
      "duration": 0.08,
      "velocity": 106,
      "chip": "ym2612"
    },
    {
      "channel": 5,
      "note": 79,
      "start": 47.5795,
      "duration": 0.0776,
      "velocity": 106,
      "chip": "ym2612"
    },
    {
      "channel": 3,
      "note": 82,
      "start": 47.6601,
      "duration": 0.0802,
      "velocity": 106,
      "chip": "ym2612"
    },
    {
      "channel": 5,
      "note": 74,
      "start": 47.6627,
      "duration": 0.0777,
      "velocity": 106,
      "chip": "ym2612"
    },
    {
      "channel": 3,
      "note": 86,
      "start": 47.7434,
      "duration": 0.0802,
      "velocity": 106,
      "chip": "ym2612"
    },
    {
      "channel": 5,
      "note": 79,
      "start": 47.7461,
      "duration": 0.0777,
      "velocity": 106,
      "chip": "ym2612"
    },
    {
      "channel": 3,
      "note": 91,
      "start": 47.8269,
      "duration": 0.08,
      "velocity": 106,
      "chip": "ym2612"
    },
    {
      "channel": 5,
      "note": 82,
      "start": 47.8296,
      "duration": 0.0776,
      "velocity": 106,
      "chip": "ym2612"
    },
    {
      "channel": 2,
      "note": 58,
      "start": 47.8327,
      "duration": 0.158,
      "velocity": 92,
      "chip": "ym2612"
    },
    {
      "channel": 3,
      "note": 86,
      "start": 47.9102,
      "duration": 0.0801,
      "velocity": 106,
      "chip": "ym2612"
    },
    {
      "channel": 5,
      "note": 79,
      "start": 47.9128,
      "duration": 0.0777,
      "velocity": 106,
      "chip": "ym2612"
    },
    {
      "channel": 3,
      "note": 82,
      "start": 47.9937,
      "duration": 0.0801,
      "velocity": 106,
      "chip": "ym2612"
    },
    {
      "channel": 5,
      "note": 74,
      "start": 47.9963,
      "duration": 0.0777,
      "velocity": 106,
      "chip": "ym2612"
    },
    {
      "channel": 2,
      "note": 58,
      "start": 47.9994,
      "duration": 0.3413,
      "velocity": 92,
      "chip": "ym2612"
    },
    {
      "channel": 0,
      "note": 45,
      "start": 48.0024,
      "duration": 0.0712,
      "velocity": 117,
      "chip": "ym2612"
    },
    {
      "channel": 3,
      "note": 86,
      "start": 48.0774,
      "duration": 0.0962,
      "velocity": 106,
      "chip": "ym2612"
    },
    {
      "channel": 5,
      "note": 79,
      "start": 48.08,
      "duration": 0.0938,
      "velocity": 106,
      "chip": "ym2612"
    },
    {
      "channel": 3,
      "note": 90,
      "start": 48.1768,
      "duration": 0.0803,
      "velocity": 106,
      "chip": "ym2612"
    },
    {
      "channel": 5,
      "note": 82,
      "start": 48.1795,
      "duration": 0.0778,
      "velocity": 106,
      "chip": "ym2612"
    },
    {
      "channel": 0,
      "note": 45,
      "start": 48.1821,
      "duration": 0.0748,
      "velocity": 117,
      "chip": "ym2612"
    },
    {
      "channel": 3,
      "note": 86,
      "start": 48.2603,
      "duration": 0.08,
      "velocity": 106,
      "chip": "ym2612"
    },
    {
      "channel": 5,
      "note": 78,
      "start": 48.2629,
      "duration": 0.0776,
      "velocity": 106,
      "chip": "ym2612"
    },
    {
      "channel": 3,
      "note": 82,
      "start": 48.3437,
      "duration": 0.08,
      "velocity": 106,
      "chip": "ym2612"
    },
    {
      "channel": 5,
      "note": 74,
      "start": 48.3463,
      "duration": 0.0776,
      "velocity": 106,
      "chip": "ym2612"
    },
    {
      "channel": 2,
      "note": 58,
      "start": 48.349,
      "duration": 0.3249,
      "velocity": 92,
      "chip": "ym2612"
    },
    {
      "channel": 0,
      "note": 45,
      "start": 48.3516,
      "duration": 0.0719,
      "velocity": 117,
      "chip": "ym2612"
    },
    {
      "channel": 3,
      "note": 86,
      "start": 48.4268,
      "duration": 0.08,
      "velocity": 106,
      "chip": "ym2612"
    },
    {
      "channel": 5,
      "note": 78,
      "start": 48.4299,
      "duration": 0.0772,
      "velocity": 106,
      "chip": "ym2612"
    },
    {
      "channel": 3,
      "note": 90,
      "start": 48.5101,
      "duration": 0.0802,
      "velocity": 106,
      "chip": "ym2612"
    },
    {
      "channel": 5,
      "note": 82,
      "start": 48.5127,
      "duration": 0.0778,
      "velocity": 106,
      "chip": "ym2612"
    },
    {
      "channel": 3,
      "note": 86,
      "start": 48.5936,
      "duration": 0.08,
      "velocity": 106,
      "chip": "ym2612"
    },
    {
      "channel": 5,
      "note": 78,
      "start": 48.5962,
      "duration": 0.0776,
      "velocity": 106,
      "chip": "ym2612"
    },
    {
      "channel": 3,
      "note": 82,
      "start": 48.677,
      "duration": 0.0801,
      "velocity": 106,
      "chip": "ym2612"
    },
    {
      "channel": 5,
      "note": 74,
      "start": 48.6796,
      "duration": 0.0777,
      "velocity": 106,
      "chip": "ym2612"
    },
    {
      "channel": 2,
      "note": 58,
      "start": 48.6827,
      "duration": 0.1579,
      "velocity": 92,
      "chip": "ym2612"
    },
    {
      "channel": 0,
      "note": 45,
      "start": 48.6853,
      "duration": 0.0716,
      "velocity": 117,
      "chip": "ym2612"
    },
    {
      "channel": 3,
      "note": 86,
      "start": 48.7603,
      "duration": 0.0799,
      "velocity": 106,
      "chip": "ym2612"
    },
    {
      "channel": 5,
      "note": 78,
      "start": 48.7629,
      "duration": 0.0775,
      "velocity": 106,
      "chip": "ym2612"
    },
    {
      "channel": 3,
      "note": 89,
      "start": 48.8435,
      "duration": 0.0802,
      "velocity": 106,
      "chip": "ym2612"
    },
    {
      "channel": 5,
      "note": 82,
      "start": 48.8461,
      "duration": 0.0778,
      "velocity": 106,
      "chip": "ym2612"
    },
    {
      "channel": 2,
      "note": 58,
      "start": 48.8496,
      "duration": 0.3242,
      "velocity": 92,
      "chip": "ym2612"
    },
    {
      "channel": 0,
      "note": 45,
      "start": 48.8522,
      "duration": 0.0713,
      "velocity": 117,
      "chip": "ym2612"
    },
    {
      "channel": 3,
      "note": 86,
      "start": 48.9269,
      "duration": 0.08,
      "velocity": 106,
      "chip": "ym2612"
    },
    {
      "channel": 5,
      "note": 77,
      "start": 48.9296,
      "duration": 0.0776,
      "velocity": 106,
      "chip": "ym2612"
    },
    {
      "channel": 3,
      "note": 82,
      "start": 49.0102,
      "duration": 0.0802,
      "velocity": 106,
      "chip": "ym2612"
    },
    {
      "channel": 5,
      "note": 74,
      "start": 49.0128,
      "duration": 0.0777,
      "velocity": 106,
      "chip": "ym2612"
    },
    {
      "channel": 3,
      "note": 86,
      "start": 49.0935,
      "duration": 0.08,
      "velocity": 106,
      "chip": "ym2612"
    },
    {
      "channel": 5,
      "note": 77,
      "start": 49.0962,
      "duration": 0.0776,
      "velocity": 106,
      "chip": "ym2612"
    },
    {
      "channel": 3,
      "note": 89,
      "start": 49.1768,
      "duration": 0.0802,
      "velocity": 106,
      "chip": "ym2612"
    },
    {
      "channel": 5,
      "note": 82,
      "start": 49.1795,
      "duration": 0.0777,
      "velocity": 106,
      "chip": "ym2612"
    },
    {
      "channel": 2,
      "note": 46,
      "start": 49.1826,
      "duration": 0.158,
      "velocity": 92,
      "chip": "ym2612"
    },
    {
      "channel": 3,
      "note": 86,
      "start": 49.2602,
      "duration": 0.08,
      "velocity": 106,
      "chip": "ym2612"
    },
    {
      "channel": 5,
      "note": 77,
      "start": 49.2629,
      "duration": 0.0776,
      "velocity": 106,
      "chip": "ym2612"
    },
    {
      "channel": 3,
      "note": 82,
      "start": 49.3437,
      "duration": 0.0801,
      "velocity": 106,
      "chip": "ym2612"
    },
    {
      "channel": 5,
      "note": 74,
      "start": 49.3463,
      "duration": 0.0777,
      "velocity": 106,
      "chip": "ym2612"
    },
    {
      "channel": 2,
      "note": 46,
      "start": 49.3493,
      "duration": 0.3246,
      "velocity": 92,
      "chip": "ym2612"
    },
    {
      "channel": 0,
      "note": 45,
      "start": 49.3519,
      "duration": 0.0716,
      "velocity": 117,
      "chip": "ym2612"
    },
    {
      "channel": 3,
      "note": 86,
      "start": 49.4274,
      "duration": 0.0795,
      "velocity": 106,
      "chip": "ym2612"
    },
    {
      "channel": 5,
      "note": 77,
      "start": 49.43,
      "duration": 0.0771,
      "velocity": 106,
      "chip": "ym2612"
    },
    {
      "channel": 3,
      "note": 88,
      "start": 49.5101,
      "duration": 0.0803,
      "velocity": 106,
      "chip": "ym2612"
    },
    {
      "channel": 5,
      "note": 82,
      "start": 49.5127,
      "duration": 0.0778,
      "velocity": 106,
      "chip": "ym2612"
    },
    {
      "channel": 0,
      "note": 45,
      "start": 49.5155,
      "duration": 0.0747,
      "velocity": 117,
      "chip": "ym2612"
    },
    {
      "channel": 3,
      "note": 84,
      "start": 49.5936,
      "duration": 0.08,
      "velocity": 106,
      "chip": "ym2612"
    },
    {
      "channel": 5,
      "note": 79,
      "start": 49.5963,
      "duration": 0.0776,
      "velocity": 106,
      "chip": "ym2612"
    },
    {
      "channel": 3,
      "note": 79,
      "start": 49.6769,
      "duration": 0.08,
      "velocity": 106,
      "chip": "ym2612"
    },
    {
      "channel": 5,
      "note": 76,
      "start": 49.6796,
      "duration": 0.0776,
      "velocity": 106,
      "chip": "ym2612"
    },
    {
      "channel": 2,
      "note": 50,
      "start": 49.6823,
      "duration": 0.3251,
      "velocity": 92,
      "chip": "ym2612"
    },
    {
      "channel": 3,
      "note": 84,
      "start": 49.7602,
      "duration": 0.0801,
      "velocity": 106,
      "chip": "ym2612"
    },
    {
      "channel": 5,
      "note": 79,
      "start": 49.7632,
      "duration": 0.0773,
      "velocity": 106,
      "chip": "ym2612"
    },
    {
      "channel": 3,
      "note": 88,
      "start": 49.8435,
      "duration": 0.0801,
      "velocity": 106,
      "chip": "ym2612"
    },
    {
      "channel": 5,
      "note": 82,
      "start": 49.8461,
      "duration": 0.0777,
      "velocity": 106,
      "chip": "ym2612"
    },
    {
      "channel": 3,
      "note": 84,
      "start": 49.9268,
      "duration": 0.0802,
      "velocity": 106,
      "chip": "ym2612"
    },
    {
      "channel": 5,
      "note": 79,
      "start": 49.9295,
      "duration": 0.0777,
      "velocity": 106,
      "chip": "ym2612"
    },
    {
      "channel": 3,
      "note": 79,
      "start": 50.0104,
      "duration": 0.08,
      "velocity": 106,
      "chip": "ym2612"
    },
    {
      "channel": 5,
      "note": 76,
      "start": 50.013,
      "duration": 0.0776,
      "velocity": 106,
      "chip": "ym2612"
    },
    {
      "channel": 1,
      "note": 59,
      "start": 50.0159,
      "duration": 0.491,
      "velocity": 105,
      "chip": "ym2612"
    },
    {
      "channel": 4,
      "note": 64,
      "start": 50.0185,
      "duration": 0.4886,
      "velocity": 105,
      "chip": "ym2612"
    },
    {
      "channel": 2,
      "note": 52,
      "start": 50.0211,
      "duration": 0.3196,
      "velocity": 92,
      "chip": "ym2612"
    },
    {
      "channel": 0,
      "note": 45,
      "start": 50.0241,
      "duration": 0.0661,
      "velocity": 117,
      "chip": "ym2612"
    },
    {
      "channel": 3,
      "note": 84,
      "start": 50.0937,
      "duration": 0.0799,
      "velocity": 106,
      "chip": "ym2612"
    },
    {
      "channel": 5,
      "note": 79,
      "start": 50.0963,
      "duration": 0.0775,
      "velocity": 106,
      "chip": "ym2612"
    },
    {
      "channel": 3,
      "note": 76,
      "start": 50.1771,
      "duration": 0.1632,
      "velocity": 106,
      "chip": "ym2612"
    },
    {
      "channel": 5,
      "note": 67,
      "start": 50.1801,
      "duration": 0.1604,
      "velocity": 106,
      "chip": "ym2612"
    },
    {
      "channel": 3,
      "note": 79,
      "start": 50.344,
      "duration": 0.3296,
      "velocity": 106,
      "chip": "ym2612"
    },
    {
      "channel": 5,
      "note": 71,
      "start": 50.347,
      "duration": 0.3268,
      "velocity": 106,
      "chip": "ym2612"
    },
    {
      "channel": 2,
      "note": 52,
      "start": 50.35,
      "duration": 0.1573,
      "velocity": 92,
      "chip": "ym2612"
    },
    {
      "channel": 0,
      "note": 45,
      "start": 50.3525,
      "duration": 0.071,
      "velocity": 117,
      "chip": "ym2612"
    },
    {
      "channel": 2,
      "note": 52,
      "start": 50.5106,
      "duration": 0.1633,
      "velocity": 92,
      "chip": "ym2612"
    },
    {
      "channel": 3,
      "note": 83,
      "start": 50.677,
      "duration": 0.33,
      "velocity": 106,
      "chip": "ym2612"
    },
    {
      "channel": 5,
      "note": 76,
      "start": 50.6797,
      "duration": 0.3275,
      "velocity": 106,
      "chip": "ym2612"
    },
    {
      "channel": 1,
      "note": 60,
      "start": 50.6824,
      "duration": 0.1577,
      "velocity": 105,
      "chip": "ym2612"
    },
    {
      "channel": 4,
      "note": 67,
      "start": 50.6851,
      "duration": 0.1552,
      "velocity": 105,
      "chip": "ym2612"
    },
    {
      "channel": 2,
      "note": 52,
      "start": 50.6884,
      "duration": 0.3188,
      "velocity": 92,
      "chip": "ym2612"
    },
    {
      "channel": 0,
      "note": 45,
      "start": 50.6919,
      "duration": 0.0649,
      "velocity": 117,
      "chip": "ym2612"
    },
    {
      "channel": 0,
      "note": 45,
      "start": 50.8437,
      "duration": 0.0798,
      "velocity": 117,
      "chip": "ym2612"
    },
    {
      "channel": 3,
      "note": 88,
      "start": 51.0106,
      "duration": 0.3296,
      "velocity": 106,
      "chip": "ym2612"
    },
    {
      "channel": 5,
      "note": 79,
      "start": 51.0133,
      "duration": 0.3272,
      "velocity": 106,
      "chip": "ym2612"
    },
    {
      "channel": 1,
      "note": 64,
      "start": 51.016,
      "duration": 0.1576,
      "velocity": 105,
      "chip": "ym2612"
    },
    {
      "channel": 4,
      "note": 59,
      "start": 51.0186,
      "duration": 0.1551,
      "velocity": 105,
      "chip": "ym2612"
    },
    {
      "channel": 2,
      "note": 52,
      "start": 51.0216,
      "duration": 0.1524,
      "velocity": 92,
      "chip": "ym2612"
    },
    {
      "channel": 0,
      "note": 45,
      "start": 51.0246,
      "duration": 0.0656,
      "velocity": 117,
      "chip": "ym2612"
    },
    {
      "channel": 2,
      "note": 52,
      "start": 51.1773,
      "duration": 0.1633,
      "velocity": 92,
      "chip": "ym2612"
    },
    {
      "channel": 3,
      "note": 90,
      "start": 51.344,
      "duration": 0.1629,
      "velocity": 106,
      "chip": "ym2612"
    },
    {
      "channel": 5,
      "note": 81,
      "start": 51.347,
      "duration": 0.1601,
      "velocity": 106,
      "chip": "ym2612"
    },
    {
      "channel": 1,
      "note": 58,
      "start": 51.3504,
      "duration": 2.8398,
      "velocity": 105,
      "chip": "ym2612"
    },
    {
      "channel": 4,
      "note": 67,
      "start": 51.3532,
      "duration": 2.8373,
      "velocity": 105,
      "chip": "ym2612"
    },
    {
      "channel": 2,
      "note": 56,
      "start": 51.3562,
      "duration": 0.0677,
      "velocity": 92,
      "chip": "ym2612"
    },
    {
      "channel": 0,
      "note": 45,
      "start": 51.359,
      "duration": 0.0646,
      "velocity": 117,
      "chip": "ym2612"
    },
    {
      "channel": 2,
      "note": 57,
      "start": 51.4273,
      "duration": 0.0799,
      "velocity": 92,
      "chip": "ym2612"
    },
    {
      "channel": 3,
      "note": 91,
      "start": 51.5106,
      "duration": 0.0797,
      "velocity": 106,
      "chip": "ym2612"
    },
    {
      "channel": 5,
      "note": 82,
      "start": 51.5139,
      "duration": 0.0765,
      "velocity": 106,
      "chip": "ym2612"
    },
    {
      "channel": 2,
      "note": 58,
      "start": 51.517,
      "duration": 0.3235,
      "velocity": 92,
      "chip": "ym2612"
    },
    {
      "channel": 3,
      "note": 86,
      "start": 51.5935,
      "duration": 0.0802,
      "velocity": 106,
      "chip": "ym2612"
    },
    {
      "channel": 5,
      "note": 79,
      "start": 51.5961,
      "duration": 0.0777,
      "velocity": 106,
      "chip": "ym2612"
    },
    {
      "channel": 3,
      "note": 82,
      "start": 51.6768,
      "duration": 0.0802,
      "velocity": 106,
      "chip": "ym2612"
    },
    {
      "channel": 5,
      "note": 74,
      "start": 51.6795,
      "duration": 0.0777,
      "velocity": 106,
      "chip": "ym2612"
    },
    {
      "channel": 0,
      "note": 45,
      "start": 51.6821,
      "duration": 0.0747,
      "velocity": 117,
      "chip": "ym2612"
    },
    {
      "channel": 3,
      "note": 86,
      "start": 51.7602,
      "duration": 0.08,
      "velocity": 106,
      "chip": "ym2612"
    },
    {
      "channel": 5,
      "note": 79,
      "start": 51.7629,
      "duration": 0.0776,
      "velocity": 106,
      "chip": "ym2612"
    },
    {
      "channel": 3,
      "note": 91,
      "start": 51.8435,
      "duration": 0.0802,
      "velocity": 106,
      "chip": "ym2612"
    },
    {
      "channel": 5,
      "note": 82,
      "start": 51.8462,
      "duration": 0.0777,
      "velocity": 106,
      "chip": "ym2612"
    },
    {
      "channel": 2,
      "note": 58,
      "start": 51.8493,
      "duration": 0.158,
      "velocity": 92,
      "chip": "ym2612"
    },
    {
      "channel": 3,
      "note": 86,
      "start": 51.9269,
      "duration": 0.08,
      "velocity": 106,
      "chip": "ym2612"
    },
    {
      "channel": 5,
      "note": 79,
      "start": 51.9296,
      "duration": 0.0776,
      "velocity": 106,
      "chip": "ym2612"
    },
    {
      "channel": 3,
      "note": 82,
      "start": 52.0103,
      "duration": 0.0802,
      "velocity": 106,
      "chip": "ym2612"
    },
    {
      "channel": 5,
      "note": 74,
      "start": 52.0129,
      "duration": 0.0777,
      "velocity": 106,
      "chip": "ym2612"
    },
    {
      "channel": 2,
      "note": 58,
      "start": 52.0163,
      "duration": 0.3242,
      "velocity": 92,
      "chip": "ym2612"
    },
    {
      "channel": 0,
      "note": 45,
      "start": 52.019,
      "duration": 0.0713,
      "velocity": 117,
      "chip": "ym2612"
    },
    {
      "channel": 3,
      "note": 86,
      "start": 52.0937,
      "duration": 0.08,
      "velocity": 106,
      "chip": "ym2612"
    },
    {
      "channel": 5,
      "note": 79,
      "start": 52.0963,
      "duration": 0.0775,
      "velocity": 106,
      "chip": "ym2612"
    },
    {
      "channel": 3,
      "note": 90,
      "start": 52.1768,
      "duration": 0.0803,
      "velocity": 106,
      "chip": "ym2612"
    },
    {
      "channel": 5,
      "note": 82,
      "start": 52.1795,
      "duration": 0.0778,
      "velocity": 106,
      "chip": "ym2612"
    },
    {
      "channel": 0,
      "note": 45,
      "start": 52.1821,
      "duration": 0.0748,
      "velocity": 117,
      "chip": "ym2612"
    },
    {
      "channel": 3,
      "note": 86,
      "start": 52.2602,
      "duration": 0.08,
      "velocity": 106,
      "chip": "ym2612"
    },
    {
      "channel": 5,
      "note": 78,
      "start": 52.2629,
      "duration": 0.0776,
      "velocity": 106,
      "chip": "ym2612"
    },
    {
      "channel": 3,
      "note": 82,
      "start": 52.344,
      "duration": 0.0964,
      "velocity": 106,
      "chip": "ym2612"
    },
    {
      "channel": 5,
      "note": 74,
      "start": 52.3466,
      "duration": 0.0939,
      "velocity": 106,
      "chip": "ym2612"
    },
    {
      "channel": 2,
      "note": 58,
      "start": 52.3494,
      "duration": 0.3412,
      "velocity": 92,
      "chip": "ym2612"
    },
    {
      "channel": 0,
      "note": 45,
      "start": 52.352,
      "duration": 0.0882,
      "velocity": 117,
      "chip": "ym2612"
    },
    {
      "channel": 3,
      "note": 86,
      "start": 52.4437,
      "duration": 0.08,
      "velocity": 106,
      "chip": "ym2612"
    },
    {
      "channel": 5,
      "note": 78,
      "start": 52.4463,
      "duration": 0.0776,
      "velocity": 106,
      "chip": "ym2612"
    },
    {
      "channel": 3,
      "note": 90,
      "start": 52.5268,
      "duration": 0.0802,
      "velocity": 106,
      "chip": "ym2612"
    },
    {
      "channel": 5,
      "note": 82,
      "start": 52.5295,
      "duration": 0.0777,
      "velocity": 106,
      "chip": "ym2612"
    },
    {
      "channel": 3,
      "note": 86,
      "start": 52.6102,
      "duration": 0.08,
      "velocity": 106,
      "chip": "ym2612"
    },
    {
      "channel": 5,
      "note": 78,
      "start": 52.6129,
      "duration": 0.0776,
      "velocity": 106,
      "chip": "ym2612"
    },
    {
      "channel": 3,
      "note": 82,
      "start": 52.6937,
      "duration": 0.0801,
      "velocity": 106,
      "chip": "ym2612"
    },
    {
      "channel": 5,
      "note": 74,
      "start": 52.6966,
      "duration": 0.0773,
      "velocity": 106,
      "chip": "ym2612"
    },
    {
      "channel": 2,
      "note": 58,
      "start": 52.6998,
      "duration": 0.1574,
      "velocity": 92,
      "chip": "ym2612"
    },
    {
      "channel": 0,
      "note": 45,
      "start": 52.7024,
      "duration": 0.0712,
      "velocity": 117,
      "chip": "ym2612"
    },
    {
      "channel": 3,
      "note": 86,
      "start": 52.777,
      "duration": 0.0799,
      "velocity": 106,
      "chip": "ym2612"
    },
    {
      "channel": 5,
      "note": 78,
      "start": 52.7796,
      "duration": 0.0775,
      "velocity": 106,
      "chip": "ym2612"
    },
    {
      "channel": 3,
      "note": 89,
      "start": 52.8602,
      "duration": 0.0802,
      "velocity": 106,
      "chip": "ym2612"
    },
    {
      "channel": 5,
      "note": 82,
      "start": 52.8628,
      "duration": 0.0778,
      "velocity": 106,
      "chip": "ym2612"
    },
    {
      "channel": 2,
      "note": 58,
      "start": 52.8659,
      "duration": 0.3247,
      "velocity": 92,
      "chip": "ym2612"
    },
    {
      "channel": 0,
      "note": 45,
      "start": 52.8685,
      "duration": 0.0717,
      "velocity": 117,
      "chip": "ym2612"
    },
    {
      "channel": 3,
      "note": 86,
      "start": 52.9437,
      "duration": 0.08,
      "velocity": 106,
      "chip": "ym2612"
    },
    {
      "channel": 5,
      "note": 77,
      "start": 52.9463,
      "duration": 0.0776,
      "velocity": 106,
      "chip": "ym2612"
    },
    {
      "channel": 3,
      "note": 82,
      "start": 53.0268,
      "duration": 0.0802,
      "velocity": 106,
      "chip": "ym2612"
    },
    {
      "channel": 5,
      "note": 74,
      "start": 53.0295,
      "duration": 0.0777,
      "velocity": 106,
      "chip": "ym2612"
    },
    {
      "channel": 3,
      "note": 86,
      "start": 53.1102,
      "duration": 0.08,
      "velocity": 106,
      "chip": "ym2612"
    },
    {
      "channel": 5,
      "note": 77,
      "start": 53.1129,
      "duration": 0.0776,
      "velocity": 106,
      "chip": "ym2612"
    },
    {
      "channel": 3,
      "note": 89,
      "start": 53.1935,
      "duration": 0.0802,
      "velocity": 106,
      "chip": "ym2612"
    },
    {
      "channel": 5,
      "note": 82,
      "start": 53.1962,
      "duration": 0.0777,
      "velocity": 106,
      "chip": "ym2612"
    },
    {
      "channel": 2,
      "note": 46,
      "start": 53.1993,
      "duration": 0.158,
      "velocity": 92,
      "chip": "ym2612"
    },
    {
      "channel": 3,
      "note": 86,
      "start": 53.2769,
      "duration": 0.08,
      "velocity": 106,
      "chip": "ym2612"
    },
    {
      "channel": 5,
      "note": 77,
      "start": 53.2795,
      "duration": 0.0776,
      "velocity": 106,
      "chip": "ym2612"
    },
    {
      "channel": 3,
      "note": 82,
      "start": 53.3603,
      "duration": 0.0801,
      "velocity": 106,
      "chip": "ym2612"
    },
    {
      "channel": 5,
      "note": 74,
      "start": 53.3629,
      "duration": 0.0777,
      "velocity": 106,
      "chip": "ym2612"
    },
    {
      "channel": 2,
      "note": 46,
      "start": 53.366,
      "duration": 0.3246,
      "velocity": 92,
      "chip": "ym2612"
    },
    {
      "channel": 0,
      "note": 45,
      "start": 53.369,
      "duration": 0.0712,
      "velocity": 117,
      "chip": "ym2612"
    },
    {
      "channel": 3,
      "note": 86,
      "start": 53.4437,
      "duration": 0.0799,
      "velocity": 106,
      "chip": "ym2612"
    },
    {
      "channel": 5,
      "note": 77,
      "start": 53.4463,
      "duration": 0.0775,
      "velocity": 106,
      "chip": "ym2612"
    },
    {
      "channel": 3,
      "note": 88,
      "start": 53.5267,
      "duration": 0.0803,
      "velocity": 106,
      "chip": "ym2612"
    },
    {
      "channel": 5,
      "note": 82,
      "start": 53.5294,
      "duration": 0.0778,
      "velocity": 106,
      "chip": "ym2612"
    },
    {
      "channel": 0,
      "note": 45,
      "start": 53.5322,
      "duration": 0.0747,
      "velocity": 117,
      "chip": "ym2612"
    },
    {
      "channel": 3,
      "note": 84,
      "start": 53.6102,
      "duration": 0.08,
      "velocity": 106,
      "chip": "ym2612"
    },
    {
      "channel": 5,
      "note": 79,
      "start": 53.6129,
      "duration": 0.0776,
      "velocity": 106,
      "chip": "ym2612"
    },
    {
      "channel": 3,
      "note": 79,
      "start": 53.694,
      "duration": 0.0797,
      "velocity": 106,
      "chip": "ym2612"
    },
    {
      "channel": 5,
      "note": 76,
      "start": 53.6966,
      "duration": 0.0772,
      "velocity": 106,
      "chip": "ym2612"
    },
    {
      "channel": 2,
      "note": 50,
      "start": 53.7001,
      "duration": 0.4907,
      "velocity": 92,
      "chip": "ym2612"
    },
    {
      "channel": 3,
      "note": 84,
      "start": 53.7768,
      "duration": 0.08,
      "velocity": 106,
      "chip": "ym2612"
    },
    {
      "channel": 5,
      "note": 79,
      "start": 53.7795,
      "duration": 0.0776,
      "velocity": 106,
      "chip": "ym2612"
    },
    {
      "channel": 3,
      "note": 88,
      "start": 53.8601,
      "duration": 0.0802,
      "velocity": 106,
      "chip": "ym2612"
    },
    {
      "channel": 5,
      "note": 82,
      "start": 53.8627,
      "duration": 0.0778,
      "velocity": 106,
      "chip": "ym2612"
    },
    {
      "channel": 3,
      "note": 84,
      "start": 53.9436,
      "duration": 0.08,
      "velocity": 106,
      "chip": "ym2612"
    },
    {
      "channel": 5,
      "note": 79,
      "start": 53.9462,
      "duration": 0.0776,
      "velocity": 106,
      "chip": "ym2612"
    },
    {
      "channel": 3,
      "note": 79,
      "start": 54.0268,
      "duration": 0.0802,
      "velocity": 106,
      "chip": "ym2612"
    },
    {
      "channel": 5,
      "note": 76,
      "start": 54.0299,
      "duration": 0.0773,
      "velocity": 106,
      "chip": "ym2612"
    },
    {
      "channel": 0,
      "note": 45,
      "start": 54.0327,
      "duration": 0.0742,
      "velocity": 117,
      "chip": "ym2612"
    },
    {
      "channel": 3,
      "note": 84,
      "start": 54.1106,
      "duration": 0.0797,
      "velocity": 106,
      "chip": "ym2612"
    },
    {
      "channel": 5,
      "note": 79,
      "start": 54.1136,
      "duration": 0.077,
      "velocity": 106,
      "chip": "ym2612"
    },
    {
      "channel": 1,
      "note": 56,
      "start": 54.1959,
      "duration": 0.4111,
      "velocity": 105,
      "chip": "ym2612"
    },
    {
      "channel": 4,
      "note": 61,
      "start": 54.1985,
      "duration": 0.4086,
      "velocity": 105,
      "chip": "ym2612"
    },
    {
      "channel": 2,
      "note": 49,
      "start": 54.2013,
      "duration": 0.3225,
      "velocity": 92,
      "chip": "ym2612"
    },
    {
      "channel": 0,
      "note": 45,
      "start": 54.2039,
      "duration": 0.0696,
      "velocity": 117,
      "chip": "ym2612"
    },
    {
      "channel": 1,
      "note": 64,
      "start": 54.6947,
      "duration": 0.1623,
      "velocity": 105,
      "chip": "ym2612"
    },
    {
      "channel": 4,
      "note": 59,
      "start": 54.6977,
      "duration": 0.1594,
      "velocity": 105,
      "chip": "ym2612"
    },
    {
      "channel": 2,
      "note": 49,
      "start": 54.7006,
      "duration": 0.1567,
      "velocity": 92,
      "chip": "ym2612"
    },
    {
      "channel": 2,
      "note": 49,
      "start": 54.8618,
      "duration": 0.162,
      "velocity": 92,
      "chip": "ym2612"
    },
    {
      "channel": 0,
      "note": 45,
      "start": 54.8643,
      "duration": 0.076,
      "velocity": 117,
      "chip": "ym2612"
    },
    {
      "channel": 1,
      "note": 56,
      "start": 55.028,
      "duration": 0.1623,
      "velocity": 105,
      "chip": "ym2612"
    },
    {
      "channel": 4,
      "note": 61,
      "start": 55.0307,
      "duration": 0.1598,
      "velocity": 105,
      "chip": "ym2612"
    },
    {
      "channel": 1,
      "note": 64,
      "start": 55.3614,
      "duration": 0.3289,
      "velocity": 105,
      "chip": "ym2612"
    },
    {
      "channel": 4,
      "note": 59,
      "start": 55.364,
      "duration": 0.3265,
      "velocity": 105,
      "chip": "ym2612"
    },
    {
      "channel": 2,
      "note": 49,
      "start": 55.367,
      "duration": 0.3237,
      "velocity": 92,
      "chip": "ym2612"
    },
    {
      "channel": 0,
      "note": 45,
      "start": 55.528,
      "duration": 0.0789,
      "velocity": 117,
      "chip": "ym2612"
    },
    {
      "channel": 1,
      "note": 64,
      "start": 55.6951,
      "duration": 0.1618,
      "velocity": 105,
      "chip": "ym2612"
    },
    {
      "channel": 4,
      "note": 59,
      "start": 55.6977,
      "duration": 0.1594,
      "velocity": 105,
      "chip": "ym2612"
    },
    {
      "channel": 1,
      "note": 64,
      "start": 55.8617,
      "duration": 0.1619,
      "velocity": 105,
      "chip": "ym2612"
    },
    {
      "channel": 4,
      "note": 59,
      "start": 55.8644,
      "duration": 0.1594,
      "velocity": 105,
      "chip": "ym2612"
    },
    {
      "channel": 1,
      "note": 64,
      "start": 56.0281,
      "duration": 0.1621,
      "velocity": 105,
      "chip": "ym2612"
    },
    {
      "channel": 4,
      "note": 59,
      "start": 56.0307,
      "duration": 0.1597,
      "velocity": 105,
      "chip": "ym2612"
    },
    {
      "channel": 2,
      "note": 49,
      "start": 56.0337,
      "duration": 0.1569,
      "velocity": 92,
      "chip": "ym2612"
    },
    {
      "channel": 1,
      "note": 64,
      "start": 56.1949,
      "duration": 0.162,
      "velocity": 105,
      "chip": "ym2612"
    },
    {
      "channel": 4,
      "note": 59,
      "start": 56.1975,
      "duration": 0.1595,
      "velocity": 105,
      "chip": "ym2612"
    },
    {
      "channel": 2,
      "note": 49,
      "start": 56.2009,
      "duration": 0.323,
      "velocity": 92,
      "chip": "ym2612"
    },
    {
      "channel": 0,
      "note": 45,
      "start": 56.2033,
      "duration": 0.0704,
      "velocity": 117,
      "chip": "ym2612"
    },
    {
      "channel": 1,
      "note": 58,
      "start": 56.3613,
      "duration": 0.1623,
      "velocity": 105,
      "chip": "ym2612"
    },
    {
      "channel": 4,
      "note": 63,
      "start": 56.3642,
      "duration": 0.1595,
      "velocity": 105,
      "chip": "ym2612"
    },
    {
      "channel": 2,
      "note": 49,
      "start": 56.8783,
      "duration": 0.3291,
      "velocity": 92,
      "chip": "ym2612"
    },
    {
      "channel": 0,
      "note": 45,
      "start": 56.8807,
      "duration": 0.0763,
      "velocity": 117,
      "chip": "ym2612"
    },
    {
      "channel": 3,
      "note": 88,
      "start": 57.048,
      "duration": 0.159,
      "velocity": 1,
      "chip": "ym2612"
    },
    {
      "channel": 5,
      "note": 83,
      "start": 57.0507,
      "duration": 0.1566,
      "velocity": 1,
      "chip": "ym2612"
    },
    {
      "channel": 3,
      "note": 88,
      "start": 57.2141,
      "duration": 0.1597,
      "velocity": 1,
      "chip": "ym2612"
    },
    {
      "channel": 5,
      "note": 83,
      "start": 57.2167,
      "duration": 0.1573,
      "velocity": 1,
      "chip": "ym2612"
    },
    {
      "channel": 2,
      "note": 49,
      "start": 57.3809,
      "duration": 0.1599,
      "velocity": 92,
      "chip": "ym2612"
    },
    {
      "channel": 3,
      "note": 88,
      "start": 57.3845,
      "duration": 0.156,
      "velocity": 1,
      "chip": "ym2612"
    },
    {
      "channel": 5,
      "note": 83,
      "start": 57.387,
      "duration": 0.1536,
      "velocity": 1,
      "chip": "ym2612"
    },
    {
      "channel": 2,
      "note": 49,
      "start": 57.5481,
      "duration": 0.3261,
      "velocity": 92,
      "chip": "ym2612"
    },
    {
      "channel": 0,
      "note": 45,
      "start": 57.5505,
      "duration": 0.0732,
      "velocity": 117,
      "chip": "ym2612"
    },
    {
      "channel": 3,
      "note": 88,
      "start": 57.5531,
      "duration": 0.1541,
      "velocity": 1,
      "chip": "ym2612"
    },
    {
      "channel": 5,
      "note": 83,
      "start": 57.5562,
      "duration": 0.1512,
      "velocity": 1,
      "chip": "ym2612"
    },
    {
      "channel": 3,
      "note": 87,
      "start": 57.7142,
      "duration": 0.1597,
      "velocity": 1,
      "chip": "ym2612"
    },
    {
      "channel": 5,
      "note": 82,
      "start": 57.7167,
      "duration": 0.1573,
      "velocity": 1,
      "chip": "ym2612"
    },
    {
      "channel": 2,
      "note": 49,
      "start": 58.0447,
      "duration": 0.3294,
      "velocity": 92,
      "chip": "ym2612"
    },
    {
      "channel": 0,
      "note": 45,
      "start": 58.2133,
      "duration": 0.0772,
      "velocity": 117,
      "chip": "ym2612"
    },
    {
      "channel": 3,
      "note": 83,
      "start": 58.2159,
      "duration": 0.1579,
      "velocity": 1,
      "chip": "ym2612"
    },
    {
      "channel": 5,
      "note": 78,
      "start": 58.2185,
      "duration": 0.1555,
      "velocity": 1,
      "chip": "ym2612"
    },
    {
      "channel": 3,
      "note": 78,
      "start": 58.5469,
      "duration": 0.1602,
      "velocity": 1,
      "chip": "ym2612"
    },
    {
      "channel": 5,
      "note": 83,
      "start": 58.5495,
      "duration": 0.1578,
      "velocity": 1,
      "chip": "ym2612"
    },
    {
      "channel": 2,
      "note": 49,
      "start": 58.7121,
      "duration": 0.1618,
      "velocity": 92,
      "chip": "ym2612"
    },
    {
      "channel": 2,
      "note": 49,
      "start": 58.8817,
      "duration": 0.3256,
      "velocity": 92,
      "chip": "ym2612"
    },
    {
      "channel": 0,
      "note": 45,
      "start": 58.8842,
      "duration": 0.0729,
      "velocity": 117,
      "chip": "ym2612"
    },
    {
      "channel": 3,
      "note": 82,
      "start": 58.887,
      "duration": 0.4868,
      "velocity": 1,
      "chip": "ym2612"
    },
    {
      "channel": 5,
      "note": 87,
      "start": 58.8906,
      "duration": 0.4833,
      "velocity": 1,
      "chip": "ym2612"
    },
    {
      "channel": 1,
      "note": 54,
      "start": 59.5452,
      "duration": 0.4118,
      "velocity": 105,
      "chip": "ym2612"
    },
    {
      "channel": 4,
      "note": 59,
      "start": 59.5478,
      "duration": 0.4093,
      "velocity": 105,
      "chip": "ym2612"
    },
    {
      "channel": 2,
      "note": 47,
      "start": 59.5506,
      "duration": 0.3232,
      "velocity": 92,
      "chip": "ym2612"
    },
    {
      "channel": 0,
      "note": 45,
      "start": 59.5531,
      "duration": 0.0706,
      "velocity": 117,
      "chip": "ym2612"
    },
    {
      "channel": 1,
      "note": 62,
      "start": 60.0447,
      "duration": 0.1621,
      "velocity": 105,
      "chip": "ym2612"
    },
    {
      "channel": 4,
      "note": 57,
      "start": 60.0473,
      "duration": 0.1597,
      "velocity": 105,
      "chip": "ym2612"
    },
    {
      "channel": 2,
      "note": 47,
      "start": 60.0503,
      "duration": 0.1569,
      "velocity": 92,
      "chip": "ym2612"
    },
    {
      "channel": 2,
      "note": 47,
      "start": 60.2118,
      "duration": 0.162,
      "velocity": 92,
      "chip": "ym2612"
    },
    {
      "channel": 0,
      "note": 45,
      "start": 60.2146,
      "duration": 0.0756,
      "velocity": 117,
      "chip": "ym2612"
    },
    {
      "channel": 1,
      "note": 54,
      "start": 60.3779,
      "duration": 0.1624,
      "velocity": 105,
      "chip": "ym2612"
    },
    {
      "channel": 4,
      "note": 59,
      "start": 60.3805,
      "duration": 0.16,
      "velocity": 105,
      "chip": "ym2612"
    },
    {
      "channel": 1,
      "note": 62,
      "start": 60.7118,
      "duration": 0.345,
      "velocity": 105,
      "chip": "ym2612"
    },
    {
      "channel": 4,
      "note": 57,
      "start": 60.7145,
      "duration": 0.3426,
      "velocity": 105,
      "chip": "ym2612"
    },
    {
      "channel": 2,
      "note": 47,
      "start": 60.7174,
      "duration": 0.3398,
      "velocity": 92,
      "chip": "ym2612"
    },
    {
      "channel": 0,
      "note": 45,
      "start": 60.8779,
      "duration": 0.0957,
      "velocity": 117,
      "chip": "ym2612"
    },
    {
      "channel": 1,
      "note": 62,
      "start": 61.0616,
      "duration": 0.162,
      "velocity": 105,
      "chip": "ym2612"
    },
    {
      "channel": 4,
      "note": 57,
      "start": 61.0643,
      "duration": 0.1595,
      "velocity": 105,
      "chip": "ym2612"
    },
    {
      "channel": 1,
      "note": 62,
      "start": 61.2281,
      "duration": 0.1622,
      "velocity": 105,
      "chip": "ym2612"
    },
    {
      "channel": 4,
      "note": 57,
      "start": 61.2307,
      "duration": 0.1598,
      "velocity": 105,
      "chip": "ym2612"
    },
    {
      "channel": 1,
      "note": 62,
      "start": 61.3947,
      "duration": 0.1623,
      "velocity": 105,
      "chip": "ym2612"
    },
    {
      "channel": 4,
      "note": 57,
      "start": 61.3974,
      "duration": 0.1598,
      "velocity": 105,
      "chip": "ym2612"
    },
    {
      "channel": 2,
      "note": 47,
      "start": 61.4003,
      "duration": 0.1571,
      "velocity": 92,
      "chip": "ym2612"
    },
    {
      "channel": 1,
      "note": 62,
      "start": 61.562,
      "duration": 0.1615,
      "velocity": 105,
      "chip": "ym2612"
    },
    {
      "channel": 4,
      "note": 57,
      "start": 61.5647,
      "duration": 0.159,
      "velocity": 105,
      "chip": "ym2612"
    },
    {
      "channel": 2,
      "note": 47,
      "start": 61.5681,
      "duration": 0.3225,
      "velocity": 92,
      "chip": "ym2612"
    },
    {
      "channel": 0,
      "note": 45,
      "start": 61.5705,
      "duration": 0.0698,
      "velocity": 117,
      "chip": "ym2612"
    },
    {
      "channel": 1,
      "note": 56,
      "start": 61.728,
      "duration": 0.1622,
      "velocity": 105,
      "chip": "ym2612"
    },
    {
      "channel": 4,
      "note": 61,
      "start": 61.7309,
      "duration": 0.1595,
      "velocity": 105,
      "chip": "ym2612"
    },
    {
      "channel": 2,
      "note": 47,
      "start": 62.2282,
      "duration": 0.3293,
      "velocity": 92,
      "chip": "ym2612"
    },
    {
      "channel": 0,
      "note": 45,
      "start": 62.2306,
      "duration": 0.0763,
      "velocity": 117,
      "chip": "ym2612"
    },
    {
      "channel": 3,
      "note": 90,
      "start": 62.3973,
      "duration": 0.1599,
      "velocity": 1,
      "chip": "ym2612"
    },
    {
      "channel": 5,
      "note": 85,
      "start": 62.3998,
      "duration": 0.1574,
      "velocity": 1,
      "chip": "ym2612"
    },
    {
      "channel": 3,
      "note": 91,
      "start": 62.5641,
      "duration": 0.1597,
      "velocity": 1,
      "chip": "ym2612"
    },
    {
      "channel": 5,
      "note": 86,
      "start": 62.5667,
      "duration": 0.1572,
      "velocity": 1,
      "chip": "ym2612"
    },
    {
      "channel": 2,
      "note": 47,
      "start": 62.7312,
      "duration": 0.1596,
      "velocity": 92,
      "chip": "ym2612"
    },
    {
      "channel": 3,
      "note": 95,
      "start": 62.7348,
      "duration": 0.1557,
      "velocity": 1,
      "chip": "ym2612"
    },
    {
      "channel": 5,
      "note": 90,
      "start": 62.7374,
      "duration": 0.1532,
      "velocity": 1,
      "chip": "ym2612"
    },
    {
      "channel": 2,
      "note": 47,
      "start": 62.8978,
      "duration": 0.3263,
      "velocity": 92,
      "chip": "ym2612"
    },
    {
      "channel": 0,
      "note": 45,
      "start": 62.9003,
      "duration": 0.0735,
      "velocity": 117,
      "chip": "ym2612"
    },
    {
      "channel": 3,
      "note": 97,
      "start": 62.9034,
      "duration": 0.3204,
      "velocity": 1,
      "chip": "ym2612"
    },
    {
      "channel": 5,
      "note": 91,
      "start": 62.9061,
      "duration": 0.3178,
      "velocity": 1,
      "chip": "ym2612"
    },
    {
      "channel": 3,
      "note": 98,
      "start": 63.2312,
      "duration": 0.1593,
      "velocity": 1,
      "chip": "ym2612"
    },
    {
      "channel": 5,
      "note": 93,
      "start": 63.2337,
      "duration": 0.157,
      "velocity": 1,
      "chip": "ym2612"
    },
    {
      "channel": 2,
      "note": 47,
      "start": 63.3974,
      "duration": 0.3266,
      "velocity": 92,
      "chip": "ym2612"
    },
    {
      "channel": 3,
      "note": 97,
      "start": 63.401,
      "duration": 0.1561,
      "velocity": 1,
      "chip": "ym2612"
    },
    {
      "channel": 5,
      "note": 91,
      "start": 63.4036,
      "duration": 0.1537,
      "velocity": 1,
      "chip": "ym2612"
    },
    {
      "channel": 0,
      "note": 45,
      "start": 63.5643,
      "duration": 0.0761,
      "velocity": 117,
      "chip": "ym2612"
    },
    {
      "channel": 3,
      "note": 95,
      "start": 63.5676,
      "duration": 0.3228,
      "velocity": 1,
      "chip": "ym2612"
    },
    {
      "channel": 5,
      "note": 90,
      "start": 63.5701,
      "duration": 0.3205,
      "velocity": 1,
      "chip": "ym2612"
    },
    {
      "channel": 3,
      "note": 91,
      "start": 63.8974,
      "duration": 0.3264,
      "velocity": 1,
      "chip": "ym2612"
    },
    {
      "channel": 5,
      "note": 86,
      "start": 63.9,
      "duration": 0.324,
      "velocity": 1,
      "chip": "ym2612"
    },
    {
      "channel": 2,
      "note": 47,
      "start": 64.0617,
      "duration": 0.1624,
      "velocity": 92,
      "chip": "ym2612"
    },
    {
      "channel": 2,
      "note": 47,
      "start": 64.2317,
      "duration": 0.3256,
      "velocity": 92,
      "chip": "ym2612"
    },
    {
      "channel": 0,
      "note": 45,
      "start": 64.2342,
      "duration": 0.073,
      "velocity": 117,
      "chip": "ym2612"
    },
    {
      "channel": 3,
      "note": 90,
      "start": 64.237,
      "duration": 0.4868,
      "velocity": 1,
      "chip": "ym2612"
    },
    {
      "channel": 5,
      "note": 85,
      "start": 64.2402,
      "duration": 0.4837,
      "velocity": 1,
      "chip": "ym2612"
    },
    {
      "channel": 1,
      "note": 56,
      "start": 64.8948,
      "duration": 0.4288,
      "velocity": 105,
      "chip": "ym2612"
    },
    {
      "channel": 4,
      "note": 61,
      "start": 64.8975,
      "duration": 0.4263,
      "velocity": 105,
      "chip": "ym2612"
    },
    {
      "channel": 2,
      "note": 49,
      "start": 64.9003,
      "duration": 0.3402,
      "velocity": 92,
      "chip": "ym2612"
    },
    {
      "channel": 0,
      "note": 45,
      "start": 64.9027,
      "duration": 0.0709,
      "velocity": 117,
      "chip": "ym2612"
    },
    {
      "channel": 1,
      "note": 64,
      "start": 65.4118,
      "duration": 0.1619,
      "velocity": 105,
      "chip": "ym2612"
    },
    {
      "channel": 4,
      "note": 59,
      "start": 65.4144,
      "duration": 0.1594,
      "velocity": 105,
      "chip": "ym2612"
    },
    {
      "channel": 2,
      "note": 49,
      "start": 65.4174,
      "duration": 0.1566,
      "velocity": 92,
      "chip": "ym2612"
    },
    {
      "channel": 2,
      "note": 49,
      "start": 65.5786,
      "duration": 0.1618,
      "velocity": 92,
      "chip": "ym2612"
    },
    {
      "channel": 0,
      "note": 45,
      "start": 65.581,
      "duration": 0.0759,
      "velocity": 117,
      "chip": "ym2612"
    },
    {
      "channel": 1,
      "note": 56,
      "start": 65.7446,
      "duration": 0.1623,
      "velocity": 105,
      "chip": "ym2612"
    },
    {
      "channel": 4,
      "note": 61,
      "start": 65.7472,
      "duration": 0.1599,
      "velocity": 105,
      "chip": "ym2612"
    },
    {
      "channel": 1,
      "note": 64,
      "start": 66.0781,
      "duration": 0.3288,
      "velocity": 105,
      "chip": "ym2612"
    },
    {
      "channel": 4,
      "note": 59,
      "start": 66.0807,
      "duration": 0.3263,
      "velocity": 105,
      "chip": "ym2612"
    },
    {
      "channel": 2,
      "note": 49,
      "start": 66.0837,
      "duration": 0.3236,
      "velocity": 92,
      "chip": "ym2612"
    },
    {
      "channel": 0,
      "note": 45,
      "start": 66.2447,
      "duration": 0.079,
      "velocity": 117,
      "chip": "ym2612"
    },
    {
      "channel": 1,
      "note": 64,
      "start": 66.4116,
      "duration": 0.1621,
      "velocity": 105,
      "chip": "ym2612"
    },
    {
      "channel": 4,
      "note": 59,
      "start": 66.4146,
      "duration": 0.1592,
      "velocity": 105,
      "chip": "ym2612"
    },
    {
      "channel": 1,
      "note": 64,
      "start": 66.5781,
      "duration": 0.1622,
      "velocity": 105,
      "chip": "ym2612"
    },
    {
      "channel": 4,
      "note": 59,
      "start": 66.5807,
      "duration": 0.1598,
      "velocity": 105,
      "chip": "ym2612"
    },
    {
      "channel": 1,
      "note": 64,
      "start": 66.7448,
      "duration": 0.1622,
      "velocity": 105,
      "chip": "ym2612"
    },
    {
      "channel": 4,
      "note": 59,
      "start": 66.7474,
      "duration": 0.1598,
      "velocity": 105,
      "chip": "ym2612"
    },
    {
      "channel": 2,
      "note": 49,
      "start": 66.7504,
      "duration": 0.1569,
      "velocity": 92,
      "chip": "ym2612"
    },
    {
      "channel": 1,
      "note": 64,
      "start": 66.9116,
      "duration": 0.1621,
      "velocity": 105,
      "chip": "ym2612"
    },
    {
      "channel": 4,
      "note": 59,
      "start": 66.9142,
      "duration": 0.1597,
      "velocity": 105,
      "chip": "ym2612"
    },
    {
      "channel": 2,
      "note": 49,
      "start": 66.9176,
      "duration": 0.3232,
      "velocity": 92,
      "chip": "ym2612"
    },
    {
      "channel": 0,
      "note": 45,
      "start": 66.92,
      "duration": 0.0702,
      "velocity": 117,
      "chip": "ym2612"
    },
    {
      "channel": 1,
      "note": 58,
      "start": 67.0781,
      "duration": 0.1622,
      "velocity": 105,
      "chip": "ym2612"
    },
    {
      "channel": 4,
      "note": 63,
      "start": 67.0814,
      "duration": 0.1592,
      "velocity": 105,
      "chip": "ym2612"
    },
    {
      "channel": 2,
      "note": 49,
      "start": 67.5782,
      "duration": 0.3293,
      "velocity": 92,
      "chip": "ym2612"
    },
    {
      "channel": 0,
      "note": 45,
      "start": 67.5806,
      "duration": 0.0763,
      "velocity": 117,
      "chip": "ym2612"
    },
    {
      "channel": 3,
      "note": 88,
      "start": 67.7477,
      "duration": 0.1595,
      "velocity": 1,
      "chip": "ym2612"
    },
    {
      "channel": 5,
      "note": 83,
      "start": 67.7506,
      "duration": 0.1568,
      "velocity": 1,
      "chip": "ym2612"
    },
    {
      "channel": 3,
      "note": 88,
      "start": 67.9143,
      "duration": 0.1595,
      "velocity": 1,
      "chip": "ym2612"
    },
    {
      "channel": 5,
      "note": 83,
      "start": 67.9169,
      "duration": 0.1571,
      "velocity": 1,
      "chip": "ym2612"
    },
    {
      "channel": 2,
      "note": 49,
      "start": 68.0809,
      "duration": 0.1599,
      "velocity": 92,
      "chip": "ym2612"
    },
    {
      "channel": 3,
      "note": 88,
      "start": 68.0845,
      "duration": 0.156,
      "velocity": 1,
      "chip": "ym2612"
    },
    {
      "channel": 5,
      "note": 83,
      "start": 68.087,
      "duration": 0.1536,
      "velocity": 1,
      "chip": "ym2612"
    },
    {
      "channel": 2,
      "note": 49,
      "start": 68.2477,
      "duration": 0.3265,
      "velocity": 92,
      "chip": "ym2612"
    },
    {
      "channel": 0,
      "note": 45,
      "start": 68.2501,
      "duration": 0.0737,
      "velocity": 117,
      "chip": "ym2612"
    },
    {
      "channel": 3,
      "note": 88,
      "start": 68.2527,
      "duration": 0.1545,
      "velocity": 1,
      "chip": "ym2612"
    },
    {
      "channel": 5,
      "note": 83,
      "start": 68.2553,
      "duration": 0.152,
      "velocity": 1,
      "chip": "ym2612"
    },
    {
      "channel": 3,
      "note": 87,
      "start": 68.4145,
      "duration": 0.1593,
      "velocity": 1,
      "chip": "ym2612"
    },
    {
      "channel": 5,
      "note": 82,
      "start": 68.4175,
      "duration": 0.1565,
      "velocity": 1,
      "chip": "ym2612"
    },
    {
      "channel": 2,
      "note": 49,
      "start": 68.7448,
      "duration": 0.3293,
      "velocity": 92,
      "chip": "ym2612"
    },
    {
      "channel": 0,
      "note": 45,
      "start": 68.9132,
      "duration": 0.0772,
      "velocity": 117,
      "chip": "ym2612"
    },
    {
      "channel": 3,
      "note": 83,
      "start": 68.9159,
      "duration": 0.1579,
      "velocity": 1,
      "chip": "ym2612"
    },
    {
      "channel": 5,
      "note": 78,
      "start": 68.9184,
      "duration": 0.1555,
      "velocity": 1,
      "chip": "ym2612"
    },
    {
      "channel": 3,
      "note": 78,
      "start": 69.2469,
      "duration": 0.1602,
      "velocity": 1,
      "chip": "ym2612"
    },
    {
      "channel": 5,
      "note": 83,
      "start": 69.2495,
      "duration": 0.1578,
      "velocity": 1,
      "chip": "ym2612"
    },
    {
      "channel": 2,
      "note": 49,
      "start": 69.4121,
      "duration": 0.1784,
      "velocity": 92,
      "chip": "ym2612"
    },
    {
      "channel": 2,
      "note": 49,
      "start": 69.5982,
      "duration": 0.3259,
      "velocity": 92,
      "chip": "ym2612"
    },
    {
      "channel": 0,
      "note": 45,
      "start": 69.6006,
      "duration": 0.0731,
      "velocity": 117,
      "chip": "ym2612"
    },
    {
      "channel": 3,
      "note": 82,
      "start": 69.6034,
      "duration": 0.4871,
      "velocity": 1,
      "chip": "ym2612"
    },
    {
      "channel": 5,
      "note": 87,
      "start": 69.6061,
      "duration": 0.4846,
      "velocity": 1,
      "chip": "ym2612"
    },
    {
      "channel": 1,
      "note": 61,
      "start": 70.2832,
      "duration": 0.0002,
      "velocity": 105,
      "chip": "ym2612"
    }
  ]
}