{
  "track_name": "13 - Hunger Made Them Desperate",
  "duration_sec": 111.325,
  "sample_rate": 44100,
  "note_count": 3355,
  "unique_pitches": 26,
  "pitch_range": 37,
  "avg_note_duration": 0.1404,
  "reconstruction_stats": {
    "notes_reconstructed": 3355,
    "keyon_events": 3355,
    "keyoff_events": 3352,
    "orphan_keyons": 3,
    "unique_pitches": 26,
    "pitch_range": 37,
    "avg_duration_sec": 0.1404
  },
  "metadata": {
    "source": "T\\Thunder Force III\\13 - Hunger Made Them Desperate.vgz"
  },
  "notes": [
    {
      "channel": 0,
      "note": 59,
      "start": 0.0,
      "duration": 0.0289,
      "velocity": 101,
      "chip": "ym2612"
    },
    {
      "channel": 1,
      "note": 61,
      "start": 0.0,
      "duration": 0.0,
      "velocity": 127,
      "chip": "ym2612"
    },
    {
      "channel": 1,
      "note": 63,
      "start": 0.0002,
      "duration": 0.6518,
      "velocity": 94,
      "chip": "ym2612"
    },
    {
      "channel": 2,
      "note": 61,
      "start": 0.0051,
      "duration": 0.0246,
      "velocity": 127,
      "chip": "ym2612"
    },
    {
      "channel": 3,
      "note": 59,
      "start": 0.0068,
      "duration": 0.0231,
      "velocity": 101,
      "chip": "ym2612"
    },
    {
      "channel": 4,
      "note": 59,
      "start": 0.0116,
      "duration": 0.6412,
      "velocity": 94,
      "chip": "ym2612"
    },
    {
      "channel": 5,
      "note": 59,
      "start": 0.0164,
      "duration": 0.6365,
      "velocity": 127,
      "chip": "ym2612"
    },
    {
      "channel": 2,
      "note": 61,
      "start": 0.3495,
      "duration": 0.0123,
      "velocity": 127,
      "chip": "ym2612"
    },
    {
      "channel": 1,
      "note": 65,
      "start": 0.681,
      "duration": 0.6354,
      "velocity": 94,
      "chip": "ym2612"
    },
    {
      "channel": 2,
      "note": 61,
      "start": 0.6832,
      "duration": 0.0109,
      "velocity": 127,
      "chip": "ym2612"
    },
    {
      "channel": 4,
      "note": 61,
      "start": 0.685,
      "duration": 0.6323,
      "velocity": 94,
      "chip": "ym2612"
    },
    {
      "channel": 5,
      "note": 59,
      "start": 0.6866,
      "duration": 0.6309,
      "velocity": 127,
      "chip": "ym2612"
    },
    {
      "channel": 2,
      "note": 73,
      "start": 1.0172,
      "duration": 0.0092,
      "velocity": 127,
      "chip": "ym2612"
    },
    {
      "channel": 2,
      "note": 73,
      "start": 1.1799,
      "duration": 0.0126,
      "velocity": 127,
      "chip": "ym2612"
    },
    {
      "channel": 0,
      "note": 59,
      "start": 1.3494,
      "duration": 2.6803,
      "velocity": 101,
      "chip": "ym2612"
    },
    {
      "channel": 1,
      "note": 66,
      "start": 1.3515,
      "duration": 1.3217,
      "velocity": 94,
      "chip": "ym2612"
    },
    {
      "channel": 2,
      "note": 61,
      "start": 1.3573,
      "duration": 0.03,
      "velocity": 127,
      "chip": "ym2612"
    },
    {
      "channel": 3,
      "note": 51,
      "start": 1.3626,
      "duration": 0.1488,
      "velocity": 107,
      "chip": "ym2612"
    },
    {
      "channel": 4,
      "note": 63,
      "start": 1.3647,
      "duration": 1.3095,
      "velocity": 94,
      "chip": "ym2612"
    },
    {
      "channel": 5,
      "note": 59,
      "start": 1.3701,
      "duration": 0.1416,
      "velocity": 127,
      "chip": "ym2612"
    },
    {
      "channel": 2,
      "note": 61,
      "start": 1.5404,
      "duration": 0.0125,
      "velocity": 127,
      "chip": "ym2612"
    },
    {
      "channel": 3,
      "note": 63,
      "start": 1.542,
      "duration": 0.0525,
      "velocity": 107,
      "chip": "ym2612"
    },
    {
      "channel": 5,
      "note": 59,
      "start": 1.5438,
      "duration": 0.051,
      "velocity": 127,
      "chip": "ym2612"
    },
    {
      "channel": 2,
      "note": 61,
      "start": 1.6231,
      "duration": 0.0125,
      "velocity": 127,
      "chip": "ym2612"
    },
    {
      "channel": 3,
      "note": 63,
      "start": 1.6246,
      "duration": 0.0525,
      "velocity": 107,
      "chip": "ym2612"
    },
    {
      "channel": 5,
      "note": 59,
      "start": 1.6264,
      "duration": 0.051,
      "velocity": 127,
      "chip": "ym2612"
    },
    {
      "channel": 2,
      "note": 71,
      "start": 1.7093,
      "duration": 0.0094,
      "velocity": 127,
      "chip": "ym2612"
    },
    {
      "channel": 3,
      "note": 51,
      "start": 1.711,
      "duration": 0.1322,
      "velocity": 107,
      "chip": "ym2612"
    },
    {
      "channel": 5,
      "note": 59,
      "start": 1.7129,
      "duration": 0.1306,
      "velocity": 127,
      "chip": "ym2612"
    },
    {
      "channel": 3,
      "note": 63,
      "start": 1.8723,
      "duration": 0.0539,
      "velocity": 107,
      "chip": "ym2612"
    },
    {
      "channel": 5,
      "note": 59,
      "start": 1.874,
      "duration": 0.0525,
      "velocity": 127,
      "chip": "ym2612"
    },
    {
      "channel": 3,
      "note": 63,
      "start": 1.9553,
      "duration": 0.054,
      "velocity": 107,
      "chip": "ym2612"
    },
    {
      "channel": 5,
      "note": 59,
      "start": 1.9571,
      "duration": 0.0525,
      "velocity": 127,
      "chip": "ym2612"
    },
    {
      "channel": 2,
      "note": 61,
      "start": 2.0416,
      "duration": 0.01,
      "velocity": 127,
      "chip": "ym2612"
    },
    {
      "channel": 3,
      "note": 51,
      "start": 2.0434,
      "duration": 0.132,
      "velocity": 107,
      "chip": "ym2612"
    },
    {
      "channel": 5,
      "note": 59,
      "start": 2.0453,
      "duration": 0.1305,
      "velocity": 127,
      "chip": "ym2612"
    },
    {
      "channel": 2,
      "note": 61,
      "start": 2.2044,
      "duration": 0.0125,
      "velocity": 127,
      "chip": "ym2612"
    },
    {
      "channel": 3,
      "note": 63,
      "start": 2.2061,
      "duration": 0.0524,
      "velocity": 107,
      "chip": "ym2612"
    },
    {
      "channel": 5,
      "note": 59,
      "start": 2.2078,
      "duration": 0.051,
      "velocity": 127,
      "chip": "ym2612"
    },
    {
      "channel": 2,
      "note": 61,
      "start": 2.2875,
      "duration": 0.0126,
      "velocity": 127,
      "chip": "ym2612"
    },
    {
      "channel": 3,
      "note": 63,
      "start": 2.2891,
      "duration": 0.0525,
      "velocity": 107,
      "chip": "ym2612"
    },
    {
      "channel": 5,
      "note": 59,
      "start": 2.2909,
      "duration": 0.051,
      "velocity": 127,
      "chip": "ym2612"
    },
    {
      "channel": 2,
      "note": 71,
      "start": 2.3738,
      "duration": 0.0094,
      "velocity": 127,
      "chip": "ym2612"
    },
    {
      "channel": 3,
      "note": 51,
      "start": 2.3755,
      "duration": 0.1323,
      "velocity": 107,
      "chip": "ym2612"
    },
    {
      "channel": 5,
      "note": 59,
      "start": 2.3774,
      "duration": 0.1307,
      "velocity": 127,
      "chip": "ym2612"
    },
    {
      "channel": 3,
      "note": 63,
      "start": 2.5368,
      "duration": 0.0539,
      "velocity": 107,
      "chip": "ym2612"
    },
    {
      "channel": 5,
      "note": 59,
      "start": 2.5385,
      "duration": 0.0525,
      "velocity": 127,
      "chip": "ym2612"
    },
    {
      "channel": 3,
      "note": 63,
      "start": 2.6198,
      "duration": 0.0541,
      "velocity": 107,
      "chip": "ym2612"
    },
    {
      "channel": 5,
      "note": 59,
      "start": 2.6216,
      "duration": 0.0527,
      "velocity": 127,
      "chip": "ym2612"
    },
    {
      "channel": 1,
      "note": 68,
      "start": 2.7038,
      "duration": 0.4816,
      "velocity": 94,
      "chip": "ym2612"
    },
    {
      "channel": 2,
      "note": 61,
      "start": 2.7091,
      "duration": 0.0207,
      "velocity": 127,
      "chip": "ym2612"
    },
    {
      "channel": 3,
      "note": 51,
      "start": 2.7109,
      "duration": 0.1429,
      "velocity": 107,
      "chip": "ym2612"
    },
    {
      "channel": 4,
      "note": 65,
      "start": 2.7125,
      "duration": 0.4739,
      "velocity": 94,
      "chip": "ym2612"
    },
    {
      "channel": 5,
      "note": 59,
      "start": 2.7143,
      "duration": 0.1398,
      "velocity": 127,
      "chip": "ym2612"
    },
    {
      "channel": 2,
      "note": 61,
      "start": 2.8829,
      "duration": 0.0125,
      "velocity": 127,
      "chip": "ym2612"
    },
    {
      "channel": 3,
      "note": 63,
      "start": 2.8844,
      "duration": 0.0524,
      "velocity": 107,
      "chip": "ym2612"
    },
    {
      "channel": 5,
      "note": 59,
      "start": 2.8862,
      "duration": 0.051,
      "velocity": 127,
      "chip": "ym2612"
    },
    {
      "channel": 2,
      "note": 61,
      "start": 2.9659,
      "duration": 0.0125,
      "velocity": 127,
      "chip": "ym2612"
    },
    {
      "channel": 3,
      "note": 63,
      "start": 2.9675,
      "duration": 0.0524,
      "velocity": 107,
      "chip": "ym2612"
    },
    {
      "channel": 5,
      "note": 59,
      "start": 2.9693,
      "duration": 0.051,
      "velocity": 127,
      "chip": "ym2612"
    },
    {
      "channel": 2,
      "note": 71,
      "start": 3.0521,
      "duration": 0.0093,
      "velocity": 127,
      "chip": "ym2612"
    },
    {
      "channel": 3,
      "note": 51,
      "start": 3.0539,
      "duration": 0.1322,
      "velocity": 107,
      "chip": "ym2612"
    },
    {
      "channel": 5,
      "note": 59,
      "start": 3.0558,
      "duration": 0.1308,
      "velocity": 127,
      "chip": "ym2612"
    },
    {
      "channel": 1,
      "note": 66,
      "start": 3.2145,
      "duration": 0.4832,
      "velocity": 94,
      "chip": "ym2612"
    },
    {
      "channel": 3,
      "note": 63,
      "start": 3.2167,
      "duration": 0.0524,
      "velocity": 107,
      "chip": "ym2612"
    },
    {
      "channel": 4,
      "note": 63,
      "start": 3.2183,
      "duration": 0.4803,
      "velocity": 94,
      "chip": "ym2612"
    },
    {
      "channel": 5,
      "note": 59,
      "start": 3.2199,
      "duration": 0.0494,
      "velocity": 127,
      "chip": "ym2612"
    },
    {
      "channel": 3,
      "note": 63,
      "start": 3.2982,
      "duration": 0.054,
      "velocity": 107,
      "chip": "ym2612"
    },
    {
      "channel": 5,
      "note": 59,
      "start": 3.3,
      "duration": 0.0525,
      "velocity": 127,
      "chip": "ym2612"
    },
    {
      "channel": 2,
      "note": 61,
      "start": 3.3845,
      "duration": 0.023,
      "velocity": 127,
      "chip": "ym2612"
    },
    {
      "channel": 3,
      "note": 51,
      "start": 3.3863,
      "duration": 0.1459,
      "velocity": 107,
      "chip": "ym2612"
    },
    {
      "channel": 5,
      "note": 61,
      "start": 3.3912,
      "duration": 0.2249,
      "velocity": 127,
      "chip": "ym2612"
    },
    {
      "channel": 2,
      "note": 61,
      "start": 3.4781,
      "duration": 0.0125,
      "velocity": 127,
      "chip": "ym2612"
    },
    {
      "channel": 2,
      "note": 61,
      "start": 3.5612,
      "duration": 0.0125,
      "velocity": 127,
      "chip": "ym2612"
    },
    {
      "channel": 3,
      "note": 63,
      "start": 3.5627,
      "duration": 0.0531,
      "velocity": 107,
      "chip": "ym2612"
    },
    {
      "channel": 3,
      "note": 63,
      "start": 3.6443,
      "duration": 0.0541,
      "velocity": 107,
      "chip": "ym2612"
    },
    {
      "channel": 5,
      "note": 61,
      "start": 3.646,
      "duration": 0.2187,
      "velocity": 127,
      "chip": "ym2612"
    },
    {
      "channel": 1,
      "note": 65,
      "start": 3.7267,
      "duration": 0.3033,
      "velocity": 94,
      "chip": "ym2612"
    },
    {
      "channel": 2,
      "note": 73,
      "start": 3.7319,
      "duration": 0.0079,
      "velocity": 127,
      "chip": "ym2612"
    },
    {
      "channel": 3,
      "note": 51,
      "start": 3.7337,
      "duration": 0.1307,
      "velocity": 107,
      "chip": "ym2612"
    },
    {
      "channel": 4,
      "note": 61,
      "start": 3.7353,
      "duration": 0.2956,
      "velocity": 94,
      "chip": "ym2612"
    },
    {
      "channel": 2,
      "note": 73,
      "start": 3.8934,
      "duration": 0.0126,
      "velocity": 127,
      "chip": "ym2612"
    },
    {
      "channel": 3,
      "note": 63,
      "start": 3.895,
      "duration": 0.0525,
      "velocity": 107,
      "chip": "ym2612"
    },
    {
      "channel": 5,
      "note": 61,
      "start": 3.8968,
      "duration": 0.1344,
      "velocity": 127,
      "chip": "ym2612"
    },
    {
      "channel": 3,
      "note": 63,
      "start": 3.9766,
      "duration": 0.0541,
      "velocity": 107,
      "chip": "ym2612"
    },
    {
      "channel": 0,
      "note": 78,
      "start": 4.0598,
      "duration": 1.9912,
      "velocity": 101,
      "chip": "ym2612"
    },
    {
      "channel": 1,
      "note": 61,
      "start": 4.0614,
      "duration": 2.6682,
      "velocity": 94,
      "chip": "ym2612"
    },
    {
      "channel": 2,
      "note": 61,
      "start": 4.0669,
      "duration": 0.0195,
      "velocity": 127,
      "chip": "ym2612"
    },
    {
      "channel": 3,
      "note": 46,
      "start": 4.0688,
      "duration": 0.1418,
      "velocity": 107,
      "chip": "ym2612"
    },
    {
      "channel": 4,
      "note": 58,
      "start": 4.0704,
      "duration": 2.6602,
      "velocity": 94,
      "chip": "ym2612"
    },
    {
      "channel": 5,
      "note": 59,
      "start": 4.0755,
      "duration": 0.1354,
      "velocity": 127,
      "chip": "ym2612"
    },
    {
      "channel": 2,
      "note": 61,
      "start": 4.2395,
      "duration": 0.0125,
      "velocity": 127,
      "chip": "ym2612"
    },
    {
      "channel": 3,
      "note": 58,
      "start": 4.2411,
      "duration": 0.0525,
      "velocity": 107,
      "chip": "ym2612"
    },
    {
      "channel": 5,
      "note": 59,
      "start": 4.2429,
      "duration": 0.051,
      "velocity": 127,
      "chip": "ym2612"
    },
    {
      "channel": 2,
      "note": 61,
      "start": 4.3226,
      "duration": 0.0125,
      "velocity": 127,
      "chip": "ym2612"
    },
    {
      "channel": 3,
      "note": 58,
      "start": 4.3242,
      "duration": 0.0525,
      "velocity": 107,
      "chip": "ym2612"
    },
    {
      "channel": 5,
      "note": 59,
      "start": 4.3259,
      "duration": 0.0511,
      "velocity": 127,
      "chip": "ym2612"
    },
    {
      "channel": 2,
      "note": 71,
      "start": 4.4088,
      "duration": 0.0093,
      "velocity": 127,
      "chip": "ym2612"
    },
    {
      "channel": 3,
      "note": 46,
      "start": 4.4106,
      "duration": 0.1322,
      "velocity": 107,
      "chip": "ym2612"
    },
    {
      "channel": 5,
      "note": 59,
      "start": 4.4124,
      "duration": 0.1306,
      "velocity": 127,
      "chip": "ym2612"
    },
    {
      "channel": 3,
      "note": 58,
      "start": 4.5719,
      "duration": 0.0539,
      "velocity": 107,
      "chip": "ym2612"
    },
    {
      "channel": 5,
      "note": 59,
      "start": 4.5736,
      "duration": 0.0525,
      "velocity": 127,
      "chip": "ym2612"
    },
    {
      "channel": 3,
      "note": 58,
      "start": 4.6549,
      "duration": 0.054,
      "velocity": 107,
      "chip": "ym2612"
    },
    {
      "channel": 5,
      "note": 59,
      "start": 4.6566,
      "duration": 0.0525,
      "velocity": 127,
      "chip": "ym2612"
    },
    {
      "channel": 2,
      "note": 61,
      "start": 4.7415,
      "duration": 0.009,
      "velocity": 127,
      "chip": "ym2612"
    },
    {
      "channel": 3,
      "note": 46,
      "start": 4.7432,
      "duration": 0.1318,
      "velocity": 107,
      "chip": "ym2612"
    },
    {
      "channel": 5,
      "note": 59,
      "start": 4.7451,
      "duration": 0.1302,
      "velocity": 127,
      "chip": "ym2612"
    },
    {
      "channel": 2,
      "note": 61,
      "start": 4.904,
      "duration": 0.0126,
      "velocity": 127,
      "chip": "ym2612"
    },
    {
      "channel": 3,
      "note": 58,
      "start": 4.9056,
      "duration": 0.0528,
      "velocity": 107,
      "chip": "ym2612"
    },
    {
      "channel": 5,
      "note": 59,
      "start": 4.9074,
      "duration": 0.0513,
      "velocity": 127,
      "chip": "ym2612"
    },
    {
      "channel": 2,
      "note": 61,
      "start": 4.9871,
      "duration": 0.0126,
      "velocity": 127,
      "chip": "ym2612"
    },
    {
      "channel": 3,
      "note": 58,
      "start": 4.9886,
      "duration": 0.0525,
      "velocity": 107,
      "chip": "ym2612"
    },
    {
      "channel": 5,
      "note": 59,
      "start": 4.9904,
      "duration": 0.051,
      "velocity": 127,
      "chip": "ym2612"
    },
    {
      "channel": 2,
      "note": 71,
      "start": 5.0733,
      "duration": 0.0094,
      "velocity": 127,
      "chip": "ym2612"
    },
    {
      "channel": 3,
      "note": 46,
      "start": 5.0751,
      "duration": 0.1322,
      "velocity": 107,
      "chip": "ym2612"
    },
    {
      "channel": 5,
      "note": 59,
      "start": 5.0769,
      "duration": 0.1307,
      "velocity": 127,
      "chip": "ym2612"
    },
    {
      "channel": 3,
      "note": 58,
      "start": 5.2363,
      "duration": 0.0539,
      "velocity": 107,
      "chip": "ym2612"
    },
    {
      "channel": 5,
      "note": 59,
      "start": 5.2381,
      "duration": 0.0525,
      "velocity": 127,
      "chip": "ym2612"
    },
    {
      "channel": 3,
      "note": 58,
      "start": 5.3194,
      "duration": 0.054,
      "velocity": 107,
      "chip": "ym2612"
    },
    {
      "channel": 5,
      "note": 59,
      "start": 5.3212,
      "duration": 0.0525,
      "velocity": 127,
      "chip": "ym2612"
    },
    {
      "channel": 2,
      "note": 61,
      "start": 5.4092,
      "duration": 0.02,
      "velocity": 127,
      "chip": "ym2612"
    },
    {
      "channel": 3,
      "note": 46,
      "start": 5.411,
      "duration": 0.1424,
      "velocity": 107,
      "chip": "ym2612"
    },
    {
      "channel": 5,
      "note": 59,
      "start": 5.4143,
      "duration": 0.1394,
      "velocity": 127,
      "chip": "ym2612"
    },
    {
      "channel": 2,
      "note": 61,
      "start": 5.5824,
      "duration": 0.0125,
      "velocity": 127,
      "chip": "ym2612"
    },
    {
      "channel": 3,
      "note": 58,
      "start": 5.5841,
      "duration": 0.0524,
      "velocity": 107,
      "chip": "ym2612"
    },
    {
      "channel": 5,
      "note": 59,
      "start": 5.5859,
      "duration": 0.0509,
      "velocity": 127,
      "chip": "ym2612"
    },
    {
      "channel": 2,
      "note": 61,
      "start": 5.6655,
      "duration": 0.0125,
      "velocity": 127,
      "chip": "ym2612"
    },
    {
      "channel": 3,
      "note": 58,
      "start": 5.6671,
      "duration": 0.0524,
      "velocity": 107,
      "chip": "ym2612"
    },
    {
      "channel": 5,
      "note": 59,
      "start": 5.6689,
      "duration": 0.0509,
      "velocity": 127,
      "chip": "ym2612"
    },
    {
      "channel": 2,
      "note": 71,
      "start": 5.7517,
      "duration": 0.0094,
      "velocity": 127,
      "chip": "ym2612"
    },
    {
      "channel": 3,
      "note": 46,
      "start": 5.7535,
      "duration": 0.1321,
      "velocity": 107,
      "chip": "ym2612"
    },
    {
      "channel": 5,
      "note": 59,
      "start": 5.7553,
      "duration": 0.1306,
      "velocity": 127,
      "chip": "ym2612"
    },
    {
      "channel": 3,
      "note": 58,
      "start": 5.9147,
      "duration": 0.0539,
      "velocity": 107,
      "chip": "ym2612"
    },
    {
      "channel": 5,
      "note": 59,
      "start": 5.9165,
      "duration": 0.0525,
      "velocity": 127,
      "chip": "ym2612"
    },
    {
      "channel": 3,
      "note": 58,
      "start": 5.9977,
      "duration": 0.0541,
      "velocity": 107,
      "chip": "ym2612"
    },
    {
      "channel": 5,
      "note": 59,
      "start": 5.9995,
      "duration": 0.0526,
      "velocity": 127,
      "chip": "ym2612"
    },
    {
      "channel": 0,
      "note": 70,
      "start": 6.0802,
      "duration": 0.3169,
      "velocity": 101,
      "chip": "ym2612"
    },
    {
      "channel": 2,
      "note": 61,
      "start": 6.0857,
      "duration": 0.0218,
      "velocity": 127,
      "chip": "ym2612"
    },
    {
      "channel": 3,
      "note": 46,
      "start": 6.0875,
      "duration": 0.1443,
      "velocity": 107,
      "chip": "ym2612"
    },
    {
      "channel": 5,
      "note": 61,
      "start": 6.0925,
      "duration": 0.2226,
      "velocity": 127,
      "chip": "ym2612"
    },
    {
      "channel": 2,
      "note": 61,
      "start": 6.1777,
      "duration": 0.0125,
      "velocity": 127,
      "chip": "ym2612"
    },
    {
      "channel": 2,
      "note": 61,
      "start": 6.2607,
      "duration": 0.0125,
      "velocity": 127,
      "chip": "ym2612"
    },
    {
      "channel": 3,
      "note": 58,
      "start": 6.2624,
      "duration": 0.0524,
      "velocity": 107,
      "chip": "ym2612"
    },
    {
      "channel": 3,
      "note": 58,
      "start": 6.3439,
      "duration": 0.0541,
      "velocity": 107,
      "chip": "ym2612"
    },
    {
      "channel": 5,
      "note": 61,
      "start": 6.3456,
      "duration": 0.2187,
      "velocity": 127,
      "chip": "ym2612"
    },
    {
      "channel": 0,
      "note": 75,
      "start": 6.4263,
      "duration": 0.3031,
      "velocity": 101,
      "chip": "ym2612"
    },
    {
      "channel": 2,
      "note": 78,
      "start": 6.4285,
      "duration": 0.0113,
      "velocity": 127,
      "chip": "ym2612"
    },
    {
      "channel": 3,
      "note": 46,
      "start": 6.4302,
      "duration": 0.1338,
      "velocity": 107,
      "chip": "ym2612"
    },
    {
      "channel": 2,
      "note": 76,
      "start": 6.51,
      "duration": 0.0127,
      "velocity": 127,
      "chip": "ym2612"
    },
    {
      "channel": 2,
      "note": 74,
      "start": 6.593,
      "duration": 0.0125,
      "velocity": 127,
      "chip": "ym2612"
    },
    {
      "channel": 3,
      "note": 58,
      "start": 6.5946,
      "duration": 0.0524,
      "velocity": 107,
      "chip": "ym2612"
    },
    {
      "channel": 5,
      "note": 61,
      "start": 6.5963,
      "duration": 0.1344,
      "velocity": 127,
      "chip": "ym2612"
    },
    {
      "channel": 2,
      "note": 73,
      "start": 6.6761,
      "duration": 0.0125,
      "velocity": 127,
      "chip": "ym2612"
    },
    {
      "channel": 3,
      "note": 58,
      "start": 6.6777,
      "duration": 0.0527,
      "velocity": 107,
      "chip": "ym2612"
    },
    {
      "channel": 0,
      "note": 78,
      "start": 6.7589,
      "duration": 1.3141,
      "velocity": 101,
      "chip": "ym2612"
    },
    {
      "channel": 1,
      "note": 66,
      "start": 6.7608,
      "duration": 1.3124,
      "velocity": 94,
      "chip": "ym2612"
    },
    {
      "channel": 2,
      "note": 61,
      "start": 6.7665,
      "duration": 0.019,
      "velocity": 127,
      "chip": "ym2612"
    },
    {
      "channel": 3,
      "note": 51,
      "start": 6.7687,
      "duration": 0.1414,
      "velocity": 107,
      "chip": "ym2612"
    },
    {
      "channel": 4,
      "note": 63,
      "start": 6.7706,
      "duration": 1.3036,
      "velocity": 94,
      "chip": "ym2612"
    },
    {
      "channel": 5,
      "note": 59,
      "start": 6.7761,
      "duration": 0.1343,
      "velocity": 127,
      "chip": "ym2612"
    },
    {
      "channel": 2,
      "note": 61,
      "start": 6.939,
      "duration": 0.0126,
      "velocity": 127,
      "chip": "ym2612"
    },
    {
      "channel": 3,
      "note": 63,
      "start": 6.9407,
      "duration": 0.0524,
      "velocity": 107,
      "chip": "ym2612"
    },
    {
      "channel": 5,
      "note": 59,
      "start": 6.9425,
      "duration": 0.051,
      "velocity": 127,
      "chip": "ym2612"
    },
    {
      "channel": 2,
      "note": 61,
      "start": 7.0222,
      "duration": 0.0124,
      "velocity": 127,
      "chip": "ym2612"
    },
    {
      "channel": 3,
      "note": 63,
      "start": 7.0238,
      "duration": 0.0525,
      "velocity": 107,
      "chip": "ym2612"
    },
    {
      "channel": 5,
      "note": 59,
      "start": 7.0255,
      "duration": 0.0511,
      "velocity": 127,
      "chip": "ym2612"
    },
    {
      "channel": 2,
      "note": 71,
      "start": 7.1084,
      "duration": 0.0093,
      "velocity": 127,
      "chip": "ym2612"
    },
    {
      "channel": 3,
      "note": 51,
      "start": 7.1101,
      "duration": 0.1322,
      "velocity": 107,
      "chip": "ym2612"
    },
    {
      "channel": 5,
      "note": 59,
      "start": 7.112,
      "duration": 0.1306,
      "velocity": 127,
      "chip": "ym2612"
    },
    {
      "channel": 3,
      "note": 63,
      "start": 7.2714,
      "duration": 0.0539,
      "velocity": 107,
      "chip": "ym2612"
    },
    {
      "channel": 5,
      "note": 59,
      "start": 7.2731,
      "duration": 0.0525,
      "velocity": 127,
      "chip": "ym2612"
    },
    {
      "channel": 3,
      "note": 63,
      "start": 7.3544,
      "duration": 0.0546,
      "velocity": 107,
      "chip": "ym2612"
    },
    {
      "channel": 5,
      "note": 59,
      "start": 7.3561,
      "duration": 0.0531,
      "velocity": 127,
      "chip": "ym2612"
    },
    {
      "channel": 2,
      "note": 61,
      "start": 7.4407,
      "duration": 0.0092,
      "velocity": 127,
      "chip": "ym2612"
    },
    {
      "channel": 3,
      "note": 51,
      "start": 7.4425,
      "duration": 0.132,
      "velocity": 107,
      "chip": "ym2612"
    },
    {
      "channel": 5,
      "note": 59,
      "start": 7.4444,
      "duration": 0.1305,
      "velocity": 127,
      "chip": "ym2612"
    },
    {
      "channel": 2,
      "note": 61,
      "start": 7.6035,
      "duration": 0.0126,
      "velocity": 127,
      "chip": "ym2612"
    },
    {
      "channel": 3,
      "note": 63,
      "start": 7.6052,
      "duration": 0.0524,
      "velocity": 107,
      "chip": "ym2612"
    },
    {
      "channel": 5,
      "note": 59,
      "start": 7.6069,
      "duration": 0.051,
      "velocity": 127,
      "chip": "ym2612"
    },
    {
      "channel": 2,
      "note": 61,
      "start": 7.6866,
      "duration": 0.0126,
      "velocity": 127,
      "chip": "ym2612"
    },
    {
      "channel": 3,
      "note": 63,
      "start": 7.6882,
      "duration": 0.0525,
      "velocity": 107,
      "chip": "ym2612"
    },
    {
      "channel": 5,
      "note": 59,
      "start": 7.6899,
      "duration": 0.0511,
      "velocity": 127,
      "chip": "ym2612"
    },
    {
      "channel": 2,
      "note": 71,
      "start": 7.7729,
      "duration": 0.0094,
      "velocity": 127,
      "chip": "ym2612"
    },
    {
      "channel": 3,
      "note": 51,
      "start": 7.7746,
      "duration": 0.1323,
      "velocity": 107,
      "chip": "ym2612"
    },
    {
      "channel": 5,
      "note": 59,
      "start": 7.7765,
      "duration": 0.1306,
      "velocity": 127,
      "chip": "ym2612"
    },
    {
      "channel": 3,
      "note": 63,
      "start": 7.9359,
      "duration": 0.0539,
      "velocity": 107,
      "chip": "ym2612"
    },
    {
      "channel": 5,
      "note": 59,
      "start": 7.9377,
      "duration": 0.0525,
      "velocity": 127,
      "chip": "ym2612"
    },
    {
      "channel": 3,
      "note": 63,
      "start": 8.0189,
      "duration": 0.055,
      "velocity": 107,
      "chip": "ym2612"
    },
    {
      "channel": 5,
      "note": 59,
      "start": 8.0207,
      "duration": 0.0537,
      "velocity": 127,
      "chip": "ym2612"
    },
    {
      "channel": 0,
      "note": 77,
      "start": 8.1014,
      "duration": 0.483,
      "velocity": 101,
      "chip": "ym2612"
    },
    {
      "channel": 1,
      "note": 68,
      "start": 8.103,
      "duration": 0.4816,
      "velocity": 94,
      "chip": "ym2612"
    },
    {
      "channel": 2,
      "note": 61,
      "start": 8.1084,
      "duration": 0.02,
      "velocity": 127,
      "chip": "ym2612"
    },
    {
      "channel": 3,
      "note": 51,
      "start": 8.1101,
      "duration": 0.1428,
      "velocity": 107,
      "chip": "ym2612"
    },
    {
      "channel": 4,
      "note": 65,
      "start": 8.1117,
      "duration": 0.4739,
      "velocity": 94,
      "chip": "ym2612"
    },
    {
      "channel": 5,
      "note": 59,
      "start": 8.1135,
      "duration": 0.1398,
      "velocity": 127,
      "chip": "ym2612"
    },
    {
      "channel": 2,
      "note": 61,
      "start": 8.2819,
      "duration": 0.0125,
      "velocity": 127,
      "chip": "ym2612"
    },
    {
      "channel": 3,
      "note": 63,
      "start": 8.2836,
      "duration": 0.0523,
      "velocity": 107,
      "chip": "ym2612"
    },
    {
      "channel": 5,
      "note": 59,
      "start": 8.2853,
      "duration": 0.051,
      "velocity": 127,
      "chip": "ym2612"
    },
    {
      "channel": 2,
      "note": 61,
      "start": 8.365,
      "duration": 0.0125,
      "velocity": 127,
      "chip": "ym2612"
    },
    {
      "channel": 3,
      "note": 63,
      "start": 8.3667,
      "duration": 0.0524,
      "velocity": 107,
      "chip": "ym2612"
    },
    {
      "channel": 5,
      "note": 59,
      "start": 8.3684,
      "duration": 0.051,
      "velocity": 127,
      "chip": "ym2612"
    },
    {
      "channel": 2,
      "note": 71,
      "start": 8.4512,
      "duration": 0.0093,
      "velocity": 127,
      "chip": "ym2612"
    },
    {
      "channel": 3,
      "note": 51,
      "start": 8.453,
      "duration": 0.1323,
      "velocity": 107,
      "chip": "ym2612"
    },
    {
      "channel": 5,
      "note": 59,
      "start": 8.4549,
      "duration": 0.1309,
      "velocity": 127,
      "chip": "ym2612"
    },
    {
      "channel": 0,
      "note": 78,
      "start": 8.6136,
      "duration": 0.4831,
      "velocity": 101,
      "chip": "ym2612"
    },
    {
      "channel": 1,
      "note": 66,
      "start": 8.6152,
      "duration": 0.4817,
      "velocity": 94,
      "chip": "ym2612"
    },
    {
      "channel": 3,
      "note": 63,
      "start": 8.6174,
      "duration": 0.0508,
      "velocity": 107,
      "chip": "ym2612"
    },
    {
      "channel": 4,
      "note": 63,
      "start": 8.619,
      "duration": 0.4788,
      "velocity": 94,
      "chip": "ym2612"
    },
    {
      "channel": 5,
      "note": 59,
      "start": 8.6206,
      "duration": 0.0479,
      "velocity": 127,
      "chip": "ym2612"
    },
    {
      "channel": 3,
      "note": 63,
      "start": 8.6974,
      "duration": 0.0543,
      "velocity": 107,
      "chip": "ym2612"
    },
    {
      "channel": 5,
      "note": 59,
      "start": 8.6991,
      "duration": 0.0529,
      "velocity": 127,
      "chip": "ym2612"
    },
    {
      "channel": 2,
      "note": 61,
      "start": 8.7836,
      "duration": 0.0231,
      "velocity": 127,
      "chip": "ym2612"
    },
    {
      "channel": 3,
      "note": 51,
      "start": 8.7854,
      "duration": 0.1459,
      "velocity": 107,
      "chip": "ym2612"
    },
    {
      "channel": 5,
      "note": 61,
      "start": 8.7904,
      "duration": 0.2243,
      "velocity": 127,
      "chip": "ym2612"
    },
    {
      "channel": 2,
      "note": 61,
      "start": 8.8773,
      "duration": 0.0125,
      "velocity": 127,
      "chip": "ym2612"
    },
    {
      "channel": 2,
      "note": 61,
      "start": 8.9603,
      "duration": 0.0129,
      "velocity": 127,
      "chip": "ym2612"
    },
    {
      "channel": 3,
      "note": 63,
      "start": 8.9619,
      "duration": 0.0525,
      "velocity": 107,
      "chip": "ym2612"
    },
    {
      "channel": 3,
      "note": 63,
      "start": 9.0434,
      "duration": 0.0541,
      "velocity": 107,
      "chip": "ym2612"
    },
    {
      "channel": 5,
      "note": 61,
      "start": 9.0451,
      "duration": 0.2326,
      "velocity": 127,
      "chip": "ym2612"
    },
    {
      "channel": 0,
      "note": 80,
      "start": 9.1258,
      "duration": 0.317,
      "velocity": 101,
      "chip": "ym2612"
    },
    {
      "channel": 1,
      "note": 65,
      "start": 9.1274,
      "duration": 0.3155,
      "velocity": 94,
      "chip": "ym2612"
    },
    {
      "channel": 2,
      "note": 73,
      "start": 9.1327,
      "duration": 0.02,
      "velocity": 127,
      "chip": "ym2612"
    },
    {
      "channel": 3,
      "note": 51,
      "start": 9.1345,
      "duration": 0.1429,
      "velocity": 107,
      "chip": "ym2612"
    },
    {
      "channel": 4,
      "note": 61,
      "start": 9.1361,
      "duration": 0.3078,
      "velocity": 94,
      "chip": "ym2612"
    },
    {
      "channel": 2,
      "note": 73,
      "start": 9.3063,
      "duration": 0.0126,
      "velocity": 127,
      "chip": "ym2612"
    },
    {
      "channel": 3,
      "note": 63,
      "start": 9.308,
      "duration": 0.0525,
      "velocity": 107,
      "chip": "ym2612"
    },
    {
      "channel": 5,
      "note": 61,
      "start": 9.3097,
      "duration": 0.1344,
      "velocity": 127,
      "chip": "ym2612"
    },
    {
      "channel": 3,
      "note": 63,
      "start": 9.3895,
      "duration": 0.0542,
      "velocity": 107,
      "chip": "ym2612"
    },
    {
      "channel": 0,
      "note": 80,
      "start": 9.4721,
      "duration": 1.3273,
      "velocity": 101,
      "chip": "ym2612"
    },
    {
      "channel": 1,
      "note": 61,
      "start": 9.4737,
      "duration": 0.4814,
      "velocity": 94,
      "chip": "ym2612"
    },
    {
      "channel": 2,
      "note": 61,
      "start": 9.4791,
      "duration": 0.0203,
      "velocity": 127,
      "chip": "ym2612"
    },
    {
      "channel": 3,
      "note": 46,
      "start": 9.481,
      "duration": 0.143,
      "velocity": 107,
      "chip": "ym2612"
    },
    {
      "channel": 4,
      "note": 58,
      "start": 9.4827,
      "duration": 0.4733,
      "velocity": 94,
      "chip": "ym2612"
    },
    {
      "channel": 5,
      "note": 59,
      "start": 9.4878,
      "duration": 0.1365,
      "velocity": 127,
      "chip": "ym2612"
    },
    {
      "channel": 2,
      "note": 61,
      "start": 9.6529,
      "duration": 0.0126,
      "velocity": 127,
      "chip": "ym2612"
    },
    {
      "channel": 3,
      "note": 58,
      "start": 9.6546,
      "duration": 0.0525,
      "velocity": 107,
      "chip": "ym2612"
    },
    {
      "channel": 5,
      "note": 59,
      "start": 9.6563,
      "duration": 0.051,
      "velocity": 127,
      "chip": "ym2612"
    },
    {
      "channel": 2,
      "note": 61,
      "start": 9.7356,
      "duration": 0.0124,
      "velocity": 127,
      "chip": "ym2612"
    },
    {
      "channel": 3,
      "note": 58,
      "start": 9.7372,
      "duration": 0.0525,
      "velocity": 107,
      "chip": "ym2612"
    },
    {
      "channel": 5,
      "note": 59,
      "start": 9.7389,
      "duration": 0.0511,
      "velocity": 127,
      "chip": "ym2612"
    },
    {
      "channel": 2,
      "note": 71,
      "start": 9.8218,
      "duration": 0.0093,
      "velocity": 127,
      "chip": "ym2612"
    },
    {
      "channel": 3,
      "note": 46,
      "start": 9.8235,
      "duration": 0.1323,
      "velocity": 107,
      "chip": "ym2612"
    },
    {
      "channel": 5,
      "note": 59,
      "start": 9.8254,
      "duration": 0.1308,
      "velocity": 127,
      "chip": "ym2612"
    },
    {
      "channel": 1,
      "note": 68,
      "start": 9.9842,
      "duration": 0.4693,
      "velocity": 94,
      "chip": "ym2612"
    },
    {
      "channel": 3,
      "note": 58,
      "start": 9.9863,
      "duration": 0.0524,
      "velocity": 107,
      "chip": "ym2612"
    },
    {
      "channel": 4,
      "note": 65,
      "start": 9.9879,
      "duration": 0.4665,
      "velocity": 94,
      "chip": "ym2612"
    },
    {
      "channel": 5,
      "note": 59,
      "start": 9.9896,
      "duration": 0.0495,
      "velocity": 127,
      "chip": "ym2612"
    },
    {
      "channel": 3,
      "note": 58,
      "start": 10.0679,
      "duration": 0.0539,
      "velocity": 107,
      "chip": "ym2612"
    },
    {
      "channel": 5,
      "note": 59,
      "start": 10.0697,
      "duration": 0.0524,
      "velocity": 127,
      "chip": "ym2612"
    },
    {
      "channel": 2,
      "note": 61,
      "start": 10.1542,
      "duration": 0.0092,
      "velocity": 127,
      "chip": "ym2612"
    },
    {
      "channel": 3,
      "note": 46,
      "start": 10.1559,
      "duration": 0.132,
      "velocity": 107,
      "chip": "ym2612"
    },
    {
      "channel": 5,
      "note": 59,
      "start": 10.1578,
      "duration": 0.1304,
      "velocity": 127,
      "chip": "ym2612"
    },
    {
      "channel": 2,
      "note": 61,
      "start": 10.3172,
      "duration": 0.0123,
      "velocity": 127,
      "chip": "ym2612"
    },
    {
      "channel": 3,
      "note": 58,
      "start": 10.3188,
      "duration": 0.0522,
      "velocity": 107,
      "chip": "ym2612"
    },
    {
      "channel": 5,
      "note": 59,
      "start": 10.3206,
      "duration": 0.0507,
      "velocity": 127,
      "chip": "ym2612"
    },
    {
      "channel": 2,
      "note": 61,
      "start": 10.4,
      "duration": 0.0125,
      "velocity": 127,
      "chip": "ym2612"
    },
    {
      "channel": 3,
      "note": 58,
      "start": 10.4017,
      "duration": 0.0525,
      "velocity": 107,
      "chip": "ym2612"
    },
    {
      "channel": 5,
      "note": 59,
      "start": 10.4034,
      "duration": 0.0512,
      "velocity": 127,
      "chip": "ym2612"
    },
    {
      "channel": 1,
      "note": 66,
      "start": 10.4826,
      "duration": 0.3171,
      "velocity": 94,
      "chip": "ym2612"
    },
    {
      "channel": 2,
      "note": 71,
      "start": 10.4878,
      "duration": 0.0217,
      "velocity": 127,
      "chip": "ym2612"
    },
    {
      "channel": 3,
      "note": 46,
      "start": 10.4896,
      "duration": 0.1445,
      "velocity": 107,
      "chip": "ym2612"
    },
    {
      "channel": 4,
      "note": 63,
      "start": 10.4912,
      "duration": 0.3094,
      "velocity": 94,
      "chip": "ym2612"
    },
    {
      "channel": 5,
      "note": 59,
      "start": 10.493,
      "duration": 0.1414,
      "velocity": 127,
      "chip": "ym2612"
    },
    {
      "channel": 3,
      "note": 58,
      "start": 10.6632,
      "duration": 0.0539,
      "velocity": 107,
      "chip": "ym2612"
    },
    {
      "channel": 5,
      "note": 59,
      "start": 10.6649,
      "duration": 0.0525,
      "velocity": 127,
      "chip": "ym2612"
    },
    {
      "channel": 3,
      "note": 58,
      "start": 10.7462,
      "duration": 0.0541,
      "velocity": 107,
      "chip": "ym2612"
    },
    {
      "channel": 5,
      "note": 59,
      "start": 10.7479,
      "duration": 0.0529,
      "velocity": 127,
      "chip": "ym2612"
    },
    {
      "channel": 0,
      "note": 82,
      "start": 10.8288,
      "duration": 0.6629,
      "velocity": 101,
      "chip": "ym2612"
    },
    {
      "channel": 1,
      "note": 70,
      "start": 10.8304,
      "duration": 0.3153,
      "velocity": 94,
      "chip": "ym2612"
    },
    {
      "channel": 2,
      "note": 61,
      "start": 10.8359,
      "duration": 0.0202,
      "velocity": 127,
      "chip": "ym2612"
    },
    {
      "channel": 3,
      "note": 58,
      "start": 10.8376,
      "duration": 0.1431,
      "velocity": 107,
      "chip": "ym2612"
    },
    {
      "channel": 4,
      "note": 66,
      "start": 10.8392,
      "duration": 0.3075,
      "velocity": 94,
      "chip": "ym2612"
    },
    {
      "channel": 5,
      "note": 59,
      "start": 10.841,
      "duration": 0.14,
      "velocity": 127,
      "chip": "ym2612"
    },
    {
      "channel": 2,
      "note": 61,
      "start": 11.0092,
      "duration": 0.0125,
      "velocity": 127,
      "chip": "ym2612"
    },
    {
      "channel": 3,
      "note": 70,
      "start": 11.0108,
      "duration": 0.0524,
      "velocity": 107,
      "chip": "ym2612"
    },
    {
      "channel": 5,
      "note": 59,
      "start": 11.0126,
      "duration": 0.0511,
      "velocity": 127,
      "chip": "ym2612"
    },
    {
      "channel": 2,
      "note": 61,
      "start": 11.0923,
      "duration": 0.0125,
      "velocity": 127,
      "chip": "ym2612"
    },
    {
      "channel": 3,
      "note": 70,
      "start": 11.0939,
      "duration": 0.0526,
      "velocity": 107,
      "chip": "ym2612"
    },
    {
      "channel": 5,
      "note": 59,
      "start": 11.0956,
      "duration": 0.0513,
      "velocity": 127,
      "chip": "ym2612"
    },
    {
      "channel": 1,
      "note": 68,
      "start": 11.1747,
      "duration": 0.3171,
      "velocity": 94,
      "chip": "ym2612"
    },
    {
      "channel": 2,
      "note": 71,
      "start": 11.18,
      "duration": 0.0223,
      "velocity": 127,
      "chip": "ym2612"
    },
    {
      "channel": 3,
      "note": 56,
      "start": 11.1816,
      "duration": 0.1447,
      "velocity": 107,
      "chip": "ym2612"
    },
    {
      "channel": 4,
      "note": 65,
      "start": 11.1832,
      "duration": 0.3095,
      "velocity": 94,
      "chip": "ym2612"
    },
    {
      "channel": 5,
      "note": 59,
      "start": 11.185,
      "duration": 0.1415,
      "velocity": 127,
      "chip": "ym2612"
    },
    {
      "channel": 3,
      "note": 68,
      "start": 11.3554,
      "duration": 0.0539,
      "velocity": 107,
      "chip": "ym2612"
    },
    {
      "channel": 5,
      "note": 59,
      "start": 11.3572,
      "duration": 0.0525,
      "velocity": 127,
      "chip": "ym2612"
    },
    {
      "channel": 3,
      "note": 68,
      "start": 11.4384,
      "duration": 0.0542,
      "velocity": 107,
      "chip": "ym2612"
    },
    {
      "channel": 5,
      "note": 59,
      "start": 11.4401,
      "duration": 0.0529,
      "velocity": 127,
      "chip": "ym2612"
    },
    {
      "channel": 0,
      "note": 80,
      "start": 11.5209,
      "duration": 0.6491,
      "velocity": 101,
      "chip": "ym2612"
    },
    {
      "channel": 1,
      "note": 66,
      "start": 11.5225,
      "duration": 0.3154,
      "velocity": 94,
      "chip": "ym2612"
    },
    {
      "channel": 2,
      "note": 61,
      "start": 11.5278,
      "duration": 0.0204,
      "velocity": 127,
      "chip": "ym2612"
    },
    {
      "channel": 3,
      "note": 54,
      "start": 11.5294,
      "duration": 0.143,
      "velocity": 107,
      "chip": "ym2612"
    },
    {
      "channel": 4,
      "note": 63,
      "start": 11.531,
      "duration": 0.3079,
      "velocity": 94,
      "chip": "ym2612"
    },
    {
      "channel": 5,
      "note": 61,
      "start": 11.536,
      "duration": 0.2198,
      "velocity": 127,
      "chip": "ym2612"
    },
    {
      "channel": 2,
      "note": 61,
      "start": 11.6183,
      "duration": 0.0126,
      "velocity": 127,
      "chip": "ym2612"
    },
    {
      "channel": 2,
      "note": 61,
      "start": 11.7014,
      "duration": 0.0125,
      "velocity": 127,
      "chip": "ym2612"
    },
    {
      "channel": 3,
      "note": 66,
      "start": 11.7031,
      "duration": 0.0524,
      "velocity": 107,
      "chip": "ym2612"
    },
    {
      "channel": 3,
      "note": 66,
      "start": 11.7846,
      "duration": 0.054,
      "velocity": 107,
      "chip": "ym2612"
    },
    {
      "channel": 5,
      "note": 61,
      "start": 11.7863,
      "duration": 0.2186,
      "velocity": 127,
      "chip": "ym2612"
    },
    {
      "channel": 1,
      "note": 65,
      "start": 11.8678,
      "duration": 0.3024,
      "velocity": 94,
      "chip": "ym2612"
    },
    {
      "channel": 2,
      "note": 78,
      "start": 11.8699,
      "duration": 0.0106,
      "velocity": 127,
      "chip": "ym2612"
    },
    {
      "channel": 3,
      "note": 65,
      "start": 11.8715,
      "duration": 0.1331,
      "velocity": 107,
      "chip": "ym2612"
    },
    {
      "channel": 4,
      "note": 61,
      "start": 11.8731,
      "duration": 0.298,
      "velocity": 94,
      "chip": "ym2612"
    },
    {
      "channel": 2,
      "note": 76,
      "start": 11.9506,
      "duration": 0.0124,
      "velocity": 127,
      "chip": "ym2612"
    },
    {
      "channel": 2,
      "note": 74,
      "start": 12.0336,
      "duration": 0.0125,
      "velocity": 127,
      "chip": "ym2612"
    },
    {
      "channel": 3,
      "note": 61,
      "start": 12.0353,
      "duration": 0.1357,
      "velocity": 107,
      "chip": "ym2612"
    },
    {
      "channel": 5,
      "note": 61,
      "start": 12.037,
      "duration": 0.1344,
      "velocity": 127,
      "chip": "ym2612"
    },
    {
      "channel": 2,
      "note": 73,
      "start": 12.1167,
      "duration": 0.0125,
      "velocity": 127,
      "chip": "ym2612"
    },
    {
      "channel": 0,
      "note": 77,
      "start": 12.2028,
      "duration": 2.6807,
      "velocity": 101,
      "chip": "ym2612"
    },
    {
      "channel": 1,
      "note": 66,
      "start": 12.2047,
      "duration": 1.3221,
      "velocity": 94,
      "chip": "ym2612"
    },
    {
      "channel": 2,
      "note": 61,
      "start": 12.2103,
      "duration": 0.0301,
      "velocity": 127,
      "chip": "ym2612"
    },
    {
      "channel": 3,
      "note": 51,
      "start": 12.2155,
      "duration": 0.1492,
      "velocity": 107,
      "chip": "ym2612"
    },
    {
      "channel": 4,
      "note": 63,
      "start": 12.2175,
      "duration": 1.3103,
      "velocity": 94,
      "chip": "ym2612"
    },
    {
      "channel": 5,
      "note": 59,
      "start": 12.2229,
      "duration": 0.142,
      "velocity": 127,
      "chip": "ym2612"
    },
    {
      "channel": 2,
      "note": 61,
      "start": 12.3935,
      "duration": 0.0126,
      "velocity": 127,
      "chip": "ym2612"
    },
    {
      "channel": 3,
      "note": 63,
      "start": 12.3952,
      "duration": 0.0525,
      "velocity": 107,
      "chip": "ym2612"
    },
    {
      "channel": 5,
      "note": 59,
      "start": 12.3969,
      "duration": 0.0511,
      "velocity": 127,
      "chip": "ym2612"
    },
    {
      "channel": 2,
      "note": 61,
      "start": 12.4767,
      "duration": 0.0125,
      "velocity": 127,
      "chip": "ym2612"
    },
    {
      "channel": 3,
      "note": 63,
      "start": 12.4783,
      "duration": 0.0525,
      "velocity": 107,
      "chip": "ym2612"
    },
    {
      "channel": 5,
      "note": 59,
      "start": 12.48,
      "duration": 0.0511,
      "velocity": 127,
      "chip": "ym2612"
    },
    {
      "channel": 2,
      "note": 71,
      "start": 12.5629,
      "duration": 0.0093,
      "velocity": 127,
      "chip": "ym2612"
    },
    {
      "channel": 3,
      "note": 51,
      "start": 12.5646,
      "duration": 0.1322,
      "velocity": 107,
      "chip": "ym2612"
    },
    {
      "channel": 5,
      "note": 59,
      "start": 12.5666,
      "duration": 0.1305,
      "velocity": 127,
      "chip": "ym2612"
    },
    {
      "channel": 3,
      "note": 63,
      "start": 12.7259,
      "duration": 0.0539,
      "velocity": 107,
      "chip": "ym2612"
    },
    {
      "channel": 5,
      "note": 59,
      "start": 12.7276,
      "duration": 0.0526,
      "velocity": 127,
      "chip": "ym2612"
    },
    {
      "channel": 3,
      "note": 63,
      "start": 12.8089,
      "duration": 0.054,
      "velocity": 107,
      "chip": "ym2612"
    },
    {
      "channel": 5,
      "note": 59,
      "start": 12.8107,
      "duration": 0.0525,
      "velocity": 127,
      "chip": "ym2612"
    },
    {
      "channel": 2,
      "note": 61,
      "start": 12.8953,
      "duration": 0.0092,
      "velocity": 127,
      "chip": "ym2612"
    },
    {
      "channel": 3,
      "note": 51,
      "start": 12.8971,
      "duration": 0.132,
      "velocity": 107,
      "chip": "ym2612"
    },
    {
      "channel": 5,
      "note": 59,
      "start": 12.8989,
      "duration": 0.1305,
      "velocity": 127,
      "chip": "ym2612"
    },
    {
      "channel": 2,
      "note": 61,
      "start": 13.058,
      "duration": 0.0125,
      "velocity": 127,
      "chip": "ym2612"
    },
    {
      "channel": 3,
      "note": 63,
      "start": 13.0597,
      "duration": 0.0524,
      "velocity": 107,
      "chip": "ym2612"
    },
    {
      "channel": 5,
      "note": 59,
      "start": 13.0614,
      "duration": 0.051,
      "velocity": 127,
      "chip": "ym2612"
    },
    {
      "channel": 2,
      "note": 61,
      "start": 13.1411,
      "duration": 0.0125,
      "velocity": 127,
      "chip": "ym2612"
    },
    {
      "channel": 3,
      "note": 63,
      "start": 13.1427,
      "duration": 0.0525,
      "velocity": 107,
      "chip": "ym2612"
    },
    {
      "channel": 5,
      "note": 59,
      "start": 13.1444,
      "duration": 0.0511,
      "velocity": 127,
      "chip": "ym2612"
    },
    {
      "channel": 2,
      "note": 71,
      "start": 13.2273,
      "duration": 0.0094,
      "velocity": 127,
      "chip": "ym2612"
    },
    {
      "channel": 3,
      "note": 51,
      "start": 13.2291,
      "duration": 0.1323,
      "velocity": 107,
      "chip": "ym2612"
    },
    {
      "channel": 5,
      "note": 59,
      "start": 13.231,
      "duration": 0.1307,
      "velocity": 127,
      "chip": "ym2612"
    },
    {
      "channel": 3,
      "note": 63,
      "start": 13.3904,
      "duration": 0.0539,
      "velocity": 107,
      "chip": "ym2612"
    },
    {
      "channel": 5,
      "note": 59,
      "start": 13.3922,
      "duration": 0.0525,
      "velocity": 127,
      "chip": "ym2612"
    },
    {
      "channel": 3,
      "note": 63,
      "start": 13.4735,
      "duration": 0.054,
      "velocity": 107,
      "chip": "ym2612"
    },
    {
      "channel": 5,
      "note": 59,
      "start": 13.4752,
      "duration": 0.0527,
      "velocity": 127,
      "chip": "ym2612"
    },
    {
      "channel": 1,
      "note": 68,
      "start": 13.5574,
      "duration": 0.4816,
      "velocity": 94,
      "chip": "ym2612"
    },
    {
      "channel": 2,
      "note": 61,
      "start": 13.5627,
      "duration": 0.0206,
      "velocity": 127,
      "chip": "ym2612"
    },
    {
      "channel": 3,
      "note": 51,
      "start": 13.5645,
      "duration": 0.1429,
      "velocity": 107,
      "chip": "ym2612"
    },
    {
      "channel": 4,
      "note": 65,
      "start": 13.5662,
      "duration": 0.4738,
      "velocity": 94,
      "chip": "ym2612"
    },
    {
      "channel": 5,
      "note": 59,
      "start": 13.568,
      "duration": 0.1398,
      "velocity": 127,
      "chip": "ym2612"
    },
    {
      "channel": 2,
      "note": 61,
      "start": 13.7364,
      "duration": 0.0125,
      "velocity": 127,
      "chip": "ym2612"
    },
    {
      "channel": 3,
      "note": 63,
      "start": 13.738,
      "duration": 0.0525,
      "velocity": 107,
      "chip": "ym2612"
    },
    {
      "channel": 5,
      "note": 59,
      "start": 13.7398,
      "duration": 0.051,
      "velocity": 127,
      "chip": "ym2612"
    },
    {
      "channel": 2,
      "note": 61,
      "start": 13.8195,
      "duration": 0.0125,
      "velocity": 127,
      "chip": "ym2612"
    },
    {
      "channel": 3,
      "note": 63,
      "start": 13.8211,
      "duration": 0.0533,
      "velocity": 107,
      "chip": "ym2612"
    },
    {
      "channel": 5,
      "note": 59,
      "start": 13.8228,
      "duration": 0.0519,
      "velocity": 127,
      "chip": "ym2612"
    },
    {
      "channel": 2,
      "note": 71,
      "start": 13.9057,
      "duration": 0.0094,
      "velocity": 127,
      "chip": "ym2612"
    },
    {
      "channel": 3,
      "note": 51,
      "start": 13.9075,
      "duration": 0.1323,
      "velocity": 107,
      "chip": "ym2612"
    },
    {
      "channel": 5,
      "note": 59,
      "start": 13.9093,
      "duration": 0.1309,
      "velocity": 127,
      "chip": "ym2612"
    },
    {
      "channel": 1,
      "note": 66,
      "start": 14.0681,
      "duration": 0.4835,
      "velocity": 94,
      "chip": "ym2612"
    },
    {
      "channel": 3,
      "note": 63,
      "start": 14.0702,
      "duration": 0.0525,
      "velocity": 107,
      "chip": "ym2612"
    },
    {
      "channel": 4,
      "note": 63,
      "start": 14.0719,
      "duration": 0.4806,
      "velocity": 94,
      "chip": "ym2612"
    },
    {
      "channel": 5,
      "note": 59,
      "start": 14.0736,
      "duration": 0.0494,
      "velocity": 127,
      "chip": "ym2612"
    },
    {
      "channel": 3,
      "note": 63,
      "start": 14.1518,
      "duration": 0.054,
      "velocity": 107,
      "chip": "ym2612"
    },
    {
      "channel": 5,
      "note": 59,
      "start": 14.1535,
      "duration": 0.0525,
      "velocity": 127,
      "chip": "ym2612"
    },
    {
      "channel": 2,
      "note": 61,
      "start": 14.2381,
      "duration": 0.023,
      "velocity": 127,
      "chip": "ym2612"
    },
    {
      "channel": 3,
      "note": 51,
      "start": 14.2399,
      "duration": 0.1459,
      "velocity": 107,
      "chip": "ym2612"
    },
    {
      "channel": 5,
      "note": 61,
      "start": 14.2449,
      "duration": 0.2242,
      "velocity": 127,
      "chip": "ym2612"
    },
    {
      "channel": 2,
      "note": 61,
      "start": 14.332,
      "duration": 0.0123,
      "velocity": 127,
      "chip": "ym2612"
    },
    {
      "channel": 2,
      "note": 61,
      "start": 14.4147,
      "duration": 0.0126,
      "velocity": 127,
      "chip": "ym2612"
    },
    {
      "channel": 3,
      "note": 63,
      "start": 14.4164,
      "duration": 0.0524,
      "velocity": 107,
      "chip": "ym2612"
    },
    {
      "channel": 3,
      "note": 63,
      "start": 14.4979,
      "duration": 0.0544,
      "velocity": 107,
      "chip": "ym2612"
    },
    {
      "channel": 5,
      "note": 61,
      "start": 14.4997,
      "duration": 0.2187,
      "velocity": 127,
      "chip": "ym2612"
    },
    {
      "channel": 1,
      "note": 65,
      "start": 14.5804,
      "duration": 0.3032,
      "velocity": 94,
      "chip": "ym2612"
    },
    {
      "channel": 2,
      "note": 73,
      "start": 14.5856,
      "duration": 0.0078,
      "velocity": 127,
      "chip": "ym2612"
    },
    {
      "channel": 3,
      "note": 51,
      "start": 14.5874,
      "duration": 0.1307,
      "velocity": 107,
      "chip": "ym2612"
    },
    {
      "channel": 4,
      "note": 61,
      "start": 14.589,
      "duration": 0.2956,
      "velocity": 94,
      "chip": "ym2612"
    },
    {
      "channel": 2,
      "note": 73,
      "start": 14.747,
      "duration": 0.0126,
      "velocity": 127,
      "chip": "ym2612"
    },
    {
      "channel": 3,
      "note": 63,
      "start": 14.7486,
      "duration": 0.0525,
      "velocity": 107,
      "chip": "ym2612"
    },
    {
      "channel": 5,
      "note": 61,
      "start": 14.7504,
      "duration": 0.1344,
      "velocity": 127,
      "chip": "ym2612"
    },
    {
      "channel": 3,
      "note": 63,
      "start": 14.8302,
      "duration": 0.0541,
      "velocity": 107,
      "chip": "ym2612"
    },
    {
      "channel": 0,
      "note": 78,
      "start": 14.9126,
      "duration": 1.992,
      "velocity": 101,
      "chip": "ym2612"
    },
    {
      "channel": 1,
      "note": 61,
      "start": 14.9143,
      "duration": 2.669,
      "velocity": 94,
      "chip": "ym2612"
    },
    {
      "channel": 2,
      "note": 61,
      "start": 14.9197,
      "duration": 0.0203,
      "velocity": 127,
      "chip": "ym2612"
    },
    {
      "channel": 3,
      "note": 46,
      "start": 14.9216,
      "duration": 0.1427,
      "velocity": 107,
      "chip": "ym2612"
    },
    {
      "channel": 4,
      "note": 58,
      "start": 14.9232,
      "duration": 2.661,
      "velocity": 94,
      "chip": "ym2612"
    },
    {
      "channel": 5,
      "note": 59,
      "start": 14.9283,
      "duration": 0.1363,
      "velocity": 127,
      "chip": "ym2612"
    },
    {
      "channel": 2,
      "note": 61,
      "start": 15.0931,
      "duration": 0.0126,
      "velocity": 127,
      "chip": "ym2612"
    },
    {
      "channel": 3,
      "note": 58,
      "start": 15.0948,
      "duration": 0.0525,
      "velocity": 107,
      "chip": "ym2612"
    },
    {
      "channel": 5,
      "note": 59,
      "start": 15.0965,
      "duration": 0.051,
      "velocity": 127,
      "chip": "ym2612"
    },
    {
      "channel": 2,
      "note": 61,
      "start": 15.1762,
      "duration": 0.0125,
      "velocity": 127,
      "chip": "ym2612"
    },
    {
      "channel": 3,
      "note": 58,
      "start": 15.1778,
      "duration": 0.0525,
      "velocity": 107,
      "chip": "ym2612"
    },
    {
      "channel": 5,
      "note": 59,
      "start": 15.1795,
      "duration": 0.0511,
      "velocity": 127,
      "chip": "ym2612"
    },
    {
      "channel": 2,
      "note": 71,
      "start": 15.2624,
      "duration": 0.0094,
      "velocity": 127,
      "chip": "ym2612"
    },
    {
      "channel": 3,
      "note": 46,
      "start": 15.2642,
      "duration": 0.1322,
      "velocity": 107,
      "chip": "ym2612"
    },
    {
      "channel": 5,
      "note": 59,
      "start": 15.2661,
      "duration": 0.1305,
      "velocity": 127,
      "chip": "ym2612"
    },
    {
      "channel": 3,
      "note": 58,
      "start": 15.4255,
      "duration": 0.0539,
      "velocity": 107,
      "chip": "ym2612"
    },
    {
      "channel": 5,
      "note": 59,
      "start": 15.4273,
      "duration": 0.0525,
      "velocity": 127,
      "chip": "ym2612"
    },
    {
      "channel": 3,
      "note": 58,
      "start": 15.5085,
      "duration": 0.054,
      "velocity": 107,
      "chip": "ym2612"
    },
    {
      "channel": 5,
      "note": 59,
      "start": 15.5103,
      "duration": 0.0525,
      "velocity": 127,
      "chip": "ym2612"
    },
    {
      "channel": 2,
      "note": 61,
      "start": 15.5948,
      "duration": 0.0092,
      "velocity": 127,
      "chip": "ym2612"
    },
    {
      "channel": 3,
      "note": 46,
      "start": 15.5966,
      "duration": 0.1321,
      "velocity": 107,
      "chip": "ym2612"
    },
    {
      "channel": 5,
      "note": 59,
      "start": 15.5986,
      "duration": 0.1303,
      "velocity": 127,
      "chip": "ym2612"
    },
    {
      "channel": 2,
      "note": 61,
      "start": 15.7576,
      "duration": 0.0125,
      "velocity": 127,
      "chip": "ym2612"
    },
    {
      "channel": 3,
      "note": 58,
      "start": 15.7593,
      "duration": 0.0524,
      "velocity": 107,
      "chip": "ym2612"
    },
    {
      "channel": 5,
      "note": 59,
      "start": 15.761,
      "duration": 0.051,
      "velocity": 127,
      "chip": "ym2612"
    },
    {
      "channel": 2,
      "note": 61,
      "start": 15.8407,
      "duration": 0.0125,
      "velocity": 127,
      "chip": "ym2612"
    },
    {
      "channel": 3,
      "note": 58,
      "start": 15.8423,
      "duration": 0.0526,
      "velocity": 107,
      "chip": "ym2612"
    },
    {
      "channel": 5,
      "note": 59,
      "start": 15.844,
      "duration": 0.0511,
      "velocity": 127,
      "chip": "ym2612"
    },
    {
      "channel": 2,
      "note": 71,
      "start": 15.9269,
      "duration": 0.0093,
      "velocity": 127,
      "chip": "ym2612"
    },
    {
      "channel": 3,
      "note": 46,
      "start": 15.9287,
      "duration": 0.1322,
      "velocity": 107,
      "chip": "ym2612"
    },
    {
      "channel": 5,
      "note": 59,
      "start": 15.9306,
      "duration": 0.1306,
      "velocity": 127,
      "chip": "ym2612"
    },
    {
      "channel": 3,
      "note": 58,
      "start": 16.09,
      "duration": 0.0539,
      "velocity": 107,
      "chip": "ym2612"
    },
    {
      "channel": 5,
      "note": 59,
      "start": 16.0918,
      "duration": 0.0525,
      "velocity": 127,
      "chip": "ym2612"
    },
    {
      "channel": 3,
      "note": 58,
      "start": 16.1731,
      "duration": 0.0539,
      "velocity": 107,
      "chip": "ym2612"
    },
    {
      "channel": 5,
      "note": 59,
      "start": 16.1748,
      "duration": 0.0525,
      "velocity": 127,
      "chip": "ym2612"
    },
    {
      "channel": 2,
      "note": 61,
      "start": 16.2622,
      "duration": 0.0207,
      "velocity": 127,
      "chip": "ym2612"
    },
    {
      "channel": 3,
      "note": 46,
      "start": 16.264,
      "duration": 0.143,
      "velocity": 107,
      "chip": "ym2612"
    },
    {
      "channel": 5,
      "note": 59,
      "start": 16.2673,
      "duration": 0.14,
      "velocity": 127,
      "chip": "ym2612"
    },
    {
      "channel": 2,
      "note": 61,
      "start": 16.436,
      "duration": 0.0125,
      "velocity": 127,
      "chip": "ym2612"
    },
    {
      "channel": 3,
      "note": 58,
      "start": 16.4376,
      "duration": 0.0524,
      "velocity": 107,
      "chip": "ym2612"
    },
    {
      "channel": 5,
      "note": 59,
      "start": 16.4393,
      "duration": 0.051,
      "velocity": 127,
      "chip": "ym2612"
    },
    {
      "channel": 2,
      "note": 61,
      "start": 16.519,
      "duration": 0.0125,
      "velocity": 127,
      "chip": "ym2612"
    },
    {
      "channel": 3,
      "note": 58,
      "start": 16.5206,
      "duration": 0.0525,
      "velocity": 107,
      "chip": "ym2612"
    },
    {
      "channel": 5,
      "note": 59,
      "start": 16.5224,
      "duration": 0.051,
      "velocity": 127,
      "chip": "ym2612"
    },
    {
      "channel": 2,
      "note": 71,
      "start": 16.6052,
      "duration": 0.0094,
      "velocity": 127,
      "chip": "ym2612"
    },
    {
      "channel": 3,
      "note": 46,
      "start": 16.607,
      "duration": 0.1322,
      "velocity": 107,
      "chip": "ym2612"
    },
    {
      "channel": 5,
      "note": 59,
      "start": 16.6089,
      "duration": 0.1306,
      "velocity": 127,
      "chip": "ym2612"
    },
    {
      "channel": 3,
      "note": 58,
      "start": 16.7683,
      "duration": 0.0539,
      "velocity": 107,
      "chip": "ym2612"
    },
    {
      "channel": 5,
      "note": 59,
      "start": 16.7701,
      "duration": 0.0525,
      "velocity": 127,
      "chip": "ym2612"
    },
    {
      "channel": 3,
      "note": 58,
      "start": 16.8514,
      "duration": 0.054,
      "velocity": 107,
      "chip": "ym2612"
    },
    {
      "channel": 5,
      "note": 59,
      "start": 16.8532,
      "duration": 0.0526,
      "velocity": 127,
      "chip": "ym2612"
    },
    {
      "channel": 0,
      "note": 70,
      "start": 16.9339,
      "duration": 0.3169,
      "velocity": 101,
      "chip": "ym2612"
    },
    {
      "channel": 2,
      "note": 61,
      "start": 16.9393,
      "duration": 0.0218,
      "velocity": 127,
      "chip": "ym2612"
    },
    {
      "channel": 3,
      "note": 46,
      "start": 16.9411,
      "duration": 0.1443,
      "velocity": 107,
      "chip": "ym2612"
    },
    {
      "channel": 5,
      "note": 61,
      "start": 16.9461,
      "duration": 0.2227,
      "velocity": 127,
      "chip": "ym2612"
    },
    {
      "channel": 2,
      "note": 61,
      "start": 17.0313,
      "duration": 0.0124,
      "velocity": 127,
      "chip": "ym2612"
    },
    {
      "channel": 2,
      "note": 61,
      "start": 17.1144,
      "duration": 0.0125,
      "velocity": 127,
      "chip": "ym2612"
    },
    {
      "channel": 3,
      "note": 58,
      "start": 17.1161,
      "duration": 0.0524,
      "velocity": 107,
      "chip": "ym2612"
    },
    {
      "channel": 3,
      "note": 58,
      "start": 17.1976,
      "duration": 0.0541,
      "velocity": 107,
      "chip": "ym2612"
    },
    {
      "channel": 5,
      "note": 61,
      "start": 17.1993,
      "duration": 0.2186,
      "velocity": 127,
      "chip": "ym2612"
    },
    {
      "channel": 0,
      "note": 75,
      "start": 17.2799,
      "duration": 0.3031,
      "velocity": 101,
      "chip": "ym2612"
    },
    {
      "channel": 2,
      "note": 78,
      "start": 17.2822,
      "duration": 0.0112,
      "velocity": 127,
      "chip": "ym2612"
    },
    {
      "channel": 3,
      "note": 46,
      "start": 17.284,
      "duration": 0.1337,
      "velocity": 107,
      "chip": "ym2612"
    },
    {
      "channel": 2,
      "note": 76,
      "start": 17.3636,
      "duration": 0.0125,
      "velocity": 127,
      "chip": "ym2612"
    },
    {
      "channel": 2,
      "note": 74,
      "start": 17.4474,
      "duration": 0.0118,
      "velocity": 127,
      "chip": "ym2612"
    },
    {
      "channel": 3,
      "note": 58,
      "start": 17.449,
      "duration": 0.0517,
      "velocity": 107,
      "chip": "ym2612"
    },
    {
      "channel": 5,
      "note": 61,
      "start": 17.4508,
      "duration": 0.1336,
      "velocity": 127,
      "chip": "ym2612"
    },
    {
      "channel": 2,
      "note": 73,
      "start": 17.5297,
      "duration": 0.0125,
      "velocity": 127,
      "chip": "ym2612"
    },
    {
      "channel": 3,
      "note": 58,
      "start": 17.5313,
      "duration": 0.0527,
      "velocity": 107,
      "chip": "ym2612"
    },
    {
      "channel": 0,
      "note": 77,
      "start": 17.6125,
      "duration": 1.3133,
      "velocity": 101,
      "chip": "ym2612"
    },
    {
      "channel": 1,
      "note": 66,
      "start": 17.6144,
      "duration": 1.3117,
      "velocity": 94,
      "chip": "ym2612"
    },
    {
      "channel": 2,
      "note": 61,
      "start": 17.6201,
      "duration": 0.0195,
      "velocity": 127,
      "chip": "ym2612"
    },
    {
      "channel": 3,
      "note": 51,
      "start": 17.6223,
      "duration": 0.1415,
      "velocity": 107,
      "chip": "ym2612"
    },
    {
      "channel": 4,
      "note": 63,
      "start": 17.6242,
      "duration": 1.3027,
      "velocity": 94,
      "chip": "ym2612"
    },
    {
      "channel": 5,
      "note": 59,
      "start": 17.6295,
      "duration": 0.1345,
      "velocity": 127,
      "chip": "ym2612"
    },
    {
      "channel": 2,
      "note": 61,
      "start": 17.7927,
      "duration": 0.0125,
      "velocity": 127,
      "chip": "ym2612"
    },
    {
      "channel": 3,
      "note": 63,
      "start": 17.7944,
      "duration": 0.0524,
      "velocity": 107,
      "chip": "ym2612"
    },
    {
      "channel": 5,
      "note": 59,
      "start": 17.7961,
      "duration": 0.051,
      "velocity": 127,
      "chip": "ym2612"
    },
    {
      "channel": 2,
      "note": 61,
      "start": 17.8758,
      "duration": 0.0124,
      "velocity": 127,
      "chip": "ym2612"
    },
    {
      "channel": 3,
      "note": 63,
      "start": 17.8774,
      "duration": 0.0525,
      "velocity": 107,
      "chip": "ym2612"
    },
    {
      "channel": 5,
      "note": 59,
      "start": 17.8792,
      "duration": 0.0512,
      "velocity": 127,
      "chip": "ym2612"
    },
    {
      "channel": 2,
      "note": 71,
      "start": 17.962,
      "duration": 0.0093,
      "velocity": 127,
      "chip": "ym2612"
    },
    {
      "channel": 3,
      "note": 51,
      "start": 17.9638,
      "duration": 0.1322,
      "velocity": 107,
      "chip": "ym2612"
    },
    {
      "channel": 5,
      "note": 59,
      "start": 17.9656,
      "duration": 0.1307,
      "velocity": 127,
      "chip": "ym2612"
    },
    {
      "channel": 3,
      "note": 63,
      "start": 18.1253,
      "duration": 0.0538,
      "velocity": 107,
      "chip": "ym2612"
    },
    {
      "channel": 5,
      "note": 59,
      "start": 18.1271,
      "duration": 0.0522,
      "velocity": 127,
      "chip": "ym2612"
    },
    {
      "channel": 3,
      "note": 63,
      "start": 18.208,
      "duration": 0.054,
      "velocity": 107,
      "chip": "ym2612"
    },
    {
      "channel": 5,
      "note": 59,
      "start": 18.2098,
      "duration": 0.0525,
      "velocity": 127,
      "chip": "ym2612"
    },
    {
      "channel": 2,
      "note": 61,
      "start": 18.2944,
      "duration": 0.0092,
      "velocity": 127,
      "chip": "ym2612"
    },
    {
      "channel": 3,
      "note": 51,
      "start": 18.2961,
      "duration": 0.1321,
      "velocity": 107,
      "chip": "ym2612"
    },
    {
      "channel": 5,
      "note": 59,
      "start": 18.298,
      "duration": 0.1305,
      "velocity": 127,
      "chip": "ym2612"
    },
    {
      "channel": 2,
      "note": 61,
      "start": 18.4572,
      "duration": 0.0126,
      "velocity": 127,
      "chip": "ym2612"
    },
    {
      "channel": 3,
      "note": 63,
      "start": 18.4588,
      "duration": 0.0524,
      "velocity": 107,
      "chip": "ym2612"
    },
    {
      "channel": 5,
      "note": 59,
      "start": 18.4606,
      "duration": 0.051,
      "velocity": 127,
      "chip": "ym2612"
    },
    {
      "channel": 2,
      "note": 61,
      "start": 18.5402,
      "duration": 0.0125,
      "velocity": 127,
      "chip": "ym2612"
    },
    {
      "channel": 3,
      "note": 63,
      "start": 18.5418,
      "duration": 0.0525,
      "velocity": 107,
      "chip": "ym2612"
    },
    {
      "channel": 5,
      "note": 59,
      "start": 18.5436,
      "duration": 0.051,
      "velocity": 127,
      "chip": "ym2612"
    },
    {
      "channel": 2,
      "note": 71,
      "start": 18.6265,
      "duration": 0.0094,
      "velocity": 127,
      "chip": "ym2612"
    },
    {
      "channel": 3,
      "note": 51,
      "start": 18.6283,
      "duration": 0.1322,
      "velocity": 107,
      "chip": "ym2612"
    },
    {
      "channel": 5,
      "note": 59,
      "start": 18.6301,
      "duration": 0.1307,
      "velocity": 127,
      "chip": "ym2612"
    },
    {
      "channel": 3,
      "note": 63,
      "start": 18.79,
      "duration": 0.0535,
      "velocity": 107,
      "chip": "ym2612"
    },
    {
      "channel": 5,
      "note": 59,
      "start": 18.7918,
      "duration": 0.052,
      "velocity": 127,
      "chip": "ym2612"
    },
    {
      "channel": 3,
      "note": 63,
      "start": 18.8726,
      "duration": 0.0541,
      "velocity": 107,
      "chip": "ym2612"
    },
    {
      "channel": 5,
      "note": 59,
      "start": 18.8743,
      "duration": 0.0529,
      "velocity": 127,
      "chip": "ym2612"
    },
    {
      "channel": 0,
      "note": 78,
      "start": 18.9551,
      "duration": 0.4829,
      "velocity": 101,
      "chip": "ym2612"
    },
    {
      "channel": 1,
      "note": 68,
      "start": 18.9567,
      "duration": 0.4815,
      "velocity": 94,
      "chip": "ym2612"
    },
    {
      "channel": 2,
      "note": 61,
      "start": 18.9621,
      "duration": 0.0203,
      "velocity": 127,
      "chip": "ym2612"
    },
    {
      "channel": 3,
      "note": 51,
      "start": 18.9638,
      "duration": 0.1427,
      "velocity": 107,
      "chip": "ym2612"
    },
    {
      "channel": 4,
      "note": 65,
      "start": 18.9654,
      "duration": 0.4738,
      "velocity": 94,
      "chip": "ym2612"
    },
    {
      "channel": 5,
      "note": 59,
      "start": 18.9673,
      "duration": 0.1396,
      "velocity": 127,
      "chip": "ym2612"
    },
    {
      "channel": 2,
      "note": 61,
      "start": 19.1355,
      "duration": 0.0126,
      "velocity": 127,
      "chip": "ym2612"
    },
    {
      "channel": 3,
      "note": 63,
      "start": 19.1372,
      "duration": 0.0524,
      "velocity": 107,
      "chip": "ym2612"
    },
    {
      "channel": 5,
      "note": 59,
      "start": 19.1389,
      "duration": 0.051,
      "velocity": 127,
      "chip": "ym2612"
    },
    {
      "channel": 2,
      "note": 61,
      "start": 19.2187,
      "duration": 0.0132,
      "velocity": 127,
      "chip": "ym2612"
    },
    {
      "channel": 3,
      "note": 63,
      "start": 19.2202,
      "duration": 0.0525,
      "velocity": 107,
      "chip": "ym2612"
    },
    {
      "channel": 5,
      "note": 59,
      "start": 19.222,
      "duration": 0.0511,
      "velocity": 127,
      "chip": "ym2612"
    },
    {
      "channel": 2,
      "note": 71,
      "start": 19.3049,
      "duration": 0.0094,
      "velocity": 127,
      "chip": "ym2612"
    },
    {
      "channel": 3,
      "note": 51,
      "start": 19.3066,
      "duration": 0.1323,
      "velocity": 107,
      "chip": "ym2612"
    },
    {
      "channel": 5,
      "note": 59,
      "start": 19.3085,
      "duration": 0.1309,
      "velocity": 127,
      "chip": "ym2612"
    },
    {
      "channel": 0,
      "note": 77,
      "start": 19.4673,
      "duration": 0.483,
      "velocity": 101,
      "chip": "ym2612"
    },
    {
      "channel": 1,
      "note": 66,
      "start": 19.4689,
      "duration": 0.4815,
      "velocity": 94,
      "chip": "ym2612"
    },
    {
      "channel": 3,
      "note": 63,
      "start": 19.4711,
      "duration": 0.0508,
      "velocity": 107,
      "chip": "ym2612"
    },
    {
      "channel": 4,
      "note": 63,
      "start": 19.4727,
      "duration": 0.4788,
      "velocity": 94,
      "chip": "ym2612"
    },
    {
      "channel": 5,
      "note": 59,
      "start": 19.4743,
      "duration": 0.0478,
      "velocity": 127,
      "chip": "ym2612"
    },
    {
      "channel": 3,
      "note": 63,
      "start": 19.551,
      "duration": 0.0539,
      "velocity": 107,
      "chip": "ym2612"
    },
    {
      "channel": 5,
      "note": 59,
      "start": 19.5528,
      "duration": 0.0525,
      "velocity": 127,
      "chip": "ym2612"
    },
    {
      "channel": 2,
      "note": 61,
      "start": 19.6373,
      "duration": 0.023,
      "velocity": 127,
      "chip": "ym2612"
    },
    {
      "channel": 3,
      "note": 51,
      "start": 19.639,
      "duration": 0.1459,
      "velocity": 107,
      "chip": "ym2612"
    },
    {
      "channel": 5,
      "note": 61,
      "start": 19.6441,
      "duration": 0.2242,
      "velocity": 127,
      "chip": "ym2612"
    },
    {
      "channel": 2,
      "note": 61,
      "start": 19.7309,
      "duration": 0.0125,
      "velocity": 127,
      "chip": "ym2612"
    },
    {
      "channel": 2,
      "note": 61,
      "start": 19.8139,
      "duration": 0.0125,
      "velocity": 127,
      "chip": "ym2612"
    },
    {
      "channel": 3,
      "note": 63,
      "start": 19.8156,
      "duration": 0.0524,
      "velocity": 107,
      "chip": "ym2612"
    },
    {
      "channel": 3,
      "note": 63,
      "start": 19.8971,
      "duration": 0.0542,
      "velocity": 107,
      "chip": "ym2612"
    },
    {
      "channel": 5,
      "note": 61,
      "start": 19.8988,
      "duration": 0.2329,
      "velocity": 127,
      "chip": "ym2612"
    },
    {
      "channel": 0,
      "note": 78,
      "start": 19.9795,
      "duration": 0.317,
      "velocity": 101,
      "chip": "ym2612"
    },
    {
      "channel": 1,
      "note": 65,
      "start": 19.9811,
      "duration": 0.3155,
      "velocity": 94,
      "chip": "ym2612"
    },
    {
      "channel": 2,
      "note": 73,
      "start": 19.9864,
      "duration": 0.0204,
      "velocity": 127,
      "chip": "ym2612"
    },
    {
      "channel": 3,
      "note": 51,
      "start": 19.9882,
      "duration": 0.1431,
      "velocity": 107,
      "chip": "ym2612"
    },
    {
      "channel": 4,
      "note": 61,
      "start": 19.9898,
      "duration": 0.3078,
      "velocity": 94,
      "chip": "ym2612"
    },
    {
      "channel": 2,
      "note": 73,
      "start": 20.16,
      "duration": 0.0125,
      "velocity": 127,
      "chip": "ym2612"
    },
    {
      "channel": 3,
      "note": 63,
      "start": 20.1616,
      "duration": 0.0525,
      "velocity": 107,
      "chip": "ym2612"
    },
    {
      "channel": 5,
      "note": 61,
      "start": 20.1634,
      "duration": 0.1344,
      "velocity": 127,
      "chip": "ym2612"
    },
    {
      "channel": 3,
      "note": 63,
      "start": 20.2432,
      "duration": 0.0541,
      "velocity": 107,
      "chip": "ym2612"
    },
    {
      "channel": 0,
      "note": 80,
      "start": 20.3257,
      "duration": 1.3273,
      "velocity": 101,
      "chip": "ym2612"
    },
    {
      "channel": 1,
      "note": 61,
      "start": 20.3274,
      "duration": 0.4813,
      "velocity": 94,
      "chip": "ym2612"
    },
    {
      "channel": 2,
      "note": 61,
      "start": 20.3328,
      "duration": 0.0205,
      "velocity": 127,
      "chip": "ym2612"
    },
    {
      "channel": 3,
      "note": 46,
      "start": 20.3347,
      "duration": 0.1429,
      "velocity": 107,
      "chip": "ym2612"
    },
    {
      "channel": 4,
      "note": 58,
      "start": 20.3363,
      "duration": 0.4733,
      "velocity": 94,
      "chip": "ym2612"
    },
    {
      "channel": 5,
      "note": 59,
      "start": 20.3412,
      "duration": 0.1366,
      "velocity": 127,
      "chip": "ym2612"
    },
    {
      "channel": 2,
      "note": 61,
      "start": 20.5065,
      "duration": 0.0125,
      "velocity": 127,
      "chip": "ym2612"
    },
    {
      "channel": 3,
      "note": 58,
      "start": 20.5082,
      "duration": 0.0525,
      "velocity": 107,
      "chip": "ym2612"
    },
    {
      "channel": 5,
      "note": 59,
      "start": 20.5099,
      "duration": 0.0511,
      "velocity": 127,
      "chip": "ym2612"
    },
    {
      "channel": 2,
      "note": 61,
      "start": 20.5892,
      "duration": 0.0125,
      "velocity": 127,
      "chip": "ym2612"
    },
    {
      "channel": 3,
      "note": 58,
      "start": 20.5908,
      "duration": 0.0525,
      "velocity": 107,
      "chip": "ym2612"
    },
    {
      "channel": 5,
      "note": 59,
      "start": 20.5926,
      "duration": 0.051,
      "velocity": 127,
      "chip": "ym2612"
    },
    {
      "channel": 2,
      "note": 71,
      "start": 20.6754,
      "duration": 0.0093,
      "velocity": 127,
      "chip": "ym2612"
    },
    {
      "channel": 3,
      "note": 46,
      "start": 20.6772,
      "duration": 0.1323,
      "velocity": 107,
      "chip": "ym2612"
    },
    {
      "channel": 5,
      "note": 59,
      "start": 20.679,
      "duration": 0.1308,
      "velocity": 127,
      "chip": "ym2612"
    },
    {
      "channel": 1,
      "note": 66,
      "start": 20.8378,
      "duration": 0.4693,
      "velocity": 94,
      "chip": "ym2612"
    },
    {
      "channel": 3,
      "note": 58,
      "start": 20.8399,
      "duration": 0.0525,
      "velocity": 107,
      "chip": "ym2612"
    },
    {
      "channel": 4,
      "note": 63,
      "start": 20.8416,
      "duration": 0.4665,
      "velocity": 94,
      "chip": "ym2612"
    },
    {
      "channel": 5,
      "note": 59,
      "start": 20.8432,
      "duration": 0.0495,
      "velocity": 127,
      "chip": "ym2612"
    },
    {
      "channel": 3,
      "note": 58,
      "start": 20.9215,
      "duration": 0.054,
      "velocity": 107,
      "chip": "ym2612"
    },
    {
      "channel": 5,
      "note": 59,
      "start": 20.9232,
      "duration": 0.0525,
      "velocity": 127,
      "chip": "ym2612"
    },
    {
      "channel": 2,
      "note": 61,
      "start": 21.0077,
      "duration": 0.01,
      "velocity": 127,
      "chip": "ym2612"
    },
    {
      "channel": 3,
      "note": 46,
      "start": 21.0095,
      "duration": 0.1321,
      "velocity": 107,
      "chip": "ym2612"
    },
    {
      "channel": 5,
      "note": 59,
      "start": 21.0114,
      "duration": 0.1305,
      "velocity": 127,
      "chip": "ym2612"
    },
    {
      "channel": 2,
      "note": 61,
      "start": 21.1706,
      "duration": 0.0126,
      "velocity": 127,
      "chip": "ym2612"
    },
    {
      "channel": 3,
      "note": 58,
      "start": 21.1722,
      "duration": 0.0524,
      "velocity": 107,
      "chip": "ym2612"
    },
    {
      "channel": 5,
      "note": 59,
      "start": 21.1739,
      "duration": 0.051,
      "velocity": 127,
      "chip": "ym2612"
    },
    {
      "channel": 2,
      "note": 61,
      "start": 21.2537,
      "duration": 0.0126,
      "velocity": 127,
      "chip": "ym2612"
    },
    {
      "channel": 3,
      "note": 58,
      "start": 21.2552,
      "duration": 0.0526,
      "velocity": 107,
      "chip": "ym2612"
    },
    {
      "channel": 5,
      "note": 59,
      "start": 21.257,
      "duration": 0.0513,
      "velocity": 127,
      "chip": "ym2612"
    },
    {
      "channel": 1,
      "note": 68,
      "start": 21.3362,
      "duration": 0.3171,
      "velocity": 94,
      "chip": "ym2612"
    },
    {
      "channel": 2,
      "note": 71,
      "start": 21.3415,
      "duration": 0.0217,
      "velocity": 127,
      "chip": "ym2612"
    },
    {
      "channel": 3,
      "note": 46,
      "start": 21.3432,
      "duration": 0.1445,
      "velocity": 107,
      "chip": "ym2612"
    },
    {
      "channel": 4,
      "note": 65,
      "start": 21.3448,
      "duration": 0.3094,
      "velocity": 94,
      "chip": "ym2612"
    },
    {
      "channel": 5,
      "note": 59,
      "start": 21.3466,
      "duration": 0.1414,
      "velocity": 127,
      "chip": "ym2612"
    },
    {
      "channel": 3,
      "note": 58,
      "start": 21.5169,
      "duration": 0.0539,
      "velocity": 107,
      "chip": "ym2612"
    },
    {
      "channel": 5,
      "note": 59,
      "start": 21.5186,
      "duration": 0.0524,
      "velocity": 127,
      "chip": "ym2612"
    },
    {
      "channel": 3,
      "note": 58,
      "start": 21.5999,
      "duration": 0.0541,
      "velocity": 107,
      "chip": "ym2612"
    },
    {
      "channel": 5,
      "note": 59,
      "start": 21.6016,
      "duration": 0.0528,
      "velocity": 127,
      "chip": "ym2612"
    },
    {
      "channel": 0,
      "note": 80,
      "start": 21.6823,
      "duration": 1.3136,
      "velocity": 101,
      "chip": "ym2612"
    },
    {
      "channel": 1,
      "note": 70,
      "start": 21.684,
      "duration": 0.6337,
      "velocity": 94,
      "chip": "ym2612"
    },
    {
      "channel": 2,
      "note": 71,
      "start": 21.6863,
      "duration": 0.0091,
      "velocity": 127,
      "chip": "ym2612"
    },
    {
      "channel": 3,
      "note": 58,
      "start": 21.6881,
      "duration": 0.1319,
      "velocity": 107,
      "chip": "ym2612"
    },
    {
      "channel": 4,
      "note": 66,
      "start": 21.6898,
      "duration": 0.6288,
      "velocity": 94,
      "chip": "ym2612"
    },
    {
      "channel": 5,
      "note": 59,
      "start": 21.6916,
      "duration": 0.1288,
      "velocity": 127,
      "chip": "ym2612"
    },
    {
      "channel": 2,
      "note": 71,
      "start": 21.8492,
      "duration": 0.0123,
      "velocity": 127,
      "chip": "ym2612"
    },
    {
      "channel": 3,
      "note": 70,
      "start": 21.8509,
      "duration": 0.0522,
      "velocity": 107,
      "chip": "ym2612"
    },
    {
      "channel": 5,
      "note": 59,
      "start": 21.8526,
      "duration": 0.0507,
      "velocity": 127,
      "chip": "ym2612"
    },
    {
      "channel": 3,
      "note": 70,
      "start": 21.9322,
      "duration": 0.0539,
      "velocity": 107,
      "chip": "ym2612"
    },
    {
      "channel": 5,
      "note": 59,
      "start": 21.934,
      "duration": 0.0524,
      "velocity": 127,
      "chip": "ym2612"
    },
    {
      "channel": 2,
      "note": 71,
      "start": 22.0152,
      "duration": 0.0124,
      "velocity": 127,
      "chip": "ym2612"
    },
    {
      "channel": 3,
      "note": 56,
      "start": 22.0169,
      "duration": 0.1353,
      "velocity": 107,
      "chip": "ym2612"
    },
    {
      "channel": 5,
      "note": 59,
      "start": 22.0188,
      "duration": 0.1337,
      "velocity": 127,
      "chip": "ym2612"
    },
    {
      "channel": 2,
      "note": 71,
      "start": 22.1813,
      "duration": 0.0124,
      "velocity": 127,
      "chip": "ym2612"
    },
    {
      "channel": 3,
      "note": 68,
      "start": 22.183,
      "duration": 0.0523,
      "velocity": 107,
      "chip": "ym2612"
    },
    {
      "channel": 5,
      "note": 59,
      "start": 22.1848,
      "duration": 0.0508,
      "velocity": 127,
      "chip": "ym2612"
    },
    {
      "channel": 3,
      "note": 68,
      "start": 22.2644,
      "duration": 0.0541,
      "velocity": 107,
      "chip": "ym2612"
    },
    {
      "channel": 5,
      "note": 59,
      "start": 22.2661,
      "duration": 0.0527,
      "velocity": 127,
      "chip": "ym2612"
    },
    {
      "channel": 1,
      "note": 68,
      "start": 22.3468,
      "duration": 0.317,
      "velocity": 94,
      "chip": "ym2612"
    },
    {
      "channel": 2,
      "note": 81,
      "start": 22.3522,
      "duration": 0.0215,
      "velocity": 127,
      "chip": "ym2612"
    },
    {
      "channel": 3,
      "note": 54,
      "start": 22.3538,
      "duration": 0.1447,
      "velocity": 107,
      "chip": "ym2612"
    },
    {
      "channel": 4,
      "note": 65,
      "start": 22.3554,
      "duration": 0.3093,
      "velocity": 94,
      "chip": "ym2612"
    },
    {
      "channel": 5,
      "note": 61,
      "start": 22.3605,
      "duration": 0.0551,
      "velocity": 127,
      "chip": "ym2612"
    },
    {
      "channel": 2,
      "note": 81,
      "start": 22.4027,
      "duration": 0.0125,
      "velocity": 127,
      "chip": "ym2612"
    },
    {
      "channel": 2,
      "note": 80,
      "start": 22.4442,
      "duration": 0.0125,
      "velocity": 127,
      "chip": "ym2612"
    },
    {
      "channel": 5,
      "note": 61,
      "start": 22.4462,
      "duration": 0.0526,
      "velocity": 127,
      "chip": "ym2612"
    },
    {
      "channel": 2,
      "note": 80,
      "start": 22.4857,
      "duration": 0.0126,
      "velocity": 127,
      "chip": "ym2612"
    },
    {
      "channel": 2,
      "note": 78,
      "start": 22.5273,
      "duration": 0.0125,
      "velocity": 127,
      "chip": "ym2612"
    },
    {
      "channel": 3,
      "note": 66,
      "start": 22.5289,
      "duration": 0.053,
      "velocity": 107,
      "chip": "ym2612"
    },
    {
      "channel": 5,
      "note": 61,
      "start": 22.5307,
      "duration": 0.0515,
      "velocity": 127,
      "chip": "ym2612"
    },
    {
      "channel": 2,
      "note": 78,
      "start": 22.6103,
      "duration": 0.0125,
      "velocity": 127,
      "chip": "ym2612"
    },
    {
      "channel": 3,
      "note": 66,
      "start": 22.6119,
      "duration": 0.0526,
      "velocity": 107,
      "chip": "ym2612"
    },
    {
      "channel": 5,
      "note": 61,
      "start": 22.6138,
      "duration": 0.0511,
      "velocity": 127,
      "chip": "ym2612"
    },
    {
      "channel": 1,
      "note": 65,
      "start": 22.6928,
      "duration": 0.3033,
      "velocity": 94,
      "chip": "ym2612"
    },
    {
      "channel": 2,
      "note": 76,
      "start": 22.6949,
      "duration": 0.0111,
      "velocity": 127,
      "chip": "ym2612"
    },
    {
      "channel": 3,
      "note": 65,
      "start": 22.6965,
      "duration": 0.134,
      "velocity": 107,
      "chip": "ym2612"
    },
    {
      "channel": 4,
      "note": 61,
      "start": 22.6981,
      "duration": 0.299,
      "velocity": 94,
      "chip": "ym2612"
    },
    {
      "channel": 5,
      "note": 61,
      "start": 22.7,
      "duration": 0.0478,
      "velocity": 127,
      "chip": "ym2612"
    },
    {
      "channel": 2,
      "note": 76,
      "start": 22.7765,
      "duration": 0.0125,
      "velocity": 127,
      "chip": "ym2612"
    },
    {
      "channel": 5,
      "note": 61,
      "start": 22.7785,
      "duration": 0.0524,
      "velocity": 127,
      "chip": "ym2612"
    },
    {
      "channel": 2,
      "note": 71,
      "start": 22.8595,
      "duration": 0.0126,
      "velocity": 127,
      "chip": "ym2612"
    },
    {
      "channel": 3,
      "note": 61,
      "start": 22.8611,
      "duration": 0.1359,
      "velocity": 107,
      "chip": "ym2612"
    },
    {
      "channel": 5,
      "note": 61,
      "start": 22.863,
      "duration": 0.0508,
      "velocity": 127,
      "chip": "ym2612"
    },
    {
      "channel": 2,
      "note": 71,
      "start": 22.9426,
      "duration": 0.0125,
      "velocity": 127,
      "chip": "ym2612"
    },
    {
      "channel": 5,
      "note": 61,
      "start": 22.9446,
      "duration": 0.0528,
      "velocity": 127,
      "chip": "ym2612"
    },
    {
      "channel": 0,
      "note": 78,
      "start": 23.0262,
      "duration": 0.3297,
      "velocity": 101,
      "chip": "ym2612"
    },
    {
      "channel": 1,
      "note": 66,
      "start": 23.0313,
      "duration": 0.1586,
      "velocity": 106,
      "chip": "ym2612"
    },
    {
      "channel": 2,
      "note": 61,
      "start": 23.0371,
      "duration": 0.0289,
      "velocity": 127,
      "chip": "ym2612"
    },
    {
      "channel": 3,
      "note": 51,
      "start": 23.0392,
      "duration": 0.1515,
      "velocity": 107,
      "chip": "ym2612"
    },
    {
      "channel": 4,
      "note": 63,
      "start": 23.0442,
      "duration": 0.1466,
      "velocity": 106,
      "chip": "ym2612"
    },
    {
      "channel": 5,
      "note": 83,
      "start": 23.0499,
      "duration": 0.0578,
      "velocity": 127,
      "chip": "ym2612"
    },
    {
      "channel": 5,
      "note": 83,
      "start": 23.137,
      "duration": 0.0541,
      "velocity": 127,
      "chip": "ym2612"
    },
    {
      "channel": 1,
      "note": 65,
      "start": 23.2189,
      "duration": 0.1372,
      "velocity": 106,
      "chip": "ym2612"
    },
    {
      "channel": 3,
      "note": 63,
      "start": 23.2211,
      "duration": 0.0525,
      "velocity": 107,
      "chip": "ym2612"
    },
    {
      "channel": 4,
      "note": 61,
      "start": 23.2227,
      "duration": 0.1344,
      "velocity": 106,
      "chip": "ym2612"
    },
    {
      "channel": 5,
      "note": 83,
      "start": 23.2245,
      "duration": 0.0494,
      "velocity": 127,
      "chip": "ym2612"
    },
    {
      "channel": 3,
      "note": 63,
      "start": 23.3027,
      "duration": 0.0541,
      "velocity": 107,
      "chip": "ym2612"
    },
    {
      "channel": 5,
      "note": 83,
      "start": 23.3046,
      "duration": 0.0527,
      "velocity": 127,
      "chip": "ym2612"
    },
    {
      "channel": 0,
      "note": 66,
      "start": 23.3851,
      "duration": 2.0197,
      "velocity": 101,
      "chip": "ym2612"
    },
    {
      "channel": 1,
      "note": 66,
      "start": 23.3867,
      "duration": 0.4954,
      "velocity": 106,
      "chip": "ym2612"
    },
    {
      "channel": 2,
      "note": 71,
      "start": 23.3919,
      "duration": 0.0201,
      "velocity": 127,
      "chip": "ym2612"
    },
    {
      "channel": 3,
      "note": 51,
      "start": 23.3937,
      "duration": 0.143,
      "velocity": 107,
      "chip": "ym2612"
    },
    {
      "channel": 4,
      "note": 63,
      "start": 23.3953,
      "duration": 0.4878,
      "velocity": 106,
      "chip": "ym2612"
    },
    {
      "channel": 5,
      "note": 83,
      "start": 23.4005,
      "duration": 0.0532,
      "velocity": 127,
      "chip": "ym2612"
    },
    {
      "channel": 5,
      "note": 83,
      "start": 23.4832,
      "duration": 0.0537,
      "velocity": 127,
      "chip": "ym2612"
    },
    {
      "channel": 3,
      "note": 63,
      "start": 23.5672,
      "duration": 0.0525,
      "velocity": 107,
      "chip": "ym2612"
    },
    {
      "channel": 5,
      "note": 83,
      "start": 23.569,
      "duration": 0.0509,
      "velocity": 127,
      "chip": "ym2612"
    },
    {
      "channel": 3,
      "note": 63,
      "start": 23.6489,
      "duration": 0.054,
      "velocity": 107,
      "chip": "ym2612"
    },
    {
      "channel": 5,
      "note": 83,
      "start": 23.6508,
      "duration": 0.0524,
      "velocity": 127,
      "chip": "ym2612"
    },
    {
      "channel": 2,
      "note": 61,
      "start": 23.7363,
      "duration": 0.0218,
      "velocity": 127,
      "chip": "ym2612"
    },
    {
      "channel": 3,
      "note": 51,
      "start": 23.7381,
      "duration": 0.1446,
      "velocity": 107,
      "chip": "ym2612"
    },
    {
      "channel": 5,
      "note": 83,
      "start": 23.7434,
      "duration": 0.0564,
      "velocity": 127,
      "chip": "ym2612"
    },
    {
      "channel": 2,
      "note": 61,
      "start": 23.8286,
      "duration": 0.0125,
      "velocity": 127,
      "chip": "ym2612"
    },
    {
      "channel": 5,
      "note": 83,
      "start": 23.8306,
      "duration": 0.0527,
      "velocity": 127,
      "chip": "ym2612"
    },
    {
      "channel": 1,
      "note": 68,
      "start": 23.9112,
      "duration": 0.137,
      "velocity": 106,
      "chip": "ym2612"
    },
    {
      "channel": 2,
      "note": 61,
      "start": 23.9132,
      "duration": 0.0113,
      "velocity": 127,
      "chip": "ym2612"
    },
    {
      "channel": 3,
      "note": 63,
      "start": 23.9149,
      "duration": 0.0509,
      "velocity": 107,
      "chip": "ym2612"
    },
    {
      "channel": 4,
      "note": 65,
      "start": 23.9165,
      "duration": 0.1326,
      "velocity": 106,
      "chip": "ym2612"
    },
    {
      "channel": 5,
      "note": 83,
      "start": 23.9183,
      "duration": 0.0478,
      "velocity": 127,
      "chip": "ym2612"
    },
    {
      "channel": 3,
      "note": 63,
      "start": 23.9948,
      "duration": 0.0541,
      "velocity": 107,
      "chip": "ym2612"
    },
    {
      "channel": 5,
      "note": 83,
      "start": 23.9967,
      "duration": 0.0526,
      "velocity": 127,
      "chip": "ym2612"
    },
    {
      "channel": 1,
      "note": 66,
      "start": 24.0773,
      "duration": 0.1509,
      "velocity": 106,
      "chip": "ym2612"
    },
    {
      "channel": 2,
      "note": 71,
      "start": 24.0825,
      "duration": 0.0216,
      "velocity": 127,
      "chip": "ym2612"
    },
    {
      "channel": 3,
      "note": 51,
      "start": 24.0843,
      "duration": 0.1446,
      "velocity": 107,
      "chip": "ym2612"
    },
    {
      "channel": 4,
      "note": 63,
      "start": 24.0859,
      "duration": 0.1432,
      "velocity": 106,
      "chip": "ym2612"
    },
    {
      "channel": 5,
      "note": 83,
      "start": 24.0911,
      "duration": 0.0552,
      "velocity": 127,
      "chip": "ym2612"
    },
    {
      "channel": 5,
      "note": 83,
      "start": 24.1751,
      "duration": 0.0541,
      "velocity": 127,
      "chip": "ym2612"
    },
    {
      "channel": 1,
      "note": 65,
      "start": 24.2572,
      "duration": 0.137,
      "velocity": 106,
      "chip": "ym2612"
    },
    {
      "channel": 3,
      "note": 63,
      "start": 24.2594,
      "duration": 0.0524,
      "velocity": 107,
      "chip": "ym2612"
    },
    {
      "channel": 4,
      "note": 61,
      "start": 24.261,
      "duration": 0.1342,
      "velocity": 106,
      "chip": "ym2612"
    },
    {
      "channel": 5,
      "note": 83,
      "start": 24.2627,
      "duration": 0.0494,
      "velocity": 127,
      "chip": "ym2612"
    },
    {
      "channel": 3,
      "note": 63,
      "start": 24.3409,
      "duration": 0.0541,
      "velocity": 107,
      "chip": "ym2612"
    },
    {
      "channel": 5,
      "note": 83,
      "start": 24.3428,
      "duration": 0.0526,
      "velocity": 127,
      "chip": "ym2612"
    },
    {
      "channel": 1,
      "note": 61,
      "start": 24.4248,
      "duration": 0.814,
      "velocity": 106,
      "chip": "ym2612"
    },
    {
      "channel": 2,
      "note": 61,
      "start": 24.4301,
      "duration": 0.0202,
      "velocity": 127,
      "chip": "ym2612"
    },
    {
      "channel": 3,
      "note": 51,
      "start": 24.4319,
      "duration": 0.1429,
      "velocity": 107,
      "chip": "ym2612"
    },
    {
      "channel": 4,
      "note": 58,
      "start": 24.4336,
      "duration": 0.8061,
      "velocity": 106,
      "chip": "ym2612"
    },
    {
      "channel": 5,
      "note": 83,
      "start": 24.4388,
      "duration": 0.0532,
      "velocity": 127,
      "chip": "ym2612"
    },
    {
      "channel": 5,
      "note": 83,
      "start": 24.5213,
      "duration": 0.0539,
      "velocity": 127,
      "chip": "ym2612"
    },
    {
      "channel": 3,
      "note": 63,
      "start": 24.6054,
      "duration": 0.0525,
      "velocity": 107,
      "chip": "ym2612"
    },
    {
      "channel": 5,
      "note": 83,
      "start": 24.6088,
      "duration": 0.0495,
      "velocity": 127,
      "chip": "ym2612"
    },
    {
      "channel": 3,
      "note": 63,
      "start": 24.687,
      "duration": 0.054,
      "velocity": 107,
      "chip": "ym2612"
    },
    {
      "channel": 5,
      "note": 83,
      "start": 24.6889,
      "duration": 0.0524,
      "velocity": 127,
      "chip": "ym2612"
    },
    {
      "channel": 2,
      "note": 71,
      "start": 24.7731,
      "duration": 0.0094,
      "velocity": 127,
      "chip": "ym2612"
    },
    {
      "channel": 3,
      "note": 51,
      "start": 24.7749,
      "duration": 0.1323,
      "velocity": 107,
      "chip": "ym2612"
    },
    {
      "channel": 5,
      "note": 83,
      "start": 24.7802,
      "duration": 0.0443,
      "velocity": 127,
      "chip": "ym2612"
    },
    {
      "channel": 5,
      "note": 83,
      "start": 24.8535,
      "duration": 0.0539,
      "velocity": 127,
      "chip": "ym2612"
    },
    {
      "channel": 3,
      "note": 63,
      "start": 24.9362,
      "duration": 0.0539,
      "velocity": 107,
      "chip": "ym2612"
    },
    {
      "channel": 5,
      "note": 83,
      "start": 24.9381,
      "duration": 0.0524,
      "velocity": 127,
      "chip": "ym2612"
    },
    {
      "channel": 3,
      "note": 63,
      "start": 25.0193,
      "duration": 0.054,
      "velocity": 107,
      "chip": "ym2612"
    },
    {
      "channel": 5,
      "note": 83,
      "start": 25.0212,
      "duration": 0.0524,
      "velocity": 127,
      "chip": "ym2612"
    },
    {
      "channel": 2,
      "note": 61,
      "start": 25.1054,
      "duration": 0.0095,
      "velocity": 127,
      "chip": "ym2612"
    },
    {
      "channel": 3,
      "note": 51,
      "start": 25.1072,
      "duration": 0.1323,
      "velocity": 107,
      "chip": "ym2612"
    },
    {
      "channel": 5,
      "note": 83,
      "start": 25.1125,
      "duration": 0.044,
      "velocity": 127,
      "chip": "ym2612"
    },
    {
      "channel": 2,
      "note": 61,
      "start": 25.1853,
      "duration": 0.0125,
      "velocity": 127,
      "chip": "ym2612"
    },
    {
      "channel": 5,
      "note": 83,
      "start": 25.1871,
      "duration": 0.0528,
      "velocity": 127,
      "chip": "ym2612"
    },
    {
      "channel": 1,
      "note": 61,
      "start": 25.2679,
      "duration": 0.137,
      "velocity": 106,
      "chip": "ym2612"
    },
    {
      "channel": 2,
      "note": 61,
      "start": 25.2699,
      "duration": 0.011,
      "velocity": 127,
      "chip": "ym2612"
    },
    {
      "channel": 3,
      "note": 63,
      "start": 25.2716,
      "duration": 0.0508,
      "velocity": 107,
      "chip": "ym2612"
    },
    {
      "channel": 4,
      "note": 58,
      "start": 25.2732,
      "duration": 0.1326,
      "velocity": 106,
      "chip": "ym2612"
    },
    {
      "channel": 5,
      "note": 83,
      "start": 25.278,
      "duration": 0.1281,
      "velocity": 127,
      "chip": "ym2612"
    },
    {
      "channel": 3,
      "note": 63,
      "start": 25.3516,
      "duration": 0.0541,
      "velocity": 107,
      "chip": "ym2612"
    },
    {
      "channel": 0,
      "note": 78,
      "start": 25.4341,
      "duration": 0.3172,
      "velocity": 101,
      "chip": "ym2612"
    },
    {
      "channel": 1,
      "note": 63,
      "start": 25.4357,
      "duration": 0.1496,
      "velocity": 106,
      "chip": "ym2612"
    },
    {
      "channel": 2,
      "note": 71,
      "start": 25.441,
      "duration": 0.0204,
      "velocity": 127,
      "chip": "ym2612"
    },
    {
      "channel": 3,
      "note": 51,
      "start": 25.4427,
      "duration": 0.1434,
      "velocity": 107,
      "chip": "ym2612"
    },
    {
      "channel": 4,
      "note": 59,
      "start": 25.4444,
      "duration": 0.1419,
      "velocity": 106,
      "chip": "ym2612"
    },
    {
      "channel": 5,
      "note": 83,
      "start": 25.4493,
      "duration": 0.0537,
      "velocity": 127,
      "chip": "ym2612"
    },
    {
      "channel": 5,
      "note": 83,
      "start": 25.5323,
      "duration": 0.0542,
      "velocity": 127,
      "chip": "ym2612"
    },
    {
      "channel": 1,
      "note": 65,
      "start": 25.6144,
      "duration": 0.1372,
      "velocity": 106,
      "chip": "ym2612"
    },
    {
      "channel": 3,
      "note": 63,
      "start": 25.6166,
      "duration": 0.0524,
      "velocity": 107,
      "chip": "ym2612"
    },
    {
      "channel": 4,
      "note": 61,
      "start": 25.6182,
      "duration": 0.1343,
      "velocity": 106,
      "chip": "ym2612"
    },
    {
      "channel": 5,
      "note": 83,
      "start": 25.623,
      "duration": 0.1297,
      "velocity": 127,
      "chip": "ym2612"
    },
    {
      "channel": 3,
      "note": 63,
      "start": 25.6981,
      "duration": 0.0542,
      "velocity": 107,
      "chip": "ym2612"
    },
    {
      "channel": 0,
      "note": 70,
      "start": 25.7806,
      "duration": 0.3165,
      "velocity": 101,
      "chip": "ym2612"
    },
    {
      "channel": 1,
      "note": 66,
      "start": 25.7822,
      "duration": 0.3151,
      "velocity": 106,
      "chip": "ym2612"
    },
    {
      "channel": 2,
      "note": 61,
      "start": 25.7876,
      "duration": 0.0193,
      "velocity": 127,
      "chip": "ym2612"
    },
    {
      "channel": 3,
      "note": 49,
      "start": 25.7895,
      "duration": 0.1425,
      "velocity": 107,
      "chip": "ym2612"
    },
    {
      "channel": 4,
      "note": 63,
      "start": 25.7911,
      "duration": 0.3071,
      "velocity": 106,
      "chip": "ym2612"
    },
    {
      "channel": 5,
      "note": 83,
      "start": 25.7965,
      "duration": 0.0523,
      "velocity": 127,
      "chip": "ym2612"
    },
    {
      "channel": 5,
      "note": 83,
      "start": 25.878,
      "duration": 0.0543,
      "velocity": 127,
      "chip": "ym2612"
    },
    {
      "channel": 3,
      "note": 61,
      "start": 25.9607,
      "duration": 0.0539,
      "velocity": 107,
      "chip": "ym2612"
    },
    {
      "channel": 5,
      "note": 83,
      "start": 25.9626,
      "duration": 0.0524,
      "velocity": 127,
      "chip": "ym2612"
    },
    {
      "channel": 3,
      "note": 61,
      "start": 26.0438,
      "duration": 0.0542,
      "velocity": 107,
      "chip": "ym2612"
    },
    {
      "channel": 5,
      "note": 83,
      "start": 26.0456,
      "duration": 0.0528,
      "velocity": 127,
      "chip": "ym2612"
    },
    {
      "channel": 0,
      "note": 58,
      "start": 26.1262,
      "duration": 2.3658,
      "velocity": 101,
      "chip": "ym2612"
    },
    {
      "channel": 1,
      "note": 65,
      "start": 26.1278,
      "duration": 0.1493,
      "velocity": 106,
      "chip": "ym2612"
    },
    {
      "channel": 2,
      "note": 71,
      "start": 26.133,
      "duration": 0.0204,
      "velocity": 127,
      "chip": "ym2612"
    },
    {
      "channel": 3,
      "note": 49,
      "start": 26.1348,
      "duration": 0.143,
      "velocity": 107,
      "chip": "ym2612"
    },
    {
      "channel": 4,
      "note": 61,
      "start": 26.1364,
      "duration": 0.1416,
      "velocity": 106,
      "chip": "ym2612"
    },
    {
      "channel": 5,
      "note": 83,
      "start": 26.1416,
      "duration": 0.0532,
      "velocity": 127,
      "chip": "ym2612"
    },
    {
      "channel": 5,
      "note": 83,
      "start": 26.2241,
      "duration": 0.0541,
      "velocity": 127,
      "chip": "ym2612"
    },
    {
      "channel": 1,
      "note": 66,
      "start": 26.3076,
      "duration": 0.3155,
      "velocity": 106,
      "chip": "ym2612"
    },
    {
      "channel": 3,
      "note": 61,
      "start": 26.3098,
      "duration": 0.051,
      "velocity": 107,
      "chip": "ym2612"
    },
    {
      "channel": 4,
      "note": 63,
      "start": 26.3114,
      "duration": 0.3127,
      "velocity": 106,
      "chip": "ym2612"
    },
    {
      "channel": 5,
      "note": 83,
      "start": 26.3132,
      "duration": 0.0478,
      "velocity": 127,
      "chip": "ym2612"
    },
    {
      "channel": 3,
      "note": 61,
      "start": 26.3899,
      "duration": 0.054,
      "velocity": 107,
      "chip": "ym2612"
    },
    {
      "channel": 5,
      "note": 83,
      "start": 26.3918,
      "duration": 0.0523,
      "velocity": 127,
      "chip": "ym2612"
    },
    {
      "channel": 2,
      "note": 61,
      "start": 26.4774,
      "duration": 0.0219,
      "velocity": 127,
      "chip": "ym2612"
    },
    {
      "channel": 3,
      "note": 49,
      "start": 26.4792,
      "duration": 0.1447,
      "velocity": 107,
      "chip": "ym2612"
    },
    {
      "channel": 5,
      "note": 83,
      "start": 26.4845,
      "duration": 0.0564,
      "velocity": 127,
      "chip": "ym2612"
    },
    {
      "channel": 2,
      "note": 61,
      "start": 26.5697,
      "duration": 0.0125,
      "velocity": 127,
      "chip": "ym2612"
    },
    {
      "channel": 5,
      "note": 83,
      "start": 26.5717,
      "duration": 0.0526,
      "velocity": 127,
      "chip": "ym2612"
    },
    {
      "channel": 1,
      "note": 68,
      "start": 26.6523,
      "duration": 0.4693,
      "velocity": 106,
      "chip": "ym2612"
    },
    {
      "channel": 2,
      "note": 61,
      "start": 26.6543,
      "duration": 0.011,
      "velocity": 127,
      "chip": "ym2612"
    },
    {
      "channel": 3,
      "note": 61,
      "start": 26.6559,
      "duration": 0.0509,
      "velocity": 107,
      "chip": "ym2612"
    },
    {
      "channel": 4,
      "note": 65,
      "start": 26.6576,
      "duration": 0.4648,
      "velocity": 106,
      "chip": "ym2612"
    },
    {
      "channel": 5,
      "note": 83,
      "start": 26.6594,
      "duration": 0.0478,
      "velocity": 127,
      "chip": "ym2612"
    },
    {
      "channel": 3,
      "note": 61,
      "start": 26.7359,
      "duration": 0.054,
      "velocity": 107,
      "chip": "ym2612"
    },
    {
      "channel": 5,
      "note": 83,
      "start": 26.7378,
      "duration": 0.0524,
      "velocity": 127,
      "chip": "ym2612"
    },
    {
      "channel": 2,
      "note": 71,
      "start": 26.8227,
      "duration": 0.0093,
      "velocity": 127,
      "chip": "ym2612"
    },
    {
      "channel": 3,
      "note": 49,
      "start": 26.8245,
      "duration": 0.1315,
      "velocity": 107,
      "chip": "ym2612"
    },
    {
      "channel": 5,
      "note": 83,
      "start": 26.8298,
      "duration": 0.0434,
      "velocity": 127,
      "chip": "ym2612"
    },
    {
      "channel": 5,
      "note": 83,
      "start": 26.9024,
      "duration": 0.0539,
      "velocity": 127,
      "chip": "ym2612"
    },
    {
      "channel": 3,
      "note": 61,
      "start": 26.9851,
      "duration": 0.0547,
      "velocity": 107,
      "chip": "ym2612"
    },
    {
      "channel": 5,
      "note": 83,
      "start": 26.987,
      "duration": 0.0532,
      "velocity": 127,
      "chip": "ym2612"
    },
    {
      "channel": 3,
      "note": 61,
      "start": 27.0682,
      "duration": 0.054,
      "velocity": 107,
      "chip": "ym2612"
    },
    {
      "channel": 5,
      "note": 83,
      "start": 27.0701,
      "duration": 0.0526,
      "velocity": 127,
      "chip": "ym2612"
    },
    {
      "channel": 1,
      "note": 70,
      "start": 27.1521,
      "duration": 0.3155,
      "velocity": 106,
      "chip": "ym2612"
    },
    {
      "channel": 2,
      "note": 61,
      "start": 27.1575,
      "duration": 0.02,
      "velocity": 127,
      "chip": "ym2612"
    },
    {
      "channel": 3,
      "note": 46,
      "start": 27.1594,
      "duration": 0.1427,
      "velocity": 107,
      "chip": "ym2612"
    },
    {
      "channel": 4,
      "note": 66,
      "start": 27.161,
      "duration": 0.3075,
      "velocity": 106,
      "chip": "ym2612"
    },
    {
      "channel": 5,
      "note": 83,
      "start": 27.1663,
      "duration": 0.0529,
      "velocity": 127,
      "chip": "ym2612"
    },
    {
      "channel": 5,
      "note": 83,
      "start": 27.2485,
      "duration": 0.0539,
      "velocity": 127,
      "chip": "ym2612"
    },
    {
      "channel": 3,
      "note": 58,
      "start": 27.3312,
      "duration": 0.054,
      "velocity": 107,
      "chip": "ym2612"
    },
    {
      "channel": 5,
      "note": 83,
      "start": 27.3332,
      "duration": 0.0523,
      "velocity": 127,
      "chip": "ym2612"
    },
    {
      "channel": 3,
      "note": 58,
      "start": 27.4142,
      "duration": 0.0541,
      "velocity": 107,
      "chip": "ym2612"
    },
    {
      "channel": 5,
      "note": 83,
      "start": 27.4162,
      "duration": 0.0525,
      "velocity": 127,
      "chip": "ym2612"
    },
    {
      "channel": 1,
      "note": 68,
      "start": 27.4968,
      "duration": 0.1507,
      "velocity": 106,
      "chip": "ym2612"
    },
    {
      "channel": 2,
      "note": 71,
      "start": 27.5021,
      "duration": 0.0215,
      "velocity": 127,
      "chip": "ym2612"
    },
    {
      "channel": 3,
      "note": 46,
      "start": 27.5039,
      "duration": 0.1445,
      "velocity": 107,
      "chip": "ym2612"
    },
    {
      "channel": 4,
      "note": 65,
      "start": 27.5055,
      "duration": 0.143,
      "velocity": 106,
      "chip": "ym2612"
    },
    {
      "channel": 5,
      "note": 83,
      "start": 27.5107,
      "duration": 0.0546,
      "velocity": 127,
      "chip": "ym2612"
    },
    {
      "channel": 5,
      "note": 83,
      "start": 27.5946,
      "duration": 0.0541,
      "velocity": 127,
      "chip": "ym2612"
    },
    {
      "channel": 1,
      "note": 66,
      "start": 27.6767,
      "duration": 0.4693,
      "velocity": 106,
      "chip": "ym2612"
    },
    {
      "channel": 3,
      "note": 58,
      "start": 27.6788,
      "duration": 0.0524,
      "velocity": 107,
      "chip": "ym2612"
    },
    {
      "channel": 4,
      "note": 63,
      "start": 27.6805,
      "duration": 0.4665,
      "velocity": 106,
      "chip": "ym2612"
    },
    {
      "channel": 5,
      "note": 83,
      "start": 27.6823,
      "duration": 0.0493,
      "velocity": 127,
      "chip": "ym2612"
    },
    {
      "channel": 3,
      "note": 58,
      "start": 27.7603,
      "duration": 0.0541,
      "velocity": 107,
      "chip": "ym2612"
    },
    {
      "channel": 5,
      "note": 83,
      "start": 27.7622,
      "duration": 0.0524,
      "velocity": 127,
      "chip": "ym2612"
    },
    {
      "channel": 2,
      "note": 61,
      "start": 27.8465,
      "duration": 0.0093,
      "velocity": 127,
      "chip": "ym2612"
    },
    {
      "channel": 3,
      "note": 46,
      "start": 27.8483,
      "duration": 0.1322,
      "velocity": 107,
      "chip": "ym2612"
    },
    {
      "channel": 5,
      "note": 83,
      "start": 27.8536,
      "duration": 0.0441,
      "velocity": 127,
      "chip": "ym2612"
    },
    {
      "channel": 2,
      "note": 61,
      "start": 27.9264,
      "duration": 0.0128,
      "velocity": 127,
      "chip": "ym2612"
    },
    {
      "channel": 5,
      "note": 83,
      "start": 27.9282,
      "duration": 0.0525,
      "velocity": 127,
      "chip": "ym2612"
    },
    {
      "channel": 2,
      "note": 61,
      "start": 28.0095,
      "duration": 0.0125,
      "velocity": 127,
      "chip": "ym2612"
    },
    {
      "channel": 3,
      "note": 58,
      "start": 28.0111,
      "duration": 0.0525,
      "velocity": 107,
      "chip": "ym2612"
    },
    {
      "channel": 5,
      "note": 83,
      "start": 28.016,
      "duration": 0.1312,
      "velocity": 127,
      "chip": "ym2612"
    },
    {
      "channel": 3,
      "note": 58,
      "start": 28.0926,
      "duration": 0.0541,
      "velocity": 107,
      "chip": "ym2612"
    },
    {
      "channel": 1,
      "note": 65,
      "start": 28.175,
      "duration": 0.3171,
      "velocity": 106,
      "chip": "ym2612"
    },
    {
      "channel": 2,
      "note": 71,
      "start": 28.1803,
      "duration": 0.0217,
      "velocity": 127,
      "chip": "ym2612"
    },
    {
      "channel": 3,
      "note": 46,
      "start": 28.182,
      "duration": 0.1446,
      "velocity": 107,
      "chip": "ym2612"
    },
    {
      "channel": 4,
      "note": 61,
      "start": 28.1837,
      "duration": 0.3094,
      "velocity": 106,
      "chip": "ym2612"
    },
    {
      "channel": 5,
      "note": 83,
      "start": 28.1886,
      "duration": 0.0551,
      "velocity": 127,
      "chip": "ym2612"
    },
    {
      "channel": 5,
      "note": 83,
      "start": 28.2728,
      "duration": 0.0541,
      "velocity": 127,
      "chip": "ym2612"
    },
    {
      "channel": 3,
      "note": 58,
      "start": 28.3557,
      "duration": 0.0539,
      "velocity": 107,
      "chip": "ym2612"
    },
    {
      "channel": 5,
      "note": 83,
      "start": 28.3605,
      "duration": 0.1328,
      "velocity": 127,
      "chip": "ym2612"
    },
    {
      "channel": 3,
      "note": 58,
      "start": 28.4387,
      "duration": 0.0542,
      "velocity": 107,
      "chip": "ym2612"
    },
    {
      "channel": 0,
      "note": 78,
      "start": 28.5214,
      "duration": 0.3167,
      "velocity": 101,
      "chip": "ym2612"
    },
    {
      "channel": 1,
      "note": 66,
      "start": 28.5233,
      "duration": 0.1488,
      "velocity": 106,
      "chip": "ym2612"
    },
    {
      "channel": 2,
      "note": 61,
      "start": 28.5291,
      "duration": 0.019,
      "velocity": 127,
      "chip": "ym2612"
    },
    {
      "channel": 3,
      "note": 51,
      "start": 28.5313,
      "duration": 0.1415,
      "velocity": 107,
      "chip": "ym2612"
    },
    {
      "channel": 4,
      "note": 63,
      "start": 28.5333,
      "duration": 0.1398,
      "velocity": 106,
      "chip": "ym2612"
    },
    {
      "channel": 5,
      "note": 83,
      "start": 28.539,
      "duration": 0.0508,
      "velocity": 127,
      "chip": "ym2612"
    },
    {
      "channel": 5,
      "note": 83,
      "start": 28.6191,
      "duration": 0.0541,
      "velocity": 127,
      "chip": "ym2612"
    },
    {
      "channel": 1,
      "note": 65,
      "start": 28.7011,
      "duration": 0.1372,
      "velocity": 106,
      "chip": "ym2612"
    },
    {
      "channel": 3,
      "note": 63,
      "start": 28.7033,
      "duration": 0.0525,
      "velocity": 107,
      "chip": "ym2612"
    },
    {
      "channel": 4,
      "note": 61,
      "start": 28.7049,
      "duration": 0.1343,
      "velocity": 106,
      "chip": "ym2612"
    },
    {
      "channel": 5,
      "note": 83,
      "start": 28.7067,
      "duration": 0.0493,
      "velocity": 127,
      "chip": "ym2612"
    },
    {
      "channel": 3,
      "note": 63,
      "start": 28.7849,
      "duration": 0.0541,
      "velocity": 107,
      "chip": "ym2612"
    },
    {
      "channel": 5,
      "note": 83,
      "start": 28.7868,
      "duration": 0.0527,
      "velocity": 127,
      "chip": "ym2612"
    },
    {
      "channel": 0,
      "note": 66,
      "start": 28.8673,
      "duration": 1.189,
      "velocity": 101,
      "chip": "ym2612"
    },
    {
      "channel": 1,
      "note": 66,
      "start": 28.8689,
      "duration": 0.4953,
      "velocity": 106,
      "chip": "ym2612"
    },
    {
      "channel": 2,
      "note": 71,
      "start": 28.8741,
      "duration": 0.0201,
      "velocity": 127,
      "chip": "ym2612"
    },
    {
      "channel": 3,
      "note": 51,
      "start": 28.8759,
      "duration": 0.143,
      "velocity": 107,
      "chip": "ym2612"
    },
    {
      "channel": 4,
      "note": 63,
      "start": 28.8775,
      "duration": 0.4877,
      "velocity": 106,
      "chip": "ym2612"
    },
    {
      "channel": 5,
      "note": 83,
      "start": 28.8827,
      "duration": 0.0532,
      "velocity": 127,
      "chip": "ym2612"
    },
    {
      "channel": 5,
      "note": 83,
      "start": 28.9653,
      "duration": 0.0538,
      "velocity": 127,
      "chip": "ym2612"
    },
    {
      "channel": 3,
      "note": 63,
      "start": 29.0502,
      "duration": 0.0517,
      "velocity": 107,
      "chip": "ym2612"
    },
    {
      "channel": 5,
      "note": 83,
      "start": 29.052,
      "duration": 0.0501,
      "velocity": 127,
      "chip": "ym2612"
    },
    {
      "channel": 3,
      "note": 63,
      "start": 29.131,
      "duration": 0.054,
      "velocity": 107,
      "chip": "ym2612"
    },
    {
      "channel": 5,
      "note": 83,
      "start": 29.1329,
      "duration": 0.0524,
      "velocity": 127,
      "chip": "ym2612"
    },
    {
      "channel": 2,
      "note": 61,
      "start": 29.2185,
      "duration": 0.0217,
      "velocity": 127,
      "chip": "ym2612"
    },
    {
      "channel": 3,
      "note": 51,
      "start": 29.2203,
      "duration": 0.1447,
      "velocity": 107,
      "chip": "ym2612"
    },
    {
      "channel": 5,
      "note": 83,
      "start": 29.2256,
      "duration": 0.0566,
      "velocity": 127,
      "chip": "ym2612"
    },
    {
      "channel": 2,
      "note": 61,
      "start": 29.3108,
      "duration": 0.0125,
      "velocity": 127,
      "chip": "ym2612"
    },
    {
      "channel": 5,
      "note": 83,
      "start": 29.3127,
      "duration": 0.0526,
      "velocity": 127,
      "chip": "ym2612"
    },
    {
      "channel": 1,
      "note": 68,
      "start": 29.3948,
      "duration": 0.1357,
      "velocity": 106,
      "chip": "ym2612"
    },
    {
      "channel": 2,
      "note": 61,
      "start": 29.3968,
      "duration": 0.0096,
      "velocity": 127,
      "chip": "ym2612"
    },
    {
      "channel": 3,
      "note": 63,
      "start": 29.3984,
      "duration": 0.0495,
      "velocity": 107,
      "chip": "ym2612"
    },
    {
      "channel": 4,
      "note": 65,
      "start": 29.4002,
      "duration": 0.1312,
      "velocity": 106,
      "chip": "ym2612"
    },
    {
      "channel": 5,
      "note": 83,
      "start": 29.402,
      "duration": 0.0463,
      "velocity": 127,
      "chip": "ym2612"
    },
    {
      "channel": 3,
      "note": 63,
      "start": 29.477,
      "duration": 0.0542,
      "velocity": 107,
      "chip": "ym2612"
    },
    {
      "channel": 5,
      "note": 83,
      "start": 29.4788,
      "duration": 0.0527,
      "velocity": 127,
      "chip": "ym2612"
    },
    {
      "channel": 1,
      "note": 66,
      "start": 29.5595,
      "duration": 0.1509,
      "velocity": 106,
      "chip": "ym2612"
    },
    {
      "channel": 2,
      "note": 71,
      "start": 29.5647,
      "duration": 0.0217,
      "velocity": 127,
      "chip": "ym2612"
    },
    {
      "channel": 3,
      "note": 51,
      "start": 29.5664,
      "duration": 0.1446,
      "velocity": 107,
      "chip": "ym2612"
    },
    {
      "channel": 4,
      "note": 63,
      "start": 29.5681,
      "duration": 0.1432,
      "velocity": 106,
      "chip": "ym2612"
    },
    {
      "channel": 5,
      "note": 83,
      "start": 29.5732,
      "duration": 0.0549,
      "velocity": 127,
      "chip": "ym2612"
    },
    {
      "channel": 5,
      "note": 83,
      "start": 29.6573,
      "duration": 0.0541,
      "velocity": 127,
      "chip": "ym2612"
    },
    {
      "channel": 1,
      "note": 65,
      "start": 29.7394,
      "duration": 0.137,
      "velocity": 106,
      "chip": "ym2612"
    },
    {
      "channel": 3,
      "note": 63,
      "start": 29.7416,
      "duration": 0.0524,
      "velocity": 107,
      "chip": "ym2612"
    },
    {
      "channel": 4,
      "note": 61,
      "start": 29.7432,
      "duration": 0.1342,
      "velocity": 106,
      "chip": "ym2612"
    },
    {
      "channel": 5,
      "note": 83,
      "start": 29.7449,
      "duration": 0.0494,
      "velocity": 127,
      "chip": "ym2612"
    },
    {
      "channel": 3,
      "note": 63,
      "start": 29.8231,
      "duration": 0.0541,
      "velocity": 107,
      "chip": "ym2612"
    },
    {
      "channel": 5,
      "note": 83,
      "start": 29.825,
      "duration": 0.0526,
      "velocity": 127,
      "chip": "ym2612"
    },
    {
      "channel": 1,
      "note": 61,
      "start": 29.9056,
      "duration": 0.8432,
      "velocity": 106,
      "chip": "ym2612"
    },
    {
      "channel": 2,
      "note": 61,
      "start": 29.9109,
      "duration": 0.0216,
      "velocity": 127,
      "chip": "ym2612"
    },
    {
      "channel": 3,
      "note": 51,
      "start": 29.9127,
      "duration": 0.1445,
      "velocity": 107,
      "chip": "ym2612"
    },
    {
      "channel": 4,
      "note": 58,
      "start": 29.9144,
      "duration": 0.8354,
      "velocity": 106,
      "chip": "ym2612"
    },
    {
      "channel": 5,
      "note": 83,
      "start": 29.9196,
      "duration": 0.0546,
      "velocity": 127,
      "chip": "ym2612"
    },
    {
      "channel": 5,
      "note": 83,
      "start": 30.0035,
      "duration": 0.054,
      "velocity": 127,
      "chip": "ym2612"
    },
    {
      "channel": 0,
      "note": 73,
      "start": 30.0855,
      "duration": 0.137,
      "velocity": 101,
      "chip": "ym2612"
    },
    {
      "channel": 3,
      "note": 63,
      "start": 30.0892,
      "duration": 0.0509,
      "velocity": 107,
      "chip": "ym2612"
    },
    {
      "channel": 5,
      "note": 83,
      "start": 30.0925,
      "duration": 0.0479,
      "velocity": 127,
      "chip": "ym2612"
    },
    {
      "channel": 3,
      "note": 63,
      "start": 30.1697,
      "duration": 0.0537,
      "velocity": 107,
      "chip": "ym2612"
    },
    {
      "channel": 5,
      "note": 83,
      "start": 30.1716,
      "duration": 0.052,
      "velocity": 127,
      "chip": "ym2612"
    },
    {
      "channel": 0,
      "note": 75,
      "start": 30.2516,
      "duration": 0.1509,
      "velocity": 101,
      "chip": "ym2612"
    },
    {
      "channel": 2,
      "note": 71,
      "start": 30.2569,
      "duration": 0.0217,
      "velocity": 127,
      "chip": "ym2612"
    },
    {
      "channel": 3,
      "note": 51,
      "start": 30.2587,
      "duration": 0.1446,
      "velocity": 107,
      "chip": "ym2612"
    },
    {
      "channel": 5,
      "note": 83,
      "start": 30.264,
      "duration": 0.0563,
      "velocity": 127,
      "chip": "ym2612"
    },
    {
      "channel": 5,
      "note": 83,
      "start": 30.3497,
      "duration": 0.0539,
      "velocity": 127,
      "chip": "ym2612"
    },
    {
      "channel": 0,
      "note": 77,
      "start": 30.4316,
      "duration": 0.137,
      "velocity": 101,
      "chip": "ym2612"
    },
    {
      "channel": 3,
      "note": 63,
      "start": 30.4339,
      "duration": 0.0524,
      "velocity": 107,
      "chip": "ym2612"
    },
    {
      "channel": 5,
      "note": 83,
      "start": 30.4358,
      "duration": 0.0508,
      "velocity": 127,
      "chip": "ym2612"
    },
    {
      "channel": 3,
      "note": 63,
      "start": 30.5154,
      "duration": 0.0541,
      "velocity": 107,
      "chip": "ym2612"
    },
    {
      "channel": 5,
      "note": 83,
      "start": 30.5173,
      "duration": 0.0524,
      "velocity": 127,
      "chip": "ym2612"
    },
    {
      "channel": 0,
      "note": 78,
      "start": 30.5977,
      "duration": 0.1508,
      "velocity": 101,
      "chip": "ym2612"
    },
    {
      "channel": 2,
      "note": 61,
      "start": 30.6031,
      "duration": 0.0216,
      "velocity": 127,
      "chip": "ym2612"
    },
    {
      "channel": 3,
      "note": 51,
      "start": 30.6049,
      "duration": 0.1446,
      "velocity": 107,
      "chip": "ym2612"
    },
    {
      "channel": 5,
      "note": 83,
      "start": 30.6101,
      "duration": 0.0563,
      "velocity": 127,
      "chip": "ym2612"
    },
    {
      "channel": 2,
      "note": 61,
      "start": 30.6953,
      "duration": 0.0125,
      "velocity": 127,
      "chip": "ym2612"
    },
    {
      "channel": 5,
      "note": 83,
      "start": 30.6971,
      "duration": 0.0529,
      "velocity": 127,
      "chip": "ym2612"
    },
    {
      "channel": 0,
      "note": 77,
      "start": 30.7777,
      "duration": 0.1508,
      "velocity": 101,
      "chip": "ym2612"
    },
    {
      "channel": 1,
      "note": 61,
      "start": 30.7793,
      "duration": 0.1495,
      "velocity": 106,
      "chip": "ym2612"
    },
    {
      "channel": 2,
      "note": 61,
      "start": 30.7814,
      "duration": 0.0232,
      "velocity": 127,
      "chip": "ym2612"
    },
    {
      "channel": 3,
      "note": 63,
      "start": 30.783,
      "duration": 0.0631,
      "velocity": 107,
      "chip": "ym2612"
    },
    {
      "channel": 4,
      "note": 58,
      "start": 30.7847,
      "duration": 0.145,
      "velocity": 106,
      "chip": "ym2612"
    },
    {
      "channel": 5,
      "note": 83,
      "start": 30.7895,
      "duration": 0.1405,
      "velocity": 127,
      "chip": "ym2612"
    },
    {
      "channel": 3,
      "note": 63,
      "start": 30.8753,
      "duration": 0.0542,
      "velocity": 107,
      "chip": "ym2612"
    },
    {
      "channel": 0,
      "note": 78,
      "start": 30.9577,
      "duration": 0.1508,
      "velocity": 101,
      "chip": "ym2612"
    },
    {
      "channel": 1,
      "note": 63,
      "start": 30.9593,
      "duration": 0.1494,
      "velocity": 106,
      "chip": "ym2612"
    },
    {
      "channel": 2,
      "note": 71,
      "start": 30.9645,
      "duration": 0.0202,
      "velocity": 127,
      "chip": "ym2612"
    },
    {
      "channel": 3,
      "note": 51,
      "start": 30.9663,
      "duration": 0.1432,
      "velocity": 107,
      "chip": "ym2612"
    },
    {
      "channel": 4,
      "note": 59,
      "start": 30.9679,
      "duration": 0.1417,
      "velocity": 106,
      "chip": "ym2612"
    },
    {
      "channel": 5,
      "note": 83,
      "start": 30.9728,
      "duration": 0.0536,
      "velocity": 127,
      "chip": "ym2612"
    },
    {
      "channel": 5,
      "note": 83,
      "start": 31.0563,
      "duration": 0.0536,
      "velocity": 127,
      "chip": "ym2612"
    },
    {
      "channel": 0,
      "note": 80,
      "start": 31.1376,
      "duration": 0.137,
      "velocity": 101,
      "chip": "ym2612"
    },
    {
      "channel": 1,
      "note": 65,
      "start": 31.1392,
      "duration": 0.1356,
      "velocity": 106,
      "chip": "ym2612"
    },
    {
      "channel": 3,
      "note": 63,
      "start": 31.1414,
      "duration": 0.0509,
      "velocity": 107,
      "chip": "ym2612"
    },
    {
      "channel": 4,
      "note": 61,
      "start": 31.143,
      "duration": 0.1328,
      "velocity": 106,
      "chip": "ym2612"
    },
    {
      "channel": 5,
      "note": 83,
      "start": 31.1477,
      "duration": 0.1283,
      "velocity": 127,
      "chip": "ym2612"
    },
    {
      "channel": 3,
      "note": 63,
      "start": 31.2214,
      "duration": 0.0541,
      "velocity": 107,
      "chip": "ym2612"
    },
    {
      "channel": 0,
      "note": 82,
      "start": 31.3038,
      "duration": 0.317,
      "velocity": 101,
      "chip": "ym2612"
    },
    {
      "channel": 1,
      "note": 70,
      "start": 31.3054,
      "duration": 0.3155,
      "velocity": 106,
      "chip": "ym2612"
    },
    {
      "channel": 2,
      "note": 61,
      "start": 31.3108,
      "duration": 0.0199,
      "velocity": 127,
      "chip": "ym2612"
    },
    {
      "channel": 3,
      "note": 49,
      "start": 31.3127,
      "duration": 0.1427,
      "velocity": 107,
      "chip": "ym2612"
    },
    {
      "channel": 4,
      "note": 66,
      "start": 31.3144,
      "duration": 0.3076,
      "velocity": 106,
      "chip": "ym2612"
    },
    {
      "channel": 5,
      "note": 83,
      "start": 31.3198,
      "duration": 0.0527,
      "velocity": 127,
      "chip": "ym2612"
    },
    {
      "channel": 5,
      "note": 83,
      "start": 31.4018,
      "duration": 0.0539,
      "velocity": 127,
      "chip": "ym2612"
    },
    {
      "channel": 3,
      "note": 61,
      "start": 31.4844,
      "duration": 0.0539,
      "velocity": 107,
      "chip": "ym2612"
    },
    {
      "channel": 5,
      "note": 83,
      "start": 31.4863,
      "duration": 0.0523,
      "velocity": 127,
      "chip": "ym2612"
    },
    {
      "channel": 3,
      "note": 61,
      "start": 31.5675,
      "duration": 0.0541,
      "velocity": 107,
      "chip": "ym2612"
    },
    {
      "channel": 5,
      "note": 83,
      "start": 31.5694,
      "duration": 0.0527,
      "velocity": 127,
      "chip": "ym2612"
    },
    {
      "channel": 0,
      "note": 70,
      "start": 31.6499,
      "duration": 1.7013,
      "velocity": 101,
      "chip": "ym2612"
    },
    {
      "channel": 1,
      "note": 68,
      "start": 31.6516,
      "duration": 0.3154,
      "velocity": 106,
      "chip": "ym2612"
    },
    {
      "channel": 2,
      "note": 71,
      "start": 31.6567,
      "duration": 0.0201,
      "velocity": 127,
      "chip": "ym2612"
    },
    {
      "channel": 3,
      "note": 49,
      "start": 31.6585,
      "duration": 0.1429,
      "velocity": 107,
      "chip": "ym2612"
    },
    {
      "channel": 4,
      "note": 65,
      "start": 31.6601,
      "duration": 0.3078,
      "velocity": 106,
      "chip": "ym2612"
    },
    {
      "channel": 5,
      "note": 83,
      "start": 31.6653,
      "duration": 0.0532,
      "velocity": 127,
      "chip": "ym2612"
    },
    {
      "channel": 5,
      "note": 83,
      "start": 31.7479,
      "duration": 0.0539,
      "velocity": 127,
      "chip": "ym2612"
    },
    {
      "channel": 3,
      "note": 61,
      "start": 31.8319,
      "duration": 0.0525,
      "velocity": 107,
      "chip": "ym2612"
    },
    {
      "channel": 5,
      "note": 83,
      "start": 31.8339,
      "duration": 0.0509,
      "velocity": 127,
      "chip": "ym2612"
    },
    {
      "channel": 3,
      "note": 61,
      "start": 31.9136,
      "duration": 0.0541,
      "velocity": 107,
      "chip": "ym2612"
    },
    {
      "channel": 5,
      "note": 83,
      "start": 31.9155,
      "duration": 0.0526,
      "velocity": 127,
      "chip": "ym2612"
    },
    {
      "channel": 1,
      "note": 66,
      "start": 31.9974,
      "duration": 0.3155,
      "velocity": 106,
      "chip": "ym2612"
    },
    {
      "channel": 2,
      "note": 61,
      "start": 32.0027,
      "duration": 0.0202,
      "velocity": 127,
      "chip": "ym2612"
    },
    {
      "channel": 3,
      "note": 49,
      "start": 32.0044,
      "duration": 0.1431,
      "velocity": 107,
      "chip": "ym2612"
    },
    {
      "channel": 4,
      "note": 63,
      "start": 32.0061,
      "duration": 0.3078,
      "velocity": 106,
      "chip": "ym2612"
    },
    {
      "channel": 5,
      "note": 83,
      "start": 32.0112,
      "duration": 0.0534,
      "velocity": 127,
      "chip": "ym2612"
    },
    {
      "channel": 2,
      "note": 61,
      "start": 32.0934,
      "duration": 0.0125,
      "velocity": 127,
      "chip": "ym2612"
    },
    {
      "channel": 5,
      "note": 83,
      "start": 32.0954,
      "duration": 0.0525,
      "velocity": 127,
      "chip": "ym2612"
    },
    {
      "channel": 2,
      "note": 61,
      "start": 32.1769,
      "duration": 0.0121,
      "velocity": 127,
      "chip": "ym2612"
    },
    {
      "channel": 3,
      "note": 61,
      "start": 32.1786,
      "duration": 0.052,
      "velocity": 107,
      "chip": "ym2612"
    },
    {
      "channel": 5,
      "note": 83,
      "start": 32.1805,
      "duration": 0.0503,
      "velocity": 127,
      "chip": "ym2612"
    },
    {
      "channel": 3,
      "note": 61,
      "start": 32.2596,
      "duration": 0.0541,
      "velocity": 107,
      "chip": "ym2612"
    },
    {
      "channel": 5,
      "note": 83,
      "start": 32.2615,
      "duration": 0.0526,
      "velocity": 127,
      "chip": "ym2612"
    },
    {
      "channel": 1,
      "note": 65,
      "start": 32.3421,
      "duration": 0.317,
      "velocity": 106,
      "chip": "ym2612"
    },
    {
      "channel": 2,
      "note": 71,
      "start": 32.3473,
      "duration": 0.0217,
      "velocity": 127,
      "chip": "ym2612"
    },
    {
      "channel": 3,
      "note": 49,
      "start": 32.3491,
      "duration": 0.1445,
      "velocity": 107,
      "chip": "ym2612"
    },
    {
      "channel": 4,
      "note": 61,
      "start": 32.3507,
      "duration": 0.3093,
      "velocity": 106,
      "chip": "ym2612"
    },
    {
      "channel": 5,
      "note": 83,
      "start": 32.3559,
      "duration": 0.0549,
      "velocity": 127,
      "chip": "ym2612"
    },
    {
      "channel": 5,
      "note": 83,
      "start": 32.44,
      "duration": 0.0539,
      "velocity": 127,
      "chip": "ym2612"
    },
    {
      "channel": 3,
      "note": 61,
      "start": 32.5227,
      "duration": 0.0539,
      "velocity": 107,
      "chip": "ym2612"
    },
    {
      "channel": 5,
      "note": 83,
      "start": 32.5246,
      "duration": 0.0524,
      "velocity": 127,
      "chip": "ym2612"
    },
    {
      "channel": 3,
      "note": 61,
      "start": 32.6058,
      "duration": 0.0541,
      "velocity": 107,
      "chip": "ym2612"
    },
    {
      "channel": 5,
      "note": 83,
      "start": 32.6076,
      "duration": 0.0526,
      "velocity": 127,
      "chip": "ym2612"
    },
    {
      "channel": 1,
      "note": 66,
      "start": 32.6896,
      "duration": 0.3156,
      "velocity": 106,
      "chip": "ym2612"
    },
    {
      "channel": 2,
      "note": 61,
      "start": 32.6949,
      "duration": 0.0202,
      "velocity": 127,
      "chip": "ym2612"
    },
    {
      "channel": 3,
      "note": 46,
      "start": 32.6968,
      "duration": 0.1436,
      "velocity": 107,
      "chip": "ym2612"
    },
    {
      "channel": 4,
      "note": 63,
      "start": 32.6984,
      "duration": 0.3076,
      "velocity": 106,
      "chip": "ym2612"
    },
    {
      "channel": 5,
      "note": 83,
      "start": 32.7037,
      "duration": 0.0532,
      "velocity": 127,
      "chip": "ym2612"
    },
    {
      "channel": 5,
      "note": 83,
      "start": 32.7861,
      "duration": 0.0546,
      "velocity": 127,
      "chip": "ym2612"
    },
    {
      "channel": 3,
      "note": 58,
      "start": 32.8688,
      "duration": 0.0539,
      "velocity": 107,
      "chip": "ym2612"
    },
    {
      "channel": 5,
      "note": 83,
      "start": 32.8707,
      "duration": 0.0523,
      "velocity": 127,
      "chip": "ym2612"
    },
    {
      "channel": 3,
      "note": 58,
      "start": 32.9518,
      "duration": 0.0541,
      "velocity": 107,
      "chip": "ym2612"
    },
    {
      "channel": 5,
      "note": 83,
      "start": 32.9537,
      "duration": 0.0525,
      "velocity": 127,
      "chip": "ym2612"
    },
    {
      "channel": 1,
      "note": 65,
      "start": 33.0343,
      "duration": 0.1509,
      "velocity": 106,
      "chip": "ym2612"
    },
    {
      "channel": 2,
      "note": 71,
      "start": 33.0395,
      "duration": 0.0227,
      "velocity": 127,
      "chip": "ym2612"
    },
    {
      "channel": 3,
      "note": 46,
      "start": 33.0412,
      "duration": 0.1446,
      "velocity": 107,
      "chip": "ym2612"
    },
    {
      "channel": 4,
      "note": 61,
      "start": 33.0428,
      "duration": 0.1433,
      "velocity": 106,
      "chip": "ym2612"
    },
    {
      "channel": 5,
      "note": 83,
      "start": 33.048,
      "duration": 0.0549,
      "velocity": 127,
      "chip": "ym2612"
    },
    {
      "channel": 5,
      "note": 83,
      "start": 33.1322,
      "duration": 0.0541,
      "velocity": 127,
      "chip": "ym2612"
    },
    {
      "channel": 1,
      "note": 63,
      "start": 33.2142,
      "duration": 0.4693,
      "velocity": 106,
      "chip": "ym2612"
    },
    {
      "channel": 3,
      "note": 58,
      "start": 33.2164,
      "duration": 0.0524,
      "velocity": 107,
      "chip": "ym2612"
    },
    {
      "channel": 4,
      "note": 59,
      "start": 33.2181,
      "duration": 0.4664,
      "velocity": 106,
      "chip": "ym2612"
    },
    {
      "channel": 5,
      "note": 83,
      "start": 33.2199,
      "duration": 0.0492,
      "velocity": 127,
      "chip": "ym2612"
    },
    {
      "channel": 3,
      "note": 58,
      "start": 33.298,
      "duration": 0.0539,
      "velocity": 107,
      "chip": "ym2612"
    },
    {
      "channel": 5,
      "note": 83,
      "start": 33.3,
      "duration": 0.0523,
      "velocity": 127,
      "chip": "ym2612"
    },
    {
      "channel": 0,
      "note": 77,
      "start": 33.3803,
      "duration": 0.6354,
      "velocity": 101,
      "chip": "ym2612"
    },
    {
      "channel": 2,
      "note": 78,
      "start": 33.3827,
      "duration": 0.0118,
      "velocity": 127,
      "chip": "ym2612"
    },
    {
      "channel": 3,
      "note": 46,
      "start": 33.3844,
      "duration": 0.1339,
      "velocity": 107,
      "chip": "ym2612"
    },
    {
      "channel": 5,
      "note": 83,
      "start": 33.3898,
      "duration": 0.0454,
      "velocity": 127,
      "chip": "ym2612"
    },
    {
      "channel": 5,
      "note": 83,
      "start": 33.4644,
      "duration": 0.0543,
      "velocity": 127,
      "chip": "ym2612"
    },
    {
      "channel": 2,
      "note": 78,
      "start": 33.5472,
      "duration": 0.0124,
      "velocity": 127,
      "chip": "ym2612"
    },
    {
      "channel": 3,
      "note": 58,
      "start": 33.5488,
      "duration": 0.0523,
      "velocity": 107,
      "chip": "ym2612"
    },
    {
      "channel": 5,
      "note": 83,
      "start": 33.5537,
      "duration": 0.131,
      "velocity": 127,
      "chip": "ym2612"
    },
    {
      "channel": 3,
      "note": 58,
      "start": 33.6302,
      "duration": 0.0541,
      "velocity": 107,
      "chip": "ym2612"
    },
    {
      "channel": 1,
      "note": 65,
      "start": 33.7126,
      "duration": 0.3033,
      "velocity": 106,
      "chip": "ym2612"
    },
    {
      "channel": 2,
      "note": 78,
      "start": 33.7149,
      "duration": 0.0109,
      "velocity": 127,
      "chip": "ym2612"
    },
    {
      "channel": 3,
      "note": 46,
      "start": 33.7167,
      "duration": 0.1336,
      "velocity": 107,
      "chip": "ym2612"
    },
    {
      "channel": 4,
      "note": 61,
      "start": 33.7183,
      "duration": 0.2986,
      "velocity": 106,
      "chip": "ym2612"
    },
    {
      "channel": 5,
      "note": 83,
      "start": 33.7232,
      "duration": 0.0443,
      "velocity": 127,
      "chip": "ym2612"
    },
    {
      "channel": 5,
      "note": 83,
      "start": 33.7965,
      "duration": 0.0541,
      "velocity": 127,
      "chip": "ym2612"
    },
    {
      "channel": 2,
      "note": 78,
      "start": 33.8794,
      "duration": 0.0124,
      "velocity": 127,
      "chip": "ym2612"
    },
    {
      "channel": 3,
      "note": 58,
      "start": 33.8811,
      "duration": 0.0524,
      "velocity": 107,
      "chip": "ym2612"
    },
    {
      "channel": 5,
      "note": 83,
      "start": 33.886,
      "duration": 0.1311,
      "velocity": 127,
      "chip": "ym2612"
    },
    {
      "channel": 3,
      "note": 58,
      "start": 33.9629,
      "duration": 0.0538,
      "velocity": 107,
      "chip": "ym2612"
    },
    {
      "channel": 0,
      "note": 78,
      "start": 34.0453,
      "duration": 0.3304,
      "velocity": 101,
      "chip": "ym2612"
    },
    {
      "channel": 1,
      "note": 66,
      "start": 34.0503,
      "duration": 0.1593,
      "velocity": 106,
      "chip": "ym2612"
    },
    {
      "channel": 2,
      "note": 61,
      "start": 34.0561,
      "duration": 0.0296,
      "velocity": 127,
      "chip": "ym2612"
    },
    {
      "channel": 3,
      "note": 51,
      "start": 34.0582,
      "duration": 0.1522,
      "velocity": 107,
      "chip": "ym2612"
    },
    {
      "channel": 4,
      "note": 63,
      "start": 34.0633,
      "duration": 0.1473,
      "velocity": 106,
      "chip": "ym2612"
    },
    {
      "channel": 5,
      "note": 83,
      "start": 34.069,
      "duration": 0.0583,
      "velocity": 127,
      "chip": "ym2612"
    },
    {
      "channel": 5,
      "note": 83,
      "start": 34.1567,
      "duration": 0.0541,
      "velocity": 127,
      "chip": "ym2612"
    },
    {
      "channel": 1,
      "note": 65,
      "start": 34.2387,
      "duration": 0.1371,
      "velocity": 106,
      "chip": "ym2612"
    },
    {
      "channel": 3,
      "note": 63,
      "start": 34.2409,
      "duration": 0.0524,
      "velocity": 107,
      "chip": "ym2612"
    },
    {
      "channel": 4,
      "note": 61,
      "start": 34.2425,
      "duration": 0.1343,
      "velocity": 106,
      "chip": "ym2612"
    },
    {
      "channel": 5,
      "note": 83,
      "start": 34.2442,
      "duration": 0.0494,
      "velocity": 127,
      "chip": "ym2612"
    },
    {
      "channel": 3,
      "note": 63,
      "start": 34.3224,
      "duration": 0.0542,
      "velocity": 107,
      "chip": "ym2612"
    },
    {
      "channel": 5,
      "note": 83,
      "start": 34.3243,
      "duration": 0.0527,
      "velocity": 127,
      "chip": "ym2612"
    },
    {
      "channel": 0,
      "note": 66,
      "start": 34.4054,
      "duration": 2.0191,
      "velocity": 101,
      "chip": "ym2612"
    },
    {
      "channel": 1,
      "note": 66,
      "start": 34.4071,
      "duration": 0.4947,
      "velocity": 106,
      "chip": "ym2612"
    },
    {
      "channel": 2,
      "note": 71,
      "start": 34.4122,
      "duration": 0.0195,
      "velocity": 127,
      "chip": "ym2612"
    },
    {
      "channel": 3,
      "note": 51,
      "start": 34.414,
      "duration": 0.1424,
      "velocity": 107,
      "chip": "ym2612"
    },
    {
      "channel": 4,
      "note": 63,
      "start": 34.4157,
      "duration": 0.487,
      "velocity": 106,
      "chip": "ym2612"
    },
    {
      "channel": 5,
      "note": 83,
      "start": 34.4209,
      "duration": 0.0526,
      "velocity": 127,
      "chip": "ym2612"
    },
    {
      "channel": 5,
      "note": 83,
      "start": 34.5028,
      "duration": 0.0539,
      "velocity": 127,
      "chip": "ym2612"
    },
    {
      "channel": 3,
      "note": 63,
      "start": 34.5869,
      "duration": 0.0525,
      "velocity": 107,
      "chip": "ym2612"
    },
    {
      "channel": 5,
      "note": 83,
      "start": 34.5888,
      "duration": 0.051,
      "velocity": 127,
      "chip": "ym2612"
    },
    {
      "channel": 3,
      "note": 63,
      "start": 34.6685,
      "duration": 0.054,
      "velocity": 107,
      "chip": "ym2612"
    },
    {
      "channel": 5,
      "note": 83,
      "start": 34.6705,
      "duration": 0.0524,
      "velocity": 127,
      "chip": "ym2612"
    },
    {
      "channel": 2,
      "note": 61,
      "start": 34.7561,
      "duration": 0.0217,
      "velocity": 127,
      "chip": "ym2612"
    },
    {
      "channel": 3,
      "note": 51,
      "start": 34.7578,
      "duration": 0.1447,
      "velocity": 107,
      "chip": "ym2612"
    },
    {
      "channel": 5,
      "note": 83,
      "start": 34.7631,
      "duration": 0.0564,
      "velocity": 127,
      "chip": "ym2612"
    },
    {
      "channel": 2,
      "note": 61,
      "start": 34.8497,
      "duration": 0.0112,
      "velocity": 127,
      "chip": "ym2612"
    },
    {
      "channel": 5,
      "note": 83,
      "start": 34.8517,
      "duration": 0.0513,
      "velocity": 127,
      "chip": "ym2612"
    },
    {
      "channel": 1,
      "note": 68,
      "start": 34.9309,
      "duration": 0.137,
      "velocity": 106,
      "chip": "ym2612"
    },
    {
      "channel": 2,
      "note": 61,
      "start": 34.933,
      "duration": 0.011,
      "velocity": 127,
      "chip": "ym2612"
    },
    {
      "channel": 3,
      "note": 63,
      "start": 34.9346,
      "duration": 0.0509,
      "velocity": 107,
      "chip": "ym2612"
    },
    {
      "channel": 4,
      "note": 65,
      "start": 34.9363,
      "duration": 0.1326,
      "velocity": 106,
      "chip": "ym2612"
    },
    {
      "channel": 5,
      "note": 83,
      "start": 34.9381,
      "duration": 0.0477,
      "velocity": 127,
      "chip": "ym2612"
    },
    {
      "channel": 3,
      "note": 63,
      "start": 35.0146,
      "duration": 0.0541,
      "velocity": 107,
      "chip": "ym2612"
    },
    {
      "channel": 5,
      "note": 83,
      "start": 35.0165,
      "duration": 0.0525,
      "velocity": 127,
      "chip": "ym2612"
    },
    {
      "channel": 1,
      "note": 66,
      "start": 35.097,
      "duration": 0.1509,
      "velocity": 106,
      "chip": "ym2612"
    },
    {
      "channel": 2,
      "note": 71,
      "start": 35.1023,
      "duration": 0.0217,
      "velocity": 127,
      "chip": "ym2612"
    },
    {
      "channel": 3,
      "note": 51,
      "start": 35.104,
      "duration": 0.1446,
      "velocity": 107,
      "chip": "ym2612"
    },
    {
      "channel": 4,
      "note": 63,
      "start": 35.1056,
      "duration": 0.1432,
      "velocity": 106,
      "chip": "ym2612"
    },
    {
      "channel": 5,
      "note": 83,
      "start": 35.1108,
      "duration": 0.0548,
      "velocity": 127,
      "chip": "ym2612"
    },
    {
      "channel": 5,
      "note": 83,
      "start": 35.1949,
      "duration": 0.0541,
      "velocity": 127,
      "chip": "ym2612"
    },
    {
      "channel": 1,
      "note": 65,
      "start": 35.2769,
      "duration": 0.1371,
      "velocity": 106,
      "chip": "ym2612"
    },
    {
      "channel": 3,
      "note": 63,
      "start": 35.2792,
      "duration": 0.0524,
      "velocity": 107,
      "chip": "ym2612"
    },
    {
      "channel": 4,
      "note": 61,
      "start": 35.2807,
      "duration": 0.1342,
      "velocity": 106,
      "chip": "ym2612"
    },
    {
      "channel": 5,
      "note": 83,
      "start": 35.2826,
      "duration": 0.0493,
      "velocity": 127,
      "chip": "ym2612"
    },
    {
      "channel": 3,
      "note": 63,
      "start": 35.3607,
      "duration": 0.0541,
      "velocity": 107,
      "chip": "ym2612"
    },
    {
      "channel": 5,
      "note": 83,
      "start": 35.3626,
      "duration": 0.0526,
      "velocity": 127,
      "chip": "ym2612"
    },
    {
      "channel": 1,
      "note": 61,
      "start": 35.4446,
      "duration": 0.8139,
      "velocity": 106,
      "chip": "ym2612"
    },
    {
      "channel": 2,
      "note": 61,
      "start": 35.45,
      "duration": 0.02,
      "velocity": 127,
      "chip": "ym2612"
    },
    {
      "channel": 3,
      "note": 51,
      "start": 35.4517,
      "duration": 0.1429,
      "velocity": 107,
      "chip": "ym2612"
    },
    {
      "channel": 4,
      "note": 58,
      "start": 35.4533,
      "duration": 0.8061,
      "velocity": 106,
      "chip": "ym2612"
    },
    {
      "channel": 5,
      "note": 83,
      "start": 35.4585,
      "duration": 0.0532,
      "velocity": 127,
      "chip": "ym2612"
    },
    {
      "channel": 5,
      "note": 83,
      "start": 35.541,
      "duration": 0.0539,
      "velocity": 127,
      "chip": "ym2612"
    },
    {
      "channel": 3,
      "note": 63,
      "start": 35.6251,
      "duration": 0.0526,
      "velocity": 107,
      "chip": "ym2612"
    },
    {
      "channel": 5,
      "note": 83,
      "start": 35.6285,
      "duration": 0.0495,
      "velocity": 127,
      "chip": "ym2612"
    },
    {
      "channel": 3,
      "note": 63,
      "start": 35.7068,
      "duration": 0.0539,
      "velocity": 107,
      "chip": "ym2612"
    },
    {
      "channel": 5,
      "note": 83,
      "start": 35.7086,
      "duration": 0.0524,
      "velocity": 127,
      "chip": "ym2612"
    },
    {
      "channel": 2,
      "note": 71,
      "start": 35.7929,
      "duration": 0.0094,
      "velocity": 127,
      "chip": "ym2612"
    },
    {
      "channel": 3,
      "note": 51,
      "start": 35.7947,
      "duration": 0.1322,
      "velocity": 107,
      "chip": "ym2612"
    },
    {
      "channel": 5,
      "note": 83,
      "start": 35.8,
      "duration": 0.044,
      "velocity": 127,
      "chip": "ym2612"
    },
    {
      "channel": 5,
      "note": 83,
      "start": 35.8732,
      "duration": 0.0539,
      "velocity": 127,
      "chip": "ym2612"
    },
    {
      "channel": 3,
      "note": 63,
      "start": 35.956,
      "duration": 0.0539,
      "velocity": 107,
      "chip": "ym2612"
    },
    {
      "channel": 5,
      "note": 83,
      "start": 35.9578,
      "duration": 0.0524,
      "velocity": 127,
      "chip": "ym2612"
    },
    {
      "channel": 3,
      "note": 63,
      "start": 36.039,
      "duration": 0.054,
      "velocity": 107,
      "chip": "ym2612"
    },
    {
      "channel": 5,
      "note": 83,
      "start": 36.0409,
      "duration": 0.0524,
      "velocity": 127,
      "chip": "ym2612"
    },
    {
      "channel": 2,
      "note": 61,
      "start": 36.1251,
      "duration": 0.0094,
      "velocity": 127,
      "chip": "ym2612"
    },
    {
      "channel": 3,
      "note": 51,
      "start": 36.1269,
      "duration": 0.1323,
      "velocity": 107,
      "chip": "ym2612"
    },
    {
      "channel": 5,
      "note": 83,
      "start": 36.1322,
      "duration": 0.0441,
      "velocity": 127,
      "chip": "ym2612"
    },
    {
      "channel": 2,
      "note": 61,
      "start": 36.2051,
      "duration": 0.0125,
      "velocity": 127,
      "chip": "ym2612"
    },
    {
      "channel": 5,
      "note": 83,
      "start": 36.2069,
      "duration": 0.0527,
      "velocity": 127,
      "chip": "ym2612"
    },
    {
      "channel": 1,
      "note": 61,
      "start": 36.2876,
      "duration": 0.1371,
      "velocity": 106,
      "chip": "ym2612"
    },
    {
      "channel": 2,
      "note": 61,
      "start": 36.2897,
      "duration": 0.011,
      "velocity": 127,
      "chip": "ym2612"
    },
    {
      "channel": 3,
      "note": 63,
      "start": 36.2913,
      "duration": 0.0509,
      "velocity": 107,
      "chip": "ym2612"
    },
    {
      "channel": 4,
      "note": 58,
      "start": 36.2929,
      "duration": 0.1328,
      "velocity": 106,
      "chip": "ym2612"
    },
    {
      "channel": 5,
      "note": 83,
      "start": 36.2977,
      "duration": 0.1282,
      "velocity": 127,
      "chip": "ym2612"
    },
    {
      "channel": 3,
      "note": 63,
      "start": 36.3713,
      "duration": 0.0541,
      "velocity": 107,
      "chip": "ym2612"
    },
    {
      "channel": 0,
      "note": 78,
      "start": 36.4539,
      "duration": 0.3173,
      "velocity": 101,
      "chip": "ym2612"
    },
    {
      "channel": 1,
      "note": 63,
      "start": 36.4554,
      "duration": 0.1497,
      "velocity": 106,
      "chip": "ym2612"
    },
    {
      "channel": 2,
      "note": 71,
      "start": 36.4607,
      "duration": 0.0204,
      "velocity": 127,
      "chip": "ym2612"
    },
    {
      "channel": 3,
      "note": 51,
      "start": 36.4624,
      "duration": 0.1434,
      "velocity": 107,
      "chip": "ym2612"
    },
    {
      "channel": 4,
      "note": 59,
      "start": 36.4641,
      "duration": 0.142,
      "velocity": 106,
      "chip": "ym2612"
    },
    {
      "channel": 5,
      "note": 83,
      "start": 36.469,
      "duration": 0.0538,
      "velocity": 127,
      "chip": "ym2612"
    },
    {
      "channel": 5,
      "note": 83,
      "start": 36.5521,
      "duration": 0.0542,
      "velocity": 127,
      "chip": "ym2612"
    },
    {
      "channel": 1,
      "note": 65,
      "start": 36.6354,
      "duration": 0.1359,
      "velocity": 106,
      "chip": "ym2612"
    },
    {
      "channel": 3,
      "note": 63,
      "start": 36.6376,
      "duration": 0.0512,
      "velocity": 107,
      "chip": "ym2612"
    },
    {
      "channel": 4,
      "note": 61,
      "start": 36.6392,
      "duration": 0.1331,
      "velocity": 106,
      "chip": "ym2612"
    },
    {
      "channel": 5,
      "note": 83,
      "start": 36.6439,
      "duration": 0.1286,
      "velocity": 127,
      "chip": "ym2612"
    },
    {
      "channel": 3,
      "note": 63,
      "start": 36.718,
      "duration": 0.0541,
      "velocity": 107,
      "chip": "ym2612"
    },
    {
      "channel": 0,
      "note": 70,
      "start": 36.8004,
      "duration": 0.3163,
      "velocity": 101,
      "chip": "ym2612"
    },
    {
      "channel": 1,
      "note": 66,
      "start": 36.802,
      "duration": 0.315,
      "velocity": 106,
      "chip": "ym2612"
    },
    {
      "channel": 2,
      "note": 61,
      "start": 36.8074,
      "duration": 0.0193,
      "velocity": 127,
      "chip": "ym2612"
    },
    {
      "channel": 3,
      "note": 49,
      "start": 36.8093,
      "duration": 0.142,
      "velocity": 107,
      "chip": "ym2612"
    },
    {
      "channel": 4,
      "note": 63,
      "start": 36.8109,
      "duration": 0.307,
      "velocity": 106,
      "chip": "ym2612"
    },
    {
      "channel": 5,
      "note": 83,
      "start": 36.8163,
      "duration": 0.0522,
      "velocity": 127,
      "chip": "ym2612"
    },
    {
      "channel": 5,
      "note": 83,
      "start": 36.8978,
      "duration": 0.0539,
      "velocity": 127,
      "chip": "ym2612"
    },
    {
      "channel": 3,
      "note": 61,
      "start": 36.9804,
      "duration": 0.0539,
      "velocity": 107,
      "chip": "ym2612"
    },
    {
      "channel": 5,
      "note": 83,
      "start": 36.9823,
      "duration": 0.0524,
      "velocity": 127,
      "chip": "ym2612"
    },
    {
      "channel": 3,
      "note": 61,
      "start": 37.0635,
      "duration": 0.0542,
      "velocity": 107,
      "chip": "ym2612"
    },
    {
      "channel": 5,
      "note": 83,
      "start": 37.0654,
      "duration": 0.0527,
      "velocity": 127,
      "chip": "ym2612"
    },
    {
      "channel": 0,
      "note": 58,
      "start": 37.1459,
      "duration": 2.3659,
      "velocity": 101,
      "chip": "ym2612"
    },
    {
      "channel": 1,
      "note": 65,
      "start": 37.1476,
      "duration": 0.1493,
      "velocity": 106,
      "chip": "ym2612"
    },
    {
      "channel": 2,
      "note": 71,
      "start": 37.1528,
      "duration": 0.02,
      "velocity": 127,
      "chip": "ym2612"
    },
    {
      "channel": 3,
      "note": 49,
      "start": 37.1546,
      "duration": 0.1431,
      "velocity": 107,
      "chip": "ym2612"
    },
    {
      "channel": 4,
      "note": 61,
      "start": 37.1562,
      "duration": 0.1416,
      "velocity": 106,
      "chip": "ym2612"
    },
    {
      "channel": 5,
      "note": 83,
      "start": 37.1614,
      "duration": 0.0533,
      "velocity": 127,
      "chip": "ym2612"
    },
    {
      "channel": 5,
      "note": 83,
      "start": 37.2439,
      "duration": 0.0541,
      "velocity": 127,
      "chip": "ym2612"
    },
    {
      "channel": 1,
      "note": 66,
      "start": 37.3273,
      "duration": 0.3156,
      "velocity": 106,
      "chip": "ym2612"
    },
    {
      "channel": 3,
      "note": 61,
      "start": 37.3295,
      "duration": 0.051,
      "velocity": 107,
      "chip": "ym2612"
    },
    {
      "channel": 4,
      "note": 63,
      "start": 37.3311,
      "duration": 0.3127,
      "velocity": 106,
      "chip": "ym2612"
    },
    {
      "channel": 5,
      "note": 83,
      "start": 37.333,
      "duration": 0.0478,
      "velocity": 127,
      "chip": "ym2612"
    },
    {
      "channel": 3,
      "note": 61,
      "start": 37.4096,
      "duration": 0.0539,
      "velocity": 107,
      "chip": "ym2612"
    },
    {
      "channel": 5,
      "note": 83,
      "start": 37.4115,
      "duration": 0.0524,
      "velocity": 127,
      "chip": "ym2612"
    },
    {
      "channel": 2,
      "note": 61,
      "start": 37.4972,
      "duration": 0.0218,
      "velocity": 127,
      "chip": "ym2612"
    },
    {
      "channel": 3,
      "note": 49,
      "start": 37.4989,
      "duration": 0.1447,
      "velocity": 107,
      "chip": "ym2612"
    },
    {
      "channel": 5,
      "note": 83,
      "start": 37.5042,
      "duration": 0.0564,
      "velocity": 127,
      "chip": "ym2612"
    },
    {
      "channel": 2,
      "note": 61,
      "start": 37.5894,
      "duration": 0.0126,
      "velocity": 127,
      "chip": "ym2612"
    },
    {
      "channel": 5,
      "note": 83,
      "start": 37.5915,
      "duration": 0.0526,
      "velocity": 127,
      "chip": "ym2612"
    },
    {
      "channel": 1,
      "note": 68,
      "start": 37.672,
      "duration": 0.4693,
      "velocity": 106,
      "chip": "ym2612"
    },
    {
      "channel": 2,
      "note": 61,
      "start": 37.674,
      "duration": 0.011,
      "velocity": 127,
      "chip": "ym2612"
    },
    {
      "channel": 3,
      "note": 61,
      "start": 37.6757,
      "duration": 0.051,
      "velocity": 107,
      "chip": "ym2612"
    },
    {
      "channel": 4,
      "note": 65,
      "start": 37.6773,
      "duration": 0.4649,
      "velocity": 106,
      "chip": "ym2612"
    },
    {
      "channel": 5,
      "note": 83,
      "start": 37.6791,
      "duration": 0.0478,
      "velocity": 127,
      "chip": "ym2612"
    },
    {
      "channel": 3,
      "note": 61,
      "start": 37.7561,
      "duration": 0.0536,
      "velocity": 107,
      "chip": "ym2612"
    },
    {
      "channel": 5,
      "note": 83,
      "start": 37.758,
      "duration": 0.052,
      "velocity": 127,
      "chip": "ym2612"
    },
    {
      "channel": 2,
      "note": 71,
      "start": 37.8418,
      "duration": 0.0094,
      "velocity": 127,
      "chip": "ym2612"
    },
    {
      "channel": 3,
      "note": 49,
      "start": 37.8436,
      "duration": 0.1327,
      "velocity": 107,
      "chip": "ym2612"
    },
    {
      "channel": 5,
      "note": 83,
      "start": 37.8489,
      "duration": 0.044,
      "velocity": 127,
      "chip": "ym2612"
    },
    {
      "channel": 5,
      "note": 83,
      "start": 37.9222,
      "duration": 0.0544,
      "velocity": 127,
      "chip": "ym2612"
    },
    {
      "channel": 3,
      "note": 61,
      "start": 38.0049,
      "duration": 0.0539,
      "velocity": 107,
      "chip": "ym2612"
    },
    {
      "channel": 5,
      "note": 83,
      "start": 38.0068,
      "duration": 0.0524,
      "velocity": 127,
      "chip": "ym2612"
    },
    {
      "channel": 3,
      "note": 61,
      "start": 38.0879,
      "duration": 0.0541,
      "velocity": 107,
      "chip": "ym2612"
    },
    {
      "channel": 5,
      "note": 83,
      "start": 38.0898,
      "duration": 0.0526,
      "velocity": 127,
      "chip": "ym2612"
    },
    {
      "channel": 1,
      "note": 70,
      "start": 38.1718,
      "duration": 0.3156,
      "velocity": 106,
      "chip": "ym2612"
    },
    {
      "channel": 2,
      "note": 61,
      "start": 38.1772,
      "duration": 0.0207,
      "velocity": 127,
      "chip": "ym2612"
    },
    {
      "channel": 3,
      "note": 46,
      "start": 38.1791,
      "duration": 0.1428,
      "velocity": 107,
      "chip": "ym2612"
    },
    {
      "channel": 4,
      "note": 66,
      "start": 38.1807,
      "duration": 0.3076,
      "velocity": 106,
      "chip": "ym2612"
    },
    {
      "channel": 5,
      "note": 83,
      "start": 38.1859,
      "duration": 0.0531,
      "velocity": 127,
      "chip": "ym2612"
    },
    {
      "channel": 5,
      "note": 83,
      "start": 38.2683,
      "duration": 0.0538,
      "velocity": 127,
      "chip": "ym2612"
    },
    {
      "channel": 3,
      "note": 58,
      "start": 38.351,
      "duration": 0.0539,
      "velocity": 107,
      "chip": "ym2612"
    },
    {
      "channel": 5,
      "note": 83,
      "start": 38.3529,
      "duration": 0.0523,
      "velocity": 127,
      "chip": "ym2612"
    },
    {
      "channel": 3,
      "note": 58,
      "start": 38.4341,
      "duration": 0.054,
      "velocity": 107,
      "chip": "ym2612"
    },
    {
      "channel": 5,
      "note": 83,
      "start": 38.4359,
      "duration": 0.0526,
      "velocity": 127,
      "chip": "ym2612"
    },
    {
      "channel": 1,
      "note": 68,
      "start": 38.5165,
      "duration": 0.1508,
      "velocity": 106,
      "chip": "ym2612"
    },
    {
      "channel": 2,
      "note": 71,
      "start": 38.5217,
      "duration": 0.0216,
      "velocity": 127,
      "chip": "ym2612"
    },
    {
      "channel": 3,
      "note": 46,
      "start": 38.5235,
      "duration": 0.1445,
      "velocity": 107,
      "chip": "ym2612"
    },
    {
      "channel": 4,
      "note": 65,
      "start": 38.5251,
      "duration": 0.1432,
      "velocity": 106,
      "chip": "ym2612"
    },
    {
      "channel": 5,
      "note": 83,
      "start": 38.5303,
      "duration": 0.0548,
      "velocity": 127,
      "chip": "ym2612"
    },
    {
      "channel": 5,
      "note": 83,
      "start": 38.6144,
      "duration": 0.0541,
      "velocity": 127,
      "chip": "ym2612"
    },
    {
      "channel": 1,
      "note": 66,
      "start": 38.6964,
      "duration": 0.4693,
      "velocity": 106,
      "chip": "ym2612"
    },
    {
      "channel": 3,
      "note": 58,
      "start": 38.6986,
      "duration": 0.0525,
      "velocity": 107,
      "chip": "ym2612"
    },
    {
      "channel": 4,
      "note": 63,
      "start": 38.7003,
      "duration": 0.4664,
      "velocity": 106,
      "chip": "ym2612"
    },
    {
      "channel": 5,
      "note": 83,
      "start": 38.7021,
      "duration": 0.0492,
      "velocity": 127,
      "chip": "ym2612"
    },
    {
      "channel": 3,
      "note": 58,
      "start": 38.7801,
      "duration": 0.054,
      "velocity": 107,
      "chip": "ym2612"
    },
    {
      "channel": 5,
      "note": 83,
      "start": 38.782,
      "duration": 0.0524,
      "velocity": 127,
      "chip": "ym2612"
    },
    {
      "channel": 2,
      "note": 61,
      "start": 38.8663,
      "duration": 0.0093,
      "velocity": 127,
      "chip": "ym2612"
    },
    {
      "channel": 3,
      "note": 46,
      "start": 38.868,
      "duration": 0.1322,
      "velocity": 107,
      "chip": "ym2612"
    },
    {
      "channel": 5,
      "note": 83,
      "start": 38.8734,
      "duration": 0.044,
      "velocity": 127,
      "chip": "ym2612"
    },
    {
      "channel": 2,
      "note": 61,
      "start": 38.9461,
      "duration": 0.0125,
      "velocity": 127,
      "chip": "ym2612"
    },
    {
      "channel": 5,
      "note": 83,
      "start": 38.948,
      "duration": 0.0525,
      "velocity": 127,
      "chip": "ym2612"
    },
    {
      "channel": 2,
      "note": 61,
      "start": 39.0292,
      "duration": 0.0125,
      "velocity": 127,
      "chip": "ym2612"
    },
    {
      "channel": 3,
      "note": 58,
      "start": 39.0309,
      "duration": 0.0525,
      "velocity": 107,
      "chip": "ym2612"
    },
    {
      "channel": 5,
      "note": 83,
      "start": 39.0358,
      "duration": 0.1311,
      "velocity": 127,
      "chip": "ym2612"
    },
    {
      "channel": 3,
      "note": 58,
      "start": 39.1124,
      "duration": 0.0541,
      "velocity": 107,
      "chip": "ym2612"
    },
    {
      "channel": 1,
      "note": 65,
      "start": 39.1948,
      "duration": 0.3171,
      "velocity": 106,
      "chip": "ym2612"
    },
    {
      "channel": 2,
      "note": 71,
      "start": 39.2001,
      "duration": 0.0216,
      "velocity": 127,
      "chip": "ym2612"
    },
    {
      "channel": 3,
      "note": 46,
      "start": 39.2019,
      "duration": 0.1445,
      "velocity": 107,
      "chip": "ym2612"
    },
    {
      "channel": 4,
      "note": 61,
      "start": 39.2035,
      "duration": 0.3094,
      "velocity": 106,
      "chip": "ym2612"
    },
    {
      "channel": 5,
      "note": 83,
      "start": 39.2084,
      "duration": 0.0551,
      "velocity": 127,
      "chip": "ym2612"
    },
    {
      "channel": 5,
      "note": 83,
      "start": 39.2926,
      "duration": 0.054,
      "velocity": 127,
      "chip": "ym2612"
    },
    {
      "channel": 3,
      "note": 58,
      "start": 39.3754,
      "duration": 0.0539,
      "velocity": 107,
      "chip": "ym2612"
    },
    {
      "channel": 5,
      "note": 83,
      "start": 39.3803,
      "duration": 0.1327,
      "velocity": 127,
      "chip": "ym2612"
    },
    {
      "channel": 3,
      "note": 58,
      "start": 39.4585,
      "duration": 0.0541,
      "velocity": 107,
      "chip": "ym2612"
    },
    {
      "channel": 0,
      "note": 78,
      "start": 39.5415,
      "duration": 0.3163,
      "velocity": 101,
      "chip": "ym2612"
    },
    {
      "channel": 1,
      "note": 66,
      "start": 39.5434,
      "duration": 0.1484,
      "velocity": 106,
      "chip": "ym2612"
    },
    {
      "channel": 2,
      "note": 61,
      "start": 39.5493,
      "duration": 0.0186,
      "velocity": 127,
      "chip": "ym2612"
    },
    {
      "channel": 3,
      "note": 51,
      "start": 39.5514,
      "duration": 0.1412,
      "velocity": 107,
      "chip": "ym2612"
    },
    {
      "channel": 4,
      "note": 63,
      "start": 39.5533,
      "duration": 0.1395,
      "velocity": 106,
      "chip": "ym2612"
    },
    {
      "channel": 5,
      "note": 83,
      "start": 39.5591,
      "duration": 0.0504,
      "velocity": 127,
      "chip": "ym2612"
    },
    {
      "channel": 5,
      "note": 83,
      "start": 39.6389,
      "duration": 0.0541,
      "velocity": 127,
      "chip": "ym2612"
    },
    {
      "channel": 1,
      "note": 65,
      "start": 39.7209,
      "duration": 0.1372,
      "velocity": 106,
      "chip": "ym2612"
    },
    {
      "channel": 3,
      "note": 63,
      "start": 39.7231,
      "duration": 0.0524,
      "velocity": 107,
      "chip": "ym2612"
    },
    {
      "channel": 4,
      "note": 61,
      "start": 39.7246,
      "duration": 0.1344,
      "velocity": 106,
      "chip": "ym2612"
    },
    {
      "channel": 5,
      "note": 83,
      "start": 39.7264,
      "duration": 0.0494,
      "velocity": 127,
      "chip": "ym2612"
    },
    {
      "channel": 3,
      "note": 63,
      "start": 39.8046,
      "duration": 0.0542,
      "velocity": 107,
      "chip": "ym2612"
    },
    {
      "channel": 5,
      "note": 83,
      "start": 39.8065,
      "duration": 0.0527,
      "velocity": 127,
      "chip": "ym2612"
    },
    {
      "channel": 0,
      "note": 66,
      "start": 39.887,
      "duration": 1.1891,
      "velocity": 101,
      "chip": "ym2612"
    },
    {
      "channel": 1,
      "note": 66,
      "start": 39.8886,
      "duration": 0.4953,
      "velocity": 106,
      "chip": "ym2612"
    },
    {
      "channel": 2,
      "note": 73,
      "start": 39.8938,
      "duration": 0.0202,
      "velocity": 127,
      "chip": "ym2612"
    },
    {
      "channel": 3,
      "note": 51,
      "start": 39.8956,
      "duration": 0.143,
      "velocity": 107,
      "chip": "ym2612"
    },
    {
      "channel": 4,
      "note": 63,
      "start": 39.8972,
      "duration": 0.4877,
      "velocity": 106,
      "chip": "ym2612"
    },
    {
      "channel": 5,
      "note": 83,
      "start": 39.9024,
      "duration": 0.0532,
      "velocity": 127,
      "chip": "ym2612"
    },
    {
      "channel": 5,
      "note": 83,
      "start": 39.9856,
      "duration": 0.0533,
      "velocity": 127,
      "chip": "ym2612"
    },
    {
      "channel": 3,
      "note": 63,
      "start": 40.0691,
      "duration": 0.0525,
      "velocity": 107,
      "chip": "ym2612"
    },
    {
      "channel": 5,
      "note": 83,
      "start": 40.071,
      "duration": 0.0509,
      "velocity": 127,
      "chip": "ym2612"
    },
    {
      "channel": 3,
      "note": 63,
      "start": 40.1508,
      "duration": 0.0545,
      "velocity": 107,
      "chip": "ym2612"
    },
    {
      "channel": 5,
      "note": 83,
      "start": 40.1526,
      "duration": 0.053,
      "velocity": 127,
      "chip": "ym2612"
    },
    {
      "channel": 2,
      "note": 61,
      "start": 40.2383,
      "duration": 0.0218,
      "velocity": 127,
      "chip": "ym2612"
    },
    {
      "channel": 3,
      "note": 51,
      "start": 40.24,
      "duration": 0.1446,
      "velocity": 107,
      "chip": "ym2612"
    },
    {
      "channel": 5,
      "note": 83,
      "start": 40.2453,
      "duration": 0.0564,
      "velocity": 127,
      "chip": "ym2612"
    },
    {
      "channel": 2,
      "note": 61,
      "start": 40.3306,
      "duration": 0.0125,
      "velocity": 127,
      "chip": "ym2612"
    },
    {
      "channel": 5,
      "note": 83,
      "start": 40.3326,
      "duration": 0.0525,
      "velocity": 127,
      "chip": "ym2612"
    },
    {
      "channel": 1,
      "note": 68,
      "start": 40.4145,
      "duration": 0.1356,
      "velocity": 106,
      "chip": "ym2612"
    },
    {
      "channel": 2,
      "note": 61,
      "start": 40.4166,
      "duration": 0.0102,
      "velocity": 127,
      "chip": "ym2612"
    },
    {
      "channel": 3,
      "note": 63,
      "start": 40.4183,
      "duration": 0.0494,
      "velocity": 107,
      "chip": "ym2612"
    },
    {
      "channel": 4,
      "note": 65,
      "start": 40.4199,
      "duration": 0.1312,
      "velocity": 106,
      "chip": "ym2612"
    },
    {
      "channel": 5,
      "note": 83,
      "start": 40.4217,
      "duration": 0.0463,
      "velocity": 127,
      "chip": "ym2612"
    },
    {
      "channel": 3,
      "note": 63,
      "start": 40.4967,
      "duration": 0.0541,
      "velocity": 107,
      "chip": "ym2612"
    },
    {
      "channel": 5,
      "note": 83,
      "start": 40.4986,
      "duration": 0.0526,
      "velocity": 127,
      "chip": "ym2612"
    },
    {
      "channel": 1,
      "note": 66,
      "start": 40.5792,
      "duration": 0.1509,
      "velocity": 106,
      "chip": "ym2612"
    },
    {
      "channel": 2,
      "note": 71,
      "start": 40.5844,
      "duration": 0.0217,
      "velocity": 127,
      "chip": "ym2612"
    },
    {
      "channel": 3,
      "note": 51,
      "start": 40.5862,
      "duration": 0.1446,
      "velocity": 107,
      "chip": "ym2612"
    },
    {
      "channel": 4,
      "note": 63,
      "start": 40.5878,
      "duration": 0.1432,
      "velocity": 106,
      "chip": "ym2612"
    },
    {
      "channel": 5,
      "note": 83,
      "start": 40.593,
      "duration": 0.0557,
      "velocity": 127,
      "chip": "ym2612"
    },
    {
      "channel": 5,
      "note": 83,
      "start": 40.6771,
      "duration": 0.0541,
      "velocity": 127,
      "chip": "ym2612"
    },
    {
      "channel": 1,
      "note": 65,
      "start": 40.7591,
      "duration": 0.1371,
      "velocity": 106,
      "chip": "ym2612"
    },
    {
      "channel": 3,
      "note": 63,
      "start": 40.7613,
      "duration": 0.0525,
      "velocity": 107,
      "chip": "ym2612"
    },
    {
      "channel": 4,
      "note": 61,
      "start": 40.7629,
      "duration": 0.1343,
      "velocity": 106,
      "chip": "ym2612"
    },
    {
      "channel": 5,
      "note": 83,
      "start": 40.7647,
      "duration": 0.0494,
      "velocity": 127,
      "chip": "ym2612"
    },
    {
      "channel": 3,
      "note": 63,
      "start": 40.8428,
      "duration": 0.0541,
      "velocity": 107,
      "chip": "ym2612"
    },
    {
      "channel": 5,
      "note": 83,
      "start": 40.8448,
      "duration": 0.0527,
      "velocity": 127,
      "chip": "ym2612"
    },
    {
      "channel": 1,
      "note": 61,
      "start": 40.9253,
      "duration": 0.8438,
      "velocity": 106,
      "chip": "ym2612"
    },
    {
      "channel": 2,
      "note": 61,
      "start": 40.9307,
      "duration": 0.0215,
      "velocity": 127,
      "chip": "ym2612"
    },
    {
      "channel": 3,
      "note": 51,
      "start": 40.9325,
      "duration": 0.1445,
      "velocity": 107,
      "chip": "ym2612"
    },
    {
      "channel": 4,
      "note": 58,
      "start": 40.9341,
      "duration": 0.8359,
      "velocity": 106,
      "chip": "ym2612"
    },
    {
      "channel": 5,
      "note": 83,
      "start": 40.9393,
      "duration": 0.0546,
      "velocity": 127,
      "chip": "ym2612"
    },
    {
      "channel": 5,
      "note": 83,
      "start": 41.0232,
      "duration": 0.0539,
      "velocity": 127,
      "chip": "ym2612"
    },
    {
      "channel": 0,
      "note": 73,
      "start": 41.1055,
      "duration": 0.1368,
      "velocity": 101,
      "chip": "ym2612"
    },
    {
      "channel": 3,
      "note": 63,
      "start": 41.1092,
      "duration": 0.0507,
      "velocity": 107,
      "chip": "ym2612"
    },
    {
      "channel": 5,
      "note": 83,
      "start": 41.1125,
      "duration": 0.0477,
      "velocity": 127,
      "chip": "ym2612"
    },
    {
      "channel": 3,
      "note": 63,
      "start": 41.189,
      "duration": 0.0541,
      "velocity": 107,
      "chip": "ym2612"
    },
    {
      "channel": 5,
      "note": 83,
      "start": 41.1909,
      "duration": 0.0526,
      "velocity": 127,
      "chip": "ym2612"
    },
    {
      "channel": 0,
      "note": 75,
      "start": 41.2713,
      "duration": 0.1509,
      "velocity": 101,
      "chip": "ym2612"
    },
    {
      "channel": 2,
      "note": 73,
      "start": 41.2767,
      "duration": 0.0216,
      "velocity": 127,
      "chip": "ym2612"
    },
    {
      "channel": 3,
      "note": 51,
      "start": 41.2785,
      "duration": 0.1446,
      "velocity": 107,
      "chip": "ym2612"
    },
    {
      "channel": 5,
      "note": 83,
      "start": 41.2838,
      "duration": 0.0562,
      "velocity": 127,
      "chip": "ym2612"
    },
    {
      "channel": 5,
      "note": 83,
      "start": 41.3694,
      "duration": 0.054,
      "velocity": 127,
      "chip": "ym2612"
    },
    {
      "channel": 0,
      "note": 77,
      "start": 41.4514,
      "duration": 0.137,
      "velocity": 101,
      "chip": "ym2612"
    },
    {
      "channel": 3,
      "note": 63,
      "start": 41.4537,
      "duration": 0.0524,
      "velocity": 107,
      "chip": "ym2612"
    },
    {
      "channel": 5,
      "note": 83,
      "start": 41.4555,
      "duration": 0.0507,
      "velocity": 127,
      "chip": "ym2612"
    },
    {
      "channel": 3,
      "note": 63,
      "start": 41.5351,
      "duration": 0.0541,
      "velocity": 107,
      "chip": "ym2612"
    },
    {
      "channel": 5,
      "note": 83,
      "start": 41.537,
      "duration": 0.0525,
      "velocity": 127,
      "chip": "ym2612"
    },
    {
      "channel": 0,
      "note": 78,
      "start": 41.6175,
      "duration": 0.1513,
      "velocity": 101,
      "chip": "ym2612"
    },
    {
      "channel": 2,
      "note": 61,
      "start": 41.6229,
      "duration": 0.0216,
      "velocity": 127,
      "chip": "ym2612"
    },
    {
      "channel": 3,
      "note": 51,
      "start": 41.6246,
      "duration": 0.1452,
      "velocity": 107,
      "chip": "ym2612"
    },
    {
      "channel": 5,
      "note": 83,
      "start": 41.6299,
      "duration": 0.0562,
      "velocity": 127,
      "chip": "ym2612"
    },
    {
      "channel": 2,
      "note": 61,
      "start": 41.715,
      "duration": 0.0125,
      "velocity": 127,
      "chip": "ym2612"
    },
    {
      "channel": 5,
      "note": 83,
      "start": 41.7169,
      "duration": 0.0533,
      "velocity": 127,
      "chip": "ym2612"
    },
    {
      "channel": 0,
      "note": 77,
      "start": 41.7974,
      "duration": 0.137,
      "velocity": 101,
      "chip": "ym2612"
    },
    {
      "channel": 1,
      "note": 61,
      "start": 41.7991,
      "duration": 0.1356,
      "velocity": 106,
      "chip": "ym2612"
    },
    {
      "channel": 2,
      "note": 61,
      "start": 41.8012,
      "duration": 0.0105,
      "velocity": 127,
      "chip": "ym2612"
    },
    {
      "channel": 3,
      "note": 63,
      "start": 41.8028,
      "duration": 0.0492,
      "velocity": 107,
      "chip": "ym2612"
    },
    {
      "channel": 4,
      "note": 58,
      "start": 41.8044,
      "duration": 0.1312,
      "velocity": 106,
      "chip": "ym2612"
    },
    {
      "channel": 5,
      "note": 83,
      "start": 41.8092,
      "duration": 0.1266,
      "velocity": 127,
      "chip": "ym2612"
    },
    {
      "channel": 3,
      "note": 63,
      "start": 41.8812,
      "duration": 0.0542,
      "velocity": 107,
      "chip": "ym2612"
    },
    {
      "channel": 0,
      "note": 78,
      "start": 41.9636,
      "duration": 0.1508,
      "velocity": 101,
      "chip": "ym2612"
    },
    {
      "channel": 1,
      "note": 63,
      "start": 41.9652,
      "duration": 0.1494,
      "velocity": 106,
      "chip": "ym2612"
    },
    {
      "channel": 2,
      "note": 71,
      "start": 41.9705,
      "duration": 0.0207,
      "velocity": 127,
      "chip": "ym2612"
    },
    {
      "channel": 3,
      "note": 51,
      "start": 41.9722,
      "duration": 0.1431,
      "velocity": 107,
      "chip": "ym2612"
    },
    {
      "channel": 4,
      "note": 59,
      "start": 41.9738,
      "duration": 0.1417,
      "velocity": 106,
      "chip": "ym2612"
    },
    {
      "channel": 5,
      "note": 83,
      "start": 41.9787,
      "duration": 0.0536,
      "velocity": 127,
      "chip": "ym2612"
    },
    {
      "channel": 5,
      "note": 83,
      "start": 42.0614,
      "duration": 0.0544,
      "velocity": 127,
      "chip": "ym2612"
    },
    {
      "channel": 0,
      "note": 80,
      "start": 42.1435,
      "duration": 0.137,
      "velocity": 101,
      "chip": "ym2612"
    },
    {
      "channel": 1,
      "note": 65,
      "start": 42.1451,
      "duration": 0.1356,
      "velocity": 106,
      "chip": "ym2612"
    },
    {
      "channel": 3,
      "note": 63,
      "start": 42.1473,
      "duration": 0.0509,
      "velocity": 107,
      "chip": "ym2612"
    },
    {
      "channel": 4,
      "note": 61,
      "start": 42.1489,
      "duration": 0.1328,
      "velocity": 106,
      "chip": "ym2612"
    },
    {
      "channel": 5,
      "note": 83,
      "start": 42.1537,
      "duration": 0.1282,
      "velocity": 127,
      "chip": "ym2612"
    },
    {
      "channel": 3,
      "note": 63,
      "start": 42.2273,
      "duration": 0.0541,
      "velocity": 107,
      "chip": "ym2612"
    },
    {
      "channel": 0,
      "note": 82,
      "start": 42.3097,
      "duration": 0.3169,
      "velocity": 101,
      "chip": "ym2612"
    },
    {
      "channel": 1,
      "note": 70,
      "start": 42.3114,
      "duration": 0.3155,
      "velocity": 106,
      "chip": "ym2612"
    },
    {
      "channel": 2,
      "note": 61,
      "start": 42.3168,
      "duration": 0.0198,
      "velocity": 127,
      "chip": "ym2612"
    },
    {
      "channel": 3,
      "note": 49,
      "start": 42.3187,
      "duration": 0.1426,
      "velocity": 107,
      "chip": "ym2612"
    },
    {
      "channel": 4,
      "note": 66,
      "start": 42.3203,
      "duration": 0.3075,
      "velocity": 106,
      "chip": "ym2612"
    },
    {
      "channel": 5,
      "note": 83,
      "start": 42.3257,
      "duration": 0.0527,
      "velocity": 127,
      "chip": "ym2612"
    },
    {
      "channel": 5,
      "note": 83,
      "start": 42.4077,
      "duration": 0.0539,
      "velocity": 127,
      "chip": "ym2612"
    },
    {
      "channel": 3,
      "note": 61,
      "start": 42.4904,
      "duration": 0.0539,
      "velocity": 107,
      "chip": "ym2612"
    },
    {
      "channel": 5,
      "note": 83,
      "start": 42.4922,
      "duration": 0.0524,
      "velocity": 127,
      "chip": "ym2612"
    },
    {
      "channel": 3,
      "note": 61,
      "start": 42.5734,
      "duration": 0.0542,
      "velocity": 107,
      "chip": "ym2612"
    },
    {
      "channel": 5,
      "note": 83,
      "start": 42.5753,
      "duration": 0.0527,
      "velocity": 127,
      "chip": "ym2612"
    },
    {
      "channel": 0,
      "note": 70,
      "start": 42.6566,
      "duration": 1.7005,
      "velocity": 101,
      "chip": "ym2612"
    },
    {
      "channel": 1,
      "note": 68,
      "start": 42.6582,
      "duration": 0.3146,
      "velocity": 106,
      "chip": "ym2612"
    },
    {
      "channel": 2,
      "note": 73,
      "start": 42.6634,
      "duration": 0.0193,
      "velocity": 127,
      "chip": "ym2612"
    },
    {
      "channel": 3,
      "note": 49,
      "start": 42.6652,
      "duration": 0.1421,
      "velocity": 107,
      "chip": "ym2612"
    },
    {
      "channel": 4,
      "note": 65,
      "start": 42.6669,
      "duration": 0.3069,
      "velocity": 106,
      "chip": "ym2612"
    },
    {
      "channel": 5,
      "note": 83,
      "start": 42.672,
      "duration": 0.0524,
      "velocity": 127,
      "chip": "ym2612"
    },
    {
      "channel": 5,
      "note": 83,
      "start": 42.7538,
      "duration": 0.0539,
      "velocity": 127,
      "chip": "ym2612"
    },
    {
      "channel": 3,
      "note": 61,
      "start": 42.8378,
      "duration": 0.0527,
      "velocity": 107,
      "chip": "ym2612"
    },
    {
      "channel": 5,
      "note": 83,
      "start": 42.8397,
      "duration": 0.0511,
      "velocity": 127,
      "chip": "ym2612"
    },
    {
      "channel": 3,
      "note": 61,
      "start": 42.9195,
      "duration": 0.0541,
      "velocity": 107,
      "chip": "ym2612"
    },
    {
      "channel": 5,
      "note": 83,
      "start": 42.9214,
      "duration": 0.0526,
      "velocity": 127,
      "chip": "ym2612"
    },
    {
      "channel": 1,
      "note": 66,
      "start": 43.0033,
      "duration": 0.3155,
      "velocity": 106,
      "chip": "ym2612"
    },
    {
      "channel": 2,
      "note": 61,
      "start": 43.0085,
      "duration": 0.0203,
      "velocity": 127,
      "chip": "ym2612"
    },
    {
      "channel": 3,
      "note": 49,
      "start": 43.0103,
      "duration": 0.1431,
      "velocity": 107,
      "chip": "ym2612"
    },
    {
      "channel": 4,
      "note": 63,
      "start": 43.0119,
      "duration": 0.3079,
      "velocity": 106,
      "chip": "ym2612"
    },
    {
      "channel": 5,
      "note": 83,
      "start": 43.0171,
      "duration": 0.0534,
      "velocity": 127,
      "chip": "ym2612"
    },
    {
      "channel": 2,
      "note": 61,
      "start": 43.0993,
      "duration": 0.0132,
      "velocity": 127,
      "chip": "ym2612"
    },
    {
      "channel": 5,
      "note": 83,
      "start": 43.1014,
      "duration": 0.0524,
      "velocity": 127,
      "chip": "ym2612"
    },
    {
      "channel": 2,
      "note": 61,
      "start": 43.1823,
      "duration": 0.0126,
      "velocity": 127,
      "chip": "ym2612"
    },
    {
      "channel": 3,
      "note": 61,
      "start": 43.1841,
      "duration": 0.0524,
      "velocity": 107,
      "chip": "ym2612"
    },
    {
      "channel": 5,
      "note": 83,
      "start": 43.1859,
      "duration": 0.0508,
      "velocity": 127,
      "chip": "ym2612"
    },
    {
      "channel": 3,
      "note": 61,
      "start": 43.2656,
      "duration": 0.0541,
      "velocity": 107,
      "chip": "ym2612"
    },
    {
      "channel": 5,
      "note": 83,
      "start": 43.2675,
      "duration": 0.0525,
      "velocity": 127,
      "chip": "ym2612"
    },
    {
      "channel": 1,
      "note": 65,
      "start": 43.348,
      "duration": 0.317,
      "velocity": 106,
      "chip": "ym2612"
    },
    {
      "channel": 2,
      "note": 71,
      "start": 43.3533,
      "duration": 0.0216,
      "velocity": 127,
      "chip": "ym2612"
    },
    {
      "channel": 3,
      "note": 49,
      "start": 43.355,
      "duration": 0.1446,
      "velocity": 107,
      "chip": "ym2612"
    },
    {
      "channel": 4,
      "note": 61,
      "start": 43.3566,
      "duration": 0.3094,
      "velocity": 106,
      "chip": "ym2612"
    },
    {
      "channel": 5,
      "note": 83,
      "start": 43.3618,
      "duration": 0.0549,
      "velocity": 127,
      "chip": "ym2612"
    },
    {
      "channel": 5,
      "note": 83,
      "start": 43.4459,
      "duration": 0.0539,
      "velocity": 127,
      "chip": "ym2612"
    },
    {
      "channel": 3,
      "note": 61,
      "start": 43.5286,
      "duration": 0.054,
      "velocity": 107,
      "chip": "ym2612"
    },
    {
      "channel": 5,
      "note": 83,
      "start": 43.5305,
      "duration": 0.0524,
      "velocity": 127,
      "chip": "ym2612"
    },
    {
      "channel": 3,
      "note": 61,
      "start": 43.6116,
      "duration": 0.0541,
      "velocity": 107,
      "chip": "ym2612"
    },
    {
      "channel": 5,
      "note": 83,
      "start": 43.6135,
      "duration": 0.0527,
      "velocity": 127,
      "chip": "ym2612"
    },
    {
      "channel": 1,
      "note": 66,
      "start": 43.6955,
      "duration": 0.3156,
      "velocity": 106,
      "chip": "ym2612"
    },
    {
      "channel": 2,
      "note": 61,
      "start": 43.7009,
      "duration": 0.0202,
      "velocity": 127,
      "chip": "ym2612"
    },
    {
      "channel": 3,
      "note": 46,
      "start": 43.7028,
      "duration": 0.1428,
      "velocity": 107,
      "chip": "ym2612"
    },
    {
      "channel": 4,
      "note": 63,
      "start": 43.7044,
      "duration": 0.3076,
      "velocity": 106,
      "chip": "ym2612"
    },
    {
      "channel": 5,
      "note": 83,
      "start": 43.7096,
      "duration": 0.0532,
      "velocity": 127,
      "chip": "ym2612"
    },
    {
      "channel": 5,
      "note": 83,
      "start": 43.792,
      "duration": 0.0539,
      "velocity": 127,
      "chip": "ym2612"
    },
    {
      "channel": 3,
      "note": 58,
      "start": 43.8747,
      "duration": 0.0539,
      "velocity": 107,
      "chip": "ym2612"
    },
    {
      "channel": 5,
      "note": 83,
      "start": 43.8766,
      "duration": 0.0524,
      "velocity": 127,
      "chip": "ym2612"
    },
    {
      "channel": 3,
      "note": 58,
      "start": 43.9577,
      "duration": 0.0541,
      "velocity": 107,
      "chip": "ym2612"
    },
    {
      "channel": 5,
      "note": 83,
      "start": 43.9596,
      "duration": 0.0525,
      "velocity": 127,
      "chip": "ym2612"
    },
    {
      "channel": 1,
      "note": 65,
      "start": 44.0402,
      "duration": 0.1509,
      "velocity": 106,
      "chip": "ym2612"
    },
    {
      "channel": 2,
      "note": 73,
      "start": 44.0454,
      "duration": 0.0217,
      "velocity": 127,
      "chip": "ym2612"
    },
    {
      "channel": 3,
      "note": 46,
      "start": 44.0472,
      "duration": 0.1446,
      "velocity": 107,
      "chip": "ym2612"
    },
    {
      "channel": 4,
      "note": 61,
      "start": 44.0488,
      "duration": 0.1433,
      "velocity": 106,
      "chip": "ym2612"
    },
    {
      "channel": 5,
      "note": 83,
      "start": 44.054,
      "duration": 0.0548,
      "velocity": 127,
      "chip": "ym2612"
    },
    {
      "channel": 5,
      "note": 83,
      "start": 44.1381,
      "duration": 0.0541,
      "velocity": 127,
      "chip": "ym2612"
    },
    {
      "channel": 1,
      "note": 63,
      "start": 44.2208,
      "duration": 0.4686,
      "velocity": 106,
      "chip": "ym2612"
    },
    {
      "channel": 3,
      "note": 58,
      "start": 44.2231,
      "duration": 0.0517,
      "velocity": 107,
      "chip": "ym2612"
    },
    {
      "channel": 4,
      "note": 59,
      "start": 44.2246,
      "duration": 0.4658,
      "velocity": 106,
      "chip": "ym2612"
    },
    {
      "channel": 5,
      "note": 83,
      "start": 44.2264,
      "duration": 0.0486,
      "velocity": 127,
      "chip": "ym2612"
    },
    {
      "channel": 3,
      "note": 58,
      "start": 44.3039,
      "duration": 0.0541,
      "velocity": 107,
      "chip": "ym2612"
    },
    {
      "channel": 5,
      "note": 83,
      "start": 44.3057,
      "duration": 0.0525,
      "velocity": 127,
      "chip": "ym2612"
    },
    {
      "channel": 0,
      "note": 77,
      "start": 44.3862,
      "duration": 0.6492,
      "velocity": 101,
      "chip": "ym2612"
    },
    {
      "channel": 2,
      "note": 78,
      "start": 44.3884,
      "duration": 0.0119,
      "velocity": 127,
      "chip": "ym2612"
    },
    {
      "channel": 3,
      "note": 46,
      "start": 44.3902,
      "duration": 0.1338,
      "velocity": 107,
      "chip": "ym2612"
    },
    {
      "channel": 5,
      "note": 83,
      "start": 44.3954,
      "duration": 0.0465,
      "velocity": 127,
      "chip": "ym2612"
    },
    {
      "channel": 5,
      "note": 83,
      "start": 44.4702,
      "duration": 0.0541,
      "velocity": 127,
      "chip": "ym2612"
    },
    {
      "channel": 2,
      "note": 78,
      "start": 44.5529,
      "duration": 0.0125,
      "velocity": 127,
      "chip": "ym2612"
    },
    {
      "channel": 3,
      "note": 58,
      "start": 44.5546,
      "duration": 0.0524,
      "velocity": 107,
      "chip": "ym2612"
    },
    {
      "channel": 5,
      "note": 83,
      "start": 44.5595,
      "duration": 0.1312,
      "velocity": 127,
      "chip": "ym2612"
    },
    {
      "channel": 3,
      "note": 58,
      "start": 44.6362,
      "duration": 0.0541,
      "velocity": 107,
      "chip": "ym2612"
    },
    {
      "channel": 1,
      "note": 61,
      "start": 44.7185,
      "duration": 0.3171,
      "velocity": 106,
      "chip": "ym2612"
    },
    {
      "channel": 2,
      "note": 78,
      "start": 44.7208,
      "duration": 0.0247,
      "velocity": 127,
      "chip": "ym2612"
    },
    {
      "channel": 3,
      "note": 46,
      "start": 44.7225,
      "duration": 0.1475,
      "velocity": 107,
      "chip": "ym2612"
    },
    {
      "channel": 4,
      "note": 58,
      "start": 44.7242,
      "duration": 0.3124,
      "velocity": 106,
      "chip": "ym2612"
    },
    {
      "channel": 5,
      "note": 83,
      "start": 44.7291,
      "duration": 0.0581,
      "velocity": 127,
      "chip": "ym2612"
    },
    {
      "channel": 2,
      "note": 78,
      "start": 44.8162,
      "duration": 0.0123,
      "velocity": 127,
      "chip": "ym2612"
    },
    {
      "channel": 5,
      "note": 83,
      "start": 44.818,
      "duration": 0.0524,
      "velocity": 127,
      "chip": "ym2612"
    },
    {
      "channel": 2,
      "note": 78,
      "start": 44.8994,
      "duration": 0.0122,
      "velocity": 127,
      "chip": "ym2612"
    },
    {
      "channel": 3,
      "note": 58,
      "start": 44.901,
      "duration": 0.0521,
      "velocity": 107,
      "chip": "ym2612"
    },
    {
      "channel": 5,
      "note": 83,
      "start": 44.9059,
      "duration": 0.1309,
      "velocity": 127,
      "chip": "ym2612"
    },
    {
      "channel": 2,
      "note": 78,
      "start": 44.9823,
      "duration": 0.0123,
      "velocity": 127,
      "chip": "ym2612"
    },
    {
      "channel": 3,
      "note": 58,
      "start": 44.984,
      "duration": 0.0524,
      "velocity": 107,
      "chip": "ym2612"
    },
    {
      "channel": 0,
      "note": 71,
      "start": 45.065,
      "duration": 0.1505,
      "velocity": 101,
      "chip": "ym2612"
    },
    {
      "channel": 1,
      "note": 63,
      "start": 45.067,
      "duration": 0.4808,
      "velocity": 106,
      "chip": "ym2612"
    },
    {
      "channel": 2,
      "note": 61,
      "start": 45.0728,
      "duration": 0.0188,
      "velocity": 127,
      "chip": "ym2612"
    },
    {
      "channel": 3,
      "note": 47,
      "start": 45.075,
      "duration": 0.1413,
      "velocity": 107,
      "chip": "ym2612"
    },
    {
      "channel": 4,
      "note": 59,
      "start": 45.0769,
      "duration": 0.4718,
      "velocity": 106,
      "chip": "ym2612"
    },
    {
      "channel": 5,
      "note": 83,
      "start": 45.0827,
      "duration": 0.0506,
      "velocity": 127,
      "chip": "ym2612"
    },
    {
      "channel": 5,
      "note": 83,
      "start": 45.1626,
      "duration": 0.0541,
      "velocity": 127,
      "chip": "ym2612"
    },
    {
      "channel": 0,
      "note": 75,
      "start": 45.2446,
      "duration": 0.4691,
      "velocity": 101,
      "chip": "ym2612"
    },
    {
      "channel": 3,
      "note": 59,
      "start": 45.2468,
      "duration": 0.0524,
      "velocity": 107,
      "chip": "ym2612"
    },
    {
      "channel": 5,
      "note": 83,
      "start": 45.2488,
      "duration": 0.0508,
      "velocity": 127,
      "chip": "ym2612"
    },
    {
      "channel": 3,
      "note": 59,
      "start": 45.3283,
      "duration": 0.054,
      "velocity": 107,
      "chip": "ym2612"
    },
    {
      "channel": 5,
      "note": 83,
      "start": 45.3302,
      "duration": 0.0524,
      "velocity": 127,
      "chip": "ym2612"
    },
    {
      "channel": 2,
      "note": 71,
      "start": 45.4144,
      "duration": 0.0094,
      "velocity": 127,
      "chip": "ym2612"
    },
    {
      "channel": 3,
      "note": 47,
      "start": 45.4163,
      "duration": 0.1323,
      "velocity": 107,
      "chip": "ym2612"
    },
    {
      "channel": 5,
      "note": 83,
      "start": 45.4215,
      "duration": 0.044,
      "velocity": 127,
      "chip": "ym2612"
    },
    {
      "channel": 5,
      "note": 83,
      "start": 45.4949,
      "duration": 0.0541,
      "velocity": 127,
      "chip": "ym2612"
    },
    {
      "channel": 1,
      "note": 66,
      "start": 45.5768,
      "duration": 0.4833,
      "velocity": 106,
      "chip": "ym2612"
    },
    {
      "channel": 3,
      "note": 59,
      "start": 45.579,
      "duration": 0.0525,
      "velocity": 107,
      "chip": "ym2612"
    },
    {
      "channel": 4,
      "note": 63,
      "start": 45.5806,
      "duration": 0.4805,
      "velocity": 106,
      "chip": "ym2612"
    },
    {
      "channel": 5,
      "note": 83,
      "start": 45.5824,
      "duration": 0.0494,
      "velocity": 127,
      "chip": "ym2612"
    },
    {
      "channel": 3,
      "note": 59,
      "start": 45.6605,
      "duration": 0.0541,
      "velocity": 107,
      "chip": "ym2612"
    },
    {
      "channel": 5,
      "note": 83,
      "start": 45.6624,
      "duration": 0.0525,
      "velocity": 127,
      "chip": "ym2612"
    },
    {
      "channel": 0,
      "note": 77,
      "start": 45.743,
      "duration": 0.317,
      "velocity": 101,
      "chip": "ym2612"
    },
    {
      "channel": 2,
      "note": 61,
      "start": 45.7483,
      "duration": 0.0216,
      "velocity": 127,
      "chip": "ym2612"
    },
    {
      "channel": 3,
      "note": 47,
      "start": 45.7501,
      "duration": 0.1445,
      "velocity": 107,
      "chip": "ym2612"
    },
    {
      "channel": 5,
      "note": 83,
      "start": 45.7554,
      "duration": 0.0562,
      "velocity": 127,
      "chip": "ym2612"
    },
    {
      "channel": 2,
      "note": 61,
      "start": 45.8405,
      "duration": 0.0124,
      "velocity": 127,
      "chip": "ym2612"
    },
    {
      "channel": 5,
      "note": 83,
      "start": 45.8425,
      "duration": 0.0524,
      "velocity": 127,
      "chip": "ym2612"
    },
    {
      "channel": 2,
      "note": 61,
      "start": 45.9235,
      "duration": 0.0125,
      "velocity": 127,
      "chip": "ym2612"
    },
    {
      "channel": 3,
      "note": 59,
      "start": 45.9251,
      "duration": 0.0524,
      "velocity": 107,
      "chip": "ym2612"
    },
    {
      "channel": 5,
      "note": 83,
      "start": 45.927,
      "duration": 0.0509,
      "velocity": 127,
      "chip": "ym2612"
    },
    {
      "channel": 3,
      "note": 59,
      "start": 46.0073,
      "duration": 0.0535,
      "velocity": 107,
      "chip": "ym2612"
    },
    {
      "channel": 5,
      "note": 83,
      "start": 46.0093,
      "duration": 0.052,
      "velocity": 127,
      "chip": "ym2612"
    },
    {
      "channel": 0,
      "note": 78,
      "start": 46.089,
      "duration": 0.317,
      "velocity": 101,
      "chip": "ym2612"
    },
    {
      "channel": 1,
      "note": 70,
      "start": 46.0907,
      "duration": 0.3156,
      "velocity": 106,
      "chip": "ym2612"
    },
    {
      "channel": 2,
      "note": 71,
      "start": 46.0959,
      "duration": 0.0202,
      "velocity": 127,
      "chip": "ym2612"
    },
    {
      "channel": 3,
      "note": 47,
      "start": 46.0977,
      "duration": 0.143,
      "velocity": 107,
      "chip": "ym2612"
    },
    {
      "channel": 4,
      "note": 66,
      "start": 46.0993,
      "duration": 0.3078,
      "velocity": 106,
      "chip": "ym2612"
    },
    {
      "channel": 5,
      "note": 83,
      "start": 46.1046,
      "duration": 0.0532,
      "velocity": 127,
      "chip": "ym2612"
    },
    {
      "channel": 5,
      "note": 83,
      "start": 46.1871,
      "duration": 0.0539,
      "velocity": 127,
      "chip": "ym2612"
    },
    {
      "channel": 3,
      "note": 59,
      "start": 46.2697,
      "duration": 0.054,
      "velocity": 107,
      "chip": "ym2612"
    },
    {
      "channel": 5,
      "note": 83,
      "start": 46.2716,
      "duration": 0.0524,
      "velocity": 127,
      "chip": "ym2612"
    },
    {
      "channel": 3,
      "note": 59,
      "start": 46.3528,
      "duration": 0.0542,
      "velocity": 107,
      "chip": "ym2612"
    },
    {
      "channel": 5,
      "note": 83,
      "start": 46.3547,
      "duration": 0.0527,
      "velocity": 127,
      "chip": "ym2612"
    },
    {
      "channel": 0,
      "note": 71,
      "start": 46.4353,
      "duration": 0.1507,
      "velocity": 101,
      "chip": "ym2612"
    },
    {
      "channel": 1,
      "note": 73,
      "start": 46.437,
      "duration": 0.4814,
      "velocity": 106,
      "chip": "ym2612"
    },
    {
      "channel": 2,
      "note": 61,
      "start": 46.4423,
      "duration": 0.0198,
      "velocity": 127,
      "chip": "ym2612"
    },
    {
      "channel": 3,
      "note": 47,
      "start": 46.4441,
      "duration": 0.1428,
      "velocity": 107,
      "chip": "ym2612"
    },
    {
      "channel": 4,
      "note": 70,
      "start": 46.4457,
      "duration": 0.4736,
      "velocity": 106,
      "chip": "ym2612"
    },
    {
      "channel": 5,
      "note": 83,
      "start": 46.451,
      "duration": 0.0529,
      "velocity": 127,
      "chip": "ym2612"
    },
    {
      "channel": 5,
      "note": 83,
      "start": 46.5332,
      "duration": 0.0539,
      "velocity": 127,
      "chip": "ym2612"
    },
    {
      "channel": 0,
      "note": 75,
      "start": 46.6152,
      "duration": 0.4691,
      "velocity": 101,
      "chip": "ym2612"
    },
    {
      "channel": 3,
      "note": 59,
      "start": 46.6175,
      "duration": 0.0522,
      "velocity": 107,
      "chip": "ym2612"
    },
    {
      "channel": 5,
      "note": 83,
      "start": 46.6194,
      "duration": 0.0507,
      "velocity": 127,
      "chip": "ym2612"
    },
    {
      "channel": 3,
      "note": 59,
      "start": 46.699,
      "duration": 0.0539,
      "velocity": 107,
      "chip": "ym2612"
    },
    {
      "channel": 5,
      "note": 83,
      "start": 46.7009,
      "duration": 0.0523,
      "velocity": 127,
      "chip": "ym2612"
    },
    {
      "channel": 2,
      "note": 71,
      "start": 46.785,
      "duration": 0.0094,
      "velocity": 127,
      "chip": "ym2612"
    },
    {
      "channel": 3,
      "note": 47,
      "start": 46.7868,
      "duration": 0.1323,
      "velocity": 107,
      "chip": "ym2612"
    },
    {
      "channel": 5,
      "note": 83,
      "start": 46.7921,
      "duration": 0.044,
      "velocity": 127,
      "chip": "ym2612"
    },
    {
      "channel": 5,
      "note": 83,
      "start": 46.8654,
      "duration": 0.0541,
      "velocity": 127,
      "chip": "ym2612"
    },
    {
      "channel": 1,
      "note": 71,
      "start": 46.9474,
      "duration": 0.4833,
      "velocity": 106,
      "chip": "ym2612"
    },
    {
      "channel": 3,
      "note": 59,
      "start": 46.9496,
      "duration": 0.0524,
      "velocity": 107,
      "chip": "ym2612"
    },
    {
      "channel": 4,
      "note": 68,
      "start": 46.9512,
      "duration": 0.4804,
      "velocity": 106,
      "chip": "ym2612"
    },
    {
      "channel": 5,
      "note": 83,
      "start": 46.953,
      "duration": 0.0493,
      "velocity": 127,
      "chip": "ym2612"
    },
    {
      "channel": 3,
      "note": 59,
      "start": 47.0311,
      "duration": 0.0541,
      "velocity": 107,
      "chip": "ym2612"
    },
    {
      "channel": 5,
      "note": 83,
      "start": 47.033,
      "duration": 0.0524,
      "velocity": 127,
      "chip": "ym2612"
    },
    {
      "channel": 0,
      "note": 77,
      "start": 47.1135,
      "duration": 0.317,
      "velocity": 101,
      "chip": "ym2612"
    },
    {
      "channel": 2,
      "note": 61,
      "start": 47.1189,
      "duration": 0.0216,
      "velocity": 127,
      "chip": "ym2612"
    },
    {
      "channel": 3,
      "note": 47,
      "start": 47.1206,
      "duration": 0.1445,
      "velocity": 107,
      "chip": "ym2612"
    },
    {
      "channel": 5,
      "note": 83,
      "start": 47.1259,
      "duration": 0.0562,
      "velocity": 127,
      "chip": "ym2612"
    },
    {
      "channel": 2,
      "note": 61,
      "start": 47.211,
      "duration": 0.0125,
      "velocity": 127,
      "chip": "ym2612"
    },
    {
      "channel": 5,
      "note": 83,
      "start": 47.2128,
      "duration": 0.0526,
      "velocity": 127,
      "chip": "ym2612"
    },
    {
      "channel": 2,
      "note": 61,
      "start": 47.2941,
      "duration": 0.0125,
      "velocity": 127,
      "chip": "ym2612"
    },
    {
      "channel": 3,
      "note": 59,
      "start": 47.2957,
      "duration": 0.0529,
      "velocity": 107,
      "chip": "ym2612"
    },
    {
      "channel": 5,
      "note": 83,
      "start": 47.3006,
      "duration": 0.1312,
      "velocity": 127,
      "chip": "ym2612"
    },
    {
      "channel": 3,
      "note": 59,
      "start": 47.3773,
      "duration": 0.0542,
      "velocity": 107,
      "chip": "ym2612"
    },
    {
      "channel": 0,
      "note": 78,
      "start": 47.4596,
      "duration": 0.317,
      "velocity": 101,
      "chip": "ym2612"
    },
    {
      "channel": 1,
      "note": 68,
      "start": 47.4612,
      "duration": 0.3156,
      "velocity": 106,
      "chip": "ym2612"
    },
    {
      "channel": 2,
      "note": 71,
      "start": 47.4665,
      "duration": 0.02,
      "velocity": 127,
      "chip": "ym2612"
    },
    {
      "channel": 3,
      "note": 47,
      "start": 47.4682,
      "duration": 0.143,
      "velocity": 107,
      "chip": "ym2612"
    },
    {
      "channel": 4,
      "note": 65,
      "start": 47.4699,
      "duration": 0.3078,
      "velocity": 106,
      "chip": "ym2612"
    },
    {
      "channel": 5,
      "note": 83,
      "start": 47.4748,
      "duration": 0.0535,
      "velocity": 127,
      "chip": "ym2612"
    },
    {
      "channel": 5,
      "note": 83,
      "start": 47.5575,
      "duration": 0.054,
      "velocity": 127,
      "chip": "ym2612"
    },
    {
      "channel": 3,
      "note": 59,
      "start": 47.6402,
      "duration": 0.054,
      "velocity": 107,
      "chip": "ym2612"
    },
    {
      "channel": 5,
      "note": 83,
      "start": 47.6451,
      "duration": 0.1328,
      "velocity": 127,
      "chip": "ym2612"
    },
    {
      "channel": 3,
      "note": 59,
      "start": 47.7234,
      "duration": 0.0541,
      "velocity": 107,
      "chip": "ym2612"
    },
    {
      "channel": 0,
      "note": 71,
      "start": 47.8058,
      "duration": 0.1507,
      "velocity": 101,
      "chip": "ym2612"
    },
    {
      "channel": 1,
      "note": 70,
      "start": 47.8075,
      "duration": 1.3399,
      "velocity": 106,
      "chip": "ym2612"
    },
    {
      "channel": 2,
      "note": 61,
      "start": 47.8128,
      "duration": 0.0199,
      "velocity": 127,
      "chip": "ym2612"
    },
    {
      "channel": 3,
      "note": 47,
      "start": 47.8146,
      "duration": 0.1428,
      "velocity": 107,
      "chip": "ym2612"
    },
    {
      "channel": 4,
      "note": 66,
      "start": 47.8163,
      "duration": 1.3321,
      "velocity": 106,
      "chip": "ym2612"
    },
    {
      "channel": 5,
      "note": 83,
      "start": 47.8216,
      "duration": 0.0528,
      "velocity": 127,
      "chip": "ym2612"
    },
    {
      "channel": 5,
      "note": 83,
      "start": 47.9037,
      "duration": 0.054,
      "velocity": 127,
      "chip": "ym2612"
    },
    {
      "channel": 0,
      "note": 75,
      "start": 47.9857,
      "duration": 0.47,
      "velocity": 101,
      "chip": "ym2612"
    },
    {
      "channel": 3,
      "note": 59,
      "start": 47.9879,
      "duration": 0.0524,
      "velocity": 107,
      "chip": "ym2612"
    },
    {
      "channel": 5,
      "note": 83,
      "start": 47.9899,
      "duration": 0.0507,
      "velocity": 127,
      "chip": "ym2612"
    },
    {
      "channel": 3,
      "note": 59,
      "start": 48.0694,
      "duration": 0.054,
      "velocity": 107,
      "chip": "ym2612"
    },
    {
      "channel": 5,
      "note": 83,
      "start": 48.0713,
      "duration": 0.0524,
      "velocity": 127,
      "chip": "ym2612"
    },
    {
      "channel": 2,
      "note": 71,
      "start": 48.1555,
      "duration": 0.0094,
      "velocity": 127,
      "chip": "ym2612"
    },
    {
      "channel": 3,
      "note": 47,
      "start": 48.1573,
      "duration": 0.1323,
      "velocity": 107,
      "chip": "ym2612"
    },
    {
      "channel": 5,
      "note": 83,
      "start": 48.1626,
      "duration": 0.0441,
      "velocity": 127,
      "chip": "ym2612"
    },
    {
      "channel": 5,
      "note": 83,
      "start": 48.2368,
      "duration": 0.0531,
      "velocity": 127,
      "chip": "ym2612"
    },
    {
      "channel": 3,
      "note": 59,
      "start": 48.3186,
      "duration": 0.0539,
      "velocity": 107,
      "chip": "ym2612"
    },
    {
      "channel": 5,
      "note": 83,
      "start": 48.3205,
      "duration": 0.0523,
      "velocity": 127,
      "chip": "ym2612"
    },
    {
      "channel": 3,
      "note": 59,
      "start": 48.4016,
      "duration": 0.0549,
      "velocity": 107,
      "chip": "ym2612"
    },
    {
      "channel": 5,
      "note": 83,
      "start": 48.4035,
      "duration": 0.0533,
      "velocity": 127,
      "chip": "ym2612"
    },
    {
      "channel": 0,
      "note": 77,
      "start": 48.4841,
      "duration": 0.3169,
      "velocity": 101,
      "chip": "ym2612"
    },
    {
      "channel": 2,
      "note": 61,
      "start": 48.4895,
      "duration": 0.0216,
      "velocity": 127,
      "chip": "ym2612"
    },
    {
      "channel": 3,
      "note": 47,
      "start": 48.4912,
      "duration": 0.1445,
      "velocity": 107,
      "chip": "ym2612"
    },
    {
      "channel": 5,
      "note": 83,
      "start": 48.4965,
      "duration": 0.0562,
      "velocity": 127,
      "chip": "ym2612"
    },
    {
      "channel": 2,
      "note": 61,
      "start": 48.5816,
      "duration": 0.0125,
      "velocity": 127,
      "chip": "ym2612"
    },
    {
      "channel": 5,
      "note": 83,
      "start": 48.5836,
      "duration": 0.0523,
      "velocity": 127,
      "chip": "ym2612"
    },
    {
      "channel": 2,
      "note": 61,
      "start": 48.6646,
      "duration": 0.0125,
      "velocity": 127,
      "chip": "ym2612"
    },
    {
      "channel": 3,
      "note": 59,
      "start": 48.6663,
      "duration": 0.0523,
      "velocity": 107,
      "chip": "ym2612"
    },
    {
      "channel": 5,
      "note": 83,
      "start": 48.6682,
      "duration": 0.0508,
      "velocity": 127,
      "chip": "ym2612"
    },
    {
      "channel": 3,
      "note": 59,
      "start": 48.7478,
      "duration": 0.0541,
      "velocity": 107,
      "chip": "ym2612"
    },
    {
      "channel": 5,
      "note": 83,
      "start": 48.7497,
      "duration": 0.0525,
      "velocity": 127,
      "chip": "ym2612"
    },
    {
      "channel": 0,
      "note": 78,
      "start": 48.8301,
      "duration": 0.3171,
      "velocity": 101,
      "chip": "ym2612"
    },
    {
      "channel": 2,
      "note": 71,
      "start": 48.8355,
      "duration": 0.0216,
      "velocity": 127,
      "chip": "ym2612"
    },
    {
      "channel": 3,
      "note": 47,
      "start": 48.8373,
      "duration": 0.1445,
      "velocity": 107,
      "chip": "ym2612"
    },
    {
      "channel": 5,
      "note": 83,
      "start": 48.8426,
      "duration": 0.0562,
      "velocity": 127,
      "chip": "ym2612"
    },
    {
      "channel": 5,
      "note": 83,
      "start": 48.9281,
      "duration": 0.0539,
      "velocity": 127,
      "chip": "ym2612"
    },
    {
      "channel": 3,
      "note": 59,
      "start": 49.0108,
      "duration": 0.0539,
      "velocity": 107,
      "chip": "ym2612"
    },
    {
      "channel": 5,
      "note": 83,
      "start": 49.0127,
      "duration": 0.0523,
      "velocity": 127,
      "chip": "ym2612"
    },
    {
      "channel": 3,
      "note": 59,
      "start": 49.0939,
      "duration": 0.0542,
      "velocity": 107,
      "chip": "ym2612"
    },
    {
      "channel": 5,
      "note": 83,
      "start": 49.0958,
      "duration": 0.0527,
      "velocity": 127,
      "chip": "ym2612"
    },
    {
      "channel": 0,
      "note": 82,
      "start": 49.1764,
      "duration": 0.3168,
      "velocity": 101,
      "chip": "ym2612"
    },
    {
      "channel": 1,
      "note": 68,
      "start": 49.178,
      "duration": 0.6615,
      "velocity": 106,
      "chip": "ym2612"
    },
    {
      "channel": 2,
      "note": 61,
      "start": 49.1834,
      "duration": 0.0198,
      "velocity": 127,
      "chip": "ym2612"
    },
    {
      "channel": 3,
      "note": 47,
      "start": 49.1852,
      "duration": 0.1426,
      "velocity": 107,
      "chip": "ym2612"
    },
    {
      "channel": 4,
      "note": 65,
      "start": 49.1868,
      "duration": 0.6537,
      "velocity": 106,
      "chip": "ym2612"
    },
    {
      "channel": 5,
      "note": 83,
      "start": 49.192,
      "duration": 0.0529,
      "velocity": 127,
      "chip": "ym2612"
    },
    {
      "channel": 5,
      "note": 83,
      "start": 49.2743,
      "duration": 0.0539,
      "velocity": 127,
      "chip": "ym2612"
    },
    {
      "channel": 3,
      "note": 59,
      "start": 49.3573,
      "duration": 0.0535,
      "velocity": 107,
      "chip": "ym2612"
    },
    {
      "channel": 5,
      "note": 83,
      "start": 49.3593,
      "duration": 0.0519,
      "velocity": 127,
      "chip": "ym2612"
    },
    {
      "channel": 3,
      "note": 59,
      "start": 49.44,
      "duration": 0.0541,
      "velocity": 107,
      "chip": "ym2612"
    },
    {
      "channel": 5,
      "note": 83,
      "start": 49.4419,
      "duration": 0.0525,
      "velocity": 127,
      "chip": "ym2612"
    },
    {
      "channel": 0,
      "note": 80,
      "start": 49.5224,
      "duration": 0.317,
      "velocity": 101,
      "chip": "ym2612"
    },
    {
      "channel": 2,
      "note": 71,
      "start": 49.5276,
      "duration": 0.0217,
      "velocity": 127,
      "chip": "ym2612"
    },
    {
      "channel": 3,
      "note": 47,
      "start": 49.5294,
      "duration": 0.1445,
      "velocity": 107,
      "chip": "ym2612"
    },
    {
      "channel": 5,
      "note": 83,
      "start": 49.5348,
      "duration": 0.0563,
      "velocity": 127,
      "chip": "ym2612"
    },
    {
      "channel": 5,
      "note": 83,
      "start": 49.6204,
      "duration": 0.0539,
      "velocity": 127,
      "chip": "ym2612"
    },
    {
      "channel": 3,
      "note": 59,
      "start": 49.703,
      "duration": 0.0539,
      "velocity": 107,
      "chip": "ym2612"
    },
    {
      "channel": 5,
      "note": 83,
      "start": 49.7049,
      "duration": 0.0523,
      "velocity": 127,
      "chip": "ym2612"
    },
    {
      "channel": 3,
      "note": 59,
      "start": 49.7861,
      "duration": 0.0541,
      "velocity": 107,
      "chip": "ym2612"
    },
    {
      "channel": 5,
      "note": 83,
      "start": 49.7879,
      "duration": 0.0527,
      "velocity": 127,
      "chip": "ym2612"
    },
    {
      "channel": 0,
      "note": 78,
      "start": 49.8685,
      "duration": 0.483,
      "velocity": 101,
      "chip": "ym2612"
    },
    {
      "channel": 1,
      "note": 65,
      "start": 49.8701,
      "duration": 0.6478,
      "velocity": 106,
      "chip": "ym2612"
    },
    {
      "channel": 2,
      "note": 61,
      "start": 49.8753,
      "duration": 0.0201,
      "velocity": 127,
      "chip": "ym2612"
    },
    {
      "channel": 3,
      "note": 47,
      "start": 49.8771,
      "duration": 0.1437,
      "velocity": 107,
      "chip": "ym2612"
    },
    {
      "channel": 4,
      "note": 61,
      "start": 49.8787,
      "duration": 0.6402,
      "velocity": 106,
      "chip": "ym2612"
    },
    {
      "channel": 5,
      "note": 83,
      "start": 49.8839,
      "duration": 0.0532,
      "velocity": 127,
      "chip": "ym2612"
    },
    {
      "channel": 2,
      "note": 61,
      "start": 49.966,
      "duration": 0.0124,
      "velocity": 127,
      "chip": "ym2612"
    },
    {
      "channel": 5,
      "note": 83,
      "start": 49.9678,
      "duration": 0.0532,
      "velocity": 127,
      "chip": "ym2612"
    },
    {
      "channel": 2,
      "note": 61,
      "start": 50.0491,
      "duration": 0.0125,
      "velocity": 127,
      "chip": "ym2612"
    },
    {
      "channel": 3,
      "note": 59,
      "start": 50.0507,
      "duration": 0.0523,
      "velocity": 107,
      "chip": "ym2612"
    },
    {
      "channel": 5,
      "note": 83,
      "start": 50.0556,
      "duration": 0.1309,
      "velocity": 127,
      "chip": "ym2612"
    },
    {
      "channel": 3,
      "note": 59,
      "start": 50.1323,
      "duration": 0.0539,
      "velocity": 107,
      "chip": "ym2612"
    },
    {
      "channel": 2,
      "note": 71,
      "start": 50.2183,
      "duration": 0.0093,
      "velocity": 127,
      "chip": "ym2612"
    },
    {
      "channel": 3,
      "note": 47,
      "start": 50.2201,
      "duration": 0.1322,
      "velocity": 107,
      "chip": "ym2612"
    },
    {
      "channel": 5,
      "note": 83,
      "start": 50.2251,
      "duration": 0.0443,
      "velocity": 127,
      "chip": "ym2612"
    },
    {
      "channel": 5,
      "note": 83,
      "start": 50.2986,
      "duration": 0.0541,
      "velocity": 127,
      "chip": "ym2612"
    },
    {
      "channel": 0,
      "note": 77,
      "start": 50.3807,
      "duration": 0.137,
      "velocity": 101,
      "chip": "ym2612"
    },
    {
      "channel": 3,
      "note": 59,
      "start": 50.383,
      "duration": 0.0523,
      "velocity": 107,
      "chip": "ym2612"
    },
    {
      "channel": 5,
      "note": 83,
      "start": 50.3879,
      "duration": 0.1312,
      "velocity": 127,
      "chip": "ym2612"
    },
    {
      "channel": 3,
      "note": 59,
      "start": 50.4645,
      "duration": 0.0541,
      "velocity": 107,
      "chip": "ym2612"
    },
    {
      "channel": 0,
      "note": 78,
      "start": 50.5474,
      "duration": 0.3164,
      "velocity": 101,
      "chip": "ym2612"
    },
    {
      "channel": 1,
      "note": 66,
      "start": 50.5493,
      "duration": 0.1488,
      "velocity": 106,
      "chip": "ym2612"
    },
    {
      "channel": 2,
      "note": 61,
      "start": 50.5551,
      "duration": 0.0187,
      "velocity": 127,
      "chip": "ym2612"
    },
    {
      "channel": 3,
      "note": 51,
      "start": 50.5573,
      "duration": 0.1415,
      "velocity": 107,
      "chip": "ym2612"
    },
    {
      "channel": 4,
      "note": 63,
      "start": 50.5592,
      "duration": 0.1398,
      "velocity": 106,
      "chip": "ym2612"
    },
    {
      "channel": 5,
      "note": 83,
      "start": 50.5649,
      "duration": 0.0506,
      "velocity": 127,
      "chip": "ym2612"
    },
    {
      "channel": 5,
      "note": 83,
      "start": 50.6448,
      "duration": 0.0545,
      "velocity": 127,
      "chip": "ym2612"
    },
    {
      "channel": 1,
      "note": 65,
      "start": 50.7268,
      "duration": 0.3171,
      "velocity": 106,
      "chip": "ym2612"
    },
    {
      "channel": 3,
      "note": 63,
      "start": 50.729,
      "duration": 0.0524,
      "velocity": 107,
      "chip": "ym2612"
    },
    {
      "channel": 4,
      "note": 61,
      "start": 50.7306,
      "duration": 0.3142,
      "velocity": 106,
      "chip": "ym2612"
    },
    {
      "channel": 5,
      "note": 83,
      "start": 50.7324,
      "duration": 0.0493,
      "velocity": 127,
      "chip": "ym2612"
    },
    {
      "channel": 3,
      "note": 63,
      "start": 50.8105,
      "duration": 0.0541,
      "velocity": 107,
      "chip": "ym2612"
    },
    {
      "channel": 5,
      "note": 83,
      "start": 50.8124,
      "duration": 0.0525,
      "velocity": 127,
      "chip": "ym2612"
    },
    {
      "channel": 0,
      "note": 66,
      "start": 50.8929,
      "duration": 2.352,
      "velocity": 101,
      "chip": "ym2612"
    },
    {
      "channel": 2,
      "note": 73,
      "start": 50.8982,
      "duration": 0.022,
      "velocity": 127,
      "chip": "ym2612"
    },
    {
      "channel": 3,
      "note": 51,
      "start": 50.9,
      "duration": 0.1446,
      "velocity": 107,
      "chip": "ym2612"
    },
    {
      "channel": 5,
      "note": 83,
      "start": 50.9053,
      "duration": 0.0563,
      "velocity": 127,
      "chip": "ym2612"
    },
    {
      "channel": 5,
      "note": 83,
      "start": 50.9909,
      "duration": 0.0541,
      "velocity": 127,
      "chip": "ym2612"
    },
    {
      "channel": 1,
      "note": 63,
      "start": 51.0743,
      "duration": 0.3155,
      "velocity": 106,
      "chip": "ym2612"
    },
    {
      "channel": 3,
      "note": 63,
      "start": 51.0765,
      "duration": 0.051,
      "velocity": 107,
      "chip": "ym2612"
    },
    {
      "channel": 4,
      "note": 59,
      "start": 51.0781,
      "duration": 0.3127,
      "velocity": 106,
      "chip": "ym2612"
    },
    {
      "channel": 5,
      "note": 83,
      "start": 51.0799,
      "duration": 0.048,
      "velocity": 127,
      "chip": "ym2612"
    },
    {
      "channel": 3,
      "note": 63,
      "start": 51.1566,
      "duration": 0.0539,
      "velocity": 107,
      "chip": "ym2612"
    },
    {
      "channel": 5,
      "note": 83,
      "start": 51.1585,
      "duration": 0.0524,
      "velocity": 127,
      "chip": "ym2612"
    },
    {
      "channel": 2,
      "note": 61,
      "start": 51.2442,
      "duration": 0.0218,
      "velocity": 127,
      "chip": "ym2612"
    },
    {
      "channel": 3,
      "note": 51,
      "start": 51.246,
      "duration": 0.1446,
      "velocity": 107,
      "chip": "ym2612"
    },
    {
      "channel": 5,
      "note": 83,
      "start": 51.2512,
      "duration": 0.0564,
      "velocity": 127,
      "chip": "ym2612"
    },
    {
      "channel": 2,
      "note": 61,
      "start": 51.3364,
      "duration": 0.0126,
      "velocity": 127,
      "chip": "ym2612"
    },
    {
      "channel": 5,
      "note": 83,
      "start": 51.3385,
      "duration": 0.0525,
      "velocity": 127,
      "chip": "ym2612"
    },
    {
      "channel": 1,
      "note": 65,
      "start": 51.419,
      "duration": 0.4693,
      "velocity": 106,
      "chip": "ym2612"
    },
    {
      "channel": 2,
      "note": 61,
      "start": 51.421,
      "duration": 0.011,
      "velocity": 127,
      "chip": "ym2612"
    },
    {
      "channel": 3,
      "note": 63,
      "start": 51.4227,
      "duration": 0.0509,
      "velocity": 107,
      "chip": "ym2612"
    },
    {
      "channel": 4,
      "note": 61,
      "start": 51.4243,
      "duration": 0.4649,
      "velocity": 106,
      "chip": "ym2612"
    },
    {
      "channel": 5,
      "note": 83,
      "start": 51.4261,
      "duration": 0.0478,
      "velocity": 127,
      "chip": "ym2612"
    },
    {
      "channel": 3,
      "note": 63,
      "start": 51.5026,
      "duration": 0.054,
      "velocity": 107,
      "chip": "ym2612"
    },
    {
      "channel": 5,
      "note": 83,
      "start": 51.5046,
      "duration": 0.0524,
      "velocity": 127,
      "chip": "ym2612"
    },
    {
      "channel": 2,
      "note": 71,
      "start": 51.5894,
      "duration": 0.0093,
      "velocity": 127,
      "chip": "ym2612"
    },
    {
      "channel": 3,
      "note": 51,
      "start": 51.5912,
      "duration": 0.1316,
      "velocity": 107,
      "chip": "ym2612"
    },
    {
      "channel": 5,
      "note": 83,
      "start": 51.5965,
      "duration": 0.0434,
      "velocity": 127,
      "chip": "ym2612"
    },
    {
      "channel": 5,
      "note": 83,
      "start": 51.6692,
      "duration": 0.0539,
      "velocity": 127,
      "chip": "ym2612"
    },
    {
      "channel": 3,
      "note": 63,
      "start": 51.7519,
      "duration": 0.0546,
      "velocity": 107,
      "chip": "ym2612"
    },
    {
      "channel": 5,
      "note": 83,
      "start": 51.7538,
      "duration": 0.0531,
      "velocity": 127,
      "chip": "ym2612"
    },
    {
      "channel": 3,
      "note": 63,
      "start": 51.835,
      "duration": 0.054,
      "velocity": 107,
      "chip": "ym2612"
    },
    {
      "channel": 5,
      "note": 83,
      "start": 51.8368,
      "duration": 0.0526,
      "velocity": 127,
      "chip": "ym2612"
    },
    {
      "channel": 1,
      "note": 66,
      "start": 51.9189,
      "duration": 0.4816,
      "velocity": 106,
      "chip": "ym2612"
    },
    {
      "channel": 2,
      "note": 61,
      "start": 51.9242,
      "duration": 0.0201,
      "velocity": 127,
      "chip": "ym2612"
    },
    {
      "channel": 3,
      "note": 51,
      "start": 51.926,
      "duration": 0.1429,
      "velocity": 107,
      "chip": "ym2612"
    },
    {
      "channel": 4,
      "note": 63,
      "start": 51.9276,
      "duration": 0.4739,
      "velocity": 106,
      "chip": "ym2612"
    },
    {
      "channel": 5,
      "note": 83,
      "start": 51.9329,
      "duration": 0.0532,
      "velocity": 127,
      "chip": "ym2612"
    },
    {
      "channel": 5,
      "note": 83,
      "start": 52.0154,
      "duration": 0.0538,
      "velocity": 127,
      "chip": "ym2612"
    },
    {
      "channel": 3,
      "note": 63,
      "start": 52.098,
      "duration": 0.0539,
      "velocity": 107,
      "chip": "ym2612"
    },
    {
      "channel": 5,
      "note": 83,
      "start": 52.0999,
      "duration": 0.0523,
      "velocity": 127,
      "chip": "ym2612"
    },
    {
      "channel": 3,
      "note": 63,
      "start": 52.181,
      "duration": 0.0539,
      "velocity": 107,
      "chip": "ym2612"
    },
    {
      "channel": 5,
      "note": 83,
      "start": 52.1829,
      "duration": 0.0524,
      "velocity": 127,
      "chip": "ym2612"
    },
    {
      "channel": 2,
      "note": 73,
      "start": 52.2673,
      "duration": 0.0093,
      "velocity": 127,
      "chip": "ym2612"
    },
    {
      "channel": 3,
      "note": 51,
      "start": 52.269,
      "duration": 0.1323,
      "velocity": 107,
      "chip": "ym2612"
    },
    {
      "channel": 5,
      "note": 83,
      "start": 52.2743,
      "duration": 0.044,
      "velocity": 127,
      "chip": "ym2612"
    },
    {
      "channel": 5,
      "note": 83,
      "start": 52.3476,
      "duration": 0.0541,
      "velocity": 127,
      "chip": "ym2612"
    },
    {
      "channel": 1,
      "note": 68,
      "start": 52.4296,
      "duration": 0.8155,
      "velocity": 106,
      "chip": "ym2612"
    },
    {
      "channel": 3,
      "note": 63,
      "start": 52.4318,
      "duration": 0.0526,
      "velocity": 107,
      "chip": "ym2612"
    },
    {
      "channel": 4,
      "note": 65,
      "start": 52.4334,
      "duration": 0.8126,
      "velocity": 106,
      "chip": "ym2612"
    },
    {
      "channel": 5,
      "note": 83,
      "start": 52.4352,
      "duration": 0.0494,
      "velocity": 127,
      "chip": "ym2612"
    },
    {
      "channel": 3,
      "note": 63,
      "start": 52.5133,
      "duration": 0.054,
      "velocity": 107,
      "chip": "ym2612"
    },
    {
      "channel": 5,
      "note": 83,
      "start": 52.5152,
      "duration": 0.0524,
      "velocity": 127,
      "chip": "ym2612"
    },
    {
      "channel": 2,
      "note": 61,
      "start": 52.6009,
      "duration": 0.0217,
      "velocity": 127,
      "chip": "ym2612"
    },
    {
      "channel": 3,
      "note": 51,
      "start": 52.6026,
      "duration": 0.1446,
      "velocity": 107,
      "chip": "ym2612"
    },
    {
      "channel": 5,
      "note": 83,
      "start": 52.6094,
      "duration": 0.0551,
      "velocity": 127,
      "chip": "ym2612"
    },
    {
      "channel": 2,
      "note": 61,
      "start": 52.6932,
      "duration": 0.0128,
      "velocity": 127,
      "chip": "ym2612"
    },
    {
      "channel": 5,
      "note": 83,
      "start": 52.6949,
      "duration": 0.0526,
      "velocity": 127,
      "chip": "ym2612"
    },
    {
      "channel": 2,
      "note": 61,
      "start": 52.7762,
      "duration": 0.0125,
      "velocity": 127,
      "chip": "ym2612"
    },
    {
      "channel": 3,
      "note": 63,
      "start": 52.7778,
      "duration": 0.0525,
      "velocity": 107,
      "chip": "ym2612"
    },
    {
      "channel": 5,
      "note": 83,
      "start": 52.7828,
      "duration": 0.1309,
      "velocity": 127,
      "chip": "ym2612"
    },
    {
      "channel": 3,
      "note": 63,
      "start": 52.8594,
      "duration": 0.0539,
      "velocity": 107,
      "chip": "ym2612"
    },
    {
      "channel": 2,
      "note": 71,
      "start": 52.9455,
      "duration": 0.0094,
      "velocity": 127,
      "chip": "ym2612"
    },
    {
      "channel": 3,
      "note": 51,
      "start": 52.9473,
      "duration": 0.1322,
      "velocity": 107,
      "chip": "ym2612"
    },
    {
      "channel": 5,
      "note": 83,
      "start": 52.9523,
      "duration": 0.0444,
      "velocity": 127,
      "chip": "ym2612"
    },
    {
      "channel": 5,
      "note": 83,
      "start": 53.0257,
      "duration": 0.0541,
      "velocity": 127,
      "chip": "ym2612"
    },
    {
      "channel": 3,
      "note": 63,
      "start": 53.1086,
      "duration": 0.0539,
      "velocity": 107,
      "chip": "ym2612"
    },
    {
      "channel": 5,
      "note": 83,
      "start": 53.1134,
      "duration": 0.1328,
      "velocity": 127,
      "chip": "ym2612"
    },
    {
      "channel": 3,
      "note": 63,
      "start": 53.1916,
      "duration": 0.0541,
      "velocity": 107,
      "chip": "ym2612"
    },
    {
      "channel": 0,
      "note": 78,
      "start": 53.2742,
      "duration": 0.3174,
      "velocity": 101,
      "chip": "ym2612"
    },
    {
      "channel": 1,
      "note": 66,
      "start": 53.2759,
      "duration": 0.1491,
      "velocity": 106,
      "chip": "ym2612"
    },
    {
      "channel": 2,
      "note": 61,
      "start": 53.2812,
      "duration": 0.0198,
      "velocity": 127,
      "chip": "ym2612"
    },
    {
      "channel": 3,
      "note": 51,
      "start": 53.283,
      "duration": 0.1427,
      "velocity": 107,
      "chip": "ym2612"
    },
    {
      "channel": 4,
      "note": 63,
      "start": 53.2846,
      "duration": 0.1413,
      "velocity": 106,
      "chip": "ym2612"
    },
    {
      "channel": 5,
      "note": 83,
      "start": 53.29,
      "duration": 0.0527,
      "velocity": 127,
      "chip": "ym2612"
    },
    {
      "channel": 5,
      "note": 83,
      "start": 53.3726,
      "duration": 0.0535,
      "velocity": 127,
      "chip": "ym2612"
    },
    {
      "channel": 1,
      "note": 65,
      "start": 53.454,
      "duration": 0.3171,
      "velocity": 106,
      "chip": "ym2612"
    },
    {
      "channel": 3,
      "note": 63,
      "start": 53.4562,
      "duration": 0.0524,
      "velocity": 107,
      "chip": "ym2612"
    },
    {
      "channel": 4,
      "note": 61,
      "start": 53.4578,
      "duration": 0.3142,
      "velocity": 106,
      "chip": "ym2612"
    },
    {
      "channel": 5,
      "note": 83,
      "start": 53.4596,
      "duration": 0.0493,
      "velocity": 127,
      "chip": "ym2612"
    },
    {
      "channel": 3,
      "note": 63,
      "start": 53.5378,
      "duration": 0.0548,
      "velocity": 107,
      "chip": "ym2612"
    },
    {
      "channel": 5,
      "note": 83,
      "start": 53.5397,
      "duration": 0.0531,
      "velocity": 127,
      "chip": "ym2612"
    },
    {
      "channel": 0,
      "note": 66,
      "start": 53.6201,
      "duration": 2.352,
      "velocity": 101,
      "chip": "ym2612"
    },
    {
      "channel": 2,
      "note": 73,
      "start": 53.6255,
      "duration": 0.0216,
      "velocity": 127,
      "chip": "ym2612"
    },
    {
      "channel": 3,
      "note": 51,
      "start": 53.6273,
      "duration": 0.1446,
      "velocity": 107,
      "chip": "ym2612"
    },
    {
      "channel": 5,
      "note": 83,
      "start": 53.6326,
      "duration": 0.0562,
      "velocity": 127,
      "chip": "ym2612"
    },
    {
      "channel": 5,
      "note": 83,
      "start": 53.7182,
      "duration": 0.054,
      "velocity": 127,
      "chip": "ym2612"
    },
    {
      "channel": 1,
      "note": 63,
      "start": 53.8016,
      "duration": 0.3155,
      "velocity": 106,
      "chip": "ym2612"
    },
    {
      "channel": 3,
      "note": 63,
      "start": 53.8038,
      "duration": 0.051,
      "velocity": 107,
      "chip": "ym2612"
    },
    {
      "channel": 4,
      "note": 59,
      "start": 53.8054,
      "duration": 0.3127,
      "velocity": 106,
      "chip": "ym2612"
    },
    {
      "channel": 5,
      "note": 83,
      "start": 53.8072,
      "duration": 0.0479,
      "velocity": 127,
      "chip": "ym2612"
    },
    {
      "channel": 3,
      "note": 63,
      "start": 53.8839,
      "duration": 0.0539,
      "velocity": 107,
      "chip": "ym2612"
    },
    {
      "channel": 5,
      "note": 83,
      "start": 53.8858,
      "duration": 0.0524,
      "velocity": 127,
      "chip": "ym2612"
    },
    {
      "channel": 2,
      "note": 61,
      "start": 53.9715,
      "duration": 0.0217,
      "velocity": 127,
      "chip": "ym2612"
    },
    {
      "channel": 3,
      "note": 51,
      "start": 53.9732,
      "duration": 0.1447,
      "velocity": 107,
      "chip": "ym2612"
    },
    {
      "channel": 5,
      "note": 83,
      "start": 53.9785,
      "duration": 0.0572,
      "velocity": 127,
      "chip": "ym2612"
    },
    {
      "channel": 2,
      "note": 61,
      "start": 54.0637,
      "duration": 0.0125,
      "velocity": 127,
      "chip": "ym2612"
    },
    {
      "channel": 5,
      "note": 83,
      "start": 54.0657,
      "duration": 0.0526,
      "velocity": 127,
      "chip": "ym2612"
    },
    {
      "channel": 1,
      "note": 61,
      "start": 54.1462,
      "duration": 0.4693,
      "velocity": 106,
      "chip": "ym2612"
    },
    {
      "channel": 2,
      "note": 61,
      "start": 54.1483,
      "duration": 0.011,
      "velocity": 127,
      "chip": "ym2612"
    },
    {
      "channel": 3,
      "note": 63,
      "start": 54.15,
      "duration": 0.0509,
      "velocity": 107,
      "chip": "ym2612"
    },
    {
      "channel": 4,
      "note": 58,
      "start": 54.1516,
      "duration": 0.4649,
      "velocity": 106,
      "chip": "ym2612"
    },
    {
      "channel": 5,
      "note": 83,
      "start": 54.1534,
      "duration": 0.0477,
      "velocity": 127,
      "chip": "ym2612"
    },
    {
      "channel": 3,
      "note": 63,
      "start": 54.2299,
      "duration": 0.054,
      "velocity": 107,
      "chip": "ym2612"
    },
    {
      "channel": 5,
      "note": 83,
      "start": 54.2319,
      "duration": 0.0523,
      "velocity": 127,
      "chip": "ym2612"
    },
    {
      "channel": 2,
      "note": 71,
      "start": 54.3161,
      "duration": 0.0093,
      "velocity": 127,
      "chip": "ym2612"
    },
    {
      "channel": 3,
      "note": 51,
      "start": 54.3179,
      "duration": 0.1322,
      "velocity": 107,
      "chip": "ym2612"
    },
    {
      "channel": 5,
      "note": 83,
      "start": 54.3232,
      "duration": 0.044,
      "velocity": 127,
      "chip": "ym2612"
    },
    {
      "channel": 5,
      "note": 83,
      "start": 54.3965,
      "duration": 0.0539,
      "velocity": 127,
      "chip": "ym2612"
    },
    {
      "channel": 3,
      "note": 63,
      "start": 54.4792,
      "duration": 0.0539,
      "velocity": 107,
      "chip": "ym2612"
    },
    {
      "channel": 5,
      "note": 83,
      "start": 54.481,
      "duration": 0.0524,
      "velocity": 127,
      "chip": "ym2612"
    },
    {
      "channel": 3,
      "note": 63,
      "start": 54.5622,
      "duration": 0.0541,
      "velocity": 107,
      "chip": "ym2612"
    },
    {
      "channel": 5,
      "note": 83,
      "start": 54.5641,
      "duration": 0.0526,
      "velocity": 127,
      "chip": "ym2612"
    },
    {
      "channel": 1,
      "note": 59,
      "start": 54.646,
      "duration": 0.4817,
      "velocity": 106,
      "chip": "ym2612"
    },
    {
      "channel": 2,
      "note": 61,
      "start": 54.6514,
      "duration": 0.0201,
      "velocity": 127,
      "chip": "ym2612"
    },
    {
      "channel": 3,
      "note": 51,
      "start": 54.6532,
      "duration": 0.143,
      "velocity": 107,
      "chip": "ym2612"
    },
    {
      "channel": 4,
      "note": 56,
      "start": 54.6548,
      "duration": 0.4739,
      "velocity": 106,
      "chip": "ym2612"
    },
    {
      "channel": 5,
      "note": 83,
      "start": 54.66,
      "duration": 0.0537,
      "velocity": 127,
      "chip": "ym2612"
    },
    {
      "channel": 5,
      "note": 83,
      "start": 54.7425,
      "duration": 0.0539,
      "velocity": 127,
      "chip": "ym2612"
    },
    {
      "channel": 3,
      "note": 63,
      "start": 54.8252,
      "duration": 0.0539,
      "velocity": 107,
      "chip": "ym2612"
    },
    {
      "channel": 5,
      "note": 83,
      "start": 54.8271,
      "duration": 0.0524,
      "velocity": 127,
      "chip": "ym2612"
    },
    {
      "channel": 3,
      "note": 63,
      "start": 54.9083,
      "duration": 0.0539,
      "velocity": 107,
      "chip": "ym2612"
    },
    {
      "channel": 5,
      "note": 83,
      "start": 54.9101,
      "duration": 0.0524,
      "velocity": 127,
      "chip": "ym2612"
    },
    {
      "channel": 2,
      "note": 73,
      "start": 54.9944,
      "duration": 0.0094,
      "velocity": 127,
      "chip": "ym2612"
    },
    {
      "channel": 3,
      "note": 51,
      "start": 54.9961,
      "duration": 0.1323,
      "velocity": 107,
      "chip": "ym2612"
    },
    {
      "channel": 5,
      "note": 83,
      "start": 55.0015,
      "duration": 0.044,
      "velocity": 127,
      "chip": "ym2612"
    },
    {
      "channel": 5,
      "note": 83,
      "start": 55.0748,
      "duration": 0.0541,
      "velocity": 127,
      "chip": "ym2612"
    },
    {
      "channel": 1,
      "note": 58,
      "start": 55.1573,
      "duration": 0.815,
      "velocity": 106,
      "chip": "ym2612"
    },
    {
      "channel": 3,
      "note": 63,
      "start": 55.1595,
      "duration": 0.0519,
      "velocity": 107,
      "chip": "ym2612"
    },
    {
      "channel": 4,
      "note": 54,
      "start": 55.1611,
      "duration": 0.8121,
      "velocity": 106,
      "chip": "ym2612"
    },
    {
      "channel": 5,
      "note": 83,
      "start": 55.1629,
      "duration": 0.0489,
      "velocity": 127,
      "chip": "ym2612"
    },
    {
      "channel": 3,
      "note": 63,
      "start": 55.2405,
      "duration": 0.054,
      "velocity": 107,
      "chip": "ym2612"
    },
    {
      "channel": 5,
      "note": 83,
      "start": 55.2424,
      "duration": 0.0524,
      "velocity": 127,
      "chip": "ym2612"
    },
    {
      "channel": 2,
      "note": 78,
      "start": 55.325,
      "duration": 0.0383,
      "velocity": 127,
      "chip": "ym2612"
    },
    {
      "channel": 3,
      "note": 51,
      "start": 55.3267,
      "duration": 0.1478,
      "velocity": 107,
      "chip": "ym2612"
    },
    {
      "channel": 5,
      "note": 83,
      "start": 55.3335,
      "duration": 0.0581,
      "velocity": 127,
      "chip": "ym2612"
    },
    {
      "channel": 5,
      "note": 83,
      "start": 55.4208,
      "duration": 0.054,
      "velocity": 127,
      "chip": "ym2612"
    },
    {
      "channel": 3,
      "note": 63,
      "start": 55.5036,
      "duration": 0.0539,
      "velocity": 107,
      "chip": "ym2612"
    },
    {
      "channel": 5,
      "note": 83,
      "start": 55.5084,
      "duration": 0.1325,
      "velocity": 127,
      "chip": "ym2612"
    },
    {
      "channel": 2,
      "note": 74,
      "start": 55.5866,
      "duration": 0.0259,
      "velocity": 127,
      "chip": "ym2612"
    },
    {
      "channel": 3,
      "note": 63,
      "start": 55.5881,
      "duration": 0.0525,
      "velocity": 107,
      "chip": "ym2612"
    },
    {
      "channel": 3,
      "note": 51,
      "start": 55.6699,
      "duration": 0.1368,
      "velocity": 107,
      "chip": "ym2612"
    },
    {
      "channel": 5,
      "note": 83,
      "start": 55.6748,
      "duration": 0.049,
      "velocity": 127,
      "chip": "ym2612"
    },
    {
      "channel": 5,
      "note": 83,
      "start": 55.7529,
      "duration": 0.0541,
      "velocity": 127,
      "chip": "ym2612"
    },
    {
      "channel": 2,
      "note": 71,
      "start": 55.8358,
      "duration": 0.0125,
      "velocity": 127,
      "chip": "ym2612"
    },
    {
      "channel": 3,
      "note": 63,
      "start": 55.8374,
      "duration": 0.0524,
      "velocity": 107,
      "chip": "ym2612"
    },
    {
      "channel": 5,
      "note": 83,
      "start": 55.8423,
      "duration": 0.1312,
      "velocity": 127,
      "chip": "ym2612"
    },
    {
      "channel": 3,
      "note": 63,
      "start": 55.9189,
      "duration": 0.0542,
      "velocity": 107,
      "chip": "ym2612"
    },
    {
      "channel": 0,
      "note": 71,
      "start": 56.0019,
      "duration": 0.1502,
      "velocity": 101,
      "chip": "ym2612"
    },
    {
      "channel": 1,
      "note": 63,
      "start": 56.0038,
      "duration": 0.4807,
      "velocity": 106,
      "chip": "ym2612"
    },
    {
      "channel": 2,
      "note": 61,
      "start": 56.0095,
      "duration": 0.0188,
      "velocity": 127,
      "chip": "ym2612"
    },
    {
      "channel": 3,
      "note": 47,
      "start": 56.0116,
      "duration": 0.1414,
      "velocity": 107,
      "chip": "ym2612"
    },
    {
      "channel": 4,
      "note": 59,
      "start": 56.0135,
      "duration": 0.472,
      "velocity": 106,
      "chip": "ym2612"
    },
    {
      "channel": 5,
      "note": 83,
      "start": 56.0193,
      "duration": 0.0507,
      "velocity": 127,
      "chip": "ym2612"
    },
    {
      "channel": 5,
      "note": 83,
      "start": 56.0995,
      "duration": 0.0538,
      "velocity": 127,
      "chip": "ym2612"
    },
    {
      "channel": 0,
      "note": 75,
      "start": 56.1813,
      "duration": 0.4692,
      "velocity": 101,
      "chip": "ym2612"
    },
    {
      "channel": 3,
      "note": 59,
      "start": 56.1836,
      "duration": 0.0523,
      "velocity": 107,
      "chip": "ym2612"
    },
    {
      "channel": 5,
      "note": 83,
      "start": 56.1855,
      "duration": 0.0507,
      "velocity": 127,
      "chip": "ym2612"
    },
    {
      "channel": 3,
      "note": 59,
      "start": 56.265,
      "duration": 0.054,
      "velocity": 107,
      "chip": "ym2612"
    },
    {
      "channel": 5,
      "note": 83,
      "start": 56.267,
      "duration": 0.0523,
      "velocity": 127,
      "chip": "ym2612"
    },
    {
      "channel": 2,
      "note": 71,
      "start": 56.3512,
      "duration": 0.0093,
      "velocity": 127,
      "chip": "ym2612"
    },
    {
      "channel": 3,
      "note": 47,
      "start": 56.3529,
      "duration": 0.1323,
      "velocity": 107,
      "chip": "ym2612"
    },
    {
      "channel": 5,
      "note": 83,
      "start": 56.3582,
      "duration": 0.044,
      "velocity": 127,
      "chip": "ym2612"
    },
    {
      "channel": 5,
      "note": 83,
      "start": 56.4316,
      "duration": 0.0541,
      "velocity": 127,
      "chip": "ym2612"
    },
    {
      "channel": 1,
      "note": 66,
      "start": 56.5135,
      "duration": 0.4833,
      "velocity": 106,
      "chip": "ym2612"
    },
    {
      "channel": 3,
      "note": 59,
      "start": 56.5157,
      "duration": 0.0525,
      "velocity": 107,
      "chip": "ym2612"
    },
    {
      "channel": 4,
      "note": 63,
      "start": 56.5173,
      "duration": 0.4805,
      "velocity": 106,
      "chip": "ym2612"
    },
    {
      "channel": 5,
      "note": 83,
      "start": 56.5191,
      "duration": 0.0494,
      "velocity": 127,
      "chip": "ym2612"
    },
    {
      "channel": 3,
      "note": 59,
      "start": 56.5972,
      "duration": 0.0541,
      "velocity": 107,
      "chip": "ym2612"
    },
    {
      "channel": 5,
      "note": 83,
      "start": 56.5991,
      "duration": 0.0526,
      "velocity": 127,
      "chip": "ym2612"
    },
    {
      "channel": 0,
      "note": 77,
      "start": 56.6797,
      "duration": 0.317,
      "velocity": 101,
      "chip": "ym2612"
    },
    {
      "channel": 2,
      "note": 61,
      "start": 56.685,
      "duration": 0.0216,
      "velocity": 127,
      "chip": "ym2612"
    },
    {
      "channel": 3,
      "note": 47,
      "start": 56.6868,
      "duration": 0.1445,
      "velocity": 107,
      "chip": "ym2612"
    },
    {
      "channel": 5,
      "note": 83,
      "start": 56.6921,
      "duration": 0.0562,
      "velocity": 127,
      "chip": "ym2612"
    },
    {
      "channel": 2,
      "note": 61,
      "start": 56.7772,
      "duration": 0.0125,
      "velocity": 127,
      "chip": "ym2612"
    },
    {
      "channel": 5,
      "note": 83,
      "start": 56.7792,
      "duration": 0.0524,
      "velocity": 127,
      "chip": "ym2612"
    },
    {
      "channel": 2,
      "note": 61,
      "start": 56.8602,
      "duration": 0.0125,
      "velocity": 127,
      "chip": "ym2612"
    },
    {
      "channel": 3,
      "note": 59,
      "start": 56.8618,
      "duration": 0.0525,
      "velocity": 107,
      "chip": "ym2612"
    },
    {
      "channel": 5,
      "note": 83,
      "start": 56.8637,
      "duration": 0.0508,
      "velocity": 127,
      "chip": "ym2612"
    },
    {
      "channel": 3,
      "note": 59,
      "start": 56.9438,
      "duration": 0.0538,
      "velocity": 107,
      "chip": "ym2612"
    },
    {
      "channel": 5,
      "note": 83,
      "start": 56.9457,
      "duration": 0.0523,
      "velocity": 127,
      "chip": "ym2612"
    },
    {
      "channel": 0,
      "note": 78,
      "start": 57.0257,
      "duration": 0.317,
      "velocity": 101,
      "chip": "ym2612"
    },
    {
      "channel": 1,
      "note": 70,
      "start": 57.0274,
      "duration": 0.3155,
      "velocity": 106,
      "chip": "ym2612"
    },
    {
      "channel": 2,
      "note": 71,
      "start": 57.0327,
      "duration": 0.02,
      "velocity": 127,
      "chip": "ym2612"
    },
    {
      "channel": 3,
      "note": 47,
      "start": 57.0344,
      "duration": 0.1429,
      "velocity": 107,
      "chip": "ym2612"
    },
    {
      "channel": 4,
      "note": 66,
      "start": 57.036,
      "duration": 0.3078,
      "velocity": 106,
      "chip": "ym2612"
    },
    {
      "channel": 5,
      "note": 83,
      "start": 57.0412,
      "duration": 0.0532,
      "velocity": 127,
      "chip": "ym2612"
    },
    {
      "channel": 5,
      "note": 83,
      "start": 57.1238,
      "duration": 0.0539,
      "velocity": 127,
      "chip": "ym2612"
    },
    {
      "channel": 3,
      "note": 59,
      "start": 57.2064,
      "duration": 0.0539,
      "velocity": 107,
      "chip": "ym2612"
    },
    {
      "channel": 5,
      "note": 83,
      "start": 57.2083,
      "duration": 0.0524,
      "velocity": 127,
      "chip": "ym2612"
    },
    {
      "channel": 3,
      "note": 59,
      "start": 57.2895,
      "duration": 0.0542,
      "velocity": 107,
      "chip": "ym2612"
    },
    {
      "channel": 5,
      "note": 83,
      "start": 57.2914,
      "duration": 0.0527,
      "velocity": 127,
      "chip": "ym2612"
    },
    {
      "channel": 0,
      "note": 71,
      "start": 57.372,
      "duration": 0.1507,
      "velocity": 101,
      "chip": "ym2612"
    },
    {
      "channel": 1,
      "note": 73,
      "start": 57.3736,
      "duration": 0.4814,
      "velocity": 106,
      "chip": "ym2612"
    },
    {
      "channel": 2,
      "note": 61,
      "start": 57.379,
      "duration": 0.0198,
      "velocity": 127,
      "chip": "ym2612"
    },
    {
      "channel": 3,
      "note": 47,
      "start": 57.3807,
      "duration": 0.1428,
      "velocity": 107,
      "chip": "ym2612"
    },
    {
      "channel": 4,
      "note": 70,
      "start": 57.3824,
      "duration": 0.4736,
      "velocity": 106,
      "chip": "ym2612"
    },
    {
      "channel": 5,
      "note": 83,
      "start": 57.3876,
      "duration": 0.0529,
      "velocity": 127,
      "chip": "ym2612"
    },
    {
      "channel": 5,
      "note": 83,
      "start": 57.4698,
      "duration": 0.054,
      "velocity": 127,
      "chip": "ym2612"
    },
    {
      "channel": 0,
      "note": 75,
      "start": 57.5518,
      "duration": 0.4692,
      "velocity": 101,
      "chip": "ym2612"
    },
    {
      "channel": 3,
      "note": 59,
      "start": 57.5541,
      "duration": 0.0531,
      "velocity": 107,
      "chip": "ym2612"
    },
    {
      "channel": 5,
      "note": 83,
      "start": 57.556,
      "duration": 0.0515,
      "velocity": 127,
      "chip": "ym2612"
    },
    {
      "channel": 3,
      "note": 59,
      "start": 57.6356,
      "duration": 0.054,
      "velocity": 107,
      "chip": "ym2612"
    },
    {
      "channel": 5,
      "note": 83,
      "start": 57.6374,
      "duration": 0.0524,
      "velocity": 127,
      "chip": "ym2612"
    },
    {
      "channel": 2,
      "note": 71,
      "start": 57.7217,
      "duration": 0.0094,
      "velocity": 127,
      "chip": "ym2612"
    },
    {
      "channel": 3,
      "note": 47,
      "start": 57.7234,
      "duration": 0.1324,
      "velocity": 107,
      "chip": "ym2612"
    },
    {
      "channel": 5,
      "note": 83,
      "start": 57.7287,
      "duration": 0.0441,
      "velocity": 127,
      "chip": "ym2612"
    },
    {
      "channel": 5,
      "note": 83,
      "start": 57.8021,
      "duration": 0.0541,
      "velocity": 127,
      "chip": "ym2612"
    },
    {
      "channel": 1,
      "note": 71,
      "start": 57.8841,
      "duration": 0.4833,
      "velocity": 106,
      "chip": "ym2612"
    },
    {
      "channel": 3,
      "note": 59,
      "start": 57.8863,
      "duration": 0.0524,
      "velocity": 107,
      "chip": "ym2612"
    },
    {
      "channel": 4,
      "note": 68,
      "start": 57.8879,
      "duration": 0.4804,
      "velocity": 106,
      "chip": "ym2612"
    },
    {
      "channel": 5,
      "note": 83,
      "start": 57.8897,
      "duration": 0.0493,
      "velocity": 127,
      "chip": "ym2612"
    },
    {
      "channel": 3,
      "note": 59,
      "start": 57.9678,
      "duration": 0.054,
      "velocity": 107,
      "chip": "ym2612"
    },
    {
      "channel": 5,
      "note": 83,
      "start": 57.9697,
      "duration": 0.0524,
      "velocity": 127,
      "chip": "ym2612"
    },
    {
      "channel": 0,
      "note": 77,
      "start": 58.0503,
      "duration": 0.3169,
      "velocity": 101,
      "chip": "ym2612"
    },
    {
      "channel": 2,
      "note": 61,
      "start": 58.0556,
      "duration": 0.0216,
      "velocity": 127,
      "chip": "ym2612"
    },
    {
      "channel": 3,
      "note": 47,
      "start": 58.0573,
      "duration": 0.1445,
      "velocity": 107,
      "chip": "ym2612"
    },
    {
      "channel": 5,
      "note": 83,
      "start": 58.0626,
      "duration": 0.0562,
      "velocity": 127,
      "chip": "ym2612"
    },
    {
      "channel": 2,
      "note": 61,
      "start": 58.1477,
      "duration": 0.0125,
      "velocity": 127,
      "chip": "ym2612"
    },
    {
      "channel": 5,
      "note": 83,
      "start": 58.1497,
      "duration": 0.0525,
      "velocity": 127,
      "chip": "ym2612"
    },
    {
      "channel": 2,
      "note": 61,
      "start": 58.2307,
      "duration": 0.0125,
      "velocity": 127,
      "chip": "ym2612"
    },
    {
      "channel": 3,
      "note": 59,
      "start": 58.2324,
      "duration": 0.0526,
      "velocity": 107,
      "chip": "ym2612"
    },
    {
      "channel": 5,
      "note": 83,
      "start": 58.2373,
      "duration": 0.1312,
      "velocity": 127,
      "chip": "ym2612"
    },
    {
      "channel": 3,
      "note": 59,
      "start": 58.3139,
      "duration": 0.0543,
      "velocity": 107,
      "chip": "ym2612"
    },
    {
      "channel": 0,
      "note": 78,
      "start": 58.3963,
      "duration": 0.317,
      "velocity": 101,
      "chip": "ym2612"
    },
    {
      "channel": 1,
      "note": 68,
      "start": 58.3979,
      "duration": 0.3155,
      "velocity": 106,
      "chip": "ym2612"
    },
    {
      "channel": 2,
      "note": 71,
      "start": 58.4032,
      "duration": 0.02,
      "velocity": 127,
      "chip": "ym2612"
    },
    {
      "channel": 3,
      "note": 47,
      "start": 58.405,
      "duration": 0.1429,
      "velocity": 107,
      "chip": "ym2612"
    },
    {
      "channel": 4,
      "note": 65,
      "start": 58.4066,
      "duration": 0.3078,
      "velocity": 106,
      "chip": "ym2612"
    },
    {
      "channel": 5,
      "note": 83,
      "start": 58.4115,
      "duration": 0.0535,
      "velocity": 127,
      "chip": "ym2612"
    },
    {
      "channel": 5,
      "note": 83,
      "start": 58.4942,
      "duration": 0.054,
      "velocity": 127,
      "chip": "ym2612"
    },
    {
      "channel": 3,
      "note": 59,
      "start": 58.5769,
      "duration": 0.0541,
      "velocity": 107,
      "chip": "ym2612"
    },
    {
      "channel": 5,
      "note": 83,
      "start": 58.5818,
      "duration": 0.1328,
      "velocity": 127,
      "chip": "ym2612"
    },
    {
      "channel": 3,
      "note": 59,
      "start": 58.66,
      "duration": 0.0542,
      "velocity": 107,
      "chip": "ym2612"
    },
    {
      "channel": 0,
      "note": 71,
      "start": 58.7425,
      "duration": 0.1507,
      "velocity": 101,
      "chip": "ym2612"
    },
    {
      "channel": 1,
      "note": 70,
      "start": 58.7442,
      "duration": 1.3398,
      "velocity": 106,
      "chip": "ym2612"
    },
    {
      "channel": 2,
      "note": 61,
      "start": 58.7496,
      "duration": 0.0198,
      "velocity": 127,
      "chip": "ym2612"
    },
    {
      "channel": 3,
      "note": 47,
      "start": 58.7514,
      "duration": 0.1427,
      "velocity": 107,
      "chip": "ym2612"
    },
    {
      "channel": 4,
      "note": 66,
      "start": 58.7529,
      "duration": 1.332,
      "velocity": 106,
      "chip": "ym2612"
    },
    {
      "channel": 5,
      "note": 83,
      "start": 58.7583,
      "duration": 0.0528,
      "velocity": 127,
      "chip": "ym2612"
    },
    {
      "channel": 5,
      "note": 83,
      "start": 58.8404,
      "duration": 0.054,
      "velocity": 127,
      "chip": "ym2612"
    },
    {
      "channel": 0,
      "note": 75,
      "start": 58.9224,
      "duration": 0.4698,
      "velocity": 101,
      "chip": "ym2612"
    },
    {
      "channel": 3,
      "note": 59,
      "start": 58.9246,
      "duration": 0.0524,
      "velocity": 107,
      "chip": "ym2612"
    },
    {
      "channel": 5,
      "note": 83,
      "start": 58.9266,
      "duration": 0.0508,
      "velocity": 127,
      "chip": "ym2612"
    },
    {
      "channel": 3,
      "note": 59,
      "start": 59.0061,
      "duration": 0.0539,
      "velocity": 107,
      "chip": "ym2612"
    },
    {
      "channel": 5,
      "note": 83,
      "start": 59.008,
      "duration": 0.0524,
      "velocity": 127,
      "chip": "ym2612"
    },
    {
      "channel": 2,
      "note": 71,
      "start": 59.0922,
      "duration": 0.0094,
      "velocity": 127,
      "chip": "ym2612"
    },
    {
      "channel": 3,
      "note": 47,
      "start": 59.094,
      "duration": 0.1322,
      "velocity": 107,
      "chip": "ym2612"
    },
    {
      "channel": 5,
      "note": 83,
      "start": 59.0993,
      "duration": 0.044,
      "velocity": 127,
      "chip": "ym2612"
    },
    {
      "channel": 5,
      "note": 83,
      "start": 59.1732,
      "duration": 0.0534,
      "velocity": 127,
      "chip": "ym2612"
    },
    {
      "channel": 3,
      "note": 59,
      "start": 59.2553,
      "duration": 0.0539,
      "velocity": 107,
      "chip": "ym2612"
    },
    {
      "channel": 5,
      "note": 83,
      "start": 59.2572,
      "duration": 0.0523,
      "velocity": 127,
      "chip": "ym2612"
    },
    {
      "channel": 3,
      "note": 59,
      "start": 59.3383,
      "duration": 0.0547,
      "velocity": 107,
      "chip": "ym2612"
    },
    {
      "channel": 5,
      "note": 83,
      "start": 59.3402,
      "duration": 0.0531,
      "velocity": 127,
      "chip": "ym2612"
    },
    {
      "channel": 0,
      "note": 77,
      "start": 59.4208,
      "duration": 0.317,
      "velocity": 101,
      "chip": "ym2612"
    },
    {
      "channel": 2,
      "note": 61,
      "start": 59.4261,
      "duration": 0.0216,
      "velocity": 127,
      "chip": "ym2612"
    },
    {
      "channel": 3,
      "note": 47,
      "start": 59.4278,
      "duration": 0.1445,
      "velocity": 107,
      "chip": "ym2612"
    },
    {
      "channel": 5,
      "note": 83,
      "start": 59.4332,
      "duration": 0.0562,
      "velocity": 127,
      "chip": "ym2612"
    },
    {
      "channel": 2,
      "note": 61,
      "start": 59.5183,
      "duration": 0.0125,
      "velocity": 127,
      "chip": "ym2612"
    },
    {
      "channel": 5,
      "note": 83,
      "start": 59.5202,
      "duration": 0.0524,
      "velocity": 127,
      "chip": "ym2612"
    },
    {
      "channel": 2,
      "note": 61,
      "start": 59.6013,
      "duration": 0.0132,
      "velocity": 127,
      "chip": "ym2612"
    },
    {
      "channel": 3,
      "note": 59,
      "start": 59.6029,
      "duration": 0.0524,
      "velocity": 107,
      "chip": "ym2612"
    },
    {
      "channel": 5,
      "note": 83,
      "start": 59.6049,
      "duration": 0.0507,
      "velocity": 127,
      "chip": "ym2612"
    },
    {
      "channel": 3,
      "note": 59,
      "start": 59.6845,
      "duration": 0.0541,
      "velocity": 107,
      "chip": "ym2612"
    },
    {
      "channel": 5,
      "note": 83,
      "start": 59.6864,
      "duration": 0.0525,
      "velocity": 127,
      "chip": "ym2612"
    },
    {
      "channel": 0,
      "note": 78,
      "start": 59.7669,
      "duration": 0.3169,
      "velocity": 101,
      "chip": "ym2612"
    },
    {
      "channel": 2,
      "note": 71,
      "start": 59.7722,
      "duration": 0.0216,
      "velocity": 127,
      "chip": "ym2612"
    },
    {
      "channel": 3,
      "note": 47,
      "start": 59.774,
      "duration": 0.1445,
      "velocity": 107,
      "chip": "ym2612"
    },
    {
      "channel": 5,
      "note": 83,
      "start": 59.7793,
      "duration": 0.0571,
      "velocity": 127,
      "chip": "ym2612"
    },
    {
      "channel": 5,
      "note": 83,
      "start": 59.8649,
      "duration": 0.0539,
      "velocity": 127,
      "chip": "ym2612"
    },
    {
      "channel": 3,
      "note": 59,
      "start": 59.9475,
      "duration": 0.0539,
      "velocity": 107,
      "chip": "ym2612"
    },
    {
      "channel": 5,
      "note": 83,
      "start": 59.9495,
      "duration": 0.0523,
      "velocity": 127,
      "chip": "ym2612"
    },
    {
      "channel": 3,
      "note": 59,
      "start": 60.0306,
      "duration": 0.0542,
      "velocity": 107,
      "chip": "ym2612"
    },
    {
      "channel": 5,
      "note": 83,
      "start": 60.0325,
      "duration": 0.0526,
      "velocity": 127,
      "chip": "ym2612"
    },
    {
      "channel": 0,
      "note": 82,
      "start": 60.1131,
      "duration": 0.3169,
      "velocity": 101,
      "chip": "ym2612"
    },
    {
      "channel": 1,
      "note": 68,
      "start": 60.1147,
      "duration": 0.6615,
      "velocity": 106,
      "chip": "ym2612"
    },
    {
      "channel": 2,
      "note": 61,
      "start": 60.1201,
      "duration": 0.0198,
      "velocity": 127,
      "chip": "ym2612"
    },
    {
      "channel": 3,
      "note": 47,
      "start": 60.1219,
      "duration": 0.1427,
      "velocity": 107,
      "chip": "ym2612"
    },
    {
      "channel": 4,
      "note": 65,
      "start": 60.1235,
      "duration": 0.6537,
      "velocity": 106,
      "chip": "ym2612"
    },
    {
      "channel": 5,
      "note": 83,
      "start": 60.1287,
      "duration": 0.053,
      "velocity": 127,
      "chip": "ym2612"
    },
    {
      "channel": 5,
      "note": 83,
      "start": 60.2109,
      "duration": 0.0539,
      "velocity": 127,
      "chip": "ym2612"
    },
    {
      "channel": 3,
      "note": 59,
      "start": 60.2938,
      "duration": 0.0538,
      "velocity": 107,
      "chip": "ym2612"
    },
    {
      "channel": 5,
      "note": 83,
      "start": 60.2957,
      "duration": 0.0522,
      "velocity": 127,
      "chip": "ym2612"
    },
    {
      "channel": 3,
      "note": 59,
      "start": 60.3767,
      "duration": 0.0541,
      "velocity": 107,
      "chip": "ym2612"
    },
    {
      "channel": 5,
      "note": 83,
      "start": 60.3786,
      "duration": 0.0525,
      "velocity": 127,
      "chip": "ym2612"
    },
    {
      "channel": 0,
      "note": 80,
      "start": 60.4591,
      "duration": 0.317,
      "velocity": 101,
      "chip": "ym2612"
    },
    {
      "channel": 2,
      "note": 71,
      "start": 60.4644,
      "duration": 0.0216,
      "velocity": 127,
      "chip": "ym2612"
    },
    {
      "channel": 3,
      "note": 47,
      "start": 60.4661,
      "duration": 0.1445,
      "velocity": 107,
      "chip": "ym2612"
    },
    {
      "channel": 5,
      "note": 83,
      "start": 60.4715,
      "duration": 0.0562,
      "velocity": 127,
      "chip": "ym2612"
    },
    {
      "channel": 5,
      "note": 83,
      "start": 60.557,
      "duration": 0.0539,
      "velocity": 127,
      "chip": "ym2612"
    },
    {
      "channel": 3,
      "note": 59,
      "start": 60.6397,
      "duration": 0.0539,
      "velocity": 107,
      "chip": "ym2612"
    },
    {
      "channel": 5,
      "note": 83,
      "start": 60.6416,
      "duration": 0.0524,
      "velocity": 127,
      "chip": "ym2612"
    },
    {
      "channel": 3,
      "note": 59,
      "start": 60.7227,
      "duration": 0.0542,
      "velocity": 107,
      "chip": "ym2612"
    },
    {
      "channel": 5,
      "note": 83,
      "start": 60.7246,
      "duration": 0.0527,
      "velocity": 127,
      "chip": "ym2612"
    },
    {
      "channel": 0,
      "note": 78,
      "start": 60.8051,
      "duration": 0.483,
      "velocity": 101,
      "chip": "ym2612"
    },
    {
      "channel": 1,
      "note": 65,
      "start": 60.8068,
      "duration": 0.6478,
      "velocity": 106,
      "chip": "ym2612"
    },
    {
      "channel": 2,
      "note": 61,
      "start": 60.812,
      "duration": 0.0201,
      "velocity": 127,
      "chip": "ym2612"
    },
    {
      "channel": 3,
      "note": 47,
      "start": 60.8137,
      "duration": 0.1435,
      "velocity": 107,
      "chip": "ym2612"
    },
    {
      "channel": 4,
      "note": 61,
      "start": 60.8154,
      "duration": 0.6402,
      "velocity": 106,
      "chip": "ym2612"
    },
    {
      "channel": 5,
      "note": 83,
      "start": 60.8206,
      "duration": 0.0532,
      "velocity": 127,
      "chip": "ym2612"
    },
    {
      "channel": 2,
      "note": 61,
      "start": 60.9026,
      "duration": 0.0125,
      "velocity": 127,
      "chip": "ym2612"
    },
    {
      "channel": 5,
      "note": 83,
      "start": 60.9045,
      "duration": 0.053,
      "velocity": 127,
      "chip": "ym2612"
    },
    {
      "channel": 2,
      "note": 61,
      "start": 60.9856,
      "duration": 0.0126,
      "velocity": 127,
      "chip": "ym2612"
    },
    {
      "channel": 3,
      "note": 59,
      "start": 60.9873,
      "duration": 0.0524,
      "velocity": 107,
      "chip": "ym2612"
    },
    {
      "channel": 5,
      "note": 83,
      "start": 60.9922,
      "duration": 0.131,
      "velocity": 127,
      "chip": "ym2612"
    },
    {
      "channel": 3,
      "note": 59,
      "start": 61.0689,
      "duration": 0.054,
      "velocity": 107,
      "chip": "ym2612"
    },
    {
      "channel": 2,
      "note": 71,
      "start": 61.155,
      "duration": 0.0094,
      "velocity": 127,
      "chip": "ym2612"
    },
    {
      "channel": 3,
      "note": 47,
      "start": 61.1567,
      "duration": 0.1323,
      "velocity": 107,
      "chip": "ym2612"
    },
    {
      "channel": 5,
      "note": 83,
      "start": 61.1617,
      "duration": 0.0443,
      "velocity": 127,
      "chip": "ym2612"
    },
    {
      "channel": 5,
      "note": 83,
      "start": 61.2351,
      "duration": 0.0541,
      "velocity": 127,
      "chip": "ym2612"
    },
    {
      "channel": 0,
      "note": 77,
      "start": 61.3174,
      "duration": 0.137,
      "velocity": 101,
      "chip": "ym2612"
    },
    {
      "channel": 3,
      "note": 59,
      "start": 61.3197,
      "duration": 0.0523,
      "velocity": 107,
      "chip": "ym2612"
    },
    {
      "channel": 5,
      "note": 83,
      "start": 61.3245,
      "duration": 0.1312,
      "velocity": 127,
      "chip": "ym2612"
    },
    {
      "channel": 3,
      "note": 59,
      "start": 61.4019,
      "duration": 0.0534,
      "velocity": 107,
      "chip": "ym2612"
    },
    {
      "channel": 0,
      "note": 78,
      "start": 61.4838,
      "duration": 0.3167,
      "velocity": 101,
      "chip": "ym2612"
    },
    {
      "channel": 1,
      "note": 66,
      "start": 61.4858,
      "duration": 0.1487,
      "velocity": 106,
      "chip": "ym2612"
    },
    {
      "channel": 2,
      "note": 61,
      "start": 61.4915,
      "duration": 0.019,
      "velocity": 127,
      "chip": "ym2612"
    },
    {
      "channel": 3,
      "note": 51,
      "start": 61.4937,
      "duration": 0.1415,
      "velocity": 107,
      "chip": "ym2612"
    },
    {
      "channel": 4,
      "note": 63,
      "start": 61.4956,
      "duration": 0.1398,
      "velocity": 106,
      "chip": "ym2612"
    },
    {
      "channel": 5,
      "note": 83,
      "start": 61.5014,
      "duration": 0.0508,
      "velocity": 127,
      "chip": "ym2612"
    },
    {
      "channel": 5,
      "note": 83,
      "start": 61.5815,
      "duration": 0.0541,
      "velocity": 127,
      "chip": "ym2612"
    },
    {
      "channel": 1,
      "note": 65,
      "start": 61.6635,
      "duration": 0.3171,
      "velocity": 106,
      "chip": "ym2612"
    },
    {
      "channel": 3,
      "note": 63,
      "start": 61.6657,
      "duration": 0.0524,
      "velocity": 107,
      "chip": "ym2612"
    },
    {
      "channel": 4,
      "note": 61,
      "start": 61.6673,
      "duration": 0.3142,
      "velocity": 106,
      "chip": "ym2612"
    },
    {
      "channel": 5,
      "note": 83,
      "start": 61.6691,
      "duration": 0.0493,
      "velocity": 127,
      "chip": "ym2612"
    },
    {
      "channel": 3,
      "note": 63,
      "start": 61.7472,
      "duration": 0.0541,
      "velocity": 107,
      "chip": "ym2612"
    },
    {
      "channel": 5,
      "note": 83,
      "start": 61.7491,
      "duration": 0.0526,
      "velocity": 127,
      "chip": "ym2612"
    },
    {
      "channel": 0,
      "note": 66,
      "start": 61.8296,
      "duration": 2.352,
      "velocity": 101,
      "chip": "ym2612"
    },
    {
      "channel": 2,
      "note": 73,
      "start": 61.835,
      "duration": 0.0216,
      "velocity": 127,
      "chip": "ym2612"
    },
    {
      "channel": 3,
      "note": 51,
      "start": 61.8367,
      "duration": 0.1445,
      "velocity": 107,
      "chip": "ym2612"
    },
    {
      "channel": 5,
      "note": 83,
      "start": 61.842,
      "duration": 0.0562,
      "velocity": 127,
      "chip": "ym2612"
    },
    {
      "channel": 5,
      "note": 83,
      "start": 61.9276,
      "duration": 0.0541,
      "velocity": 127,
      "chip": "ym2612"
    },
    {
      "channel": 1,
      "note": 63,
      "start": 62.011,
      "duration": 0.3156,
      "velocity": 106,
      "chip": "ym2612"
    },
    {
      "channel": 3,
      "note": 63,
      "start": 62.0132,
      "duration": 0.0511,
      "velocity": 107,
      "chip": "ym2612"
    },
    {
      "channel": 4,
      "note": 59,
      "start": 62.0148,
      "duration": 0.3127,
      "velocity": 106,
      "chip": "ym2612"
    },
    {
      "channel": 5,
      "note": 83,
      "start": 62.0166,
      "duration": 0.048,
      "velocity": 127,
      "chip": "ym2612"
    },
    {
      "channel": 3,
      "note": 63,
      "start": 62.0934,
      "duration": 0.0539,
      "velocity": 107,
      "chip": "ym2612"
    },
    {
      "channel": 5,
      "note": 83,
      "start": 62.0952,
      "duration": 0.0524,
      "velocity": 127,
      "chip": "ym2612"
    },
    {
      "channel": 2,
      "note": 61,
      "start": 62.1809,
      "duration": 0.0217,
      "velocity": 127,
      "chip": "ym2612"
    },
    {
      "channel": 3,
      "note": 51,
      "start": 62.1827,
      "duration": 0.1446,
      "velocity": 107,
      "chip": "ym2612"
    },
    {
      "channel": 5,
      "note": 83,
      "start": 62.188,
      "duration": 0.0564,
      "velocity": 127,
      "chip": "ym2612"
    },
    {
      "channel": 2,
      "note": 61,
      "start": 62.2731,
      "duration": 0.0125,
      "velocity": 127,
      "chip": "ym2612"
    },
    {
      "channel": 5,
      "note": 83,
      "start": 62.2751,
      "duration": 0.0526,
      "velocity": 127,
      "chip": "ym2612"
    },
    {
      "channel": 1,
      "note": 65,
      "start": 62.3557,
      "duration": 0.4693,
      "velocity": 106,
      "chip": "ym2612"
    },
    {
      "channel": 2,
      "note": 61,
      "start": 62.3577,
      "duration": 0.011,
      "velocity": 127,
      "chip": "ym2612"
    },
    {
      "channel": 3,
      "note": 63,
      "start": 62.3594,
      "duration": 0.0509,
      "velocity": 107,
      "chip": "ym2612"
    },
    {
      "channel": 4,
      "note": 61,
      "start": 62.361,
      "duration": 0.4648,
      "velocity": 106,
      "chip": "ym2612"
    },
    {
      "channel": 5,
      "note": 83,
      "start": 62.3628,
      "duration": 0.0478,
      "velocity": 127,
      "chip": "ym2612"
    },
    {
      "channel": 3,
      "note": 63,
      "start": 62.4393,
      "duration": 0.054,
      "velocity": 107,
      "chip": "ym2612"
    },
    {
      "channel": 5,
      "note": 83,
      "start": 62.4412,
      "duration": 0.0524,
      "velocity": 127,
      "chip": "ym2612"
    },
    {
      "channel": 2,
      "note": 71,
      "start": 62.5259,
      "duration": 0.0094,
      "velocity": 127,
      "chip": "ym2612"
    },
    {
      "channel": 3,
      "note": 51,
      "start": 62.5276,
      "duration": 0.1319,
      "velocity": 107,
      "chip": "ym2612"
    },
    {
      "channel": 5,
      "note": 83,
      "start": 62.533,
      "duration": 0.0436,
      "velocity": 127,
      "chip": "ym2612"
    },
    {
      "channel": 5,
      "note": 83,
      "start": 62.6059,
      "duration": 0.0539,
      "velocity": 127,
      "chip": "ym2612"
    },
    {
      "channel": 3,
      "note": 63,
      "start": 62.6886,
      "duration": 0.0544,
      "velocity": 107,
      "chip": "ym2612"
    },
    {
      "channel": 5,
      "note": 83,
      "start": 62.6904,
      "duration": 0.0529,
      "velocity": 127,
      "chip": "ym2612"
    },
    {
      "channel": 3,
      "note": 63,
      "start": 62.7716,
      "duration": 0.0541,
      "velocity": 107,
      "chip": "ym2612"
    },
    {
      "channel": 5,
      "note": 83,
      "start": 62.7735,
      "duration": 0.0526,
      "velocity": 127,
      "chip": "ym2612"
    },
    {
      "channel": 1,
      "note": 66,
      "start": 62.8554,
      "duration": 0.4817,
      "velocity": 106,
      "chip": "ym2612"
    },
    {
      "channel": 2,
      "note": 61,
      "start": 62.8608,
      "duration": 0.0202,
      "velocity": 127,
      "chip": "ym2612"
    },
    {
      "channel": 3,
      "note": 51,
      "start": 62.8626,
      "duration": 0.1429,
      "velocity": 107,
      "chip": "ym2612"
    },
    {
      "channel": 4,
      "note": 63,
      "start": 62.8642,
      "duration": 0.4739,
      "velocity": 106,
      "chip": "ym2612"
    },
    {
      "channel": 5,
      "note": 83,
      "start": 62.8694,
      "duration": 0.0533,
      "velocity": 127,
      "chip": "ym2612"
    },
    {
      "channel": 5,
      "note": 83,
      "start": 62.952,
      "duration": 0.0539,
      "velocity": 127,
      "chip": "ym2612"
    },
    {
      "channel": 3,
      "note": 63,
      "start": 63.0347,
      "duration": 0.0539,
      "velocity": 107,
      "chip": "ym2612"
    },
    {
      "channel": 5,
      "note": 83,
      "start": 63.0366,
      "duration": 0.0523,
      "velocity": 127,
      "chip": "ym2612"
    },
    {
      "channel": 3,
      "note": 63,
      "start": 63.1178,
      "duration": 0.0539,
      "velocity": 107,
      "chip": "ym2612"
    },
    {
      "channel": 5,
      "note": 83,
      "start": 63.1196,
      "duration": 0.0524,
      "velocity": 127,
      "chip": "ym2612"
    },
    {
      "channel": 2,
      "note": 73,
      "start": 63.2039,
      "duration": 0.0093,
      "velocity": 127,
      "chip": "ym2612"
    },
    {
      "channel": 3,
      "note": 51,
      "start": 63.2057,
      "duration": 0.1322,
      "velocity": 107,
      "chip": "ym2612"
    },
    {
      "channel": 5,
      "note": 83,
      "start": 63.211,
      "duration": 0.0439,
      "velocity": 127,
      "chip": "ym2612"
    },
    {
      "channel": 5,
      "note": 83,
      "start": 63.2843,
      "duration": 0.0541,
      "velocity": 127,
      "chip": "ym2612"
    },
    {
      "channel": 1,
      "note": 68,
      "start": 63.3663,
      "duration": 0.8154,
      "velocity": 106,
      "chip": "ym2612"
    },
    {
      "channel": 3,
      "note": 63,
      "start": 63.3685,
      "duration": 0.0524,
      "velocity": 107,
      "chip": "ym2612"
    },
    {
      "channel": 4,
      "note": 65,
      "start": 63.3701,
      "duration": 0.8126,
      "velocity": 106,
      "chip": "ym2612"
    },
    {
      "channel": 5,
      "note": 83,
      "start": 63.3719,
      "duration": 0.0493,
      "velocity": 127,
      "chip": "ym2612"
    },
    {
      "channel": 3,
      "note": 63,
      "start": 63.45,
      "duration": 0.0539,
      "velocity": 107,
      "chip": "ym2612"
    },
    {
      "channel": 5,
      "note": 83,
      "start": 63.4519,
      "duration": 0.0524,
      "velocity": 127,
      "chip": "ym2612"
    },
    {
      "channel": 2,
      "note": 61,
      "start": 63.5376,
      "duration": 0.0217,
      "velocity": 127,
      "chip": "ym2612"
    },
    {
      "channel": 3,
      "note": 51,
      "start": 63.5393,
      "duration": 0.1446,
      "velocity": 107,
      "chip": "ym2612"
    },
    {
      "channel": 5,
      "note": 83,
      "start": 63.546,
      "duration": 0.055,
      "velocity": 127,
      "chip": "ym2612"
    },
    {
      "channel": 2,
      "note": 61,
      "start": 63.6307,
      "duration": 0.0117,
      "velocity": 127,
      "chip": "ym2612"
    },
    {
      "channel": 5,
      "note": 83,
      "start": 63.6325,
      "duration": 0.0517,
      "velocity": 127,
      "chip": "ym2612"
    },
    {
      "channel": 2,
      "note": 61,
      "start": 63.7129,
      "duration": 0.0125,
      "velocity": 127,
      "chip": "ym2612"
    },
    {
      "channel": 3,
      "note": 63,
      "start": 63.7145,
      "duration": 0.0524,
      "velocity": 107,
      "chip": "ym2612"
    },
    {
      "channel": 5,
      "note": 83,
      "start": 63.7194,
      "duration": 0.131,
      "velocity": 127,
      "chip": "ym2612"
    },
    {
      "channel": 3,
      "note": 63,
      "start": 63.7961,
      "duration": 0.054,
      "velocity": 107,
      "chip": "ym2612"
    },
    {
      "channel": 2,
      "note": 71,
      "start": 63.8822,
      "duration": 0.0093,
      "velocity": 127,
      "chip": "ym2612"
    },
    {
      "channel": 3,
      "note": 51,
      "start": 63.884,
      "duration": 0.1323,
      "velocity": 107,
      "chip": "ym2612"
    },
    {
      "channel": 5,
      "note": 83,
      "start": 63.889,
      "duration": 0.0443,
      "velocity": 127,
      "chip": "ym2612"
    },
    {
      "channel": 5,
      "note": 83,
      "start": 63.9624,
      "duration": 0.0541,
      "velocity": 127,
      "chip": "ym2612"
    },
    {
      "channel": 3,
      "note": 63,
      "start": 64.0453,
      "duration": 0.054,
      "velocity": 107,
      "chip": "ym2612"
    },
    {
      "channel": 5,
      "note": 83,
      "start": 64.0502,
      "duration": 0.1328,
      "velocity": 127,
      "chip": "ym2612"
    },
    {
      "channel": 3,
      "note": 63,
      "start": 64.1283,
      "duration": 0.0543,
      "velocity": 107,
      "chip": "ym2612"
    },
    {
      "channel": 0,
      "note": 82,
      "start": 64.2109,
      "duration": 0.3172,
      "velocity": 101,
      "chip": "ym2612"
    },
    {
      "channel": 1,
      "note": 66,
      "start": 64.2125,
      "duration": 0.1492,
      "velocity": 106,
      "chip": "ym2612"
    },
    {
      "channel": 2,
      "note": 61,
      "start": 64.2179,
      "duration": 0.0198,
      "velocity": 127,
      "chip": "ym2612"
    },
    {
      "channel": 3,
      "note": 51,
      "start": 64.2197,
      "duration": 0.1427,
      "velocity": 107,
      "chip": "ym2612"
    },
    {
      "channel": 4,
      "note": 63,
      "start": 64.2213,
      "duration": 0.1413,
      "velocity": 106,
      "chip": "ym2612"
    },
    {
      "channel": 5,
      "note": 83,
      "start": 64.2267,
      "duration": 0.0527,
      "velocity": 127,
      "chip": "ym2612"
    },
    {
      "channel": 5,
      "note": 83,
      "start": 64.309,
      "duration": 0.0539,
      "velocity": 127,
      "chip": "ym2612"
    },
    {
      "channel": 1,
      "note": 65,
      "start": 64.3907,
      "duration": 0.3171,
      "velocity": 106,
      "chip": "ym2612"
    },
    {
      "channel": 3,
      "note": 63,
      "start": 64.3929,
      "duration": 0.0524,
      "velocity": 107,
      "chip": "ym2612"
    },
    {
      "channel": 4,
      "note": 61,
      "start": 64.3946,
      "duration": 0.3142,
      "velocity": 106,
      "chip": "ym2612"
    },
    {
      "channel": 5,
      "note": 83,
      "start": 64.3963,
      "duration": 0.0493,
      "velocity": 127,
      "chip": "ym2612"
    },
    {
      "channel": 3,
      "note": 63,
      "start": 64.4745,
      "duration": 0.0545,
      "velocity": 107,
      "chip": "ym2612"
    },
    {
      "channel": 5,
      "note": 83,
      "start": 64.4764,
      "duration": 0.0529,
      "velocity": 127,
      "chip": "ym2612"
    },
    {
      "channel": 0,
      "note": 70,
      "start": 64.5568,
      "duration": 0.9952,
      "velocity": 101,
      "chip": "ym2612"
    },
    {
      "channel": 2,
      "note": 73,
      "start": 64.5622,
      "duration": 0.0216,
      "velocity": 127,
      "chip": "ym2612"
    },
    {
      "channel": 3,
      "note": 51,
      "start": 64.564,
      "duration": 0.1446,
      "velocity": 107,
      "chip": "ym2612"
    },
    {
      "channel": 5,
      "note": 83,
      "start": 64.5693,
      "duration": 0.0563,
      "velocity": 127,
      "chip": "ym2612"
    },
    {
      "channel": 5,
      "note": 83,
      "start": 64.6549,
      "duration": 0.0541,
      "velocity": 127,
      "chip": "ym2612"
    },
    {
      "channel": 1,
      "note": 63,
      "start": 64.7383,
      "duration": 0.3156,
      "velocity": 106,
      "chip": "ym2612"
    },
    {
      "channel": 3,
      "note": 63,
      "start": 64.7404,
      "duration": 0.051,
      "velocity": 107,
      "chip": "ym2612"
    },
    {
      "channel": 4,
      "note": 59,
      "start": 64.742,
      "duration": 0.3127,
      "velocity": 106,
      "chip": "ym2612"
    },
    {
      "channel": 5,
      "note": 83,
      "start": 64.7438,
      "duration": 0.048,
      "velocity": 127,
      "chip": "ym2612"
    },
    {
      "channel": 3,
      "note": 63,
      "start": 64.8206,
      "duration": 0.0539,
      "velocity": 107,
      "chip": "ym2612"
    },
    {
      "channel": 5,
      "note": 83,
      "start": 64.8224,
      "duration": 0.0524,
      "velocity": 127,
      "chip": "ym2612"
    },
    {
      "channel": 2,
      "note": 61,
      "start": 64.9081,
      "duration": 0.0217,
      "velocity": 127,
      "chip": "ym2612"
    },
    {
      "channel": 3,
      "note": 51,
      "start": 64.9099,
      "duration": 0.1447,
      "velocity": 107,
      "chip": "ym2612"
    },
    {
      "channel": 5,
      "note": 83,
      "start": 64.9152,
      "duration": 0.057,
      "velocity": 127,
      "chip": "ym2612"
    },
    {
      "channel": 2,
      "note": 61,
      "start": 65.0004,
      "duration": 0.0125,
      "velocity": 127,
      "chip": "ym2612"
    },
    {
      "channel": 5,
      "note": 83,
      "start": 65.0024,
      "duration": 0.0525,
      "velocity": 127,
      "chip": "ym2612"
    },
    {
      "channel": 1,
      "note": 61,
      "start": 65.083,
      "duration": 0.4693,
      "velocity": 106,
      "chip": "ym2612"
    },
    {
      "channel": 2,
      "note": 61,
      "start": 65.085,
      "duration": 0.011,
      "velocity": 127,
      "chip": "ym2612"
    },
    {
      "channel": 3,
      "note": 63,
      "start": 65.0867,
      "duration": 0.0509,
      "velocity": 107,
      "chip": "ym2612"
    },
    {
      "channel": 4,
      "note": 58,
      "start": 65.0883,
      "duration": 0.4649,
      "velocity": 106,
      "chip": "ym2612"
    },
    {
      "channel": 5,
      "note": 83,
      "start": 65.0901,
      "duration": 0.0477,
      "velocity": 127,
      "chip": "ym2612"
    },
    {
      "channel": 3,
      "note": 63,
      "start": 65.1666,
      "duration": 0.0539,
      "velocity": 107,
      "chip": "ym2612"
    },
    {
      "channel": 5,
      "note": 83,
      "start": 65.1685,
      "duration": 0.0524,
      "velocity": 127,
      "chip": "ym2612"
    },
    {
      "channel": 2,
      "note": 71,
      "start": 65.2528,
      "duration": 0.0093,
      "velocity": 127,
      "chip": "ym2612"
    },
    {
      "channel": 3,
      "note": 51,
      "start": 65.2546,
      "duration": 0.1322,
      "velocity": 107,
      "chip": "ym2612"
    },
    {
      "channel": 5,
      "note": 83,
      "start": 65.2599,
      "duration": 0.044,
      "velocity": 127,
      "chip": "ym2612"
    },
    {
      "channel": 5,
      "note": 83,
      "start": 65.3332,
      "duration": 0.0538,
      "velocity": 127,
      "chip": "ym2612"
    },
    {
      "channel": 3,
      "note": 63,
      "start": 65.4167,
      "duration": 0.0531,
      "velocity": 107,
      "chip": "ym2612"
    },
    {
      "channel": 5,
      "note": 83,
      "start": 65.4186,
      "duration": 0.0515,
      "velocity": 127,
      "chip": "ym2612"
    },
    {
      "channel": 3,
      "note": 63,
      "start": 65.499,
      "duration": 0.0541,
      "velocity": 107,
      "chip": "ym2612"
    },
    {
      "channel": 5,
      "note": 83,
      "start": 65.5009,
      "duration": 0.0526,
      "velocity": 127,
      "chip": "ym2612"
    },
    {
      "channel": 0,
      "note": 82,
      "start": 65.5814,
      "duration": 0.3169,
      "velocity": 101,
      "chip": "ym2612"
    },
    {
      "channel": 1,
      "note": 61,
      "start": 65.5832,
      "duration": 0.4951,
      "velocity": 106,
      "chip": "ym2612"
    },
    {
      "channel": 2,
      "note": 61,
      "start": 65.5885,
      "duration": 0.0202,
      "velocity": 127,
      "chip": "ym2612"
    },
    {
      "channel": 3,
      "note": 51,
      "start": 65.5903,
      "duration": 0.1427,
      "velocity": 107,
      "chip": "ym2612"
    },
    {
      "channel": 4,
      "note": 58,
      "start": 65.5921,
      "duration": 0.4873,
      "velocity": 106,
      "chip": "ym2612"
    },
    {
      "channel": 5,
      "note": 83,
      "start": 65.5972,
      "duration": 0.0537,
      "velocity": 127,
      "chip": "ym2612"
    },
    {
      "channel": 5,
      "note": 83,
      "start": 65.6802,
      "duration": 0.0531,
      "velocity": 127,
      "chip": "ym2612"
    },
    {
      "channel": 3,
      "note": 63,
      "start": 65.762,
      "duration": 0.0539,
      "velocity": 107,
      "chip": "ym2612"
    },
    {
      "channel": 5,
      "note": 83,
      "start": 65.7639,
      "duration": 0.0524,
      "velocity": 127,
      "chip": "ym2612"
    },
    {
      "channel": 3,
      "note": 63,
      "start": 65.8451,
      "duration": 0.0541,
      "velocity": 107,
      "chip": "ym2612"
    },
    {
      "channel": 5,
      "note": 83,
      "start": 65.847,
      "duration": 0.0525,
      "velocity": 127,
      "chip": "ym2612"
    },
    {
      "channel": 0,
      "note": 70,
      "start": 65.9274,
      "duration": 0.9952,
      "velocity": 101,
      "chip": "ym2612"
    },
    {
      "channel": 2,
      "note": 73,
      "start": 65.9328,
      "duration": 0.0216,
      "velocity": 127,
      "chip": "ym2612"
    },
    {
      "channel": 3,
      "note": 51,
      "start": 65.9346,
      "duration": 0.1445,
      "velocity": 107,
      "chip": "ym2612"
    },
    {
      "channel": 5,
      "note": 83,
      "start": 65.9399,
      "duration": 0.0562,
      "velocity": 127,
      "chip": "ym2612"
    },
    {
      "channel": 5,
      "note": 83,
      "start": 66.0254,
      "duration": 0.0541,
      "velocity": 127,
      "chip": "ym2612"
    },
    {
      "channel": 1,
      "note": 71,
      "start": 66.1089,
      "duration": 0.814,
      "velocity": 106,
      "chip": "ym2612"
    },
    {
      "channel": 3,
      "note": 63,
      "start": 66.1111,
      "duration": 0.0509,
      "velocity": 107,
      "chip": "ym2612"
    },
    {
      "channel": 4,
      "note": 68,
      "start": 66.1127,
      "duration": 0.8111,
      "velocity": 106,
      "chip": "ym2612"
    },
    {
      "channel": 5,
      "note": 83,
      "start": 66.1146,
      "duration": 0.0477,
      "velocity": 127,
      "chip": "ym2612"
    },
    {
      "channel": 3,
      "note": 63,
      "start": 66.1911,
      "duration": 0.054,
      "velocity": 107,
      "chip": "ym2612"
    },
    {
      "channel": 5,
      "note": 83,
      "start": 66.193,
      "duration": 0.0524,
      "velocity": 127,
      "chip": "ym2612"
    },
    {
      "channel": 2,
      "note": 78,
      "start": 66.277,
      "duration": 0.0239,
      "velocity": 127,
      "chip": "ym2612"
    },
    {
      "channel": 3,
      "note": 51,
      "start": 66.2788,
      "duration": 0.1463,
      "velocity": 107,
      "chip": "ym2612"
    },
    {
      "channel": 5,
      "note": 83,
      "start": 66.2856,
      "duration": 0.0566,
      "velocity": 127,
      "chip": "ym2612"
    },
    {
      "channel": 5,
      "note": 83,
      "start": 66.3713,
      "duration": 0.0541,
      "velocity": 127,
      "chip": "ym2612"
    },
    {
      "channel": 2,
      "note": 78,
      "start": 66.454,
      "duration": 0.0126,
      "velocity": 127,
      "chip": "ym2612"
    },
    {
      "channel": 3,
      "note": 63,
      "start": 66.4556,
      "duration": 0.0525,
      "velocity": 107,
      "chip": "ym2612"
    },
    {
      "channel": 5,
      "note": 83,
      "start": 66.4605,
      "duration": 0.131,
      "velocity": 127,
      "chip": "ym2612"
    },
    {
      "channel": 3,
      "note": 63,
      "start": 66.5376,
      "duration": 0.0536,
      "velocity": 107,
      "chip": "ym2612"
    },
    {
      "channel": 2,
      "note": 78,
      "start": 66.6203,
      "duration": 0.0124,
      "velocity": 127,
      "chip": "ym2612"
    },
    {
      "channel": 3,
      "note": 51,
      "start": 66.6221,
      "duration": 0.1357,
      "velocity": 107,
      "chip": "ym2612"
    },
    {
      "channel": 5,
      "note": 83,
      "start": 66.6271,
      "duration": 0.0473,
      "velocity": 127,
      "chip": "ym2612"
    },
    {
      "channel": 2,
      "note": 78,
      "start": 66.7034,
      "duration": 0.0123,
      "velocity": 127,
      "chip": "ym2612"
    },
    {
      "channel": 5,
      "note": 83,
      "start": 66.7052,
      "duration": 0.0529,
      "velocity": 127,
      "chip": "ym2612"
    },
    {
      "channel": 2,
      "note": 78,
      "start": 66.7865,
      "duration": 0.0123,
      "velocity": 127,
      "chip": "ym2612"
    },
    {
      "channel": 3,
      "note": 63,
      "start": 66.7881,
      "duration": 0.0523,
      "velocity": 107,
      "chip": "ym2612"
    },
    {
      "channel": 5,
      "note": 83,
      "start": 66.793,
      "duration": 0.131,
      "velocity": 127,
      "chip": "ym2612"
    },
    {
      "channel": 2,
      "note": 78,
      "start": 66.8695,
      "duration": 0.0124,
      "velocity": 127,
      "chip": "ym2612"
    },
    {
      "channel": 3,
      "note": 63,
      "start": 66.8711,
      "duration": 0.0525,
      "velocity": 107,
      "chip": "ym2612"
    },
    {
      "channel": 0,
      "note": 83,
      "start": 66.9524,
      "duration": 0.4825,
      "velocity": 101,
      "chip": "ym2612"
    },
    {
      "channel": 1,
      "note": 71,
      "start": 66.9544,
      "duration": 1.5051,
      "velocity": 106,
      "chip": "ym2612"
    },
    {
      "channel": 2,
      "note": 61,
      "start": 66.9602,
      "duration": 0.0192,
      "velocity": 127,
      "chip": "ym2612"
    },
    {
      "channel": 3,
      "note": 47,
      "start": 66.9624,
      "duration": 0.141,
      "velocity": 107,
      "chip": "ym2612"
    },
    {
      "channel": 4,
      "note": 68,
      "start": 66.9645,
      "duration": 1.496,
      "velocity": 106,
      "chip": "ym2612"
    },
    {
      "channel": 5,
      "note": 83,
      "start": 66.9702,
      "duration": 0.0503,
      "velocity": 127,
      "chip": "ym2612"
    },
    {
      "channel": 5,
      "note": 83,
      "start": 67.0499,
      "duration": 0.0538,
      "velocity": 127,
      "chip": "ym2612"
    },
    {
      "channel": 3,
      "note": 59,
      "start": 67.1325,
      "duration": 0.0539,
      "velocity": 107,
      "chip": "ym2612"
    },
    {
      "channel": 5,
      "note": 83,
      "start": 67.1344,
      "duration": 0.0523,
      "velocity": 127,
      "chip": "ym2612"
    },
    {
      "channel": 3,
      "note": 59,
      "start": 67.2157,
      "duration": 0.0539,
      "velocity": 107,
      "chip": "ym2612"
    },
    {
      "channel": 5,
      "note": 83,
      "start": 67.2176,
      "duration": 0.0523,
      "velocity": 127,
      "chip": "ym2612"
    },
    {
      "channel": 2,
      "note": 71,
      "start": 67.3017,
      "duration": 0.0094,
      "velocity": 127,
      "chip": "ym2612"
    },
    {
      "channel": 3,
      "note": 47,
      "start": 67.3035,
      "duration": 0.1322,
      "velocity": 107,
      "chip": "ym2612"
    },
    {
      "channel": 5,
      "note": 83,
      "start": 67.3088,
      "duration": 0.044,
      "velocity": 127,
      "chip": "ym2612"
    },
    {
      "channel": 5,
      "note": 83,
      "start": 67.3821,
      "duration": 0.0539,
      "velocity": 127,
      "chip": "ym2612"
    },
    {
      "channel": 0,
      "note": 82,
      "start": 67.464,
      "duration": 0.4692,
      "velocity": 101,
      "chip": "ym2612"
    },
    {
      "channel": 3,
      "note": 59,
      "start": 67.4664,
      "duration": 0.0524,
      "velocity": 107,
      "chip": "ym2612"
    },
    {
      "channel": 5,
      "note": 83,
      "start": 67.4682,
      "duration": 0.0507,
      "velocity": 127,
      "chip": "ym2612"
    },
    {
      "channel": 3,
      "note": 59,
      "start": 67.5478,
      "duration": 0.054,
      "velocity": 107,
      "chip": "ym2612"
    },
    {
      "channel": 5,
      "note": 83,
      "start": 67.5498,
      "duration": 0.0524,
      "velocity": 127,
      "chip": "ym2612"
    },
    {
      "channel": 2,
      "note": 61,
      "start": 67.634,
      "duration": 0.0093,
      "velocity": 127,
      "chip": "ym2612"
    },
    {
      "channel": 3,
      "note": 47,
      "start": 67.6358,
      "duration": 0.1322,
      "velocity": 107,
      "chip": "ym2612"
    },
    {
      "channel": 5,
      "note": 83,
      "start": 67.6411,
      "duration": 0.0439,
      "velocity": 127,
      "chip": "ym2612"
    },
    {
      "channel": 2,
      "note": 61,
      "start": 67.7139,
      "duration": 0.0125,
      "velocity": 127,
      "chip": "ym2612"
    },
    {
      "channel": 5,
      "note": 83,
      "start": 67.7159,
      "duration": 0.0523,
      "velocity": 127,
      "chip": "ym2612"
    },
    {
      "channel": 2,
      "note": 61,
      "start": 67.7969,
      "duration": 0.0125,
      "velocity": 127,
      "chip": "ym2612"
    },
    {
      "channel": 3,
      "note": 59,
      "start": 67.7985,
      "duration": 0.0524,
      "velocity": 107,
      "chip": "ym2612"
    },
    {
      "channel": 5,
      "note": 83,
      "start": 67.8005,
      "duration": 0.0508,
      "velocity": 127,
      "chip": "ym2612"
    },
    {
      "channel": 3,
      "note": 59,
      "start": 67.8802,
      "duration": 0.0539,
      "velocity": 107,
      "chip": "ym2612"
    },
    {
      "channel": 5,
      "note": 83,
      "start": 67.8821,
      "duration": 0.0523,
      "velocity": 127,
      "chip": "ym2612"
    },
    {
      "channel": 0,
      "note": 80,
      "start": 67.9624,
      "duration": 0.317,
      "velocity": 101,
      "chip": "ym2612"
    },
    {
      "channel": 2,
      "note": 71,
      "start": 67.9678,
      "duration": 0.0216,
      "velocity": 127,
      "chip": "ym2612"
    },
    {
      "channel": 3,
      "note": 47,
      "start": 67.9696,
      "duration": 0.1444,
      "velocity": 107,
      "chip": "ym2612"
    },
    {
      "channel": 5,
      "note": 83,
      "start": 67.9749,
      "duration": 0.0562,
      "velocity": 127,
      "chip": "ym2612"
    },
    {
      "channel": 5,
      "note": 83,
      "start": 68.0605,
      "duration": 0.0539,
      "velocity": 127,
      "chip": "ym2612"
    },
    {
      "channel": 3,
      "note": 59,
      "start": 68.1431,
      "duration": 0.0539,
      "velocity": 107,
      "chip": "ym2612"
    },
    {
      "channel": 5,
      "note": 83,
      "start": 68.145,
      "duration": 0.0524,
      "velocity": 127,
      "chip": "ym2612"
    },
    {
      "channel": 3,
      "note": 59,
      "start": 68.2262,
      "duration": 0.0541,
      "velocity": 107,
      "chip": "ym2612"
    },
    {
      "channel": 5,
      "note": 83,
      "start": 68.2281,
      "duration": 0.0525,
      "velocity": 127,
      "chip": "ym2612"
    },
    {
      "channel": 0,
      "note": 83,
      "start": 68.3087,
      "duration": 0.4968,
      "velocity": 101,
      "chip": "ym2612"
    },
    {
      "channel": 2,
      "note": 61,
      "start": 68.3156,
      "duration": 0.0198,
      "velocity": 127,
      "chip": "ym2612"
    },
    {
      "channel": 3,
      "note": 47,
      "start": 68.3174,
      "duration": 0.1428,
      "velocity": 107,
      "chip": "ym2612"
    },
    {
      "channel": 5,
      "note": 83,
      "start": 68.3241,
      "duration": 0.053,
      "velocity": 127,
      "chip": "ym2612"
    },
    {
      "channel": 5,
      "note": 83,
      "start": 68.4065,
      "duration": 0.0541,
      "velocity": 127,
      "chip": "ym2612"
    },
    {
      "channel": 1,
      "note": 71,
      "start": 68.4885,
      "duration": 0.1371,
      "velocity": 106,
      "chip": "ym2612"
    },
    {
      "channel": 3,
      "note": 59,
      "start": 68.4907,
      "duration": 0.0533,
      "velocity": 107,
      "chip": "ym2612"
    },
    {
      "channel": 4,
      "note": 68,
      "start": 68.4923,
      "duration": 0.1343,
      "velocity": 106,
      "chip": "ym2612"
    },
    {
      "channel": 5,
      "note": 83,
      "start": 68.4941,
      "duration": 0.0502,
      "velocity": 127,
      "chip": "ym2612"
    },
    {
      "channel": 3,
      "note": 59,
      "start": 68.5723,
      "duration": 0.0541,
      "velocity": 107,
      "chip": "ym2612"
    },
    {
      "channel": 5,
      "note": 83,
      "start": 68.5741,
      "duration": 0.0526,
      "velocity": 127,
      "chip": "ym2612"
    },
    {
      "channel": 1,
      "note": 73,
      "start": 68.6546,
      "duration": 0.151,
      "velocity": 106,
      "chip": "ym2612"
    },
    {
      "channel": 2,
      "note": 71,
      "start": 68.6598,
      "duration": 0.0218,
      "velocity": 127,
      "chip": "ym2612"
    },
    {
      "channel": 3,
      "note": 47,
      "start": 68.6616,
      "duration": 0.1448,
      "velocity": 107,
      "chip": "ym2612"
    },
    {
      "channel": 4,
      "note": 70,
      "start": 68.6632,
      "duration": 0.1434,
      "velocity": 106,
      "chip": "ym2612"
    },
    {
      "channel": 5,
      "note": 83,
      "start": 68.6685,
      "duration": 0.0548,
      "velocity": 127,
      "chip": "ym2612"
    },
    {
      "channel": 5,
      "note": 83,
      "start": 68.7526,
      "duration": 0.0542,
      "velocity": 127,
      "chip": "ym2612"
    },
    {
      "channel": 0,
      "note": 82,
      "start": 68.8346,
      "duration": 0.4831,
      "velocity": 101,
      "chip": "ym2612"
    },
    {
      "channel": 1,
      "note": 71,
      "start": 68.8362,
      "duration": 0.1356,
      "velocity": 106,
      "chip": "ym2612"
    },
    {
      "channel": 3,
      "note": 59,
      "start": 68.8384,
      "duration": 0.0508,
      "velocity": 107,
      "chip": "ym2612"
    },
    {
      "channel": 4,
      "note": 68,
      "start": 68.84,
      "duration": 0.1327,
      "velocity": 106,
      "chip": "ym2612"
    },
    {
      "channel": 5,
      "note": 83,
      "start": 68.8418,
      "duration": 0.0478,
      "velocity": 127,
      "chip": "ym2612"
    },
    {
      "channel": 3,
      "note": 59,
      "start": 68.9183,
      "duration": 0.0541,
      "velocity": 107,
      "chip": "ym2612"
    },
    {
      "channel": 5,
      "note": 83,
      "start": 68.9202,
      "duration": 0.0526,
      "velocity": 127,
      "chip": "ym2612"
    },
    {
      "channel": 1,
      "note": 70,
      "start": 69.0008,
      "duration": 0.1509,
      "velocity": 106,
      "chip": "ym2612"
    },
    {
      "channel": 2,
      "note": 61,
      "start": 69.006,
      "duration": 0.0217,
      "velocity": 127,
      "chip": "ym2612"
    },
    {
      "channel": 3,
      "note": 47,
      "start": 69.0078,
      "duration": 0.1446,
      "velocity": 107,
      "chip": "ym2612"
    },
    {
      "channel": 4,
      "note": 66,
      "start": 69.0094,
      "duration": 0.1432,
      "velocity": 106,
      "chip": "ym2612"
    },
    {
      "channel": 5,
      "note": 83,
      "start": 69.0146,
      "duration": 0.0548,
      "velocity": 127,
      "chip": "ym2612"
    },
    {
      "channel": 2,
      "note": 61,
      "start": 69.0983,
      "duration": 0.0125,
      "velocity": 127,
      "chip": "ym2612"
    },
    {
      "channel": 5,
      "note": 83,
      "start": 69.1002,
      "duration": 0.0527,
      "velocity": 127,
      "chip": "ym2612"
    },
    {
      "channel": 1,
      "note": 68,
      "start": 69.1807,
      "duration": 0.1371,
      "velocity": 106,
      "chip": "ym2612"
    },
    {
      "channel": 2,
      "note": 61,
      "start": 69.1829,
      "duration": 0.0109,
      "velocity": 127,
      "chip": "ym2612"
    },
    {
      "channel": 3,
      "note": 59,
      "start": 69.1844,
      "duration": 0.0509,
      "velocity": 107,
      "chip": "ym2612"
    },
    {
      "channel": 4,
      "note": 65,
      "start": 69.1861,
      "duration": 0.1327,
      "velocity": 106,
      "chip": "ym2612"
    },
    {
      "channel": 5,
      "note": 83,
      "start": 69.1908,
      "duration": 0.1282,
      "velocity": 127,
      "chip": "ym2612"
    },
    {
      "channel": 3,
      "note": 59,
      "start": 69.2644,
      "duration": 0.0542,
      "velocity": 107,
      "chip": "ym2612"
    },
    {
      "channel": 0,
      "note": 80,
      "start": 69.3468,
      "duration": 0.3171,
      "velocity": 101,
      "chip": "ym2612"
    },
    {
      "channel": 1,
      "note": 66,
      "start": 69.3484,
      "duration": 0.1494,
      "velocity": 106,
      "chip": "ym2612"
    },
    {
      "channel": 2,
      "note": 71,
      "start": 69.3537,
      "duration": 0.02,
      "velocity": 127,
      "chip": "ym2612"
    },
    {
      "channel": 3,
      "note": 47,
      "start": 69.3555,
      "duration": 0.143,
      "velocity": 107,
      "chip": "ym2612"
    },
    {
      "channel": 4,
      "note": 63,
      "start": 69.3571,
      "duration": 0.1417,
      "velocity": 106,
      "chip": "ym2612"
    },
    {
      "channel": 5,
      "note": 83,
      "start": 69.362,
      "duration": 0.0536,
      "velocity": 127,
      "chip": "ym2612"
    },
    {
      "channel": 5,
      "note": 83,
      "start": 69.4447,
      "duration": 0.0543,
      "velocity": 127,
      "chip": "ym2612"
    },
    {
      "channel": 1,
      "note": 65,
      "start": 69.5268,
      "duration": 0.1373,
      "velocity": 106,
      "chip": "ym2612"
    },
    {
      "channel": 3,
      "note": 59,
      "start": 69.529,
      "duration": 0.0525,
      "velocity": 107,
      "chip": "ym2612"
    },
    {
      "channel": 4,
      "note": 61,
      "start": 69.5306,
      "duration": 0.1345,
      "velocity": 106,
      "chip": "ym2612"
    },
    {
      "channel": 5,
      "note": 83,
      "start": 69.5354,
      "duration": 0.1299,
      "velocity": 127,
      "chip": "ym2612"
    },
    {
      "channel": 3,
      "note": 59,
      "start": 69.6106,
      "duration": 0.0543,
      "velocity": 107,
      "chip": "ym2612"
    },
    {
      "channel": 0,
      "note": 83,
      "start": 69.6931,
      "duration": 0.4829,
      "velocity": 101,
      "chip": "ym2612"
    },
    {
      "channel": 1,
      "note": 68,
      "start": 69.6948,
      "duration": 0.4814,
      "velocity": 106,
      "chip": "ym2612"
    },
    {
      "channel": 2,
      "note": 61,
      "start": 69.7002,
      "duration": 0.0197,
      "velocity": 127,
      "chip": "ym2612"
    },
    {
      "channel": 3,
      "note": 47,
      "start": 69.7019,
      "duration": 0.1427,
      "velocity": 107,
      "chip": "ym2612"
    },
    {
      "channel": 4,
      "note": 65,
      "start": 69.7035,
      "duration": 0.4736,
      "velocity": 106,
      "chip": "ym2612"
    },
    {
      "channel": 5,
      "note": 83,
      "start": 69.7089,
      "duration": 0.0527,
      "velocity": 127,
      "chip": "ym2612"
    },
    {
      "channel": 5,
      "note": 83,
      "start": 69.7909,
      "duration": 0.0539,
      "velocity": 127,
      "chip": "ym2612"
    },
    {
      "channel": 3,
      "note": 59,
      "start": 69.8736,
      "duration": 0.0539,
      "velocity": 107,
      "chip": "ym2612"
    },
    {
      "channel": 5,
      "note": 83,
      "start": 69.8755,
      "duration": 0.0523,
      "velocity": 127,
      "chip": "ym2612"
    },
    {
      "channel": 3,
      "note": 59,
      "start": 69.9566,
      "duration": 0.054,
      "velocity": 107,
      "chip": "ym2612"
    },
    {
      "channel": 5,
      "note": 83,
      "start": 69.9585,
      "duration": 0.0524,
      "velocity": 127,
      "chip": "ym2612"
    },
    {
      "channel": 2,
      "note": 71,
      "start": 70.0427,
      "duration": 0.0094,
      "velocity": 127,
      "chip": "ym2612"
    },
    {
      "channel": 3,
      "note": 47,
      "start": 70.0445,
      "duration": 0.1324,
      "velocity": 107,
      "chip": "ym2612"
    },
    {
      "channel": 5,
      "note": 83,
      "start": 70.0498,
      "duration": 0.044,
      "velocity": 127,
      "chip": "ym2612"
    },
    {
      "channel": 5,
      "note": 83,
      "start": 70.1231,
      "duration": 0.0542,
      "velocity": 127,
      "chip": "ym2612"
    },
    {
      "channel": 0,
      "note": 82,
      "start": 70.2051,
      "duration": 0.4831,
      "velocity": 101,
      "chip": "ym2612"
    },
    {
      "channel": 1,
      "note": 70,
      "start": 70.2068,
      "duration": 2.1844,
      "velocity": 106,
      "chip": "ym2612"
    },
    {
      "channel": 3,
      "note": 59,
      "start": 70.2089,
      "duration": 0.0509,
      "velocity": 107,
      "chip": "ym2612"
    },
    {
      "channel": 4,
      "note": 66,
      "start": 70.2106,
      "duration": 2.1816,
      "velocity": 106,
      "chip": "ym2612"
    },
    {
      "channel": 5,
      "note": 83,
      "start": 70.2124,
      "duration": 0.0477,
      "velocity": 127,
      "chip": "ym2612"
    },
    {
      "channel": 3,
      "note": 59,
      "start": 70.2889,
      "duration": 0.054,
      "velocity": 107,
      "chip": "ym2612"
    },
    {
      "channel": 5,
      "note": 83,
      "start": 70.2908,
      "duration": 0.0524,
      "velocity": 127,
      "chip": "ym2612"
    },
    {
      "channel": 2,
      "note": 61,
      "start": 70.3764,
      "duration": 0.0218,
      "velocity": 127,
      "chip": "ym2612"
    },
    {
      "channel": 3,
      "note": 47,
      "start": 70.3782,
      "duration": 0.1446,
      "velocity": 107,
      "chip": "ym2612"
    },
    {
      "channel": 5,
      "note": 83,
      "start": 70.385,
      "duration": 0.055,
      "velocity": 127,
      "chip": "ym2612"
    },
    {
      "channel": 2,
      "note": 61,
      "start": 70.4688,
      "duration": 0.0125,
      "velocity": 127,
      "chip": "ym2612"
    },
    {
      "channel": 5,
      "note": 83,
      "start": 70.4708,
      "duration": 0.0524,
      "velocity": 127,
      "chip": "ym2612"
    },
    {
      "channel": 2,
      "note": 61,
      "start": 70.5523,
      "duration": 0.0122,
      "velocity": 127,
      "chip": "ym2612"
    },
    {
      "channel": 3,
      "note": 59,
      "start": 70.554,
      "duration": 0.0519,
      "velocity": 107,
      "chip": "ym2612"
    },
    {
      "channel": 5,
      "note": 83,
      "start": 70.5558,
      "duration": 0.0504,
      "velocity": 127,
      "chip": "ym2612"
    },
    {
      "channel": 3,
      "note": 59,
      "start": 70.635,
      "duration": 0.0541,
      "velocity": 107,
      "chip": "ym2612"
    },
    {
      "channel": 5,
      "note": 83,
      "start": 70.6368,
      "duration": 0.0525,
      "velocity": 127,
      "chip": "ym2612"
    },
    {
      "channel": 0,
      "note": 80,
      "start": 70.7175,
      "duration": 0.3169,
      "velocity": 101,
      "chip": "ym2612"
    },
    {
      "channel": 2,
      "note": 71,
      "start": 70.7227,
      "duration": 0.0216,
      "velocity": 127,
      "chip": "ym2612"
    },
    {
      "channel": 3,
      "note": 47,
      "start": 70.7245,
      "duration": 0.1445,
      "velocity": 107,
      "chip": "ym2612"
    },
    {
      "channel": 5,
      "note": 83,
      "start": 70.7298,
      "duration": 0.0563,
      "velocity": 127,
      "chip": "ym2612"
    },
    {
      "channel": 5,
      "note": 83,
      "start": 70.8154,
      "duration": 0.0539,
      "velocity": 127,
      "chip": "ym2612"
    },
    {
      "channel": 3,
      "note": 59,
      "start": 70.898,
      "duration": 0.0539,
      "velocity": 107,
      "chip": "ym2612"
    },
    {
      "channel": 5,
      "note": 83,
      "start": 70.9,
      "duration": 0.0523,
      "velocity": 127,
      "chip": "ym2612"
    },
    {
      "channel": 3,
      "note": 59,
      "start": 70.9811,
      "duration": 0.0541,
      "velocity": 107,
      "chip": "ym2612"
    },
    {
      "channel": 5,
      "note": 83,
      "start": 70.983,
      "duration": 0.0524,
      "velocity": 127,
      "chip": "ym2612"
    },
    {
      "channel": 0,
      "note": 83,
      "start": 71.0637,
      "duration": 0.649,
      "velocity": 101,
      "chip": "ym2612"
    },
    {
      "channel": 2,
      "note": 61,
      "start": 71.0705,
      "duration": 0.0199,
      "velocity": 127,
      "chip": "ym2612"
    },
    {
      "channel": 3,
      "note": 47,
      "start": 71.0723,
      "duration": 0.1436,
      "velocity": 107,
      "chip": "ym2612"
    },
    {
      "channel": 5,
      "note": 83,
      "start": 71.079,
      "duration": 0.0531,
      "velocity": 127,
      "chip": "ym2612"
    },
    {
      "channel": 5,
      "note": 83,
      "start": 71.1615,
      "duration": 0.0547,
      "velocity": 127,
      "chip": "ym2612"
    },
    {
      "channel": 3,
      "note": 59,
      "start": 71.2441,
      "duration": 0.0539,
      "velocity": 107,
      "chip": "ym2612"
    },
    {
      "channel": 5,
      "note": 83,
      "start": 71.246,
      "duration": 0.0523,
      "velocity": 127,
      "chip": "ym2612"
    },
    {
      "channel": 3,
      "note": 59,
      "start": 71.3272,
      "duration": 0.054,
      "velocity": 107,
      "chip": "ym2612"
    },
    {
      "channel": 5,
      "note": 83,
      "start": 71.3291,
      "duration": 0.0524,
      "velocity": 127,
      "chip": "ym2612"
    },
    {
      "channel": 2,
      "note": 71,
      "start": 71.4133,
      "duration": 0.0094,
      "velocity": 127,
      "chip": "ym2612"
    },
    {
      "channel": 3,
      "note": 47,
      "start": 71.415,
      "duration": 0.1322,
      "velocity": 107,
      "chip": "ym2612"
    },
    {
      "channel": 5,
      "note": 83,
      "start": 71.4204,
      "duration": 0.0441,
      "velocity": 127,
      "chip": "ym2612"
    },
    {
      "channel": 5,
      "note": 83,
      "start": 71.4937,
      "duration": 0.0539,
      "velocity": 127,
      "chip": "ym2612"
    },
    {
      "channel": 3,
      "note": 59,
      "start": 71.5764,
      "duration": 0.0539,
      "velocity": 107,
      "chip": "ym2612"
    },
    {
      "channel": 5,
      "note": 83,
      "start": 71.5782,
      "duration": 0.0524,
      "velocity": 127,
      "chip": "ym2612"
    },
    {
      "channel": 3,
      "note": 59,
      "start": 71.6594,
      "duration": 0.0541,
      "velocity": 107,
      "chip": "ym2612"
    },
    {
      "channel": 5,
      "note": 83,
      "start": 71.6613,
      "duration": 0.0525,
      "velocity": 127,
      "chip": "ym2612"
    },
    {
      "channel": 0,
      "note": 82,
      "start": 71.7418,
      "duration": 0.6492,
      "velocity": 101,
      "chip": "ym2612"
    },
    {
      "channel": 2,
      "note": 61,
      "start": 71.7471,
      "duration": 0.0217,
      "velocity": 127,
      "chip": "ym2612"
    },
    {
      "channel": 3,
      "note": 47,
      "start": 71.7489,
      "duration": 0.1448,
      "velocity": 107,
      "chip": "ym2612"
    },
    {
      "channel": 5,
      "note": 83,
      "start": 71.7542,
      "duration": 0.0563,
      "velocity": 127,
      "chip": "ym2612"
    },
    {
      "channel": 2,
      "note": 61,
      "start": 71.8393,
      "duration": 0.0125,
      "velocity": 127,
      "chip": "ym2612"
    },
    {
      "channel": 5,
      "note": 83,
      "start": 71.8412,
      "duration": 0.0528,
      "velocity": 127,
      "chip": "ym2612"
    },
    {
      "channel": 2,
      "note": 61,
      "start": 71.9224,
      "duration": 0.0125,
      "velocity": 127,
      "chip": "ym2612"
    },
    {
      "channel": 3,
      "note": 59,
      "start": 71.924,
      "duration": 0.0524,
      "velocity": 107,
      "chip": "ym2612"
    },
    {
      "channel": 5,
      "note": 83,
      "start": 71.9288,
      "duration": 0.131,
      "velocity": 127,
      "chip": "ym2612"
    },
    {
      "channel": 3,
      "note": 59,
      "start": 72.0056,
      "duration": 0.054,
      "velocity": 107,
      "chip": "ym2612"
    },
    {
      "channel": 2,
      "note": 71,
      "start": 72.0917,
      "duration": 0.0093,
      "velocity": 127,
      "chip": "ym2612"
    },
    {
      "channel": 3,
      "note": 47,
      "start": 72.0934,
      "duration": 0.1322,
      "velocity": 107,
      "chip": "ym2612"
    },
    {
      "channel": 5,
      "note": 83,
      "start": 72.0984,
      "duration": 0.0444,
      "velocity": 127,
      "chip": "ym2612"
    },
    {
      "channel": 5,
      "note": 83,
      "start": 72.1719,
      "duration": 0.0541,
      "velocity": 127,
      "chip": "ym2612"
    },
    {
      "channel": 3,
      "note": 59,
      "start": 72.2547,
      "duration": 0.0539,
      "velocity": 107,
      "chip": "ym2612"
    },
    {
      "channel": 5,
      "note": 83,
      "start": 72.2596,
      "duration": 0.1328,
      "velocity": 127,
      "chip": "ym2612"
    },
    {
      "channel": 3,
      "note": 59,
      "start": 72.3382,
      "duration": 0.0537,
      "velocity": 107,
      "chip": "ym2612"
    },
    {
      "channel": 0,
      "note": 80,
      "start": 72.4207,
      "duration": 0.4825,
      "velocity": 101,
      "chip": "ym2612"
    },
    {
      "channel": 1,
      "note": 68,
      "start": 72.4226,
      "duration": 1.5052,
      "velocity": 106,
      "chip": "ym2612"
    },
    {
      "channel": 2,
      "note": 61,
      "start": 72.4284,
      "duration": 0.0188,
      "velocity": 127,
      "chip": "ym2612"
    },
    {
      "channel": 3,
      "note": 51,
      "start": 72.4306,
      "duration": 0.1412,
      "velocity": 107,
      "chip": "ym2612"
    },
    {
      "channel": 4,
      "note": 65,
      "start": 72.4325,
      "duration": 1.4962,
      "velocity": 106,
      "chip": "ym2612"
    },
    {
      "channel": 5,
      "note": 83,
      "start": 72.4383,
      "duration": 0.0506,
      "velocity": 127,
      "chip": "ym2612"
    },
    {
      "channel": 5,
      "note": 83,
      "start": 72.5182,
      "duration": 0.0539,
      "velocity": 127,
      "chip": "ym2612"
    },
    {
      "channel": 3,
      "note": 63,
      "start": 72.6009,
      "duration": 0.0539,
      "velocity": 107,
      "chip": "ym2612"
    },
    {
      "channel": 5,
      "note": 83,
      "start": 72.6028,
      "duration": 0.0523,
      "velocity": 127,
      "chip": "ym2612"
    },
    {
      "channel": 3,
      "note": 63,
      "start": 72.6839,
      "duration": 0.0539,
      "velocity": 107,
      "chip": "ym2612"
    },
    {
      "channel": 5,
      "note": 83,
      "start": 72.6859,
      "duration": 0.0524,
      "velocity": 127,
      "chip": "ym2612"
    },
    {
      "channel": 2,
      "note": 73,
      "start": 72.77,
      "duration": 0.0094,
      "velocity": 127,
      "chip": "ym2612"
    },
    {
      "channel": 3,
      "note": 51,
      "start": 72.7718,
      "duration": 0.1323,
      "velocity": 107,
      "chip": "ym2612"
    },
    {
      "channel": 5,
      "note": 83,
      "start": 72.7771,
      "duration": 0.044,
      "velocity": 127,
      "chip": "ym2612"
    },
    {
      "channel": 5,
      "note": 83,
      "start": 72.8504,
      "duration": 0.0539,
      "velocity": 127,
      "chip": "ym2612"
    },
    {
      "channel": 0,
      "note": 82,
      "start": 72.9324,
      "duration": 0.4692,
      "velocity": 101,
      "chip": "ym2612"
    },
    {
      "channel": 3,
      "note": 63,
      "start": 72.9347,
      "duration": 0.0524,
      "velocity": 107,
      "chip": "ym2612"
    },
    {
      "channel": 5,
      "note": 83,
      "start": 72.9366,
      "duration": 0.0507,
      "velocity": 127,
      "chip": "ym2612"
    },
    {
      "channel": 3,
      "note": 63,
      "start": 73.0163,
      "duration": 0.0539,
      "velocity": 107,
      "chip": "ym2612"
    },
    {
      "channel": 5,
      "note": 83,
      "start": 73.0181,
      "duration": 0.0524,
      "velocity": 127,
      "chip": "ym2612"
    },
    {
      "channel": 2,
      "note": 61,
      "start": 73.1023,
      "duration": 0.0094,
      "velocity": 127,
      "chip": "ym2612"
    },
    {
      "channel": 3,
      "note": 51,
      "start": 73.1041,
      "duration": 0.1326,
      "velocity": 107,
      "chip": "ym2612"
    },
    {
      "channel": 5,
      "note": 83,
      "start": 73.1094,
      "duration": 0.044,
      "velocity": 127,
      "chip": "ym2612"
    },
    {
      "channel": 2,
      "note": 61,
      "start": 73.1822,
      "duration": 0.0125,
      "velocity": 127,
      "chip": "ym2612"
    },
    {
      "channel": 5,
      "note": 83,
      "start": 73.1843,
      "duration": 0.0527,
      "velocity": 127,
      "chip": "ym2612"
    },
    {
      "channel": 2,
      "note": 61,
      "start": 73.2652,
      "duration": 0.0125,
      "velocity": 127,
      "chip": "ym2612"
    },
    {
      "channel": 3,
      "note": 63,
      "start": 73.2669,
      "duration": 0.0524,
      "velocity": 107,
      "chip": "ym2612"
    },
    {
      "channel": 5,
      "note": 83,
      "start": 73.2688,
      "duration": 0.0508,
      "velocity": 127,
      "chip": "ym2612"
    },
    {
      "channel": 3,
      "note": 63,
      "start": 73.3484,
      "duration": 0.0541,
      "velocity": 107,
      "chip": "ym2612"
    },
    {
      "channel": 5,
      "note": 83,
      "start": 73.3503,
      "duration": 0.0525,
      "velocity": 127,
      "chip": "ym2612"
    },
    {
      "channel": 0,
      "note": 83,
      "start": 73.4308,
      "duration": 0.3169,
      "velocity": 101,
      "chip": "ym2612"
    },
    {
      "channel": 2,
      "note": 71,
      "start": 73.4362,
      "duration": 0.0217,
      "velocity": 127,
      "chip": "ym2612"
    },
    {
      "channel": 3,
      "note": 51,
      "start": 73.4379,
      "duration": 0.1444,
      "velocity": 107,
      "chip": "ym2612"
    },
    {
      "channel": 5,
      "note": 83,
      "start": 73.4432,
      "duration": 0.0563,
      "velocity": 127,
      "chip": "ym2612"
    },
    {
      "channel": 5,
      "note": 83,
      "start": 73.5288,
      "duration": 0.0539,
      "velocity": 127,
      "chip": "ym2612"
    },
    {
      "channel": 3,
      "note": 63,
      "start": 73.6114,
      "duration": 0.054,
      "velocity": 107,
      "chip": "ym2612"
    },
    {
      "channel": 5,
      "note": 83,
      "start": 73.6133,
      "duration": 0.0523,
      "velocity": 127,
      "chip": "ym2612"
    },
    {
      "channel": 3,
      "note": 63,
      "start": 73.6945,
      "duration": 0.0541,
      "velocity": 107,
      "chip": "ym2612"
    },
    {
      "channel": 5,
      "note": 83,
      "start": 73.6964,
      "duration": 0.0525,
      "velocity": 127,
      "chip": "ym2612"
    },
    {
      "channel": 0,
      "note": 80,
      "start": 73.777,
      "duration": 0.4968,
      "velocity": 101,
      "chip": "ym2612"
    },
    {
      "channel": 2,
      "note": 61,
      "start": 73.784,
      "duration": 0.0199,
      "velocity": 127,
      "chip": "ym2612"
    },
    {
      "channel": 3,
      "note": 51,
      "start": 73.7857,
      "duration": 0.1429,
      "velocity": 107,
      "chip": "ym2612"
    },
    {
      "channel": 5,
      "note": 83,
      "start": 73.7925,
      "duration": 0.0531,
      "velocity": 127,
      "chip": "ym2612"
    },
    {
      "channel": 5,
      "note": 83,
      "start": 73.8748,
      "duration": 0.0541,
      "velocity": 127,
      "chip": "ym2612"
    },
    {
      "channel": 1,
      "note": 68,
      "start": 73.9569,
      "duration": 0.137,
      "velocity": 106,
      "chip": "ym2612"
    },
    {
      "channel": 3,
      "note": 63,
      "start": 73.9591,
      "duration": 0.0524,
      "velocity": 107,
      "chip": "ym2612"
    },
    {
      "channel": 4,
      "note": 65,
      "start": 73.9607,
      "duration": 0.1342,
      "velocity": 106,
      "chip": "ym2612"
    },
    {
      "channel": 5,
      "note": 83,
      "start": 73.9624,
      "duration": 0.0493,
      "velocity": 127,
      "chip": "ym2612"
    },
    {
      "channel": 3,
      "note": 63,
      "start": 74.0406,
      "duration": 0.0541,
      "velocity": 107,
      "chip": "ym2612"
    },
    {
      "channel": 5,
      "note": 83,
      "start": 74.0425,
      "duration": 0.0526,
      "velocity": 127,
      "chip": "ym2612"
    },
    {
      "channel": 1,
      "note": 70,
      "start": 74.1234,
      "duration": 0.1506,
      "velocity": 106,
      "chip": "ym2612"
    },
    {
      "channel": 2,
      "note": 73,
      "start": 74.1286,
      "duration": 0.0214,
      "velocity": 127,
      "chip": "ym2612"
    },
    {
      "channel": 3,
      "note": 51,
      "start": 74.1304,
      "duration": 0.1443,
      "velocity": 107,
      "chip": "ym2612"
    },
    {
      "channel": 4,
      "note": 66,
      "start": 74.132,
      "duration": 0.1429,
      "velocity": 106,
      "chip": "ym2612"
    },
    {
      "channel": 5,
      "note": 83,
      "start": 74.1373,
      "duration": 0.0544,
      "velocity": 127,
      "chip": "ym2612"
    },
    {
      "channel": 5,
      "note": 83,
      "start": 74.2209,
      "duration": 0.0542,
      "velocity": 127,
      "chip": "ym2612"
    },
    {
      "channel": 0,
      "note": 82,
      "start": 74.3029,
      "duration": 0.4837,
      "velocity": 101,
      "chip": "ym2612"
    },
    {
      "channel": 1,
      "note": 71,
      "start": 74.3046,
      "duration": 0.1355,
      "velocity": 106,
      "chip": "ym2612"
    },
    {
      "channel": 3,
      "note": 63,
      "start": 74.3067,
      "duration": 0.0509,
      "velocity": 107,
      "chip": "ym2612"
    },
    {
      "channel": 4,
      "note": 68,
      "start": 74.3084,
      "duration": 0.1326,
      "velocity": 106,
      "chip": "ym2612"
    },
    {
      "channel": 5,
      "note": 83,
      "start": 74.3101,
      "duration": 0.0477,
      "velocity": 127,
      "chip": "ym2612"
    },
    {
      "channel": 3,
      "note": 63,
      "start": 74.3867,
      "duration": 0.0541,
      "velocity": 107,
      "chip": "ym2612"
    },
    {
      "channel": 5,
      "note": 83,
      "start": 74.3886,
      "duration": 0.0526,
      "velocity": 127,
      "chip": "ym2612"
    },
    {
      "channel": 1,
      "note": 70,
      "start": 74.4691,
      "duration": 0.1509,
      "velocity": 106,
      "chip": "ym2612"
    },
    {
      "channel": 2,
      "note": 61,
      "start": 74.4743,
      "duration": 0.0217,
      "velocity": 127,
      "chip": "ym2612"
    },
    {
      "channel": 3,
      "note": 51,
      "start": 74.4761,
      "duration": 0.1447,
      "velocity": 107,
      "chip": "ym2612"
    },
    {
      "channel": 4,
      "note": 66,
      "start": 74.4777,
      "duration": 0.1432,
      "velocity": 106,
      "chip": "ym2612"
    },
    {
      "channel": 5,
      "note": 83,
      "start": 74.4829,
      "duration": 0.0548,
      "velocity": 127,
      "chip": "ym2612"
    },
    {
      "channel": 2,
      "note": 61,
      "start": 74.5672,
      "duration": 0.0122,
      "velocity": 127,
      "chip": "ym2612"
    },
    {
      "channel": 5,
      "note": 83,
      "start": 74.569,
      "duration": 0.0521,
      "velocity": 127,
      "chip": "ym2612"
    },
    {
      "channel": 1,
      "note": 68,
      "start": 74.6491,
      "duration": 0.3171,
      "velocity": 106,
      "chip": "ym2612"
    },
    {
      "channel": 2,
      "note": 61,
      "start": 74.6512,
      "duration": 0.011,
      "velocity": 127,
      "chip": "ym2612"
    },
    {
      "channel": 3,
      "note": 63,
      "start": 74.6528,
      "duration": 0.0508,
      "velocity": 107,
      "chip": "ym2612"
    },
    {
      "channel": 4,
      "note": 65,
      "start": 74.6545,
      "duration": 0.3127,
      "velocity": 106,
      "chip": "ym2612"
    },
    {
      "channel": 5,
      "note": 83,
      "start": 74.6592,
      "duration": 0.1286,
      "velocity": 127,
      "chip": "ym2612"
    },
    {
      "channel": 3,
      "note": 63,
      "start": 74.7328,
      "duration": 0.0547,
      "velocity": 107,
      "chip": "ym2612"
    },
    {
      "channel": 0,
      "note": 83,
      "start": 74.8152,
      "duration": 0.317,
      "velocity": 101,
      "chip": "ym2612"
    },
    {
      "channel": 2,
      "note": 71,
      "start": 74.8206,
      "duration": 0.0216,
      "velocity": 127,
      "chip": "ym2612"
    },
    {
      "channel": 3,
      "note": 51,
      "start": 74.8224,
      "duration": 0.1446,
      "velocity": 107,
      "chip": "ym2612"
    },
    {
      "channel": 5,
      "note": 83,
      "start": 74.8273,
      "duration": 0.0566,
      "velocity": 127,
      "chip": "ym2612"
    },
    {
      "channel": 5,
      "note": 83,
      "start": 74.913,
      "duration": 0.0543,
      "velocity": 127,
      "chip": "ym2612"
    },
    {
      "channel": 1,
      "note": 66,
      "start": 74.9952,
      "duration": 0.1371,
      "velocity": 106,
      "chip": "ym2612"
    },
    {
      "channel": 3,
      "note": 63,
      "start": 74.9974,
      "duration": 0.0525,
      "velocity": 107,
      "chip": "ym2612"
    },
    {
      "channel": 4,
      "note": 63,
      "start": 74.999,
      "duration": 0.1344,
      "velocity": 106,
      "chip": "ym2612"
    },
    {
      "channel": 5,
      "note": 83,
      "start": 75.0038,
      "duration": 0.1298,
      "velocity": 127,
      "chip": "ym2612"
    },
    {
      "channel": 3,
      "note": 63,
      "start": 75.0789,
      "duration": 0.0543,
      "velocity": 107,
      "chip": "ym2612"
    },
    {
      "channel": 0,
      "note": 80,
      "start": 75.1614,
      "duration": 0.4829,
      "velocity": 101,
      "chip": "ym2612"
    },
    {
      "channel": 1,
      "note": 68,
      "start": 75.1631,
      "duration": 0.4814,
      "velocity": 106,
      "chip": "ym2612"
    },
    {
      "channel": 2,
      "note": 61,
      "start": 75.1685,
      "duration": 0.0197,
      "velocity": 127,
      "chip": "ym2612"
    },
    {
      "channel": 3,
      "note": 51,
      "start": 75.1702,
      "duration": 0.1426,
      "velocity": 107,
      "chip": "ym2612"
    },
    {
      "channel": 4,
      "note": 65,
      "start": 75.1719,
      "duration": 0.4736,
      "velocity": 106,
      "chip": "ym2612"
    },
    {
      "channel": 5,
      "note": 83,
      "start": 75.1772,
      "duration": 0.0536,
      "velocity": 127,
      "chip": "ym2612"
    },
    {
      "channel": 5,
      "note": 83,
      "start": 75.2593,
      "duration": 0.0539,
      "velocity": 127,
      "chip": "ym2612"
    },
    {
      "channel": 3,
      "note": 63,
      "start": 75.3419,
      "duration": 0.054,
      "velocity": 107,
      "chip": "ym2612"
    },
    {
      "channel": 5,
      "note": 83,
      "start": 75.3438,
      "duration": 0.0524,
      "velocity": 127,
      "chip": "ym2612"
    },
    {
      "channel": 3,
      "note": 63,
      "start": 75.425,
      "duration": 0.0539,
      "velocity": 107,
      "chip": "ym2612"
    },
    {
      "channel": 5,
      "note": 83,
      "start": 75.4269,
      "duration": 0.0524,
      "velocity": 127,
      "chip": "ym2612"
    },
    {
      "channel": 2,
      "note": 73,
      "start": 75.5111,
      "duration": 0.0093,
      "velocity": 127,
      "chip": "ym2612"
    },
    {
      "channel": 3,
      "note": 51,
      "start": 75.5129,
      "duration": 0.1324,
      "velocity": 107,
      "chip": "ym2612"
    },
    {
      "channel": 5,
      "note": 83,
      "start": 75.5182,
      "duration": 0.0439,
      "velocity": 127,
      "chip": "ym2612"
    },
    {
      "channel": 5,
      "note": 83,
      "start": 75.5915,
      "duration": 0.0541,
      "velocity": 127,
      "chip": "ym2612"
    },
    {
      "channel": 0,
      "note": 82,
      "start": 75.6735,
      "duration": 0.483,
      "velocity": 101,
      "chip": "ym2612"
    },
    {
      "channel": 1,
      "note": 66,
      "start": 75.6751,
      "duration": 2.1844,
      "velocity": 106,
      "chip": "ym2612"
    },
    {
      "channel": 3,
      "note": 63,
      "start": 75.6773,
      "duration": 0.0508,
      "velocity": 107,
      "chip": "ym2612"
    },
    {
      "channel": 4,
      "note": 63,
      "start": 75.6789,
      "duration": 2.1815,
      "velocity": 106,
      "chip": "ym2612"
    },
    {
      "channel": 5,
      "note": 83,
      "start": 75.6807,
      "duration": 0.0477,
      "velocity": 127,
      "chip": "ym2612"
    },
    {
      "channel": 3,
      "note": 63,
      "start": 75.7573,
      "duration": 0.0539,
      "velocity": 107,
      "chip": "ym2612"
    },
    {
      "channel": 5,
      "note": 83,
      "start": 75.7591,
      "duration": 0.0524,
      "velocity": 127,
      "chip": "ym2612"
    },
    {
      "channel": 2,
      "note": 61,
      "start": 75.8448,
      "duration": 0.0218,
      "velocity": 127,
      "chip": "ym2612"
    },
    {
      "channel": 3,
      "note": 51,
      "start": 75.8465,
      "duration": 0.1447,
      "velocity": 107,
      "chip": "ym2612"
    },
    {
      "channel": 5,
      "note": 83,
      "start": 75.8533,
      "duration": 0.0553,
      "velocity": 127,
      "chip": "ym2612"
    },
    {
      "channel": 2,
      "note": 61,
      "start": 75.9371,
      "duration": 0.0126,
      "velocity": 127,
      "chip": "ym2612"
    },
    {
      "channel": 5,
      "note": 83,
      "start": 75.9392,
      "duration": 0.0523,
      "velocity": 127,
      "chip": "ym2612"
    },
    {
      "channel": 2,
      "note": 61,
      "start": 76.0202,
      "duration": 0.0125,
      "velocity": 127,
      "chip": "ym2612"
    },
    {
      "channel": 3,
      "note": 63,
      "start": 76.0218,
      "duration": 0.0524,
      "velocity": 107,
      "chip": "ym2612"
    },
    {
      "channel": 5,
      "note": 83,
      "start": 76.0237,
      "duration": 0.0508,
      "velocity": 127,
      "chip": "ym2612"
    },
    {
      "channel": 3,
      "note": 63,
      "start": 76.1033,
      "duration": 0.0541,
      "velocity": 107,
      "chip": "ym2612"
    },
    {
      "channel": 5,
      "note": 83,
      "start": 76.1052,
      "duration": 0.0525,
      "velocity": 127,
      "chip": "ym2612"
    },
    {
      "channel": 0,
      "note": 83,
      "start": 76.1857,
      "duration": 0.317,
      "velocity": 101,
      "chip": "ym2612"
    },
    {
      "channel": 2,
      "note": 71,
      "start": 76.1911,
      "duration": 0.0216,
      "velocity": 127,
      "chip": "ym2612"
    },
    {
      "channel": 3,
      "note": 51,
      "start": 76.1928,
      "duration": 0.1445,
      "velocity": 107,
      "chip": "ym2612"
    },
    {
      "channel": 5,
      "note": 83,
      "start": 76.1981,
      "duration": 0.0563,
      "velocity": 127,
      "chip": "ym2612"
    },
    {
      "channel": 5,
      "note": 83,
      "start": 76.2838,
      "duration": 0.0538,
      "velocity": 127,
      "chip": "ym2612"
    },
    {
      "channel": 3,
      "note": 63,
      "start": 76.3666,
      "duration": 0.0537,
      "velocity": 107,
      "chip": "ym2612"
    },
    {
      "channel": 5,
      "note": 83,
      "start": 76.3685,
      "duration": 0.0522,
      "velocity": 127,
      "chip": "ym2612"
    },
    {
      "channel": 3,
      "note": 63,
      "start": 76.4495,
      "duration": 0.054,
      "velocity": 107,
      "chip": "ym2612"
    },
    {
      "channel": 5,
      "note": 83,
      "start": 76.4514,
      "duration": 0.0525,
      "velocity": 127,
      "chip": "ym2612"
    },
    {
      "channel": 0,
      "note": 80,
      "start": 76.532,
      "duration": 0.649,
      "velocity": 101,
      "chip": "ym2612"
    },
    {
      "channel": 2,
      "note": 61,
      "start": 76.539,
      "duration": 0.0199,
      "velocity": 127,
      "chip": "ym2612"
    },
    {
      "channel": 3,
      "note": 51,
      "start": 76.5407,
      "duration": 0.1428,
      "velocity": 107,
      "chip": "ym2612"
    },
    {
      "channel": 5,
      "note": 83,
      "start": 76.5474,
      "duration": 0.0531,
      "velocity": 127,
      "chip": "ym2612"
    },
    {
      "channel": 5,
      "note": 83,
      "start": 76.6298,
      "duration": 0.054,
      "velocity": 127,
      "chip": "ym2612"
    },
    {
      "channel": 2,
      "note": 73,
      "start": 76.7155,
      "duration": 0.0094,
      "velocity": 127,
      "chip": "ym2612"
    },
    {
      "channel": 3,
      "note": 63,
      "start": 76.7172,
      "duration": 0.0493,
      "velocity": 107,
      "chip": "ym2612"
    },
    {
      "channel": 5,
      "note": 83,
      "start": 76.719,
      "duration": 0.0477,
      "velocity": 127,
      "chip": "ym2612"
    },
    {
      "channel": 3,
      "note": 63,
      "start": 76.7963,
      "duration": 0.0533,
      "velocity": 107,
      "chip": "ym2612"
    },
    {
      "channel": 5,
      "note": 83,
      "start": 76.7981,
      "duration": 0.0518,
      "velocity": 127,
      "chip": "ym2612"
    },
    {
      "channel": 2,
      "note": 73,
      "start": 76.8785,
      "duration": 0.0125,
      "velocity": 127,
      "chip": "ym2612"
    },
    {
      "channel": 3,
      "note": 51,
      "start": 76.8802,
      "duration": 0.1362,
      "velocity": 107,
      "chip": "ym2612"
    },
    {
      "channel": 5,
      "note": 83,
      "start": 76.8855,
      "duration": 0.0473,
      "velocity": 127,
      "chip": "ym2612"
    },
    {
      "channel": 5,
      "note": 83,
      "start": 76.962,
      "duration": 0.0548,
      "velocity": 127,
      "chip": "ym2612"
    },
    {
      "channel": 2,
      "note": 73,
      "start": 77.0446,
      "duration": 0.0125,
      "velocity": 127,
      "chip": "ym2612"
    },
    {
      "channel": 3,
      "note": 63,
      "start": 77.0462,
      "duration": 0.0525,
      "velocity": 107,
      "chip": "ym2612"
    },
    {
      "channel": 5,
      "note": 83,
      "start": 77.0481,
      "duration": 0.0508,
      "velocity": 127,
      "chip": "ym2612"
    },
    {
      "channel": 3,
      "note": 63,
      "start": 77.1278,
      "duration": 0.0541,
      "velocity": 107,
      "chip": "ym2612"
    },
    {
      "channel": 5,
      "note": 83,
      "start": 77.1296,
      "duration": 0.0525,
      "velocity": 127,
      "chip": "ym2612"
    },
    {
      "channel": 0,
      "note": 78,
      "start": 77.2101,
      "duration": 0.6492,
      "velocity": 101,
      "chip": "ym2612"
    },
    {
      "channel": 2,
      "note": 78,
      "start": 77.2155,
      "duration": 0.0216,
      "velocity": 127,
      "chip": "ym2612"
    },
    {
      "channel": 3,
      "note": 51,
      "start": 77.2173,
      "duration": 0.1445,
      "velocity": 107,
      "chip": "ym2612"
    },
    {
      "channel": 5,
      "note": 83,
      "start": 77.2226,
      "duration": 0.0563,
      "velocity": 127,
      "chip": "ym2612"
    },
    {
      "channel": 2,
      "note": 76,
      "start": 77.3077,
      "duration": 0.0125,
      "velocity": 127,
      "chip": "ym2612"
    },
    {
      "channel": 5,
      "note": 83,
      "start": 77.3095,
      "duration": 0.0526,
      "velocity": 127,
      "chip": "ym2612"
    },
    {
      "channel": 2,
      "note": 74,
      "start": 77.3907,
      "duration": 0.0126,
      "velocity": 127,
      "chip": "ym2612"
    },
    {
      "channel": 3,
      "note": 63,
      "start": 77.3923,
      "duration": 0.0525,
      "velocity": 107,
      "chip": "ym2612"
    },
    {
      "channel": 5,
      "note": 83,
      "start": 77.3972,
      "duration": 0.131,
      "velocity": 127,
      "chip": "ym2612"
    },
    {
      "channel": 2,
      "note": 73,
      "start": 77.474,
      "duration": 0.0123,
      "velocity": 127,
      "chip": "ym2612"
    },
    {
      "channel": 3,
      "note": 63,
      "start": 77.4756,
      "duration": 0.0523,
      "velocity": 107,
      "chip": "ym2612"
    },
    {
      "channel": 2,
      "note": 76,
      "start": 77.5568,
      "duration": 0.0125,
      "velocity": 127,
      "chip": "ym2612"
    },
    {
      "channel": 3,
      "note": 51,
      "start": 77.5586,
      "duration": 0.1356,
      "velocity": 107,
      "chip": "ym2612"
    },
    {
      "channel": 5,
      "note": 83,
      "start": 77.5636,
      "duration": 0.0475,
      "velocity": 127,
      "chip": "ym2612"
    },
    {
      "channel": 2,
      "note": 74,
      "start": 77.6399,
      "duration": 0.0126,
      "velocity": 127,
      "chip": "ym2612"
    },
    {
      "channel": 5,
      "note": 83,
      "start": 77.6417,
      "duration": 0.0529,
      "velocity": 127,
      "chip": "ym2612"
    },
    {
      "channel": 2,
      "note": 73,
      "start": 77.7229,
      "duration": 0.0125,
      "velocity": 127,
      "chip": "ym2612"
    },
    {
      "channel": 3,
      "note": 63,
      "start": 77.7246,
      "duration": 0.0524,
      "velocity": 107,
      "chip": "ym2612"
    },
    {
      "channel": 5,
      "note": 83,
      "start": 77.7294,
      "duration": 0.1313,
      "velocity": 127,
      "chip": "ym2612"
    },
    {
      "channel": 2,
      "note": 71,
      "start": 77.806,
      "duration": 0.0125,
      "velocity": 127,
      "chip": "ym2612"
    },
    {
      "channel": 3,
      "note": 63,
      "start": 77.8076,
      "duration": 0.0527,
      "velocity": 107,
      "chip": "ym2612"
    },
    {
      "channel": 0,
      "note": 83,
      "start": 77.889,
      "duration": 0.4826,
      "velocity": 101,
      "chip": "ym2612"
    },
    {
      "channel": 1,
      "note": 71,
      "start": 77.8909,
      "duration": 1.5053,
      "velocity": 106,
      "chip": "ym2612"
    },
    {
      "channel": 2,
      "note": 61,
      "start": 77.8965,
      "duration": 0.0193,
      "velocity": 127,
      "chip": "ym2612"
    },
    {
      "channel": 3,
      "note": 47,
      "start": 77.8988,
      "duration": 0.1414,
      "velocity": 107,
      "chip": "ym2612"
    },
    {
      "channel": 4,
      "note": 68,
      "start": 77.9007,
      "duration": 1.4965,
      "velocity": 106,
      "chip": "ym2612"
    },
    {
      "channel": 5,
      "note": 83,
      "start": 77.9065,
      "duration": 0.0507,
      "velocity": 127,
      "chip": "ym2612"
    },
    {
      "channel": 5,
      "note": 83,
      "start": 77.9866,
      "duration": 0.0539,
      "velocity": 127,
      "chip": "ym2612"
    },
    {
      "channel": 3,
      "note": 59,
      "start": 78.0692,
      "duration": 0.0539,
      "velocity": 107,
      "chip": "ym2612"
    },
    {
      "channel": 5,
      "note": 83,
      "start": 78.0711,
      "duration": 0.0524,
      "velocity": 127,
      "chip": "ym2612"
    },
    {
      "channel": 3,
      "note": 59,
      "start": 78.1523,
      "duration": 0.054,
      "velocity": 107,
      "chip": "ym2612"
    },
    {
      "channel": 5,
      "note": 83,
      "start": 78.1542,
      "duration": 0.0524,
      "velocity": 127,
      "chip": "ym2612"
    },
    {
      "channel": 2,
      "note": 71,
      "start": 78.2383,
      "duration": 0.0094,
      "velocity": 127,
      "chip": "ym2612"
    },
    {
      "channel": 3,
      "note": 47,
      "start": 78.2401,
      "duration": 0.1323,
      "velocity": 107,
      "chip": "ym2612"
    },
    {
      "channel": 5,
      "note": 83,
      "start": 78.2454,
      "duration": 0.0441,
      "velocity": 127,
      "chip": "ym2612"
    },
    {
      "channel": 5,
      "note": 83,
      "start": 78.3187,
      "duration": 0.054,
      "velocity": 127,
      "chip": "ym2612"
    },
    {
      "channel": 0,
      "note": 82,
      "start": 78.4008,
      "duration": 0.4691,
      "velocity": 101,
      "chip": "ym2612"
    },
    {
      "channel": 3,
      "note": 59,
      "start": 78.4031,
      "duration": 0.0523,
      "velocity": 107,
      "chip": "ym2612"
    },
    {
      "channel": 5,
      "note": 83,
      "start": 78.4049,
      "duration": 0.0508,
      "velocity": 127,
      "chip": "ym2612"
    },
    {
      "channel": 3,
      "note": 59,
      "start": 78.4846,
      "duration": 0.0539,
      "velocity": 107,
      "chip": "ym2612"
    },
    {
      "channel": 5,
      "note": 83,
      "start": 78.4864,
      "duration": 0.0524,
      "velocity": 127,
      "chip": "ym2612"
    },
    {
      "channel": 2,
      "note": 61,
      "start": 78.5706,
      "duration": 0.0094,
      "velocity": 127,
      "chip": "ym2612"
    },
    {
      "channel": 3,
      "note": 47,
      "start": 78.5724,
      "duration": 0.1322,
      "velocity": 107,
      "chip": "ym2612"
    },
    {
      "channel": 5,
      "note": 83,
      "start": 78.5777,
      "duration": 0.044,
      "velocity": 127,
      "chip": "ym2612"
    },
    {
      "channel": 2,
      "note": 61,
      "start": 78.6506,
      "duration": 0.0124,
      "velocity": 127,
      "chip": "ym2612"
    },
    {
      "channel": 5,
      "note": 83,
      "start": 78.6526,
      "duration": 0.0523,
      "velocity": 127,
      "chip": "ym2612"
    },
    {
      "channel": 2,
      "note": 61,
      "start": 78.7336,
      "duration": 0.0125,
      "velocity": 127,
      "chip": "ym2612"
    },
    {
      "channel": 3,
      "note": 59,
      "start": 78.7353,
      "duration": 0.0523,
      "velocity": 107,
      "chip": "ym2612"
    },
    {
      "channel": 5,
      "note": 83,
      "start": 78.7371,
      "duration": 0.0508,
      "velocity": 127,
      "chip": "ym2612"
    },
    {
      "channel": 3,
      "note": 59,
      "start": 78.8168,
      "duration": 0.054,
      "velocity": 107,
      "chip": "ym2612"
    },
    {
      "channel": 5,
      "note": 83,
      "start": 78.8187,
      "duration": 0.0524,
      "velocity": 127,
      "chip": "ym2612"
    },
    {
      "channel": 0,
      "note": 80,
      "start": 78.8992,
      "duration": 0.3169,
      "velocity": 101,
      "chip": "ym2612"
    },
    {
      "channel": 2,
      "note": 71,
      "start": 78.9046,
      "duration": 0.0216,
      "velocity": 127,
      "chip": "ym2612"
    },
    {
      "channel": 3,
      "note": 47,
      "start": 78.9063,
      "duration": 0.1445,
      "velocity": 107,
      "chip": "ym2612"
    },
    {
      "channel": 5,
      "note": 83,
      "start": 78.9116,
      "duration": 0.0562,
      "velocity": 127,
      "chip": "ym2612"
    },
    {
      "channel": 5,
      "note": 83,
      "start": 78.9972,
      "duration": 0.0539,
      "velocity": 127,
      "chip": "ym2612"
    },
    {
      "channel": 3,
      "note": 59,
      "start": 79.0798,
      "duration": 0.0539,
      "velocity": 107,
      "chip": "ym2612"
    },
    {
      "channel": 5,
      "note": 83,
      "start": 79.0817,
      "duration": 0.0524,
      "velocity": 127,
      "chip": "ym2612"
    },
    {
      "channel": 3,
      "note": 59,
      "start": 79.1629,
      "duration": 0.0541,
      "velocity": 107,
      "chip": "ym2612"
    },
    {
      "channel": 5,
      "note": 83,
      "start": 79.1647,
      "duration": 0.0526,
      "velocity": 127,
      "chip": "ym2612"
    },
    {
      "channel": 0,
      "note": 83,
      "start": 79.2454,
      "duration": 0.4967,
      "velocity": 101,
      "chip": "ym2612"
    },
    {
      "channel": 2,
      "note": 61,
      "start": 79.2523,
      "duration": 0.0199,
      "velocity": 127,
      "chip": "ym2612"
    },
    {
      "channel": 3,
      "note": 47,
      "start": 79.2541,
      "duration": 0.1429,
      "velocity": 107,
      "chip": "ym2612"
    },
    {
      "channel": 5,
      "note": 83,
      "start": 79.2608,
      "duration": 0.0531,
      "velocity": 127,
      "chip": "ym2612"
    },
    {
      "channel": 5,
      "note": 83,
      "start": 79.3432,
      "duration": 0.0542,
      "velocity": 127,
      "chip": "ym2612"
    },
    {
      "channel": 1,
      "note": 71,
      "start": 79.4252,
      "duration": 0.1371,
      "velocity": 106,
      "chip": "ym2612"
    },
    {
      "channel": 3,
      "note": 59,
      "start": 79.4274,
      "duration": 0.0527,
      "velocity": 107,
      "chip": "ym2612"
    },
    {
      "channel": 4,
      "note": 68,
      "start": 79.429,
      "duration": 0.1343,
      "velocity": 106,
      "chip": "ym2612"
    },
    {
      "channel": 5,
      "note": 83,
      "start": 79.4307,
      "duration": 0.0497,
      "velocity": 127,
      "chip": "ym2612"
    },
    {
      "channel": 3,
      "note": 59,
      "start": 79.5089,
      "duration": 0.0541,
      "velocity": 107,
      "chip": "ym2612"
    },
    {
      "channel": 5,
      "note": 83,
      "start": 79.5108,
      "duration": 0.0526,
      "velocity": 127,
      "chip": "ym2612"
    },
    {
      "channel": 1,
      "note": 73,
      "start": 79.5913,
      "duration": 0.151,
      "velocity": 106,
      "chip": "ym2612"
    },
    {
      "channel": 2,
      "note": 71,
      "start": 79.5965,
      "duration": 0.0218,
      "velocity": 127,
      "chip": "ym2612"
    },
    {
      "channel": 3,
      "note": 47,
      "start": 79.5983,
      "duration": 0.1447,
      "velocity": 107,
      "chip": "ym2612"
    },
    {
      "channel": 4,
      "note": 70,
      "start": 79.6,
      "duration": 0.1433,
      "velocity": 106,
      "chip": "ym2612"
    },
    {
      "channel": 5,
      "note": 83,
      "start": 79.6052,
      "duration": 0.0548,
      "velocity": 127,
      "chip": "ym2612"
    },
    {
      "channel": 5,
      "note": 83,
      "start": 79.6893,
      "duration": 0.0542,
      "velocity": 127,
      "chip": "ym2612"
    },
    {
      "channel": 0,
      "note": 82,
      "start": 79.7713,
      "duration": 0.4831,
      "velocity": 101,
      "chip": "ym2612"
    },
    {
      "channel": 1,
      "note": 71,
      "start": 79.7729,
      "duration": 0.1355,
      "velocity": 106,
      "chip": "ym2612"
    },
    {
      "channel": 3,
      "note": 59,
      "start": 79.7751,
      "duration": 0.0508,
      "velocity": 107,
      "chip": "ym2612"
    },
    {
      "channel": 4,
      "note": 68,
      "start": 79.7767,
      "duration": 0.1326,
      "velocity": 106,
      "chip": "ym2612"
    },
    {
      "channel": 5,
      "note": 83,
      "start": 79.7785,
      "duration": 0.0478,
      "velocity": 127,
      "chip": "ym2612"
    },
    {
      "channel": 3,
      "note": 59,
      "start": 79.8551,
      "duration": 0.0541,
      "velocity": 107,
      "chip": "ym2612"
    },
    {
      "channel": 5,
      "note": 83,
      "start": 79.857,
      "duration": 0.0525,
      "velocity": 127,
      "chip": "ym2612"
    },
    {
      "channel": 1,
      "note": 70,
      "start": 79.9374,
      "duration": 0.151,
      "velocity": 106,
      "chip": "ym2612"
    },
    {
      "channel": 2,
      "note": 61,
      "start": 79.9427,
      "duration": 0.0218,
      "velocity": 127,
      "chip": "ym2612"
    },
    {
      "channel": 3,
      "note": 47,
      "start": 79.9444,
      "duration": 0.1447,
      "velocity": 107,
      "chip": "ym2612"
    },
    {
      "channel": 4,
      "note": 66,
      "start": 79.946,
      "duration": 0.1433,
      "velocity": 106,
      "chip": "ym2612"
    },
    {
      "channel": 5,
      "note": 83,
      "start": 79.9512,
      "duration": 0.0548,
      "velocity": 127,
      "chip": "ym2612"
    },
    {
      "channel": 2,
      "note": 61,
      "start": 80.035,
      "duration": 0.0125,
      "velocity": 127,
      "chip": "ym2612"
    },
    {
      "channel": 5,
      "note": 83,
      "start": 80.0368,
      "duration": 0.0527,
      "velocity": 127,
      "chip": "ym2612"
    },
    {
      "channel": 1,
      "note": 68,
      "start": 80.1175,
      "duration": 0.1371,
      "velocity": 106,
      "chip": "ym2612"
    },
    {
      "channel": 2,
      "note": 61,
      "start": 80.1195,
      "duration": 0.011,
      "velocity": 127,
      "chip": "ym2612"
    },
    {
      "channel": 3,
      "note": 59,
      "start": 80.1212,
      "duration": 0.0509,
      "velocity": 107,
      "chip": "ym2612"
    },
    {
      "channel": 4,
      "note": 65,
      "start": 80.1227,
      "duration": 0.1328,
      "velocity": 106,
      "chip": "ym2612"
    },
    {
      "channel": 5,
      "note": 83,
      "start": 80.1275,
      "duration": 0.1282,
      "velocity": 127,
      "chip": "ym2612"
    },
    {
      "channel": 3,
      "note": 59,
      "start": 80.2012,
      "duration": 0.0541,
      "velocity": 107,
      "chip": "ym2612"
    },
    {
      "channel": 0,
      "note": 80,
      "start": 80.2836,
      "duration": 0.3169,
      "velocity": 101,
      "chip": "ym2612"
    },
    {
      "channel": 1,
      "note": 66,
      "start": 80.2851,
      "duration": 0.1494,
      "velocity": 106,
      "chip": "ym2612"
    },
    {
      "channel": 2,
      "note": 71,
      "start": 80.2904,
      "duration": 0.02,
      "velocity": 127,
      "chip": "ym2612"
    },
    {
      "channel": 3,
      "note": 47,
      "start": 80.2922,
      "duration": 0.1431,
      "velocity": 107,
      "chip": "ym2612"
    },
    {
      "channel": 4,
      "note": 63,
      "start": 80.2938,
      "duration": 0.1417,
      "velocity": 106,
      "chip": "ym2612"
    },
    {
      "channel": 5,
      "note": 83,
      "start": 80.2987,
      "duration": 0.0536,
      "velocity": 127,
      "chip": "ym2612"
    },
    {
      "channel": 5,
      "note": 83,
      "start": 80.3813,
      "duration": 0.0543,
      "velocity": 127,
      "chip": "ym2612"
    },
    {
      "channel": 1,
      "note": 65,
      "start": 80.4635,
      "duration": 0.1372,
      "velocity": 106,
      "chip": "ym2612"
    },
    {
      "channel": 3,
      "note": 59,
      "start": 80.4657,
      "duration": 0.0525,
      "velocity": 107,
      "chip": "ym2612"
    },
    {
      "channel": 4,
      "note": 61,
      "start": 80.4673,
      "duration": 0.1343,
      "velocity": 106,
      "chip": "ym2612"
    },
    {
      "channel": 5,
      "note": 83,
      "start": 80.4721,
      "duration": 0.1298,
      "velocity": 127,
      "chip": "ym2612"
    },
    {
      "channel": 3,
      "note": 59,
      "start": 80.5472,
      "duration": 0.0542,
      "velocity": 107,
      "chip": "ym2612"
    },
    {
      "channel": 0,
      "note": 83,
      "start": 80.6298,
      "duration": 0.4829,
      "velocity": 101,
      "chip": "ym2612"
    },
    {
      "channel": 1,
      "note": 68,
      "start": 80.6315,
      "duration": 0.4814,
      "velocity": 106,
      "chip": "ym2612"
    },
    {
      "channel": 2,
      "note": 61,
      "start": 80.6368,
      "duration": 0.0198,
      "velocity": 127,
      "chip": "ym2612"
    },
    {
      "channel": 3,
      "note": 47,
      "start": 80.6386,
      "duration": 0.1426,
      "velocity": 107,
      "chip": "ym2612"
    },
    {
      "channel": 4,
      "note": 65,
      "start": 80.6402,
      "duration": 0.4736,
      "velocity": 106,
      "chip": "ym2612"
    },
    {
      "channel": 5,
      "note": 83,
      "start": 80.6456,
      "duration": 0.0527,
      "velocity": 127,
      "chip": "ym2612"
    },
    {
      "channel": 5,
      "note": 83,
      "start": 80.7276,
      "duration": 0.0539,
      "velocity": 127,
      "chip": "ym2612"
    },
    {
      "channel": 3,
      "note": 59,
      "start": 80.811,
      "duration": 0.0532,
      "velocity": 107,
      "chip": "ym2612"
    },
    {
      "channel": 5,
      "note": 83,
      "start": 80.8129,
      "duration": 0.0517,
      "velocity": 127,
      "chip": "ym2612"
    },
    {
      "channel": 3,
      "note": 59,
      "start": 80.8934,
      "duration": 0.054,
      "velocity": 107,
      "chip": "ym2612"
    },
    {
      "channel": 5,
      "note": 83,
      "start": 80.8953,
      "duration": 0.0524,
      "velocity": 127,
      "chip": "ym2612"
    },
    {
      "channel": 2,
      "note": 71,
      "start": 80.9794,
      "duration": 0.0094,
      "velocity": 127,
      "chip": "ym2612"
    },
    {
      "channel": 3,
      "note": 47,
      "start": 80.9812,
      "duration": 0.1324,
      "velocity": 107,
      "chip": "ym2612"
    },
    {
      "channel": 5,
      "note": 83,
      "start": 80.9866,
      "duration": 0.0454,
      "velocity": 127,
      "chip": "ym2612"
    },
    {
      "channel": 5,
      "note": 83,
      "start": 81.0598,
      "duration": 0.0542,
      "velocity": 127,
      "chip": "ym2612"
    },
    {
      "channel": 0,
      "note": 82,
      "start": 81.1418,
      "duration": 0.4831,
      "velocity": 101,
      "chip": "ym2612"
    },
    {
      "channel": 1,
      "note": 70,
      "start": 81.1435,
      "duration": 2.1844,
      "velocity": 106,
      "chip": "ym2612"
    },
    {
      "channel": 3,
      "note": 59,
      "start": 81.1456,
      "duration": 0.0508,
      "velocity": 107,
      "chip": "ym2612"
    },
    {
      "channel": 4,
      "note": 66,
      "start": 81.1473,
      "duration": 2.1815,
      "velocity": 106,
      "chip": "ym2612"
    },
    {
      "channel": 5,
      "note": 83,
      "start": 81.1491,
      "duration": 0.0477,
      "velocity": 127,
      "chip": "ym2612"
    },
    {
      "channel": 3,
      "note": 59,
      "start": 81.2256,
      "duration": 0.054,
      "velocity": 107,
      "chip": "ym2612"
    },
    {
      "channel": 5,
      "note": 83,
      "start": 81.2275,
      "duration": 0.0524,
      "velocity": 127,
      "chip": "ym2612"
    },
    {
      "channel": 2,
      "note": 61,
      "start": 81.3131,
      "duration": 0.0218,
      "velocity": 127,
      "chip": "ym2612"
    },
    {
      "channel": 3,
      "note": 47,
      "start": 81.3149,
      "duration": 0.1446,
      "velocity": 107,
      "chip": "ym2612"
    },
    {
      "channel": 5,
      "note": 83,
      "start": 81.3217,
      "duration": 0.055,
      "velocity": 127,
      "chip": "ym2612"
    },
    {
      "channel": 2,
      "note": 61,
      "start": 81.4055,
      "duration": 0.0124,
      "velocity": 127,
      "chip": "ym2612"
    },
    {
      "channel": 5,
      "note": 83,
      "start": 81.4075,
      "duration": 0.0524,
      "velocity": 127,
      "chip": "ym2612"
    },
    {
      "channel": 2,
      "note": 61,
      "start": 81.4888,
      "duration": 0.0123,
      "velocity": 127,
      "chip": "ym2612"
    },
    {
      "channel": 3,
      "note": 59,
      "start": 81.4904,
      "duration": 0.0522,
      "velocity": 107,
      "chip": "ym2612"
    },
    {
      "channel": 5,
      "note": 83,
      "start": 81.4923,
      "duration": 0.0506,
      "velocity": 127,
      "chip": "ym2612"
    },
    {
      "channel": 3,
      "note": 59,
      "start": 81.5717,
      "duration": 0.0541,
      "velocity": 107,
      "chip": "ym2612"
    },
    {
      "channel": 5,
      "note": 83,
      "start": 81.5735,
      "duration": 0.0525,
      "velocity": 127,
      "chip": "ym2612"
    },
    {
      "channel": 0,
      "note": 80,
      "start": 81.654,
      "duration": 0.317,
      "velocity": 101,
      "chip": "ym2612"
    },
    {
      "channel": 2,
      "note": 71,
      "start": 81.6594,
      "duration": 0.0217,
      "velocity": 127,
      "chip": "ym2612"
    },
    {
      "channel": 3,
      "note": 47,
      "start": 81.6612,
      "duration": 0.1445,
      "velocity": 107,
      "chip": "ym2612"
    },
    {
      "channel": 5,
      "note": 83,
      "start": 81.6665,
      "duration": 0.0562,
      "velocity": 127,
      "chip": "ym2612"
    },
    {
      "channel": 5,
      "note": 83,
      "start": 81.7521,
      "duration": 0.0539,
      "velocity": 127,
      "chip": "ym2612"
    },
    {
      "channel": 3,
      "note": 59,
      "start": 81.8348,
      "duration": 0.0539,
      "velocity": 107,
      "chip": "ym2612"
    },
    {
      "channel": 5,
      "note": 83,
      "start": 81.8367,
      "duration": 0.0523,
      "velocity": 127,
      "chip": "ym2612"
    },
    {
      "channel": 3,
      "note": 59,
      "start": 81.9178,
      "duration": 0.0541,
      "velocity": 107,
      "chip": "ym2612"
    },
    {
      "channel": 5,
      "note": 83,
      "start": 81.9198,
      "duration": 0.0524,
      "velocity": 127,
      "chip": "ym2612"
    },
    {
      "channel": 0,
      "note": 83,
      "start": 82.0003,
      "duration": 0.649,
      "velocity": 101,
      "chip": "ym2612"
    },
    {
      "channel": 2,
      "note": 61,
      "start": 82.0073,
      "duration": 0.0198,
      "velocity": 127,
      "chip": "ym2612"
    },
    {
      "channel": 3,
      "note": 47,
      "start": 82.0091,
      "duration": 0.1432,
      "velocity": 107,
      "chip": "ym2612"
    },
    {
      "channel": 5,
      "note": 83,
      "start": 82.0157,
      "duration": 0.0531,
      "velocity": 127,
      "chip": "ym2612"
    },
    {
      "channel": 5,
      "note": 83,
      "start": 82.0982,
      "duration": 0.0544,
      "velocity": 127,
      "chip": "ym2612"
    },
    {
      "channel": 3,
      "note": 59,
      "start": 82.1808,
      "duration": 0.0539,
      "velocity": 107,
      "chip": "ym2612"
    },
    {
      "channel": 5,
      "note": 83,
      "start": 82.1828,
      "duration": 0.0523,
      "velocity": 127,
      "chip": "ym2612"
    },
    {
      "channel": 3,
      "note": 59,
      "start": 82.2639,
      "duration": 0.054,
      "velocity": 107,
      "chip": "ym2612"
    },
    {
      "channel": 5,
      "note": 83,
      "start": 82.2659,
      "duration": 0.0523,
      "velocity": 127,
      "chip": "ym2612"
    },
    {
      "channel": 2,
      "note": 71,
      "start": 82.35,
      "duration": 0.0094,
      "velocity": 127,
      "chip": "ym2612"
    },
    {
      "channel": 3,
      "note": 47,
      "start": 82.3518,
      "duration": 0.1322,
      "velocity": 107,
      "chip": "ym2612"
    },
    {
      "channel": 5,
      "note": 83,
      "start": 82.3571,
      "duration": 0.044,
      "velocity": 127,
      "chip": "ym2612"
    },
    {
      "channel": 5,
      "note": 83,
      "start": 82.4304,
      "duration": 0.0539,
      "velocity": 127,
      "chip": "ym2612"
    },
    {
      "channel": 3,
      "note": 59,
      "start": 82.5131,
      "duration": 0.0539,
      "velocity": 107,
      "chip": "ym2612"
    },
    {
      "channel": 5,
      "note": 83,
      "start": 82.5149,
      "duration": 0.0524,
      "velocity": 127,
      "chip": "ym2612"
    },
    {
      "channel": 3,
      "note": 59,
      "start": 82.5968,
      "duration": 0.0534,
      "velocity": 107,
      "chip": "ym2612"
    },
    {
      "channel": 5,
      "note": 83,
      "start": 82.5987,
      "duration": 0.0518,
      "velocity": 127,
      "chip": "ym2612"
    },
    {
      "channel": 0,
      "note": 82,
      "start": 82.6785,
      "duration": 0.6492,
      "velocity": 101,
      "chip": "ym2612"
    },
    {
      "channel": 2,
      "note": 61,
      "start": 82.6839,
      "duration": 0.0216,
      "velocity": 127,
      "chip": "ym2612"
    },
    {
      "channel": 3,
      "note": 47,
      "start": 82.6856,
      "duration": 0.1445,
      "velocity": 107,
      "chip": "ym2612"
    },
    {
      "channel": 5,
      "note": 83,
      "start": 82.6909,
      "duration": 0.0563,
      "velocity": 127,
      "chip": "ym2612"
    },
    {
      "channel": 2,
      "note": 61,
      "start": 82.7761,
      "duration": 0.0125,
      "velocity": 127,
      "chip": "ym2612"
    },
    {
      "channel": 5,
      "note": 83,
      "start": 82.7778,
      "duration": 0.0526,
      "velocity": 127,
      "chip": "ym2612"
    },
    {
      "channel": 2,
      "note": 61,
      "start": 82.8591,
      "duration": 0.0125,
      "velocity": 127,
      "chip": "ym2612"
    },
    {
      "channel": 3,
      "note": 59,
      "start": 82.8607,
      "duration": 0.0525,
      "velocity": 107,
      "chip": "ym2612"
    },
    {
      "channel": 5,
      "note": 83,
      "start": 82.8656,
      "duration": 0.131,
      "velocity": 127,
      "chip": "ym2612"
    },
    {
      "channel": 3,
      "note": 59,
      "start": 82.9423,
      "duration": 0.054,
      "velocity": 107,
      "chip": "ym2612"
    },
    {
      "channel": 2,
      "note": 71,
      "start": 83.0283,
      "duration": 0.0094,
      "velocity": 127,
      "chip": "ym2612"
    },
    {
      "channel": 3,
      "note": 47,
      "start": 83.0301,
      "duration": 0.1322,
      "velocity": 107,
      "chip": "ym2612"
    },
    {
      "channel": 5,
      "note": 83,
      "start": 83.0352,
      "duration": 0.0442,
      "velocity": 127,
      "chip": "ym2612"
    },
    {
      "channel": 5,
      "note": 83,
      "start": 83.1085,
      "duration": 0.0541,
      "velocity": 127,
      "chip": "ym2612"
    },
    {
      "channel": 3,
      "note": 59,
      "start": 83.1914,
      "duration": 0.054,
      "velocity": 107,
      "chip": "ym2612"
    },
    {
      "channel": 5,
      "note": 83,
      "start": 83.1963,
      "duration": 0.1328,
      "velocity": 127,
      "chip": "ym2612"
    },
    {
      "channel": 3,
      "note": 59,
      "start": 83.2746,
      "duration": 0.0539,
      "velocity": 107,
      "chip": "ym2612"
    },
    {
      "channel": 0,
      "note": 80,
      "start": 83.3574,
      "duration": 0.4825,
      "velocity": 101,
      "chip": "ym2612"
    },
    {
      "channel": 1,
      "note": 68,
      "start": 83.3593,
      "duration": 1.5052,
      "velocity": 106,
      "chip": "ym2612"
    },
    {
      "channel": 2,
      "note": 61,
      "start": 83.3651,
      "duration": 0.0187,
      "velocity": 127,
      "chip": "ym2612"
    },
    {
      "channel": 3,
      "note": 51,
      "start": 83.3673,
      "duration": 0.1412,
      "velocity": 107,
      "chip": "ym2612"
    },
    {
      "channel": 4,
      "note": 65,
      "start": 83.3693,
      "duration": 1.4962,
      "velocity": 106,
      "chip": "ym2612"
    },
    {
      "channel": 5,
      "note": 83,
      "start": 83.375,
      "duration": 0.0506,
      "velocity": 127,
      "chip": "ym2612"
    },
    {
      "channel": 5,
      "note": 83,
      "start": 83.4549,
      "duration": 0.0539,
      "velocity": 127,
      "chip": "ym2612"
    },
    {
      "channel": 3,
      "note": 63,
      "start": 83.5376,
      "duration": 0.0539,
      "velocity": 107,
      "chip": "ym2612"
    },
    {
      "channel": 5,
      "note": 83,
      "start": 83.5394,
      "duration": 0.0524,
      "velocity": 127,
      "chip": "ym2612"
    },
    {
      "channel": 3,
      "note": 63,
      "start": 83.6206,
      "duration": 0.054,
      "velocity": 107,
      "chip": "ym2612"
    },
    {
      "channel": 5,
      "note": 83,
      "start": 83.6225,
      "duration": 0.0523,
      "velocity": 127,
      "chip": "ym2612"
    },
    {
      "channel": 2,
      "note": 73,
      "start": 83.7066,
      "duration": 0.0095,
      "velocity": 127,
      "chip": "ym2612"
    },
    {
      "channel": 3,
      "note": 51,
      "start": 83.7084,
      "duration": 0.1323,
      "velocity": 107,
      "chip": "ym2612"
    },
    {
      "channel": 5,
      "note": 83,
      "start": 83.7137,
      "duration": 0.0441,
      "velocity": 127,
      "chip": "ym2612"
    },
    {
      "channel": 5,
      "note": 83,
      "start": 83.7871,
      "duration": 0.054,
      "velocity": 127,
      "chip": "ym2612"
    },
    {
      "channel": 0,
      "note": 82,
      "start": 83.8691,
      "duration": 0.4692,
      "velocity": 101,
      "chip": "ym2612"
    },
    {
      "channel": 3,
      "note": 63,
      "start": 83.8713,
      "duration": 0.0524,
      "velocity": 107,
      "chip": "ym2612"
    },
    {
      "channel": 5,
      "note": 83,
      "start": 83.8732,
      "duration": 0.0508,
      "velocity": 127,
      "chip": "ym2612"
    },
    {
      "channel": 3,
      "note": 63,
      "start": 83.9529,
      "duration": 0.0539,
      "velocity": 107,
      "chip": "ym2612"
    },
    {
      "channel": 5,
      "note": 83,
      "start": 83.9547,
      "duration": 0.0524,
      "velocity": 127,
      "chip": "ym2612"
    },
    {
      "channel": 2,
      "note": 61,
      "start": 84.039,
      "duration": 0.0094,
      "velocity": 127,
      "chip": "ym2612"
    },
    {
      "channel": 3,
      "note": 51,
      "start": 84.0407,
      "duration": 0.1324,
      "velocity": 107,
      "chip": "ym2612"
    },
    {
      "channel": 5,
      "note": 83,
      "start": 84.046,
      "duration": 0.044,
      "velocity": 127,
      "chip": "ym2612"
    },
    {
      "channel": 2,
      "note": 61,
      "start": 84.1189,
      "duration": 0.0124,
      "velocity": 127,
      "chip": "ym2612"
    },
    {
      "channel": 5,
      "note": 83,
      "start": 84.1209,
      "duration": 0.0525,
      "velocity": 127,
      "chip": "ym2612"
    },
    {
      "channel": 2,
      "note": 61,
      "start": 84.202,
      "duration": 0.0125,
      "velocity": 127,
      "chip": "ym2612"
    },
    {
      "channel": 3,
      "note": 63,
      "start": 84.2036,
      "duration": 0.0524,
      "velocity": 107,
      "chip": "ym2612"
    },
    {
      "channel": 5,
      "note": 83,
      "start": 84.2054,
      "duration": 0.0508,
      "velocity": 127,
      "chip": "ym2612"
    },
    {
      "channel": 3,
      "note": 63,
      "start": 84.285,
      "duration": 0.0541,
      "velocity": 107,
      "chip": "ym2612"
    },
    {
      "channel": 5,
      "note": 83,
      "start": 84.2869,
      "duration": 0.0526,
      "velocity": 127,
      "chip": "ym2612"
    },
    {
      "channel": 0,
      "note": 83,
      "start": 84.3675,
      "duration": 0.3169,
      "velocity": 101,
      "chip": "ym2612"
    },
    {
      "channel": 2,
      "note": 71,
      "start": 84.3729,
      "duration": 0.0216,
      "velocity": 127,
      "chip": "ym2612"
    },
    {
      "channel": 3,
      "note": 51,
      "start": 84.3746,
      "duration": 0.1445,
      "velocity": 107,
      "chip": "ym2612"
    },
    {
      "channel": 5,
      "note": 83,
      "start": 84.3799,
      "duration": 0.0562,
      "velocity": 127,
      "chip": "ym2612"
    },
    {
      "channel": 5,
      "note": 83,
      "start": 84.4655,
      "duration": 0.0539,
      "velocity": 127,
      "chip": "ym2612"
    },
    {
      "channel": 3,
      "note": 63,
      "start": 84.5481,
      "duration": 0.0547,
      "velocity": 107,
      "chip": "ym2612"
    },
    {
      "channel": 5,
      "note": 83,
      "start": 84.5501,
      "duration": 0.0531,
      "velocity": 127,
      "chip": "ym2612"
    },
    {
      "channel": 3,
      "note": 63,
      "start": 84.6312,
      "duration": 0.0541,
      "velocity": 107,
      "chip": "ym2612"
    },
    {
      "channel": 5,
      "note": 83,
      "start": 84.6332,
      "duration": 0.0524,
      "velocity": 127,
      "chip": "ym2612"
    },
    {
      "channel": 0,
      "note": 80,
      "start": 84.7137,
      "duration": 0.4967,
      "velocity": 101,
      "chip": "ym2612"
    },
    {
      "channel": 2,
      "note": 61,
      "start": 84.7206,
      "duration": 0.0199,
      "velocity": 127,
      "chip": "ym2612"
    },
    {
      "channel": 3,
      "note": 51,
      "start": 84.7224,
      "duration": 0.1429,
      "velocity": 107,
      "chip": "ym2612"
    },
    {
      "channel": 5,
      "note": 83,
      "start": 84.7292,
      "duration": 0.0531,
      "velocity": 127,
      "chip": "ym2612"
    },
    {
      "channel": 5,
      "note": 83,
      "start": 84.8116,
      "duration": 0.0541,
      "velocity": 127,
      "chip": "ym2612"
    },
    {
      "channel": 1,
      "note": 68,
      "start": 84.8935,
      "duration": 0.1371,
      "velocity": 106,
      "chip": "ym2612"
    },
    {
      "channel": 3,
      "note": 63,
      "start": 84.8957,
      "duration": 0.0525,
      "velocity": 107,
      "chip": "ym2612"
    },
    {
      "channel": 4,
      "note": 65,
      "start": 84.8974,
      "duration": 0.1342,
      "velocity": 106,
      "chip": "ym2612"
    },
    {
      "channel": 5,
      "note": 83,
      "start": 84.8992,
      "duration": 0.0492,
      "velocity": 127,
      "chip": "ym2612"
    },
    {
      "channel": 3,
      "note": 63,
      "start": 84.9773,
      "duration": 0.0541,
      "velocity": 107,
      "chip": "ym2612"
    },
    {
      "channel": 5,
      "note": 83,
      "start": 84.9792,
      "duration": 0.0526,
      "velocity": 127,
      "chip": "ym2612"
    },
    {
      "channel": 1,
      "note": 70,
      "start": 85.0598,
      "duration": 0.1508,
      "velocity": 106,
      "chip": "ym2612"
    },
    {
      "channel": 2,
      "note": 73,
      "start": 85.065,
      "duration": 0.0216,
      "velocity": 127,
      "chip": "ym2612"
    },
    {
      "channel": 3,
      "note": 51,
      "start": 85.0668,
      "duration": 0.1446,
      "velocity": 107,
      "chip": "ym2612"
    },
    {
      "channel": 4,
      "note": 66,
      "start": 85.0685,
      "duration": 0.1431,
      "velocity": 106,
      "chip": "ym2612"
    },
    {
      "channel": 5,
      "note": 83,
      "start": 85.0736,
      "duration": 0.0547,
      "velocity": 127,
      "chip": "ym2612"
    },
    {
      "channel": 5,
      "note": 83,
      "start": 85.1576,
      "duration": 0.0542,
      "velocity": 127,
      "chip": "ym2612"
    },
    {
      "channel": 0,
      "note": 82,
      "start": 85.2397,
      "duration": 0.4835,
      "velocity": 101,
      "chip": "ym2612"
    },
    {
      "channel": 1,
      "note": 71,
      "start": 85.2412,
      "duration": 0.1355,
      "velocity": 106,
      "chip": "ym2612"
    },
    {
      "channel": 3,
      "note": 63,
      "start": 85.2434,
      "duration": 0.0509,
      "velocity": 107,
      "chip": "ym2612"
    },
    {
      "channel": 4,
      "note": 68,
      "start": 85.2451,
      "duration": 0.1326,
      "velocity": 106,
      "chip": "ym2612"
    },
    {
      "channel": 5,
      "note": 83,
      "start": 85.2468,
      "duration": 0.0477,
      "velocity": 127,
      "chip": "ym2612"
    },
    {
      "channel": 3,
      "note": 63,
      "start": 85.3234,
      "duration": 0.0541,
      "velocity": 107,
      "chip": "ym2612"
    },
    {
      "channel": 5,
      "note": 83,
      "start": 85.3253,
      "duration": 0.0526,
      "velocity": 127,
      "chip": "ym2612"
    },
    {
      "channel": 1,
      "note": 70,
      "start": 85.4058,
      "duration": 0.151,
      "velocity": 106,
      "chip": "ym2612"
    },
    {
      "channel": 2,
      "note": 61,
      "start": 85.411,
      "duration": 0.0217,
      "velocity": 127,
      "chip": "ym2612"
    },
    {
      "channel": 3,
      "note": 51,
      "start": 85.4127,
      "duration": 0.1447,
      "velocity": 107,
      "chip": "ym2612"
    },
    {
      "channel": 4,
      "note": 66,
      "start": 85.4144,
      "duration": 0.1433,
      "velocity": 106,
      "chip": "ym2612"
    },
    {
      "channel": 5,
      "note": 83,
      "start": 85.4196,
      "duration": 0.0549,
      "velocity": 127,
      "chip": "ym2612"
    },
    {
      "channel": 2,
      "note": 61,
      "start": 85.5036,
      "duration": 0.0123,
      "velocity": 127,
      "chip": "ym2612"
    },
    {
      "channel": 5,
      "note": 83,
      "start": 85.5054,
      "duration": 0.0524,
      "velocity": 127,
      "chip": "ym2612"
    },
    {
      "channel": 1,
      "note": 68,
      "start": 85.5858,
      "duration": 0.3171,
      "velocity": 106,
      "chip": "ym2612"
    },
    {
      "channel": 2,
      "note": 61,
      "start": 85.5878,
      "duration": 0.011,
      "velocity": 127,
      "chip": "ym2612"
    },
    {
      "channel": 3,
      "note": 63,
      "start": 85.5895,
      "duration": 0.0509,
      "velocity": 107,
      "chip": "ym2612"
    },
    {
      "channel": 4,
      "note": 65,
      "start": 85.5911,
      "duration": 0.3127,
      "velocity": 106,
      "chip": "ym2612"
    },
    {
      "channel": 5,
      "note": 83,
      "start": 85.5958,
      "duration": 0.1284,
      "velocity": 127,
      "chip": "ym2612"
    },
    {
      "channel": 3,
      "note": 63,
      "start": 85.6694,
      "duration": 0.0545,
      "velocity": 107,
      "chip": "ym2612"
    },
    {
      "channel": 0,
      "note": 83,
      "start": 85.7519,
      "duration": 0.317,
      "velocity": 101,
      "chip": "ym2612"
    },
    {
      "channel": 2,
      "note": 71,
      "start": 85.7572,
      "duration": 0.0216,
      "velocity": 127,
      "chip": "ym2612"
    },
    {
      "channel": 3,
      "note": 51,
      "start": 85.7589,
      "duration": 0.1446,
      "velocity": 107,
      "chip": "ym2612"
    },
    {
      "channel": 5,
      "note": 83,
      "start": 85.764,
      "duration": 0.0566,
      "velocity": 127,
      "chip": "ym2612"
    },
    {
      "channel": 5,
      "note": 83,
      "start": 85.8498,
      "duration": 0.0542,
      "velocity": 127,
      "chip": "ym2612"
    },
    {
      "channel": 1,
      "note": 66,
      "start": 85.9318,
      "duration": 0.1372,
      "velocity": 106,
      "chip": "ym2612"
    },
    {
      "channel": 3,
      "note": 63,
      "start": 85.9341,
      "duration": 0.0524,
      "velocity": 107,
      "chip": "ym2612"
    },
    {
      "channel": 4,
      "note": 63,
      "start": 85.9357,
      "duration": 0.1343,
      "velocity": 106,
      "chip": "ym2612"
    },
    {
      "channel": 5,
      "note": 83,
      "start": 85.9405,
      "duration": 0.1297,
      "velocity": 127,
      "chip": "ym2612"
    },
    {
      "channel": 3,
      "note": 63,
      "start": 86.0157,
      "duration": 0.0541,
      "velocity": 107,
      "chip": "ym2612"
    },
    {
      "channel": 0,
      "note": 80,
      "start": 86.0981,
      "duration": 0.4829,
      "velocity": 101,
      "chip": "ym2612"
    },
    {
      "channel": 1,
      "note": 68,
      "start": 86.0998,
      "duration": 0.4814,
      "velocity": 106,
      "chip": "ym2612"
    },
    {
      "channel": 2,
      "note": 61,
      "start": 86.1052,
      "duration": 0.0197,
      "velocity": 127,
      "chip": "ym2612"
    },
    {
      "channel": 3,
      "note": 51,
      "start": 86.107,
      "duration": 0.1426,
      "velocity": 107,
      "chip": "ym2612"
    },
    {
      "channel": 4,
      "note": 65,
      "start": 86.1085,
      "duration": 0.4736,
      "velocity": 106,
      "chip": "ym2612"
    },
    {
      "channel": 5,
      "note": 83,
      "start": 86.1139,
      "duration": 0.0534,
      "velocity": 127,
      "chip": "ym2612"
    },
    {
      "channel": 5,
      "note": 83,
      "start": 86.196,
      "duration": 0.0539,
      "velocity": 127,
      "chip": "ym2612"
    },
    {
      "channel": 3,
      "note": 63,
      "start": 86.2786,
      "duration": 0.054,
      "velocity": 107,
      "chip": "ym2612"
    },
    {
      "channel": 5,
      "note": 83,
      "start": 86.2805,
      "duration": 0.0524,
      "velocity": 127,
      "chip": "ym2612"
    },
    {
      "channel": 3,
      "note": 63,
      "start": 86.3617,
      "duration": 0.054,
      "velocity": 107,
      "chip": "ym2612"
    },
    {
      "channel": 5,
      "note": 83,
      "start": 86.3636,
      "duration": 0.0524,
      "velocity": 127,
      "chip": "ym2612"
    },
    {
      "channel": 2,
      "note": 73,
      "start": 86.4477,
      "duration": 0.0094,
      "velocity": 127,
      "chip": "ym2612"
    },
    {
      "channel": 3,
      "note": 51,
      "start": 86.4496,
      "duration": 0.1324,
      "velocity": 107,
      "chip": "ym2612"
    },
    {
      "channel": 5,
      "note": 83,
      "start": 86.4549,
      "duration": 0.044,
      "velocity": 127,
      "chip": "ym2612"
    },
    {
      "channel": 5,
      "note": 83,
      "start": 86.5281,
      "duration": 0.0542,
      "velocity": 127,
      "chip": "ym2612"
    },
    {
      "channel": 0,
      "note": 82,
      "start": 86.611,
      "duration": 0.4822,
      "velocity": 101,
      "chip": "ym2612"
    },
    {
      "channel": 1,
      "note": 66,
      "start": 86.6126,
      "duration": 0.827,
      "velocity": 106,
      "chip": "ym2612"
    },
    {
      "channel": 3,
      "note": 63,
      "start": 86.6148,
      "duration": 0.0501,
      "velocity": 107,
      "chip": "ym2612"
    },
    {
      "channel": 4,
      "note": 63,
      "start": 86.6164,
      "duration": 0.8241,
      "velocity": 106,
      "chip": "ym2612"
    },
    {
      "channel": 5,
      "note": 83,
      "start": 86.6182,
      "duration": 0.0469,
      "velocity": 127,
      "chip": "ym2612"
    },
    {
      "channel": 3,
      "note": 63,
      "start": 86.6939,
      "duration": 0.054,
      "velocity": 107,
      "chip": "ym2612"
    },
    {
      "channel": 5,
      "note": 83,
      "start": 86.6958,
      "duration": 0.0524,
      "velocity": 127,
      "chip": "ym2612"
    },
    {
      "channel": 2,
      "note": 61,
      "start": 86.7815,
      "duration": 0.0218,
      "velocity": 127,
      "chip": "ym2612"
    },
    {
      "channel": 3,
      "note": 51,
      "start": 86.7832,
      "duration": 0.1446,
      "velocity": 107,
      "chip": "ym2612"
    },
    {
      "channel": 5,
      "note": 83,
      "start": 86.79,
      "duration": 0.0551,
      "velocity": 127,
      "chip": "ym2612"
    },
    {
      "channel": 2,
      "note": 61,
      "start": 86.8738,
      "duration": 0.0124,
      "velocity": 127,
      "chip": "ym2612"
    },
    {
      "channel": 5,
      "note": 83,
      "start": 86.8759,
      "duration": 0.0524,
      "velocity": 127,
      "chip": "ym2612"
    },
    {
      "channel": 2,
      "note": 61,
      "start": 86.9568,
      "duration": 0.0126,
      "velocity": 127,
      "chip": "ym2612"
    },
    {
      "channel": 3,
      "note": 63,
      "start": 86.9585,
      "duration": 0.0524,
      "velocity": 107,
      "chip": "ym2612"
    },
    {
      "channel": 5,
      "note": 83,
      "start": 86.9603,
      "duration": 0.0509,
      "velocity": 127,
      "chip": "ym2612"
    },
    {
      "channel": 3,
      "note": 63,
      "start": 87.04,
      "duration": 0.0541,
      "velocity": 107,
      "chip": "ym2612"
    },
    {
      "channel": 5,
      "note": 83,
      "start": 87.0419,
      "duration": 0.0525,
      "velocity": 127,
      "chip": "ym2612"
    },
    {
      "channel": 0,
      "note": 83,
      "start": 87.1224,
      "duration": 0.317,
      "velocity": 101,
      "chip": "ym2612"
    },
    {
      "channel": 2,
      "note": 71,
      "start": 87.1278,
      "duration": 0.0216,
      "velocity": 127,
      "chip": "ym2612"
    },
    {
      "channel": 3,
      "note": 51,
      "start": 87.1295,
      "duration": 0.1445,
      "velocity": 107,
      "chip": "ym2612"
    },
    {
      "channel": 5,
      "note": 83,
      "start": 87.1349,
      "duration": 0.0562,
      "velocity": 127,
      "chip": "ym2612"
    },
    {
      "channel": 5,
      "note": 83,
      "start": 87.2205,
      "duration": 0.0539,
      "velocity": 127,
      "chip": "ym2612"
    },
    {
      "channel": 3,
      "note": 63,
      "start": 87.3031,
      "duration": 0.0539,
      "velocity": 107,
      "chip": "ym2612"
    },
    {
      "channel": 5,
      "note": 83,
      "start": 87.3049,
      "duration": 0.0524,
      "velocity": 127,
      "chip": "ym2612"
    },
    {
      "channel": 3,
      "note": 63,
      "start": 87.3862,
      "duration": 0.0541,
      "velocity": 107,
      "chip": "ym2612"
    },
    {
      "channel": 5,
      "note": 83,
      "start": 87.388,
      "duration": 0.0527,
      "velocity": 127,
      "chip": "ym2612"
    },
    {
      "channel": 0,
      "note": 80,
      "start": 87.4687,
      "duration": 0.649,
      "velocity": 101,
      "chip": "ym2612"
    },
    {
      "channel": 1,
      "note": 65,
      "start": 87.4703,
      "duration": 0.4819,
      "velocity": 106,
      "chip": "ym2612"
    },
    {
      "channel": 2,
      "note": 61,
      "start": 87.4756,
      "duration": 0.0198,
      "velocity": 127,
      "chip": "ym2612"
    },
    {
      "channel": 3,
      "note": 51,
      "start": 87.4774,
      "duration": 0.1427,
      "velocity": 107,
      "chip": "ym2612"
    },
    {
      "channel": 4,
      "note": 61,
      "start": 87.479,
      "duration": 0.4741,
      "velocity": 106,
      "chip": "ym2612"
    },
    {
      "channel": 5,
      "note": 83,
      "start": 87.4843,
      "duration": 0.0529,
      "velocity": 127,
      "chip": "ym2612"
    },
    {
      "channel": 5,
      "note": 83,
      "start": 87.5666,
      "duration": 0.0538,
      "velocity": 127,
      "chip": "ym2612"
    },
    {
      "channel": 3,
      "note": 63,
      "start": 87.6492,
      "duration": 0.0539,
      "velocity": 107,
      "chip": "ym2612"
    },
    {
      "channel": 5,
      "note": 83,
      "start": 87.6511,
      "duration": 0.0523,
      "velocity": 127,
      "chip": "ym2612"
    },
    {
      "channel": 3,
      "note": 63,
      "start": 87.7327,
      "duration": 0.0535,
      "velocity": 107,
      "chip": "ym2612"
    },
    {
      "channel": 5,
      "note": 83,
      "start": 87.7346,
      "duration": 0.0519,
      "velocity": 127,
      "chip": "ym2612"
    },
    {
      "channel": 2,
      "note": 73,
      "start": 87.8183,
      "duration": 0.0094,
      "velocity": 127,
      "chip": "ym2612"
    },
    {
      "channel": 3,
      "note": 51,
      "start": 87.8201,
      "duration": 0.1328,
      "velocity": 107,
      "chip": "ym2612"
    },
    {
      "channel": 5,
      "note": 83,
      "start": 87.8254,
      "duration": 0.044,
      "velocity": 127,
      "chip": "ym2612"
    },
    {
      "channel": 5,
      "note": 83,
      "start": 87.8988,
      "duration": 0.0546,
      "velocity": 127,
      "chip": "ym2612"
    },
    {
      "channel": 1,
      "note": 63,
      "start": 87.9807,
      "duration": 0.8155,
      "velocity": 106,
      "chip": "ym2612"
    },
    {
      "channel": 3,
      "note": 63,
      "start": 87.983,
      "duration": 0.0523,
      "velocity": 107,
      "chip": "ym2612"
    },
    {
      "channel": 4,
      "note": 59,
      "start": 87.9846,
      "duration": 0.8125,
      "velocity": 106,
      "chip": "ym2612"
    },
    {
      "channel": 5,
      "note": 83,
      "start": 87.9864,
      "duration": 0.0492,
      "velocity": 127,
      "chip": "ym2612"
    },
    {
      "channel": 3,
      "note": 63,
      "start": 88.0644,
      "duration": 0.0541,
      "velocity": 107,
      "chip": "ym2612"
    },
    {
      "channel": 5,
      "note": 83,
      "start": 88.0664,
      "duration": 0.0524,
      "velocity": 127,
      "chip": "ym2612"
    },
    {
      "channel": 0,
      "note": 78,
      "start": 88.1468,
      "duration": 0.6492,
      "velocity": 101,
      "chip": "ym2612"
    },
    {
      "channel": 2,
      "note": 78,
      "start": 88.1505,
      "duration": 0.024,
      "velocity": 127,
      "chip": "ym2612"
    },
    {
      "channel": 3,
      "note": 51,
      "start": 88.1523,
      "duration": 0.1462,
      "velocity": 107,
      "chip": "ym2612"
    },
    {
      "channel": 5,
      "note": 83,
      "start": 88.1589,
      "duration": 0.0566,
      "velocity": 127,
      "chip": "ym2612"
    },
    {
      "channel": 5,
      "note": 83,
      "start": 88.2448,
      "duration": 0.054,
      "velocity": 127,
      "chip": "ym2612"
    },
    {
      "channel": 2,
      "note": 78,
      "start": 88.3274,
      "duration": 0.0126,
      "velocity": 127,
      "chip": "ym2612"
    },
    {
      "channel": 3,
      "note": 63,
      "start": 88.329,
      "duration": 0.0525,
      "velocity": 107,
      "chip": "ym2612"
    },
    {
      "channel": 5,
      "note": 83,
      "start": 88.3339,
      "duration": 0.1309,
      "velocity": 127,
      "chip": "ym2612"
    },
    {
      "channel": 3,
      "note": 63,
      "start": 88.4106,
      "duration": 0.054,
      "velocity": 107,
      "chip": "ym2612"
    },
    {
      "channel": 2,
      "note": 78,
      "start": 88.4937,
      "duration": 0.0123,
      "velocity": 127,
      "chip": "ym2612"
    },
    {
      "channel": 3,
      "note": 51,
      "start": 88.4954,
      "duration": 0.1353,
      "velocity": 107,
      "chip": "ym2612"
    },
    {
      "channel": 5,
      "note": 83,
      "start": 88.5005,
      "duration": 0.0473,
      "velocity": 127,
      "chip": "ym2612"
    },
    {
      "channel": 2,
      "note": 78,
      "start": 88.5768,
      "duration": 0.0123,
      "velocity": 127,
      "chip": "ym2612"
    },
    {
      "channel": 5,
      "note": 83,
      "start": 88.5786,
      "duration": 0.0524,
      "velocity": 127,
      "chip": "ym2612"
    },
    {
      "channel": 2,
      "note": 78,
      "start": 88.6598,
      "duration": 0.0124,
      "velocity": 127,
      "chip": "ym2612"
    },
    {
      "channel": 3,
      "note": 63,
      "start": 88.6614,
      "duration": 0.0523,
      "velocity": 107,
      "chip": "ym2612"
    },
    {
      "channel": 5,
      "note": 83,
      "start": 88.6664,
      "duration": 0.131,
      "velocity": 127,
      "chip": "ym2612"
    },
    {
      "channel": 2,
      "note": 78,
      "start": 88.7428,
      "duration": 0.0124,
      "velocity": 127,
      "chip": "ym2612"
    },
    {
      "channel": 3,
      "note": 63,
      "start": 88.7444,
      "duration": 0.0525,
      "velocity": 107,
      "chip": "ym2612"
    },
    {
      "channel": 0,
      "note": 75,
      "start": 88.8256,
      "duration": 0.4965,
      "velocity": 101,
      "chip": "ym2612"
    },
    {
      "channel": 1,
      "note": 63,
      "start": 88.8306,
      "duration": 0.1594,
      "velocity": 94,
      "chip": "ym2612"
    },
    {
      "channel": 2,
      "note": 61,
      "start": 88.8364,
      "duration": 0.0296,
      "velocity": 127,
      "chip": "ym2612"
    },
    {
      "channel": 3,
      "note": 51,
      "start": 88.8386,
      "duration": 0.1521,
      "velocity": 107,
      "chip": "ym2612"
    },
    {
      "channel": 4,
      "note": 59,
      "start": 88.8437,
      "duration": 0.1473,
      "velocity": 94,
      "chip": "ym2612"
    },
    {
      "channel": 5,
      "note": 83,
      "start": 88.8495,
      "duration": 0.0583,
      "velocity": 127,
      "chip": "ym2612"
    },
    {
      "channel": 5,
      "note": 83,
      "start": 88.9371,
      "duration": 0.0541,
      "velocity": 127,
      "chip": "ym2612"
    },
    {
      "channel": 1,
      "note": 61,
      "start": 89.019,
      "duration": 0.3032,
      "velocity": 94,
      "chip": "ym2612"
    },
    {
      "channel": 3,
      "note": 63,
      "start": 89.0212,
      "duration": 0.0527,
      "velocity": 107,
      "chip": "ym2612"
    },
    {
      "channel": 4,
      "note": 58,
      "start": 89.0229,
      "duration": 0.3004,
      "velocity": 94,
      "chip": "ym2612"
    },
    {
      "channel": 5,
      "note": 83,
      "start": 89.0246,
      "duration": 0.0495,
      "velocity": 127,
      "chip": "ym2612"
    },
    {
      "channel": 3,
      "note": 63,
      "start": 89.1028,
      "duration": 0.054,
      "velocity": 107,
      "chip": "ym2612"
    },
    {
      "channel": 5,
      "note": 83,
      "start": 89.1047,
      "duration": 0.0524,
      "velocity": 127,
      "chip": "ym2612"
    },
    {
      "channel": 2,
      "note": 71,
      "start": 89.1889,
      "duration": 0.0094,
      "velocity": 127,
      "chip": "ym2612"
    },
    {
      "channel": 3,
      "note": 51,
      "start": 89.1907,
      "duration": 0.1324,
      "velocity": 107,
      "chip": "ym2612"
    },
    {
      "channel": 5,
      "note": 83,
      "start": 89.196,
      "duration": 0.044,
      "velocity": 127,
      "chip": "ym2612"
    },
    {
      "channel": 5,
      "note": 83,
      "start": 89.2693,
      "duration": 0.0542,
      "velocity": 127,
      "chip": "ym2612"
    },
    {
      "channel": 0,
      "note": 77,
      "start": 89.3513,
      "duration": 0.8153,
      "velocity": 101,
      "chip": "ym2612"
    },
    {
      "channel": 1,
      "note": 63,
      "start": 89.3529,
      "duration": 0.1354,
      "velocity": 94,
      "chip": "ym2612"
    },
    {
      "channel": 3,
      "note": 63,
      "start": 89.3551,
      "duration": 0.0508,
      "velocity": 107,
      "chip": "ym2612"
    },
    {
      "channel": 4,
      "note": 59,
      "start": 89.3568,
      "duration": 0.1326,
      "velocity": 94,
      "chip": "ym2612"
    },
    {
      "channel": 5,
      "note": 83,
      "start": 89.3585,
      "duration": 0.0476,
      "velocity": 127,
      "chip": "ym2612"
    },
    {
      "channel": 3,
      "note": 63,
      "start": 89.4351,
      "duration": 0.054,
      "velocity": 107,
      "chip": "ym2612"
    },
    {
      "channel": 5,
      "note": 83,
      "start": 89.4369,
      "duration": 0.0526,
      "velocity": 127,
      "chip": "ym2612"
    },
    {
      "channel": 1,
      "note": 65,
      "start": 89.5193,
      "duration": 0.6475,
      "velocity": 94,
      "chip": "ym2612"
    },
    {
      "channel": 2,
      "note": 61,
      "start": 89.5245,
      "duration": 0.0199,
      "velocity": 127,
      "chip": "ym2612"
    },
    {
      "channel": 3,
      "note": 51,
      "start": 89.5263,
      "duration": 0.1427,
      "velocity": 107,
      "chip": "ym2612"
    },
    {
      "channel": 4,
      "note": 61,
      "start": 89.528,
      "duration": 0.6398,
      "velocity": 94,
      "chip": "ym2612"
    },
    {
      "channel": 5,
      "note": 83,
      "start": 89.5332,
      "duration": 0.0529,
      "velocity": 127,
      "chip": "ym2612"
    },
    {
      "channel": 2,
      "note": 61,
      "start": 89.615,
      "duration": 0.0124,
      "velocity": 127,
      "chip": "ym2612"
    },
    {
      "channel": 5,
      "note": 83,
      "start": 89.617,
      "duration": 0.0523,
      "velocity": 127,
      "chip": "ym2612"
    },
    {
      "channel": 2,
      "note": 61,
      "start": 89.6979,
      "duration": 0.0125,
      "velocity": 127,
      "chip": "ym2612"
    },
    {
      "channel": 3,
      "note": 63,
      "start": 89.6997,
      "duration": 0.0523,
      "velocity": 107,
      "chip": "ym2612"
    },
    {
      "channel": 5,
      "note": 83,
      "start": 89.7015,
      "duration": 0.0508,
      "velocity": 127,
      "chip": "ym2612"
    },
    {
      "channel": 3,
      "note": 63,
      "start": 89.7811,
      "duration": 0.054,
      "velocity": 107,
      "chip": "ym2612"
    },
    {
      "channel": 5,
      "note": 83,
      "start": 89.783,
      "duration": 0.0523,
      "velocity": 127,
      "chip": "ym2612"
    },
    {
      "channel": 2,
      "note": 71,
      "start": 89.8673,
      "duration": 0.0093,
      "velocity": 127,
      "chip": "ym2612"
    },
    {
      "channel": 3,
      "note": 51,
      "start": 89.869,
      "duration": 0.1321,
      "velocity": 107,
      "chip": "ym2612"
    },
    {
      "channel": 5,
      "note": 83,
      "start": 89.8743,
      "duration": 0.044,
      "velocity": 127,
      "chip": "ym2612"
    },
    {
      "channel": 5,
      "note": 83,
      "start": 89.9476,
      "duration": 0.0539,
      "velocity": 127,
      "chip": "ym2612"
    },
    {
      "channel": 3,
      "note": 63,
      "start": 90.0303,
      "duration": 0.0539,
      "velocity": 107,
      "chip": "ym2612"
    },
    {
      "channel": 5,
      "note": 83,
      "start": 90.0322,
      "duration": 0.0524,
      "velocity": 127,
      "chip": "ym2612"
    },
    {
      "channel": 3,
      "note": 63,
      "start": 90.1133,
      "duration": 0.0541,
      "velocity": 107,
      "chip": "ym2612"
    },
    {
      "channel": 5,
      "note": 83,
      "start": 90.1153,
      "duration": 0.0526,
      "velocity": 127,
      "chip": "ym2612"
    },
    {
      "channel": 0,
      "note": 82,
      "start": 90.1958,
      "duration": 0.483,
      "velocity": 101,
      "chip": "ym2612"
    },
    {
      "channel": 1,
      "note": 66,
      "start": 90.1974,
      "duration": 0.1493,
      "velocity": 94,
      "chip": "ym2612"
    },
    {
      "channel": 2,
      "note": 61,
      "start": 90.2028,
      "duration": 0.0199,
      "velocity": 127,
      "chip": "ym2612"
    },
    {
      "channel": 3,
      "note": 51,
      "start": 90.2046,
      "duration": 0.143,
      "velocity": 107,
      "chip": "ym2612"
    },
    {
      "channel": 4,
      "note": 63,
      "start": 90.2062,
      "duration": 0.1415,
      "velocity": 94,
      "chip": "ym2612"
    },
    {
      "channel": 5,
      "note": 83,
      "start": 90.2114,
      "duration": 0.053,
      "velocity": 127,
      "chip": "ym2612"
    },
    {
      "channel": 5,
      "note": 83,
      "start": 90.2937,
      "duration": 0.0542,
      "velocity": 127,
      "chip": "ym2612"
    },
    {
      "channel": 1,
      "note": 68,
      "start": 90.3757,
      "duration": 0.3032,
      "velocity": 94,
      "chip": "ym2612"
    },
    {
      "channel": 3,
      "note": 63,
      "start": 90.3779,
      "duration": 0.0525,
      "velocity": 107,
      "chip": "ym2612"
    },
    {
      "channel": 4,
      "note": 65,
      "start": 90.3795,
      "duration": 0.3004,
      "velocity": 94,
      "chip": "ym2612"
    },
    {
      "channel": 5,
      "note": 83,
      "start": 90.3813,
      "duration": 0.0493,
      "velocity": 127,
      "chip": "ym2612"
    },
    {
      "channel": 3,
      "note": 63,
      "start": 90.4595,
      "duration": 0.054,
      "velocity": 107,
      "chip": "ym2612"
    },
    {
      "channel": 5,
      "note": 83,
      "start": 90.4614,
      "duration": 0.0524,
      "velocity": 127,
      "chip": "ym2612"
    },
    {
      "channel": 2,
      "note": 71,
      "start": 90.5456,
      "duration": 0.0093,
      "velocity": 127,
      "chip": "ym2612"
    },
    {
      "channel": 3,
      "note": 51,
      "start": 90.5474,
      "duration": 0.1324,
      "velocity": 107,
      "chip": "ym2612"
    },
    {
      "channel": 5,
      "note": 83,
      "start": 90.5526,
      "duration": 0.0441,
      "velocity": 127,
      "chip": "ym2612"
    },
    {
      "channel": 5,
      "note": 83,
      "start": 90.6268,
      "duration": 0.0534,
      "velocity": 127,
      "chip": "ym2612"
    },
    {
      "channel": 0,
      "note": 80,
      "start": 90.708,
      "duration": 0.483,
      "velocity": 101,
      "chip": "ym2612"
    },
    {
      "channel": 1,
      "note": 70,
      "start": 90.7096,
      "duration": 0.1354,
      "velocity": 94,
      "chip": "ym2612"
    },
    {
      "channel": 3,
      "note": 63,
      "start": 90.7118,
      "duration": 0.0508,
      "velocity": 107,
      "chip": "ym2612"
    },
    {
      "channel": 4,
      "note": 66,
      "start": 90.7134,
      "duration": 0.1326,
      "velocity": 94,
      "chip": "ym2612"
    },
    {
      "channel": 5,
      "note": 83,
      "start": 90.7152,
      "duration": 0.0477,
      "velocity": 127,
      "chip": "ym2612"
    },
    {
      "channel": 3,
      "note": 63,
      "start": 90.7918,
      "duration": 0.0541,
      "velocity": 107,
      "chip": "ym2612"
    },
    {
      "channel": 5,
      "note": 83,
      "start": 90.7936,
      "duration": 0.0526,
      "velocity": 127,
      "chip": "ym2612"
    },
    {
      "channel": 1,
      "note": 68,
      "start": 90.8741,
      "duration": 0.1509,
      "velocity": 94,
      "chip": "ym2612"
    },
    {
      "channel": 2,
      "note": 61,
      "start": 90.8794,
      "duration": 0.0217,
      "velocity": 127,
      "chip": "ym2612"
    },
    {
      "channel": 3,
      "note": 51,
      "start": 90.8811,
      "duration": 0.1447,
      "velocity": 107,
      "chip": "ym2612"
    },
    {
      "channel": 4,
      "note": 65,
      "start": 90.8827,
      "duration": 0.1433,
      "velocity": 94,
      "chip": "ym2612"
    },
    {
      "channel": 5,
      "note": 83,
      "start": 90.8879,
      "duration": 0.0549,
      "velocity": 127,
      "chip": "ym2612"
    },
    {
      "channel": 2,
      "note": 61,
      "start": 90.9717,
      "duration": 0.0125,
      "velocity": 127,
      "chip": "ym2612"
    },
    {
      "channel": 5,
      "note": 83,
      "start": 90.9734,
      "duration": 0.0527,
      "velocity": 127,
      "chip": "ym2612"
    },
    {
      "channel": 1,
      "note": 66,
      "start": 91.0541,
      "duration": 0.3171,
      "velocity": 94,
      "chip": "ym2612"
    },
    {
      "channel": 2,
      "note": 61,
      "start": 91.0562,
      "duration": 0.011,
      "velocity": 127,
      "chip": "ym2612"
    },
    {
      "channel": 3,
      "note": 63,
      "start": 91.0578,
      "duration": 0.0509,
      "velocity": 107,
      "chip": "ym2612"
    },
    {
      "channel": 4,
      "note": 63,
      "start": 91.0595,
      "duration": 0.3127,
      "velocity": 94,
      "chip": "ym2612"
    },
    {
      "channel": 5,
      "note": 83,
      "start": 91.0642,
      "duration": 0.1279,
      "velocity": 127,
      "chip": "ym2612"
    },
    {
      "channel": 3,
      "note": 63,
      "start": 91.1378,
      "duration": 0.0541,
      "velocity": 107,
      "chip": "ym2612"
    },
    {
      "channel": 0,
      "note": 77,
      "start": 91.2202,
      "duration": 0.317,
      "velocity": 101,
      "chip": "ym2612"
    },
    {
      "channel": 2,
      "note": 71,
      "start": 91.2255,
      "duration": 0.0216,
      "velocity": 127,
      "chip": "ym2612"
    },
    {
      "channel": 3,
      "note": 51,
      "start": 91.2273,
      "duration": 0.1446,
      "velocity": 107,
      "chip": "ym2612"
    },
    {
      "channel": 5,
      "note": 83,
      "start": 91.2323,
      "duration": 0.0566,
      "velocity": 127,
      "chip": "ym2612"
    },
    {
      "channel": 5,
      "note": 83,
      "start": 91.3181,
      "duration": 0.0543,
      "velocity": 127,
      "chip": "ym2612"
    },
    {
      "channel": 1,
      "note": 65,
      "start": 91.4003,
      "duration": 0.1371,
      "velocity": 94,
      "chip": "ym2612"
    },
    {
      "channel": 3,
      "note": 63,
      "start": 91.4024,
      "duration": 0.0524,
      "velocity": 107,
      "chip": "ym2612"
    },
    {
      "channel": 4,
      "note": 61,
      "start": 91.4041,
      "duration": 0.1342,
      "velocity": 94,
      "chip": "ym2612"
    },
    {
      "channel": 5,
      "note": 83,
      "start": 91.4088,
      "duration": 0.1297,
      "velocity": 127,
      "chip": "ym2612"
    },
    {
      "channel": 3,
      "note": 63,
      "start": 91.484,
      "duration": 0.0541,
      "velocity": 107,
      "chip": "ym2612"
    },
    {
      "channel": 0,
      "note": 78,
      "start": 91.5664,
      "duration": 0.483,
      "velocity": 101,
      "chip": "ym2612"
    },
    {
      "channel": 1,
      "note": 63,
      "start": 91.568,
      "duration": 0.1493,
      "velocity": 94,
      "chip": "ym2612"
    },
    {
      "channel": 2,
      "note": 61,
      "start": 91.5733,
      "duration": 0.02,
      "velocity": 127,
      "chip": "ym2612"
    },
    {
      "channel": 3,
      "note": 51,
      "start": 91.5751,
      "duration": 0.1429,
      "velocity": 107,
      "chip": "ym2612"
    },
    {
      "channel": 4,
      "note": 59,
      "start": 91.5767,
      "duration": 0.1415,
      "velocity": 94,
      "chip": "ym2612"
    },
    {
      "channel": 5,
      "note": 83,
      "start": 91.582,
      "duration": 0.053,
      "velocity": 127,
      "chip": "ym2612"
    },
    {
      "channel": 5,
      "note": 83,
      "start": 91.6643,
      "duration": 0.0541,
      "velocity": 127,
      "chip": "ym2612"
    },
    {
      "channel": 1,
      "note": 61,
      "start": 91.7468,
      "duration": 0.3027,
      "velocity": 94,
      "chip": "ym2612"
    },
    {
      "channel": 3,
      "note": 63,
      "start": 91.749,
      "duration": 0.0519,
      "velocity": 107,
      "chip": "ym2612"
    },
    {
      "channel": 4,
      "note": 58,
      "start": 91.7507,
      "duration": 0.2998,
      "velocity": 94,
      "chip": "ym2612"
    },
    {
      "channel": 5,
      "note": 83,
      "start": 91.7525,
      "duration": 0.0487,
      "velocity": 127,
      "chip": "ym2612"
    },
    {
      "channel": 3,
      "note": 63,
      "start": 91.8301,
      "duration": 0.0539,
      "velocity": 107,
      "chip": "ym2612"
    },
    {
      "channel": 5,
      "note": 83,
      "start": 91.832,
      "duration": 0.0523,
      "velocity": 127,
      "chip": "ym2612"
    },
    {
      "channel": 2,
      "note": 71,
      "start": 91.9162,
      "duration": 0.0093,
      "velocity": 127,
      "chip": "ym2612"
    },
    {
      "channel": 3,
      "note": 51,
      "start": 91.9179,
      "duration": 0.1324,
      "velocity": 107,
      "chip": "ym2612"
    },
    {
      "channel": 5,
      "note": 83,
      "start": 91.9232,
      "duration": 0.0451,
      "velocity": 127,
      "chip": "ym2612"
    },
    {
      "channel": 5,
      "note": 83,
      "start": 91.9965,
      "duration": 0.0543,
      "velocity": 127,
      "chip": "ym2612"
    },
    {
      "channel": 0,
      "note": 77,
      "start": 92.0785,
      "duration": 0.8153,
      "velocity": 101,
      "chip": "ym2612"
    },
    {
      "channel": 1,
      "note": 63,
      "start": 92.0802,
      "duration": 0.1354,
      "velocity": 94,
      "chip": "ym2612"
    },
    {
      "channel": 3,
      "note": 63,
      "start": 92.0823,
      "duration": 0.0509,
      "velocity": 107,
      "chip": "ym2612"
    },
    {
      "channel": 4,
      "note": 59,
      "start": 92.0841,
      "duration": 0.1326,
      "velocity": 94,
      "chip": "ym2612"
    },
    {
      "channel": 5,
      "note": 83,
      "start": 92.0859,
      "duration": 0.0477,
      "velocity": 127,
      "chip": "ym2612"
    },
    {
      "channel": 3,
      "note": 63,
      "start": 92.1623,
      "duration": 0.0541,
      "velocity": 107,
      "chip": "ym2612"
    },
    {
      "channel": 5,
      "note": 83,
      "start": 92.1641,
      "duration": 0.0527,
      "velocity": 127,
      "chip": "ym2612"
    },
    {
      "channel": 1,
      "note": 65,
      "start": 92.2461,
      "duration": 0.6479,
      "velocity": 94,
      "chip": "ym2612"
    },
    {
      "channel": 2,
      "note": 61,
      "start": 92.2514,
      "duration": 0.0202,
      "velocity": 127,
      "chip": "ym2612"
    },
    {
      "channel": 3,
      "note": 51,
      "start": 92.2532,
      "duration": 0.1431,
      "velocity": 107,
      "chip": "ym2612"
    },
    {
      "channel": 4,
      "note": 61,
      "start": 92.2548,
      "duration": 0.6402,
      "velocity": 94,
      "chip": "ym2612"
    },
    {
      "channel": 5,
      "note": 83,
      "start": 92.26,
      "duration": 0.0533,
      "velocity": 127,
      "chip": "ym2612"
    },
    {
      "channel": 2,
      "note": 61,
      "start": 92.3422,
      "duration": 0.0125,
      "velocity": 127,
      "chip": "ym2612"
    },
    {
      "channel": 5,
      "note": 83,
      "start": 92.3442,
      "duration": 0.0524,
      "velocity": 127,
      "chip": "ym2612"
    },
    {
      "channel": 2,
      "note": 61,
      "start": 92.4252,
      "duration": 0.0125,
      "velocity": 127,
      "chip": "ym2612"
    },
    {
      "channel": 3,
      "note": 63,
      "start": 92.4269,
      "duration": 0.0524,
      "velocity": 107,
      "chip": "ym2612"
    },
    {
      "channel": 5,
      "note": 83,
      "start": 92.4287,
      "duration": 0.0508,
      "velocity": 127,
      "chip": "ym2612"
    },
    {
      "channel": 3,
      "note": 63,
      "start": 92.5084,
      "duration": 0.0539,
      "velocity": 107,
      "chip": "ym2612"
    },
    {
      "channel": 5,
      "note": 83,
      "start": 92.5102,
      "duration": 0.0524,
      "velocity": 127,
      "chip": "ym2612"
    },
    {
      "channel": 2,
      "note": 71,
      "start": 92.5945,
      "duration": 0.0094,
      "velocity": 127,
      "chip": "ym2612"
    },
    {
      "channel": 3,
      "note": 51,
      "start": 92.5962,
      "duration": 0.1322,
      "velocity": 107,
      "chip": "ym2612"
    },
    {
      "channel": 5,
      "note": 83,
      "start": 92.6016,
      "duration": 0.0441,
      "velocity": 127,
      "chip": "ym2612"
    },
    {
      "channel": 5,
      "note": 83,
      "start": 92.6748,
      "duration": 0.0539,
      "velocity": 127,
      "chip": "ym2612"
    },
    {
      "channel": 3,
      "note": 63,
      "start": 92.7575,
      "duration": 0.0539,
      "velocity": 107,
      "chip": "ym2612"
    },
    {
      "channel": 5,
      "note": 83,
      "start": 92.7595,
      "duration": 0.0523,
      "velocity": 127,
      "chip": "ym2612"
    },
    {
      "channel": 3,
      "note": 63,
      "start": 92.8405,
      "duration": 0.0542,
      "velocity": 107,
      "chip": "ym2612"
    },
    {
      "channel": 5,
      "note": 83,
      "start": 92.8425,
      "duration": 0.0527,
      "velocity": 127,
      "chip": "ym2612"
    },
    {
      "channel": 0,
      "note": 78,
      "start": 92.9231,
      "duration": 0.483,
      "velocity": 101,
      "chip": "ym2612"
    },
    {
      "channel": 1,
      "note": 66,
      "start": 92.9246,
      "duration": 0.6477,
      "velocity": 94,
      "chip": "ym2612"
    },
    {
      "channel": 2,
      "note": 61,
      "start": 92.93,
      "duration": 0.02,
      "velocity": 127,
      "chip": "ym2612"
    },
    {
      "channel": 3,
      "note": 51,
      "start": 92.9318,
      "duration": 0.1427,
      "velocity": 107,
      "chip": "ym2612"
    },
    {
      "channel": 4,
      "note": 63,
      "start": 92.9335,
      "duration": 0.6398,
      "velocity": 94,
      "chip": "ym2612"
    },
    {
      "channel": 5,
      "note": 83,
      "start": 92.9387,
      "duration": 0.053,
      "velocity": 127,
      "chip": "ym2612"
    },
    {
      "channel": 5,
      "note": 83,
      "start": 93.021,
      "duration": 0.0539,
      "velocity": 127,
      "chip": "ym2612"
    },
    {
      "channel": 3,
      "note": 63,
      "start": 93.1037,
      "duration": 0.0539,
      "velocity": 107,
      "chip": "ym2612"
    },
    {
      "channel": 5,
      "note": 83,
      "start": 93.1055,
      "duration": 0.0524,
      "velocity": 127,
      "chip": "ym2612"
    },
    {
      "channel": 3,
      "note": 63,
      "start": 93.1867,
      "duration": 0.054,
      "velocity": 107,
      "chip": "ym2612"
    },
    {
      "channel": 5,
      "note": 83,
      "start": 93.1886,
      "duration": 0.0524,
      "velocity": 127,
      "chip": "ym2612"
    },
    {
      "channel": 2,
      "note": 71,
      "start": 93.2728,
      "duration": 0.0094,
      "velocity": 127,
      "chip": "ym2612"
    },
    {
      "channel": 3,
      "note": 51,
      "start": 93.2746,
      "duration": 0.1323,
      "velocity": 107,
      "chip": "ym2612"
    },
    {
      "channel": 5,
      "note": 83,
      "start": 93.2799,
      "duration": 0.0441,
      "velocity": 127,
      "chip": "ym2612"
    },
    {
      "channel": 5,
      "note": 83,
      "start": 93.3532,
      "duration": 0.054,
      "velocity": 127,
      "chip": "ym2612"
    },
    {
      "channel": 0,
      "note": 80,
      "start": 93.4352,
      "duration": 0.8153,
      "velocity": 101,
      "chip": "ym2612"
    },
    {
      "channel": 3,
      "note": 63,
      "start": 93.4375,
      "duration": 0.0524,
      "velocity": 107,
      "chip": "ym2612"
    },
    {
      "channel": 5,
      "note": 83,
      "start": 93.4394,
      "duration": 0.0508,
      "velocity": 127,
      "chip": "ym2612"
    },
    {
      "channel": 3,
      "note": 63,
      "start": 93.519,
      "duration": 0.0541,
      "velocity": 107,
      "chip": "ym2612"
    },
    {
      "channel": 5,
      "note": 83,
      "start": 93.5209,
      "duration": 0.0526,
      "velocity": 127,
      "chip": "ym2612"
    },
    {
      "channel": 1,
      "note": 68,
      "start": 93.6028,
      "duration": 0.6479,
      "velocity": 94,
      "chip": "ym2612"
    },
    {
      "channel": 2,
      "note": 61,
      "start": 93.608,
      "duration": 0.0202,
      "velocity": 127,
      "chip": "ym2612"
    },
    {
      "channel": 3,
      "note": 51,
      "start": 93.6098,
      "duration": 0.1438,
      "velocity": 107,
      "chip": "ym2612"
    },
    {
      "channel": 4,
      "note": 65,
      "start": 93.6114,
      "duration": 0.6402,
      "velocity": 94,
      "chip": "ym2612"
    },
    {
      "channel": 5,
      "note": 83,
      "start": 93.6166,
      "duration": 0.0534,
      "velocity": 127,
      "chip": "ym2612"
    },
    {
      "channel": 2,
      "note": 61,
      "start": 93.6989,
      "duration": 0.0125,
      "velocity": 127,
      "chip": "ym2612"
    },
    {
      "channel": 5,
      "note": 83,
      "start": 93.7008,
      "duration": 0.0531,
      "velocity": 127,
      "chip": "ym2612"
    },
    {
      "channel": 2,
      "note": 61,
      "start": 93.7819,
      "duration": 0.0125,
      "velocity": 127,
      "chip": "ym2612"
    },
    {
      "channel": 3,
      "note": 63,
      "start": 93.7836,
      "duration": 0.0524,
      "velocity": 107,
      "chip": "ym2612"
    },
    {
      "channel": 5,
      "note": 83,
      "start": 93.7885,
      "duration": 0.1308,
      "velocity": 127,
      "chip": "ym2612"
    },
    {
      "channel": 3,
      "note": 63,
      "start": 93.865,
      "duration": 0.054,
      "velocity": 107,
      "chip": "ym2612"
    },
    {
      "channel": 2,
      "note": 71,
      "start": 93.9512,
      "duration": 0.0093,
      "velocity": 127,
      "chip": "ym2612"
    },
    {
      "channel": 3,
      "note": 51,
      "start": 93.953,
      "duration": 0.1321,
      "velocity": 107,
      "chip": "ym2612"
    },
    {
      "channel": 5,
      "note": 83,
      "start": 93.958,
      "duration": 0.0443,
      "velocity": 127,
      "chip": "ym2612"
    },
    {
      "channel": 5,
      "note": 83,
      "start": 94.0314,
      "duration": 0.0541,
      "velocity": 127,
      "chip": "ym2612"
    },
    {
      "channel": 3,
      "note": 63,
      "start": 94.1142,
      "duration": 0.054,
      "velocity": 107,
      "chip": "ym2612"
    },
    {
      "channel": 5,
      "note": 83,
      "start": 94.1192,
      "duration": 0.1327,
      "velocity": 127,
      "chip": "ym2612"
    },
    {
      "channel": 3,
      "note": 63,
      "start": 94.198,
      "duration": 0.0534,
      "velocity": 107,
      "chip": "ym2612"
    },
    {
      "channel": 0,
      "note": 75,
      "start": 94.28,
      "duration": 0.4827,
      "velocity": 101,
      "chip": "ym2612"
    },
    {
      "channel": 1,
      "note": 63,
      "start": 94.282,
      "duration": 0.1487,
      "velocity": 94,
      "chip": "ym2612"
    },
    {
      "channel": 2,
      "note": 61,
      "start": 94.2878,
      "duration": 0.0188,
      "velocity": 127,
      "chip": "ym2612"
    },
    {
      "channel": 3,
      "note": 51,
      "start": 94.29,
      "duration": 0.1414,
      "velocity": 107,
      "chip": "ym2612"
    },
    {
      "channel": 4,
      "note": 59,
      "start": 94.292,
      "duration": 0.1397,
      "velocity": 94,
      "chip": "ym2612"
    },
    {
      "channel": 5,
      "note": 83,
      "start": 94.2977,
      "duration": 0.0507,
      "velocity": 127,
      "chip": "ym2612"
    },
    {
      "channel": 5,
      "note": 83,
      "start": 94.3777,
      "duration": 0.0542,
      "velocity": 127,
      "chip": "ym2612"
    },
    {
      "channel": 1,
      "note": 61,
      "start": 94.4597,
      "duration": 0.3032,
      "velocity": 94,
      "chip": "ym2612"
    },
    {
      "channel": 3,
      "note": 63,
      "start": 94.4619,
      "duration": 0.0525,
      "velocity": 107,
      "chip": "ym2612"
    },
    {
      "channel": 4,
      "note": 58,
      "start": 94.4635,
      "duration": 0.3004,
      "velocity": 94,
      "chip": "ym2612"
    },
    {
      "channel": 5,
      "note": 83,
      "start": 94.4653,
      "duration": 0.0494,
      "velocity": 127,
      "chip": "ym2612"
    },
    {
      "channel": 3,
      "note": 63,
      "start": 94.5434,
      "duration": 0.0541,
      "velocity": 107,
      "chip": "ym2612"
    },
    {
      "channel": 5,
      "note": 83,
      "start": 94.5453,
      "duration": 0.0525,
      "velocity": 127,
      "chip": "ym2612"
    },
    {
      "channel": 2,
      "note": 71,
      "start": 94.6295,
      "duration": 0.0093,
      "velocity": 127,
      "chip": "ym2612"
    },
    {
      "channel": 3,
      "note": 51,
      "start": 94.6313,
      "duration": 0.1324,
      "velocity": 107,
      "chip": "ym2612"
    },
    {
      "channel": 5,
      "note": 83,
      "start": 94.6367,
      "duration": 0.044,
      "velocity": 127,
      "chip": "ym2612"
    },
    {
      "channel": 5,
      "note": 83,
      "start": 94.7099,
      "duration": 0.0542,
      "velocity": 127,
      "chip": "ym2612"
    },
    {
      "channel": 0,
      "note": 77,
      "start": 94.792,
      "duration": 0.8153,
      "velocity": 101,
      "chip": "ym2612"
    },
    {
      "channel": 1,
      "note": 63,
      "start": 94.7936,
      "duration": 0.1354,
      "velocity": 94,
      "chip": "ym2612"
    },
    {
      "channel": 3,
      "note": 63,
      "start": 94.7958,
      "duration": 0.0508,
      "velocity": 107,
      "chip": "ym2612"
    },
    {
      "channel": 4,
      "note": 59,
      "start": 94.7974,
      "duration": 0.1326,
      "velocity": 94,
      "chip": "ym2612"
    },
    {
      "channel": 5,
      "note": 83,
      "start": 94.7993,
      "duration": 0.0477,
      "velocity": 127,
      "chip": "ym2612"
    },
    {
      "channel": 3,
      "note": 63,
      "start": 94.8759,
      "duration": 0.0539,
      "velocity": 107,
      "chip": "ym2612"
    },
    {
      "channel": 5,
      "note": 83,
      "start": 94.8778,
      "duration": 0.0525,
      "velocity": 127,
      "chip": "ym2612"
    },
    {
      "channel": 1,
      "note": 65,
      "start": 94.9595,
      "duration": 0.6479,
      "velocity": 94,
      "chip": "ym2612"
    },
    {
      "channel": 2,
      "note": 61,
      "start": 94.9647,
      "duration": 0.0203,
      "velocity": 127,
      "chip": "ym2612"
    },
    {
      "channel": 3,
      "note": 51,
      "start": 94.9666,
      "duration": 0.1431,
      "velocity": 107,
      "chip": "ym2612"
    },
    {
      "channel": 4,
      "note": 61,
      "start": 94.9682,
      "duration": 0.6401,
      "velocity": 94,
      "chip": "ym2612"
    },
    {
      "channel": 5,
      "note": 83,
      "start": 94.9734,
      "duration": 0.0534,
      "velocity": 127,
      "chip": "ym2612"
    },
    {
      "channel": 2,
      "note": 61,
      "start": 95.0556,
      "duration": 0.0125,
      "velocity": 127,
      "chip": "ym2612"
    },
    {
      "channel": 5,
      "note": 83,
      "start": 95.0576,
      "duration": 0.0524,
      "velocity": 127,
      "chip": "ym2612"
    },
    {
      "channel": 2,
      "note": 61,
      "start": 95.1386,
      "duration": 0.0126,
      "velocity": 127,
      "chip": "ym2612"
    },
    {
      "channel": 3,
      "note": 63,
      "start": 95.1402,
      "duration": 0.0524,
      "velocity": 107,
      "chip": "ym2612"
    },
    {
      "channel": 5,
      "note": 83,
      "start": 95.1421,
      "duration": 0.0509,
      "velocity": 127,
      "chip": "ym2612"
    },
    {
      "channel": 3,
      "note": 63,
      "start": 95.2217,
      "duration": 0.054,
      "velocity": 107,
      "chip": "ym2612"
    },
    {
      "channel": 5,
      "note": 83,
      "start": 95.2236,
      "duration": 0.0524,
      "velocity": 127,
      "chip": "ym2612"
    },
    {
      "channel": 2,
      "note": 71,
      "start": 95.3079,
      "duration": 0.0094,
      "velocity": 127,
      "chip": "ym2612"
    },
    {
      "channel": 3,
      "note": 51,
      "start": 95.3096,
      "duration": 0.1322,
      "velocity": 107,
      "chip": "ym2612"
    },
    {
      "channel": 5,
      "note": 83,
      "start": 95.315,
      "duration": 0.044,
      "velocity": 127,
      "chip": "ym2612"
    },
    {
      "channel": 5,
      "note": 83,
      "start": 95.3883,
      "duration": 0.0539,
      "velocity": 127,
      "chip": "ym2612"
    },
    {
      "channel": 3,
      "note": 63,
      "start": 95.471,
      "duration": 0.0539,
      "velocity": 107,
      "chip": "ym2612"
    },
    {
      "channel": 5,
      "note": 83,
      "start": 95.4729,
      "duration": 0.0524,
      "velocity": 127,
      "chip": "ym2612"
    },
    {
      "channel": 3,
      "note": 63,
      "start": 95.554,
      "duration": 0.0542,
      "velocity": 107,
      "chip": "ym2612"
    },
    {
      "channel": 5,
      "note": 83,
      "start": 95.5559,
      "duration": 0.0527,
      "velocity": 127,
      "chip": "ym2612"
    },
    {
      "channel": 0,
      "note": 82,
      "start": 95.6364,
      "duration": 0.483,
      "velocity": 101,
      "chip": "ym2612"
    },
    {
      "channel": 1,
      "note": 66,
      "start": 95.6381,
      "duration": 0.1493,
      "velocity": 94,
      "chip": "ym2612"
    },
    {
      "channel": 2,
      "note": 61,
      "start": 95.6434,
      "duration": 0.02,
      "velocity": 127,
      "chip": "ym2612"
    },
    {
      "channel": 3,
      "note": 51,
      "start": 95.6452,
      "duration": 0.1429,
      "velocity": 107,
      "chip": "ym2612"
    },
    {
      "channel": 4,
      "note": 63,
      "start": 95.6468,
      "duration": 0.1415,
      "velocity": 94,
      "chip": "ym2612"
    },
    {
      "channel": 5,
      "note": 83,
      "start": 95.652,
      "duration": 0.0531,
      "velocity": 127,
      "chip": "ym2612"
    },
    {
      "channel": 5,
      "note": 83,
      "start": 95.7344,
      "duration": 0.0541,
      "velocity": 127,
      "chip": "ym2612"
    },
    {
      "channel": 1,
      "note": 68,
      "start": 95.8165,
      "duration": 0.3031,
      "velocity": 94,
      "chip": "ym2612"
    },
    {
      "channel": 3,
      "note": 63,
      "start": 95.8187,
      "duration": 0.0524,
      "velocity": 107,
      "chip": "ym2612"
    },
    {
      "channel": 4,
      "note": 65,
      "start": 95.8203,
      "duration": 0.3003,
      "velocity": 94,
      "chip": "ym2612"
    },
    {
      "channel": 5,
      "note": 83,
      "start": 95.8221,
      "duration": 0.0492,
      "velocity": 127,
      "chip": "ym2612"
    },
    {
      "channel": 3,
      "note": 63,
      "start": 95.9002,
      "duration": 0.0539,
      "velocity": 107,
      "chip": "ym2612"
    },
    {
      "channel": 5,
      "note": 83,
      "start": 95.9021,
      "duration": 0.0524,
      "velocity": 127,
      "chip": "ym2612"
    },
    {
      "channel": 2,
      "note": 71,
      "start": 95.987,
      "duration": 0.0093,
      "velocity": 127,
      "chip": "ym2612"
    },
    {
      "channel": 3,
      "note": 51,
      "start": 95.9888,
      "duration": 0.1316,
      "velocity": 107,
      "chip": "ym2612"
    },
    {
      "channel": 5,
      "note": 83,
      "start": 95.9941,
      "duration": 0.0433,
      "velocity": 127,
      "chip": "ym2612"
    },
    {
      "channel": 5,
      "note": 83,
      "start": 96.0667,
      "duration": 0.0541,
      "velocity": 127,
      "chip": "ym2612"
    },
    {
      "channel": 0,
      "note": 80,
      "start": 96.1486,
      "duration": 0.483,
      "velocity": 101,
      "chip": "ym2612"
    },
    {
      "channel": 1,
      "note": 70,
      "start": 96.1503,
      "duration": 0.1355,
      "velocity": 94,
      "chip": "ym2612"
    },
    {
      "channel": 3,
      "note": 63,
      "start": 96.1524,
      "duration": 0.0517,
      "velocity": 107,
      "chip": "ym2612"
    },
    {
      "channel": 4,
      "note": 66,
      "start": 96.1541,
      "duration": 0.1326,
      "velocity": 94,
      "chip": "ym2612"
    },
    {
      "channel": 5,
      "note": 83,
      "start": 96.1559,
      "duration": 0.0485,
      "velocity": 127,
      "chip": "ym2612"
    },
    {
      "channel": 3,
      "note": 63,
      "start": 96.2325,
      "duration": 0.0539,
      "velocity": 107,
      "chip": "ym2612"
    },
    {
      "channel": 5,
      "note": 83,
      "start": 96.2344,
      "duration": 0.0525,
      "velocity": 127,
      "chip": "ym2612"
    },
    {
      "channel": 1,
      "note": 68,
      "start": 96.3148,
      "duration": 0.1509,
      "velocity": 94,
      "chip": "ym2612"
    },
    {
      "channel": 2,
      "note": 61,
      "start": 96.32,
      "duration": 0.0217,
      "velocity": 127,
      "chip": "ym2612"
    },
    {
      "channel": 3,
      "note": 51,
      "start": 96.3218,
      "duration": 0.1447,
      "velocity": 107,
      "chip": "ym2612"
    },
    {
      "channel": 4,
      "note": 65,
      "start": 96.3234,
      "duration": 0.1433,
      "velocity": 94,
      "chip": "ym2612"
    },
    {
      "channel": 5,
      "note": 83,
      "start": 96.3286,
      "duration": 0.0549,
      "velocity": 127,
      "chip": "ym2612"
    },
    {
      "channel": 2,
      "note": 61,
      "start": 96.4123,
      "duration": 0.0125,
      "velocity": 127,
      "chip": "ym2612"
    },
    {
      "channel": 5,
      "note": 83,
      "start": 96.4141,
      "duration": 0.0527,
      "velocity": 127,
      "chip": "ym2612"
    },
    {
      "channel": 1,
      "note": 66,
      "start": 96.4948,
      "duration": 0.317,
      "velocity": 94,
      "chip": "ym2612"
    },
    {
      "channel": 2,
      "note": 61,
      "start": 96.4968,
      "duration": 0.011,
      "velocity": 127,
      "chip": "ym2612"
    },
    {
      "channel": 3,
      "note": 63,
      "start": 96.4984,
      "duration": 0.051,
      "velocity": 107,
      "chip": "ym2612"
    },
    {
      "channel": 4,
      "note": 63,
      "start": 96.5002,
      "duration": 0.3126,
      "velocity": 94,
      "chip": "ym2612"
    },
    {
      "channel": 5,
      "note": 83,
      "start": 96.5049,
      "duration": 0.1279,
      "velocity": 127,
      "chip": "ym2612"
    },
    {
      "channel": 3,
      "note": 63,
      "start": 96.5785,
      "duration": 0.0541,
      "velocity": 107,
      "chip": "ym2612"
    },
    {
      "channel": 0,
      "note": 77,
      "start": 96.661,
      "duration": 0.3168,
      "velocity": 101,
      "chip": "ym2612"
    },
    {
      "channel": 2,
      "note": 71,
      "start": 96.6664,
      "duration": 0.0214,
      "velocity": 127,
      "chip": "ym2612"
    },
    {
      "channel": 3,
      "note": 51,
      "start": 96.6682,
      "duration": 0.1444,
      "velocity": 107,
      "chip": "ym2612"
    },
    {
      "channel": 5,
      "note": 83,
      "start": 96.6732,
      "duration": 0.0563,
      "velocity": 127,
      "chip": "ym2612"
    },
    {
      "channel": 5,
      "note": 83,
      "start": 96.7587,
      "duration": 0.0543,
      "velocity": 127,
      "chip": "ym2612"
    },
    {
      "channel": 1,
      "note": 65,
      "start": 96.8409,
      "duration": 0.1372,
      "velocity": 94,
      "chip": "ym2612"
    },
    {
      "channel": 3,
      "note": 63,
      "start": 96.843,
      "duration": 0.0524,
      "velocity": 107,
      "chip": "ym2612"
    },
    {
      "channel": 4,
      "note": 61,
      "start": 96.8447,
      "duration": 0.1343,
      "velocity": 94,
      "chip": "ym2612"
    },
    {
      "channel": 5,
      "note": 83,
      "start": 96.8495,
      "duration": 0.1297,
      "velocity": 127,
      "chip": "ym2612"
    },
    {
      "channel": 3,
      "note": 63,
      "start": 96.9246,
      "duration": 0.0542,
      "velocity": 107,
      "chip": "ym2612"
    },
    {
      "channel": 0,
      "note": 78,
      "start": 97.007,
      "duration": 0.483,
      "velocity": 101,
      "chip": "ym2612"
    },
    {
      "channel": 1,
      "note": 63,
      "start": 97.0086,
      "duration": 0.1493,
      "velocity": 94,
      "chip": "ym2612"
    },
    {
      "channel": 2,
      "note": 61,
      "start": 97.014,
      "duration": 0.02,
      "velocity": 127,
      "chip": "ym2612"
    },
    {
      "channel": 3,
      "note": 51,
      "start": 97.0157,
      "duration": 0.1429,
      "velocity": 107,
      "chip": "ym2612"
    },
    {
      "channel": 4,
      "note": 59,
      "start": 97.0174,
      "duration": 0.1415,
      "velocity": 94,
      "chip": "ym2612"
    },
    {
      "channel": 5,
      "note": 83,
      "start": 97.0227,
      "duration": 0.0529,
      "velocity": 127,
      "chip": "ym2612"
    },
    {
      "channel": 5,
      "note": 83,
      "start": 97.1053,
      "duration": 0.0538,
      "velocity": 127,
      "chip": "ym2612"
    },
    {
      "channel": 1,
      "note": 61,
      "start": 97.187,
      "duration": 0.3032,
      "velocity": 94,
      "chip": "ym2612"
    },
    {
      "channel": 3,
      "note": 63,
      "start": 97.1892,
      "duration": 0.0524,
      "velocity": 107,
      "chip": "ym2612"
    },
    {
      "channel": 4,
      "note": 58,
      "start": 97.1908,
      "duration": 0.3004,
      "velocity": 94,
      "chip": "ym2612"
    },
    {
      "channel": 5,
      "note": 83,
      "start": 97.1926,
      "duration": 0.0493,
      "velocity": 127,
      "chip": "ym2612"
    },
    {
      "channel": 3,
      "note": 63,
      "start": 97.2707,
      "duration": 0.0544,
      "velocity": 107,
      "chip": "ym2612"
    },
    {
      "channel": 5,
      "note": 83,
      "start": 97.2725,
      "duration": 0.0529,
      "velocity": 127,
      "chip": "ym2612"
    },
    {
      "channel": 2,
      "note": 71,
      "start": 97.3568,
      "duration": 0.0095,
      "velocity": 127,
      "chip": "ym2612"
    },
    {
      "channel": 3,
      "note": 51,
      "start": 97.3585,
      "duration": 0.1324,
      "velocity": 107,
      "chip": "ym2612"
    },
    {
      "channel": 5,
      "note": 83,
      "start": 97.3638,
      "duration": 0.044,
      "velocity": 127,
      "chip": "ym2612"
    },
    {
      "channel": 5,
      "note": 83,
      "start": 97.4372,
      "duration": 0.0542,
      "velocity": 127,
      "chip": "ym2612"
    },
    {
      "channel": 0,
      "note": 77,
      "start": 97.5192,
      "duration": 0.8153,
      "velocity": 101,
      "chip": "ym2612"
    },
    {
      "channel": 1,
      "note": 63,
      "start": 97.5208,
      "duration": 0.1354,
      "velocity": 94,
      "chip": "ym2612"
    },
    {
      "channel": 3,
      "note": 63,
      "start": 97.523,
      "duration": 0.0508,
      "velocity": 107,
      "chip": "ym2612"
    },
    {
      "channel": 4,
      "note": 59,
      "start": 97.5246,
      "duration": 0.1326,
      "velocity": 94,
      "chip": "ym2612"
    },
    {
      "channel": 5,
      "note": 83,
      "start": 97.5264,
      "duration": 0.0477,
      "velocity": 127,
      "chip": "ym2612"
    },
    {
      "channel": 3,
      "note": 63,
      "start": 97.6029,
      "duration": 0.0541,
      "velocity": 107,
      "chip": "ym2612"
    },
    {
      "channel": 5,
      "note": 83,
      "start": 97.6049,
      "duration": 0.0525,
      "velocity": 127,
      "chip": "ym2612"
    },
    {
      "channel": 1,
      "note": 65,
      "start": 97.6868,
      "duration": 0.6479,
      "velocity": 94,
      "chip": "ym2612"
    },
    {
      "channel": 2,
      "note": 61,
      "start": 97.692,
      "duration": 0.0202,
      "velocity": 127,
      "chip": "ym2612"
    },
    {
      "channel": 3,
      "note": 51,
      "start": 97.6938,
      "duration": 0.1431,
      "velocity": 107,
      "chip": "ym2612"
    },
    {
      "channel": 4,
      "note": 61,
      "start": 97.6954,
      "duration": 0.6402,
      "velocity": 94,
      "chip": "ym2612"
    },
    {
      "channel": 5,
      "note": 83,
      "start": 97.7006,
      "duration": 0.0534,
      "velocity": 127,
      "chip": "ym2612"
    },
    {
      "channel": 2,
      "note": 61,
      "start": 97.7829,
      "duration": 0.0125,
      "velocity": 127,
      "chip": "ym2612"
    },
    {
      "channel": 5,
      "note": 83,
      "start": 97.7849,
      "duration": 0.0524,
      "velocity": 127,
      "chip": "ym2612"
    },
    {
      "channel": 2,
      "note": 61,
      "start": 97.8659,
      "duration": 0.0125,
      "velocity": 127,
      "chip": "ym2612"
    },
    {
      "channel": 3,
      "note": 63,
      "start": 97.8675,
      "duration": 0.0524,
      "velocity": 107,
      "chip": "ym2612"
    },
    {
      "channel": 5,
      "note": 83,
      "start": 97.8694,
      "duration": 0.0508,
      "velocity": 127,
      "chip": "ym2612"
    },
    {
      "channel": 3,
      "note": 63,
      "start": 97.949,
      "duration": 0.0539,
      "velocity": 107,
      "chip": "ym2612"
    },
    {
      "channel": 5,
      "note": 83,
      "start": 97.9509,
      "duration": 0.0523,
      "velocity": 127,
      "chip": "ym2612"
    },
    {
      "channel": 2,
      "note": 71,
      "start": 98.0352,
      "duration": 0.0093,
      "velocity": 127,
      "chip": "ym2612"
    },
    {
      "channel": 3,
      "note": 51,
      "start": 98.037,
      "duration": 0.1321,
      "velocity": 107,
      "chip": "ym2612"
    },
    {
      "channel": 5,
      "note": 83,
      "start": 98.0423,
      "duration": 0.044,
      "velocity": 127,
      "chip": "ym2612"
    },
    {
      "channel": 5,
      "note": 83,
      "start": 98.1155,
      "duration": 0.0539,
      "velocity": 127,
      "chip": "ym2612"
    },
    {
      "channel": 3,
      "note": 63,
      "start": 98.1983,
      "duration": 0.0539,
      "velocity": 107,
      "chip": "ym2612"
    },
    {
      "channel": 5,
      "note": 83,
      "start": 98.2002,
      "duration": 0.0523,
      "velocity": 127,
      "chip": "ym2612"
    },
    {
      "channel": 3,
      "note": 63,
      "start": 98.2813,
      "duration": 0.0541,
      "velocity": 107,
      "chip": "ym2612"
    },
    {
      "channel": 5,
      "note": 83,
      "start": 98.2832,
      "duration": 0.0527,
      "velocity": 127,
      "chip": "ym2612"
    },
    {
      "channel": 0,
      "note": 78,
      "start": 98.3637,
      "duration": 0.483,
      "velocity": 101,
      "chip": "ym2612"
    },
    {
      "channel": 1,
      "note": 66,
      "start": 98.3653,
      "duration": 0.4817,
      "velocity": 94,
      "chip": "ym2612"
    },
    {
      "channel": 2,
      "note": 61,
      "start": 98.3707,
      "duration": 0.0199,
      "velocity": 127,
      "chip": "ym2612"
    },
    {
      "channel": 3,
      "note": 51,
      "start": 98.3725,
      "duration": 0.1428,
      "velocity": 107,
      "chip": "ym2612"
    },
    {
      "channel": 4,
      "note": 63,
      "start": 98.3741,
      "duration": 0.4739,
      "velocity": 94,
      "chip": "ym2612"
    },
    {
      "channel": 5,
      "note": 83,
      "start": 98.3793,
      "duration": 0.053,
      "velocity": 127,
      "chip": "ym2612"
    },
    {
      "channel": 5,
      "note": 83,
      "start": 98.4617,
      "duration": 0.0539,
      "velocity": 127,
      "chip": "ym2612"
    },
    {
      "channel": 3,
      "note": 63,
      "start": 98.5443,
      "duration": 0.0539,
      "velocity": 107,
      "chip": "ym2612"
    },
    {
      "channel": 5,
      "note": 83,
      "start": 98.5462,
      "duration": 0.0524,
      "velocity": 127,
      "chip": "ym2612"
    },
    {
      "channel": 3,
      "note": 63,
      "start": 98.6274,
      "duration": 0.054,
      "velocity": 107,
      "chip": "ym2612"
    },
    {
      "channel": 5,
      "note": 83,
      "start": 98.6293,
      "duration": 0.0524,
      "velocity": 127,
      "chip": "ym2612"
    },
    {
      "channel": 2,
      "note": 71,
      "start": 98.7134,
      "duration": 0.0094,
      "velocity": 127,
      "chip": "ym2612"
    },
    {
      "channel": 3,
      "note": 51,
      "start": 98.7152,
      "duration": 0.1325,
      "velocity": 107,
      "chip": "ym2612"
    },
    {
      "channel": 5,
      "note": 83,
      "start": 98.7206,
      "duration": 0.044,
      "velocity": 127,
      "chip": "ym2612"
    },
    {
      "channel": 5,
      "note": 83,
      "start": 98.7939,
      "duration": 0.0543,
      "velocity": 127,
      "chip": "ym2612"
    },
    {
      "channel": 0,
      "note": 80,
      "start": 98.8759,
      "duration": 0.4692,
      "velocity": 101,
      "chip": "ym2612"
    },
    {
      "channel": 1,
      "note": 68,
      "start": 98.8774,
      "duration": 0.4678,
      "velocity": 94,
      "chip": "ym2612"
    },
    {
      "channel": 3,
      "note": 63,
      "start": 98.8796,
      "duration": 0.0509,
      "velocity": 107,
      "chip": "ym2612"
    },
    {
      "channel": 4,
      "note": 65,
      "start": 98.8813,
      "duration": 0.4649,
      "velocity": 94,
      "chip": "ym2612"
    },
    {
      "channel": 5,
      "note": 83,
      "start": 98.8831,
      "duration": 0.0477,
      "velocity": 127,
      "chip": "ym2612"
    },
    {
      "channel": 3,
      "note": 63,
      "start": 98.9596,
      "duration": 0.054,
      "velocity": 107,
      "chip": "ym2612"
    },
    {
      "channel": 5,
      "note": 83,
      "start": 98.9615,
      "duration": 0.0524,
      "velocity": 127,
      "chip": "ym2612"
    },
    {
      "channel": 2,
      "note": 78,
      "start": 99.0428,
      "duration": 0.0123,
      "velocity": 127,
      "chip": "ym2612"
    },
    {
      "channel": 3,
      "note": 51,
      "start": 99.0445,
      "duration": 0.1353,
      "velocity": 107,
      "chip": "ym2612"
    },
    {
      "channel": 5,
      "note": 83,
      "start": 99.0499,
      "duration": 0.0471,
      "velocity": 127,
      "chip": "ym2612"
    },
    {
      "channel": 5,
      "note": 83,
      "start": 99.1261,
      "duration": 0.054,
      "velocity": 127,
      "chip": "ym2612"
    },
    {
      "channel": 2,
      "note": 78,
      "start": 99.2089,
      "duration": 0.0124,
      "velocity": 127,
      "chip": "ym2612"
    },
    {
      "channel": 3,
      "note": 63,
      "start": 99.2105,
      "duration": 0.0522,
      "velocity": 107,
      "chip": "ym2612"
    },
    {
      "channel": 5,
      "note": 83,
      "start": 99.2154,
      "duration": 0.131,
      "velocity": 127,
      "chip": "ym2612"
    },
    {
      "channel": 3,
      "note": 63,
      "start": 99.2918,
      "duration": 0.0542,
      "velocity": 107,
      "chip": "ym2612"
    },
    {
      "channel": 0,
      "note": 82,
      "start": 99.3743,
      "duration": 0.317,
      "velocity": 101,
      "chip": "ym2612"
    },
    {
      "channel": 1,
      "note": 70,
      "start": 99.3759,
      "duration": 0.3155,
      "velocity": 94,
      "chip": "ym2612"
    },
    {
      "channel": 2,
      "note": 78,
      "start": 99.3781,
      "duration": 0.0231,
      "velocity": 127,
      "chip": "ym2612"
    },
    {
      "channel": 3,
      "note": 51,
      "start": 99.3799,
      "duration": 0.146,
      "velocity": 107,
      "chip": "ym2612"
    },
    {
      "channel": 4,
      "note": 66,
      "start": 99.3815,
      "duration": 0.3109,
      "velocity": 94,
      "chip": "ym2612"
    },
    {
      "channel": 5,
      "note": 83,
      "start": 99.3865,
      "duration": 0.0565,
      "velocity": 127,
      "chip": "ym2612"
    },
    {
      "channel": 5,
      "note": 83,
      "start": 99.4721,
      "duration": 0.0541,
      "velocity": 127,
      "chip": "ym2612"
    },
    {
      "channel": 2,
      "note": 78,
      "start": 99.5556,
      "duration": 0.0118,
      "velocity": 127,
      "chip": "ym2612"
    },
    {
      "channel": 3,
      "note": 63,
      "start": 99.5572,
      "duration": 0.0517,
      "velocity": 107,
      "chip": "ym2612"
    },
    {
      "channel": 5,
      "note": 83,
      "start": 99.5621,
      "duration": 0.1306,
      "velocity": 127,
      "chip": "ym2612"
    },
    {
      "channel": 3,
      "note": 63,
      "start": 99.638,
      "duration": 0.0542,
      "velocity": 107,
      "chip": "ym2612"
    },
    {
      "channel": 0,
      "note": 75,
      "start": 99.7206,
      "duration": 0.4828,
      "velocity": 101,
      "chip": "ym2612"
    },
    {
      "channel": 1,
      "note": 63,
      "start": 99.7225,
      "duration": 0.1488,
      "velocity": 94,
      "chip": "ym2612"
    },
    {
      "channel": 2,
      "note": 61,
      "start": 99.7283,
      "duration": 0.019,
      "velocity": 127,
      "chip": "ym2612"
    },
    {
      "channel": 3,
      "note": 51,
      "start": 99.7306,
      "duration": 0.1415,
      "velocity": 107,
      "chip": "ym2612"
    },
    {
      "channel": 4,
      "note": 59,
      "start": 99.7325,
      "duration": 0.1397,
      "velocity": 94,
      "chip": "ym2612"
    },
    {
      "channel": 5,
      "note": 83,
      "start": 99.7383,
      "duration": 0.0508,
      "velocity": 127,
      "chip": "ym2612"
    },
    {
      "channel": 5,
      "note": 83,
      "start": 99.8184,
      "duration": 0.0541,
      "velocity": 127,
      "chip": "ym2612"
    },
    {
      "channel": 1,
      "note": 61,
      "start": 99.9004,
      "duration": 0.3032,
      "velocity": 94,
      "chip": "ym2612"
    },
    {
      "channel": 3,
      "note": 63,
      "start": 99.9026,
      "duration": 0.0524,
      "velocity": 107,
      "chip": "ym2612"
    },
    {
      "channel": 4,
      "note": 58,
      "start": 99.9042,
      "duration": 0.3003,
      "velocity": 94,
      "chip": "ym2612"
    },
    {
      "channel": 5,
      "note": 83,
      "start": 99.906,
      "duration": 0.0492,
      "velocity": 127,
      "chip": "ym2612"
    },
    {
      "channel": 3,
      "note": 63,
      "start": 99.9842,
      "duration": 0.0539,
      "velocity": 107,
      "chip": "ym2612"
    },
    {
      "channel": 5,
      "note": 83,
      "start": 99.986,
      "duration": 0.0524,
      "velocity": 127,
      "chip": "ym2612"
    },
    {
      "channel": 2,
      "note": 71,
      "start": 100.0702,
      "duration": 0.0094,
      "velocity": 127,
      "chip": "ym2612"
    },
    {
      "channel": 3,
      "note": 51,
      "start": 100.072,
      "duration": 0.1323,
      "velocity": 107,
      "chip": "ym2612"
    },
    {
      "channel": 5,
      "note": 83,
      "start": 100.0773,
      "duration": 0.0439,
      "velocity": 127,
      "chip": "ym2612"
    },
    {
      "channel": 5,
      "note": 83,
      "start": 100.1506,
      "duration": 0.0541,
      "velocity": 127,
      "chip": "ym2612"
    },
    {
      "channel": 0,
      "note": 77,
      "start": 100.2328,
      "duration": 0.8151,
      "velocity": 101,
      "chip": "ym2612"
    },
    {
      "channel": 1,
      "note": 63,
      "start": 100.2344,
      "duration": 0.1353,
      "velocity": 94,
      "chip": "ym2612"
    },
    {
      "channel": 3,
      "note": 63,
      "start": 100.2366,
      "duration": 0.0507,
      "velocity": 107,
      "chip": "ym2612"
    },
    {
      "channel": 4,
      "note": 59,
      "start": 100.2382,
      "duration": 0.1324,
      "velocity": 94,
      "chip": "ym2612"
    },
    {
      "channel": 5,
      "note": 83,
      "start": 100.24,
      "duration": 0.0476,
      "velocity": 127,
      "chip": "ym2612"
    },
    {
      "channel": 3,
      "note": 63,
      "start": 100.3164,
      "duration": 0.054,
      "velocity": 107,
      "chip": "ym2612"
    },
    {
      "channel": 5,
      "note": 83,
      "start": 100.3183,
      "duration": 0.0525,
      "velocity": 127,
      "chip": "ym2612"
    },
    {
      "channel": 1,
      "note": 65,
      "start": 100.4002,
      "duration": 0.6478,
      "velocity": 94,
      "chip": "ym2612"
    },
    {
      "channel": 2,
      "note": 61,
      "start": 100.4054,
      "duration": 0.0202,
      "velocity": 127,
      "chip": "ym2612"
    },
    {
      "channel": 3,
      "note": 51,
      "start": 100.4072,
      "duration": 0.1431,
      "velocity": 107,
      "chip": "ym2612"
    },
    {
      "channel": 4,
      "note": 61,
      "start": 100.4089,
      "duration": 0.6401,
      "velocity": 94,
      "chip": "ym2612"
    },
    {
      "channel": 5,
      "note": 83,
      "start": 100.414,
      "duration": 0.0534,
      "velocity": 127,
      "chip": "ym2612"
    },
    {
      "channel": 2,
      "note": 61,
      "start": 100.4963,
      "duration": 0.0125,
      "velocity": 127,
      "chip": "ym2612"
    },
    {
      "channel": 5,
      "note": 83,
      "start": 100.4983,
      "duration": 0.0524,
      "velocity": 127,
      "chip": "ym2612"
    },
    {
      "channel": 2,
      "note": 61,
      "start": 100.5793,
      "duration": 0.0125,
      "velocity": 127,
      "chip": "ym2612"
    },
    {
      "channel": 3,
      "note": 63,
      "start": 100.5809,
      "duration": 0.0525,
      "velocity": 107,
      "chip": "ym2612"
    },
    {
      "channel": 5,
      "note": 83,
      "start": 100.5829,
      "duration": 0.0508,
      "velocity": 127,
      "chip": "ym2612"
    },
    {
      "channel": 3,
      "note": 63,
      "start": 100.6624,
      "duration": 0.0541,
      "velocity": 107,
      "chip": "ym2612"
    },
    {
      "channel": 5,
      "note": 83,
      "start": 100.6643,
      "duration": 0.0524,
      "velocity": 127,
      "chip": "ym2612"
    },
    {
      "channel": 2,
      "note": 71,
      "start": 100.7486,
      "duration": 0.0093,
      "velocity": 127,
      "chip": "ym2612"
    },
    {
      "channel": 3,
      "note": 51,
      "start": 100.7503,
      "duration": 0.1322,
      "velocity": 107,
      "chip": "ym2612"
    },
    {
      "channel": 5,
      "note": 83,
      "start": 100.7556,
      "duration": 0.0441,
      "velocity": 127,
      "chip": "ym2612"
    },
    {
      "channel": 5,
      "note": 83,
      "start": 100.8289,
      "duration": 0.0539,
      "velocity": 127,
      "chip": "ym2612"
    },
    {
      "channel": 3,
      "note": 63,
      "start": 100.9116,
      "duration": 0.0539,
      "velocity": 107,
      "chip": "ym2612"
    },
    {
      "channel": 5,
      "note": 83,
      "start": 100.9135,
      "duration": 0.0524,
      "velocity": 127,
      "chip": "ym2612"
    },
    {
      "channel": 3,
      "note": 63,
      "start": 100.9946,
      "duration": 0.0542,
      "velocity": 107,
      "chip": "ym2612"
    },
    {
      "channel": 5,
      "note": 83,
      "start": 100.9965,
      "duration": 0.0527,
      "velocity": 127,
      "chip": "ym2612"
    },
    {
      "channel": 0,
      "note": 82,
      "start": 101.0771,
      "duration": 0.4836,
      "velocity": 101,
      "chip": "ym2612"
    },
    {
      "channel": 1,
      "note": 66,
      "start": 101.0787,
      "duration": 0.1493,
      "velocity": 94,
      "chip": "ym2612"
    },
    {
      "channel": 2,
      "note": 61,
      "start": 101.0841,
      "duration": 0.0199,
      "velocity": 127,
      "chip": "ym2612"
    },
    {
      "channel": 3,
      "note": 51,
      "start": 101.0859,
      "duration": 0.1429,
      "velocity": 107,
      "chip": "ym2612"
    },
    {
      "channel": 4,
      "note": 63,
      "start": 101.0876,
      "duration": 0.1414,
      "velocity": 94,
      "chip": "ym2612"
    },
    {
      "channel": 5,
      "note": 83,
      "start": 101.0927,
      "duration": 0.053,
      "velocity": 127,
      "chip": "ym2612"
    },
    {
      "channel": 5,
      "note": 83,
      "start": 101.1751,
      "duration": 0.0541,
      "velocity": 127,
      "chip": "ym2612"
    },
    {
      "channel": 1,
      "note": 68,
      "start": 101.2571,
      "duration": 0.3038,
      "velocity": 94,
      "chip": "ym2612"
    },
    {
      "channel": 3,
      "note": 63,
      "start": 101.2593,
      "duration": 0.0524,
      "velocity": 107,
      "chip": "ym2612"
    },
    {
      "channel": 4,
      "note": 65,
      "start": 101.2609,
      "duration": 0.301,
      "velocity": 94,
      "chip": "ym2612"
    },
    {
      "channel": 5,
      "note": 83,
      "start": 101.2627,
      "duration": 0.0493,
      "velocity": 127,
      "chip": "ym2612"
    },
    {
      "channel": 3,
      "note": 63,
      "start": 101.3413,
      "duration": 0.0534,
      "velocity": 107,
      "chip": "ym2612"
    },
    {
      "channel": 5,
      "note": 83,
      "start": 101.3432,
      "duration": 0.0519,
      "velocity": 127,
      "chip": "ym2612"
    },
    {
      "channel": 2,
      "note": 71,
      "start": 101.4269,
      "duration": 0.0094,
      "velocity": 127,
      "chip": "ym2612"
    },
    {
      "channel": 3,
      "note": 51,
      "start": 101.4287,
      "duration": 0.133,
      "velocity": 107,
      "chip": "ym2612"
    },
    {
      "channel": 5,
      "note": 83,
      "start": 101.434,
      "duration": 0.044,
      "velocity": 127,
      "chip": "ym2612"
    },
    {
      "channel": 5,
      "note": 83,
      "start": 101.5073,
      "duration": 0.0548,
      "velocity": 127,
      "chip": "ym2612"
    },
    {
      "channel": 0,
      "note": 80,
      "start": 101.5893,
      "duration": 0.4831,
      "velocity": 101,
      "chip": "ym2612"
    },
    {
      "channel": 1,
      "note": 70,
      "start": 101.5909,
      "duration": 0.1355,
      "velocity": 94,
      "chip": "ym2612"
    },
    {
      "channel": 3,
      "note": 63,
      "start": 101.5931,
      "duration": 0.0508,
      "velocity": 107,
      "chip": "ym2612"
    },
    {
      "channel": 4,
      "note": 66,
      "start": 101.5948,
      "duration": 0.1326,
      "velocity": 94,
      "chip": "ym2612"
    },
    {
      "channel": 5,
      "note": 83,
      "start": 101.5965,
      "duration": 0.0477,
      "velocity": 127,
      "chip": "ym2612"
    },
    {
      "channel": 3,
      "note": 63,
      "start": 101.6731,
      "duration": 0.0541,
      "velocity": 107,
      "chip": "ym2612"
    },
    {
      "channel": 5,
      "note": 83,
      "start": 101.675,
      "duration": 0.0526,
      "velocity": 127,
      "chip": "ym2612"
    },
    {
      "channel": 1,
      "note": 68,
      "start": 101.7554,
      "duration": 0.151,
      "velocity": 94,
      "chip": "ym2612"
    },
    {
      "channel": 2,
      "note": 61,
      "start": 101.7607,
      "duration": 0.0224,
      "velocity": 127,
      "chip": "ym2612"
    },
    {
      "channel": 3,
      "note": 51,
      "start": 101.7624,
      "duration": 0.1448,
      "velocity": 107,
      "chip": "ym2612"
    },
    {
      "channel": 4,
      "note": 65,
      "start": 101.764,
      "duration": 0.1433,
      "velocity": 94,
      "chip": "ym2612"
    },
    {
      "channel": 5,
      "note": 83,
      "start": 101.7693,
      "duration": 0.0549,
      "velocity": 127,
      "chip": "ym2612"
    },
    {
      "channel": 2,
      "note": 61,
      "start": 101.8529,
      "duration": 0.0125,
      "velocity": 127,
      "chip": "ym2612"
    },
    {
      "channel": 5,
      "note": 83,
      "start": 101.8547,
      "duration": 0.0528,
      "velocity": 127,
      "chip": "ym2612"
    },
    {
      "channel": 1,
      "note": 66,
      "start": 101.9355,
      "duration": 0.317,
      "velocity": 94,
      "chip": "ym2612"
    },
    {
      "channel": 2,
      "note": 61,
      "start": 101.9375,
      "duration": 0.011,
      "velocity": 127,
      "chip": "ym2612"
    },
    {
      "channel": 3,
      "note": 63,
      "start": 101.9392,
      "duration": 0.0509,
      "velocity": 107,
      "chip": "ym2612"
    },
    {
      "channel": 4,
      "note": 63,
      "start": 101.9408,
      "duration": 0.3126,
      "velocity": 94,
      "chip": "ym2612"
    },
    {
      "channel": 5,
      "note": 83,
      "start": 101.9455,
      "duration": 0.128,
      "velocity": 127,
      "chip": "ym2612"
    },
    {
      "channel": 3,
      "note": 63,
      "start": 102.0191,
      "duration": 0.0541,
      "velocity": 107,
      "chip": "ym2612"
    },
    {
      "channel": 0,
      "note": 77,
      "start": 102.1016,
      "duration": 0.3169,
      "velocity": 101,
      "chip": "ym2612"
    },
    {
      "channel": 2,
      "note": 71,
      "start": 102.1068,
      "duration": 0.0216,
      "velocity": 127,
      "chip": "ym2612"
    },
    {
      "channel": 3,
      "note": 51,
      "start": 102.1086,
      "duration": 0.1446,
      "velocity": 107,
      "chip": "ym2612"
    },
    {
      "channel": 5,
      "note": 83,
      "start": 102.1137,
      "duration": 0.0566,
      "velocity": 127,
      "chip": "ym2612"
    },
    {
      "channel": 5,
      "note": 83,
      "start": 102.1995,
      "duration": 0.0541,
      "velocity": 127,
      "chip": "ym2612"
    },
    {
      "channel": 1,
      "note": 65,
      "start": 102.2815,
      "duration": 0.1372,
      "velocity": 94,
      "chip": "ym2612"
    },
    {
      "channel": 3,
      "note": 63,
      "start": 102.2837,
      "duration": 0.0524,
      "velocity": 107,
      "chip": "ym2612"
    },
    {
      "channel": 4,
      "note": 61,
      "start": 102.2854,
      "duration": 0.1342,
      "velocity": 94,
      "chip": "ym2612"
    },
    {
      "channel": 5,
      "note": 83,
      "start": 102.2902,
      "duration": 0.1297,
      "velocity": 127,
      "chip": "ym2612"
    },
    {
      "channel": 3,
      "note": 63,
      "start": 102.3652,
      "duration": 0.0542,
      "velocity": 107,
      "chip": "ym2612"
    },
    {
      "channel": 0,
      "note": 78,
      "start": 102.4476,
      "duration": 0.4831,
      "velocity": 101,
      "chip": "ym2612"
    },
    {
      "channel": 1,
      "note": 63,
      "start": 102.4493,
      "duration": 0.1493,
      "velocity": 94,
      "chip": "ym2612"
    },
    {
      "channel": 2,
      "note": 61,
      "start": 102.4547,
      "duration": 0.0199,
      "velocity": 127,
      "chip": "ym2612"
    },
    {
      "channel": 3,
      "note": 51,
      "start": 102.4565,
      "duration": 0.1429,
      "velocity": 107,
      "chip": "ym2612"
    },
    {
      "channel": 4,
      "note": 59,
      "start": 102.458,
      "duration": 0.1415,
      "velocity": 94,
      "chip": "ym2612"
    },
    {
      "channel": 5,
      "note": 83,
      "start": 102.4634,
      "duration": 0.053,
      "velocity": 127,
      "chip": "ym2612"
    },
    {
      "channel": 5,
      "note": 83,
      "start": 102.5456,
      "duration": 0.0541,
      "velocity": 127,
      "chip": "ym2612"
    },
    {
      "channel": 1,
      "note": 61,
      "start": 102.6276,
      "duration": 0.3032,
      "velocity": 94,
      "chip": "ym2612"
    },
    {
      "channel": 3,
      "note": 63,
      "start": 102.6298,
      "duration": 0.0527,
      "velocity": 107,
      "chip": "ym2612"
    },
    {
      "channel": 4,
      "note": 58,
      "start": 102.6315,
      "duration": 0.3004,
      "velocity": 94,
      "chip": "ym2612"
    },
    {
      "channel": 5,
      "note": 83,
      "start": 102.6333,
      "duration": 0.0495,
      "velocity": 127,
      "chip": "ym2612"
    },
    {
      "channel": 3,
      "note": 63,
      "start": 102.7114,
      "duration": 0.054,
      "velocity": 107,
      "chip": "ym2612"
    },
    {
      "channel": 5,
      "note": 83,
      "start": 102.7132,
      "duration": 0.0524,
      "velocity": 127,
      "chip": "ym2612"
    },
    {
      "channel": 2,
      "note": 71,
      "start": 102.7974,
      "duration": 0.0094,
      "velocity": 127,
      "chip": "ym2612"
    },
    {
      "channel": 3,
      "note": 51,
      "start": 102.7993,
      "duration": 0.1323,
      "velocity": 107,
      "chip": "ym2612"
    },
    {
      "channel": 5,
      "note": 83,
      "start": 102.8046,
      "duration": 0.044,
      "velocity": 127,
      "chip": "ym2612"
    },
    {
      "channel": 5,
      "note": 83,
      "start": 102.8778,
      "duration": 0.0542,
      "velocity": 127,
      "chip": "ym2612"
    },
    {
      "channel": 0,
      "note": 77,
      "start": 102.9598,
      "duration": 0.8153,
      "velocity": 101,
      "chip": "ym2612"
    },
    {
      "channel": 1,
      "note": 63,
      "start": 102.9615,
      "duration": 0.1355,
      "velocity": 94,
      "chip": "ym2612"
    },
    {
      "channel": 3,
      "note": 63,
      "start": 102.9637,
      "duration": 0.0508,
      "velocity": 107,
      "chip": "ym2612"
    },
    {
      "channel": 4,
      "note": 59,
      "start": 102.9653,
      "duration": 0.1326,
      "velocity": 94,
      "chip": "ym2612"
    },
    {
      "channel": 5,
      "note": 83,
      "start": 102.9671,
      "duration": 0.0476,
      "velocity": 127,
      "chip": "ym2612"
    },
    {
      "channel": 3,
      "note": 63,
      "start": 103.0436,
      "duration": 0.0541,
      "velocity": 107,
      "chip": "ym2612"
    },
    {
      "channel": 5,
      "note": 83,
      "start": 103.0455,
      "duration": 0.0526,
      "velocity": 127,
      "chip": "ym2612"
    },
    {
      "channel": 1,
      "note": 65,
      "start": 103.128,
      "duration": 0.6474,
      "velocity": 94,
      "chip": "ym2612"
    },
    {
      "channel": 2,
      "note": 61,
      "start": 103.1332,
      "duration": 0.0198,
      "velocity": 127,
      "chip": "ym2612"
    },
    {
      "channel": 3,
      "note": 51,
      "start": 103.135,
      "duration": 0.1426,
      "velocity": 107,
      "chip": "ym2612"
    },
    {
      "channel": 4,
      "note": 61,
      "start": 103.1366,
      "duration": 0.6397,
      "velocity": 94,
      "chip": "ym2612"
    },
    {
      "channel": 5,
      "note": 83,
      "start": 103.1418,
      "duration": 0.0529,
      "velocity": 127,
      "chip": "ym2612"
    },
    {
      "channel": 2,
      "note": 61,
      "start": 103.2235,
      "duration": 0.0124,
      "velocity": 127,
      "chip": "ym2612"
    },
    {
      "channel": 5,
      "note": 83,
      "start": 103.2255,
      "duration": 0.0524,
      "velocity": 127,
      "chip": "ym2612"
    },
    {
      "channel": 2,
      "note": 61,
      "start": 103.3065,
      "duration": 0.0125,
      "velocity": 127,
      "chip": "ym2612"
    },
    {
      "channel": 3,
      "note": 63,
      "start": 103.3082,
      "duration": 0.0524,
      "velocity": 107,
      "chip": "ym2612"
    },
    {
      "channel": 5,
      "note": 83,
      "start": 103.31,
      "duration": 0.0508,
      "velocity": 127,
      "chip": "ym2612"
    },
    {
      "channel": 3,
      "note": 63,
      "start": 103.3897,
      "duration": 0.0539,
      "velocity": 107,
      "chip": "ym2612"
    },
    {
      "channel": 5,
      "note": 83,
      "start": 103.3915,
      "duration": 0.0524,
      "velocity": 127,
      "chip": "ym2612"
    },
    {
      "channel": 2,
      "note": 71,
      "start": 103.4758,
      "duration": 0.0093,
      "velocity": 127,
      "chip": "ym2612"
    },
    {
      "channel": 3,
      "note": 51,
      "start": 103.4776,
      "duration": 0.1322,
      "velocity": 107,
      "chip": "ym2612"
    },
    {
      "channel": 5,
      "note": 83,
      "start": 103.4829,
      "duration": 0.044,
      "velocity": 127,
      "chip": "ym2612"
    },
    {
      "channel": 5,
      "note": 83,
      "start": 103.5562,
      "duration": 0.0539,
      "velocity": 127,
      "chip": "ym2612"
    },
    {
      "channel": 3,
      "note": 63,
      "start": 103.6388,
      "duration": 0.054,
      "velocity": 107,
      "chip": "ym2612"
    },
    {
      "channel": 5,
      "note": 83,
      "start": 103.6407,
      "duration": 0.0524,
      "velocity": 127,
      "chip": "ym2612"
    },
    {
      "channel": 3,
      "note": 63,
      "start": 103.7219,
      "duration": 0.0541,
      "velocity": 107,
      "chip": "ym2612"
    },
    {
      "channel": 5,
      "note": 83,
      "start": 103.7238,
      "duration": 0.0527,
      "velocity": 127,
      "chip": "ym2612"
    },
    {
      "channel": 0,
      "note": 78,
      "start": 103.8043,
      "duration": 0.4831,
      "velocity": 101,
      "chip": "ym2612"
    },
    {
      "channel": 1,
      "note": 66,
      "start": 103.8059,
      "duration": 0.6477,
      "velocity": 94,
      "chip": "ym2612"
    },
    {
      "channel": 2,
      "note": 61,
      "start": 103.8113,
      "duration": 0.02,
      "velocity": 127,
      "chip": "ym2612"
    },
    {
      "channel": 3,
      "note": 51,
      "start": 103.8131,
      "duration": 0.1429,
      "velocity": 107,
      "chip": "ym2612"
    },
    {
      "channel": 4,
      "note": 63,
      "start": 103.8147,
      "duration": 0.6399,
      "velocity": 94,
      "chip": "ym2612"
    },
    {
      "channel": 5,
      "note": 83,
      "start": 103.8199,
      "duration": 0.0531,
      "velocity": 127,
      "chip": "ym2612"
    },
    {
      "channel": 5,
      "note": 83,
      "start": 103.9023,
      "duration": 0.0539,
      "velocity": 127,
      "chip": "ym2612"
    },
    {
      "channel": 3,
      "note": 63,
      "start": 103.985,
      "duration": 0.0539,
      "velocity": 107,
      "chip": "ym2612"
    },
    {
      "channel": 5,
      "note": 83,
      "start": 103.9869,
      "duration": 0.0523,
      "velocity": 127,
      "chip": "ym2612"
    },
    {
      "channel": 3,
      "note": 63,
      "start": 104.0681,
      "duration": 0.0539,
      "velocity": 107,
      "chip": "ym2612"
    },
    {
      "channel": 5,
      "note": 83,
      "start": 104.07,
      "duration": 0.0524,
      "velocity": 127,
      "chip": "ym2612"
    },
    {
      "channel": 2,
      "note": 71,
      "start": 104.1542,
      "duration": 0.0093,
      "velocity": 127,
      "chip": "ym2612"
    },
    {
      "channel": 3,
      "note": 51,
      "start": 104.1559,
      "duration": 0.1323,
      "velocity": 107,
      "chip": "ym2612"
    },
    {
      "channel": 5,
      "note": 83,
      "start": 104.1612,
      "duration": 0.044,
      "velocity": 127,
      "chip": "ym2612"
    },
    {
      "channel": 5,
      "note": 83,
      "start": 104.2346,
      "duration": 0.0539,
      "velocity": 127,
      "chip": "ym2612"
    },
    {
      "channel": 0,
      "note": 80,
      "start": 104.3166,
      "duration": 0.8157,
      "velocity": 101,
      "chip": "ym2612"
    },
    {
      "channel": 3,
      "note": 63,
      "start": 104.3189,
      "duration": 0.0524,
      "velocity": 107,
      "chip": "ym2612"
    },
    {
      "channel": 5,
      "note": 83,
      "start": 104.3208,
      "duration": 0.0507,
      "velocity": 127,
      "chip": "ym2612"
    },
    {
      "channel": 3,
      "note": 63,
      "start": 104.4003,
      "duration": 0.0541,
      "velocity": 107,
      "chip": "ym2612"
    },
    {
      "channel": 5,
      "note": 83,
      "start": 104.4023,
      "duration": 0.0525,
      "velocity": 127,
      "chip": "ym2612"
    },
    {
      "channel": 1,
      "note": 68,
      "start": 104.4842,
      "duration": 0.6484,
      "velocity": 94,
      "chip": "ym2612"
    },
    {
      "channel": 2,
      "note": 61,
      "start": 104.4894,
      "duration": 0.0202,
      "velocity": 127,
      "chip": "ym2612"
    },
    {
      "channel": 3,
      "note": 51,
      "start": 104.4912,
      "duration": 0.1431,
      "velocity": 107,
      "chip": "ym2612"
    },
    {
      "channel": 4,
      "note": 65,
      "start": 104.4928,
      "duration": 0.6408,
      "velocity": 94,
      "chip": "ym2612"
    },
    {
      "channel": 5,
      "note": 83,
      "start": 104.498,
      "duration": 0.0534,
      "velocity": 127,
      "chip": "ym2612"
    },
    {
      "channel": 2,
      "note": 61,
      "start": 104.5802,
      "duration": 0.0125,
      "velocity": 127,
      "chip": "ym2612"
    },
    {
      "channel": 5,
      "note": 83,
      "start": 104.582,
      "duration": 0.0526,
      "velocity": 127,
      "chip": "ym2612"
    },
    {
      "channel": 2,
      "note": 61,
      "start": 104.6632,
      "duration": 0.0125,
      "velocity": 127,
      "chip": "ym2612"
    },
    {
      "channel": 3,
      "note": 63,
      "start": 104.6649,
      "duration": 0.0524,
      "velocity": 107,
      "chip": "ym2612"
    },
    {
      "channel": 5,
      "note": 83,
      "start": 104.6698,
      "duration": 0.1309,
      "velocity": 127,
      "chip": "ym2612"
    },
    {
      "channel": 3,
      "note": 63,
      "start": 104.7463,
      "duration": 0.054,
      "velocity": 107,
      "chip": "ym2612"
    },
    {
      "channel": 2,
      "note": 71,
      "start": 104.8325,
      "duration": 0.0093,
      "velocity": 127,
      "chip": "ym2612"
    },
    {
      "channel": 3,
      "note": 51,
      "start": 104.8343,
      "duration": 0.1322,
      "velocity": 107,
      "chip": "ym2612"
    },
    {
      "channel": 5,
      "note": 83,
      "start": 104.8393,
      "duration": 0.0444,
      "velocity": 127,
      "chip": "ym2612"
    },
    {
      "channel": 5,
      "note": 83,
      "start": 104.9131,
      "duration": 0.0537,
      "velocity": 127,
      "chip": "ym2612"
    },
    {
      "channel": 3,
      "note": 63,
      "start": 104.9956,
      "duration": 0.054,
      "velocity": 107,
      "chip": "ym2612"
    },
    {
      "channel": 5,
      "note": 83,
      "start": 105.0005,
      "duration": 0.1333,
      "velocity": 127,
      "chip": "ym2612"
    },
    {
      "channel": 3,
      "note": 63,
      "start": 105.0786,
      "duration": 0.0547,
      "velocity": 107,
      "chip": "ym2612"
    },
    {
      "channel": 0,
      "note": 75,
      "start": 105.1613,
      "duration": 0.4828,
      "velocity": 101,
      "chip": "ym2612"
    },
    {
      "channel": 1,
      "note": 63,
      "start": 105.1632,
      "duration": 0.1488,
      "velocity": 94,
      "chip": "ym2612"
    },
    {
      "channel": 2,
      "note": 61,
      "start": 105.169,
      "duration": 0.0189,
      "velocity": 127,
      "chip": "ym2612"
    },
    {
      "channel": 3,
      "note": 51,
      "start": 105.1712,
      "duration": 0.1415,
      "velocity": 107,
      "chip": "ym2612"
    },
    {
      "channel": 4,
      "note": 59,
      "start": 105.1731,
      "duration": 0.1398,
      "velocity": 94,
      "chip": "ym2612"
    },
    {
      "channel": 5,
      "note": 83,
      "start": 105.1789,
      "duration": 0.0508,
      "velocity": 127,
      "chip": "ym2612"
    },
    {
      "channel": 5,
      "note": 83,
      "start": 105.259,
      "duration": 0.0541,
      "velocity": 127,
      "chip": "ym2612"
    },
    {
      "channel": 1,
      "note": 61,
      "start": 105.3411,
      "duration": 0.3032,
      "velocity": 94,
      "chip": "ym2612"
    },
    {
      "channel": 3,
      "note": 63,
      "start": 105.3432,
      "duration": 0.0524,
      "velocity": 107,
      "chip": "ym2612"
    },
    {
      "channel": 4,
      "note": 58,
      "start": 105.3449,
      "duration": 0.3004,
      "velocity": 94,
      "chip": "ym2612"
    },
    {
      "channel": 5,
      "note": 83,
      "start": 105.3467,
      "duration": 0.0492,
      "velocity": 127,
      "chip": "ym2612"
    },
    {
      "channel": 3,
      "note": 63,
      "start": 105.4248,
      "duration": 0.0539,
      "velocity": 107,
      "chip": "ym2612"
    },
    {
      "channel": 5,
      "note": 83,
      "start": 105.4266,
      "duration": 0.0524,
      "velocity": 127,
      "chip": "ym2612"
    },
    {
      "channel": 2,
      "note": 73,
      "start": 105.5108,
      "duration": 0.0094,
      "velocity": 127,
      "chip": "ym2612"
    },
    {
      "channel": 3,
      "note": 51,
      "start": 105.5126,
      "duration": 0.1324,
      "velocity": 107,
      "chip": "ym2612"
    },
    {
      "channel": 5,
      "note": 83,
      "start": 105.5179,
      "duration": 0.044,
      "velocity": 127,
      "chip": "ym2612"
    },
    {
      "channel": 5,
      "note": 83,
      "start": 105.5912,
      "duration": 0.0543,
      "velocity": 127,
      "chip": "ym2612"
    },
    {
      "channel": 0,
      "note": 77,
      "start": 105.6732,
      "duration": 0.8153,
      "velocity": 101,
      "chip": "ym2612"
    },
    {
      "channel": 1,
      "note": 63,
      "start": 105.6749,
      "duration": 0.1355,
      "velocity": 94,
      "chip": "ym2612"
    },
    {
      "channel": 3,
      "note": 63,
      "start": 105.6771,
      "duration": 0.0508,
      "velocity": 107,
      "chip": "ym2612"
    },
    {
      "channel": 4,
      "note": 59,
      "start": 105.6787,
      "duration": 0.1326,
      "velocity": 94,
      "chip": "ym2612"
    },
    {
      "channel": 5,
      "note": 83,
      "start": 105.6805,
      "duration": 0.0477,
      "velocity": 127,
      "chip": "ym2612"
    },
    {
      "channel": 3,
      "note": 63,
      "start": 105.757,
      "duration": 0.0541,
      "velocity": 107,
      "chip": "ym2612"
    },
    {
      "channel": 5,
      "note": 83,
      "start": 105.7589,
      "duration": 0.0527,
      "velocity": 127,
      "chip": "ym2612"
    },
    {
      "channel": 1,
      "note": 65,
      "start": 105.8409,
      "duration": 0.6479,
      "velocity": 94,
      "chip": "ym2612"
    },
    {
      "channel": 2,
      "note": 61,
      "start": 105.8461,
      "duration": 0.0203,
      "velocity": 127,
      "chip": "ym2612"
    },
    {
      "channel": 3,
      "note": 51,
      "start": 105.8478,
      "duration": 0.1432,
      "velocity": 107,
      "chip": "ym2612"
    },
    {
      "channel": 4,
      "note": 61,
      "start": 105.8495,
      "duration": 0.6402,
      "velocity": 94,
      "chip": "ym2612"
    },
    {
      "channel": 5,
      "note": 83,
      "start": 105.8547,
      "duration": 0.0534,
      "velocity": 127,
      "chip": "ym2612"
    },
    {
      "channel": 2,
      "note": 61,
      "start": 105.9369,
      "duration": 0.0125,
      "velocity": 127,
      "chip": "ym2612"
    },
    {
      "channel": 5,
      "note": 83,
      "start": 105.9389,
      "duration": 0.0524,
      "velocity": 127,
      "chip": "ym2612"
    },
    {
      "channel": 2,
      "note": 61,
      "start": 106.0199,
      "duration": 0.0127,
      "velocity": 127,
      "chip": "ym2612"
    },
    {
      "channel": 3,
      "note": 63,
      "start": 106.0215,
      "duration": 0.0524,
      "velocity": 107,
      "chip": "ym2612"
    },
    {
      "channel": 5,
      "note": 83,
      "start": 106.0234,
      "duration": 0.0508,
      "velocity": 127,
      "chip": "ym2612"
    },
    {
      "channel": 3,
      "note": 63,
      "start": 106.1031,
      "duration": 0.0539,
      "velocity": 107,
      "chip": "ym2612"
    },
    {
      "channel": 5,
      "note": 83,
      "start": 106.1049,
      "duration": 0.0524,
      "velocity": 127,
      "chip": "ym2612"
    },
    {
      "channel": 2,
      "note": 71,
      "start": 106.1892,
      "duration": 0.0094,
      "velocity": 127,
      "chip": "ym2612"
    },
    {
      "channel": 3,
      "note": 51,
      "start": 106.1909,
      "duration": 0.1323,
      "velocity": 107,
      "chip": "ym2612"
    },
    {
      "channel": 5,
      "note": 83,
      "start": 106.1963,
      "duration": 0.044,
      "velocity": 127,
      "chip": "ym2612"
    },
    {
      "channel": 5,
      "note": 83,
      "start": 106.2696,
      "duration": 0.0539,
      "velocity": 127,
      "chip": "ym2612"
    },
    {
      "channel": 3,
      "note": 63,
      "start": 106.3523,
      "duration": 0.0539,
      "velocity": 107,
      "chip": "ym2612"
    },
    {
      "channel": 5,
      "note": 83,
      "start": 106.3542,
      "duration": 0.0524,
      "velocity": 127,
      "chip": "ym2612"
    },
    {
      "channel": 3,
      "note": 63,
      "start": 106.4353,
      "duration": 0.0541,
      "velocity": 107,
      "chip": "ym2612"
    },
    {
      "channel": 5,
      "note": 83,
      "start": 106.4372,
      "duration": 0.0527,
      "velocity": 127,
      "chip": "ym2612"
    },
    {
      "channel": 0,
      "note": 82,
      "start": 106.5177,
      "duration": 0.4831,
      "velocity": 101,
      "chip": "ym2612"
    },
    {
      "channel": 1,
      "note": 66,
      "start": 106.5194,
      "duration": 0.1493,
      "velocity": 94,
      "chip": "ym2612"
    },
    {
      "channel": 2,
      "note": 61,
      "start": 106.5247,
      "duration": 0.02,
      "velocity": 127,
      "chip": "ym2612"
    },
    {
      "channel": 3,
      "note": 51,
      "start": 106.5265,
      "duration": 0.1429,
      "velocity": 107,
      "chip": "ym2612"
    },
    {
      "channel": 4,
      "note": 63,
      "start": 106.5281,
      "duration": 0.1415,
      "velocity": 94,
      "chip": "ym2612"
    },
    {
      "channel": 5,
      "note": 83,
      "start": 106.5334,
      "duration": 0.0531,
      "velocity": 127,
      "chip": "ym2612"
    },
    {
      "channel": 5,
      "note": 83,
      "start": 106.6157,
      "duration": 0.0541,
      "velocity": 127,
      "chip": "ym2612"
    },
    {
      "channel": 1,
      "note": 68,
      "start": 106.6981,
      "duration": 0.3029,
      "velocity": 94,
      "chip": "ym2612"
    },
    {
      "channel": 3,
      "note": 63,
      "start": 106.7003,
      "duration": 0.052,
      "velocity": 107,
      "chip": "ym2612"
    },
    {
      "channel": 4,
      "note": 65,
      "start": 106.702,
      "duration": 0.3,
      "velocity": 94,
      "chip": "ym2612"
    },
    {
      "channel": 5,
      "note": 83,
      "start": 106.7037,
      "duration": 0.0489,
      "velocity": 127,
      "chip": "ym2612"
    },
    {
      "channel": 3,
      "note": 63,
      "start": 106.7815,
      "duration": 0.054,
      "velocity": 107,
      "chip": "ym2612"
    },
    {
      "channel": 5,
      "note": 83,
      "start": 106.7834,
      "duration": 0.0523,
      "velocity": 127,
      "chip": "ym2612"
    },
    {
      "channel": 2,
      "note": 73,
      "start": 106.8676,
      "duration": 0.0093,
      "velocity": 127,
      "chip": "ym2612"
    },
    {
      "channel": 3,
      "note": 51,
      "start": 106.8694,
      "duration": 0.1324,
      "velocity": 107,
      "chip": "ym2612"
    },
    {
      "channel": 5,
      "note": 83,
      "start": 106.8746,
      "duration": 0.0449,
      "velocity": 127,
      "chip": "ym2612"
    },
    {
      "channel": 5,
      "note": 83,
      "start": 106.9479,
      "duration": 0.0542,
      "velocity": 127,
      "chip": "ym2612"
    },
    {
      "channel": 0,
      "note": 80,
      "start": 107.0299,
      "duration": 0.4831,
      "velocity": 101,
      "chip": "ym2612"
    },
    {
      "channel": 1,
      "note": 70,
      "start": 107.0316,
      "duration": 0.1355,
      "velocity": 94,
      "chip": "ym2612"
    },
    {
      "channel": 3,
      "note": 63,
      "start": 107.0338,
      "duration": 0.0508,
      "velocity": 107,
      "chip": "ym2612"
    },
    {
      "channel": 4,
      "note": 66,
      "start": 107.0355,
      "duration": 0.1326,
      "velocity": 94,
      "chip": "ym2612"
    },
    {
      "channel": 5,
      "note": 83,
      "start": 107.0373,
      "duration": 0.0476,
      "velocity": 127,
      "chip": "ym2612"
    },
    {
      "channel": 3,
      "note": 63,
      "start": 107.1137,
      "duration": 0.0541,
      "velocity": 107,
      "chip": "ym2612"
    },
    {
      "channel": 5,
      "note": 83,
      "start": 107.1156,
      "duration": 0.0526,
      "velocity": 127,
      "chip": "ym2612"
    },
    {
      "channel": 1,
      "note": 68,
      "start": 107.1961,
      "duration": 0.151,
      "velocity": 94,
      "chip": "ym2612"
    },
    {
      "channel": 2,
      "note": 61,
      "start": 107.2014,
      "duration": 0.0216,
      "velocity": 127,
      "chip": "ym2612"
    },
    {
      "channel": 3,
      "note": 51,
      "start": 107.2032,
      "duration": 0.1447,
      "velocity": 107,
      "chip": "ym2612"
    },
    {
      "channel": 4,
      "note": 65,
      "start": 107.2047,
      "duration": 0.1433,
      "velocity": 94,
      "chip": "ym2612"
    },
    {
      "channel": 5,
      "note": 83,
      "start": 107.21,
      "duration": 0.0548,
      "velocity": 127,
      "chip": "ym2612"
    },
    {
      "channel": 2,
      "note": 61,
      "start": 107.2936,
      "duration": 0.0125,
      "velocity": 127,
      "chip": "ym2612"
    },
    {
      "channel": 5,
      "note": 83,
      "start": 107.2954,
      "duration": 0.0528,
      "velocity": 127,
      "chip": "ym2612"
    },
    {
      "channel": 1,
      "note": 66,
      "start": 107.3761,
      "duration": 0.317,
      "velocity": 94,
      "chip": "ym2612"
    },
    {
      "channel": 2,
      "note": 61,
      "start": 107.3781,
      "duration": 0.011,
      "velocity": 127,
      "chip": "ym2612"
    },
    {
      "channel": 3,
      "note": 63,
      "start": 107.3798,
      "duration": 0.0509,
      "velocity": 107,
      "chip": "ym2612"
    },
    {
      "channel": 4,
      "note": 63,
      "start": 107.3815,
      "duration": 0.3126,
      "velocity": 94,
      "chip": "ym2612"
    },
    {
      "channel": 5,
      "note": 83,
      "start": 107.3862,
      "duration": 0.1279,
      "velocity": 127,
      "chip": "ym2612"
    },
    {
      "channel": 3,
      "note": 63,
      "start": 107.4598,
      "duration": 0.0541,
      "velocity": 107,
      "chip": "ym2612"
    },
    {
      "channel": 0,
      "note": 77,
      "start": 107.5422,
      "duration": 0.3169,
      "velocity": 101,
      "chip": "ym2612"
    },
    {
      "channel": 2,
      "note": 71,
      "start": 107.5476,
      "duration": 0.0216,
      "velocity": 127,
      "chip": "ym2612"
    },
    {
      "channel": 3,
      "note": 51,
      "start": 107.5493,
      "duration": 0.1445,
      "velocity": 107,
      "chip": "ym2612"
    },
    {
      "channel": 5,
      "note": 83,
      "start": 107.5544,
      "duration": 0.0566,
      "velocity": 127,
      "chip": "ym2612"
    },
    {
      "channel": 5,
      "note": 83,
      "start": 107.64,
      "duration": 0.0543,
      "velocity": 127,
      "chip": "ym2612"
    },
    {
      "channel": 1,
      "note": 65,
      "start": 107.7222,
      "duration": 0.1372,
      "velocity": 94,
      "chip": "ym2612"
    },
    {
      "channel": 3,
      "note": 63,
      "start": 107.7243,
      "duration": 0.0525,
      "velocity": 107,
      "chip": "ym2612"
    },
    {
      "channel": 4,
      "note": 61,
      "start": 107.726,
      "duration": 0.1343,
      "velocity": 94,
      "chip": "ym2612"
    },
    {
      "channel": 5,
      "note": 83,
      "start": 107.7307,
      "duration": 0.1298,
      "velocity": 127,
      "chip": "ym2612"
    },
    {
      "channel": 3,
      "note": 63,
      "start": 107.8068,
      "duration": 0.0533,
      "velocity": 107,
      "chip": "ym2612"
    },
    {
      "channel": 0,
      "note": 78,
      "start": 107.8883,
      "duration": 0.4831,
      "velocity": 101,
      "chip": "ym2612"
    },
    {
      "channel": 1,
      "note": 63,
      "start": 107.8899,
      "duration": 0.1494,
      "velocity": 94,
      "chip": "ym2612"
    },
    {
      "channel": 2,
      "note": 61,
      "start": 107.8953,
      "duration": 0.02,
      "velocity": 127,
      "chip": "ym2612"
    },
    {
      "channel": 3,
      "note": 51,
      "start": 107.8971,
      "duration": 0.1431,
      "velocity": 107,
      "chip": "ym2612"
    },
    {
      "channel": 4,
      "note": 59,
      "start": 107.8986,
      "duration": 0.1417,
      "velocity": 94,
      "chip": "ym2612"
    },
    {
      "channel": 5,
      "note": 83,
      "start": 107.904,
      "duration": 0.0529,
      "velocity": 127,
      "chip": "ym2612"
    },
    {
      "channel": 5,
      "note": 83,
      "start": 107.9863,
      "duration": 0.0542,
      "velocity": 127,
      "chip": "ym2612"
    },
    {
      "channel": 1,
      "note": 61,
      "start": 108.0683,
      "duration": 0.3032,
      "velocity": 94,
      "chip": "ym2612"
    },
    {
      "channel": 3,
      "note": 63,
      "start": 108.0705,
      "duration": 0.0524,
      "velocity": 107,
      "chip": "ym2612"
    },
    {
      "channel": 4,
      "note": 58,
      "start": 108.0721,
      "duration": 0.3004,
      "velocity": 94,
      "chip": "ym2612"
    },
    {
      "channel": 5,
      "note": 83,
      "start": 108.0739,
      "duration": 0.0493,
      "velocity": 127,
      "chip": "ym2612"
    },
    {
      "channel": 3,
      "note": 63,
      "start": 108.152,
      "duration": 0.054,
      "velocity": 107,
      "chip": "ym2612"
    },
    {
      "channel": 5,
      "note": 83,
      "start": 108.1539,
      "duration": 0.0523,
      "velocity": 127,
      "chip": "ym2612"
    },
    {
      "channel": 2,
      "note": 73,
      "start": 108.2381,
      "duration": 0.0094,
      "velocity": 127,
      "chip": "ym2612"
    },
    {
      "channel": 3,
      "note": 51,
      "start": 108.2399,
      "duration": 0.1324,
      "velocity": 107,
      "chip": "ym2612"
    },
    {
      "channel": 5,
      "note": 83,
      "start": 108.2451,
      "duration": 0.0441,
      "velocity": 127,
      "chip": "ym2612"
    },
    {
      "channel": 5,
      "note": 83,
      "start": 108.3185,
      "duration": 0.0541,
      "velocity": 127,
      "chip": "ym2612"
    },
    {
      "channel": 0,
      "note": 77,
      "start": 108.4005,
      "duration": 0.8153,
      "velocity": 101,
      "chip": "ym2612"
    },
    {
      "channel": 1,
      "note": 63,
      "start": 108.4022,
      "duration": 0.1354,
      "velocity": 94,
      "chip": "ym2612"
    },
    {
      "channel": 3,
      "note": 63,
      "start": 108.4044,
      "duration": 0.0508,
      "velocity": 107,
      "chip": "ym2612"
    },
    {
      "channel": 4,
      "note": 59,
      "start": 108.406,
      "duration": 0.1326,
      "velocity": 94,
      "chip": "ym2612"
    },
    {
      "channel": 5,
      "note": 83,
      "start": 108.4078,
      "duration": 0.0476,
      "velocity": 127,
      "chip": "ym2612"
    },
    {
      "channel": 3,
      "note": 63,
      "start": 108.4846,
      "duration": 0.0538,
      "velocity": 107,
      "chip": "ym2612"
    },
    {
      "channel": 5,
      "note": 83,
      "start": 108.4865,
      "duration": 0.0523,
      "velocity": 127,
      "chip": "ym2612"
    },
    {
      "channel": 1,
      "note": 65,
      "start": 108.5682,
      "duration": 0.6479,
      "velocity": 94,
      "chip": "ym2612"
    },
    {
      "channel": 2,
      "note": 61,
      "start": 108.5734,
      "duration": 0.0202,
      "velocity": 127,
      "chip": "ym2612"
    },
    {
      "channel": 3,
      "note": 51,
      "start": 108.5751,
      "duration": 0.1431,
      "velocity": 107,
      "chip": "ym2612"
    },
    {
      "channel": 4,
      "note": 61,
      "start": 108.5768,
      "duration": 0.6402,
      "velocity": 94,
      "chip": "ym2612"
    },
    {
      "channel": 5,
      "note": 83,
      "start": 108.582,
      "duration": 0.0534,
      "velocity": 127,
      "chip": "ym2612"
    },
    {
      "channel": 2,
      "note": 61,
      "start": 108.6641,
      "duration": 0.0125,
      "velocity": 127,
      "chip": "ym2612"
    },
    {
      "channel": 5,
      "note": 83,
      "start": 108.6662,
      "duration": 0.0524,
      "velocity": 127,
      "chip": "ym2612"
    },
    {
      "channel": 2,
      "note": 61,
      "start": 108.7472,
      "duration": 0.0125,
      "velocity": 127,
      "chip": "ym2612"
    },
    {
      "channel": 3,
      "note": 63,
      "start": 108.7488,
      "duration": 0.0524,
      "velocity": 107,
      "chip": "ym2612"
    },
    {
      "channel": 5,
      "note": 83,
      "start": 108.7507,
      "duration": 0.0508,
      "velocity": 127,
      "chip": "ym2612"
    },
    {
      "channel": 3,
      "note": 63,
      "start": 108.8303,
      "duration": 0.0539,
      "velocity": 107,
      "chip": "ym2612"
    },
    {
      "channel": 5,
      "note": 83,
      "start": 108.8322,
      "duration": 0.0524,
      "velocity": 127,
      "chip": "ym2612"
    },
    {
      "channel": 2,
      "note": 71,
      "start": 108.9165,
      "duration": 0.0093,
      "velocity": 127,
      "chip": "ym2612"
    },
    {
      "channel": 3,
      "note": 51,
      "start": 108.9182,
      "duration": 0.1322,
      "velocity": 107,
      "chip": "ym2612"
    },
    {
      "channel": 5,
      "note": 83,
      "start": 108.9236,
      "duration": 0.044,
      "velocity": 127,
      "chip": "ym2612"
    },
    {
      "channel": 5,
      "note": 83,
      "start": 108.9968,
      "duration": 0.0539,
      "velocity": 127,
      "chip": "ym2612"
    },
    {
      "channel": 3,
      "note": 63,
      "start": 109.0795,
      "duration": 0.0539,
      "velocity": 107,
      "chip": "ym2612"
    },
    {
      "channel": 5,
      "note": 83,
      "start": 109.0814,
      "duration": 0.0524,
      "velocity": 127,
      "chip": "ym2612"
    },
    {
      "channel": 3,
      "note": 63,
      "start": 109.1626,
      "duration": 0.0542,
      "velocity": 107,
      "chip": "ym2612"
    },
    {
      "channel": 5,
      "note": 83,
      "start": 109.1644,
      "duration": 0.0528,
      "velocity": 127,
      "chip": "ym2612"
    },
    {
      "channel": 0,
      "note": 51,
      "start": 109.245,
      "duration": 0.1508,
      "velocity": 101,
      "chip": "ym2612"
    },
    {
      "channel": 1,
      "note": 63,
      "start": 109.2466,
      "duration": 0.4956,
      "velocity": 94,
      "chip": "ym2612"
    },
    {
      "channel": 2,
      "note": 73,
      "start": 109.2522,
      "duration": 0.0197,
      "velocity": 127,
      "chip": "ym2612"
    },
    {
      "channel": 3,
      "note": 49,
      "start": 109.254,
      "duration": 0.1427,
      "velocity": 107,
      "chip": "ym2612"
    },
    {
      "channel": 4,
      "note": 59,
      "start": 109.2556,
      "duration": 0.4876,
      "velocity": 94,
      "chip": "ym2612"
    },
    {
      "channel": 5,
      "note": 83,
      "start": 109.2608,
      "duration": 0.053,
      "velocity": 127,
      "chip": "ym2612"
    },
    {
      "channel": 5,
      "note": 83,
      "start": 109.343,
      "duration": 0.0541,
      "velocity": 127,
      "chip": "ym2612"
    },
    {
      "channel": 0,
      "note": 63,
      "start": 109.425,
      "duration": 0.137,
      "velocity": 101,
      "chip": "ym2612"
    },
    {
      "channel": 2,
      "note": 73,
      "start": 109.4304,
      "duration": 0.0076,
      "velocity": 127,
      "chip": "ym2612"
    },
    {
      "channel": 3,
      "note": 61,
      "start": 109.432,
      "duration": 0.0476,
      "velocity": 107,
      "chip": "ym2612"
    },
    {
      "channel": 5,
      "note": 83,
      "start": 109.434,
      "duration": 0.0459,
      "velocity": 127,
      "chip": "ym2612"
    },
    {
      "channel": 3,
      "note": 61,
      "start": 109.5088,
      "duration": 0.0541,
      "velocity": 107,
      "chip": "ym2612"
    },
    {
      "channel": 5,
      "note": 83,
      "start": 109.5106,
      "duration": 0.0525,
      "velocity": 127,
      "chip": "ym2612"
    },
    {
      "channel": 0,
      "note": 75,
      "start": 109.592,
      "duration": 0.1499,
      "velocity": 101,
      "chip": "ym2612"
    },
    {
      "channel": 2,
      "note": 73,
      "start": 109.5975,
      "duration": 0.0205,
      "velocity": 127,
      "chip": "ym2612"
    },
    {
      "channel": 3,
      "note": 51,
      "start": 109.5991,
      "duration": 0.1437,
      "velocity": 107,
      "chip": "ym2612"
    },
    {
      "channel": 5,
      "note": 83,
      "start": 109.6045,
      "duration": 0.0553,
      "velocity": 127,
      "chip": "ym2612"
    },
    {
      "channel": 5,
      "note": 83,
      "start": 109.6891,
      "duration": 0.0542,
      "velocity": 127,
      "chip": "ym2612"
    },
    {
      "channel": 0,
      "note": 53,
      "start": 109.771,
      "duration": 0.1509,
      "velocity": 101,
      "chip": "ym2612"
    },
    {
      "channel": 1,
      "note": 65,
      "start": 109.7726,
      "duration": 0.4817,
      "velocity": 94,
      "chip": "ym2612"
    },
    {
      "channel": 2,
      "note": 73,
      "start": 109.778,
      "duration": 0.02,
      "velocity": 127,
      "chip": "ym2612"
    },
    {
      "channel": 3,
      "note": 63,
      "start": 109.7797,
      "duration": 0.0598,
      "velocity": 107,
      "chip": "ym2612"
    },
    {
      "channel": 4,
      "note": 61,
      "start": 109.7813,
      "duration": 0.474,
      "velocity": 94,
      "chip": "ym2612"
    },
    {
      "channel": 5,
      "note": 83,
      "start": 109.7831,
      "duration": 0.0568,
      "velocity": 127,
      "chip": "ym2612"
    },
    {
      "channel": 3,
      "note": 63,
      "start": 109.8687,
      "duration": 0.0541,
      "velocity": 107,
      "chip": "ym2612"
    },
    {
      "channel": 5,
      "note": 83,
      "start": 109.8706,
      "duration": 0.0525,
      "velocity": 127,
      "chip": "ym2612"
    },
    {
      "channel": 0,
      "note": 65,
      "start": 109.951,
      "duration": 0.137,
      "velocity": 101,
      "chip": "ym2612"
    },
    {
      "channel": 2,
      "note": 78,
      "start": 109.9533,
      "duration": 0.011,
      "velocity": 127,
      "chip": "ym2612"
    },
    {
      "channel": 3,
      "note": 53,
      "start": 109.9549,
      "duration": 0.134,
      "velocity": 107,
      "chip": "ym2612"
    },
    {
      "channel": 5,
      "note": 83,
      "start": 109.9602,
      "duration": 0.0457,
      "velocity": 127,
      "chip": "ym2612"
    },
    {
      "channel": 5,
      "note": 83,
      "start": 110.0351,
      "duration": 0.0541,
      "velocity": 127,
      "chip": "ym2612"
    },
    {
      "channel": 0,
      "note": 77,
      "start": 110.1172,
      "duration": 0.137,
      "velocity": 101,
      "chip": "ym2612"
    },
    {
      "channel": 2,
      "note": 61,
      "start": 110.1194,
      "duration": 0.0109,
      "velocity": 127,
      "chip": "ym2612"
    },
    {
      "channel": 3,
      "note": 65,
      "start": 110.121,
      "duration": 0.0508,
      "velocity": 107,
      "chip": "ym2612"
    },
    {
      "channel": 5,
      "note": 83,
      "start": 110.1259,
      "duration": 0.1297,
      "velocity": 127,
      "chip": "ym2612"
    },
    {
      "channel": 2,
      "note": 76,
      "start": 110.2009,
      "duration": 0.0124,
      "velocity": 127,
      "chip": "ym2612"
    },
    {
      "channel": 3,
      "note": 65,
      "start": 110.2025,
      "duration": 0.0526,
      "velocity": 107,
      "chip": "ym2612"
    },
    {
      "channel": 0,
      "note": 66,
      "start": 110.2833,
      "duration": 0.1508,
      "velocity": 101,
      "chip": "ym2612"
    },
    {
      "channel": 1,
      "note": 66,
      "start": 110.285,
      "duration": 0.3155,
      "velocity": 94,
      "chip": "ym2612"
    },
    {
      "channel": 3,
      "note": 54,
      "start": 110.2871,
      "duration": 0.1478,
      "velocity": 107,
      "chip": "ym2612"
    },
    {
      "channel": 4,
      "note": 63,
      "start": 110.2887,
      "duration": 0.3127,
      "velocity": 94,
      "chip": "ym2612"
    },
    {
      "channel": 5,
      "note": 83,
      "start": 110.2936,
      "duration": 0.0583,
      "velocity": 127,
      "chip": "ym2612"
    },
    {
      "channel": 2,
      "note": 61,
      "start": 110.3808,
      "duration": 0.0125,
      "velocity": 127,
      "chip": "ym2612"
    },
    {
      "channel": 5,
      "note": 83,
      "start": 110.3827,
      "duration": 0.0526,
      "velocity": 127,
      "chip": "ym2612"
    },
    {
      "channel": 0,
      "note": 78,
      "start": 110.4632,
      "duration": 0.1371,
      "velocity": 101,
      "chip": "ym2612"
    },
    {
      "channel": 2,
      "note": 74,
      "start": 110.4655,
      "duration": 0.0109,
      "velocity": 127,
      "chip": "ym2612"
    },
    {
      "channel": 3,
      "note": 66,
      "start": 110.4671,
      "duration": 0.0508,
      "velocity": 107,
      "chip": "ym2612"
    },
    {
      "channel": 5,
      "note": 83,
      "start": 110.472,
      "duration": 0.1296,
      "velocity": 127,
      "chip": "ym2612"
    },
    {
      "channel": 3,
      "note": 66,
      "start": 110.5471,
      "duration": 0.0542,
      "velocity": 107,
      "chip": "ym2612"
    },
    {
      "channel": 0,
      "note": 78,
      "start": 110.6339,
      "duration": 0.6915,
      "velocity": 101,
      "chip": "ym2612"
    },
    {
      "channel": 1,
      "note": 66,
      "start": 110.637,
      "duration": 0.6884,
      "velocity": 94,
      "chip": "ym2612"
    },
    {
      "channel": 2,
      "note": 61,
      "start": 110.6437,
      "duration": 0.027,
      "velocity": 127,
      "chip": "ym2612"
    },
    {
      "channel": 3,
      "note": 51,
      "start": 110.6498,
      "duration": 0.145,
      "velocity": 107,
      "chip": "ym2612"
    },
    {
      "channel": 4,
      "note": 63,
      "start": 110.6529,
      "duration": 0.6725,
      "velocity": 94,
      "chip": "ym2612"
    },
    {
      "channel": 5,
      "note": 59,
      "start": 110.6595,
      "duration": 0.1356,
      "velocity": 127,
      "chip": "ym2612"
    },
    {
      "channel": 2,
      "note": 61,
      "start": 110.8238,
      "duration": 0.0125,
      "velocity": 127,
      "chip": "ym2612"
    },
    {
      "channel": 3,
      "note": 63,
      "start": 110.8254,
      "duration": 0.0524,
      "velocity": 107,
      "chip": "ym2612"
    },
    {
      "channel": 5,
      "note": 59,
      "start": 110.8271,
      "duration": 0.051,
      "velocity": 127,
      "chip": "ym2612"
    },
    {
      "channel": 2,
      "note": 61,
      "start": 110.9069,
      "duration": 0.0125,
      "velocity": 127,
      "chip": "ym2612"
    },
    {
      "channel": 3,
      "note": 63,
      "start": 110.9085,
      "duration": 0.0525,
      "velocity": 107,
      "chip": "ym2612"
    },
    {
      "channel": 5,
      "note": 59,
      "start": 110.9102,
      "duration": 0.0511,
      "velocity": 127,
      "chip": "ym2612"
    },
    {
      "channel": 2,
      "note": 71,
      "start": 110.993,
      "duration": 0.0094,
      "velocity": 127,
      "chip": "ym2612"
    },
    {
      "channel": 3,
      "note": 51,
      "start": 110.9948,
      "duration": 0.1322,
      "velocity": 107,
      "chip": "ym2612"
    },
    {
      "channel": 5,
      "note": 59,
      "start": 110.9967,
      "duration": 0.1306,
      "velocity": 127,
      "chip": "ym2612"
    },
    {
      "channel": 3,
      "note": 63,
      "start": 111.1567,
      "duration": 0.0534,
      "velocity": 107,
      "chip": "ym2612"
    },
    {
      "channel": 5,
      "note": 59,
      "start": 111.1585,
      "duration": 0.0519,
      "velocity": 127,
      "chip": "ym2612"
    },
    {
      "channel": 3,
      "note": 63,
      "start": 111.2392,
      "duration": 0.054,
      "velocity": 107,
      "chip": "ym2612"
    },
    {
      "channel": 5,
      "note": 59,
      "start": 111.2409,
      "duration": 0.0525,
      "velocity": 127,
      "chip": "ym2612"
    }
  ]
}