{
  "track_name": "13 - Department Store",
  "duration_sec": 21.67,
  "sample_rate": 44100,
  "note_count": 315,
  "unique_pitches": 38,
  "pitch_range": 60,
  "avg_note_duration": 0.3348,
  "reconstruction_stats": {
    "notes_reconstructed": 315,
    "keyon_events": 315,
    "keyoff_events": 311,
    "orphan_keyons": 4,
    "unique_pitches": 38,
    "pitch_range": 60,
    "avg_duration_sec": 0.3348
  },
  "metadata": {
    "source": "P\\Pac-Man 2 - The New Adventures\\13 - Department Store.vgz"
  },
  "notes": [
    {
      "channel": 0,
      "note": 34,
      "start": 0.0,
      "duration": 0.3282,
      "velocity": 116,
      "chip": "ym2612"
    },
    {
      "channel": 2,
      "note": 59,
      "start": 0.0061,
      "duration": 0.3242,
      "velocity": 100,
      "chip": "ym2612"
    },
    {
      "channel": 4,
      "note": 35,
      "start": 0.0136,
      "duration": 0.3181,
      "velocity": 92,
      "chip": "ym2612"
    },
    {
      "channel": 1,
      "note": 35,
      "start": 0.0498,
      "duration": 0.3294,
      "velocity": 116,
      "chip": "ym2612"
    },
    {
      "channel": 3,
      "note": 59,
      "start": 0.0557,
      "duration": 0.3255,
      "velocity": 100,
      "chip": "ym2612"
    },
    {
      "channel": 0,
      "note": 38,
      "start": 0.3282,
      "duration": 0.3334,
      "velocity": 116,
      "chip": "ym2612"
    },
    {
      "channel": 2,
      "note": 60,
      "start": 0.3303,
      "duration": 0.1665,
      "velocity": 100,
      "chip": "ym2612"
    },
    {
      "channel": 4,
      "note": 35,
      "start": 0.3361,
      "duration": 0.3289,
      "velocity": 103,
      "chip": "ym2612"
    },
    {
      "channel": 1,
      "note": 39,
      "start": 0.3792,
      "duration": 0.3334,
      "velocity": 116,
      "chip": "ym2612"
    },
    {
      "channel": 3,
      "note": 60,
      "start": 0.3811,
      "duration": 0.1667,
      "velocity": 100,
      "chip": "ym2612"
    },
    {
      "channel": 2,
      "note": 61,
      "start": 0.4969,
      "duration": 0.1668,
      "velocity": 100,
      "chip": "ym2612"
    },
    {
      "channel": 3,
      "note": 61,
      "start": 0.5478,
      "duration": 0.1667,
      "velocity": 100,
      "chip": "ym2612"
    },
    {
      "channel": 0,
      "note": 36,
      "start": 0.6616,
      "duration": 0.3334,
      "velocity": 116,
      "chip": "ym2612"
    },
    {
      "channel": 2,
      "note": 63,
      "start": 0.6637,
      "duration": 0.3334,
      "velocity": 100,
      "chip": "ym2612"
    },
    {
      "channel": 4,
      "note": 39,
      "start": 0.6697,
      "duration": 0.3288,
      "velocity": 92,
      "chip": "ym2612"
    },
    {
      "channel": 1,
      "note": 37,
      "start": 0.7125,
      "duration": 0.3332,
      "velocity": 116,
      "chip": "ym2612"
    },
    {
      "channel": 3,
      "note": 63,
      "start": 0.7145,
      "duration": 0.3332,
      "velocity": 100,
      "chip": "ym2612"
    },
    {
      "channel": 0,
      "note": 34,
      "start": 0.995,
      "duration": 0.3332,
      "velocity": 116,
      "chip": "ym2612"
    },
    {
      "channel": 2,
      "note": 64,
      "start": 0.9971,
      "duration": 0.1665,
      "velocity": 100,
      "chip": "ym2612"
    },
    {
      "channel": 4,
      "note": 47,
      "start": 1.0031,
      "duration": 0.3286,
      "velocity": 100,
      "chip": "ym2612"
    },
    {
      "channel": 1,
      "note": 35,
      "start": 1.0458,
      "duration": 0.3332,
      "velocity": 116,
      "chip": "ym2612"
    },
    {
      "channel": 3,
      "note": 64,
      "start": 1.0478,
      "duration": 0.1665,
      "velocity": 100,
      "chip": "ym2612"
    },
    {
      "channel": 2,
      "note": 65,
      "start": 1.1636,
      "duration": 0.1667,
      "velocity": 100,
      "chip": "ym2612"
    },
    {
      "channel": 3,
      "note": 65,
      "start": 1.2143,
      "duration": 0.1667,
      "velocity": 100,
      "chip": "ym2612"
    },
    {
      "channel": 0,
      "note": 33,
      "start": 1.3282,
      "duration": 0.3335,
      "velocity": 116,
      "chip": "ym2612"
    },
    {
      "channel": 2,
      "note": 66,
      "start": 1.3303,
      "duration": 0.3328,
      "velocity": 100,
      "chip": "ym2612"
    },
    {
      "channel": 4,
      "note": 37,
      "start": 1.3364,
      "duration": 0.3326,
      "velocity": 92,
      "chip": "ym2612"
    },
    {
      "channel": 1,
      "note": 34,
      "start": 1.379,
      "duration": 0.3335,
      "velocity": 116,
      "chip": "ym2612"
    },
    {
      "channel": 3,
      "note": 66,
      "start": 1.381,
      "duration": 0.3329,
      "velocity": 100,
      "chip": "ym2612"
    },
    {
      "channel": 0,
      "note": 41,
      "start": 1.6617,
      "duration": 0.6665,
      "velocity": 116,
      "chip": "ym2612"
    },
    {
      "channel": 2,
      "note": 90,
      "start": 1.6677,
      "duration": 0.2458,
      "velocity": 81,
      "chip": "ym2612"
    },
    {
      "channel": 4,
      "note": 30,
      "start": 1.6736,
      "duration": 0.3246,
      "velocity": 103,
      "chip": "ym2612"
    },
    {
      "channel": 1,
      "note": 42,
      "start": 1.7125,
      "duration": 0.6666,
      "velocity": 116,
      "chip": "ym2612"
    },
    {
      "channel": 3,
      "note": 90,
      "start": 1.7185,
      "duration": 0.196,
      "velocity": 81,
      "chip": "ym2612"
    },
    {
      "channel": 2,
      "note": 89,
      "start": 1.997,
      "duration": 0.2495,
      "velocity": 81,
      "chip": "ym2612"
    },
    {
      "channel": 4,
      "note": 38,
      "start": 2.0029,
      "duration": 0.3286,
      "velocity": 92,
      "chip": "ym2612"
    },
    {
      "channel": 3,
      "note": 89,
      "start": 2.0475,
      "duration": 0.2,
      "velocity": 81,
      "chip": "ym2612"
    },
    {
      "channel": 0,
      "note": 41,
      "start": 2.3283,
      "duration": 0.3332,
      "velocity": 116,
      "chip": "ym2612"
    },
    {
      "channel": 2,
      "note": 90,
      "start": 2.3302,
      "duration": 0.2499,
      "velocity": 81,
      "chip": "ym2612"
    },
    {
      "channel": 4,
      "note": 42,
      "start": 2.3361,
      "duration": 0.3373,
      "velocity": 100,
      "chip": "ym2612"
    },
    {
      "channel": 1,
      "note": 42,
      "start": 2.3792,
      "duration": 0.3324,
      "velocity": 116,
      "chip": "ym2612"
    },
    {
      "channel": 3,
      "note": 90,
      "start": 2.3812,
      "duration": 0.2,
      "velocity": 81,
      "chip": "ym2612"
    },
    {
      "channel": 0,
      "note": 59,
      "start": 2.666,
      "duration": 0.329,
      "velocity": 108,
      "chip": "ym2612"
    },
    {
      "channel": 2,
      "note": 62,
      "start": 2.672,
      "duration": 0.6583,
      "velocity": 89,
      "chip": "ym2612"
    },
    {
      "channel": 4,
      "note": 35,
      "start": 2.6798,
      "duration": 0.3183,
      "velocity": 92,
      "chip": "ym2612"
    },
    {
      "channel": 1,
      "note": 59,
      "start": 2.7163,
      "duration": 0.3295,
      "velocity": 108,
      "chip": "ym2612"
    },
    {
      "channel": 3,
      "note": 62,
      "start": 2.7222,
      "duration": 0.6588,
      "velocity": 89,
      "chip": "ym2612"
    },
    {
      "channel": 0,
      "note": 61,
      "start": 2.995,
      "duration": 0.3334,
      "velocity": 108,
      "chip": "ym2612"
    },
    {
      "channel": 4,
      "note": 38,
      "start": 3.0028,
      "duration": 0.3289,
      "velocity": 103,
      "chip": "ym2612"
    },
    {
      "channel": 1,
      "note": 61,
      "start": 3.0458,
      "duration": 0.3333,
      "velocity": 108,
      "chip": "ym2612"
    },
    {
      "channel": 0,
      "note": 61,
      "start": 3.3284,
      "duration": 0.3332,
      "velocity": 108,
      "chip": "ym2612"
    },
    {
      "channel": 2,
      "note": 59,
      "start": 3.3304,
      "duration": 0.6665,
      "velocity": 89,
      "chip": "ym2612"
    },
    {
      "channel": 4,
      "note": 38,
      "start": 3.3362,
      "duration": 0.3286,
      "velocity": 92,
      "chip": "ym2612"
    },
    {
      "channel": 1,
      "note": 61,
      "start": 3.3791,
      "duration": 0.3332,
      "velocity": 108,
      "chip": "ym2612"
    },
    {
      "channel": 3,
      "note": 59,
      "start": 3.3811,
      "duration": 0.6666,
      "velocity": 89,
      "chip": "ym2612"
    },
    {
      "channel": 0,
      "note": 59,
      "start": 3.6617,
      "duration": 0.3332,
      "velocity": 108,
      "chip": "ym2612"
    },
    {
      "channel": 4,
      "note": 47,
      "start": 3.6694,
      "duration": 0.3288,
      "velocity": 100,
      "chip": "ym2612"
    },
    {
      "channel": 1,
      "note": 59,
      "start": 3.7124,
      "duration": 0.3333,
      "velocity": 108,
      "chip": "ym2612"
    },
    {
      "channel": 0,
      "note": 55,
      "start": 3.9949,
      "duration": 0.3333,
      "velocity": 108,
      "chip": "ym2612"
    },
    {
      "channel": 2,
      "note": 57,
      "start": 3.9968,
      "duration": 0.3333,
      "velocity": 89,
      "chip": "ym2612"
    },
    {
      "channel": 4,
      "note": 36,
      "start": 4.0028,
      "duration": 0.3286,
      "velocity": 92,
      "chip": "ym2612"
    },
    {
      "channel": 1,
      "note": 55,
      "start": 4.0457,
      "duration": 0.3333,
      "velocity": 108,
      "chip": "ym2612"
    },
    {
      "channel": 3,
      "note": 57,
      "start": 4.0477,
      "duration": 0.3333,
      "velocity": 89,
      "chip": "ym2612"
    },
    {
      "channel": 0,
      "note": 55,
      "start": 4.3281,
      "duration": 0.3334,
      "velocity": 108,
      "chip": "ym2612"
    },
    {
      "channel": 2,
      "note": 55,
      "start": 4.3301,
      "duration": 0.3334,
      "velocity": 89,
      "chip": "ym2612"
    },
    {
      "channel": 4,
      "note": 48,
      "start": 4.3361,
      "duration": 0.3287,
      "velocity": 100,
      "chip": "ym2612"
    },
    {
      "channel": 1,
      "note": 55,
      "start": 4.379,
      "duration": 0.3333,
      "velocity": 108,
      "chip": "ym2612"
    },
    {
      "channel": 3,
      "note": 55,
      "start": 4.3809,
      "duration": 0.3332,
      "velocity": 89,
      "chip": "ym2612"
    },
    {
      "channel": 0,
      "note": 55,
      "start": 4.6615,
      "duration": 0.1666,
      "velocity": 108,
      "chip": "ym2612"
    },
    {
      "channel": 2,
      "note": 54,
      "start": 4.6635,
      "duration": 0.3333,
      "velocity": 89,
      "chip": "ym2612"
    },
    {
      "channel": 4,
      "note": 42,
      "start": 4.6694,
      "duration": 0.3288,
      "velocity": 92,
      "chip": "ym2612"
    },
    {
      "channel": 1,
      "note": 55,
      "start": 4.7122,
      "duration": 0.1668,
      "velocity": 108,
      "chip": "ym2612"
    },
    {
      "channel": 3,
      "note": 54,
      "start": 4.7142,
      "duration": 0.3335,
      "velocity": 89,
      "chip": "ym2612"
    },
    {
      "channel": 0,
      "note": 54,
      "start": 4.8281,
      "duration": 0.1668,
      "velocity": 108,
      "chip": "ym2612"
    },
    {
      "channel": 1,
      "note": 54,
      "start": 4.879,
      "duration": 0.1667,
      "velocity": 108,
      "chip": "ym2612"
    },
    {
      "channel": 0,
      "note": 53,
      "start": 4.9949,
      "duration": 0.1666,
      "velocity": 108,
      "chip": "ym2612"
    },
    {
      "channel": 2,
      "note": 58,
      "start": 4.9969,
      "duration": 0.3368,
      "velocity": 89,
      "chip": "ym2612"
    },
    {
      "channel": 4,
      "note": 34,
      "start": 5.0028,
      "duration": 0.3368,
      "velocity": 103,
      "chip": "ym2612"
    },
    {
      "channel": 1,
      "note": 53,
      "start": 5.0458,
      "duration": 0.1667,
      "velocity": 108,
      "chip": "ym2612"
    },
    {
      "channel": 3,
      "note": 58,
      "start": 5.0477,
      "duration": 0.3366,
      "velocity": 89,
      "chip": "ym2612"
    },
    {
      "channel": 0,
      "note": 54,
      "start": 5.1615,
      "duration": 0.1663,
      "velocity": 108,
      "chip": "ym2612"
    },
    {
      "channel": 1,
      "note": 54,
      "start": 5.2124,
      "duration": 0.166,
      "velocity": 108,
      "chip": "ym2612"
    },
    {
      "channel": 0,
      "note": 35,
      "start": 5.3324,
      "duration": 0.3293,
      "velocity": 116,
      "chip": "ym2612"
    },
    {
      "channel": 2,
      "note": 59,
      "start": 5.3383,
      "duration": 0.3253,
      "velocity": 93,
      "chip": "ym2612"
    },
    {
      "channel": 4,
      "note": 35,
      "start": 5.3458,
      "duration": 0.3191,
      "velocity": 92,
      "chip": "ym2612"
    },
    {
      "channel": 1,
      "note": 35,
      "start": 5.3831,
      "duration": 0.3293,
      "velocity": 116,
      "chip": "ym2612"
    },
    {
      "channel": 3,
      "note": 59,
      "start": 5.389,
      "duration": 0.3253,
      "velocity": 93,
      "chip": "ym2612"
    },
    {
      "channel": 0,
      "note": 39,
      "start": 5.6617,
      "duration": 0.3333,
      "velocity": 116,
      "chip": "ym2612"
    },
    {
      "channel": 2,
      "note": 60,
      "start": 5.6636,
      "duration": 0.1663,
      "velocity": 93,
      "chip": "ym2612"
    },
    {
      "channel": 4,
      "note": 35,
      "start": 5.6695,
      "duration": 0.3287,
      "velocity": 103,
      "chip": "ym2612"
    },
    {
      "channel": 1,
      "note": 39,
      "start": 5.7124,
      "duration": 0.3334,
      "velocity": 116,
      "chip": "ym2612"
    },
    {
      "channel": 3,
      "note": 60,
      "start": 5.7143,
      "duration": 0.1665,
      "velocity": 93,
      "chip": "ym2612"
    },
    {
      "channel": 2,
      "note": 61,
      "start": 5.8299,
      "duration": 0.167,
      "velocity": 93,
      "chip": "ym2612"
    },
    {
      "channel": 3,
      "note": 61,
      "start": 5.8809,
      "duration": 0.1669,
      "velocity": 93,
      "chip": "ym2612"
    },
    {
      "channel": 0,
      "note": 37,
      "start": 5.9949,
      "duration": 0.3333,
      "velocity": 116,
      "chip": "ym2612"
    },
    {
      "channel": 2,
      "note": 63,
      "start": 5.9969,
      "duration": 0.3333,
      "velocity": 93,
      "chip": "ym2612"
    },
    {
      "channel": 4,
      "note": 39,
      "start": 6.0029,
      "duration": 0.3287,
      "velocity": 92,
      "chip": "ym2612"
    },
    {
      "channel": 1,
      "note": 37,
      "start": 6.0458,
      "duration": 0.3333,
      "velocity": 116,
      "chip": "ym2612"
    },
    {
      "channel": 3,
      "note": 63,
      "start": 6.0477,
      "duration": 0.3333,
      "velocity": 93,
      "chip": "ym2612"
    },
    {
      "channel": 0,
      "note": 35,
      "start": 6.3283,
      "duration": 0.3332,
      "velocity": 116,
      "chip": "ym2612"
    },
    {
      "channel": 2,
      "note": 64,
      "start": 6.3303,
      "duration": 0.1664,
      "velocity": 93,
      "chip": "ym2612"
    },
    {
      "channel": 4,
      "note": 47,
      "start": 6.3362,
      "duration": 0.3286,
      "velocity": 100,
      "chip": "ym2612"
    },
    {
      "channel": 1,
      "note": 35,
      "start": 6.3792,
      "duration": 0.3332,
      "velocity": 116,
      "chip": "ym2612"
    },
    {
      "channel": 3,
      "note": 64,
      "start": 6.3811,
      "duration": 0.1664,
      "velocity": 93,
      "chip": "ym2612"
    },
    {
      "channel": 2,
      "note": 65,
      "start": 6.4967,
      "duration": 0.1668,
      "velocity": 93,
      "chip": "ym2612"
    },
    {
      "channel": 3,
      "note": 65,
      "start": 6.5475,
      "duration": 0.1668,
      "velocity": 93,
      "chip": "ym2612"
    },
    {
      "channel": 0,
      "note": 41,
      "start": 6.6615,
      "duration": 0.3335,
      "velocity": 116,
      "chip": "ym2612"
    },
    {
      "channel": 2,
      "note": 66,
      "start": 6.6635,
      "duration": 0.3329,
      "velocity": 93,
      "chip": "ym2612"
    },
    {
      "channel": 4,
      "note": 35,
      "start": 6.6695,
      "duration": 0.3328,
      "velocity": 92,
      "chip": "ym2612"
    },
    {
      "channel": 1,
      "note": 41,
      "start": 6.7124,
      "duration": 0.3334,
      "velocity": 116,
      "chip": "ym2612"
    },
    {
      "channel": 3,
      "note": 66,
      "start": 6.7143,
      "duration": 0.3328,
      "velocity": 93,
      "chip": "ym2612"
    },
    {
      "channel": 0,
      "note": 42,
      "start": 6.9951,
      "duration": 0.3331,
      "velocity": 116,
      "chip": "ym2612"
    },
    {
      "channel": 2,
      "note": 42,
      "start": 7.001,
      "duration": 0.3291,
      "velocity": 74,
      "chip": "ym2612"
    },
    {
      "channel": 4,
      "note": 35,
      "start": 7.0068,
      "duration": 0.3246,
      "velocity": 103,
      "chip": "ym2612"
    },
    {
      "channel": 1,
      "note": 42,
      "start": 7.0458,
      "duration": 0.3331,
      "velocity": 116,
      "chip": "ym2612"
    },
    {
      "channel": 3,
      "note": 42,
      "start": 7.0517,
      "duration": 0.3291,
      "velocity": 74,
      "chip": "ym2612"
    },
    {
      "channel": 0,
      "note": 42,
      "start": 7.3282,
      "duration": 0.3332,
      "velocity": 116,
      "chip": "ym2612"
    },
    {
      "channel": 2,
      "note": 41,
      "start": 7.3302,
      "duration": 0.3332,
      "velocity": 74,
      "chip": "ym2612"
    },
    {
      "channel": 4,
      "note": 38,
      "start": 7.3361,
      "duration": 0.3286,
      "velocity": 92,
      "chip": "ym2612"
    },
    {
      "channel": 1,
      "note": 42,
      "start": 7.3789,
      "duration": 0.3333,
      "velocity": 116,
      "chip": "ym2612"
    },
    {
      "channel": 3,
      "note": 41,
      "start": 7.3809,
      "duration": 0.3333,
      "velocity": 74,
      "chip": "ym2612"
    },
    {
      "channel": 0,
      "note": 42,
      "start": 7.6614,
      "duration": 0.3337,
      "velocity": 116,
      "chip": "ym2612"
    },
    {
      "channel": 2,
      "note": 42,
      "start": 7.6634,
      "duration": 0.3329,
      "velocity": 74,
      "chip": "ym2612"
    },
    {
      "channel": 4,
      "note": 47,
      "start": 7.6694,
      "duration": 0.3329,
      "velocity": 100,
      "chip": "ym2612"
    },
    {
      "channel": 1,
      "note": 42,
      "start": 7.7122,
      "duration": 0.3335,
      "velocity": 116,
      "chip": "ym2612"
    },
    {
      "channel": 3,
      "note": 42,
      "start": 7.7142,
      "duration": 0.3329,
      "velocity": 74,
      "chip": "ym2612"
    },
    {
      "channel": 0,
      "note": 44,
      "start": 7.9951,
      "duration": 0.3331,
      "velocity": 116,
      "chip": "ym2612"
    },
    {
      "channel": 2,
      "note": 64,
      "start": 8.001,
      "duration": 0.6625,
      "velocity": 89,
      "chip": "ym2612"
    },
    {
      "channel": 4,
      "note": 37,
      "start": 8.007,
      "duration": 0.3244,
      "velocity": 92,
      "chip": "ym2612"
    },
    {
      "channel": 1,
      "note": 44,
      "start": 8.0458,
      "duration": 0.3333,
      "velocity": 116,
      "chip": "ym2612"
    },
    {
      "channel": 3,
      "note": 64,
      "start": 8.0517,
      "duration": 0.6627,
      "velocity": 89,
      "chip": "ym2612"
    },
    {
      "channel": 0,
      "note": 42,
      "start": 8.3282,
      "duration": 0.3334,
      "velocity": 116,
      "chip": "ym2612"
    },
    {
      "channel": 4,
      "note": 49,
      "start": 8.336,
      "duration": 0.3288,
      "velocity": 100,
      "chip": "ym2612"
    },
    {
      "channel": 1,
      "note": 42,
      "start": 8.379,
      "duration": 0.3333,
      "velocity": 116,
      "chip": "ym2612"
    },
    {
      "channel": 0,
      "note": 40,
      "start": 8.6616,
      "duration": 0.3333,
      "velocity": 116,
      "chip": "ym2612"
    },
    {
      "channel": 2,
      "note": 61,
      "start": 8.6636,
      "duration": 0.6666,
      "velocity": 89,
      "chip": "ym2612"
    },
    {
      "channel": 4,
      "note": 39,
      "start": 8.6695,
      "duration": 0.3286,
      "velocity": 92,
      "chip": "ym2612"
    },
    {
      "channel": 1,
      "note": 40,
      "start": 8.7124,
      "duration": 0.3332,
      "velocity": 116,
      "chip": "ym2612"
    },
    {
      "channel": 3,
      "note": 61,
      "start": 8.7144,
      "duration": 0.6666,
      "velocity": 89,
      "chip": "ym2612"
    },
    {
      "channel": 0,
      "note": 39,
      "start": 8.995,
      "duration": 0.3332,
      "velocity": 116,
      "chip": "ym2612"
    },
    {
      "channel": 4,
      "note": 47,
      "start": 9.0027,
      "duration": 0.3288,
      "velocity": 100,
      "chip": "ym2612"
    },
    {
      "channel": 1,
      "note": 39,
      "start": 9.0456,
      "duration": 0.3334,
      "velocity": 116,
      "chip": "ym2612"
    },
    {
      "channel": 0,
      "note": 37,
      "start": 9.3282,
      "duration": 0.3334,
      "velocity": 116,
      "chip": "ym2612"
    },
    {
      "channel": 2,
      "note": 57,
      "start": 9.3302,
      "duration": 0.3334,
      "velocity": 89,
      "chip": "ym2612"
    },
    {
      "channel": 4,
      "note": 40,
      "start": 9.3361,
      "duration": 0.3288,
      "velocity": 92,
      "chip": "ym2612"
    },
    {
      "channel": 1,
      "note": 37,
      "start": 9.379,
      "duration": 0.3334,
      "velocity": 116,
      "chip": "ym2612"
    },
    {
      "channel": 3,
      "note": 57,
      "start": 9.381,
      "duration": 0.3334,
      "velocity": 89,
      "chip": "ym2612"
    },
    {
      "channel": 0,
      "note": 35,
      "start": 9.6616,
      "duration": 0.3334,
      "velocity": 116,
      "chip": "ym2612"
    },
    {
      "channel": 2,
      "note": 55,
      "start": 9.6636,
      "duration": 0.3334,
      "velocity": 89,
      "chip": "ym2612"
    },
    {
      "channel": 4,
      "note": 40,
      "start": 9.6694,
      "duration": 0.3288,
      "velocity": 103,
      "chip": "ym2612"
    },
    {
      "channel": 1,
      "note": 35,
      "start": 9.7124,
      "duration": 0.3333,
      "velocity": 116,
      "chip": "ym2612"
    },
    {
      "channel": 3,
      "note": 55,
      "start": 9.7144,
      "duration": 0.3332,
      "velocity": 89,
      "chip": "ym2612"
    },
    {
      "channel": 0,
      "note": 34,
      "start": 9.995,
      "duration": 0.3332,
      "velocity": 116,
      "chip": "ym2612"
    },
    {
      "channel": 2,
      "note": 54,
      "start": 9.997,
      "duration": 0.6704,
      "velocity": 89,
      "chip": "ym2612"
    },
    {
      "channel": 4,
      "note": 42,
      "start": 10.0029,
      "duration": 0.3285,
      "velocity": 92,
      "chip": "ym2612"
    },
    {
      "channel": 1,
      "note": 34,
      "start": 10.0457,
      "duration": 0.3333,
      "velocity": 116,
      "chip": "ym2612"
    },
    {
      "channel": 3,
      "note": 54,
      "start": 10.0477,
      "duration": 0.67,
      "velocity": 89,
      "chip": "ym2612"
    },
    {
      "channel": 0,
      "note": 32,
      "start": 10.3283,
      "duration": 0.3331,
      "velocity": 116,
      "chip": "ym2612"
    },
    {
      "channel": 4,
      "note": 42,
      "start": 10.3359,
      "duration": 0.3375,
      "velocity": 103,
      "chip": "ym2612"
    },
    {
      "channel": 1,
      "note": 32,
      "start": 10.379,
      "duration": 0.3328,
      "velocity": 116,
      "chip": "ym2612"
    },
    {
      "channel": 0,
      "note": 64,
      "start": 10.666,
      "duration": 0.6622,
      "velocity": 94,
      "chip": "ym2612"
    },
    {
      "channel": 2,
      "note": 47,
      "start": 10.672,
      "duration": 0.3247,
      "velocity": 74,
      "chip": "ym2612"
    },
    {
      "channel": 4,
      "note": 35,
      "start": 10.6798,
      "duration": 0.3183,
      "velocity": 92,
      "chip": "ym2612"
    },
    {
      "channel": 1,
      "note": 64,
      "start": 10.7164,
      "duration": 0.6626,
      "velocity": 94,
      "chip": "ym2612"
    },
    {
      "channel": 3,
      "note": 47,
      "start": 10.7223,
      "duration": 0.3253,
      "velocity": 74,
      "chip": "ym2612"
    },
    {
      "channel": 2,
      "note": 46,
      "start": 10.9967,
      "duration": 0.1665,
      "velocity": 74,
      "chip": "ym2612"
    },
    {
      "channel": 4,
      "note": 35,
      "start": 11.0026,
      "duration": 0.3289,
      "velocity": 103,
      "chip": "ym2612"
    },
    {
      "channel": 3,
      "note": 46,
      "start": 11.0477,
      "duration": 0.1665,
      "velocity": 74,
      "chip": "ym2612"
    },
    {
      "channel": 2,
      "note": 45,
      "start": 11.1632,
      "duration": 0.167,
      "velocity": 74,
      "chip": "ym2612"
    },
    {
      "channel": 3,
      "note": 45,
      "start": 11.2142,
      "duration": 0.1668,
      "velocity": 74,
      "chip": "ym2612"
    },
    {
      "channel": 0,
      "note": 59,
      "start": 11.3283,
      "duration": 0.6667,
      "velocity": 94,
      "chip": "ym2612"
    },
    {
      "channel": 2,
      "note": 44,
      "start": 11.3302,
      "duration": 0.3332,
      "velocity": 74,
      "chip": "ym2612"
    },
    {
      "channel": 4,
      "note": 42,
      "start": 11.3361,
      "duration": 0.3288,
      "velocity": 92,
      "chip": "ym2612"
    },
    {
      "channel": 1,
      "note": 59,
      "start": 11.3791,
      "duration": 0.6666,
      "velocity": 94,
      "chip": "ym2612"
    },
    {
      "channel": 3,
      "note": 44,
      "start": 11.3811,
      "duration": 0.3331,
      "velocity": 74,
      "chip": "ym2612"
    },
    {
      "channel": 2,
      "note": 45,
      "start": 11.6635,
      "duration": 0.1666,
      "velocity": 74,
      "chip": "ym2612"
    },
    {
      "channel": 4,
      "note": 35,
      "start": 11.6695,
      "duration": 0.3288,
      "velocity": 103,
      "chip": "ym2612"
    },
    {
      "channel": 3,
      "note": 45,
      "start": 11.7141,
      "duration": 0.1668,
      "velocity": 74,
      "chip": "ym2612"
    },
    {
      "channel": 2,
      "note": 46,
      "start": 11.83,
      "duration": 0.1669,
      "velocity": 74,
      "chip": "ym2612"
    },
    {
      "channel": 3,
      "note": 46,
      "start": 11.881,
      "duration": 0.1667,
      "velocity": 74,
      "chip": "ym2612"
    },
    {
      "channel": 0,
      "note": 60,
      "start": 11.995,
      "duration": 0.6667,
      "velocity": 94,
      "chip": "ym2612"
    },
    {
      "channel": 2,
      "note": 47,
      "start": 11.997,
      "duration": 0.3332,
      "velocity": 74,
      "chip": "ym2612"
    },
    {
      "channel": 4,
      "note": 43,
      "start": 12.0029,
      "duration": 0.3285,
      "velocity": 92,
      "chip": "ym2612"
    },
    {
      "channel": 1,
      "note": 60,
      "start": 12.0457,
      "duration": 0.6666,
      "velocity": 94,
      "chip": "ym2612"
    },
    {
      "channel": 3,
      "note": 47,
      "start": 12.0477,
      "duration": 0.3332,
      "velocity": 74,
      "chip": "ym2612"
    },
    {
      "channel": 2,
      "note": 45,
      "start": 12.3301,
      "duration": 0.1665,
      "velocity": 74,
      "chip": "ym2612"
    },
    {
      "channel": 4,
      "note": 43,
      "start": 12.336,
      "duration": 0.3289,
      "velocity": 103,
      "chip": "ym2612"
    },
    {
      "channel": 3,
      "note": 45,
      "start": 12.3808,
      "duration": 0.1667,
      "velocity": 74,
      "chip": "ym2612"
    },
    {
      "channel": 2,
      "note": 44,
      "start": 12.4966,
      "duration": 0.167,
      "velocity": 74,
      "chip": "ym2612"
    },
    {
      "channel": 3,
      "note": 44,
      "start": 12.5475,
      "duration": 0.167,
      "velocity": 74,
      "chip": "ym2612"
    },
    {
      "channel": 0,
      "note": 55,
      "start": 12.6617,
      "duration": 0.6666,
      "velocity": 94,
      "chip": "ym2612"
    },
    {
      "channel": 2,
      "note": 43,
      "start": 12.6636,
      "duration": 0.3331,
      "velocity": 74,
      "chip": "ym2612"
    },
    {
      "channel": 4,
      "note": 38,
      "start": 12.6695,
      "duration": 0.3285,
      "velocity": 92,
      "chip": "ym2612"
    },
    {
      "channel": 1,
      "note": 55,
      "start": 12.7124,
      "duration": 0.6667,
      "velocity": 94,
      "chip": "ym2612"
    },
    {
      "channel": 3,
      "note": 43,
      "start": 12.7145,
      "duration": 0.2832,
      "velocity": 74,
      "chip": "ym2612"
    },
    {
      "channel": 4,
      "note": 43,
      "start": 13.0027,
      "duration": 0.3289,
      "velocity": 103,
      "chip": "ym2612"
    },
    {
      "channel": 0,
      "note": 64,
      "start": 13.3283,
      "duration": 0.6666,
      "velocity": 94,
      "chip": "ym2612"
    },
    {
      "channel": 2,
      "note": 47,
      "start": 13.3302,
      "duration": 0.3332,
      "velocity": 74,
      "chip": "ym2612"
    },
    {
      "channel": 4,
      "note": 35,
      "start": 13.3362,
      "duration": 0.3284,
      "velocity": 92,
      "chip": "ym2612"
    },
    {
      "channel": 1,
      "note": 64,
      "start": 13.3791,
      "duration": 0.6667,
      "velocity": 94,
      "chip": "ym2612"
    },
    {
      "channel": 3,
      "note": 47,
      "start": 13.3811,
      "duration": 0.3333,
      "velocity": 74,
      "chip": "ym2612"
    },
    {
      "channel": 2,
      "note": 46,
      "start": 13.6634,
      "duration": 0.1665,
      "velocity": 74,
      "chip": "ym2612"
    },
    {
      "channel": 4,
      "note": 35,
      "start": 13.6692,
      "duration": 0.329,
      "velocity": 103,
      "chip": "ym2612"
    },
    {
      "channel": 3,
      "note": 46,
      "start": 13.7143,
      "duration": 0.1665,
      "velocity": 74,
      "chip": "ym2612"
    },
    {
      "channel": 2,
      "note": 45,
      "start": 13.8299,
      "duration": 0.167,
      "velocity": 74,
      "chip": "ym2612"
    },
    {
      "channel": 3,
      "note": 45,
      "start": 13.8809,
      "duration": 0.1668,
      "velocity": 74,
      "chip": "ym2612"
    },
    {
      "channel": 0,
      "note": 59,
      "start": 13.9949,
      "duration": 0.6667,
      "velocity": 94,
      "chip": "ym2612"
    },
    {
      "channel": 2,
      "note": 44,
      "start": 13.9969,
      "duration": 0.3332,
      "velocity": 74,
      "chip": "ym2612"
    },
    {
      "channel": 4,
      "note": 42,
      "start": 14.0028,
      "duration": 0.3288,
      "velocity": 92,
      "chip": "ym2612"
    },
    {
      "channel": 1,
      "note": 59,
      "start": 14.0458,
      "duration": 0.6666,
      "velocity": 94,
      "chip": "ym2612"
    },
    {
      "channel": 3,
      "note": 44,
      "start": 14.0477,
      "duration": 0.3331,
      "velocity": 74,
      "chip": "ym2612"
    },
    {
      "channel": 2,
      "note": 45,
      "start": 14.3301,
      "duration": 0.1666,
      "velocity": 74,
      "chip": "ym2612"
    },
    {
      "channel": 4,
      "note": 35,
      "start": 14.3362,
      "duration": 0.3288,
      "velocity": 103,
      "chip": "ym2612"
    },
    {
      "channel": 3,
      "note": 45,
      "start": 14.3808,
      "duration": 0.1668,
      "velocity": 74,
      "chip": "ym2612"
    },
    {
      "channel": 2,
      "note": 46,
      "start": 14.4967,
      "duration": 0.1669,
      "velocity": 74,
      "chip": "ym2612"
    },
    {
      "channel": 3,
      "note": 46,
      "start": 14.5477,
      "duration": 0.1667,
      "velocity": 74,
      "chip": "ym2612"
    },
    {
      "channel": 0,
      "note": 60,
      "start": 14.6617,
      "duration": 0.3333,
      "velocity": 94,
      "chip": "ym2612"
    },
    {
      "channel": 2,
      "note": 47,
      "start": 14.6636,
      "duration": 0.3333,
      "velocity": 74,
      "chip": "ym2612"
    },
    {
      "channel": 4,
      "note": 43,
      "start": 14.6696,
      "duration": 0.3286,
      "velocity": 92,
      "chip": "ym2612"
    },
    {
      "channel": 1,
      "note": 60,
      "start": 14.7124,
      "duration": 0.3334,
      "velocity": 94,
      "chip": "ym2612"
    },
    {
      "channel": 3,
      "note": 47,
      "start": 14.7143,
      "duration": 0.3334,
      "velocity": 74,
      "chip": "ym2612"
    },
    {
      "channel": 0,
      "note": 59,
      "start": 14.9949,
      "duration": 0.3333,
      "velocity": 94,
      "chip": "ym2612"
    },
    {
      "channel": 2,
      "note": 45,
      "start": 14.9969,
      "duration": 0.1664,
      "velocity": 74,
      "chip": "ym2612"
    },
    {
      "channel": 4,
      "note": 43,
      "start": 15.0027,
      "duration": 0.3288,
      "velocity": 103,
      "chip": "ym2612"
    },
    {
      "channel": 1,
      "note": 59,
      "start": 15.0458,
      "duration": 0.3332,
      "velocity": 94,
      "chip": "ym2612"
    },
    {
      "channel": 3,
      "note": 45,
      "start": 15.0477,
      "duration": 0.1664,
      "velocity": 74,
      "chip": "ym2612"
    },
    {
      "channel": 2,
      "note": 44,
      "start": 15.1633,
      "duration": 0.167,
      "velocity": 74,
      "chip": "ym2612"
    },
    {
      "channel": 3,
      "note": 44,
      "start": 15.2141,
      "duration": 0.1669,
      "velocity": 74,
      "chip": "ym2612"
    },
    {
      "channel": 0,
      "note": 61,
      "start": 15.3283,
      "duration": 0.3332,
      "velocity": 94,
      "chip": "ym2612"
    },
    {
      "channel": 2,
      "note": 43,
      "start": 15.3303,
      "duration": 0.3332,
      "velocity": 74,
      "chip": "ym2612"
    },
    {
      "channel": 4,
      "note": 38,
      "start": 15.3362,
      "duration": 0.3286,
      "velocity": 92,
      "chip": "ym2612"
    },
    {
      "channel": 1,
      "note": 61,
      "start": 15.379,
      "duration": 0.3333,
      "velocity": 94,
      "chip": "ym2612"
    },
    {
      "channel": 3,
      "note": 43,
      "start": 15.3811,
      "duration": 0.2833,
      "velocity": 74,
      "chip": "ym2612"
    },
    {
      "channel": 0,
      "note": 63,
      "start": 15.6615,
      "duration": 0.3334,
      "velocity": 94,
      "chip": "ym2612"
    },
    {
      "channel": 4,
      "note": 43,
      "start": 15.6695,
      "duration": 0.3288,
      "velocity": 103,
      "chip": "ym2612"
    },
    {
      "channel": 1,
      "note": 63,
      "start": 15.7124,
      "duration": 0.3334,
      "velocity": 94,
      "chip": "ym2612"
    },
    {
      "channel": 0,
      "note": 64,
      "start": 15.9949,
      "duration": 0.6667,
      "velocity": 94,
      "chip": "ym2612"
    },
    {
      "channel": 2,
      "note": 47,
      "start": 15.9969,
      "duration": 0.3332,
      "velocity": 74,
      "chip": "ym2612"
    },
    {
      "channel": 4,
      "note": 35,
      "start": 16.0029,
      "duration": 0.3284,
      "velocity": 92,
      "chip": "ym2612"
    },
    {
      "channel": 1,
      "note": 64,
      "start": 16.0458,
      "duration": 0.6666,
      "velocity": 94,
      "chip": "ym2612"
    },
    {
      "channel": 3,
      "note": 47,
      "start": 16.0477,
      "duration": 0.3333,
      "velocity": 74,
      "chip": "ym2612"
    },
    {
      "channel": 2,
      "note": 46,
      "start": 16.33,
      "duration": 0.1665,
      "velocity": 74,
      "chip": "ym2612"
    },
    {
      "channel": 4,
      "note": 35,
      "start": 16.3358,
      "duration": 0.329,
      "velocity": 103,
      "chip": "ym2612"
    },
    {
      "channel": 3,
      "note": 46,
      "start": 16.381,
      "duration": 0.1665,
      "velocity": 74,
      "chip": "ym2612"
    },
    {
      "channel": 2,
      "note": 45,
      "start": 16.4966,
      "duration": 0.1669,
      "velocity": 74,
      "chip": "ym2612"
    },
    {
      "channel": 3,
      "note": 45,
      "start": 16.5475,
      "duration": 0.1669,
      "velocity": 74,
      "chip": "ym2612"
    },
    {
      "channel": 0,
      "note": 59,
      "start": 16.6616,
      "duration": 0.6667,
      "velocity": 94,
      "chip": "ym2612"
    },
    {
      "channel": 2,
      "note": 44,
      "start": 16.6636,
      "duration": 0.3332,
      "velocity": 74,
      "chip": "ym2612"
    },
    {
      "channel": 4,
      "note": 42,
      "start": 16.6695,
      "duration": 0.3288,
      "velocity": 92,
      "chip": "ym2612"
    },
    {
      "channel": 1,
      "note": 59,
      "start": 16.7124,
      "duration": 0.6666,
      "velocity": 94,
      "chip": "ym2612"
    },
    {
      "channel": 3,
      "note": 44,
      "start": 16.7144,
      "duration": 0.3331,
      "velocity": 74,
      "chip": "ym2612"
    },
    {
      "channel": 2,
      "note": 45,
      "start": 16.9968,
      "duration": 0.1665,
      "velocity": 74,
      "chip": "ym2612"
    },
    {
      "channel": 4,
      "note": 35,
      "start": 17.0029,
      "duration": 0.3288,
      "velocity": 103,
      "chip": "ym2612"
    },
    {
      "channel": 3,
      "note": 45,
      "start": 17.0475,
      "duration": 0.1668,
      "velocity": 74,
      "chip": "ym2612"
    },
    {
      "channel": 2,
      "note": 46,
      "start": 17.1634,
      "duration": 0.1669,
      "velocity": 74,
      "chip": "ym2612"
    },
    {
      "channel": 3,
      "note": 46,
      "start": 17.2143,
      "duration": 0.1667,
      "velocity": 74,
      "chip": "ym2612"
    },
    {
      "channel": 0,
      "note": 60,
      "start": 17.3283,
      "duration": 0.6666,
      "velocity": 94,
      "chip": "ym2612"
    },
    {
      "channel": 2,
      "note": 47,
      "start": 17.3303,
      "duration": 0.1663,
      "velocity": 74,
      "chip": "ym2612"
    },
    {
      "channel": 4,
      "note": 43,
      "start": 17.3363,
      "duration": 0.3286,
      "velocity": 92,
      "chip": "ym2612"
    },
    {
      "channel": 1,
      "note": 60,
      "start": 17.379,
      "duration": 0.6666,
      "velocity": 94,
      "chip": "ym2612"
    },
    {
      "channel": 3,
      "note": 47,
      "start": 17.381,
      "duration": 0.1665,
      "velocity": 74,
      "chip": "ym2612"
    },
    {
      "channel": 2,
      "note": 49,
      "start": 17.4966,
      "duration": 0.1669,
      "velocity": 74,
      "chip": "ym2612"
    },
    {
      "channel": 3,
      "note": 49,
      "start": 17.5475,
      "duration": 0.1667,
      "velocity": 74,
      "chip": "ym2612"
    },
    {
      "channel": 2,
      "note": 50,
      "start": 17.6634,
      "duration": 0.1665,
      "velocity": 74,
      "chip": "ym2612"
    },
    {
      "channel": 4,
      "note": 43,
      "start": 17.6694,
      "duration": 0.329,
      "velocity": 103,
      "chip": "ym2612"
    },
    {
      "channel": 3,
      "note": 50,
      "start": 17.7143,
      "duration": 0.1667,
      "velocity": 74,
      "chip": "ym2612"
    },
    {
      "channel": 2,
      "note": 51,
      "start": 17.83,
      "duration": 0.1669,
      "velocity": 74,
      "chip": "ym2612"
    },
    {
      "channel": 3,
      "note": 51,
      "start": 17.8809,
      "duration": 0.1667,
      "velocity": 74,
      "chip": "ym2612"
    },
    {
      "channel": 0,
      "note": 57,
      "start": 17.995,
      "duration": 0.6666,
      "velocity": 94,
      "chip": "ym2612"
    },
    {
      "channel": 2,
      "note": 52,
      "start": 17.997,
      "duration": 0.3331,
      "velocity": 74,
      "chip": "ym2612"
    },
    {
      "channel": 4,
      "note": 38,
      "start": 18.003,
      "duration": 0.3284,
      "velocity": 92,
      "chip": "ym2612"
    },
    {
      "channel": 1,
      "note": 57,
      "start": 18.0457,
      "duration": 0.6667,
      "velocity": 94,
      "chip": "ym2612"
    },
    {
      "channel": 3,
      "note": 52,
      "start": 18.0477,
      "duration": 0.3333,
      "velocity": 74,
      "chip": "ym2612"
    },
    {
      "channel": 2,
      "note": 54,
      "start": 18.33,
      "duration": 0.3335,
      "velocity": 74,
      "chip": "ym2612"
    },
    {
      "channel": 4,
      "note": 43,
      "start": 18.336,
      "duration": 0.3289,
      "velocity": 103,
      "chip": "ym2612"
    },
    {
      "channel": 3,
      "note": 54,
      "start": 18.381,
      "duration": 0.3335,
      "velocity": 74,
      "chip": "ym2612"
    },
    {
      "channel": 0,
      "note": 69,
      "start": 18.6616,
      "duration": 0.6667,
      "velocity": 94,
      "chip": "ym2612"
    },
    {
      "channel": 2,
      "note": 55,
      "start": 18.6636,
      "duration": 0.6666,
      "velocity": 74,
      "chip": "ym2612"
    },
    {
      "channel": 4,
      "note": 40,
      "start": 18.6695,
      "duration": 0.3284,
      "velocity": 92,
      "chip": "ym2612"
    },
    {
      "channel": 1,
      "note": 69,
      "start": 18.7124,
      "duration": 0.6666,
      "velocity": 94,
      "chip": "ym2612"
    },
    {
      "channel": 3,
      "note": 55,
      "start": 18.7145,
      "duration": 0.6665,
      "velocity": 74,
      "chip": "ym2612"
    },
    {
      "channel": 4,
      "note": 43,
      "start": 19.0026,
      "duration": 0.3289,
      "velocity": 103,
      "chip": "ym2612"
    },
    {
      "channel": 0,
      "note": 64,
      "start": 19.3283,
      "duration": 0.6667,
      "velocity": 94,
      "chip": "ym2612"
    },
    {
      "channel": 2,
      "note": 52,
      "start": 19.3302,
      "duration": 0.6667,
      "velocity": 74,
      "chip": "ym2612"
    },
    {
      "channel": 4,
      "note": 35,
      "start": 19.3361,
      "duration": 0.3284,
      "velocity": 92,
      "chip": "ym2612"
    },
    {
      "channel": 1,
      "note": 64,
      "start": 19.3791,
      "duration": 0.6666,
      "velocity": 94,
      "chip": "ym2612"
    },
    {
      "channel": 3,
      "note": 52,
      "start": 19.3811,
      "duration": 0.6666,
      "velocity": 74,
      "chip": "ym2612"
    },
    {
      "channel": 4,
      "note": 52,
      "start": 19.6692,
      "duration": 0.3291,
      "velocity": 100,
      "chip": "ym2612"
    },
    {
      "channel": 0,
      "note": 60,
      "start": 19.995,
      "duration": 0.3333,
      "velocity": 94,
      "chip": "ym2612"
    },
    {
      "channel": 2,
      "note": 49,
      "start": 19.997,
      "duration": 0.3333,
      "velocity": 74,
      "chip": "ym2612"
    },
    {
      "channel": 4,
      "note": 43,
      "start": 20.0029,
      "duration": 0.3285,
      "velocity": 92,
      "chip": "ym2612"
    },
    {
      "channel": 1,
      "note": 60,
      "start": 20.0457,
      "duration": 0.3334,
      "velocity": 94,
      "chip": "ym2612"
    },
    {
      "channel": 3,
      "note": 49,
      "start": 20.0477,
      "duration": 0.3335,
      "velocity": 74,
      "chip": "ym2612"
    },
    {
      "channel": 0,
      "note": 59,
      "start": 20.3283,
      "duration": 0.3334,
      "velocity": 94,
      "chip": "ym2612"
    },
    {
      "channel": 2,
      "note": 46,
      "start": 20.3302,
      "duration": 0.3333,
      "velocity": 74,
      "chip": "ym2612"
    },
    {
      "channel": 4,
      "note": 43,
      "start": 20.336,
      "duration": 0.3289,
      "velocity": 103,
      "chip": "ym2612"
    },
    {
      "channel": 1,
      "note": 59,
      "start": 20.3791,
      "duration": 0.3333,
      "velocity": 94,
      "chip": "ym2612"
    },
    {
      "channel": 3,
      "note": 46,
      "start": 20.3812,
      "duration": 0.3333,
      "velocity": 74,
      "chip": "ym2612"
    },
    {
      "channel": 0,
      "note": 61,
      "start": 20.6617,
      "duration": 0.3332,
      "velocity": 94,
      "chip": "ym2612"
    },
    {
      "channel": 2,
      "note": 43,
      "start": 20.6636,
      "duration": 0.3332,
      "velocity": 74,
      "chip": "ym2612"
    },
    {
      "channel": 4,
      "note": 42,
      "start": 20.6695,
      "duration": 0.3286,
      "velocity": 92,
      "chip": "ym2612"
    },
    {
      "channel": 1,
      "note": 61,
      "start": 20.7125,
      "duration": 0.3332,
      "velocity": 94,
      "chip": "ym2612"
    },
    {
      "channel": 3,
      "note": 43,
      "start": 20.7146,
      "duration": 0.3332,
      "velocity": 74,
      "chip": "ym2612"
    },
    {
      "channel": 0,
      "note": 63,
      "start": 20.9949,
      "duration": 0.3335,
      "velocity": 94,
      "chip": "ym2612"
    },
    {
      "channel": 2,
      "note": 42,
      "start": 20.9968,
      "duration": 0.3376,
      "velocity": 74,
      "chip": "ym2612"
    },
    {
      "channel": 4,
      "note": 34,
      "start": 21.0028,
      "duration": 0.3395,
      "velocity": 103,
      "chip": "ym2612"
    },
    {
      "channel": 1,
      "note": 63,
      "start": 21.0457,
      "duration": 0.2,
      "velocity": 94,
      "chip": "ym2612"
    },
    {
      "channel": 3,
      "note": 42,
      "start": 21.0478,
      "duration": 0.1999,
      "velocity": 74,
      "chip": "ym2612"
    },
    {
      "channel": 0,
      "note": 34,
      "start": 21.333,
      "duration": 0.3286,
      "velocity": 116,
      "chip": "ym2612"
    },
    {
      "channel": 2,
      "note": 59,
      "start": 21.3391,
      "duration": 0.3247,
      "velocity": 100,
      "chip": "ym2612"
    },
    {
      "channel": 4,
      "note": 35,
      "start": 21.3467,
      "duration": 0.3184,
      "velocity": 92,
      "chip": "ym2612"
    },
    {
      "channel": 1,
      "note": 35,
      "start": 21.3832,
      "duration": 0.2864,
      "velocity": 116,
      "chip": "ym2612"
    },
    {
      "channel": 3,
      "note": 59,
      "start": 21.3891,
      "duration": 0.2805,
      "velocity": 100,
      "chip": "ym2612"
    },
    {
      "channel": 0,
      "note": 38,
      "start": 21.6617,
      "duration": 0.008,
      "velocity": 116,
      "chip": "ym2612"
    },
    {
      "channel": 2,
      "note": 60,
      "start": 21.6638,
      "duration": 0.0059,
      "velocity": 100,
      "chip": "ym2612"
    }
  ]
}