{
  "track_name": "13 - Empire - The Final Assault",
  "duration_sec": 72.663,
  "sample_rate": 44100,
  "note_count": 1386,
  "unique_pitches": 53,
  "pitch_range": 70,
  "avg_note_duration": 0.2537,
  "reconstruction_stats": {
    "notes_reconstructed": 1386,
    "keyon_events": 1386,
    "keyoff_events": 1381,
    "orphan_keyons": 5,
    "unique_pitches": 53,
    "pitch_range": 70,
    "avg_duration_sec": 0.2537
  },
  "metadata": {
    "source": "G\\Gunstar Heroes\\13 - Empire - The Final Assault.vgz"
  },
  "notes": [
    {
      "channel": 0,
      "note": 34,
      "start": 0.0,
      "duration": 0.0611,
      "velocity": 92,
      "chip": "ym2612"
    },
    {
      "channel": 1,
      "note": 63,
      "start": 0.0011,
      "duration": 0.0603,
      "velocity": 127,
      "chip": "ym2612"
    },
    {
      "channel": 3,
      "note": 82,
      "start": 0.0023,
      "duration": 1.416,
      "velocity": 105,
      "chip": "ym2612"
    },
    {
      "channel": 4,
      "note": 82,
      "start": 0.0034,
      "duration": 0.0586,
      "velocity": 94,
      "chip": "ym2612"
    },
    {
      "channel": 2,
      "note": 77,
      "start": 0.0076,
      "duration": 1.4146,
      "velocity": 110,
      "chip": "ym2612"
    },
    {
      "channel": 1,
      "note": 65,
      "start": 0.0616,
      "duration": 0.1332,
      "velocity": 127,
      "chip": "ym2612"
    },
    {
      "channel": 4,
      "note": 82,
      "start": 0.0623,
      "duration": 0.1329,
      "velocity": 94,
      "chip": "ym2612"
    },
    {
      "channel": 0,
      "note": 34,
      "start": 0.1948,
      "duration": 0.0618,
      "velocity": 92,
      "chip": "ym2612"
    },
    {
      "channel": 1,
      "note": 70,
      "start": 0.195,
      "duration": 0.0617,
      "velocity": 127,
      "chip": "ym2612"
    },
    {
      "channel": 4,
      "note": 82,
      "start": 0.1954,
      "duration": 0.0617,
      "velocity": 94,
      "chip": "ym2612"
    },
    {
      "channel": 1,
      "note": 58,
      "start": 0.2569,
      "duration": 0.4875,
      "velocity": 127,
      "chip": "ym2612"
    },
    {
      "channel": 4,
      "note": 82,
      "start": 0.2574,
      "duration": 0.0717,
      "velocity": 94,
      "chip": "ym2612"
    },
    {
      "channel": 0,
      "note": 34,
      "start": 0.2669,
      "duration": 0.0615,
      "velocity": 92,
      "chip": "ym2612"
    },
    {
      "channel": 0,
      "note": 46,
      "start": 0.3287,
      "duration": 0.1332,
      "velocity": 92,
      "chip": "ym2612"
    },
    {
      "channel": 4,
      "note": 82,
      "start": 0.3295,
      "duration": 0.1329,
      "velocity": 94,
      "chip": "ym2612"
    },
    {
      "channel": 0,
      "note": 34,
      "start": 0.4621,
      "duration": 0.0611,
      "velocity": 92,
      "chip": "ym2612"
    },
    {
      "channel": 4,
      "note": 82,
      "start": 0.524,
      "duration": 0.1498,
      "velocity": 94,
      "chip": "ym2612"
    },
    {
      "channel": 0,
      "note": 34,
      "start": 0.6735,
      "duration": 0.0619,
      "velocity": 92,
      "chip": "ym2612"
    },
    {
      "channel": 4,
      "note": 82,
      "start": 0.674,
      "duration": 0.0617,
      "velocity": 94,
      "chip": "ym2612"
    },
    {
      "channel": 4,
      "note": 82,
      "start": 0.736,
      "duration": 0.0088,
      "velocity": 94,
      "chip": "ym2612"
    },
    {
      "channel": 0,
      "note": 34,
      "start": 0.7443,
      "duration": 0.0616,
      "velocity": 92,
      "chip": "ym2612"
    },
    {
      "channel": 1,
      "note": 63,
      "start": 0.7446,
      "duration": 0.0617,
      "velocity": 127,
      "chip": "ym2612"
    },
    {
      "channel": 4,
      "note": 82,
      "start": 0.745,
      "duration": 0.0618,
      "velocity": 94,
      "chip": "ym2612"
    },
    {
      "channel": 0,
      "note": 46,
      "start": 0.8062,
      "duration": 0.1499,
      "velocity": 92,
      "chip": "ym2612"
    },
    {
      "channel": 1,
      "note": 65,
      "start": 0.8065,
      "duration": 0.1498,
      "velocity": 127,
      "chip": "ym2612"
    },
    {
      "channel": 4,
      "note": 82,
      "start": 0.8071,
      "duration": 0.1495,
      "velocity": 94,
      "chip": "ym2612"
    },
    {
      "channel": 0,
      "note": 34,
      "start": 0.9563,
      "duration": 0.0618,
      "velocity": 92,
      "chip": "ym2612"
    },
    {
      "channel": 1,
      "note": 63,
      "start": 0.9565,
      "duration": 0.0618,
      "velocity": 127,
      "chip": "ym2612"
    },
    {
      "channel": 4,
      "note": 82,
      "start": 0.9567,
      "duration": 0.062,
      "velocity": 94,
      "chip": "ym2612"
    },
    {
      "channel": 1,
      "note": 65,
      "start": 1.0185,
      "duration": 0.1332,
      "velocity": 127,
      "chip": "ym2612"
    },
    {
      "channel": 4,
      "note": 82,
      "start": 1.0191,
      "duration": 0.133,
      "velocity": 94,
      "chip": "ym2612"
    },
    {
      "channel": 0,
      "note": 34,
      "start": 1.1517,
      "duration": 0.0618,
      "velocity": 92,
      "chip": "ym2612"
    },
    {
      "channel": 1,
      "note": 70,
      "start": 1.1519,
      "duration": 0.0617,
      "velocity": 127,
      "chip": "ym2612"
    },
    {
      "channel": 4,
      "note": 82,
      "start": 1.1523,
      "duration": 0.0617,
      "velocity": 94,
      "chip": "ym2612"
    },
    {
      "channel": 1,
      "note": 58,
      "start": 1.2138,
      "duration": 0.4875,
      "velocity": 127,
      "chip": "ym2612"
    },
    {
      "channel": 4,
      "note": 82,
      "start": 1.2143,
      "duration": 0.0707,
      "velocity": 94,
      "chip": "ym2612"
    },
    {
      "channel": 0,
      "note": 34,
      "start": 1.223,
      "duration": 0.0613,
      "velocity": 92,
      "chip": "ym2612"
    },
    {
      "channel": 0,
      "note": 46,
      "start": 1.2846,
      "duration": 0.1332,
      "velocity": 92,
      "chip": "ym2612"
    },
    {
      "channel": 4,
      "note": 82,
      "start": 1.2853,
      "duration": 0.1333,
      "velocity": 94,
      "chip": "ym2612"
    },
    {
      "channel": 0,
      "note": 34,
      "start": 1.418,
      "duration": 0.0619,
      "velocity": 92,
      "chip": "ym2612"
    },
    {
      "channel": 3,
      "note": 82,
      "start": 1.4185,
      "duration": 0.2119,
      "velocity": 105,
      "chip": "ym2612"
    },
    {
      "channel": 2,
      "note": 77,
      "start": 1.4226,
      "duration": 0.2126,
      "velocity": 110,
      "chip": "ym2612"
    },
    {
      "channel": 4,
      "note": 82,
      "start": 1.4807,
      "duration": 0.1501,
      "velocity": 94,
      "chip": "ym2612"
    },
    {
      "channel": 0,
      "note": 34,
      "start": 1.6302,
      "duration": 0.0623,
      "velocity": 92,
      "chip": "ym2612"
    },
    {
      "channel": 3,
      "note": 82,
      "start": 1.6308,
      "duration": 0.0621,
      "velocity": 105,
      "chip": "ym2612"
    },
    {
      "channel": 4,
      "note": 82,
      "start": 1.631,
      "duration": 0.062,
      "velocity": 94,
      "chip": "ym2612"
    },
    {
      "channel": 2,
      "note": 77,
      "start": 1.6354,
      "duration": 0.0614,
      "velocity": 110,
      "chip": "ym2612"
    },
    {
      "channel": 4,
      "note": 82,
      "start": 1.6932,
      "duration": 0.0083,
      "velocity": 94,
      "chip": "ym2612"
    },
    {
      "channel": 0,
      "note": 34,
      "start": 1.7012,
      "duration": 0.0085,
      "velocity": 92,
      "chip": "ym2612"
    },
    {
      "channel": 1,
      "note": 63,
      "start": 1.7015,
      "duration": 0.0086,
      "velocity": 127,
      "chip": "ym2612"
    },
    {
      "channel": 4,
      "note": 82,
      "start": 1.7018,
      "duration": 0.0088,
      "velocity": 94,
      "chip": "ym2612"
    },
    {
      "channel": 0,
      "note": 46,
      "start": 1.71,
      "duration": 0.01,
      "velocity": 92,
      "chip": "ym2612"
    },
    {
      "channel": 1,
      "note": 65,
      "start": 1.7102,
      "duration": 0.01,
      "velocity": 127,
      "chip": "ym2612"
    },
    {
      "channel": 3,
      "note": 85,
      "start": 1.7106,
      "duration": 1.4438,
      "velocity": 105,
      "chip": "ym2612"
    },
    {
      "channel": 4,
      "note": 82,
      "start": 1.7108,
      "duration": 0.0098,
      "velocity": 94,
      "chip": "ym2612"
    },
    {
      "channel": 2,
      "note": 80,
      "start": 1.7157,
      "duration": 1.4425,
      "velocity": 110,
      "chip": "ym2612"
    },
    {
      "channel": 0,
      "note": 34,
      "start": 1.7201,
      "duration": 0.0617,
      "velocity": 92,
      "chip": "ym2612"
    },
    {
      "channel": 1,
      "note": 70,
      "start": 1.7203,
      "duration": 0.7359,
      "velocity": 125,
      "chip": "ym2612"
    },
    {
      "channel": 4,
      "note": 82,
      "start": 1.7208,
      "duration": 0.0615,
      "velocity": 94,
      "chip": "ym2612"
    },
    {
      "channel": 4,
      "note": 82,
      "start": 1.7827,
      "duration": 0.1331,
      "velocity": 94,
      "chip": "ym2612"
    },
    {
      "channel": 0,
      "note": 34,
      "start": 1.9155,
      "duration": 0.0616,
      "velocity": 92,
      "chip": "ym2612"
    },
    {
      "channel": 4,
      "note": 82,
      "start": 1.9159,
      "duration": 0.0616,
      "velocity": 94,
      "chip": "ym2612"
    },
    {
      "channel": 4,
      "note": 82,
      "start": 1.9778,
      "duration": 0.071,
      "velocity": 94,
      "chip": "ym2612"
    },
    {
      "channel": 0,
      "note": 34,
      "start": 1.9864,
      "duration": 0.0616,
      "velocity": 92,
      "chip": "ym2612"
    },
    {
      "channel": 0,
      "note": 46,
      "start": 2.0483,
      "duration": 0.1332,
      "velocity": 92,
      "chip": "ym2612"
    },
    {
      "channel": 4,
      "note": 82,
      "start": 2.049,
      "duration": 0.1329,
      "velocity": 94,
      "chip": "ym2612"
    },
    {
      "channel": 0,
      "note": 34,
      "start": 2.1817,
      "duration": 0.0783,
      "velocity": 92,
      "chip": "ym2612"
    },
    {
      "channel": 4,
      "note": 82,
      "start": 2.2609,
      "duration": 0.1331,
      "velocity": 94,
      "chip": "ym2612"
    },
    {
      "channel": 0,
      "note": 34,
      "start": 2.3937,
      "duration": 0.0617,
      "velocity": 92,
      "chip": "ym2612"
    },
    {
      "channel": 4,
      "note": 82,
      "start": 2.3942,
      "duration": 0.0623,
      "velocity": 94,
      "chip": "ym2612"
    },
    {
      "channel": 4,
      "note": 82,
      "start": 2.4568,
      "duration": 0.008,
      "velocity": 94,
      "chip": "ym2612"
    },
    {
      "channel": 0,
      "note": 34,
      "start": 2.4644,
      "duration": 0.0783,
      "velocity": 92,
      "chip": "ym2612"
    },
    {
      "channel": 1,
      "note": 63,
      "start": 2.4646,
      "duration": 0.0784,
      "velocity": 125,
      "chip": "ym2612"
    },
    {
      "channel": 4,
      "note": 82,
      "start": 2.4651,
      "duration": 0.0784,
      "velocity": 94,
      "chip": "ym2612"
    },
    {
      "channel": 0,
      "note": 46,
      "start": 2.5429,
      "duration": 0.1332,
      "velocity": 92,
      "chip": "ym2612"
    },
    {
      "channel": 1,
      "note": 65,
      "start": 2.5432,
      "duration": 0.1332,
      "velocity": 125,
      "chip": "ym2612"
    },
    {
      "channel": 4,
      "note": 82,
      "start": 2.5438,
      "duration": 0.133,
      "velocity": 94,
      "chip": "ym2612"
    },
    {
      "channel": 0,
      "note": 34,
      "start": 2.6764,
      "duration": 0.0615,
      "velocity": 92,
      "chip": "ym2612"
    },
    {
      "channel": 1,
      "note": 70,
      "start": 2.6767,
      "duration": 0.2859,
      "velocity": 125,
      "chip": "ym2612"
    },
    {
      "channel": 4,
      "note": 82,
      "start": 2.677,
      "duration": 0.0615,
      "velocity": 94,
      "chip": "ym2612"
    },
    {
      "channel": 4,
      "note": 82,
      "start": 2.7387,
      "duration": 0.1331,
      "velocity": 94,
      "chip": "ym2612"
    },
    {
      "channel": 0,
      "note": 34,
      "start": 2.8715,
      "duration": 0.0785,
      "velocity": 92,
      "chip": "ym2612"
    },
    {
      "channel": 4,
      "note": 82,
      "start": 2.872,
      "duration": 0.0783,
      "velocity": 94,
      "chip": "ym2612"
    },
    {
      "channel": 4,
      "note": 82,
      "start": 2.9506,
      "duration": 0.0704,
      "velocity": 94,
      "chip": "ym2612"
    },
    {
      "channel": 0,
      "note": 34,
      "start": 2.9585,
      "duration": 0.0618,
      "velocity": 92,
      "chip": "ym2612"
    },
    {
      "channel": 1,
      "note": 68,
      "start": 2.9628,
      "duration": 0.1913,
      "velocity": 125,
      "chip": "ym2612"
    },
    {
      "channel": 0,
      "note": 46,
      "start": 3.0206,
      "duration": 0.1332,
      "velocity": 92,
      "chip": "ym2612"
    },
    {
      "channel": 4,
      "note": 82,
      "start": 3.0214,
      "duration": 0.1333,
      "velocity": 94,
      "chip": "ym2612"
    },
    {
      "channel": 0,
      "note": 46,
      "start": 3.154,
      "duration": 0.0783,
      "velocity": 92,
      "chip": "ym2612"
    },
    {
      "channel": 1,
      "note": 67,
      "start": 3.1542,
      "duration": 0.0872,
      "velocity": 125,
      "chip": "ym2612"
    },
    {
      "channel": 3,
      "note": 87,
      "start": 3.1546,
      "duration": 0.0872,
      "velocity": 105,
      "chip": "ym2612"
    },
    {
      "channel": 2,
      "note": 84,
      "start": 3.1585,
      "duration": 0.0876,
      "velocity": 110,
      "chip": "ym2612"
    },
    {
      "channel": 0,
      "note": 44,
      "start": 3.2326,
      "duration": 0.0085,
      "velocity": 92,
      "chip": "ym2612"
    },
    {
      "channel": 4,
      "note": 82,
      "start": 3.2331,
      "duration": 0.0089,
      "velocity": 94,
      "chip": "ym2612"
    },
    {
      "channel": 0,
      "note": 46,
      "start": 3.2413,
      "duration": 0.0091,
      "velocity": 92,
      "chip": "ym2612"
    },
    {
      "channel": 1,
      "note": 65,
      "start": 3.2416,
      "duration": 0.0181,
      "velocity": 125,
      "chip": "ym2612"
    },
    {
      "channel": 3,
      "note": 86,
      "start": 3.242,
      "duration": 0.018,
      "velocity": 105,
      "chip": "ym2612"
    },
    {
      "channel": 4,
      "note": 82,
      "start": 3.2422,
      "duration": 0.0088,
      "velocity": 94,
      "chip": "ym2612"
    },
    {
      "channel": 2,
      "note": 82,
      "start": 3.2464,
      "duration": 0.0191,
      "velocity": 110,
      "chip": "ym2612"
    },
    {
      "channel": 0,
      "note": 41,
      "start": 3.2507,
      "duration": 0.0087,
      "velocity": 92,
      "chip": "ym2612"
    },
    {
      "channel": 4,
      "note": 82,
      "start": 3.2513,
      "duration": 0.009,
      "velocity": 94,
      "chip": "ym2612"
    },
    {
      "channel": 0,
      "note": 46,
      "start": 3.2596,
      "duration": 0.0098,
      "velocity": 92,
      "chip": "ym2612"
    },
    {
      "channel": 1,
      "note": 63,
      "start": 3.2598,
      "duration": 0.0197,
      "velocity": 127,
      "chip": "ym2612"
    },
    {
      "channel": 3,
      "note": 84,
      "start": 3.2602,
      "duration": 0.0196,
      "velocity": 105,
      "chip": "ym2612"
    },
    {
      "channel": 4,
      "note": 82,
      "start": 3.2605,
      "duration": 0.0096,
      "velocity": 94,
      "chip": "ym2612"
    },
    {
      "channel": 2,
      "note": 80,
      "start": 3.2657,
      "duration": 0.0185,
      "velocity": 110,
      "chip": "ym2612"
    },
    {
      "channel": 0,
      "note": 39,
      "start": 3.2697,
      "duration": 0.0087,
      "velocity": 92,
      "chip": "ym2612"
    },
    {
      "channel": 4,
      "note": 82,
      "start": 3.2703,
      "duration": 0.0099,
      "velocity": 94,
      "chip": "ym2612"
    },
    {
      "channel": 0,
      "note": 34,
      "start": 3.2787,
      "duration": 0.0618,
      "velocity": 92,
      "chip": "ym2612"
    },
    {
      "channel": 1,
      "note": 63,
      "start": 3.2797,
      "duration": 0.061,
      "velocity": 127,
      "chip": "ym2612"
    },
    {
      "channel": 3,
      "note": 82,
      "start": 3.2801,
      "duration": 1.4654,
      "velocity": 105,
      "chip": "ym2612"
    },
    {
      "channel": 4,
      "note": 82,
      "start": 3.2805,
      "duration": 0.0607,
      "velocity": 94,
      "chip": "ym2612"
    },
    {
      "channel": 2,
      "note": 77,
      "start": 3.2844,
      "duration": 1.4648,
      "velocity": 110,
      "chip": "ym2612"
    },
    {
      "channel": 1,
      "note": 65,
      "start": 3.3409,
      "duration": 0.1332,
      "velocity": 127,
      "chip": "ym2612"
    },
    {
      "channel": 4,
      "note": 82,
      "start": 3.3416,
      "duration": 0.1329,
      "velocity": 94,
      "chip": "ym2612"
    },
    {
      "channel": 0,
      "note": 34,
      "start": 3.4741,
      "duration": 0.0785,
      "velocity": 92,
      "chip": "ym2612"
    },
    {
      "channel": 1,
      "note": 70,
      "start": 3.4743,
      "duration": 0.0784,
      "velocity": 127,
      "chip": "ym2612"
    },
    {
      "channel": 4,
      "note": 82,
      "start": 3.4747,
      "duration": 0.0784,
      "velocity": 94,
      "chip": "ym2612"
    },
    {
      "channel": 1,
      "note": 58,
      "start": 3.5529,
      "duration": 0.4865,
      "velocity": 127,
      "chip": "ym2612"
    },
    {
      "channel": 4,
      "note": 82,
      "start": 3.5534,
      "duration": 0.0707,
      "velocity": 94,
      "chip": "ym2612"
    },
    {
      "channel": 0,
      "note": 34,
      "start": 3.5618,
      "duration": 0.0617,
      "velocity": 92,
      "chip": "ym2612"
    },
    {
      "channel": 0,
      "note": 46,
      "start": 3.6237,
      "duration": 0.1332,
      "velocity": 92,
      "chip": "ym2612"
    },
    {
      "channel": 4,
      "note": 82,
      "start": 3.6245,
      "duration": 0.1329,
      "velocity": 94,
      "chip": "ym2612"
    },
    {
      "channel": 0,
      "note": 34,
      "start": 3.7571,
      "duration": 0.0781,
      "velocity": 92,
      "chip": "ym2612"
    },
    {
      "channel": 4,
      "note": 82,
      "start": 3.836,
      "duration": 0.1331,
      "velocity": 94,
      "chip": "ym2612"
    },
    {
      "channel": 0,
      "note": 34,
      "start": 3.9688,
      "duration": 0.0616,
      "velocity": 92,
      "chip": "ym2612"
    },
    {
      "channel": 4,
      "note": 82,
      "start": 3.9693,
      "duration": 0.0615,
      "velocity": 94,
      "chip": "ym2612"
    },
    {
      "channel": 4,
      "note": 82,
      "start": 4.031,
      "duration": 0.0086,
      "velocity": 94,
      "chip": "ym2612"
    },
    {
      "channel": 0,
      "note": 34,
      "start": 4.0394,
      "duration": 0.0781,
      "velocity": 92,
      "chip": "ym2612"
    },
    {
      "channel": 1,
      "note": 63,
      "start": 4.0395,
      "duration": 0.0783,
      "velocity": 127,
      "chip": "ym2612"
    },
    {
      "channel": 4,
      "note": 82,
      "start": 4.0399,
      "duration": 0.0785,
      "velocity": 94,
      "chip": "ym2612"
    },
    {
      "channel": 0,
      "note": 46,
      "start": 4.1178,
      "duration": 0.1332,
      "velocity": 92,
      "chip": "ym2612"
    },
    {
      "channel": 1,
      "note": 65,
      "start": 4.1181,
      "duration": 0.1332,
      "velocity": 127,
      "chip": "ym2612"
    },
    {
      "channel": 4,
      "note": 82,
      "start": 4.1187,
      "duration": 0.1328,
      "velocity": 94,
      "chip": "ym2612"
    },
    {
      "channel": 0,
      "note": 34,
      "start": 4.2512,
      "duration": 0.0618,
      "velocity": 92,
      "chip": "ym2612"
    },
    {
      "channel": 1,
      "note": 63,
      "start": 4.2514,
      "duration": 0.0618,
      "velocity": 127,
      "chip": "ym2612"
    },
    {
      "channel": 4,
      "note": 82,
      "start": 4.2517,
      "duration": 0.062,
      "velocity": 94,
      "chip": "ym2612"
    },
    {
      "channel": 1,
      "note": 65,
      "start": 4.3134,
      "duration": 0.1499,
      "velocity": 127,
      "chip": "ym2612"
    },
    {
      "channel": 4,
      "note": 82,
      "start": 4.314,
      "duration": 0.1497,
      "velocity": 94,
      "chip": "ym2612"
    },
    {
      "channel": 0,
      "note": 34,
      "start": 4.4633,
      "duration": 0.0617,
      "velocity": 92,
      "chip": "ym2612"
    },
    {
      "channel": 1,
      "note": 70,
      "start": 4.4635,
      "duration": 0.0617,
      "velocity": 127,
      "chip": "ym2612"
    },
    {
      "channel": 4,
      "note": 82,
      "start": 4.4639,
      "duration": 0.0615,
      "velocity": 94,
      "chip": "ym2612"
    },
    {
      "channel": 1,
      "note": 58,
      "start": 4.5253,
      "duration": 0.3712,
      "velocity": 127,
      "chip": "ym2612"
    },
    {
      "channel": 4,
      "note": 82,
      "start": 4.5255,
      "duration": 0.07,
      "velocity": 94,
      "chip": "ym2612"
    },
    {
      "channel": 0,
      "note": 34,
      "start": 4.5335,
      "duration": 0.0613,
      "velocity": 92,
      "chip": "ym2612"
    },
    {
      "channel": 0,
      "note": 46,
      "start": 4.5951,
      "duration": 0.1499,
      "velocity": 92,
      "chip": "ym2612"
    },
    {
      "channel": 4,
      "note": 82,
      "start": 4.5959,
      "duration": 0.15,
      "velocity": 94,
      "chip": "ym2612"
    },
    {
      "channel": 0,
      "note": 34,
      "start": 4.7452,
      "duration": 0.0616,
      "velocity": 92,
      "chip": "ym2612"
    },
    {
      "channel": 3,
      "note": 82,
      "start": 4.7458,
      "duration": 0.1322,
      "velocity": 105,
      "chip": "ym2612"
    },
    {
      "channel": 2,
      "note": 77,
      "start": 4.7494,
      "duration": 0.133,
      "velocity": 110,
      "chip": "ym2612"
    },
    {
      "channel": 4,
      "note": 82,
      "start": 4.8077,
      "duration": 0.0706,
      "velocity": 94,
      "chip": "ym2612"
    },
    {
      "channel": 0,
      "note": 34,
      "start": 4.8778,
      "duration": 0.0088,
      "velocity": 92,
      "chip": "ym2612"
    },
    {
      "channel": 3,
      "note": 82,
      "start": 4.8782,
      "duration": 0.0088,
      "velocity": 105,
      "chip": "ym2612"
    },
    {
      "channel": 4,
      "note": 82,
      "start": 4.8785,
      "duration": 0.0085,
      "velocity": 94,
      "chip": "ym2612"
    },
    {
      "channel": 2,
      "note": 77,
      "start": 4.8827,
      "duration": 0.0085,
      "velocity": 110,
      "chip": "ym2612"
    },
    {
      "channel": 4,
      "note": 82,
      "start": 4.8872,
      "duration": 0.0095,
      "velocity": 94,
      "chip": "ym2612"
    },
    {
      "channel": 0,
      "note": 34,
      "start": 4.8964,
      "duration": 0.0085,
      "velocity": 92,
      "chip": "ym2612"
    },
    {
      "channel": 1,
      "note": 63,
      "start": 4.8966,
      "duration": 0.0087,
      "velocity": 127,
      "chip": "ym2612"
    },
    {
      "channel": 4,
      "note": 82,
      "start": 4.897,
      "duration": 0.009,
      "velocity": 94,
      "chip": "ym2612"
    },
    {
      "channel": 0,
      "note": 46,
      "start": 4.9052,
      "duration": 0.0088,
      "velocity": 92,
      "chip": "ym2612"
    },
    {
      "channel": 1,
      "note": 65,
      "start": 4.9054,
      "duration": 0.0088,
      "velocity": 127,
      "chip": "ym2612"
    },
    {
      "channel": 3,
      "note": 85,
      "start": 4.9059,
      "duration": 0.9649,
      "velocity": 105,
      "chip": "ym2612"
    },
    {
      "channel": 4,
      "note": 82,
      "start": 4.9061,
      "duration": 0.0085,
      "velocity": 94,
      "chip": "ym2612"
    },
    {
      "channel": 2,
      "note": 82,
      "start": 4.9096,
      "duration": 0.9655,
      "velocity": 110,
      "chip": "ym2612"
    },
    {
      "channel": 0,
      "note": 34,
      "start": 4.9141,
      "duration": 0.0617,
      "velocity": 92,
      "chip": "ym2612"
    },
    {
      "channel": 1,
      "note": 63,
      "start": 4.9144,
      "duration": 0.0617,
      "velocity": 127,
      "chip": "ym2612"
    },
    {
      "channel": 4,
      "note": 82,
      "start": 4.9149,
      "duration": 0.0617,
      "velocity": 94,
      "chip": "ym2612"
    },
    {
      "channel": 1,
      "note": 65,
      "start": 4.9763,
      "duration": 0.1499,
      "velocity": 127,
      "chip": "ym2612"
    },
    {
      "channel": 4,
      "note": 82,
      "start": 4.9769,
      "duration": 0.1496,
      "velocity": 94,
      "chip": "ym2612"
    },
    {
      "channel": 0,
      "note": 34,
      "start": 5.1262,
      "duration": 0.0619,
      "velocity": 92,
      "chip": "ym2612"
    },
    {
      "channel": 1,
      "note": 70,
      "start": 5.1263,
      "duration": 0.0618,
      "velocity": 127,
      "chip": "ym2612"
    },
    {
      "channel": 4,
      "note": 82,
      "start": 5.1267,
      "duration": 0.0618,
      "velocity": 94,
      "chip": "ym2612"
    },
    {
      "channel": 1,
      "note": 73,
      "start": 5.1884,
      "duration": 0.6821,
      "velocity": 127,
      "chip": "ym2612"
    },
    {
      "channel": 4,
      "note": 82,
      "start": 5.1888,
      "duration": 0.0707,
      "velocity": 94,
      "chip": "ym2612"
    },
    {
      "channel": 0,
      "note": 34,
      "start": 5.1972,
      "duration": 0.0616,
      "velocity": 92,
      "chip": "ym2612"
    },
    {
      "channel": 0,
      "note": 46,
      "start": 5.259,
      "duration": 0.1499,
      "velocity": 92,
      "chip": "ym2612"
    },
    {
      "channel": 4,
      "note": 82,
      "start": 5.2598,
      "duration": 0.1495,
      "velocity": 94,
      "chip": "ym2612"
    },
    {
      "channel": 0,
      "note": 34,
      "start": 5.4091,
      "duration": 0.0614,
      "velocity": 92,
      "chip": "ym2612"
    },
    {
      "channel": 4,
      "note": 82,
      "start": 5.4713,
      "duration": 0.1331,
      "velocity": 94,
      "chip": "ym2612"
    },
    {
      "channel": 0,
      "note": 34,
      "start": 5.6041,
      "duration": 0.0616,
      "velocity": 92,
      "chip": "ym2612"
    },
    {
      "channel": 4,
      "note": 82,
      "start": 5.6046,
      "duration": 0.0615,
      "velocity": 94,
      "chip": "ym2612"
    },
    {
      "channel": 4,
      "note": 82,
      "start": 5.6663,
      "duration": 0.0092,
      "velocity": 94,
      "chip": "ym2612"
    },
    {
      "channel": 0,
      "note": 34,
      "start": 5.6752,
      "duration": 0.0616,
      "velocity": 92,
      "chip": "ym2612"
    },
    {
      "channel": 4,
      "note": 82,
      "start": 5.6757,
      "duration": 0.0617,
      "velocity": 94,
      "chip": "ym2612"
    },
    {
      "channel": 0,
      "note": 46,
      "start": 5.737,
      "duration": 0.1332,
      "velocity": 92,
      "chip": "ym2612"
    },
    {
      "channel": 4,
      "note": 82,
      "start": 5.7378,
      "duration": 0.1333,
      "velocity": 94,
      "chip": "ym2612"
    },
    {
      "channel": 0,
      "note": 34,
      "start": 5.8704,
      "duration": 0.0619,
      "velocity": 92,
      "chip": "ym2612"
    },
    {
      "channel": 1,
      "note": 75,
      "start": 5.8706,
      "duration": 0.2867,
      "velocity": 127,
      "chip": "ym2612"
    },
    {
      "channel": 3,
      "note": 87,
      "start": 5.871,
      "duration": 0.2866,
      "velocity": 105,
      "chip": "ym2612"
    },
    {
      "channel": 4,
      "note": 82,
      "start": 5.8713,
      "duration": 0.0616,
      "velocity": 94,
      "chip": "ym2612"
    },
    {
      "channel": 2,
      "note": 84,
      "start": 5.8754,
      "duration": 0.3398,
      "velocity": 110,
      "chip": "ym2612"
    },
    {
      "channel": 4,
      "note": 82,
      "start": 5.9332,
      "duration": 0.1497,
      "velocity": 94,
      "chip": "ym2612"
    },
    {
      "channel": 0,
      "note": 34,
      "start": 6.0826,
      "duration": 0.0617,
      "velocity": 92,
      "chip": "ym2612"
    },
    {
      "channel": 4,
      "note": 82,
      "start": 6.0831,
      "duration": 0.0616,
      "velocity": 94,
      "chip": "ym2612"
    },
    {
      "channel": 4,
      "note": 82,
      "start": 6.1449,
      "duration": 0.0707,
      "velocity": 94,
      "chip": "ym2612"
    },
    {
      "channel": 0,
      "note": 34,
      "start": 6.1531,
      "duration": 0.0618,
      "velocity": 92,
      "chip": "ym2612"
    },
    {
      "channel": 1,
      "note": 72,
      "start": 6.1575,
      "duration": 0.2344,
      "velocity": 127,
      "chip": "ym2612"
    },
    {
      "channel": 3,
      "note": 84,
      "start": 6.1579,
      "duration": 0.2343,
      "velocity": 105,
      "chip": "ym2612"
    },
    {
      "channel": 2,
      "note": 80,
      "start": 6.2156,
      "duration": 0.1808,
      "velocity": 110,
      "chip": "ym2612"
    },
    {
      "channel": 4,
      "note": 82,
      "start": 6.216,
      "duration": 0.1495,
      "velocity": 94,
      "chip": "ym2612"
    },
    {
      "channel": 0,
      "note": 46,
      "start": 6.3653,
      "duration": 0.0077,
      "velocity": 92,
      "chip": "ym2612"
    },
    {
      "channel": 0,
      "note": 45,
      "start": 6.3733,
      "duration": 0.0086,
      "velocity": 92,
      "chip": "ym2612"
    },
    {
      "channel": 4,
      "note": 82,
      "start": 6.3737,
      "duration": 0.0087,
      "velocity": 94,
      "chip": "ym2612"
    },
    {
      "channel": 0,
      "note": 44,
      "start": 6.3821,
      "duration": 0.0094,
      "velocity": 92,
      "chip": "ym2612"
    },
    {
      "channel": 4,
      "note": 82,
      "start": 6.3827,
      "duration": 0.0098,
      "velocity": 94,
      "chip": "ym2612"
    },
    {
      "channel": 0,
      "note": 42,
      "start": 6.3917,
      "duration": 0.0088,
      "velocity": 92,
      "chip": "ym2612"
    },
    {
      "channel": 1,
      "note": 80,
      "start": 6.392,
      "duration": 0.0673,
      "velocity": 106,
      "chip": "ym2612"
    },
    {
      "channel": 3,
      "note": 92,
      "start": 6.3924,
      "duration": 0.0682,
      "velocity": 113,
      "chip": "ym2612"
    },
    {
      "channel": 4,
      "note": 82,
      "start": 6.3926,
      "duration": 0.0086,
      "velocity": 94,
      "chip": "ym2612"
    },
    {
      "channel": 2,
      "note": 87,
      "start": 6.3966,
      "duration": 0.0691,
      "velocity": 105,
      "chip": "ym2612"
    },
    {
      "channel": 0,
      "note": 39,
      "start": 6.4008,
      "duration": 0.0385,
      "velocity": 92,
      "chip": "ym2612"
    },
    {
      "channel": 4,
      "note": 82,
      "start": 6.4016,
      "duration": 0.0383,
      "velocity": 94,
      "chip": "ym2612"
    },
    {
      "channel": 0,
      "note": 41,
      "start": 6.4395,
      "duration": 0.0188,
      "velocity": 92,
      "chip": "ym2612"
    },
    {
      "channel": 4,
      "note": 82,
      "start": 6.4402,
      "duration": 0.0206,
      "velocity": 94,
      "chip": "ym2612"
    },
    {
      "channel": 0,
      "note": 42,
      "start": 6.4585,
      "duration": 0.0787,
      "velocity": 92,
      "chip": "ym2612"
    },
    {
      "channel": 1,
      "note": 77,
      "start": 6.4594,
      "duration": 0.2863,
      "velocity": 106,
      "chip": "ym2612"
    },
    {
      "channel": 3,
      "note": 82,
      "start": 6.4607,
      "duration": 0.4931,
      "velocity": 113,
      "chip": "ym2612"
    },
    {
      "channel": 4,
      "note": 82,
      "start": 6.461,
      "duration": 0.0766,
      "velocity": 94,
      "chip": "ym2612"
    },
    {
      "channel": 2,
      "note": 89,
      "start": 6.4878,
      "duration": 0.3657,
      "velocity": 105,
      "chip": "ym2612"
    },
    {
      "channel": 4,
      "note": 82,
      "start": 6.538,
      "duration": 0.133,
      "velocity": 94,
      "chip": "ym2612"
    },
    {
      "channel": 0,
      "note": 42,
      "start": 6.6708,
      "duration": 0.0617,
      "velocity": 92,
      "chip": "ym2612"
    },
    {
      "channel": 4,
      "note": 82,
      "start": 6.6712,
      "duration": 0.0618,
      "velocity": 94,
      "chip": "ym2612"
    },
    {
      "channel": 0,
      "note": 54,
      "start": 6.7327,
      "duration": 0.0088,
      "velocity": 92,
      "chip": "ym2612"
    },
    {
      "channel": 4,
      "note": 82,
      "start": 6.7332,
      "duration": 0.0872,
      "velocity": 94,
      "chip": "ym2612"
    },
    {
      "channel": 0,
      "note": 42,
      "start": 6.7417,
      "duration": 0.0781,
      "velocity": 92,
      "chip": "ym2612"
    },
    {
      "channel": 1,
      "note": 70,
      "start": 6.7459,
      "duration": 0.9591,
      "velocity": 106,
      "chip": "ym2612"
    },
    {
      "channel": 0,
      "note": 54,
      "start": 6.8201,
      "duration": 0.1332,
      "velocity": 92,
      "chip": "ym2612"
    },
    {
      "channel": 4,
      "note": 82,
      "start": 6.8208,
      "duration": 0.1333,
      "velocity": 94,
      "chip": "ym2612"
    },
    {
      "channel": 2,
      "note": 82,
      "start": 6.8538,
      "duration": 0.8576,
      "velocity": 105,
      "chip": "ym2612"
    },
    {
      "channel": 0,
      "note": 42,
      "start": 6.9535,
      "duration": 0.0613,
      "velocity": 92,
      "chip": "ym2612"
    },
    {
      "channel": 3,
      "note": 85,
      "start": 6.9541,
      "duration": 0.477,
      "velocity": 113,
      "chip": "ym2612"
    },
    {
      "channel": 0,
      "note": 54,
      "start": 7.0151,
      "duration": 0.1332,
      "velocity": 92,
      "chip": "ym2612"
    },
    {
      "channel": 4,
      "note": 82,
      "start": 7.0158,
      "duration": 0.133,
      "velocity": 94,
      "chip": "ym2612"
    },
    {
      "channel": 0,
      "note": 42,
      "start": 7.1485,
      "duration": 0.0784,
      "velocity": 92,
      "chip": "ym2612"
    },
    {
      "channel": 4,
      "note": 82,
      "start": 7.1489,
      "duration": 0.0784,
      "velocity": 94,
      "chip": "ym2612"
    },
    {
      "channel": 0,
      "note": 54,
      "start": 7.2271,
      "duration": 0.1535,
      "velocity": 92,
      "chip": "ym2612"
    },
    {
      "channel": 4,
      "note": 82,
      "start": 7.2275,
      "duration": 0.0083,
      "velocity": 94,
      "chip": "ym2612"
    },
    {
      "channel": 4,
      "note": 82,
      "start": 7.2361,
      "duration": 0.0616,
      "velocity": 94,
      "chip": "ym2612"
    },
    {
      "channel": 4,
      "note": 82,
      "start": 7.298,
      "duration": 0.1333,
      "velocity": 94,
      "chip": "ym2612"
    },
    {
      "channel": 0,
      "note": 44,
      "start": 7.4308,
      "duration": 0.0786,
      "velocity": 92,
      "chip": "ym2612"
    },
    {
      "channel": 3,
      "note": 84,
      "start": 7.4313,
      "duration": 0.7689,
      "velocity": 113,
      "chip": "ym2612"
    },
    {
      "channel": 4,
      "note": 82,
      "start": 7.4316,
      "duration": 0.0784,
      "velocity": 94,
      "chip": "ym2612"
    },
    {
      "channel": 4,
      "note": 82,
      "start": 7.5103,
      "duration": 0.1331,
      "velocity": 94,
      "chip": "ym2612"
    },
    {
      "channel": 0,
      "note": 44,
      "start": 7.643,
      "duration": 0.0616,
      "velocity": 92,
      "chip": "ym2612"
    },
    {
      "channel": 4,
      "note": 82,
      "start": 7.6436,
      "duration": 0.0617,
      "velocity": 94,
      "chip": "ym2612"
    },
    {
      "channel": 0,
      "note": 56,
      "start": 7.7049,
      "duration": 0.0091,
      "velocity": 92,
      "chip": "ym2612"
    },
    {
      "channel": 1,
      "note": 73,
      "start": 7.7051,
      "duration": 0.221,
      "velocity": 106,
      "chip": "ym2612"
    },
    {
      "channel": 4,
      "note": 82,
      "start": 7.7056,
      "duration": 0.0874,
      "velocity": 94,
      "chip": "ym2612"
    },
    {
      "channel": 2,
      "note": 85,
      "start": 7.7116,
      "duration": 0.2432,
      "velocity": 105,
      "chip": "ym2612"
    },
    {
      "channel": 0,
      "note": 44,
      "start": 7.7142,
      "duration": 0.0781,
      "velocity": 92,
      "chip": "ym2612"
    },
    {
      "channel": 0,
      "note": 54,
      "start": 7.7926,
      "duration": 0.1332,
      "velocity": 92,
      "chip": "ym2612"
    },
    {
      "channel": 4,
      "note": 82,
      "start": 7.7934,
      "duration": 0.133,
      "velocity": 94,
      "chip": "ym2612"
    },
    {
      "channel": 0,
      "note": 44,
      "start": 7.9261,
      "duration": 0.0617,
      "velocity": 92,
      "chip": "ym2612"
    },
    {
      "channel": 1,
      "note": 72,
      "start": 7.9263,
      "duration": 0.2736,
      "velocity": 106,
      "chip": "ym2612"
    },
    {
      "channel": 2,
      "note": 84,
      "start": 7.9551,
      "duration": 0.2513,
      "velocity": 105,
      "chip": "ym2612"
    },
    {
      "channel": 0,
      "note": 56,
      "start": 7.988,
      "duration": 0.1332,
      "velocity": 92,
      "chip": "ym2612"
    },
    {
      "channel": 4,
      "note": 82,
      "start": 7.9888,
      "duration": 0.1329,
      "velocity": 94,
      "chip": "ym2612"
    },
    {
      "channel": 0,
      "note": 44,
      "start": 8.1215,
      "duration": 0.0781,
      "velocity": 92,
      "chip": "ym2612"
    },
    {
      "channel": 4,
      "note": 82,
      "start": 8.1219,
      "duration": 0.0786,
      "velocity": 94,
      "chip": "ym2612"
    },
    {
      "channel": 0,
      "note": 42,
      "start": 8.1998,
      "duration": 0.0089,
      "velocity": 92,
      "chip": "ym2612"
    },
    {
      "channel": 1,
      "note": 68,
      "start": 8.2,
      "duration": 0.0264,
      "velocity": 106,
      "chip": "ym2612"
    },
    {
      "channel": 3,
      "note": 84,
      "start": 8.2004,
      "duration": 0.0263,
      "velocity": 113,
      "chip": "ym2612"
    },
    {
      "channel": 4,
      "note": 82,
      "start": 8.2007,
      "duration": 0.0084,
      "velocity": 94,
      "chip": "ym2612"
    },
    {
      "channel": 2,
      "note": 80,
      "start": 8.2067,
      "duration": 0.0649,
      "velocity": 105,
      "chip": "ym2612"
    },
    {
      "channel": 4,
      "note": 82,
      "start": 8.2095,
      "duration": 0.0085,
      "velocity": 94,
      "chip": "ym2612"
    },
    {
      "channel": 0,
      "note": 56,
      "start": 8.2177,
      "duration": 0.0084,
      "velocity": 92,
      "chip": "ym2612"
    },
    {
      "channel": 4,
      "note": 82,
      "start": 8.2183,
      "duration": 0.0086,
      "velocity": 94,
      "chip": "ym2612"
    },
    {
      "channel": 0,
      "note": 46,
      "start": 8.2263,
      "duration": 0.0783,
      "velocity": 92,
      "chip": "ym2612"
    },
    {
      "channel": 1,
      "note": 65,
      "start": 8.2266,
      "duration": 1.5434,
      "velocity": 106,
      "chip": "ym2612"
    },
    {
      "channel": 3,
      "note": 87,
      "start": 8.2268,
      "duration": 0.9729,
      "velocity": 113,
      "chip": "ym2612"
    },
    {
      "channel": 4,
      "note": 82,
      "start": 8.2272,
      "duration": 0.078,
      "velocity": 94,
      "chip": "ym2612"
    },
    {
      "channel": 2,
      "note": 77,
      "start": 8.2719,
      "duration": 1.5267,
      "velocity": 105,
      "chip": "ym2612"
    },
    {
      "channel": 4,
      "note": 82,
      "start": 8.3055,
      "duration": 0.133,
      "velocity": 94,
      "chip": "ym2612"
    },
    {
      "channel": 0,
      "note": 46,
      "start": 8.4383,
      "duration": 0.0616,
      "velocity": 92,
      "chip": "ym2612"
    },
    {
      "channel": 4,
      "note": 82,
      "start": 8.4387,
      "duration": 0.0617,
      "velocity": 94,
      "chip": "ym2612"
    },
    {
      "channel": 0,
      "note": 58,
      "start": 8.5001,
      "duration": 0.0098,
      "velocity": 92,
      "chip": "ym2612"
    },
    {
      "channel": 4,
      "note": 82,
      "start": 8.5007,
      "duration": 0.0717,
      "velocity": 94,
      "chip": "ym2612"
    },
    {
      "channel": 0,
      "note": 46,
      "start": 8.5102,
      "duration": 0.0615,
      "velocity": 92,
      "chip": "ym2612"
    },
    {
      "channel": 0,
      "note": 56,
      "start": 8.572,
      "duration": 0.1332,
      "velocity": 92,
      "chip": "ym2612"
    },
    {
      "channel": 4,
      "note": 82,
      "start": 8.5728,
      "duration": 0.133,
      "velocity": 94,
      "chip": "ym2612"
    },
    {
      "channel": 0,
      "note": 46,
      "start": 8.7055,
      "duration": 0.0612,
      "velocity": 92,
      "chip": "ym2612"
    },
    {
      "channel": 0,
      "note": 46,
      "start": 8.7669,
      "duration": 0.1498,
      "velocity": 92,
      "chip": "ym2612"
    },
    {
      "channel": 4,
      "note": 82,
      "start": 8.7677,
      "duration": 0.1496,
      "velocity": 94,
      "chip": "ym2612"
    },
    {
      "channel": 0,
      "note": 34,
      "start": 8.9169,
      "duration": 0.0617,
      "velocity": 92,
      "chip": "ym2612"
    },
    {
      "channel": 4,
      "note": 82,
      "start": 8.9176,
      "duration": 0.0616,
      "velocity": 94,
      "chip": "ym2612"
    },
    {
      "channel": 0,
      "note": 56,
      "start": 8.9788,
      "duration": 0.0088,
      "velocity": 92,
      "chip": "ym2612"
    },
    {
      "channel": 4,
      "note": 82,
      "start": 8.9794,
      "duration": 0.0086,
      "velocity": 94,
      "chip": "ym2612"
    },
    {
      "channel": 4,
      "note": 82,
      "start": 8.9883,
      "duration": 0.0615,
      "velocity": 94,
      "chip": "ym2612"
    },
    {
      "channel": 0,
      "note": 58,
      "start": 9.0493,
      "duration": 0.1499,
      "velocity": 92,
      "chip": "ym2612"
    },
    {
      "channel": 4,
      "note": 82,
      "start": 9.0501,
      "duration": 0.1499,
      "velocity": 94,
      "chip": "ym2612"
    },
    {
      "channel": 0,
      "note": 46,
      "start": 9.1995,
      "duration": 0.062,
      "velocity": 92,
      "chip": "ym2612"
    },
    {
      "channel": 3,
      "note": 89,
      "start": 9.1999,
      "duration": 0.271,
      "velocity": 113,
      "chip": "ym2612"
    },
    {
      "channel": 4,
      "note": 82,
      "start": 9.2003,
      "duration": 0.0618,
      "velocity": 94,
      "chip": "ym2612"
    },
    {
      "channel": 0,
      "note": 46,
      "start": 9.2617,
      "duration": 0.1332,
      "velocity": 92,
      "chip": "ym2612"
    },
    {
      "channel": 4,
      "note": 82,
      "start": 9.2624,
      "duration": 0.1329,
      "velocity": 94,
      "chip": "ym2612"
    },
    {
      "channel": 0,
      "note": 46,
      "start": 9.395,
      "duration": 0.0617,
      "velocity": 92,
      "chip": "ym2612"
    },
    {
      "channel": 4,
      "note": 82,
      "start": 9.3956,
      "duration": 0.0616,
      "velocity": 94,
      "chip": "ym2612"
    },
    {
      "channel": 0,
      "note": 58,
      "start": 9.4569,
      "duration": 0.0095,
      "velocity": 92,
      "chip": "ym2612"
    },
    {
      "channel": 4,
      "note": 82,
      "start": 9.4575,
      "duration": 0.0714,
      "velocity": 94,
      "chip": "ym2612"
    },
    {
      "channel": 0,
      "note": 46,
      "start": 9.4667,
      "duration": 0.0615,
      "velocity": 92,
      "chip": "ym2612"
    },
    {
      "channel": 3,
      "note": 86,
      "start": 9.4711,
      "duration": 0.2715,
      "velocity": 113,
      "chip": "ym2612"
    },
    {
      "channel": 0,
      "note": 56,
      "start": 9.5285,
      "duration": 0.1332,
      "velocity": 92,
      "chip": "ym2612"
    },
    {
      "channel": 4,
      "note": 82,
      "start": 9.5293,
      "duration": 0.133,
      "velocity": 94,
      "chip": "ym2612"
    },
    {
      "channel": 0,
      "note": 46,
      "start": 9.6619,
      "duration": 0.0616,
      "velocity": 92,
      "chip": "ym2612"
    },
    {
      "channel": 0,
      "note": 58,
      "start": 9.7238,
      "duration": 0.0095,
      "velocity": 92,
      "chip": "ym2612"
    },
    {
      "channel": 4,
      "note": 82,
      "start": 9.7243,
      "duration": 0.0095,
      "velocity": 94,
      "chip": "ym2612"
    },
    {
      "channel": 0,
      "note": 46,
      "start": 9.7336,
      "duration": 0.0086,
      "velocity": 92,
      "chip": "ym2612"
    },
    {
      "channel": 4,
      "note": 82,
      "start": 9.7339,
      "duration": 0.009,
      "velocity": 94,
      "chip": "ym2612"
    },
    {
      "channel": 0,
      "note": 56,
      "start": 9.7424,
      "duration": 0.0092,
      "velocity": 92,
      "chip": "ym2612"
    },
    {
      "channel": 3,
      "note": 82,
      "start": 9.7429,
      "duration": 0.0274,
      "velocity": 113,
      "chip": "ym2612"
    },
    {
      "channel": 4,
      "note": 82,
      "start": 9.7432,
      "duration": 0.0087,
      "velocity": 94,
      "chip": "ym2612"
    },
    {
      "channel": 4,
      "note": 82,
      "start": 9.7522,
      "duration": 0.0084,
      "velocity": 94,
      "chip": "ym2612"
    },
    {
      "channel": 0,
      "note": 58,
      "start": 9.7604,
      "duration": 0.0093,
      "velocity": 92,
      "chip": "ym2612"
    },
    {
      "channel": 4,
      "note": 82,
      "start": 9.7608,
      "duration": 0.0097,
      "velocity": 94,
      "chip": "ym2612"
    },
    {
      "channel": 0,
      "note": 42,
      "start": 9.7699,
      "duration": 0.0617,
      "velocity": 92,
      "chip": "ym2612"
    },
    {
      "channel": 1,
      "note": 77,
      "start": 9.7702,
      "duration": 0.2707,
      "velocity": 106,
      "chip": "ym2612"
    },
    {
      "channel": 3,
      "note": 85,
      "start": 9.7705,
      "duration": 1.23,
      "velocity": 113,
      "chip": "ym2612"
    },
    {
      "channel": 4,
      "note": 82,
      "start": 9.7708,
      "duration": 0.0615,
      "velocity": 94,
      "chip": "ym2612"
    },
    {
      "channel": 2,
      "note": 89,
      "start": 9.7989,
      "duration": 0.333,
      "velocity": 105,
      "chip": "ym2612"
    },
    {
      "channel": 0,
      "note": 42,
      "start": 9.8319,
      "duration": 0.1332,
      "velocity": 92,
      "chip": "ym2612"
    },
    {
      "channel": 4,
      "note": 82,
      "start": 9.8326,
      "duration": 0.1329,
      "velocity": 94,
      "chip": "ym2612"
    },
    {
      "channel": 0,
      "note": 42,
      "start": 9.9653,
      "duration": 0.0615,
      "velocity": 92,
      "chip": "ym2612"
    },
    {
      "channel": 4,
      "note": 82,
      "start": 9.9657,
      "duration": 0.0616,
      "velocity": 94,
      "chip": "ym2612"
    },
    {
      "channel": 0,
      "note": 54,
      "start": 10.027,
      "duration": 0.0095,
      "velocity": 92,
      "chip": "ym2612"
    },
    {
      "channel": 4,
      "note": 82,
      "start": 10.0276,
      "duration": 0.0713,
      "velocity": 94,
      "chip": "ym2612"
    },
    {
      "channel": 0,
      "note": 42,
      "start": 10.0367,
      "duration": 0.0616,
      "velocity": 92,
      "chip": "ym2612"
    },
    {
      "channel": 1,
      "note": 70,
      "start": 10.041,
      "duration": 0.9592,
      "velocity": 106,
      "chip": "ym2612"
    },
    {
      "channel": 0,
      "note": 53,
      "start": 10.0985,
      "duration": 0.1332,
      "velocity": 92,
      "chip": "ym2612"
    },
    {
      "channel": 4,
      "note": 82,
      "start": 10.0993,
      "duration": 0.133,
      "velocity": 94,
      "chip": "ym2612"
    },
    {
      "channel": 2,
      "note": 82,
      "start": 10.1322,
      "duration": 0.8745,
      "velocity": 105,
      "chip": "ym2612"
    },
    {
      "channel": 0,
      "note": 42,
      "start": 10.232,
      "duration": 0.0617,
      "velocity": 92,
      "chip": "ym2612"
    },
    {
      "channel": 0,
      "note": 54,
      "start": 10.2939,
      "duration": 0.1498,
      "velocity": 92,
      "chip": "ym2612"
    },
    {
      "channel": 4,
      "note": 82,
      "start": 10.2946,
      "duration": 0.1496,
      "velocity": 94,
      "chip": "ym2612"
    },
    {
      "channel": 0,
      "note": 42,
      "start": 10.4439,
      "duration": 0.0617,
      "velocity": 92,
      "chip": "ym2612"
    },
    {
      "channel": 4,
      "note": 82,
      "start": 10.4444,
      "duration": 0.0617,
      "velocity": 94,
      "chip": "ym2612"
    },
    {
      "channel": 0,
      "note": 53,
      "start": 10.5059,
      "duration": 0.0085,
      "velocity": 92,
      "chip": "ym2612"
    },
    {
      "channel": 4,
      "note": 82,
      "start": 10.5063,
      "duration": 0.0083,
      "velocity": 94,
      "chip": "ym2612"
    },
    {
      "channel": 4,
      "note": 82,
      "start": 10.515,
      "duration": 0.0782,
      "velocity": 94,
      "chip": "ym2612"
    },
    {
      "channel": 0,
      "note": 54,
      "start": 10.5927,
      "duration": 0.1332,
      "velocity": 92,
      "chip": "ym2612"
    },
    {
      "channel": 4,
      "note": 82,
      "start": 10.5935,
      "duration": 0.133,
      "velocity": 94,
      "chip": "ym2612"
    },
    {
      "channel": 0,
      "note": 42,
      "start": 10.7261,
      "duration": 0.0618,
      "velocity": 92,
      "chip": "ym2612"
    },
    {
      "channel": 4,
      "note": 82,
      "start": 10.7267,
      "duration": 0.0618,
      "velocity": 94,
      "chip": "ym2612"
    },
    {
      "channel": 4,
      "note": 82,
      "start": 10.7888,
      "duration": 0.1331,
      "velocity": 94,
      "chip": "ym2612"
    },
    {
      "channel": 0,
      "note": 42,
      "start": 10.9215,
      "duration": 0.0783,
      "velocity": 92,
      "chip": "ym2612"
    },
    {
      "channel": 4,
      "note": 82,
      "start": 10.9222,
      "duration": 0.0787,
      "velocity": 94,
      "chip": "ym2612"
    },
    {
      "channel": 0,
      "note": 54,
      "start": 11.0001,
      "duration": 0.0091,
      "velocity": 92,
      "chip": "ym2612"
    },
    {
      "channel": 1,
      "note": 73,
      "start": 11.0004,
      "duration": 0.2044,
      "velocity": 106,
      "chip": "ym2612"
    },
    {
      "channel": 3,
      "note": 85,
      "start": 11.0007,
      "duration": 0.2044,
      "velocity": 113,
      "chip": "ym2612"
    },
    {
      "channel": 4,
      "note": 82,
      "start": 11.001,
      "duration": 0.0707,
      "velocity": 94,
      "chip": "ym2612"
    },
    {
      "channel": 2,
      "note": 85,
      "start": 11.007,
      "duration": 0.2434,
      "velocity": 105,
      "chip": "ym2612"
    },
    {
      "channel": 0,
      "note": 44,
      "start": 11.0095,
      "duration": 0.0616,
      "velocity": 92,
      "chip": "ym2612"
    },
    {
      "channel": 0,
      "note": 54,
      "start": 11.0713,
      "duration": 0.1332,
      "velocity": 92,
      "chip": "ym2612"
    },
    {
      "channel": 4,
      "note": 82,
      "start": 11.072,
      "duration": 0.1334,
      "velocity": 94,
      "chip": "ym2612"
    },
    {
      "channel": 0,
      "note": 44,
      "start": 11.2047,
      "duration": 0.0786,
      "velocity": 92,
      "chip": "ym2612"
    },
    {
      "channel": 1,
      "note": 75,
      "start": 11.205,
      "duration": 0.1586,
      "velocity": 106,
      "chip": "ym2612"
    },
    {
      "channel": 3,
      "note": 84,
      "start": 11.2054,
      "duration": 0.1585,
      "velocity": 113,
      "chip": "ym2612"
    },
    {
      "channel": 2,
      "note": 87,
      "start": 11.2507,
      "duration": 0.1198,
      "velocity": 105,
      "chip": "ym2612"
    },
    {
      "channel": 0,
      "note": 54,
      "start": 11.2836,
      "duration": 0.0707,
      "velocity": 92,
      "chip": "ym2612"
    },
    {
      "channel": 4,
      "note": 82,
      "start": 11.2844,
      "duration": 0.0704,
      "velocity": 94,
      "chip": "ym2612"
    },
    {
      "channel": 0,
      "note": 44,
      "start": 11.3546,
      "duration": 0.0088,
      "velocity": 92,
      "chip": "ym2612"
    },
    {
      "channel": 4,
      "note": 82,
      "start": 11.3551,
      "duration": 0.009,
      "velocity": 94,
      "chip": "ym2612"
    },
    {
      "channel": 0,
      "note": 56,
      "start": 11.3635,
      "duration": 0.009,
      "velocity": 92,
      "chip": "ym2612"
    },
    {
      "channel": 1,
      "note": 72,
      "start": 11.3637,
      "duration": 0.0276,
      "velocity": 106,
      "chip": "ym2612"
    },
    {
      "channel": 3,
      "note": 87,
      "start": 11.3641,
      "duration": 0.0276,
      "velocity": 113,
      "chip": "ym2612"
    },
    {
      "channel": 4,
      "note": 82,
      "start": 11.3645,
      "duration": 0.0086,
      "velocity": 94,
      "chip": "ym2612"
    },
    {
      "channel": 2,
      "note": 84,
      "start": 11.3707,
      "duration": 0.0495,
      "velocity": 105,
      "chip": "ym2612"
    },
    {
      "channel": 4,
      "note": 82,
      "start": 11.3733,
      "duration": 0.0094,
      "velocity": 94,
      "chip": "ym2612"
    },
    {
      "channel": 0,
      "note": 54,
      "start": 11.3824,
      "duration": 0.0086,
      "velocity": 92,
      "chip": "ym2612"
    },
    {
      "channel": 4,
      "note": 82,
      "start": 11.3829,
      "duration": 0.0091,
      "velocity": 94,
      "chip": "ym2612"
    },
    {
      "channel": 0,
      "note": 46,
      "start": 11.3913,
      "duration": 0.062,
      "velocity": 92,
      "chip": "ym2612"
    },
    {
      "channel": 1,
      "note": 75,
      "start": 11.3915,
      "duration": 0.9712,
      "velocity": 106,
      "chip": "ym2612"
    },
    {
      "channel": 3,
      "note": 92,
      "start": 11.3919,
      "duration": 1.2451,
      "velocity": 113,
      "chip": "ym2612"
    },
    {
      "channel": 4,
      "note": 82,
      "start": 11.3923,
      "duration": 0.0616,
      "velocity": 94,
      "chip": "ym2612"
    },
    {
      "channel": 2,
      "note": 87,
      "start": 11.4206,
      "duration": 0.971,
      "velocity": 105,
      "chip": "ym2612"
    },
    {
      "channel": 4,
      "note": 82,
      "start": 11.4541,
      "duration": 0.133,
      "velocity": 94,
      "chip": "ym2612"
    },
    {
      "channel": 0,
      "note": 46,
      "start": 11.5869,
      "duration": 0.078,
      "velocity": 92,
      "chip": "ym2612"
    },
    {
      "channel": 4,
      "note": 82,
      "start": 11.5873,
      "duration": 0.0781,
      "velocity": 94,
      "chip": "ym2612"
    },
    {
      "channel": 0,
      "note": 58,
      "start": 11.6652,
      "duration": 0.0085,
      "velocity": 92,
      "chip": "ym2612"
    },
    {
      "channel": 4,
      "note": 82,
      "start": 11.6656,
      "duration": 0.0705,
      "velocity": 94,
      "chip": "ym2612"
    },
    {
      "channel": 0,
      "note": 46,
      "start": 11.6739,
      "duration": 0.0615,
      "velocity": 92,
      "chip": "ym2612"
    },
    {
      "channel": 0,
      "note": 56,
      "start": 11.7357,
      "duration": 0.1332,
      "velocity": 92,
      "chip": "ym2612"
    },
    {
      "channel": 4,
      "note": 82,
      "start": 11.7365,
      "duration": 0.133,
      "velocity": 94,
      "chip": "ym2612"
    },
    {
      "channel": 0,
      "note": 46,
      "start": 11.8691,
      "duration": 0.0779,
      "velocity": 92,
      "chip": "ym2612"
    },
    {
      "channel": 0,
      "note": 56,
      "start": 11.9473,
      "duration": 0.1332,
      "velocity": 92,
      "chip": "ym2612"
    },
    {
      "channel": 4,
      "note": 82,
      "start": 11.948,
      "duration": 0.1329,
      "velocity": 94,
      "chip": "ym2612"
    },
    {
      "channel": 0,
      "note": 46,
      "start": 12.0807,
      "duration": 0.0616,
      "velocity": 92,
      "chip": "ym2612"
    },
    {
      "channel": 4,
      "note": 82,
      "start": 12.0812,
      "duration": 0.0616,
      "velocity": 94,
      "chip": "ym2612"
    },
    {
      "channel": 0,
      "note": 56,
      "start": 12.1424,
      "duration": 0.0085,
      "velocity": 92,
      "chip": "ym2612"
    },
    {
      "channel": 4,
      "note": 82,
      "start": 12.143,
      "duration": 0.0083,
      "velocity": 94,
      "chip": "ym2612"
    },
    {
      "channel": 4,
      "note": 82,
      "start": 12.1516,
      "duration": 0.0781,
      "velocity": 94,
      "chip": "ym2612"
    },
    {
      "channel": 0,
      "note": 58,
      "start": 12.2293,
      "duration": 0.1332,
      "velocity": 92,
      "chip": "ym2612"
    },
    {
      "channel": 4,
      "note": 82,
      "start": 12.23,
      "duration": 0.1331,
      "velocity": 94,
      "chip": "ym2612"
    },
    {
      "channel": 0,
      "note": 46,
      "start": 12.3627,
      "duration": 0.0619,
      "velocity": 92,
      "chip": "ym2612"
    },
    {
      "channel": 1,
      "note": 74,
      "start": 12.3629,
      "duration": 0.2738,
      "velocity": 106,
      "chip": "ym2612"
    },
    {
      "channel": 4,
      "note": 82,
      "start": 12.3634,
      "duration": 0.062,
      "velocity": 94,
      "chip": "ym2612"
    },
    {
      "channel": 2,
      "note": 86,
      "start": 12.3919,
      "duration": 0.2515,
      "velocity": 105,
      "chip": "ym2612"
    },
    {
      "channel": 0,
      "note": 58,
      "start": 12.4249,
      "duration": 0.1332,
      "velocity": 92,
      "chip": "ym2612"
    },
    {
      "channel": 4,
      "note": 82,
      "start": 12.4256,
      "duration": 0.1329,
      "velocity": 94,
      "chip": "ym2612"
    },
    {
      "channel": 0,
      "note": 46,
      "start": 12.5583,
      "duration": 0.0782,
      "velocity": 92,
      "chip": "ym2612"
    },
    {
      "channel": 4,
      "note": 82,
      "start": 12.5587,
      "duration": 0.0787,
      "velocity": 94,
      "chip": "ym2612"
    },
    {
      "channel": 0,
      "note": 56,
      "start": 12.6367,
      "duration": 0.0089,
      "velocity": 92,
      "chip": "ym2612"
    },
    {
      "channel": 1,
      "note": 75,
      "start": 12.6369,
      "duration": 0.2209,
      "velocity": 106,
      "chip": "ym2612"
    },
    {
      "channel": 3,
      "note": 91,
      "start": 12.6373,
      "duration": 0.2207,
      "velocity": 113,
      "chip": "ym2612"
    },
    {
      "channel": 4,
      "note": 82,
      "start": 12.6376,
      "duration": 0.0704,
      "velocity": 94,
      "chip": "ym2612"
    },
    {
      "channel": 2,
      "note": 87,
      "start": 12.6434,
      "duration": 0.2199,
      "velocity": 105,
      "chip": "ym2612"
    },
    {
      "channel": 0,
      "note": 46,
      "start": 12.6458,
      "duration": 0.0616,
      "velocity": 92,
      "chip": "ym2612"
    },
    {
      "channel": 0,
      "note": 58,
      "start": 12.7076,
      "duration": 0.1499,
      "velocity": 92,
      "chip": "ym2612"
    },
    {
      "channel": 4,
      "note": 82,
      "start": 12.7084,
      "duration": 0.15,
      "velocity": 94,
      "chip": "ym2612"
    },
    {
      "channel": 0,
      "note": 46,
      "start": 12.8577,
      "duration": 0.0084,
      "velocity": 92,
      "chip": "ym2612"
    },
    {
      "channel": 1,
      "note": 77,
      "start": 12.8579,
      "duration": 0.0261,
      "velocity": 106,
      "chip": "ym2612"
    },
    {
      "channel": 3,
      "note": 89,
      "start": 12.8584,
      "duration": 0.026,
      "velocity": 113,
      "chip": "ym2612"
    },
    {
      "channel": 2,
      "note": 89,
      "start": 12.8636,
      "duration": 0.0271,
      "velocity": 105,
      "chip": "ym2612"
    },
    {
      "channel": 0,
      "note": 56,
      "start": 12.8663,
      "duration": 0.0085,
      "velocity": 92,
      "chip": "ym2612"
    },
    {
      "channel": 4,
      "note": 82,
      "start": 12.867,
      "duration": 0.0083,
      "velocity": 94,
      "chip": "ym2612"
    },
    {
      "channel": 0,
      "note": 46,
      "start": 12.8751,
      "duration": 0.0086,
      "velocity": 92,
      "chip": "ym2612"
    },
    {
      "channel": 4,
      "note": 82,
      "start": 12.8756,
      "duration": 0.009,
      "velocity": 94,
      "chip": "ym2612"
    },
    {
      "channel": 0,
      "note": 54,
      "start": 12.8839,
      "duration": 0.0098,
      "velocity": 92,
      "chip": "ym2612"
    },
    {
      "channel": 1,
      "note": 82,
      "start": 12.8841,
      "duration": 0.066,
      "velocity": 114,
      "chip": "ym2612"
    },
    {
      "channel": 3,
      "note": 82,
      "start": 12.8845,
      "duration": 0.067,
      "velocity": 100,
      "chip": "ym2612"
    },
    {
      "channel": 4,
      "note": 82,
      "start": 12.8848,
      "duration": 0.0095,
      "velocity": 94,
      "chip": "ym2612"
    },
    {
      "channel": 2,
      "note": 94,
      "start": 12.8909,
      "duration": 0.0659,
      "velocity": 100,
      "chip": "ym2612"
    },
    {
      "channel": 0,
      "note": 46,
      "start": 12.894,
      "duration": 0.0361,
      "velocity": 92,
      "chip": "ym2612"
    },
    {
      "channel": 4,
      "note": 82,
      "start": 12.8946,
      "duration": 0.0361,
      "velocity": 94,
      "chip": "ym2612"
    },
    {
      "channel": 0,
      "note": 51,
      "start": 12.9303,
      "duration": 0.0187,
      "velocity": 92,
      "chip": "ym2612"
    },
    {
      "channel": 4,
      "note": 82,
      "start": 12.931,
      "duration": 0.0209,
      "velocity": 94,
      "chip": "ym2612"
    },
    {
      "channel": 0,
      "note": 42,
      "start": 12.9492,
      "duration": 0.0621,
      "velocity": 92,
      "chip": "ym2612"
    },
    {
      "channel": 1,
      "note": 73,
      "start": 12.9503,
      "duration": 0.2822,
      "velocity": 114,
      "chip": "ym2612"
    },
    {
      "channel": 3,
      "note": 78,
      "start": 12.9517,
      "duration": 0.4932,
      "velocity": 100,
      "chip": "ym2612"
    },
    {
      "channel": 4,
      "note": 82,
      "start": 12.9522,
      "duration": 0.0598,
      "velocity": 94,
      "chip": "ym2612"
    },
    {
      "channel": 2,
      "note": 97,
      "start": 12.957,
      "duration": 0.2797,
      "velocity": 100,
      "chip": "ym2612"
    },
    {
      "channel": 4,
      "note": 82,
      "start": 13.0122,
      "duration": 0.1497,
      "velocity": 94,
      "chip": "ym2612"
    },
    {
      "channel": 0,
      "note": 42,
      "start": 13.1617,
      "duration": 0.0615,
      "velocity": 92,
      "chip": "ym2612"
    },
    {
      "channel": 4,
      "note": 82,
      "start": 13.1621,
      "duration": 0.0616,
      "velocity": 94,
      "chip": "ym2612"
    },
    {
      "channel": 0,
      "note": 54,
      "start": 13.2234,
      "duration": 0.0088,
      "velocity": 92,
      "chip": "ym2612"
    },
    {
      "channel": 4,
      "note": 82,
      "start": 13.224,
      "duration": 0.071,
      "velocity": 94,
      "chip": "ym2612"
    },
    {
      "channel": 0,
      "note": 42,
      "start": 13.2325,
      "duration": 0.0616,
      "velocity": 92,
      "chip": "ym2612"
    },
    {
      "channel": 1,
      "note": 72,
      "start": 13.2327,
      "duration": 0.0617,
      "velocity": 114,
      "chip": "ym2612"
    },
    {
      "channel": 2,
      "note": 96,
      "start": 13.237,
      "duration": 0.1241,
      "velocity": 100,
      "chip": "ym2612"
    },
    {
      "channel": 0,
      "note": 53,
      "start": 13.2944,
      "duration": 0.1499,
      "velocity": 92,
      "chip": "ym2612"
    },
    {
      "channel": 1,
      "note": 68,
      "start": 13.2947,
      "duration": 0.1499,
      "velocity": 114,
      "chip": "ym2612"
    },
    {
      "channel": 4,
      "note": 82,
      "start": 13.2953,
      "duration": 0.15,
      "velocity": 94,
      "chip": "ym2612"
    },
    {
      "channel": 2,
      "note": 92,
      "start": 13.3614,
      "duration": 0.0876,
      "velocity": 100,
      "chip": "ym2612"
    },
    {
      "channel": 0,
      "note": 42,
      "start": 13.4445,
      "duration": 0.0618,
      "velocity": 92,
      "chip": "ym2612"
    },
    {
      "channel": 1,
      "note": 70,
      "start": 13.4447,
      "duration": 0.267,
      "velocity": 114,
      "chip": "ym2612"
    },
    {
      "channel": 3,
      "note": 73,
      "start": 13.4452,
      "duration": 0.4625,
      "velocity": 100,
      "chip": "ym2612"
    },
    {
      "channel": 2,
      "note": 94,
      "start": 13.4492,
      "duration": 0.2668,
      "velocity": 100,
      "chip": "ym2612"
    },
    {
      "channel": 0,
      "note": 54,
      "start": 13.5065,
      "duration": 0.1332,
      "velocity": 92,
      "chip": "ym2612"
    },
    {
      "channel": 4,
      "note": 82,
      "start": 13.5073,
      "duration": 0.1329,
      "velocity": 94,
      "chip": "ym2612"
    },
    {
      "channel": 0,
      "note": 42,
      "start": 13.6399,
      "duration": 0.0616,
      "velocity": 92,
      "chip": "ym2612"
    },
    {
      "channel": 4,
      "note": 82,
      "start": 13.6403,
      "duration": 0.0617,
      "velocity": 94,
      "chip": "ym2612"
    },
    {
      "channel": 0,
      "note": 53,
      "start": 13.7017,
      "duration": 0.0098,
      "velocity": 92,
      "chip": "ym2612"
    },
    {
      "channel": 4,
      "note": 82,
      "start": 13.7023,
      "duration": 0.0097,
      "velocity": 94,
      "chip": "ym2612"
    },
    {
      "channel": 1,
      "note": 66,
      "start": 13.7118,
      "duration": 0.0621,
      "velocity": 114,
      "chip": "ym2612"
    },
    {
      "channel": 4,
      "note": 82,
      "start": 13.7123,
      "duration": 0.0622,
      "velocity": 94,
      "chip": "ym2612"
    },
    {
      "channel": 2,
      "note": 90,
      "start": 13.7163,
      "duration": 0.1243,
      "velocity": 100,
      "chip": "ym2612"
    },
    {
      "channel": 0,
      "note": 54,
      "start": 13.7739,
      "duration": 0.1332,
      "velocity": 92,
      "chip": "ym2612"
    },
    {
      "channel": 1,
      "note": 70,
      "start": 13.7742,
      "duration": 0.1332,
      "velocity": 114,
      "chip": "ym2612"
    },
    {
      "channel": 4,
      "note": 82,
      "start": 13.7748,
      "duration": 0.1333,
      "velocity": 94,
      "chip": "ym2612"
    },
    {
      "channel": 2,
      "note": 94,
      "start": 13.8409,
      "duration": 0.0715,
      "velocity": 100,
      "chip": "ym2612"
    },
    {
      "channel": 0,
      "note": 42,
      "start": 13.9073,
      "duration": 0.0621,
      "velocity": 92,
      "chip": "ym2612"
    },
    {
      "channel": 1,
      "note": 73,
      "start": 13.9075,
      "duration": 0.2829,
      "velocity": 114,
      "chip": "ym2612"
    },
    {
      "channel": 3,
      "note": 78,
      "start": 13.908,
      "duration": 0.4947,
      "velocity": 100,
      "chip": "ym2612"
    },
    {
      "channel": 4,
      "note": 82,
      "start": 13.9084,
      "duration": 0.0617,
      "velocity": 94,
      "chip": "ym2612"
    },
    {
      "channel": 2,
      "note": 97,
      "start": 13.9126,
      "duration": 0.282,
      "velocity": 100,
      "chip": "ym2612"
    },
    {
      "channel": 0,
      "note": 42,
      "start": 13.9696,
      "duration": 0.1498,
      "velocity": 92,
      "chip": "ym2612"
    },
    {
      "channel": 4,
      "note": 82,
      "start": 13.9704,
      "duration": 0.1496,
      "velocity": 94,
      "chip": "ym2612"
    },
    {
      "channel": 0,
      "note": 42,
      "start": 14.1197,
      "duration": 0.0617,
      "velocity": 92,
      "chip": "ym2612"
    },
    {
      "channel": 4,
      "note": 82,
      "start": 14.1201,
      "duration": 0.0617,
      "velocity": 94,
      "chip": "ym2612"
    },
    {
      "channel": 0,
      "note": 54,
      "start": 14.1816,
      "duration": 0.0086,
      "velocity": 92,
      "chip": "ym2612"
    },
    {
      "channel": 4,
      "note": 82,
      "start": 14.1821,
      "duration": 0.0707,
      "velocity": 94,
      "chip": "ym2612"
    },
    {
      "channel": 0,
      "note": 42,
      "start": 14.1904,
      "duration": 0.0615,
      "velocity": 92,
      "chip": "ym2612"
    },
    {
      "channel": 1,
      "note": 72,
      "start": 14.1907,
      "duration": 0.0616,
      "velocity": 114,
      "chip": "ym2612"
    },
    {
      "channel": 2,
      "note": 96,
      "start": 14.1948,
      "duration": 0.1408,
      "velocity": 100,
      "chip": "ym2612"
    },
    {
      "channel": 0,
      "note": 54,
      "start": 14.2522,
      "duration": 0.1499,
      "velocity": 92,
      "chip": "ym2612"
    },
    {
      "channel": 1,
      "note": 73,
      "start": 14.2525,
      "duration": 0.1499,
      "velocity": 114,
      "chip": "ym2612"
    },
    {
      "channel": 4,
      "note": 82,
      "start": 14.2531,
      "duration": 0.1499,
      "velocity": 94,
      "chip": "ym2612"
    },
    {
      "channel": 2,
      "note": 97,
      "start": 14.3359,
      "duration": 0.071,
      "velocity": 100,
      "chip": "ym2612"
    },
    {
      "channel": 0,
      "note": 42,
      "start": 14.4023,
      "duration": 0.0619,
      "velocity": 92,
      "chip": "ym2612"
    },
    {
      "channel": 1,
      "note": 75,
      "start": 14.4025,
      "duration": 0.1954,
      "velocity": 114,
      "chip": "ym2612"
    },
    {
      "channel": 3,
      "note": 80,
      "start": 14.403,
      "duration": 0.2849,
      "velocity": 100,
      "chip": "ym2612"
    },
    {
      "channel": 2,
      "note": 99,
      "start": 14.4071,
      "duration": 0.1951,
      "velocity": 100,
      "chip": "ym2612"
    },
    {
      "channel": 0,
      "note": 54,
      "start": 14.4645,
      "duration": 0.1332,
      "velocity": 92,
      "chip": "ym2612"
    },
    {
      "channel": 4,
      "note": 82,
      "start": 14.4652,
      "duration": 0.133,
      "velocity": 94,
      "chip": "ym2612"
    },
    {
      "channel": 0,
      "note": 42,
      "start": 14.5978,
      "duration": 0.0618,
      "velocity": 92,
      "chip": "ym2612"
    },
    {
      "channel": 1,
      "note": 72,
      "start": 14.5981,
      "duration": 0.0716,
      "velocity": 114,
      "chip": "ym2612"
    },
    {
      "channel": 4,
      "note": 82,
      "start": 14.5984,
      "duration": 0.0618,
      "velocity": 94,
      "chip": "ym2612"
    },
    {
      "channel": 2,
      "note": 96,
      "start": 14.6025,
      "duration": 0.0713,
      "velocity": 100,
      "chip": "ym2612"
    },
    {
      "channel": 0,
      "note": 53,
      "start": 14.6599,
      "duration": 0.0095,
      "velocity": 92,
      "chip": "ym2612"
    },
    {
      "channel": 4,
      "note": 82,
      "start": 14.6604,
      "duration": 0.0096,
      "velocity": 94,
      "chip": "ym2612"
    },
    {
      "channel": 0,
      "note": 42,
      "start": 14.6696,
      "duration": 0.0087,
      "velocity": 92,
      "chip": "ym2612"
    },
    {
      "channel": 1,
      "note": 68,
      "start": 14.6698,
      "duration": 0.0178,
      "velocity": 114,
      "chip": "ym2612"
    },
    {
      "channel": 4,
      "note": 82,
      "start": 14.6701,
      "duration": 0.0089,
      "velocity": 94,
      "chip": "ym2612"
    },
    {
      "channel": 2,
      "note": 92,
      "start": 14.6742,
      "duration": 0.0181,
      "velocity": 100,
      "chip": "ym2612"
    },
    {
      "channel": 0,
      "note": 54,
      "start": 14.6786,
      "duration": 0.0087,
      "velocity": 92,
      "chip": "ym2612"
    },
    {
      "channel": 4,
      "note": 82,
      "start": 14.6792,
      "duration": 0.0089,
      "velocity": 94,
      "chip": "ym2612"
    },
    {
      "channel": 0,
      "note": 41,
      "start": 14.6875,
      "duration": 0.0785,
      "velocity": 92,
      "chip": "ym2612"
    },
    {
      "channel": 1,
      "note": 74,
      "start": 14.6877,
      "duration": 0.2829,
      "velocity": 114,
      "chip": "ym2612"
    },
    {
      "channel": 3,
      "note": 82,
      "start": 14.688,
      "duration": 0.769,
      "velocity": 100,
      "chip": "ym2612"
    },
    {
      "channel": 4,
      "note": 82,
      "start": 14.6883,
      "duration": 0.0782,
      "velocity": 94,
      "chip": "ym2612"
    },
    {
      "channel": 2,
      "note": 98,
      "start": 14.6925,
      "duration": 0.2824,
      "velocity": 100,
      "chip": "ym2612"
    },
    {
      "channel": 4,
      "note": 82,
      "start": 14.7669,
      "duration": 0.133,
      "velocity": 94,
      "chip": "ym2612"
    },
    {
      "channel": 0,
      "note": 41,
      "start": 14.8996,
      "duration": 0.0617,
      "velocity": 92,
      "chip": "ym2612"
    },
    {
      "channel": 4,
      "note": 82,
      "start": 14.9001,
      "duration": 0.0618,
      "velocity": 94,
      "chip": "ym2612"
    },
    {
      "channel": 0,
      "note": 53,
      "start": 14.9615,
      "duration": 0.0088,
      "velocity": 92,
      "chip": "ym2612"
    },
    {
      "channel": 4,
      "note": 82,
      "start": 14.9621,
      "duration": 0.0877,
      "velocity": 94,
      "chip": "ym2612"
    },
    {
      "channel": 0,
      "note": 41,
      "start": 14.9706,
      "duration": 0.0783,
      "velocity": 92,
      "chip": "ym2612"
    },
    {
      "channel": 1,
      "note": 74,
      "start": 14.9709,
      "duration": 0.0784,
      "velocity": 114,
      "chip": "ym2612"
    },
    {
      "channel": 2,
      "note": 98,
      "start": 14.9751,
      "duration": 0.1408,
      "velocity": 100,
      "chip": "ym2612"
    },
    {
      "channel": 0,
      "note": 51,
      "start": 15.0492,
      "duration": 0.1332,
      "velocity": 92,
      "chip": "ym2612"
    },
    {
      "channel": 1,
      "note": 75,
      "start": 15.0495,
      "duration": 0.1332,
      "velocity": 114,
      "chip": "ym2612"
    },
    {
      "channel": 4,
      "note": 82,
      "start": 15.0502,
      "duration": 0.1329,
      "velocity": 94,
      "chip": "ym2612"
    },
    {
      "channel": 2,
      "note": 99,
      "start": 15.1163,
      "duration": 0.0709,
      "velocity": 100,
      "chip": "ym2612"
    },
    {
      "channel": 0,
      "note": 41,
      "start": 15.1827,
      "duration": 0.0618,
      "velocity": 92,
      "chip": "ym2612"
    },
    {
      "channel": 1,
      "note": 77,
      "start": 15.1829,
      "duration": 0.1953,
      "velocity": 114,
      "chip": "ym2612"
    },
    {
      "channel": 2,
      "note": 101,
      "start": 15.1872,
      "duration": 0.1952,
      "velocity": 100,
      "chip": "ym2612"
    },
    {
      "channel": 0,
      "note": 50,
      "start": 15.2447,
      "duration": 0.1332,
      "velocity": 92,
      "chip": "ym2612"
    },
    {
      "channel": 4,
      "note": 82,
      "start": 15.2454,
      "duration": 0.133,
      "velocity": 94,
      "chip": "ym2612"
    },
    {
      "channel": 0,
      "note": 41,
      "start": 15.3781,
      "duration": 0.0784,
      "velocity": 92,
      "chip": "ym2612"
    },
    {
      "channel": 1,
      "note": 70,
      "start": 15.3783,
      "duration": 0.0878,
      "velocity": 114,
      "chip": "ym2612"
    },
    {
      "channel": 4,
      "note": 82,
      "start": 15.3786,
      "duration": 0.0787,
      "velocity": 94,
      "chip": "ym2612"
    },
    {
      "channel": 2,
      "note": 94,
      "start": 15.3827,
      "duration": 0.0879,
      "velocity": 100,
      "chip": "ym2612"
    },
    {
      "channel": 0,
      "note": 51,
      "start": 15.4567,
      "duration": 0.009,
      "velocity": 92,
      "chip": "ym2612"
    },
    {
      "channel": 3,
      "note": 77,
      "start": 15.4572,
      "duration": 0.2045,
      "velocity": 100,
      "chip": "ym2612"
    },
    {
      "channel": 4,
      "note": 82,
      "start": 15.4575,
      "duration": 0.0088,
      "velocity": 94,
      "chip": "ym2612"
    },
    {
      "channel": 0,
      "note": 41,
      "start": 15.4659,
      "duration": 0.0618,
      "velocity": 92,
      "chip": "ym2612"
    },
    {
      "channel": 1,
      "note": 80,
      "start": 15.4662,
      "duration": 0.4782,
      "velocity": 114,
      "chip": "ym2612"
    },
    {
      "channel": 4,
      "note": 82,
      "start": 15.4666,
      "duration": 0.0618,
      "velocity": 94,
      "chip": "ym2612"
    },
    {
      "channel": 2,
      "note": 104,
      "start": 15.4708,
      "duration": 0.4853,
      "velocity": 100,
      "chip": "ym2612"
    },
    {
      "channel": 0,
      "note": 53,
      "start": 15.528,
      "duration": 0.1332,
      "velocity": 92,
      "chip": "ym2612"
    },
    {
      "channel": 4,
      "note": 82,
      "start": 15.5288,
      "duration": 0.1333,
      "velocity": 94,
      "chip": "ym2612"
    },
    {
      "channel": 0,
      "note": 39,
      "start": 15.6615,
      "duration": 0.0785,
      "velocity": 92,
      "chip": "ym2612"
    },
    {
      "channel": 3,
      "note": 75,
      "start": 15.662,
      "duration": 0.5655,
      "velocity": 100,
      "chip": "ym2612"
    },
    {
      "channel": 4,
      "note": 82,
      "start": 15.6623,
      "duration": 0.0781,
      "velocity": 94,
      "chip": "ym2612"
    },
    {
      "channel": 4,
      "note": 82,
      "start": 15.7408,
      "duration": 0.1331,
      "velocity": 94,
      "chip": "ym2612"
    },
    {
      "channel": 0,
      "note": 39,
      "start": 15.8736,
      "duration": 0.0617,
      "velocity": 92,
      "chip": "ym2612"
    },
    {
      "channel": 4,
      "note": 82,
      "start": 15.874,
      "duration": 0.0617,
      "velocity": 94,
      "chip": "ym2612"
    },
    {
      "channel": 0,
      "note": 51,
      "start": 15.9355,
      "duration": 0.0086,
      "velocity": 92,
      "chip": "ym2612"
    },
    {
      "channel": 4,
      "note": 82,
      "start": 15.9359,
      "duration": 0.0874,
      "velocity": 94,
      "chip": "ym2612"
    },
    {
      "channel": 0,
      "note": 39,
      "start": 15.9443,
      "duration": 0.0782,
      "velocity": 92,
      "chip": "ym2612"
    },
    {
      "channel": 1,
      "note": 78,
      "start": 15.9445,
      "duration": 0.0783,
      "velocity": 114,
      "chip": "ym2612"
    },
    {
      "channel": 2,
      "note": 102,
      "start": 15.9564,
      "duration": 0.133,
      "velocity": 100,
      "chip": "ym2612"
    },
    {
      "channel": 0,
      "note": 50,
      "start": 16.0227,
      "duration": 0.1332,
      "velocity": 92,
      "chip": "ym2612"
    },
    {
      "channel": 1,
      "note": 77,
      "start": 16.023,
      "duration": 0.1332,
      "velocity": 114,
      "chip": "ym2612"
    },
    {
      "channel": 4,
      "note": 82,
      "start": 16.0237,
      "duration": 0.1329,
      "velocity": 94,
      "chip": "ym2612"
    },
    {
      "channel": 2,
      "note": 101,
      "start": 16.0898,
      "duration": 0.0708,
      "velocity": 100,
      "chip": "ym2612"
    },
    {
      "channel": 0,
      "note": 39,
      "start": 16.1562,
      "duration": 0.0618,
      "velocity": 92,
      "chip": "ym2612"
    },
    {
      "channel": 1,
      "note": 75,
      "start": 16.1564,
      "duration": 0.0707,
      "velocity": 114,
      "chip": "ym2612"
    },
    {
      "channel": 2,
      "note": 99,
      "start": 16.1607,
      "duration": 0.0721,
      "velocity": 100,
      "chip": "ym2612"
    },
    {
      "channel": 0,
      "note": 51,
      "start": 16.2182,
      "duration": 0.0086,
      "velocity": 92,
      "chip": "ym2612"
    },
    {
      "channel": 4,
      "note": 82,
      "start": 16.2187,
      "duration": 0.009,
      "velocity": 94,
      "chip": "ym2612"
    },
    {
      "channel": 0,
      "note": 39,
      "start": 16.227,
      "duration": 0.0101,
      "velocity": 92,
      "chip": "ym2612"
    },
    {
      "channel": 1,
      "note": 74,
      "start": 16.2273,
      "duration": 0.0193,
      "velocity": 114,
      "chip": "ym2612"
    },
    {
      "channel": 3,
      "note": 77,
      "start": 16.2277,
      "duration": 0.0191,
      "velocity": 100,
      "chip": "ym2612"
    },
    {
      "channel": 4,
      "note": 82,
      "start": 16.228,
      "duration": 0.0098,
      "velocity": 94,
      "chip": "ym2612"
    },
    {
      "channel": 2,
      "note": 98,
      "start": 16.2331,
      "duration": 0.018,
      "velocity": 100,
      "chip": "ym2612"
    },
    {
      "channel": 0,
      "note": 50,
      "start": 16.2373,
      "duration": 0.0089,
      "velocity": 92,
      "chip": "ym2612"
    },
    {
      "channel": 4,
      "note": 82,
      "start": 16.2379,
      "duration": 0.0093,
      "velocity": 94,
      "chip": "ym2612"
    },
    {
      "channel": 0,
      "note": 39,
      "start": 16.2464,
      "duration": 0.009,
      "velocity": 92,
      "chip": "ym2612"
    },
    {
      "channel": 1,
      "note": 75,
      "start": 16.2466,
      "duration": 0.0191,
      "velocity": 106,
      "chip": "ym2612"
    },
    {
      "channel": 3,
      "note": 78,
      "start": 16.2471,
      "duration": 0.0199,
      "velocity": 125,
      "chip": "ym2612"
    },
    {
      "channel": 4,
      "note": 82,
      "start": 16.2473,
      "duration": 0.0087,
      "velocity": 94,
      "chip": "ym2612"
    },
    {
      "channel": 2,
      "note": 99,
      "start": 16.2514,
      "duration": 0.0266,
      "velocity": 106,
      "chip": "ym2612"
    },
    {
      "channel": 0,
      "note": 51,
      "start": 16.2556,
      "duration": 0.0089,
      "velocity": 92,
      "chip": "ym2612"
    },
    {
      "channel": 4,
      "note": 82,
      "start": 16.2562,
      "duration": 0.011,
      "velocity": 94,
      "chip": "ym2612"
    },
    {
      "channel": 0,
      "note": 38,
      "start": 16.2647,
      "duration": 0.0785,
      "velocity": 92,
      "chip": "ym2612"
    },
    {
      "channel": 1,
      "note": 89,
      "start": 16.2659,
      "duration": 0.0775,
      "velocity": 106,
      "chip": "ym2612"
    },
    {
      "channel": 3,
      "note": 86,
      "start": 16.2671,
      "duration": 0.0767,
      "velocity": 125,
      "chip": "ym2612"
    },
    {
      "channel": 4,
      "note": 82,
      "start": 16.2675,
      "duration": 0.0767,
      "velocity": 94,
      "chip": "ym2612"
    },
    {
      "channel": 2,
      "note": 101,
      "start": 16.2782,
      "duration": 0.1318,
      "velocity": 106,
      "chip": "ym2612"
    },
    {
      "channel": 3,
      "note": 89,
      "start": 16.3441,
      "duration": 0.133,
      "velocity": 125,
      "chip": "ym2612"
    },
    {
      "channel": 4,
      "note": 82,
      "start": 16.3445,
      "duration": 0.1329,
      "velocity": 94,
      "chip": "ym2612"
    },
    {
      "channel": 0,
      "note": 38,
      "start": 16.4769,
      "duration": 0.0616,
      "velocity": 92,
      "chip": "ym2612"
    },
    {
      "channel": 1,
      "note": 82,
      "start": 16.4771,
      "duration": 0.0617,
      "velocity": 106,
      "chip": "ym2612"
    },
    {
      "channel": 3,
      "note": 94,
      "start": 16.4774,
      "duration": 0.0619,
      "velocity": 125,
      "chip": "ym2612"
    },
    {
      "channel": 4,
      "note": 82,
      "start": 16.4776,
      "duration": 0.062,
      "velocity": 94,
      "chip": "ym2612"
    },
    {
      "channel": 2,
      "note": 94,
      "start": 16.4812,
      "duration": 0.0627,
      "velocity": 106,
      "chip": "ym2612"
    },
    {
      "channel": 0,
      "note": 50,
      "start": 16.5387,
      "duration": 0.0093,
      "velocity": 92,
      "chip": "ym2612"
    },
    {
      "channel": 1,
      "note": 82,
      "start": 16.539,
      "duration": 0.505,
      "velocity": 106,
      "chip": "ym2612"
    },
    {
      "channel": 3,
      "note": 98,
      "start": 16.5395,
      "duration": 0.0092,
      "velocity": 125,
      "chip": "ym2612"
    },
    {
      "channel": 4,
      "note": 82,
      "start": 16.5398,
      "duration": 0.088,
      "velocity": 94,
      "chip": "ym2612"
    },
    {
      "channel": 2,
      "note": 94,
      "start": 16.5441,
      "duration": 0.5041,
      "velocity": 106,
      "chip": "ym2612"
    },
    {
      "channel": 0,
      "note": 38,
      "start": 16.5483,
      "duration": 0.0785,
      "velocity": 92,
      "chip": "ym2612"
    },
    {
      "channel": 3,
      "note": 94,
      "start": 16.5489,
      "duration": 0.0786,
      "velocity": 125,
      "chip": "ym2612"
    },
    {
      "channel": 0,
      "note": 48,
      "start": 16.6271,
      "duration": 0.1332,
      "velocity": 92,
      "chip": "ym2612"
    },
    {
      "channel": 3,
      "note": 89,
      "start": 16.6278,
      "duration": 0.1331,
      "velocity": 125,
      "chip": "ym2612"
    },
    {
      "channel": 4,
      "note": 82,
      "start": 16.6282,
      "duration": 0.1329,
      "velocity": 94,
      "chip": "ym2612"
    },
    {
      "channel": 0,
      "note": 38,
      "start": 16.7606,
      "duration": 0.062,
      "velocity": 92,
      "chip": "ym2612"
    },
    {
      "channel": 3,
      "note": 86,
      "start": 16.7611,
      "duration": 0.0621,
      "velocity": 125,
      "chip": "ym2612"
    },
    {
      "channel": 0,
      "note": 50,
      "start": 16.8228,
      "duration": 0.1498,
      "velocity": 92,
      "chip": "ym2612"
    },
    {
      "channel": 3,
      "note": 89,
      "start": 16.8234,
      "duration": 0.1497,
      "velocity": 125,
      "chip": "ym2612"
    },
    {
      "channel": 4,
      "note": 82,
      "start": 16.8238,
      "duration": 0.1497,
      "velocity": 94,
      "chip": "ym2612"
    },
    {
      "channel": 0,
      "note": 38,
      "start": 16.9729,
      "duration": 0.062,
      "velocity": 92,
      "chip": "ym2612"
    },
    {
      "channel": 3,
      "note": 94,
      "start": 16.9734,
      "duration": 0.062,
      "velocity": 125,
      "chip": "ym2612"
    },
    {
      "channel": 4,
      "note": 82,
      "start": 16.9738,
      "duration": 0.0619,
      "velocity": 94,
      "chip": "ym2612"
    },
    {
      "channel": 0,
      "note": 50,
      "start": 17.035,
      "duration": 0.0088,
      "velocity": 92,
      "chip": "ym2612"
    },
    {
      "channel": 3,
      "note": 98,
      "start": 17.0356,
      "duration": 0.0087,
      "velocity": 125,
      "chip": "ym2612"
    },
    {
      "channel": 4,
      "note": 82,
      "start": 17.0358,
      "duration": 0.0087,
      "velocity": 94,
      "chip": "ym2612"
    },
    {
      "channel": 1,
      "note": 82,
      "start": 17.0441,
      "duration": 0.062,
      "velocity": 106,
      "chip": "ym2612"
    },
    {
      "channel": 3,
      "note": 94,
      "start": 17.0445,
      "duration": 0.0621,
      "velocity": 125,
      "chip": "ym2612"
    },
    {
      "channel": 4,
      "note": 82,
      "start": 17.0447,
      "duration": 0.0622,
      "velocity": 94,
      "chip": "ym2612"
    },
    {
      "channel": 2,
      "note": 94,
      "start": 17.0484,
      "duration": 0.1243,
      "velocity": 106,
      "chip": "ym2612"
    },
    {
      "channel": 0,
      "note": 38,
      "start": 17.106,
      "duration": 0.1499,
      "velocity": 92,
      "chip": "ym2612"
    },
    {
      "channel": 1,
      "note": 84,
      "start": 17.1063,
      "duration": 0.1499,
      "velocity": 106,
      "chip": "ym2612"
    },
    {
      "channel": 3,
      "note": 89,
      "start": 17.1069,
      "duration": 0.1497,
      "velocity": 125,
      "chip": "ym2612"
    },
    {
      "channel": 4,
      "note": 82,
      "start": 17.1073,
      "duration": 0.1497,
      "velocity": 94,
      "chip": "ym2612"
    },
    {
      "channel": 2,
      "note": 96,
      "start": 17.173,
      "duration": 0.0882,
      "velocity": 106,
      "chip": "ym2612"
    },
    {
      "channel": 0,
      "note": 39,
      "start": 17.2561,
      "duration": 0.0621,
      "velocity": 92,
      "chip": "ym2612"
    },
    {
      "channel": 1,
      "note": 85,
      "start": 17.2563,
      "duration": 0.6028,
      "velocity": 106,
      "chip": "ym2612"
    },
    {
      "channel": 3,
      "note": 87,
      "start": 17.2568,
      "duration": 0.0619,
      "velocity": 125,
      "chip": "ym2612"
    },
    {
      "channel": 4,
      "note": 82,
      "start": 17.2572,
      "duration": 0.0619,
      "velocity": 94,
      "chip": "ym2612"
    },
    {
      "channel": 2,
      "note": 97,
      "start": 17.2615,
      "duration": 0.6023,
      "velocity": 106,
      "chip": "ym2612"
    },
    {
      "channel": 3,
      "note": 90,
      "start": 17.319,
      "duration": 0.1331,
      "velocity": 125,
      "chip": "ym2612"
    },
    {
      "channel": 4,
      "note": 82,
      "start": 17.3194,
      "duration": 0.1331,
      "velocity": 94,
      "chip": "ym2612"
    },
    {
      "channel": 0,
      "note": 39,
      "start": 17.4518,
      "duration": 0.0618,
      "velocity": 92,
      "chip": "ym2612"
    },
    {
      "channel": 3,
      "note": 94,
      "start": 17.4524,
      "duration": 0.0618,
      "velocity": 125,
      "chip": "ym2612"
    },
    {
      "channel": 4,
      "note": 82,
      "start": 17.4527,
      "duration": 0.0618,
      "velocity": 94,
      "chip": "ym2612"
    },
    {
      "channel": 0,
      "note": 51,
      "start": 17.5139,
      "duration": 0.0097,
      "velocity": 92,
      "chip": "ym2612"
    },
    {
      "channel": 3,
      "note": 99,
      "start": 17.5144,
      "duration": 0.0096,
      "velocity": 125,
      "chip": "ym2612"
    },
    {
      "channel": 4,
      "note": 82,
      "start": 17.5146,
      "duration": 0.0718,
      "velocity": 94,
      "chip": "ym2612"
    },
    {
      "channel": 0,
      "note": 39,
      "start": 17.5238,
      "duration": 0.0617,
      "velocity": 92,
      "chip": "ym2612"
    },
    {
      "channel": 3,
      "note": 94,
      "start": 17.5243,
      "duration": 0.0619,
      "velocity": 125,
      "chip": "ym2612"
    },
    {
      "channel": 0,
      "note": 50,
      "start": 17.5858,
      "duration": 0.1332,
      "velocity": 92,
      "chip": "ym2612"
    },
    {
      "channel": 3,
      "note": 90,
      "start": 17.5864,
      "duration": 0.1331,
      "velocity": 125,
      "chip": "ym2612"
    },
    {
      "channel": 4,
      "note": 82,
      "start": 17.5868,
      "duration": 0.133,
      "velocity": 94,
      "chip": "ym2612"
    },
    {
      "channel": 0,
      "note": 39,
      "start": 17.7192,
      "duration": 0.0615,
      "velocity": 92,
      "chip": "ym2612"
    },
    {
      "channel": 3,
      "note": 87,
      "start": 17.7198,
      "duration": 0.0616,
      "velocity": 125,
      "chip": "ym2612"
    },
    {
      "channel": 0,
      "note": 51,
      "start": 17.781,
      "duration": 0.0778,
      "velocity": 92,
      "chip": "ym2612"
    },
    {
      "channel": 3,
      "note": 90,
      "start": 17.7817,
      "duration": 0.0778,
      "velocity": 125,
      "chip": "ym2612"
    },
    {
      "channel": 4,
      "note": 82,
      "start": 17.782,
      "duration": 0.0777,
      "velocity": 94,
      "chip": "ym2612"
    },
    {
      "channel": 0,
      "note": 39,
      "start": 17.859,
      "duration": 0.0087,
      "velocity": 92,
      "chip": "ym2612"
    },
    {
      "channel": 1,
      "note": 84,
      "start": 17.8593,
      "duration": 0.0177,
      "velocity": 106,
      "chip": "ym2612"
    },
    {
      "channel": 3,
      "note": 94,
      "start": 17.8597,
      "duration": 0.0086,
      "velocity": 125,
      "chip": "ym2612"
    },
    {
      "channel": 4,
      "note": 82,
      "start": 17.8599,
      "duration": 0.0088,
      "velocity": 94,
      "chip": "ym2612"
    },
    {
      "channel": 2,
      "note": 96,
      "start": 17.864,
      "duration": 0.0175,
      "velocity": 106,
      "chip": "ym2612"
    },
    {
      "channel": 0,
      "note": 50,
      "start": 17.868,
      "duration": 0.0087,
      "velocity": 92,
      "chip": "ym2612"
    },
    {
      "channel": 3,
      "note": 99,
      "start": 17.8687,
      "duration": 0.0087,
      "velocity": 125,
      "chip": "ym2612"
    },
    {
      "channel": 4,
      "note": 82,
      "start": 17.8689,
      "duration": 0.0088,
      "velocity": 94,
      "chip": "ym2612"
    },
    {
      "channel": 0,
      "note": 39,
      "start": 17.8769,
      "duration": 0.009,
      "velocity": 92,
      "chip": "ym2612"
    },
    {
      "channel": 1,
      "note": 80,
      "start": 17.8772,
      "duration": 0.0193,
      "velocity": 106,
      "chip": "ym2612"
    },
    {
      "channel": 3,
      "note": 94,
      "start": 17.8776,
      "duration": 0.009,
      "velocity": 125,
      "chip": "ym2612"
    },
    {
      "channel": 4,
      "note": 82,
      "start": 17.8778,
      "duration": 0.0092,
      "velocity": 94,
      "chip": "ym2612"
    },
    {
      "channel": 2,
      "note": 92,
      "start": 17.8819,
      "duration": 0.0191,
      "velocity": 106,
      "chip": "ym2612"
    },
    {
      "channel": 0,
      "note": 46,
      "start": 17.8862,
      "duration": 0.0099,
      "velocity": 92,
      "chip": "ym2612"
    },
    {
      "channel": 3,
      "note": 90,
      "start": 17.8869,
      "duration": 0.0098,
      "velocity": 125,
      "chip": "ym2612"
    },
    {
      "channel": 4,
      "note": 82,
      "start": 17.8872,
      "duration": 0.0099,
      "velocity": 94,
      "chip": "ym2612"
    },
    {
      "channel": 0,
      "note": 38,
      "start": 17.8964,
      "duration": 0.0617,
      "velocity": 92,
      "chip": "ym2612"
    },
    {
      "channel": 1,
      "note": 82,
      "start": 17.8966,
      "duration": 0.0617,
      "velocity": 106,
      "chip": "ym2612"
    },
    {
      "channel": 3,
      "note": 86,
      "start": 17.897,
      "duration": 0.0616,
      "velocity": 125,
      "chip": "ym2612"
    },
    {
      "channel": 4,
      "note": 82,
      "start": 17.8972,
      "duration": 0.0618,
      "velocity": 94,
      "chip": "ym2612"
    },
    {
      "channel": 2,
      "note": 94,
      "start": 17.9013,
      "duration": 0.1236,
      "velocity": 106,
      "chip": "ym2612"
    },
    {
      "channel": 3,
      "note": 89,
      "start": 17.9589,
      "duration": 0.133,
      "velocity": 125,
      "chip": "ym2612"
    },
    {
      "channel": 4,
      "note": 82,
      "start": 17.9593,
      "duration": 0.1329,
      "velocity": 94,
      "chip": "ym2612"
    },
    {
      "channel": 0,
      "note": 38,
      "start": 18.0917,
      "duration": 0.0615,
      "velocity": 92,
      "chip": "ym2612"
    },
    {
      "channel": 1,
      "note": 89,
      "start": 18.0919,
      "duration": 0.0616,
      "velocity": 106,
      "chip": "ym2612"
    },
    {
      "channel": 3,
      "note": 94,
      "start": 18.0922,
      "duration": 0.0618,
      "velocity": 125,
      "chip": "ym2612"
    },
    {
      "channel": 4,
      "note": 82,
      "start": 18.0924,
      "duration": 0.0618,
      "velocity": 94,
      "chip": "ym2612"
    },
    {
      "channel": 2,
      "note": 101,
      "start": 18.096,
      "duration": 0.0636,
      "velocity": 106,
      "chip": "ym2612"
    },
    {
      "channel": 0,
      "note": 50,
      "start": 18.1534,
      "duration": 0.0102,
      "velocity": 92,
      "chip": "ym2612"
    },
    {
      "channel": 1,
      "note": 89,
      "start": 18.1537,
      "duration": 0.489,
      "velocity": 106,
      "chip": "ym2612"
    },
    {
      "channel": 3,
      "note": 98,
      "start": 18.1542,
      "duration": 0.01,
      "velocity": 125,
      "chip": "ym2612"
    },
    {
      "channel": 4,
      "note": 82,
      "start": 18.1545,
      "duration": 0.072,
      "velocity": 94,
      "chip": "ym2612"
    },
    {
      "channel": 2,
      "note": 101,
      "start": 18.1598,
      "duration": 0.4872,
      "velocity": 106,
      "chip": "ym2612"
    },
    {
      "channel": 0,
      "note": 38,
      "start": 18.1639,
      "duration": 0.0617,
      "velocity": 92,
      "chip": "ym2612"
    },
    {
      "channel": 3,
      "note": 94,
      "start": 18.1645,
      "duration": 0.0617,
      "velocity": 125,
      "chip": "ym2612"
    },
    {
      "channel": 0,
      "note": 48,
      "start": 18.2258,
      "duration": 0.1332,
      "velocity": 92,
      "chip": "ym2612"
    },
    {
      "channel": 3,
      "note": 89,
      "start": 18.2265,
      "duration": 0.1331,
      "velocity": 125,
      "chip": "ym2612"
    },
    {
      "channel": 4,
      "note": 82,
      "start": 18.2269,
      "duration": 0.1329,
      "velocity": 94,
      "chip": "ym2612"
    },
    {
      "channel": 0,
      "note": 38,
      "start": 18.3593,
      "duration": 0.062,
      "velocity": 92,
      "chip": "ym2612"
    },
    {
      "channel": 3,
      "note": 86,
      "start": 18.3598,
      "duration": 0.0621,
      "velocity": 125,
      "chip": "ym2612"
    },
    {
      "channel": 0,
      "note": 50,
      "start": 18.4215,
      "duration": 0.1498,
      "velocity": 92,
      "chip": "ym2612"
    },
    {
      "channel": 3,
      "note": 89,
      "start": 18.4221,
      "duration": 0.1497,
      "velocity": 125,
      "chip": "ym2612"
    },
    {
      "channel": 4,
      "note": 82,
      "start": 18.4225,
      "duration": 0.1496,
      "velocity": 94,
      "chip": "ym2612"
    },
    {
      "channel": 0,
      "note": 38,
      "start": 18.5715,
      "duration": 0.062,
      "velocity": 92,
      "chip": "ym2612"
    },
    {
      "channel": 3,
      "note": 94,
      "start": 18.5721,
      "duration": 0.062,
      "velocity": 125,
      "chip": "ym2612"
    },
    {
      "channel": 4,
      "note": 82,
      "start": 18.5724,
      "duration": 0.0619,
      "velocity": 94,
      "chip": "ym2612"
    },
    {
      "channel": 0,
      "note": 50,
      "start": 18.6337,
      "duration": 0.0087,
      "velocity": 92,
      "chip": "ym2612"
    },
    {
      "channel": 3,
      "note": 98,
      "start": 18.6342,
      "duration": 0.0087,
      "velocity": 125,
      "chip": "ym2612"
    },
    {
      "channel": 4,
      "note": 82,
      "start": 18.6344,
      "duration": 0.0088,
      "velocity": 94,
      "chip": "ym2612"
    },
    {
      "channel": 1,
      "note": 82,
      "start": 18.6428,
      "duration": 0.0621,
      "velocity": 106,
      "chip": "ym2612"
    },
    {
      "channel": 3,
      "note": 94,
      "start": 18.6432,
      "duration": 0.0622,
      "velocity": 125,
      "chip": "ym2612"
    },
    {
      "channel": 4,
      "note": 82,
      "start": 18.6434,
      "duration": 0.0623,
      "velocity": 94,
      "chip": "ym2612"
    },
    {
      "channel": 2,
      "note": 94,
      "start": 18.6473,
      "duration": 0.1409,
      "velocity": 106,
      "chip": "ym2612"
    },
    {
      "channel": 0,
      "note": 38,
      "start": 18.7048,
      "duration": 0.1499,
      "velocity": 92,
      "chip": "ym2612"
    },
    {
      "channel": 1,
      "note": 89,
      "start": 18.7051,
      "duration": 0.1499,
      "velocity": 106,
      "chip": "ym2612"
    },
    {
      "channel": 3,
      "note": 89,
      "start": 18.7057,
      "duration": 0.1497,
      "velocity": 125,
      "chip": "ym2612"
    },
    {
      "channel": 4,
      "note": 82,
      "start": 18.7061,
      "duration": 0.1496,
      "velocity": 94,
      "chip": "ym2612"
    },
    {
      "channel": 2,
      "note": 101,
      "start": 18.7885,
      "duration": 0.0714,
      "velocity": 106,
      "chip": "ym2612"
    },
    {
      "channel": 0,
      "note": 39,
      "start": 18.8549,
      "duration": 0.062,
      "velocity": 92,
      "chip": "ym2612"
    },
    {
      "channel": 1,
      "note": 92,
      "start": 18.8551,
      "duration": 0.479,
      "velocity": 106,
      "chip": "ym2612"
    },
    {
      "channel": 3,
      "note": 87,
      "start": 18.8556,
      "duration": 0.0619,
      "velocity": 125,
      "chip": "ym2612"
    },
    {
      "channel": 4,
      "note": 82,
      "start": 18.8559,
      "duration": 0.0619,
      "velocity": 94,
      "chip": "ym2612"
    },
    {
      "channel": 2,
      "note": 104,
      "start": 18.8601,
      "duration": 0.478,
      "velocity": 106,
      "chip": "ym2612"
    },
    {
      "channel": 3,
      "note": 90,
      "start": 18.9177,
      "duration": 0.1331,
      "velocity": 125,
      "chip": "ym2612"
    },
    {
      "channel": 4,
      "note": 82,
      "start": 18.9181,
      "duration": 0.133,
      "velocity": 94,
      "chip": "ym2612"
    },
    {
      "channel": 0,
      "note": 39,
      "start": 19.0505,
      "duration": 0.0785,
      "velocity": 92,
      "chip": "ym2612"
    },
    {
      "channel": 3,
      "note": 94,
      "start": 19.0511,
      "duration": 0.0785,
      "velocity": 125,
      "chip": "ym2612"
    },
    {
      "channel": 4,
      "note": 82,
      "start": 19.0514,
      "duration": 0.0785,
      "velocity": 94,
      "chip": "ym2612"
    },
    {
      "channel": 0,
      "note": 51,
      "start": 19.1293,
      "duration": 0.0089,
      "velocity": 92,
      "chip": "ym2612"
    },
    {
      "channel": 3,
      "note": 99,
      "start": 19.1298,
      "duration": 0.0089,
      "velocity": 125,
      "chip": "ym2612"
    },
    {
      "channel": 4,
      "note": 82,
      "start": 19.13,
      "duration": 0.0713,
      "velocity": 94,
      "chip": "ym2612"
    },
    {
      "channel": 0,
      "note": 39,
      "start": 19.1384,
      "duration": 0.0619,
      "velocity": 92,
      "chip": "ym2612"
    },
    {
      "channel": 3,
      "note": 94,
      "start": 19.139,
      "duration": 0.062,
      "velocity": 125,
      "chip": "ym2612"
    },
    {
      "channel": 0,
      "note": 50,
      "start": 19.2006,
      "duration": 0.1332,
      "velocity": 92,
      "chip": "ym2612"
    },
    {
      "channel": 3,
      "note": 90,
      "start": 19.2012,
      "duration": 0.1332,
      "velocity": 125,
      "chip": "ym2612"
    },
    {
      "channel": 4,
      "note": 82,
      "start": 19.2017,
      "duration": 0.1331,
      "velocity": 94,
      "chip": "ym2612"
    },
    {
      "channel": 0,
      "note": 39,
      "start": 19.3341,
      "duration": 0.0095,
      "velocity": 92,
      "chip": "ym2612"
    },
    {
      "channel": 1,
      "note": 90,
      "start": 19.3343,
      "duration": 0.0183,
      "velocity": 106,
      "chip": "ym2612"
    },
    {
      "channel": 3,
      "note": 87,
      "start": 19.3347,
      "duration": 0.0094,
      "velocity": 125,
      "chip": "ym2612"
    },
    {
      "channel": 2,
      "note": 102,
      "start": 19.3384,
      "duration": 0.019,
      "velocity": 106,
      "chip": "ym2612"
    },
    {
      "channel": 0,
      "note": 51,
      "start": 19.3439,
      "duration": 0.0084,
      "velocity": 92,
      "chip": "ym2612"
    },
    {
      "channel": 3,
      "note": 90,
      "start": 19.3445,
      "duration": 0.0084,
      "velocity": 125,
      "chip": "ym2612"
    },
    {
      "channel": 4,
      "note": 82,
      "start": 19.3447,
      "duration": 0.0085,
      "velocity": 94,
      "chip": "ym2612"
    },
    {
      "channel": 0,
      "note": 39,
      "start": 19.3525,
      "duration": 0.009,
      "velocity": 92,
      "chip": "ym2612"
    },
    {
      "channel": 1,
      "note": 89,
      "start": 19.3527,
      "duration": 0.018,
      "velocity": 106,
      "chip": "ym2612"
    },
    {
      "channel": 3,
      "note": 94,
      "start": 19.3532,
      "duration": 0.009,
      "velocity": 125,
      "chip": "ym2612"
    },
    {
      "channel": 4,
      "note": 82,
      "start": 19.3534,
      "duration": 0.009,
      "velocity": 94,
      "chip": "ym2612"
    },
    {
      "channel": 2,
      "note": 101,
      "start": 19.3575,
      "duration": 0.0193,
      "velocity": 106,
      "chip": "ym2612"
    },
    {
      "channel": 0,
      "note": 50,
      "start": 19.3617,
      "duration": 0.0086,
      "velocity": 92,
      "chip": "ym2612"
    },
    {
      "channel": 3,
      "note": 99,
      "start": 19.3623,
      "duration": 0.0088,
      "velocity": 125,
      "chip": "ym2612"
    },
    {
      "channel": 4,
      "note": 82,
      "start": 19.3626,
      "duration": 0.0089,
      "velocity": 94,
      "chip": "ym2612"
    },
    {
      "channel": 0,
      "note": 39,
      "start": 19.3706,
      "duration": 0.053,
      "velocity": 92,
      "chip": "ym2612"
    },
    {
      "channel": 1,
      "note": 87,
      "start": 19.3709,
      "duration": 0.0718,
      "velocity": 106,
      "chip": "ym2612"
    },
    {
      "channel": 3,
      "note": 94,
      "start": 19.3714,
      "duration": 0.053,
      "velocity": 125,
      "chip": "ym2612"
    },
    {
      "channel": 4,
      "note": 82,
      "start": 19.3718,
      "duration": 0.0529,
      "velocity": 94,
      "chip": "ym2612"
    },
    {
      "channel": 2,
      "note": 99,
      "start": 19.3771,
      "duration": 0.0704,
      "velocity": 106,
      "chip": "ym2612"
    },
    {
      "channel": 0,
      "note": 53,
      "start": 19.4239,
      "duration": 0.0186,
      "velocity": 92,
      "chip": "ym2612"
    },
    {
      "channel": 3,
      "note": 90,
      "start": 19.4246,
      "duration": 0.0185,
      "velocity": 125,
      "chip": "ym2612"
    },
    {
      "channel": 4,
      "note": 82,
      "start": 19.425,
      "duration": 0.0183,
      "velocity": 94,
      "chip": "ym2612"
    },
    {
      "channel": 0,
      "note": 42,
      "start": 19.4427,
      "duration": 0.0618,
      "velocity": 92,
      "chip": "ym2612"
    },
    {
      "channel": 1,
      "note": 85,
      "start": 19.4429,
      "duration": 0.4782,
      "velocity": 106,
      "chip": "ym2612"
    },
    {
      "channel": 3,
      "note": 94,
      "start": 19.4433,
      "duration": 0.0617,
      "velocity": 125,
      "chip": "ym2612"
    },
    {
      "channel": 4,
      "note": 82,
      "start": 19.4436,
      "duration": 0.0617,
      "velocity": 94,
      "chip": "ym2612"
    },
    {
      "channel": 2,
      "note": 97,
      "start": 19.4477,
      "duration": 0.4848,
      "velocity": 106,
      "chip": "ym2612"
    },
    {
      "channel": 3,
      "note": 90,
      "start": 19.5053,
      "duration": 0.1331,
      "velocity": 125,
      "chip": "ym2612"
    },
    {
      "channel": 4,
      "note": 82,
      "start": 19.5056,
      "duration": 0.133,
      "velocity": 94,
      "chip": "ym2612"
    },
    {
      "channel": 0,
      "note": 42,
      "start": 19.6381,
      "duration": 0.0785,
      "velocity": 92,
      "chip": "ym2612"
    },
    {
      "channel": 3,
      "note": 85,
      "start": 19.6386,
      "duration": 0.0785,
      "velocity": 125,
      "chip": "ym2612"
    },
    {
      "channel": 4,
      "note": 82,
      "start": 19.639,
      "duration": 0.0785,
      "velocity": 94,
      "chip": "ym2612"
    },
    {
      "channel": 0,
      "note": 54,
      "start": 19.7168,
      "duration": 0.0085,
      "velocity": 92,
      "chip": "ym2612"
    },
    {
      "channel": 3,
      "note": 94,
      "start": 19.7174,
      "duration": 0.0085,
      "velocity": 125,
      "chip": "ym2612"
    },
    {
      "channel": 4,
      "note": 82,
      "start": 19.7176,
      "duration": 0.0707,
      "velocity": 94,
      "chip": "ym2612"
    },
    {
      "channel": 0,
      "note": 42,
      "start": 19.7256,
      "duration": 0.0617,
      "velocity": 92,
      "chip": "ym2612"
    },
    {
      "channel": 3,
      "note": 90,
      "start": 19.7261,
      "duration": 0.0619,
      "velocity": 125,
      "chip": "ym2612"
    },
    {
      "channel": 0,
      "note": 54,
      "start": 19.7876,
      "duration": 0.1332,
      "velocity": 92,
      "chip": "ym2612"
    },
    {
      "channel": 3,
      "note": 85,
      "start": 19.7882,
      "duration": 0.1331,
      "velocity": 125,
      "chip": "ym2612"
    },
    {
      "channel": 4,
      "note": 82,
      "start": 19.7887,
      "duration": 0.1331,
      "velocity": 94,
      "chip": "ym2612"
    },
    {
      "channel": 0,
      "note": 42,
      "start": 19.921,
      "duration": 0.0778,
      "velocity": 92,
      "chip": "ym2612"
    },
    {
      "channel": 1,
      "note": 87,
      "start": 19.9212,
      "duration": 0.4947,
      "velocity": 106,
      "chip": "ym2612"
    },
    {
      "channel": 3,
      "note": 94,
      "start": 19.9216,
      "duration": 0.078,
      "velocity": 125,
      "chip": "ym2612"
    },
    {
      "channel": 2,
      "note": 99,
      "start": 19.9328,
      "duration": 0.488,
      "velocity": 106,
      "chip": "ym2612"
    },
    {
      "channel": 0,
      "note": 51,
      "start": 19.9991,
      "duration": 0.1332,
      "velocity": 92,
      "chip": "ym2612"
    },
    {
      "channel": 3,
      "note": 90,
      "start": 19.9998,
      "duration": 0.133,
      "velocity": 125,
      "chip": "ym2612"
    },
    {
      "channel": 4,
      "note": 82,
      "start": 20.0002,
      "duration": 0.1329,
      "velocity": 94,
      "chip": "ym2612"
    },
    {
      "channel": 0,
      "note": 42,
      "start": 20.1325,
      "duration": 0.062,
      "velocity": 92,
      "chip": "ym2612"
    },
    {
      "channel": 3,
      "note": 85,
      "start": 20.133,
      "duration": 0.062,
      "velocity": 125,
      "chip": "ym2612"
    },
    {
      "channel": 4,
      "note": 82,
      "start": 20.1334,
      "duration": 0.062,
      "velocity": 94,
      "chip": "ym2612"
    },
    {
      "channel": 0,
      "note": 53,
      "start": 20.1947,
      "duration": 0.0089,
      "velocity": 92,
      "chip": "ym2612"
    },
    {
      "channel": 3,
      "note": 94,
      "start": 20.1953,
      "duration": 0.0089,
      "velocity": 125,
      "chip": "ym2612"
    },
    {
      "channel": 4,
      "note": 82,
      "start": 20.1955,
      "duration": 0.009,
      "velocity": 94,
      "chip": "ym2612"
    },
    {
      "channel": 0,
      "note": 42,
      "start": 20.2039,
      "duration": 0.0783,
      "velocity": 92,
      "chip": "ym2612"
    },
    {
      "channel": 3,
      "note": 90,
      "start": 20.2044,
      "duration": 0.0784,
      "velocity": 125,
      "chip": "ym2612"
    },
    {
      "channel": 4,
      "note": 82,
      "start": 20.2047,
      "duration": 0.0784,
      "velocity": 94,
      "chip": "ym2612"
    },
    {
      "channel": 0,
      "note": 54,
      "start": 20.2824,
      "duration": 0.1332,
      "velocity": 92,
      "chip": "ym2612"
    },
    {
      "channel": 3,
      "note": 85,
      "start": 20.2831,
      "duration": 0.1331,
      "velocity": 125,
      "chip": "ym2612"
    },
    {
      "channel": 4,
      "note": 82,
      "start": 20.2835,
      "duration": 0.1331,
      "velocity": 94,
      "chip": "ym2612"
    },
    {
      "channel": 0,
      "note": 42,
      "start": 20.4159,
      "duration": 0.0621,
      "velocity": 92,
      "chip": "ym2612"
    },
    {
      "channel": 1,
      "note": 84,
      "start": 20.4161,
      "duration": 0.479,
      "velocity": 106,
      "chip": "ym2612"
    },
    {
      "channel": 3,
      "note": 94,
      "start": 20.4165,
      "duration": 0.0622,
      "velocity": 125,
      "chip": "ym2612"
    },
    {
      "channel": 4,
      "note": 82,
      "start": 20.4169,
      "duration": 0.0621,
      "velocity": 94,
      "chip": "ym2612"
    },
    {
      "channel": 2,
      "note": 96,
      "start": 20.421,
      "duration": 0.4858,
      "velocity": 106,
      "chip": "ym2612"
    },
    {
      "channel": 0,
      "note": 54,
      "start": 20.4782,
      "duration": 0.1332,
      "velocity": 92,
      "chip": "ym2612"
    },
    {
      "channel": 3,
      "note": 90,
      "start": 20.4789,
      "duration": 0.133,
      "velocity": 125,
      "chip": "ym2612"
    },
    {
      "channel": 4,
      "note": 82,
      "start": 20.4793,
      "duration": 0.1329,
      "velocity": 94,
      "chip": "ym2612"
    },
    {
      "channel": 0,
      "note": 42,
      "start": 20.6116,
      "duration": 0.0785,
      "velocity": 92,
      "chip": "ym2612"
    },
    {
      "channel": 3,
      "note": 85,
      "start": 20.6121,
      "duration": 0.0785,
      "velocity": 125,
      "chip": "ym2612"
    },
    {
      "channel": 4,
      "note": 82,
      "start": 20.6125,
      "duration": 0.0785,
      "velocity": 94,
      "chip": "ym2612"
    },
    {
      "channel": 0,
      "note": 54,
      "start": 20.6903,
      "duration": 0.0089,
      "velocity": 92,
      "chip": "ym2612"
    },
    {
      "channel": 3,
      "note": 94,
      "start": 20.6909,
      "duration": 0.0088,
      "velocity": 125,
      "chip": "ym2612"
    },
    {
      "channel": 4,
      "note": 82,
      "start": 20.6912,
      "duration": 0.0711,
      "velocity": 94,
      "chip": "ym2612"
    },
    {
      "channel": 0,
      "note": 42,
      "start": 20.6994,
      "duration": 0.0619,
      "velocity": 92,
      "chip": "ym2612"
    },
    {
      "channel": 3,
      "note": 90,
      "start": 20.7,
      "duration": 0.062,
      "velocity": 125,
      "chip": "ym2612"
    },
    {
      "channel": 0,
      "note": 54,
      "start": 20.7616,
      "duration": 0.1332,
      "velocity": 92,
      "chip": "ym2612"
    },
    {
      "channel": 3,
      "note": 85,
      "start": 20.7622,
      "duration": 0.1332,
      "velocity": 125,
      "chip": "ym2612"
    },
    {
      "channel": 4,
      "note": 82,
      "start": 20.7627,
      "duration": 0.1331,
      "velocity": 94,
      "chip": "ym2612"
    },
    {
      "channel": 0,
      "note": 44,
      "start": 20.8951,
      "duration": 0.0781,
      "velocity": 92,
      "chip": "ym2612"
    },
    {
      "channel": 1,
      "note": 85,
      "start": 20.8953,
      "duration": 0.2116,
      "velocity": 106,
      "chip": "ym2612"
    },
    {
      "channel": 3,
      "note": 96,
      "start": 20.8957,
      "duration": 0.0782,
      "velocity": 125,
      "chip": "ym2612"
    },
    {
      "channel": 2,
      "note": 97,
      "start": 20.9071,
      "duration": 0.2047,
      "velocity": 106,
      "chip": "ym2612"
    },
    {
      "channel": 0,
      "note": 56,
      "start": 20.9734,
      "duration": 0.1332,
      "velocity": 92,
      "chip": "ym2612"
    },
    {
      "channel": 3,
      "note": 92,
      "start": 20.9741,
      "duration": 0.1331,
      "velocity": 125,
      "chip": "ym2612"
    },
    {
      "channel": 4,
      "note": 82,
      "start": 20.9745,
      "duration": 0.133,
      "velocity": 94,
      "chip": "ym2612"
    },
    {
      "channel": 0,
      "note": 44,
      "start": 21.1068,
      "duration": 0.0624,
      "velocity": 92,
      "chip": "ym2612"
    },
    {
      "channel": 1,
      "note": 84,
      "start": 21.107,
      "duration": 0.0727,
      "velocity": 106,
      "chip": "ym2612"
    },
    {
      "channel": 3,
      "note": 87,
      "start": 21.1074,
      "duration": 0.0622,
      "velocity": 125,
      "chip": "ym2612"
    },
    {
      "channel": 4,
      "note": 82,
      "start": 21.1078,
      "duration": 0.0622,
      "velocity": 94,
      "chip": "ym2612"
    },
    {
      "channel": 2,
      "note": 96,
      "start": 21.1121,
      "duration": 0.0721,
      "velocity": 106,
      "chip": "ym2612"
    },
    {
      "channel": 0,
      "note": 56,
      "start": 21.1694,
      "duration": 0.01,
      "velocity": 92,
      "chip": "ym2612"
    },
    {
      "channel": 3,
      "note": 96,
      "start": 21.1699,
      "duration": 0.0101,
      "velocity": 125,
      "chip": "ym2612"
    },
    {
      "channel": 4,
      "note": 82,
      "start": 21.1702,
      "duration": 0.0101,
      "velocity": 94,
      "chip": "ym2612"
    },
    {
      "channel": 0,
      "note": 44,
      "start": 21.1796,
      "duration": 0.009,
      "velocity": 92,
      "chip": "ym2612"
    },
    {
      "channel": 1,
      "note": 92,
      "start": 21.1798,
      "duration": 0.0189,
      "velocity": 112,
      "chip": "ym2612"
    },
    {
      "channel": 3,
      "note": 92,
      "start": 21.1802,
      "duration": 0.009,
      "velocity": 125,
      "chip": "ym2612"
    },
    {
      "channel": 4,
      "note": 82,
      "start": 21.1805,
      "duration": 0.0089,
      "velocity": 94,
      "chip": "ym2612"
    },
    {
      "channel": 2,
      "note": 104,
      "start": 21.1846,
      "duration": 0.0207,
      "velocity": 106,
      "chip": "ym2612"
    },
    {
      "channel": 0,
      "note": 56,
      "start": 21.1888,
      "duration": 0.0087,
      "velocity": 92,
      "chip": "ym2612"
    },
    {
      "channel": 3,
      "note": 87,
      "start": 21.1894,
      "duration": 0.0104,
      "velocity": 113,
      "chip": "ym2612"
    },
    {
      "channel": 4,
      "note": 82,
      "start": 21.1895,
      "duration": 0.0107,
      "velocity": 94,
      "chip": "ym2612"
    },
    {
      "channel": 0,
      "note": 46,
      "start": 21.1977,
      "duration": 0.0622,
      "velocity": 92,
      "chip": "ym2612"
    },
    {
      "channel": 1,
      "note": 63,
      "start": 21.1989,
      "duration": 0.0613,
      "velocity": 112,
      "chip": "ym2612"
    },
    {
      "channel": 3,
      "note": 82,
      "start": 21.2001,
      "duration": 1.5202,
      "velocity": 113,
      "chip": "ym2612"
    },
    {
      "channel": 4,
      "note": 82,
      "start": 21.2005,
      "duration": 0.0602,
      "velocity": 94,
      "chip": "ym2612"
    },
    {
      "channel": 2,
      "note": 63,
      "start": 21.2054,
      "duration": 0.1214,
      "velocity": 106,
      "chip": "ym2612"
    },
    {
      "channel": 1,
      "note": 65,
      "start": 21.2604,
      "duration": 0.1499,
      "velocity": 112,
      "chip": "ym2612"
    },
    {
      "channel": 4,
      "note": 82,
      "start": 21.261,
      "duration": 0.1496,
      "velocity": 94,
      "chip": "ym2612"
    },
    {
      "channel": 2,
      "note": 65,
      "start": 21.3271,
      "duration": 0.0876,
      "velocity": 106,
      "chip": "ym2612"
    },
    {
      "channel": 0,
      "note": 46,
      "start": 21.4102,
      "duration": 0.0619,
      "velocity": 92,
      "chip": "ym2612"
    },
    {
      "channel": 1,
      "note": 70,
      "start": 21.4105,
      "duration": 0.0619,
      "velocity": 112,
      "chip": "ym2612"
    },
    {
      "channel": 4,
      "note": 82,
      "start": 21.4108,
      "duration": 0.0621,
      "velocity": 94,
      "chip": "ym2612"
    },
    {
      "channel": 2,
      "note": 70,
      "start": 21.415,
      "duration": 0.0622,
      "velocity": 106,
      "chip": "ym2612"
    },
    {
      "channel": 0,
      "note": 58,
      "start": 21.4723,
      "duration": 0.0092,
      "velocity": 92,
      "chip": "ym2612"
    },
    {
      "channel": 1,
      "note": 75,
      "start": 21.4726,
      "duration": 0.4874,
      "velocity": 112,
      "chip": "ym2612"
    },
    {
      "channel": 4,
      "note": 82,
      "start": 21.4732,
      "duration": 0.0709,
      "velocity": 94,
      "chip": "ym2612"
    },
    {
      "channel": 2,
      "note": 75,
      "start": 21.4774,
      "duration": 0.487,
      "velocity": 106,
      "chip": "ym2612"
    },
    {
      "channel": 0,
      "note": 56,
      "start": 21.4818,
      "duration": 0.0616,
      "velocity": 92,
      "chip": "ym2612"
    },
    {
      "channel": 0,
      "note": 58,
      "start": 21.5436,
      "duration": 0.1499,
      "velocity": 92,
      "chip": "ym2612"
    },
    {
      "channel": 4,
      "note": 82,
      "start": 21.5444,
      "duration": 0.1494,
      "velocity": 94,
      "chip": "ym2612"
    },
    {
      "channel": 0,
      "note": 58,
      "start": 21.7548,
      "duration": 0.1332,
      "velocity": 92,
      "chip": "ym2612"
    },
    {
      "channel": 4,
      "note": 82,
      "start": 21.7555,
      "duration": 0.133,
      "velocity": 94,
      "chip": "ym2612"
    },
    {
      "channel": 0,
      "note": 46,
      "start": 21.8882,
      "duration": 0.0618,
      "velocity": 92,
      "chip": "ym2612"
    },
    {
      "channel": 4,
      "note": 82,
      "start": 21.8887,
      "duration": 0.0619,
      "velocity": 94,
      "chip": "ym2612"
    },
    {
      "channel": 0,
      "note": 56,
      "start": 21.9502,
      "duration": 0.0094,
      "velocity": 92,
      "chip": "ym2612"
    },
    {
      "channel": 4,
      "note": 82,
      "start": 21.9508,
      "duration": 0.0095,
      "velocity": 94,
      "chip": "ym2612"
    },
    {
      "channel": 0,
      "note": 46,
      "start": 21.9599,
      "duration": 0.0618,
      "velocity": 92,
      "chip": "ym2612"
    },
    {
      "channel": 1,
      "note": 72,
      "start": 21.9601,
      "duration": 0.0619,
      "velocity": 112,
      "chip": "ym2612"
    },
    {
      "channel": 4,
      "note": 82,
      "start": 21.9607,
      "duration": 0.062,
      "velocity": 94,
      "chip": "ym2612"
    },
    {
      "channel": 2,
      "note": 72,
      "start": 21.9647,
      "duration": 0.124,
      "velocity": 106,
      "chip": "ym2612"
    },
    {
      "channel": 0,
      "note": 58,
      "start": 22.022,
      "duration": 0.1332,
      "velocity": 92,
      "chip": "ym2612"
    },
    {
      "channel": 1,
      "note": 75,
      "start": 22.0223,
      "duration": 0.1332,
      "velocity": 112,
      "chip": "ym2612"
    },
    {
      "channel": 4,
      "note": 82,
      "start": 22.0229,
      "duration": 0.1329,
      "velocity": 94,
      "chip": "ym2612"
    },
    {
      "channel": 2,
      "note": 75,
      "start": 22.089,
      "duration": 0.0712,
      "velocity": 106,
      "chip": "ym2612"
    },
    {
      "channel": 0,
      "note": 46,
      "start": 22.1554,
      "duration": 0.062,
      "velocity": 92,
      "chip": "ym2612"
    },
    {
      "channel": 1,
      "note": 74,
      "start": 22.1556,
      "duration": 0.5644,
      "velocity": 112,
      "chip": "ym2612"
    },
    {
      "channel": 4,
      "note": 82,
      "start": 22.1561,
      "duration": 0.0621,
      "velocity": 94,
      "chip": "ym2612"
    },
    {
      "channel": 2,
      "note": 74,
      "start": 22.1605,
      "duration": 0.5641,
      "velocity": 106,
      "chip": "ym2612"
    },
    {
      "channel": 0,
      "note": 58,
      "start": 22.2177,
      "duration": 0.1498,
      "velocity": 92,
      "chip": "ym2612"
    },
    {
      "channel": 4,
      "note": 82,
      "start": 22.2185,
      "duration": 0.1496,
      "velocity": 94,
      "chip": "ym2612"
    },
    {
      "channel": 0,
      "note": 46,
      "start": 22.3678,
      "duration": 0.0615,
      "velocity": 92,
      "chip": "ym2612"
    },
    {
      "channel": 4,
      "note": 82,
      "start": 22.3682,
      "duration": 0.0616,
      "velocity": 94,
      "chip": "ym2612"
    },
    {
      "channel": 0,
      "note": 56,
      "start": 22.4295,
      "duration": 0.0085,
      "velocity": 92,
      "chip": "ym2612"
    },
    {
      "channel": 4,
      "note": 82,
      "start": 22.4299,
      "duration": 0.0704,
      "velocity": 94,
      "chip": "ym2612"
    },
    {
      "channel": 0,
      "note": 58,
      "start": 22.5,
      "duration": 0.1499,
      "velocity": 92,
      "chip": "ym2612"
    },
    {
      "channel": 4,
      "note": 82,
      "start": 22.5007,
      "duration": 0.1494,
      "velocity": 94,
      "chip": "ym2612"
    },
    {
      "channel": 0,
      "note": 58,
      "start": 22.7112,
      "duration": 0.0085,
      "velocity": 92,
      "chip": "ym2612"
    },
    {
      "channel": 4,
      "note": 82,
      "start": 22.7118,
      "duration": 0.0089,
      "velocity": 94,
      "chip": "ym2612"
    },
    {
      "channel": 0,
      "note": 46,
      "start": 22.72,
      "duration": 0.009,
      "velocity": 92,
      "chip": "ym2612"
    },
    {
      "channel": 1,
      "note": 70,
      "start": 22.7202,
      "duration": 0.0189,
      "velocity": 112,
      "chip": "ym2612"
    },
    {
      "channel": 3,
      "note": 77,
      "start": 22.7207,
      "duration": 0.0187,
      "velocity": 113,
      "chip": "ym2612"
    },
    {
      "channel": 4,
      "note": 82,
      "start": 22.721,
      "duration": 0.0086,
      "velocity": 94,
      "chip": "ym2612"
    },
    {
      "channel": 2,
      "note": 70,
      "start": 22.7249,
      "duration": 0.019,
      "velocity": 106,
      "chip": "ym2612"
    },
    {
      "channel": 0,
      "note": 56,
      "start": 22.7293,
      "duration": 0.0096,
      "velocity": 92,
      "chip": "ym2612"
    },
    {
      "channel": 4,
      "note": 82,
      "start": 22.7299,
      "duration": 0.0098,
      "velocity": 94,
      "chip": "ym2612"
    },
    {
      "channel": 0,
      "note": 46,
      "start": 22.7391,
      "duration": 0.009,
      "velocity": 92,
      "chip": "ym2612"
    },
    {
      "channel": 1,
      "note": 65,
      "start": 22.7393,
      "duration": 0.0182,
      "velocity": 112,
      "chip": "ym2612"
    },
    {
      "channel": 3,
      "note": 74,
      "start": 22.7397,
      "duration": 0.018,
      "velocity": 113,
      "chip": "ym2612"
    },
    {
      "channel": 4,
      "note": 82,
      "start": 22.74,
      "duration": 0.0088,
      "velocity": 94,
      "chip": "ym2612"
    },
    {
      "channel": 2,
      "note": 65,
      "start": 22.7441,
      "duration": 0.018,
      "velocity": 106,
      "chip": "ym2612"
    },
    {
      "channel": 0,
      "note": 58,
      "start": 22.7484,
      "duration": 0.0088,
      "velocity": 92,
      "chip": "ym2612"
    },
    {
      "channel": 4,
      "note": 82,
      "start": 22.749,
      "duration": 0.009,
      "velocity": 94,
      "chip": "ym2612"
    },
    {
      "channel": 0,
      "note": 42,
      "start": 22.7574,
      "duration": 0.0618,
      "velocity": 92,
      "chip": "ym2612"
    },
    {
      "channel": 1,
      "note": 68,
      "start": 22.7576,
      "duration": 0.2737,
      "velocity": 112,
      "chip": "ym2612"
    },
    {
      "channel": 3,
      "note": 78,
      "start": 22.7579,
      "duration": 0.9707,
      "velocity": 113,
      "chip": "ym2612"
    },
    {
      "channel": 4,
      "note": 82,
      "start": 22.7582,
      "duration": 0.0615,
      "velocity": 94,
      "chip": "ym2612"
    },
    {
      "channel": 2,
      "note": 68,
      "start": 22.7624,
      "duration": 0.2734,
      "velocity": 106,
      "chip": "ym2612"
    },
    {
      "channel": 4,
      "note": 82,
      "start": 22.8201,
      "duration": 0.1497,
      "velocity": 94,
      "chip": "ym2612"
    },
    {
      "channel": 0,
      "note": 42,
      "start": 22.9695,
      "duration": 0.0615,
      "velocity": 92,
      "chip": "ym2612"
    },
    {
      "channel": 4,
      "note": 82,
      "start": 22.9699,
      "duration": 0.0618,
      "velocity": 94,
      "chip": "ym2612"
    },
    {
      "channel": 0,
      "note": 54,
      "start": 23.0312,
      "duration": 0.0089,
      "velocity": 92,
      "chip": "ym2612"
    },
    {
      "channel": 1,
      "note": 70,
      "start": 23.0315,
      "duration": 0.4943,
      "velocity": 112,
      "chip": "ym2612"
    },
    {
      "channel": 4,
      "note": 82,
      "start": 23.0319,
      "duration": 0.0874,
      "velocity": 94,
      "chip": "ym2612"
    },
    {
      "channel": 2,
      "note": 70,
      "start": 23.0361,
      "duration": 0.4939,
      "velocity": 106,
      "chip": "ym2612"
    },
    {
      "channel": 0,
      "note": 42,
      "start": 23.0404,
      "duration": 0.0783,
      "velocity": 92,
      "chip": "ym2612"
    },
    {
      "channel": 0,
      "note": 53,
      "start": 23.1189,
      "duration": 0.1332,
      "velocity": 92,
      "chip": "ym2612"
    },
    {
      "channel": 4,
      "note": 82,
      "start": 23.1197,
      "duration": 0.1329,
      "velocity": 94,
      "chip": "ym2612"
    },
    {
      "channel": 0,
      "note": 42,
      "start": 23.2523,
      "duration": 0.0611,
      "velocity": 92,
      "chip": "ym2612"
    },
    {
      "channel": 0,
      "note": 54,
      "start": 23.3137,
      "duration": 0.1332,
      "velocity": 92,
      "chip": "ym2612"
    },
    {
      "channel": 4,
      "note": 82,
      "start": 23.3144,
      "duration": 0.133,
      "velocity": 94,
      "chip": "ym2612"
    },
    {
      "channel": 0,
      "note": 42,
      "start": 23.447,
      "duration": 0.0785,
      "velocity": 92,
      "chip": "ym2612"
    },
    {
      "channel": 4,
      "note": 82,
      "start": 23.4475,
      "duration": 0.0785,
      "velocity": 94,
      "chip": "ym2612"
    },
    {
      "channel": 0,
      "note": 51,
      "start": 23.5257,
      "duration": 0.0072,
      "velocity": 92,
      "chip": "ym2612"
    },
    {
      "channel": 4,
      "note": 82,
      "start": 23.5262,
      "duration": 0.0071,
      "velocity": 94,
      "chip": "ym2612"
    },
    {
      "channel": 0,
      "note": 53,
      "start": 23.5331,
      "duration": 0.0614,
      "velocity": 92,
      "chip": "ym2612"
    },
    {
      "channel": 4,
      "note": 82,
      "start": 23.5336,
      "duration": 0.0616,
      "velocity": 94,
      "chip": "ym2612"
    },
    {
      "channel": 0,
      "note": 54,
      "start": 23.5948,
      "duration": 0.1332,
      "velocity": 92,
      "chip": "ym2612"
    },
    {
      "channel": 1,
      "note": 68,
      "start": 23.5951,
      "duration": 0.1332,
      "velocity": 112,
      "chip": "ym2612"
    },
    {
      "channel": 4,
      "note": 82,
      "start": 23.5955,
      "duration": 0.1335,
      "velocity": 94,
      "chip": "ym2612"
    },
    {
      "channel": 2,
      "note": 68,
      "start": 23.6618,
      "duration": 0.0715,
      "velocity": 106,
      "chip": "ym2612"
    },
    {
      "channel": 0,
      "note": 44,
      "start": 23.7282,
      "duration": 0.0787,
      "velocity": 92,
      "chip": "ym2612"
    },
    {
      "channel": 1,
      "note": 68,
      "start": 23.7284,
      "duration": 0.2741,
      "velocity": 112,
      "chip": "ym2612"
    },
    {
      "channel": 3,
      "note": 80,
      "start": 23.7289,
      "duration": 0.4956,
      "velocity": 125,
      "chip": "ym2612"
    },
    {
      "channel": 4,
      "note": 82,
      "start": 23.7293,
      "duration": 0.0782,
      "velocity": 94,
      "chip": "ym2612"
    },
    {
      "channel": 2,
      "note": 68,
      "start": 23.7334,
      "duration": 0.2736,
      "velocity": 106,
      "chip": "ym2612"
    },
    {
      "channel": 4,
      "note": 82,
      "start": 23.8078,
      "duration": 0.133,
      "velocity": 94,
      "chip": "ym2612"
    },
    {
      "channel": 0,
      "note": 44,
      "start": 23.9405,
      "duration": 0.0617,
      "velocity": 92,
      "chip": "ym2612"
    },
    {
      "channel": 4,
      "note": 82,
      "start": 23.941,
      "duration": 0.062,
      "velocity": 94,
      "chip": "ym2612"
    },
    {
      "channel": 0,
      "note": 56,
      "start": 24.0025,
      "duration": 0.0089,
      "velocity": 92,
      "chip": "ym2612"
    },
    {
      "channel": 1,
      "note": 70,
      "start": 24.0027,
      "duration": 0.3968,
      "velocity": 112,
      "chip": "ym2612"
    },
    {
      "channel": 4,
      "note": 82,
      "start": 24.0031,
      "duration": 0.0874,
      "velocity": 94,
      "chip": "ym2612"
    },
    {
      "channel": 2,
      "note": 70,
      "start": 24.0073,
      "duration": 0.4041,
      "velocity": 106,
      "chip": "ym2612"
    },
    {
      "channel": 0,
      "note": 44,
      "start": 24.0116,
      "duration": 0.0783,
      "velocity": 92,
      "chip": "ym2612"
    },
    {
      "channel": 0,
      "note": 54,
      "start": 24.0901,
      "duration": 0.1332,
      "velocity": 92,
      "chip": "ym2612"
    },
    {
      "channel": 4,
      "note": 82,
      "start": 24.0909,
      "duration": 0.134,
      "velocity": 94,
      "chip": "ym2612"
    },
    {
      "channel": 0,
      "note": 44,
      "start": 24.2236,
      "duration": 0.0613,
      "velocity": 92,
      "chip": "ym2612"
    },
    {
      "channel": 3,
      "note": 87,
      "start": 24.2249,
      "duration": 0.0606,
      "velocity": 125,
      "chip": "ym2612"
    },
    {
      "channel": 0,
      "note": 56,
      "start": 24.2851,
      "duration": 0.0707,
      "velocity": 92,
      "chip": "ym2612"
    },
    {
      "channel": 3,
      "note": 89,
      "start": 24.2858,
      "duration": 0.0705,
      "velocity": 125,
      "chip": "ym2612"
    },
    {
      "channel": 4,
      "note": 82,
      "start": 24.2861,
      "duration": 0.0705,
      "velocity": 94,
      "chip": "ym2612"
    },
    {
      "channel": 0,
      "note": 44,
      "start": 24.3561,
      "duration": 0.0159,
      "velocity": 92,
      "chip": "ym2612"
    },
    {
      "channel": 3,
      "note": 94,
      "start": 24.3566,
      "duration": 0.016,
      "velocity": 125,
      "chip": "ym2612"
    },
    {
      "channel": 4,
      "note": 82,
      "start": 24.3568,
      "duration": 0.0159,
      "velocity": 94,
      "chip": "ym2612"
    },
    {
      "channel": 0,
      "note": 51,
      "start": 24.3722,
      "duration": 0.0089,
      "velocity": 92,
      "chip": "ym2612"
    },
    {
      "channel": 3,
      "note": 99,
      "start": 24.3727,
      "duration": 0.0089,
      "velocity": 125,
      "chip": "ym2612"
    },
    {
      "channel": 4,
      "note": 82,
      "start": 24.3729,
      "duration": 0.009,
      "velocity": 94,
      "chip": "ym2612"
    },
    {
      "channel": 0,
      "note": 53,
      "start": 24.3814,
      "duration": 0.0089,
      "velocity": 92,
      "chip": "ym2612"
    },
    {
      "channel": 3,
      "note": 98,
      "start": 24.3819,
      "duration": 0.0089,
      "velocity": 125,
      "chip": "ym2612"
    },
    {
      "channel": 4,
      "note": 82,
      "start": 24.3822,
      "duration": 0.0089,
      "velocity": 94,
      "chip": "ym2612"
    },
    {
      "channel": 0,
      "note": 56,
      "start": 24.3906,
      "duration": 0.0087,
      "velocity": 92,
      "chip": "ym2612"
    },
    {
      "channel": 3,
      "note": 89,
      "start": 24.3911,
      "duration": 0.0098,
      "velocity": 113,
      "chip": "ym2612"
    },
    {
      "channel": 4,
      "note": 82,
      "start": 24.3914,
      "duration": 0.0098,
      "velocity": 94,
      "chip": "ym2612"
    },
    {
      "channel": 0,
      "note": 46,
      "start": 24.3995,
      "duration": 0.0782,
      "velocity": 92,
      "chip": "ym2612"
    },
    {
      "channel": 1,
      "note": 63,
      "start": 24.3997,
      "duration": 0.0782,
      "velocity": 112,
      "chip": "ym2612"
    },
    {
      "channel": 3,
      "note": 82,
      "start": 24.401,
      "duration": 1.469,
      "velocity": 113,
      "chip": "ym2612"
    },
    {
      "channel": 4,
      "note": 82,
      "start": 24.4014,
      "duration": 0.0771,
      "velocity": 94,
      "chip": "ym2612"
    },
    {
      "channel": 2,
      "note": 63,
      "start": 24.4117,
      "duration": 0.1329,
      "velocity": 106,
      "chip": "ym2612"
    },
    {
      "channel": 1,
      "note": 65,
      "start": 24.4782,
      "duration": 0.1332,
      "velocity": 112,
      "chip": "ym2612"
    },
    {
      "channel": 4,
      "note": 82,
      "start": 24.4788,
      "duration": 0.133,
      "velocity": 94,
      "chip": "ym2612"
    },
    {
      "channel": 2,
      "note": 65,
      "start": 24.5449,
      "duration": 0.0714,
      "velocity": 106,
      "chip": "ym2612"
    },
    {
      "channel": 0,
      "note": 46,
      "start": 24.6114,
      "duration": 0.0622,
      "velocity": 92,
      "chip": "ym2612"
    },
    {
      "channel": 1,
      "note": 70,
      "start": 24.6116,
      "duration": 0.0623,
      "velocity": 112,
      "chip": "ym2612"
    },
    {
      "channel": 4,
      "note": 82,
      "start": 24.612,
      "duration": 0.0624,
      "velocity": 94,
      "chip": "ym2612"
    },
    {
      "channel": 2,
      "note": 70,
      "start": 24.6166,
      "duration": 0.0621,
      "velocity": 106,
      "chip": "ym2612"
    },
    {
      "channel": 0,
      "note": 58,
      "start": 24.6738,
      "duration": 0.0092,
      "velocity": 92,
      "chip": "ym2612"
    },
    {
      "channel": 1,
      "note": 75,
      "start": 24.6741,
      "duration": 0.503,
      "velocity": 112,
      "chip": "ym2612"
    },
    {
      "channel": 4,
      "note": 82,
      "start": 24.6746,
      "duration": 0.0875,
      "velocity": 94,
      "chip": "ym2612"
    },
    {
      "channel": 2,
      "note": 75,
      "start": 24.6789,
      "duration": 0.5024,
      "velocity": 106,
      "chip": "ym2612"
    },
    {
      "channel": 0,
      "note": 46,
      "start": 24.6833,
      "duration": 0.0782,
      "velocity": 92,
      "chip": "ym2612"
    },
    {
      "channel": 0,
      "note": 56,
      "start": 24.7617,
      "duration": 0.1332,
      "velocity": 92,
      "chip": "ym2612"
    },
    {
      "channel": 4,
      "note": 82,
      "start": 24.7625,
      "duration": 0.1329,
      "velocity": 94,
      "chip": "ym2612"
    },
    {
      "channel": 0,
      "note": 46,
      "start": 24.8951,
      "duration": 0.0611,
      "velocity": 92,
      "chip": "ym2612"
    },
    {
      "channel": 0,
      "note": 58,
      "start": 24.9565,
      "duration": 0.1332,
      "velocity": 92,
      "chip": "ym2612"
    },
    {
      "channel": 4,
      "note": 82,
      "start": 24.9572,
      "duration": 0.133,
      "velocity": 94,
      "chip": "ym2612"
    },
    {
      "channel": 0,
      "note": 46,
      "start": 25.0898,
      "duration": 0.0781,
      "velocity": 92,
      "chip": "ym2612"
    },
    {
      "channel": 4,
      "note": 82,
      "start": 25.0903,
      "duration": 0.0782,
      "velocity": 94,
      "chip": "ym2612"
    },
    {
      "channel": 0,
      "note": 56,
      "start": 25.1681,
      "duration": 0.0087,
      "velocity": 92,
      "chip": "ym2612"
    },
    {
      "channel": 4,
      "note": 82,
      "start": 25.1687,
      "duration": 0.0085,
      "velocity": 94,
      "chip": "ym2612"
    },
    {
      "channel": 1,
      "note": 72,
      "start": 25.1772,
      "duration": 0.0621,
      "velocity": 112,
      "chip": "ym2612"
    },
    {
      "channel": 4,
      "note": 82,
      "start": 25.1774,
      "duration": 0.0624,
      "velocity": 94,
      "chip": "ym2612"
    },
    {
      "channel": 2,
      "note": 72,
      "start": 25.1815,
      "duration": 0.1245,
      "velocity": 106,
      "chip": "ym2612"
    },
    {
      "channel": 0,
      "note": 58,
      "start": 25.2392,
      "duration": 0.1499,
      "velocity": 92,
      "chip": "ym2612"
    },
    {
      "channel": 1,
      "note": 75,
      "start": 25.2395,
      "duration": 0.1499,
      "velocity": 112,
      "chip": "ym2612"
    },
    {
      "channel": 4,
      "note": 82,
      "start": 25.2402,
      "duration": 0.1496,
      "velocity": 94,
      "chip": "ym2612"
    },
    {
      "channel": 2,
      "note": 75,
      "start": 25.3063,
      "duration": 0.0876,
      "velocity": 106,
      "chip": "ym2612"
    },
    {
      "channel": 0,
      "note": 46,
      "start": 25.3893,
      "duration": 0.0618,
      "velocity": 92,
      "chip": "ym2612"
    },
    {
      "channel": 1,
      "note": 74,
      "start": 25.3895,
      "duration": 0.4801,
      "velocity": 112,
      "chip": "ym2612"
    },
    {
      "channel": 4,
      "note": 82,
      "start": 25.3901,
      "duration": 0.0616,
      "velocity": 94,
      "chip": "ym2612"
    },
    {
      "channel": 2,
      "note": 74,
      "start": 25.3941,
      "duration": 0.4804,
      "velocity": 106,
      "chip": "ym2612"
    },
    {
      "channel": 4,
      "note": 82,
      "start": 25.452,
      "duration": 0.133,
      "velocity": 94,
      "chip": "ym2612"
    },
    {
      "channel": 0,
      "note": 46,
      "start": 25.5848,
      "duration": 0.0617,
      "velocity": 92,
      "chip": "ym2612"
    },
    {
      "channel": 4,
      "note": 82,
      "start": 25.5852,
      "duration": 0.0617,
      "velocity": 94,
      "chip": "ym2612"
    },
    {
      "channel": 0,
      "note": 58,
      "start": 25.6466,
      "duration": 0.0096,
      "velocity": 92,
      "chip": "ym2612"
    },
    {
      "channel": 4,
      "note": 82,
      "start": 25.6472,
      "duration": 0.0714,
      "velocity": 94,
      "chip": "ym2612"
    },
    {
      "channel": 0,
      "note": 46,
      "start": 25.6565,
      "duration": 0.0615,
      "velocity": 92,
      "chip": "ym2612"
    },
    {
      "channel": 0,
      "note": 56,
      "start": 25.7183,
      "duration": 0.1332,
      "velocity": 92,
      "chip": "ym2612"
    },
    {
      "channel": 4,
      "note": 82,
      "start": 25.719,
      "duration": 0.133,
      "velocity": 94,
      "chip": "ym2612"
    },
    {
      "channel": 0,
      "note": 46,
      "start": 25.8517,
      "duration": 0.0081,
      "velocity": 92,
      "chip": "ym2612"
    },
    {
      "channel": 0,
      "note": 58,
      "start": 25.8601,
      "duration": 0.0093,
      "velocity": 92,
      "chip": "ym2612"
    },
    {
      "channel": 4,
      "note": 82,
      "start": 25.8605,
      "duration": 0.0098,
      "velocity": 94,
      "chip": "ym2612"
    },
    {
      "channel": 0,
      "note": 46,
      "start": 25.8696,
      "duration": 0.0092,
      "velocity": 92,
      "chip": "ym2612"
    },
    {
      "channel": 1,
      "note": 70,
      "start": 25.8698,
      "duration": 0.0178,
      "velocity": 112,
      "chip": "ym2612"
    },
    {
      "channel": 3,
      "note": 77,
      "start": 25.8702,
      "duration": 0.0177,
      "velocity": 113,
      "chip": "ym2612"
    },
    {
      "channel": 4,
      "note": 82,
      "start": 25.8706,
      "duration": 0.0088,
      "velocity": 94,
      "chip": "ym2612"
    },
    {
      "channel": 2,
      "note": 70,
      "start": 25.8748,
      "duration": 0.0186,
      "velocity": 106,
      "chip": "ym2612"
    },
    {
      "channel": 0,
      "note": 56,
      "start": 25.879,
      "duration": 0.0083,
      "velocity": 92,
      "chip": "ym2612"
    },
    {
      "channel": 4,
      "note": 82,
      "start": 25.8796,
      "duration": 0.0087,
      "velocity": 94,
      "chip": "ym2612"
    },
    {
      "channel": 0,
      "note": 46,
      "start": 25.8876,
      "duration": 0.0362,
      "velocity": 92,
      "chip": "ym2612"
    },
    {
      "channel": 1,
      "note": 77,
      "start": 25.8878,
      "duration": 0.0721,
      "velocity": 112,
      "chip": "ym2612"
    },
    {
      "channel": 3,
      "note": 74,
      "start": 25.8882,
      "duration": 0.072,
      "velocity": 113,
      "chip": "ym2612"
    },
    {
      "channel": 4,
      "note": 82,
      "start": 25.8885,
      "duration": 0.0359,
      "velocity": 94,
      "chip": "ym2612"
    },
    {
      "channel": 2,
      "note": 77,
      "start": 25.8937,
      "duration": 0.0711,
      "velocity": 106,
      "chip": "ym2612"
    },
    {
      "channel": 0,
      "note": 58,
      "start": 25.924,
      "duration": 0.0357,
      "velocity": 92,
      "chip": "ym2612"
    },
    {
      "channel": 4,
      "note": 82,
      "start": 25.9247,
      "duration": 0.0359,
      "velocity": 94,
      "chip": "ym2612"
    },
    {
      "channel": 0,
      "note": 42,
      "start": 25.9598,
      "duration": 0.0618,
      "velocity": 92,
      "chip": "ym2612"
    },
    {
      "channel": 1,
      "note": 80,
      "start": 25.9601,
      "duration": 0.4626,
      "velocity": 112,
      "chip": "ym2612"
    },
    {
      "channel": 3,
      "note": 82,
      "start": 25.9605,
      "duration": 0.9572,
      "velocity": 113,
      "chip": "ym2612"
    },
    {
      "channel": 4,
      "note": 82,
      "start": 25.9609,
      "duration": 0.0613,
      "velocity": 94,
      "chip": "ym2612"
    },
    {
      "channel": 2,
      "note": 80,
      "start": 25.965,
      "duration": 0.4618,
      "velocity": 106,
      "chip": "ym2612"
    },
    {
      "channel": 4,
      "note": 82,
      "start": 26.0225,
      "duration": 0.133,
      "velocity": 94,
      "chip": "ym2612"
    },
    {
      "channel": 0,
      "note": 42,
      "start": 26.1553,
      "duration": 0.0617,
      "velocity": 92,
      "chip": "ym2612"
    },
    {
      "channel": 4,
      "note": 82,
      "start": 26.1557,
      "duration": 0.0618,
      "velocity": 94,
      "chip": "ym2612"
    },
    {
      "channel": 0,
      "note": 54,
      "start": 26.2172,
      "duration": 0.0098,
      "velocity": 92,
      "chip": "ym2612"
    },
    {
      "channel": 4,
      "note": 82,
      "start": 26.2178,
      "duration": 0.0718,
      "velocity": 94,
      "chip": "ym2612"
    },
    {
      "channel": 0,
      "note": 42,
      "start": 26.2273,
      "duration": 0.0617,
      "velocity": 92,
      "chip": "ym2612"
    },
    {
      "channel": 0,
      "note": 53,
      "start": 26.2892,
      "duration": 0.1332,
      "velocity": 92,
      "chip": "ym2612"
    },
    {
      "channel": 4,
      "note": 82,
      "start": 26.2899,
      "duration": 0.133,
      "velocity": 94,
      "chip": "ym2612"
    },
    {
      "channel": 0,
      "note": 42,
      "start": 26.4226,
      "duration": 0.0617,
      "velocity": 92,
      "chip": "ym2612"
    },
    {
      "channel": 1,
      "note": 82,
      "start": 26.4228,
      "duration": 0.4946,
      "velocity": 112,
      "chip": "ym2612"
    },
    {
      "channel": 2,
      "note": 82,
      "start": 26.427,
      "duration": 0.4953,
      "velocity": 106,
      "chip": "ym2612"
    },
    {
      "channel": 0,
      "note": 54,
      "start": 26.4846,
      "duration": 0.1498,
      "velocity": 92,
      "chip": "ym2612"
    },
    {
      "channel": 4,
      "note": 82,
      "start": 26.4854,
      "duration": 0.1496,
      "velocity": 94,
      "chip": "ym2612"
    },
    {
      "channel": 0,
      "note": 42,
      "start": 26.6346,
      "duration": 0.0617,
      "velocity": 92,
      "chip": "ym2612"
    },
    {
      "channel": 4,
      "note": 82,
      "start": 26.6351,
      "duration": 0.0618,
      "velocity": 94,
      "chip": "ym2612"
    },
    {
      "channel": 0,
      "note": 53,
      "start": 26.6966,
      "duration": 0.0087,
      "velocity": 92,
      "chip": "ym2612"
    },
    {
      "channel": 4,
      "note": 82,
      "start": 26.6972,
      "duration": 0.0085,
      "velocity": 94,
      "chip": "ym2612"
    },
    {
      "channel": 4,
      "note": 82,
      "start": 26.7059,
      "duration": 0.0617,
      "velocity": 94,
      "chip": "ym2612"
    },
    {
      "channel": 0,
      "note": 54,
      "start": 26.7672,
      "duration": 0.1499,
      "velocity": 92,
      "chip": "ym2612"
    },
    {
      "channel": 4,
      "note": 82,
      "start": 26.7679,
      "duration": 0.1502,
      "velocity": 94,
      "chip": "ym2612"
    },
    {
      "channel": 0,
      "note": 44,
      "start": 26.9173,
      "duration": 0.0621,
      "velocity": 92,
      "chip": "ym2612"
    },
    {
      "channel": 1,
      "note": 85,
      "start": 26.9176,
      "duration": 0.6733,
      "velocity": 112,
      "chip": "ym2612"
    },
    {
      "channel": 3,
      "note": 80,
      "start": 26.918,
      "duration": 0.6732,
      "velocity": 113,
      "chip": "ym2612"
    },
    {
      "channel": 4,
      "note": 82,
      "start": 26.9184,
      "duration": 0.0616,
      "velocity": 94,
      "chip": "ym2612"
    },
    {
      "channel": 2,
      "note": 85,
      "start": 26.9226,
      "duration": 0.6729,
      "velocity": 106,
      "chip": "ym2612"
    },
    {
      "channel": 4,
      "note": 82,
      "start": 26.9803,
      "duration": 0.133,
      "velocity": 94,
      "chip": "ym2612"
    },
    {
      "channel": 0,
      "note": 44,
      "start": 27.1131,
      "duration": 0.0615,
      "velocity": 92,
      "chip": "ym2612"
    },
    {
      "channel": 4,
      "note": 82,
      "start": 27.1135,
      "duration": 0.0616,
      "velocity": 94,
      "chip": "ym2612"
    },
    {
      "channel": 0,
      "note": 56,
      "start": 27.1748,
      "duration": 0.0092,
      "velocity": 92,
      "chip": "ym2612"
    },
    {
      "channel": 4,
      "note": 82,
      "start": 27.1754,
      "duration": 0.071,
      "velocity": 94,
      "chip": "ym2612"
    },
    {
      "channel": 0,
      "note": 44,
      "start": 27.1842,
      "duration": 0.0616,
      "velocity": 92,
      "chip": "ym2612"
    },
    {
      "channel": 0,
      "note": 54,
      "start": 27.246,
      "duration": 0.1332,
      "velocity": 92,
      "chip": "ym2612"
    },
    {
      "channel": 4,
      "note": 82,
      "start": 27.2468,
      "duration": 0.133,
      "velocity": 94,
      "chip": "ym2612"
    },
    {
      "channel": 0,
      "note": 44,
      "start": 27.3795,
      "duration": 0.0776,
      "velocity": 92,
      "chip": "ym2612"
    },
    {
      "channel": 0,
      "note": 56,
      "start": 27.4574,
      "duration": 0.1332,
      "velocity": 92,
      "chip": "ym2612"
    },
    {
      "channel": 4,
      "note": 82,
      "start": 27.4581,
      "duration": 0.1334,
      "velocity": 94,
      "chip": "ym2612"
    },
    {
      "channel": 0,
      "note": 44,
      "start": 27.5908,
      "duration": 0.0619,
      "velocity": 92,
      "chip": "ym2612"
    },
    {
      "channel": 1,
      "note": 84,
      "start": 27.591,
      "duration": 0.0706,
      "velocity": 112,
      "chip": "ym2612"
    },
    {
      "channel": 3,
      "note": 84,
      "start": 27.5915,
      "duration": 0.0706,
      "velocity": 113,
      "chip": "ym2612"
    },
    {
      "channel": 4,
      "note": 82,
      "start": 27.5918,
      "duration": 0.0615,
      "velocity": 94,
      "chip": "ym2612"
    },
    {
      "channel": 2,
      "note": 84,
      "start": 27.5957,
      "duration": 0.0704,
      "velocity": 106,
      "chip": "ym2612"
    },
    {
      "channel": 0,
      "note": 54,
      "start": 27.6529,
      "duration": 0.0086,
      "velocity": 92,
      "chip": "ym2612"
    },
    {
      "channel": 4,
      "note": 82,
      "start": 27.6534,
      "duration": 0.0089,
      "velocity": 94,
      "chip": "ym2612"
    },
    {
      "channel": 1,
      "note": 80,
      "start": 27.6618,
      "duration": 0.0198,
      "velocity": 107,
      "chip": "ym2612"
    },
    {
      "channel": 3,
      "note": 87,
      "start": 27.6622,
      "duration": 0.0205,
      "velocity": 105,
      "chip": "ym2612"
    },
    {
      "channel": 4,
      "note": 82,
      "start": 27.6624,
      "duration": 0.0098,
      "velocity": 94,
      "chip": "ym2612"
    },
    {
      "channel": 2,
      "note": 80,
      "start": 27.6664,
      "duration": 0.0214,
      "velocity": 113,
      "chip": "ym2612"
    },
    {
      "channel": 0,
      "note": 56,
      "start": 27.6718,
      "duration": 0.0087,
      "velocity": 92,
      "chip": "ym2612"
    },
    {
      "channel": 4,
      "note": 82,
      "start": 27.6724,
      "duration": 0.0107,
      "velocity": 94,
      "chip": "ym2612"
    },
    {
      "channel": 0,
      "note": 38,
      "start": 27.6807,
      "duration": 0.0622,
      "velocity": 92,
      "chip": "ym2612"
    },
    {
      "channel": 1,
      "note": 65,
      "start": 27.6817,
      "duration": 0.7511,
      "velocity": 107,
      "chip": "ym2612"
    },
    {
      "channel": 3,
      "note": 82,
      "start": 27.683,
      "duration": 0.285,
      "velocity": 105,
      "chip": "ym2612"
    },
    {
      "channel": 4,
      "note": 82,
      "start": 27.6834,
      "duration": 0.06,
      "velocity": 94,
      "chip": "ym2612"
    },
    {
      "channel": 2,
      "note": 77,
      "start": 27.6881,
      "duration": 0.7495,
      "velocity": 113,
      "chip": "ym2612"
    },
    {
      "channel": 4,
      "note": 82,
      "start": 27.7437,
      "duration": 0.133,
      "velocity": 94,
      "chip": "ym2612"
    },
    {
      "channel": 0,
      "note": 38,
      "start": 27.8765,
      "duration": 0.0781,
      "velocity": 92,
      "chip": "ym2612"
    },
    {
      "channel": 4,
      "note": 82,
      "start": 27.8769,
      "duration": 0.0783,
      "velocity": 94,
      "chip": "ym2612"
    },
    {
      "channel": 0,
      "note": 50,
      "start": 27.9549,
      "duration": 0.0087,
      "velocity": 92,
      "chip": "ym2612"
    },
    {
      "channel": 4,
      "note": 82,
      "start": 27.9555,
      "duration": 0.0705,
      "velocity": 94,
      "chip": "ym2612"
    },
    {
      "channel": 0,
      "note": 38,
      "start": 27.9638,
      "duration": 0.0616,
      "velocity": 92,
      "chip": "ym2612"
    },
    {
      "channel": 3,
      "note": 77,
      "start": 27.9682,
      "duration": 0.465,
      "velocity": 105,
      "chip": "ym2612"
    },
    {
      "channel": 0,
      "note": 48,
      "start": 28.0256,
      "duration": 0.1332,
      "velocity": 92,
      "chip": "ym2612"
    },
    {
      "channel": 4,
      "note": 82,
      "start": 28.0264,
      "duration": 0.133,
      "velocity": 94,
      "chip": "ym2612"
    },
    {
      "channel": 0,
      "note": 38,
      "start": 28.159,
      "duration": 0.0781,
      "velocity": 92,
      "chip": "ym2612"
    },
    {
      "channel": 0,
      "note": 50,
      "start": 28.2374,
      "duration": 0.1332,
      "velocity": 92,
      "chip": "ym2612"
    },
    {
      "channel": 4,
      "note": 82,
      "start": 28.2381,
      "duration": 0.133,
      "velocity": 94,
      "chip": "ym2612"
    },
    {
      "channel": 0,
      "note": 38,
      "start": 28.3708,
      "duration": 0.0617,
      "velocity": 92,
      "chip": "ym2612"
    },
    {
      "channel": 4,
      "note": 82,
      "start": 28.3713,
      "duration": 0.0621,
      "velocity": 94,
      "chip": "ym2612"
    },
    {
      "channel": 0,
      "note": 48,
      "start": 28.4327,
      "duration": 0.009,
      "velocity": 92,
      "chip": "ym2612"
    },
    {
      "channel": 1,
      "note": 58,
      "start": 28.433,
      "duration": 0.2215,
      "velocity": 107,
      "chip": "ym2612"
    },
    {
      "channel": 3,
      "note": 82,
      "start": 28.4334,
      "duration": 0.2214,
      "velocity": 105,
      "chip": "ym2612"
    },
    {
      "channel": 4,
      "note": 82,
      "start": 28.4337,
      "duration": 0.0087,
      "velocity": 94,
      "chip": "ym2612"
    },
    {
      "channel": 2,
      "note": 70,
      "start": 28.4377,
      "duration": 0.2214,
      "velocity": 113,
      "chip": "ym2612"
    },
    {
      "channel": 0,
      "note": 38,
      "start": 28.442,
      "duration": 0.0787,
      "velocity": 92,
      "chip": "ym2612"
    },
    {
      "channel": 4,
      "note": 82,
      "start": 28.4426,
      "duration": 0.0787,
      "velocity": 94,
      "chip": "ym2612"
    },
    {
      "channel": 0,
      "note": 50,
      "start": 28.521,
      "duration": 0.1332,
      "velocity": 92,
      "chip": "ym2612"
    },
    {
      "channel": 4,
      "note": 82,
      "start": 28.5217,
      "duration": 0.1334,
      "velocity": 94,
      "chip": "ym2612"
    },
    {
      "channel": 0,
      "note": 39,
      "start": 28.6544,
      "duration": 0.2068,
      "velocity": 92,
      "chip": "ym2612"
    },
    {
      "channel": 1,
      "note": 61,
      "start": 28.6546,
      "duration": 0.5738,
      "velocity": 107,
      "chip": "ym2612"
    },
    {
      "channel": 3,
      "note": 90,
      "start": 28.655,
      "duration": 0.2858,
      "velocity": 105,
      "chip": "ym2612"
    },
    {
      "channel": 4,
      "note": 82,
      "start": 28.6553,
      "duration": 0.0614,
      "velocity": 94,
      "chip": "ym2612"
    },
    {
      "channel": 2,
      "note": 73,
      "start": 28.6593,
      "duration": 0.5736,
      "velocity": 113,
      "chip": "ym2612"
    },
    {
      "channel": 4,
      "note": 82,
      "start": 28.7171,
      "duration": 0.1329,
      "velocity": 94,
      "chip": "ym2612"
    },
    {
      "channel": 4,
      "note": 82,
      "start": 28.8502,
      "duration": 0.0781,
      "velocity": 94,
      "chip": "ym2612"
    },
    {
      "channel": 0,
      "note": 51,
      "start": 28.9281,
      "duration": 0.0083,
      "velocity": 92,
      "chip": "ym2612"
    },
    {
      "channel": 4,
      "note": 82,
      "start": 28.9285,
      "duration": 0.0703,
      "velocity": 94,
      "chip": "ym2612"
    },
    {
      "channel": 0,
      "note": 39,
      "start": 28.9367,
      "duration": 0.0615,
      "velocity": 92,
      "chip": "ym2612"
    },
    {
      "channel": 3,
      "note": 82,
      "start": 28.941,
      "duration": 0.2876,
      "velocity": 105,
      "chip": "ym2612"
    },
    {
      "channel": 0,
      "note": 51,
      "start": 28.9984,
      "duration": 0.1332,
      "velocity": 92,
      "chip": "ym2612"
    },
    {
      "channel": 4,
      "note": 82,
      "start": 28.9992,
      "duration": 0.133,
      "velocity": 94,
      "chip": "ym2612"
    },
    {
      "channel": 0,
      "note": 39,
      "start": 29.1319,
      "duration": 0.0781,
      "velocity": 92,
      "chip": "ym2612"
    },
    {
      "channel": 0,
      "note": 50,
      "start": 29.2102,
      "duration": 0.0085,
      "velocity": 92,
      "chip": "ym2612"
    },
    {
      "channel": 4,
      "note": 82,
      "start": 29.2108,
      "duration": 0.0085,
      "velocity": 94,
      "chip": "ym2612"
    },
    {
      "channel": 0,
      "note": 39,
      "start": 29.219,
      "duration": 0.0091,
      "velocity": 92,
      "chip": "ym2612"
    },
    {
      "channel": 4,
      "note": 82,
      "start": 29.2195,
      "duration": 0.0093,
      "velocity": 94,
      "chip": "ym2612"
    },
    {
      "channel": 0,
      "note": 51,
      "start": 29.2284,
      "duration": 0.0086,
      "velocity": 92,
      "chip": "ym2612"
    },
    {
      "channel": 3,
      "note": 75,
      "start": 29.2288,
      "duration": 0.0278,
      "velocity": 105,
      "chip": "ym2612"
    },
    {
      "channel": 4,
      "note": 82,
      "start": 29.2291,
      "duration": 0.0085,
      "velocity": 94,
      "chip": "ym2612"
    },
    {
      "channel": 0,
      "note": 39,
      "start": 29.2372,
      "duration": 0.0093,
      "velocity": 92,
      "chip": "ym2612"
    },
    {
      "channel": 1,
      "note": 61,
      "start": 29.2375,
      "duration": 0.0093,
      "velocity": 107,
      "chip": "ym2612"
    },
    {
      "channel": 4,
      "note": 82,
      "start": 29.2378,
      "duration": 0.0095,
      "velocity": 94,
      "chip": "ym2612"
    },
    {
      "channel": 2,
      "note": 73,
      "start": 29.2423,
      "duration": 0.0093,
      "velocity": 113,
      "chip": "ym2612"
    },
    {
      "channel": 0,
      "note": 51,
      "start": 29.2468,
      "duration": 0.0091,
      "velocity": 92,
      "chip": "ym2612"
    },
    {
      "channel": 1,
      "note": 63,
      "start": 29.2471,
      "duration": 0.0091,
      "velocity": 107,
      "chip": "ym2612"
    },
    {
      "channel": 4,
      "note": 82,
      "start": 29.2475,
      "duration": 0.0095,
      "velocity": 94,
      "chip": "ym2612"
    },
    {
      "channel": 2,
      "note": 75,
      "start": 29.2519,
      "duration": 0.0093,
      "velocity": 113,
      "chip": "ym2612"
    },
    {
      "channel": 0,
      "note": 38,
      "start": 29.2561,
      "duration": 0.062,
      "velocity": 92,
      "chip": "ym2612"
    },
    {
      "channel": 1,
      "note": 65,
      "start": 29.2563,
      "duration": 0.7517,
      "velocity": 107,
      "chip": "ym2612"
    },
    {
      "channel": 3,
      "note": 82,
      "start": 29.2569,
      "duration": 0.2865,
      "velocity": 105,
      "chip": "ym2612"
    },
    {
      "channel": 4,
      "note": 82,
      "start": 29.2571,
      "duration": 0.0615,
      "velocity": 94,
      "chip": "ym2612"
    },
    {
      "channel": 2,
      "note": 77,
      "start": 29.2613,
      "duration": 0.7515,
      "velocity": 113,
      "chip": "ym2612"
    },
    {
      "channel": 4,
      "note": 82,
      "start": 29.319,
      "duration": 0.1497,
      "velocity": 94,
      "chip": "ym2612"
    },
    {
      "channel": 0,
      "note": 38,
      "start": 29.4684,
      "duration": 0.0617,
      "velocity": 92,
      "chip": "ym2612"
    },
    {
      "channel": 4,
      "note": 82,
      "start": 29.4688,
      "duration": 0.0617,
      "velocity": 94,
      "chip": "ym2612"
    },
    {
      "channel": 0,
      "note": 50,
      "start": 29.5303,
      "duration": 0.0087,
      "velocity": 92,
      "chip": "ym2612"
    },
    {
      "channel": 4,
      "note": 82,
      "start": 29.5308,
      "duration": 0.0706,
      "velocity": 94,
      "chip": "ym2612"
    },
    {
      "channel": 0,
      "note": 38,
      "start": 29.5393,
      "duration": 0.0615,
      "velocity": 92,
      "chip": "ym2612"
    },
    {
      "channel": 3,
      "note": 77,
      "start": 29.5436,
      "duration": 0.4648,
      "velocity": 105,
      "chip": "ym2612"
    },
    {
      "channel": 0,
      "note": 48,
      "start": 29.601,
      "duration": 0.1499,
      "velocity": 92,
      "chip": "ym2612"
    },
    {
      "channel": 4,
      "note": 82,
      "start": 29.6017,
      "duration": 0.1497,
      "velocity": 94,
      "chip": "ym2612"
    },
    {
      "channel": 0,
      "note": 38,
      "start": 29.7511,
      "duration": 0.0613,
      "velocity": 92,
      "chip": "ym2612"
    },
    {
      "channel": 0,
      "note": 50,
      "start": 29.8126,
      "duration": 0.1332,
      "velocity": 92,
      "chip": "ym2612"
    },
    {
      "channel": 4,
      "note": 82,
      "start": 29.8134,
      "duration": 0.133,
      "velocity": 94,
      "chip": "ym2612"
    },
    {
      "channel": 0,
      "note": 38,
      "start": 29.946,
      "duration": 0.0617,
      "velocity": 92,
      "chip": "ym2612"
    },
    {
      "channel": 4,
      "note": 82,
      "start": 29.9466,
      "duration": 0.062,
      "velocity": 94,
      "chip": "ym2612"
    },
    {
      "channel": 0,
      "note": 48,
      "start": 30.0079,
      "duration": 0.0099,
      "velocity": 92,
      "chip": "ym2612"
    },
    {
      "channel": 1,
      "note": 70,
      "start": 30.0082,
      "duration": 0.2056,
      "velocity": 107,
      "chip": "ym2612"
    },
    {
      "channel": 3,
      "note": 82,
      "start": 30.0086,
      "duration": 0.2056,
      "velocity": 105,
      "chip": "ym2612"
    },
    {
      "channel": 4,
      "note": 82,
      "start": 30.0088,
      "duration": 0.0096,
      "velocity": 94,
      "chip": "ym2612"
    },
    {
      "channel": 2,
      "note": 82,
      "start": 30.0129,
      "duration": 0.2056,
      "velocity": 113,
      "chip": "ym2612"
    },
    {
      "channel": 0,
      "note": 38,
      "start": 30.0181,
      "duration": 0.0619,
      "velocity": 92,
      "chip": "ym2612"
    },
    {
      "channel": 4,
      "note": 82,
      "start": 30.0187,
      "duration": 0.062,
      "velocity": 94,
      "chip": "ym2612"
    },
    {
      "channel": 0,
      "note": 50,
      "start": 30.0802,
      "duration": 0.1332,
      "velocity": 92,
      "chip": "ym2612"
    },
    {
      "channel": 4,
      "note": 82,
      "start": 30.081,
      "duration": 0.1334,
      "velocity": 94,
      "chip": "ym2612"
    },
    {
      "channel": 0,
      "note": 39,
      "start": 30.2137,
      "duration": 0.0619,
      "velocity": 92,
      "chip": "ym2612"
    },
    {
      "channel": 1,
      "note": 68,
      "start": 30.2139,
      "duration": 0.4946,
      "velocity": 107,
      "chip": "ym2612"
    },
    {
      "channel": 3,
      "note": 90,
      "start": 30.2143,
      "duration": 0.2865,
      "velocity": 105,
      "chip": "ym2612"
    },
    {
      "channel": 4,
      "note": 82,
      "start": 30.2146,
      "duration": 0.0615,
      "velocity": 94,
      "chip": "ym2612"
    },
    {
      "channel": 2,
      "note": 80,
      "start": 30.2188,
      "duration": 0.4938,
      "velocity": 113,
      "chip": "ym2612"
    },
    {
      "channel": 4,
      "note": 82,
      "start": 30.2764,
      "duration": 0.1497,
      "velocity": 94,
      "chip": "ym2612"
    },
    {
      "channel": 0,
      "note": 39,
      "start": 30.4259,
      "duration": 0.0617,
      "velocity": 92,
      "chip": "ym2612"
    },
    {
      "channel": 4,
      "note": 82,
      "start": 30.4263,
      "duration": 0.0617,
      "velocity": 94,
      "chip": "ym2612"
    },
    {
      "channel": 0,
      "note": 51,
      "start": 30.4878,
      "duration": 0.0086,
      "velocity": 92,
      "chip": "ym2612"
    },
    {
      "channel": 4,
      "note": 82,
      "start": 30.4882,
      "duration": 0.0705,
      "velocity": 94,
      "chip": "ym2612"
    },
    {
      "channel": 0,
      "note": 39,
      "start": 30.4966,
      "duration": 0.0615,
      "velocity": 92,
      "chip": "ym2612"
    },
    {
      "channel": 3,
      "note": 82,
      "start": 30.501,
      "duration": 0.3501,
      "velocity": 105,
      "chip": "ym2612"
    },
    {
      "channel": 0,
      "note": 50,
      "start": 30.5583,
      "duration": 0.1499,
      "velocity": 92,
      "chip": "ym2612"
    },
    {
      "channel": 4,
      "note": 82,
      "start": 30.5591,
      "duration": 0.1497,
      "velocity": 94,
      "chip": "ym2612"
    },
    {
      "channel": 0,
      "note": 39,
      "start": 30.7085,
      "duration": 0.0617,
      "velocity": 92,
      "chip": "ym2612"
    },
    {
      "channel": 1,
      "note": 66,
      "start": 30.7087,
      "duration": 0.1329,
      "velocity": 107,
      "chip": "ym2612"
    },
    {
      "channel": 2,
      "note": 78,
      "start": 30.7129,
      "duration": 0.1334,
      "velocity": 113,
      "chip": "ym2612"
    },
    {
      "channel": 0,
      "note": 51,
      "start": 30.7705,
      "duration": 0.0707,
      "velocity": 92,
      "chip": "ym2612"
    },
    {
      "channel": 4,
      "note": 82,
      "start": 30.7712,
      "duration": 0.0706,
      "velocity": 94,
      "chip": "ym2612"
    },
    {
      "channel": 0,
      "note": 39,
      "start": 30.8415,
      "duration": 0.009,
      "velocity": 92,
      "chip": "ym2612"
    },
    {
      "channel": 1,
      "note": 65,
      "start": 30.8417,
      "duration": 0.0187,
      "velocity": 107,
      "chip": "ym2612"
    },
    {
      "channel": 4,
      "note": 82,
      "start": 30.8421,
      "duration": 0.0093,
      "velocity": 94,
      "chip": "ym2612"
    },
    {
      "channel": 2,
      "note": 77,
      "start": 30.8464,
      "duration": 0.0182,
      "velocity": 113,
      "chip": "ym2612"
    },
    {
      "channel": 0,
      "note": 50,
      "start": 30.8507,
      "duration": 0.0095,
      "velocity": 92,
      "chip": "ym2612"
    },
    {
      "channel": 3,
      "note": 75,
      "start": 30.8514,
      "duration": 0.0282,
      "velocity": 113,
      "chip": "ym2612"
    },
    {
      "channel": 4,
      "note": 82,
      "start": 30.8516,
      "duration": 0.009,
      "velocity": 94,
      "chip": "ym2612"
    },
    {
      "channel": 1,
      "note": 63,
      "start": 30.8605,
      "duration": 0.0181,
      "velocity": 107,
      "chip": "ym2612"
    },
    {
      "channel": 4,
      "note": 82,
      "start": 30.861,
      "duration": 0.0091,
      "velocity": 94,
      "chip": "ym2612"
    },
    {
      "channel": 2,
      "note": 75,
      "start": 30.8649,
      "duration": 0.0192,
      "velocity": 113,
      "chip": "ym2612"
    },
    {
      "channel": 0,
      "note": 51,
      "start": 30.8696,
      "duration": 0.0087,
      "velocity": 92,
      "chip": "ym2612"
    },
    {
      "channel": 4,
      "note": 82,
      "start": 30.8703,
      "duration": 0.0096,
      "velocity": 94,
      "chip": "ym2612"
    },
    {
      "channel": 0,
      "note": 42,
      "start": 30.8785,
      "duration": 0.062,
      "velocity": 92,
      "chip": "ym2612"
    },
    {
      "channel": 1,
      "note": 61,
      "start": 30.8788,
      "duration": 0.4948,
      "velocity": 107,
      "chip": "ym2612"
    },
    {
      "channel": 3,
      "note": 66,
      "start": 30.8798,
      "duration": 0.4939,
      "velocity": 113,
      "chip": "ym2612"
    },
    {
      "channel": 4,
      "note": 82,
      "start": 30.8802,
      "duration": 0.061,
      "velocity": 94,
      "chip": "ym2612"
    },
    {
      "channel": 2,
      "note": 73,
      "start": 30.8844,
      "duration": 0.493,
      "velocity": 113,
      "chip": "ym2612"
    },
    {
      "channel": 4,
      "note": 82,
      "start": 30.9415,
      "duration": 0.1497,
      "velocity": 94,
      "chip": "ym2612"
    },
    {
      "channel": 0,
      "note": 42,
      "start": 31.0909,
      "duration": 0.0616,
      "velocity": 92,
      "chip": "ym2612"
    },
    {
      "channel": 4,
      "note": 82,
      "start": 31.0913,
      "duration": 0.0617,
      "velocity": 94,
      "chip": "ym2612"
    },
    {
      "channel": 0,
      "note": 54,
      "start": 31.1528,
      "duration": 0.0086,
      "velocity": 92,
      "chip": "ym2612"
    },
    {
      "channel": 4,
      "note": 82,
      "start": 31.1532,
      "duration": 0.0705,
      "velocity": 94,
      "chip": "ym2612"
    },
    {
      "channel": 0,
      "note": 42,
      "start": 31.1616,
      "duration": 0.0615,
      "velocity": 92,
      "chip": "ym2612"
    },
    {
      "channel": 0,
      "note": 53,
      "start": 31.2234,
      "duration": 0.1499,
      "velocity": 92,
      "chip": "ym2612"
    },
    {
      "channel": 4,
      "note": 82,
      "start": 31.2241,
      "duration": 0.15,
      "velocity": 94,
      "chip": "ym2612"
    },
    {
      "channel": 0,
      "note": 42,
      "start": 31.3735,
      "duration": 0.0614,
      "velocity": 92,
      "chip": "ym2612"
    },
    {
      "channel": 1,
      "note": 63,
      "start": 31.3737,
      "duration": 0.4775,
      "velocity": 107,
      "chip": "ym2612"
    },
    {
      "channel": 3,
      "note": 68,
      "start": 31.3741,
      "duration": 0.4774,
      "velocity": 113,
      "chip": "ym2612"
    },
    {
      "channel": 2,
      "note": 75,
      "start": 31.3777,
      "duration": 0.478,
      "velocity": 113,
      "chip": "ym2612"
    },
    {
      "channel": 0,
      "note": 54,
      "start": 31.4351,
      "duration": 0.1332,
      "velocity": 92,
      "chip": "ym2612"
    },
    {
      "channel": 4,
      "note": 82,
      "start": 31.4359,
      "duration": 0.1329,
      "velocity": 94,
      "chip": "ym2612"
    },
    {
      "channel": 0,
      "note": 42,
      "start": 31.5685,
      "duration": 0.0784,
      "velocity": 92,
      "chip": "ym2612"
    },
    {
      "channel": 4,
      "note": 82,
      "start": 31.5689,
      "duration": 0.0784,
      "velocity": 94,
      "chip": "ym2612"
    },
    {
      "channel": 0,
      "note": 53,
      "start": 31.6471,
      "duration": 0.0086,
      "velocity": 92,
      "chip": "ym2612"
    },
    {
      "channel": 4,
      "note": 82,
      "start": 31.6475,
      "duration": 0.0086,
      "velocity": 94,
      "chip": "ym2612"
    },
    {
      "channel": 0,
      "note": 42,
      "start": 31.6559,
      "duration": 0.0616,
      "velocity": 92,
      "chip": "ym2612"
    },
    {
      "channel": 4,
      "note": 82,
      "start": 31.6562,
      "duration": 0.0618,
      "velocity": 94,
      "chip": "ym2612"
    },
    {
      "channel": 0,
      "note": 54,
      "start": 31.7177,
      "duration": 0.1332,
      "velocity": 92,
      "chip": "ym2612"
    },
    {
      "channel": 4,
      "note": 82,
      "start": 31.7184,
      "duration": 0.1334,
      "velocity": 94,
      "chip": "ym2612"
    },
    {
      "channel": 0,
      "note": 44,
      "start": 31.8511,
      "duration": 0.0783,
      "velocity": 92,
      "chip": "ym2612"
    },
    {
      "channel": 1,
      "note": 60,
      "start": 31.8513,
      "duration": 0.4946,
      "velocity": 107,
      "chip": "ym2612"
    },
    {
      "channel": 3,
      "note": 75,
      "start": 31.8517,
      "duration": 0.4946,
      "velocity": 113,
      "chip": "ym2612"
    },
    {
      "channel": 4,
      "note": 82,
      "start": 31.852,
      "duration": 0.078,
      "velocity": 94,
      "chip": "ym2612"
    },
    {
      "channel": 2,
      "note": 72,
      "start": 31.8559,
      "duration": 0.4941,
      "velocity": 113,
      "chip": "ym2612"
    },
    {
      "channel": 4,
      "note": 82,
      "start": 31.9303,
      "duration": 0.133,
      "velocity": 94,
      "chip": "ym2612"
    },
    {
      "channel": 0,
      "note": 44,
      "start": 32.0631,
      "duration": 0.0617,
      "velocity": 92,
      "chip": "ym2612"
    },
    {
      "channel": 4,
      "note": 82,
      "start": 32.0635,
      "duration": 0.0618,
      "velocity": 94,
      "chip": "ym2612"
    },
    {
      "channel": 0,
      "note": 56,
      "start": 32.125,
      "duration": 0.0087,
      "velocity": 92,
      "chip": "ym2612"
    },
    {
      "channel": 4,
      "note": 82,
      "start": 32.1256,
      "duration": 0.0872,
      "velocity": 94,
      "chip": "ym2612"
    },
    {
      "channel": 0,
      "note": 44,
      "start": 32.134,
      "duration": 0.0782,
      "velocity": 92,
      "chip": "ym2612"
    },
    {
      "channel": 0,
      "note": 54,
      "start": 32.2124,
      "duration": 0.1332,
      "velocity": 92,
      "chip": "ym2612"
    },
    {
      "channel": 4,
      "note": 82,
      "start": 32.2132,
      "duration": 0.1334,
      "velocity": 94,
      "chip": "ym2612"
    },
    {
      "channel": 0,
      "note": 44,
      "start": 32.3459,
      "duration": 0.0087,
      "velocity": 92,
      "chip": "ym2612"
    },
    {
      "channel": 1,
      "note": 61,
      "start": 32.3461,
      "duration": 0.0176,
      "velocity": 107,
      "chip": "ym2612"
    },
    {
      "channel": 3,
      "note": 80,
      "start": 32.3465,
      "duration": 0.0175,
      "velocity": 113,
      "chip": "ym2612"
    },
    {
      "channel": 2,
      "note": 73,
      "start": 32.3502,
      "duration": 0.0184,
      "velocity": 113,
      "chip": "ym2612"
    },
    {
      "channel": 0,
      "note": 56,
      "start": 32.3548,
      "duration": 0.0085,
      "velocity": 92,
      "chip": "ym2612"
    },
    {
      "channel": 4,
      "note": 82,
      "start": 32.3554,
      "duration": 0.0089,
      "velocity": 94,
      "chip": "ym2612"
    },
    {
      "channel": 0,
      "note": 44,
      "start": 32.3636,
      "duration": 0.0101,
      "velocity": 92,
      "chip": "ym2612"
    },
    {
      "channel": 1,
      "note": 60,
      "start": 32.3638,
      "duration": 0.0187,
      "velocity": 107,
      "chip": "ym2612"
    },
    {
      "channel": 3,
      "note": 75,
      "start": 32.3642,
      "duration": 0.0186,
      "velocity": 113,
      "chip": "ym2612"
    },
    {
      "channel": 4,
      "note": 82,
      "start": 32.3645,
      "duration": 0.0098,
      "velocity": 94,
      "chip": "ym2612"
    },
    {
      "channel": 2,
      "note": 72,
      "start": 32.3689,
      "duration": 0.0195,
      "velocity": 113,
      "chip": "ym2612"
    },
    {
      "channel": 0,
      "note": 54,
      "start": 32.3739,
      "duration": 0.0082,
      "velocity": 92,
      "chip": "ym2612"
    },
    {
      "channel": 4,
      "note": 82,
      "start": 32.3745,
      "duration": 0.0085,
      "velocity": 94,
      "chip": "ym2612"
    },
    {
      "channel": 0,
      "note": 44,
      "start": 32.3824,
      "duration": 0.0361,
      "velocity": 92,
      "chip": "ym2612"
    },
    {
      "channel": 1,
      "note": 56,
      "start": 32.3826,
      "duration": 0.0559,
      "velocity": 112,
      "chip": "ym2612"
    },
    {
      "channel": 3,
      "note": 72,
      "start": 32.383,
      "duration": 0.0566,
      "velocity": 125,
      "chip": "ym2612"
    },
    {
      "channel": 4,
      "note": 82,
      "start": 32.3834,
      "duration": 0.0359,
      "velocity": 94,
      "chip": "ym2612"
    },
    {
      "channel": 2,
      "note": 68,
      "start": 32.3887,
      "duration": 0.0622,
      "velocity": 100,
      "chip": "ym2612"
    },
    {
      "channel": 0,
      "note": 56,
      "start": 32.4188,
      "duration": 0.0189,
      "velocity": 92,
      "chip": "ym2612"
    },
    {
      "channel": 4,
      "note": 82,
      "start": 32.4195,
      "duration": 0.0205,
      "velocity": 94,
      "chip": "ym2612"
    },
    {
      "channel": 0,
      "note": 46,
      "start": 32.4378,
      "duration": 0.2167,
      "velocity": 92,
      "chip": "ym2612"
    },
    {
      "channel": 1,
      "note": 70,
      "start": 32.4387,
      "duration": 1.7547,
      "velocity": 112,
      "chip": "ym2612"
    },
    {
      "channel": 3,
      "note": 82,
      "start": 32.4399,
      "duration": 0.0772,
      "velocity": 125,
      "chip": "ym2612"
    },
    {
      "channel": 4,
      "note": 82,
      "start": 32.4403,
      "duration": 0.0772,
      "velocity": 94,
      "chip": "ym2612"
    },
    {
      "channel": 2,
      "note": 94,
      "start": 32.5171,
      "duration": 0.133,
      "velocity": 100,
      "chip": "ym2612"
    },
    {
      "channel": 3,
      "note": 77,
      "start": 32.5175,
      "duration": 0.1329,
      "velocity": 125,
      "chip": "ym2612"
    },
    {
      "channel": 4,
      "note": 82,
      "start": 32.5178,
      "duration": 0.1328,
      "velocity": 94,
      "chip": "ym2612"
    },
    {
      "channel": 2,
      "note": 89,
      "start": 32.6503,
      "duration": 0.0618,
      "velocity": 100,
      "chip": "ym2612"
    },
    {
      "channel": 3,
      "note": 82,
      "start": 32.6506,
      "duration": 0.0618,
      "velocity": 125,
      "chip": "ym2612"
    },
    {
      "channel": 4,
      "note": 82,
      "start": 32.6508,
      "duration": 0.0619,
      "velocity": 94,
      "chip": "ym2612"
    },
    {
      "channel": 2,
      "note": 94,
      "start": 32.7123,
      "duration": 0.009,
      "velocity": 100,
      "chip": "ym2612"
    },
    {
      "channel": 3,
      "note": 84,
      "start": 32.7126,
      "duration": 0.0091,
      "velocity": 125,
      "chip": "ym2612"
    },
    {
      "channel": 4,
      "note": 82,
      "start": 32.7129,
      "duration": 0.0877,
      "velocity": 94,
      "chip": "ym2612"
    },
    {
      "channel": 2,
      "note": 96,
      "start": 32.7216,
      "duration": 0.0783,
      "velocity": 100,
      "chip": "ym2612"
    },
    {
      "channel": 3,
      "note": 77,
      "start": 32.7219,
      "duration": 0.0783,
      "velocity": 125,
      "chip": "ym2612"
    },
    {
      "channel": 2,
      "note": 89,
      "start": 32.8002,
      "duration": 0.1333,
      "velocity": 100,
      "chip": "ym2612"
    },
    {
      "channel": 3,
      "note": 84,
      "start": 32.8005,
      "duration": 0.1332,
      "velocity": 125,
      "chip": "ym2612"
    },
    {
      "channel": 4,
      "note": 82,
      "start": 32.8009,
      "duration": 0.1331,
      "velocity": 94,
      "chip": "ym2612"
    },
    {
      "channel": 0,
      "note": 44,
      "start": 32.9333,
      "duration": 0.0617,
      "velocity": 92,
      "chip": "ym2612"
    },
    {
      "channel": 2,
      "note": 96,
      "start": 32.9337,
      "duration": 0.0618,
      "velocity": 100,
      "chip": "ym2612"
    },
    {
      "channel": 3,
      "note": 85,
      "start": 32.934,
      "duration": 0.0618,
      "velocity": 125,
      "chip": "ym2612"
    },
    {
      "channel": 0,
      "note": 46,
      "start": 32.9952,
      "duration": 0.1332,
      "velocity": 92,
      "chip": "ym2612"
    },
    {
      "channel": 2,
      "note": 97,
      "start": 32.9958,
      "duration": 0.1329,
      "velocity": 100,
      "chip": "ym2612"
    },
    {
      "channel": 3,
      "note": 77,
      "start": 32.9961,
      "duration": 0.1328,
      "velocity": 125,
      "chip": "ym2612"
    },
    {
      "channel": 4,
      "note": 82,
      "start": 32.9965,
      "duration": 0.1327,
      "velocity": 94,
      "chip": "ym2612"
    },
    {
      "channel": 2,
      "note": 89,
      "start": 33.1289,
      "duration": 0.0785,
      "velocity": 100,
      "chip": "ym2612"
    },
    {
      "channel": 3,
      "note": 85,
      "start": 33.1292,
      "duration": 0.0786,
      "velocity": 125,
      "chip": "ym2612"
    },
    {
      "channel": 4,
      "note": 82,
      "start": 33.1295,
      "duration": 0.0786,
      "velocity": 94,
      "chip": "ym2612"
    },
    {
      "channel": 2,
      "note": 97,
      "start": 33.2078,
      "duration": 0.0087,
      "velocity": 100,
      "chip": "ym2612"
    },
    {
      "channel": 3,
      "note": 84,
      "start": 33.208,
      "duration": 0.0088,
      "velocity": 125,
      "chip": "ym2612"
    },
    {
      "channel": 4,
      "note": 82,
      "start": 33.2082,
      "duration": 0.0088,
      "velocity": 94,
      "chip": "ym2612"
    },
    {
      "channel": 2,
      "note": 96,
      "start": 33.2167,
      "duration": 0.0617,
      "velocity": 100,
      "chip": "ym2612"
    },
    {
      "channel": 3,
      "note": 77,
      "start": 33.2169,
      "duration": 0.0618,
      "velocity": 125,
      "chip": "ym2612"
    },
    {
      "channel": 4,
      "note": 82,
      "start": 33.2172,
      "duration": 0.0619,
      "velocity": 94,
      "chip": "ym2612"
    },
    {
      "channel": 2,
      "note": 89,
      "start": 33.2787,
      "duration": 0.1334,
      "velocity": 100,
      "chip": "ym2612"
    },
    {
      "channel": 3,
      "note": 84,
      "start": 33.279,
      "duration": 0.1332,
      "velocity": 125,
      "chip": "ym2612"
    },
    {
      "channel": 4,
      "note": 82,
      "start": 33.2794,
      "duration": 0.1332,
      "velocity": 94,
      "chip": "ym2612"
    },
    {
      "channel": 0,
      "note": 46,
      "start": 33.4118,
      "duration": 0.0785,
      "velocity": 92,
      "chip": "ym2612"
    },
    {
      "channel": 2,
      "note": 96,
      "start": 33.4122,
      "duration": 0.0787,
      "velocity": 100,
      "chip": "ym2612"
    },
    {
      "channel": 3,
      "note": 82,
      "start": 33.4125,
      "duration": 0.0787,
      "velocity": 125,
      "chip": "ym2612"
    },
    {
      "channel": 4,
      "note": 82,
      "start": 33.4128,
      "duration": 0.0788,
      "velocity": 94,
      "chip": "ym2612"
    },
    {
      "channel": 0,
      "note": 41,
      "start": 33.4906,
      "duration": 0.1332,
      "velocity": 92,
      "chip": "ym2612"
    },
    {
      "channel": 2,
      "note": 94,
      "start": 33.4912,
      "duration": 0.1329,
      "velocity": 100,
      "chip": "ym2612"
    },
    {
      "channel": 3,
      "note": 77,
      "start": 33.4916,
      "duration": 0.1329,
      "velocity": 125,
      "chip": "ym2612"
    },
    {
      "channel": 4,
      "note": 82,
      "start": 33.492,
      "duration": 0.1328,
      "velocity": 94,
      "chip": "ym2612"
    },
    {
      "channel": 0,
      "note": 34,
      "start": 33.624,
      "duration": 0.0617,
      "velocity": 92,
      "chip": "ym2612"
    },
    {
      "channel": 2,
      "note": 89,
      "start": 33.6243,
      "duration": 0.0616,
      "velocity": 100,
      "chip": "ym2612"
    },
    {
      "channel": 3,
      "note": 82,
      "start": 33.6246,
      "duration": 0.0617,
      "velocity": 125,
      "chip": "ym2612"
    },
    {
      "channel": 4,
      "note": 82,
      "start": 33.625,
      "duration": 0.0616,
      "velocity": 94,
      "chip": "ym2612"
    },
    {
      "channel": 2,
      "note": 94,
      "start": 33.6863,
      "duration": 0.0096,
      "velocity": 100,
      "chip": "ym2612"
    },
    {
      "channel": 3,
      "note": 84,
      "start": 33.6865,
      "duration": 0.0096,
      "velocity": 125,
      "chip": "ym2612"
    },
    {
      "channel": 4,
      "note": 82,
      "start": 33.6867,
      "duration": 0.0715,
      "velocity": 94,
      "chip": "ym2612"
    },
    {
      "channel": 2,
      "note": 96,
      "start": 33.696,
      "duration": 0.0614,
      "velocity": 100,
      "chip": "ym2612"
    },
    {
      "channel": 3,
      "note": 77,
      "start": 33.6963,
      "duration": 0.0615,
      "velocity": 125,
      "chip": "ym2612"
    },
    {
      "channel": 2,
      "note": 89,
      "start": 33.7577,
      "duration": 0.1333,
      "velocity": 100,
      "chip": "ym2612"
    },
    {
      "channel": 3,
      "note": 84,
      "start": 33.7581,
      "duration": 0.1332,
      "velocity": 125,
      "chip": "ym2612"
    },
    {
      "channel": 4,
      "note": 82,
      "start": 33.7585,
      "duration": 0.133,
      "velocity": 94,
      "chip": "ym2612"
    },
    {
      "channel": 0,
      "note": 46,
      "start": 33.8908,
      "duration": 0.2119,
      "velocity": 92,
      "chip": "ym2612"
    },
    {
      "channel": 2,
      "note": 96,
      "start": 33.8912,
      "duration": 0.0617,
      "velocity": 100,
      "chip": "ym2612"
    },
    {
      "channel": 3,
      "note": 85,
      "start": 33.8915,
      "duration": 0.0619,
      "velocity": 125,
      "chip": "ym2612"
    },
    {
      "channel": 2,
      "note": 97,
      "start": 33.9533,
      "duration": 0.1498,
      "velocity": 100,
      "chip": "ym2612"
    },
    {
      "channel": 3,
      "note": 77,
      "start": 33.9537,
      "duration": 0.1497,
      "velocity": 125,
      "chip": "ym2612"
    },
    {
      "channel": 4,
      "note": 82,
      "start": 33.954,
      "duration": 0.1496,
      "velocity": 94,
      "chip": "ym2612"
    },
    {
      "channel": 0,
      "note": 34,
      "start": 34.1029,
      "duration": 0.0708,
      "velocity": 92,
      "chip": "ym2612"
    },
    {
      "channel": 2,
      "note": 89,
      "start": 34.1033,
      "duration": 0.0616,
      "velocity": 100,
      "chip": "ym2612"
    },
    {
      "channel": 3,
      "note": 85,
      "start": 34.1036,
      "duration": 0.0615,
      "velocity": 125,
      "chip": "ym2612"
    },
    {
      "channel": 4,
      "note": 82,
      "start": 34.1039,
      "duration": 0.0615,
      "velocity": 94,
      "chip": "ym2612"
    },
    {
      "channel": 2,
      "note": 97,
      "start": 34.165,
      "duration": 0.0091,
      "velocity": 100,
      "chip": "ym2612"
    },
    {
      "channel": 3,
      "note": 84,
      "start": 34.1653,
      "duration": 0.009,
      "velocity": 125,
      "chip": "ym2612"
    },
    {
      "channel": 4,
      "note": 82,
      "start": 34.1656,
      "duration": 0.009,
      "velocity": 94,
      "chip": "ym2612"
    },
    {
      "channel": 0,
      "note": 34,
      "start": 34.174,
      "duration": 0.009,
      "velocity": 92,
      "chip": "ym2612"
    },
    {
      "channel": 2,
      "note": 96,
      "start": 34.1742,
      "duration": 0.0092,
      "velocity": 100,
      "chip": "ym2612"
    },
    {
      "channel": 3,
      "note": 77,
      "start": 34.1746,
      "duration": 0.0092,
      "velocity": 125,
      "chip": "ym2612"
    },
    {
      "channel": 4,
      "note": 82,
      "start": 34.1748,
      "duration": 0.0092,
      "velocity": 94,
      "chip": "ym2612"
    },
    {
      "channel": 0,
      "note": 46,
      "start": 34.1833,
      "duration": 0.0098,
      "velocity": 92,
      "chip": "ym2612"
    },
    {
      "channel": 2,
      "note": 89,
      "start": 34.1837,
      "duration": 0.01,
      "velocity": 100,
      "chip": "ym2612"
    },
    {
      "channel": 3,
      "note": 84,
      "start": 34.184,
      "duration": 0.01,
      "velocity": 125,
      "chip": "ym2612"
    },
    {
      "channel": 4,
      "note": 82,
      "start": 34.1842,
      "duration": 0.0099,
      "velocity": 94,
      "chip": "ym2612"
    },
    {
      "channel": 0,
      "note": 35,
      "start": 34.1934,
      "duration": 0.0618,
      "velocity": 92,
      "chip": "ym2612"
    },
    {
      "channel": 1,
      "note": 71,
      "start": 34.1936,
      "duration": 1.4216,
      "velocity": 112,
      "chip": "ym2612"
    },
    {
      "channel": 2,
      "note": 96,
      "start": 34.1938,
      "duration": 0.0617,
      "velocity": 100,
      "chip": "ym2612"
    },
    {
      "channel": 3,
      "note": 83,
      "start": 34.194,
      "duration": 0.0619,
      "velocity": 125,
      "chip": "ym2612"
    },
    {
      "channel": 4,
      "note": 83,
      "start": 34.1944,
      "duration": 0.0618,
      "velocity": 94,
      "chip": "ym2612"
    },
    {
      "channel": 2,
      "note": 95,
      "start": 34.2559,
      "duration": 0.1329,
      "velocity": 100,
      "chip": "ym2612"
    },
    {
      "channel": 3,
      "note": 78,
      "start": 34.2562,
      "duration": 0.1329,
      "velocity": 125,
      "chip": "ym2612"
    },
    {
      "channel": 4,
      "note": 83,
      "start": 34.2566,
      "duration": 0.1328,
      "velocity": 94,
      "chip": "ym2612"
    },
    {
      "channel": 2,
      "note": 90,
      "start": 34.389,
      "duration": 0.0617,
      "velocity": 100,
      "chip": "ym2612"
    },
    {
      "channel": 3,
      "note": 83,
      "start": 34.3893,
      "duration": 0.0617,
      "velocity": 125,
      "chip": "ym2612"
    },
    {
      "channel": 4,
      "note": 83,
      "start": 34.3895,
      "duration": 0.0617,
      "velocity": 94,
      "chip": "ym2612"
    },
    {
      "channel": 2,
      "note": 95,
      "start": 34.451,
      "duration": 0.0099,
      "velocity": 100,
      "chip": "ym2612"
    },
    {
      "channel": 3,
      "note": 85,
      "start": 34.4512,
      "duration": 0.0099,
      "velocity": 125,
      "chip": "ym2612"
    },
    {
      "channel": 4,
      "note": 83,
      "start": 34.4515,
      "duration": 0.0722,
      "velocity": 94,
      "chip": "ym2612"
    },
    {
      "channel": 2,
      "note": 97,
      "start": 34.4611,
      "duration": 0.0619,
      "velocity": 100,
      "chip": "ym2612"
    },
    {
      "channel": 3,
      "note": 78,
      "start": 34.4614,
      "duration": 0.062,
      "velocity": 125,
      "chip": "ym2612"
    },
    {
      "channel": 0,
      "note": 42,
      "start": 34.5228,
      "duration": 0.1332,
      "velocity": 92,
      "chip": "ym2612"
    },
    {
      "channel": 2,
      "note": 90,
      "start": 34.5233,
      "duration": 0.1331,
      "velocity": 100,
      "chip": "ym2612"
    },
    {
      "channel": 3,
      "note": 85,
      "start": 34.5237,
      "duration": 0.133,
      "velocity": 125,
      "chip": "ym2612"
    },
    {
      "channel": 4,
      "note": 83,
      "start": 34.5241,
      "duration": 0.1329,
      "velocity": 94,
      "chip": "ym2612"
    },
    {
      "channel": 0,
      "note": 47,
      "start": 34.6562,
      "duration": 0.2168,
      "velocity": 92,
      "chip": "ym2612"
    },
    {
      "channel": 2,
      "note": 97,
      "start": 34.6566,
      "duration": 0.0617,
      "velocity": 100,
      "chip": "ym2612"
    },
    {
      "channel": 3,
      "note": 87,
      "start": 34.6569,
      "duration": 0.0618,
      "velocity": 125,
      "chip": "ym2612"
    },
    {
      "channel": 2,
      "note": 99,
      "start": 34.7187,
      "duration": 0.1498,
      "velocity": 100,
      "chip": "ym2612"
    },
    {
      "channel": 3,
      "note": 78,
      "start": 34.719,
      "duration": 0.1497,
      "velocity": 125,
      "chip": "ym2612"
    },
    {
      "channel": 4,
      "note": 83,
      "start": 34.7194,
      "duration": 0.1495,
      "velocity": 94,
      "chip": "ym2612"
    },
    {
      "channel": 2,
      "note": 90,
      "start": 34.8687,
      "duration": 0.0619,
      "velocity": 100,
      "chip": "ym2612"
    },
    {
      "channel": 3,
      "note": 87,
      "start": 34.8689,
      "duration": 0.0619,
      "velocity": 125,
      "chip": "ym2612"
    },
    {
      "channel": 4,
      "note": 83,
      "start": 34.8691,
      "duration": 0.062,
      "velocity": 94,
      "chip": "ym2612"
    },
    {
      "channel": 2,
      "note": 99,
      "start": 34.9308,
      "duration": 0.0085,
      "velocity": 100,
      "chip": "ym2612"
    },
    {
      "channel": 3,
      "note": 85,
      "start": 34.9311,
      "duration": 0.0086,
      "velocity": 125,
      "chip": "ym2612"
    },
    {
      "channel": 4,
      "note": 83,
      "start": 34.9313,
      "duration": 0.0087,
      "velocity": 94,
      "chip": "ym2612"
    },
    {
      "channel": 2,
      "note": 97,
      "start": 34.9396,
      "duration": 0.0617,
      "velocity": 100,
      "chip": "ym2612"
    },
    {
      "channel": 3,
      "note": 78,
      "start": 34.9399,
      "duration": 0.0618,
      "velocity": 125,
      "chip": "ym2612"
    },
    {
      "channel": 4,
      "note": 83,
      "start": 34.9402,
      "duration": 0.0619,
      "velocity": 94,
      "chip": "ym2612"
    },
    {
      "channel": 2,
      "note": 90,
      "start": 35.0016,
      "duration": 0.15,
      "velocity": 100,
      "chip": "ym2612"
    },
    {
      "channel": 3,
      "note": 85,
      "start": 35.002,
      "duration": 0.1499,
      "velocity": 125,
      "chip": "ym2612"
    },
    {
      "channel": 4,
      "note": 83,
      "start": 35.0024,
      "duration": 0.1499,
      "velocity": 94,
      "chip": "ym2612"
    },
    {
      "channel": 0,
      "note": 47,
      "start": 35.1515,
      "duration": 0.062,
      "velocity": 92,
      "chip": "ym2612"
    },
    {
      "channel": 2,
      "note": 97,
      "start": 35.1518,
      "duration": 0.0621,
      "velocity": 100,
      "chip": "ym2612"
    },
    {
      "channel": 3,
      "note": 83,
      "start": 35.1522,
      "duration": 0.0622,
      "velocity": 125,
      "chip": "ym2612"
    },
    {
      "channel": 4,
      "note": 83,
      "start": 35.1525,
      "duration": 0.0622,
      "velocity": 94,
      "chip": "ym2612"
    },
    {
      "channel": 0,
      "note": 42,
      "start": 35.2137,
      "duration": 0.1332,
      "velocity": 92,
      "chip": "ym2612"
    },
    {
      "channel": 2,
      "note": 95,
      "start": 35.2142,
      "duration": 0.133,
      "velocity": 100,
      "chip": "ym2612"
    },
    {
      "channel": 3,
      "note": 78,
      "start": 35.2146,
      "duration": 0.1329,
      "velocity": 125,
      "chip": "ym2612"
    },
    {
      "channel": 4,
      "note": 83,
      "start": 35.215,
      "duration": 0.1328,
      "velocity": 94,
      "chip": "ym2612"
    },
    {
      "channel": 0,
      "note": 35,
      "start": 35.3471,
      "duration": 0.0622,
      "velocity": 92,
      "chip": "ym2612"
    },
    {
      "channel": 2,
      "note": 90,
      "start": 35.3474,
      "duration": 0.0623,
      "velocity": 100,
      "chip": "ym2612"
    },
    {
      "channel": 3,
      "note": 83,
      "start": 35.3478,
      "duration": 0.0622,
      "velocity": 125,
      "chip": "ym2612"
    },
    {
      "channel": 4,
      "note": 83,
      "start": 35.348,
      "duration": 0.0622,
      "velocity": 94,
      "chip": "ym2612"
    },
    {
      "channel": 0,
      "note": 47,
      "start": 35.4095,
      "duration": 0.01,
      "velocity": 92,
      "chip": "ym2612"
    },
    {
      "channel": 2,
      "note": 95,
      "start": 35.4099,
      "duration": 0.0099,
      "velocity": 100,
      "chip": "ym2612"
    },
    {
      "channel": 3,
      "note": 85,
      "start": 35.4102,
      "duration": 0.0099,
      "velocity": 125,
      "chip": "ym2612"
    },
    {
      "channel": 4,
      "note": 83,
      "start": 35.4105,
      "duration": 0.0724,
      "velocity": 94,
      "chip": "ym2612"
    },
    {
      "channel": 2,
      "note": 97,
      "start": 35.42,
      "duration": 0.0622,
      "velocity": 100,
      "chip": "ym2612"
    },
    {
      "channel": 3,
      "note": 78,
      "start": 35.4203,
      "duration": 0.0622,
      "velocity": 125,
      "chip": "ym2612"
    },
    {
      "channel": 0,
      "note": 47,
      "start": 35.4819,
      "duration": 0.1332,
      "velocity": 92,
      "chip": "ym2612"
    },
    {
      "channel": 2,
      "note": 90,
      "start": 35.4824,
      "duration": 0.1331,
      "velocity": 100,
      "chip": "ym2612"
    },
    {
      "channel": 3,
      "note": 85,
      "start": 35.4828,
      "duration": 0.1329,
      "velocity": 125,
      "chip": "ym2612"
    },
    {
      "channel": 4,
      "note": 83,
      "start": 35.4832,
      "duration": 0.1328,
      "velocity": 94,
      "chip": "ym2612"
    },
    {
      "channel": 1,
      "note": 71,
      "start": 35.6155,
      "duration": 0.0619,
      "velocity": 112,
      "chip": "ym2612"
    },
    {
      "channel": 2,
      "note": 97,
      "start": 35.6156,
      "duration": 0.0619,
      "velocity": 100,
      "chip": "ym2612"
    },
    {
      "channel": 3,
      "note": 87,
      "start": 35.6159,
      "duration": 0.0621,
      "velocity": 125,
      "chip": "ym2612"
    },
    {
      "channel": 0,
      "note": 47,
      "start": 35.6773,
      "duration": 0.0098,
      "velocity": 92,
      "chip": "ym2612"
    },
    {
      "channel": 1,
      "note": 70,
      "start": 35.6775,
      "duration": 0.0099,
      "velocity": 112,
      "chip": "ym2612"
    },
    {
      "channel": 2,
      "note": 99,
      "start": 35.6778,
      "duration": 0.0098,
      "velocity": 100,
      "chip": "ym2612"
    },
    {
      "channel": 3,
      "note": 78,
      "start": 35.6781,
      "duration": 0.0098,
      "velocity": 125,
      "chip": "ym2612"
    },
    {
      "channel": 4,
      "note": 83,
      "start": 35.6783,
      "duration": 0.0098,
      "velocity": 94,
      "chip": "ym2612"
    },
    {
      "channel": 0,
      "note": 35,
      "start": 35.6873,
      "duration": 0.009,
      "velocity": 92,
      "chip": "ym2612"
    },
    {
      "channel": 1,
      "note": 69,
      "start": 35.6876,
      "duration": 0.009,
      "velocity": 112,
      "chip": "ym2612"
    },
    {
      "channel": 2,
      "note": 90,
      "start": 35.6878,
      "duration": 0.009,
      "velocity": 100,
      "chip": "ym2612"
    },
    {
      "channel": 3,
      "note": 87,
      "start": 35.6881,
      "duration": 0.009,
      "velocity": 125,
      "chip": "ym2612"
    },
    {
      "channel": 4,
      "note": 83,
      "start": 35.6883,
      "duration": 0.0091,
      "velocity": 94,
      "chip": "ym2612"
    },
    {
      "channel": 0,
      "note": 35,
      "start": 35.6965,
      "duration": 0.0091,
      "velocity": 92,
      "chip": "ym2612"
    },
    {
      "channel": 1,
      "note": 68,
      "start": 35.6968,
      "duration": 0.0092,
      "velocity": 112,
      "chip": "ym2612"
    },
    {
      "channel": 2,
      "note": 99,
      "start": 35.6971,
      "duration": 0.0092,
      "velocity": 100,
      "chip": "ym2612"
    },
    {
      "channel": 3,
      "note": 85,
      "start": 35.6973,
      "duration": 0.0092,
      "velocity": 125,
      "chip": "ym2612"
    },
    {
      "channel": 4,
      "note": 83,
      "start": 35.6976,
      "duration": 0.0092,
      "velocity": 94,
      "chip": "ym2612"
    },
    {
      "channel": 0,
      "note": 47,
      "start": 35.7059,
      "duration": 0.0098,
      "velocity": 92,
      "chip": "ym2612"
    },
    {
      "channel": 1,
      "note": 67,
      "start": 35.7062,
      "duration": 0.0098,
      "velocity": 112,
      "chip": "ym2612"
    },
    {
      "channel": 2,
      "note": 97,
      "start": 35.7065,
      "duration": 0.0098,
      "velocity": 100,
      "chip": "ym2612"
    },
    {
      "channel": 3,
      "note": 78,
      "start": 35.7067,
      "duration": 0.0099,
      "velocity": 125,
      "chip": "ym2612"
    },
    {
      "channel": 4,
      "note": 83,
      "start": 35.7071,
      "duration": 0.0098,
      "velocity": 94,
      "chip": "ym2612"
    },
    {
      "channel": 0,
      "note": 35,
      "start": 35.7159,
      "duration": 36.9472,
      "velocity": 92,
      "chip": "ym2612"
    },
    {
      "channel": 1,
      "note": 66,
      "start": 35.7161,
      "duration": 36.947,
      "velocity": 112,
      "chip": "ym2612"
    },
    {
      "channel": 2,
      "note": 90,
      "start": 35.7165,
      "duration": 36.9466,
      "velocity": 100,
      "chip": "ym2612"
    },
    {
      "channel": 3,
      "note": 85,
      "start": 35.7168,
      "duration": 36.9463,
      "velocity": 125,
      "chip": "ym2612"
    },
    {
      "channel": 4,
      "note": 83,
      "start": 35.7171,
      "duration": 36.9461,
      "velocity": 94,
      "chip": "ym2612"
    }
  ]
}