{
  "track_name": "13 - Stage 3-4",
  "duration_sec": 41.65,
  "sample_rate": 44100,
  "note_count": 465,
  "unique_pitches": 23,
  "pitch_range": 77,
  "avg_note_duration": 0.0057,
  "reconstruction_stats": {
    "notes_reconstructed": 465,
    "keyon_events": 465,
    "keyoff_events": 465,
    "orphan_keyons": 0,
    "unique_pitches": 23,
    "pitch_range": 77,
    "avg_duration_sec": 0.0057
  },
  "metadata": {
    "source": "M\\Mega Turrican\\13 - Stage 3-4.vgz"
  },
  "notes": [
    {
      "channel": 0,
      "note": 72,
      "start": 0.0041,
      "duration": 0.0695,
      "velocity": 101,
      "chip": "ym2612"
    },
    {
      "channel": 3,
      "note": 48,
      "start": 0.0041,
      "duration": 0.0068,
      "velocity": 113,
      "chip": "ym2612"
    },
    {
      "channel": 4,
      "note": 125,
      "start": 0.0053,
      "duration": 0.0002,
      "velocity": 127,
      "chip": "ym2612"
    },
    {
      "channel": 4,
      "note": 125,
      "start": 0.0129,
      "duration": 0.0011,
      "velocity": 127,
      "chip": "ym2612"
    },
    {
      "channel": 3,
      "note": 51,
      "start": 0.0132,
      "duration": 0.0025,
      "velocity": 113,
      "chip": "ym2612"
    },
    {
      "channel": 4,
      "note": 125,
      "start": 0.0157,
      "duration": 0.0012,
      "velocity": 127,
      "chip": "ym2612"
    },
    {
      "channel": 3,
      "note": 48,
      "start": 0.016,
      "duration": 0.0103,
      "velocity": 113,
      "chip": "ym2612"
    },
    {
      "channel": 4,
      "note": 125,
      "start": 0.0263,
      "duration": 0.0012,
      "velocity": 127,
      "chip": "ym2612"
    },
    {
      "channel": 3,
      "note": 60,
      "start": 0.0267,
      "duration": 0.0025,
      "velocity": 113,
      "chip": "ym2612"
    },
    {
      "channel": 4,
      "note": 125,
      "start": 0.0292,
      "duration": 0.001,
      "velocity": 127,
      "chip": "ym2612"
    },
    {
      "channel": 4,
      "note": 125,
      "start": 0.0388,
      "duration": 0.0012,
      "velocity": 127,
      "chip": "ym2612"
    },
    {
      "channel": 3,
      "note": 51,
      "start": 0.039,
      "duration": 0.0023,
      "velocity": 113,
      "chip": "ym2612"
    },
    {
      "channel": 4,
      "note": 125,
      "start": 0.0417,
      "duration": 0.0012,
      "velocity": 127,
      "chip": "ym2612"
    },
    {
      "channel": 3,
      "note": 48,
      "start": 0.042,
      "duration": 0.0097,
      "velocity": 113,
      "chip": "ym2612"
    },
    {
      "channel": 4,
      "note": 125,
      "start": 0.0506,
      "duration": 0.0012,
      "velocity": 127,
      "chip": "ym2612"
    },
    {
      "channel": 4,
      "note": 125,
      "start": 0.0534,
      "duration": 0.0013,
      "velocity": 127,
      "chip": "ym2612"
    },
    {
      "channel": 3,
      "note": 48,
      "start": 0.0537,
      "duration": 0.0023,
      "velocity": 113,
      "chip": "ym2612"
    },
    {
      "channel": 4,
      "note": 125,
      "start": 0.0564,
      "duration": 0.0012,
      "velocity": 127,
      "chip": "ym2612"
    },
    {
      "channel": 3,
      "note": 51,
      "start": 0.0568,
      "duration": 0.002,
      "velocity": 113,
      "chip": "ym2612"
    },
    {
      "channel": 4,
      "note": 125,
      "start": 0.0594,
      "duration": 0.0012,
      "velocity": 127,
      "chip": "ym2612"
    },
    {
      "channel": 3,
      "note": 48,
      "start": 0.0596,
      "duration": 0.0022,
      "velocity": 113,
      "chip": "ym2612"
    },
    {
      "channel": 4,
      "note": 125,
      "start": 0.0623,
      "duration": 0.0012,
      "velocity": 127,
      "chip": "ym2612"
    },
    {
      "channel": 3,
      "note": 60,
      "start": 0.0626,
      "duration": 0.0032,
      "velocity": 113,
      "chip": "ym2612"
    },
    {
      "channel": 4,
      "note": 125,
      "start": 0.0651,
      "duration": 0.0012,
      "velocity": 127,
      "chip": "ym2612"
    },
    {
      "channel": 4,
      "note": 125,
      "start": 0.068,
      "duration": 0.0012,
      "velocity": 127,
      "chip": "ym2612"
    },
    {
      "channel": 3,
      "note": 51,
      "start": 0.0683,
      "duration": 0.0024,
      "velocity": 113,
      "chip": "ym2612"
    },
    {
      "channel": 4,
      "note": 125,
      "start": 0.0708,
      "duration": 0.0012,
      "velocity": 127,
      "chip": "ym2612"
    },
    {
      "channel": 3,
      "note": 60,
      "start": 0.0711,
      "duration": 0.0022,
      "velocity": 113,
      "chip": "ym2612"
    },
    {
      "channel": 3,
      "note": 48,
      "start": 0.0741,
      "duration": 0.0012,
      "velocity": 113,
      "chip": "ym2612"
    },
    {
      "channel": 0,
      "note": 73,
      "start": 0.0741,
      "duration": 0.0451,
      "velocity": 101,
      "chip": "ym2612"
    },
    {
      "channel": 4,
      "note": 125,
      "start": 0.0741,
      "duration": 0.0002,
      "velocity": 127,
      "chip": "ym2612"
    },
    {
      "channel": 4,
      "note": 125,
      "start": 0.0748,
      "duration": 0.0002,
      "velocity": 127,
      "chip": "ym2612"
    },
    {
      "channel": 4,
      "note": 125,
      "start": 0.0764,
      "duration": 0.0012,
      "velocity": 127,
      "chip": "ym2612"
    },
    {
      "channel": 3,
      "note": 51,
      "start": 0.0768,
      "duration": 0.0025,
      "velocity": 113,
      "chip": "ym2612"
    },
    {
      "channel": 4,
      "note": 125,
      "start": 0.0792,
      "duration": 0.0012,
      "velocity": 127,
      "chip": "ym2612"
    },
    {
      "channel": 3,
      "note": 48,
      "start": 0.0795,
      "duration": 0.0026,
      "velocity": 113,
      "chip": "ym2612"
    },
    {
      "channel": 4,
      "note": 125,
      "start": 0.0822,
      "duration": 0.0012,
      "velocity": 127,
      "chip": "ym2612"
    },
    {
      "channel": 3,
      "note": 60,
      "start": 0.0824,
      "duration": 0.0026,
      "velocity": 113,
      "chip": "ym2612"
    },
    {
      "channel": 4,
      "note": 125,
      "start": 0.0851,
      "duration": 0.0011,
      "velocity": 127,
      "chip": "ym2612"
    },
    {
      "channel": 4,
      "note": 125,
      "start": 0.088,
      "duration": 0.0012,
      "velocity": 127,
      "chip": "ym2612"
    },
    {
      "channel": 3,
      "note": 51,
      "start": 0.0883,
      "duration": 0.0021,
      "velocity": 113,
      "chip": "ym2612"
    },
    {
      "channel": 4,
      "note": 125,
      "start": 0.0907,
      "duration": 0.0012,
      "velocity": 127,
      "chip": "ym2612"
    },
    {
      "channel": 3,
      "note": 48,
      "start": 0.0911,
      "duration": 0.0039,
      "velocity": 113,
      "chip": "ym2612"
    },
    {
      "channel": 4,
      "note": 125,
      "start": 0.0938,
      "duration": 0.0012,
      "velocity": 127,
      "chip": "ym2612"
    },
    {
      "channel": 4,
      "note": 125,
      "start": 0.0968,
      "duration": 0.0012,
      "velocity": 127,
      "chip": "ym2612"
    },
    {
      "channel": 3,
      "note": 48,
      "start": 0.0971,
      "duration": 0.0022,
      "velocity": 113,
      "chip": "ym2612"
    },
    {
      "channel": 4,
      "note": 125,
      "start": 0.0996,
      "duration": 0.0012,
      "velocity": 127,
      "chip": "ym2612"
    },
    {
      "channel": 3,
      "note": 51,
      "start": 0.1,
      "duration": 0.002,
      "velocity": 113,
      "chip": "ym2612"
    },
    {
      "channel": 4,
      "note": 125,
      "start": 0.104,
      "duration": 0.0013,
      "velocity": 127,
      "chip": "ym2612"
    },
    {
      "channel": 3,
      "note": 48,
      "start": 0.1044,
      "duration": 0.0023,
      "velocity": 113,
      "chip": "ym2612"
    },
    {
      "channel": 4,
      "note": 125,
      "start": 0.107,
      "duration": 0.0011,
      "velocity": 127,
      "chip": "ym2612"
    },
    {
      "channel": 3,
      "note": 60,
      "start": 0.1073,
      "duration": 0.0035,
      "velocity": 113,
      "chip": "ym2612"
    },
    {
      "channel": 4,
      "note": 125,
      "start": 0.11,
      "duration": 0.0013,
      "velocity": 127,
      "chip": "ym2612"
    },
    {
      "channel": 4,
      "note": 125,
      "start": 0.1132,
      "duration": 0.0012,
      "velocity": 127,
      "chip": "ym2612"
    },
    {
      "channel": 3,
      "note": 51,
      "start": 0.1137,
      "duration": 0.0026,
      "velocity": 113,
      "chip": "ym2612"
    },
    {
      "channel": 4,
      "note": 125,
      "start": 0.1163,
      "duration": 0.0013,
      "velocity": 127,
      "chip": "ym2612"
    },
    {
      "channel": 3,
      "note": 60,
      "start": 0.1167,
      "duration": 0.0022,
      "velocity": 113,
      "chip": "ym2612"
    },
    {
      "channel": 0,
      "note": 79,
      "start": 0.1197,
      "duration": 0.0451,
      "velocity": 101,
      "chip": "ym2612"
    },
    {
      "channel": 3,
      "note": 48,
      "start": 0.1197,
      "duration": 0.0014,
      "velocity": 113,
      "chip": "ym2612"
    },
    {
      "channel": 4,
      "note": 125,
      "start": 0.1197,
      "duration": 0.0002,
      "velocity": 127,
      "chip": "ym2612"
    },
    {
      "channel": 4,
      "note": 125,
      "start": 0.1204,
      "duration": 0.0005,
      "velocity": 127,
      "chip": "ym2612"
    },
    {
      "channel": 4,
      "note": 125,
      "start": 0.1223,
      "duration": 0.0012,
      "velocity": 127,
      "chip": "ym2612"
    },
    {
      "channel": 3,
      "note": 51,
      "start": 0.1227,
      "duration": 0.0026,
      "velocity": 113,
      "chip": "ym2612"
    },
    {
      "channel": 4,
      "note": 125,
      "start": 0.1253,
      "duration": 0.0014,
      "velocity": 127,
      "chip": "ym2612"
    },
    {
      "channel": 3,
      "note": 48,
      "start": 0.1257,
      "duration": 0.0026,
      "velocity": 113,
      "chip": "ym2612"
    },
    {
      "channel": 4,
      "note": 125,
      "start": 0.1283,
      "duration": 0.0012,
      "velocity": 127,
      "chip": "ym2612"
    },
    {
      "channel": 3,
      "note": 60,
      "start": 0.1287,
      "duration": 0.0027,
      "velocity": 113,
      "chip": "ym2612"
    },
    {
      "channel": 4,
      "note": 125,
      "start": 0.1313,
      "duration": 0.0011,
      "velocity": 127,
      "chip": "ym2612"
    },
    {
      "channel": 4,
      "note": 125,
      "start": 0.1341,
      "duration": 0.0012,
      "velocity": 127,
      "chip": "ym2612"
    },
    {
      "channel": 3,
      "note": 51,
      "start": 0.1344,
      "duration": 0.0022,
      "velocity": 113,
      "chip": "ym2612"
    },
    {
      "channel": 4,
      "note": 125,
      "start": 0.137,
      "duration": 0.0012,
      "velocity": 127,
      "chip": "ym2612"
    },
    {
      "channel": 3,
      "note": 48,
      "start": 0.1373,
      "duration": 0.0037,
      "velocity": 113,
      "chip": "ym2612"
    },
    {
      "channel": 4,
      "note": 125,
      "start": 0.1399,
      "duration": 0.001,
      "velocity": 127,
      "chip": "ym2612"
    },
    {
      "channel": 4,
      "note": 125,
      "start": 0.1426,
      "duration": 0.0014,
      "velocity": 127,
      "chip": "ym2612"
    },
    {
      "channel": 3,
      "note": 48,
      "start": 0.143,
      "duration": 0.0022,
      "velocity": 113,
      "chip": "ym2612"
    },
    {
      "channel": 4,
      "note": 125,
      "start": 0.1455,
      "duration": 0.0013,
      "velocity": 127,
      "chip": "ym2612"
    },
    {
      "channel": 3,
      "note": 51,
      "start": 0.1459,
      "duration": 0.0021,
      "velocity": 113,
      "chip": "ym2612"
    },
    {
      "channel": 4,
      "note": 125,
      "start": 0.1486,
      "duration": 0.0012,
      "velocity": 127,
      "chip": "ym2612"
    },
    {
      "channel": 3,
      "note": 48,
      "start": 0.1489,
      "duration": 0.0022,
      "velocity": 113,
      "chip": "ym2612"
    },
    {
      "channel": 4,
      "note": 125,
      "start": 0.1514,
      "duration": 0.0024,
      "velocity": 127,
      "chip": "ym2612"
    },
    {
      "channel": 3,
      "note": 60,
      "start": 0.1522,
      "duration": 0.004,
      "velocity": 113,
      "chip": "ym2612"
    },
    {
      "channel": 4,
      "note": 125,
      "start": 0.1556,
      "duration": 0.0011,
      "velocity": 127,
      "chip": "ym2612"
    },
    {
      "channel": 4,
      "note": 125,
      "start": 0.1587,
      "duration": 0.0013,
      "velocity": 127,
      "chip": "ym2612"
    },
    {
      "channel": 3,
      "note": 51,
      "start": 0.159,
      "duration": 0.0026,
      "velocity": 113,
      "chip": "ym2612"
    },
    {
      "channel": 4,
      "note": 125,
      "start": 0.1616,
      "duration": 0.0014,
      "velocity": 127,
      "chip": "ym2612"
    },
    {
      "channel": 3,
      "note": 60,
      "start": 0.1621,
      "duration": 0.0023,
      "velocity": 113,
      "chip": "ym2612"
    },
    {
      "channel": 0,
      "note": 78,
      "start": 0.1652,
      "duration": 0.0468,
      "velocity": 101,
      "chip": "ym2612"
    },
    {
      "channel": 3,
      "note": 48,
      "start": 0.1652,
      "duration": 0.0014,
      "velocity": 113,
      "chip": "ym2612"
    },
    {
      "channel": 4,
      "note": 125,
      "start": 0.1652,
      "duration": 0.0002,
      "velocity": 127,
      "chip": "ym2612"
    },
    {
      "channel": 4,
      "note": 125,
      "start": 0.1659,
      "duration": 0.0005,
      "velocity": 127,
      "chip": "ym2612"
    },
    {
      "channel": 4,
      "note": 125,
      "start": 0.1678,
      "duration": 0.0014,
      "velocity": 127,
      "chip": "ym2612"
    },
    {
      "channel": 3,
      "note": 51,
      "start": 0.1682,
      "duration": 0.0027,
      "velocity": 113,
      "chip": "ym2612"
    },
    {
      "channel": 4,
      "note": 125,
      "start": 0.1709,
      "duration": 0.0012,
      "velocity": 127,
      "chip": "ym2612"
    },
    {
      "channel": 3,
      "note": 48,
      "start": 0.1712,
      "duration": 0.0026,
      "velocity": 113,
      "chip": "ym2612"
    },
    {
      "channel": 4,
      "note": 125,
      "start": 0.1738,
      "duration": 0.0025,
      "velocity": 127,
      "chip": "ym2612"
    },
    {
      "channel": 3,
      "note": 60,
      "start": 0.1744,
      "duration": 0.0035,
      "velocity": 113,
      "chip": "ym2612"
    },
    {
      "channel": 4,
      "note": 125,
      "start": 0.1779,
      "duration": 0.0011,
      "velocity": 127,
      "chip": "ym2612"
    },
    {
      "channel": 4,
      "note": 125,
      "start": 0.1807,
      "duration": 0.0014,
      "velocity": 127,
      "chip": "ym2612"
    },
    {
      "channel": 3,
      "note": 51,
      "start": 0.1812,
      "duration": 0.0023,
      "velocity": 113,
      "chip": "ym2612"
    },
    {
      "channel": 4,
      "note": 125,
      "start": 0.1838,
      "duration": 0.0012,
      "velocity": 127,
      "chip": "ym2612"
    },
    {
      "channel": 3,
      "note": 48,
      "start": 0.1841,
      "duration": 0.005,
      "velocity": 113,
      "chip": "ym2612"
    },
    {
      "channel": 4,
      "note": 125,
      "start": 0.1867,
      "duration": 0.0024,
      "velocity": 127,
      "chip": "ym2612"
    },
    {
      "channel": 4,
      "note": 125,
      "start": 0.1908,
      "duration": 0.0012,
      "velocity": 127,
      "chip": "ym2612"
    },
    {
      "channel": 3,
      "note": 48,
      "start": 0.1911,
      "duration": 0.0024,
      "velocity": 113,
      "chip": "ym2612"
    },
    {
      "channel": 4,
      "note": 125,
      "start": 0.1938,
      "duration": 0.0012,
      "velocity": 127,
      "chip": "ym2612"
    },
    {
      "channel": 3,
      "note": 51,
      "start": 0.1941,
      "duration": 0.0021,
      "velocity": 113,
      "chip": "ym2612"
    },
    {
      "channel": 4,
      "note": 125,
      "start": 0.1968,
      "duration": 0.0013,
      "velocity": 127,
      "chip": "ym2612"
    },
    {
      "channel": 3,
      "note": 48,
      "start": 0.1971,
      "duration": 0.0023,
      "velocity": 113,
      "chip": "ym2612"
    },
    {
      "channel": 4,
      "note": 125,
      "start": 0.1997,
      "duration": 0.0012,
      "velocity": 127,
      "chip": "ym2612"
    },
    {
      "channel": 3,
      "note": 60,
      "start": 0.2,
      "duration": 0.0033,
      "velocity": 113,
      "chip": "ym2612"
    },
    {
      "channel": 4,
      "note": 125,
      "start": 0.2026,
      "duration": 0.0012,
      "velocity": 127,
      "chip": "ym2612"
    },
    {
      "channel": 4,
      "note": 125,
      "start": 0.2055,
      "duration": 0.0013,
      "velocity": 127,
      "chip": "ym2612"
    },
    {
      "channel": 3,
      "note": 51,
      "start": 0.2058,
      "duration": 0.0027,
      "velocity": 113,
      "chip": "ym2612"
    },
    {
      "channel": 4,
      "note": 125,
      "start": 0.2085,
      "duration": 0.0012,
      "velocity": 127,
      "chip": "ym2612"
    },
    {
      "channel": 3,
      "note": 60,
      "start": 0.2088,
      "duration": 0.0022,
      "velocity": 113,
      "chip": "ym2612"
    },
    {
      "channel": 3,
      "note": 48,
      "start": 0.2142,
      "duration": 0.0109,
      "velocity": 113,
      "chip": "ym2612"
    },
    {
      "channel": 4,
      "note": 125,
      "start": 0.2142,
      "duration": 0.0006,
      "velocity": 127,
      "chip": "ym2612"
    },
    {
      "channel": 0,
      "note": 58,
      "start": 0.2146,
      "duration": 0.0017,
      "velocity": 100,
      "chip": "ym2612"
    },
    {
      "channel": 1,
      "note": 60,
      "start": 0.2146,
      "duration": 0.0018,
      "velocity": 100,
      "chip": "ym2612"
    },
    {
      "channel": 2,
      "note": 65,
      "start": 0.2146,
      "duration": 0.0018,
      "velocity": 100,
      "chip": "ym2612"
    },
    {
      "channel": 4,
      "note": 125,
      "start": 0.2162,
      "duration": 0.0007,
      "velocity": 127,
      "chip": "ym2612"
    },
    {
      "channel": 0,
      "note": 58,
      "start": 0.2166,
      "duration": 0.0147,
      "velocity": 100,
      "chip": "ym2612"
    },
    {
      "channel": 1,
      "note": 60,
      "start": 0.2166,
      "duration": 0.0148,
      "velocity": 100,
      "chip": "ym2612"
    },
    {
      "channel": 2,
      "note": 65,
      "start": 0.2166,
      "duration": 0.0149,
      "velocity": 100,
      "chip": "ym2612"
    },
    {
      "channel": 4,
      "note": 125,
      "start": 0.2273,
      "duration": 0.0016,
      "velocity": 127,
      "chip": "ym2612"
    },
    {
      "channel": 3,
      "note": 51,
      "start": 0.2277,
      "duration": 0.0036,
      "velocity": 113,
      "chip": "ym2612"
    },
    {
      "channel": 4,
      "note": 125,
      "start": 0.2313,
      "duration": 0.0007,
      "velocity": 127,
      "chip": "ym2612"
    },
    {
      "channel": 0,
      "note": 60,
      "start": 0.2317,
      "duration": 0.016,
      "velocity": 100,
      "chip": "ym2612"
    },
    {
      "channel": 3,
      "note": 48,
      "start": 0.2317,
      "duration": 0.012,
      "velocity": 113,
      "chip": "ym2612"
    },
    {
      "channel": 1,
      "note": 65,
      "start": 0.2318,
      "duration": 0.0161,
      "velocity": 100,
      "chip": "ym2612"
    },
    {
      "channel": 2,
      "note": 58,
      "start": 0.2318,
      "duration": 0.0161,
      "velocity": 100,
      "chip": "ym2612"
    },
    {
      "channel": 4,
      "note": 125,
      "start": 0.2438,
      "duration": 0.0017,
      "velocity": 127,
      "chip": "ym2612"
    },
    {
      "channel": 3,
      "note": 60,
      "start": 0.2441,
      "duration": 0.0036,
      "velocity": 113,
      "chip": "ym2612"
    },
    {
      "channel": 4,
      "note": 125,
      "start": 0.2478,
      "duration": 0.0007,
      "velocity": 127,
      "chip": "ym2612"
    },
    {
      "channel": 0,
      "note": 60,
      "start": 0.2482,
      "duration": 0.0068,
      "velocity": 100,
      "chip": "ym2612"
    },
    {
      "channel": 1,
      "note": 58,
      "start": 0.2482,
      "duration": 0.0068,
      "velocity": 100,
      "chip": "ym2612"
    },
    {
      "channel": 2,
      "note": 65,
      "start": 0.2482,
      "duration": 0.0069,
      "velocity": 100,
      "chip": "ym2612"
    },
    {
      "channel": 4,
      "note": 125,
      "start": 0.2549,
      "duration": 0.0007,
      "velocity": 127,
      "chip": "ym2612"
    },
    {
      "channel": 3,
      "note": 51,
      "start": 0.2553,
      "duration": 0.0014,
      "velocity": 113,
      "chip": "ym2612"
    },
    {
      "channel": 0,
      "note": 58,
      "start": 0.2554,
      "duration": 0.0478,
      "velocity": 100,
      "chip": "ym2612"
    },
    {
      "channel": 1,
      "note": 60,
      "start": 0.2554,
      "duration": 0.0479,
      "velocity": 100,
      "chip": "ym2612"
    },
    {
      "channel": 2,
      "note": 65,
      "start": 0.2554,
      "duration": 0.048,
      "velocity": 100,
      "chip": "ym2612"
    },
    {
      "channel": 4,
      "note": 125,
      "start": 0.2572,
      "duration": 0.0016,
      "velocity": 127,
      "chip": "ym2612"
    },
    {
      "channel": 3,
      "note": 48,
      "start": 0.2576,
      "duration": 0.0108,
      "velocity": 113,
      "chip": "ym2612"
    },
    {
      "channel": 4,
      "note": 125,
      "start": 0.2667,
      "duration": 0.0016,
      "velocity": 127,
      "chip": "ym2612"
    },
    {
      "channel": 4,
      "note": 125,
      "start": 0.2712,
      "duration": 0.0017,
      "velocity": 127,
      "chip": "ym2612"
    },
    {
      "channel": 3,
      "note": 48,
      "start": 0.2716,
      "duration": 0.0032,
      "velocity": 113,
      "chip": "ym2612"
    },
    {
      "channel": 4,
      "note": 125,
      "start": 0.2757,
      "duration": 0.0017,
      "velocity": 127,
      "chip": "ym2612"
    },
    {
      "channel": 3,
      "note": 51,
      "start": 0.2761,
      "duration": 0.0029,
      "velocity": 113,
      "chip": "ym2612"
    },
    {
      "channel": 4,
      "note": 125,
      "start": 0.28,
      "duration": 0.0017,
      "velocity": 127,
      "chip": "ym2612"
    },
    {
      "channel": 3,
      "note": 48,
      "start": 0.2804,
      "duration": 0.0032,
      "velocity": 113,
      "chip": "ym2612"
    },
    {
      "channel": 4,
      "note": 125,
      "start": 0.2846,
      "duration": 0.0017,
      "velocity": 127,
      "chip": "ym2612"
    },
    {
      "channel": 3,
      "note": 60,
      "start": 0.285,
      "duration": 0.005,
      "velocity": 113,
      "chip": "ym2612"
    },
    {
      "channel": 4,
      "note": 125,
      "start": 0.289,
      "duration": 0.0016,
      "velocity": 127,
      "chip": "ym2612"
    },
    {
      "channel": 4,
      "note": 125,
      "start": 0.2939,
      "duration": 0.0017,
      "velocity": 127,
      "chip": "ym2612"
    },
    {
      "channel": 3,
      "note": 51,
      "start": 0.2943,
      "duration": 0.0039,
      "velocity": 113,
      "chip": "ym2612"
    },
    {
      "channel": 4,
      "note": 125,
      "start": 0.2982,
      "duration": 0.0019,
      "velocity": 127,
      "chip": "ym2612"
    },
    {
      "channel": 3,
      "note": 60,
      "start": 0.2989,
      "duration": 0.0031,
      "velocity": 113,
      "chip": "ym2612"
    },
    {
      "channel": 0,
      "note": 56,
      "start": 0.3037,
      "duration": 0.0029,
      "velocity": 100,
      "chip": "ym2612"
    },
    {
      "channel": 3,
      "note": 48,
      "start": 0.3037,
      "duration": 0.0048,
      "velocity": 113,
      "chip": "ym2612"
    },
    {
      "channel": 4,
      "note": 125,
      "start": 0.3037,
      "duration": 0.0003,
      "velocity": 127,
      "chip": "ym2612"
    },
    {
      "channel": 1,
      "note": 58,
      "start": 0.3038,
      "duration": 0.0029,
      "velocity": 100,
      "chip": "ym2612"
    },
    {
      "channel": 2,
      "note": 63,
      "start": 0.3038,
      "duration": 0.003,
      "velocity": 100,
      "chip": "ym2612"
    },
    {
      "channel": 4,
      "note": 125,
      "start": 0.3066,
      "duration": 0.0007,
      "velocity": 127,
      "chip": "ym2612"
    },
    {
      "channel": 0,
      "note": 56,
      "start": 0.3071,
      "duration": 0.008,
      "velocity": 100,
      "chip": "ym2612"
    },
    {
      "channel": 1,
      "note": 58,
      "start": 0.3071,
      "duration": 0.008,
      "velocity": 100,
      "chip": "ym2612"
    },
    {
      "channel": 2,
      "note": 63,
      "start": 0.3071,
      "duration": 0.008,
      "velocity": 100,
      "chip": "ym2612"
    },
    {
      "channel": 4,
      "note": 125,
      "start": 0.3106,
      "duration": 0.0017,
      "velocity": 127,
      "chip": "ym2612"
    },
    {
      "channel": 3,
      "note": 51,
      "start": 0.311,
      "duration": 0.004,
      "velocity": 113,
      "chip": "ym2612"
    },
    {
      "channel": 4,
      "note": 125,
      "start": 0.315,
      "duration": 0.001,
      "velocity": 127,
      "chip": "ym2612"
    },
    {
      "channel": 0,
      "note": 58,
      "start": 0.3158,
      "duration": 0.0078,
      "velocity": 100,
      "chip": "ym2612"
    },
    {
      "channel": 3,
      "note": 48,
      "start": 0.3158,
      "duration": 0.0034,
      "velocity": 113,
      "chip": "ym2612"
    },
    {
      "channel": 1,
      "note": 63,
      "start": 0.3158,
      "duration": 0.0078,
      "velocity": 100,
      "chip": "ym2612"
    },
    {
      "channel": 2,
      "note": 56,
      "start": 0.3158,
      "duration": 0.0079,
      "velocity": 100,
      "chip": "ym2612"
    },
    {
      "channel": 4,
      "note": 125,
      "start": 0.3192,
      "duration": 0.0017,
      "velocity": 127,
      "chip": "ym2612"
    },
    {
      "channel": 3,
      "note": 60,
      "start": 0.3196,
      "duration": 0.0039,
      "velocity": 113,
      "chip": "ym2612"
    },
    {
      "channel": 4,
      "note": 125,
      "start": 0.3236,
      "duration": 0.001,
      "velocity": 127,
      "chip": "ym2612"
    },
    {
      "channel": 0,
      "note": 58,
      "start": 0.3243,
      "duration": 0.0034,
      "velocity": 100,
      "chip": "ym2612"
    },
    {
      "channel": 1,
      "note": 56,
      "start": 0.3243,
      "duration": 0.0034,
      "velocity": 100,
      "chip": "ym2612"
    },
    {
      "channel": 2,
      "note": 63,
      "start": 0.3243,
      "duration": 0.0035,
      "velocity": 100,
      "chip": "ym2612"
    },
    {
      "channel": 4,
      "note": 125,
      "start": 0.3276,
      "duration": 0.0007,
      "velocity": 127,
      "chip": "ym2612"
    },
    {
      "channel": 3,
      "note": 51,
      "start": 0.3281,
      "duration": 0.0014,
      "velocity": 113,
      "chip": "ym2612"
    },
    {
      "channel": 0,
      "note": 56,
      "start": 0.3281,
      "duration": 0.045,
      "velocity": 100,
      "chip": "ym2612"
    },
    {
      "channel": 1,
      "note": 58,
      "start": 0.3281,
      "duration": 0.045,
      "velocity": 100,
      "chip": "ym2612"
    },
    {
      "channel": 2,
      "note": 63,
      "start": 0.3281,
      "duration": 0.0451,
      "velocity": 100,
      "chip": "ym2612"
    },
    {
      "channel": 4,
      "note": 125,
      "start": 0.3312,
      "duration": 0.0018,
      "velocity": 127,
      "chip": "ym2612"
    },
    {
      "channel": 3,
      "note": 48,
      "start": 0.3317,
      "duration": 0.0057,
      "velocity": 113,
      "chip": "ym2612"
    },
    {
      "channel": 4,
      "note": 125,
      "start": 0.3358,
      "duration": 0.0017,
      "velocity": 127,
      "chip": "ym2612"
    },
    {
      "channel": 4,
      "note": 125,
      "start": 0.3402,
      "duration": 0.0018,
      "velocity": 127,
      "chip": "ym2612"
    },
    {
      "channel": 3,
      "note": 48,
      "start": 0.3408,
      "duration": 0.0032,
      "velocity": 113,
      "chip": "ym2612"
    },
    {
      "channel": 4,
      "note": 125,
      "start": 0.345,
      "duration": 0.0018,
      "velocity": 127,
      "chip": "ym2612"
    },
    {
      "channel": 3,
      "note": 51,
      "start": 0.3455,
      "duration": 0.0029,
      "velocity": 113,
      "chip": "ym2612"
    },
    {
      "channel": 4,
      "note": 125,
      "start": 0.3496,
      "duration": 0.002,
      "velocity": 127,
      "chip": "ym2612"
    },
    {
      "channel": 3,
      "note": 48,
      "start": 0.3504,
      "duration": 0.0032,
      "velocity": 113,
      "chip": "ym2612"
    },
    {
      "channel": 4,
      "note": 125,
      "start": 0.3546,
      "duration": 0.0017,
      "velocity": 127,
      "chip": "ym2612"
    },
    {
      "channel": 3,
      "note": 60,
      "start": 0.355,
      "duration": 0.005,
      "velocity": 113,
      "chip": "ym2612"
    },
    {
      "channel": 4,
      "note": 125,
      "start": 0.359,
      "duration": 0.0017,
      "velocity": 127,
      "chip": "ym2612"
    },
    {
      "channel": 4,
      "note": 125,
      "start": 0.3639,
      "duration": 0.0016,
      "velocity": 127,
      "chip": "ym2612"
    },
    {
      "channel": 3,
      "note": 51,
      "start": 0.3642,
      "duration": 0.0039,
      "velocity": 113,
      "chip": "ym2612"
    },
    {
      "channel": 4,
      "note": 125,
      "start": 0.3681,
      "duration": 0.0019,
      "velocity": 127,
      "chip": "ym2612"
    },
    {
      "channel": 3,
      "note": 60,
      "start": 0.3687,
      "duration": 0.0031,
      "velocity": 113,
      "chip": "ym2612"
    },
    {
      "channel": 3,
      "note": 48,
      "start": 0.3737,
      "duration": 0.0053,
      "velocity": 113,
      "chip": "ym2612"
    },
    {
      "channel": 4,
      "note": 125,
      "start": 0.3737,
      "duration": 0.0003,
      "velocity": 127,
      "chip": "ym2612"
    },
    {
      "channel": 0,
      "note": 70,
      "start": 0.3737,
      "duration": 0.0031,
      "velocity": 100,
      "chip": "ym2612"
    },
    {
      "channel": 1,
      "note": 72,
      "start": 0.3737,
      "duration": 0.0032,
      "velocity": 100,
      "chip": "ym2612"
    },
    {
      "channel": 2,
      "note": 77,
      "start": 0.3737,
      "duration": 0.0033,
      "velocity": 100,
      "chip": "ym2612"
    },
    {
      "channel": 4,
      "note": 125,
      "start": 0.3768,
      "duration": 0.0008,
      "velocity": 127,
      "chip": "ym2612"
    },
    {
      "channel": 0,
      "note": 70,
      "start": 0.3773,
      "duration": 0.0084,
      "velocity": 100,
      "chip": "ym2612"
    },
    {
      "channel": 1,
      "note": 72,
      "start": 0.3774,
      "duration": 0.0085,
      "velocity": 100,
      "chip": "ym2612"
    },
    {
      "channel": 2,
      "note": 77,
      "start": 0.3774,
      "duration": 0.0085,
      "velocity": 100,
      "chip": "ym2612"
    },
    {
      "channel": 4,
      "note": 125,
      "start": 0.381,
      "duration": 0.0018,
      "velocity": 127,
      "chip": "ym2612"
    },
    {
      "channel": 3,
      "note": 51,
      "start": 0.3815,
      "duration": 0.0042,
      "velocity": 113,
      "chip": "ym2612"
    },
    {
      "channel": 4,
      "note": 125,
      "start": 0.3858,
      "duration": 0.001,
      "velocity": 127,
      "chip": "ym2612"
    },
    {
      "channel": 0,
      "note": 72,
      "start": 0.3865,
      "duration": 0.0081,
      "velocity": 100,
      "chip": "ym2612"
    },
    {
      "channel": 3,
      "note": 48,
      "start": 0.3865,
      "duration": 0.0036,
      "velocity": 113,
      "chip": "ym2612"
    },
    {
      "channel": 1,
      "note": 77,
      "start": 0.3866,
      "duration": 0.0081,
      "velocity": 100,
      "chip": "ym2612"
    },
    {
      "channel": 2,
      "note": 70,
      "start": 0.3866,
      "duration": 0.0082,
      "velocity": 100,
      "chip": "ym2612"
    },
    {
      "channel": 4,
      "note": 125,
      "start": 0.3901,
      "duration": 0.0018,
      "velocity": 127,
      "chip": "ym2612"
    },
    {
      "channel": 3,
      "note": 60,
      "start": 0.3906,
      "duration": 0.0041,
      "velocity": 113,
      "chip": "ym2612"
    },
    {
      "channel": 4,
      "note": 125,
      "start": 0.3946,
      "duration": 0.0012,
      "velocity": 127,
      "chip": "ym2612"
    },
    {
      "channel": 0,
      "note": 72,
      "start": 0.3954,
      "duration": 0.0039,
      "velocity": 100,
      "chip": "ym2612"
    },
    {
      "channel": 1,
      "note": 70,
      "start": 0.3954,
      "duration": 0.0039,
      "velocity": 100,
      "chip": "ym2612"
    },
    {
      "channel": 2,
      "note": 77,
      "start": 0.3954,
      "duration": 0.004,
      "velocity": 100,
      "chip": "ym2612"
    },
    {
      "channel": 4,
      "note": 125,
      "start": 0.3992,
      "duration": 0.0009,
      "velocity": 127,
      "chip": "ym2612"
    },
    {
      "channel": 3,
      "note": 51,
      "start": 0.3998,
      "duration": 0.0016,
      "velocity": 113,
      "chip": "ym2612"
    },
    {
      "channel": 0,
      "note": 70,
      "start": 0.3998,
      "duration": 0.0487,
      "velocity": 100,
      "chip": "ym2612"
    },
    {
      "channel": 1,
      "note": 72,
      "start": 0.3998,
      "duration": 0.0488,
      "velocity": 100,
      "chip": "ym2612"
    },
    {
      "channel": 2,
      "note": 77,
      "start": 0.3998,
      "duration": 0.0488,
      "velocity": 100,
      "chip": "ym2612"
    },
    {
      "channel": 4,
      "note": 125,
      "start": 0.4032,
      "duration": 0.002,
      "velocity": 127,
      "chip": "ym2612"
    },
    {
      "channel": 3,
      "note": 48,
      "start": 0.4037,
      "duration": 0.0062,
      "velocity": 113,
      "chip": "ym2612"
    },
    {
      "channel": 4,
      "note": 125,
      "start": 0.4081,
      "duration": 0.0018,
      "velocity": 127,
      "chip": "ym2612"
    },
    {
      "channel": 4,
      "note": 125,
      "start": 0.4131,
      "duration": 0.002,
      "velocity": 127,
      "chip": "ym2612"
    },
    {
      "channel": 3,
      "note": 48,
      "start": 0.4137,
      "duration": 0.0034,
      "velocity": 113,
      "chip": "ym2612"
    },
    {
      "channel": 4,
      "note": 125,
      "start": 0.4182,
      "duration": 0.002,
      "velocity": 127,
      "chip": "ym2612"
    },
    {
      "channel": 3,
      "note": 51,
      "start": 0.4187,
      "duration": 0.0034,
      "velocity": 113,
      "chip": "ym2612"
    },
    {
      "channel": 4,
      "note": 125,
      "start": 0.4235,
      "duration": 0.0021,
      "velocity": 127,
      "chip": "ym2612"
    },
    {
      "channel": 3,
      "note": 48,
      "start": 0.4243,
      "duration": 0.0032,
      "velocity": 113,
      "chip": "ym2612"
    },
    {
      "channel": 4,
      "note": 125,
      "start": 0.4286,
      "duration": 0.0018,
      "velocity": 127,
      "chip": "ym2612"
    },
    {
      "channel": 3,
      "note": 60,
      "start": 0.429,
      "duration": 0.0055,
      "velocity": 113,
      "chip": "ym2612"
    },
    {
      "channel": 4,
      "note": 125,
      "start": 0.4334,
      "duration": 0.0018,
      "velocity": 127,
      "chip": "ym2612"
    },
    {
      "channel": 4,
      "note": 125,
      "start": 0.4385,
      "duration": 0.0017,
      "velocity": 127,
      "chip": "ym2612"
    },
    {
      "channel": 3,
      "note": 51,
      "start": 0.4389,
      "duration": 0.004,
      "velocity": 113,
      "chip": "ym2612"
    },
    {
      "channel": 4,
      "note": 125,
      "start": 0.4429,
      "duration": 0.0021,
      "velocity": 127,
      "chip": "ym2612"
    },
    {
      "channel": 3,
      "note": 60,
      "start": 0.4436,
      "duration": 0.0036,
      "velocity": 113,
      "chip": "ym2612"
    },
    {
      "channel": 0,
      "note": 68,
      "start": 0.449,
      "duration": 0.0032,
      "velocity": 100,
      "chip": "ym2612"
    },
    {
      "channel": 3,
      "note": 48,
      "start": 0.449,
      "duration": 0.0052,
      "velocity": 113,
      "chip": "ym2612"
    },
    {
      "channel": 4,
      "note": 125,
      "start": 0.449,
      "duration": 0.0003,
      "velocity": 127,
      "chip": "ym2612"
    },
    {
      "channel": 1,
      "note": 70,
      "start": 0.4491,
      "duration": 0.0032,
      "velocity": 100,
      "chip": "ym2612"
    },
    {
      "channel": 2,
      "note": 75,
      "start": 0.4491,
      "duration": 0.0032,
      "velocity": 100,
      "chip": "ym2612"
    },
    {
      "channel": 4,
      "note": 125,
      "start": 0.4522,
      "duration": 0.0008,
      "velocity": 127,
      "chip": "ym2612"
    },
    {
      "channel": 0,
      "note": 68,
      "start": 0.4527,
      "duration": 0.0082,
      "velocity": 100,
      "chip": "ym2612"
    },
    {
      "channel": 1,
      "note": 70,
      "start": 0.4527,
      "duration": 0.0082,
      "velocity": 100,
      "chip": "ym2612"
    },
    {
      "channel": 2,
      "note": 75,
      "start": 0.4527,
      "duration": 0.0083,
      "velocity": 100,
      "chip": "ym2612"
    },
    {
      "channel": 4,
      "note": 125,
      "start": 0.4564,
      "duration": 0.0017,
      "velocity": 127,
      "chip": "ym2612"
    },
    {
      "channel": 3,
      "note": 51,
      "start": 0.4568,
      "duration": 0.0041,
      "velocity": 113,
      "chip": "ym2612"
    },
    {
      "channel": 4,
      "note": 125,
      "start": 0.4609,
      "duration": 0.0011,
      "velocity": 127,
      "chip": "ym2612"
    },
    {
      "channel": 3,
      "note": 48,
      "start": 0.4618,
      "duration": 0.0036,
      "velocity": 113,
      "chip": "ym2612"
    },
    {
      "channel": 0,
      "note": 70,
      "start": 0.4618,
      "duration": 0.0081,
      "velocity": 100,
      "chip": "ym2612"
    },
    {
      "channel": 1,
      "note": 75,
      "start": 0.4618,
      "duration": 0.0082,
      "velocity": 100,
      "chip": "ym2612"
    },
    {
      "channel": 2,
      "note": 68,
      "start": 0.4618,
      "duration": 0.0083,
      "velocity": 100,
      "chip": "ym2612"
    },
    {
      "channel": 4,
      "note": 125,
      "start": 0.4654,
      "duration": 0.0018,
      "velocity": 127,
      "chip": "ym2612"
    },
    {
      "channel": 3,
      "note": 60,
      "start": 0.4659,
      "duration": 0.004,
      "velocity": 113,
      "chip": "ym2612"
    },
    {
      "channel": 4,
      "note": 125,
      "start": 0.4699,
      "duration": 0.0009,
      "velocity": 127,
      "chip": "ym2612"
    },
    {
      "channel": 0,
      "note": 70,
      "start": 0.4703,
      "duration": 0.0042,
      "velocity": 100,
      "chip": "ym2612"
    },
    {
      "channel": 1,
      "note": 68,
      "start": 0.4703,
      "duration": 0.0043,
      "velocity": 100,
      "chip": "ym2612"
    },
    {
      "channel": 2,
      "note": 75,
      "start": 0.4704,
      "duration": 0.0043,
      "velocity": 100,
      "chip": "ym2612"
    },
    {
      "channel": 4,
      "note": 125,
      "start": 0.4744,
      "duration": 0.0008,
      "velocity": 127,
      "chip": "ym2612"
    },
    {
      "channel": 0,
      "note": 68,
      "start": 0.4749,
      "duration": 0.048,
      "velocity": 100,
      "chip": "ym2612"
    },
    {
      "channel": 1,
      "note": 70,
      "start": 0.4749,
      "duration": 0.048,
      "velocity": 100,
      "chip": "ym2612"
    },
    {
      "channel": 3,
      "note": 51,
      "start": 0.4749,
      "duration": 0.0017,
      "velocity": 113,
      "chip": "ym2612"
    },
    {
      "channel": 2,
      "note": 75,
      "start": 0.475,
      "duration": 0.048,
      "velocity": 100,
      "chip": "ym2612"
    },
    {
      "channel": 4,
      "note": 125,
      "start": 0.4783,
      "duration": 0.0018,
      "velocity": 127,
      "chip": "ym2612"
    },
    {
      "channel": 3,
      "note": 48,
      "start": 0.4788,
      "duration": 0.0064,
      "velocity": 113,
      "chip": "ym2612"
    },
    {
      "channel": 4,
      "note": 125,
      "start": 0.4834,
      "duration": 0.0019,
      "velocity": 127,
      "chip": "ym2612"
    },
    {
      "channel": 4,
      "note": 125,
      "start": 0.4881,
      "duration": 0.0019,
      "velocity": 127,
      "chip": "ym2612"
    },
    {
      "channel": 3,
      "note": 48,
      "start": 0.4886,
      "duration": 0.0034,
      "velocity": 113,
      "chip": "ym2612"
    },
    {
      "channel": 4,
      "note": 125,
      "start": 0.4933,
      "duration": 0.0019,
      "velocity": 127,
      "chip": "ym2612"
    },
    {
      "channel": 3,
      "note": 51,
      "start": 0.4937,
      "duration": 0.0032,
      "velocity": 113,
      "chip": "ym2612"
    },
    {
      "channel": 4,
      "note": 125,
      "start": 0.4981,
      "duration": 0.0021,
      "velocity": 127,
      "chip": "ym2612"
    },
    {
      "channel": 3,
      "note": 48,
      "start": 0.499,
      "duration": 0.0032,
      "velocity": 113,
      "chip": "ym2612"
    },
    {
      "channel": 4,
      "note": 125,
      "start": 0.5033,
      "duration": 0.0018,
      "velocity": 127,
      "chip": "ym2612"
    },
    {
      "channel": 3,
      "note": 60,
      "start": 0.5037,
      "duration": 0.0055,
      "velocity": 113,
      "chip": "ym2612"
    },
    {
      "channel": 4,
      "note": 125,
      "start": 0.508,
      "duration": 0.0018,
      "velocity": 127,
      "chip": "ym2612"
    },
    {
      "channel": 4,
      "note": 125,
      "start": 0.513,
      "duration": 0.0018,
      "velocity": 127,
      "chip": "ym2612"
    },
    {
      "channel": 3,
      "note": 51,
      "start": 0.5134,
      "duration": 0.0042,
      "velocity": 113,
      "chip": "ym2612"
    },
    {
      "channel": 4,
      "note": 125,
      "start": 0.5176,
      "duration": 0.0019,
      "velocity": 127,
      "chip": "ym2612"
    },
    {
      "channel": 3,
      "note": 60,
      "start": 0.518,
      "duration": 0.0037,
      "velocity": 113,
      "chip": "ym2612"
    },
    {
      "channel": 3,
      "note": 48,
      "start": 0.5236,
      "duration": 0.0054,
      "velocity": 113,
      "chip": "ym2612"
    },
    {
      "channel": 4,
      "note": 125,
      "start": 0.5236,
      "duration": 0.0003,
      "velocity": 127,
      "chip": "ym2612"
    },
    {
      "channel": 0,
      "note": 70,
      "start": 0.5236,
      "duration": 0.0031,
      "velocity": 100,
      "chip": "ym2612"
    },
    {
      "channel": 1,
      "note": 72,
      "start": 0.5236,
      "duration": 0.0032,
      "velocity": 100,
      "chip": "ym2612"
    },
    {
      "channel": 2,
      "note": 77,
      "start": 0.5236,
      "duration": 0.0033,
      "velocity": 100,
      "chip": "ym2612"
    },
    {
      "channel": 4,
      "note": 125,
      "start": 0.5267,
      "duration": 0.0009,
      "velocity": 127,
      "chip": "ym2612"
    },
    {
      "channel": 0,
      "note": 70,
      "start": 0.5274,
      "duration": 0.0083,
      "velocity": 100,
      "chip": "ym2612"
    },
    {
      "channel": 1,
      "note": 72,
      "start": 0.5274,
      "duration": 0.0084,
      "velocity": 100,
      "chip": "ym2612"
    },
    {
      "channel": 2,
      "note": 77,
      "start": 0.5274,
      "duration": 0.0085,
      "velocity": 100,
      "chip": "ym2612"
    },
    {
      "channel": 4,
      "note": 125,
      "start": 0.531,
      "duration": 0.0017,
      "velocity": 127,
      "chip": "ym2612"
    },
    {
      "channel": 3,
      "note": 51,
      "start": 0.5315,
      "duration": 0.0042,
      "velocity": 113,
      "chip": "ym2612"
    },
    {
      "channel": 4,
      "note": 125,
      "start": 0.5357,
      "duration": 0.0009,
      "velocity": 127,
      "chip": "ym2612"
    },
    {
      "channel": 0,
      "note": 72,
      "start": 0.5363,
      "duration": 0.0083,
      "velocity": 100,
      "chip": "ym2612"
    },
    {
      "channel": 3,
      "note": 48,
      "start": 0.5363,
      "duration": 0.0037,
      "velocity": 113,
      "chip": "ym2612"
    },
    {
      "channel": 1,
      "note": 77,
      "start": 0.5364,
      "duration": 0.0083,
      "velocity": 100,
      "chip": "ym2612"
    },
    {
      "channel": 2,
      "note": 70,
      "start": 0.5364,
      "duration": 0.0084,
      "velocity": 100,
      "chip": "ym2612"
    },
    {
      "channel": 4,
      "note": 125,
      "start": 0.5402,
      "duration": 0.0018,
      "velocity": 127,
      "chip": "ym2612"
    },
    {
      "channel": 3,
      "note": 60,
      "start": 0.5406,
      "duration": 0.004,
      "velocity": 113,
      "chip": "ym2612"
    },
    {
      "channel": 4,
      "note": 125,
      "start": 0.5446,
      "duration": 0.0008,
      "velocity": 127,
      "chip": "ym2612"
    },
    {
      "channel": 0,
      "note": 72,
      "start": 0.5451,
      "duration": 0.0023,
      "velocity": 100,
      "chip": "ym2612"
    },
    {
      "channel": 1,
      "note": 70,
      "start": 0.5451,
      "duration": 0.0024,
      "velocity": 100,
      "chip": "ym2612"
    },
    {
      "channel": 2,
      "note": 77,
      "start": 0.5451,
      "duration": 0.0024,
      "velocity": 100,
      "chip": "ym2612"
    },
    {
      "channel": 4,
      "note": 125,
      "start": 0.5473,
      "duration": 0.0008,
      "velocity": 127,
      "chip": "ym2612"
    },
    {
      "channel": 3,
      "note": 51,
      "start": 0.5478,
      "duration": 0.0017,
      "velocity": 113,
      "chip": "ym2612"
    },
    {
      "channel": 0,
      "note": 70,
      "start": 0.5478,
      "duration": 0.0476,
      "velocity": 100,
      "chip": "ym2612"
    },
    {
      "channel": 1,
      "note": 72,
      "start": 0.5478,
      "duration": 0.0477,
      "velocity": 100,
      "chip": "ym2612"
    },
    {
      "channel": 2,
      "note": 77,
      "start": 0.5478,
      "duration": 0.0478,
      "velocity": 100,
      "chip": "ym2612"
    },
    {
      "channel": 4,
      "note": 125,
      "start": 0.5512,
      "duration": 0.0019,
      "velocity": 127,
      "chip": "ym2612"
    },
    {
      "channel": 3,
      "note": 48,
      "start": 0.5517,
      "duration": 0.0065,
      "velocity": 113,
      "chip": "ym2612"
    },
    {
      "channel": 4,
      "note": 125,
      "start": 0.5563,
      "duration": 0.0019,
      "velocity": 127,
      "chip": "ym2612"
    },
    {
      "channel": 4,
      "note": 125,
      "start": 0.5612,
      "duration": 0.0018,
      "velocity": 127,
      "chip": "ym2612"
    },
    {
      "channel": 3,
      "note": 48,
      "start": 0.5616,
      "duration": 0.0033,
      "velocity": 113,
      "chip": "ym2612"
    },
    {
      "channel": 4,
      "note": 125,
      "start": 0.5661,
      "duration": 0.0018,
      "velocity": 127,
      "chip": "ym2612"
    },
    {
      "channel": 3,
      "note": 51,
      "start": 0.5665,
      "duration": 0.0031,
      "velocity": 113,
      "chip": "ym2612"
    },
    {
      "channel": 4,
      "note": 125,
      "start": 0.5709,
      "duration": 0.0019,
      "velocity": 127,
      "chip": "ym2612"
    },
    {
      "channel": 3,
      "note": 48,
      "start": 0.5714,
      "duration": 0.0032,
      "velocity": 113,
      "chip": "ym2612"
    },
    {
      "channel": 4,
      "note": 125,
      "start": 0.5756,
      "duration": 0.002,
      "velocity": 127,
      "chip": "ym2612"
    },
    {
      "channel": 3,
      "note": 60,
      "start": 0.5762,
      "duration": 0.0056,
      "velocity": 113,
      "chip": "ym2612"
    },
    {
      "channel": 4,
      "note": 125,
      "start": 0.5807,
      "duration": 0.0018,
      "velocity": 127,
      "chip": "ym2612"
    },
    {
      "channel": 4,
      "note": 125,
      "start": 0.5856,
      "duration": 0.0017,
      "velocity": 127,
      "chip": "ym2612"
    },
    {
      "channel": 3,
      "note": 51,
      "start": 0.586,
      "duration": 0.0041,
      "velocity": 113,
      "chip": "ym2612"
    },
    {
      "channel": 4,
      "note": 125,
      "start": 0.59,
      "duration": 0.002,
      "velocity": 127,
      "chip": "ym2612"
    },
    {
      "channel": 3,
      "note": 60,
      "start": 0.5906,
      "duration": 0.0036,
      "velocity": 113,
      "chip": "ym2612"
    },
    {
      "channel": 3,
      "note": 48,
      "start": 0.596,
      "duration": 0.0055,
      "velocity": 113,
      "chip": "ym2612"
    },
    {
      "channel": 0,
      "note": 68,
      "start": 0.596,
      "duration": 0.0033,
      "velocity": 100,
      "chip": "ym2612"
    },
    {
      "channel": 1,
      "note": 70,
      "start": 0.596,
      "duration": 0.0034,
      "velocity": 100,
      "chip": "ym2612"
    },
    {
      "channel": 4,
      "note": 125,
      "start": 0.596,
      "duration": 0.0003,
      "velocity": 127,
      "chip": "ym2612"
    },
    {
      "channel": 2,
      "note": 75,
      "start": 0.5961,
      "duration": 0.0034,
      "velocity": 100,
      "chip": "ym2612"
    },
    {
      "channel": 4,
      "note": 125,
      "start": 0.5994,
      "duration": 0.0008,
      "velocity": 127,
      "chip": "ym2612"
    },
    {
      "channel": 0,
      "note": 68,
      "start": 0.5999,
      "duration": 0.0083,
      "velocity": 100,
      "chip": "ym2612"
    },
    {
      "channel": 1,
      "note": 70,
      "start": 0.6,
      "duration": 0.0083,
      "velocity": 100,
      "chip": "ym2612"
    },
    {
      "channel": 2,
      "note": 75,
      "start": 0.6,
      "duration": 0.0084,
      "velocity": 100,
      "chip": "ym2612"
    },
    {
      "channel": 4,
      "note": 125,
      "start": 0.6036,
      "duration": 0.0017,
      "velocity": 127,
      "chip": "ym2612"
    },
    {
      "channel": 3,
      "note": 51,
      "start": 0.6041,
      "duration": 0.0042,
      "velocity": 113,
      "chip": "ym2612"
    },
    {
      "channel": 4,
      "note": 125,
      "start": 0.6083,
      "duration": 0.0009,
      "velocity": 127,
      "chip": "ym2612"
    },
    {
      "channel": 0,
      "note": 70,
      "start": 0.6089,
      "duration": 0.0084,
      "velocity": 100,
      "chip": "ym2612"
    },
    {
      "channel": 1,
      "note": 75,
      "start": 0.6089,
      "duration": 0.0085,
      "velocity": 100,
      "chip": "ym2612"
    },
    {
      "channel": 3,
      "note": 48,
      "start": 0.6089,
      "duration": 0.0037,
      "velocity": 113,
      "chip": "ym2612"
    },
    {
      "channel": 2,
      "note": 68,
      "start": 0.6089,
      "duration": 0.0085,
      "velocity": 100,
      "chip": "ym2612"
    },
    {
      "channel": 4,
      "note": 125,
      "start": 0.6126,
      "duration": 0.0019,
      "velocity": 127,
      "chip": "ym2612"
    },
    {
      "channel": 3,
      "note": 60,
      "start": 0.6132,
      "duration": 0.004,
      "velocity": 113,
      "chip": "ym2612"
    },
    {
      "channel": 4,
      "note": 125,
      "start": 0.6173,
      "duration": 0.0009,
      "velocity": 127,
      "chip": "ym2612"
    },
    {
      "channel": 0,
      "note": 70,
      "start": 0.6178,
      "duration": 0.004,
      "velocity": 100,
      "chip": "ym2612"
    },
    {
      "channel": 1,
      "note": 68,
      "start": 0.6178,
      "duration": 0.004,
      "velocity": 100,
      "chip": "ym2612"
    },
    {
      "channel": 2,
      "note": 75,
      "start": 0.6178,
      "duration": 0.0041,
      "velocity": 100,
      "chip": "ym2612"
    },
    {
      "channel": 4,
      "note": 125,
      "start": 0.6217,
      "duration": 0.0008,
      "velocity": 127,
      "chip": "ym2612"
    },
    {
      "channel": 0,
      "note": 68,
      "start": 0.6222,
      "duration": 0.0481,
      "velocity": 100,
      "chip": "ym2612"
    },
    {
      "channel": 1,
      "note": 70,
      "start": 0.6222,
      "duration": 0.0488,
      "velocity": 100,
      "chip": "ym2612"
    },
    {
      "channel": 3,
      "note": 51,
      "start": 0.6222,
      "duration": 0.0017,
      "velocity": 113,
      "chip": "ym2612"
    },
    {
      "channel": 2,
      "note": 75,
      "start": 0.6223,
      "duration": 0.0493,
      "velocity": 100,
      "chip": "ym2612"
    },
    {
      "channel": 4,
      "note": 125,
      "start": 0.6256,
      "duration": 0.0017,
      "velocity": 127,
      "chip": "ym2612"
    },
    {
      "channel": 3,
      "note": 48,
      "start": 0.6261,
      "duration": 0.0062,
      "velocity": 113,
      "chip": "ym2612"
    },
    {
      "channel": 4,
      "note": 125,
      "start": 0.6306,
      "duration": 0.0017,
      "velocity": 127,
      "chip": "ym2612"
    },
    {
      "channel": 4,
      "note": 125,
      "start": 0.6354,
      "duration": 0.0017,
      "velocity": 127,
      "chip": "ym2612"
    },
    {
      "channel": 3,
      "note": 48,
      "start": 0.6358,
      "duration": 0.0033,
      "velocity": 113,
      "chip": "ym2612"
    },
    {
      "channel": 4,
      "note": 125,
      "start": 0.6403,
      "duration": 0.0019,
      "velocity": 127,
      "chip": "ym2612"
    },
    {
      "channel": 3,
      "note": 51,
      "start": 0.6408,
      "duration": 0.0031,
      "velocity": 113,
      "chip": "ym2612"
    },
    {
      "channel": 4,
      "note": 125,
      "start": 0.6451,
      "duration": 0.0019,
      "velocity": 127,
      "chip": "ym2612"
    },
    {
      "channel": 3,
      "note": 48,
      "start": 0.6457,
      "duration": 0.0032,
      "velocity": 113,
      "chip": "ym2612"
    },
    {
      "channel": 4,
      "note": 125,
      "start": 0.6497,
      "duration": 0.002,
      "velocity": 127,
      "chip": "ym2612"
    },
    {
      "channel": 3,
      "note": 60,
      "start": 0.6501,
      "duration": 0.0059,
      "velocity": 113,
      "chip": "ym2612"
    },
    {
      "channel": 4,
      "note": 125,
      "start": 0.6548,
      "duration": 0.0018,
      "velocity": 127,
      "chip": "ym2612"
    },
    {
      "channel": 4,
      "note": 125,
      "start": 0.6599,
      "duration": 0.0019,
      "velocity": 127,
      "chip": "ym2612"
    },
    {
      "channel": 3,
      "note": 51,
      "start": 0.6604,
      "duration": 0.0041,
      "velocity": 113,
      "chip": "ym2612"
    },
    {
      "channel": 4,
      "note": 125,
      "start": 0.6645,
      "duration": 0.0021,
      "velocity": 127,
      "chip": "ym2612"
    },
    {
      "channel": 3,
      "note": 60,
      "start": 0.665,
      "duration": 0.0037,
      "velocity": 113,
      "chip": "ym2612"
    },
    {
      "channel": 4,
      "note": 125,
      "start": 0.6725,
      "duration": 0.0008,
      "velocity": 127,
      "chip": "ym2612"
    },
    {
      "channel": 0,
      "note": 79,
      "start": 0.6729,
      "duration": 0.001,
      "velocity": 91,
      "chip": "ym2612"
    },
    {
      "channel": 1,
      "note": 76,
      "start": 0.673,
      "duration": 0.0011,
      "velocity": 91,
      "chip": "ym2612"
    },
    {
      "channel": 2,
      "note": 64,
      "start": 0.673,
      "duration": 0.0107,
      "velocity": 101,
      "chip": "ym2612"
    },
    {
      "channel": 4,
      "note": 125,
      "start": 0.6745,
      "duration": 0.0005,
      "velocity": 127,
      "chip": "ym2612"
    },
    {
      "channel": 0,
      "note": 80,
      "start": 0.6745,
      "duration": 0.0009,
      "velocity": 93,
      "chip": "ym2612"
    },
    {
      "channel": 1,
      "note": 77,
      "start": 0.6745,
      "duration": 0.001,
      "velocity": 93,
      "chip": "ym2612"
    },
    {
      "channel": 0,
      "note": 79,
      "start": 0.6759,
      "duration": 0.0029,
      "velocity": 95,
      "chip": "ym2612"
    },
    {
      "channel": 1,
      "note": 76,
      "start": 0.6759,
      "duration": 0.003,
      "velocity": 95,
      "chip": "ym2612"
    },
    {
      "channel": 0,
      "note": 80,
      "start": 0.6793,
      "duration": 0.004,
      "velocity": 97,
      "chip": "ym2612"
    },
    {
      "channel": 1,
      "note": 77,
      "start": 0.6793,
      "duration": 0.0042,
      "velocity": 97,
      "chip": "ym2612"
    },
    {
      "channel": 4,
      "note": 125,
      "start": 0.6793,
      "duration": 0.0015,
      "velocity": 127,
      "chip": "ym2612"
    },
    {
      "channel": 0,
      "note": 79,
      "start": 0.6841,
      "duration": 0.0008,
      "velocity": 99,
      "chip": "ym2612"
    },
    {
      "channel": 1,
      "note": 76,
      "start": 0.6841,
      "duration": 0.0009,
      "velocity": 99,
      "chip": "ym2612"
    },
    {
      "channel": 2,
      "note": 64,
      "start": 0.6841,
      "duration": 0.0025,
      "velocity": 101,
      "chip": "ym2612"
    },
    {
      "channel": 0,
      "note": 80,
      "start": 0.6855,
      "duration": 0.0009,
      "velocity": 101,
      "chip": "ym2612"
    },
    {
      "channel": 1,
      "note": 77,
      "start": 0.6855,
      "duration": 0.001,
      "velocity": 101,
      "chip": "ym2612"
    },
    {
      "channel": 4,
      "note": 125,
      "start": 0.6855,
      "duration": 0.0004,
      "velocity": 127,
      "chip": "ym2612"
    },
    {
      "channel": 0,
      "note": 79,
      "start": 0.6869,
      "duration": 0.0007,
      "velocity": 103,
      "chip": "ym2612"
    },
    {
      "channel": 1,
      "note": 76,
      "start": 0.6869,
      "duration": 0.0008,
      "velocity": 103,
      "chip": "ym2612"
    },
    {
      "channel": 2,
      "note": 64,
      "start": 0.6869,
      "duration": 0.001,
      "velocity": 101,
      "chip": "ym2612"
    },
    {
      "channel": 0,
      "note": 80,
      "start": 0.6883,
      "duration": 0.0008,
      "velocity": 104,
      "chip": "ym2612"
    },
    {
      "channel": 1,
      "note": 77,
      "start": 0.6883,
      "duration": 0.031,
      "velocity": 104,
      "chip": "ym2612"
    },
    {
      "channel": 4,
      "note": 125,
      "start": 0.6883,
      "duration": 0.0004,
      "velocity": 127,
      "chip": "ym2612"
    },
    {
      "channel": 2,
      "note": 65,
      "start": 0.6884,
      "duration": 0.031,
      "velocity": 101,
      "chip": "ym2612"
    },
    {
      "channel": 0,
      "note": 72,
      "start": 0.6917,
      "duration": 0.0293,
      "velocity": 119,
      "chip": "ym2612"
    },
    {
      "channel": 4,
      "note": 125,
      "start": 0.6928,
      "duration": 0.0017,
      "velocity": 127,
      "chip": "ym2612"
    },
    {
      "channel": 4,
      "note": 125,
      "start": 0.6969,
      "duration": 0.0015,
      "velocity": 127,
      "chip": "ym2612"
    },
    {
      "channel": 4,
      "note": 125,
      "start": 0.7049,
      "duration": 0.0015,
      "velocity": 127,
      "chip": "ym2612"
    },
    {
      "channel": 4,
      "note": 125,
      "start": 0.7088,
      "duration": 0.0015,
      "velocity": 127,
      "chip": "ym2612"
    },
    {
      "channel": 4,
      "note": 125,
      "start": 0.7126,
      "duration": 0.0015,
      "velocity": 127,
      "chip": "ym2612"
    },
    {
      "channel": 4,
      "note": 125,
      "start": 0.7163,
      "duration": 0.0015,
      "velocity": 127,
      "chip": "ym2612"
    },
    {
      "channel": 4,
      "note": 125,
      "start": 0.7222,
      "duration": 0.0007,
      "velocity": 127,
      "chip": "ym2612"
    },
    {
      "channel": 1,
      "note": 80,
      "start": 0.7223,
      "duration": 0.0012,
      "velocity": 91,
      "chip": "ym2612"
    },
    {
      "channel": 2,
      "note": 68,
      "start": 0.7223,
      "duration": 0.0104,
      "velocity": 101,
      "chip": "ym2612"
    },
    {
      "channel": 0,
      "note": 83,
      "start": 0.7225,
      "duration": 0.0009,
      "velocity": 91,
      "chip": "ym2612"
    },
    {
      "channel": 0,
      "note": 84,
      "start": 0.724,
      "duration": 0.0009,
      "velocity": 93,
      "chip": "ym2612"
    },
    {
      "channel": 4,
      "note": 125,
      "start": 0.724,
      "duration": 0.0005,
      "velocity": 127,
      "chip": "ym2612"
    },
    {
      "channel": 1,
      "note": 81,
      "start": 0.724,
      "duration": 0.0011,
      "velocity": 93,
      "chip": "ym2612"
    },
    {
      "channel": 0,
      "note": 83,
      "start": 0.7254,
      "duration": 0.0029,
      "velocity": 95,
      "chip": "ym2612"
    },
    {
      "channel": 1,
      "note": 80,
      "start": 0.7254,
      "duration": 0.0031,
      "velocity": 95,
      "chip": "ym2612"
    },
    {
      "channel": 0,
      "note": 84,
      "start": 0.729,
      "duration": 0.0035,
      "velocity": 97,
      "chip": "ym2612"
    },
    {
      "channel": 1,
      "note": 81,
      "start": 0.729,
      "duration": 0.0036,
      "velocity": 97,
      "chip": "ym2612"
    },
    {
      "channel": 4,
      "note": 125,
      "start": 0.729,
      "duration": 0.0013,
      "velocity": 127,
      "chip": "ym2612"
    },
    {
      "channel": 0,
      "note": 83,
      "start": 0.733,
      "duration": 0.0008,
      "velocity": 99,
      "chip": "ym2612"
    },
    {
      "channel": 1,
      "note": 80,
      "start": 0.733,
      "duration": 0.001,
      "velocity": 99,
      "chip": "ym2612"
    },
    {
      "channel": 2,
      "note": 68,
      "start": 0.7331,
      "duration": 0.0026,
      "velocity": 101,
      "chip": "ym2612"
    },
    {
      "channel": 0,
      "note": 84,
      "start": 0.7344,
      "duration": 0.001,
      "velocity": 101,
      "chip": "ym2612"
    },
    {
      "channel": 4,
      "note": 125,
      "start": 0.7344,
      "duration": 0.0005,
      "velocity": 127,
      "chip": "ym2612"
    },
    {
      "channel": 1,
      "note": 81,
      "start": 0.7344,
      "duration": 0.0011,
      "velocity": 101,
      "chip": "ym2612"
    },
    {
      "channel": 0,
      "note": 83,
      "start": 0.7361,
      "duration": 0.0007,
      "velocity": 103,
      "chip": "ym2612"
    },
    {
      "channel": 1,
      "note": 80,
      "start": 0.7361,
      "duration": 0.001,
      "velocity": 103,
      "chip": "ym2612"
    },
    {
      "channel": 2,
      "note": 68,
      "start": 0.7361,
      "duration": 0.001,
      "velocity": 101,
      "chip": "ym2612"
    },
    {
      "channel": 0,
      "note": 84,
      "start": 0.7376,
      "duration": 0.0009,
      "velocity": 104,
      "chip": "ym2612"
    },
    {
      "channel": 4,
      "note": 125,
      "start": 0.7376,
      "duration": 0.0005,
      "velocity": 127,
      "chip": "ym2612"
    },
    {
      "channel": 1,
      "note": 81,
      "start": 0.7376,
      "duration": 0.0317,
      "velocity": 104,
      "chip": "ym2612"
    },
    {
      "channel": 2,
      "note": 69,
      "start": 0.7376,
      "duration": 0.0317,
      "velocity": 101,
      "chip": "ym2612"
    },
    {
      "channel": 0,
      "note": 72,
      "start": 0.7409,
      "duration": 0.0288,
      "velocity": 119,
      "chip": "ym2612"
    },
    {
      "channel": 4,
      "note": 125,
      "start": 0.7418,
      "duration": 0.0015,
      "velocity": 127,
      "chip": "ym2612"
    },
    {
      "channel": 4,
      "note": 125,
      "start": 0.7459,
      "duration": 0.0014,
      "velocity": 127,
      "chip": "ym2612"
    },
    {
      "channel": 4,
      "note": 125,
      "start": 0.7541,
      "duration": 0.0016,
      "velocity": 127,
      "chip": "ym2612"
    },
    {
      "channel": 4,
      "note": 125,
      "start": 0.7581,
      "duration": 0.0017,
      "velocity": 127,
      "chip": "ym2612"
    },
    {
      "channel": 4,
      "note": 125,
      "start": 0.7621,
      "duration": 0.0016,
      "velocity": 127,
      "chip": "ym2612"
    },
    {
      "channel": 4,
      "note": 125,
      "start": 0.7661,
      "duration": 0.0016,
      "velocity": 127,
      "chip": "ym2612"
    },
    {
      "channel": 3,
      "note": 48,
      "start": 0.7706,
      "duration": 0.0106,
      "velocity": 113,
      "chip": "ym2612"
    },
    {
      "channel": 0,
      "note": 72,
      "start": 0.771,
      "duration": 0.0889,
      "velocity": 101,
      "chip": "ym2612"
    },
    {
      "channel": 4,
      "note": 125,
      "start": 0.7743,
      "duration": 0.0016,
      "velocity": 127,
      "chip": "ym2612"
    },
    {
      "channel": 4,
      "note": 125,
      "start": 0.7816,
      "duration": 0.0017,
      "velocity": 127,
      "chip": "ym2612"
    },
    {
      "channel": 3,
      "note": 51,
      "start": 0.782,
      "duration": 0.004,
      "velocity": 113,
      "chip": "ym2612"
    },
    {
      "channel": 4,
      "note": 125,
      "start": 0.7859,
      "duration": 0.0019,
      "velocity": 127,
      "chip": "ym2612"
    },
    {
      "channel": 3,
      "note": 48,
      "start": 0.7864,
      "duration": 0.01,
      "velocity": 113,
      "chip": "ym2612"
    },
    {
      "channel": 4,
      "note": 125,
      "start": 0.7964,
      "duration": 0.0019,
      "velocity": 127,
      "chip": "ym2612"
    },
    {
      "channel": 3,
      "note": 60,
      "start": 0.7968,
      "duration": 0.0042,
      "velocity": 113,
      "chip": "ym2612"
    },
    {
      "channel": 4,
      "note": 125,
      "start": 0.8011,
      "duration": 0.0018,
      "velocity": 127,
      "chip": "ym2612"
    },
    {
      "channel": 4,
      "note": 125,
      "start": 0.8079,
      "duration": 0.0019,
      "velocity": 127,
      "chip": "ym2612"
    },
    {
      "channel": 3,
      "note": 51,
      "start": 0.8084,
      "duration": 0.0037,
      "velocity": 113,
      "chip": "ym2612"
    },
    {
      "channel": 4,
      "note": 125,
      "start": 0.8125,
      "duration": 0.0018,
      "velocity": 127,
      "chip": "ym2612"
    },
    {
      "channel": 3,
      "note": 48,
      "start": 0.8129,
      "duration": 0.0074,
      "velocity": 113,
      "chip": "ym2612"
    },
    {
      "channel": 4,
      "note": 125,
      "start": 0.8186,
      "duration": 0.0017,
      "velocity": 127,
      "chip": "ym2612"
    },
    {
      "channel": 4,
      "note": 125,
      "start": 0.8233,
      "duration": 0.002,
      "velocity": 127,
      "chip": "ym2612"
    },
    {
      "channel": 3,
      "note": 48,
      "start": 0.8238,
      "duration": 0.0037,
      "velocity": 113,
      "chip": "ym2612"
    },
    {
      "channel": 4,
      "note": 125,
      "start": 0.8286,
      "duration": 0.002,
      "velocity": 127,
      "chip": "ym2612"
    },
    {
      "channel": 3,
      "note": 51,
      "start": 0.8291,
      "duration": 0.0034,
      "velocity": 113,
      "chip": "ym2612"
    },
    {
      "channel": 4,
      "note": 125,
      "start": 0.8337,
      "duration": 0.002,
      "velocity": 127,
      "chip": "ym2612"
    },
    {
      "channel": 3,
      "note": 48,
      "start": 0.8342,
      "duration": 0.0038,
      "velocity": 113,
      "chip": "ym2612"
    },
    {
      "channel": 4,
      "note": 125,
      "start": 0.8391,
      "duration": 0.0019,
      "velocity": 127,
      "chip": "ym2612"
    },
    {
      "channel": 3,
      "note": 60,
      "start": 0.8395,
      "duration": 0.0057,
      "velocity": 113,
      "chip": "ym2612"
    },
    {
      "channel": 4,
      "note": 125,
      "start": 0.8441,
      "duration": 0.0018,
      "velocity": 127,
      "chip": "ym2612"
    },
    {
      "channel": 4,
      "note": 125,
      "start": 0.8494,
      "duration": 0.0018,
      "velocity": 127,
      "chip": "ym2612"
    },
    {
      "channel": 3,
      "note": 51,
      "start": 0.8498,
      "duration": 0.0042,
      "velocity": 113,
      "chip": "ym2612"
    },
    {
      "channel": 4,
      "note": 125,
      "start": 0.8541,
      "duration": 0.0022,
      "velocity": 127,
      "chip": "ym2612"
    },
    {
      "channel": 3,
      "note": 60,
      "start": 0.8547,
      "duration": 0.0038,
      "velocity": 113,
      "chip": "ym2612"
    }
  ]
}