{
  "track_name": "13 - Ending Theme",
  "duration_sec": 58.043,
  "sample_rate": 44100,
  "note_count": 1088,
  "unique_pitches": 32,
  "pitch_range": 36,
  "avg_note_duration": 0.2951,
  "reconstruction_stats": {
    "notes_reconstructed": 1088,
    "keyon_events": 1088,
    "keyoff_events": 1085,
    "orphan_keyons": 3,
    "unique_pitches": 32,
    "pitch_range": 36,
    "avg_duration_sec": 0.2951
  },
  "metadata": {
    "source": "D\\Double Dragon II - The Revenge\\13 - Ending Theme.vgm"
  },
  "notes": [
    {
      "channel": 0,
      "note": 50,
      "start": 0.0,
      "duration": 2.9471,
      "velocity": 103,
      "chip": "ym2612"
    },
    {
      "channel": 1,
      "note": 64,
      "start": 0.0026,
      "duration": 0.5882,
      "velocity": 127,
      "chip": "ym2612"
    },
    {
      "channel": 2,
      "note": 62,
      "start": 0.005,
      "duration": 0.1172,
      "velocity": 113,
      "chip": "ym2612"
    },
    {
      "channel": 3,
      "note": 69,
      "start": 0.0092,
      "duration": 0.1144,
      "velocity": 113,
      "chip": "ym2612"
    },
    {
      "channel": 4,
      "note": 61,
      "start": 0.0114,
      "duration": 0.8284,
      "velocity": 97,
      "chip": "ym2612"
    },
    {
      "channel": 2,
      "note": 66,
      "start": 0.1471,
      "duration": 0.1232,
      "velocity": 113,
      "chip": "ym2612"
    },
    {
      "channel": 3,
      "note": 62,
      "start": 0.1488,
      "duration": 0.1231,
      "velocity": 113,
      "chip": "ym2612"
    },
    {
      "channel": 5,
      "note": 50,
      "start": 0.2261,
      "duration": 2.946,
      "velocity": 103,
      "chip": "ym2612"
    },
    {
      "channel": 2,
      "note": 69,
      "start": 0.2953,
      "duration": 0.1235,
      "velocity": 113,
      "chip": "ym2612"
    },
    {
      "channel": 3,
      "note": 73,
      "start": 0.2984,
      "duration": 0.1221,
      "velocity": 113,
      "chip": "ym2612"
    },
    {
      "channel": 2,
      "note": 73,
      "start": 0.4433,
      "duration": 0.1232,
      "velocity": 113,
      "chip": "ym2612"
    },
    {
      "channel": 3,
      "note": 66,
      "start": 0.4454,
      "duration": 0.1232,
      "velocity": 113,
      "chip": "ym2612"
    },
    {
      "channel": 1,
      "note": 64,
      "start": 0.591,
      "duration": 0.5932,
      "velocity": 127,
      "chip": "ym2612"
    },
    {
      "channel": 2,
      "note": 62,
      "start": 0.5917,
      "duration": 0.1228,
      "velocity": 113,
      "chip": "ym2612"
    },
    {
      "channel": 3,
      "note": 69,
      "start": 0.5938,
      "duration": 0.1225,
      "velocity": 113,
      "chip": "ym2612"
    },
    {
      "channel": 2,
      "note": 66,
      "start": 0.7394,
      "duration": 0.1232,
      "velocity": 113,
      "chip": "ym2612"
    },
    {
      "channel": 3,
      "note": 62,
      "start": 0.7415,
      "duration": 0.1229,
      "velocity": 113,
      "chip": "ym2612"
    },
    {
      "channel": 2,
      "note": 69,
      "start": 0.8876,
      "duration": 0.1231,
      "velocity": 113,
      "chip": "ym2612"
    },
    {
      "channel": 3,
      "note": 73,
      "start": 0.8896,
      "duration": 0.1228,
      "velocity": 113,
      "chip": "ym2612"
    },
    {
      "channel": 4,
      "note": 59,
      "start": 0.8902,
      "duration": 0.2463,
      "velocity": 97,
      "chip": "ym2612"
    },
    {
      "channel": 2,
      "note": 73,
      "start": 1.0359,
      "duration": 0.1229,
      "velocity": 113,
      "chip": "ym2612"
    },
    {
      "channel": 3,
      "note": 66,
      "start": 1.038,
      "duration": 0.1225,
      "velocity": 113,
      "chip": "ym2612"
    },
    {
      "channel": 1,
      "note": 68,
      "start": 1.1847,
      "duration": 0.5918,
      "velocity": 115,
      "chip": "ym2612"
    },
    {
      "channel": 2,
      "note": 62,
      "start": 1.1856,
      "duration": 0.1213,
      "velocity": 113,
      "chip": "ym2612"
    },
    {
      "channel": 3,
      "note": 69,
      "start": 1.1876,
      "duration": 0.1209,
      "velocity": 113,
      "chip": "ym2612"
    },
    {
      "channel": 4,
      "note": 61,
      "start": 1.1882,
      "duration": 0.244,
      "velocity": 97,
      "chip": "ym2612"
    },
    {
      "channel": 2,
      "note": 66,
      "start": 1.3317,
      "duration": 0.1232,
      "velocity": 113,
      "chip": "ym2612"
    },
    {
      "channel": 3,
      "note": 62,
      "start": 1.3338,
      "duration": 0.123,
      "velocity": 113,
      "chip": "ym2612"
    },
    {
      "channel": 2,
      "note": 69,
      "start": 1.4799,
      "duration": 0.1231,
      "velocity": 113,
      "chip": "ym2612"
    },
    {
      "channel": 3,
      "note": 73,
      "start": 1.4822,
      "duration": 0.1224,
      "velocity": 113,
      "chip": "ym2612"
    },
    {
      "channel": 4,
      "note": 66,
      "start": 1.4827,
      "duration": 0.5415,
      "velocity": 97,
      "chip": "ym2612"
    },
    {
      "channel": 2,
      "note": 73,
      "start": 1.6278,
      "duration": 0.1235,
      "velocity": 113,
      "chip": "ym2612"
    },
    {
      "channel": 3,
      "note": 66,
      "start": 1.6299,
      "duration": 0.1234,
      "velocity": 113,
      "chip": "ym2612"
    },
    {
      "channel": 1,
      "note": 57,
      "start": 1.7767,
      "duration": 0.5929,
      "velocity": 127,
      "chip": "ym2612"
    },
    {
      "channel": 2,
      "note": 62,
      "start": 1.7774,
      "duration": 0.1216,
      "velocity": 113,
      "chip": "ym2612"
    },
    {
      "channel": 3,
      "note": 69,
      "start": 1.78,
      "duration": 0.1207,
      "velocity": 113,
      "chip": "ym2612"
    },
    {
      "channel": 2,
      "note": 66,
      "start": 1.9238,
      "duration": 0.1232,
      "velocity": 113,
      "chip": "ym2612"
    },
    {
      "channel": 3,
      "note": 62,
      "start": 1.9259,
      "duration": 0.123,
      "velocity": 113,
      "chip": "ym2612"
    },
    {
      "channel": 2,
      "note": 69,
      "start": 2.072,
      "duration": 0.1231,
      "velocity": 113,
      "chip": "ym2612"
    },
    {
      "channel": 3,
      "note": 73,
      "start": 2.0743,
      "duration": 0.1224,
      "velocity": 113,
      "chip": "ym2612"
    },
    {
      "channel": 4,
      "note": 61,
      "start": 2.0749,
      "duration": 1.7267,
      "velocity": 97,
      "chip": "ym2612"
    },
    {
      "channel": 2,
      "note": 73,
      "start": 2.22,
      "duration": 0.1232,
      "velocity": 113,
      "chip": "ym2612"
    },
    {
      "channel": 3,
      "note": 66,
      "start": 2.222,
      "duration": 0.123,
      "velocity": 113,
      "chip": "ym2612"
    },
    {
      "channel": 1,
      "note": 64,
      "start": 2.3698,
      "duration": 0.5905,
      "velocity": 127,
      "chip": "ym2612"
    },
    {
      "channel": 2,
      "note": 62,
      "start": 2.3705,
      "duration": 0.1209,
      "velocity": 113,
      "chip": "ym2612"
    },
    {
      "channel": 3,
      "note": 69,
      "start": 2.3732,
      "duration": 0.1199,
      "velocity": 113,
      "chip": "ym2612"
    },
    {
      "channel": 2,
      "note": 66,
      "start": 2.5163,
      "duration": 0.1232,
      "velocity": 113,
      "chip": "ym2612"
    },
    {
      "channel": 3,
      "note": 62,
      "start": 2.5187,
      "duration": 0.1225,
      "velocity": 113,
      "chip": "ym2612"
    },
    {
      "channel": 2,
      "note": 69,
      "start": 2.6644,
      "duration": 0.1231,
      "velocity": 113,
      "chip": "ym2612"
    },
    {
      "channel": 3,
      "note": 73,
      "start": 2.6667,
      "duration": 0.1225,
      "velocity": 113,
      "chip": "ym2612"
    },
    {
      "channel": 2,
      "note": 73,
      "start": 2.8124,
      "duration": 0.1234,
      "velocity": 113,
      "chip": "ym2612"
    },
    {
      "channel": 3,
      "note": 66,
      "start": 2.8145,
      "duration": 0.123,
      "velocity": 113,
      "chip": "ym2612"
    },
    {
      "channel": 0,
      "note": 57,
      "start": 2.9598,
      "duration": 0.5797,
      "velocity": 103,
      "chip": "ym2612"
    },
    {
      "channel": 1,
      "note": 64,
      "start": 2.9604,
      "duration": 0.5932,
      "velocity": 127,
      "chip": "ym2612"
    },
    {
      "channel": 2,
      "note": 62,
      "start": 2.9611,
      "duration": 0.1226,
      "velocity": 113,
      "chip": "ym2612"
    },
    {
      "channel": 3,
      "note": 69,
      "start": 2.9632,
      "duration": 0.1225,
      "velocity": 113,
      "chip": "ym2612"
    },
    {
      "channel": 2,
      "note": 66,
      "start": 3.1086,
      "duration": 0.1232,
      "velocity": 113,
      "chip": "ym2612"
    },
    {
      "channel": 3,
      "note": 62,
      "start": 3.1106,
      "duration": 0.1228,
      "velocity": 113,
      "chip": "ym2612"
    },
    {
      "channel": 5,
      "note": 57,
      "start": 3.1853,
      "duration": 0.5791,
      "velocity": 103,
      "chip": "ym2612"
    },
    {
      "channel": 2,
      "note": 69,
      "start": 3.2567,
      "duration": 0.1231,
      "velocity": 113,
      "chip": "ym2612"
    },
    {
      "channel": 3,
      "note": 73,
      "start": 3.2588,
      "duration": 0.1227,
      "velocity": 113,
      "chip": "ym2612"
    },
    {
      "channel": 2,
      "note": 73,
      "start": 3.4047,
      "duration": 0.1232,
      "velocity": 113,
      "chip": "ym2612"
    },
    {
      "channel": 3,
      "note": 66,
      "start": 3.4067,
      "duration": 0.1229,
      "velocity": 113,
      "chip": "ym2612"
    },
    {
      "channel": 0,
      "note": 54,
      "start": 3.5521,
      "duration": 0.5796,
      "velocity": 103,
      "chip": "ym2612"
    },
    {
      "channel": 1,
      "note": 68,
      "start": 3.5539,
      "duration": 0.592,
      "velocity": 115,
      "chip": "ym2612"
    },
    {
      "channel": 2,
      "note": 62,
      "start": 3.5546,
      "duration": 0.1213,
      "velocity": 113,
      "chip": "ym2612"
    },
    {
      "channel": 3,
      "note": 69,
      "start": 3.5567,
      "duration": 0.1209,
      "velocity": 113,
      "chip": "ym2612"
    },
    {
      "channel": 2,
      "note": 66,
      "start": 3.7009,
      "duration": 0.1232,
      "velocity": 113,
      "chip": "ym2612"
    },
    {
      "channel": 3,
      "note": 62,
      "start": 3.7033,
      "duration": 0.1227,
      "velocity": 113,
      "chip": "ym2612"
    },
    {
      "channel": 5,
      "note": 54,
      "start": 3.7772,
      "duration": 0.5793,
      "velocity": 103,
      "chip": "ym2612"
    },
    {
      "channel": 2,
      "note": 69,
      "start": 3.849,
      "duration": 0.1232,
      "velocity": 113,
      "chip": "ym2612"
    },
    {
      "channel": 3,
      "note": 73,
      "start": 3.8518,
      "duration": 0.122,
      "velocity": 113,
      "chip": "ym2612"
    },
    {
      "channel": 4,
      "note": 54,
      "start": 3.8524,
      "duration": 0.2451,
      "velocity": 97,
      "chip": "ym2612"
    },
    {
      "channel": 2,
      "note": 73,
      "start": 3.997,
      "duration": 0.1232,
      "velocity": 113,
      "chip": "ym2612"
    },
    {
      "channel": 3,
      "note": 66,
      "start": 3.999,
      "duration": 0.1232,
      "velocity": 113,
      "chip": "ym2612"
    },
    {
      "channel": 0,
      "note": 50,
      "start": 4.1443,
      "duration": 0.5797,
      "velocity": 103,
      "chip": "ym2612"
    },
    {
      "channel": 1,
      "note": 57,
      "start": 4.1461,
      "duration": 0.5922,
      "velocity": 127,
      "chip": "ym2612"
    },
    {
      "channel": 2,
      "note": 62,
      "start": 4.1467,
      "duration": 0.1217,
      "velocity": 113,
      "chip": "ym2612"
    },
    {
      "channel": 3,
      "note": 69,
      "start": 4.1497,
      "duration": 0.1205,
      "velocity": 113,
      "chip": "ym2612"
    },
    {
      "channel": 4,
      "note": 56,
      "start": 4.1502,
      "duration": 0.2432,
      "velocity": 97,
      "chip": "ym2612"
    },
    {
      "channel": 2,
      "note": 66,
      "start": 4.293,
      "duration": 0.1232,
      "velocity": 113,
      "chip": "ym2612"
    },
    {
      "channel": 3,
      "note": 62,
      "start": 4.295,
      "duration": 0.1235,
      "velocity": 113,
      "chip": "ym2612"
    },
    {
      "channel": 5,
      "note": 50,
      "start": 4.3701,
      "duration": 0.5789,
      "velocity": 103,
      "chip": "ym2612"
    },
    {
      "channel": 2,
      "note": 69,
      "start": 4.4412,
      "duration": 0.1231,
      "velocity": 113,
      "chip": "ym2612"
    },
    {
      "channel": 3,
      "note": 73,
      "start": 4.4439,
      "duration": 0.122,
      "velocity": 113,
      "chip": "ym2612"
    },
    {
      "channel": 4,
      "note": 57,
      "start": 4.4445,
      "duration": 0.2451,
      "velocity": 97,
      "chip": "ym2612"
    },
    {
      "channel": 2,
      "note": 73,
      "start": 4.5891,
      "duration": 0.1232,
      "velocity": 113,
      "chip": "ym2612"
    },
    {
      "channel": 3,
      "note": 66,
      "start": 4.5912,
      "duration": 0.1232,
      "velocity": 113,
      "chip": "ym2612"
    },
    {
      "channel": 0,
      "note": 49,
      "start": 4.7365,
      "duration": 2.9488,
      "velocity": 103,
      "chip": "ym2612"
    },
    {
      "channel": 1,
      "note": 64,
      "start": 4.7384,
      "duration": 0.5906,
      "velocity": 127,
      "chip": "ym2612"
    },
    {
      "channel": 2,
      "note": 61,
      "start": 4.7392,
      "duration": 0.1212,
      "velocity": 113,
      "chip": "ym2612"
    },
    {
      "channel": 3,
      "note": 68,
      "start": 4.7422,
      "duration": 0.12,
      "velocity": 113,
      "chip": "ym2612"
    },
    {
      "channel": 4,
      "note": 59,
      "start": 4.7427,
      "duration": 0.8353,
      "velocity": 97,
      "chip": "ym2612"
    },
    {
      "channel": 2,
      "note": 64,
      "start": 4.8857,
      "duration": 0.1228,
      "velocity": 113,
      "chip": "ym2612"
    },
    {
      "channel": 3,
      "note": 61,
      "start": 4.8877,
      "duration": 0.1228,
      "velocity": 113,
      "chip": "ym2612"
    },
    {
      "channel": 5,
      "note": 49,
      "start": 4.9621,
      "duration": 2.9482,
      "velocity": 103,
      "chip": "ym2612"
    },
    {
      "channel": 2,
      "note": 68,
      "start": 5.0334,
      "duration": 0.1232,
      "velocity": 113,
      "chip": "ym2612"
    },
    {
      "channel": 3,
      "note": 71,
      "start": 5.0364,
      "duration": 0.122,
      "velocity": 113,
      "chip": "ym2612"
    },
    {
      "channel": 2,
      "note": 71,
      "start": 5.1816,
      "duration": 0.1231,
      "velocity": 113,
      "chip": "ym2612"
    },
    {
      "channel": 3,
      "note": 64,
      "start": 5.1836,
      "duration": 0.1228,
      "velocity": 113,
      "chip": "ym2612"
    },
    {
      "channel": 1,
      "note": 64,
      "start": 5.3292,
      "duration": 0.5933,
      "velocity": 127,
      "chip": "ym2612"
    },
    {
      "channel": 2,
      "note": 61,
      "start": 5.33,
      "duration": 0.1228,
      "velocity": 113,
      "chip": "ym2612"
    },
    {
      "channel": 3,
      "note": 68,
      "start": 5.332,
      "duration": 0.1224,
      "velocity": 113,
      "chip": "ym2612"
    },
    {
      "channel": 2,
      "note": 64,
      "start": 5.4777,
      "duration": 0.1232,
      "velocity": 113,
      "chip": "ym2612"
    },
    {
      "channel": 3,
      "note": 61,
      "start": 5.4796,
      "duration": 0.1233,
      "velocity": 113,
      "chip": "ym2612"
    },
    {
      "channel": 2,
      "note": 68,
      "start": 5.6258,
      "duration": 0.1232,
      "velocity": 113,
      "chip": "ym2612"
    },
    {
      "channel": 3,
      "note": 71,
      "start": 5.6278,
      "duration": 0.1229,
      "velocity": 113,
      "chip": "ym2612"
    },
    {
      "channel": 4,
      "note": 57,
      "start": 5.6284,
      "duration": 0.2459,
      "velocity": 97,
      "chip": "ym2612"
    },
    {
      "channel": 2,
      "note": 71,
      "start": 5.7739,
      "duration": 0.1231,
      "velocity": 113,
      "chip": "ym2612"
    },
    {
      "channel": 3,
      "note": 64,
      "start": 5.7759,
      "duration": 0.1228,
      "velocity": 113,
      "chip": "ym2612"
    },
    {
      "channel": 1,
      "note": 68,
      "start": 5.9226,
      "duration": 0.5921,
      "velocity": 115,
      "chip": "ym2612"
    },
    {
      "channel": 2,
      "note": 61,
      "start": 5.9234,
      "duration": 0.1217,
      "velocity": 113,
      "chip": "ym2612"
    },
    {
      "channel": 3,
      "note": 68,
      "start": 5.9254,
      "duration": 0.1213,
      "velocity": 113,
      "chip": "ym2612"
    },
    {
      "channel": 4,
      "note": 59,
      "start": 5.926,
      "duration": 0.2448,
      "velocity": 97,
      "chip": "ym2612"
    },
    {
      "channel": 2,
      "note": 64,
      "start": 6.07,
      "duration": 0.1232,
      "velocity": 113,
      "chip": "ym2612"
    },
    {
      "channel": 3,
      "note": 61,
      "start": 6.0719,
      "duration": 0.1231,
      "velocity": 113,
      "chip": "ym2612"
    },
    {
      "channel": 2,
      "note": 68,
      "start": 6.2184,
      "duration": 0.1228,
      "velocity": 113,
      "chip": "ym2612"
    },
    {
      "channel": 3,
      "note": 71,
      "start": 6.2207,
      "duration": 0.1221,
      "velocity": 113,
      "chip": "ym2612"
    },
    {
      "channel": 4,
      "note": 64,
      "start": 6.2213,
      "duration": 0.5412,
      "velocity": 97,
      "chip": "ym2612"
    },
    {
      "channel": 2,
      "note": 71,
      "start": 6.3661,
      "duration": 0.1232,
      "velocity": 113,
      "chip": "ym2612"
    },
    {
      "channel": 3,
      "note": 64,
      "start": 6.3686,
      "duration": 0.1226,
      "velocity": 113,
      "chip": "ym2612"
    },
    {
      "channel": 1,
      "note": 57,
      "start": 6.5149,
      "duration": 0.5925,
      "velocity": 127,
      "chip": "ym2612"
    },
    {
      "channel": 2,
      "note": 61,
      "start": 6.5156,
      "duration": 0.1216,
      "velocity": 113,
      "chip": "ym2612"
    },
    {
      "channel": 3,
      "note": 68,
      "start": 6.5185,
      "duration": 0.1204,
      "velocity": 113,
      "chip": "ym2612"
    },
    {
      "channel": 2,
      "note": 64,
      "start": 6.6621,
      "duration": 0.1235,
      "velocity": 113,
      "chip": "ym2612"
    },
    {
      "channel": 3,
      "note": 61,
      "start": 6.664,
      "duration": 0.1235,
      "velocity": 113,
      "chip": "ym2612"
    },
    {
      "channel": 2,
      "note": 68,
      "start": 6.8102,
      "duration": 0.1232,
      "velocity": 113,
      "chip": "ym2612"
    },
    {
      "channel": 3,
      "note": 71,
      "start": 6.8126,
      "duration": 0.1228,
      "velocity": 113,
      "chip": "ym2612"
    },
    {
      "channel": 4,
      "note": 59,
      "start": 6.8132,
      "duration": 0.5417,
      "velocity": 97,
      "chip": "ym2612"
    },
    {
      "channel": 2,
      "note": 71,
      "start": 6.9583,
      "duration": 0.1231,
      "velocity": 113,
      "chip": "ym2612"
    },
    {
      "channel": 3,
      "note": 64,
      "start": 6.9603,
      "duration": 0.123,
      "velocity": 113,
      "chip": "ym2612"
    },
    {
      "channel": 1,
      "note": 64,
      "start": 7.1076,
      "duration": 0.5907,
      "velocity": 127,
      "chip": "ym2612"
    },
    {
      "channel": 2,
      "note": 61,
      "start": 7.1084,
      "duration": 0.1212,
      "velocity": 113,
      "chip": "ym2612"
    },
    {
      "channel": 3,
      "note": 68,
      "start": 7.1111,
      "duration": 0.1202,
      "velocity": 113,
      "chip": "ym2612"
    },
    {
      "channel": 2,
      "note": 64,
      "start": 7.2545,
      "duration": 0.1232,
      "velocity": 113,
      "chip": "ym2612"
    },
    {
      "channel": 3,
      "note": 61,
      "start": 7.2565,
      "duration": 0.1229,
      "velocity": 113,
      "chip": "ym2612"
    },
    {
      "channel": 2,
      "note": 68,
      "start": 7.4027,
      "duration": 0.1231,
      "velocity": 113,
      "chip": "ym2612"
    },
    {
      "channel": 3,
      "note": 71,
      "start": 7.4049,
      "duration": 0.1226,
      "velocity": 113,
      "chip": "ym2612"
    },
    {
      "channel": 4,
      "note": 61,
      "start": 7.4055,
      "duration": 0.5417,
      "velocity": 97,
      "chip": "ym2612"
    },
    {
      "channel": 2,
      "note": 71,
      "start": 7.5507,
      "duration": 0.1231,
      "velocity": 113,
      "chip": "ym2612"
    },
    {
      "channel": 3,
      "note": 64,
      "start": 7.5532,
      "duration": 0.1224,
      "velocity": 113,
      "chip": "ym2612"
    },
    {
      "channel": 0,
      "note": 56,
      "start": 7.6979,
      "duration": 0.5798,
      "velocity": 103,
      "chip": "ym2612"
    },
    {
      "channel": 1,
      "note": 64,
      "start": 7.6985,
      "duration": 0.5933,
      "velocity": 127,
      "chip": "ym2612"
    },
    {
      "channel": 2,
      "note": 61,
      "start": 7.6993,
      "duration": 0.1226,
      "velocity": 113,
      "chip": "ym2612"
    },
    {
      "channel": 3,
      "note": 68,
      "start": 7.7017,
      "duration": 0.1219,
      "velocity": 113,
      "chip": "ym2612"
    },
    {
      "channel": 2,
      "note": 64,
      "start": 7.8468,
      "duration": 0.1232,
      "velocity": 113,
      "chip": "ym2612"
    },
    {
      "channel": 3,
      "note": 61,
      "start": 7.8488,
      "duration": 0.1229,
      "velocity": 113,
      "chip": "ym2612"
    },
    {
      "channel": 5,
      "note": 56,
      "start": 7.9232,
      "duration": 0.5798,
      "velocity": 103,
      "chip": "ym2612"
    },
    {
      "channel": 2,
      "note": 68,
      "start": 7.9949,
      "duration": 0.1235,
      "velocity": 113,
      "chip": "ym2612"
    },
    {
      "channel": 3,
      "note": 71,
      "start": 7.9969,
      "duration": 0.1232,
      "velocity": 113,
      "chip": "ym2612"
    },
    {
      "channel": 4,
      "note": 62,
      "start": 7.9975,
      "duration": 0.542,
      "velocity": 97,
      "chip": "ym2612"
    },
    {
      "channel": 2,
      "note": 71,
      "start": 8.143,
      "duration": 0.1232,
      "velocity": 113,
      "chip": "ym2612"
    },
    {
      "channel": 3,
      "note": 64,
      "start": 8.145,
      "duration": 0.1232,
      "velocity": 113,
      "chip": "ym2612"
    },
    {
      "channel": 0,
      "note": 52,
      "start": 8.2902,
      "duration": 0.5797,
      "velocity": 103,
      "chip": "ym2612"
    },
    {
      "channel": 1,
      "note": 68,
      "start": 8.292,
      "duration": 0.5921,
      "velocity": 115,
      "chip": "ym2612"
    },
    {
      "channel": 2,
      "note": 61,
      "start": 8.2927,
      "duration": 0.1214,
      "velocity": 113,
      "chip": "ym2612"
    },
    {
      "channel": 3,
      "note": 68,
      "start": 8.2948,
      "duration": 0.1211,
      "velocity": 113,
      "chip": "ym2612"
    },
    {
      "channel": 2,
      "note": 64,
      "start": 8.4391,
      "duration": 0.1232,
      "velocity": 113,
      "chip": "ym2612"
    },
    {
      "channel": 3,
      "note": 61,
      "start": 8.4411,
      "duration": 0.1229,
      "velocity": 113,
      "chip": "ym2612"
    },
    {
      "channel": 5,
      "note": 52,
      "start": 8.5154,
      "duration": 0.5793,
      "velocity": 103,
      "chip": "ym2612"
    },
    {
      "channel": 2,
      "note": 68,
      "start": 8.5871,
      "duration": 0.1232,
      "velocity": 113,
      "chip": "ym2612"
    },
    {
      "channel": 3,
      "note": 71,
      "start": 8.5892,
      "duration": 0.1228,
      "velocity": 113,
      "chip": "ym2612"
    },
    {
      "channel": 4,
      "note": 61,
      "start": 8.5898,
      "duration": 0.2463,
      "velocity": 97,
      "chip": "ym2612"
    },
    {
      "channel": 2,
      "note": 71,
      "start": 8.7357,
      "duration": 0.1227,
      "velocity": 113,
      "chip": "ym2612"
    },
    {
      "channel": 3,
      "note": 64,
      "start": 8.7377,
      "duration": 0.1226,
      "velocity": 113,
      "chip": "ym2612"
    },
    {
      "channel": 0,
      "note": 56,
      "start": 8.8825,
      "duration": 0.5797,
      "velocity": 103,
      "chip": "ym2612"
    },
    {
      "channel": 1,
      "note": 57,
      "start": 8.8843,
      "duration": 0.5922,
      "velocity": 127,
      "chip": "ym2612"
    },
    {
      "channel": 2,
      "note": 61,
      "start": 8.8854,
      "duration": 0.1209,
      "velocity": 113,
      "chip": "ym2612"
    },
    {
      "channel": 3,
      "note": 68,
      "start": 8.8877,
      "duration": 0.1204,
      "velocity": 113,
      "chip": "ym2612"
    },
    {
      "channel": 4,
      "note": 54,
      "start": 8.8884,
      "duration": 0.0952,
      "velocity": 97,
      "chip": "ym2612"
    },
    {
      "channel": 2,
      "note": 64,
      "start": 9.0312,
      "duration": 0.1232,
      "velocity": 113,
      "chip": "ym2612"
    },
    {
      "channel": 3,
      "note": 61,
      "start": 9.0335,
      "duration": 0.1229,
      "velocity": 113,
      "chip": "ym2612"
    },
    {
      "channel": 4,
      "note": 56,
      "start": 9.0341,
      "duration": 0.0976,
      "velocity": 97,
      "chip": "ym2612"
    },
    {
      "channel": 5,
      "note": 56,
      "start": 9.1079,
      "duration": 0.5796,
      "velocity": 103,
      "chip": "ym2612"
    },
    {
      "channel": 2,
      "note": 68,
      "start": 9.1793,
      "duration": 0.1232,
      "velocity": 113,
      "chip": "ym2612"
    },
    {
      "channel": 3,
      "note": 71,
      "start": 9.1821,
      "duration": 0.1224,
      "velocity": 113,
      "chip": "ym2612"
    },
    {
      "channel": 4,
      "note": 57,
      "start": 9.1827,
      "duration": 0.097,
      "velocity": 97,
      "chip": "ym2612"
    },
    {
      "channel": 2,
      "note": 71,
      "start": 9.3274,
      "duration": 0.1231,
      "velocity": 113,
      "chip": "ym2612"
    },
    {
      "channel": 3,
      "note": 64,
      "start": 9.3301,
      "duration": 0.1228,
      "velocity": 113,
      "chip": "ym2612"
    },
    {
      "channel": 4,
      "note": 59,
      "start": 9.3307,
      "duration": 0.0973,
      "velocity": 97,
      "chip": "ym2612"
    },
    {
      "channel": 0,
      "note": 47,
      "start": 9.4747,
      "duration": 2.3566,
      "velocity": 103,
      "chip": "ym2612"
    },
    {
      "channel": 1,
      "note": 64,
      "start": 9.4766,
      "duration": 0.5907,
      "velocity": 127,
      "chip": "ym2612"
    },
    {
      "channel": 2,
      "note": 62,
      "start": 9.4775,
      "duration": 0.1212,
      "velocity": 113,
      "chip": "ym2612"
    },
    {
      "channel": 3,
      "note": 69,
      "start": 9.4807,
      "duration": 0.12,
      "velocity": 113,
      "chip": "ym2612"
    },
    {
      "channel": 4,
      "note": 61,
      "start": 9.4813,
      "duration": 0.835,
      "velocity": 97,
      "chip": "ym2612"
    },
    {
      "channel": 2,
      "note": 66,
      "start": 9.6237,
      "duration": 0.1232,
      "velocity": 113,
      "chip": "ym2612"
    },
    {
      "channel": 3,
      "note": 62,
      "start": 9.6261,
      "duration": 0.1226,
      "velocity": 113,
      "chip": "ym2612"
    },
    {
      "channel": 5,
      "note": 47,
      "start": 9.7004,
      "duration": 2.3559,
      "velocity": 103,
      "chip": "ym2612"
    },
    {
      "channel": 2,
      "note": 69,
      "start": 9.7717,
      "duration": 0.1232,
      "velocity": 113,
      "chip": "ym2612"
    },
    {
      "channel": 3,
      "note": 73,
      "start": 9.7744,
      "duration": 0.1222,
      "velocity": 113,
      "chip": "ym2612"
    },
    {
      "channel": 2,
      "note": 73,
      "start": 9.9198,
      "duration": 0.1232,
      "velocity": 113,
      "chip": "ym2612"
    },
    {
      "channel": 3,
      "note": 66,
      "start": 9.9218,
      "duration": 0.1228,
      "velocity": 113,
      "chip": "ym2612"
    },
    {
      "channel": 1,
      "note": 64,
      "start": 10.0675,
      "duration": 0.5933,
      "velocity": 127,
      "chip": "ym2612"
    },
    {
      "channel": 2,
      "note": 62,
      "start": 10.0686,
      "duration": 0.1224,
      "velocity": 113,
      "chip": "ym2612"
    },
    {
      "channel": 3,
      "note": 69,
      "start": 10.0707,
      "duration": 0.122,
      "velocity": 113,
      "chip": "ym2612"
    },
    {
      "channel": 2,
      "note": 66,
      "start": 10.2159,
      "duration": 0.1232,
      "velocity": 113,
      "chip": "ym2612"
    },
    {
      "channel": 3,
      "note": 62,
      "start": 10.2183,
      "duration": 0.1225,
      "velocity": 113,
      "chip": "ym2612"
    },
    {
      "channel": 2,
      "note": 69,
      "start": 10.364,
      "duration": 0.1231,
      "velocity": 113,
      "chip": "ym2612"
    },
    {
      "channel": 3,
      "note": 73,
      "start": 10.3661,
      "duration": 0.1228,
      "velocity": 113,
      "chip": "ym2612"
    },
    {
      "channel": 4,
      "note": 59,
      "start": 10.3666,
      "duration": 0.2459,
      "velocity": 97,
      "chip": "ym2612"
    },
    {
      "channel": 2,
      "note": 73,
      "start": 10.5121,
      "duration": 0.1235,
      "velocity": 113,
      "chip": "ym2612"
    },
    {
      "channel": 3,
      "note": 66,
      "start": 10.5141,
      "duration": 0.1232,
      "velocity": 113,
      "chip": "ym2612"
    },
    {
      "channel": 1,
      "note": 68,
      "start": 10.6609,
      "duration": 0.5924,
      "velocity": 115,
      "chip": "ym2612"
    },
    {
      "channel": 2,
      "note": 62,
      "start": 10.6617,
      "duration": 0.1216,
      "velocity": 113,
      "chip": "ym2612"
    },
    {
      "channel": 3,
      "note": 69,
      "start": 10.6638,
      "duration": 0.1216,
      "velocity": 113,
      "chip": "ym2612"
    },
    {
      "channel": 4,
      "note": 61,
      "start": 10.6644,
      "duration": 0.2444,
      "velocity": 97,
      "chip": "ym2612"
    },
    {
      "channel": 2,
      "note": 66,
      "start": 10.8082,
      "duration": 0.1232,
      "velocity": 113,
      "chip": "ym2612"
    },
    {
      "channel": 3,
      "note": 62,
      "start": 10.8102,
      "duration": 0.123,
      "velocity": 113,
      "chip": "ym2612"
    },
    {
      "channel": 2,
      "note": 69,
      "start": 10.9563,
      "duration": 0.1231,
      "velocity": 113,
      "chip": "ym2612"
    },
    {
      "channel": 3,
      "note": 73,
      "start": 10.9587,
      "duration": 0.1224,
      "velocity": 113,
      "chip": "ym2612"
    },
    {
      "channel": 4,
      "note": 66,
      "start": 10.9593,
      "duration": 0.5414,
      "velocity": 97,
      "chip": "ym2612"
    },
    {
      "channel": 2,
      "note": 73,
      "start": 11.1043,
      "duration": 0.1232,
      "velocity": 113,
      "chip": "ym2612"
    },
    {
      "channel": 3,
      "note": 66,
      "start": 11.1063,
      "duration": 0.1231,
      "velocity": 113,
      "chip": "ym2612"
    },
    {
      "channel": 1,
      "note": 57,
      "start": 11.2535,
      "duration": 0.5922,
      "velocity": 127,
      "chip": "ym2612"
    },
    {
      "channel": 2,
      "note": 62,
      "start": 11.2541,
      "duration": 0.1213,
      "velocity": 113,
      "chip": "ym2612"
    },
    {
      "channel": 3,
      "note": 69,
      "start": 11.2567,
      "duration": 0.1204,
      "velocity": 113,
      "chip": "ym2612"
    },
    {
      "channel": 2,
      "note": 66,
      "start": 11.4003,
      "duration": 0.1232,
      "velocity": 113,
      "chip": "ym2612"
    },
    {
      "channel": 3,
      "note": 62,
      "start": 11.4027,
      "duration": 0.1227,
      "velocity": 113,
      "chip": "ym2612"
    },
    {
      "channel": 2,
      "note": 69,
      "start": 11.5485,
      "duration": 0.1231,
      "velocity": 113,
      "chip": "ym2612"
    },
    {
      "channel": 3,
      "note": 73,
      "start": 11.5508,
      "duration": 0.1224,
      "velocity": 113,
      "chip": "ym2612"
    },
    {
      "channel": 4,
      "note": 61,
      "start": 11.5518,
      "duration": 1.726,
      "velocity": 97,
      "chip": "ym2612"
    },
    {
      "channel": 2,
      "note": 73,
      "start": 11.6965,
      "duration": 0.1232,
      "velocity": 113,
      "chip": "ym2612"
    },
    {
      "channel": 3,
      "note": 66,
      "start": 11.6985,
      "duration": 0.123,
      "velocity": 113,
      "chip": "ym2612"
    },
    {
      "channel": 0,
      "note": 40,
      "start": 11.8439,
      "duration": 0.5796,
      "velocity": 103,
      "chip": "ym2612"
    },
    {
      "channel": 1,
      "note": 64,
      "start": 11.8459,
      "duration": 0.5907,
      "velocity": 127,
      "chip": "ym2612"
    },
    {
      "channel": 2,
      "note": 62,
      "start": 11.8466,
      "duration": 0.1216,
      "velocity": 113,
      "chip": "ym2612"
    },
    {
      "channel": 3,
      "note": 69,
      "start": 11.8493,
      "duration": 0.1206,
      "velocity": 113,
      "chip": "ym2612"
    },
    {
      "channel": 2,
      "note": 66,
      "start": 11.9927,
      "duration": 0.1232,
      "velocity": 113,
      "chip": "ym2612"
    },
    {
      "channel": 3,
      "note": 62,
      "start": 11.9948,
      "duration": 0.1232,
      "velocity": 113,
      "chip": "ym2612"
    },
    {
      "channel": 5,
      "note": 40,
      "start": 12.0697,
      "duration": 0.5789,
      "velocity": 103,
      "chip": "ym2612"
    },
    {
      "channel": 2,
      "note": 69,
      "start": 12.1409,
      "duration": 0.1231,
      "velocity": 113,
      "chip": "ym2612"
    },
    {
      "channel": 3,
      "note": 73,
      "start": 12.1432,
      "duration": 0.1225,
      "velocity": 113,
      "chip": "ym2612"
    },
    {
      "channel": 2,
      "note": 73,
      "start": 12.2889,
      "duration": 0.1232,
      "velocity": 113,
      "chip": "ym2612"
    },
    {
      "channel": 3,
      "note": 66,
      "start": 12.291,
      "duration": 0.1228,
      "velocity": 113,
      "chip": "ym2612"
    },
    {
      "channel": 0,
      "note": 42,
      "start": 12.4361,
      "duration": 0.5798,
      "velocity": 103,
      "chip": "ym2612"
    },
    {
      "channel": 1,
      "note": 64,
      "start": 12.4368,
      "duration": 0.5933,
      "velocity": 127,
      "chip": "ym2612"
    },
    {
      "channel": 2,
      "note": 62,
      "start": 12.4375,
      "duration": 0.1226,
      "velocity": 113,
      "chip": "ym2612"
    },
    {
      "channel": 3,
      "note": 69,
      "start": 12.4396,
      "duration": 0.1222,
      "velocity": 113,
      "chip": "ym2612"
    },
    {
      "channel": 2,
      "note": 66,
      "start": 12.5854,
      "duration": 0.1228,
      "velocity": 113,
      "chip": "ym2612"
    },
    {
      "channel": 3,
      "note": 62,
      "start": 12.5875,
      "duration": 0.1224,
      "velocity": 113,
      "chip": "ym2612"
    },
    {
      "channel": 5,
      "note": 42,
      "start": 12.6614,
      "duration": 0.5794,
      "velocity": 103,
      "chip": "ym2612"
    },
    {
      "channel": 2,
      "note": 69,
      "start": 12.7332,
      "duration": 0.1231,
      "velocity": 113,
      "chip": "ym2612"
    },
    {
      "channel": 3,
      "note": 73,
      "start": 12.7356,
      "duration": 0.1224,
      "velocity": 113,
      "chip": "ym2612"
    },
    {
      "channel": 2,
      "note": 73,
      "start": 12.8812,
      "duration": 0.1232,
      "velocity": 113,
      "chip": "ym2612"
    },
    {
      "channel": 3,
      "note": 66,
      "start": 12.8832,
      "duration": 0.1229,
      "velocity": 113,
      "chip": "ym2612"
    },
    {
      "channel": 0,
      "note": 44,
      "start": 13.0284,
      "duration": 0.5797,
      "velocity": 103,
      "chip": "ym2612"
    },
    {
      "channel": 1,
      "note": 68,
      "start": 13.0302,
      "duration": 0.5922,
      "velocity": 115,
      "chip": "ym2612"
    },
    {
      "channel": 2,
      "note": 62,
      "start": 13.031,
      "duration": 0.1215,
      "velocity": 113,
      "chip": "ym2612"
    },
    {
      "channel": 3,
      "note": 69,
      "start": 13.0331,
      "duration": 0.1211,
      "velocity": 113,
      "chip": "ym2612"
    },
    {
      "channel": 2,
      "note": 66,
      "start": 13.1773,
      "duration": 0.1232,
      "velocity": 113,
      "chip": "ym2612"
    },
    {
      "channel": 3,
      "note": 62,
      "start": 13.1794,
      "duration": 0.1233,
      "velocity": 113,
      "chip": "ym2612"
    },
    {
      "channel": 5,
      "note": 44,
      "start": 13.254,
      "duration": 0.579,
      "velocity": 103,
      "chip": "ym2612"
    },
    {
      "channel": 2,
      "note": 69,
      "start": 13.3254,
      "duration": 0.1232,
      "velocity": 113,
      "chip": "ym2612"
    },
    {
      "channel": 3,
      "note": 73,
      "start": 13.3278,
      "duration": 0.1225,
      "velocity": 113,
      "chip": "ym2612"
    },
    {
      "channel": 4,
      "note": 69,
      "start": 13.3284,
      "duration": 0.2456,
      "velocity": 97,
      "chip": "ym2612"
    },
    {
      "channel": 2,
      "note": 73,
      "start": 13.4735,
      "duration": 0.1232,
      "velocity": 113,
      "chip": "ym2612"
    },
    {
      "channel": 3,
      "note": 66,
      "start": 13.4755,
      "duration": 0.1232,
      "velocity": 113,
      "chip": "ym2612"
    },
    {
      "channel": 0,
      "note": 47,
      "start": 13.6208,
      "duration": 0.5796,
      "velocity": 103,
      "chip": "ym2612"
    },
    {
      "channel": 1,
      "note": 57,
      "start": 13.6226,
      "duration": 0.5921,
      "velocity": 127,
      "chip": "ym2612"
    },
    {
      "channel": 2,
      "note": 62,
      "start": 13.6233,
      "duration": 0.1213,
      "velocity": 113,
      "chip": "ym2612"
    },
    {
      "channel": 3,
      "note": 69,
      "start": 13.6261,
      "duration": 0.1201,
      "velocity": 113,
      "chip": "ym2612"
    },
    {
      "channel": 4,
      "note": 68,
      "start": 13.6268,
      "duration": 0.2435,
      "velocity": 97,
      "chip": "ym2612"
    },
    {
      "channel": 2,
      "note": 66,
      "start": 13.7695,
      "duration": 0.1231,
      "velocity": 113,
      "chip": "ym2612"
    },
    {
      "channel": 3,
      "note": 62,
      "start": 13.7715,
      "duration": 0.1231,
      "velocity": 113,
      "chip": "ym2612"
    },
    {
      "channel": 5,
      "note": 47,
      "start": 13.8463,
      "duration": 0.5791,
      "velocity": 103,
      "chip": "ym2612"
    },
    {
      "channel": 2,
      "note": 69,
      "start": 13.9176,
      "duration": 0.1232,
      "velocity": 113,
      "chip": "ym2612"
    },
    {
      "channel": 3,
      "note": 73,
      "start": 13.9207,
      "duration": 0.1216,
      "velocity": 113,
      "chip": "ym2612"
    },
    {
      "channel": 4,
      "note": 64,
      "start": 13.9213,
      "duration": 0.2448,
      "velocity": 97,
      "chip": "ym2612"
    },
    {
      "channel": 2,
      "note": 73,
      "start": 14.0656,
      "duration": 0.1232,
      "velocity": 113,
      "chip": "ym2612"
    },
    {
      "channel": 3,
      "note": 66,
      "start": 14.0676,
      "duration": 0.1232,
      "velocity": 113,
      "chip": "ym2612"
    },
    {
      "channel": 0,
      "note": 45,
      "start": 14.213,
      "duration": 1.7643,
      "velocity": 103,
      "chip": "ym2612"
    },
    {
      "channel": 1,
      "note": 64,
      "start": 14.2149,
      "duration": 0.5907,
      "velocity": 127,
      "chip": "ym2612"
    },
    {
      "channel": 2,
      "note": 61,
      "start": 14.2157,
      "duration": 0.1213,
      "velocity": 113,
      "chip": "ym2612"
    },
    {
      "channel": 3,
      "note": 68,
      "start": 14.219,
      "duration": 0.1197,
      "velocity": 113,
      "chip": "ym2612"
    },
    {
      "channel": 4,
      "note": 59,
      "start": 14.2196,
      "duration": 0.835,
      "velocity": 97,
      "chip": "ym2612"
    },
    {
      "channel": 2,
      "note": 64,
      "start": 14.3619,
      "duration": 0.1235,
      "velocity": 113,
      "chip": "ym2612"
    },
    {
      "channel": 3,
      "note": 61,
      "start": 14.3639,
      "duration": 0.1235,
      "velocity": 113,
      "chip": "ym2612"
    },
    {
      "channel": 5,
      "note": 45,
      "start": 14.4388,
      "duration": 1.7637,
      "velocity": 103,
      "chip": "ym2612"
    },
    {
      "channel": 2,
      "note": 68,
      "start": 14.5099,
      "duration": 0.1232,
      "velocity": 113,
      "chip": "ym2612"
    },
    {
      "channel": 3,
      "note": 71,
      "start": 14.5124,
      "duration": 0.1227,
      "velocity": 113,
      "chip": "ym2612"
    },
    {
      "channel": 2,
      "note": 71,
      "start": 14.6581,
      "duration": 0.1231,
      "velocity": 113,
      "chip": "ym2612"
    },
    {
      "channel": 3,
      "note": 64,
      "start": 14.6601,
      "duration": 0.1228,
      "velocity": 113,
      "chip": "ym2612"
    },
    {
      "channel": 1,
      "note": 64,
      "start": 14.8057,
      "duration": 0.5933,
      "velocity": 127,
      "chip": "ym2612"
    },
    {
      "channel": 2,
      "note": 61,
      "start": 14.8064,
      "duration": 0.1228,
      "velocity": 113,
      "chip": "ym2612"
    },
    {
      "channel": 3,
      "note": 68,
      "start": 14.8085,
      "duration": 0.1224,
      "velocity": 113,
      "chip": "ym2612"
    },
    {
      "channel": 2,
      "note": 64,
      "start": 14.9541,
      "duration": 0.1232,
      "velocity": 113,
      "chip": "ym2612"
    },
    {
      "channel": 3,
      "note": 61,
      "start": 14.9561,
      "duration": 0.1231,
      "velocity": 113,
      "chip": "ym2612"
    },
    {
      "channel": 2,
      "note": 68,
      "start": 15.1026,
      "duration": 0.1228,
      "velocity": 113,
      "chip": "ym2612"
    },
    {
      "channel": 3,
      "note": 71,
      "start": 15.1049,
      "duration": 0.1222,
      "velocity": 113,
      "chip": "ym2612"
    },
    {
      "channel": 4,
      "note": 61,
      "start": 15.1055,
      "duration": 0.8375,
      "velocity": 97,
      "chip": "ym2612"
    },
    {
      "channel": 2,
      "note": 71,
      "start": 15.2504,
      "duration": 0.1231,
      "velocity": 113,
      "chip": "ym2612"
    },
    {
      "channel": 3,
      "note": 64,
      "start": 15.2528,
      "duration": 0.1226,
      "velocity": 113,
      "chip": "ym2612"
    },
    {
      "channel": 1,
      "note": 68,
      "start": 15.3992,
      "duration": 0.5923,
      "velocity": 115,
      "chip": "ym2612"
    },
    {
      "channel": 2,
      "note": 61,
      "start": 15.3999,
      "duration": 0.1216,
      "velocity": 113,
      "chip": "ym2612"
    },
    {
      "channel": 3,
      "note": 68,
      "start": 15.4027,
      "duration": 0.1205,
      "velocity": 113,
      "chip": "ym2612"
    },
    {
      "channel": 2,
      "note": 64,
      "start": 15.5464,
      "duration": 0.1232,
      "velocity": 113,
      "chip": "ym2612"
    },
    {
      "channel": 3,
      "note": 61,
      "start": 15.5484,
      "duration": 0.1229,
      "velocity": 113,
      "chip": "ym2612"
    },
    {
      "channel": 2,
      "note": 68,
      "start": 15.6945,
      "duration": 0.1234,
      "velocity": 113,
      "chip": "ym2612"
    },
    {
      "channel": 3,
      "note": 71,
      "start": 15.6966,
      "duration": 0.1232,
      "velocity": 113,
      "chip": "ym2612"
    },
    {
      "channel": 2,
      "note": 71,
      "start": 15.8427,
      "duration": 0.1231,
      "velocity": 113,
      "chip": "ym2612"
    },
    {
      "channel": 3,
      "note": 64,
      "start": 15.8447,
      "duration": 0.1229,
      "velocity": 113,
      "chip": "ym2612"
    },
    {
      "channel": 0,
      "note": 45,
      "start": 15.9898,
      "duration": 0.5797,
      "velocity": 103,
      "chip": "ym2612"
    },
    {
      "channel": 1,
      "note": 57,
      "start": 15.9917,
      "duration": 0.5922,
      "velocity": 127,
      "chip": "ym2612"
    },
    {
      "channel": 2,
      "note": 61,
      "start": 15.9923,
      "duration": 0.1214,
      "velocity": 113,
      "chip": "ym2612"
    },
    {
      "channel": 3,
      "note": 68,
      "start": 15.9947,
      "duration": 0.1206,
      "velocity": 113,
      "chip": "ym2612"
    },
    {
      "channel": 4,
      "note": 64,
      "start": 15.9953,
      "duration": 0.5401,
      "velocity": 97,
      "chip": "ym2612"
    },
    {
      "channel": 2,
      "note": 64,
      "start": 16.1385,
      "duration": 0.1232,
      "velocity": 113,
      "chip": "ym2612"
    },
    {
      "channel": 3,
      "note": 61,
      "start": 16.1405,
      "duration": 0.1231,
      "velocity": 113,
      "chip": "ym2612"
    },
    {
      "channel": 5,
      "note": 45,
      "start": 16.2153,
      "duration": 0.5792,
      "velocity": 103,
      "chip": "ym2612"
    },
    {
      "channel": 2,
      "note": 68,
      "start": 16.2866,
      "duration": 0.1232,
      "velocity": 113,
      "chip": "ym2612"
    },
    {
      "channel": 3,
      "note": 71,
      "start": 16.2892,
      "duration": 0.1223,
      "velocity": 113,
      "chip": "ym2612"
    },
    {
      "channel": 2,
      "note": 71,
      "start": 16.4351,
      "duration": 0.1228,
      "velocity": 113,
      "chip": "ym2612"
    },
    {
      "channel": 3,
      "note": 64,
      "start": 16.4371,
      "duration": 0.1226,
      "velocity": 113,
      "chip": "ym2612"
    },
    {
      "channel": 0,
      "note": 45,
      "start": 16.5821,
      "duration": 1.4681,
      "velocity": 103,
      "chip": "ym2612"
    },
    {
      "channel": 1,
      "note": 64,
      "start": 16.584,
      "duration": 0.5906,
      "velocity": 127,
      "chip": "ym2612"
    },
    {
      "channel": 2,
      "note": 61,
      "start": 16.5851,
      "duration": 0.121,
      "velocity": 113,
      "chip": "ym2612"
    },
    {
      "channel": 3,
      "note": 68,
      "start": 16.5875,
      "duration": 0.1202,
      "velocity": 113,
      "chip": "ym2612"
    },
    {
      "channel": 4,
      "note": 56,
      "start": 16.5882,
      "duration": 0.8355,
      "velocity": 97,
      "chip": "ym2612"
    },
    {
      "channel": 2,
      "note": 64,
      "start": 16.731,
      "duration": 0.1232,
      "velocity": 113,
      "chip": "ym2612"
    },
    {
      "channel": 3,
      "note": 61,
      "start": 16.7329,
      "duration": 0.1232,
      "velocity": 113,
      "chip": "ym2612"
    },
    {
      "channel": 5,
      "note": 45,
      "start": 16.8078,
      "duration": 1.4674,
      "velocity": 103,
      "chip": "ym2612"
    },
    {
      "channel": 2,
      "note": 68,
      "start": 16.879,
      "duration": 0.1234,
      "velocity": 113,
      "chip": "ym2612"
    },
    {
      "channel": 3,
      "note": 71,
      "start": 16.8816,
      "duration": 0.1225,
      "velocity": 113,
      "chip": "ym2612"
    },
    {
      "channel": 2,
      "note": 71,
      "start": 17.0271,
      "duration": 0.1232,
      "velocity": 113,
      "chip": "ym2612"
    },
    {
      "channel": 3,
      "note": 64,
      "start": 17.0293,
      "duration": 0.1232,
      "velocity": 113,
      "chip": "ym2612"
    },
    {
      "channel": 1,
      "note": 64,
      "start": 17.1748,
      "duration": 0.5936,
      "velocity": 127,
      "chip": "ym2612"
    },
    {
      "channel": 2,
      "note": 61,
      "start": 17.1756,
      "duration": 0.1228,
      "velocity": 113,
      "chip": "ym2612"
    },
    {
      "channel": 3,
      "note": 68,
      "start": 17.1776,
      "duration": 0.1224,
      "velocity": 113,
      "chip": "ym2612"
    },
    {
      "channel": 2,
      "note": 64,
      "start": 17.3233,
      "duration": 0.1232,
      "velocity": 113,
      "chip": "ym2612"
    },
    {
      "channel": 3,
      "note": 61,
      "start": 17.3252,
      "duration": 0.1231,
      "velocity": 113,
      "chip": "ym2612"
    },
    {
      "channel": 2,
      "note": 68,
      "start": 17.4714,
      "duration": 0.1232,
      "velocity": 113,
      "chip": "ym2612"
    },
    {
      "channel": 3,
      "note": 71,
      "start": 17.4737,
      "duration": 0.1225,
      "velocity": 113,
      "chip": "ym2612"
    },
    {
      "channel": 4,
      "note": 57,
      "start": 17.4743,
      "duration": 0.8378,
      "velocity": 97,
      "chip": "ym2612"
    },
    {
      "channel": 2,
      "note": 71,
      "start": 17.6196,
      "duration": 0.123,
      "velocity": 113,
      "chip": "ym2612"
    },
    {
      "channel": 3,
      "note": 64,
      "start": 17.6216,
      "duration": 0.1229,
      "velocity": 113,
      "chip": "ym2612"
    },
    {
      "channel": 1,
      "note": 68,
      "start": 17.7686,
      "duration": 0.592,
      "velocity": 115,
      "chip": "ym2612"
    },
    {
      "channel": 2,
      "note": 61,
      "start": 17.7694,
      "duration": 0.1212,
      "velocity": 113,
      "chip": "ym2612"
    },
    {
      "channel": 3,
      "note": 68,
      "start": 17.7718,
      "duration": 0.1205,
      "velocity": 113,
      "chip": "ym2612"
    },
    {
      "channel": 2,
      "note": 64,
      "start": 17.9155,
      "duration": 0.1232,
      "velocity": 113,
      "chip": "ym2612"
    },
    {
      "channel": 3,
      "note": 61,
      "start": 17.9175,
      "duration": 0.123,
      "velocity": 113,
      "chip": "ym2612"
    },
    {
      "channel": 0,
      "note": 44,
      "start": 18.0628,
      "duration": 0.2835,
      "velocity": 103,
      "chip": "ym2612"
    },
    {
      "channel": 2,
      "note": 68,
      "start": 18.0639,
      "duration": 0.123,
      "velocity": 113,
      "chip": "ym2612"
    },
    {
      "channel": 3,
      "note": 71,
      "start": 18.066,
      "duration": 0.1225,
      "velocity": 113,
      "chip": "ym2612"
    },
    {
      "channel": 2,
      "note": 71,
      "start": 18.2117,
      "duration": 0.1235,
      "velocity": 113,
      "chip": "ym2612"
    },
    {
      "channel": 3,
      "note": 64,
      "start": 18.2138,
      "duration": 0.1233,
      "velocity": 113,
      "chip": "ym2612"
    },
    {
      "channel": 5,
      "note": 44,
      "start": 18.2884,
      "duration": 0.2829,
      "velocity": 103,
      "chip": "ym2612"
    },
    {
      "channel": 0,
      "note": 45,
      "start": 18.359,
      "duration": 0.2835,
      "velocity": 103,
      "chip": "ym2612"
    },
    {
      "channel": 1,
      "note": 57,
      "start": 18.3608,
      "duration": 0.5926,
      "velocity": 127,
      "chip": "ym2612"
    },
    {
      "channel": 2,
      "note": 61,
      "start": 18.3615,
      "duration": 0.1212,
      "velocity": 113,
      "chip": "ym2612"
    },
    {
      "channel": 3,
      "note": 68,
      "start": 18.3639,
      "duration": 0.1209,
      "velocity": 113,
      "chip": "ym2612"
    },
    {
      "channel": 4,
      "note": 61,
      "start": 18.3644,
      "duration": 0.5398,
      "velocity": 97,
      "chip": "ym2612"
    },
    {
      "channel": 2,
      "note": 64,
      "start": 18.5077,
      "duration": 0.1232,
      "velocity": 113,
      "chip": "ym2612"
    },
    {
      "channel": 3,
      "note": 61,
      "start": 18.5097,
      "duration": 0.1231,
      "velocity": 113,
      "chip": "ym2612"
    },
    {
      "channel": 5,
      "note": 45,
      "start": 18.5848,
      "duration": 0.2827,
      "velocity": 103,
      "chip": "ym2612"
    },
    {
      "channel": 0,
      "note": 49,
      "start": 18.6551,
      "duration": 0.2836,
      "velocity": 103,
      "chip": "ym2612"
    },
    {
      "channel": 2,
      "note": 68,
      "start": 18.656,
      "duration": 0.123,
      "velocity": 113,
      "chip": "ym2612"
    },
    {
      "channel": 3,
      "note": 71,
      "start": 18.6585,
      "duration": 0.1221,
      "velocity": 113,
      "chip": "ym2612"
    },
    {
      "channel": 2,
      "note": 71,
      "start": 18.8039,
      "duration": 0.1231,
      "velocity": 113,
      "chip": "ym2612"
    },
    {
      "channel": 3,
      "note": 64,
      "start": 18.8059,
      "duration": 0.123,
      "velocity": 113,
      "chip": "ym2612"
    },
    {
      "channel": 5,
      "note": 49,
      "start": 18.8801,
      "duration": 0.2835,
      "velocity": 103,
      "chip": "ym2612"
    },
    {
      "channel": 0,
      "note": 50,
      "start": 18.9516,
      "duration": 2.9485,
      "velocity": 103,
      "chip": "ym2612"
    },
    {
      "channel": 1,
      "note": 64,
      "start": 18.9536,
      "duration": 0.5901,
      "velocity": 127,
      "chip": "ym2612"
    },
    {
      "channel": 2,
      "note": 62,
      "start": 18.9544,
      "duration": 0.1207,
      "velocity": 113,
      "chip": "ym2612"
    },
    {
      "channel": 3,
      "note": 69,
      "start": 18.957,
      "duration": 0.1199,
      "velocity": 113,
      "chip": "ym2612"
    },
    {
      "channel": 4,
      "note": 61,
      "start": 18.9576,
      "duration": 0.8352,
      "velocity": 97,
      "chip": "ym2612"
    },
    {
      "channel": 2,
      "note": 66,
      "start": 19.1001,
      "duration": 0.1232,
      "velocity": 113,
      "chip": "ym2612"
    },
    {
      "channel": 3,
      "note": 62,
      "start": 19.1025,
      "duration": 0.1226,
      "velocity": 113,
      "chip": "ym2612"
    },
    {
      "channel": 5,
      "note": 50,
      "start": 19.1768,
      "duration": 2.9482,
      "velocity": 103,
      "chip": "ym2612"
    },
    {
      "channel": 2,
      "note": 69,
      "start": 19.2482,
      "duration": 0.1231,
      "velocity": 113,
      "chip": "ym2612"
    },
    {
      "channel": 3,
      "note": 73,
      "start": 19.2507,
      "duration": 0.1223,
      "velocity": 113,
      "chip": "ym2612"
    },
    {
      "channel": 2,
      "note": 73,
      "start": 19.3962,
      "duration": 0.1232,
      "velocity": 113,
      "chip": "ym2612"
    },
    {
      "channel": 3,
      "note": 66,
      "start": 19.3983,
      "duration": 0.1228,
      "velocity": 113,
      "chip": "ym2612"
    },
    {
      "channel": 1,
      "note": 64,
      "start": 19.5439,
      "duration": 0.5933,
      "velocity": 127,
      "chip": "ym2612"
    },
    {
      "channel": 2,
      "note": 62,
      "start": 19.5446,
      "duration": 0.1228,
      "velocity": 113,
      "chip": "ym2612"
    },
    {
      "channel": 3,
      "note": 69,
      "start": 19.5467,
      "duration": 0.1228,
      "velocity": 113,
      "chip": "ym2612"
    },
    {
      "channel": 2,
      "note": 66,
      "start": 19.6924,
      "duration": 0.1232,
      "velocity": 113,
      "chip": "ym2612"
    },
    {
      "channel": 3,
      "note": 62,
      "start": 19.6944,
      "duration": 0.1229,
      "velocity": 113,
      "chip": "ym2612"
    },
    {
      "channel": 2,
      "note": 69,
      "start": 19.8405,
      "duration": 0.1231,
      "velocity": 113,
      "chip": "ym2612"
    },
    {
      "channel": 3,
      "note": 73,
      "start": 19.8425,
      "duration": 0.1228,
      "velocity": 113,
      "chip": "ym2612"
    },
    {
      "channel": 4,
      "note": 59,
      "start": 19.8431,
      "duration": 0.2459,
      "velocity": 97,
      "chip": "ym2612"
    },
    {
      "channel": 2,
      "note": 73,
      "start": 19.9885,
      "duration": 0.1232,
      "velocity": 113,
      "chip": "ym2612"
    },
    {
      "channel": 3,
      "note": 66,
      "start": 19.9906,
      "duration": 0.1228,
      "velocity": 113,
      "chip": "ym2612"
    },
    {
      "channel": 1,
      "note": 68,
      "start": 20.1373,
      "duration": 0.5921,
      "velocity": 115,
      "chip": "ym2612"
    },
    {
      "channel": 2,
      "note": 62,
      "start": 20.1381,
      "duration": 0.1216,
      "velocity": 113,
      "chip": "ym2612"
    },
    {
      "channel": 3,
      "note": 69,
      "start": 20.1402,
      "duration": 0.1212,
      "velocity": 113,
      "chip": "ym2612"
    },
    {
      "channel": 4,
      "note": 61,
      "start": 20.1408,
      "duration": 0.2447,
      "velocity": 97,
      "chip": "ym2612"
    },
    {
      "channel": 2,
      "note": 66,
      "start": 20.285,
      "duration": 0.1228,
      "velocity": 113,
      "chip": "ym2612"
    },
    {
      "channel": 3,
      "note": 62,
      "start": 20.2871,
      "duration": 0.1227,
      "velocity": 113,
      "chip": "ym2612"
    },
    {
      "channel": 2,
      "note": 69,
      "start": 20.4327,
      "duration": 0.1232,
      "velocity": 113,
      "chip": "ym2612"
    },
    {
      "channel": 3,
      "note": 73,
      "start": 20.4355,
      "duration": 0.1221,
      "velocity": 113,
      "chip": "ym2612"
    },
    {
      "channel": 4,
      "note": 66,
      "start": 20.4361,
      "duration": 0.5411,
      "velocity": 97,
      "chip": "ym2612"
    },
    {
      "channel": 2,
      "note": 73,
      "start": 20.5808,
      "duration": 0.1232,
      "velocity": 113,
      "chip": "ym2612"
    },
    {
      "channel": 3,
      "note": 66,
      "start": 20.5828,
      "duration": 0.123,
      "velocity": 113,
      "chip": "ym2612"
    },
    {
      "channel": 1,
      "note": 57,
      "start": 20.7296,
      "duration": 0.5924,
      "velocity": 127,
      "chip": "ym2612"
    },
    {
      "channel": 2,
      "note": 62,
      "start": 20.7303,
      "duration": 0.122,
      "velocity": 113,
      "chip": "ym2612"
    },
    {
      "channel": 3,
      "note": 69,
      "start": 20.7328,
      "duration": 0.1211,
      "velocity": 113,
      "chip": "ym2612"
    },
    {
      "channel": 2,
      "note": 66,
      "start": 20.8768,
      "duration": 0.1232,
      "velocity": 113,
      "chip": "ym2612"
    },
    {
      "channel": 3,
      "note": 62,
      "start": 20.8788,
      "duration": 0.1234,
      "velocity": 113,
      "chip": "ym2612"
    },
    {
      "channel": 2,
      "note": 69,
      "start": 21.0249,
      "duration": 0.1231,
      "velocity": 113,
      "chip": "ym2612"
    },
    {
      "channel": 3,
      "note": 73,
      "start": 21.0272,
      "duration": 0.1224,
      "velocity": 113,
      "chip": "ym2612"
    },
    {
      "channel": 4,
      "note": 61,
      "start": 21.0278,
      "duration": 1.7266,
      "velocity": 97,
      "chip": "ym2612"
    },
    {
      "channel": 2,
      "note": 73,
      "start": 21.1729,
      "duration": 0.1232,
      "velocity": 113,
      "chip": "ym2612"
    },
    {
      "channel": 3,
      "note": 66,
      "start": 21.1749,
      "duration": 0.123,
      "velocity": 113,
      "chip": "ym2612"
    },
    {
      "channel": 1,
      "note": 64,
      "start": 21.3222,
      "duration": 0.5908,
      "velocity": 127,
      "chip": "ym2612"
    },
    {
      "channel": 2,
      "note": 62,
      "start": 21.323,
      "duration": 0.1213,
      "velocity": 113,
      "chip": "ym2612"
    },
    {
      "channel": 3,
      "note": 69,
      "start": 21.3258,
      "duration": 0.1202,
      "velocity": 113,
      "chip": "ym2612"
    },
    {
      "channel": 2,
      "note": 66,
      "start": 21.4695,
      "duration": 0.123,
      "velocity": 113,
      "chip": "ym2612"
    },
    {
      "channel": 3,
      "note": 62,
      "start": 21.4714,
      "duration": 0.1227,
      "velocity": 113,
      "chip": "ym2612"
    },
    {
      "channel": 2,
      "note": 69,
      "start": 21.6173,
      "duration": 0.1231,
      "velocity": 113,
      "chip": "ym2612"
    },
    {
      "channel": 3,
      "note": 73,
      "start": 21.62,
      "duration": 0.1222,
      "velocity": 113,
      "chip": "ym2612"
    },
    {
      "channel": 2,
      "note": 73,
      "start": 21.7653,
      "duration": 0.1232,
      "velocity": 113,
      "chip": "ym2612"
    },
    {
      "channel": 3,
      "note": 66,
      "start": 21.7673,
      "duration": 0.1229,
      "velocity": 113,
      "chip": "ym2612"
    },
    {
      "channel": 0,
      "note": 57,
      "start": 21.9127,
      "duration": 0.5797,
      "velocity": 103,
      "chip": "ym2612"
    },
    {
      "channel": 1,
      "note": 64,
      "start": 21.9133,
      "duration": 0.5932,
      "velocity": 127,
      "chip": "ym2612"
    },
    {
      "channel": 2,
      "note": 62,
      "start": 21.914,
      "duration": 0.1226,
      "velocity": 113,
      "chip": "ym2612"
    },
    {
      "channel": 3,
      "note": 69,
      "start": 21.9161,
      "duration": 0.1221,
      "velocity": 113,
      "chip": "ym2612"
    },
    {
      "channel": 2,
      "note": 66,
      "start": 22.0615,
      "duration": 0.1235,
      "velocity": 113,
      "chip": "ym2612"
    },
    {
      "channel": 3,
      "note": 62,
      "start": 22.0635,
      "duration": 0.1232,
      "velocity": 113,
      "chip": "ym2612"
    },
    {
      "channel": 5,
      "note": 57,
      "start": 22.1382,
      "duration": 0.5791,
      "velocity": 103,
      "chip": "ym2612"
    },
    {
      "channel": 2,
      "note": 69,
      "start": 22.2096,
      "duration": 0.1232,
      "velocity": 113,
      "chip": "ym2612"
    },
    {
      "channel": 3,
      "note": 73,
      "start": 22.2116,
      "duration": 0.1231,
      "velocity": 113,
      "chip": "ym2612"
    },
    {
      "channel": 2,
      "note": 73,
      "start": 22.3576,
      "duration": 0.1232,
      "velocity": 113,
      "chip": "ym2612"
    },
    {
      "channel": 3,
      "note": 66,
      "start": 22.3597,
      "duration": 0.1228,
      "velocity": 113,
      "chip": "ym2612"
    },
    {
      "channel": 0,
      "note": 54,
      "start": 22.5049,
      "duration": 0.58,
      "velocity": 103,
      "chip": "ym2612"
    },
    {
      "channel": 1,
      "note": 68,
      "start": 22.5067,
      "duration": 0.592,
      "velocity": 115,
      "chip": "ym2612"
    },
    {
      "channel": 2,
      "note": 62,
      "start": 22.5075,
      "duration": 0.1214,
      "velocity": 113,
      "chip": "ym2612"
    },
    {
      "channel": 3,
      "note": 69,
      "start": 22.5096,
      "duration": 0.121,
      "velocity": 113,
      "chip": "ym2612"
    },
    {
      "channel": 2,
      "note": 66,
      "start": 22.6537,
      "duration": 0.1232,
      "velocity": 113,
      "chip": "ym2612"
    },
    {
      "channel": 3,
      "note": 62,
      "start": 22.6558,
      "duration": 0.123,
      "velocity": 113,
      "chip": "ym2612"
    },
    {
      "channel": 5,
      "note": 54,
      "start": 22.7301,
      "duration": 0.5793,
      "velocity": 103,
      "chip": "ym2612"
    },
    {
      "channel": 2,
      "note": 69,
      "start": 22.8023,
      "duration": 0.1227,
      "velocity": 113,
      "chip": "ym2612"
    },
    {
      "channel": 3,
      "note": 73,
      "start": 22.8047,
      "duration": 0.122,
      "velocity": 113,
      "chip": "ym2612"
    },
    {
      "channel": 4,
      "note": 54,
      "start": 22.8053,
      "duration": 0.2451,
      "velocity": 97,
      "chip": "ym2612"
    },
    {
      "channel": 2,
      "note": 73,
      "start": 22.9499,
      "duration": 0.1232,
      "velocity": 113,
      "chip": "ym2612"
    },
    {
      "channel": 3,
      "note": 66,
      "start": 22.9523,
      "duration": 0.1228,
      "velocity": 113,
      "chip": "ym2612"
    },
    {
      "channel": 0,
      "note": 50,
      "start": 23.0972,
      "duration": 0.5797,
      "velocity": 103,
      "chip": "ym2612"
    },
    {
      "channel": 1,
      "note": 57,
      "start": 23.099,
      "duration": 0.5922,
      "velocity": 127,
      "chip": "ym2612"
    },
    {
      "channel": 2,
      "note": 62,
      "start": 23.0997,
      "duration": 0.1213,
      "velocity": 113,
      "chip": "ym2612"
    },
    {
      "channel": 3,
      "note": 69,
      "start": 23.1029,
      "duration": 0.1198,
      "velocity": 113,
      "chip": "ym2612"
    },
    {
      "channel": 4,
      "note": 56,
      "start": 23.1035,
      "duration": 0.2429,
      "velocity": 97,
      "chip": "ym2612"
    },
    {
      "channel": 2,
      "note": 66,
      "start": 23.2459,
      "duration": 0.1232,
      "velocity": 113,
      "chip": "ym2612"
    },
    {
      "channel": 3,
      "note": 62,
      "start": 23.248,
      "duration": 0.1232,
      "velocity": 113,
      "chip": "ym2612"
    },
    {
      "channel": 5,
      "note": 50,
      "start": 23.3226,
      "duration": 0.5796,
      "velocity": 103,
      "chip": "ym2612"
    },
    {
      "channel": 2,
      "note": 69,
      "start": 23.394,
      "duration": 0.1231,
      "velocity": 113,
      "chip": "ym2612"
    },
    {
      "channel": 3,
      "note": 73,
      "start": 23.3968,
      "duration": 0.1224,
      "velocity": 113,
      "chip": "ym2612"
    },
    {
      "channel": 4,
      "note": 57,
      "start": 23.3974,
      "duration": 0.2451,
      "velocity": 97,
      "chip": "ym2612"
    },
    {
      "channel": 2,
      "note": 73,
      "start": 23.542,
      "duration": 0.1232,
      "velocity": 113,
      "chip": "ym2612"
    },
    {
      "channel": 3,
      "note": 66,
      "start": 23.5441,
      "duration": 0.1232,
      "velocity": 113,
      "chip": "ym2612"
    },
    {
      "channel": 0,
      "note": 49,
      "start": 23.6894,
      "duration": 2.9488,
      "velocity": 103,
      "chip": "ym2612"
    },
    {
      "channel": 1,
      "note": 64,
      "start": 23.6913,
      "duration": 0.5907,
      "velocity": 127,
      "chip": "ym2612"
    },
    {
      "channel": 2,
      "note": 61,
      "start": 23.6922,
      "duration": 0.1212,
      "velocity": 113,
      "chip": "ym2612"
    },
    {
      "channel": 3,
      "note": 68,
      "start": 23.6951,
      "duration": 0.12,
      "velocity": 113,
      "chip": "ym2612"
    },
    {
      "channel": 4,
      "note": 59,
      "start": 23.6957,
      "duration": 0.8353,
      "velocity": 97,
      "chip": "ym2612"
    },
    {
      "channel": 2,
      "note": 64,
      "start": 23.8383,
      "duration": 0.1232,
      "velocity": 113,
      "chip": "ym2612"
    },
    {
      "channel": 3,
      "note": 61,
      "start": 23.8403,
      "duration": 0.1231,
      "velocity": 113,
      "chip": "ym2612"
    },
    {
      "channel": 5,
      "note": 49,
      "start": 23.9151,
      "duration": 2.9482,
      "velocity": 103,
      "chip": "ym2612"
    },
    {
      "channel": 2,
      "note": 68,
      "start": 23.9864,
      "duration": 0.1232,
      "velocity": 113,
      "chip": "ym2612"
    },
    {
      "channel": 3,
      "note": 71,
      "start": 23.9889,
      "duration": 0.1223,
      "velocity": 113,
      "chip": "ym2612"
    },
    {
      "channel": 2,
      "note": 71,
      "start": 24.1349,
      "duration": 0.1228,
      "velocity": 113,
      "chip": "ym2612"
    },
    {
      "channel": 3,
      "note": 64,
      "start": 24.1369,
      "duration": 0.1224,
      "velocity": 113,
      "chip": "ym2612"
    },
    {
      "channel": 1,
      "note": 64,
      "start": 24.2822,
      "duration": 0.5932,
      "velocity": 127,
      "chip": "ym2612"
    },
    {
      "channel": 2,
      "note": 61,
      "start": 24.2829,
      "duration": 0.1228,
      "velocity": 113,
      "chip": "ym2612"
    },
    {
      "channel": 3,
      "note": 68,
      "start": 24.2853,
      "duration": 0.1221,
      "velocity": 113,
      "chip": "ym2612"
    },
    {
      "channel": 2,
      "note": 64,
      "start": 24.4306,
      "duration": 0.1232,
      "velocity": 113,
      "chip": "ym2612"
    },
    {
      "channel": 3,
      "note": 61,
      "start": 24.4326,
      "duration": 0.1229,
      "velocity": 113,
      "chip": "ym2612"
    },
    {
      "channel": 2,
      "note": 68,
      "start": 24.5787,
      "duration": 0.1235,
      "velocity": 113,
      "chip": "ym2612"
    },
    {
      "channel": 3,
      "note": 71,
      "start": 24.5807,
      "duration": 0.1232,
      "velocity": 113,
      "chip": "ym2612"
    },
    {
      "channel": 4,
      "note": 57,
      "start": 24.5813,
      "duration": 0.2459,
      "velocity": 97,
      "chip": "ym2612"
    },
    {
      "channel": 2,
      "note": 71,
      "start": 24.7268,
      "duration": 0.1232,
      "velocity": 113,
      "chip": "ym2612"
    },
    {
      "channel": 3,
      "note": 64,
      "start": 24.7289,
      "duration": 0.1232,
      "velocity": 113,
      "chip": "ym2612"
    },
    {
      "channel": 1,
      "note": 68,
      "start": 24.8756,
      "duration": 0.5924,
      "velocity": 115,
      "chip": "ym2612"
    },
    {
      "channel": 2,
      "note": 61,
      "start": 24.8763,
      "duration": 0.1217,
      "velocity": 113,
      "chip": "ym2612"
    },
    {
      "channel": 3,
      "note": 68,
      "start": 24.8784,
      "duration": 0.1213,
      "velocity": 113,
      "chip": "ym2612"
    },
    {
      "channel": 4,
      "note": 59,
      "start": 24.8789,
      "duration": 0.2444,
      "velocity": 97,
      "chip": "ym2612"
    },
    {
      "channel": 2,
      "note": 64,
      "start": 25.0229,
      "duration": 0.1232,
      "velocity": 113,
      "chip": "ym2612"
    },
    {
      "channel": 3,
      "note": 61,
      "start": 25.0249,
      "duration": 0.1231,
      "velocity": 113,
      "chip": "ym2612"
    },
    {
      "channel": 2,
      "note": 68,
      "start": 25.1709,
      "duration": 0.1232,
      "velocity": 113,
      "chip": "ym2612"
    },
    {
      "channel": 3,
      "note": 71,
      "start": 25.1733,
      "duration": 0.1225,
      "velocity": 113,
      "chip": "ym2612"
    },
    {
      "channel": 4,
      "note": 64,
      "start": 25.1738,
      "duration": 0.5415,
      "velocity": 97,
      "chip": "ym2612"
    },
    {
      "channel": 2,
      "note": 71,
      "start": 25.3194,
      "duration": 0.1228,
      "velocity": 113,
      "chip": "ym2612"
    },
    {
      "channel": 3,
      "note": 64,
      "start": 25.3214,
      "duration": 0.1227,
      "velocity": 113,
      "chip": "ym2612"
    },
    {
      "channel": 1,
      "note": 57,
      "start": 25.4681,
      "duration": 0.5922,
      "velocity": 127,
      "chip": "ym2612"
    },
    {
      "channel": 2,
      "note": 61,
      "start": 25.4689,
      "duration": 0.1212,
      "velocity": 113,
      "chip": "ym2612"
    },
    {
      "channel": 3,
      "note": 68,
      "start": 25.4714,
      "duration": 0.1204,
      "velocity": 113,
      "chip": "ym2612"
    },
    {
      "channel": 2,
      "note": 64,
      "start": 25.615,
      "duration": 0.1232,
      "velocity": 113,
      "chip": "ym2612"
    },
    {
      "channel": 3,
      "note": 61,
      "start": 25.617,
      "duration": 0.1231,
      "velocity": 113,
      "chip": "ym2612"
    },
    {
      "channel": 2,
      "note": 68,
      "start": 25.7631,
      "duration": 0.1232,
      "velocity": 113,
      "chip": "ym2612"
    },
    {
      "channel": 3,
      "note": 71,
      "start": 25.7654,
      "duration": 0.1224,
      "velocity": 113,
      "chip": "ym2612"
    },
    {
      "channel": 4,
      "note": 59,
      "start": 25.766,
      "duration": 0.5418,
      "velocity": 97,
      "chip": "ym2612"
    },
    {
      "channel": 2,
      "note": 71,
      "start": 25.9112,
      "duration": 0.1231,
      "velocity": 113,
      "chip": "ym2612"
    },
    {
      "channel": 3,
      "note": 64,
      "start": 25.9132,
      "duration": 0.1234,
      "velocity": 113,
      "chip": "ym2612"
    },
    {
      "channel": 1,
      "note": 64,
      "start": 26.0605,
      "duration": 0.5912,
      "velocity": 127,
      "chip": "ym2612"
    },
    {
      "channel": 2,
      "note": 61,
      "start": 26.0612,
      "duration": 0.1213,
      "velocity": 113,
      "chip": "ym2612"
    },
    {
      "channel": 3,
      "note": 68,
      "start": 26.064,
      "duration": 0.1202,
      "velocity": 113,
      "chip": "ym2612"
    },
    {
      "channel": 2,
      "note": 64,
      "start": 26.2074,
      "duration": 0.1232,
      "velocity": 113,
      "chip": "ym2612"
    },
    {
      "channel": 3,
      "note": 61,
      "start": 26.2094,
      "duration": 0.1229,
      "velocity": 113,
      "chip": "ym2612"
    },
    {
      "channel": 2,
      "note": 68,
      "start": 26.3555,
      "duration": 0.1232,
      "velocity": 113,
      "chip": "ym2612"
    },
    {
      "channel": 3,
      "note": 71,
      "start": 26.3578,
      "duration": 0.1226,
      "velocity": 113,
      "chip": "ym2612"
    },
    {
      "channel": 4,
      "note": 61,
      "start": 26.3583,
      "duration": 0.5418,
      "velocity": 97,
      "chip": "ym2612"
    },
    {
      "channel": 2,
      "note": 71,
      "start": 26.5037,
      "duration": 0.1231,
      "velocity": 113,
      "chip": "ym2612"
    },
    {
      "channel": 3,
      "note": 64,
      "start": 26.5057,
      "duration": 0.1228,
      "velocity": 113,
      "chip": "ym2612"
    },
    {
      "channel": 0,
      "note": 56,
      "start": 26.6508,
      "duration": 0.5798,
      "velocity": 103,
      "chip": "ym2612"
    },
    {
      "channel": 1,
      "note": 64,
      "start": 26.6518,
      "duration": 0.5929,
      "velocity": 127,
      "chip": "ym2612"
    },
    {
      "channel": 2,
      "note": 61,
      "start": 26.6526,
      "duration": 0.1222,
      "velocity": 113,
      "chip": "ym2612"
    },
    {
      "channel": 3,
      "note": 68,
      "start": 26.6546,
      "duration": 0.1219,
      "velocity": 113,
      "chip": "ym2612"
    },
    {
      "channel": 2,
      "note": 64,
      "start": 26.7997,
      "duration": 0.1232,
      "velocity": 113,
      "chip": "ym2612"
    },
    {
      "channel": 3,
      "note": 61,
      "start": 26.8021,
      "duration": 0.1225,
      "velocity": 113,
      "chip": "ym2612"
    },
    {
      "channel": 5,
      "note": 56,
      "start": 26.876,
      "duration": 0.5795,
      "velocity": 103,
      "chip": "ym2612"
    },
    {
      "channel": 2,
      "note": 68,
      "start": 26.9478,
      "duration": 0.1232,
      "velocity": 113,
      "chip": "ym2612"
    },
    {
      "channel": 3,
      "note": 71,
      "start": 26.9499,
      "duration": 0.1228,
      "velocity": 113,
      "chip": "ym2612"
    },
    {
      "channel": 4,
      "note": 62,
      "start": 26.9504,
      "duration": 0.542,
      "velocity": 97,
      "chip": "ym2612"
    },
    {
      "channel": 2,
      "note": 71,
      "start": 27.0959,
      "duration": 0.1232,
      "velocity": 113,
      "chip": "ym2612"
    },
    {
      "channel": 3,
      "note": 64,
      "start": 27.098,
      "duration": 0.1229,
      "velocity": 113,
      "chip": "ym2612"
    },
    {
      "channel": 0,
      "note": 52,
      "start": 27.2431,
      "duration": 0.5797,
      "velocity": 103,
      "chip": "ym2612"
    },
    {
      "channel": 1,
      "note": 68,
      "start": 27.245,
      "duration": 0.5921,
      "velocity": 115,
      "chip": "ym2612"
    },
    {
      "channel": 2,
      "note": 61,
      "start": 27.2457,
      "duration": 0.1214,
      "velocity": 113,
      "chip": "ym2612"
    },
    {
      "channel": 3,
      "note": 68,
      "start": 27.2478,
      "duration": 0.1215,
      "velocity": 113,
      "chip": "ym2612"
    },
    {
      "channel": 2,
      "note": 64,
      "start": 27.392,
      "duration": 0.1232,
      "velocity": 113,
      "chip": "ym2612"
    },
    {
      "channel": 3,
      "note": 61,
      "start": 27.3939,
      "duration": 0.123,
      "velocity": 113,
      "chip": "ym2612"
    },
    {
      "channel": 5,
      "note": 52,
      "start": 27.4687,
      "duration": 0.5788,
      "velocity": 103,
      "chip": "ym2612"
    },
    {
      "channel": 2,
      "note": 68,
      "start": 27.5401,
      "duration": 0.1232,
      "velocity": 113,
      "chip": "ym2612"
    },
    {
      "channel": 3,
      "note": 71,
      "start": 27.5421,
      "duration": 0.1228,
      "velocity": 113,
      "chip": "ym2612"
    },
    {
      "channel": 4,
      "note": 61,
      "start": 27.5427,
      "duration": 0.2459,
      "velocity": 97,
      "chip": "ym2612"
    },
    {
      "channel": 2,
      "note": 71,
      "start": 27.6882,
      "duration": 0.1231,
      "velocity": 113,
      "chip": "ym2612"
    },
    {
      "channel": 3,
      "note": 64,
      "start": 27.6902,
      "duration": 0.123,
      "velocity": 113,
      "chip": "ym2612"
    },
    {
      "channel": 0,
      "note": 56,
      "start": 27.8354,
      "duration": 0.5797,
      "velocity": 103,
      "chip": "ym2612"
    },
    {
      "channel": 1,
      "note": 57,
      "start": 27.8373,
      "duration": 0.5921,
      "velocity": 127,
      "chip": "ym2612"
    },
    {
      "channel": 2,
      "note": 61,
      "start": 27.8379,
      "duration": 0.1213,
      "velocity": 113,
      "chip": "ym2612"
    },
    {
      "channel": 3,
      "note": 68,
      "start": 27.8403,
      "duration": 0.1207,
      "velocity": 113,
      "chip": "ym2612"
    },
    {
      "channel": 4,
      "note": 54,
      "start": 27.841,
      "duration": 0.0958,
      "velocity": 97,
      "chip": "ym2612"
    },
    {
      "channel": 2,
      "note": 64,
      "start": 27.9841,
      "duration": 0.1232,
      "velocity": 113,
      "chip": "ym2612"
    },
    {
      "channel": 3,
      "note": 61,
      "start": 27.9868,
      "duration": 0.1226,
      "velocity": 113,
      "chip": "ym2612"
    },
    {
      "channel": 4,
      "note": 56,
      "start": 27.9873,
      "duration": 0.0976,
      "velocity": 97,
      "chip": "ym2612"
    },
    {
      "channel": 5,
      "note": 56,
      "start": 28.0609,
      "duration": 0.5793,
      "velocity": 103,
      "chip": "ym2612"
    },
    {
      "channel": 2,
      "note": 68,
      "start": 28.1322,
      "duration": 0.1232,
      "velocity": 113,
      "chip": "ym2612"
    },
    {
      "channel": 3,
      "note": 71,
      "start": 28.1354,
      "duration": 0.122,
      "velocity": 113,
      "chip": "ym2612"
    },
    {
      "channel": 4,
      "note": 57,
      "start": 28.136,
      "duration": 0.0967,
      "velocity": 97,
      "chip": "ym2612"
    },
    {
      "channel": 2,
      "note": 71,
      "start": 28.2803,
      "duration": 0.1231,
      "velocity": 113,
      "chip": "ym2612"
    },
    {
      "channel": 3,
      "note": 64,
      "start": 28.2831,
      "duration": 0.1223,
      "velocity": 113,
      "chip": "ym2612"
    },
    {
      "channel": 4,
      "note": 59,
      "start": 28.2837,
      "duration": 0.097,
      "velocity": 97,
      "chip": "ym2612"
    },
    {
      "channel": 0,
      "note": 47,
      "start": 28.4277,
      "duration": 2.3566,
      "velocity": 103,
      "chip": "ym2612"
    },
    {
      "channel": 1,
      "note": 64,
      "start": 28.4296,
      "duration": 0.5906,
      "velocity": 127,
      "chip": "ym2612"
    },
    {
      "channel": 2,
      "note": 62,
      "start": 28.4305,
      "duration": 0.1216,
      "velocity": 113,
      "chip": "ym2612"
    },
    {
      "channel": 3,
      "note": 69,
      "start": 28.4336,
      "duration": 0.1203,
      "velocity": 113,
      "chip": "ym2612"
    },
    {
      "channel": 4,
      "note": 61,
      "start": 28.4342,
      "duration": 0.8354,
      "velocity": 97,
      "chip": "ym2612"
    },
    {
      "channel": 2,
      "note": 66,
      "start": 28.5766,
      "duration": 0.1232,
      "velocity": 113,
      "chip": "ym2612"
    },
    {
      "channel": 3,
      "note": 62,
      "start": 28.579,
      "duration": 0.123,
      "velocity": 113,
      "chip": "ym2612"
    },
    {
      "channel": 5,
      "note": 47,
      "start": 28.6537,
      "duration": 2.3554,
      "velocity": 103,
      "chip": "ym2612"
    },
    {
      "channel": 2,
      "note": 69,
      "start": 28.7247,
      "duration": 0.1231,
      "velocity": 113,
      "chip": "ym2612"
    },
    {
      "channel": 3,
      "note": 73,
      "start": 28.7273,
      "duration": 0.1222,
      "velocity": 113,
      "chip": "ym2612"
    },
    {
      "channel": 2,
      "note": 73,
      "start": 28.8727,
      "duration": 0.1232,
      "velocity": 113,
      "chip": "ym2612"
    },
    {
      "channel": 3,
      "note": 66,
      "start": 28.8747,
      "duration": 0.1228,
      "velocity": 113,
      "chip": "ym2612"
    },
    {
      "channel": 1,
      "note": 64,
      "start": 29.0203,
      "duration": 0.5933,
      "velocity": 127,
      "chip": "ym2612"
    },
    {
      "channel": 2,
      "note": 62,
      "start": 29.0211,
      "duration": 0.1228,
      "velocity": 113,
      "chip": "ym2612"
    },
    {
      "channel": 3,
      "note": 69,
      "start": 29.0232,
      "duration": 0.1225,
      "velocity": 113,
      "chip": "ym2612"
    },
    {
      "channel": 2,
      "note": 66,
      "start": 29.1692,
      "duration": 0.1228,
      "velocity": 113,
      "chip": "ym2612"
    },
    {
      "channel": 3,
      "note": 62,
      "start": 29.1712,
      "duration": 0.1225,
      "velocity": 113,
      "chip": "ym2612"
    },
    {
      "channel": 2,
      "note": 69,
      "start": 29.317,
      "duration": 0.1231,
      "velocity": 113,
      "chip": "ym2612"
    },
    {
      "channel": 3,
      "note": 73,
      "start": 29.3194,
      "duration": 0.1224,
      "velocity": 113,
      "chip": "ym2612"
    },
    {
      "channel": 4,
      "note": 59,
      "start": 29.32,
      "duration": 0.2455,
      "velocity": 97,
      "chip": "ym2612"
    },
    {
      "channel": 2,
      "note": 73,
      "start": 29.4649,
      "duration": 0.1232,
      "velocity": 113,
      "chip": "ym2612"
    },
    {
      "channel": 3,
      "note": 66,
      "start": 29.467,
      "duration": 0.1229,
      "velocity": 113,
      "chip": "ym2612"
    },
    {
      "channel": 1,
      "note": 68,
      "start": 29.6138,
      "duration": 0.5921,
      "velocity": 115,
      "chip": "ym2612"
    },
    {
      "channel": 2,
      "note": 62,
      "start": 29.6146,
      "duration": 0.1216,
      "velocity": 113,
      "chip": "ym2612"
    },
    {
      "channel": 3,
      "note": 69,
      "start": 29.6166,
      "duration": 0.1212,
      "velocity": 113,
      "chip": "ym2612"
    },
    {
      "channel": 4,
      "note": 61,
      "start": 29.6172,
      "duration": 0.2444,
      "velocity": 97,
      "chip": "ym2612"
    },
    {
      "channel": 2,
      "note": 66,
      "start": 29.7611,
      "duration": 0.1232,
      "velocity": 113,
      "chip": "ym2612"
    },
    {
      "channel": 3,
      "note": 62,
      "start": 29.7632,
      "duration": 0.1234,
      "velocity": 113,
      "chip": "ym2612"
    },
    {
      "channel": 2,
      "note": 69,
      "start": 29.9093,
      "duration": 0.1231,
      "velocity": 113,
      "chip": "ym2612"
    },
    {
      "channel": 3,
      "note": 73,
      "start": 29.9116,
      "duration": 0.1224,
      "velocity": 113,
      "chip": "ym2612"
    },
    {
      "channel": 4,
      "note": 66,
      "start": 29.9121,
      "duration": 0.5419,
      "velocity": 97,
      "chip": "ym2612"
    },
    {
      "channel": 2,
      "note": 73,
      "start": 30.0572,
      "duration": 0.1232,
      "velocity": 113,
      "chip": "ym2612"
    },
    {
      "channel": 3,
      "note": 66,
      "start": 30.0593,
      "duration": 0.123,
      "velocity": 113,
      "chip": "ym2612"
    },
    {
      "channel": 1,
      "note": 57,
      "start": 30.2061,
      "duration": 0.5925,
      "velocity": 127,
      "chip": "ym2612"
    },
    {
      "channel": 2,
      "note": 62,
      "start": 30.2068,
      "duration": 0.1216,
      "velocity": 113,
      "chip": "ym2612"
    },
    {
      "channel": 3,
      "note": 69,
      "start": 30.2093,
      "duration": 0.1207,
      "velocity": 113,
      "chip": "ym2612"
    },
    {
      "channel": 2,
      "note": 66,
      "start": 30.3532,
      "duration": 0.1232,
      "velocity": 113,
      "chip": "ym2612"
    },
    {
      "channel": 3,
      "note": 62,
      "start": 30.3553,
      "duration": 0.123,
      "velocity": 113,
      "chip": "ym2612"
    },
    {
      "channel": 2,
      "note": 69,
      "start": 30.5018,
      "duration": 0.1227,
      "velocity": 113,
      "chip": "ym2612"
    },
    {
      "channel": 3,
      "note": 73,
      "start": 30.5041,
      "duration": 0.1221,
      "velocity": 113,
      "chip": "ym2612"
    },
    {
      "channel": 4,
      "note": 61,
      "start": 30.5046,
      "duration": 1.726,
      "velocity": 97,
      "chip": "ym2612"
    },
    {
      "channel": 2,
      "note": 73,
      "start": 30.6493,
      "duration": 0.1232,
      "velocity": 113,
      "chip": "ym2612"
    },
    {
      "channel": 3,
      "note": 66,
      "start": 30.6518,
      "duration": 0.1227,
      "velocity": 113,
      "chip": "ym2612"
    },
    {
      "channel": 0,
      "note": 40,
      "start": 30.7969,
      "duration": 0.5796,
      "velocity": 103,
      "chip": "ym2612"
    },
    {
      "channel": 1,
      "note": 64,
      "start": 30.7988,
      "duration": 0.5907,
      "velocity": 127,
      "chip": "ym2612"
    },
    {
      "channel": 2,
      "note": 62,
      "start": 30.7995,
      "duration": 0.1212,
      "velocity": 113,
      "chip": "ym2612"
    },
    {
      "channel": 3,
      "note": 69,
      "start": 30.8026,
      "duration": 0.1199,
      "velocity": 113,
      "chip": "ym2612"
    },
    {
      "channel": 2,
      "note": 66,
      "start": 30.9457,
      "duration": 0.1235,
      "velocity": 113,
      "chip": "ym2612"
    },
    {
      "channel": 3,
      "note": 62,
      "start": 30.9477,
      "duration": 0.1232,
      "velocity": 113,
      "chip": "ym2612"
    },
    {
      "channel": 5,
      "note": 40,
      "start": 31.0222,
      "duration": 0.5796,
      "velocity": 103,
      "chip": "ym2612"
    },
    {
      "channel": 2,
      "note": 69,
      "start": 31.0938,
      "duration": 0.1231,
      "velocity": 113,
      "chip": "ym2612"
    },
    {
      "channel": 3,
      "note": 73,
      "start": 31.0961,
      "duration": 0.1229,
      "velocity": 113,
      "chip": "ym2612"
    },
    {
      "channel": 2,
      "note": 73,
      "start": 31.2418,
      "duration": 0.1232,
      "velocity": 113,
      "chip": "ym2612"
    },
    {
      "channel": 3,
      "note": 66,
      "start": 31.2438,
      "duration": 0.1229,
      "velocity": 113,
      "chip": "ym2612"
    },
    {
      "channel": 0,
      "note": 42,
      "start": 31.389,
      "duration": 0.5797,
      "velocity": 103,
      "chip": "ym2612"
    },
    {
      "channel": 1,
      "note": 64,
      "start": 31.3897,
      "duration": 0.5933,
      "velocity": 127,
      "chip": "ym2612"
    },
    {
      "channel": 2,
      "note": 62,
      "start": 31.3905,
      "duration": 0.1226,
      "velocity": 113,
      "chip": "ym2612"
    },
    {
      "channel": 3,
      "note": 69,
      "start": 31.3925,
      "duration": 0.1222,
      "velocity": 113,
      "chip": "ym2612"
    },
    {
      "channel": 2,
      "note": 66,
      "start": 31.538,
      "duration": 0.1232,
      "velocity": 113,
      "chip": "ym2612"
    },
    {
      "channel": 3,
      "note": 62,
      "start": 31.54,
      "duration": 0.1228,
      "velocity": 113,
      "chip": "ym2612"
    },
    {
      "channel": 5,
      "note": 42,
      "start": 31.6143,
      "duration": 0.5795,
      "velocity": 103,
      "chip": "ym2612"
    },
    {
      "channel": 2,
      "note": 69,
      "start": 31.6862,
      "duration": 0.123,
      "velocity": 113,
      "chip": "ym2612"
    },
    {
      "channel": 3,
      "note": 73,
      "start": 31.6883,
      "duration": 0.1226,
      "velocity": 113,
      "chip": "ym2612"
    },
    {
      "channel": 2,
      "note": 73,
      "start": 31.8341,
      "duration": 0.1232,
      "velocity": 113,
      "chip": "ym2612"
    },
    {
      "channel": 3,
      "note": 66,
      "start": 31.8365,
      "duration": 0.1224,
      "velocity": 113,
      "chip": "ym2612"
    },
    {
      "channel": 0,
      "note": 44,
      "start": 31.9813,
      "duration": 0.5797,
      "velocity": 103,
      "chip": "ym2612"
    },
    {
      "channel": 1,
      "note": 68,
      "start": 31.9831,
      "duration": 0.5922,
      "velocity": 115,
      "chip": "ym2612"
    },
    {
      "channel": 2,
      "note": 62,
      "start": 31.9839,
      "duration": 0.1214,
      "velocity": 113,
      "chip": "ym2612"
    },
    {
      "channel": 3,
      "note": 69,
      "start": 31.9864,
      "duration": 0.1206,
      "velocity": 113,
      "chip": "ym2612"
    },
    {
      "channel": 2,
      "note": 66,
      "start": 32.1302,
      "duration": 0.1232,
      "velocity": 113,
      "chip": "ym2612"
    },
    {
      "channel": 3,
      "note": 62,
      "start": 32.1322,
      "duration": 0.123,
      "velocity": 113,
      "chip": "ym2612"
    },
    {
      "channel": 5,
      "note": 44,
      "start": 32.2065,
      "duration": 0.5797,
      "velocity": 103,
      "chip": "ym2612"
    },
    {
      "channel": 2,
      "note": 69,
      "start": 32.2784,
      "duration": 0.1235,
      "velocity": 113,
      "chip": "ym2612"
    },
    {
      "channel": 3,
      "note": 73,
      "start": 32.2807,
      "duration": 0.1229,
      "velocity": 113,
      "chip": "ym2612"
    },
    {
      "channel": 4,
      "note": 69,
      "start": 32.2813,
      "duration": 0.2455,
      "velocity": 97,
      "chip": "ym2612"
    },
    {
      "channel": 2,
      "note": 73,
      "start": 32.4264,
      "duration": 0.1232,
      "velocity": 113,
      "chip": "ym2612"
    },
    {
      "channel": 3,
      "note": 66,
      "start": 32.4284,
      "duration": 0.1235,
      "velocity": 113,
      "chip": "ym2612"
    },
    {
      "channel": 0,
      "note": 47,
      "start": 32.5737,
      "duration": 0.5797,
      "velocity": 103,
      "chip": "ym2612"
    },
    {
      "channel": 1,
      "note": 57,
      "start": 32.5755,
      "duration": 0.5921,
      "velocity": 127,
      "chip": "ym2612"
    },
    {
      "channel": 2,
      "note": 62,
      "start": 32.5761,
      "duration": 0.1213,
      "velocity": 113,
      "chip": "ym2612"
    },
    {
      "channel": 3,
      "note": 69,
      "start": 32.579,
      "duration": 0.1202,
      "velocity": 113,
      "chip": "ym2612"
    },
    {
      "channel": 4,
      "note": 68,
      "start": 32.5796,
      "duration": 0.2432,
      "velocity": 97,
      "chip": "ym2612"
    },
    {
      "channel": 2,
      "note": 66,
      "start": 32.7224,
      "duration": 0.1232,
      "velocity": 113,
      "chip": "ym2612"
    },
    {
      "channel": 3,
      "note": 62,
      "start": 32.7244,
      "duration": 0.1232,
      "velocity": 113,
      "chip": "ym2612"
    },
    {
      "channel": 5,
      "note": 47,
      "start": 32.7992,
      "duration": 0.5791,
      "velocity": 103,
      "chip": "ym2612"
    },
    {
      "channel": 2,
      "note": 69,
      "start": 32.8705,
      "duration": 0.1232,
      "velocity": 113,
      "chip": "ym2612"
    },
    {
      "channel": 3,
      "note": 73,
      "start": 32.8733,
      "duration": 0.122,
      "velocity": 113,
      "chip": "ym2612"
    },
    {
      "channel": 4,
      "note": 64,
      "start": 32.8738,
      "duration": 0.2455,
      "velocity": 97,
      "chip": "ym2612"
    },
    {
      "channel": 2,
      "note": 73,
      "start": 33.0189,
      "duration": 0.1228,
      "velocity": 113,
      "chip": "ym2612"
    },
    {
      "channel": 3,
      "note": 66,
      "start": 33.0209,
      "duration": 0.1229,
      "velocity": 113,
      "chip": "ym2612"
    },
    {
      "channel": 0,
      "note": 45,
      "start": 33.1659,
      "duration": 1.7643,
      "velocity": 103,
      "chip": "ym2612"
    },
    {
      "channel": 1,
      "note": 64,
      "start": 33.1681,
      "duration": 0.5903,
      "velocity": 127,
      "chip": "ym2612"
    },
    {
      "channel": 2,
      "note": 61,
      "start": 33.169,
      "duration": 0.1209,
      "velocity": 113,
      "chip": "ym2612"
    },
    {
      "channel": 3,
      "note": 68,
      "start": 33.1719,
      "duration": 0.1197,
      "velocity": 113,
      "chip": "ym2612"
    },
    {
      "channel": 4,
      "note": 59,
      "start": 33.1725,
      "duration": 0.8349,
      "velocity": 97,
      "chip": "ym2612"
    },
    {
      "channel": 2,
      "note": 64,
      "start": 33.3148,
      "duration": 0.1232,
      "velocity": 113,
      "chip": "ym2612"
    },
    {
      "channel": 3,
      "note": 61,
      "start": 33.3168,
      "duration": 0.1231,
      "velocity": 113,
      "chip": "ym2612"
    },
    {
      "channel": 5,
      "note": 45,
      "start": 33.3915,
      "duration": 1.7635,
      "velocity": 103,
      "chip": "ym2612"
    },
    {
      "channel": 2,
      "note": 68,
      "start": 33.4628,
      "duration": 0.1232,
      "velocity": 113,
      "chip": "ym2612"
    },
    {
      "channel": 3,
      "note": 71,
      "start": 33.4654,
      "duration": 0.1224,
      "velocity": 113,
      "chip": "ym2612"
    },
    {
      "channel": 2,
      "note": 71,
      "start": 33.611,
      "duration": 0.1231,
      "velocity": 113,
      "chip": "ym2612"
    },
    {
      "channel": 3,
      "note": 64,
      "start": 33.613,
      "duration": 0.1232,
      "velocity": 113,
      "chip": "ym2612"
    },
    {
      "channel": 1,
      "note": 64,
      "start": 33.7586,
      "duration": 0.5937,
      "velocity": 127,
      "chip": "ym2612"
    },
    {
      "channel": 2,
      "note": 61,
      "start": 33.7593,
      "duration": 0.1228,
      "velocity": 113,
      "chip": "ym2612"
    },
    {
      "channel": 3,
      "note": 68,
      "start": 33.7614,
      "duration": 0.1224,
      "velocity": 113,
      "chip": "ym2612"
    },
    {
      "channel": 2,
      "note": 64,
      "start": 33.9071,
      "duration": 0.1232,
      "velocity": 113,
      "chip": "ym2612"
    },
    {
      "channel": 3,
      "note": 61,
      "start": 33.909,
      "duration": 0.1231,
      "velocity": 113,
      "chip": "ym2612"
    },
    {
      "channel": 2,
      "note": 68,
      "start": 34.0551,
      "duration": 0.1232,
      "velocity": 113,
      "chip": "ym2612"
    },
    {
      "channel": 3,
      "note": 71,
      "start": 34.0575,
      "duration": 0.1225,
      "velocity": 113,
      "chip": "ym2612"
    },
    {
      "channel": 4,
      "note": 61,
      "start": 34.058,
      "duration": 0.8378,
      "velocity": 97,
      "chip": "ym2612"
    },
    {
      "channel": 2,
      "note": 71,
      "start": 34.2033,
      "duration": 0.1231,
      "velocity": 113,
      "chip": "ym2612"
    },
    {
      "channel": 3,
      "note": 64,
      "start": 34.2053,
      "duration": 0.123,
      "velocity": 113,
      "chip": "ym2612"
    },
    {
      "channel": 1,
      "note": 68,
      "start": 34.3525,
      "duration": 0.5919,
      "velocity": 115,
      "chip": "ym2612"
    },
    {
      "channel": 2,
      "note": 61,
      "start": 34.3532,
      "duration": 0.1213,
      "velocity": 113,
      "chip": "ym2612"
    },
    {
      "channel": 3,
      "note": 68,
      "start": 34.3556,
      "duration": 0.1205,
      "velocity": 113,
      "chip": "ym2612"
    },
    {
      "channel": 2,
      "note": 64,
      "start": 34.4993,
      "duration": 0.1232,
      "velocity": 113,
      "chip": "ym2612"
    },
    {
      "channel": 3,
      "note": 61,
      "start": 34.5017,
      "duration": 0.1225,
      "velocity": 113,
      "chip": "ym2612"
    },
    {
      "channel": 2,
      "note": 68,
      "start": 34.6474,
      "duration": 0.1232,
      "velocity": 113,
      "chip": "ym2612"
    },
    {
      "channel": 3,
      "note": 71,
      "start": 34.6495,
      "duration": 0.1228,
      "velocity": 113,
      "chip": "ym2612"
    },
    {
      "channel": 2,
      "note": 71,
      "start": 34.7955,
      "duration": 0.1235,
      "velocity": 113,
      "chip": "ym2612"
    },
    {
      "channel": 3,
      "note": 64,
      "start": 34.7976,
      "duration": 0.1233,
      "velocity": 113,
      "chip": "ym2612"
    },
    {
      "channel": 0,
      "note": 45,
      "start": 34.9427,
      "duration": 0.5797,
      "velocity": 103,
      "chip": "ym2612"
    },
    {
      "channel": 1,
      "note": 57,
      "start": 34.9445,
      "duration": 0.5924,
      "velocity": 127,
      "chip": "ym2612"
    },
    {
      "channel": 2,
      "note": 61,
      "start": 34.9452,
      "duration": 0.1214,
      "velocity": 113,
      "chip": "ym2612"
    },
    {
      "channel": 3,
      "note": 68,
      "start": 34.9476,
      "duration": 0.121,
      "velocity": 113,
      "chip": "ym2612"
    },
    {
      "channel": 4,
      "note": 64,
      "start": 34.9482,
      "duration": 0.5398,
      "velocity": 97,
      "chip": "ym2612"
    },
    {
      "channel": 2,
      "note": 64,
      "start": 35.0915,
      "duration": 0.1232,
      "velocity": 113,
      "chip": "ym2612"
    },
    {
      "channel": 3,
      "note": 61,
      "start": 35.0934,
      "duration": 0.1231,
      "velocity": 113,
      "chip": "ym2612"
    },
    {
      "channel": 5,
      "note": 45,
      "start": 35.1686,
      "duration": 0.5788,
      "velocity": 103,
      "chip": "ym2612"
    },
    {
      "channel": 2,
      "note": 68,
      "start": 35.2395,
      "duration": 0.1232,
      "velocity": 113,
      "chip": "ym2612"
    },
    {
      "channel": 3,
      "note": 71,
      "start": 35.242,
      "duration": 0.1224,
      "velocity": 113,
      "chip": "ym2612"
    },
    {
      "channel": 2,
      "note": 71,
      "start": 35.3876,
      "duration": 0.1232,
      "velocity": 113,
      "chip": "ym2612"
    },
    {
      "channel": 3,
      "note": 64,
      "start": 35.3897,
      "duration": 0.123,
      "velocity": 113,
      "chip": "ym2612"
    },
    {
      "channel": 0,
      "note": 45,
      "start": 35.5352,
      "duration": 1.4679,
      "velocity": 103,
      "chip": "ym2612"
    },
    {
      "channel": 1,
      "note": 64,
      "start": 35.5371,
      "duration": 0.5904,
      "velocity": 127,
      "chip": "ym2612"
    },
    {
      "channel": 2,
      "note": 61,
      "start": 35.5379,
      "duration": 0.1211,
      "velocity": 113,
      "chip": "ym2612"
    },
    {
      "channel": 3,
      "note": 68,
      "start": 35.5402,
      "duration": 0.1204,
      "velocity": 113,
      "chip": "ym2612"
    },
    {
      "channel": 4,
      "note": 68,
      "start": 35.5408,
      "duration": 0.8358,
      "velocity": 97,
      "chip": "ym2612"
    },
    {
      "channel": 2,
      "note": 64,
      "start": 35.6839,
      "duration": 0.1232,
      "velocity": 113,
      "chip": "ym2612"
    },
    {
      "channel": 3,
      "note": 61,
      "start": 35.6862,
      "duration": 0.1227,
      "velocity": 113,
      "chip": "ym2612"
    },
    {
      "channel": 5,
      "note": 45,
      "start": 35.7607,
      "duration": 1.4674,
      "velocity": 103,
      "chip": "ym2612"
    },
    {
      "channel": 2,
      "note": 68,
      "start": 35.832,
      "duration": 0.1232,
      "velocity": 113,
      "chip": "ym2612"
    },
    {
      "channel": 3,
      "note": 71,
      "start": 35.8347,
      "duration": 0.1221,
      "velocity": 113,
      "chip": "ym2612"
    },
    {
      "channel": 2,
      "note": 71,
      "start": 35.9801,
      "duration": 0.1232,
      "velocity": 113,
      "chip": "ym2612"
    },
    {
      "channel": 3,
      "note": 64,
      "start": 35.9821,
      "duration": 0.1228,
      "velocity": 113,
      "chip": "ym2612"
    },
    {
      "channel": 1,
      "note": 64,
      "start": 36.1277,
      "duration": 0.5932,
      "velocity": 127,
      "chip": "ym2612"
    },
    {
      "channel": 2,
      "note": 61,
      "start": 36.1285,
      "duration": 0.1232,
      "velocity": 113,
      "chip": "ym2612"
    },
    {
      "channel": 3,
      "note": 68,
      "start": 36.1305,
      "duration": 0.1228,
      "velocity": 113,
      "chip": "ym2612"
    },
    {
      "channel": 2,
      "note": 64,
      "start": 36.2762,
      "duration": 0.1232,
      "velocity": 113,
      "chip": "ym2612"
    },
    {
      "channel": 3,
      "note": 61,
      "start": 36.2782,
      "duration": 0.1234,
      "velocity": 113,
      "chip": "ym2612"
    },
    {
      "channel": 2,
      "note": 68,
      "start": 36.4242,
      "duration": 0.1232,
      "velocity": 113,
      "chip": "ym2612"
    },
    {
      "channel": 3,
      "note": 71,
      "start": 36.4266,
      "duration": 0.1224,
      "velocity": 113,
      "chip": "ym2612"
    },
    {
      "channel": 4,
      "note": 69,
      "start": 36.4273,
      "duration": 0.2456,
      "velocity": 97,
      "chip": "ym2612"
    },
    {
      "channel": 2,
      "note": 71,
      "start": 36.5724,
      "duration": 0.1231,
      "velocity": 113,
      "chip": "ym2612"
    },
    {
      "channel": 3,
      "note": 64,
      "start": 36.5744,
      "duration": 0.1232,
      "velocity": 113,
      "chip": "ym2612"
    },
    {
      "channel": 1,
      "note": 68,
      "start": 36.7212,
      "duration": 0.5923,
      "velocity": 115,
      "chip": "ym2612"
    },
    {
      "channel": 2,
      "note": 61,
      "start": 36.7219,
      "duration": 0.1216,
      "velocity": 113,
      "chip": "ym2612"
    },
    {
      "channel": 3,
      "note": 68,
      "start": 36.7247,
      "duration": 0.1205,
      "velocity": 113,
      "chip": "ym2612"
    },
    {
      "channel": 4,
      "note": 68,
      "start": 36.7254,
      "duration": 0.2439,
      "velocity": 97,
      "chip": "ym2612"
    },
    {
      "channel": 2,
      "note": 64,
      "start": 36.8688,
      "duration": 0.1228,
      "velocity": 113,
      "chip": "ym2612"
    },
    {
      "channel": 3,
      "note": 61,
      "start": 36.8708,
      "duration": 0.1229,
      "velocity": 113,
      "chip": "ym2612"
    },
    {
      "channel": 0,
      "note": 37,
      "start": 37.0158,
      "duration": 0.2835,
      "velocity": 103,
      "chip": "ym2612"
    },
    {
      "channel": 2,
      "note": 68,
      "start": 37.0168,
      "duration": 0.1229,
      "velocity": 113,
      "chip": "ym2612"
    },
    {
      "channel": 3,
      "note": 71,
      "start": 37.02,
      "duration": 0.1215,
      "velocity": 113,
      "chip": "ym2612"
    },
    {
      "channel": 4,
      "note": 66,
      "start": 37.0205,
      "duration": 0.2445,
      "velocity": 97,
      "chip": "ym2612"
    },
    {
      "channel": 2,
      "note": 71,
      "start": 37.1647,
      "duration": 0.1231,
      "velocity": 113,
      "chip": "ym2612"
    },
    {
      "channel": 3,
      "note": 64,
      "start": 37.1667,
      "duration": 0.1231,
      "velocity": 113,
      "chip": "ym2612"
    },
    {
      "channel": 5,
      "note": 37,
      "start": 37.2414,
      "duration": 0.2827,
      "velocity": 103,
      "chip": "ym2612"
    },
    {
      "channel": 0,
      "note": 40,
      "start": 37.3119,
      "duration": 0.2836,
      "velocity": 103,
      "chip": "ym2612"
    },
    {
      "channel": 1,
      "note": 57,
      "start": 37.3137,
      "duration": 0.5922,
      "velocity": 127,
      "chip": "ym2612"
    },
    {
      "channel": 2,
      "note": 61,
      "start": 37.3144,
      "duration": 0.1215,
      "velocity": 113,
      "chip": "ym2612"
    },
    {
      "channel": 3,
      "note": 68,
      "start": 37.3172,
      "duration": 0.1203,
      "velocity": 113,
      "chip": "ym2612"
    },
    {
      "channel": 4,
      "note": 64,
      "start": 37.318,
      "duration": 0.2431,
      "velocity": 97,
      "chip": "ym2612"
    },
    {
      "channel": 2,
      "note": 64,
      "start": 37.4606,
      "duration": 0.1232,
      "velocity": 113,
      "chip": "ym2612"
    },
    {
      "channel": 3,
      "note": 61,
      "start": 37.4626,
      "duration": 0.1236,
      "velocity": 113,
      "chip": "ym2612"
    },
    {
      "channel": 5,
      "note": 40,
      "start": 37.5377,
      "duration": 0.2829,
      "velocity": 103,
      "chip": "ym2612"
    },
    {
      "channel": 0,
      "note": 41,
      "start": 37.608,
      "duration": 0.2836,
      "velocity": 103,
      "chip": "ym2612"
    },
    {
      "channel": 2,
      "note": 68,
      "start": 37.6089,
      "duration": 0.123,
      "velocity": 113,
      "chip": "ym2612"
    },
    {
      "channel": 3,
      "note": 71,
      "start": 37.6116,
      "duration": 0.1219,
      "velocity": 113,
      "chip": "ym2612"
    },
    {
      "channel": 4,
      "note": 62,
      "start": 37.6122,
      "duration": 0.245,
      "velocity": 97,
      "chip": "ym2612"
    },
    {
      "channel": 2,
      "note": 71,
      "start": 37.7568,
      "duration": 0.1231,
      "velocity": 113,
      "chip": "ym2612"
    },
    {
      "channel": 3,
      "note": 64,
      "start": 37.7588,
      "duration": 0.1232,
      "velocity": 113,
      "chip": "ym2612"
    },
    {
      "channel": 5,
      "note": 41,
      "start": 37.8334,
      "duration": 0.2832,
      "velocity": 103,
      "chip": "ym2612"
    },
    {
      "channel": 0,
      "note": 42,
      "start": 37.9042,
      "duration": 2.3565,
      "velocity": 103,
      "chip": "ym2612"
    },
    {
      "channel": 1,
      "note": 64,
      "start": 37.9061,
      "duration": 0.5905,
      "velocity": 127,
      "chip": "ym2612"
    },
    {
      "channel": 2,
      "note": 64,
      "start": 37.907,
      "duration": 0.1211,
      "velocity": 113,
      "chip": "ym2612"
    },
    {
      "channel": 3,
      "note": 73,
      "start": 37.91,
      "duration": 0.1198,
      "velocity": 113,
      "chip": "ym2612"
    },
    {
      "channel": 4,
      "note": 61,
      "start": 37.9105,
      "duration": 0.8351,
      "velocity": 97,
      "chip": "ym2612"
    },
    {
      "channel": 2,
      "note": 66,
      "start": 38.053,
      "duration": 0.1232,
      "velocity": 113,
      "chip": "ym2612"
    },
    {
      "channel": 3,
      "note": 69,
      "start": 38.055,
      "duration": 0.1231,
      "velocity": 113,
      "chip": "ym2612"
    },
    {
      "channel": 5,
      "note": 42,
      "start": 38.1298,
      "duration": 2.3562,
      "velocity": 103,
      "chip": "ym2612"
    },
    {
      "channel": 2,
      "note": 69,
      "start": 38.2015,
      "duration": 0.1228,
      "velocity": 113,
      "chip": "ym2612"
    },
    {
      "channel": 3,
      "note": 64,
      "start": 38.204,
      "duration": 0.122,
      "velocity": 113,
      "chip": "ym2612"
    },
    {
      "channel": 2,
      "note": 73,
      "start": 38.3492,
      "duration": 0.1232,
      "velocity": 113,
      "chip": "ym2612"
    },
    {
      "channel": 3,
      "note": 66,
      "start": 38.3515,
      "duration": 0.1226,
      "velocity": 113,
      "chip": "ym2612"
    },
    {
      "channel": 1,
      "note": 64,
      "start": 38.4968,
      "duration": 0.5933,
      "velocity": 127,
      "chip": "ym2612"
    },
    {
      "channel": 2,
      "note": 64,
      "start": 38.4976,
      "duration": 0.1228,
      "velocity": 113,
      "chip": "ym2612"
    },
    {
      "channel": 3,
      "note": 73,
      "start": 38.4997,
      "duration": 0.1224,
      "velocity": 113,
      "chip": "ym2612"
    },
    {
      "channel": 2,
      "note": 66,
      "start": 38.6453,
      "duration": 0.1235,
      "velocity": 113,
      "chip": "ym2612"
    },
    {
      "channel": 3,
      "note": 69,
      "start": 38.6473,
      "duration": 0.1235,
      "velocity": 113,
      "chip": "ym2612"
    },
    {
      "channel": 2,
      "note": 69,
      "start": 38.7934,
      "duration": 0.1231,
      "velocity": 113,
      "chip": "ym2612"
    },
    {
      "channel": 3,
      "note": 64,
      "start": 38.7959,
      "duration": 0.1227,
      "velocity": 113,
      "chip": "ym2612"
    },
    {
      "channel": 4,
      "note": 66,
      "start": 38.7964,
      "duration": 0.8377,
      "velocity": 97,
      "chip": "ym2612"
    },
    {
      "channel": 2,
      "note": 73,
      "start": 38.9414,
      "duration": 0.1232,
      "velocity": 113,
      "chip": "ym2612"
    },
    {
      "channel": 3,
      "note": 66,
      "start": 38.9434,
      "duration": 0.1232,
      "velocity": 113,
      "chip": "ym2612"
    },
    {
      "channel": 1,
      "note": 68,
      "start": 39.0902,
      "duration": 0.5921,
      "velocity": 115,
      "chip": "ym2612"
    },
    {
      "channel": 2,
      "note": 64,
      "start": 39.091,
      "duration": 0.1216,
      "velocity": 113,
      "chip": "ym2612"
    },
    {
      "channel": 3,
      "note": 73,
      "start": 39.0936,
      "duration": 0.1207,
      "velocity": 113,
      "chip": "ym2612"
    },
    {
      "channel": 2,
      "note": 66,
      "start": 39.2376,
      "duration": 0.1232,
      "velocity": 113,
      "chip": "ym2612"
    },
    {
      "channel": 3,
      "note": 69,
      "start": 39.2395,
      "duration": 0.1229,
      "velocity": 113,
      "chip": "ym2612"
    },
    {
      "channel": 2,
      "note": 69,
      "start": 39.3861,
      "duration": 0.1228,
      "velocity": 113,
      "chip": "ym2612"
    },
    {
      "channel": 3,
      "note": 64,
      "start": 39.3881,
      "duration": 0.1224,
      "velocity": 113,
      "chip": "ym2612"
    },
    {
      "channel": 2,
      "note": 73,
      "start": 39.5337,
      "duration": 0.1232,
      "velocity": 113,
      "chip": "ym2612"
    },
    {
      "channel": 3,
      "note": 66,
      "start": 39.5361,
      "duration": 0.1227,
      "velocity": 113,
      "chip": "ym2612"
    },
    {
      "channel": 1,
      "note": 57,
      "start": 39.6826,
      "duration": 0.5924,
      "velocity": 127,
      "chip": "ym2612"
    },
    {
      "channel": 2,
      "note": 64,
      "start": 39.6833,
      "duration": 0.1216,
      "velocity": 113,
      "chip": "ym2612"
    },
    {
      "channel": 3,
      "note": 73,
      "start": 39.6861,
      "duration": 0.1204,
      "velocity": 113,
      "chip": "ym2612"
    },
    {
      "channel": 4,
      "note": 64,
      "start": 39.6866,
      "duration": 0.5396,
      "velocity": 97,
      "chip": "ym2612"
    },
    {
      "channel": 2,
      "note": 66,
      "start": 39.8297,
      "duration": 0.1232,
      "velocity": 113,
      "chip": "ym2612"
    },
    {
      "channel": 3,
      "note": 69,
      "start": 39.8317,
      "duration": 0.1231,
      "velocity": 113,
      "chip": "ym2612"
    },
    {
      "channel": 2,
      "note": 69,
      "start": 39.9778,
      "duration": 0.1231,
      "velocity": 113,
      "chip": "ym2612"
    },
    {
      "channel": 3,
      "note": 64,
      "start": 39.9803,
      "duration": 0.1226,
      "velocity": 113,
      "chip": "ym2612"
    },
    {
      "channel": 2,
      "note": 73,
      "start": 40.1258,
      "duration": 0.1232,
      "velocity": 113,
      "chip": "ym2612"
    },
    {
      "channel": 3,
      "note": 66,
      "start": 40.1278,
      "duration": 0.1231,
      "velocity": 113,
      "chip": "ym2612"
    },
    {
      "channel": 0,
      "note": 40,
      "start": 40.2733,
      "duration": 2.3566,
      "velocity": 103,
      "chip": "ym2612"
    },
    {
      "channel": 1,
      "note": 64,
      "start": 40.2752,
      "duration": 0.5906,
      "velocity": 127,
      "chip": "ym2612"
    },
    {
      "channel": 2,
      "note": 64,
      "start": 40.276,
      "duration": 0.1212,
      "velocity": 113,
      "chip": "ym2612"
    },
    {
      "channel": 3,
      "note": 73,
      "start": 40.2785,
      "duration": 0.1204,
      "velocity": 113,
      "chip": "ym2612"
    },
    {
      "channel": 4,
      "note": 59,
      "start": 40.2791,
      "duration": 0.8357,
      "velocity": 97,
      "chip": "ym2612"
    },
    {
      "channel": 2,
      "note": 68,
      "start": 40.4221,
      "duration": 0.1232,
      "velocity": 113,
      "chip": "ym2612"
    },
    {
      "channel": 3,
      "note": 71,
      "start": 40.4241,
      "duration": 0.1231,
      "velocity": 113,
      "chip": "ym2612"
    },
    {
      "channel": 5,
      "note": 40,
      "start": 40.4988,
      "duration": 2.356,
      "velocity": 103,
      "chip": "ym2612"
    },
    {
      "channel": 2,
      "note": 71,
      "start": 40.5703,
      "duration": 0.1231,
      "velocity": 113,
      "chip": "ym2612"
    },
    {
      "channel": 3,
      "note": 64,
      "start": 40.5728,
      "duration": 0.1223,
      "velocity": 113,
      "chip": "ym2612"
    },
    {
      "channel": 2,
      "note": 73,
      "start": 40.7186,
      "duration": 0.1229,
      "velocity": 113,
      "chip": "ym2612"
    },
    {
      "channel": 3,
      "note": 68,
      "start": 40.7206,
      "duration": 0.1226,
      "velocity": 113,
      "chip": "ym2612"
    },
    {
      "channel": 1,
      "note": 64,
      "start": 40.866,
      "duration": 0.5932,
      "velocity": 127,
      "chip": "ym2612"
    },
    {
      "channel": 2,
      "note": 64,
      "start": 40.8667,
      "duration": 0.1228,
      "velocity": 113,
      "chip": "ym2612"
    },
    {
      "channel": 3,
      "note": 73,
      "start": 40.8692,
      "duration": 0.122,
      "velocity": 113,
      "chip": "ym2612"
    },
    {
      "channel": 2,
      "note": 68,
      "start": 41.0144,
      "duration": 0.1232,
      "velocity": 113,
      "chip": "ym2612"
    },
    {
      "channel": 3,
      "note": 71,
      "start": 41.0164,
      "duration": 0.123,
      "velocity": 113,
      "chip": "ym2612"
    },
    {
      "channel": 2,
      "note": 71,
      "start": 41.1626,
      "duration": 0.1233,
      "velocity": 113,
      "chip": "ym2612"
    },
    {
      "channel": 3,
      "note": 64,
      "start": 41.1649,
      "duration": 0.1226,
      "velocity": 113,
      "chip": "ym2612"
    },
    {
      "channel": 4,
      "note": 61,
      "start": 41.1655,
      "duration": 0.8381,
      "velocity": 97,
      "chip": "ym2612"
    },
    {
      "channel": 2,
      "note": 73,
      "start": 41.3105,
      "duration": 0.1232,
      "velocity": 113,
      "chip": "ym2612"
    },
    {
      "channel": 3,
      "note": 68,
      "start": 41.3125,
      "duration": 0.1235,
      "velocity": 113,
      "chip": "ym2612"
    },
    {
      "channel": 1,
      "note": 68,
      "start": 41.4594,
      "duration": 0.5925,
      "velocity": 115,
      "chip": "ym2612"
    },
    {
      "channel": 2,
      "note": 64,
      "start": 41.4602,
      "duration": 0.1216,
      "velocity": 113,
      "chip": "ym2612"
    },
    {
      "channel": 3,
      "note": 73,
      "start": 41.4628,
      "duration": 0.1207,
      "velocity": 113,
      "chip": "ym2612"
    },
    {
      "channel": 2,
      "note": 68,
      "start": 41.6067,
      "duration": 0.1232,
      "velocity": 113,
      "chip": "ym2612"
    },
    {
      "channel": 3,
      "note": 71,
      "start": 41.6086,
      "duration": 0.123,
      "velocity": 113,
      "chip": "ym2612"
    },
    {
      "channel": 2,
      "note": 71,
      "start": 41.7548,
      "duration": 0.1231,
      "velocity": 113,
      "chip": "ym2612"
    },
    {
      "channel": 3,
      "note": 64,
      "start": 41.7568,
      "duration": 0.1228,
      "velocity": 113,
      "chip": "ym2612"
    },
    {
      "channel": 2,
      "note": 73,
      "start": 41.9029,
      "duration": 0.1231,
      "velocity": 113,
      "chip": "ym2612"
    },
    {
      "channel": 3,
      "note": 68,
      "start": 41.9049,
      "duration": 0.123,
      "velocity": 113,
      "chip": "ym2612"
    },
    {
      "channel": 1,
      "note": 57,
      "start": 42.0521,
      "duration": 0.592,
      "velocity": 127,
      "chip": "ym2612"
    },
    {
      "channel": 2,
      "note": 64,
      "start": 42.0528,
      "duration": 0.1211,
      "velocity": 113,
      "chip": "ym2612"
    },
    {
      "channel": 3,
      "note": 73,
      "start": 42.0551,
      "duration": 0.1205,
      "velocity": 113,
      "chip": "ym2612"
    },
    {
      "channel": 4,
      "note": 64,
      "start": 42.0557,
      "duration": 0.5396,
      "velocity": 97,
      "chip": "ym2612"
    },
    {
      "channel": 2,
      "note": 68,
      "start": 42.1988,
      "duration": 0.1232,
      "velocity": 113,
      "chip": "ym2612"
    },
    {
      "channel": 3,
      "note": 71,
      "start": 42.2008,
      "duration": 0.1231,
      "velocity": 113,
      "chip": "ym2612"
    },
    {
      "channel": 2,
      "note": 71,
      "start": 42.3469,
      "duration": 0.1231,
      "velocity": 113,
      "chip": "ym2612"
    },
    {
      "channel": 3,
      "note": 64,
      "start": 42.3494,
      "duration": 0.1223,
      "velocity": 113,
      "chip": "ym2612"
    },
    {
      "channel": 2,
      "note": 73,
      "start": 42.495,
      "duration": 0.1235,
      "velocity": 113,
      "chip": "ym2612"
    },
    {
      "channel": 3,
      "note": 68,
      "start": 42.4969,
      "duration": 0.1235,
      "velocity": 113,
      "chip": "ym2612"
    },
    {
      "channel": 0,
      "note": 39,
      "start": 42.6424,
      "duration": 2.3566,
      "velocity": 103,
      "chip": "ym2612"
    },
    {
      "channel": 1,
      "note": 64,
      "start": 42.6443,
      "duration": 0.591,
      "velocity": 127,
      "chip": "ym2612"
    },
    {
      "channel": 2,
      "note": 59,
      "start": 42.6451,
      "duration": 0.1212,
      "velocity": 113,
      "chip": "ym2612"
    },
    {
      "channel": 3,
      "note": 66,
      "start": 42.6475,
      "duration": 0.1209,
      "velocity": 113,
      "chip": "ym2612"
    },
    {
      "channel": 4,
      "note": 63,
      "start": 42.6481,
      "duration": 0.2437,
      "velocity": 97,
      "chip": "ym2612"
    },
    {
      "channel": 2,
      "note": 63,
      "start": 42.7913,
      "duration": 0.1232,
      "velocity": 113,
      "chip": "ym2612"
    },
    {
      "channel": 3,
      "note": 59,
      "start": 42.7932,
      "duration": 0.1232,
      "velocity": 113,
      "chip": "ym2612"
    },
    {
      "channel": 5,
      "note": 39,
      "start": 42.8684,
      "duration": 2.3555,
      "velocity": 103,
      "chip": "ym2612"
    },
    {
      "channel": 2,
      "note": 66,
      "start": 42.9393,
      "duration": 0.1232,
      "velocity": 113,
      "chip": "ym2612"
    },
    {
      "channel": 3,
      "note": 71,
      "start": 42.9422,
      "duration": 0.122,
      "velocity": 113,
      "chip": "ym2612"
    },
    {
      "channel": 4,
      "note": 59,
      "start": 42.9427,
      "duration": 0.5412,
      "velocity": 97,
      "chip": "ym2612"
    },
    {
      "channel": 2,
      "note": 71,
      "start": 43.0875,
      "duration": 0.1231,
      "velocity": 113,
      "chip": "ym2612"
    },
    {
      "channel": 3,
      "note": 63,
      "start": 43.0895,
      "duration": 0.1229,
      "velocity": 113,
      "chip": "ym2612"
    },
    {
      "channel": 1,
      "note": 64,
      "start": 43.2354,
      "duration": 0.5929,
      "velocity": 127,
      "chip": "ym2612"
    },
    {
      "channel": 2,
      "note": 59,
      "start": 43.2362,
      "duration": 0.1224,
      "velocity": 113,
      "chip": "ym2612"
    },
    {
      "channel": 3,
      "note": 66,
      "start": 43.2387,
      "duration": 0.1216,
      "velocity": 113,
      "chip": "ym2612"
    },
    {
      "channel": 2,
      "note": 63,
      "start": 43.3835,
      "duration": 0.1232,
      "velocity": 113,
      "chip": "ym2612"
    },
    {
      "channel": 3,
      "note": 59,
      "start": 43.3859,
      "duration": 0.1227,
      "velocity": 113,
      "chip": "ym2612"
    },
    {
      "channel": 2,
      "note": 66,
      "start": 43.5316,
      "duration": 0.1232,
      "velocity": 113,
      "chip": "ym2612"
    },
    {
      "channel": 3,
      "note": 71,
      "start": 43.5339,
      "duration": 0.1225,
      "velocity": 113,
      "chip": "ym2612"
    },
    {
      "channel": 4,
      "note": 54,
      "start": 43.5349,
      "duration": 0.5413,
      "velocity": 97,
      "chip": "ym2612"
    },
    {
      "channel": 2,
      "note": 71,
      "start": 43.6798,
      "duration": 0.1231,
      "velocity": 113,
      "chip": "ym2612"
    },
    {
      "channel": 3,
      "note": 63,
      "start": 43.6818,
      "duration": 0.123,
      "velocity": 113,
      "chip": "ym2612"
    },
    {
      "channel": 1,
      "note": 68,
      "start": 43.8285,
      "duration": 0.592,
      "velocity": 115,
      "chip": "ym2612"
    },
    {
      "channel": 2,
      "note": 59,
      "start": 43.8293,
      "duration": 0.1216,
      "velocity": 113,
      "chip": "ym2612"
    },
    {
      "channel": 3,
      "note": 66,
      "start": 43.8317,
      "duration": 0.1212,
      "velocity": 113,
      "chip": "ym2612"
    },
    {
      "channel": 2,
      "note": 63,
      "start": 43.9758,
      "duration": 0.1232,
      "velocity": 113,
      "chip": "ym2612"
    },
    {
      "channel": 3,
      "note": 59,
      "start": 43.9778,
      "duration": 0.1231,
      "velocity": 113,
      "chip": "ym2612"
    },
    {
      "channel": 2,
      "note": 66,
      "start": 44.1238,
      "duration": 0.1232,
      "velocity": 113,
      "chip": "ym2612"
    },
    {
      "channel": 3,
      "note": 71,
      "start": 44.1263,
      "duration": 0.1224,
      "velocity": 113,
      "chip": "ym2612"
    },
    {
      "channel": 4,
      "note": 63,
      "start": 44.1269,
      "duration": 0.2456,
      "velocity": 97,
      "chip": "ym2612"
    },
    {
      "channel": 2,
      "note": 71,
      "start": 44.272,
      "duration": 0.1232,
      "velocity": 113,
      "chip": "ym2612"
    },
    {
      "channel": 3,
      "note": 63,
      "start": 44.274,
      "duration": 0.1232,
      "velocity": 113,
      "chip": "ym2612"
    },
    {
      "channel": 1,
      "note": 57,
      "start": 44.4208,
      "duration": 0.5924,
      "velocity": 127,
      "chip": "ym2612"
    },
    {
      "channel": 2,
      "note": 59,
      "start": 44.4215,
      "duration": 0.1216,
      "velocity": 113,
      "chip": "ym2612"
    },
    {
      "channel": 3,
      "note": 66,
      "start": 44.4244,
      "duration": 0.1203,
      "velocity": 113,
      "chip": "ym2612"
    },
    {
      "channel": 4,
      "note": 59,
      "start": 44.425,
      "duration": 0.2438,
      "velocity": 97,
      "chip": "ym2612"
    },
    {
      "channel": 2,
      "note": 63,
      "start": 44.5683,
      "duration": 0.1228,
      "velocity": 113,
      "chip": "ym2612"
    },
    {
      "channel": 3,
      "note": 59,
      "start": 44.5703,
      "duration": 0.1229,
      "velocity": 113,
      "chip": "ym2612"
    },
    {
      "channel": 2,
      "note": 66,
      "start": 44.716,
      "duration": 0.1232,
      "velocity": 113,
      "chip": "ym2612"
    },
    {
      "channel": 3,
      "note": 71,
      "start": 44.7192,
      "duration": 0.1216,
      "velocity": 113,
      "chip": "ym2612"
    },
    {
      "channel": 4,
      "note": 54,
      "start": 44.7198,
      "duration": 0.2447,
      "velocity": 97,
      "chip": "ym2612"
    },
    {
      "channel": 2,
      "note": 71,
      "start": 44.8641,
      "duration": 0.1231,
      "velocity": 113,
      "chip": "ym2612"
    },
    {
      "channel": 3,
      "note": 63,
      "start": 44.8661,
      "duration": 0.1232,
      "velocity": 113,
      "chip": "ym2612"
    },
    {
      "channel": 0,
      "note": 38,
      "start": 45.0114,
      "duration": 2.3569,
      "velocity": 103,
      "chip": "ym2612"
    },
    {
      "channel": 1,
      "note": 64,
      "start": 45.0134,
      "duration": 0.5906,
      "velocity": 127,
      "chip": "ym2612"
    },
    {
      "channel": 2,
      "note": 62,
      "start": 45.0142,
      "duration": 0.1216,
      "velocity": 113,
      "chip": "ym2612"
    },
    {
      "channel": 3,
      "note": 69,
      "start": 45.0172,
      "duration": 0.1204,
      "velocity": 113,
      "chip": "ym2612"
    },
    {
      "channel": 4,
      "note": 61,
      "start": 45.0181,
      "duration": 0.2427,
      "velocity": 97,
      "chip": "ym2612"
    },
    {
      "channel": 2,
      "note": 66,
      "start": 45.1604,
      "duration": 0.1232,
      "velocity": 113,
      "chip": "ym2612"
    },
    {
      "channel": 3,
      "note": 62,
      "start": 45.1624,
      "duration": 0.1235,
      "velocity": 113,
      "chip": "ym2612"
    },
    {
      "channel": 5,
      "note": 38,
      "start": 45.2375,
      "duration": 2.3555,
      "velocity": 103,
      "chip": "ym2612"
    },
    {
      "channel": 2,
      "note": 69,
      "start": 45.3085,
      "duration": 0.1231,
      "velocity": 113,
      "chip": "ym2612"
    },
    {
      "channel": 3,
      "note": 73,
      "start": 45.3114,
      "duration": 0.1219,
      "velocity": 113,
      "chip": "ym2612"
    },
    {
      "channel": 4,
      "note": 57,
      "start": 45.312,
      "duration": 0.5414,
      "velocity": 97,
      "chip": "ym2612"
    },
    {
      "channel": 2,
      "note": 73,
      "start": 45.4565,
      "duration": 0.1232,
      "velocity": 113,
      "chip": "ym2612"
    },
    {
      "channel": 3,
      "note": 66,
      "start": 45.4586,
      "duration": 0.123,
      "velocity": 113,
      "chip": "ym2612"
    },
    {
      "channel": 1,
      "note": 64,
      "start": 45.6042,
      "duration": 0.5932,
      "velocity": 127,
      "chip": "ym2612"
    },
    {
      "channel": 2,
      "note": 62,
      "start": 45.6049,
      "duration": 0.1228,
      "velocity": 113,
      "chip": "ym2612"
    },
    {
      "channel": 3,
      "note": 69,
      "start": 45.6075,
      "duration": 0.122,
      "velocity": 113,
      "chip": "ym2612"
    },
    {
      "channel": 2,
      "note": 66,
      "start": 45.7527,
      "duration": 0.1231,
      "velocity": 113,
      "chip": "ym2612"
    },
    {
      "channel": 3,
      "note": 62,
      "start": 45.7548,
      "duration": 0.123,
      "velocity": 113,
      "chip": "ym2612"
    },
    {
      "channel": 2,
      "note": 69,
      "start": 45.9007,
      "duration": 0.1232,
      "velocity": 113,
      "chip": "ym2612"
    },
    {
      "channel": 3,
      "note": 73,
      "start": 45.9035,
      "duration": 0.1221,
      "velocity": 113,
      "chip": "ym2612"
    },
    {
      "channel": 4,
      "note": 54,
      "start": 45.9041,
      "duration": 0.5412,
      "velocity": 97,
      "chip": "ym2612"
    },
    {
      "channel": 2,
      "note": 73,
      "start": 46.0488,
      "duration": 0.1232,
      "velocity": 113,
      "chip": "ym2612"
    },
    {
      "channel": 3,
      "note": 66,
      "start": 46.0508,
      "duration": 0.123,
      "velocity": 113,
      "chip": "ym2612"
    },
    {
      "channel": 1,
      "note": 68,
      "start": 46.1976,
      "duration": 0.5921,
      "velocity": 115,
      "chip": "ym2612"
    },
    {
      "channel": 2,
      "note": 62,
      "start": 46.1984,
      "duration": 0.1216,
      "velocity": 113,
      "chip": "ym2612"
    },
    {
      "channel": 3,
      "note": 69,
      "start": 46.2009,
      "duration": 0.1209,
      "velocity": 113,
      "chip": "ym2612"
    },
    {
      "channel": 2,
      "note": 66,
      "start": 46.3449,
      "duration": 0.1236,
      "velocity": 113,
      "chip": "ym2612"
    },
    {
      "channel": 3,
      "note": 62,
      "start": 46.3469,
      "duration": 0.1234,
      "velocity": 113,
      "chip": "ym2612"
    },
    {
      "channel": 2,
      "note": 69,
      "start": 46.4931,
      "duration": 0.1231,
      "velocity": 113,
      "chip": "ym2612"
    },
    {
      "channel": 3,
      "note": 73,
      "start": 46.4954,
      "duration": 0.1228,
      "velocity": 113,
      "chip": "ym2612"
    },
    {
      "channel": 4,
      "note": 57,
      "start": 46.4961,
      "duration": 0.2455,
      "velocity": 97,
      "chip": "ym2612"
    },
    {
      "channel": 2,
      "note": 73,
      "start": 46.6411,
      "duration": 0.1232,
      "velocity": 113,
      "chip": "ym2612"
    },
    {
      "channel": 3,
      "note": 66,
      "start": 46.6431,
      "duration": 0.1232,
      "velocity": 113,
      "chip": "ym2612"
    },
    {
      "channel": 1,
      "note": 57,
      "start": 46.7899,
      "duration": 0.5924,
      "velocity": 127,
      "chip": "ym2612"
    },
    {
      "channel": 2,
      "note": 62,
      "start": 46.7906,
      "duration": 0.1215,
      "velocity": 113,
      "chip": "ym2612"
    },
    {
      "channel": 3,
      "note": 69,
      "start": 46.7935,
      "duration": 0.1204,
      "velocity": 113,
      "chip": "ym2612"
    },
    {
      "channel": 4,
      "note": 61,
      "start": 46.7941,
      "duration": 0.5395,
      "velocity": 97,
      "chip": "ym2612"
    },
    {
      "channel": 2,
      "note": 66,
      "start": 46.9371,
      "duration": 0.1232,
      "velocity": 113,
      "chip": "ym2612"
    },
    {
      "channel": 3,
      "note": 62,
      "start": 46.9391,
      "duration": 0.123,
      "velocity": 113,
      "chip": "ym2612"
    },
    {
      "channel": 2,
      "note": 69,
      "start": 47.0856,
      "duration": 0.1227,
      "velocity": 113,
      "chip": "ym2612"
    },
    {
      "channel": 3,
      "note": 73,
      "start": 47.0881,
      "duration": 0.1219,
      "velocity": 113,
      "chip": "ym2612"
    },
    {
      "channel": 2,
      "note": 73,
      "start": 47.2332,
      "duration": 0.1232,
      "velocity": 113,
      "chip": "ym2612"
    },
    {
      "channel": 3,
      "note": 66,
      "start": 47.2356,
      "duration": 0.1226,
      "velocity": 113,
      "chip": "ym2612"
    },
    {
      "channel": 0,
      "note": 38,
      "start": 47.3806,
      "duration": 2.3566,
      "velocity": 103,
      "chip": "ym2612"
    },
    {
      "channel": 1,
      "note": 64,
      "start": 47.3825,
      "duration": 0.5906,
      "velocity": 127,
      "chip": "ym2612"
    },
    {
      "channel": 2,
      "note": 62,
      "start": 47.3833,
      "duration": 0.1212,
      "velocity": 113,
      "chip": "ym2612"
    },
    {
      "channel": 3,
      "note": 69,
      "start": 47.3862,
      "duration": 0.1201,
      "velocity": 113,
      "chip": "ym2612"
    },
    {
      "channel": 4,
      "note": 60,
      "start": 47.3868,
      "duration": 0.2432,
      "velocity": 97,
      "chip": "ym2612"
    },
    {
      "channel": 2,
      "note": 65,
      "start": 47.5294,
      "duration": 0.1233,
      "velocity": 113,
      "chip": "ym2612"
    },
    {
      "channel": 3,
      "note": 62,
      "start": 47.5315,
      "duration": 0.1233,
      "velocity": 113,
      "chip": "ym2612"
    },
    {
      "channel": 5,
      "note": 38,
      "start": 47.6062,
      "duration": 2.3559,
      "velocity": 103,
      "chip": "ym2612"
    },
    {
      "channel": 2,
      "note": 69,
      "start": 47.6776,
      "duration": 0.1231,
      "velocity": 113,
      "chip": "ym2612"
    },
    {
      "channel": 3,
      "note": 72,
      "start": 47.6805,
      "duration": 0.1223,
      "velocity": 113,
      "chip": "ym2612"
    },
    {
      "channel": 4,
      "note": 57,
      "start": 47.681,
      "duration": 0.2451,
      "velocity": 97,
      "chip": "ym2612"
    },
    {
      "channel": 2,
      "note": 72,
      "start": 47.8256,
      "duration": 0.1232,
      "velocity": 113,
      "chip": "ym2612"
    },
    {
      "channel": 3,
      "note": 65,
      "start": 47.8277,
      "duration": 0.1232,
      "velocity": 113,
      "chip": "ym2612"
    },
    {
      "channel": 1,
      "note": 64,
      "start": 47.9733,
      "duration": 0.5933,
      "velocity": 127,
      "chip": "ym2612"
    },
    {
      "channel": 2,
      "note": 62,
      "start": 47.974,
      "duration": 0.1228,
      "velocity": 113,
      "chip": "ym2612"
    },
    {
      "channel": 3,
      "note": 69,
      "start": 47.977,
      "duration": 0.1215,
      "velocity": 113,
      "chip": "ym2612"
    },
    {
      "channel": 4,
      "note": 64,
      "start": 47.9776,
      "duration": 0.2446,
      "velocity": 97,
      "chip": "ym2612"
    },
    {
      "channel": 2,
      "note": 65,
      "start": 48.1217,
      "duration": 0.1232,
      "velocity": 113,
      "chip": "ym2612"
    },
    {
      "channel": 3,
      "note": 62,
      "start": 48.1238,
      "duration": 0.1232,
      "velocity": 113,
      "chip": "ym2612"
    },
    {
      "channel": 2,
      "note": 69,
      "start": 48.2699,
      "duration": 0.1231,
      "velocity": 113,
      "chip": "ym2612"
    },
    {
      "channel": 3,
      "note": 72,
      "start": 48.2727,
      "duration": 0.122,
      "velocity": 113,
      "chip": "ym2612"
    },
    {
      "channel": 4,
      "note": 62,
      "start": 48.2733,
      "duration": 0.5412,
      "velocity": 97,
      "chip": "ym2612"
    },
    {
      "channel": 2,
      "note": 72,
      "start": 48.4183,
      "duration": 0.1228,
      "velocity": 113,
      "chip": "ym2612"
    },
    {
      "channel": 3,
      "note": 65,
      "start": 48.4203,
      "duration": 0.1227,
      "velocity": 113,
      "chip": "ym2612"
    },
    {
      "channel": 1,
      "note": 68,
      "start": 48.5667,
      "duration": 0.5921,
      "velocity": 115,
      "chip": "ym2612"
    },
    {
      "channel": 2,
      "note": 62,
      "start": 48.5675,
      "duration": 0.1216,
      "velocity": 113,
      "chip": "ym2612"
    },
    {
      "channel": 3,
      "note": 69,
      "start": 48.5704,
      "duration": 0.1204,
      "velocity": 113,
      "chip": "ym2612"
    },
    {
      "channel": 2,
      "note": 65,
      "start": 48.714,
      "duration": 0.1232,
      "velocity": 113,
      "chip": "ym2612"
    },
    {
      "channel": 3,
      "note": 62,
      "start": 48.7161,
      "duration": 0.1228,
      "velocity": 113,
      "chip": "ym2612"
    },
    {
      "channel": 2,
      "note": 69,
      "start": 48.8622,
      "duration": 0.1234,
      "velocity": 113,
      "chip": "ym2612"
    },
    {
      "channel": 3,
      "note": 72,
      "start": 48.8642,
      "duration": 0.1231,
      "velocity": 113,
      "chip": "ym2612"
    },
    {
      "channel": 4,
      "note": 64,
      "start": 48.8648,
      "duration": 0.2459,
      "velocity": 97,
      "chip": "ym2612"
    },
    {
      "channel": 2,
      "note": 72,
      "start": 49.0102,
      "duration": 0.1232,
      "velocity": 113,
      "chip": "ym2612"
    },
    {
      "channel": 3,
      "note": 65,
      "start": 49.0122,
      "duration": 0.1233,
      "velocity": 113,
      "chip": "ym2612"
    },
    {
      "channel": 1,
      "note": 57,
      "start": 49.159,
      "duration": 0.5928,
      "velocity": 127,
      "chip": "ym2612"
    },
    {
      "channel": 2,
      "note": 62,
      "start": 49.1597,
      "duration": 0.1216,
      "velocity": 113,
      "chip": "ym2612"
    },
    {
      "channel": 3,
      "note": 69,
      "start": 49.1618,
      "duration": 0.1211,
      "velocity": 113,
      "chip": "ym2612"
    },
    {
      "channel": 4,
      "note": 62,
      "start": 49.1623,
      "duration": 0.2443,
      "velocity": 97,
      "chip": "ym2612"
    },
    {
      "channel": 2,
      "note": 65,
      "start": 49.3062,
      "duration": 0.1232,
      "velocity": 113,
      "chip": "ym2612"
    },
    {
      "channel": 3,
      "note": 62,
      "start": 49.3082,
      "duration": 0.1229,
      "velocity": 113,
      "chip": "ym2612"
    },
    {
      "channel": 2,
      "note": 69,
      "start": 49.4543,
      "duration": 0.1231,
      "velocity": 113,
      "chip": "ym2612"
    },
    {
      "channel": 3,
      "note": 72,
      "start": 49.4563,
      "duration": 0.1228,
      "velocity": 113,
      "chip": "ym2612"
    },
    {
      "channel": 4,
      "note": 59,
      "start": 49.4569,
      "duration": 0.2463,
      "velocity": 97,
      "chip": "ym2612"
    },
    {
      "channel": 2,
      "note": 72,
      "start": 49.6025,
      "duration": 0.1229,
      "velocity": 113,
      "chip": "ym2612"
    },
    {
      "channel": 3,
      "note": 65,
      "start": 49.6046,
      "duration": 0.1229,
      "velocity": 113,
      "chip": "ym2612"
    },
    {
      "channel": 0,
      "note": 43,
      "start": 49.7497,
      "duration": 2.3566,
      "velocity": 103,
      "chip": "ym2612"
    },
    {
      "channel": 1,
      "note": 64,
      "start": 49.752,
      "duration": 0.5902,
      "velocity": 127,
      "chip": "ym2612"
    },
    {
      "channel": 2,
      "note": 62,
      "start": 49.7529,
      "duration": 0.1209,
      "velocity": 113,
      "chip": "ym2612"
    },
    {
      "channel": 3,
      "note": 71,
      "start": 49.7554,
      "duration": 0.12,
      "velocity": 113,
      "chip": "ym2612"
    },
    {
      "channel": 4,
      "note": 59,
      "start": 49.756,
      "duration": 0.2431,
      "velocity": 97,
      "chip": "ym2612"
    },
    {
      "channel": 2,
      "note": 65,
      "start": 49.8986,
      "duration": 0.1232,
      "velocity": 113,
      "chip": "ym2612"
    },
    {
      "channel": 3,
      "note": 62,
      "start": 49.9006,
      "duration": 0.1232,
      "velocity": 113,
      "chip": "ym2612"
    },
    {
      "channel": 5,
      "note": 43,
      "start": 49.9753,
      "duration": 2.3559,
      "velocity": 103,
      "chip": "ym2612"
    },
    {
      "channel": 2,
      "note": 69,
      "start": 50.0467,
      "duration": 0.1231,
      "velocity": 113,
      "chip": "ym2612"
    },
    {
      "channel": 3,
      "note": 65,
      "start": 50.0495,
      "duration": 0.122,
      "velocity": 113,
      "chip": "ym2612"
    },
    {
      "channel": 4,
      "note": 60,
      "start": 50.05,
      "duration": 0.2452,
      "velocity": 97,
      "chip": "ym2612"
    },
    {
      "channel": 2,
      "note": 71,
      "start": 50.1947,
      "duration": 0.1235,
      "velocity": 113,
      "chip": "ym2612"
    },
    {
      "channel": 3,
      "note": 62,
      "start": 50.1967,
      "duration": 0.1237,
      "velocity": 113,
      "chip": "ym2612"
    },
    {
      "channel": 1,
      "note": 64,
      "start": 50.3424,
      "duration": 0.5936,
      "velocity": 127,
      "chip": "ym2612"
    },
    {
      "channel": 2,
      "note": 62,
      "start": 50.3432,
      "duration": 0.1228,
      "velocity": 113,
      "chip": "ym2612"
    },
    {
      "channel": 3,
      "note": 71,
      "start": 50.346,
      "duration": 0.122,
      "velocity": 113,
      "chip": "ym2612"
    },
    {
      "channel": 4,
      "note": 62,
      "start": 50.3466,
      "duration": 0.2448,
      "velocity": 97,
      "chip": "ym2612"
    },
    {
      "channel": 2,
      "note": 65,
      "start": 50.4909,
      "duration": 0.1232,
      "velocity": 113,
      "chip": "ym2612"
    },
    {
      "channel": 3,
      "note": 62,
      "start": 50.4929,
      "duration": 0.1232,
      "velocity": 113,
      "chip": "ym2612"
    },
    {
      "channel": 2,
      "note": 69,
      "start": 50.639,
      "duration": 0.1232,
      "velocity": 113,
      "chip": "ym2612"
    },
    {
      "channel": 3,
      "note": 65,
      "start": 50.6417,
      "duration": 0.1221,
      "velocity": 113,
      "chip": "ym2612"
    },
    {
      "channel": 4,
      "note": 55,
      "start": 50.6424,
      "duration": 0.5412,
      "velocity": 97,
      "chip": "ym2612"
    },
    {
      "channel": 2,
      "note": 71,
      "start": 50.787,
      "duration": 0.1232,
      "velocity": 113,
      "chip": "ym2612"
    },
    {
      "channel": 3,
      "note": 62,
      "start": 50.789,
      "duration": 0.1231,
      "velocity": 113,
      "chip": "ym2612"
    },
    {
      "channel": 1,
      "note": 68,
      "start": 50.9362,
      "duration": 0.5918,
      "velocity": 115,
      "chip": "ym2612"
    },
    {
      "channel": 2,
      "note": 62,
      "start": 50.9369,
      "duration": 0.1213,
      "velocity": 113,
      "chip": "ym2612"
    },
    {
      "channel": 3,
      "note": 71,
      "start": 50.9395,
      "duration": 0.1204,
      "velocity": 113,
      "chip": "ym2612"
    },
    {
      "channel": 2,
      "note": 65,
      "start": 51.0831,
      "duration": 0.1232,
      "velocity": 113,
      "chip": "ym2612"
    },
    {
      "channel": 3,
      "note": 62,
      "start": 51.0856,
      "duration": 0.1226,
      "velocity": 113,
      "chip": "ym2612"
    },
    {
      "channel": 2,
      "note": 69,
      "start": 51.2313,
      "duration": 0.1231,
      "velocity": 113,
      "chip": "ym2612"
    },
    {
      "channel": 3,
      "note": 65,
      "start": 51.2335,
      "duration": 0.1225,
      "velocity": 113,
      "chip": "ym2612"
    },
    {
      "channel": 4,
      "note": 52,
      "start": 51.2341,
      "duration": 0.2457,
      "velocity": 97,
      "chip": "ym2612"
    },
    {
      "channel": 2,
      "note": 71,
      "start": 51.3793,
      "duration": 0.1233,
      "velocity": 113,
      "chip": "ym2612"
    },
    {
      "channel": 3,
      "note": 62,
      "start": 51.3813,
      "duration": 0.1234,
      "velocity": 113,
      "chip": "ym2612"
    },
    {
      "channel": 1,
      "note": 57,
      "start": 51.5282,
      "duration": 0.5924,
      "velocity": 127,
      "chip": "ym2612"
    },
    {
      "channel": 2,
      "note": 62,
      "start": 51.5289,
      "duration": 0.1215,
      "velocity": 113,
      "chip": "ym2612"
    },
    {
      "channel": 3,
      "note": 71,
      "start": 51.5317,
      "duration": 0.1207,
      "velocity": 113,
      "chip": "ym2612"
    },
    {
      "channel": 4,
      "note": 55,
      "start": 51.5322,
      "duration": 0.2435,
      "velocity": 97,
      "chip": "ym2612"
    },
    {
      "channel": 2,
      "note": 65,
      "start": 51.6752,
      "duration": 0.1232,
      "velocity": 113,
      "chip": "ym2612"
    },
    {
      "channel": 3,
      "note": 62,
      "start": 51.6773,
      "duration": 0.1232,
      "velocity": 113,
      "chip": "ym2612"
    },
    {
      "channel": 2,
      "note": 69,
      "start": 51.8234,
      "duration": 0.1231,
      "velocity": 113,
      "chip": "ym2612"
    },
    {
      "channel": 3,
      "note": 65,
      "start": 51.8261,
      "duration": 0.1221,
      "velocity": 113,
      "chip": "ym2612"
    },
    {
      "channel": 4,
      "note": 59,
      "start": 51.8267,
      "duration": 0.2451,
      "velocity": 97,
      "chip": "ym2612"
    },
    {
      "channel": 2,
      "note": 71,
      "start": 51.9714,
      "duration": 0.1232,
      "velocity": 113,
      "chip": "ym2612"
    },
    {
      "channel": 3,
      "note": 62,
      "start": 51.9734,
      "duration": 0.1232,
      "velocity": 113,
      "chip": "ym2612"
    },
    {
      "channel": 0,
      "note": 48,
      "start": 52.1189,
      "duration": 2.3565,
      "velocity": 103,
      "chip": "ym2612"
    },
    {
      "channel": 1,
      "note": 64,
      "start": 52.1208,
      "duration": 0.5905,
      "velocity": 127,
      "chip": "ym2612"
    },
    {
      "channel": 2,
      "note": 62,
      "start": 52.1216,
      "duration": 0.1212,
      "velocity": 113,
      "chip": "ym2612"
    },
    {
      "channel": 3,
      "note": 67,
      "start": 52.1245,
      "duration": 0.1199,
      "velocity": 113,
      "chip": "ym2612"
    },
    {
      "channel": 4,
      "note": 62,
      "start": 52.1251,
      "duration": 0.8352,
      "velocity": 97,
      "chip": "ym2612"
    },
    {
      "channel": 2,
      "note": 64,
      "start": 52.268,
      "duration": 0.1229,
      "velocity": 113,
      "chip": "ym2612"
    },
    {
      "channel": 3,
      "note": 71,
      "start": 52.2701,
      "duration": 0.1227,
      "velocity": 113,
      "chip": "ym2612"
    },
    {
      "channel": 5,
      "note": 48,
      "start": 52.3445,
      "duration": 2.3559,
      "velocity": 103,
      "chip": "ym2612"
    },
    {
      "channel": 2,
      "note": 67,
      "start": 52.4158,
      "duration": 0.1232,
      "velocity": 113,
      "chip": "ym2612"
    },
    {
      "channel": 3,
      "note": 62,
      "start": 52.4187,
      "duration": 0.122,
      "velocity": 113,
      "chip": "ym2612"
    },
    {
      "channel": 2,
      "note": 71,
      "start": 52.5639,
      "duration": 0.1231,
      "velocity": 113,
      "chip": "ym2612"
    },
    {
      "channel": 3,
      "note": 64,
      "start": 52.5659,
      "duration": 0.1228,
      "velocity": 113,
      "chip": "ym2612"
    },
    {
      "channel": 1,
      "note": 64,
      "start": 52.7115,
      "duration": 0.5933,
      "velocity": 127,
      "chip": "ym2612"
    },
    {
      "channel": 2,
      "note": 62,
      "start": 52.7123,
      "duration": 0.1232,
      "velocity": 113,
      "chip": "ym2612"
    },
    {
      "channel": 3,
      "note": 67,
      "start": 52.7143,
      "duration": 0.1228,
      "velocity": 113,
      "chip": "ym2612"
    },
    {
      "channel": 2,
      "note": 64,
      "start": 52.86,
      "duration": 0.1232,
      "velocity": 113,
      "chip": "ym2612"
    },
    {
      "channel": 3,
      "note": 71,
      "start": 52.862,
      "duration": 0.1234,
      "velocity": 113,
      "chip": "ym2612"
    },
    {
      "channel": 2,
      "note": 67,
      "start": 53.0081,
      "duration": 0.1232,
      "velocity": 113,
      "chip": "ym2612"
    },
    {
      "channel": 3,
      "note": 62,
      "start": 53.0104,
      "duration": 0.1224,
      "velocity": 113,
      "chip": "ym2612"
    },
    {
      "channel": 4,
      "note": 60,
      "start": 53.011,
      "duration": 0.2456,
      "velocity": 97,
      "chip": "ym2612"
    },
    {
      "channel": 2,
      "note": 71,
      "start": 53.1562,
      "duration": 0.1232,
      "velocity": 113,
      "chip": "ym2612"
    },
    {
      "channel": 3,
      "note": 64,
      "start": 53.1581,
      "duration": 0.1232,
      "velocity": 113,
      "chip": "ym2612"
    },
    {
      "channel": 1,
      "note": 68,
      "start": 53.3049,
      "duration": 0.5921,
      "velocity": 115,
      "chip": "ym2612"
    },
    {
      "channel": 2,
      "note": 62,
      "start": 53.3057,
      "duration": 0.1216,
      "velocity": 113,
      "chip": "ym2612"
    },
    {
      "channel": 3,
      "note": 67,
      "start": 53.3086,
      "duration": 0.1205,
      "velocity": 113,
      "chip": "ym2612"
    },
    {
      "channel": 4,
      "note": 59,
      "start": 53.3091,
      "duration": 0.244,
      "velocity": 97,
      "chip": "ym2612"
    },
    {
      "channel": 2,
      "note": 64,
      "start": 53.4527,
      "duration": 0.1228,
      "velocity": 113,
      "chip": "ym2612"
    },
    {
      "channel": 3,
      "note": 71,
      "start": 53.4547,
      "duration": 0.1228,
      "velocity": 113,
      "chip": "ym2612"
    },
    {
      "channel": 2,
      "note": 67,
      "start": 53.6003,
      "duration": 0.1232,
      "velocity": 113,
      "chip": "ym2612"
    },
    {
      "channel": 3,
      "note": 62,
      "start": 53.6036,
      "duration": 0.1216,
      "velocity": 113,
      "chip": "ym2612"
    },
    {
      "channel": 4,
      "note": 62,
      "start": 53.6041,
      "duration": 0.8368,
      "velocity": 97,
      "chip": "ym2612"
    },
    {
      "channel": 2,
      "note": 71,
      "start": 53.7485,
      "duration": 0.1231,
      "velocity": 113,
      "chip": "ym2612"
    },
    {
      "channel": 3,
      "note": 64,
      "start": 53.7504,
      "duration": 0.123,
      "velocity": 113,
      "chip": "ym2612"
    },
    {
      "channel": 1,
      "note": 57,
      "start": 53.8973,
      "duration": 0.5924,
      "velocity": 127,
      "chip": "ym2612"
    },
    {
      "channel": 2,
      "note": 62,
      "start": 53.8979,
      "duration": 0.1216,
      "velocity": 113,
      "chip": "ym2612"
    },
    {
      "channel": 3,
      "note": 67,
      "start": 53.9004,
      "duration": 0.1207,
      "velocity": 113,
      "chip": "ym2612"
    },
    {
      "channel": 2,
      "note": 64,
      "start": 54.0444,
      "duration": 0.1232,
      "velocity": 113,
      "chip": "ym2612"
    },
    {
      "channel": 3,
      "note": 71,
      "start": 54.0464,
      "duration": 0.1232,
      "velocity": 113,
      "chip": "ym2612"
    },
    {
      "channel": 2,
      "note": 67,
      "start": 54.1925,
      "duration": 0.1232,
      "velocity": 113,
      "chip": "ym2612"
    },
    {
      "channel": 3,
      "note": 62,
      "start": 54.1945,
      "duration": 0.1228,
      "velocity": 113,
      "chip": "ym2612"
    },
    {
      "channel": 2,
      "note": 71,
      "start": 54.3406,
      "duration": 0.1232,
      "velocity": 113,
      "chip": "ym2612"
    },
    {
      "channel": 3,
      "note": 64,
      "start": 54.3425,
      "duration": 0.123,
      "velocity": 113,
      "chip": "ym2612"
    },
    {
      "channel": 0,
      "note": 40,
      "start": 54.488,
      "duration": 2.3566,
      "velocity": 103,
      "chip": "ym2612"
    },
    {
      "channel": 1,
      "note": 64,
      "start": 54.4899,
      "duration": 0.5906,
      "velocity": 127,
      "chip": "ym2612"
    },
    {
      "channel": 2,
      "note": 62,
      "start": 54.4907,
      "duration": 0.1212,
      "velocity": 113,
      "chip": "ym2612"
    },
    {
      "channel": 3,
      "note": 69,
      "start": 54.4932,
      "duration": 0.1204,
      "velocity": 113,
      "chip": "ym2612"
    },
    {
      "channel": 4,
      "note": 61,
      "start": 54.4938,
      "duration": 0.8357,
      "velocity": 97,
      "chip": "ym2612"
    },
    {
      "channel": 2,
      "note": 66,
      "start": 54.6368,
      "duration": 0.1232,
      "velocity": 113,
      "chip": "ym2612"
    },
    {
      "channel": 3,
      "note": 62,
      "start": 54.6389,
      "duration": 0.123,
      "velocity": 113,
      "chip": "ym2612"
    },
    {
      "channel": 5,
      "note": 40,
      "start": 54.7136,
      "duration": 2.3562,
      "velocity": 103,
      "chip": "ym2612"
    },
    {
      "channel": 2,
      "note": 69,
      "start": 54.7853,
      "duration": 0.1228,
      "velocity": 113,
      "chip": "ym2612"
    },
    {
      "channel": 3,
      "note": 73,
      "start": 54.7878,
      "duration": 0.122,
      "velocity": 113,
      "chip": "ym2612"
    },
    {
      "channel": 2,
      "note": 73,
      "start": 54.9329,
      "duration": 0.1232,
      "velocity": 113,
      "chip": "ym2612"
    },
    {
      "channel": 3,
      "note": 66,
      "start": 54.9354,
      "duration": 0.1225,
      "velocity": 113,
      "chip": "ym2612"
    },
    {
      "channel": 1,
      "note": 64,
      "start": 55.0807,
      "duration": 0.5932,
      "velocity": 127,
      "chip": "ym2612"
    },
    {
      "channel": 2,
      "note": 62,
      "start": 55.0814,
      "duration": 0.1228,
      "velocity": 113,
      "chip": "ym2612"
    },
    {
      "channel": 3,
      "note": 69,
      "start": 55.0835,
      "duration": 0.1224,
      "velocity": 113,
      "chip": "ym2612"
    },
    {
      "channel": 2,
      "note": 66,
      "start": 55.229,
      "duration": 0.1234,
      "velocity": 113,
      "chip": "ym2612"
    },
    {
      "channel": 3,
      "note": 62,
      "start": 55.2311,
      "duration": 0.1233,
      "velocity": 113,
      "chip": "ym2612"
    },
    {
      "channel": 2,
      "note": 69,
      "start": 55.3772,
      "duration": 0.1231,
      "velocity": 113,
      "chip": "ym2612"
    },
    {
      "channel": 3,
      "note": 73,
      "start": 55.3796,
      "duration": 0.1228,
      "velocity": 113,
      "chip": "ym2612"
    },
    {
      "channel": 4,
      "note": 64,
      "start": 55.3801,
      "duration": 0.8381,
      "velocity": 97,
      "chip": "ym2612"
    },
    {
      "channel": 2,
      "note": 73,
      "start": 55.5252,
      "duration": 0.1232,
      "velocity": 113,
      "chip": "ym2612"
    },
    {
      "channel": 3,
      "note": 66,
      "start": 55.5273,
      "duration": 0.123,
      "velocity": 113,
      "chip": "ym2612"
    },
    {
      "channel": 1,
      "note": 68,
      "start": 55.6741,
      "duration": 0.5921,
      "velocity": 115,
      "chip": "ym2612"
    },
    {
      "channel": 2,
      "note": 62,
      "start": 55.6749,
      "duration": 0.1216,
      "velocity": 113,
      "chip": "ym2612"
    },
    {
      "channel": 3,
      "note": 69,
      "start": 55.6773,
      "duration": 0.1209,
      "velocity": 113,
      "chip": "ym2612"
    },
    {
      "channel": 2,
      "note": 66,
      "start": 55.8214,
      "duration": 0.1232,
      "velocity": 113,
      "chip": "ym2612"
    },
    {
      "channel": 3,
      "note": 62,
      "start": 55.8234,
      "duration": 0.1228,
      "velocity": 113,
      "chip": "ym2612"
    },
    {
      "channel": 2,
      "note": 69,
      "start": 55.9696,
      "duration": 0.123,
      "velocity": 113,
      "chip": "ym2612"
    },
    {
      "channel": 3,
      "note": 73,
      "start": 55.9716,
      "duration": 0.1227,
      "velocity": 113,
      "chip": "ym2612"
    },
    {
      "channel": 2,
      "note": 73,
      "start": 56.1175,
      "duration": 0.1232,
      "velocity": 113,
      "chip": "ym2612"
    },
    {
      "channel": 3,
      "note": 66,
      "start": 56.1199,
      "duration": 0.1226,
      "velocity": 113,
      "chip": "ym2612"
    },
    {
      "channel": 1,
      "note": 57,
      "start": 56.2664,
      "duration": 0.5926,
      "velocity": 127,
      "chip": "ym2612"
    },
    {
      "channel": 2,
      "note": 62,
      "start": 56.267,
      "duration": 0.1216,
      "velocity": 113,
      "chip": "ym2612"
    },
    {
      "channel": 3,
      "note": 69,
      "start": 56.2698,
      "duration": 0.1204,
      "velocity": 113,
      "chip": "ym2612"
    },
    {
      "channel": 4,
      "note": 68,
      "start": 56.2704,
      "duration": 0.5396,
      "velocity": 97,
      "chip": "ym2612"
    },
    {
      "channel": 2,
      "note": 66,
      "start": 56.4135,
      "duration": 0.1232,
      "velocity": 113,
      "chip": "ym2612"
    },
    {
      "channel": 3,
      "note": 62,
      "start": 56.4156,
      "duration": 0.123,
      "velocity": 113,
      "chip": "ym2612"
    },
    {
      "channel": 2,
      "note": 69,
      "start": 56.5616,
      "duration": 0.1235,
      "velocity": 113,
      "chip": "ym2612"
    },
    {
      "channel": 3,
      "note": 73,
      "start": 56.5641,
      "duration": 0.1227,
      "velocity": 113,
      "chip": "ym2612"
    },
    {
      "channel": 2,
      "note": 73,
      "start": 56.7097,
      "duration": 0.1232,
      "velocity": 113,
      "chip": "ym2612"
    },
    {
      "channel": 3,
      "note": 66,
      "start": 56.7117,
      "duration": 0.1233,
      "velocity": 113,
      "chip": "ym2612"
    },
    {
      "channel": 0,
      "note": 50,
      "start": 56.8572,
      "duration": 1.186,
      "velocity": 103,
      "chip": "ym2612"
    },
    {
      "channel": 1,
      "note": 64,
      "start": 56.8591,
      "duration": 0.5904,
      "velocity": 127,
      "chip": "ym2612"
    },
    {
      "channel": 2,
      "note": 62,
      "start": 56.8601,
      "duration": 0.1209,
      "velocity": 113,
      "chip": "ym2612"
    },
    {
      "channel": 3,
      "note": 69,
      "start": 56.8628,
      "duration": 0.1199,
      "velocity": 113,
      "chip": "ym2612"
    },
    {
      "channel": 4,
      "note": 61,
      "start": 56.8634,
      "duration": 0.8352,
      "velocity": 97,
      "chip": "ym2612"
    },
    {
      "channel": 2,
      "note": 66,
      "start": 57.0059,
      "duration": 0.1232,
      "velocity": 113,
      "chip": "ym2612"
    },
    {
      "channel": 3,
      "note": 62,
      "start": 57.0079,
      "duration": 0.123,
      "velocity": 113,
      "chip": "ym2612"
    },
    {
      "channel": 5,
      "note": 50,
      "start": 57.0829,
      "duration": 0.9604,
      "velocity": 103,
      "chip": "ym2612"
    },
    {
      "channel": 2,
      "note": 69,
      "start": 57.1541,
      "duration": 0.1231,
      "velocity": 113,
      "chip": "ym2612"
    },
    {
      "channel": 3,
      "note": 73,
      "start": 57.1565,
      "duration": 0.1223,
      "velocity": 113,
      "chip": "ym2612"
    },
    {
      "channel": 2,
      "note": 73,
      "start": 57.3024,
      "duration": 0.1228,
      "velocity": 113,
      "chip": "ym2612"
    },
    {
      "channel": 3,
      "note": 66,
      "start": 57.3044,
      "duration": 0.1225,
      "velocity": 113,
      "chip": "ym2612"
    },
    {
      "channel": 1,
      "note": 64,
      "start": 57.4497,
      "duration": 0.5933,
      "velocity": 127,
      "chip": "ym2612"
    },
    {
      "channel": 2,
      "note": 62,
      "start": 57.4505,
      "duration": 0.1228,
      "velocity": 113,
      "chip": "ym2612"
    },
    {
      "channel": 3,
      "note": 69,
      "start": 57.4529,
      "duration": 0.1221,
      "velocity": 113,
      "chip": "ym2612"
    },
    {
      "channel": 2,
      "note": 66,
      "start": 57.5982,
      "duration": 0.1232,
      "velocity": 113,
      "chip": "ym2612"
    },
    {
      "channel": 3,
      "note": 62,
      "start": 57.6002,
      "duration": 0.1228,
      "velocity": 113,
      "chip": "ym2612"
    },
    {
      "channel": 2,
      "note": 69,
      "start": 57.7464,
      "duration": 0.1231,
      "velocity": 113,
      "chip": "ym2612"
    },
    {
      "channel": 3,
      "note": 73,
      "start": 57.7484,
      "duration": 0.1227,
      "velocity": 113,
      "chip": "ym2612"
    },
    {
      "channel": 4,
      "note": 59,
      "start": 57.749,
      "duration": 0.2459,
      "velocity": 97,
      "chip": "ym2612"
    },
    {
      "channel": 2,
      "note": 73,
      "start": 57.8943,
      "duration": 0.1232,
      "velocity": 113,
      "chip": "ym2612"
    },
    {
      "channel": 3,
      "note": 66,
      "start": 57.8964,
      "duration": 0.1233,
      "velocity": 113,
      "chip": "ym2612"
    },
    {
      "channel": 1,
      "note": 68,
      "start": 58.0432,
      "duration": 0.0001,
      "velocity": 127,
      "chip": "ym2612"
    }
  ]
}