{
  "track_name": "13 Stage 7",
  "duration_sec": 57.534,
  "sample_rate": 44100,
  "note_count": 855,
  "unique_pitches": 54,
  "pitch_range": 58,
  "avg_note_duration": 0.2274,
  "reconstruction_stats": {
    "notes_reconstructed": 855,
    "keyon_events": 855,
    "keyoff_events": 852,
    "orphan_keyons": 3,
    "unique_pitches": 54,
    "pitch_range": 58,
    "avg_duration_sec": 0.2274
  },
  "metadata": {
    "source": "G\\Gley Lancer\\13 Stage 7.vgz"
  },
  "notes": [
    {
      "channel": 0,
      "note": 57,
      "start": 0.0044,
      "duration": 0.0788,
      "velocity": 100,
      "chip": "ym2612"
    },
    {
      "channel": 1,
      "note": 57,
      "start": 0.0088,
      "duration": 0.7214,
      "velocity": 121,
      "chip": "ym2612"
    },
    {
      "channel": 2,
      "note": 78,
      "start": 0.0162,
      "duration": 0.012,
      "velocity": 125,
      "chip": "ym2612"
    },
    {
      "channel": 2,
      "note": 84,
      "start": 0.0309,
      "duration": 0.0102,
      "velocity": 125,
      "chip": "ym2612"
    },
    {
      "channel": 2,
      "note": 90,
      "start": 0.0438,
      "duration": 0.0573,
      "velocity": 125,
      "chip": "ym2612"
    },
    {
      "channel": 0,
      "note": 57,
      "start": 0.1006,
      "duration": 0.084,
      "velocity": 100,
      "chip": "ym2612"
    },
    {
      "channel": 2,
      "note": 96,
      "start": 0.1043,
      "duration": 0.0164,
      "velocity": 125,
      "chip": "ym2612"
    },
    {
      "channel": 4,
      "note": 78,
      "start": 0.1143,
      "duration": 0.7378,
      "velocity": 121,
      "chip": "ym2612"
    },
    {
      "channel": 2,
      "note": 102,
      "start": 0.1238,
      "duration": 0.0123,
      "velocity": 125,
      "chip": "ym2612"
    },
    {
      "channel": 2,
      "note": 96,
      "start": 0.1516,
      "duration": 0.0512,
      "velocity": 125,
      "chip": "ym2612"
    },
    {
      "channel": 0,
      "note": 57,
      "start": 0.2021,
      "duration": 0.0831,
      "velocity": 100,
      "chip": "ym2612"
    },
    {
      "channel": 2,
      "note": 90,
      "start": 0.206,
      "duration": 0.0079,
      "velocity": 125,
      "chip": "ym2612"
    },
    {
      "channel": 2,
      "note": 84,
      "start": 0.2167,
      "duration": 0.0081,
      "velocity": 125,
      "chip": "ym2612"
    },
    {
      "channel": 2,
      "note": 78,
      "start": 0.2314,
      "duration": 0.0544,
      "velocity": 125,
      "chip": "ym2612"
    },
    {
      "channel": 0,
      "note": 57,
      "start": 0.3027,
      "duration": 0.0829,
      "velocity": 100,
      "chip": "ym2612"
    },
    {
      "channel": 2,
      "note": 84,
      "start": 0.3035,
      "duration": 0.0109,
      "velocity": 125,
      "chip": "ym2612"
    },
    {
      "channel": 2,
      "note": 90,
      "start": 0.3173,
      "duration": 0.0107,
      "velocity": 125,
      "chip": "ym2612"
    },
    {
      "channel": 2,
      "note": 96,
      "start": 0.3349,
      "duration": 0.0687,
      "velocity": 125,
      "chip": "ym2612"
    },
    {
      "channel": 0,
      "note": 57,
      "start": 0.403,
      "duration": 0.0387,
      "velocity": 100,
      "chip": "ym2612"
    },
    {
      "channel": 2,
      "note": 102,
      "start": 0.4071,
      "duration": 0.0128,
      "velocity": 125,
      "chip": "ym2612"
    },
    {
      "channel": 2,
      "note": 96,
      "start": 0.4231,
      "duration": 0.0083,
      "velocity": 125,
      "chip": "ym2612"
    },
    {
      "channel": 2,
      "note": 90,
      "start": 0.4342,
      "duration": 0.0081,
      "velocity": 125,
      "chip": "ym2612"
    },
    {
      "channel": 0,
      "note": 57,
      "start": 0.4455,
      "duration": 0.0828,
      "velocity": 100,
      "chip": "ym2612"
    },
    {
      "channel": 2,
      "note": 84,
      "start": 0.4463,
      "duration": 0.0085,
      "velocity": 125,
      "chip": "ym2612"
    },
    {
      "channel": 2,
      "note": 78,
      "start": 0.4618,
      "duration": 0.0107,
      "velocity": 125,
      "chip": "ym2612"
    },
    {
      "channel": 2,
      "note": 84,
      "start": 0.4753,
      "duration": 0.0535,
      "velocity": 125,
      "chip": "ym2612"
    },
    {
      "channel": 0,
      "note": 57,
      "start": 0.5458,
      "duration": 0.0829,
      "velocity": 100,
      "chip": "ym2612"
    },
    {
      "channel": 2,
      "note": 90,
      "start": 0.5466,
      "duration": 0.011,
      "velocity": 125,
      "chip": "ym2612"
    },
    {
      "channel": 2,
      "note": 96,
      "start": 0.5605,
      "duration": 0.0106,
      "velocity": 125,
      "chip": "ym2612"
    },
    {
      "channel": 2,
      "note": 102,
      "start": 0.578,
      "duration": 0.0698,
      "velocity": 125,
      "chip": "ym2612"
    },
    {
      "channel": 0,
      "note": 57,
      "start": 0.6462,
      "duration": 0.0837,
      "velocity": 100,
      "chip": "ym2612"
    },
    {
      "channel": 2,
      "note": 96,
      "start": 0.6513,
      "duration": 0.0083,
      "velocity": 125,
      "chip": "ym2612"
    },
    {
      "channel": 2,
      "note": 90,
      "start": 0.6625,
      "duration": 0.008,
      "velocity": 125,
      "chip": "ym2612"
    },
    {
      "channel": 2,
      "note": 84,
      "start": 0.6734,
      "duration": 0.0399,
      "velocity": 125,
      "chip": "ym2612"
    },
    {
      "channel": 0,
      "note": 57,
      "start": 0.7473,
      "duration": 0.0829,
      "velocity": 100,
      "chip": "ym2612"
    },
    {
      "channel": 1,
      "note": 59,
      "start": 0.7479,
      "duration": 0.3838,
      "velocity": 121,
      "chip": "ym2612"
    },
    {
      "channel": 2,
      "note": 78,
      "start": 0.7504,
      "duration": 0.0112,
      "velocity": 125,
      "chip": "ym2612"
    },
    {
      "channel": 2,
      "note": 84,
      "start": 0.7643,
      "duration": 0.0103,
      "velocity": 125,
      "chip": "ym2612"
    },
    {
      "channel": 2,
      "note": 90,
      "start": 0.7796,
      "duration": 0.0687,
      "velocity": 125,
      "chip": "ym2612"
    },
    {
      "channel": 0,
      "note": 57,
      "start": 0.8477,
      "duration": 0.0842,
      "velocity": 100,
      "chip": "ym2612"
    },
    {
      "channel": 2,
      "note": 96,
      "start": 0.8514,
      "duration": 0.0107,
      "velocity": 125,
      "chip": "ym2612"
    },
    {
      "channel": 4,
      "note": 57,
      "start": 0.855,
      "duration": 0.3407,
      "velocity": 121,
      "chip": "ym2612"
    },
    {
      "channel": 2,
      "note": 102,
      "start": 0.8649,
      "duration": 0.0151,
      "velocity": 125,
      "chip": "ym2612"
    },
    {
      "channel": 2,
      "note": 96,
      "start": 0.8984,
      "duration": 0.0512,
      "velocity": 125,
      "chip": "ym2612"
    },
    {
      "channel": 0,
      "note": 57,
      "start": 0.949,
      "duration": 0.0821,
      "velocity": 100,
      "chip": "ym2612"
    },
    {
      "channel": 2,
      "note": 90,
      "start": 0.9528,
      "duration": 0.0079,
      "velocity": 125,
      "chip": "ym2612"
    },
    {
      "channel": 2,
      "note": 84,
      "start": 0.9636,
      "duration": 0.008,
      "velocity": 125,
      "chip": "ym2612"
    },
    {
      "channel": 2,
      "note": 78,
      "start": 0.9782,
      "duration": 0.0534,
      "velocity": 125,
      "chip": "ym2612"
    },
    {
      "channel": 0,
      "note": 57,
      "start": 1.0486,
      "duration": 0.0829,
      "velocity": 100,
      "chip": "ym2612"
    },
    {
      "channel": 2,
      "note": 84,
      "start": 1.0494,
      "duration": 0.011,
      "velocity": 125,
      "chip": "ym2612"
    },
    {
      "channel": 2,
      "note": 90,
      "start": 1.0632,
      "duration": 0.0106,
      "velocity": 125,
      "chip": "ym2612"
    },
    {
      "channel": 2,
      "note": 96,
      "start": 1.0808,
      "duration": 0.069,
      "velocity": 125,
      "chip": "ym2612"
    },
    {
      "channel": 0,
      "note": 57,
      "start": 1.149,
      "duration": 0.0387,
      "velocity": 100,
      "chip": "ym2612"
    },
    {
      "channel": 1,
      "note": 60,
      "start": 1.1495,
      "duration": 0.2819,
      "velocity": 121,
      "chip": "ym2612"
    },
    {
      "channel": 2,
      "note": 102,
      "start": 1.153,
      "duration": 0.0105,
      "velocity": 125,
      "chip": "ym2612"
    },
    {
      "channel": 2,
      "note": 96,
      "start": 1.1666,
      "duration": 0.0107,
      "velocity": 125,
      "chip": "ym2612"
    },
    {
      "channel": 2,
      "note": 90,
      "start": 1.1802,
      "duration": 0.008,
      "velocity": 125,
      "chip": "ym2612"
    },
    {
      "channel": 0,
      "note": 57,
      "start": 1.1913,
      "duration": 0.0828,
      "velocity": 100,
      "chip": "ym2612"
    },
    {
      "channel": 2,
      "note": 84,
      "start": 1.192,
      "duration": 0.0086,
      "velocity": 125,
      "chip": "ym2612"
    },
    {
      "channel": 4,
      "note": 59,
      "start": 1.1986,
      "duration": 0.3427,
      "velocity": 121,
      "chip": "ym2612"
    },
    {
      "channel": 2,
      "note": 78,
      "start": 1.2075,
      "duration": 0.0107,
      "velocity": 125,
      "chip": "ym2612"
    },
    {
      "channel": 2,
      "note": 84,
      "start": 1.221,
      "duration": 0.0536,
      "velocity": 125,
      "chip": "ym2612"
    },
    {
      "channel": 0,
      "note": 57,
      "start": 1.2915,
      "duration": 0.0829,
      "velocity": 100,
      "chip": "ym2612"
    },
    {
      "channel": 2,
      "note": 90,
      "start": 1.2923,
      "duration": 0.0108,
      "velocity": 125,
      "chip": "ym2612"
    },
    {
      "channel": 2,
      "note": 96,
      "start": 1.306,
      "duration": 0.0105,
      "velocity": 125,
      "chip": "ym2612"
    },
    {
      "channel": 2,
      "note": 102,
      "start": 1.3237,
      "duration": 0.0687,
      "velocity": 125,
      "chip": "ym2612"
    },
    {
      "channel": 0,
      "note": 69,
      "start": 1.3919,
      "duration": 0.0196,
      "velocity": 100,
      "chip": "ym2612"
    },
    {
      "channel": 2,
      "note": 96,
      "start": 1.3959,
      "duration": 0.0089,
      "velocity": 125,
      "chip": "ym2612"
    },
    {
      "channel": 2,
      "note": 90,
      "start": 1.409,
      "duration": 0.009,
      "velocity": 125,
      "chip": "ym2612"
    },
    {
      "channel": 0,
      "note": 57,
      "start": 1.4143,
      "duration": 0.0168,
      "velocity": 100,
      "chip": "ym2612"
    },
    {
      "channel": 2,
      "note": 84,
      "start": 1.4208,
      "duration": 0.008,
      "velocity": 125,
      "chip": "ym2612"
    },
    {
      "channel": 0,
      "note": 56,
      "start": 1.4359,
      "duration": 0.0832,
      "velocity": 100,
      "chip": "ym2612"
    },
    {
      "channel": 1,
      "note": 62,
      "start": 1.4365,
      "duration": 0.0193,
      "velocity": 121,
      "chip": "ym2612"
    },
    {
      "channel": 2,
      "note": 77,
      "start": 1.439,
      "duration": 0.0115,
      "velocity": 125,
      "chip": "ym2612"
    },
    {
      "channel": 2,
      "note": 83,
      "start": 1.4533,
      "duration": 0.0106,
      "velocity": 125,
      "chip": "ym2612"
    },
    {
      "channel": 1,
      "note": 60,
      "start": 1.4585,
      "duration": 0.0608,
      "velocity": 121,
      "chip": "ym2612"
    },
    {
      "channel": 2,
      "note": 89,
      "start": 1.4684,
      "duration": 0.069,
      "velocity": 125,
      "chip": "ym2612"
    },
    {
      "channel": 0,
      "note": 56,
      "start": 1.5366,
      "duration": 0.0829,
      "velocity": 100,
      "chip": "ym2612"
    },
    {
      "channel": 1,
      "note": 59,
      "start": 1.5371,
      "duration": 0.6285,
      "velocity": 121,
      "chip": "ym2612"
    },
    {
      "channel": 2,
      "note": 95,
      "start": 1.5406,
      "duration": 0.0107,
      "velocity": 125,
      "chip": "ym2612"
    },
    {
      "channel": 4,
      "note": 60,
      "start": 1.5441,
      "duration": 0.0157,
      "velocity": 121,
      "chip": "ym2612"
    },
    {
      "channel": 2,
      "note": 101,
      "start": 1.554,
      "duration": 0.0145,
      "velocity": 125,
      "chip": "ym2612"
    },
    {
      "channel": 4,
      "note": 62,
      "start": 1.5627,
      "duration": 0.08,
      "velocity": 121,
      "chip": "ym2612"
    },
    {
      "channel": 2,
      "note": 95,
      "start": 1.5859,
      "duration": 0.0526,
      "velocity": 125,
      "chip": "ym2612"
    },
    {
      "channel": 0,
      "note": 56,
      "start": 1.6369,
      "duration": 0.0832,
      "velocity": 100,
      "chip": "ym2612"
    },
    {
      "channel": 2,
      "note": 89,
      "start": 1.642,
      "duration": 0.0085,
      "velocity": 125,
      "chip": "ym2612"
    },
    {
      "channel": 4,
      "note": 60,
      "start": 1.6459,
      "duration": 0.6421,
      "velocity": 121,
      "chip": "ym2612"
    },
    {
      "channel": 2,
      "note": 83,
      "start": 1.6533,
      "duration": 0.0078,
      "velocity": 125,
      "chip": "ym2612"
    },
    {
      "channel": 2,
      "note": 77,
      "start": 1.6678,
      "duration": 0.0528,
      "velocity": 125,
      "chip": "ym2612"
    },
    {
      "channel": 0,
      "note": 56,
      "start": 1.7376,
      "duration": 0.083,
      "velocity": 100,
      "chip": "ym2612"
    },
    {
      "channel": 2,
      "note": 83,
      "start": 1.7385,
      "duration": 0.0109,
      "velocity": 125,
      "chip": "ym2612"
    },
    {
      "channel": 2,
      "note": 89,
      "start": 1.7522,
      "duration": 0.0106,
      "velocity": 125,
      "chip": "ym2612"
    },
    {
      "channel": 2,
      "note": 95,
      "start": 1.77,
      "duration": 0.0687,
      "velocity": 125,
      "chip": "ym2612"
    },
    {
      "channel": 0,
      "note": 56,
      "start": 1.8381,
      "duration": 0.0388,
      "velocity": 100,
      "chip": "ym2612"
    },
    {
      "channel": 2,
      "note": 101,
      "start": 1.8419,
      "duration": 0.0107,
      "velocity": 125,
      "chip": "ym2612"
    },
    {
      "channel": 2,
      "note": 95,
      "start": 1.8554,
      "duration": 0.009,
      "velocity": 125,
      "chip": "ym2612"
    },
    {
      "channel": 2,
      "note": 89,
      "start": 1.8676,
      "duration": 0.0098,
      "velocity": 125,
      "chip": "ym2612"
    },
    {
      "channel": 0,
      "note": 56,
      "start": 1.8813,
      "duration": 0.082,
      "velocity": 100,
      "chip": "ym2612"
    },
    {
      "channel": 2,
      "note": 83,
      "start": 1.8821,
      "duration": 0.0083,
      "velocity": 125,
      "chip": "ym2612"
    },
    {
      "channel": 2,
      "note": 77,
      "start": 1.8973,
      "duration": 0.0105,
      "velocity": 125,
      "chip": "ym2612"
    },
    {
      "channel": 2,
      "note": 83,
      "start": 1.9108,
      "duration": 0.0531,
      "velocity": 125,
      "chip": "ym2612"
    },
    {
      "channel": 0,
      "note": 56,
      "start": 1.9807,
      "duration": 0.0829,
      "velocity": 100,
      "chip": "ym2612"
    },
    {
      "channel": 2,
      "note": 89,
      "start": 1.9815,
      "duration": 0.0109,
      "velocity": 125,
      "chip": "ym2612"
    },
    {
      "channel": 2,
      "note": 95,
      "start": 1.9953,
      "duration": 0.0107,
      "velocity": 125,
      "chip": "ym2612"
    },
    {
      "channel": 2,
      "note": 101,
      "start": 2.013,
      "duration": 0.0687,
      "velocity": 125,
      "chip": "ym2612"
    },
    {
      "channel": 0,
      "note": 56,
      "start": 2.0811,
      "duration": 0.0843,
      "velocity": 100,
      "chip": "ym2612"
    },
    {
      "channel": 2,
      "note": 95,
      "start": 2.0849,
      "duration": 0.0081,
      "velocity": 125,
      "chip": "ym2612"
    },
    {
      "channel": 2,
      "note": 89,
      "start": 2.0959,
      "duration": 0.0098,
      "velocity": 125,
      "chip": "ym2612"
    },
    {
      "channel": 2,
      "note": 83,
      "start": 2.1088,
      "duration": 0.04,
      "velocity": 125,
      "chip": "ym2612"
    },
    {
      "channel": 0,
      "note": 56,
      "start": 2.1828,
      "duration": 0.0833,
      "velocity": 100,
      "chip": "ym2612"
    },
    {
      "channel": 1,
      "note": 56,
      "start": 2.1834,
      "duration": 0.0268,
      "velocity": 121,
      "chip": "ym2612"
    },
    {
      "channel": 2,
      "note": 77,
      "start": 2.1859,
      "duration": 0.0111,
      "velocity": 125,
      "chip": "ym2612"
    },
    {
      "channel": 2,
      "note": 83,
      "start": 2.1998,
      "duration": 0.0106,
      "velocity": 125,
      "chip": "ym2612"
    },
    {
      "channel": 1,
      "note": 55,
      "start": 2.2152,
      "duration": 0.08,
      "velocity": 121,
      "chip": "ym2612"
    },
    {
      "channel": 2,
      "note": 89,
      "start": 2.2157,
      "duration": 0.0684,
      "velocity": 125,
      "chip": "ym2612"
    },
    {
      "channel": 0,
      "note": 56,
      "start": 2.2836,
      "duration": 0.0829,
      "velocity": 100,
      "chip": "ym2612"
    },
    {
      "channel": 2,
      "note": 95,
      "start": 2.2873,
      "duration": 0.011,
      "velocity": 125,
      "chip": "ym2612"
    },
    {
      "channel": 4,
      "note": 59,
      "start": 2.2908,
      "duration": 0.0428,
      "velocity": 121,
      "chip": "ym2612"
    },
    {
      "channel": 1,
      "note": 54,
      "start": 2.2979,
      "duration": 0.0688,
      "velocity": 121,
      "chip": "ym2612"
    },
    {
      "channel": 2,
      "note": 101,
      "start": 2.3011,
      "duration": 0.0145,
      "velocity": 125,
      "chip": "ym2612"
    },
    {
      "channel": 2,
      "note": 95,
      "start": 2.3329,
      "duration": 0.0519,
      "velocity": 125,
      "chip": "ym2612"
    },
    {
      "channel": 4,
      "note": 56,
      "start": 2.3507,
      "duration": 0.0539,
      "velocity": 121,
      "chip": "ym2612"
    },
    {
      "channel": 0,
      "note": 56,
      "start": 2.3839,
      "duration": 0.0843,
      "velocity": 100,
      "chip": "ym2612"
    },
    {
      "channel": 1,
      "note": 53,
      "start": 2.3845,
      "duration": 0.4844,
      "velocity": 121,
      "chip": "ym2612"
    },
    {
      "channel": 2,
      "note": 89,
      "start": 2.3883,
      "duration": 0.0086,
      "velocity": 125,
      "chip": "ym2612"
    },
    {
      "channel": 2,
      "note": 83,
      "start": 2.401,
      "duration": 0.0085,
      "velocity": 125,
      "chip": "ym2612"
    },
    {
      "channel": 4,
      "note": 55,
      "start": 2.4074,
      "duration": 0.0828,
      "velocity": 121,
      "chip": "ym2612"
    },
    {
      "channel": 2,
      "note": 77,
      "start": 2.4161,
      "duration": 0.0527,
      "velocity": 125,
      "chip": "ym2612"
    },
    {
      "channel": 0,
      "note": 56,
      "start": 2.4857,
      "duration": 0.0832,
      "velocity": 100,
      "chip": "ym2612"
    },
    {
      "channel": 2,
      "note": 83,
      "start": 2.4865,
      "duration": 0.0114,
      "velocity": 125,
      "chip": "ym2612"
    },
    {
      "channel": 4,
      "note": 54,
      "start": 2.4932,
      "duration": 0.485,
      "velocity": 121,
      "chip": "ym2612"
    },
    {
      "channel": 2,
      "note": 89,
      "start": 2.5008,
      "duration": 0.0105,
      "velocity": 125,
      "chip": "ym2612"
    },
    {
      "channel": 2,
      "note": 95,
      "start": 2.5183,
      "duration": 0.0687,
      "velocity": 125,
      "chip": "ym2612"
    },
    {
      "channel": 0,
      "note": 56,
      "start": 2.5864,
      "duration": 0.0369,
      "velocity": 100,
      "chip": "ym2612"
    },
    {
      "channel": 2,
      "note": 101,
      "start": 2.5903,
      "duration": 0.0105,
      "velocity": 125,
      "chip": "ym2612"
    },
    {
      "channel": 2,
      "note": 95,
      "start": 2.6035,
      "duration": 0.0091,
      "velocity": 125,
      "chip": "ym2612"
    },
    {
      "channel": 2,
      "note": 89,
      "start": 2.6155,
      "duration": 0.0084,
      "velocity": 125,
      "chip": "ym2612"
    },
    {
      "channel": 0,
      "note": 56,
      "start": 2.6281,
      "duration": 0.0831,
      "velocity": 100,
      "chip": "ym2612"
    },
    {
      "channel": 2,
      "note": 83,
      "start": 2.63,
      "duration": 0.0088,
      "velocity": 125,
      "chip": "ym2612"
    },
    {
      "channel": 2,
      "note": 77,
      "start": 2.6457,
      "duration": 0.0106,
      "velocity": 125,
      "chip": "ym2612"
    },
    {
      "channel": 2,
      "note": 83,
      "start": 2.6592,
      "duration": 0.0525,
      "velocity": 125,
      "chip": "ym2612"
    },
    {
      "channel": 0,
      "note": 56,
      "start": 2.7286,
      "duration": 0.083,
      "velocity": 100,
      "chip": "ym2612"
    },
    {
      "channel": 2,
      "note": 89,
      "start": 2.7295,
      "duration": 0.011,
      "velocity": 125,
      "chip": "ym2612"
    },
    {
      "channel": 2,
      "note": 95,
      "start": 2.7434,
      "duration": 0.0106,
      "velocity": 125,
      "chip": "ym2612"
    },
    {
      "channel": 2,
      "note": 101,
      "start": 2.761,
      "duration": 0.0687,
      "velocity": 125,
      "chip": "ym2612"
    },
    {
      "channel": 0,
      "note": 56,
      "start": 2.8291,
      "duration": 0.017,
      "velocity": 100,
      "chip": "ym2612"
    },
    {
      "channel": 2,
      "note": 95,
      "start": 2.8329,
      "duration": 0.008,
      "velocity": 125,
      "chip": "ym2612"
    },
    {
      "channel": 2,
      "note": 89,
      "start": 2.8438,
      "duration": 0.0097,
      "velocity": 125,
      "chip": "ym2612"
    },
    {
      "channel": 0,
      "note": 56,
      "start": 2.8496,
      "duration": 0.019,
      "velocity": 100,
      "chip": "ym2612"
    },
    {
      "channel": 2,
      "note": 83,
      "start": 2.8564,
      "duration": 0.0099,
      "velocity": 125,
      "chip": "ym2612"
    },
    {
      "channel": 0,
      "note": 57,
      "start": 2.8744,
      "duration": 0.0819,
      "velocity": 100,
      "chip": "ym2612"
    },
    {
      "channel": 1,
      "note": 60,
      "start": 2.8749,
      "duration": 0.7281,
      "velocity": 121,
      "chip": "ym2612"
    },
    {
      "channel": 2,
      "note": 78,
      "start": 2.8776,
      "duration": 0.0113,
      "velocity": 125,
      "chip": "ym2612"
    },
    {
      "channel": 2,
      "note": 84,
      "start": 2.8917,
      "duration": 0.0103,
      "velocity": 125,
      "chip": "ym2612"
    },
    {
      "channel": 2,
      "note": 90,
      "start": 2.9056,
      "duration": 0.0687,
      "velocity": 125,
      "chip": "ym2612"
    },
    {
      "channel": 0,
      "note": 57,
      "start": 2.9738,
      "duration": 0.0829,
      "velocity": 100,
      "chip": "ym2612"
    },
    {
      "channel": 2,
      "note": 96,
      "start": 2.9775,
      "duration": 0.0107,
      "velocity": 125,
      "chip": "ym2612"
    },
    {
      "channel": 4,
      "note": 53,
      "start": 2.981,
      "duration": 0.745,
      "velocity": 121,
      "chip": "ym2612"
    },
    {
      "channel": 2,
      "note": 102,
      "start": 2.991,
      "duration": 0.0148,
      "velocity": 125,
      "chip": "ym2612"
    },
    {
      "channel": 2,
      "note": 96,
      "start": 3.0231,
      "duration": 0.0516,
      "velocity": 125,
      "chip": "ym2612"
    },
    {
      "channel": 0,
      "note": 57,
      "start": 3.0741,
      "duration": 0.0844,
      "velocity": 100,
      "chip": "ym2612"
    },
    {
      "channel": 2,
      "note": 90,
      "start": 3.0779,
      "duration": 0.0079,
      "velocity": 125,
      "chip": "ym2612"
    },
    {
      "channel": 2,
      "note": 84,
      "start": 3.0887,
      "duration": 0.0087,
      "velocity": 125,
      "chip": "ym2612"
    },
    {
      "channel": 2,
      "note": 78,
      "start": 3.1054,
      "duration": 0.0537,
      "velocity": 125,
      "chip": "ym2612"
    },
    {
      "channel": 0,
      "note": 57,
      "start": 3.1759,
      "duration": 0.0831,
      "velocity": 100,
      "chip": "ym2612"
    },
    {
      "channel": 2,
      "note": 84,
      "start": 3.1768,
      "duration": 0.0109,
      "velocity": 125,
      "chip": "ym2612"
    },
    {
      "channel": 2,
      "note": 90,
      "start": 3.1906,
      "duration": 0.0109,
      "velocity": 125,
      "chip": "ym2612"
    },
    {
      "channel": 2,
      "note": 96,
      "start": 3.2084,
      "duration": 0.0687,
      "velocity": 125,
      "chip": "ym2612"
    },
    {
      "channel": 0,
      "note": 57,
      "start": 3.2765,
      "duration": 0.0367,
      "velocity": 100,
      "chip": "ym2612"
    },
    {
      "channel": 2,
      "note": 102,
      "start": 3.2803,
      "duration": 0.0107,
      "velocity": 125,
      "chip": "ym2612"
    },
    {
      "channel": 2,
      "note": 96,
      "start": 3.2939,
      "duration": 0.0089,
      "velocity": 125,
      "chip": "ym2612"
    },
    {
      "channel": 2,
      "note": 90,
      "start": 3.3057,
      "duration": 0.0081,
      "velocity": 125,
      "chip": "ym2612"
    },
    {
      "channel": 0,
      "note": 57,
      "start": 3.3177,
      "duration": 0.084,
      "velocity": 100,
      "chip": "ym2612"
    },
    {
      "channel": 2,
      "note": 84,
      "start": 3.3185,
      "duration": 0.0089,
      "velocity": 125,
      "chip": "ym2612"
    },
    {
      "channel": 2,
      "note": 78,
      "start": 3.3355,
      "duration": 0.0112,
      "velocity": 125,
      "chip": "ym2612"
    },
    {
      "channel": 2,
      "note": 84,
      "start": 3.3496,
      "duration": 0.0526,
      "velocity": 125,
      "chip": "ym2612"
    },
    {
      "channel": 0,
      "note": 57,
      "start": 3.4192,
      "duration": 0.0832,
      "velocity": 100,
      "chip": "ym2612"
    },
    {
      "channel": 2,
      "note": 90,
      "start": 3.42,
      "duration": 0.0112,
      "velocity": 125,
      "chip": "ym2612"
    },
    {
      "channel": 2,
      "note": 96,
      "start": 3.4342,
      "duration": 0.0107,
      "velocity": 125,
      "chip": "ym2612"
    },
    {
      "channel": 2,
      "note": 102,
      "start": 3.4517,
      "duration": 0.0687,
      "velocity": 125,
      "chip": "ym2612"
    },
    {
      "channel": 0,
      "note": 57,
      "start": 3.5199,
      "duration": 0.0829,
      "velocity": 100,
      "chip": "ym2612"
    },
    {
      "channel": 2,
      "note": 96,
      "start": 3.5237,
      "duration": 0.008,
      "velocity": 125,
      "chip": "ym2612"
    },
    {
      "channel": 2,
      "note": 90,
      "start": 3.5346,
      "duration": 0.008,
      "velocity": 125,
      "chip": "ym2612"
    },
    {
      "channel": 2,
      "note": 84,
      "start": 3.5454,
      "duration": 0.0407,
      "velocity": 125,
      "chip": "ym2612"
    },
    {
      "channel": 0,
      "note": 57,
      "start": 3.6202,
      "duration": 0.0838,
      "velocity": 100,
      "chip": "ym2612"
    },
    {
      "channel": 1,
      "note": 62,
      "start": 3.6207,
      "duration": 0.3851,
      "velocity": 121,
      "chip": "ym2612"
    },
    {
      "channel": 2,
      "note": 78,
      "start": 3.6242,
      "duration": 0.012,
      "velocity": 125,
      "chip": "ym2612"
    },
    {
      "channel": 2,
      "note": 84,
      "start": 3.639,
      "duration": 0.0103,
      "velocity": 125,
      "chip": "ym2612"
    },
    {
      "channel": 2,
      "note": 90,
      "start": 3.6533,
      "duration": 0.0688,
      "velocity": 125,
      "chip": "ym2612"
    },
    {
      "channel": 0,
      "note": 57,
      "start": 3.7215,
      "duration": 0.083,
      "velocity": 100,
      "chip": "ym2612"
    },
    {
      "channel": 2,
      "note": 96,
      "start": 3.7253,
      "duration": 0.0107,
      "velocity": 125,
      "chip": "ym2612"
    },
    {
      "channel": 4,
      "note": 60,
      "start": 3.7288,
      "duration": 0.3397,
      "velocity": 121,
      "chip": "ym2612"
    },
    {
      "channel": 2,
      "note": 102,
      "start": 3.7388,
      "duration": 0.0148,
      "velocity": 125,
      "chip": "ym2612"
    },
    {
      "channel": 2,
      "note": 96,
      "start": 3.7709,
      "duration": 0.0516,
      "velocity": 125,
      "chip": "ym2612"
    },
    {
      "channel": 0,
      "note": 57,
      "start": 3.8219,
      "duration": 0.0842,
      "velocity": 100,
      "chip": "ym2612"
    },
    {
      "channel": 2,
      "note": 90,
      "start": 3.8257,
      "duration": 0.0079,
      "velocity": 125,
      "chip": "ym2612"
    },
    {
      "channel": 2,
      "note": 84,
      "start": 3.8365,
      "duration": 0.0078,
      "velocity": 125,
      "chip": "ym2612"
    },
    {
      "channel": 2,
      "note": 78,
      "start": 3.852,
      "duration": 0.0547,
      "velocity": 125,
      "chip": "ym2612"
    },
    {
      "channel": 0,
      "note": 57,
      "start": 3.9234,
      "duration": 0.0822,
      "velocity": 100,
      "chip": "ym2612"
    },
    {
      "channel": 2,
      "note": 84,
      "start": 3.9242,
      "duration": 0.0109,
      "velocity": 125,
      "chip": "ym2612"
    },
    {
      "channel": 2,
      "note": 90,
      "start": 3.938,
      "duration": 0.0107,
      "velocity": 125,
      "chip": "ym2612"
    },
    {
      "channel": 2,
      "note": 96,
      "start": 3.9549,
      "duration": 0.069,
      "velocity": 125,
      "chip": "ym2612"
    },
    {
      "channel": 0,
      "note": 57,
      "start": 4.023,
      "duration": 0.0364,
      "velocity": 100,
      "chip": "ym2612"
    },
    {
      "channel": 1,
      "note": 63,
      "start": 4.0236,
      "duration": 0.2801,
      "velocity": 121,
      "chip": "ym2612"
    },
    {
      "channel": 2,
      "note": 102,
      "start": 4.0271,
      "duration": 0.0105,
      "velocity": 125,
      "chip": "ym2612"
    },
    {
      "channel": 2,
      "note": 96,
      "start": 4.0404,
      "duration": 0.0088,
      "velocity": 125,
      "chip": "ym2612"
    },
    {
      "channel": 2,
      "note": 90,
      "start": 4.052,
      "duration": 0.008,
      "velocity": 125,
      "chip": "ym2612"
    },
    {
      "channel": 0,
      "note": 57,
      "start": 4.0641,
      "duration": 0.084,
      "velocity": 100,
      "chip": "ym2612"
    },
    {
      "channel": 2,
      "note": 84,
      "start": 4.0649,
      "duration": 0.0086,
      "velocity": 125,
      "chip": "ym2612"
    },
    {
      "channel": 4,
      "note": 62,
      "start": 4.0714,
      "duration": 0.344,
      "velocity": 121,
      "chip": "ym2612"
    },
    {
      "channel": 2,
      "note": 78,
      "start": 4.0813,
      "duration": 0.0105,
      "velocity": 125,
      "chip": "ym2612"
    },
    {
      "channel": 2,
      "note": 84,
      "start": 4.096,
      "duration": 0.0527,
      "velocity": 125,
      "chip": "ym2612"
    },
    {
      "channel": 0,
      "note": 57,
      "start": 4.1656,
      "duration": 0.0832,
      "velocity": 100,
      "chip": "ym2612"
    },
    {
      "channel": 2,
      "note": 90,
      "start": 4.1664,
      "duration": 0.0108,
      "velocity": 125,
      "chip": "ym2612"
    },
    {
      "channel": 2,
      "note": 96,
      "start": 4.1801,
      "duration": 0.0108,
      "velocity": 125,
      "chip": "ym2612"
    },
    {
      "channel": 2,
      "note": 102,
      "start": 4.1981,
      "duration": 0.0687,
      "velocity": 125,
      "chip": "ym2612"
    },
    {
      "channel": 0,
      "note": 69,
      "start": 4.2662,
      "duration": 0.017,
      "velocity": 100,
      "chip": "ym2612"
    },
    {
      "channel": 2,
      "note": 96,
      "start": 4.27,
      "duration": 0.008,
      "velocity": 125,
      "chip": "ym2612"
    },
    {
      "channel": 2,
      "note": 90,
      "start": 4.2809,
      "duration": 0.0094,
      "velocity": 125,
      "chip": "ym2612"
    },
    {
      "channel": 0,
      "note": 57,
      "start": 4.2867,
      "duration": 0.0167,
      "velocity": 100,
      "chip": "ym2612"
    },
    {
      "channel": 2,
      "note": 84,
      "start": 4.2932,
      "duration": 0.008,
      "velocity": 125,
      "chip": "ym2612"
    },
    {
      "channel": 0,
      "note": 56,
      "start": 4.3089,
      "duration": 0.0845,
      "velocity": 100,
      "chip": "ym2612"
    },
    {
      "channel": 1,
      "note": 65,
      "start": 4.3094,
      "duration": 0.5302,
      "velocity": 121,
      "chip": "ym2612"
    },
    {
      "channel": 2,
      "note": 77,
      "start": 4.3129,
      "duration": 0.011,
      "velocity": 125,
      "chip": "ym2612"
    },
    {
      "channel": 2,
      "note": 83,
      "start": 4.3281,
      "duration": 0.0106,
      "velocity": 125,
      "chip": "ym2612"
    },
    {
      "channel": 2,
      "note": 89,
      "start": 4.3428,
      "duration": 0.0687,
      "velocity": 125,
      "chip": "ym2612"
    },
    {
      "channel": 0,
      "note": 56,
      "start": 4.4109,
      "duration": 0.0832,
      "velocity": 100,
      "chip": "ym2612"
    },
    {
      "channel": 2,
      "note": 95,
      "start": 4.4147,
      "duration": 0.011,
      "velocity": 125,
      "chip": "ym2612"
    },
    {
      "channel": 4,
      "note": 63,
      "start": 4.4184,
      "duration": 0.5427,
      "velocity": 121,
      "chip": "ym2612"
    },
    {
      "channel": 2,
      "note": 101,
      "start": 4.4285,
      "duration": 0.0148,
      "velocity": 125,
      "chip": "ym2612"
    },
    {
      "channel": 2,
      "note": 95,
      "start": 4.4606,
      "duration": 0.0516,
      "velocity": 125,
      "chip": "ym2612"
    },
    {
      "channel": 0,
      "note": 56,
      "start": 4.5116,
      "duration": 0.0831,
      "velocity": 100,
      "chip": "ym2612"
    },
    {
      "channel": 2,
      "note": 89,
      "start": 4.5154,
      "duration": 0.0079,
      "velocity": 125,
      "chip": "ym2612"
    },
    {
      "channel": 2,
      "note": 83,
      "start": 4.5261,
      "duration": 0.0079,
      "velocity": 125,
      "chip": "ym2612"
    },
    {
      "channel": 2,
      "note": 77,
      "start": 4.5417,
      "duration": 0.0536,
      "velocity": 125,
      "chip": "ym2612"
    },
    {
      "channel": 0,
      "note": 56,
      "start": 4.6122,
      "duration": 0.0842,
      "velocity": 100,
      "chip": "ym2612"
    },
    {
      "channel": 2,
      "note": 83,
      "start": 4.6141,
      "duration": 0.0118,
      "velocity": 125,
      "chip": "ym2612"
    },
    {
      "channel": 2,
      "note": 89,
      "start": 4.629,
      "duration": 0.0106,
      "velocity": 125,
      "chip": "ym2612"
    },
    {
      "channel": 2,
      "note": 95,
      "start": 4.6458,
      "duration": 0.0688,
      "velocity": 125,
      "chip": "ym2612"
    },
    {
      "channel": 0,
      "note": 56,
      "start": 4.7139,
      "duration": 0.0368,
      "velocity": 100,
      "chip": "ym2612"
    },
    {
      "channel": 2,
      "note": 101,
      "start": 4.7179,
      "duration": 0.0107,
      "velocity": 125,
      "chip": "ym2612"
    },
    {
      "channel": 2,
      "note": 95,
      "start": 4.7315,
      "duration": 0.0088,
      "velocity": 125,
      "chip": "ym2612"
    },
    {
      "channel": 2,
      "note": 89,
      "start": 4.7432,
      "duration": 0.0081,
      "velocity": 125,
      "chip": "ym2612"
    },
    {
      "channel": 0,
      "note": 56,
      "start": 4.7552,
      "duration": 0.0842,
      "velocity": 100,
      "chip": "ym2612"
    },
    {
      "channel": 2,
      "note": 83,
      "start": 4.756,
      "duration": 0.0083,
      "velocity": 125,
      "chip": "ym2612"
    },
    {
      "channel": 2,
      "note": 77,
      "start": 4.7722,
      "duration": 0.0098,
      "velocity": 125,
      "chip": "ym2612"
    },
    {
      "channel": 2,
      "note": 83,
      "start": 4.7849,
      "duration": 0.0551,
      "velocity": 125,
      "chip": "ym2612"
    },
    {
      "channel": 0,
      "note": 56,
      "start": 4.8567,
      "duration": 0.0824,
      "velocity": 100,
      "chip": "ym2612"
    },
    {
      "channel": 1,
      "note": 66,
      "start": 4.8572,
      "duration": 0.014,
      "velocity": 121,
      "chip": "ym2612"
    },
    {
      "channel": 2,
      "note": 89,
      "start": 4.8578,
      "duration": 0.0111,
      "velocity": 125,
      "chip": "ym2612"
    },
    {
      "channel": 2,
      "note": 95,
      "start": 4.8717,
      "duration": 0.0108,
      "velocity": 125,
      "chip": "ym2612"
    },
    {
      "channel": 1,
      "note": 67,
      "start": 4.8744,
      "duration": 0.0306,
      "velocity": 121,
      "chip": "ym2612"
    },
    {
      "channel": 2,
      "note": 101,
      "start": 4.8884,
      "duration": 0.0687,
      "velocity": 125,
      "chip": "ym2612"
    },
    {
      "channel": 1,
      "note": 68,
      "start": 4.9224,
      "duration": 0.0434,
      "velocity": 121,
      "chip": "ym2612"
    },
    {
      "channel": 0,
      "note": 56,
      "start": 4.9566,
      "duration": 0.0829,
      "velocity": 100,
      "chip": "ym2612"
    },
    {
      "channel": 2,
      "note": 95,
      "start": 4.9603,
      "duration": 0.0087,
      "velocity": 125,
      "chip": "ym2612"
    },
    {
      "channel": 4,
      "note": 65,
      "start": 4.964,
      "duration": 0.0136,
      "velocity": 121,
      "chip": "ym2612"
    },
    {
      "channel": 1,
      "note": 69,
      "start": 4.9686,
      "duration": 0.0107,
      "velocity": 121,
      "chip": "ym2612"
    },
    {
      "channel": 2,
      "note": 89,
      "start": 4.9717,
      "duration": 0.0079,
      "velocity": 125,
      "chip": "ym2612"
    },
    {
      "channel": 4,
      "note": 66,
      "start": 4.9805,
      "duration": 0.0609,
      "velocity": 121,
      "chip": "ym2612"
    },
    {
      "channel": 1,
      "note": 70,
      "start": 4.9826,
      "duration": 0.0572,
      "velocity": 121,
      "chip": "ym2612"
    },
    {
      "channel": 2,
      "note": 83,
      "start": 4.9831,
      "duration": 0.0397,
      "velocity": 125,
      "chip": "ym2612"
    },
    {
      "channel": 0,
      "note": 56,
      "start": 5.057,
      "duration": 0.0845,
      "velocity": 100,
      "chip": "ym2612"
    },
    {
      "channel": 1,
      "note": 71,
      "start": 5.0575,
      "duration": 0.6856,
      "velocity": 121,
      "chip": "ym2612"
    },
    {
      "channel": 2,
      "note": 77,
      "start": 5.06,
      "duration": 0.0116,
      "velocity": 125,
      "chip": "ym2612"
    },
    {
      "channel": 4,
      "note": 67,
      "start": 5.0623,
      "duration": 0.0126,
      "velocity": 121,
      "chip": "ym2612"
    },
    {
      "channel": 2,
      "note": 83,
      "start": 5.0743,
      "duration": 0.0128,
      "velocity": 125,
      "chip": "ym2612"
    },
    {
      "channel": 4,
      "note": 68,
      "start": 5.078,
      "duration": 0.0144,
      "velocity": 121,
      "chip": "ym2612"
    },
    {
      "channel": 2,
      "note": 89,
      "start": 5.0918,
      "duration": 0.0677,
      "velocity": 125,
      "chip": "ym2612"
    },
    {
      "channel": 4,
      "note": 69,
      "start": 5.1092,
      "duration": 0.0541,
      "velocity": 121,
      "chip": "ym2612"
    },
    {
      "channel": 0,
      "note": 56,
      "start": 5.1589,
      "duration": 0.0832,
      "velocity": 100,
      "chip": "ym2612"
    },
    {
      "channel": 2,
      "note": 95,
      "start": 5.1626,
      "duration": 0.0106,
      "velocity": 125,
      "chip": "ym2612"
    },
    {
      "channel": 4,
      "note": 70,
      "start": 5.1661,
      "duration": 0.6884,
      "velocity": 121,
      "chip": "ym2612"
    },
    {
      "channel": 2,
      "note": 101,
      "start": 5.1761,
      "duration": 0.0151,
      "velocity": 125,
      "chip": "ym2612"
    },
    {
      "channel": 2,
      "note": 95,
      "start": 5.2085,
      "duration": 0.0516,
      "velocity": 125,
      "chip": "ym2612"
    },
    {
      "channel": 0,
      "note": 56,
      "start": 5.2596,
      "duration": 0.0832,
      "velocity": 100,
      "chip": "ym2612"
    },
    {
      "channel": 2,
      "note": 89,
      "start": 5.2634,
      "duration": 0.0079,
      "velocity": 125,
      "chip": "ym2612"
    },
    {
      "channel": 2,
      "note": 83,
      "start": 5.2741,
      "duration": 0.0079,
      "velocity": 125,
      "chip": "ym2612"
    },
    {
      "channel": 2,
      "note": 77,
      "start": 5.2886,
      "duration": 0.0546,
      "velocity": 125,
      "chip": "ym2612"
    },
    {
      "channel": 0,
      "note": 56,
      "start": 5.3602,
      "duration": 0.0846,
      "velocity": 100,
      "chip": "ym2612"
    },
    {
      "channel": 2,
      "note": 83,
      "start": 5.361,
      "duration": 0.0118,
      "velocity": 125,
      "chip": "ym2612"
    },
    {
      "channel": 2,
      "note": 89,
      "start": 5.377,
      "duration": 0.011,
      "velocity": 125,
      "chip": "ym2612"
    },
    {
      "channel": 2,
      "note": 95,
      "start": 5.3941,
      "duration": 0.0687,
      "velocity": 125,
      "chip": "ym2612"
    },
    {
      "channel": 0,
      "note": 56,
      "start": 5.4622,
      "duration": 0.037,
      "velocity": 100,
      "chip": "ym2612"
    },
    {
      "channel": 2,
      "note": 101,
      "start": 5.4661,
      "duration": 0.0109,
      "velocity": 125,
      "chip": "ym2612"
    },
    {
      "channel": 2,
      "note": 95,
      "start": 5.4799,
      "duration": 0.0089,
      "velocity": 125,
      "chip": "ym2612"
    },
    {
      "channel": 2,
      "note": 89,
      "start": 5.4917,
      "duration": 0.0081,
      "velocity": 125,
      "chip": "ym2612"
    },
    {
      "channel": 0,
      "note": 56,
      "start": 5.5037,
      "duration": 0.0829,
      "velocity": 100,
      "chip": "ym2612"
    },
    {
      "channel": 2,
      "note": 83,
      "start": 5.5045,
      "duration": 0.0083,
      "velocity": 125,
      "chip": "ym2612"
    },
    {
      "channel": 2,
      "note": 77,
      "start": 5.5196,
      "duration": 0.0109,
      "velocity": 125,
      "chip": "ym2612"
    },
    {
      "channel": 2,
      "note": 83,
      "start": 5.5334,
      "duration": 0.0537,
      "velocity": 125,
      "chip": "ym2612"
    },
    {
      "channel": 0,
      "note": 56,
      "start": 5.604,
      "duration": 0.084,
      "velocity": 100,
      "chip": "ym2612"
    },
    {
      "channel": 2,
      "note": 89,
      "start": 5.6059,
      "duration": 0.0117,
      "velocity": 125,
      "chip": "ym2612"
    },
    {
      "channel": 2,
      "note": 95,
      "start": 5.6205,
      "duration": 0.0106,
      "velocity": 125,
      "chip": "ym2612"
    },
    {
      "channel": 2,
      "note": 101,
      "start": 5.6373,
      "duration": 0.0688,
      "velocity": 125,
      "chip": "ym2612"
    },
    {
      "channel": 0,
      "note": 56,
      "start": 5.7054,
      "duration": 0.0172,
      "velocity": 100,
      "chip": "ym2612"
    },
    {
      "channel": 2,
      "note": 95,
      "start": 5.7094,
      "duration": 0.0081,
      "velocity": 125,
      "chip": "ym2612"
    },
    {
      "channel": 2,
      "note": 89,
      "start": 5.7204,
      "duration": 0.0093,
      "velocity": 125,
      "chip": "ym2612"
    },
    {
      "channel": 0,
      "note": 56,
      "start": 5.7261,
      "duration": 0.0167,
      "velocity": 100,
      "chip": "ym2612"
    },
    {
      "channel": 2,
      "note": 83,
      "start": 5.7326,
      "duration": 0.008,
      "velocity": 125,
      "chip": "ym2612"
    },
    {
      "channel": 0,
      "note": 57,
      "start": 5.7488,
      "duration": 0.083,
      "velocity": 100,
      "chip": "ym2612"
    },
    {
      "channel": 1,
      "note": 72,
      "start": 5.7493,
      "duration": 0.0271,
      "velocity": 121,
      "chip": "ym2612"
    },
    {
      "channel": 2,
      "note": 78,
      "start": 5.7519,
      "duration": 0.0116,
      "velocity": 125,
      "chip": "ym2612"
    },
    {
      "channel": 2,
      "note": 84,
      "start": 5.7663,
      "duration": 0.0104,
      "velocity": 125,
      "chip": "ym2612"
    },
    {
      "channel": 1,
      "note": 71,
      "start": 5.7808,
      "duration": 0.0812,
      "velocity": 121,
      "chip": "ym2612"
    },
    {
      "channel": 2,
      "note": 90,
      "start": 5.7813,
      "duration": 0.0694,
      "velocity": 125,
      "chip": "ym2612"
    },
    {
      "channel": 0,
      "note": 57,
      "start": 5.8501,
      "duration": 0.0823,
      "velocity": 100,
      "chip": "ym2612"
    },
    {
      "channel": 2,
      "note": 96,
      "start": 5.8538,
      "duration": 0.0113,
      "velocity": 125,
      "chip": "ym2612"
    },
    {
      "channel": 4,
      "note": 71,
      "start": 5.8576,
      "duration": 0.042,
      "velocity": 121,
      "chip": "ym2612"
    },
    {
      "channel": 1,
      "note": 69,
      "start": 5.8647,
      "duration": 0.068,
      "velocity": 121,
      "chip": "ym2612"
    },
    {
      "channel": 2,
      "note": 102,
      "start": 5.8679,
      "duration": 0.0137,
      "velocity": 125,
      "chip": "ym2612"
    },
    {
      "channel": 2,
      "note": 96,
      "start": 5.899,
      "duration": 0.0519,
      "velocity": 125,
      "chip": "ym2612"
    },
    {
      "channel": 4,
      "note": 72,
      "start": 5.9167,
      "duration": 0.0511,
      "velocity": 121,
      "chip": "ym2612"
    },
    {
      "channel": 0,
      "note": 57,
      "start": 5.9499,
      "duration": 0.0829,
      "velocity": 100,
      "chip": "ym2612"
    },
    {
      "channel": 1,
      "note": 81,
      "start": 5.9505,
      "duration": 0.9872,
      "velocity": 121,
      "chip": "ym2612"
    },
    {
      "channel": 2,
      "note": 90,
      "start": 5.9539,
      "duration": 0.0078,
      "velocity": 125,
      "chip": "ym2612"
    },
    {
      "channel": 2,
      "note": 84,
      "start": 5.9645,
      "duration": 0.0082,
      "velocity": 125,
      "chip": "ym2612"
    },
    {
      "channel": 4,
      "note": 71,
      "start": 5.9707,
      "duration": 0.084,
      "velocity": 121,
      "chip": "ym2612"
    },
    {
      "channel": 2,
      "note": 78,
      "start": 5.9793,
      "duration": 0.0541,
      "velocity": 125,
      "chip": "ym2612"
    },
    {
      "channel": 0,
      "note": 57,
      "start": 6.0503,
      "duration": 0.0842,
      "velocity": 100,
      "chip": "ym2612"
    },
    {
      "channel": 2,
      "note": 84,
      "start": 6.051,
      "duration": 0.0111,
      "velocity": 125,
      "chip": "ym2612"
    },
    {
      "channel": 4,
      "note": 69,
      "start": 6.0575,
      "duration": 0.9891,
      "velocity": 121,
      "chip": "ym2612"
    },
    {
      "channel": 2,
      "note": 90,
      "start": 6.0649,
      "duration": 0.0126,
      "velocity": 125,
      "chip": "ym2612"
    },
    {
      "channel": 2,
      "note": 96,
      "start": 6.0849,
      "duration": 0.0677,
      "velocity": 125,
      "chip": "ym2612"
    },
    {
      "channel": 0,
      "note": 57,
      "start": 6.152,
      "duration": 0.037,
      "velocity": 100,
      "chip": "ym2612"
    },
    {
      "channel": 2,
      "note": 102,
      "start": 6.1558,
      "duration": 0.0105,
      "velocity": 125,
      "chip": "ym2612"
    },
    {
      "channel": 2,
      "note": 96,
      "start": 6.1692,
      "duration": 0.0093,
      "velocity": 125,
      "chip": "ym2612"
    },
    {
      "channel": 2,
      "note": 90,
      "start": 6.1814,
      "duration": 0.0081,
      "velocity": 125,
      "chip": "ym2612"
    },
    {
      "channel": 0,
      "note": 57,
      "start": 6.1934,
      "duration": 0.0826,
      "velocity": 100,
      "chip": "ym2612"
    },
    {
      "channel": 2,
      "note": 84,
      "start": 6.1942,
      "duration": 0.0083,
      "velocity": 125,
      "chip": "ym2612"
    },
    {
      "channel": 2,
      "note": 78,
      "start": 6.2094,
      "duration": 0.0106,
      "velocity": 125,
      "chip": "ym2612"
    },
    {
      "channel": 2,
      "note": 84,
      "start": 6.2229,
      "duration": 0.0537,
      "velocity": 125,
      "chip": "ym2612"
    },
    {
      "channel": 0,
      "note": 57,
      "start": 6.2934,
      "duration": 0.0845,
      "velocity": 100,
      "chip": "ym2612"
    },
    {
      "channel": 2,
      "note": 90,
      "start": 6.2942,
      "duration": 0.0118,
      "velocity": 125,
      "chip": "ym2612"
    },
    {
      "channel": 2,
      "note": 96,
      "start": 6.3102,
      "duration": 0.0109,
      "velocity": 125,
      "chip": "ym2612"
    },
    {
      "channel": 2,
      "note": 102,
      "start": 6.3273,
      "duration": 0.0687,
      "velocity": 125,
      "chip": "ym2612"
    },
    {
      "channel": 0,
      "note": 57,
      "start": 6.3954,
      "duration": 0.0833,
      "velocity": 100,
      "chip": "ym2612"
    },
    {
      "channel": 2,
      "note": 96,
      "start": 6.3993,
      "duration": 0.0082,
      "velocity": 125,
      "chip": "ym2612"
    },
    {
      "channel": 2,
      "note": 90,
      "start": 6.4105,
      "duration": 0.008,
      "velocity": 125,
      "chip": "ym2612"
    },
    {
      "channel": 2,
      "note": 84,
      "start": 6.4215,
      "duration": 0.0407,
      "velocity": 125,
      "chip": "ym2612"
    },
    {
      "channel": 0,
      "note": 57,
      "start": 6.4962,
      "duration": 0.0829,
      "velocity": 100,
      "chip": "ym2612"
    },
    {
      "channel": 2,
      "note": 78,
      "start": 6.499,
      "duration": 0.0112,
      "velocity": 125,
      "chip": "ym2612"
    },
    {
      "channel": 2,
      "note": 84,
      "start": 6.5131,
      "duration": 0.0104,
      "velocity": 125,
      "chip": "ym2612"
    },
    {
      "channel": 2,
      "note": 90,
      "start": 6.5285,
      "duration": 0.0687,
      "velocity": 125,
      "chip": "ym2612"
    },
    {
      "channel": 0,
      "note": 57,
      "start": 6.5966,
      "duration": 0.084,
      "velocity": 100,
      "chip": "ym2612"
    },
    {
      "channel": 2,
      "note": 96,
      "start": 6.6018,
      "duration": 0.011,
      "velocity": 125,
      "chip": "ym2612"
    },
    {
      "channel": 2,
      "note": 102,
      "start": 6.6156,
      "duration": 0.0141,
      "velocity": 125,
      "chip": "ym2612"
    },
    {
      "channel": 2,
      "note": 96,
      "start": 6.6471,
      "duration": 0.0516,
      "velocity": 125,
      "chip": "ym2612"
    },
    {
      "channel": 0,
      "note": 57,
      "start": 6.698,
      "duration": 0.0827,
      "velocity": 100,
      "chip": "ym2612"
    },
    {
      "channel": 2,
      "note": 90,
      "start": 6.702,
      "duration": 0.0081,
      "velocity": 125,
      "chip": "ym2612"
    },
    {
      "channel": 2,
      "note": 84,
      "start": 6.7129,
      "duration": 0.008,
      "velocity": 125,
      "chip": "ym2612"
    },
    {
      "channel": 2,
      "note": 78,
      "start": 6.7275,
      "duration": 0.0538,
      "velocity": 125,
      "chip": "ym2612"
    },
    {
      "channel": 0,
      "note": 57,
      "start": 6.7982,
      "duration": 0.0832,
      "velocity": 100,
      "chip": "ym2612"
    },
    {
      "channel": 2,
      "note": 84,
      "start": 6.799,
      "duration": 0.011,
      "velocity": 125,
      "chip": "ym2612"
    },
    {
      "channel": 2,
      "note": 90,
      "start": 6.8129,
      "duration": 0.0106,
      "velocity": 125,
      "chip": "ym2612"
    },
    {
      "channel": 2,
      "note": 96,
      "start": 6.8308,
      "duration": 0.0697,
      "velocity": 125,
      "chip": "ym2612"
    },
    {
      "channel": 0,
      "note": 57,
      "start": 6.8999,
      "duration": 0.0375,
      "velocity": 100,
      "chip": "ym2612"
    },
    {
      "channel": 2,
      "note": 102,
      "start": 6.9037,
      "duration": 0.0106,
      "velocity": 125,
      "chip": "ym2612"
    },
    {
      "channel": 2,
      "note": 96,
      "start": 6.9172,
      "duration": 0.0096,
      "velocity": 125,
      "chip": "ym2612"
    },
    {
      "channel": 2,
      "note": 90,
      "start": 6.9297,
      "duration": 0.0083,
      "velocity": 125,
      "chip": "ym2612"
    },
    {
      "channel": 0,
      "note": 57,
      "start": 6.9419,
      "duration": 0.0825,
      "velocity": 100,
      "chip": "ym2612"
    },
    {
      "channel": 1,
      "note": 79,
      "start": 6.9424,
      "duration": 0.0823,
      "velocity": 121,
      "chip": "ym2612"
    },
    {
      "channel": 2,
      "note": 84,
      "start": 6.9429,
      "duration": 0.0083,
      "velocity": 125,
      "chip": "ym2612"
    },
    {
      "channel": 2,
      "note": 78,
      "start": 6.958,
      "duration": 0.0104,
      "velocity": 125,
      "chip": "ym2612"
    },
    {
      "channel": 2,
      "note": 84,
      "start": 6.9712,
      "duration": 0.0537,
      "velocity": 125,
      "chip": "ym2612"
    },
    {
      "channel": 0,
      "note": 57,
      "start": 7.0419,
      "duration": 0.0843,
      "velocity": 100,
      "chip": "ym2612"
    },
    {
      "channel": 1,
      "note": 78,
      "start": 7.0424,
      "duration": 0.084,
      "velocity": 121,
      "chip": "ym2612"
    },
    {
      "channel": 2,
      "note": 90,
      "start": 7.0429,
      "duration": 0.0111,
      "velocity": 125,
      "chip": "ym2612"
    },
    {
      "channel": 4,
      "note": 81,
      "start": 7.0495,
      "duration": 0.0989,
      "velocity": 121,
      "chip": "ym2612"
    },
    {
      "channel": 2,
      "note": 96,
      "start": 7.0569,
      "duration": 0.0125,
      "velocity": 125,
      "chip": "ym2612"
    },
    {
      "channel": 2,
      "note": 102,
      "start": 7.0765,
      "duration": 0.068,
      "velocity": 125,
      "chip": "ym2612"
    },
    {
      "channel": 0,
      "note": 69,
      "start": 7.1436,
      "duration": 0.0174,
      "velocity": 100,
      "chip": "ym2612"
    },
    {
      "channel": 1,
      "note": 76,
      "start": 7.1441,
      "duration": 0.0368,
      "velocity": 121,
      "chip": "ym2612"
    },
    {
      "channel": 2,
      "note": 96,
      "start": 7.1476,
      "duration": 0.0083,
      "velocity": 125,
      "chip": "ym2612"
    },
    {
      "channel": 4,
      "note": 79,
      "start": 7.1512,
      "duration": 0.041,
      "velocity": 121,
      "chip": "ym2612"
    },
    {
      "channel": 2,
      "note": 90,
      "start": 7.1587,
      "duration": 0.0091,
      "velocity": 125,
      "chip": "ym2612"
    },
    {
      "channel": 0,
      "note": 57,
      "start": 7.1643,
      "duration": 0.0164,
      "velocity": 100,
      "chip": "ym2612"
    },
    {
      "channel": 2,
      "note": 84,
      "start": 7.1707,
      "duration": 0.0078,
      "velocity": 125,
      "chip": "ym2612"
    },
    {
      "channel": 0,
      "note": 56,
      "start": 7.1851,
      "duration": 0.0829,
      "velocity": 100,
      "chip": "ym2612"
    },
    {
      "channel": 1,
      "note": 74,
      "start": 7.1856,
      "duration": 0.0267,
      "velocity": 121,
      "chip": "ym2612"
    },
    {
      "channel": 2,
      "note": 77,
      "start": 7.1881,
      "duration": 0.0116,
      "velocity": 125,
      "chip": "ym2612"
    },
    {
      "channel": 4,
      "note": 78,
      "start": 7.1951,
      "duration": 0.0947,
      "velocity": 121,
      "chip": "ym2612"
    },
    {
      "channel": 2,
      "note": 83,
      "start": 7.2024,
      "duration": 0.0102,
      "velocity": 125,
      "chip": "ym2612"
    },
    {
      "channel": 1,
      "note": 72,
      "start": 7.2171,
      "duration": 0.0805,
      "velocity": 121,
      "chip": "ym2612"
    },
    {
      "channel": 2,
      "note": 89,
      "start": 7.2176,
      "duration": 0.0684,
      "velocity": 125,
      "chip": "ym2612"
    },
    {
      "channel": 0,
      "note": 56,
      "start": 7.2855,
      "duration": 0.0848,
      "velocity": 100,
      "chip": "ym2612"
    },
    {
      "channel": 2,
      "note": 95,
      "start": 7.2891,
      "duration": 0.0129,
      "velocity": 125,
      "chip": "ym2612"
    },
    {
      "channel": 4,
      "note": 76,
      "start": 7.2927,
      "duration": 0.0448,
      "velocity": 121,
      "chip": "ym2612"
    },
    {
      "channel": 1,
      "note": 71,
      "start": 7.3006,
      "duration": 0.0699,
      "velocity": 121,
      "chip": "ym2612"
    },
    {
      "channel": 2,
      "note": 101,
      "start": 7.3051,
      "duration": 0.0143,
      "velocity": 125,
      "chip": "ym2612"
    },
    {
      "channel": 2,
      "note": 95,
      "start": 7.3367,
      "duration": 0.0519,
      "velocity": 125,
      "chip": "ym2612"
    },
    {
      "channel": 4,
      "note": 74,
      "start": 7.3545,
      "duration": 0.0515,
      "velocity": 121,
      "chip": "ym2612"
    },
    {
      "channel": 0,
      "note": 56,
      "start": 7.3878,
      "duration": 0.0829,
      "velocity": 100,
      "chip": "ym2612"
    },
    {
      "channel": 1,
      "note": 83,
      "start": 7.3883,
      "duration": 0.9879,
      "velocity": 121,
      "chip": "ym2612"
    },
    {
      "channel": 2,
      "note": 89,
      "start": 7.3919,
      "duration": 0.008,
      "velocity": 125,
      "chip": "ym2612"
    },
    {
      "channel": 2,
      "note": 83,
      "start": 7.4027,
      "duration": 0.0083,
      "velocity": 125,
      "chip": "ym2612"
    },
    {
      "channel": 4,
      "note": 72,
      "start": 7.4089,
      "duration": 0.0837,
      "velocity": 121,
      "chip": "ym2612"
    },
    {
      "channel": 2,
      "note": 77,
      "start": 7.4175,
      "duration": 0.0537,
      "velocity": 125,
      "chip": "ym2612"
    },
    {
      "channel": 0,
      "note": 56,
      "start": 7.4882,
      "duration": 0.0829,
      "velocity": 100,
      "chip": "ym2612"
    },
    {
      "channel": 2,
      "note": 83,
      "start": 7.4889,
      "duration": 0.0111,
      "velocity": 125,
      "chip": "ym2612"
    },
    {
      "channel": 4,
      "note": 71,
      "start": 7.4954,
      "duration": 0.9888,
      "velocity": 121,
      "chip": "ym2612"
    },
    {
      "channel": 2,
      "note": 89,
      "start": 7.5028,
      "duration": 0.0105,
      "velocity": 125,
      "chip": "ym2612"
    },
    {
      "channel": 2,
      "note": 95,
      "start": 7.5204,
      "duration": 0.0687,
      "velocity": 125,
      "chip": "ym2612"
    },
    {
      "channel": 0,
      "note": 56,
      "start": 7.5885,
      "duration": 0.0394,
      "velocity": 100,
      "chip": "ym2612"
    },
    {
      "channel": 2,
      "note": 101,
      "start": 7.5926,
      "duration": 0.0121,
      "velocity": 125,
      "chip": "ym2612"
    },
    {
      "channel": 2,
      "note": 95,
      "start": 7.6075,
      "duration": 0.0099,
      "velocity": 125,
      "chip": "ym2612"
    },
    {
      "channel": 2,
      "note": 89,
      "start": 7.6203,
      "duration": 0.0082,
      "velocity": 125,
      "chip": "ym2612"
    },
    {
      "channel": 0,
      "note": 56,
      "start": 7.6324,
      "duration": 0.0826,
      "velocity": 100,
      "chip": "ym2612"
    },
    {
      "channel": 2,
      "note": 83,
      "start": 7.6333,
      "duration": 0.0084,
      "velocity": 125,
      "chip": "ym2612"
    },
    {
      "channel": 2,
      "note": 77,
      "start": 7.6486,
      "duration": 0.0106,
      "velocity": 125,
      "chip": "ym2612"
    },
    {
      "channel": 2,
      "note": 83,
      "start": 7.662,
      "duration": 0.0536,
      "velocity": 125,
      "chip": "ym2612"
    },
    {
      "channel": 0,
      "note": 56,
      "start": 7.7325,
      "duration": 0.0832,
      "velocity": 100,
      "chip": "ym2612"
    },
    {
      "channel": 2,
      "note": 89,
      "start": 7.7333,
      "duration": 0.011,
      "velocity": 125,
      "chip": "ym2612"
    },
    {
      "channel": 2,
      "note": 95,
      "start": 7.7471,
      "duration": 0.0106,
      "velocity": 125,
      "chip": "ym2612"
    },
    {
      "channel": 2,
      "note": 101,
      "start": 7.765,
      "duration": 0.0698,
      "velocity": 125,
      "chip": "ym2612"
    },
    {
      "channel": 0,
      "note": 56,
      "start": 7.8341,
      "duration": 0.0822,
      "velocity": 100,
      "chip": "ym2612"
    },
    {
      "channel": 2,
      "note": 95,
      "start": 7.8382,
      "duration": 0.008,
      "velocity": 125,
      "chip": "ym2612"
    },
    {
      "channel": 2,
      "note": 89,
      "start": 7.8491,
      "duration": 0.008,
      "velocity": 125,
      "chip": "ym2612"
    },
    {
      "channel": 2,
      "note": 83,
      "start": 7.86,
      "duration": 0.0398,
      "velocity": 125,
      "chip": "ym2612"
    },
    {
      "channel": 0,
      "note": 56,
      "start": 7.9339,
      "duration": 0.0828,
      "velocity": 100,
      "chip": "ym2612"
    },
    {
      "channel": 2,
      "note": 77,
      "start": 7.9366,
      "duration": 0.0112,
      "velocity": 125,
      "chip": "ym2612"
    },
    {
      "channel": 2,
      "note": 83,
      "start": 7.9507,
      "duration": 0.0104,
      "velocity": 125,
      "chip": "ym2612"
    },
    {
      "channel": 2,
      "note": 89,
      "start": 7.966,
      "duration": 0.0688,
      "velocity": 125,
      "chip": "ym2612"
    },
    {
      "channel": 0,
      "note": 56,
      "start": 8.0342,
      "duration": 0.084,
      "velocity": 100,
      "chip": "ym2612"
    },
    {
      "channel": 2,
      "note": 95,
      "start": 8.038,
      "duration": 0.0104,
      "velocity": 125,
      "chip": "ym2612"
    },
    {
      "channel": 2,
      "note": 101,
      "start": 8.0513,
      "duration": 0.0171,
      "velocity": 125,
      "chip": "ym2612"
    },
    {
      "channel": 2,
      "note": 95,
      "start": 8.0855,
      "duration": 0.0507,
      "velocity": 125,
      "chip": "ym2612"
    },
    {
      "channel": 0,
      "note": 56,
      "start": 8.1356,
      "duration": 0.0828,
      "velocity": 100,
      "chip": "ym2612"
    },
    {
      "channel": 2,
      "note": 89,
      "start": 8.1394,
      "duration": 0.008,
      "velocity": 125,
      "chip": "ym2612"
    },
    {
      "channel": 2,
      "note": 83,
      "start": 8.1504,
      "duration": 0.0082,
      "velocity": 125,
      "chip": "ym2612"
    },
    {
      "channel": 2,
      "note": 77,
      "start": 8.1652,
      "duration": 0.0537,
      "velocity": 125,
      "chip": "ym2612"
    },
    {
      "channel": 0,
      "note": 56,
      "start": 8.2359,
      "duration": 0.0828,
      "velocity": 100,
      "chip": "ym2612"
    },
    {
      "channel": 2,
      "note": 83,
      "start": 8.2367,
      "duration": 0.0109,
      "velocity": 125,
      "chip": "ym2612"
    },
    {
      "channel": 2,
      "note": 89,
      "start": 8.2505,
      "duration": 0.0106,
      "velocity": 125,
      "chip": "ym2612"
    },
    {
      "channel": 2,
      "note": 95,
      "start": 8.2681,
      "duration": 0.0687,
      "velocity": 125,
      "chip": "ym2612"
    },
    {
      "channel": 0,
      "note": 56,
      "start": 8.3362,
      "duration": 0.0398,
      "velocity": 100,
      "chip": "ym2612"
    },
    {
      "channel": 2,
      "note": 101,
      "start": 8.3403,
      "duration": 0.0114,
      "velocity": 125,
      "chip": "ym2612"
    },
    {
      "channel": 2,
      "note": 95,
      "start": 8.356,
      "duration": 0.0096,
      "velocity": 125,
      "chip": "ym2612"
    },
    {
      "channel": 2,
      "note": 89,
      "start": 8.3685,
      "duration": 0.0081,
      "velocity": 125,
      "chip": "ym2612"
    },
    {
      "channel": 0,
      "note": 56,
      "start": 8.3791,
      "duration": 0.0829,
      "velocity": 100,
      "chip": "ym2612"
    },
    {
      "channel": 1,
      "note": 81,
      "start": 8.3796,
      "duration": 0.0826,
      "velocity": 121,
      "chip": "ym2612"
    },
    {
      "channel": 2,
      "note": 83,
      "start": 8.3802,
      "duration": 0.0084,
      "velocity": 125,
      "chip": "ym2612"
    },
    {
      "channel": 2,
      "note": 77,
      "start": 8.3955,
      "duration": 0.0105,
      "velocity": 125,
      "chip": "ym2612"
    },
    {
      "channel": 2,
      "note": 83,
      "start": 8.4089,
      "duration": 0.0537,
      "velocity": 125,
      "chip": "ym2612"
    },
    {
      "channel": 0,
      "note": 56,
      "start": 8.4795,
      "duration": 0.0829,
      "velocity": 100,
      "chip": "ym2612"
    },
    {
      "channel": 1,
      "note": 80,
      "start": 8.48,
      "duration": 0.0826,
      "velocity": 121,
      "chip": "ym2612"
    },
    {
      "channel": 2,
      "note": 89,
      "start": 8.4806,
      "duration": 0.0111,
      "velocity": 125,
      "chip": "ym2612"
    },
    {
      "channel": 4,
      "note": 83,
      "start": 8.4871,
      "duration": 0.0989,
      "velocity": 121,
      "chip": "ym2612"
    },
    {
      "channel": 2,
      "note": 95,
      "start": 8.4945,
      "duration": 0.0104,
      "velocity": 125,
      "chip": "ym2612"
    },
    {
      "channel": 2,
      "note": 101,
      "start": 8.5117,
      "duration": 0.069,
      "velocity": 125,
      "chip": "ym2612"
    },
    {
      "channel": 0,
      "note": 56,
      "start": 8.5799,
      "duration": 0.0192,
      "velocity": 100,
      "chip": "ym2612"
    },
    {
      "channel": 1,
      "note": 77,
      "start": 8.5804,
      "duration": 0.0388,
      "velocity": 121,
      "chip": "ym2612"
    },
    {
      "channel": 2,
      "note": 95,
      "start": 8.5841,
      "duration": 0.0098,
      "velocity": 125,
      "chip": "ym2612"
    },
    {
      "channel": 4,
      "note": 81,
      "start": 8.5891,
      "duration": 0.0424,
      "velocity": 121,
      "chip": "ym2612"
    },
    {
      "channel": 2,
      "note": 89,
      "start": 8.5968,
      "duration": 0.0093,
      "velocity": 125,
      "chip": "ym2612"
    },
    {
      "channel": 0,
      "note": 56,
      "start": 8.6026,
      "duration": 0.0163,
      "velocity": 100,
      "chip": "ym2612"
    },
    {
      "channel": 2,
      "note": 83,
      "start": 8.6088,
      "duration": 0.0078,
      "velocity": 125,
      "chip": "ym2612"
    },
    {
      "channel": 0,
      "note": 57,
      "start": 8.624,
      "duration": 0.0825,
      "velocity": 100,
      "chip": "ym2612"
    },
    {
      "channel": 1,
      "note": 75,
      "start": 8.6246,
      "duration": 0.0271,
      "velocity": 121,
      "chip": "ym2612"
    },
    {
      "channel": 2,
      "note": 78,
      "start": 8.6273,
      "duration": 0.0117,
      "velocity": 125,
      "chip": "ym2612"
    },
    {
      "channel": 4,
      "note": 80,
      "start": 8.6344,
      "duration": 0.0939,
      "velocity": 121,
      "chip": "ym2612"
    },
    {
      "channel": 2,
      "note": 84,
      "start": 8.6418,
      "duration": 0.0102,
      "velocity": 125,
      "chip": "ym2612"
    },
    {
      "channel": 1,
      "note": 74,
      "start": 8.6556,
      "duration": 0.0799,
      "velocity": 121,
      "chip": "ym2612"
    },
    {
      "channel": 2,
      "note": 90,
      "start": 8.6561,
      "duration": 0.0684,
      "velocity": 125,
      "chip": "ym2612"
    },
    {
      "channel": 0,
      "note": 57,
      "start": 8.7239,
      "duration": 0.0829,
      "velocity": 100,
      "chip": "ym2612"
    },
    {
      "channel": 2,
      "note": 96,
      "start": 8.7276,
      "duration": 0.0109,
      "velocity": 125,
      "chip": "ym2612"
    },
    {
      "channel": 4,
      "note": 77,
      "start": 8.7311,
      "duration": 0.0439,
      "velocity": 121,
      "chip": "ym2612"
    },
    {
      "channel": 1,
      "note": 72,
      "start": 8.7382,
      "duration": 0.0699,
      "velocity": 121,
      "chip": "ym2612"
    },
    {
      "channel": 2,
      "note": 102,
      "start": 8.7414,
      "duration": 0.0146,
      "velocity": 125,
      "chip": "ym2612"
    },
    {
      "channel": 2,
      "note": 96,
      "start": 8.7732,
      "duration": 0.053,
      "velocity": 125,
      "chip": "ym2612"
    },
    {
      "channel": 4,
      "note": 75,
      "start": 8.7921,
      "duration": 0.0511,
      "velocity": 121,
      "chip": "ym2612"
    },
    {
      "channel": 0,
      "note": 57,
      "start": 8.8253,
      "duration": 0.0817,
      "velocity": 100,
      "chip": "ym2612"
    },
    {
      "channel": 1,
      "note": 78,
      "start": 8.8259,
      "duration": 0.2257,
      "velocity": 121,
      "chip": "ym2612"
    },
    {
      "channel": 2,
      "note": 90,
      "start": 8.8293,
      "duration": 0.0078,
      "velocity": 125,
      "chip": "ym2612"
    },
    {
      "channel": 2,
      "note": 84,
      "start": 8.8399,
      "duration": 0.0082,
      "velocity": 125,
      "chip": "ym2612"
    },
    {
      "channel": 4,
      "note": 74,
      "start": 8.8461,
      "duration": 0.0827,
      "velocity": 121,
      "chip": "ym2612"
    },
    {
      "channel": 2,
      "note": 78,
      "start": 8.8547,
      "duration": 0.0528,
      "velocity": 125,
      "chip": "ym2612"
    },
    {
      "channel": 0,
      "note": 57,
      "start": 8.9244,
      "duration": 0.0829,
      "velocity": 100,
      "chip": "ym2612"
    },
    {
      "channel": 2,
      "note": 84,
      "start": 8.9252,
      "duration": 0.0111,
      "velocity": 125,
      "chip": "ym2612"
    },
    {
      "channel": 4,
      "note": 72,
      "start": 8.9317,
      "duration": 0.1868,
      "velocity": 121,
      "chip": "ym2612"
    },
    {
      "channel": 2,
      "note": 90,
      "start": 8.9391,
      "duration": 0.0105,
      "velocity": 125,
      "chip": "ym2612"
    },
    {
      "channel": 2,
      "note": 96,
      "start": 8.9567,
      "duration": 0.0687,
      "velocity": 125,
      "chip": "ym2612"
    },
    {
      "channel": 0,
      "note": 57,
      "start": 9.0248,
      "duration": 0.039,
      "velocity": 100,
      "chip": "ym2612"
    },
    {
      "channel": 2,
      "note": 102,
      "start": 9.0286,
      "duration": 0.0104,
      "velocity": 125,
      "chip": "ym2612"
    },
    {
      "channel": 2,
      "note": 96,
      "start": 9.0419,
      "duration": 0.0111,
      "velocity": 125,
      "chip": "ym2612"
    },
    {
      "channel": 1,
      "note": 77,
      "start": 9.0558,
      "duration": 0.0243,
      "velocity": 121,
      "chip": "ym2612"
    },
    {
      "channel": 2,
      "note": 90,
      "start": 9.0563,
      "duration": 0.0079,
      "velocity": 125,
      "chip": "ym2612"
    },
    {
      "channel": 0,
      "note": 57,
      "start": 9.0687,
      "duration": 0.0828,
      "velocity": 100,
      "chip": "ym2612"
    },
    {
      "channel": 2,
      "note": 84,
      "start": 9.0695,
      "duration": 0.0082,
      "velocity": 125,
      "chip": "ym2612"
    },
    {
      "channel": 2,
      "note": 78,
      "start": 9.0846,
      "duration": 0.011,
      "velocity": 125,
      "chip": "ym2612"
    },
    {
      "channel": 1,
      "note": 75,
      "start": 9.0873,
      "duration": 0.0645,
      "velocity": 121,
      "chip": "ym2612"
    },
    {
      "channel": 2,
      "note": 84,
      "start": 9.0985,
      "duration": 0.0536,
      "velocity": 125,
      "chip": "ym2612"
    },
    {
      "channel": 4,
      "note": 78,
      "start": 9.1358,
      "duration": 0.0511,
      "velocity": 121,
      "chip": "ym2612"
    },
    {
      "channel": 0,
      "note": 57,
      "start": 9.1691,
      "duration": 0.0829,
      "velocity": 100,
      "chip": "ym2612"
    },
    {
      "channel": 1,
      "note": 81,
      "start": 9.1696,
      "duration": 0.2293,
      "velocity": 121,
      "chip": "ym2612"
    },
    {
      "channel": 2,
      "note": 90,
      "start": 9.1702,
      "duration": 0.0107,
      "velocity": 125,
      "chip": "ym2612"
    },
    {
      "channel": 2,
      "note": 96,
      "start": 9.1836,
      "duration": 0.0108,
      "velocity": 125,
      "chip": "ym2612"
    },
    {
      "channel": 4,
      "note": 77,
      "start": 9.1898,
      "duration": 0.0841,
      "velocity": 121,
      "chip": "ym2612"
    },
    {
      "channel": 2,
      "note": 102,
      "start": 9.2013,
      "duration": 0.0687,
      "velocity": 125,
      "chip": "ym2612"
    },
    {
      "channel": 0,
      "note": 57,
      "start": 9.2695,
      "duration": 0.0849,
      "velocity": 100,
      "chip": "ym2612"
    },
    {
      "channel": 2,
      "note": 96,
      "start": 9.2732,
      "duration": 0.0088,
      "velocity": 125,
      "chip": "ym2612"
    },
    {
      "channel": 4,
      "note": 75,
      "start": 9.2768,
      "duration": 0.2456,
      "velocity": 121,
      "chip": "ym2612"
    },
    {
      "channel": 2,
      "note": 90,
      "start": 9.2861,
      "duration": 0.0087,
      "velocity": 125,
      "chip": "ym2612"
    },
    {
      "channel": 2,
      "note": 84,
      "start": 9.2977,
      "duration": 0.04,
      "velocity": 125,
      "chip": "ym2612"
    },
    {
      "channel": 0,
      "note": 57,
      "start": 9.3718,
      "duration": 0.0832,
      "velocity": 100,
      "chip": "ym2612"
    },
    {
      "channel": 2,
      "note": 78,
      "start": 9.3747,
      "duration": 0.0112,
      "velocity": 125,
      "chip": "ym2612"
    },
    {
      "channel": 2,
      "note": 84,
      "start": 9.3888,
      "duration": 0.0105,
      "velocity": 125,
      "chip": "ym2612"
    },
    {
      "channel": 1,
      "note": 79,
      "start": 9.404,
      "duration": 0.0822,
      "velocity": 121,
      "chip": "ym2612"
    },
    {
      "channel": 2,
      "note": 90,
      "start": 9.4046,
      "duration": 0.0684,
      "velocity": 125,
      "chip": "ym2612"
    },
    {
      "channel": 0,
      "note": 57,
      "start": 9.4724,
      "duration": 0.0829,
      "velocity": 100,
      "chip": "ym2612"
    },
    {
      "channel": 2,
      "note": 96,
      "start": 9.4761,
      "duration": 0.0104,
      "velocity": 125,
      "chip": "ym2612"
    },
    {
      "channel": 1,
      "note": 78,
      "start": 9.4891,
      "duration": 0.084,
      "velocity": 121,
      "chip": "ym2612"
    },
    {
      "channel": 2,
      "note": 102,
      "start": 9.4896,
      "duration": 0.0148,
      "velocity": 125,
      "chip": "ym2612"
    },
    {
      "channel": 2,
      "note": 96,
      "start": 9.5217,
      "duration": 0.0517,
      "velocity": 125,
      "chip": "ym2612"
    },
    {
      "channel": 4,
      "note": 81,
      "start": 9.5395,
      "duration": 0.0559,
      "velocity": 121,
      "chip": "ym2612"
    },
    {
      "channel": 0,
      "note": 57,
      "start": 9.5728,
      "duration": 0.0838,
      "velocity": 100,
      "chip": "ym2612"
    },
    {
      "channel": 1,
      "note": 84,
      "start": 9.5766,
      "duration": 0.0236,
      "velocity": 121,
      "chip": "ym2612"
    },
    {
      "channel": 2,
      "note": 90,
      "start": 9.5782,
      "duration": 0.0087,
      "velocity": 125,
      "chip": "ym2612"
    },
    {
      "channel": 2,
      "note": 84,
      "start": 9.5896,
      "duration": 0.0078,
      "velocity": 125,
      "chip": "ym2612"
    },
    {
      "channel": 4,
      "note": 79,
      "start": 9.5983,
      "duration": 0.0828,
      "velocity": 121,
      "chip": "ym2612"
    },
    {
      "channel": 2,
      "note": 78,
      "start": 9.6045,
      "duration": 0.0526,
      "velocity": 125,
      "chip": "ym2612"
    },
    {
      "channel": 1,
      "note": 82,
      "start": 9.6071,
      "duration": 0.0787,
      "velocity": 121,
      "chip": "ym2612"
    },
    {
      "channel": 0,
      "note": 57,
      "start": 9.674,
      "duration": 0.0831,
      "velocity": 100,
      "chip": "ym2612"
    },
    {
      "channel": 2,
      "note": 84,
      "start": 9.6749,
      "duration": 0.0112,
      "velocity": 125,
      "chip": "ym2612"
    },
    {
      "channel": 4,
      "note": 78,
      "start": 9.684,
      "duration": 0.0399,
      "velocity": 121,
      "chip": "ym2612"
    },
    {
      "channel": 1,
      "note": 81,
      "start": 9.6887,
      "duration": 0.0687,
      "velocity": 121,
      "chip": "ym2612"
    },
    {
      "channel": 2,
      "note": 90,
      "start": 9.6892,
      "duration": 0.0104,
      "velocity": 125,
      "chip": "ym2612"
    },
    {
      "channel": 2,
      "note": 96,
      "start": 9.7064,
      "duration": 0.069,
      "velocity": 125,
      "chip": "ym2612"
    },
    {
      "channel": 4,
      "note": 84,
      "start": 9.7413,
      "duration": 0.0512,
      "velocity": 121,
      "chip": "ym2612"
    },
    {
      "channel": 0,
      "note": 57,
      "start": 9.7746,
      "duration": 0.0374,
      "velocity": 100,
      "chip": "ym2612"
    },
    {
      "channel": 1,
      "note": 84,
      "start": 9.7751,
      "duration": 0.1617,
      "velocity": 121,
      "chip": "ym2612"
    },
    {
      "channel": 2,
      "note": 102,
      "start": 9.7786,
      "duration": 0.0104,
      "velocity": 125,
      "chip": "ym2612"
    },
    {
      "channel": 2,
      "note": 96,
      "start": 9.7917,
      "duration": 0.0093,
      "velocity": 125,
      "chip": "ym2612"
    },
    {
      "channel": 4,
      "note": 82,
      "start": 9.7961,
      "duration": 0.0264,
      "velocity": 121,
      "chip": "ym2612"
    },
    {
      "channel": 2,
      "note": 90,
      "start": 9.8038,
      "duration": 0.0097,
      "velocity": 125,
      "chip": "ym2612"
    },
    {
      "channel": 0,
      "note": 57,
      "start": 9.8178,
      "duration": 0.0821,
      "velocity": 100,
      "chip": "ym2612"
    },
    {
      "channel": 2,
      "note": 84,
      "start": 9.8186,
      "duration": 0.0088,
      "velocity": 125,
      "chip": "ym2612"
    },
    {
      "channel": 4,
      "note": 81,
      "start": 9.8254,
      "duration": 0.2223,
      "velocity": 121,
      "chip": "ym2612"
    },
    {
      "channel": 2,
      "note": 78,
      "start": 9.8343,
      "duration": 0.0104,
      "velocity": 125,
      "chip": "ym2612"
    },
    {
      "channel": 2,
      "note": 84,
      "start": 9.8476,
      "duration": 0.0529,
      "velocity": 125,
      "chip": "ym2612"
    },
    {
      "channel": 0,
      "note": 57,
      "start": 9.9173,
      "duration": 0.0829,
      "velocity": 100,
      "chip": "ym2612"
    },
    {
      "channel": 2,
      "note": 90,
      "start": 9.9181,
      "duration": 0.0108,
      "velocity": 125,
      "chip": "ym2612"
    },
    {
      "channel": 2,
      "note": 96,
      "start": 9.9318,
      "duration": 0.0108,
      "velocity": 125,
      "chip": "ym2612"
    },
    {
      "channel": 1,
      "note": 86,
      "start": 9.9397,
      "duration": 0.0783,
      "velocity": 121,
      "chip": "ym2612"
    },
    {
      "channel": 2,
      "note": 102,
      "start": 9.9495,
      "duration": 0.0688,
      "velocity": 125,
      "chip": "ym2612"
    },
    {
      "channel": 0,
      "note": 69,
      "start": 10.0176,
      "duration": 0.0174,
      "velocity": 100,
      "chip": "ym2612"
    },
    {
      "channel": 1,
      "note": 87,
      "start": 10.0212,
      "duration": 0.0178,
      "velocity": 121,
      "chip": "ym2612"
    },
    {
      "channel": 2,
      "note": 96,
      "start": 10.0217,
      "duration": 0.0079,
      "velocity": 125,
      "chip": "ym2612"
    },
    {
      "channel": 2,
      "note": 90,
      "start": 10.0325,
      "duration": 0.0103,
      "velocity": 125,
      "chip": "ym2612"
    },
    {
      "channel": 0,
      "note": 57,
      "start": 10.0387,
      "duration": 0.019,
      "velocity": 100,
      "chip": "ym2612"
    },
    {
      "channel": 1,
      "note": 89,
      "start": 10.0425,
      "duration": 0.0193,
      "velocity": 121,
      "chip": "ym2612"
    },
    {
      "channel": 2,
      "note": 84,
      "start": 10.0469,
      "duration": 0.0085,
      "velocity": 125,
      "chip": "ym2612"
    },
    {
      "channel": 4,
      "note": 84,
      "start": 10.0508,
      "duration": 0.0206,
      "velocity": 121,
      "chip": "ym2612"
    },
    {
      "channel": 0,
      "note": 58,
      "start": 10.0614,
      "duration": 0.1117,
      "velocity": 100,
      "chip": "ym2612"
    },
    {
      "channel": 2,
      "note": 85,
      "start": 10.0644,
      "duration": 0.0119,
      "velocity": 125,
      "chip": "ym2612"
    },
    {
      "channel": 1,
      "note": 90,
      "start": 10.068,
      "duration": 1.3176,
      "velocity": 121,
      "chip": "ym2612"
    },
    {
      "channel": 4,
      "note": 86,
      "start": 10.0743,
      "duration": 0.0159,
      "velocity": 121,
      "chip": "ym2612"
    },
    {
      "channel": 2,
      "note": 88,
      "start": 10.0791,
      "duration": 0.0104,
      "velocity": 125,
      "chip": "ym2612"
    },
    {
      "channel": 2,
      "note": 94,
      "start": 10.0939,
      "duration": 0.0683,
      "velocity": 125,
      "chip": "ym2612"
    },
    {
      "channel": 4,
      "note": 87,
      "start": 10.0948,
      "duration": 0.0737,
      "velocity": 121,
      "chip": "ym2612"
    },
    {
      "channel": 2,
      "note": 97,
      "start": 10.1654,
      "duration": 0.011,
      "velocity": 125,
      "chip": "ym2612"
    },
    {
      "channel": 4,
      "note": 89,
      "start": 10.1714,
      "duration": 1.3164,
      "velocity": 121,
      "chip": "ym2612"
    },
    {
      "channel": 0,
      "note": 58,
      "start": 10.1758,
      "duration": 0.1131,
      "velocity": 100,
      "chip": "ym2612"
    },
    {
      "channel": 2,
      "note": 100,
      "start": 10.1792,
      "duration": 0.0149,
      "velocity": 125,
      "chip": "ym2612"
    },
    {
      "channel": 2,
      "note": 97,
      "start": 10.2114,
      "duration": 0.0512,
      "velocity": 125,
      "chip": "ym2612"
    },
    {
      "channel": 2,
      "note": 94,
      "start": 10.2659,
      "duration": 0.0082,
      "velocity": 125,
      "chip": "ym2612"
    },
    {
      "channel": 2,
      "note": 88,
      "start": 10.2783,
      "duration": 0.0084,
      "velocity": 125,
      "chip": "ym2612"
    },
    {
      "channel": 2,
      "note": 85,
      "start": 10.2935,
      "duration": 0.0533,
      "velocity": 125,
      "chip": "ym2612"
    },
    {
      "channel": 0,
      "note": 58,
      "start": 10.2959,
      "duration": 0.1512,
      "velocity": 100,
      "chip": "ym2612"
    },
    {
      "channel": 2,
      "note": 88,
      "start": 10.3641,
      "duration": 0.0112,
      "velocity": 125,
      "chip": "ym2612"
    },
    {
      "channel": 2,
      "note": 94,
      "start": 10.3784,
      "duration": 0.0107,
      "velocity": 125,
      "chip": "ym2612"
    },
    {
      "channel": 2,
      "note": 97,
      "start": 10.3964,
      "duration": 0.0687,
      "velocity": 125,
      "chip": "ym2612"
    },
    {
      "channel": 0,
      "note": 58,
      "start": 10.4645,
      "duration": 0.0546,
      "velocity": 100,
      "chip": "ym2612"
    },
    {
      "channel": 2,
      "note": 100,
      "start": 10.4685,
      "duration": 0.0107,
      "velocity": 125,
      "chip": "ym2612"
    },
    {
      "channel": 2,
      "note": 97,
      "start": 10.482,
      "duration": 0.0088,
      "velocity": 125,
      "chip": "ym2612"
    },
    {
      "channel": 2,
      "note": 94,
      "start": 10.4937,
      "duration": 0.008,
      "velocity": 125,
      "chip": "ym2612"
    },
    {
      "channel": 2,
      "note": 88,
      "start": 10.5063,
      "duration": 0.0103,
      "velocity": 125,
      "chip": "ym2612"
    },
    {
      "channel": 2,
      "note": 85,
      "start": 10.5239,
      "duration": 0.0109,
      "velocity": 125,
      "chip": "ym2612"
    },
    {
      "channel": 0,
      "note": 58,
      "start": 10.5263,
      "duration": 0.1055,
      "velocity": 100,
      "chip": "ym2612"
    },
    {
      "channel": 2,
      "note": 88,
      "start": 10.5377,
      "duration": 0.0525,
      "velocity": 125,
      "chip": "ym2612"
    },
    {
      "channel": 2,
      "note": 94,
      "start": 10.6075,
      "duration": 0.0112,
      "velocity": 125,
      "chip": "ym2612"
    },
    {
      "channel": 2,
      "note": 97,
      "start": 10.6216,
      "duration": 0.0107,
      "velocity": 125,
      "chip": "ym2612"
    },
    {
      "channel": 0,
      "note": 58,
      "start": 10.6391,
      "duration": 0.1517,
      "velocity": 100,
      "chip": "ym2612"
    },
    {
      "channel": 2,
      "note": 100,
      "start": 10.6399,
      "duration": 0.068,
      "velocity": 125,
      "chip": "ym2612"
    },
    {
      "channel": 2,
      "note": 97,
      "start": 10.7112,
      "duration": 0.0081,
      "velocity": 125,
      "chip": "ym2612"
    },
    {
      "channel": 2,
      "note": 94,
      "start": 10.7221,
      "duration": 0.0079,
      "velocity": 125,
      "chip": "ym2612"
    },
    {
      "channel": 2,
      "note": 88,
      "start": 10.733,
      "duration": 0.0413,
      "velocity": 125,
      "chip": "ym2612"
    },
    {
      "channel": 0,
      "note": 58,
      "start": 10.8094,
      "duration": 0.1103,
      "velocity": 100,
      "chip": "ym2612"
    },
    {
      "channel": 2,
      "note": 85,
      "start": 10.8123,
      "duration": 0.0113,
      "velocity": 125,
      "chip": "ym2612"
    },
    {
      "channel": 2,
      "note": 88,
      "start": 10.8266,
      "duration": 0.0105,
      "velocity": 125,
      "chip": "ym2612"
    },
    {
      "channel": 2,
      "note": 94,
      "start": 10.8407,
      "duration": 0.0683,
      "velocity": 125,
      "chip": "ym2612"
    },
    {
      "channel": 2,
      "note": 97,
      "start": 10.9123,
      "duration": 0.0109,
      "velocity": 125,
      "chip": "ym2612"
    },
    {
      "channel": 0,
      "note": 58,
      "start": 10.9226,
      "duration": 0.1123,
      "velocity": 100,
      "chip": "ym2612"
    },
    {
      "channel": 2,
      "note": 100,
      "start": 10.9261,
      "duration": 0.0149,
      "velocity": 125,
      "chip": "ym2612"
    },
    {
      "channel": 2,
      "note": 97,
      "start": 10.9583,
      "duration": 0.0512,
      "velocity": 125,
      "chip": "ym2612"
    },
    {
      "channel": 2,
      "note": 94,
      "start": 11.0128,
      "duration": 0.008,
      "velocity": 125,
      "chip": "ym2612"
    },
    {
      "channel": 2,
      "note": 88,
      "start": 11.0236,
      "duration": 0.0088,
      "velocity": 125,
      "chip": "ym2612"
    },
    {
      "channel": 2,
      "note": 85,
      "start": 11.0405,
      "duration": 0.0537,
      "velocity": 125,
      "chip": "ym2612"
    },
    {
      "channel": 0,
      "note": 58,
      "start": 11.0435,
      "duration": 0.1507,
      "velocity": 100,
      "chip": "ym2612"
    },
    {
      "channel": 2,
      "note": 88,
      "start": 11.1115,
      "duration": 0.011,
      "velocity": 125,
      "chip": "ym2612"
    },
    {
      "channel": 2,
      "note": 94,
      "start": 11.1254,
      "duration": 0.0109,
      "velocity": 125,
      "chip": "ym2612"
    },
    {
      "channel": 2,
      "note": 97,
      "start": 11.1436,
      "duration": 0.0688,
      "velocity": 125,
      "chip": "ym2612"
    },
    {
      "channel": 0,
      "note": 58,
      "start": 11.2117,
      "duration": 0.0522,
      "velocity": 100,
      "chip": "ym2612"
    },
    {
      "channel": 2,
      "note": 100,
      "start": 11.2156,
      "duration": 0.0106,
      "velocity": 125,
      "chip": "ym2612"
    },
    {
      "channel": 2,
      "note": 97,
      "start": 11.2292,
      "duration": 0.0088,
      "velocity": 125,
      "chip": "ym2612"
    },
    {
      "channel": 2,
      "note": 94,
      "start": 11.2409,
      "duration": 0.008,
      "velocity": 125,
      "chip": "ym2612"
    },
    {
      "channel": 2,
      "note": 88,
      "start": 11.2531,
      "duration": 0.0083,
      "velocity": 125,
      "chip": "ym2612"
    },
    {
      "channel": 2,
      "note": 85,
      "start": 11.2697,
      "duration": 0.0122,
      "velocity": 125,
      "chip": "ym2612"
    },
    {
      "channel": 0,
      "note": 58,
      "start": 11.2715,
      "duration": 0.0527,
      "velocity": 100,
      "chip": "ym2612"
    },
    {
      "channel": 2,
      "note": 88,
      "start": 11.2848,
      "duration": 0.0106,
      "velocity": 125,
      "chip": "ym2612"
    },
    {
      "channel": 2,
      "note": 94,
      "start": 11.2986,
      "duration": 0.0112,
      "velocity": 125,
      "chip": "ym2612"
    },
    {
      "channel": 2,
      "note": 97,
      "start": 11.3127,
      "duration": 0.012,
      "velocity": 125,
      "chip": "ym2612"
    },
    {
      "channel": 0,
      "note": 58,
      "start": 11.3271,
      "duration": 0.0491,
      "velocity": 100,
      "chip": "ym2612"
    },
    {
      "channel": 2,
      "note": 100,
      "start": 11.3278,
      "duration": 0.0118,
      "velocity": 125,
      "chip": "ym2612"
    },
    {
      "channel": 2,
      "note": 97,
      "start": 11.3429,
      "duration": 0.008,
      "velocity": 125,
      "chip": "ym2612"
    },
    {
      "channel": 2,
      "note": 94,
      "start": 11.3537,
      "duration": 0.0093,
      "velocity": 125,
      "chip": "ym2612"
    },
    {
      "channel": 2,
      "note": 88,
      "start": 11.3659,
      "duration": 0.008,
      "velocity": 125,
      "chip": "ym2612"
    },
    {
      "channel": 0,
      "note": 47,
      "start": 11.3853,
      "duration": 0.1792,
      "velocity": 119,
      "chip": "ym2612"
    },
    {
      "channel": 2,
      "note": 59,
      "start": 11.3899,
      "duration": 0.4713,
      "velocity": 108,
      "chip": "ym2612"
    },
    {
      "channel": 3,
      "note": 64,
      "start": 11.3957,
      "duration": 0.1697,
      "velocity": 94,
      "chip": "ym2612"
    },
    {
      "channel": 1,
      "note": 90,
      "start": 11.4022,
      "duration": 0.18,
      "velocity": 115,
      "chip": "ym2612"
    },
    {
      "channel": 4,
      "note": 90,
      "start": 11.4956,
      "duration": 0.1344,
      "velocity": 115,
      "chip": "ym2612"
    },
    {
      "channel": 0,
      "note": 47,
      "start": 11.5818,
      "duration": 0.1242,
      "velocity": 119,
      "chip": "ym2612"
    },
    {
      "channel": 3,
      "note": 69,
      "start": 11.583,
      "duration": 0.1239,
      "velocity": 94,
      "chip": "ym2612"
    },
    {
      "channel": 1,
      "note": 83,
      "start": 11.5857,
      "duration": 0.1379,
      "velocity": 115,
      "chip": "ym2612"
    },
    {
      "channel": 4,
      "note": 90,
      "start": 11.6329,
      "duration": 0.1972,
      "velocity": 115,
      "chip": "ym2612"
    },
    {
      "channel": 0,
      "note": 47,
      "start": 11.7233,
      "duration": 0.1373,
      "velocity": 119,
      "chip": "ym2612"
    },
    {
      "channel": 3,
      "note": 69,
      "start": 11.7245,
      "duration": 0.137,
      "velocity": 94,
      "chip": "ym2612"
    },
    {
      "channel": 1,
      "note": 86,
      "start": 11.7272,
      "duration": 0.1368,
      "velocity": 115,
      "chip": "ym2612"
    },
    {
      "channel": 4,
      "note": 83,
      "start": 11.833,
      "duration": 0.1373,
      "velocity": 115,
      "chip": "ym2612"
    },
    {
      "channel": 0,
      "note": 46,
      "start": 11.8636,
      "duration": 0.1834,
      "velocity": 119,
      "chip": "ym2612"
    },
    {
      "channel": 2,
      "note": 61,
      "start": 11.8646,
      "duration": 0.237,
      "velocity": 108,
      "chip": "ym2612"
    },
    {
      "channel": 3,
      "note": 69,
      "start": 11.8703,
      "duration": 0.1776,
      "velocity": 94,
      "chip": "ym2612"
    },
    {
      "channel": 1,
      "note": 85,
      "start": 11.873,
      "duration": 0.1917,
      "velocity": 115,
      "chip": "ym2612"
    },
    {
      "channel": 4,
      "note": 86,
      "start": 11.9732,
      "duration": 0.1378,
      "velocity": 115,
      "chip": "ym2612"
    },
    {
      "channel": 0,
      "note": 46,
      "start": 12.0644,
      "duration": 0.0765,
      "velocity": 119,
      "chip": "ym2612"
    },
    {
      "channel": 3,
      "note": 69,
      "start": 12.0656,
      "duration": 0.0761,
      "velocity": 94,
      "chip": "ym2612"
    },
    {
      "channel": 1,
      "note": 78,
      "start": 12.0682,
      "duration": 0.0773,
      "velocity": 115,
      "chip": "ym2612"
    },
    {
      "channel": 2,
      "note": 62,
      "start": 12.1049,
      "duration": 0.1625,
      "velocity": 108,
      "chip": "ym2612"
    },
    {
      "channel": 4,
      "note": 85,
      "start": 12.114,
      "duration": 0.0768,
      "velocity": 115,
      "chip": "ym2612"
    },
    {
      "channel": 0,
      "note": 46,
      "start": 12.1453,
      "duration": 0.1215,
      "velocity": 119,
      "chip": "ym2612"
    },
    {
      "channel": 3,
      "note": 69,
      "start": 12.1464,
      "duration": 0.1213,
      "velocity": 94,
      "chip": "ym2612"
    },
    {
      "channel": 1,
      "note": 90,
      "start": 12.1491,
      "duration": 0.1354,
      "velocity": 115,
      "chip": "ym2612"
    },
    {
      "channel": 4,
      "note": 78,
      "start": 12.1939,
      "duration": 0.1407,
      "velocity": 115,
      "chip": "ym2612"
    },
    {
      "channel": 0,
      "note": 45,
      "start": 12.2841,
      "duration": 0.0818,
      "velocity": 119,
      "chip": "ym2612"
    },
    {
      "channel": 2,
      "note": 64,
      "start": 12.2852,
      "duration": 0.304,
      "velocity": 108,
      "chip": "ym2612"
    },
    {
      "channel": 3,
      "note": 69,
      "start": 12.2909,
      "duration": 0.077,
      "velocity": 94,
      "chip": "ym2612"
    },
    {
      "channel": 1,
      "note": 88,
      "start": 12.2936,
      "duration": 0.077,
      "velocity": 115,
      "chip": "ym2612"
    },
    {
      "channel": 4,
      "note": 90,
      "start": 12.3375,
      "duration": 0.0816,
      "velocity": 115,
      "chip": "ym2612"
    },
    {
      "channel": 0,
      "note": 45,
      "start": 12.3702,
      "duration": 0.078,
      "velocity": 119,
      "chip": "ym2612"
    },
    {
      "channel": 3,
      "note": 69,
      "start": 12.3715,
      "duration": 0.0776,
      "velocity": 94,
      "chip": "ym2612"
    },
    {
      "channel": 1,
      "note": 81,
      "start": 12.3742,
      "duration": 0.0786,
      "velocity": 115,
      "chip": "ym2612"
    },
    {
      "channel": 4,
      "note": 88,
      "start": 12.422,
      "duration": 0.138,
      "velocity": 115,
      "chip": "ym2612"
    },
    {
      "channel": 0,
      "note": 45,
      "start": 12.4525,
      "duration": 0.136,
      "velocity": 119,
      "chip": "ym2612"
    },
    {
      "channel": 3,
      "note": 69,
      "start": 12.4537,
      "duration": 0.1357,
      "velocity": 94,
      "chip": "ym2612"
    },
    {
      "channel": 1,
      "note": 85,
      "start": 12.4565,
      "duration": 0.1367,
      "velocity": 115,
      "chip": "ym2612"
    },
    {
      "channel": 4,
      "note": 81,
      "start": 12.5629,
      "duration": 0.1363,
      "velocity": 115,
      "chip": "ym2612"
    },
    {
      "channel": 0,
      "note": 44,
      "start": 12.5929,
      "duration": 0.1366,
      "velocity": 119,
      "chip": "ym2612"
    },
    {
      "channel": 2,
      "note": 59,
      "start": 12.5939,
      "duration": 0.4054,
      "velocity": 108,
      "chip": "ym2612"
    },
    {
      "channel": 3,
      "note": 69,
      "start": 12.5995,
      "duration": 0.1308,
      "velocity": 94,
      "chip": "ym2612"
    },
    {
      "channel": 1,
      "note": 83,
      "start": 12.6022,
      "duration": 0.1311,
      "velocity": 115,
      "chip": "ym2612"
    },
    {
      "channel": 4,
      "note": 85,
      "start": 12.702,
      "duration": 0.0766,
      "velocity": 115,
      "chip": "ym2612"
    },
    {
      "channel": 0,
      "note": 44,
      "start": 12.733,
      "duration": 0.076,
      "velocity": 119,
      "chip": "ym2612"
    },
    {
      "channel": 3,
      "note": 69,
      "start": 12.7342,
      "duration": 0.0757,
      "velocity": 94,
      "chip": "ym2612"
    },
    {
      "channel": 1,
      "note": 76,
      "start": 12.7369,
      "duration": 0.0771,
      "velocity": 115,
      "chip": "ym2612"
    },
    {
      "channel": 4,
      "note": 83,
      "start": 12.7815,
      "duration": 0.1405,
      "velocity": 115,
      "chip": "ym2612"
    },
    {
      "channel": 0,
      "note": 44,
      "start": 12.8137,
      "duration": 0.185,
      "velocity": 119,
      "chip": "ym2612"
    },
    {
      "channel": 3,
      "note": 69,
      "start": 12.8149,
      "duration": 0.1847,
      "velocity": 94,
      "chip": "ym2612"
    },
    {
      "channel": 1,
      "note": 88,
      "start": 12.8179,
      "duration": 0.1985,
      "velocity": 115,
      "chip": "ym2612"
    },
    {
      "channel": 4,
      "note": 76,
      "start": 12.9249,
      "duration": 0.1989,
      "velocity": 115,
      "chip": "ym2612"
    },
    {
      "channel": 0,
      "note": 55,
      "start": 13.0161,
      "duration": 0.1838,
      "velocity": 119,
      "chip": "ym2612"
    },
    {
      "channel": 2,
      "note": 59,
      "start": 13.017,
      "duration": 0.4768,
      "velocity": 108,
      "chip": "ym2612"
    },
    {
      "channel": 3,
      "note": 69,
      "start": 13.0238,
      "duration": 0.177,
      "velocity": 94,
      "chip": "ym2612"
    },
    {
      "channel": 1,
      "note": 86,
      "start": 13.0258,
      "duration": 0.1917,
      "velocity": 115,
      "chip": "ym2612"
    },
    {
      "channel": 4,
      "note": 88,
      "start": 13.1267,
      "duration": 0.1362,
      "velocity": 115,
      "chip": "ym2612"
    },
    {
      "channel": 0,
      "note": 55,
      "start": 13.2172,
      "duration": 0.1235,
      "velocity": 119,
      "chip": "ym2612"
    },
    {
      "channel": 3,
      "note": 69,
      "start": 13.2183,
      "duration": 0.1232,
      "velocity": 94,
      "chip": "ym2612"
    },
    {
      "channel": 1,
      "note": 79,
      "start": 13.221,
      "duration": 0.137,
      "velocity": 115,
      "chip": "ym2612"
    },
    {
      "channel": 4,
      "note": 86,
      "start": 13.2658,
      "duration": 0.199,
      "velocity": 115,
      "chip": "ym2612"
    },
    {
      "channel": 0,
      "note": 55,
      "start": 13.3577,
      "duration": 0.1355,
      "velocity": 119,
      "chip": "ym2612"
    },
    {
      "channel": 3,
      "note": 69,
      "start": 13.3589,
      "duration": 0.1352,
      "velocity": 94,
      "chip": "ym2612"
    },
    {
      "channel": 1,
      "note": 83,
      "start": 13.3616,
      "duration": 0.1363,
      "velocity": 115,
      "chip": "ym2612"
    },
    {
      "channel": 4,
      "note": 79,
      "start": 13.4678,
      "duration": 0.1376,
      "velocity": 115,
      "chip": "ym2612"
    },
    {
      "channel": 0,
      "note": 54,
      "start": 13.4976,
      "duration": 0.1848,
      "velocity": 119,
      "chip": "ym2612"
    },
    {
      "channel": 2,
      "note": 61,
      "start": 13.4985,
      "duration": 0.4053,
      "velocity": 108,
      "chip": "ym2612"
    },
    {
      "channel": 3,
      "note": 69,
      "start": 13.5053,
      "duration": 0.178,
      "velocity": 94,
      "chip": "ym2612"
    },
    {
      "channel": 1,
      "note": 85,
      "start": 13.5073,
      "duration": 0.1928,
      "velocity": 115,
      "chip": "ym2612"
    },
    {
      "channel": 4,
      "note": 83,
      "start": 13.6083,
      "duration": 0.1384,
      "velocity": 115,
      "chip": "ym2612"
    },
    {
      "channel": 0,
      "note": 54,
      "start": 13.6997,
      "duration": 0.0762,
      "velocity": 119,
      "chip": "ym2612"
    },
    {
      "channel": 3,
      "note": 69,
      "start": 13.7009,
      "duration": 0.0759,
      "velocity": 94,
      "chip": "ym2612"
    },
    {
      "channel": 1,
      "note": 81,
      "start": 13.7036,
      "duration": 0.0768,
      "velocity": 115,
      "chip": "ym2612"
    },
    {
      "channel": 4,
      "note": 85,
      "start": 13.7498,
      "duration": 0.0757,
      "velocity": 115,
      "chip": "ym2612"
    },
    {
      "channel": 0,
      "note": 54,
      "start": 13.78,
      "duration": 0.1222,
      "velocity": 119,
      "chip": "ym2612"
    },
    {
      "channel": 3,
      "note": 69,
      "start": 13.7813,
      "duration": 0.1229,
      "velocity": 94,
      "chip": "ym2612"
    },
    {
      "channel": 1,
      "note": 90,
      "start": 13.784,
      "duration": 0.1369,
      "velocity": 115,
      "chip": "ym2612"
    },
    {
      "channel": 4,
      "note": 81,
      "start": 13.8285,
      "duration": 0.1415,
      "velocity": 115,
      "chip": "ym2612"
    },
    {
      "channel": 0,
      "note": 53,
      "start": 13.9205,
      "duration": 0.0793,
      "velocity": 119,
      "chip": "ym2612"
    },
    {
      "channel": 2,
      "note": 59,
      "start": 13.9215,
      "duration": 0.2995,
      "velocity": 108,
      "chip": "ym2612"
    },
    {
      "channel": 3,
      "note": 69,
      "start": 13.9273,
      "duration": 0.0735,
      "velocity": 94,
      "chip": "ym2612"
    },
    {
      "channel": 1,
      "note": 92,
      "start": 13.93,
      "duration": 0.0732,
      "velocity": 115,
      "chip": "ym2612"
    },
    {
      "channel": 4,
      "note": 90,
      "start": 13.9728,
      "duration": 0.0769,
      "velocity": 115,
      "chip": "ym2612"
    },
    {
      "channel": 0,
      "note": 53,
      "start": 14.0029,
      "duration": 0.0761,
      "velocity": 119,
      "chip": "ym2612"
    },
    {
      "channel": 3,
      "note": 69,
      "start": 14.004,
      "duration": 0.0759,
      "velocity": 94,
      "chip": "ym2612"
    },
    {
      "channel": 1,
      "note": 89,
      "start": 14.0068,
      "duration": 0.0768,
      "velocity": 115,
      "chip": "ym2612"
    },
    {
      "channel": 4,
      "note": 92,
      "start": 14.0526,
      "duration": 0.1374,
      "velocity": 115,
      "chip": "ym2612"
    },
    {
      "channel": 0,
      "note": 49,
      "start": 14.0833,
      "duration": 0.1372,
      "velocity": 119,
      "chip": "ym2612"
    },
    {
      "channel": 3,
      "note": 69,
      "start": 14.0845,
      "duration": 0.1369,
      "velocity": 94,
      "chip": "ym2612"
    },
    {
      "channel": 1,
      "note": 95,
      "start": 14.0873,
      "duration": 0.1368,
      "velocity": 115,
      "chip": "ym2612"
    },
    {
      "channel": 4,
      "note": 89,
      "start": 14.1929,
      "duration": 0.1375,
      "velocity": 115,
      "chip": "ym2612"
    },
    {
      "channel": 0,
      "note": 54,
      "start": 14.2238,
      "duration": 0.1348,
      "velocity": 119,
      "chip": "ym2612"
    },
    {
      "channel": 2,
      "note": 58,
      "start": 14.2248,
      "duration": 0.4032,
      "velocity": 108,
      "chip": "ym2612"
    },
    {
      "channel": 3,
      "note": 69,
      "start": 14.2306,
      "duration": 0.1289,
      "velocity": 94,
      "chip": "ym2612"
    },
    {
      "channel": 1,
      "note": 95,
      "start": 14.2332,
      "duration": 0.1306,
      "velocity": 115,
      "chip": "ym2612"
    },
    {
      "channel": 4,
      "note": 95,
      "start": 14.3333,
      "duration": 0.0778,
      "velocity": 115,
      "chip": "ym2612"
    },
    {
      "channel": 0,
      "note": 54,
      "start": 14.3635,
      "duration": 0.0773,
      "velocity": 119,
      "chip": "ym2612"
    },
    {
      "channel": 3,
      "note": 69,
      "start": 14.3647,
      "duration": 0.077,
      "velocity": 94,
      "chip": "ym2612"
    },
    {
      "channel": 1,
      "note": 94,
      "start": 14.3676,
      "duration": 0.0366,
      "velocity": 115,
      "chip": "ym2612"
    },
    {
      "channel": 1,
      "note": 92,
      "start": 14.4074,
      "duration": 0.0367,
      "velocity": 115,
      "chip": "ym2612"
    },
    {
      "channel": 4,
      "note": 95,
      "start": 14.414,
      "duration": 0.0371,
      "velocity": 115,
      "chip": "ym2612"
    },
    {
      "channel": 0,
      "note": 54,
      "start": 14.4437,
      "duration": 0.1836,
      "velocity": 119,
      "chip": "ym2612"
    },
    {
      "channel": 3,
      "note": 69,
      "start": 14.4449,
      "duration": 0.1834,
      "velocity": 94,
      "chip": "ym2612"
    },
    {
      "channel": 1,
      "note": 90,
      "start": 14.4476,
      "duration": 0.1974,
      "velocity": 115,
      "chip": "ym2612"
    },
    {
      "channel": 4,
      "note": 94,
      "start": 14.454,
      "duration": 0.0974,
      "velocity": 115,
      "chip": "ym2612"
    },
    {
      "channel": 4,
      "note": 92,
      "start": 14.5543,
      "duration": 0.1968,
      "velocity": 115,
      "chip": "ym2612"
    },
    {
      "channel": 0,
      "note": 52,
      "start": 14.6447,
      "duration": 0.1843,
      "velocity": 119,
      "chip": "ym2612"
    },
    {
      "channel": 2,
      "note": 59,
      "start": 14.6456,
      "duration": 1.2104,
      "velocity": 108,
      "chip": "ym2612"
    },
    {
      "channel": 3,
      "note": 69,
      "start": 14.6514,
      "duration": 0.1785,
      "velocity": 94,
      "chip": "ym2612"
    },
    {
      "channel": 1,
      "note": 83,
      "start": 14.6541,
      "duration": 0.1921,
      "velocity": 115,
      "chip": "ym2612"
    },
    {
      "channel": 4,
      "note": 90,
      "start": 14.7539,
      "duration": 0.1414,
      "velocity": 115,
      "chip": "ym2612"
    },
    {
      "channel": 0,
      "note": 52,
      "start": 14.8459,
      "duration": 0.126,
      "velocity": 119,
      "chip": "ym2612"
    },
    {
      "channel": 3,
      "note": 69,
      "start": 14.8521,
      "duration": 0.1207,
      "velocity": 94,
      "chip": "ym2612"
    },
    {
      "channel": 1,
      "note": 76,
      "start": 14.8548,
      "duration": 0.1348,
      "velocity": 115,
      "chip": "ym2612"
    },
    {
      "channel": 4,
      "note": 83,
      "start": 14.8982,
      "duration": 0.1994,
      "velocity": 115,
      "chip": "ym2612"
    },
    {
      "channel": 0,
      "note": 52,
      "start": 14.9893,
      "duration": 0.137,
      "velocity": 119,
      "chip": "ym2612"
    },
    {
      "channel": 3,
      "note": 69,
      "start": 14.9905,
      "duration": 0.1367,
      "velocity": 94,
      "chip": "ym2612"
    },
    {
      "channel": 1,
      "note": 79,
      "start": 14.9931,
      "duration": 0.1377,
      "velocity": 115,
      "chip": "ym2612"
    },
    {
      "channel": 4,
      "note": 76,
      "start": 15.1006,
      "duration": 0.1383,
      "velocity": 115,
      "chip": "ym2612"
    },
    {
      "channel": 0,
      "note": 51,
      "start": 15.1305,
      "duration": 0.1847,
      "velocity": 119,
      "chip": "ym2612"
    },
    {
      "channel": 3,
      "note": 69,
      "start": 15.1368,
      "duration": 0.1793,
      "velocity": 94,
      "chip": "ym2612"
    },
    {
      "channel": 1,
      "note": 78,
      "start": 15.1398,
      "duration": 0.1931,
      "velocity": 115,
      "chip": "ym2612"
    },
    {
      "channel": 4,
      "note": 79,
      "start": 15.242,
      "duration": 0.1361,
      "velocity": 115,
      "chip": "ym2612"
    },
    {
      "channel": 0,
      "note": 51,
      "start": 15.3325,
      "duration": 0.0763,
      "velocity": 119,
      "chip": "ym2612"
    },
    {
      "channel": 3,
      "note": 69,
      "start": 15.3338,
      "duration": 0.0771,
      "velocity": 94,
      "chip": "ym2612"
    },
    {
      "channel": 1,
      "note": 71,
      "start": 15.3365,
      "duration": 0.0783,
      "velocity": 115,
      "chip": "ym2612"
    },
    {
      "channel": 4,
      "note": 78,
      "start": 15.381,
      "duration": 0.078,
      "velocity": 115,
      "chip": "ym2612"
    },
    {
      "channel": 0,
      "note": 51,
      "start": 15.4144,
      "duration": 0.1212,
      "velocity": 119,
      "chip": "ym2612"
    },
    {
      "channel": 3,
      "note": 69,
      "start": 15.4156,
      "duration": 0.1209,
      "velocity": 94,
      "chip": "ym2612"
    },
    {
      "channel": 1,
      "note": 83,
      "start": 15.4183,
      "duration": 0.135,
      "velocity": 115,
      "chip": "ym2612"
    },
    {
      "channel": 4,
      "note": 71,
      "start": 15.4619,
      "duration": 0.1446,
      "velocity": 115,
      "chip": "ym2612"
    },
    {
      "channel": 0,
      "note": 50,
      "start": 15.553,
      "duration": 0.0824,
      "velocity": 119,
      "chip": "ym2612"
    },
    {
      "channel": 3,
      "note": 69,
      "start": 15.5603,
      "duration": 0.076,
      "velocity": 94,
      "chip": "ym2612"
    },
    {
      "channel": 1,
      "note": 81,
      "start": 15.5622,
      "duration": 0.0765,
      "velocity": 115,
      "chip": "ym2612"
    },
    {
      "channel": 4,
      "note": 83,
      "start": 15.6094,
      "duration": 0.0763,
      "velocity": 115,
      "chip": "ym2612"
    },
    {
      "channel": 0,
      "note": 50,
      "start": 15.6384,
      "duration": 0.0786,
      "velocity": 119,
      "chip": "ym2612"
    },
    {
      "channel": 3,
      "note": 69,
      "start": 15.6396,
      "duration": 0.0783,
      "velocity": 94,
      "chip": "ym2612"
    },
    {
      "channel": 1,
      "note": 74,
      "start": 15.6424,
      "duration": 0.078,
      "velocity": 115,
      "chip": "ym2612"
    },
    {
      "channel": 4,
      "note": 81,
      "start": 15.6886,
      "duration": 0.1385,
      "velocity": 115,
      "chip": "ym2612"
    },
    {
      "channel": 0,
      "note": 50,
      "start": 15.72,
      "duration": 0.1354,
      "velocity": 119,
      "chip": "ym2612"
    },
    {
      "channel": 3,
      "note": 69,
      "start": 15.7212,
      "duration": 0.1351,
      "velocity": 94,
      "chip": "ym2612"
    },
    {
      "channel": 1,
      "note": 78,
      "start": 15.7241,
      "duration": 0.136,
      "velocity": 115,
      "chip": "ym2612"
    },
    {
      "channel": 4,
      "note": 74,
      "start": 15.83,
      "duration": 0.1374,
      "velocity": 115,
      "chip": "ym2612"
    },
    {
      "channel": 0,
      "note": 49,
      "start": 15.8598,
      "duration": 0.1358,
      "velocity": 119,
      "chip": "ym2612"
    },
    {
      "channel": 2,
      "note": 57,
      "start": 15.8607,
      "duration": 0.4062,
      "velocity": 108,
      "chip": "ym2612"
    },
    {
      "channel": 3,
      "note": 69,
      "start": 15.8676,
      "duration": 0.1289,
      "velocity": 94,
      "chip": "ym2612"
    },
    {
      "channel": 1,
      "note": 76,
      "start": 15.8695,
      "duration": 0.131,
      "velocity": 115,
      "chip": "ym2612"
    },
    {
      "channel": 4,
      "note": 78,
      "start": 15.9703,
      "duration": 0.0773,
      "velocity": 115,
      "chip": "ym2612"
    },
    {
      "channel": 0,
      "note": 49,
      "start": 16.0001,
      "duration": 0.077,
      "velocity": 119,
      "chip": "ym2612"
    },
    {
      "channel": 3,
      "note": 69,
      "start": 16.0013,
      "duration": 0.0767,
      "velocity": 94,
      "chip": "ym2612"
    },
    {
      "channel": 1,
      "note": 69,
      "start": 16.004,
      "duration": 0.078,
      "velocity": 115,
      "chip": "ym2612"
    },
    {
      "channel": 4,
      "note": 76,
      "start": 16.0505,
      "duration": 0.1378,
      "velocity": 115,
      "chip": "ym2612"
    },
    {
      "channel": 0,
      "note": 49,
      "start": 16.0817,
      "duration": 0.1847,
      "velocity": 119,
      "chip": "ym2612"
    },
    {
      "channel": 3,
      "note": 69,
      "start": 16.0829,
      "duration": 0.1844,
      "velocity": 94,
      "chip": "ym2612"
    },
    {
      "channel": 1,
      "note": 81,
      "start": 16.0856,
      "duration": 0.198,
      "velocity": 115,
      "chip": "ym2612"
    },
    {
      "channel": 4,
      "note": 69,
      "start": 16.1913,
      "duration": 0.1985,
      "velocity": 115,
      "chip": "ym2612"
    },
    {
      "channel": 0,
      "note": 48,
      "start": 16.2833,
      "duration": 0.1832,
      "velocity": 119,
      "chip": "ym2612"
    },
    {
      "channel": 2,
      "note": 55,
      "start": 16.2843,
      "duration": 0.4799,
      "velocity": 108,
      "chip": "ym2612"
    },
    {
      "channel": 3,
      "note": 69,
      "start": 16.29,
      "duration": 0.1774,
      "velocity": 94,
      "chip": "ym2612"
    },
    {
      "channel": 1,
      "note": 79,
      "start": 16.2928,
      "duration": 0.1914,
      "velocity": 115,
      "chip": "ym2612"
    },
    {
      "channel": 4,
      "note": 81,
      "start": 16.3927,
      "duration": 0.1394,
      "velocity": 115,
      "chip": "ym2612"
    },
    {
      "channel": 0,
      "note": 48,
      "start": 16.4839,
      "duration": 0.1252,
      "velocity": 119,
      "chip": "ym2612"
    },
    {
      "channel": 3,
      "note": 69,
      "start": 16.4851,
      "duration": 0.1249,
      "velocity": 94,
      "chip": "ym2612"
    },
    {
      "channel": 1,
      "note": 72,
      "start": 16.4877,
      "duration": 0.139,
      "velocity": 115,
      "chip": "ym2612"
    },
    {
      "channel": 4,
      "note": 79,
      "start": 16.535,
      "duration": 0.1996,
      "velocity": 115,
      "chip": "ym2612"
    },
    {
      "channel": 0,
      "note": 48,
      "start": 16.6264,
      "duration": 0.1371,
      "velocity": 119,
      "chip": "ym2612"
    },
    {
      "channel": 3,
      "note": 69,
      "start": 16.6276,
      "duration": 0.1369,
      "velocity": 94,
      "chip": "ym2612"
    },
    {
      "channel": 1,
      "note": 76,
      "start": 16.6303,
      "duration": 0.1367,
      "velocity": 115,
      "chip": "ym2612"
    },
    {
      "channel": 4,
      "note": 72,
      "start": 16.7379,
      "duration": 0.1353,
      "velocity": 115,
      "chip": "ym2612"
    },
    {
      "channel": 0,
      "note": 47,
      "start": 16.7666,
      "duration": 0.1833,
      "velocity": 119,
      "chip": "ym2612"
    },
    {
      "channel": 2,
      "note": 54,
      "start": 16.7676,
      "duration": 0.4041,
      "velocity": 108,
      "chip": "ym2612"
    },
    {
      "channel": 3,
      "note": 69,
      "start": 16.7734,
      "duration": 0.1785,
      "velocity": 94,
      "chip": "ym2612"
    },
    {
      "channel": 1,
      "note": 78,
      "start": 16.7761,
      "duration": 0.1926,
      "velocity": 115,
      "chip": "ym2612"
    },
    {
      "channel": 4,
      "note": 76,
      "start": 16.876,
      "duration": 0.1372,
      "velocity": 115,
      "chip": "ym2612"
    },
    {
      "channel": 0,
      "note": 47,
      "start": 16.9673,
      "duration": 0.0759,
      "velocity": 119,
      "chip": "ym2612"
    },
    {
      "channel": 3,
      "note": 69,
      "start": 16.9695,
      "duration": 0.0745,
      "velocity": 94,
      "chip": "ym2612"
    },
    {
      "channel": 1,
      "note": 74,
      "start": 16.9725,
      "duration": 0.0751,
      "velocity": 115,
      "chip": "ym2612"
    },
    {
      "channel": 4,
      "note": 78,
      "start": 17.0161,
      "duration": 0.0779,
      "velocity": 115,
      "chip": "ym2612"
    },
    {
      "channel": 0,
      "note": 47,
      "start": 17.0473,
      "duration": 0.1238,
      "velocity": 119,
      "chip": "ym2612"
    },
    {
      "channel": 3,
      "note": 69,
      "start": 17.0485,
      "duration": 0.1236,
      "velocity": 94,
      "chip": "ym2612"
    },
    {
      "channel": 1,
      "note": 83,
      "start": 17.0512,
      "duration": 0.1376,
      "velocity": 115,
      "chip": "ym2612"
    },
    {
      "channel": 4,
      "note": 74,
      "start": 17.097,
      "duration": 0.1996,
      "velocity": 115,
      "chip": "ym2612"
    },
    {
      "channel": 0,
      "note": 46,
      "start": 17.1885,
      "duration": 0.1812,
      "velocity": 119,
      "chip": "ym2612"
    },
    {
      "channel": 2,
      "note": 52,
      "start": 17.1894,
      "duration": 0.4354,
      "velocity": 108,
      "chip": "ym2612"
    },
    {
      "channel": 3,
      "note": 69,
      "start": 17.1951,
      "duration": 0.1754,
      "velocity": 94,
      "chip": "ym2612"
    },
    {
      "channel": 1,
      "note": 85,
      "start": 17.1978,
      "duration": 0.1895,
      "velocity": 115,
      "chip": "ym2612"
    },
    {
      "channel": 4,
      "note": 83,
      "start": 17.2994,
      "duration": 0.1558,
      "velocity": 115,
      "chip": "ym2612"
    },
    {
      "channel": 0,
      "note": 46,
      "start": 17.387,
      "duration": 0.097,
      "velocity": 119,
      "chip": "ym2612"
    },
    {
      "channel": 3,
      "note": 69,
      "start": 17.3882,
      "duration": 0.0966,
      "velocity": 94,
      "chip": "ym2612"
    },
    {
      "channel": 1,
      "note": 82,
      "start": 17.3911,
      "duration": 0.0962,
      "velocity": 115,
      "chip": "ym2612"
    },
    {
      "channel": 4,
      "note": 85,
      "start": 17.4582,
      "duration": 0.1376,
      "velocity": 115,
      "chip": "ym2612"
    },
    {
      "channel": 0,
      "note": 54,
      "start": 17.487,
      "duration": 0.1372,
      "velocity": 119,
      "chip": "ym2612"
    },
    {
      "channel": 3,
      "note": 69,
      "start": 17.4882,
      "duration": 0.137,
      "velocity": 94,
      "chip": "ym2612"
    },
    {
      "channel": 1,
      "note": 88,
      "start": 17.4913,
      "duration": 0.1376,
      "velocity": 115,
      "chip": "ym2612"
    },
    {
      "channel": 4,
      "note": 82,
      "start": 17.5988,
      "duration": 0.1376,
      "velocity": 115,
      "chip": "ym2612"
    },
    {
      "channel": 0,
      "note": 59,
      "start": 17.6285,
      "duration": 0.1842,
      "velocity": 119,
      "chip": "ym2612"
    },
    {
      "channel": 2,
      "note": 54,
      "start": 17.6295,
      "duration": 0.3538,
      "velocity": 108,
      "chip": "ym2612"
    },
    {
      "channel": 3,
      "note": 69,
      "start": 17.6362,
      "duration": 0.1774,
      "velocity": 94,
      "chip": "ym2612"
    },
    {
      "channel": 1,
      "note": 88,
      "start": 17.6381,
      "duration": 0.1923,
      "velocity": 115,
      "chip": "ym2612"
    },
    {
      "channel": 4,
      "note": 88,
      "start": 17.7396,
      "duration": 0.1362,
      "velocity": 115,
      "chip": "ym2612"
    },
    {
      "channel": 0,
      "note": 59,
      "start": 17.8301,
      "duration": 0.076,
      "velocity": 119,
      "chip": "ym2612"
    },
    {
      "channel": 3,
      "note": 69,
      "start": 17.8313,
      "duration": 0.0757,
      "velocity": 94,
      "chip": "ym2612"
    },
    {
      "channel": 1,
      "note": 87,
      "start": 17.8341,
      "duration": 0.0349,
      "velocity": 115,
      "chip": "ym2612"
    },
    {
      "channel": 1,
      "note": 85,
      "start": 17.8723,
      "duration": 0.0371,
      "velocity": 115,
      "chip": "ym2612"
    },
    {
      "channel": 4,
      "note": 88,
      "start": 17.8787,
      "duration": 0.0378,
      "velocity": 115,
      "chip": "ym2612"
    },
    {
      "channel": 0,
      "note": 59,
      "start": 17.909,
      "duration": 0.0737,
      "velocity": 119,
      "chip": "ym2612"
    },
    {
      "channel": 3,
      "note": 69,
      "start": 17.9102,
      "duration": 0.0734,
      "velocity": 94,
      "chip": "ym2612"
    },
    {
      "channel": 1,
      "note": 83,
      "start": 17.913,
      "duration": 0.0744,
      "velocity": 115,
      "chip": "ym2612"
    },
    {
      "channel": 4,
      "note": 87,
      "start": 17.9194,
      "duration": 0.0351,
      "velocity": 115,
      "chip": "ym2612"
    },
    {
      "channel": 4,
      "note": 85,
      "start": 17.9573,
      "duration": 0.1663,
      "velocity": 115,
      "chip": "ym2612"
    },
    {
      "channel": 0,
      "note": 48,
      "start": 17.9871,
      "duration": 1.3448,
      "velocity": 119,
      "chip": "ym2612"
    },
    {
      "channel": 2,
      "note": 55,
      "start": 17.9879,
      "duration": 1.3445,
      "velocity": 108,
      "chip": "ym2612"
    },
    {
      "channel": 3,
      "note": 69,
      "start": 17.9948,
      "duration": 1.338,
      "velocity": 108,
      "chip": "ym2612"
    },
    {
      "channel": 1,
      "note": 83,
      "start": 17.997,
      "duration": 0.5518,
      "velocity": 115,
      "chip": "ym2612"
    },
    {
      "channel": 4,
      "note": 83,
      "start": 18.141,
      "duration": 0.5533,
      "velocity": 115,
      "chip": "ym2612"
    },
    {
      "channel": 1,
      "note": 85,
      "start": 18.5659,
      "duration": 0.0169,
      "velocity": 115,
      "chip": "ym2612"
    },
    {
      "channel": 1,
      "note": 86,
      "start": 18.6001,
      "duration": 0.0169,
      "velocity": 115,
      "chip": "ym2612"
    },
    {
      "channel": 1,
      "note": 87,
      "start": 18.6343,
      "duration": 0.0169,
      "velocity": 115,
      "chip": "ym2612"
    },
    {
      "channel": 1,
      "note": 88,
      "start": 18.6686,
      "duration": 1.5195,
      "velocity": 115,
      "chip": "ym2612"
    },
    {
      "channel": 4,
      "note": 83,
      "start": 18.7016,
      "duration": 0.0169,
      "velocity": 115,
      "chip": "ym2612"
    },
    {
      "channel": 4,
      "note": 85,
      "start": 18.7359,
      "duration": 0.017,
      "velocity": 115,
      "chip": "ym2612"
    },
    {
      "channel": 4,
      "note": 86,
      "start": 18.7701,
      "duration": 0.0169,
      "velocity": 115,
      "chip": "ym2612"
    },
    {
      "channel": 4,
      "note": 87,
      "start": 18.8043,
      "duration": 38.7296,
      "velocity": 115,
      "chip": "ym2612"
    },
    {
      "channel": 0,
      "note": 50,
      "start": 19.3528,
      "duration": 0.0809,
      "velocity": 100,
      "chip": "ym2612"
    },
    {
      "channel": 2,
      "note": 57,
      "start": 19.3536,
      "duration": 0.6597,
      "velocity": 108,
      "chip": "ym2612"
    },
    {
      "channel": 3,
      "note": 64,
      "start": 19.3553,
      "duration": 0.6584,
      "velocity": 108,
      "chip": "ym2612"
    },
    {
      "channel": 0,
      "note": 50,
      "start": 19.4507,
      "duration": 0.222,
      "velocity": 100,
      "chip": "ym2612"
    },
    {
      "channel": 0,
      "note": 50,
      "start": 19.6902,
      "duration": 0.0829,
      "velocity": 100,
      "chip": "ym2612"
    },
    {
      "channel": 0,
      "note": 50,
      "start": 19.7905,
      "duration": 0.2222,
      "velocity": 100,
      "chip": "ym2612"
    },
    {
      "channel": 0,
      "note": 52,
      "start": 20.0304,
      "duration": 0.0363,
      "velocity": 100,
      "chip": "ym2612"
    },
    {
      "channel": 2,
      "note": 59,
      "start": 20.0312,
      "duration": 0.1572,
      "velocity": 108,
      "chip": "ym2612"
    },
    {
      "channel": 3,
      "note": 66,
      "start": 20.0318,
      "duration": 0.157,
      "velocity": 108,
      "chip": "ym2612"
    },
    {
      "channel": 0,
      "note": 52,
      "start": 20.0702,
      "duration": 0.0351,
      "velocity": 100,
      "chip": "ym2612"
    },
    {
      "channel": 0,
      "note": 52,
      "start": 20.1084,
      "duration": 0.0402,
      "velocity": 100,
      "chip": "ym2612"
    },
    {
      "channel": 0,
      "note": 52,
      "start": 20.1516,
      "duration": 0.0362,
      "velocity": 100,
      "chip": "ym2612"
    },
    {
      "channel": 0,
      "note": 57,
      "start": 20.1926,
      "duration": 37.3413,
      "velocity": 100,
      "chip": "ym2612"
    },
    {
      "channel": 1,
      "note": 57,
      "start": 20.197,
      "duration": 37.3369,
      "velocity": 121,
      "chip": "ym2612"
    }
  ]
}