{
  "track_name": "14 - Kyo and Nara",
  "duration_sec": 47.033,
  "sample_rate": 44100,
  "note_count": 445,
  "unique_pitches": 36,
  "pitch_range": 69,
  "avg_note_duration": 0.261,
  "reconstruction_stats": {
    "notes_reconstructed": 445,
    "keyon_events": 445,
    "keyoff_events": 443,
    "orphan_keyons": 2,
    "unique_pitches": 36,
    "pitch_range": 69,
    "avg_duration_sec": 0.261
  },
  "metadata": {
    "source": "T\\Taikou Risshiden\\14 - Kyo and Nara.vgm"
  },
  "notes": [
    {
      "channel": 1,
      "note": 54,
      "start": 0.021,
      "duration": 0.1255,
      "velocity": 95,
      "chip": "ym2612"
    },
    {
      "channel": 2,
      "note": 49,
      "start": 0.0251,
      "duration": 0.2433,
      "velocity": 102,
      "chip": "ym2612"
    },
    {
      "channel": 3,
      "note": 54,
      "start": 0.0293,
      "duration": 1.2412,
      "velocity": 102,
      "chip": "ym2612"
    },
    {
      "channel": 1,
      "note": 61,
      "start": 0.2681,
      "duration": 0.1284,
      "velocity": 95,
      "chip": "ym2612"
    },
    {
      "channel": 2,
      "note": 104,
      "start": 0.2721,
      "duration": 0.2461,
      "velocity": 86,
      "chip": "ym2612"
    },
    {
      "channel": 1,
      "note": 66,
      "start": 0.5178,
      "duration": 0.1287,
      "velocity": 95,
      "chip": "ym2612"
    },
    {
      "channel": 2,
      "note": 104,
      "start": 0.5185,
      "duration": 0.2525,
      "velocity": 86,
      "chip": "ym2612"
    },
    {
      "channel": 1,
      "note": 54,
      "start": 0.7705,
      "duration": 0.126,
      "velocity": 95,
      "chip": "ym2612"
    },
    {
      "channel": 2,
      "note": 49,
      "start": 0.7747,
      "duration": 0.2448,
      "velocity": 102,
      "chip": "ym2612"
    },
    {
      "channel": 2,
      "note": 104,
      "start": 1.0232,
      "duration": 0.2466,
      "velocity": 86,
      "chip": "ym2612"
    },
    {
      "channel": 1,
      "note": 61,
      "start": 1.2694,
      "duration": 0.1271,
      "velocity": 95,
      "chip": "ym2612"
    },
    {
      "channel": 2,
      "note": 104,
      "start": 1.27,
      "duration": 0.2482,
      "velocity": 86,
      "chip": "ym2612"
    },
    {
      "channel": 3,
      "note": 61,
      "start": 1.2708,
      "duration": 0.2515,
      "velocity": 102,
      "chip": "ym2612"
    },
    {
      "channel": 1,
      "note": 66,
      "start": 1.5178,
      "duration": 0.1287,
      "velocity": 95,
      "chip": "ym2612"
    },
    {
      "channel": 2,
      "note": 49,
      "start": 1.5219,
      "duration": 0.2463,
      "velocity": 102,
      "chip": "ym2612"
    },
    {
      "channel": 3,
      "note": 68,
      "start": 1.5227,
      "duration": 0.2497,
      "velocity": 102,
      "chip": "ym2612"
    },
    {
      "channel": 1,
      "note": 61,
      "start": 1.7678,
      "duration": 0.1287,
      "velocity": 95,
      "chip": "ym2612"
    },
    {
      "channel": 2,
      "note": 64,
      "start": 1.772,
      "duration": 0.008,
      "velocity": 122,
      "chip": "ym2612"
    },
    {
      "channel": 3,
      "note": 66,
      "start": 1.7727,
      "duration": 1.524,
      "velocity": 102,
      "chip": "ym2612"
    },
    {
      "channel": 1,
      "note": 50,
      "start": 2.0183,
      "duration": 0.1283,
      "velocity": 95,
      "chip": "ym2612"
    },
    {
      "channel": 2,
      "note": 49,
      "start": 2.0224,
      "duration": 0.2459,
      "velocity": 102,
      "chip": "ym2612"
    },
    {
      "channel": 1,
      "note": 57,
      "start": 2.2678,
      "duration": 0.1287,
      "velocity": 95,
      "chip": "ym2612"
    },
    {
      "channel": 2,
      "note": 104,
      "start": 2.272,
      "duration": 0.248,
      "velocity": 86,
      "chip": "ym2612"
    },
    {
      "channel": 1,
      "note": 62,
      "start": 2.5195,
      "duration": 0.127,
      "velocity": 95,
      "chip": "ym2612"
    },
    {
      "channel": 2,
      "note": 104,
      "start": 2.5202,
      "duration": 0.2496,
      "velocity": 86,
      "chip": "ym2612"
    },
    {
      "channel": 1,
      "note": 50,
      "start": 2.7694,
      "duration": 0.1271,
      "velocity": 95,
      "chip": "ym2612"
    },
    {
      "channel": 2,
      "note": 47,
      "start": 2.7735,
      "duration": 0.2461,
      "velocity": 102,
      "chip": "ym2612"
    },
    {
      "channel": 2,
      "note": 104,
      "start": 3.0232,
      "duration": 0.2468,
      "velocity": 86,
      "chip": "ym2612"
    },
    {
      "channel": 1,
      "note": 57,
      "start": 3.2696,
      "duration": 0.1269,
      "velocity": 95,
      "chip": "ym2612"
    },
    {
      "channel": 2,
      "note": 104,
      "start": 3.2702,
      "duration": 0.2507,
      "velocity": 86,
      "chip": "ym2612"
    },
    {
      "channel": 1,
      "note": 62,
      "start": 3.5205,
      "duration": 0.126,
      "velocity": 95,
      "chip": "ym2612"
    },
    {
      "channel": 2,
      "note": 37,
      "start": 3.5246,
      "duration": 0.2291,
      "velocity": 86,
      "chip": "ym2612"
    },
    {
      "channel": 1,
      "note": 57,
      "start": 3.7704,
      "duration": 0.1261,
      "velocity": 95,
      "chip": "ym2612"
    },
    {
      "channel": 0,
      "note": 85,
      "start": 4.0207,
      "duration": 1.6258,
      "velocity": 97,
      "chip": "ym2612"
    },
    {
      "channel": 1,
      "note": 54,
      "start": 4.0215,
      "duration": 0.1251,
      "velocity": 95,
      "chip": "ym2612"
    },
    {
      "channel": 2,
      "note": 49,
      "start": 4.0256,
      "duration": 0.2454,
      "velocity": 102,
      "chip": "ym2612"
    },
    {
      "channel": 1,
      "note": 61,
      "start": 4.2706,
      "duration": 0.1259,
      "velocity": 95,
      "chip": "ym2612"
    },
    {
      "channel": 2,
      "note": 104,
      "start": 4.2747,
      "duration": 0.2452,
      "velocity": 86,
      "chip": "ym2612"
    },
    {
      "channel": 1,
      "note": 66,
      "start": 4.5195,
      "duration": 0.127,
      "velocity": 95,
      "chip": "ym2612"
    },
    {
      "channel": 2,
      "note": 104,
      "start": 4.5202,
      "duration": 0.2497,
      "velocity": 86,
      "chip": "ym2612"
    },
    {
      "channel": 1,
      "note": 54,
      "start": 4.7694,
      "duration": 0.1271,
      "velocity": 95,
      "chip": "ym2612"
    },
    {
      "channel": 2,
      "note": 49,
      "start": 4.7735,
      "duration": 0.2461,
      "velocity": 102,
      "chip": "ym2612"
    },
    {
      "channel": 2,
      "note": 104,
      "start": 5.0232,
      "duration": 0.2468,
      "velocity": 86,
      "chip": "ym2612"
    },
    {
      "channel": 1,
      "note": 61,
      "start": 5.2696,
      "duration": 0.1269,
      "velocity": 95,
      "chip": "ym2612"
    },
    {
      "channel": 2,
      "note": 104,
      "start": 5.2702,
      "duration": 0.2507,
      "velocity": 86,
      "chip": "ym2612"
    },
    {
      "channel": 1,
      "note": 66,
      "start": 5.5205,
      "duration": 0.1265,
      "velocity": 95,
      "chip": "ym2612"
    },
    {
      "channel": 2,
      "note": 49,
      "start": 5.5246,
      "duration": 0.2469,
      "velocity": 102,
      "chip": "ym2612"
    },
    {
      "channel": 0,
      "note": 85,
      "start": 5.6468,
      "duration": 0.1232,
      "velocity": 97,
      "chip": "ym2612"
    },
    {
      "channel": 0,
      "note": 83,
      "start": 5.7704,
      "duration": 0.1262,
      "velocity": 97,
      "chip": "ym2612"
    },
    {
      "channel": 1,
      "note": 61,
      "start": 5.7711,
      "duration": 0.1261,
      "velocity": 95,
      "chip": "ym2612"
    },
    {
      "channel": 2,
      "note": 64,
      "start": 5.7752,
      "duration": 0.0047,
      "velocity": 122,
      "chip": "ym2612"
    },
    {
      "channel": 0,
      "note": 82,
      "start": 5.8969,
      "duration": 0.1235,
      "velocity": 97,
      "chip": "ym2612"
    },
    {
      "channel": 0,
      "note": 80,
      "start": 6.0207,
      "duration": 0.2494,
      "velocity": 97,
      "chip": "ym2612"
    },
    {
      "channel": 1,
      "note": 51,
      "start": 6.0215,
      "duration": 0.1251,
      "velocity": 95,
      "chip": "ym2612"
    },
    {
      "channel": 2,
      "note": 49,
      "start": 6.0256,
      "duration": 0.2461,
      "velocity": 102,
      "chip": "ym2612"
    },
    {
      "channel": 0,
      "note": 82,
      "start": 6.2705,
      "duration": 0.2486,
      "velocity": 97,
      "chip": "ym2612"
    },
    {
      "channel": 1,
      "note": 58,
      "start": 6.2712,
      "duration": 0.1253,
      "velocity": 95,
      "chip": "ym2612"
    },
    {
      "channel": 2,
      "note": 104,
      "start": 6.2753,
      "duration": 0.2453,
      "velocity": 86,
      "chip": "ym2612"
    },
    {
      "channel": 0,
      "note": 78,
      "start": 6.5195,
      "duration": 0.2495,
      "velocity": 97,
      "chip": "ym2612"
    },
    {
      "channel": 1,
      "note": 63,
      "start": 6.5202,
      "duration": 0.1263,
      "velocity": 95,
      "chip": "ym2612"
    },
    {
      "channel": 2,
      "note": 104,
      "start": 6.5208,
      "duration": 0.2497,
      "velocity": 86,
      "chip": "ym2612"
    },
    {
      "channel": 0,
      "note": 73,
      "start": 6.7693,
      "duration": 1.0006,
      "velocity": 97,
      "chip": "ym2612"
    },
    {
      "channel": 1,
      "note": 51,
      "start": 6.7701,
      "duration": 0.1264,
      "velocity": 95,
      "chip": "ym2612"
    },
    {
      "channel": 2,
      "note": 47,
      "start": 6.7742,
      "duration": 0.2454,
      "velocity": 102,
      "chip": "ym2612"
    },
    {
      "channel": 2,
      "note": 104,
      "start": 7.0232,
      "duration": 0.2468,
      "velocity": 86,
      "chip": "ym2612"
    },
    {
      "channel": 1,
      "note": 58,
      "start": 7.2696,
      "duration": 0.1269,
      "velocity": 95,
      "chip": "ym2612"
    },
    {
      "channel": 2,
      "note": 104,
      "start": 7.2702,
      "duration": 0.2507,
      "velocity": 86,
      "chip": "ym2612"
    },
    {
      "channel": 1,
      "note": 63,
      "start": 7.5205,
      "duration": 0.126,
      "velocity": 95,
      "chip": "ym2612"
    },
    {
      "channel": 2,
      "note": 37,
      "start": 7.5246,
      "duration": 0.222,
      "velocity": 86,
      "chip": "ym2612"
    },
    {
      "channel": 0,
      "note": 73,
      "start": 7.7702,
      "duration": 0.1263,
      "velocity": 97,
      "chip": "ym2612"
    },
    {
      "channel": 1,
      "note": 58,
      "start": 7.7709,
      "duration": 0.1262,
      "velocity": 95,
      "chip": "ym2612"
    },
    {
      "channel": 0,
      "note": 75,
      "start": 7.8969,
      "duration": 0.1235,
      "velocity": 97,
      "chip": "ym2612"
    },
    {
      "channel": 0,
      "note": 76,
      "start": 8.0207,
      "duration": 0.4994,
      "velocity": 97,
      "chip": "ym2612"
    },
    {
      "channel": 1,
      "note": 57,
      "start": 8.0215,
      "duration": 0.125,
      "velocity": 95,
      "chip": "ym2612"
    },
    {
      "channel": 2,
      "note": 49,
      "start": 8.0256,
      "duration": 0.2451,
      "velocity": 102,
      "chip": "ym2612"
    },
    {
      "channel": 3,
      "note": 73,
      "start": 8.0301,
      "duration": 0.4921,
      "velocity": 97,
      "chip": "ym2612"
    },
    {
      "channel": 1,
      "note": 64,
      "start": 8.2704,
      "duration": 0.1261,
      "velocity": 95,
      "chip": "ym2612"
    },
    {
      "channel": 2,
      "note": 104,
      "start": 8.2744,
      "duration": 0.2471,
      "velocity": 86,
      "chip": "ym2612"
    },
    {
      "channel": 0,
      "note": 78,
      "start": 8.5205,
      "duration": 0.2494,
      "velocity": 97,
      "chip": "ym2612"
    },
    {
      "channel": 1,
      "note": 69,
      "start": 8.5212,
      "duration": 0.1253,
      "velocity": 95,
      "chip": "ym2612"
    },
    {
      "channel": 2,
      "note": 104,
      "start": 8.5218,
      "duration": 0.2496,
      "velocity": 86,
      "chip": "ym2612"
    },
    {
      "channel": 3,
      "note": 75,
      "start": 8.5226,
      "duration": 0.2529,
      "velocity": 97,
      "chip": "ym2612"
    },
    {
      "channel": 0,
      "note": 75,
      "start": 8.7703,
      "duration": 0.4998,
      "velocity": 97,
      "chip": "ym2612"
    },
    {
      "channel": 1,
      "note": 59,
      "start": 8.771,
      "duration": 0.1255,
      "velocity": 95,
      "chip": "ym2612"
    },
    {
      "channel": 2,
      "note": 49,
      "start": 8.7751,
      "duration": 0.2453,
      "velocity": 102,
      "chip": "ym2612"
    },
    {
      "channel": 3,
      "note": 71,
      "start": 8.7758,
      "duration": 0.4964,
      "velocity": 97,
      "chip": "ym2612"
    },
    {
      "channel": 2,
      "note": 104,
      "start": 9.0241,
      "duration": 0.2475,
      "velocity": 86,
      "chip": "ym2612"
    },
    {
      "channel": 0,
      "note": 71,
      "start": 9.2705,
      "duration": 0.4996,
      "velocity": 97,
      "chip": "ym2612"
    },
    {
      "channel": 1,
      "note": 66,
      "start": 9.2712,
      "duration": 0.1253,
      "velocity": 95,
      "chip": "ym2612"
    },
    {
      "channel": 2,
      "note": 104,
      "start": 9.2718,
      "duration": 0.2489,
      "velocity": 86,
      "chip": "ym2612"
    },
    {
      "channel": 3,
      "note": 66,
      "start": 9.2725,
      "duration": 0.5032,
      "velocity": 97,
      "chip": "ym2612"
    },
    {
      "channel": 1,
      "note": 71,
      "start": 9.5204,
      "duration": 0.1261,
      "velocity": 95,
      "chip": "ym2612"
    },
    {
      "channel": 2,
      "note": 49,
      "start": 9.5244,
      "duration": 0.2471,
      "velocity": 102,
      "chip": "ym2612"
    },
    {
      "channel": 0,
      "note": 73,
      "start": 9.7705,
      "duration": 1.2497,
      "velocity": 97,
      "chip": "ym2612"
    },
    {
      "channel": 1,
      "note": 66,
      "start": 9.7712,
      "duration": 0.1253,
      "velocity": 95,
      "chip": "ym2612"
    },
    {
      "channel": 2,
      "note": 64,
      "start": 9.7753,
      "duration": 0.0046,
      "velocity": 122,
      "chip": "ym2612"
    },
    {
      "channel": 3,
      "note": 68,
      "start": 9.776,
      "duration": 2.2206,
      "velocity": 97,
      "chip": "ym2612"
    },
    {
      "channel": 1,
      "note": 54,
      "start": 10.0209,
      "duration": 0.1256,
      "velocity": 95,
      "chip": "ym2612"
    },
    {
      "channel": 2,
      "note": 49,
      "start": 10.025,
      "duration": 0.2459,
      "velocity": 102,
      "chip": "ym2612"
    },
    {
      "channel": 1,
      "note": 61,
      "start": 10.2705,
      "duration": 0.126,
      "velocity": 95,
      "chip": "ym2612"
    },
    {
      "channel": 2,
      "note": 104,
      "start": 10.2746,
      "duration": 0.2451,
      "velocity": 86,
      "chip": "ym2612"
    },
    {
      "channel": 1,
      "note": 66,
      "start": 10.5193,
      "duration": 0.1272,
      "velocity": 95,
      "chip": "ym2612"
    },
    {
      "channel": 2,
      "note": 104,
      "start": 10.52,
      "duration": 0.2499,
      "velocity": 86,
      "chip": "ym2612"
    },
    {
      "channel": 1,
      "note": 54,
      "start": 10.7695,
      "duration": 0.127,
      "velocity": 95,
      "chip": "ym2612"
    },
    {
      "channel": 2,
      "note": 47,
      "start": 10.7736,
      "duration": 0.2469,
      "velocity": 102,
      "chip": "ym2612"
    },
    {
      "channel": 2,
      "note": 104,
      "start": 11.0242,
      "duration": 0.2466,
      "velocity": 86,
      "chip": "ym2612"
    },
    {
      "channel": 1,
      "note": 61,
      "start": 11.2705,
      "duration": 0.126,
      "velocity": 95,
      "chip": "ym2612"
    },
    {
      "channel": 2,
      "note": 104,
      "start": 11.2711,
      "duration": 0.2486,
      "velocity": 86,
      "chip": "ym2612"
    },
    {
      "channel": 1,
      "note": 66,
      "start": 11.5193,
      "duration": 0.1272,
      "velocity": 95,
      "chip": "ym2612"
    },
    {
      "channel": 2,
      "note": 37,
      "start": 11.5234,
      "duration": 0.2232,
      "velocity": 86,
      "chip": "ym2612"
    },
    {
      "channel": 0,
      "note": 73,
      "start": 11.7693,
      "duration": 0.251,
      "velocity": 97,
      "chip": "ym2612"
    },
    {
      "channel": 1,
      "note": 61,
      "start": 11.77,
      "duration": 0.1265,
      "velocity": 95,
      "chip": "ym2612"
    },
    {
      "channel": 0,
      "note": 85,
      "start": 12.0207,
      "duration": 1.6259,
      "velocity": 97,
      "chip": "ym2612"
    },
    {
      "channel": 1,
      "note": 51,
      "start": 12.0214,
      "duration": 0.1251,
      "velocity": 95,
      "chip": "ym2612"
    },
    {
      "channel": 2,
      "note": 49,
      "start": 12.0256,
      "duration": 0.2454,
      "velocity": 102,
      "chip": "ym2612"
    },
    {
      "channel": 1,
      "note": 58,
      "start": 12.2705,
      "duration": 0.126,
      "velocity": 95,
      "chip": "ym2612"
    },
    {
      "channel": 2,
      "note": 104,
      "start": 12.2746,
      "duration": 0.2451,
      "velocity": 86,
      "chip": "ym2612"
    },
    {
      "channel": 1,
      "note": 63,
      "start": 12.5193,
      "duration": 0.1272,
      "velocity": 95,
      "chip": "ym2612"
    },
    {
      "channel": 2,
      "note": 104,
      "start": 12.52,
      "duration": 0.2499,
      "velocity": 86,
      "chip": "ym2612"
    },
    {
      "channel": 1,
      "note": 51,
      "start": 12.7695,
      "duration": 0.127,
      "velocity": 95,
      "chip": "ym2612"
    },
    {
      "channel": 2,
      "note": 49,
      "start": 12.7736,
      "duration": 0.2469,
      "velocity": 102,
      "chip": "ym2612"
    },
    {
      "channel": 2,
      "note": 104,
      "start": 13.0242,
      "duration": 0.2467,
      "velocity": 86,
      "chip": "ym2612"
    },
    {
      "channel": 1,
      "note": 58,
      "start": 13.2705,
      "duration": 0.126,
      "velocity": 95,
      "chip": "ym2612"
    },
    {
      "channel": 2,
      "note": 104,
      "start": 13.2711,
      "duration": 0.2429,
      "velocity": 86,
      "chip": "ym2612"
    },
    {
      "channel": 1,
      "note": 63,
      "start": 13.5136,
      "duration": 0.1334,
      "velocity": 95,
      "chip": "ym2612"
    },
    {
      "channel": 2,
      "note": 49,
      "start": 13.5177,
      "duration": 0.247,
      "velocity": 102,
      "chip": "ym2612"
    },
    {
      "channel": 0,
      "note": 85,
      "start": 13.6468,
      "duration": 0.1164,
      "velocity": 97,
      "chip": "ym2612"
    },
    {
      "channel": 0,
      "note": 83,
      "start": 13.7636,
      "duration": 0.133,
      "velocity": 97,
      "chip": "ym2612"
    },
    {
      "channel": 1,
      "note": 58,
      "start": 13.7643,
      "duration": 0.1329,
      "velocity": 95,
      "chip": "ym2612"
    },
    {
      "channel": 2,
      "note": 64,
      "start": 13.7684,
      "duration": 0.0115,
      "velocity": 122,
      "chip": "ym2612"
    },
    {
      "channel": 0,
      "note": 82,
      "start": 13.8969,
      "duration": 0.1163,
      "velocity": 97,
      "chip": "ym2612"
    },
    {
      "channel": 0,
      "note": 80,
      "start": 14.0136,
      "duration": 0.2496,
      "velocity": 97,
      "chip": "ym2612"
    },
    {
      "channel": 1,
      "note": 47,
      "start": 14.0143,
      "duration": 0.1322,
      "velocity": 95,
      "chip": "ym2612"
    },
    {
      "channel": 2,
      "note": 49,
      "start": 14.0186,
      "duration": 0.2461,
      "velocity": 102,
      "chip": "ym2612"
    },
    {
      "channel": 0,
      "note": 82,
      "start": 14.2636,
      "duration": 0.2496,
      "velocity": 97,
      "chip": "ym2612"
    },
    {
      "channel": 1,
      "note": 54,
      "start": 14.2643,
      "duration": 0.1322,
      "velocity": 95,
      "chip": "ym2612"
    },
    {
      "channel": 2,
      "note": 104,
      "start": 14.2684,
      "duration": 0.2462,
      "velocity": 86,
      "chip": "ym2612"
    },
    {
      "channel": 0,
      "note": 78,
      "start": 14.5136,
      "duration": 0.2496,
      "velocity": 97,
      "chip": "ym2612"
    },
    {
      "channel": 1,
      "note": 59,
      "start": 14.5143,
      "duration": 0.1322,
      "velocity": 95,
      "chip": "ym2612"
    },
    {
      "channel": 2,
      "note": 104,
      "start": 14.5149,
      "duration": 0.2498,
      "velocity": 86,
      "chip": "ym2612"
    },
    {
      "channel": 0,
      "note": 73,
      "start": 14.7636,
      "duration": 0.9996,
      "velocity": 97,
      "chip": "ym2612"
    },
    {
      "channel": 1,
      "note": 47,
      "start": 14.7643,
      "duration": 0.1322,
      "velocity": 95,
      "chip": "ym2612"
    },
    {
      "channel": 2,
      "note": 47,
      "start": 14.7684,
      "duration": 0.245,
      "velocity": 102,
      "chip": "ym2612"
    },
    {
      "channel": 2,
      "note": 104,
      "start": 15.0173,
      "duration": 0.2467,
      "velocity": 86,
      "chip": "ym2612"
    },
    {
      "channel": 1,
      "note": 54,
      "start": 15.2636,
      "duration": 0.1329,
      "velocity": 95,
      "chip": "ym2612"
    },
    {
      "channel": 2,
      "note": 104,
      "start": 15.2643,
      "duration": 0.2497,
      "velocity": 86,
      "chip": "ym2612"
    },
    {
      "channel": 1,
      "note": 59,
      "start": 15.5136,
      "duration": 0.1329,
      "velocity": 95,
      "chip": "ym2612"
    },
    {
      "channel": 2,
      "note": 37,
      "start": 15.5177,
      "duration": 0.2289,
      "velocity": 86,
      "chip": "ym2612"
    },
    {
      "channel": 0,
      "note": 73,
      "start": 15.7634,
      "duration": 0.1331,
      "velocity": 97,
      "chip": "ym2612"
    },
    {
      "channel": 1,
      "note": 54,
      "start": 15.7641,
      "duration": 0.133,
      "velocity": 95,
      "chip": "ym2612"
    },
    {
      "channel": 0,
      "note": 75,
      "start": 15.8969,
      "duration": 0.1163,
      "velocity": 97,
      "chip": "ym2612"
    },
    {
      "channel": 0,
      "note": 76,
      "start": 16.0136,
      "duration": 0.4996,
      "velocity": 97,
      "chip": "ym2612"
    },
    {
      "channel": 1,
      "note": 45,
      "start": 16.0143,
      "duration": 0.1322,
      "velocity": 95,
      "chip": "ym2612"
    },
    {
      "channel": 2,
      "note": 49,
      "start": 16.0187,
      "duration": 0.2453,
      "velocity": 102,
      "chip": "ym2612"
    },
    {
      "channel": 3,
      "note": 73,
      "start": 16.0195,
      "duration": 0.3773,
      "velocity": 97,
      "chip": "ym2612"
    },
    {
      "channel": 1,
      "note": 52,
      "start": 16.2636,
      "duration": 0.1329,
      "velocity": 95,
      "chip": "ym2612"
    },
    {
      "channel": 2,
      "note": 104,
      "start": 16.2677,
      "duration": 0.247,
      "velocity": 86,
      "chip": "ym2612"
    },
    {
      "channel": 0,
      "note": 78,
      "start": 16.5136,
      "duration": 0.2496,
      "velocity": 97,
      "chip": "ym2612"
    },
    {
      "channel": 1,
      "note": 57,
      "start": 16.5143,
      "duration": 0.1322,
      "velocity": 95,
      "chip": "ym2612"
    },
    {
      "channel": 2,
      "note": 104,
      "start": 16.5149,
      "duration": 0.2498,
      "velocity": 86,
      "chip": "ym2612"
    },
    {
      "channel": 3,
      "note": 75,
      "start": 16.5156,
      "duration": 0.2531,
      "velocity": 97,
      "chip": "ym2612"
    },
    {
      "channel": 0,
      "note": 75,
      "start": 16.7636,
      "duration": 0.4996,
      "velocity": 97,
      "chip": "ym2612"
    },
    {
      "channel": 1,
      "note": 47,
      "start": 16.7643,
      "duration": 0.1322,
      "velocity": 95,
      "chip": "ym2612"
    },
    {
      "channel": 2,
      "note": 49,
      "start": 16.7684,
      "duration": 0.245,
      "velocity": 102,
      "chip": "ym2612"
    },
    {
      "channel": 3,
      "note": 71,
      "start": 16.7692,
      "duration": 0.4961,
      "velocity": 97,
      "chip": "ym2612"
    },
    {
      "channel": 2,
      "note": 104,
      "start": 17.0173,
      "duration": 0.2474,
      "velocity": 86,
      "chip": "ym2612"
    },
    {
      "channel": 0,
      "note": 71,
      "start": 17.2636,
      "duration": 0.4996,
      "velocity": 97,
      "chip": "ym2612"
    },
    {
      "channel": 1,
      "note": 54,
      "start": 17.2643,
      "duration": 0.1322,
      "velocity": 95,
      "chip": "ym2612"
    },
    {
      "channel": 2,
      "note": 104,
      "start": 17.2649,
      "duration": 0.2491,
      "velocity": 86,
      "chip": "ym2612"
    },
    {
      "channel": 3,
      "note": 66,
      "start": 17.2656,
      "duration": 0.5031,
      "velocity": 97,
      "chip": "ym2612"
    },
    {
      "channel": 1,
      "note": 59,
      "start": 17.5136,
      "duration": 0.1329,
      "velocity": 95,
      "chip": "ym2612"
    },
    {
      "channel": 2,
      "note": 49,
      "start": 17.5177,
      "duration": 0.247,
      "velocity": 102,
      "chip": "ym2612"
    },
    {
      "channel": 0,
      "note": 73,
      "start": 17.7636,
      "duration": 1.2495,
      "velocity": 97,
      "chip": "ym2612"
    },
    {
      "channel": 1,
      "note": 54,
      "start": 17.7643,
      "duration": 0.1201,
      "velocity": 95,
      "chip": "ym2612"
    },
    {
      "channel": 2,
      "note": 64,
      "start": 17.7684,
      "duration": 0.0115,
      "velocity": 122,
      "chip": "ym2612"
    },
    {
      "channel": 3,
      "note": 68,
      "start": 17.7692,
      "duration": 2.2275,
      "velocity": 97,
      "chip": "ym2612"
    },
    {
      "channel": 1,
      "note": 49,
      "start": 18.0138,
      "duration": 0.1229,
      "velocity": 95,
      "chip": "ym2612"
    },
    {
      "channel": 2,
      "note": 49,
      "start": 18.0181,
      "duration": 0.2459,
      "velocity": 102,
      "chip": "ym2612"
    },
    {
      "channel": 1,
      "note": 56,
      "start": 18.2636,
      "duration": 0.1231,
      "velocity": 95,
      "chip": "ym2612"
    },
    {
      "channel": 2,
      "note": 104,
      "start": 18.2677,
      "duration": 0.2463,
      "velocity": 86,
      "chip": "ym2612"
    },
    {
      "channel": 1,
      "note": 61,
      "start": 18.5136,
      "duration": 0.1219,
      "velocity": 95,
      "chip": "ym2612"
    },
    {
      "channel": 2,
      "note": 104,
      "start": 18.5143,
      "duration": 0.2497,
      "velocity": 86,
      "chip": "ym2612"
    },
    {
      "channel": 1,
      "note": 49,
      "start": 18.7636,
      "duration": 0.1224,
      "velocity": 95,
      "chip": "ym2612"
    },
    {
      "channel": 2,
      "note": 47,
      "start": 18.7677,
      "duration": 0.2458,
      "velocity": 102,
      "chip": "ym2612"
    },
    {
      "channel": 2,
      "note": 104,
      "start": 19.0174,
      "duration": 0.2466,
      "velocity": 86,
      "chip": "ym2612"
    },
    {
      "channel": 1,
      "note": 56,
      "start": 19.2636,
      "duration": 0.1231,
      "velocity": 95,
      "chip": "ym2612"
    },
    {
      "channel": 2,
      "note": 104,
      "start": 19.2643,
      "duration": 0.2497,
      "velocity": 86,
      "chip": "ym2612"
    },
    {
      "channel": 1,
      "note": 61,
      "start": 19.5136,
      "duration": 0.1219,
      "velocity": 95,
      "chip": "ym2612"
    },
    {
      "channel": 2,
      "note": 37,
      "start": 19.5177,
      "duration": 0.2289,
      "velocity": 86,
      "chip": "ym2612"
    },
    {
      "channel": 1,
      "note": 49,
      "start": 19.7636,
      "duration": 0.1224,
      "velocity": 95,
      "chip": "ym2612"
    },
    {
      "channel": 1,
      "note": 52,
      "start": 20.0138,
      "duration": 0.1202,
      "velocity": 95,
      "chip": "ym2612"
    },
    {
      "channel": 2,
      "note": 40,
      "start": 20.0184,
      "duration": 0.1159,
      "velocity": 105,
      "chip": "ym2612"
    },
    {
      "channel": 3,
      "note": 52,
      "start": 20.0225,
      "duration": 0.2456,
      "velocity": 102,
      "chip": "ym2612"
    },
    {
      "channel": 1,
      "note": 59,
      "start": 20.2636,
      "duration": 0.1204,
      "velocity": 95,
      "chip": "ym2612"
    },
    {
      "channel": 2,
      "note": 104,
      "start": 20.2677,
      "duration": 0.1166,
      "velocity": 86,
      "chip": "ym2612"
    },
    {
      "channel": 3,
      "note": 59,
      "start": 20.2685,
      "duration": 0.2461,
      "velocity": 102,
      "chip": "ym2612"
    },
    {
      "channel": 1,
      "note": 64,
      "start": 20.5136,
      "duration": 0.1204,
      "velocity": 95,
      "chip": "ym2612"
    },
    {
      "channel": 2,
      "note": 104,
      "start": 20.5143,
      "duration": 0.12,
      "velocity": 86,
      "chip": "ym2612"
    },
    {
      "channel": 3,
      "note": 66,
      "start": 20.5149,
      "duration": 0.2531,
      "velocity": 102,
      "chip": "ym2612"
    },
    {
      "channel": 1,
      "note": 52,
      "start": 20.7636,
      "duration": 0.1207,
      "velocity": 95,
      "chip": "ym2612"
    },
    {
      "channel": 2,
      "note": 40,
      "start": 20.7677,
      "duration": 0.1168,
      "velocity": 105,
      "chip": "ym2612"
    },
    {
      "channel": 3,
      "note": 71,
      "start": 20.7685,
      "duration": 1.5062,
      "velocity": 102,
      "chip": "ym2612"
    },
    {
      "channel": 2,
      "note": 104,
      "start": 21.0173,
      "duration": 0.1168,
      "velocity": 86,
      "chip": "ym2612"
    },
    {
      "channel": 1,
      "note": 59,
      "start": 21.2636,
      "duration": 0.1232,
      "velocity": 95,
      "chip": "ym2612"
    },
    {
      "channel": 2,
      "note": 104,
      "start": 21.2643,
      "duration": 0.1228,
      "velocity": 86,
      "chip": "ym2612"
    },
    {
      "channel": 1,
      "note": 64,
      "start": 21.5136,
      "duration": 0.1221,
      "velocity": 95,
      "chip": "ym2612"
    },
    {
      "channel": 2,
      "note": 47,
      "start": 21.5177,
      "duration": 0.1183,
      "velocity": 102,
      "chip": "ym2612"
    },
    {
      "channel": 0,
      "note": 80,
      "start": 21.7636,
      "duration": 0.1224,
      "velocity": 97,
      "chip": "ym2612"
    },
    {
      "channel": 1,
      "note": 59,
      "start": 21.7643,
      "duration": 0.1223,
      "velocity": 95,
      "chip": "ym2612"
    },
    {
      "channel": 2,
      "note": 64,
      "start": 21.7684,
      "duration": 0.0115,
      "velocity": 122,
      "chip": "ym2612"
    },
    {
      "channel": 0,
      "note": 82,
      "start": 21.8863,
      "duration": 0.127,
      "velocity": 97,
      "chip": "ym2612"
    },
    {
      "channel": 0,
      "note": 83,
      "start": 22.0136,
      "duration": 0.2497,
      "velocity": 97,
      "chip": "ym2612"
    },
    {
      "channel": 1,
      "note": 52,
      "start": 22.0143,
      "duration": 0.1215,
      "velocity": 95,
      "chip": "ym2612"
    },
    {
      "channel": 2,
      "note": 40,
      "start": 22.0186,
      "duration": 0.1173,
      "velocity": 105,
      "chip": "ym2612"
    },
    {
      "channel": 0,
      "note": 82,
      "start": 22.2636,
      "duration": 0.2496,
      "velocity": 97,
      "chip": "ym2612"
    },
    {
      "channel": 1,
      "note": 59,
      "start": 22.2643,
      "duration": 0.1215,
      "velocity": 95,
      "chip": "ym2612"
    },
    {
      "channel": 2,
      "note": 104,
      "start": 22.2684,
      "duration": 0.1176,
      "velocity": 86,
      "chip": "ym2612"
    },
    {
      "channel": 0,
      "note": 78,
      "start": 22.5136,
      "duration": 0.2496,
      "velocity": 97,
      "chip": "ym2612"
    },
    {
      "channel": 1,
      "note": 64,
      "start": 22.5143,
      "duration": 0.1225,
      "velocity": 95,
      "chip": "ym2612"
    },
    {
      "channel": 2,
      "note": 104,
      "start": 22.5149,
      "duration": 0.1221,
      "velocity": 86,
      "chip": "ym2612"
    },
    {
      "channel": 0,
      "note": 80,
      "start": 22.7636,
      "duration": 1.2497,
      "velocity": 97,
      "chip": "ym2612"
    },
    {
      "channel": 1,
      "note": 52,
      "start": 22.7643,
      "duration": 0.1226,
      "velocity": 95,
      "chip": "ym2612"
    },
    {
      "channel": 2,
      "note": 40,
      "start": 22.7684,
      "duration": 0.1186,
      "velocity": 105,
      "chip": "ym2612"
    },
    {
      "channel": 2,
      "note": 104,
      "start": 23.0173,
      "duration": 0.1195,
      "velocity": 86,
      "chip": "ym2612"
    },
    {
      "channel": 1,
      "note": 59,
      "start": 23.2636,
      "duration": 0.1232,
      "velocity": 95,
      "chip": "ym2612"
    },
    {
      "channel": 2,
      "note": 104,
      "start": 23.2643,
      "duration": 0.1227,
      "velocity": 86,
      "chip": "ym2612"
    },
    {
      "channel": 1,
      "note": 64,
      "start": 23.5136,
      "duration": 0.1221,
      "velocity": 95,
      "chip": "ym2612"
    },
    {
      "channel": 2,
      "note": 40,
      "start": 23.5177,
      "duration": 0.1183,
      "velocity": 105,
      "chip": "ym2612"
    },
    {
      "channel": 1,
      "note": 59,
      "start": 23.7636,
      "duration": 0.1222,
      "velocity": 95,
      "chip": "ym2612"
    },
    {
      "channel": 2,
      "note": 37,
      "start": 23.7677,
      "duration": 0.2025,
      "velocity": 86,
      "chip": "ym2612"
    },
    {
      "channel": 0,
      "note": 80,
      "start": 24.0134,
      "duration": 0.4998,
      "velocity": 97,
      "chip": "ym2612"
    },
    {
      "channel": 1,
      "note": 51,
      "start": 24.0142,
      "duration": 0.1198,
      "velocity": 95,
      "chip": "ym2612"
    },
    {
      "channel": 2,
      "note": 40,
      "start": 24.0186,
      "duration": 0.1157,
      "velocity": 105,
      "chip": "ym2612"
    },
    {
      "channel": 3,
      "note": 51,
      "start": 24.0193,
      "duration": 0.2487,
      "velocity": 102,
      "chip": "ym2612"
    },
    {
      "channel": 1,
      "note": 58,
      "start": 24.2636,
      "duration": 0.1205,
      "velocity": 95,
      "chip": "ym2612"
    },
    {
      "channel": 2,
      "note": 104,
      "start": 24.2678,
      "duration": 0.1165,
      "velocity": 86,
      "chip": "ym2612"
    },
    {
      "channel": 3,
      "note": 58,
      "start": 24.2685,
      "duration": 0.2468,
      "velocity": 102,
      "chip": "ym2612"
    },
    {
      "channel": 0,
      "note": 82,
      "start": 24.5136,
      "duration": 0.2496,
      "velocity": 97,
      "chip": "ym2612"
    },
    {
      "channel": 1,
      "note": 63,
      "start": 24.5143,
      "duration": 0.1198,
      "velocity": 95,
      "chip": "ym2612"
    },
    {
      "channel": 2,
      "note": 104,
      "start": 24.5149,
      "duration": 0.1193,
      "velocity": 86,
      "chip": "ym2612"
    },
    {
      "channel": 3,
      "note": 63,
      "start": 24.5156,
      "duration": 0.2531,
      "velocity": 102,
      "chip": "ym2612"
    },
    {
      "channel": 0,
      "note": 78,
      "start": 24.7636,
      "duration": 0.4996,
      "velocity": 97,
      "chip": "ym2612"
    },
    {
      "channel": 1,
      "note": 51,
      "start": 24.7643,
      "duration": 0.12,
      "velocity": 95,
      "chip": "ym2612"
    },
    {
      "channel": 2,
      "note": 40,
      "start": 24.7684,
      "duration": 0.1161,
      "velocity": 105,
      "chip": "ym2612"
    },
    {
      "channel": 3,
      "note": 66,
      "start": 24.7692,
      "duration": 1.2493,
      "velocity": 102,
      "chip": "ym2612"
    },
    {
      "channel": 2,
      "note": 104,
      "start": 25.0173,
      "duration": 0.1169,
      "velocity": 86,
      "chip": "ym2612"
    },
    {
      "channel": 0,
      "note": 73,
      "start": 25.2636,
      "duration": 1.7495,
      "velocity": 97,
      "chip": "ym2612"
    },
    {
      "channel": 1,
      "note": 58,
      "start": 25.2643,
      "duration": 0.1225,
      "velocity": 95,
      "chip": "ym2612"
    },
    {
      "channel": 2,
      "note": 104,
      "start": 25.2649,
      "duration": 0.1221,
      "velocity": 86,
      "chip": "ym2612"
    },
    {
      "channel": 1,
      "note": 63,
      "start": 25.5136,
      "duration": 0.1221,
      "velocity": 95,
      "chip": "ym2612"
    },
    {
      "channel": 2,
      "note": 47,
      "start": 25.5177,
      "duration": 0.1183,
      "velocity": 102,
      "chip": "ym2612"
    },
    {
      "channel": 1,
      "note": 58,
      "start": 25.7636,
      "duration": 0.1222,
      "velocity": 95,
      "chip": "ym2612"
    },
    {
      "channel": 2,
      "note": 64,
      "start": 25.7678,
      "duration": 0.0061,
      "velocity": 122,
      "chip": "ym2612"
    },
    {
      "channel": 1,
      "note": 51,
      "start": 26.0138,
      "duration": 0.122,
      "velocity": 95,
      "chip": "ym2612"
    },
    {
      "channel": 2,
      "note": 40,
      "start": 26.0181,
      "duration": 0.1178,
      "velocity": 105,
      "chip": "ym2612"
    },
    {
      "channel": 1,
      "note": 58,
      "start": 26.2636,
      "duration": 0.1222,
      "velocity": 95,
      "chip": "ym2612"
    },
    {
      "channel": 2,
      "note": 104,
      "start": 26.2678,
      "duration": 0.1183,
      "velocity": 86,
      "chip": "ym2612"
    },
    {
      "channel": 1,
      "note": 63,
      "start": 26.5136,
      "duration": 0.1232,
      "velocity": 95,
      "chip": "ym2612"
    },
    {
      "channel": 2,
      "note": 104,
      "start": 26.5143,
      "duration": 0.1227,
      "velocity": 86,
      "chip": "ym2612"
    },
    {
      "channel": 1,
      "note": 51,
      "start": 26.7636,
      "duration": 0.1233,
      "velocity": 95,
      "chip": "ym2612"
    },
    {
      "channel": 2,
      "note": 40,
      "start": 26.7677,
      "duration": 0.1194,
      "velocity": 105,
      "chip": "ym2612"
    },
    {
      "channel": 2,
      "note": 104,
      "start": 27.0174,
      "duration": 0.1194,
      "velocity": 86,
      "chip": "ym2612"
    },
    {
      "channel": 1,
      "note": 58,
      "start": 27.2636,
      "duration": 0.1232,
      "velocity": 95,
      "chip": "ym2612"
    },
    {
      "channel": 2,
      "note": 104,
      "start": 27.2643,
      "duration": 0.1227,
      "velocity": 86,
      "chip": "ym2612"
    },
    {
      "channel": 1,
      "note": 63,
      "start": 27.5136,
      "duration": 0.1221,
      "velocity": 95,
      "chip": "ym2612"
    },
    {
      "channel": 2,
      "note": 40,
      "start": 27.5177,
      "duration": 0.1183,
      "velocity": 105,
      "chip": "ym2612"
    },
    {
      "channel": 1,
      "note": 58,
      "start": 27.7636,
      "duration": 0.1222,
      "velocity": 95,
      "chip": "ym2612"
    },
    {
      "channel": 2,
      "note": 37,
      "start": 27.7677,
      "duration": 0.2025,
      "velocity": 86,
      "chip": "ym2612"
    },
    {
      "channel": 1,
      "note": 52,
      "start": 28.0139,
      "duration": 0.1202,
      "velocity": 95,
      "chip": "ym2612"
    },
    {
      "channel": 2,
      "note": 40,
      "start": 28.0183,
      "duration": 0.116,
      "velocity": 105,
      "chip": "ym2612"
    },
    {
      "channel": 3,
      "note": 52,
      "start": 28.019,
      "duration": 0.249,
      "velocity": 102,
      "chip": "ym2612"
    },
    {
      "channel": 1,
      "note": 59,
      "start": 28.2636,
      "duration": 0.1204,
      "velocity": 95,
      "chip": "ym2612"
    },
    {
      "channel": 2,
      "note": 104,
      "start": 28.2677,
      "duration": 0.1166,
      "velocity": 86,
      "chip": "ym2612"
    },
    {
      "channel": 3,
      "note": 59,
      "start": 28.2685,
      "duration": 0.2461,
      "velocity": 102,
      "chip": "ym2612"
    },
    {
      "channel": 1,
      "note": 64,
      "start": 28.5136,
      "duration": 0.1204,
      "velocity": 95,
      "chip": "ym2612"
    },
    {
      "channel": 2,
      "note": 104,
      "start": 28.5143,
      "duration": 0.12,
      "velocity": 86,
      "chip": "ym2612"
    },
    {
      "channel": 3,
      "note": 66,
      "start": 28.5149,
      "duration": 0.2531,
      "velocity": 102,
      "chip": "ym2612"
    },
    {
      "channel": 1,
      "note": 52,
      "start": 28.7636,
      "duration": 0.1207,
      "velocity": 95,
      "chip": "ym2612"
    },
    {
      "channel": 2,
      "note": 40,
      "start": 28.7677,
      "duration": 0.1168,
      "velocity": 105,
      "chip": "ym2612"
    },
    {
      "channel": 3,
      "note": 71,
      "start": 28.7685,
      "duration": 1.2505,
      "velocity": 102,
      "chip": "ym2612"
    },
    {
      "channel": 2,
      "note": 104,
      "start": 29.0173,
      "duration": 0.1168,
      "velocity": 86,
      "chip": "ym2612"
    },
    {
      "channel": 1,
      "note": 59,
      "start": 29.2636,
      "duration": 0.1232,
      "velocity": 95,
      "chip": "ym2612"
    },
    {
      "channel": 2,
      "note": 104,
      "start": 29.2643,
      "duration": 0.1228,
      "velocity": 86,
      "chip": "ym2612"
    },
    {
      "channel": 1,
      "note": 64,
      "start": 29.5136,
      "duration": 0.1221,
      "velocity": 95,
      "chip": "ym2612"
    },
    {
      "channel": 2,
      "note": 47,
      "start": 29.5177,
      "duration": 0.1183,
      "velocity": 102,
      "chip": "ym2612"
    },
    {
      "channel": 0,
      "note": 80,
      "start": 29.7636,
      "duration": 0.1224,
      "velocity": 97,
      "chip": "ym2612"
    },
    {
      "channel": 1,
      "note": 59,
      "start": 29.7643,
      "duration": 0.1223,
      "velocity": 95,
      "chip": "ym2612"
    },
    {
      "channel": 2,
      "note": 64,
      "start": 29.7684,
      "duration": 0.0062,
      "velocity": 122,
      "chip": "ym2612"
    },
    {
      "channel": 0,
      "note": 82,
      "start": 29.8863,
      "duration": 0.127,
      "velocity": 97,
      "chip": "ym2612"
    },
    {
      "channel": 0,
      "note": 83,
      "start": 30.0136,
      "duration": 0.2495,
      "velocity": 97,
      "chip": "ym2612"
    },
    {
      "channel": 1,
      "note": 52,
      "start": 30.0143,
      "duration": 0.1215,
      "velocity": 95,
      "chip": "ym2612"
    },
    {
      "channel": 2,
      "note": 40,
      "start": 30.0186,
      "duration": 0.1173,
      "velocity": 105,
      "chip": "ym2612"
    },
    {
      "channel": 0,
      "note": 82,
      "start": 30.2636,
      "duration": 0.2496,
      "velocity": 97,
      "chip": "ym2612"
    },
    {
      "channel": 1,
      "note": 59,
      "start": 30.2643,
      "duration": 0.1215,
      "velocity": 95,
      "chip": "ym2612"
    },
    {
      "channel": 2,
      "note": 104,
      "start": 30.2684,
      "duration": 0.1176,
      "velocity": 86,
      "chip": "ym2612"
    },
    {
      "channel": 0,
      "note": 78,
      "start": 30.5136,
      "duration": 0.2496,
      "velocity": 97,
      "chip": "ym2612"
    },
    {
      "channel": 1,
      "note": 64,
      "start": 30.5143,
      "duration": 0.1225,
      "velocity": 95,
      "chip": "ym2612"
    },
    {
      "channel": 2,
      "note": 104,
      "start": 30.5149,
      "duration": 0.1221,
      "velocity": 86,
      "chip": "ym2612"
    },
    {
      "channel": 0,
      "note": 80,
      "start": 30.7636,
      "duration": 1.2497,
      "velocity": 97,
      "chip": "ym2612"
    },
    {
      "channel": 1,
      "note": 52,
      "start": 30.7643,
      "duration": 0.1226,
      "velocity": 95,
      "chip": "ym2612"
    },
    {
      "channel": 2,
      "note": 40,
      "start": 30.7684,
      "duration": 0.1186,
      "velocity": 105,
      "chip": "ym2612"
    },
    {
      "channel": 2,
      "note": 104,
      "start": 31.0173,
      "duration": 0.1126,
      "velocity": 86,
      "chip": "ym2612"
    },
    {
      "channel": 1,
      "note": 59,
      "start": 31.2636,
      "duration": 0.1162,
      "velocity": 95,
      "chip": "ym2612"
    },
    {
      "channel": 2,
      "note": 104,
      "start": 31.2643,
      "duration": 0.1158,
      "velocity": 86,
      "chip": "ym2612"
    },
    {
      "channel": 1,
      "note": 64,
      "start": 31.5136,
      "duration": 0.1162,
      "velocity": 95,
      "chip": "ym2612"
    },
    {
      "channel": 2,
      "note": 40,
      "start": 31.5177,
      "duration": 0.1123,
      "velocity": 105,
      "chip": "ym2612"
    },
    {
      "channel": 1,
      "note": 59,
      "start": 31.7636,
      "duration": 0.1162,
      "velocity": 95,
      "chip": "ym2612"
    },
    {
      "channel": 2,
      "note": 37,
      "start": 31.7677,
      "duration": 0.1956,
      "velocity": 86,
      "chip": "ym2612"
    },
    {
      "channel": 0,
      "note": 85,
      "start": 32.0136,
      "duration": 0.2496,
      "velocity": 97,
      "chip": "ym2612"
    },
    {
      "channel": 1,
      "note": 57,
      "start": 32.0143,
      "duration": 0.1155,
      "velocity": 95,
      "chip": "ym2612"
    },
    {
      "channel": 2,
      "note": 47,
      "start": 32.0188,
      "duration": 0.1112,
      "velocity": 102,
      "chip": "ym2612"
    },
    {
      "channel": 3,
      "note": 57,
      "start": 32.0196,
      "duration": 0.7492,
      "velocity": 102,
      "chip": "ym2612"
    },
    {
      "channel": 0,
      "note": 87,
      "start": 32.2636,
      "duration": 0.2496,
      "velocity": 97,
      "chip": "ym2612"
    },
    {
      "channel": 1,
      "note": 64,
      "start": 32.2643,
      "duration": 0.1155,
      "velocity": 95,
      "chip": "ym2612"
    },
    {
      "channel": 2,
      "note": 104,
      "start": 32.2684,
      "duration": 0.1116,
      "velocity": 86,
      "chip": "ym2612"
    },
    {
      "channel": 0,
      "note": 88,
      "start": 32.5136,
      "duration": 0.2497,
      "velocity": 97,
      "chip": "ym2612"
    },
    {
      "channel": 1,
      "note": 69,
      "start": 32.5143,
      "duration": 0.1155,
      "velocity": 95,
      "chip": "ym2612"
    },
    {
      "channel": 2,
      "note": 104,
      "start": 32.5149,
      "duration": 0.1151,
      "velocity": 86,
      "chip": "ym2612"
    },
    {
      "channel": 0,
      "note": 87,
      "start": 32.7636,
      "duration": 0.4996,
      "velocity": 97,
      "chip": "ym2612"
    },
    {
      "channel": 1,
      "note": 59,
      "start": 32.7643,
      "duration": 0.1155,
      "velocity": 95,
      "chip": "ym2612"
    },
    {
      "channel": 2,
      "note": 47,
      "start": 32.7684,
      "duration": 0.1116,
      "velocity": 102,
      "chip": "ym2612"
    },
    {
      "channel": 3,
      "note": 59,
      "start": 32.7692,
      "duration": 0.9996,
      "velocity": 102,
      "chip": "ym2612"
    },
    {
      "channel": 2,
      "note": 104,
      "start": 33.0173,
      "duration": 0.1126,
      "velocity": 86,
      "chip": "ym2612"
    },
    {
      "channel": 0,
      "note": 83,
      "start": 33.2636,
      "duration": 0.4997,
      "velocity": 97,
      "chip": "ym2612"
    },
    {
      "channel": 1,
      "note": 66,
      "start": 33.2643,
      "duration": 0.1155,
      "velocity": 95,
      "chip": "ym2612"
    },
    {
      "channel": 2,
      "note": 104,
      "start": 33.2649,
      "duration": 0.1151,
      "velocity": 86,
      "chip": "ym2612"
    },
    {
      "channel": 1,
      "note": 71,
      "start": 33.5136,
      "duration": 0.1162,
      "velocity": 95,
      "chip": "ym2612"
    },
    {
      "channel": 2,
      "note": 47,
      "start": 33.5178,
      "duration": 0.2469,
      "velocity": 102,
      "chip": "ym2612"
    },
    {
      "channel": 0,
      "note": 81,
      "start": 33.7636,
      "duration": 0.2495,
      "velocity": 97,
      "chip": "ym2612"
    },
    {
      "channel": 1,
      "note": 50,
      "start": 33.7643,
      "duration": 0.1155,
      "velocity": 95,
      "chip": "ym2612"
    },
    {
      "channel": 2,
      "note": 81,
      "start": 33.7684,
      "duration": 0.1116,
      "velocity": 86,
      "chip": "ym2612"
    },
    {
      "channel": 3,
      "note": 50,
      "start": 33.7692,
      "duration": 0.9667,
      "velocity": 102,
      "chip": "ym2612"
    },
    {
      "channel": 2,
      "note": 47,
      "start": 34.0179,
      "duration": 0.112,
      "velocity": 102,
      "chip": "ym2612"
    },
    {
      "channel": 0,
      "note": 83,
      "start": 34.2636,
      "duration": 0.2496,
      "velocity": 97,
      "chip": "ym2612"
    },
    {
      "channel": 1,
      "note": 57,
      "start": 34.2643,
      "duration": 0.1155,
      "velocity": 95,
      "chip": "ym2612"
    },
    {
      "channel": 2,
      "note": 104,
      "start": 34.2684,
      "duration": 0.1116,
      "velocity": 86,
      "chip": "ym2612"
    },
    {
      "channel": 0,
      "note": 85,
      "start": 34.5136,
      "duration": 0.2497,
      "velocity": 97,
      "chip": "ym2612"
    },
    {
      "channel": 1,
      "note": 62,
      "start": 34.5143,
      "duration": 0.1155,
      "velocity": 95,
      "chip": "ym2612"
    },
    {
      "channel": 2,
      "note": 104,
      "start": 34.5149,
      "duration": 0.1151,
      "velocity": 86,
      "chip": "ym2612"
    },
    {
      "channel": 0,
      "note": 83,
      "start": 34.7636,
      "duration": 0.4996,
      "velocity": 97,
      "chip": "ym2612"
    },
    {
      "channel": 1,
      "note": 52,
      "start": 34.7643,
      "duration": 0.1155,
      "velocity": 95,
      "chip": "ym2612"
    },
    {
      "channel": 2,
      "note": 47,
      "start": 34.7684,
      "duration": 0.1116,
      "velocity": 102,
      "chip": "ym2612"
    },
    {
      "channel": 3,
      "note": 52,
      "start": 34.7692,
      "duration": 0.9275,
      "velocity": 102,
      "chip": "ym2612"
    },
    {
      "channel": 2,
      "note": 104,
      "start": 35.0173,
      "duration": 0.1126,
      "velocity": 86,
      "chip": "ym2612"
    },
    {
      "channel": 0,
      "note": 78,
      "start": 35.2636,
      "duration": 0.489,
      "velocity": 97,
      "chip": "ym2612"
    },
    {
      "channel": 1,
      "note": 59,
      "start": 35.2643,
      "duration": 0.1155,
      "velocity": 95,
      "chip": "ym2612"
    },
    {
      "channel": 2,
      "note": 104,
      "start": 35.2649,
      "duration": 0.1151,
      "velocity": 86,
      "chip": "ym2612"
    },
    {
      "channel": 1,
      "note": 64,
      "start": 35.5029,
      "duration": 0.127,
      "velocity": 95,
      "chip": "ym2612"
    },
    {
      "channel": 2,
      "note": 47,
      "start": 35.5069,
      "duration": 0.2471,
      "velocity": 102,
      "chip": "ym2612"
    },
    {
      "channel": 0,
      "note": 80,
      "start": 35.7529,
      "duration": 3.4161,
      "velocity": 97,
      "chip": "ym2612"
    },
    {
      "channel": 1,
      "note": 54,
      "start": 35.7536,
      "duration": 0.1262,
      "velocity": 95,
      "chip": "ym2612"
    },
    {
      "channel": 2,
      "note": 81,
      "start": 35.7578,
      "duration": 0.1223,
      "velocity": 86,
      "chip": "ym2612"
    },
    {
      "channel": 3,
      "note": 54,
      "start": 35.7585,
      "duration": 1.4954,
      "velocity": 102,
      "chip": "ym2612"
    },
    {
      "channel": 2,
      "note": 47,
      "start": 36.0051,
      "duration": 0.1248,
      "velocity": 102,
      "chip": "ym2612"
    },
    {
      "channel": 1,
      "note": 61,
      "start": 36.2512,
      "duration": 0.1286,
      "velocity": 95,
      "chip": "ym2612"
    },
    {
      "channel": 2,
      "note": 104,
      "start": 36.2553,
      "duration": 0.2413,
      "velocity": 86,
      "chip": "ym2612"
    },
    {
      "channel": 1,
      "note": 66,
      "start": 36.503,
      "duration": 0.1268,
      "velocity": 95,
      "chip": "ym2612"
    },
    {
      "channel": 2,
      "note": 104,
      "start": 36.5036,
      "duration": 0.2429,
      "velocity": 86,
      "chip": "ym2612"
    },
    {
      "channel": 1,
      "note": 54,
      "start": 36.7531,
      "duration": 0.1267,
      "velocity": 95,
      "chip": "ym2612"
    },
    {
      "channel": 2,
      "note": 47,
      "start": 36.7572,
      "duration": 0.1228,
      "velocity": 102,
      "chip": "ym2612"
    },
    {
      "channel": 2,
      "note": 104,
      "start": 37.0063,
      "duration": 0.1236,
      "velocity": 86,
      "chip": "ym2612"
    },
    {
      "channel": 1,
      "note": 61,
      "start": 37.2529,
      "duration": 0.1269,
      "velocity": 95,
      "chip": "ym2612"
    },
    {
      "channel": 2,
      "note": 104,
      "start": 37.2535,
      "duration": 0.1265,
      "velocity": 86,
      "chip": "ym2612"
    },
    {
      "channel": 3,
      "note": 61,
      "start": 37.2543,
      "duration": 0.2513,
      "velocity": 102,
      "chip": "ym2612"
    },
    {
      "channel": 1,
      "note": 66,
      "start": 37.5012,
      "duration": 0.1287,
      "velocity": 95,
      "chip": "ym2612"
    },
    {
      "channel": 2,
      "note": 47,
      "start": 37.5052,
      "duration": 0.1248,
      "velocity": 102,
      "chip": "ym2612"
    },
    {
      "channel": 3,
      "note": 68,
      "start": 37.506,
      "duration": 0.2499,
      "velocity": 102,
      "chip": "ym2612"
    },
    {
      "channel": 1,
      "note": 61,
      "start": 37.7514,
      "duration": 0.1284,
      "velocity": 95,
      "chip": "ym2612"
    },
    {
      "channel": 2,
      "note": 64,
      "start": 37.7555,
      "duration": 0.0077,
      "velocity": 122,
      "chip": "ym2612"
    },
    {
      "channel": 3,
      "note": 66,
      "start": 37.7563,
      "duration": 2.2527,
      "velocity": 102,
      "chip": "ym2612"
    },
    {
      "channel": 1,
      "note": 50,
      "start": 38.0013,
      "duration": 0.1285,
      "velocity": 95,
      "chip": "ym2612"
    },
    {
      "channel": 2,
      "note": 47,
      "start": 38.0055,
      "duration": 0.1246,
      "velocity": 102,
      "chip": "ym2612"
    },
    {
      "channel": 1,
      "note": 57,
      "start": 38.2512,
      "duration": 0.1287,
      "velocity": 95,
      "chip": "ym2612"
    },
    {
      "channel": 2,
      "note": 104,
      "start": 38.2553,
      "duration": 0.1247,
      "velocity": 86,
      "chip": "ym2612"
    },
    {
      "channel": 1,
      "note": 62,
      "start": 38.5029,
      "duration": 0.127,
      "velocity": 95,
      "chip": "ym2612"
    },
    {
      "channel": 2,
      "note": 104,
      "start": 38.5035,
      "duration": 0.1265,
      "velocity": 86,
      "chip": "ym2612"
    },
    {
      "channel": 1,
      "note": 50,
      "start": 38.753,
      "duration": 0.1268,
      "velocity": 95,
      "chip": "ym2612"
    },
    {
      "channel": 2,
      "note": 47,
      "start": 38.7571,
      "duration": 0.1229,
      "velocity": 102,
      "chip": "ym2612"
    },
    {
      "channel": 2,
      "note": 104,
      "start": 39.0063,
      "duration": 0.1236,
      "velocity": 86,
      "chip": "ym2612"
    },
    {
      "channel": 0,
      "note": 78,
      "start": 39.2529,
      "duration": 0.2506,
      "velocity": 97,
      "chip": "ym2612"
    },
    {
      "channel": 1,
      "note": 57,
      "start": 39.2536,
      "duration": 0.1263,
      "velocity": 95,
      "chip": "ym2612"
    },
    {
      "channel": 2,
      "note": 104,
      "start": 39.2542,
      "duration": 0.1258,
      "velocity": 86,
      "chip": "ym2612"
    },
    {
      "channel": 0,
      "note": 83,
      "start": 39.5038,
      "duration": 0.2497,
      "velocity": 97,
      "chip": "ym2612"
    },
    {
      "channel": 1,
      "note": 62,
      "start": 39.5045,
      "duration": 0.1253,
      "velocity": 95,
      "chip": "ym2612"
    },
    {
      "channel": 2,
      "note": 37,
      "start": 39.5086,
      "duration": 0.2283,
      "velocity": 86,
      "chip": "ym2612"
    },
    {
      "channel": 0,
      "note": 88,
      "start": 39.7539,
      "duration": 0.2496,
      "velocity": 97,
      "chip": "ym2612"
    },
    {
      "channel": 1,
      "note": 57,
      "start": 39.7547,
      "duration": 0.1251,
      "velocity": 95,
      "chip": "ym2612"
    },
    {
      "channel": 0,
      "note": 85,
      "start": 40.0038,
      "duration": 2.4985,
      "velocity": 97,
      "chip": "ym2612"
    },
    {
      "channel": 1,
      "note": 54,
      "start": 40.0046,
      "duration": 0.1253,
      "velocity": 95,
      "chip": "ym2612"
    },
    {
      "channel": 2,
      "note": 47,
      "start": 40.0087,
      "duration": 0.1214,
      "velocity": 102,
      "chip": "ym2612"
    },
    {
      "channel": 3,
      "note": 54,
      "start": 40.0094,
      "duration": 1.2445,
      "velocity": 102,
      "chip": "ym2612"
    },
    {
      "channel": 1,
      "note": 61,
      "start": 40.2512,
      "duration": 0.1287,
      "velocity": 95,
      "chip": "ym2612"
    },
    {
      "channel": 2,
      "note": 104,
      "start": 40.2553,
      "duration": 0.1247,
      "velocity": 86,
      "chip": "ym2612"
    },
    {
      "channel": 1,
      "note": 66,
      "start": 40.5012,
      "duration": 0.1287,
      "velocity": 95,
      "chip": "ym2612"
    },
    {
      "channel": 2,
      "note": 104,
      "start": 40.5018,
      "duration": 0.1282,
      "velocity": 86,
      "chip": "ym2612"
    },
    {
      "channel": 1,
      "note": 54,
      "start": 40.7531,
      "duration": 0.1267,
      "velocity": 95,
      "chip": "ym2612"
    },
    {
      "channel": 2,
      "note": 47,
      "start": 40.7572,
      "duration": 0.1228,
      "velocity": 102,
      "chip": "ym2612"
    },
    {
      "channel": 2,
      "note": 104,
      "start": 41.0062,
      "duration": 0.1237,
      "velocity": 86,
      "chip": "ym2612"
    },
    {
      "channel": 1,
      "note": 61,
      "start": 41.2529,
      "duration": 0.127,
      "velocity": 95,
      "chip": "ym2612"
    },
    {
      "channel": 2,
      "note": 104,
      "start": 41.2535,
      "duration": 0.1265,
      "velocity": 86,
      "chip": "ym2612"
    },
    {
      "channel": 3,
      "note": 61,
      "start": 41.2543,
      "duration": 0.2513,
      "velocity": 102,
      "chip": "ym2612"
    },
    {
      "channel": 1,
      "note": 66,
      "start": 41.5012,
      "duration": 0.1287,
      "velocity": 95,
      "chip": "ym2612"
    },
    {
      "channel": 2,
      "note": 47,
      "start": 41.5053,
      "duration": 0.2466,
      "velocity": 102,
      "chip": "ym2612"
    },
    {
      "channel": 3,
      "note": 68,
      "start": 41.506,
      "duration": 0.2499,
      "velocity": 102,
      "chip": "ym2612"
    },
    {
      "channel": 1,
      "note": 61,
      "start": 41.7515,
      "duration": 0.1284,
      "velocity": 95,
      "chip": "ym2612"
    },
    {
      "channel": 2,
      "note": 81,
      "start": 41.7555,
      "duration": 0.1245,
      "velocity": 86,
      "chip": "ym2612"
    },
    {
      "channel": 3,
      "note": 66,
      "start": 41.7563,
      "duration": 2.2527,
      "velocity": 102,
      "chip": "ym2612"
    },
    {
      "channel": 1,
      "note": 50,
      "start": 42.0013,
      "duration": 0.1285,
      "velocity": 95,
      "chip": "ym2612"
    },
    {
      "channel": 2,
      "note": 47,
      "start": 42.0054,
      "duration": 0.1246,
      "velocity": 102,
      "chip": "ym2612"
    },
    {
      "channel": 1,
      "note": 57,
      "start": 42.2512,
      "duration": 0.1287,
      "velocity": 95,
      "chip": "ym2612"
    },
    {
      "channel": 2,
      "note": 104,
      "start": 42.2553,
      "duration": 0.1247,
      "velocity": 86,
      "chip": "ym2612"
    },
    {
      "channel": 1,
      "note": 62,
      "start": 42.503,
      "duration": 0.1268,
      "velocity": 95,
      "chip": "ym2612"
    },
    {
      "channel": 2,
      "note": 104,
      "start": 42.5036,
      "duration": 0.1265,
      "velocity": 86,
      "chip": "ym2612"
    },
    {
      "channel": 1,
      "note": 50,
      "start": 42.753,
      "duration": 0.1268,
      "velocity": 95,
      "chip": "ym2612"
    },
    {
      "channel": 2,
      "note": 47,
      "start": 42.7571,
      "duration": 0.1229,
      "velocity": 102,
      "chip": "ym2612"
    },
    {
      "channel": 2,
      "note": 104,
      "start": 43.0063,
      "duration": 0.1236,
      "velocity": 86,
      "chip": "ym2612"
    },
    {
      "channel": 0,
      "note": 78,
      "start": 43.2529,
      "duration": 0.2506,
      "velocity": 97,
      "chip": "ym2612"
    },
    {
      "channel": 1,
      "note": 57,
      "start": 43.2536,
      "duration": 0.1263,
      "velocity": 95,
      "chip": "ym2612"
    },
    {
      "channel": 2,
      "note": 104,
      "start": 43.2542,
      "duration": 0.1258,
      "velocity": 86,
      "chip": "ym2612"
    },
    {
      "channel": 0,
      "note": 83,
      "start": 43.5038,
      "duration": 0.2497,
      "velocity": 97,
      "chip": "ym2612"
    },
    {
      "channel": 1,
      "note": 62,
      "start": 43.5046,
      "duration": 0.1253,
      "velocity": 95,
      "chip": "ym2612"
    },
    {
      "channel": 2,
      "note": 38,
      "start": 43.5086,
      "duration": 0.2213,
      "velocity": 86,
      "chip": "ym2612"
    },
    {
      "channel": 0,
      "note": 88,
      "start": 43.7539,
      "duration": 0.2496,
      "velocity": 97,
      "chip": "ym2612"
    },
    {
      "channel": 1,
      "note": 57,
      "start": 43.7546,
      "duration": 0.1252,
      "velocity": 95,
      "chip": "ym2612"
    },
    {
      "channel": 2,
      "note": 37,
      "start": 43.756,
      "duration": 0.2239,
      "velocity": 86,
      "chip": "ym2612"
    },
    {
      "channel": 0,
      "note": 85,
      "start": 44.0038,
      "duration": 1.0426,
      "velocity": 97,
      "chip": "ym2612"
    },
    {
      "channel": 1,
      "note": 54,
      "start": 44.0046,
      "duration": 0.1253,
      "velocity": 95,
      "chip": "ym2612"
    },
    {
      "channel": 2,
      "note": 47,
      "start": 44.0087,
      "duration": 0.9546,
      "velocity": 102,
      "chip": "ym2612"
    },
    {
      "channel": 1,
      "note": 61,
      "start": 44.1303,
      "duration": 0.1233,
      "velocity": 95,
      "chip": "ym2612"
    },
    {
      "channel": 1,
      "note": 66,
      "start": 44.2539,
      "duration": 0.4986,
      "velocity": 95,
      "chip": "ym2612"
    },
    {
      "channel": 2,
      "note": 35,
      "start": 45.0063,
      "duration": 0.0972,
      "velocity": 86,
      "chip": "ym2612"
    },
    {
      "channel": 2,
      "note": 35,
      "start": 45.1302,
      "duration": 0.2234,
      "velocity": 86,
      "chip": "ym2612"
    },
    {
      "channel": 2,
      "note": 35,
      "start": 45.3802,
      "duration": 0.2233,
      "velocity": 86,
      "chip": "ym2612"
    },
    {
      "channel": 2,
      "note": 92,
      "start": 45.6337,
      "duration": 0.0962,
      "velocity": 127,
      "chip": "ym2612"
    },
    {
      "channel": 2,
      "note": 92,
      "start": 45.7539,
      "duration": 0.0996,
      "velocity": 127,
      "chip": "ym2612"
    },
    {
      "channel": 1,
      "note": 54,
      "start": 46.012,
      "duration": 0.1179,
      "velocity": 95,
      "chip": "ym2612"
    },
    {
      "channel": 2,
      "note": 49,
      "start": 46.017,
      "duration": 0.2346,
      "velocity": 102,
      "chip": "ym2612"
    },
    {
      "channel": 3,
      "note": 54,
      "start": 46.0215,
      "duration": 1.0116,
      "velocity": 102,
      "chip": "ym2612"
    },
    {
      "channel": 1,
      "note": 61,
      "start": 46.2512,
      "duration": 0.1287,
      "velocity": 95,
      "chip": "ym2612"
    },
    {
      "channel": 2,
      "note": 104,
      "start": 46.2553,
      "duration": 0.2463,
      "velocity": 86,
      "chip": "ym2612"
    },
    {
      "channel": 1,
      "note": 66,
      "start": 46.5012,
      "duration": 0.1287,
      "velocity": 95,
      "chip": "ym2612"
    },
    {
      "channel": 2,
      "note": 104,
      "start": 46.5018,
      "duration": 0.2518,
      "velocity": 86,
      "chip": "ym2612"
    },
    {
      "channel": 1,
      "note": 54,
      "start": 46.7531,
      "duration": 0.1267,
      "velocity": 95,
      "chip": "ym2612"
    },
    {
      "channel": 2,
      "note": 49,
      "start": 46.7572,
      "duration": 0.2453,
      "velocity": 102,
      "chip": "ym2612"
    },
    {
      "channel": 2,
      "note": 104,
      "start": 47.0062,
      "duration": 0.0269,
      "velocity": 86,
      "chip": "ym2612"
    }
  ]
}