{
  "track_name": "14 - Center",
  "duration_sec": 49.356,
  "sample_rate": 44100,
  "note_count": 798,
  "unique_pitches": 43,
  "pitch_range": 66,
  "avg_note_duration": 0.1783,
  "reconstruction_stats": {
    "notes_reconstructed": 798,
    "keyon_events": 798,
    "keyoff_events": 796,
    "orphan_keyons": 2,
    "unique_pitches": 43,
    "pitch_range": 66,
    "avg_duration_sec": 0.1783
  },
  "metadata": {
    "source": "K\\Kishi Densetsu\\14 - Center.vgz"
  },
  "notes": [
    {
      "channel": 3,
      "note": 45,
      "start": 0.2829,
      "duration": 0.0001,
      "velocity": 127,
      "chip": "ym2612"
    },
    {
      "channel": 3,
      "note": 49,
      "start": 0.292,
      "duration": 0.4452,
      "velocity": 127,
      "chip": "ym2612"
    },
    {
      "channel": 3,
      "note": 47,
      "start": 0.758,
      "duration": 0.0001,
      "velocity": 127,
      "chip": "ym2612"
    },
    {
      "channel": 3,
      "note": 49,
      "start": 0.7784,
      "duration": 0.4499,
      "velocity": 127,
      "chip": "ym2612"
    },
    {
      "channel": 1,
      "note": 49,
      "start": 1.2076,
      "duration": 0.0407,
      "velocity": 98,
      "chip": "ym2612"
    },
    {
      "channel": 1,
      "note": 50,
      "start": 1.2486,
      "duration": 0.2454,
      "velocity": 98,
      "chip": "ym2612"
    },
    {
      "channel": 3,
      "note": 47,
      "start": 1.2494,
      "duration": 0.0001,
      "velocity": 127,
      "chip": "ym2612"
    },
    {
      "channel": 3,
      "note": 49,
      "start": 1.2696,
      "duration": 0.45,
      "velocity": 127,
      "chip": "ym2612"
    },
    {
      "channel": 1,
      "note": 48,
      "start": 1.4941,
      "duration": 0.2456,
      "velocity": 98,
      "chip": "ym2612"
    },
    {
      "channel": 0,
      "note": 62,
      "start": 1.7394,
      "duration": 0.4705,
      "velocity": 102,
      "chip": "ym2612"
    },
    {
      "channel": 1,
      "note": 47,
      "start": 1.7399,
      "duration": 0.2451,
      "velocity": 98,
      "chip": "ym2612"
    },
    {
      "channel": 3,
      "note": 47,
      "start": 1.7408,
      "duration": 0.0001,
      "velocity": 127,
      "chip": "ym2612"
    },
    {
      "channel": 3,
      "note": 49,
      "start": 1.7607,
      "duration": 0.4294,
      "velocity": 127,
      "chip": "ym2612"
    },
    {
      "channel": 4,
      "note": 85,
      "start": 1.9042,
      "duration": 0.3498,
      "velocity": 102,
      "chip": "ym2612"
    },
    {
      "channel": 1,
      "note": 45,
      "start": 1.9853,
      "duration": 0.2459,
      "velocity": 98,
      "chip": "ym2612"
    },
    {
      "channel": 3,
      "note": 47,
      "start": 2.2109,
      "duration": 0.0001,
      "velocity": 127,
      "chip": "ym2612"
    },
    {
      "channel": 0,
      "note": 67,
      "start": 2.2309,
      "duration": 0.3994,
      "velocity": 102,
      "chip": "ym2612"
    },
    {
      "channel": 1,
      "note": 43,
      "start": 2.2317,
      "duration": 0.2534,
      "velocity": 98,
      "chip": "ym2612"
    },
    {
      "channel": 3,
      "note": 49,
      "start": 2.2356,
      "duration": 0.209,
      "velocity": 127,
      "chip": "ym2612"
    },
    {
      "channel": 4,
      "note": 62,
      "start": 2.2571,
      "duration": 0.4131,
      "velocity": 102,
      "chip": "ym2612"
    },
    {
      "channel": 2,
      "note": 91,
      "start": 2.2666,
      "duration": 0.0959,
      "velocity": 98,
      "chip": "ym2612"
    },
    {
      "channel": 2,
      "note": 95,
      "start": 2.3626,
      "duration": 0.1229,
      "velocity": 98,
      "chip": "ym2612"
    },
    {
      "channel": 3,
      "note": 47,
      "start": 2.4653,
      "duration": 0.0001,
      "velocity": 127,
      "chip": "ym2612"
    },
    {
      "channel": 1,
      "note": 43,
      "start": 2.4853,
      "duration": 0.166,
      "velocity": 98,
      "chip": "ym2612"
    },
    {
      "channel": 2,
      "note": 98,
      "start": 2.4859,
      "duration": 0.0102,
      "velocity": 98,
      "chip": "ym2612"
    },
    {
      "channel": 3,
      "note": 49,
      "start": 2.4865,
      "duration": 0.1241,
      "velocity": 127,
      "chip": "ym2612"
    },
    {
      "channel": 2,
      "note": 95,
      "start": 2.5157,
      "duration": 0.0103,
      "velocity": 98,
      "chip": "ym2612"
    },
    {
      "channel": 3,
      "note": 47,
      "start": 2.6314,
      "duration": 0.0001,
      "velocity": 127,
      "chip": "ym2612"
    },
    {
      "channel": 0,
      "note": 62,
      "start": 2.651,
      "duration": 0.2676,
      "velocity": 102,
      "chip": "ym2612"
    },
    {
      "channel": 1,
      "note": 47,
      "start": 2.6515,
      "duration": 0.254,
      "velocity": 98,
      "chip": "ym2612"
    },
    {
      "channel": 2,
      "note": 103,
      "start": 2.652,
      "duration": 0.0105,
      "velocity": 98,
      "chip": "ym2612"
    },
    {
      "channel": 3,
      "note": 49,
      "start": 2.6526,
      "duration": 0.2124,
      "velocity": 127,
      "chip": "ym2612"
    },
    {
      "channel": 4,
      "note": 67,
      "start": 2.6729,
      "duration": 0.267,
      "velocity": 102,
      "chip": "ym2612"
    },
    {
      "channel": 2,
      "note": 95,
      "start": 2.6822,
      "duration": 0.0598,
      "velocity": 98,
      "chip": "ym2612"
    },
    {
      "channel": 3,
      "note": 47,
      "start": 2.8858,
      "duration": 0.0001,
      "velocity": 127,
      "chip": "ym2612"
    },
    {
      "channel": 1,
      "note": 50,
      "start": 2.9057,
      "duration": 0.1663,
      "velocity": 98,
      "chip": "ym2612"
    },
    {
      "channel": 2,
      "note": 98,
      "start": 2.9062,
      "duration": 0.0105,
      "velocity": 98,
      "chip": "ym2612"
    },
    {
      "channel": 3,
      "note": 49,
      "start": 2.9068,
      "duration": 0.1244,
      "velocity": 127,
      "chip": "ym2612"
    },
    {
      "channel": 0,
      "note": 62,
      "start": 2.9358,
      "duration": 0.0127,
      "velocity": 102,
      "chip": "ym2612"
    },
    {
      "channel": 2,
      "note": 95,
      "start": 2.9365,
      "duration": 0.0101,
      "velocity": 98,
      "chip": "ym2612"
    },
    {
      "channel": 4,
      "note": 62,
      "start": 2.9908,
      "duration": 0.0859,
      "velocity": 102,
      "chip": "ym2612"
    },
    {
      "channel": 3,
      "note": 47,
      "start": 3.052,
      "duration": 0.0001,
      "velocity": 127,
      "chip": "ym2612"
    },
    {
      "channel": 0,
      "note": 62,
      "start": 3.0717,
      "duration": 0.522,
      "velocity": 102,
      "chip": "ym2612"
    },
    {
      "channel": 1,
      "note": 55,
      "start": 3.0723,
      "duration": 0.2538,
      "velocity": 98,
      "chip": "ym2612"
    },
    {
      "channel": 2,
      "note": 103,
      "start": 3.0728,
      "duration": 0.0081,
      "velocity": 98,
      "chip": "ym2612"
    },
    {
      "channel": 3,
      "note": 49,
      "start": 3.0734,
      "duration": 0.2123,
      "velocity": 127,
      "chip": "ym2612"
    },
    {
      "channel": 2,
      "note": 105,
      "start": 3.0812,
      "duration": 0.0071,
      "velocity": 98,
      "chip": "ym2612"
    },
    {
      "channel": 2,
      "note": 103,
      "start": 3.0885,
      "duration": 0.0075,
      "velocity": 98,
      "chip": "ym2612"
    },
    {
      "channel": 4,
      "note": 62,
      "start": 3.0941,
      "duration": 0.5222,
      "velocity": 102,
      "chip": "ym2612"
    },
    {
      "channel": 2,
      "note": 105,
      "start": 3.0963,
      "duration": 0.0072,
      "velocity": 98,
      "chip": "ym2612"
    },
    {
      "channel": 2,
      "note": 103,
      "start": 3.1037,
      "duration": 0.0383,
      "velocity": 98,
      "chip": "ym2612"
    },
    {
      "channel": 2,
      "note": 105,
      "start": 3.1423,
      "duration": 0.0611,
      "velocity": 98,
      "chip": "ym2612"
    },
    {
      "channel": 2,
      "note": 103,
      "start": 3.2037,
      "duration": 0.0612,
      "velocity": 98,
      "chip": "ym2612"
    },
    {
      "channel": 2,
      "note": 105,
      "start": 3.2651,
      "duration": 0.0615,
      "velocity": 98,
      "chip": "ym2612"
    },
    {
      "channel": 3,
      "note": 47,
      "start": 3.3063,
      "duration": 0.0001,
      "velocity": 127,
      "chip": "ym2612"
    },
    {
      "channel": 1,
      "note": 43,
      "start": 3.3263,
      "duration": 0.1722,
      "velocity": 98,
      "chip": "ym2612"
    },
    {
      "channel": 2,
      "note": 103,
      "start": 3.3269,
      "duration": 0.0105,
      "velocity": 98,
      "chip": "ym2612"
    },
    {
      "channel": 3,
      "note": 49,
      "start": 3.3275,
      "duration": 0.2128,
      "velocity": 127,
      "chip": "ym2612"
    },
    {
      "channel": 2,
      "note": 95,
      "start": 3.3568,
      "duration": 0.0601,
      "velocity": 98,
      "chip": "ym2612"
    },
    {
      "channel": 1,
      "note": 52,
      "start": 3.4988,
      "duration": 0.0407,
      "velocity": 98,
      "chip": "ym2612"
    },
    {
      "channel": 1,
      "note": 54,
      "start": 3.5397,
      "duration": 0.0407,
      "velocity": 98,
      "chip": "ym2612"
    },
    {
      "channel": 3,
      "note": 47,
      "start": 3.5607,
      "duration": 0.0001,
      "velocity": 127,
      "chip": "ym2612"
    },
    {
      "channel": 1,
      "note": 55,
      "start": 3.5807,
      "duration": 0.0311,
      "velocity": 98,
      "chip": "ym2612"
    },
    {
      "channel": 2,
      "note": 103,
      "start": 3.5811,
      "duration": 0.0106,
      "velocity": 98,
      "chip": "ym2612"
    },
    {
      "channel": 3,
      "note": 49,
      "start": 3.5818,
      "duration": 0.0127,
      "velocity": 127,
      "chip": "ym2612"
    },
    {
      "channel": 3,
      "note": 47,
      "start": 3.5973,
      "duration": 0.0121,
      "velocity": 127,
      "chip": "ym2612"
    },
    {
      "channel": 0,
      "note": 59,
      "start": 3.6115,
      "duration": 0.0799,
      "velocity": 102,
      "chip": "ym2612"
    },
    {
      "channel": 1,
      "note": 54,
      "start": 3.612,
      "duration": 0.2231,
      "velocity": 98,
      "chip": "ym2612"
    },
    {
      "channel": 2,
      "note": 91,
      "start": 3.6126,
      "duration": 0.0997,
      "velocity": 98,
      "chip": "ym2612"
    },
    {
      "channel": 3,
      "note": 47,
      "start": 3.6132,
      "duration": 0.0789,
      "velocity": 127,
      "chip": "ym2612"
    },
    {
      "channel": 2,
      "note": 95,
      "start": 3.7126,
      "duration": 0.123,
      "velocity": 98,
      "chip": "ym2612"
    },
    {
      "channel": 3,
      "note": 47,
      "start": 3.7131,
      "duration": 0.0812,
      "velocity": 127,
      "chip": "ym2612"
    },
    {
      "channel": 4,
      "note": 62,
      "start": 3.7539,
      "duration": 0.0858,
      "velocity": 102,
      "chip": "ym2612"
    },
    {
      "channel": 3,
      "note": 47,
      "start": 3.8151,
      "duration": 0.0001,
      "velocity": 127,
      "chip": "ym2612"
    },
    {
      "channel": 0,
      "note": 67,
      "start": 3.8348,
      "duration": 0.1454,
      "velocity": 102,
      "chip": "ym2612"
    },
    {
      "channel": 1,
      "note": 52,
      "start": 3.8353,
      "duration": 0.0302,
      "velocity": 98,
      "chip": "ym2612"
    },
    {
      "channel": 2,
      "note": 98,
      "start": 3.8359,
      "duration": 0.0105,
      "velocity": 98,
      "chip": "ym2612"
    },
    {
      "channel": 3,
      "note": 49,
      "start": 3.8366,
      "duration": 0.1238,
      "velocity": 127,
      "chip": "ym2612"
    },
    {
      "channel": 4,
      "note": 59,
      "start": 3.8566,
      "duration": 0.1656,
      "velocity": 102,
      "chip": "ym2612"
    },
    {
      "channel": 1,
      "note": 50,
      "start": 3.8657,
      "duration": 0.1354,
      "velocity": 98,
      "chip": "ym2612"
    },
    {
      "channel": 2,
      "note": 95,
      "start": 3.8662,
      "duration": 0.0099,
      "velocity": 98,
      "chip": "ym2612"
    },
    {
      "channel": 3,
      "note": 47,
      "start": 3.9812,
      "duration": 0.0001,
      "velocity": 127,
      "chip": "ym2612"
    },
    {
      "channel": 0,
      "note": 69,
      "start": 4.0008,
      "duration": 0.3996,
      "velocity": 102,
      "chip": "ym2612"
    },
    {
      "channel": 1,
      "note": 54,
      "start": 4.0013,
      "duration": 0.2538,
      "velocity": 98,
      "chip": "ym2612"
    },
    {
      "channel": 3,
      "note": 49,
      "start": 4.0048,
      "duration": 0.2098,
      "velocity": 127,
      "chip": "ym2612"
    },
    {
      "channel": 4,
      "note": 67,
      "start": 4.0248,
      "duration": 0.4155,
      "velocity": 102,
      "chip": "ym2612"
    },
    {
      "channel": 2,
      "note": 90,
      "start": 4.0342,
      "duration": 0.0983,
      "velocity": 98,
      "chip": "ym2612"
    },
    {
      "channel": 2,
      "note": 93,
      "start": 4.1327,
      "duration": 0.1228,
      "velocity": 98,
      "chip": "ym2612"
    },
    {
      "channel": 3,
      "note": 47,
      "start": 4.2354,
      "duration": 0.0001,
      "velocity": 127,
      "chip": "ym2612"
    },
    {
      "channel": 1,
      "note": 45,
      "start": 4.2553,
      "duration": 0.166,
      "velocity": 98,
      "chip": "ym2612"
    },
    {
      "channel": 2,
      "note": 96,
      "start": 4.2559,
      "duration": 0.0102,
      "velocity": 98,
      "chip": "ym2612"
    },
    {
      "channel": 3,
      "note": 49,
      "start": 4.2565,
      "duration": 0.1241,
      "velocity": 127,
      "chip": "ym2612"
    },
    {
      "channel": 2,
      "note": 93,
      "start": 4.2857,
      "duration": 0.0104,
      "velocity": 98,
      "chip": "ym2612"
    },
    {
      "channel": 3,
      "note": 47,
      "start": 4.4014,
      "duration": 0.0001,
      "velocity": 127,
      "chip": "ym2612"
    },
    {
      "channel": 0,
      "note": 62,
      "start": 4.421,
      "duration": 0.2676,
      "velocity": 102,
      "chip": "ym2612"
    },
    {
      "channel": 1,
      "note": 50,
      "start": 4.4215,
      "duration": 0.2539,
      "velocity": 98,
      "chip": "ym2612"
    },
    {
      "channel": 2,
      "note": 102,
      "start": 4.422,
      "duration": 0.0105,
      "velocity": 98,
      "chip": "ym2612"
    },
    {
      "channel": 3,
      "note": 49,
      "start": 4.4227,
      "duration": 0.2123,
      "velocity": 127,
      "chip": "ym2612"
    },
    {
      "channel": 4,
      "note": 69,
      "start": 4.443,
      "duration": 0.2669,
      "velocity": 102,
      "chip": "ym2612"
    },
    {
      "channel": 2,
      "note": 93,
      "start": 4.4522,
      "duration": 0.0597,
      "velocity": 98,
      "chip": "ym2612"
    },
    {
      "channel": 3,
      "note": 47,
      "start": 4.6557,
      "duration": 0.0001,
      "velocity": 127,
      "chip": "ym2612"
    },
    {
      "channel": 1,
      "note": 54,
      "start": 4.6757,
      "duration": 0.1664,
      "velocity": 98,
      "chip": "ym2612"
    },
    {
      "channel": 2,
      "note": 96,
      "start": 4.6761,
      "duration": 0.0106,
      "velocity": 98,
      "chip": "ym2612"
    },
    {
      "channel": 3,
      "note": 49,
      "start": 4.6768,
      "duration": 0.1245,
      "velocity": 127,
      "chip": "ym2612"
    },
    {
      "channel": 0,
      "note": 62,
      "start": 4.7058,
      "duration": 0.0129,
      "velocity": 102,
      "chip": "ym2612"
    },
    {
      "channel": 2,
      "note": 93,
      "start": 4.7065,
      "duration": 0.0101,
      "velocity": 98,
      "chip": "ym2612"
    },
    {
      "channel": 4,
      "note": 62,
      "start": 4.7609,
      "duration": 0.0859,
      "velocity": 102,
      "chip": "ym2612"
    },
    {
      "channel": 3,
      "note": 47,
      "start": 4.8222,
      "duration": 0.0001,
      "velocity": 127,
      "chip": "ym2612"
    },
    {
      "channel": 0,
      "note": 62,
      "start": 4.8417,
      "duration": 0.4879,
      "velocity": 102,
      "chip": "ym2612"
    },
    {
      "channel": 1,
      "note": 57,
      "start": 4.8422,
      "duration": 0.0311,
      "velocity": 98,
      "chip": "ym2612"
    },
    {
      "channel": 2,
      "note": 102,
      "start": 4.8429,
      "duration": 0.0081,
      "velocity": 98,
      "chip": "ym2612"
    },
    {
      "channel": 3,
      "note": 49,
      "start": 4.8434,
      "duration": 0.2121,
      "velocity": 127,
      "chip": "ym2612"
    },
    {
      "channel": 2,
      "note": 103,
      "start": 4.8513,
      "duration": 0.0071,
      "velocity": 98,
      "chip": "ym2612"
    },
    {
      "channel": 2,
      "note": 102,
      "start": 4.8586,
      "duration": 0.0076,
      "velocity": 98,
      "chip": "ym2612"
    },
    {
      "channel": 4,
      "note": 62,
      "start": 4.8643,
      "duration": 0.5058,
      "velocity": 102,
      "chip": "ym2612"
    },
    {
      "channel": 2,
      "note": 103,
      "start": 4.8664,
      "duration": 0.0075,
      "velocity": 98,
      "chip": "ym2612"
    },
    {
      "channel": 1,
      "note": 50,
      "start": 4.8736,
      "duration": 0.0997,
      "velocity": 98,
      "chip": "ym2612"
    },
    {
      "channel": 2,
      "note": 102,
      "start": 4.8741,
      "duration": 0.0379,
      "velocity": 98,
      "chip": "ym2612"
    },
    {
      "channel": 2,
      "note": 103,
      "start": 4.9123,
      "duration": 0.0615,
      "velocity": 98,
      "chip": "ym2612"
    },
    {
      "channel": 1,
      "note": 54,
      "start": 4.9735,
      "duration": 0.1226,
      "velocity": 98,
      "chip": "ym2612"
    },
    {
      "channel": 2,
      "note": 102,
      "start": 4.9741,
      "duration": 0.0608,
      "velocity": 98,
      "chip": "ym2612"
    },
    {
      "channel": 2,
      "note": 103,
      "start": 5.0351,
      "duration": 0.0615,
      "velocity": 98,
      "chip": "ym2612"
    },
    {
      "channel": 3,
      "note": 47,
      "start": 5.0764,
      "duration": 0.0001,
      "velocity": 127,
      "chip": "ym2612"
    },
    {
      "channel": 1,
      "note": 57,
      "start": 5.0963,
      "duration": 0.03,
      "velocity": 98,
      "chip": "ym2612"
    },
    {
      "channel": 2,
      "note": 102,
      "start": 5.0969,
      "duration": 0.0105,
      "velocity": 98,
      "chip": "ym2612"
    },
    {
      "channel": 3,
      "note": 49,
      "start": 5.0975,
      "duration": 0.2127,
      "velocity": 127,
      "chip": "ym2612"
    },
    {
      "channel": 1,
      "note": 50,
      "start": 5.1266,
      "duration": 0.1419,
      "velocity": 98,
      "chip": "ym2612"
    },
    {
      "channel": 2,
      "note": 93,
      "start": 5.1271,
      "duration": 0.0598,
      "velocity": 98,
      "chip": "ym2612"
    },
    {
      "channel": 1,
      "note": 57,
      "start": 5.2688,
      "duration": 0.0407,
      "velocity": 98,
      "chip": "ym2612"
    },
    {
      "channel": 1,
      "note": 59,
      "start": 5.3097,
      "duration": 0.041,
      "velocity": 98,
      "chip": "ym2612"
    },
    {
      "channel": 3,
      "note": 47,
      "start": 5.3307,
      "duration": 0.0001,
      "velocity": 127,
      "chip": "ym2612"
    },
    {
      "channel": 0,
      "note": 62,
      "start": 5.3504,
      "duration": 0.2337,
      "velocity": 102,
      "chip": "ym2612"
    },
    {
      "channel": 1,
      "note": 60,
      "start": 5.3509,
      "duration": 0.0307,
      "velocity": 98,
      "chip": "ym2612"
    },
    {
      "channel": 2,
      "note": 102,
      "start": 5.3514,
      "duration": 0.0105,
      "velocity": 98,
      "chip": "ym2612"
    },
    {
      "channel": 3,
      "note": 49,
      "start": 5.352,
      "duration": 0.0126,
      "velocity": 127,
      "chip": "ym2612"
    },
    {
      "channel": 3,
      "note": 47,
      "start": 5.3673,
      "duration": 0.0124,
      "velocity": 127,
      "chip": "ym2612"
    },
    {
      "channel": 4,
      "note": 62,
      "start": 5.3727,
      "duration": 0.251,
      "velocity": 102,
      "chip": "ym2612"
    },
    {
      "channel": 1,
      "note": 57,
      "start": 5.3818,
      "duration": 0.2232,
      "velocity": 98,
      "chip": "ym2612"
    },
    {
      "channel": 2,
      "note": 93,
      "start": 5.3823,
      "duration": 0.0589,
      "velocity": 98,
      "chip": "ym2612"
    },
    {
      "channel": 3,
      "note": 47,
      "start": 5.3829,
      "duration": 0.079,
      "velocity": 127,
      "chip": "ym2612"
    },
    {
      "channel": 3,
      "note": 47,
      "start": 5.4827,
      "duration": 0.0816,
      "velocity": 127,
      "chip": "ym2612"
    },
    {
      "channel": 3,
      "note": 47,
      "start": 5.5851,
      "duration": 0.0001,
      "velocity": 127,
      "chip": "ym2612"
    },
    {
      "channel": 0,
      "note": 69,
      "start": 5.6047,
      "duration": 0.1455,
      "velocity": 102,
      "chip": "ym2612"
    },
    {
      "channel": 1,
      "note": 54,
      "start": 5.6053,
      "duration": 0.03,
      "velocity": 98,
      "chip": "ym2612"
    },
    {
      "channel": 2,
      "note": 96,
      "start": 5.6058,
      "duration": 0.0103,
      "velocity": 98,
      "chip": "ym2612"
    },
    {
      "channel": 3,
      "note": 49,
      "start": 5.6063,
      "duration": 0.124,
      "velocity": 127,
      "chip": "ym2612"
    },
    {
      "channel": 4,
      "note": 62,
      "start": 5.6264,
      "duration": 0.1658,
      "velocity": 102,
      "chip": "ym2612"
    },
    {
      "channel": 1,
      "note": 50,
      "start": 5.6354,
      "duration": 0.1357,
      "velocity": 98,
      "chip": "ym2612"
    },
    {
      "channel": 2,
      "note": 93,
      "start": 5.636,
      "duration": 0.0098,
      "velocity": 98,
      "chip": "ym2612"
    },
    {
      "channel": 3,
      "note": 47,
      "start": 5.7512,
      "duration": 0.0001,
      "velocity": 127,
      "chip": "ym2612"
    },
    {
      "channel": 0,
      "note": 71,
      "start": 5.7708,
      "duration": 0.3998,
      "velocity": 102,
      "chip": "ym2612"
    },
    {
      "channel": 1,
      "note": 55,
      "start": 5.7713,
      "duration": 0.2539,
      "velocity": 98,
      "chip": "ym2612"
    },
    {
      "channel": 3,
      "note": 49,
      "start": 5.7748,
      "duration": 0.2099,
      "velocity": 127,
      "chip": "ym2612"
    },
    {
      "channel": 4,
      "note": 69,
      "start": 5.7949,
      "duration": 0.4156,
      "velocity": 102,
      "chip": "ym2612"
    },
    {
      "channel": 2,
      "note": 95,
      "start": 5.8043,
      "duration": 0.0984,
      "velocity": 98,
      "chip": "ym2612"
    },
    {
      "channel": 2,
      "note": 98,
      "start": 5.9028,
      "duration": 0.1229,
      "velocity": 98,
      "chip": "ym2612"
    },
    {
      "channel": 3,
      "note": 47,
      "start": 6.0055,
      "duration": 0.0001,
      "velocity": 127,
      "chip": "ym2612"
    },
    {
      "channel": 1,
      "note": 43,
      "start": 6.0255,
      "duration": 0.1661,
      "velocity": 98,
      "chip": "ym2612"
    },
    {
      "channel": 2,
      "note": 103,
      "start": 6.026,
      "duration": 0.0102,
      "velocity": 98,
      "chip": "ym2612"
    },
    {
      "channel": 3,
      "note": 49,
      "start": 6.0267,
      "duration": 0.1242,
      "velocity": 127,
      "chip": "ym2612"
    },
    {
      "channel": 2,
      "note": 95,
      "start": 6.0559,
      "duration": 0.0105,
      "velocity": 98,
      "chip": "ym2612"
    },
    {
      "channel": 3,
      "note": 47,
      "start": 6.1717,
      "duration": 0.0001,
      "velocity": 127,
      "chip": "ym2612"
    },
    {
      "channel": 0,
      "note": 67,
      "start": 6.1913,
      "duration": 0.2677,
      "velocity": 102,
      "chip": "ym2612"
    },
    {
      "channel": 1,
      "note": 47,
      "start": 6.1918,
      "duration": 0.2539,
      "velocity": 98,
      "chip": "ym2612"
    },
    {
      "channel": 2,
      "note": 107,
      "start": 6.1923,
      "duration": 0.0105,
      "velocity": 98,
      "chip": "ym2612"
    },
    {
      "channel": 3,
      "note": 49,
      "start": 6.1929,
      "duration": 0.2122,
      "velocity": 127,
      "chip": "ym2612"
    },
    {
      "channel": 4,
      "note": 71,
      "start": 6.2132,
      "duration": 0.2668,
      "velocity": 102,
      "chip": "ym2612"
    },
    {
      "channel": 2,
      "note": 95,
      "start": 6.2223,
      "duration": 0.0598,
      "velocity": 98,
      "chip": "ym2612"
    },
    {
      "channel": 3,
      "note": 47,
      "start": 6.4259,
      "duration": 0.0001,
      "velocity": 127,
      "chip": "ym2612"
    },
    {
      "channel": 1,
      "note": 50,
      "start": 6.4459,
      "duration": 0.1662,
      "velocity": 98,
      "chip": "ym2612"
    },
    {
      "channel": 2,
      "note": 98,
      "start": 6.4463,
      "duration": 0.0106,
      "velocity": 98,
      "chip": "ym2612"
    },
    {
      "channel": 3,
      "note": 49,
      "start": 6.447,
      "duration": 0.1244,
      "velocity": 127,
      "chip": "ym2612"
    },
    {
      "channel": 0,
      "note": 69,
      "start": 6.4759,
      "duration": 0.0128,
      "velocity": 102,
      "chip": "ym2612"
    },
    {
      "channel": 2,
      "note": 95,
      "start": 6.4766,
      "duration": 0.0101,
      "velocity": 98,
      "chip": "ym2612"
    },
    {
      "channel": 0,
      "note": 71,
      "start": 6.4913,
      "duration": 0.0998,
      "velocity": 102,
      "chip": "ym2612"
    },
    {
      "channel": 4,
      "note": 67,
      "start": 6.531,
      "duration": 0.0855,
      "velocity": 102,
      "chip": "ym2612"
    },
    {
      "channel": 3,
      "note": 47,
      "start": 6.5921,
      "duration": 0.0001,
      "velocity": 127,
      "chip": "ym2612"
    },
    {
      "channel": 0,
      "note": 72,
      "start": 6.6118,
      "duration": 0.2676,
      "velocity": 102,
      "chip": "ym2612"
    },
    {
      "channel": 1,
      "note": 52,
      "start": 6.6124,
      "duration": 0.2539,
      "velocity": 98,
      "chip": "ym2612"
    },
    {
      "channel": 3,
      "note": 49,
      "start": 6.6133,
      "duration": 0.2125,
      "velocity": 127,
      "chip": "ym2612"
    },
    {
      "channel": 4,
      "note": 69,
      "start": 6.6192,
      "duration": 0.0119,
      "velocity": 102,
      "chip": "ym2612"
    },
    {
      "channel": 4,
      "note": 71,
      "start": 6.6337,
      "duration": 0.2671,
      "velocity": 102,
      "chip": "ym2612"
    },
    {
      "channel": 2,
      "note": 96,
      "start": 6.643,
      "duration": 0.1006,
      "velocity": 98,
      "chip": "ym2612"
    },
    {
      "channel": 2,
      "note": 100,
      "start": 6.7438,
      "duration": 0.123,
      "velocity": 98,
      "chip": "ym2612"
    },
    {
      "channel": 3,
      "note": 47,
      "start": 6.8465,
      "duration": 0.0001,
      "velocity": 127,
      "chip": "ym2612"
    },
    {
      "channel": 1,
      "note": 48,
      "start": 6.8665,
      "duration": 0.2544,
      "velocity": 98,
      "chip": "ym2612"
    },
    {
      "channel": 2,
      "note": 103,
      "start": 6.8671,
      "duration": 0.0102,
      "velocity": 98,
      "chip": "ym2612"
    },
    {
      "channel": 3,
      "note": 49,
      "start": 6.8678,
      "duration": 0.2124,
      "velocity": 127,
      "chip": "ym2612"
    },
    {
      "channel": 0,
      "note": 72,
      "start": 6.8964,
      "duration": 0.0807,
      "velocity": 102,
      "chip": "ym2612"
    },
    {
      "channel": 2,
      "note": 96,
      "start": 6.8971,
      "duration": 0.06,
      "velocity": 98,
      "chip": "ym2612"
    },
    {
      "channel": 4,
      "note": 72,
      "start": 7.0397,
      "duration": 0.0858,
      "velocity": 102,
      "chip": "ym2612"
    },
    {
      "channel": 3,
      "note": 47,
      "start": 7.1009,
      "duration": 0.0001,
      "velocity": 127,
      "chip": "ym2612"
    },
    {
      "channel": 0,
      "note": 64,
      "start": 7.1205,
      "duration": 0.3998,
      "velocity": 102,
      "chip": "ym2612"
    },
    {
      "channel": 1,
      "note": 55,
      "start": 7.1211,
      "duration": 0.2539,
      "velocity": 98,
      "chip": "ym2612"
    },
    {
      "channel": 2,
      "note": 108,
      "start": 7.1216,
      "duration": 0.0105,
      "velocity": 98,
      "chip": "ym2612"
    },
    {
      "channel": 3,
      "note": 49,
      "start": 7.1222,
      "duration": 0.0125,
      "velocity": 127,
      "chip": "ym2612"
    },
    {
      "channel": 3,
      "note": 47,
      "start": 7.1373,
      "duration": 0.0123,
      "velocity": 127,
      "chip": "ym2612"
    },
    {
      "channel": 4,
      "note": 72,
      "start": 7.1427,
      "duration": 0.418,
      "velocity": 102,
      "chip": "ym2612"
    },
    {
      "channel": 2,
      "note": 96,
      "start": 7.1521,
      "duration": 0.0593,
      "velocity": 98,
      "chip": "ym2612"
    },
    {
      "channel": 3,
      "note": 47,
      "start": 7.1526,
      "duration": 0.0795,
      "velocity": 127,
      "chip": "ym2612"
    },
    {
      "channel": 3,
      "note": 47,
      "start": 7.2529,
      "duration": 0.0816,
      "velocity": 127,
      "chip": "ym2612"
    },
    {
      "channel": 3,
      "note": 47,
      "start": 7.3552,
      "duration": 0.0001,
      "velocity": 127,
      "chip": "ym2612"
    },
    {
      "channel": 1,
      "note": 52,
      "start": 7.3751,
      "duration": 0.1662,
      "velocity": 98,
      "chip": "ym2612"
    },
    {
      "channel": 2,
      "note": 100,
      "start": 7.3757,
      "duration": 0.0104,
      "velocity": 98,
      "chip": "ym2612"
    },
    {
      "channel": 3,
      "note": 49,
      "start": 7.3763,
      "duration": 0.1244,
      "velocity": 127,
      "chip": "ym2612"
    },
    {
      "channel": 2,
      "note": 96,
      "start": 7.4057,
      "duration": 0.0102,
      "velocity": 98,
      "chip": "ym2612"
    },
    {
      "channel": 3,
      "note": 47,
      "start": 7.5215,
      "duration": 0.0001,
      "velocity": 127,
      "chip": "ym2612"
    },
    {
      "channel": 0,
      "note": 67,
      "start": 7.541,
      "duration": 0.2682,
      "velocity": 102,
      "chip": "ym2612"
    },
    {
      "channel": 2,
      "note": 103,
      "start": 7.542,
      "duration": 0.0079,
      "velocity": 98,
      "chip": "ym2612"
    },
    {
      "channel": 2,
      "note": 105,
      "start": 7.5502,
      "duration": 0.0073,
      "velocity": 98,
      "chip": "ym2612"
    },
    {
      "channel": 2,
      "note": 103,
      "start": 7.5577,
      "duration": 0.0076,
      "velocity": 98,
      "chip": "ym2612"
    },
    {
      "channel": 4,
      "note": 64,
      "start": 7.5634,
      "duration": 0.4106,
      "velocity": 102,
      "chip": "ym2612"
    },
    {
      "channel": 2,
      "note": 105,
      "start": 7.5655,
      "duration": 0.0076,
      "velocity": 98,
      "chip": "ym2612"
    },
    {
      "channel": 1,
      "note": 50,
      "start": 7.5729,
      "duration": 0.0159,
      "velocity": 98,
      "chip": "ym2612"
    },
    {
      "channel": 2,
      "note": 103,
      "start": 7.5734,
      "duration": 0.008,
      "velocity": 98,
      "chip": "ym2612"
    },
    {
      "channel": 3,
      "note": 49,
      "start": 7.574,
      "duration": 0.0128,
      "velocity": 127,
      "chip": "ym2612"
    },
    {
      "channel": 2,
      "note": 105,
      "start": 7.5817,
      "duration": 0.0076,
      "velocity": 98,
      "chip": "ym2612"
    },
    {
      "channel": 1,
      "note": 50,
      "start": 7.589,
      "duration": 0.1182,
      "velocity": 98,
      "chip": "ym2612"
    },
    {
      "channel": 2,
      "note": 103,
      "start": 7.5895,
      "duration": 0.0564,
      "velocity": 98,
      "chip": "ym2612"
    },
    {
      "channel": 3,
      "note": 47,
      "start": 7.5901,
      "duration": 0.097,
      "velocity": 127,
      "chip": "ym2612"
    },
    {
      "channel": 2,
      "note": 105,
      "start": 7.6462,
      "duration": 0.0615,
      "velocity": 98,
      "chip": "ym2612"
    },
    {
      "channel": 1,
      "note": 50,
      "start": 7.7074,
      "duration": 0.4912,
      "velocity": 98,
      "chip": "ym2612"
    },
    {
      "channel": 2,
      "note": 103,
      "start": 7.708,
      "duration": 0.0812,
      "velocity": 98,
      "chip": "ym2612"
    },
    {
      "channel": 3,
      "note": 47,
      "start": 7.7086,
      "duration": 0.2242,
      "velocity": 127,
      "chip": "ym2612"
    },
    {
      "channel": 0,
      "note": 62,
      "start": 7.9527,
      "duration": 0.1021,
      "velocity": 102,
      "chip": "ym2612"
    },
    {
      "channel": 2,
      "note": 98,
      "start": 7.9534,
      "duration": 0.0814,
      "velocity": 98,
      "chip": "ym2612"
    },
    {
      "channel": 3,
      "note": 47,
      "start": 7.954,
      "duration": 0.2742,
      "velocity": 127,
      "chip": "ym2612"
    },
    {
      "channel": 4,
      "note": 67,
      "start": 8.1174,
      "duration": 0.0854,
      "velocity": 102,
      "chip": "ym2612"
    },
    {
      "channel": 0,
      "note": 66,
      "start": 8.1982,
      "duration": 0.2682,
      "velocity": 102,
      "chip": "ym2612"
    },
    {
      "channel": 2,
      "note": 102,
      "start": 8.1992,
      "duration": 0.0081,
      "velocity": 98,
      "chip": "ym2612"
    },
    {
      "channel": 2,
      "note": 103,
      "start": 8.2075,
      "duration": 0.0073,
      "velocity": 98,
      "chip": "ym2612"
    },
    {
      "channel": 2,
      "note": 102,
      "start": 8.215,
      "duration": 0.0077,
      "velocity": 98,
      "chip": "ym2612"
    },
    {
      "channel": 4,
      "note": 62,
      "start": 8.2208,
      "duration": 0.4104,
      "velocity": 102,
      "chip": "ym2612"
    },
    {
      "channel": 2,
      "note": 103,
      "start": 8.223,
      "duration": 0.0078,
      "velocity": 98,
      "chip": "ym2612"
    },
    {
      "channel": 1,
      "note": 50,
      "start": 8.2305,
      "duration": 0.0158,
      "velocity": 98,
      "chip": "ym2612"
    },
    {
      "channel": 2,
      "note": 102,
      "start": 8.231,
      "duration": 0.0078,
      "velocity": 98,
      "chip": "ym2612"
    },
    {
      "channel": 3,
      "note": 47,
      "start": 8.2316,
      "duration": 0.0126,
      "velocity": 127,
      "chip": "ym2612"
    },
    {
      "channel": 2,
      "note": 103,
      "start": 8.2391,
      "duration": 0.0076,
      "velocity": 98,
      "chip": "ym2612"
    },
    {
      "channel": 1,
      "note": 50,
      "start": 8.2464,
      "duration": 0.118,
      "velocity": 98,
      "chip": "ym2612"
    },
    {
      "channel": 2,
      "note": 102,
      "start": 8.247,
      "duration": 0.0562,
      "velocity": 98,
      "chip": "ym2612"
    },
    {
      "channel": 3,
      "note": 47,
      "start": 8.2476,
      "duration": 0.0969,
      "velocity": 127,
      "chip": "ym2612"
    },
    {
      "channel": 2,
      "note": 103,
      "start": 8.3035,
      "duration": 0.0615,
      "velocity": 98,
      "chip": "ym2612"
    },
    {
      "channel": 1,
      "note": 50,
      "start": 8.3647,
      "duration": 0.4913,
      "velocity": 98,
      "chip": "ym2612"
    },
    {
      "channel": 2,
      "note": 102,
      "start": 8.3653,
      "duration": 0.0812,
      "velocity": 98,
      "chip": "ym2612"
    },
    {
      "channel": 3,
      "note": 47,
      "start": 8.3659,
      "duration": 0.2241,
      "velocity": 127,
      "chip": "ym2612"
    },
    {
      "channel": 0,
      "note": 62,
      "start": 8.61,
      "duration": 0.1021,
      "velocity": 102,
      "chip": "ym2612"
    },
    {
      "channel": 2,
      "note": 98,
      "start": 8.6107,
      "duration": 0.0814,
      "velocity": 98,
      "chip": "ym2612"
    },
    {
      "channel": 3,
      "note": 47,
      "start": 8.6112,
      "duration": 0.1016,
      "velocity": 127,
      "chip": "ym2612"
    },
    {
      "channel": 3,
      "note": 47,
      "start": 8.7336,
      "duration": 0.1021,
      "velocity": 127,
      "chip": "ym2612"
    },
    {
      "channel": 4,
      "note": 66,
      "start": 8.7747,
      "duration": 0.0866,
      "velocity": 102,
      "chip": "ym2612"
    },
    {
      "channel": 0,
      "note": 67,
      "start": 8.8556,
      "duration": 0.1454,
      "velocity": 102,
      "chip": "ym2612"
    },
    {
      "channel": 1,
      "note": 55,
      "start": 8.8563,
      "duration": 0.031,
      "velocity": 98,
      "chip": "ym2612"
    },
    {
      "channel": 2,
      "note": 103,
      "start": 8.857,
      "duration": 0.0434,
      "velocity": 98,
      "chip": "ym2612"
    },
    {
      "channel": 3,
      "note": 47,
      "start": 8.8577,
      "duration": 0.0276,
      "velocity": 127,
      "chip": "ym2612"
    },
    {
      "channel": 4,
      "note": 62,
      "start": 8.8784,
      "duration": 0.1676,
      "velocity": 102,
      "chip": "ym2612"
    },
    {
      "channel": 1,
      "note": 43,
      "start": 8.8876,
      "duration": 0.0175,
      "velocity": 98,
      "chip": "ym2612"
    },
    {
      "channel": 3,
      "note": 47,
      "start": 8.8907,
      "duration": 0.0124,
      "velocity": 127,
      "chip": "ym2612"
    },
    {
      "channel": 1,
      "note": 43,
      "start": 8.9053,
      "duration": 0.1165,
      "velocity": 98,
      "chip": "ym2612"
    },
    {
      "channel": 3,
      "note": 47,
      "start": 8.9061,
      "duration": 0.0957,
      "velocity": 127,
      "chip": "ym2612"
    },
    {
      "channel": 1,
      "note": 43,
      "start": 9.022,
      "duration": 0.0353,
      "velocity": 98,
      "chip": "ym2612"
    },
    {
      "channel": 3,
      "note": 47,
      "start": 9.0254,
      "duration": 0.0127,
      "velocity": 127,
      "chip": "ym2612"
    },
    {
      "channel": 3,
      "note": 47,
      "start": 9.0431,
      "duration": 0.0122,
      "velocity": 127,
      "chip": "ym2612"
    },
    {
      "channel": 1,
      "note": 52,
      "start": 9.0575,
      "duration": 0.1304,
      "velocity": 98,
      "chip": "ym2612"
    },
    {
      "channel": 2,
      "note": 100,
      "start": 9.058,
      "duration": 0.0105,
      "velocity": 98,
      "chip": "ym2612"
    },
    {
      "channel": 3,
      "note": 47,
      "start": 9.0587,
      "duration": 0.0124,
      "velocity": 127,
      "chip": "ym2612"
    },
    {
      "channel": 3,
      "note": 47,
      "start": 9.0738,
      "duration": 0.0941,
      "velocity": 127,
      "chip": "ym2612"
    },
    {
      "channel": 1,
      "note": 50,
      "start": 9.1881,
      "duration": 0.0332,
      "velocity": 98,
      "chip": "ym2612"
    },
    {
      "channel": 2,
      "note": 98,
      "start": 9.1886,
      "duration": 0.0131,
      "velocity": 98,
      "chip": "ym2612"
    },
    {
      "channel": 3,
      "note": 47,
      "start": 9.1916,
      "duration": 0.0277,
      "velocity": 127,
      "chip": "ym2612"
    },
    {
      "channel": 1,
      "note": 48,
      "start": 9.2215,
      "duration": 0.1326,
      "velocity": 98,
      "chip": "ym2612"
    },
    {
      "channel": 2,
      "note": 96,
      "start": 9.222,
      "duration": 0.0129,
      "velocity": 98,
      "chip": "ym2612"
    },
    {
      "channel": 3,
      "note": 47,
      "start": 9.225,
      "duration": 0.0126,
      "velocity": 127,
      "chip": "ym2612"
    },
    {
      "channel": 3,
      "note": 47,
      "start": 9.2404,
      "duration": 0.0934,
      "velocity": 127,
      "chip": "ym2612"
    },
    {
      "channel": 0,
      "note": 62,
      "start": 9.3538,
      "duration": 0.0648,
      "velocity": 102,
      "chip": "ym2612"
    },
    {
      "channel": 1,
      "note": 47,
      "start": 9.3543,
      "duration": 0.0363,
      "velocity": 98,
      "chip": "ym2612"
    },
    {
      "channel": 2,
      "note": 95,
      "start": 9.3548,
      "duration": 0.0132,
      "velocity": 98,
      "chip": "ym2612"
    },
    {
      "channel": 3,
      "note": 47,
      "start": 9.3578,
      "duration": 0.0129,
      "velocity": 127,
      "chip": "ym2612"
    },
    {
      "channel": 3,
      "note": 47,
      "start": 9.3758,
      "duration": 0.013,
      "velocity": 127,
      "chip": "ym2612"
    },
    {
      "channel": 4,
      "note": 67,
      "start": 9.3812,
      "duration": 0.0624,
      "velocity": 102,
      "chip": "ym2612"
    },
    {
      "channel": 1,
      "note": 45,
      "start": 9.3909,
      "duration": 0.031,
      "velocity": 98,
      "chip": "ym2612"
    },
    {
      "channel": 2,
      "note": 93,
      "start": 9.3914,
      "duration": 0.0101,
      "velocity": 98,
      "chip": "ym2612"
    },
    {
      "channel": 3,
      "note": 47,
      "start": 9.392,
      "duration": 0.0122,
      "velocity": 127,
      "chip": "ym2612"
    },
    {
      "channel": 3,
      "note": 47,
      "start": 9.4069,
      "duration": 0.0125,
      "velocity": 127,
      "chip": "ym2612"
    },
    {
      "channel": 0,
      "note": 67,
      "start": 9.4215,
      "duration": 0.3994,
      "velocity": 102,
      "chip": "ym2612"
    },
    {
      "channel": 1,
      "note": 43,
      "start": 9.4222,
      "duration": 0.2535,
      "velocity": 98,
      "chip": "ym2612"
    },
    {
      "channel": 3,
      "note": 47,
      "start": 9.4259,
      "duration": 0.2093,
      "velocity": 127,
      "chip": "ym2612"
    },
    {
      "channel": 4,
      "note": 62,
      "start": 9.4466,
      "duration": 0.4143,
      "velocity": 102,
      "chip": "ym2612"
    },
    {
      "channel": 2,
      "note": 91,
      "start": 9.4559,
      "duration": 0.0972,
      "velocity": 98,
      "chip": "ym2612"
    },
    {
      "channel": 2,
      "note": 95,
      "start": 9.5533,
      "duration": 0.1229,
      "velocity": 98,
      "chip": "ym2612"
    },
    {
      "channel": 3,
      "note": 47,
      "start": 9.656,
      "duration": 0.0001,
      "velocity": 127,
      "chip": "ym2612"
    },
    {
      "channel": 1,
      "note": 43,
      "start": 9.676,
      "duration": 0.1659,
      "velocity": 98,
      "chip": "ym2612"
    },
    {
      "channel": 2,
      "note": 98,
      "start": 9.6765,
      "duration": 0.0102,
      "velocity": 98,
      "chip": "ym2612"
    },
    {
      "channel": 3,
      "note": 49,
      "start": 9.6772,
      "duration": 0.124,
      "velocity": 127,
      "chip": "ym2612"
    },
    {
      "channel": 2,
      "note": 95,
      "start": 9.7064,
      "duration": 0.0103,
      "velocity": 98,
      "chip": "ym2612"
    },
    {
      "channel": 3,
      "note": 47,
      "start": 9.822,
      "duration": 0.0001,
      "velocity": 127,
      "chip": "ym2612"
    },
    {
      "channel": 0,
      "note": 62,
      "start": 9.8416,
      "duration": 0.2675,
      "velocity": 102,
      "chip": "ym2612"
    },
    {
      "channel": 1,
      "note": 47,
      "start": 9.8421,
      "duration": 0.254,
      "velocity": 98,
      "chip": "ym2612"
    },
    {
      "channel": 2,
      "note": 103,
      "start": 9.8426,
      "duration": 0.0105,
      "velocity": 98,
      "chip": "ym2612"
    },
    {
      "channel": 3,
      "note": 49,
      "start": 9.8432,
      "duration": 0.2123,
      "velocity": 127,
      "chip": "ym2612"
    },
    {
      "channel": 4,
      "note": 67,
      "start": 9.8635,
      "duration": 0.2668,
      "velocity": 102,
      "chip": "ym2612"
    },
    {
      "channel": 2,
      "note": 95,
      "start": 9.8727,
      "duration": 0.0598,
      "velocity": 98,
      "chip": "ym2612"
    },
    {
      "channel": 3,
      "note": 47,
      "start": 10.0763,
      "duration": 0.0001,
      "velocity": 127,
      "chip": "ym2612"
    },
    {
      "channel": 1,
      "note": 50,
      "start": 10.0963,
      "duration": 0.1661,
      "velocity": 98,
      "chip": "ym2612"
    },
    {
      "channel": 2,
      "note": 98,
      "start": 10.0968,
      "duration": 0.0104,
      "velocity": 98,
      "chip": "ym2612"
    },
    {
      "channel": 3,
      "note": 49,
      "start": 10.0974,
      "duration": 0.1243,
      "velocity": 127,
      "chip": "ym2612"
    },
    {
      "channel": 0,
      "note": 62,
      "start": 10.1262,
      "duration": 0.0128,
      "velocity": 102,
      "chip": "ym2612"
    },
    {
      "channel": 2,
      "note": 95,
      "start": 10.1269,
      "duration": 0.0102,
      "velocity": 98,
      "chip": "ym2612"
    },
    {
      "channel": 4,
      "note": 62,
      "start": 10.1812,
      "duration": 0.0859,
      "velocity": 102,
      "chip": "ym2612"
    },
    {
      "channel": 3,
      "note": 47,
      "start": 10.2424,
      "duration": 0.0001,
      "velocity": 127,
      "chip": "ym2612"
    },
    {
      "channel": 0,
      "note": 62,
      "start": 10.2622,
      "duration": 0.5222,
      "velocity": 102,
      "chip": "ym2612"
    },
    {
      "channel": 1,
      "note": 55,
      "start": 10.2627,
      "duration": 0.254,
      "velocity": 98,
      "chip": "ym2612"
    },
    {
      "channel": 2,
      "note": 103,
      "start": 10.2632,
      "duration": 0.0081,
      "velocity": 98,
      "chip": "ym2612"
    },
    {
      "channel": 3,
      "note": 49,
      "start": 10.2639,
      "duration": 0.2123,
      "velocity": 127,
      "chip": "ym2612"
    },
    {
      "channel": 2,
      "note": 105,
      "start": 10.2716,
      "duration": 0.0072,
      "velocity": 98,
      "chip": "ym2612"
    },
    {
      "channel": 2,
      "note": 103,
      "start": 10.279,
      "duration": 0.0075,
      "velocity": 98,
      "chip": "ym2612"
    },
    {
      "channel": 4,
      "note": 62,
      "start": 10.2846,
      "duration": 0.5221,
      "velocity": 102,
      "chip": "ym2612"
    },
    {
      "channel": 2,
      "note": 105,
      "start": 10.2868,
      "duration": 0.0072,
      "velocity": 98,
      "chip": "ym2612"
    },
    {
      "channel": 2,
      "note": 103,
      "start": 10.2942,
      "duration": 0.0384,
      "velocity": 98,
      "chip": "ym2612"
    },
    {
      "channel": 2,
      "note": 105,
      "start": 10.3329,
      "duration": 0.0611,
      "velocity": 98,
      "chip": "ym2612"
    },
    {
      "channel": 2,
      "note": 103,
      "start": 10.3942,
      "duration": 0.0612,
      "velocity": 98,
      "chip": "ym2612"
    },
    {
      "channel": 2,
      "note": 105,
      "start": 10.4556,
      "duration": 0.0616,
      "velocity": 98,
      "chip": "ym2612"
    },
    {
      "channel": 3,
      "note": 47,
      "start": 10.4969,
      "duration": 0.0001,
      "velocity": 127,
      "chip": "ym2612"
    },
    {
      "channel": 1,
      "note": 43,
      "start": 10.5169,
      "duration": 0.1722,
      "velocity": 98,
      "chip": "ym2612"
    },
    {
      "channel": 2,
      "note": 103,
      "start": 10.5175,
      "duration": 0.0104,
      "velocity": 98,
      "chip": "ym2612"
    },
    {
      "channel": 3,
      "note": 49,
      "start": 10.5181,
      "duration": 0.2127,
      "velocity": 127,
      "chip": "ym2612"
    },
    {
      "channel": 2,
      "note": 95,
      "start": 10.5473,
      "duration": 0.0601,
      "velocity": 98,
      "chip": "ym2612"
    },
    {
      "channel": 1,
      "note": 52,
      "start": 10.6893,
      "duration": 0.0407,
      "velocity": 98,
      "chip": "ym2612"
    },
    {
      "channel": 1,
      "note": 54,
      "start": 10.7302,
      "duration": 0.0407,
      "velocity": 98,
      "chip": "ym2612"
    },
    {
      "channel": 3,
      "note": 47,
      "start": 10.7512,
      "duration": 0.0001,
      "velocity": 127,
      "chip": "ym2612"
    },
    {
      "channel": 1,
      "note": 55,
      "start": 10.7712,
      "duration": 0.0311,
      "velocity": 98,
      "chip": "ym2612"
    },
    {
      "channel": 2,
      "note": 103,
      "start": 10.7717,
      "duration": 0.0106,
      "velocity": 98,
      "chip": "ym2612"
    },
    {
      "channel": 3,
      "note": 49,
      "start": 10.7723,
      "duration": 0.0128,
      "velocity": 127,
      "chip": "ym2612"
    },
    {
      "channel": 3,
      "note": 47,
      "start": 10.788,
      "duration": 0.012,
      "velocity": 127,
      "chip": "ym2612"
    },
    {
      "channel": 0,
      "note": 59,
      "start": 10.8019,
      "duration": 0.0799,
      "velocity": 102,
      "chip": "ym2612"
    },
    {
      "channel": 1,
      "note": 54,
      "start": 10.8024,
      "duration": 0.2231,
      "velocity": 98,
      "chip": "ym2612"
    },
    {
      "channel": 2,
      "note": 91,
      "start": 10.8031,
      "duration": 0.0997,
      "velocity": 98,
      "chip": "ym2612"
    },
    {
      "channel": 3,
      "note": 47,
      "start": 10.8037,
      "duration": 0.0789,
      "velocity": 127,
      "chip": "ym2612"
    },
    {
      "channel": 2,
      "note": 95,
      "start": 10.9031,
      "duration": 0.123,
      "velocity": 98,
      "chip": "ym2612"
    },
    {
      "channel": 3,
      "note": 47,
      "start": 10.9036,
      "duration": 0.0812,
      "velocity": 127,
      "chip": "ym2612"
    },
    {
      "channel": 4,
      "note": 62,
      "start": 10.9444,
      "duration": 0.0858,
      "velocity": 102,
      "chip": "ym2612"
    },
    {
      "channel": 3,
      "note": 47,
      "start": 11.0056,
      "duration": 0.0001,
      "velocity": 127,
      "chip": "ym2612"
    },
    {
      "channel": 0,
      "note": 67,
      "start": 11.0253,
      "duration": 0.1453,
      "velocity": 102,
      "chip": "ym2612"
    },
    {
      "channel": 1,
      "note": 52,
      "start": 11.0258,
      "duration": 0.0302,
      "velocity": 98,
      "chip": "ym2612"
    },
    {
      "channel": 2,
      "note": 98,
      "start": 11.0264,
      "duration": 0.0105,
      "velocity": 98,
      "chip": "ym2612"
    },
    {
      "channel": 3,
      "note": 49,
      "start": 11.0271,
      "duration": 0.1238,
      "velocity": 127,
      "chip": "ym2612"
    },
    {
      "channel": 4,
      "note": 59,
      "start": 11.0471,
      "duration": 0.1656,
      "velocity": 102,
      "chip": "ym2612"
    },
    {
      "channel": 1,
      "note": 50,
      "start": 11.0562,
      "duration": 0.1354,
      "velocity": 98,
      "chip": "ym2612"
    },
    {
      "channel": 2,
      "note": 95,
      "start": 11.0567,
      "duration": 0.0098,
      "velocity": 98,
      "chip": "ym2612"
    },
    {
      "channel": 3,
      "note": 47,
      "start": 11.1716,
      "duration": 0.0001,
      "velocity": 127,
      "chip": "ym2612"
    },
    {
      "channel": 0,
      "note": 69,
      "start": 11.1913,
      "duration": 0.3996,
      "velocity": 102,
      "chip": "ym2612"
    },
    {
      "channel": 1,
      "note": 54,
      "start": 11.1918,
      "duration": 0.2538,
      "velocity": 98,
      "chip": "ym2612"
    },
    {
      "channel": 3,
      "note": 49,
      "start": 11.1954,
      "duration": 0.2098,
      "velocity": 127,
      "chip": "ym2612"
    },
    {
      "channel": 4,
      "note": 67,
      "start": 11.2154,
      "duration": 0.4155,
      "velocity": 102,
      "chip": "ym2612"
    },
    {
      "channel": 2,
      "note": 90,
      "start": 11.2247,
      "duration": 0.0983,
      "velocity": 98,
      "chip": "ym2612"
    },
    {
      "channel": 2,
      "note": 93,
      "start": 11.3233,
      "duration": 0.1228,
      "velocity": 98,
      "chip": "ym2612"
    },
    {
      "channel": 3,
      "note": 47,
      "start": 11.4259,
      "duration": 0.0001,
      "velocity": 127,
      "chip": "ym2612"
    },
    {
      "channel": 1,
      "note": 45,
      "start": 11.4459,
      "duration": 0.166,
      "velocity": 98,
      "chip": "ym2612"
    },
    {
      "channel": 2,
      "note": 96,
      "start": 11.4465,
      "duration": 0.0102,
      "velocity": 98,
      "chip": "ym2612"
    },
    {
      "channel": 3,
      "note": 49,
      "start": 11.4471,
      "duration": 0.1241,
      "velocity": 127,
      "chip": "ym2612"
    },
    {
      "channel": 2,
      "note": 93,
      "start": 11.4763,
      "duration": 0.0103,
      "velocity": 98,
      "chip": "ym2612"
    },
    {
      "channel": 3,
      "note": 47,
      "start": 11.592,
      "duration": 0.0001,
      "velocity": 127,
      "chip": "ym2612"
    },
    {
      "channel": 0,
      "note": 62,
      "start": 11.6115,
      "duration": 0.2676,
      "velocity": 102,
      "chip": "ym2612"
    },
    {
      "channel": 1,
      "note": 50,
      "start": 11.6121,
      "duration": 0.2539,
      "velocity": 98,
      "chip": "ym2612"
    },
    {
      "channel": 2,
      "note": 102,
      "start": 11.6126,
      "duration": 0.0105,
      "velocity": 98,
      "chip": "ym2612"
    },
    {
      "channel": 3,
      "note": 49,
      "start": 11.6132,
      "duration": 0.2123,
      "velocity": 127,
      "chip": "ym2612"
    },
    {
      "channel": 4,
      "note": 69,
      "start": 11.6335,
      "duration": 0.2668,
      "velocity": 102,
      "chip": "ym2612"
    },
    {
      "channel": 2,
      "note": 93,
      "start": 11.6427,
      "duration": 0.0597,
      "velocity": 98,
      "chip": "ym2612"
    },
    {
      "channel": 3,
      "note": 47,
      "start": 11.8462,
      "duration": 0.0001,
      "velocity": 127,
      "chip": "ym2612"
    },
    {
      "channel": 1,
      "note": 54,
      "start": 11.8662,
      "duration": 0.166,
      "velocity": 98,
      "chip": "ym2612"
    },
    {
      "channel": 2,
      "note": 96,
      "start": 11.8667,
      "duration": 0.0105,
      "velocity": 98,
      "chip": "ym2612"
    },
    {
      "channel": 3,
      "note": 49,
      "start": 11.8673,
      "duration": 0.1242,
      "velocity": 127,
      "chip": "ym2612"
    },
    {
      "channel": 0,
      "note": 62,
      "start": 11.8961,
      "duration": 0.0127,
      "velocity": 102,
      "chip": "ym2612"
    },
    {
      "channel": 2,
      "note": 93,
      "start": 11.8968,
      "duration": 0.01,
      "velocity": 98,
      "chip": "ym2612"
    },
    {
      "channel": 4,
      "note": 62,
      "start": 11.951,
      "duration": 0.0859,
      "velocity": 102,
      "chip": "ym2612"
    },
    {
      "channel": 3,
      "note": 47,
      "start": 12.0122,
      "duration": 0.0001,
      "velocity": 127,
      "chip": "ym2612"
    },
    {
      "channel": 0,
      "note": 62,
      "start": 12.0319,
      "duration": 0.4881,
      "velocity": 102,
      "chip": "ym2612"
    },
    {
      "channel": 1,
      "note": 57,
      "start": 12.0325,
      "duration": 0.0311,
      "velocity": 98,
      "chip": "ym2612"
    },
    {
      "channel": 2,
      "note": 102,
      "start": 12.033,
      "duration": 0.0082,
      "velocity": 98,
      "chip": "ym2612"
    },
    {
      "channel": 3,
      "note": 49,
      "start": 12.0336,
      "duration": 0.2123,
      "velocity": 127,
      "chip": "ym2612"
    },
    {
      "channel": 2,
      "note": 103,
      "start": 12.0415,
      "duration": 0.0071,
      "velocity": 98,
      "chip": "ym2612"
    },
    {
      "channel": 2,
      "note": 102,
      "start": 12.0489,
      "duration": 0.0075,
      "velocity": 98,
      "chip": "ym2612"
    },
    {
      "channel": 4,
      "note": 62,
      "start": 12.0545,
      "duration": 0.5058,
      "velocity": 102,
      "chip": "ym2612"
    },
    {
      "channel": 2,
      "note": 103,
      "start": 12.0566,
      "duration": 0.0074,
      "velocity": 98,
      "chip": "ym2612"
    },
    {
      "channel": 1,
      "note": 50,
      "start": 12.0638,
      "duration": 0.0997,
      "velocity": 98,
      "chip": "ym2612"
    },
    {
      "channel": 2,
      "note": 102,
      "start": 12.0643,
      "duration": 0.038,
      "velocity": 98,
      "chip": "ym2612"
    },
    {
      "channel": 2,
      "note": 103,
      "start": 12.1026,
      "duration": 0.0615,
      "velocity": 98,
      "chip": "ym2612"
    },
    {
      "channel": 1,
      "note": 54,
      "start": 12.1638,
      "duration": 0.1226,
      "velocity": 98,
      "chip": "ym2612"
    },
    {
      "channel": 2,
      "note": 102,
      "start": 12.1644,
      "duration": 0.0608,
      "velocity": 98,
      "chip": "ym2612"
    },
    {
      "channel": 2,
      "note": 103,
      "start": 12.2254,
      "duration": 0.0615,
      "velocity": 98,
      "chip": "ym2612"
    },
    {
      "channel": 3,
      "note": 47,
      "start": 12.2667,
      "duration": 0.0001,
      "velocity": 127,
      "chip": "ym2612"
    },
    {
      "channel": 1,
      "note": 57,
      "start": 12.2866,
      "duration": 0.0301,
      "velocity": 98,
      "chip": "ym2612"
    },
    {
      "channel": 2,
      "note": 102,
      "start": 12.2872,
      "duration": 0.0105,
      "velocity": 98,
      "chip": "ym2612"
    },
    {
      "channel": 3,
      "note": 49,
      "start": 12.2878,
      "duration": 0.2127,
      "velocity": 127,
      "chip": "ym2612"
    },
    {
      "channel": 1,
      "note": 50,
      "start": 12.3169,
      "duration": 0.1419,
      "velocity": 98,
      "chip": "ym2612"
    },
    {
      "channel": 2,
      "note": 93,
      "start": 12.3174,
      "duration": 0.0598,
      "velocity": 98,
      "chip": "ym2612"
    },
    {
      "channel": 1,
      "note": 57,
      "start": 12.4591,
      "duration": 0.0407,
      "velocity": 98,
      "chip": "ym2612"
    },
    {
      "channel": 1,
      "note": 59,
      "start": 12.5,
      "duration": 0.041,
      "velocity": 98,
      "chip": "ym2612"
    },
    {
      "channel": 3,
      "note": 47,
      "start": 12.521,
      "duration": 0.0001,
      "velocity": 127,
      "chip": "ym2612"
    },
    {
      "channel": 0,
      "note": 62,
      "start": 12.5406,
      "duration": 0.2338,
      "velocity": 102,
      "chip": "ym2612"
    },
    {
      "channel": 1,
      "note": 60,
      "start": 12.5411,
      "duration": 0.0308,
      "velocity": 98,
      "chip": "ym2612"
    },
    {
      "channel": 2,
      "note": 102,
      "start": 12.5416,
      "duration": 0.0106,
      "velocity": 98,
      "chip": "ym2612"
    },
    {
      "channel": 3,
      "note": 49,
      "start": 12.5423,
      "duration": 0.0126,
      "velocity": 127,
      "chip": "ym2612"
    },
    {
      "channel": 3,
      "note": 47,
      "start": 12.5575,
      "duration": 0.0124,
      "velocity": 127,
      "chip": "ym2612"
    },
    {
      "channel": 4,
      "note": 62,
      "start": 12.563,
      "duration": 0.2511,
      "velocity": 102,
      "chip": "ym2612"
    },
    {
      "channel": 1,
      "note": 57,
      "start": 12.5721,
      "duration": 0.2232,
      "velocity": 98,
      "chip": "ym2612"
    },
    {
      "channel": 2,
      "note": 93,
      "start": 12.5726,
      "duration": 0.0589,
      "velocity": 98,
      "chip": "ym2612"
    },
    {
      "channel": 3,
      "note": 47,
      "start": 12.5733,
      "duration": 0.079,
      "velocity": 127,
      "chip": "ym2612"
    },
    {
      "channel": 3,
      "note": 47,
      "start": 12.673,
      "duration": 0.0816,
      "velocity": 127,
      "chip": "ym2612"
    },
    {
      "channel": 3,
      "note": 47,
      "start": 12.7754,
      "duration": 0.0001,
      "velocity": 127,
      "chip": "ym2612"
    },
    {
      "channel": 0,
      "note": 69,
      "start": 12.795,
      "duration": 0.1455,
      "velocity": 102,
      "chip": "ym2612"
    },
    {
      "channel": 1,
      "note": 54,
      "start": 12.7955,
      "duration": 0.0301,
      "velocity": 98,
      "chip": "ym2612"
    },
    {
      "channel": 2,
      "note": 96,
      "start": 12.796,
      "duration": 0.0104,
      "velocity": 98,
      "chip": "ym2612"
    },
    {
      "channel": 3,
      "note": 49,
      "start": 12.7967,
      "duration": 0.1241,
      "velocity": 127,
      "chip": "ym2612"
    },
    {
      "channel": 4,
      "note": 62,
      "start": 12.8168,
      "duration": 0.166,
      "velocity": 102,
      "chip": "ym2612"
    },
    {
      "channel": 1,
      "note": 50,
      "start": 12.8258,
      "duration": 0.1357,
      "velocity": 98,
      "chip": "ym2612"
    },
    {
      "channel": 2,
      "note": 93,
      "start": 12.8263,
      "duration": 0.0099,
      "velocity": 98,
      "chip": "ym2612"
    },
    {
      "channel": 3,
      "note": 47,
      "start": 12.9416,
      "duration": 0.0001,
      "velocity": 127,
      "chip": "ym2612"
    },
    {
      "channel": 0,
      "note": 71,
      "start": 12.9612,
      "duration": 0.3998,
      "velocity": 102,
      "chip": "ym2612"
    },
    {
      "channel": 1,
      "note": 55,
      "start": 12.9617,
      "duration": 0.2538,
      "velocity": 98,
      "chip": "ym2612"
    },
    {
      "channel": 3,
      "note": 49,
      "start": 12.9652,
      "duration": 0.2099,
      "velocity": 127,
      "chip": "ym2612"
    },
    {
      "channel": 4,
      "note": 69,
      "start": 12.9854,
      "duration": 0.4155,
      "velocity": 102,
      "chip": "ym2612"
    },
    {
      "channel": 2,
      "note": 95,
      "start": 12.9947,
      "duration": 0.0983,
      "velocity": 98,
      "chip": "ym2612"
    },
    {
      "channel": 2,
      "note": 98,
      "start": 13.0932,
      "duration": 0.1229,
      "velocity": 98,
      "chip": "ym2612"
    },
    {
      "channel": 3,
      "note": 47,
      "start": 13.1959,
      "duration": 0.0001,
      "velocity": 127,
      "chip": "ym2612"
    },
    {
      "channel": 1,
      "note": 43,
      "start": 13.2158,
      "duration": 0.1662,
      "velocity": 98,
      "chip": "ym2612"
    },
    {
      "channel": 2,
      "note": 103,
      "start": 13.2164,
      "duration": 0.0102,
      "velocity": 98,
      "chip": "ym2612"
    },
    {
      "channel": 3,
      "note": 49,
      "start": 13.217,
      "duration": 0.1243,
      "velocity": 127,
      "chip": "ym2612"
    },
    {
      "channel": 2,
      "note": 95,
      "start": 13.2463,
      "duration": 0.0104,
      "velocity": 98,
      "chip": "ym2612"
    },
    {
      "channel": 3,
      "note": 47,
      "start": 13.3622,
      "duration": 0.0001,
      "velocity": 127,
      "chip": "ym2612"
    },
    {
      "channel": 0,
      "note": 67,
      "start": 13.3817,
      "duration": 0.2675,
      "velocity": 102,
      "chip": "ym2612"
    },
    {
      "channel": 1,
      "note": 47,
      "start": 13.3822,
      "duration": 0.2539,
      "velocity": 98,
      "chip": "ym2612"
    },
    {
      "channel": 2,
      "note": 107,
      "start": 13.3828,
      "duration": 0.0105,
      "velocity": 98,
      "chip": "ym2612"
    },
    {
      "channel": 3,
      "note": 49,
      "start": 13.3834,
      "duration": 0.2122,
      "velocity": 127,
      "chip": "ym2612"
    },
    {
      "channel": 4,
      "note": 71,
      "start": 13.4036,
      "duration": 0.2666,
      "velocity": 102,
      "chip": "ym2612"
    },
    {
      "channel": 2,
      "note": 95,
      "start": 13.4128,
      "duration": 0.0598,
      "velocity": 98,
      "chip": "ym2612"
    },
    {
      "channel": 3,
      "note": 47,
      "start": 13.6165,
      "duration": 0.0001,
      "velocity": 127,
      "chip": "ym2612"
    },
    {
      "channel": 1,
      "note": 50,
      "start": 13.6364,
      "duration": 0.166,
      "velocity": 98,
      "chip": "ym2612"
    },
    {
      "channel": 2,
      "note": 98,
      "start": 13.6369,
      "duration": 0.0104,
      "velocity": 98,
      "chip": "ym2612"
    },
    {
      "channel": 3,
      "note": 49,
      "start": 13.6375,
      "duration": 0.1241,
      "velocity": 127,
      "chip": "ym2612"
    },
    {
      "channel": 0,
      "note": 69,
      "start": 13.6661,
      "duration": 0.0127,
      "velocity": 102,
      "chip": "ym2612"
    },
    {
      "channel": 2,
      "note": 95,
      "start": 13.6668,
      "duration": 0.0101,
      "velocity": 98,
      "chip": "ym2612"
    },
    {
      "channel": 0,
      "note": 71,
      "start": 13.6815,
      "duration": 0.0998,
      "velocity": 102,
      "chip": "ym2612"
    },
    {
      "channel": 4,
      "note": 67,
      "start": 13.7212,
      "duration": 0.0856,
      "velocity": 102,
      "chip": "ym2612"
    },
    {
      "channel": 3,
      "note": 47,
      "start": 13.7824,
      "duration": 0.0001,
      "velocity": 127,
      "chip": "ym2612"
    },
    {
      "channel": 0,
      "note": 72,
      "start": 13.802,
      "duration": 0.2676,
      "velocity": 102,
      "chip": "ym2612"
    },
    {
      "channel": 1,
      "note": 52,
      "start": 13.8026,
      "duration": 0.2539,
      "velocity": 98,
      "chip": "ym2612"
    },
    {
      "channel": 3,
      "note": 49,
      "start": 13.8035,
      "duration": 0.2125,
      "velocity": 127,
      "chip": "ym2612"
    },
    {
      "channel": 4,
      "note": 69,
      "start": 13.8094,
      "duration": 0.012,
      "velocity": 102,
      "chip": "ym2612"
    },
    {
      "channel": 4,
      "note": 71,
      "start": 13.8239,
      "duration": 0.2671,
      "velocity": 102,
      "chip": "ym2612"
    },
    {
      "channel": 2,
      "note": 96,
      "start": 13.8332,
      "duration": 0.1006,
      "velocity": 98,
      "chip": "ym2612"
    },
    {
      "channel": 2,
      "note": 100,
      "start": 13.934,
      "duration": 0.123,
      "velocity": 98,
      "chip": "ym2612"
    },
    {
      "channel": 3,
      "note": 47,
      "start": 14.0367,
      "duration": 0.0001,
      "velocity": 127,
      "chip": "ym2612"
    },
    {
      "channel": 1,
      "note": 48,
      "start": 14.0567,
      "duration": 0.2545,
      "velocity": 98,
      "chip": "ym2612"
    },
    {
      "channel": 2,
      "note": 103,
      "start": 14.0573,
      "duration": 0.0103,
      "velocity": 98,
      "chip": "ym2612"
    },
    {
      "channel": 3,
      "note": 49,
      "start": 14.058,
      "duration": 0.2125,
      "velocity": 127,
      "chip": "ym2612"
    },
    {
      "channel": 0,
      "note": 72,
      "start": 14.0867,
      "duration": 0.0807,
      "velocity": 102,
      "chip": "ym2612"
    },
    {
      "channel": 2,
      "note": 96,
      "start": 14.0874,
      "duration": 0.06,
      "velocity": 98,
      "chip": "ym2612"
    },
    {
      "channel": 4,
      "note": 72,
      "start": 14.23,
      "duration": 0.0857,
      "velocity": 102,
      "chip": "ym2612"
    },
    {
      "channel": 3,
      "note": 47,
      "start": 14.2912,
      "duration": 0.0001,
      "velocity": 127,
      "chip": "ym2612"
    },
    {
      "channel": 0,
      "note": 64,
      "start": 14.3108,
      "duration": 0.3997,
      "velocity": 102,
      "chip": "ym2612"
    },
    {
      "channel": 1,
      "note": 55,
      "start": 14.3113,
      "duration": 0.2538,
      "velocity": 98,
      "chip": "ym2612"
    },
    {
      "channel": 2,
      "note": 108,
      "start": 14.3119,
      "duration": 0.0105,
      "velocity": 98,
      "chip": "ym2612"
    },
    {
      "channel": 3,
      "note": 49,
      "start": 14.3125,
      "duration": 0.0125,
      "velocity": 127,
      "chip": "ym2612"
    },
    {
      "channel": 3,
      "note": 47,
      "start": 14.3276,
      "duration": 0.0123,
      "velocity": 127,
      "chip": "ym2612"
    },
    {
      "channel": 4,
      "note": 72,
      "start": 14.333,
      "duration": 0.4179,
      "velocity": 102,
      "chip": "ym2612"
    },
    {
      "channel": 2,
      "note": 96,
      "start": 14.3423,
      "duration": 0.0593,
      "velocity": 98,
      "chip": "ym2612"
    },
    {
      "channel": 3,
      "note": 47,
      "start": 14.3428,
      "duration": 0.0795,
      "velocity": 127,
      "chip": "ym2612"
    },
    {
      "channel": 3,
      "note": 47,
      "start": 14.443,
      "duration": 0.0816,
      "velocity": 127,
      "chip": "ym2612"
    },
    {
      "channel": 3,
      "note": 47,
      "start": 14.5454,
      "duration": 0.0001,
      "velocity": 127,
      "chip": "ym2612"
    },
    {
      "channel": 1,
      "note": 52,
      "start": 14.5654,
      "duration": 0.1661,
      "velocity": 98,
      "chip": "ym2612"
    },
    {
      "channel": 2,
      "note": 100,
      "start": 14.5658,
      "duration": 0.0105,
      "velocity": 98,
      "chip": "ym2612"
    },
    {
      "channel": 3,
      "note": 49,
      "start": 14.5665,
      "duration": 0.1242,
      "velocity": 127,
      "chip": "ym2612"
    },
    {
      "channel": 2,
      "note": 96,
      "start": 14.5959,
      "duration": 0.0102,
      "velocity": 98,
      "chip": "ym2612"
    },
    {
      "channel": 3,
      "note": 47,
      "start": 14.7115,
      "duration": 0.0001,
      "velocity": 127,
      "chip": "ym2612"
    },
    {
      "channel": 0,
      "note": 67,
      "start": 14.7311,
      "duration": 0.2683,
      "velocity": 102,
      "chip": "ym2612"
    },
    {
      "channel": 2,
      "note": 103,
      "start": 14.7321,
      "duration": 0.008,
      "velocity": 98,
      "chip": "ym2612"
    },
    {
      "channel": 2,
      "note": 105,
      "start": 14.7403,
      "duration": 0.0073,
      "velocity": 98,
      "chip": "ym2612"
    },
    {
      "channel": 2,
      "note": 103,
      "start": 14.7479,
      "duration": 0.0076,
      "velocity": 98,
      "chip": "ym2612"
    },
    {
      "channel": 4,
      "note": 64,
      "start": 14.7535,
      "duration": 0.4106,
      "velocity": 102,
      "chip": "ym2612"
    },
    {
      "channel": 2,
      "note": 105,
      "start": 14.7558,
      "duration": 0.0076,
      "velocity": 98,
      "chip": "ym2612"
    },
    {
      "channel": 1,
      "note": 50,
      "start": 14.7631,
      "duration": 0.0159,
      "velocity": 98,
      "chip": "ym2612"
    },
    {
      "channel": 2,
      "note": 103,
      "start": 14.7637,
      "duration": 0.008,
      "velocity": 98,
      "chip": "ym2612"
    },
    {
      "channel": 3,
      "note": 49,
      "start": 14.7642,
      "duration": 0.0129,
      "velocity": 127,
      "chip": "ym2612"
    },
    {
      "channel": 2,
      "note": 105,
      "start": 14.7719,
      "duration": 0.0077,
      "velocity": 98,
      "chip": "ym2612"
    },
    {
      "channel": 1,
      "note": 50,
      "start": 14.7793,
      "duration": 0.1181,
      "velocity": 98,
      "chip": "ym2612"
    },
    {
      "channel": 2,
      "note": 103,
      "start": 14.7798,
      "duration": 0.0564,
      "velocity": 98,
      "chip": "ym2612"
    },
    {
      "channel": 3,
      "note": 47,
      "start": 14.7804,
      "duration": 0.097,
      "velocity": 127,
      "chip": "ym2612"
    },
    {
      "channel": 2,
      "note": 105,
      "start": 14.8364,
      "duration": 0.0615,
      "velocity": 98,
      "chip": "ym2612"
    },
    {
      "channel": 1,
      "note": 50,
      "start": 14.8976,
      "duration": 0.4912,
      "velocity": 98,
      "chip": "ym2612"
    },
    {
      "channel": 2,
      "note": 103,
      "start": 14.8982,
      "duration": 0.0812,
      "velocity": 98,
      "chip": "ym2612"
    },
    {
      "channel": 3,
      "note": 47,
      "start": 14.8988,
      "duration": 0.2241,
      "velocity": 127,
      "chip": "ym2612"
    },
    {
      "channel": 0,
      "note": 62,
      "start": 15.1429,
      "duration": 0.1021,
      "velocity": 102,
      "chip": "ym2612"
    },
    {
      "channel": 2,
      "note": 98,
      "start": 15.1436,
      "duration": 0.0814,
      "velocity": 98,
      "chip": "ym2612"
    },
    {
      "channel": 3,
      "note": 47,
      "start": 15.1442,
      "duration": 0.2743,
      "velocity": 127,
      "chip": "ym2612"
    },
    {
      "channel": 4,
      "note": 67,
      "start": 15.3076,
      "duration": 0.0854,
      "velocity": 102,
      "chip": "ym2612"
    },
    {
      "channel": 0,
      "note": 66,
      "start": 15.3884,
      "duration": 0.2684,
      "velocity": 102,
      "chip": "ym2612"
    },
    {
      "channel": 2,
      "note": 102,
      "start": 15.3894,
      "duration": 0.008,
      "velocity": 98,
      "chip": "ym2612"
    },
    {
      "channel": 2,
      "note": 103,
      "start": 15.3977,
      "duration": 0.0073,
      "velocity": 98,
      "chip": "ym2612"
    },
    {
      "channel": 2,
      "note": 102,
      "start": 15.4052,
      "duration": 0.0078,
      "velocity": 98,
      "chip": "ym2612"
    },
    {
      "channel": 4,
      "note": 62,
      "start": 15.411,
      "duration": 0.4105,
      "velocity": 102,
      "chip": "ym2612"
    },
    {
      "channel": 2,
      "note": 103,
      "start": 15.4132,
      "duration": 0.0078,
      "velocity": 98,
      "chip": "ym2612"
    },
    {
      "channel": 1,
      "note": 50,
      "start": 15.4207,
      "duration": 0.0158,
      "velocity": 98,
      "chip": "ym2612"
    },
    {
      "channel": 2,
      "note": 102,
      "start": 15.4212,
      "duration": 0.0079,
      "velocity": 98,
      "chip": "ym2612"
    },
    {
      "channel": 3,
      "note": 47,
      "start": 15.4219,
      "duration": 0.0127,
      "velocity": 127,
      "chip": "ym2612"
    },
    {
      "channel": 2,
      "note": 103,
      "start": 15.4294,
      "duration": 0.0076,
      "velocity": 98,
      "chip": "ym2612"
    },
    {
      "channel": 1,
      "note": 50,
      "start": 15.4367,
      "duration": 0.118,
      "velocity": 98,
      "chip": "ym2612"
    },
    {
      "channel": 2,
      "note": 102,
      "start": 15.4373,
      "duration": 0.0563,
      "velocity": 98,
      "chip": "ym2612"
    },
    {
      "channel": 3,
      "note": 47,
      "start": 15.4379,
      "duration": 0.0969,
      "velocity": 127,
      "chip": "ym2612"
    },
    {
      "channel": 2,
      "note": 103,
      "start": 15.4938,
      "duration": 0.0615,
      "velocity": 98,
      "chip": "ym2612"
    },
    {
      "channel": 1,
      "note": 50,
      "start": 15.555,
      "duration": 0.4915,
      "velocity": 98,
      "chip": "ym2612"
    },
    {
      "channel": 2,
      "note": 102,
      "start": 15.5556,
      "duration": 0.0812,
      "velocity": 98,
      "chip": "ym2612"
    },
    {
      "channel": 3,
      "note": 47,
      "start": 15.5562,
      "duration": 0.2241,
      "velocity": 127,
      "chip": "ym2612"
    },
    {
      "channel": 0,
      "note": 62,
      "start": 15.8003,
      "duration": 0.1021,
      "velocity": 102,
      "chip": "ym2612"
    },
    {
      "channel": 2,
      "note": 98,
      "start": 15.801,
      "duration": 0.0814,
      "velocity": 98,
      "chip": "ym2612"
    },
    {
      "channel": 3,
      "note": 47,
      "start": 15.8016,
      "duration": 0.1016,
      "velocity": 127,
      "chip": "ym2612"
    },
    {
      "channel": 3,
      "note": 47,
      "start": 15.9239,
      "duration": 0.1021,
      "velocity": 127,
      "chip": "ym2612"
    },
    {
      "channel": 4,
      "note": 66,
      "start": 15.965,
      "duration": 0.0916,
      "velocity": 102,
      "chip": "ym2612"
    },
    {
      "channel": 0,
      "note": 67,
      "start": 16.0462,
      "duration": 0.1451,
      "velocity": 102,
      "chip": "ym2612"
    },
    {
      "channel": 1,
      "note": 55,
      "start": 16.0473,
      "duration": 0.1649,
      "velocity": 98,
      "chip": "ym2612"
    },
    {
      "channel": 2,
      "note": 103,
      "start": 16.0484,
      "duration": 0.1435,
      "velocity": 98,
      "chip": "ym2612"
    },
    {
      "channel": 3,
      "note": 47,
      "start": 16.0522,
      "duration": 0.14,
      "velocity": 127,
      "chip": "ym2612"
    },
    {
      "channel": 4,
      "note": 62,
      "start": 16.0739,
      "duration": 0.1599,
      "velocity": 102,
      "chip": "ym2612"
    },
    {
      "channel": 1,
      "note": 50,
      "start": 16.2124,
      "duration": 0.1659,
      "velocity": 98,
      "chip": "ym2612"
    },
    {
      "channel": 3,
      "note": 47,
      "start": 16.2134,
      "duration": 0.0126,
      "velocity": 127,
      "chip": "ym2612"
    },
    {
      "channel": 3,
      "note": 47,
      "start": 16.231,
      "duration": 0.0121,
      "velocity": 127,
      "chip": "ym2612"
    },
    {
      "channel": 3,
      "note": 47,
      "start": 16.2457,
      "duration": 0.0119,
      "velocity": 127,
      "chip": "ym2612"
    },
    {
      "channel": 3,
      "note": 47,
      "start": 16.2602,
      "duration": 0.0982,
      "velocity": 127,
      "chip": "ym2612"
    },
    {
      "channel": 1,
      "note": 43,
      "start": 16.3785,
      "duration": 0.0619,
      "velocity": 98,
      "chip": "ym2612"
    },
    {
      "channel": 3,
      "note": 47,
      "start": 16.3819,
      "duration": 0.0562,
      "velocity": 127,
      "chip": "ym2612"
    },
    {
      "channel": 0,
      "note": 67,
      "start": 16.4401,
      "duration": 0.2189,
      "velocity": 102,
      "chip": "ym2612"
    },
    {
      "channel": 1,
      "note": 55,
      "start": 16.4406,
      "duration": 0.3621,
      "velocity": 98,
      "chip": "ym2612"
    },
    {
      "channel": 3,
      "note": 47,
      "start": 16.4415,
      "duration": 0.341,
      "velocity": 127,
      "chip": "ym2612"
    },
    {
      "channel": 4,
      "note": 67,
      "start": 16.5988,
      "duration": 0.2249,
      "velocity": 102,
      "chip": "ym2612"
    },
    {
      "channel": 0,
      "note": 67,
      "start": 16.8024,
      "duration": 0.1021,
      "velocity": 102,
      "chip": "ym2612"
    },
    {
      "channel": 1,
      "note": 55,
      "start": 16.8029,
      "duration": 0.1226,
      "velocity": 98,
      "chip": "ym2612"
    },
    {
      "channel": 3,
      "note": 47,
      "start": 16.8037,
      "duration": 0.1016,
      "velocity": 127,
      "chip": "ym2612"
    },
    {
      "channel": 0,
      "note": 66,
      "start": 16.9252,
      "duration": 0.5192,
      "velocity": 102,
      "chip": "ym2612"
    },
    {
      "channel": 1,
      "note": 54,
      "start": 16.9258,
      "duration": 0.5217,
      "velocity": 98,
      "chip": "ym2612"
    },
    {
      "channel": 3,
      "note": 47,
      "start": 16.9292,
      "duration": 0.0375,
      "velocity": 127,
      "chip": "ym2612"
    },
    {
      "channel": 4,
      "note": 67,
      "start": 16.9672,
      "duration": 0.102,
      "velocity": 102,
      "chip": "ym2612"
    },
    {
      "channel": 3,
      "note": 47,
      "start": 16.9873,
      "duration": 0.0407,
      "velocity": 127,
      "chip": "ym2612"
    },
    {
      "channel": 3,
      "note": 47,
      "start": 17.0511,
      "duration": 0.0384,
      "velocity": 127,
      "chip": "ym2612"
    },
    {
      "channel": 4,
      "note": 67,
      "start": 17.0901,
      "duration": 0.3761,
      "velocity": 102,
      "chip": "ym2612"
    },
    {
      "channel": 3,
      "note": 47,
      "start": 17.1101,
      "duration": 0.0407,
      "velocity": 127,
      "chip": "ym2612"
    },
    {
      "channel": 2,
      "note": 90,
      "start": 17.1713,
      "duration": 0.0816,
      "velocity": 98,
      "chip": "ym2612"
    },
    {
      "channel": 3,
      "note": 47,
      "start": 17.1744,
      "duration": 0.0993,
      "velocity": 127,
      "chip": "ym2612"
    },
    {
      "channel": 2,
      "note": 94,
      "start": 17.2531,
      "duration": 0.0816,
      "velocity": 98,
      "chip": "ym2612"
    },
    {
      "channel": 3,
      "note": 47,
      "start": 17.2943,
      "duration": 0.1022,
      "velocity": 127,
      "chip": "ym2612"
    },
    {
      "channel": 2,
      "note": 97,
      "start": 17.335,
      "duration": 0.0817,
      "velocity": 98,
      "chip": "ym2612"
    },
    {
      "channel": 2,
      "note": 102,
      "start": 17.417,
      "duration": 0.0229,
      "velocity": 98,
      "chip": "ym2612"
    },
    {
      "channel": 3,
      "note": 47,
      "start": 17.4176,
      "duration": 0.0276,
      "velocity": 127,
      "chip": "ym2612"
    },
    {
      "channel": 0,
      "note": 66,
      "start": 17.4472,
      "duration": 0.0102,
      "velocity": 102,
      "chip": "ym2612"
    },
    {
      "channel": 1,
      "note": 54,
      "start": 17.4477,
      "duration": 0.015,
      "velocity": 98,
      "chip": "ym2612"
    },
    {
      "channel": 3,
      "note": 47,
      "start": 17.4486,
      "duration": 0.0274,
      "velocity": 127,
      "chip": "ym2612"
    },
    {
      "channel": 0,
      "note": 66,
      "start": 17.4624,
      "duration": 0.0105,
      "velocity": 102,
      "chip": "ym2612"
    },
    {
      "channel": 1,
      "note": 54,
      "start": 17.4629,
      "duration": 0.0154,
      "velocity": 98,
      "chip": "ym2612"
    },
    {
      "channel": 4,
      "note": 66,
      "start": 17.4689,
      "duration": 0.0134,
      "velocity": 102,
      "chip": "ym2612"
    },
    {
      "channel": 0,
      "note": 66,
      "start": 17.478,
      "duration": 0.0758,
      "velocity": 102,
      "chip": "ym2612"
    },
    {
      "channel": 1,
      "note": 54,
      "start": 17.4785,
      "duration": 0.2394,
      "velocity": 98,
      "chip": "ym2612"
    },
    {
      "channel": 3,
      "note": 47,
      "start": 17.4819,
      "duration": 0.0317,
      "velocity": 127,
      "chip": "ym2612"
    },
    {
      "channel": 4,
      "note": 66,
      "start": 17.5141,
      "duration": 0.0845,
      "velocity": 102,
      "chip": "ym2612"
    },
    {
      "channel": 3,
      "note": 47,
      "start": 17.5342,
      "duration": 0.0407,
      "velocity": 127,
      "chip": "ym2612"
    },
    {
      "channel": 0,
      "note": 66,
      "start": 17.5949,
      "duration": 0.0817,
      "velocity": 102,
      "chip": "ym2612"
    },
    {
      "channel": 3,
      "note": 47,
      "start": 17.5983,
      "duration": 0.038,
      "velocity": 127,
      "chip": "ym2612"
    },
    {
      "channel": 4,
      "note": 66,
      "start": 17.637,
      "duration": 0.0847,
      "velocity": 102,
      "chip": "ym2612"
    },
    {
      "channel": 3,
      "note": 47,
      "start": 17.6571,
      "duration": 0.0406,
      "velocity": 127,
      "chip": "ym2612"
    },
    {
      "channel": 0,
      "note": 66,
      "start": 17.7176,
      "duration": 0.0817,
      "velocity": 102,
      "chip": "ym2612"
    },
    {
      "channel": 3,
      "note": 47,
      "start": 17.7212,
      "duration": 0.0993,
      "velocity": 127,
      "chip": "ym2612"
    },
    {
      "channel": 4,
      "note": 66,
      "start": 17.7596,
      "duration": 0.0822,
      "velocity": 102,
      "chip": "ym2612"
    },
    {
      "channel": 0,
      "note": 66,
      "start": 17.8405,
      "duration": 0.0817,
      "velocity": 102,
      "chip": "ym2612"
    },
    {
      "channel": 3,
      "note": 47,
      "start": 17.8415,
      "duration": 0.1019,
      "velocity": 127,
      "chip": "ym2612"
    },
    {
      "channel": 4,
      "note": 66,
      "start": 17.8824,
      "duration": 0.0828,
      "velocity": 102,
      "chip": "ym2612"
    },
    {
      "channel": 0,
      "note": 66,
      "start": 17.9632,
      "duration": 0.0817,
      "velocity": 102,
      "chip": "ym2612"
    },
    {
      "channel": 1,
      "note": 54,
      "start": 17.9638,
      "duration": 0.2453,
      "velocity": 98,
      "chip": "ym2612"
    },
    {
      "channel": 3,
      "note": 47,
      "start": 17.9647,
      "duration": 0.2242,
      "velocity": 127,
      "chip": "ym2612"
    },
    {
      "channel": 4,
      "note": 66,
      "start": 18.0052,
      "duration": 0.082,
      "velocity": 102,
      "chip": "ym2612"
    },
    {
      "channel": 0,
      "note": 66,
      "start": 18.086,
      "duration": 0.0817,
      "velocity": 102,
      "chip": "ym2612"
    },
    {
      "channel": 4,
      "note": 66,
      "start": 18.128,
      "duration": 0.0824,
      "velocity": 102,
      "chip": "ym2612"
    },
    {
      "channel": 0,
      "note": 66,
      "start": 18.2088,
      "duration": 0.0816,
      "velocity": 102,
      "chip": "ym2612"
    },
    {
      "channel": 3,
      "note": 47,
      "start": 18.21,
      "duration": 0.2245,
      "velocity": 127,
      "chip": "ym2612"
    },
    {
      "channel": 4,
      "note": 66,
      "start": 18.2508,
      "duration": 0.0819,
      "velocity": 102,
      "chip": "ym2612"
    },
    {
      "channel": 0,
      "note": 66,
      "start": 18.3316,
      "duration": 0.0817,
      "velocity": 102,
      "chip": "ym2612"
    },
    {
      "channel": 4,
      "note": 66,
      "start": 18.3736,
      "duration": 0.0852,
      "velocity": 102,
      "chip": "ym2612"
    },
    {
      "channel": 0,
      "note": 71,
      "start": 18.4545,
      "duration": 0.1454,
      "velocity": 102,
      "chip": "ym2612"
    },
    {
      "channel": 1,
      "note": 59,
      "start": 18.455,
      "duration": 0.053,
      "velocity": 98,
      "chip": "ym2612"
    },
    {
      "channel": 3,
      "note": 47,
      "start": 18.4585,
      "duration": 0.0275,
      "velocity": 127,
      "chip": "ym2612"
    },
    {
      "channel": 4,
      "note": 66,
      "start": 18.4645,
      "duration": 0.0095,
      "velocity": 102,
      "chip": "ym2612"
    },
    {
      "channel": 4,
      "note": 66,
      "start": 18.479,
      "duration": 0.1632,
      "velocity": 102,
      "chip": "ym2612"
    },
    {
      "channel": 2,
      "note": 95,
      "start": 18.4884,
      "duration": 0.0174,
      "velocity": 98,
      "chip": "ym2612"
    },
    {
      "channel": 3,
      "note": 47,
      "start": 18.4914,
      "duration": 0.0073,
      "velocity": 127,
      "chip": "ym2612"
    },
    {
      "channel": 3,
      "note": 47,
      "start": 18.5037,
      "duration": 0.0151,
      "velocity": 127,
      "chip": "ym2612"
    },
    {
      "channel": 1,
      "note": 53,
      "start": 18.5083,
      "duration": 0.1124,
      "velocity": 98,
      "chip": "ym2612"
    },
    {
      "channel": 2,
      "note": 97,
      "start": 18.5088,
      "duration": 0.0917,
      "velocity": 98,
      "chip": "ym2612"
    },
    {
      "channel": 3,
      "note": 47,
      "start": 18.5419,
      "duration": 0.0588,
      "velocity": 127,
      "chip": "ym2612"
    },
    {
      "channel": 1,
      "note": 54,
      "start": 18.621,
      "duration": 0.0326,
      "velocity": 98,
      "chip": "ym2612"
    },
    {
      "channel": 2,
      "note": 98,
      "start": 18.6214,
      "duration": 0.0153,
      "velocity": 98,
      "chip": "ym2612"
    },
    {
      "channel": 3,
      "note": 47,
      "start": 18.6244,
      "duration": 0.0272,
      "velocity": 127,
      "chip": "ym2612"
    },
    {
      "channel": 2,
      "note": 97,
      "start": 18.6393,
      "duration": 0.012,
      "velocity": 98,
      "chip": "ym2612"
    },
    {
      "channel": 1,
      "note": 50,
      "start": 18.6538,
      "duration": 0.1331,
      "velocity": 98,
      "chip": "ym2612"
    },
    {
      "channel": 2,
      "note": 95,
      "start": 18.6543,
      "duration": 0.0175,
      "velocity": 98,
      "chip": "ym2612"
    },
    {
      "channel": 3,
      "note": 47,
      "start": 18.6573,
      "duration": 0.0072,
      "velocity": 127,
      "chip": "ym2612"
    },
    {
      "channel": 3,
      "note": 47,
      "start": 18.6695,
      "duration": 0.0154,
      "velocity": 127,
      "chip": "ym2612"
    },
    {
      "channel": 2,
      "note": 94,
      "start": 18.6743,
      "duration": 0.0922,
      "velocity": 98,
      "chip": "ym2612"
    },
    {
      "channel": 3,
      "note": 47,
      "start": 18.708,
      "duration": 0.0588,
      "velocity": 127,
      "chip": "ym2612"
    },
    {
      "channel": 1,
      "note": 47,
      "start": 18.7872,
      "duration": 0.1659,
      "velocity": 98,
      "chip": "ym2612"
    },
    {
      "channel": 2,
      "note": 95,
      "start": 18.7877,
      "duration": 0.0412,
      "velocity": 98,
      "chip": "ym2612"
    },
    {
      "channel": 3,
      "note": 47,
      "start": 18.7907,
      "duration": 0.1422,
      "velocity": 127,
      "chip": "ym2612"
    },
    {
      "channel": 0,
      "note": 64,
      "start": 18.9527,
      "duration": 0.2249,
      "velocity": 102,
      "chip": "ym2612"
    },
    {
      "channel": 1,
      "note": 52,
      "start": 18.9533,
      "duration": 0.3681,
      "velocity": 98,
      "chip": "ym2612"
    },
    {
      "channel": 3,
      "note": 47,
      "start": 18.9542,
      "duration": 0.347,
      "velocity": 127,
      "chip": "ym2612"
    },
    {
      "channel": 4,
      "note": 71,
      "start": 19.1175,
      "duration": 0.2249,
      "velocity": 102,
      "chip": "ym2612"
    },
    {
      "channel": 0,
      "note": 64,
      "start": 19.3211,
      "duration": 0.1021,
      "velocity": 102,
      "chip": "ym2612"
    },
    {
      "channel": 1,
      "note": 52,
      "start": 19.3216,
      "duration": 0.1226,
      "velocity": 98,
      "chip": "ym2612"
    },
    {
      "channel": 3,
      "note": 47,
      "start": 19.3249,
      "duration": 0.0992,
      "velocity": 127,
      "chip": "ym2612"
    },
    {
      "channel": 0,
      "note": 64,
      "start": 19.4439,
      "duration": 0.5193,
      "velocity": 102,
      "chip": "ym2612"
    },
    {
      "channel": 1,
      "note": 52,
      "start": 19.4444,
      "duration": 0.5219,
      "velocity": 98,
      "chip": "ym2612"
    },
    {
      "channel": 3,
      "note": 47,
      "start": 19.448,
      "duration": 0.0373,
      "velocity": 127,
      "chip": "ym2612"
    },
    {
      "channel": 4,
      "note": 64,
      "start": 19.4859,
      "duration": 0.1021,
      "velocity": 102,
      "chip": "ym2612"
    },
    {
      "channel": 3,
      "note": 47,
      "start": 19.5061,
      "duration": 0.0407,
      "velocity": 127,
      "chip": "ym2612"
    },
    {
      "channel": 3,
      "note": 47,
      "start": 19.5698,
      "duration": 0.0383,
      "velocity": 127,
      "chip": "ym2612"
    },
    {
      "channel": 4,
      "note": 64,
      "start": 19.6087,
      "duration": 0.3763,
      "velocity": 102,
      "chip": "ym2612"
    },
    {
      "channel": 3,
      "note": 47,
      "start": 19.6289,
      "duration": 0.0407,
      "velocity": 127,
      "chip": "ym2612"
    },
    {
      "channel": 2,
      "note": 88,
      "start": 19.69,
      "duration": 0.0815,
      "velocity": 98,
      "chip": "ym2612"
    },
    {
      "channel": 3,
      "note": 47,
      "start": 19.693,
      "duration": 0.0994,
      "velocity": 127,
      "chip": "ym2612"
    },
    {
      "channel": 2,
      "note": 92,
      "start": 19.7718,
      "duration": 0.0816,
      "velocity": 98,
      "chip": "ym2612"
    },
    {
      "channel": 3,
      "note": 47,
      "start": 19.813,
      "duration": 0.1022,
      "velocity": 127,
      "chip": "ym2612"
    },
    {
      "channel": 2,
      "note": 95,
      "start": 19.8537,
      "duration": 0.0817,
      "velocity": 98,
      "chip": "ym2612"
    },
    {
      "channel": 2,
      "note": 100,
      "start": 19.9358,
      "duration": 0.0254,
      "velocity": 98,
      "chip": "ym2612"
    },
    {
      "channel": 3,
      "note": 47,
      "start": 19.9363,
      "duration": 0.0276,
      "velocity": 127,
      "chip": "ym2612"
    },
    {
      "channel": 0,
      "note": 64,
      "start": 19.966,
      "duration": 0.0103,
      "velocity": 102,
      "chip": "ym2612"
    },
    {
      "channel": 1,
      "note": 52,
      "start": 19.9666,
      "duration": 0.0151,
      "velocity": 98,
      "chip": "ym2612"
    },
    {
      "channel": 3,
      "note": 47,
      "start": 19.9673,
      "duration": 0.0276,
      "velocity": 127,
      "chip": "ym2612"
    },
    {
      "channel": 0,
      "note": 64,
      "start": 19.9813,
      "duration": 0.0105,
      "velocity": 102,
      "chip": "ym2612"
    },
    {
      "channel": 1,
      "note": 52,
      "start": 19.9818,
      "duration": 0.0154,
      "velocity": 98,
      "chip": "ym2612"
    },
    {
      "channel": 4,
      "note": 64,
      "start": 19.9879,
      "duration": 0.0133,
      "velocity": 102,
      "chip": "ym2612"
    },
    {
      "channel": 0,
      "note": 64,
      "start": 19.9969,
      "duration": 0.0757,
      "velocity": 102,
      "chip": "ym2612"
    },
    {
      "channel": 1,
      "note": 52,
      "start": 19.9974,
      "duration": 0.2394,
      "velocity": 98,
      "chip": "ym2612"
    },
    {
      "channel": 3,
      "note": 47,
      "start": 20.0007,
      "duration": 0.0316,
      "velocity": 127,
      "chip": "ym2612"
    },
    {
      "channel": 4,
      "note": 64,
      "start": 20.0329,
      "duration": 0.0846,
      "velocity": 102,
      "chip": "ym2612"
    },
    {
      "channel": 3,
      "note": 47,
      "start": 20.0531,
      "duration": 0.0408,
      "velocity": 127,
      "chip": "ym2612"
    },
    {
      "channel": 0,
      "note": 64,
      "start": 20.1137,
      "duration": 0.0816,
      "velocity": 102,
      "chip": "ym2612"
    },
    {
      "channel": 3,
      "note": 47,
      "start": 20.1171,
      "duration": 0.038,
      "velocity": 127,
      "chip": "ym2612"
    },
    {
      "channel": 4,
      "note": 64,
      "start": 20.1557,
      "duration": 0.0847,
      "velocity": 102,
      "chip": "ym2612"
    },
    {
      "channel": 3,
      "note": 47,
      "start": 20.1759,
      "duration": 0.0407,
      "velocity": 127,
      "chip": "ym2612"
    },
    {
      "channel": 0,
      "note": 64,
      "start": 20.2365,
      "duration": 0.0816,
      "velocity": 102,
      "chip": "ym2612"
    },
    {
      "channel": 3,
      "note": 47,
      "start": 20.2401,
      "duration": 0.0992,
      "velocity": 127,
      "chip": "ym2612"
    },
    {
      "channel": 4,
      "note": 64,
      "start": 20.2784,
      "duration": 0.0824,
      "velocity": 102,
      "chip": "ym2612"
    },
    {
      "channel": 0,
      "note": 64,
      "start": 20.3593,
      "duration": 0.0817,
      "velocity": 102,
      "chip": "ym2612"
    },
    {
      "channel": 3,
      "note": 47,
      "start": 20.3604,
      "duration": 0.1018,
      "velocity": 127,
      "chip": "ym2612"
    },
    {
      "channel": 4,
      "note": 64,
      "start": 20.4012,
      "duration": 0.0827,
      "velocity": 102,
      "chip": "ym2612"
    },
    {
      "channel": 0,
      "note": 64,
      "start": 20.4821,
      "duration": 0.0817,
      "velocity": 102,
      "chip": "ym2612"
    },
    {
      "channel": 1,
      "note": 52,
      "start": 20.4826,
      "duration": 0.2454,
      "velocity": 98,
      "chip": "ym2612"
    },
    {
      "channel": 3,
      "note": 47,
      "start": 20.4835,
      "duration": 0.2242,
      "velocity": 127,
      "chip": "ym2612"
    },
    {
      "channel": 4,
      "note": 64,
      "start": 20.524,
      "duration": 0.0819,
      "velocity": 102,
      "chip": "ym2612"
    },
    {
      "channel": 0,
      "note": 64,
      "start": 20.6048,
      "duration": 0.0817,
      "velocity": 102,
      "chip": "ym2612"
    },
    {
      "channel": 4,
      "note": 64,
      "start": 20.6468,
      "duration": 0.0824,
      "velocity": 102,
      "chip": "ym2612"
    },
    {
      "channel": 0,
      "note": 64,
      "start": 20.7277,
      "duration": 0.0817,
      "velocity": 102,
      "chip": "ym2612"
    },
    {
      "channel": 3,
      "note": 47,
      "start": 20.7288,
      "duration": 0.2245,
      "velocity": 127,
      "chip": "ym2612"
    },
    {
      "channel": 4,
      "note": 64,
      "start": 20.7696,
      "duration": 0.082,
      "velocity": 102,
      "chip": "ym2612"
    },
    {
      "channel": 0,
      "note": 64,
      "start": 20.8505,
      "duration": 0.0817,
      "velocity": 102,
      "chip": "ym2612"
    },
    {
      "channel": 4,
      "note": 64,
      "start": 20.8924,
      "duration": 0.0863,
      "velocity": 102,
      "chip": "ym2612"
    },
    {
      "channel": 0,
      "note": 69,
      "start": 20.9734,
      "duration": 0.4704,
      "velocity": 102,
      "chip": "ym2612"
    },
    {
      "channel": 1,
      "note": 57,
      "start": 20.9739,
      "duration": 0.4908,
      "velocity": 98,
      "chip": "ym2612"
    },
    {
      "channel": 3,
      "note": 47,
      "start": 20.9782,
      "duration": 0.2207,
      "velocity": 127,
      "chip": "ym2612"
    },
    {
      "channel": 4,
      "note": 64,
      "start": 21.0152,
      "duration": 0.0816,
      "velocity": 102,
      "chip": "ym2612"
    },
    {
      "channel": 4,
      "note": 64,
      "start": 21.1381,
      "duration": 0.3479,
      "velocity": 102,
      "chip": "ym2612"
    },
    {
      "channel": 3,
      "note": 47,
      "start": 21.222,
      "duration": 0.0588,
      "velocity": 127,
      "chip": "ym2612"
    },
    {
      "channel": 3,
      "note": 47,
      "start": 21.3038,
      "duration": 0.0588,
      "velocity": 127,
      "chip": "ym2612"
    },
    {
      "channel": 3,
      "note": 47,
      "start": 21.3857,
      "duration": 0.0589,
      "velocity": 127,
      "chip": "ym2612"
    },
    {
      "channel": 0,
      "note": 66,
      "start": 21.4644,
      "duration": 0.1454,
      "velocity": 102,
      "chip": "ym2612"
    },
    {
      "channel": 1,
      "note": 54,
      "start": 21.465,
      "duration": 0.1659,
      "velocity": 98,
      "chip": "ym2612"
    },
    {
      "channel": 2,
      "note": 97,
      "start": 21.4655,
      "duration": 0.1449,
      "velocity": 98,
      "chip": "ym2612"
    },
    {
      "channel": 3,
      "note": 47,
      "start": 21.4685,
      "duration": 0.0271,
      "velocity": 127,
      "chip": "ym2612"
    },
    {
      "channel": 4,
      "note": 69,
      "start": 21.4888,
      "duration": 0.2859,
      "velocity": 102,
      "chip": "ym2612"
    },
    {
      "channel": 3,
      "note": 47,
      "start": 21.5007,
      "duration": 0.0071,
      "velocity": 127,
      "chip": "ym2612"
    },
    {
      "channel": 3,
      "note": 47,
      "start": 21.5129,
      "duration": 0.0158,
      "velocity": 127,
      "chip": "ym2612"
    },
    {
      "channel": 3,
      "note": 47,
      "start": 21.5519,
      "duration": 0.0588,
      "velocity": 127,
      "chip": "ym2612"
    },
    {
      "channel": 0,
      "note": 68,
      "start": 21.6305,
      "duration": 0.4705,
      "velocity": 102,
      "chip": "ym2612"
    },
    {
      "channel": 1,
      "note": 54,
      "start": 21.631,
      "duration": 0.491,
      "velocity": 98,
      "chip": "ym2612"
    },
    {
      "channel": 2,
      "note": 98,
      "start": 21.6315,
      "duration": 0.4701,
      "velocity": 98,
      "chip": "ym2612"
    },
    {
      "channel": 3,
      "note": 47,
      "start": 21.6345,
      "duration": 0.2216,
      "velocity": 127,
      "chip": "ym2612"
    },
    {
      "channel": 4,
      "note": 66,
      "start": 21.7953,
      "duration": 0.348,
      "velocity": 102,
      "chip": "ym2612"
    },
    {
      "channel": 3,
      "note": 47,
      "start": 21.8793,
      "duration": 0.0588,
      "velocity": 127,
      "chip": "ym2612"
    },
    {
      "channel": 3,
      "note": 47,
      "start": 21.9611,
      "duration": 0.0588,
      "velocity": 127,
      "chip": "ym2612"
    },
    {
      "channel": 3,
      "note": 47,
      "start": 22.043,
      "duration": 0.059,
      "velocity": 127,
      "chip": "ym2612"
    },
    {
      "channel": 0,
      "note": 70,
      "start": 22.1217,
      "duration": 0.1457,
      "velocity": 102,
      "chip": "ym2612"
    },
    {
      "channel": 1,
      "note": 42,
      "start": 22.1222,
      "duration": 0.1661,
      "velocity": 98,
      "chip": "ym2612"
    },
    {
      "channel": 2,
      "note": 97,
      "start": 22.1227,
      "duration": 0.1452,
      "velocity": 98,
      "chip": "ym2612"
    },
    {
      "channel": 3,
      "note": 47,
      "start": 22.1257,
      "duration": 0.0272,
      "velocity": 127,
      "chip": "ym2612"
    },
    {
      "channel": 4,
      "note": 68,
      "start": 22.146,
      "duration": 0.2861,
      "velocity": 102,
      "chip": "ym2612"
    },
    {
      "channel": 3,
      "note": 47,
      "start": 22.1579,
      "duration": 0.0072,
      "velocity": 127,
      "chip": "ym2612"
    },
    {
      "channel": 3,
      "note": 47,
      "start": 22.1702,
      "duration": 0.016,
      "velocity": 127,
      "chip": "ym2612"
    },
    {
      "channel": 3,
      "note": 47,
      "start": 22.2093,
      "duration": 0.0589,
      "velocity": 127,
      "chip": "ym2612"
    },
    {
      "channel": 0,
      "note": 71,
      "start": 22.288,
      "duration": 0.4706,
      "velocity": 102,
      "chip": "ym2612"
    },
    {
      "channel": 1,
      "note": 43,
      "start": 22.2885,
      "duration": 0.491,
      "velocity": 98,
      "chip": "ym2612"
    },
    {
      "channel": 2,
      "note": 95,
      "start": 22.289,
      "duration": 0.47,
      "velocity": 98,
      "chip": "ym2612"
    },
    {
      "channel": 3,
      "note": 47,
      "start": 22.2921,
      "duration": 0.2215,
      "velocity": 127,
      "chip": "ym2612"
    },
    {
      "channel": 4,
      "note": 70,
      "start": 22.4527,
      "duration": 0.348,
      "velocity": 102,
      "chip": "ym2612"
    },
    {
      "channel": 3,
      "note": 47,
      "start": 22.5367,
      "duration": 0.0588,
      "velocity": 127,
      "chip": "ym2612"
    },
    {
      "channel": 3,
      "note": 47,
      "start": 22.6186,
      "duration": 0.0588,
      "velocity": 127,
      "chip": "ym2612"
    },
    {
      "channel": 3,
      "note": 47,
      "start": 22.7005,
      "duration": 0.0589,
      "velocity": 127,
      "chip": "ym2612"
    },
    {
      "channel": 0,
      "note": 73,
      "start": 22.7792,
      "duration": 0.1456,
      "velocity": 102,
      "chip": "ym2612"
    },
    {
      "channel": 1,
      "note": 43,
      "start": 22.7797,
      "duration": 0.166,
      "velocity": 98,
      "chip": "ym2612"
    },
    {
      "channel": 2,
      "note": 93,
      "start": 22.7802,
      "duration": 0.1451,
      "velocity": 98,
      "chip": "ym2612"
    },
    {
      "channel": 3,
      "note": 47,
      "start": 22.7832,
      "duration": 0.0271,
      "velocity": 127,
      "chip": "ym2612"
    },
    {
      "channel": 4,
      "note": 71,
      "start": 22.8034,
      "duration": 0.2861,
      "velocity": 102,
      "chip": "ym2612"
    },
    {
      "channel": 3,
      "note": 47,
      "start": 22.8154,
      "duration": 0.0072,
      "velocity": 127,
      "chip": "ym2612"
    },
    {
      "channel": 3,
      "note": 47,
      "start": 22.8276,
      "duration": 0.0161,
      "velocity": 127,
      "chip": "ym2612"
    },
    {
      "channel": 3,
      "note": 47,
      "start": 22.8667,
      "duration": 0.0589,
      "velocity": 127,
      "chip": "ym2612"
    },
    {
      "channel": 0,
      "note": 74,
      "start": 22.9454,
      "duration": 0.4705,
      "velocity": 102,
      "chip": "ym2612"
    },
    {
      "channel": 1,
      "note": 43,
      "start": 22.9459,
      "duration": 0.491,
      "velocity": 98,
      "chip": "ym2612"
    },
    {
      "channel": 2,
      "note": 91,
      "start": 22.9464,
      "duration": 0.47,
      "velocity": 98,
      "chip": "ym2612"
    },
    {
      "channel": 3,
      "note": 47,
      "start": 22.9494,
      "duration": 0.2216,
      "velocity": 127,
      "chip": "ym2612"
    },
    {
      "channel": 4,
      "note": 73,
      "start": 23.1102,
      "duration": 0.348,
      "velocity": 102,
      "chip": "ym2612"
    },
    {
      "channel": 3,
      "note": 47,
      "start": 23.1941,
      "duration": 0.0588,
      "velocity": 127,
      "chip": "ym2612"
    },
    {
      "channel": 3,
      "note": 47,
      "start": 23.276,
      "duration": 0.0587,
      "velocity": 127,
      "chip": "ym2612"
    },
    {
      "channel": 3,
      "note": 47,
      "start": 23.3579,
      "duration": 0.0589,
      "velocity": 127,
      "chip": "ym2612"
    },
    {
      "channel": 0,
      "note": 62,
      "start": 23.4366,
      "duration": 0.1456,
      "velocity": 102,
      "chip": "ym2612"
    },
    {
      "channel": 1,
      "note": 47,
      "start": 23.4371,
      "duration": 0.166,
      "velocity": 98,
      "chip": "ym2612"
    },
    {
      "channel": 2,
      "note": 90,
      "start": 23.4376,
      "duration": 0.145,
      "velocity": 98,
      "chip": "ym2612"
    },
    {
      "channel": 3,
      "note": 47,
      "start": 23.4406,
      "duration": 0.0271,
      "velocity": 127,
      "chip": "ym2612"
    },
    {
      "channel": 4,
      "note": 74,
      "start": 23.4608,
      "duration": 0.2861,
      "velocity": 102,
      "chip": "ym2612"
    },
    {
      "channel": 3,
      "note": 47,
      "start": 23.4728,
      "duration": 0.0071,
      "velocity": 127,
      "chip": "ym2612"
    },
    {
      "channel": 3,
      "note": 47,
      "start": 23.4849,
      "duration": 0.0161,
      "velocity": 127,
      "chip": "ym2612"
    },
    {
      "channel": 3,
      "note": 47,
      "start": 23.5241,
      "duration": 0.0589,
      "velocity": 127,
      "chip": "ym2612"
    },
    {
      "channel": 0,
      "note": 64,
      "start": 23.6028,
      "duration": 0.7249,
      "velocity": 102,
      "chip": "ym2612"
    },
    {
      "channel": 1,
      "note": 49,
      "start": 23.6033,
      "duration": 0.7454,
      "velocity": 98,
      "chip": "ym2612"
    },
    {
      "channel": 2,
      "note": 95,
      "start": 23.6038,
      "duration": 0.7244,
      "velocity": 98,
      "chip": "ym2612"
    },
    {
      "channel": 3,
      "note": 47,
      "start": 23.607,
      "duration": 0.0987,
      "velocity": 127,
      "chip": "ym2612"
    },
    {
      "channel": 3,
      "note": 47,
      "start": 23.7287,
      "duration": 0.0997,
      "velocity": 127,
      "chip": "ym2612"
    },
    {
      "channel": 4,
      "note": 62,
      "start": 23.7676,
      "duration": 0.7249,
      "velocity": 102,
      "chip": "ym2612"
    },
    {
      "channel": 3,
      "note": 47,
      "start": 23.8491,
      "duration": 0.1021,
      "velocity": 127,
      "chip": "ym2612"
    },
    {
      "channel": 3,
      "note": 47,
      "start": 23.9719,
      "duration": 0.1022,
      "velocity": 127,
      "chip": "ym2612"
    },
    {
      "channel": 3,
      "note": 47,
      "start": 24.0972,
      "duration": 0.2314,
      "velocity": 127,
      "chip": "ym2612"
    },
    {
      "channel": 0,
      "note": 64,
      "start": 24.3483,
      "duration": 0.725,
      "velocity": 102,
      "chip": "ym2612"
    },
    {
      "channel": 1,
      "note": 49,
      "start": 24.3488,
      "duration": 0.7454,
      "velocity": 98,
      "chip": "ym2612"
    },
    {
      "channel": 2,
      "note": 95,
      "start": 24.3494,
      "duration": 0.7244,
      "velocity": 98,
      "chip": "ym2612"
    },
    {
      "channel": 3,
      "note": 47,
      "start": 24.35,
      "duration": 0.1012,
      "velocity": 127,
      "chip": "ym2612"
    },
    {
      "channel": 3,
      "note": 47,
      "start": 24.4744,
      "duration": 0.0997,
      "velocity": 127,
      "chip": "ym2612"
    },
    {
      "channel": 4,
      "note": 64,
      "start": 24.5131,
      "duration": 0.6002,
      "velocity": 102,
      "chip": "ym2612"
    },
    {
      "channel": 3,
      "note": 47,
      "start": 24.5947,
      "duration": 0.102,
      "velocity": 127,
      "chip": "ym2612"
    },
    {
      "channel": 3,
      "note": 47,
      "start": 24.7175,
      "duration": 0.1022,
      "velocity": 127,
      "chip": "ym2612"
    },
    {
      "channel": 3,
      "note": 47,
      "start": 24.8428,
      "duration": 0.2313,
      "velocity": 127,
      "chip": "ym2612"
    },
    {
      "channel": 0,
      "note": 66,
      "start": 25.0939,
      "duration": 0.0651,
      "velocity": 102,
      "chip": "ym2612"
    },
    {
      "channel": 1,
      "note": 42,
      "start": 25.0944,
      "duration": 0.0675,
      "velocity": 98,
      "chip": "ym2612"
    },
    {
      "channel": 2,
      "note": 94,
      "start": 25.0949,
      "duration": 0.526,
      "velocity": 98,
      "chip": "ym2612"
    },
    {
      "channel": 3,
      "note": 47,
      "start": 25.0956,
      "duration": 0.0273,
      "velocity": 127,
      "chip": "ym2612"
    },
    {
      "channel": 4,
      "note": 64,
      "start": 25.116,
      "duration": 0.1779,
      "velocity": 102,
      "chip": "ym2612"
    },
    {
      "channel": 3,
      "note": 47,
      "start": 25.1279,
      "duration": 0.0072,
      "velocity": 127,
      "chip": "ym2612"
    },
    {
      "channel": 3,
      "note": 47,
      "start": 25.1402,
      "duration": 0.0071,
      "velocity": 127,
      "chip": "ym2612"
    },
    {
      "channel": 3,
      "note": 47,
      "start": 25.1524,
      "duration": 0.0074,
      "velocity": 127,
      "chip": "ym2612"
    },
    {
      "channel": 3,
      "note": 47,
      "start": 25.1652,
      "duration": 0.2921,
      "velocity": 127,
      "chip": "ym2612"
    },
    {
      "channel": 3,
      "note": 47,
      "start": 25.4781,
      "duration": 0.1431,
      "velocity": 127,
      "chip": "ym2612"
    },
    {
      "channel": 0,
      "note": 66,
      "start": 25.641,
      "duration": 0.2249,
      "velocity": 102,
      "chip": "ym2612"
    },
    {
      "channel": 3,
      "note": 47,
      "start": 25.6423,
      "duration": 0.1016,
      "velocity": 127,
      "chip": "ym2612"
    },
    {
      "channel": 3,
      "note": 47,
      "start": 25.7645,
      "duration": 0.1021,
      "velocity": 127,
      "chip": "ym2612"
    },
    {
      "channel": 4,
      "note": 66,
      "start": 25.8058,
      "duration": 0.2249,
      "velocity": 102,
      "chip": "ym2612"
    },
    {
      "channel": 0,
      "note": 67,
      "start": 25.8867,
      "duration": 0.0816,
      "velocity": 102,
      "chip": "ym2612"
    },
    {
      "channel": 3,
      "note": 47,
      "start": 25.8877,
      "duration": 0.1017,
      "velocity": 127,
      "chip": "ym2612"
    },
    {
      "channel": 3,
      "note": 47,
      "start": 26.0101,
      "duration": 0.0816,
      "velocity": 127,
      "chip": "ym2612"
    },
    {
      "channel": 4,
      "note": 66,
      "start": 26.0515,
      "duration": 0.0828,
      "velocity": 102,
      "chip": "ym2612"
    },
    {
      "channel": 3,
      "note": 47,
      "start": 26.1126,
      "duration": 0.0001,
      "velocity": 127,
      "chip": "ym2612"
    },
    {
      "channel": 0,
      "note": 69,
      "start": 26.1322,
      "duration": 0.0817,
      "velocity": 102,
      "chip": "ym2612"
    },
    {
      "channel": 1,
      "note": 50,
      "start": 26.1327,
      "duration": 0.4912,
      "velocity": 98,
      "chip": "ym2612"
    },
    {
      "channel": 2,
      "note": 86,
      "start": 26.1333,
      "duration": 0.081,
      "velocity": 98,
      "chip": "ym2612"
    },
    {
      "channel": 3,
      "note": 49,
      "start": 26.1339,
      "duration": 0.449,
      "velocity": 127,
      "chip": "ym2612"
    },
    {
      "channel": 2,
      "note": 90,
      "start": 26.2145,
      "duration": 0.0816,
      "velocity": 98,
      "chip": "ym2612"
    },
    {
      "channel": 2,
      "note": 93,
      "start": 26.2963,
      "duration": 0.0819,
      "velocity": 98,
      "chip": "ym2612"
    },
    {
      "channel": 4,
      "note": 67,
      "start": 26.2972,
      "duration": 0.0819,
      "velocity": 102,
      "chip": "ym2612"
    },
    {
      "channel": 0,
      "note": 62,
      "start": 26.3778,
      "duration": 0.0817,
      "velocity": 102,
      "chip": "ym2612"
    },
    {
      "channel": 2,
      "note": 98,
      "start": 26.3785,
      "duration": 0.2462,
      "velocity": 98,
      "chip": "ym2612"
    },
    {
      "channel": 4,
      "note": 69,
      "start": 26.5425,
      "duration": 0.0864,
      "velocity": 102,
      "chip": "ym2612"
    },
    {
      "channel": 3,
      "note": 47,
      "start": 26.6037,
      "duration": 0.0001,
      "velocity": 127,
      "chip": "ym2612"
    },
    {
      "channel": 0,
      "note": 67,
      "start": 26.6236,
      "duration": 0.3995,
      "velocity": 102,
      "chip": "ym2612"
    },
    {
      "channel": 1,
      "note": 43,
      "start": 26.6245,
      "duration": 0.2532,
      "velocity": 98,
      "chip": "ym2612"
    },
    {
      "channel": 3,
      "note": 49,
      "start": 26.6284,
      "duration": 0.2088,
      "velocity": 127,
      "chip": "ym2612"
    },
    {
      "channel": 4,
      "note": 62,
      "start": 26.65,
      "duration": 0.413,
      "velocity": 102,
      "chip": "ym2612"
    },
    {
      "channel": 2,
      "note": 91,
      "start": 26.6596,
      "duration": 0.0955,
      "velocity": 98,
      "chip": "ym2612"
    },
    {
      "channel": 2,
      "note": 95,
      "start": 26.7553,
      "duration": 0.1229,
      "velocity": 98,
      "chip": "ym2612"
    },
    {
      "channel": 3,
      "note": 47,
      "start": 26.8579,
      "duration": 0.0001,
      "velocity": 127,
      "chip": "ym2612"
    },
    {
      "channel": 1,
      "note": 43,
      "start": 26.8779,
      "duration": 0.1662,
      "velocity": 98,
      "chip": "ym2612"
    },
    {
      "channel": 2,
      "note": 98,
      "start": 26.8785,
      "duration": 0.0105,
      "velocity": 98,
      "chip": "ym2612"
    },
    {
      "channel": 3,
      "note": 49,
      "start": 26.8791,
      "duration": 0.1242,
      "velocity": 127,
      "chip": "ym2612"
    },
    {
      "channel": 2,
      "note": 95,
      "start": 26.9085,
      "duration": 0.0103,
      "velocity": 98,
      "chip": "ym2612"
    },
    {
      "channel": 3,
      "note": 47,
      "start": 27.0242,
      "duration": 0.0001,
      "velocity": 127,
      "chip": "ym2612"
    },
    {
      "channel": 0,
      "note": 62,
      "start": 27.0438,
      "duration": 0.2675,
      "velocity": 102,
      "chip": "ym2612"
    },
    {
      "channel": 1,
      "note": 47,
      "start": 27.0444,
      "duration": 0.2538,
      "velocity": 98,
      "chip": "ym2612"
    },
    {
      "channel": 2,
      "note": 103,
      "start": 27.0449,
      "duration": 0.0105,
      "velocity": 98,
      "chip": "ym2612"
    },
    {
      "channel": 3,
      "note": 49,
      "start": 27.0454,
      "duration": 0.2123,
      "velocity": 127,
      "chip": "ym2612"
    },
    {
      "channel": 4,
      "note": 67,
      "start": 27.0657,
      "duration": 0.2667,
      "velocity": 102,
      "chip": "ym2612"
    },
    {
      "channel": 2,
      "note": 95,
      "start": 27.0749,
      "duration": 0.0597,
      "velocity": 98,
      "chip": "ym2612"
    },
    {
      "channel": 3,
      "note": 47,
      "start": 27.2785,
      "duration": 0.0001,
      "velocity": 127,
      "chip": "ym2612"
    },
    {
      "channel": 1,
      "note": 50,
      "start": 27.2984,
      "duration": 22.0578,
      "velocity": 98,
      "chip": "ym2612"
    },
    {
      "channel": 2,
      "note": 98,
      "start": 27.2988,
      "duration": 0.0105,
      "velocity": 98,
      "chip": "ym2612"
    },
    {
      "channel": 3,
      "note": 49,
      "start": 27.2995,
      "duration": 0.1243,
      "velocity": 127,
      "chip": "ym2612"
    },
    {
      "channel": 0,
      "note": 62,
      "start": 27.3283,
      "duration": 0.0128,
      "velocity": 102,
      "chip": "ym2612"
    },
    {
      "channel": 2,
      "note": 95,
      "start": 27.329,
      "duration": 0.0102,
      "velocity": 98,
      "chip": "ym2612"
    },
    {
      "channel": 4,
      "note": 62,
      "start": 27.3833,
      "duration": 21.9729,
      "velocity": 102,
      "chip": "ym2612"
    }
  ]
}