{
  "track_name": "14 - Bad Joke",
  "duration_sec": 76.816,
  "sample_rate": 44100,
  "note_count": 1077,
  "unique_pitches": 26,
  "pitch_range": 31,
  "avg_note_duration": 0.3006,
  "reconstruction_stats": {
    "notes_reconstructed": 1077,
    "keyon_events": 1077,
    "keyoff_events": 1073,
    "orphan_keyons": 4,
    "unique_pitches": 26,
    "pitch_range": 31,
    "avg_duration_sec": 0.3006
  },
  "metadata": {
    "source": "R\\Rolling Thunder 3\\14 - Bad Joke.vgz"
  },
  "notes": [
    {
      "channel": 0,
      "note": 87,
      "start": 0.4539,
      "duration": 1.2353,
      "velocity": 102,
      "chip": "ym2612"
    },
    {
      "channel": 1,
      "note": 87,
      "start": 0.4585,
      "duration": 1.4244,
      "velocity": 102,
      "chip": "ym2612"
    },
    {
      "channel": 2,
      "note": 82,
      "start": 0.4636,
      "duration": 1.6172,
      "velocity": 90,
      "chip": "ym2612"
    },
    {
      "channel": 3,
      "note": 80,
      "start": 0.4679,
      "duration": 1.614,
      "velocity": 89,
      "chip": "ym2612"
    },
    {
      "channel": 4,
      "note": 61,
      "start": 0.4724,
      "duration": 0.174,
      "velocity": 97,
      "chip": "ym2612"
    },
    {
      "channel": 4,
      "note": 73,
      "start": 0.6465,
      "duration": 0.2341,
      "velocity": 97,
      "chip": "ym2612"
    },
    {
      "channel": 4,
      "note": 61,
      "start": 0.8808,
      "duration": 0.0786,
      "velocity": 97,
      "chip": "ym2612"
    },
    {
      "channel": 4,
      "note": 73,
      "start": 0.9595,
      "duration": 0.1008,
      "velocity": 97,
      "chip": "ym2612"
    },
    {
      "channel": 4,
      "note": 61,
      "start": 1.0605,
      "duration": 0.2335,
      "velocity": 97,
      "chip": "ym2612"
    },
    {
      "channel": 4,
      "note": 64,
      "start": 1.2941,
      "duration": 0.3128,
      "velocity": 97,
      "chip": "ym2612"
    },
    {
      "channel": 4,
      "note": 66,
      "start": 1.6071,
      "duration": 0.2776,
      "velocity": 97,
      "chip": "ym2612"
    },
    {
      "channel": 0,
      "note": 82,
      "start": 1.6894,
      "duration": 0.0894,
      "velocity": 102,
      "chip": "ym2612"
    },
    {
      "channel": 0,
      "note": 85,
      "start": 1.882,
      "duration": 0.0827,
      "velocity": 102,
      "chip": "ym2612"
    },
    {
      "channel": 1,
      "note": 82,
      "start": 1.8832,
      "duration": 0.0823,
      "velocity": 102,
      "chip": "ym2612"
    },
    {
      "channel": 4,
      "note": 68,
      "start": 1.8848,
      "duration": 0.1983,
      "velocity": 97,
      "chip": "ym2612"
    },
    {
      "channel": 0,
      "note": 83,
      "start": 1.9648,
      "duration": 1.3588,
      "velocity": 102,
      "chip": "ym2612"
    },
    {
      "channel": 1,
      "note": 85,
      "start": 2.0797,
      "duration": 0.0828,
      "velocity": 102,
      "chip": "ym2612"
    },
    {
      "channel": 2,
      "note": 83,
      "start": 2.081,
      "duration": 1.0423,
      "velocity": 90,
      "chip": "ym2612"
    },
    {
      "channel": 3,
      "note": 80,
      "start": 2.0821,
      "duration": 1.0421,
      "velocity": 89,
      "chip": "ym2612"
    },
    {
      "channel": 4,
      "note": 61,
      "start": 2.0833,
      "duration": 0.1928,
      "velocity": 97,
      "chip": "ym2612"
    },
    {
      "channel": 1,
      "note": 83,
      "start": 2.1627,
      "duration": 1.349,
      "velocity": 102,
      "chip": "ym2612"
    },
    {
      "channel": 4,
      "note": 73,
      "start": 2.2762,
      "duration": 0.2342,
      "velocity": 97,
      "chip": "ym2612"
    },
    {
      "channel": 4,
      "note": 61,
      "start": 2.5105,
      "duration": 0.0819,
      "velocity": 97,
      "chip": "ym2612"
    },
    {
      "channel": 4,
      "note": 73,
      "start": 2.5925,
      "duration": 0.1023,
      "velocity": 97,
      "chip": "ym2612"
    },
    {
      "channel": 4,
      "note": 61,
      "start": 2.6949,
      "duration": 0.2336,
      "velocity": 97,
      "chip": "ym2612"
    },
    {
      "channel": 4,
      "note": 64,
      "start": 2.9286,
      "duration": 0.3128,
      "velocity": 97,
      "chip": "ym2612"
    },
    {
      "channel": 2,
      "note": 80,
      "start": 3.1234,
      "duration": 0.2008,
      "velocity": 90,
      "chip": "ym2612"
    },
    {
      "channel": 3,
      "note": 76,
      "start": 3.1242,
      "duration": 0.2,
      "velocity": 89,
      "chip": "ym2612"
    },
    {
      "channel": 4,
      "note": 66,
      "start": 3.2416,
      "duration": 0.2716,
      "velocity": 97,
      "chip": "ym2612"
    },
    {
      "channel": 0,
      "note": 82,
      "start": 3.3237,
      "duration": 0.077,
      "velocity": 102,
      "chip": "ym2612"
    },
    {
      "channel": 0,
      "note": 80,
      "start": 3.5106,
      "duration": 0.0811,
      "velocity": 102,
      "chip": "ym2612"
    },
    {
      "channel": 1,
      "note": 82,
      "start": 3.5118,
      "duration": 0.0805,
      "velocity": 102,
      "chip": "ym2612"
    },
    {
      "channel": 4,
      "note": 68,
      "start": 3.5133,
      "duration": 0.1986,
      "velocity": 97,
      "chip": "ym2612"
    },
    {
      "channel": 0,
      "note": 79,
      "start": 3.7071,
      "duration": 0.3113,
      "velocity": 102,
      "chip": "ym2612"
    },
    {
      "channel": 1,
      "note": 80,
      "start": 3.7083,
      "duration": 0.0807,
      "velocity": 102,
      "chip": "ym2612"
    },
    {
      "channel": 2,
      "note": 82,
      "start": 3.7095,
      "duration": 1.6226,
      "velocity": 90,
      "chip": "ym2612"
    },
    {
      "channel": 3,
      "note": 80,
      "start": 3.7107,
      "duration": 1.6226,
      "velocity": 89,
      "chip": "ym2612"
    },
    {
      "channel": 4,
      "note": 61,
      "start": 3.7121,
      "duration": 0.1917,
      "velocity": 97,
      "chip": "ym2612"
    },
    {
      "channel": 1,
      "note": 79,
      "start": 3.9023,
      "duration": 0.3158,
      "velocity": 102,
      "chip": "ym2612"
    },
    {
      "channel": 4,
      "note": 73,
      "start": 3.9038,
      "duration": 0.2346,
      "velocity": 97,
      "chip": "ym2612"
    },
    {
      "channel": 0,
      "note": 80,
      "start": 4.0184,
      "duration": 0.1174,
      "velocity": 102,
      "chip": "ym2612"
    },
    {
      "channel": 0,
      "note": 79,
      "start": 4.136,
      "duration": 0.081,
      "velocity": 102,
      "chip": "ym2612"
    },
    {
      "channel": 4,
      "note": 61,
      "start": 4.1385,
      "duration": 0.0815,
      "velocity": 97,
      "chip": "ym2612"
    },
    {
      "channel": 1,
      "note": 80,
      "start": 4.2182,
      "duration": 0.1021,
      "velocity": 102,
      "chip": "ym2612"
    },
    {
      "channel": 4,
      "note": 73,
      "start": 4.2201,
      "duration": 0.1018,
      "velocity": 97,
      "chip": "ym2612"
    },
    {
      "channel": 1,
      "note": 79,
      "start": 4.3204,
      "duration": 0.1159,
      "velocity": 102,
      "chip": "ym2612"
    },
    {
      "channel": 4,
      "note": 61,
      "start": 4.322,
      "duration": 0.2334,
      "velocity": 97,
      "chip": "ym2612"
    },
    {
      "channel": 4,
      "note": 64,
      "start": 4.5556,
      "duration": 0.3117,
      "velocity": 97,
      "chip": "ym2612"
    },
    {
      "channel": 4,
      "note": 66,
      "start": 4.8674,
      "duration": 0.2674,
      "velocity": 97,
      "chip": "ym2612"
    },
    {
      "channel": 0,
      "note": 79,
      "start": 4.9495,
      "duration": 0.075,
      "velocity": 102,
      "chip": "ym2612"
    },
    {
      "channel": 0,
      "note": 78,
      "start": 5.0247,
      "duration": 0.1073,
      "velocity": 102,
      "chip": "ym2612"
    },
    {
      "channel": 1,
      "note": 79,
      "start": 5.1332,
      "duration": 0.0834,
      "velocity": 102,
      "chip": "ym2612"
    },
    {
      "channel": 4,
      "note": 68,
      "start": 5.135,
      "duration": 0.1996,
      "velocity": 97,
      "chip": "ym2612"
    },
    {
      "channel": 0,
      "note": 76,
      "start": 5.2155,
      "duration": 0.1147,
      "velocity": 102,
      "chip": "ym2612"
    },
    {
      "channel": 1,
      "note": 78,
      "start": 5.2167,
      "duration": 0.1144,
      "velocity": 102,
      "chip": "ym2612"
    },
    {
      "channel": 0,
      "note": 75,
      "start": 5.3304,
      "duration": 0.0823,
      "velocity": 102,
      "chip": "ym2612"
    },
    {
      "channel": 2,
      "note": 83,
      "start": 5.3323,
      "duration": 1.0403,
      "velocity": 90,
      "chip": "ym2612"
    },
    {
      "channel": 3,
      "note": 80,
      "start": 5.3334,
      "duration": 1.0396,
      "velocity": 89,
      "chip": "ym2612"
    },
    {
      "channel": 4,
      "note": 61,
      "start": 5.3348,
      "duration": 0.1943,
      "velocity": 97,
      "chip": "ym2612"
    },
    {
      "channel": 1,
      "note": 76,
      "start": 5.4139,
      "duration": 0.1137,
      "velocity": 102,
      "chip": "ym2612"
    },
    {
      "channel": 0,
      "note": 75,
      "start": 5.5268,
      "duration": 0.116,
      "velocity": 102,
      "chip": "ym2612"
    },
    {
      "channel": 1,
      "note": 75,
      "start": 5.5277,
      "duration": 0.1156,
      "velocity": 102,
      "chip": "ym2612"
    },
    {
      "channel": 4,
      "note": 73,
      "start": 5.5291,
      "duration": 0.2336,
      "velocity": 97,
      "chip": "ym2612"
    },
    {
      "channel": 1,
      "note": 75,
      "start": 5.7609,
      "duration": 0.079,
      "velocity": 102,
      "chip": "ym2612"
    },
    {
      "channel": 4,
      "note": 61,
      "start": 5.7628,
      "duration": 0.0789,
      "velocity": 97,
      "chip": "ym2612"
    },
    {
      "channel": 4,
      "note": 73,
      "start": 5.8419,
      "duration": 0.1013,
      "velocity": 97,
      "chip": "ym2612"
    },
    {
      "channel": 4,
      "note": 61,
      "start": 5.9433,
      "duration": 0.2337,
      "velocity": 97,
      "chip": "ym2612"
    },
    {
      "channel": 4,
      "note": 64,
      "start": 6.1771,
      "duration": 0.3139,
      "velocity": 97,
      "chip": "ym2612"
    },
    {
      "channel": 4,
      "note": 66,
      "start": 6.4911,
      "duration": 0.2599,
      "velocity": 97,
      "chip": "ym2612"
    },
    {
      "channel": 2,
      "note": 80,
      "start": 6.5724,
      "duration": 0.0794,
      "velocity": 90,
      "chip": "ym2612"
    },
    {
      "channel": 3,
      "note": 76,
      "start": 6.5736,
      "duration": 0.0784,
      "velocity": 89,
      "chip": "ym2612"
    },
    {
      "channel": 4,
      "note": 68,
      "start": 6.7511,
      "duration": 0.1997,
      "velocity": 97,
      "chip": "ym2612"
    },
    {
      "channel": 2,
      "note": 82,
      "start": 6.9486,
      "duration": 1.6251,
      "velocity": 90,
      "chip": "ym2612"
    },
    {
      "channel": 3,
      "note": 80,
      "start": 6.9498,
      "duration": 1.6252,
      "velocity": 89,
      "chip": "ym2612"
    },
    {
      "channel": 4,
      "note": 61,
      "start": 6.9509,
      "duration": 0.1935,
      "velocity": 97,
      "chip": "ym2612"
    },
    {
      "channel": 0,
      "note": 75,
      "start": 7.0294,
      "duration": 0.1132,
      "velocity": 102,
      "chip": "ym2612"
    },
    {
      "channel": 0,
      "note": 76,
      "start": 7.1426,
      "duration": 0.1161,
      "velocity": 102,
      "chip": "ym2612"
    },
    {
      "channel": 4,
      "note": 73,
      "start": 7.1445,
      "duration": 0.2353,
      "velocity": 97,
      "chip": "ym2612"
    },
    {
      "channel": 1,
      "note": 75,
      "start": 7.2596,
      "duration": 0.1183,
      "velocity": 102,
      "chip": "ym2612"
    },
    {
      "channel": 0,
      "note": 78,
      "start": 7.3768,
      "duration": 0.0808,
      "velocity": 102,
      "chip": "ym2612"
    },
    {
      "channel": 1,
      "note": 76,
      "start": 7.378,
      "duration": 0.0803,
      "velocity": 102,
      "chip": "ym2612"
    },
    {
      "channel": 4,
      "note": 61,
      "start": 7.3799,
      "duration": 0.0803,
      "velocity": 97,
      "chip": "ym2612"
    },
    {
      "channel": 4,
      "note": 73,
      "start": 7.4603,
      "duration": 0.103,
      "velocity": 97,
      "chip": "ym2612"
    },
    {
      "channel": 0,
      "note": 79,
      "start": 7.5608,
      "duration": 0.1159,
      "velocity": 102,
      "chip": "ym2612"
    },
    {
      "channel": 1,
      "note": 78,
      "start": 7.5618,
      "duration": 0.1155,
      "velocity": 102,
      "chip": "ym2612"
    },
    {
      "channel": 4,
      "note": 61,
      "start": 7.5634,
      "duration": 0.2342,
      "velocity": 97,
      "chip": "ym2612"
    },
    {
      "channel": 0,
      "note": 80,
      "start": 7.7947,
      "duration": 0.3137,
      "velocity": 102,
      "chip": "ym2612"
    },
    {
      "channel": 1,
      "note": 79,
      "start": 7.796,
      "duration": 0.0822,
      "velocity": 102,
      "chip": "ym2612"
    },
    {
      "channel": 4,
      "note": 64,
      "start": 7.7978,
      "duration": 0.3127,
      "velocity": 97,
      "chip": "ym2612"
    },
    {
      "channel": 1,
      "note": 80,
      "start": 7.9914,
      "duration": 0.2804,
      "velocity": 102,
      "chip": "ym2612"
    },
    {
      "channel": 0,
      "note": 80,
      "start": 8.1085,
      "duration": 0.0827,
      "velocity": 102,
      "chip": "ym2612"
    },
    {
      "channel": 4,
      "note": 66,
      "start": 8.1106,
      "duration": 0.2666,
      "velocity": 97,
      "chip": "ym2612"
    },
    {
      "channel": 0,
      "note": 75,
      "start": 8.2707,
      "duration": 0.1041,
      "velocity": 102,
      "chip": "ym2612"
    },
    {
      "channel": 1,
      "note": 80,
      "start": 8.2719,
      "duration": 0.1037,
      "velocity": 102,
      "chip": "ym2612"
    },
    {
      "channel": 0,
      "note": 76,
      "start": 8.3749,
      "duration": 0.0812,
      "velocity": 102,
      "chip": "ym2612"
    },
    {
      "channel": 4,
      "note": 68,
      "start": 8.3773,
      "duration": 0.199,
      "velocity": 97,
      "chip": "ym2612"
    },
    {
      "channel": 1,
      "note": 75,
      "start": 8.4573,
      "duration": 0.1153,
      "velocity": 102,
      "chip": "ym2612"
    },
    {
      "channel": 0,
      "note": 78,
      "start": 8.5715,
      "duration": 0.0813,
      "velocity": 102,
      "chip": "ym2612"
    },
    {
      "channel": 1,
      "note": 76,
      "start": 8.5727,
      "duration": 0.0808,
      "velocity": 102,
      "chip": "ym2612"
    },
    {
      "channel": 2,
      "note": 83,
      "start": 8.5739,
      "duration": 1.0363,
      "velocity": 90,
      "chip": "ym2612"
    },
    {
      "channel": 3,
      "note": 80,
      "start": 8.5751,
      "duration": 1.036,
      "velocity": 89,
      "chip": "ym2612"
    },
    {
      "channel": 4,
      "note": 61,
      "start": 8.5764,
      "duration": 0.192,
      "velocity": 97,
      "chip": "ym2612"
    },
    {
      "channel": 0,
      "note": 79,
      "start": 8.7662,
      "duration": 0.1159,
      "velocity": 102,
      "chip": "ym2612"
    },
    {
      "channel": 1,
      "note": 78,
      "start": 8.767,
      "duration": 0.1156,
      "velocity": 102,
      "chip": "ym2612"
    },
    {
      "channel": 4,
      "note": 73,
      "start": 8.7685,
      "duration": 0.2348,
      "velocity": 97,
      "chip": "ym2612"
    },
    {
      "channel": 0,
      "note": 80,
      "start": 9.0002,
      "duration": 0.2966,
      "velocity": 102,
      "chip": "ym2612"
    },
    {
      "channel": 1,
      "note": 79,
      "start": 9.0014,
      "duration": 0.078,
      "velocity": 102,
      "chip": "ym2612"
    },
    {
      "channel": 4,
      "note": 61,
      "start": 9.0034,
      "duration": 0.078,
      "velocity": 97,
      "chip": "ym2612"
    },
    {
      "channel": 4,
      "note": 73,
      "start": 9.0816,
      "duration": 0.1007,
      "velocity": 97,
      "chip": "ym2612"
    },
    {
      "channel": 1,
      "note": 80,
      "start": 9.1809,
      "duration": 0.3152,
      "velocity": 102,
      "chip": "ym2612"
    },
    {
      "channel": 4,
      "note": 61,
      "start": 9.1824,
      "duration": 0.2334,
      "velocity": 97,
      "chip": "ym2612"
    },
    {
      "channel": 0,
      "note": 80,
      "start": 9.2969,
      "duration": 0.1169,
      "velocity": 102,
      "chip": "ym2612"
    },
    {
      "channel": 4,
      "note": 64,
      "start": 9.416,
      "duration": 0.3116,
      "velocity": 97,
      "chip": "ym2612"
    },
    {
      "channel": 1,
      "note": 80,
      "start": 9.4962,
      "duration": 0.1133,
      "velocity": 102,
      "chip": "ym2612"
    },
    {
      "channel": 2,
      "note": 80,
      "start": 9.6104,
      "duration": 0.1995,
      "velocity": 90,
      "chip": "ym2612"
    },
    {
      "channel": 3,
      "note": 76,
      "start": 9.6112,
      "duration": 0.1988,
      "velocity": 89,
      "chip": "ym2612"
    },
    {
      "channel": 4,
      "note": 66,
      "start": 9.7277,
      "duration": 0.2665,
      "velocity": 97,
      "chip": "ym2612"
    },
    {
      "channel": 4,
      "note": 68,
      "start": 9.9943,
      "duration": 0.199,
      "velocity": 97,
      "chip": "ym2612"
    },
    {
      "channel": 2,
      "note": 82,
      "start": 10.191,
      "duration": 1.6321,
      "velocity": 90,
      "chip": "ym2612"
    },
    {
      "channel": 3,
      "note": 80,
      "start": 10.1923,
      "duration": 1.6321,
      "velocity": 89,
      "chip": "ym2612"
    },
    {
      "channel": 4,
      "note": 61,
      "start": 10.1935,
      "duration": 0.1938,
      "velocity": 97,
      "chip": "ym2612"
    },
    {
      "channel": 0,
      "note": 79,
      "start": 10.2721,
      "duration": 0.1133,
      "velocity": 102,
      "chip": "ym2612"
    },
    {
      "channel": 0,
      "note": 82,
      "start": 10.3854,
      "duration": 0.1161,
      "velocity": 102,
      "chip": "ym2612"
    },
    {
      "channel": 4,
      "note": 73,
      "start": 10.3874,
      "duration": 0.2353,
      "velocity": 97,
      "chip": "ym2612"
    },
    {
      "channel": 1,
      "note": 79,
      "start": 10.5024,
      "duration": 0.1183,
      "velocity": 102,
      "chip": "ym2612"
    },
    {
      "channel": 0,
      "note": 79,
      "start": 10.6197,
      "duration": 0.0834,
      "velocity": 102,
      "chip": "ym2612"
    },
    {
      "channel": 1,
      "note": 82,
      "start": 10.6209,
      "duration": 0.0828,
      "velocity": 102,
      "chip": "ym2612"
    },
    {
      "channel": 4,
      "note": 61,
      "start": 10.6228,
      "duration": 0.0827,
      "velocity": 97,
      "chip": "ym2612"
    },
    {
      "channel": 4,
      "note": 73,
      "start": 10.7057,
      "duration": 0.1032,
      "velocity": 97,
      "chip": "ym2612"
    },
    {
      "channel": 0,
      "note": 82,
      "start": 10.8064,
      "duration": 0.1158,
      "velocity": 102,
      "chip": "ym2612"
    },
    {
      "channel": 1,
      "note": 79,
      "start": 10.8074,
      "duration": 0.1153,
      "velocity": 102,
      "chip": "ym2612"
    },
    {
      "channel": 4,
      "note": 61,
      "start": 10.809,
      "duration": 0.234,
      "velocity": 97,
      "chip": "ym2612"
    },
    {
      "channel": 0,
      "note": 80,
      "start": 11.0402,
      "duration": 0.3125,
      "velocity": 102,
      "chip": "ym2612"
    },
    {
      "channel": 1,
      "note": 82,
      "start": 11.0414,
      "duration": 0.081,
      "velocity": 102,
      "chip": "ym2612"
    },
    {
      "channel": 4,
      "note": 64,
      "start": 11.0431,
      "duration": 0.3117,
      "velocity": 97,
      "chip": "ym2612"
    },
    {
      "channel": 1,
      "note": 80,
      "start": 11.2359,
      "duration": 0.2852,
      "velocity": 102,
      "chip": "ym2612"
    },
    {
      "channel": 0,
      "note": 80,
      "start": 11.3529,
      "duration": 0.0838,
      "velocity": 102,
      "chip": "ym2612"
    },
    {
      "channel": 4,
      "note": 66,
      "start": 11.355,
      "duration": 0.2712,
      "velocity": 97,
      "chip": "ym2612"
    },
    {
      "channel": 0,
      "note": 79,
      "start": 11.52,
      "duration": 0.1037,
      "velocity": 102,
      "chip": "ym2612"
    },
    {
      "channel": 1,
      "note": 80,
      "start": 11.5213,
      "duration": 0.1032,
      "velocity": 102,
      "chip": "ym2612"
    },
    {
      "channel": 0,
      "note": 82,
      "start": 11.6239,
      "duration": 0.0814,
      "velocity": 102,
      "chip": "ym2612"
    },
    {
      "channel": 4,
      "note": 68,
      "start": 11.6264,
      "duration": 0.1993,
      "velocity": 97,
      "chip": "ym2612"
    },
    {
      "channel": 1,
      "note": 79,
      "start": 11.7065,
      "duration": 0.1154,
      "velocity": 102,
      "chip": "ym2612"
    },
    {
      "channel": 0,
      "note": 80,
      "start": 11.8209,
      "duration": 0.0826,
      "velocity": 102,
      "chip": "ym2612"
    },
    {
      "channel": 1,
      "note": 82,
      "start": 11.8221,
      "duration": 0.082,
      "velocity": 102,
      "chip": "ym2612"
    },
    {
      "channel": 2,
      "note": 83,
      "start": 11.8233,
      "duration": 1.0361,
      "velocity": 90,
      "chip": "ym2612"
    },
    {
      "channel": 3,
      "note": 80,
      "start": 11.8246,
      "duration": 1.0354,
      "velocity": 89,
      "chip": "ym2612"
    },
    {
      "channel": 4,
      "note": 61,
      "start": 11.8258,
      "duration": 0.1932,
      "velocity": 97,
      "chip": "ym2612"
    },
    {
      "channel": 0,
      "note": 80,
      "start": 12.0168,
      "duration": 0.1159,
      "velocity": 102,
      "chip": "ym2612"
    },
    {
      "channel": 1,
      "note": 80,
      "start": 12.0177,
      "duration": 0.1155,
      "velocity": 102,
      "chip": "ym2612"
    },
    {
      "channel": 4,
      "note": 73,
      "start": 12.0191,
      "duration": 0.2335,
      "velocity": 97,
      "chip": "ym2612"
    },
    {
      "channel": 1,
      "note": 80,
      "start": 12.2508,
      "duration": 0.075,
      "velocity": 102,
      "chip": "ym2612"
    },
    {
      "channel": 4,
      "note": 61,
      "start": 12.2527,
      "duration": 0.0749,
      "velocity": 97,
      "chip": "ym2612"
    },
    {
      "channel": 4,
      "note": 73,
      "start": 12.3278,
      "duration": 0.1024,
      "velocity": 97,
      "chip": "ym2612"
    },
    {
      "channel": 4,
      "note": 61,
      "start": 12.4303,
      "duration": 0.2337,
      "velocity": 97,
      "chip": "ym2612"
    },
    {
      "channel": 4,
      "note": 64,
      "start": 12.6641,
      "duration": 0.2795,
      "velocity": 97,
      "chip": "ym2612"
    },
    {
      "channel": 4,
      "note": 66,
      "start": 12.9437,
      "duration": 0.2783,
      "velocity": 97,
      "chip": "ym2612"
    },
    {
      "channel": 2,
      "note": 80,
      "start": 13.0243,
      "duration": 0.1138,
      "velocity": 90,
      "chip": "ym2612"
    },
    {
      "channel": 3,
      "note": 76,
      "start": 13.0255,
      "duration": 0.1127,
      "velocity": 89,
      "chip": "ym2612"
    },
    {
      "channel": 4,
      "note": 68,
      "start": 13.2222,
      "duration": 0.1717,
      "velocity": 97,
      "chip": "ym2612"
    },
    {
      "channel": 0,
      "note": 76,
      "start": 13.3903,
      "duration": 0.0824,
      "velocity": 102,
      "chip": "ym2612"
    },
    {
      "channel": 2,
      "note": 82,
      "start": 13.3916,
      "duration": 1.6252,
      "velocity": 90,
      "chip": "ym2612"
    },
    {
      "channel": 3,
      "note": 80,
      "start": 13.3929,
      "duration": 1.6251,
      "velocity": 89,
      "chip": "ym2612"
    },
    {
      "channel": 4,
      "note": 61,
      "start": 13.394,
      "duration": 0.1946,
      "velocity": 97,
      "chip": "ym2612"
    },
    {
      "channel": 0,
      "note": 78,
      "start": 13.4729,
      "duration": 0.1134,
      "velocity": 102,
      "chip": "ym2612"
    },
    {
      "channel": 0,
      "note": 79,
      "start": 13.5863,
      "duration": 0.116,
      "velocity": 102,
      "chip": "ym2612"
    },
    {
      "channel": 1,
      "note": 76,
      "start": 13.5872,
      "duration": 0.116,
      "velocity": 102,
      "chip": "ym2612"
    },
    {
      "channel": 4,
      "note": 73,
      "start": 13.5886,
      "duration": 0.2348,
      "velocity": 97,
      "chip": "ym2612"
    },
    {
      "channel": 1,
      "note": 78,
      "start": 13.7032,
      "duration": 0.1183,
      "velocity": 102,
      "chip": "ym2612"
    },
    {
      "channel": 0,
      "note": 80,
      "start": 13.8204,
      "duration": 0.0809,
      "velocity": 102,
      "chip": "ym2612"
    },
    {
      "channel": 1,
      "note": 79,
      "start": 13.8216,
      "duration": 0.0804,
      "velocity": 102,
      "chip": "ym2612"
    },
    {
      "channel": 4,
      "note": 61,
      "start": 13.8236,
      "duration": 0.0803,
      "velocity": 97,
      "chip": "ym2612"
    },
    {
      "channel": 4,
      "note": 73,
      "start": 13.904,
      "duration": 0.1031,
      "velocity": 97,
      "chip": "ym2612"
    },
    {
      "channel": 0,
      "note": 79,
      "start": 14.0046,
      "duration": 0.1158,
      "velocity": 102,
      "chip": "ym2612"
    },
    {
      "channel": 1,
      "note": 80,
      "start": 14.0056,
      "duration": 0.1154,
      "velocity": 102,
      "chip": "ym2612"
    },
    {
      "channel": 4,
      "note": 61,
      "start": 14.0072,
      "duration": 0.2328,
      "velocity": 97,
      "chip": "ym2612"
    },
    {
      "channel": 1,
      "note": 79,
      "start": 14.2384,
      "duration": 0.0831,
      "velocity": 102,
      "chip": "ym2612"
    },
    {
      "channel": 4,
      "note": 64,
      "start": 14.2401,
      "duration": 0.3139,
      "velocity": 97,
      "chip": "ym2612"
    },
    {
      "channel": 0,
      "note": 80,
      "start": 14.3208,
      "duration": 0.1134,
      "velocity": 102,
      "chip": "ym2612"
    },
    {
      "channel": 0,
      "note": 79,
      "start": 14.4343,
      "duration": 0.1169,
      "velocity": 102,
      "chip": "ym2612"
    },
    {
      "channel": 1,
      "note": 80,
      "start": 14.5524,
      "duration": 0.0836,
      "velocity": 102,
      "chip": "ym2612"
    },
    {
      "channel": 4,
      "note": 66,
      "start": 14.5541,
      "duration": 0.2666,
      "velocity": 97,
      "chip": "ym2612"
    },
    {
      "channel": 0,
      "note": 80,
      "start": 14.6349,
      "duration": 0.0827,
      "velocity": 102,
      "chip": "ym2612"
    },
    {
      "channel": 1,
      "note": 79,
      "start": 14.6361,
      "duration": 0.0822,
      "velocity": 102,
      "chip": "ym2612"
    },
    {
      "channel": 0,
      "note": 79,
      "start": 14.7177,
      "duration": 0.1001,
      "velocity": 102,
      "chip": "ym2612"
    },
    {
      "channel": 0,
      "note": 78,
      "start": 14.818,
      "duration": 0.0825,
      "velocity": 102,
      "chip": "ym2612"
    },
    {
      "channel": 1,
      "note": 80,
      "start": 14.8191,
      "duration": 0.0825,
      "velocity": 102,
      "chip": "ym2612"
    },
    {
      "channel": 4,
      "note": 68,
      "start": 14.8208,
      "duration": 0.1984,
      "velocity": 97,
      "chip": "ym2612"
    },
    {
      "channel": 0,
      "note": 76,
      "start": 14.9006,
      "duration": 0.1139,
      "velocity": 102,
      "chip": "ym2612"
    },
    {
      "channel": 1,
      "note": 79,
      "start": 14.9018,
      "duration": 0.1138,
      "velocity": 102,
      "chip": "ym2612"
    },
    {
      "channel": 1,
      "note": 78,
      "start": 15.0157,
      "duration": 0.0822,
      "velocity": 102,
      "chip": "ym2612"
    },
    {
      "channel": 2,
      "note": 83,
      "start": 15.0169,
      "duration": 1.0456,
      "velocity": 90,
      "chip": "ym2612"
    },
    {
      "channel": 3,
      "note": 80,
      "start": 15.0181,
      "duration": 1.0453,
      "velocity": 89,
      "chip": "ym2612"
    },
    {
      "channel": 4,
      "note": 61,
      "start": 15.0193,
      "duration": 0.1921,
      "velocity": 97,
      "chip": "ym2612"
    },
    {
      "channel": 0,
      "note": 80,
      "start": 15.0969,
      "duration": 0.1127,
      "velocity": 102,
      "chip": "ym2612"
    },
    {
      "channel": 1,
      "note": 76,
      "start": 15.098,
      "duration": 0.112,
      "velocity": 102,
      "chip": "ym2612"
    },
    {
      "channel": 0,
      "note": 79,
      "start": 15.2096,
      "duration": 0.1164,
      "velocity": 102,
      "chip": "ym2612"
    },
    {
      "channel": 4,
      "note": 73,
      "start": 15.2115,
      "duration": 0.2352,
      "velocity": 97,
      "chip": "ym2612"
    },
    {
      "channel": 0,
      "note": 78,
      "start": 15.3261,
      "duration": 0.1175,
      "velocity": 102,
      "chip": "ym2612"
    },
    {
      "channel": 1,
      "note": 80,
      "start": 15.327,
      "duration": 0.1178,
      "velocity": 102,
      "chip": "ym2612"
    },
    {
      "channel": 0,
      "note": 76,
      "start": 15.4437,
      "duration": 0.0836,
      "velocity": 102,
      "chip": "ym2612"
    },
    {
      "channel": 1,
      "note": 79,
      "start": 15.4449,
      "duration": 0.0835,
      "velocity": 102,
      "chip": "ym2612"
    },
    {
      "channel": 4,
      "note": 61,
      "start": 15.4469,
      "duration": 0.0835,
      "velocity": 97,
      "chip": "ym2612"
    },
    {
      "channel": 1,
      "note": 78,
      "start": 15.5285,
      "duration": 0.1031,
      "velocity": 102,
      "chip": "ym2612"
    },
    {
      "channel": 4,
      "note": 73,
      "start": 15.5305,
      "duration": 0.1027,
      "velocity": 97,
      "chip": "ym2612"
    },
    {
      "channel": 0,
      "note": 80,
      "start": 15.6308,
      "duration": 0.1163,
      "velocity": 102,
      "chip": "ym2612"
    },
    {
      "channel": 1,
      "note": 76,
      "start": 15.6317,
      "duration": 0.116,
      "velocity": 102,
      "chip": "ym2612"
    },
    {
      "channel": 4,
      "note": 61,
      "start": 15.6334,
      "duration": 0.2343,
      "velocity": 97,
      "chip": "ym2612"
    },
    {
      "channel": 0,
      "note": 79,
      "start": 15.7471,
      "duration": 0.1174,
      "velocity": 102,
      "chip": "ym2612"
    },
    {
      "channel": 0,
      "note": 78,
      "start": 15.8647,
      "duration": 0.0833,
      "velocity": 102,
      "chip": "ym2612"
    },
    {
      "channel": 1,
      "note": 80,
      "start": 15.8659,
      "duration": 0.0833,
      "velocity": 102,
      "chip": "ym2612"
    },
    {
      "channel": 4,
      "note": 64,
      "start": 15.8678,
      "duration": 0.3124,
      "velocity": 97,
      "chip": "ym2612"
    },
    {
      "channel": 0,
      "note": 76,
      "start": 15.9482,
      "duration": 0.1127,
      "velocity": 102,
      "chip": "ym2612"
    },
    {
      "channel": 1,
      "note": 79,
      "start": 15.9494,
      "duration": 0.1122,
      "velocity": 102,
      "chip": "ym2612"
    },
    {
      "channel": 1,
      "note": 78,
      "start": 16.0617,
      "duration": 0.1165,
      "velocity": 102,
      "chip": "ym2612"
    },
    {
      "channel": 2,
      "note": 80,
      "start": 16.0626,
      "duration": 0.2002,
      "velocity": 90,
      "chip": "ym2612"
    },
    {
      "channel": 3,
      "note": 76,
      "start": 16.0634,
      "duration": 0.1995,
      "velocity": 89,
      "chip": "ym2612"
    },
    {
      "channel": 1,
      "note": 76,
      "start": 16.1783,
      "duration": 0.0842,
      "velocity": 102,
      "chip": "ym2612"
    },
    {
      "channel": 4,
      "note": 66,
      "start": 16.1803,
      "duration": 0.2754,
      "velocity": 97,
      "chip": "ym2612"
    },
    {
      "channel": 0,
      "note": 80,
      "start": 16.262,
      "duration": 0.0808,
      "velocity": 102,
      "chip": "ym2612"
    },
    {
      "channel": 0,
      "note": 79,
      "start": 16.3429,
      "duration": 0.1101,
      "velocity": 102,
      "chip": "ym2612"
    },
    {
      "channel": 0,
      "note": 78,
      "start": 16.4531,
      "duration": 0.0812,
      "velocity": 102,
      "chip": "ym2612"
    },
    {
      "channel": 1,
      "note": 80,
      "start": 16.4544,
      "duration": 0.081,
      "velocity": 102,
      "chip": "ym2612"
    },
    {
      "channel": 4,
      "note": 68,
      "start": 16.4558,
      "duration": 0.199,
      "velocity": 97,
      "chip": "ym2612"
    },
    {
      "channel": 1,
      "note": 79,
      "start": 16.5356,
      "duration": 0.1157,
      "velocity": 102,
      "chip": "ym2612"
    },
    {
      "channel": 0,
      "note": 76,
      "start": 16.6502,
      "duration": 0.081,
      "velocity": 102,
      "chip": "ym2612"
    },
    {
      "channel": 1,
      "note": 78,
      "start": 16.6514,
      "duration": 0.0805,
      "velocity": 102,
      "chip": "ym2612"
    },
    {
      "channel": 2,
      "note": 82,
      "start": 16.6526,
      "duration": 1.6278,
      "velocity": 90,
      "chip": "ym2612"
    },
    {
      "channel": 3,
      "note": 80,
      "start": 16.6537,
      "duration": 1.6278,
      "velocity": 89,
      "chip": "ym2612"
    },
    {
      "channel": 4,
      "note": 61,
      "start": 16.6549,
      "duration": 0.1918,
      "velocity": 97,
      "chip": "ym2612"
    },
    {
      "channel": 0,
      "note": 76,
      "start": 16.8445,
      "duration": 0.1159,
      "velocity": 102,
      "chip": "ym2612"
    },
    {
      "channel": 1,
      "note": 76,
      "start": 16.8454,
      "duration": 0.1155,
      "velocity": 102,
      "chip": "ym2612"
    },
    {
      "channel": 4,
      "note": 73,
      "start": 16.8468,
      "duration": 0.2348,
      "velocity": 97,
      "chip": "ym2612"
    },
    {
      "channel": 0,
      "note": 80,
      "start": 17.0786,
      "duration": 0.0813,
      "velocity": 102,
      "chip": "ym2612"
    },
    {
      "channel": 1,
      "note": 76,
      "start": 17.0798,
      "duration": 0.0809,
      "velocity": 102,
      "chip": "ym2612"
    },
    {
      "channel": 4,
      "note": 61,
      "start": 17.0818,
      "duration": 0.0807,
      "velocity": 97,
      "chip": "ym2612"
    },
    {
      "channel": 0,
      "note": 79,
      "start": 17.16,
      "duration": 0.1029,
      "velocity": 102,
      "chip": "ym2612"
    },
    {
      "channel": 4,
      "note": 73,
      "start": 17.1626,
      "duration": 0.1028,
      "velocity": 97,
      "chip": "ym2612"
    },
    {
      "channel": 0,
      "note": 78,
      "start": 17.2629,
      "duration": 0.1159,
      "velocity": 102,
      "chip": "ym2612"
    },
    {
      "channel": 1,
      "note": 80,
      "start": 17.2639,
      "duration": 0.1158,
      "velocity": 102,
      "chip": "ym2612"
    },
    {
      "channel": 4,
      "note": 61,
      "start": 17.2656,
      "duration": 0.2342,
      "velocity": 97,
      "chip": "ym2612"
    },
    {
      "channel": 1,
      "note": 79,
      "start": 17.3798,
      "duration": 0.1181,
      "velocity": 102,
      "chip": "ym2612"
    },
    {
      "channel": 0,
      "note": 76,
      "start": 17.4968,
      "duration": 0.0819,
      "velocity": 102,
      "chip": "ym2612"
    },
    {
      "channel": 1,
      "note": 78,
      "start": 17.4981,
      "duration": 0.0812,
      "velocity": 102,
      "chip": "ym2612"
    },
    {
      "channel": 4,
      "note": 64,
      "start": 17.4999,
      "duration": 0.3115,
      "velocity": 97,
      "chip": "ym2612"
    },
    {
      "channel": 0,
      "note": 76,
      "start": 17.6925,
      "duration": 0.1167,
      "velocity": 102,
      "chip": "ym2612"
    },
    {
      "channel": 1,
      "note": 76,
      "start": 17.6934,
      "duration": 0.1165,
      "velocity": 102,
      "chip": "ym2612"
    },
    {
      "channel": 4,
      "note": 66,
      "start": 17.8115,
      "duration": 0.273,
      "velocity": 97,
      "chip": "ym2612"
    },
    {
      "channel": 0,
      "note": 80,
      "start": 17.8933,
      "duration": 0.0876,
      "velocity": 102,
      "chip": "ym2612"
    },
    {
      "channel": 1,
      "note": 76,
      "start": 17.8946,
      "duration": 0.0872,
      "velocity": 102,
      "chip": "ym2612"
    },
    {
      "channel": 0,
      "note": 79,
      "start": 17.981,
      "duration": 0.1005,
      "velocity": 102,
      "chip": "ym2612"
    },
    {
      "channel": 0,
      "note": 78,
      "start": 18.0817,
      "duration": 0.082,
      "velocity": 102,
      "chip": "ym2612"
    },
    {
      "channel": 1,
      "note": 80,
      "start": 18.0829,
      "duration": 0.0818,
      "velocity": 102,
      "chip": "ym2612"
    },
    {
      "channel": 4,
      "note": 68,
      "start": 18.0846,
      "duration": 0.1981,
      "velocity": 97,
      "chip": "ym2612"
    },
    {
      "channel": 1,
      "note": 79,
      "start": 18.1649,
      "duration": 0.1142,
      "velocity": 102,
      "chip": "ym2612"
    },
    {
      "channel": 1,
      "note": 78,
      "start": 18.2792,
      "duration": 0.0808,
      "velocity": 102,
      "chip": "ym2612"
    },
    {
      "channel": 2,
      "note": 83,
      "start": 18.2805,
      "duration": 1.0383,
      "velocity": 90,
      "chip": "ym2612"
    },
    {
      "channel": 3,
      "note": 80,
      "start": 18.2816,
      "duration": 1.0376,
      "velocity": 89,
      "chip": "ym2612"
    },
    {
      "channel": 4,
      "note": 61,
      "start": 18.2828,
      "duration": 0.1915,
      "velocity": 97,
      "chip": "ym2612"
    },
    {
      "channel": 4,
      "note": 73,
      "start": 18.4744,
      "duration": 0.2335,
      "velocity": 97,
      "chip": "ym2612"
    },
    {
      "channel": 4,
      "note": 61,
      "start": 18.7081,
      "duration": 0.0795,
      "velocity": 97,
      "chip": "ym2612"
    },
    {
      "channel": 4,
      "note": 73,
      "start": 18.7877,
      "duration": 0.1025,
      "velocity": 97,
      "chip": "ym2612"
    },
    {
      "channel": 4,
      "note": 61,
      "start": 18.8903,
      "duration": 0.2337,
      "velocity": 97,
      "chip": "ym2612"
    },
    {
      "channel": 4,
      "note": 64,
      "start": 19.1242,
      "duration": 0.3125,
      "velocity": 97,
      "chip": "ym2612"
    },
    {
      "channel": 4,
      "note": 66,
      "start": 19.4368,
      "duration": 0.2577,
      "velocity": 97,
      "chip": "ym2612"
    },
    {
      "channel": 2,
      "note": 80,
      "start": 19.518,
      "duration": 0.0752,
      "velocity": 90,
      "chip": "ym2612"
    },
    {
      "channel": 3,
      "note": 76,
      "start": 19.5192,
      "duration": 0.0742,
      "velocity": 89,
      "chip": "ym2612"
    },
    {
      "channel": 4,
      "note": 68,
      "start": 19.6947,
      "duration": 0.1992,
      "velocity": 97,
      "chip": "ym2612"
    },
    {
      "channel": 0,
      "note": 79,
      "start": 19.8903,
      "duration": 0.082,
      "velocity": 102,
      "chip": "ym2612"
    },
    {
      "channel": 2,
      "note": 82,
      "start": 19.8917,
      "duration": 1.6245,
      "velocity": 90,
      "chip": "ym2612"
    },
    {
      "channel": 3,
      "note": 80,
      "start": 19.8929,
      "duration": 1.6245,
      "velocity": 89,
      "chip": "ym2612"
    },
    {
      "channel": 4,
      "note": 61,
      "start": 19.8941,
      "duration": 0.1938,
      "velocity": 97,
      "chip": "ym2612"
    },
    {
      "channel": 0,
      "note": 80,
      "start": 19.9725,
      "duration": 0.1132,
      "velocity": 102,
      "chip": "ym2612"
    },
    {
      "channel": 0,
      "note": 82,
      "start": 20.0857,
      "duration": 0.1159,
      "velocity": 102,
      "chip": "ym2612"
    },
    {
      "channel": 1,
      "note": 79,
      "start": 20.0866,
      "duration": 0.1158,
      "velocity": 102,
      "chip": "ym2612"
    },
    {
      "channel": 4,
      "note": 73,
      "start": 20.088,
      "duration": 0.2349,
      "velocity": 97,
      "chip": "ym2612"
    },
    {
      "channel": 1,
      "note": 80,
      "start": 20.2024,
      "duration": 0.1183,
      "velocity": 102,
      "chip": "ym2612"
    },
    {
      "channel": 0,
      "note": 83,
      "start": 20.3198,
      "duration": 0.081,
      "velocity": 102,
      "chip": "ym2612"
    },
    {
      "channel": 1,
      "note": 82,
      "start": 20.321,
      "duration": 0.0805,
      "velocity": 102,
      "chip": "ym2612"
    },
    {
      "channel": 4,
      "note": 61,
      "start": 20.3231,
      "duration": 0.0803,
      "velocity": 97,
      "chip": "ym2612"
    },
    {
      "channel": 4,
      "note": 73,
      "start": 20.4035,
      "duration": 0.103,
      "velocity": 97,
      "chip": "ym2612"
    },
    {
      "channel": 0,
      "note": 85,
      "start": 20.5041,
      "duration": 0.1159,
      "velocity": 102,
      "chip": "ym2612"
    },
    {
      "channel": 1,
      "note": 83,
      "start": 20.505,
      "duration": 0.1155,
      "velocity": 102,
      "chip": "ym2612"
    },
    {
      "channel": 4,
      "note": 61,
      "start": 20.5066,
      "duration": 0.2343,
      "velocity": 97,
      "chip": "ym2612"
    },
    {
      "channel": 0,
      "note": 87,
      "start": 20.7381,
      "duration": 0.314,
      "velocity": 102,
      "chip": "ym2612"
    },
    {
      "channel": 1,
      "note": 85,
      "start": 20.7393,
      "duration": 0.0823,
      "velocity": 102,
      "chip": "ym2612"
    },
    {
      "channel": 4,
      "note": 64,
      "start": 20.7411,
      "duration": 0.3131,
      "velocity": 97,
      "chip": "ym2612"
    },
    {
      "channel": 1,
      "note": 87,
      "start": 20.9352,
      "duration": 0.2789,
      "velocity": 102,
      "chip": "ym2612"
    },
    {
      "channel": 0,
      "note": 79,
      "start": 21.0523,
      "duration": 0.0836,
      "velocity": 102,
      "chip": "ym2612"
    },
    {
      "channel": 4,
      "note": 66,
      "start": 21.0544,
      "duration": 0.2651,
      "velocity": 97,
      "chip": "ym2612"
    },
    {
      "channel": 0,
      "note": 80,
      "start": 21.213,
      "duration": 0.104,
      "velocity": 102,
      "chip": "ym2612"
    },
    {
      "channel": 1,
      "note": 79,
      "start": 21.2142,
      "duration": 0.1036,
      "velocity": 102,
      "chip": "ym2612"
    },
    {
      "channel": 0,
      "note": 82,
      "start": 21.3171,
      "duration": 0.0815,
      "velocity": 102,
      "chip": "ym2612"
    },
    {
      "channel": 4,
      "note": 68,
      "start": 21.3197,
      "duration": 0.199,
      "velocity": 97,
      "chip": "ym2612"
    },
    {
      "channel": 1,
      "note": 80,
      "start": 21.3998,
      "duration": 0.1152,
      "velocity": 102,
      "chip": "ym2612"
    },
    {
      "channel": 0,
      "note": 83,
      "start": 21.514,
      "duration": 0.0823,
      "velocity": 102,
      "chip": "ym2612"
    },
    {
      "channel": 1,
      "note": 82,
      "start": 21.5151,
      "duration": 0.0818,
      "velocity": 102,
      "chip": "ym2612"
    },
    {
      "channel": 2,
      "note": 83,
      "start": 21.5164,
      "duration": 1.0509,
      "velocity": 90,
      "chip": "ym2612"
    },
    {
      "channel": 3,
      "note": 80,
      "start": 21.5176,
      "duration": 1.0505,
      "velocity": 89,
      "chip": "ym2612"
    },
    {
      "channel": 4,
      "note": 61,
      "start": 21.5188,
      "duration": 0.193,
      "velocity": 97,
      "chip": "ym2612"
    },
    {
      "channel": 0,
      "note": 85,
      "start": 21.7095,
      "duration": 0.116,
      "velocity": 102,
      "chip": "ym2612"
    },
    {
      "channel": 1,
      "note": 83,
      "start": 21.7103,
      "duration": 0.1156,
      "velocity": 102,
      "chip": "ym2612"
    },
    {
      "channel": 4,
      "note": 73,
      "start": 21.7118,
      "duration": 0.2349,
      "velocity": 97,
      "chip": "ym2612"
    },
    {
      "channel": 0,
      "note": 87,
      "start": 21.9436,
      "duration": 0.1903,
      "velocity": 102,
      "chip": "ym2612"
    },
    {
      "channel": 1,
      "note": 85,
      "start": 21.9448,
      "duration": 0.0827,
      "velocity": 102,
      "chip": "ym2612"
    },
    {
      "channel": 4,
      "note": 61,
      "start": 21.9468,
      "duration": 0.0827,
      "velocity": 97,
      "chip": "ym2612"
    },
    {
      "channel": 4,
      "note": 73,
      "start": 22.0297,
      "duration": 0.1067,
      "velocity": 97,
      "chip": "ym2612"
    },
    {
      "channel": 1,
      "note": 87,
      "start": 22.1349,
      "duration": 0.2341,
      "velocity": 102,
      "chip": "ym2612"
    },
    {
      "channel": 4,
      "note": 61,
      "start": 22.1365,
      "duration": 0.2341,
      "velocity": 97,
      "chip": "ym2612"
    },
    {
      "channel": 0,
      "note": 87,
      "start": 22.3683,
      "duration": 0.0832,
      "velocity": 102,
      "chip": "ym2612"
    },
    {
      "channel": 4,
      "note": 64,
      "start": 22.3708,
      "duration": 0.3144,
      "velocity": 97,
      "chip": "ym2612"
    },
    {
      "channel": 0,
      "note": 85,
      "start": 22.4516,
      "duration": 0.1139,
      "velocity": 102,
      "chip": "ym2612"
    },
    {
      "channel": 0,
      "note": 83,
      "start": 22.5656,
      "duration": 0.1165,
      "velocity": 102,
      "chip": "ym2612"
    },
    {
      "channel": 1,
      "note": 87,
      "start": 22.5665,
      "duration": 0.1168,
      "velocity": 102,
      "chip": "ym2612"
    },
    {
      "channel": 2,
      "note": 80,
      "start": 22.5674,
      "duration": 0.1988,
      "velocity": 90,
      "chip": "ym2612"
    },
    {
      "channel": 3,
      "note": 76,
      "start": 22.5683,
      "duration": 0.198,
      "velocity": 89,
      "chip": "ym2612"
    },
    {
      "channel": 1,
      "note": 85,
      "start": 22.6834,
      "duration": 0.0825,
      "velocity": 102,
      "chip": "ym2612"
    },
    {
      "channel": 4,
      "note": 66,
      "start": 22.6853,
      "duration": 0.2724,
      "velocity": 97,
      "chip": "ym2612"
    },
    {
      "channel": 0,
      "note": 82,
      "start": 22.7648,
      "duration": 0.0885,
      "velocity": 102,
      "chip": "ym2612"
    },
    {
      "channel": 1,
      "note": 83,
      "start": 22.766,
      "duration": 0.0878,
      "velocity": 102,
      "chip": "ym2612"
    },
    {
      "channel": 0,
      "note": 80,
      "start": 22.9552,
      "duration": 0.0822,
      "velocity": 102,
      "chip": "ym2612"
    },
    {
      "channel": 1,
      "note": 82,
      "start": 22.9564,
      "duration": 0.0817,
      "velocity": 102,
      "chip": "ym2612"
    },
    {
      "channel": 4,
      "note": 68,
      "start": 22.9578,
      "duration": 0.1985,
      "velocity": 97,
      "chip": "ym2612"
    },
    {
      "channel": 0,
      "note": 79,
      "start": 23.0375,
      "duration": 0.4272,
      "velocity": 102,
      "chip": "ym2612"
    },
    {
      "channel": 1,
      "note": 80,
      "start": 23.1528,
      "duration": 0.0829,
      "velocity": 102,
      "chip": "ym2612"
    },
    {
      "channel": 2,
      "note": 82,
      "start": 23.1541,
      "duration": 1.6346,
      "velocity": 90,
      "chip": "ym2612"
    },
    {
      "channel": 3,
      "note": 80,
      "start": 23.1552,
      "duration": 1.6346,
      "velocity": 89,
      "chip": "ym2612"
    },
    {
      "channel": 4,
      "note": 61,
      "start": 23.1566,
      "duration": 0.1929,
      "velocity": 97,
      "chip": "ym2612"
    },
    {
      "channel": 1,
      "note": 79,
      "start": 23.2359,
      "duration": 0.4282,
      "velocity": 102,
      "chip": "ym2612"
    },
    {
      "channel": 4,
      "note": 73,
      "start": 23.3495,
      "duration": 0.2352,
      "velocity": 97,
      "chip": "ym2612"
    },
    {
      "channel": 0,
      "note": 80,
      "start": 23.4648,
      "duration": 0.1175,
      "velocity": 102,
      "chip": "ym2612"
    },
    {
      "channel": 0,
      "note": 79,
      "start": 23.5824,
      "duration": 0.1878,
      "velocity": 102,
      "chip": "ym2612"
    },
    {
      "channel": 4,
      "note": 61,
      "start": 23.5848,
      "duration": 0.0812,
      "velocity": 97,
      "chip": "ym2612"
    },
    {
      "channel": 1,
      "note": 80,
      "start": 23.6642,
      "duration": 0.1069,
      "velocity": 102,
      "chip": "ym2612"
    },
    {
      "channel": 4,
      "note": 73,
      "start": 23.6661,
      "duration": 0.1066,
      "velocity": 97,
      "chip": "ym2612"
    },
    {
      "channel": 0,
      "note": 80,
      "start": 23.7703,
      "duration": 0.1157,
      "velocity": 102,
      "chip": "ym2612"
    },
    {
      "channel": 1,
      "note": 79,
      "start": 23.7713,
      "duration": 0.234,
      "velocity": 102,
      "chip": "ym2612"
    },
    {
      "channel": 4,
      "note": 61,
      "start": 23.7729,
      "duration": 0.2341,
      "velocity": 97,
      "chip": "ym2612"
    },
    {
      "channel": 0,
      "note": 79,
      "start": 24.0042,
      "duration": 0.3136,
      "velocity": 102,
      "chip": "ym2612"
    },
    {
      "channel": 1,
      "note": 80,
      "start": 24.0054,
      "duration": 0.082,
      "velocity": 102,
      "chip": "ym2612"
    },
    {
      "channel": 4,
      "note": 64,
      "start": 24.0071,
      "duration": 0.3128,
      "velocity": 97,
      "chip": "ym2612"
    },
    {
      "channel": 1,
      "note": 79,
      "start": 24.2007,
      "duration": 0.283,
      "velocity": 102,
      "chip": "ym2612"
    },
    {
      "channel": 0,
      "note": 82,
      "start": 24.3179,
      "duration": 0.0831,
      "velocity": 102,
      "chip": "ym2612"
    },
    {
      "channel": 4,
      "note": 66,
      "start": 24.32,
      "duration": 0.2718,
      "velocity": 97,
      "chip": "ym2612"
    },
    {
      "channel": 0,
      "note": 79,
      "start": 24.4011,
      "duration": 0.2712,
      "velocity": 102,
      "chip": "ym2612"
    },
    {
      "channel": 1,
      "note": 82,
      "start": 24.4839,
      "duration": 0.1061,
      "velocity": 102,
      "chip": "ym2612"
    },
    {
      "channel": 1,
      "note": 79,
      "start": 24.5901,
      "duration": 0.2804,
      "velocity": 102,
      "chip": "ym2612"
    },
    {
      "channel": 4,
      "note": 68,
      "start": 24.592,
      "duration": 0.1991,
      "velocity": 97,
      "chip": "ym2612"
    },
    {
      "channel": 0,
      "note": 82,
      "start": 24.6725,
      "duration": 0.1146,
      "velocity": 102,
      "chip": "ym2612"
    },
    {
      "channel": 0,
      "note": 79,
      "start": 24.7872,
      "duration": 0.3119,
      "velocity": 102,
      "chip": "ym2612"
    },
    {
      "channel": 2,
      "note": 83,
      "start": 24.7888,
      "duration": 1.0463,
      "velocity": 90,
      "chip": "ym2612"
    },
    {
      "channel": 3,
      "note": 80,
      "start": 24.79,
      "duration": 1.0457,
      "velocity": 89,
      "chip": "ym2612"
    },
    {
      "channel": 4,
      "note": 61,
      "start": 24.7912,
      "duration": 0.1932,
      "velocity": 97,
      "chip": "ym2612"
    },
    {
      "channel": 1,
      "note": 82,
      "start": 24.8706,
      "duration": 0.1124,
      "velocity": 102,
      "chip": "ym2612"
    },
    {
      "channel": 1,
      "note": 79,
      "start": 24.9831,
      "duration": 0.3154,
      "velocity": 102,
      "chip": "ym2612"
    },
    {
      "channel": 4,
      "note": 73,
      "start": 24.9845,
      "duration": 0.2345,
      "velocity": 97,
      "chip": "ym2612"
    },
    {
      "channel": 0,
      "note": 82,
      "start": 25.0992,
      "duration": 0.1174,
      "velocity": 102,
      "chip": "ym2612"
    },
    {
      "channel": 0,
      "note": 79,
      "start": 25.2168,
      "duration": 0.304,
      "velocity": 102,
      "chip": "ym2612"
    },
    {
      "channel": 4,
      "note": 61,
      "start": 25.2192,
      "duration": 0.0812,
      "velocity": 97,
      "chip": "ym2612"
    },
    {
      "channel": 1,
      "note": 82,
      "start": 25.2986,
      "duration": 0.1062,
      "velocity": 102,
      "chip": "ym2612"
    },
    {
      "channel": 4,
      "note": 73,
      "start": 25.3005,
      "duration": 0.1058,
      "velocity": 97,
      "chip": "ym2612"
    },
    {
      "channel": 1,
      "note": 79,
      "start": 25.4049,
      "duration": 0.3166,
      "velocity": 102,
      "chip": "ym2612"
    },
    {
      "channel": 4,
      "note": 61,
      "start": 25.4065,
      "duration": 0.234,
      "velocity": 97,
      "chip": "ym2612"
    },
    {
      "channel": 0,
      "note": 82,
      "start": 25.521,
      "duration": 0.1174,
      "velocity": 102,
      "chip": "ym2612"
    },
    {
      "channel": 0,
      "note": 79,
      "start": 25.6385,
      "duration": 0.1953,
      "velocity": 102,
      "chip": "ym2612"
    },
    {
      "channel": 4,
      "note": 64,
      "start": 25.6406,
      "duration": 0.3115,
      "velocity": 97,
      "chip": "ym2612"
    },
    {
      "channel": 1,
      "note": 82,
      "start": 25.7217,
      "duration": 0.1129,
      "velocity": 102,
      "chip": "ym2612"
    },
    {
      "channel": 1,
      "note": 79,
      "start": 25.8347,
      "duration": 0.1974,
      "velocity": 102,
      "chip": "ym2612"
    },
    {
      "channel": 4,
      "note": 66,
      "start": 25.9522,
      "duration": 0.2423,
      "velocity": 97,
      "chip": "ym2612"
    },
    {
      "channel": 0,
      "note": 80,
      "start": 26.032,
      "duration": 0.0777,
      "velocity": 102,
      "chip": "ym2612"
    },
    {
      "channel": 2,
      "note": 80,
      "start": 26.0334,
      "duration": 0.0767,
      "velocity": 90,
      "chip": "ym2612"
    },
    {
      "channel": 3,
      "note": 76,
      "start": 26.0345,
      "duration": 0.0757,
      "velocity": 89,
      "chip": "ym2612"
    },
    {
      "channel": 0,
      "note": 82,
      "start": 26.1098,
      "duration": 0.082,
      "velocity": 102,
      "chip": "ym2612"
    },
    {
      "channel": 0,
      "note": 83,
      "start": 26.192,
      "duration": 0.0846,
      "velocity": 102,
      "chip": "ym2612"
    },
    {
      "channel": 1,
      "note": 80,
      "start": 26.1932,
      "duration": 0.0846,
      "velocity": 102,
      "chip": "ym2612"
    },
    {
      "channel": 4,
      "note": 68,
      "start": 26.1946,
      "duration": 0.1779,
      "velocity": 97,
      "chip": "ym2612"
    },
    {
      "channel": 0,
      "note": 85,
      "start": 26.2768,
      "duration": 0.0832,
      "velocity": 102,
      "chip": "ym2612"
    },
    {
      "channel": 1,
      "note": 82,
      "start": 26.278,
      "duration": 0.0832,
      "velocity": 102,
      "chip": "ym2612"
    },
    {
      "channel": 0,
      "note": 87,
      "start": 26.3601,
      "duration": 1.1696,
      "velocity": 102,
      "chip": "ym2612"
    },
    {
      "channel": 1,
      "note": 83,
      "start": 26.3613,
      "duration": 0.0831,
      "velocity": 102,
      "chip": "ym2612"
    },
    {
      "channel": 2,
      "note": 83,
      "start": 26.3659,
      "duration": 0.399,
      "velocity": 90,
      "chip": "ym2612"
    },
    {
      "channel": 3,
      "note": 80,
      "start": 26.3714,
      "duration": 0.3947,
      "velocity": 90,
      "chip": "ym2612"
    },
    {
      "channel": 4,
      "note": 64,
      "start": 26.3727,
      "duration": 0.3946,
      "velocity": 97,
      "chip": "ym2612"
    },
    {
      "channel": 1,
      "note": 85,
      "start": 26.4445,
      "duration": 0.1041,
      "velocity": 102,
      "chip": "ym2612"
    },
    {
      "channel": 1,
      "note": 87,
      "start": 26.5488,
      "duration": 1.1537,
      "velocity": 102,
      "chip": "ym2612"
    },
    {
      "channel": 2,
      "note": 85,
      "start": 26.765,
      "duration": 0.3787,
      "velocity": 90,
      "chip": "ym2612"
    },
    {
      "channel": 3,
      "note": 76,
      "start": 26.7662,
      "duration": 0.3787,
      "velocity": 90,
      "chip": "ym2612"
    },
    {
      "channel": 4,
      "note": 68,
      "start": 26.7674,
      "duration": 0.3787,
      "velocity": 97,
      "chip": "ym2612"
    },
    {
      "channel": 2,
      "note": 87,
      "start": 27.1439,
      "duration": 0.3872,
      "velocity": 90,
      "chip": "ym2612"
    },
    {
      "channel": 3,
      "note": 78,
      "start": 27.145,
      "duration": 0.3873,
      "velocity": 90,
      "chip": "ym2612"
    },
    {
      "channel": 4,
      "note": 71,
      "start": 27.1462,
      "duration": 0.3013,
      "velocity": 97,
      "chip": "ym2612"
    },
    {
      "channel": 4,
      "note": 64,
      "start": 27.4476,
      "duration": 0.1512,
      "velocity": 97,
      "chip": "ym2612"
    },
    {
      "channel": 0,
      "note": 88,
      "start": 27.5298,
      "duration": 0.1715,
      "velocity": 102,
      "chip": "ym2612"
    },
    {
      "channel": 2,
      "note": 83,
      "start": 27.5312,
      "duration": 0.1724,
      "velocity": 90,
      "chip": "ym2612"
    },
    {
      "channel": 3,
      "note": 80,
      "start": 27.5325,
      "duration": 0.1725,
      "velocity": 90,
      "chip": "ym2612"
    },
    {
      "channel": 4,
      "note": 76,
      "start": 27.5989,
      "duration": 0.1072,
      "velocity": 97,
      "chip": "ym2612"
    },
    {
      "channel": 0,
      "note": 85,
      "start": 27.7014,
      "duration": 1.3252,
      "velocity": 102,
      "chip": "ym2612"
    },
    {
      "channel": 1,
      "note": 88,
      "start": 27.7027,
      "duration": 0.1899,
      "velocity": 102,
      "chip": "ym2612"
    },
    {
      "channel": 2,
      "note": 85,
      "start": 27.7038,
      "duration": 0.5899,
      "velocity": 90,
      "chip": "ym2612"
    },
    {
      "channel": 3,
      "note": 78,
      "start": 27.7051,
      "duration": 0.5897,
      "velocity": 90,
      "chip": "ym2612"
    },
    {
      "channel": 4,
      "note": 63,
      "start": 27.7063,
      "duration": 0.5897,
      "velocity": 97,
      "chip": "ym2612"
    },
    {
      "channel": 1,
      "note": 85,
      "start": 27.8927,
      "duration": 1.322,
      "velocity": 102,
      "chip": "ym2612"
    },
    {
      "channel": 2,
      "note": 83,
      "start": 28.2939,
      "duration": 0.3631,
      "velocity": 90,
      "chip": "ym2612"
    },
    {
      "channel": 3,
      "note": 80,
      "start": 28.295,
      "duration": 0.3631,
      "velocity": 90,
      "chip": "ym2612"
    },
    {
      "channel": 4,
      "note": 66,
      "start": 28.2961,
      "duration": 0.3632,
      "velocity": 97,
      "chip": "ym2612"
    },
    {
      "channel": 2,
      "note": 82,
      "start": 28.6571,
      "duration": 0.371,
      "velocity": 90,
      "chip": "ym2612"
    },
    {
      "channel": 3,
      "note": 78,
      "start": 28.6582,
      "duration": 0.371,
      "velocity": 90,
      "chip": "ym2612"
    },
    {
      "channel": 4,
      "note": 70,
      "start": 28.6595,
      "duration": 0.2845,
      "velocity": 97,
      "chip": "ym2612"
    },
    {
      "channel": 4,
      "note": 63,
      "start": 28.9441,
      "duration": 0.1663,
      "velocity": 97,
      "chip": "ym2612"
    },
    {
      "channel": 0,
      "note": 87,
      "start": 29.0267,
      "duration": 0.1868,
      "velocity": 102,
      "chip": "ym2612"
    },
    {
      "channel": 2,
      "note": 78,
      "start": 29.0282,
      "duration": 0.3805,
      "velocity": 90,
      "chip": "ym2612"
    },
    {
      "channel": 3,
      "note": 75,
      "start": 29.0294,
      "duration": 0.3807,
      "velocity": 90,
      "chip": "ym2612"
    },
    {
      "channel": 4,
      "note": 75,
      "start": 29.1106,
      "duration": 0.1062,
      "velocity": 97,
      "chip": "ym2612"
    },
    {
      "channel": 0,
      "note": 83,
      "start": 29.2137,
      "duration": 1.3387,
      "velocity": 102,
      "chip": "ym2612"
    },
    {
      "channel": 1,
      "note": 87,
      "start": 29.2149,
      "duration": 0.1926,
      "velocity": 102,
      "chip": "ym2612"
    },
    {
      "channel": 4,
      "note": 63,
      "start": 29.217,
      "duration": 0.1941,
      "velocity": 97,
      "chip": "ym2612"
    },
    {
      "channel": 1,
      "note": 83,
      "start": 29.4077,
      "duration": 1.3313,
      "velocity": 102,
      "chip": "ym2612"
    },
    {
      "channel": 2,
      "note": 83,
      "start": 29.4089,
      "duration": 0.3955,
      "velocity": 90,
      "chip": "ym2612"
    },
    {
      "channel": 3,
      "note": 80,
      "start": 29.4102,
      "duration": 0.3954,
      "velocity": 90,
      "chip": "ym2612"
    },
    {
      "channel": 4,
      "note": 61,
      "start": 29.4113,
      "duration": 0.3955,
      "velocity": 97,
      "chip": "ym2612"
    },
    {
      "channel": 2,
      "note": 82,
      "start": 29.8045,
      "duration": 0.3649,
      "velocity": 90,
      "chip": "ym2612"
    },
    {
      "channel": 3,
      "note": 78,
      "start": 29.8057,
      "duration": 0.3648,
      "velocity": 90,
      "chip": "ym2612"
    },
    {
      "channel": 4,
      "note": 64,
      "start": 29.8069,
      "duration": 0.3648,
      "velocity": 97,
      "chip": "ym2612"
    },
    {
      "channel": 2,
      "note": 80,
      "start": 30.1695,
      "duration": 0.3844,
      "velocity": 90,
      "chip": "ym2612"
    },
    {
      "channel": 3,
      "note": 76,
      "start": 30.1707,
      "duration": 0.3845,
      "velocity": 90,
      "chip": "ym2612"
    },
    {
      "channel": 4,
      "note": 68,
      "start": 30.1719,
      "duration": 0.2978,
      "velocity": 97,
      "chip": "ym2612"
    },
    {
      "channel": 4,
      "note": 61,
      "start": 30.4698,
      "duration": 0.1661,
      "velocity": 97,
      "chip": "ym2612"
    },
    {
      "channel": 0,
      "note": 85,
      "start": 30.5526,
      "duration": 0.1852,
      "velocity": 102,
      "chip": "ym2612"
    },
    {
      "channel": 2,
      "note": 82,
      "start": 30.554,
      "duration": 0.3774,
      "velocity": 90,
      "chip": "ym2612"
    },
    {
      "channel": 3,
      "note": 76,
      "start": 30.5553,
      "duration": 0.3772,
      "velocity": 90,
      "chip": "ym2612"
    },
    {
      "channel": 4,
      "note": 73,
      "start": 30.636,
      "duration": 0.105,
      "velocity": 97,
      "chip": "ym2612"
    },
    {
      "channel": 0,
      "note": 82,
      "start": 30.7379,
      "duration": 1.3561,
      "velocity": 102,
      "chip": "ym2612"
    },
    {
      "channel": 1,
      "note": 85,
      "start": 30.7391,
      "duration": 0.1911,
      "velocity": 102,
      "chip": "ym2612"
    },
    {
      "channel": 4,
      "note": 68,
      "start": 30.7411,
      "duration": 0.0827,
      "velocity": 97,
      "chip": "ym2612"
    },
    {
      "channel": 4,
      "note": 61,
      "start": 30.8239,
      "duration": 0.1099,
      "velocity": 97,
      "chip": "ym2612"
    },
    {
      "channel": 1,
      "note": 82,
      "start": 30.9303,
      "duration": 1.3574,
      "velocity": 102,
      "chip": "ym2612"
    },
    {
      "channel": 2,
      "note": 85,
      "start": 30.9315,
      "duration": 0.403,
      "velocity": 90,
      "chip": "ym2612"
    },
    {
      "channel": 3,
      "note": 82,
      "start": 30.9327,
      "duration": 0.403,
      "velocity": 90,
      "chip": "ym2612"
    },
    {
      "channel": 4,
      "note": 63,
      "start": 30.934,
      "duration": 0.403,
      "velocity": 97,
      "chip": "ym2612"
    },
    {
      "channel": 2,
      "note": 83,
      "start": 31.3347,
      "duration": 0.3716,
      "velocity": 90,
      "chip": "ym2612"
    },
    {
      "channel": 3,
      "note": 80,
      "start": 31.3358,
      "duration": 0.3717,
      "velocity": 90,
      "chip": "ym2612"
    },
    {
      "channel": 4,
      "note": 70,
      "start": 31.3372,
      "duration": 0.3716,
      "velocity": 97,
      "chip": "ym2612"
    },
    {
      "channel": 2,
      "note": 82,
      "start": 31.7064,
      "duration": 0.3891,
      "velocity": 90,
      "chip": "ym2612"
    },
    {
      "channel": 3,
      "note": 78,
      "start": 31.7077,
      "duration": 0.389,
      "velocity": 90,
      "chip": "ym2612"
    },
    {
      "channel": 4,
      "note": 66,
      "start": 31.709,
      "duration": 0.3025,
      "velocity": 97,
      "chip": "ym2612"
    },
    {
      "channel": 4,
      "note": 63,
      "start": 32.0116,
      "duration": 0.0862,
      "velocity": 97,
      "chip": "ym2612"
    },
    {
      "channel": 0,
      "note": 80,
      "start": 32.0941,
      "duration": 0.0851,
      "velocity": 102,
      "chip": "ym2612"
    },
    {
      "channel": 2,
      "note": 82,
      "start": 32.0956,
      "duration": 0.1933,
      "velocity": 90,
      "chip": "ym2612"
    },
    {
      "channel": 3,
      "note": 75,
      "start": 32.0968,
      "duration": 0.3833,
      "velocity": 90,
      "chip": "ym2612"
    },
    {
      "channel": 4,
      "note": 75,
      "start": 32.098,
      "duration": 0.0835,
      "velocity": 97,
      "chip": "ym2612"
    },
    {
      "channel": 0,
      "note": 82,
      "start": 32.1794,
      "duration": 0.1071,
      "velocity": 102,
      "chip": "ym2612"
    },
    {
      "channel": 4,
      "note": 64,
      "start": 32.1817,
      "duration": 0.1088,
      "velocity": 97,
      "chip": "ym2612"
    },
    {
      "channel": 0,
      "note": 83,
      "start": 32.2866,
      "duration": 0.0848,
      "velocity": 102,
      "chip": "ym2612"
    },
    {
      "channel": 1,
      "note": 80,
      "start": 32.2878,
      "duration": 0.0848,
      "velocity": 102,
      "chip": "ym2612"
    },
    {
      "channel": 2,
      "note": 81,
      "start": 32.289,
      "duration": 0.1899,
      "velocity": 90,
      "chip": "ym2612"
    },
    {
      "channel": 4,
      "note": 66,
      "start": 32.2906,
      "duration": 0.0841,
      "velocity": 97,
      "chip": "ym2612"
    },
    {
      "channel": 0,
      "note": 85,
      "start": 32.3716,
      "duration": 0.105,
      "velocity": 102,
      "chip": "ym2612"
    },
    {
      "channel": 1,
      "note": 82,
      "start": 32.3727,
      "duration": 0.105,
      "velocity": 102,
      "chip": "ym2612"
    },
    {
      "channel": 4,
      "note": 68,
      "start": 32.3748,
      "duration": 0.1066,
      "velocity": 97,
      "chip": "ym2612"
    },
    {
      "channel": 0,
      "note": 87,
      "start": 32.4766,
      "duration": 1.1676,
      "velocity": 102,
      "chip": "ym2612"
    },
    {
      "channel": 1,
      "note": 83,
      "start": 32.4778,
      "duration": 0.083,
      "velocity": 102,
      "chip": "ym2612"
    },
    {
      "channel": 2,
      "note": 83,
      "start": 32.4791,
      "duration": 0.402,
      "velocity": 90,
      "chip": "ym2612"
    },
    {
      "channel": 3,
      "note": 80,
      "start": 32.4802,
      "duration": 0.4021,
      "velocity": 90,
      "chip": "ym2612"
    },
    {
      "channel": 4,
      "note": 64,
      "start": 32.4815,
      "duration": 0.402,
      "velocity": 97,
      "chip": "ym2612"
    },
    {
      "channel": 1,
      "note": 85,
      "start": 32.561,
      "duration": 0.1085,
      "velocity": 102,
      "chip": "ym2612"
    },
    {
      "channel": 1,
      "note": 87,
      "start": 32.6696,
      "duration": 1.1634,
      "velocity": 102,
      "chip": "ym2612"
    },
    {
      "channel": 2,
      "note": 85,
      "start": 32.8812,
      "duration": 0.3804,
      "velocity": 90,
      "chip": "ym2612"
    },
    {
      "channel": 3,
      "note": 76,
      "start": 32.8824,
      "duration": 0.3804,
      "velocity": 90,
      "chip": "ym2612"
    },
    {
      "channel": 4,
      "note": 68,
      "start": 32.8837,
      "duration": 0.3802,
      "velocity": 97,
      "chip": "ym2612"
    },
    {
      "channel": 2,
      "note": 87,
      "start": 33.2617,
      "duration": 0.384,
      "velocity": 90,
      "chip": "ym2612"
    },
    {
      "channel": 3,
      "note": 78,
      "start": 33.2629,
      "duration": 0.3841,
      "velocity": 90,
      "chip": "ym2612"
    },
    {
      "channel": 4,
      "note": 71,
      "start": 33.2641,
      "duration": 0.2984,
      "velocity": 97,
      "chip": "ym2612"
    },
    {
      "channel": 4,
      "note": 64,
      "start": 33.5627,
      "duration": 0.169,
      "velocity": 97,
      "chip": "ym2612"
    },
    {
      "channel": 0,
      "note": 88,
      "start": 33.6444,
      "duration": 0.1874,
      "velocity": 102,
      "chip": "ym2612"
    },
    {
      "channel": 2,
      "note": 83,
      "start": 33.6459,
      "duration": 0.1884,
      "velocity": 90,
      "chip": "ym2612"
    },
    {
      "channel": 3,
      "note": 80,
      "start": 33.6471,
      "duration": 0.1883,
      "velocity": 90,
      "chip": "ym2612"
    },
    {
      "channel": 4,
      "note": 76,
      "start": 33.7318,
      "duration": 0.1047,
      "velocity": 97,
      "chip": "ym2612"
    },
    {
      "channel": 0,
      "note": 85,
      "start": 33.832,
      "duration": 1.336,
      "velocity": 102,
      "chip": "ym2612"
    },
    {
      "channel": 1,
      "note": 88,
      "start": 33.8332,
      "duration": 0.1893,
      "velocity": 102,
      "chip": "ym2612"
    },
    {
      "channel": 2,
      "note": 85,
      "start": 33.8344,
      "duration": 0.5823,
      "velocity": 90,
      "chip": "ym2612"
    },
    {
      "channel": 3,
      "note": 78,
      "start": 33.8356,
      "duration": 0.5823,
      "velocity": 90,
      "chip": "ym2612"
    },
    {
      "channel": 4,
      "note": 63,
      "start": 33.8367,
      "duration": 0.5824,
      "velocity": 97,
      "chip": "ym2612"
    },
    {
      "channel": 1,
      "note": 85,
      "start": 34.0226,
      "duration": 1.3305,
      "velocity": 102,
      "chip": "ym2612"
    },
    {
      "channel": 2,
      "note": 83,
      "start": 34.4168,
      "duration": 0.3691,
      "velocity": 90,
      "chip": "ym2612"
    },
    {
      "channel": 3,
      "note": 80,
      "start": 34.418,
      "duration": 0.3691,
      "velocity": 90,
      "chip": "ym2612"
    },
    {
      "channel": 4,
      "note": 66,
      "start": 34.4193,
      "duration": 0.369,
      "velocity": 97,
      "chip": "ym2612"
    },
    {
      "channel": 2,
      "note": 82,
      "start": 34.786,
      "duration": 0.3835,
      "velocity": 90,
      "chip": "ym2612"
    },
    {
      "channel": 3,
      "note": 78,
      "start": 34.7872,
      "duration": 0.3835,
      "velocity": 90,
      "chip": "ym2612"
    },
    {
      "channel": 4,
      "note": 70,
      "start": 34.7883,
      "duration": 0.2971,
      "velocity": 97,
      "chip": "ym2612"
    },
    {
      "channel": 4,
      "note": 63,
      "start": 35.0855,
      "duration": 0.1651,
      "velocity": 97,
      "chip": "ym2612"
    },
    {
      "channel": 0,
      "note": 87,
      "start": 35.1682,
      "duration": 0.1837,
      "velocity": 102,
      "chip": "ym2612"
    },
    {
      "channel": 2,
      "note": 78,
      "start": 35.1697,
      "duration": 0.3755,
      "velocity": 90,
      "chip": "ym2612"
    },
    {
      "channel": 3,
      "note": 75,
      "start": 35.1708,
      "duration": 0.3755,
      "velocity": 90,
      "chip": "ym2612"
    },
    {
      "channel": 4,
      "note": 75,
      "start": 35.2508,
      "duration": 0.1044,
      "velocity": 97,
      "chip": "ym2612"
    },
    {
      "channel": 0,
      "note": 83,
      "start": 35.3521,
      "duration": 1.3418,
      "velocity": 102,
      "chip": "ym2612"
    },
    {
      "channel": 1,
      "note": 87,
      "start": 35.3533,
      "duration": 0.1906,
      "velocity": 102,
      "chip": "ym2612"
    },
    {
      "channel": 4,
      "note": 63,
      "start": 35.3553,
      "duration": 0.1922,
      "velocity": 97,
      "chip": "ym2612"
    },
    {
      "channel": 1,
      "note": 83,
      "start": 35.5441,
      "duration": 1.3363,
      "velocity": 102,
      "chip": "ym2612"
    },
    {
      "channel": 2,
      "note": 83,
      "start": 35.5453,
      "duration": 0.4032,
      "velocity": 90,
      "chip": "ym2612"
    },
    {
      "channel": 3,
      "note": 80,
      "start": 35.5465,
      "duration": 0.4033,
      "velocity": 90,
      "chip": "ym2612"
    },
    {
      "channel": 4,
      "note": 61,
      "start": 35.5476,
      "duration": 0.4034,
      "velocity": 97,
      "chip": "ym2612"
    },
    {
      "channel": 2,
      "note": 82,
      "start": 35.9487,
      "duration": 0.3749,
      "velocity": 90,
      "chip": "ym2612"
    },
    {
      "channel": 3,
      "note": 78,
      "start": 35.9499,
      "duration": 0.375,
      "velocity": 90,
      "chip": "ym2612"
    },
    {
      "channel": 4,
      "note": 64,
      "start": 35.9511,
      "duration": 0.375,
      "velocity": 97,
      "chip": "ym2612"
    },
    {
      "channel": 2,
      "note": 80,
      "start": 36.3237,
      "duration": 0.3716,
      "velocity": 90,
      "chip": "ym2612"
    },
    {
      "channel": 3,
      "note": 76,
      "start": 36.325,
      "duration": 0.3715,
      "velocity": 90,
      "chip": "ym2612"
    },
    {
      "channel": 4,
      "note": 68,
      "start": 36.3263,
      "duration": 0.2851,
      "velocity": 97,
      "chip": "ym2612"
    },
    {
      "channel": 4,
      "note": 61,
      "start": 36.6114,
      "duration": 0.1658,
      "velocity": 97,
      "chip": "ym2612"
    },
    {
      "channel": 0,
      "note": 85,
      "start": 36.694,
      "duration": 0.1852,
      "velocity": 102,
      "chip": "ym2612"
    },
    {
      "channel": 2,
      "note": 82,
      "start": 36.6955,
      "duration": 0.3777,
      "velocity": 90,
      "chip": "ym2612"
    },
    {
      "channel": 3,
      "note": 76,
      "start": 36.6966,
      "duration": 0.3777,
      "velocity": 90,
      "chip": "ym2612"
    },
    {
      "channel": 4,
      "note": 73,
      "start": 36.7774,
      "duration": 0.105,
      "velocity": 97,
      "chip": "ym2612"
    },
    {
      "channel": 0,
      "note": 82,
      "start": 36.8794,
      "duration": 0.975,
      "velocity": 102,
      "chip": "ym2612"
    },
    {
      "channel": 1,
      "note": 85,
      "start": 36.8805,
      "duration": 0.1914,
      "velocity": 102,
      "chip": "ym2612"
    },
    {
      "channel": 4,
      "note": 68,
      "start": 36.8825,
      "duration": 0.0831,
      "velocity": 97,
      "chip": "ym2612"
    },
    {
      "channel": 4,
      "note": 61,
      "start": 36.9657,
      "duration": 0.1099,
      "velocity": 97,
      "chip": "ym2612"
    },
    {
      "channel": 1,
      "note": 82,
      "start": 37.0721,
      "duration": 0.9741,
      "velocity": 102,
      "chip": "ym2612"
    },
    {
      "channel": 2,
      "note": 85,
      "start": 37.0733,
      "duration": 0.7826,
      "velocity": 90,
      "chip": "ym2612"
    },
    {
      "channel": 3,
      "note": 82,
      "start": 37.0744,
      "duration": 0.7826,
      "velocity": 90,
      "chip": "ym2612"
    },
    {
      "channel": 4,
      "note": 63,
      "start": 37.0758,
      "duration": 0.4008,
      "velocity": 97,
      "chip": "ym2612"
    },
    {
      "channel": 4,
      "note": 70,
      "start": 37.4767,
      "duration": 0.3817,
      "velocity": 97,
      "chip": "ym2612"
    },
    {
      "channel": 0,
      "note": 79,
      "start": 37.8545,
      "duration": 0.0837,
      "velocity": 102,
      "chip": "ym2612"
    },
    {
      "channel": 2,
      "note": 85,
      "start": 37.856,
      "duration": 0.3789,
      "velocity": 90,
      "chip": "ym2612"
    },
    {
      "channel": 3,
      "note": 81,
      "start": 37.8572,
      "duration": 0.3789,
      "velocity": 90,
      "chip": "ym2612"
    },
    {
      "channel": 4,
      "note": 66,
      "start": 37.8585,
      "duration": 0.293,
      "velocity": 97,
      "chip": "ym2612"
    },
    {
      "channel": 0,
      "note": 82,
      "start": 37.9383,
      "duration": 0.1067,
      "velocity": 102,
      "chip": "ym2612"
    },
    {
      "channel": 0,
      "note": 79,
      "start": 38.0451,
      "duration": 0.1874,
      "velocity": 102,
      "chip": "ym2612"
    },
    {
      "channel": 1,
      "note": 79,
      "start": 38.0463,
      "duration": 0.1032,
      "velocity": 102,
      "chip": "ym2612"
    },
    {
      "channel": 1,
      "note": 82,
      "start": 38.1496,
      "duration": 0.0841,
      "velocity": 102,
      "chip": "ym2612"
    },
    {
      "channel": 4,
      "note": 62,
      "start": 38.1516,
      "duration": 0.0858,
      "velocity": 97,
      "chip": "ym2612"
    },
    {
      "channel": 0,
      "note": 80,
      "start": 38.2327,
      "duration": 0.0813,
      "velocity": 102,
      "chip": "ym2612"
    },
    {
      "channel": 1,
      "note": 79,
      "start": 38.2339,
      "duration": 0.1859,
      "velocity": 102,
      "chip": "ym2612"
    },
    {
      "channel": 2,
      "note": 79,
      "start": 38.2351,
      "duration": 0.3815,
      "velocity": 107,
      "chip": "ym2612"
    },
    {
      "channel": 3,
      "note": 76,
      "start": 38.2362,
      "duration": 0.3857,
      "velocity": 107,
      "chip": "ym2612"
    },
    {
      "channel": 4,
      "note": 74,
      "start": 38.2376,
      "duration": 0.0787,
      "velocity": 97,
      "chip": "ym2612"
    },
    {
      "channel": 0,
      "note": 79,
      "start": 38.3141,
      "duration": 0.1045,
      "velocity": 102,
      "chip": "ym2612"
    },
    {
      "channel": 4,
      "note": 64,
      "start": 38.3164,
      "duration": 0.1053,
      "velocity": 97,
      "chip": "ym2612"
    },
    {
      "channel": 0,
      "note": 78,
      "start": 38.4187,
      "duration": 0.0835,
      "velocity": 102,
      "chip": "ym2612"
    },
    {
      "channel": 1,
      "note": 80,
      "start": 38.4199,
      "duration": 0.0835,
      "velocity": 102,
      "chip": "ym2612"
    },
    {
      "channel": 4,
      "note": 66,
      "start": 38.4218,
      "duration": 0.0835,
      "velocity": 97,
      "chip": "ym2612"
    },
    {
      "channel": 0,
      "note": 76,
      "start": 38.5024,
      "duration": 0.1084,
      "velocity": 102,
      "chip": "ym2612"
    },
    {
      "channel": 1,
      "note": 79,
      "start": 38.5036,
      "duration": 0.1084,
      "velocity": 102,
      "chip": "ym2612"
    },
    {
      "channel": 4,
      "note": 68,
      "start": 38.5055,
      "duration": 0.1176,
      "velocity": 97,
      "chip": "ym2612"
    },
    {
      "channel": 0,
      "note": 75,
      "start": 38.6109,
      "duration": 0.0824,
      "velocity": 102,
      "chip": "ym2612"
    },
    {
      "channel": 1,
      "note": 78,
      "start": 38.6121,
      "duration": 0.0823,
      "velocity": 102,
      "chip": "ym2612"
    },
    {
      "channel": 2,
      "note": 70,
      "start": 38.6167,
      "duration": 1.5622,
      "velocity": 107,
      "chip": "ym2612"
    },
    {
      "channel": 3,
      "note": 68,
      "start": 38.622,
      "duration": 1.5581,
      "velocity": 107,
      "chip": "ym2612"
    },
    {
      "channel": 4,
      "note": 61,
      "start": 38.6232,
      "duration": 0.1826,
      "velocity": 97,
      "chip": "ym2612"
    },
    {
      "channel": 1,
      "note": 76,
      "start": 38.6946,
      "duration": 0.1092,
      "velocity": 102,
      "chip": "ym2612"
    },
    {
      "channel": 0,
      "note": 87,
      "start": 38.8028,
      "duration": 0.1072,
      "velocity": 102,
      "chip": "ym2612"
    },
    {
      "channel": 1,
      "note": 75,
      "start": 38.8039,
      "duration": 0.1067,
      "velocity": 102,
      "chip": "ym2612"
    },
    {
      "channel": 4,
      "note": 73,
      "start": 38.8059,
      "duration": 0.2121,
      "velocity": 97,
      "chip": "ym2612"
    },
    {
      "channel": 0,
      "note": 82,
      "start": 39.0149,
      "duration": 0.2952,
      "velocity": 102,
      "chip": "ym2612"
    },
    {
      "channel": 1,
      "note": 87,
      "start": 39.0161,
      "duration": 0.0811,
      "velocity": 102,
      "chip": "ym2612"
    },
    {
      "channel": 4,
      "note": 61,
      "start": 39.0181,
      "duration": 0.0809,
      "velocity": 97,
      "chip": "ym2612"
    },
    {
      "channel": 4,
      "note": 73,
      "start": 39.0991,
      "duration": 0.1053,
      "velocity": 97,
      "chip": "ym2612"
    },
    {
      "channel": 1,
      "note": 82,
      "start": 39.2026,
      "duration": 0.2972,
      "velocity": 102,
      "chip": "ym2612"
    },
    {
      "channel": 4,
      "note": 61,
      "start": 39.2045,
      "duration": 0.2139,
      "velocity": 97,
      "chip": "ym2612"
    },
    {
      "channel": 0,
      "note": 83,
      "start": 39.3102,
      "duration": 0.1062,
      "velocity": 102,
      "chip": "ym2612"
    },
    {
      "channel": 4,
      "note": 64,
      "start": 39.4186,
      "duration": 0.2993,
      "velocity": 97,
      "chip": "ym2612"
    },
    {
      "channel": 1,
      "note": 83,
      "start": 39.4999,
      "duration": 0.1081,
      "velocity": 102,
      "chip": "ym2612"
    },
    {
      "channel": 4,
      "note": 66,
      "start": 39.718,
      "duration": 0.2717,
      "velocity": 97,
      "chip": "ym2612"
    },
    {
      "channel": 4,
      "note": 68,
      "start": 39.9899,
      "duration": 0.1914,
      "velocity": 97,
      "chip": "ym2612"
    },
    {
      "channel": 2,
      "note": 71,
      "start": 40.179,
      "duration": 0.9859,
      "velocity": 107,
      "chip": "ym2612"
    },
    {
      "channel": 3,
      "note": 68,
      "start": 40.1803,
      "duration": 0.9859,
      "velocity": 107,
      "chip": "ym2612"
    },
    {
      "channel": 4,
      "note": 61,
      "start": 40.1814,
      "duration": 0.1862,
      "velocity": 97,
      "chip": "ym2612"
    },
    {
      "channel": 0,
      "note": 87,
      "start": 40.3651,
      "duration": 0.1032,
      "velocity": 102,
      "chip": "ym2612"
    },
    {
      "channel": 4,
      "note": 73,
      "start": 40.3678,
      "duration": 0.2089,
      "velocity": 97,
      "chip": "ym2612"
    },
    {
      "channel": 0,
      "note": 82,
      "start": 40.5734,
      "duration": 0.2939,
      "velocity": 102,
      "chip": "ym2612"
    },
    {
      "channel": 1,
      "note": 87,
      "start": 40.5747,
      "duration": 0.0817,
      "velocity": 102,
      "chip": "ym2612"
    },
    {
      "channel": 4,
      "note": 61,
      "start": 40.5768,
      "duration": 0.0814,
      "velocity": 97,
      "chip": "ym2612"
    },
    {
      "channel": 4,
      "note": 73,
      "start": 40.6584,
      "duration": 0.1047,
      "velocity": 97,
      "chip": "ym2612"
    },
    {
      "channel": 1,
      "note": 82,
      "start": 40.7613,
      "duration": 0.2958,
      "velocity": 102,
      "chip": "ym2612"
    },
    {
      "channel": 4,
      "note": 61,
      "start": 40.7632,
      "duration": 0.2126,
      "velocity": 97,
      "chip": "ym2612"
    },
    {
      "channel": 0,
      "note": 83,
      "start": 40.8676,
      "duration": 0.1062,
      "velocity": 102,
      "chip": "ym2612"
    },
    {
      "channel": 4,
      "note": 64,
      "start": 40.9759,
      "duration": 0.2932,
      "velocity": 97,
      "chip": "ym2612"
    },
    {
      "channel": 1,
      "note": 83,
      "start": 41.0572,
      "duration": 0.1067,
      "velocity": 102,
      "chip": "ym2612"
    },
    {
      "channel": 2,
      "note": 68,
      "start": 41.165,
      "duration": 0.1854,
      "velocity": 107,
      "chip": "ym2612"
    },
    {
      "channel": 3,
      "note": 64,
      "start": 41.1663,
      "duration": 0.1842,
      "velocity": 107,
      "chip": "ym2612"
    },
    {
      "channel": 4,
      "note": 66,
      "start": 41.2693,
      "duration": 0.2657,
      "velocity": 97,
      "chip": "ym2612"
    },
    {
      "channel": 0,
      "note": 87,
      "start": 41.5335,
      "duration": 0.0828,
      "velocity": 102,
      "chip": "ym2612"
    },
    {
      "channel": 4,
      "note": 68,
      "start": 41.5351,
      "duration": 0.1939,
      "velocity": 97,
      "chip": "ym2612"
    },
    {
      "channel": 0,
      "note": 82,
      "start": 41.7244,
      "duration": 0.2963,
      "velocity": 102,
      "chip": "ym2612"
    },
    {
      "channel": 1,
      "note": 87,
      "start": 41.7257,
      "duration": 0.082,
      "velocity": 102,
      "chip": "ym2612"
    },
    {
      "channel": 2,
      "note": 70,
      "start": 41.7269,
      "duration": 1.5497,
      "velocity": 107,
      "chip": "ym2612"
    },
    {
      "channel": 3,
      "note": 68,
      "start": 41.728,
      "duration": 1.5497,
      "velocity": 107,
      "chip": "ym2612"
    },
    {
      "channel": 4,
      "note": 61,
      "start": 41.7292,
      "duration": 0.1899,
      "velocity": 97,
      "chip": "ym2612"
    },
    {
      "channel": 1,
      "note": 82,
      "start": 41.9171,
      "duration": 0.2917,
      "velocity": 102,
      "chip": "ym2612"
    },
    {
      "channel": 4,
      "note": 73,
      "start": 41.9193,
      "duration": 0.2104,
      "velocity": 97,
      "chip": "ym2612"
    },
    {
      "channel": 0,
      "note": 83,
      "start": 42.0209,
      "duration": 0.1065,
      "velocity": 102,
      "chip": "ym2612"
    },
    {
      "channel": 4,
      "note": 61,
      "start": 42.1298,
      "duration": 0.081,
      "velocity": 97,
      "chip": "ym2612"
    },
    {
      "channel": 1,
      "note": 83,
      "start": 42.2089,
      "duration": 0.109,
      "velocity": 102,
      "chip": "ym2612"
    },
    {
      "channel": 4,
      "note": 73,
      "start": 42.211,
      "duration": 0.1088,
      "velocity": 97,
      "chip": "ym2612"
    },
    {
      "channel": 0,
      "note": 87,
      "start": 42.3173,
      "duration": 0.1061,
      "velocity": 102,
      "chip": "ym2612"
    },
    {
      "channel": 4,
      "note": 61,
      "start": 42.3199,
      "duration": 0.2116,
      "velocity": 97,
      "chip": "ym2612"
    },
    {
      "channel": 0,
      "note": 82,
      "start": 42.5287,
      "duration": 0.2971,
      "velocity": 102,
      "chip": "ym2612"
    },
    {
      "channel": 1,
      "note": 87,
      "start": 42.5299,
      "duration": 0.0824,
      "velocity": 102,
      "chip": "ym2612"
    },
    {
      "channel": 4,
      "note": 64,
      "start": 42.5317,
      "duration": 0.2963,
      "velocity": 97,
      "chip": "ym2612"
    },
    {
      "channel": 1,
      "note": 82,
      "start": 42.7194,
      "duration": 0.2654,
      "velocity": 102,
      "chip": "ym2612"
    },
    {
      "channel": 0,
      "note": 83,
      "start": 42.8259,
      "duration": 0.0823,
      "velocity": 102,
      "chip": "ym2612"
    },
    {
      "channel": 4,
      "note": 66,
      "start": 42.828,
      "duration": 0.2604,
      "velocity": 97,
      "chip": "ym2612"
    },
    {
      "channel": 1,
      "note": 83,
      "start": 42.985,
      "duration": 0.1019,
      "velocity": 102,
      "chip": "ym2612"
    },
    {
      "channel": 4,
      "note": 68,
      "start": 43.0885,
      "duration": 0.1905,
      "velocity": 97,
      "chip": "ym2612"
    },
    {
      "channel": 2,
      "note": 71,
      "start": 43.2767,
      "duration": 0.9934,
      "velocity": 107,
      "chip": "ym2612"
    },
    {
      "channel": 3,
      "note": 68,
      "start": 43.2779,
      "duration": 0.9929,
      "velocity": 107,
      "chip": "ym2612"
    },
    {
      "channel": 4,
      "note": 61,
      "start": 43.2792,
      "duration": 0.1861,
      "velocity": 97,
      "chip": "ym2612"
    },
    {
      "channel": 0,
      "note": 83,
      "start": 43.4628,
      "duration": 0.1031,
      "velocity": 102,
      "chip": "ym2612"
    },
    {
      "channel": 4,
      "note": 73,
      "start": 43.4654,
      "duration": 0.2131,
      "velocity": 97,
      "chip": "ym2612"
    },
    {
      "channel": 0,
      "note": 85,
      "start": 43.6754,
      "duration": 0.2991,
      "velocity": 102,
      "chip": "ym2612"
    },
    {
      "channel": 1,
      "note": 83,
      "start": 43.6767,
      "duration": 0.081,
      "velocity": 102,
      "chip": "ym2612"
    },
    {
      "channel": 4,
      "note": 61,
      "start": 43.6786,
      "duration": 0.081,
      "velocity": 97,
      "chip": "ym2612"
    },
    {
      "channel": 4,
      "note": 73,
      "start": 43.7598,
      "duration": 0.109,
      "velocity": 97,
      "chip": "ym2612"
    },
    {
      "channel": 1,
      "note": 85,
      "start": 43.867,
      "duration": 0.2977,
      "velocity": 102,
      "chip": "ym2612"
    },
    {
      "channel": 4,
      "note": 61,
      "start": 43.8689,
      "duration": 0.2146,
      "velocity": 97,
      "chip": "ym2612"
    },
    {
      "channel": 0,
      "note": 83,
      "start": 43.9747,
      "duration": 0.1067,
      "velocity": 102,
      "chip": "ym2612"
    },
    {
      "channel": 0,
      "note": 84,
      "start": 44.0816,
      "duration": 0.2935,
      "velocity": 102,
      "chip": "ym2612"
    },
    {
      "channel": 4,
      "note": 64,
      "start": 44.0837,
      "duration": 0.2933,
      "velocity": 97,
      "chip": "ym2612"
    },
    {
      "channel": 1,
      "note": 83,
      "start": 44.1648,
      "duration": 0.1046,
      "velocity": 102,
      "chip": "ym2612"
    },
    {
      "channel": 1,
      "note": 84,
      "start": 44.2695,
      "duration": 0.2707,
      "velocity": 102,
      "chip": "ym2612"
    },
    {
      "channel": 0,
      "note": 83,
      "start": 44.3753,
      "duration": 0.0834,
      "velocity": 102,
      "chip": "ym2612"
    },
    {
      "channel": 4,
      "note": 66,
      "start": 44.3771,
      "duration": 0.269,
      "velocity": 97,
      "chip": "ym2612"
    },
    {
      "channel": 0,
      "note": 85,
      "start": 44.4588,
      "duration": 0.2684,
      "velocity": 102,
      "chip": "ym2612"
    },
    {
      "channel": 2,
      "note": 68,
      "start": 44.4605,
      "duration": 0.08,
      "velocity": 107,
      "chip": "ym2612"
    },
    {
      "channel": 3,
      "note": 64,
      "start": 44.4616,
      "duration": 0.079,
      "velocity": 107,
      "chip": "ym2612"
    },
    {
      "channel": 1,
      "note": 83,
      "start": 44.5403,
      "duration": 0.1043,
      "velocity": 102,
      "chip": "ym2612"
    },
    {
      "channel": 1,
      "note": 85,
      "start": 44.6448,
      "duration": 0.2714,
      "velocity": 102,
      "chip": "ym2612"
    },
    {
      "channel": 4,
      "note": 68,
      "start": 44.6462,
      "duration": 0.19,
      "velocity": 97,
      "chip": "ym2612"
    },
    {
      "channel": 2,
      "note": 70,
      "start": 44.8341,
      "duration": 1.5826,
      "velocity": 107,
      "chip": "ym2612"
    },
    {
      "channel": 3,
      "note": 68,
      "start": 44.8352,
      "duration": 1.5826,
      "velocity": 107,
      "chip": "ym2612"
    },
    {
      "channel": 4,
      "note": 61,
      "start": 44.8364,
      "duration": 0.1861,
      "velocity": 97,
      "chip": "ym2612"
    },
    {
      "channel": 0,
      "note": 76,
      "start": 44.9155,
      "duration": 0.1043,
      "velocity": 102,
      "chip": "ym2612"
    },
    {
      "channel": 0,
      "note": 78,
      "start": 45.02,
      "duration": 0.1041,
      "velocity": 102,
      "chip": "ym2612"
    },
    {
      "channel": 4,
      "note": 73,
      "start": 45.0226,
      "duration": 0.2118,
      "velocity": 97,
      "chip": "ym2612"
    },
    {
      "channel": 0,
      "note": 79,
      "start": 45.1242,
      "duration": 0.1071,
      "velocity": 102,
      "chip": "ym2612"
    },
    {
      "channel": 1,
      "note": 76,
      "start": 45.1254,
      "duration": 0.1071,
      "velocity": 102,
      "chip": "ym2612"
    },
    {
      "channel": 0,
      "note": 80,
      "start": 45.2315,
      "duration": 0.0852,
      "velocity": 102,
      "chip": "ym2612"
    },
    {
      "channel": 1,
      "note": 78,
      "start": 45.2327,
      "duration": 0.0853,
      "velocity": 102,
      "chip": "ym2612"
    },
    {
      "channel": 4,
      "note": 61,
      "start": 45.2346,
      "duration": 0.0855,
      "velocity": 97,
      "chip": "ym2612"
    },
    {
      "channel": 0,
      "note": 82,
      "start": 45.3168,
      "duration": 0.1082,
      "velocity": 102,
      "chip": "ym2612"
    },
    {
      "channel": 1,
      "note": 79,
      "start": 45.318,
      "duration": 0.1082,
      "velocity": 102,
      "chip": "ym2612"
    },
    {
      "channel": 4,
      "note": 73,
      "start": 45.3202,
      "duration": 0.108,
      "velocity": 97,
      "chip": "ym2612"
    },
    {
      "channel": 0,
      "note": 79,
      "start": 45.4252,
      "duration": 0.1077,
      "velocity": 102,
      "chip": "ym2612"
    },
    {
      "channel": 1,
      "note": 80,
      "start": 45.4263,
      "duration": 0.1077,
      "velocity": 102,
      "chip": "ym2612"
    },
    {
      "channel": 4,
      "note": 61,
      "start": 45.4283,
      "duration": 0.2184,
      "velocity": 97,
      "chip": "ym2612"
    },
    {
      "channel": 0,
      "note": 80,
      "start": 45.533,
      "duration": 0.1107,
      "velocity": 102,
      "chip": "ym2612"
    },
    {
      "channel": 1,
      "note": 82,
      "start": 45.5342,
      "duration": 0.1108,
      "velocity": 102,
      "chip": "ym2612"
    },
    {
      "channel": 0,
      "note": 82,
      "start": 45.6439,
      "duration": 0.0826,
      "velocity": 102,
      "chip": "ym2612"
    },
    {
      "channel": 1,
      "note": 79,
      "start": 45.6451,
      "duration": 0.0827,
      "velocity": 102,
      "chip": "ym2612"
    },
    {
      "channel": 4,
      "note": 64,
      "start": 45.6468,
      "duration": 0.2975,
      "velocity": 97,
      "chip": "ym2612"
    },
    {
      "channel": 0,
      "note": 79,
      "start": 45.7267,
      "duration": 0.107,
      "velocity": 102,
      "chip": "ym2612"
    },
    {
      "channel": 1,
      "note": 80,
      "start": 45.7279,
      "duration": 0.107,
      "velocity": 102,
      "chip": "ym2612"
    },
    {
      "channel": 0,
      "note": 80,
      "start": 45.8338,
      "duration": 0.5812,
      "velocity": 102,
      "chip": "ym2612"
    },
    {
      "channel": 1,
      "note": 82,
      "start": 45.835,
      "duration": 0.1075,
      "velocity": 102,
      "chip": "ym2612"
    },
    {
      "channel": 1,
      "note": 79,
      "start": 45.9427,
      "duration": 0.0844,
      "velocity": 102,
      "chip": "ym2612"
    },
    {
      "channel": 4,
      "note": 66,
      "start": 45.9445,
      "duration": 0.2818,
      "velocity": 97,
      "chip": "ym2612"
    },
    {
      "channel": 1,
      "note": 80,
      "start": 46.0272,
      "duration": 0.5802,
      "velocity": 102,
      "chip": "ym2612"
    },
    {
      "channel": 4,
      "note": 68,
      "start": 46.2264,
      "duration": 0.1926,
      "velocity": 97,
      "chip": "ym2612"
    },
    {
      "channel": 0,
      "note": 79,
      "start": 46.4152,
      "duration": 0.0842,
      "velocity": 102,
      "chip": "ym2612"
    },
    {
      "channel": 2,
      "note": 71,
      "start": 46.4168,
      "duration": 0.9907,
      "velocity": 107,
      "chip": "ym2612"
    },
    {
      "channel": 3,
      "note": 68,
      "start": 46.418,
      "duration": 0.9907,
      "velocity": 107,
      "chip": "ym2612"
    },
    {
      "channel": 4,
      "note": 61,
      "start": 46.4191,
      "duration": 0.1904,
      "velocity": 97,
      "chip": "ym2612"
    },
    {
      "channel": 0,
      "note": 80,
      "start": 46.4995,
      "duration": 0.1067,
      "velocity": 102,
      "chip": "ym2612"
    },
    {
      "channel": 0,
      "note": 82,
      "start": 46.6064,
      "duration": 0.1039,
      "velocity": 102,
      "chip": "ym2612"
    },
    {
      "channel": 1,
      "note": 79,
      "start": 46.6076,
      "duration": 0.1039,
      "velocity": 102,
      "chip": "ym2612"
    },
    {
      "channel": 4,
      "note": 73,
      "start": 46.6096,
      "duration": 0.2106,
      "velocity": 97,
      "chip": "ym2612"
    },
    {
      "channel": 0,
      "note": 83,
      "start": 46.7104,
      "duration": 0.1066,
      "velocity": 102,
      "chip": "ym2612"
    },
    {
      "channel": 1,
      "note": 80,
      "start": 46.7116,
      "duration": 0.1066,
      "velocity": 102,
      "chip": "ym2612"
    },
    {
      "channel": 0,
      "note": 84,
      "start": 46.8172,
      "duration": 0.0829,
      "velocity": 102,
      "chip": "ym2612"
    },
    {
      "channel": 1,
      "note": 82,
      "start": 46.8184,
      "duration": 0.0829,
      "velocity": 102,
      "chip": "ym2612"
    },
    {
      "channel": 4,
      "note": 61,
      "start": 46.8204,
      "duration": 0.083,
      "velocity": 97,
      "chip": "ym2612"
    },
    {
      "channel": 0,
      "note": 85,
      "start": 46.9002,
      "duration": 0.1081,
      "velocity": 102,
      "chip": "ym2612"
    },
    {
      "channel": 1,
      "note": 83,
      "start": 46.9015,
      "duration": 0.1081,
      "velocity": 102,
      "chip": "ym2612"
    },
    {
      "channel": 4,
      "note": 73,
      "start": 46.9035,
      "duration": 0.1081,
      "velocity": 97,
      "chip": "ym2612"
    },
    {
      "channel": 0,
      "note": 86,
      "start": 47.0085,
      "duration": 0.1021,
      "velocity": 102,
      "chip": "ym2612"
    },
    {
      "channel": 1,
      "note": 84,
      "start": 47.0097,
      "duration": 0.102,
      "velocity": 102,
      "chip": "ym2612"
    },
    {
      "channel": 4,
      "note": 61,
      "start": 47.0117,
      "duration": 0.2089,
      "velocity": 97,
      "chip": "ym2612"
    },
    {
      "channel": 1,
      "note": 85,
      "start": 47.1118,
      "duration": 0.1071,
      "velocity": 102,
      "chip": "ym2612"
    },
    {
      "channel": 0,
      "note": 90,
      "start": 47.2179,
      "duration": 0.0826,
      "velocity": 102,
      "chip": "ym2612"
    },
    {
      "channel": 1,
      "note": 86,
      "start": 47.2191,
      "duration": 0.0823,
      "velocity": 102,
      "chip": "ym2612"
    },
    {
      "channel": 4,
      "note": 64,
      "start": 47.2208,
      "duration": 0.2935,
      "velocity": 97,
      "chip": "ym2612"
    },
    {
      "channel": 0,
      "note": 92,
      "start": 47.3007,
      "duration": 0.1044,
      "velocity": 102,
      "chip": "ym2612"
    },
    {
      "channel": 0,
      "note": 90,
      "start": 47.4052,
      "duration": 0.1058,
      "velocity": 102,
      "chip": "ym2612"
    },
    {
      "channel": 1,
      "note": 90,
      "start": 47.4064,
      "duration": 0.1059,
      "velocity": 102,
      "chip": "ym2612"
    },
    {
      "channel": 2,
      "note": 68,
      "start": 47.4076,
      "duration": 0.1872,
      "velocity": 107,
      "chip": "ym2612"
    },
    {
      "channel": 3,
      "note": 64,
      "start": 47.4088,
      "duration": 0.1862,
      "velocity": 107,
      "chip": "ym2612"
    },
    {
      "channel": 0,
      "note": 88,
      "start": 47.5112,
      "duration": 0.0821,
      "velocity": 102,
      "chip": "ym2612"
    },
    {
      "channel": 1,
      "note": 92,
      "start": 47.5124,
      "duration": 0.0822,
      "velocity": 102,
      "chip": "ym2612"
    },
    {
      "channel": 4,
      "note": 66,
      "start": 47.5144,
      "duration": 0.2669,
      "velocity": 97,
      "chip": "ym2612"
    },
    {
      "channel": 0,
      "note": 86,
      "start": 47.5935,
      "duration": 0.0789,
      "velocity": 102,
      "chip": "ym2612"
    },
    {
      "channel": 1,
      "note": 90,
      "start": 47.5947,
      "duration": 0.0789,
      "velocity": 102,
      "chip": "ym2612"
    },
    {
      "channel": 0,
      "note": 84,
      "start": 47.6725,
      "duration": 0.1061,
      "velocity": 102,
      "chip": "ym2612"
    },
    {
      "channel": 1,
      "note": 88,
      "start": 47.6737,
      "duration": 0.1061,
      "velocity": 102,
      "chip": "ym2612"
    },
    {
      "channel": 0,
      "note": 83,
      "start": 47.7787,
      "duration": 0.0825,
      "velocity": 102,
      "chip": "ym2612"
    },
    {
      "channel": 1,
      "note": 86,
      "start": 47.7799,
      "duration": 0.0825,
      "velocity": 102,
      "chip": "ym2612"
    },
    {
      "channel": 4,
      "note": 68,
      "start": 47.7815,
      "duration": 0.1905,
      "velocity": 97,
      "chip": "ym2612"
    },
    {
      "channel": 0,
      "note": 81,
      "start": 47.8614,
      "duration": 0.1058,
      "velocity": 102,
      "chip": "ym2612"
    },
    {
      "channel": 1,
      "note": 84,
      "start": 47.8626,
      "duration": 0.1057,
      "velocity": 102,
      "chip": "ym2612"
    },
    {
      "channel": 0,
      "note": 80,
      "start": 47.9673,
      "duration": 0.1907,
      "velocity": 102,
      "chip": "ym2612"
    },
    {
      "channel": 1,
      "note": 83,
      "start": 47.9685,
      "duration": 0.0832,
      "velocity": 102,
      "chip": "ym2612"
    },
    {
      "channel": 2,
      "note": 70,
      "start": 47.9697,
      "duration": 1.5766,
      "velocity": 107,
      "chip": "ym2612"
    },
    {
      "channel": 3,
      "note": 68,
      "start": 47.9708,
      "duration": 1.5766,
      "velocity": 107,
      "chip": "ym2612"
    },
    {
      "channel": 4,
      "note": 61,
      "start": 47.9721,
      "duration": 0.1891,
      "velocity": 97,
      "chip": "ym2612"
    },
    {
      "channel": 1,
      "note": 81,
      "start": 48.0518,
      "duration": 0.1074,
      "velocity": 102,
      "chip": "ym2612"
    },
    {
      "channel": 0,
      "note": 79,
      "start": 48.1582,
      "duration": 0.1037,
      "velocity": 102,
      "chip": "ym2612"
    },
    {
      "channel": 1,
      "note": 80,
      "start": 48.1594,
      "duration": 0.2107,
      "velocity": 102,
      "chip": "ym2612"
    },
    {
      "channel": 4,
      "note": 73,
      "start": 48.1614,
      "duration": 0.2106,
      "velocity": 97,
      "chip": "ym2612"
    },
    {
      "channel": 0,
      "note": 82,
      "start": 48.262,
      "duration": 0.1068,
      "velocity": 102,
      "chip": "ym2612"
    },
    {
      "channel": 0,
      "note": 80,
      "start": 48.369,
      "duration": 0.0824,
      "velocity": 102,
      "chip": "ym2612"
    },
    {
      "channel": 1,
      "note": 79,
      "start": 48.3702,
      "duration": 0.0824,
      "velocity": 102,
      "chip": "ym2612"
    },
    {
      "channel": 4,
      "note": 61,
      "start": 48.3721,
      "duration": 0.0825,
      "velocity": 97,
      "chip": "ym2612"
    },
    {
      "channel": 0,
      "note": 79,
      "start": 48.4515,
      "duration": 0.107,
      "velocity": 102,
      "chip": "ym2612"
    },
    {
      "channel": 1,
      "note": 82,
      "start": 48.4528,
      "duration": 0.1071,
      "velocity": 102,
      "chip": "ym2612"
    },
    {
      "channel": 4,
      "note": 73,
      "start": 48.4547,
      "duration": 0.1071,
      "velocity": 97,
      "chip": "ym2612"
    },
    {
      "channel": 0,
      "note": 78,
      "start": 48.5587,
      "duration": 0.104,
      "velocity": 102,
      "chip": "ym2612"
    },
    {
      "channel": 1,
      "note": 80,
      "start": 48.5599,
      "duration": 0.104,
      "velocity": 102,
      "chip": "ym2612"
    },
    {
      "channel": 4,
      "note": 61,
      "start": 48.562,
      "duration": 0.2146,
      "velocity": 97,
      "chip": "ym2612"
    },
    {
      "channel": 0,
      "note": 76,
      "start": 48.6629,
      "duration": 0.1108,
      "velocity": 102,
      "chip": "ym2612"
    },
    {
      "channel": 1,
      "note": 79,
      "start": 48.6641,
      "duration": 0.1108,
      "velocity": 102,
      "chip": "ym2612"
    },
    {
      "channel": 0,
      "note": 75,
      "start": 48.7738,
      "duration": 0.0845,
      "velocity": 102,
      "chip": "ym2612"
    },
    {
      "channel": 1,
      "note": 78,
      "start": 48.775,
      "duration": 0.0845,
      "velocity": 102,
      "chip": "ym2612"
    },
    {
      "channel": 4,
      "note": 64,
      "start": 48.7767,
      "duration": 0.2978,
      "velocity": 97,
      "chip": "ym2612"
    },
    {
      "channel": 0,
      "note": 80,
      "start": 48.8585,
      "duration": 0.1085,
      "velocity": 102,
      "chip": "ym2612"
    },
    {
      "channel": 1,
      "note": 76,
      "start": 48.8597,
      "duration": 0.1085,
      "velocity": 102,
      "chip": "ym2612"
    },
    {
      "channel": 0,
      "note": 79,
      "start": 48.9671,
      "duration": 0.1044,
      "velocity": 102,
      "chip": "ym2612"
    },
    {
      "channel": 1,
      "note": 75,
      "start": 48.9683,
      "duration": 0.1044,
      "velocity": 102,
      "chip": "ym2612"
    },
    {
      "channel": 0,
      "note": 76,
      "start": 49.0716,
      "duration": 0.0839,
      "velocity": 102,
      "chip": "ym2612"
    },
    {
      "channel": 1,
      "note": 80,
      "start": 49.0729,
      "duration": 0.0839,
      "velocity": 102,
      "chip": "ym2612"
    },
    {
      "channel": 4,
      "note": 66,
      "start": 49.0747,
      "duration": 0.2807,
      "velocity": 97,
      "chip": "ym2612"
    },
    {
      "channel": 0,
      "note": 75,
      "start": 49.1556,
      "duration": 0.0882,
      "velocity": 102,
      "chip": "ym2612"
    },
    {
      "channel": 1,
      "note": 79,
      "start": 49.1568,
      "duration": 0.0881,
      "velocity": 102,
      "chip": "ym2612"
    },
    {
      "channel": 0,
      "note": 76,
      "start": 49.2439,
      "duration": 0.1085,
      "velocity": 102,
      "chip": "ym2612"
    },
    {
      "channel": 1,
      "note": 76,
      "start": 49.2451,
      "duration": 0.1085,
      "velocity": 102,
      "chip": "ym2612"
    },
    {
      "channel": 0,
      "note": 77,
      "start": 49.3526,
      "duration": 0.0837,
      "velocity": 102,
      "chip": "ym2612"
    },
    {
      "channel": 1,
      "note": 75,
      "start": 49.3537,
      "duration": 0.0838,
      "velocity": 102,
      "chip": "ym2612"
    },
    {
      "channel": 4,
      "note": 68,
      "start": 49.3555,
      "duration": 0.1931,
      "velocity": 97,
      "chip": "ym2612"
    },
    {
      "channel": 0,
      "note": 78,
      "start": 49.4365,
      "duration": 0.1073,
      "velocity": 102,
      "chip": "ym2612"
    },
    {
      "channel": 1,
      "note": 76,
      "start": 49.4377,
      "duration": 0.1073,
      "velocity": 102,
      "chip": "ym2612"
    },
    {
      "channel": 0,
      "note": 79,
      "start": 49.5439,
      "duration": 0.0843,
      "velocity": 102,
      "chip": "ym2612"
    },
    {
      "channel": 1,
      "note": 77,
      "start": 49.5452,
      "duration": 0.0842,
      "velocity": 102,
      "chip": "ym2612"
    },
    {
      "channel": 2,
      "note": 71,
      "start": 49.5463,
      "duration": 0.9882,
      "velocity": 107,
      "chip": "ym2612"
    },
    {
      "channel": 3,
      "note": 68,
      "start": 49.5475,
      "duration": 0.9877,
      "velocity": 107,
      "chip": "ym2612"
    },
    {
      "channel": 4,
      "note": 61,
      "start": 49.5487,
      "duration": 0.19,
      "velocity": 97,
      "chip": "ym2612"
    },
    {
      "channel": 0,
      "note": 80,
      "start": 49.6283,
      "duration": 0.1073,
      "velocity": 102,
      "chip": "ym2612"
    },
    {
      "channel": 1,
      "note": 78,
      "start": 49.6295,
      "duration": 0.1072,
      "velocity": 102,
      "chip": "ym2612"
    },
    {
      "channel": 0,
      "note": 81,
      "start": 49.7357,
      "duration": 0.2073,
      "velocity": 102,
      "chip": "ym2612"
    },
    {
      "channel": 1,
      "note": 79,
      "start": 49.7369,
      "duration": 0.1018,
      "velocity": 102,
      "chip": "ym2612"
    },
    {
      "channel": 4,
      "note": 73,
      "start": 49.7389,
      "duration": 0.2072,
      "velocity": 97,
      "chip": "ym2612"
    },
    {
      "channel": 1,
      "note": 80,
      "start": 49.8389,
      "duration": 0.1053,
      "velocity": 102,
      "chip": "ym2612"
    },
    {
      "channel": 0,
      "note": 77,
      "start": 49.943,
      "duration": 0.0849,
      "velocity": 102,
      "chip": "ym2612"
    },
    {
      "channel": 1,
      "note": 81,
      "start": 49.9443,
      "duration": 0.1936,
      "velocity": 102,
      "chip": "ym2612"
    },
    {
      "channel": 4,
      "note": 61,
      "start": 49.9462,
      "duration": 0.0841,
      "velocity": 97,
      "chip": "ym2612"
    },
    {
      "channel": 0,
      "note": 80,
      "start": 50.028,
      "duration": 0.1086,
      "velocity": 102,
      "chip": "ym2612"
    },
    {
      "channel": 4,
      "note": 73,
      "start": 50.0305,
      "duration": 0.1094,
      "velocity": 97,
      "chip": "ym2612"
    },
    {
      "channel": 0,
      "note": 81,
      "start": 50.1368,
      "duration": 0.2097,
      "velocity": 102,
      "chip": "ym2612"
    },
    {
      "channel": 1,
      "note": 77,
      "start": 50.138,
      "duration": 0.1015,
      "velocity": 102,
      "chip": "ym2612"
    },
    {
      "channel": 4,
      "note": 61,
      "start": 50.14,
      "duration": 0.2094,
      "velocity": 97,
      "chip": "ym2612"
    },
    {
      "channel": 1,
      "note": 80,
      "start": 50.2397,
      "duration": 0.108,
      "velocity": 102,
      "chip": "ym2612"
    },
    {
      "channel": 0,
      "note": 79,
      "start": 50.3466,
      "duration": 0.0829,
      "velocity": 102,
      "chip": "ym2612"
    },
    {
      "channel": 1,
      "note": 81,
      "start": 50.3478,
      "duration": 0.186,
      "velocity": 102,
      "chip": "ym2612"
    },
    {
      "channel": 4,
      "note": 64,
      "start": 50.3495,
      "duration": 0.2676,
      "velocity": 97,
      "chip": "ym2612"
    },
    {
      "channel": 0,
      "note": 82,
      "start": 50.4296,
      "duration": 0.1029,
      "velocity": 102,
      "chip": "ym2612"
    },
    {
      "channel": 0,
      "note": 83,
      "start": 50.5327,
      "duration": 0.1664,
      "velocity": 102,
      "chip": "ym2612"
    },
    {
      "channel": 1,
      "note": 79,
      "start": 50.5339,
      "duration": 0.0818,
      "velocity": 102,
      "chip": "ym2612"
    },
    {
      "channel": 1,
      "note": 82,
      "start": 50.6158,
      "duration": 0.0845,
      "velocity": 102,
      "chip": "ym2612"
    },
    {
      "channel": 4,
      "note": 66,
      "start": 50.6172,
      "duration": 0.2712,
      "velocity": 97,
      "chip": "ym2612"
    },
    {
      "channel": 0,
      "note": 82,
      "start": 50.6992,
      "duration": 0.107,
      "velocity": 102,
      "chip": "ym2612"
    },
    {
      "channel": 1,
      "note": 83,
      "start": 50.7004,
      "duration": 0.1865,
      "velocity": 102,
      "chip": "ym2612"
    },
    {
      "channel": 2,
      "note": 68,
      "start": 50.7016,
      "duration": 0.1053,
      "velocity": 107,
      "chip": "ym2612"
    },
    {
      "channel": 3,
      "note": 64,
      "start": 50.7028,
      "duration": 0.1042,
      "velocity": 107,
      "chip": "ym2612"
    },
    {
      "channel": 0,
      "note": 84,
      "start": 50.8063,
      "duration": 0.0794,
      "velocity": 102,
      "chip": "ym2612"
    },
    {
      "channel": 0,
      "note": 87,
      "start": 50.8858,
      "duration": 0.1687,
      "velocity": 102,
      "chip": "ym2612"
    },
    {
      "channel": 1,
      "note": 82,
      "start": 50.8871,
      "duration": 0.0829,
      "velocity": 102,
      "chip": "ym2612"
    },
    {
      "channel": 4,
      "note": 68,
      "start": 50.8886,
      "duration": 0.1707,
      "velocity": 97,
      "chip": "ym2612"
    },
    {
      "channel": 1,
      "note": 84,
      "start": 50.9701,
      "duration": 0.0855,
      "velocity": 102,
      "chip": "ym2612"
    },
    {
      "channel": 1,
      "note": 87,
      "start": 51.0557,
      "duration": 0.1919,
      "velocity": 102,
      "chip": "ym2612"
    },
    {
      "channel": 2,
      "note": 70,
      "start": 51.057,
      "duration": 1.5466,
      "velocity": 107,
      "chip": "ym2612"
    },
    {
      "channel": 3,
      "note": 68,
      "start": 51.0581,
      "duration": 1.5467,
      "velocity": 107,
      "chip": "ym2612"
    },
    {
      "channel": 4,
      "note": 61,
      "start": 51.0594,
      "duration": 0.19,
      "velocity": 97,
      "chip": "ym2612"
    },
    {
      "channel": 0,
      "note": 88,
      "start": 51.2469,
      "duration": 0.1063,
      "velocity": 102,
      "chip": "ym2612"
    },
    {
      "channel": 4,
      "note": 73,
      "start": 51.2496,
      "duration": 0.2163,
      "velocity": 97,
      "chip": "ym2612"
    },
    {
      "channel": 0,
      "note": 84,
      "start": 51.4629,
      "duration": 0.0824,
      "velocity": 102,
      "chip": "ym2612"
    },
    {
      "channel": 1,
      "note": 88,
      "start": 51.4641,
      "duration": 0.0819,
      "velocity": 102,
      "chip": "ym2612"
    },
    {
      "channel": 4,
      "note": 61,
      "start": 51.4661,
      "duration": 0.0819,
      "velocity": 97,
      "chip": "ym2612"
    },
    {
      "channel": 4,
      "note": 73,
      "start": 51.5481,
      "duration": 0.1056,
      "velocity": 97,
      "chip": "ym2612"
    },
    {
      "channel": 0,
      "note": 87,
      "start": 51.6507,
      "duration": 0.1034,
      "velocity": 102,
      "chip": "ym2612"
    },
    {
      "channel": 1,
      "note": 84,
      "start": 51.6519,
      "duration": 0.1028,
      "velocity": 102,
      "chip": "ym2612"
    },
    {
      "channel": 4,
      "note": 61,
      "start": 51.6538,
      "duration": 0.2084,
      "velocity": 97,
      "chip": "ym2612"
    },
    {
      "channel": 0,
      "note": 85,
      "start": 51.8594,
      "duration": 0.2871,
      "velocity": 102,
      "chip": "ym2612"
    },
    {
      "channel": 1,
      "note": 87,
      "start": 51.8606,
      "duration": 0.0809,
      "velocity": 102,
      "chip": "ym2612"
    },
    {
      "channel": 4,
      "note": 64,
      "start": 51.8623,
      "duration": 0.2863,
      "velocity": 97,
      "chip": "ym2612"
    },
    {
      "channel": 1,
      "note": 85,
      "start": 52.0444,
      "duration": 0.2667,
      "velocity": 102,
      "chip": "ym2612"
    },
    {
      "channel": 0,
      "note": 85,
      "start": 52.1466,
      "duration": 0.0821,
      "velocity": 102,
      "chip": "ym2612"
    },
    {
      "channel": 4,
      "note": 66,
      "start": 52.1487,
      "duration": 0.2659,
      "velocity": 97,
      "chip": "ym2612"
    },
    {
      "channel": 1,
      "note": 85,
      "start": 52.3112,
      "duration": 0.1019,
      "velocity": 102,
      "chip": "ym2612"
    },
    {
      "channel": 4,
      "note": 68,
      "start": 52.4148,
      "duration": 0.1912,
      "velocity": 97,
      "chip": "ym2612"
    },
    {
      "channel": 2,
      "note": 71,
      "start": 52.6037,
      "duration": 0.9994,
      "velocity": 107,
      "chip": "ym2612"
    },
    {
      "channel": 3,
      "note": 68,
      "start": 52.6049,
      "duration": 0.9994,
      "velocity": 107,
      "chip": "ym2612"
    },
    {
      "channel": 4,
      "note": 61,
      "start": 52.6062,
      "duration": 0.1903,
      "velocity": 97,
      "chip": "ym2612"
    },
    {
      "channel": 0,
      "note": 85,
      "start": 52.794,
      "duration": 0.1075,
      "velocity": 102,
      "chip": "ym2612"
    },
    {
      "channel": 4,
      "note": 73,
      "start": 52.7966,
      "duration": 0.2131,
      "velocity": 97,
      "chip": "ym2612"
    },
    {
      "channel": 0,
      "note": 82,
      "start": 53.0067,
      "duration": 0.0806,
      "velocity": 102,
      "chip": "ym2612"
    },
    {
      "channel": 1,
      "note": 85,
      "start": 53.0079,
      "duration": 0.08,
      "velocity": 102,
      "chip": "ym2612"
    },
    {
      "channel": 4,
      "note": 61,
      "start": 53.0099,
      "duration": 0.0799,
      "velocity": 97,
      "chip": "ym2612"
    },
    {
      "channel": 4,
      "note": 73,
      "start": 53.0898,
      "duration": 0.1101,
      "velocity": 97,
      "chip": "ym2612"
    },
    {
      "channel": 0,
      "note": 85,
      "start": 53.1967,
      "duration": 0.1096,
      "velocity": 102,
      "chip": "ym2612"
    },
    {
      "channel": 1,
      "note": 82,
      "start": 53.198,
      "duration": 0.109,
      "velocity": 102,
      "chip": "ym2612"
    },
    {
      "channel": 4,
      "note": 61,
      "start": 53.2,
      "duration": 0.2141,
      "velocity": 97,
      "chip": "ym2612"
    },
    {
      "channel": 0,
      "note": 85,
      "start": 53.4112,
      "duration": 0.5726,
      "velocity": 102,
      "chip": "ym2612"
    },
    {
      "channel": 1,
      "note": 85,
      "start": 53.4124,
      "duration": 0.082,
      "velocity": 102,
      "chip": "ym2612"
    },
    {
      "channel": 4,
      "note": 64,
      "start": 53.4143,
      "duration": 0.2958,
      "velocity": 97,
      "chip": "ym2612"
    },
    {
      "channel": 1,
      "note": 85,
      "start": 53.6021,
      "duration": 0.5728,
      "velocity": 102,
      "chip": "ym2612"
    },
    {
      "channel": 2,
      "note": 68,
      "start": 53.6033,
      "duration": 0.1884,
      "velocity": 107,
      "chip": "ym2612"
    },
    {
      "channel": 3,
      "note": 64,
      "start": 53.6044,
      "duration": 0.1874,
      "velocity": 107,
      "chip": "ym2612"
    },
    {
      "channel": 4,
      "note": 66,
      "start": 53.7102,
      "duration": 0.2755,
      "velocity": 97,
      "chip": "ym2612"
    },
    {
      "channel": 0,
      "note": 83,
      "start": 53.9839,
      "duration": 0.0825,
      "velocity": 102,
      "chip": "ym2612"
    },
    {
      "channel": 4,
      "note": 68,
      "start": 53.9859,
      "duration": 0.1926,
      "velocity": 97,
      "chip": "ym2612"
    },
    {
      "channel": 1,
      "note": 83,
      "start": 54.175,
      "duration": 0.083,
      "velocity": 102,
      "chip": "ym2612"
    },
    {
      "channel": 2,
      "note": 70,
      "start": 54.1763,
      "duration": 1.5713,
      "velocity": 107,
      "chip": "ym2612"
    },
    {
      "channel": 3,
      "note": 68,
      "start": 54.1774,
      "duration": 1.5713,
      "velocity": 107,
      "chip": "ym2612"
    },
    {
      "channel": 4,
      "note": 61,
      "start": 54.1785,
      "duration": 0.1857,
      "velocity": 97,
      "chip": "ym2612"
    },
    {
      "channel": 0,
      "note": 76,
      "start": 54.2574,
      "duration": 0.1043,
      "velocity": 102,
      "chip": "ym2612"
    },
    {
      "channel": 0,
      "note": 78,
      "start": 54.3618,
      "duration": 0.1068,
      "velocity": 102,
      "chip": "ym2612"
    },
    {
      "channel": 4,
      "note": 73,
      "start": 54.3644,
      "duration": 0.2161,
      "velocity": 97,
      "chip": "ym2612"
    },
    {
      "channel": 0,
      "note": 79,
      "start": 54.4687,
      "duration": 0.1087,
      "velocity": 102,
      "chip": "ym2612"
    },
    {
      "channel": 1,
      "note": 76,
      "start": 54.4699,
      "duration": 0.1087,
      "velocity": 102,
      "chip": "ym2612"
    },
    {
      "channel": 0,
      "note": 80,
      "start": 54.5775,
      "duration": 0.083,
      "velocity": 102,
      "chip": "ym2612"
    },
    {
      "channel": 1,
      "note": 78,
      "start": 54.5788,
      "duration": 0.083,
      "velocity": 102,
      "chip": "ym2612"
    },
    {
      "channel": 4,
      "note": 61,
      "start": 54.5807,
      "duration": 0.0831,
      "velocity": 97,
      "chip": "ym2612"
    },
    {
      "channel": 0,
      "note": 82,
      "start": 54.6607,
      "duration": 0.1081,
      "velocity": 102,
      "chip": "ym2612"
    },
    {
      "channel": 1,
      "note": 79,
      "start": 54.6619,
      "duration": 0.1082,
      "velocity": 102,
      "chip": "ym2612"
    },
    {
      "channel": 4,
      "note": 73,
      "start": 54.6639,
      "duration": 0.1082,
      "velocity": 97,
      "chip": "ym2612"
    },
    {
      "channel": 0,
      "note": 79,
      "start": 54.769,
      "duration": 0.104,
      "velocity": 102,
      "chip": "ym2612"
    },
    {
      "channel": 1,
      "note": 80,
      "start": 54.7702,
      "duration": 0.1041,
      "velocity": 102,
      "chip": "ym2612"
    },
    {
      "channel": 4,
      "note": 61,
      "start": 54.7722,
      "duration": 0.2124,
      "velocity": 97,
      "chip": "ym2612"
    },
    {
      "channel": 0,
      "note": 80,
      "start": 54.8732,
      "duration": 0.1086,
      "velocity": 102,
      "chip": "ym2612"
    },
    {
      "channel": 1,
      "note": 82,
      "start": 54.8744,
      "duration": 0.1086,
      "velocity": 102,
      "chip": "ym2612"
    },
    {
      "channel": 0,
      "note": 82,
      "start": 54.9819,
      "duration": 0.0832,
      "velocity": 102,
      "chip": "ym2612"
    },
    {
      "channel": 1,
      "note": 79,
      "start": 54.9831,
      "duration": 0.0832,
      "velocity": 102,
      "chip": "ym2612"
    },
    {
      "channel": 4,
      "note": 64,
      "start": 54.9848,
      "duration": 0.2946,
      "velocity": 97,
      "chip": "ym2612"
    },
    {
      "channel": 0,
      "note": 83,
      "start": 55.0653,
      "duration": 0.1066,
      "velocity": 102,
      "chip": "ym2612"
    },
    {
      "channel": 1,
      "note": 80,
      "start": 55.0665,
      "duration": 0.1066,
      "velocity": 102,
      "chip": "ym2612"
    },
    {
      "channel": 0,
      "note": 80,
      "start": 55.172,
      "duration": 0.1044,
      "velocity": 102,
      "chip": "ym2612"
    },
    {
      "channel": 1,
      "note": 82,
      "start": 55.1732,
      "duration": 0.1044,
      "velocity": 102,
      "chip": "ym2612"
    },
    {
      "channel": 0,
      "note": 82,
      "start": 55.2765,
      "duration": 0.0835,
      "velocity": 102,
      "chip": "ym2612"
    },
    {
      "channel": 1,
      "note": 83,
      "start": 55.2777,
      "duration": 0.0835,
      "velocity": 102,
      "chip": "ym2612"
    },
    {
      "channel": 4,
      "note": 66,
      "start": 55.2796,
      "duration": 0.2775,
      "velocity": 97,
      "chip": "ym2612"
    },
    {
      "channel": 0,
      "note": 83,
      "start": 55.3601,
      "duration": 0.0832,
      "velocity": 102,
      "chip": "ym2612"
    },
    {
      "channel": 1,
      "note": 80,
      "start": 55.3613,
      "duration": 0.0832,
      "velocity": 102,
      "chip": "ym2612"
    },
    {
      "channel": 0,
      "note": 87,
      "start": 55.4434,
      "duration": 0.1107,
      "velocity": 102,
      "chip": "ym2612"
    },
    {
      "channel": 1,
      "note": 82,
      "start": 55.4446,
      "duration": 0.1107,
      "velocity": 102,
      "chip": "ym2612"
    },
    {
      "channel": 0,
      "note": 84,
      "start": 55.5543,
      "duration": 0.083,
      "velocity": 102,
      "chip": "ym2612"
    },
    {
      "channel": 1,
      "note": 83,
      "start": 55.5555,
      "duration": 0.083,
      "velocity": 102,
      "chip": "ym2612"
    },
    {
      "channel": 4,
      "note": 68,
      "start": 55.5572,
      "duration": 0.1926,
      "velocity": 97,
      "chip": "ym2612"
    },
    {
      "channel": 0,
      "note": 85,
      "start": 55.6373,
      "duration": 0.1077,
      "velocity": 102,
      "chip": "ym2612"
    },
    {
      "channel": 1,
      "note": 87,
      "start": 55.6386,
      "duration": 0.1077,
      "velocity": 102,
      "chip": "ym2612"
    },
    {
      "channel": 0,
      "note": 90,
      "start": 55.7452,
      "duration": 0.0834,
      "velocity": 102,
      "chip": "ym2612"
    },
    {
      "channel": 1,
      "note": 84,
      "start": 55.7464,
      "duration": 0.0834,
      "velocity": 102,
      "chip": "ym2612"
    },
    {
      "channel": 2,
      "note": 71,
      "start": 55.7477,
      "duration": 1.0015,
      "velocity": 107,
      "chip": "ym2612"
    },
    {
      "channel": 3,
      "note": 68,
      "start": 55.7488,
      "duration": 1.001,
      "velocity": 107,
      "chip": "ym2612"
    },
    {
      "channel": 4,
      "note": 61,
      "start": 55.75,
      "duration": 0.1887,
      "velocity": 97,
      "chip": "ym2612"
    },
    {
      "channel": 0,
      "note": 85,
      "start": 55.8288,
      "duration": 0.1067,
      "velocity": 102,
      "chip": "ym2612"
    },
    {
      "channel": 1,
      "note": 85,
      "start": 55.83,
      "duration": 0.1067,
      "velocity": 102,
      "chip": "ym2612"
    },
    {
      "channel": 0,
      "note": 88,
      "start": 55.9356,
      "duration": 0.1068,
      "velocity": 102,
      "chip": "ym2612"
    },
    {
      "channel": 1,
      "note": 90,
      "start": 55.9368,
      "duration": 0.1069,
      "velocity": 102,
      "chip": "ym2612"
    },
    {
      "channel": 4,
      "note": 73,
      "start": 55.9388,
      "duration": 0.2137,
      "velocity": 97,
      "chip": "ym2612"
    },
    {
      "channel": 0,
      "note": 87,
      "start": 56.0426,
      "duration": 0.1067,
      "velocity": 102,
      "chip": "ym2612"
    },
    {
      "channel": 1,
      "note": 85,
      "start": 56.0438,
      "duration": 0.1067,
      "velocity": 102,
      "chip": "ym2612"
    },
    {
      "channel": 0,
      "note": 85,
      "start": 56.1494,
      "duration": 0.0849,
      "velocity": 102,
      "chip": "ym2612"
    },
    {
      "channel": 1,
      "note": 88,
      "start": 56.1506,
      "duration": 0.0849,
      "velocity": 102,
      "chip": "ym2612"
    },
    {
      "channel": 4,
      "note": 61,
      "start": 56.1526,
      "duration": 0.085,
      "velocity": 97,
      "chip": "ym2612"
    },
    {
      "channel": 0,
      "note": 84,
      "start": 56.2344,
      "duration": 0.1071,
      "velocity": 102,
      "chip": "ym2612"
    },
    {
      "channel": 1,
      "note": 87,
      "start": 56.2357,
      "duration": 0.1071,
      "velocity": 102,
      "chip": "ym2612"
    },
    {
      "channel": 4,
      "note": 73,
      "start": 56.2377,
      "duration": 0.1071,
      "velocity": 97,
      "chip": "ym2612"
    },
    {
      "channel": 0,
      "note": 85,
      "start": 56.3417,
      "duration": 0.1078,
      "velocity": 102,
      "chip": "ym2612"
    },
    {
      "channel": 1,
      "note": 85,
      "start": 56.3429,
      "duration": 0.1078,
      "velocity": 102,
      "chip": "ym2612"
    },
    {
      "channel": 4,
      "note": 61,
      "start": 56.3449,
      "duration": 0.2148,
      "velocity": 97,
      "chip": "ym2612"
    },
    {
      "channel": 0,
      "note": 82,
      "start": 56.4496,
      "duration": 0.1071,
      "velocity": 102,
      "chip": "ym2612"
    },
    {
      "channel": 1,
      "note": 84,
      "start": 56.4509,
      "duration": 0.1071,
      "velocity": 102,
      "chip": "ym2612"
    },
    {
      "channel": 0,
      "note": 83,
      "start": 56.5569,
      "duration": 0.0834,
      "velocity": 102,
      "chip": "ym2612"
    },
    {
      "channel": 1,
      "note": 85,
      "start": 56.5581,
      "duration": 0.0834,
      "velocity": 102,
      "chip": "ym2612"
    },
    {
      "channel": 4,
      "note": 64,
      "start": 56.5598,
      "duration": 0.2958,
      "velocity": 97,
      "chip": "ym2612"
    },
    {
      "channel": 0,
      "note": 79,
      "start": 56.6404,
      "duration": 0.1067,
      "velocity": 102,
      "chip": "ym2612"
    },
    {
      "channel": 1,
      "note": 82,
      "start": 56.6416,
      "duration": 0.1068,
      "velocity": 102,
      "chip": "ym2612"
    },
    {
      "channel": 0,
      "note": 82,
      "start": 56.7473,
      "duration": 0.1057,
      "velocity": 102,
      "chip": "ym2612"
    },
    {
      "channel": 1,
      "note": 83,
      "start": 56.7485,
      "duration": 0.1057,
      "velocity": 102,
      "chip": "ym2612"
    },
    {
      "channel": 0,
      "note": 80,
      "start": 56.8531,
      "duration": 0.0839,
      "velocity": 102,
      "chip": "ym2612"
    },
    {
      "channel": 1,
      "note": 79,
      "start": 56.8543,
      "duration": 0.0838,
      "velocity": 102,
      "chip": "ym2612"
    },
    {
      "channel": 4,
      "note": 66,
      "start": 56.8557,
      "duration": 0.2752,
      "velocity": 97,
      "chip": "ym2612"
    },
    {
      "channel": 0,
      "note": 78,
      "start": 56.9371,
      "duration": 0.0821,
      "velocity": 102,
      "chip": "ym2612"
    },
    {
      "channel": 1,
      "note": 82,
      "start": 56.9383,
      "duration": 0.0821,
      "velocity": 102,
      "chip": "ym2612"
    },
    {
      "channel": 2,
      "note": 68,
      "start": 56.9395,
      "duration": 0.0811,
      "velocity": 107,
      "chip": "ym2612"
    },
    {
      "channel": 3,
      "note": 64,
      "start": 56.9407,
      "duration": 0.0801,
      "velocity": 107,
      "chip": "ym2612"
    },
    {
      "channel": 0,
      "note": 76,
      "start": 57.0193,
      "duration": 0.1089,
      "velocity": 102,
      "chip": "ym2612"
    },
    {
      "channel": 1,
      "note": 80,
      "start": 57.0205,
      "duration": 0.1088,
      "velocity": 102,
      "chip": "ym2612"
    },
    {
      "channel": 0,
      "note": 73,
      "start": 57.1282,
      "duration": 0.0838,
      "velocity": 102,
      "chip": "ym2612"
    },
    {
      "channel": 1,
      "note": 78,
      "start": 57.1295,
      "duration": 0.0838,
      "velocity": 102,
      "chip": "ym2612"
    },
    {
      "channel": 4,
      "note": 68,
      "start": 57.131,
      "duration": 0.1929,
      "velocity": 97,
      "chip": "ym2612"
    },
    {
      "channel": 0,
      "note": 75,
      "start": 57.2122,
      "duration": 0.107,
      "velocity": 102,
      "chip": "ym2612"
    },
    {
      "channel": 1,
      "note": 76,
      "start": 57.2134,
      "duration": 0.1068,
      "velocity": 102,
      "chip": "ym2612"
    },
    {
      "channel": 1,
      "note": 73,
      "start": 57.3204,
      "duration": 0.0842,
      "velocity": 102,
      "chip": "ym2612"
    },
    {
      "channel": 2,
      "note": 70,
      "start": 57.3216,
      "duration": 1.5689,
      "velocity": 107,
      "chip": "ym2612"
    },
    {
      "channel": 3,
      "note": 68,
      "start": 57.3228,
      "duration": 1.5688,
      "velocity": 107,
      "chip": "ym2612"
    },
    {
      "channel": 4,
      "note": 61,
      "start": 57.324,
      "duration": 0.1889,
      "velocity": 97,
      "chip": "ym2612"
    },
    {
      "channel": 0,
      "note": 78,
      "start": 57.4035,
      "duration": 0.1066,
      "velocity": 102,
      "chip": "ym2612"
    },
    {
      "channel": 1,
      "note": 75,
      "start": 57.4047,
      "duration": 0.1062,
      "velocity": 102,
      "chip": "ym2612"
    },
    {
      "channel": 0,
      "note": 80,
      "start": 57.5102,
      "duration": 0.107,
      "velocity": 102,
      "chip": "ym2612"
    },
    {
      "channel": 4,
      "note": 73,
      "start": 57.513,
      "duration": 0.2162,
      "velocity": 97,
      "chip": "ym2612"
    },
    {
      "channel": 0,
      "note": 82,
      "start": 57.6173,
      "duration": 0.1087,
      "velocity": 102,
      "chip": "ym2612"
    },
    {
      "channel": 1,
      "note": 78,
      "start": 57.6185,
      "duration": 0.1087,
      "velocity": 102,
      "chip": "ym2612"
    },
    {
      "channel": 0,
      "note": 78,
      "start": 57.7262,
      "duration": 0.0829,
      "velocity": 102,
      "chip": "ym2612"
    },
    {
      "channel": 1,
      "note": 80,
      "start": 57.7274,
      "duration": 0.0829,
      "velocity": 102,
      "chip": "ym2612"
    },
    {
      "channel": 4,
      "note": 61,
      "start": 57.7294,
      "duration": 0.083,
      "velocity": 97,
      "chip": "ym2612"
    },
    {
      "channel": 0,
      "note": 80,
      "start": 57.8093,
      "duration": 0.1082,
      "velocity": 102,
      "chip": "ym2612"
    },
    {
      "channel": 1,
      "note": 82,
      "start": 57.8105,
      "duration": 0.1083,
      "velocity": 102,
      "chip": "ym2612"
    },
    {
      "channel": 4,
      "note": 73,
      "start": 57.8125,
      "duration": 0.1082,
      "velocity": 97,
      "chip": "ym2612"
    },
    {
      "channel": 0,
      "note": 82,
      "start": 57.9176,
      "duration": 0.1076,
      "velocity": 102,
      "chip": "ym2612"
    },
    {
      "channel": 1,
      "note": 78,
      "start": 57.9188,
      "duration": 0.1076,
      "velocity": 102,
      "chip": "ym2612"
    },
    {
      "channel": 4,
      "note": 61,
      "start": 57.9208,
      "duration": 0.2146,
      "velocity": 97,
      "chip": "ym2612"
    },
    {
      "channel": 0,
      "note": 84,
      "start": 58.0253,
      "duration": 0.1072,
      "velocity": 102,
      "chip": "ym2612"
    },
    {
      "channel": 1,
      "note": 80,
      "start": 58.0266,
      "duration": 0.1072,
      "velocity": 102,
      "chip": "ym2612"
    },
    {
      "channel": 0,
      "note": 80,
      "start": 58.1327,
      "duration": 0.0841,
      "velocity": 102,
      "chip": "ym2612"
    },
    {
      "channel": 1,
      "note": 82,
      "start": 58.1339,
      "duration": 0.0841,
      "velocity": 102,
      "chip": "ym2612"
    },
    {
      "channel": 4,
      "note": 64,
      "start": 58.1356,
      "duration": 0.2954,
      "velocity": 97,
      "chip": "ym2612"
    },
    {
      "channel": 0,
      "note": 82,
      "start": 58.2169,
      "duration": 0.1066,
      "velocity": 102,
      "chip": "ym2612"
    },
    {
      "channel": 1,
      "note": 84,
      "start": 58.2181,
      "duration": 0.1066,
      "velocity": 102,
      "chip": "ym2612"
    },
    {
      "channel": 0,
      "note": 84,
      "start": 58.3237,
      "duration": 0.1044,
      "velocity": 102,
      "chip": "ym2612"
    },
    {
      "channel": 1,
      "note": 80,
      "start": 58.3249,
      "duration": 0.1044,
      "velocity": 102,
      "chip": "ym2612"
    },
    {
      "channel": 0,
      "note": 86,
      "start": 58.4281,
      "duration": 0.0839,
      "velocity": 102,
      "chip": "ym2612"
    },
    {
      "channel": 1,
      "note": 82,
      "start": 58.4294,
      "duration": 0.0838,
      "velocity": 102,
      "chip": "ym2612"
    },
    {
      "channel": 4,
      "note": 66,
      "start": 58.4312,
      "duration": 0.269,
      "velocity": 97,
      "chip": "ym2612"
    },
    {
      "channel": 0,
      "note": 82,
      "start": 58.5121,
      "duration": 0.0781,
      "velocity": 102,
      "chip": "ym2612"
    },
    {
      "channel": 1,
      "note": 84,
      "start": 58.5133,
      "duration": 0.0782,
      "velocity": 102,
      "chip": "ym2612"
    },
    {
      "channel": 0,
      "note": 84,
      "start": 58.5903,
      "duration": 0.1069,
      "velocity": 102,
      "chip": "ym2612"
    },
    {
      "channel": 1,
      "note": 86,
      "start": 58.5916,
      "duration": 0.1069,
      "velocity": 102,
      "chip": "ym2612"
    },
    {
      "channel": 0,
      "note": 86,
      "start": 58.6974,
      "duration": 0.083,
      "velocity": 102,
      "chip": "ym2612"
    },
    {
      "channel": 1,
      "note": 82,
      "start": 58.6986,
      "duration": 0.083,
      "velocity": 102,
      "chip": "ym2612"
    },
    {
      "channel": 4,
      "note": 68,
      "start": 58.7004,
      "duration": 0.1924,
      "velocity": 97,
      "chip": "ym2612"
    },
    {
      "channel": 0,
      "note": 88,
      "start": 58.7805,
      "duration": 0.1075,
      "velocity": 102,
      "chip": "ym2612"
    },
    {
      "channel": 1,
      "note": 84,
      "start": 58.7818,
      "duration": 0.1075,
      "velocity": 102,
      "chip": "ym2612"
    },
    {
      "channel": 0,
      "note": 85,
      "start": 58.8881,
      "duration": 0.0841,
      "velocity": 102,
      "chip": "ym2612"
    },
    {
      "channel": 1,
      "note": 86,
      "start": 58.8893,
      "duration": 0.0842,
      "velocity": 102,
      "chip": "ym2612"
    },
    {
      "channel": 2,
      "note": 71,
      "start": 58.8906,
      "duration": 0.9975,
      "velocity": 107,
      "chip": "ym2612"
    },
    {
      "channel": 3,
      "note": 68,
      "start": 58.8917,
      "duration": 0.9976,
      "velocity": 107,
      "chip": "ym2612"
    },
    {
      "channel": 4,
      "note": 61,
      "start": 58.8929,
      "duration": 0.1896,
      "velocity": 97,
      "chip": "ym2612"
    },
    {
      "channel": 0,
      "note": 83,
      "start": 58.9724,
      "duration": 0.1068,
      "velocity": 102,
      "chip": "ym2612"
    },
    {
      "channel": 1,
      "note": 88,
      "start": 58.9736,
      "duration": 0.1068,
      "velocity": 102,
      "chip": "ym2612"
    },
    {
      "channel": 0,
      "note": 82,
      "start": 59.0794,
      "duration": 0.107,
      "velocity": 102,
      "chip": "ym2612"
    },
    {
      "channel": 1,
      "note": 85,
      "start": 59.0806,
      "duration": 0.1069,
      "velocity": 102,
      "chip": "ym2612"
    },
    {
      "channel": 4,
      "note": 73,
      "start": 59.0826,
      "duration": 0.2136,
      "velocity": 97,
      "chip": "ym2612"
    },
    {
      "channel": 0,
      "note": 80,
      "start": 59.1865,
      "duration": 0.1065,
      "velocity": 102,
      "chip": "ym2612"
    },
    {
      "channel": 1,
      "note": 83,
      "start": 59.1877,
      "duration": 0.1066,
      "velocity": 102,
      "chip": "ym2612"
    },
    {
      "channel": 0,
      "note": 79,
      "start": 59.2931,
      "duration": 0.083,
      "velocity": 102,
      "chip": "ym2612"
    },
    {
      "channel": 1,
      "note": 82,
      "start": 59.2944,
      "duration": 0.083,
      "velocity": 102,
      "chip": "ym2612"
    },
    {
      "channel": 4,
      "note": 61,
      "start": 59.2963,
      "duration": 0.0831,
      "velocity": 97,
      "chip": "ym2612"
    },
    {
      "channel": 0,
      "note": 78,
      "start": 59.3763,
      "duration": 0.1082,
      "velocity": 102,
      "chip": "ym2612"
    },
    {
      "channel": 1,
      "note": 80,
      "start": 59.3775,
      "duration": 0.1082,
      "velocity": 102,
      "chip": "ym2612"
    },
    {
      "channel": 4,
      "note": 73,
      "start": 59.3795,
      "duration": 0.1082,
      "velocity": 97,
      "chip": "ym2612"
    },
    {
      "channel": 0,
      "note": 76,
      "start": 59.4847,
      "duration": 0.1078,
      "velocity": 102,
      "chip": "ym2612"
    },
    {
      "channel": 1,
      "note": 79,
      "start": 59.4859,
      "duration": 0.1078,
      "velocity": 102,
      "chip": "ym2612"
    },
    {
      "channel": 4,
      "note": 61,
      "start": 59.4878,
      "duration": 0.2148,
      "velocity": 97,
      "chip": "ym2612"
    },
    {
      "channel": 0,
      "note": 75,
      "start": 59.5926,
      "duration": 0.1071,
      "velocity": 102,
      "chip": "ym2612"
    },
    {
      "channel": 1,
      "note": 78,
      "start": 59.5938,
      "duration": 0.1071,
      "velocity": 102,
      "chip": "ym2612"
    },
    {
      "channel": 0,
      "note": 76,
      "start": 59.6999,
      "duration": 0.0826,
      "velocity": 102,
      "chip": "ym2612"
    },
    {
      "channel": 1,
      "note": 76,
      "start": 59.7011,
      "duration": 0.0825,
      "velocity": 102,
      "chip": "ym2612"
    },
    {
      "channel": 4,
      "note": 64,
      "start": 59.7027,
      "duration": 0.289,
      "velocity": 97,
      "chip": "ym2612"
    },
    {
      "channel": 0,
      "note": 78,
      "start": 59.7825,
      "duration": 0.1032,
      "velocity": 102,
      "chip": "ym2612"
    },
    {
      "channel": 1,
      "note": 75,
      "start": 59.7837,
      "duration": 0.1032,
      "velocity": 102,
      "chip": "ym2612"
    },
    {
      "channel": 0,
      "note": 79,
      "start": 59.8858,
      "duration": 0.1027,
      "velocity": 102,
      "chip": "ym2612"
    },
    {
      "channel": 1,
      "note": 76,
      "start": 59.887,
      "duration": 0.1027,
      "velocity": 102,
      "chip": "ym2612"
    },
    {
      "channel": 2,
      "note": 68,
      "start": 59.8882,
      "duration": 0.1841,
      "velocity": 107,
      "chip": "ym2612"
    },
    {
      "channel": 3,
      "note": 64,
      "start": 59.8894,
      "duration": 0.183,
      "velocity": 107,
      "chip": "ym2612"
    },
    {
      "channel": 0,
      "note": 75,
      "start": 59.9886,
      "duration": 0.0822,
      "velocity": 102,
      "chip": "ym2612"
    },
    {
      "channel": 1,
      "note": 78,
      "start": 59.9899,
      "duration": 0.0822,
      "velocity": 102,
      "chip": "ym2612"
    },
    {
      "channel": 4,
      "note": 66,
      "start": 59.9919,
      "duration": 0.268,
      "velocity": 97,
      "chip": "ym2612"
    },
    {
      "channel": 0,
      "note": 76,
      "start": 60.071,
      "duration": 0.0815,
      "velocity": 102,
      "chip": "ym2612"
    },
    {
      "channel": 1,
      "note": 79,
      "start": 60.0722,
      "duration": 0.0815,
      "velocity": 102,
      "chip": "ym2612"
    },
    {
      "channel": 0,
      "note": 78,
      "start": 60.1527,
      "duration": 0.1046,
      "velocity": 102,
      "chip": "ym2612"
    },
    {
      "channel": 1,
      "note": 75,
      "start": 60.1539,
      "duration": 0.1046,
      "velocity": 102,
      "chip": "ym2612"
    },
    {
      "channel": 0,
      "note": 80,
      "start": 60.2574,
      "duration": 0.0825,
      "velocity": 102,
      "chip": "ym2612"
    },
    {
      "channel": 1,
      "note": 76,
      "start": 60.2587,
      "duration": 0.0825,
      "velocity": 102,
      "chip": "ym2612"
    },
    {
      "channel": 4,
      "note": 68,
      "start": 60.2601,
      "duration": 0.1919,
      "velocity": 97,
      "chip": "ym2612"
    },
    {
      "channel": 0,
      "note": 79,
      "start": 60.3401,
      "duration": 0.107,
      "velocity": 102,
      "chip": "ym2612"
    },
    {
      "channel": 1,
      "note": 78,
      "start": 60.3413,
      "duration": 0.107,
      "velocity": 102,
      "chip": "ym2612"
    },
    {
      "channel": 0,
      "note": 80,
      "start": 60.4472,
      "duration": 0.0828,
      "velocity": 102,
      "chip": "ym2612"
    },
    {
      "channel": 1,
      "note": 80,
      "start": 60.4484,
      "duration": 0.0828,
      "velocity": 102,
      "chip": "ym2612"
    },
    {
      "channel": 2,
      "note": 70,
      "start": 60.4496,
      "duration": 1.5635,
      "velocity": 107,
      "chip": "ym2612"
    },
    {
      "channel": 3,
      "note": 68,
      "start": 60.4508,
      "duration": 1.5636,
      "velocity": 107,
      "chip": "ym2612"
    },
    {
      "channel": 4,
      "note": 61,
      "start": 60.4521,
      "duration": 0.1879,
      "velocity": 97,
      "chip": "ym2612"
    },
    {
      "channel": 0,
      "note": 79,
      "start": 60.5301,
      "duration": 0.1067,
      "velocity": 102,
      "chip": "ym2612"
    },
    {
      "channel": 1,
      "note": 79,
      "start": 60.5314,
      "duration": 0.1066,
      "velocity": 102,
      "chip": "ym2612"
    },
    {
      "channel": 0,
      "note": 78,
      "start": 60.637,
      "duration": 0.1068,
      "velocity": 102,
      "chip": "ym2612"
    },
    {
      "channel": 1,
      "note": 80,
      "start": 60.6381,
      "duration": 0.1069,
      "velocity": 102,
      "chip": "ym2612"
    },
    {
      "channel": 4,
      "note": 73,
      "start": 60.6401,
      "duration": 0.2132,
      "velocity": 97,
      "chip": "ym2612"
    },
    {
      "channel": 0,
      "note": 76,
      "start": 60.7439,
      "duration": 0.1062,
      "velocity": 102,
      "chip": "ym2612"
    },
    {
      "channel": 1,
      "note": 79,
      "start": 60.7451,
      "duration": 0.1061,
      "velocity": 102,
      "chip": "ym2612"
    },
    {
      "channel": 1,
      "note": 78,
      "start": 60.8513,
      "duration": 0.0838,
      "velocity": 102,
      "chip": "ym2612"
    },
    {
      "channel": 4,
      "note": 61,
      "start": 60.8534,
      "duration": 0.0837,
      "velocity": 97,
      "chip": "ym2612"
    },
    {
      "channel": 0,
      "note": 80,
      "start": 60.934,
      "duration": 0.1071,
      "velocity": 102,
      "chip": "ym2612"
    },
    {
      "channel": 1,
      "note": 76,
      "start": 60.9352,
      "duration": 0.1068,
      "velocity": 102,
      "chip": "ym2612"
    },
    {
      "channel": 4,
      "note": 73,
      "start": 60.9372,
      "duration": 0.1068,
      "velocity": 97,
      "chip": "ym2612"
    },
    {
      "channel": 0,
      "note": 79,
      "start": 61.0413,
      "duration": 0.108,
      "velocity": 102,
      "chip": "ym2612"
    },
    {
      "channel": 4,
      "note": 61,
      "start": 61.0441,
      "duration": 0.2151,
      "velocity": 97,
      "chip": "ym2612"
    },
    {
      "channel": 0,
      "note": 78,
      "start": 61.1495,
      "duration": 0.1067,
      "velocity": 102,
      "chip": "ym2612"
    },
    {
      "channel": 1,
      "note": 80,
      "start": 61.1507,
      "duration": 0.1067,
      "velocity": 102,
      "chip": "ym2612"
    },
    {
      "channel": 0,
      "note": 76,
      "start": 61.2564,
      "duration": 0.0839,
      "velocity": 102,
      "chip": "ym2612"
    },
    {
      "channel": 1,
      "note": 79,
      "start": 61.2576,
      "duration": 0.0839,
      "velocity": 102,
      "chip": "ym2612"
    },
    {
      "channel": 4,
      "note": 64,
      "start": 61.2593,
      "duration": 0.2951,
      "velocity": 97,
      "chip": "ym2612"
    },
    {
      "channel": 0,
      "note": 75,
      "start": 61.3405,
      "duration": 0.106,
      "velocity": 102,
      "chip": "ym2612"
    },
    {
      "channel": 1,
      "note": 78,
      "start": 61.3417,
      "duration": 0.1059,
      "velocity": 102,
      "chip": "ym2612"
    },
    {
      "channel": 1,
      "note": 76,
      "start": 61.4477,
      "duration": 0.105,
      "velocity": 102,
      "chip": "ym2612"
    },
    {
      "channel": 0,
      "note": 79,
      "start": 61.5517,
      "duration": 0.0834,
      "velocity": 102,
      "chip": "ym2612"
    },
    {
      "channel": 1,
      "note": 75,
      "start": 61.5529,
      "duration": 0.0831,
      "velocity": 102,
      "chip": "ym2612"
    },
    {
      "channel": 4,
      "note": 66,
      "start": 61.5545,
      "duration": 0.2722,
      "velocity": 97,
      "chip": "ym2612"
    },
    {
      "channel": 0,
      "note": 78,
      "start": 61.6352,
      "duration": 0.0817,
      "velocity": 102,
      "chip": "ym2612"
    },
    {
      "channel": 0,
      "note": 76,
      "start": 61.7171,
      "duration": 0.1066,
      "velocity": 102,
      "chip": "ym2612"
    },
    {
      "channel": 1,
      "note": 79,
      "start": 61.7183,
      "duration": 0.1066,
      "velocity": 102,
      "chip": "ym2612"
    },
    {
      "channel": 0,
      "note": 75,
      "start": 61.8239,
      "duration": 0.084,
      "velocity": 102,
      "chip": "ym2612"
    },
    {
      "channel": 1,
      "note": 78,
      "start": 61.8251,
      "duration": 0.0839,
      "velocity": 102,
      "chip": "ym2612"
    },
    {
      "channel": 4,
      "note": 68,
      "start": 61.8269,
      "duration": 0.1888,
      "velocity": 97,
      "chip": "ym2612"
    },
    {
      "channel": 0,
      "note": 79,
      "start": 61.908,
      "duration": 0.1028,
      "velocity": 102,
      "chip": "ym2612"
    },
    {
      "channel": 1,
      "note": 76,
      "start": 61.9092,
      "duration": 0.1027,
      "velocity": 102,
      "chip": "ym2612"
    },
    {
      "channel": 1,
      "note": 75,
      "start": 62.0121,
      "duration": 0.0842,
      "velocity": 102,
      "chip": "ym2612"
    },
    {
      "channel": 2,
      "note": 71,
      "start": 62.0133,
      "duration": 1.0053,
      "velocity": 107,
      "chip": "ym2612"
    },
    {
      "channel": 3,
      "note": 68,
      "start": 62.0145,
      "duration": 1.0047,
      "velocity": 107,
      "chip": "ym2612"
    },
    {
      "channel": 4,
      "note": 61,
      "start": 62.0158,
      "duration": 0.1848,
      "velocity": 97,
      "chip": "ym2612"
    },
    {
      "channel": 0,
      "note": 75,
      "start": 62.0952,
      "duration": 0.1025,
      "velocity": 102,
      "chip": "ym2612"
    },
    {
      "channel": 1,
      "note": 79,
      "start": 62.0964,
      "duration": 0.1022,
      "velocity": 102,
      "chip": "ym2612"
    },
    {
      "channel": 0,
      "note": 77,
      "start": 62.1979,
      "duration": 0.1082,
      "velocity": 102,
      "chip": "ym2612"
    },
    {
      "channel": 4,
      "note": 73,
      "start": 62.2007,
      "duration": 0.2154,
      "velocity": 97,
      "chip": "ym2612"
    },
    {
      "channel": 0,
      "note": 78,
      "start": 62.3062,
      "duration": 0.1067,
      "velocity": 102,
      "chip": "ym2612"
    },
    {
      "channel": 1,
      "note": 75,
      "start": 62.3074,
      "duration": 0.1067,
      "velocity": 102,
      "chip": "ym2612"
    },
    {
      "channel": 0,
      "note": 80,
      "start": 62.413,
      "duration": 0.0849,
      "velocity": 102,
      "chip": "ym2612"
    },
    {
      "channel": 1,
      "note": 77,
      "start": 62.4143,
      "duration": 0.0849,
      "velocity": 102,
      "chip": "ym2612"
    },
    {
      "channel": 4,
      "note": 61,
      "start": 62.4162,
      "duration": 0.085,
      "velocity": 97,
      "chip": "ym2612"
    },
    {
      "channel": 0,
      "note": 81,
      "start": 62.4981,
      "duration": 0.1071,
      "velocity": 102,
      "chip": "ym2612"
    },
    {
      "channel": 1,
      "note": 78,
      "start": 62.4993,
      "duration": 0.107,
      "velocity": 102,
      "chip": "ym2612"
    },
    {
      "channel": 4,
      "note": 73,
      "start": 62.5013,
      "duration": 0.107,
      "velocity": 97,
      "chip": "ym2612"
    },
    {
      "channel": 0,
      "note": 85,
      "start": 62.6054,
      "duration": 0.1077,
      "velocity": 102,
      "chip": "ym2612"
    },
    {
      "channel": 1,
      "note": 80,
      "start": 62.6065,
      "duration": 0.1078,
      "velocity": 102,
      "chip": "ym2612"
    },
    {
      "channel": 4,
      "note": 61,
      "start": 62.6085,
      "duration": 0.2186,
      "velocity": 97,
      "chip": "ym2612"
    },
    {
      "channel": 0,
      "note": 83,
      "start": 62.7132,
      "duration": 0.1108,
      "velocity": 102,
      "chip": "ym2612"
    },
    {
      "channel": 1,
      "note": 81,
      "start": 62.7144,
      "duration": 0.1109,
      "velocity": 102,
      "chip": "ym2612"
    },
    {
      "channel": 0,
      "note": 80,
      "start": 62.8242,
      "duration": 0.0835,
      "velocity": 102,
      "chip": "ym2612"
    },
    {
      "channel": 1,
      "note": 85,
      "start": 62.8254,
      "duration": 0.0836,
      "velocity": 102,
      "chip": "ym2612"
    },
    {
      "channel": 4,
      "note": 64,
      "start": 62.8273,
      "duration": 0.2761,
      "velocity": 97,
      "chip": "ym2612"
    },
    {
      "channel": 0,
      "note": 81,
      "start": 62.9079,
      "duration": 0.1087,
      "velocity": 102,
      "chip": "ym2612"
    },
    {
      "channel": 1,
      "note": 83,
      "start": 62.9091,
      "duration": 0.1087,
      "velocity": 102,
      "chip": "ym2612"
    },
    {
      "channel": 0,
      "note": 84,
      "start": 63.0167,
      "duration": 0.0841,
      "velocity": 102,
      "chip": "ym2612"
    },
    {
      "channel": 1,
      "note": 80,
      "start": 63.0179,
      "duration": 0.0841,
      "velocity": 102,
      "chip": "ym2612"
    },
    {
      "channel": 0,
      "note": 88,
      "start": 63.1009,
      "duration": 0.0835,
      "velocity": 102,
      "chip": "ym2612"
    },
    {
      "channel": 1,
      "note": 81,
      "start": 63.1021,
      "duration": 0.0836,
      "velocity": 102,
      "chip": "ym2612"
    },
    {
      "channel": 4,
      "note": 66,
      "start": 63.1035,
      "duration": 0.2721,
      "velocity": 97,
      "chip": "ym2612"
    },
    {
      "channel": 0,
      "note": 81,
      "start": 63.1846,
      "duration": 0.1059,
      "velocity": 102,
      "chip": "ym2612"
    },
    {
      "channel": 1,
      "note": 84,
      "start": 63.1858,
      "duration": 0.1059,
      "velocity": 102,
      "chip": "ym2612"
    },
    {
      "channel": 2,
      "note": 68,
      "start": 63.1871,
      "duration": 0.1049,
      "velocity": 107,
      "chip": "ym2612"
    },
    {
      "channel": 3,
      "note": 64,
      "start": 63.1882,
      "duration": 0.1039,
      "velocity": 107,
      "chip": "ym2612"
    },
    {
      "channel": 0,
      "note": 84,
      "start": 63.2906,
      "duration": 0.0824,
      "velocity": 102,
      "chip": "ym2612"
    },
    {
      "channel": 1,
      "note": 88,
      "start": 63.2918,
      "duration": 0.0824,
      "velocity": 102,
      "chip": "ym2612"
    },
    {
      "channel": 0,
      "note": 92,
      "start": 63.3732,
      "duration": 0.0816,
      "velocity": 102,
      "chip": "ym2612"
    },
    {
      "channel": 1,
      "note": 81,
      "start": 63.3743,
      "duration": 0.0816,
      "velocity": 102,
      "chip": "ym2612"
    },
    {
      "channel": 4,
      "note": 68,
      "start": 63.3758,
      "duration": 0.1796,
      "velocity": 97,
      "chip": "ym2612"
    },
    {
      "channel": 0,
      "note": 84,
      "start": 63.4548,
      "duration": 0.0882,
      "velocity": 102,
      "chip": "ym2612"
    },
    {
      "channel": 1,
      "note": 84,
      "start": 63.4561,
      "duration": 0.0882,
      "velocity": 102,
      "chip": "ym2612"
    },
    {
      "channel": 0,
      "note": 87,
      "start": 63.5431,
      "duration": 1.236,
      "velocity": 102,
      "chip": "ym2612"
    },
    {
      "channel": 1,
      "note": 92,
      "start": 63.5444,
      "duration": 0.079,
      "velocity": 102,
      "chip": "ym2612"
    },
    {
      "channel": 2,
      "note": 82,
      "start": 63.549,
      "duration": 13.2667,
      "velocity": 90,
      "chip": "ym2612"
    },
    {
      "channel": 3,
      "note": 80,
      "start": 63.5544,
      "duration": 13.2612,
      "velocity": 89,
      "chip": "ym2612"
    },
    {
      "channel": 4,
      "note": 61,
      "start": 63.5556,
      "duration": 0.1833,
      "velocity": 97,
      "chip": "ym2612"
    },
    {
      "channel": 1,
      "note": 84,
      "start": 63.6235,
      "duration": 0.1139,
      "velocity": 102,
      "chip": "ym2612"
    },
    {
      "channel": 1,
      "note": 87,
      "start": 63.7375,
      "duration": 13.0781,
      "velocity": 102,
      "chip": "ym2612"
    },
    {
      "channel": 4,
      "note": 73,
      "start": 63.7389,
      "duration": 0.231,
      "velocity": 97,
      "chip": "ym2612"
    },
    {
      "channel": 4,
      "note": 61,
      "start": 63.97,
      "duration": 0.0806,
      "velocity": 97,
      "chip": "ym2612"
    },
    {
      "channel": 4,
      "note": 73,
      "start": 64.0508,
      "duration": 0.1002,
      "velocity": 97,
      "chip": "ym2612"
    },
    {
      "channel": 4,
      "note": 61,
      "start": 64.1512,
      "duration": 0.2336,
      "velocity": 97,
      "chip": "ym2612"
    },
    {
      "channel": 4,
      "note": 64,
      "start": 64.3849,
      "duration": 0.3134,
      "velocity": 97,
      "chip": "ym2612"
    },
    {
      "channel": 4,
      "note": 66,
      "start": 64.6984,
      "duration": 12.1172,
      "velocity": 97,
      "chip": "ym2612"
    },
    {
      "channel": 0,
      "note": 82,
      "start": 64.7793,
      "duration": 0.0979,
      "velocity": 102,
      "chip": "ym2612"
    }
  ]
}