{
  "track_name": "14 - Reclamation",
  "duration_sec": 98.717,
  "sample_rate": 44100,
  "note_count": 1632,
  "unique_pitches": 44,
  "pitch_range": 60,
  "avg_note_duration": 0.1344,
  "reconstruction_stats": {
    "notes_reconstructed": 1632,
    "keyon_events": 1632,
    "keyoff_events": 1632,
    "orphan_keyons": 0,
    "unique_pitches": 44,
    "pitch_range": 60,
    "avg_duration_sec": 0.1344
  },
  "metadata": {
    "source": "V\\Vectorman 2\\14 - Reclamation.vgz"
  },
  "notes": [
    {
      "channel": 0,
      "note": 45,
      "start": 0.0017,
      "duration": 2.1052,
      "velocity": 108,
      "chip": "ym2612"
    },
    {
      "channel": 4,
      "note": 45,
      "start": 0.0618,
      "duration": 2.1111,
      "velocity": 108,
      "chip": "ym2612"
    },
    {
      "channel": 5,
      "note": 54,
      "start": 2.0947,
      "duration": 0.1116,
      "velocity": 78,
      "chip": "ym2612"
    },
    {
      "channel": 2,
      "note": 42,
      "start": 2.0993,
      "duration": 0.1072,
      "velocity": 90,
      "chip": "ym2612"
    },
    {
      "channel": 1,
      "note": 42,
      "start": 2.1021,
      "duration": 0.104,
      "velocity": 127,
      "chip": "ym2612"
    },
    {
      "channel": 3,
      "note": 42,
      "start": 2.1049,
      "duration": 0.1179,
      "velocity": 125,
      "chip": "ym2612"
    },
    {
      "channel": 5,
      "note": 54,
      "start": 2.2257,
      "duration": 0.0973,
      "velocity": 78,
      "chip": "ym2612"
    },
    {
      "channel": 2,
      "note": 42,
      "start": 2.2284,
      "duration": 0.0947,
      "velocity": 90,
      "chip": "ym2612"
    },
    {
      "channel": 1,
      "note": 42,
      "start": 2.2309,
      "duration": 0.0918,
      "velocity": 127,
      "chip": "ym2612"
    },
    {
      "channel": 5,
      "note": 66,
      "start": 2.3593,
      "duration": 0.1302,
      "velocity": 78,
      "chip": "ym2612"
    },
    {
      "channel": 2,
      "note": 54,
      "start": 2.3627,
      "duration": 0.127,
      "velocity": 90,
      "chip": "ym2612"
    },
    {
      "channel": 1,
      "note": 54,
      "start": 2.3659,
      "duration": 0.1235,
      "velocity": 127,
      "chip": "ym2612"
    },
    {
      "channel": 5,
      "note": 66,
      "start": 2.6258,
      "duration": 0.2472,
      "velocity": 78,
      "chip": "ym2612"
    },
    {
      "channel": 2,
      "note": 54,
      "start": 2.6286,
      "duration": 0.2445,
      "velocity": 90,
      "chip": "ym2612"
    },
    {
      "channel": 1,
      "note": 54,
      "start": 2.6313,
      "duration": 0.2414,
      "velocity": 127,
      "chip": "ym2612"
    },
    {
      "channel": 0,
      "note": 42,
      "start": 2.6344,
      "duration": 0.0384,
      "velocity": 112,
      "chip": "ym2612"
    },
    {
      "channel": 5,
      "note": 54,
      "start": 2.8762,
      "duration": 0.1134,
      "velocity": 78,
      "chip": "ym2612"
    },
    {
      "channel": 2,
      "note": 42,
      "start": 2.8793,
      "duration": 0.1104,
      "velocity": 90,
      "chip": "ym2612"
    },
    {
      "channel": 1,
      "note": 42,
      "start": 2.8821,
      "duration": 0.1072,
      "velocity": 127,
      "chip": "ym2612"
    },
    {
      "channel": 5,
      "note": 54,
      "start": 3.009,
      "duration": 0.1139,
      "velocity": 78,
      "chip": "ym2612"
    },
    {
      "channel": 2,
      "note": 42,
      "start": 3.0117,
      "duration": 0.1115,
      "velocity": 90,
      "chip": "ym2612"
    },
    {
      "channel": 1,
      "note": 42,
      "start": 3.0142,
      "duration": 0.1085,
      "velocity": 127,
      "chip": "ym2612"
    },
    {
      "channel": 5,
      "note": 66,
      "start": 3.1425,
      "duration": 0.1138,
      "velocity": 78,
      "chip": "ym2612"
    },
    {
      "channel": 2,
      "note": 54,
      "start": 3.1454,
      "duration": 0.1111,
      "velocity": 90,
      "chip": "ym2612"
    },
    {
      "channel": 1,
      "note": 54,
      "start": 3.148,
      "duration": 0.1081,
      "velocity": 127,
      "chip": "ym2612"
    },
    {
      "channel": 3,
      "note": 42,
      "start": 3.1511,
      "duration": 0.1217,
      "velocity": 125,
      "chip": "ym2612"
    },
    {
      "channel": 5,
      "note": 66,
      "start": 3.409,
      "duration": 0.2639,
      "velocity": 78,
      "chip": "ym2612"
    },
    {
      "channel": 2,
      "note": 54,
      "start": 3.4119,
      "duration": 0.2612,
      "velocity": 90,
      "chip": "ym2612"
    },
    {
      "channel": 1,
      "note": 54,
      "start": 3.4146,
      "duration": 0.2581,
      "velocity": 127,
      "chip": "ym2612"
    },
    {
      "channel": 3,
      "note": 42,
      "start": 3.4173,
      "duration": 0.1221,
      "velocity": 125,
      "chip": "ym2612"
    },
    {
      "channel": 5,
      "note": 54,
      "start": 3.6765,
      "duration": 0.113,
      "velocity": 78,
      "chip": "ym2612"
    },
    {
      "channel": 2,
      "note": 42,
      "start": 3.6796,
      "duration": 0.1102,
      "velocity": 90,
      "chip": "ym2612"
    },
    {
      "channel": 1,
      "note": 42,
      "start": 3.6824,
      "duration": 0.1069,
      "velocity": 127,
      "chip": "ym2612"
    },
    {
      "channel": 0,
      "note": 42,
      "start": 3.6849,
      "duration": 0.0378,
      "velocity": 112,
      "chip": "ym2612"
    },
    {
      "channel": 5,
      "note": 66,
      "start": 3.7926,
      "duration": 0.1305,
      "velocity": 78,
      "chip": "ym2612"
    },
    {
      "channel": 2,
      "note": 54,
      "start": 3.7952,
      "duration": 0.1279,
      "velocity": 90,
      "chip": "ym2612"
    },
    {
      "channel": 1,
      "note": 54,
      "start": 3.7978,
      "duration": 0.125,
      "velocity": 127,
      "chip": "ym2612"
    },
    {
      "channel": 5,
      "note": 67,
      "start": 3.9263,
      "duration": 0.2132,
      "velocity": 78,
      "chip": "ym2612"
    },
    {
      "channel": 2,
      "note": 55,
      "start": 3.9297,
      "duration": 0.21,
      "velocity": 90,
      "chip": "ym2612"
    },
    {
      "channel": 1,
      "note": 55,
      "start": 3.9329,
      "duration": 0.2063,
      "velocity": 127,
      "chip": "ym2612"
    },
    {
      "channel": 5,
      "note": 54,
      "start": 4.1926,
      "duration": 0.1137,
      "velocity": 78,
      "chip": "ym2612"
    },
    {
      "channel": 2,
      "note": 42,
      "start": 4.1957,
      "duration": 0.1107,
      "velocity": 90,
      "chip": "ym2612"
    },
    {
      "channel": 1,
      "note": 42,
      "start": 4.1985,
      "duration": 0.1076,
      "velocity": 127,
      "chip": "ym2612"
    },
    {
      "channel": 3,
      "note": 42,
      "start": 4.2012,
      "duration": 0.1216,
      "velocity": 125,
      "chip": "ym2612"
    },
    {
      "channel": 5,
      "note": 54,
      "start": 4.3257,
      "duration": 0.0973,
      "velocity": 78,
      "chip": "ym2612"
    },
    {
      "channel": 2,
      "note": 42,
      "start": 4.3284,
      "duration": 0.0947,
      "velocity": 90,
      "chip": "ym2612"
    },
    {
      "channel": 1,
      "note": 42,
      "start": 4.3309,
      "duration": 0.0918,
      "velocity": 127,
      "chip": "ym2612"
    },
    {
      "channel": 5,
      "note": 66,
      "start": 4.4593,
      "duration": 0.1302,
      "velocity": 78,
      "chip": "ym2612"
    },
    {
      "channel": 2,
      "note": 54,
      "start": 4.4623,
      "duration": 0.1273,
      "velocity": 90,
      "chip": "ym2612"
    },
    {
      "channel": 1,
      "note": 54,
      "start": 4.4652,
      "duration": 0.1241,
      "velocity": 127,
      "chip": "ym2612"
    },
    {
      "channel": 5,
      "note": 66,
      "start": 4.7258,
      "duration": 0.2472,
      "velocity": 78,
      "chip": "ym2612"
    },
    {
      "channel": 2,
      "note": 54,
      "start": 4.7287,
      "duration": 0.2445,
      "velocity": 90,
      "chip": "ym2612"
    },
    {
      "channel": 1,
      "note": 54,
      "start": 4.7314,
      "duration": 0.2414,
      "velocity": 127,
      "chip": "ym2612"
    },
    {
      "channel": 0,
      "note": 42,
      "start": 4.7343,
      "duration": 0.0384,
      "velocity": 112,
      "chip": "ym2612"
    },
    {
      "channel": 5,
      "note": 54,
      "start": 4.9766,
      "duration": 0.113,
      "velocity": 78,
      "chip": "ym2612"
    },
    {
      "channel": 2,
      "note": 42,
      "start": 4.9797,
      "duration": 0.1101,
      "velocity": 90,
      "chip": "ym2612"
    },
    {
      "channel": 1,
      "note": 42,
      "start": 4.9825,
      "duration": 0.1069,
      "velocity": 127,
      "chip": "ym2612"
    },
    {
      "channel": 5,
      "note": 54,
      "start": 5.1089,
      "duration": 0.1141,
      "velocity": 78,
      "chip": "ym2612"
    },
    {
      "channel": 2,
      "note": 42,
      "start": 5.1116,
      "duration": 0.1115,
      "velocity": 90,
      "chip": "ym2612"
    },
    {
      "channel": 1,
      "note": 42,
      "start": 5.1141,
      "duration": 0.1087,
      "velocity": 127,
      "chip": "ym2612"
    },
    {
      "channel": 5,
      "note": 66,
      "start": 5.2425,
      "duration": 0.1306,
      "velocity": 78,
      "chip": "ym2612"
    },
    {
      "channel": 2,
      "note": 54,
      "start": 5.2459,
      "duration": 0.1273,
      "velocity": 90,
      "chip": "ym2612"
    },
    {
      "channel": 1,
      "note": 54,
      "start": 5.2491,
      "duration": 0.1237,
      "velocity": 127,
      "chip": "ym2612"
    },
    {
      "channel": 3,
      "note": 42,
      "start": 5.2518,
      "duration": 0.1212,
      "velocity": 125,
      "chip": "ym2612"
    },
    {
      "channel": 5,
      "note": 66,
      "start": 5.509,
      "duration": 0.2639,
      "velocity": 78,
      "chip": "ym2612"
    },
    {
      "channel": 2,
      "note": 54,
      "start": 5.5119,
      "duration": 0.2612,
      "velocity": 90,
      "chip": "ym2612"
    },
    {
      "channel": 1,
      "note": 54,
      "start": 5.5146,
      "duration": 0.2581,
      "velocity": 127,
      "chip": "ym2612"
    },
    {
      "channel": 3,
      "note": 42,
      "start": 5.5173,
      "duration": 0.1221,
      "velocity": 125,
      "chip": "ym2612"
    },
    {
      "channel": 5,
      "note": 71,
      "start": 5.7758,
      "duration": 0.2472,
      "velocity": 78,
      "chip": "ym2612"
    },
    {
      "channel": 2,
      "note": 59,
      "start": 5.7786,
      "duration": 0.2446,
      "velocity": 90,
      "chip": "ym2612"
    },
    {
      "channel": 1,
      "note": 59,
      "start": 5.7811,
      "duration": 0.2417,
      "velocity": 127,
      "chip": "ym2612"
    },
    {
      "channel": 0,
      "note": 42,
      "start": 5.7836,
      "duration": 0.0557,
      "velocity": 112,
      "chip": "ym2612"
    },
    {
      "channel": 5,
      "note": 69,
      "start": 6.0263,
      "duration": 0.13,
      "velocity": 78,
      "chip": "ym2612"
    },
    {
      "channel": 2,
      "note": 57,
      "start": 6.0293,
      "duration": 0.1272,
      "velocity": 90,
      "chip": "ym2612"
    },
    {
      "channel": 1,
      "note": 57,
      "start": 6.0321,
      "duration": 0.1239,
      "velocity": 127,
      "chip": "ym2612"
    },
    {
      "channel": 3,
      "note": 42,
      "start": 6.0348,
      "duration": 0.1214,
      "velocity": 125,
      "chip": "ym2612"
    },
    {
      "channel": 5,
      "note": 67,
      "start": 6.1594,
      "duration": 0.1136,
      "velocity": 78,
      "chip": "ym2612"
    },
    {
      "channel": 2,
      "note": 55,
      "start": 6.1621,
      "duration": 0.1274,
      "velocity": 90,
      "chip": "ym2612"
    },
    {
      "channel": 1,
      "note": 55,
      "start": 6.1648,
      "duration": 0.108,
      "velocity": 127,
      "chip": "ym2612"
    },
    {
      "channel": 5,
      "note": 54,
      "start": 6.2924,
      "duration": 0.1139,
      "velocity": 78,
      "chip": "ym2612"
    },
    {
      "channel": 2,
      "note": 42,
      "start": 6.2952,
      "duration": 0.1112,
      "velocity": 90,
      "chip": "ym2612"
    },
    {
      "channel": 1,
      "note": 42,
      "start": 6.2977,
      "duration": 0.1083,
      "velocity": 127,
      "chip": "ym2612"
    },
    {
      "channel": 3,
      "note": 42,
      "start": 6.3004,
      "duration": 0.1224,
      "velocity": 125,
      "chip": "ym2612"
    },
    {
      "channel": 5,
      "note": 54,
      "start": 6.4257,
      "duration": 0.1139,
      "velocity": 78,
      "chip": "ym2612"
    },
    {
      "channel": 2,
      "note": 42,
      "start": 6.4284,
      "duration": 0.1114,
      "velocity": 90,
      "chip": "ym2612"
    },
    {
      "channel": 1,
      "note": 42,
      "start": 6.4309,
      "duration": 0.1085,
      "velocity": 127,
      "chip": "ym2612"
    },
    {
      "channel": 5,
      "note": 66,
      "start": 6.5595,
      "duration": 0.13,
      "velocity": 78,
      "chip": "ym2612"
    },
    {
      "channel": 2,
      "note": 54,
      "start": 6.5626,
      "duration": 0.127,
      "velocity": 90,
      "chip": "ym2612"
    },
    {
      "channel": 1,
      "note": 54,
      "start": 6.5655,
      "duration": 0.1239,
      "velocity": 127,
      "chip": "ym2612"
    },
    {
      "channel": 5,
      "note": 66,
      "start": 6.8258,
      "duration": 0.2473,
      "velocity": 78,
      "chip": "ym2612"
    },
    {
      "channel": 2,
      "note": 54,
      "start": 6.829,
      "duration": 0.2441,
      "velocity": 90,
      "chip": "ym2612"
    },
    {
      "channel": 1,
      "note": 54,
      "start": 6.8321,
      "duration": 0.2407,
      "velocity": 127,
      "chip": "ym2612"
    },
    {
      "channel": 0,
      "note": 42,
      "start": 6.8346,
      "duration": 0.0548,
      "velocity": 112,
      "chip": "ym2612"
    },
    {
      "channel": 5,
      "note": 54,
      "start": 7.0763,
      "duration": 0.1132,
      "velocity": 78,
      "chip": "ym2612"
    },
    {
      "channel": 2,
      "note": 42,
      "start": 7.0793,
      "duration": 0.1104,
      "velocity": 90,
      "chip": "ym2612"
    },
    {
      "channel": 1,
      "note": 42,
      "start": 7.0821,
      "duration": 0.1071,
      "velocity": 127,
      "chip": "ym2612"
    },
    {
      "channel": 5,
      "note": 54,
      "start": 7.2089,
      "duration": 0.1141,
      "velocity": 78,
      "chip": "ym2612"
    },
    {
      "channel": 2,
      "note": 42,
      "start": 7.2116,
      "duration": 0.1116,
      "velocity": 90,
      "chip": "ym2612"
    },
    {
      "channel": 1,
      "note": 42,
      "start": 7.2141,
      "duration": 0.1087,
      "velocity": 127,
      "chip": "ym2612"
    },
    {
      "channel": 5,
      "note": 66,
      "start": 7.3424,
      "duration": 0.1139,
      "velocity": 78,
      "chip": "ym2612"
    },
    {
      "channel": 2,
      "note": 54,
      "start": 7.3453,
      "duration": 0.1111,
      "velocity": 90,
      "chip": "ym2612"
    },
    {
      "channel": 1,
      "note": 54,
      "start": 7.348,
      "duration": 0.1081,
      "velocity": 127,
      "chip": "ym2612"
    },
    {
      "channel": 3,
      "note": 42,
      "start": 7.3506,
      "duration": 0.1222,
      "velocity": 125,
      "chip": "ym2612"
    },
    {
      "channel": 5,
      "note": 66,
      "start": 7.6092,
      "duration": 0.2637,
      "velocity": 78,
      "chip": "ym2612"
    },
    {
      "channel": 2,
      "note": 54,
      "start": 7.612,
      "duration": 0.2611,
      "velocity": 90,
      "chip": "ym2612"
    },
    {
      "channel": 1,
      "note": 54,
      "start": 7.6147,
      "duration": 0.258,
      "velocity": 127,
      "chip": "ym2612"
    },
    {
      "channel": 3,
      "note": 42,
      "start": 7.6178,
      "duration": 0.1216,
      "velocity": 125,
      "chip": "ym2612"
    },
    {
      "channel": 5,
      "note": 54,
      "start": 7.8762,
      "duration": 0.1134,
      "velocity": 78,
      "chip": "ym2612"
    },
    {
      "channel": 2,
      "note": 42,
      "start": 7.8792,
      "duration": 0.1105,
      "velocity": 90,
      "chip": "ym2612"
    },
    {
      "channel": 1,
      "note": 42,
      "start": 7.8821,
      "duration": 0.1073,
      "velocity": 127,
      "chip": "ym2612"
    },
    {
      "channel": 0,
      "note": 42,
      "start": 7.8846,
      "duration": 0.0548,
      "velocity": 112,
      "chip": "ym2612"
    },
    {
      "channel": 5,
      "note": 66,
      "start": 7.9929,
      "duration": 0.13,
      "velocity": 78,
      "chip": "ym2612"
    },
    {
      "channel": 2,
      "note": 54,
      "start": 7.9957,
      "duration": 0.1274,
      "velocity": 90,
      "chip": "ym2612"
    },
    {
      "channel": 1,
      "note": 54,
      "start": 7.9982,
      "duration": 0.1246,
      "velocity": 127,
      "chip": "ym2612"
    },
    {
      "channel": 5,
      "note": 67,
      "start": 8.1262,
      "duration": 0.2134,
      "velocity": 78,
      "chip": "ym2612"
    },
    {
      "channel": 2,
      "note": 55,
      "start": 8.1296,
      "duration": 0.2101,
      "velocity": 90,
      "chip": "ym2612"
    },
    {
      "channel": 1,
      "note": 55,
      "start": 8.1328,
      "duration": 0.2066,
      "velocity": 127,
      "chip": "ym2612"
    },
    {
      "channel": 5,
      "note": 54,
      "start": 8.3926,
      "duration": 0.1137,
      "velocity": 78,
      "chip": "ym2612"
    },
    {
      "channel": 2,
      "note": 42,
      "start": 8.3956,
      "duration": 0.1107,
      "velocity": 90,
      "chip": "ym2612"
    },
    {
      "channel": 1,
      "note": 42,
      "start": 8.3985,
      "duration": 0.1075,
      "velocity": 127,
      "chip": "ym2612"
    },
    {
      "channel": 3,
      "note": 42,
      "start": 8.4012,
      "duration": 0.1217,
      "velocity": 125,
      "chip": "ym2612"
    },
    {
      "channel": 5,
      "note": 54,
      "start": 8.5258,
      "duration": 0.1139,
      "velocity": 78,
      "chip": "ym2612"
    },
    {
      "channel": 2,
      "note": 42,
      "start": 8.5284,
      "duration": 0.1113,
      "velocity": 90,
      "chip": "ym2612"
    },
    {
      "channel": 1,
      "note": 42,
      "start": 8.531,
      "duration": 0.1084,
      "velocity": 127,
      "chip": "ym2612"
    },
    {
      "channel": 5,
      "note": 66,
      "start": 8.6592,
      "duration": 0.1303,
      "velocity": 78,
      "chip": "ym2612"
    },
    {
      "channel": 2,
      "note": 54,
      "start": 8.6622,
      "duration": 0.1275,
      "velocity": 90,
      "chip": "ym2612"
    },
    {
      "channel": 1,
      "note": 54,
      "start": 8.6651,
      "duration": 0.1242,
      "velocity": 127,
      "chip": "ym2612"
    },
    {
      "channel": 5,
      "note": 66,
      "start": 8.9258,
      "duration": 0.2473,
      "velocity": 78,
      "chip": "ym2612"
    },
    {
      "channel": 2,
      "note": 54,
      "start": 8.9286,
      "duration": 0.2445,
      "velocity": 90,
      "chip": "ym2612"
    },
    {
      "channel": 1,
      "note": 54,
      "start": 8.9313,
      "duration": 0.2415,
      "velocity": 127,
      "chip": "ym2612"
    },
    {
      "channel": 0,
      "note": 42,
      "start": 8.9339,
      "duration": 0.0555,
      "velocity": 112,
      "chip": "ym2612"
    },
    {
      "channel": 5,
      "note": 54,
      "start": 9.1763,
      "duration": 0.1133,
      "velocity": 78,
      "chip": "ym2612"
    },
    {
      "channel": 2,
      "note": 42,
      "start": 9.1793,
      "duration": 0.1104,
      "velocity": 90,
      "chip": "ym2612"
    },
    {
      "channel": 1,
      "note": 42,
      "start": 9.1822,
      "duration": 0.1072,
      "velocity": 127,
      "chip": "ym2612"
    },
    {
      "channel": 5,
      "note": 54,
      "start": 9.3092,
      "duration": 0.1138,
      "velocity": 78,
      "chip": "ym2612"
    },
    {
      "channel": 2,
      "note": 42,
      "start": 9.312,
      "duration": 0.1112,
      "velocity": 90,
      "chip": "ym2612"
    },
    {
      "channel": 1,
      "note": 42,
      "start": 9.3145,
      "duration": 0.1083,
      "velocity": 127,
      "chip": "ym2612"
    },
    {
      "channel": 5,
      "note": 66,
      "start": 9.4426,
      "duration": 0.1305,
      "velocity": 78,
      "chip": "ym2612"
    },
    {
      "channel": 2,
      "note": 54,
      "start": 9.446,
      "duration": 0.1273,
      "velocity": 90,
      "chip": "ym2612"
    },
    {
      "channel": 1,
      "note": 54,
      "start": 9.4493,
      "duration": 0.1236,
      "velocity": 127,
      "chip": "ym2612"
    },
    {
      "channel": 3,
      "note": 42,
      "start": 9.4519,
      "duration": 0.1211,
      "velocity": 125,
      "chip": "ym2612"
    },
    {
      "channel": 5,
      "note": 66,
      "start": 9.7091,
      "duration": 0.2638,
      "velocity": 78,
      "chip": "ym2612"
    },
    {
      "channel": 2,
      "note": 54,
      "start": 9.712,
      "duration": 0.2611,
      "velocity": 90,
      "chip": "ym2612"
    },
    {
      "channel": 1,
      "note": 54,
      "start": 9.7147,
      "duration": 0.258,
      "velocity": 127,
      "chip": "ym2612"
    },
    {
      "channel": 3,
      "note": 42,
      "start": 9.7173,
      "duration": 0.1221,
      "velocity": 125,
      "chip": "ym2612"
    },
    {
      "channel": 5,
      "note": 66,
      "start": 9.9762,
      "duration": 0.13,
      "velocity": 78,
      "chip": "ym2612"
    },
    {
      "channel": 2,
      "note": 54,
      "start": 9.9792,
      "duration": 0.1272,
      "velocity": 90,
      "chip": "ym2612"
    },
    {
      "channel": 1,
      "note": 54,
      "start": 9.9821,
      "duration": 0.1239,
      "velocity": 127,
      "chip": "ym2612"
    },
    {
      "channel": 0,
      "note": 42,
      "start": 9.9846,
      "duration": 0.0548,
      "velocity": 112,
      "chip": "ym2612"
    },
    {
      "channel": 5,
      "note": 65,
      "start": 10.1092,
      "duration": 0.1139,
      "velocity": 78,
      "chip": "ym2612"
    },
    {
      "channel": 2,
      "note": 53,
      "start": 10.1118,
      "duration": 0.1113,
      "velocity": 90,
      "chip": "ym2612"
    },
    {
      "channel": 1,
      "note": 53,
      "start": 10.1144,
      "duration": 0.1084,
      "velocity": 127,
      "chip": "ym2612"
    },
    {
      "channel": 5,
      "note": 64,
      "start": 10.226,
      "duration": 0.1302,
      "velocity": 78,
      "chip": "ym2612"
    },
    {
      "channel": 2,
      "note": 52,
      "start": 10.2286,
      "duration": 0.1277,
      "velocity": 90,
      "chip": "ym2612"
    },
    {
      "channel": 1,
      "note": 52,
      "start": 10.2312,
      "duration": 0.1248,
      "velocity": 127,
      "chip": "ym2612"
    },
    {
      "channel": 3,
      "note": 42,
      "start": 10.234,
      "duration": 0.0554,
      "velocity": 125,
      "chip": "ym2612"
    },
    {
      "channel": 5,
      "note": 63,
      "start": 10.3593,
      "duration": 0.1136,
      "velocity": 78,
      "chip": "ym2612"
    },
    {
      "channel": 2,
      "note": 51,
      "start": 10.3622,
      "duration": 0.0941,
      "velocity": 90,
      "chip": "ym2612"
    },
    {
      "channel": 1,
      "note": 51,
      "start": 10.3648,
      "duration": 0.1079,
      "velocity": 127,
      "chip": "ym2612"
    },
    {
      "channel": 3,
      "note": 42,
      "start": 10.3673,
      "duration": 0.0555,
      "velocity": 125,
      "chip": "ym2612"
    },
    {
      "channel": 5,
      "note": 54,
      "start": 10.4922,
      "duration": 0.1141,
      "velocity": 78,
      "chip": "ym2612"
    },
    {
      "channel": 2,
      "note": 30,
      "start": 10.495,
      "duration": 0.1114,
      "velocity": 90,
      "chip": "ym2612"
    },
    {
      "channel": 1,
      "note": 42,
      "start": 10.4976,
      "duration": 0.1085,
      "velocity": 127,
      "chip": "ym2612"
    },
    {
      "channel": 3,
      "note": 42,
      "start": 10.5004,
      "duration": 0.1224,
      "velocity": 125,
      "chip": "ym2612"
    },
    {
      "channel": 5,
      "note": 54,
      "start": 10.6257,
      "duration": 0.1138,
      "velocity": 78,
      "chip": "ym2612"
    },
    {
      "channel": 2,
      "note": 30,
      "start": 10.6284,
      "duration": 0.1113,
      "velocity": 90,
      "chip": "ym2612"
    },
    {
      "channel": 1,
      "note": 42,
      "start": 10.6309,
      "duration": 0.1084,
      "velocity": 127,
      "chip": "ym2612"
    },
    {
      "channel": 5,
      "note": 66,
      "start": 10.7596,
      "duration": 0.13,
      "velocity": 78,
      "chip": "ym2612"
    },
    {
      "channel": 2,
      "note": 42,
      "start": 10.7626,
      "duration": 0.1272,
      "velocity": 90,
      "chip": "ym2612"
    },
    {
      "channel": 1,
      "note": 54,
      "start": 10.7655,
      "duration": 0.1239,
      "velocity": 127,
      "chip": "ym2612"
    },
    {
      "channel": 5,
      "note": 66,
      "start": 11.0258,
      "duration": 0.2472,
      "velocity": 78,
      "chip": "ym2612"
    },
    {
      "channel": 2,
      "note": 42,
      "start": 11.0291,
      "duration": 0.2441,
      "velocity": 90,
      "chip": "ym2612"
    },
    {
      "channel": 1,
      "note": 54,
      "start": 11.0321,
      "duration": 0.2407,
      "velocity": 127,
      "chip": "ym2612"
    },
    {
      "channel": 0,
      "note": 42,
      "start": 11.0346,
      "duration": 0.0547,
      "velocity": 112,
      "chip": "ym2612"
    },
    {
      "channel": 5,
      "note": 54,
      "start": 11.2763,
      "duration": 0.1133,
      "velocity": 78,
      "chip": "ym2612"
    },
    {
      "channel": 2,
      "note": 30,
      "start": 11.2793,
      "duration": 0.1104,
      "velocity": 90,
      "chip": "ym2612"
    },
    {
      "channel": 1,
      "note": 42,
      "start": 11.2822,
      "duration": 0.1071,
      "velocity": 127,
      "chip": "ym2612"
    },
    {
      "channel": 5,
      "note": 54,
      "start": 11.409,
      "duration": 0.1141,
      "velocity": 78,
      "chip": "ym2612"
    },
    {
      "channel": 2,
      "note": 30,
      "start": 11.4117,
      "duration": 0.1115,
      "velocity": 90,
      "chip": "ym2612"
    },
    {
      "channel": 1,
      "note": 42,
      "start": 11.4142,
      "duration": 0.1086,
      "velocity": 127,
      "chip": "ym2612"
    },
    {
      "channel": 5,
      "note": 66,
      "start": 11.5424,
      "duration": 0.1139,
      "velocity": 78,
      "chip": "ym2612"
    },
    {
      "channel": 2,
      "note": 42,
      "start": 11.5452,
      "duration": 0.1112,
      "velocity": 90,
      "chip": "ym2612"
    },
    {
      "channel": 1,
      "note": 54,
      "start": 11.548,
      "duration": 0.1081,
      "velocity": 127,
      "chip": "ym2612"
    },
    {
      "channel": 3,
      "note": 42,
      "start": 11.5506,
      "duration": 0.1222,
      "velocity": 125,
      "chip": "ym2612"
    },
    {
      "channel": 5,
      "note": 66,
      "start": 11.8092,
      "duration": 0.2637,
      "velocity": 78,
      "chip": "ym2612"
    },
    {
      "channel": 2,
      "note": 42,
      "start": 11.812,
      "duration": 0.2611,
      "velocity": 90,
      "chip": "ym2612"
    },
    {
      "channel": 1,
      "note": 54,
      "start": 11.8147,
      "duration": 0.258,
      "velocity": 127,
      "chip": "ym2612"
    },
    {
      "channel": 3,
      "note": 42,
      "start": 11.8178,
      "duration": 0.1216,
      "velocity": 125,
      "chip": "ym2612"
    },
    {
      "channel": 5,
      "note": 54,
      "start": 12.0762,
      "duration": 0.13,
      "velocity": 78,
      "chip": "ym2612"
    },
    {
      "channel": 2,
      "note": 30,
      "start": 12.0792,
      "duration": 0.1272,
      "velocity": 90,
      "chip": "ym2612"
    },
    {
      "channel": 1,
      "note": 42,
      "start": 12.0821,
      "duration": 0.1239,
      "velocity": 127,
      "chip": "ym2612"
    },
    {
      "channel": 0,
      "note": 42,
      "start": 12.0846,
      "duration": 0.0548,
      "velocity": 112,
      "chip": "ym2612"
    },
    {
      "channel": 5,
      "note": 66,
      "start": 12.2092,
      "duration": 0.1139,
      "velocity": 78,
      "chip": "ym2612"
    },
    {
      "channel": 2,
      "note": 42,
      "start": 12.2118,
      "duration": 0.1113,
      "velocity": 90,
      "chip": "ym2612"
    },
    {
      "channel": 1,
      "note": 54,
      "start": 12.2144,
      "duration": 0.1084,
      "velocity": 127,
      "chip": "ym2612"
    },
    {
      "channel": 5,
      "note": 67,
      "start": 12.3267,
      "duration": 0.2296,
      "velocity": 78,
      "chip": "ym2612"
    },
    {
      "channel": 2,
      "note": 43,
      "start": 12.33,
      "duration": 0.2264,
      "velocity": 90,
      "chip": "ym2612"
    },
    {
      "channel": 1,
      "note": 55,
      "start": 12.3329,
      "duration": 0.2232,
      "velocity": 127,
      "chip": "ym2612"
    },
    {
      "channel": 5,
      "note": 54,
      "start": 12.5926,
      "duration": 0.1136,
      "velocity": 78,
      "chip": "ym2612"
    },
    {
      "channel": 2,
      "note": 30,
      "start": 12.5957,
      "duration": 0.1107,
      "velocity": 90,
      "chip": "ym2612"
    },
    {
      "channel": 1,
      "note": 42,
      "start": 12.5989,
      "duration": 0.1071,
      "velocity": 127,
      "chip": "ym2612"
    },
    {
      "channel": 3,
      "note": 42,
      "start": 12.6015,
      "duration": 0.1214,
      "velocity": 125,
      "chip": "ym2612"
    },
    {
      "channel": 5,
      "note": 54,
      "start": 12.7258,
      "duration": 0.1138,
      "velocity": 78,
      "chip": "ym2612"
    },
    {
      "channel": 2,
      "note": 30,
      "start": 12.7285,
      "duration": 0.1113,
      "velocity": 90,
      "chip": "ym2612"
    },
    {
      "channel": 1,
      "note": 42,
      "start": 12.731,
      "duration": 0.1083,
      "velocity": 127,
      "chip": "ym2612"
    },
    {
      "channel": 5,
      "note": 66,
      "start": 12.8592,
      "duration": 0.1303,
      "velocity": 78,
      "chip": "ym2612"
    },
    {
      "channel": 2,
      "note": 42,
      "start": 12.8622,
      "duration": 0.1275,
      "velocity": 90,
      "chip": "ym2612"
    },
    {
      "channel": 1,
      "note": 54,
      "start": 12.8651,
      "duration": 0.1242,
      "velocity": 127,
      "chip": "ym2612"
    },
    {
      "channel": 5,
      "note": 66,
      "start": 13.1258,
      "duration": 0.2473,
      "velocity": 78,
      "chip": "ym2612"
    },
    {
      "channel": 2,
      "note": 42,
      "start": 13.1286,
      "duration": 0.2445,
      "velocity": 90,
      "chip": "ym2612"
    },
    {
      "channel": 1,
      "note": 54,
      "start": 13.1313,
      "duration": 0.2415,
      "velocity": 127,
      "chip": "ym2612"
    },
    {
      "channel": 0,
      "note": 42,
      "start": 13.1339,
      "duration": 0.0555,
      "velocity": 112,
      "chip": "ym2612"
    },
    {
      "channel": 5,
      "note": 54,
      "start": 13.3763,
      "duration": 0.1132,
      "velocity": 78,
      "chip": "ym2612"
    },
    {
      "channel": 2,
      "note": 30,
      "start": 13.3793,
      "duration": 0.1104,
      "velocity": 90,
      "chip": "ym2612"
    },
    {
      "channel": 1,
      "note": 42,
      "start": 13.3821,
      "duration": 0.1071,
      "velocity": 127,
      "chip": "ym2612"
    },
    {
      "channel": 5,
      "note": 54,
      "start": 13.5089,
      "duration": 0.1141,
      "velocity": 78,
      "chip": "ym2612"
    },
    {
      "channel": 2,
      "note": 30,
      "start": 13.5116,
      "duration": 0.1115,
      "velocity": 90,
      "chip": "ym2612"
    },
    {
      "channel": 1,
      "note": 42,
      "start": 13.5141,
      "duration": 0.1086,
      "velocity": 127,
      "chip": "ym2612"
    },
    {
      "channel": 5,
      "note": 66,
      "start": 13.6429,
      "duration": 0.1302,
      "velocity": 78,
      "chip": "ym2612"
    },
    {
      "channel": 2,
      "note": 42,
      "start": 13.6463,
      "duration": 0.127,
      "velocity": 90,
      "chip": "ym2612"
    },
    {
      "channel": 1,
      "note": 54,
      "start": 13.6491,
      "duration": 0.1237,
      "velocity": 127,
      "chip": "ym2612"
    },
    {
      "channel": 3,
      "note": 42,
      "start": 13.6518,
      "duration": 0.1212,
      "velocity": 125,
      "chip": "ym2612"
    },
    {
      "channel": 5,
      "note": 66,
      "start": 13.909,
      "duration": 0.2639,
      "velocity": 78,
      "chip": "ym2612"
    },
    {
      "channel": 2,
      "note": 42,
      "start": 13.9119,
      "duration": 0.2611,
      "velocity": 90,
      "chip": "ym2612"
    },
    {
      "channel": 1,
      "note": 54,
      "start": 13.915,
      "duration": 0.2578,
      "velocity": 127,
      "chip": "ym2612"
    },
    {
      "channel": 3,
      "note": 42,
      "start": 13.9176,
      "duration": 0.1217,
      "velocity": 125,
      "chip": "ym2612"
    },
    {
      "channel": 5,
      "note": 71,
      "start": 14.1758,
      "duration": 0.2471,
      "velocity": 78,
      "chip": "ym2612"
    },
    {
      "channel": 2,
      "note": 47,
      "start": 14.1785,
      "duration": 0.2445,
      "velocity": 90,
      "chip": "ym2612"
    },
    {
      "channel": 1,
      "note": 59,
      "start": 14.181,
      "duration": 0.2417,
      "velocity": 127,
      "chip": "ym2612"
    },
    {
      "channel": 0,
      "note": 42,
      "start": 14.1836,
      "duration": 0.0558,
      "velocity": 112,
      "chip": "ym2612"
    },
    {
      "channel": 5,
      "note": 69,
      "start": 14.4262,
      "duration": 0.1302,
      "velocity": 78,
      "chip": "ym2612"
    },
    {
      "channel": 2,
      "note": 45,
      "start": 14.4292,
      "duration": 0.1273,
      "velocity": 90,
      "chip": "ym2612"
    },
    {
      "channel": 1,
      "note": 57,
      "start": 14.4321,
      "duration": 0.124,
      "velocity": 127,
      "chip": "ym2612"
    },
    {
      "channel": 3,
      "note": 42,
      "start": 14.4347,
      "duration": 0.1214,
      "velocity": 125,
      "chip": "ym2612"
    },
    {
      "channel": 5,
      "note": 67,
      "start": 14.5595,
      "duration": 0.1136,
      "velocity": 78,
      "chip": "ym2612"
    },
    {
      "channel": 2,
      "note": 43,
      "start": 14.5622,
      "duration": 0.1274,
      "velocity": 90,
      "chip": "ym2612"
    },
    {
      "channel": 1,
      "note": 55,
      "start": 14.5648,
      "duration": 0.108,
      "velocity": 127,
      "chip": "ym2612"
    },
    {
      "channel": 5,
      "note": 54,
      "start": 14.6924,
      "duration": 0.1139,
      "velocity": 78,
      "chip": "ym2612"
    },
    {
      "channel": 2,
      "note": 30,
      "start": 14.6952,
      "duration": 0.1111,
      "velocity": 90,
      "chip": "ym2612"
    },
    {
      "channel": 1,
      "note": 42,
      "start": 14.6978,
      "duration": 0.1082,
      "velocity": 127,
      "chip": "ym2612"
    },
    {
      "channel": 3,
      "note": 42,
      "start": 14.7004,
      "duration": 0.1224,
      "velocity": 125,
      "chip": "ym2612"
    },
    {
      "channel": 5,
      "note": 54,
      "start": 14.8258,
      "duration": 0.1139,
      "velocity": 78,
      "chip": "ym2612"
    },
    {
      "channel": 2,
      "note": 30,
      "start": 14.8284,
      "duration": 0.1113,
      "velocity": 90,
      "chip": "ym2612"
    },
    {
      "channel": 1,
      "note": 42,
      "start": 14.831,
      "duration": 0.1084,
      "velocity": 127,
      "chip": "ym2612"
    },
    {
      "channel": 5,
      "note": 66,
      "start": 14.9592,
      "duration": 0.1303,
      "velocity": 78,
      "chip": "ym2612"
    },
    {
      "channel": 2,
      "note": 42,
      "start": 14.9622,
      "duration": 0.1275,
      "velocity": 90,
      "chip": "ym2612"
    },
    {
      "channel": 1,
      "note": 54,
      "start": 14.9651,
      "duration": 0.1242,
      "velocity": 127,
      "chip": "ym2612"
    },
    {
      "channel": 5,
      "note": 66,
      "start": 15.2261,
      "duration": 0.2469,
      "velocity": 78,
      "chip": "ym2612"
    },
    {
      "channel": 2,
      "note": 42,
      "start": 15.229,
      "duration": 0.2441,
      "velocity": 90,
      "chip": "ym2612"
    },
    {
      "channel": 1,
      "note": 54,
      "start": 15.2317,
      "duration": 0.2411,
      "velocity": 127,
      "chip": "ym2612"
    },
    {
      "channel": 0,
      "note": 42,
      "start": 15.2342,
      "duration": 0.0551,
      "velocity": 112,
      "chip": "ym2612"
    },
    {
      "channel": 5,
      "note": 54,
      "start": 15.4763,
      "duration": 0.1133,
      "velocity": 78,
      "chip": "ym2612"
    },
    {
      "channel": 2,
      "note": 30,
      "start": 15.4797,
      "duration": 0.11,
      "velocity": 90,
      "chip": "ym2612"
    },
    {
      "channel": 1,
      "note": 42,
      "start": 15.4829,
      "duration": 0.1064,
      "velocity": 127,
      "chip": "ym2612"
    },
    {
      "channel": 5,
      "note": 54,
      "start": 15.609,
      "duration": 0.1141,
      "velocity": 78,
      "chip": "ym2612"
    },
    {
      "channel": 2,
      "note": 30,
      "start": 15.6117,
      "duration": 0.1115,
      "velocity": 90,
      "chip": "ym2612"
    },
    {
      "channel": 1,
      "note": 42,
      "start": 15.6142,
      "duration": 0.1086,
      "velocity": 127,
      "chip": "ym2612"
    },
    {
      "channel": 5,
      "note": 66,
      "start": 15.7424,
      "duration": 0.1138,
      "velocity": 78,
      "chip": "ym2612"
    },
    {
      "channel": 2,
      "note": 42,
      "start": 15.7452,
      "duration": 0.1111,
      "velocity": 90,
      "chip": "ym2612"
    },
    {
      "channel": 1,
      "note": 54,
      "start": 15.748,
      "duration": 0.108,
      "velocity": 127,
      "chip": "ym2612"
    },
    {
      "channel": 3,
      "note": 42,
      "start": 15.7506,
      "duration": 0.1222,
      "velocity": 125,
      "chip": "ym2612"
    },
    {
      "channel": 5,
      "note": 66,
      "start": 16.009,
      "duration": 0.2639,
      "velocity": 78,
      "chip": "ym2612"
    },
    {
      "channel": 2,
      "note": 42,
      "start": 16.0119,
      "duration": 0.2611,
      "velocity": 90,
      "chip": "ym2612"
    },
    {
      "channel": 1,
      "note": 54,
      "start": 16.0146,
      "duration": 0.2581,
      "velocity": 127,
      "chip": "ym2612"
    },
    {
      "channel": 3,
      "note": 42,
      "start": 16.0173,
      "duration": 0.1222,
      "velocity": 125,
      "chip": "ym2612"
    },
    {
      "channel": 5,
      "note": 54,
      "start": 16.2762,
      "duration": 0.13,
      "velocity": 78,
      "chip": "ym2612"
    },
    {
      "channel": 2,
      "note": 30,
      "start": 16.2792,
      "duration": 0.1272,
      "velocity": 90,
      "chip": "ym2612"
    },
    {
      "channel": 1,
      "note": 42,
      "start": 16.2821,
      "duration": 0.1239,
      "velocity": 127,
      "chip": "ym2612"
    },
    {
      "channel": 0,
      "note": 42,
      "start": 16.2846,
      "duration": 0.0548,
      "velocity": 112,
      "chip": "ym2612"
    },
    {
      "channel": 5,
      "note": 66,
      "start": 16.4092,
      "duration": 0.1137,
      "velocity": 78,
      "chip": "ym2612"
    },
    {
      "channel": 2,
      "note": 42,
      "start": 16.4118,
      "duration": 0.1112,
      "velocity": 90,
      "chip": "ym2612"
    },
    {
      "channel": 1,
      "note": 54,
      "start": 16.4144,
      "duration": 0.1083,
      "velocity": 127,
      "chip": "ym2612"
    },
    {
      "channel": 5,
      "note": 67,
      "start": 16.5265,
      "duration": 0.2297,
      "velocity": 78,
      "chip": "ym2612"
    },
    {
      "channel": 2,
      "note": 43,
      "start": 16.5296,
      "duration": 0.2268,
      "velocity": 90,
      "chip": "ym2612"
    },
    {
      "channel": 1,
      "note": 55,
      "start": 16.5324,
      "duration": 0.2236,
      "velocity": 127,
      "chip": "ym2612"
    },
    {
      "channel": 5,
      "note": 54,
      "start": 16.7926,
      "duration": 0.1137,
      "velocity": 78,
      "chip": "ym2612"
    },
    {
      "channel": 2,
      "note": 30,
      "start": 16.7959,
      "duration": 0.1104,
      "velocity": 90,
      "chip": "ym2612"
    },
    {
      "channel": 1,
      "note": 42,
      "start": 16.7992,
      "duration": 0.1068,
      "velocity": 127,
      "chip": "ym2612"
    },
    {
      "channel": 3,
      "note": 42,
      "start": 16.8022,
      "duration": 0.1206,
      "velocity": 125,
      "chip": "ym2612"
    },
    {
      "channel": 5,
      "note": 54,
      "start": 16.9258,
      "duration": 0.1139,
      "velocity": 78,
      "chip": "ym2612"
    },
    {
      "channel": 2,
      "note": 30,
      "start": 16.9284,
      "duration": 0.1113,
      "velocity": 90,
      "chip": "ym2612"
    },
    {
      "channel": 1,
      "note": 42,
      "start": 16.931,
      "duration": 0.1084,
      "velocity": 127,
      "chip": "ym2612"
    },
    {
      "channel": 5,
      "note": 66,
      "start": 17.0592,
      "duration": 0.1303,
      "velocity": 78,
      "chip": "ym2612"
    },
    {
      "channel": 2,
      "note": 42,
      "start": 17.0622,
      "duration": 0.1275,
      "velocity": 90,
      "chip": "ym2612"
    },
    {
      "channel": 1,
      "note": 54,
      "start": 17.0651,
      "duration": 0.1242,
      "velocity": 127,
      "chip": "ym2612"
    },
    {
      "channel": 5,
      "note": 66,
      "start": 17.3258,
      "duration": 0.2473,
      "velocity": 78,
      "chip": "ym2612"
    },
    {
      "channel": 2,
      "note": 42,
      "start": 17.3286,
      "duration": 0.2446,
      "velocity": 90,
      "chip": "ym2612"
    },
    {
      "channel": 1,
      "note": 54,
      "start": 17.3313,
      "duration": 0.2415,
      "velocity": 127,
      "chip": "ym2612"
    },
    {
      "channel": 0,
      "note": 42,
      "start": 17.3338,
      "duration": 0.0555,
      "velocity": 112,
      "chip": "ym2612"
    },
    {
      "channel": 5,
      "note": 54,
      "start": 17.5763,
      "duration": 0.1133,
      "velocity": 78,
      "chip": "ym2612"
    },
    {
      "channel": 2,
      "note": 30,
      "start": 17.5793,
      "duration": 0.1104,
      "velocity": 90,
      "chip": "ym2612"
    },
    {
      "channel": 1,
      "note": 42,
      "start": 17.5822,
      "duration": 0.1072,
      "velocity": 127,
      "chip": "ym2612"
    },
    {
      "channel": 5,
      "note": 54,
      "start": 17.7088,
      "duration": 0.1141,
      "velocity": 78,
      "chip": "ym2612"
    },
    {
      "channel": 2,
      "note": 30,
      "start": 17.7116,
      "duration": 0.1115,
      "velocity": 90,
      "chip": "ym2612"
    },
    {
      "channel": 1,
      "note": 42,
      "start": 17.7141,
      "duration": 0.1086,
      "velocity": 127,
      "chip": "ym2612"
    },
    {
      "channel": 5,
      "note": 66,
      "start": 17.8431,
      "duration": 0.13,
      "velocity": 78,
      "chip": "ym2612"
    },
    {
      "channel": 2,
      "note": 42,
      "start": 17.8461,
      "duration": 0.1272,
      "velocity": 90,
      "chip": "ym2612"
    },
    {
      "channel": 1,
      "note": 54,
      "start": 17.849,
      "duration": 0.1238,
      "velocity": 127,
      "chip": "ym2612"
    },
    {
      "channel": 3,
      "note": 42,
      "start": 17.8516,
      "duration": 0.1213,
      "velocity": 125,
      "chip": "ym2612"
    },
    {
      "channel": 5,
      "note": 66,
      "start": 18.109,
      "duration": 0.2639,
      "velocity": 78,
      "chip": "ym2612"
    },
    {
      "channel": 2,
      "note": 42,
      "start": 18.1123,
      "duration": 0.2608,
      "velocity": 90,
      "chip": "ym2612"
    },
    {
      "channel": 1,
      "note": 54,
      "start": 18.115,
      "duration": 0.2578,
      "velocity": 127,
      "chip": "ym2612"
    },
    {
      "channel": 3,
      "note": 42,
      "start": 18.1176,
      "duration": 0.1218,
      "velocity": 125,
      "chip": "ym2612"
    },
    {
      "channel": 5,
      "note": 66,
      "start": 18.3762,
      "duration": 0.13,
      "velocity": 78,
      "chip": "ym2612"
    },
    {
      "channel": 2,
      "note": 42,
      "start": 18.3792,
      "duration": 0.1272,
      "velocity": 90,
      "chip": "ym2612"
    },
    {
      "channel": 1,
      "note": 54,
      "start": 18.3824,
      "duration": 0.1236,
      "velocity": 127,
      "chip": "ym2612"
    },
    {
      "channel": 0,
      "note": 42,
      "start": 18.3852,
      "duration": 0.054,
      "velocity": 112,
      "chip": "ym2612"
    },
    {
      "channel": 5,
      "note": 65,
      "start": 18.5092,
      "duration": 0.1303,
      "velocity": 78,
      "chip": "ym2612"
    },
    {
      "channel": 2,
      "note": 41,
      "start": 18.5118,
      "duration": 0.1278,
      "velocity": 90,
      "chip": "ym2612"
    },
    {
      "channel": 1,
      "note": 53,
      "start": 18.5144,
      "duration": 0.1249,
      "velocity": 127,
      "chip": "ym2612"
    },
    {
      "channel": 5,
      "note": 64,
      "start": 18.6425,
      "duration": 0.1137,
      "velocity": 78,
      "chip": "ym2612"
    },
    {
      "channel": 2,
      "note": 40,
      "start": 18.6454,
      "duration": 0.111,
      "velocity": 90,
      "chip": "ym2612"
    },
    {
      "channel": 1,
      "note": 52,
      "start": 18.6479,
      "duration": 0.1081,
      "velocity": 127,
      "chip": "ym2612"
    },
    {
      "channel": 5,
      "note": 63,
      "start": 18.7594,
      "duration": 0.1136,
      "velocity": 78,
      "chip": "ym2612"
    },
    {
      "channel": 1,
      "note": 51,
      "start": 18.7622,
      "duration": 0.1106,
      "velocity": 127,
      "chip": "ym2612"
    },
    {
      "channel": 5,
      "note": 59,
      "start": 18.8922,
      "duration": 0.114,
      "velocity": 78,
      "chip": "ym2612"
    },
    {
      "channel": 2,
      "note": 51,
      "start": 18.8953,
      "duration": 0.0942,
      "velocity": 90,
      "chip": "ym2612"
    },
    {
      "channel": 1,
      "note": 47,
      "start": 18.8978,
      "duration": 0.1081,
      "velocity": 127,
      "chip": "ym2612"
    },
    {
      "channel": 3,
      "note": 47,
      "start": 18.9005,
      "duration": 0.1223,
      "velocity": 125,
      "chip": "ym2612"
    },
    {
      "channel": 5,
      "note": 59,
      "start": 19.0256,
      "duration": 0.1139,
      "velocity": 78,
      "chip": "ym2612"
    },
    {
      "channel": 2,
      "note": 47,
      "start": 19.0285,
      "duration": 0.1111,
      "velocity": 90,
      "chip": "ym2612"
    },
    {
      "channel": 1,
      "note": 47,
      "start": 19.031,
      "duration": 0.1083,
      "velocity": 127,
      "chip": "ym2612"
    },
    {
      "channel": 5,
      "note": 71,
      "start": 19.1592,
      "duration": 0.1303,
      "velocity": 78,
      "chip": "ym2612"
    },
    {
      "channel": 2,
      "note": 47,
      "start": 19.1619,
      "duration": 0.111,
      "velocity": 90,
      "chip": "ym2612"
    },
    {
      "channel": 1,
      "note": 59,
      "start": 19.1648,
      "duration": 0.1246,
      "velocity": 127,
      "chip": "ym2612"
    },
    {
      "channel": 2,
      "note": 59,
      "start": 19.293,
      "duration": 0.13,
      "velocity": 90,
      "chip": "ym2612"
    },
    {
      "channel": 5,
      "note": 71,
      "start": 19.4263,
      "duration": 0.2633,
      "velocity": 78,
      "chip": "ym2612"
    },
    {
      "channel": 1,
      "note": 59,
      "start": 19.4291,
      "duration": 0.2602,
      "velocity": 127,
      "chip": "ym2612"
    },
    {
      "channel": 2,
      "note": 40,
      "start": 19.434,
      "duration": 0.089,
      "velocity": 127,
      "chip": "ym2612"
    },
    {
      "channel": 4,
      "note": 59,
      "start": 19.5597,
      "duration": 0.2464,
      "velocity": 90,
      "chip": "ym2612"
    },
    {
      "channel": 5,
      "note": 59,
      "start": 19.6928,
      "duration": 0.0968,
      "velocity": 78,
      "chip": "ym2612"
    },
    {
      "channel": 1,
      "note": 47,
      "start": 19.6962,
      "duration": 0.0931,
      "velocity": 127,
      "chip": "ym2612"
    },
    {
      "channel": 5,
      "note": 59,
      "start": 19.809,
      "duration": 0.1141,
      "velocity": 78,
      "chip": "ym2612"
    },
    {
      "channel": 4,
      "note": 47,
      "start": 19.8118,
      "duration": 0.1111,
      "velocity": 90,
      "chip": "ym2612"
    },
    {
      "channel": 1,
      "note": 47,
      "start": 19.8144,
      "duration": 0.1084,
      "velocity": 127,
      "chip": "ym2612"
    },
    {
      "channel": 5,
      "note": 71,
      "start": 19.9424,
      "duration": 0.1139,
      "velocity": 78,
      "chip": "ym2612"
    },
    {
      "channel": 4,
      "note": 47,
      "start": 19.9449,
      "duration": 0.1112,
      "velocity": 90,
      "chip": "ym2612"
    },
    {
      "channel": 1,
      "note": 59,
      "start": 19.9476,
      "duration": 0.1083,
      "velocity": 127,
      "chip": "ym2612"
    },
    {
      "channel": 3,
      "note": 47,
      "start": 19.9502,
      "duration": 0.1225,
      "velocity": 125,
      "chip": "ym2612"
    },
    {
      "channel": 4,
      "note": 59,
      "start": 20.076,
      "duration": 0.1135,
      "velocity": 90,
      "chip": "ym2612"
    },
    {
      "channel": 5,
      "note": 71,
      "start": 20.2092,
      "duration": 0.2638,
      "velocity": 78,
      "chip": "ym2612"
    },
    {
      "channel": 1,
      "note": 59,
      "start": 20.212,
      "duration": 0.2607,
      "velocity": 127,
      "chip": "ym2612"
    },
    {
      "channel": 3,
      "note": 47,
      "start": 20.2146,
      "duration": 0.1248,
      "velocity": 125,
      "chip": "ym2612"
    },
    {
      "channel": 4,
      "note": 59,
      "start": 20.3426,
      "duration": 0.2637,
      "velocity": 90,
      "chip": "ym2612"
    },
    {
      "channel": 5,
      "note": 59,
      "start": 20.4761,
      "duration": 0.1303,
      "velocity": 78,
      "chip": "ym2612"
    },
    {
      "channel": 1,
      "note": 47,
      "start": 20.4791,
      "duration": 0.127,
      "velocity": 127,
      "chip": "ym2612"
    },
    {
      "channel": 2,
      "note": 40,
      "start": 20.482,
      "duration": 0.091,
      "velocity": 127,
      "chip": "ym2612"
    },
    {
      "channel": 5,
      "note": 71,
      "start": 20.6092,
      "duration": 0.1305,
      "velocity": 78,
      "chip": "ym2612"
    },
    {
      "channel": 4,
      "note": 47,
      "start": 20.6121,
      "duration": 0.1275,
      "velocity": 90,
      "chip": "ym2612"
    },
    {
      "channel": 1,
      "note": 59,
      "start": 20.6146,
      "duration": 0.1248,
      "velocity": 127,
      "chip": "ym2612"
    },
    {
      "channel": 5,
      "note": 72,
      "start": 20.7429,
      "duration": 0.2133,
      "velocity": 78,
      "chip": "ym2612"
    },
    {
      "channel": 4,
      "note": 59,
      "start": 20.7454,
      "duration": 0.1107,
      "velocity": 90,
      "chip": "ym2612"
    },
    {
      "channel": 1,
      "note": 60,
      "start": 20.7483,
      "duration": 0.2077,
      "velocity": 127,
      "chip": "ym2612"
    },
    {
      "channel": 4,
      "note": 60,
      "start": 20.8597,
      "duration": 0.2297,
      "velocity": 90,
      "chip": "ym2612"
    },
    {
      "channel": 5,
      "note": 59,
      "start": 20.9929,
      "duration": 0.1134,
      "velocity": 78,
      "chip": "ym2612"
    },
    {
      "channel": 1,
      "note": 47,
      "start": 20.9959,
      "duration": 0.1101,
      "velocity": 127,
      "chip": "ym2612"
    },
    {
      "channel": 3,
      "note": 47,
      "start": 20.9986,
      "duration": 0.1242,
      "velocity": 125,
      "chip": "ym2612"
    },
    {
      "channel": 5,
      "note": 59,
      "start": 21.1257,
      "duration": 0.114,
      "velocity": 78,
      "chip": "ym2612"
    },
    {
      "channel": 4,
      "note": 47,
      "start": 21.1286,
      "duration": 0.111,
      "velocity": 90,
      "chip": "ym2612"
    },
    {
      "channel": 1,
      "note": 47,
      "start": 21.1315,
      "duration": 0.1079,
      "velocity": 127,
      "chip": "ym2612"
    },
    {
      "channel": 5,
      "note": 71,
      "start": 21.2593,
      "duration": 0.1302,
      "velocity": 78,
      "chip": "ym2612"
    },
    {
      "channel": 4,
      "note": 47,
      "start": 21.2618,
      "duration": 0.1111,
      "velocity": 90,
      "chip": "ym2612"
    },
    {
      "channel": 1,
      "note": 59,
      "start": 21.2647,
      "duration": 0.1246,
      "velocity": 127,
      "chip": "ym2612"
    },
    {
      "channel": 4,
      "note": 59,
      "start": 21.3927,
      "duration": 0.1301,
      "velocity": 90,
      "chip": "ym2612"
    },
    {
      "channel": 5,
      "note": 71,
      "start": 21.5259,
      "duration": 0.2637,
      "velocity": 78,
      "chip": "ym2612"
    },
    {
      "channel": 1,
      "note": 59,
      "start": 21.5287,
      "duration": 0.2607,
      "velocity": 127,
      "chip": "ym2612"
    },
    {
      "channel": 2,
      "note": 40,
      "start": 21.5316,
      "duration": 0.0913,
      "velocity": 127,
      "chip": "ym2612"
    },
    {
      "channel": 4,
      "note": 59,
      "start": 21.6592,
      "duration": 0.2469,
      "velocity": 90,
      "chip": "ym2612"
    },
    {
      "channel": 5,
      "note": 59,
      "start": 21.7928,
      "duration": 0.0968,
      "velocity": 78,
      "chip": "ym2612"
    },
    {
      "channel": 1,
      "note": 47,
      "start": 21.7957,
      "duration": 0.0936,
      "velocity": 127,
      "chip": "ym2612"
    },
    {
      "channel": 5,
      "note": 59,
      "start": 21.909,
      "duration": 0.1141,
      "velocity": 78,
      "chip": "ym2612"
    },
    {
      "channel": 4,
      "note": 47,
      "start": 21.9118,
      "duration": 0.1111,
      "velocity": 90,
      "chip": "ym2612"
    },
    {
      "channel": 1,
      "note": 47,
      "start": 21.9144,
      "duration": 0.1084,
      "velocity": 127,
      "chip": "ym2612"
    },
    {
      "channel": 5,
      "note": 71,
      "start": 22.0426,
      "duration": 0.1305,
      "velocity": 78,
      "chip": "ym2612"
    },
    {
      "channel": 4,
      "note": 47,
      "start": 22.0451,
      "duration": 0.1111,
      "velocity": 90,
      "chip": "ym2612"
    },
    {
      "channel": 1,
      "note": 59,
      "start": 22.048,
      "duration": 0.1248,
      "velocity": 127,
      "chip": "ym2612"
    },
    {
      "channel": 3,
      "note": 47,
      "start": 22.0506,
      "duration": 0.1222,
      "velocity": 125,
      "chip": "ym2612"
    },
    {
      "channel": 4,
      "note": 59,
      "start": 22.1766,
      "duration": 0.1295,
      "velocity": 90,
      "chip": "ym2612"
    },
    {
      "channel": 5,
      "note": 71,
      "start": 22.3095,
      "duration": 0.2636,
      "velocity": 78,
      "chip": "ym2612"
    },
    {
      "channel": 1,
      "note": 59,
      "start": 22.3124,
      "duration": 0.2604,
      "velocity": 127,
      "chip": "ym2612"
    },
    {
      "channel": 3,
      "note": 47,
      "start": 22.3154,
      "duration": 0.124,
      "velocity": 125,
      "chip": "ym2612"
    },
    {
      "channel": 4,
      "note": 59,
      "start": 22.4426,
      "duration": 0.2636,
      "velocity": 90,
      "chip": "ym2612"
    },
    {
      "channel": 5,
      "note": 76,
      "start": 22.5758,
      "duration": 0.2638,
      "velocity": 78,
      "chip": "ym2612"
    },
    {
      "channel": 1,
      "note": 64,
      "start": 22.5785,
      "duration": 0.2609,
      "velocity": 127,
      "chip": "ym2612"
    },
    {
      "channel": 2,
      "note": 40,
      "start": 22.5817,
      "duration": 0.0912,
      "velocity": 127,
      "chip": "ym2612"
    },
    {
      "channel": 4,
      "note": 64,
      "start": 22.7091,
      "duration": 0.2472,
      "velocity": 90,
      "chip": "ym2612"
    },
    {
      "channel": 5,
      "note": 74,
      "start": 22.8428,
      "duration": 0.1136,
      "velocity": 78,
      "chip": "ym2612"
    },
    {
      "channel": 1,
      "note": 62,
      "start": 22.8462,
      "duration": 0.1098,
      "velocity": 127,
      "chip": "ym2612"
    },
    {
      "channel": 3,
      "note": 47,
      "start": 22.8488,
      "duration": 0.1074,
      "velocity": 125,
      "chip": "ym2612"
    },
    {
      "channel": 5,
      "note": 72,
      "start": 22.9594,
      "duration": 0.1136,
      "velocity": 78,
      "chip": "ym2612"
    },
    {
      "channel": 4,
      "note": 62,
      "start": 22.9623,
      "duration": 0.1272,
      "velocity": 90,
      "chip": "ym2612"
    },
    {
      "channel": 1,
      "note": 60,
      "start": 22.965,
      "duration": 0.1078,
      "velocity": 127,
      "chip": "ym2612"
    },
    {
      "channel": 5,
      "note": 54,
      "start": 23.0924,
      "duration": 0.1139,
      "velocity": 78,
      "chip": "ym2612"
    },
    {
      "channel": 4,
      "note": 53,
      "start": 23.0952,
      "duration": 0.0276,
      "velocity": 90,
      "chip": "ym2612"
    },
    {
      "channel": 0,
      "note": 60,
      "start": 23.0979,
      "duration": 0.1249,
      "velocity": 90,
      "chip": "ym2612"
    },
    {
      "channel": 2,
      "note": 42,
      "start": 23.1008,
      "duration": 0.1055,
      "velocity": 90,
      "chip": "ym2612"
    },
    {
      "channel": 1,
      "note": 42,
      "start": 23.1033,
      "duration": 0.1027,
      "velocity": 127,
      "chip": "ym2612"
    },
    {
      "channel": 3,
      "note": 42,
      "start": 23.106,
      "duration": 0.1169,
      "velocity": 125,
      "chip": "ym2612"
    },
    {
      "channel": 5,
      "note": 54,
      "start": 23.2259,
      "duration": 0.1137,
      "velocity": 78,
      "chip": "ym2612"
    },
    {
      "channel": 0,
      "note": 42,
      "start": 23.2283,
      "duration": 0.1111,
      "velocity": 90,
      "chip": "ym2612"
    },
    {
      "channel": 1,
      "note": 42,
      "start": 23.2308,
      "duration": 0.1087,
      "velocity": 127,
      "chip": "ym2612"
    },
    {
      "channel": 5,
      "note": 66,
      "start": 23.3593,
      "duration": 0.1303,
      "velocity": 78,
      "chip": "ym2612"
    },
    {
      "channel": 0,
      "note": 54,
      "start": 23.3624,
      "duration": 0.1269,
      "velocity": 90,
      "chip": "ym2612"
    },
    {
      "channel": 1,
      "note": 54,
      "start": 23.3652,
      "duration": 0.1242,
      "velocity": 127,
      "chip": "ym2612"
    },
    {
      "channel": 5,
      "note": 66,
      "start": 23.6258,
      "duration": 0.2638,
      "velocity": 78,
      "chip": "ym2612"
    },
    {
      "channel": 0,
      "note": 54,
      "start": 23.6284,
      "duration": 0.2609,
      "velocity": 90,
      "chip": "ym2612"
    },
    {
      "channel": 1,
      "note": 54,
      "start": 23.631,
      "duration": 0.2583,
      "velocity": 127,
      "chip": "ym2612"
    },
    {
      "channel": 2,
      "note": 40,
      "start": 23.634,
      "duration": 0.0891,
      "velocity": 127,
      "chip": "ym2612"
    },
    {
      "channel": 5,
      "note": 54,
      "start": 23.8932,
      "duration": 0.0965,
      "velocity": 78,
      "chip": "ym2612"
    },
    {
      "channel": 0,
      "note": 42,
      "start": 23.8959,
      "duration": 0.0934,
      "velocity": 90,
      "chip": "ym2612"
    },
    {
      "channel": 1,
      "note": 42,
      "start": 23.8987,
      "duration": 0.0907,
      "velocity": 127,
      "chip": "ym2612"
    },
    {
      "channel": 5,
      "note": 54,
      "start": 24.0089,
      "duration": 0.1142,
      "velocity": 78,
      "chip": "ym2612"
    },
    {
      "channel": 0,
      "note": 42,
      "start": 24.0113,
      "duration": 0.1115,
      "velocity": 90,
      "chip": "ym2612"
    },
    {
      "channel": 1,
      "note": 42,
      "start": 24.0138,
      "duration": 0.1091,
      "velocity": 127,
      "chip": "ym2612"
    },
    {
      "channel": 5,
      "note": 66,
      "start": 24.1424,
      "duration": 0.1139,
      "velocity": 78,
      "chip": "ym2612"
    },
    {
      "channel": 0,
      "note": 54,
      "start": 24.145,
      "duration": 0.1109,
      "velocity": 90,
      "chip": "ym2612"
    },
    {
      "channel": 1,
      "note": 54,
      "start": 24.148,
      "duration": 0.108,
      "velocity": 127,
      "chip": "ym2612"
    },
    {
      "channel": 3,
      "note": 42,
      "start": 24.1506,
      "duration": 0.1222,
      "velocity": 125,
      "chip": "ym2612"
    },
    {
      "channel": 5,
      "note": 66,
      "start": 24.409,
      "duration": 0.2641,
      "velocity": 78,
      "chip": "ym2612"
    },
    {
      "channel": 0,
      "note": 54,
      "start": 24.4116,
      "duration": 0.2611,
      "velocity": 90,
      "chip": "ym2612"
    },
    {
      "channel": 1,
      "note": 54,
      "start": 24.4143,
      "duration": 0.2585,
      "velocity": 127,
      "chip": "ym2612"
    },
    {
      "channel": 3,
      "note": 42,
      "start": 24.4169,
      "duration": 0.1225,
      "velocity": 125,
      "chip": "ym2612"
    },
    {
      "channel": 5,
      "note": 54,
      "start": 24.6763,
      "duration": 0.1302,
      "velocity": 78,
      "chip": "ym2612"
    },
    {
      "channel": 0,
      "note": 42,
      "start": 24.679,
      "duration": 0.1271,
      "velocity": 90,
      "chip": "ym2612"
    },
    {
      "channel": 1,
      "note": 42,
      "start": 24.6818,
      "duration": 0.1244,
      "velocity": 127,
      "chip": "ym2612"
    },
    {
      "channel": 2,
      "note": 40,
      "start": 24.6847,
      "duration": 0.0882,
      "velocity": 127,
      "chip": "ym2612"
    },
    {
      "channel": 5,
      "note": 66,
      "start": 24.8092,
      "duration": 0.1304,
      "velocity": 78,
      "chip": "ym2612"
    },
    {
      "channel": 0,
      "note": 54,
      "start": 24.812,
      "duration": 0.1273,
      "velocity": 90,
      "chip": "ym2612"
    },
    {
      "channel": 1,
      "note": 54,
      "start": 24.8146,
      "duration": 0.1249,
      "velocity": 127,
      "chip": "ym2612"
    },
    {
      "channel": 5,
      "note": 67,
      "start": 24.9428,
      "duration": 0.2135,
      "velocity": 78,
      "chip": "ym2612"
    },
    {
      "channel": 0,
      "note": 55,
      "start": 24.9456,
      "duration": 0.2104,
      "velocity": 90,
      "chip": "ym2612"
    },
    {
      "channel": 1,
      "note": 55,
      "start": 24.9484,
      "duration": 0.2077,
      "velocity": 127,
      "chip": "ym2612"
    },
    {
      "channel": 5,
      "note": 54,
      "start": 25.193,
      "duration": 0.1133,
      "velocity": 78,
      "chip": "ym2612"
    },
    {
      "channel": 0,
      "note": 42,
      "start": 25.1957,
      "duration": 0.1102,
      "velocity": 90,
      "chip": "ym2612"
    },
    {
      "channel": 1,
      "note": 42,
      "start": 25.1986,
      "duration": 0.1074,
      "velocity": 127,
      "chip": "ym2612"
    },
    {
      "channel": 3,
      "note": 42,
      "start": 25.2012,
      "duration": 0.1216,
      "velocity": 125,
      "chip": "ym2612"
    },
    {
      "channel": 5,
      "note": 54,
      "start": 25.3257,
      "duration": 0.1139,
      "velocity": 78,
      "chip": "ym2612"
    },
    {
      "channel": 0,
      "note": 42,
      "start": 25.3281,
      "duration": 0.1111,
      "velocity": 90,
      "chip": "ym2612"
    },
    {
      "channel": 1,
      "note": 42,
      "start": 25.3307,
      "duration": 0.1087,
      "velocity": 127,
      "chip": "ym2612"
    },
    {
      "channel": 5,
      "note": 66,
      "start": 25.4593,
      "duration": 0.1303,
      "velocity": 78,
      "chip": "ym2612"
    },
    {
      "channel": 0,
      "note": 54,
      "start": 25.462,
      "duration": 0.1272,
      "velocity": 90,
      "chip": "ym2612"
    },
    {
      "channel": 1,
      "note": 54,
      "start": 25.4652,
      "duration": 0.1242,
      "velocity": 127,
      "chip": "ym2612"
    },
    {
      "channel": 5,
      "note": 66,
      "start": 25.7258,
      "duration": 0.2638,
      "velocity": 78,
      "chip": "ym2612"
    },
    {
      "channel": 0,
      "note": 54,
      "start": 25.7284,
      "duration": 0.2609,
      "velocity": 90,
      "chip": "ym2612"
    },
    {
      "channel": 1,
      "note": 54,
      "start": 25.731,
      "duration": 0.2583,
      "velocity": 127,
      "chip": "ym2612"
    },
    {
      "channel": 2,
      "note": 40,
      "start": 25.734,
      "duration": 0.0891,
      "velocity": 127,
      "chip": "ym2612"
    },
    {
      "channel": 5,
      "note": 54,
      "start": 25.9928,
      "duration": 0.0968,
      "velocity": 78,
      "chip": "ym2612"
    },
    {
      "channel": 0,
      "note": 42,
      "start": 25.9956,
      "duration": 0.0937,
      "velocity": 90,
      "chip": "ym2612"
    },
    {
      "channel": 1,
      "note": 42,
      "start": 25.9984,
      "duration": 0.091,
      "velocity": 127,
      "chip": "ym2612"
    },
    {
      "channel": 5,
      "note": 54,
      "start": 26.109,
      "duration": 0.1141,
      "velocity": 78,
      "chip": "ym2612"
    },
    {
      "channel": 0,
      "note": 42,
      "start": 26.1117,
      "duration": 0.111,
      "velocity": 90,
      "chip": "ym2612"
    },
    {
      "channel": 1,
      "note": 42,
      "start": 26.1143,
      "duration": 0.1086,
      "velocity": 127,
      "chip": "ym2612"
    },
    {
      "channel": 5,
      "note": 66,
      "start": 26.2426,
      "duration": 0.1306,
      "velocity": 78,
      "chip": "ym2612"
    },
    {
      "channel": 0,
      "note": 54,
      "start": 26.2454,
      "duration": 0.1274,
      "velocity": 90,
      "chip": "ym2612"
    },
    {
      "channel": 1,
      "note": 54,
      "start": 26.2482,
      "duration": 0.1247,
      "velocity": 127,
      "chip": "ym2612"
    },
    {
      "channel": 3,
      "note": 42,
      "start": 26.2508,
      "duration": 0.1222,
      "velocity": 125,
      "chip": "ym2612"
    },
    {
      "channel": 5,
      "note": 66,
      "start": 26.509,
      "duration": 0.2641,
      "velocity": 78,
      "chip": "ym2612"
    },
    {
      "channel": 0,
      "note": 54,
      "start": 26.5116,
      "duration": 0.2612,
      "velocity": 90,
      "chip": "ym2612"
    },
    {
      "channel": 1,
      "note": 54,
      "start": 26.5143,
      "duration": 0.2586,
      "velocity": 127,
      "chip": "ym2612"
    },
    {
      "channel": 3,
      "note": 42,
      "start": 26.5169,
      "duration": 0.1225,
      "velocity": 125,
      "chip": "ym2612"
    },
    {
      "channel": 5,
      "note": 66,
      "start": 26.7767,
      "duration": 0.1297,
      "velocity": 78,
      "chip": "ym2612"
    },
    {
      "channel": 0,
      "note": 54,
      "start": 26.7794,
      "duration": 0.1266,
      "velocity": 90,
      "chip": "ym2612"
    },
    {
      "channel": 1,
      "note": 54,
      "start": 26.7823,
      "duration": 0.1239,
      "velocity": 127,
      "chip": "ym2612"
    },
    {
      "channel": 2,
      "note": 40,
      "start": 26.7852,
      "duration": 0.0877,
      "velocity": 127,
      "chip": "ym2612"
    },
    {
      "channel": 5,
      "note": 65,
      "start": 26.9092,
      "duration": 0.1304,
      "velocity": 78,
      "chip": "ym2612"
    },
    {
      "channel": 0,
      "note": 53,
      "start": 26.9117,
      "duration": 0.1276,
      "velocity": 90,
      "chip": "ym2612"
    },
    {
      "channel": 1,
      "note": 53,
      "start": 26.9145,
      "duration": 0.1249,
      "velocity": 127,
      "chip": "ym2612"
    },
    {
      "channel": 5,
      "note": 64,
      "start": 27.0425,
      "duration": 0.1306,
      "velocity": 78,
      "chip": "ym2612"
    },
    {
      "channel": 0,
      "note": 52,
      "start": 27.0449,
      "duration": 0.1279,
      "velocity": 90,
      "chip": "ym2612"
    },
    {
      "channel": 1,
      "note": 52,
      "start": 27.0475,
      "duration": 0.1254,
      "velocity": 127,
      "chip": "ym2612"
    },
    {
      "channel": 3,
      "note": 42,
      "start": 27.0506,
      "duration": 0.0555,
      "velocity": 125,
      "chip": "ym2612"
    },
    {
      "channel": 5,
      "note": 63,
      "start": 27.1761,
      "duration": 0.0968,
      "velocity": 78,
      "chip": "ym2612"
    },
    {
      "channel": 0,
      "note": 51,
      "start": 27.1788,
      "duration": 0.0772,
      "velocity": 90,
      "chip": "ym2612"
    },
    {
      "channel": 1,
      "note": 51,
      "start": 27.1815,
      "duration": 0.0912,
      "velocity": 127,
      "chip": "ym2612"
    },
    {
      "channel": 3,
      "note": 42,
      "start": 27.184,
      "duration": 0.0389,
      "velocity": 125,
      "chip": "ym2612"
    },
    {
      "channel": 5,
      "note": 59,
      "start": 27.2922,
      "duration": 0.114,
      "velocity": 78,
      "chip": "ym2612"
    },
    {
      "channel": 1,
      "note": 47,
      "start": 27.2949,
      "duration": 0.1111,
      "velocity": 127,
      "chip": "ym2612"
    },
    {
      "channel": 3,
      "note": 42,
      "start": 27.2977,
      "duration": 0.125,
      "velocity": 125,
      "chip": "ym2612"
    },
    {
      "channel": 5,
      "note": 59,
      "start": 27.4256,
      "duration": 0.1139,
      "velocity": 78,
      "chip": "ym2612"
    },
    {
      "channel": 1,
      "note": 47,
      "start": 27.4283,
      "duration": 0.111,
      "velocity": 127,
      "chip": "ym2612"
    },
    {
      "channel": 5,
      "note": 71,
      "start": 27.5592,
      "duration": 0.1305,
      "velocity": 78,
      "chip": "ym2612"
    },
    {
      "channel": 0,
      "note": 47,
      "start": 27.5622,
      "duration": 0.1105,
      "velocity": 90,
      "chip": "ym2612"
    },
    {
      "channel": 1,
      "note": 59,
      "start": 27.5651,
      "duration": 0.1243,
      "velocity": 127,
      "chip": "ym2612"
    },
    {
      "channel": 0,
      "note": 47,
      "start": 27.6924,
      "duration": 0.1137,
      "velocity": 90,
      "chip": "ym2612"
    },
    {
      "channel": 5,
      "note": 71,
      "start": 27.8258,
      "duration": 0.2637,
      "velocity": 78,
      "chip": "ym2612"
    },
    {
      "channel": 0,
      "note": 59,
      "start": 27.8284,
      "duration": 0.1276,
      "velocity": 90,
      "chip": "ym2612"
    },
    {
      "channel": 1,
      "note": 59,
      "start": 27.8312,
      "duration": 0.2581,
      "velocity": 127,
      "chip": "ym2612"
    },
    {
      "channel": 2,
      "note": 40,
      "start": 27.8341,
      "duration": 0.0889,
      "velocity": 127,
      "chip": "ym2612"
    },
    {
      "channel": 5,
      "note": 59,
      "start": 28.0931,
      "duration": 0.0965,
      "velocity": 78,
      "chip": "ym2612"
    },
    {
      "channel": 0,
      "note": 59,
      "start": 28.0957,
      "duration": 0.2436,
      "velocity": 90,
      "chip": "ym2612"
    },
    {
      "channel": 1,
      "note": 47,
      "start": 28.0985,
      "duration": 0.0908,
      "velocity": 127,
      "chip": "ym2612"
    },
    {
      "channel": 5,
      "note": 59,
      "start": 28.2257,
      "duration": 0.0973,
      "velocity": 78,
      "chip": "ym2612"
    },
    {
      "channel": 1,
      "note": 47,
      "start": 28.2284,
      "duration": 0.0944,
      "velocity": 127,
      "chip": "ym2612"
    },
    {
      "channel": 5,
      "note": 71,
      "start": 28.3426,
      "duration": 0.1137,
      "velocity": 78,
      "chip": "ym2612"
    },
    {
      "channel": 0,
      "note": 47,
      "start": 28.3452,
      "duration": 0.1107,
      "velocity": 90,
      "chip": "ym2612"
    },
    {
      "channel": 1,
      "note": 59,
      "start": 28.3483,
      "duration": 0.1077,
      "velocity": 127,
      "chip": "ym2612"
    },
    {
      "channel": 3,
      "note": 42,
      "start": 28.351,
      "duration": 0.1218,
      "velocity": 125,
      "chip": "ym2612"
    },
    {
      "channel": 0,
      "note": 47,
      "start": 28.4756,
      "duration": 0.1137,
      "velocity": 90,
      "chip": "ym2612"
    },
    {
      "channel": 5,
      "note": 71,
      "start": 28.6091,
      "duration": 0.2639,
      "velocity": 78,
      "chip": "ym2612"
    },
    {
      "channel": 0,
      "note": 59,
      "start": 28.6117,
      "duration": 0.1111,
      "velocity": 90,
      "chip": "ym2612"
    },
    {
      "channel": 1,
      "note": 59,
      "start": 28.6144,
      "duration": 0.2585,
      "velocity": 127,
      "chip": "ym2612"
    },
    {
      "channel": 3,
      "note": 42,
      "start": 28.617,
      "duration": 0.1224,
      "velocity": 125,
      "chip": "ym2612"
    },
    {
      "channel": 5,
      "note": 59,
      "start": 28.8762,
      "duration": 0.1301,
      "velocity": 78,
      "chip": "ym2612"
    },
    {
      "channel": 0,
      "note": 59,
      "start": 28.8788,
      "duration": 0.2606,
      "velocity": 90,
      "chip": "ym2612"
    },
    {
      "channel": 1,
      "note": 47,
      "start": 28.8816,
      "duration": 0.1245,
      "velocity": 127,
      "chip": "ym2612"
    },
    {
      "channel": 2,
      "note": 40,
      "start": 28.8846,
      "duration": 0.0884,
      "velocity": 127,
      "chip": "ym2612"
    },
    {
      "channel": 5,
      "note": 71,
      "start": 29.0092,
      "duration": 0.1305,
      "velocity": 78,
      "chip": "ym2612"
    },
    {
      "channel": 1,
      "note": 59,
      "start": 29.0118,
      "duration": 0.1276,
      "velocity": 127,
      "chip": "ym2612"
    },
    {
      "channel": 5,
      "note": 72,
      "start": 29.1428,
      "duration": 0.2135,
      "velocity": 78,
      "chip": "ym2612"
    },
    {
      "channel": 0,
      "note": 47,
      "start": 29.1459,
      "duration": 0.1268,
      "velocity": 90,
      "chip": "ym2612"
    },
    {
      "channel": 1,
      "note": 60,
      "start": 29.1487,
      "duration": 0.2073,
      "velocity": 127,
      "chip": "ym2612"
    },
    {
      "channel": 0,
      "note": 59,
      "start": 29.2756,
      "duration": 0.1137,
      "velocity": 90,
      "chip": "ym2612"
    },
    {
      "channel": 5,
      "note": 59,
      "start": 29.3926,
      "duration": 0.1137,
      "velocity": 78,
      "chip": "ym2612"
    },
    {
      "channel": 0,
      "note": 60,
      "start": 29.3954,
      "duration": 0.2274,
      "velocity": 90,
      "chip": "ym2612"
    },
    {
      "channel": 1,
      "note": 47,
      "start": 29.3982,
      "duration": 0.1078,
      "velocity": 127,
      "chip": "ym2612"
    },
    {
      "channel": 3,
      "note": 42,
      "start": 29.4008,
      "duration": 0.122,
      "velocity": 125,
      "chip": "ym2612"
    },
    {
      "channel": 5,
      "note": 59,
      "start": 29.5261,
      "duration": 0.1134,
      "velocity": 78,
      "chip": "ym2612"
    },
    {
      "channel": 1,
      "note": 47,
      "start": 29.5288,
      "duration": 0.1106,
      "velocity": 127,
      "chip": "ym2612"
    },
    {
      "channel": 5,
      "note": 71,
      "start": 29.6593,
      "duration": 0.1303,
      "velocity": 78,
      "chip": "ym2612"
    },
    {
      "channel": 0,
      "note": 47,
      "start": 29.662,
      "duration": 0.1107,
      "velocity": 90,
      "chip": "ym2612"
    },
    {
      "channel": 1,
      "note": 59,
      "start": 29.6652,
      "duration": 0.1242,
      "velocity": 127,
      "chip": "ym2612"
    },
    {
      "channel": 0,
      "note": 47,
      "start": 29.7924,
      "duration": 0.1137,
      "velocity": 90,
      "chip": "ym2612"
    },
    {
      "channel": 5,
      "note": 71,
      "start": 29.9258,
      "duration": 0.2638,
      "velocity": 78,
      "chip": "ym2612"
    },
    {
      "channel": 0,
      "note": 59,
      "start": 29.9286,
      "duration": 0.1274,
      "velocity": 90,
      "chip": "ym2612"
    },
    {
      "channel": 1,
      "note": 59,
      "start": 29.9312,
      "duration": 0.2581,
      "velocity": 127,
      "chip": "ym2612"
    },
    {
      "channel": 2,
      "note": 40,
      "start": 29.9342,
      "duration": 0.0889,
      "velocity": 127,
      "chip": "ym2612"
    },
    {
      "channel": 5,
      "note": 59,
      "start": 30.1928,
      "duration": 0.0967,
      "velocity": 78,
      "chip": "ym2612"
    },
    {
      "channel": 0,
      "note": 59,
      "start": 30.1954,
      "duration": 0.244,
      "velocity": 90,
      "chip": "ym2612"
    },
    {
      "channel": 1,
      "note": 47,
      "start": 30.1982,
      "duration": 0.0911,
      "velocity": 127,
      "chip": "ym2612"
    },
    {
      "channel": 5,
      "note": 59,
      "start": 30.3257,
      "duration": 0.0973,
      "velocity": 78,
      "chip": "ym2612"
    },
    {
      "channel": 1,
      "note": 47,
      "start": 30.3284,
      "duration": 0.0944,
      "velocity": 127,
      "chip": "ym2612"
    },
    {
      "channel": 5,
      "note": 71,
      "start": 30.4427,
      "duration": 0.1303,
      "velocity": 78,
      "chip": "ym2612"
    },
    {
      "channel": 0,
      "note": 47,
      "start": 30.4457,
      "duration": 0.1102,
      "velocity": 90,
      "chip": "ym2612"
    },
    {
      "channel": 1,
      "note": 59,
      "start": 30.4486,
      "duration": 0.1241,
      "velocity": 127,
      "chip": "ym2612"
    },
    {
      "channel": 3,
      "note": 42,
      "start": 30.4512,
      "duration": 0.1217,
      "velocity": 125,
      "chip": "ym2612"
    },
    {
      "channel": 0,
      "note": 47,
      "start": 30.5758,
      "duration": 0.1136,
      "velocity": 90,
      "chip": "ym2612"
    },
    {
      "channel": 5,
      "note": 71,
      "start": 30.7091,
      "duration": 0.2639,
      "velocity": 78,
      "chip": "ym2612"
    },
    {
      "channel": 0,
      "note": 59,
      "start": 30.7118,
      "duration": 0.1275,
      "velocity": 90,
      "chip": "ym2612"
    },
    {
      "channel": 1,
      "note": 59,
      "start": 30.7145,
      "duration": 0.2583,
      "velocity": 127,
      "chip": "ym2612"
    },
    {
      "channel": 3,
      "note": 42,
      "start": 30.7176,
      "duration": 0.1219,
      "velocity": 125,
      "chip": "ym2612"
    },
    {
      "channel": 5,
      "note": 76,
      "start": 30.9758,
      "duration": 0.2639,
      "velocity": 78,
      "chip": "ym2612"
    },
    {
      "channel": 0,
      "note": 59,
      "start": 30.9784,
      "duration": 0.261,
      "velocity": 90,
      "chip": "ym2612"
    },
    {
      "channel": 1,
      "note": 64,
      "start": 30.9809,
      "duration": 0.2586,
      "velocity": 127,
      "chip": "ym2612"
    },
    {
      "channel": 2,
      "note": 40,
      "start": 30.9838,
      "duration": 0.1059,
      "velocity": 127,
      "chip": "ym2612"
    },
    {
      "channel": 5,
      "note": 74,
      "start": 31.2433,
      "duration": 0.1298,
      "velocity": 78,
      "chip": "ym2612"
    },
    {
      "channel": 0,
      "note": 64,
      "start": 31.2457,
      "duration": 0.2437,
      "velocity": 90,
      "chip": "ym2612"
    },
    {
      "channel": 1,
      "note": 62,
      "start": 31.2485,
      "duration": 0.1242,
      "velocity": 127,
      "chip": "ym2612"
    },
    {
      "channel": 3,
      "note": 42,
      "start": 31.2512,
      "duration": 0.1217,
      "velocity": 125,
      "chip": "ym2612"
    },
    {
      "channel": 5,
      "note": 72,
      "start": 31.376,
      "duration": 0.097,
      "velocity": 78,
      "chip": "ym2612"
    },
    {
      "channel": 1,
      "note": 60,
      "start": 31.3792,
      "duration": 0.0936,
      "velocity": 127,
      "chip": "ym2612"
    },
    {
      "channel": 5,
      "note": 54,
      "start": 31.4924,
      "duration": 0.1139,
      "velocity": 78,
      "chip": "ym2612"
    },
    {
      "channel": 0,
      "note": 48,
      "start": 31.4951,
      "duration": 0.0276,
      "velocity": 90,
      "chip": "ym2612"
    },
    {
      "channel": 4,
      "note": 30,
      "start": 31.4977,
      "duration": 0.1085,
      "velocity": 90,
      "chip": "ym2612"
    },
    {
      "channel": 2,
      "note": 50,
      "start": 31.501,
      "duration": 0.1221,
      "velocity": 90,
      "chip": "ym2612"
    },
    {
      "channel": 1,
      "note": 42,
      "start": 31.5035,
      "duration": 0.1025,
      "velocity": 127,
      "chip": "ym2612"
    },
    {
      "channel": 3,
      "note": 42,
      "start": 31.5062,
      "duration": 0.1167,
      "velocity": 125,
      "chip": "ym2612"
    },
    {
      "channel": 5,
      "note": 54,
      "start": 31.6258,
      "duration": 0.1138,
      "velocity": 78,
      "chip": "ym2612"
    },
    {
      "channel": 0,
      "note": 30,
      "start": 31.6286,
      "duration": 0.1107,
      "velocity": 90,
      "chip": "ym2612"
    },
    {
      "channel": 4,
      "note": 48,
      "start": 31.6313,
      "duration": 0.1249,
      "velocity": 90,
      "chip": "ym2612"
    },
    {
      "channel": 1,
      "note": 42,
      "start": 31.6338,
      "duration": 0.1056,
      "velocity": 127,
      "chip": "ym2612"
    },
    {
      "channel": 5,
      "note": 66,
      "start": 31.7594,
      "duration": 0.1302,
      "velocity": 78,
      "chip": "ym2612"
    },
    {
      "channel": 0,
      "note": 42,
      "start": 31.7619,
      "duration": 0.1273,
      "velocity": 90,
      "chip": "ym2612"
    },
    {
      "channel": 1,
      "note": 54,
      "start": 31.7648,
      "duration": 0.1246,
      "velocity": 127,
      "chip": "ym2612"
    },
    {
      "channel": 5,
      "note": 66,
      "start": 32.0258,
      "duration": 0.2638,
      "velocity": 78,
      "chip": "ym2612"
    },
    {
      "channel": 0,
      "note": 42,
      "start": 32.0284,
      "duration": 0.2609,
      "velocity": 90,
      "chip": "ym2612"
    },
    {
      "channel": 1,
      "note": 54,
      "start": 32.031,
      "duration": 0.2583,
      "velocity": 127,
      "chip": "ym2612"
    },
    {
      "channel": 2,
      "note": 40,
      "start": 32.034,
      "duration": 0.1057,
      "velocity": 127,
      "chip": "ym2612"
    },
    {
      "channel": 5,
      "note": 54,
      "start": 32.2928,
      "duration": 0.0968,
      "velocity": 78,
      "chip": "ym2612"
    },
    {
      "channel": 0,
      "note": 30,
      "start": 32.2956,
      "duration": 0.0937,
      "velocity": 90,
      "chip": "ym2612"
    },
    {
      "channel": 1,
      "note": 42,
      "start": 32.2984,
      "duration": 0.091,
      "velocity": 127,
      "chip": "ym2612"
    },
    {
      "channel": 5,
      "note": 54,
      "start": 32.4256,
      "duration": 0.0975,
      "velocity": 78,
      "chip": "ym2612"
    },
    {
      "channel": 0,
      "note": 30,
      "start": 32.428,
      "duration": 0.0947,
      "velocity": 90,
      "chip": "ym2612"
    },
    {
      "channel": 1,
      "note": 42,
      "start": 32.4305,
      "duration": 0.0924,
      "velocity": 127,
      "chip": "ym2612"
    },
    {
      "channel": 5,
      "note": 66,
      "start": 32.5427,
      "duration": 0.1136,
      "velocity": 78,
      "chip": "ym2612"
    },
    {
      "channel": 0,
      "note": 42,
      "start": 32.5457,
      "duration": 0.1103,
      "velocity": 90,
      "chip": "ym2612"
    },
    {
      "channel": 1,
      "note": 54,
      "start": 32.5483,
      "duration": 0.1078,
      "velocity": 127,
      "chip": "ym2612"
    },
    {
      "channel": 3,
      "note": 42,
      "start": 32.551,
      "duration": 0.1218,
      "velocity": 125,
      "chip": "ym2612"
    },
    {
      "channel": 5,
      "note": 66,
      "start": 32.809,
      "duration": 0.2641,
      "velocity": 78,
      "chip": "ym2612"
    },
    {
      "channel": 0,
      "note": 42,
      "start": 32.8116,
      "duration": 0.2612,
      "velocity": 90,
      "chip": "ym2612"
    },
    {
      "channel": 1,
      "note": 54,
      "start": 32.8147,
      "duration": 0.2582,
      "velocity": 127,
      "chip": "ym2612"
    },
    {
      "channel": 3,
      "note": 42,
      "start": 32.8174,
      "duration": 0.122,
      "velocity": 125,
      "chip": "ym2612"
    },
    {
      "channel": 5,
      "note": 54,
      "start": 33.0763,
      "duration": 0.1301,
      "velocity": 78,
      "chip": "ym2612"
    },
    {
      "channel": 0,
      "note": 30,
      "start": 33.079,
      "duration": 0.127,
      "velocity": 90,
      "chip": "ym2612"
    },
    {
      "channel": 1,
      "note": 42,
      "start": 33.0818,
      "duration": 0.1243,
      "velocity": 127,
      "chip": "ym2612"
    },
    {
      "channel": 2,
      "note": 40,
      "start": 33.0847,
      "duration": 0.1048,
      "velocity": 127,
      "chip": "ym2612"
    },
    {
      "channel": 5,
      "note": 66,
      "start": 33.2092,
      "duration": 0.1304,
      "velocity": 78,
      "chip": "ym2612"
    },
    {
      "channel": 0,
      "note": 42,
      "start": 33.2117,
      "duration": 0.1277,
      "velocity": 90,
      "chip": "ym2612"
    },
    {
      "channel": 1,
      "note": 54,
      "start": 33.2141,
      "duration": 0.1253,
      "velocity": 127,
      "chip": "ym2612"
    },
    {
      "channel": 5,
      "note": 67,
      "start": 33.3428,
      "duration": 0.2135,
      "velocity": 78,
      "chip": "ym2612"
    },
    {
      "channel": 0,
      "note": 43,
      "start": 33.3456,
      "duration": 0.2104,
      "velocity": 90,
      "chip": "ym2612"
    },
    {
      "channel": 1,
      "note": 55,
      "start": 33.3485,
      "duration": 0.2076,
      "velocity": 127,
      "chip": "ym2612"
    },
    {
      "channel": 5,
      "note": 54,
      "start": 33.5926,
      "duration": 0.1136,
      "velocity": 78,
      "chip": "ym2612"
    },
    {
      "channel": 0,
      "note": 30,
      "start": 33.5952,
      "duration": 0.1107,
      "velocity": 90,
      "chip": "ym2612"
    },
    {
      "channel": 5,
      "note": 54,
      "start": 33.7257,
      "duration": 0.1139,
      "velocity": 78,
      "chip": "ym2612"
    },
    {
      "channel": 0,
      "note": 30,
      "start": 33.728,
      "duration": 0.1113,
      "velocity": 90,
      "chip": "ym2612"
    },
    {
      "channel": 5,
      "note": 66,
      "start": 33.8596,
      "duration": 0.13,
      "velocity": 78,
      "chip": "ym2612"
    },
    {
      "channel": 0,
      "note": 42,
      "start": 33.8627,
      "duration": 0.1266,
      "velocity": 90,
      "chip": "ym2612"
    },
    {
      "channel": 5,
      "note": 66,
      "start": 34.1258,
      "duration": 0.2637,
      "velocity": 78,
      "chip": "ym2612"
    },
    {
      "channel": 0,
      "note": 42,
      "start": 34.1284,
      "duration": 0.2609,
      "velocity": 90,
      "chip": "ym2612"
    },
    {
      "channel": 2,
      "note": 40,
      "start": 34.1314,
      "duration": 0.1081,
      "velocity": 127,
      "chip": "ym2612"
    },
    {
      "channel": 5,
      "note": 54,
      "start": 34.3927,
      "duration": 0.0968,
      "velocity": 78,
      "chip": "ym2612"
    },
    {
      "channel": 0,
      "note": 30,
      "start": 34.3954,
      "duration": 0.0938,
      "velocity": 90,
      "chip": "ym2612"
    },
    {
      "channel": 5,
      "note": 54,
      "start": 34.5257,
      "duration": 0.0973,
      "velocity": 78,
      "chip": "ym2612"
    },
    {
      "channel": 0,
      "note": 30,
      "start": 34.528,
      "duration": 0.0947,
      "velocity": 90,
      "chip": "ym2612"
    },
    {
      "channel": 5,
      "note": 66,
      "start": 34.6426,
      "duration": 0.1304,
      "velocity": 78,
      "chip": "ym2612"
    },
    {
      "channel": 0,
      "note": 42,
      "start": 34.6453,
      "duration": 0.1274,
      "velocity": 90,
      "chip": "ym2612"
    },
    {
      "channel": 4,
      "note": 41,
      "start": 34.649,
      "duration": 4.174,
      "velocity": 108,
      "chip": "ym2612"
    },
    {
      "channel": 3,
      "note": 45,
      "start": 34.7789,
      "duration": 4.1772,
      "velocity": 108,
      "chip": "ym2612"
    },
    {
      "channel": 5,
      "note": 66,
      "start": 34.9091,
      "duration": 0.2639,
      "velocity": 78,
      "chip": "ym2612"
    },
    {
      "channel": 0,
      "note": 42,
      "start": 34.9117,
      "duration": 0.261,
      "velocity": 90,
      "chip": "ym2612"
    },
    {
      "channel": 5,
      "note": 66,
      "start": 35.1762,
      "duration": 0.13,
      "velocity": 78,
      "chip": "ym2612"
    },
    {
      "channel": 0,
      "note": 42,
      "start": 35.1789,
      "duration": 0.1271,
      "velocity": 90,
      "chip": "ym2612"
    },
    {
      "channel": 2,
      "note": 40,
      "start": 35.1828,
      "duration": 0.1067,
      "velocity": 127,
      "chip": "ym2612"
    },
    {
      "channel": 5,
      "note": 65,
      "start": 35.3094,
      "duration": 0.1301,
      "velocity": 78,
      "chip": "ym2612"
    },
    {
      "channel": 0,
      "note": 41,
      "start": 35.3118,
      "duration": 0.1274,
      "velocity": 90,
      "chip": "ym2612"
    },
    {
      "channel": 5,
      "note": 64,
      "start": 35.4424,
      "duration": 0.1306,
      "velocity": 78,
      "chip": "ym2612"
    },
    {
      "channel": 0,
      "note": 40,
      "start": 35.4451,
      "duration": 0.1276,
      "velocity": 90,
      "chip": "ym2612"
    },
    {
      "channel": 5,
      "note": 63,
      "start": 35.5763,
      "duration": 0.0967,
      "velocity": 78,
      "chip": "ym2612"
    },
    {
      "channel": 0,
      "note": 39,
      "start": 35.5791,
      "duration": 0.0769,
      "velocity": 90,
      "chip": "ym2612"
    },
    {
      "channel": 1,
      "note": 42,
      "start": 35.7094,
      "duration": 0.0967,
      "velocity": 127,
      "chip": "ym2612"
    },
    {
      "channel": 2,
      "note": 66,
      "start": 35.7145,
      "duration": 0.0751,
      "velocity": 88,
      "chip": "ym2612"
    },
    {
      "channel": 1,
      "note": 42,
      "start": 35.8259,
      "duration": 0.1134,
      "velocity": 127,
      "chip": "ym2612"
    },
    {
      "channel": 2,
      "note": 71,
      "start": 35.8291,
      "duration": 0.094,
      "velocity": 88,
      "chip": "ym2612"
    },
    {
      "channel": 1,
      "note": 54,
      "start": 35.9595,
      "duration": 0.1299,
      "velocity": 127,
      "chip": "ym2612"
    },
    {
      "channel": 2,
      "note": 73,
      "start": 35.9632,
      "duration": 0.0931,
      "velocity": 88,
      "chip": "ym2612"
    },
    {
      "channel": 0,
      "note": 66,
      "start": 35.9678,
      "duration": 0.0882,
      "velocity": 88,
      "chip": "ym2612"
    },
    {
      "channel": 2,
      "note": 66,
      "start": 36.0937,
      "duration": 0.0794,
      "velocity": 88,
      "chip": "ym2612"
    },
    {
      "channel": 0,
      "note": 71,
      "start": 36.0961,
      "duration": 0.0767,
      "velocity": 88,
      "chip": "ym2612"
    },
    {
      "channel": 1,
      "note": 54,
      "start": 36.2263,
      "duration": 0.263,
      "velocity": 127,
      "chip": "ym2612"
    },
    {
      "channel": 2,
      "note": 76,
      "start": 36.2295,
      "duration": 0.0768,
      "velocity": 88,
      "chip": "ym2612"
    },
    {
      "channel": 0,
      "note": 73,
      "start": 36.2319,
      "duration": 0.0741,
      "velocity": 88,
      "chip": "ym2612"
    },
    {
      "channel": 2,
      "note": 66,
      "start": 36.3598,
      "duration": 0.0798,
      "velocity": 88,
      "chip": "ym2612"
    },
    {
      "channel": 0,
      "note": 66,
      "start": 36.3625,
      "duration": 0.0767,
      "velocity": 88,
      "chip": "ym2612"
    },
    {
      "channel": 1,
      "note": 42,
      "start": 36.4929,
      "duration": 0.0964,
      "velocity": 127,
      "chip": "ym2612"
    },
    {
      "channel": 2,
      "note": 71,
      "start": 36.4961,
      "duration": 0.0771,
      "velocity": 88,
      "chip": "ym2612"
    },
    {
      "channel": 0,
      "note": 76,
      "start": 36.4985,
      "duration": 0.0743,
      "velocity": 88,
      "chip": "ym2612"
    },
    {
      "channel": 1,
      "note": 42,
      "start": 36.6259,
      "duration": 0.0968,
      "velocity": 127,
      "chip": "ym2612"
    },
    {
      "channel": 2,
      "note": 73,
      "start": 36.6291,
      "duration": 0.0772,
      "velocity": 88,
      "chip": "ym2612"
    },
    {
      "channel": 0,
      "note": 66,
      "start": 36.6315,
      "duration": 0.0745,
      "velocity": 88,
      "chip": "ym2612"
    },
    {
      "channel": 1,
      "note": 54,
      "start": 36.7593,
      "duration": 0.0967,
      "velocity": 127,
      "chip": "ym2612"
    },
    {
      "channel": 2,
      "note": 66,
      "start": 36.7625,
      "duration": 0.0771,
      "velocity": 88,
      "chip": "ym2612"
    },
    {
      "channel": 0,
      "note": 71,
      "start": 36.7649,
      "duration": 0.0744,
      "velocity": 88,
      "chip": "ym2612"
    },
    {
      "channel": 2,
      "note": 71,
      "start": 36.8765,
      "duration": 0.0966,
      "velocity": 88,
      "chip": "ym2612"
    },
    {
      "channel": 0,
      "note": 73,
      "start": 36.8789,
      "duration": 0.0939,
      "velocity": 88,
      "chip": "ym2612"
    },
    {
      "channel": 1,
      "note": 54,
      "start": 37.0092,
      "duration": 0.2636,
      "velocity": 127,
      "chip": "ym2612"
    },
    {
      "channel": 2,
      "note": 73,
      "start": 37.0124,
      "duration": 0.0939,
      "velocity": 88,
      "chip": "ym2612"
    },
    {
      "channel": 0,
      "note": 66,
      "start": 37.0148,
      "duration": 0.0911,
      "velocity": 88,
      "chip": "ym2612"
    },
    {
      "channel": 2,
      "note": 66,
      "start": 37.1432,
      "duration": 0.08,
      "velocity": 88,
      "chip": "ym2612"
    },
    {
      "channel": 0,
      "note": 71,
      "start": 37.1456,
      "duration": 0.0772,
      "velocity": 88,
      "chip": "ym2612"
    },
    {
      "channel": 1,
      "note": 42,
      "start": 37.2763,
      "duration": 0.1298,
      "velocity": 127,
      "chip": "ym2612"
    },
    {
      "channel": 2,
      "note": 76,
      "start": 37.2795,
      "duration": 0.0768,
      "velocity": 88,
      "chip": "ym2612"
    },
    {
      "channel": 0,
      "note": 73,
      "start": 37.2819,
      "duration": 0.074,
      "velocity": 88,
      "chip": "ym2612"
    },
    {
      "channel": 1,
      "note": 54,
      "start": 37.4092,
      "duration": 0.1302,
      "velocity": 127,
      "chip": "ym2612"
    },
    {
      "channel": 2,
      "note": 66,
      "start": 37.4124,
      "duration": 0.0772,
      "velocity": 88,
      "chip": "ym2612"
    },
    {
      "channel": 0,
      "note": 66,
      "start": 37.4148,
      "duration": 0.0744,
      "velocity": 88,
      "chip": "ym2612"
    },
    {
      "channel": 1,
      "note": 55,
      "start": 37.5433,
      "duration": 0.2129,
      "velocity": 127,
      "chip": "ym2612"
    },
    {
      "channel": 2,
      "note": 76,
      "start": 37.5471,
      "duration": 0.076,
      "velocity": 88,
      "chip": "ym2612"
    },
    {
      "channel": 0,
      "note": 76,
      "start": 37.5494,
      "duration": 0.0733,
      "velocity": 88,
      "chip": "ym2612"
    },
    {
      "channel": 2,
      "note": 78,
      "start": 37.6766,
      "duration": 0.0798,
      "velocity": 88,
      "chip": "ym2612"
    },
    {
      "channel": 0,
      "note": 66,
      "start": 37.679,
      "duration": 0.077,
      "velocity": 88,
      "chip": "ym2612"
    },
    {
      "channel": 1,
      "note": 42,
      "start": 37.8095,
      "duration": 0.0966,
      "velocity": 127,
      "chip": "ym2612"
    },
    {
      "channel": 2,
      "note": 66,
      "start": 37.8127,
      "duration": 0.077,
      "velocity": 88,
      "chip": "ym2612"
    },
    {
      "channel": 0,
      "note": 76,
      "start": 37.815,
      "duration": 0.0743,
      "velocity": 88,
      "chip": "ym2612"
    },
    {
      "channel": 1,
      "note": 42,
      "start": 37.9258,
      "duration": 0.1135,
      "velocity": 127,
      "chip": "ym2612"
    },
    {
      "channel": 2,
      "note": 71,
      "start": 37.93,
      "duration": 0.093,
      "velocity": 88,
      "chip": "ym2612"
    },
    {
      "channel": 0,
      "note": 78,
      "start": 37.9324,
      "duration": 0.0903,
      "velocity": 88,
      "chip": "ym2612"
    },
    {
      "channel": 1,
      "note": 54,
      "start": 38.0594,
      "duration": 0.13,
      "velocity": 127,
      "chip": "ym2612"
    },
    {
      "channel": 2,
      "note": 73,
      "start": 38.0625,
      "duration": 0.0938,
      "velocity": 88,
      "chip": "ym2612"
    },
    {
      "channel": 0,
      "note": 66,
      "start": 38.065,
      "duration": 0.0911,
      "velocity": 88,
      "chip": "ym2612"
    },
    {
      "channel": 2,
      "note": 66,
      "start": 38.1937,
      "duration": 0.0794,
      "velocity": 88,
      "chip": "ym2612"
    },
    {
      "channel": 0,
      "note": 71,
      "start": 38.196,
      "duration": 0.0767,
      "velocity": 88,
      "chip": "ym2612"
    },
    {
      "channel": 1,
      "note": 54,
      "start": 38.326,
      "duration": 0.2634,
      "velocity": 127,
      "chip": "ym2612"
    },
    {
      "channel": 2,
      "note": 76,
      "start": 38.3291,
      "duration": 0.0772,
      "velocity": 88,
      "chip": "ym2612"
    },
    {
      "channel": 0,
      "note": 73,
      "start": 38.3316,
      "duration": 0.0745,
      "velocity": 88,
      "chip": "ym2612"
    },
    {
      "channel": 2,
      "note": 66,
      "start": 38.4598,
      "duration": 0.0798,
      "velocity": 88,
      "chip": "ym2612"
    },
    {
      "channel": 0,
      "note": 66,
      "start": 38.4626,
      "duration": 0.0766,
      "velocity": 88,
      "chip": "ym2612"
    },
    {
      "channel": 1,
      "note": 42,
      "start": 38.5928,
      "duration": 0.0965,
      "velocity": 127,
      "chip": "ym2612"
    },
    {
      "channel": 2,
      "note": 71,
      "start": 38.5968,
      "duration": 0.0762,
      "velocity": 88,
      "chip": "ym2612"
    },
    {
      "channel": 0,
      "note": 76,
      "start": 38.5993,
      "duration": 0.0735,
      "velocity": 88,
      "chip": "ym2612"
    },
    {
      "channel": 1,
      "note": 42,
      "start": 38.7259,
      "duration": 0.0969,
      "velocity": 127,
      "chip": "ym2612"
    },
    {
      "channel": 2,
      "note": 73,
      "start": 38.7291,
      "duration": 0.0772,
      "velocity": 88,
      "chip": "ym2612"
    },
    {
      "channel": 0,
      "note": 66,
      "start": 38.7315,
      "duration": 0.0744,
      "velocity": 88,
      "chip": "ym2612"
    },
    {
      "channel": 1,
      "note": 54,
      "start": 38.8597,
      "duration": 0.1131,
      "velocity": 127,
      "chip": "ym2612"
    },
    {
      "channel": 2,
      "note": 66,
      "start": 38.8639,
      "duration": 0.0758,
      "velocity": 88,
      "chip": "ym2612"
    },
    {
      "channel": 0,
      "note": 71,
      "start": 38.8663,
      "duration": 0.0731,
      "velocity": 88,
      "chip": "ym2612"
    },
    {
      "channel": 2,
      "note": 71,
      "start": 38.9773,
      "duration": 0.0957,
      "velocity": 88,
      "chip": "ym2612"
    },
    {
      "channel": 0,
      "note": 73,
      "start": 38.9797,
      "duration": 0.093,
      "velocity": 88,
      "chip": "ym2612"
    },
    {
      "channel": 1,
      "note": 54,
      "start": 39.1092,
      "duration": 0.2636,
      "velocity": 127,
      "chip": "ym2612"
    },
    {
      "channel": 2,
      "note": 73,
      "start": 39.1129,
      "duration": 0.0935,
      "velocity": 88,
      "chip": "ym2612"
    },
    {
      "channel": 0,
      "note": 66,
      "start": 39.1153,
      "duration": 0.0908,
      "velocity": 88,
      "chip": "ym2612"
    },
    {
      "channel": 2,
      "note": 66,
      "start": 39.2437,
      "duration": 0.0795,
      "velocity": 88,
      "chip": "ym2612"
    },
    {
      "channel": 0,
      "note": 71,
      "start": 39.246,
      "duration": 0.0768,
      "velocity": 88,
      "chip": "ym2612"
    },
    {
      "channel": 1,
      "note": 59,
      "start": 39.3758,
      "duration": 0.2636,
      "velocity": 127,
      "chip": "ym2612"
    },
    {
      "channel": 2,
      "note": 76,
      "start": 39.3791,
      "duration": 0.0772,
      "velocity": 88,
      "chip": "ym2612"
    },
    {
      "channel": 0,
      "note": 73,
      "start": 39.3814,
      "duration": 0.0745,
      "velocity": 88,
      "chip": "ym2612"
    },
    {
      "channel": 2,
      "note": 66,
      "start": 39.5099,
      "duration": 0.0797,
      "velocity": 88,
      "chip": "ym2612"
    },
    {
      "channel": 0,
      "note": 66,
      "start": 39.5123,
      "duration": 0.077,
      "velocity": 88,
      "chip": "ym2612"
    },
    {
      "channel": 1,
      "note": 57,
      "start": 39.6429,
      "duration": 0.1298,
      "velocity": 127,
      "chip": "ym2612"
    },
    {
      "channel": 2,
      "note": 71,
      "start": 39.6461,
      "duration": 0.077,
      "velocity": 88,
      "chip": "ym2612"
    },
    {
      "channel": 0,
      "note": 76,
      "start": 39.6485,
      "duration": 0.0742,
      "velocity": 88,
      "chip": "ym2612"
    },
    {
      "channel": 1,
      "note": 55,
      "start": 39.776,
      "duration": 0.0967,
      "velocity": 127,
      "chip": "ym2612"
    },
    {
      "channel": 2,
      "note": 69,
      "start": 39.7793,
      "duration": 0.077,
      "velocity": 88,
      "chip": "ym2612"
    },
    {
      "channel": 0,
      "note": 66,
      "start": 39.7817,
      "duration": 0.0743,
      "velocity": 88,
      "chip": "ym2612"
    },
    {
      "channel": 1,
      "note": 42,
      "start": 39.909,
      "duration": 0.097,
      "velocity": 127,
      "chip": "ym2612"
    },
    {
      "channel": 5,
      "note": 42,
      "start": 39.9119,
      "duration": 0.111,
      "velocity": 125,
      "chip": "ym2612"
    },
    {
      "channel": 2,
      "note": 66,
      "start": 39.915,
      "duration": 0.0746,
      "velocity": 88,
      "chip": "ym2612"
    },
    {
      "channel": 0,
      "note": 71,
      "start": 39.9174,
      "duration": 0.072,
      "velocity": 88,
      "chip": "ym2612"
    },
    {
      "channel": 1,
      "note": 42,
      "start": 40.0259,
      "duration": 0.1134,
      "velocity": 127,
      "chip": "ym2612"
    },
    {
      "channel": 2,
      "note": 71,
      "start": 40.0291,
      "duration": 0.0938,
      "velocity": 88,
      "chip": "ym2612"
    },
    {
      "channel": 0,
      "note": 69,
      "start": 40.0315,
      "duration": 0.0912,
      "velocity": 88,
      "chip": "ym2612"
    },
    {
      "channel": 1,
      "note": 54,
      "start": 40.1594,
      "duration": 0.13,
      "velocity": 127,
      "chip": "ym2612"
    },
    {
      "channel": 2,
      "note": 73,
      "start": 40.1626,
      "duration": 0.0937,
      "velocity": 88,
      "chip": "ym2612"
    },
    {
      "channel": 0,
      "note": 66,
      "start": 40.165,
      "duration": 0.091,
      "velocity": 88,
      "chip": "ym2612"
    },
    {
      "channel": 2,
      "note": 66,
      "start": 40.2937,
      "duration": 0.0793,
      "velocity": 88,
      "chip": "ym2612"
    },
    {
      "channel": 0,
      "note": 71,
      "start": 40.2961,
      "duration": 0.0766,
      "velocity": 88,
      "chip": "ym2612"
    },
    {
      "channel": 1,
      "note": 54,
      "start": 40.426,
      "duration": 0.2632,
      "velocity": 127,
      "chip": "ym2612"
    },
    {
      "channel": 2,
      "note": 76,
      "start": 40.4293,
      "duration": 0.077,
      "velocity": 88,
      "chip": "ym2612"
    },
    {
      "channel": 0,
      "note": 73,
      "start": 40.4316,
      "duration": 0.0744,
      "velocity": 88,
      "chip": "ym2612"
    },
    {
      "channel": 2,
      "note": 66,
      "start": 40.5599,
      "duration": 0.0798,
      "velocity": 88,
      "chip": "ym2612"
    },
    {
      "channel": 0,
      "note": 66,
      "start": 40.5627,
      "duration": 0.0766,
      "velocity": 88,
      "chip": "ym2612"
    },
    {
      "channel": 1,
      "note": 42,
      "start": 40.6933,
      "duration": 0.0961,
      "velocity": 127,
      "chip": "ym2612"
    },
    {
      "channel": 2,
      "note": 71,
      "start": 40.6966,
      "duration": 0.0765,
      "velocity": 88,
      "chip": "ym2612"
    },
    {
      "channel": 0,
      "note": 76,
      "start": 40.6989,
      "duration": 0.0739,
      "velocity": 88,
      "chip": "ym2612"
    },
    {
      "channel": 1,
      "note": 42,
      "start": 40.8258,
      "duration": 0.097,
      "velocity": 127,
      "chip": "ym2612"
    },
    {
      "channel": 2,
      "note": 73,
      "start": 40.8291,
      "duration": 0.0773,
      "velocity": 88,
      "chip": "ym2612"
    },
    {
      "channel": 0,
      "note": 66,
      "start": 40.8315,
      "duration": 0.0746,
      "velocity": 88,
      "chip": "ym2612"
    },
    {
      "channel": 1,
      "note": 54,
      "start": 40.9593,
      "duration": 0.0968,
      "velocity": 127,
      "chip": "ym2612"
    },
    {
      "channel": 5,
      "note": 42,
      "start": 40.9621,
      "duration": 0.1108,
      "velocity": 125,
      "chip": "ym2612"
    },
    {
      "channel": 2,
      "note": 66,
      "start": 40.9651,
      "duration": 0.0746,
      "velocity": 88,
      "chip": "ym2612"
    },
    {
      "channel": 0,
      "note": 71,
      "start": 40.9676,
      "duration": 0.0717,
      "velocity": 88,
      "chip": "ym2612"
    },
    {
      "channel": 2,
      "note": 71,
      "start": 41.0767,
      "duration": 0.0963,
      "velocity": 88,
      "chip": "ym2612"
    },
    {
      "channel": 0,
      "note": 73,
      "start": 41.0791,
      "duration": 0.0937,
      "velocity": 88,
      "chip": "ym2612"
    },
    {
      "channel": 1,
      "note": 54,
      "start": 41.2092,
      "duration": 0.2636,
      "velocity": 127,
      "chip": "ym2612"
    },
    {
      "channel": 5,
      "note": 42,
      "start": 41.212,
      "duration": 0.1275,
      "velocity": 125,
      "chip": "ym2612"
    },
    {
      "channel": 2,
      "note": 73,
      "start": 41.215,
      "duration": 0.0913,
      "velocity": 88,
      "chip": "ym2612"
    },
    {
      "channel": 0,
      "note": 66,
      "start": 41.2174,
      "duration": 0.0885,
      "velocity": 88,
      "chip": "ym2612"
    },
    {
      "channel": 2,
      "note": 66,
      "start": 41.3433,
      "duration": 0.0798,
      "velocity": 88,
      "chip": "ym2612"
    },
    {
      "channel": 0,
      "note": 71,
      "start": 41.3457,
      "duration": 0.077,
      "velocity": 88,
      "chip": "ym2612"
    },
    {
      "channel": 1,
      "note": 42,
      "start": 41.4763,
      "duration": 0.1298,
      "velocity": 127,
      "chip": "ym2612"
    },
    {
      "channel": 2,
      "note": 76,
      "start": 41.4795,
      "duration": 0.0768,
      "velocity": 88,
      "chip": "ym2612"
    },
    {
      "channel": 0,
      "note": 73,
      "start": 41.4819,
      "duration": 0.0741,
      "velocity": 88,
      "chip": "ym2612"
    },
    {
      "channel": 1,
      "note": 54,
      "start": 41.6092,
      "duration": 0.13,
      "velocity": 127,
      "chip": "ym2612"
    },
    {
      "channel": 2,
      "note": 66,
      "start": 41.6124,
      "duration": 0.0772,
      "velocity": 88,
      "chip": "ym2612"
    },
    {
      "channel": 0,
      "note": 66,
      "start": 41.6148,
      "duration": 0.0745,
      "velocity": 88,
      "chip": "ym2612"
    },
    {
      "channel": 1,
      "note": 55,
      "start": 41.7427,
      "duration": 0.2133,
      "velocity": 127,
      "chip": "ym2612"
    },
    {
      "channel": 2,
      "note": 76,
      "start": 41.746,
      "duration": 0.0771,
      "velocity": 88,
      "chip": "ym2612"
    },
    {
      "channel": 0,
      "note": 76,
      "start": 41.7483,
      "duration": 0.0744,
      "velocity": 88,
      "chip": "ym2612"
    },
    {
      "channel": 2,
      "note": 78,
      "start": 41.8766,
      "duration": 0.0798,
      "velocity": 88,
      "chip": "ym2612"
    },
    {
      "channel": 0,
      "note": 66,
      "start": 41.879,
      "duration": 0.077,
      "velocity": 88,
      "chip": "ym2612"
    },
    {
      "channel": 1,
      "note": 42,
      "start": 42.0098,
      "duration": 0.0962,
      "velocity": 127,
      "chip": "ym2612"
    },
    {
      "channel": 5,
      "note": 42,
      "start": 42.013,
      "duration": 0.1098,
      "velocity": 125,
      "chip": "ym2612"
    },
    {
      "channel": 2,
      "note": 66,
      "start": 42.016,
      "duration": 0.0736,
      "velocity": 88,
      "chip": "ym2612"
    },
    {
      "channel": 0,
      "note": 76,
      "start": 42.0185,
      "duration": 0.0708,
      "velocity": 88,
      "chip": "ym2612"
    },
    {
      "channel": 1,
      "note": 42,
      "start": 42.1258,
      "duration": 0.1135,
      "velocity": 127,
      "chip": "ym2612"
    },
    {
      "channel": 2,
      "note": 71,
      "start": 42.1291,
      "duration": 0.0939,
      "velocity": 88,
      "chip": "ym2612"
    },
    {
      "channel": 0,
      "note": 78,
      "start": 42.1314,
      "duration": 0.0912,
      "velocity": 88,
      "chip": "ym2612"
    },
    {
      "channel": 1,
      "note": 54,
      "start": 42.2594,
      "duration": 0.13,
      "velocity": 127,
      "chip": "ym2612"
    },
    {
      "channel": 2,
      "note": 73,
      "start": 42.2626,
      "duration": 0.0937,
      "velocity": 88,
      "chip": "ym2612"
    },
    {
      "channel": 0,
      "note": 66,
      "start": 42.265,
      "duration": 0.091,
      "velocity": 88,
      "chip": "ym2612"
    },
    {
      "channel": 2,
      "note": 66,
      "start": 42.3937,
      "duration": 0.0793,
      "velocity": 88,
      "chip": "ym2612"
    },
    {
      "channel": 0,
      "note": 71,
      "start": 42.3961,
      "duration": 0.0766,
      "velocity": 88,
      "chip": "ym2612"
    },
    {
      "channel": 1,
      "note": 54,
      "start": 42.526,
      "duration": 0.2632,
      "velocity": 127,
      "chip": "ym2612"
    },
    {
      "channel": 2,
      "note": 76,
      "start": 42.5293,
      "duration": 0.077,
      "velocity": 88,
      "chip": "ym2612"
    },
    {
      "channel": 0,
      "note": 73,
      "start": 42.5316,
      "duration": 0.0744,
      "velocity": 88,
      "chip": "ym2612"
    },
    {
      "channel": 2,
      "note": 66,
      "start": 42.6599,
      "duration": 0.0798,
      "velocity": 88,
      "chip": "ym2612"
    },
    {
      "channel": 0,
      "note": 66,
      "start": 42.6627,
      "duration": 0.0766,
      "velocity": 88,
      "chip": "ym2612"
    },
    {
      "channel": 1,
      "note": 42,
      "start": 42.7927,
      "duration": 0.0966,
      "velocity": 127,
      "chip": "ym2612"
    },
    {
      "channel": 2,
      "note": 71,
      "start": 42.796,
      "duration": 0.0771,
      "velocity": 88,
      "chip": "ym2612"
    },
    {
      "channel": 0,
      "note": 76,
      "start": 42.7983,
      "duration": 0.0744,
      "velocity": 88,
      "chip": "ym2612"
    },
    {
      "channel": 1,
      "note": 42,
      "start": 42.9258,
      "duration": 0.097,
      "velocity": 127,
      "chip": "ym2612"
    },
    {
      "channel": 2,
      "note": 73,
      "start": 42.929,
      "duration": 0.0773,
      "velocity": 88,
      "chip": "ym2612"
    },
    {
      "channel": 0,
      "note": 66,
      "start": 42.9314,
      "duration": 0.0746,
      "velocity": 88,
      "chip": "ym2612"
    },
    {
      "channel": 1,
      "note": 54,
      "start": 43.0594,
      "duration": 0.1134,
      "velocity": 127,
      "chip": "ym2612"
    },
    {
      "channel": 5,
      "note": 42,
      "start": 43.0622,
      "duration": 0.1108,
      "velocity": 125,
      "chip": "ym2612"
    },
    {
      "channel": 2,
      "note": 66,
      "start": 43.0652,
      "duration": 0.0744,
      "velocity": 88,
      "chip": "ym2612"
    },
    {
      "channel": 0,
      "note": 71,
      "start": 43.0676,
      "duration": 0.0716,
      "velocity": 88,
      "chip": "ym2612"
    },
    {
      "channel": 2,
      "note": 71,
      "start": 43.1767,
      "duration": 0.0964,
      "velocity": 88,
      "chip": "ym2612"
    },
    {
      "channel": 0,
      "note": 73,
      "start": 43.1791,
      "duration": 0.0937,
      "velocity": 88,
      "chip": "ym2612"
    },
    {
      "channel": 1,
      "note": 54,
      "start": 43.3096,
      "duration": 0.2631,
      "velocity": 127,
      "chip": "ym2612"
    },
    {
      "channel": 5,
      "note": 42,
      "start": 43.3124,
      "duration": 0.1272,
      "velocity": 125,
      "chip": "ym2612"
    },
    {
      "channel": 2,
      "note": 73,
      "start": 43.3155,
      "duration": 0.0908,
      "velocity": 88,
      "chip": "ym2612"
    },
    {
      "channel": 0,
      "note": 66,
      "start": 43.3178,
      "duration": 0.0882,
      "velocity": 88,
      "chip": "ym2612"
    },
    {
      "channel": 2,
      "note": 66,
      "start": 43.4433,
      "duration": 0.0964,
      "velocity": 88,
      "chip": "ym2612"
    },
    {
      "channel": 0,
      "note": 71,
      "start": 43.4457,
      "duration": 0.0937,
      "velocity": 88,
      "chip": "ym2612"
    },
    {
      "channel": 1,
      "note": 54,
      "start": 43.5761,
      "duration": 0.1299,
      "velocity": 127,
      "chip": "ym2612"
    },
    {
      "channel": 2,
      "note": 76,
      "start": 43.5794,
      "duration": 0.0769,
      "velocity": 88,
      "chip": "ym2612"
    },
    {
      "channel": 0,
      "note": 73,
      "start": 43.5817,
      "duration": 0.0742,
      "velocity": 88,
      "chip": "ym2612"
    },
    {
      "channel": 1,
      "note": 53,
      "start": 43.7092,
      "duration": 0.13,
      "velocity": 127,
      "chip": "ym2612"
    },
    {
      "channel": 2,
      "note": 66,
      "start": 43.7124,
      "duration": 0.0772,
      "velocity": 88,
      "chip": "ym2612"
    },
    {
      "channel": 0,
      "note": 66,
      "start": 43.7148,
      "duration": 0.0745,
      "velocity": 88,
      "chip": "ym2612"
    },
    {
      "channel": 1,
      "note": 52,
      "start": 43.8424,
      "duration": 0.1303,
      "velocity": 127,
      "chip": "ym2612"
    },
    {
      "channel": 5,
      "note": 42,
      "start": 43.8454,
      "duration": 0.0608,
      "velocity": 125,
      "chip": "ym2612"
    },
    {
      "channel": 2,
      "note": 71,
      "start": 43.8485,
      "duration": 0.0746,
      "velocity": 88,
      "chip": "ym2612"
    },
    {
      "channel": 0,
      "note": 76,
      "start": 43.8509,
      "duration": 0.0719,
      "velocity": 88,
      "chip": "ym2612"
    },
    {
      "channel": 1,
      "note": 51,
      "start": 43.976,
      "duration": 0.0968,
      "velocity": 127,
      "chip": "ym2612"
    },
    {
      "channel": 5,
      "note": 42,
      "start": 43.9786,
      "duration": 0.0609,
      "velocity": 125,
      "chip": "ym2612"
    },
    {
      "channel": 2,
      "note": 69,
      "start": 43.9817,
      "duration": 0.0745,
      "velocity": 88,
      "chip": "ym2612"
    },
    {
      "channel": 0,
      "note": 66,
      "start": 43.9841,
      "duration": 0.0718,
      "velocity": 88,
      "chip": "ym2612"
    },
    {
      "channel": 1,
      "note": 42,
      "start": 44.1092,
      "duration": 0.0969,
      "velocity": 127,
      "chip": "ym2612"
    },
    {
      "channel": 5,
      "note": 42,
      "start": 44.1121,
      "duration": 0.1275,
      "velocity": 125,
      "chip": "ym2612"
    },
    {
      "channel": 2,
      "note": 66,
      "start": 44.1152,
      "duration": 0.0745,
      "velocity": 88,
      "chip": "ym2612"
    },
    {
      "channel": 0,
      "note": 83,
      "start": 44.1176,
      "duration": 0.0717,
      "velocity": 88,
      "chip": "ym2612"
    },
    {
      "channel": 1,
      "note": 42,
      "start": 44.2426,
      "duration": 0.0968,
      "velocity": 127,
      "chip": "ym2612"
    },
    {
      "channel": 2,
      "note": 71,
      "start": 44.2458,
      "duration": 0.0772,
      "velocity": 88,
      "chip": "ym2612"
    },
    {
      "channel": 0,
      "note": 81,
      "start": 44.2482,
      "duration": 0.0745,
      "velocity": 88,
      "chip": "ym2612"
    },
    {
      "channel": 1,
      "note": 54,
      "start": 44.3594,
      "duration": 0.13,
      "velocity": 127,
      "chip": "ym2612"
    },
    {
      "channel": 2,
      "note": 73,
      "start": 44.3627,
      "duration": 0.0936,
      "velocity": 88,
      "chip": "ym2612"
    },
    {
      "channel": 0,
      "note": 78,
      "start": 44.365,
      "duration": 0.0909,
      "velocity": 88,
      "chip": "ym2612"
    },
    {
      "channel": 2,
      "note": 66,
      "start": 44.4937,
      "duration": 0.0959,
      "velocity": 88,
      "chip": "ym2612"
    },
    {
      "channel": 0,
      "note": 83,
      "start": 44.4961,
      "duration": 0.0932,
      "velocity": 88,
      "chip": "ym2612"
    },
    {
      "channel": 1,
      "note": 54,
      "start": 44.626,
      "duration": 0.2633,
      "velocity": 127,
      "chip": "ym2612"
    },
    {
      "channel": 3,
      "note": 42,
      "start": 44.6293,
      "duration": 0.0602,
      "velocity": 112,
      "chip": "ym2612"
    },
    {
      "channel": 2,
      "note": 76,
      "start": 44.6323,
      "duration": 0.074,
      "velocity": 88,
      "chip": "ym2612"
    },
    {
      "channel": 0,
      "note": 85,
      "start": 44.6347,
      "duration": 0.0712,
      "velocity": 88,
      "chip": "ym2612"
    },
    {
      "channel": 2,
      "note": 66,
      "start": 44.7599,
      "duration": 0.0798,
      "velocity": 88,
      "chip": "ym2612"
    },
    {
      "channel": 0,
      "note": 78,
      "start": 44.7626,
      "duration": 0.0767,
      "velocity": 88,
      "chip": "ym2612"
    },
    {
      "channel": 1,
      "note": 42,
      "start": 44.8931,
      "duration": 0.0963,
      "velocity": 127,
      "chip": "ym2612"
    },
    {
      "channel": 2,
      "note": 71,
      "start": 44.8964,
      "duration": 0.0767,
      "velocity": 88,
      "chip": "ym2612"
    },
    {
      "channel": 0,
      "note": 88,
      "start": 44.8987,
      "duration": 0.074,
      "velocity": 88,
      "chip": "ym2612"
    },
    {
      "channel": 1,
      "note": 42,
      "start": 45.0258,
      "duration": 0.097,
      "velocity": 127,
      "chip": "ym2612"
    },
    {
      "channel": 2,
      "note": 73,
      "start": 45.0291,
      "duration": 0.0773,
      "velocity": 88,
      "chip": "ym2612"
    },
    {
      "channel": 0,
      "note": 78,
      "start": 45.0314,
      "duration": 0.0746,
      "velocity": 88,
      "chip": "ym2612"
    },
    {
      "channel": 1,
      "note": 54,
      "start": 45.1593,
      "duration": 0.0968,
      "velocity": 127,
      "chip": "ym2612"
    },
    {
      "channel": 5,
      "note": 42,
      "start": 45.1621,
      "duration": 0.1274,
      "velocity": 125,
      "chip": "ym2612"
    },
    {
      "channel": 2,
      "note": 66,
      "start": 45.1651,
      "duration": 0.0746,
      "velocity": 88,
      "chip": "ym2612"
    },
    {
      "channel": 0,
      "note": 83,
      "start": 45.1676,
      "duration": 0.0717,
      "velocity": 88,
      "chip": "ym2612"
    },
    {
      "channel": 2,
      "note": 71,
      "start": 45.2933,
      "duration": 0.0797,
      "velocity": 88,
      "chip": "ym2612"
    },
    {
      "channel": 0,
      "note": 85,
      "start": 45.2957,
      "duration": 0.077,
      "velocity": 88,
      "chip": "ym2612"
    },
    {
      "channel": 1,
      "note": 54,
      "start": 45.4092,
      "duration": 0.2636,
      "velocity": 127,
      "chip": "ym2612"
    },
    {
      "channel": 5,
      "note": 42,
      "start": 45.4124,
      "duration": 0.1272,
      "velocity": 125,
      "chip": "ym2612"
    },
    {
      "channel": 2,
      "note": 73,
      "start": 45.4154,
      "duration": 0.0909,
      "velocity": 88,
      "chip": "ym2612"
    },
    {
      "channel": 0,
      "note": 78,
      "start": 45.4178,
      "duration": 0.0882,
      "velocity": 88,
      "chip": "ym2612"
    },
    {
      "channel": 2,
      "note": 66,
      "start": 45.5433,
      "duration": 0.0962,
      "velocity": 88,
      "chip": "ym2612"
    },
    {
      "channel": 0,
      "note": 83,
      "start": 45.5457,
      "duration": 0.0935,
      "velocity": 88,
      "chip": "ym2612"
    },
    {
      "channel": 1,
      "note": 42,
      "start": 45.6762,
      "duration": 0.1299,
      "velocity": 127,
      "chip": "ym2612"
    },
    {
      "channel": 3,
      "note": 42,
      "start": 45.6788,
      "duration": 0.0606,
      "velocity": 112,
      "chip": "ym2612"
    },
    {
      "channel": 2,
      "note": 76,
      "start": 45.6818,
      "duration": 0.0745,
      "velocity": 88,
      "chip": "ym2612"
    },
    {
      "channel": 0,
      "note": 85,
      "start": 45.6842,
      "duration": 0.0717,
      "velocity": 88,
      "chip": "ym2612"
    },
    {
      "channel": 1,
      "note": 54,
      "start": 45.8092,
      "duration": 0.1301,
      "velocity": 127,
      "chip": "ym2612"
    },
    {
      "channel": 2,
      "note": 66,
      "start": 45.8125,
      "duration": 0.0771,
      "velocity": 88,
      "chip": "ym2612"
    },
    {
      "channel": 0,
      "note": 78,
      "start": 45.8148,
      "duration": 0.0744,
      "velocity": 88,
      "chip": "ym2612"
    },
    {
      "channel": 1,
      "note": 55,
      "start": 45.9428,
      "duration": 0.2133,
      "velocity": 127,
      "chip": "ym2612"
    },
    {
      "channel": 2,
      "note": 76,
      "start": 45.946,
      "duration": 0.0771,
      "velocity": 88,
      "chip": "ym2612"
    },
    {
      "channel": 0,
      "note": 88,
      "start": 45.9484,
      "duration": 0.0744,
      "velocity": 88,
      "chip": "ym2612"
    },
    {
      "channel": 2,
      "note": 78,
      "start": 46.0765,
      "duration": 0.0798,
      "velocity": 88,
      "chip": "ym2612"
    },
    {
      "channel": 0,
      "note": 78,
      "start": 46.0789,
      "duration": 0.0771,
      "velocity": 88,
      "chip": "ym2612"
    },
    {
      "channel": 1,
      "note": 42,
      "start": 46.2098,
      "duration": 0.0963,
      "velocity": 127,
      "chip": "ym2612"
    },
    {
      "channel": 5,
      "note": 42,
      "start": 46.2126,
      "duration": 0.1269,
      "velocity": 125,
      "chip": "ym2612"
    },
    {
      "channel": 2,
      "note": 66,
      "start": 46.2156,
      "duration": 0.0739,
      "velocity": 88,
      "chip": "ym2612"
    },
    {
      "channel": 0,
      "note": 88,
      "start": 46.2181,
      "duration": 0.0712,
      "velocity": 88,
      "chip": "ym2612"
    },
    {
      "channel": 1,
      "note": 42,
      "start": 46.3426,
      "duration": 0.0968,
      "velocity": 127,
      "chip": "ym2612"
    },
    {
      "channel": 2,
      "note": 71,
      "start": 46.3458,
      "duration": 0.0772,
      "velocity": 88,
      "chip": "ym2612"
    },
    {
      "channel": 0,
      "note": 90,
      "start": 46.3482,
      "duration": 0.0746,
      "velocity": 88,
      "chip": "ym2612"
    },
    {
      "channel": 1,
      "note": 54,
      "start": 46.4594,
      "duration": 0.13,
      "velocity": 127,
      "chip": "ym2612"
    },
    {
      "channel": 2,
      "note": 73,
      "start": 46.4626,
      "duration": 0.0937,
      "velocity": 88,
      "chip": "ym2612"
    },
    {
      "channel": 0,
      "note": 78,
      "start": 46.465,
      "duration": 0.091,
      "velocity": 88,
      "chip": "ym2612"
    },
    {
      "channel": 2,
      "note": 66,
      "start": 46.5937,
      "duration": 0.0959,
      "velocity": 88,
      "chip": "ym2612"
    },
    {
      "channel": 0,
      "note": 83,
      "start": 46.5961,
      "duration": 0.0932,
      "velocity": 88,
      "chip": "ym2612"
    },
    {
      "channel": 1,
      "note": 54,
      "start": 46.726,
      "duration": 0.2634,
      "velocity": 127,
      "chip": "ym2612"
    },
    {
      "channel": 3,
      "note": 42,
      "start": 46.7286,
      "duration": 0.0609,
      "velocity": 112,
      "chip": "ym2612"
    },
    {
      "channel": 2,
      "note": 76,
      "start": 46.7316,
      "duration": 0.0747,
      "velocity": 88,
      "chip": "ym2612"
    },
    {
      "channel": 0,
      "note": 85,
      "start": 46.734,
      "duration": 0.072,
      "velocity": 88,
      "chip": "ym2612"
    },
    {
      "channel": 2,
      "note": 66,
      "start": 46.8599,
      "duration": 0.0797,
      "velocity": 88,
      "chip": "ym2612"
    },
    {
      "channel": 0,
      "note": 78,
      "start": 46.8626,
      "duration": 0.0766,
      "velocity": 88,
      "chip": "ym2612"
    },
    {
      "channel": 1,
      "note": 42,
      "start": 46.9928,
      "duration": 0.0966,
      "velocity": 127,
      "chip": "ym2612"
    },
    {
      "channel": 2,
      "note": 71,
      "start": 46.996,
      "duration": 0.0771,
      "velocity": 88,
      "chip": "ym2612"
    },
    {
      "channel": 0,
      "note": 88,
      "start": 46.9984,
      "duration": 0.0744,
      "velocity": 88,
      "chip": "ym2612"
    },
    {
      "channel": 1,
      "note": 42,
      "start": 47.1258,
      "duration": 0.097,
      "velocity": 127,
      "chip": "ym2612"
    },
    {
      "channel": 2,
      "note": 73,
      "start": 47.1291,
      "duration": 0.0772,
      "velocity": 88,
      "chip": "ym2612"
    },
    {
      "channel": 0,
      "note": 78,
      "start": 47.1314,
      "duration": 0.0745,
      "velocity": 88,
      "chip": "ym2612"
    },
    {
      "channel": 1,
      "note": 54,
      "start": 47.2595,
      "duration": 0.1298,
      "velocity": 127,
      "chip": "ym2612"
    },
    {
      "channel": 5,
      "note": 42,
      "start": 47.2622,
      "duration": 0.1273,
      "velocity": 125,
      "chip": "ym2612"
    },
    {
      "channel": 2,
      "note": 66,
      "start": 47.2653,
      "duration": 0.0744,
      "velocity": 88,
      "chip": "ym2612"
    },
    {
      "channel": 0,
      "note": 83,
      "start": 47.2678,
      "duration": 0.0716,
      "velocity": 88,
      "chip": "ym2612"
    },
    {
      "channel": 2,
      "note": 71,
      "start": 47.3933,
      "duration": 0.0797,
      "velocity": 88,
      "chip": "ym2612"
    },
    {
      "channel": 0,
      "note": 85,
      "start": 47.3957,
      "duration": 0.077,
      "velocity": 88,
      "chip": "ym2612"
    },
    {
      "channel": 1,
      "note": 54,
      "start": 47.5092,
      "duration": 0.2636,
      "velocity": 127,
      "chip": "ym2612"
    },
    {
      "channel": 5,
      "note": 42,
      "start": 47.512,
      "duration": 0.1275,
      "velocity": 125,
      "chip": "ym2612"
    },
    {
      "channel": 2,
      "note": 73,
      "start": 47.515,
      "duration": 0.0914,
      "velocity": 88,
      "chip": "ym2612"
    },
    {
      "channel": 0,
      "note": 78,
      "start": 47.5174,
      "duration": 0.0885,
      "velocity": 88,
      "chip": "ym2612"
    },
    {
      "channel": 2,
      "note": 66,
      "start": 47.6433,
      "duration": 0.0963,
      "velocity": 88,
      "chip": "ym2612"
    },
    {
      "channel": 0,
      "note": 83,
      "start": 47.6457,
      "duration": 0.0936,
      "velocity": 88,
      "chip": "ym2612"
    },
    {
      "channel": 1,
      "note": 59,
      "start": 47.7762,
      "duration": 0.2631,
      "velocity": 127,
      "chip": "ym2612"
    },
    {
      "channel": 3,
      "note": 42,
      "start": 47.7789,
      "duration": 0.0606,
      "velocity": 112,
      "chip": "ym2612"
    },
    {
      "channel": 2,
      "note": 76,
      "start": 47.7818,
      "duration": 0.0746,
      "velocity": 88,
      "chip": "ym2612"
    },
    {
      "channel": 0,
      "note": 85,
      "start": 47.7842,
      "duration": 0.0718,
      "velocity": 88,
      "chip": "ym2612"
    },
    {
      "channel": 2,
      "note": 66,
      "start": 47.9098,
      "duration": 0.0798,
      "velocity": 88,
      "chip": "ym2612"
    },
    {
      "channel": 0,
      "note": 78,
      "start": 47.9122,
      "duration": 0.077,
      "velocity": 88,
      "chip": "ym2612"
    },
    {
      "channel": 1,
      "note": 57,
      "start": 48.0428,
      "duration": 0.13,
      "velocity": 127,
      "chip": "ym2612"
    },
    {
      "channel": 5,
      "note": 42,
      "start": 48.0456,
      "duration": 0.1275,
      "velocity": 125,
      "chip": "ym2612"
    },
    {
      "channel": 2,
      "note": 71,
      "start": 48.0487,
      "duration": 0.0744,
      "velocity": 88,
      "chip": "ym2612"
    },
    {
      "channel": 0,
      "note": 88,
      "start": 48.051,
      "duration": 0.0717,
      "velocity": 88,
      "chip": "ym2612"
    },
    {
      "channel": 1,
      "note": 55,
      "start": 48.1762,
      "duration": 0.0965,
      "velocity": 127,
      "chip": "ym2612"
    },
    {
      "channel": 2,
      "note": 69,
      "start": 48.1795,
      "duration": 0.0768,
      "velocity": 88,
      "chip": "ym2612"
    },
    {
      "channel": 0,
      "note": 78,
      "start": 48.1818,
      "duration": 0.0742,
      "velocity": 88,
      "chip": "ym2612"
    },
    {
      "channel": 1,
      "note": 42,
      "start": 48.309,
      "duration": 0.097,
      "velocity": 127,
      "chip": "ym2612"
    },
    {
      "channel": 5,
      "note": 42,
      "start": 48.3118,
      "duration": 0.1277,
      "velocity": 125,
      "chip": "ym2612"
    },
    {
      "channel": 2,
      "note": 66,
      "start": 48.3149,
      "duration": 0.0748,
      "velocity": 88,
      "chip": "ym2612"
    },
    {
      "channel": 0,
      "note": 83,
      "start": 48.3173,
      "duration": 0.072,
      "velocity": 88,
      "chip": "ym2612"
    },
    {
      "channel": 1,
      "note": 42,
      "start": 48.4426,
      "duration": 0.0968,
      "velocity": 127,
      "chip": "ym2612"
    },
    {
      "channel": 2,
      "note": 71,
      "start": 48.4458,
      "duration": 0.0772,
      "velocity": 88,
      "chip": "ym2612"
    },
    {
      "channel": 0,
      "note": 81,
      "start": 48.4482,
      "duration": 0.0746,
      "velocity": 88,
      "chip": "ym2612"
    },
    {
      "channel": 1,
      "note": 54,
      "start": 48.5594,
      "duration": 0.1299,
      "velocity": 127,
      "chip": "ym2612"
    },
    {
      "channel": 2,
      "note": 73,
      "start": 48.5627,
      "duration": 0.0937,
      "velocity": 88,
      "chip": "ym2612"
    },
    {
      "channel": 0,
      "note": 78,
      "start": 48.565,
      "duration": 0.091,
      "velocity": 88,
      "chip": "ym2612"
    },
    {
      "channel": 2,
      "note": 66,
      "start": 48.6937,
      "duration": 0.096,
      "velocity": 88,
      "chip": "ym2612"
    },
    {
      "channel": 0,
      "note": 83,
      "start": 48.6961,
      "duration": 0.0933,
      "velocity": 88,
      "chip": "ym2612"
    },
    {
      "channel": 1,
      "note": 54,
      "start": 48.8259,
      "duration": 0.2635,
      "velocity": 127,
      "chip": "ym2612"
    },
    {
      "channel": 3,
      "note": 42,
      "start": 48.8286,
      "duration": 0.0608,
      "velocity": 112,
      "chip": "ym2612"
    },
    {
      "channel": 2,
      "note": 76,
      "start": 48.8315,
      "duration": 0.0748,
      "velocity": 88,
      "chip": "ym2612"
    },
    {
      "channel": 0,
      "note": 85,
      "start": 48.8339,
      "duration": 0.0721,
      "velocity": 88,
      "chip": "ym2612"
    },
    {
      "channel": 2,
      "note": 66,
      "start": 48.9598,
      "duration": 0.0798,
      "velocity": 88,
      "chip": "ym2612"
    },
    {
      "channel": 0,
      "note": 78,
      "start": 48.9625,
      "duration": 0.0767,
      "velocity": 88,
      "chip": "ym2612"
    },
    {
      "channel": 1,
      "note": 42,
      "start": 49.0929,
      "duration": 0.1132,
      "velocity": 127,
      "chip": "ym2612"
    },
    {
      "channel": 2,
      "note": 71,
      "start": 49.0961,
      "duration": 0.077,
      "velocity": 88,
      "chip": "ym2612"
    },
    {
      "channel": 0,
      "note": 88,
      "start": 49.0985,
      "duration": 0.0742,
      "velocity": 88,
      "chip": "ym2612"
    },
    {
      "channel": 1,
      "note": 42,
      "start": 49.2262,
      "duration": 0.0965,
      "velocity": 127,
      "chip": "ym2612"
    },
    {
      "channel": 2,
      "note": 73,
      "start": 49.2294,
      "duration": 0.0769,
      "velocity": 88,
      "chip": "ym2612"
    },
    {
      "channel": 0,
      "note": 78,
      "start": 49.2318,
      "duration": 0.0742,
      "velocity": 88,
      "chip": "ym2612"
    },
    {
      "channel": 1,
      "note": 54,
      "start": 49.3592,
      "duration": 0.0969,
      "velocity": 127,
      "chip": "ym2612"
    },
    {
      "channel": 5,
      "note": 42,
      "start": 49.362,
      "duration": 0.1275,
      "velocity": 125,
      "chip": "ym2612"
    },
    {
      "channel": 2,
      "note": 66,
      "start": 49.365,
      "duration": 0.0747,
      "velocity": 88,
      "chip": "ym2612"
    },
    {
      "channel": 0,
      "note": 83,
      "start": 49.3674,
      "duration": 0.0719,
      "velocity": 88,
      "chip": "ym2612"
    },
    {
      "channel": 2,
      "note": 71,
      "start": 49.4933,
      "duration": 0.0797,
      "velocity": 88,
      "chip": "ym2612"
    },
    {
      "channel": 0,
      "note": 85,
      "start": 49.4957,
      "duration": 0.077,
      "velocity": 88,
      "chip": "ym2612"
    },
    {
      "channel": 1,
      "note": 54,
      "start": 49.6093,
      "duration": 0.2635,
      "velocity": 127,
      "chip": "ym2612"
    },
    {
      "channel": 5,
      "note": 42,
      "start": 49.6121,
      "duration": 0.1274,
      "velocity": 125,
      "chip": "ym2612"
    },
    {
      "channel": 2,
      "note": 73,
      "start": 49.6151,
      "duration": 0.0912,
      "velocity": 88,
      "chip": "ym2612"
    },
    {
      "channel": 0,
      "note": 78,
      "start": 49.6176,
      "duration": 0.0884,
      "velocity": 88,
      "chip": "ym2612"
    },
    {
      "channel": 2,
      "note": 66,
      "start": 49.7433,
      "duration": 0.0963,
      "velocity": 88,
      "chip": "ym2612"
    },
    {
      "channel": 0,
      "note": 83,
      "start": 49.7457,
      "duration": 0.0936,
      "velocity": 88,
      "chip": "ym2612"
    },
    {
      "channel": 1,
      "note": 42,
      "start": 49.8762,
      "duration": 0.1298,
      "velocity": 127,
      "chip": "ym2612"
    },
    {
      "channel": 3,
      "note": 42,
      "start": 49.8788,
      "duration": 0.0606,
      "velocity": 112,
      "chip": "ym2612"
    },
    {
      "channel": 2,
      "note": 76,
      "start": 49.8818,
      "duration": 0.0745,
      "velocity": 88,
      "chip": "ym2612"
    },
    {
      "channel": 0,
      "note": 85,
      "start": 49.8842,
      "duration": 0.0717,
      "velocity": 88,
      "chip": "ym2612"
    },
    {
      "channel": 1,
      "note": 54,
      "start": 50.0091,
      "duration": 0.1302,
      "velocity": 127,
      "chip": "ym2612"
    },
    {
      "channel": 2,
      "note": 66,
      "start": 50.0124,
      "duration": 0.0773,
      "velocity": 88,
      "chip": "ym2612"
    },
    {
      "channel": 0,
      "note": 78,
      "start": 50.0147,
      "duration": 0.0746,
      "velocity": 88,
      "chip": "ym2612"
    },
    {
      "channel": 1,
      "note": 55,
      "start": 50.1427,
      "duration": 0.2134,
      "velocity": 127,
      "chip": "ym2612"
    },
    {
      "channel": 2,
      "note": 76,
      "start": 50.146,
      "duration": 0.077,
      "velocity": 88,
      "chip": "ym2612"
    },
    {
      "channel": 0,
      "note": 88,
      "start": 50.1483,
      "duration": 0.0744,
      "velocity": 88,
      "chip": "ym2612"
    },
    {
      "channel": 2,
      "note": 78,
      "start": 50.2767,
      "duration": 0.0797,
      "velocity": 88,
      "chip": "ym2612"
    },
    {
      "channel": 0,
      "note": 78,
      "start": 50.279,
      "duration": 0.077,
      "velocity": 88,
      "chip": "ym2612"
    },
    {
      "channel": 1,
      "note": 42,
      "start": 50.4095,
      "duration": 0.0965,
      "velocity": 127,
      "chip": "ym2612"
    },
    {
      "channel": 5,
      "note": 42,
      "start": 50.4126,
      "duration": 0.1268,
      "velocity": 125,
      "chip": "ym2612"
    },
    {
      "channel": 2,
      "note": 66,
      "start": 50.4156,
      "duration": 0.0739,
      "velocity": 88,
      "chip": "ym2612"
    },
    {
      "channel": 0,
      "note": 88,
      "start": 50.4181,
      "duration": 0.0712,
      "velocity": 88,
      "chip": "ym2612"
    },
    {
      "channel": 1,
      "note": 42,
      "start": 50.5425,
      "duration": 0.0969,
      "velocity": 127,
      "chip": "ym2612"
    },
    {
      "channel": 2,
      "note": 71,
      "start": 50.5457,
      "duration": 0.0774,
      "velocity": 88,
      "chip": "ym2612"
    },
    {
      "channel": 0,
      "note": 90,
      "start": 50.5481,
      "duration": 0.0747,
      "velocity": 88,
      "chip": "ym2612"
    },
    {
      "channel": 1,
      "note": 54,
      "start": 50.6599,
      "duration": 0.1295,
      "velocity": 127,
      "chip": "ym2612"
    },
    {
      "channel": 2,
      "note": 73,
      "start": 50.663,
      "duration": 0.0933,
      "velocity": 88,
      "chip": "ym2612"
    },
    {
      "channel": 0,
      "note": 78,
      "start": 50.6655,
      "duration": 0.0906,
      "velocity": 88,
      "chip": "ym2612"
    },
    {
      "channel": 2,
      "note": 66,
      "start": 50.7937,
      "duration": 0.096,
      "velocity": 88,
      "chip": "ym2612"
    },
    {
      "channel": 0,
      "note": 83,
      "start": 50.7961,
      "duration": 0.0933,
      "velocity": 88,
      "chip": "ym2612"
    },
    {
      "channel": 1,
      "note": 54,
      "start": 50.926,
      "duration": 0.2632,
      "velocity": 127,
      "chip": "ym2612"
    },
    {
      "channel": 3,
      "note": 42,
      "start": 50.9286,
      "duration": 0.0607,
      "velocity": 112,
      "chip": "ym2612"
    },
    {
      "channel": 2,
      "note": 76,
      "start": 50.9316,
      "duration": 0.0747,
      "velocity": 88,
      "chip": "ym2612"
    },
    {
      "channel": 0,
      "note": 85,
      "start": 50.934,
      "duration": 0.072,
      "velocity": 88,
      "chip": "ym2612"
    },
    {
      "channel": 2,
      "note": 66,
      "start": 51.0599,
      "duration": 0.0798,
      "velocity": 88,
      "chip": "ym2612"
    },
    {
      "channel": 0,
      "note": 78,
      "start": 51.0627,
      "duration": 0.0766,
      "velocity": 88,
      "chip": "ym2612"
    },
    {
      "channel": 1,
      "note": 42,
      "start": 51.1927,
      "duration": 0.1133,
      "velocity": 127,
      "chip": "ym2612"
    },
    {
      "channel": 2,
      "note": 71,
      "start": 51.196,
      "duration": 0.077,
      "velocity": 88,
      "chip": "ym2612"
    },
    {
      "channel": 0,
      "note": 88,
      "start": 51.1983,
      "duration": 0.0744,
      "velocity": 88,
      "chip": "ym2612"
    },
    {
      "channel": 1,
      "note": 42,
      "start": 51.3258,
      "duration": 0.097,
      "velocity": 127,
      "chip": "ym2612"
    },
    {
      "channel": 2,
      "note": 73,
      "start": 51.329,
      "duration": 0.0773,
      "velocity": 88,
      "chip": "ym2612"
    },
    {
      "channel": 0,
      "note": 78,
      "start": 51.3314,
      "duration": 0.0746,
      "velocity": 88,
      "chip": "ym2612"
    },
    {
      "channel": 1,
      "note": 54,
      "start": 51.4594,
      "duration": 0.13,
      "velocity": 127,
      "chip": "ym2612"
    },
    {
      "channel": 5,
      "note": 42,
      "start": 51.4622,
      "duration": 0.1275,
      "velocity": 125,
      "chip": "ym2612"
    },
    {
      "channel": 2,
      "note": 66,
      "start": 51.4652,
      "duration": 0.0744,
      "velocity": 88,
      "chip": "ym2612"
    },
    {
      "channel": 0,
      "note": 83,
      "start": 51.4676,
      "duration": 0.0716,
      "velocity": 88,
      "chip": "ym2612"
    },
    {
      "channel": 2,
      "note": 71,
      "start": 51.5934,
      "duration": 0.0795,
      "velocity": 88,
      "chip": "ym2612"
    },
    {
      "channel": 0,
      "note": 85,
      "start": 51.5958,
      "duration": 0.0769,
      "velocity": 88,
      "chip": "ym2612"
    },
    {
      "channel": 1,
      "note": 54,
      "start": 51.7093,
      "duration": 0.2635,
      "velocity": 127,
      "chip": "ym2612"
    },
    {
      "channel": 5,
      "note": 42,
      "start": 51.7121,
      "duration": 0.1274,
      "velocity": 125,
      "chip": "ym2612"
    },
    {
      "channel": 2,
      "note": 73,
      "start": 51.7151,
      "duration": 0.0912,
      "velocity": 88,
      "chip": "ym2612"
    },
    {
      "channel": 0,
      "note": 78,
      "start": 51.7176,
      "duration": 0.0884,
      "velocity": 88,
      "chip": "ym2612"
    },
    {
      "channel": 2,
      "note": 66,
      "start": 51.8433,
      "duration": 0.0963,
      "velocity": 88,
      "chip": "ym2612"
    },
    {
      "channel": 0,
      "note": 83,
      "start": 51.8457,
      "duration": 0.0936,
      "velocity": 88,
      "chip": "ym2612"
    },
    {
      "channel": 1,
      "note": 54,
      "start": 51.9766,
      "duration": 0.1295,
      "velocity": 127,
      "chip": "ym2612"
    },
    {
      "channel": 3,
      "note": 42,
      "start": 51.9795,
      "duration": 0.0599,
      "velocity": 112,
      "chip": "ym2612"
    },
    {
      "channel": 2,
      "note": 76,
      "start": 51.9824,
      "duration": 0.0905,
      "velocity": 88,
      "chip": "ym2612"
    },
    {
      "channel": 0,
      "note": 85,
      "start": 51.9849,
      "duration": 0.0878,
      "velocity": 88,
      "chip": "ym2612"
    },
    {
      "channel": 1,
      "note": 53,
      "start": 52.1092,
      "duration": 0.13,
      "velocity": 127,
      "chip": "ym2612"
    },
    {
      "channel": 2,
      "note": 66,
      "start": 52.1124,
      "duration": 0.0772,
      "velocity": 88,
      "chip": "ym2612"
    },
    {
      "channel": 0,
      "note": 78,
      "start": 52.1148,
      "duration": 0.0745,
      "velocity": 88,
      "chip": "ym2612"
    },
    {
      "channel": 1,
      "note": 52,
      "start": 52.2424,
      "duration": 0.1304,
      "velocity": 127,
      "chip": "ym2612"
    },
    {
      "channel": 5,
      "note": 42,
      "start": 52.2454,
      "duration": 0.0608,
      "velocity": 125,
      "chip": "ym2612"
    },
    {
      "channel": 2,
      "note": 71,
      "start": 52.2485,
      "duration": 0.0746,
      "velocity": 88,
      "chip": "ym2612"
    },
    {
      "channel": 0,
      "note": 88,
      "start": 52.2508,
      "duration": 0.0719,
      "velocity": 88,
      "chip": "ym2612"
    },
    {
      "channel": 1,
      "note": 51,
      "start": 52.3761,
      "duration": 0.0966,
      "velocity": 127,
      "chip": "ym2612"
    },
    {
      "channel": 5,
      "note": 42,
      "start": 52.3787,
      "duration": 0.0608,
      "velocity": 125,
      "chip": "ym2612"
    },
    {
      "channel": 2,
      "note": 69,
      "start": 52.3821,
      "duration": 0.0742,
      "velocity": 88,
      "chip": "ym2612"
    },
    {
      "channel": 0,
      "note": 78,
      "start": 52.3848,
      "duration": 0.0712,
      "velocity": 88,
      "chip": "ym2612"
    },
    {
      "channel": 4,
      "note": 59,
      "start": 52.5092,
      "duration": 0.097,
      "velocity": 78,
      "chip": "ym2612"
    },
    {
      "channel": 1,
      "note": 47,
      "start": 52.5118,
      "duration": 0.0941,
      "velocity": 127,
      "chip": "ym2612"
    },
    {
      "channel": 5,
      "note": 42,
      "start": 52.5147,
      "duration": 0.1248,
      "velocity": 125,
      "chip": "ym2612"
    },
    {
      "channel": 4,
      "note": 59,
      "start": 52.6422,
      "duration": 0.0973,
      "velocity": 78,
      "chip": "ym2612"
    },
    {
      "channel": 1,
      "note": 47,
      "start": 52.6449,
      "duration": 0.0944,
      "velocity": 127,
      "chip": "ym2612"
    },
    {
      "channel": 4,
      "note": 71,
      "start": 52.776,
      "duration": 0.1135,
      "velocity": 78,
      "chip": "ym2612"
    },
    {
      "channel": 3,
      "note": 47,
      "start": 52.779,
      "duration": 0.0939,
      "velocity": 90,
      "chip": "ym2612"
    },
    {
      "channel": 1,
      "note": 59,
      "start": 52.7818,
      "duration": 0.1075,
      "velocity": 127,
      "chip": "ym2612"
    },
    {
      "channel": 3,
      "note": 47,
      "start": 52.8924,
      "duration": 0.1137,
      "velocity": 90,
      "chip": "ym2612"
    },
    {
      "channel": 4,
      "note": 71,
      "start": 53.0257,
      "duration": 0.2639,
      "velocity": 78,
      "chip": "ym2612"
    },
    {
      "channel": 3,
      "note": 59,
      "start": 53.0286,
      "duration": 0.1276,
      "velocity": 90,
      "chip": "ym2612"
    },
    {
      "channel": 1,
      "note": 59,
      "start": 53.0312,
      "duration": 0.2581,
      "velocity": 127,
      "chip": "ym2612"
    },
    {
      "channel": 2,
      "note": 40,
      "start": 53.0347,
      "duration": 0.1048,
      "velocity": 127,
      "chip": "ym2612"
    },
    {
      "channel": 4,
      "note": 59,
      "start": 53.2931,
      "duration": 0.1132,
      "velocity": 78,
      "chip": "ym2612"
    },
    {
      "channel": 3,
      "note": 59,
      "start": 53.2957,
      "duration": 0.2604,
      "velocity": 90,
      "chip": "ym2612"
    },
    {
      "channel": 1,
      "note": 47,
      "start": 53.2986,
      "duration": 0.1074,
      "velocity": 127,
      "chip": "ym2612"
    },
    {
      "channel": 4,
      "note": 59,
      "start": 53.4256,
      "duration": 0.0975,
      "velocity": 78,
      "chip": "ym2612"
    },
    {
      "channel": 1,
      "note": 47,
      "start": 53.4283,
      "duration": 0.0946,
      "velocity": 127,
      "chip": "ym2612"
    },
    {
      "channel": 4,
      "note": 71,
      "start": 53.5592,
      "duration": 0.0971,
      "velocity": 78,
      "chip": "ym2612"
    },
    {
      "channel": 3,
      "note": 47,
      "start": 53.5624,
      "duration": 0.0938,
      "velocity": 90,
      "chip": "ym2612"
    },
    {
      "channel": 1,
      "note": 59,
      "start": 53.5654,
      "duration": 0.0907,
      "velocity": 127,
      "chip": "ym2612"
    },
    {
      "channel": 5,
      "note": 42,
      "start": 53.5681,
      "duration": 0.1214,
      "velocity": 125,
      "chip": "ym2612"
    },
    {
      "channel": 3,
      "note": 47,
      "start": 53.6924,
      "duration": 0.097,
      "velocity": 90,
      "chip": "ym2612"
    },
    {
      "channel": 4,
      "note": 71,
      "start": 53.8257,
      "duration": 0.2473,
      "velocity": 78,
      "chip": "ym2612"
    },
    {
      "channel": 3,
      "note": 59,
      "start": 53.8284,
      "duration": 0.0944,
      "velocity": 90,
      "chip": "ym2612"
    },
    {
      "channel": 1,
      "note": 59,
      "start": 53.8311,
      "duration": 0.2417,
      "velocity": 127,
      "chip": "ym2612"
    },
    {
      "channel": 5,
      "note": 42,
      "start": 53.8338,
      "duration": 0.1057,
      "velocity": 125,
      "chip": "ym2612"
    },
    {
      "channel": 4,
      "note": 59,
      "start": 54.0761,
      "duration": 0.1301,
      "velocity": 78,
      "chip": "ym2612"
    },
    {
      "channel": 3,
      "note": 59,
      "start": 54.0788,
      "duration": 0.2606,
      "velocity": 90,
      "chip": "ym2612"
    },
    {
      "channel": 1,
      "note": 47,
      "start": 54.0817,
      "duration": 0.1244,
      "velocity": 127,
      "chip": "ym2612"
    },
    {
      "channel": 2,
      "note": 40,
      "start": 54.0846,
      "duration": 0.1049,
      "velocity": 127,
      "chip": "ym2612"
    },
    {
      "channel": 4,
      "note": 71,
      "start": 54.209,
      "duration": 0.1305,
      "velocity": 78,
      "chip": "ym2612"
    },
    {
      "channel": 1,
      "note": 59,
      "start": 54.2117,
      "duration": 0.1276,
      "velocity": 127,
      "chip": "ym2612"
    },
    {
      "channel": 4,
      "note": 72,
      "start": 54.3427,
      "duration": 0.2134,
      "velocity": 78,
      "chip": "ym2612"
    },
    {
      "channel": 3,
      "note": 47,
      "start": 54.3456,
      "duration": 0.1272,
      "velocity": 90,
      "chip": "ym2612"
    },
    {
      "channel": 1,
      "note": 60,
      "start": 54.3484,
      "duration": 0.2076,
      "velocity": 127,
      "chip": "ym2612"
    },
    {
      "channel": 3,
      "note": 59,
      "start": 54.4757,
      "duration": 0.1303,
      "velocity": 90,
      "chip": "ym2612"
    },
    {
      "channel": 4,
      "note": 59,
      "start": 54.6092,
      "duration": 0.0969,
      "velocity": 78,
      "chip": "ym2612"
    },
    {
      "channel": 3,
      "note": 60,
      "start": 54.6121,
      "duration": 0.2108,
      "velocity": 90,
      "chip": "ym2612"
    },
    {
      "channel": 1,
      "note": 47,
      "start": 54.615,
      "duration": 0.091,
      "velocity": 127,
      "chip": "ym2612"
    },
    {
      "channel": 5,
      "note": 42,
      "start": 54.618,
      "duration": 0.1215,
      "velocity": 125,
      "chip": "ym2612"
    },
    {
      "channel": 4,
      "note": 59,
      "start": 54.7426,
      "duration": 0.0969,
      "velocity": 78,
      "chip": "ym2612"
    },
    {
      "channel": 1,
      "note": 47,
      "start": 54.7453,
      "duration": 0.094,
      "velocity": 127,
      "chip": "ym2612"
    },
    {
      "channel": 4,
      "note": 71,
      "start": 54.876,
      "duration": 0.1135,
      "velocity": 78,
      "chip": "ym2612"
    },
    {
      "channel": 3,
      "note": 47,
      "start": 54.8788,
      "duration": 0.094,
      "velocity": 90,
      "chip": "ym2612"
    },
    {
      "channel": 1,
      "note": 59,
      "start": 54.882,
      "duration": 0.1073,
      "velocity": 127,
      "chip": "ym2612"
    },
    {
      "channel": 3,
      "note": 47,
      "start": 54.9929,
      "duration": 0.1131,
      "velocity": 90,
      "chip": "ym2612"
    },
    {
      "channel": 4,
      "note": 71,
      "start": 55.1257,
      "duration": 0.2639,
      "velocity": 78,
      "chip": "ym2612"
    },
    {
      "channel": 3,
      "note": 59,
      "start": 55.1285,
      "duration": 0.1276,
      "velocity": 90,
      "chip": "ym2612"
    },
    {
      "channel": 1,
      "note": 59,
      "start": 55.1312,
      "duration": 0.2581,
      "velocity": 127,
      "chip": "ym2612"
    },
    {
      "channel": 2,
      "note": 40,
      "start": 55.1342,
      "duration": 0.1053,
      "velocity": 127,
      "chip": "ym2612"
    },
    {
      "channel": 4,
      "note": 59,
      "start": 55.3927,
      "duration": 0.1135,
      "velocity": 78,
      "chip": "ym2612"
    },
    {
      "channel": 3,
      "note": 59,
      "start": 55.3954,
      "duration": 0.2607,
      "velocity": 90,
      "chip": "ym2612"
    },
    {
      "channel": 1,
      "note": 47,
      "start": 55.3983,
      "duration": 0.1077,
      "velocity": 127,
      "chip": "ym2612"
    },
    {
      "channel": 4,
      "note": 59,
      "start": 55.5255,
      "duration": 0.0975,
      "velocity": 78,
      "chip": "ym2612"
    },
    {
      "channel": 1,
      "note": 47,
      "start": 55.5282,
      "duration": 0.0946,
      "velocity": 127,
      "chip": "ym2612"
    },
    {
      "channel": 4,
      "note": 71,
      "start": 55.6592,
      "duration": 0.1303,
      "velocity": 78,
      "chip": "ym2612"
    },
    {
      "channel": 3,
      "note": 47,
      "start": 55.6621,
      "duration": 0.094,
      "velocity": 90,
      "chip": "ym2612"
    },
    {
      "channel": 1,
      "note": 59,
      "start": 55.665,
      "duration": 0.1244,
      "velocity": 127,
      "chip": "ym2612"
    },
    {
      "channel": 5,
      "note": 42,
      "start": 55.6676,
      "duration": 0.1221,
      "velocity": 125,
      "chip": "ym2612"
    },
    {
      "channel": 3,
      "note": 47,
      "start": 55.7925,
      "duration": 0.0969,
      "velocity": 90,
      "chip": "ym2612"
    },
    {
      "channel": 4,
      "note": 71,
      "start": 55.9257,
      "duration": 0.2472,
      "velocity": 78,
      "chip": "ym2612"
    },
    {
      "channel": 3,
      "note": 59,
      "start": 55.9286,
      "duration": 0.1109,
      "velocity": 90,
      "chip": "ym2612"
    },
    {
      "channel": 1,
      "note": 59,
      "start": 55.9312,
      "duration": 0.2415,
      "velocity": 127,
      "chip": "ym2612"
    },
    {
      "channel": 5,
      "note": 42,
      "start": 55.934,
      "duration": 0.1057,
      "velocity": 125,
      "chip": "ym2612"
    },
    {
      "channel": 4,
      "note": 76,
      "start": 56.1758,
      "duration": 0.2639,
      "velocity": 78,
      "chip": "ym2612"
    },
    {
      "channel": 3,
      "note": 59,
      "start": 56.1784,
      "duration": 0.2611,
      "velocity": 90,
      "chip": "ym2612"
    },
    {
      "channel": 1,
      "note": 64,
      "start": 56.1809,
      "duration": 0.2585,
      "velocity": 127,
      "chip": "ym2612"
    },
    {
      "channel": 2,
      "note": 40,
      "start": 56.1842,
      "duration": 0.1053,
      "velocity": 127,
      "chip": "ym2612"
    },
    {
      "channel": 4,
      "note": 74,
      "start": 56.4432,
      "duration": 0.1298,
      "velocity": 78,
      "chip": "ym2612"
    },
    {
      "channel": 3,
      "note": 64,
      "start": 56.4457,
      "duration": 0.2603,
      "velocity": 90,
      "chip": "ym2612"
    },
    {
      "channel": 1,
      "note": 62,
      "start": 56.4489,
      "duration": 0.1239,
      "velocity": 127,
      "chip": "ym2612"
    },
    {
      "channel": 5,
      "note": 42,
      "start": 56.4517,
      "duration": 0.1215,
      "velocity": 125,
      "chip": "ym2612"
    },
    {
      "channel": 4,
      "note": 72,
      "start": 56.5761,
      "duration": 0.1134,
      "velocity": 78,
      "chip": "ym2612"
    },
    {
      "channel": 1,
      "note": 60,
      "start": 56.579,
      "duration": 0.1104,
      "velocity": 127,
      "chip": "ym2612"
    },
    {
      "channel": 4,
      "note": 54,
      "start": 56.7089,
      "duration": 0.0973,
      "velocity": 78,
      "chip": "ym2612"
    },
    {
      "channel": 3,
      "note": 64,
      "start": 56.7121,
      "duration": 0.0155,
      "velocity": 90,
      "chip": "ym2612"
    },
    {
      "channel": 0,
      "note": 60,
      "start": 56.7146,
      "duration": 0.0092,
      "velocity": 90,
      "chip": "ym2612"
    },
    {
      "channel": 2,
      "note": 62,
      "start": 56.7173,
      "duration": 0.1223,
      "velocity": 90,
      "chip": "ym2612"
    },
    {
      "channel": 5,
      "note": 42,
      "start": 56.7202,
      "duration": 0.0861,
      "velocity": 90,
      "chip": "ym2612"
    },
    {
      "channel": 1,
      "note": 42,
      "start": 56.7228,
      "duration": 0.0832,
      "velocity": 127,
      "chip": "ym2612"
    },
    {
      "channel": 0,
      "note": 42,
      "start": 56.7256,
      "duration": 0.1137,
      "velocity": 125,
      "chip": "ym2612"
    },
    {
      "channel": 4,
      "note": 54,
      "start": 56.8424,
      "duration": 0.0971,
      "velocity": 78,
      "chip": "ym2612"
    },
    {
      "channel": 3,
      "note": 60,
      "start": 56.8452,
      "duration": 0.1276,
      "velocity": 90,
      "chip": "ym2612"
    },
    {
      "channel": 5,
      "note": 42,
      "start": 56.848,
      "duration": 0.0916,
      "velocity": 90,
      "chip": "ym2612"
    },
    {
      "channel": 1,
      "note": 42,
      "start": 56.8506,
      "duration": 0.0887,
      "velocity": 127,
      "chip": "ym2612"
    },
    {
      "channel": 4,
      "note": 66,
      "start": 56.976,
      "duration": 0.1135,
      "velocity": 78,
      "chip": "ym2612"
    },
    {
      "channel": 3,
      "note": 54,
      "start": 56.9792,
      "duration": 0.1102,
      "velocity": 90,
      "chip": "ym2612"
    },
    {
      "channel": 1,
      "note": 54,
      "start": 56.9821,
      "duration": 0.1073,
      "velocity": 127,
      "chip": "ym2612"
    },
    {
      "channel": 4,
      "note": 66,
      "start": 57.2257,
      "duration": 0.2639,
      "velocity": 78,
      "chip": "ym2612"
    },
    {
      "channel": 3,
      "note": 54,
      "start": 57.2284,
      "duration": 0.2611,
      "velocity": 90,
      "chip": "ym2612"
    },
    {
      "channel": 1,
      "note": 54,
      "start": 57.231,
      "duration": 0.2583,
      "velocity": 127,
      "chip": "ym2612"
    },
    {
      "channel": 0,
      "note": 42,
      "start": 57.234,
      "duration": 0.0553,
      "velocity": 112,
      "chip": "ym2612"
    },
    {
      "channel": 4,
      "note": 54,
      "start": 57.4928,
      "duration": 0.1134,
      "velocity": 78,
      "chip": "ym2612"
    },
    {
      "channel": 3,
      "note": 42,
      "start": 57.4956,
      "duration": 0.1105,
      "velocity": 90,
      "chip": "ym2612"
    },
    {
      "channel": 1,
      "note": 42,
      "start": 57.4985,
      "duration": 0.1075,
      "velocity": 127,
      "chip": "ym2612"
    },
    {
      "channel": 4,
      "note": 54,
      "start": 57.6256,
      "duration": 0.114,
      "velocity": 78,
      "chip": "ym2612"
    },
    {
      "channel": 3,
      "note": 42,
      "start": 57.628,
      "duration": 0.1114,
      "velocity": 90,
      "chip": "ym2612"
    },
    {
      "channel": 1,
      "note": 42,
      "start": 57.6306,
      "duration": 0.1087,
      "velocity": 127,
      "chip": "ym2612"
    },
    {
      "channel": 4,
      "note": 66,
      "start": 57.7594,
      "duration": 0.0969,
      "velocity": 78,
      "chip": "ym2612"
    },
    {
      "channel": 3,
      "note": 54,
      "start": 57.762,
      "duration": 0.0941,
      "velocity": 90,
      "chip": "ym2612"
    },
    {
      "channel": 1,
      "note": 54,
      "start": 57.7647,
      "duration": 0.0913,
      "velocity": 127,
      "chip": "ym2612"
    },
    {
      "channel": 2,
      "note": 42,
      "start": 57.7676,
      "duration": 0.122,
      "velocity": 125,
      "chip": "ym2612"
    },
    {
      "channel": 4,
      "note": 66,
      "start": 58.0257,
      "duration": 0.2473,
      "velocity": 78,
      "chip": "ym2612"
    },
    {
      "channel": 3,
      "note": 54,
      "start": 58.0284,
      "duration": 0.2445,
      "velocity": 90,
      "chip": "ym2612"
    },
    {
      "channel": 1,
      "note": 54,
      "start": 58.0314,
      "duration": 0.2413,
      "velocity": 127,
      "chip": "ym2612"
    },
    {
      "channel": 2,
      "note": 42,
      "start": 58.0342,
      "duration": 0.1053,
      "velocity": 125,
      "chip": "ym2612"
    },
    {
      "channel": 4,
      "note": 54,
      "start": 58.2761,
      "duration": 0.1302,
      "velocity": 78,
      "chip": "ym2612"
    },
    {
      "channel": 3,
      "note": 42,
      "start": 58.279,
      "duration": 0.1272,
      "velocity": 90,
      "chip": "ym2612"
    },
    {
      "channel": 1,
      "note": 42,
      "start": 58.2819,
      "duration": 0.1241,
      "velocity": 127,
      "chip": "ym2612"
    },
    {
      "channel": 0,
      "note": 42,
      "start": 58.2844,
      "duration": 0.055,
      "velocity": 112,
      "chip": "ym2612"
    },
    {
      "channel": 4,
      "note": 66,
      "start": 58.4091,
      "duration": 0.1305,
      "velocity": 78,
      "chip": "ym2612"
    },
    {
      "channel": 3,
      "note": 54,
      "start": 58.4116,
      "duration": 0.1279,
      "velocity": 90,
      "chip": "ym2612"
    },
    {
      "channel": 1,
      "note": 54,
      "start": 58.4141,
      "duration": 0.1252,
      "velocity": 127,
      "chip": "ym2612"
    },
    {
      "channel": 4,
      "note": 67,
      "start": 58.5427,
      "duration": 0.2135,
      "velocity": 78,
      "chip": "ym2612"
    },
    {
      "channel": 3,
      "note": 55,
      "start": 58.546,
      "duration": 0.2101,
      "velocity": 90,
      "chip": "ym2612"
    },
    {
      "channel": 1,
      "note": 55,
      "start": 58.5489,
      "duration": 0.2071,
      "velocity": 127,
      "chip": "ym2612"
    },
    {
      "channel": 4,
      "note": 54,
      "start": 58.8092,
      "duration": 0.0971,
      "velocity": 78,
      "chip": "ym2612"
    },
    {
      "channel": 3,
      "note": 42,
      "start": 58.812,
      "duration": 0.0941,
      "velocity": 90,
      "chip": "ym2612"
    },
    {
      "channel": 1,
      "note": 42,
      "start": 58.815,
      "duration": 0.091,
      "velocity": 127,
      "chip": "ym2612"
    },
    {
      "channel": 2,
      "note": 42,
      "start": 58.8178,
      "duration": 0.1218,
      "velocity": 125,
      "chip": "ym2612"
    },
    {
      "channel": 4,
      "note": 54,
      "start": 58.9424,
      "duration": 0.0972,
      "velocity": 78,
      "chip": "ym2612"
    },
    {
      "channel": 3,
      "note": 42,
      "start": 58.9449,
      "duration": 0.0946,
      "velocity": 90,
      "chip": "ym2612"
    },
    {
      "channel": 1,
      "note": 42,
      "start": 58.9474,
      "duration": 0.0919,
      "velocity": 127,
      "chip": "ym2612"
    },
    {
      "channel": 4,
      "note": 66,
      "start": 59.0763,
      "duration": 0.1134,
      "velocity": 78,
      "chip": "ym2612"
    },
    {
      "channel": 3,
      "note": 54,
      "start": 59.0791,
      "duration": 0.1104,
      "velocity": 90,
      "chip": "ym2612"
    },
    {
      "channel": 1,
      "note": 54,
      "start": 59.082,
      "duration": 0.1074,
      "velocity": 127,
      "chip": "ym2612"
    },
    {
      "channel": 4,
      "note": 66,
      "start": 59.3257,
      "duration": 0.2639,
      "velocity": 78,
      "chip": "ym2612"
    },
    {
      "channel": 3,
      "note": 54,
      "start": 59.3284,
      "duration": 0.2611,
      "velocity": 90,
      "chip": "ym2612"
    },
    {
      "channel": 1,
      "note": 54,
      "start": 59.3314,
      "duration": 0.2578,
      "velocity": 127,
      "chip": "ym2612"
    },
    {
      "channel": 0,
      "note": 42,
      "start": 59.3339,
      "duration": 0.0553,
      "velocity": 112,
      "chip": "ym2612"
    },
    {
      "channel": 4,
      "note": 54,
      "start": 59.5927,
      "duration": 0.1135,
      "velocity": 78,
      "chip": "ym2612"
    },
    {
      "channel": 3,
      "note": 42,
      "start": 59.5956,
      "duration": 0.1106,
      "velocity": 90,
      "chip": "ym2612"
    },
    {
      "channel": 1,
      "note": 42,
      "start": 59.5984,
      "duration": 0.1076,
      "velocity": 127,
      "chip": "ym2612"
    },
    {
      "channel": 4,
      "note": 54,
      "start": 59.7256,
      "duration": 0.114,
      "velocity": 78,
      "chip": "ym2612"
    },
    {
      "channel": 3,
      "note": 42,
      "start": 59.728,
      "duration": 0.1114,
      "velocity": 90,
      "chip": "ym2612"
    },
    {
      "channel": 1,
      "note": 42,
      "start": 59.7306,
      "duration": 0.1087,
      "velocity": 127,
      "chip": "ym2612"
    },
    {
      "channel": 4,
      "note": 66,
      "start": 59.8592,
      "duration": 0.1305,
      "velocity": 78,
      "chip": "ym2612"
    },
    {
      "channel": 3,
      "note": 54,
      "start": 59.8624,
      "duration": 0.1271,
      "velocity": 90,
      "chip": "ym2612"
    },
    {
      "channel": 1,
      "note": 54,
      "start": 59.8652,
      "duration": 0.1241,
      "velocity": 127,
      "chip": "ym2612"
    },
    {
      "channel": 2,
      "note": 42,
      "start": 59.8685,
      "duration": 0.1213,
      "velocity": 125,
      "chip": "ym2612"
    },
    {
      "channel": 5,
      "note": 41,
      "start": 59.8717,
      "duration": 1.0346,
      "velocity": 108,
      "chip": "ym2612"
    },
    {
      "channel": 0,
      "note": 45,
      "start": 59.9952,
      "duration": 0.9108,
      "velocity": 108,
      "chip": "ym2612"
    },
    {
      "channel": 4,
      "note": 66,
      "start": 60.1258,
      "duration": 0.2473,
      "velocity": 78,
      "chip": "ym2612"
    },
    {
      "channel": 3,
      "note": 54,
      "start": 60.1284,
      "duration": 0.2445,
      "velocity": 90,
      "chip": "ym2612"
    },
    {
      "channel": 1,
      "note": 54,
      "start": 60.1311,
      "duration": 0.2417,
      "velocity": 127,
      "chip": "ym2612"
    },
    {
      "channel": 2,
      "note": 42,
      "start": 60.1339,
      "duration": 0.1056,
      "velocity": 125,
      "chip": "ym2612"
    },
    {
      "channel": 4,
      "note": 66,
      "start": 60.3761,
      "duration": 0.1302,
      "velocity": 78,
      "chip": "ym2612"
    },
    {
      "channel": 3,
      "note": 54,
      "start": 60.379,
      "duration": 0.1271,
      "velocity": 90,
      "chip": "ym2612"
    },
    {
      "channel": 1,
      "note": 54,
      "start": 60.3819,
      "duration": 0.1242,
      "velocity": 127,
      "chip": "ym2612"
    },
    {
      "channel": 2,
      "note": 42,
      "start": 60.3846,
      "duration": 0.055,
      "velocity": 112,
      "chip": "ym2612"
    },
    {
      "channel": 4,
      "note": 65,
      "start": 60.5095,
      "duration": 0.1301,
      "velocity": 78,
      "chip": "ym2612"
    },
    {
      "channel": 3,
      "note": 53,
      "start": 60.512,
      "duration": 0.1275,
      "velocity": 90,
      "chip": "ym2612"
    },
    {
      "channel": 1,
      "note": 53,
      "start": 60.5145,
      "duration": 0.1248,
      "velocity": 127,
      "chip": "ym2612"
    },
    {
      "channel": 4,
      "note": 64,
      "start": 60.6424,
      "duration": 0.1306,
      "velocity": 78,
      "chip": "ym2612"
    },
    {
      "channel": 3,
      "note": 52,
      "start": 60.6449,
      "duration": 0.128,
      "velocity": 90,
      "chip": "ym2612"
    },
    {
      "channel": 1,
      "note": 52,
      "start": 60.6475,
      "duration": 0.1253,
      "velocity": 127,
      "chip": "ym2612"
    },
    {
      "channel": 2,
      "note": 42,
      "start": 60.6505,
      "duration": 0.0558,
      "velocity": 125,
      "chip": "ym2612"
    },
    {
      "channel": 4,
      "note": 63,
      "start": 60.7763,
      "duration": 0.1133,
      "velocity": 78,
      "chip": "ym2612"
    },
    {
      "channel": 3,
      "note": 51,
      "start": 60.7792,
      "duration": 0.0768,
      "velocity": 90,
      "chip": "ym2612"
    },
    {
      "channel": 1,
      "note": 51,
      "start": 60.7826,
      "duration": 0.1068,
      "velocity": 127,
      "chip": "ym2612"
    },
    {
      "channel": 2,
      "note": 42,
      "start": 60.7852,
      "duration": 0.0543,
      "velocity": 125,
      "chip": "ym2612"
    },
    {
      "channel": 2,
      "note": 42,
      "start": 60.9095,
      "duration": 0.0634,
      "velocity": 125,
      "chip": "ym2612"
    },
    {
      "channel": 3,
      "note": 56,
      "start": 60.9134,
      "duration": 0.2594,
      "velocity": 88,
      "chip": "ym2612"
    },
    {
      "channel": 2,
      "note": 42,
      "start": 61.0426,
      "duration": 0.0636,
      "velocity": 125,
      "chip": "ym2612"
    },
    {
      "channel": 2,
      "note": 42,
      "start": 61.1761,
      "duration": 0.0634,
      "velocity": 125,
      "chip": "ym2612"
    },
    {
      "channel": 1,
      "note": 56,
      "start": 61.1795,
      "duration": 0.0766,
      "velocity": 88,
      "chip": "ym2612"
    },
    {
      "channel": 2,
      "note": 42,
      "start": 61.3094,
      "duration": 0.0468,
      "velocity": 125,
      "chip": "ym2612"
    },
    {
      "channel": 4,
      "note": 42,
      "start": 61.4266,
      "duration": 0.0629,
      "velocity": 112,
      "chip": "ym2612"
    },
    {
      "channel": 3,
      "note": 68,
      "start": 61.4295,
      "duration": 0.2599,
      "velocity": 88,
      "chip": "ym2612"
    },
    {
      "channel": 3,
      "note": 56,
      "start": 61.6931,
      "duration": 0.263,
      "velocity": 88,
      "chip": "ym2612"
    },
    {
      "channel": 1,
      "note": 68,
      "start": 61.6961,
      "duration": 0.0767,
      "velocity": 88,
      "chip": "ym2612"
    },
    {
      "channel": 2,
      "note": 42,
      "start": 61.8262,
      "duration": 0.0632,
      "velocity": 125,
      "chip": "ym2612"
    },
    {
      "channel": 2,
      "note": 42,
      "start": 61.9594,
      "duration": 0.0636,
      "velocity": 125,
      "chip": "ym2612"
    },
    {
      "channel": 3,
      "note": 68,
      "start": 61.9624,
      "duration": 0.2604,
      "velocity": 88,
      "chip": "ym2612"
    },
    {
      "channel": 1,
      "note": 56,
      "start": 61.9648,
      "duration": 0.0746,
      "velocity": 88,
      "chip": "ym2612"
    },
    {
      "channel": 2,
      "note": 42,
      "start": 62.0931,
      "duration": 0.0632,
      "velocity": 125,
      "chip": "ym2612"
    },
    {
      "channel": 2,
      "note": 42,
      "start": 62.2261,
      "duration": 0.0634,
      "velocity": 125,
      "chip": "ym2612"
    },
    {
      "channel": 3,
      "note": 56,
      "start": 62.229,
      "duration": 0.2439,
      "velocity": 88,
      "chip": "ym2612"
    },
    {
      "channel": 1,
      "note": 68,
      "start": 62.2314,
      "duration": 0.0746,
      "velocity": 88,
      "chip": "ym2612"
    },
    {
      "channel": 2,
      "note": 42,
      "start": 62.3593,
      "duration": 0.0469,
      "velocity": 125,
      "chip": "ym2612"
    },
    {
      "channel": 2,
      "note": 42,
      "start": 62.4764,
      "duration": 0.0632,
      "velocity": 125,
      "chip": "ym2612"
    },
    {
      "channel": 4,
      "note": 42,
      "start": 62.479,
      "duration": 0.0605,
      "velocity": 112,
      "chip": "ym2612"
    },
    {
      "channel": 3,
      "note": 68,
      "start": 62.4817,
      "duration": 0.2576,
      "velocity": 88,
      "chip": "ym2612"
    },
    {
      "channel": 1,
      "note": 56,
      "start": 62.4842,
      "duration": 0.0886,
      "velocity": 88,
      "chip": "ym2612"
    },
    {
      "channel": 3,
      "note": 56,
      "start": 62.7431,
      "duration": 0.263,
      "velocity": 88,
      "chip": "ym2612"
    },
    {
      "channel": 1,
      "note": 68,
      "start": 62.7455,
      "duration": 0.0772,
      "velocity": 88,
      "chip": "ym2612"
    },
    {
      "channel": 2,
      "note": 42,
      "start": 63.0095,
      "duration": 0.0634,
      "velocity": 125,
      "chip": "ym2612"
    },
    {
      "channel": 3,
      "note": 56,
      "start": 63.0127,
      "duration": 0.2601,
      "velocity": 88,
      "chip": "ym2612"
    },
    {
      "channel": 1,
      "note": 56,
      "start": 63.0151,
      "duration": 0.0742,
      "velocity": 88,
      "chip": "ym2612"
    },
    {
      "channel": 2,
      "note": 42,
      "start": 63.1427,
      "duration": 0.0634,
      "velocity": 125,
      "chip": "ym2612"
    },
    {
      "channel": 2,
      "note": 42,
      "start": 63.2761,
      "duration": 0.0634,
      "velocity": 125,
      "chip": "ym2612"
    },
    {
      "channel": 1,
      "note": 56,
      "start": 63.2792,
      "duration": 0.0768,
      "velocity": 88,
      "chip": "ym2612"
    },
    {
      "channel": 2,
      "note": 42,
      "start": 63.4095,
      "duration": 0.0466,
      "velocity": 125,
      "chip": "ym2612"
    },
    {
      "channel": 4,
      "note": 42,
      "start": 63.526,
      "duration": 0.0634,
      "velocity": 112,
      "chip": "ym2612"
    },
    {
      "channel": 3,
      "note": 68,
      "start": 63.529,
      "duration": 0.2604,
      "velocity": 88,
      "chip": "ym2612"
    },
    {
      "channel": 3,
      "note": 56,
      "start": 63.7931,
      "duration": 0.263,
      "velocity": 88,
      "chip": "ym2612"
    },
    {
      "channel": 1,
      "note": 68,
      "start": 63.7957,
      "duration": 0.077,
      "velocity": 88,
      "chip": "ym2612"
    },
    {
      "channel": 2,
      "note": 42,
      "start": 63.9261,
      "duration": 0.0633,
      "velocity": 125,
      "chip": "ym2612"
    },
    {
      "channel": 2,
      "note": 42,
      "start": 64.0594,
      "duration": 0.0636,
      "velocity": 125,
      "chip": "ym2612"
    },
    {
      "channel": 3,
      "note": 68,
      "start": 64.0624,
      "duration": 0.2604,
      "velocity": 88,
      "chip": "ym2612"
    },
    {
      "channel": 1,
      "note": 56,
      "start": 64.0648,
      "duration": 0.0745,
      "velocity": 88,
      "chip": "ym2612"
    },
    {
      "channel": 2,
      "note": 42,
      "start": 64.1927,
      "duration": 0.0635,
      "velocity": 125,
      "chip": "ym2612"
    },
    {
      "channel": 2,
      "note": 42,
      "start": 64.3261,
      "duration": 0.0634,
      "velocity": 125,
      "chip": "ym2612"
    },
    {
      "channel": 3,
      "note": 56,
      "start": 64.3291,
      "duration": 0.2438,
      "velocity": 88,
      "chip": "ym2612"
    },
    {
      "channel": 1,
      "note": 68,
      "start": 64.3315,
      "duration": 0.0745,
      "velocity": 88,
      "chip": "ym2612"
    },
    {
      "channel": 2,
      "note": 42,
      "start": 64.4597,
      "duration": 0.0465,
      "velocity": 125,
      "chip": "ym2612"
    },
    {
      "channel": 2,
      "note": 42,
      "start": 64.5763,
      "duration": 0.0632,
      "velocity": 125,
      "chip": "ym2612"
    },
    {
      "channel": 4,
      "note": 42,
      "start": 64.5791,
      "duration": 0.0603,
      "velocity": 112,
      "chip": "ym2612"
    },
    {
      "channel": 3,
      "note": 68,
      "start": 64.5823,
      "duration": 0.2571,
      "velocity": 88,
      "chip": "ym2612"
    },
    {
      "channel": 1,
      "note": 56,
      "start": 64.5847,
      "duration": 0.0881,
      "velocity": 88,
      "chip": "ym2612"
    },
    {
      "channel": 4,
      "note": 42,
      "start": 64.843,
      "duration": 0.0464,
      "velocity": 112,
      "chip": "ym2612"
    },
    {
      "channel": 3,
      "note": 80,
      "start": 64.8458,
      "duration": 0.2603,
      "velocity": 88,
      "chip": "ym2612"
    },
    {
      "channel": 1,
      "note": 68,
      "start": 64.8485,
      "duration": 0.0742,
      "velocity": 88,
      "chip": "ym2612"
    },
    {
      "channel": 0,
      "note": 47,
      "start": 65.1099,
      "duration": 0.0128,
      "velocity": 90,
      "chip": "ym2612"
    },
    {
      "channel": 5,
      "note": 45,
      "start": 65.1129,
      "duration": 0.1266,
      "velocity": 90,
      "chip": "ym2612"
    },
    {
      "channel": 2,
      "note": 42,
      "start": 65.1158,
      "duration": 0.0572,
      "velocity": 125,
      "chip": "ym2612"
    },
    {
      "channel": 3,
      "note": 56,
      "start": 65.1188,
      "duration": 0.2539,
      "velocity": 88,
      "chip": "ym2612"
    },
    {
      "channel": 0,
      "note": 32,
      "start": 65.2424,
      "duration": 0.0969,
      "velocity": 90,
      "chip": "ym2612"
    },
    {
      "channel": 2,
      "note": 42,
      "start": 65.2452,
      "duration": 0.0611,
      "velocity": 125,
      "chip": "ym2612"
    },
    {
      "channel": 0,
      "note": 32,
      "start": 65.3756,
      "duration": 0.0971,
      "velocity": 90,
      "chip": "ym2612"
    },
    {
      "channel": 2,
      "note": 42,
      "start": 65.3784,
      "duration": 0.0611,
      "velocity": 125,
      "chip": "ym2612"
    },
    {
      "channel": 0,
      "note": 44,
      "start": 65.5091,
      "duration": 0.1136,
      "velocity": 90,
      "chip": "ym2612"
    },
    {
      "channel": 2,
      "note": 42,
      "start": 65.5121,
      "duration": 0.0609,
      "velocity": 125,
      "chip": "ym2612"
    },
    {
      "channel": 4,
      "note": 42,
      "start": 65.6264,
      "duration": 0.0631,
      "velocity": 112,
      "chip": "ym2612"
    },
    {
      "channel": 3,
      "note": 68,
      "start": 65.6294,
      "duration": 0.2601,
      "velocity": 88,
      "chip": "ym2612"
    },
    {
      "channel": 0,
      "note": 44,
      "start": 65.759,
      "duration": 0.2637,
      "velocity": 90,
      "chip": "ym2612"
    },
    {
      "channel": 2,
      "note": 42,
      "start": 65.8929,
      "duration": 0.0632,
      "velocity": 125,
      "chip": "ym2612"
    },
    {
      "channel": 3,
      "note": 56,
      "start": 65.8959,
      "duration": 0.2602,
      "velocity": 88,
      "chip": "ym2612"
    },
    {
      "channel": 0,
      "note": 32,
      "start": 66.026,
      "duration": 0.1134,
      "velocity": 90,
      "chip": "ym2612"
    },
    {
      "channel": 2,
      "note": 42,
      "start": 66.0288,
      "duration": 0.0608,
      "velocity": 125,
      "chip": "ym2612"
    },
    {
      "channel": 0,
      "note": 32,
      "start": 66.1589,
      "duration": 0.1137,
      "velocity": 90,
      "chip": "ym2612"
    },
    {
      "channel": 2,
      "note": 42,
      "start": 66.1617,
      "duration": 0.0612,
      "velocity": 125,
      "chip": "ym2612"
    },
    {
      "channel": 3,
      "note": 68,
      "start": 66.1646,
      "duration": 0.2582,
      "velocity": 88,
      "chip": "ym2612"
    },
    {
      "channel": 0,
      "note": 44,
      "start": 66.2929,
      "duration": 0.0964,
      "velocity": 90,
      "chip": "ym2612"
    },
    {
      "channel": 2,
      "note": 42,
      "start": 66.2957,
      "duration": 0.0605,
      "velocity": 125,
      "chip": "ym2612"
    },
    {
      "channel": 2,
      "note": 42,
      "start": 66.4261,
      "duration": 0.0634,
      "velocity": 125,
      "chip": "ym2612"
    },
    {
      "channel": 3,
      "note": 56,
      "start": 66.4291,
      "duration": 0.2438,
      "velocity": 88,
      "chip": "ym2612"
    },
    {
      "channel": 0,
      "note": 44,
      "start": 66.559,
      "duration": 0.2471,
      "velocity": 90,
      "chip": "ym2612"
    },
    {
      "channel": 2,
      "note": 42,
      "start": 66.5623,
      "duration": 0.0606,
      "velocity": 125,
      "chip": "ym2612"
    },
    {
      "channel": 4,
      "note": 42,
      "start": 66.6761,
      "duration": 0.0633,
      "velocity": 112,
      "chip": "ym2612"
    },
    {
      "channel": 3,
      "note": 68,
      "start": 66.679,
      "duration": 0.2605,
      "velocity": 88,
      "chip": "ym2612"
    },
    {
      "channel": 0,
      "note": 32,
      "start": 66.8093,
      "duration": 0.13,
      "velocity": 90,
      "chip": "ym2612"
    },
    {
      "channel": 0,
      "note": 44,
      "start": 66.9424,
      "duration": 0.1303,
      "velocity": 90,
      "chip": "ym2612"
    },
    {
      "channel": 3,
      "note": 56,
      "start": 66.9455,
      "duration": 0.2606,
      "velocity": 88,
      "chip": "ym2612"
    },
    {
      "channel": 0,
      "note": 45,
      "start": 67.076,
      "duration": 0.2133,
      "velocity": 90,
      "chip": "ym2612"
    },
    {
      "channel": 2,
      "note": 42,
      "start": 67.2095,
      "duration": 0.0634,
      "velocity": 125,
      "chip": "ym2612"
    },
    {
      "channel": 3,
      "note": 56,
      "start": 67.2126,
      "duration": 0.2602,
      "velocity": 88,
      "chip": "ym2612"
    },
    {
      "channel": 0,
      "note": 32,
      "start": 67.3424,
      "duration": 0.0968,
      "velocity": 90,
      "chip": "ym2612"
    },
    {
      "channel": 2,
      "note": 42,
      "start": 67.3452,
      "duration": 0.061,
      "velocity": 125,
      "chip": "ym2612"
    },
    {
      "channel": 0,
      "note": 32,
      "start": 67.4756,
      "duration": 0.0971,
      "velocity": 90,
      "chip": "ym2612"
    },
    {
      "channel": 2,
      "note": 42,
      "start": 67.4784,
      "duration": 0.0612,
      "velocity": 125,
      "chip": "ym2612"
    },
    {
      "channel": 0,
      "note": 44,
      "start": 67.6095,
      "duration": 0.1133,
      "velocity": 90,
      "chip": "ym2612"
    },
    {
      "channel": 2,
      "note": 42,
      "start": 67.6124,
      "duration": 0.0605,
      "velocity": 125,
      "chip": "ym2612"
    },
    {
      "channel": 4,
      "note": 42,
      "start": 67.7261,
      "duration": 0.0632,
      "velocity": 112,
      "chip": "ym2612"
    },
    {
      "channel": 3,
      "note": 68,
      "start": 67.7291,
      "duration": 0.2602,
      "velocity": 88,
      "chip": "ym2612"
    },
    {
      "channel": 0,
      "note": 44,
      "start": 67.859,
      "duration": 0.2637,
      "velocity": 90,
      "chip": "ym2612"
    },
    {
      "channel": 3,
      "note": 56,
      "start": 67.9931,
      "duration": 0.2629,
      "velocity": 88,
      "chip": "ym2612"
    },
    {
      "channel": 0,
      "note": 32,
      "start": 68.126,
      "duration": 0.1134,
      "velocity": 90,
      "chip": "ym2612"
    },
    {
      "channel": 2,
      "note": 42,
      "start": 68.1289,
      "duration": 0.0607,
      "velocity": 125,
      "chip": "ym2612"
    },
    {
      "channel": 0,
      "note": 32,
      "start": 68.2588,
      "duration": 0.1139,
      "velocity": 90,
      "chip": "ym2612"
    },
    {
      "channel": 2,
      "note": 42,
      "start": 68.2617,
      "duration": 0.0613,
      "velocity": 125,
      "chip": "ym2612"
    },
    {
      "channel": 3,
      "note": 68,
      "start": 68.2649,
      "duration": 0.2579,
      "velocity": 88,
      "chip": "ym2612"
    },
    {
      "channel": 0,
      "note": 44,
      "start": 68.3925,
      "duration": 0.1302,
      "velocity": 90,
      "chip": "ym2612"
    },
    {
      "channel": 2,
      "note": 42,
      "start": 68.3953,
      "duration": 0.061,
      "velocity": 125,
      "chip": "ym2612"
    },
    {
      "channel": 2,
      "note": 42,
      "start": 68.5261,
      "duration": 0.0634,
      "velocity": 125,
      "chip": "ym2612"
    },
    {
      "channel": 3,
      "note": 56,
      "start": 68.5291,
      "duration": 0.2437,
      "velocity": 88,
      "chip": "ym2612"
    },
    {
      "channel": 0,
      "note": 44,
      "start": 68.659,
      "duration": 0.2469,
      "velocity": 90,
      "chip": "ym2612"
    },
    {
      "channel": 2,
      "note": 42,
      "start": 68.6618,
      "duration": 0.0612,
      "velocity": 125,
      "chip": "ym2612"
    },
    {
      "channel": 2,
      "note": 42,
      "start": 68.7763,
      "duration": 0.0634,
      "velocity": 125,
      "chip": "ym2612"
    },
    {
      "channel": 4,
      "note": 42,
      "start": 68.779,
      "duration": 0.0604,
      "velocity": 112,
      "chip": "ym2612"
    },
    {
      "channel": 3,
      "note": 68,
      "start": 68.7819,
      "duration": 0.2575,
      "velocity": 88,
      "chip": "ym2612"
    },
    {
      "channel": 0,
      "note": 44,
      "start": 68.9092,
      "duration": 0.13,
      "velocity": 90,
      "chip": "ym2612"
    },
    {
      "channel": 0,
      "note": 43,
      "start": 69.0428,
      "duration": 0.1299,
      "velocity": 90,
      "chip": "ym2612"
    },
    {
      "channel": 4,
      "note": 42,
      "start": 69.0463,
      "duration": 0.0432,
      "velocity": 112,
      "chip": "ym2612"
    },
    {
      "channel": 3,
      "note": 80,
      "start": 69.0494,
      "duration": 0.2568,
      "velocity": 88,
      "chip": "ym2612"
    },
    {
      "channel": 0,
      "note": 42,
      "start": 69.1756,
      "duration": 0.1304,
      "velocity": 90,
      "chip": "ym2612"
    },
    {
      "channel": 4,
      "note": 42,
      "start": 69.1787,
      "duration": 0.0442,
      "velocity": 112,
      "chip": "ym2612"
    },
    {
      "channel": 0,
      "note": 53,
      "start": 69.3092,
      "duration": 0.08,
      "velocity": 90,
      "chip": "ym2612"
    },
    {
      "channel": 1,
      "note": 37,
      "start": 69.3122,
      "duration": 0.1106,
      "velocity": 127,
      "chip": "ym2612"
    },
    {
      "channel": 2,
      "note": 49,
      "start": 69.3155,
      "duration": 0.1241,
      "velocity": 125,
      "chip": "ym2612"
    },
    {
      "channel": 0,
      "note": 49,
      "start": 69.4424,
      "duration": 0.0969,
      "velocity": 90,
      "chip": "ym2612"
    },
    {
      "channel": 1,
      "note": 37,
      "start": 69.445,
      "duration": 0.0945,
      "velocity": 127,
      "chip": "ym2612"
    },
    {
      "channel": 0,
      "note": 49,
      "start": 69.5756,
      "duration": 0.0971,
      "velocity": 90,
      "chip": "ym2612"
    },
    {
      "channel": 1,
      "note": 49,
      "start": 69.5784,
      "duration": 0.1276,
      "velocity": 127,
      "chip": "ym2612"
    },
    {
      "channel": 0,
      "note": 61,
      "start": 69.7092,
      "duration": 0.1302,
      "velocity": 90,
      "chip": "ym2612"
    },
    {
      "channel": 1,
      "note": 49,
      "start": 69.8427,
      "duration": 0.2467,
      "velocity": 127,
      "chip": "ym2612"
    },
    {
      "channel": 2,
      "note": 40,
      "start": 69.8458,
      "duration": 0.0937,
      "velocity": 127,
      "chip": "ym2612"
    },
    {
      "channel": 0,
      "note": 61,
      "start": 69.959,
      "duration": 0.2637,
      "velocity": 90,
      "chip": "ym2612"
    },
    {
      "channel": 1,
      "note": 37,
      "start": 70.0929,
      "duration": 0.1131,
      "velocity": 127,
      "chip": "ym2612"
    },
    {
      "channel": 0,
      "note": 49,
      "start": 70.226,
      "duration": 0.1133,
      "velocity": 90,
      "chip": "ym2612"
    },
    {
      "channel": 1,
      "note": 37,
      "start": 70.2284,
      "duration": 0.111,
      "velocity": 127,
      "chip": "ym2612"
    },
    {
      "channel": 0,
      "note": 49,
      "start": 70.3588,
      "duration": 0.1139,
      "velocity": 90,
      "chip": "ym2612"
    },
    {
      "channel": 1,
      "note": 49,
      "start": 70.3618,
      "duration": 0.111,
      "velocity": 127,
      "chip": "ym2612"
    },
    {
      "channel": 5,
      "note": 49,
      "start": 70.3646,
      "duration": 0.1248,
      "velocity": 125,
      "chip": "ym2612"
    },
    {
      "channel": 0,
      "note": 61,
      "start": 70.4929,
      "duration": 0.0964,
      "velocity": 90,
      "chip": "ym2612"
    },
    {
      "channel": 1,
      "note": 49,
      "start": 70.6259,
      "duration": 0.2636,
      "velocity": 127,
      "chip": "ym2612"
    },
    {
      "channel": 5,
      "note": 49,
      "start": 70.6287,
      "duration": 0.1276,
      "velocity": 125,
      "chip": "ym2612"
    },
    {
      "channel": 0,
      "note": 61,
      "start": 70.7592,
      "duration": 0.2468,
      "velocity": 90,
      "chip": "ym2612"
    },
    {
      "channel": 1,
      "note": 37,
      "start": 70.8929,
      "duration": 0.1132,
      "velocity": 127,
      "chip": "ym2612"
    },
    {
      "channel": 2,
      "note": 40,
      "start": 70.8958,
      "duration": 0.0937,
      "velocity": 127,
      "chip": "ym2612"
    },
    {
      "channel": 0,
      "note": 49,
      "start": 71.0093,
      "duration": 0.13,
      "velocity": 90,
      "chip": "ym2612"
    },
    {
      "channel": 1,
      "note": 49,
      "start": 71.0118,
      "duration": 0.1276,
      "velocity": 127,
      "chip": "ym2612"
    },
    {
      "channel": 0,
      "note": 61,
      "start": 71.1423,
      "duration": 0.1304,
      "velocity": 90,
      "chip": "ym2612"
    },
    {
      "channel": 1,
      "note": 50,
      "start": 71.1452,
      "duration": 0.2109,
      "velocity": 127,
      "chip": "ym2612"
    },
    {
      "channel": 0,
      "note": 62,
      "start": 71.276,
      "duration": 0.2134,
      "velocity": 90,
      "chip": "ym2612"
    },
    {
      "channel": 1,
      "note": 37,
      "start": 71.4094,
      "duration": 0.1134,
      "velocity": 127,
      "chip": "ym2612"
    },
    {
      "channel": 5,
      "note": 49,
      "start": 71.4122,
      "duration": 0.1272,
      "velocity": 125,
      "chip": "ym2612"
    },
    {
      "channel": 0,
      "note": 49,
      "start": 71.5425,
      "duration": 0.0968,
      "velocity": 90,
      "chip": "ym2612"
    },
    {
      "channel": 1,
      "note": 37,
      "start": 71.545,
      "duration": 0.0944,
      "velocity": 127,
      "chip": "ym2612"
    },
    {
      "channel": 0,
      "note": 49,
      "start": 71.6755,
      "duration": 0.0973,
      "velocity": 90,
      "chip": "ym2612"
    },
    {
      "channel": 1,
      "note": 49,
      "start": 71.6787,
      "duration": 0.1274,
      "velocity": 127,
      "chip": "ym2612"
    },
    {
      "channel": 0,
      "note": 61,
      "start": 71.8097,
      "duration": 0.1297,
      "velocity": 90,
      "chip": "ym2612"
    },
    {
      "channel": 1,
      "note": 49,
      "start": 71.9427,
      "duration": 0.2466,
      "velocity": 127,
      "chip": "ym2612"
    },
    {
      "channel": 2,
      "note": 40,
      "start": 71.9456,
      "duration": 0.0939,
      "velocity": 127,
      "chip": "ym2612"
    },
    {
      "channel": 0,
      "note": 61,
      "start": 72.059,
      "duration": 0.2637,
      "velocity": 90,
      "chip": "ym2612"
    },
    {
      "channel": 1,
      "note": 37,
      "start": 72.1927,
      "duration": 0.1133,
      "velocity": 127,
      "chip": "ym2612"
    },
    {
      "channel": 0,
      "note": 49,
      "start": 72.326,
      "duration": 0.1134,
      "velocity": 90,
      "chip": "ym2612"
    },
    {
      "channel": 1,
      "note": 37,
      "start": 72.3284,
      "duration": 0.111,
      "velocity": 127,
      "chip": "ym2612"
    },
    {
      "channel": 0,
      "note": 49,
      "start": 72.4588,
      "duration": 0.1139,
      "velocity": 90,
      "chip": "ym2612"
    },
    {
      "channel": 1,
      "note": 49,
      "start": 72.4617,
      "duration": 0.1277,
      "velocity": 127,
      "chip": "ym2612"
    },
    {
      "channel": 5,
      "note": 49,
      "start": 72.4644,
      "duration": 0.1252,
      "velocity": 125,
      "chip": "ym2612"
    },
    {
      "channel": 0,
      "note": 61,
      "start": 72.5927,
      "duration": 0.13,
      "velocity": 90,
      "chip": "ym2612"
    },
    {
      "channel": 1,
      "note": 49,
      "start": 72.726,
      "duration": 0.2634,
      "velocity": 127,
      "chip": "ym2612"
    },
    {
      "channel": 5,
      "note": 49,
      "start": 72.7288,
      "duration": 0.1273,
      "velocity": 125,
      "chip": "ym2612"
    },
    {
      "channel": 0,
      "note": 61,
      "start": 72.859,
      "duration": 0.2469,
      "velocity": 90,
      "chip": "ym2612"
    },
    {
      "channel": 1,
      "note": 54,
      "start": 72.9925,
      "duration": 0.2469,
      "velocity": 127,
      "chip": "ym2612"
    },
    {
      "channel": 2,
      "note": 40,
      "start": 72.9954,
      "duration": 0.0941,
      "velocity": 127,
      "chip": "ym2612"
    },
    {
      "channel": 0,
      "note": 66,
      "start": 73.1089,
      "duration": 0.2638,
      "velocity": 90,
      "chip": "ym2612"
    },
    {
      "channel": 1,
      "note": 52,
      "start": 73.2432,
      "duration": 0.1296,
      "velocity": 127,
      "chip": "ym2612"
    },
    {
      "channel": 5,
      "note": 49,
      "start": 73.246,
      "duration": 0.127,
      "velocity": 125,
      "chip": "ym2612"
    },
    {
      "channel": 0,
      "note": 64,
      "start": 73.3765,
      "duration": 0.1295,
      "velocity": 90,
      "chip": "ym2612"
    },
    {
      "channel": 1,
      "note": 50,
      "start": 73.3792,
      "duration": 0.1102,
      "velocity": 127,
      "chip": "ym2612"
    },
    {
      "channel": 0,
      "note": 55,
      "start": 73.5092,
      "duration": 0.0134,
      "velocity": 90,
      "chip": "ym2612"
    },
    {
      "channel": 4,
      "note": 44,
      "start": 73.512,
      "duration": 0.111,
      "velocity": 90,
      "chip": "ym2612"
    },
    {
      "channel": 3,
      "note": 62,
      "start": 73.5148,
      "duration": 0.1246,
      "velocity": 90,
      "chip": "ym2612"
    },
    {
      "channel": 1,
      "note": 44,
      "start": 73.5174,
      "duration": 0.1054,
      "velocity": 127,
      "chip": "ym2612"
    },
    {
      "channel": 5,
      "note": 44,
      "start": 73.5201,
      "duration": 0.1195,
      "velocity": 125,
      "chip": "ym2612"
    },
    {
      "channel": 0,
      "note": 44,
      "start": 73.6426,
      "duration": 0.1134,
      "velocity": 90,
      "chip": "ym2612"
    },
    {
      "channel": 1,
      "note": 44,
      "start": 73.6451,
      "duration": 0.111,
      "velocity": 127,
      "chip": "ym2612"
    },
    {
      "channel": 0,
      "note": 56,
      "start": 73.7759,
      "duration": 0.1301,
      "velocity": 90,
      "chip": "ym2612"
    },
    {
      "channel": 1,
      "note": 56,
      "start": 73.7788,
      "duration": 0.1274,
      "velocity": 127,
      "chip": "ym2612"
    },
    {
      "channel": 0,
      "note": 56,
      "start": 74.0423,
      "duration": 0.2469,
      "velocity": 90,
      "chip": "ym2612"
    },
    {
      "channel": 1,
      "note": 56,
      "start": 74.045,
      "duration": 0.2444,
      "velocity": 127,
      "chip": "ym2612"
    },
    {
      "channel": 2,
      "note": 40,
      "start": 74.0479,
      "duration": 0.0916,
      "velocity": 127,
      "chip": "ym2612"
    },
    {
      "channel": 0,
      "note": 44,
      "start": 74.2932,
      "duration": 0.1127,
      "velocity": 90,
      "chip": "ym2612"
    },
    {
      "channel": 1,
      "note": 44,
      "start": 74.2961,
      "duration": 0.11,
      "velocity": 127,
      "chip": "ym2612"
    },
    {
      "channel": 0,
      "note": 44,
      "start": 74.4256,
      "duration": 0.1137,
      "velocity": 90,
      "chip": "ym2612"
    },
    {
      "channel": 1,
      "note": 44,
      "start": 74.4281,
      "duration": 0.1113,
      "velocity": 127,
      "chip": "ym2612"
    },
    {
      "channel": 0,
      "note": 56,
      "start": 74.5589,
      "duration": 0.1139,
      "velocity": 90,
      "chip": "ym2612"
    },
    {
      "channel": 1,
      "note": 56,
      "start": 74.5616,
      "duration": 0.1113,
      "velocity": 127,
      "chip": "ym2612"
    },
    {
      "channel": 5,
      "note": 44,
      "start": 74.5647,
      "duration": 0.1249,
      "velocity": 125,
      "chip": "ym2612"
    },
    {
      "channel": 0,
      "note": 56,
      "start": 74.8257,
      "duration": 0.2637,
      "velocity": 90,
      "chip": "ym2612"
    },
    {
      "channel": 1,
      "note": 56,
      "start": 74.8288,
      "duration": 0.2607,
      "velocity": 127,
      "chip": "ym2612"
    },
    {
      "channel": 5,
      "note": 44,
      "start": 74.8316,
      "duration": 0.1246,
      "velocity": 125,
      "chip": "ym2612"
    },
    {
      "channel": 0,
      "note": 44,
      "start": 75.0927,
      "duration": 0.1134,
      "velocity": 90,
      "chip": "ym2612"
    },
    {
      "channel": 1,
      "note": 44,
      "start": 75.0956,
      "duration": 0.1106,
      "velocity": 127,
      "chip": "ym2612"
    },
    {
      "channel": 2,
      "note": 40,
      "start": 75.0985,
      "duration": 0.0911,
      "velocity": 127,
      "chip": "ym2612"
    },
    {
      "channel": 0,
      "note": 56,
      "start": 75.209,
      "duration": 0.1303,
      "velocity": 90,
      "chip": "ym2612"
    },
    {
      "channel": 1,
      "note": 56,
      "start": 75.2116,
      "duration": 0.1279,
      "velocity": 127,
      "chip": "ym2612"
    },
    {
      "channel": 0,
      "note": 57,
      "start": 75.3427,
      "duration": 0.2133,
      "velocity": 90,
      "chip": "ym2612"
    },
    {
      "channel": 1,
      "note": 57,
      "start": 75.3456,
      "duration": 0.2106,
      "velocity": 127,
      "chip": "ym2612"
    },
    {
      "channel": 0,
      "note": 44,
      "start": 75.6095,
      "duration": 0.1131,
      "velocity": 90,
      "chip": "ym2612"
    },
    {
      "channel": 1,
      "note": 44,
      "start": 75.6124,
      "duration": 0.1104,
      "velocity": 127,
      "chip": "ym2612"
    },
    {
      "channel": 5,
      "note": 44,
      "start": 75.6151,
      "duration": 0.1243,
      "velocity": 125,
      "chip": "ym2612"
    },
    {
      "channel": 0,
      "note": 44,
      "start": 75.7422,
      "duration": 0.1139,
      "velocity": 90,
      "chip": "ym2612"
    },
    {
      "channel": 1,
      "note": 44,
      "start": 75.7447,
      "duration": 0.1115,
      "velocity": 127,
      "chip": "ym2612"
    },
    {
      "channel": 0,
      "note": 56,
      "start": 75.8758,
      "duration": 0.1302,
      "velocity": 90,
      "chip": "ym2612"
    },
    {
      "channel": 1,
      "note": 56,
      "start": 75.8787,
      "duration": 0.1274,
      "velocity": 127,
      "chip": "ym2612"
    },
    {
      "channel": 0,
      "note": 56,
      "start": 76.1424,
      "duration": 0.2469,
      "velocity": 90,
      "chip": "ym2612"
    },
    {
      "channel": 1,
      "note": 56,
      "start": 76.1454,
      "duration": 0.244,
      "velocity": 127,
      "chip": "ym2612"
    },
    {
      "channel": 2,
      "note": 40,
      "start": 76.1483,
      "duration": 0.0912,
      "velocity": 127,
      "chip": "ym2612"
    },
    {
      "channel": 0,
      "note": 44,
      "start": 76.3926,
      "duration": 0.1135,
      "velocity": 90,
      "chip": "ym2612"
    },
    {
      "channel": 1,
      "note": 44,
      "start": 76.3954,
      "duration": 0.1107,
      "velocity": 127,
      "chip": "ym2612"
    },
    {
      "channel": 0,
      "note": 44,
      "start": 76.5255,
      "duration": 0.1138,
      "velocity": 90,
      "chip": "ym2612"
    },
    {
      "channel": 1,
      "note": 44,
      "start": 76.528,
      "duration": 0.1114,
      "velocity": 127,
      "chip": "ym2612"
    },
    {
      "channel": 0,
      "note": 56,
      "start": 76.6591,
      "duration": 0.1302,
      "velocity": 90,
      "chip": "ym2612"
    },
    {
      "channel": 1,
      "note": 56,
      "start": 76.662,
      "duration": 0.1274,
      "velocity": 127,
      "chip": "ym2612"
    },
    {
      "channel": 5,
      "note": 44,
      "start": 76.6647,
      "duration": 0.1249,
      "velocity": 125,
      "chip": "ym2612"
    },
    {
      "channel": 0,
      "note": 56,
      "start": 76.926,
      "duration": 0.2633,
      "velocity": 90,
      "chip": "ym2612"
    },
    {
      "channel": 1,
      "note": 56,
      "start": 76.9288,
      "duration": 0.2607,
      "velocity": 127,
      "chip": "ym2612"
    },
    {
      "channel": 5,
      "note": 44,
      "start": 76.9315,
      "duration": 0.1247,
      "velocity": 125,
      "chip": "ym2612"
    },
    {
      "channel": 0,
      "note": 56,
      "start": 77.1926,
      "duration": 0.1134,
      "velocity": 90,
      "chip": "ym2612"
    },
    {
      "channel": 1,
      "note": 56,
      "start": 77.1955,
      "duration": 0.1106,
      "velocity": 127,
      "chip": "ym2612"
    },
    {
      "channel": 2,
      "note": 40,
      "start": 77.199,
      "duration": 0.0905,
      "velocity": 127,
      "chip": "ym2612"
    },
    {
      "channel": 0,
      "note": 55,
      "start": 77.309,
      "duration": 0.1303,
      "velocity": 90,
      "chip": "ym2612"
    },
    {
      "channel": 1,
      "note": 55,
      "start": 77.3115,
      "duration": 0.1279,
      "velocity": 127,
      "chip": "ym2612"
    },
    {
      "channel": 0,
      "note": 54,
      "start": 77.4423,
      "duration": 0.1305,
      "velocity": 90,
      "chip": "ym2612"
    },
    {
      "channel": 1,
      "note": 54,
      "start": 77.4449,
      "duration": 0.128,
      "velocity": 127,
      "chip": "ym2612"
    },
    {
      "channel": 5,
      "note": 44,
      "start": 77.4478,
      "duration": 0.0584,
      "velocity": 125,
      "chip": "ym2612"
    },
    {
      "channel": 0,
      "note": 53,
      "start": 77.5759,
      "duration": 0.0968,
      "velocity": 90,
      "chip": "ym2612"
    },
    {
      "channel": 1,
      "note": 53,
      "start": 77.5793,
      "duration": 0.11,
      "velocity": 127,
      "chip": "ym2612"
    },
    {
      "channel": 5,
      "note": 44,
      "start": 77.5821,
      "duration": 0.0574,
      "velocity": 125,
      "chip": "ym2612"
    },
    {
      "channel": 0,
      "note": 47,
      "start": 77.7092,
      "duration": 0.0136,
      "velocity": 90,
      "chip": "ym2612"
    },
    {
      "channel": 3,
      "note": 45,
      "start": 77.7118,
      "duration": 0.1276,
      "velocity": 90,
      "chip": "ym2612"
    },
    {
      "channel": 0,
      "note": 32,
      "start": 77.8424,
      "duration": 0.1136,
      "velocity": 90,
      "chip": "ym2612"
    },
    {
      "channel": 0,
      "note": 32,
      "start": 77.9759,
      "duration": 0.0969,
      "velocity": 90,
      "chip": "ym2612"
    },
    {
      "channel": 5,
      "note": 40,
      "start": 77.9791,
      "duration": 0.0603,
      "velocity": 125,
      "chip": "ym2612"
    },
    {
      "channel": 0,
      "note": 44,
      "start": 78.1092,
      "duration": 0.1302,
      "velocity": 90,
      "chip": "ym2612"
    },
    {
      "channel": 5,
      "note": 40,
      "start": 78.1119,
      "duration": 0.0609,
      "velocity": 125,
      "chip": "ym2612"
    },
    {
      "channel": 5,
      "note": 40,
      "start": 78.2427,
      "duration": 0.0635,
      "velocity": 125,
      "chip": "ym2612"
    },
    {
      "channel": 0,
      "note": 44,
      "start": 78.3756,
      "duration": 0.2471,
      "velocity": 90,
      "chip": "ym2612"
    },
    {
      "channel": 5,
      "note": 40,
      "start": 78.3784,
      "duration": 0.0445,
      "velocity": 125,
      "chip": "ym2612"
    },
    {
      "channel": 5,
      "note": 40,
      "start": 78.4926,
      "duration": 0.0636,
      "velocity": 125,
      "chip": "ym2612"
    },
    {
      "channel": 0,
      "note": 32,
      "start": 78.626,
      "duration": 0.1133,
      "velocity": 90,
      "chip": "ym2612"
    },
    {
      "channel": 5,
      "note": 40,
      "start": 78.6288,
      "duration": 0.0606,
      "velocity": 125,
      "chip": "ym2612"
    },
    {
      "channel": 0,
      "note": 32,
      "start": 78.7587,
      "duration": 0.1139,
      "velocity": 90,
      "chip": "ym2612"
    },
    {
      "channel": 0,
      "note": 44,
      "start": 78.8923,
      "duration": 0.1137,
      "velocity": 90,
      "chip": "ym2612"
    },
    {
      "channel": 5,
      "note": 40,
      "start": 78.8952,
      "duration": 0.061,
      "velocity": 125,
      "chip": "ym2612"
    },
    {
      "channel": 5,
      "note": 40,
      "start": 79.026,
      "duration": 0.0635,
      "velocity": 125,
      "chip": "ym2612"
    },
    {
      "channel": 0,
      "note": 44,
      "start": 79.159,
      "duration": 0.2637,
      "velocity": 90,
      "chip": "ym2612"
    },
    {
      "channel": 5,
      "note": 40,
      "start": 79.1617,
      "duration": 0.0613,
      "velocity": 125,
      "chip": "ym2612"
    },
    {
      "channel": 5,
      "note": 40,
      "start": 79.2926,
      "duration": 0.0636,
      "velocity": 125,
      "chip": "ym2612"
    },
    {
      "channel": 0,
      "note": 32,
      "start": 79.4263,
      "duration": 0.113,
      "velocity": 90,
      "chip": "ym2612"
    },
    {
      "channel": 5,
      "note": 40,
      "start": 79.429,
      "duration": 0.0438,
      "velocity": 125,
      "chip": "ym2612"
    },
    {
      "channel": 0,
      "note": 44,
      "start": 79.5422,
      "duration": 0.1305,
      "velocity": 90,
      "chip": "ym2612"
    },
    {
      "channel": 5,
      "note": 40,
      "start": 79.545,
      "duration": 0.0612,
      "velocity": 125,
      "chip": "ym2612"
    },
    {
      "channel": 0,
      "note": 45,
      "start": 79.676,
      "duration": 0.2133,
      "velocity": 90,
      "chip": "ym2612"
    },
    {
      "channel": 5,
      "note": 40,
      "start": 79.6787,
      "duration": 0.0608,
      "velocity": 125,
      "chip": "ym2612"
    },
    {
      "channel": 5,
      "note": 40,
      "start": 79.8097,
      "duration": 0.0632,
      "velocity": 125,
      "chip": "ym2612"
    },
    {
      "channel": 0,
      "note": 32,
      "start": 79.9424,
      "duration": 0.1136,
      "velocity": 90,
      "chip": "ym2612"
    },
    {
      "channel": 0,
      "note": 32,
      "start": 80.0756,
      "duration": 0.0972,
      "velocity": 90,
      "chip": "ym2612"
    },
    {
      "channel": 5,
      "note": 40,
      "start": 80.0784,
      "duration": 0.0611,
      "velocity": 125,
      "chip": "ym2612"
    },
    {
      "channel": 0,
      "note": 44,
      "start": 80.2091,
      "duration": 0.1302,
      "velocity": 90,
      "chip": "ym2612"
    },
    {
      "channel": 5,
      "note": 40,
      "start": 80.2118,
      "duration": 0.0611,
      "velocity": 125,
      "chip": "ym2612"
    },
    {
      "channel": 5,
      "note": 40,
      "start": 80.3426,
      "duration": 0.0635,
      "velocity": 125,
      "chip": "ym2612"
    },
    {
      "channel": 0,
      "note": 44,
      "start": 80.4756,
      "duration": 0.2471,
      "velocity": 90,
      "chip": "ym2612"
    },
    {
      "channel": 5,
      "note": 40,
      "start": 80.4784,
      "duration": 0.0445,
      "velocity": 125,
      "chip": "ym2612"
    },
    {
      "channel": 5,
      "note": 40,
      "start": 80.5926,
      "duration": 0.0637,
      "velocity": 125,
      "chip": "ym2612"
    },
    {
      "channel": 0,
      "note": 32,
      "start": 80.7263,
      "duration": 0.113,
      "velocity": 90,
      "chip": "ym2612"
    },
    {
      "channel": 5,
      "note": 40,
      "start": 80.7292,
      "duration": 0.0602,
      "velocity": 125,
      "chip": "ym2612"
    },
    {
      "channel": 0,
      "note": 32,
      "start": 80.8588,
      "duration": 0.1139,
      "velocity": 90,
      "chip": "ym2612"
    },
    {
      "channel": 0,
      "note": 44,
      "start": 80.9924,
      "duration": 0.1303,
      "velocity": 90,
      "chip": "ym2612"
    },
    {
      "channel": 5,
      "note": 40,
      "start": 80.9953,
      "duration": 0.0609,
      "velocity": 125,
      "chip": "ym2612"
    },
    {
      "channel": 5,
      "note": 40,
      "start": 81.126,
      "duration": 0.0635,
      "velocity": 125,
      "chip": "ym2612"
    },
    {
      "channel": 0,
      "note": 44,
      "start": 81.259,
      "duration": 0.2637,
      "velocity": 90,
      "chip": "ym2612"
    },
    {
      "channel": 5,
      "note": 40,
      "start": 81.2617,
      "duration": 0.0613,
      "velocity": 125,
      "chip": "ym2612"
    },
    {
      "channel": 5,
      "note": 40,
      "start": 81.3926,
      "duration": 0.0636,
      "velocity": 125,
      "chip": "ym2612"
    },
    {
      "channel": 0,
      "note": 44,
      "start": 81.526,
      "duration": 0.1133,
      "velocity": 90,
      "chip": "ym2612"
    },
    {
      "channel": 5,
      "note": 40,
      "start": 81.5287,
      "duration": 0.0443,
      "velocity": 125,
      "chip": "ym2612"
    },
    {
      "channel": 0,
      "note": 43,
      "start": 81.6422,
      "duration": 0.1305,
      "velocity": 90,
      "chip": "ym2612"
    },
    {
      "channel": 5,
      "note": 40,
      "start": 81.6449,
      "duration": 0.0612,
      "velocity": 125,
      "chip": "ym2612"
    },
    {
      "channel": 0,
      "note": 42,
      "start": 81.7756,
      "duration": 0.1303,
      "velocity": 90,
      "chip": "ym2612"
    },
    {
      "channel": 5,
      "note": 40,
      "start": 81.7787,
      "duration": 0.0608,
      "velocity": 125,
      "chip": "ym2612"
    },
    {
      "channel": 0,
      "note": 47,
      "start": 81.9092,
      "duration": 0.03,
      "velocity": 90,
      "chip": "ym2612"
    },
    {
      "channel": 3,
      "note": 45,
      "start": 81.9124,
      "duration": 0.1271,
      "velocity": 90,
      "chip": "ym2612"
    },
    {
      "channel": 5,
      "note": 40,
      "start": 81.9152,
      "duration": 0.0578,
      "velocity": 125,
      "chip": "ym2612"
    },
    {
      "channel": 0,
      "note": 32,
      "start": 82.0424,
      "duration": 0.1136,
      "velocity": 90,
      "chip": "ym2612"
    },
    {
      "channel": 0,
      "note": 32,
      "start": 82.1755,
      "duration": 0.1139,
      "velocity": 90,
      "chip": "ym2612"
    },
    {
      "channel": 5,
      "note": 40,
      "start": 82.1784,
      "duration": 0.0611,
      "velocity": 125,
      "chip": "ym2612"
    },
    {
      "channel": 0,
      "note": 44,
      "start": 82.3092,
      "duration": 0.1302,
      "velocity": 90,
      "chip": "ym2612"
    },
    {
      "channel": 5,
      "note": 40,
      "start": 82.3119,
      "duration": 0.061,
      "velocity": 125,
      "chip": "ym2612"
    },
    {
      "channel": 5,
      "note": 40,
      "start": 82.4427,
      "duration": 0.0635,
      "velocity": 125,
      "chip": "ym2612"
    },
    {
      "channel": 4,
      "note": 44,
      "start": 82.4457,
      "duration": 0.0604,
      "velocity": 112,
      "chip": "ym2612"
    },
    {
      "channel": 0,
      "note": 44,
      "start": 82.5757,
      "duration": 0.247,
      "velocity": 90,
      "chip": "ym2612"
    },
    {
      "channel": 5,
      "note": 40,
      "start": 82.5784,
      "duration": 0.061,
      "velocity": 125,
      "chip": "ym2612"
    },
    {
      "channel": 5,
      "note": 40,
      "start": 82.6926,
      "duration": 0.0635,
      "velocity": 125,
      "chip": "ym2612"
    },
    {
      "channel": 0,
      "note": 32,
      "start": 82.826,
      "duration": 0.1134,
      "velocity": 90,
      "chip": "ym2612"
    },
    {
      "channel": 5,
      "note": 40,
      "start": 82.8288,
      "duration": 0.0607,
      "velocity": 125,
      "chip": "ym2612"
    },
    {
      "channel": 0,
      "note": 32,
      "start": 82.9588,
      "duration": 0.1138,
      "velocity": 90,
      "chip": "ym2612"
    },
    {
      "channel": 0,
      "note": 44,
      "start": 83.0923,
      "duration": 0.1137,
      "velocity": 90,
      "chip": "ym2612"
    },
    {
      "channel": 5,
      "note": 40,
      "start": 83.0952,
      "duration": 0.0611,
      "velocity": 125,
      "chip": "ym2612"
    },
    {
      "channel": 5,
      "note": 40,
      "start": 83.226,
      "duration": 0.0635,
      "velocity": 125,
      "chip": "ym2612"
    },
    {
      "channel": 0,
      "note": 44,
      "start": 83.3593,
      "duration": 0.2634,
      "velocity": 90,
      "chip": "ym2612"
    },
    {
      "channel": 5,
      "note": 40,
      "start": 83.362,
      "duration": 0.0608,
      "velocity": 125,
      "chip": "ym2612"
    },
    {
      "channel": 5,
      "note": 40,
      "start": 83.4926,
      "duration": 0.0637,
      "velocity": 125,
      "chip": "ym2612"
    },
    {
      "channel": 4,
      "note": 44,
      "start": 83.4952,
      "duration": 0.061,
      "velocity": 112,
      "chip": "ym2612"
    },
    {
      "channel": 0,
      "note": 32,
      "start": 83.626,
      "duration": 0.1134,
      "velocity": 90,
      "chip": "ym2612"
    },
    {
      "channel": 5,
      "note": 40,
      "start": 83.629,
      "duration": 0.0604,
      "velocity": 125,
      "chip": "ym2612"
    },
    {
      "channel": 0,
      "note": 44,
      "start": 83.7422,
      "duration": 0.1305,
      "velocity": 90,
      "chip": "ym2612"
    },
    {
      "channel": 5,
      "note": 40,
      "start": 83.745,
      "duration": 0.0612,
      "velocity": 125,
      "chip": "ym2612"
    },
    {
      "channel": 0,
      "note": 45,
      "start": 83.876,
      "duration": 0.2133,
      "velocity": 90,
      "chip": "ym2612"
    },
    {
      "channel": 5,
      "note": 40,
      "start": 83.8786,
      "duration": 0.0609,
      "velocity": 125,
      "chip": "ym2612"
    },
    {
      "channel": 5,
      "note": 40,
      "start": 84.0094,
      "duration": 0.0635,
      "velocity": 125,
      "chip": "ym2612"
    },
    {
      "channel": 0,
      "note": 32,
      "start": 84.1424,
      "duration": 0.1136,
      "velocity": 90,
      "chip": "ym2612"
    },
    {
      "channel": 0,
      "note": 32,
      "start": 84.2756,
      "duration": 0.1138,
      "velocity": 90,
      "chip": "ym2612"
    },
    {
      "channel": 5,
      "note": 40,
      "start": 84.2784,
      "duration": 0.061,
      "velocity": 125,
      "chip": "ym2612"
    },
    {
      "channel": 0,
      "note": 44,
      "start": 84.4092,
      "duration": 0.1302,
      "velocity": 90,
      "chip": "ym2612"
    },
    {
      "channel": 5,
      "note": 40,
      "start": 84.4118,
      "duration": 0.061,
      "velocity": 125,
      "chip": "ym2612"
    },
    {
      "channel": 5,
      "note": 40,
      "start": 84.5427,
      "duration": 0.0635,
      "velocity": 125,
      "chip": "ym2612"
    },
    {
      "channel": 4,
      "note": 44,
      "start": 84.5452,
      "duration": 0.0609,
      "velocity": 112,
      "chip": "ym2612"
    },
    {
      "channel": 0,
      "note": 44,
      "start": 84.6761,
      "duration": 0.2467,
      "velocity": 90,
      "chip": "ym2612"
    },
    {
      "channel": 5,
      "note": 40,
      "start": 84.6788,
      "duration": 0.0607,
      "velocity": 125,
      "chip": "ym2612"
    },
    {
      "channel": 5,
      "note": 40,
      "start": 84.7926,
      "duration": 0.0637,
      "velocity": 125,
      "chip": "ym2612"
    },
    {
      "channel": 0,
      "note": 32,
      "start": 84.926,
      "duration": 0.1134,
      "velocity": 90,
      "chip": "ym2612"
    },
    {
      "channel": 5,
      "note": 40,
      "start": 84.9288,
      "duration": 0.0606,
      "velocity": 125,
      "chip": "ym2612"
    },
    {
      "channel": 0,
      "note": 32,
      "start": 85.0588,
      "duration": 0.1139,
      "velocity": 90,
      "chip": "ym2612"
    },
    {
      "channel": 0,
      "note": 44,
      "start": 85.1924,
      "duration": 0.1303,
      "velocity": 90,
      "chip": "ym2612"
    },
    {
      "channel": 5,
      "note": 40,
      "start": 85.1953,
      "duration": 0.0609,
      "velocity": 125,
      "chip": "ym2612"
    },
    {
      "channel": 5,
      "note": 40,
      "start": 85.326,
      "duration": 0.0635,
      "velocity": 125,
      "chip": "ym2612"
    },
    {
      "channel": 0,
      "note": 44,
      "start": 85.459,
      "duration": 0.2637,
      "velocity": 90,
      "chip": "ym2612"
    },
    {
      "channel": 5,
      "note": 40,
      "start": 85.4621,
      "duration": 0.0608,
      "velocity": 125,
      "chip": "ym2612"
    },
    {
      "channel": 5,
      "note": 40,
      "start": 85.5926,
      "duration": 0.0637,
      "velocity": 125,
      "chip": "ym2612"
    },
    {
      "channel": 4,
      "note": 44,
      "start": 85.5952,
      "duration": 0.061,
      "velocity": 112,
      "chip": "ym2612"
    },
    {
      "channel": 0,
      "note": 44,
      "start": 85.726,
      "duration": 0.1133,
      "velocity": 90,
      "chip": "ym2612"
    },
    {
      "channel": 5,
      "note": 40,
      "start": 85.7287,
      "duration": 0.0609,
      "velocity": 125,
      "chip": "ym2612"
    },
    {
      "channel": 0,
      "note": 43,
      "start": 85.8422,
      "duration": 0.1306,
      "velocity": 90,
      "chip": "ym2612"
    },
    {
      "channel": 5,
      "note": 40,
      "start": 85.8449,
      "duration": 0.0613,
      "velocity": 125,
      "chip": "ym2612"
    },
    {
      "channel": 0,
      "note": 42,
      "start": 85.9756,
      "duration": 0.1304,
      "velocity": 90,
      "chip": "ym2612"
    },
    {
      "channel": 5,
      "note": 40,
      "start": 85.9784,
      "duration": 0.0611,
      "velocity": 125,
      "chip": "ym2612"
    },
    {
      "channel": 0,
      "note": 47,
      "start": 86.1096,
      "duration": 0.0296,
      "velocity": 90,
      "chip": "ym2612"
    },
    {
      "channel": 3,
      "note": 45,
      "start": 86.1123,
      "duration": 0.127,
      "velocity": 90,
      "chip": "ym2612"
    },
    {
      "channel": 1,
      "note": 44,
      "start": 86.115,
      "duration": 0.1078,
      "velocity": 127,
      "chip": "ym2612"
    },
    {
      "channel": 5,
      "note": 44,
      "start": 86.1179,
      "duration": 0.1216,
      "velocity": 125,
      "chip": "ym2612"
    },
    {
      "channel": 0,
      "note": 32,
      "start": 86.2424,
      "duration": 0.1135,
      "velocity": 90,
      "chip": "ym2612"
    },
    {
      "channel": 1,
      "note": 44,
      "start": 86.245,
      "duration": 0.1111,
      "velocity": 127,
      "chip": "ym2612"
    },
    {
      "channel": 0,
      "note": 32,
      "start": 86.3756,
      "duration": 0.1137,
      "velocity": 90,
      "chip": "ym2612"
    },
    {
      "channel": 1,
      "note": 56,
      "start": 86.3784,
      "duration": 0.1276,
      "velocity": 127,
      "chip": "ym2612"
    },
    {
      "channel": 0,
      "note": 44,
      "start": 86.5092,
      "duration": 0.1301,
      "velocity": 90,
      "chip": "ym2612"
    },
    {
      "channel": 1,
      "note": 56,
      "start": 86.6426,
      "duration": 0.2634,
      "velocity": 127,
      "chip": "ym2612"
    },
    {
      "channel": 4,
      "note": 44,
      "start": 86.6453,
      "duration": 0.0609,
      "velocity": 112,
      "chip": "ym2612"
    },
    {
      "channel": 0,
      "note": 44,
      "start": 86.7756,
      "duration": 0.2471,
      "velocity": 90,
      "chip": "ym2612"
    },
    {
      "channel": 1,
      "note": 44,
      "start": 86.9094,
      "duration": 0.0967,
      "velocity": 127,
      "chip": "ym2612"
    },
    {
      "channel": 0,
      "note": 32,
      "start": 87.0263,
      "duration": 0.113,
      "velocity": 90,
      "chip": "ym2612"
    },
    {
      "channel": 1,
      "note": 44,
      "start": 87.0289,
      "duration": 0.1106,
      "velocity": 127,
      "chip": "ym2612"
    },
    {
      "channel": 0,
      "note": 32,
      "start": 87.1588,
      "duration": 0.114,
      "velocity": 90,
      "chip": "ym2612"
    },
    {
      "channel": 1,
      "note": 56,
      "start": 87.1618,
      "duration": 0.1111,
      "velocity": 127,
      "chip": "ym2612"
    },
    {
      "channel": 5,
      "note": 44,
      "start": 87.1646,
      "duration": 0.125,
      "velocity": 125,
      "chip": "ym2612"
    },
    {
      "channel": 0,
      "note": 44,
      "start": 87.2924,
      "duration": 0.1136,
      "velocity": 90,
      "chip": "ym2612"
    },
    {
      "channel": 1,
      "note": 56,
      "start": 87.426,
      "duration": 0.2634,
      "velocity": 127,
      "chip": "ym2612"
    },
    {
      "channel": 5,
      "note": 44,
      "start": 87.4288,
      "duration": 0.1274,
      "velocity": 125,
      "chip": "ym2612"
    },
    {
      "channel": 0,
      "note": 44,
      "start": 87.559,
      "duration": 0.2637,
      "velocity": 90,
      "chip": "ym2612"
    },
    {
      "channel": 1,
      "note": 44,
      "start": 87.6928,
      "duration": 0.13,
      "velocity": 127,
      "chip": "ym2612"
    },
    {
      "channel": 4,
      "note": 44,
      "start": 87.6955,
      "duration": 0.0606,
      "velocity": 112,
      "chip": "ym2612"
    },
    {
      "channel": 0,
      "note": 32,
      "start": 87.8261,
      "duration": 0.13,
      "velocity": 90,
      "chip": "ym2612"
    },
    {
      "channel": 1,
      "note": 56,
      "start": 87.8286,
      "duration": 0.1276,
      "velocity": 127,
      "chip": "ym2612"
    },
    {
      "channel": 0,
      "note": 44,
      "start": 87.959,
      "duration": 0.1137,
      "velocity": 90,
      "chip": "ym2612"
    },
    {
      "channel": 1,
      "note": 57,
      "start": 87.9619,
      "duration": 0.2109,
      "velocity": 127,
      "chip": "ym2612"
    },
    {
      "channel": 0,
      "note": 45,
      "start": 88.076,
      "duration": 0.2301,
      "velocity": 90,
      "chip": "ym2612"
    },
    {
      "channel": 1,
      "note": 44,
      "start": 88.2094,
      "duration": 0.1133,
      "velocity": 127,
      "chip": "ym2612"
    },
    {
      "channel": 5,
      "note": 44,
      "start": 88.2122,
      "duration": 0.1273,
      "velocity": 125,
      "chip": "ym2612"
    },
    {
      "channel": 0,
      "note": 32,
      "start": 88.3426,
      "duration": 0.1134,
      "velocity": 90,
      "chip": "ym2612"
    },
    {
      "channel": 1,
      "note": 44,
      "start": 88.3451,
      "duration": 0.111,
      "velocity": 127,
      "chip": "ym2612"
    },
    {
      "channel": 0,
      "note": 32,
      "start": 88.476,
      "duration": 0.1134,
      "velocity": 90,
      "chip": "ym2612"
    },
    {
      "channel": 1,
      "note": 56,
      "start": 88.4791,
      "duration": 0.1269,
      "velocity": 127,
      "chip": "ym2612"
    },
    {
      "channel": 0,
      "note": 44,
      "start": 88.6092,
      "duration": 0.1301,
      "velocity": 90,
      "chip": "ym2612"
    },
    {
      "channel": 1,
      "note": 56,
      "start": 88.7426,
      "duration": 0.2634,
      "velocity": 127,
      "chip": "ym2612"
    },
    {
      "channel": 4,
      "note": 44,
      "start": 88.7453,
      "duration": 0.0609,
      "velocity": 112,
      "chip": "ym2612"
    },
    {
      "channel": 0,
      "note": 44,
      "start": 88.8756,
      "duration": 0.247,
      "velocity": 90,
      "chip": "ym2612"
    },
    {
      "channel": 1,
      "note": 44,
      "start": 89.0095,
      "duration": 0.0966,
      "velocity": 127,
      "chip": "ym2612"
    },
    {
      "channel": 0,
      "note": 32,
      "start": 89.1259,
      "duration": 0.1134,
      "velocity": 90,
      "chip": "ym2612"
    },
    {
      "channel": 1,
      "note": 44,
      "start": 89.1284,
      "duration": 0.111,
      "velocity": 127,
      "chip": "ym2612"
    },
    {
      "channel": 0,
      "note": 32,
      "start": 89.2588,
      "duration": 0.114,
      "velocity": 90,
      "chip": "ym2612"
    },
    {
      "channel": 1,
      "note": 56,
      "start": 89.2617,
      "duration": 0.1277,
      "velocity": 127,
      "chip": "ym2612"
    },
    {
      "channel": 5,
      "note": 44,
      "start": 89.2644,
      "duration": 0.1251,
      "velocity": 125,
      "chip": "ym2612"
    },
    {
      "channel": 0,
      "note": 44,
      "start": 89.3926,
      "duration": 0.1301,
      "velocity": 90,
      "chip": "ym2612"
    },
    {
      "channel": 1,
      "note": 56,
      "start": 89.526,
      "duration": 0.2634,
      "velocity": 127,
      "chip": "ym2612"
    },
    {
      "channel": 5,
      "note": 44,
      "start": 89.5292,
      "duration": 0.127,
      "velocity": 125,
      "chip": "ym2612"
    },
    {
      "channel": 0,
      "note": 44,
      "start": 89.659,
      "duration": 0.2637,
      "velocity": 90,
      "chip": "ym2612"
    },
    {
      "channel": 1,
      "note": 56,
      "start": 89.7928,
      "duration": 0.13,
      "velocity": 127,
      "chip": "ym2612"
    },
    {
      "channel": 4,
      "note": 44,
      "start": 89.7955,
      "duration": 0.0606,
      "velocity": 112,
      "chip": "ym2612"
    },
    {
      "channel": 0,
      "note": 44,
      "start": 89.9264,
      "duration": 0.1295,
      "velocity": 90,
      "chip": "ym2612"
    },
    {
      "channel": 1,
      "note": 55,
      "start": 89.9293,
      "duration": 0.1268,
      "velocity": 127,
      "chip": "ym2612"
    },
    {
      "channel": 0,
      "note": 43,
      "start": 90.059,
      "duration": 0.1138,
      "velocity": 90,
      "chip": "ym2612"
    },
    {
      "channel": 1,
      "note": 54,
      "start": 90.0615,
      "duration": 0.1115,
      "velocity": 127,
      "chip": "ym2612"
    },
    {
      "channel": 0,
      "note": 42,
      "start": 90.1758,
      "duration": 0.1303,
      "velocity": 90,
      "chip": "ym2612"
    },
    {
      "channel": 1,
      "note": 53,
      "start": 90.1784,
      "duration": 0.111,
      "velocity": 127,
      "chip": "ym2612"
    },
    {
      "channel": 0,
      "note": 47,
      "start": 90.3092,
      "duration": 0.0301,
      "velocity": 90,
      "chip": "ym2612"
    },
    {
      "channel": 3,
      "note": 45,
      "start": 90.312,
      "duration": 0.1109,
      "velocity": 90,
      "chip": "ym2612"
    },
    {
      "channel": 1,
      "note": 44,
      "start": 90.3145,
      "duration": 0.1083,
      "velocity": 127,
      "chip": "ym2612"
    },
    {
      "channel": 5,
      "note": 49,
      "start": 90.3173,
      "duration": 0.1223,
      "velocity": 125,
      "chip": "ym2612"
    },
    {
      "channel": 0,
      "note": 32,
      "start": 90.4423,
      "duration": 0.1137,
      "velocity": 90,
      "chip": "ym2612"
    },
    {
      "channel": 1,
      "note": 44,
      "start": 90.4449,
      "duration": 0.1113,
      "velocity": 127,
      "chip": "ym2612"
    },
    {
      "channel": 0,
      "note": 32,
      "start": 90.5756,
      "duration": 0.1137,
      "velocity": 90,
      "chip": "ym2612"
    },
    {
      "channel": 1,
      "note": 56,
      "start": 90.5784,
      "duration": 0.1276,
      "velocity": 127,
      "chip": "ym2612"
    },
    {
      "channel": 0,
      "note": 44,
      "start": 90.7092,
      "duration": 0.1301,
      "velocity": 90,
      "chip": "ym2612"
    },
    {
      "channel": 1,
      "note": 56,
      "start": 90.8426,
      "duration": 0.2635,
      "velocity": 127,
      "chip": "ym2612"
    },
    {
      "channel": 4,
      "note": 44,
      "start": 90.8453,
      "duration": 0.0609,
      "velocity": 112,
      "chip": "ym2612"
    },
    {
      "channel": 0,
      "note": 44,
      "start": 90.9761,
      "duration": 0.2466,
      "velocity": 90,
      "chip": "ym2612"
    },
    {
      "channel": 1,
      "note": 44,
      "start": 91.1095,
      "duration": 0.0965,
      "velocity": 127,
      "chip": "ym2612"
    },
    {
      "channel": 0,
      "note": 32,
      "start": 91.226,
      "duration": 0.1134,
      "velocity": 90,
      "chip": "ym2612"
    },
    {
      "channel": 1,
      "note": 44,
      "start": 91.2285,
      "duration": 0.111,
      "velocity": 127,
      "chip": "ym2612"
    },
    {
      "channel": 0,
      "note": 32,
      "start": 91.3588,
      "duration": 0.114,
      "velocity": 90,
      "chip": "ym2612"
    },
    {
      "channel": 1,
      "note": 56,
      "start": 91.3619,
      "duration": 0.111,
      "velocity": 127,
      "chip": "ym2612"
    },
    {
      "channel": 5,
      "note": 49,
      "start": 91.3646,
      "duration": 0.1249,
      "velocity": 125,
      "chip": "ym2612"
    },
    {
      "channel": 0,
      "note": 44,
      "start": 91.4924,
      "duration": 0.1136,
      "velocity": 90,
      "chip": "ym2612"
    },
    {
      "channel": 1,
      "note": 56,
      "start": 91.626,
      "duration": 0.2634,
      "velocity": 127,
      "chip": "ym2612"
    },
    {
      "channel": 5,
      "note": 49,
      "start": 91.6288,
      "duration": 0.1274,
      "velocity": 125,
      "chip": "ym2612"
    },
    {
      "channel": 0,
      "note": 44,
      "start": 91.7591,
      "duration": 0.2636,
      "velocity": 90,
      "chip": "ym2612"
    },
    {
      "channel": 1,
      "note": 44,
      "start": 91.8928,
      "duration": 0.13,
      "velocity": 127,
      "chip": "ym2612"
    },
    {
      "channel": 4,
      "note": 44,
      "start": 91.8959,
      "duration": 0.0603,
      "velocity": 112,
      "chip": "ym2612"
    },
    {
      "channel": 0,
      "note": 32,
      "start": 92.026,
      "duration": 0.13,
      "velocity": 90,
      "chip": "ym2612"
    },
    {
      "channel": 1,
      "note": 56,
      "start": 92.0285,
      "duration": 0.1276,
      "velocity": 127,
      "chip": "ym2612"
    },
    {
      "channel": 0,
      "note": 44,
      "start": 92.159,
      "duration": 0.1137,
      "velocity": 90,
      "chip": "ym2612"
    },
    {
      "channel": 1,
      "note": 57,
      "start": 92.1618,
      "duration": 0.2109,
      "velocity": 127,
      "chip": "ym2612"
    },
    {
      "channel": 0,
      "note": 45,
      "start": 92.2759,
      "duration": 0.2301,
      "velocity": 90,
      "chip": "ym2612"
    },
    {
      "channel": 1,
      "note": 44,
      "start": 92.4094,
      "duration": 0.1134,
      "velocity": 127,
      "chip": "ym2612"
    },
    {
      "channel": 5,
      "note": 49,
      "start": 92.4121,
      "duration": 0.1273,
      "velocity": 125,
      "chip": "ym2612"
    },
    {
      "channel": 0,
      "note": 32,
      "start": 92.5428,
      "duration": 0.1131,
      "velocity": 90,
      "chip": "ym2612"
    },
    {
      "channel": 1,
      "note": 44,
      "start": 92.5454,
      "duration": 0.1107,
      "velocity": 127,
      "chip": "ym2612"
    },
    {
      "channel": 0,
      "note": 32,
      "start": 92.6756,
      "duration": 0.1138,
      "velocity": 90,
      "chip": "ym2612"
    },
    {
      "channel": 1,
      "note": 56,
      "start": 92.6788,
      "duration": 0.1272,
      "velocity": 127,
      "chip": "ym2612"
    },
    {
      "channel": 0,
      "note": 44,
      "start": 92.8092,
      "duration": 0.1301,
      "velocity": 90,
      "chip": "ym2612"
    },
    {
      "channel": 1,
      "note": 56,
      "start": 92.9426,
      "duration": 0.2634,
      "velocity": 127,
      "chip": "ym2612"
    },
    {
      "channel": 4,
      "note": 44,
      "start": 92.9452,
      "duration": 0.0609,
      "velocity": 112,
      "chip": "ym2612"
    },
    {
      "channel": 0,
      "note": 44,
      "start": 93.0757,
      "duration": 0.2471,
      "velocity": 90,
      "chip": "ym2612"
    },
    {
      "channel": 1,
      "note": 44,
      "start": 93.2094,
      "duration": 0.0967,
      "velocity": 127,
      "chip": "ym2612"
    },
    {
      "channel": 0,
      "note": 32,
      "start": 93.326,
      "duration": 0.1134,
      "velocity": 90,
      "chip": "ym2612"
    },
    {
      "channel": 1,
      "note": 44,
      "start": 93.3285,
      "duration": 0.111,
      "velocity": 127,
      "chip": "ym2612"
    },
    {
      "channel": 0,
      "note": 32,
      "start": 93.4588,
      "duration": 0.1139,
      "velocity": 90,
      "chip": "ym2612"
    },
    {
      "channel": 1,
      "note": 56,
      "start": 93.4617,
      "duration": 0.1277,
      "velocity": 127,
      "chip": "ym2612"
    },
    {
      "channel": 5,
      "note": 49,
      "start": 93.4644,
      "duration": 0.1251,
      "velocity": 125,
      "chip": "ym2612"
    },
    {
      "channel": 0,
      "note": 44,
      "start": 93.5926,
      "duration": 0.1302,
      "velocity": 90,
      "chip": "ym2612"
    },
    {
      "channel": 1,
      "note": 56,
      "start": 93.726,
      "duration": 0.2633,
      "velocity": 127,
      "chip": "ym2612"
    },
    {
      "channel": 5,
      "note": 49,
      "start": 93.7288,
      "duration": 0.1274,
      "velocity": 125,
      "chip": "ym2612"
    },
    {
      "channel": 0,
      "note": 44,
      "start": 93.8595,
      "duration": 0.2633,
      "velocity": 90,
      "chip": "ym2612"
    },
    {
      "channel": 1,
      "note": 56,
      "start": 93.9928,
      "duration": 0.1301,
      "velocity": 127,
      "chip": "ym2612"
    },
    {
      "channel": 4,
      "note": 44,
      "start": 93.9957,
      "duration": 0.0604,
      "velocity": 112,
      "chip": "ym2612"
    },
    {
      "channel": 0,
      "note": 44,
      "start": 94.1261,
      "duration": 0.13,
      "velocity": 90,
      "chip": "ym2612"
    },
    {
      "channel": 1,
      "note": 55,
      "start": 94.1286,
      "duration": 0.1275,
      "velocity": 127,
      "chip": "ym2612"
    },
    {
      "channel": 0,
      "note": 43,
      "start": 94.259,
      "duration": 0.1137,
      "velocity": 90,
      "chip": "ym2612"
    },
    {
      "channel": 1,
      "note": 54,
      "start": 94.262,
      "duration": 0.1109,
      "velocity": 127,
      "chip": "ym2612"
    },
    {
      "channel": 5,
      "note": 49,
      "start": 94.2651,
      "duration": 0.108,
      "velocity": 125,
      "chip": "ym2612"
    },
    {
      "channel": 0,
      "note": 42,
      "start": 94.3763,
      "duration": 0.113,
      "velocity": 90,
      "chip": "ym2612"
    },
    {
      "channel": 1,
      "note": 53,
      "start": 94.379,
      "duration": 0.1104,
      "velocity": 127,
      "chip": "ym2612"
    },
    {
      "channel": 1,
      "note": 44,
      "start": 94.5091,
      "duration": 0.1137,
      "velocity": 127,
      "chip": "ym2612"
    },
    {
      "channel": 1,
      "note": 44,
      "start": 94.6424,
      "duration": 0.1137,
      "velocity": 127,
      "chip": "ym2612"
    },
    {
      "channel": 1,
      "note": 56,
      "start": 94.7761,
      "duration": 0.1298,
      "velocity": 127,
      "chip": "ym2612"
    },
    {
      "channel": 1,
      "note": 56,
      "start": 95.0426,
      "duration": 0.2634,
      "velocity": 127,
      "chip": "ym2612"
    },
    {
      "channel": 1,
      "note": 44,
      "start": 95.3095,
      "duration": 0.0966,
      "velocity": 127,
      "chip": "ym2612"
    },
    {
      "channel": 1,
      "note": 44,
      "start": 95.4425,
      "duration": 0.0968,
      "velocity": 127,
      "chip": "ym2612"
    },
    {
      "channel": 1,
      "note": 56,
      "start": 95.5592,
      "duration": 0.1136,
      "velocity": 127,
      "chip": "ym2612"
    },
    {
      "channel": 1,
      "note": 56,
      "start": 95.8263,
      "duration": 0.263,
      "velocity": 127,
      "chip": "ym2612"
    },
    {
      "channel": 1,
      "note": 44,
      "start": 96.0928,
      "duration": 0.1299,
      "velocity": 127,
      "chip": "ym2612"
    },
    {
      "channel": 1,
      "note": 56,
      "start": 96.2258,
      "duration": 0.1302,
      "velocity": 127,
      "chip": "ym2612"
    },
    {
      "channel": 1,
      "note": 57,
      "start": 96.3595,
      "duration": 0.2132,
      "velocity": 127,
      "chip": "ym2612"
    },
    {
      "channel": 1,
      "note": 44,
      "start": 96.6094,
      "duration": 0.1133,
      "velocity": 127,
      "chip": "ym2612"
    },
    {
      "channel": 1,
      "note": 44,
      "start": 96.7424,
      "duration": 0.1136,
      "velocity": 127,
      "chip": "ym2612"
    },
    {
      "channel": 1,
      "note": 56,
      "start": 96.8761,
      "duration": 0.1299,
      "velocity": 127,
      "chip": "ym2612"
    },
    {
      "channel": 1,
      "note": 56,
      "start": 97.1432,
      "duration": 0.2629,
      "velocity": 127,
      "chip": "ym2612"
    },
    {
      "channel": 1,
      "note": 44,
      "start": 97.4095,
      "duration": 0.0965,
      "velocity": 127,
      "chip": "ym2612"
    },
    {
      "channel": 1,
      "note": 44,
      "start": 97.5425,
      "duration": 0.0968,
      "velocity": 127,
      "chip": "ym2612"
    },
    {
      "channel": 1,
      "note": 56,
      "start": 97.6594,
      "duration": 0.13,
      "velocity": 127,
      "chip": "ym2612"
    },
    {
      "channel": 1,
      "note": 56,
      "start": 97.926,
      "duration": 0.2632,
      "velocity": 127,
      "chip": "ym2612"
    },
    {
      "channel": 1,
      "note": 56,
      "start": 98.1927,
      "duration": 0.13,
      "velocity": 127,
      "chip": "ym2612"
    },
    {
      "channel": 1,
      "note": 55,
      "start": 98.3259,
      "duration": 0.1302,
      "velocity": 127,
      "chip": "ym2612"
    },
    {
      "channel": 1,
      "note": 54,
      "start": 98.4592,
      "duration": 0.1301,
      "velocity": 127,
      "chip": "ym2612"
    },
    {
      "channel": 1,
      "note": 53,
      "start": 98.5932,
      "duration": 0.0961,
      "velocity": 127,
      "chip": "ym2612"
    }
  ]
}