{
  "track_name": "14 - Final Boss (Part 3)",
  "duration_sec": 23.27,
  "sample_rate": 44100,
  "note_count": 1810,
  "unique_pitches": 85,
  "pitch_range": 92,
  "avg_note_duration": 0.0517,
  "reconstruction_stats": {
    "notes_reconstructed": 1810,
    "keyon_events": 1810,
    "keyoff_events": 1805,
    "orphan_keyons": 5,
    "unique_pitches": 85,
    "pitch_range": 92,
    "avg_duration_sec": 0.0517
  },
  "metadata": {
    "source": "M\\Mega Bomberman\\14 - Final Boss (Part 3).vgz"
  },
  "notes": [
    {
      "channel": 0,
      "note": 46,
      "start": 0.0,
      "duration": 0.0,
      "velocity": 101,
      "chip": "ym2612"
    },
    {
      "channel": 0,
      "note": 34,
      "start": 0.0,
      "duration": 0.0,
      "velocity": 101,
      "chip": "ym2612"
    },
    {
      "channel": 0,
      "note": 46,
      "start": 0.0,
      "duration": 0.0,
      "velocity": 101,
      "chip": "ym2612"
    },
    {
      "channel": 0,
      "note": 46,
      "start": 0.0,
      "duration": 0.0,
      "velocity": 101,
      "chip": "ym2612"
    },
    {
      "channel": 0,
      "note": 34,
      "start": 0.0,
      "duration": 0.0,
      "velocity": 101,
      "chip": "ym2612"
    },
    {
      "channel": 0,
      "note": 46,
      "start": 0.0,
      "duration": 0.0,
      "velocity": 101,
      "chip": "ym2612"
    },
    {
      "channel": 0,
      "note": 46,
      "start": 0.0,
      "duration": 0.0,
      "velocity": 101,
      "chip": "ym2612"
    },
    {
      "channel": 0,
      "note": 34,
      "start": 0.0,
      "duration": 0.0,
      "velocity": 101,
      "chip": "ym2612"
    },
    {
      "channel": 0,
      "note": 46,
      "start": 0.0,
      "duration": 0.0,
      "velocity": 101,
      "chip": "ym2612"
    },
    {
      "channel": 0,
      "note": 46,
      "start": 0.0,
      "duration": 0.0,
      "velocity": 101,
      "chip": "ym2612"
    },
    {
      "channel": 0,
      "note": 34,
      "start": 0.0,
      "duration": 0.0,
      "velocity": 101,
      "chip": "ym2612"
    },
    {
      "channel": 0,
      "note": 46,
      "start": 0.0,
      "duration": 0.0,
      "velocity": 101,
      "chip": "ym2612"
    },
    {
      "channel": 0,
      "note": 46,
      "start": 0.0,
      "duration": 0.0487,
      "velocity": 103,
      "chip": "ym2612"
    },
    {
      "channel": 1,
      "note": 93,
      "start": 0.0,
      "duration": 0.0,
      "velocity": 91,
      "chip": "ym2612"
    },
    {
      "channel": 1,
      "note": 93,
      "start": 0.0,
      "duration": 0.0,
      "velocity": 91,
      "chip": "ym2612"
    },
    {
      "channel": 1,
      "note": 93,
      "start": 0.0,
      "duration": 0.0,
      "velocity": 91,
      "chip": "ym2612"
    },
    {
      "channel": 1,
      "note": 93,
      "start": 0.0,
      "duration": 0.0,
      "velocity": 91,
      "chip": "ym2612"
    },
    {
      "channel": 1,
      "note": 93,
      "start": 0.0,
      "duration": 0.0,
      "velocity": 91,
      "chip": "ym2612"
    },
    {
      "channel": 1,
      "note": 93,
      "start": 0.0,
      "duration": 0.0,
      "velocity": 91,
      "chip": "ym2612"
    },
    {
      "channel": 1,
      "note": 93,
      "start": 0.0,
      "duration": 0.0,
      "velocity": 91,
      "chip": "ym2612"
    },
    {
      "channel": 1,
      "note": 93,
      "start": 0.0,
      "duration": 0.0,
      "velocity": 91,
      "chip": "ym2612"
    },
    {
      "channel": 2,
      "note": 74,
      "start": 0.0,
      "duration": 0.0,
      "velocity": 127,
      "chip": "ym2612"
    },
    {
      "channel": 2,
      "note": 74,
      "start": 0.0,
      "duration": 0.0,
      "velocity": 127,
      "chip": "ym2612"
    },
    {
      "channel": 2,
      "note": 74,
      "start": 0.0,
      "duration": 0.0,
      "velocity": 127,
      "chip": "ym2612"
    },
    {
      "channel": 2,
      "note": 74,
      "start": 0.0,
      "duration": 0.0,
      "velocity": 127,
      "chip": "ym2612"
    },
    {
      "channel": 2,
      "note": 74,
      "start": 0.0,
      "duration": 0.0,
      "velocity": 127,
      "chip": "ym2612"
    },
    {
      "channel": 2,
      "note": 74,
      "start": 0.0,
      "duration": 0.0,
      "velocity": 127,
      "chip": "ym2612"
    },
    {
      "channel": 2,
      "note": 74,
      "start": 0.0,
      "duration": 0.0,
      "velocity": 127,
      "chip": "ym2612"
    },
    {
      "channel": 2,
      "note": 74,
      "start": 0.0,
      "duration": 0.0,
      "velocity": 127,
      "chip": "ym2612"
    },
    {
      "channel": 2,
      "note": 74,
      "start": 0.0,
      "duration": 0.0,
      "velocity": 127,
      "chip": "ym2612"
    },
    {
      "channel": 2,
      "note": 74,
      "start": 0.0,
      "duration": 0.0,
      "velocity": 127,
      "chip": "ym2612"
    },
    {
      "channel": 2,
      "note": 74,
      "start": 0.0,
      "duration": 0.0,
      "velocity": 127,
      "chip": "ym2612"
    },
    {
      "channel": 2,
      "note": 74,
      "start": 0.0,
      "duration": 0.0,
      "velocity": 127,
      "chip": "ym2612"
    },
    {
      "channel": 2,
      "note": 74,
      "start": 0.0,
      "duration": 0.0,
      "velocity": 127,
      "chip": "ym2612"
    },
    {
      "channel": 2,
      "note": 74,
      "start": 0.0,
      "duration": 0.0,
      "velocity": 127,
      "chip": "ym2612"
    },
    {
      "channel": 2,
      "note": 74,
      "start": 0.0,
      "duration": 0.0,
      "velocity": 127,
      "chip": "ym2612"
    },
    {
      "channel": 3,
      "note": 86,
      "start": 0.0,
      "duration": 0.0,
      "velocity": 91,
      "chip": "ym2612"
    },
    {
      "channel": 3,
      "note": 86,
      "start": 0.0,
      "duration": 0.0,
      "velocity": 91,
      "chip": "ym2612"
    },
    {
      "channel": 3,
      "note": 86,
      "start": 0.0,
      "duration": 0.0,
      "velocity": 91,
      "chip": "ym2612"
    },
    {
      "channel": 3,
      "note": 86,
      "start": 0.0,
      "duration": 0.0,
      "velocity": 91,
      "chip": "ym2612"
    },
    {
      "channel": 3,
      "note": 86,
      "start": 0.0,
      "duration": 0.0,
      "velocity": 91,
      "chip": "ym2612"
    },
    {
      "channel": 3,
      "note": 86,
      "start": 0.0,
      "duration": 0.0,
      "velocity": 91,
      "chip": "ym2612"
    },
    {
      "channel": 3,
      "note": 86,
      "start": 0.0,
      "duration": 0.0,
      "velocity": 91,
      "chip": "ym2612"
    },
    {
      "channel": 3,
      "note": 86,
      "start": 0.0,
      "duration": 0.0,
      "velocity": 91,
      "chip": "ym2612"
    },
    {
      "channel": 4,
      "note": 89,
      "start": 0.0,
      "duration": 0.0,
      "velocity": 91,
      "chip": "ym2612"
    },
    {
      "channel": 4,
      "note": 89,
      "start": 0.0,
      "duration": 0.0,
      "velocity": 91,
      "chip": "ym2612"
    },
    {
      "channel": 4,
      "note": 89,
      "start": 0.0,
      "duration": 0.0,
      "velocity": 91,
      "chip": "ym2612"
    },
    {
      "channel": 4,
      "note": 89,
      "start": 0.0,
      "duration": 0.0,
      "velocity": 91,
      "chip": "ym2612"
    },
    {
      "channel": 4,
      "note": 89,
      "start": 0.0,
      "duration": 0.0,
      "velocity": 91,
      "chip": "ym2612"
    },
    {
      "channel": 4,
      "note": 89,
      "start": 0.0,
      "duration": 0.0,
      "velocity": 91,
      "chip": "ym2612"
    },
    {
      "channel": 4,
      "note": 89,
      "start": 0.0,
      "duration": 0.0,
      "velocity": 91,
      "chip": "ym2612"
    },
    {
      "channel": 4,
      "note": 89,
      "start": 0.0,
      "duration": 0.0,
      "velocity": 91,
      "chip": "ym2612"
    },
    {
      "channel": 5,
      "note": 25,
      "start": 0.0,
      "duration": 0.0,
      "velocity": 127,
      "chip": "ym2612"
    },
    {
      "channel": 5,
      "note": 25,
      "start": 0.0,
      "duration": 0.0,
      "velocity": 127,
      "chip": "ym2612"
    },
    {
      "channel": 5,
      "note": 25,
      "start": 0.0,
      "duration": 0.0,
      "velocity": 127,
      "chip": "ym2612"
    },
    {
      "channel": 5,
      "note": 42,
      "start": 0.0,
      "duration": 0.0,
      "velocity": 127,
      "chip": "ym2612"
    },
    {
      "channel": 5,
      "note": 25,
      "start": 0.0,
      "duration": 0.0,
      "velocity": 127,
      "chip": "ym2612"
    },
    {
      "channel": 5,
      "note": 25,
      "start": 0.0,
      "duration": 0.0,
      "velocity": 127,
      "chip": "ym2612"
    },
    {
      "channel": 5,
      "note": 25,
      "start": 0.0,
      "duration": 0.0,
      "velocity": 127,
      "chip": "ym2612"
    },
    {
      "channel": 5,
      "note": 25,
      "start": 0.0,
      "duration": 0.0,
      "velocity": 127,
      "chip": "ym2612"
    },
    {
      "channel": 5,
      "note": 42,
      "start": 0.0,
      "duration": 0.0,
      "velocity": 127,
      "chip": "ym2612"
    },
    {
      "channel": 3,
      "note": 86,
      "start": 0.003,
      "duration": 0.0459,
      "velocity": 103,
      "chip": "ym2612"
    },
    {
      "channel": 1,
      "note": 93,
      "start": 0.0054,
      "duration": 0.0436,
      "velocity": 103,
      "chip": "ym2612"
    },
    {
      "channel": 4,
      "note": 89,
      "start": 0.0078,
      "duration": 0.0414,
      "velocity": 103,
      "chip": "ym2612"
    },
    {
      "channel": 2,
      "note": 74,
      "start": 0.0105,
      "duration": 0.069,
      "velocity": 95,
      "chip": "ym2612"
    },
    {
      "channel": 5,
      "note": 42,
      "start": 0.0131,
      "duration": 0.0883,
      "velocity": 127,
      "chip": "ym2612"
    },
    {
      "channel": 0,
      "note": 40,
      "start": 0.0566,
      "duration": 0.0436,
      "velocity": 103,
      "chip": "ym2612"
    },
    {
      "channel": 3,
      "note": 39,
      "start": 0.0581,
      "duration": 0.0423,
      "velocity": 103,
      "chip": "ym2612"
    },
    {
      "channel": 1,
      "note": 33,
      "start": 0.0596,
      "duration": 0.0409,
      "velocity": 103,
      "chip": "ym2612"
    },
    {
      "channel": 4,
      "note": 32,
      "start": 0.0611,
      "duration": 0.0396,
      "velocity": 103,
      "chip": "ym2612"
    },
    {
      "channel": 0,
      "note": 40,
      "start": 0.1096,
      "duration": 0.0478,
      "velocity": 103,
      "chip": "ym2612"
    },
    {
      "channel": 3,
      "note": 39,
      "start": 0.1113,
      "duration": 0.0463,
      "velocity": 103,
      "chip": "ym2612"
    },
    {
      "channel": 1,
      "note": 33,
      "start": 0.113,
      "duration": 0.0447,
      "velocity": 103,
      "chip": "ym2612"
    },
    {
      "channel": 4,
      "note": 32,
      "start": 0.1146,
      "duration": 0.0432,
      "velocity": 103,
      "chip": "ym2612"
    },
    {
      "channel": 2,
      "note": 93,
      "start": 0.1164,
      "duration": 0.072,
      "velocity": 95,
      "chip": "ym2612"
    },
    {
      "channel": 5,
      "note": 25,
      "start": 0.1178,
      "duration": 0.0922,
      "velocity": 127,
      "chip": "ym2612"
    },
    {
      "channel": 0,
      "note": 45,
      "start": 0.1646,
      "duration": 0.0442,
      "velocity": 103,
      "chip": "ym2612"
    },
    {
      "channel": 3,
      "note": 44,
      "start": 0.1661,
      "duration": 0.0429,
      "velocity": 103,
      "chip": "ym2612"
    },
    {
      "channel": 1,
      "note": 38,
      "start": 0.1676,
      "duration": 0.0415,
      "velocity": 103,
      "chip": "ym2612"
    },
    {
      "channel": 4,
      "note": 37,
      "start": 0.1697,
      "duration": 0.0396,
      "velocity": 103,
      "chip": "ym2612"
    },
    {
      "channel": 0,
      "note": 45,
      "start": 0.2176,
      "duration": 0.0485,
      "velocity": 103,
      "chip": "ym2612"
    },
    {
      "channel": 3,
      "note": 44,
      "start": 0.2199,
      "duration": 0.0463,
      "velocity": 103,
      "chip": "ym2612"
    },
    {
      "channel": 1,
      "note": 38,
      "start": 0.2216,
      "duration": 0.0448,
      "velocity": 103,
      "chip": "ym2612"
    },
    {
      "channel": 4,
      "note": 37,
      "start": 0.2233,
      "duration": 0.0433,
      "velocity": 103,
      "chip": "ym2612"
    },
    {
      "channel": 2,
      "note": 93,
      "start": 0.226,
      "duration": 0.0922,
      "velocity": 127,
      "chip": "ym2612"
    },
    {
      "channel": 5,
      "note": 25,
      "start": 0.2277,
      "duration": 0.0906,
      "velocity": 127,
      "chip": "ym2612"
    },
    {
      "channel": 0,
      "note": 52,
      "start": 0.2739,
      "duration": 0.0436,
      "velocity": 103,
      "chip": "ym2612"
    },
    {
      "channel": 3,
      "note": 51,
      "start": 0.2755,
      "duration": 0.0422,
      "velocity": 103,
      "chip": "ym2612"
    },
    {
      "channel": 1,
      "note": 45,
      "start": 0.2769,
      "duration": 0.0409,
      "velocity": 103,
      "chip": "ym2612"
    },
    {
      "channel": 4,
      "note": 44,
      "start": 0.2784,
      "duration": 0.0396,
      "velocity": 103,
      "chip": "ym2612"
    },
    {
      "channel": 0,
      "note": 52,
      "start": 0.3256,
      "duration": 0.044,
      "velocity": 103,
      "chip": "ym2612"
    },
    {
      "channel": 3,
      "note": 51,
      "start": 0.3274,
      "duration": 0.0424,
      "velocity": 103,
      "chip": "ym2612"
    },
    {
      "channel": 1,
      "note": 45,
      "start": 0.329,
      "duration": 0.0409,
      "velocity": 103,
      "chip": "ym2612"
    },
    {
      "channel": 4,
      "note": 44,
      "start": 0.3307,
      "duration": 0.0394,
      "velocity": 103,
      "chip": "ym2612"
    },
    {
      "channel": 5,
      "note": 25,
      "start": 0.3329,
      "duration": 0.0887,
      "velocity": 127,
      "chip": "ym2612"
    },
    {
      "channel": 0,
      "note": 57,
      "start": 0.3768,
      "duration": 0.0436,
      "velocity": 103,
      "chip": "ym2612"
    },
    {
      "channel": 3,
      "note": 56,
      "start": 0.3783,
      "duration": 0.0423,
      "velocity": 103,
      "chip": "ym2612"
    },
    {
      "channel": 1,
      "note": 50,
      "start": 0.3798,
      "duration": 0.0409,
      "velocity": 103,
      "chip": "ym2612"
    },
    {
      "channel": 4,
      "note": 49,
      "start": 0.3813,
      "duration": 0.0396,
      "velocity": 103,
      "chip": "ym2612"
    },
    {
      "channel": 0,
      "note": 57,
      "start": 0.4292,
      "duration": 0.0484,
      "velocity": 103,
      "chip": "ym2612"
    },
    {
      "channel": 3,
      "note": 56,
      "start": 0.4309,
      "duration": 0.0469,
      "velocity": 103,
      "chip": "ym2612"
    },
    {
      "channel": 1,
      "note": 50,
      "start": 0.4326,
      "duration": 0.0454,
      "velocity": 103,
      "chip": "ym2612"
    },
    {
      "channel": 4,
      "note": 49,
      "start": 0.4342,
      "duration": 0.0439,
      "velocity": 103,
      "chip": "ym2612"
    },
    {
      "channel": 2,
      "note": 90,
      "start": 0.4376,
      "duration": 0.0707,
      "velocity": 95,
      "chip": "ym2612"
    },
    {
      "channel": 5,
      "note": 25,
      "start": 0.4402,
      "duration": 0.0682,
      "velocity": 127,
      "chip": "ym2612"
    },
    {
      "channel": 0,
      "note": 64,
      "start": 0.4849,
      "duration": 0.0442,
      "velocity": 103,
      "chip": "ym2612"
    },
    {
      "channel": 3,
      "note": 63,
      "start": 0.487,
      "duration": 0.0423,
      "velocity": 103,
      "chip": "ym2612"
    },
    {
      "channel": 1,
      "note": 57,
      "start": 0.4885,
      "duration": 0.0409,
      "velocity": 103,
      "chip": "ym2612"
    },
    {
      "channel": 4,
      "note": 56,
      "start": 0.49,
      "duration": 0.0396,
      "velocity": 103,
      "chip": "ym2612"
    },
    {
      "channel": 0,
      "note": 64,
      "start": 0.5379,
      "duration": 0.0426,
      "velocity": 103,
      "chip": "ym2612"
    },
    {
      "channel": 3,
      "note": 63,
      "start": 0.5396,
      "duration": 0.0411,
      "velocity": 103,
      "chip": "ym2612"
    },
    {
      "channel": 1,
      "note": 57,
      "start": 0.5413,
      "duration": 0.0396,
      "velocity": 103,
      "chip": "ym2612"
    },
    {
      "channel": 4,
      "note": 56,
      "start": 0.543,
      "duration": 0.038,
      "velocity": 103,
      "chip": "ym2612"
    },
    {
      "channel": 2,
      "note": 93,
      "start": 0.5447,
      "duration": 0.0665,
      "velocity": 95,
      "chip": "ym2612"
    },
    {
      "channel": 0,
      "note": 69,
      "start": 0.5884,
      "duration": 0.0436,
      "velocity": 103,
      "chip": "ym2612"
    },
    {
      "channel": 3,
      "note": 68,
      "start": 0.5899,
      "duration": 0.0423,
      "velocity": 103,
      "chip": "ym2612"
    },
    {
      "channel": 1,
      "note": 62,
      "start": 0.5914,
      "duration": 0.0409,
      "velocity": 103,
      "chip": "ym2612"
    },
    {
      "channel": 4,
      "note": 61,
      "start": 0.5929,
      "duration": 0.0396,
      "velocity": 103,
      "chip": "ym2612"
    },
    {
      "channel": 0,
      "note": 69,
      "start": 0.6417,
      "duration": 0.0475,
      "velocity": 103,
      "chip": "ym2612"
    },
    {
      "channel": 3,
      "note": 68,
      "start": 0.6434,
      "duration": 0.0459,
      "velocity": 103,
      "chip": "ym2612"
    },
    {
      "channel": 1,
      "note": 62,
      "start": 0.6451,
      "duration": 0.0444,
      "velocity": 103,
      "chip": "ym2612"
    },
    {
      "channel": 4,
      "note": 61,
      "start": 0.6468,
      "duration": 0.0429,
      "velocity": 103,
      "chip": "ym2612"
    },
    {
      "channel": 2,
      "note": 93,
      "start": 0.6494,
      "duration": 0.0918,
      "velocity": 127,
      "chip": "ym2612"
    },
    {
      "channel": 5,
      "note": 42,
      "start": 0.6523,
      "duration": 0.0891,
      "velocity": 127,
      "chip": "ym2612"
    },
    {
      "channel": 0,
      "note": 76,
      "start": 0.6964,
      "duration": 0.0442,
      "velocity": 103,
      "chip": "ym2612"
    },
    {
      "channel": 3,
      "note": 75,
      "start": 0.6979,
      "duration": 0.0429,
      "velocity": 103,
      "chip": "ym2612"
    },
    {
      "channel": 1,
      "note": 69,
      "start": 0.6994,
      "duration": 0.0415,
      "velocity": 103,
      "chip": "ym2612"
    },
    {
      "channel": 4,
      "note": 68,
      "start": 0.7009,
      "duration": 0.0402,
      "velocity": 103,
      "chip": "ym2612"
    },
    {
      "channel": 0,
      "note": 76,
      "start": 0.7482,
      "duration": 0.044,
      "velocity": 103,
      "chip": "ym2612"
    },
    {
      "channel": 3,
      "note": 75,
      "start": 0.7499,
      "duration": 0.0424,
      "velocity": 103,
      "chip": "ym2612"
    },
    {
      "channel": 1,
      "note": 69,
      "start": 0.7515,
      "duration": 0.0409,
      "velocity": 103,
      "chip": "ym2612"
    },
    {
      "channel": 4,
      "note": 68,
      "start": 0.7539,
      "duration": 0.0387,
      "velocity": 103,
      "chip": "ym2612"
    },
    {
      "channel": 5,
      "note": 25,
      "start": 0.7561,
      "duration": 0.0886,
      "velocity": 127,
      "chip": "ym2612"
    },
    {
      "channel": 0,
      "note": 81,
      "start": 0.7994,
      "duration": 0.0442,
      "velocity": 103,
      "chip": "ym2612"
    },
    {
      "channel": 3,
      "note": 80,
      "start": 0.8008,
      "duration": 0.0429,
      "velocity": 103,
      "chip": "ym2612"
    },
    {
      "channel": 1,
      "note": 74,
      "start": 0.803,
      "duration": 0.0408,
      "velocity": 103,
      "chip": "ym2612"
    },
    {
      "channel": 4,
      "note": 73,
      "start": 0.8045,
      "duration": 0.0396,
      "velocity": 103,
      "chip": "ym2612"
    },
    {
      "channel": 0,
      "note": 81,
      "start": 0.8537,
      "duration": 0.0471,
      "velocity": 103,
      "chip": "ym2612"
    },
    {
      "channel": 3,
      "note": 80,
      "start": 0.8554,
      "duration": 0.0455,
      "velocity": 103,
      "chip": "ym2612"
    },
    {
      "channel": 1,
      "note": 74,
      "start": 0.8571,
      "duration": 0.044,
      "velocity": 103,
      "chip": "ym2612"
    },
    {
      "channel": 4,
      "note": 73,
      "start": 0.8588,
      "duration": 0.0424,
      "velocity": 103,
      "chip": "ym2612"
    },
    {
      "channel": 2,
      "note": 90,
      "start": 0.8615,
      "duration": 0.0699,
      "velocity": 95,
      "chip": "ym2612"
    },
    {
      "channel": 5,
      "note": 25,
      "start": 0.8632,
      "duration": 0.0908,
      "velocity": 127,
      "chip": "ym2612"
    },
    {
      "channel": 0,
      "note": 52,
      "start": 0.9087,
      "duration": 0.0442,
      "velocity": 103,
      "chip": "ym2612"
    },
    {
      "channel": 3,
      "note": 51,
      "start": 0.9101,
      "duration": 0.0429,
      "velocity": 103,
      "chip": "ym2612"
    },
    {
      "channel": 1,
      "note": 45,
      "start": 0.9117,
      "duration": 0.0415,
      "velocity": 103,
      "chip": "ym2612"
    },
    {
      "channel": 4,
      "note": 44,
      "start": 0.9131,
      "duration": 0.0402,
      "velocity": 103,
      "chip": "ym2612"
    },
    {
      "channel": 0,
      "note": 52,
      "start": 0.9616,
      "duration": 0.0478,
      "velocity": 103,
      "chip": "ym2612"
    },
    {
      "channel": 3,
      "note": 51,
      "start": 0.9632,
      "duration": 0.0463,
      "velocity": 103,
      "chip": "ym2612"
    },
    {
      "channel": 1,
      "note": 45,
      "start": 0.965,
      "duration": 0.0447,
      "velocity": 103,
      "chip": "ym2612"
    },
    {
      "channel": 4,
      "note": 44,
      "start": 0.9666,
      "duration": 0.0432,
      "velocity": 103,
      "chip": "ym2612"
    },
    {
      "channel": 2,
      "note": 93,
      "start": 0.9683,
      "duration": 0.0717,
      "velocity": 95,
      "chip": "ym2612"
    },
    {
      "channel": 5,
      "note": 25,
      "start": 0.9704,
      "duration": 0.0915,
      "velocity": 127,
      "chip": "ym2612"
    },
    {
      "channel": 0,
      "note": 57,
      "start": 1.0167,
      "duration": 0.0442,
      "velocity": 103,
      "chip": "ym2612"
    },
    {
      "channel": 3,
      "note": 56,
      "start": 1.0181,
      "duration": 0.0429,
      "velocity": 103,
      "chip": "ym2612"
    },
    {
      "channel": 1,
      "note": 50,
      "start": 1.0203,
      "duration": 0.0409,
      "velocity": 103,
      "chip": "ym2612"
    },
    {
      "channel": 4,
      "note": 49,
      "start": 1.0218,
      "duration": 0.0396,
      "velocity": 103,
      "chip": "ym2612"
    },
    {
      "channel": 0,
      "note": 57,
      "start": 1.0703,
      "duration": 0.0477,
      "velocity": 103,
      "chip": "ym2612"
    },
    {
      "channel": 3,
      "note": 56,
      "start": 1.072,
      "duration": 0.0463,
      "velocity": 103,
      "chip": "ym2612"
    },
    {
      "channel": 1,
      "note": 50,
      "start": 1.0737,
      "duration": 0.0446,
      "velocity": 103,
      "chip": "ym2612"
    },
    {
      "channel": 4,
      "note": 49,
      "start": 1.0753,
      "duration": 0.0432,
      "velocity": 103,
      "chip": "ym2612"
    },
    {
      "channel": 2,
      "note": 93,
      "start": 1.0771,
      "duration": 0.1445,
      "velocity": 95,
      "chip": "ym2612"
    },
    {
      "channel": 5,
      "note": 25,
      "start": 1.0794,
      "duration": 0.1424,
      "velocity": 127,
      "chip": "ym2612"
    },
    {
      "channel": 0,
      "note": 64,
      "start": 1.1259,
      "duration": 0.0438,
      "velocity": 103,
      "chip": "ym2612"
    },
    {
      "channel": 3,
      "note": 63,
      "start": 1.1274,
      "duration": 0.0425,
      "velocity": 103,
      "chip": "ym2612"
    },
    {
      "channel": 1,
      "note": 57,
      "start": 1.1289,
      "duration": 0.0411,
      "velocity": 103,
      "chip": "ym2612"
    },
    {
      "channel": 4,
      "note": 56,
      "start": 1.1304,
      "duration": 0.0398,
      "velocity": 103,
      "chip": "ym2612"
    },
    {
      "channel": 0,
      "note": 64,
      "start": 1.1769,
      "duration": 0.044,
      "velocity": 103,
      "chip": "ym2612"
    },
    {
      "channel": 3,
      "note": 63,
      "start": 1.1786,
      "duration": 0.0425,
      "velocity": 103,
      "chip": "ym2612"
    },
    {
      "channel": 1,
      "note": 57,
      "start": 1.1803,
      "duration": 0.041,
      "velocity": 103,
      "chip": "ym2612"
    },
    {
      "channel": 4,
      "note": 56,
      "start": 1.182,
      "duration": 0.0394,
      "velocity": 103,
      "chip": "ym2612"
    },
    {
      "channel": 0,
      "note": 69,
      "start": 1.2276,
      "duration": 0.0449,
      "velocity": 103,
      "chip": "ym2612"
    },
    {
      "channel": 3,
      "note": 68,
      "start": 1.229,
      "duration": 0.0436,
      "velocity": 103,
      "chip": "ym2612"
    },
    {
      "channel": 1,
      "note": 62,
      "start": 1.2305,
      "duration": 0.0422,
      "velocity": 103,
      "chip": "ym2612"
    },
    {
      "channel": 4,
      "note": 61,
      "start": 1.232,
      "duration": 0.0409,
      "velocity": 103,
      "chip": "ym2612"
    },
    {
      "channel": 0,
      "note": 69,
      "start": 1.2819,
      "duration": 0.0478,
      "velocity": 103,
      "chip": "ym2612"
    },
    {
      "channel": 3,
      "note": 68,
      "start": 1.2835,
      "duration": 0.0462,
      "velocity": 103,
      "chip": "ym2612"
    },
    {
      "channel": 1,
      "note": 62,
      "start": 1.2853,
      "duration": 0.0446,
      "velocity": 103,
      "chip": "ym2612"
    },
    {
      "channel": 4,
      "note": 61,
      "start": 1.2876,
      "duration": 0.0425,
      "velocity": 103,
      "chip": "ym2612"
    },
    {
      "channel": 2,
      "note": 93,
      "start": 1.2893,
      "duration": 0.071,
      "velocity": 95,
      "chip": "ym2612"
    },
    {
      "channel": 5,
      "note": 42,
      "start": 1.2917,
      "duration": 0.0905,
      "velocity": 107,
      "chip": "ym2612"
    },
    {
      "channel": 0,
      "note": 76,
      "start": 1.3377,
      "duration": 0.0434,
      "velocity": 103,
      "chip": "ym2612"
    },
    {
      "channel": 3,
      "note": 75,
      "start": 1.3392,
      "duration": 0.042,
      "velocity": 103,
      "chip": "ym2612"
    },
    {
      "channel": 1,
      "note": 69,
      "start": 1.3407,
      "duration": 0.0407,
      "velocity": 103,
      "chip": "ym2612"
    },
    {
      "channel": 4,
      "note": 68,
      "start": 1.3422,
      "duration": 0.0394,
      "velocity": 103,
      "chip": "ym2612"
    },
    {
      "channel": 0,
      "note": 76,
      "start": 1.3905,
      "duration": 0.0478,
      "velocity": 103,
      "chip": "ym2612"
    },
    {
      "channel": 3,
      "note": 75,
      "start": 1.3921,
      "duration": 0.0463,
      "velocity": 103,
      "chip": "ym2612"
    },
    {
      "channel": 1,
      "note": 69,
      "start": 1.3938,
      "duration": 0.0447,
      "velocity": 103,
      "chip": "ym2612"
    },
    {
      "channel": 4,
      "note": 68,
      "start": 1.3955,
      "duration": 0.0433,
      "velocity": 103,
      "chip": "ym2612"
    },
    {
      "channel": 2,
      "note": 93,
      "start": 1.3972,
      "duration": 0.0723,
      "velocity": 95,
      "chip": "ym2612"
    },
    {
      "channel": 5,
      "note": 65,
      "start": 1.3987,
      "duration": 0.0922,
      "velocity": 107,
      "chip": "ym2612"
    },
    {
      "channel": 0,
      "note": 81,
      "start": 1.4457,
      "duration": 0.044,
      "velocity": 103,
      "chip": "ym2612"
    },
    {
      "channel": 3,
      "note": 80,
      "start": 1.4471,
      "duration": 0.0427,
      "velocity": 103,
      "chip": "ym2612"
    },
    {
      "channel": 1,
      "note": 74,
      "start": 1.4487,
      "duration": 0.0413,
      "velocity": 103,
      "chip": "ym2612"
    },
    {
      "channel": 4,
      "note": 73,
      "start": 1.4501,
      "duration": 0.0401,
      "velocity": 103,
      "chip": "ym2612"
    },
    {
      "channel": 0,
      "note": 81,
      "start": 1.4984,
      "duration": 0.0485,
      "velocity": 103,
      "chip": "ym2612"
    },
    {
      "channel": 3,
      "note": 80,
      "start": 1.5001,
      "duration": 0.0469,
      "velocity": 103,
      "chip": "ym2612"
    },
    {
      "channel": 1,
      "note": 74,
      "start": 1.5018,
      "duration": 0.0454,
      "velocity": 103,
      "chip": "ym2612"
    },
    {
      "channel": 4,
      "note": 73,
      "start": 1.5041,
      "duration": 0.0433,
      "velocity": 103,
      "chip": "ym2612"
    },
    {
      "channel": 2,
      "note": 93,
      "start": 1.5068,
      "duration": 0.0922,
      "velocity": 127,
      "chip": "ym2612"
    },
    {
      "channel": 5,
      "note": 61,
      "start": 1.5085,
      "duration": 0.0906,
      "velocity": 107,
      "chip": "ym2612"
    },
    {
      "channel": 0,
      "note": 88,
      "start": 1.555,
      "duration": 0.0434,
      "velocity": 103,
      "chip": "ym2612"
    },
    {
      "channel": 3,
      "note": 87,
      "start": 1.5564,
      "duration": 0.0421,
      "velocity": 103,
      "chip": "ym2612"
    },
    {
      "channel": 1,
      "note": 81,
      "start": 1.558,
      "duration": 0.0407,
      "velocity": 103,
      "chip": "ym2612"
    },
    {
      "channel": 4,
      "note": 80,
      "start": 1.5594,
      "duration": 0.0394,
      "velocity": 103,
      "chip": "ym2612"
    },
    {
      "channel": 0,
      "note": 88,
      "start": 1.6066,
      "duration": 0.049,
      "velocity": 103,
      "chip": "ym2612"
    },
    {
      "channel": 3,
      "note": 87,
      "start": 1.6083,
      "duration": 0.0474,
      "velocity": 103,
      "chip": "ym2612"
    },
    {
      "channel": 1,
      "note": 81,
      "start": 1.6099,
      "duration": 0.0459,
      "velocity": 103,
      "chip": "ym2612"
    },
    {
      "channel": 4,
      "note": 80,
      "start": 1.6117,
      "duration": 0.0443,
      "velocity": 103,
      "chip": "ym2612"
    },
    {
      "channel": 5,
      "note": 57,
      "start": 1.6148,
      "duration": 0.0725,
      "velocity": 127,
      "chip": "ym2612"
    },
    {
      "channel": 0,
      "note": 93,
      "start": 1.6628,
      "duration": 0.0442,
      "velocity": 103,
      "chip": "ym2612"
    },
    {
      "channel": 3,
      "note": 92,
      "start": 1.6643,
      "duration": 0.0429,
      "velocity": 103,
      "chip": "ym2612"
    },
    {
      "channel": 1,
      "note": 86,
      "start": 1.6658,
      "duration": 0.0415,
      "velocity": 103,
      "chip": "ym2612"
    },
    {
      "channel": 4,
      "note": 85,
      "start": 1.6673,
      "duration": 0.0402,
      "velocity": 103,
      "chip": "ym2612"
    },
    {
      "channel": 0,
      "note": 93,
      "start": 1.717,
      "duration": 0.0472,
      "velocity": 103,
      "chip": "ym2612"
    },
    {
      "channel": 3,
      "note": 92,
      "start": 1.7187,
      "duration": 0.0457,
      "velocity": 103,
      "chip": "ym2612"
    },
    {
      "channel": 1,
      "note": 86,
      "start": 1.721,
      "duration": 0.0435,
      "velocity": 103,
      "chip": "ym2612"
    },
    {
      "channel": 4,
      "note": 85,
      "start": 1.7227,
      "duration": 0.042,
      "velocity": 103,
      "chip": "ym2612"
    },
    {
      "channel": 2,
      "note": 90,
      "start": 1.7253,
      "duration": 0.0695,
      "velocity": 95,
      "chip": "ym2612"
    },
    {
      "channel": 5,
      "note": 42,
      "start": 1.7279,
      "duration": 0.0889,
      "velocity": 127,
      "chip": "ym2612"
    },
    {
      "channel": 0,
      "note": 64,
      "start": 1.772,
      "duration": 0.0437,
      "velocity": 103,
      "chip": "ym2612"
    },
    {
      "channel": 3,
      "note": 63,
      "start": 1.7736,
      "duration": 0.0423,
      "velocity": 103,
      "chip": "ym2612"
    },
    {
      "channel": 1,
      "note": 57,
      "start": 1.775,
      "duration": 0.041,
      "velocity": 103,
      "chip": "ym2612"
    },
    {
      "channel": 4,
      "note": 56,
      "start": 1.7765,
      "duration": 0.0397,
      "velocity": 103,
      "chip": "ym2612"
    },
    {
      "channel": 0,
      "note": 64,
      "start": 1.8251,
      "duration": 0.0478,
      "velocity": 103,
      "chip": "ym2612"
    },
    {
      "channel": 3,
      "note": 63,
      "start": 1.8267,
      "duration": 0.0462,
      "velocity": 103,
      "chip": "ym2612"
    },
    {
      "channel": 1,
      "note": 57,
      "start": 1.8285,
      "duration": 0.0447,
      "velocity": 103,
      "chip": "ym2612"
    },
    {
      "channel": 4,
      "note": 56,
      "start": 1.8301,
      "duration": 0.0432,
      "velocity": 103,
      "chip": "ym2612"
    },
    {
      "channel": 2,
      "note": 93,
      "start": 1.8318,
      "duration": 0.0723,
      "velocity": 95,
      "chip": "ym2612"
    },
    {
      "channel": 5,
      "note": 25,
      "start": 1.8333,
      "duration": 0.0921,
      "velocity": 127,
      "chip": "ym2612"
    },
    {
      "channel": 0,
      "note": 69,
      "start": 1.8801,
      "duration": 0.0442,
      "velocity": 103,
      "chip": "ym2612"
    },
    {
      "channel": 3,
      "note": 68,
      "start": 1.8816,
      "duration": 0.0429,
      "velocity": 103,
      "chip": "ym2612"
    },
    {
      "channel": 1,
      "note": 62,
      "start": 1.8831,
      "duration": 0.0415,
      "velocity": 103,
      "chip": "ym2612"
    },
    {
      "channel": 4,
      "note": 61,
      "start": 1.8846,
      "duration": 0.0402,
      "velocity": 103,
      "chip": "ym2612"
    },
    {
      "channel": 0,
      "note": 69,
      "start": 1.933,
      "duration": 0.0485,
      "velocity": 103,
      "chip": "ym2612"
    },
    {
      "channel": 3,
      "note": 68,
      "start": 1.9347,
      "duration": 0.047,
      "velocity": 103,
      "chip": "ym2612"
    },
    {
      "channel": 1,
      "note": 62,
      "start": 1.937,
      "duration": 0.0448,
      "velocity": 103,
      "chip": "ym2612"
    },
    {
      "channel": 4,
      "note": 61,
      "start": 1.9387,
      "duration": 0.0433,
      "velocity": 103,
      "chip": "ym2612"
    },
    {
      "channel": 2,
      "note": 93,
      "start": 1.9414,
      "duration": 0.0922,
      "velocity": 127,
      "chip": "ym2612"
    },
    {
      "channel": 5,
      "note": 25,
      "start": 1.9431,
      "duration": 0.0906,
      "velocity": 127,
      "chip": "ym2612"
    },
    {
      "channel": 0,
      "note": 76,
      "start": 1.9893,
      "duration": 0.0437,
      "velocity": 103,
      "chip": "ym2612"
    },
    {
      "channel": 3,
      "note": 75,
      "start": 1.9909,
      "duration": 0.0422,
      "velocity": 103,
      "chip": "ym2612"
    },
    {
      "channel": 1,
      "note": 69,
      "start": 1.9923,
      "duration": 0.041,
      "velocity": 103,
      "chip": "ym2612"
    },
    {
      "channel": 4,
      "note": 68,
      "start": 1.9938,
      "duration": 0.0396,
      "velocity": 103,
      "chip": "ym2612"
    },
    {
      "channel": 0,
      "note": 76,
      "start": 2.0411,
      "duration": 0.0433,
      "velocity": 103,
      "chip": "ym2612"
    },
    {
      "channel": 3,
      "note": 75,
      "start": 2.0428,
      "duration": 0.0417,
      "velocity": 103,
      "chip": "ym2612"
    },
    {
      "channel": 1,
      "note": 69,
      "start": 2.0445,
      "duration": 0.0402,
      "velocity": 103,
      "chip": "ym2612"
    },
    {
      "channel": 4,
      "note": 68,
      "start": 2.0462,
      "duration": 0.0387,
      "velocity": 103,
      "chip": "ym2612"
    },
    {
      "channel": 5,
      "note": 25,
      "start": 2.0484,
      "duration": 0.089,
      "velocity": 127,
      "chip": "ym2612"
    },
    {
      "channel": 0,
      "note": 81,
      "start": 2.0923,
      "duration": 0.044,
      "velocity": 103,
      "chip": "ym2612"
    },
    {
      "channel": 3,
      "note": 80,
      "start": 2.0938,
      "duration": 0.0427,
      "velocity": 103,
      "chip": "ym2612"
    },
    {
      "channel": 1,
      "note": 74,
      "start": 2.0953,
      "duration": 0.0413,
      "velocity": 103,
      "chip": "ym2612"
    },
    {
      "channel": 4,
      "note": 73,
      "start": 2.0968,
      "duration": 0.04,
      "velocity": 103,
      "chip": "ym2612"
    },
    {
      "channel": 0,
      "note": 81,
      "start": 2.1451,
      "duration": 0.048,
      "velocity": 103,
      "chip": "ym2612"
    },
    {
      "channel": 3,
      "note": 80,
      "start": 2.1467,
      "duration": 0.0465,
      "velocity": 103,
      "chip": "ym2612"
    },
    {
      "channel": 1,
      "note": 74,
      "start": 2.1484,
      "duration": 0.0449,
      "velocity": 103,
      "chip": "ym2612"
    },
    {
      "channel": 4,
      "note": 73,
      "start": 2.1501,
      "duration": 0.0434,
      "velocity": 103,
      "chip": "ym2612"
    },
    {
      "channel": 2,
      "note": 90,
      "start": 2.1534,
      "duration": 0.0702,
      "velocity": 95,
      "chip": "ym2612"
    },
    {
      "channel": 5,
      "note": 25,
      "start": 2.1561,
      "duration": 0.0678,
      "velocity": 127,
      "chip": "ym2612"
    },
    {
      "channel": 0,
      "note": 88,
      "start": 2.2003,
      "duration": 0.0442,
      "velocity": 103,
      "chip": "ym2612"
    },
    {
      "channel": 3,
      "note": 87,
      "start": 2.2018,
      "duration": 0.0429,
      "velocity": 103,
      "chip": "ym2612"
    },
    {
      "channel": 1,
      "note": 81,
      "start": 2.2039,
      "duration": 0.0409,
      "velocity": 103,
      "chip": "ym2612"
    },
    {
      "channel": 4,
      "note": 80,
      "start": 2.2054,
      "duration": 0.0396,
      "velocity": 103,
      "chip": "ym2612"
    },
    {
      "channel": 0,
      "note": 88,
      "start": 2.2534,
      "duration": 0.0426,
      "velocity": 103,
      "chip": "ym2612"
    },
    {
      "channel": 3,
      "note": 87,
      "start": 2.255,
      "duration": 0.0411,
      "velocity": 103,
      "chip": "ym2612"
    },
    {
      "channel": 1,
      "note": 81,
      "start": 2.2568,
      "duration": 0.0396,
      "velocity": 103,
      "chip": "ym2612"
    },
    {
      "channel": 4,
      "note": 80,
      "start": 2.2584,
      "duration": 0.038,
      "velocity": 103,
      "chip": "ym2612"
    },
    {
      "channel": 2,
      "note": 93,
      "start": 2.2601,
      "duration": 0.0665,
      "velocity": 95,
      "chip": "ym2612"
    },
    {
      "channel": 0,
      "note": 93,
      "start": 2.3039,
      "duration": 0.0436,
      "velocity": 103,
      "chip": "ym2612"
    },
    {
      "channel": 3,
      "note": 92,
      "start": 2.3054,
      "duration": 0.0422,
      "velocity": 103,
      "chip": "ym2612"
    },
    {
      "channel": 1,
      "note": 86,
      "start": 2.3069,
      "duration": 0.0408,
      "velocity": 103,
      "chip": "ym2612"
    },
    {
      "channel": 4,
      "note": 85,
      "start": 2.3083,
      "duration": 0.0396,
      "velocity": 103,
      "chip": "ym2612"
    },
    {
      "channel": 0,
      "note": 93,
      "start": 2.3571,
      "duration": 0.0475,
      "velocity": 103,
      "chip": "ym2612"
    },
    {
      "channel": 3,
      "note": 92,
      "start": 2.3588,
      "duration": 0.0459,
      "velocity": 103,
      "chip": "ym2612"
    },
    {
      "channel": 1,
      "note": 86,
      "start": 2.3605,
      "duration": 0.0444,
      "velocity": 103,
      "chip": "ym2612"
    },
    {
      "channel": 4,
      "note": 85,
      "start": 2.3622,
      "duration": 0.0429,
      "velocity": 103,
      "chip": "ym2612"
    },
    {
      "channel": 2,
      "note": 93,
      "start": 2.3649,
      "duration": 0.0918,
      "velocity": 127,
      "chip": "ym2612"
    },
    {
      "channel": 5,
      "note": 42,
      "start": 2.3675,
      "duration": 0.0894,
      "velocity": 127,
      "chip": "ym2612"
    },
    {
      "channel": 0,
      "note": 100,
      "start": 2.4119,
      "duration": 0.0442,
      "velocity": 103,
      "chip": "ym2612"
    },
    {
      "channel": 3,
      "note": 99,
      "start": 2.4134,
      "duration": 0.0429,
      "velocity": 103,
      "chip": "ym2612"
    },
    {
      "channel": 1,
      "note": 93,
      "start": 2.4149,
      "duration": 0.0415,
      "velocity": 103,
      "chip": "ym2612"
    },
    {
      "channel": 4,
      "note": 92,
      "start": 2.4164,
      "duration": 0.0402,
      "velocity": 103,
      "chip": "ym2612"
    },
    {
      "channel": 0,
      "note": 100,
      "start": 2.4636,
      "duration": 0.0439,
      "velocity": 103,
      "chip": "ym2612"
    },
    {
      "channel": 3,
      "note": 99,
      "start": 2.4654,
      "duration": 0.0424,
      "velocity": 103,
      "chip": "ym2612"
    },
    {
      "channel": 1,
      "note": 93,
      "start": 2.467,
      "duration": 0.0408,
      "velocity": 103,
      "chip": "ym2612"
    },
    {
      "channel": 4,
      "note": 92,
      "start": 2.4689,
      "duration": 0.0391,
      "velocity": 103,
      "chip": "ym2612"
    },
    {
      "channel": 5,
      "note": 25,
      "start": 2.4715,
      "duration": 0.0886,
      "velocity": 127,
      "chip": "ym2612"
    },
    {
      "channel": 0,
      "note": 105,
      "start": 2.5148,
      "duration": 0.0442,
      "velocity": 103,
      "chip": "ym2612"
    },
    {
      "channel": 3,
      "note": 104,
      "start": 2.5163,
      "duration": 0.0429,
      "velocity": 103,
      "chip": "ym2612"
    },
    {
      "channel": 1,
      "note": 98,
      "start": 2.5178,
      "duration": 0.0415,
      "velocity": 103,
      "chip": "ym2612"
    },
    {
      "channel": 4,
      "note": 97,
      "start": 2.5199,
      "duration": 0.0396,
      "velocity": 103,
      "chip": "ym2612"
    },
    {
      "channel": 0,
      "note": 105,
      "start": 2.5706,
      "duration": 0.0456,
      "velocity": 103,
      "chip": "ym2612"
    },
    {
      "channel": 3,
      "note": 104,
      "start": 2.5723,
      "duration": 0.0441,
      "velocity": 103,
      "chip": "ym2612"
    },
    {
      "channel": 1,
      "note": 98,
      "start": 2.5739,
      "duration": 0.0426,
      "velocity": 103,
      "chip": "ym2612"
    },
    {
      "channel": 4,
      "note": 97,
      "start": 2.5756,
      "duration": 0.041,
      "velocity": 103,
      "chip": "ym2612"
    },
    {
      "channel": 2,
      "note": 90,
      "start": 2.5783,
      "duration": 0.0685,
      "velocity": 95,
      "chip": "ym2612"
    },
    {
      "channel": 5,
      "note": 25,
      "start": 2.58,
      "duration": 0.0894,
      "velocity": 127,
      "chip": "ym2612"
    },
    {
      "channel": 0,
      "note": 44,
      "start": 2.6241,
      "duration": 0.0436,
      "velocity": 103,
      "chip": "ym2612"
    },
    {
      "channel": 3,
      "note": 43,
      "start": 2.6255,
      "duration": 0.0423,
      "velocity": 103,
      "chip": "ym2612"
    },
    {
      "channel": 1,
      "note": 37,
      "start": 2.6271,
      "duration": 0.0409,
      "velocity": 103,
      "chip": "ym2612"
    },
    {
      "channel": 4,
      "note": 36,
      "start": 2.6285,
      "duration": 0.0396,
      "velocity": 103,
      "chip": "ym2612"
    },
    {
      "channel": 0,
      "note": 44,
      "start": 2.6771,
      "duration": 0.0478,
      "velocity": 103,
      "chip": "ym2612"
    },
    {
      "channel": 3,
      "note": 43,
      "start": 2.6787,
      "duration": 0.0463,
      "velocity": 103,
      "chip": "ym2612"
    },
    {
      "channel": 1,
      "note": 37,
      "start": 2.6804,
      "duration": 0.0447,
      "velocity": 103,
      "chip": "ym2612"
    },
    {
      "channel": 4,
      "note": 36,
      "start": 2.6821,
      "duration": 0.0433,
      "velocity": 103,
      "chip": "ym2612"
    },
    {
      "channel": 2,
      "note": 93,
      "start": 2.6838,
      "duration": 0.0716,
      "velocity": 95,
      "chip": "ym2612"
    },
    {
      "channel": 5,
      "note": 25,
      "start": 2.6853,
      "duration": 0.0922,
      "velocity": 127,
      "chip": "ym2612"
    },
    {
      "channel": 0,
      "note": 49,
      "start": 2.7321,
      "duration": 0.0441,
      "velocity": 103,
      "chip": "ym2612"
    },
    {
      "channel": 3,
      "note": 48,
      "start": 2.7336,
      "duration": 0.0429,
      "velocity": 103,
      "chip": "ym2612"
    },
    {
      "channel": 1,
      "note": 42,
      "start": 2.7351,
      "duration": 0.0415,
      "velocity": 103,
      "chip": "ym2612"
    },
    {
      "channel": 4,
      "note": 41,
      "start": 2.7372,
      "duration": 0.0396,
      "velocity": 103,
      "chip": "ym2612"
    },
    {
      "channel": 0,
      "note": 49,
      "start": 2.7851,
      "duration": 0.0483,
      "velocity": 103,
      "chip": "ym2612"
    },
    {
      "channel": 3,
      "note": 48,
      "start": 2.7874,
      "duration": 0.0463,
      "velocity": 103,
      "chip": "ym2612"
    },
    {
      "channel": 1,
      "note": 42,
      "start": 2.7891,
      "duration": 0.0446,
      "velocity": 103,
      "chip": "ym2612"
    },
    {
      "channel": 4,
      "note": 41,
      "start": 2.7908,
      "duration": 0.0432,
      "velocity": 103,
      "chip": "ym2612"
    },
    {
      "channel": 2,
      "note": 93,
      "start": 2.7925,
      "duration": 0.1445,
      "velocity": 95,
      "chip": "ym2612"
    },
    {
      "channel": 5,
      "note": 25,
      "start": 2.7949,
      "duration": 0.1424,
      "velocity": 127,
      "chip": "ym2612"
    },
    {
      "channel": 0,
      "note": 56,
      "start": 2.8414,
      "duration": 0.0436,
      "velocity": 103,
      "chip": "ym2612"
    },
    {
      "channel": 3,
      "note": 55,
      "start": 2.8428,
      "duration": 0.0423,
      "velocity": 103,
      "chip": "ym2612"
    },
    {
      "channel": 1,
      "note": 49,
      "start": 2.8444,
      "duration": 0.0409,
      "velocity": 103,
      "chip": "ym2612"
    },
    {
      "channel": 4,
      "note": 48,
      "start": 2.8458,
      "duration": 0.0399,
      "velocity": 103,
      "chip": "ym2612"
    },
    {
      "channel": 0,
      "note": 56,
      "start": 2.8928,
      "duration": 0.0436,
      "velocity": 103,
      "chip": "ym2612"
    },
    {
      "channel": 3,
      "note": 55,
      "start": 2.8945,
      "duration": 0.0421,
      "velocity": 103,
      "chip": "ym2612"
    },
    {
      "channel": 1,
      "note": 49,
      "start": 2.8962,
      "duration": 0.0405,
      "velocity": 103,
      "chip": "ym2612"
    },
    {
      "channel": 4,
      "note": 48,
      "start": 2.8979,
      "duration": 0.039,
      "velocity": 103,
      "chip": "ym2612"
    },
    {
      "channel": 0,
      "note": 61,
      "start": 2.943,
      "duration": 0.0449,
      "velocity": 103,
      "chip": "ym2612"
    },
    {
      "channel": 3,
      "note": 60,
      "start": 2.9445,
      "duration": 0.0436,
      "velocity": 103,
      "chip": "ym2612"
    },
    {
      "channel": 1,
      "note": 54,
      "start": 2.946,
      "duration": 0.0422,
      "velocity": 103,
      "chip": "ym2612"
    },
    {
      "channel": 4,
      "note": 53,
      "start": 2.9475,
      "duration": 0.0409,
      "velocity": 103,
      "chip": "ym2612"
    },
    {
      "channel": 0,
      "note": 61,
      "start": 2.9971,
      "duration": 0.048,
      "velocity": 103,
      "chip": "ym2612"
    },
    {
      "channel": 3,
      "note": 60,
      "start": 2.9987,
      "duration": 0.0465,
      "velocity": 103,
      "chip": "ym2612"
    },
    {
      "channel": 1,
      "note": 54,
      "start": 3.0005,
      "duration": 0.0449,
      "velocity": 103,
      "chip": "ym2612"
    },
    {
      "channel": 4,
      "note": 53,
      "start": 3.0027,
      "duration": 0.0428,
      "velocity": 103,
      "chip": "ym2612"
    },
    {
      "channel": 2,
      "note": 93,
      "start": 3.0045,
      "duration": 0.0712,
      "velocity": 95,
      "chip": "ym2612"
    },
    {
      "channel": 5,
      "note": 42,
      "start": 3.007,
      "duration": 0.0907,
      "velocity": 107,
      "chip": "ym2612"
    },
    {
      "channel": 0,
      "note": 68,
      "start": 3.0531,
      "duration": 0.0434,
      "velocity": 103,
      "chip": "ym2612"
    },
    {
      "channel": 3,
      "note": 67,
      "start": 3.0546,
      "duration": 0.042,
      "velocity": 103,
      "chip": "ym2612"
    },
    {
      "channel": 1,
      "note": 61,
      "start": 3.0561,
      "duration": 0.0407,
      "velocity": 103,
      "chip": "ym2612"
    },
    {
      "channel": 4,
      "note": 60,
      "start": 3.0576,
      "duration": 0.0394,
      "velocity": 103,
      "chip": "ym2612"
    },
    {
      "channel": 0,
      "note": 68,
      "start": 3.1059,
      "duration": 0.0478,
      "velocity": 103,
      "chip": "ym2612"
    },
    {
      "channel": 3,
      "note": 67,
      "start": 3.1076,
      "duration": 0.0463,
      "velocity": 103,
      "chip": "ym2612"
    },
    {
      "channel": 1,
      "note": 61,
      "start": 3.1092,
      "duration": 0.0448,
      "velocity": 103,
      "chip": "ym2612"
    },
    {
      "channel": 4,
      "note": 60,
      "start": 3.111,
      "duration": 0.0432,
      "velocity": 103,
      "chip": "ym2612"
    },
    {
      "channel": 2,
      "note": 93,
      "start": 3.1126,
      "duration": 0.0717,
      "velocity": 95,
      "chip": "ym2612"
    },
    {
      "channel": 5,
      "note": 65,
      "start": 3.1141,
      "duration": 0.0922,
      "velocity": 107,
      "chip": "ym2612"
    },
    {
      "channel": 0,
      "note": 73,
      "start": 3.1611,
      "duration": 0.044,
      "velocity": 103,
      "chip": "ym2612"
    },
    {
      "channel": 3,
      "note": 72,
      "start": 3.1626,
      "duration": 0.0427,
      "velocity": 103,
      "chip": "ym2612"
    },
    {
      "channel": 1,
      "note": 66,
      "start": 3.1641,
      "duration": 0.0414,
      "velocity": 103,
      "chip": "ym2612"
    },
    {
      "channel": 4,
      "note": 65,
      "start": 3.1656,
      "duration": 0.0401,
      "velocity": 103,
      "chip": "ym2612"
    },
    {
      "channel": 0,
      "note": 73,
      "start": 3.2139,
      "duration": 0.0485,
      "velocity": 103,
      "chip": "ym2612"
    },
    {
      "channel": 3,
      "note": 72,
      "start": 3.2156,
      "duration": 0.0469,
      "velocity": 103,
      "chip": "ym2612"
    },
    {
      "channel": 1,
      "note": 66,
      "start": 3.2173,
      "duration": 0.0454,
      "velocity": 103,
      "chip": "ym2612"
    },
    {
      "channel": 4,
      "note": 65,
      "start": 3.2196,
      "duration": 0.0432,
      "velocity": 103,
      "chip": "ym2612"
    },
    {
      "channel": 2,
      "note": 93,
      "start": 3.2223,
      "duration": 0.0922,
      "velocity": 127,
      "chip": "ym2612"
    },
    {
      "channel": 5,
      "note": 61,
      "start": 3.224,
      "duration": 0.0907,
      "velocity": 107,
      "chip": "ym2612"
    },
    {
      "channel": 0,
      "note": 80,
      "start": 3.2704,
      "duration": 0.0434,
      "velocity": 103,
      "chip": "ym2612"
    },
    {
      "channel": 3,
      "note": 79,
      "start": 3.2719,
      "duration": 0.0421,
      "velocity": 103,
      "chip": "ym2612"
    },
    {
      "channel": 1,
      "note": 73,
      "start": 3.2734,
      "duration": 0.0407,
      "velocity": 103,
      "chip": "ym2612"
    },
    {
      "channel": 4,
      "note": 72,
      "start": 3.2749,
      "duration": 0.0395,
      "velocity": 103,
      "chip": "ym2612"
    },
    {
      "channel": 0,
      "note": 80,
      "start": 3.322,
      "duration": 0.049,
      "velocity": 103,
      "chip": "ym2612"
    },
    {
      "channel": 3,
      "note": 79,
      "start": 3.3237,
      "duration": 0.0474,
      "velocity": 103,
      "chip": "ym2612"
    },
    {
      "channel": 1,
      "note": 73,
      "start": 3.3254,
      "duration": 0.0459,
      "velocity": 103,
      "chip": "ym2612"
    },
    {
      "channel": 4,
      "note": 72,
      "start": 3.3271,
      "duration": 0.0443,
      "velocity": 103,
      "chip": "ym2612"
    },
    {
      "channel": 5,
      "note": 57,
      "start": 3.3302,
      "duration": 0.0721,
      "velocity": 127,
      "chip": "ym2612"
    },
    {
      "channel": 0,
      "note": 85,
      "start": 3.3783,
      "duration": 0.0442,
      "velocity": 103,
      "chip": "ym2612"
    },
    {
      "channel": 3,
      "note": 84,
      "start": 3.3797,
      "duration": 0.0429,
      "velocity": 103,
      "chip": "ym2612"
    },
    {
      "channel": 1,
      "note": 78,
      "start": 3.3812,
      "duration": 0.0415,
      "velocity": 103,
      "chip": "ym2612"
    },
    {
      "channel": 4,
      "note": 77,
      "start": 3.3827,
      "duration": 0.0402,
      "velocity": 103,
      "chip": "ym2612"
    },
    {
      "channel": 0,
      "note": 85,
      "start": 3.4324,
      "duration": 0.0472,
      "velocity": 103,
      "chip": "ym2612"
    },
    {
      "channel": 3,
      "note": 84,
      "start": 3.4341,
      "duration": 0.0457,
      "velocity": 103,
      "chip": "ym2612"
    },
    {
      "channel": 1,
      "note": 78,
      "start": 3.4365,
      "duration": 0.0434,
      "velocity": 103,
      "chip": "ym2612"
    },
    {
      "channel": 4,
      "note": 77,
      "start": 3.4381,
      "duration": 0.042,
      "velocity": 103,
      "chip": "ym2612"
    },
    {
      "channel": 2,
      "note": 90,
      "start": 3.4408,
      "duration": 0.0695,
      "velocity": 95,
      "chip": "ym2612"
    },
    {
      "channel": 5,
      "note": 42,
      "start": 3.4434,
      "duration": 0.0888,
      "velocity": 127,
      "chip": "ym2612"
    },
    {
      "channel": 0,
      "note": 56,
      "start": 3.4875,
      "duration": 0.0436,
      "velocity": 103,
      "chip": "ym2612"
    },
    {
      "channel": 3,
      "note": 55,
      "start": 3.489,
      "duration": 0.0422,
      "velocity": 103,
      "chip": "ym2612"
    },
    {
      "channel": 1,
      "note": 49,
      "start": 3.4905,
      "duration": 0.041,
      "velocity": 103,
      "chip": "ym2612"
    },
    {
      "channel": 4,
      "note": 48,
      "start": 3.492,
      "duration": 0.0396,
      "velocity": 103,
      "chip": "ym2612"
    },
    {
      "channel": 0,
      "note": 56,
      "start": 3.5405,
      "duration": 0.0478,
      "velocity": 103,
      "chip": "ym2612"
    },
    {
      "channel": 3,
      "note": 55,
      "start": 3.5421,
      "duration": 0.0463,
      "velocity": 103,
      "chip": "ym2612"
    },
    {
      "channel": 1,
      "note": 49,
      "start": 3.5438,
      "duration": 0.0447,
      "velocity": 103,
      "chip": "ym2612"
    },
    {
      "channel": 4,
      "note": 48,
      "start": 3.5456,
      "duration": 0.0432,
      "velocity": 103,
      "chip": "ym2612"
    },
    {
      "channel": 2,
      "note": 93,
      "start": 3.5472,
      "duration": 0.0723,
      "velocity": 95,
      "chip": "ym2612"
    },
    {
      "channel": 5,
      "note": 25,
      "start": 3.5487,
      "duration": 0.0921,
      "velocity": 127,
      "chip": "ym2612"
    },
    {
      "channel": 0,
      "note": 61,
      "start": 3.5956,
      "duration": 0.0442,
      "velocity": 103,
      "chip": "ym2612"
    },
    {
      "channel": 3,
      "note": 60,
      "start": 3.597,
      "duration": 0.0429,
      "velocity": 103,
      "chip": "ym2612"
    },
    {
      "channel": 1,
      "note": 54,
      "start": 3.5985,
      "duration": 0.0415,
      "velocity": 103,
      "chip": "ym2612"
    },
    {
      "channel": 4,
      "note": 53,
      "start": 3.6,
      "duration": 0.0402,
      "velocity": 103,
      "chip": "ym2612"
    },
    {
      "channel": 0,
      "note": 61,
      "start": 3.6485,
      "duration": 0.0484,
      "velocity": 103,
      "chip": "ym2612"
    },
    {
      "channel": 3,
      "note": 60,
      "start": 3.6501,
      "duration": 0.0469,
      "velocity": 103,
      "chip": "ym2612"
    },
    {
      "channel": 1,
      "note": 54,
      "start": 3.6519,
      "duration": 0.0454,
      "velocity": 103,
      "chip": "ym2612"
    },
    {
      "channel": 4,
      "note": 53,
      "start": 3.6541,
      "duration": 0.0433,
      "velocity": 103,
      "chip": "ym2612"
    },
    {
      "channel": 2,
      "note": 93,
      "start": 3.6568,
      "duration": 0.0922,
      "velocity": 127,
      "chip": "ym2612"
    },
    {
      "channel": 5,
      "note": 25,
      "start": 3.6585,
      "duration": 0.0907,
      "velocity": 127,
      "chip": "ym2612"
    },
    {
      "channel": 0,
      "note": 68,
      "start": 3.7048,
      "duration": 0.0436,
      "velocity": 103,
      "chip": "ym2612"
    },
    {
      "channel": 3,
      "note": 67,
      "start": 3.7062,
      "duration": 0.0423,
      "velocity": 103,
      "chip": "ym2612"
    },
    {
      "channel": 1,
      "note": 61,
      "start": 3.7078,
      "duration": 0.0409,
      "velocity": 103,
      "chip": "ym2612"
    },
    {
      "channel": 4,
      "note": 60,
      "start": 3.7092,
      "duration": 0.0396,
      "velocity": 103,
      "chip": "ym2612"
    },
    {
      "channel": 0,
      "note": 68,
      "start": 3.7566,
      "duration": 0.0433,
      "velocity": 103,
      "chip": "ym2612"
    },
    {
      "channel": 3,
      "note": 67,
      "start": 3.7583,
      "duration": 0.0417,
      "velocity": 103,
      "chip": "ym2612"
    },
    {
      "channel": 1,
      "note": 61,
      "start": 3.7599,
      "duration": 0.0402,
      "velocity": 103,
      "chip": "ym2612"
    },
    {
      "channel": 4,
      "note": 60,
      "start": 3.7617,
      "duration": 0.0387,
      "velocity": 103,
      "chip": "ym2612"
    },
    {
      "channel": 5,
      "note": 25,
      "start": 3.7638,
      "duration": 0.0893,
      "velocity": 127,
      "chip": "ym2612"
    },
    {
      "channel": 0,
      "note": 73,
      "start": 3.8077,
      "duration": 0.0436,
      "velocity": 103,
      "chip": "ym2612"
    },
    {
      "channel": 3,
      "note": 72,
      "start": 3.8092,
      "duration": 0.0423,
      "velocity": 103,
      "chip": "ym2612"
    },
    {
      "channel": 1,
      "note": 66,
      "start": 3.8107,
      "duration": 0.0409,
      "velocity": 103,
      "chip": "ym2612"
    },
    {
      "channel": 4,
      "note": 65,
      "start": 3.8122,
      "duration": 0.0396,
      "velocity": 103,
      "chip": "ym2612"
    },
    {
      "channel": 0,
      "note": 73,
      "start": 3.861,
      "duration": 0.0476,
      "velocity": 103,
      "chip": "ym2612"
    },
    {
      "channel": 3,
      "note": 72,
      "start": 3.8626,
      "duration": 0.0461,
      "velocity": 103,
      "chip": "ym2612"
    },
    {
      "channel": 1,
      "note": 66,
      "start": 3.8643,
      "duration": 0.0445,
      "velocity": 103,
      "chip": "ym2612"
    },
    {
      "channel": 4,
      "note": 65,
      "start": 3.866,
      "duration": 0.043,
      "velocity": 103,
      "chip": "ym2612"
    },
    {
      "channel": 2,
      "note": 90,
      "start": 3.8687,
      "duration": 0.0704,
      "velocity": 95,
      "chip": "ym2612"
    },
    {
      "channel": 5,
      "note": 25,
      "start": 3.8719,
      "duration": 0.0673,
      "velocity": 127,
      "chip": "ym2612"
    },
    {
      "channel": 0,
      "note": 80,
      "start": 3.9158,
      "duration": 0.0441,
      "velocity": 103,
      "chip": "ym2612"
    },
    {
      "channel": 3,
      "note": 79,
      "start": 3.9173,
      "duration": 0.0429,
      "velocity": 103,
      "chip": "ym2612"
    },
    {
      "channel": 1,
      "note": 73,
      "start": 3.919,
      "duration": 0.0412,
      "velocity": 103,
      "chip": "ym2612"
    },
    {
      "channel": 4,
      "note": 72,
      "start": 3.9209,
      "duration": 0.0396,
      "velocity": 103,
      "chip": "ym2612"
    },
    {
      "channel": 0,
      "note": 80,
      "start": 3.9681,
      "duration": 0.0433,
      "velocity": 103,
      "chip": "ym2612"
    },
    {
      "channel": 3,
      "note": 79,
      "start": 3.9705,
      "duration": 0.0411,
      "velocity": 103,
      "chip": "ym2612"
    },
    {
      "channel": 1,
      "note": 73,
      "start": 3.9722,
      "duration": 0.0396,
      "velocity": 103,
      "chip": "ym2612"
    },
    {
      "channel": 4,
      "note": 72,
      "start": 3.9739,
      "duration": 0.038,
      "velocity": 103,
      "chip": "ym2612"
    },
    {
      "channel": 2,
      "note": 93,
      "start": 3.9755,
      "duration": 0.0666,
      "velocity": 95,
      "chip": "ym2612"
    },
    {
      "channel": 0,
      "note": 85,
      "start": 4.0187,
      "duration": 0.0442,
      "velocity": 103,
      "chip": "ym2612"
    },
    {
      "channel": 3,
      "note": 84,
      "start": 4.0207,
      "duration": 0.0423,
      "velocity": 103,
      "chip": "ym2612"
    },
    {
      "channel": 1,
      "note": 78,
      "start": 4.0223,
      "duration": 0.0409,
      "velocity": 103,
      "chip": "ym2612"
    },
    {
      "channel": 4,
      "note": 77,
      "start": 4.0237,
      "duration": 0.0396,
      "velocity": 103,
      "chip": "ym2612"
    },
    {
      "channel": 0,
      "note": 85,
      "start": 4.0726,
      "duration": 0.0475,
      "velocity": 103,
      "chip": "ym2612"
    },
    {
      "channel": 3,
      "note": 84,
      "start": 4.0742,
      "duration": 0.046,
      "velocity": 103,
      "chip": "ym2612"
    },
    {
      "channel": 1,
      "note": 78,
      "start": 4.076,
      "duration": 0.0444,
      "velocity": 103,
      "chip": "ym2612"
    },
    {
      "channel": 4,
      "note": 77,
      "start": 4.0776,
      "duration": 0.0429,
      "velocity": 103,
      "chip": "ym2612"
    },
    {
      "channel": 2,
      "note": 93,
      "start": 4.0803,
      "duration": 0.0919,
      "velocity": 127,
      "chip": "ym2612"
    },
    {
      "channel": 5,
      "note": 42,
      "start": 4.0829,
      "duration": 0.0894,
      "velocity": 127,
      "chip": "ym2612"
    },
    {
      "channel": 0,
      "note": 92,
      "start": 4.1274,
      "duration": 0.0442,
      "velocity": 103,
      "chip": "ym2612"
    },
    {
      "channel": 3,
      "note": 91,
      "start": 4.1288,
      "duration": 0.0429,
      "velocity": 103,
      "chip": "ym2612"
    },
    {
      "channel": 1,
      "note": 85,
      "start": 4.1304,
      "duration": 0.0415,
      "velocity": 103,
      "chip": "ym2612"
    },
    {
      "channel": 4,
      "note": 84,
      "start": 4.1318,
      "duration": 0.0402,
      "velocity": 103,
      "chip": "ym2612"
    },
    {
      "channel": 0,
      "note": 92,
      "start": 4.1791,
      "duration": 0.0439,
      "velocity": 103,
      "chip": "ym2612"
    },
    {
      "channel": 3,
      "note": 91,
      "start": 4.1808,
      "duration": 0.0424,
      "velocity": 103,
      "chip": "ym2612"
    },
    {
      "channel": 1,
      "note": 85,
      "start": 4.1824,
      "duration": 0.0408,
      "velocity": 103,
      "chip": "ym2612"
    },
    {
      "channel": 4,
      "note": 84,
      "start": 4.1842,
      "duration": 0.0393,
      "velocity": 103,
      "chip": "ym2612"
    },
    {
      "channel": 5,
      "note": 25,
      "start": 4.187,
      "duration": 0.0886,
      "velocity": 127,
      "chip": "ym2612"
    },
    {
      "channel": 0,
      "note": 97,
      "start": 4.2303,
      "duration": 0.0441,
      "velocity": 103,
      "chip": "ym2612"
    },
    {
      "channel": 3,
      "note": 96,
      "start": 4.2317,
      "duration": 0.0429,
      "velocity": 103,
      "chip": "ym2612"
    },
    {
      "channel": 1,
      "note": 90,
      "start": 4.2333,
      "duration": 0.0415,
      "velocity": 103,
      "chip": "ym2612"
    },
    {
      "channel": 4,
      "note": 89,
      "start": 4.2347,
      "duration": 0.0402,
      "velocity": 103,
      "chip": "ym2612"
    },
    {
      "channel": 0,
      "note": 97,
      "start": 4.284,
      "duration": 0.0476,
      "velocity": 103,
      "chip": "ym2612"
    },
    {
      "channel": 3,
      "note": 96,
      "start": 4.2863,
      "duration": 0.0455,
      "velocity": 103,
      "chip": "ym2612"
    },
    {
      "channel": 1,
      "note": 90,
      "start": 4.288,
      "duration": 0.044,
      "velocity": 103,
      "chip": "ym2612"
    },
    {
      "channel": 4,
      "note": 89,
      "start": 4.2897,
      "duration": 0.0424,
      "velocity": 103,
      "chip": "ym2612"
    },
    {
      "channel": 2,
      "note": 90,
      "start": 4.2924,
      "duration": 0.0699,
      "velocity": 95,
      "chip": "ym2612"
    },
    {
      "channel": 5,
      "note": 25,
      "start": 4.2941,
      "duration": 0.0901,
      "velocity": 127,
      "chip": "ym2612"
    },
    {
      "channel": 0,
      "note": 68,
      "start": 4.3395,
      "duration": 0.0436,
      "velocity": 103,
      "chip": "ym2612"
    },
    {
      "channel": 3,
      "note": 67,
      "start": 4.341,
      "duration": 0.0423,
      "velocity": 103,
      "chip": "ym2612"
    },
    {
      "channel": 1,
      "note": 61,
      "start": 4.3425,
      "duration": 0.0409,
      "velocity": 103,
      "chip": "ym2612"
    },
    {
      "channel": 4,
      "note": 60,
      "start": 4.344,
      "duration": 0.0396,
      "velocity": 103,
      "chip": "ym2612"
    },
    {
      "channel": 0,
      "note": 68,
      "start": 4.3925,
      "duration": 0.0478,
      "velocity": 103,
      "chip": "ym2612"
    },
    {
      "channel": 3,
      "note": 67,
      "start": 4.3941,
      "duration": 0.0463,
      "velocity": 103,
      "chip": "ym2612"
    },
    {
      "channel": 1,
      "note": 61,
      "start": 4.3959,
      "duration": 0.0447,
      "velocity": 103,
      "chip": "ym2612"
    },
    {
      "channel": 4,
      "note": 60,
      "start": 4.3975,
      "duration": 0.0432,
      "velocity": 103,
      "chip": "ym2612"
    },
    {
      "channel": 2,
      "note": 93,
      "start": 4.3993,
      "duration": 0.0723,
      "velocity": 95,
      "chip": "ym2612"
    },
    {
      "channel": 5,
      "note": 25,
      "start": 4.4007,
      "duration": 0.0922,
      "velocity": 127,
      "chip": "ym2612"
    },
    {
      "channel": 0,
      "note": 73,
      "start": 4.4475,
      "duration": 0.0442,
      "velocity": 103,
      "chip": "ym2612"
    },
    {
      "channel": 3,
      "note": 72,
      "start": 4.449,
      "duration": 0.0429,
      "velocity": 103,
      "chip": "ym2612"
    },
    {
      "channel": 1,
      "note": 66,
      "start": 4.4505,
      "duration": 0.0415,
      "velocity": 103,
      "chip": "ym2612"
    },
    {
      "channel": 4,
      "note": 65,
      "start": 4.452,
      "duration": 0.0402,
      "velocity": 103,
      "chip": "ym2612"
    },
    {
      "channel": 0,
      "note": 73,
      "start": 4.5006,
      "duration": 0.0483,
      "velocity": 103,
      "chip": "ym2612"
    },
    {
      "channel": 3,
      "note": 72,
      "start": 4.5029,
      "duration": 0.0462,
      "velocity": 103,
      "chip": "ym2612"
    },
    {
      "channel": 1,
      "note": 66,
      "start": 4.5046,
      "duration": 0.0446,
      "velocity": 103,
      "chip": "ym2612"
    },
    {
      "channel": 4,
      "note": 65,
      "start": 4.5062,
      "duration": 0.0432,
      "velocity": 103,
      "chip": "ym2612"
    },
    {
      "channel": 2,
      "note": 93,
      "start": 4.508,
      "duration": 0.1452,
      "velocity": 95,
      "chip": "ym2612"
    },
    {
      "channel": 5,
      "note": 25,
      "start": 4.5103,
      "duration": 0.1429,
      "velocity": 127,
      "chip": "ym2612"
    },
    {
      "channel": 0,
      "note": 80,
      "start": 4.5568,
      "duration": 0.0436,
      "velocity": 103,
      "chip": "ym2612"
    },
    {
      "channel": 3,
      "note": 79,
      "start": 4.5583,
      "duration": 0.0423,
      "velocity": 103,
      "chip": "ym2612"
    },
    {
      "channel": 1,
      "note": 73,
      "start": 4.5598,
      "duration": 0.0409,
      "velocity": 103,
      "chip": "ym2612"
    },
    {
      "channel": 4,
      "note": 72,
      "start": 4.5613,
      "duration": 0.0396,
      "velocity": 103,
      "chip": "ym2612"
    },
    {
      "channel": 0,
      "note": 80,
      "start": 4.6083,
      "duration": 0.0436,
      "velocity": 103,
      "chip": "ym2612"
    },
    {
      "channel": 3,
      "note": 79,
      "start": 4.61,
      "duration": 0.0422,
      "velocity": 103,
      "chip": "ym2612"
    },
    {
      "channel": 1,
      "note": 73,
      "start": 4.6117,
      "duration": 0.0412,
      "velocity": 103,
      "chip": "ym2612"
    },
    {
      "channel": 4,
      "note": 72,
      "start": 4.6134,
      "duration": 0.0396,
      "velocity": 103,
      "chip": "ym2612"
    },
    {
      "channel": 0,
      "note": 85,
      "start": 4.659,
      "duration": 0.0443,
      "velocity": 103,
      "chip": "ym2612"
    },
    {
      "channel": 3,
      "note": 84,
      "start": 4.6605,
      "duration": 0.0429,
      "velocity": 103,
      "chip": "ym2612"
    },
    {
      "channel": 1,
      "note": 78,
      "start": 4.662,
      "duration": 0.0416,
      "velocity": 103,
      "chip": "ym2612"
    },
    {
      "channel": 4,
      "note": 77,
      "start": 4.6635,
      "duration": 0.0403,
      "velocity": 103,
      "chip": "ym2612"
    },
    {
      "channel": 0,
      "note": 85,
      "start": 4.7125,
      "duration": 0.048,
      "velocity": 103,
      "chip": "ym2612"
    },
    {
      "channel": 3,
      "note": 84,
      "start": 4.7141,
      "duration": 0.0465,
      "velocity": 103,
      "chip": "ym2612"
    },
    {
      "channel": 1,
      "note": 78,
      "start": 4.7159,
      "duration": 0.045,
      "velocity": 103,
      "chip": "ym2612"
    },
    {
      "channel": 4,
      "note": 77,
      "start": 4.7175,
      "duration": 0.0434,
      "velocity": 103,
      "chip": "ym2612"
    },
    {
      "channel": 2,
      "note": 93,
      "start": 4.7199,
      "duration": 0.0712,
      "velocity": 95,
      "chip": "ym2612"
    },
    {
      "channel": 5,
      "note": 42,
      "start": 4.7224,
      "duration": 0.0907,
      "velocity": 107,
      "chip": "ym2612"
    },
    {
      "channel": 0,
      "note": 92,
      "start": 4.768,
      "duration": 0.044,
      "velocity": 103,
      "chip": "ym2612"
    },
    {
      "channel": 3,
      "note": 91,
      "start": 4.77,
      "duration": 0.0421,
      "velocity": 103,
      "chip": "ym2612"
    },
    {
      "channel": 1,
      "note": 85,
      "start": 4.7716,
      "duration": 0.0407,
      "velocity": 103,
      "chip": "ym2612"
    },
    {
      "channel": 4,
      "note": 84,
      "start": 4.773,
      "duration": 0.0394,
      "velocity": 103,
      "chip": "ym2612"
    },
    {
      "channel": 0,
      "note": 92,
      "start": 4.8213,
      "duration": 0.0483,
      "velocity": 103,
      "chip": "ym2612"
    },
    {
      "channel": 3,
      "note": 91,
      "start": 4.823,
      "duration": 0.0468,
      "velocity": 103,
      "chip": "ym2612"
    },
    {
      "channel": 1,
      "note": 85,
      "start": 4.8247,
      "duration": 0.0452,
      "velocity": 103,
      "chip": "ym2612"
    },
    {
      "channel": 4,
      "note": 84,
      "start": 4.8264,
      "duration": 0.0436,
      "velocity": 103,
      "chip": "ym2612"
    },
    {
      "channel": 2,
      "note": 93,
      "start": 4.8281,
      "duration": 0.0717,
      "velocity": 95,
      "chip": "ym2612"
    },
    {
      "channel": 5,
      "note": 65,
      "start": 4.8296,
      "duration": 0.0921,
      "velocity": 107,
      "chip": "ym2612"
    },
    {
      "channel": 0,
      "note": 97,
      "start": 4.8771,
      "duration": 0.0436,
      "velocity": 103,
      "chip": "ym2612"
    },
    {
      "channel": 3,
      "note": 96,
      "start": 4.8785,
      "duration": 0.0422,
      "velocity": 103,
      "chip": "ym2612"
    },
    {
      "channel": 1,
      "note": 90,
      "start": 4.88,
      "duration": 0.0409,
      "velocity": 103,
      "chip": "ym2612"
    },
    {
      "channel": 4,
      "note": 89,
      "start": 4.8815,
      "duration": 0.0396,
      "velocity": 103,
      "chip": "ym2612"
    },
    {
      "channel": 0,
      "note": 97,
      "start": 4.9293,
      "duration": 0.0485,
      "velocity": 103,
      "chip": "ym2612"
    },
    {
      "channel": 3,
      "note": 96,
      "start": 4.931,
      "duration": 0.0469,
      "velocity": 103,
      "chip": "ym2612"
    },
    {
      "channel": 1,
      "note": 90,
      "start": 4.9327,
      "duration": 0.0454,
      "velocity": 103,
      "chip": "ym2612"
    },
    {
      "channel": 4,
      "note": 89,
      "start": 4.9344,
      "duration": 0.0439,
      "velocity": 103,
      "chip": "ym2612"
    },
    {
      "channel": 2,
      "note": 93,
      "start": 4.9377,
      "duration": 0.0922,
      "velocity": 127,
      "chip": "ym2612"
    },
    {
      "channel": 5,
      "note": 61,
      "start": 4.9394,
      "duration": 0.0907,
      "velocity": 107,
      "chip": "ym2612"
    },
    {
      "channel": 0,
      "note": 104,
      "start": 4.9853,
      "duration": 0.044,
      "velocity": 103,
      "chip": "ym2612"
    },
    {
      "channel": 3,
      "note": 103,
      "start": 4.9873,
      "duration": 0.0421,
      "velocity": 103,
      "chip": "ym2612"
    },
    {
      "channel": 1,
      "note": 97,
      "start": 4.9888,
      "duration": 0.0407,
      "velocity": 103,
      "chip": "ym2612"
    },
    {
      "channel": 4,
      "note": 96,
      "start": 4.9903,
      "duration": 0.0394,
      "velocity": 103,
      "chip": "ym2612"
    },
    {
      "channel": 0,
      "note": 104,
      "start": 5.0374,
      "duration": 0.049,
      "velocity": 103,
      "chip": "ym2612"
    },
    {
      "channel": 3,
      "note": 103,
      "start": 5.0391,
      "duration": 0.0475,
      "velocity": 103,
      "chip": "ym2612"
    },
    {
      "channel": 1,
      "note": 97,
      "start": 5.0408,
      "duration": 0.0459,
      "velocity": 103,
      "chip": "ym2612"
    },
    {
      "channel": 4,
      "note": 96,
      "start": 5.0425,
      "duration": 0.0444,
      "velocity": 103,
      "chip": "ym2612"
    },
    {
      "channel": 5,
      "note": 57,
      "start": 5.0456,
      "duration": 0.0719,
      "velocity": 127,
      "chip": "ym2612"
    },
    {
      "channel": 0,
      "note": 109,
      "start": 5.0937,
      "duration": 0.0442,
      "velocity": 103,
      "chip": "ym2612"
    },
    {
      "channel": 3,
      "note": 108,
      "start": 5.0952,
      "duration": 0.0429,
      "velocity": 103,
      "chip": "ym2612"
    },
    {
      "channel": 1,
      "note": 102,
      "start": 5.0967,
      "duration": 0.0415,
      "velocity": 103,
      "chip": "ym2612"
    },
    {
      "channel": 4,
      "note": 101,
      "start": 5.0982,
      "duration": 0.0402,
      "velocity": 103,
      "chip": "ym2612"
    },
    {
      "channel": 0,
      "note": 109,
      "start": 5.1493,
      "duration": 0.0515,
      "velocity": 103,
      "chip": "ym2612"
    },
    {
      "channel": 3,
      "note": 108,
      "start": 5.1509,
      "duration": 0.0501,
      "velocity": 103,
      "chip": "ym2612"
    },
    {
      "channel": 1,
      "note": 102,
      "start": 5.1533,
      "duration": 0.0478,
      "velocity": 103,
      "chip": "ym2612"
    },
    {
      "channel": 4,
      "note": 101,
      "start": 5.1549,
      "duration": 0.0464,
      "velocity": 103,
      "chip": "ym2612"
    },
    {
      "channel": 2,
      "note": 90,
      "start": 5.1576,
      "duration": 0.0739,
      "velocity": 95,
      "chip": "ym2612"
    },
    {
      "channel": 5,
      "note": 42,
      "start": 5.1602,
      "duration": 0.0938,
      "velocity": 127,
      "chip": "ym2612"
    },
    {
      "channel": 0,
      "note": 48,
      "start": 5.2087,
      "duration": 0.0442,
      "velocity": 103,
      "chip": "ym2612"
    },
    {
      "channel": 3,
      "note": 47,
      "start": 5.2101,
      "duration": 0.0429,
      "velocity": 103,
      "chip": "ym2612"
    },
    {
      "channel": 1,
      "note": 41,
      "start": 5.2117,
      "duration": 0.0415,
      "velocity": 103,
      "chip": "ym2612"
    },
    {
      "channel": 4,
      "note": 40,
      "start": 5.2131,
      "duration": 0.0403,
      "velocity": 103,
      "chip": "ym2612"
    },
    {
      "channel": 0,
      "note": 48,
      "start": 5.2617,
      "duration": 0.0478,
      "velocity": 103,
      "chip": "ym2612"
    },
    {
      "channel": 3,
      "note": 47,
      "start": 5.2633,
      "duration": 0.0463,
      "velocity": 103,
      "chip": "ym2612"
    },
    {
      "channel": 1,
      "note": 41,
      "start": 5.265,
      "duration": 0.0447,
      "velocity": 103,
      "chip": "ym2612"
    },
    {
      "channel": 4,
      "note": 40,
      "start": 5.2667,
      "duration": 0.0432,
      "velocity": 103,
      "chip": "ym2612"
    },
    {
      "channel": 2,
      "note": 93,
      "start": 5.2684,
      "duration": 0.0717,
      "velocity": 95,
      "chip": "ym2612"
    },
    {
      "channel": 5,
      "note": 25,
      "start": 5.2705,
      "duration": 0.0915,
      "velocity": 127,
      "chip": "ym2612"
    },
    {
      "channel": 0,
      "note": 53,
      "start": 5.3167,
      "duration": 0.0442,
      "velocity": 103,
      "chip": "ym2612"
    },
    {
      "channel": 3,
      "note": 52,
      "start": 5.3181,
      "duration": 0.0429,
      "velocity": 103,
      "chip": "ym2612"
    },
    {
      "channel": 1,
      "note": 46,
      "start": 5.3203,
      "duration": 0.0409,
      "velocity": 103,
      "chip": "ym2612"
    },
    {
      "channel": 4,
      "note": 45,
      "start": 5.3218,
      "duration": 0.0396,
      "velocity": 103,
      "chip": "ym2612"
    },
    {
      "channel": 0,
      "note": 53,
      "start": 5.3702,
      "duration": 0.0478,
      "velocity": 103,
      "chip": "ym2612"
    },
    {
      "channel": 3,
      "note": 52,
      "start": 5.372,
      "duration": 0.0463,
      "velocity": 103,
      "chip": "ym2612"
    },
    {
      "channel": 1,
      "note": 46,
      "start": 5.3736,
      "duration": 0.0448,
      "velocity": 103,
      "chip": "ym2612"
    },
    {
      "channel": 4,
      "note": 45,
      "start": 5.3753,
      "duration": 0.0433,
      "velocity": 103,
      "chip": "ym2612"
    },
    {
      "channel": 2,
      "note": 93,
      "start": 5.378,
      "duration": 0.0923,
      "velocity": 127,
      "chip": "ym2612"
    },
    {
      "channel": 5,
      "note": 25,
      "start": 5.3797,
      "duration": 0.0907,
      "velocity": 127,
      "chip": "ym2612"
    },
    {
      "channel": 0,
      "note": 60,
      "start": 5.426,
      "duration": 0.0437,
      "velocity": 103,
      "chip": "ym2612"
    },
    {
      "channel": 3,
      "note": 59,
      "start": 5.4274,
      "duration": 0.0424,
      "velocity": 103,
      "chip": "ym2612"
    },
    {
      "channel": 1,
      "note": 53,
      "start": 5.429,
      "duration": 0.041,
      "velocity": 103,
      "chip": "ym2612"
    },
    {
      "channel": 4,
      "note": 52,
      "start": 5.4304,
      "duration": 0.0398,
      "velocity": 103,
      "chip": "ym2612"
    },
    {
      "channel": 0,
      "note": 60,
      "start": 5.4772,
      "duration": 0.0438,
      "velocity": 103,
      "chip": "ym2612"
    },
    {
      "channel": 3,
      "note": 59,
      "start": 5.479,
      "duration": 0.0422,
      "velocity": 103,
      "chip": "ym2612"
    },
    {
      "channel": 1,
      "note": 53,
      "start": 5.4806,
      "duration": 0.0407,
      "velocity": 103,
      "chip": "ym2612"
    },
    {
      "channel": 4,
      "note": 52,
      "start": 5.4823,
      "duration": 0.0392,
      "velocity": 103,
      "chip": "ym2612"
    },
    {
      "channel": 5,
      "note": 25,
      "start": 5.4845,
      "duration": 0.0891,
      "velocity": 127,
      "chip": "ym2612"
    },
    {
      "channel": 0,
      "note": 65,
      "start": 5.5283,
      "duration": 0.0441,
      "velocity": 103,
      "chip": "ym2612"
    },
    {
      "channel": 3,
      "note": 64,
      "start": 5.5298,
      "duration": 0.0428,
      "velocity": 103,
      "chip": "ym2612"
    },
    {
      "channel": 1,
      "note": 58,
      "start": 5.5313,
      "duration": 0.0415,
      "velocity": 103,
      "chip": "ym2612"
    },
    {
      "channel": 4,
      "note": 57,
      "start": 5.5328,
      "duration": 0.0401,
      "velocity": 103,
      "chip": "ym2612"
    },
    {
      "channel": 0,
      "note": 65,
      "start": 5.5812,
      "duration": 0.0484,
      "velocity": 103,
      "chip": "ym2612"
    },
    {
      "channel": 3,
      "note": 64,
      "start": 5.5829,
      "duration": 0.0469,
      "velocity": 103,
      "chip": "ym2612"
    },
    {
      "channel": 1,
      "note": 58,
      "start": 5.5846,
      "duration": 0.0454,
      "velocity": 103,
      "chip": "ym2612"
    },
    {
      "channel": 4,
      "note": 57,
      "start": 5.5869,
      "duration": 0.0432,
      "velocity": 103,
      "chip": "ym2612"
    },
    {
      "channel": 2,
      "note": 90,
      "start": 5.5896,
      "duration": 0.0707,
      "velocity": 95,
      "chip": "ym2612"
    },
    {
      "channel": 5,
      "note": 25,
      "start": 5.5922,
      "duration": 0.0682,
      "velocity": 127,
      "chip": "ym2612"
    },
    {
      "channel": 0,
      "note": 72,
      "start": 5.6376,
      "duration": 0.0436,
      "velocity": 103,
      "chip": "ym2612"
    },
    {
      "channel": 3,
      "note": 71,
      "start": 5.639,
      "duration": 0.0423,
      "velocity": 103,
      "chip": "ym2612"
    },
    {
      "channel": 1,
      "note": 65,
      "start": 5.6405,
      "duration": 0.0409,
      "velocity": 103,
      "chip": "ym2612"
    },
    {
      "channel": 4,
      "note": 64,
      "start": 5.642,
      "duration": 0.0396,
      "velocity": 103,
      "chip": "ym2612"
    },
    {
      "channel": 0,
      "note": 72,
      "start": 5.69,
      "duration": 0.0426,
      "velocity": 103,
      "chip": "ym2612"
    },
    {
      "channel": 3,
      "note": 71,
      "start": 5.6917,
      "duration": 0.0411,
      "velocity": 103,
      "chip": "ym2612"
    },
    {
      "channel": 1,
      "note": 65,
      "start": 5.6933,
      "duration": 0.0396,
      "velocity": 103,
      "chip": "ym2612"
    },
    {
      "channel": 4,
      "note": 64,
      "start": 5.6951,
      "duration": 0.038,
      "velocity": 103,
      "chip": "ym2612"
    },
    {
      "channel": 2,
      "note": 93,
      "start": 5.6967,
      "duration": 0.0665,
      "velocity": 95,
      "chip": "ym2612"
    },
    {
      "channel": 0,
      "note": 77,
      "start": 5.7405,
      "duration": 0.0436,
      "velocity": 103,
      "chip": "ym2612"
    },
    {
      "channel": 3,
      "note": 76,
      "start": 5.7419,
      "duration": 0.0423,
      "velocity": 103,
      "chip": "ym2612"
    },
    {
      "channel": 1,
      "note": 70,
      "start": 5.7435,
      "duration": 0.0409,
      "velocity": 103,
      "chip": "ym2612"
    },
    {
      "channel": 4,
      "note": 69,
      "start": 5.7449,
      "duration": 0.0396,
      "velocity": 103,
      "chip": "ym2612"
    },
    {
      "channel": 0,
      "note": 77,
      "start": 5.7938,
      "duration": 0.0474,
      "velocity": 103,
      "chip": "ym2612"
    },
    {
      "channel": 3,
      "note": 76,
      "start": 5.7954,
      "duration": 0.0459,
      "velocity": 103,
      "chip": "ym2612"
    },
    {
      "channel": 1,
      "note": 70,
      "start": 5.7971,
      "duration": 0.0444,
      "velocity": 103,
      "chip": "ym2612"
    },
    {
      "channel": 4,
      "note": 69,
      "start": 5.7988,
      "duration": 0.0429,
      "velocity": 103,
      "chip": "ym2612"
    },
    {
      "channel": 2,
      "note": 93,
      "start": 5.8015,
      "duration": 0.0918,
      "velocity": 127,
      "chip": "ym2612"
    },
    {
      "channel": 5,
      "note": 42,
      "start": 5.8047,
      "duration": 0.0888,
      "velocity": 127,
      "chip": "ym2612"
    },
    {
      "channel": 0,
      "note": 84,
      "start": 5.8485,
      "duration": 0.0442,
      "velocity": 103,
      "chip": "ym2612"
    },
    {
      "channel": 3,
      "note": 83,
      "start": 5.85,
      "duration": 0.0429,
      "velocity": 103,
      "chip": "ym2612"
    },
    {
      "channel": 1,
      "note": 77,
      "start": 5.8515,
      "duration": 0.0415,
      "velocity": 103,
      "chip": "ym2612"
    },
    {
      "channel": 4,
      "note": 76,
      "start": 5.8536,
      "duration": 0.0396,
      "velocity": 103,
      "chip": "ym2612"
    },
    {
      "channel": 0,
      "note": 84,
      "start": 5.9002,
      "duration": 0.0439,
      "velocity": 103,
      "chip": "ym2612"
    },
    {
      "channel": 3,
      "note": 83,
      "start": 5.9019,
      "duration": 0.0424,
      "velocity": 103,
      "chip": "ym2612"
    },
    {
      "channel": 1,
      "note": 77,
      "start": 5.9042,
      "duration": 0.0402,
      "velocity": 103,
      "chip": "ym2612"
    },
    {
      "channel": 4,
      "note": 76,
      "start": 5.9059,
      "duration": 0.0387,
      "velocity": 103,
      "chip": "ym2612"
    },
    {
      "channel": 5,
      "note": 25,
      "start": 5.9081,
      "duration": 0.0887,
      "velocity": 127,
      "chip": "ym2612"
    },
    {
      "channel": 0,
      "note": 89,
      "start": 5.9514,
      "duration": 0.0442,
      "velocity": 103,
      "chip": "ym2612"
    },
    {
      "channel": 3,
      "note": 88,
      "start": 5.9535,
      "duration": 0.0423,
      "velocity": 103,
      "chip": "ym2612"
    },
    {
      "channel": 1,
      "note": 82,
      "start": 5.955,
      "duration": 0.0409,
      "velocity": 103,
      "chip": "ym2612"
    },
    {
      "channel": 4,
      "note": 81,
      "start": 5.9565,
      "duration": 0.0396,
      "velocity": 103,
      "chip": "ym2612"
    },
    {
      "channel": 0,
      "note": 89,
      "start": 6.0058,
      "duration": 0.0472,
      "velocity": 103,
      "chip": "ym2612"
    },
    {
      "channel": 3,
      "note": 88,
      "start": 6.0075,
      "duration": 0.0457,
      "velocity": 103,
      "chip": "ym2612"
    },
    {
      "channel": 1,
      "note": 82,
      "start": 6.0092,
      "duration": 0.0441,
      "velocity": 103,
      "chip": "ym2612"
    },
    {
      "channel": 4,
      "note": 81,
      "start": 6.0109,
      "duration": 0.0426,
      "velocity": 103,
      "chip": "ym2612"
    },
    {
      "channel": 2,
      "note": 90,
      "start": 6.0136,
      "duration": 0.0698,
      "velocity": 95,
      "chip": "ym2612"
    },
    {
      "channel": 5,
      "note": 25,
      "start": 6.0153,
      "duration": 0.0901,
      "velocity": 127,
      "chip": "ym2612"
    },
    {
      "channel": 0,
      "note": 60,
      "start": 6.0602,
      "duration": 0.044,
      "velocity": 103,
      "chip": "ym2612"
    },
    {
      "channel": 3,
      "note": 59,
      "start": 6.0617,
      "duration": 0.0427,
      "velocity": 103,
      "chip": "ym2612"
    },
    {
      "channel": 1,
      "note": 53,
      "start": 6.0632,
      "duration": 0.0414,
      "velocity": 103,
      "chip": "ym2612"
    },
    {
      "channel": 4,
      "note": 52,
      "start": 6.0647,
      "duration": 0.04,
      "velocity": 103,
      "chip": "ym2612"
    },
    {
      "channel": 0,
      "note": 60,
      "start": 6.113,
      "duration": 0.0485,
      "velocity": 103,
      "chip": "ym2612"
    },
    {
      "channel": 3,
      "note": 59,
      "start": 6.1146,
      "duration": 0.0469,
      "velocity": 103,
      "chip": "ym2612"
    },
    {
      "channel": 1,
      "note": 53,
      "start": 6.1164,
      "duration": 0.0454,
      "velocity": 103,
      "chip": "ym2612"
    },
    {
      "channel": 4,
      "note": 52,
      "start": 6.1181,
      "duration": 0.0438,
      "velocity": 103,
      "chip": "ym2612"
    },
    {
      "channel": 2,
      "note": 93,
      "start": 6.1204,
      "duration": 0.0717,
      "velocity": 95,
      "chip": "ym2612"
    },
    {
      "channel": 5,
      "note": 25,
      "start": 6.1219,
      "duration": 0.0921,
      "velocity": 127,
      "chip": "ym2612"
    },
    {
      "channel": 0,
      "note": 65,
      "start": 6.1689,
      "duration": 0.044,
      "velocity": 103,
      "chip": "ym2612"
    },
    {
      "channel": 3,
      "note": 64,
      "start": 6.1708,
      "duration": 0.0422,
      "velocity": 103,
      "chip": "ym2612"
    },
    {
      "channel": 1,
      "note": 58,
      "start": 6.1723,
      "duration": 0.0409,
      "velocity": 103,
      "chip": "ym2612"
    },
    {
      "channel": 4,
      "note": 57,
      "start": 6.1738,
      "duration": 0.0396,
      "velocity": 103,
      "chip": "ym2612"
    },
    {
      "channel": 0,
      "note": 65,
      "start": 6.2223,
      "duration": 0.0478,
      "velocity": 103,
      "chip": "ym2612"
    },
    {
      "channel": 3,
      "note": 64,
      "start": 6.224,
      "duration": 0.0463,
      "velocity": 103,
      "chip": "ym2612"
    },
    {
      "channel": 1,
      "note": 58,
      "start": 6.2257,
      "duration": 0.0446,
      "velocity": 103,
      "chip": "ym2612"
    },
    {
      "channel": 4,
      "note": 57,
      "start": 6.2274,
      "duration": 0.0432,
      "velocity": 103,
      "chip": "ym2612"
    },
    {
      "channel": 2,
      "note": 93,
      "start": 6.2291,
      "duration": 0.1445,
      "velocity": 95,
      "chip": "ym2612"
    },
    {
      "channel": 5,
      "note": 25,
      "start": 6.2314,
      "duration": 0.1424,
      "velocity": 127,
      "chip": "ym2612"
    },
    {
      "channel": 0,
      "note": 72,
      "start": 6.2774,
      "duration": 0.0442,
      "velocity": 103,
      "chip": "ym2612"
    },
    {
      "channel": 3,
      "note": 71,
      "start": 6.2788,
      "duration": 0.0429,
      "velocity": 103,
      "chip": "ym2612"
    },
    {
      "channel": 1,
      "note": 65,
      "start": 6.2804,
      "duration": 0.0415,
      "velocity": 103,
      "chip": "ym2612"
    },
    {
      "channel": 4,
      "note": 64,
      "start": 6.2818,
      "duration": 0.0402,
      "velocity": 103,
      "chip": "ym2612"
    },
    {
      "channel": 0,
      "note": 72,
      "start": 6.3288,
      "duration": 0.0442,
      "velocity": 103,
      "chip": "ym2612"
    },
    {
      "channel": 3,
      "note": 71,
      "start": 6.3305,
      "duration": 0.0427,
      "velocity": 103,
      "chip": "ym2612"
    },
    {
      "channel": 1,
      "note": 65,
      "start": 6.3322,
      "duration": 0.0411,
      "velocity": 103,
      "chip": "ym2612"
    },
    {
      "channel": 4,
      "note": 64,
      "start": 6.3339,
      "duration": 0.0396,
      "velocity": 103,
      "chip": "ym2612"
    },
    {
      "channel": 0,
      "note": 77,
      "start": 6.3796,
      "duration": 0.0449,
      "velocity": 103,
      "chip": "ym2612"
    },
    {
      "channel": 3,
      "note": 76,
      "start": 6.3811,
      "duration": 0.0436,
      "velocity": 103,
      "chip": "ym2612"
    },
    {
      "channel": 1,
      "note": 70,
      "start": 6.3826,
      "duration": 0.0422,
      "velocity": 103,
      "chip": "ym2612"
    },
    {
      "channel": 4,
      "note": 69,
      "start": 6.384,
      "duration": 0.0409,
      "velocity": 103,
      "chip": "ym2612"
    },
    {
      "channel": 0,
      "note": 77,
      "start": 6.4339,
      "duration": 0.0478,
      "velocity": 103,
      "chip": "ym2612"
    },
    {
      "channel": 3,
      "note": 76,
      "start": 6.4362,
      "duration": 0.0456,
      "velocity": 103,
      "chip": "ym2612"
    },
    {
      "channel": 1,
      "note": 70,
      "start": 6.4379,
      "duration": 0.044,
      "velocity": 103,
      "chip": "ym2612"
    },
    {
      "channel": 4,
      "note": 69,
      "start": 6.4396,
      "duration": 0.0426,
      "velocity": 103,
      "chip": "ym2612"
    },
    {
      "channel": 2,
      "note": 93,
      "start": 6.4413,
      "duration": 0.071,
      "velocity": 95,
      "chip": "ym2612"
    },
    {
      "channel": 5,
      "note": 42,
      "start": 6.4438,
      "duration": 0.0905,
      "velocity": 107,
      "chip": "ym2612"
    },
    {
      "channel": 0,
      "note": 84,
      "start": 6.4897,
      "duration": 0.0434,
      "velocity": 103,
      "chip": "ym2612"
    },
    {
      "channel": 3,
      "note": 83,
      "start": 6.4912,
      "duration": 0.0421,
      "velocity": 103,
      "chip": "ym2612"
    },
    {
      "channel": 1,
      "note": 77,
      "start": 6.4927,
      "duration": 0.0408,
      "velocity": 103,
      "chip": "ym2612"
    },
    {
      "channel": 4,
      "note": 76,
      "start": 6.4941,
      "duration": 0.0395,
      "velocity": 103,
      "chip": "ym2612"
    },
    {
      "channel": 0,
      "note": 84,
      "start": 6.5425,
      "duration": 0.0478,
      "velocity": 103,
      "chip": "ym2612"
    },
    {
      "channel": 3,
      "note": 83,
      "start": 6.5441,
      "duration": 0.0463,
      "velocity": 103,
      "chip": "ym2612"
    },
    {
      "channel": 1,
      "note": 77,
      "start": 6.5459,
      "duration": 0.0447,
      "velocity": 103,
      "chip": "ym2612"
    },
    {
      "channel": 4,
      "note": 76,
      "start": 6.5476,
      "duration": 0.0432,
      "velocity": 103,
      "chip": "ym2612"
    },
    {
      "channel": 2,
      "note": 93,
      "start": 6.5493,
      "duration": 0.0723,
      "velocity": 95,
      "chip": "ym2612"
    },
    {
      "channel": 5,
      "note": 65,
      "start": 6.5508,
      "duration": 0.0921,
      "velocity": 107,
      "chip": "ym2612"
    },
    {
      "channel": 0,
      "note": 89,
      "start": 6.5977,
      "duration": 0.0441,
      "velocity": 103,
      "chip": "ym2612"
    },
    {
      "channel": 3,
      "note": 88,
      "start": 6.5992,
      "duration": 0.0427,
      "velocity": 103,
      "chip": "ym2612"
    },
    {
      "channel": 1,
      "note": 82,
      "start": 6.6007,
      "duration": 0.0414,
      "velocity": 103,
      "chip": "ym2612"
    },
    {
      "channel": 4,
      "note": 81,
      "start": 6.6028,
      "duration": 0.0394,
      "velocity": 103,
      "chip": "ym2612"
    },
    {
      "channel": 0,
      "note": 89,
      "start": 6.6505,
      "duration": 0.0485,
      "velocity": 103,
      "chip": "ym2612"
    },
    {
      "channel": 3,
      "note": 88,
      "start": 6.6528,
      "duration": 0.0463,
      "velocity": 103,
      "chip": "ym2612"
    },
    {
      "channel": 1,
      "note": 82,
      "start": 6.6545,
      "duration": 0.0447,
      "velocity": 103,
      "chip": "ym2612"
    },
    {
      "channel": 4,
      "note": 81,
      "start": 6.6562,
      "duration": 0.0432,
      "velocity": 103,
      "chip": "ym2612"
    },
    {
      "channel": 2,
      "note": 93,
      "start": 6.6588,
      "duration": 0.0922,
      "velocity": 127,
      "chip": "ym2612"
    },
    {
      "channel": 5,
      "note": 61,
      "start": 6.6606,
      "duration": 0.0906,
      "velocity": 107,
      "chip": "ym2612"
    },
    {
      "channel": 0,
      "note": 96,
      "start": 6.7071,
      "duration": 0.0433,
      "velocity": 103,
      "chip": "ym2612"
    },
    {
      "channel": 3,
      "note": 95,
      "start": 6.7085,
      "duration": 0.0421,
      "velocity": 103,
      "chip": "ym2612"
    },
    {
      "channel": 1,
      "note": 89,
      "start": 6.7101,
      "duration": 0.0406,
      "velocity": 103,
      "chip": "ym2612"
    },
    {
      "channel": 4,
      "note": 88,
      "start": 6.7115,
      "duration": 0.0394,
      "velocity": 103,
      "chip": "ym2612"
    },
    {
      "channel": 0,
      "note": 96,
      "start": 6.7586,
      "duration": 0.049,
      "velocity": 103,
      "chip": "ym2612"
    },
    {
      "channel": 3,
      "note": 95,
      "start": 6.7603,
      "duration": 0.0474,
      "velocity": 103,
      "chip": "ym2612"
    },
    {
      "channel": 1,
      "note": 89,
      "start": 6.762,
      "duration": 0.0459,
      "velocity": 103,
      "chip": "ym2612"
    },
    {
      "channel": 4,
      "note": 88,
      "start": 6.7637,
      "duration": 0.0443,
      "velocity": 103,
      "chip": "ym2612"
    },
    {
      "channel": 5,
      "note": 57,
      "start": 6.7668,
      "duration": 0.072,
      "velocity": 127,
      "chip": "ym2612"
    },
    {
      "channel": 0,
      "note": 101,
      "start": 6.8148,
      "duration": 0.0442,
      "velocity": 103,
      "chip": "ym2612"
    },
    {
      "channel": 3,
      "note": 100,
      "start": 6.8163,
      "duration": 0.0429,
      "velocity": 103,
      "chip": "ym2612"
    },
    {
      "channel": 1,
      "note": 94,
      "start": 6.8178,
      "duration": 0.0415,
      "velocity": 103,
      "chip": "ym2612"
    },
    {
      "channel": 4,
      "note": 93,
      "start": 6.8199,
      "duration": 0.0396,
      "velocity": 103,
      "chip": "ym2612"
    },
    {
      "channel": 0,
      "note": 101,
      "start": 6.8697,
      "duration": 0.0466,
      "velocity": 103,
      "chip": "ym2612"
    },
    {
      "channel": 3,
      "note": 100,
      "start": 6.8713,
      "duration": 0.0451,
      "velocity": 103,
      "chip": "ym2612"
    },
    {
      "channel": 1,
      "note": 94,
      "start": 6.873,
      "duration": 0.0435,
      "velocity": 103,
      "chip": "ym2612"
    },
    {
      "channel": 4,
      "note": 93,
      "start": 6.8747,
      "duration": 0.042,
      "velocity": 103,
      "chip": "ym2612"
    },
    {
      "channel": 2,
      "note": 90,
      "start": 6.8774,
      "duration": 0.0695,
      "velocity": 95,
      "chip": "ym2612"
    },
    {
      "channel": 5,
      "note": 42,
      "start": 6.88,
      "duration": 0.0895,
      "velocity": 127,
      "chip": "ym2612"
    },
    {
      "channel": 0,
      "note": 72,
      "start": 6.9241,
      "duration": 0.0436,
      "velocity": 103,
      "chip": "ym2612"
    },
    {
      "channel": 3,
      "note": 71,
      "start": 6.9256,
      "duration": 0.0423,
      "velocity": 103,
      "chip": "ym2612"
    },
    {
      "channel": 1,
      "note": 65,
      "start": 6.9271,
      "duration": 0.0409,
      "velocity": 103,
      "chip": "ym2612"
    },
    {
      "channel": 4,
      "note": 64,
      "start": 6.9286,
      "duration": 0.0396,
      "velocity": 103,
      "chip": "ym2612"
    },
    {
      "channel": 0,
      "note": 72,
      "start": 6.9771,
      "duration": 0.0478,
      "velocity": 103,
      "chip": "ym2612"
    },
    {
      "channel": 3,
      "note": 71,
      "start": 6.9788,
      "duration": 0.0462,
      "velocity": 103,
      "chip": "ym2612"
    },
    {
      "channel": 1,
      "note": 65,
      "start": 6.9805,
      "duration": 0.0447,
      "velocity": 103,
      "chip": "ym2612"
    },
    {
      "channel": 4,
      "note": 64,
      "start": 6.9821,
      "duration": 0.0432,
      "velocity": 103,
      "chip": "ym2612"
    },
    {
      "channel": 2,
      "note": 93,
      "start": 6.9839,
      "duration": 0.0716,
      "velocity": 95,
      "chip": "ym2612"
    },
    {
      "channel": 5,
      "note": 25,
      "start": 6.9853,
      "duration": 0.0921,
      "velocity": 127,
      "chip": "ym2612"
    },
    {
      "channel": 0,
      "note": 77,
      "start": 7.0321,
      "duration": 0.0442,
      "velocity": 103,
      "chip": "ym2612"
    },
    {
      "channel": 3,
      "note": 76,
      "start": 7.0336,
      "duration": 0.0429,
      "velocity": 103,
      "chip": "ym2612"
    },
    {
      "channel": 1,
      "note": 70,
      "start": 7.0351,
      "duration": 0.0415,
      "velocity": 103,
      "chip": "ym2612"
    },
    {
      "channel": 4,
      "note": 69,
      "start": 7.0372,
      "duration": 0.0396,
      "velocity": 103,
      "chip": "ym2612"
    },
    {
      "channel": 0,
      "note": 77,
      "start": 7.0851,
      "duration": 0.0485,
      "velocity": 103,
      "chip": "ym2612"
    },
    {
      "channel": 3,
      "note": 76,
      "start": 7.0873,
      "duration": 0.0464,
      "velocity": 103,
      "chip": "ym2612"
    },
    {
      "channel": 1,
      "note": 70,
      "start": 7.0891,
      "duration": 0.0448,
      "velocity": 103,
      "chip": "ym2612"
    },
    {
      "channel": 4,
      "note": 69,
      "start": 7.0907,
      "duration": 0.0433,
      "velocity": 103,
      "chip": "ym2612"
    },
    {
      "channel": 2,
      "note": 93,
      "start": 7.0934,
      "duration": 0.0929,
      "velocity": 127,
      "chip": "ym2612"
    },
    {
      "channel": 5,
      "note": 25,
      "start": 7.0951,
      "duration": 0.0913,
      "velocity": 127,
      "chip": "ym2612"
    },
    {
      "channel": 0,
      "note": 84,
      "start": 7.1414,
      "duration": 0.0436,
      "velocity": 103,
      "chip": "ym2612"
    },
    {
      "channel": 3,
      "note": 83,
      "start": 7.1429,
      "duration": 0.0422,
      "velocity": 103,
      "chip": "ym2612"
    },
    {
      "channel": 1,
      "note": 77,
      "start": 7.1444,
      "duration": 0.0409,
      "velocity": 103,
      "chip": "ym2612"
    },
    {
      "channel": 4,
      "note": 76,
      "start": 7.1459,
      "duration": 0.0402,
      "velocity": 103,
      "chip": "ym2612"
    },
    {
      "channel": 0,
      "note": 84,
      "start": 7.1932,
      "duration": 0.0433,
      "velocity": 103,
      "chip": "ym2612"
    },
    {
      "channel": 3,
      "note": 83,
      "start": 7.1949,
      "duration": 0.0417,
      "velocity": 103,
      "chip": "ym2612"
    },
    {
      "channel": 1,
      "note": 77,
      "start": 7.1965,
      "duration": 0.0403,
      "velocity": 103,
      "chip": "ym2612"
    },
    {
      "channel": 4,
      "note": 76,
      "start": 7.1982,
      "duration": 0.0387,
      "velocity": 103,
      "chip": "ym2612"
    },
    {
      "channel": 5,
      "note": 25,
      "start": 7.2004,
      "duration": 0.0886,
      "velocity": 127,
      "chip": "ym2612"
    },
    {
      "channel": 0,
      "note": 89,
      "start": 7.2437,
      "duration": 0.0442,
      "velocity": 103,
      "chip": "ym2612"
    },
    {
      "channel": 3,
      "note": 88,
      "start": 7.2452,
      "duration": 0.0429,
      "velocity": 103,
      "chip": "ym2612"
    },
    {
      "channel": 1,
      "note": 82,
      "start": 7.2467,
      "duration": 0.0415,
      "velocity": 103,
      "chip": "ym2612"
    },
    {
      "channel": 4,
      "note": 81,
      "start": 7.2482,
      "duration": 0.0402,
      "velocity": 103,
      "chip": "ym2612"
    },
    {
      "channel": 0,
      "note": 89,
      "start": 7.2966,
      "duration": 0.0485,
      "velocity": 103,
      "chip": "ym2612"
    },
    {
      "channel": 3,
      "note": 88,
      "start": 7.2983,
      "duration": 0.0469,
      "velocity": 103,
      "chip": "ym2612"
    },
    {
      "channel": 1,
      "note": 82,
      "start": 7.3,
      "duration": 0.0454,
      "velocity": 103,
      "chip": "ym2612"
    },
    {
      "channel": 4,
      "note": 81,
      "start": 7.3017,
      "duration": 0.0438,
      "velocity": 103,
      "chip": "ym2612"
    },
    {
      "channel": 2,
      "note": 90,
      "start": 7.305,
      "duration": 0.0707,
      "velocity": 95,
      "chip": "ym2612"
    },
    {
      "channel": 5,
      "note": 25,
      "start": 7.3076,
      "duration": 0.0682,
      "velocity": 127,
      "chip": "ym2612"
    },
    {
      "channel": 0,
      "note": 96,
      "start": 7.353,
      "duration": 0.0436,
      "velocity": 103,
      "chip": "ym2612"
    },
    {
      "channel": 3,
      "note": 95,
      "start": 7.3545,
      "duration": 0.0422,
      "velocity": 103,
      "chip": "ym2612"
    },
    {
      "channel": 1,
      "note": 89,
      "start": 7.356,
      "duration": 0.0409,
      "velocity": 103,
      "chip": "ym2612"
    },
    {
      "channel": 4,
      "note": 88,
      "start": 7.3575,
      "duration": 0.0396,
      "velocity": 103,
      "chip": "ym2612"
    },
    {
      "channel": 0,
      "note": 96,
      "start": 7.4054,
      "duration": 0.0426,
      "velocity": 103,
      "chip": "ym2612"
    },
    {
      "channel": 3,
      "note": 95,
      "start": 7.4071,
      "duration": 0.0411,
      "velocity": 103,
      "chip": "ym2612"
    },
    {
      "channel": 1,
      "note": 89,
      "start": 7.4088,
      "duration": 0.0396,
      "velocity": 103,
      "chip": "ym2612"
    },
    {
      "channel": 4,
      "note": 88,
      "start": 7.4105,
      "duration": 0.038,
      "velocity": 103,
      "chip": "ym2612"
    },
    {
      "channel": 2,
      "note": 93,
      "start": 7.4122,
      "duration": 0.0665,
      "velocity": 95,
      "chip": "ym2612"
    },
    {
      "channel": 0,
      "note": 101,
      "start": 7.4559,
      "duration": 0.0436,
      "velocity": 103,
      "chip": "ym2612"
    },
    {
      "channel": 3,
      "note": 100,
      "start": 7.4574,
      "duration": 0.0422,
      "velocity": 103,
      "chip": "ym2612"
    },
    {
      "channel": 1,
      "note": 94,
      "start": 7.4588,
      "duration": 0.041,
      "velocity": 103,
      "chip": "ym2612"
    },
    {
      "channel": 4,
      "note": 93,
      "start": 7.4603,
      "duration": 0.0396,
      "velocity": 103,
      "chip": "ym2612"
    },
    {
      "channel": 0,
      "note": 101,
      "start": 7.5092,
      "duration": 0.0475,
      "velocity": 103,
      "chip": "ym2612"
    },
    {
      "channel": 3,
      "note": 100,
      "start": 7.5109,
      "duration": 0.0459,
      "velocity": 103,
      "chip": "ym2612"
    },
    {
      "channel": 1,
      "note": 94,
      "start": 7.5125,
      "duration": 0.0444,
      "velocity": 103,
      "chip": "ym2612"
    },
    {
      "channel": 4,
      "note": 93,
      "start": 7.5143,
      "duration": 0.0429,
      "velocity": 103,
      "chip": "ym2612"
    },
    {
      "channel": 2,
      "note": 93,
      "start": 7.5169,
      "duration": 0.0918,
      "velocity": 127,
      "chip": "ym2612"
    },
    {
      "channel": 5,
      "note": 42,
      "start": 7.5202,
      "duration": 0.0887,
      "velocity": 127,
      "chip": "ym2612"
    },
    {
      "channel": 0,
      "note": 108,
      "start": 7.5639,
      "duration": 0.0442,
      "velocity": 103,
      "chip": "ym2612"
    },
    {
      "channel": 3,
      "note": 107,
      "start": 7.5654,
      "duration": 0.0429,
      "velocity": 103,
      "chip": "ym2612"
    },
    {
      "channel": 1,
      "note": 101,
      "start": 7.5669,
      "duration": 0.0415,
      "velocity": 103,
      "chip": "ym2612"
    },
    {
      "channel": 4,
      "note": 100,
      "start": 7.5684,
      "duration": 0.0402,
      "velocity": 103,
      "chip": "ym2612"
    },
    {
      "channel": 0,
      "note": 108,
      "start": 7.6157,
      "duration": 0.0439,
      "velocity": 103,
      "chip": "ym2612"
    },
    {
      "channel": 3,
      "note": 107,
      "start": 7.6174,
      "duration": 0.0424,
      "velocity": 103,
      "chip": "ym2612"
    },
    {
      "channel": 1,
      "note": 101,
      "start": 7.6197,
      "duration": 0.0403,
      "velocity": 103,
      "chip": "ym2612"
    },
    {
      "channel": 4,
      "note": 100,
      "start": 7.6214,
      "duration": 0.0387,
      "velocity": 103,
      "chip": "ym2612"
    },
    {
      "channel": 5,
      "note": 25,
      "start": 7.6236,
      "duration": 0.0886,
      "velocity": 127,
      "chip": "ym2612"
    },
    {
      "channel": 0,
      "note": 113,
      "start": 7.6669,
      "duration": 0.0442,
      "velocity": 103,
      "chip": "ym2612"
    },
    {
      "channel": 3,
      "note": 112,
      "start": 7.6683,
      "duration": 0.0429,
      "velocity": 103,
      "chip": "ym2612"
    },
    {
      "channel": 1,
      "note": 106,
      "start": 7.6705,
      "duration": 0.0409,
      "velocity": 103,
      "chip": "ym2612"
    },
    {
      "channel": 4,
      "note": 105,
      "start": 7.672,
      "duration": 0.0396,
      "velocity": 103,
      "chip": "ym2612"
    },
    {
      "channel": 0,
      "note": 113,
      "start": 7.7217,
      "duration": 0.1038,
      "velocity": 102,
      "chip": "ym2612"
    },
    {
      "channel": 3,
      "note": 112,
      "start": 7.7234,
      "duration": 0.0339,
      "velocity": 103,
      "chip": "ym2612"
    },
    {
      "channel": 2,
      "note": 90,
      "start": 7.7272,
      "duration": 0.0716,
      "velocity": 95,
      "chip": "ym2612"
    },
    {
      "channel": 1,
      "note": 106,
      "start": 7.7759,
      "duration": 0.0281,
      "velocity": 103,
      "chip": "ym2612"
    },
    {
      "channel": 4,
      "note": 105,
      "start": 7.8106,
      "duration": 0.0278,
      "velocity": 103,
      "chip": "ym2612"
    },
    {
      "channel": 0,
      "note": 33,
      "start": 7.8444,
      "duration": 0.0987,
      "velocity": 102,
      "chip": "ym2612"
    },
    {
      "channel": 3,
      "note": 105,
      "start": 7.846,
      "duration": 0.0314,
      "velocity": 103,
      "chip": "ym2612"
    },
    {
      "channel": 2,
      "note": 93,
      "start": 7.8487,
      "duration": 0.0708,
      "velocity": 95,
      "chip": "ym2612"
    },
    {
      "channel": 1,
      "note": 105,
      "start": 7.8784,
      "duration": 0.0281,
      "velocity": 103,
      "chip": "ym2612"
    },
    {
      "channel": 4,
      "note": 103,
      "start": 7.9135,
      "duration": 0.0278,
      "velocity": 103,
      "chip": "ym2612"
    },
    {
      "channel": 0,
      "note": 41,
      "start": 7.9475,
      "duration": 0.0985,
      "velocity": 102,
      "chip": "ym2612"
    },
    {
      "channel": 3,
      "note": 103,
      "start": 7.9491,
      "duration": 0.0312,
      "velocity": 103,
      "chip": "ym2612"
    },
    {
      "channel": 2,
      "note": 93,
      "start": 7.9534,
      "duration": 0.1983,
      "velocity": 127,
      "chip": "ym2612"
    },
    {
      "channel": 1,
      "note": 101,
      "start": 7.9812,
      "duration": 0.0282,
      "velocity": 103,
      "chip": "ym2612"
    },
    {
      "channel": 4,
      "note": 101,
      "start": 8.0164,
      "duration": 0.0278,
      "velocity": 103,
      "chip": "ym2612"
    },
    {
      "channel": 0,
      "note": 33,
      "start": 8.0493,
      "duration": 0.0997,
      "velocity": 102,
      "chip": "ym2612"
    },
    {
      "channel": 3,
      "note": 99,
      "start": 8.051,
      "duration": 0.0266,
      "velocity": 103,
      "chip": "ym2612"
    },
    {
      "channel": 1,
      "note": 99,
      "start": 8.0846,
      "duration": 0.0335,
      "velocity": 103,
      "chip": "ym2612"
    },
    {
      "channel": 4,
      "note": 97,
      "start": 8.1197,
      "duration": 0.0275,
      "velocity": 103,
      "chip": "ym2612"
    },
    {
      "channel": 0,
      "note": 41,
      "start": 8.154,
      "duration": 0.0978,
      "velocity": 102,
      "chip": "ym2612"
    },
    {
      "channel": 3,
      "note": 97,
      "start": 8.1557,
      "duration": 0.0247,
      "velocity": 103,
      "chip": "ym2612"
    },
    {
      "channel": 2,
      "note": 90,
      "start": 8.1594,
      "duration": 0.0683,
      "velocity": 95,
      "chip": "ym2612"
    },
    {
      "channel": 1,
      "note": 95,
      "start": 8.1881,
      "duration": 0.0329,
      "velocity": 103,
      "chip": "ym2612"
    },
    {
      "channel": 4,
      "note": 95,
      "start": 8.222,
      "duration": 0.028,
      "velocity": 103,
      "chip": "ym2612"
    },
    {
      "channel": 0,
      "note": 49,
      "start": 8.2567,
      "duration": 0.0992,
      "velocity": 102,
      "chip": "ym2612"
    },
    {
      "channel": 3,
      "note": 93,
      "start": 8.2583,
      "duration": 0.025,
      "velocity": 103,
      "chip": "ym2612"
    },
    {
      "channel": 2,
      "note": 93,
      "start": 8.2611,
      "duration": 0.0695,
      "velocity": 95,
      "chip": "ym2612"
    },
    {
      "channel": 1,
      "note": 93,
      "start": 8.2904,
      "duration": 0.0278,
      "velocity": 103,
      "chip": "ym2612"
    },
    {
      "channel": 4,
      "note": 91,
      "start": 8.3252,
      "duration": 0.0381,
      "velocity": 103,
      "chip": "ym2612"
    },
    {
      "channel": 0,
      "note": 44,
      "start": 8.3602,
      "duration": 0.0999,
      "velocity": 102,
      "chip": "ym2612"
    },
    {
      "channel": 3,
      "note": 91,
      "start": 8.362,
      "duration": 0.0247,
      "velocity": 103,
      "chip": "ym2612"
    },
    {
      "channel": 2,
      "note": 93,
      "start": 8.3653,
      "duration": 0.1998,
      "velocity": 127,
      "chip": "ym2612"
    },
    {
      "channel": 1,
      "note": 89,
      "start": 8.3933,
      "duration": 0.0278,
      "velocity": 103,
      "chip": "ym2612"
    },
    {
      "channel": 4,
      "note": 89,
      "start": 8.4281,
      "duration": 0.0332,
      "velocity": 103,
      "chip": "ym2612"
    },
    {
      "channel": 0,
      "note": 33,
      "start": 8.4784,
      "duration": 0.0997,
      "velocity": 102,
      "chip": "ym2612"
    },
    {
      "channel": 3,
      "note": 87,
      "start": 8.4801,
      "duration": 0.0263,
      "velocity": 103,
      "chip": "ym2612"
    },
    {
      "channel": 1,
      "note": 87,
      "start": 8.5134,
      "duration": 0.0278,
      "velocity": 103,
      "chip": "ym2612"
    },
    {
      "channel": 4,
      "note": 85,
      "start": 8.5482,
      "duration": 0.038,
      "velocity": 103,
      "chip": "ym2612"
    },
    {
      "channel": 0,
      "note": 41,
      "start": 8.5826,
      "duration": 0.0949,
      "velocity": 102,
      "chip": "ym2612"
    },
    {
      "channel": 3,
      "note": 85,
      "start": 8.5842,
      "duration": 0.0251,
      "velocity": 103,
      "chip": "ym2612"
    },
    {
      "channel": 2,
      "note": 90,
      "start": 8.5883,
      "duration": 0.0683,
      "velocity": 95,
      "chip": "ym2612"
    },
    {
      "channel": 1,
      "note": 83,
      "start": 8.6164,
      "duration": 0.0278,
      "velocity": 103,
      "chip": "ym2612"
    },
    {
      "channel": 4,
      "note": 83,
      "start": 8.6512,
      "duration": 0.0274,
      "velocity": 103,
      "chip": "ym2612"
    },
    {
      "channel": 0,
      "note": 33,
      "start": 8.6846,
      "duration": 0.0991,
      "velocity": 102,
      "chip": "ym2612"
    },
    {
      "channel": 3,
      "note": 81,
      "start": 8.6868,
      "duration": 0.0311,
      "velocity": 103,
      "chip": "ym2612"
    },
    {
      "channel": 2,
      "note": 93,
      "start": 8.6896,
      "duration": 0.0699,
      "velocity": 95,
      "chip": "ym2612"
    },
    {
      "channel": 1,
      "note": 81,
      "start": 8.7195,
      "duration": 0.0275,
      "velocity": 103,
      "chip": "ym2612"
    },
    {
      "channel": 4,
      "note": 79,
      "start": 8.7547,
      "duration": 0.0271,
      "velocity": 103,
      "chip": "ym2612"
    },
    {
      "channel": 0,
      "note": 41,
      "start": 8.7886,
      "duration": 0.0986,
      "velocity": 102,
      "chip": "ym2612"
    },
    {
      "channel": 3,
      "note": 79,
      "start": 8.7903,
      "duration": 0.0248,
      "velocity": 103,
      "chip": "ym2612"
    },
    {
      "channel": 2,
      "note": 93,
      "start": 8.794,
      "duration": 0.1998,
      "velocity": 127,
      "chip": "ym2612"
    },
    {
      "channel": 1,
      "note": 77,
      "start": 8.8222,
      "duration": 0.0335,
      "velocity": 103,
      "chip": "ym2612"
    },
    {
      "channel": 4,
      "note": 77,
      "start": 8.8567,
      "duration": 0.0281,
      "velocity": 103,
      "chip": "ym2612"
    },
    {
      "channel": 0,
      "note": 49,
      "start": 8.8904,
      "duration": 0.0994,
      "velocity": 102,
      "chip": "ym2612"
    },
    {
      "channel": 3,
      "note": 75,
      "start": 8.8921,
      "duration": 0.0259,
      "velocity": 103,
      "chip": "ym2612"
    },
    {
      "channel": 1,
      "note": 75,
      "start": 8.9251,
      "duration": 0.0335,
      "velocity": 103,
      "chip": "ym2612"
    },
    {
      "channel": 4,
      "note": 73,
      "start": 8.9596,
      "duration": 0.0283,
      "velocity": 103,
      "chip": "ym2612"
    },
    {
      "channel": 0,
      "note": 44,
      "start": 8.9954,
      "duration": 0.0974,
      "velocity": 102,
      "chip": "ym2612"
    },
    {
      "channel": 3,
      "note": 73,
      "start": 8.997,
      "duration": 0.024,
      "velocity": 103,
      "chip": "ym2612"
    },
    {
      "channel": 2,
      "note": 90,
      "start": 9.0007,
      "duration": 0.0676,
      "velocity": 95,
      "chip": "ym2612"
    },
    {
      "channel": 1,
      "note": 71,
      "start": 9.0281,
      "duration": 0.0277,
      "velocity": 103,
      "chip": "ym2612"
    },
    {
      "channel": 4,
      "note": 71,
      "start": 9.0629,
      "duration": 0.0371,
      "velocity": 103,
      "chip": "ym2612"
    },
    {
      "channel": 0,
      "note": 33,
      "start": 9.0969,
      "duration": 0.1009,
      "velocity": 102,
      "chip": "ym2612"
    },
    {
      "channel": 3,
      "note": 57,
      "start": 9.0986,
      "duration": 0.0253,
      "velocity": 103,
      "chip": "ym2612"
    },
    {
      "channel": 2,
      "note": 93,
      "start": 9.1009,
      "duration": 0.0707,
      "velocity": 95,
      "chip": "ym2612"
    },
    {
      "channel": 1,
      "note": 57,
      "start": 9.131,
      "duration": 0.0277,
      "velocity": 103,
      "chip": "ym2612"
    },
    {
      "channel": 4,
      "note": 55,
      "start": 9.1658,
      "duration": 0.0332,
      "velocity": 103,
      "chip": "ym2612"
    },
    {
      "channel": 0,
      "note": 41,
      "start": 9.2172,
      "duration": 0.0986,
      "velocity": 102,
      "chip": "ym2612"
    },
    {
      "channel": 3,
      "note": 55,
      "start": 9.2195,
      "duration": 0.0245,
      "velocity": 103,
      "chip": "ym2612"
    },
    {
      "channel": 2,
      "note": 93,
      "start": 9.2232,
      "duration": 0.1983,
      "velocity": 127,
      "chip": "ym2612"
    },
    {
      "channel": 1,
      "note": 53,
      "start": 9.251,
      "duration": 0.0278,
      "velocity": 103,
      "chip": "ym2612"
    },
    {
      "channel": 4,
      "note": 53,
      "start": 9.2865,
      "duration": 0.0361,
      "velocity": 103,
      "chip": "ym2612"
    },
    {
      "channel": 0,
      "note": 33,
      "start": 9.3197,
      "duration": 0.0954,
      "velocity": 102,
      "chip": "ym2612"
    },
    {
      "channel": 3,
      "note": 51,
      "start": 9.3213,
      "duration": 0.0256,
      "velocity": 103,
      "chip": "ym2612"
    },
    {
      "channel": 1,
      "note": 51,
      "start": 9.3546,
      "duration": 0.0271,
      "velocity": 103,
      "chip": "ym2612"
    },
    {
      "channel": 4,
      "note": 49,
      "start": 9.3888,
      "duration": 0.0274,
      "velocity": 103,
      "chip": "ym2612"
    },
    {
      "channel": 0,
      "note": 41,
      "start": 9.4231,
      "duration": 0.0988,
      "velocity": 102,
      "chip": "ym2612"
    },
    {
      "channel": 3,
      "note": 49,
      "start": 9.4248,
      "duration": 0.0308,
      "velocity": 103,
      "chip": "ym2612"
    },
    {
      "channel": 2,
      "note": 90,
      "start": 9.4285,
      "duration": 0.0687,
      "velocity": 95,
      "chip": "ym2612"
    },
    {
      "channel": 1,
      "note": 47,
      "start": 9.4566,
      "duration": 0.028,
      "velocity": 103,
      "chip": "ym2612"
    },
    {
      "channel": 4,
      "note": 47,
      "start": 9.4917,
      "duration": 0.0284,
      "velocity": 103,
      "chip": "ym2612"
    },
    {
      "channel": 0,
      "note": 49,
      "start": 9.5262,
      "duration": 0.0982,
      "velocity": 102,
      "chip": "ym2612"
    },
    {
      "channel": 3,
      "note": 45,
      "start": 9.5278,
      "duration": 0.0307,
      "velocity": 103,
      "chip": "ym2612"
    },
    {
      "channel": 2,
      "note": 93,
      "start": 9.5305,
      "duration": 0.0695,
      "velocity": 95,
      "chip": "ym2612"
    },
    {
      "channel": 1,
      "note": 45,
      "start": 9.5595,
      "duration": 0.028,
      "velocity": 103,
      "chip": "ym2612"
    },
    {
      "channel": 4,
      "note": 43,
      "start": 9.5947,
      "duration": 0.0277,
      "velocity": 103,
      "chip": "ym2612"
    },
    {
      "channel": 0,
      "note": 44,
      "start": 9.6287,
      "duration": 0.0985,
      "velocity": 102,
      "chip": "ym2612"
    },
    {
      "channel": 3,
      "note": 43,
      "start": 9.6304,
      "duration": 0.0253,
      "velocity": 103,
      "chip": "ym2612"
    },
    {
      "channel": 2,
      "note": 93,
      "start": 9.634,
      "duration": 0.1989,
      "velocity": 127,
      "chip": "ym2612"
    },
    {
      "channel": 1,
      "note": 41,
      "start": 9.6627,
      "duration": 0.0335,
      "velocity": 103,
      "chip": "ym2612"
    },
    {
      "channel": 4,
      "note": 41,
      "start": 9.6972,
      "duration": 0.0281,
      "velocity": 103,
      "chip": "ym2612"
    },
    {
      "channel": 0,
      "note": 33,
      "start": 9.7304,
      "duration": 0.0997,
      "velocity": 102,
      "chip": "ym2612"
    },
    {
      "channel": 3,
      "note": 39,
      "start": 9.7321,
      "duration": 0.0266,
      "velocity": 103,
      "chip": "ym2612"
    },
    {
      "channel": 1,
      "note": 39,
      "start": 9.7657,
      "duration": 0.0335,
      "velocity": 103,
      "chip": "ym2612"
    },
    {
      "channel": 4,
      "note": 37,
      "start": 9.8001,
      "duration": 0.0281,
      "velocity": 103,
      "chip": "ym2612"
    },
    {
      "channel": 0,
      "note": 41,
      "start": 9.8346,
      "duration": 0.1011,
      "velocity": 102,
      "chip": "ym2612"
    },
    {
      "channel": 3,
      "note": 37,
      "start": 9.8368,
      "duration": 0.0247,
      "velocity": 103,
      "chip": "ym2612"
    },
    {
      "channel": 2,
      "note": 90,
      "start": 9.8405,
      "duration": 0.0683,
      "velocity": 95,
      "chip": "ym2612"
    },
    {
      "channel": 1,
      "note": 35,
      "start": 9.8689,
      "duration": 0.0275,
      "velocity": 103,
      "chip": "ym2612"
    },
    {
      "channel": 4,
      "note": 35,
      "start": 9.871,
      "duration": 0.0256,
      "velocity": 103,
      "chip": "ym2612"
    },
    {
      "channel": 3,
      "note": 33,
      "start": 9.9031,
      "duration": 0.0332,
      "velocity": 103,
      "chip": "ym2612"
    },
    {
      "channel": 0,
      "note": 33,
      "start": 9.9554,
      "duration": 0.0987,
      "velocity": 102,
      "chip": "ym2612"
    },
    {
      "channel": 1,
      "note": 33,
      "start": 9.9575,
      "duration": 0.0246,
      "velocity": 103,
      "chip": "ym2612"
    },
    {
      "channel": 2,
      "note": 93,
      "start": 9.9598,
      "duration": 0.0691,
      "velocity": 95,
      "chip": "ym2612"
    },
    {
      "channel": 4,
      "note": 35,
      "start": 9.9892,
      "duration": 0.0277,
      "velocity": 103,
      "chip": "ym2612"
    },
    {
      "channel": 3,
      "note": 37,
      "start": 10.0225,
      "duration": 0.0367,
      "velocity": 103,
      "chip": "ym2612"
    },
    {
      "channel": 0,
      "note": 41,
      "start": 10.0584,
      "duration": 0.0946,
      "velocity": 102,
      "chip": "ym2612"
    },
    {
      "channel": 1,
      "note": 37,
      "start": 10.0602,
      "duration": 0.0249,
      "velocity": 103,
      "chip": "ym2612"
    },
    {
      "channel": 2,
      "note": 93,
      "start": 10.0634,
      "duration": 0.1995,
      "velocity": 127,
      "chip": "ym2612"
    },
    {
      "channel": 4,
      "note": 39,
      "start": 10.0921,
      "duration": 0.0284,
      "velocity": 103,
      "chip": "ym2612"
    },
    {
      "channel": 3,
      "note": 39,
      "start": 10.1255,
      "duration": 0.0277,
      "velocity": 103,
      "chip": "ym2612"
    },
    {
      "channel": 0,
      "note": 49,
      "start": 10.1592,
      "duration": 0.0999,
      "velocity": 102,
      "chip": "ym2612"
    },
    {
      "channel": 1,
      "note": 41,
      "start": 10.1614,
      "duration": 0.0324,
      "velocity": 103,
      "chip": "ym2612"
    },
    {
      "channel": 4,
      "note": 41,
      "start": 10.1947,
      "duration": 0.028,
      "velocity": 103,
      "chip": "ym2612"
    },
    {
      "channel": 3,
      "note": 43,
      "start": 10.2283,
      "duration": 0.0278,
      "velocity": 103,
      "chip": "ym2612"
    },
    {
      "channel": 0,
      "note": 44,
      "start": 10.2646,
      "duration": 0.0973,
      "velocity": 102,
      "chip": "ym2612"
    },
    {
      "channel": 1,
      "note": 43,
      "start": 10.2667,
      "duration": 0.03,
      "velocity": 103,
      "chip": "ym2612"
    },
    {
      "channel": 2,
      "note": 90,
      "start": 10.2706,
      "duration": 0.0677,
      "velocity": 95,
      "chip": "ym2612"
    },
    {
      "channel": 4,
      "note": 45,
      "start": 10.2977,
      "duration": 0.0281,
      "velocity": 103,
      "chip": "ym2612"
    },
    {
      "channel": 3,
      "note": 45,
      "start": 10.3313,
      "duration": 0.0277,
      "velocity": 103,
      "chip": "ym2612"
    },
    {
      "channel": 0,
      "note": 33,
      "start": 10.366,
      "duration": 0.0987,
      "velocity": 102,
      "chip": "ym2612"
    },
    {
      "channel": 1,
      "note": 47,
      "start": 10.3682,
      "duration": 0.0257,
      "velocity": 103,
      "chip": "ym2612"
    },
    {
      "channel": 2,
      "note": 93,
      "start": 10.3711,
      "duration": 0.0696,
      "velocity": 95,
      "chip": "ym2612"
    },
    {
      "channel": 4,
      "note": 47,
      "start": 10.4009,
      "duration": 0.0353,
      "velocity": 103,
      "chip": "ym2612"
    },
    {
      "channel": 3,
      "note": 49,
      "start": 10.4342,
      "duration": 0.0278,
      "velocity": 103,
      "chip": "ym2612"
    },
    {
      "channel": 0,
      "note": 41,
      "start": 10.4698,
      "duration": 0.0979,
      "velocity": 102,
      "chip": "ym2612"
    },
    {
      "channel": 1,
      "note": 49,
      "start": 10.472,
      "duration": 0.0247,
      "velocity": 103,
      "chip": "ym2612"
    },
    {
      "channel": 2,
      "note": 93,
      "start": 10.4752,
      "duration": 0.1992,
      "velocity": 127,
      "chip": "ym2612"
    },
    {
      "channel": 4,
      "note": 51,
      "start": 10.5045,
      "duration": 0.0345,
      "velocity": 103,
      "chip": "ym2612"
    },
    {
      "channel": 3,
      "note": 51,
      "start": 10.5376,
      "duration": 0.0273,
      "velocity": 103,
      "chip": "ym2612"
    },
    {
      "channel": 0,
      "note": 33,
      "start": 10.5716,
      "duration": 0.1015,
      "velocity": 102,
      "chip": "ym2612"
    },
    {
      "channel": 1,
      "note": 53,
      "start": 10.5737,
      "duration": 0.026,
      "velocity": 103,
      "chip": "ym2612"
    },
    {
      "channel": 4,
      "note": 53,
      "start": 10.6068,
      "duration": 0.0277,
      "velocity": 103,
      "chip": "ym2612"
    },
    {
      "channel": 3,
      "note": 55,
      "start": 10.64,
      "duration": 0.0332,
      "velocity": 103,
      "chip": "ym2612"
    },
    {
      "channel": 0,
      "note": 41,
      "start": 10.6932,
      "duration": 0.0978,
      "velocity": 102,
      "chip": "ym2612"
    },
    {
      "channel": 1,
      "note": 55,
      "start": 10.6954,
      "duration": 0.025,
      "velocity": 103,
      "chip": "ym2612"
    },
    {
      "channel": 2,
      "note": 90,
      "start": 10.6986,
      "duration": 0.0679,
      "velocity": 95,
      "chip": "ym2612"
    },
    {
      "channel": 4,
      "note": 57,
      "start": 10.7268,
      "duration": 0.0278,
      "velocity": 103,
      "chip": "ym2612"
    },
    {
      "channel": 3,
      "note": 57,
      "start": 10.7601,
      "duration": 0.0359,
      "velocity": 103,
      "chip": "ym2612"
    },
    {
      "channel": 0,
      "note": 49,
      "start": 10.7952,
      "duration": 0.0989,
      "velocity": 102,
      "chip": "ym2612"
    },
    {
      "channel": 1,
      "note": 59,
      "start": 10.7971,
      "duration": 0.0256,
      "velocity": 103,
      "chip": "ym2612"
    },
    {
      "channel": 2,
      "note": 93,
      "start": 10.7993,
      "duration": 0.0709,
      "velocity": 95,
      "chip": "ym2612"
    },
    {
      "channel": 4,
      "note": 59,
      "start": 10.8298,
      "duration": 0.0278,
      "velocity": 103,
      "chip": "ym2612"
    },
    {
      "channel": 3,
      "note": 61,
      "start": 10.8631,
      "duration": 0.0363,
      "velocity": 103,
      "chip": "ym2612"
    },
    {
      "channel": 0,
      "note": 44,
      "start": 10.8985,
      "duration": 0.0948,
      "velocity": 102,
      "chip": "ym2612"
    },
    {
      "channel": 1,
      "note": 61,
      "start": 10.9003,
      "duration": 0.0253,
      "velocity": 103,
      "chip": "ym2612"
    },
    {
      "channel": 2,
      "note": 93,
      "start": 10.9041,
      "duration": 0.1988,
      "velocity": 127,
      "chip": "ym2612"
    },
    {
      "channel": 4,
      "note": 63,
      "start": 10.9327,
      "duration": 0.0278,
      "velocity": 103,
      "chip": "ym2612"
    },
    {
      "channel": 3,
      "note": 63,
      "start": 10.966,
      "duration": 0.0274,
      "velocity": 103,
      "chip": "ym2612"
    },
    {
      "channel": 0,
      "note": 33,
      "start": 10.9998,
      "duration": 0.0997,
      "velocity": 102,
      "chip": "ym2612"
    },
    {
      "channel": 1,
      "note": 65,
      "start": 11.002,
      "duration": 0.0323,
      "velocity": 103,
      "chip": "ym2612"
    },
    {
      "channel": 4,
      "note": 65,
      "start": 11.0353,
      "duration": 0.0281,
      "velocity": 103,
      "chip": "ym2612"
    },
    {
      "channel": 3,
      "note": 67,
      "start": 11.0695,
      "duration": 0.0272,
      "velocity": 103,
      "chip": "ym2612"
    },
    {
      "channel": 0,
      "note": 41,
      "start": 11.1046,
      "duration": 0.0985,
      "velocity": 102,
      "chip": "ym2612"
    },
    {
      "channel": 1,
      "note": 67,
      "start": 11.1068,
      "duration": 0.0247,
      "velocity": 103,
      "chip": "ym2612"
    },
    {
      "channel": 2,
      "note": 90,
      "start": 11.1099,
      "duration": 0.0683,
      "velocity": 95,
      "chip": "ym2612"
    },
    {
      "channel": 4,
      "note": 69,
      "start": 11.1387,
      "duration": 0.0345,
      "velocity": 103,
      "chip": "ym2612"
    },
    {
      "channel": 3,
      "note": 69,
      "start": 11.1719,
      "duration": 0.0277,
      "velocity": 103,
      "chip": "ym2612"
    },
    {
      "channel": 0,
      "note": 33,
      "start": 11.2073,
      "duration": 0.0987,
      "velocity": 102,
      "chip": "ym2612"
    },
    {
      "channel": 1,
      "note": 71,
      "start": 11.2094,
      "duration": 0.025,
      "velocity": 103,
      "chip": "ym2612"
    },
    {
      "channel": 2,
      "note": 93,
      "start": 11.2117,
      "duration": 0.0695,
      "velocity": 95,
      "chip": "ym2612"
    },
    {
      "channel": 4,
      "note": 71,
      "start": 11.2415,
      "duration": 0.0347,
      "velocity": 103,
      "chip": "ym2612"
    },
    {
      "channel": 3,
      "note": 73,
      "start": 11.2748,
      "duration": 0.0284,
      "velocity": 103,
      "chip": "ym2612"
    },
    {
      "channel": 0,
      "note": 41,
      "start": 11.3104,
      "duration": 0.1003,
      "velocity": 102,
      "chip": "ym2612"
    },
    {
      "channel": 1,
      "note": 73,
      "start": 11.3125,
      "duration": 0.0248,
      "velocity": 103,
      "chip": "ym2612"
    },
    {
      "channel": 2,
      "note": 93,
      "start": 11.3157,
      "duration": 0.2,
      "velocity": 127,
      "chip": "ym2612"
    },
    {
      "channel": 4,
      "note": 75,
      "start": 11.3444,
      "duration": 0.0277,
      "velocity": 103,
      "chip": "ym2612"
    },
    {
      "channel": 3,
      "note": 75,
      "start": 11.3777,
      "duration": 0.0331,
      "velocity": 103,
      "chip": "ym2612"
    },
    {
      "channel": 0,
      "note": 49,
      "start": 11.429,
      "duration": 0.1008,
      "velocity": 102,
      "chip": "ym2612"
    },
    {
      "channel": 1,
      "note": 77,
      "start": 11.4312,
      "duration": 0.0263,
      "velocity": 103,
      "chip": "ym2612"
    },
    {
      "channel": 4,
      "note": 77,
      "start": 11.4645,
      "duration": 0.0277,
      "velocity": 103,
      "chip": "ym2612"
    },
    {
      "channel": 3,
      "note": 79,
      "start": 11.4978,
      "duration": 0.0335,
      "velocity": 103,
      "chip": "ym2612"
    },
    {
      "channel": 0,
      "note": 44,
      "start": 11.5397,
      "duration": 0.0482,
      "velocity": 103,
      "chip": "ym2612"
    },
    {
      "channel": 3,
      "note": 81,
      "start": 11.5413,
      "duration": 0.0468,
      "velocity": 103,
      "chip": "ym2612"
    },
    {
      "channel": 1,
      "note": 79,
      "start": 11.5432,
      "duration": 0.0451,
      "velocity": 103,
      "chip": "ym2612"
    },
    {
      "channel": 4,
      "note": 81,
      "start": 11.5449,
      "duration": 0.0435,
      "velocity": 103,
      "chip": "ym2612"
    },
    {
      "channel": 2,
      "note": 90,
      "start": 11.5477,
      "duration": 0.0709,
      "velocity": 95,
      "chip": "ym2612"
    },
    {
      "channel": 5,
      "note": 25,
      "start": 11.5494,
      "duration": 0.0911,
      "velocity": 127,
      "chip": "ym2612"
    },
    {
      "channel": 0,
      "note": 44,
      "start": 11.5952,
      "duration": 0.0442,
      "velocity": 103,
      "chip": "ym2612"
    },
    {
      "channel": 3,
      "note": 43,
      "start": 11.5967,
      "duration": 0.0429,
      "velocity": 103,
      "chip": "ym2612"
    },
    {
      "channel": 1,
      "note": 37,
      "start": 11.5982,
      "duration": 0.0415,
      "velocity": 103,
      "chip": "ym2612"
    },
    {
      "channel": 4,
      "note": 36,
      "start": 11.5997,
      "duration": 0.0402,
      "velocity": 103,
      "chip": "ym2612"
    },
    {
      "channel": 0,
      "note": 44,
      "start": 11.6482,
      "duration": 0.0484,
      "velocity": 103,
      "chip": "ym2612"
    },
    {
      "channel": 3,
      "note": 43,
      "start": 11.6498,
      "duration": 0.0469,
      "velocity": 103,
      "chip": "ym2612"
    },
    {
      "channel": 1,
      "note": 37,
      "start": 11.6515,
      "duration": 0.0454,
      "velocity": 103,
      "chip": "ym2612"
    },
    {
      "channel": 4,
      "note": 36,
      "start": 11.6538,
      "duration": 0.0432,
      "velocity": 103,
      "chip": "ym2612"
    },
    {
      "channel": 2,
      "note": 93,
      "start": 11.6556,
      "duration": 0.0717,
      "velocity": 95,
      "chip": "ym2612"
    },
    {
      "channel": 5,
      "note": 25,
      "start": 11.657,
      "duration": 0.0922,
      "velocity": 127,
      "chip": "ym2612"
    },
    {
      "channel": 0,
      "note": 49,
      "start": 11.7045,
      "duration": 0.0436,
      "velocity": 103,
      "chip": "ym2612"
    },
    {
      "channel": 3,
      "note": 48,
      "start": 11.7059,
      "duration": 0.0423,
      "velocity": 103,
      "chip": "ym2612"
    },
    {
      "channel": 1,
      "note": 42,
      "start": 11.7075,
      "duration": 0.0409,
      "velocity": 103,
      "chip": "ym2612"
    },
    {
      "channel": 4,
      "note": 41,
      "start": 11.7089,
      "duration": 0.0396,
      "velocity": 103,
      "chip": "ym2612"
    },
    {
      "channel": 0,
      "note": 49,
      "start": 11.7574,
      "duration": 0.0479,
      "velocity": 103,
      "chip": "ym2612"
    },
    {
      "channel": 3,
      "note": 48,
      "start": 11.7591,
      "duration": 0.0463,
      "velocity": 103,
      "chip": "ym2612"
    },
    {
      "channel": 1,
      "note": 42,
      "start": 11.7608,
      "duration": 0.0448,
      "velocity": 103,
      "chip": "ym2612"
    },
    {
      "channel": 4,
      "note": 41,
      "start": 11.7625,
      "duration": 0.0433,
      "velocity": 103,
      "chip": "ym2612"
    },
    {
      "channel": 2,
      "note": 93,
      "start": 11.7651,
      "duration": 0.0922,
      "velocity": 127,
      "chip": "ym2612"
    },
    {
      "channel": 5,
      "note": 25,
      "start": 11.7669,
      "duration": 0.0907,
      "velocity": 127,
      "chip": "ym2612"
    },
    {
      "channel": 0,
      "note": 56,
      "start": 11.8125,
      "duration": 0.0442,
      "velocity": 103,
      "chip": "ym2612"
    },
    {
      "channel": 3,
      "note": 55,
      "start": 11.814,
      "duration": 0.0429,
      "velocity": 103,
      "chip": "ym2612"
    },
    {
      "channel": 1,
      "note": 49,
      "start": 11.8155,
      "duration": 0.0415,
      "velocity": 103,
      "chip": "ym2612"
    },
    {
      "channel": 4,
      "note": 48,
      "start": 11.817,
      "duration": 0.0402,
      "velocity": 103,
      "chip": "ym2612"
    },
    {
      "channel": 0,
      "note": 56,
      "start": 11.8643,
      "duration": 0.0439,
      "velocity": 103,
      "chip": "ym2612"
    },
    {
      "channel": 3,
      "note": 55,
      "start": 11.866,
      "duration": 0.0424,
      "velocity": 103,
      "chip": "ym2612"
    },
    {
      "channel": 1,
      "note": 49,
      "start": 11.8676,
      "duration": 0.0408,
      "velocity": 103,
      "chip": "ym2612"
    },
    {
      "channel": 4,
      "note": 48,
      "start": 11.87,
      "duration": 0.0387,
      "velocity": 103,
      "chip": "ym2612"
    },
    {
      "channel": 5,
      "note": 25,
      "start": 11.8722,
      "duration": 0.0886,
      "velocity": 127,
      "chip": "ym2612"
    },
    {
      "channel": 0,
      "note": 61,
      "start": 11.9155,
      "duration": 0.0441,
      "velocity": 103,
      "chip": "ym2612"
    },
    {
      "channel": 3,
      "note": 60,
      "start": 11.9169,
      "duration": 0.0429,
      "velocity": 103,
      "chip": "ym2612"
    },
    {
      "channel": 1,
      "note": 54,
      "start": 11.9185,
      "duration": 0.0415,
      "velocity": 103,
      "chip": "ym2612"
    },
    {
      "channel": 4,
      "note": 53,
      "start": 11.9206,
      "duration": 0.0396,
      "velocity": 103,
      "chip": "ym2612"
    },
    {
      "channel": 0,
      "note": 61,
      "start": 11.9684,
      "duration": 0.0484,
      "velocity": 103,
      "chip": "ym2612"
    },
    {
      "channel": 3,
      "note": 60,
      "start": 11.9707,
      "duration": 0.0463,
      "velocity": 103,
      "chip": "ym2612"
    },
    {
      "channel": 1,
      "note": 54,
      "start": 11.9724,
      "duration": 0.0447,
      "velocity": 103,
      "chip": "ym2612"
    },
    {
      "channel": 4,
      "note": 53,
      "start": 11.9741,
      "duration": 0.0433,
      "velocity": 103,
      "chip": "ym2612"
    },
    {
      "channel": 2,
      "note": 90,
      "start": 11.9767,
      "duration": 0.0707,
      "velocity": 95,
      "chip": "ym2612"
    },
    {
      "channel": 5,
      "note": 25,
      "start": 11.9793,
      "duration": 0.0683,
      "velocity": 127,
      "chip": "ym2612"
    },
    {
      "channel": 0,
      "note": 68,
      "start": 12.0247,
      "duration": 0.0436,
      "velocity": 103,
      "chip": "ym2612"
    },
    {
      "channel": 3,
      "note": 67,
      "start": 12.0262,
      "duration": 0.0423,
      "velocity": 103,
      "chip": "ym2612"
    },
    {
      "channel": 1,
      "note": 61,
      "start": 12.0277,
      "duration": 0.0409,
      "velocity": 103,
      "chip": "ym2612"
    },
    {
      "channel": 4,
      "note": 60,
      "start": 12.0291,
      "duration": 0.0399,
      "velocity": 103,
      "chip": "ym2612"
    },
    {
      "channel": 0,
      "note": 68,
      "start": 12.0771,
      "duration": 0.0426,
      "velocity": 103,
      "chip": "ym2612"
    },
    {
      "channel": 3,
      "note": 67,
      "start": 12.0788,
      "duration": 0.0411,
      "velocity": 103,
      "chip": "ym2612"
    },
    {
      "channel": 1,
      "note": 61,
      "start": 12.0805,
      "duration": 0.0396,
      "velocity": 103,
      "chip": "ym2612"
    },
    {
      "channel": 4,
      "note": 60,
      "start": 12.0822,
      "duration": 0.038,
      "velocity": 103,
      "chip": "ym2612"
    },
    {
      "channel": 2,
      "note": 93,
      "start": 12.0839,
      "duration": 0.0665,
      "velocity": 95,
      "chip": "ym2612"
    },
    {
      "channel": 0,
      "note": 73,
      "start": 12.1271,
      "duration": 0.0441,
      "velocity": 103,
      "chip": "ym2612"
    },
    {
      "channel": 3,
      "note": 72,
      "start": 12.1285,
      "duration": 0.0428,
      "velocity": 103,
      "chip": "ym2612"
    },
    {
      "channel": 1,
      "note": 66,
      "start": 12.13,
      "duration": 0.0415,
      "velocity": 103,
      "chip": "ym2612"
    },
    {
      "channel": 4,
      "note": 65,
      "start": 12.1315,
      "duration": 0.0401,
      "velocity": 103,
      "chip": "ym2612"
    },
    {
      "channel": 0,
      "note": 73,
      "start": 12.1803,
      "duration": 0.0481,
      "velocity": 103,
      "chip": "ym2612"
    },
    {
      "channel": 3,
      "note": 72,
      "start": 12.182,
      "duration": 0.0466,
      "velocity": 103,
      "chip": "ym2612"
    },
    {
      "channel": 1,
      "note": 66,
      "start": 12.1837,
      "duration": 0.045,
      "velocity": 103,
      "chip": "ym2612"
    },
    {
      "channel": 4,
      "note": 65,
      "start": 12.1853,
      "duration": 0.0436,
      "velocity": 103,
      "chip": "ym2612"
    },
    {
      "channel": 2,
      "note": 93,
      "start": 12.1886,
      "duration": 0.0919,
      "velocity": 127,
      "chip": "ym2612"
    },
    {
      "channel": 5,
      "note": 42,
      "start": 12.1912,
      "duration": 0.0894,
      "velocity": 127,
      "chip": "ym2612"
    },
    {
      "channel": 0,
      "note": 80,
      "start": 12.2363,
      "duration": 0.0436,
      "velocity": 103,
      "chip": "ym2612"
    },
    {
      "channel": 3,
      "note": 79,
      "start": 12.2377,
      "duration": 0.0423,
      "velocity": 103,
      "chip": "ym2612"
    },
    {
      "channel": 1,
      "note": 73,
      "start": 12.2393,
      "duration": 0.0409,
      "velocity": 103,
      "chip": "ym2612"
    },
    {
      "channel": 4,
      "note": 72,
      "start": 12.2407,
      "duration": 0.0396,
      "velocity": 103,
      "chip": "ym2612"
    },
    {
      "channel": 0,
      "note": 80,
      "start": 12.288,
      "duration": 0.0433,
      "velocity": 103,
      "chip": "ym2612"
    },
    {
      "channel": 3,
      "note": 79,
      "start": 12.2898,
      "duration": 0.0417,
      "velocity": 103,
      "chip": "ym2612"
    },
    {
      "channel": 1,
      "note": 73,
      "start": 12.2914,
      "duration": 0.0402,
      "velocity": 103,
      "chip": "ym2612"
    },
    {
      "channel": 4,
      "note": 72,
      "start": 12.2932,
      "duration": 0.0387,
      "velocity": 103,
      "chip": "ym2612"
    },
    {
      "channel": 5,
      "note": 25,
      "start": 12.2953,
      "duration": 0.0886,
      "velocity": 127,
      "chip": "ym2612"
    },
    {
      "channel": 0,
      "note": 85,
      "start": 12.3392,
      "duration": 0.0436,
      "velocity": 103,
      "chip": "ym2612"
    },
    {
      "channel": 3,
      "note": 84,
      "start": 12.3407,
      "duration": 0.0423,
      "velocity": 103,
      "chip": "ym2612"
    },
    {
      "channel": 1,
      "note": 78,
      "start": 12.3422,
      "duration": 0.0409,
      "velocity": 103,
      "chip": "ym2612"
    },
    {
      "channel": 4,
      "note": 77,
      "start": 12.3437,
      "duration": 0.0396,
      "velocity": 103,
      "chip": "ym2612"
    },
    {
      "channel": 0,
      "note": 85,
      "start": 12.3929,
      "duration": 0.047,
      "velocity": 103,
      "chip": "ym2612"
    },
    {
      "channel": 3,
      "note": 84,
      "start": 12.3946,
      "duration": 0.0455,
      "velocity": 103,
      "chip": "ym2612"
    },
    {
      "channel": 1,
      "note": 78,
      "start": 12.3963,
      "duration": 0.0439,
      "velocity": 103,
      "chip": "ym2612"
    },
    {
      "channel": 4,
      "note": 77,
      "start": 12.398,
      "duration": 0.0424,
      "velocity": 103,
      "chip": "ym2612"
    },
    {
      "channel": 2,
      "note": 90,
      "start": 12.4007,
      "duration": 0.0705,
      "velocity": 95,
      "chip": "ym2612"
    },
    {
      "channel": 5,
      "note": 25,
      "start": 12.403,
      "duration": 0.0895,
      "velocity": 127,
      "chip": "ym2612"
    },
    {
      "channel": 0,
      "note": 56,
      "start": 12.4472,
      "duration": 0.0442,
      "velocity": 103,
      "chip": "ym2612"
    },
    {
      "channel": 3,
      "note": 55,
      "start": 12.4487,
      "duration": 0.0429,
      "velocity": 103,
      "chip": "ym2612"
    },
    {
      "channel": 1,
      "note": 49,
      "start": 12.4502,
      "duration": 0.0415,
      "velocity": 103,
      "chip": "ym2612"
    },
    {
      "channel": 4,
      "note": 48,
      "start": 12.4517,
      "duration": 0.0402,
      "velocity": 103,
      "chip": "ym2612"
    },
    {
      "channel": 0,
      "note": 56,
      "start": 12.5001,
      "duration": 0.0485,
      "velocity": 103,
      "chip": "ym2612"
    },
    {
      "channel": 3,
      "note": 55,
      "start": 12.5018,
      "duration": 0.047,
      "velocity": 103,
      "chip": "ym2612"
    },
    {
      "channel": 1,
      "note": 49,
      "start": 12.5041,
      "duration": 0.0448,
      "velocity": 103,
      "chip": "ym2612"
    },
    {
      "channel": 4,
      "note": 48,
      "start": 12.5059,
      "duration": 0.0432,
      "velocity": 103,
      "chip": "ym2612"
    },
    {
      "channel": 2,
      "note": 93,
      "start": 12.5075,
      "duration": 0.0717,
      "velocity": 95,
      "chip": "ym2612"
    },
    {
      "channel": 5,
      "note": 25,
      "start": 12.509,
      "duration": 0.0922,
      "velocity": 127,
      "chip": "ym2612"
    },
    {
      "channel": 0,
      "note": 61,
      "start": 12.5565,
      "duration": 0.0436,
      "velocity": 103,
      "chip": "ym2612"
    },
    {
      "channel": 3,
      "note": 60,
      "start": 12.558,
      "duration": 0.0423,
      "velocity": 103,
      "chip": "ym2612"
    },
    {
      "channel": 1,
      "note": 54,
      "start": 12.5595,
      "duration": 0.0409,
      "velocity": 103,
      "chip": "ym2612"
    },
    {
      "channel": 4,
      "note": 53,
      "start": 12.561,
      "duration": 0.0396,
      "velocity": 103,
      "chip": "ym2612"
    },
    {
      "channel": 0,
      "note": 61,
      "start": 12.6095,
      "duration": 0.0477,
      "velocity": 103,
      "chip": "ym2612"
    },
    {
      "channel": 3,
      "note": 60,
      "start": 12.6112,
      "duration": 0.0462,
      "velocity": 103,
      "chip": "ym2612"
    },
    {
      "channel": 1,
      "note": 54,
      "start": 12.6129,
      "duration": 0.0446,
      "velocity": 103,
      "chip": "ym2612"
    },
    {
      "channel": 4,
      "note": 53,
      "start": 12.6146,
      "duration": 0.0431,
      "velocity": 103,
      "chip": "ym2612"
    },
    {
      "channel": 2,
      "note": 93,
      "start": 12.6163,
      "duration": 0.1445,
      "velocity": 95,
      "chip": "ym2612"
    },
    {
      "channel": 5,
      "note": 25,
      "start": 12.6187,
      "duration": 0.1423,
      "velocity": 127,
      "chip": "ym2612"
    },
    {
      "channel": 0,
      "note": 68,
      "start": 12.6645,
      "duration": 0.0442,
      "velocity": 103,
      "chip": "ym2612"
    },
    {
      "channel": 3,
      "note": 67,
      "start": 12.666,
      "duration": 0.0429,
      "velocity": 103,
      "chip": "ym2612"
    },
    {
      "channel": 1,
      "note": 61,
      "start": 12.6675,
      "duration": 0.0415,
      "velocity": 103,
      "chip": "ym2612"
    },
    {
      "channel": 4,
      "note": 60,
      "start": 12.6696,
      "duration": 0.0396,
      "velocity": 103,
      "chip": "ym2612"
    },
    {
      "channel": 0,
      "note": 68,
      "start": 12.716,
      "duration": 0.0442,
      "velocity": 103,
      "chip": "ym2612"
    },
    {
      "channel": 3,
      "note": 67,
      "start": 12.7176,
      "duration": 0.0427,
      "velocity": 103,
      "chip": "ym2612"
    },
    {
      "channel": 1,
      "note": 61,
      "start": 12.72,
      "duration": 0.0405,
      "velocity": 103,
      "chip": "ym2612"
    },
    {
      "channel": 4,
      "note": 60,
      "start": 12.7216,
      "duration": 0.039,
      "velocity": 103,
      "chip": "ym2612"
    },
    {
      "channel": 0,
      "note": 73,
      "start": 12.7667,
      "duration": 0.0449,
      "velocity": 103,
      "chip": "ym2612"
    },
    {
      "channel": 3,
      "note": 72,
      "start": 12.7682,
      "duration": 0.0436,
      "velocity": 103,
      "chip": "ym2612"
    },
    {
      "channel": 1,
      "note": 66,
      "start": 12.7704,
      "duration": 0.0416,
      "velocity": 103,
      "chip": "ym2612"
    },
    {
      "channel": 4,
      "note": 65,
      "start": 12.7718,
      "duration": 0.0403,
      "velocity": 103,
      "chip": "ym2612"
    },
    {
      "channel": 0,
      "note": 73,
      "start": 12.8217,
      "duration": 0.0477,
      "velocity": 103,
      "chip": "ym2612"
    },
    {
      "channel": 3,
      "note": 72,
      "start": 12.8234,
      "duration": 0.0463,
      "velocity": 103,
      "chip": "ym2612"
    },
    {
      "channel": 1,
      "note": 66,
      "start": 12.8251,
      "duration": 0.0446,
      "velocity": 103,
      "chip": "ym2612"
    },
    {
      "channel": 4,
      "note": 65,
      "start": 12.8267,
      "duration": 0.0432,
      "velocity": 103,
      "chip": "ym2612"
    },
    {
      "channel": 2,
      "note": 93,
      "start": 12.8285,
      "duration": 0.071,
      "velocity": 95,
      "chip": "ym2612"
    },
    {
      "channel": 5,
      "note": 42,
      "start": 12.8309,
      "duration": 0.0905,
      "velocity": 107,
      "chip": "ym2612"
    },
    {
      "channel": 0,
      "note": 80,
      "start": 12.8769,
      "duration": 0.0434,
      "velocity": 103,
      "chip": "ym2612"
    },
    {
      "channel": 3,
      "note": 79,
      "start": 12.8784,
      "duration": 0.042,
      "velocity": 103,
      "chip": "ym2612"
    },
    {
      "channel": 1,
      "note": 73,
      "start": 12.8799,
      "duration": 0.0407,
      "velocity": 103,
      "chip": "ym2612"
    },
    {
      "channel": 4,
      "note": 72,
      "start": 12.8814,
      "duration": 0.0394,
      "velocity": 103,
      "chip": "ym2612"
    },
    {
      "channel": 0,
      "note": 80,
      "start": 12.929,
      "duration": 0.0485,
      "velocity": 103,
      "chip": "ym2612"
    },
    {
      "channel": 3,
      "note": 79,
      "start": 12.9307,
      "duration": 0.0469,
      "velocity": 103,
      "chip": "ym2612"
    },
    {
      "channel": 1,
      "note": 73,
      "start": 12.9324,
      "duration": 0.0454,
      "velocity": 103,
      "chip": "ym2612"
    },
    {
      "channel": 4,
      "note": 72,
      "start": 12.9341,
      "duration": 0.0438,
      "velocity": 103,
      "chip": "ym2612"
    },
    {
      "channel": 2,
      "note": 93,
      "start": 12.9364,
      "duration": 0.0717,
      "velocity": 95,
      "chip": "ym2612"
    },
    {
      "channel": 5,
      "note": 65,
      "start": 12.9379,
      "duration": 0.0921,
      "velocity": 107,
      "chip": "ym2612"
    },
    {
      "channel": 0,
      "note": 85,
      "start": 12.9849,
      "duration": 0.044,
      "velocity": 103,
      "chip": "ym2612"
    },
    {
      "channel": 3,
      "note": 84,
      "start": 12.987,
      "duration": 0.0421,
      "velocity": 103,
      "chip": "ym2612"
    },
    {
      "channel": 1,
      "note": 78,
      "start": 12.9886,
      "duration": 0.0407,
      "velocity": 103,
      "chip": "ym2612"
    },
    {
      "channel": 4,
      "note": 77,
      "start": 12.99,
      "duration": 0.0394,
      "velocity": 103,
      "chip": "ym2612"
    },
    {
      "channel": 0,
      "note": 85,
      "start": 13.0383,
      "duration": 0.048,
      "velocity": 103,
      "chip": "ym2612"
    },
    {
      "channel": 3,
      "note": 84,
      "start": 13.04,
      "duration": 0.0465,
      "velocity": 103,
      "chip": "ym2612"
    },
    {
      "channel": 1,
      "note": 78,
      "start": 13.0417,
      "duration": 0.045,
      "velocity": 103,
      "chip": "ym2612"
    },
    {
      "channel": 4,
      "note": 77,
      "start": 13.0433,
      "duration": 0.0434,
      "velocity": 103,
      "chip": "ym2612"
    },
    {
      "channel": 2,
      "note": 93,
      "start": 13.046,
      "duration": 0.0922,
      "velocity": 127,
      "chip": "ym2612"
    },
    {
      "channel": 5,
      "note": 61,
      "start": 13.0477,
      "duration": 0.0906,
      "velocity": 107,
      "chip": "ym2612"
    },
    {
      "channel": 0,
      "note": 92,
      "start": 13.0938,
      "duration": 0.0438,
      "velocity": 103,
      "chip": "ym2612"
    },
    {
      "channel": 3,
      "note": 91,
      "start": 13.0952,
      "duration": 0.0425,
      "velocity": 103,
      "chip": "ym2612"
    },
    {
      "channel": 1,
      "note": 85,
      "start": 13.0968,
      "duration": 0.0411,
      "velocity": 103,
      "chip": "ym2612"
    },
    {
      "channel": 4,
      "note": 84,
      "start": 13.0982,
      "duration": 0.0398,
      "velocity": 103,
      "chip": "ym2612"
    },
    {
      "channel": 0,
      "note": 92,
      "start": 13.1451,
      "duration": 0.0496,
      "velocity": 103,
      "chip": "ym2612"
    },
    {
      "channel": 3,
      "note": 91,
      "start": 13.1468,
      "duration": 0.0481,
      "velocity": 103,
      "chip": "ym2612"
    },
    {
      "channel": 1,
      "note": 85,
      "start": 13.1485,
      "duration": 0.0466,
      "velocity": 103,
      "chip": "ym2612"
    },
    {
      "channel": 4,
      "note": 84,
      "start": 13.1502,
      "duration": 0.045,
      "velocity": 103,
      "chip": "ym2612"
    },
    {
      "channel": 5,
      "note": 57,
      "start": 13.1539,
      "duration": 0.0719,
      "velocity": 127,
      "chip": "ym2612"
    },
    {
      "channel": 0,
      "note": 97,
      "start": 13.202,
      "duration": 0.0442,
      "velocity": 103,
      "chip": "ym2612"
    },
    {
      "channel": 3,
      "note": 96,
      "start": 13.2041,
      "duration": 0.0423,
      "velocity": 103,
      "chip": "ym2612"
    },
    {
      "channel": 1,
      "note": 90,
      "start": 13.2056,
      "duration": 0.0409,
      "velocity": 103,
      "chip": "ym2612"
    },
    {
      "channel": 4,
      "note": 89,
      "start": 13.2071,
      "duration": 0.0396,
      "velocity": 103,
      "chip": "ym2612"
    },
    {
      "channel": 0,
      "note": 97,
      "start": 13.2568,
      "duration": 0.0466,
      "velocity": 103,
      "chip": "ym2612"
    },
    {
      "channel": 3,
      "note": 96,
      "start": 13.2585,
      "duration": 0.0451,
      "velocity": 103,
      "chip": "ym2612"
    },
    {
      "channel": 1,
      "note": 90,
      "start": 13.2602,
      "duration": 0.0435,
      "velocity": 103,
      "chip": "ym2612"
    },
    {
      "channel": 4,
      "note": 89,
      "start": 13.2619,
      "duration": 0.042,
      "velocity": 103,
      "chip": "ym2612"
    },
    {
      "channel": 2,
      "note": 90,
      "start": 13.2646,
      "duration": 0.0694,
      "velocity": 95,
      "chip": "ym2612"
    },
    {
      "channel": 5,
      "note": 42,
      "start": 13.2672,
      "duration": 0.0888,
      "velocity": 127,
      "chip": "ym2612"
    },
    {
      "channel": 0,
      "note": 68,
      "start": 13.3107,
      "duration": 0.0442,
      "velocity": 103,
      "chip": "ym2612"
    },
    {
      "channel": 3,
      "note": 67,
      "start": 13.3122,
      "duration": 0.0429,
      "velocity": 103,
      "chip": "ym2612"
    },
    {
      "channel": 1,
      "note": 61,
      "start": 13.3137,
      "duration": 0.0415,
      "velocity": 103,
      "chip": "ym2612"
    },
    {
      "channel": 4,
      "note": 60,
      "start": 13.3151,
      "duration": 0.0402,
      "velocity": 103,
      "chip": "ym2612"
    },
    {
      "channel": 0,
      "note": 68,
      "start": 13.3636,
      "duration": 0.0484,
      "velocity": 103,
      "chip": "ym2612"
    },
    {
      "channel": 3,
      "note": 67,
      "start": 13.3653,
      "duration": 0.0469,
      "velocity": 103,
      "chip": "ym2612"
    },
    {
      "channel": 1,
      "note": 61,
      "start": 13.367,
      "duration": 0.0454,
      "velocity": 103,
      "chip": "ym2612"
    },
    {
      "channel": 4,
      "note": 60,
      "start": 13.3687,
      "duration": 0.0439,
      "velocity": 103,
      "chip": "ym2612"
    },
    {
      "channel": 2,
      "note": 93,
      "start": 13.371,
      "duration": 0.0716,
      "velocity": 95,
      "chip": "ym2612"
    },
    {
      "channel": 5,
      "note": 25,
      "start": 13.3725,
      "duration": 0.0922,
      "velocity": 127,
      "chip": "ym2612"
    },
    {
      "channel": 0,
      "note": 73,
      "start": 13.4199,
      "duration": 0.0436,
      "velocity": 103,
      "chip": "ym2612"
    },
    {
      "channel": 3,
      "note": 72,
      "start": 13.4214,
      "duration": 0.0423,
      "velocity": 103,
      "chip": "ym2612"
    },
    {
      "channel": 1,
      "note": 66,
      "start": 13.4229,
      "duration": 0.0409,
      "velocity": 103,
      "chip": "ym2612"
    },
    {
      "channel": 4,
      "note": 65,
      "start": 13.4244,
      "duration": 0.0396,
      "velocity": 103,
      "chip": "ym2612"
    },
    {
      "channel": 0,
      "note": 73,
      "start": 13.4729,
      "duration": 0.0478,
      "velocity": 103,
      "chip": "ym2612"
    },
    {
      "channel": 3,
      "note": 72,
      "start": 13.4746,
      "duration": 0.0463,
      "velocity": 103,
      "chip": "ym2612"
    },
    {
      "channel": 1,
      "note": 66,
      "start": 13.4762,
      "duration": 0.0448,
      "velocity": 103,
      "chip": "ym2612"
    },
    {
      "channel": 4,
      "note": 65,
      "start": 13.4779,
      "duration": 0.0433,
      "velocity": 103,
      "chip": "ym2612"
    },
    {
      "channel": 2,
      "note": 93,
      "start": 13.4806,
      "duration": 0.0922,
      "velocity": 127,
      "chip": "ym2612"
    },
    {
      "channel": 5,
      "note": 25,
      "start": 13.4823,
      "duration": 0.0906,
      "velocity": 127,
      "chip": "ym2612"
    },
    {
      "channel": 0,
      "note": 80,
      "start": 13.5279,
      "duration": 0.0442,
      "velocity": 103,
      "chip": "ym2612"
    },
    {
      "channel": 3,
      "note": 79,
      "start": 13.5294,
      "duration": 0.0429,
      "velocity": 103,
      "chip": "ym2612"
    },
    {
      "channel": 1,
      "note": 73,
      "start": 13.5309,
      "duration": 0.0415,
      "velocity": 103,
      "chip": "ym2612"
    },
    {
      "channel": 4,
      "note": 72,
      "start": 13.5324,
      "duration": 0.0403,
      "velocity": 103,
      "chip": "ym2612"
    },
    {
      "channel": 0,
      "note": 80,
      "start": 13.5797,
      "duration": 0.0439,
      "velocity": 103,
      "chip": "ym2612"
    },
    {
      "channel": 3,
      "note": 79,
      "start": 13.5814,
      "duration": 0.0424,
      "velocity": 103,
      "chip": "ym2612"
    },
    {
      "channel": 1,
      "note": 73,
      "start": 13.5831,
      "duration": 0.0408,
      "velocity": 103,
      "chip": "ym2612"
    },
    {
      "channel": 4,
      "note": 72,
      "start": 13.5848,
      "duration": 0.0393,
      "velocity": 103,
      "chip": "ym2612"
    },
    {
      "channel": 5,
      "note": 25,
      "start": 13.5876,
      "duration": 0.0886,
      "velocity": 127,
      "chip": "ym2612"
    },
    {
      "channel": 0,
      "note": 85,
      "start": 13.6309,
      "duration": 0.0442,
      "velocity": 103,
      "chip": "ym2612"
    },
    {
      "channel": 3,
      "note": 84,
      "start": 13.6323,
      "duration": 0.0429,
      "velocity": 103,
      "chip": "ym2612"
    },
    {
      "channel": 1,
      "note": 78,
      "start": 13.6339,
      "duration": 0.0415,
      "velocity": 103,
      "chip": "ym2612"
    },
    {
      "channel": 4,
      "note": 77,
      "start": 13.6353,
      "duration": 0.0402,
      "velocity": 103,
      "chip": "ym2612"
    },
    {
      "channel": 0,
      "note": 85,
      "start": 13.6839,
      "duration": 0.0484,
      "velocity": 103,
      "chip": "ym2612"
    },
    {
      "channel": 3,
      "note": 84,
      "start": 13.6861,
      "duration": 0.0463,
      "velocity": 103,
      "chip": "ym2612"
    },
    {
      "channel": 1,
      "note": 78,
      "start": 13.6879,
      "duration": 0.0447,
      "velocity": 103,
      "chip": "ym2612"
    },
    {
      "channel": 4,
      "note": 77,
      "start": 13.6895,
      "duration": 0.0432,
      "velocity": 103,
      "chip": "ym2612"
    },
    {
      "channel": 2,
      "note": 90,
      "start": 13.6922,
      "duration": 0.0707,
      "velocity": 95,
      "chip": "ym2612"
    },
    {
      "channel": 5,
      "note": 25,
      "start": 13.6948,
      "duration": 0.0682,
      "velocity": 127,
      "chip": "ym2612"
    },
    {
      "channel": 0,
      "note": 92,
      "start": 13.7402,
      "duration": 0.0436,
      "velocity": 103,
      "chip": "ym2612"
    },
    {
      "channel": 3,
      "note": 91,
      "start": 13.7416,
      "duration": 0.0423,
      "velocity": 103,
      "chip": "ym2612"
    },
    {
      "channel": 1,
      "note": 85,
      "start": 13.7432,
      "duration": 0.0409,
      "velocity": 103,
      "chip": "ym2612"
    },
    {
      "channel": 4,
      "note": 84,
      "start": 13.7446,
      "duration": 0.0396,
      "velocity": 103,
      "chip": "ym2612"
    },
    {
      "channel": 0,
      "note": 92,
      "start": 13.7926,
      "duration": 0.0426,
      "velocity": 103,
      "chip": "ym2612"
    },
    {
      "channel": 3,
      "note": 91,
      "start": 13.7943,
      "duration": 0.0413,
      "velocity": 103,
      "chip": "ym2612"
    },
    {
      "channel": 1,
      "note": 85,
      "start": 13.7959,
      "duration": 0.0402,
      "velocity": 103,
      "chip": "ym2612"
    },
    {
      "channel": 4,
      "note": 84,
      "start": 13.7977,
      "duration": 0.0386,
      "velocity": 103,
      "chip": "ym2612"
    },
    {
      "channel": 2,
      "note": 93,
      "start": 13.7993,
      "duration": 0.0665,
      "velocity": 95,
      "chip": "ym2612"
    },
    {
      "channel": 0,
      "note": 97,
      "start": 13.8431,
      "duration": 0.0436,
      "velocity": 103,
      "chip": "ym2612"
    },
    {
      "channel": 3,
      "note": 96,
      "start": 13.8445,
      "duration": 0.0422,
      "velocity": 103,
      "chip": "ym2612"
    },
    {
      "channel": 1,
      "note": 90,
      "start": 13.8461,
      "duration": 0.0409,
      "velocity": 103,
      "chip": "ym2612"
    },
    {
      "channel": 4,
      "note": 89,
      "start": 13.8475,
      "duration": 0.0396,
      "velocity": 103,
      "chip": "ym2612"
    },
    {
      "channel": 0,
      "note": 97,
      "start": 13.8957,
      "duration": 0.0481,
      "velocity": 103,
      "chip": "ym2612"
    },
    {
      "channel": 3,
      "note": 96,
      "start": 13.8974,
      "duration": 0.0466,
      "velocity": 103,
      "chip": "ym2612"
    },
    {
      "channel": 1,
      "note": 90,
      "start": 13.8991,
      "duration": 0.045,
      "velocity": 103,
      "chip": "ym2612"
    },
    {
      "channel": 4,
      "note": 89,
      "start": 13.9008,
      "duration": 0.0435,
      "velocity": 103,
      "chip": "ym2612"
    },
    {
      "channel": 2,
      "note": 93,
      "start": 13.9041,
      "duration": 0.0919,
      "velocity": 127,
      "chip": "ym2612"
    },
    {
      "channel": 5,
      "note": 42,
      "start": 13.9067,
      "duration": 0.0894,
      "velocity": 127,
      "chip": "ym2612"
    },
    {
      "channel": 0,
      "note": 104,
      "start": 13.9511,
      "duration": 0.0442,
      "velocity": 103,
      "chip": "ym2612"
    },
    {
      "channel": 3,
      "note": 103,
      "start": 13.9532,
      "duration": 0.0422,
      "velocity": 103,
      "chip": "ym2612"
    },
    {
      "channel": 1,
      "note": 97,
      "start": 13.9547,
      "duration": 0.0409,
      "velocity": 103,
      "chip": "ym2612"
    },
    {
      "channel": 4,
      "note": 96,
      "start": 13.9562,
      "duration": 0.0396,
      "velocity": 103,
      "chip": "ym2612"
    },
    {
      "channel": 0,
      "note": 104,
      "start": 14.0034,
      "duration": 0.0433,
      "velocity": 103,
      "chip": "ym2612"
    },
    {
      "channel": 3,
      "note": 103,
      "start": 14.0051,
      "duration": 0.0418,
      "velocity": 103,
      "chip": "ym2612"
    },
    {
      "channel": 1,
      "note": 97,
      "start": 14.0068,
      "duration": 0.0402,
      "velocity": 103,
      "chip": "ym2612"
    },
    {
      "channel": 4,
      "note": 96,
      "start": 14.0085,
      "duration": 0.0387,
      "velocity": 103,
      "chip": "ym2612"
    },
    {
      "channel": 5,
      "note": 25,
      "start": 14.0107,
      "duration": 0.0886,
      "velocity": 127,
      "chip": "ym2612"
    },
    {
      "channel": 0,
      "note": 109,
      "start": 14.0546,
      "duration": 0.0436,
      "velocity": 103,
      "chip": "ym2612"
    },
    {
      "channel": 3,
      "note": 108,
      "start": 14.0561,
      "duration": 0.0422,
      "velocity": 103,
      "chip": "ym2612"
    },
    {
      "channel": 1,
      "note": 102,
      "start": 14.0576,
      "duration": 0.0409,
      "velocity": 103,
      "chip": "ym2612"
    },
    {
      "channel": 4,
      "note": 101,
      "start": 14.0591,
      "duration": 0.0396,
      "velocity": 103,
      "chip": "ym2612"
    },
    {
      "channel": 0,
      "note": 109,
      "start": 14.1098,
      "duration": 0.0457,
      "velocity": 103,
      "chip": "ym2612"
    },
    {
      "channel": 3,
      "note": 108,
      "start": 14.1115,
      "duration": 0.0441,
      "velocity": 103,
      "chip": "ym2612"
    },
    {
      "channel": 1,
      "note": 102,
      "start": 14.1131,
      "duration": 0.0426,
      "velocity": 103,
      "chip": "ym2612"
    },
    {
      "channel": 4,
      "note": 101,
      "start": 14.1148,
      "duration": 0.041,
      "velocity": 103,
      "chip": "ym2612"
    },
    {
      "channel": 2,
      "note": 90,
      "start": 14.1175,
      "duration": 0.0691,
      "velocity": 95,
      "chip": "ym2612"
    },
    {
      "channel": 5,
      "note": 25,
      "start": 14.1199,
      "duration": 0.0881,
      "velocity": 127,
      "chip": "ym2612"
    },
    {
      "channel": 0,
      "note": 48,
      "start": 14.1627,
      "duration": 0.0442,
      "velocity": 103,
      "chip": "ym2612"
    },
    {
      "channel": 3,
      "note": 47,
      "start": 14.1641,
      "duration": 0.0429,
      "velocity": 103,
      "chip": "ym2612"
    },
    {
      "channel": 1,
      "note": 41,
      "start": 14.1657,
      "duration": 0.0415,
      "velocity": 103,
      "chip": "ym2612"
    },
    {
      "channel": 4,
      "note": 40,
      "start": 14.1671,
      "duration": 0.0402,
      "velocity": 103,
      "chip": "ym2612"
    },
    {
      "channel": 0,
      "note": 48,
      "start": 14.2156,
      "duration": 0.0485,
      "velocity": 103,
      "chip": "ym2612"
    },
    {
      "channel": 3,
      "note": 47,
      "start": 14.2173,
      "duration": 0.0469,
      "velocity": 103,
      "chip": "ym2612"
    },
    {
      "channel": 1,
      "note": 41,
      "start": 14.2196,
      "duration": 0.0448,
      "velocity": 103,
      "chip": "ym2612"
    },
    {
      "channel": 4,
      "note": 40,
      "start": 14.2213,
      "duration": 0.0432,
      "velocity": 103,
      "chip": "ym2612"
    },
    {
      "channel": 2,
      "note": 93,
      "start": 14.223,
      "duration": 0.0717,
      "velocity": 95,
      "chip": "ym2612"
    },
    {
      "channel": 5,
      "note": 25,
      "start": 14.2244,
      "duration": 0.0922,
      "velocity": 127,
      "chip": "ym2612"
    },
    {
      "channel": 0,
      "note": 53,
      "start": 14.2719,
      "duration": 0.0436,
      "velocity": 103,
      "chip": "ym2612"
    },
    {
      "channel": 3,
      "note": 52,
      "start": 14.2734,
      "duration": 0.0422,
      "velocity": 103,
      "chip": "ym2612"
    },
    {
      "channel": 1,
      "note": 46,
      "start": 14.2749,
      "duration": 0.041,
      "velocity": 103,
      "chip": "ym2612"
    },
    {
      "channel": 4,
      "note": 45,
      "start": 14.2764,
      "duration": 0.0396,
      "velocity": 103,
      "chip": "ym2612"
    },
    {
      "channel": 0,
      "note": 53,
      "start": 14.3249,
      "duration": 0.0478,
      "velocity": 103,
      "chip": "ym2612"
    },
    {
      "channel": 3,
      "note": 52,
      "start": 14.3266,
      "duration": 0.0463,
      "velocity": 103,
      "chip": "ym2612"
    },
    {
      "channel": 1,
      "note": 46,
      "start": 14.3283,
      "duration": 0.0446,
      "velocity": 103,
      "chip": "ym2612"
    },
    {
      "channel": 4,
      "note": 45,
      "start": 14.33,
      "duration": 0.0431,
      "velocity": 103,
      "chip": "ym2612"
    },
    {
      "channel": 2,
      "note": 93,
      "start": 14.3317,
      "duration": 0.1445,
      "velocity": 95,
      "chip": "ym2612"
    },
    {
      "channel": 5,
      "note": 25,
      "start": 14.334,
      "duration": 0.1424,
      "velocity": 127,
      "chip": "ym2612"
    },
    {
      "channel": 0,
      "note": 60,
      "start": 14.38,
      "duration": 0.0442,
      "velocity": 103,
      "chip": "ym2612"
    },
    {
      "channel": 3,
      "note": 59,
      "start": 14.3814,
      "duration": 0.0429,
      "velocity": 103,
      "chip": "ym2612"
    },
    {
      "channel": 1,
      "note": 53,
      "start": 14.383,
      "duration": 0.0415,
      "velocity": 103,
      "chip": "ym2612"
    },
    {
      "channel": 4,
      "note": 52,
      "start": 14.3844,
      "duration": 0.0402,
      "velocity": 103,
      "chip": "ym2612"
    },
    {
      "channel": 0,
      "note": 60,
      "start": 14.4314,
      "duration": 0.0442,
      "velocity": 103,
      "chip": "ym2612"
    },
    {
      "channel": 3,
      "note": 59,
      "start": 14.4331,
      "duration": 0.0427,
      "velocity": 103,
      "chip": "ym2612"
    },
    {
      "channel": 1,
      "note": 53,
      "start": 14.4348,
      "duration": 0.0411,
      "velocity": 103,
      "chip": "ym2612"
    },
    {
      "channel": 4,
      "note": 52,
      "start": 14.4371,
      "duration": 0.039,
      "velocity": 103,
      "chip": "ym2612"
    },
    {
      "channel": 0,
      "note": 65,
      "start": 14.4822,
      "duration": 0.0449,
      "velocity": 103,
      "chip": "ym2612"
    },
    {
      "channel": 3,
      "note": 64,
      "start": 14.4837,
      "duration": 0.0436,
      "velocity": 103,
      "chip": "ym2612"
    },
    {
      "channel": 1,
      "note": 58,
      "start": 14.4852,
      "duration": 0.0422,
      "velocity": 103,
      "chip": "ym2612"
    },
    {
      "channel": 4,
      "note": 57,
      "start": 14.4873,
      "duration": 0.0403,
      "velocity": 103,
      "chip": "ym2612"
    },
    {
      "channel": 0,
      "note": 65,
      "start": 14.5368,
      "duration": 0.0475,
      "velocity": 103,
      "chip": "ym2612"
    },
    {
      "channel": 3,
      "note": 64,
      "start": 14.5385,
      "duration": 0.0459,
      "velocity": 103,
      "chip": "ym2612"
    },
    {
      "channel": 1,
      "note": 58,
      "start": 14.5402,
      "duration": 0.0443,
      "velocity": 103,
      "chip": "ym2612"
    },
    {
      "channel": 4,
      "note": 57,
      "start": 14.5419,
      "duration": 0.0429,
      "velocity": 103,
      "chip": "ym2612"
    },
    {
      "channel": 2,
      "note": 93,
      "start": 14.5436,
      "duration": 0.0713,
      "velocity": 95,
      "chip": "ym2612"
    },
    {
      "channel": 5,
      "note": 42,
      "start": 14.5461,
      "duration": 0.0913,
      "velocity": 107,
      "chip": "ym2612"
    },
    {
      "channel": 0,
      "note": 72,
      "start": 14.5924,
      "duration": 0.0439,
      "velocity": 103,
      "chip": "ym2612"
    },
    {
      "channel": 3,
      "note": 71,
      "start": 14.5938,
      "duration": 0.0426,
      "velocity": 103,
      "chip": "ym2612"
    },
    {
      "channel": 1,
      "note": 65,
      "start": 14.5954,
      "duration": 0.0412,
      "velocity": 103,
      "chip": "ym2612"
    },
    {
      "channel": 4,
      "note": 64,
      "start": 14.5968,
      "duration": 0.0399,
      "velocity": 103,
      "chip": "ym2612"
    },
    {
      "channel": 0,
      "note": 72,
      "start": 14.6451,
      "duration": 0.0478,
      "velocity": 103,
      "chip": "ym2612"
    },
    {
      "channel": 3,
      "note": 71,
      "start": 14.6467,
      "duration": 0.0464,
      "velocity": 103,
      "chip": "ym2612"
    },
    {
      "channel": 1,
      "note": 65,
      "start": 14.6484,
      "duration": 0.0448,
      "velocity": 103,
      "chip": "ym2612"
    },
    {
      "channel": 4,
      "note": 64,
      "start": 14.6501,
      "duration": 0.0433,
      "velocity": 103,
      "chip": "ym2612"
    },
    {
      "channel": 2,
      "note": 93,
      "start": 14.6518,
      "duration": 0.0717,
      "velocity": 95,
      "chip": "ym2612"
    },
    {
      "channel": 5,
      "note": 65,
      "start": 14.6539,
      "duration": 0.0916,
      "velocity": 107,
      "chip": "ym2612"
    },
    {
      "channel": 0,
      "note": 77,
      "start": 14.7003,
      "duration": 0.044,
      "velocity": 103,
      "chip": "ym2612"
    },
    {
      "channel": 3,
      "note": 76,
      "start": 14.7018,
      "duration": 0.0427,
      "velocity": 103,
      "chip": "ym2612"
    },
    {
      "channel": 1,
      "note": 70,
      "start": 14.7039,
      "duration": 0.0407,
      "velocity": 103,
      "chip": "ym2612"
    },
    {
      "channel": 4,
      "note": 69,
      "start": 14.7054,
      "duration": 0.0394,
      "velocity": 103,
      "chip": "ym2612"
    },
    {
      "channel": 0,
      "note": 77,
      "start": 14.7537,
      "duration": 0.0478,
      "velocity": 103,
      "chip": "ym2612"
    },
    {
      "channel": 3,
      "note": 76,
      "start": 14.7554,
      "duration": 0.0462,
      "velocity": 103,
      "chip": "ym2612"
    },
    {
      "channel": 1,
      "note": 70,
      "start": 14.7571,
      "duration": 0.0448,
      "velocity": 103,
      "chip": "ym2612"
    },
    {
      "channel": 4,
      "note": 69,
      "start": 14.7588,
      "duration": 0.0432,
      "velocity": 103,
      "chip": "ym2612"
    },
    {
      "channel": 2,
      "note": 93,
      "start": 14.7615,
      "duration": 0.0922,
      "velocity": 127,
      "chip": "ym2612"
    },
    {
      "channel": 5,
      "note": 61,
      "start": 14.7632,
      "duration": 0.0907,
      "velocity": 107,
      "chip": "ym2612"
    },
    {
      "channel": 0,
      "note": 84,
      "start": 14.8096,
      "duration": 0.0434,
      "velocity": 103,
      "chip": "ym2612"
    },
    {
      "channel": 3,
      "note": 83,
      "start": 14.8111,
      "duration": 0.0421,
      "velocity": 103,
      "chip": "ym2612"
    },
    {
      "channel": 1,
      "note": 77,
      "start": 14.8126,
      "duration": 0.0407,
      "velocity": 103,
      "chip": "ym2612"
    },
    {
      "channel": 4,
      "note": 76,
      "start": 14.8141,
      "duration": 0.0394,
      "velocity": 103,
      "chip": "ym2612"
    },
    {
      "channel": 0,
      "note": 84,
      "start": 14.8606,
      "duration": 0.0496,
      "velocity": 103,
      "chip": "ym2612"
    },
    {
      "channel": 3,
      "note": 83,
      "start": 14.8623,
      "duration": 0.0481,
      "velocity": 103,
      "chip": "ym2612"
    },
    {
      "channel": 1,
      "note": 77,
      "start": 14.8639,
      "duration": 0.0466,
      "velocity": 103,
      "chip": "ym2612"
    },
    {
      "channel": 4,
      "note": 76,
      "start": 14.8657,
      "duration": 0.045,
      "velocity": 103,
      "chip": "ym2612"
    },
    {
      "channel": 5,
      "note": 57,
      "start": 14.8694,
      "duration": 0.0719,
      "velocity": 127,
      "chip": "ym2612"
    },
    {
      "channel": 0,
      "note": 89,
      "start": 14.9174,
      "duration": 0.0442,
      "velocity": 103,
      "chip": "ym2612"
    },
    {
      "channel": 3,
      "note": 88,
      "start": 14.9195,
      "duration": 0.0423,
      "velocity": 103,
      "chip": "ym2612"
    },
    {
      "channel": 1,
      "note": 82,
      "start": 14.9211,
      "duration": 0.0409,
      "velocity": 103,
      "chip": "ym2612"
    },
    {
      "channel": 4,
      "note": 81,
      "start": 14.9225,
      "duration": 0.0396,
      "velocity": 103,
      "chip": "ym2612"
    },
    {
      "channel": 0,
      "note": 89,
      "start": 14.9723,
      "duration": 0.0472,
      "velocity": 103,
      "chip": "ym2612"
    },
    {
      "channel": 3,
      "note": 88,
      "start": 14.9739,
      "duration": 0.0457,
      "velocity": 103,
      "chip": "ym2612"
    },
    {
      "channel": 1,
      "note": 82,
      "start": 14.9756,
      "duration": 0.0441,
      "velocity": 103,
      "chip": "ym2612"
    },
    {
      "channel": 4,
      "note": 81,
      "start": 14.9774,
      "duration": 0.0426,
      "velocity": 103,
      "chip": "ym2612"
    },
    {
      "channel": 2,
      "note": 90,
      "start": 14.98,
      "duration": 0.0694,
      "velocity": 95,
      "chip": "ym2612"
    },
    {
      "channel": 5,
      "note": 42,
      "start": 14.9827,
      "duration": 0.0887,
      "velocity": 127,
      "chip": "ym2612"
    },
    {
      "channel": 0,
      "note": 60,
      "start": 15.0267,
      "duration": 0.0436,
      "velocity": 103,
      "chip": "ym2612"
    },
    {
      "channel": 3,
      "note": 59,
      "start": 15.0282,
      "duration": 0.0422,
      "velocity": 103,
      "chip": "ym2612"
    },
    {
      "channel": 1,
      "note": 53,
      "start": 15.0297,
      "duration": 0.0409,
      "velocity": 103,
      "chip": "ym2612"
    },
    {
      "channel": 4,
      "note": 52,
      "start": 15.0312,
      "duration": 0.0396,
      "velocity": 103,
      "chip": "ym2612"
    },
    {
      "channel": 0,
      "note": 60,
      "start": 15.079,
      "duration": 0.0485,
      "velocity": 103,
      "chip": "ym2612"
    },
    {
      "channel": 3,
      "note": 59,
      "start": 15.0807,
      "duration": 0.0469,
      "velocity": 103,
      "chip": "ym2612"
    },
    {
      "channel": 1,
      "note": 53,
      "start": 15.0824,
      "duration": 0.0454,
      "velocity": 103,
      "chip": "ym2612"
    },
    {
      "channel": 4,
      "note": 52,
      "start": 15.0841,
      "duration": 0.0438,
      "velocity": 103,
      "chip": "ym2612"
    },
    {
      "channel": 2,
      "note": 93,
      "start": 15.0864,
      "duration": 0.0717,
      "velocity": 95,
      "chip": "ym2612"
    },
    {
      "channel": 5,
      "note": 25,
      "start": 15.0879,
      "duration": 0.0922,
      "velocity": 127,
      "chip": "ym2612"
    },
    {
      "channel": 0,
      "note": 65,
      "start": 15.1347,
      "duration": 0.0442,
      "velocity": 103,
      "chip": "ym2612"
    },
    {
      "channel": 3,
      "note": 64,
      "start": 15.1368,
      "duration": 0.0423,
      "velocity": 103,
      "chip": "ym2612"
    },
    {
      "channel": 1,
      "note": 58,
      "start": 15.1384,
      "duration": 0.0409,
      "velocity": 103,
      "chip": "ym2612"
    },
    {
      "channel": 4,
      "note": 57,
      "start": 15.1398,
      "duration": 0.0396,
      "velocity": 103,
      "chip": "ym2612"
    },
    {
      "channel": 0,
      "note": 65,
      "start": 15.1883,
      "duration": 0.048,
      "velocity": 103,
      "chip": "ym2612"
    },
    {
      "channel": 3,
      "note": 64,
      "start": 15.19,
      "duration": 0.0465,
      "velocity": 103,
      "chip": "ym2612"
    },
    {
      "channel": 1,
      "note": 58,
      "start": 15.1917,
      "duration": 0.045,
      "velocity": 103,
      "chip": "ym2612"
    },
    {
      "channel": 4,
      "note": 57,
      "start": 15.1934,
      "duration": 0.0434,
      "velocity": 103,
      "chip": "ym2612"
    },
    {
      "channel": 2,
      "note": 93,
      "start": 15.1961,
      "duration": 0.0921,
      "velocity": 127,
      "chip": "ym2612"
    },
    {
      "channel": 5,
      "note": 25,
      "start": 15.1978,
      "duration": 0.0906,
      "velocity": 127,
      "chip": "ym2612"
    },
    {
      "channel": 0,
      "note": 72,
      "start": 15.2436,
      "duration": 0.044,
      "velocity": 103,
      "chip": "ym2612"
    },
    {
      "channel": 3,
      "note": 71,
      "start": 15.2451,
      "duration": 0.0427,
      "velocity": 103,
      "chip": "ym2612"
    },
    {
      "channel": 1,
      "note": 65,
      "start": 15.2466,
      "duration": 0.0414,
      "velocity": 103,
      "chip": "ym2612"
    },
    {
      "channel": 4,
      "note": 64,
      "start": 15.248,
      "duration": 0.04,
      "velocity": 103,
      "chip": "ym2612"
    },
    {
      "channel": 0,
      "note": 72,
      "start": 15.2951,
      "duration": 0.0439,
      "velocity": 103,
      "chip": "ym2612"
    },
    {
      "channel": 3,
      "note": 71,
      "start": 15.2968,
      "duration": 0.0424,
      "velocity": 103,
      "chip": "ym2612"
    },
    {
      "channel": 1,
      "note": 65,
      "start": 15.2985,
      "duration": 0.0409,
      "velocity": 103,
      "chip": "ym2612"
    },
    {
      "channel": 4,
      "note": 64,
      "start": 15.3002,
      "duration": 0.0393,
      "velocity": 103,
      "chip": "ym2612"
    },
    {
      "channel": 5,
      "note": 25,
      "start": 15.303,
      "duration": 0.0886,
      "velocity": 127,
      "chip": "ym2612"
    },
    {
      "channel": 0,
      "note": 77,
      "start": 15.3463,
      "duration": 0.0442,
      "velocity": 103,
      "chip": "ym2612"
    },
    {
      "channel": 3,
      "note": 76,
      "start": 15.3478,
      "duration": 0.0429,
      "velocity": 103,
      "chip": "ym2612"
    },
    {
      "channel": 1,
      "note": 70,
      "start": 15.3493,
      "duration": 0.0415,
      "velocity": 103,
      "chip": "ym2612"
    },
    {
      "channel": 4,
      "note": 69,
      "start": 15.3508,
      "duration": 0.0402,
      "velocity": 103,
      "chip": "ym2612"
    },
    {
      "channel": 0,
      "note": 77,
      "start": 15.3996,
      "duration": 0.0482,
      "velocity": 103,
      "chip": "ym2612"
    },
    {
      "channel": 3,
      "note": 76,
      "start": 15.4012,
      "duration": 0.0466,
      "velocity": 103,
      "chip": "ym2612"
    },
    {
      "channel": 1,
      "note": 70,
      "start": 15.4036,
      "duration": 0.0445,
      "velocity": 103,
      "chip": "ym2612"
    },
    {
      "channel": 4,
      "note": 69,
      "start": 15.4052,
      "duration": 0.0429,
      "velocity": 103,
      "chip": "ym2612"
    },
    {
      "channel": 2,
      "note": 90,
      "start": 15.4079,
      "duration": 0.0704,
      "velocity": 95,
      "chip": "ym2612"
    },
    {
      "channel": 5,
      "note": 25,
      "start": 15.4105,
      "duration": 0.068,
      "velocity": 127,
      "chip": "ym2612"
    },
    {
      "channel": 0,
      "note": 84,
      "start": 15.4556,
      "duration": 0.0436,
      "velocity": 103,
      "chip": "ym2612"
    },
    {
      "channel": 3,
      "note": 83,
      "start": 15.4571,
      "duration": 0.0422,
      "velocity": 103,
      "chip": "ym2612"
    },
    {
      "channel": 1,
      "note": 77,
      "start": 15.4586,
      "duration": 0.0409,
      "velocity": 103,
      "chip": "ym2612"
    },
    {
      "channel": 4,
      "note": 76,
      "start": 15.4601,
      "duration": 0.0396,
      "velocity": 103,
      "chip": "ym2612"
    },
    {
      "channel": 0,
      "note": 84,
      "start": 15.508,
      "duration": 0.0426,
      "velocity": 103,
      "chip": "ym2612"
    },
    {
      "channel": 3,
      "note": 83,
      "start": 15.5097,
      "duration": 0.0411,
      "velocity": 103,
      "chip": "ym2612"
    },
    {
      "channel": 1,
      "note": 77,
      "start": 15.5114,
      "duration": 0.0396,
      "velocity": 103,
      "chip": "ym2612"
    },
    {
      "channel": 4,
      "note": 76,
      "start": 15.5131,
      "duration": 0.038,
      "velocity": 103,
      "chip": "ym2612"
    },
    {
      "channel": 2,
      "note": 93,
      "start": 15.5148,
      "duration": 0.0665,
      "velocity": 95,
      "chip": "ym2612"
    },
    {
      "channel": 0,
      "note": 89,
      "start": 15.5585,
      "duration": 0.0442,
      "velocity": 103,
      "chip": "ym2612"
    },
    {
      "channel": 3,
      "note": 88,
      "start": 15.56,
      "duration": 0.0429,
      "velocity": 103,
      "chip": "ym2612"
    },
    {
      "channel": 1,
      "note": 82,
      "start": 15.5615,
      "duration": 0.0415,
      "velocity": 103,
      "chip": "ym2612"
    },
    {
      "channel": 4,
      "note": 81,
      "start": 15.563,
      "duration": 0.0402,
      "velocity": 103,
      "chip": "ym2612"
    },
    {
      "channel": 0,
      "note": 89,
      "start": 15.6118,
      "duration": 0.0475,
      "velocity": 103,
      "chip": "ym2612"
    },
    {
      "channel": 3,
      "note": 88,
      "start": 15.6135,
      "duration": 0.0459,
      "velocity": 103,
      "chip": "ym2612"
    },
    {
      "channel": 1,
      "note": 82,
      "start": 15.6152,
      "duration": 0.0443,
      "velocity": 103,
      "chip": "ym2612"
    },
    {
      "channel": 4,
      "note": 81,
      "start": 15.6169,
      "duration": 0.0429,
      "velocity": 103,
      "chip": "ym2612"
    },
    {
      "channel": 2,
      "note": 93,
      "start": 15.6202,
      "duration": 0.0912,
      "velocity": 127,
      "chip": "ym2612"
    },
    {
      "channel": 5,
      "note": 42,
      "start": 15.6228,
      "duration": 0.0887,
      "velocity": 127,
      "chip": "ym2612"
    },
    {
      "channel": 0,
      "note": 96,
      "start": 15.6666,
      "duration": 0.0441,
      "velocity": 103,
      "chip": "ym2612"
    },
    {
      "channel": 3,
      "note": 95,
      "start": 15.668,
      "duration": 0.0429,
      "velocity": 103,
      "chip": "ym2612"
    },
    {
      "channel": 1,
      "note": 89,
      "start": 15.6702,
      "duration": 0.0408,
      "velocity": 103,
      "chip": "ym2612"
    },
    {
      "channel": 4,
      "note": 88,
      "start": 15.6716,
      "duration": 0.0396,
      "velocity": 103,
      "chip": "ym2612"
    },
    {
      "channel": 0,
      "note": 96,
      "start": 15.7183,
      "duration": 0.0439,
      "velocity": 103,
      "chip": "ym2612"
    },
    {
      "channel": 3,
      "note": 95,
      "start": 15.7206,
      "duration": 0.0417,
      "velocity": 103,
      "chip": "ym2612"
    },
    {
      "channel": 1,
      "note": 89,
      "start": 15.7223,
      "duration": 0.0402,
      "velocity": 103,
      "chip": "ym2612"
    },
    {
      "channel": 4,
      "note": 88,
      "start": 15.724,
      "duration": 0.0387,
      "velocity": 103,
      "chip": "ym2612"
    },
    {
      "channel": 5,
      "note": 25,
      "start": 15.7262,
      "duration": 0.0886,
      "velocity": 127,
      "chip": "ym2612"
    },
    {
      "channel": 0,
      "note": 101,
      "start": 15.77,
      "duration": 0.0436,
      "velocity": 103,
      "chip": "ym2612"
    },
    {
      "channel": 3,
      "note": 100,
      "start": 15.7715,
      "duration": 0.0423,
      "velocity": 103,
      "chip": "ym2612"
    },
    {
      "channel": 1,
      "note": 94,
      "start": 15.773,
      "duration": 0.0409,
      "velocity": 103,
      "chip": "ym2612"
    },
    {
      "channel": 4,
      "note": 93,
      "start": 15.7745,
      "duration": 0.0396,
      "velocity": 103,
      "chip": "ym2612"
    },
    {
      "channel": 0,
      "note": 101,
      "start": 15.8238,
      "duration": 0.0471,
      "velocity": 103,
      "chip": "ym2612"
    },
    {
      "channel": 3,
      "note": 100,
      "start": 15.8255,
      "duration": 0.0455,
      "velocity": 103,
      "chip": "ym2612"
    },
    {
      "channel": 1,
      "note": 94,
      "start": 15.8272,
      "duration": 0.044,
      "velocity": 103,
      "chip": "ym2612"
    },
    {
      "channel": 4,
      "note": 93,
      "start": 15.8288,
      "duration": 0.0425,
      "velocity": 103,
      "chip": "ym2612"
    },
    {
      "channel": 2,
      "note": 90,
      "start": 15.8315,
      "duration": 0.07,
      "velocity": 95,
      "chip": "ym2612"
    },
    {
      "channel": 5,
      "note": 25,
      "start": 15.8332,
      "duration": 0.0902,
      "velocity": 127,
      "chip": "ym2612"
    },
    {
      "channel": 0,
      "note": 72,
      "start": 15.8781,
      "duration": 0.0442,
      "velocity": 103,
      "chip": "ym2612"
    },
    {
      "channel": 3,
      "note": 71,
      "start": 15.8796,
      "duration": 0.0429,
      "velocity": 103,
      "chip": "ym2612"
    },
    {
      "channel": 1,
      "note": 65,
      "start": 15.8811,
      "duration": 0.0415,
      "velocity": 103,
      "chip": "ym2612"
    },
    {
      "channel": 4,
      "note": 64,
      "start": 15.8826,
      "duration": 0.0402,
      "velocity": 103,
      "chip": "ym2612"
    },
    {
      "channel": 0,
      "note": 72,
      "start": 15.9311,
      "duration": 0.0484,
      "velocity": 103,
      "chip": "ym2612"
    },
    {
      "channel": 3,
      "note": 71,
      "start": 15.9327,
      "duration": 0.047,
      "velocity": 103,
      "chip": "ym2612"
    },
    {
      "channel": 1,
      "note": 65,
      "start": 15.9344,
      "duration": 0.0454,
      "velocity": 103,
      "chip": "ym2612"
    },
    {
      "channel": 4,
      "note": 64,
      "start": 15.9367,
      "duration": 0.0433,
      "velocity": 103,
      "chip": "ym2612"
    },
    {
      "channel": 2,
      "note": 93,
      "start": 15.9384,
      "duration": 0.0717,
      "velocity": 95,
      "chip": "ym2612"
    },
    {
      "channel": 5,
      "note": 25,
      "start": 15.9399,
      "duration": 0.0922,
      "velocity": 127,
      "chip": "ym2612"
    },
    {
      "channel": 0,
      "note": 77,
      "start": 15.9873,
      "duration": 0.0437,
      "velocity": 103,
      "chip": "ym2612"
    },
    {
      "channel": 3,
      "note": 76,
      "start": 15.9888,
      "duration": 0.0423,
      "velocity": 103,
      "chip": "ym2612"
    },
    {
      "channel": 1,
      "note": 70,
      "start": 15.9903,
      "duration": 0.0409,
      "velocity": 103,
      "chip": "ym2612"
    },
    {
      "channel": 4,
      "note": 69,
      "start": 15.9918,
      "duration": 0.0396,
      "velocity": 103,
      "chip": "ym2612"
    },
    {
      "channel": 0,
      "note": 77,
      "start": 16.0404,
      "duration": 0.0477,
      "velocity": 103,
      "chip": "ym2612"
    },
    {
      "channel": 3,
      "note": 76,
      "start": 16.0421,
      "duration": 0.0462,
      "velocity": 103,
      "chip": "ym2612"
    },
    {
      "channel": 1,
      "note": 70,
      "start": 16.0438,
      "duration": 0.0446,
      "velocity": 103,
      "chip": "ym2612"
    },
    {
      "channel": 4,
      "note": 69,
      "start": 16.0455,
      "duration": 0.0431,
      "velocity": 103,
      "chip": "ym2612"
    },
    {
      "channel": 2,
      "note": 93,
      "start": 16.0471,
      "duration": 0.1445,
      "velocity": 95,
      "chip": "ym2612"
    },
    {
      "channel": 5,
      "note": 25,
      "start": 16.0495,
      "duration": 0.1424,
      "velocity": 127,
      "chip": "ym2612"
    },
    {
      "channel": 0,
      "note": 84,
      "start": 16.0954,
      "duration": 0.0442,
      "velocity": 103,
      "chip": "ym2612"
    },
    {
      "channel": 3,
      "note": 83,
      "start": 16.0968,
      "duration": 0.0429,
      "velocity": 103,
      "chip": "ym2612"
    },
    {
      "channel": 1,
      "note": 77,
      "start": 16.0984,
      "duration": 0.0415,
      "velocity": 103,
      "chip": "ym2612"
    },
    {
      "channel": 4,
      "note": 76,
      "start": 16.0998,
      "duration": 0.0403,
      "velocity": 103,
      "chip": "ym2612"
    },
    {
      "channel": 0,
      "note": 84,
      "start": 16.1468,
      "duration": 0.0443,
      "velocity": 103,
      "chip": "ym2612"
    },
    {
      "channel": 3,
      "note": 83,
      "start": 16.1485,
      "duration": 0.0427,
      "velocity": 103,
      "chip": "ym2612"
    },
    {
      "channel": 1,
      "note": 77,
      "start": 16.1502,
      "duration": 0.0412,
      "velocity": 103,
      "chip": "ym2612"
    },
    {
      "channel": 4,
      "note": 76,
      "start": 16.1519,
      "duration": 0.0396,
      "velocity": 103,
      "chip": "ym2612"
    },
    {
      "channel": 0,
      "note": 89,
      "start": 16.1977,
      "duration": 0.0449,
      "velocity": 103,
      "chip": "ym2612"
    },
    {
      "channel": 3,
      "note": 88,
      "start": 16.1991,
      "duration": 0.0436,
      "velocity": 103,
      "chip": "ym2612"
    },
    {
      "channel": 1,
      "note": 82,
      "start": 16.2007,
      "duration": 0.0422,
      "velocity": 103,
      "chip": "ym2612"
    },
    {
      "channel": 4,
      "note": 81,
      "start": 16.2027,
      "duration": 0.0403,
      "velocity": 103,
      "chip": "ym2612"
    },
    {
      "channel": 0,
      "note": 89,
      "start": 16.2517,
      "duration": 0.048,
      "velocity": 103,
      "chip": "ym2612"
    },
    {
      "channel": 3,
      "note": 88,
      "start": 16.2539,
      "duration": 0.0459,
      "velocity": 103,
      "chip": "ym2612"
    },
    {
      "channel": 1,
      "note": 82,
      "start": 16.2557,
      "duration": 0.0444,
      "velocity": 103,
      "chip": "ym2612"
    },
    {
      "channel": 4,
      "note": 81,
      "start": 16.2573,
      "duration": 0.0429,
      "velocity": 103,
      "chip": "ym2612"
    },
    {
      "channel": 2,
      "note": 93,
      "start": 16.259,
      "duration": 0.0712,
      "velocity": 95,
      "chip": "ym2612"
    },
    {
      "channel": 5,
      "note": 42,
      "start": 16.2616,
      "duration": 0.0914,
      "velocity": 107,
      "chip": "ym2612"
    },
    {
      "channel": 0,
      "note": 96,
      "start": 16.3078,
      "duration": 0.0434,
      "velocity": 103,
      "chip": "ym2612"
    },
    {
      "channel": 3,
      "note": 95,
      "start": 16.3092,
      "duration": 0.0421,
      "velocity": 103,
      "chip": "ym2612"
    },
    {
      "channel": 1,
      "note": 89,
      "start": 16.3108,
      "duration": 0.0407,
      "velocity": 103,
      "chip": "ym2612"
    },
    {
      "channel": 4,
      "note": 88,
      "start": 16.3122,
      "duration": 0.0394,
      "velocity": 103,
      "chip": "ym2612"
    },
    {
      "channel": 0,
      "note": 96,
      "start": 16.3606,
      "duration": 0.0478,
      "velocity": 103,
      "chip": "ym2612"
    },
    {
      "channel": 3,
      "note": 95,
      "start": 16.3622,
      "duration": 0.0463,
      "velocity": 103,
      "chip": "ym2612"
    },
    {
      "channel": 1,
      "note": 89,
      "start": 16.3639,
      "duration": 0.0447,
      "velocity": 103,
      "chip": "ym2612"
    },
    {
      "channel": 4,
      "note": 88,
      "start": 16.3656,
      "duration": 0.0432,
      "velocity": 103,
      "chip": "ym2612"
    },
    {
      "channel": 2,
      "note": 93,
      "start": 16.3673,
      "duration": 0.0716,
      "velocity": 95,
      "chip": "ym2612"
    },
    {
      "channel": 5,
      "note": 65,
      "start": 16.3694,
      "duration": 0.0915,
      "velocity": 107,
      "chip": "ym2612"
    },
    {
      "channel": 0,
      "note": 101,
      "start": 16.4158,
      "duration": 0.044,
      "velocity": 103,
      "chip": "ym2612"
    },
    {
      "channel": 3,
      "note": 100,
      "start": 16.4173,
      "duration": 0.0427,
      "velocity": 103,
      "chip": "ym2612"
    },
    {
      "channel": 1,
      "note": 94,
      "start": 16.4194,
      "duration": 0.0407,
      "velocity": 103,
      "chip": "ym2612"
    },
    {
      "channel": 4,
      "note": 93,
      "start": 16.4209,
      "duration": 0.0394,
      "velocity": 103,
      "chip": "ym2612"
    },
    {
      "channel": 0,
      "note": 101,
      "start": 16.4685,
      "duration": 0.0485,
      "velocity": 103,
      "chip": "ym2612"
    },
    {
      "channel": 3,
      "note": 100,
      "start": 16.4709,
      "duration": 0.0462,
      "velocity": 103,
      "chip": "ym2612"
    },
    {
      "channel": 1,
      "note": 94,
      "start": 16.4726,
      "duration": 0.0447,
      "velocity": 103,
      "chip": "ym2612"
    },
    {
      "channel": 4,
      "note": 93,
      "start": 16.4742,
      "duration": 0.0432,
      "velocity": 103,
      "chip": "ym2612"
    },
    {
      "channel": 2,
      "note": 93,
      "start": 16.4769,
      "duration": 0.0928,
      "velocity": 127,
      "chip": "ym2612"
    },
    {
      "channel": 5,
      "note": 61,
      "start": 16.4786,
      "duration": 0.0912,
      "velocity": 107,
      "chip": "ym2612"
    },
    {
      "channel": 0,
      "note": 108,
      "start": 16.5251,
      "duration": 0.0434,
      "velocity": 103,
      "chip": "ym2612"
    },
    {
      "channel": 3,
      "note": 107,
      "start": 16.5265,
      "duration": 0.0421,
      "velocity": 103,
      "chip": "ym2612"
    },
    {
      "channel": 1,
      "note": 101,
      "start": 16.5281,
      "duration": 0.0413,
      "velocity": 103,
      "chip": "ym2612"
    },
    {
      "channel": 4,
      "note": 100,
      "start": 16.5295,
      "duration": 0.04,
      "velocity": 103,
      "chip": "ym2612"
    },
    {
      "channel": 0,
      "note": 108,
      "start": 16.5766,
      "duration": 0.049,
      "velocity": 103,
      "chip": "ym2612"
    },
    {
      "channel": 3,
      "note": 107,
      "start": 16.5783,
      "duration": 0.0475,
      "velocity": 103,
      "chip": "ym2612"
    },
    {
      "channel": 1,
      "note": 101,
      "start": 16.58,
      "duration": 0.046,
      "velocity": 103,
      "chip": "ym2612"
    },
    {
      "channel": 4,
      "note": 100,
      "start": 16.5817,
      "duration": 0.0444,
      "velocity": 103,
      "chip": "ym2612"
    },
    {
      "channel": 5,
      "note": 57,
      "start": 16.5848,
      "duration": 0.072,
      "velocity": 127,
      "chip": "ym2612"
    },
    {
      "channel": 0,
      "note": 113,
      "start": 16.6329,
      "duration": 0.0442,
      "velocity": 103,
      "chip": "ym2612"
    },
    {
      "channel": 3,
      "note": 112,
      "start": 16.6344,
      "duration": 0.0429,
      "velocity": 103,
      "chip": "ym2612"
    },
    {
      "channel": 1,
      "note": 106,
      "start": 16.6365,
      "duration": 0.0409,
      "velocity": 103,
      "chip": "ym2612"
    },
    {
      "channel": 4,
      "note": 105,
      "start": 16.638,
      "duration": 0.0396,
      "velocity": 103,
      "chip": "ym2612"
    },
    {
      "channel": 0,
      "note": 113,
      "start": 16.6891,
      "duration": 0.051,
      "velocity": 103,
      "chip": "ym2612"
    },
    {
      "channel": 3,
      "note": 112,
      "start": 16.6907,
      "duration": 0.0494,
      "velocity": 103,
      "chip": "ym2612"
    },
    {
      "channel": 1,
      "note": 106,
      "start": 16.6924,
      "duration": 0.0478,
      "velocity": 103,
      "chip": "ym2612"
    },
    {
      "channel": 4,
      "note": 105,
      "start": 16.6941,
      "duration": 0.0464,
      "velocity": 103,
      "chip": "ym2612"
    },
    {
      "channel": 2,
      "note": 90,
      "start": 16.6968,
      "duration": 0.0745,
      "velocity": 95,
      "chip": "ym2612"
    },
    {
      "channel": 5,
      "note": 42,
      "start": 16.6994,
      "duration": 0.0932,
      "velocity": 127,
      "chip": "ym2612"
    },
    {
      "channel": 0,
      "note": 52,
      "start": 16.7473,
      "duration": 0.0442,
      "velocity": 103,
      "chip": "ym2612"
    },
    {
      "channel": 3,
      "note": 51,
      "start": 16.7487,
      "duration": 0.0429,
      "velocity": 103,
      "chip": "ym2612"
    },
    {
      "channel": 1,
      "note": 45,
      "start": 16.7503,
      "duration": 0.0415,
      "velocity": 103,
      "chip": "ym2612"
    },
    {
      "channel": 4,
      "note": 44,
      "start": 16.7517,
      "duration": 0.0402,
      "velocity": 103,
      "chip": "ym2612"
    },
    {
      "channel": 0,
      "note": 52,
      "start": 16.8002,
      "duration": 0.0484,
      "velocity": 103,
      "chip": "ym2612"
    },
    {
      "channel": 3,
      "note": 51,
      "start": 16.8019,
      "duration": 0.0469,
      "velocity": 103,
      "chip": "ym2612"
    },
    {
      "channel": 1,
      "note": 45,
      "start": 16.8042,
      "duration": 0.0447,
      "velocity": 103,
      "chip": "ym2612"
    },
    {
      "channel": 4,
      "note": 44,
      "start": 16.8059,
      "duration": 0.0432,
      "velocity": 103,
      "chip": "ym2612"
    },
    {
      "channel": 2,
      "note": 93,
      "start": 16.8076,
      "duration": 0.0717,
      "velocity": 95,
      "chip": "ym2612"
    },
    {
      "channel": 5,
      "note": 25,
      "start": 16.8091,
      "duration": 0.0921,
      "velocity": 127,
      "chip": "ym2612"
    },
    {
      "channel": 0,
      "note": 57,
      "start": 16.8565,
      "duration": 0.0436,
      "velocity": 103,
      "chip": "ym2612"
    },
    {
      "channel": 3,
      "note": 56,
      "start": 16.858,
      "duration": 0.0423,
      "velocity": 103,
      "chip": "ym2612"
    },
    {
      "channel": 1,
      "note": 50,
      "start": 16.8595,
      "duration": 0.0409,
      "velocity": 103,
      "chip": "ym2612"
    },
    {
      "channel": 4,
      "note": 49,
      "start": 16.861,
      "duration": 0.0396,
      "velocity": 103,
      "chip": "ym2612"
    },
    {
      "channel": 0,
      "note": 57,
      "start": 16.9094,
      "duration": 0.0479,
      "velocity": 103,
      "chip": "ym2612"
    },
    {
      "channel": 3,
      "note": 56,
      "start": 16.9111,
      "duration": 0.0463,
      "velocity": 103,
      "chip": "ym2612"
    },
    {
      "channel": 1,
      "note": 50,
      "start": 16.9128,
      "duration": 0.0448,
      "velocity": 103,
      "chip": "ym2612"
    },
    {
      "channel": 4,
      "note": 49,
      "start": 16.9145,
      "duration": 0.0433,
      "velocity": 103,
      "chip": "ym2612"
    },
    {
      "channel": 2,
      "note": 93,
      "start": 16.9172,
      "duration": 0.0922,
      "velocity": 127,
      "chip": "ym2612"
    },
    {
      "channel": 5,
      "note": 25,
      "start": 16.9195,
      "duration": 0.09,
      "velocity": 127,
      "chip": "ym2612"
    },
    {
      "channel": 0,
      "note": 64,
      "start": 16.9646,
      "duration": 0.0441,
      "velocity": 103,
      "chip": "ym2612"
    },
    {
      "channel": 3,
      "note": 63,
      "start": 16.966,
      "duration": 0.0429,
      "velocity": 103,
      "chip": "ym2612"
    },
    {
      "channel": 1,
      "note": 57,
      "start": 16.9676,
      "duration": 0.0415,
      "velocity": 103,
      "chip": "ym2612"
    },
    {
      "channel": 4,
      "note": 56,
      "start": 16.9697,
      "duration": 0.0396,
      "velocity": 103,
      "chip": "ym2612"
    },
    {
      "channel": 0,
      "note": 64,
      "start": 17.0163,
      "duration": 0.0439,
      "velocity": 103,
      "chip": "ym2612"
    },
    {
      "channel": 3,
      "note": 63,
      "start": 17.018,
      "duration": 0.0424,
      "velocity": 103,
      "chip": "ym2612"
    },
    {
      "channel": 1,
      "note": 57,
      "start": 17.0203,
      "duration": 0.0402,
      "velocity": 103,
      "chip": "ym2612"
    },
    {
      "channel": 4,
      "note": 56,
      "start": 17.022,
      "duration": 0.0387,
      "velocity": 103,
      "chip": "ym2612"
    },
    {
      "channel": 5,
      "note": 25,
      "start": 17.0242,
      "duration": 0.0886,
      "velocity": 127,
      "chip": "ym2612"
    },
    {
      "channel": 0,
      "note": 69,
      "start": 17.0674,
      "duration": 0.0442,
      "velocity": 103,
      "chip": "ym2612"
    },
    {
      "channel": 3,
      "note": 68,
      "start": 17.0695,
      "duration": 0.0423,
      "velocity": 103,
      "chip": "ym2612"
    },
    {
      "channel": 1,
      "note": 62,
      "start": 17.0711,
      "duration": 0.0409,
      "velocity": 103,
      "chip": "ym2612"
    },
    {
      "channel": 4,
      "note": 61,
      "start": 17.0725,
      "duration": 0.0396,
      "velocity": 103,
      "chip": "ym2612"
    },
    {
      "channel": 0,
      "note": 69,
      "start": 17.121,
      "duration": 0.0485,
      "velocity": 103,
      "chip": "ym2612"
    },
    {
      "channel": 3,
      "note": 68,
      "start": 17.1227,
      "duration": 0.0469,
      "velocity": 103,
      "chip": "ym2612"
    },
    {
      "channel": 1,
      "note": 62,
      "start": 17.1244,
      "duration": 0.0454,
      "velocity": 103,
      "chip": "ym2612"
    },
    {
      "channel": 4,
      "note": 61,
      "start": 17.1261,
      "duration": 0.0439,
      "velocity": 103,
      "chip": "ym2612"
    },
    {
      "channel": 2,
      "note": 90,
      "start": 17.1288,
      "duration": 0.0707,
      "velocity": 95,
      "chip": "ym2612"
    },
    {
      "channel": 5,
      "note": 25,
      "start": 17.1314,
      "duration": 0.0683,
      "velocity": 127,
      "chip": "ym2612"
    },
    {
      "channel": 0,
      "note": 76,
      "start": 17.1767,
      "duration": 0.0436,
      "velocity": 103,
      "chip": "ym2612"
    },
    {
      "channel": 3,
      "note": 75,
      "start": 17.1782,
      "duration": 0.0423,
      "velocity": 103,
      "chip": "ym2612"
    },
    {
      "channel": 1,
      "note": 69,
      "start": 17.1797,
      "duration": 0.0409,
      "velocity": 103,
      "chip": "ym2612"
    },
    {
      "channel": 4,
      "note": 68,
      "start": 17.1812,
      "duration": 0.0396,
      "velocity": 103,
      "chip": "ym2612"
    },
    {
      "channel": 0,
      "note": 76,
      "start": 17.2286,
      "duration": 0.0433,
      "velocity": 103,
      "chip": "ym2612"
    },
    {
      "channel": 3,
      "note": 75,
      "start": 17.2302,
      "duration": 0.0417,
      "velocity": 103,
      "chip": "ym2612"
    },
    {
      "channel": 1,
      "note": 69,
      "start": 17.232,
      "duration": 0.0401,
      "velocity": 103,
      "chip": "ym2612"
    },
    {
      "channel": 4,
      "note": 68,
      "start": 17.2336,
      "duration": 0.0387,
      "velocity": 103,
      "chip": "ym2612"
    },
    {
      "channel": 2,
      "note": 93,
      "start": 17.2353,
      "duration": 0.0677,
      "velocity": 95,
      "chip": "ym2612"
    },
    {
      "channel": 0,
      "note": 81,
      "start": 17.2791,
      "duration": 0.0442,
      "velocity": 103,
      "chip": "ym2612"
    },
    {
      "channel": 3,
      "note": 80,
      "start": 17.2805,
      "duration": 0.0429,
      "velocity": 103,
      "chip": "ym2612"
    },
    {
      "channel": 1,
      "note": 74,
      "start": 17.2821,
      "duration": 0.0415,
      "velocity": 103,
      "chip": "ym2612"
    },
    {
      "channel": 4,
      "note": 73,
      "start": 17.2835,
      "duration": 0.0402,
      "velocity": 103,
      "chip": "ym2612"
    },
    {
      "channel": 0,
      "note": 81,
      "start": 17.3323,
      "duration": 0.0481,
      "velocity": 103,
      "chip": "ym2612"
    },
    {
      "channel": 3,
      "note": 80,
      "start": 17.334,
      "duration": 0.0466,
      "velocity": 103,
      "chip": "ym2612"
    },
    {
      "channel": 1,
      "note": 74,
      "start": 17.3363,
      "duration": 0.0444,
      "velocity": 103,
      "chip": "ym2612"
    },
    {
      "channel": 4,
      "note": 73,
      "start": 17.338,
      "duration": 0.0429,
      "velocity": 103,
      "chip": "ym2612"
    },
    {
      "channel": 2,
      "note": 93,
      "start": 17.3407,
      "duration": 0.0918,
      "velocity": 127,
      "chip": "ym2612"
    },
    {
      "channel": 5,
      "note": 42,
      "start": 17.3433,
      "duration": 0.0893,
      "velocity": 127,
      "chip": "ym2612"
    },
    {
      "channel": 0,
      "note": 88,
      "start": 17.3883,
      "duration": 0.0436,
      "velocity": 103,
      "chip": "ym2612"
    },
    {
      "channel": 3,
      "note": 87,
      "start": 17.3898,
      "duration": 0.0423,
      "velocity": 103,
      "chip": "ym2612"
    },
    {
      "channel": 1,
      "note": 81,
      "start": 17.3913,
      "duration": 0.0409,
      "velocity": 103,
      "chip": "ym2612"
    },
    {
      "channel": 4,
      "note": 80,
      "start": 17.3928,
      "duration": 0.0396,
      "velocity": 103,
      "chip": "ym2612"
    },
    {
      "channel": 0,
      "note": 88,
      "start": 17.44,
      "duration": 0.0433,
      "velocity": 103,
      "chip": "ym2612"
    },
    {
      "channel": 3,
      "note": 87,
      "start": 17.4417,
      "duration": 0.0418,
      "velocity": 103,
      "chip": "ym2612"
    },
    {
      "channel": 1,
      "note": 81,
      "start": 17.4435,
      "duration": 0.0402,
      "velocity": 103,
      "chip": "ym2612"
    },
    {
      "channel": 4,
      "note": 80,
      "start": 17.4451,
      "duration": 0.0387,
      "velocity": 103,
      "chip": "ym2612"
    },
    {
      "channel": 5,
      "note": 25,
      "start": 17.4473,
      "duration": 0.0893,
      "velocity": 127,
      "chip": "ym2612"
    },
    {
      "channel": 0,
      "note": 93,
      "start": 17.4912,
      "duration": 0.0436,
      "velocity": 103,
      "chip": "ym2612"
    },
    {
      "channel": 3,
      "note": 92,
      "start": 17.4927,
      "duration": 0.0423,
      "velocity": 103,
      "chip": "ym2612"
    },
    {
      "channel": 1,
      "note": 86,
      "start": 17.4942,
      "duration": 0.0409,
      "velocity": 103,
      "chip": "ym2612"
    },
    {
      "channel": 4,
      "note": 85,
      "start": 17.4957,
      "duration": 0.0396,
      "velocity": 103,
      "chip": "ym2612"
    },
    {
      "channel": 0,
      "note": 93,
      "start": 17.545,
      "duration": 0.047,
      "velocity": 103,
      "chip": "ym2612"
    },
    {
      "channel": 3,
      "note": 92,
      "start": 17.5466,
      "duration": 0.0455,
      "velocity": 103,
      "chip": "ym2612"
    },
    {
      "channel": 1,
      "note": 86,
      "start": 17.5484,
      "duration": 0.0439,
      "velocity": 103,
      "chip": "ym2612"
    },
    {
      "channel": 4,
      "note": 85,
      "start": 17.5501,
      "duration": 0.0424,
      "velocity": 103,
      "chip": "ym2612"
    },
    {
      "channel": 2,
      "note": 90,
      "start": 17.5534,
      "duration": 0.0692,
      "velocity": 95,
      "chip": "ym2612"
    },
    {
      "channel": 5,
      "note": 25,
      "start": 17.5551,
      "duration": 0.0895,
      "velocity": 127,
      "chip": "ym2612"
    },
    {
      "channel": 0,
      "note": 64,
      "start": 17.5993,
      "duration": 0.0442,
      "velocity": 103,
      "chip": "ym2612"
    },
    {
      "channel": 3,
      "note": 63,
      "start": 17.6007,
      "duration": 0.0429,
      "velocity": 103,
      "chip": "ym2612"
    },
    {
      "channel": 1,
      "note": 57,
      "start": 17.6029,
      "duration": 0.0409,
      "velocity": 103,
      "chip": "ym2612"
    },
    {
      "channel": 4,
      "note": 56,
      "start": 17.6043,
      "duration": 0.0396,
      "velocity": 103,
      "chip": "ym2612"
    },
    {
      "channel": 0,
      "note": 64,
      "start": 17.6529,
      "duration": 0.0478,
      "velocity": 103,
      "chip": "ym2612"
    },
    {
      "channel": 3,
      "note": 63,
      "start": 17.6545,
      "duration": 0.0463,
      "velocity": 103,
      "chip": "ym2612"
    },
    {
      "channel": 1,
      "note": 57,
      "start": 17.6562,
      "duration": 0.0447,
      "velocity": 103,
      "chip": "ym2612"
    },
    {
      "channel": 4,
      "note": 56,
      "start": 17.6579,
      "duration": 0.0433,
      "velocity": 103,
      "chip": "ym2612"
    },
    {
      "channel": 2,
      "note": 93,
      "start": 17.6596,
      "duration": 0.0716,
      "velocity": 95,
      "chip": "ym2612"
    },
    {
      "channel": 5,
      "note": 25,
      "start": 17.6611,
      "duration": 0.0928,
      "velocity": 127,
      "chip": "ym2612"
    },
    {
      "channel": 0,
      "note": 69,
      "start": 17.7085,
      "duration": 0.0442,
      "velocity": 103,
      "chip": "ym2612"
    },
    {
      "channel": 3,
      "note": 68,
      "start": 17.71,
      "duration": 0.0429,
      "velocity": 103,
      "chip": "ym2612"
    },
    {
      "channel": 1,
      "note": 62,
      "start": 17.7115,
      "duration": 0.0415,
      "velocity": 103,
      "chip": "ym2612"
    },
    {
      "channel": 4,
      "note": 61,
      "start": 17.713,
      "duration": 0.0402,
      "velocity": 103,
      "chip": "ym2612"
    },
    {
      "channel": 0,
      "note": 69,
      "start": 17.7616,
      "duration": 0.0477,
      "velocity": 103,
      "chip": "ym2612"
    },
    {
      "channel": 3,
      "note": 68,
      "start": 17.7632,
      "duration": 0.0462,
      "velocity": 103,
      "chip": "ym2612"
    },
    {
      "channel": 1,
      "note": 62,
      "start": 17.765,
      "duration": 0.0446,
      "velocity": 103,
      "chip": "ym2612"
    },
    {
      "channel": 4,
      "note": 61,
      "start": 17.7666,
      "duration": 0.0431,
      "velocity": 103,
      "chip": "ym2612"
    },
    {
      "channel": 2,
      "note": 93,
      "start": 17.7683,
      "duration": 0.1445,
      "velocity": 95,
      "chip": "ym2612"
    },
    {
      "channel": 5,
      "note": 25,
      "start": 17.7713,
      "duration": 0.1417,
      "velocity": 127,
      "chip": "ym2612"
    },
    {
      "channel": 0,
      "note": 76,
      "start": 17.8166,
      "duration": 0.0442,
      "velocity": 103,
      "chip": "ym2612"
    },
    {
      "channel": 3,
      "note": 75,
      "start": 17.818,
      "duration": 0.0429,
      "velocity": 103,
      "chip": "ym2612"
    },
    {
      "channel": 1,
      "note": 69,
      "start": 17.8202,
      "duration": 0.0409,
      "velocity": 103,
      "chip": "ym2612"
    },
    {
      "channel": 4,
      "note": 68,
      "start": 17.8216,
      "duration": 0.0396,
      "velocity": 103,
      "chip": "ym2612"
    },
    {
      "channel": 0,
      "note": 76,
      "start": 17.868,
      "duration": 0.0442,
      "velocity": 103,
      "chip": "ym2612"
    },
    {
      "channel": 3,
      "note": 75,
      "start": 17.8703,
      "duration": 0.0421,
      "velocity": 103,
      "chip": "ym2612"
    },
    {
      "channel": 1,
      "note": 69,
      "start": 17.872,
      "duration": 0.0405,
      "velocity": 103,
      "chip": "ym2612"
    },
    {
      "channel": 4,
      "note": 68,
      "start": 17.8737,
      "duration": 0.039,
      "velocity": 103,
      "chip": "ym2612"
    },
    {
      "channel": 0,
      "note": 81,
      "start": 17.9194,
      "duration": 0.0443,
      "velocity": 103,
      "chip": "ym2612"
    },
    {
      "channel": 3,
      "note": 80,
      "start": 17.9209,
      "duration": 0.0429,
      "velocity": 103,
      "chip": "ym2612"
    },
    {
      "channel": 1,
      "note": 74,
      "start": 17.9224,
      "duration": 0.0416,
      "velocity": 103,
      "chip": "ym2612"
    },
    {
      "channel": 4,
      "note": 73,
      "start": 17.9239,
      "duration": 0.0402,
      "velocity": 103,
      "chip": "ym2612"
    },
    {
      "channel": 0,
      "note": 81,
      "start": 17.9737,
      "duration": 0.0471,
      "velocity": 103,
      "chip": "ym2612"
    },
    {
      "channel": 3,
      "note": 80,
      "start": 17.9754,
      "duration": 0.0456,
      "velocity": 103,
      "chip": "ym2612"
    },
    {
      "channel": 1,
      "note": 74,
      "start": 17.9771,
      "duration": 0.044,
      "velocity": 103,
      "chip": "ym2612"
    },
    {
      "channel": 4,
      "note": 73,
      "start": 17.9788,
      "duration": 0.0425,
      "velocity": 103,
      "chip": "ym2612"
    },
    {
      "channel": 2,
      "note": 93,
      "start": 17.9805,
      "duration": 0.071,
      "velocity": 95,
      "chip": "ym2612"
    },
    {
      "channel": 5,
      "note": 42,
      "start": 17.983,
      "duration": 0.0904,
      "velocity": 107,
      "chip": "ym2612"
    },
    {
      "channel": 0,
      "note": 88,
      "start": 18.0283,
      "duration": 0.044,
      "velocity": 103,
      "chip": "ym2612"
    },
    {
      "channel": 3,
      "note": 87,
      "start": 18.0298,
      "duration": 0.0427,
      "velocity": 103,
      "chip": "ym2612"
    },
    {
      "channel": 1,
      "note": 81,
      "start": 18.0313,
      "duration": 0.0413,
      "velocity": 103,
      "chip": "ym2612"
    },
    {
      "channel": 4,
      "note": 80,
      "start": 18.0328,
      "duration": 0.04,
      "velocity": 103,
      "chip": "ym2612"
    },
    {
      "channel": 0,
      "note": 88,
      "start": 18.0811,
      "duration": 0.0485,
      "velocity": 103,
      "chip": "ym2612"
    },
    {
      "channel": 3,
      "note": 87,
      "start": 18.0827,
      "duration": 0.047,
      "velocity": 103,
      "chip": "ym2612"
    },
    {
      "channel": 1,
      "note": 81,
      "start": 18.0844,
      "duration": 0.0454,
      "velocity": 103,
      "chip": "ym2612"
    },
    {
      "channel": 4,
      "note": 80,
      "start": 18.0868,
      "duration": 0.0432,
      "velocity": 103,
      "chip": "ym2612"
    },
    {
      "channel": 2,
      "note": 93,
      "start": 18.0884,
      "duration": 0.0717,
      "velocity": 95,
      "chip": "ym2612"
    },
    {
      "channel": 5,
      "note": 65,
      "start": 18.09,
      "duration": 0.0921,
      "velocity": 107,
      "chip": "ym2612"
    },
    {
      "channel": 0,
      "note": 93,
      "start": 18.1376,
      "duration": 0.0434,
      "velocity": 103,
      "chip": "ym2612"
    },
    {
      "channel": 3,
      "note": 92,
      "start": 18.1391,
      "duration": 0.042,
      "velocity": 103,
      "chip": "ym2612"
    },
    {
      "channel": 1,
      "note": 86,
      "start": 18.1405,
      "duration": 0.0408,
      "velocity": 103,
      "chip": "ym2612"
    },
    {
      "channel": 4,
      "note": 85,
      "start": 18.1421,
      "duration": 0.0394,
      "velocity": 103,
      "chip": "ym2612"
    },
    {
      "channel": 0,
      "note": 93,
      "start": 18.1903,
      "duration": 0.0478,
      "velocity": 103,
      "chip": "ym2612"
    },
    {
      "channel": 3,
      "note": 92,
      "start": 18.192,
      "duration": 0.0463,
      "velocity": 103,
      "chip": "ym2612"
    },
    {
      "channel": 1,
      "note": 86,
      "start": 18.1937,
      "duration": 0.0447,
      "velocity": 103,
      "chip": "ym2612"
    },
    {
      "channel": 4,
      "note": 85,
      "start": 18.1954,
      "duration": 0.0432,
      "velocity": 103,
      "chip": "ym2612"
    },
    {
      "channel": 2,
      "note": 93,
      "start": 18.198,
      "duration": 0.0922,
      "velocity": 127,
      "chip": "ym2612"
    },
    {
      "channel": 5,
      "note": 61,
      "start": 18.1998,
      "duration": 0.0907,
      "velocity": 107,
      "chip": "ym2612"
    },
    {
      "channel": 0,
      "note": 100,
      "start": 18.2456,
      "duration": 0.0439,
      "velocity": 103,
      "chip": "ym2612"
    },
    {
      "channel": 3,
      "note": 99,
      "start": 18.2471,
      "duration": 0.0427,
      "velocity": 103,
      "chip": "ym2612"
    },
    {
      "channel": 1,
      "note": 93,
      "start": 18.2486,
      "duration": 0.0413,
      "velocity": 103,
      "chip": "ym2612"
    },
    {
      "channel": 4,
      "note": 92,
      "start": 18.2501,
      "duration": 0.04,
      "velocity": 103,
      "chip": "ym2612"
    },
    {
      "channel": 0,
      "note": 100,
      "start": 18.2971,
      "duration": 0.0497,
      "velocity": 103,
      "chip": "ym2612"
    },
    {
      "channel": 3,
      "note": 99,
      "start": 18.2989,
      "duration": 0.0481,
      "velocity": 103,
      "chip": "ym2612"
    },
    {
      "channel": 1,
      "note": 93,
      "start": 18.3005,
      "duration": 0.0466,
      "velocity": 103,
      "chip": "ym2612"
    },
    {
      "channel": 4,
      "note": 92,
      "start": 18.3029,
      "duration": 0.0444,
      "velocity": 103,
      "chip": "ym2612"
    },
    {
      "channel": 5,
      "note": 57,
      "start": 18.306,
      "duration": 0.0719,
      "velocity": 127,
      "chip": "ym2612"
    },
    {
      "channel": 0,
      "note": 105,
      "start": 18.3546,
      "duration": 0.0436,
      "velocity": 103,
      "chip": "ym2612"
    },
    {
      "channel": 3,
      "note": 104,
      "start": 18.3562,
      "duration": 0.0422,
      "velocity": 103,
      "chip": "ym2612"
    },
    {
      "channel": 1,
      "note": 98,
      "start": 18.3576,
      "duration": 0.0409,
      "velocity": 103,
      "chip": "ym2612"
    },
    {
      "channel": 4,
      "note": 97,
      "start": 18.3592,
      "duration": 0.0395,
      "velocity": 103,
      "chip": "ym2612"
    },
    {
      "channel": 0,
      "note": 105,
      "start": 18.4088,
      "duration": 0.0466,
      "velocity": 103,
      "chip": "ym2612"
    },
    {
      "channel": 3,
      "note": 104,
      "start": 18.4105,
      "duration": 0.0451,
      "velocity": 103,
      "chip": "ym2612"
    },
    {
      "channel": 1,
      "note": 98,
      "start": 18.4122,
      "duration": 0.0435,
      "velocity": 103,
      "chip": "ym2612"
    },
    {
      "channel": 4,
      "note": 97,
      "start": 18.4139,
      "duration": 0.042,
      "velocity": 103,
      "chip": "ym2612"
    },
    {
      "channel": 2,
      "note": 90,
      "start": 18.4166,
      "duration": 0.0701,
      "velocity": 95,
      "chip": "ym2612"
    },
    {
      "channel": 5,
      "note": 42,
      "start": 18.4198,
      "duration": 0.0882,
      "velocity": 127,
      "chip": "ym2612"
    },
    {
      "channel": 0,
      "note": 76,
      "start": 18.4627,
      "duration": 0.0442,
      "velocity": 103,
      "chip": "ym2612"
    },
    {
      "channel": 3,
      "note": 75,
      "start": 18.4642,
      "duration": 0.0429,
      "velocity": 103,
      "chip": "ym2612"
    },
    {
      "channel": 1,
      "note": 69,
      "start": 18.4657,
      "duration": 0.0415,
      "velocity": 103,
      "chip": "ym2612"
    },
    {
      "channel": 4,
      "note": 68,
      "start": 18.4672,
      "duration": 0.0402,
      "velocity": 103,
      "chip": "ym2612"
    },
    {
      "channel": 0,
      "note": 76,
      "start": 18.5157,
      "duration": 0.0484,
      "velocity": 103,
      "chip": "ym2612"
    },
    {
      "channel": 3,
      "note": 75,
      "start": 18.5173,
      "duration": 0.0469,
      "velocity": 103,
      "chip": "ym2612"
    },
    {
      "channel": 1,
      "note": 69,
      "start": 18.5197,
      "duration": 0.0447,
      "velocity": 103,
      "chip": "ym2612"
    },
    {
      "channel": 4,
      "note": 68,
      "start": 18.5213,
      "duration": 0.0433,
      "velocity": 103,
      "chip": "ym2612"
    },
    {
      "channel": 2,
      "note": 93,
      "start": 18.523,
      "duration": 0.0716,
      "velocity": 95,
      "chip": "ym2612"
    },
    {
      "channel": 5,
      "note": 25,
      "start": 18.5245,
      "duration": 0.0922,
      "velocity": 127,
      "chip": "ym2612"
    },
    {
      "channel": 0,
      "note": 81,
      "start": 18.572,
      "duration": 0.0436,
      "velocity": 103,
      "chip": "ym2612"
    },
    {
      "channel": 3,
      "note": 80,
      "start": 18.5734,
      "duration": 0.0423,
      "velocity": 103,
      "chip": "ym2612"
    },
    {
      "channel": 1,
      "note": 74,
      "start": 18.5749,
      "duration": 0.0409,
      "velocity": 103,
      "chip": "ym2612"
    },
    {
      "channel": 4,
      "note": 73,
      "start": 18.5764,
      "duration": 0.0396,
      "velocity": 103,
      "chip": "ym2612"
    },
    {
      "channel": 0,
      "note": 81,
      "start": 18.6249,
      "duration": 0.0478,
      "velocity": 103,
      "chip": "ym2612"
    },
    {
      "channel": 3,
      "note": 80,
      "start": 18.6266,
      "duration": 0.0463,
      "velocity": 103,
      "chip": "ym2612"
    },
    {
      "channel": 1,
      "note": 74,
      "start": 18.6283,
      "duration": 0.0448,
      "velocity": 103,
      "chip": "ym2612"
    },
    {
      "channel": 4,
      "note": 73,
      "start": 18.63,
      "duration": 0.0432,
      "velocity": 103,
      "chip": "ym2612"
    },
    {
      "channel": 2,
      "note": 93,
      "start": 18.6327,
      "duration": 0.0922,
      "velocity": 127,
      "chip": "ym2612"
    },
    {
      "channel": 5,
      "note": 25,
      "start": 18.6344,
      "duration": 0.0906,
      "velocity": 127,
      "chip": "ym2612"
    },
    {
      "channel": 0,
      "note": 88,
      "start": 18.68,
      "duration": 0.0442,
      "velocity": 103,
      "chip": "ym2612"
    },
    {
      "channel": 3,
      "note": 87,
      "start": 18.6814,
      "duration": 0.0429,
      "velocity": 103,
      "chip": "ym2612"
    },
    {
      "channel": 1,
      "note": 81,
      "start": 18.683,
      "duration": 0.0415,
      "velocity": 103,
      "chip": "ym2612"
    },
    {
      "channel": 4,
      "note": 80,
      "start": 18.6844,
      "duration": 0.0402,
      "velocity": 103,
      "chip": "ym2612"
    },
    {
      "channel": 0,
      "note": 88,
      "start": 18.7317,
      "duration": 0.0439,
      "velocity": 103,
      "chip": "ym2612"
    },
    {
      "channel": 3,
      "note": 87,
      "start": 18.7334,
      "duration": 0.0424,
      "velocity": 103,
      "chip": "ym2612"
    },
    {
      "channel": 1,
      "note": 81,
      "start": 18.7351,
      "duration": 0.0409,
      "velocity": 103,
      "chip": "ym2612"
    },
    {
      "channel": 4,
      "note": 80,
      "start": 18.7374,
      "duration": 0.0388,
      "velocity": 103,
      "chip": "ym2612"
    },
    {
      "channel": 5,
      "note": 25,
      "start": 18.7396,
      "duration": 0.0887,
      "velocity": 127,
      "chip": "ym2612"
    },
    {
      "channel": 0,
      "note": 93,
      "start": 18.7829,
      "duration": 0.0442,
      "velocity": 103,
      "chip": "ym2612"
    },
    {
      "channel": 3,
      "note": 92,
      "start": 18.7844,
      "duration": 0.0429,
      "velocity": 103,
      "chip": "ym2612"
    },
    {
      "channel": 1,
      "note": 86,
      "start": 18.7865,
      "duration": 0.0409,
      "velocity": 103,
      "chip": "ym2612"
    },
    {
      "channel": 4,
      "note": 85,
      "start": 18.788,
      "duration": 0.0396,
      "velocity": 103,
      "chip": "ym2612"
    },
    {
      "channel": 0,
      "note": 93,
      "start": 18.8365,
      "duration": 0.0478,
      "velocity": 103,
      "chip": "ym2612"
    },
    {
      "channel": 3,
      "note": 92,
      "start": 18.8382,
      "duration": 0.0463,
      "velocity": 103,
      "chip": "ym2612"
    },
    {
      "channel": 1,
      "note": 86,
      "start": 18.8399,
      "duration": 0.0447,
      "velocity": 103,
      "chip": "ym2612"
    },
    {
      "channel": 4,
      "note": 85,
      "start": 18.8415,
      "duration": 0.0433,
      "velocity": 103,
      "chip": "ym2612"
    },
    {
      "channel": 2,
      "note": 90,
      "start": 18.8442,
      "duration": 0.0707,
      "velocity": 95,
      "chip": "ym2612"
    },
    {
      "channel": 5,
      "note": 25,
      "start": 18.8468,
      "duration": 0.0682,
      "velocity": 127,
      "chip": "ym2612"
    },
    {
      "channel": 0,
      "note": 100,
      "start": 18.8922,
      "duration": 0.0441,
      "velocity": 103,
      "chip": "ym2612"
    },
    {
      "channel": 3,
      "note": 99,
      "start": 18.8937,
      "duration": 0.0427,
      "velocity": 103,
      "chip": "ym2612"
    },
    {
      "channel": 1,
      "note": 93,
      "start": 18.8952,
      "duration": 0.0414,
      "velocity": 103,
      "chip": "ym2612"
    },
    {
      "channel": 4,
      "note": 92,
      "start": 18.8966,
      "duration": 0.0401,
      "velocity": 103,
      "chip": "ym2612"
    },
    {
      "channel": 0,
      "note": 100,
      "start": 18.9445,
      "duration": 0.0485,
      "velocity": 103,
      "chip": "ym2612"
    },
    {
      "channel": 3,
      "note": 99,
      "start": 18.9461,
      "duration": 0.047,
      "velocity": 103,
      "chip": "ym2612"
    },
    {
      "channel": 1,
      "note": 93,
      "start": 18.9478,
      "duration": 0.0454,
      "velocity": 103,
      "chip": "ym2612"
    },
    {
      "channel": 4,
      "note": 92,
      "start": 18.9496,
      "duration": 0.0438,
      "velocity": 103,
      "chip": "ym2612"
    },
    {
      "channel": 2,
      "note": 93,
      "start": 18.9512,
      "duration": 0.0723,
      "velocity": 95,
      "chip": "ym2612"
    },
    {
      "channel": 0,
      "note": 105,
      "start": 19.0002,
      "duration": 0.0442,
      "velocity": 103,
      "chip": "ym2612"
    },
    {
      "channel": 3,
      "note": 104,
      "start": 19.0017,
      "duration": 0.0429,
      "velocity": 103,
      "chip": "ym2612"
    },
    {
      "channel": 1,
      "note": 98,
      "start": 19.0038,
      "duration": 0.0409,
      "velocity": 103,
      "chip": "ym2612"
    },
    {
      "channel": 4,
      "note": 97,
      "start": 19.0053,
      "duration": 0.0396,
      "velocity": 103,
      "chip": "ym2612"
    },
    {
      "channel": 0,
      "note": 105,
      "start": 19.0541,
      "duration": 0.0475,
      "velocity": 103,
      "chip": "ym2612"
    },
    {
      "channel": 3,
      "note": 104,
      "start": 19.0558,
      "duration": 0.0459,
      "velocity": 103,
      "chip": "ym2612"
    },
    {
      "channel": 1,
      "note": 98,
      "start": 19.0575,
      "duration": 0.0443,
      "velocity": 103,
      "chip": "ym2612"
    },
    {
      "channel": 4,
      "note": 97,
      "start": 19.0592,
      "duration": 0.0431,
      "velocity": 103,
      "chip": "ym2612"
    },
    {
      "channel": 2,
      "note": 93,
      "start": 19.0618,
      "duration": 0.0918,
      "velocity": 127,
      "chip": "ym2612"
    },
    {
      "channel": 5,
      "note": 42,
      "start": 19.0644,
      "duration": 0.0894,
      "velocity": 127,
      "chip": "ym2612"
    },
    {
      "channel": 0,
      "note": 112,
      "start": 19.1094,
      "duration": 0.0436,
      "velocity": 103,
      "chip": "ym2612"
    },
    {
      "channel": 3,
      "note": 111,
      "start": 19.111,
      "duration": 0.0422,
      "velocity": 103,
      "chip": "ym2612"
    },
    {
      "channel": 1,
      "note": 105,
      "start": 19.1124,
      "duration": 0.041,
      "velocity": 103,
      "chip": "ym2612"
    },
    {
      "channel": 4,
      "note": 104,
      "start": 19.1139,
      "duration": 0.0396,
      "velocity": 103,
      "chip": "ym2612"
    },
    {
      "channel": 0,
      "note": 112,
      "start": 19.1606,
      "duration": 0.044,
      "velocity": 103,
      "chip": "ym2612"
    },
    {
      "channel": 3,
      "note": 111,
      "start": 19.1622,
      "duration": 0.0424,
      "velocity": 103,
      "chip": "ym2612"
    },
    {
      "channel": 1,
      "note": 105,
      "start": 19.1639,
      "duration": 0.0409,
      "velocity": 103,
      "chip": "ym2612"
    },
    {
      "channel": 4,
      "note": 104,
      "start": 19.1657,
      "duration": 0.0393,
      "velocity": 103,
      "chip": "ym2612"
    },
    {
      "channel": 5,
      "note": 25,
      "start": 19.1678,
      "duration": 0.0893,
      "velocity": 127,
      "chip": "ym2612"
    },
    {
      "channel": 0,
      "note": 117,
      "start": 19.2118,
      "duration": 0.0442,
      "velocity": 103,
      "chip": "ym2612"
    },
    {
      "channel": 3,
      "note": 116,
      "start": 19.2132,
      "duration": 0.0429,
      "velocity": 103,
      "chip": "ym2612"
    },
    {
      "channel": 1,
      "note": 110,
      "start": 19.2148,
      "duration": 0.0415,
      "velocity": 103,
      "chip": "ym2612"
    },
    {
      "channel": 4,
      "note": 109,
      "start": 19.2162,
      "duration": 0.0402,
      "velocity": 103,
      "chip": "ym2612"
    },
    {
      "channel": 0,
      "note": 117,
      "start": 19.266,
      "duration": 0.1022,
      "velocity": 102,
      "chip": "ym2612"
    },
    {
      "channel": 3,
      "note": 116,
      "start": 19.2678,
      "duration": 0.0288,
      "velocity": 103,
      "chip": "ym2612"
    },
    {
      "channel": 2,
      "note": 90,
      "start": 19.2722,
      "duration": 0.0716,
      "velocity": 95,
      "chip": "ym2612"
    },
    {
      "channel": 1,
      "note": 110,
      "start": 19.3041,
      "duration": 0.0272,
      "velocity": 103,
      "chip": "ym2612"
    },
    {
      "channel": 4,
      "note": 109,
      "start": 19.3387,
      "duration": 0.0374,
      "velocity": 103,
      "chip": "ym2612"
    },
    {
      "channel": 0,
      "note": 37,
      "start": 19.373,
      "duration": 0.0945,
      "velocity": 102,
      "chip": "ym2612"
    },
    {
      "channel": 3,
      "note": 109,
      "start": 19.3748,
      "duration": 0.0247,
      "velocity": 103,
      "chip": "ym2612"
    },
    {
      "channel": 2,
      "note": 93,
      "start": 19.3771,
      "duration": 0.0697,
      "velocity": 95,
      "chip": "ym2612"
    },
    {
      "channel": 1,
      "note": 109,
      "start": 19.4064,
      "duration": 0.0278,
      "velocity": 103,
      "chip": "ym2612"
    },
    {
      "channel": 4,
      "note": 107,
      "start": 19.4413,
      "duration": 0.0276,
      "velocity": 103,
      "chip": "ym2612"
    },
    {
      "channel": 0,
      "note": 45,
      "start": 19.4755,
      "duration": 0.0982,
      "velocity": 102,
      "chip": "ym2612"
    },
    {
      "channel": 3,
      "note": 107,
      "start": 19.4772,
      "duration": 0.0309,
      "velocity": 103,
      "chip": "ym2612"
    },
    {
      "channel": 2,
      "note": 93,
      "start": 19.4809,
      "duration": 0.1987,
      "velocity": 127,
      "chip": "ym2612"
    },
    {
      "channel": 1,
      "note": 105,
      "start": 19.5091,
      "duration": 0.0282,
      "velocity": 103,
      "chip": "ym2612"
    },
    {
      "channel": 4,
      "note": 105,
      "start": 19.5442,
      "duration": 0.0277,
      "velocity": 103,
      "chip": "ym2612"
    },
    {
      "channel": 0,
      "note": 37,
      "start": 19.5771,
      "duration": 0.0997,
      "velocity": 102,
      "chip": "ym2612"
    },
    {
      "channel": 3,
      "note": 103,
      "start": 19.5787,
      "duration": 0.0323,
      "velocity": 103,
      "chip": "ym2612"
    },
    {
      "channel": 1,
      "note": 103,
      "start": 19.612,
      "duration": 0.0281,
      "velocity": 103,
      "chip": "ym2612"
    },
    {
      "channel": 4,
      "note": 101,
      "start": 19.6471,
      "duration": 0.0277,
      "velocity": 103,
      "chip": "ym2612"
    },
    {
      "channel": 0,
      "note": 45,
      "start": 19.6812,
      "duration": 0.0985,
      "velocity": 102,
      "chip": "ym2612"
    },
    {
      "channel": 3,
      "note": 101,
      "start": 19.6828,
      "duration": 0.0254,
      "velocity": 103,
      "chip": "ym2612"
    },
    {
      "channel": 2,
      "note": 90,
      "start": 19.6872,
      "duration": 0.0683,
      "velocity": 95,
      "chip": "ym2612"
    },
    {
      "channel": 1,
      "note": 99,
      "start": 19.7153,
      "duration": 0.0334,
      "velocity": 103,
      "chip": "ym2612"
    },
    {
      "channel": 4,
      "note": 99,
      "start": 19.7497,
      "duration": 0.0281,
      "velocity": 103,
      "chip": "ym2612"
    },
    {
      "channel": 0,
      "note": 53,
      "start": 19.7839,
      "duration": 0.1011,
      "velocity": 102,
      "chip": "ym2612"
    },
    {
      "channel": 3,
      "note": 97,
      "start": 19.7861,
      "duration": 0.025,
      "velocity": 103,
      "chip": "ym2612"
    },
    {
      "channel": 2,
      "note": 93,
      "start": 19.7889,
      "duration": 0.0695,
      "velocity": 95,
      "chip": "ym2612"
    },
    {
      "channel": 1,
      "note": 97,
      "start": 19.8182,
      "duration": 0.0277,
      "velocity": 103,
      "chip": "ym2612"
    },
    {
      "channel": 4,
      "note": 95,
      "start": 19.8536,
      "duration": 0.0332,
      "velocity": 103,
      "chip": "ym2612"
    },
    {
      "channel": 0,
      "note": 48,
      "start": 19.9052,
      "duration": 0.0984,
      "velocity": 102,
      "chip": "ym2612"
    },
    {
      "channel": 3,
      "note": 95,
      "start": 19.9069,
      "duration": 0.0244,
      "velocity": 103,
      "chip": "ym2612"
    },
    {
      "channel": 2,
      "note": 93,
      "start": 19.9106,
      "duration": 0.1988,
      "velocity": 127,
      "chip": "ym2612"
    },
    {
      "channel": 1,
      "note": 93,
      "start": 19.9383,
      "duration": 0.0277,
      "velocity": 103,
      "chip": "ym2612"
    },
    {
      "channel": 4,
      "note": 93,
      "start": 19.973,
      "duration": 0.0368,
      "velocity": 103,
      "chip": "ym2612"
    },
    {
      "channel": 0,
      "note": 37,
      "start": 20.0068,
      "duration": 0.0997,
      "velocity": 102,
      "chip": "ym2612"
    },
    {
      "channel": 3,
      "note": 91,
      "start": 20.0085,
      "duration": 0.0257,
      "velocity": 103,
      "chip": "ym2612"
    },
    {
      "channel": 1,
      "note": 91,
      "start": 20.0412,
      "duration": 0.0284,
      "velocity": 103,
      "chip": "ym2612"
    },
    {
      "channel": 4,
      "note": 89,
      "start": 20.076,
      "duration": 0.0381,
      "velocity": 103,
      "chip": "ym2612"
    },
    {
      "channel": 0,
      "note": 45,
      "start": 20.111,
      "duration": 0.0942,
      "velocity": 102,
      "chip": "ym2612"
    },
    {
      "channel": 3,
      "note": 89,
      "start": 20.1127,
      "duration": 0.0244,
      "velocity": 103,
      "chip": "ym2612"
    },
    {
      "channel": 2,
      "note": 90,
      "start": 20.116,
      "duration": 0.0683,
      "velocity": 95,
      "chip": "ym2612"
    },
    {
      "channel": 1,
      "note": 87,
      "start": 20.1441,
      "duration": 0.0278,
      "velocity": 103,
      "chip": "ym2612"
    },
    {
      "channel": 4,
      "note": 87,
      "start": 20.179,
      "duration": 0.0274,
      "velocity": 103,
      "chip": "ym2612"
    },
    {
      "channel": 0,
      "note": 37,
      "start": 20.2124,
      "duration": 0.099,
      "velocity": 102,
      "chip": "ym2612"
    },
    {
      "channel": 3,
      "note": 85,
      "start": 20.214,
      "duration": 0.0317,
      "velocity": 103,
      "chip": "ym2612"
    },
    {
      "channel": 2,
      "note": 93,
      "start": 20.2167,
      "duration": 0.0711,
      "velocity": 95,
      "chip": "ym2612"
    },
    {
      "channel": 1,
      "note": 85,
      "start": 20.2467,
      "duration": 0.0281,
      "velocity": 103,
      "chip": "ym2612"
    },
    {
      "channel": 4,
      "note": 83,
      "start": 20.2819,
      "duration": 0.0277,
      "velocity": 103,
      "chip": "ym2612"
    },
    {
      "channel": 0,
      "note": 45,
      "start": 20.3158,
      "duration": 0.0985,
      "velocity": 102,
      "chip": "ym2612"
    },
    {
      "channel": 3,
      "note": 83,
      "start": 20.3174,
      "duration": 0.0312,
      "velocity": 103,
      "chip": "ym2612"
    },
    {
      "channel": 2,
      "note": 93,
      "start": 20.3218,
      "duration": 0.2002,
      "velocity": 127,
      "chip": "ym2612"
    },
    {
      "channel": 1,
      "note": 81,
      "start": 20.3496,
      "duration": 0.0281,
      "velocity": 103,
      "chip": "ym2612"
    },
    {
      "channel": 4,
      "note": 81,
      "start": 20.3848,
      "duration": 0.0277,
      "velocity": 103,
      "chip": "ym2612"
    },
    {
      "channel": 0,
      "note": 53,
      "start": 20.4176,
      "duration": 0.0999,
      "velocity": 102,
      "chip": "ym2612"
    },
    {
      "channel": 3,
      "note": 79,
      "start": 20.4199,
      "duration": 0.0259,
      "velocity": 103,
      "chip": "ym2612"
    },
    {
      "channel": 1,
      "note": 79,
      "start": 20.4535,
      "duration": 0.0335,
      "velocity": 103,
      "chip": "ym2612"
    },
    {
      "channel": 4,
      "note": 77,
      "start": 20.488,
      "duration": 0.0275,
      "velocity": 103,
      "chip": "ym2612"
    },
    {
      "channel": 0,
      "note": 48,
      "start": 20.5236,
      "duration": 0.099,
      "velocity": 102,
      "chip": "ym2612"
    },
    {
      "channel": 3,
      "note": 77,
      "start": 20.5253,
      "duration": 0.0235,
      "velocity": 103,
      "chip": "ym2612"
    },
    {
      "channel": 2,
      "note": 90,
      "start": 20.529,
      "duration": 0.0671,
      "velocity": 95,
      "chip": "ym2612"
    },
    {
      "channel": 1,
      "note": 75,
      "start": 20.5559,
      "duration": 0.0334,
      "velocity": 103,
      "chip": "ym2612"
    },
    {
      "channel": 4,
      "note": 75,
      "start": 20.6078,
      "duration": 0.0283,
      "velocity": 103,
      "chip": "ym2612"
    },
    {
      "channel": 0,
      "note": 37,
      "start": 20.6422,
      "duration": 0.0981,
      "velocity": 102,
      "chip": "ym2612"
    },
    {
      "channel": 3,
      "note": 61,
      "start": 20.6438,
      "duration": 0.0256,
      "velocity": 103,
      "chip": "ym2612"
    },
    {
      "channel": 2,
      "note": 93,
      "start": 20.6466,
      "duration": 0.0695,
      "velocity": 95,
      "chip": "ym2612"
    },
    {
      "channel": 1,
      "note": 61,
      "start": 20.6759,
      "duration": 0.0335,
      "velocity": 103,
      "chip": "ym2612"
    },
    {
      "channel": 4,
      "note": 59,
      "start": 20.7104,
      "duration": 0.0281,
      "velocity": 103,
      "chip": "ym2612"
    },
    {
      "channel": 0,
      "note": 45,
      "start": 20.7447,
      "duration": 0.0988,
      "velocity": 102,
      "chip": "ym2612"
    },
    {
      "channel": 3,
      "note": 59,
      "start": 20.7463,
      "duration": 0.0254,
      "velocity": 103,
      "chip": "ym2612"
    },
    {
      "channel": 2,
      "note": 93,
      "start": 20.75,
      "duration": 0.1985,
      "velocity": 127,
      "chip": "ym2612"
    },
    {
      "channel": 1,
      "note": 57,
      "start": 20.7788,
      "duration": 0.0277,
      "velocity": 103,
      "chip": "ym2612"
    },
    {
      "channel": 4,
      "note": 57,
      "start": 20.8136,
      "duration": 0.0361,
      "velocity": 103,
      "chip": "ym2612"
    },
    {
      "channel": 0,
      "note": 37,
      "start": 20.8467,
      "duration": 0.0961,
      "velocity": 102,
      "chip": "ym2612"
    },
    {
      "channel": 3,
      "note": 55,
      "start": 20.8484,
      "duration": 0.0263,
      "velocity": 103,
      "chip": "ym2612"
    },
    {
      "channel": 1,
      "note": 55,
      "start": 20.8817,
      "duration": 0.0278,
      "velocity": 103,
      "chip": "ym2612"
    },
    {
      "channel": 4,
      "note": 53,
      "start": 20.9166,
      "duration": 0.0274,
      "velocity": 103,
      "chip": "ym2612"
    },
    {
      "channel": 0,
      "note": 45,
      "start": 20.9502,
      "duration": 0.0988,
      "velocity": 102,
      "chip": "ym2612"
    },
    {
      "channel": 3,
      "note": 53,
      "start": 20.9519,
      "duration": 0.0314,
      "velocity": 103,
      "chip": "ym2612"
    },
    {
      "channel": 2,
      "note": 90,
      "start": 20.9562,
      "duration": 0.0687,
      "velocity": 95,
      "chip": "ym2612"
    },
    {
      "channel": 1,
      "note": 51,
      "start": 20.9843,
      "duration": 0.0282,
      "velocity": 103,
      "chip": "ym2612"
    },
    {
      "channel": 4,
      "note": 51,
      "start": 21.0201,
      "duration": 0.0271,
      "velocity": 103,
      "chip": "ym2612"
    },
    {
      "channel": 0,
      "note": 53,
      "start": 21.0538,
      "duration": 0.0989,
      "velocity": 102,
      "chip": "ym2612"
    },
    {
      "channel": 3,
      "note": 49,
      "start": 21.0556,
      "duration": 0.0312,
      "velocity": 103,
      "chip": "ym2612"
    },
    {
      "channel": 2,
      "note": 93,
      "start": 21.0582,
      "duration": 0.0696,
      "velocity": 95,
      "chip": "ym2612"
    },
    {
      "channel": 1,
      "note": 49,
      "start": 21.0877,
      "duration": 0.0277,
      "velocity": 103,
      "chip": "ym2612"
    },
    {
      "channel": 4,
      "note": 47,
      "start": 21.1224,
      "duration": 0.0278,
      "velocity": 103,
      "chip": "ym2612"
    },
    {
      "channel": 0,
      "note": 48,
      "start": 21.1571,
      "duration": 0.0984,
      "velocity": 102,
      "chip": "ym2612"
    },
    {
      "channel": 3,
      "note": 47,
      "start": 21.1588,
      "duration": 0.0246,
      "velocity": 103,
      "chip": "ym2612"
    },
    {
      "channel": 2,
      "note": 93,
      "start": 21.1625,
      "duration": 0.1994,
      "velocity": 127,
      "chip": "ym2612"
    },
    {
      "channel": 1,
      "note": 45,
      "start": 21.1905,
      "duration": 0.0335,
      "velocity": 103,
      "chip": "ym2612"
    },
    {
      "channel": 4,
      "note": 45,
      "start": 21.225,
      "duration": 0.0288,
      "velocity": 103,
      "chip": "ym2612"
    },
    {
      "channel": 0,
      "note": 37,
      "start": 21.2587,
      "duration": 0.1015,
      "velocity": 102,
      "chip": "ym2612"
    },
    {
      "channel": 3,
      "note": 43,
      "start": 21.2605,
      "duration": 0.0264,
      "velocity": 103,
      "chip": "ym2612"
    },
    {
      "channel": 1,
      "note": 43,
      "start": 21.2935,
      "duration": 0.0334,
      "velocity": 103,
      "chip": "ym2612"
    },
    {
      "channel": 4,
      "note": 41,
      "start": 21.3454,
      "duration": 0.0278,
      "velocity": 103,
      "chip": "ym2612"
    },
    {
      "channel": 0,
      "note": 45,
      "start": 21.3795,
      "duration": 0.0984,
      "velocity": 102,
      "chip": "ym2612"
    },
    {
      "channel": 3,
      "note": 41,
      "start": 21.3812,
      "duration": 0.0253,
      "velocity": 103,
      "chip": "ym2612"
    },
    {
      "channel": 2,
      "note": 90,
      "start": 21.3849,
      "duration": 0.0695,
      "velocity": 95,
      "chip": "ym2612"
    },
    {
      "channel": 1,
      "note": 39,
      "start": 21.4136,
      "duration": 0.0346,
      "velocity": 103,
      "chip": "ym2612"
    },
    {
      "channel": 4,
      "note": 39,
      "start": 21.4153,
      "duration": 0.0331,
      "velocity": 103,
      "chip": "ym2612"
    },
    {
      "channel": 3,
      "note": 37,
      "start": 21.4473,
      "duration": 0.0277,
      "velocity": 103,
      "chip": "ym2612"
    },
    {
      "channel": 0,
      "note": 37,
      "start": 21.4821,
      "duration": 0.099,
      "velocity": 102,
      "chip": "ym2612"
    },
    {
      "channel": 1,
      "note": 37,
      "start": 21.4843,
      "duration": 0.0256,
      "velocity": 103,
      "chip": "ym2612"
    },
    {
      "channel": 2,
      "note": 93,
      "start": 21.4871,
      "duration": 0.0696,
      "velocity": 95,
      "chip": "ym2612"
    },
    {
      "channel": 4,
      "note": 39,
      "start": 21.517,
      "duration": 0.0277,
      "velocity": 103,
      "chip": "ym2612"
    },
    {
      "channel": 3,
      "note": 41,
      "start": 21.5503,
      "duration": 0.0367,
      "velocity": 103,
      "chip": "ym2612"
    },
    {
      "channel": 0,
      "note": 45,
      "start": 21.5861,
      "duration": 0.098,
      "velocity": 102,
      "chip": "ym2612"
    },
    {
      "channel": 1,
      "note": 41,
      "start": 21.5879,
      "duration": 0.0249,
      "velocity": 103,
      "chip": "ym2612"
    },
    {
      "channel": 2,
      "note": 93,
      "start": 21.5911,
      "duration": 0.1998,
      "velocity": 127,
      "chip": "ym2612"
    },
    {
      "channel": 4,
      "note": 43,
      "start": 21.6205,
      "duration": 0.0272,
      "velocity": 103,
      "chip": "ym2612"
    },
    {
      "channel": 3,
      "note": 43,
      "start": 21.6538,
      "duration": 0.035,
      "velocity": 103,
      "chip": "ym2612"
    },
    {
      "channel": 0,
      "note": 53,
      "start": 21.6879,
      "duration": 0.0955,
      "velocity": 102,
      "chip": "ym2612"
    },
    {
      "channel": 1,
      "note": 45,
      "start": 21.6898,
      "duration": 0.026,
      "velocity": 103,
      "chip": "ym2612"
    },
    {
      "channel": 4,
      "note": 45,
      "start": 21.7228,
      "duration": 0.0278,
      "velocity": 103,
      "chip": "ym2612"
    },
    {
      "channel": 3,
      "note": 47,
      "start": 21.7561,
      "duration": 0.0274,
      "velocity": 103,
      "chip": "ym2612"
    },
    {
      "channel": 0,
      "note": 48,
      "start": 21.7926,
      "duration": 0.0971,
      "velocity": 102,
      "chip": "ym2612"
    },
    {
      "channel": 1,
      "note": 47,
      "start": 21.7947,
      "duration": 0.0298,
      "velocity": 103,
      "chip": "ym2612"
    },
    {
      "channel": 2,
      "note": 90,
      "start": 21.7979,
      "duration": 0.0676,
      "velocity": 95,
      "chip": "ym2612"
    },
    {
      "channel": 4,
      "note": 49,
      "start": 21.8255,
      "duration": 0.0287,
      "velocity": 103,
      "chip": "ym2612"
    },
    {
      "channel": 3,
      "note": 49,
      "start": 21.859,
      "duration": 0.0278,
      "velocity": 103,
      "chip": "ym2612"
    },
    {
      "channel": 0,
      "note": 37,
      "start": 21.8938,
      "duration": 0.0987,
      "velocity": 102,
      "chip": "ym2612"
    },
    {
      "channel": 1,
      "note": 51,
      "start": 21.896,
      "duration": 0.0314,
      "velocity": 103,
      "chip": "ym2612"
    },
    {
      "channel": 2,
      "note": 93,
      "start": 21.8982,
      "duration": 0.0702,
      "velocity": 95,
      "chip": "ym2612"
    },
    {
      "channel": 4,
      "note": 51,
      "start": 21.9283,
      "duration": 0.0281,
      "velocity": 103,
      "chip": "ym2612"
    },
    {
      "channel": 3,
      "note": 53,
      "start": 21.962,
      "duration": 0.0277,
      "velocity": 103,
      "chip": "ym2612"
    },
    {
      "channel": 0,
      "note": 45,
      "start": 21.997,
      "duration": 0.101,
      "velocity": 102,
      "chip": "ym2612"
    },
    {
      "channel": 1,
      "note": 53,
      "start": 21.9991,
      "duration": 0.0254,
      "velocity": 103,
      "chip": "ym2612"
    },
    {
      "channel": 2,
      "note": 93,
      "start": 22.0029,
      "duration": 0.2006,
      "velocity": 127,
      "chip": "ym2612"
    },
    {
      "channel": 4,
      "note": 55,
      "start": 22.0316,
      "duration": 0.0334,
      "velocity": 103,
      "chip": "ym2612"
    },
    {
      "channel": 3,
      "note": 55,
      "start": 22.0821,
      "duration": 0.0278,
      "velocity": 103,
      "chip": "ym2612"
    },
    {
      "channel": 0,
      "note": 37,
      "start": 22.1159,
      "duration": 0.0996,
      "velocity": 102,
      "chip": "ym2612"
    },
    {
      "channel": 1,
      "note": 57,
      "start": 22.1181,
      "duration": 0.0266,
      "velocity": 103,
      "chip": "ym2612"
    },
    {
      "channel": 4,
      "note": 57,
      "start": 22.1517,
      "duration": 0.0353,
      "velocity": 103,
      "chip": "ym2612"
    },
    {
      "channel": 3,
      "note": 59,
      "start": 22.185,
      "duration": 0.0278,
      "velocity": 103,
      "chip": "ym2612"
    },
    {
      "channel": 0,
      "note": 45,
      "start": 22.2207,
      "duration": 0.0988,
      "velocity": 102,
      "chip": "ym2612"
    },
    {
      "channel": 1,
      "note": 59,
      "start": 22.2229,
      "duration": 0.0247,
      "velocity": 103,
      "chip": "ym2612"
    },
    {
      "channel": 2,
      "note": 90,
      "start": 22.226,
      "duration": 0.0683,
      "velocity": 95,
      "chip": "ym2612"
    },
    {
      "channel": 4,
      "note": 61,
      "start": 22.2552,
      "duration": 0.0271,
      "velocity": 103,
      "chip": "ym2612"
    },
    {
      "channel": 3,
      "note": 61,
      "start": 22.2879,
      "duration": 0.0366,
      "velocity": 103,
      "chip": "ym2612"
    },
    {
      "channel": 0,
      "note": 53,
      "start": 22.3237,
      "duration": 0.0989,
      "velocity": 102,
      "chip": "ym2612"
    },
    {
      "channel": 1,
      "note": 63,
      "start": 22.3255,
      "duration": 0.0251,
      "velocity": 103,
      "chip": "ym2612"
    },
    {
      "channel": 2,
      "note": 93,
      "start": 22.3277,
      "duration": 0.0695,
      "velocity": 95,
      "chip": "ym2612"
    },
    {
      "channel": 4,
      "note": 63,
      "start": 22.3575,
      "duration": 0.0278,
      "velocity": 103,
      "chip": "ym2612"
    },
    {
      "channel": 3,
      "note": 65,
      "start": 22.3909,
      "duration": 0.0369,
      "velocity": 103,
      "chip": "ym2612"
    },
    {
      "channel": 0,
      "note": 48,
      "start": 22.4269,
      "duration": 0.0941,
      "velocity": 102,
      "chip": "ym2612"
    },
    {
      "channel": 1,
      "note": 65,
      "start": 22.4288,
      "duration": 0.0252,
      "velocity": 103,
      "chip": "ym2612"
    },
    {
      "channel": 2,
      "note": 93,
      "start": 22.432,
      "duration": 0.1981,
      "velocity": 127,
      "chip": "ym2612"
    },
    {
      "channel": 4,
      "note": 67,
      "start": 22.4605,
      "duration": 0.0277,
      "velocity": 103,
      "chip": "ym2612"
    },
    {
      "channel": 3,
      "note": 67,
      "start": 22.4938,
      "duration": 0.0274,
      "velocity": 103,
      "chip": "ym2612"
    },
    {
      "channel": 0,
      "note": 37,
      "start": 22.5276,
      "duration": 0.0998,
      "velocity": 102,
      "chip": "ym2612"
    },
    {
      "channel": 1,
      "note": 69,
      "start": 22.5298,
      "duration": 0.0323,
      "velocity": 103,
      "chip": "ym2612"
    },
    {
      "channel": 4,
      "note": 69,
      "start": 22.5631,
      "duration": 0.0281,
      "velocity": 103,
      "chip": "ym2612"
    },
    {
      "channel": 3,
      "note": 71,
      "start": 22.5967,
      "duration": 0.0277,
      "velocity": 103,
      "chip": "ym2612"
    },
    {
      "channel": 0,
      "note": 45,
      "start": 22.6317,
      "duration": 0.0984,
      "velocity": 102,
      "chip": "ym2612"
    },
    {
      "channel": 1,
      "note": 71,
      "start": 22.6339,
      "duration": 0.031,
      "velocity": 103,
      "chip": "ym2612"
    },
    {
      "channel": 2,
      "note": 90,
      "start": 22.6377,
      "duration": 0.0683,
      "velocity": 95,
      "chip": "ym2612"
    },
    {
      "channel": 4,
      "note": 73,
      "start": 22.666,
      "duration": 0.0281,
      "velocity": 103,
      "chip": "ym2612"
    },
    {
      "channel": 3,
      "note": 73,
      "start": 22.6996,
      "duration": 0.0277,
      "velocity": 103,
      "chip": "ym2612"
    },
    {
      "channel": 0,
      "note": 37,
      "start": 22.7344,
      "duration": 0.1019,
      "velocity": 102,
      "chip": "ym2612"
    },
    {
      "channel": 1,
      "note": 75,
      "start": 22.7372,
      "duration": 0.0251,
      "velocity": 103,
      "chip": "ym2612"
    },
    {
      "channel": 2,
      "note": 93,
      "start": 22.7394,
      "duration": 0.0696,
      "velocity": 95,
      "chip": "ym2612"
    },
    {
      "channel": 4,
      "note": 75,
      "start": 22.7699,
      "duration": 0.0335,
      "velocity": 103,
      "chip": "ym2612"
    },
    {
      "channel": 3,
      "note": 77,
      "start": 22.8203,
      "duration": 0.0272,
      "velocity": 103,
      "chip": "ym2612"
    },
    {
      "channel": 0,
      "note": 45,
      "start": 22.8553,
      "duration": 0.0985,
      "velocity": 102,
      "chip": "ym2612"
    },
    {
      "channel": 1,
      "note": 77,
      "start": 22.8575,
      "duration": 0.0248,
      "velocity": 103,
      "chip": "ym2612"
    },
    {
      "channel": 2,
      "note": 93,
      "start": 22.8606,
      "duration": 0.2043,
      "velocity": 127,
      "chip": "ym2612"
    },
    {
      "channel": 4,
      "note": 79,
      "start": 22.8893,
      "duration": 0.0347,
      "velocity": 103,
      "chip": "ym2612"
    },
    {
      "channel": 3,
      "note": 79,
      "start": 22.9226,
      "duration": 0.0278,
      "velocity": 103,
      "chip": "ym2612"
    },
    {
      "channel": 0,
      "note": 53,
      "start": 22.9571,
      "duration": 0.1006,
      "velocity": 102,
      "chip": "ym2612"
    },
    {
      "channel": 1,
      "note": 81,
      "start": 22.9592,
      "duration": 0.026,
      "velocity": 103,
      "chip": "ym2612"
    },
    {
      "channel": 4,
      "note": 81,
      "start": 22.9922,
      "duration": 0.0347,
      "velocity": 103,
      "chip": "ym2612"
    },
    {
      "channel": 3,
      "note": 83,
      "start": 23.0256,
      "duration": 0.0279,
      "velocity": 103,
      "chip": "ym2612"
    },
    {
      "channel": 0,
      "note": 48,
      "start": 23.0675,
      "duration": 0.0482,
      "velocity": 103,
      "chip": "ym2612"
    },
    {
      "channel": 3,
      "note": 85,
      "start": 23.0699,
      "duration": 0.046,
      "velocity": 103,
      "chip": "ym2612"
    },
    {
      "channel": 1,
      "note": 83,
      "start": 23.0717,
      "duration": 0.0443,
      "velocity": 103,
      "chip": "ym2612"
    },
    {
      "channel": 4,
      "note": 85,
      "start": 23.0735,
      "duration": 0.0427,
      "velocity": 103,
      "chip": "ym2612"
    },
    {
      "channel": 2,
      "note": 90,
      "start": 23.0763,
      "duration": 0.07,
      "velocity": 95,
      "chip": "ym2612"
    },
    {
      "channel": 5,
      "note": 25,
      "start": 23.078,
      "duration": 0.0903,
      "velocity": 127,
      "chip": "ym2612"
    },
    {
      "channel": 0,
      "note": 40,
      "start": 23.1236,
      "duration": 0.0436,
      "velocity": 103,
      "chip": "ym2612"
    },
    {
      "channel": 3,
      "note": 39,
      "start": 23.1251,
      "duration": 0.0422,
      "velocity": 103,
      "chip": "ym2612"
    },
    {
      "channel": 1,
      "note": 33,
      "start": 23.1266,
      "duration": 0.0409,
      "velocity": 103,
      "chip": "ym2612"
    },
    {
      "channel": 4,
      "note": 32,
      "start": 23.1281,
      "duration": 0.0396,
      "velocity": 103,
      "chip": "ym2612"
    },
    {
      "channel": 0,
      "note": 40,
      "start": 23.1765,
      "duration": 0.0478,
      "velocity": 103,
      "chip": "ym2612"
    },
    {
      "channel": 3,
      "note": 39,
      "start": 23.1782,
      "duration": 0.0463,
      "velocity": 103,
      "chip": "ym2612"
    },
    {
      "channel": 1,
      "note": 33,
      "start": 23.1799,
      "duration": 0.0448,
      "velocity": 103,
      "chip": "ym2612"
    },
    {
      "channel": 4,
      "note": 32,
      "start": 23.1816,
      "duration": 0.0433,
      "velocity": 103,
      "chip": "ym2612"
    },
    {
      "channel": 2,
      "note": 93,
      "start": 23.1833,
      "duration": 0.0717,
      "velocity": 95,
      "chip": "ym2612"
    },
    {
      "channel": 5,
      "note": 25,
      "start": 23.1847,
      "duration": 0.0854,
      "velocity": 127,
      "chip": "ym2612"
    },
    {
      "channel": 0,
      "note": 45,
      "start": 23.2316,
      "duration": 0.0385,
      "velocity": 103,
      "chip": "ym2612"
    },
    {
      "channel": 3,
      "note": 44,
      "start": 23.2331,
      "duration": 0.0371,
      "velocity": 103,
      "chip": "ym2612"
    },
    {
      "channel": 1,
      "note": 38,
      "start": 23.2346,
      "duration": 0.0355,
      "velocity": 103,
      "chip": "ym2612"
    },
    {
      "channel": 4,
      "note": 37,
      "start": 23.2367,
      "duration": 0.0334,
      "velocity": 103,
      "chip": "ym2612"
    }
  ]
}