{
  "track_name": "14 - Track 15",
  "duration_sec": 14.246,
  "sample_rate": 44100,
  "note_count": 221,
  "unique_pitches": 14,
  "pitch_range": 59,
  "avg_note_duration": 0.2905,
  "reconstruction_stats": {
    "notes_reconstructed": 221,
    "keyon_events": 221,
    "keyoff_events": 218,
    "orphan_keyons": 3,
    "unique_pitches": 14,
    "pitch_range": 59,
    "avg_duration_sec": 0.2905
  },
  "metadata": {
    "source": "H\\Honoo no Toukyuuji Dodge Danpei\\14 - Track 15.vgz"
  },
  "notes": [
    {
      "channel": 0,
      "note": 47,
      "start": 0.0022,
      "duration": 0.0841,
      "velocity": 100,
      "chip": "ym2612"
    },
    {
      "channel": 3,
      "note": 83,
      "start": 0.0066,
      "duration": 0.0844,
      "velocity": 92,
      "chip": "ym2612"
    },
    {
      "channel": 2,
      "note": 36,
      "start": 0.0107,
      "duration": 0.1244,
      "velocity": 127,
      "chip": "ym2612"
    },
    {
      "channel": 0,
      "note": 47,
      "start": 0.0868,
      "duration": 0.1106,
      "velocity": 100,
      "chip": "ym2612"
    },
    {
      "channel": 1,
      "note": 83,
      "start": 0.0907,
      "duration": 0.1073,
      "velocity": 92,
      "chip": "ym2612"
    },
    {
      "channel": 3,
      "note": 85,
      "start": 0.0915,
      "duration": 0.1073,
      "velocity": 92,
      "chip": "ym2612"
    },
    {
      "channel": 0,
      "note": 47,
      "start": 0.1978,
      "duration": 0.1134,
      "velocity": 100,
      "chip": "ym2612"
    },
    {
      "channel": 1,
      "note": 85,
      "start": 0.1987,
      "duration": 0.1132,
      "velocity": 92,
      "chip": "ym2612"
    },
    {
      "channel": 3,
      "note": 87,
      "start": 0.1995,
      "duration": 0.1132,
      "velocity": 92,
      "chip": "ym2612"
    },
    {
      "channel": 0,
      "note": 47,
      "start": 0.3117,
      "duration": 0.1079,
      "velocity": 100,
      "chip": "ym2612"
    },
    {
      "channel": 1,
      "note": 87,
      "start": 0.3125,
      "duration": 0.1078,
      "velocity": 92,
      "chip": "ym2612"
    },
    {
      "channel": 3,
      "note": 88,
      "start": 0.3134,
      "duration": 0.1079,
      "velocity": 92,
      "chip": "ym2612"
    },
    {
      "channel": 2,
      "note": 72,
      "start": 0.3143,
      "duration": 0.2814,
      "velocity": 120,
      "chip": "ym2612"
    },
    {
      "channel": 0,
      "note": 59,
      "start": 0.4202,
      "duration": 0.2244,
      "velocity": 100,
      "chip": "ym2612"
    },
    {
      "channel": 1,
      "note": 88,
      "start": 0.4211,
      "duration": 0.11,
      "velocity": 92,
      "chip": "ym2612"
    },
    {
      "channel": 3,
      "note": 90,
      "start": 0.4219,
      "duration": 0.8749,
      "velocity": 92,
      "chip": "ym2612"
    },
    {
      "channel": 1,
      "note": 90,
      "start": 0.5318,
      "duration": 0.8724,
      "velocity": 92,
      "chip": "ym2612"
    },
    {
      "channel": 0,
      "note": 47,
      "start": 0.6453,
      "duration": 0.1078,
      "velocity": 100,
      "chip": "ym2612"
    },
    {
      "channel": 2,
      "note": 72,
      "start": 0.647,
      "duration": 0.2824,
      "velocity": 120,
      "chip": "ym2612"
    },
    {
      "channel": 0,
      "note": 47,
      "start": 0.7535,
      "duration": 0.2086,
      "velocity": 100,
      "chip": "ym2612"
    },
    {
      "channel": 5,
      "note": 83,
      "start": 0.8503,
      "duration": 0.1142,
      "velocity": 92,
      "chip": "ym2612"
    },
    {
      "channel": 0,
      "note": 47,
      "start": 0.9626,
      "duration": 0.108,
      "velocity": 100,
      "chip": "ym2612"
    },
    {
      "channel": 4,
      "note": 83,
      "start": 0.9643,
      "duration": 0.1078,
      "velocity": 92,
      "chip": "ym2612"
    },
    {
      "channel": 5,
      "note": 85,
      "start": 0.9651,
      "duration": 0.1082,
      "velocity": 92,
      "chip": "ym2612"
    },
    {
      "channel": 2,
      "note": 36,
      "start": 0.966,
      "duration": 0.1382,
      "velocity": 127,
      "chip": "ym2612"
    },
    {
      "channel": 0,
      "note": 47,
      "start": 1.071,
      "duration": 0.2246,
      "velocity": 100,
      "chip": "ym2612"
    },
    {
      "channel": 4,
      "note": 85,
      "start": 1.0732,
      "duration": 0.1125,
      "velocity": 92,
      "chip": "ym2612"
    },
    {
      "channel": 5,
      "note": 87,
      "start": 1.0741,
      "duration": 0.1125,
      "velocity": 92,
      "chip": "ym2612"
    },
    {
      "channel": 4,
      "note": 87,
      "start": 1.1864,
      "duration": 0.111,
      "velocity": 92,
      "chip": "ym2612"
    },
    {
      "channel": 5,
      "note": 88,
      "start": 1.1872,
      "duration": 0.111,
      "velocity": 92,
      "chip": "ym2612"
    },
    {
      "channel": 2,
      "note": 36,
      "start": 1.188,
      "duration": 0.1047,
      "velocity": 127,
      "chip": "ym2612"
    },
    {
      "channel": 0,
      "note": 59,
      "start": 1.2961,
      "duration": 0.2217,
      "velocity": 100,
      "chip": "ym2612"
    },
    {
      "channel": 3,
      "note": 90,
      "start": 1.2973,
      "duration": 0.4312,
      "velocity": 92,
      "chip": "ym2612"
    },
    {
      "channel": 4,
      "note": 88,
      "start": 1.2981,
      "duration": 0.1072,
      "velocity": 92,
      "chip": "ym2612"
    },
    {
      "channel": 5,
      "note": 90,
      "start": 1.2989,
      "duration": 0.4308,
      "velocity": 92,
      "chip": "ym2612"
    },
    {
      "channel": 2,
      "note": 72,
      "start": 1.2997,
      "duration": 0.2153,
      "velocity": 120,
      "chip": "ym2612"
    },
    {
      "channel": 1,
      "note": 90,
      "start": 1.4048,
      "duration": 0.4283,
      "velocity": 92,
      "chip": "ym2612"
    },
    {
      "channel": 4,
      "note": 90,
      "start": 1.4064,
      "duration": 0.4279,
      "velocity": 92,
      "chip": "ym2612"
    },
    {
      "channel": 0,
      "note": 47,
      "start": 1.5184,
      "duration": 0.2088,
      "velocity": 100,
      "chip": "ym2612"
    },
    {
      "channel": 2,
      "note": 72,
      "start": 1.5208,
      "duration": 0.2006,
      "velocity": 120,
      "chip": "ym2612"
    },
    {
      "channel": 0,
      "note": 47,
      "start": 1.7278,
      "duration": 0.1047,
      "velocity": 100,
      "chip": "ym2612"
    },
    {
      "channel": 3,
      "note": 91,
      "start": 1.7291,
      "duration": 0.8662,
      "velocity": 92,
      "chip": "ym2612"
    },
    {
      "channel": 5,
      "note": 88,
      "start": 1.7304,
      "duration": 0.8662,
      "velocity": 92,
      "chip": "ym2612"
    },
    {
      "channel": 2,
      "note": 36,
      "start": 1.7312,
      "duration": 0.1351,
      "velocity": 127,
      "chip": "ym2612"
    },
    {
      "channel": 0,
      "note": 47,
      "start": 1.833,
      "duration": 0.1107,
      "velocity": 100,
      "chip": "ym2612"
    },
    {
      "channel": 1,
      "note": 91,
      "start": 1.8338,
      "duration": 0.8757,
      "velocity": 92,
      "chip": "ym2612"
    },
    {
      "channel": 4,
      "note": 88,
      "start": 1.835,
      "duration": 0.8756,
      "velocity": 92,
      "chip": "ym2612"
    },
    {
      "channel": 0,
      "note": 47,
      "start": 1.9441,
      "duration": 0.1139,
      "velocity": 100,
      "chip": "ym2612"
    },
    {
      "channel": 0,
      "note": 47,
      "start": 2.0584,
      "duration": 0.1075,
      "velocity": 100,
      "chip": "ym2612"
    },
    {
      "channel": 2,
      "note": 72,
      "start": 2.061,
      "duration": 0.2818,
      "velocity": 120,
      "chip": "ym2612"
    },
    {
      "channel": 0,
      "note": 59,
      "start": 2.1665,
      "duration": 0.209,
      "velocity": 100,
      "chip": "ym2612"
    },
    {
      "channel": 0,
      "note": 47,
      "start": 2.3761,
      "duration": 0.1073,
      "velocity": 100,
      "chip": "ym2612"
    },
    {
      "channel": 2,
      "note": 72,
      "start": 2.3786,
      "duration": 0.2975,
      "velocity": 120,
      "chip": "ym2612"
    },
    {
      "channel": 0,
      "note": 47,
      "start": 2.4839,
      "duration": 0.225,
      "velocity": 100,
      "chip": "ym2612"
    },
    {
      "channel": 3,
      "note": 88,
      "start": 2.5961,
      "duration": 0.8787,
      "velocity": 92,
      "chip": "ym2612"
    },
    {
      "channel": 5,
      "note": 85,
      "start": 2.5973,
      "duration": 0.8787,
      "velocity": 92,
      "chip": "ym2612"
    },
    {
      "channel": 0,
      "note": 47,
      "start": 2.7093,
      "duration": 0.1075,
      "velocity": 100,
      "chip": "ym2612"
    },
    {
      "channel": 1,
      "note": 88,
      "start": 2.7101,
      "duration": 0.8693,
      "velocity": 92,
      "chip": "ym2612"
    },
    {
      "channel": 4,
      "note": 85,
      "start": 2.7113,
      "duration": 0.8692,
      "velocity": 92,
      "chip": "ym2612"
    },
    {
      "channel": 2,
      "note": 36,
      "start": 2.7125,
      "duration": 0.1382,
      "velocity": 127,
      "chip": "ym2612"
    },
    {
      "channel": 0,
      "note": 47,
      "start": 2.8173,
      "duration": 0.225,
      "velocity": 100,
      "chip": "ym2612"
    },
    {
      "channel": 2,
      "note": 36,
      "start": 2.9335,
      "duration": 0.1059,
      "velocity": 127,
      "chip": "ym2612"
    },
    {
      "channel": 0,
      "note": 59,
      "start": 3.0428,
      "duration": 0.2054,
      "velocity": 100,
      "chip": "ym2612"
    },
    {
      "channel": 2,
      "note": 72,
      "start": 3.0454,
      "duration": 0.2,
      "velocity": 120,
      "chip": "ym2612"
    },
    {
      "channel": 0,
      "note": 47,
      "start": 3.2488,
      "duration": 0.2247,
      "velocity": 100,
      "chip": "ym2612"
    },
    {
      "channel": 2,
      "note": 72,
      "start": 3.2513,
      "duration": 0.2163,
      "velocity": 120,
      "chip": "ym2612"
    },
    {
      "channel": 0,
      "note": 47,
      "start": 3.4741,
      "duration": 0.1046,
      "velocity": 100,
      "chip": "ym2612"
    },
    {
      "channel": 3,
      "note": 90,
      "start": 3.4755,
      "duration": 1.7452,
      "velocity": 92,
      "chip": "ym2612"
    },
    {
      "channel": 5,
      "note": 87,
      "start": 3.4767,
      "duration": 1.7447,
      "velocity": 92,
      "chip": "ym2612"
    },
    {
      "channel": 2,
      "note": 36,
      "start": 3.4776,
      "duration": 0.1351,
      "velocity": 127,
      "chip": "ym2612"
    },
    {
      "channel": 0,
      "note": 47,
      "start": 3.5792,
      "duration": 0.1108,
      "velocity": 100,
      "chip": "ym2612"
    },
    {
      "channel": 1,
      "note": 90,
      "start": 3.58,
      "duration": 1.7457,
      "velocity": 92,
      "chip": "ym2612"
    },
    {
      "channel": 4,
      "note": 87,
      "start": 3.5812,
      "duration": 1.7449,
      "velocity": 92,
      "chip": "ym2612"
    },
    {
      "channel": 0,
      "note": 47,
      "start": 3.6905,
      "duration": 0.1134,
      "velocity": 100,
      "chip": "ym2612"
    },
    {
      "channel": 0,
      "note": 47,
      "start": 3.8043,
      "duration": 0.0921,
      "velocity": 100,
      "chip": "ym2612"
    },
    {
      "channel": 2,
      "note": 72,
      "start": 3.8073,
      "duration": 0.2823,
      "velocity": 120,
      "chip": "ym2612"
    },
    {
      "channel": 0,
      "note": 59,
      "start": 3.897,
      "duration": 0.2244,
      "velocity": 100,
      "chip": "ym2612"
    },
    {
      "channel": 0,
      "note": 47,
      "start": 4.122,
      "duration": 0.1077,
      "velocity": 100,
      "chip": "ym2612"
    },
    {
      "channel": 2,
      "note": 72,
      "start": 4.1249,
      "duration": 0.282,
      "velocity": 120,
      "chip": "ym2612"
    },
    {
      "channel": 0,
      "note": 47,
      "start": 4.2301,
      "duration": 0.2247,
      "velocity": 100,
      "chip": "ym2612"
    },
    {
      "channel": 0,
      "note": 47,
      "start": 4.4552,
      "duration": 0.1078,
      "velocity": 100,
      "chip": "ym2612"
    },
    {
      "channel": 2,
      "note": 36,
      "start": 4.4583,
      "duration": 0.1388,
      "velocity": 127,
      "chip": "ym2612"
    },
    {
      "channel": 0,
      "note": 47,
      "start": 4.5635,
      "duration": 0.2088,
      "velocity": 100,
      "chip": "ym2612"
    },
    {
      "channel": 2,
      "note": 36,
      "start": 4.6639,
      "duration": 0.1055,
      "velocity": 127,
      "chip": "ym2612"
    },
    {
      "channel": 0,
      "note": 59,
      "start": 4.7732,
      "duration": 0.2212,
      "velocity": 100,
      "chip": "ym2612"
    },
    {
      "channel": 2,
      "note": 72,
      "start": 4.7758,
      "duration": 0.2159,
      "velocity": 120,
      "chip": "ym2612"
    },
    {
      "channel": 0,
      "note": 47,
      "start": 4.9951,
      "duration": 0.2244,
      "velocity": 100,
      "chip": "ym2612"
    },
    {
      "channel": 2,
      "note": 72,
      "start": 4.9976,
      "duration": 0.2165,
      "velocity": 120,
      "chip": "ym2612"
    },
    {
      "channel": 0,
      "note": 47,
      "start": 5.22,
      "duration": 0.1051,
      "velocity": 100,
      "chip": "ym2612"
    },
    {
      "channel": 2,
      "note": 36,
      "start": 5.2229,
      "duration": 0.1347,
      "velocity": 127,
      "chip": "ym2612"
    },
    {
      "channel": 0,
      "note": 47,
      "start": 5.3256,
      "duration": 0.095,
      "velocity": 100,
      "chip": "ym2612"
    },
    {
      "channel": 0,
      "note": 47,
      "start": 5.421,
      "duration": 0.1133,
      "velocity": 100,
      "chip": "ym2612"
    },
    {
      "channel": 0,
      "note": 47,
      "start": 5.5347,
      "duration": 0.1079,
      "velocity": 100,
      "chip": "ym2612"
    },
    {
      "channel": 2,
      "note": 72,
      "start": 5.5358,
      "duration": 0.298,
      "velocity": 120,
      "chip": "ym2612"
    },
    {
      "channel": 0,
      "note": 59,
      "start": 5.6432,
      "duration": 0.2244,
      "velocity": 100,
      "chip": "ym2612"
    },
    {
      "channel": 0,
      "note": 47,
      "start": 5.8683,
      "duration": 0.1079,
      "velocity": 100,
      "chip": "ym2612"
    },
    {
      "channel": 2,
      "note": 72,
      "start": 5.8693,
      "duration": 0.282,
      "velocity": 120,
      "chip": "ym2612"
    },
    {
      "channel": 0,
      "note": 47,
      "start": 5.9766,
      "duration": 0.2086,
      "velocity": 100,
      "chip": "ym2612"
    },
    {
      "channel": 0,
      "note": 47,
      "start": 6.1856,
      "duration": 0.1079,
      "velocity": 100,
      "chip": "ym2612"
    },
    {
      "channel": 2,
      "note": 36,
      "start": 6.1868,
      "duration": 0.1551,
      "velocity": 127,
      "chip": "ym2612"
    },
    {
      "channel": 0,
      "note": 47,
      "start": 6.294,
      "duration": 0.2249,
      "velocity": 100,
      "chip": "ym2612"
    },
    {
      "channel": 2,
      "note": 36,
      "start": 6.4092,
      "duration": 0.1068,
      "velocity": 127,
      "chip": "ym2612"
    },
    {
      "channel": 0,
      "note": 59,
      "start": 6.5194,
      "duration": 0.2218,
      "velocity": 100,
      "chip": "ym2612"
    },
    {
      "channel": 2,
      "note": 72,
      "start": 6.5205,
      "duration": 0.2176,
      "velocity": 120,
      "chip": "ym2612"
    },
    {
      "channel": 0,
      "note": 47,
      "start": 6.7418,
      "duration": 0.2081,
      "velocity": 100,
      "chip": "ym2612"
    },
    {
      "channel": 2,
      "note": 72,
      "start": 6.7429,
      "duration": 0.2016,
      "velocity": 120,
      "chip": "ym2612"
    },
    {
      "channel": 0,
      "note": 47,
      "start": 6.9505,
      "duration": 0.1051,
      "velocity": 100,
      "chip": "ym2612"
    },
    {
      "channel": 3,
      "note": 83,
      "start": 6.9514,
      "duration": 0.106,
      "velocity": 92,
      "chip": "ym2612"
    },
    {
      "channel": 2,
      "note": 36,
      "start": 6.9526,
      "duration": 0.1518,
      "velocity": 127,
      "chip": "ym2612"
    },
    {
      "channel": 0,
      "note": 47,
      "start": 7.0564,
      "duration": 0.1103,
      "velocity": 100,
      "chip": "ym2612"
    },
    {
      "channel": 1,
      "note": 83,
      "start": 7.0573,
      "duration": 0.11,
      "velocity": 92,
      "chip": "ym2612"
    },
    {
      "channel": 3,
      "note": 85,
      "start": 7.0581,
      "duration": 0.11,
      "velocity": 92,
      "chip": "ym2612"
    },
    {
      "channel": 0,
      "note": 47,
      "start": 7.1672,
      "duration": 0.1134,
      "velocity": 100,
      "chip": "ym2612"
    },
    {
      "channel": 1,
      "note": 85,
      "start": 7.168,
      "duration": 0.1131,
      "velocity": 92,
      "chip": "ym2612"
    },
    {
      "channel": 3,
      "note": 87,
      "start": 7.1688,
      "duration": 0.1131,
      "velocity": 92,
      "chip": "ym2612"
    },
    {
      "channel": 0,
      "note": 47,
      "start": 7.281,
      "duration": 0.1079,
      "velocity": 100,
      "chip": "ym2612"
    },
    {
      "channel": 1,
      "note": 87,
      "start": 7.2818,
      "duration": 0.1083,
      "velocity": 92,
      "chip": "ym2612"
    },
    {
      "channel": 3,
      "note": 88,
      "start": 7.2827,
      "duration": 0.1083,
      "velocity": 92,
      "chip": "ym2612"
    },
    {
      "channel": 2,
      "note": 72,
      "start": 7.2835,
      "duration": 0.2814,
      "velocity": 120,
      "chip": "ym2612"
    },
    {
      "channel": 0,
      "note": 59,
      "start": 7.3899,
      "duration": 0.2244,
      "velocity": 100,
      "chip": "ym2612"
    },
    {
      "channel": 1,
      "note": 88,
      "start": 7.3907,
      "duration": 0.1097,
      "velocity": 92,
      "chip": "ym2612"
    },
    {
      "channel": 3,
      "note": 90,
      "start": 7.3916,
      "duration": 0.8744,
      "velocity": 92,
      "chip": "ym2612"
    },
    {
      "channel": 1,
      "note": 90,
      "start": 7.5011,
      "duration": 0.8725,
      "velocity": 92,
      "chip": "ym2612"
    },
    {
      "channel": 0,
      "note": 47,
      "start": 7.6148,
      "duration": 0.0917,
      "velocity": 100,
      "chip": "ym2612"
    },
    {
      "channel": 2,
      "note": 72,
      "start": 7.6166,
      "duration": 0.2822,
      "velocity": 120,
      "chip": "ym2612"
    },
    {
      "channel": 0,
      "note": 47,
      "start": 7.7069,
      "duration": 0.2246,
      "velocity": 100,
      "chip": "ym2612"
    },
    {
      "channel": 5,
      "note": 83,
      "start": 7.8196,
      "duration": 0.1143,
      "velocity": 92,
      "chip": "ym2612"
    },
    {
      "channel": 0,
      "note": 47,
      "start": 7.932,
      "duration": 0.1079,
      "velocity": 100,
      "chip": "ym2612"
    },
    {
      "channel": 4,
      "note": 83,
      "start": 7.9337,
      "duration": 0.1077,
      "velocity": 92,
      "chip": "ym2612"
    },
    {
      "channel": 5,
      "note": 85,
      "start": 7.9345,
      "duration": 0.1078,
      "velocity": 92,
      "chip": "ym2612"
    },
    {
      "channel": 2,
      "note": 36,
      "start": 7.9354,
      "duration": 0.1387,
      "velocity": 127,
      "chip": "ym2612"
    },
    {
      "channel": 0,
      "note": 47,
      "start": 8.0403,
      "duration": 0.2246,
      "velocity": 100,
      "chip": "ym2612"
    },
    {
      "channel": 4,
      "note": 85,
      "start": 8.0421,
      "duration": 0.1128,
      "velocity": 92,
      "chip": "ym2612"
    },
    {
      "channel": 5,
      "note": 87,
      "start": 8.0429,
      "duration": 0.1133,
      "velocity": 92,
      "chip": "ym2612"
    },
    {
      "channel": 4,
      "note": 87,
      "start": 8.1556,
      "duration": 0.1111,
      "velocity": 92,
      "chip": "ym2612"
    },
    {
      "channel": 5,
      "note": 88,
      "start": 8.1569,
      "duration": 0.1107,
      "velocity": 92,
      "chip": "ym2612"
    },
    {
      "channel": 2,
      "note": 36,
      "start": 8.1577,
      "duration": 0.1043,
      "velocity": 127,
      "chip": "ym2612"
    },
    {
      "channel": 0,
      "note": 59,
      "start": 8.2655,
      "duration": 0.2057,
      "velocity": 100,
      "chip": "ym2612"
    },
    {
      "channel": 3,
      "note": 90,
      "start": 8.2666,
      "duration": 0.4308,
      "velocity": 92,
      "chip": "ym2612"
    },
    {
      "channel": 4,
      "note": 88,
      "start": 8.2674,
      "duration": 0.1073,
      "velocity": 92,
      "chip": "ym2612"
    },
    {
      "channel": 5,
      "note": 90,
      "start": 8.2683,
      "duration": 0.4303,
      "velocity": 92,
      "chip": "ym2612"
    },
    {
      "channel": 2,
      "note": 72,
      "start": 8.269,
      "duration": 0.1994,
      "velocity": 120,
      "chip": "ym2612"
    },
    {
      "channel": 1,
      "note": 90,
      "start": 8.3741,
      "duration": 0.4283,
      "velocity": 92,
      "chip": "ym2612"
    },
    {
      "channel": 4,
      "note": 90,
      "start": 8.3753,
      "duration": 0.4283,
      "velocity": 92,
      "chip": "ym2612"
    },
    {
      "channel": 0,
      "note": 47,
      "start": 8.4718,
      "duration": 0.2244,
      "velocity": 100,
      "chip": "ym2612"
    },
    {
      "channel": 2,
      "note": 72,
      "start": 8.4746,
      "duration": 0.2162,
      "velocity": 120,
      "chip": "ym2612"
    },
    {
      "channel": 0,
      "note": 47,
      "start": 8.6967,
      "duration": 0.1051,
      "velocity": 100,
      "chip": "ym2612"
    },
    {
      "channel": 3,
      "note": 91,
      "start": 8.698,
      "duration": 0.8666,
      "velocity": 92,
      "chip": "ym2612"
    },
    {
      "channel": 5,
      "note": 88,
      "start": 8.6993,
      "duration": 0.8666,
      "velocity": 92,
      "chip": "ym2612"
    },
    {
      "channel": 2,
      "note": 36,
      "start": 8.7001,
      "duration": 0.1354,
      "velocity": 127,
      "chip": "ym2612"
    },
    {
      "channel": 0,
      "note": 47,
      "start": 8.8023,
      "duration": 0.1106,
      "velocity": 100,
      "chip": "ym2612"
    },
    {
      "channel": 1,
      "note": 91,
      "start": 8.8031,
      "duration": 0.8752,
      "velocity": 92,
      "chip": "ym2612"
    },
    {
      "channel": 4,
      "note": 88,
      "start": 8.8043,
      "duration": 0.8752,
      "velocity": 92,
      "chip": "ym2612"
    },
    {
      "channel": 0,
      "note": 47,
      "start": 8.9134,
      "duration": 0.1134,
      "velocity": 100,
      "chip": "ym2612"
    },
    {
      "channel": 0,
      "note": 47,
      "start": 9.0272,
      "duration": 0.108,
      "velocity": 100,
      "chip": "ym2612"
    },
    {
      "channel": 2,
      "note": 72,
      "start": 9.0298,
      "duration": 0.2824,
      "velocity": 120,
      "chip": "ym2612"
    },
    {
      "channel": 0,
      "note": 59,
      "start": 9.1358,
      "duration": 0.2085,
      "velocity": 100,
      "chip": "ym2612"
    },
    {
      "channel": 0,
      "note": 47,
      "start": 9.3449,
      "duration": 0.1078,
      "velocity": 100,
      "chip": "ym2612"
    },
    {
      "channel": 2,
      "note": 72,
      "start": 9.3475,
      "duration": 0.2978,
      "velocity": 120,
      "chip": "ym2612"
    },
    {
      "channel": 0,
      "note": 47,
      "start": 9.4531,
      "duration": 0.2246,
      "velocity": 100,
      "chip": "ym2612"
    },
    {
      "channel": 3,
      "note": 95,
      "start": 9.5654,
      "duration": 0.8762,
      "velocity": 92,
      "chip": "ym2612"
    },
    {
      "channel": 5,
      "note": 91,
      "start": 9.5666,
      "duration": 0.8762,
      "velocity": 92,
      "chip": "ym2612"
    },
    {
      "channel": 0,
      "note": 47,
      "start": 9.6782,
      "duration": 0.1079,
      "velocity": 100,
      "chip": "ym2612"
    },
    {
      "channel": 1,
      "note": 95,
      "start": 9.679,
      "duration": 0.8697,
      "velocity": 92,
      "chip": "ym2612"
    },
    {
      "channel": 4,
      "note": 91,
      "start": 9.6802,
      "duration": 0.8697,
      "velocity": 92,
      "chip": "ym2612"
    },
    {
      "channel": 2,
      "note": 36,
      "start": 9.6814,
      "duration": 0.1389,
      "velocity": 127,
      "chip": "ym2612"
    },
    {
      "channel": 0,
      "note": 47,
      "start": 9.7865,
      "duration": 0.2087,
      "velocity": 100,
      "chip": "ym2612"
    },
    {
      "channel": 2,
      "note": 36,
      "start": 9.9028,
      "duration": 0.0896,
      "velocity": 127,
      "chip": "ym2612"
    },
    {
      "channel": 0,
      "note": 59,
      "start": 9.9958,
      "duration": 0.2217,
      "velocity": 100,
      "chip": "ym2612"
    },
    {
      "channel": 2,
      "note": 72,
      "start": 9.9983,
      "duration": 0.2163,
      "velocity": 120,
      "chip": "ym2612"
    },
    {
      "channel": 0,
      "note": 47,
      "start": 10.2181,
      "duration": 0.2223,
      "velocity": 100,
      "chip": "ym2612"
    },
    {
      "channel": 2,
      "note": 72,
      "start": 10.2206,
      "duration": 0.2164,
      "velocity": 120,
      "chip": "ym2612"
    },
    {
      "channel": 0,
      "note": 54,
      "start": 10.4409,
      "duration": 0.1072,
      "velocity": 100,
      "chip": "ym2612"
    },
    {
      "channel": 3,
      "note": 94,
      "start": 10.4422,
      "duration": 1.7452,
      "velocity": 92,
      "chip": "ym2612"
    },
    {
      "channel": 5,
      "note": 90,
      "start": 10.4435,
      "duration": 1.7447,
      "velocity": 92,
      "chip": "ym2612"
    },
    {
      "channel": 2,
      "note": 36,
      "start": 10.4444,
      "duration": 0.1375,
      "velocity": 127,
      "chip": "ym2612"
    },
    {
      "channel": 0,
      "note": 54,
      "start": 10.5485,
      "duration": 0.1107,
      "velocity": 100,
      "chip": "ym2612"
    },
    {
      "channel": 1,
      "note": 94,
      "start": 10.5494,
      "duration": 1.7298,
      "velocity": 92,
      "chip": "ym2612"
    },
    {
      "channel": 4,
      "note": 90,
      "start": 10.5506,
      "duration": 1.729,
      "velocity": 92,
      "chip": "ym2612"
    },
    {
      "channel": 0,
      "note": 54,
      "start": 10.6597,
      "duration": 0.098,
      "velocity": 100,
      "chip": "ym2612"
    },
    {
      "channel": 0,
      "note": 54,
      "start": 10.7581,
      "duration": 0.1075,
      "velocity": 100,
      "chip": "ym2612"
    },
    {
      "channel": 2,
      "note": 72,
      "start": 10.7607,
      "duration": 0.2981,
      "velocity": 120,
      "chip": "ym2612"
    },
    {
      "channel": 0,
      "note": 66,
      "start": 10.8662,
      "duration": 0.2249,
      "velocity": 100,
      "chip": "ym2612"
    },
    {
      "channel": 0,
      "note": 54,
      "start": 11.0916,
      "duration": 0.1074,
      "velocity": 100,
      "chip": "ym2612"
    },
    {
      "channel": 2,
      "note": 72,
      "start": 11.0942,
      "duration": 0.2816,
      "velocity": 120,
      "chip": "ym2612"
    },
    {
      "channel": 0,
      "note": 54,
      "start": 11.1995,
      "duration": 0.2249,
      "velocity": 100,
      "chip": "ym2612"
    },
    {
      "channel": 0,
      "note": 54,
      "start": 11.4249,
      "duration": 0.0917,
      "velocity": 100,
      "chip": "ym2612"
    },
    {
      "channel": 2,
      "note": 36,
      "start": 11.4276,
      "duration": 0.1388,
      "velocity": 127,
      "chip": "ym2612"
    },
    {
      "channel": 0,
      "note": 54,
      "start": 11.517,
      "duration": 0.225,
      "velocity": 100,
      "chip": "ym2612"
    },
    {
      "channel": 2,
      "note": 36,
      "start": 11.6333,
      "duration": 0.1055,
      "velocity": 127,
      "chip": "ym2612"
    },
    {
      "channel": 0,
      "note": 66,
      "start": 11.7426,
      "duration": 0.2212,
      "velocity": 100,
      "chip": "ym2612"
    },
    {
      "channel": 2,
      "note": 72,
      "start": 11.7451,
      "duration": 0.2159,
      "velocity": 120,
      "chip": "ym2612"
    },
    {
      "channel": 0,
      "note": 54,
      "start": 11.9644,
      "duration": 0.2218,
      "velocity": 100,
      "chip": "ym2612"
    },
    {
      "channel": 2,
      "note": 72,
      "start": 11.9669,
      "duration": 0.2164,
      "velocity": 120,
      "chip": "ym2612"
    },
    {
      "channel": 0,
      "note": 54,
      "start": 12.1868,
      "duration": 0.0918,
      "velocity": 100,
      "chip": "ym2612"
    },
    {
      "channel": 2,
      "note": 36,
      "start": 12.1896,
      "duration": 0.1373,
      "velocity": 127,
      "chip": "ym2612"
    },
    {
      "channel": 0,
      "note": 54,
      "start": 12.279,
      "duration": 0.1108,
      "velocity": 100,
      "chip": "ym2612"
    },
    {
      "channel": 0,
      "note": 54,
      "start": 12.3903,
      "duration": 0.1132,
      "velocity": 100,
      "chip": "ym2612"
    },
    {
      "channel": 0,
      "note": 54,
      "start": 12.5039,
      "duration": 0.1079,
      "velocity": 100,
      "chip": "ym2612"
    },
    {
      "channel": 2,
      "note": 72,
      "start": 12.505,
      "duration": 0.2822,
      "velocity": 120,
      "chip": "ym2612"
    },
    {
      "channel": 0,
      "note": 66,
      "start": 12.6125,
      "duration": 0.2245,
      "velocity": 100,
      "chip": "ym2612"
    },
    {
      "channel": 0,
      "note": 54,
      "start": 12.8376,
      "duration": 0.1078,
      "velocity": 100,
      "chip": "ym2612"
    },
    {
      "channel": 2,
      "note": 72,
      "start": 12.8386,
      "duration": 0.2824,
      "velocity": 120,
      "chip": "ym2612"
    },
    {
      "channel": 0,
      "note": 54,
      "start": 12.9457,
      "duration": 0.2087,
      "velocity": 100,
      "chip": "ym2612"
    },
    {
      "channel": 0,
      "note": 54,
      "start": 13.1549,
      "duration": 0.1079,
      "velocity": 100,
      "chip": "ym2612"
    },
    {
      "channel": 2,
      "note": 36,
      "start": 13.1564,
      "duration": 0.1388,
      "velocity": 127,
      "chip": "ym2612"
    },
    {
      "channel": 0,
      "note": 54,
      "start": 13.2632,
      "duration": 0.2246,
      "velocity": 100,
      "chip": "ym2612"
    },
    {
      "channel": 2,
      "note": 36,
      "start": 13.3781,
      "duration": 0.1069,
      "velocity": 127,
      "chip": "ym2612"
    },
    {
      "channel": 0,
      "note": 66,
      "start": 13.4884,
      "duration": 0.2217,
      "velocity": 100,
      "chip": "ym2612"
    },
    {
      "channel": 2,
      "note": 72,
      "start": 13.4899,
      "duration": 0.2174,
      "velocity": 120,
      "chip": "ym2612"
    },
    {
      "channel": 0,
      "note": 54,
      "start": 13.7107,
      "duration": 0.2059,
      "velocity": 100,
      "chip": "ym2612"
    },
    {
      "channel": 2,
      "note": 72,
      "start": 13.7118,
      "duration": 0.2019,
      "velocity": 120,
      "chip": "ym2612"
    },
    {
      "channel": 0,
      "note": 47,
      "start": 13.9172,
      "duration": 0.1077,
      "velocity": 100,
      "chip": "ym2612"
    },
    {
      "channel": 3,
      "note": 83,
      "start": 13.9183,
      "duration": 0.1081,
      "velocity": 92,
      "chip": "ym2612"
    },
    {
      "channel": 2,
      "note": 36,
      "start": 13.9195,
      "duration": 0.1383,
      "velocity": 127,
      "chip": "ym2612"
    },
    {
      "channel": 0,
      "note": 47,
      "start": 14.0253,
      "duration": 0.1106,
      "velocity": 100,
      "chip": "ym2612"
    },
    {
      "channel": 1,
      "note": 83,
      "start": 14.0263,
      "duration": 0.1103,
      "velocity": 92,
      "chip": "ym2612"
    },
    {
      "channel": 3,
      "note": 85,
      "start": 14.0271,
      "duration": 0.1103,
      "velocity": 92,
      "chip": "ym2612"
    },
    {
      "channel": 0,
      "note": 47,
      "start": 14.1364,
      "duration": 0.11,
      "velocity": 100,
      "chip": "ym2612"
    },
    {
      "channel": 1,
      "note": 85,
      "start": 14.1372,
      "duration": 0.1092,
      "velocity": 92,
      "chip": "ym2612"
    },
    {
      "channel": 3,
      "note": 87,
      "start": 14.138,
      "duration": 0.1083,
      "velocity": 92,
      "chip": "ym2612"
    }
  ]
}