{
  "track_name": "14 - Final Case- Deep Hole",
  "duration_sec": 67.036,
  "sample_rate": 44100,
  "note_count": 870,
  "unique_pitches": 34,
  "pitch_range": 78,
  "avg_note_duration": 0.3679,
  "reconstruction_stats": {
    "notes_reconstructed": 870,
    "keyon_events": 870,
    "keyoff_events": 865,
    "orphan_keyons": 5,
    "unique_pitches": 34,
    "pitch_range": 78,
    "avg_duration_sec": 0.3679
  },
  "metadata": {
    "source": "G\\Ghostbusters\\14 - Final Case- Deep Hole.vgz"
  },
  "notes": [
    {
      "channel": 0,
      "note": 81,
      "start": 0.0,
      "duration": 4.1308,
      "velocity": 78,
      "chip": "ym2612"
    },
    {
      "channel": 2,
      "note": 26,
      "start": 0.0,
      "duration": 0.0659,
      "velocity": 120,
      "chip": "ym2612"
    },
    {
      "channel": 5,
      "note": 81,
      "start": 0.2347,
      "duration": 4.1571,
      "velocity": 78,
      "chip": "ym2612"
    },
    {
      "channel": 2,
      "note": 26,
      "start": 0.2364,
      "duration": 0.0898,
      "velocity": 120,
      "chip": "ym2612"
    },
    {
      "channel": 1,
      "note": 88,
      "start": 1.0113,
      "duration": 2.0794,
      "velocity": 78,
      "chip": "ym2612"
    },
    {
      "channel": 2,
      "note": 103,
      "start": 1.0138,
      "duration": 0.1739,
      "velocity": 103,
      "chip": "ym2612"
    },
    {
      "channel": 3,
      "note": 99,
      "start": 2.0524,
      "duration": 1.0392,
      "velocity": 78,
      "chip": "ym2612"
    },
    {
      "channel": 2,
      "note": 26,
      "start": 2.0545,
      "duration": 0.0921,
      "velocity": 120,
      "chip": "ym2612"
    },
    {
      "channel": 4,
      "note": 99,
      "start": 2.312,
      "duration": 1.0367,
      "velocity": 78,
      "chip": "ym2612"
    },
    {
      "channel": 2,
      "note": 26,
      "start": 2.3141,
      "duration": 0.0926,
      "velocity": 120,
      "chip": "ym2612"
    },
    {
      "channel": 1,
      "note": 88,
      "start": 3.0914,
      "duration": 1.0402,
      "velocity": 78,
      "chip": "ym2612"
    },
    {
      "channel": 3,
      "note": 95,
      "start": 3.0922,
      "duration": 3.1197,
      "velocity": 78,
      "chip": "ym2612"
    },
    {
      "channel": 2,
      "note": 103,
      "start": 3.0946,
      "duration": 0.1737,
      "velocity": 103,
      "chip": "ym2612"
    },
    {
      "channel": 4,
      "note": 95,
      "start": 3.3494,
      "duration": 3.1223,
      "velocity": 78,
      "chip": "ym2612"
    },
    {
      "channel": 0,
      "note": 81,
      "start": 4.1315,
      "duration": 4.1597,
      "velocity": 78,
      "chip": "ym2612"
    },
    {
      "channel": 2,
      "note": 26,
      "start": 4.1348,
      "duration": 0.092,
      "velocity": 120,
      "chip": "ym2612"
    },
    {
      "channel": 5,
      "note": 81,
      "start": 4.3926,
      "duration": 4.1597,
      "velocity": 78,
      "chip": "ym2612"
    },
    {
      "channel": 2,
      "note": 26,
      "start": 4.3942,
      "duration": 0.0926,
      "velocity": 120,
      "chip": "ym2612"
    },
    {
      "channel": 1,
      "note": 87,
      "start": 5.1716,
      "duration": 2.0796,
      "velocity": 78,
      "chip": "ym2612"
    },
    {
      "channel": 2,
      "note": 103,
      "start": 5.1743,
      "duration": 0.174,
      "velocity": 103,
      "chip": "ym2612"
    },
    {
      "channel": 3,
      "note": 99,
      "start": 6.2127,
      "duration": 1.0393,
      "velocity": 78,
      "chip": "ym2612"
    },
    {
      "channel": 2,
      "note": 26,
      "start": 6.215,
      "duration": 0.0921,
      "velocity": 120,
      "chip": "ym2612"
    },
    {
      "channel": 4,
      "note": 99,
      "start": 6.4724,
      "duration": 1.0366,
      "velocity": 78,
      "chip": "ym2612"
    },
    {
      "channel": 2,
      "note": 26,
      "start": 6.4746,
      "duration": 0.0926,
      "velocity": 120,
      "chip": "ym2612"
    },
    {
      "channel": 1,
      "note": 87,
      "start": 7.2518,
      "duration": 1.0402,
      "velocity": 78,
      "chip": "ym2612"
    },
    {
      "channel": 3,
      "note": 96,
      "start": 7.2527,
      "duration": 3.1197,
      "velocity": 78,
      "chip": "ym2612"
    },
    {
      "channel": 2,
      "note": 103,
      "start": 7.2551,
      "duration": 0.1735,
      "velocity": 103,
      "chip": "ym2612"
    },
    {
      "channel": 4,
      "note": 96,
      "start": 7.5097,
      "duration": 3.1224,
      "velocity": 78,
      "chip": "ym2612"
    },
    {
      "channel": 0,
      "note": 79,
      "start": 8.2919,
      "duration": 4.1598,
      "velocity": 78,
      "chip": "ym2612"
    },
    {
      "channel": 2,
      "note": 26,
      "start": 8.2951,
      "duration": 0.0921,
      "velocity": 120,
      "chip": "ym2612"
    },
    {
      "channel": 5,
      "note": 79,
      "start": 8.5529,
      "duration": 4.1602,
      "velocity": 78,
      "chip": "ym2612"
    },
    {
      "channel": 2,
      "note": 26,
      "start": 8.5546,
      "duration": 0.0926,
      "velocity": 120,
      "chip": "ym2612"
    },
    {
      "channel": 1,
      "note": 85,
      "start": 9.332,
      "duration": 2.0795,
      "velocity": 78,
      "chip": "ym2612"
    },
    {
      "channel": 2,
      "note": 103,
      "start": 9.3348,
      "duration": 0.1739,
      "velocity": 103,
      "chip": "ym2612"
    },
    {
      "channel": 3,
      "note": 97,
      "start": 10.373,
      "duration": 1.0393,
      "velocity": 78,
      "chip": "ym2612"
    },
    {
      "channel": 2,
      "note": 26,
      "start": 10.3754,
      "duration": 0.0922,
      "velocity": 120,
      "chip": "ym2612"
    },
    {
      "channel": 4,
      "note": 97,
      "start": 10.6328,
      "duration": 1.0366,
      "velocity": 78,
      "chip": "ym2612"
    },
    {
      "channel": 2,
      "note": 26,
      "start": 10.635,
      "duration": 0.0926,
      "velocity": 120,
      "chip": "ym2612"
    },
    {
      "channel": 1,
      "note": 85,
      "start": 11.4122,
      "duration": 1.0403,
      "velocity": 78,
      "chip": "ym2612"
    },
    {
      "channel": 3,
      "note": 91,
      "start": 11.413,
      "duration": 1.0403,
      "velocity": 78,
      "chip": "ym2612"
    },
    {
      "channel": 2,
      "note": 103,
      "start": 11.4154,
      "duration": 0.1736,
      "velocity": 103,
      "chip": "ym2612"
    },
    {
      "channel": 4,
      "note": 91,
      "start": 11.6701,
      "duration": 1.0422,
      "velocity": 78,
      "chip": "ym2612"
    },
    {
      "channel": 0,
      "note": 78,
      "start": 12.4524,
      "duration": 4.1619,
      "velocity": 111,
      "chip": "ym2612"
    },
    {
      "channel": 1,
      "note": 85,
      "start": 12.4531,
      "duration": 2.0791,
      "velocity": 78,
      "chip": "ym2612"
    },
    {
      "channel": 3,
      "note": 92,
      "start": 12.4539,
      "duration": 1.5554,
      "velocity": 78,
      "chip": "ym2612"
    },
    {
      "channel": 2,
      "note": 26,
      "start": 12.4563,
      "duration": 0.0914,
      "velocity": 120,
      "chip": "ym2612"
    },
    {
      "channel": 4,
      "note": 92,
      "start": 12.713,
      "duration": 1.5568,
      "velocity": 78,
      "chip": "ym2612"
    },
    {
      "channel": 5,
      "note": 78,
      "start": 12.7138,
      "duration": 4.1627,
      "velocity": 111,
      "chip": "ym2612"
    },
    {
      "channel": 2,
      "note": 26,
      "start": 12.7155,
      "duration": 0.0923,
      "velocity": 120,
      "chip": "ym2612"
    },
    {
      "channel": 2,
      "note": 103,
      "start": 13.4947,
      "duration": 0.1746,
      "velocity": 103,
      "chip": "ym2612"
    },
    {
      "channel": 3,
      "note": 93,
      "start": 14.01,
      "duration": 0.5231,
      "velocity": 78,
      "chip": "ym2612"
    },
    {
      "channel": 4,
      "note": 93,
      "start": 14.2704,
      "duration": 0.5221,
      "velocity": 78,
      "chip": "ym2612"
    },
    {
      "channel": 1,
      "note": 88,
      "start": 14.5329,
      "duration": 1.039,
      "velocity": 78,
      "chip": "ym2612"
    },
    {
      "channel": 3,
      "note": 90,
      "start": 14.5338,
      "duration": 2.0872,
      "velocity": 83,
      "chip": "ym2612"
    },
    {
      "channel": 2,
      "note": 103,
      "start": 14.5362,
      "duration": 0.173,
      "velocity": 103,
      "chip": "ym2612"
    },
    {
      "channel": 4,
      "note": 90,
      "start": 14.7932,
      "duration": 1.8312,
      "velocity": 83,
      "chip": "ym2612"
    },
    {
      "channel": 2,
      "note": 26,
      "start": 14.7954,
      "duration": 0.0926,
      "velocity": 120,
      "chip": "ym2612"
    },
    {
      "channel": 2,
      "note": 103,
      "start": 15.0548,
      "duration": 0.1239,
      "velocity": 103,
      "chip": "ym2612"
    },
    {
      "channel": 2,
      "note": 103,
      "start": 15.1848,
      "duration": 0.124,
      "velocity": 103,
      "chip": "ym2612"
    },
    {
      "channel": 2,
      "note": 103,
      "start": 15.3148,
      "duration": 0.124,
      "velocity": 103,
      "chip": "ym2612"
    },
    {
      "channel": 2,
      "note": 56,
      "start": 15.4449,
      "duration": 0.124,
      "velocity": 112,
      "chip": "ym2612"
    },
    {
      "channel": 1,
      "note": 85,
      "start": 15.5726,
      "duration": 1.045,
      "velocity": 103,
      "chip": "ym2612"
    },
    {
      "channel": 2,
      "note": 56,
      "start": 15.5754,
      "duration": 0.1234,
      "velocity": 112,
      "chip": "ym2612"
    },
    {
      "channel": 2,
      "note": 103,
      "start": 15.7048,
      "duration": 0.124,
      "velocity": 103,
      "chip": "ym2612"
    },
    {
      "channel": 2,
      "note": 103,
      "start": 15.8349,
      "duration": 0.124,
      "velocity": 103,
      "chip": "ym2612"
    },
    {
      "channel": 2,
      "note": 103,
      "start": 15.9649,
      "duration": 0.1239,
      "velocity": 103,
      "chip": "ym2612"
    },
    {
      "channel": 2,
      "note": 56,
      "start": 16.0949,
      "duration": 0.124,
      "velocity": 112,
      "chip": "ym2612"
    },
    {
      "channel": 2,
      "note": 103,
      "start": 16.2248,
      "duration": 0.1241,
      "velocity": 103,
      "chip": "ym2612"
    },
    {
      "channel": 2,
      "note": 56,
      "start": 16.355,
      "duration": 0.1239,
      "velocity": 112,
      "chip": "ym2612"
    },
    {
      "channel": 2,
      "note": 26,
      "start": 16.4848,
      "duration": 0.0933,
      "velocity": 120,
      "chip": "ym2612"
    },
    {
      "channel": 0,
      "note": 45,
      "start": 16.6149,
      "duration": 0.1268,
      "velocity": 111,
      "chip": "ym2612"
    },
    {
      "channel": 1,
      "note": 42,
      "start": 16.6183,
      "duration": 0.1242,
      "velocity": 103,
      "chip": "ym2612"
    },
    {
      "channel": 3,
      "note": 90,
      "start": 16.6216,
      "duration": 1.0318,
      "velocity": 83,
      "chip": "ym2612"
    },
    {
      "channel": 4,
      "note": 97,
      "start": 16.6251,
      "duration": 2.0693,
      "velocity": 83,
      "chip": "ym2612"
    },
    {
      "channel": 2,
      "note": 26,
      "start": 16.627,
      "duration": 0.081,
      "velocity": 120,
      "chip": "ym2612"
    },
    {
      "channel": 0,
      "note": 93,
      "start": 16.7423,
      "duration": 0.1294,
      "velocity": 111,
      "chip": "ym2612"
    },
    {
      "channel": 1,
      "note": 42,
      "start": 16.7431,
      "duration": 0.1294,
      "velocity": 103,
      "chip": "ym2612"
    },
    {
      "channel": 2,
      "note": 103,
      "start": 16.7457,
      "duration": 0.1232,
      "velocity": 103,
      "chip": "ym2612"
    },
    {
      "channel": 0,
      "note": 97,
      "start": 16.8723,
      "duration": 0.1295,
      "velocity": 111,
      "chip": "ym2612"
    },
    {
      "channel": 1,
      "note": 42,
      "start": 16.8732,
      "duration": 0.1295,
      "velocity": 103,
      "chip": "ym2612"
    },
    {
      "channel": 5,
      "note": 45,
      "start": 16.8772,
      "duration": 0.1269,
      "velocity": 111,
      "chip": "ym2612"
    },
    {
      "channel": 2,
      "note": 103,
      "start": 16.8789,
      "duration": 0.1201,
      "velocity": 103,
      "chip": "ym2612"
    },
    {
      "channel": 0,
      "note": 93,
      "start": 17.0025,
      "duration": 0.1292,
      "velocity": 111,
      "chip": "ym2612"
    },
    {
      "channel": 1,
      "note": 42,
      "start": 17.0032,
      "duration": 0.1293,
      "velocity": 103,
      "chip": "ym2612"
    },
    {
      "channel": 5,
      "note": 93,
      "start": 17.0048,
      "duration": 0.1289,
      "velocity": 111,
      "chip": "ym2612"
    },
    {
      "channel": 2,
      "note": 26,
      "start": 17.0064,
      "duration": 0.0917,
      "velocity": 120,
      "chip": "ym2612"
    },
    {
      "channel": 0,
      "note": 90,
      "start": 17.1324,
      "duration": 0.1294,
      "velocity": 111,
      "chip": "ym2612"
    },
    {
      "channel": 5,
      "note": 97,
      "start": 17.1344,
      "duration": 0.1296,
      "velocity": 111,
      "chip": "ym2612"
    },
    {
      "channel": 2,
      "note": 56,
      "start": 17.1361,
      "duration": 0.1228,
      "velocity": 112,
      "chip": "ym2612"
    },
    {
      "channel": 0,
      "note": 93,
      "start": 17.2624,
      "duration": 0.1294,
      "velocity": 111,
      "chip": "ym2612"
    },
    {
      "channel": 1,
      "note": 45,
      "start": 17.2632,
      "duration": 0.1294,
      "velocity": 103,
      "chip": "ym2612"
    },
    {
      "channel": 5,
      "note": 93,
      "start": 17.2647,
      "duration": 0.1291,
      "velocity": 111,
      "chip": "ym2612"
    },
    {
      "channel": 2,
      "note": 103,
      "start": 17.2665,
      "duration": 0.1225,
      "velocity": 103,
      "chip": "ym2612"
    },
    {
      "channel": 0,
      "note": 97,
      "start": 17.3925,
      "duration": 0.1293,
      "velocity": 111,
      "chip": "ym2612"
    },
    {
      "channel": 5,
      "note": 90,
      "start": 17.3945,
      "duration": 0.1296,
      "velocity": 111,
      "chip": "ym2612"
    },
    {
      "channel": 2,
      "note": 26,
      "start": 17.3961,
      "duration": 0.0919,
      "velocity": 120,
      "chip": "ym2612"
    },
    {
      "channel": 0,
      "note": 93,
      "start": 17.5224,
      "duration": 0.1294,
      "velocity": 111,
      "chip": "ym2612"
    },
    {
      "channel": 1,
      "note": 45,
      "start": 17.5232,
      "duration": 0.1295,
      "velocity": 103,
      "chip": "ym2612"
    },
    {
      "channel": 5,
      "note": 93,
      "start": 17.5247,
      "duration": 0.1298,
      "velocity": 111,
      "chip": "ym2612"
    },
    {
      "channel": 2,
      "note": 103,
      "start": 17.5265,
      "duration": 0.1226,
      "velocity": 103,
      "chip": "ym2612"
    },
    {
      "channel": 0,
      "note": 92,
      "start": 17.6525,
      "duration": 0.1293,
      "velocity": 111,
      "chip": "ym2612"
    },
    {
      "channel": 1,
      "note": 45,
      "start": 17.6533,
      "duration": 0.1293,
      "velocity": 103,
      "chip": "ym2612"
    },
    {
      "channel": 3,
      "note": 88,
      "start": 17.6541,
      "duration": 1.0394,
      "velocity": 83,
      "chip": "ym2612"
    },
    {
      "channel": 5,
      "note": 97,
      "start": 17.6553,
      "duration": 0.1285,
      "velocity": 111,
      "chip": "ym2612"
    },
    {
      "channel": 2,
      "note": 103,
      "start": 17.657,
      "duration": 0.122,
      "velocity": 103,
      "chip": "ym2612"
    },
    {
      "channel": 0,
      "note": 93,
      "start": 17.7825,
      "duration": 0.1293,
      "velocity": 111,
      "chip": "ym2612"
    },
    {
      "channel": 5,
      "note": 93,
      "start": 17.7845,
      "duration": 0.1289,
      "velocity": 111,
      "chip": "ym2612"
    },
    {
      "channel": 2,
      "note": 26,
      "start": 17.7861,
      "duration": 0.0919,
      "velocity": 120,
      "chip": "ym2612"
    },
    {
      "channel": 0,
      "note": 97,
      "start": 17.9125,
      "duration": 0.1293,
      "velocity": 111,
      "chip": "ym2612"
    },
    {
      "channel": 5,
      "note": 92,
      "start": 17.9141,
      "duration": 0.1299,
      "velocity": 111,
      "chip": "ym2612"
    },
    {
      "channel": 2,
      "note": 103,
      "start": 17.9159,
      "duration": 0.1232,
      "velocity": 103,
      "chip": "ym2612"
    },
    {
      "channel": 0,
      "note": 92,
      "start": 18.0424,
      "duration": 0.1294,
      "velocity": 111,
      "chip": "ym2612"
    },
    {
      "channel": 1,
      "note": 42,
      "start": 18.0433,
      "duration": 0.1294,
      "velocity": 103,
      "chip": "ym2612"
    },
    {
      "channel": 5,
      "note": 93,
      "start": 18.0447,
      "duration": 0.1293,
      "velocity": 111,
      "chip": "ym2612"
    },
    {
      "channel": 2,
      "note": 26,
      "start": 18.0464,
      "duration": 0.0919,
      "velocity": 120,
      "chip": "ym2612"
    },
    {
      "channel": 0,
      "note": 90,
      "start": 18.1724,
      "duration": 0.1294,
      "velocity": 111,
      "chip": "ym2612"
    },
    {
      "channel": 1,
      "note": 44,
      "start": 18.1733,
      "duration": 0.1294,
      "velocity": 103,
      "chip": "ym2612"
    },
    {
      "channel": 5,
      "note": 97,
      "start": 18.1747,
      "duration": 0.1294,
      "velocity": 111,
      "chip": "ym2612"
    },
    {
      "channel": 2,
      "note": 56,
      "start": 18.1765,
      "duration": 0.1225,
      "velocity": 112,
      "chip": "ym2612"
    },
    {
      "channel": 0,
      "note": 93,
      "start": 18.3025,
      "duration": 0.1293,
      "velocity": 111,
      "chip": "ym2612"
    },
    {
      "channel": 1,
      "note": 42,
      "start": 18.3033,
      "duration": 0.1293,
      "velocity": 103,
      "chip": "ym2612"
    },
    {
      "channel": 5,
      "note": 92,
      "start": 18.3048,
      "duration": 0.1294,
      "velocity": 111,
      "chip": "ym2612"
    },
    {
      "channel": 2,
      "note": 103,
      "start": 18.3065,
      "duration": 0.1226,
      "velocity": 103,
      "chip": "ym2612"
    },
    {
      "channel": 0,
      "note": 97,
      "start": 18.4325,
      "duration": 0.1293,
      "velocity": 111,
      "chip": "ym2612"
    },
    {
      "channel": 1,
      "note": 40,
      "start": 18.4333,
      "duration": 0.1293,
      "velocity": 103,
      "chip": "ym2612"
    },
    {
      "channel": 5,
      "note": 90,
      "start": 18.4348,
      "duration": 0.1293,
      "velocity": 111,
      "chip": "ym2612"
    },
    {
      "channel": 2,
      "note": 103,
      "start": 18.4365,
      "duration": 0.1226,
      "velocity": 103,
      "chip": "ym2612"
    },
    {
      "channel": 0,
      "note": 93,
      "start": 18.5625,
      "duration": 0.1295,
      "velocity": 111,
      "chip": "ym2612"
    },
    {
      "channel": 1,
      "note": 42,
      "start": 18.5633,
      "duration": 0.1295,
      "velocity": 103,
      "chip": "ym2612"
    },
    {
      "channel": 5,
      "note": 93,
      "start": 18.5648,
      "duration": 0.1303,
      "velocity": 111,
      "chip": "ym2612"
    },
    {
      "channel": 2,
      "note": 26,
      "start": 18.5666,
      "duration": 0.0917,
      "velocity": 120,
      "chip": "ym2612"
    },
    {
      "channel": 0,
      "note": 45,
      "start": 18.6926,
      "duration": 0.1293,
      "velocity": 111,
      "chip": "ym2612"
    },
    {
      "channel": 1,
      "note": 42,
      "start": 18.6934,
      "duration": 0.1293,
      "velocity": 103,
      "chip": "ym2612"
    },
    {
      "channel": 3,
      "note": 90,
      "start": 18.6942,
      "duration": 1.0394,
      "velocity": 83,
      "chip": "ym2612"
    },
    {
      "channel": 4,
      "note": 104,
      "start": 18.695,
      "duration": 2.0796,
      "velocity": 83,
      "chip": "ym2612"
    },
    {
      "channel": 5,
      "note": 97,
      "start": 18.6959,
      "duration": 0.1282,
      "velocity": 111,
      "chip": "ym2612"
    },
    {
      "channel": 2,
      "note": 26,
      "start": 18.6975,
      "duration": 0.0907,
      "velocity": 120,
      "chip": "ym2612"
    },
    {
      "channel": 0,
      "note": 93,
      "start": 18.8225,
      "duration": 0.1295,
      "velocity": 111,
      "chip": "ym2612"
    },
    {
      "channel": 1,
      "note": 42,
      "start": 18.8234,
      "duration": 0.1295,
      "velocity": 103,
      "chip": "ym2612"
    },
    {
      "channel": 5,
      "note": 93,
      "start": 18.8247,
      "duration": 0.1295,
      "velocity": 111,
      "chip": "ym2612"
    },
    {
      "channel": 2,
      "note": 103,
      "start": 18.8265,
      "duration": 0.1227,
      "velocity": 103,
      "chip": "ym2612"
    },
    {
      "channel": 0,
      "note": 97,
      "start": 18.9527,
      "duration": 0.1293,
      "velocity": 111,
      "chip": "ym2612"
    },
    {
      "channel": 1,
      "note": 42,
      "start": 18.9534,
      "duration": 0.1293,
      "velocity": 103,
      "chip": "ym2612"
    },
    {
      "channel": 5,
      "note": 45,
      "start": 18.9549,
      "duration": 0.1293,
      "velocity": 111,
      "chip": "ym2612"
    },
    {
      "channel": 2,
      "note": 103,
      "start": 18.9566,
      "duration": 0.1225,
      "velocity": 103,
      "chip": "ym2612"
    },
    {
      "channel": 0,
      "note": 93,
      "start": 19.0826,
      "duration": 0.1293,
      "velocity": 111,
      "chip": "ym2612"
    },
    {
      "channel": 1,
      "note": 42,
      "start": 19.0835,
      "duration": 0.1293,
      "velocity": 103,
      "chip": "ym2612"
    },
    {
      "channel": 5,
      "note": 93,
      "start": 19.0849,
      "duration": 0.129,
      "velocity": 111,
      "chip": "ym2612"
    },
    {
      "channel": 2,
      "note": 26,
      "start": 19.0866,
      "duration": 0.0917,
      "velocity": 120,
      "chip": "ym2612"
    },
    {
      "channel": 0,
      "note": 90,
      "start": 19.2127,
      "duration": 0.1293,
      "velocity": 111,
      "chip": "ym2612"
    },
    {
      "channel": 5,
      "note": 97,
      "start": 19.2146,
      "duration": 0.1296,
      "velocity": 111,
      "chip": "ym2612"
    },
    {
      "channel": 2,
      "note": 56,
      "start": 19.2164,
      "duration": 0.1228,
      "velocity": 112,
      "chip": "ym2612"
    },
    {
      "channel": 0,
      "note": 93,
      "start": 19.3426,
      "duration": 0.1293,
      "velocity": 111,
      "chip": "ym2612"
    },
    {
      "channel": 1,
      "note": 45,
      "start": 19.3434,
      "duration": 0.1293,
      "velocity": 103,
      "chip": "ym2612"
    },
    {
      "channel": 5,
      "note": 93,
      "start": 19.3449,
      "duration": 0.1289,
      "velocity": 111,
      "chip": "ym2612"
    },
    {
      "channel": 2,
      "note": 103,
      "start": 19.3466,
      "duration": 0.1225,
      "velocity": 103,
      "chip": "ym2612"
    },
    {
      "channel": 0,
      "note": 97,
      "start": 19.4726,
      "duration": 0.1294,
      "velocity": 111,
      "chip": "ym2612"
    },
    {
      "channel": 5,
      "note": 90,
      "start": 19.4746,
      "duration": 0.1297,
      "velocity": 111,
      "chip": "ym2612"
    },
    {
      "channel": 2,
      "note": 26,
      "start": 19.4762,
      "duration": 0.092,
      "velocity": 120,
      "chip": "ym2612"
    },
    {
      "channel": 0,
      "note": 93,
      "start": 19.6027,
      "duration": 0.1293,
      "velocity": 111,
      "chip": "ym2612"
    },
    {
      "channel": 1,
      "note": 45,
      "start": 19.6034,
      "duration": 0.1294,
      "velocity": 103,
      "chip": "ym2612"
    },
    {
      "channel": 5,
      "note": 93,
      "start": 19.605,
      "duration": 0.1298,
      "velocity": 111,
      "chip": "ym2612"
    },
    {
      "channel": 2,
      "note": 103,
      "start": 19.6067,
      "duration": 0.1225,
      "velocity": 103,
      "chip": "ym2612"
    },
    {
      "channel": 0,
      "note": 92,
      "start": 19.7326,
      "duration": 0.1294,
      "velocity": 111,
      "chip": "ym2612"
    },
    {
      "channel": 1,
      "note": 45,
      "start": 19.7335,
      "duration": 0.1294,
      "velocity": 103,
      "chip": "ym2612"
    },
    {
      "channel": 3,
      "note": 93,
      "start": 19.7343,
      "duration": 1.0395,
      "velocity": 83,
      "chip": "ym2612"
    },
    {
      "channel": 5,
      "note": 97,
      "start": 19.7355,
      "duration": 0.1284,
      "velocity": 111,
      "chip": "ym2612"
    },
    {
      "channel": 2,
      "note": 103,
      "start": 19.7372,
      "duration": 0.122,
      "velocity": 103,
      "chip": "ym2612"
    },
    {
      "channel": 0,
      "note": 93,
      "start": 19.8627,
      "duration": 0.1293,
      "velocity": 111,
      "chip": "ym2612"
    },
    {
      "channel": 5,
      "note": 93,
      "start": 19.8646,
      "duration": 0.129,
      "velocity": 111,
      "chip": "ym2612"
    },
    {
      "channel": 2,
      "note": 26,
      "start": 19.8663,
      "duration": 0.0919,
      "velocity": 120,
      "chip": "ym2612"
    },
    {
      "channel": 0,
      "note": 97,
      "start": 19.9926,
      "duration": 0.1294,
      "velocity": 111,
      "chip": "ym2612"
    },
    {
      "channel": 5,
      "note": 92,
      "start": 19.9943,
      "duration": 0.13,
      "velocity": 111,
      "chip": "ym2612"
    },
    {
      "channel": 2,
      "note": 103,
      "start": 19.996,
      "duration": 0.1232,
      "velocity": 103,
      "chip": "ym2612"
    },
    {
      "channel": 0,
      "note": 92,
      "start": 20.1227,
      "duration": 0.1294,
      "velocity": 111,
      "chip": "ym2612"
    },
    {
      "channel": 1,
      "note": 42,
      "start": 20.1235,
      "duration": 0.1295,
      "velocity": 103,
      "chip": "ym2612"
    },
    {
      "channel": 5,
      "note": 93,
      "start": 20.125,
      "duration": 0.1293,
      "velocity": 111,
      "chip": "ym2612"
    },
    {
      "channel": 2,
      "note": 26,
      "start": 20.1267,
      "duration": 0.0918,
      "velocity": 120,
      "chip": "ym2612"
    },
    {
      "channel": 0,
      "note": 90,
      "start": 20.2527,
      "duration": 0.1293,
      "velocity": 111,
      "chip": "ym2612"
    },
    {
      "channel": 1,
      "note": 44,
      "start": 20.2536,
      "duration": 0.1293,
      "velocity": 103,
      "chip": "ym2612"
    },
    {
      "channel": 5,
      "note": 97,
      "start": 20.255,
      "duration": 0.1293,
      "velocity": 111,
      "chip": "ym2612"
    },
    {
      "channel": 2,
      "note": 56,
      "start": 20.2568,
      "duration": 0.1225,
      "velocity": 112,
      "chip": "ym2612"
    },
    {
      "channel": 0,
      "note": 93,
      "start": 20.3827,
      "duration": 0.1293,
      "velocity": 111,
      "chip": "ym2612"
    },
    {
      "channel": 1,
      "note": 42,
      "start": 20.3835,
      "duration": 0.1293,
      "velocity": 103,
      "chip": "ym2612"
    },
    {
      "channel": 5,
      "note": 92,
      "start": 20.3851,
      "duration": 0.1293,
      "velocity": 111,
      "chip": "ym2612"
    },
    {
      "channel": 2,
      "note": 103,
      "start": 20.3868,
      "duration": 0.1225,
      "velocity": 103,
      "chip": "ym2612"
    },
    {
      "channel": 0,
      "note": 97,
      "start": 20.5127,
      "duration": 0.1293,
      "velocity": 111,
      "chip": "ym2612"
    },
    {
      "channel": 1,
      "note": 40,
      "start": 20.5135,
      "duration": 0.1294,
      "velocity": 103,
      "chip": "ym2612"
    },
    {
      "channel": 5,
      "note": 90,
      "start": 20.5149,
      "duration": 0.1294,
      "velocity": 111,
      "chip": "ym2612"
    },
    {
      "channel": 2,
      "note": 103,
      "start": 20.5167,
      "duration": 0.1226,
      "velocity": 103,
      "chip": "ym2612"
    },
    {
      "channel": 0,
      "note": 93,
      "start": 20.6427,
      "duration": 0.1295,
      "velocity": 111,
      "chip": "ym2612"
    },
    {
      "channel": 1,
      "note": 42,
      "start": 20.6435,
      "duration": 0.1295,
      "velocity": 103,
      "chip": "ym2612"
    },
    {
      "channel": 5,
      "note": 93,
      "start": 20.645,
      "duration": 0.1304,
      "velocity": 111,
      "chip": "ym2612"
    },
    {
      "channel": 2,
      "note": 26,
      "start": 20.6467,
      "duration": 0.0918,
      "velocity": 120,
      "chip": "ym2612"
    },
    {
      "channel": 0,
      "note": 45,
      "start": 20.7728,
      "duration": 0.1293,
      "velocity": 111,
      "chip": "ym2612"
    },
    {
      "channel": 1,
      "note": 38,
      "start": 20.7737,
      "duration": 0.1293,
      "velocity": 103,
      "chip": "ym2612"
    },
    {
      "channel": 3,
      "note": 95,
      "start": 20.7745,
      "duration": 1.0387,
      "velocity": 83,
      "chip": "ym2612"
    },
    {
      "channel": 4,
      "note": 102,
      "start": 20.7753,
      "duration": 2.0795,
      "velocity": 83,
      "chip": "ym2612"
    },
    {
      "channel": 5,
      "note": 97,
      "start": 20.7761,
      "duration": 0.1282,
      "velocity": 111,
      "chip": "ym2612"
    },
    {
      "channel": 2,
      "note": 26,
      "start": 20.7778,
      "duration": 0.0907,
      "velocity": 120,
      "chip": "ym2612"
    },
    {
      "channel": 0,
      "note": 90,
      "start": 20.9028,
      "duration": 0.1293,
      "velocity": 111,
      "chip": "ym2612"
    },
    {
      "channel": 1,
      "note": 38,
      "start": 20.9036,
      "duration": 0.1293,
      "velocity": 103,
      "chip": "ym2612"
    },
    {
      "channel": 5,
      "note": 93,
      "start": 20.905,
      "duration": 0.1291,
      "velocity": 111,
      "chip": "ym2612"
    },
    {
      "channel": 2,
      "note": 103,
      "start": 20.9068,
      "duration": 0.1226,
      "velocity": 103,
      "chip": "ym2612"
    },
    {
      "channel": 0,
      "note": 93,
      "start": 21.0328,
      "duration": 0.1294,
      "velocity": 111,
      "chip": "ym2612"
    },
    {
      "channel": 5,
      "note": 45,
      "start": 21.0347,
      "duration": 0.1291,
      "velocity": 111,
      "chip": "ym2612"
    },
    {
      "channel": 2,
      "note": 103,
      "start": 21.0365,
      "duration": 0.1229,
      "velocity": 103,
      "chip": "ym2612"
    },
    {
      "channel": 0,
      "note": 90,
      "start": 21.1628,
      "duration": 0.1293,
      "velocity": 111,
      "chip": "ym2612"
    },
    {
      "channel": 5,
      "note": 90,
      "start": 21.1644,
      "duration": 0.13,
      "velocity": 111,
      "chip": "ym2612"
    },
    {
      "channel": 2,
      "note": 26,
      "start": 21.1661,
      "duration": 0.0922,
      "velocity": 120,
      "chip": "ym2612"
    },
    {
      "channel": 0,
      "note": 86,
      "start": 21.2928,
      "duration": 0.1293,
      "velocity": 111,
      "chip": "ym2612"
    },
    {
      "channel": 1,
      "note": 38,
      "start": 21.2936,
      "duration": 0.1294,
      "velocity": 103,
      "chip": "ym2612"
    },
    {
      "channel": 5,
      "note": 93,
      "start": 21.2951,
      "duration": 0.1293,
      "velocity": 111,
      "chip": "ym2612"
    },
    {
      "channel": 2,
      "note": 56,
      "start": 21.2968,
      "duration": 0.1225,
      "velocity": 112,
      "chip": "ym2612"
    },
    {
      "channel": 0,
      "note": 88,
      "start": 21.4228,
      "duration": 0.1295,
      "velocity": 111,
      "chip": "ym2612"
    },
    {
      "channel": 1,
      "note": 38,
      "start": 21.4236,
      "duration": 0.1295,
      "velocity": 103,
      "chip": "ym2612"
    },
    {
      "channel": 5,
      "note": 90,
      "start": 21.4251,
      "duration": 0.1291,
      "velocity": 111,
      "chip": "ym2612"
    },
    {
      "channel": 2,
      "note": 103,
      "start": 21.4268,
      "duration": 0.1227,
      "velocity": 103,
      "chip": "ym2612"
    },
    {
      "channel": 0,
      "note": 93,
      "start": 21.5529,
      "duration": 0.1292,
      "velocity": 111,
      "chip": "ym2612"
    },
    {
      "channel": 5,
      "note": 86,
      "start": 21.5549,
      "duration": 0.129,
      "velocity": 111,
      "chip": "ym2612"
    },
    {
      "channel": 2,
      "note": 26,
      "start": 21.5566,
      "duration": 0.0919,
      "velocity": 120,
      "chip": "ym2612"
    },
    {
      "channel": 0,
      "note": 88,
      "start": 21.6828,
      "duration": 0.1294,
      "velocity": 111,
      "chip": "ym2612"
    },
    {
      "channel": 5,
      "note": 88,
      "start": 21.6845,
      "duration": 0.1298,
      "velocity": 111,
      "chip": "ym2612"
    },
    {
      "channel": 2,
      "note": 103,
      "start": 21.6862,
      "duration": 0.1232,
      "velocity": 103,
      "chip": "ym2612"
    },
    {
      "channel": 0,
      "note": 86,
      "start": 21.8129,
      "duration": 0.1293,
      "velocity": 111,
      "chip": "ym2612"
    },
    {
      "channel": 3,
      "note": 90,
      "start": 21.8139,
      "duration": 1.0401,
      "velocity": 83,
      "chip": "ym2612"
    },
    {
      "channel": 5,
      "note": 93,
      "start": 21.815,
      "duration": 0.1294,
      "velocity": 111,
      "chip": "ym2612"
    },
    {
      "channel": 2,
      "note": 103,
      "start": 21.8168,
      "duration": 0.1226,
      "velocity": 103,
      "chip": "ym2612"
    },
    {
      "channel": 0,
      "note": 88,
      "start": 21.9429,
      "duration": 0.1293,
      "velocity": 111,
      "chip": "ym2612"
    },
    {
      "channel": 1,
      "note": 38,
      "start": 21.9437,
      "duration": 0.3895,
      "velocity": 103,
      "chip": "ym2612"
    },
    {
      "channel": 5,
      "note": 88,
      "start": 21.9451,
      "duration": 0.1288,
      "velocity": 111,
      "chip": "ym2612"
    },
    {
      "channel": 2,
      "note": 26,
      "start": 21.9468,
      "duration": 0.0918,
      "velocity": 120,
      "chip": "ym2612"
    },
    {
      "channel": 0,
      "note": 90,
      "start": 22.0728,
      "duration": 0.1294,
      "velocity": 111,
      "chip": "ym2612"
    },
    {
      "channel": 5,
      "note": 86,
      "start": 22.0746,
      "duration": 0.1294,
      "velocity": 111,
      "chip": "ym2612"
    },
    {
      "channel": 2,
      "note": 103,
      "start": 22.0763,
      "duration": 0.1231,
      "velocity": 103,
      "chip": "ym2612"
    },
    {
      "channel": 0,
      "note": 88,
      "start": 22.2029,
      "duration": 0.1293,
      "velocity": 111,
      "chip": "ym2612"
    },
    {
      "channel": 5,
      "note": 88,
      "start": 22.2047,
      "duration": 0.1296,
      "velocity": 111,
      "chip": "ym2612"
    },
    {
      "channel": 2,
      "note": 26,
      "start": 22.2064,
      "duration": 0.0922,
      "velocity": 120,
      "chip": "ym2612"
    },
    {
      "channel": 0,
      "note": 93,
      "start": 22.3329,
      "duration": 0.1293,
      "velocity": 111,
      "chip": "ym2612"
    },
    {
      "channel": 5,
      "note": 90,
      "start": 22.3349,
      "duration": 0.1296,
      "velocity": 111,
      "chip": "ym2612"
    },
    {
      "channel": 2,
      "note": 56,
      "start": 22.3367,
      "duration": 0.1228,
      "velocity": 112,
      "chip": "ym2612"
    },
    {
      "channel": 0,
      "note": 90,
      "start": 22.4629,
      "duration": 0.1293,
      "velocity": 111,
      "chip": "ym2612"
    },
    {
      "channel": 1,
      "note": 38,
      "start": 22.4637,
      "duration": 0.1294,
      "velocity": 103,
      "chip": "ym2612"
    },
    {
      "channel": 5,
      "note": 88,
      "start": 22.4651,
      "duration": 0.1291,
      "velocity": 111,
      "chip": "ym2612"
    },
    {
      "channel": 2,
      "note": 103,
      "start": 22.4669,
      "duration": 0.1226,
      "velocity": 103,
      "chip": "ym2612"
    },
    {
      "channel": 0,
      "note": 93,
      "start": 22.5929,
      "duration": 0.1293,
      "velocity": 111,
      "chip": "ym2612"
    },
    {
      "channel": 5,
      "note": 93,
      "start": 22.5949,
      "duration": 0.1296,
      "velocity": 111,
      "chip": "ym2612"
    },
    {
      "channel": 2,
      "note": 103,
      "start": 22.5966,
      "duration": 0.1229,
      "velocity": 103,
      "chip": "ym2612"
    },
    {
      "channel": 0,
      "note": 97,
      "start": 22.723,
      "duration": 0.1295,
      "velocity": 111,
      "chip": "ym2612"
    },
    {
      "channel": 1,
      "note": 40,
      "start": 22.7237,
      "duration": 0.1295,
      "velocity": 103,
      "chip": "ym2612"
    },
    {
      "channel": 5,
      "note": 90,
      "start": 22.7252,
      "duration": 0.1305,
      "velocity": 111,
      "chip": "ym2612"
    },
    {
      "channel": 2,
      "note": 26,
      "start": 22.7268,
      "duration": 0.0919,
      "velocity": 120,
      "chip": "ym2612"
    },
    {
      "channel": 0,
      "note": 45,
      "start": 22.8531,
      "duration": 0.1292,
      "velocity": 111,
      "chip": "ym2612"
    },
    {
      "channel": 1,
      "note": 40,
      "start": 22.8539,
      "duration": 0.1292,
      "velocity": 103,
      "chip": "ym2612"
    },
    {
      "channel": 3,
      "note": 88,
      "start": 22.8547,
      "duration": 1.0386,
      "velocity": 83,
      "chip": "ym2612"
    },
    {
      "channel": 4,
      "note": 100,
      "start": 22.8555,
      "duration": 2.0899,
      "velocity": 83,
      "chip": "ym2612"
    },
    {
      "channel": 5,
      "note": 93,
      "start": 22.8564,
      "duration": 0.1281,
      "velocity": 111,
      "chip": "ym2612"
    },
    {
      "channel": 2,
      "note": 26,
      "start": 22.858,
      "duration": 0.0906,
      "velocity": 120,
      "chip": "ym2612"
    },
    {
      "channel": 0,
      "note": 92,
      "start": 22.9829,
      "duration": 0.1294,
      "velocity": 111,
      "chip": "ym2612"
    },
    {
      "channel": 1,
      "note": 40,
      "start": 22.9837,
      "duration": 0.1294,
      "velocity": 103,
      "chip": "ym2612"
    },
    {
      "channel": 5,
      "note": 97,
      "start": 22.9852,
      "duration": 0.1291,
      "velocity": 111,
      "chip": "ym2612"
    },
    {
      "channel": 2,
      "note": 103,
      "start": 22.9869,
      "duration": 0.1226,
      "velocity": 103,
      "chip": "ym2612"
    },
    {
      "channel": 0,
      "note": 95,
      "start": 23.1129,
      "duration": 0.1294,
      "velocity": 111,
      "chip": "ym2612"
    },
    {
      "channel": 5,
      "note": 45,
      "start": 23.1149,
      "duration": 0.1291,
      "velocity": 111,
      "chip": "ym2612"
    },
    {
      "channel": 2,
      "note": 103,
      "start": 23.1167,
      "duration": 0.1228,
      "velocity": 103,
      "chip": "ym2612"
    },
    {
      "channel": 0,
      "note": 92,
      "start": 23.2429,
      "duration": 0.1294,
      "velocity": 111,
      "chip": "ym2612"
    },
    {
      "channel": 5,
      "note": 92,
      "start": 23.2446,
      "duration": 0.13,
      "velocity": 111,
      "chip": "ym2612"
    },
    {
      "channel": 2,
      "note": 26,
      "start": 23.2463,
      "duration": 0.0923,
      "velocity": 120,
      "chip": "ym2612"
    },
    {
      "channel": 0,
      "note": 88,
      "start": 23.373,
      "duration": 0.1293,
      "velocity": 111,
      "chip": "ym2612"
    },
    {
      "channel": 1,
      "note": 40,
      "start": 23.3738,
      "duration": 0.1294,
      "velocity": 103,
      "chip": "ym2612"
    },
    {
      "channel": 5,
      "note": 95,
      "start": 23.3753,
      "duration": 0.1293,
      "velocity": 111,
      "chip": "ym2612"
    },
    {
      "channel": 2,
      "note": 56,
      "start": 23.377,
      "duration": 0.1225,
      "velocity": 112,
      "chip": "ym2612"
    },
    {
      "channel": 0,
      "note": 92,
      "start": 23.5031,
      "duration": 0.1293,
      "velocity": 111,
      "chip": "ym2612"
    },
    {
      "channel": 1,
      "note": 40,
      "start": 23.5038,
      "duration": 0.1294,
      "velocity": 103,
      "chip": "ym2612"
    },
    {
      "channel": 5,
      "note": 92,
      "start": 23.5054,
      "duration": 0.129,
      "velocity": 111,
      "chip": "ym2612"
    },
    {
      "channel": 2,
      "note": 103,
      "start": 23.5071,
      "duration": 0.1225,
      "velocity": 103,
      "chip": "ym2612"
    },
    {
      "channel": 0,
      "note": 95,
      "start": 23.6331,
      "duration": 0.1293,
      "velocity": 111,
      "chip": "ym2612"
    },
    {
      "channel": 5,
      "note": 88,
      "start": 23.6351,
      "duration": 0.1289,
      "velocity": 111,
      "chip": "ym2612"
    },
    {
      "channel": 2,
      "note": 26,
      "start": 23.6367,
      "duration": 0.0919,
      "velocity": 120,
      "chip": "ym2612"
    },
    {
      "channel": 0,
      "note": 92,
      "start": 23.763,
      "duration": 0.1294,
      "velocity": 111,
      "chip": "ym2612"
    },
    {
      "channel": 5,
      "note": 92,
      "start": 23.7646,
      "duration": 0.1298,
      "velocity": 111,
      "chip": "ym2612"
    },
    {
      "channel": 2,
      "note": 103,
      "start": 23.7664,
      "duration": 0.1232,
      "velocity": 103,
      "chip": "ym2612"
    },
    {
      "channel": 0,
      "note": 88,
      "start": 23.893,
      "duration": 0.1294,
      "velocity": 111,
      "chip": "ym2612"
    },
    {
      "channel": 3,
      "note": 92,
      "start": 23.894,
      "duration": 1.0479,
      "velocity": 83,
      "chip": "ym2612"
    },
    {
      "channel": 5,
      "note": 95,
      "start": 23.8952,
      "duration": 0.1295,
      "velocity": 111,
      "chip": "ym2612"
    },
    {
      "channel": 2,
      "note": 103,
      "start": 23.8969,
      "duration": 0.1227,
      "velocity": 103,
      "chip": "ym2612"
    },
    {
      "channel": 0,
      "note": 90,
      "start": 24.0231,
      "duration": 0.1293,
      "velocity": 111,
      "chip": "ym2612"
    },
    {
      "channel": 1,
      "note": 40,
      "start": 24.0239,
      "duration": 0.1294,
      "velocity": 103,
      "chip": "ym2612"
    },
    {
      "channel": 5,
      "note": 92,
      "start": 24.0253,
      "duration": 0.1293,
      "velocity": 111,
      "chip": "ym2612"
    },
    {
      "channel": 2,
      "note": 26,
      "start": 24.027,
      "duration": 0.0918,
      "velocity": 120,
      "chip": "ym2612"
    },
    {
      "channel": 0,
      "note": 92,
      "start": 24.1531,
      "duration": 0.1293,
      "velocity": 111,
      "chip": "ym2612"
    },
    {
      "channel": 1,
      "note": 40,
      "start": 24.1539,
      "duration": 0.1294,
      "velocity": 103,
      "chip": "ym2612"
    },
    {
      "channel": 5,
      "note": 88,
      "start": 24.1554,
      "duration": 0.1293,
      "velocity": 111,
      "chip": "ym2612"
    },
    {
      "channel": 2,
      "note": 103,
      "start": 24.1571,
      "duration": 0.1225,
      "velocity": 103,
      "chip": "ym2612"
    },
    {
      "channel": 0,
      "note": 95,
      "start": 24.2831,
      "duration": 0.1293,
      "velocity": 111,
      "chip": "ym2612"
    },
    {
      "channel": 1,
      "note": 40,
      "start": 24.2839,
      "duration": 0.1293,
      "velocity": 103,
      "chip": "ym2612"
    },
    {
      "channel": 5,
      "note": 90,
      "start": 24.2854,
      "duration": 0.1293,
      "velocity": 111,
      "chip": "ym2612"
    },
    {
      "channel": 2,
      "note": 26,
      "start": 24.287,
      "duration": 0.0918,
      "velocity": 120,
      "chip": "ym2612"
    },
    {
      "channel": 0,
      "note": 90,
      "start": 24.413,
      "duration": 0.1294,
      "velocity": 111,
      "chip": "ym2612"
    },
    {
      "channel": 1,
      "note": 41,
      "start": 24.4139,
      "duration": 0.1294,
      "velocity": 103,
      "chip": "ym2612"
    },
    {
      "channel": 5,
      "note": 92,
      "start": 24.4153,
      "duration": 0.1294,
      "velocity": 111,
      "chip": "ym2612"
    },
    {
      "channel": 2,
      "note": 56,
      "start": 24.4171,
      "duration": 0.1226,
      "velocity": 112,
      "chip": "ym2612"
    },
    {
      "channel": 0,
      "note": 92,
      "start": 24.5431,
      "duration": 0.1293,
      "velocity": 111,
      "chip": "ym2612"
    },
    {
      "channel": 1,
      "note": 41,
      "start": 24.5439,
      "duration": 0.1293,
      "velocity": 103,
      "chip": "ym2612"
    },
    {
      "channel": 5,
      "note": 95,
      "start": 24.5454,
      "duration": 0.1293,
      "velocity": 111,
      "chip": "ym2612"
    },
    {
      "channel": 2,
      "note": 103,
      "start": 24.5471,
      "duration": 0.1225,
      "velocity": 103,
      "chip": "ym2612"
    },
    {
      "channel": 0,
      "note": 95,
      "start": 24.6731,
      "duration": 0.1295,
      "velocity": 111,
      "chip": "ym2612"
    },
    {
      "channel": 1,
      "note": 41,
      "start": 24.6739,
      "duration": 0.1295,
      "velocity": 103,
      "chip": "ym2612"
    },
    {
      "channel": 5,
      "note": 90,
      "start": 24.6753,
      "duration": 0.1292,
      "velocity": 111,
      "chip": "ym2612"
    },
    {
      "channel": 2,
      "note": 103,
      "start": 24.677,
      "duration": 0.1227,
      "velocity": 103,
      "chip": "ym2612"
    },
    {
      "channel": 0,
      "note": 98,
      "start": 24.8032,
      "duration": 0.1319,
      "velocity": 111,
      "chip": "ym2612"
    },
    {
      "channel": 5,
      "note": 92,
      "start": 24.8051,
      "duration": 0.1411,
      "velocity": 111,
      "chip": "ym2612"
    },
    {
      "channel": 2,
      "note": 26,
      "start": 24.8069,
      "duration": 0.0918,
      "velocity": 120,
      "chip": "ym2612"
    },
    {
      "channel": 0,
      "note": 45,
      "start": 24.9358,
      "duration": 0.1266,
      "velocity": 111,
      "chip": "ym2612"
    },
    {
      "channel": 1,
      "note": 42,
      "start": 24.9391,
      "duration": 0.1242,
      "velocity": 103,
      "chip": "ym2612"
    },
    {
      "channel": 3,
      "note": 90,
      "start": 24.9426,
      "duration": 1.0315,
      "velocity": 83,
      "chip": "ym2612"
    },
    {
      "channel": 4,
      "note": 97,
      "start": 24.9461,
      "duration": 2.069,
      "velocity": 83,
      "chip": "ym2612"
    },
    {
      "channel": 5,
      "note": 95,
      "start": 24.9469,
      "duration": 0.1177,
      "velocity": 111,
      "chip": "ym2612"
    },
    {
      "channel": 2,
      "note": 26,
      "start": 24.9486,
      "duration": 0.0802,
      "velocity": 120,
      "chip": "ym2612"
    },
    {
      "channel": 0,
      "note": 93,
      "start": 25.0631,
      "duration": 0.1294,
      "velocity": 111,
      "chip": "ym2612"
    },
    {
      "channel": 1,
      "note": 42,
      "start": 25.0639,
      "duration": 0.1294,
      "velocity": 103,
      "chip": "ym2612"
    },
    {
      "channel": 5,
      "note": 98,
      "start": 25.0653,
      "duration": 0.1321,
      "velocity": 111,
      "chip": "ym2612"
    },
    {
      "channel": 2,
      "note": 103,
      "start": 25.0671,
      "duration": 0.1226,
      "velocity": 103,
      "chip": "ym2612"
    },
    {
      "channel": 0,
      "note": 97,
      "start": 25.1931,
      "duration": 0.1294,
      "velocity": 111,
      "chip": "ym2612"
    },
    {
      "channel": 1,
      "note": 42,
      "start": 25.194,
      "duration": 0.1294,
      "velocity": 103,
      "chip": "ym2612"
    },
    {
      "channel": 5,
      "note": 45,
      "start": 25.1981,
      "duration": 0.1267,
      "velocity": 111,
      "chip": "ym2612"
    },
    {
      "channel": 2,
      "note": 103,
      "start": 25.1999,
      "duration": 0.1198,
      "velocity": 103,
      "chip": "ym2612"
    },
    {
      "channel": 0,
      "note": 93,
      "start": 25.3232,
      "duration": 0.1293,
      "velocity": 111,
      "chip": "ym2612"
    },
    {
      "channel": 1,
      "note": 42,
      "start": 25.324,
      "duration": 0.1294,
      "velocity": 103,
      "chip": "ym2612"
    },
    {
      "channel": 5,
      "note": 93,
      "start": 25.3254,
      "duration": 0.1291,
      "velocity": 111,
      "chip": "ym2612"
    },
    {
      "channel": 2,
      "note": 26,
      "start": 25.3272,
      "duration": 0.0917,
      "velocity": 120,
      "chip": "ym2612"
    },
    {
      "channel": 0,
      "note": 90,
      "start": 25.4532,
      "duration": 0.1293,
      "velocity": 111,
      "chip": "ym2612"
    },
    {
      "channel": 5,
      "note": 97,
      "start": 25.4552,
      "duration": 0.1296,
      "velocity": 111,
      "chip": "ym2612"
    },
    {
      "channel": 2,
      "note": 56,
      "start": 25.4569,
      "duration": 0.1228,
      "velocity": 112,
      "chip": "ym2612"
    },
    {
      "channel": 0,
      "note": 93,
      "start": 25.5833,
      "duration": 0.1293,
      "velocity": 111,
      "chip": "ym2612"
    },
    {
      "channel": 1,
      "note": 45,
      "start": 25.584,
      "duration": 0.1294,
      "velocity": 103,
      "chip": "ym2612"
    },
    {
      "channel": 5,
      "note": 93,
      "start": 25.5856,
      "duration": 0.129,
      "velocity": 111,
      "chip": "ym2612"
    },
    {
      "channel": 2,
      "note": 103,
      "start": 25.5873,
      "duration": 0.1225,
      "velocity": 103,
      "chip": "ym2612"
    },
    {
      "channel": 0,
      "note": 97,
      "start": 25.7133,
      "duration": 0.1293,
      "velocity": 111,
      "chip": "ym2612"
    },
    {
      "channel": 5,
      "note": 90,
      "start": 25.7153,
      "duration": 0.1295,
      "velocity": 111,
      "chip": "ym2612"
    },
    {
      "channel": 2,
      "note": 26,
      "start": 25.717,
      "duration": 0.0918,
      "velocity": 120,
      "chip": "ym2612"
    },
    {
      "channel": 0,
      "note": 93,
      "start": 25.8432,
      "duration": 0.1294,
      "velocity": 111,
      "chip": "ym2612"
    },
    {
      "channel": 1,
      "note": 45,
      "start": 25.844,
      "duration": 0.1294,
      "velocity": 103,
      "chip": "ym2612"
    },
    {
      "channel": 5,
      "note": 93,
      "start": 25.8455,
      "duration": 0.1298,
      "velocity": 111,
      "chip": "ym2612"
    },
    {
      "channel": 2,
      "note": 103,
      "start": 25.8472,
      "duration": 0.1226,
      "velocity": 103,
      "chip": "ym2612"
    },
    {
      "channel": 0,
      "note": 92,
      "start": 25.9732,
      "duration": 0.1294,
      "velocity": 111,
      "chip": "ym2612"
    },
    {
      "channel": 1,
      "note": 45,
      "start": 25.9741,
      "duration": 0.1294,
      "velocity": 103,
      "chip": "ym2612"
    },
    {
      "channel": 3,
      "note": 88,
      "start": 25.9749,
      "duration": 1.0394,
      "velocity": 83,
      "chip": "ym2612"
    },
    {
      "channel": 5,
      "note": 97,
      "start": 25.976,
      "duration": 0.1285,
      "velocity": 111,
      "chip": "ym2612"
    },
    {
      "channel": 2,
      "note": 103,
      "start": 25.9777,
      "duration": 0.1221,
      "velocity": 103,
      "chip": "ym2612"
    },
    {
      "channel": 0,
      "note": 93,
      "start": 26.1033,
      "duration": 0.1293,
      "velocity": 111,
      "chip": "ym2612"
    },
    {
      "channel": 5,
      "note": 93,
      "start": 26.1052,
      "duration": 0.1291,
      "velocity": 111,
      "chip": "ym2612"
    },
    {
      "channel": 2,
      "note": 26,
      "start": 26.1069,
      "duration": 0.0919,
      "velocity": 120,
      "chip": "ym2612"
    },
    {
      "channel": 0,
      "note": 97,
      "start": 26.2333,
      "duration": 0.1293,
      "velocity": 111,
      "chip": "ym2612"
    },
    {
      "channel": 5,
      "note": 92,
      "start": 26.235,
      "duration": 0.1299,
      "velocity": 111,
      "chip": "ym2612"
    },
    {
      "channel": 2,
      "note": 103,
      "start": 26.2367,
      "duration": 0.1231,
      "velocity": 103,
      "chip": "ym2612"
    },
    {
      "channel": 0,
      "note": 92,
      "start": 26.3633,
      "duration": 0.1293,
      "velocity": 111,
      "chip": "ym2612"
    },
    {
      "channel": 1,
      "note": 42,
      "start": 26.3641,
      "duration": 0.1294,
      "velocity": 103,
      "chip": "ym2612"
    },
    {
      "channel": 5,
      "note": 93,
      "start": 26.3656,
      "duration": 0.1293,
      "velocity": 111,
      "chip": "ym2612"
    },
    {
      "channel": 2,
      "note": 26,
      "start": 26.3673,
      "duration": 0.0917,
      "velocity": 120,
      "chip": "ym2612"
    },
    {
      "channel": 0,
      "note": 90,
      "start": 26.4933,
      "duration": 0.1293,
      "velocity": 111,
      "chip": "ym2612"
    },
    {
      "channel": 1,
      "note": 44,
      "start": 26.4941,
      "duration": 0.1293,
      "velocity": 103,
      "chip": "ym2612"
    },
    {
      "channel": 5,
      "note": 97,
      "start": 26.4956,
      "duration": 0.1293,
      "velocity": 111,
      "chip": "ym2612"
    },
    {
      "channel": 2,
      "note": 56,
      "start": 26.4973,
      "duration": 0.1225,
      "velocity": 112,
      "chip": "ym2612"
    },
    {
      "channel": 0,
      "note": 93,
      "start": 26.6233,
      "duration": 0.1295,
      "velocity": 111,
      "chip": "ym2612"
    },
    {
      "channel": 1,
      "note": 42,
      "start": 26.6241,
      "duration": 0.1295,
      "velocity": 103,
      "chip": "ym2612"
    },
    {
      "channel": 5,
      "note": 92,
      "start": 26.6255,
      "duration": 0.1295,
      "velocity": 111,
      "chip": "ym2612"
    },
    {
      "channel": 2,
      "note": 103,
      "start": 26.6272,
      "duration": 0.1227,
      "velocity": 103,
      "chip": "ym2612"
    },
    {
      "channel": 0,
      "note": 97,
      "start": 26.7534,
      "duration": 0.1293,
      "velocity": 111,
      "chip": "ym2612"
    },
    {
      "channel": 1,
      "note": 40,
      "start": 26.7542,
      "duration": 0.1294,
      "velocity": 103,
      "chip": "ym2612"
    },
    {
      "channel": 5,
      "note": 90,
      "start": 26.7557,
      "duration": 0.1293,
      "velocity": 111,
      "chip": "ym2612"
    },
    {
      "channel": 2,
      "note": 103,
      "start": 26.7574,
      "duration": 0.1225,
      "velocity": 103,
      "chip": "ym2612"
    },
    {
      "channel": 0,
      "note": 93,
      "start": 26.8834,
      "duration": 0.1294,
      "velocity": 111,
      "chip": "ym2612"
    },
    {
      "channel": 1,
      "note": 42,
      "start": 26.8842,
      "duration": 0.1293,
      "velocity": 103,
      "chip": "ym2612"
    },
    {
      "channel": 5,
      "note": 93,
      "start": 26.8857,
      "duration": 0.1303,
      "velocity": 111,
      "chip": "ym2612"
    },
    {
      "channel": 2,
      "note": 26,
      "start": 26.8873,
      "duration": 0.0917,
      "velocity": 120,
      "chip": "ym2612"
    },
    {
      "channel": 0,
      "note": 45,
      "start": 27.0134,
      "duration": 0.1293,
      "velocity": 111,
      "chip": "ym2612"
    },
    {
      "channel": 1,
      "note": 42,
      "start": 27.0142,
      "duration": 0.1293,
      "velocity": 103,
      "chip": "ym2612"
    },
    {
      "channel": 3,
      "note": 90,
      "start": 27.015,
      "duration": 1.0394,
      "velocity": 83,
      "chip": "ym2612"
    },
    {
      "channel": 4,
      "note": 104,
      "start": 27.0159,
      "duration": 2.0796,
      "velocity": 83,
      "chip": "ym2612"
    },
    {
      "channel": 5,
      "note": 97,
      "start": 27.0167,
      "duration": 0.1282,
      "velocity": 111,
      "chip": "ym2612"
    },
    {
      "channel": 2,
      "note": 26,
      "start": 27.0184,
      "duration": 0.0906,
      "velocity": 120,
      "chip": "ym2612"
    },
    {
      "channel": 0,
      "note": 93,
      "start": 27.1434,
      "duration": 0.1293,
      "velocity": 111,
      "chip": "ym2612"
    },
    {
      "channel": 1,
      "note": 42,
      "start": 27.1441,
      "duration": 0.1294,
      "velocity": 103,
      "chip": "ym2612"
    },
    {
      "channel": 5,
      "note": 93,
      "start": 27.1456,
      "duration": 0.1294,
      "velocity": 111,
      "chip": "ym2612"
    },
    {
      "channel": 2,
      "note": 103,
      "start": 27.1473,
      "duration": 0.1226,
      "velocity": 103,
      "chip": "ym2612"
    },
    {
      "channel": 0,
      "note": 97,
      "start": 27.2734,
      "duration": 0.1294,
      "velocity": 111,
      "chip": "ym2612"
    },
    {
      "channel": 1,
      "note": 42,
      "start": 27.2742,
      "duration": 0.1294,
      "velocity": 103,
      "chip": "ym2612"
    },
    {
      "channel": 5,
      "note": 45,
      "start": 27.2756,
      "duration": 0.1294,
      "velocity": 111,
      "chip": "ym2612"
    },
    {
      "channel": 2,
      "note": 103,
      "start": 27.2773,
      "duration": 0.1226,
      "velocity": 103,
      "chip": "ym2612"
    },
    {
      "channel": 0,
      "note": 93,
      "start": 27.4034,
      "duration": 0.1293,
      "velocity": 111,
      "chip": "ym2612"
    },
    {
      "channel": 1,
      "note": 42,
      "start": 27.4042,
      "duration": 0.1294,
      "velocity": 103,
      "chip": "ym2612"
    },
    {
      "channel": 5,
      "note": 93,
      "start": 27.4057,
      "duration": 0.1291,
      "velocity": 111,
      "chip": "ym2612"
    },
    {
      "channel": 2,
      "note": 26,
      "start": 27.4074,
      "duration": 0.0917,
      "velocity": 120,
      "chip": "ym2612"
    },
    {
      "channel": 0,
      "note": 90,
      "start": 27.5335,
      "duration": 0.1293,
      "velocity": 111,
      "chip": "ym2612"
    },
    {
      "channel": 5,
      "note": 97,
      "start": 27.5354,
      "duration": 0.1295,
      "velocity": 111,
      "chip": "ym2612"
    },
    {
      "channel": 2,
      "note": 56,
      "start": 27.5371,
      "duration": 0.1228,
      "velocity": 112,
      "chip": "ym2612"
    },
    {
      "channel": 0,
      "note": 93,
      "start": 27.6634,
      "duration": 0.1294,
      "velocity": 111,
      "chip": "ym2612"
    },
    {
      "channel": 1,
      "note": 45,
      "start": 27.6642,
      "duration": 0.1294,
      "velocity": 103,
      "chip": "ym2612"
    },
    {
      "channel": 5,
      "note": 93,
      "start": 27.6656,
      "duration": 0.1291,
      "velocity": 111,
      "chip": "ym2612"
    },
    {
      "channel": 2,
      "note": 103,
      "start": 27.6674,
      "duration": 0.1225,
      "velocity": 103,
      "chip": "ym2612"
    },
    {
      "channel": 0,
      "note": 97,
      "start": 27.7934,
      "duration": 0.1293,
      "velocity": 111,
      "chip": "ym2612"
    },
    {
      "channel": 5,
      "note": 90,
      "start": 27.7954,
      "duration": 0.1296,
      "velocity": 111,
      "chip": "ym2612"
    },
    {
      "channel": 2,
      "note": 26,
      "start": 27.7971,
      "duration": 0.0919,
      "velocity": 120,
      "chip": "ym2612"
    },
    {
      "channel": 0,
      "note": 93,
      "start": 27.9234,
      "duration": 0.1294,
      "velocity": 111,
      "chip": "ym2612"
    },
    {
      "channel": 1,
      "note": 45,
      "start": 27.9242,
      "duration": 0.1294,
      "velocity": 103,
      "chip": "ym2612"
    },
    {
      "channel": 5,
      "note": 93,
      "start": 27.9257,
      "duration": 0.1298,
      "velocity": 111,
      "chip": "ym2612"
    },
    {
      "channel": 2,
      "note": 103,
      "start": 27.9274,
      "duration": 0.1226,
      "velocity": 103,
      "chip": "ym2612"
    },
    {
      "channel": 0,
      "note": 92,
      "start": 28.0534,
      "duration": 0.1293,
      "velocity": 111,
      "chip": "ym2612"
    },
    {
      "channel": 1,
      "note": 45,
      "start": 28.0543,
      "duration": 0.1294,
      "velocity": 103,
      "chip": "ym2612"
    },
    {
      "channel": 3,
      "note": 93,
      "start": 28.0551,
      "duration": 1.0395,
      "velocity": 83,
      "chip": "ym2612"
    },
    {
      "channel": 5,
      "note": 97,
      "start": 28.0562,
      "duration": 0.1285,
      "velocity": 111,
      "chip": "ym2612"
    },
    {
      "channel": 2,
      "note": 103,
      "start": 28.058,
      "duration": 0.1221,
      "velocity": 103,
      "chip": "ym2612"
    },
    {
      "channel": 0,
      "note": 93,
      "start": 28.1835,
      "duration": 0.1293,
      "velocity": 111,
      "chip": "ym2612"
    },
    {
      "channel": 5,
      "note": 93,
      "start": 28.1854,
      "duration": 0.1289,
      "velocity": 111,
      "chip": "ym2612"
    },
    {
      "channel": 2,
      "note": 26,
      "start": 28.1871,
      "duration": 0.0919,
      "velocity": 120,
      "chip": "ym2612"
    },
    {
      "channel": 0,
      "note": 97,
      "start": 28.3134,
      "duration": 0.1294,
      "velocity": 111,
      "chip": "ym2612"
    },
    {
      "channel": 5,
      "note": 92,
      "start": 28.3151,
      "duration": 0.13,
      "velocity": 111,
      "chip": "ym2612"
    },
    {
      "channel": 2,
      "note": 103,
      "start": 28.3169,
      "duration": 0.1232,
      "velocity": 103,
      "chip": "ym2612"
    },
    {
      "channel": 0,
      "note": 92,
      "start": 28.4435,
      "duration": 0.1293,
      "velocity": 111,
      "chip": "ym2612"
    },
    {
      "channel": 1,
      "note": 42,
      "start": 28.4443,
      "duration": 0.1294,
      "velocity": 103,
      "chip": "ym2612"
    },
    {
      "channel": 5,
      "note": 93,
      "start": 28.4458,
      "duration": 0.1293,
      "velocity": 111,
      "chip": "ym2612"
    },
    {
      "channel": 2,
      "note": 26,
      "start": 28.4475,
      "duration": 0.0918,
      "velocity": 120,
      "chip": "ym2612"
    },
    {
      "channel": 0,
      "note": 90,
      "start": 28.5735,
      "duration": 0.1294,
      "velocity": 111,
      "chip": "ym2612"
    },
    {
      "channel": 1,
      "note": 44,
      "start": 28.5743,
      "duration": 0.1295,
      "velocity": 103,
      "chip": "ym2612"
    },
    {
      "channel": 5,
      "note": 97,
      "start": 28.5758,
      "duration": 0.1295,
      "velocity": 111,
      "chip": "ym2612"
    },
    {
      "channel": 2,
      "note": 56,
      "start": 28.5776,
      "duration": 0.1227,
      "velocity": 112,
      "chip": "ym2612"
    },
    {
      "channel": 0,
      "note": 93,
      "start": 28.7036,
      "duration": 0.1293,
      "velocity": 111,
      "chip": "ym2612"
    },
    {
      "channel": 1,
      "note": 42,
      "start": 28.7044,
      "duration": 0.1293,
      "velocity": 103,
      "chip": "ym2612"
    },
    {
      "channel": 5,
      "note": 92,
      "start": 28.7059,
      "duration": 0.1293,
      "velocity": 111,
      "chip": "ym2612"
    },
    {
      "channel": 2,
      "note": 103,
      "start": 28.7076,
      "duration": 0.1225,
      "velocity": 103,
      "chip": "ym2612"
    },
    {
      "channel": 0,
      "note": 97,
      "start": 28.8336,
      "duration": 0.1293,
      "velocity": 111,
      "chip": "ym2612"
    },
    {
      "channel": 1,
      "note": 40,
      "start": 28.8344,
      "duration": 0.1293,
      "velocity": 103,
      "chip": "ym2612"
    },
    {
      "channel": 5,
      "note": 90,
      "start": 28.8358,
      "duration": 0.1293,
      "velocity": 111,
      "chip": "ym2612"
    },
    {
      "channel": 2,
      "note": 103,
      "start": 28.8375,
      "duration": 0.1226,
      "velocity": 103,
      "chip": "ym2612"
    },
    {
      "channel": 0,
      "note": 93,
      "start": 28.9636,
      "duration": 0.1295,
      "velocity": 111,
      "chip": "ym2612"
    },
    {
      "channel": 1,
      "note": 42,
      "start": 28.9643,
      "duration": 0.1295,
      "velocity": 103,
      "chip": "ym2612"
    },
    {
      "channel": 5,
      "note": 93,
      "start": 28.9659,
      "duration": 0.1304,
      "velocity": 111,
      "chip": "ym2612"
    },
    {
      "channel": 2,
      "note": 26,
      "start": 28.9676,
      "duration": 0.0917,
      "velocity": 120,
      "chip": "ym2612"
    },
    {
      "channel": 0,
      "note": 45,
      "start": 29.0937,
      "duration": 0.1293,
      "velocity": 111,
      "chip": "ym2612"
    },
    {
      "channel": 1,
      "note": 38,
      "start": 29.0945,
      "duration": 0.1293,
      "velocity": 103,
      "chip": "ym2612"
    },
    {
      "channel": 3,
      "note": 95,
      "start": 29.0953,
      "duration": 1.0387,
      "velocity": 83,
      "chip": "ym2612"
    },
    {
      "channel": 4,
      "note": 102,
      "start": 29.0961,
      "duration": 2.0795,
      "velocity": 83,
      "chip": "ym2612"
    },
    {
      "channel": 5,
      "note": 97,
      "start": 29.0969,
      "duration": 0.1281,
      "velocity": 111,
      "chip": "ym2612"
    },
    {
      "channel": 2,
      "note": 26,
      "start": 29.0986,
      "duration": 0.0906,
      "velocity": 120,
      "chip": "ym2612"
    },
    {
      "channel": 0,
      "note": 90,
      "start": 29.2235,
      "duration": 0.1295,
      "velocity": 111,
      "chip": "ym2612"
    },
    {
      "channel": 1,
      "note": 38,
      "start": 29.2244,
      "duration": 0.1294,
      "velocity": 103,
      "chip": "ym2612"
    },
    {
      "channel": 5,
      "note": 93,
      "start": 29.2258,
      "duration": 0.1292,
      "velocity": 111,
      "chip": "ym2612"
    },
    {
      "channel": 2,
      "note": 103,
      "start": 29.2275,
      "duration": 0.1227,
      "velocity": 103,
      "chip": "ym2612"
    },
    {
      "channel": 0,
      "note": 93,
      "start": 29.3537,
      "duration": 0.1292,
      "velocity": 111,
      "chip": "ym2612"
    },
    {
      "channel": 5,
      "note": 45,
      "start": 29.3556,
      "duration": 0.1289,
      "velocity": 111,
      "chip": "ym2612"
    },
    {
      "channel": 2,
      "note": 103,
      "start": 29.3573,
      "duration": 0.1228,
      "velocity": 103,
      "chip": "ym2612"
    },
    {
      "channel": 0,
      "note": 90,
      "start": 29.4836,
      "duration": 0.1293,
      "velocity": 111,
      "chip": "ym2612"
    },
    {
      "channel": 5,
      "note": 90,
      "start": 29.4852,
      "duration": 0.13,
      "velocity": 111,
      "chip": "ym2612"
    },
    {
      "channel": 2,
      "note": 26,
      "start": 29.4869,
      "duration": 0.0922,
      "velocity": 120,
      "chip": "ym2612"
    },
    {
      "channel": 0,
      "note": 86,
      "start": 29.6136,
      "duration": 0.1293,
      "velocity": 111,
      "chip": "ym2612"
    },
    {
      "channel": 1,
      "note": 38,
      "start": 29.6144,
      "duration": 0.1294,
      "velocity": 103,
      "chip": "ym2612"
    },
    {
      "channel": 5,
      "note": 93,
      "start": 29.6159,
      "duration": 0.1293,
      "velocity": 111,
      "chip": "ym2612"
    },
    {
      "channel": 2,
      "note": 56,
      "start": 29.6177,
      "duration": 0.1224,
      "velocity": 112,
      "chip": "ym2612"
    },
    {
      "channel": 0,
      "note": 88,
      "start": 29.7436,
      "duration": 0.1294,
      "velocity": 111,
      "chip": "ym2612"
    },
    {
      "channel": 1,
      "note": 38,
      "start": 29.7444,
      "duration": 0.1294,
      "velocity": 103,
      "chip": "ym2612"
    },
    {
      "channel": 5,
      "note": 90,
      "start": 29.7459,
      "duration": 0.1291,
      "velocity": 111,
      "chip": "ym2612"
    },
    {
      "channel": 2,
      "note": 103,
      "start": 29.7476,
      "duration": 0.1226,
      "velocity": 103,
      "chip": "ym2612"
    },
    {
      "channel": 0,
      "note": 93,
      "start": 29.8737,
      "duration": 0.1293,
      "velocity": 111,
      "chip": "ym2612"
    },
    {
      "channel": 5,
      "note": 86,
      "start": 29.8756,
      "duration": 0.129,
      "velocity": 111,
      "chip": "ym2612"
    },
    {
      "channel": 2,
      "note": 26,
      "start": 29.8773,
      "duration": 0.0919,
      "velocity": 120,
      "chip": "ym2612"
    },
    {
      "channel": 0,
      "note": 88,
      "start": 30.0036,
      "duration": 0.1294,
      "velocity": 111,
      "chip": "ym2612"
    },
    {
      "channel": 5,
      "note": 88,
      "start": 30.0053,
      "duration": 0.1299,
      "velocity": 111,
      "chip": "ym2612"
    },
    {
      "channel": 2,
      "note": 103,
      "start": 30.007,
      "duration": 0.1232,
      "velocity": 103,
      "chip": "ym2612"
    },
    {
      "channel": 0,
      "note": 86,
      "start": 30.1337,
      "duration": 0.1293,
      "velocity": 111,
      "chip": "ym2612"
    },
    {
      "channel": 3,
      "note": 90,
      "start": 30.1347,
      "duration": 1.0401,
      "velocity": 83,
      "chip": "ym2612"
    },
    {
      "channel": 5,
      "note": 93,
      "start": 30.1359,
      "duration": 0.1293,
      "velocity": 111,
      "chip": "ym2612"
    },
    {
      "channel": 2,
      "note": 103,
      "start": 30.1376,
      "duration": 0.1227,
      "velocity": 103,
      "chip": "ym2612"
    },
    {
      "channel": 0,
      "note": 88,
      "start": 30.2637,
      "duration": 0.1293,
      "velocity": 111,
      "chip": "ym2612"
    },
    {
      "channel": 1,
      "note": 38,
      "start": 30.2644,
      "duration": 0.3894,
      "velocity": 103,
      "chip": "ym2612"
    },
    {
      "channel": 5,
      "note": 88,
      "start": 30.2659,
      "duration": 0.1288,
      "velocity": 111,
      "chip": "ym2612"
    },
    {
      "channel": 2,
      "note": 26,
      "start": 30.2676,
      "duration": 0.0917,
      "velocity": 120,
      "chip": "ym2612"
    },
    {
      "channel": 0,
      "note": 90,
      "start": 30.3937,
      "duration": 0.1294,
      "velocity": 111,
      "chip": "ym2612"
    },
    {
      "channel": 5,
      "note": 86,
      "start": 30.3954,
      "duration": 0.1294,
      "velocity": 111,
      "chip": "ym2612"
    },
    {
      "channel": 2,
      "note": 103,
      "start": 30.3971,
      "duration": 0.1231,
      "velocity": 103,
      "chip": "ym2612"
    },
    {
      "channel": 0,
      "note": 88,
      "start": 30.5237,
      "duration": 0.1294,
      "velocity": 111,
      "chip": "ym2612"
    },
    {
      "channel": 5,
      "note": 88,
      "start": 30.5255,
      "duration": 0.1295,
      "velocity": 111,
      "chip": "ym2612"
    },
    {
      "channel": 2,
      "note": 26,
      "start": 30.5272,
      "duration": 0.0922,
      "velocity": 120,
      "chip": "ym2612"
    },
    {
      "channel": 0,
      "note": 93,
      "start": 30.6538,
      "duration": 0.1293,
      "velocity": 111,
      "chip": "ym2612"
    },
    {
      "channel": 5,
      "note": 90,
      "start": 30.6557,
      "duration": 0.1296,
      "velocity": 111,
      "chip": "ym2612"
    },
    {
      "channel": 2,
      "note": 56,
      "start": 30.6574,
      "duration": 0.1228,
      "velocity": 112,
      "chip": "ym2612"
    },
    {
      "channel": 0,
      "note": 90,
      "start": 30.7837,
      "duration": 0.1293,
      "velocity": 111,
      "chip": "ym2612"
    },
    {
      "channel": 1,
      "note": 38,
      "start": 30.7845,
      "duration": 0.1294,
      "velocity": 103,
      "chip": "ym2612"
    },
    {
      "channel": 5,
      "note": 88,
      "start": 30.7859,
      "duration": 0.1291,
      "velocity": 111,
      "chip": "ym2612"
    },
    {
      "channel": 2,
      "note": 103,
      "start": 30.7877,
      "duration": 0.1227,
      "velocity": 103,
      "chip": "ym2612"
    },
    {
      "channel": 0,
      "note": 93,
      "start": 30.9137,
      "duration": 0.1293,
      "velocity": 111,
      "chip": "ym2612"
    },
    {
      "channel": 5,
      "note": 93,
      "start": 30.9157,
      "duration": 0.1296,
      "velocity": 111,
      "chip": "ym2612"
    },
    {
      "channel": 2,
      "note": 103,
      "start": 30.9175,
      "duration": 0.1228,
      "velocity": 103,
      "chip": "ym2612"
    },
    {
      "channel": 0,
      "note": 97,
      "start": 31.0438,
      "duration": 0.1294,
      "velocity": 111,
      "chip": "ym2612"
    },
    {
      "channel": 1,
      "note": 40,
      "start": 31.0445,
      "duration": 0.1295,
      "velocity": 103,
      "chip": "ym2612"
    },
    {
      "channel": 5,
      "note": 90,
      "start": 31.046,
      "duration": 0.1304,
      "velocity": 111,
      "chip": "ym2612"
    },
    {
      "channel": 2,
      "note": 26,
      "start": 31.0477,
      "duration": 0.0917,
      "velocity": 120,
      "chip": "ym2612"
    },
    {
      "channel": 0,
      "note": 45,
      "start": 31.1739,
      "duration": 0.1293,
      "velocity": 111,
      "chip": "ym2612"
    },
    {
      "channel": 1,
      "note": 40,
      "start": 31.1746,
      "duration": 0.1293,
      "velocity": 103,
      "chip": "ym2612"
    },
    {
      "channel": 3,
      "note": 88,
      "start": 31.1754,
      "duration": 1.0387,
      "velocity": 83,
      "chip": "ym2612"
    },
    {
      "channel": 4,
      "note": 100,
      "start": 31.1763,
      "duration": 2.0798,
      "velocity": 83,
      "chip": "ym2612"
    },
    {
      "channel": 5,
      "note": 93,
      "start": 31.1771,
      "duration": 0.1282,
      "velocity": 111,
      "chip": "ym2612"
    },
    {
      "channel": 2,
      "note": 26,
      "start": 31.1788,
      "duration": 0.0907,
      "velocity": 120,
      "chip": "ym2612"
    },
    {
      "channel": 0,
      "note": 92,
      "start": 31.3038,
      "duration": 0.1293,
      "velocity": 111,
      "chip": "ym2612"
    },
    {
      "channel": 1,
      "note": 40,
      "start": 31.3046,
      "duration": 0.1293,
      "velocity": 103,
      "chip": "ym2612"
    },
    {
      "channel": 5,
      "note": 97,
      "start": 31.306,
      "duration": 0.1291,
      "velocity": 111,
      "chip": "ym2612"
    },
    {
      "channel": 2,
      "note": 103,
      "start": 31.3077,
      "duration": 0.1226,
      "velocity": 103,
      "chip": "ym2612"
    },
    {
      "channel": 0,
      "note": 95,
      "start": 31.4338,
      "duration": 0.1293,
      "velocity": 111,
      "chip": "ym2612"
    },
    {
      "channel": 5,
      "note": 45,
      "start": 31.4358,
      "duration": 0.129,
      "velocity": 111,
      "chip": "ym2612"
    },
    {
      "channel": 2,
      "note": 103,
      "start": 31.4375,
      "duration": 0.1229,
      "velocity": 103,
      "chip": "ym2612"
    },
    {
      "channel": 0,
      "note": 92,
      "start": 31.5637,
      "duration": 0.1294,
      "velocity": 111,
      "chip": "ym2612"
    },
    {
      "channel": 5,
      "note": 92,
      "start": 31.5654,
      "duration": 0.13,
      "velocity": 111,
      "chip": "ym2612"
    },
    {
      "channel": 2,
      "note": 26,
      "start": 31.5671,
      "duration": 0.0922,
      "velocity": 120,
      "chip": "ym2612"
    },
    {
      "channel": 0,
      "note": 88,
      "start": 31.6938,
      "duration": 0.1293,
      "velocity": 111,
      "chip": "ym2612"
    },
    {
      "channel": 1,
      "note": 40,
      "start": 31.6946,
      "duration": 0.1294,
      "velocity": 103,
      "chip": "ym2612"
    },
    {
      "channel": 5,
      "note": 95,
      "start": 31.6961,
      "duration": 0.1293,
      "velocity": 111,
      "chip": "ym2612"
    },
    {
      "channel": 2,
      "note": 56,
      "start": 31.6978,
      "duration": 0.1225,
      "velocity": 112,
      "chip": "ym2612"
    },
    {
      "channel": 0,
      "note": 92,
      "start": 31.8238,
      "duration": 0.1294,
      "velocity": 111,
      "chip": "ym2612"
    },
    {
      "channel": 1,
      "note": 40,
      "start": 31.8246,
      "duration": 0.1294,
      "velocity": 103,
      "chip": "ym2612"
    },
    {
      "channel": 5,
      "note": 92,
      "start": 31.8261,
      "duration": 0.1291,
      "velocity": 111,
      "chip": "ym2612"
    },
    {
      "channel": 2,
      "note": 103,
      "start": 31.8278,
      "duration": 0.1226,
      "velocity": 103,
      "chip": "ym2612"
    },
    {
      "channel": 0,
      "note": 95,
      "start": 31.9539,
      "duration": 0.1293,
      "velocity": 111,
      "chip": "ym2612"
    },
    {
      "channel": 5,
      "note": 88,
      "start": 31.9559,
      "duration": 0.129,
      "velocity": 111,
      "chip": "ym2612"
    },
    {
      "channel": 2,
      "note": 26,
      "start": 31.9575,
      "duration": 0.0919,
      "velocity": 120,
      "chip": "ym2612"
    },
    {
      "channel": 0,
      "note": 92,
      "start": 32.0839,
      "duration": 0.1293,
      "velocity": 111,
      "chip": "ym2612"
    },
    {
      "channel": 5,
      "note": 92,
      "start": 32.0855,
      "duration": 0.1298,
      "velocity": 111,
      "chip": "ym2612"
    },
    {
      "channel": 2,
      "note": 103,
      "start": 32.0872,
      "duration": 0.1232,
      "velocity": 103,
      "chip": "ym2612"
    },
    {
      "channel": 0,
      "note": 88,
      "start": 32.2138,
      "duration": 0.1293,
      "velocity": 111,
      "chip": "ym2612"
    },
    {
      "channel": 3,
      "note": 92,
      "start": 32.2148,
      "duration": 1.0403,
      "velocity": 83,
      "chip": "ym2612"
    },
    {
      "channel": 5,
      "note": 95,
      "start": 32.216,
      "duration": 0.1294,
      "velocity": 111,
      "chip": "ym2612"
    },
    {
      "channel": 2,
      "note": 103,
      "start": 32.2178,
      "duration": 0.1227,
      "velocity": 103,
      "chip": "ym2612"
    },
    {
      "channel": 0,
      "note": 90,
      "start": 32.3438,
      "duration": 0.1293,
      "velocity": 111,
      "chip": "ym2612"
    },
    {
      "channel": 1,
      "note": 40,
      "start": 32.3446,
      "duration": 0.1294,
      "velocity": 103,
      "chip": "ym2612"
    },
    {
      "channel": 5,
      "note": 92,
      "start": 32.3461,
      "duration": 0.1293,
      "velocity": 111,
      "chip": "ym2612"
    },
    {
      "channel": 2,
      "note": 26,
      "start": 32.3477,
      "duration": 0.0919,
      "velocity": 120,
      "chip": "ym2612"
    },
    {
      "channel": 0,
      "note": 92,
      "start": 32.4738,
      "duration": 0.1294,
      "velocity": 111,
      "chip": "ym2612"
    },
    {
      "channel": 1,
      "note": 40,
      "start": 32.4746,
      "duration": 0.1294,
      "velocity": 103,
      "chip": "ym2612"
    },
    {
      "channel": 5,
      "note": 88,
      "start": 32.4761,
      "duration": 0.1293,
      "velocity": 111,
      "chip": "ym2612"
    },
    {
      "channel": 2,
      "note": 103,
      "start": 32.4778,
      "duration": 0.1226,
      "velocity": 103,
      "chip": "ym2612"
    },
    {
      "channel": 0,
      "note": 95,
      "start": 32.6039,
      "duration": 0.1294,
      "velocity": 111,
      "chip": "ym2612"
    },
    {
      "channel": 1,
      "note": 40,
      "start": 32.6046,
      "duration": 0.1294,
      "velocity": 103,
      "chip": "ym2612"
    },
    {
      "channel": 5,
      "note": 90,
      "start": 32.6061,
      "duration": 0.1294,
      "velocity": 111,
      "chip": "ym2612"
    },
    {
      "channel": 2,
      "note": 26,
      "start": 32.6078,
      "duration": 0.0918,
      "velocity": 120,
      "chip": "ym2612"
    },
    {
      "channel": 0,
      "note": 90,
      "start": 32.7339,
      "duration": 0.1293,
      "velocity": 111,
      "chip": "ym2612"
    },
    {
      "channel": 1,
      "note": 41,
      "start": 32.7347,
      "duration": 0.1294,
      "velocity": 103,
      "chip": "ym2612"
    },
    {
      "channel": 5,
      "note": 92,
      "start": 32.7361,
      "duration": 0.1294,
      "velocity": 111,
      "chip": "ym2612"
    },
    {
      "channel": 2,
      "note": 56,
      "start": 32.7379,
      "duration": 0.1226,
      "velocity": 112,
      "chip": "ym2612"
    },
    {
      "channel": 0,
      "note": 92,
      "start": 32.8639,
      "duration": 0.1293,
      "velocity": 111,
      "chip": "ym2612"
    },
    {
      "channel": 1,
      "note": 41,
      "start": 32.8647,
      "duration": 0.1293,
      "velocity": 103,
      "chip": "ym2612"
    },
    {
      "channel": 5,
      "note": 95,
      "start": 32.8662,
      "duration": 0.1293,
      "velocity": 111,
      "chip": "ym2612"
    },
    {
      "channel": 2,
      "note": 103,
      "start": 32.868,
      "duration": 0.1224,
      "velocity": 103,
      "chip": "ym2612"
    },
    {
      "channel": 0,
      "note": 95,
      "start": 32.9939,
      "duration": 0.1293,
      "velocity": 111,
      "chip": "ym2612"
    },
    {
      "channel": 1,
      "note": 41,
      "start": 32.9946,
      "duration": 0.1294,
      "velocity": 103,
      "chip": "ym2612"
    },
    {
      "channel": 5,
      "note": 90,
      "start": 32.9961,
      "duration": 0.1291,
      "velocity": 111,
      "chip": "ym2612"
    },
    {
      "channel": 2,
      "note": 103,
      "start": 32.9978,
      "duration": 0.1226,
      "velocity": 103,
      "chip": "ym2612"
    },
    {
      "channel": 0,
      "note": 98,
      "start": 33.1239,
      "duration": 0.1296,
      "velocity": 111,
      "chip": "ym2612"
    },
    {
      "channel": 5,
      "note": 92,
      "start": 33.1259,
      "duration": 0.131,
      "velocity": 111,
      "chip": "ym2612"
    },
    {
      "channel": 2,
      "note": 26,
      "start": 33.1276,
      "duration": 0.0919,
      "velocity": 120,
      "chip": "ym2612"
    },
    {
      "channel": 1,
      "note": 42,
      "start": 33.2549,
      "duration": 0.2585,
      "velocity": 103,
      "chip": "ym2612"
    },
    {
      "channel": 3,
      "note": 85,
      "start": 33.2558,
      "duration": 4.1596,
      "velocity": 83,
      "chip": "ym2612"
    },
    {
      "channel": 4,
      "note": 92,
      "start": 33.2568,
      "duration": 4.1595,
      "velocity": 83,
      "chip": "ym2612"
    },
    {
      "channel": 5,
      "note": 95,
      "start": 33.2576,
      "duration": 0.124,
      "velocity": 111,
      "chip": "ym2612"
    },
    {
      "channel": 2,
      "note": 26,
      "start": 33.2592,
      "duration": 0.0903,
      "velocity": 120,
      "chip": "ym2612"
    },
    {
      "channel": 5,
      "note": 98,
      "start": 33.3822,
      "duration": 0.1327,
      "velocity": 111,
      "chip": "ym2612"
    },
    {
      "channel": 1,
      "note": 42,
      "start": 33.5141,
      "duration": 0.2568,
      "velocity": 103,
      "chip": "ym2612"
    },
    {
      "channel": 2,
      "note": 26,
      "start": 33.5171,
      "duration": 0.0924,
      "velocity": 120,
      "chip": "ym2612"
    },
    {
      "channel": 0,
      "note": 91,
      "start": 34.0313,
      "duration": 0.1293,
      "velocity": 111,
      "chip": "ym2612"
    },
    {
      "channel": 0,
      "note": 85,
      "start": 34.1613,
      "duration": 1.1725,
      "velocity": 111,
      "chip": "ym2612"
    },
    {
      "channel": 1,
      "note": 42,
      "start": 34.2943,
      "duration": 0.2567,
      "velocity": 103,
      "chip": "ym2612"
    },
    {
      "channel": 5,
      "note": 91,
      "start": 34.2958,
      "duration": 0.1261,
      "velocity": 111,
      "chip": "ym2612"
    },
    {
      "channel": 2,
      "note": 103,
      "start": 34.2975,
      "duration": 0.1736,
      "velocity": 103,
      "chip": "ym2612"
    },
    {
      "channel": 5,
      "note": 85,
      "start": 34.4227,
      "duration": 1.1724,
      "velocity": 111,
      "chip": "ym2612"
    },
    {
      "channel": 1,
      "note": 42,
      "start": 34.5517,
      "duration": 0.2593,
      "velocity": 103,
      "chip": "ym2612"
    },
    {
      "channel": 1,
      "note": 42,
      "start": 35.3351,
      "duration": 0.2586,
      "velocity": 103,
      "chip": "ym2612"
    },
    {
      "channel": 2,
      "note": 26,
      "start": 35.338,
      "duration": 0.0917,
      "velocity": 120,
      "chip": "ym2612"
    },
    {
      "channel": 1,
      "note": 42,
      "start": 35.5943,
      "duration": 0.2568,
      "velocity": 103,
      "chip": "ym2612"
    },
    {
      "channel": 2,
      "note": 26,
      "start": 35.5971,
      "duration": 0.0925,
      "velocity": 120,
      "chip": "ym2612"
    },
    {
      "channel": 0,
      "note": 91,
      "start": 36.2415,
      "duration": 0.1321,
      "velocity": 111,
      "chip": "ym2612"
    },
    {
      "channel": 0,
      "note": 85,
      "start": 36.3743,
      "duration": 1.0396,
      "velocity": 111,
      "chip": "ym2612"
    },
    {
      "channel": 1,
      "note": 42,
      "start": 36.3751,
      "duration": 0.2561,
      "velocity": 103,
      "chip": "ym2612"
    },
    {
      "channel": 2,
      "note": 103,
      "start": 36.3776,
      "duration": 0.1737,
      "velocity": 103,
      "chip": "ym2612"
    },
    {
      "channel": 5,
      "note": 91,
      "start": 36.5028,
      "duration": 0.1298,
      "velocity": 111,
      "chip": "ym2612"
    },
    {
      "channel": 1,
      "note": 42,
      "start": 36.6318,
      "duration": 0.2593,
      "velocity": 103,
      "chip": "ym2612"
    },
    {
      "channel": 5,
      "note": 85,
      "start": 36.6333,
      "duration": 1.042,
      "velocity": 111,
      "chip": "ym2612"
    },
    {
      "channel": 1,
      "note": 36,
      "start": 37.4153,
      "duration": 0.2586,
      "velocity": 103,
      "chip": "ym2612"
    },
    {
      "channel": 3,
      "note": 84,
      "start": 37.4161,
      "duration": 4.1603,
      "velocity": 83,
      "chip": "ym2612"
    },
    {
      "channel": 4,
      "note": 87,
      "start": 37.417,
      "duration": 4.1603,
      "velocity": 83,
      "chip": "ym2612"
    },
    {
      "channel": 2,
      "note": 26,
      "start": 37.419,
      "duration": 0.0908,
      "velocity": 120,
      "chip": "ym2612"
    },
    {
      "channel": 1,
      "note": 36,
      "start": 37.6745,
      "duration": 0.2568,
      "velocity": 103,
      "chip": "ym2612"
    },
    {
      "channel": 2,
      "note": 26,
      "start": 37.6773,
      "duration": 0.0925,
      "velocity": 120,
      "chip": "ym2612"
    },
    {
      "channel": 0,
      "note": 83,
      "start": 38.1917,
      "duration": 0.1293,
      "velocity": 111,
      "chip": "ym2612"
    },
    {
      "channel": 0,
      "note": 84,
      "start": 38.3217,
      "duration": 0.1321,
      "velocity": 111,
      "chip": "ym2612"
    },
    {
      "channel": 0,
      "note": 87,
      "start": 38.4545,
      "duration": 1.0397,
      "velocity": 111,
      "chip": "ym2612"
    },
    {
      "channel": 1,
      "note": 36,
      "start": 38.4552,
      "duration": 0.2562,
      "velocity": 103,
      "chip": "ym2612"
    },
    {
      "channel": 5,
      "note": 83,
      "start": 38.4568,
      "duration": 0.1256,
      "velocity": 111,
      "chip": "ym2612"
    },
    {
      "channel": 2,
      "note": 103,
      "start": 38.4585,
      "duration": 0.173,
      "velocity": 103,
      "chip": "ym2612"
    },
    {
      "channel": 5,
      "note": 84,
      "start": 38.5831,
      "duration": 0.1297,
      "velocity": 111,
      "chip": "ym2612"
    },
    {
      "channel": 1,
      "note": 36,
      "start": 38.712,
      "duration": 0.2594,
      "velocity": 103,
      "chip": "ym2612"
    },
    {
      "channel": 5,
      "note": 87,
      "start": 38.7135,
      "duration": 1.0421,
      "velocity": 111,
      "chip": "ym2612"
    },
    {
      "channel": 0,
      "note": 88,
      "start": 39.4949,
      "duration": 0.5165,
      "velocity": 111,
      "chip": "ym2612"
    },
    {
      "channel": 1,
      "note": 36,
      "start": 39.4957,
      "duration": 0.2585,
      "velocity": 103,
      "chip": "ym2612"
    },
    {
      "channel": 2,
      "note": 26,
      "start": 39.4987,
      "duration": 0.0915,
      "velocity": 120,
      "chip": "ym2612"
    },
    {
      "channel": 1,
      "note": 36,
      "start": 39.7548,
      "duration": 0.2573,
      "velocity": 103,
      "chip": "ym2612"
    },
    {
      "channel": 5,
      "note": 88,
      "start": 39.7563,
      "duration": 0.5161,
      "velocity": 111,
      "chip": "ym2612"
    },
    {
      "channel": 2,
      "note": 26,
      "start": 39.758,
      "duration": 0.0924,
      "velocity": 120,
      "chip": "ym2612"
    },
    {
      "channel": 0,
      "note": 87,
      "start": 40.012,
      "duration": 0.5221,
      "velocity": 111,
      "chip": "ym2612"
    },
    {
      "channel": 5,
      "note": 87,
      "start": 40.2731,
      "duration": 0.5199,
      "velocity": 111,
      "chip": "ym2612"
    },
    {
      "channel": 0,
      "note": 84,
      "start": 40.5347,
      "duration": 0.5165,
      "velocity": 111,
      "chip": "ym2612"
    },
    {
      "channel": 1,
      "note": 36,
      "start": 40.5355,
      "duration": 0.256,
      "velocity": 103,
      "chip": "ym2612"
    },
    {
      "channel": 2,
      "note": 103,
      "start": 40.5382,
      "duration": 0.1735,
      "velocity": 103,
      "chip": "ym2612"
    },
    {
      "channel": 1,
      "note": 36,
      "start": 40.7922,
      "duration": 0.2599,
      "velocity": 103,
      "chip": "ym2612"
    },
    {
      "channel": 5,
      "note": 84,
      "start": 40.7937,
      "duration": 0.5188,
      "velocity": 111,
      "chip": "ym2612"
    },
    {
      "channel": 0,
      "note": 83,
      "start": 41.0519,
      "duration": 0.5225,
      "velocity": 111,
      "chip": "ym2612"
    },
    {
      "channel": 5,
      "note": 83,
      "start": 41.3132,
      "duration": 0.5227,
      "velocity": 111,
      "chip": "ym2612"
    },
    {
      "channel": 0,
      "note": 91,
      "start": 41.5751,
      "duration": 0.1263,
      "velocity": 111,
      "chip": "ym2612"
    },
    {
      "channel": 1,
      "note": 42,
      "start": 41.5761,
      "duration": 0.2583,
      "velocity": 103,
      "chip": "ym2612"
    },
    {
      "channel": 3,
      "note": 85,
      "start": 41.577,
      "duration": 4.1595,
      "velocity": 83,
      "chip": "ym2612"
    },
    {
      "channel": 4,
      "note": 92,
      "start": 41.578,
      "duration": 4.1594,
      "velocity": 83,
      "chip": "ym2612"
    },
    {
      "channel": 2,
      "note": 26,
      "start": 41.58,
      "duration": 0.0905,
      "velocity": 120,
      "chip": "ym2612"
    },
    {
      "channel": 0,
      "note": 85,
      "start": 41.702,
      "duration": 1.6895,
      "velocity": 111,
      "chip": "ym2612"
    },
    {
      "channel": 1,
      "note": 42,
      "start": 41.8351,
      "duration": 0.2568,
      "velocity": 103,
      "chip": "ym2612"
    },
    {
      "channel": 5,
      "note": 91,
      "start": 41.8365,
      "duration": 0.1261,
      "velocity": 111,
      "chip": "ym2612"
    },
    {
      "channel": 2,
      "note": 26,
      "start": 41.8382,
      "duration": 0.0923,
      "velocity": 120,
      "chip": "ym2612"
    },
    {
      "channel": 5,
      "note": 85,
      "start": 41.9634,
      "duration": 1.6939,
      "velocity": 111,
      "chip": "ym2612"
    },
    {
      "channel": 1,
      "note": 42,
      "start": 42.6151,
      "duration": 0.2566,
      "velocity": 103,
      "chip": "ym2612"
    },
    {
      "channel": 2,
      "note": 103,
      "start": 42.6179,
      "duration": 0.1741,
      "velocity": 103,
      "chip": "ym2612"
    },
    {
      "channel": 1,
      "note": 42,
      "start": 42.8724,
      "duration": 0.2593,
      "velocity": 103,
      "chip": "ym2612"
    },
    {
      "channel": 0,
      "note": 91,
      "start": 43.6553,
      "duration": 0.1263,
      "velocity": 111,
      "chip": "ym2612"
    },
    {
      "channel": 1,
      "note": 42,
      "start": 43.6562,
      "duration": 0.2586,
      "velocity": 103,
      "chip": "ym2612"
    },
    {
      "channel": 2,
      "note": 26,
      "start": 43.6593,
      "duration": 0.0913,
      "velocity": 120,
      "chip": "ym2612"
    },
    {
      "channel": 0,
      "note": 85,
      "start": 43.7822,
      "duration": 0.132,
      "velocity": 111,
      "chip": "ym2612"
    },
    {
      "channel": 1,
      "note": 42,
      "start": 43.9154,
      "duration": 0.2565,
      "velocity": 103,
      "chip": "ym2612"
    },
    {
      "channel": 5,
      "note": 91,
      "start": 43.9169,
      "duration": 0.1257,
      "velocity": 111,
      "chip": "ym2612"
    },
    {
      "channel": 2,
      "note": 26,
      "start": 43.9186,
      "duration": 0.0919,
      "velocity": 120,
      "chip": "ym2612"
    },
    {
      "channel": 5,
      "note": 85,
      "start": 44.0433,
      "duration": 0.1296,
      "velocity": 111,
      "chip": "ym2612"
    },
    {
      "channel": 1,
      "note": 42,
      "start": 44.6952,
      "duration": 0.2567,
      "velocity": 103,
      "chip": "ym2612"
    },
    {
      "channel": 2,
      "note": 103,
      "start": 44.6977,
      "duration": 0.174,
      "velocity": 103,
      "chip": "ym2612"
    },
    {
      "channel": 1,
      "note": 42,
      "start": 44.9525,
      "duration": 0.2593,
      "velocity": 103,
      "chip": "ym2612"
    },
    {
      "channel": 0,
      "note": 83,
      "start": 45.3424,
      "duration": 0.1293,
      "velocity": 111,
      "chip": "ym2612"
    },
    {
      "channel": 0,
      "note": 84,
      "start": 45.4723,
      "duration": 0.1294,
      "velocity": 111,
      "chip": "ym2612"
    },
    {
      "channel": 0,
      "note": 87,
      "start": 45.6024,
      "duration": 0.1324,
      "velocity": 111,
      "chip": "ym2612"
    },
    {
      "channel": 5,
      "note": 83,
      "start": 45.6041,
      "duration": 0.1341,
      "velocity": 111,
      "chip": "ym2612"
    },
    {
      "channel": 0,
      "note": 88,
      "start": 45.7355,
      "duration": 1.2963,
      "velocity": 111,
      "chip": "ym2612"
    },
    {
      "channel": 1,
      "note": 36,
      "start": 45.7365,
      "duration": 0.2584,
      "velocity": 103,
      "chip": "ym2612"
    },
    {
      "channel": 3,
      "note": 84,
      "start": 45.7373,
      "duration": 4.1599,
      "velocity": 83,
      "chip": "ym2612"
    },
    {
      "channel": 4,
      "note": 87,
      "start": 45.7381,
      "duration": 4.16,
      "velocity": 83,
      "chip": "ym2612"
    },
    {
      "channel": 5,
      "note": 84,
      "start": 45.7389,
      "duration": 0.124,
      "velocity": 111,
      "chip": "ym2612"
    },
    {
      "channel": 2,
      "note": 26,
      "start": 45.7406,
      "duration": 0.0902,
      "velocity": 120,
      "chip": "ym2612"
    },
    {
      "channel": 5,
      "note": 87,
      "start": 45.8636,
      "duration": 0.1327,
      "velocity": 111,
      "chip": "ym2612"
    },
    {
      "channel": 1,
      "note": 36,
      "start": 45.9955,
      "duration": 0.2567,
      "velocity": 103,
      "chip": "ym2612"
    },
    {
      "channel": 5,
      "note": 88,
      "start": 45.997,
      "duration": 1.2964,
      "velocity": 111,
      "chip": "ym2612"
    },
    {
      "channel": 2,
      "note": 26,
      "start": 45.9987,
      "duration": 0.0922,
      "velocity": 120,
      "chip": "ym2612"
    },
    {
      "channel": 1,
      "note": 36,
      "start": 46.7756,
      "duration": 0.2571,
      "velocity": 103,
      "chip": "ym2612"
    },
    {
      "channel": 2,
      "note": 103,
      "start": 46.7784,
      "duration": 0.1739,
      "velocity": 103,
      "chip": "ym2612"
    },
    {
      "channel": 0,
      "note": 87,
      "start": 47.0325,
      "duration": 0.5193,
      "velocity": 111,
      "chip": "ym2612"
    },
    {
      "channel": 1,
      "note": 36,
      "start": 47.0333,
      "duration": 0.2589,
      "velocity": 103,
      "chip": "ym2612"
    },
    {
      "channel": 5,
      "note": 87,
      "start": 47.2941,
      "duration": 0.5235,
      "velocity": 111,
      "chip": "ym2612"
    },
    {
      "channel": 0,
      "note": 84,
      "start": 47.5525,
      "duration": 0.2624,
      "velocity": 111,
      "chip": "ym2612"
    },
    {
      "channel": 0,
      "note": 87,
      "start": 47.8156,
      "duration": 0.1263,
      "velocity": 111,
      "chip": "ym2612"
    },
    {
      "channel": 1,
      "note": 36,
      "start": 47.8166,
      "duration": 0.2583,
      "velocity": 103,
      "chip": "ym2612"
    },
    {
      "channel": 5,
      "note": 84,
      "start": 47.8183,
      "duration": 0.2579,
      "velocity": 111,
      "chip": "ym2612"
    },
    {
      "channel": 2,
      "note": 26,
      "start": 47.82,
      "duration": 0.091,
      "velocity": 120,
      "chip": "ym2612"
    },
    {
      "channel": 1,
      "note": 36,
      "start": 48.0754,
      "duration": 0.2569,
      "velocity": 103,
      "chip": "ym2612"
    },
    {
      "channel": 5,
      "note": 87,
      "start": 48.0769,
      "duration": 0.1261,
      "velocity": 111,
      "chip": "ym2612"
    },
    {
      "channel": 2,
      "note": 26,
      "start": 48.0786,
      "duration": 0.0924,
      "velocity": 120,
      "chip": "ym2612"
    },
    {
      "channel": 1,
      "note": 36,
      "start": 48.8555,
      "duration": 0.2567,
      "velocity": 103,
      "chip": "ym2612"
    },
    {
      "channel": 2,
      "note": 103,
      "start": 48.8581,
      "duration": 0.1741,
      "velocity": 103,
      "chip": "ym2612"
    },
    {
      "channel": 1,
      "note": 36,
      "start": 49.1129,
      "duration": 0.2593,
      "velocity": 103,
      "chip": "ym2612"
    },
    {
      "channel": 0,
      "note": 85,
      "start": 49.8959,
      "duration": 0.1262,
      "velocity": 111,
      "chip": "ym2612"
    },
    {
      "channel": 1,
      "note": 42,
      "start": 49.8969,
      "duration": 0.2588,
      "velocity": 103,
      "chip": "ym2612"
    },
    {
      "channel": 3,
      "note": 85,
      "start": 49.8978,
      "duration": 4.1595,
      "velocity": 83,
      "chip": "ym2612"
    },
    {
      "channel": 4,
      "note": 92,
      "start": 49.8988,
      "duration": 4.1593,
      "velocity": 83,
      "chip": "ym2612"
    },
    {
      "channel": 2,
      "note": 26,
      "start": 49.9006,
      "duration": 0.0904,
      "velocity": 120,
      "chip": "ym2612"
    },
    {
      "channel": 0,
      "note": 86,
      "start": 50.0228,
      "duration": 0.1321,
      "velocity": 111,
      "chip": "ym2612"
    },
    {
      "channel": 0,
      "note": 89,
      "start": 50.1555,
      "duration": 0.1266,
      "velocity": 111,
      "chip": "ym2612"
    },
    {
      "channel": 1,
      "note": 42,
      "start": 50.1564,
      "duration": 0.2562,
      "velocity": 103,
      "chip": "ym2612"
    },
    {
      "channel": 5,
      "note": 85,
      "start": 50.1578,
      "duration": 0.1261,
      "velocity": 111,
      "chip": "ym2612"
    },
    {
      "channel": 2,
      "note": 26,
      "start": 50.1595,
      "duration": 0.0918,
      "velocity": 120,
      "chip": "ym2612"
    },
    {
      "channel": 0,
      "note": 90,
      "start": 50.2828,
      "duration": 1.6925,
      "velocity": 111,
      "chip": "ym2612"
    },
    {
      "channel": 5,
      "note": 86,
      "start": 50.2847,
      "duration": 0.1291,
      "velocity": 111,
      "chip": "ym2612"
    },
    {
      "channel": 5,
      "note": 89,
      "start": 50.4144,
      "duration": 0.1289,
      "velocity": 111,
      "chip": "ym2612"
    },
    {
      "channel": 5,
      "note": 90,
      "start": 50.544,
      "duration": 1.6933,
      "velocity": 111,
      "chip": "ym2612"
    },
    {
      "channel": 1,
      "note": 42,
      "start": 50.9359,
      "duration": 0.2567,
      "velocity": 103,
      "chip": "ym2612"
    },
    {
      "channel": 2,
      "note": 103,
      "start": 50.9387,
      "duration": 0.1741,
      "velocity": 103,
      "chip": "ym2612"
    },
    {
      "channel": 1,
      "note": 42,
      "start": 51.1933,
      "duration": 0.2593,
      "velocity": 103,
      "chip": "ym2612"
    },
    {
      "channel": 0,
      "note": 89,
      "start": 51.976,
      "duration": 0.1263,
      "velocity": 111,
      "chip": "ym2612"
    },
    {
      "channel": 1,
      "note": 42,
      "start": 51.9769,
      "duration": 0.259,
      "velocity": 103,
      "chip": "ym2612"
    },
    {
      "channel": 2,
      "note": 26,
      "start": 51.9799,
      "duration": 0.0915,
      "velocity": 120,
      "chip": "ym2612"
    },
    {
      "channel": 0,
      "note": 87,
      "start": 52.103,
      "duration": 0.1321,
      "velocity": 111,
      "chip": "ym2612"
    },
    {
      "channel": 0,
      "note": 86,
      "start": 52.2358,
      "duration": 0.1266,
      "velocity": 111,
      "chip": "ym2612"
    },
    {
      "channel": 1,
      "note": 42,
      "start": 52.2365,
      "duration": 0.2568,
      "velocity": 103,
      "chip": "ym2612"
    },
    {
      "channel": 5,
      "note": 89,
      "start": 52.238,
      "duration": 0.1261,
      "velocity": 111,
      "chip": "ym2612"
    },
    {
      "channel": 2,
      "note": 26,
      "start": 52.2396,
      "duration": 0.0918,
      "velocity": 120,
      "chip": "ym2612"
    },
    {
      "channel": 0,
      "note": 85,
      "start": 52.363,
      "duration": 0.1295,
      "velocity": 111,
      "chip": "ym2612"
    },
    {
      "channel": 5,
      "note": 87,
      "start": 52.3648,
      "duration": 0.1296,
      "velocity": 111,
      "chip": "ym2612"
    },
    {
      "channel": 0,
      "note": 83,
      "start": 52.4932,
      "duration": 0.522,
      "velocity": 111,
      "chip": "ym2612"
    },
    {
      "channel": 5,
      "note": 86,
      "start": 52.4952,
      "duration": 0.1283,
      "velocity": 111,
      "chip": "ym2612"
    },
    {
      "channel": 5,
      "note": 85,
      "start": 52.6241,
      "duration": 0.1295,
      "velocity": 111,
      "chip": "ym2612"
    },
    {
      "channel": 5,
      "note": 83,
      "start": 52.7543,
      "duration": 0.5199,
      "velocity": 111,
      "chip": "ym2612"
    },
    {
      "channel": 0,
      "note": 85,
      "start": 53.0159,
      "duration": 0.9067,
      "velocity": 111,
      "chip": "ym2612"
    },
    {
      "channel": 1,
      "note": 42,
      "start": 53.0167,
      "duration": 0.2561,
      "velocity": 103,
      "chip": "ym2612"
    },
    {
      "channel": 2,
      "note": 103,
      "start": 53.0193,
      "duration": 0.1735,
      "velocity": 103,
      "chip": "ym2612"
    },
    {
      "channel": 1,
      "note": 42,
      "start": 53.2734,
      "duration": 0.2594,
      "velocity": 103,
      "chip": "ym2612"
    },
    {
      "channel": 5,
      "note": 85,
      "start": 53.2749,
      "duration": 0.9089,
      "velocity": 111,
      "chip": "ym2612"
    },
    {
      "channel": 0,
      "note": 84,
      "start": 54.0562,
      "duration": 2.0795,
      "velocity": 111,
      "chip": "ym2612"
    },
    {
      "channel": 1,
      "note": 36,
      "start": 54.0572,
      "duration": 0.2584,
      "velocity": 103,
      "chip": "ym2612"
    },
    {
      "channel": 3,
      "note": 84,
      "start": 54.058,
      "duration": 4.16,
      "velocity": 83,
      "chip": "ym2612"
    },
    {
      "channel": 4,
      "note": 87,
      "start": 54.0588,
      "duration": 4.16,
      "velocity": 83,
      "chip": "ym2612"
    },
    {
      "channel": 2,
      "note": 26,
      "start": 54.0609,
      "duration": 0.0908,
      "velocity": 120,
      "chip": "ym2612"
    },
    {
      "channel": 1,
      "note": 36,
      "start": 54.3162,
      "duration": 0.2568,
      "velocity": 103,
      "chip": "ym2612"
    },
    {
      "channel": 5,
      "note": 84,
      "start": 54.3178,
      "duration": 2.0799,
      "velocity": 111,
      "chip": "ym2612"
    },
    {
      "channel": 2,
      "note": 26,
      "start": 54.3195,
      "duration": 0.0922,
      "velocity": 120,
      "chip": "ym2612"
    },
    {
      "channel": 1,
      "note": 36,
      "start": 55.0963,
      "duration": 0.2566,
      "velocity": 103,
      "chip": "ym2612"
    },
    {
      "channel": 2,
      "note": 103,
      "start": 55.099,
      "duration": 0.1741,
      "velocity": 103,
      "chip": "ym2612"
    },
    {
      "channel": 1,
      "note": 36,
      "start": 55.3536,
      "duration": 0.2594,
      "velocity": 103,
      "chip": "ym2612"
    },
    {
      "channel": 0,
      "note": 87,
      "start": 56.1365,
      "duration": 0.259,
      "velocity": 111,
      "chip": "ym2612"
    },
    {
      "channel": 1,
      "note": 36,
      "start": 56.1373,
      "duration": 0.2589,
      "velocity": 103,
      "chip": "ym2612"
    },
    {
      "channel": 2,
      "note": 26,
      "start": 56.1403,
      "duration": 0.0915,
      "velocity": 120,
      "chip": "ym2612"
    },
    {
      "channel": 0,
      "note": 86,
      "start": 56.3961,
      "duration": 0.2567,
      "velocity": 111,
      "chip": "ym2612"
    },
    {
      "channel": 1,
      "note": 36,
      "start": 56.3969,
      "duration": 0.2568,
      "velocity": 103,
      "chip": "ym2612"
    },
    {
      "channel": 5,
      "note": 87,
      "start": 56.3983,
      "duration": 0.2565,
      "velocity": 111,
      "chip": "ym2612"
    },
    {
      "channel": 2,
      "note": 26,
      "start": 56.4001,
      "duration": 0.0918,
      "velocity": 120,
      "chip": "ym2612"
    },
    {
      "channel": 0,
      "note": 81,
      "start": 56.6536,
      "duration": 0.1292,
      "velocity": 111,
      "chip": "ym2612"
    },
    {
      "channel": 5,
      "note": 86,
      "start": 56.6555,
      "duration": 0.2588,
      "velocity": 111,
      "chip": "ym2612"
    },
    {
      "channel": 0,
      "note": 84,
      "start": 56.7835,
      "duration": 0.1292,
      "velocity": 111,
      "chip": "ym2612"
    },
    {
      "channel": 0,
      "note": 83,
      "start": 56.9134,
      "duration": 0.1294,
      "velocity": 111,
      "chip": "ym2612"
    },
    {
      "channel": 5,
      "note": 81,
      "start": 56.9151,
      "duration": 0.1295,
      "velocity": 111,
      "chip": "ym2612"
    },
    {
      "channel": 0,
      "note": 84,
      "start": 57.0434,
      "duration": 0.1321,
      "velocity": 111,
      "chip": "ym2612"
    },
    {
      "channel": 5,
      "note": 84,
      "start": 57.0452,
      "duration": 0.1326,
      "velocity": 111,
      "chip": "ym2612"
    },
    {
      "channel": 0,
      "note": 82,
      "start": 57.1763,
      "duration": 1.0397,
      "velocity": 111,
      "chip": "ym2612"
    },
    {
      "channel": 1,
      "note": 36,
      "start": 57.177,
      "duration": 0.2562,
      "velocity": 103,
      "chip": "ym2612"
    },
    {
      "channel": 5,
      "note": 83,
      "start": 57.1785,
      "duration": 0.1256,
      "velocity": 111,
      "chip": "ym2612"
    },
    {
      "channel": 2,
      "note": 103,
      "start": 57.1802,
      "duration": 0.1729,
      "velocity": 103,
      "chip": "ym2612"
    },
    {
      "channel": 5,
      "note": 84,
      "start": 57.3047,
      "duration": 0.1299,
      "velocity": 111,
      "chip": "ym2612"
    },
    {
      "channel": 1,
      "note": 36,
      "start": 57.4339,
      "duration": 0.2593,
      "velocity": 103,
      "chip": "ym2612"
    },
    {
      "channel": 5,
      "note": 82,
      "start": 57.4353,
      "duration": 1.0426,
      "velocity": 111,
      "chip": "ym2612"
    },
    {
      "channel": 0,
      "note": 84,
      "start": 58.2167,
      "duration": 0.1262,
      "velocity": 111,
      "chip": "ym2612"
    },
    {
      "channel": 1,
      "note": 42,
      "start": 58.2178,
      "duration": 0.2588,
      "velocity": 103,
      "chip": "ym2612"
    },
    {
      "channel": 3,
      "note": 85,
      "start": 58.2187,
      "duration": 4.1594,
      "velocity": 83,
      "chip": "ym2612"
    },
    {
      "channel": 4,
      "note": 92,
      "start": 58.2196,
      "duration": 4.1594,
      "velocity": 83,
      "chip": "ym2612"
    },
    {
      "channel": 2,
      "note": 26,
      "start": 58.2216,
      "duration": 0.0904,
      "velocity": 120,
      "chip": "ym2612"
    },
    {
      "channel": 0,
      "note": 85,
      "start": 58.3436,
      "duration": 0.1321,
      "velocity": 111,
      "chip": "ym2612"
    },
    {
      "channel": 0,
      "note": 86,
      "start": 58.4763,
      "duration": 0.1266,
      "velocity": 111,
      "chip": "ym2612"
    },
    {
      "channel": 1,
      "note": 42,
      "start": 58.4772,
      "duration": 0.2562,
      "velocity": 103,
      "chip": "ym2612"
    },
    {
      "channel": 5,
      "note": 84,
      "start": 58.4786,
      "duration": 0.1261,
      "velocity": 111,
      "chip": "ym2612"
    },
    {
      "channel": 2,
      "note": 26,
      "start": 58.4803,
      "duration": 0.0918,
      "velocity": 120,
      "chip": "ym2612"
    },
    {
      "channel": 0,
      "note": 90,
      "start": 58.6036,
      "duration": 1.2994,
      "velocity": 111,
      "chip": "ym2612"
    },
    {
      "channel": 5,
      "note": 85,
      "start": 58.6054,
      "duration": 0.1291,
      "velocity": 111,
      "chip": "ym2612"
    },
    {
      "channel": 5,
      "note": 86,
      "start": 58.7352,
      "duration": 0.1289,
      "velocity": 111,
      "chip": "ym2612"
    },
    {
      "channel": 5,
      "note": 90,
      "start": 58.8648,
      "duration": 1.3,
      "velocity": 111,
      "chip": "ym2612"
    },
    {
      "channel": 1,
      "note": 42,
      "start": 59.2568,
      "duration": 0.2566,
      "velocity": 103,
      "chip": "ym2612"
    },
    {
      "channel": 2,
      "note": 103,
      "start": 59.2595,
      "duration": 0.1741,
      "velocity": 103,
      "chip": "ym2612"
    },
    {
      "channel": 1,
      "note": 42,
      "start": 59.514,
      "duration": 0.2594,
      "velocity": 103,
      "chip": "ym2612"
    },
    {
      "channel": 0,
      "note": 86,
      "start": 59.9038,
      "duration": 0.1293,
      "velocity": 111,
      "chip": "ym2612"
    },
    {
      "channel": 0,
      "note": 87,
      "start": 60.0338,
      "duration": 0.1293,
      "velocity": 111,
      "chip": "ym2612"
    },
    {
      "channel": 0,
      "note": 88,
      "start": 60.1637,
      "duration": 0.1324,
      "velocity": 111,
      "chip": "ym2612"
    },
    {
      "channel": 5,
      "note": 86,
      "start": 60.1655,
      "duration": 0.1333,
      "velocity": 111,
      "chip": "ym2612"
    },
    {
      "channel": 0,
      "note": 92,
      "start": 60.2968,
      "duration": 0.5164,
      "velocity": 111,
      "chip": "ym2612"
    },
    {
      "channel": 1,
      "note": 42,
      "start": 60.2977,
      "duration": 0.2585,
      "velocity": 103,
      "chip": "ym2612"
    },
    {
      "channel": 5,
      "note": 87,
      "start": 60.2995,
      "duration": 0.1249,
      "velocity": 111,
      "chip": "ym2612"
    },
    {
      "channel": 2,
      "note": 26,
      "start": 60.3012,
      "duration": 0.091,
      "velocity": 120,
      "chip": "ym2612"
    },
    {
      "channel": 5,
      "note": 88,
      "start": 60.425,
      "duration": 0.1326,
      "velocity": 111,
      "chip": "ym2612"
    },
    {
      "channel": 1,
      "note": 42,
      "start": 60.5568,
      "duration": 0.2573,
      "velocity": 103,
      "chip": "ym2612"
    },
    {
      "channel": 5,
      "note": 92,
      "start": 60.5583,
      "duration": 0.516,
      "velocity": 111,
      "chip": "ym2612"
    },
    {
      "channel": 2,
      "note": 26,
      "start": 60.5599,
      "duration": 0.0924,
      "velocity": 120,
      "chip": "ym2612"
    },
    {
      "channel": 0,
      "note": 93,
      "start": 60.8139,
      "duration": 0.7793,
      "velocity": 111,
      "chip": "ym2612"
    },
    {
      "channel": 5,
      "note": 93,
      "start": 61.075,
      "duration": 0.7797,
      "velocity": 111,
      "chip": "ym2612"
    },
    {
      "channel": 1,
      "note": 42,
      "start": 61.337,
      "duration": 0.2571,
      "velocity": 103,
      "chip": "ym2612"
    },
    {
      "channel": 2,
      "note": 103,
      "start": 61.3397,
      "duration": 0.1739,
      "velocity": 103,
      "chip": "ym2612"
    },
    {
      "channel": 0,
      "note": 92,
      "start": 61.5939,
      "duration": 0.7824,
      "velocity": 111,
      "chip": "ym2612"
    },
    {
      "channel": 1,
      "note": 42,
      "start": 61.5946,
      "duration": 0.2589,
      "velocity": 103,
      "chip": "ym2612"
    },
    {
      "channel": 5,
      "note": 92,
      "start": 61.8554,
      "duration": 0.7826,
      "velocity": 111,
      "chip": "ym2612"
    },
    {
      "channel": 0,
      "note": 89,
      "start": 62.377,
      "duration": 1.9465,
      "velocity": 111,
      "chip": "ym2612"
    },
    {
      "channel": 1,
      "note": 42,
      "start": 62.378,
      "duration": 0.2585,
      "velocity": 103,
      "chip": "ym2612"
    },
    {
      "channel": 3,
      "note": 84,
      "start": 62.3788,
      "duration": 2.8586,
      "velocity": 83,
      "chip": "ym2612"
    },
    {
      "channel": 4,
      "note": 87,
      "start": 62.3796,
      "duration": 2.8586,
      "velocity": 83,
      "chip": "ym2612"
    },
    {
      "channel": 2,
      "note": 26,
      "start": 62.3817,
      "duration": 0.0907,
      "velocity": 120,
      "chip": "ym2612"
    },
    {
      "channel": 1,
      "note": 42,
      "start": 62.6371,
      "duration": 0.2567,
      "velocity": 103,
      "chip": "ym2612"
    },
    {
      "channel": 5,
      "note": 89,
      "start": 62.6386,
      "duration": 1.9472,
      "velocity": 111,
      "chip": "ym2612"
    },
    {
      "channel": 2,
      "note": 26,
      "start": 62.6403,
      "duration": 0.0922,
      "velocity": 120,
      "chip": "ym2612"
    },
    {
      "channel": 1,
      "note": 42,
      "start": 62.8945,
      "duration": 0.2592,
      "velocity": 103,
      "chip": "ym2612"
    },
    {
      "channel": 1,
      "note": 42,
      "start": 63.1543,
      "duration": 0.2622,
      "velocity": 103,
      "chip": "ym2612"
    },
    {
      "channel": 1,
      "note": 42,
      "start": 63.4171,
      "duration": 0.2566,
      "velocity": 103,
      "chip": "ym2612"
    },
    {
      "channel": 2,
      "note": 103,
      "start": 63.4198,
      "duration": 0.1741,
      "velocity": 103,
      "chip": "ym2612"
    },
    {
      "channel": 1,
      "note": 42,
      "start": 63.6744,
      "duration": 0.1294,
      "velocity": 103,
      "chip": "ym2612"
    },
    {
      "channel": 1,
      "note": 42,
      "start": 63.8044,
      "duration": 0.1294,
      "velocity": 103,
      "chip": "ym2612"
    },
    {
      "channel": 1,
      "note": 42,
      "start": 63.9344,
      "duration": 0.1293,
      "velocity": 103,
      "chip": "ym2612"
    },
    {
      "channel": 1,
      "note": 42,
      "start": 64.0644,
      "duration": 0.1294,
      "velocity": 103,
      "chip": "ym2612"
    },
    {
      "channel": 1,
      "note": 42,
      "start": 64.1944,
      "duration": 0.13,
      "velocity": 103,
      "chip": "ym2612"
    },
    {
      "channel": 0,
      "note": 86,
      "start": 64.3242,
      "duration": 0.1324,
      "velocity": 111,
      "chip": "ym2612"
    },
    {
      "channel": 1,
      "note": 42,
      "start": 64.325,
      "duration": 0.1324,
      "velocity": 103,
      "chip": "ym2612"
    },
    {
      "channel": 0,
      "note": 88,
      "start": 64.4573,
      "duration": 0.1263,
      "velocity": 111,
      "chip": "ym2612"
    },
    {
      "channel": 1,
      "note": 36,
      "start": 64.458,
      "duration": 0.1264,
      "velocity": 103,
      "chip": "ym2612"
    },
    {
      "channel": 2,
      "note": 103,
      "start": 64.4611,
      "duration": 0.1728,
      "velocity": 103,
      "chip": "ym2612"
    },
    {
      "channel": 0,
      "note": 89,
      "start": 64.5843,
      "duration": 0.132,
      "velocity": 111,
      "chip": "ym2612"
    },
    {
      "channel": 1,
      "note": 36,
      "start": 64.5851,
      "duration": 0.1321,
      "velocity": 103,
      "chip": "ym2612"
    },
    {
      "channel": 5,
      "note": 86,
      "start": 64.5865,
      "duration": 0.1321,
      "velocity": 111,
      "chip": "ym2612"
    },
    {
      "channel": 0,
      "note": 86,
      "start": 64.717,
      "duration": 0.1265,
      "velocity": 111,
      "chip": "ym2612"
    },
    {
      "channel": 1,
      "note": 36,
      "start": 64.7178,
      "duration": 0.1265,
      "velocity": 103,
      "chip": "ym2612"
    },
    {
      "channel": 5,
      "note": 88,
      "start": 64.7193,
      "duration": 0.1265,
      "velocity": 111,
      "chip": "ym2612"
    },
    {
      "channel": 2,
      "note": 26,
      "start": 64.7209,
      "duration": 0.0917,
      "velocity": 120,
      "chip": "ym2612"
    },
    {
      "channel": 0,
      "note": 89,
      "start": 64.8442,
      "duration": 0.1321,
      "velocity": 111,
      "chip": "ym2612"
    },
    {
      "channel": 1,
      "note": 36,
      "start": 64.845,
      "duration": 0.1322,
      "velocity": 103,
      "chip": "ym2612"
    },
    {
      "channel": 5,
      "note": 89,
      "start": 64.8464,
      "duration": 0.1321,
      "velocity": 111,
      "chip": "ym2612"
    },
    {
      "channel": 0,
      "note": 92,
      "start": 64.977,
      "duration": 0.1293,
      "velocity": 111,
      "chip": "ym2612"
    },
    {
      "channel": 1,
      "note": 36,
      "start": 64.9778,
      "duration": 0.1293,
      "velocity": 103,
      "chip": "ym2612"
    },
    {
      "channel": 5,
      "note": 86,
      "start": 64.9793,
      "duration": 0.1293,
      "velocity": 111,
      "chip": "ym2612"
    },
    {
      "channel": 2,
      "note": 103,
      "start": 64.981,
      "duration": 0.1225,
      "velocity": 103,
      "chip": "ym2612"
    },
    {
      "channel": 0,
      "note": 86,
      "start": 65.107,
      "duration": 0.2593,
      "velocity": 111,
      "chip": "ym2612"
    },
    {
      "channel": 1,
      "note": 36,
      "start": 65.1078,
      "duration": 0.1289,
      "velocity": 103,
      "chip": "ym2612"
    },
    {
      "channel": 5,
      "note": 89,
      "start": 65.1092,
      "duration": 0.1298,
      "velocity": 111,
      "chip": "ym2612"
    },
    {
      "channel": 2,
      "note": 103,
      "start": 65.111,
      "duration": 0.1226,
      "velocity": 103,
      "chip": "ym2612"
    },
    {
      "channel": 1,
      "note": 37,
      "start": 65.2373,
      "duration": 0.1299,
      "velocity": 103,
      "chip": "ym2612"
    },
    {
      "channel": 3,
      "note": 85,
      "start": 65.2381,
      "duration": 0.5198,
      "velocity": 83,
      "chip": "ym2612"
    },
    {
      "channel": 4,
      "note": 88,
      "start": 65.2389,
      "duration": 0.5198,
      "velocity": 83,
      "chip": "ym2612"
    },
    {
      "channel": 5,
      "note": 92,
      "start": 65.2398,
      "duration": 0.1288,
      "velocity": 111,
      "chip": "ym2612"
    },
    {
      "channel": 2,
      "note": 103,
      "start": 65.2415,
      "duration": 0.1221,
      "velocity": 103,
      "chip": "ym2612"
    },
    {
      "channel": 0,
      "note": 92,
      "start": 65.3671,
      "duration": 0.1293,
      "velocity": 111,
      "chip": "ym2612"
    },
    {
      "channel": 1,
      "note": 37,
      "start": 65.3678,
      "duration": 0.1294,
      "velocity": 103,
      "chip": "ym2612"
    },
    {
      "channel": 5,
      "note": 86,
      "start": 65.3693,
      "duration": 0.2593,
      "velocity": 111,
      "chip": "ym2612"
    },
    {
      "channel": 2,
      "note": 56,
      "start": 65.371,
      "duration": 0.1226,
      "velocity": 112,
      "chip": "ym2612"
    },
    {
      "channel": 0,
      "note": 93,
      "start": 65.4971,
      "duration": 0.1293,
      "velocity": 111,
      "chip": "ym2612"
    },
    {
      "channel": 1,
      "note": 37,
      "start": 65.4978,
      "duration": 0.1293,
      "velocity": 103,
      "chip": "ym2612"
    },
    {
      "channel": 2,
      "note": 56,
      "start": 65.5006,
      "duration": 0.123,
      "velocity": 112,
      "chip": "ym2612"
    },
    {
      "channel": 0,
      "note": 89,
      "start": 65.627,
      "duration": 0.1294,
      "velocity": 111,
      "chip": "ym2612"
    },
    {
      "channel": 1,
      "note": 37,
      "start": 65.6278,
      "duration": 0.1294,
      "velocity": 103,
      "chip": "ym2612"
    },
    {
      "channel": 5,
      "note": 92,
      "start": 65.6293,
      "duration": 0.1303,
      "velocity": 111,
      "chip": "ym2612"
    },
    {
      "channel": 2,
      "note": 103,
      "start": 65.631,
      "duration": 0.1226,
      "velocity": 103,
      "chip": "ym2612"
    },
    {
      "channel": 0,
      "note": 93,
      "start": 65.757,
      "duration": 0.1294,
      "velocity": 111,
      "chip": "ym2612"
    },
    {
      "channel": 1,
      "note": 38,
      "start": 65.7578,
      "duration": 0.1294,
      "velocity": 103,
      "chip": "ym2612"
    },
    {
      "channel": 3,
      "note": 86,
      "start": 65.7587,
      "duration": 0.3894,
      "velocity": 83,
      "chip": "ym2612"
    },
    {
      "channel": 4,
      "note": 90,
      "start": 65.7595,
      "duration": 0.3894,
      "velocity": 83,
      "chip": "ym2612"
    },
    {
      "channel": 5,
      "note": 93,
      "start": 65.7603,
      "duration": 0.1282,
      "velocity": 111,
      "chip": "ym2612"
    },
    {
      "channel": 2,
      "note": 103,
      "start": 65.762,
      "duration": 0.1216,
      "velocity": 103,
      "chip": "ym2612"
    },
    {
      "channel": 0,
      "note": 95,
      "start": 65.887,
      "duration": 0.1295,
      "velocity": 111,
      "chip": "ym2612"
    },
    {
      "channel": 1,
      "note": 38,
      "start": 65.8878,
      "duration": 0.1294,
      "velocity": 103,
      "chip": "ym2612"
    },
    {
      "channel": 5,
      "note": 89,
      "start": 65.8893,
      "duration": 0.1295,
      "velocity": 111,
      "chip": "ym2612"
    },
    {
      "channel": 2,
      "note": 103,
      "start": 65.891,
      "duration": 0.1226,
      "velocity": 103,
      "chip": "ym2612"
    },
    {
      "channel": 0,
      "note": 92,
      "start": 66.0171,
      "duration": 0.1293,
      "velocity": 111,
      "chip": "ym2612"
    },
    {
      "channel": 1,
      "note": 38,
      "start": 66.0179,
      "duration": 0.1294,
      "velocity": 103,
      "chip": "ym2612"
    },
    {
      "channel": 5,
      "note": 93,
      "start": 66.0194,
      "duration": 0.1303,
      "velocity": 111,
      "chip": "ym2612"
    },
    {
      "channel": 2,
      "note": 56,
      "start": 66.0211,
      "duration": 0.1225,
      "velocity": 112,
      "chip": "ym2612"
    },
    {
      "channel": 0,
      "note": 97,
      "start": 66.1471,
      "duration": 0.2593,
      "velocity": 111,
      "chip": "ym2612"
    },
    {
      "channel": 1,
      "note": 40,
      "start": 66.1479,
      "duration": 0.1288,
      "velocity": 103,
      "chip": "ym2612"
    },
    {
      "channel": 3,
      "note": 88,
      "start": 66.1487,
      "duration": 0.3971,
      "velocity": 83,
      "chip": "ym2612"
    },
    {
      "channel": 4,
      "note": 92,
      "start": 66.1496,
      "duration": 0.3997,
      "velocity": 83,
      "chip": "ym2612"
    },
    {
      "channel": 5,
      "note": 95,
      "start": 66.1504,
      "duration": 0.1277,
      "velocity": 111,
      "chip": "ym2612"
    },
    {
      "channel": 2,
      "note": 103,
      "start": 66.1521,
      "duration": 0.1215,
      "velocity": 103,
      "chip": "ym2612"
    },
    {
      "channel": 1,
      "note": 40,
      "start": 66.2773,
      "duration": 0.1295,
      "velocity": 103,
      "chip": "ym2612"
    },
    {
      "channel": 5,
      "note": 92,
      "start": 66.2788,
      "duration": 0.1296,
      "velocity": 111,
      "chip": "ym2612"
    },
    {
      "channel": 2,
      "note": 56,
      "start": 66.2805,
      "duration": 0.1232,
      "velocity": 112,
      "chip": "ym2612"
    },
    {
      "channel": 1,
      "note": 40,
      "start": 66.4075,
      "duration": 0.1349,
      "velocity": 103,
      "chip": "ym2612"
    },
    {
      "channel": 5,
      "note": 97,
      "start": 66.409,
      "duration": 0.2597,
      "velocity": 111,
      "chip": "ym2612"
    },
    {
      "channel": 2,
      "note": 26,
      "start": 66.4107,
      "duration": 0.092,
      "velocity": 120,
      "chip": "ym2612"
    },
    {
      "channel": 0,
      "note": 45,
      "start": 66.5398,
      "duration": 0.1267,
      "velocity": 111,
      "chip": "ym2612"
    },
    {
      "channel": 1,
      "note": 42,
      "start": 66.5431,
      "duration": 0.1242,
      "velocity": 103,
      "chip": "ym2612"
    },
    {
      "channel": 3,
      "note": 90,
      "start": 66.5465,
      "duration": 0.4893,
      "velocity": 83,
      "chip": "ym2612"
    },
    {
      "channel": 4,
      "note": 97,
      "start": 66.55,
      "duration": 0.4858,
      "velocity": 83,
      "chip": "ym2612"
    },
    {
      "channel": 2,
      "note": 26,
      "start": 66.552,
      "duration": 0.0808,
      "velocity": 120,
      "chip": "ym2612"
    },
    {
      "channel": 0,
      "note": 93,
      "start": 66.6672,
      "duration": 0.1293,
      "velocity": 111,
      "chip": "ym2612"
    },
    {
      "channel": 1,
      "note": 42,
      "start": 66.6679,
      "duration": 0.1293,
      "velocity": 103,
      "chip": "ym2612"
    },
    {
      "channel": 2,
      "note": 103,
      "start": 66.6707,
      "duration": 0.1229,
      "velocity": 103,
      "chip": "ym2612"
    },
    {
      "channel": 0,
      "note": 97,
      "start": 66.7971,
      "duration": 0.1293,
      "velocity": 111,
      "chip": "ym2612"
    },
    {
      "channel": 1,
      "note": 42,
      "start": 66.7979,
      "duration": 0.1294,
      "velocity": 103,
      "chip": "ym2612"
    },
    {
      "channel": 5,
      "note": 45,
      "start": 66.802,
      "duration": 0.1267,
      "velocity": 111,
      "chip": "ym2612"
    },
    {
      "channel": 2,
      "note": 103,
      "start": 66.8038,
      "duration": 0.1199,
      "velocity": 103,
      "chip": "ym2612"
    },
    {
      "channel": 0,
      "note": 93,
      "start": 66.9272,
      "duration": 0.1086,
      "velocity": 111,
      "chip": "ym2612"
    },
    {
      "channel": 1,
      "note": 42,
      "start": 66.9279,
      "duration": 0.1078,
      "velocity": 103,
      "chip": "ym2612"
    },
    {
      "channel": 5,
      "note": 93,
      "start": 66.9294,
      "duration": 0.1064,
      "velocity": 111,
      "chip": "ym2612"
    },
    {
      "channel": 2,
      "note": 26,
      "start": 66.9311,
      "duration": 0.0917,
      "velocity": 120,
      "chip": "ym2612"
    }
  ]
}