{
  "track_name": "14 - Campaign #6 Intro",
  "duration_sec": 55.906,
  "sample_rate": 44100,
  "note_count": 1989,
  "unique_pitches": 28,
  "pitch_range": 53,
  "avg_note_duration": 0.1536,
  "reconstruction_stats": {
    "notes_reconstructed": 1989,
    "keyon_events": 1989,
    "keyoff_events": 1983,
    "orphan_keyons": 6,
    "unique_pitches": 28,
    "pitch_range": 53,
    "avg_duration_sec": 0.1536
  },
  "metadata": {
    "source": "J\\Jungle Strike\\14 - Campaign #6 Intro.vgz"
  },
  "notes": [
    {
      "channel": 5,
      "note": 66,
      "start": 0.0522,
      "duration": 0.1788,
      "velocity": 127,
      "chip": "ym2612"
    },
    {
      "channel": 0,
      "note": 66,
      "start": 0.0671,
      "duration": 0.0629,
      "velocity": 93,
      "chip": "ym2612"
    },
    {
      "channel": 4,
      "note": 45,
      "start": 0.0701,
      "duration": 0.1632,
      "velocity": 113,
      "chip": "ym2612"
    },
    {
      "channel": 1,
      "note": 69,
      "start": 0.0811,
      "duration": 0.2551,
      "velocity": 106,
      "chip": "ym2612"
    },
    {
      "channel": 0,
      "note": 66,
      "start": 0.1306,
      "duration": 0.1064,
      "velocity": 93,
      "chip": "ym2612"
    },
    {
      "channel": 5,
      "note": 66,
      "start": 0.2316,
      "duration": 0.2035,
      "velocity": 127,
      "chip": "ym2612"
    },
    {
      "channel": 4,
      "note": 45,
      "start": 0.2339,
      "duration": 0.0991,
      "velocity": 113,
      "chip": "ym2612"
    },
    {
      "channel": 0,
      "note": 66,
      "start": 0.2376,
      "duration": 0.1047,
      "velocity": 93,
      "chip": "ym2612"
    },
    {
      "channel": 4,
      "note": 45,
      "start": 0.3337,
      "duration": 0.1177,
      "velocity": 113,
      "chip": "ym2612"
    },
    {
      "channel": 1,
      "note": 72,
      "start": 0.3368,
      "duration": 0.3033,
      "velocity": 106,
      "chip": "ym2612"
    },
    {
      "channel": 0,
      "note": 66,
      "start": 0.3429,
      "duration": 0.0983,
      "velocity": 93,
      "chip": "ym2612"
    },
    {
      "channel": 0,
      "note": 66,
      "start": 0.4418,
      "duration": 0.0977,
      "velocity": 93,
      "chip": "ym2612"
    },
    {
      "channel": 5,
      "note": 66,
      "start": 0.4498,
      "duration": 0.1937,
      "velocity": 127,
      "chip": "ym2612"
    },
    {
      "channel": 4,
      "note": 45,
      "start": 0.452,
      "duration": 0.2022,
      "velocity": 113,
      "chip": "ym2612"
    },
    {
      "channel": 0,
      "note": 66,
      "start": 0.5402,
      "duration": 0.1094,
      "velocity": 93,
      "chip": "ym2612"
    },
    {
      "channel": 1,
      "note": 74,
      "start": 0.6407,
      "duration": 0.3111,
      "velocity": 106,
      "chip": "ym2612"
    },
    {
      "channel": 0,
      "note": 66,
      "start": 0.6502,
      "duration": 0.0989,
      "velocity": 93,
      "chip": "ym2612"
    },
    {
      "channel": 4,
      "note": 45,
      "start": 0.6549,
      "duration": 0.0868,
      "velocity": 113,
      "chip": "ym2612"
    },
    {
      "channel": 5,
      "note": 66,
      "start": 0.6593,
      "duration": 0.186,
      "velocity": 127,
      "chip": "ym2612"
    },
    {
      "channel": 4,
      "note": 45,
      "start": 0.7423,
      "duration": 0.1158,
      "velocity": 113,
      "chip": "ym2612"
    },
    {
      "channel": 0,
      "note": 66,
      "start": 0.7497,
      "duration": 0.1015,
      "velocity": 93,
      "chip": "ym2612"
    },
    {
      "channel": 5,
      "note": 66,
      "start": 0.846,
      "duration": 0.2035,
      "velocity": 127,
      "chip": "ym2612"
    },
    {
      "channel": 0,
      "note": 66,
      "start": 0.8518,
      "duration": 0.1023,
      "velocity": 93,
      "chip": "ym2612"
    },
    {
      "channel": 4,
      "note": 45,
      "start": 0.8587,
      "duration": 0.2001,
      "velocity": 113,
      "chip": "ym2612"
    },
    {
      "channel": 1,
      "note": 69,
      "start": 0.9525,
      "duration": 0.3047,
      "velocity": 106,
      "chip": "ym2612"
    },
    {
      "channel": 0,
      "note": 66,
      "start": 0.9548,
      "duration": 0.1078,
      "velocity": 93,
      "chip": "ym2612"
    },
    {
      "channel": 4,
      "note": 45,
      "start": 1.0595,
      "duration": 0.0925,
      "velocity": 113,
      "chip": "ym2612"
    },
    {
      "channel": 0,
      "note": 66,
      "start": 1.0632,
      "duration": 0.0978,
      "velocity": 93,
      "chip": "ym2612"
    },
    {
      "channel": 5,
      "note": 66,
      "start": 1.0658,
      "duration": 0.0976,
      "velocity": 127,
      "chip": "ym2612"
    },
    {
      "channel": 4,
      "note": 45,
      "start": 1.1526,
      "duration": 0.1232,
      "velocity": 113,
      "chip": "ym2612"
    },
    {
      "channel": 0,
      "note": 66,
      "start": 1.1615,
      "duration": 0.1041,
      "velocity": 93,
      "chip": "ym2612"
    },
    {
      "channel": 5,
      "note": 66,
      "start": 1.1641,
      "duration": 0.1095,
      "velocity": 127,
      "chip": "ym2612"
    },
    {
      "channel": 1,
      "note": 72,
      "start": 1.2578,
      "duration": 0.1027,
      "velocity": 106,
      "chip": "ym2612"
    },
    {
      "channel": 0,
      "note": 66,
      "start": 1.2662,
      "duration": 0.1018,
      "velocity": 93,
      "chip": "ym2612"
    },
    {
      "channel": 5,
      "note": 66,
      "start": 1.2742,
      "duration": 0.0964,
      "velocity": 127,
      "chip": "ym2612"
    },
    {
      "channel": 4,
      "note": 45,
      "start": 1.2765,
      "duration": 0.1927,
      "velocity": 113,
      "chip": "ym2612"
    },
    {
      "channel": 1,
      "note": 74,
      "start": 1.3611,
      "duration": 0.1025,
      "velocity": 106,
      "chip": "ym2612"
    },
    {
      "channel": 0,
      "note": 66,
      "start": 1.3687,
      "duration": 0.1043,
      "velocity": 93,
      "chip": "ym2612"
    },
    {
      "channel": 5,
      "note": 66,
      "start": 1.3711,
      "duration": 0.1043,
      "velocity": 127,
      "chip": "ym2612"
    },
    {
      "channel": 1,
      "note": 67,
      "start": 1.4643,
      "duration": 0.213,
      "velocity": 106,
      "chip": "ym2612"
    },
    {
      "channel": 4,
      "note": 45,
      "start": 1.4699,
      "duration": 0.0948,
      "velocity": 113,
      "chip": "ym2612"
    },
    {
      "channel": 0,
      "note": 66,
      "start": 1.4736,
      "duration": 0.0992,
      "velocity": 93,
      "chip": "ym2612"
    },
    {
      "channel": 5,
      "note": 66,
      "start": 1.4761,
      "duration": 0.1964,
      "velocity": 127,
      "chip": "ym2612"
    },
    {
      "channel": 4,
      "note": 45,
      "start": 1.5653,
      "duration": 0.1189,
      "velocity": 113,
      "chip": "ym2612"
    },
    {
      "channel": 0,
      "note": 66,
      "start": 1.5734,
      "duration": 0.1061,
      "velocity": 93,
      "chip": "ym2612"
    },
    {
      "channel": 1,
      "note": 69,
      "start": 1.6779,
      "duration": 0.2995,
      "velocity": 106,
      "chip": "ym2612"
    },
    {
      "channel": 0,
      "note": 66,
      "start": 1.6801,
      "duration": 0.0909,
      "velocity": 93,
      "chip": "ym2612"
    },
    {
      "channel": 4,
      "note": 45,
      "start": 1.6848,
      "duration": 0.1958,
      "velocity": 113,
      "chip": "ym2612"
    },
    {
      "channel": 5,
      "note": 66,
      "start": 1.6893,
      "duration": 0.1837,
      "velocity": 127,
      "chip": "ym2612"
    },
    {
      "channel": 0,
      "note": 66,
      "start": 1.7717,
      "duration": 0.1127,
      "velocity": 93,
      "chip": "ym2612"
    },
    {
      "channel": 5,
      "note": 66,
      "start": 1.8736,
      "duration": 0.2027,
      "velocity": 127,
      "chip": "ym2612"
    },
    {
      "channel": 4,
      "note": 45,
      "start": 1.8813,
      "duration": 0.093,
      "velocity": 113,
      "chip": "ym2612"
    },
    {
      "channel": 0,
      "note": 66,
      "start": 1.8849,
      "duration": 0.0985,
      "velocity": 93,
      "chip": "ym2612"
    },
    {
      "channel": 4,
      "note": 45,
      "start": 1.9748,
      "duration": 0.1178,
      "velocity": 113,
      "chip": "ym2612"
    },
    {
      "channel": 1,
      "note": 72,
      "start": 1.9781,
      "duration": 0.3098,
      "velocity": 106,
      "chip": "ym2612"
    },
    {
      "channel": 0,
      "note": 66,
      "start": 1.9841,
      "duration": 0.0983,
      "velocity": 93,
      "chip": "ym2612"
    },
    {
      "channel": 0,
      "note": 66,
      "start": 2.083,
      "duration": 0.1039,
      "velocity": 93,
      "chip": "ym2612"
    },
    {
      "channel": 5,
      "note": 66,
      "start": 2.091,
      "duration": 0.1912,
      "velocity": 127,
      "chip": "ym2612"
    },
    {
      "channel": 4,
      "note": 45,
      "start": 2.0932,
      "duration": 0.2005,
      "velocity": 113,
      "chip": "ym2612"
    },
    {
      "channel": 0,
      "note": 66,
      "start": 2.1876,
      "duration": 0.1099,
      "velocity": 93,
      "chip": "ym2612"
    },
    {
      "channel": 1,
      "note": 74,
      "start": 2.2885,
      "duration": 0.304,
      "velocity": 106,
      "chip": "ym2612"
    },
    {
      "channel": 4,
      "note": 45,
      "start": 2.2943,
      "duration": 0.0923,
      "velocity": 113,
      "chip": "ym2612"
    },
    {
      "channel": 0,
      "note": 66,
      "start": 2.298,
      "duration": 0.0923,
      "velocity": 93,
      "chip": "ym2612"
    },
    {
      "channel": 5,
      "note": 66,
      "start": 2.3005,
      "duration": 0.194,
      "velocity": 127,
      "chip": "ym2612"
    },
    {
      "channel": 4,
      "note": 45,
      "start": 2.3872,
      "duration": 0.1152,
      "velocity": 113,
      "chip": "ym2612"
    },
    {
      "channel": 0,
      "note": 66,
      "start": 2.3909,
      "duration": 0.1085,
      "velocity": 93,
      "chip": "ym2612"
    },
    {
      "channel": 5,
      "note": 66,
      "start": 2.4952,
      "duration": 0.2011,
      "velocity": 127,
      "chip": "ym2612"
    },
    {
      "channel": 0,
      "note": 66,
      "start": 2.5001,
      "duration": 0.0985,
      "velocity": 93,
      "chip": "ym2612"
    },
    {
      "channel": 4,
      "note": 45,
      "start": 2.5031,
      "duration": 0.1957,
      "velocity": 113,
      "chip": "ym2612"
    },
    {
      "channel": 1,
      "note": 69,
      "start": 2.5932,
      "duration": 0.3054,
      "velocity": 106,
      "chip": "ym2612"
    },
    {
      "channel": 0,
      "note": 66,
      "start": 2.5992,
      "duration": 0.1032,
      "velocity": 93,
      "chip": "ym2612"
    },
    {
      "channel": 4,
      "note": 45,
      "start": 2.6994,
      "duration": 0.1008,
      "velocity": 113,
      "chip": "ym2612"
    },
    {
      "channel": 0,
      "note": 66,
      "start": 2.7031,
      "duration": 0.1008,
      "velocity": 93,
      "chip": "ym2612"
    },
    {
      "channel": 5,
      "note": 66,
      "start": 2.7102,
      "duration": 0.1008,
      "velocity": 127,
      "chip": "ym2612"
    },
    {
      "channel": 4,
      "note": 45,
      "start": 2.8009,
      "duration": 0.1163,
      "velocity": 113,
      "chip": "ym2612"
    },
    {
      "channel": 0,
      "note": 66,
      "start": 2.8045,
      "duration": 0.1024,
      "velocity": 93,
      "chip": "ym2612"
    },
    {
      "channel": 5,
      "note": 66,
      "start": 2.8117,
      "duration": 0.1033,
      "velocity": 127,
      "chip": "ym2612"
    },
    {
      "channel": 1,
      "note": 72,
      "start": 2.8991,
      "duration": 0.102,
      "velocity": 106,
      "chip": "ym2612"
    },
    {
      "channel": 0,
      "note": 66,
      "start": 2.9076,
      "duration": 0.1002,
      "velocity": 93,
      "chip": "ym2612"
    },
    {
      "channel": 5,
      "note": 66,
      "start": 2.9156,
      "duration": 0.0995,
      "velocity": 127,
      "chip": "ym2612"
    },
    {
      "channel": 4,
      "note": 45,
      "start": 2.9178,
      "duration": 0.2007,
      "velocity": 113,
      "chip": "ym2612"
    },
    {
      "channel": 1,
      "note": 74,
      "start": 3.0017,
      "duration": 0.1039,
      "velocity": 106,
      "chip": "ym2612"
    },
    {
      "channel": 0,
      "note": 66,
      "start": 3.0085,
      "duration": 0.1056,
      "velocity": 93,
      "chip": "ym2612"
    },
    {
      "channel": 5,
      "note": 66,
      "start": 3.0157,
      "duration": 0.1074,
      "velocity": 127,
      "chip": "ym2612"
    },
    {
      "channel": 1,
      "note": 67,
      "start": 3.1063,
      "duration": 0.2187,
      "velocity": 106,
      "chip": "ym2612"
    },
    {
      "channel": 0,
      "note": 66,
      "start": 3.1147,
      "duration": 0.0994,
      "velocity": 93,
      "chip": "ym2612"
    },
    {
      "channel": 4,
      "note": 45,
      "start": 3.1192,
      "duration": 0.0912,
      "velocity": 113,
      "chip": "ym2612"
    },
    {
      "channel": 5,
      "note": 66,
      "start": 3.1237,
      "duration": 0.1966,
      "velocity": 127,
      "chip": "ym2612"
    },
    {
      "channel": 4,
      "note": 45,
      "start": 3.211,
      "duration": 0.1191,
      "velocity": 113,
      "chip": "ym2612"
    },
    {
      "channel": 0,
      "note": 66,
      "start": 3.2148,
      "duration": 0.1032,
      "velocity": 93,
      "chip": "ym2612"
    },
    {
      "channel": 0,
      "note": 66,
      "start": 3.3187,
      "duration": 0.1014,
      "velocity": 93,
      "chip": "ym2612"
    },
    {
      "channel": 1,
      "note": 72,
      "start": 3.3256,
      "duration": 0.2945,
      "velocity": 106,
      "chip": "ym2612"
    },
    {
      "channel": 4,
      "note": 48,
      "start": 3.3307,
      "duration": 0.1945,
      "velocity": 113,
      "chip": "ym2612"
    },
    {
      "channel": 5,
      "note": 66,
      "start": 3.3352,
      "duration": 0.1811,
      "velocity": 127,
      "chip": "ym2612"
    },
    {
      "channel": 0,
      "note": 66,
      "start": 3.4207,
      "duration": 0.1015,
      "velocity": 93,
      "chip": "ym2612"
    },
    {
      "channel": 5,
      "note": 66,
      "start": 3.5169,
      "duration": 0.21,
      "velocity": 127,
      "chip": "ym2612"
    },
    {
      "channel": 0,
      "note": 66,
      "start": 3.5228,
      "duration": 0.1034,
      "velocity": 93,
      "chip": "ym2612"
    },
    {
      "channel": 4,
      "note": 48,
      "start": 3.5259,
      "duration": 0.0911,
      "velocity": 113,
      "chip": "ym2612"
    },
    {
      "channel": 4,
      "note": 48,
      "start": 3.6176,
      "duration": 0.119,
      "velocity": 113,
      "chip": "ym2612"
    },
    {
      "channel": 1,
      "note": 75,
      "start": 3.6208,
      "duration": 0.3105,
      "velocity": 106,
      "chip": "ym2612"
    },
    {
      "channel": 0,
      "note": 66,
      "start": 3.6268,
      "duration": 0.1053,
      "velocity": 93,
      "chip": "ym2612"
    },
    {
      "channel": 0,
      "note": 66,
      "start": 3.7327,
      "duration": 0.0969,
      "velocity": 93,
      "chip": "ym2612"
    },
    {
      "channel": 4,
      "note": 48,
      "start": 3.7372,
      "duration": 0.201,
      "velocity": 113,
      "chip": "ym2612"
    },
    {
      "channel": 5,
      "note": 66,
      "start": 3.7416,
      "duration": 0.184,
      "velocity": 127,
      "chip": "ym2612"
    },
    {
      "channel": 0,
      "note": 66,
      "start": 3.8303,
      "duration": 0.1032,
      "velocity": 93,
      "chip": "ym2612"
    },
    {
      "channel": 1,
      "note": 77,
      "start": 3.9319,
      "duration": 0.304,
      "velocity": 106,
      "chip": "ym2612"
    },
    {
      "channel": 0,
      "note": 66,
      "start": 3.9341,
      "duration": 0.102,
      "velocity": 93,
      "chip": "ym2612"
    },
    {
      "channel": 4,
      "note": 48,
      "start": 3.9388,
      "duration": 0.0937,
      "velocity": 113,
      "chip": "ym2612"
    },
    {
      "channel": 5,
      "note": 66,
      "start": 3.9433,
      "duration": 0.1885,
      "velocity": 127,
      "chip": "ym2612"
    },
    {
      "channel": 4,
      "note": 48,
      "start": 4.0331,
      "duration": 0.112,
      "velocity": 113,
      "chip": "ym2612"
    },
    {
      "channel": 0,
      "note": 66,
      "start": 4.0368,
      "duration": 0.1053,
      "velocity": 93,
      "chip": "ym2612"
    },
    {
      "channel": 5,
      "note": 66,
      "start": 4.1324,
      "duration": 0.208,
      "velocity": 127,
      "chip": "ym2612"
    },
    {
      "channel": 0,
      "note": 66,
      "start": 4.1428,
      "duration": 0.0954,
      "velocity": 93,
      "chip": "ym2612"
    },
    {
      "channel": 4,
      "note": 48,
      "start": 4.1458,
      "duration": 0.2051,
      "velocity": 113,
      "chip": "ym2612"
    },
    {
      "channel": 1,
      "note": 72,
      "start": 4.2365,
      "duration": 0.3047,
      "velocity": 106,
      "chip": "ym2612"
    },
    {
      "channel": 0,
      "note": 66,
      "start": 4.2388,
      "duration": 0.1076,
      "velocity": 93,
      "chip": "ym2612"
    },
    {
      "channel": 0,
      "note": 66,
      "start": 4.347,
      "duration": 0.0996,
      "velocity": 93,
      "chip": "ym2612"
    },
    {
      "channel": 4,
      "note": 48,
      "start": 4.3515,
      "duration": 0.0914,
      "velocity": 113,
      "chip": "ym2612"
    },
    {
      "channel": 5,
      "note": 66,
      "start": 4.356,
      "duration": 0.0977,
      "velocity": 127,
      "chip": "ym2612"
    },
    {
      "channel": 4,
      "note": 48,
      "start": 4.4435,
      "duration": 0.1164,
      "velocity": 113,
      "chip": "ym2612"
    },
    {
      "channel": 0,
      "note": 66,
      "start": 4.4472,
      "duration": 0.1024,
      "velocity": 93,
      "chip": "ym2612"
    },
    {
      "channel": 5,
      "note": 66,
      "start": 4.4544,
      "duration": 0.1032,
      "velocity": 127,
      "chip": "ym2612"
    },
    {
      "channel": 1,
      "note": 75,
      "start": 4.5418,
      "duration": 0.1051,
      "velocity": 106,
      "chip": "ym2612"
    },
    {
      "channel": 0,
      "note": 66,
      "start": 4.5503,
      "duration": 0.1034,
      "velocity": 93,
      "chip": "ym2612"
    },
    {
      "channel": 5,
      "note": 66,
      "start": 4.5582,
      "duration": 0.1025,
      "velocity": 127,
      "chip": "ym2612"
    },
    {
      "channel": 4,
      "note": 48,
      "start": 4.5605,
      "duration": 0.2007,
      "velocity": 113,
      "chip": "ym2612"
    },
    {
      "channel": 1,
      "note": 77,
      "start": 4.6476,
      "duration": 0.1007,
      "velocity": 106,
      "chip": "ym2612"
    },
    {
      "channel": 0,
      "note": 66,
      "start": 4.6543,
      "duration": 0.1024,
      "velocity": 93,
      "chip": "ym2612"
    },
    {
      "channel": 5,
      "note": 66,
      "start": 4.6614,
      "duration": 0.1043,
      "velocity": 127,
      "chip": "ym2612"
    },
    {
      "channel": 1,
      "note": 70,
      "start": 4.7489,
      "duration": 0.213,
      "velocity": 106,
      "chip": "ym2612"
    },
    {
      "channel": 0,
      "note": 66,
      "start": 4.7573,
      "duration": 0.0994,
      "velocity": 93,
      "chip": "ym2612"
    },
    {
      "channel": 4,
      "note": 48,
      "start": 4.7619,
      "duration": 0.0868,
      "velocity": 113,
      "chip": "ym2612"
    },
    {
      "channel": 5,
      "note": 66,
      "start": 4.7663,
      "duration": 0.2001,
      "velocity": 127,
      "chip": "ym2612"
    },
    {
      "channel": 4,
      "note": 48,
      "start": 4.8493,
      "duration": 0.1251,
      "velocity": 113,
      "chip": "ym2612"
    },
    {
      "channel": 0,
      "note": 66,
      "start": 4.8574,
      "duration": 0.1067,
      "velocity": 93,
      "chip": "ym2612"
    },
    {
      "channel": 1,
      "note": 72,
      "start": 4.9625,
      "duration": 0.3058,
      "velocity": 106,
      "chip": "ym2612"
    },
    {
      "channel": 0,
      "note": 66,
      "start": 4.9647,
      "duration": 0.0966,
      "velocity": 93,
      "chip": "ym2612"
    },
    {
      "channel": 4,
      "note": 48,
      "start": 4.9751,
      "duration": 0.1895,
      "velocity": 113,
      "chip": "ym2612"
    },
    {
      "channel": 5,
      "note": 66,
      "start": 4.9795,
      "duration": 0.1773,
      "velocity": 127,
      "chip": "ym2612"
    },
    {
      "channel": 0,
      "note": 66,
      "start": 5.0619,
      "duration": 0.1063,
      "velocity": 93,
      "chip": "ym2612"
    },
    {
      "channel": 5,
      "note": 66,
      "start": 5.1575,
      "duration": 0.209,
      "velocity": 127,
      "chip": "ym2612"
    },
    {
      "channel": 4,
      "note": 48,
      "start": 5.1652,
      "duration": 0.0998,
      "velocity": 113,
      "chip": "ym2612"
    },
    {
      "channel": 0,
      "note": 66,
      "start": 5.1689,
      "duration": 0.1016,
      "velocity": 93,
      "chip": "ym2612"
    },
    {
      "channel": 4,
      "note": 48,
      "start": 5.2657,
      "duration": 0.1171,
      "velocity": 113,
      "chip": "ym2612"
    },
    {
      "channel": 1,
      "note": 75,
      "start": 5.2689,
      "duration": 0.3026,
      "velocity": 106,
      "chip": "ym2612"
    },
    {
      "channel": 0,
      "note": 66,
      "start": 5.2711,
      "duration": 0.1014,
      "velocity": 93,
      "chip": "ym2612"
    },
    {
      "channel": 0,
      "note": 66,
      "start": 5.3732,
      "duration": 0.0977,
      "velocity": 93,
      "chip": "ym2612"
    },
    {
      "channel": 5,
      "note": 66,
      "start": 5.3811,
      "duration": 0.1937,
      "velocity": 127,
      "chip": "ym2612"
    },
    {
      "channel": 4,
      "note": 48,
      "start": 5.3834,
      "duration": 0.2022,
      "velocity": 113,
      "chip": "ym2612"
    },
    {
      "channel": 0,
      "note": 66,
      "start": 5.4715,
      "duration": 0.1094,
      "velocity": 93,
      "chip": "ym2612"
    },
    {
      "channel": 1,
      "note": 77,
      "start": 5.5721,
      "duration": 0.3076,
      "velocity": 106,
      "chip": "ym2612"
    },
    {
      "channel": 0,
      "note": 66,
      "start": 5.5816,
      "duration": 0.0989,
      "velocity": 93,
      "chip": "ym2612"
    },
    {
      "channel": 4,
      "note": 48,
      "start": 5.5863,
      "duration": 0.0868,
      "velocity": 113,
      "chip": "ym2612"
    },
    {
      "channel": 5,
      "note": 66,
      "start": 5.5907,
      "duration": 0.1878,
      "velocity": 127,
      "chip": "ym2612"
    },
    {
      "channel": 4,
      "note": 48,
      "start": 5.6737,
      "duration": 0.1127,
      "velocity": 113,
      "chip": "ym2612"
    },
    {
      "channel": 0,
      "note": 66,
      "start": 5.6811,
      "duration": 0.1023,
      "velocity": 93,
      "chip": "ym2612"
    },
    {
      "channel": 5,
      "note": 66,
      "start": 5.7792,
      "duration": 0.2025,
      "velocity": 127,
      "chip": "ym2612"
    },
    {
      "channel": 0,
      "note": 66,
      "start": 5.7841,
      "duration": 0.1016,
      "velocity": 93,
      "chip": "ym2612"
    },
    {
      "channel": 4,
      "note": 48,
      "start": 5.7871,
      "duration": 0.2051,
      "velocity": 113,
      "chip": "ym2612"
    },
    {
      "channel": 1,
      "note": 72,
      "start": 5.8803,
      "duration": 0.3101,
      "velocity": 106,
      "chip": "ym2612"
    },
    {
      "channel": 0,
      "note": 66,
      "start": 5.8863,
      "duration": 0.1014,
      "velocity": 93,
      "chip": "ym2612"
    },
    {
      "channel": 0,
      "note": 66,
      "start": 5.9883,
      "duration": 0.0995,
      "velocity": 93,
      "chip": "ym2612"
    },
    {
      "channel": 4,
      "note": 48,
      "start": 5.9928,
      "duration": 0.0914,
      "velocity": 113,
      "chip": "ym2612"
    },
    {
      "channel": 5,
      "note": 66,
      "start": 5.9973,
      "duration": 0.0977,
      "velocity": 127,
      "chip": "ym2612"
    },
    {
      "channel": 4,
      "note": 48,
      "start": 6.0848,
      "duration": 0.1177,
      "velocity": 113,
      "chip": "ym2612"
    },
    {
      "channel": 0,
      "note": 66,
      "start": 6.0885,
      "duration": 0.1095,
      "velocity": 93,
      "chip": "ym2612"
    },
    {
      "channel": 5,
      "note": 66,
      "start": 6.0956,
      "duration": 0.1113,
      "velocity": 127,
      "chip": "ym2612"
    },
    {
      "channel": 1,
      "note": 75,
      "start": 6.1911,
      "duration": 0.1016,
      "velocity": 106,
      "chip": "ym2612"
    },
    {
      "channel": 0,
      "note": 66,
      "start": 6.1986,
      "duration": 0.0963,
      "velocity": 93,
      "chip": "ym2612"
    },
    {
      "channel": 4,
      "note": 48,
      "start": 6.2032,
      "duration": 0.1994,
      "velocity": 113,
      "chip": "ym2612"
    },
    {
      "channel": 5,
      "note": 66,
      "start": 6.2076,
      "duration": 0.0945,
      "velocity": 127,
      "chip": "ym2612"
    },
    {
      "channel": 1,
      "note": 77,
      "start": 6.2933,
      "duration": 0.0963,
      "velocity": 106,
      "chip": "ym2612"
    },
    {
      "channel": 0,
      "note": 66,
      "start": 6.2956,
      "duration": 0.1024,
      "velocity": 93,
      "chip": "ym2612"
    },
    {
      "channel": 5,
      "note": 66,
      "start": 6.3027,
      "duration": 0.1043,
      "velocity": 127,
      "chip": "ym2612"
    },
    {
      "channel": 1,
      "note": 70,
      "start": 6.3902,
      "duration": 0.2267,
      "velocity": 106,
      "chip": "ym2612"
    },
    {
      "channel": 0,
      "note": 66,
      "start": 6.3986,
      "duration": 0.1063,
      "velocity": 93,
      "chip": "ym2612"
    },
    {
      "channel": 4,
      "note": 48,
      "start": 6.4032,
      "duration": 0.0937,
      "velocity": 113,
      "chip": "ym2612"
    },
    {
      "channel": 5,
      "note": 66,
      "start": 6.4076,
      "duration": 0.1982,
      "velocity": 127,
      "chip": "ym2612"
    },
    {
      "channel": 4,
      "note": 48,
      "start": 6.4974,
      "duration": 0.1247,
      "velocity": 113,
      "chip": "ym2612"
    },
    {
      "channel": 0,
      "note": 66,
      "start": 6.5056,
      "duration": 0.098,
      "velocity": 93,
      "chip": "ym2612"
    },
    {
      "channel": 0,
      "note": 66,
      "start": 6.6041,
      "duration": 0.0998,
      "velocity": 93,
      "chip": "ym2612"
    },
    {
      "channel": 1,
      "note": 74,
      "start": 6.6175,
      "duration": 0.288,
      "velocity": 106,
      "chip": "ym2612"
    },
    {
      "channel": 5,
      "note": 66,
      "start": 6.6205,
      "duration": 0.1859,
      "velocity": 127,
      "chip": "ym2612"
    },
    {
      "channel": 4,
      "note": 50,
      "start": 6.6227,
      "duration": 0.1925,
      "velocity": 113,
      "chip": "ym2612"
    },
    {
      "channel": 0,
      "note": 66,
      "start": 6.7046,
      "duration": 0.1076,
      "velocity": 93,
      "chip": "ym2612"
    },
    {
      "channel": 5,
      "note": 66,
      "start": 6.807,
      "duration": 0.2039,
      "velocity": 127,
      "chip": "ym2612"
    },
    {
      "channel": 0,
      "note": 66,
      "start": 6.8129,
      "duration": 0.1003,
      "velocity": 93,
      "chip": "ym2612"
    },
    {
      "channel": 4,
      "note": 50,
      "start": 6.8159,
      "duration": 0.0936,
      "velocity": 113,
      "chip": "ym2612"
    },
    {
      "channel": 1,
      "note": 79,
      "start": 6.906,
      "duration": 0.3081,
      "velocity": 106,
      "chip": "ym2612"
    },
    {
      "channel": 4,
      "note": 50,
      "start": 6.9101,
      "duration": 0.1104,
      "velocity": 113,
      "chip": "ym2612"
    },
    {
      "channel": 0,
      "note": 66,
      "start": 6.9138,
      "duration": 0.1022,
      "velocity": 93,
      "chip": "ym2612"
    },
    {
      "channel": 0,
      "note": 66,
      "start": 7.0167,
      "duration": 0.1,
      "velocity": 93,
      "chip": "ym2612"
    },
    {
      "channel": 4,
      "note": 50,
      "start": 7.0212,
      "duration": 0.2071,
      "velocity": 113,
      "chip": "ym2612"
    },
    {
      "channel": 5,
      "note": 66,
      "start": 7.0256,
      "duration": 0.1919,
      "velocity": 127,
      "chip": "ym2612"
    },
    {
      "channel": 0,
      "note": 66,
      "start": 7.1173,
      "duration": 0.1063,
      "velocity": 93,
      "chip": "ym2612"
    },
    {
      "channel": 1,
      "note": 81,
      "start": 7.2148,
      "duration": 0.3074,
      "velocity": 106,
      "chip": "ym2612"
    },
    {
      "channel": 0,
      "note": 66,
      "start": 7.2243,
      "duration": 0.0958,
      "velocity": 93,
      "chip": "ym2612"
    },
    {
      "channel": 4,
      "note": 50,
      "start": 7.229,
      "duration": 0.0874,
      "velocity": 113,
      "chip": "ym2612"
    },
    {
      "channel": 5,
      "note": 66,
      "start": 7.2334,
      "duration": 0.189,
      "velocity": 127,
      "chip": "ym2612"
    },
    {
      "channel": 4,
      "note": 50,
      "start": 7.317,
      "duration": 0.1183,
      "velocity": 113,
      "chip": "ym2612"
    },
    {
      "channel": 0,
      "note": 66,
      "start": 7.3207,
      "duration": 0.1076,
      "velocity": 93,
      "chip": "ym2612"
    },
    {
      "channel": 5,
      "note": 66,
      "start": 7.4231,
      "duration": 0.201,
      "velocity": 127,
      "chip": "ym2612"
    },
    {
      "channel": 0,
      "note": 66,
      "start": 7.429,
      "duration": 0.0992,
      "velocity": 93,
      "chip": "ym2612"
    },
    {
      "channel": 4,
      "note": 50,
      "start": 7.4359,
      "duration": 0.1989,
      "velocity": 113,
      "chip": "ym2612"
    },
    {
      "channel": 1,
      "note": 74,
      "start": 7.5229,
      "duration": 0.3108,
      "velocity": 106,
      "chip": "ym2612"
    },
    {
      "channel": 0,
      "note": 66,
      "start": 7.5288,
      "duration": 0.1014,
      "velocity": 93,
      "chip": "ym2612"
    },
    {
      "channel": 0,
      "note": 66,
      "start": 7.6309,
      "duration": 0.1057,
      "velocity": 93,
      "chip": "ym2612"
    },
    {
      "channel": 4,
      "note": 50,
      "start": 7.6354,
      "duration": 0.093,
      "velocity": 113,
      "chip": "ym2612"
    },
    {
      "channel": 5,
      "note": 66,
      "start": 7.6398,
      "duration": 0.1039,
      "velocity": 127,
      "chip": "ym2612"
    },
    {
      "channel": 4,
      "note": 50,
      "start": 7.729,
      "duration": 0.1178,
      "velocity": 113,
      "chip": "ym2612"
    },
    {
      "channel": 0,
      "note": 66,
      "start": 7.7372,
      "duration": 0.1047,
      "velocity": 93,
      "chip": "ym2612"
    },
    {
      "channel": 5,
      "note": 66,
      "start": 7.7444,
      "duration": 0.1001,
      "velocity": 127,
      "chip": "ym2612"
    },
    {
      "channel": 1,
      "note": 79,
      "start": 7.8343,
      "duration": 0.0964,
      "velocity": 106,
      "chip": "ym2612"
    },
    {
      "channel": 0,
      "note": 66,
      "start": 7.8426,
      "duration": 0.0949,
      "velocity": 93,
      "chip": "ym2612"
    },
    {
      "channel": 5,
      "note": 66,
      "start": 7.8452,
      "duration": 0.0994,
      "velocity": 127,
      "chip": "ym2612"
    },
    {
      "channel": 4,
      "note": 50,
      "start": 7.8474,
      "duration": 0.199,
      "velocity": 113,
      "chip": "ym2612"
    },
    {
      "channel": 1,
      "note": 81,
      "start": 7.9314,
      "duration": 0.1094,
      "velocity": 106,
      "chip": "ym2612"
    },
    {
      "channel": 0,
      "note": 66,
      "start": 7.9381,
      "duration": 0.112,
      "velocity": 93,
      "chip": "ym2612"
    },
    {
      "channel": 5,
      "note": 66,
      "start": 7.9453,
      "duration": 0.1074,
      "velocity": 127,
      "chip": "ym2612"
    },
    {
      "channel": 1,
      "note": 86,
      "start": 8.0414,
      "duration": 0.2044,
      "velocity": 106,
      "chip": "ym2612"
    },
    {
      "channel": 4,
      "note": 50,
      "start": 8.047,
      "duration": 0.093,
      "velocity": 113,
      "chip": "ym2612"
    },
    {
      "channel": 0,
      "note": 66,
      "start": 8.0507,
      "duration": 0.093,
      "velocity": 93,
      "chip": "ym2612"
    },
    {
      "channel": 5,
      "note": 66,
      "start": 8.0533,
      "duration": 0.197,
      "velocity": 127,
      "chip": "ym2612"
    },
    {
      "channel": 4,
      "note": 50,
      "start": 8.1407,
      "duration": 0.1233,
      "velocity": 113,
      "chip": "ym2612"
    },
    {
      "channel": 0,
      "note": 66,
      "start": 8.1444,
      "duration": 0.1036,
      "velocity": 93,
      "chip": "ym2612"
    },
    {
      "channel": 1,
      "note": 74,
      "start": 8.2464,
      "duration": 0.301,
      "velocity": 106,
      "chip": "ym2612"
    },
    {
      "channel": 0,
      "note": 66,
      "start": 8.2486,
      "duration": 0.1004,
      "velocity": 93,
      "chip": "ym2612"
    },
    {
      "channel": 5,
      "note": 66,
      "start": 8.2624,
      "duration": 0.186,
      "velocity": 127,
      "chip": "ym2612"
    },
    {
      "channel": 4,
      "note": 38,
      "start": 8.2646,
      "duration": 0.1926,
      "velocity": 113,
      "chip": "ym2612"
    },
    {
      "channel": 0,
      "note": 66,
      "start": 8.3496,
      "duration": 0.1046,
      "velocity": 93,
      "chip": "ym2612"
    },
    {
      "channel": 5,
      "note": 66,
      "start": 8.449,
      "duration": 0.2053,
      "velocity": 127,
      "chip": "ym2612"
    },
    {
      "channel": 0,
      "note": 66,
      "start": 8.4549,
      "duration": 0.1003,
      "velocity": 93,
      "chip": "ym2612"
    },
    {
      "channel": 4,
      "note": 38,
      "start": 8.4579,
      "duration": 0.0936,
      "velocity": 113,
      "chip": "ym2612"
    },
    {
      "channel": 1,
      "note": 79,
      "start": 8.548,
      "duration": 0.3081,
      "velocity": 106,
      "chip": "ym2612"
    },
    {
      "channel": 4,
      "note": 38,
      "start": 8.5521,
      "duration": 0.1184,
      "velocity": 113,
      "chip": "ym2612"
    },
    {
      "channel": 0,
      "note": 66,
      "start": 8.5558,
      "duration": 0.1045,
      "velocity": 93,
      "chip": "ym2612"
    },
    {
      "channel": 0,
      "note": 66,
      "start": 8.661,
      "duration": 0.0977,
      "velocity": 93,
      "chip": "ym2612"
    },
    {
      "channel": 5,
      "note": 66,
      "start": 8.6689,
      "duration": 0.1906,
      "velocity": 127,
      "chip": "ym2612"
    },
    {
      "channel": 4,
      "note": 38,
      "start": 8.6711,
      "duration": 0.1992,
      "velocity": 113,
      "chip": "ym2612"
    },
    {
      "channel": 0,
      "note": 66,
      "start": 8.7593,
      "duration": 0.1063,
      "velocity": 93,
      "chip": "ym2612"
    },
    {
      "channel": 1,
      "note": 81,
      "start": 8.8568,
      "duration": 0.3075,
      "velocity": 106,
      "chip": "ym2612"
    },
    {
      "channel": 0,
      "note": 66,
      "start": 8.8662,
      "duration": 0.102,
      "velocity": 93,
      "chip": "ym2612"
    },
    {
      "channel": 4,
      "note": 38,
      "start": 8.871,
      "duration": 0.0936,
      "velocity": 113,
      "chip": "ym2612"
    },
    {
      "channel": 5,
      "note": 66,
      "start": 8.8754,
      "duration": 0.1891,
      "velocity": 127,
      "chip": "ym2612"
    },
    {
      "channel": 4,
      "note": 38,
      "start": 8.9652,
      "duration": 0.112,
      "velocity": 113,
      "chip": "ym2612"
    },
    {
      "channel": 0,
      "note": 66,
      "start": 8.9688,
      "duration": 0.1015,
      "velocity": 93,
      "chip": "ym2612"
    },
    {
      "channel": 5,
      "note": 66,
      "start": 9.0651,
      "duration": 0.209,
      "velocity": 127,
      "chip": "ym2612"
    },
    {
      "channel": 0,
      "note": 66,
      "start": 9.071,
      "duration": 0.0992,
      "velocity": 93,
      "chip": "ym2612"
    },
    {
      "channel": 4,
      "note": 38,
      "start": 9.0778,
      "duration": 0.1988,
      "velocity": 113,
      "chip": "ym2612"
    },
    {
      "channel": 1,
      "note": 74,
      "start": 9.1649,
      "duration": 0.3109,
      "velocity": 106,
      "chip": "ym2612"
    },
    {
      "channel": 0,
      "note": 66,
      "start": 9.1708,
      "duration": 0.1095,
      "velocity": 93,
      "chip": "ym2612"
    },
    {
      "channel": 4,
      "note": 38,
      "start": 9.2773,
      "duration": 0.0932,
      "velocity": 113,
      "chip": "ym2612"
    },
    {
      "channel": 0,
      "note": 66,
      "start": 9.281,
      "duration": 0.0977,
      "velocity": 93,
      "chip": "ym2612"
    },
    {
      "channel": 5,
      "note": 66,
      "start": 9.2881,
      "duration": 0.0978,
      "velocity": 127,
      "chip": "ym2612"
    },
    {
      "channel": 4,
      "note": 38,
      "start": 9.371,
      "duration": 0.1178,
      "velocity": 113,
      "chip": "ym2612"
    },
    {
      "channel": 0,
      "note": 66,
      "start": 9.3793,
      "duration": 0.1047,
      "velocity": 93,
      "chip": "ym2612"
    },
    {
      "channel": 5,
      "note": 66,
      "start": 9.3865,
      "duration": 0.1001,
      "velocity": 127,
      "chip": "ym2612"
    },
    {
      "channel": 1,
      "note": 79,
      "start": 9.4764,
      "duration": 0.1025,
      "velocity": 106,
      "chip": "ym2612"
    },
    {
      "channel": 0,
      "note": 66,
      "start": 9.4846,
      "duration": 0.101,
      "velocity": 93,
      "chip": "ym2612"
    },
    {
      "channel": 5,
      "note": 66,
      "start": 9.4872,
      "duration": 0.1056,
      "velocity": 127,
      "chip": "ym2612"
    },
    {
      "channel": 4,
      "note": 38,
      "start": 9.4895,
      "duration": 0.1989,
      "velocity": 113,
      "chip": "ym2612"
    },
    {
      "channel": 1,
      "note": 81,
      "start": 9.5795,
      "duration": 0.1032,
      "velocity": 106,
      "chip": "ym2612"
    },
    {
      "channel": 0,
      "note": 66,
      "start": 9.5863,
      "duration": 0.1058,
      "velocity": 93,
      "chip": "ym2612"
    },
    {
      "channel": 5,
      "note": 66,
      "start": 9.5935,
      "duration": 0.1012,
      "velocity": 127,
      "chip": "ym2612"
    },
    {
      "channel": 1,
      "note": 86,
      "start": 9.6834,
      "duration": 0.2111,
      "velocity": 106,
      "chip": "ym2612"
    },
    {
      "channel": 4,
      "note": 38,
      "start": 9.689,
      "duration": 0.0923,
      "velocity": 113,
      "chip": "ym2612"
    },
    {
      "channel": 0,
      "note": 66,
      "start": 9.6927,
      "duration": 0.0968,
      "velocity": 93,
      "chip": "ym2612"
    },
    {
      "channel": 5,
      "note": 66,
      "start": 9.6953,
      "duration": 0.2037,
      "velocity": 127,
      "chip": "ym2612"
    },
    {
      "channel": 4,
      "note": 38,
      "start": 9.782,
      "duration": 0.1252,
      "velocity": 113,
      "chip": "ym2612"
    },
    {
      "channel": 0,
      "note": 66,
      "start": 9.7902,
      "duration": 0.1066,
      "velocity": 93,
      "chip": "ym2612"
    },
    {
      "channel": 1,
      "note": 69,
      "start": 9.8951,
      "duration": 0.3021,
      "velocity": 106,
      "chip": "ym2612"
    },
    {
      "channel": 0,
      "note": 66,
      "start": 9.8974,
      "duration": 0.0934,
      "velocity": 93,
      "chip": "ym2612"
    },
    {
      "channel": 4,
      "note": 45,
      "start": 9.9078,
      "duration": 0.1914,
      "velocity": 113,
      "chip": "ym2612"
    },
    {
      "channel": 5,
      "note": 66,
      "start": 9.9122,
      "duration": 0.178,
      "velocity": 127,
      "chip": "ym2612"
    },
    {
      "channel": 0,
      "note": 66,
      "start": 9.9915,
      "duration": 0.1046,
      "velocity": 93,
      "chip": "ym2612"
    },
    {
      "channel": 5,
      "note": 66,
      "start": 10.0909,
      "duration": 0.2053,
      "velocity": 127,
      "chip": "ym2612"
    },
    {
      "channel": 0,
      "note": 66,
      "start": 10.0967,
      "duration": 0.1066,
      "velocity": 93,
      "chip": "ym2612"
    },
    {
      "channel": 4,
      "note": 45,
      "start": 10.0998,
      "duration": 0.0943,
      "velocity": 113,
      "chip": "ym2612"
    },
    {
      "channel": 4,
      "note": 45,
      "start": 10.1947,
      "duration": 0.1177,
      "velocity": 113,
      "chip": "ym2612"
    },
    {
      "channel": 1,
      "note": 72,
      "start": 10.1979,
      "duration": 0.3098,
      "velocity": 106,
      "chip": "ym2612"
    },
    {
      "channel": 0,
      "note": 66,
      "start": 10.2039,
      "duration": 0.0983,
      "velocity": 93,
      "chip": "ym2612"
    },
    {
      "channel": 0,
      "note": 66,
      "start": 10.3028,
      "duration": 0.0976,
      "velocity": 93,
      "chip": "ym2612"
    },
    {
      "channel": 5,
      "note": 66,
      "start": 10.3108,
      "duration": 0.1912,
      "velocity": 127,
      "chip": "ym2612"
    },
    {
      "channel": 4,
      "note": 45,
      "start": 10.313,
      "duration": 0.2005,
      "velocity": 113,
      "chip": "ym2612"
    },
    {
      "channel": 0,
      "note": 66,
      "start": 10.4011,
      "duration": 0.116,
      "velocity": 93,
      "chip": "ym2612"
    },
    {
      "channel": 1,
      "note": 74,
      "start": 10.5083,
      "duration": 0.3039,
      "velocity": 106,
      "chip": "ym2612"
    },
    {
      "channel": 4,
      "note": 45,
      "start": 10.5141,
      "duration": 0.0922,
      "velocity": 113,
      "chip": "ym2612"
    },
    {
      "channel": 0,
      "note": 66,
      "start": 10.5178,
      "duration": 0.0923,
      "velocity": 93,
      "chip": "ym2612"
    },
    {
      "channel": 5,
      "note": 66,
      "start": 10.5203,
      "duration": 0.186,
      "velocity": 127,
      "chip": "ym2612"
    },
    {
      "channel": 4,
      "note": 45,
      "start": 10.607,
      "duration": 0.1122,
      "velocity": 113,
      "chip": "ym2612"
    },
    {
      "channel": 0,
      "note": 66,
      "start": 10.6107,
      "duration": 0.1015,
      "velocity": 93,
      "chip": "ym2612"
    },
    {
      "channel": 5,
      "note": 66,
      "start": 10.707,
      "duration": 0.209,
      "velocity": 127,
      "chip": "ym2612"
    },
    {
      "channel": 0,
      "note": 66,
      "start": 10.7128,
      "duration": 0.1055,
      "velocity": 93,
      "chip": "ym2612"
    },
    {
      "channel": 4,
      "note": 45,
      "start": 10.7197,
      "duration": 0.1988,
      "velocity": 113,
      "chip": "ym2612"
    },
    {
      "channel": 1,
      "note": 69,
      "start": 10.8129,
      "duration": 0.3054,
      "velocity": 106,
      "chip": "ym2612"
    },
    {
      "channel": 0,
      "note": 66,
      "start": 10.8189,
      "duration": 0.1032,
      "velocity": 93,
      "chip": "ym2612"
    },
    {
      "channel": 4,
      "note": 45,
      "start": 10.9191,
      "duration": 0.0932,
      "velocity": 113,
      "chip": "ym2612"
    },
    {
      "channel": 0,
      "note": 66,
      "start": 10.9228,
      "duration": 0.0977,
      "velocity": 93,
      "chip": "ym2612"
    },
    {
      "channel": 5,
      "note": 66,
      "start": 10.9299,
      "duration": 0.0978,
      "velocity": 127,
      "chip": "ym2612"
    },
    {
      "channel": 4,
      "note": 45,
      "start": 11.0129,
      "duration": 0.124,
      "velocity": 113,
      "chip": "ym2612"
    },
    {
      "channel": 0,
      "note": 66,
      "start": 11.0211,
      "duration": 0.1056,
      "velocity": 93,
      "chip": "ym2612"
    },
    {
      "channel": 5,
      "note": 66,
      "start": 11.0283,
      "duration": 0.1064,
      "velocity": 127,
      "chip": "ym2612"
    },
    {
      "channel": 1,
      "note": 72,
      "start": 11.1189,
      "duration": 0.1019,
      "velocity": 106,
      "chip": "ym2612"
    },
    {
      "channel": 0,
      "note": 66,
      "start": 11.1274,
      "duration": 0.1002,
      "velocity": 93,
      "chip": "ym2612"
    },
    {
      "channel": 5,
      "note": 66,
      "start": 11.1353,
      "duration": 0.0994,
      "velocity": 127,
      "chip": "ym2612"
    },
    {
      "channel": 4,
      "note": 45,
      "start": 11.1376,
      "duration": 0.1913,
      "velocity": 113,
      "chip": "ym2612"
    },
    {
      "channel": 1,
      "note": 74,
      "start": 11.2215,
      "duration": 0.1025,
      "velocity": 106,
      "chip": "ym2612"
    },
    {
      "channel": 0,
      "note": 66,
      "start": 11.2282,
      "duration": 0.1043,
      "velocity": 93,
      "chip": "ym2612"
    },
    {
      "channel": 5,
      "note": 66,
      "start": 11.2354,
      "duration": 0.1043,
      "velocity": 127,
      "chip": "ym2612"
    },
    {
      "channel": 1,
      "note": 67,
      "start": 11.3246,
      "duration": 0.2062,
      "velocity": 106,
      "chip": "ym2612"
    },
    {
      "channel": 4,
      "note": 45,
      "start": 11.3295,
      "duration": 0.1007,
      "velocity": 113,
      "chip": "ym2612"
    },
    {
      "channel": 0,
      "note": 66,
      "start": 11.3332,
      "duration": 0.1007,
      "velocity": 93,
      "chip": "ym2612"
    },
    {
      "channel": 5,
      "note": 66,
      "start": 11.3404,
      "duration": 0.2,
      "velocity": 127,
      "chip": "ym2612"
    },
    {
      "channel": 4,
      "note": 45,
      "start": 11.4308,
      "duration": 0.1121,
      "velocity": 113,
      "chip": "ym2612"
    },
    {
      "channel": 0,
      "note": 66,
      "start": 11.4345,
      "duration": 0.1036,
      "velocity": 93,
      "chip": "ym2612"
    },
    {
      "channel": 1,
      "note": 91,
      "start": 11.5314,
      "duration": 0.0989,
      "velocity": 106,
      "chip": "ym2612"
    },
    {
      "channel": 0,
      "note": 66,
      "start": 11.5388,
      "duration": 0.0974,
      "velocity": 93,
      "chip": "ym2612"
    },
    {
      "channel": 4,
      "note": 55,
      "start": 11.5435,
      "duration": 0.2966,
      "velocity": 113,
      "chip": "ym2612"
    },
    {
      "channel": 5,
      "note": 66,
      "start": 11.5528,
      "duration": 0.1822,
      "velocity": 127,
      "chip": "ym2612"
    },
    {
      "channel": 1,
      "note": 79,
      "start": 11.6309,
      "duration": 0.1078,
      "velocity": 106,
      "chip": "ym2612"
    },
    {
      "channel": 0,
      "note": 66,
      "start": 11.6368,
      "duration": 0.1079,
      "velocity": 93,
      "chip": "ym2612"
    },
    {
      "channel": 5,
      "note": 66,
      "start": 11.7356,
      "duration": 0.2061,
      "velocity": 127,
      "chip": "ym2612"
    },
    {
      "channel": 1,
      "note": 91,
      "start": 11.7393,
      "duration": 0.0968,
      "velocity": 106,
      "chip": "ym2612"
    },
    {
      "channel": 0,
      "note": 66,
      "start": 11.7453,
      "duration": 0.0985,
      "velocity": 93,
      "chip": "ym2612"
    },
    {
      "channel": 1,
      "note": 90,
      "start": 11.8367,
      "duration": 0.1016,
      "velocity": 106,
      "chip": "ym2612"
    },
    {
      "channel": 4,
      "note": 54,
      "start": 11.8407,
      "duration": 0.3092,
      "velocity": 113,
      "chip": "ym2612"
    },
    {
      "channel": 0,
      "note": 66,
      "start": 11.8444,
      "duration": 0.1015,
      "velocity": 93,
      "chip": "ym2612"
    },
    {
      "channel": 1,
      "note": 78,
      "start": 11.9389,
      "duration": 0.1048,
      "velocity": 106,
      "chip": "ym2612"
    },
    {
      "channel": 0,
      "note": 66,
      "start": 11.9466,
      "duration": 0.1031,
      "velocity": 93,
      "chip": "ym2612"
    },
    {
      "channel": 5,
      "note": 66,
      "start": 11.9538,
      "duration": 0.1936,
      "velocity": 127,
      "chip": "ym2612"
    },
    {
      "channel": 1,
      "note": 90,
      "start": 12.0444,
      "duration": 0.0998,
      "velocity": 106,
      "chip": "ym2612"
    },
    {
      "channel": 0,
      "note": 66,
      "start": 12.0503,
      "duration": 0.1033,
      "velocity": 93,
      "chip": "ym2612"
    },
    {
      "channel": 1,
      "note": 89,
      "start": 12.1447,
      "duration": 0.1006,
      "velocity": 106,
      "chip": "ym2612"
    },
    {
      "channel": 4,
      "note": 53,
      "start": 12.1506,
      "duration": 0.3022,
      "velocity": 113,
      "chip": "ym2612"
    },
    {
      "channel": 0,
      "note": 66,
      "start": 12.1543,
      "duration": 0.0971,
      "velocity": 93,
      "chip": "ym2612"
    },
    {
      "channel": 5,
      "note": 66,
      "start": 12.1616,
      "duration": 0.1941,
      "velocity": 127,
      "chip": "ym2612"
    },
    {
      "channel": 1,
      "note": 77,
      "start": 12.246,
      "duration": 0.106,
      "velocity": 106,
      "chip": "ym2612"
    },
    {
      "channel": 0,
      "note": 66,
      "start": 12.252,
      "duration": 0.1078,
      "velocity": 93,
      "chip": "ym2612"
    },
    {
      "channel": 1,
      "note": 89,
      "start": 12.3526,
      "duration": 0.1034,
      "velocity": 106,
      "chip": "ym2612"
    },
    {
      "channel": 5,
      "note": 66,
      "start": 12.3563,
      "duration": 0.2003,
      "velocity": 127,
      "chip": "ym2612"
    },
    {
      "channel": 0,
      "note": 66,
      "start": 12.3604,
      "duration": 0.1017,
      "velocity": 93,
      "chip": "ym2612"
    },
    {
      "channel": 4,
      "note": 52,
      "start": 12.4535,
      "duration": 0.3117,
      "velocity": 113,
      "chip": "ym2612"
    },
    {
      "channel": 1,
      "note": 88,
      "start": 12.4566,
      "duration": 0.0967,
      "velocity": 106,
      "chip": "ym2612"
    },
    {
      "channel": 0,
      "note": 66,
      "start": 12.4627,
      "duration": 0.0983,
      "velocity": 93,
      "chip": "ym2612"
    },
    {
      "channel": 1,
      "note": 76,
      "start": 12.554,
      "duration": 0.1093,
      "velocity": 106,
      "chip": "ym2612"
    },
    {
      "channel": 0,
      "note": 66,
      "start": 12.5617,
      "duration": 0.1039,
      "velocity": 93,
      "chip": "ym2612"
    },
    {
      "channel": 5,
      "note": 66,
      "start": 12.5688,
      "duration": 0.1039,
      "velocity": 127,
      "chip": "ym2612"
    },
    {
      "channel": 1,
      "note": 88,
      "start": 12.6639,
      "duration": 0.0963,
      "velocity": 106,
      "chip": "ym2612"
    },
    {
      "channel": 0,
      "note": 66,
      "start": 12.6662,
      "duration": 0.1026,
      "velocity": 93,
      "chip": "ym2612"
    },
    {
      "channel": 5,
      "note": 66,
      "start": 12.6734,
      "duration": 0.1026,
      "velocity": 127,
      "chip": "ym2612"
    },
    {
      "channel": 1,
      "note": 87,
      "start": 12.7608,
      "duration": 0.1033,
      "velocity": 106,
      "chip": "ym2612"
    },
    {
      "channel": 4,
      "note": 51,
      "start": 12.7657,
      "duration": 0.2071,
      "velocity": 113,
      "chip": "ym2612"
    },
    {
      "channel": 0,
      "note": 66,
      "start": 12.7694,
      "duration": 0.1023,
      "velocity": 93,
      "chip": "ym2612"
    },
    {
      "channel": 5,
      "note": 66,
      "start": 12.7766,
      "duration": 0.0976,
      "velocity": 127,
      "chip": "ym2612"
    },
    {
      "channel": 1,
      "note": 75,
      "start": 12.8648,
      "duration": 0.1032,
      "velocity": 106,
      "chip": "ym2612"
    },
    {
      "channel": 0,
      "note": 66,
      "start": 12.8723,
      "duration": 0.1042,
      "velocity": 93,
      "chip": "ym2612"
    },
    {
      "channel": 5,
      "note": 66,
      "start": 12.8748,
      "duration": 0.1088,
      "velocity": 127,
      "chip": "ym2612"
    },
    {
      "channel": 1,
      "note": 84,
      "start": 12.9685,
      "duration": 0.1039,
      "velocity": 106,
      "chip": "ym2612"
    },
    {
      "channel": 4,
      "note": 48,
      "start": 12.9734,
      "duration": 0.2178,
      "velocity": 113,
      "chip": "ym2612"
    },
    {
      "channel": 0,
      "note": 66,
      "start": 12.9771,
      "duration": 0.0976,
      "velocity": 93,
      "chip": "ym2612"
    },
    {
      "channel": 5,
      "note": 66,
      "start": 12.9843,
      "duration": 0.1972,
      "velocity": 127,
      "chip": "ym2612"
    },
    {
      "channel": 1,
      "note": 72,
      "start": 13.0731,
      "duration": 0.1232,
      "velocity": 106,
      "chip": "ym2612"
    },
    {
      "channel": 0,
      "note": 66,
      "start": 13.0754,
      "duration": 0.1039,
      "velocity": 93,
      "chip": "ym2612"
    },
    {
      "channel": 3,
      "note": 45,
      "start": 13.1751,
      "duration": 3.2905,
      "velocity": 97,
      "chip": "ym2612"
    },
    {
      "channel": 0,
      "note": 66,
      "start": 13.1799,
      "duration": 0.1036,
      "velocity": 93,
      "chip": "ym2612"
    },
    {
      "channel": 4,
      "note": 45,
      "start": 13.1918,
      "duration": 0.1938,
      "velocity": 113,
      "chip": "ym2612"
    },
    {
      "channel": 2,
      "note": 69,
      "start": 13.1946,
      "duration": 0.0824,
      "velocity": 115,
      "chip": "ym2612"
    },
    {
      "channel": 1,
      "note": 69,
      "start": 13.1968,
      "duration": 0.288,
      "velocity": 106,
      "chip": "ym2612"
    },
    {
      "channel": 5,
      "note": 66,
      "start": 13.1999,
      "duration": 0.1834,
      "velocity": 127,
      "chip": "ym2612"
    },
    {
      "channel": 2,
      "note": 69,
      "start": 13.2776,
      "duration": 0.1015,
      "velocity": 115,
      "chip": "ym2612"
    },
    {
      "channel": 0,
      "note": 66,
      "start": 13.2841,
      "duration": 0.1051,
      "velocity": 93,
      "chip": "ym2612"
    },
    {
      "channel": 2,
      "note": 81,
      "start": 13.3798,
      "duration": 0.1028,
      "velocity": 115,
      "chip": "ym2612"
    },
    {
      "channel": 5,
      "note": 66,
      "start": 13.3839,
      "duration": 0.204,
      "velocity": 127,
      "chip": "ym2612"
    },
    {
      "channel": 4,
      "note": 45,
      "start": 13.3862,
      "duration": 0.0936,
      "velocity": 113,
      "chip": "ym2612"
    },
    {
      "channel": 0,
      "note": 66,
      "start": 13.3899,
      "duration": 0.0971,
      "velocity": 93,
      "chip": "ym2612"
    },
    {
      "channel": 4,
      "note": 45,
      "start": 13.4804,
      "duration": 0.1239,
      "velocity": 113,
      "chip": "ym2612"
    },
    {
      "channel": 2,
      "note": 69,
      "start": 13.4832,
      "duration": 0.101,
      "velocity": 115,
      "chip": "ym2612"
    },
    {
      "channel": 1,
      "note": 72,
      "start": 13.4855,
      "duration": 0.309,
      "velocity": 106,
      "chip": "ym2612"
    },
    {
      "channel": 0,
      "note": 66,
      "start": 13.4877,
      "duration": 0.1064,
      "velocity": 93,
      "chip": "ym2612"
    },
    {
      "channel": 2,
      "note": 69,
      "start": 13.5848,
      "duration": 0.1035,
      "velocity": 115,
      "chip": "ym2612"
    },
    {
      "channel": 0,
      "note": 66,
      "start": 13.5947,
      "duration": 0.0964,
      "velocity": 93,
      "chip": "ym2612"
    },
    {
      "channel": 5,
      "note": 66,
      "start": 13.6026,
      "duration": 0.1844,
      "velocity": 127,
      "chip": "ym2612"
    },
    {
      "channel": 4,
      "note": 45,
      "start": 13.6049,
      "duration": 0.1965,
      "velocity": 113,
      "chip": "ym2612"
    },
    {
      "channel": 2,
      "note": 81,
      "start": 13.689,
      "duration": 0.1032,
      "velocity": 115,
      "chip": "ym2612"
    },
    {
      "channel": 0,
      "note": 66,
      "start": 13.6917,
      "duration": 0.105,
      "velocity": 93,
      "chip": "ym2612"
    },
    {
      "channel": 2,
      "note": 69,
      "start": 13.7928,
      "duration": 0.1018,
      "velocity": 115,
      "chip": "ym2612"
    },
    {
      "channel": 1,
      "note": 74,
      "start": 13.7951,
      "duration": 0.3025,
      "velocity": 106,
      "chip": "ym2612"
    },
    {
      "channel": 0,
      "note": 66,
      "start": 13.7973,
      "duration": 0.1038,
      "velocity": 93,
      "chip": "ym2612"
    },
    {
      "channel": 4,
      "note": 45,
      "start": 13.8021,
      "duration": 0.0899,
      "velocity": 113,
      "chip": "ym2612"
    },
    {
      "channel": 5,
      "note": 66,
      "start": 13.8065,
      "duration": 0.1878,
      "velocity": 127,
      "chip": "ym2612"
    },
    {
      "channel": 4,
      "note": 45,
      "start": 13.8926,
      "duration": 0.1162,
      "velocity": 113,
      "chip": "ym2612"
    },
    {
      "channel": 2,
      "note": 69,
      "start": 13.8953,
      "duration": 0.104,
      "velocity": 115,
      "chip": "ym2612"
    },
    {
      "channel": 0,
      "note": 66,
      "start": 13.9017,
      "duration": 0.1002,
      "velocity": 93,
      "chip": "ym2612"
    },
    {
      "channel": 5,
      "note": 66,
      "start": 13.9949,
      "duration": 0.2095,
      "velocity": 127,
      "chip": "ym2612"
    },
    {
      "channel": 2,
      "note": 81,
      "start": 13.9999,
      "duration": 0.0954,
      "velocity": 115,
      "chip": "ym2612"
    },
    {
      "channel": 0,
      "note": 66,
      "start": 14.0026,
      "duration": 0.101,
      "velocity": 93,
      "chip": "ym2612"
    },
    {
      "channel": 4,
      "note": 45,
      "start": 14.0094,
      "duration": 0.2057,
      "velocity": 113,
      "chip": "ym2612"
    },
    {
      "channel": 2,
      "note": 69,
      "start": 14.096,
      "duration": 0.1047,
      "velocity": 115,
      "chip": "ym2612"
    },
    {
      "channel": 1,
      "note": 69,
      "start": 14.0982,
      "duration": 0.3102,
      "velocity": 106,
      "chip": "ym2612"
    },
    {
      "channel": 0,
      "note": 66,
      "start": 14.1041,
      "duration": 0.1064,
      "velocity": 93,
      "chip": "ym2612"
    },
    {
      "channel": 2,
      "note": 69,
      "start": 14.2012,
      "duration": 0.1055,
      "velocity": 115,
      "chip": "ym2612"
    },
    {
      "channel": 0,
      "note": 66,
      "start": 14.2112,
      "duration": 0.0982,
      "velocity": 93,
      "chip": "ym2612"
    },
    {
      "channel": 4,
      "note": 45,
      "start": 14.2157,
      "duration": 0.0882,
      "velocity": 113,
      "chip": "ym2612"
    },
    {
      "channel": 5,
      "note": 66,
      "start": 14.2202,
      "duration": 0.0964,
      "velocity": 127,
      "chip": "ym2612"
    },
    {
      "channel": 4,
      "note": 45,
      "start": 14.3045,
      "duration": 0.1169,
      "velocity": 113,
      "chip": "ym2612"
    },
    {
      "channel": 2,
      "note": 81,
      "start": 14.3073,
      "duration": 0.0987,
      "velocity": 115,
      "chip": "ym2612"
    },
    {
      "channel": 0,
      "note": 66,
      "start": 14.3101,
      "duration": 0.1066,
      "velocity": 93,
      "chip": "ym2612"
    },
    {
      "channel": 5,
      "note": 66,
      "start": 14.3173,
      "duration": 0.1019,
      "velocity": 127,
      "chip": "ym2612"
    },
    {
      "channel": 2,
      "note": 69,
      "start": 14.4067,
      "duration": 0.1076,
      "velocity": 115,
      "chip": "ym2612"
    },
    {
      "channel": 1,
      "note": 72,
      "start": 14.409,
      "duration": 0.0994,
      "velocity": 106,
      "chip": "ym2612"
    },
    {
      "channel": 0,
      "note": 66,
      "start": 14.4173,
      "duration": 0.0997,
      "velocity": 93,
      "chip": "ym2612"
    },
    {
      "channel": 5,
      "note": 66,
      "start": 14.4198,
      "duration": 0.1043,
      "velocity": 127,
      "chip": "ym2612"
    },
    {
      "channel": 4,
      "note": 45,
      "start": 14.4221,
      "duration": 0.1994,
      "velocity": 113,
      "chip": "ym2612"
    },
    {
      "channel": 1,
      "note": 74,
      "start": 14.509,
      "duration": 0.1069,
      "velocity": 106,
      "chip": "ym2612"
    },
    {
      "channel": 2,
      "note": 69,
      "start": 14.5149,
      "duration": 0.0988,
      "velocity": 115,
      "chip": "ym2612"
    },
    {
      "channel": 0,
      "note": 66,
      "start": 14.5176,
      "duration": 0.1077,
      "velocity": 93,
      "chip": "ym2612"
    },
    {
      "channel": 5,
      "note": 66,
      "start": 14.5248,
      "duration": 0.1031,
      "velocity": 127,
      "chip": "ym2612"
    },
    {
      "channel": 2,
      "note": 81,
      "start": 14.6143,
      "duration": 0.0992,
      "velocity": 115,
      "chip": "ym2612"
    },
    {
      "channel": 1,
      "note": 67,
      "start": 14.6166,
      "duration": 0.2149,
      "velocity": 106,
      "chip": "ym2612"
    },
    {
      "channel": 4,
      "note": 45,
      "start": 14.6222,
      "duration": 0.0886,
      "velocity": 113,
      "chip": "ym2612"
    },
    {
      "channel": 0,
      "note": 66,
      "start": 14.6259,
      "duration": 0.0948,
      "velocity": 93,
      "chip": "ym2612"
    },
    {
      "channel": 5,
      "note": 66,
      "start": 14.6284,
      "duration": 0.1976,
      "velocity": 127,
      "chip": "ym2612"
    },
    {
      "channel": 4,
      "note": 45,
      "start": 14.7114,
      "duration": 0.1253,
      "velocity": 113,
      "chip": "ym2612"
    },
    {
      "channel": 2,
      "note": 69,
      "start": 14.7141,
      "duration": 0.1253,
      "velocity": 115,
      "chip": "ym2612"
    },
    {
      "channel": 0,
      "note": 66,
      "start": 14.7213,
      "duration": 0.1024,
      "velocity": 93,
      "chip": "ym2612"
    },
    {
      "channel": 0,
      "note": 66,
      "start": 14.8244,
      "duration": 0.0995,
      "velocity": 93,
      "chip": "ym2612"
    },
    {
      "channel": 1,
      "note": 69,
      "start": 14.8321,
      "duration": 0.2993,
      "velocity": 106,
      "chip": "ym2612"
    },
    {
      "channel": 4,
      "note": 45,
      "start": 14.8373,
      "duration": 0.1936,
      "velocity": 113,
      "chip": "ym2612"
    },
    {
      "channel": 2,
      "note": 69,
      "start": 14.84,
      "duration": 0.0775,
      "velocity": 115,
      "chip": "ym2612"
    },
    {
      "channel": 5,
      "note": 66,
      "start": 14.8435,
      "duration": 0.1766,
      "velocity": 127,
      "chip": "ym2612"
    },
    {
      "channel": 2,
      "note": 69,
      "start": 14.9182,
      "duration": 0.1069,
      "velocity": 115,
      "chip": "ym2612"
    },
    {
      "channel": 0,
      "note": 66,
      "start": 14.9246,
      "duration": 0.1032,
      "velocity": 93,
      "chip": "ym2612"
    },
    {
      "channel": 5,
      "note": 66,
      "start": 15.0208,
      "duration": 0.205,
      "velocity": 127,
      "chip": "ym2612"
    },
    {
      "channel": 2,
      "note": 81,
      "start": 15.0257,
      "duration": 0.1034,
      "velocity": 115,
      "chip": "ym2612"
    },
    {
      "channel": 0,
      "note": 66,
      "start": 15.0285,
      "duration": 0.1051,
      "velocity": 93,
      "chip": "ym2612"
    },
    {
      "channel": 4,
      "note": 45,
      "start": 15.0315,
      "duration": 0.0949,
      "velocity": 113,
      "chip": "ym2612"
    },
    {
      "channel": 4,
      "note": 45,
      "start": 15.127,
      "duration": 0.1176,
      "velocity": 113,
      "chip": "ym2612"
    },
    {
      "channel": 2,
      "note": 69,
      "start": 15.1297,
      "duration": 0.1013,
      "velocity": 115,
      "chip": "ym2612"
    },
    {
      "channel": 1,
      "note": 72,
      "start": 15.132,
      "duration": 0.3083,
      "velocity": 106,
      "chip": "ym2612"
    },
    {
      "channel": 0,
      "note": 66,
      "start": 15.1342,
      "duration": 0.1055,
      "velocity": 93,
      "chip": "ym2612"
    },
    {
      "channel": 2,
      "note": 69,
      "start": 15.2316,
      "duration": 0.0964,
      "velocity": 115,
      "chip": "ym2612"
    },
    {
      "channel": 0,
      "note": 66,
      "start": 15.2404,
      "duration": 0.0941,
      "velocity": 93,
      "chip": "ym2612"
    },
    {
      "channel": 5,
      "note": 66,
      "start": 15.243,
      "duration": 0.1899,
      "velocity": 127,
      "chip": "ym2612"
    },
    {
      "channel": 4,
      "note": 45,
      "start": 15.2452,
      "duration": 0.201,
      "velocity": 113,
      "chip": "ym2612"
    },
    {
      "channel": 2,
      "note": 81,
      "start": 15.3287,
      "duration": 0.1095,
      "velocity": 115,
      "chip": "ym2612"
    },
    {
      "channel": 0,
      "note": 66,
      "start": 15.3351,
      "duration": 0.1147,
      "velocity": 93,
      "chip": "ym2612"
    },
    {
      "channel": 2,
      "note": 69,
      "start": 15.4387,
      "duration": 0.1001,
      "velocity": 115,
      "chip": "ym2612"
    },
    {
      "channel": 1,
      "note": 74,
      "start": 15.441,
      "duration": 0.3031,
      "velocity": 106,
      "chip": "ym2612"
    },
    {
      "channel": 4,
      "note": 45,
      "start": 15.4468,
      "duration": 0.0893,
      "velocity": 113,
      "chip": "ym2612"
    },
    {
      "channel": 0,
      "note": 66,
      "start": 15.4505,
      "duration": 0.091,
      "velocity": 93,
      "chip": "ym2612"
    },
    {
      "channel": 5,
      "note": 66,
      "start": 15.4531,
      "duration": 0.1864,
      "velocity": 127,
      "chip": "ym2612"
    },
    {
      "channel": 4,
      "note": 45,
      "start": 15.5367,
      "duration": 0.1156,
      "velocity": 113,
      "chip": "ym2612"
    },
    {
      "channel": 2,
      "note": 69,
      "start": 15.5394,
      "duration": 0.0961,
      "velocity": 115,
      "chip": "ym2612"
    },
    {
      "channel": 0,
      "note": 66,
      "start": 15.5421,
      "duration": 0.1033,
      "velocity": 93,
      "chip": "ym2612"
    },
    {
      "channel": 2,
      "note": 81,
      "start": 15.636,
      "duration": 0.1059,
      "velocity": 115,
      "chip": "ym2612"
    },
    {
      "channel": 5,
      "note": 66,
      "start": 15.6402,
      "duration": 0.2029,
      "velocity": 127,
      "chip": "ym2612"
    },
    {
      "channel": 0,
      "note": 66,
      "start": 15.6461,
      "duration": 0.1041,
      "velocity": 93,
      "chip": "ym2612"
    },
    {
      "channel": 4,
      "note": 45,
      "start": 15.6529,
      "duration": 0.2025,
      "velocity": 113,
      "chip": "ym2612"
    },
    {
      "channel": 2,
      "note": 69,
      "start": 15.7425,
      "duration": 0.1057,
      "velocity": 115,
      "chip": "ym2612"
    },
    {
      "channel": 1,
      "note": 69,
      "start": 15.7447,
      "duration": 0.3094,
      "velocity": 106,
      "chip": "ym2612"
    },
    {
      "channel": 0,
      "note": 66,
      "start": 15.7508,
      "duration": 0.1001,
      "velocity": 93,
      "chip": "ym2612"
    },
    {
      "channel": 2,
      "note": 69,
      "start": 15.8488,
      "duration": 0.095,
      "velocity": 115,
      "chip": "ym2612"
    },
    {
      "channel": 0,
      "note": 66,
      "start": 15.8515,
      "duration": 0.1014,
      "velocity": 93,
      "chip": "ym2612"
    },
    {
      "channel": 4,
      "note": 45,
      "start": 15.8561,
      "duration": 0.0932,
      "velocity": 113,
      "chip": "ym2612"
    },
    {
      "channel": 5,
      "note": 66,
      "start": 15.8605,
      "duration": 0.0995,
      "velocity": 127,
      "chip": "ym2612"
    },
    {
      "channel": 2,
      "note": 81,
      "start": 15.9444,
      "duration": 0.1074,
      "velocity": 115,
      "chip": "ym2612"
    },
    {
      "channel": 4,
      "note": 45,
      "start": 15.9498,
      "duration": 0.1163,
      "velocity": 113,
      "chip": "ym2612"
    },
    {
      "channel": 0,
      "note": 66,
      "start": 15.9536,
      "duration": 0.1081,
      "velocity": 93,
      "chip": "ym2612"
    },
    {
      "channel": 5,
      "note": 66,
      "start": 15.9607,
      "duration": 0.1099,
      "velocity": 127,
      "chip": "ym2612"
    },
    {
      "channel": 2,
      "note": 69,
      "start": 16.0525,
      "duration": 0.0989,
      "velocity": 115,
      "chip": "ym2612"
    },
    {
      "channel": 1,
      "note": 72,
      "start": 16.0548,
      "duration": 0.0988,
      "velocity": 106,
      "chip": "ym2612"
    },
    {
      "channel": 0,
      "note": 66,
      "start": 16.0623,
      "duration": 0.0981,
      "velocity": 93,
      "chip": "ym2612"
    },
    {
      "channel": 4,
      "note": 45,
      "start": 16.0668,
      "duration": 0.1999,
      "velocity": 113,
      "chip": "ym2612"
    },
    {
      "channel": 5,
      "note": 66,
      "start": 16.0713,
      "duration": 0.0963,
      "velocity": 127,
      "chip": "ym2612"
    },
    {
      "channel": 2,
      "note": 69,
      "start": 16.1521,
      "duration": 0.0995,
      "velocity": 115,
      "chip": "ym2612"
    },
    {
      "channel": 1,
      "note": 74,
      "start": 16.1543,
      "duration": 0.0995,
      "velocity": 106,
      "chip": "ym2612"
    },
    {
      "channel": 0,
      "note": 66,
      "start": 16.1611,
      "duration": 0.1012,
      "velocity": 93,
      "chip": "ym2612"
    },
    {
      "channel": 5,
      "note": 66,
      "start": 16.1682,
      "duration": 0.103,
      "velocity": 127,
      "chip": "ym2612"
    },
    {
      "channel": 2,
      "note": 81,
      "start": 16.2521,
      "duration": 0.1079,
      "velocity": 115,
      "chip": "ym2612"
    },
    {
      "channel": 1,
      "note": 67,
      "start": 16.2544,
      "duration": 0.2235,
      "velocity": 106,
      "chip": "ym2612"
    },
    {
      "channel": 0,
      "note": 66,
      "start": 16.2629,
      "duration": 0.1043,
      "velocity": 93,
      "chip": "ym2612"
    },
    {
      "channel": 4,
      "note": 45,
      "start": 16.2674,
      "duration": 0.0899,
      "velocity": 113,
      "chip": "ym2612"
    },
    {
      "channel": 5,
      "note": 66,
      "start": 16.2718,
      "duration": 0.2007,
      "velocity": 127,
      "chip": "ym2612"
    },
    {
      "channel": 4,
      "note": 45,
      "start": 16.3579,
      "duration": 0.1326,
      "velocity": 113,
      "chip": "ym2612"
    },
    {
      "channel": 2,
      "note": 69,
      "start": 16.3606,
      "duration": 0.1242,
      "velocity": 115,
      "chip": "ym2612"
    },
    {
      "channel": 0,
      "note": 66,
      "start": 16.3678,
      "duration": 0.1024,
      "velocity": 93,
      "chip": "ym2612"
    },
    {
      "channel": 3,
      "note": 48,
      "start": 16.4662,
      "duration": 3.2856,
      "velocity": 97,
      "chip": "ym2612"
    },
    {
      "channel": 0,
      "note": 66,
      "start": 16.4709,
      "duration": 0.094,
      "velocity": 93,
      "chip": "ym2612"
    },
    {
      "channel": 1,
      "note": 72,
      "start": 16.4785,
      "duration": 0.2932,
      "velocity": 106,
      "chip": "ym2612"
    },
    {
      "channel": 2,
      "note": 72,
      "start": 16.4854,
      "duration": 0.0768,
      "velocity": 115,
      "chip": "ym2612"
    },
    {
      "channel": 5,
      "note": 66,
      "start": 16.4889,
      "duration": 0.1784,
      "velocity": 127,
      "chip": "ym2612"
    },
    {
      "channel": 4,
      "note": 48,
      "start": 16.4912,
      "duration": 0.1868,
      "velocity": 113,
      "chip": "ym2612"
    },
    {
      "channel": 2,
      "note": 72,
      "start": 16.5628,
      "duration": 0.1095,
      "velocity": 115,
      "chip": "ym2612"
    },
    {
      "channel": 0,
      "note": 66,
      "start": 16.5656,
      "duration": 0.1095,
      "velocity": 93,
      "chip": "ym2612"
    },
    {
      "channel": 5,
      "note": 66,
      "start": 16.668,
      "duration": 0.2061,
      "velocity": 127,
      "chip": "ym2612"
    },
    {
      "channel": 2,
      "note": 84,
      "start": 16.6729,
      "duration": 0.0965,
      "velocity": 115,
      "chip": "ym2612"
    },
    {
      "channel": 0,
      "note": 66,
      "start": 16.6757,
      "duration": 0.102,
      "velocity": 93,
      "chip": "ym2612"
    },
    {
      "channel": 4,
      "note": 48,
      "start": 16.6787,
      "duration": 0.0881,
      "velocity": 113,
      "chip": "ym2612"
    },
    {
      "channel": 4,
      "note": 48,
      "start": 16.7673,
      "duration": 0.1164,
      "velocity": 113,
      "chip": "ym2612"
    },
    {
      "channel": 2,
      "note": 72,
      "start": 16.7701,
      "duration": 0.1002,
      "velocity": 115,
      "chip": "ym2612"
    },
    {
      "channel": 1,
      "note": 75,
      "start": 16.7724,
      "duration": 0.3073,
      "velocity": 106,
      "chip": "ym2612"
    },
    {
      "channel": 0,
      "note": 66,
      "start": 16.7783,
      "duration": 0.1009,
      "velocity": 93,
      "chip": "ym2612"
    },
    {
      "channel": 2,
      "note": 72,
      "start": 16.8709,
      "duration": 0.1043,
      "velocity": 115,
      "chip": "ym2612"
    },
    {
      "channel": 0,
      "note": 66,
      "start": 16.8799,
      "duration": 0.1018,
      "velocity": 93,
      "chip": "ym2612"
    },
    {
      "channel": 4,
      "note": 48,
      "start": 16.8844,
      "duration": 0.2011,
      "velocity": 113,
      "chip": "ym2612"
    },
    {
      "channel": 5,
      "note": 66,
      "start": 16.8888,
      "duration": 0.1941,
      "velocity": 127,
      "chip": "ym2612"
    },
    {
      "channel": 2,
      "note": 84,
      "start": 16.9758,
      "duration": 0.1015,
      "velocity": 115,
      "chip": "ym2612"
    },
    {
      "channel": 0,
      "note": 66,
      "start": 16.9823,
      "duration": 0.1069,
      "velocity": 93,
      "chip": "ym2612"
    },
    {
      "channel": 2,
      "note": 72,
      "start": 17.078,
      "duration": 0.1011,
      "velocity": 115,
      "chip": "ym2612"
    },
    {
      "channel": 1,
      "note": 77,
      "start": 17.0802,
      "duration": 0.3049,
      "velocity": 106,
      "chip": "ym2612"
    },
    {
      "channel": 4,
      "note": 48,
      "start": 17.0861,
      "duration": 0.0903,
      "velocity": 113,
      "chip": "ym2612"
    },
    {
      "channel": 0,
      "note": 66,
      "start": 17.0898,
      "duration": 0.0958,
      "velocity": 93,
      "chip": "ym2612"
    },
    {
      "channel": 5,
      "note": 66,
      "start": 17.0971,
      "duration": 0.1896,
      "velocity": 127,
      "chip": "ym2612"
    },
    {
      "channel": 4,
      "note": 48,
      "start": 17.1769,
      "duration": 0.1225,
      "velocity": 113,
      "chip": "ym2612"
    },
    {
      "channel": 2,
      "note": 72,
      "start": 17.1797,
      "duration": 0.1029,
      "velocity": 115,
      "chip": "ym2612"
    },
    {
      "channel": 0,
      "note": 66,
      "start": 17.1862,
      "duration": 0.1064,
      "velocity": 93,
      "chip": "ym2612"
    },
    {
      "channel": 2,
      "note": 84,
      "start": 17.2832,
      "duration": 0.0997,
      "velocity": 115,
      "chip": "ym2612"
    },
    {
      "channel": 5,
      "note": 66,
      "start": 17.2874,
      "duration": 0.2032,
      "velocity": 127,
      "chip": "ym2612"
    },
    {
      "channel": 0,
      "note": 66,
      "start": 17.2932,
      "duration": 0.0979,
      "velocity": 93,
      "chip": "ym2612"
    },
    {
      "channel": 4,
      "note": 48,
      "start": 17.3001,
      "duration": 0.193,
      "velocity": 113,
      "chip": "ym2612"
    },
    {
      "channel": 2,
      "note": 72,
      "start": 17.3835,
      "duration": 0.1033,
      "velocity": 115,
      "chip": "ym2612"
    },
    {
      "channel": 1,
      "note": 72,
      "start": 17.3858,
      "duration": 0.3076,
      "velocity": 106,
      "chip": "ym2612"
    },
    {
      "channel": 0,
      "note": 66,
      "start": 17.3917,
      "duration": 0.1051,
      "velocity": 93,
      "chip": "ym2612"
    },
    {
      "channel": 2,
      "note": 72,
      "start": 17.4874,
      "duration": 0.1054,
      "velocity": 115,
      "chip": "ym2612"
    },
    {
      "channel": 4,
      "note": 48,
      "start": 17.4937,
      "duration": 0.0964,
      "velocity": 113,
      "chip": "ym2612"
    },
    {
      "channel": 0,
      "note": 66,
      "start": 17.4975,
      "duration": 0.1027,
      "velocity": 93,
      "chip": "ym2612"
    },
    {
      "channel": 5,
      "note": 66,
      "start": 17.5047,
      "duration": 0.1026,
      "velocity": 127,
      "chip": "ym2612"
    },
    {
      "channel": 4,
      "note": 48,
      "start": 17.5907,
      "duration": 0.1214,
      "velocity": 113,
      "chip": "ym2612"
    },
    {
      "channel": 2,
      "note": 84,
      "start": 17.5934,
      "duration": 0.0978,
      "velocity": 115,
      "chip": "ym2612"
    },
    {
      "channel": 0,
      "note": 66,
      "start": 17.6008,
      "duration": 0.1011,
      "velocity": 93,
      "chip": "ym2612"
    },
    {
      "channel": 5,
      "note": 66,
      "start": 17.6079,
      "duration": 0.1019,
      "velocity": 127,
      "chip": "ym2612"
    },
    {
      "channel": 2,
      "note": 72,
      "start": 17.6918,
      "duration": 0.1006,
      "velocity": 115,
      "chip": "ym2612"
    },
    {
      "channel": 1,
      "note": 75,
      "start": 17.694,
      "duration": 0.1006,
      "velocity": 106,
      "chip": "ym2612"
    },
    {
      "channel": 0,
      "note": 66,
      "start": 17.7026,
      "duration": 0.0989,
      "velocity": 93,
      "chip": "ym2612"
    },
    {
      "channel": 5,
      "note": 66,
      "start": 17.7105,
      "duration": 0.0982,
      "velocity": 127,
      "chip": "ym2612"
    },
    {
      "channel": 4,
      "note": 48,
      "start": 17.7127,
      "duration": 0.2013,
      "velocity": 113,
      "chip": "ym2612"
    },
    {
      "channel": 2,
      "note": 72,
      "start": 17.7931,
      "duration": 0.1057,
      "velocity": 115,
      "chip": "ym2612"
    },
    {
      "channel": 1,
      "note": 77,
      "start": 17.7953,
      "duration": 0.1056,
      "velocity": 106,
      "chip": "ym2612"
    },
    {
      "channel": 0,
      "note": 66,
      "start": 17.8021,
      "duration": 0.1074,
      "velocity": 93,
      "chip": "ym2612"
    },
    {
      "channel": 5,
      "note": 66,
      "start": 17.8093,
      "duration": 0.1092,
      "velocity": 127,
      "chip": "ym2612"
    },
    {
      "channel": 2,
      "note": 84,
      "start": 17.8994,
      "duration": 0.0999,
      "velocity": 115,
      "chip": "ym2612"
    },
    {
      "channel": 1,
      "note": 70,
      "start": 17.9016,
      "duration": 0.2143,
      "velocity": 106,
      "chip": "ym2612"
    },
    {
      "channel": 0,
      "note": 66,
      "start": 17.9101,
      "duration": 0.0981,
      "velocity": 93,
      "chip": "ym2612"
    },
    {
      "channel": 4,
      "note": 48,
      "start": 17.9146,
      "duration": 0.0899,
      "velocity": 113,
      "chip": "ym2612"
    },
    {
      "channel": 5,
      "note": 66,
      "start": 17.9191,
      "duration": 0.1913,
      "velocity": 127,
      "chip": "ym2612"
    },
    {
      "channel": 2,
      "note": 72,
      "start": 17.9999,
      "duration": 0.1239,
      "velocity": 115,
      "chip": "ym2612"
    },
    {
      "channel": 4,
      "note": 48,
      "start": 18.0052,
      "duration": 0.1159,
      "velocity": 113,
      "chip": "ym2612"
    },
    {
      "channel": 0,
      "note": 66,
      "start": 18.0089,
      "duration": 0.0993,
      "velocity": 93,
      "chip": "ym2612"
    },
    {
      "channel": 0,
      "note": 66,
      "start": 18.1088,
      "duration": 0.1058,
      "velocity": 93,
      "chip": "ym2612"
    },
    {
      "channel": 1,
      "note": 72,
      "start": 18.1165,
      "duration": 0.2921,
      "velocity": 106,
      "chip": "ym2612"
    },
    {
      "channel": 4,
      "note": 48,
      "start": 18.1217,
      "duration": 0.195,
      "velocity": 113,
      "chip": "ym2612"
    },
    {
      "channel": 2,
      "note": 72,
      "start": 18.1244,
      "duration": 0.0837,
      "velocity": 115,
      "chip": "ym2612"
    },
    {
      "channel": 5,
      "note": 66,
      "start": 18.128,
      "duration": 0.1864,
      "velocity": 127,
      "chip": "ym2612"
    },
    {
      "channel": 2,
      "note": 72,
      "start": 18.2087,
      "duration": 0.1015,
      "velocity": 115,
      "chip": "ym2612"
    },
    {
      "channel": 0,
      "note": 66,
      "start": 18.2152,
      "duration": 0.1051,
      "velocity": 93,
      "chip": "ym2612"
    },
    {
      "channel": 2,
      "note": 84,
      "start": 18.3109,
      "duration": 0.1046,
      "velocity": 115,
      "chip": "ym2612"
    },
    {
      "channel": 5,
      "note": 66,
      "start": 18.315,
      "duration": 0.204,
      "velocity": 127,
      "chip": "ym2612"
    },
    {
      "channel": 4,
      "note": 48,
      "start": 18.3173,
      "duration": 0.0954,
      "velocity": 113,
      "chip": "ym2612"
    },
    {
      "channel": 0,
      "note": 66,
      "start": 18.321,
      "duration": 0.0972,
      "velocity": 93,
      "chip": "ym2612"
    },
    {
      "channel": 1,
      "note": 75,
      "start": 18.4093,
      "duration": 0.3161,
      "velocity": 106,
      "chip": "ym2612"
    },
    {
      "channel": 4,
      "note": 48,
      "start": 18.4133,
      "duration": 0.122,
      "velocity": 113,
      "chip": "ym2612"
    },
    {
      "channel": 2,
      "note": 72,
      "start": 18.4161,
      "duration": 0.0991,
      "velocity": 115,
      "chip": "ym2612"
    },
    {
      "channel": 0,
      "note": 66,
      "start": 18.4188,
      "duration": 0.1063,
      "velocity": 93,
      "chip": "ym2612"
    },
    {
      "channel": 2,
      "note": 72,
      "start": 18.5159,
      "duration": 0.0998,
      "velocity": 115,
      "chip": "ym2612"
    },
    {
      "channel": 0,
      "note": 66,
      "start": 18.5258,
      "duration": 0.0963,
      "velocity": 93,
      "chip": "ym2612"
    },
    {
      "channel": 5,
      "note": 66,
      "start": 18.5337,
      "duration": 0.1844,
      "velocity": 127,
      "chip": "ym2612"
    },
    {
      "channel": 4,
      "note": 48,
      "start": 18.536,
      "duration": 0.1964,
      "velocity": 113,
      "chip": "ym2612"
    },
    {
      "channel": 2,
      "note": 84,
      "start": 18.6163,
      "duration": 0.1069,
      "velocity": 115,
      "chip": "ym2612"
    },
    {
      "channel": 0,
      "note": 66,
      "start": 18.6227,
      "duration": 0.1049,
      "velocity": 93,
      "chip": "ym2612"
    },
    {
      "channel": 2,
      "note": 72,
      "start": 18.7238,
      "duration": 0.1019,
      "velocity": 115,
      "chip": "ym2612"
    },
    {
      "channel": 1,
      "note": 77,
      "start": 18.726,
      "duration": 0.3025,
      "velocity": 106,
      "chip": "ym2612"
    },
    {
      "channel": 0,
      "note": 66,
      "start": 18.7283,
      "duration": 0.1038,
      "velocity": 93,
      "chip": "ym2612"
    },
    {
      "channel": 4,
      "note": 48,
      "start": 18.733,
      "duration": 0.0899,
      "velocity": 113,
      "chip": "ym2612"
    },
    {
      "channel": 5,
      "note": 66,
      "start": 18.7375,
      "duration": 0.1878,
      "velocity": 127,
      "chip": "ym2612"
    },
    {
      "channel": 4,
      "note": 48,
      "start": 18.8236,
      "duration": 0.1162,
      "velocity": 113,
      "chip": "ym2612"
    },
    {
      "channel": 2,
      "note": 72,
      "start": 18.8262,
      "duration": 0.104,
      "velocity": 115,
      "chip": "ym2612"
    },
    {
      "channel": 0,
      "note": 66,
      "start": 18.8327,
      "duration": 0.1002,
      "velocity": 93,
      "chip": "ym2612"
    },
    {
      "channel": 5,
      "note": 66,
      "start": 18.9259,
      "duration": 0.2095,
      "velocity": 127,
      "chip": "ym2612"
    },
    {
      "channel": 2,
      "note": 84,
      "start": 18.9309,
      "duration": 0.0954,
      "velocity": 115,
      "chip": "ym2612"
    },
    {
      "channel": 0,
      "note": 66,
      "start": 18.9336,
      "duration": 0.101,
      "velocity": 93,
      "chip": "ym2612"
    },
    {
      "channel": 4,
      "note": 48,
      "start": 18.9404,
      "duration": 0.2056,
      "velocity": 113,
      "chip": "ym2612"
    },
    {
      "channel": 2,
      "note": 72,
      "start": 19.0269,
      "duration": 0.1046,
      "velocity": 115,
      "chip": "ym2612"
    },
    {
      "channel": 1,
      "note": 72,
      "start": 19.0292,
      "duration": 0.31,
      "velocity": 106,
      "chip": "ym2612"
    },
    {
      "channel": 0,
      "note": 66,
      "start": 19.0352,
      "duration": 0.1063,
      "velocity": 93,
      "chip": "ym2612"
    },
    {
      "channel": 2,
      "note": 72,
      "start": 19.1322,
      "duration": 0.1054,
      "velocity": 115,
      "chip": "ym2612"
    },
    {
      "channel": 0,
      "note": 66,
      "start": 19.1421,
      "duration": 0.0982,
      "velocity": 93,
      "chip": "ym2612"
    },
    {
      "channel": 4,
      "note": 48,
      "start": 19.1466,
      "duration": 0.0882,
      "velocity": 113,
      "chip": "ym2612"
    },
    {
      "channel": 5,
      "note": 66,
      "start": 19.1511,
      "duration": 0.0964,
      "velocity": 127,
      "chip": "ym2612"
    },
    {
      "channel": 4,
      "note": 48,
      "start": 19.2355,
      "duration": 0.1168,
      "velocity": 113,
      "chip": "ym2612"
    },
    {
      "channel": 2,
      "note": 84,
      "start": 19.2383,
      "duration": 0.0987,
      "velocity": 115,
      "chip": "ym2612"
    },
    {
      "channel": 0,
      "note": 66,
      "start": 19.241,
      "duration": 0.1065,
      "velocity": 93,
      "chip": "ym2612"
    },
    {
      "channel": 5,
      "note": 66,
      "start": 19.2482,
      "duration": 0.1018,
      "velocity": 127,
      "chip": "ym2612"
    },
    {
      "channel": 2,
      "note": 72,
      "start": 19.3376,
      "duration": 0.1076,
      "velocity": 115,
      "chip": "ym2612"
    },
    {
      "channel": 1,
      "note": 75,
      "start": 19.3398,
      "duration": 0.0994,
      "velocity": 106,
      "chip": "ym2612"
    },
    {
      "channel": 0,
      "note": 66,
      "start": 19.3481,
      "duration": 0.0997,
      "velocity": 93,
      "chip": "ym2612"
    },
    {
      "channel": 5,
      "note": 66,
      "start": 19.3507,
      "duration": 0.1043,
      "velocity": 127,
      "chip": "ym2612"
    },
    {
      "channel": 4,
      "note": 48,
      "start": 19.3529,
      "duration": 0.1994,
      "velocity": 113,
      "chip": "ym2612"
    },
    {
      "channel": 1,
      "note": 77,
      "start": 19.4399,
      "duration": 0.1069,
      "velocity": 106,
      "chip": "ym2612"
    },
    {
      "channel": 2,
      "note": 72,
      "start": 19.4457,
      "duration": 0.0988,
      "velocity": 115,
      "chip": "ym2612"
    },
    {
      "channel": 0,
      "note": 66,
      "start": 19.4484,
      "duration": 0.1077,
      "velocity": 93,
      "chip": "ym2612"
    },
    {
      "channel": 5,
      "note": 66,
      "start": 19.4556,
      "duration": 0.1031,
      "velocity": 127,
      "chip": "ym2612"
    },
    {
      "channel": 2,
      "note": 84,
      "start": 19.5451,
      "duration": 0.0999,
      "velocity": 115,
      "chip": "ym2612"
    },
    {
      "channel": 1,
      "note": 70,
      "start": 19.5474,
      "duration": 0.2235,
      "velocity": 106,
      "chip": "ym2612"
    },
    {
      "channel": 4,
      "note": 48,
      "start": 19.553,
      "duration": 0.0893,
      "velocity": 113,
      "chip": "ym2612"
    },
    {
      "channel": 0,
      "note": 66,
      "start": 19.5568,
      "duration": 0.0955,
      "velocity": 93,
      "chip": "ym2612"
    },
    {
      "channel": 5,
      "note": 66,
      "start": 19.5593,
      "duration": 0.1992,
      "velocity": 127,
      "chip": "ym2612"
    },
    {
      "channel": 4,
      "note": 48,
      "start": 19.643,
      "duration": 0.1333,
      "velocity": 113,
      "chip": "ym2612"
    },
    {
      "channel": 2,
      "note": 72,
      "start": 19.6456,
      "duration": 0.1333,
      "velocity": 115,
      "chip": "ym2612"
    },
    {
      "channel": 0,
      "note": 66,
      "start": 19.6529,
      "duration": 0.1033,
      "velocity": 93,
      "chip": "ym2612"
    },
    {
      "channel": 3,
      "note": 50,
      "start": 19.7524,
      "duration": 3.2859,
      "velocity": 97,
      "chip": "ym2612"
    },
    {
      "channel": 0,
      "note": 66,
      "start": 19.7568,
      "duration": 0.0987,
      "velocity": 93,
      "chip": "ym2612"
    },
    {
      "channel": 1,
      "note": 74,
      "start": 19.7715,
      "duration": 0.2842,
      "velocity": 106,
      "chip": "ym2612"
    },
    {
      "channel": 5,
      "note": 66,
      "start": 19.7746,
      "duration": 0.1789,
      "velocity": 127,
      "chip": "ym2612"
    },
    {
      "channel": 4,
      "note": 50,
      "start": 19.7769,
      "duration": 0.1856,
      "velocity": 113,
      "chip": "ym2612"
    },
    {
      "channel": 2,
      "note": 74,
      "start": 19.7796,
      "duration": 0.0695,
      "velocity": 115,
      "chip": "ym2612"
    },
    {
      "channel": 2,
      "note": 74,
      "start": 19.8496,
      "duration": 0.0998,
      "velocity": 115,
      "chip": "ym2612"
    },
    {
      "channel": 0,
      "note": 66,
      "start": 19.8561,
      "duration": 0.1033,
      "velocity": 93,
      "chip": "ym2612"
    },
    {
      "channel": 2,
      "note": 86,
      "start": 19.9501,
      "duration": 0.1125,
      "velocity": 115,
      "chip": "ym2612"
    },
    {
      "channel": 5,
      "note": 66,
      "start": 19.9541,
      "duration": 0.2039,
      "velocity": 127,
      "chip": "ym2612"
    },
    {
      "channel": 0,
      "note": 66,
      "start": 19.9601,
      "duration": 0.1052,
      "velocity": 93,
      "chip": "ym2612"
    },
    {
      "channel": 4,
      "note": 50,
      "start": 19.9631,
      "duration": 0.0967,
      "velocity": 113,
      "chip": "ym2612"
    },
    {
      "channel": 1,
      "note": 79,
      "start": 20.0563,
      "duration": 0.3073,
      "velocity": 106,
      "chip": "ym2612"
    },
    {
      "channel": 4,
      "note": 50,
      "start": 20.0604,
      "duration": 0.1159,
      "velocity": 113,
      "chip": "ym2612"
    },
    {
      "channel": 2,
      "note": 74,
      "start": 20.0632,
      "duration": 0.1001,
      "velocity": 115,
      "chip": "ym2612"
    },
    {
      "channel": 0,
      "note": 66,
      "start": 20.0659,
      "duration": 0.1001,
      "velocity": 93,
      "chip": "ym2612"
    },
    {
      "channel": 2,
      "note": 74,
      "start": 20.1639,
      "duration": 0.0957,
      "velocity": 115,
      "chip": "ym2612"
    },
    {
      "channel": 0,
      "note": 66,
      "start": 20.1667,
      "duration": 0.0994,
      "velocity": 93,
      "chip": "ym2612"
    },
    {
      "channel": 5,
      "note": 66,
      "start": 20.1746,
      "duration": 0.1924,
      "velocity": 127,
      "chip": "ym2612"
    },
    {
      "channel": 4,
      "note": 50,
      "start": 20.1769,
      "duration": 0.2027,
      "velocity": 113,
      "chip": "ym2612"
    },
    {
      "channel": 2,
      "note": 86,
      "start": 20.2603,
      "duration": 0.1118,
      "velocity": 115,
      "chip": "ym2612"
    },
    {
      "channel": 0,
      "note": 66,
      "start": 20.2668,
      "duration": 0.1081,
      "velocity": 93,
      "chip": "ym2612"
    },
    {
      "channel": 1,
      "note": 81,
      "start": 20.3643,
      "duration": 0.3116,
      "velocity": 106,
      "chip": "ym2612"
    },
    {
      "channel": 2,
      "note": 74,
      "start": 20.3727,
      "duration": 0.0921,
      "velocity": 115,
      "chip": "ym2612"
    },
    {
      "channel": 0,
      "note": 66,
      "start": 20.3755,
      "duration": 0.0976,
      "velocity": 93,
      "chip": "ym2612"
    },
    {
      "channel": 4,
      "note": 50,
      "start": 20.3802,
      "duration": 0.0893,
      "velocity": 113,
      "chip": "ym2612"
    },
    {
      "channel": 5,
      "note": 66,
      "start": 20.3847,
      "duration": 0.1882,
      "velocity": 127,
      "chip": "ym2612"
    },
    {
      "channel": 2,
      "note": 74,
      "start": 20.4655,
      "duration": 0.1033,
      "velocity": 115,
      "chip": "ym2612"
    },
    {
      "channel": 4,
      "note": 50,
      "start": 20.4701,
      "duration": 0.1108,
      "velocity": 113,
      "chip": "ym2612"
    },
    {
      "channel": 0,
      "note": 66,
      "start": 20.4738,
      "duration": 0.1041,
      "velocity": 93,
      "chip": "ym2612"
    },
    {
      "channel": 2,
      "note": 86,
      "start": 20.5694,
      "duration": 0.1042,
      "velocity": 115,
      "chip": "ym2612"
    },
    {
      "channel": 5,
      "note": 66,
      "start": 20.5736,
      "duration": 0.203,
      "velocity": 127,
      "chip": "ym2612"
    },
    {
      "channel": 0,
      "note": 66,
      "start": 20.5785,
      "duration": 0.1035,
      "velocity": 93,
      "chip": "ym2612"
    },
    {
      "channel": 4,
      "note": 50,
      "start": 20.5815,
      "duration": 0.2057,
      "velocity": 113,
      "chip": "ym2612"
    },
    {
      "channel": 2,
      "note": 74,
      "start": 20.6743,
      "duration": 0.0985,
      "velocity": 115,
      "chip": "ym2612"
    },
    {
      "channel": 1,
      "note": 74,
      "start": 20.6765,
      "duration": 0.3101,
      "velocity": 106,
      "chip": "ym2612"
    },
    {
      "channel": 0,
      "note": 66,
      "start": 20.6825,
      "duration": 0.1002,
      "velocity": 93,
      "chip": "ym2612"
    },
    {
      "channel": 2,
      "note": 74,
      "start": 20.7734,
      "duration": 0.1048,
      "velocity": 115,
      "chip": "ym2612"
    },
    {
      "channel": 0,
      "note": 66,
      "start": 20.7834,
      "duration": 0.1028,
      "velocity": 93,
      "chip": "ym2612"
    },
    {
      "channel": 4,
      "note": 50,
      "start": 20.7879,
      "duration": 0.0875,
      "velocity": 113,
      "chip": "ym2612"
    },
    {
      "channel": 5,
      "note": 66,
      "start": 20.7923,
      "duration": 0.0964,
      "velocity": 127,
      "chip": "ym2612"
    },
    {
      "channel": 4,
      "note": 50,
      "start": 20.876,
      "duration": 0.1237,
      "velocity": 113,
      "chip": "ym2612"
    },
    {
      "channel": 2,
      "note": 86,
      "start": 20.8788,
      "duration": 0.1055,
      "velocity": 115,
      "chip": "ym2612"
    },
    {
      "channel": 0,
      "note": 66,
      "start": 20.8868,
      "duration": 0.1081,
      "velocity": 93,
      "chip": "ym2612"
    },
    {
      "channel": 5,
      "note": 66,
      "start": 20.8893,
      "duration": 0.1081,
      "velocity": 127,
      "chip": "ym2612"
    },
    {
      "channel": 2,
      "note": 74,
      "start": 20.9849,
      "duration": 0.0996,
      "velocity": 115,
      "chip": "ym2612"
    },
    {
      "channel": 1,
      "note": 79,
      "start": 20.9872,
      "duration": 0.0996,
      "velocity": 106,
      "chip": "ym2612"
    },
    {
      "channel": 0,
      "note": 66,
      "start": 20.9955,
      "duration": 0.0935,
      "velocity": 93,
      "chip": "ym2612"
    },
    {
      "channel": 5,
      "note": 66,
      "start": 20.998,
      "duration": 0.0982,
      "velocity": 127,
      "chip": "ym2612"
    },
    {
      "channel": 4,
      "note": 50,
      "start": 21.0003,
      "duration": 0.1917,
      "velocity": 113,
      "chip": "ym2612"
    },
    {
      "channel": 2,
      "note": 74,
      "start": 21.0851,
      "duration": 0.0997,
      "velocity": 115,
      "chip": "ym2612"
    },
    {
      "channel": 1,
      "note": 81,
      "start": 21.0874,
      "duration": 0.0997,
      "velocity": 106,
      "chip": "ym2612"
    },
    {
      "channel": 0,
      "note": 66,
      "start": 21.0897,
      "duration": 0.106,
      "velocity": 93,
      "chip": "ym2612"
    },
    {
      "channel": 5,
      "note": 66,
      "start": 21.0968,
      "duration": 0.106,
      "velocity": 127,
      "chip": "ym2612"
    },
    {
      "channel": 2,
      "note": 86,
      "start": 21.1855,
      "duration": 0.1068,
      "velocity": 115,
      "chip": "ym2612"
    },
    {
      "channel": 1,
      "note": 86,
      "start": 21.1878,
      "duration": 0.212,
      "velocity": 106,
      "chip": "ym2612"
    },
    {
      "channel": 4,
      "note": 50,
      "start": 21.1927,
      "duration": 0.0969,
      "velocity": 113,
      "chip": "ym2612"
    },
    {
      "channel": 0,
      "note": 66,
      "start": 21.1963,
      "duration": 0.1032,
      "velocity": 93,
      "chip": "ym2612"
    },
    {
      "channel": 5,
      "note": 66,
      "start": 21.2035,
      "duration": 0.2008,
      "velocity": 127,
      "chip": "ym2612"
    },
    {
      "channel": 4,
      "note": 50,
      "start": 21.2902,
      "duration": 0.124,
      "velocity": 113,
      "chip": "ym2612"
    },
    {
      "channel": 2,
      "note": 74,
      "start": 21.293,
      "duration": 0.1156,
      "velocity": 115,
      "chip": "ym2612"
    },
    {
      "channel": 0,
      "note": 66,
      "start": 21.3002,
      "duration": 0.1018,
      "velocity": 93,
      "chip": "ym2612"
    },
    {
      "channel": 1,
      "note": 74,
      "start": 21.4004,
      "duration": 0.3031,
      "velocity": 106,
      "chip": "ym2612"
    },
    {
      "channel": 0,
      "note": 66,
      "start": 21.4026,
      "duration": 0.094,
      "velocity": 93,
      "chip": "ym2612"
    },
    {
      "channel": 2,
      "note": 74,
      "start": 21.4092,
      "duration": 0.0847,
      "velocity": 115,
      "chip": "ym2612"
    },
    {
      "channel": 4,
      "note": 38,
      "start": 21.4149,
      "duration": 0.1949,
      "velocity": 113,
      "chip": "ym2612"
    },
    {
      "channel": 5,
      "note": 66,
      "start": 21.4193,
      "duration": 0.1816,
      "velocity": 127,
      "chip": "ym2612"
    },
    {
      "channel": 2,
      "note": 74,
      "start": 21.4945,
      "duration": 0.1023,
      "velocity": 115,
      "chip": "ym2612"
    },
    {
      "channel": 0,
      "note": 66,
      "start": 21.4972,
      "duration": 0.1095,
      "velocity": 93,
      "chip": "ym2612"
    },
    {
      "channel": 2,
      "note": 86,
      "start": 21.5974,
      "duration": 0.1038,
      "velocity": 115,
      "chip": "ym2612"
    },
    {
      "channel": 5,
      "note": 66,
      "start": 21.6015,
      "duration": 0.1971,
      "velocity": 127,
      "chip": "ym2612"
    },
    {
      "channel": 0,
      "note": 66,
      "start": 21.6074,
      "duration": 0.102,
      "velocity": 93,
      "chip": "ym2612"
    },
    {
      "channel": 4,
      "note": 38,
      "start": 21.6104,
      "duration": 0.088,
      "velocity": 113,
      "chip": "ym2612"
    },
    {
      "channel": 4,
      "note": 38,
      "start": 21.6991,
      "duration": 0.1182,
      "velocity": 113,
      "chip": "ym2612"
    },
    {
      "channel": 2,
      "note": 74,
      "start": 21.7018,
      "duration": 0.1019,
      "velocity": 115,
      "chip": "ym2612"
    },
    {
      "channel": 1,
      "note": 79,
      "start": 21.7041,
      "duration": 0.309,
      "velocity": 106,
      "chip": "ym2612"
    },
    {
      "channel": 0,
      "note": 66,
      "start": 21.7101,
      "duration": 0.1024,
      "velocity": 93,
      "chip": "ym2612"
    },
    {
      "channel": 2,
      "note": 74,
      "start": 21.8044,
      "duration": 0.1032,
      "velocity": 115,
      "chip": "ym2612"
    },
    {
      "channel": 0,
      "note": 66,
      "start": 21.8131,
      "duration": 0.0973,
      "velocity": 93,
      "chip": "ym2612"
    },
    {
      "channel": 5,
      "note": 66,
      "start": 21.8157,
      "duration": 0.19,
      "velocity": 127,
      "chip": "ym2612"
    },
    {
      "channel": 4,
      "note": 38,
      "start": 21.8179,
      "duration": 0.201,
      "velocity": 113,
      "chip": "ym2612"
    },
    {
      "channel": 2,
      "note": 86,
      "start": 21.9082,
      "duration": 0.1027,
      "velocity": 115,
      "chip": "ym2612"
    },
    {
      "channel": 0,
      "note": 66,
      "start": 21.911,
      "duration": 0.1116,
      "velocity": 93,
      "chip": "ym2612"
    },
    {
      "channel": 2,
      "note": 74,
      "start": 22.0114,
      "duration": 0.1001,
      "velocity": 115,
      "chip": "ym2612"
    },
    {
      "channel": 1,
      "note": 81,
      "start": 22.0137,
      "duration": 0.3031,
      "velocity": 106,
      "chip": "ym2612"
    },
    {
      "channel": 4,
      "note": 38,
      "start": 22.0195,
      "duration": 0.0892,
      "velocity": 113,
      "chip": "ym2612"
    },
    {
      "channel": 0,
      "note": 66,
      "start": 22.0232,
      "duration": 0.091,
      "velocity": 93,
      "chip": "ym2612"
    },
    {
      "channel": 5,
      "note": 66,
      "start": 22.0258,
      "duration": 0.1872,
      "velocity": 127,
      "chip": "ym2612"
    },
    {
      "channel": 4,
      "note": 38,
      "start": 22.1094,
      "duration": 0.1188,
      "velocity": 113,
      "chip": "ym2612"
    },
    {
      "channel": 2,
      "note": 74,
      "start": 22.1121,
      "duration": 0.1058,
      "velocity": 115,
      "chip": "ym2612"
    },
    {
      "channel": 0,
      "note": 66,
      "start": 22.1149,
      "duration": 0.1102,
      "velocity": 93,
      "chip": "ym2612"
    },
    {
      "channel": 5,
      "note": 66,
      "start": 22.2136,
      "duration": 0.2015,
      "velocity": 127,
      "chip": "ym2612"
    },
    {
      "channel": 2,
      "note": 86,
      "start": 22.2185,
      "duration": 0.0961,
      "velocity": 115,
      "chip": "ym2612"
    },
    {
      "channel": 0,
      "note": 66,
      "start": 22.2257,
      "duration": 0.0971,
      "velocity": 93,
      "chip": "ym2612"
    },
    {
      "channel": 4,
      "note": 38,
      "start": 22.2288,
      "duration": 0.1975,
      "velocity": 113,
      "chip": "ym2612"
    },
    {
      "channel": 2,
      "note": 74,
      "start": 22.3152,
      "duration": 0.1049,
      "velocity": 115,
      "chip": "ym2612"
    },
    {
      "channel": 1,
      "note": 74,
      "start": 22.3175,
      "duration": 0.3093,
      "velocity": 106,
      "chip": "ym2612"
    },
    {
      "channel": 0,
      "note": 66,
      "start": 22.3235,
      "duration": 0.1066,
      "velocity": 93,
      "chip": "ym2612"
    },
    {
      "channel": 2,
      "note": 74,
      "start": 22.4208,
      "duration": 0.1045,
      "velocity": 115,
      "chip": "ym2612"
    },
    {
      "channel": 4,
      "note": 38,
      "start": 22.4269,
      "duration": 0.0956,
      "velocity": 113,
      "chip": "ym2612"
    },
    {
      "channel": 0,
      "note": 66,
      "start": 22.4306,
      "duration": 0.1027,
      "velocity": 93,
      "chip": "ym2612"
    },
    {
      "channel": 5,
      "note": 66,
      "start": 22.4332,
      "duration": 0.1027,
      "velocity": 127,
      "chip": "ym2612"
    },
    {
      "channel": 4,
      "note": 38,
      "start": 22.5232,
      "duration": 0.1156,
      "velocity": 113,
      "chip": "ym2612"
    },
    {
      "channel": 2,
      "note": 86,
      "start": 22.5259,
      "duration": 0.0987,
      "velocity": 115,
      "chip": "ym2612"
    },
    {
      "channel": 0,
      "note": 66,
      "start": 22.5339,
      "duration": 0.1004,
      "velocity": 93,
      "chip": "ym2612"
    },
    {
      "channel": 5,
      "note": 66,
      "start": 22.5365,
      "duration": 0.1068,
      "velocity": 127,
      "chip": "ym2612"
    },
    {
      "channel": 2,
      "note": 74,
      "start": 22.6251,
      "duration": 0.0989,
      "velocity": 115,
      "chip": "ym2612"
    },
    {
      "channel": 1,
      "note": 79,
      "start": 22.6274,
      "duration": 0.0989,
      "velocity": 106,
      "chip": "ym2612"
    },
    {
      "channel": 0,
      "note": 66,
      "start": 22.6349,
      "duration": 0.0982,
      "velocity": 93,
      "chip": "ym2612"
    },
    {
      "channel": 4,
      "note": 38,
      "start": 22.6395,
      "duration": 0.2013,
      "velocity": 113,
      "chip": "ym2612"
    },
    {
      "channel": 5,
      "note": 66,
      "start": 22.6439,
      "duration": 0.0963,
      "velocity": 127,
      "chip": "ym2612"
    },
    {
      "channel": 2,
      "note": 74,
      "start": 22.7247,
      "duration": 0.1081,
      "velocity": 115,
      "chip": "ym2612"
    },
    {
      "channel": 1,
      "note": 81,
      "start": 22.7269,
      "duration": 0.1081,
      "velocity": 106,
      "chip": "ym2612"
    },
    {
      "channel": 0,
      "note": 66,
      "start": 22.7337,
      "duration": 0.1107,
      "velocity": 93,
      "chip": "ym2612"
    },
    {
      "channel": 5,
      "note": 66,
      "start": 22.7409,
      "duration": 0.1061,
      "velocity": 127,
      "chip": "ym2612"
    },
    {
      "channel": 2,
      "note": 86,
      "start": 22.8334,
      "duration": 0.0975,
      "velocity": 115,
      "chip": "ym2612"
    },
    {
      "channel": 1,
      "note": 86,
      "start": 22.8357,
      "duration": 0.206,
      "velocity": 106,
      "chip": "ym2612"
    },
    {
      "channel": 4,
      "note": 38,
      "start": 22.8414,
      "duration": 0.0948,
      "velocity": 113,
      "chip": "ym2612"
    },
    {
      "channel": 0,
      "note": 66,
      "start": 22.8451,
      "duration": 0.0948,
      "velocity": 93,
      "chip": "ym2612"
    },
    {
      "channel": 5,
      "note": 66,
      "start": 22.8476,
      "duration": 0.1987,
      "velocity": 127,
      "chip": "ym2612"
    },
    {
      "channel": 2,
      "note": 74,
      "start": 22.9315,
      "duration": 0.1252,
      "velocity": 115,
      "chip": "ym2612"
    },
    {
      "channel": 4,
      "note": 38,
      "start": 22.9368,
      "duration": 0.1256,
      "velocity": 113,
      "chip": "ym2612"
    },
    {
      "channel": 0,
      "note": 66,
      "start": 22.9405,
      "duration": 0.1034,
      "velocity": 93,
      "chip": "ym2612"
    },
    {
      "channel": 3,
      "note": 45,
      "start": 23.0389,
      "duration": 1.6471,
      "velocity": 97,
      "chip": "ym2612"
    },
    {
      "channel": 1,
      "note": 69,
      "start": 23.0423,
      "duration": 0.2996,
      "velocity": 106,
      "chip": "ym2612"
    },
    {
      "channel": 0,
      "note": 66,
      "start": 23.0446,
      "duration": 0.0985,
      "velocity": 93,
      "chip": "ym2612"
    },
    {
      "channel": 2,
      "note": 69,
      "start": 23.0573,
      "duration": 0.0829,
      "velocity": 115,
      "chip": "ym2612"
    },
    {
      "channel": 5,
      "note": 66,
      "start": 23.0608,
      "duration": 0.1779,
      "velocity": 127,
      "chip": "ym2612"
    },
    {
      "channel": 4,
      "note": 45,
      "start": 23.0631,
      "duration": 0.1851,
      "velocity": 113,
      "chip": "ym2612"
    },
    {
      "channel": 2,
      "note": 69,
      "start": 23.1409,
      "duration": 0.1027,
      "velocity": 115,
      "chip": "ym2612"
    },
    {
      "channel": 0,
      "note": 66,
      "start": 23.1437,
      "duration": 0.1082,
      "velocity": 93,
      "chip": "ym2612"
    },
    {
      "channel": 5,
      "note": 66,
      "start": 23.2393,
      "duration": 0.2058,
      "velocity": 127,
      "chip": "ym2612"
    },
    {
      "channel": 2,
      "note": 81,
      "start": 23.2442,
      "duration": 0.0954,
      "velocity": 115,
      "chip": "ym2612"
    },
    {
      "channel": 4,
      "note": 45,
      "start": 23.2488,
      "duration": 0.0972,
      "velocity": 113,
      "chip": "ym2612"
    },
    {
      "channel": 0,
      "note": 66,
      "start": 23.2525,
      "duration": 0.0973,
      "velocity": 93,
      "chip": "ym2612"
    },
    {
      "channel": 2,
      "note": 69,
      "start": 23.3403,
      "duration": 0.1099,
      "velocity": 115,
      "chip": "ym2612"
    },
    {
      "channel": 1,
      "note": 72,
      "start": 23.3425,
      "duration": 0.3074,
      "velocity": 106,
      "chip": "ym2612"
    },
    {
      "channel": 4,
      "note": 45,
      "start": 23.3466,
      "duration": 0.1171,
      "velocity": 113,
      "chip": "ym2612"
    },
    {
      "channel": 0,
      "note": 66,
      "start": 23.3503,
      "duration": 0.1086,
      "velocity": 93,
      "chip": "ym2612"
    },
    {
      "channel": 2,
      "note": 69,
      "start": 23.4509,
      "duration": 0.0964,
      "velocity": 115,
      "chip": "ym2612"
    },
    {
      "channel": 0,
      "note": 66,
      "start": 23.4596,
      "duration": 0.0941,
      "velocity": 93,
      "chip": "ym2612"
    },
    {
      "channel": 5,
      "note": 66,
      "start": 23.4621,
      "duration": 0.1912,
      "velocity": 127,
      "chip": "ym2612"
    },
    {
      "channel": 4,
      "note": 45,
      "start": 23.4644,
      "duration": 0.1997,
      "velocity": 113,
      "chip": "ym2612"
    },
    {
      "channel": 2,
      "note": 81,
      "start": 23.5479,
      "duration": 0.0998,
      "velocity": 115,
      "chip": "ym2612"
    },
    {
      "channel": 0,
      "note": 66,
      "start": 23.5544,
      "duration": 0.105,
      "velocity": 93,
      "chip": "ym2612"
    },
    {
      "channel": 2,
      "note": 69,
      "start": 23.6483,
      "duration": 0.109,
      "velocity": 115,
      "chip": "ym2612"
    },
    {
      "channel": 1,
      "note": 74,
      "start": 23.6505,
      "duration": 0.3105,
      "velocity": 106,
      "chip": "ym2612"
    },
    {
      "channel": 0,
      "note": 66,
      "start": 23.66,
      "duration": 0.1039,
      "velocity": 93,
      "chip": "ym2612"
    },
    {
      "channel": 4,
      "note": 45,
      "start": 23.6647,
      "duration": 0.0899,
      "velocity": 113,
      "chip": "ym2612"
    },
    {
      "channel": 5,
      "note": 66,
      "start": 23.6692,
      "duration": 0.1896,
      "velocity": 127,
      "chip": "ym2612"
    },
    {
      "channel": 4,
      "note": 45,
      "start": 23.7552,
      "duration": 0.1163,
      "velocity": 113,
      "chip": "ym2612"
    },
    {
      "channel": 2,
      "note": 69,
      "start": 23.758,
      "duration": 0.0968,
      "velocity": 115,
      "chip": "ym2612"
    },
    {
      "channel": 0,
      "note": 66,
      "start": 23.7645,
      "duration": 0.1002,
      "velocity": 93,
      "chip": "ym2612"
    },
    {
      "channel": 2,
      "note": 81,
      "start": 23.8553,
      "duration": 0.1034,
      "velocity": 115,
      "chip": "ym2612"
    },
    {
      "channel": 5,
      "note": 66,
      "start": 23.8594,
      "duration": 0.2023,
      "velocity": 127,
      "chip": "ym2612"
    },
    {
      "channel": 0,
      "note": 66,
      "start": 23.8654,
      "duration": 0.0979,
      "velocity": 93,
      "chip": "ym2612"
    },
    {
      "channel": 4,
      "note": 45,
      "start": 23.8722,
      "duration": 0.2008,
      "velocity": 113,
      "chip": "ym2612"
    },
    {
      "channel": 2,
      "note": 69,
      "start": 23.9594,
      "duration": 0.1075,
      "velocity": 115,
      "chip": "ym2612"
    },
    {
      "channel": 1,
      "note": 69,
      "start": 23.9617,
      "duration": 0.31,
      "velocity": 106,
      "chip": "ym2612"
    },
    {
      "channel": 0,
      "note": 66,
      "start": 23.9639,
      "duration": 0.1128,
      "velocity": 93,
      "chip": "ym2612"
    },
    {
      "channel": 2,
      "note": 69,
      "start": 24.0675,
      "duration": 0.0956,
      "velocity": 115,
      "chip": "ym2612"
    },
    {
      "channel": 4,
      "note": 45,
      "start": 24.0736,
      "duration": 0.095,
      "velocity": 113,
      "chip": "ym2612"
    },
    {
      "channel": 0,
      "note": 66,
      "start": 24.0773,
      "duration": 0.0948,
      "velocity": 93,
      "chip": "ym2612"
    },
    {
      "channel": 5,
      "note": 66,
      "start": 24.0798,
      "duration": 0.0995,
      "velocity": 127,
      "chip": "ym2612"
    },
    {
      "channel": 2,
      "note": 81,
      "start": 24.1637,
      "duration": 0.1057,
      "velocity": 115,
      "chip": "ym2612"
    },
    {
      "channel": 4,
      "note": 45,
      "start": 24.1692,
      "duration": 0.1149,
      "velocity": 113,
      "chip": "ym2612"
    },
    {
      "channel": 0,
      "note": 66,
      "start": 24.1728,
      "duration": 0.1012,
      "velocity": 93,
      "chip": "ym2612"
    },
    {
      "channel": 5,
      "note": 66,
      "start": 24.18,
      "duration": 0.1019,
      "velocity": 127,
      "chip": "ym2612"
    },
    {
      "channel": 2,
      "note": 69,
      "start": 24.2701,
      "duration": 0.1006,
      "velocity": 115,
      "chip": "ym2612"
    },
    {
      "channel": 1,
      "note": 72,
      "start": 24.2723,
      "duration": 0.1006,
      "velocity": 106,
      "chip": "ym2612"
    },
    {
      "channel": 0,
      "note": 66,
      "start": 24.2746,
      "duration": 0.1051,
      "velocity": 93,
      "chip": "ym2612"
    },
    {
      "channel": 5,
      "note": 66,
      "start": 24.2825,
      "duration": 0.1043,
      "velocity": 127,
      "chip": "ym2612"
    },
    {
      "channel": 4,
      "note": 45,
      "start": 24.2848,
      "duration": 0.2012,
      "velocity": 113,
      "chip": "ym2612"
    },
    {
      "channel": 2,
      "note": 69,
      "start": 24.3713,
      "duration": 0.1074,
      "velocity": 115,
      "chip": "ym2612"
    },
    {
      "channel": 1,
      "note": 74,
      "start": 24.3735,
      "duration": 0.0977,
      "velocity": 106,
      "chip": "ym2612"
    },
    {
      "channel": 0,
      "note": 66,
      "start": 24.3803,
      "duration": 0.1012,
      "velocity": 93,
      "chip": "ym2612"
    },
    {
      "channel": 5,
      "note": 66,
      "start": 24.3874,
      "duration": 0.103,
      "velocity": 127,
      "chip": "ym2612"
    },
    {
      "channel": 1,
      "note": 67,
      "start": 24.4718,
      "duration": 0.2072,
      "velocity": 106,
      "chip": "ym2612"
    },
    {
      "channel": 2,
      "note": 81,
      "start": 24.4793,
      "duration": 0.0982,
      "velocity": 115,
      "chip": "ym2612"
    },
    {
      "channel": 0,
      "note": 66,
      "start": 24.4821,
      "duration": 0.0981,
      "velocity": 93,
      "chip": "ym2612"
    },
    {
      "channel": 4,
      "note": 45,
      "start": 24.4866,
      "duration": 0.0881,
      "velocity": 113,
      "chip": "ym2612"
    },
    {
      "channel": 5,
      "note": 66,
      "start": 24.4911,
      "duration": 0.2012,
      "velocity": 127,
      "chip": "ym2612"
    },
    {
      "channel": 4,
      "note": 45,
      "start": 24.5754,
      "duration": 0.1267,
      "velocity": 113,
      "chip": "ym2612"
    },
    {
      "channel": 2,
      "note": 69,
      "start": 24.5781,
      "duration": 0.1182,
      "velocity": 115,
      "chip": "ym2612"
    },
    {
      "channel": 0,
      "note": 66,
      "start": 24.5808,
      "duration": 0.1092,
      "velocity": 93,
      "chip": "ym2612"
    },
    {
      "channel": 1,
      "note": 91,
      "start": 24.6797,
      "duration": 0.1036,
      "velocity": 106,
      "chip": "ym2612"
    },
    {
      "channel": 3,
      "note": 55,
      "start": 24.6866,
      "duration": 0.302,
      "velocity": 97,
      "chip": "ym2612"
    },
    {
      "channel": 0,
      "note": 66,
      "start": 24.6906,
      "duration": 0.0987,
      "velocity": 93,
      "chip": "ym2612"
    },
    {
      "channel": 2,
      "note": 69,
      "start": 24.697,
      "duration": 0.0841,
      "velocity": 115,
      "chip": "ym2612"
    },
    {
      "channel": 4,
      "note": 55,
      "start": 24.7027,
      "duration": 0.2837,
      "velocity": 113,
      "chip": "ym2612"
    },
    {
      "channel": 5,
      "note": 66,
      "start": 24.7071,
      "duration": 0.1771,
      "velocity": 127,
      "chip": "ym2612"
    },
    {
      "channel": 2,
      "note": 69,
      "start": 24.7817,
      "duration": 0.1058,
      "velocity": 115,
      "chip": "ym2612"
    },
    {
      "channel": 1,
      "note": 79,
      "start": 24.7839,
      "duration": 0.0967,
      "velocity": 106,
      "chip": "ym2612"
    },
    {
      "channel": 0,
      "note": 66,
      "start": 24.79,
      "duration": 0.1003,
      "velocity": 93,
      "chip": "ym2612"
    },
    {
      "channel": 1,
      "note": 91,
      "start": 24.8813,
      "duration": 0.112,
      "velocity": 106,
      "chip": "ym2612"
    },
    {
      "channel": 5,
      "note": 66,
      "start": 24.8849,
      "duration": 0.2059,
      "velocity": 127,
      "chip": "ym2612"
    },
    {
      "channel": 2,
      "note": 81,
      "start": 24.8881,
      "duration": 0.1029,
      "velocity": 115,
      "chip": "ym2612"
    },
    {
      "channel": 0,
      "note": 66,
      "start": 24.8909,
      "duration": 0.1084,
      "velocity": 93,
      "chip": "ym2612"
    },
    {
      "channel": 4,
      "note": 54,
      "start": 24.987,
      "duration": 0.3102,
      "velocity": 113,
      "chip": "ym2612"
    },
    {
      "channel": 3,
      "note": 54,
      "start": 24.9893,
      "duration": 0.3102,
      "velocity": 97,
      "chip": "ym2612"
    },
    {
      "channel": 2,
      "note": 69,
      "start": 24.9916,
      "duration": 0.1026,
      "velocity": 115,
      "chip": "ym2612"
    },
    {
      "channel": 1,
      "note": 90,
      "start": 24.9939,
      "duration": 0.0936,
      "velocity": 106,
      "chip": "ym2612"
    },
    {
      "channel": 0,
      "note": 66,
      "start": 24.9999,
      "duration": 0.0971,
      "velocity": 93,
      "chip": "ym2612"
    },
    {
      "channel": 1,
      "note": 78,
      "start": 25.0881,
      "duration": 0.1004,
      "velocity": 106,
      "chip": "ym2612"
    },
    {
      "channel": 2,
      "note": 69,
      "start": 25.0949,
      "duration": 0.0987,
      "velocity": 115,
      "chip": "ym2612"
    },
    {
      "channel": 0,
      "note": 66,
      "start": 25.0976,
      "duration": 0.0987,
      "velocity": 93,
      "chip": "ym2612"
    },
    {
      "channel": 5,
      "note": 66,
      "start": 25.1047,
      "duration": 0.1899,
      "velocity": 127,
      "chip": "ym2612"
    },
    {
      "channel": 1,
      "note": 90,
      "start": 25.1891,
      "duration": 0.1149,
      "velocity": 106,
      "chip": "ym2612"
    },
    {
      "channel": 2,
      "note": 81,
      "start": 25.1942,
      "duration": 0.1076,
      "velocity": 115,
      "chip": "ym2612"
    },
    {
      "channel": 0,
      "note": 66,
      "start": 25.1969,
      "duration": 0.1148,
      "velocity": 93,
      "chip": "ym2612"
    },
    {
      "channel": 4,
      "note": 53,
      "start": 25.2978,
      "duration": 0.3056,
      "velocity": 113,
      "chip": "ym2612"
    },
    {
      "channel": 3,
      "note": 53,
      "start": 25.3002,
      "duration": 0.3055,
      "velocity": 97,
      "chip": "ym2612"
    },
    {
      "channel": 2,
      "note": 69,
      "start": 25.3024,
      "duration": 0.0983,
      "velocity": 115,
      "chip": "ym2612"
    },
    {
      "channel": 1,
      "note": 89,
      "start": 25.3047,
      "duration": 0.0909,
      "velocity": 106,
      "chip": "ym2612"
    },
    {
      "channel": 0,
      "note": 66,
      "start": 25.3124,
      "duration": 0.091,
      "velocity": 93,
      "chip": "ym2612"
    },
    {
      "channel": 5,
      "note": 66,
      "start": 25.3149,
      "duration": 0.1883,
      "velocity": 127,
      "chip": "ym2612"
    },
    {
      "channel": 1,
      "note": 77,
      "start": 25.3962,
      "duration": 0.1033,
      "velocity": 106,
      "chip": "ym2612"
    },
    {
      "channel": 2,
      "note": 69,
      "start": 25.4012,
      "duration": 0.0961,
      "velocity": 115,
      "chip": "ym2612"
    },
    {
      "channel": 0,
      "note": 66,
      "start": 25.404,
      "duration": 0.1034,
      "velocity": 93,
      "chip": "ym2612"
    },
    {
      "channel": 2,
      "note": 81,
      "start": 25.4979,
      "duration": 0.11,
      "velocity": 115,
      "chip": "ym2612"
    },
    {
      "channel": 1,
      "note": 89,
      "start": 25.5002,
      "duration": 0.11,
      "velocity": 106,
      "chip": "ym2612"
    },
    {
      "channel": 5,
      "note": 66,
      "start": 25.5038,
      "duration": 0.2057,
      "velocity": 127,
      "chip": "ym2612"
    },
    {
      "channel": 0,
      "note": 66,
      "start": 25.508,
      "duration": 0.1083,
      "velocity": 93,
      "chip": "ym2612"
    },
    {
      "channel": 4,
      "note": 52,
      "start": 25.604,
      "duration": 0.3163,
      "velocity": 113,
      "chip": "ym2612"
    },
    {
      "channel": 3,
      "note": 52,
      "start": 25.6063,
      "duration": 0.3046,
      "velocity": 97,
      "chip": "ym2612"
    },
    {
      "channel": 2,
      "note": 69,
      "start": 25.6086,
      "duration": 0.0954,
      "velocity": 115,
      "chip": "ym2612"
    },
    {
      "channel": 1,
      "note": 88,
      "start": 25.6108,
      "duration": 0.0954,
      "velocity": 106,
      "chip": "ym2612"
    },
    {
      "channel": 0,
      "note": 66,
      "start": 25.6169,
      "duration": 0.0971,
      "velocity": 93,
      "chip": "ym2612"
    },
    {
      "channel": 2,
      "note": 69,
      "start": 25.7046,
      "duration": 0.1005,
      "velocity": 115,
      "chip": "ym2612"
    },
    {
      "channel": 1,
      "note": 76,
      "start": 25.7068,
      "duration": 0.1005,
      "velocity": 106,
      "chip": "ym2612"
    },
    {
      "channel": 0,
      "note": 66,
      "start": 25.7146,
      "duration": 0.0995,
      "velocity": 93,
      "chip": "ym2612"
    },
    {
      "channel": 5,
      "note": 66,
      "start": 25.7217,
      "duration": 0.0995,
      "velocity": 127,
      "chip": "ym2612"
    },
    {
      "channel": 2,
      "note": 81,
      "start": 25.8056,
      "duration": 0.1076,
      "velocity": 115,
      "chip": "ym2612"
    },
    {
      "channel": 1,
      "note": 88,
      "start": 25.8079,
      "duration": 0.1076,
      "velocity": 106,
      "chip": "ym2612"
    },
    {
      "channel": 0,
      "note": 66,
      "start": 25.8147,
      "duration": 0.1093,
      "velocity": 93,
      "chip": "ym2612"
    },
    {
      "channel": 5,
      "note": 66,
      "start": 25.8219,
      "duration": 0.1093,
      "velocity": 127,
      "chip": "ym2612"
    },
    {
      "channel": 3,
      "note": 51,
      "start": 25.9115,
      "duration": 0.2063,
      "velocity": 97,
      "chip": "ym2612"
    },
    {
      "channel": 2,
      "note": 69,
      "start": 25.9138,
      "duration": 0.0982,
      "velocity": 115,
      "chip": "ym2612"
    },
    {
      "channel": 1,
      "note": 87,
      "start": 25.9161,
      "duration": 0.0981,
      "velocity": 106,
      "chip": "ym2612"
    },
    {
      "channel": 4,
      "note": 51,
      "start": 25.921,
      "duration": 0.1946,
      "velocity": 113,
      "chip": "ym2612"
    },
    {
      "channel": 0,
      "note": 66,
      "start": 25.9246,
      "duration": 0.0963,
      "velocity": 93,
      "chip": "ym2612"
    },
    {
      "channel": 5,
      "note": 66,
      "start": 25.9318,
      "duration": 0.0963,
      "velocity": 127,
      "chip": "ym2612"
    },
    {
      "channel": 2,
      "note": 69,
      "start": 26.0126,
      "duration": 0.1076,
      "velocity": 115,
      "chip": "ym2612"
    },
    {
      "channel": 1,
      "note": 75,
      "start": 26.0149,
      "duration": 0.1076,
      "velocity": 106,
      "chip": "ym2612"
    },
    {
      "channel": 0,
      "note": 66,
      "start": 26.0216,
      "duration": 0.1031,
      "velocity": 93,
      "chip": "ym2612"
    },
    {
      "channel": 5,
      "note": 66,
      "start": 26.0288,
      "duration": 0.1031,
      "velocity": 127,
      "chip": "ym2612"
    },
    {
      "channel": 4,
      "note": 48,
      "start": 26.1162,
      "duration": 0.2254,
      "velocity": 113,
      "chip": "ym2612"
    },
    {
      "channel": 3,
      "note": 48,
      "start": 26.1185,
      "duration": 0.2146,
      "velocity": 97,
      "chip": "ym2612"
    },
    {
      "channel": 2,
      "note": 81,
      "start": 26.1208,
      "duration": 0.0981,
      "velocity": 115,
      "chip": "ym2612"
    },
    {
      "channel": 1,
      "note": 84,
      "start": 26.1231,
      "duration": 0.0981,
      "velocity": 106,
      "chip": "ym2612"
    },
    {
      "channel": 0,
      "note": 66,
      "start": 26.1254,
      "duration": 0.1025,
      "velocity": 93,
      "chip": "ym2612"
    },
    {
      "channel": 5,
      "note": 66,
      "start": 26.1325,
      "duration": 0.197,
      "velocity": 127,
      "chip": "ym2612"
    },
    {
      "channel": 2,
      "note": 69,
      "start": 26.2195,
      "duration": 0.1412,
      "velocity": 115,
      "chip": "ym2612"
    },
    {
      "channel": 1,
      "note": 72,
      "start": 26.2218,
      "duration": 0.1144,
      "velocity": 106,
      "chip": "ym2612"
    },
    {
      "channel": 0,
      "note": 66,
      "start": 26.2285,
      "duration": 0.0987,
      "velocity": 93,
      "chip": "ym2612"
    },
    {
      "channel": 0,
      "note": 66,
      "start": 26.3278,
      "duration": 0.0988,
      "velocity": 93,
      "chip": "ym2612"
    },
    {
      "channel": 3,
      "note": 45,
      "start": 26.3338,
      "duration": 3.2796,
      "velocity": 97,
      "chip": "ym2612"
    },
    {
      "channel": 4,
      "note": 45,
      "start": 26.3423,
      "duration": 0.1975,
      "velocity": 113,
      "chip": "ym2612"
    },
    {
      "channel": 5,
      "note": 66,
      "start": 26.3488,
      "duration": 0.1802,
      "velocity": 127,
      "chip": "ym2612"
    },
    {
      "channel": 2,
      "note": 69,
      "start": 26.3613,
      "duration": 0.0625,
      "velocity": 115,
      "chip": "ym2612"
    },
    {
      "channel": 1,
      "note": 69,
      "start": 26.3636,
      "duration": 0.2698,
      "velocity": 100,
      "chip": "ym2612"
    },
    {
      "channel": 2,
      "note": 69,
      "start": 26.4245,
      "duration": 0.1095,
      "velocity": 115,
      "chip": "ym2612"
    },
    {
      "channel": 0,
      "note": 66,
      "start": 26.4273,
      "duration": 0.1095,
      "velocity": 93,
      "chip": "ym2612"
    },
    {
      "channel": 5,
      "note": 66,
      "start": 26.5297,
      "duration": 0.2061,
      "velocity": 127,
      "chip": "ym2612"
    },
    {
      "channel": 2,
      "note": 81,
      "start": 26.5346,
      "duration": 0.0965,
      "velocity": 115,
      "chip": "ym2612"
    },
    {
      "channel": 0,
      "note": 66,
      "start": 26.5374,
      "duration": 0.102,
      "velocity": 93,
      "chip": "ym2612"
    },
    {
      "channel": 4,
      "note": 45,
      "start": 26.5404,
      "duration": 0.0881,
      "velocity": 113,
      "chip": "ym2612"
    },
    {
      "channel": 4,
      "note": 45,
      "start": 26.629,
      "duration": 0.1164,
      "velocity": 113,
      "chip": "ym2612"
    },
    {
      "channel": 2,
      "note": 69,
      "start": 26.6318,
      "duration": 0.1002,
      "velocity": 115,
      "chip": "ym2612"
    },
    {
      "channel": 1,
      "note": 72,
      "start": 26.6341,
      "duration": 0.3073,
      "velocity": 100,
      "chip": "ym2612"
    },
    {
      "channel": 0,
      "note": 66,
      "start": 26.64,
      "duration": 0.1009,
      "velocity": 93,
      "chip": "ym2612"
    },
    {
      "channel": 2,
      "note": 69,
      "start": 26.7326,
      "duration": 0.1043,
      "velocity": 115,
      "chip": "ym2612"
    },
    {
      "channel": 0,
      "note": 66,
      "start": 26.7416,
      "duration": 0.1018,
      "velocity": 93,
      "chip": "ym2612"
    },
    {
      "channel": 4,
      "note": 45,
      "start": 26.7461,
      "duration": 0.2011,
      "velocity": 113,
      "chip": "ym2612"
    },
    {
      "channel": 5,
      "note": 66,
      "start": 26.7505,
      "duration": 0.1941,
      "velocity": 127,
      "chip": "ym2612"
    },
    {
      "channel": 2,
      "note": 81,
      "start": 26.8375,
      "duration": 0.1015,
      "velocity": 115,
      "chip": "ym2612"
    },
    {
      "channel": 0,
      "note": 66,
      "start": 26.844,
      "duration": 0.1069,
      "velocity": 93,
      "chip": "ym2612"
    },
    {
      "channel": 2,
      "note": 69,
      "start": 26.9397,
      "duration": 0.1011,
      "velocity": 115,
      "chip": "ym2612"
    },
    {
      "channel": 1,
      "note": 74,
      "start": 26.942,
      "duration": 0.3049,
      "velocity": 100,
      "chip": "ym2612"
    },
    {
      "channel": 4,
      "note": 45,
      "start": 26.9478,
      "duration": 0.0903,
      "velocity": 113,
      "chip": "ym2612"
    },
    {
      "channel": 0,
      "note": 66,
      "start": 26.9515,
      "duration": 0.0958,
      "velocity": 93,
      "chip": "ym2612"
    },
    {
      "channel": 5,
      "note": 66,
      "start": 26.9588,
      "duration": 0.1914,
      "velocity": 127,
      "chip": "ym2612"
    },
    {
      "channel": 4,
      "note": 45,
      "start": 27.0386,
      "duration": 0.1195,
      "velocity": 113,
      "chip": "ym2612"
    },
    {
      "channel": 2,
      "note": 69,
      "start": 27.0414,
      "duration": 0.1046,
      "velocity": 115,
      "chip": "ym2612"
    },
    {
      "channel": 0,
      "note": 66,
      "start": 27.0479,
      "duration": 0.1072,
      "velocity": 93,
      "chip": "ym2612"
    },
    {
      "channel": 2,
      "note": 81,
      "start": 27.1466,
      "duration": 0.098,
      "velocity": 115,
      "chip": "ym2612"
    },
    {
      "channel": 5,
      "note": 66,
      "start": 27.1508,
      "duration": 0.2015,
      "velocity": 127,
      "chip": "ym2612"
    },
    {
      "channel": 0,
      "note": 66,
      "start": 27.1557,
      "duration": 0.0971,
      "velocity": 93,
      "chip": "ym2612"
    },
    {
      "channel": 4,
      "note": 45,
      "start": 27.1587,
      "duration": 0.1961,
      "velocity": 113,
      "chip": "ym2612"
    },
    {
      "channel": 2,
      "note": 69,
      "start": 27.2452,
      "duration": 0.1033,
      "velocity": 115,
      "chip": "ym2612"
    },
    {
      "channel": 1,
      "note": 69,
      "start": 27.2475,
      "duration": 0.3076,
      "velocity": 100,
      "chip": "ym2612"
    },
    {
      "channel": 0,
      "note": 66,
      "start": 27.2535,
      "duration": 0.1051,
      "velocity": 93,
      "chip": "ym2612"
    },
    {
      "channel": 2,
      "note": 69,
      "start": 27.3491,
      "duration": 0.1054,
      "velocity": 115,
      "chip": "ym2612"
    },
    {
      "channel": 4,
      "note": 45,
      "start": 27.3554,
      "duration": 0.0964,
      "velocity": 113,
      "chip": "ym2612"
    },
    {
      "channel": 0,
      "note": 66,
      "start": 27.3592,
      "duration": 0.1027,
      "velocity": 93,
      "chip": "ym2612"
    },
    {
      "channel": 5,
      "note": 66,
      "start": 27.3664,
      "duration": 0.1026,
      "velocity": 127,
      "chip": "ym2612"
    },
    {
      "channel": 4,
      "note": 45,
      "start": 27.4524,
      "duration": 0.1214,
      "velocity": 113,
      "chip": "ym2612"
    },
    {
      "channel": 2,
      "note": 81,
      "start": 27.4551,
      "duration": 0.0978,
      "velocity": 115,
      "chip": "ym2612"
    },
    {
      "channel": 0,
      "note": 66,
      "start": 27.4625,
      "duration": 0.1011,
      "velocity": 93,
      "chip": "ym2612"
    },
    {
      "channel": 5,
      "note": 66,
      "start": 27.4696,
      "duration": 0.1019,
      "velocity": 127,
      "chip": "ym2612"
    },
    {
      "channel": 2,
      "note": 69,
      "start": 27.5535,
      "duration": 0.1006,
      "velocity": 115,
      "chip": "ym2612"
    },
    {
      "channel": 1,
      "note": 72,
      "start": 27.5558,
      "duration": 0.1006,
      "velocity": 100,
      "chip": "ym2612"
    },
    {
      "channel": 0,
      "note": 66,
      "start": 27.5643,
      "duration": 0.0988,
      "velocity": 93,
      "chip": "ym2612"
    },
    {
      "channel": 5,
      "note": 66,
      "start": 27.5722,
      "duration": 0.0982,
      "velocity": 127,
      "chip": "ym2612"
    },
    {
      "channel": 4,
      "note": 45,
      "start": 27.5744,
      "duration": 0.2013,
      "velocity": 113,
      "chip": "ym2612"
    },
    {
      "channel": 2,
      "note": 69,
      "start": 27.6548,
      "duration": 0.1056,
      "velocity": 115,
      "chip": "ym2612"
    },
    {
      "channel": 1,
      "note": 74,
      "start": 27.657,
      "duration": 0.1056,
      "velocity": 100,
      "chip": "ym2612"
    },
    {
      "channel": 0,
      "note": 66,
      "start": 27.6638,
      "duration": 0.1074,
      "velocity": 93,
      "chip": "ym2612"
    },
    {
      "channel": 5,
      "note": 66,
      "start": 27.671,
      "duration": 0.1092,
      "velocity": 127,
      "chip": "ym2612"
    },
    {
      "channel": 2,
      "note": 81,
      "start": 27.7611,
      "duration": 0.0999,
      "velocity": 115,
      "chip": "ym2612"
    },
    {
      "channel": 1,
      "note": 67,
      "start": 27.7633,
      "duration": 0.2061,
      "velocity": 100,
      "chip": "ym2612"
    },
    {
      "channel": 0,
      "note": 66,
      "start": 27.7718,
      "duration": 0.0981,
      "velocity": 93,
      "chip": "ym2612"
    },
    {
      "channel": 4,
      "note": 45,
      "start": 27.7764,
      "duration": 0.0899,
      "velocity": 113,
      "chip": "ym2612"
    },
    {
      "channel": 5,
      "note": 66,
      "start": 27.7808,
      "duration": 0.1931,
      "velocity": 127,
      "chip": "ym2612"
    },
    {
      "channel": 2,
      "note": 69,
      "start": 27.8616,
      "duration": 0.1239,
      "velocity": 115,
      "chip": "ym2612"
    },
    {
      "channel": 4,
      "note": 45,
      "start": 27.8669,
      "duration": 0.1158,
      "velocity": 113,
      "chip": "ym2612"
    },
    {
      "channel": 0,
      "note": 66,
      "start": 27.8706,
      "duration": 0.1011,
      "velocity": 93,
      "chip": "ym2612"
    },
    {
      "channel": 1,
      "note": 69,
      "start": 27.97,
      "duration": 0.3002,
      "velocity": 100,
      "chip": "ym2612"
    },
    {
      "channel": 0,
      "note": 66,
      "start": 27.9723,
      "duration": 0.1039,
      "velocity": 93,
      "chip": "ym2612"
    },
    {
      "channel": 4,
      "note": 45,
      "start": 27.9834,
      "duration": 0.195,
      "velocity": 113,
      "chip": "ym2612"
    },
    {
      "channel": 2,
      "note": 69,
      "start": 27.9861,
      "duration": 0.0837,
      "velocity": 115,
      "chip": "ym2612"
    },
    {
      "channel": 5,
      "note": 66,
      "start": 27.9896,
      "duration": 0.1864,
      "velocity": 127,
      "chip": "ym2612"
    },
    {
      "channel": 2,
      "note": 69,
      "start": 28.0704,
      "duration": 0.1015,
      "velocity": 115,
      "chip": "ym2612"
    },
    {
      "channel": 0,
      "note": 66,
      "start": 28.0769,
      "duration": 0.1051,
      "velocity": 93,
      "chip": "ym2612"
    },
    {
      "channel": 2,
      "note": 81,
      "start": 28.1725,
      "duration": 0.1046,
      "velocity": 115,
      "chip": "ym2612"
    },
    {
      "channel": 5,
      "note": 66,
      "start": 28.1767,
      "duration": 0.204,
      "velocity": 127,
      "chip": "ym2612"
    },
    {
      "channel": 4,
      "note": 45,
      "start": 28.179,
      "duration": 0.0954,
      "velocity": 113,
      "chip": "ym2612"
    },
    {
      "channel": 0,
      "note": 66,
      "start": 28.1827,
      "duration": 0.0972,
      "velocity": 93,
      "chip": "ym2612"
    },
    {
      "channel": 1,
      "note": 72,
      "start": 28.2709,
      "duration": 0.3162,
      "velocity": 100,
      "chip": "ym2612"
    },
    {
      "channel": 4,
      "note": 45,
      "start": 28.275,
      "duration": 0.122,
      "velocity": 113,
      "chip": "ym2612"
    },
    {
      "channel": 2,
      "note": 69,
      "start": 28.2778,
      "duration": 0.0991,
      "velocity": 115,
      "chip": "ym2612"
    },
    {
      "channel": 0,
      "note": 66,
      "start": 28.2805,
      "duration": 0.1063,
      "velocity": 93,
      "chip": "ym2612"
    },
    {
      "channel": 2,
      "note": 69,
      "start": 28.3775,
      "duration": 0.0998,
      "velocity": 115,
      "chip": "ym2612"
    },
    {
      "channel": 0,
      "note": 66,
      "start": 28.3874,
      "duration": 0.0963,
      "velocity": 93,
      "chip": "ym2612"
    },
    {
      "channel": 5,
      "note": 66,
      "start": 28.3953,
      "duration": 0.1844,
      "velocity": 127,
      "chip": "ym2612"
    },
    {
      "channel": 4,
      "note": 45,
      "start": 28.3976,
      "duration": 0.1964,
      "velocity": 113,
      "chip": "ym2612"
    },
    {
      "channel": 2,
      "note": 81,
      "start": 28.478,
      "duration": 0.1069,
      "velocity": 115,
      "chip": "ym2612"
    },
    {
      "channel": 0,
      "note": 66,
      "start": 28.4844,
      "duration": 0.105,
      "velocity": 93,
      "chip": "ym2612"
    },
    {
      "channel": 2,
      "note": 69,
      "start": 28.5855,
      "duration": 0.1018,
      "velocity": 115,
      "chip": "ym2612"
    },
    {
      "channel": 1,
      "note": 74,
      "start": 28.5877,
      "duration": 0.3025,
      "velocity": 100,
      "chip": "ym2612"
    },
    {
      "channel": 0,
      "note": 66,
      "start": 28.59,
      "duration": 0.1037,
      "velocity": 93,
      "chip": "ym2612"
    },
    {
      "channel": 4,
      "note": 45,
      "start": 28.5947,
      "duration": 0.0899,
      "velocity": 113,
      "chip": "ym2612"
    },
    {
      "channel": 5,
      "note": 66,
      "start": 28.5991,
      "duration": 0.1878,
      "velocity": 127,
      "chip": "ym2612"
    },
    {
      "channel": 4,
      "note": 45,
      "start": 28.6852,
      "duration": 0.1162,
      "velocity": 113,
      "chip": "ym2612"
    },
    {
      "channel": 2,
      "note": 69,
      "start": 28.6879,
      "duration": 0.104,
      "velocity": 115,
      "chip": "ym2612"
    },
    {
      "channel": 0,
      "note": 66,
      "start": 28.6944,
      "duration": 0.1002,
      "velocity": 93,
      "chip": "ym2612"
    },
    {
      "channel": 5,
      "note": 66,
      "start": 28.7876,
      "duration": 0.2095,
      "velocity": 127,
      "chip": "ym2612"
    },
    {
      "channel": 2,
      "note": 81,
      "start": 28.7925,
      "duration": 0.0954,
      "velocity": 115,
      "chip": "ym2612"
    },
    {
      "channel": 0,
      "note": 66,
      "start": 28.7952,
      "duration": 0.101,
      "velocity": 93,
      "chip": "ym2612"
    },
    {
      "channel": 4,
      "note": 45,
      "start": 28.8021,
      "duration": 0.2056,
      "velocity": 113,
      "chip": "ym2612"
    },
    {
      "channel": 2,
      "note": 69,
      "start": 28.8886,
      "duration": 0.1046,
      "velocity": 115,
      "chip": "ym2612"
    },
    {
      "channel": 1,
      "note": 69,
      "start": 28.8908,
      "duration": 0.3101,
      "velocity": 100,
      "chip": "ym2612"
    },
    {
      "channel": 0,
      "note": 66,
      "start": 28.8968,
      "duration": 0.1063,
      "velocity": 93,
      "chip": "ym2612"
    },
    {
      "channel": 2,
      "note": 69,
      "start": 28.9939,
      "duration": 0.1054,
      "velocity": 115,
      "chip": "ym2612"
    },
    {
      "channel": 0,
      "note": 66,
      "start": 29.0038,
      "duration": 0.0982,
      "velocity": 93,
      "chip": "ym2612"
    },
    {
      "channel": 4,
      "note": 45,
      "start": 29.0083,
      "duration": 0.0882,
      "velocity": 113,
      "chip": "ym2612"
    },
    {
      "channel": 5,
      "note": 66,
      "start": 29.0127,
      "duration": 0.0964,
      "velocity": 127,
      "chip": "ym2612"
    },
    {
      "channel": 4,
      "note": 45,
      "start": 29.0971,
      "duration": 0.1169,
      "velocity": 113,
      "chip": "ym2612"
    },
    {
      "channel": 2,
      "note": 81,
      "start": 29.0999,
      "duration": 0.0987,
      "velocity": 115,
      "chip": "ym2612"
    },
    {
      "channel": 0,
      "note": 66,
      "start": 29.1026,
      "duration": 0.1066,
      "velocity": 93,
      "chip": "ym2612"
    },
    {
      "channel": 5,
      "note": 66,
      "start": 29.1098,
      "duration": 0.1019,
      "velocity": 127,
      "chip": "ym2612"
    },
    {
      "channel": 2,
      "note": 69,
      "start": 29.1993,
      "duration": 0.1076,
      "velocity": 115,
      "chip": "ym2612"
    },
    {
      "channel": 1,
      "note": 72,
      "start": 29.2015,
      "duration": 0.0994,
      "velocity": 100,
      "chip": "ym2612"
    },
    {
      "channel": 0,
      "note": 66,
      "start": 29.2098,
      "duration": 0.0997,
      "velocity": 93,
      "chip": "ym2612"
    },
    {
      "channel": 5,
      "note": 66,
      "start": 29.2124,
      "duration": 0.1043,
      "velocity": 127,
      "chip": "ym2612"
    },
    {
      "channel": 4,
      "note": 45,
      "start": 29.2146,
      "duration": 0.1994,
      "velocity": 113,
      "chip": "ym2612"
    },
    {
      "channel": 1,
      "note": 74,
      "start": 29.3016,
      "duration": 0.1069,
      "velocity": 100,
      "chip": "ym2612"
    },
    {
      "channel": 2,
      "note": 69,
      "start": 29.3074,
      "duration": 0.0988,
      "velocity": 115,
      "chip": "ym2612"
    },
    {
      "channel": 0,
      "note": 66,
      "start": 29.3101,
      "duration": 0.1077,
      "velocity": 93,
      "chip": "ym2612"
    },
    {
      "channel": 5,
      "note": 66,
      "start": 29.3173,
      "duration": 0.1031,
      "velocity": 127,
      "chip": "ym2612"
    },
    {
      "channel": 2,
      "note": 81,
      "start": 29.4068,
      "duration": 0.0999,
      "velocity": 115,
      "chip": "ym2612"
    },
    {
      "channel": 1,
      "note": 67,
      "start": 29.4091,
      "duration": 0.2235,
      "velocity": 100,
      "chip": "ym2612"
    },
    {
      "channel": 4,
      "note": 45,
      "start": 29.4147,
      "duration": 0.0893,
      "velocity": 113,
      "chip": "ym2612"
    },
    {
      "channel": 0,
      "note": 66,
      "start": 29.4185,
      "duration": 0.0955,
      "velocity": 93,
      "chip": "ym2612"
    },
    {
      "channel": 5,
      "note": 66,
      "start": 29.421,
      "duration": 0.1992,
      "velocity": 127,
      "chip": "ym2612"
    },
    {
      "channel": 4,
      "note": 45,
      "start": 29.5047,
      "duration": 0.1333,
      "velocity": 113,
      "chip": "ym2612"
    },
    {
      "channel": 2,
      "note": 69,
      "start": 29.5073,
      "duration": 0.1333,
      "velocity": 115,
      "chip": "ym2612"
    },
    {
      "channel": 0,
      "note": 66,
      "start": 29.5146,
      "duration": 0.1033,
      "velocity": 93,
      "chip": "ym2612"
    },
    {
      "channel": 3,
      "note": 48,
      "start": 29.6141,
      "duration": 3.2849,
      "velocity": 97,
      "chip": "ym2612"
    },
    {
      "channel": 0,
      "note": 66,
      "start": 29.6185,
      "duration": 0.0987,
      "velocity": 93,
      "chip": "ym2612"
    },
    {
      "channel": 1,
      "note": 72,
      "start": 29.6332,
      "duration": 0.2842,
      "velocity": 100,
      "chip": "ym2612"
    },
    {
      "channel": 5,
      "note": 66,
      "start": 29.6363,
      "duration": 0.179,
      "velocity": 127,
      "chip": "ym2612"
    },
    {
      "channel": 4,
      "note": 48,
      "start": 29.6386,
      "duration": 0.1856,
      "velocity": 113,
      "chip": "ym2612"
    },
    {
      "channel": 2,
      "note": 72,
      "start": 29.6413,
      "duration": 0.0695,
      "velocity": 115,
      "chip": "ym2612"
    },
    {
      "channel": 2,
      "note": 72,
      "start": 29.7113,
      "duration": 0.0998,
      "velocity": 115,
      "chip": "ym2612"
    },
    {
      "channel": 0,
      "note": 66,
      "start": 29.7178,
      "duration": 0.1033,
      "velocity": 93,
      "chip": "ym2612"
    },
    {
      "channel": 2,
      "note": 84,
      "start": 29.8118,
      "duration": 0.1125,
      "velocity": 115,
      "chip": "ym2612"
    },
    {
      "channel": 5,
      "note": 66,
      "start": 29.8159,
      "duration": 0.2039,
      "velocity": 127,
      "chip": "ym2612"
    },
    {
      "channel": 0,
      "note": 66,
      "start": 29.8218,
      "duration": 0.1052,
      "velocity": 93,
      "chip": "ym2612"
    },
    {
      "channel": 4,
      "note": 48,
      "start": 29.8248,
      "duration": 0.0967,
      "velocity": 113,
      "chip": "ym2612"
    },
    {
      "channel": 1,
      "note": 75,
      "start": 29.918,
      "duration": 0.3073,
      "velocity": 100,
      "chip": "ym2612"
    },
    {
      "channel": 4,
      "note": 48,
      "start": 29.9221,
      "duration": 0.1158,
      "velocity": 113,
      "chip": "ym2612"
    },
    {
      "channel": 2,
      "note": 72,
      "start": 29.9249,
      "duration": 0.1001,
      "velocity": 115,
      "chip": "ym2612"
    },
    {
      "channel": 0,
      "note": 66,
      "start": 29.9276,
      "duration": 0.1001,
      "velocity": 93,
      "chip": "ym2612"
    },
    {
      "channel": 2,
      "note": 72,
      "start": 30.0257,
      "duration": 0.0957,
      "velocity": 115,
      "chip": "ym2612"
    },
    {
      "channel": 0,
      "note": 66,
      "start": 30.0284,
      "duration": 0.0994,
      "velocity": 93,
      "chip": "ym2612"
    },
    {
      "channel": 5,
      "note": 66,
      "start": 30.0363,
      "duration": 0.1924,
      "velocity": 127,
      "chip": "ym2612"
    },
    {
      "channel": 4,
      "note": 48,
      "start": 30.0386,
      "duration": 0.2027,
      "velocity": 113,
      "chip": "ym2612"
    },
    {
      "channel": 2,
      "note": 84,
      "start": 30.122,
      "duration": 0.1118,
      "velocity": 115,
      "chip": "ym2612"
    },
    {
      "channel": 0,
      "note": 66,
      "start": 30.1285,
      "duration": 0.1081,
      "velocity": 93,
      "chip": "ym2612"
    },
    {
      "channel": 1,
      "note": 77,
      "start": 30.226,
      "duration": 0.3116,
      "velocity": 100,
      "chip": "ym2612"
    },
    {
      "channel": 2,
      "note": 72,
      "start": 30.2344,
      "duration": 0.0921,
      "velocity": 115,
      "chip": "ym2612"
    },
    {
      "channel": 0,
      "note": 66,
      "start": 30.2372,
      "duration": 0.0976,
      "velocity": 93,
      "chip": "ym2612"
    },
    {
      "channel": 4,
      "note": 48,
      "start": 30.242,
      "duration": 0.0893,
      "velocity": 113,
      "chip": "ym2612"
    },
    {
      "channel": 5,
      "note": 66,
      "start": 30.2464,
      "duration": 0.1882,
      "velocity": 127,
      "chip": "ym2612"
    },
    {
      "channel": 2,
      "note": 72,
      "start": 30.3272,
      "duration": 0.1033,
      "velocity": 115,
      "chip": "ym2612"
    },
    {
      "channel": 4,
      "note": 48,
      "start": 30.3318,
      "duration": 0.1108,
      "velocity": 113,
      "chip": "ym2612"
    },
    {
      "channel": 0,
      "note": 66,
      "start": 30.3355,
      "duration": 0.1041,
      "velocity": 93,
      "chip": "ym2612"
    },
    {
      "channel": 2,
      "note": 84,
      "start": 30.4311,
      "duration": 0.1042,
      "velocity": 115,
      "chip": "ym2612"
    },
    {
      "channel": 5,
      "note": 66,
      "start": 30.4353,
      "duration": 0.203,
      "velocity": 127,
      "chip": "ym2612"
    },
    {
      "channel": 0,
      "note": 66,
      "start": 30.4402,
      "duration": 0.1035,
      "velocity": 93,
      "chip": "ym2612"
    },
    {
      "channel": 4,
      "note": 48,
      "start": 30.4432,
      "duration": 0.2057,
      "velocity": 113,
      "chip": "ym2612"
    },
    {
      "channel": 2,
      "note": 72,
      "start": 30.536,
      "duration": 0.0985,
      "velocity": 115,
      "chip": "ym2612"
    },
    {
      "channel": 1,
      "note": 72,
      "start": 30.5382,
      "duration": 0.3101,
      "velocity": 100,
      "chip": "ym2612"
    },
    {
      "channel": 0,
      "note": 66,
      "start": 30.5442,
      "duration": 0.1002,
      "velocity": 93,
      "chip": "ym2612"
    },
    {
      "channel": 2,
      "note": 72,
      "start": 30.6351,
      "duration": 0.1048,
      "velocity": 115,
      "chip": "ym2612"
    },
    {
      "channel": 0,
      "note": 66,
      "start": 30.6451,
      "duration": 0.1028,
      "velocity": 93,
      "chip": "ym2612"
    },
    {
      "channel": 4,
      "note": 48,
      "start": 30.6496,
      "duration": 0.0876,
      "velocity": 113,
      "chip": "ym2612"
    },
    {
      "channel": 5,
      "note": 66,
      "start": 30.654,
      "duration": 0.0964,
      "velocity": 127,
      "chip": "ym2612"
    },
    {
      "channel": 4,
      "note": 48,
      "start": 30.7378,
      "duration": 0.1237,
      "velocity": 113,
      "chip": "ym2612"
    },
    {
      "channel": 2,
      "note": 84,
      "start": 30.7405,
      "duration": 0.1055,
      "velocity": 115,
      "chip": "ym2612"
    },
    {
      "channel": 0,
      "note": 66,
      "start": 30.7485,
      "duration": 0.1081,
      "velocity": 93,
      "chip": "ym2612"
    },
    {
      "channel": 5,
      "note": 66,
      "start": 30.751,
      "duration": 0.1081,
      "velocity": 127,
      "chip": "ym2612"
    },
    {
      "channel": 2,
      "note": 72,
      "start": 30.8466,
      "duration": 0.0996,
      "velocity": 115,
      "chip": "ym2612"
    },
    {
      "channel": 1,
      "note": 75,
      "start": 30.8489,
      "duration": 0.0996,
      "velocity": 100,
      "chip": "ym2612"
    },
    {
      "channel": 0,
      "note": 66,
      "start": 30.8572,
      "duration": 0.0935,
      "velocity": 93,
      "chip": "ym2612"
    },
    {
      "channel": 5,
      "note": 66,
      "start": 30.8598,
      "duration": 0.0982,
      "velocity": 127,
      "chip": "ym2612"
    },
    {
      "channel": 4,
      "note": 48,
      "start": 30.862,
      "duration": 0.1918,
      "velocity": 113,
      "chip": "ym2612"
    },
    {
      "channel": 2,
      "note": 72,
      "start": 30.9468,
      "duration": 0.0998,
      "velocity": 115,
      "chip": "ym2612"
    },
    {
      "channel": 1,
      "note": 77,
      "start": 30.9491,
      "duration": 0.0998,
      "velocity": 100,
      "chip": "ym2612"
    },
    {
      "channel": 0,
      "note": 66,
      "start": 30.9514,
      "duration": 0.1061,
      "velocity": 93,
      "chip": "ym2612"
    },
    {
      "channel": 5,
      "note": 66,
      "start": 30.9585,
      "duration": 0.1061,
      "velocity": 127,
      "chip": "ym2612"
    },
    {
      "channel": 2,
      "note": 84,
      "start": 31.0473,
      "duration": 0.1069,
      "velocity": 115,
      "chip": "ym2612"
    },
    {
      "channel": 1,
      "note": 70,
      "start": 31.0496,
      "duration": 0.212,
      "velocity": 100,
      "chip": "ym2612"
    },
    {
      "channel": 4,
      "note": 48,
      "start": 31.0544,
      "duration": 0.097,
      "velocity": 113,
      "chip": "ym2612"
    },
    {
      "channel": 0,
      "note": 66,
      "start": 31.0581,
      "duration": 0.1032,
      "velocity": 93,
      "chip": "ym2612"
    },
    {
      "channel": 5,
      "note": 66,
      "start": 31.0653,
      "duration": 0.2008,
      "velocity": 127,
      "chip": "ym2612"
    },
    {
      "channel": 4,
      "note": 48,
      "start": 31.1521,
      "duration": 0.1165,
      "velocity": 113,
      "chip": "ym2612"
    },
    {
      "channel": 2,
      "note": 72,
      "start": 31.1547,
      "duration": 0.1167,
      "velocity": 115,
      "chip": "ym2612"
    },
    {
      "channel": 0,
      "note": 66,
      "start": 31.162,
      "duration": 0.1018,
      "velocity": 93,
      "chip": "ym2612"
    },
    {
      "channel": 1,
      "note": 72,
      "start": 31.2622,
      "duration": 0.3024,
      "velocity": 100,
      "chip": "ym2612"
    },
    {
      "channel": 0,
      "note": 66,
      "start": 31.2645,
      "duration": 0.0932,
      "velocity": 93,
      "chip": "ym2612"
    },
    {
      "channel": 4,
      "note": 48,
      "start": 31.2692,
      "duration": 0.2016,
      "velocity": 113,
      "chip": "ym2612"
    },
    {
      "channel": 2,
      "note": 72,
      "start": 31.272,
      "duration": 0.0829,
      "velocity": 115,
      "chip": "ym2612"
    },
    {
      "channel": 5,
      "note": 66,
      "start": 31.2802,
      "duration": 0.1799,
      "velocity": 127,
      "chip": "ym2612"
    },
    {
      "channel": 2,
      "note": 72,
      "start": 31.3556,
      "duration": 0.1095,
      "velocity": 115,
      "chip": "ym2612"
    },
    {
      "channel": 0,
      "note": 66,
      "start": 31.3583,
      "duration": 0.1095,
      "velocity": 93,
      "chip": "ym2612"
    },
    {
      "channel": 5,
      "note": 66,
      "start": 31.4608,
      "duration": 0.2062,
      "velocity": 127,
      "chip": "ym2612"
    },
    {
      "channel": 2,
      "note": 84,
      "start": 31.4657,
      "duration": 0.0966,
      "velocity": 115,
      "chip": "ym2612"
    },
    {
      "channel": 0,
      "note": 66,
      "start": 31.4685,
      "duration": 0.1021,
      "velocity": 93,
      "chip": "ym2612"
    },
    {
      "channel": 4,
      "note": 48,
      "start": 31.4715,
      "duration": 0.0881,
      "velocity": 113,
      "chip": "ym2612"
    },
    {
      "channel": 4,
      "note": 48,
      "start": 31.5602,
      "duration": 0.1164,
      "velocity": 113,
      "chip": "ym2612"
    },
    {
      "channel": 2,
      "note": 72,
      "start": 31.5629,
      "duration": 0.1002,
      "velocity": 115,
      "chip": "ym2612"
    },
    {
      "channel": 1,
      "note": 75,
      "start": 31.5652,
      "duration": 0.3073,
      "velocity": 100,
      "chip": "ym2612"
    },
    {
      "channel": 0,
      "note": 66,
      "start": 31.5712,
      "duration": 0.1009,
      "velocity": 93,
      "chip": "ym2612"
    },
    {
      "channel": 2,
      "note": 72,
      "start": 31.6638,
      "duration": 0.1043,
      "velocity": 115,
      "chip": "ym2612"
    },
    {
      "channel": 0,
      "note": 66,
      "start": 31.6727,
      "duration": 0.1018,
      "velocity": 93,
      "chip": "ym2612"
    },
    {
      "channel": 4,
      "note": 48,
      "start": 31.6773,
      "duration": 0.2011,
      "velocity": 113,
      "chip": "ym2612"
    },
    {
      "channel": 5,
      "note": 66,
      "start": 31.6817,
      "duration": 0.1941,
      "velocity": 127,
      "chip": "ym2612"
    },
    {
      "channel": 2,
      "note": 84,
      "start": 31.7687,
      "duration": 0.1015,
      "velocity": 115,
      "chip": "ym2612"
    },
    {
      "channel": 0,
      "note": 66,
      "start": 31.7752,
      "duration": 0.1069,
      "velocity": 93,
      "chip": "ym2612"
    },
    {
      "channel": 2,
      "note": 72,
      "start": 31.8709,
      "duration": 0.1011,
      "velocity": 115,
      "chip": "ym2612"
    },
    {
      "channel": 1,
      "note": 77,
      "start": 31.8732,
      "duration": 0.3049,
      "velocity": 100,
      "chip": "ym2612"
    },
    {
      "channel": 4,
      "note": 48,
      "start": 31.879,
      "duration": 0.0902,
      "velocity": 113,
      "chip": "ym2612"
    },
    {
      "channel": 0,
      "note": 66,
      "start": 31.8827,
      "duration": 0.0958,
      "velocity": 93,
      "chip": "ym2612"
    },
    {
      "channel": 5,
      "note": 66,
      "start": 31.89,
      "duration": 0.1913,
      "velocity": 127,
      "chip": "ym2612"
    },
    {
      "channel": 4,
      "note": 48,
      "start": 31.9699,
      "duration": 0.1195,
      "velocity": 113,
      "chip": "ym2612"
    },
    {
      "channel": 2,
      "note": 72,
      "start": 31.9726,
      "duration": 0.1046,
      "velocity": 115,
      "chip": "ym2612"
    },
    {
      "channel": 0,
      "note": 66,
      "start": 31.9791,
      "duration": 0.1072,
      "velocity": 93,
      "chip": "ym2612"
    },
    {
      "channel": 2,
      "note": 84,
      "start": 32.0779,
      "duration": 0.098,
      "velocity": 115,
      "chip": "ym2612"
    },
    {
      "channel": 5,
      "note": 66,
      "start": 32.082,
      "duration": 0.1944,
      "velocity": 127,
      "chip": "ym2612"
    },
    {
      "channel": 0,
      "note": 66,
      "start": 32.0869,
      "duration": 0.0972,
      "velocity": 93,
      "chip": "ym2612"
    },
    {
      "channel": 4,
      "note": 48,
      "start": 32.09,
      "duration": 0.1976,
      "velocity": 113,
      "chip": "ym2612"
    },
    {
      "channel": 2,
      "note": 72,
      "start": 32.1765,
      "duration": 0.105,
      "velocity": 115,
      "chip": "ym2612"
    },
    {
      "channel": 1,
      "note": 72,
      "start": 32.1787,
      "duration": 0.3076,
      "velocity": 100,
      "chip": "ym2612"
    },
    {
      "channel": 0,
      "note": 66,
      "start": 32.1848,
      "duration": 0.1066,
      "velocity": 93,
      "chip": "ym2612"
    },
    {
      "channel": 2,
      "note": 72,
      "start": 32.2822,
      "duration": 0.1044,
      "velocity": 115,
      "chip": "ym2612"
    },
    {
      "channel": 4,
      "note": 48,
      "start": 32.2883,
      "duration": 0.0956,
      "velocity": 113,
      "chip": "ym2612"
    },
    {
      "channel": 0,
      "note": 66,
      "start": 32.292,
      "duration": 0.1026,
      "velocity": 93,
      "chip": "ym2612"
    },
    {
      "channel": 5,
      "note": 66,
      "start": 32.2945,
      "duration": 0.1027,
      "velocity": 127,
      "chip": "ym2612"
    },
    {
      "channel": 4,
      "note": 48,
      "start": 32.3844,
      "duration": 0.1206,
      "velocity": 113,
      "chip": "ym2612"
    },
    {
      "channel": 2,
      "note": 84,
      "start": 32.3872,
      "duration": 0.097,
      "velocity": 115,
      "chip": "ym2612"
    },
    {
      "channel": 0,
      "note": 66,
      "start": 32.3952,
      "duration": 0.0997,
      "velocity": 93,
      "chip": "ym2612"
    },
    {
      "channel": 5,
      "note": 66,
      "start": 32.3977,
      "duration": 0.1051,
      "velocity": 127,
      "chip": "ym2612"
    },
    {
      "channel": 2,
      "note": 72,
      "start": 32.4848,
      "duration": 0.1006,
      "velocity": 115,
      "chip": "ym2612"
    },
    {
      "channel": 1,
      "note": 75,
      "start": 32.487,
      "duration": 0.1006,
      "velocity": 100,
      "chip": "ym2612"
    },
    {
      "channel": 0,
      "note": 66,
      "start": 32.4955,
      "duration": 0.0989,
      "velocity": 93,
      "chip": "ym2612"
    },
    {
      "channel": 5,
      "note": 66,
      "start": 32.5035,
      "duration": 0.0981,
      "velocity": 127,
      "chip": "ym2612"
    },
    {
      "channel": 4,
      "note": 48,
      "start": 32.5057,
      "duration": 0.1949,
      "velocity": 113,
      "chip": "ym2612"
    },
    {
      "channel": 2,
      "note": 72,
      "start": 32.586,
      "duration": 0.1073,
      "velocity": 115,
      "chip": "ym2612"
    },
    {
      "channel": 1,
      "note": 77,
      "start": 32.5883,
      "duration": 0.1074,
      "velocity": 100,
      "chip": "ym2612"
    },
    {
      "channel": 0,
      "note": 66,
      "start": 32.5951,
      "duration": 0.1091,
      "velocity": 93,
      "chip": "ym2612"
    },
    {
      "channel": 5,
      "note": 66,
      "start": 32.6022,
      "duration": 0.1092,
      "velocity": 127,
      "chip": "ym2612"
    },
    {
      "channel": 2,
      "note": 84,
      "start": 32.694,
      "duration": 0.0981,
      "velocity": 115,
      "chip": "ym2612"
    },
    {
      "channel": 1,
      "note": 70,
      "start": 32.6963,
      "duration": 0.2147,
      "velocity": 100,
      "chip": "ym2612"
    },
    {
      "channel": 4,
      "note": 48,
      "start": 32.7012,
      "duration": 0.0962,
      "velocity": 113,
      "chip": "ym2612"
    },
    {
      "channel": 0,
      "note": 66,
      "start": 32.7048,
      "duration": 0.0963,
      "velocity": 93,
      "chip": "ym2612"
    },
    {
      "channel": 5,
      "note": 66,
      "start": 32.712,
      "duration": 0.1938,
      "velocity": 127,
      "chip": "ym2612"
    },
    {
      "channel": 2,
      "note": 72,
      "start": 32.7928,
      "duration": 0.1327,
      "velocity": 115,
      "chip": "ym2612"
    },
    {
      "channel": 4,
      "note": 48,
      "start": 32.798,
      "duration": 0.1247,
      "velocity": 113,
      "chip": "ym2612"
    },
    {
      "channel": 0,
      "note": 66,
      "start": 32.8017,
      "duration": 0.1018,
      "velocity": 93,
      "chip": "ym2612"
    },
    {
      "channel": 3,
      "note": 50,
      "start": 32.8996,
      "duration": 3.287,
      "velocity": 97,
      "chip": "ym2612"
    },
    {
      "channel": 0,
      "note": 66,
      "start": 32.9042,
      "duration": 0.1009,
      "velocity": 93,
      "chip": "ym2612"
    },
    {
      "channel": 1,
      "note": 74,
      "start": 32.9117,
      "duration": 0.2922,
      "velocity": 100,
      "chip": "ym2612"
    },
    {
      "channel": 5,
      "note": 66,
      "start": 32.921,
      "duration": 0.1803,
      "velocity": 127,
      "chip": "ym2612"
    },
    {
      "channel": 4,
      "note": 50,
      "start": 32.9234,
      "duration": 0.1887,
      "velocity": 113,
      "chip": "ym2612"
    },
    {
      "channel": 2,
      "note": 74,
      "start": 32.926,
      "duration": 0.0763,
      "velocity": 115,
      "chip": "ym2612"
    },
    {
      "channel": 2,
      "note": 74,
      "start": 33.003,
      "duration": 0.1033,
      "velocity": 115,
      "chip": "ym2612"
    },
    {
      "channel": 0,
      "note": 66,
      "start": 33.0058,
      "duration": 0.1032,
      "velocity": 93,
      "chip": "ym2612"
    },
    {
      "channel": 5,
      "note": 66,
      "start": 33.102,
      "duration": 0.205,
      "velocity": 127,
      "chip": "ym2612"
    },
    {
      "channel": 2,
      "note": 86,
      "start": 33.107,
      "duration": 0.0947,
      "velocity": 115,
      "chip": "ym2612"
    },
    {
      "channel": 0,
      "note": 66,
      "start": 33.1096,
      "duration": 0.1021,
      "velocity": 93,
      "chip": "ym2612"
    },
    {
      "channel": 4,
      "note": 50,
      "start": 33.1127,
      "duration": 0.0954,
      "velocity": 113,
      "chip": "ym2612"
    },
    {
      "channel": 2,
      "note": 74,
      "start": 33.2023,
      "duration": 0.1099,
      "velocity": 115,
      "chip": "ym2612"
    },
    {
      "channel": 1,
      "note": 79,
      "start": 33.2045,
      "duration": 0.3073,
      "velocity": 100,
      "chip": "ym2612"
    },
    {
      "channel": 4,
      "note": 50,
      "start": 33.2087,
      "duration": 0.117,
      "velocity": 113,
      "chip": "ym2612"
    },
    {
      "channel": 0,
      "note": 66,
      "start": 33.2124,
      "duration": 0.1085,
      "velocity": 93,
      "chip": "ym2612"
    },
    {
      "channel": 2,
      "note": 74,
      "start": 33.3128,
      "duration": 0.0964,
      "velocity": 115,
      "chip": "ym2612"
    },
    {
      "channel": 0,
      "note": 66,
      "start": 33.3215,
      "duration": 0.0941,
      "velocity": 93,
      "chip": "ym2612"
    },
    {
      "channel": 5,
      "note": 66,
      "start": 33.3241,
      "duration": 0.1912,
      "velocity": 127,
      "chip": "ym2612"
    },
    {
      "channel": 4,
      "note": 50,
      "start": 33.3264,
      "duration": 0.1997,
      "velocity": 113,
      "chip": "ym2612"
    },
    {
      "channel": 2,
      "note": 86,
      "start": 33.4098,
      "duration": 0.0998,
      "velocity": 115,
      "chip": "ym2612"
    },
    {
      "channel": 0,
      "note": 66,
      "start": 33.4163,
      "duration": 0.105,
      "velocity": 93,
      "chip": "ym2612"
    },
    {
      "channel": 2,
      "note": 74,
      "start": 33.5103,
      "duration": 0.1097,
      "velocity": 115,
      "chip": "ym2612"
    },
    {
      "channel": 1,
      "note": 81,
      "start": 33.5125,
      "duration": 0.3049,
      "velocity": 100,
      "chip": "ym2612"
    },
    {
      "channel": 0,
      "note": 66,
      "start": 33.522,
      "duration": 0.1007,
      "velocity": 93,
      "chip": "ym2612"
    },
    {
      "channel": 4,
      "note": 50,
      "start": 33.5267,
      "duration": 0.0905,
      "velocity": 113,
      "chip": "ym2612"
    },
    {
      "channel": 5,
      "note": 66,
      "start": 33.5311,
      "duration": 0.1896,
      "velocity": 127,
      "chip": "ym2612"
    },
    {
      "channel": 4,
      "note": 50,
      "start": 33.6178,
      "duration": 0.1156,
      "velocity": 113,
      "chip": "ym2612"
    },
    {
      "channel": 2,
      "note": 74,
      "start": 33.6206,
      "duration": 0.096,
      "velocity": 115,
      "chip": "ym2612"
    },
    {
      "channel": 0,
      "note": 66,
      "start": 33.6233,
      "duration": 0.1033,
      "velocity": 93,
      "chip": "ym2612"
    },
    {
      "channel": 2,
      "note": 86,
      "start": 33.7173,
      "duration": 0.1052,
      "velocity": 115,
      "chip": "ym2612"
    },
    {
      "channel": 5,
      "note": 66,
      "start": 33.7213,
      "duration": 0.2022,
      "velocity": 127,
      "chip": "ym2612"
    },
    {
      "channel": 0,
      "note": 66,
      "start": 33.7273,
      "duration": 0.0979,
      "velocity": 93,
      "chip": "ym2612"
    },
    {
      "channel": 4,
      "note": 50,
      "start": 33.7341,
      "duration": 0.2007,
      "velocity": 113,
      "chip": "ym2612"
    },
    {
      "channel": 1,
      "note": 74,
      "start": 33.818,
      "duration": 0.3076,
      "velocity": 100,
      "chip": "ym2612"
    },
    {
      "channel": 2,
      "note": 74,
      "start": 33.8231,
      "duration": 0.1057,
      "velocity": 115,
      "chip": "ym2612"
    },
    {
      "channel": 0,
      "note": 66,
      "start": 33.8258,
      "duration": 0.1128,
      "velocity": 93,
      "chip": "ym2612"
    },
    {
      "channel": 2,
      "note": 74,
      "start": 33.9293,
      "duration": 0.0957,
      "velocity": 115,
      "chip": "ym2612"
    },
    {
      "channel": 4,
      "note": 50,
      "start": 33.9355,
      "duration": 0.095,
      "velocity": 113,
      "chip": "ym2612"
    },
    {
      "channel": 0,
      "note": 66,
      "start": 33.9392,
      "duration": 0.0949,
      "velocity": 93,
      "chip": "ym2612"
    },
    {
      "channel": 5,
      "note": 66,
      "start": 33.9417,
      "duration": 0.0995,
      "velocity": 127,
      "chip": "ym2612"
    },
    {
      "channel": 2,
      "note": 86,
      "start": 34.0257,
      "duration": 0.1075,
      "velocity": 115,
      "chip": "ym2612"
    },
    {
      "channel": 4,
      "note": 50,
      "start": 34.0311,
      "duration": 0.115,
      "velocity": 113,
      "chip": "ym2612"
    },
    {
      "channel": 0,
      "note": 66,
      "start": 34.0348,
      "duration": 0.1011,
      "velocity": 93,
      "chip": "ym2612"
    },
    {
      "channel": 5,
      "note": 66,
      "start": 34.0419,
      "duration": 0.1019,
      "velocity": 127,
      "chip": "ym2612"
    },
    {
      "channel": 1,
      "note": 79,
      "start": 34.1262,
      "duration": 0.1086,
      "velocity": 100,
      "chip": "ym2612"
    },
    {
      "channel": 2,
      "note": 74,
      "start": 34.1338,
      "duration": 0.0988,
      "velocity": 115,
      "chip": "ym2612"
    },
    {
      "channel": 0,
      "note": 66,
      "start": 34.1365,
      "duration": 0.1051,
      "velocity": 93,
      "chip": "ym2612"
    },
    {
      "channel": 5,
      "note": 66,
      "start": 34.1444,
      "duration": 0.1043,
      "velocity": 127,
      "chip": "ym2612"
    },
    {
      "channel": 4,
      "note": 50,
      "start": 34.1467,
      "duration": 0.2012,
      "velocity": 113,
      "chip": "ym2612"
    },
    {
      "channel": 2,
      "note": 74,
      "start": 34.2332,
      "duration": 0.0994,
      "velocity": 115,
      "chip": "ym2612"
    },
    {
      "channel": 1,
      "note": 81,
      "start": 34.2355,
      "duration": 0.0994,
      "velocity": 100,
      "chip": "ym2612"
    },
    {
      "channel": 0,
      "note": 66,
      "start": 34.2423,
      "duration": 0.1011,
      "velocity": 93,
      "chip": "ym2612"
    },
    {
      "channel": 5,
      "note": 66,
      "start": 34.2494,
      "duration": 0.103,
      "velocity": 127,
      "chip": "ym2612"
    },
    {
      "channel": 2,
      "note": 86,
      "start": 34.3333,
      "duration": 0.1061,
      "velocity": 115,
      "chip": "ym2612"
    },
    {
      "channel": 1,
      "note": 86,
      "start": 34.3355,
      "duration": 0.2131,
      "velocity": 100,
      "chip": "ym2612"
    },
    {
      "channel": 0,
      "note": 66,
      "start": 34.344,
      "duration": 0.098,
      "velocity": 93,
      "chip": "ym2612"
    },
    {
      "channel": 4,
      "note": 50,
      "start": 34.3486,
      "duration": 0.088,
      "velocity": 113,
      "chip": "ym2612"
    },
    {
      "channel": 5,
      "note": 66,
      "start": 34.353,
      "duration": 0.2001,
      "velocity": 127,
      "chip": "ym2612"
    },
    {
      "channel": 4,
      "note": 50,
      "start": 34.4372,
      "duration": 0.1314,
      "velocity": 113,
      "chip": "ym2612"
    },
    {
      "channel": 2,
      "note": 74,
      "start": 34.44,
      "duration": 0.1172,
      "velocity": 115,
      "chip": "ym2612"
    },
    {
      "channel": 0,
      "note": 66,
      "start": 34.4427,
      "duration": 0.1082,
      "velocity": 93,
      "chip": "ym2612"
    },
    {
      "channel": 1,
      "note": 74,
      "start": 34.5492,
      "duration": 0.3038,
      "velocity": 100,
      "chip": "ym2612"
    },
    {
      "channel": 0,
      "note": 66,
      "start": 34.5515,
      "duration": 0.0977,
      "velocity": 93,
      "chip": "ym2612"
    },
    {
      "channel": 2,
      "note": 74,
      "start": 34.5578,
      "duration": 0.0849,
      "velocity": 115,
      "chip": "ym2612"
    },
    {
      "channel": 5,
      "note": 66,
      "start": 34.5669,
      "duration": 0.1821,
      "velocity": 127,
      "chip": "ym2612"
    },
    {
      "channel": 4,
      "note": 38,
      "start": 34.5692,
      "duration": 0.1821,
      "velocity": 113,
      "chip": "ym2612"
    },
    {
      "channel": 2,
      "note": 74,
      "start": 34.6434,
      "duration": 0.1015,
      "velocity": 115,
      "chip": "ym2612"
    },
    {
      "channel": 0,
      "note": 66,
      "start": 34.6498,
      "duration": 0.1051,
      "velocity": 93,
      "chip": "ym2612"
    },
    {
      "channel": 2,
      "note": 86,
      "start": 34.7455,
      "duration": 0.1052,
      "velocity": 115,
      "chip": "ym2612"
    },
    {
      "channel": 5,
      "note": 66,
      "start": 34.7496,
      "duration": 0.2058,
      "velocity": 127,
      "chip": "ym2612"
    },
    {
      "channel": 4,
      "note": 38,
      "start": 34.7519,
      "duration": 0.0961,
      "velocity": 113,
      "chip": "ym2612"
    },
    {
      "channel": 0,
      "note": 66,
      "start": 34.7556,
      "duration": 0.1034,
      "velocity": 93,
      "chip": "ym2612"
    },
    {
      "channel": 4,
      "note": 38,
      "start": 34.8486,
      "duration": 0.1164,
      "velocity": 113,
      "chip": "ym2612"
    },
    {
      "channel": 2,
      "note": 74,
      "start": 34.8514,
      "duration": 0.1002,
      "velocity": 115,
      "chip": "ym2612"
    },
    {
      "channel": 1,
      "note": 79,
      "start": 34.8537,
      "duration": 0.3055,
      "velocity": 100,
      "chip": "ym2612"
    },
    {
      "channel": 0,
      "note": 66,
      "start": 34.8596,
      "duration": 0.1009,
      "velocity": 93,
      "chip": "ym2612"
    },
    {
      "channel": 2,
      "note": 74,
      "start": 34.9522,
      "duration": 0.0981,
      "velocity": 115,
      "chip": "ym2612"
    },
    {
      "channel": 0,
      "note": 66,
      "start": 34.9612,
      "duration": 0.0956,
      "velocity": 93,
      "chip": "ym2612"
    },
    {
      "channel": 4,
      "note": 38,
      "start": 34.9657,
      "duration": 0.2076,
      "velocity": 113,
      "chip": "ym2612"
    },
    {
      "channel": 5,
      "note": 66,
      "start": 34.9701,
      "duration": 0.1924,
      "velocity": 127,
      "chip": "ym2612"
    },
    {
      "channel": 2,
      "note": 86,
      "start": 35.0509,
      "duration": 0.106,
      "velocity": 115,
      "chip": "ym2612"
    },
    {
      "channel": 0,
      "note": 66,
      "start": 35.0574,
      "duration": 0.1112,
      "velocity": 93,
      "chip": "ym2612"
    },
    {
      "channel": 2,
      "note": 74,
      "start": 35.1575,
      "duration": 0.1029,
      "velocity": 115,
      "chip": "ym2612"
    },
    {
      "channel": 1,
      "note": 81,
      "start": 35.1598,
      "duration": 0.3067,
      "velocity": 100,
      "chip": "ym2612"
    },
    {
      "channel": 0,
      "note": 66,
      "start": 35.1692,
      "duration": 0.0977,
      "velocity": 93,
      "chip": "ym2612"
    },
    {
      "channel": 4,
      "note": 38,
      "start": 35.1739,
      "duration": 0.0837,
      "velocity": 113,
      "chip": "ym2612"
    },
    {
      "channel": 5,
      "note": 66,
      "start": 35.1784,
      "duration": 0.1816,
      "velocity": 127,
      "chip": "ym2612"
    },
    {
      "channel": 4,
      "note": 38,
      "start": 35.2583,
      "duration": 0.1162,
      "velocity": 113,
      "chip": "ym2612"
    },
    {
      "channel": 2,
      "note": 74,
      "start": 35.261,
      "duration": 0.1039,
      "velocity": 115,
      "chip": "ym2612"
    },
    {
      "channel": 0,
      "note": 66,
      "start": 35.2675,
      "duration": 0.1001,
      "velocity": 93,
      "chip": "ym2612"
    },
    {
      "channel": 5,
      "note": 66,
      "start": 35.3607,
      "duration": 0.2112,
      "velocity": 127,
      "chip": "ym2612"
    },
    {
      "channel": 2,
      "note": 86,
      "start": 35.3656,
      "duration": 0.0987,
      "velocity": 115,
      "chip": "ym2612"
    },
    {
      "channel": 0,
      "note": 66,
      "start": 35.3683,
      "duration": 0.1041,
      "velocity": 93,
      "chip": "ym2612"
    },
    {
      "channel": 4,
      "note": 38,
      "start": 35.3751,
      "duration": 0.1993,
      "velocity": 113,
      "chip": "ym2612"
    },
    {
      "channel": 2,
      "note": 74,
      "start": 35.4648,
      "duration": 0.1033,
      "velocity": 115,
      "chip": "ym2612"
    },
    {
      "channel": 1,
      "note": 74,
      "start": 35.4671,
      "duration": 0.3076,
      "velocity": 100,
      "chip": "ym2612"
    },
    {
      "channel": 0,
      "note": 66,
      "start": 35.4731,
      "duration": 0.105,
      "velocity": 93,
      "chip": "ym2612"
    },
    {
      "channel": 2,
      "note": 74,
      "start": 35.5687,
      "duration": 0.1037,
      "velocity": 115,
      "chip": "ym2612"
    },
    {
      "channel": 4,
      "note": 38,
      "start": 35.575,
      "duration": 0.0946,
      "velocity": 113,
      "chip": "ym2612"
    },
    {
      "channel": 0,
      "note": 66,
      "start": 35.5787,
      "duration": 0.0964,
      "velocity": 93,
      "chip": "ym2612"
    },
    {
      "channel": 5,
      "note": 66,
      "start": 35.5859,
      "duration": 0.0964,
      "velocity": 127,
      "chip": "ym2612"
    },
    {
      "channel": 4,
      "note": 38,
      "start": 35.6702,
      "duration": 0.123,
      "velocity": 113,
      "chip": "ym2612"
    },
    {
      "channel": 2,
      "note": 86,
      "start": 35.6731,
      "duration": 0.0994,
      "velocity": 115,
      "chip": "ym2612"
    },
    {
      "channel": 0,
      "note": 66,
      "start": 35.6757,
      "duration": 0.1074,
      "velocity": 93,
      "chip": "ym2612"
    },
    {
      "channel": 5,
      "note": 66,
      "start": 35.6829,
      "duration": 0.1081,
      "velocity": 127,
      "chip": "ym2612"
    },
    {
      "channel": 2,
      "note": 74,
      "start": 35.773,
      "duration": 0.1006,
      "velocity": 115,
      "chip": "ym2612"
    },
    {
      "channel": 1,
      "note": 79,
      "start": 35.7753,
      "duration": 0.1006,
      "velocity": 100,
      "chip": "ym2612"
    },
    {
      "channel": 0,
      "note": 66,
      "start": 35.7837,
      "duration": 0.0988,
      "velocity": 93,
      "chip": "ym2612"
    },
    {
      "channel": 5,
      "note": 66,
      "start": 35.7916,
      "duration": 0.0981,
      "velocity": 127,
      "chip": "ym2612"
    },
    {
      "channel": 4,
      "note": 38,
      "start": 35.7939,
      "duration": 0.195,
      "velocity": 113,
      "chip": "ym2612"
    },
    {
      "channel": 2,
      "note": 74,
      "start": 35.8743,
      "duration": 0.1057,
      "velocity": 115,
      "chip": "ym2612"
    },
    {
      "channel": 1,
      "note": 81,
      "start": 35.8765,
      "duration": 0.1057,
      "velocity": 100,
      "chip": "ym2612"
    },
    {
      "channel": 0,
      "note": 66,
      "start": 35.8832,
      "duration": 0.1012,
      "velocity": 93,
      "chip": "ym2612"
    },
    {
      "channel": 5,
      "note": 66,
      "start": 35.8904,
      "duration": 0.1029,
      "velocity": 127,
      "chip": "ym2612"
    },
    {
      "channel": 2,
      "note": 86,
      "start": 35.9806,
      "duration": 0.106,
      "velocity": 115,
      "chip": "ym2612"
    },
    {
      "channel": 1,
      "note": 86,
      "start": 35.9828,
      "duration": 0.2157,
      "velocity": 100,
      "chip": "ym2612"
    },
    {
      "channel": 0,
      "note": 66,
      "start": 35.9851,
      "duration": 0.1043,
      "velocity": 93,
      "chip": "ym2612"
    },
    {
      "channel": 4,
      "note": 38,
      "start": 35.9895,
      "duration": 0.0944,
      "velocity": 113,
      "chip": "ym2612"
    },
    {
      "channel": 5,
      "note": 66,
      "start": 35.994,
      "duration": 0.1993,
      "velocity": 127,
      "chip": "ym2612"
    },
    {
      "channel": 4,
      "note": 38,
      "start": 36.0844,
      "duration": 0.1257,
      "velocity": 113,
      "chip": "ym2612"
    },
    {
      "channel": 2,
      "note": 74,
      "start": 36.0872,
      "duration": 0.1256,
      "velocity": 115,
      "chip": "ym2612"
    },
    {
      "channel": 0,
      "note": 66,
      "start": 36.09,
      "duration": 0.101,
      "velocity": 93,
      "chip": "ym2612"
    },
    {
      "channel": 3,
      "note": 45,
      "start": 36.1872,
      "duration": 1.6367,
      "velocity": 97,
      "chip": "ym2612"
    },
    {
      "channel": 0,
      "note": 66,
      "start": 36.1916,
      "duration": 0.0978,
      "velocity": 93,
      "chip": "ym2612"
    },
    {
      "channel": 1,
      "note": 69,
      "start": 36.1991,
      "duration": 0.2978,
      "velocity": 100,
      "chip": "ym2612"
    },
    {
      "channel": 5,
      "note": 66,
      "start": 36.2085,
      "duration": 0.1852,
      "velocity": 127,
      "chip": "ym2612"
    },
    {
      "channel": 4,
      "note": 45,
      "start": 36.2108,
      "duration": 0.1918,
      "velocity": 113,
      "chip": "ym2612"
    },
    {
      "channel": 2,
      "note": 69,
      "start": 36.2135,
      "duration": 0.0695,
      "velocity": 115,
      "chip": "ym2612"
    },
    {
      "channel": 2,
      "note": 69,
      "start": 36.2836,
      "duration": 0.106,
      "velocity": 115,
      "chip": "ym2612"
    },
    {
      "channel": 0,
      "note": 66,
      "start": 36.2901,
      "duration": 0.1095,
      "velocity": 93,
      "chip": "ym2612"
    },
    {
      "channel": 2,
      "note": 81,
      "start": 36.3902,
      "duration": 0.1044,
      "velocity": 115,
      "chip": "ym2612"
    },
    {
      "channel": 5,
      "note": 66,
      "start": 36.3944,
      "duration": 0.1977,
      "velocity": 127,
      "chip": "ym2612"
    },
    {
      "channel": 0,
      "note": 66,
      "start": 36.4002,
      "duration": 0.0989,
      "velocity": 93,
      "chip": "ym2612"
    },
    {
      "channel": 4,
      "note": 45,
      "start": 36.4032,
      "duration": 0.0888,
      "velocity": 113,
      "chip": "ym2612"
    },
    {
      "channel": 4,
      "note": 45,
      "start": 36.4926,
      "duration": 0.1176,
      "velocity": 113,
      "chip": "ym2612"
    },
    {
      "channel": 2,
      "note": 69,
      "start": 36.4953,
      "duration": 0.1018,
      "velocity": 115,
      "chip": "ym2612"
    },
    {
      "channel": 1,
      "note": 72,
      "start": 36.4976,
      "duration": 0.309,
      "velocity": 100,
      "chip": "ym2612"
    },
    {
      "channel": 0,
      "note": 66,
      "start": 36.4998,
      "duration": 0.1001,
      "velocity": 93,
      "chip": "ym2612"
    },
    {
      "channel": 2,
      "note": 69,
      "start": 36.5978,
      "duration": 0.1026,
      "velocity": 115,
      "chip": "ym2612"
    },
    {
      "channel": 0,
      "note": 66,
      "start": 36.6005,
      "duration": 0.1026,
      "velocity": 93,
      "chip": "ym2612"
    },
    {
      "channel": 5,
      "note": 66,
      "start": 36.6085,
      "duration": 0.1906,
      "velocity": 127,
      "chip": "ym2612"
    },
    {
      "channel": 4,
      "note": 45,
      "start": 36.6108,
      "duration": 0.2027,
      "velocity": 113,
      "chip": "ym2612"
    },
    {
      "channel": 2,
      "note": 81,
      "start": 36.701,
      "duration": 0.1032,
      "velocity": 115,
      "chip": "ym2612"
    },
    {
      "channel": 0,
      "note": 66,
      "start": 36.7038,
      "duration": 0.105,
      "velocity": 93,
      "chip": "ym2612"
    },
    {
      "channel": 2,
      "note": 69,
      "start": 36.8049,
      "duration": 0.0994,
      "velocity": 115,
      "chip": "ym2612"
    },
    {
      "channel": 1,
      "note": 74,
      "start": 36.8071,
      "duration": 0.3026,
      "velocity": 100,
      "chip": "ym2612"
    },
    {
      "channel": 0,
      "note": 66,
      "start": 36.8094,
      "duration": 0.0976,
      "velocity": 93,
      "chip": "ym2612"
    },
    {
      "channel": 4,
      "note": 45,
      "start": 36.8141,
      "duration": 0.0874,
      "velocity": 113,
      "chip": "ym2612"
    },
    {
      "channel": 5,
      "note": 66,
      "start": 36.8186,
      "duration": 0.1872,
      "velocity": 127,
      "chip": "ym2612"
    },
    {
      "channel": 4,
      "note": 45,
      "start": 36.9022,
      "duration": 0.1188,
      "velocity": 113,
      "chip": "ym2612"
    },
    {
      "channel": 2,
      "note": 69,
      "start": 36.9049,
      "duration": 0.1058,
      "velocity": 115,
      "chip": "ym2612"
    },
    {
      "channel": 0,
      "note": 66,
      "start": 36.9077,
      "duration": 0.1102,
      "velocity": 93,
      "chip": "ym2612"
    },
    {
      "channel": 5,
      "note": 66,
      "start": 37.0064,
      "duration": 0.2022,
      "velocity": 127,
      "chip": "ym2612"
    },
    {
      "channel": 2,
      "note": 81,
      "start": 37.0113,
      "duration": 0.0961,
      "velocity": 115,
      "chip": "ym2612"
    },
    {
      "channel": 0,
      "note": 66,
      "start": 37.0185,
      "duration": 0.0972,
      "velocity": 93,
      "chip": "ym2612"
    },
    {
      "channel": 4,
      "note": 45,
      "start": 37.0216,
      "duration": 0.1994,
      "velocity": 113,
      "chip": "ym2612"
    },
    {
      "channel": 2,
      "note": 69,
      "start": 37.1081,
      "duration": 0.1057,
      "velocity": 115,
      "chip": "ym2612"
    },
    {
      "channel": 1,
      "note": 69,
      "start": 37.1103,
      "duration": 0.3102,
      "velocity": 100,
      "chip": "ym2612"
    },
    {
      "channel": 0,
      "note": 66,
      "start": 37.1164,
      "duration": 0.1001,
      "velocity": 93,
      "chip": "ym2612"
    },
    {
      "channel": 2,
      "note": 69,
      "start": 37.2144,
      "duration": 0.1045,
      "velocity": 115,
      "chip": "ym2612"
    },
    {
      "channel": 0,
      "note": 66,
      "start": 37.2171,
      "duration": 0.1044,
      "velocity": 93,
      "chip": "ym2612"
    },
    {
      "channel": 4,
      "note": 45,
      "start": 37.2217,
      "duration": 0.0945,
      "velocity": 113,
      "chip": "ym2612"
    },
    {
      "channel": 5,
      "note": 66,
      "start": 37.2261,
      "duration": 0.1027,
      "velocity": 127,
      "chip": "ym2612"
    },
    {
      "channel": 4,
      "note": 45,
      "start": 37.3168,
      "duration": 0.1168,
      "velocity": 113,
      "chip": "ym2612"
    },
    {
      "channel": 2,
      "note": 81,
      "start": 37.3195,
      "duration": 0.0987,
      "velocity": 115,
      "chip": "ym2612"
    },
    {
      "channel": 0,
      "note": 66,
      "start": 37.3222,
      "duration": 0.1066,
      "velocity": 93,
      "chip": "ym2612"
    },
    {
      "channel": 5,
      "note": 66,
      "start": 37.3294,
      "duration": 0.1019,
      "velocity": 127,
      "chip": "ym2612"
    },
    {
      "channel": 2,
      "note": 69,
      "start": 37.4188,
      "duration": 0.0989,
      "velocity": 115,
      "chip": "ym2612"
    },
    {
      "channel": 1,
      "note": 72,
      "start": 37.4211,
      "duration": 0.0989,
      "velocity": 100,
      "chip": "ym2612"
    },
    {
      "channel": 0,
      "note": 66,
      "start": 37.4294,
      "duration": 0.0982,
      "velocity": 93,
      "chip": "ym2612"
    },
    {
      "channel": 5,
      "note": 66,
      "start": 37.432,
      "duration": 0.0982,
      "velocity": 127,
      "chip": "ym2612"
    },
    {
      "channel": 4,
      "note": 45,
      "start": 37.4342,
      "duration": 0.1994,
      "velocity": 113,
      "chip": "ym2612"
    },
    {
      "channel": 2,
      "note": 69,
      "start": 37.5184,
      "duration": 0.1073,
      "velocity": 115,
      "chip": "ym2612"
    },
    {
      "channel": 1,
      "note": 74,
      "start": 37.5206,
      "duration": 0.1074,
      "velocity": 100,
      "chip": "ym2612"
    },
    {
      "channel": 0,
      "note": 66,
      "start": 37.5282,
      "duration": 0.1092,
      "velocity": 93,
      "chip": "ym2612"
    },
    {
      "channel": 5,
      "note": 66,
      "start": 37.5307,
      "duration": 0.1092,
      "velocity": 127,
      "chip": "ym2612"
    },
    {
      "channel": 2,
      "note": 81,
      "start": 37.6264,
      "duration": 0.0992,
      "velocity": 115,
      "chip": "ym2612"
    },
    {
      "channel": 1,
      "note": 67,
      "start": 37.6287,
      "duration": 0.1985,
      "velocity": 100,
      "chip": "ym2612"
    },
    {
      "channel": 4,
      "note": 45,
      "start": 37.6343,
      "duration": 0.0886,
      "velocity": 113,
      "chip": "ym2612"
    },
    {
      "channel": 0,
      "note": 66,
      "start": 37.638,
      "duration": 0.0948,
      "velocity": 93,
      "chip": "ym2612"
    },
    {
      "channel": 5,
      "note": 66,
      "start": 37.6405,
      "duration": 0.1982,
      "velocity": 127,
      "chip": "ym2612"
    },
    {
      "channel": 4,
      "note": 45,
      "start": 37.7235,
      "duration": 0.1249,
      "velocity": 113,
      "chip": "ym2612"
    },
    {
      "channel": 2,
      "note": 69,
      "start": 37.7262,
      "duration": 0.1165,
      "velocity": 115,
      "chip": "ym2612"
    },
    {
      "channel": 0,
      "note": 66,
      "start": 37.7334,
      "duration": 0.1029,
      "velocity": 93,
      "chip": "ym2612"
    },
    {
      "channel": 3,
      "note": 55,
      "start": 37.8245,
      "duration": 0.3105,
      "velocity": 97,
      "chip": "ym2612"
    },
    {
      "channel": 1,
      "note": 91,
      "start": 37.8278,
      "duration": 0.105,
      "velocity": 100,
      "chip": "ym2612"
    },
    {
      "channel": 0,
      "note": 66,
      "start": 37.837,
      "duration": 0.1018,
      "velocity": 93,
      "chip": "ym2612"
    },
    {
      "channel": 2,
      "note": 69,
      "start": 37.8434,
      "duration": 0.0872,
      "velocity": 115,
      "chip": "ym2612"
    },
    {
      "channel": 4,
      "note": 55,
      "start": 37.8491,
      "duration": 0.2837,
      "velocity": 113,
      "chip": "ym2612"
    },
    {
      "channel": 5,
      "note": 66,
      "start": 37.8535,
      "duration": 0.1779,
      "velocity": 127,
      "chip": "ym2612"
    },
    {
      "channel": 2,
      "note": 69,
      "start": 37.9312,
      "duration": 0.1034,
      "velocity": 115,
      "chip": "ym2612"
    },
    {
      "channel": 1,
      "note": 79,
      "start": 37.9334,
      "duration": 0.1034,
      "velocity": 100,
      "chip": "ym2612"
    },
    {
      "channel": 0,
      "note": 66,
      "start": 37.9395,
      "duration": 0.1034,
      "velocity": 93,
      "chip": "ym2612"
    },
    {
      "channel": 5,
      "note": 66,
      "start": 38.032,
      "duration": 0.2058,
      "velocity": 127,
      "chip": "ym2612"
    },
    {
      "channel": 2,
      "note": 81,
      "start": 38.0352,
      "duration": 0.1021,
      "velocity": 115,
      "chip": "ym2612"
    },
    {
      "channel": 1,
      "note": 91,
      "start": 38.0375,
      "duration": 0.102,
      "velocity": 100,
      "chip": "ym2612"
    },
    {
      "channel": 0,
      "note": 66,
      "start": 38.0435,
      "duration": 0.1021,
      "velocity": 93,
      "chip": "ym2612"
    },
    {
      "channel": 4,
      "note": 54,
      "start": 38.1334,
      "duration": 0.3127,
      "velocity": 113,
      "chip": "ym2612"
    },
    {
      "channel": 3,
      "note": 54,
      "start": 38.1356,
      "duration": 0.3126,
      "velocity": 97,
      "chip": "ym2612"
    },
    {
      "channel": 2,
      "note": 69,
      "start": 38.1379,
      "duration": 0.1033,
      "velocity": 115,
      "chip": "ym2612"
    },
    {
      "channel": 1,
      "note": 90,
      "start": 38.1402,
      "duration": 0.1034,
      "velocity": 100,
      "chip": "ym2612"
    },
    {
      "channel": 0,
      "note": 66,
      "start": 38.1462,
      "duration": 0.1048,
      "velocity": 93,
      "chip": "ym2612"
    },
    {
      "channel": 2,
      "note": 69,
      "start": 38.2419,
      "duration": 0.0987,
      "velocity": 115,
      "chip": "ym2612"
    },
    {
      "channel": 1,
      "note": 78,
      "start": 38.2442,
      "duration": 0.0986,
      "velocity": 100,
      "chip": "ym2612"
    },
    {
      "channel": 0,
      "note": 66,
      "start": 38.2517,
      "duration": 0.0971,
      "velocity": 93,
      "chip": "ym2612"
    },
    {
      "channel": 5,
      "note": 66,
      "start": 38.2542,
      "duration": 0.1893,
      "velocity": 127,
      "chip": "ym2612"
    },
    {
      "channel": 2,
      "note": 81,
      "start": 38.3412,
      "duration": 0.1094,
      "velocity": 115,
      "chip": "ym2612"
    },
    {
      "channel": 1,
      "note": 90,
      "start": 38.3434,
      "duration": 0.0968,
      "velocity": 100,
      "chip": "ym2612"
    },
    {
      "channel": 0,
      "note": 66,
      "start": 38.3495,
      "duration": 0.1038,
      "velocity": 93,
      "chip": "ym2612"
    },
    {
      "channel": 1,
      "note": 89,
      "start": 38.4407,
      "duration": 0.1091,
      "velocity": 100,
      "chip": "ym2612"
    },
    {
      "channel": 4,
      "note": 53,
      "start": 38.4466,
      "duration": 0.3039,
      "velocity": 113,
      "chip": "ym2612"
    },
    {
      "channel": 3,
      "note": 53,
      "start": 38.4489,
      "duration": 0.3038,
      "velocity": 97,
      "chip": "ym2612"
    },
    {
      "channel": 2,
      "note": 69,
      "start": 38.4512,
      "duration": 0.0964,
      "velocity": 115,
      "chip": "ym2612"
    },
    {
      "channel": 0,
      "note": 66,
      "start": 38.4539,
      "duration": 0.102,
      "velocity": 93,
      "chip": "ym2612"
    },
    {
      "channel": 5,
      "note": 66,
      "start": 38.4613,
      "duration": 0.1896,
      "velocity": 127,
      "chip": "ym2612"
    },
    {
      "channel": 2,
      "note": 69,
      "start": 38.5483,
      "duration": 0.1059,
      "velocity": 115,
      "chip": "ym2612"
    },
    {
      "channel": 1,
      "note": 77,
      "start": 38.5505,
      "duration": 0.0968,
      "velocity": 100,
      "chip": "ym2612"
    },
    {
      "channel": 0,
      "note": 66,
      "start": 38.5565,
      "duration": 0.1003,
      "velocity": 93,
      "chip": "ym2612"
    },
    {
      "channel": 1,
      "note": 89,
      "start": 38.6478,
      "duration": 0.1094,
      "velocity": 100,
      "chip": "ym2612"
    },
    {
      "channel": 5,
      "note": 66,
      "start": 38.6515,
      "duration": 0.2039,
      "velocity": 127,
      "chip": "ym2612"
    },
    {
      "channel": 2,
      "note": 81,
      "start": 38.6547,
      "duration": 0.1002,
      "velocity": 115,
      "chip": "ym2612"
    },
    {
      "channel": 0,
      "note": 66,
      "start": 38.6575,
      "duration": 0.102,
      "velocity": 93,
      "chip": "ym2612"
    },
    {
      "channel": 4,
      "note": 52,
      "start": 38.7511,
      "duration": 0.3056,
      "velocity": 113,
      "chip": "ym2612"
    },
    {
      "channel": 3,
      "note": 52,
      "start": 38.7533,
      "duration": 0.3057,
      "velocity": 97,
      "chip": "ym2612"
    },
    {
      "channel": 2,
      "note": 69,
      "start": 38.7556,
      "duration": 0.1032,
      "velocity": 115,
      "chip": "ym2612"
    },
    {
      "channel": 1,
      "note": 88,
      "start": 38.7578,
      "duration": 0.1033,
      "velocity": 100,
      "chip": "ym2612"
    },
    {
      "channel": 0,
      "note": 66,
      "start": 38.7601,
      "duration": 0.1032,
      "velocity": 93,
      "chip": "ym2612"
    },
    {
      "channel": 2,
      "note": 69,
      "start": 38.8595,
      "duration": 0.0995,
      "velocity": 115,
      "chip": "ym2612"
    },
    {
      "channel": 1,
      "note": 76,
      "start": 38.8618,
      "duration": 0.0995,
      "velocity": 100,
      "chip": "ym2612"
    },
    {
      "channel": 0,
      "note": 66,
      "start": 38.864,
      "duration": 0.0995,
      "velocity": 93,
      "chip": "ym2612"
    },
    {
      "channel": 5,
      "note": 66,
      "start": 38.8712,
      "duration": 0.0995,
      "velocity": 127,
      "chip": "ym2612"
    },
    {
      "channel": 2,
      "note": 81,
      "start": 38.9596,
      "duration": 0.1017,
      "velocity": 115,
      "chip": "ym2612"
    },
    {
      "channel": 1,
      "note": 88,
      "start": 38.9619,
      "duration": 0.1017,
      "velocity": 100,
      "chip": "ym2612"
    },
    {
      "channel": 0,
      "note": 66,
      "start": 38.9641,
      "duration": 0.1062,
      "velocity": 93,
      "chip": "ym2612"
    },
    {
      "channel": 5,
      "note": 66,
      "start": 38.9713,
      "duration": 0.1062,
      "velocity": 127,
      "chip": "ym2612"
    },
    {
      "channel": 4,
      "note": 51,
      "start": 39.0574,
      "duration": 0.2063,
      "velocity": 113,
      "chip": "ym2612"
    },
    {
      "channel": 3,
      "note": 51,
      "start": 39.0597,
      "duration": 0.2063,
      "velocity": 97,
      "chip": "ym2612"
    },
    {
      "channel": 2,
      "note": 69,
      "start": 39.062,
      "duration": 0.1039,
      "velocity": 115,
      "chip": "ym2612"
    },
    {
      "channel": 1,
      "note": 87,
      "start": 39.0642,
      "duration": 0.104,
      "velocity": 100,
      "chip": "ym2612"
    },
    {
      "channel": 0,
      "note": 66,
      "start": 39.071,
      "duration": 0.0995,
      "velocity": 93,
      "chip": "ym2612"
    },
    {
      "channel": 5,
      "note": 66,
      "start": 39.0781,
      "duration": 0.0995,
      "velocity": 127,
      "chip": "ym2612"
    },
    {
      "channel": 2,
      "note": 69,
      "start": 39.1666,
      "duration": 0.1018,
      "velocity": 115,
      "chip": "ym2612"
    },
    {
      "channel": 1,
      "note": 75,
      "start": 39.1688,
      "duration": 0.1017,
      "velocity": 100,
      "chip": "ym2612"
    },
    {
      "channel": 0,
      "note": 66,
      "start": 39.1711,
      "duration": 0.1062,
      "velocity": 93,
      "chip": "ym2612"
    },
    {
      "channel": 5,
      "note": 66,
      "start": 39.1783,
      "duration": 0.1062,
      "velocity": 127,
      "chip": "ym2612"
    },
    {
      "channel": 4,
      "note": 48,
      "start": 39.2643,
      "duration": 0.2258,
      "velocity": 113,
      "chip": "ym2612"
    },
    {
      "channel": 3,
      "note": 48,
      "start": 39.2666,
      "duration": 0.2143,
      "velocity": 97,
      "chip": "ym2612"
    },
    {
      "channel": 2,
      "note": 81,
      "start": 39.269,
      "duration": 0.0964,
      "velocity": 115,
      "chip": "ym2612"
    },
    {
      "channel": 1,
      "note": 84,
      "start": 39.2712,
      "duration": 0.0964,
      "velocity": 100,
      "chip": "ym2612"
    },
    {
      "channel": 0,
      "note": 66,
      "start": 39.278,
      "duration": 0.0964,
      "velocity": 93,
      "chip": "ym2612"
    },
    {
      "channel": 5,
      "note": 66,
      "start": 39.2851,
      "duration": 0.192,
      "velocity": 127,
      "chip": "ym2612"
    },
    {
      "channel": 2,
      "note": 69,
      "start": 39.3659,
      "duration": 0.144,
      "velocity": 115,
      "chip": "ym2612"
    },
    {
      "channel": 1,
      "note": 72,
      "start": 39.3682,
      "duration": 0.1255,
      "velocity": 100,
      "chip": "ym2612"
    },
    {
      "channel": 0,
      "note": 66,
      "start": 39.375,
      "duration": 0.1104,
      "velocity": 93,
      "chip": "ym2612"
    },
    {
      "channel": 3,
      "note": 45,
      "start": 39.4816,
      "duration": 3.2729,
      "velocity": 97,
      "chip": "ym2612"
    },
    {
      "channel": 0,
      "note": 66,
      "start": 39.486,
      "duration": 0.0938,
      "velocity": 93,
      "chip": "ym2612"
    },
    {
      "channel": 4,
      "note": 45,
      "start": 39.4907,
      "duration": 0.1911,
      "velocity": 113,
      "chip": "ym2612"
    },
    {
      "channel": 5,
      "note": 66,
      "start": 39.4976,
      "duration": 0.182,
      "velocity": 127,
      "chip": "ym2612"
    },
    {
      "channel": 2,
      "note": 69,
      "start": 39.5106,
      "duration": 0.0627,
      "velocity": 115,
      "chip": "ym2612"
    },
    {
      "channel": 1,
      "note": 69,
      "start": 39.5168,
      "duration": 0.2649,
      "velocity": 106,
      "chip": "ym2612"
    },
    {
      "channel": 2,
      "note": 69,
      "start": 39.5739,
      "duration": 0.1015,
      "velocity": 115,
      "chip": "ym2612"
    },
    {
      "channel": 0,
      "note": 66,
      "start": 39.5804,
      "duration": 0.1051,
      "velocity": 93,
      "chip": "ym2612"
    },
    {
      "channel": 2,
      "note": 81,
      "start": 39.676,
      "duration": 0.1034,
      "velocity": 115,
      "chip": "ym2612"
    },
    {
      "channel": 5,
      "note": 66,
      "start": 39.6802,
      "duration": 0.2039,
      "velocity": 127,
      "chip": "ym2612"
    },
    {
      "channel": 4,
      "note": 45,
      "start": 39.6825,
      "duration": 0.1034,
      "velocity": 113,
      "chip": "ym2612"
    },
    {
      "channel": 0,
      "note": 66,
      "start": 39.6862,
      "duration": 0.1034,
      "velocity": 93,
      "chip": "ym2612"
    },
    {
      "channel": 2,
      "note": 69,
      "start": 39.7801,
      "duration": 0.1002,
      "velocity": 115,
      "chip": "ym2612"
    },
    {
      "channel": 1,
      "note": 72,
      "start": 39.7823,
      "duration": 0.3073,
      "velocity": 106,
      "chip": "ym2612"
    },
    {
      "channel": 4,
      "note": 45,
      "start": 39.7865,
      "duration": 0.114,
      "velocity": 113,
      "chip": "ym2612"
    },
    {
      "channel": 0,
      "note": 66,
      "start": 39.7902,
      "duration": 0.1001,
      "velocity": 93,
      "chip": "ym2612"
    },
    {
      "channel": 2,
      "note": 69,
      "start": 39.881,
      "duration": 0.1035,
      "velocity": 115,
      "chip": "ym2612"
    },
    {
      "channel": 0,
      "note": 66,
      "start": 39.8909,
      "duration": 0.0963,
      "velocity": 93,
      "chip": "ym2612"
    },
    {
      "channel": 5,
      "note": 66,
      "start": 39.8988,
      "duration": 0.1942,
      "velocity": 127,
      "chip": "ym2612"
    },
    {
      "channel": 4,
      "note": 45,
      "start": 39.9011,
      "duration": 0.2027,
      "velocity": 113,
      "chip": "ym2612"
    },
    {
      "channel": 2,
      "note": 81,
      "start": 39.9851,
      "duration": 0.1023,
      "velocity": 115,
      "chip": "ym2612"
    },
    {
      "channel": 0,
      "note": 66,
      "start": 39.9879,
      "duration": 0.1113,
      "velocity": 93,
      "chip": "ym2612"
    },
    {
      "channel": 2,
      "note": 69,
      "start": 40.0881,
      "duration": 0.1028,
      "velocity": 115,
      "chip": "ym2612"
    },
    {
      "channel": 1,
      "note": 74,
      "start": 40.0903,
      "duration": 0.3049,
      "velocity": 106,
      "chip": "ym2612"
    },
    {
      "channel": 0,
      "note": 66,
      "start": 40.0998,
      "duration": 0.0976,
      "velocity": 93,
      "chip": "ym2612"
    },
    {
      "channel": 4,
      "note": 45,
      "start": 40.1045,
      "duration": 0.0837,
      "velocity": 113,
      "chip": "ym2612"
    },
    {
      "channel": 5,
      "note": 66,
      "start": 40.1089,
      "duration": 0.1816,
      "velocity": 127,
      "chip": "ym2612"
    },
    {
      "channel": 4,
      "note": 45,
      "start": 40.1888,
      "duration": 0.1163,
      "velocity": 113,
      "chip": "ym2612"
    },
    {
      "channel": 2,
      "note": 69,
      "start": 40.1915,
      "duration": 0.1039,
      "velocity": 115,
      "chip": "ym2612"
    },
    {
      "channel": 0,
      "note": 66,
      "start": 40.198,
      "duration": 0.1002,
      "velocity": 93,
      "chip": "ym2612"
    },
    {
      "channel": 5,
      "note": 66,
      "start": 40.2912,
      "duration": 0.2096,
      "velocity": 127,
      "chip": "ym2612"
    },
    {
      "channel": 2,
      "note": 81,
      "start": 40.2961,
      "duration": 0.1042,
      "velocity": 115,
      "chip": "ym2612"
    },
    {
      "channel": 0,
      "note": 66,
      "start": 40.2988,
      "duration": 0.1041,
      "velocity": 93,
      "chip": "ym2612"
    },
    {
      "channel": 4,
      "note": 45,
      "start": 40.3057,
      "duration": 0.2057,
      "velocity": 113,
      "chip": "ym2612"
    },
    {
      "channel": 1,
      "note": 69,
      "start": 40.3958,
      "duration": 0.3077,
      "velocity": 106,
      "chip": "ym2612"
    },
    {
      "channel": 2,
      "note": 69,
      "start": 40.4009,
      "duration": 0.0961,
      "velocity": 115,
      "chip": "ym2612"
    },
    {
      "channel": 0,
      "note": 66,
      "start": 40.4036,
      "duration": 0.1033,
      "velocity": 93,
      "chip": "ym2612"
    },
    {
      "channel": 2,
      "note": 69,
      "start": 40.4976,
      "duration": 0.1055,
      "velocity": 115,
      "chip": "ym2612"
    },
    {
      "channel": 0,
      "note": 66,
      "start": 40.5075,
      "duration": 0.0982,
      "velocity": 93,
      "chip": "ym2612"
    },
    {
      "channel": 4,
      "note": 45,
      "start": 40.512,
      "duration": 0.0882,
      "velocity": 113,
      "chip": "ym2612"
    },
    {
      "channel": 5,
      "note": 66,
      "start": 40.5165,
      "duration": 0.0964,
      "velocity": 127,
      "chip": "ym2612"
    },
    {
      "channel": 4,
      "note": 45,
      "start": 40.6009,
      "duration": 0.123,
      "velocity": 113,
      "chip": "ym2612"
    },
    {
      "channel": 2,
      "note": 81,
      "start": 40.6037,
      "duration": 0.1073,
      "velocity": 115,
      "chip": "ym2612"
    },
    {
      "channel": 0,
      "note": 66,
      "start": 40.6063,
      "duration": 0.1074,
      "velocity": 93,
      "chip": "ym2612"
    },
    {
      "channel": 5,
      "note": 66,
      "start": 40.6135,
      "duration": 0.1081,
      "velocity": 127,
      "chip": "ym2612"
    },
    {
      "channel": 1,
      "note": 72,
      "start": 40.7041,
      "duration": 0.1006,
      "velocity": 106,
      "chip": "ym2612"
    },
    {
      "channel": 2,
      "note": 69,
      "start": 40.7116,
      "duration": 0.0989,
      "velocity": 115,
      "chip": "ym2612"
    },
    {
      "channel": 0,
      "note": 66,
      "start": 40.7143,
      "duration": 0.0989,
      "velocity": 93,
      "chip": "ym2612"
    },
    {
      "channel": 5,
      "note": 66,
      "start": 40.7222,
      "duration": 0.0982,
      "velocity": 127,
      "chip": "ym2612"
    },
    {
      "channel": 4,
      "note": 45,
      "start": 40.7245,
      "duration": 0.1932,
      "velocity": 113,
      "chip": "ym2612"
    },
    {
      "channel": 1,
      "note": 74,
      "start": 40.8053,
      "duration": 0.1068,
      "velocity": 106,
      "chip": "ym2612"
    },
    {
      "channel": 2,
      "note": 69,
      "start": 40.8111,
      "duration": 0.0987,
      "velocity": 115,
      "chip": "ym2612"
    },
    {
      "channel": 0,
      "note": 66,
      "start": 40.8138,
      "duration": 0.1076,
      "velocity": 93,
      "chip": "ym2612"
    },
    {
      "channel": 5,
      "note": 66,
      "start": 40.821,
      "duration": 0.103,
      "velocity": 127,
      "chip": "ym2612"
    },
    {
      "channel": 2,
      "note": 81,
      "start": 40.9105,
      "duration": 0.1068,
      "velocity": 115,
      "chip": "ym2612"
    },
    {
      "channel": 1,
      "note": 67,
      "start": 40.9127,
      "duration": 0.2149,
      "velocity": 106,
      "chip": "ym2612"
    },
    {
      "channel": 4,
      "note": 45,
      "start": 40.9183,
      "duration": 0.0961,
      "velocity": 113,
      "chip": "ym2612"
    },
    {
      "channel": 0,
      "note": 66,
      "start": 40.9221,
      "duration": 0.0978,
      "velocity": 93,
      "chip": "ym2612"
    },
    {
      "channel": 5,
      "note": 66,
      "start": 40.9246,
      "duration": 0.1976,
      "velocity": 127,
      "chip": "ym2612"
    },
    {
      "channel": 4,
      "note": 45,
      "start": 41.0151,
      "duration": 0.1178,
      "velocity": 113,
      "chip": "ym2612"
    },
    {
      "channel": 2,
      "note": 69,
      "start": 41.0179,
      "duration": 0.1177,
      "velocity": 115,
      "chip": "ym2612"
    },
    {
      "channel": 0,
      "note": 66,
      "start": 41.0206,
      "duration": 0.0994,
      "velocity": 93,
      "chip": "ym2612"
    },
    {
      "channel": 0,
      "note": 66,
      "start": 41.1206,
      "duration": 0.0996,
      "velocity": 93,
      "chip": "ym2612"
    },
    {
      "channel": 1,
      "note": 69,
      "start": 41.1283,
      "duration": 0.2994,
      "velocity": 106,
      "chip": "ym2612"
    },
    {
      "channel": 4,
      "note": 45,
      "start": 41.1335,
      "duration": 0.1998,
      "velocity": 113,
      "chip": "ym2612"
    },
    {
      "channel": 2,
      "note": 69,
      "start": 41.1362,
      "duration": 0.0775,
      "velocity": 115,
      "chip": "ym2612"
    },
    {
      "channel": 5,
      "note": 66,
      "start": 41.1397,
      "duration": 0.1847,
      "velocity": 127,
      "chip": "ym2612"
    },
    {
      "channel": 2,
      "note": 69,
      "start": 41.2143,
      "duration": 0.106,
      "velocity": 115,
      "chip": "ym2612"
    },
    {
      "channel": 0,
      "note": 66,
      "start": 41.2208,
      "duration": 0.1095,
      "velocity": 93,
      "chip": "ym2612"
    },
    {
      "channel": 2,
      "note": 81,
      "start": 41.3209,
      "duration": 0.1045,
      "velocity": 115,
      "chip": "ym2612"
    },
    {
      "channel": 5,
      "note": 66,
      "start": 41.3251,
      "duration": 0.1971,
      "velocity": 127,
      "chip": "ym2612"
    },
    {
      "channel": 0,
      "note": 66,
      "start": 41.331,
      "duration": 0.099,
      "velocity": 93,
      "chip": "ym2612"
    },
    {
      "channel": 4,
      "note": 45,
      "start": 41.3339,
      "duration": 0.0888,
      "velocity": 113,
      "chip": "ym2612"
    },
    {
      "channel": 4,
      "note": 45,
      "start": 41.4233,
      "duration": 0.1176,
      "velocity": 113,
      "chip": "ym2612"
    },
    {
      "channel": 2,
      "note": 69,
      "start": 41.426,
      "duration": 0.1013,
      "velocity": 115,
      "chip": "ym2612"
    },
    {
      "channel": 1,
      "note": 72,
      "start": 41.4283,
      "duration": 0.3083,
      "velocity": 106,
      "chip": "ym2612"
    },
    {
      "channel": 0,
      "note": 66,
      "start": 41.4306,
      "duration": 0.1055,
      "velocity": 93,
      "chip": "ym2612"
    },
    {
      "channel": 2,
      "note": 69,
      "start": 41.528,
      "duration": 0.1032,
      "velocity": 115,
      "chip": "ym2612"
    },
    {
      "channel": 0,
      "note": 66,
      "start": 41.5367,
      "duration": 0.0973,
      "velocity": 93,
      "chip": "ym2612"
    },
    {
      "channel": 5,
      "note": 66,
      "start": 41.5392,
      "duration": 0.19,
      "velocity": 127,
      "chip": "ym2612"
    },
    {
      "channel": 4,
      "note": 45,
      "start": 41.5415,
      "duration": 0.2009,
      "velocity": 113,
      "chip": "ym2612"
    },
    {
      "channel": 2,
      "note": 81,
      "start": 41.6318,
      "duration": 0.1026,
      "velocity": 115,
      "chip": "ym2612"
    },
    {
      "channel": 0,
      "note": 66,
      "start": 41.6346,
      "duration": 0.1116,
      "velocity": 93,
      "chip": "ym2612"
    },
    {
      "channel": 2,
      "note": 69,
      "start": 41.735,
      "duration": 0.1,
      "velocity": 115,
      "chip": "ym2612"
    },
    {
      "channel": 1,
      "note": 74,
      "start": 41.7372,
      "duration": 0.3031,
      "velocity": 106,
      "chip": "ym2612"
    },
    {
      "channel": 4,
      "note": 45,
      "start": 41.743,
      "duration": 0.0892,
      "velocity": 113,
      "chip": "ym2612"
    },
    {
      "channel": 0,
      "note": 66,
      "start": 41.7468,
      "duration": 0.091,
      "velocity": 93,
      "chip": "ym2612"
    },
    {
      "channel": 5,
      "note": 66,
      "start": 41.7493,
      "duration": 0.1872,
      "velocity": 127,
      "chip": "ym2612"
    },
    {
      "channel": 4,
      "note": 45,
      "start": 41.8329,
      "duration": 0.1188,
      "velocity": 113,
      "chip": "ym2612"
    },
    {
      "channel": 2,
      "note": 69,
      "start": 41.8356,
      "duration": 0.1058,
      "velocity": 115,
      "chip": "ym2612"
    },
    {
      "channel": 0,
      "note": 66,
      "start": 41.8384,
      "duration": 0.1102,
      "velocity": 93,
      "chip": "ym2612"
    },
    {
      "channel": 5,
      "note": 66,
      "start": 41.9371,
      "duration": 0.2022,
      "velocity": 127,
      "chip": "ym2612"
    },
    {
      "channel": 2,
      "note": 81,
      "start": 41.9421,
      "duration": 0.0961,
      "velocity": 115,
      "chip": "ym2612"
    },
    {
      "channel": 0,
      "note": 66,
      "start": 41.9493,
      "duration": 0.0971,
      "velocity": 93,
      "chip": "ym2612"
    },
    {
      "channel": 4,
      "note": 45,
      "start": 41.9523,
      "duration": 0.1994,
      "velocity": 113,
      "chip": "ym2612"
    },
    {
      "channel": 2,
      "note": 69,
      "start": 42.0388,
      "duration": 0.1056,
      "velocity": 115,
      "chip": "ym2612"
    },
    {
      "channel": 1,
      "note": 69,
      "start": 42.041,
      "duration": 0.3095,
      "velocity": 106,
      "chip": "ym2612"
    },
    {
      "channel": 0,
      "note": 66,
      "start": 42.047,
      "duration": 0.1001,
      "velocity": 93,
      "chip": "ym2612"
    },
    {
      "channel": 2,
      "note": 69,
      "start": 42.1451,
      "duration": 0.1045,
      "velocity": 115,
      "chip": "ym2612"
    },
    {
      "channel": 0,
      "note": 66,
      "start": 42.1478,
      "duration": 0.1044,
      "velocity": 93,
      "chip": "ym2612"
    },
    {
      "channel": 4,
      "note": 45,
      "start": 42.1523,
      "duration": 0.0945,
      "velocity": 113,
      "chip": "ym2612"
    },
    {
      "channel": 5,
      "note": 66,
      "start": 42.1568,
      "duration": 0.1027,
      "velocity": 127,
      "chip": "ym2612"
    },
    {
      "channel": 4,
      "note": 45,
      "start": 42.2474,
      "duration": 0.1151,
      "velocity": 113,
      "chip": "ym2612"
    },
    {
      "channel": 2,
      "note": 81,
      "start": 42.2502,
      "duration": 0.098,
      "velocity": 115,
      "chip": "ym2612"
    },
    {
      "channel": 0,
      "note": 66,
      "start": 42.2529,
      "duration": 0.1051,
      "velocity": 93,
      "chip": "ym2612"
    },
    {
      "channel": 5,
      "note": 66,
      "start": 42.2601,
      "duration": 0.1069,
      "velocity": 127,
      "chip": "ym2612"
    },
    {
      "channel": 2,
      "note": 69,
      "start": 42.3488,
      "duration": 0.0997,
      "velocity": 115,
      "chip": "ym2612"
    },
    {
      "channel": 1,
      "note": 72,
      "start": 42.3511,
      "duration": 0.0996,
      "velocity": 106,
      "chip": "ym2612"
    },
    {
      "channel": 0,
      "note": 66,
      "start": 42.3586,
      "duration": 0.0997,
      "velocity": 93,
      "chip": "ym2612"
    },
    {
      "channel": 4,
      "note": 45,
      "start": 42.3631,
      "duration": 0.2013,
      "velocity": 113,
      "chip": "ym2612"
    },
    {
      "channel": 5,
      "note": 66,
      "start": 42.3676,
      "duration": 0.0933,
      "velocity": 127,
      "chip": "ym2612"
    },
    {
      "channel": 2,
      "note": 69,
      "start": 42.4491,
      "duration": 0.1073,
      "velocity": 115,
      "chip": "ym2612"
    },
    {
      "channel": 1,
      "note": 74,
      "start": 42.4514,
      "duration": 0.1074,
      "velocity": 106,
      "chip": "ym2612"
    },
    {
      "channel": 0,
      "note": 66,
      "start": 42.4589,
      "duration": 0.1092,
      "velocity": 93,
      "chip": "ym2612"
    },
    {
      "channel": 5,
      "note": 66,
      "start": 42.4615,
      "duration": 0.1092,
      "velocity": 127,
      "chip": "ym2612"
    },
    {
      "channel": 2,
      "note": 81,
      "start": 42.5571,
      "duration": 0.0992,
      "velocity": 115,
      "chip": "ym2612"
    },
    {
      "channel": 1,
      "note": 67,
      "start": 42.5594,
      "duration": 0.2148,
      "velocity": 106,
      "chip": "ym2612"
    },
    {
      "channel": 4,
      "note": 45,
      "start": 42.565,
      "duration": 0.0885,
      "velocity": 113,
      "chip": "ym2612"
    },
    {
      "channel": 0,
      "note": 66,
      "start": 42.5687,
      "duration": 0.0947,
      "velocity": 93,
      "chip": "ym2612"
    },
    {
      "channel": 5,
      "note": 66,
      "start": 42.5712,
      "duration": 0.1976,
      "velocity": 127,
      "chip": "ym2612"
    },
    {
      "channel": 4,
      "note": 45,
      "start": 42.6542,
      "duration": 0.1326,
      "velocity": 113,
      "chip": "ym2612"
    },
    {
      "channel": 2,
      "note": 69,
      "start": 42.6569,
      "duration": 0.1242,
      "velocity": 115,
      "chip": "ym2612"
    },
    {
      "channel": 0,
      "note": 66,
      "start": 42.6641,
      "duration": 0.1024,
      "velocity": 93,
      "chip": "ym2612"
    },
    {
      "channel": 3,
      "note": 48,
      "start": 42.7551,
      "duration": 3.293,
      "velocity": 97,
      "chip": "ym2612"
    },
    {
      "channel": 0,
      "note": 66,
      "start": 42.7671,
      "duration": 0.1002,
      "velocity": 93,
      "chip": "ym2612"
    },
    {
      "channel": 1,
      "note": 72,
      "start": 42.7748,
      "duration": 0.2933,
      "velocity": 106,
      "chip": "ym2612"
    },
    {
      "channel": 2,
      "note": 72,
      "start": 42.7816,
      "duration": 0.0793,
      "velocity": 115,
      "chip": "ym2612"
    },
    {
      "channel": 5,
      "note": 66,
      "start": 42.7852,
      "duration": 0.1784,
      "velocity": 127,
      "chip": "ym2612"
    },
    {
      "channel": 4,
      "note": 48,
      "start": 42.7874,
      "duration": 0.1869,
      "velocity": 113,
      "chip": "ym2612"
    },
    {
      "channel": 2,
      "note": 72,
      "start": 42.8616,
      "duration": 0.107,
      "velocity": 115,
      "chip": "ym2612"
    },
    {
      "channel": 0,
      "note": 66,
      "start": 42.868,
      "duration": 0.1033,
      "velocity": 93,
      "chip": "ym2612"
    },
    {
      "channel": 5,
      "note": 66,
      "start": 42.9643,
      "duration": 0.2056,
      "velocity": 127,
      "chip": "ym2612"
    },
    {
      "channel": 2,
      "note": 84,
      "start": 42.9692,
      "duration": 0.0965,
      "velocity": 115,
      "chip": "ym2612"
    },
    {
      "channel": 0,
      "note": 66,
      "start": 42.972,
      "duration": 0.102,
      "velocity": 93,
      "chip": "ym2612"
    },
    {
      "channel": 4,
      "note": 48,
      "start": 42.975,
      "duration": 0.0881,
      "velocity": 113,
      "chip": "ym2612"
    },
    {
      "channel": 4,
      "note": 48,
      "start": 43.0636,
      "duration": 0.1244,
      "velocity": 113,
      "chip": "ym2612"
    },
    {
      "channel": 2,
      "note": 72,
      "start": 43.0664,
      "duration": 0.1088,
      "velocity": 115,
      "chip": "ym2612"
    },
    {
      "channel": 1,
      "note": 75,
      "start": 43.0687,
      "duration": 0.3072,
      "velocity": 106,
      "chip": "ym2612"
    },
    {
      "channel": 0,
      "note": 66,
      "start": 43.0746,
      "duration": 0.1032,
      "velocity": 93,
      "chip": "ym2612"
    },
    {
      "channel": 2,
      "note": 72,
      "start": 43.1758,
      "duration": 0.0957,
      "velocity": 115,
      "chip": "ym2612"
    },
    {
      "channel": 0,
      "note": 66,
      "start": 43.1785,
      "duration": 0.0995,
      "velocity": 93,
      "chip": "ym2612"
    },
    {
      "channel": 5,
      "note": 66,
      "start": 43.1864,
      "duration": 0.1927,
      "velocity": 127,
      "chip": "ym2612"
    },
    {
      "channel": 4,
      "note": 48,
      "start": 43.1887,
      "duration": 0.193,
      "velocity": 113,
      "chip": "ym2612"
    },
    {
      "channel": 2,
      "note": 84,
      "start": 43.2721,
      "duration": 0.1015,
      "velocity": 115,
      "chip": "ym2612"
    },
    {
      "channel": 0,
      "note": 66,
      "start": 43.2786,
      "duration": 0.1068,
      "velocity": 93,
      "chip": "ym2612"
    },
    {
      "channel": 2,
      "note": 72,
      "start": 43.3742,
      "duration": 0.108,
      "velocity": 115,
      "chip": "ym2612"
    },
    {
      "channel": 1,
      "note": 77,
      "start": 43.3765,
      "duration": 0.3049,
      "velocity": 106,
      "chip": "ym2612"
    },
    {
      "channel": 4,
      "note": 48,
      "start": 43.3823,
      "duration": 0.0971,
      "velocity": 113,
      "chip": "ym2612"
    },
    {
      "channel": 0,
      "note": 66,
      "start": 43.386,
      "duration": 0.0988,
      "velocity": 93,
      "chip": "ym2612"
    },
    {
      "channel": 5,
      "note": 66,
      "start": 43.3934,
      "duration": 0.1913,
      "velocity": 127,
      "chip": "ym2612"
    },
    {
      "channel": 4,
      "note": 48,
      "start": 43.48,
      "duration": 0.1126,
      "velocity": 113,
      "chip": "ym2612"
    },
    {
      "channel": 2,
      "note": 72,
      "start": 43.4829,
      "duration": 0.0977,
      "velocity": 115,
      "chip": "ym2612"
    },
    {
      "channel": 0,
      "note": 66,
      "start": 43.4855,
      "duration": 0.1041,
      "velocity": 93,
      "chip": "ym2612"
    },
    {
      "channel": 2,
      "note": 84,
      "start": 43.5812,
      "duration": 0.098,
      "velocity": 115,
      "chip": "ym2612"
    },
    {
      "channel": 5,
      "note": 66,
      "start": 43.5853,
      "duration": 0.2012,
      "velocity": 127,
      "chip": "ym2612"
    },
    {
      "channel": 0,
      "note": 66,
      "start": 43.5902,
      "duration": 0.0971,
      "velocity": 93,
      "chip": "ym2612"
    },
    {
      "channel": 4,
      "note": 48,
      "start": 43.5933,
      "duration": 0.2055,
      "velocity": 113,
      "chip": "ym2612"
    },
    {
      "channel": 2,
      "note": 72,
      "start": 43.6797,
      "duration": 0.1119,
      "velocity": 115,
      "chip": "ym2612"
    },
    {
      "channel": 1,
      "note": 72,
      "start": 43.682,
      "duration": 0.3076,
      "velocity": 106,
      "chip": "ym2612"
    },
    {
      "channel": 0,
      "note": 66,
      "start": 43.688,
      "duration": 0.1063,
      "velocity": 93,
      "chip": "ym2612"
    },
    {
      "channel": 2,
      "note": 72,
      "start": 43.7923,
      "duration": 0.0967,
      "velocity": 115,
      "chip": "ym2612"
    },
    {
      "channel": 0,
      "note": 66,
      "start": 43.7949,
      "duration": 0.1013,
      "velocity": 93,
      "chip": "ym2612"
    },
    {
      "channel": 4,
      "note": 48,
      "start": 43.7995,
      "duration": 0.0868,
      "velocity": 113,
      "chip": "ym2612"
    },
    {
      "channel": 5,
      "note": 66,
      "start": 43.8039,
      "duration": 0.0995,
      "velocity": 127,
      "chip": "ym2612"
    },
    {
      "channel": 4,
      "note": 48,
      "start": 43.8868,
      "duration": 0.1214,
      "velocity": 113,
      "chip": "ym2612"
    },
    {
      "channel": 2,
      "note": 84,
      "start": 43.8896,
      "duration": 0.0978,
      "velocity": 115,
      "chip": "ym2612"
    },
    {
      "channel": 0,
      "note": 66,
      "start": 43.8969,
      "duration": 0.1011,
      "velocity": 93,
      "chip": "ym2612"
    },
    {
      "channel": 5,
      "note": 66,
      "start": 43.904,
      "duration": 0.1019,
      "velocity": 127,
      "chip": "ym2612"
    },
    {
      "channel": 2,
      "note": 72,
      "start": 43.9879,
      "duration": 0.1076,
      "velocity": 115,
      "chip": "ym2612"
    },
    {
      "channel": 1,
      "note": 75,
      "start": 43.9902,
      "duration": 0.1075,
      "velocity": 106,
      "chip": "ym2612"
    },
    {
      "channel": 0,
      "note": 66,
      "start": 43.9987,
      "duration": 0.1066,
      "velocity": 93,
      "chip": "ym2612"
    },
    {
      "channel": 5,
      "note": 66,
      "start": 44.0066,
      "duration": 0.1013,
      "velocity": 127,
      "chip": "ym2612"
    },
    {
      "channel": 4,
      "note": 48,
      "start": 44.0089,
      "duration": 0.2013,
      "velocity": 113,
      "chip": "ym2612"
    },
    {
      "channel": 2,
      "note": 72,
      "start": 44.0961,
      "duration": 0.0987,
      "velocity": 115,
      "chip": "ym2612"
    },
    {
      "channel": 1,
      "note": 77,
      "start": 44.0984,
      "duration": 0.0987,
      "velocity": 106,
      "chip": "ym2612"
    },
    {
      "channel": 0,
      "note": 66,
      "start": 44.1059,
      "duration": 0.0997,
      "velocity": 93,
      "chip": "ym2612"
    },
    {
      "channel": 5,
      "note": 66,
      "start": 44.1085,
      "duration": 0.1061,
      "velocity": 127,
      "chip": "ym2612"
    },
    {
      "channel": 2,
      "note": 84,
      "start": 44.1955,
      "duration": 0.0999,
      "velocity": 115,
      "chip": "ym2612"
    },
    {
      "channel": 1,
      "note": 70,
      "start": 44.1977,
      "duration": 0.2131,
      "velocity": 106,
      "chip": "ym2612"
    },
    {
      "channel": 0,
      "note": 66,
      "start": 44.2063,
      "duration": 0.0981,
      "velocity": 93,
      "chip": "ym2612"
    },
    {
      "channel": 4,
      "note": 48,
      "start": 44.2108,
      "duration": 0.09,
      "velocity": 113,
      "chip": "ym2612"
    },
    {
      "channel": 5,
      "note": 66,
      "start": 44.2152,
      "duration": 0.2001,
      "velocity": 127,
      "chip": "ym2612"
    },
    {
      "channel": 2,
      "note": 72,
      "start": 44.296,
      "duration": 0.1235,
      "velocity": 115,
      "chip": "ym2612"
    },
    {
      "channel": 4,
      "note": 48,
      "start": 44.3014,
      "duration": 0.1239,
      "velocity": 113,
      "chip": "ym2612"
    },
    {
      "channel": 0,
      "note": 66,
      "start": 44.305,
      "duration": 0.1081,
      "velocity": 93,
      "chip": "ym2612"
    },
    {
      "channel": 1,
      "note": 72,
      "start": 44.4114,
      "duration": 0.3031,
      "velocity": 106,
      "chip": "ym2612"
    },
    {
      "channel": 0,
      "note": 66,
      "start": 44.4138,
      "duration": 0.097,
      "velocity": 93,
      "chip": "ym2612"
    },
    {
      "channel": 2,
      "note": 72,
      "start": 44.4202,
      "duration": 0.0841,
      "velocity": 115,
      "chip": "ym2612"
    },
    {
      "channel": 4,
      "note": 48,
      "start": 44.4259,
      "duration": 0.187,
      "velocity": 113,
      "chip": "ym2612"
    },
    {
      "channel": 5,
      "note": 66,
      "start": 44.4303,
      "duration": 0.1802,
      "velocity": 127,
      "chip": "ym2612"
    },
    {
      "channel": 2,
      "note": 72,
      "start": 44.5049,
      "duration": 0.1015,
      "velocity": 115,
      "chip": "ym2612"
    },
    {
      "channel": 0,
      "note": 66,
      "start": 44.5114,
      "duration": 0.1051,
      "velocity": 93,
      "chip": "ym2612"
    },
    {
      "channel": 2,
      "note": 84,
      "start": 44.607,
      "duration": 0.1052,
      "velocity": 115,
      "chip": "ym2612"
    },
    {
      "channel": 5,
      "note": 66,
      "start": 44.6112,
      "duration": 0.204,
      "velocity": 127,
      "chip": "ym2612"
    },
    {
      "channel": 4,
      "note": 48,
      "start": 44.6134,
      "duration": 0.0961,
      "velocity": 113,
      "chip": "ym2612"
    },
    {
      "channel": 0,
      "note": 66,
      "start": 44.6171,
      "duration": 0.1034,
      "velocity": 93,
      "chip": "ym2612"
    },
    {
      "channel": 4,
      "note": 48,
      "start": 44.7101,
      "duration": 0.1213,
      "velocity": 113,
      "chip": "ym2612"
    },
    {
      "channel": 2,
      "note": 72,
      "start": 44.7129,
      "duration": 0.0985,
      "velocity": 115,
      "chip": "ym2612"
    },
    {
      "channel": 1,
      "note": 75,
      "start": 44.7152,
      "duration": 0.3055,
      "velocity": 106,
      "chip": "ym2612"
    },
    {
      "channel": 0,
      "note": 66,
      "start": 44.7211,
      "duration": 0.1001,
      "velocity": 93,
      "chip": "ym2612"
    },
    {
      "channel": 2,
      "note": 72,
      "start": 44.812,
      "duration": 0.0998,
      "velocity": 115,
      "chip": "ym2612"
    },
    {
      "channel": 0,
      "note": 66,
      "start": 44.8219,
      "duration": 0.0963,
      "velocity": 93,
      "chip": "ym2612"
    },
    {
      "channel": 5,
      "note": 66,
      "start": 44.8298,
      "duration": 0.1942,
      "velocity": 127,
      "chip": "ym2612"
    },
    {
      "channel": 4,
      "note": 48,
      "start": 44.8321,
      "duration": 0.2027,
      "velocity": 113,
      "chip": "ym2612"
    },
    {
      "channel": 2,
      "note": 84,
      "start": 44.9124,
      "duration": 0.106,
      "velocity": 115,
      "chip": "ym2612"
    },
    {
      "channel": 0,
      "note": 66,
      "start": 44.9188,
      "duration": 0.1113,
      "velocity": 93,
      "chip": "ym2612"
    },
    {
      "channel": 2,
      "note": 72,
      "start": 45.019,
      "duration": 0.1029,
      "velocity": 115,
      "chip": "ym2612"
    },
    {
      "channel": 1,
      "note": 77,
      "start": 45.0213,
      "duration": 0.3049,
      "velocity": 106,
      "chip": "ym2612"
    },
    {
      "channel": 0,
      "note": 66,
      "start": 45.0307,
      "duration": 0.0976,
      "velocity": 93,
      "chip": "ym2612"
    },
    {
      "channel": 4,
      "note": 48,
      "start": 45.0355,
      "duration": 0.0837,
      "velocity": 113,
      "chip": "ym2612"
    },
    {
      "channel": 5,
      "note": 66,
      "start": 45.0399,
      "duration": 0.1816,
      "velocity": 127,
      "chip": "ym2612"
    },
    {
      "channel": 4,
      "note": 48,
      "start": 45.1198,
      "duration": 0.1163,
      "velocity": 113,
      "chip": "ym2612"
    },
    {
      "channel": 2,
      "note": 72,
      "start": 45.1225,
      "duration": 0.1039,
      "velocity": 115,
      "chip": "ym2612"
    },
    {
      "channel": 0,
      "note": 66,
      "start": 45.129,
      "duration": 0.1002,
      "velocity": 93,
      "chip": "ym2612"
    },
    {
      "channel": 5,
      "note": 66,
      "start": 45.2222,
      "duration": 0.2113,
      "velocity": 127,
      "chip": "ym2612"
    },
    {
      "channel": 2,
      "note": 84,
      "start": 45.2271,
      "duration": 0.1042,
      "velocity": 115,
      "chip": "ym2612"
    },
    {
      "channel": 0,
      "note": 66,
      "start": 45.2298,
      "duration": 0.1041,
      "velocity": 93,
      "chip": "ym2612"
    },
    {
      "channel": 4,
      "note": 48,
      "start": 45.2367,
      "duration": 0.1993,
      "velocity": 113,
      "chip": "ym2612"
    },
    {
      "channel": 1,
      "note": 72,
      "start": 45.3268,
      "duration": 0.3076,
      "velocity": 106,
      "chip": "ym2612"
    },
    {
      "channel": 2,
      "note": 72,
      "start": 45.3318,
      "duration": 0.0978,
      "velocity": 115,
      "chip": "ym2612"
    },
    {
      "channel": 0,
      "note": 66,
      "start": 45.3346,
      "duration": 0.1051,
      "velocity": 93,
      "chip": "ym2612"
    },
    {
      "channel": 2,
      "note": 72,
      "start": 45.4302,
      "duration": 0.1037,
      "velocity": 115,
      "chip": "ym2612"
    },
    {
      "channel": 4,
      "note": 48,
      "start": 45.4366,
      "duration": 0.0946,
      "velocity": 113,
      "chip": "ym2612"
    },
    {
      "channel": 0,
      "note": 66,
      "start": 45.4403,
      "duration": 0.0964,
      "velocity": 93,
      "chip": "ym2612"
    },
    {
      "channel": 5,
      "note": 66,
      "start": 45.4475,
      "duration": 0.0964,
      "velocity": 127,
      "chip": "ym2612"
    },
    {
      "channel": 4,
      "note": 48,
      "start": 45.5318,
      "duration": 0.123,
      "velocity": 113,
      "chip": "ym2612"
    },
    {
      "channel": 2,
      "note": 84,
      "start": 45.5346,
      "duration": 0.1073,
      "velocity": 115,
      "chip": "ym2612"
    },
    {
      "channel": 0,
      "note": 66,
      "start": 45.5373,
      "duration": 0.1074,
      "velocity": 93,
      "chip": "ym2612"
    },
    {
      "channel": 5,
      "note": 66,
      "start": 45.5445,
      "duration": 0.1081,
      "velocity": 127,
      "chip": "ym2612"
    },
    {
      "channel": 1,
      "note": 75,
      "start": 45.6351,
      "duration": 0.1024,
      "velocity": 106,
      "chip": "ym2612"
    },
    {
      "channel": 2,
      "note": 72,
      "start": 45.6426,
      "duration": 0.0926,
      "velocity": 115,
      "chip": "ym2612"
    },
    {
      "channel": 0,
      "note": 66,
      "start": 45.6453,
      "duration": 0.0988,
      "velocity": 93,
      "chip": "ym2612"
    },
    {
      "channel": 5,
      "note": 66,
      "start": 45.6532,
      "duration": 0.0982,
      "velocity": 127,
      "chip": "ym2612"
    },
    {
      "channel": 4,
      "note": 48,
      "start": 45.6555,
      "duration": 0.1932,
      "velocity": 113,
      "chip": "ym2612"
    },
    {
      "channel": 2,
      "note": 72,
      "start": 45.7359,
      "duration": 0.1049,
      "velocity": 115,
      "chip": "ym2612"
    },
    {
      "channel": 1,
      "note": 77,
      "start": 45.7381,
      "duration": 0.105,
      "velocity": 106,
      "chip": "ym2612"
    },
    {
      "channel": 0,
      "note": 66,
      "start": 45.7448,
      "duration": 0.1076,
      "velocity": 93,
      "chip": "ym2612"
    },
    {
      "channel": 5,
      "note": 66,
      "start": 45.752,
      "duration": 0.103,
      "velocity": 127,
      "chip": "ym2612"
    },
    {
      "channel": 2,
      "note": 84,
      "start": 45.8414,
      "duration": 0.1068,
      "velocity": 115,
      "chip": "ym2612"
    },
    {
      "channel": 1,
      "note": 70,
      "start": 45.8437,
      "duration": 0.2235,
      "velocity": 106,
      "chip": "ym2612"
    },
    {
      "channel": 4,
      "note": 48,
      "start": 45.8493,
      "duration": 0.0961,
      "velocity": 113,
      "chip": "ym2612"
    },
    {
      "channel": 0,
      "note": 66,
      "start": 45.8531,
      "duration": 0.0978,
      "velocity": 93,
      "chip": "ym2612"
    },
    {
      "channel": 5,
      "note": 66,
      "start": 45.8556,
      "duration": 0.1993,
      "velocity": 127,
      "chip": "ym2612"
    },
    {
      "channel": 4,
      "note": 48,
      "start": 45.946,
      "duration": 0.1265,
      "velocity": 113,
      "chip": "ym2612"
    },
    {
      "channel": 2,
      "note": 72,
      "start": 45.9488,
      "duration": 0.1265,
      "velocity": 115,
      "chip": "ym2612"
    },
    {
      "channel": 0,
      "note": 66,
      "start": 45.9515,
      "duration": 0.101,
      "velocity": 93,
      "chip": "ym2612"
    },
    {
      "channel": 3,
      "note": 50,
      "start": 46.0488,
      "duration": 3.2873,
      "velocity": 97,
      "chip": "ym2612"
    },
    {
      "channel": 0,
      "note": 66,
      "start": 46.0532,
      "duration": 0.0987,
      "velocity": 93,
      "chip": "ym2612"
    },
    {
      "channel": 1,
      "note": 74,
      "start": 46.0678,
      "duration": 0.2859,
      "velocity": 106,
      "chip": "ym2612"
    },
    {
      "channel": 5,
      "note": 66,
      "start": 46.0708,
      "duration": 0.1798,
      "velocity": 127,
      "chip": "ym2612"
    },
    {
      "channel": 4,
      "note": 50,
      "start": 46.0732,
      "duration": 0.187,
      "velocity": 113,
      "chip": "ym2612"
    },
    {
      "channel": 2,
      "note": 74,
      "start": 46.0759,
      "duration": 0.0695,
      "velocity": 115,
      "chip": "ym2612"
    },
    {
      "channel": 2,
      "note": 74,
      "start": 46.146,
      "duration": 0.1096,
      "velocity": 115,
      "chip": "ym2612"
    },
    {
      "channel": 0,
      "note": 66,
      "start": 46.1524,
      "duration": 0.1114,
      "velocity": 93,
      "chip": "ym2612"
    },
    {
      "channel": 5,
      "note": 66,
      "start": 46.2512,
      "duration": 0.2032,
      "velocity": 127,
      "chip": "ym2612"
    },
    {
      "channel": 2,
      "note": 86,
      "start": 46.2561,
      "duration": 0.0954,
      "velocity": 115,
      "chip": "ym2612"
    },
    {
      "channel": 4,
      "note": 50,
      "start": 46.2608,
      "duration": 0.0971,
      "velocity": 113,
      "chip": "ym2612"
    },
    {
      "channel": 0,
      "note": 66,
      "start": 46.2645,
      "duration": 0.0971,
      "velocity": 93,
      "chip": "ym2612"
    },
    {
      "channel": 2,
      "note": 74,
      "start": 46.3522,
      "duration": 0.1074,
      "velocity": 115,
      "chip": "ym2612"
    },
    {
      "channel": 1,
      "note": 79,
      "start": 46.3544,
      "duration": 0.3055,
      "velocity": 106,
      "chip": "ym2612"
    },
    {
      "channel": 4,
      "note": 50,
      "start": 46.3585,
      "duration": 0.114,
      "velocity": 113,
      "chip": "ym2612"
    },
    {
      "channel": 0,
      "note": 66,
      "start": 46.3622,
      "duration": 0.1001,
      "velocity": 93,
      "chip": "ym2612"
    },
    {
      "channel": 2,
      "note": 74,
      "start": 46.4602,
      "duration": 0.0989,
      "velocity": 115,
      "chip": "ym2612"
    },
    {
      "channel": 0,
      "note": 66,
      "start": 46.463,
      "duration": 0.1026,
      "velocity": 93,
      "chip": "ym2612"
    },
    {
      "channel": 5,
      "note": 66,
      "start": 46.4709,
      "duration": 0.1924,
      "velocity": 127,
      "chip": "ym2612"
    },
    {
      "channel": 4,
      "note": 50,
      "start": 46.4732,
      "duration": 0.2027,
      "velocity": 113,
      "chip": "ym2612"
    },
    {
      "channel": 2,
      "note": 86,
      "start": 46.5598,
      "duration": 0.1087,
      "velocity": 115,
      "chip": "ym2612"
    },
    {
      "channel": 0,
      "note": 66,
      "start": 46.5662,
      "duration": 0.1049,
      "velocity": 93,
      "chip": "ym2612"
    },
    {
      "channel": 1,
      "note": 81,
      "start": 46.6606,
      "duration": 0.3115,
      "velocity": 106,
      "chip": "ym2612"
    },
    {
      "channel": 2,
      "note": 74,
      "start": 46.669,
      "duration": 0.092,
      "velocity": 115,
      "chip": "ym2612"
    },
    {
      "channel": 0,
      "note": 66,
      "start": 46.6718,
      "duration": 0.0976,
      "velocity": 93,
      "chip": "ym2612"
    },
    {
      "channel": 4,
      "note": 50,
      "start": 46.6765,
      "duration": 0.0892,
      "velocity": 113,
      "chip": "ym2612"
    },
    {
      "channel": 5,
      "note": 66,
      "start": 46.681,
      "duration": 0.1878,
      "velocity": 127,
      "chip": "ym2612"
    },
    {
      "channel": 2,
      "note": 74,
      "start": 46.7617,
      "duration": 0.112,
      "velocity": 115,
      "chip": "ym2612"
    },
    {
      "channel": 4,
      "note": 50,
      "start": 46.7663,
      "duration": 0.117,
      "velocity": 113,
      "chip": "ym2612"
    },
    {
      "channel": 0,
      "note": 66,
      "start": 46.77,
      "duration": 0.1064,
      "velocity": 93,
      "chip": "ym2612"
    },
    {
      "channel": 5,
      "note": 66,
      "start": 46.8694,
      "duration": 0.2015,
      "velocity": 127,
      "chip": "ym2612"
    },
    {
      "channel": 2,
      "note": 86,
      "start": 46.8743,
      "duration": 0.0955,
      "velocity": 115,
      "chip": "ym2612"
    },
    {
      "channel": 0,
      "note": 66,
      "start": 46.8771,
      "duration": 0.101,
      "velocity": 93,
      "chip": "ym2612"
    },
    {
      "channel": 4,
      "note": 50,
      "start": 46.8839,
      "duration": 0.1994,
      "velocity": 113,
      "chip": "ym2612"
    },
    {
      "channel": 2,
      "note": 74,
      "start": 46.9705,
      "duration": 0.1056,
      "velocity": 115,
      "chip": "ym2612"
    },
    {
      "channel": 1,
      "note": 74,
      "start": 46.9727,
      "duration": 0.3102,
      "velocity": 106,
      "chip": "ym2612"
    },
    {
      "channel": 0,
      "note": 66,
      "start": 46.9787,
      "duration": 0.1001,
      "velocity": 93,
      "chip": "ym2612"
    },
    {
      "channel": 2,
      "note": 74,
      "start": 47.0767,
      "duration": 0.1044,
      "velocity": 115,
      "chip": "ym2612"
    },
    {
      "channel": 0,
      "note": 66,
      "start": 47.0795,
      "duration": 0.1044,
      "velocity": 93,
      "chip": "ym2612"
    },
    {
      "channel": 4,
      "note": 50,
      "start": 47.0839,
      "duration": 0.0945,
      "velocity": 113,
      "chip": "ym2612"
    },
    {
      "channel": 5,
      "note": 66,
      "start": 47.0884,
      "duration": 0.1027,
      "velocity": 127,
      "chip": "ym2612"
    },
    {
      "channel": 4,
      "note": 50,
      "start": 47.179,
      "duration": 0.117,
      "velocity": 113,
      "chip": "ym2612"
    },
    {
      "channel": 2,
      "note": 86,
      "start": 47.1818,
      "duration": 0.0988,
      "velocity": 115,
      "chip": "ym2612"
    },
    {
      "channel": 0,
      "note": 66,
      "start": 47.1845,
      "duration": 0.1066,
      "velocity": 93,
      "chip": "ym2612"
    },
    {
      "channel": 5,
      "note": 66,
      "start": 47.1917,
      "duration": 0.102,
      "velocity": 127,
      "chip": "ym2612"
    },
    {
      "channel": 2,
      "note": 74,
      "start": 47.2812,
      "duration": 0.0995,
      "velocity": 115,
      "chip": "ym2612"
    },
    {
      "channel": 1,
      "note": 79,
      "start": 47.2835,
      "duration": 0.0995,
      "velocity": 106,
      "chip": "ym2612"
    },
    {
      "channel": 0,
      "note": 66,
      "start": 47.2917,
      "duration": 0.0935,
      "velocity": 93,
      "chip": "ym2612"
    },
    {
      "channel": 5,
      "note": 66,
      "start": 47.2943,
      "duration": 0.0981,
      "velocity": 127,
      "chip": "ym2612"
    },
    {
      "channel": 4,
      "note": 50,
      "start": 47.2966,
      "duration": 0.2013,
      "velocity": 113,
      "chip": "ym2612"
    },
    {
      "channel": 2,
      "note": 74,
      "start": 47.3814,
      "duration": 0.1074,
      "velocity": 115,
      "chip": "ym2612"
    },
    {
      "channel": 1,
      "note": 81,
      "start": 47.3837,
      "duration": 0.1074,
      "velocity": 106,
      "chip": "ym2612"
    },
    {
      "channel": 0,
      "note": 66,
      "start": 47.3859,
      "duration": 0.1075,
      "velocity": 93,
      "chip": "ym2612"
    },
    {
      "channel": 5,
      "note": 66,
      "start": 47.3931,
      "duration": 0.1092,
      "velocity": 127,
      "chip": "ym2612"
    },
    {
      "channel": 2,
      "note": 86,
      "start": 47.4895,
      "duration": 0.0993,
      "velocity": 115,
      "chip": "ym2612"
    },
    {
      "channel": 1,
      "note": 86,
      "start": 47.4917,
      "duration": 0.2062,
      "velocity": 106,
      "chip": "ym2612"
    },
    {
      "channel": 0,
      "note": 66,
      "start": 47.494,
      "duration": 0.102,
      "velocity": 93,
      "chip": "ym2612"
    },
    {
      "channel": 4,
      "note": 50,
      "start": 47.4985,
      "duration": 0.0875,
      "velocity": 113,
      "chip": "ym2612"
    },
    {
      "channel": 5,
      "note": 66,
      "start": 47.5029,
      "duration": 0.1896,
      "velocity": 127,
      "chip": "ym2612"
    },
    {
      "channel": 4,
      "note": 50,
      "start": 47.5866,
      "duration": 0.1258,
      "velocity": 113,
      "chip": "ym2612"
    },
    {
      "channel": 2,
      "note": 74,
      "start": 47.5893,
      "duration": 0.1172,
      "velocity": 115,
      "chip": "ym2612"
    },
    {
      "channel": 0,
      "note": 66,
      "start": 47.5966,
      "duration": 0.1036,
      "velocity": 93,
      "chip": "ym2612"
    },
    {
      "channel": 1,
      "note": 74,
      "start": 47.6985,
      "duration": 0.302,
      "velocity": 106,
      "chip": "ym2612"
    },
    {
      "channel": 0,
      "note": 66,
      "start": 47.7008,
      "duration": 0.0984,
      "velocity": 93,
      "chip": "ym2612"
    },
    {
      "channel": 2,
      "note": 74,
      "start": 47.7072,
      "duration": 0.0855,
      "velocity": 115,
      "chip": "ym2612"
    },
    {
      "channel": 5,
      "note": 66,
      "start": 47.7107,
      "duration": 0.1866,
      "velocity": 127,
      "chip": "ym2612"
    },
    {
      "channel": 4,
      "note": 38,
      "start": 47.713,
      "duration": 0.1931,
      "velocity": 113,
      "chip": "ym2612"
    },
    {
      "channel": 2,
      "note": 74,
      "start": 47.7934,
      "duration": 0.0998,
      "velocity": 115,
      "chip": "ym2612"
    },
    {
      "channel": 0,
      "note": 66,
      "start": 47.7998,
      "duration": 0.1033,
      "velocity": 93,
      "chip": "ym2612"
    },
    {
      "channel": 2,
      "note": 86,
      "start": 47.8938,
      "duration": 0.1045,
      "velocity": 115,
      "chip": "ym2612"
    },
    {
      "channel": 5,
      "note": 66,
      "start": 47.8979,
      "duration": 0.2057,
      "velocity": 127,
      "chip": "ym2612"
    },
    {
      "channel": 0,
      "note": 66,
      "start": 47.9038,
      "duration": 0.099,
      "velocity": 93,
      "chip": "ym2612"
    },
    {
      "channel": 4,
      "note": 38,
      "start": 47.9068,
      "duration": 0.0888,
      "velocity": 113,
      "chip": "ym2612"
    },
    {
      "channel": 4,
      "note": 38,
      "start": 47.9961,
      "duration": 0.1238,
      "velocity": 113,
      "chip": "ym2612"
    },
    {
      "channel": 2,
      "note": 74,
      "start": 47.9989,
      "duration": 0.101,
      "velocity": 115,
      "chip": "ym2612"
    },
    {
      "channel": 1,
      "note": 79,
      "start": 48.0012,
      "duration": 0.3083,
      "velocity": 106,
      "chip": "ym2612"
    },
    {
      "channel": 0,
      "note": 66,
      "start": 48.0034,
      "duration": 0.1063,
      "velocity": 93,
      "chip": "ym2612"
    },
    {
      "channel": 2,
      "note": 74,
      "start": 48.1005,
      "duration": 0.1035,
      "velocity": 115,
      "chip": "ym2612"
    },
    {
      "channel": 0,
      "note": 66,
      "start": 48.1104,
      "duration": 0.0964,
      "velocity": 93,
      "chip": "ym2612"
    },
    {
      "channel": 5,
      "note": 66,
      "start": 48.1183,
      "duration": 0.1838,
      "velocity": 127,
      "chip": "ym2612"
    },
    {
      "channel": 4,
      "note": 38,
      "start": 48.1206,
      "duration": 0.1947,
      "velocity": 113,
      "chip": "ym2612"
    },
    {
      "channel": 2,
      "note": 86,
      "start": 48.2046,
      "duration": 0.1026,
      "velocity": 115,
      "chip": "ym2612"
    },
    {
      "channel": 0,
      "note": 66,
      "start": 48.2074,
      "duration": 0.1116,
      "velocity": 93,
      "chip": "ym2612"
    },
    {
      "channel": 2,
      "note": 74,
      "start": 48.3078,
      "duration": 0.1025,
      "velocity": 115,
      "chip": "ym2612"
    },
    {
      "channel": 1,
      "note": 81,
      "start": 48.3101,
      "duration": 0.3032,
      "velocity": 106,
      "chip": "ym2612"
    },
    {
      "channel": 4,
      "note": 38,
      "start": 48.3159,
      "duration": 0.0917,
      "velocity": 113,
      "chip": "ym2612"
    },
    {
      "channel": 0,
      "note": 66,
      "start": 48.3197,
      "duration": 0.0971,
      "velocity": 93,
      "chip": "ym2612"
    },
    {
      "channel": 5,
      "note": 66,
      "start": 48.3222,
      "duration": 0.1871,
      "velocity": 127,
      "chip": "ym2612"
    },
    {
      "channel": 4,
      "note": 38,
      "start": 48.4083,
      "duration": 0.1163,
      "velocity": 113,
      "chip": "ym2612"
    },
    {
      "channel": 2,
      "note": 74,
      "start": 48.411,
      "duration": 0.1034,
      "velocity": 115,
      "chip": "ym2612"
    },
    {
      "channel": 0,
      "note": 66,
      "start": 48.4175,
      "duration": 0.1041,
      "velocity": 93,
      "chip": "ym2612"
    },
    {
      "channel": 5,
      "note": 66,
      "start": 48.51,
      "duration": 0.2102,
      "velocity": 127,
      "chip": "ym2612"
    },
    {
      "channel": 2,
      "note": 86,
      "start": 48.515,
      "duration": 0.0961,
      "velocity": 115,
      "chip": "ym2612"
    },
    {
      "channel": 0,
      "note": 66,
      "start": 48.5222,
      "duration": 0.0971,
      "velocity": 93,
      "chip": "ym2612"
    },
    {
      "channel": 4,
      "note": 38,
      "start": 48.5252,
      "duration": 0.2057,
      "velocity": 113,
      "chip": "ym2612"
    },
    {
      "channel": 2,
      "note": 74,
      "start": 48.6117,
      "duration": 0.1047,
      "velocity": 115,
      "chip": "ym2612"
    },
    {
      "channel": 1,
      "note": 74,
      "start": 48.6139,
      "duration": 0.3094,
      "velocity": 106,
      "chip": "ym2612"
    },
    {
      "channel": 0,
      "note": 66,
      "start": 48.6199,
      "duration": 0.1064,
      "velocity": 93,
      "chip": "ym2612"
    },
    {
      "channel": 2,
      "note": 74,
      "start": 48.7171,
      "duration": 0.1054,
      "velocity": 115,
      "chip": "ym2612"
    },
    {
      "channel": 0,
      "note": 66,
      "start": 48.727,
      "duration": 0.0982,
      "velocity": 93,
      "chip": "ym2612"
    },
    {
      "channel": 4,
      "note": 38,
      "start": 48.7315,
      "duration": 0.0882,
      "velocity": 113,
      "chip": "ym2612"
    },
    {
      "channel": 5,
      "note": 66,
      "start": 48.736,
      "duration": 0.0964,
      "velocity": 127,
      "chip": "ym2612"
    },
    {
      "channel": 4,
      "note": 38,
      "start": 48.8203,
      "duration": 0.115,
      "velocity": 113,
      "chip": "ym2612"
    },
    {
      "channel": 2,
      "note": 86,
      "start": 48.8231,
      "duration": 0.098,
      "velocity": 115,
      "chip": "ym2612"
    },
    {
      "channel": 0,
      "note": 66,
      "start": 48.8259,
      "duration": 0.105,
      "velocity": 93,
      "chip": "ym2612"
    },
    {
      "channel": 5,
      "note": 66,
      "start": 48.833,
      "duration": 0.1067,
      "velocity": 127,
      "chip": "ym2612"
    },
    {
      "channel": 2,
      "note": 74,
      "start": 48.9217,
      "duration": 0.1083,
      "velocity": 115,
      "chip": "ym2612"
    },
    {
      "channel": 1,
      "note": 79,
      "start": 48.924,
      "duration": 0.1002,
      "velocity": 106,
      "chip": "ym2612"
    },
    {
      "channel": 0,
      "note": 66,
      "start": 48.9315,
      "duration": 0.1013,
      "velocity": 93,
      "chip": "ym2612"
    },
    {
      "channel": 4,
      "note": 38,
      "start": 48.936,
      "duration": 0.2013,
      "velocity": 113,
      "chip": "ym2612"
    },
    {
      "channel": 5,
      "note": 66,
      "start": 48.9404,
      "duration": 0.0995,
      "velocity": 127,
      "chip": "ym2612"
    },
    {
      "channel": 1,
      "note": 81,
      "start": 49.0248,
      "duration": 0.1069,
      "velocity": 106,
      "chip": "ym2612"
    },
    {
      "channel": 2,
      "note": 74,
      "start": 49.0306,
      "duration": 0.0987,
      "velocity": 115,
      "chip": "ym2612"
    },
    {
      "channel": 0,
      "note": 66,
      "start": 49.0334,
      "duration": 0.1076,
      "velocity": 93,
      "chip": "ym2612"
    },
    {
      "channel": 5,
      "note": 66,
      "start": 49.0405,
      "duration": 0.103,
      "velocity": 127,
      "chip": "ym2612"
    },
    {
      "channel": 2,
      "note": 86,
      "start": 49.13,
      "duration": 0.0993,
      "velocity": 115,
      "chip": "ym2612"
    },
    {
      "channel": 1,
      "note": 86,
      "start": 49.1323,
      "duration": 0.2146,
      "velocity": 106,
      "chip": "ym2612"
    },
    {
      "channel": 4,
      "note": 38,
      "start": 49.1379,
      "duration": 0.0886,
      "velocity": 113,
      "chip": "ym2612"
    },
    {
      "channel": 0,
      "note": 66,
      "start": 49.1416,
      "duration": 0.0948,
      "velocity": 93,
      "chip": "ym2612"
    },
    {
      "channel": 5,
      "note": 66,
      "start": 49.1441,
      "duration": 0.1976,
      "velocity": 127,
      "chip": "ym2612"
    },
    {
      "channel": 4,
      "note": 38,
      "start": 49.2271,
      "duration": 0.1332,
      "velocity": 113,
      "chip": "ym2612"
    },
    {
      "channel": 2,
      "note": 74,
      "start": 49.2299,
      "duration": 0.1333,
      "velocity": 115,
      "chip": "ym2612"
    },
    {
      "channel": 0,
      "note": 66,
      "start": 49.2371,
      "duration": 0.1121,
      "velocity": 93,
      "chip": "ym2612"
    },
    {
      "channel": 3,
      "note": 45,
      "start": 49.3367,
      "duration": 1.6458,
      "velocity": 97,
      "chip": "ym2612"
    },
    {
      "channel": 1,
      "note": 69,
      "start": 49.3476,
      "duration": 0.2996,
      "velocity": 106,
      "chip": "ym2612"
    },
    {
      "channel": 0,
      "note": 66,
      "start": 49.3498,
      "duration": 0.0899,
      "velocity": 93,
      "chip": "ym2612"
    },
    {
      "channel": 5,
      "note": 66,
      "start": 49.3587,
      "duration": 0.1772,
      "velocity": 127,
      "chip": "ym2612"
    },
    {
      "channel": 4,
      "note": 45,
      "start": 49.361,
      "duration": 0.1857,
      "velocity": 113,
      "chip": "ym2612"
    },
    {
      "channel": 2,
      "note": 69,
      "start": 49.3638,
      "duration": 0.0732,
      "velocity": 115,
      "chip": "ym2612"
    },
    {
      "channel": 2,
      "note": 69,
      "start": 49.4376,
      "duration": 0.1033,
      "velocity": 115,
      "chip": "ym2612"
    },
    {
      "channel": 0,
      "note": 66,
      "start": 49.4403,
      "duration": 0.1033,
      "velocity": 93,
      "chip": "ym2612"
    },
    {
      "channel": 5,
      "note": 66,
      "start": 49.5366,
      "duration": 0.205,
      "velocity": 127,
      "chip": "ym2612"
    },
    {
      "channel": 2,
      "note": 81,
      "start": 49.5415,
      "duration": 0.1034,
      "velocity": 115,
      "chip": "ym2612"
    },
    {
      "channel": 0,
      "note": 66,
      "start": 49.5442,
      "duration": 0.1051,
      "velocity": 93,
      "chip": "ym2612"
    },
    {
      "channel": 4,
      "note": 45,
      "start": 49.5473,
      "duration": 0.0949,
      "velocity": 113,
      "chip": "ym2612"
    },
    {
      "channel": 4,
      "note": 45,
      "start": 49.6428,
      "duration": 0.1176,
      "velocity": 113,
      "chip": "ym2612"
    },
    {
      "channel": 2,
      "note": 69,
      "start": 49.6455,
      "duration": 0.1013,
      "velocity": 115,
      "chip": "ym2612"
    },
    {
      "channel": 1,
      "note": 72,
      "start": 49.6478,
      "duration": 0.3083,
      "velocity": 106,
      "chip": "ym2612"
    },
    {
      "channel": 0,
      "note": 66,
      "start": 49.65,
      "duration": 0.1055,
      "velocity": 93,
      "chip": "ym2612"
    },
    {
      "channel": 2,
      "note": 69,
      "start": 49.7474,
      "duration": 0.0964,
      "velocity": 115,
      "chip": "ym2612"
    },
    {
      "channel": 0,
      "note": 66,
      "start": 49.7561,
      "duration": 0.0941,
      "velocity": 93,
      "chip": "ym2612"
    },
    {
      "channel": 5,
      "note": 66,
      "start": 49.7587,
      "duration": 0.19,
      "velocity": 127,
      "chip": "ym2612"
    },
    {
      "channel": 4,
      "note": 45,
      "start": 49.761,
      "duration": 0.201,
      "velocity": 113,
      "chip": "ym2612"
    },
    {
      "channel": 2,
      "note": 81,
      "start": 49.8444,
      "duration": 0.1095,
      "velocity": 115,
      "chip": "ym2612"
    },
    {
      "channel": 0,
      "note": 66,
      "start": 49.8509,
      "duration": 0.1147,
      "velocity": 93,
      "chip": "ym2612"
    },
    {
      "channel": 2,
      "note": 69,
      "start": 49.9545,
      "duration": 0.1001,
      "velocity": 115,
      "chip": "ym2612"
    },
    {
      "channel": 1,
      "note": 74,
      "start": 49.9568,
      "duration": 0.3031,
      "velocity": 106,
      "chip": "ym2612"
    },
    {
      "channel": 4,
      "note": 45,
      "start": 49.9626,
      "duration": 0.0893,
      "velocity": 113,
      "chip": "ym2612"
    },
    {
      "channel": 0,
      "note": 66,
      "start": 49.9662,
      "duration": 0.091,
      "velocity": 93,
      "chip": "ym2612"
    },
    {
      "channel": 5,
      "note": 66,
      "start": 49.9688,
      "duration": 0.1865,
      "velocity": 127,
      "chip": "ym2612"
    },
    {
      "channel": 4,
      "note": 45,
      "start": 50.0524,
      "duration": 0.1156,
      "velocity": 113,
      "chip": "ym2612"
    },
    {
      "channel": 2,
      "note": 69,
      "start": 50.0552,
      "duration": 0.0961,
      "velocity": 115,
      "chip": "ym2612"
    },
    {
      "channel": 0,
      "note": 66,
      "start": 50.0579,
      "duration": 0.1033,
      "velocity": 93,
      "chip": "ym2612"
    },
    {
      "channel": 2,
      "note": 81,
      "start": 50.1519,
      "duration": 0.1058,
      "velocity": 115,
      "chip": "ym2612"
    },
    {
      "channel": 5,
      "note": 66,
      "start": 50.1559,
      "duration": 0.2022,
      "velocity": 127,
      "chip": "ym2612"
    },
    {
      "channel": 0,
      "note": 66,
      "start": 50.1619,
      "duration": 0.1041,
      "velocity": 93,
      "chip": "ym2612"
    },
    {
      "channel": 4,
      "note": 45,
      "start": 50.1687,
      "duration": 0.2007,
      "velocity": 113,
      "chip": "ym2612"
    },
    {
      "channel": 2,
      "note": 69,
      "start": 50.2583,
      "duration": 0.1051,
      "velocity": 115,
      "chip": "ym2612"
    },
    {
      "channel": 1,
      "note": 69,
      "start": 50.2605,
      "duration": 0.3094,
      "velocity": 106,
      "chip": "ym2612"
    },
    {
      "channel": 0,
      "note": 66,
      "start": 50.2666,
      "duration": 0.1066,
      "velocity": 93,
      "chip": "ym2612"
    },
    {
      "channel": 2,
      "note": 69,
      "start": 50.3639,
      "duration": 0.0957,
      "velocity": 115,
      "chip": "ym2612"
    },
    {
      "channel": 4,
      "note": 45,
      "start": 50.3701,
      "duration": 0.095,
      "velocity": 113,
      "chip": "ym2612"
    },
    {
      "channel": 0,
      "note": 66,
      "start": 50.3738,
      "duration": 0.095,
      "velocity": 93,
      "chip": "ym2612"
    },
    {
      "channel": 5,
      "note": 66,
      "start": 50.3763,
      "duration": 0.0995,
      "velocity": 127,
      "chip": "ym2612"
    },
    {
      "channel": 2,
      "note": 81,
      "start": 50.4602,
      "duration": 0.1074,
      "velocity": 115,
      "chip": "ym2612"
    },
    {
      "channel": 4,
      "note": 45,
      "start": 50.4656,
      "duration": 0.1163,
      "velocity": 113,
      "chip": "ym2612"
    },
    {
      "channel": 0,
      "note": 66,
      "start": 50.4694,
      "duration": 0.1081,
      "velocity": 93,
      "chip": "ym2612"
    },
    {
      "channel": 5,
      "note": 66,
      "start": 50.4765,
      "duration": 0.1099,
      "velocity": 127,
      "chip": "ym2612"
    },
    {
      "channel": 2,
      "note": 69,
      "start": 50.5683,
      "duration": 0.0989,
      "velocity": 115,
      "chip": "ym2612"
    },
    {
      "channel": 1,
      "note": 72,
      "start": 50.5706,
      "duration": 0.0989,
      "velocity": 106,
      "chip": "ym2612"
    },
    {
      "channel": 0,
      "note": 66,
      "start": 50.5781,
      "duration": 0.0982,
      "velocity": 93,
      "chip": "ym2612"
    },
    {
      "channel": 4,
      "note": 45,
      "start": 50.5826,
      "duration": 0.2,
      "velocity": 113,
      "chip": "ym2612"
    },
    {
      "channel": 5,
      "note": 66,
      "start": 50.5871,
      "duration": 0.0963,
      "velocity": 127,
      "chip": "ym2612"
    },
    {
      "channel": 2,
      "note": 69,
      "start": 50.6678,
      "duration": 0.0995,
      "velocity": 115,
      "chip": "ym2612"
    },
    {
      "channel": 1,
      "note": 74,
      "start": 50.6701,
      "duration": 0.0995,
      "velocity": 106,
      "chip": "ym2612"
    },
    {
      "channel": 0,
      "note": 66,
      "start": 50.6769,
      "duration": 0.1011,
      "velocity": 93,
      "chip": "ym2612"
    },
    {
      "channel": 5,
      "note": 66,
      "start": 50.684,
      "duration": 0.103,
      "velocity": 127,
      "chip": "ym2612"
    },
    {
      "channel": 2,
      "note": 81,
      "start": 50.7679,
      "duration": 0.1079,
      "velocity": 115,
      "chip": "ym2612"
    },
    {
      "channel": 1,
      "note": 67,
      "start": 50.7702,
      "duration": 0.2054,
      "velocity": 106,
      "chip": "ym2612"
    },
    {
      "channel": 0,
      "note": 66,
      "start": 50.7787,
      "duration": 0.1043,
      "velocity": 93,
      "chip": "ym2612"
    },
    {
      "channel": 4,
      "note": 45,
      "start": 50.7832,
      "duration": 0.0899,
      "velocity": 113,
      "chip": "ym2612"
    },
    {
      "channel": 5,
      "note": 66,
      "start": 50.7876,
      "duration": 0.2012,
      "velocity": 127,
      "chip": "ym2612"
    },
    {
      "channel": 4,
      "note": 45,
      "start": 50.8737,
      "duration": 0.1249,
      "velocity": 113,
      "chip": "ym2612"
    },
    {
      "channel": 2,
      "note": 69,
      "start": 50.8764,
      "duration": 0.1165,
      "velocity": 115,
      "chip": "ym2612"
    },
    {
      "channel": 0,
      "note": 66,
      "start": 50.8836,
      "duration": 0.1029,
      "velocity": 93,
      "chip": "ym2612"
    },
    {
      "channel": 1,
      "note": 91,
      "start": 50.9762,
      "duration": 0.1043,
      "velocity": 106,
      "chip": "ym2612"
    },
    {
      "channel": 3,
      "note": 55,
      "start": 50.9831,
      "duration": 0.302,
      "velocity": 97,
      "chip": "ym2612"
    },
    {
      "channel": 0,
      "note": 66,
      "start": 50.9871,
      "duration": 0.0956,
      "velocity": 93,
      "chip": "ym2612"
    },
    {
      "channel": 2,
      "note": 69,
      "start": 50.9935,
      "duration": 0.0847,
      "velocity": 115,
      "chip": "ym2612"
    },
    {
      "channel": 4,
      "note": 55,
      "start": 50.9992,
      "duration": 0.2837,
      "velocity": 113,
      "chip": "ym2612"
    },
    {
      "channel": 5,
      "note": 66,
      "start": 51.0036,
      "duration": 0.1779,
      "velocity": 127,
      "chip": "ym2612"
    },
    {
      "channel": 2,
      "note": 69,
      "start": 51.0788,
      "duration": 0.1059,
      "velocity": 115,
      "chip": "ym2612"
    },
    {
      "channel": 1,
      "note": 79,
      "start": 51.0811,
      "duration": 0.1059,
      "velocity": 106,
      "chip": "ym2612"
    },
    {
      "channel": 0,
      "note": 66,
      "start": 51.0834,
      "duration": 0.1096,
      "velocity": 93,
      "chip": "ym2612"
    },
    {
      "channel": 5,
      "note": 66,
      "start": 51.1822,
      "duration": 0.205,
      "velocity": 127,
      "chip": "ym2612"
    },
    {
      "channel": 2,
      "note": 81,
      "start": 51.1853,
      "duration": 0.1021,
      "velocity": 115,
      "chip": "ym2612"
    },
    {
      "channel": 1,
      "note": 91,
      "start": 51.1876,
      "duration": 0.102,
      "velocity": 106,
      "chip": "ym2612"
    },
    {
      "channel": 0,
      "note": 66,
      "start": 51.1936,
      "duration": 0.102,
      "velocity": 93,
      "chip": "ym2612"
    },
    {
      "channel": 4,
      "note": 54,
      "start": 51.2835,
      "duration": 0.3107,
      "velocity": 113,
      "chip": "ym2612"
    },
    {
      "channel": 3,
      "note": 54,
      "start": 51.2858,
      "duration": 0.3108,
      "velocity": 97,
      "chip": "ym2612"
    },
    {
      "channel": 2,
      "note": 69,
      "start": 51.2881,
      "duration": 0.1025,
      "velocity": 115,
      "chip": "ym2612"
    },
    {
      "channel": 1,
      "note": 90,
      "start": 51.2903,
      "duration": 0.0936,
      "velocity": 106,
      "chip": "ym2612"
    },
    {
      "channel": 0,
      "note": 66,
      "start": 51.2963,
      "duration": 0.0971,
      "velocity": 93,
      "chip": "ym2612"
    },
    {
      "channel": 1,
      "note": 78,
      "start": 51.3845,
      "duration": 0.1083,
      "velocity": 106,
      "chip": "ym2612"
    },
    {
      "channel": 2,
      "note": 69,
      "start": 51.3912,
      "duration": 0.0994,
      "velocity": 115,
      "chip": "ym2612"
    },
    {
      "channel": 0,
      "note": 66,
      "start": 51.394,
      "duration": 0.1049,
      "velocity": 93,
      "chip": "ym2612"
    },
    {
      "channel": 5,
      "note": 66,
      "start": 51.4012,
      "duration": 0.1906,
      "velocity": 127,
      "chip": "ym2612"
    },
    {
      "channel": 2,
      "note": 81,
      "start": 51.4912,
      "duration": 0.1076,
      "velocity": 115,
      "chip": "ym2612"
    },
    {
      "channel": 1,
      "note": 90,
      "start": 51.4935,
      "duration": 0.1076,
      "velocity": 106,
      "chip": "ym2612"
    },
    {
      "channel": 0,
      "note": 66,
      "start": 51.4995,
      "duration": 0.1038,
      "velocity": 93,
      "chip": "ym2612"
    },
    {
      "channel": 4,
      "note": 53,
      "start": 51.5949,
      "duration": 0.3057,
      "velocity": 113,
      "chip": "ym2612"
    },
    {
      "channel": 3,
      "note": 53,
      "start": 51.5972,
      "duration": 0.3056,
      "velocity": 97,
      "chip": "ym2612"
    },
    {
      "channel": 2,
      "note": 69,
      "start": 51.5995,
      "duration": 0.0976,
      "velocity": 115,
      "chip": "ym2612"
    },
    {
      "channel": 1,
      "note": 89,
      "start": 51.6017,
      "duration": 0.0903,
      "velocity": 106,
      "chip": "ym2612"
    },
    {
      "channel": 0,
      "note": 66,
      "start": 51.604,
      "duration": 0.0958,
      "velocity": 93,
      "chip": "ym2612"
    },
    {
      "channel": 5,
      "note": 66,
      "start": 51.6113,
      "duration": 0.1879,
      "velocity": 127,
      "chip": "ym2612"
    },
    {
      "channel": 1,
      "note": 77,
      "start": 51.6927,
      "duration": 0.112,
      "velocity": 106,
      "chip": "ym2612"
    },
    {
      "channel": 2,
      "note": 69,
      "start": 51.6977,
      "duration": 0.1047,
      "velocity": 115,
      "chip": "ym2612"
    },
    {
      "channel": 0,
      "note": 66,
      "start": 51.7004,
      "duration": 0.1065,
      "velocity": 93,
      "chip": "ym2612"
    },
    {
      "channel": 5,
      "note": 66,
      "start": 51.7998,
      "duration": 0.2063,
      "velocity": 127,
      "chip": "ym2612"
    },
    {
      "channel": 2,
      "note": 81,
      "start": 51.8031,
      "duration": 0.1021,
      "velocity": 115,
      "chip": "ym2612"
    },
    {
      "channel": 1,
      "note": 89,
      "start": 51.8053,
      "duration": 0.1021,
      "velocity": 106,
      "chip": "ym2612"
    },
    {
      "channel": 0,
      "note": 66,
      "start": 51.8075,
      "duration": 0.1022,
      "velocity": 93,
      "chip": "ym2612"
    },
    {
      "channel": 4,
      "note": 52,
      "start": 51.9012,
      "duration": 0.3058,
      "velocity": 113,
      "chip": "ym2612"
    },
    {
      "channel": 3,
      "note": 52,
      "start": 51.9035,
      "duration": 0.3057,
      "velocity": 97,
      "chip": "ym2612"
    },
    {
      "channel": 2,
      "note": 69,
      "start": 51.9058,
      "duration": 0.0947,
      "velocity": 115,
      "chip": "ym2612"
    },
    {
      "channel": 1,
      "note": 88,
      "start": 51.908,
      "duration": 0.0947,
      "velocity": 106,
      "chip": "ym2612"
    },
    {
      "channel": 0,
      "note": 66,
      "start": 51.9103,
      "duration": 0.1002,
      "velocity": 93,
      "chip": "ym2612"
    },
    {
      "channel": 2,
      "note": 69,
      "start": 52.0012,
      "duration": 0.1074,
      "velocity": 115,
      "chip": "ym2612"
    },
    {
      "channel": 1,
      "note": 76,
      "start": 52.0034,
      "duration": 0.1074,
      "velocity": 106,
      "chip": "ym2612"
    },
    {
      "channel": 0,
      "note": 66,
      "start": 52.0112,
      "duration": 0.1072,
      "velocity": 93,
      "chip": "ym2612"
    },
    {
      "channel": 5,
      "note": 66,
      "start": 52.0183,
      "duration": 0.1026,
      "velocity": 127,
      "chip": "ym2612"
    },
    {
      "channel": 2,
      "note": 81,
      "start": 52.1092,
      "duration": 0.1023,
      "velocity": 115,
      "chip": "ym2612"
    },
    {
      "channel": 1,
      "note": 88,
      "start": 52.1115,
      "duration": 0.1023,
      "velocity": 106,
      "chip": "ym2612"
    },
    {
      "channel": 0,
      "note": 66,
      "start": 52.119,
      "duration": 0.1015,
      "velocity": 93,
      "chip": "ym2612"
    },
    {
      "channel": 5,
      "note": 66,
      "start": 52.1215,
      "duration": 0.1062,
      "velocity": 127,
      "chip": "ym2612"
    },
    {
      "channel": 4,
      "note": 51,
      "start": 52.2076,
      "duration": 0.2162,
      "velocity": 113,
      "chip": "ym2612"
    },
    {
      "channel": 3,
      "note": 51,
      "start": 52.2098,
      "duration": 0.2045,
      "velocity": 97,
      "chip": "ym2612"
    },
    {
      "channel": 2,
      "note": 69,
      "start": 52.2121,
      "duration": 0.0964,
      "velocity": 115,
      "chip": "ym2612"
    },
    {
      "channel": 1,
      "note": 87,
      "start": 52.2144,
      "duration": 0.0963,
      "velocity": 106,
      "chip": "ym2612"
    },
    {
      "channel": 0,
      "note": 66,
      "start": 52.2211,
      "duration": 0.0963,
      "velocity": 93,
      "chip": "ym2612"
    },
    {
      "channel": 5,
      "note": 66,
      "start": 52.2283,
      "duration": 0.0963,
      "velocity": 127,
      "chip": "ym2612"
    },
    {
      "channel": 2,
      "note": 69,
      "start": 52.3091,
      "duration": 0.1074,
      "velocity": 115,
      "chip": "ym2612"
    },
    {
      "channel": 1,
      "note": 75,
      "start": 52.3113,
      "duration": 0.1075,
      "velocity": 106,
      "chip": "ym2612"
    },
    {
      "channel": 0,
      "note": 66,
      "start": 52.3181,
      "duration": 0.1093,
      "velocity": 93,
      "chip": "ym2612"
    },
    {
      "channel": 5,
      "note": 66,
      "start": 52.3253,
      "duration": 0.1093,
      "velocity": 127,
      "chip": "ym2612"
    },
    {
      "channel": 3,
      "note": 48,
      "start": 52.4149,
      "duration": 0.2154,
      "velocity": 97,
      "chip": "ym2612"
    },
    {
      "channel": 2,
      "note": 81,
      "start": 52.4172,
      "duration": 0.0981,
      "velocity": 115,
      "chip": "ym2612"
    },
    {
      "channel": 1,
      "note": 84,
      "start": 52.4195,
      "duration": 0.0981,
      "velocity": 106,
      "chip": "ym2612"
    },
    {
      "channel": 4,
      "note": 48,
      "start": 52.4244,
      "duration": 0.2135,
      "velocity": 113,
      "chip": "ym2612"
    },
    {
      "channel": 0,
      "note": 66,
      "start": 52.428,
      "duration": 0.0963,
      "velocity": 93,
      "chip": "ym2612"
    },
    {
      "channel": 5,
      "note": 66,
      "start": 52.4352,
      "duration": 0.1915,
      "velocity": 127,
      "chip": "ym2612"
    },
    {
      "channel": 2,
      "note": 69,
      "start": 52.516,
      "duration": 0.1398,
      "velocity": 115,
      "chip": "ym2612"
    },
    {
      "channel": 1,
      "note": 72,
      "start": 52.5182,
      "duration": 0.1236,
      "velocity": 106,
      "chip": "ym2612"
    },
    {
      "channel": 0,
      "note": 66,
      "start": 52.5249,
      "duration": 0.0995,
      "velocity": 93,
      "chip": "ym2612"
    },
    {
      "channel": 0,
      "note": 66,
      "start": 52.625,
      "duration": 0.1042,
      "velocity": 93,
      "chip": "ym2612"
    },
    {
      "channel": 3,
      "note": 45,
      "start": 52.631,
      "duration": 3.2754,
      "velocity": 97,
      "chip": "ym2612"
    },
    {
      "channel": 4,
      "note": 45,
      "start": 52.6386,
      "duration": 0.1976,
      "velocity": 113,
      "chip": "ym2612"
    },
    {
      "channel": 1,
      "note": 69,
      "start": 52.6424,
      "duration": 0.2874,
      "velocity": 106,
      "chip": "ym2612"
    },
    {
      "channel": 5,
      "note": 66,
      "start": 52.6454,
      "duration": 0.18,
      "velocity": 127,
      "chip": "ym2612"
    },
    {
      "channel": 2,
      "note": 69,
      "start": 52.6564,
      "duration": 0.0663,
      "velocity": 115,
      "chip": "ym2612"
    },
    {
      "channel": 2,
      "note": 69,
      "start": 52.7234,
      "duration": 0.1071,
      "velocity": 115,
      "chip": "ym2612"
    },
    {
      "channel": 0,
      "note": 66,
      "start": 52.7299,
      "duration": 0.1033,
      "velocity": 93,
      "chip": "ym2612"
    },
    {
      "channel": 5,
      "note": 66,
      "start": 52.8261,
      "duration": 0.2057,
      "velocity": 127,
      "chip": "ym2612"
    },
    {
      "channel": 2,
      "note": 81,
      "start": 52.8311,
      "duration": 0.0965,
      "velocity": 115,
      "chip": "ym2612"
    },
    {
      "channel": 0,
      "note": 66,
      "start": 52.8338,
      "duration": 0.102,
      "velocity": 93,
      "chip": "ym2612"
    },
    {
      "channel": 4,
      "note": 45,
      "start": 52.8368,
      "duration": 0.0881,
      "velocity": 113,
      "chip": "ym2612"
    },
    {
      "channel": 4,
      "note": 45,
      "start": 52.9255,
      "duration": 0.1244,
      "velocity": 113,
      "chip": "ym2612"
    },
    {
      "channel": 2,
      "note": 69,
      "start": 52.9282,
      "duration": 0.1088,
      "velocity": 115,
      "chip": "ym2612"
    },
    {
      "channel": 1,
      "note": 72,
      "start": 52.9305,
      "duration": 0.3073,
      "velocity": 106,
      "chip": "ym2612"
    },
    {
      "channel": 0,
      "note": 66,
      "start": 52.9365,
      "duration": 0.1032,
      "velocity": 93,
      "chip": "ym2612"
    },
    {
      "channel": 2,
      "note": 69,
      "start": 53.0376,
      "duration": 0.0957,
      "velocity": 115,
      "chip": "ym2612"
    },
    {
      "channel": 0,
      "note": 66,
      "start": 53.0403,
      "duration": 0.0995,
      "velocity": 93,
      "chip": "ym2612"
    },
    {
      "channel": 5,
      "note": 66,
      "start": 53.0483,
      "duration": 0.1928,
      "velocity": 127,
      "chip": "ym2612"
    },
    {
      "channel": 4,
      "note": 45,
      "start": 53.0505,
      "duration": 0.1931,
      "velocity": 113,
      "chip": "ym2612"
    },
    {
      "channel": 2,
      "note": 81,
      "start": 53.1339,
      "duration": 0.1015,
      "velocity": 115,
      "chip": "ym2612"
    },
    {
      "channel": 0,
      "note": 66,
      "start": 53.1404,
      "duration": 0.1068,
      "velocity": 93,
      "chip": "ym2612"
    },
    {
      "channel": 2,
      "note": 69,
      "start": 53.2361,
      "duration": 0.1024,
      "velocity": 115,
      "chip": "ym2612"
    },
    {
      "channel": 1,
      "note": 74,
      "start": 53.2384,
      "duration": 0.3049,
      "velocity": 106,
      "chip": "ym2612"
    },
    {
      "channel": 4,
      "note": 45,
      "start": 53.2442,
      "duration": 0.0988,
      "velocity": 113,
      "chip": "ym2612"
    },
    {
      "channel": 0,
      "note": 66,
      "start": 53.2479,
      "duration": 0.0988,
      "velocity": 93,
      "chip": "ym2612"
    },
    {
      "channel": 5,
      "note": 66,
      "start": 53.2552,
      "duration": 0.1914,
      "velocity": 127,
      "chip": "ym2612"
    },
    {
      "channel": 2,
      "note": 69,
      "start": 53.3391,
      "duration": 0.1033,
      "velocity": 115,
      "chip": "ym2612"
    },
    {
      "channel": 4,
      "note": 45,
      "start": 53.3437,
      "duration": 0.1108,
      "velocity": 113,
      "chip": "ym2612"
    },
    {
      "channel": 0,
      "note": 66,
      "start": 53.3474,
      "duration": 0.1041,
      "velocity": 93,
      "chip": "ym2612"
    },
    {
      "channel": 2,
      "note": 81,
      "start": 53.4431,
      "duration": 0.098,
      "velocity": 115,
      "chip": "ym2612"
    },
    {
      "channel": 5,
      "note": 66,
      "start": 53.4472,
      "duration": 0.2011,
      "velocity": 127,
      "chip": "ym2612"
    },
    {
      "channel": 0,
      "note": 66,
      "start": 53.4521,
      "duration": 0.0971,
      "velocity": 93,
      "chip": "ym2612"
    },
    {
      "channel": 4,
      "note": 45,
      "start": 53.4552,
      "duration": 0.2055,
      "velocity": 113,
      "chip": "ym2612"
    },
    {
      "channel": 2,
      "note": 69,
      "start": 53.5417,
      "duration": 0.1118,
      "velocity": 115,
      "chip": "ym2612"
    },
    {
      "channel": 1,
      "note": 69,
      "start": 53.5439,
      "duration": 0.3076,
      "velocity": 106,
      "chip": "ym2612"
    },
    {
      "channel": 0,
      "note": 66,
      "start": 53.5499,
      "duration": 0.1064,
      "velocity": 93,
      "chip": "ym2612"
    },
    {
      "channel": 2,
      "note": 69,
      "start": 53.6541,
      "duration": 0.0967,
      "velocity": 115,
      "chip": "ym2612"
    },
    {
      "channel": 0,
      "note": 66,
      "start": 53.6569,
      "duration": 0.1013,
      "velocity": 93,
      "chip": "ym2612"
    },
    {
      "channel": 4,
      "note": 45,
      "start": 53.6613,
      "duration": 0.0868,
      "velocity": 113,
      "chip": "ym2612"
    },
    {
      "channel": 5,
      "note": 66,
      "start": 53.6658,
      "duration": 0.0995,
      "velocity": 127,
      "chip": "ym2612"
    },
    {
      "channel": 4,
      "note": 45,
      "start": 53.7488,
      "duration": 0.1214,
      "velocity": 113,
      "chip": "ym2612"
    },
    {
      "channel": 2,
      "note": 81,
      "start": 53.7515,
      "duration": 0.0978,
      "velocity": 115,
      "chip": "ym2612"
    },
    {
      "channel": 0,
      "note": 66,
      "start": 53.7588,
      "duration": 0.1012,
      "velocity": 93,
      "chip": "ym2612"
    },
    {
      "channel": 5,
      "note": 66,
      "start": 53.7659,
      "duration": 0.1019,
      "velocity": 127,
      "chip": "ym2612"
    },
    {
      "channel": 2,
      "note": 69,
      "start": 53.8498,
      "duration": 0.1076,
      "velocity": 115,
      "chip": "ym2612"
    },
    {
      "channel": 1,
      "note": 72,
      "start": 53.8521,
      "duration": 0.1076,
      "velocity": 106,
      "chip": "ym2612"
    },
    {
      "channel": 0,
      "note": 66,
      "start": 53.8606,
      "duration": 0.1066,
      "velocity": 93,
      "chip": "ym2612"
    },
    {
      "channel": 5,
      "note": 66,
      "start": 53.8685,
      "duration": 0.1013,
      "velocity": 127,
      "chip": "ym2612"
    },
    {
      "channel": 4,
      "note": 45,
      "start": 53.8708,
      "duration": 0.2012,
      "velocity": 113,
      "chip": "ym2612"
    },
    {
      "channel": 2,
      "note": 69,
      "start": 53.958,
      "duration": 0.0987,
      "velocity": 115,
      "chip": "ym2612"
    },
    {
      "channel": 1,
      "note": 74,
      "start": 53.9603,
      "duration": 0.0987,
      "velocity": 106,
      "chip": "ym2612"
    },
    {
      "channel": 0,
      "note": 66,
      "start": 53.9678,
      "duration": 0.0996,
      "velocity": 93,
      "chip": "ym2612"
    },
    {
      "channel": 5,
      "note": 66,
      "start": 53.9704,
      "duration": 0.106,
      "velocity": 127,
      "chip": "ym2612"
    },
    {
      "channel": 2,
      "note": 81,
      "start": 54.0573,
      "duration": 0.0999,
      "velocity": 115,
      "chip": "ym2612"
    },
    {
      "channel": 1,
      "note": 67,
      "start": 54.0596,
      "duration": 0.2137,
      "velocity": 106,
      "chip": "ym2612"
    },
    {
      "channel": 0,
      "note": 66,
      "start": 54.0681,
      "duration": 0.098,
      "velocity": 93,
      "chip": "ym2612"
    },
    {
      "channel": 4,
      "note": 45,
      "start": 54.0726,
      "duration": 0.0899,
      "velocity": 113,
      "chip": "ym2612"
    },
    {
      "channel": 5,
      "note": 66,
      "start": 54.0771,
      "duration": 0.2008,
      "velocity": 127,
      "chip": "ym2612"
    },
    {
      "channel": 2,
      "note": 69,
      "start": 54.1578,
      "duration": 0.1253,
      "velocity": 115,
      "chip": "ym2612"
    },
    {
      "channel": 4,
      "note": 45,
      "start": 54.1631,
      "duration": 0.1172,
      "velocity": 113,
      "chip": "ym2612"
    },
    {
      "channel": 0,
      "note": 66,
      "start": 54.1668,
      "duration": 0.1088,
      "velocity": 93,
      "chip": "ym2612"
    },
    {
      "channel": 1,
      "note": 69,
      "start": 54.274,
      "duration": 0.3023,
      "velocity": 106,
      "chip": "ym2612"
    },
    {
      "channel": 0,
      "note": 66,
      "start": 54.2762,
      "duration": 0.0962,
      "velocity": 93,
      "chip": "ym2612"
    },
    {
      "channel": 4,
      "note": 45,
      "start": 54.281,
      "duration": 0.1936,
      "velocity": 113,
      "chip": "ym2612"
    },
    {
      "channel": 2,
      "note": 69,
      "start": 54.2837,
      "duration": 0.0822,
      "velocity": 115,
      "chip": "ym2612"
    },
    {
      "channel": 5,
      "note": 66,
      "start": 54.292,
      "duration": 0.1803,
      "velocity": 127,
      "chip": "ym2612"
    },
    {
      "channel": 2,
      "note": 69,
      "start": 54.3666,
      "duration": 0.1015,
      "velocity": 115,
      "chip": "ym2612"
    },
    {
      "channel": 0,
      "note": 66,
      "start": 54.3731,
      "duration": 0.1052,
      "velocity": 93,
      "chip": "ym2612"
    },
    {
      "channel": 2,
      "note": 81,
      "start": 54.4688,
      "duration": 0.1052,
      "velocity": 115,
      "chip": "ym2612"
    },
    {
      "channel": 5,
      "note": 66,
      "start": 54.4729,
      "duration": 0.204,
      "velocity": 127,
      "chip": "ym2612"
    },
    {
      "channel": 4,
      "note": 45,
      "start": 54.4752,
      "duration": 0.0961,
      "velocity": 113,
      "chip": "ym2612"
    },
    {
      "channel": 0,
      "note": 66,
      "start": 54.4789,
      "duration": 0.1034,
      "velocity": 93,
      "chip": "ym2612"
    },
    {
      "channel": 4,
      "note": 45,
      "start": 54.5719,
      "duration": 0.1213,
      "velocity": 113,
      "chip": "ym2612"
    },
    {
      "channel": 2,
      "note": 69,
      "start": 54.5746,
      "duration": 0.0985,
      "velocity": 115,
      "chip": "ym2612"
    },
    {
      "channel": 1,
      "note": 72,
      "start": 54.5769,
      "duration": 0.3055,
      "velocity": 106,
      "chip": "ym2612"
    },
    {
      "channel": 0,
      "note": 66,
      "start": 54.5829,
      "duration": 0.1001,
      "velocity": 93,
      "chip": "ym2612"
    },
    {
      "channel": 2,
      "note": 69,
      "start": 54.6738,
      "duration": 0.0998,
      "velocity": 115,
      "chip": "ym2612"
    },
    {
      "channel": 0,
      "note": 66,
      "start": 54.6837,
      "duration": 0.0964,
      "velocity": 93,
      "chip": "ym2612"
    },
    {
      "channel": 5,
      "note": 66,
      "start": 54.6916,
      "duration": 0.1942,
      "velocity": 127,
      "chip": "ym2612"
    },
    {
      "channel": 4,
      "note": 45,
      "start": 54.6939,
      "duration": 0.2027,
      "velocity": 113,
      "chip": "ym2612"
    },
    {
      "channel": 2,
      "note": 81,
      "start": 54.7742,
      "duration": 0.106,
      "velocity": 115,
      "chip": "ym2612"
    },
    {
      "channel": 0,
      "note": 66,
      "start": 54.7807,
      "duration": 0.1112,
      "velocity": 93,
      "chip": "ym2612"
    },
    {
      "channel": 2,
      "note": 69,
      "start": 54.8808,
      "duration": 0.1028,
      "velocity": 115,
      "chip": "ym2612"
    },
    {
      "channel": 1,
      "note": 74,
      "start": 54.883,
      "duration": 0.3049,
      "velocity": 106,
      "chip": "ym2612"
    },
    {
      "channel": 0,
      "note": 66,
      "start": 54.8925,
      "duration": 0.0976,
      "velocity": 93,
      "chip": "ym2612"
    },
    {
      "channel": 4,
      "note": 45,
      "start": 54.8972,
      "duration": 0.0837,
      "velocity": 113,
      "chip": "ym2612"
    },
    {
      "channel": 5,
      "note": 66,
      "start": 54.9017,
      "duration": 0.1816,
      "velocity": 127,
      "chip": "ym2612"
    },
    {
      "channel": 4,
      "note": 45,
      "start": 54.9815,
      "duration": 0.1163,
      "velocity": 113,
      "chip": "ym2612"
    },
    {
      "channel": 2,
      "note": 69,
      "start": 54.9842,
      "duration": 0.1039,
      "velocity": 115,
      "chip": "ym2612"
    },
    {
      "channel": 0,
      "note": 66,
      "start": 54.9908,
      "duration": 0.1001,
      "velocity": 93,
      "chip": "ym2612"
    },
    {
      "channel": 5,
      "note": 66,
      "start": 55.0839,
      "duration": 0.2113,
      "velocity": 127,
      "chip": "ym2612"
    },
    {
      "channel": 2,
      "note": 81,
      "start": 55.0888,
      "duration": 0.1042,
      "velocity": 115,
      "chip": "ym2612"
    },
    {
      "channel": 0,
      "note": 66,
      "start": 55.0916,
      "duration": 0.1041,
      "velocity": 93,
      "chip": "ym2612"
    },
    {
      "channel": 4,
      "note": 45,
      "start": 55.0984,
      "duration": 0.1993,
      "velocity": 113,
      "chip": "ym2612"
    },
    {
      "channel": 1,
      "note": 69,
      "start": 55.1886,
      "duration": 0.3094,
      "velocity": 106,
      "chip": "ym2612"
    },
    {
      "channel": 2,
      "note": 69,
      "start": 55.1936,
      "duration": 0.0978,
      "velocity": 115,
      "chip": "ym2612"
    },
    {
      "channel": 0,
      "note": 66,
      "start": 55.1963,
      "duration": 0.1051,
      "velocity": 93,
      "chip": "ym2612"
    },
    {
      "channel": 2,
      "note": 69,
      "start": 55.292,
      "duration": 0.1037,
      "velocity": 115,
      "chip": "ym2612"
    },
    {
      "channel": 4,
      "note": 45,
      "start": 55.2984,
      "duration": 0.0946,
      "velocity": 113,
      "chip": "ym2612"
    },
    {
      "channel": 0,
      "note": 66,
      "start": 55.3021,
      "duration": 0.0964,
      "velocity": 93,
      "chip": "ym2612"
    },
    {
      "channel": 5,
      "note": 66,
      "start": 55.3093,
      "duration": 0.0964,
      "velocity": 127,
      "chip": "ym2612"
    },
    {
      "channel": 4,
      "note": 45,
      "start": 55.3936,
      "duration": 0.123,
      "velocity": 113,
      "chip": "ym2612"
    },
    {
      "channel": 2,
      "note": 81,
      "start": 55.3964,
      "duration": 0.0994,
      "velocity": 115,
      "chip": "ym2612"
    },
    {
      "channel": 0,
      "note": 66,
      "start": 55.3991,
      "duration": 0.1074,
      "velocity": 93,
      "chip": "ym2612"
    },
    {
      "channel": 5,
      "note": 66,
      "start": 55.4063,
      "duration": 0.1081,
      "velocity": 127,
      "chip": "ym2612"
    },
    {
      "channel": 2,
      "note": 69,
      "start": 55.4963,
      "duration": 0.1006,
      "velocity": 115,
      "chip": "ym2612"
    },
    {
      "channel": 1,
      "note": 72,
      "start": 55.4986,
      "duration": 0.1006,
      "velocity": 106,
      "chip": "ym2612"
    },
    {
      "channel": 0,
      "note": 66,
      "start": 55.5071,
      "duration": 0.0988,
      "velocity": 93,
      "chip": "ym2612"
    },
    {
      "channel": 5,
      "note": 66,
      "start": 55.515,
      "duration": 0.0982,
      "velocity": 127,
      "chip": "ym2612"
    },
    {
      "channel": 4,
      "note": 45,
      "start": 55.5173,
      "duration": 0.195,
      "velocity": 113,
      "chip": "ym2612"
    },
    {
      "channel": 2,
      "note": 69,
      "start": 55.5976,
      "duration": 0.1056,
      "velocity": 115,
      "chip": "ym2612"
    },
    {
      "channel": 1,
      "note": 74,
      "start": 55.5998,
      "duration": 0.1056,
      "velocity": 106,
      "chip": "ym2612"
    },
    {
      "channel": 0,
      "note": 66,
      "start": 55.6066,
      "duration": 0.1012,
      "velocity": 93,
      "chip": "ym2612"
    },
    {
      "channel": 5,
      "note": 66,
      "start": 55.6138,
      "duration": 0.1029,
      "velocity": 127,
      "chip": "ym2612"
    },
    {
      "channel": 2,
      "note": 81,
      "start": 55.7039,
      "duration": 0.1061,
      "velocity": 115,
      "chip": "ym2612"
    },
    {
      "channel": 1,
      "note": 67,
      "start": 55.7061,
      "duration": 0.2002,
      "velocity": 106,
      "chip": "ym2612"
    },
    {
      "channel": 0,
      "note": 66,
      "start": 55.7084,
      "duration": 0.1043,
      "velocity": 93,
      "chip": "ym2612"
    },
    {
      "channel": 4,
      "note": 45,
      "start": 55.7129,
      "duration": 0.0943,
      "velocity": 113,
      "chip": "ym2612"
    },
    {
      "channel": 5,
      "note": 66,
      "start": 55.7173,
      "duration": 0.189,
      "velocity": 127,
      "chip": "ym2612"
    },
    {
      "channel": 4,
      "note": 45,
      "start": 55.8078,
      "duration": 0.0986,
      "velocity": 113,
      "chip": "ym2612"
    },
    {
      "channel": 2,
      "note": 69,
      "start": 55.8106,
      "duration": 0.0958,
      "velocity": 115,
      "chip": "ym2612"
    },
    {
      "channel": 0,
      "note": 66,
      "start": 55.8133,
      "duration": 0.093,
      "velocity": 93,
      "chip": "ym2612"
    }
  ]
}