{
  "track_name": "14 - Weird Ruins",
  "duration_sec": 21.67,
  "sample_rate": 44100,
  "note_count": 388,
  "unique_pitches": 27,
  "pitch_range": 56,
  "avg_note_duration": 0.1769,
  "reconstruction_stats": {
    "notes_reconstructed": 388,
    "keyon_events": 388,
    "keyoff_events": 388,
    "orphan_keyons": 0,
    "unique_pitches": 27,
    "pitch_range": 56,
    "avg_duration_sec": 0.1769
  },
  "metadata": {
    "source": "S\\Sorcerer's Kingdom\\14 - Weird Ruins.vgm"
  },
  "notes": [
    {
      "channel": 3,
      "note": 54,
      "start": 0.0068,
      "duration": 0.1308,
      "velocity": 91,
      "chip": "ym2612"
    },
    {
      "channel": 4,
      "note": 36,
      "start": 0.0068,
      "duration": 0.081,
      "velocity": 101,
      "chip": "ym2612"
    },
    {
      "channel": 3,
      "note": 54,
      "start": 0.172,
      "duration": 0.1324,
      "velocity": 91,
      "chip": "ym2612"
    },
    {
      "channel": 4,
      "note": 36,
      "start": 0.1721,
      "duration": 0.0824,
      "velocity": 101,
      "chip": "ym2612"
    },
    {
      "channel": 1,
      "note": 54,
      "start": 0.3448,
      "duration": 0.1263,
      "velocity": 119,
      "chip": "ym2612"
    },
    {
      "channel": 2,
      "note": 54,
      "start": 0.3448,
      "duration": 0.1263,
      "velocity": 97,
      "chip": "ym2612"
    },
    {
      "channel": 3,
      "note": 66,
      "start": 0.3449,
      "duration": 0.1263,
      "velocity": 91,
      "chip": "ym2612"
    },
    {
      "channel": 4,
      "note": 55,
      "start": 0.3449,
      "duration": 0.076,
      "velocity": 127,
      "chip": "ym2612"
    },
    {
      "channel": 3,
      "note": 62,
      "start": 0.509,
      "duration": 0.1286,
      "velocity": 91,
      "chip": "ym2612"
    },
    {
      "channel": 4,
      "note": 36,
      "start": 0.5091,
      "duration": 0.0785,
      "velocity": 101,
      "chip": "ym2612"
    },
    {
      "channel": 3,
      "note": 61,
      "start": 0.6719,
      "duration": 0.1323,
      "velocity": 91,
      "chip": "ym2612"
    },
    {
      "channel": 4,
      "note": 36,
      "start": 0.672,
      "duration": 0.0823,
      "velocity": 101,
      "chip": "ym2612"
    },
    {
      "channel": 1,
      "note": 54,
      "start": 0.8431,
      "duration": 0.128,
      "velocity": 119,
      "chip": "ym2612"
    },
    {
      "channel": 2,
      "note": 54,
      "start": 0.8432,
      "duration": 0.128,
      "velocity": 97,
      "chip": "ym2612"
    },
    {
      "channel": 3,
      "note": 62,
      "start": 0.8432,
      "duration": 0.1279,
      "velocity": 91,
      "chip": "ym2612"
    },
    {
      "channel": 4,
      "note": 55,
      "start": 0.8433,
      "duration": 0.0776,
      "velocity": 127,
      "chip": "ym2612"
    },
    {
      "channel": 3,
      "note": 61,
      "start": 1.009,
      "duration": 0.1286,
      "velocity": 91,
      "chip": "ym2612"
    },
    {
      "channel": 4,
      "note": 36,
      "start": 1.0091,
      "duration": 0.0785,
      "velocity": 101,
      "chip": "ym2612"
    },
    {
      "channel": 1,
      "note": 52,
      "start": 1.1757,
      "duration": 0.2953,
      "velocity": 119,
      "chip": "ym2612"
    },
    {
      "channel": 2,
      "note": 52,
      "start": 1.1758,
      "duration": 0.2953,
      "velocity": 97,
      "chip": "ym2612"
    },
    {
      "channel": 3,
      "note": 59,
      "start": 1.1759,
      "duration": 0.1284,
      "velocity": 91,
      "chip": "ym2612"
    },
    {
      "channel": 4,
      "note": 55,
      "start": 1.1759,
      "duration": 0.0783,
      "velocity": 127,
      "chip": "ym2612"
    },
    {
      "channel": 3,
      "note": 54,
      "start": 1.343,
      "duration": 0.1282,
      "velocity": 91,
      "chip": "ym2612"
    },
    {
      "channel": 4,
      "note": 36,
      "start": 1.343,
      "duration": 0.0779,
      "velocity": 101,
      "chip": "ym2612"
    },
    {
      "channel": 1,
      "note": 50,
      "start": 1.5063,
      "duration": 0.1314,
      "velocity": 119,
      "chip": "ym2612"
    },
    {
      "channel": 2,
      "note": 50,
      "start": 1.5063,
      "duration": 0.1314,
      "velocity": 97,
      "chip": "ym2612"
    },
    {
      "channel": 3,
      "note": 54,
      "start": 1.5064,
      "duration": 0.1314,
      "velocity": 91,
      "chip": "ym2612"
    },
    {
      "channel": 4,
      "note": 36,
      "start": 1.5065,
      "duration": 0.0811,
      "velocity": 101,
      "chip": "ym2612"
    },
    {
      "channel": 1,
      "note": 52,
      "start": 1.6765,
      "duration": 0.1279,
      "velocity": 119,
      "chip": "ym2612"
    },
    {
      "channel": 2,
      "note": 52,
      "start": 1.6766,
      "duration": 0.1279,
      "velocity": 97,
      "chip": "ym2612"
    },
    {
      "channel": 3,
      "note": 66,
      "start": 1.6766,
      "duration": 0.1279,
      "velocity": 91,
      "chip": "ym2612"
    },
    {
      "channel": 4,
      "note": 55,
      "start": 1.6767,
      "duration": 0.0776,
      "velocity": 127,
      "chip": "ym2612"
    },
    {
      "channel": 1,
      "note": 54,
      "start": 1.843,
      "duration": 0.278,
      "velocity": 119,
      "chip": "ym2612"
    },
    {
      "channel": 2,
      "note": 54,
      "start": 1.843,
      "duration": 0.278,
      "velocity": 97,
      "chip": "ym2612"
    },
    {
      "channel": 3,
      "note": 62,
      "start": 1.8431,
      "duration": 0.1278,
      "velocity": 91,
      "chip": "ym2612"
    },
    {
      "channel": 4,
      "note": 36,
      "start": 1.8432,
      "duration": 0.0778,
      "velocity": 101,
      "chip": "ym2612"
    },
    {
      "channel": 3,
      "note": 61,
      "start": 2.0053,
      "duration": 0.1323,
      "velocity": 91,
      "chip": "ym2612"
    },
    {
      "channel": 4,
      "note": 36,
      "start": 2.0054,
      "duration": 0.0822,
      "velocity": 101,
      "chip": "ym2612"
    },
    {
      "channel": 1,
      "note": 64,
      "start": 2.1766,
      "duration": 0.1279,
      "velocity": 119,
      "chip": "ym2612"
    },
    {
      "channel": 2,
      "note": 64,
      "start": 2.1766,
      "duration": 0.1279,
      "velocity": 97,
      "chip": "ym2612"
    },
    {
      "channel": 3,
      "note": 62,
      "start": 2.1767,
      "duration": 0.1279,
      "velocity": 91,
      "chip": "ym2612"
    },
    {
      "channel": 4,
      "note": 55,
      "start": 2.1768,
      "duration": 0.0775,
      "velocity": 127,
      "chip": "ym2612"
    },
    {
      "channel": 1,
      "note": 62,
      "start": 2.343,
      "duration": 0.1281,
      "velocity": 119,
      "chip": "ym2612"
    },
    {
      "channel": 2,
      "note": 62,
      "start": 2.343,
      "duration": 0.128,
      "velocity": 97,
      "chip": "ym2612"
    },
    {
      "channel": 3,
      "note": 61,
      "start": 2.3431,
      "duration": 0.128,
      "velocity": 91,
      "chip": "ym2612"
    },
    {
      "channel": 4,
      "note": 36,
      "start": 2.3432,
      "duration": 0.0778,
      "velocity": 101,
      "chip": "ym2612"
    },
    {
      "channel": 1,
      "note": 61,
      "start": 2.5091,
      "duration": 0.1287,
      "velocity": 119,
      "chip": "ym2612"
    },
    {
      "channel": 2,
      "note": 61,
      "start": 2.5091,
      "duration": 0.1287,
      "velocity": 97,
      "chip": "ym2612"
    },
    {
      "channel": 3,
      "note": 59,
      "start": 2.5092,
      "duration": 0.1287,
      "velocity": 91,
      "chip": "ym2612"
    },
    {
      "channel": 4,
      "note": 55,
      "start": 2.5093,
      "duration": 0.0783,
      "velocity": 127,
      "chip": "ym2612"
    },
    {
      "channel": 3,
      "note": 54,
      "start": 2.6765,
      "duration": 0.1278,
      "velocity": 91,
      "chip": "ym2612"
    },
    {
      "channel": 4,
      "note": 36,
      "start": 2.6766,
      "duration": 0.0777,
      "velocity": 101,
      "chip": "ym2612"
    },
    {
      "channel": 3,
      "note": 54,
      "start": 2.8386,
      "duration": 0.1323,
      "velocity": 91,
      "chip": "ym2612"
    },
    {
      "channel": 4,
      "note": 36,
      "start": 2.8387,
      "duration": 0.0822,
      "velocity": 101,
      "chip": "ym2612"
    },
    {
      "channel": 1,
      "note": 54,
      "start": 3.0099,
      "duration": 0.1279,
      "velocity": 119,
      "chip": "ym2612"
    },
    {
      "channel": 2,
      "note": 54,
      "start": 3.01,
      "duration": 0.1279,
      "velocity": 97,
      "chip": "ym2612"
    },
    {
      "channel": 3,
      "note": 66,
      "start": 3.01,
      "duration": 0.1278,
      "velocity": 91,
      "chip": "ym2612"
    },
    {
      "channel": 4,
      "note": 55,
      "start": 3.0101,
      "duration": 0.0775,
      "velocity": 127,
      "chip": "ym2612"
    },
    {
      "channel": 3,
      "note": 62,
      "start": 3.1757,
      "duration": 0.1286,
      "velocity": 91,
      "chip": "ym2612"
    },
    {
      "channel": 4,
      "note": 36,
      "start": 3.1757,
      "duration": 0.0785,
      "velocity": 101,
      "chip": "ym2612"
    },
    {
      "channel": 3,
      "note": 61,
      "start": 3.3386,
      "duration": 0.1323,
      "velocity": 91,
      "chip": "ym2612"
    },
    {
      "channel": 4,
      "note": 36,
      "start": 3.3386,
      "duration": 0.0823,
      "velocity": 101,
      "chip": "ym2612"
    },
    {
      "channel": 1,
      "note": 54,
      "start": 3.5098,
      "duration": 0.128,
      "velocity": 119,
      "chip": "ym2612"
    },
    {
      "channel": 2,
      "note": 54,
      "start": 3.5098,
      "duration": 0.128,
      "velocity": 97,
      "chip": "ym2612"
    },
    {
      "channel": 3,
      "note": 62,
      "start": 3.5099,
      "duration": 0.1279,
      "velocity": 91,
      "chip": "ym2612"
    },
    {
      "channel": 4,
      "note": 55,
      "start": 3.51,
      "duration": 0.0776,
      "velocity": 127,
      "chip": "ym2612"
    },
    {
      "channel": 3,
      "note": 61,
      "start": 3.6757,
      "duration": 0.1286,
      "velocity": 91,
      "chip": "ym2612"
    },
    {
      "channel": 4,
      "note": 36,
      "start": 3.6757,
      "duration": 0.0785,
      "velocity": 101,
      "chip": "ym2612"
    },
    {
      "channel": 1,
      "note": 52,
      "start": 3.8424,
      "duration": 0.2953,
      "velocity": 119,
      "chip": "ym2612"
    },
    {
      "channel": 2,
      "note": 52,
      "start": 3.8425,
      "duration": 0.2953,
      "velocity": 97,
      "chip": "ym2612"
    },
    {
      "channel": 3,
      "note": 59,
      "start": 3.8425,
      "duration": 0.1284,
      "velocity": 91,
      "chip": "ym2612"
    },
    {
      "channel": 4,
      "note": 55,
      "start": 3.8426,
      "duration": 0.0783,
      "velocity": 127,
      "chip": "ym2612"
    },
    {
      "channel": 3,
      "note": 54,
      "start": 4.0098,
      "duration": 0.128,
      "velocity": 91,
      "chip": "ym2612"
    },
    {
      "channel": 4,
      "note": 55,
      "start": 4.0099,
      "duration": 0.0777,
      "velocity": 127,
      "chip": "ym2612"
    },
    {
      "channel": 1,
      "note": 50,
      "start": 4.1755,
      "duration": 0.1288,
      "velocity": 119,
      "chip": "ym2612"
    },
    {
      "channel": 2,
      "note": 50,
      "start": 4.1756,
      "duration": 0.1288,
      "velocity": 97,
      "chip": "ym2612"
    },
    {
      "channel": 3,
      "note": 54,
      "start": 4.1757,
      "duration": 0.1288,
      "velocity": 91,
      "chip": "ym2612"
    },
    {
      "channel": 4,
      "note": 36,
      "start": 4.1757,
      "duration": 0.0785,
      "velocity": 101,
      "chip": "ym2612"
    },
    {
      "channel": 1,
      "note": 52,
      "start": 4.3404,
      "duration": 0.1306,
      "velocity": 119,
      "chip": "ym2612"
    },
    {
      "channel": 2,
      "note": 52,
      "start": 4.3405,
      "duration": 0.1306,
      "velocity": 97,
      "chip": "ym2612"
    },
    {
      "channel": 3,
      "note": 66,
      "start": 4.3405,
      "duration": 0.1306,
      "velocity": 91,
      "chip": "ym2612"
    },
    {
      "channel": 4,
      "note": 36,
      "start": 4.3406,
      "duration": 0.0803,
      "velocity": 101,
      "chip": "ym2612"
    },
    {
      "channel": 1,
      "note": 54,
      "start": 4.5098,
      "duration": 0.2778,
      "velocity": 119,
      "chip": "ym2612"
    },
    {
      "channel": 2,
      "note": 54,
      "start": 4.5098,
      "duration": 0.2779,
      "velocity": 97,
      "chip": "ym2612"
    },
    {
      "channel": 3,
      "note": 62,
      "start": 4.5099,
      "duration": 0.1277,
      "velocity": 91,
      "chip": "ym2612"
    },
    {
      "channel": 4,
      "note": 55,
      "start": 4.51,
      "duration": 0.0776,
      "velocity": 127,
      "chip": "ym2612"
    },
    {
      "channel": 3,
      "note": 61,
      "start": 4.6745,
      "duration": 0.1298,
      "velocity": 91,
      "chip": "ym2612"
    },
    {
      "channel": 4,
      "note": 36,
      "start": 4.6745,
      "duration": 0.0797,
      "velocity": 101,
      "chip": "ym2612"
    },
    {
      "channel": 1,
      "note": 64,
      "start": 4.8432,
      "duration": 0.1279,
      "velocity": 119,
      "chip": "ym2612"
    },
    {
      "channel": 2,
      "note": 64,
      "start": 4.8432,
      "duration": 0.1279,
      "velocity": 97,
      "chip": "ym2612"
    },
    {
      "channel": 3,
      "note": 62,
      "start": 4.8433,
      "duration": 0.1279,
      "velocity": 91,
      "chip": "ym2612"
    },
    {
      "channel": 4,
      "note": 55,
      "start": 4.8434,
      "duration": 0.0776,
      "velocity": 127,
      "chip": "ym2612"
    },
    {
      "channel": 1,
      "note": 62,
      "start": 5.0071,
      "duration": 0.1307,
      "velocity": 119,
      "chip": "ym2612"
    },
    {
      "channel": 2,
      "note": 62,
      "start": 5.0072,
      "duration": 0.1307,
      "velocity": 97,
      "chip": "ym2612"
    },
    {
      "channel": 3,
      "note": 61,
      "start": 5.0072,
      "duration": 0.1307,
      "velocity": 91,
      "chip": "ym2612"
    },
    {
      "channel": 4,
      "note": 55,
      "start": 5.0073,
      "duration": 0.0303,
      "velocity": 127,
      "chip": "ym2612"
    },
    {
      "channel": 4,
      "note": 55,
      "start": 5.0881,
      "duration": 0.0329,
      "velocity": 127,
      "chip": "ym2612"
    },
    {
      "channel": 1,
      "note": 61,
      "start": 5.173,
      "duration": 0.1314,
      "velocity": 119,
      "chip": "ym2612"
    },
    {
      "channel": 2,
      "note": 61,
      "start": 5.1731,
      "duration": 0.1314,
      "velocity": 97,
      "chip": "ym2612"
    },
    {
      "channel": 3,
      "note": 59,
      "start": 5.1731,
      "duration": 0.1314,
      "velocity": 91,
      "chip": "ym2612"
    },
    {
      "channel": 4,
      "note": 55,
      "start": 5.1732,
      "duration": 0.031,
      "velocity": 127,
      "chip": "ym2612"
    },
    {
      "channel": 4,
      "note": 55,
      "start": 5.2547,
      "duration": 0.0329,
      "velocity": 127,
      "chip": "ym2612"
    },
    {
      "channel": 0,
      "note": 90,
      "start": 5.3443,
      "duration": 0.1265,
      "velocity": 90,
      "chip": "ym2612"
    },
    {
      "channel": 3,
      "note": 54,
      "start": 5.3444,
      "duration": 0.1265,
      "velocity": 91,
      "chip": "ym2612"
    },
    {
      "channel": 4,
      "note": 36,
      "start": 5.3445,
      "duration": 0.0764,
      "velocity": 101,
      "chip": "ym2612"
    },
    {
      "channel": 0,
      "note": 85,
      "start": 5.5057,
      "duration": 0.1318,
      "velocity": 90,
      "chip": "ym2612"
    },
    {
      "channel": 3,
      "note": 54,
      "start": 5.5058,
      "duration": 0.1318,
      "velocity": 91,
      "chip": "ym2612"
    },
    {
      "channel": 4,
      "note": 36,
      "start": 5.5058,
      "duration": 0.0817,
      "velocity": 101,
      "chip": "ym2612"
    },
    {
      "channel": 0,
      "note": 92,
      "start": 5.677,
      "duration": 0.1274,
      "velocity": 90,
      "chip": "ym2612"
    },
    {
      "channel": 1,
      "note": 54,
      "start": 5.6771,
      "duration": 0.1274,
      "velocity": 119,
      "chip": "ym2612"
    },
    {
      "channel": 2,
      "note": 66,
      "start": 5.6771,
      "duration": 0.1274,
      "velocity": 97,
      "chip": "ym2612"
    },
    {
      "channel": 3,
      "note": 66,
      "start": 5.6772,
      "duration": 0.1274,
      "velocity": 91,
      "chip": "ym2612"
    },
    {
      "channel": 4,
      "note": 55,
      "start": 5.6773,
      "duration": 0.0769,
      "velocity": 127,
      "chip": "ym2612"
    },
    {
      "channel": 0,
      "note": 85,
      "start": 5.8427,
      "duration": 0.1281,
      "velocity": 90,
      "chip": "ym2612"
    },
    {
      "channel": 3,
      "note": 62,
      "start": 5.8428,
      "duration": 0.1281,
      "velocity": 91,
      "chip": "ym2612"
    },
    {
      "channel": 4,
      "note": 36,
      "start": 5.8429,
      "duration": 0.0779,
      "velocity": 101,
      "chip": "ym2612"
    },
    {
      "channel": 0,
      "note": 90,
      "start": 6.0057,
      "duration": 0.1318,
      "velocity": 90,
      "chip": "ym2612"
    },
    {
      "channel": 3,
      "note": 61,
      "start": 6.0058,
      "duration": 0.1318,
      "velocity": 91,
      "chip": "ym2612"
    },
    {
      "channel": 4,
      "note": 36,
      "start": 6.0058,
      "duration": 0.0817,
      "velocity": 101,
      "chip": "ym2612"
    },
    {
      "channel": 0,
      "note": 85,
      "start": 6.1769,
      "duration": 0.1276,
      "velocity": 90,
      "chip": "ym2612"
    },
    {
      "channel": 1,
      "note": 54,
      "start": 6.1769,
      "duration": 0.1276,
      "velocity": 119,
      "chip": "ym2612"
    },
    {
      "channel": 2,
      "note": 68,
      "start": 6.177,
      "duration": 0.1276,
      "velocity": 97,
      "chip": "ym2612"
    },
    {
      "channel": 3,
      "note": 62,
      "start": 6.1771,
      "duration": 0.1275,
      "velocity": 91,
      "chip": "ym2612"
    },
    {
      "channel": 4,
      "note": 55,
      "start": 6.1771,
      "duration": 0.077,
      "velocity": 127,
      "chip": "ym2612"
    },
    {
      "channel": 0,
      "note": 88,
      "start": 6.3427,
      "duration": 0.1282,
      "velocity": 90,
      "chip": "ym2612"
    },
    {
      "channel": 3,
      "note": 61,
      "start": 6.3428,
      "duration": 0.1282,
      "velocity": 91,
      "chip": "ym2612"
    },
    {
      "channel": 4,
      "note": 36,
      "start": 6.3429,
      "duration": 0.078,
      "velocity": 101,
      "chip": "ym2612"
    },
    {
      "channel": 0,
      "note": 85,
      "start": 6.5095,
      "duration": 0.1282,
      "velocity": 90,
      "chip": "ym2612"
    },
    {
      "channel": 1,
      "note": 52,
      "start": 6.5095,
      "duration": 0.2949,
      "velocity": 119,
      "chip": "ym2612"
    },
    {
      "channel": 2,
      "note": 69,
      "start": 6.5096,
      "duration": 0.2949,
      "velocity": 97,
      "chip": "ym2612"
    },
    {
      "channel": 3,
      "note": 59,
      "start": 6.5097,
      "duration": 0.128,
      "velocity": 91,
      "chip": "ym2612"
    },
    {
      "channel": 4,
      "note": 55,
      "start": 6.5097,
      "duration": 0.0778,
      "velocity": 127,
      "chip": "ym2612"
    },
    {
      "channel": 0,
      "note": 90,
      "start": 6.6769,
      "duration": 0.1274,
      "velocity": 90,
      "chip": "ym2612"
    },
    {
      "channel": 3,
      "note": 54,
      "start": 6.6771,
      "duration": 0.1275,
      "velocity": 91,
      "chip": "ym2612"
    },
    {
      "channel": 4,
      "note": 36,
      "start": 6.6771,
      "duration": 0.0771,
      "velocity": 101,
      "chip": "ym2612"
    },
    {
      "channel": 0,
      "note": 85,
      "start": 6.8401,
      "duration": 0.131,
      "velocity": 90,
      "chip": "ym2612"
    },
    {
      "channel": 1,
      "note": 50,
      "start": 6.8402,
      "duration": 0.1309,
      "velocity": 119,
      "chip": "ym2612"
    },
    {
      "channel": 2,
      "note": 68,
      "start": 6.8402,
      "duration": 0.1309,
      "velocity": 97,
      "chip": "ym2612"
    },
    {
      "channel": 3,
      "note": 54,
      "start": 6.8403,
      "duration": 0.1309,
      "velocity": 91,
      "chip": "ym2612"
    },
    {
      "channel": 4,
      "note": 36,
      "start": 6.8404,
      "duration": 0.0805,
      "velocity": 101,
      "chip": "ym2612"
    },
    {
      "channel": 0,
      "note": 92,
      "start": 7.0103,
      "duration": 0.1275,
      "velocity": 90,
      "chip": "ym2612"
    },
    {
      "channel": 1,
      "note": 52,
      "start": 7.0103,
      "duration": 0.1275,
      "velocity": 119,
      "chip": "ym2612"
    },
    {
      "channel": 2,
      "note": 69,
      "start": 7.0104,
      "duration": 0.1275,
      "velocity": 97,
      "chip": "ym2612"
    },
    {
      "channel": 3,
      "note": 66,
      "start": 7.0105,
      "duration": 0.1274,
      "velocity": 91,
      "chip": "ym2612"
    },
    {
      "channel": 4,
      "note": 55,
      "start": 7.0105,
      "duration": 0.077,
      "velocity": 127,
      "chip": "ym2612"
    },
    {
      "channel": 0,
      "note": 85,
      "start": 7.1768,
      "duration": 0.1275,
      "velocity": 90,
      "chip": "ym2612"
    },
    {
      "channel": 1,
      "note": 54,
      "start": 7.1768,
      "duration": 0.2774,
      "velocity": 119,
      "chip": "ym2612"
    },
    {
      "channel": 2,
      "note": 71,
      "start": 7.1769,
      "duration": 0.2774,
      "velocity": 97,
      "chip": "ym2612"
    },
    {
      "channel": 3,
      "note": 62,
      "start": 7.1769,
      "duration": 0.1273,
      "velocity": 91,
      "chip": "ym2612"
    },
    {
      "channel": 4,
      "note": 36,
      "start": 7.177,
      "duration": 0.0772,
      "velocity": 101,
      "chip": "ym2612"
    },
    {
      "channel": 0,
      "note": 90,
      "start": 7.339,
      "duration": 0.1318,
      "velocity": 90,
      "chip": "ym2612"
    },
    {
      "channel": 3,
      "note": 61,
      "start": 7.3391,
      "duration": 0.1319,
      "velocity": 91,
      "chip": "ym2612"
    },
    {
      "channel": 4,
      "note": 36,
      "start": 7.3392,
      "duration": 0.0817,
      "velocity": 101,
      "chip": "ym2612"
    },
    {
      "channel": 0,
      "note": 85,
      "start": 7.5103,
      "duration": 0.1275,
      "velocity": 90,
      "chip": "ym2612"
    },
    {
      "channel": 1,
      "note": 64,
      "start": 7.5103,
      "duration": 0.1275,
      "velocity": 119,
      "chip": "ym2612"
    },
    {
      "channel": 2,
      "note": 69,
      "start": 7.5104,
      "duration": 0.1275,
      "velocity": 97,
      "chip": "ym2612"
    },
    {
      "channel": 3,
      "note": 62,
      "start": 7.5105,
      "duration": 0.1275,
      "velocity": 91,
      "chip": "ym2612"
    },
    {
      "channel": 4,
      "note": 55,
      "start": 7.5105,
      "duration": 0.077,
      "velocity": 127,
      "chip": "ym2612"
    },
    {
      "channel": 0,
      "note": 88,
      "start": 7.6768,
      "duration": 0.1276,
      "velocity": 90,
      "chip": "ym2612"
    },
    {
      "channel": 1,
      "note": 62,
      "start": 7.6769,
      "duration": 0.1276,
      "velocity": 119,
      "chip": "ym2612"
    },
    {
      "channel": 2,
      "note": 68,
      "start": 7.6769,
      "duration": 0.1276,
      "velocity": 97,
      "chip": "ym2612"
    },
    {
      "channel": 3,
      "note": 61,
      "start": 7.677,
      "duration": 0.1276,
      "velocity": 91,
      "chip": "ym2612"
    },
    {
      "channel": 4,
      "note": 36,
      "start": 7.6771,
      "duration": 0.0772,
      "velocity": 101,
      "chip": "ym2612"
    },
    {
      "channel": 0,
      "note": 85,
      "start": 7.8428,
      "duration": 0.1283,
      "velocity": 90,
      "chip": "ym2612"
    },
    {
      "channel": 1,
      "note": 61,
      "start": 7.8428,
      "duration": 0.1283,
      "velocity": 119,
      "chip": "ym2612"
    },
    {
      "channel": 2,
      "note": 64,
      "start": 7.8429,
      "duration": 0.1283,
      "velocity": 97,
      "chip": "ym2612"
    },
    {
      "channel": 3,
      "note": 59,
      "start": 7.843,
      "duration": 0.1283,
      "velocity": 91,
      "chip": "ym2612"
    },
    {
      "channel": 4,
      "note": 55,
      "start": 7.843,
      "duration": 0.0778,
      "velocity": 127,
      "chip": "ym2612"
    },
    {
      "channel": 0,
      "note": 90,
      "start": 8.0104,
      "duration": 0.1271,
      "velocity": 90,
      "chip": "ym2612"
    },
    {
      "channel": 3,
      "note": 54,
      "start": 8.0105,
      "duration": 0.1271,
      "velocity": 91,
      "chip": "ym2612"
    },
    {
      "channel": 4,
      "note": 36,
      "start": 8.0106,
      "duration": 0.077,
      "velocity": 101,
      "chip": "ym2612"
    },
    {
      "channel": 0,
      "note": 85,
      "start": 8.1724,
      "duration": 0.1318,
      "velocity": 90,
      "chip": "ym2612"
    },
    {
      "channel": 3,
      "note": 54,
      "start": 8.1724,
      "duration": 0.1318,
      "velocity": 91,
      "chip": "ym2612"
    },
    {
      "channel": 4,
      "note": 36,
      "start": 8.1725,
      "duration": 0.0817,
      "velocity": 101,
      "chip": "ym2612"
    },
    {
      "channel": 0,
      "note": 92,
      "start": 8.3437,
      "duration": 0.1274,
      "velocity": 90,
      "chip": "ym2612"
    },
    {
      "channel": 1,
      "note": 54,
      "start": 8.3437,
      "duration": 0.1274,
      "velocity": 119,
      "chip": "ym2612"
    },
    {
      "channel": 2,
      "note": 66,
      "start": 8.3438,
      "duration": 0.1274,
      "velocity": 97,
      "chip": "ym2612"
    },
    {
      "channel": 3,
      "note": 66,
      "start": 8.3439,
      "duration": 0.1274,
      "velocity": 91,
      "chip": "ym2612"
    },
    {
      "channel": 4,
      "note": 55,
      "start": 8.3439,
      "duration": 0.0769,
      "velocity": 127,
      "chip": "ym2612"
    },
    {
      "channel": 0,
      "note": 85,
      "start": 8.5094,
      "duration": 0.1281,
      "velocity": 90,
      "chip": "ym2612"
    },
    {
      "channel": 3,
      "note": 62,
      "start": 8.5095,
      "duration": 0.1281,
      "velocity": 91,
      "chip": "ym2612"
    },
    {
      "channel": 4,
      "note": 36,
      "start": 8.5096,
      "duration": 0.0779,
      "velocity": 101,
      "chip": "ym2612"
    },
    {
      "channel": 0,
      "note": 90,
      "start": 8.6724,
      "duration": 0.1318,
      "velocity": 90,
      "chip": "ym2612"
    },
    {
      "channel": 3,
      "note": 61,
      "start": 8.6724,
      "duration": 0.1318,
      "velocity": 91,
      "chip": "ym2612"
    },
    {
      "channel": 4,
      "note": 36,
      "start": 8.6725,
      "duration": 0.0817,
      "velocity": 101,
      "chip": "ym2612"
    },
    {
      "channel": 0,
      "note": 85,
      "start": 8.8435,
      "duration": 0.1276,
      "velocity": 90,
      "chip": "ym2612"
    },
    {
      "channel": 1,
      "note": 54,
      "start": 8.8436,
      "duration": 0.1276,
      "velocity": 119,
      "chip": "ym2612"
    },
    {
      "channel": 2,
      "note": 68,
      "start": 8.8437,
      "duration": 0.1276,
      "velocity": 97,
      "chip": "ym2612"
    },
    {
      "channel": 3,
      "note": 62,
      "start": 8.8438,
      "duration": 0.1275,
      "velocity": 91,
      "chip": "ym2612"
    },
    {
      "channel": 4,
      "note": 55,
      "start": 8.8438,
      "duration": 0.077,
      "velocity": 127,
      "chip": "ym2612"
    },
    {
      "channel": 0,
      "note": 88,
      "start": 9.0094,
      "duration": 0.1282,
      "velocity": 90,
      "chip": "ym2612"
    },
    {
      "channel": 3,
      "note": 61,
      "start": 9.0095,
      "duration": 0.1282,
      "velocity": 91,
      "chip": "ym2612"
    },
    {
      "channel": 4,
      "note": 36,
      "start": 9.0096,
      "duration": 0.078,
      "velocity": 101,
      "chip": "ym2612"
    },
    {
      "channel": 0,
      "note": 85,
      "start": 9.1761,
      "duration": 0.1282,
      "velocity": 90,
      "chip": "ym2612"
    },
    {
      "channel": 1,
      "note": 52,
      "start": 9.1762,
      "duration": 0.295,
      "velocity": 119,
      "chip": "ym2612"
    },
    {
      "channel": 2,
      "note": 69,
      "start": 9.1762,
      "duration": 0.295,
      "velocity": 97,
      "chip": "ym2612"
    },
    {
      "channel": 3,
      "note": 59,
      "start": 9.1764,
      "duration": 0.128,
      "velocity": 91,
      "chip": "ym2612"
    },
    {
      "channel": 4,
      "note": 55,
      "start": 9.1764,
      "duration": 0.0778,
      "velocity": 127,
      "chip": "ym2612"
    },
    {
      "channel": 0,
      "note": 90,
      "start": 9.3437,
      "duration": 0.1273,
      "velocity": 90,
      "chip": "ym2612"
    },
    {
      "channel": 3,
      "note": 54,
      "start": 9.3439,
      "duration": 0.1274,
      "velocity": 91,
      "chip": "ym2612"
    },
    {
      "channel": 4,
      "note": 55,
      "start": 9.3439,
      "duration": 0.0769,
      "velocity": 127,
      "chip": "ym2612"
    },
    {
      "channel": 0,
      "note": 85,
      "start": 9.5093,
      "duration": 0.1284,
      "velocity": 90,
      "chip": "ym2612"
    },
    {
      "channel": 1,
      "note": 50,
      "start": 9.5094,
      "duration": 0.1284,
      "velocity": 119,
      "chip": "ym2612"
    },
    {
      "channel": 2,
      "note": 68,
      "start": 9.5095,
      "duration": 0.1284,
      "velocity": 97,
      "chip": "ym2612"
    },
    {
      "channel": 3,
      "note": 54,
      "start": 9.5096,
      "duration": 0.1283,
      "velocity": 91,
      "chip": "ym2612"
    },
    {
      "channel": 4,
      "note": 36,
      "start": 9.5096,
      "duration": 0.0779,
      "velocity": 101,
      "chip": "ym2612"
    },
    {
      "channel": 0,
      "note": 92,
      "start": 9.6743,
      "duration": 0.1302,
      "velocity": 90,
      "chip": "ym2612"
    },
    {
      "channel": 1,
      "note": 52,
      "start": 9.6743,
      "duration": 0.1302,
      "velocity": 119,
      "chip": "ym2612"
    },
    {
      "channel": 2,
      "note": 69,
      "start": 9.6744,
      "duration": 0.1301,
      "velocity": 97,
      "chip": "ym2612"
    },
    {
      "channel": 3,
      "note": 66,
      "start": 9.6745,
      "duration": 0.1301,
      "velocity": 91,
      "chip": "ym2612"
    },
    {
      "channel": 4,
      "note": 36,
      "start": 9.6745,
      "duration": 0.0796,
      "velocity": 101,
      "chip": "ym2612"
    },
    {
      "channel": 0,
      "note": 85,
      "start": 9.8435,
      "duration": 0.1274,
      "velocity": 90,
      "chip": "ym2612"
    },
    {
      "channel": 1,
      "note": 54,
      "start": 9.8436,
      "duration": 0.2773,
      "velocity": 119,
      "chip": "ym2612"
    },
    {
      "channel": 2,
      "note": 71,
      "start": 9.8437,
      "duration": 0.2773,
      "velocity": 97,
      "chip": "ym2612"
    },
    {
      "channel": 3,
      "note": 62,
      "start": 9.8437,
      "duration": 0.1273,
      "velocity": 91,
      "chip": "ym2612"
    },
    {
      "channel": 4,
      "note": 55,
      "start": 9.8438,
      "duration": 0.077,
      "velocity": 127,
      "chip": "ym2612"
    },
    {
      "channel": 0,
      "note": 90,
      "start": 10.0082,
      "duration": 0.1293,
      "velocity": 90,
      "chip": "ym2612"
    },
    {
      "channel": 3,
      "note": 61,
      "start": 10.0084,
      "duration": 0.1293,
      "velocity": 91,
      "chip": "ym2612"
    },
    {
      "channel": 4,
      "note": 36,
      "start": 10.0084,
      "duration": 0.0791,
      "velocity": 101,
      "chip": "ym2612"
    },
    {
      "channel": 0,
      "note": 85,
      "start": 10.1769,
      "duration": 0.1275,
      "velocity": 90,
      "chip": "ym2612"
    },
    {
      "channel": 1,
      "note": 64,
      "start": 10.177,
      "duration": 0.1275,
      "velocity": 119,
      "chip": "ym2612"
    },
    {
      "channel": 2,
      "note": 69,
      "start": 10.1771,
      "duration": 0.1275,
      "velocity": 97,
      "chip": "ym2612"
    },
    {
      "channel": 3,
      "note": 62,
      "start": 10.1771,
      "duration": 0.1275,
      "velocity": 91,
      "chip": "ym2612"
    },
    {
      "channel": 4,
      "note": 55,
      "start": 10.1772,
      "duration": 0.077,
      "velocity": 127,
      "chip": "ym2612"
    },
    {
      "channel": 0,
      "note": 88,
      "start": 10.3409,
      "duration": 0.1302,
      "velocity": 90,
      "chip": "ym2612"
    },
    {
      "channel": 1,
      "note": 62,
      "start": 10.341,
      "duration": 0.1302,
      "velocity": 119,
      "chip": "ym2612"
    },
    {
      "channel": 2,
      "note": 68,
      "start": 10.3411,
      "duration": 0.1302,
      "velocity": 97,
      "chip": "ym2612"
    },
    {
      "channel": 3,
      "note": 61,
      "start": 10.3411,
      "duration": 0.1301,
      "velocity": 91,
      "chip": "ym2612"
    },
    {
      "channel": 4,
      "note": 55,
      "start": 10.3412,
      "duration": 0.0296,
      "velocity": 127,
      "chip": "ym2612"
    },
    {
      "channel": 4,
      "note": 55,
      "start": 10.4213,
      "duration": 0.0329,
      "velocity": 127,
      "chip": "ym2612"
    },
    {
      "channel": 0,
      "note": 85,
      "start": 10.5068,
      "duration": 0.131,
      "velocity": 90,
      "chip": "ym2612"
    },
    {
      "channel": 1,
      "note": 61,
      "start": 10.5068,
      "duration": 0.1309,
      "velocity": 119,
      "chip": "ym2612"
    },
    {
      "channel": 2,
      "note": 64,
      "start": 10.5069,
      "duration": 0.1309,
      "velocity": 97,
      "chip": "ym2612"
    },
    {
      "channel": 3,
      "note": 59,
      "start": 10.507,
      "duration": 0.1309,
      "velocity": 91,
      "chip": "ym2612"
    },
    {
      "channel": 4,
      "note": 55,
      "start": 10.507,
      "duration": 0.0305,
      "velocity": 127,
      "chip": "ym2612"
    },
    {
      "channel": 4,
      "note": 55,
      "start": 10.588,
      "duration": 0.0329,
      "velocity": 127,
      "chip": "ym2612"
    },
    {
      "channel": 0,
      "note": 74,
      "start": 10.678,
      "duration": 0.1261,
      "velocity": 90,
      "chip": "ym2612"
    },
    {
      "channel": 1,
      "note": 50,
      "start": 10.678,
      "duration": 1.1597,
      "velocity": 119,
      "chip": "ym2612"
    },
    {
      "channel": 2,
      "note": 78,
      "start": 10.6781,
      "duration": 1.1597,
      "velocity": 97,
      "chip": "ym2612"
    },
    {
      "channel": 3,
      "note": 62,
      "start": 10.6781,
      "duration": 0.426,
      "velocity": 91,
      "chip": "ym2612"
    },
    {
      "channel": 4,
      "note": 36,
      "start": 10.6782,
      "duration": 0.076,
      "velocity": 101,
      "chip": "ym2612"
    },
    {
      "channel": 0,
      "note": 73,
      "start": 10.8381,
      "duration": 0.1327,
      "velocity": 90,
      "chip": "ym2612"
    },
    {
      "channel": 0,
      "note": 74,
      "start": 11.0079,
      "duration": 0.1296,
      "velocity": 90,
      "chip": "ym2612"
    },
    {
      "channel": 4,
      "note": 55,
      "start": 11.008,
      "duration": 0.0795,
      "velocity": 127,
      "chip": "ym2612"
    },
    {
      "channel": 0,
      "note": 76,
      "start": 11.172,
      "duration": 0.7488,
      "velocity": 90,
      "chip": "ym2612"
    },
    {
      "channel": 3,
      "note": 61,
      "start": 11.1721,
      "duration": 0.4321,
      "velocity": 91,
      "chip": "ym2612"
    },
    {
      "channel": 4,
      "note": 36,
      "start": 11.5072,
      "duration": 0.0303,
      "velocity": 101,
      "chip": "ym2612"
    },
    {
      "channel": 4,
      "note": 36,
      "start": 11.588,
      "duration": 0.0328,
      "velocity": 101,
      "chip": "ym2612"
    },
    {
      "channel": 3,
      "note": 62,
      "start": 11.6746,
      "duration": 0.2796,
      "velocity": 91,
      "chip": "ym2612"
    },
    {
      "channel": 4,
      "note": 55,
      "start": 11.6746,
      "duration": 0.0795,
      "velocity": 127,
      "chip": "ym2612"
    },
    {
      "channel": 0,
      "note": 76,
      "start": 12.0096,
      "duration": 0.1278,
      "velocity": 90,
      "chip": "ym2612"
    },
    {
      "channel": 1,
      "note": 52,
      "start": 12.0097,
      "duration": 1.1614,
      "velocity": 119,
      "chip": "ym2612"
    },
    {
      "channel": 2,
      "note": 80,
      "start": 12.0098,
      "duration": 1.1614,
      "velocity": 97,
      "chip": "ym2612"
    },
    {
      "channel": 3,
      "note": 64,
      "start": 12.0098,
      "duration": 0.4277,
      "velocity": 91,
      "chip": "ym2612"
    },
    {
      "channel": 4,
      "note": 36,
      "start": 12.0099,
      "duration": 0.0776,
      "velocity": 101,
      "chip": "ym2612"
    },
    {
      "channel": 0,
      "note": 74,
      "start": 12.1714,
      "duration": 0.1327,
      "velocity": 90,
      "chip": "ym2612"
    },
    {
      "channel": 0,
      "note": 76,
      "start": 12.3412,
      "duration": 0.1296,
      "velocity": 90,
      "chip": "ym2612"
    },
    {
      "channel": 4,
      "note": 55,
      "start": 12.3413,
      "duration": 0.0796,
      "velocity": 127,
      "chip": "ym2612"
    },
    {
      "channel": 0,
      "note": 71,
      "start": 12.5053,
      "duration": 0.7489,
      "velocity": 90,
      "chip": "ym2612"
    },
    {
      "channel": 3,
      "note": 62,
      "start": 12.5054,
      "duration": 0.4321,
      "velocity": 91,
      "chip": "ym2612"
    },
    {
      "channel": 4,
      "note": 36,
      "start": 12.8405,
      "duration": 0.0303,
      "velocity": 101,
      "chip": "ym2612"
    },
    {
      "channel": 4,
      "note": 36,
      "start": 12.9213,
      "duration": 0.0329,
      "velocity": 101,
      "chip": "ym2612"
    },
    {
      "channel": 3,
      "note": 64,
      "start": 13.0079,
      "duration": 0.2797,
      "velocity": 91,
      "chip": "ym2612"
    },
    {
      "channel": 4,
      "note": 55,
      "start": 13.008,
      "duration": 0.0796,
      "velocity": 127,
      "chip": "ym2612"
    },
    {
      "channel": 0,
      "note": 71,
      "start": 13.343,
      "duration": 0.1278,
      "velocity": 90,
      "chip": "ym2612"
    },
    {
      "channel": 1,
      "note": 47,
      "start": 13.343,
      "duration": 1.1614,
      "velocity": 119,
      "chip": "ym2612"
    },
    {
      "channel": 2,
      "note": 81,
      "start": 13.3431,
      "duration": 1.1614,
      "velocity": 97,
      "chip": "ym2612"
    },
    {
      "channel": 3,
      "note": 59,
      "start": 13.3432,
      "duration": 0.4276,
      "velocity": 91,
      "chip": "ym2612"
    },
    {
      "channel": 4,
      "note": 36,
      "start": 13.3432,
      "duration": 0.0776,
      "velocity": 101,
      "chip": "ym2612"
    },
    {
      "channel": 0,
      "note": 69,
      "start": 13.5047,
      "duration": 0.1327,
      "velocity": 90,
      "chip": "ym2612"
    },
    {
      "channel": 0,
      "note": 71,
      "start": 13.6745,
      "duration": 0.1296,
      "velocity": 90,
      "chip": "ym2612"
    },
    {
      "channel": 4,
      "note": 55,
      "start": 13.6746,
      "duration": 0.0795,
      "velocity": 127,
      "chip": "ym2612"
    },
    {
      "channel": 0,
      "note": 73,
      "start": 13.8386,
      "duration": 0.7489,
      "velocity": 90,
      "chip": "ym2612"
    },
    {
      "channel": 3,
      "note": 57,
      "start": 13.8388,
      "duration": 0.4321,
      "velocity": 91,
      "chip": "ym2612"
    },
    {
      "channel": 4,
      "note": 36,
      "start": 14.1739,
      "duration": 0.0303,
      "velocity": 101,
      "chip": "ym2612"
    },
    {
      "channel": 4,
      "note": 36,
      "start": 14.2547,
      "duration": 0.0328,
      "velocity": 101,
      "chip": "ym2612"
    },
    {
      "channel": 3,
      "note": 59,
      "start": 14.3412,
      "duration": 0.2797,
      "velocity": 91,
      "chip": "ym2612"
    },
    {
      "channel": 4,
      "note": 55,
      "start": 14.3413,
      "duration": 0.0795,
      "velocity": 127,
      "chip": "ym2612"
    },
    {
      "channel": 0,
      "note": 71,
      "start": 14.6764,
      "duration": 0.1278,
      "velocity": 90,
      "chip": "ym2612"
    },
    {
      "channel": 1,
      "note": 49,
      "start": 14.6765,
      "duration": 1.1629,
      "velocity": 119,
      "chip": "ym2612"
    },
    {
      "channel": 2,
      "note": 83,
      "start": 14.6766,
      "duration": 1.1629,
      "velocity": 97,
      "chip": "ym2612"
    },
    {
      "channel": 3,
      "note": 59,
      "start": 14.6767,
      "duration": 0.1276,
      "velocity": 91,
      "chip": "ym2612"
    },
    {
      "channel": 4,
      "note": 55,
      "start": 14.6767,
      "duration": 0.0275,
      "velocity": 127,
      "chip": "ym2612"
    },
    {
      "channel": 4,
      "note": 36,
      "start": 14.7572,
      "duration": 0.0304,
      "velocity": 101,
      "chip": "ym2612"
    },
    {
      "channel": 0,
      "note": 71,
      "start": 14.8418,
      "duration": 0.1291,
      "velocity": 90,
      "chip": "ym2612"
    },
    {
      "channel": 3,
      "note": 59,
      "start": 14.8418,
      "duration": 0.1291,
      "velocity": 91,
      "chip": "ym2612"
    },
    {
      "channel": 4,
      "note": 55,
      "start": 14.8419,
      "duration": 0.029,
      "velocity": 127,
      "chip": "ym2612"
    },
    {
      "channel": 4,
      "note": 55,
      "start": 14.9213,
      "duration": 0.0328,
      "velocity": 127,
      "chip": "ym2612"
    },
    {
      "channel": 0,
      "note": 69,
      "start": 15.0057,
      "duration": 0.1319,
      "velocity": 90,
      "chip": "ym2612"
    },
    {
      "channel": 3,
      "note": 57,
      "start": 15.0058,
      "duration": 0.1318,
      "velocity": 91,
      "chip": "ym2612"
    },
    {
      "channel": 4,
      "note": 55,
      "start": 15.0059,
      "duration": 0.0316,
      "velocity": 127,
      "chip": "ym2612"
    },
    {
      "channel": 4,
      "note": 36,
      "start": 15.0905,
      "duration": 0.0303,
      "velocity": 101,
      "chip": "ym2612"
    },
    {
      "channel": 0,
      "note": 71,
      "start": 15.175,
      "duration": 0.1292,
      "velocity": 90,
      "chip": "ym2612"
    },
    {
      "channel": 3,
      "note": 59,
      "start": 15.1752,
      "duration": 0.1292,
      "velocity": 91,
      "chip": "ym2612"
    },
    {
      "channel": 4,
      "note": 55,
      "start": 15.1752,
      "duration": 0.029,
      "velocity": 127,
      "chip": "ym2612"
    },
    {
      "channel": 0,
      "note": 73,
      "start": 15.3416,
      "duration": 0.1293,
      "velocity": 90,
      "chip": "ym2612"
    },
    {
      "channel": 3,
      "note": 61,
      "start": 15.3417,
      "duration": 0.1293,
      "velocity": 91,
      "chip": "ym2612"
    },
    {
      "channel": 4,
      "note": 36,
      "start": 15.3418,
      "duration": 0.0291,
      "velocity": 101,
      "chip": "ym2612"
    },
    {
      "channel": 4,
      "note": 55,
      "start": 15.4241,
      "duration": 0.0301,
      "velocity": 127,
      "chip": "ym2612"
    },
    {
      "channel": 0,
      "note": 76,
      "start": 15.5053,
      "duration": 0.1323,
      "velocity": 90,
      "chip": "ym2612"
    },
    {
      "channel": 3,
      "note": 59,
      "start": 15.5054,
      "duration": 0.1322,
      "velocity": 91,
      "chip": "ym2612"
    },
    {
      "channel": 4,
      "note": 55,
      "start": 15.588,
      "duration": 0.0328,
      "velocity": 127,
      "chip": "ym2612"
    },
    {
      "channel": 0,
      "note": 74,
      "start": 15.6724,
      "duration": 0.1319,
      "velocity": 90,
      "chip": "ym2612"
    },
    {
      "channel": 3,
      "note": 61,
      "start": 15.6725,
      "duration": 0.1318,
      "velocity": 91,
      "chip": "ym2612"
    },
    {
      "channel": 4,
      "note": 55,
      "start": 15.6726,
      "duration": 0.0316,
      "velocity": 127,
      "chip": "ym2612"
    },
    {
      "channel": 4,
      "note": 55,
      "start": 15.7547,
      "duration": 0.0328,
      "velocity": 127,
      "chip": "ym2612"
    },
    {
      "channel": 0,
      "note": 76,
      "start": 15.8393,
      "duration": 0.1316,
      "velocity": 90,
      "chip": "ym2612"
    },
    {
      "channel": 3,
      "note": 52,
      "start": 15.8395,
      "duration": 0.1315,
      "velocity": 91,
      "chip": "ym2612"
    },
    {
      "channel": 4,
      "note": 55,
      "start": 15.8395,
      "duration": 0.0313,
      "velocity": 127,
      "chip": "ym2612"
    },
    {
      "channel": 4,
      "note": 55,
      "start": 15.9213,
      "duration": 0.0328,
      "velocity": 127,
      "chip": "ym2612"
    },
    {
      "channel": 0,
      "note": 74,
      "start": 16.0113,
      "duration": 0.1261,
      "velocity": 90,
      "chip": "ym2612"
    },
    {
      "channel": 1,
      "note": 50,
      "start": 16.0114,
      "duration": 1.1597,
      "velocity": 119,
      "chip": "ym2612"
    },
    {
      "channel": 2,
      "note": 78,
      "start": 16.0114,
      "duration": 1.1597,
      "velocity": 97,
      "chip": "ym2612"
    },
    {
      "channel": 3,
      "note": 62,
      "start": 16.0115,
      "duration": 0.426,
      "velocity": 91,
      "chip": "ym2612"
    },
    {
      "channel": 4,
      "note": 36,
      "start": 16.0115,
      "duration": 0.076,
      "velocity": 101,
      "chip": "ym2612"
    },
    {
      "channel": 0,
      "note": 73,
      "start": 16.1714,
      "duration": 0.1327,
      "velocity": 90,
      "chip": "ym2612"
    },
    {
      "channel": 0,
      "note": 74,
      "start": 16.3412,
      "duration": 0.1296,
      "velocity": 90,
      "chip": "ym2612"
    },
    {
      "channel": 4,
      "note": 55,
      "start": 16.3413,
      "duration": 0.0795,
      "velocity": 127,
      "chip": "ym2612"
    },
    {
      "channel": 0,
      "note": 76,
      "start": 16.5053,
      "duration": 0.7488,
      "velocity": 90,
      "chip": "ym2612"
    },
    {
      "channel": 3,
      "note": 61,
      "start": 16.5054,
      "duration": 0.4321,
      "velocity": 91,
      "chip": "ym2612"
    },
    {
      "channel": 4,
      "note": 36,
      "start": 16.8405,
      "duration": 0.0303,
      "velocity": 101,
      "chip": "ym2612"
    },
    {
      "channel": 4,
      "note": 36,
      "start": 16.9213,
      "duration": 0.0328,
      "velocity": 101,
      "chip": "ym2612"
    },
    {
      "channel": 3,
      "note": 62,
      "start": 17.0079,
      "duration": 0.2796,
      "velocity": 91,
      "chip": "ym2612"
    },
    {
      "channel": 4,
      "note": 55,
      "start": 17.008,
      "duration": 0.0795,
      "velocity": 127,
      "chip": "ym2612"
    },
    {
      "channel": 0,
      "note": 76,
      "start": 17.343,
      "duration": 0.1278,
      "velocity": 90,
      "chip": "ym2612"
    },
    {
      "channel": 1,
      "note": 52,
      "start": 17.343,
      "duration": 1.1614,
      "velocity": 119,
      "chip": "ym2612"
    },
    {
      "channel": 2,
      "note": 80,
      "start": 17.3431,
      "duration": 1.1614,
      "velocity": 97,
      "chip": "ym2612"
    },
    {
      "channel": 3,
      "note": 64,
      "start": 17.3432,
      "duration": 0.4277,
      "velocity": 91,
      "chip": "ym2612"
    },
    {
      "channel": 4,
      "note": 36,
      "start": 17.3432,
      "duration": 0.0776,
      "velocity": 101,
      "chip": "ym2612"
    },
    {
      "channel": 0,
      "note": 74,
      "start": 17.5047,
      "duration": 0.1327,
      "velocity": 90,
      "chip": "ym2612"
    },
    {
      "channel": 0,
      "note": 76,
      "start": 17.6745,
      "duration": 0.1296,
      "velocity": 90,
      "chip": "ym2612"
    },
    {
      "channel": 4,
      "note": 55,
      "start": 17.6746,
      "duration": 0.0796,
      "velocity": 127,
      "chip": "ym2612"
    },
    {
      "channel": 0,
      "note": 71,
      "start": 17.8386,
      "duration": 0.7489,
      "velocity": 90,
      "chip": "ym2612"
    },
    {
      "channel": 3,
      "note": 62,
      "start": 17.8388,
      "duration": 0.4321,
      "velocity": 91,
      "chip": "ym2612"
    },
    {
      "channel": 4,
      "note": 36,
      "start": 18.1739,
      "duration": 0.0303,
      "velocity": 101,
      "chip": "ym2612"
    },
    {
      "channel": 4,
      "note": 36,
      "start": 18.2547,
      "duration": 0.0329,
      "velocity": 101,
      "chip": "ym2612"
    },
    {
      "channel": 3,
      "note": 64,
      "start": 18.3412,
      "duration": 0.2797,
      "velocity": 91,
      "chip": "ym2612"
    },
    {
      "channel": 4,
      "note": 55,
      "start": 18.3413,
      "duration": 0.0796,
      "velocity": 127,
      "chip": "ym2612"
    },
    {
      "channel": 0,
      "note": 71,
      "start": 18.6763,
      "duration": 0.1278,
      "velocity": 90,
      "chip": "ym2612"
    },
    {
      "channel": 1,
      "note": 47,
      "start": 18.6764,
      "duration": 1.1614,
      "velocity": 119,
      "chip": "ym2612"
    },
    {
      "channel": 2,
      "note": 81,
      "start": 18.6764,
      "duration": 1.1614,
      "velocity": 97,
      "chip": "ym2612"
    },
    {
      "channel": 3,
      "note": 59,
      "start": 18.6766,
      "duration": 0.4276,
      "velocity": 91,
      "chip": "ym2612"
    },
    {
      "channel": 4,
      "note": 36,
      "start": 18.6766,
      "duration": 0.0776,
      "velocity": 101,
      "chip": "ym2612"
    },
    {
      "channel": 0,
      "note": 69,
      "start": 18.8381,
      "duration": 0.1327,
      "velocity": 90,
      "chip": "ym2612"
    },
    {
      "channel": 0,
      "note": 71,
      "start": 19.0079,
      "duration": 0.1296,
      "velocity": 90,
      "chip": "ym2612"
    },
    {
      "channel": 4,
      "note": 55,
      "start": 19.008,
      "duration": 0.0795,
      "velocity": 127,
      "chip": "ym2612"
    },
    {
      "channel": 0,
      "note": 73,
      "start": 19.172,
      "duration": 0.7489,
      "velocity": 90,
      "chip": "ym2612"
    },
    {
      "channel": 3,
      "note": 57,
      "start": 19.1721,
      "duration": 0.4321,
      "velocity": 91,
      "chip": "ym2612"
    },
    {
      "channel": 4,
      "note": 36,
      "start": 19.5072,
      "duration": 0.0303,
      "velocity": 101,
      "chip": "ym2612"
    },
    {
      "channel": 4,
      "note": 36,
      "start": 19.588,
      "duration": 0.0328,
      "velocity": 101,
      "chip": "ym2612"
    },
    {
      "channel": 3,
      "note": 59,
      "start": 19.6746,
      "duration": 0.2797,
      "velocity": 91,
      "chip": "ym2612"
    },
    {
      "channel": 4,
      "note": 55,
      "start": 19.6746,
      "duration": 0.0795,
      "velocity": 127,
      "chip": "ym2612"
    },
    {
      "channel": 0,
      "note": 71,
      "start": 20.0098,
      "duration": 0.1278,
      "velocity": 90,
      "chip": "ym2612"
    },
    {
      "channel": 1,
      "note": 49,
      "start": 20.0098,
      "duration": 1.1629,
      "velocity": 119,
      "chip": "ym2612"
    },
    {
      "channel": 2,
      "note": 83,
      "start": 20.0099,
      "duration": 1.1629,
      "velocity": 97,
      "chip": "ym2612"
    },
    {
      "channel": 3,
      "note": 59,
      "start": 20.01,
      "duration": 0.1276,
      "velocity": 91,
      "chip": "ym2612"
    },
    {
      "channel": 4,
      "note": 55,
      "start": 20.01,
      "duration": 0.0275,
      "velocity": 127,
      "chip": "ym2612"
    },
    {
      "channel": 4,
      "note": 36,
      "start": 20.0905,
      "duration": 0.0304,
      "velocity": 101,
      "chip": "ym2612"
    },
    {
      "channel": 0,
      "note": 71,
      "start": 20.1751,
      "duration": 0.1291,
      "velocity": 90,
      "chip": "ym2612"
    },
    {
      "channel": 3,
      "note": 59,
      "start": 20.1752,
      "duration": 0.1291,
      "velocity": 91,
      "chip": "ym2612"
    },
    {
      "channel": 4,
      "note": 55,
      "start": 20.1752,
      "duration": 0.029,
      "velocity": 127,
      "chip": "ym2612"
    },
    {
      "channel": 4,
      "note": 55,
      "start": 20.2547,
      "duration": 0.0328,
      "velocity": 127,
      "chip": "ym2612"
    },
    {
      "channel": 0,
      "note": 69,
      "start": 20.339,
      "duration": 0.1319,
      "velocity": 90,
      "chip": "ym2612"
    },
    {
      "channel": 3,
      "note": 57,
      "start": 20.3392,
      "duration": 0.1318,
      "velocity": 91,
      "chip": "ym2612"
    },
    {
      "channel": 4,
      "note": 55,
      "start": 20.3392,
      "duration": 0.0317,
      "velocity": 127,
      "chip": "ym2612"
    },
    {
      "channel": 4,
      "note": 36,
      "start": 20.4239,
      "duration": 0.0303,
      "velocity": 101,
      "chip": "ym2612"
    },
    {
      "channel": 0,
      "note": 71,
      "start": 20.5084,
      "duration": 0.1292,
      "velocity": 90,
      "chip": "ym2612"
    },
    {
      "channel": 3,
      "note": 59,
      "start": 20.5085,
      "duration": 0.1292,
      "velocity": 91,
      "chip": "ym2612"
    },
    {
      "channel": 4,
      "note": 55,
      "start": 20.5085,
      "duration": 0.029,
      "velocity": 127,
      "chip": "ym2612"
    },
    {
      "channel": 0,
      "note": 73,
      "start": 20.6749,
      "duration": 0.1293,
      "velocity": 90,
      "chip": "ym2612"
    },
    {
      "channel": 3,
      "note": 61,
      "start": 20.675,
      "duration": 0.1293,
      "velocity": 91,
      "chip": "ym2612"
    },
    {
      "channel": 4,
      "note": 36,
      "start": 20.6751,
      "duration": 0.0291,
      "velocity": 101,
      "chip": "ym2612"
    },
    {
      "channel": 4,
      "note": 55,
      "start": 20.7574,
      "duration": 0.0301,
      "velocity": 127,
      "chip": "ym2612"
    },
    {
      "channel": 0,
      "note": 76,
      "start": 20.8386,
      "duration": 0.1323,
      "velocity": 90,
      "chip": "ym2612"
    },
    {
      "channel": 3,
      "note": 59,
      "start": 20.8388,
      "duration": 0.1322,
      "velocity": 91,
      "chip": "ym2612"
    },
    {
      "channel": 4,
      "note": 55,
      "start": 20.9213,
      "duration": 0.0328,
      "velocity": 127,
      "chip": "ym2612"
    },
    {
      "channel": 0,
      "note": 74,
      "start": 21.0057,
      "duration": 0.1319,
      "velocity": 90,
      "chip": "ym2612"
    },
    {
      "channel": 3,
      "note": 61,
      "start": 21.0058,
      "duration": 0.1318,
      "velocity": 91,
      "chip": "ym2612"
    },
    {
      "channel": 4,
      "note": 55,
      "start": 21.0059,
      "duration": 0.0316,
      "velocity": 127,
      "chip": "ym2612"
    },
    {
      "channel": 4,
      "note": 55,
      "start": 21.088,
      "duration": 0.0328,
      "velocity": 127,
      "chip": "ym2612"
    },
    {
      "channel": 0,
      "note": 76,
      "start": 21.1726,
      "duration": 0.1316,
      "velocity": 90,
      "chip": "ym2612"
    },
    {
      "channel": 3,
      "note": 52,
      "start": 21.1728,
      "duration": 0.1315,
      "velocity": 91,
      "chip": "ym2612"
    },
    {
      "channel": 4,
      "note": 55,
      "start": 21.1729,
      "duration": 0.0313,
      "velocity": 127,
      "chip": "ym2612"
    },
    {
      "channel": 4,
      "note": 55,
      "start": 21.2547,
      "duration": 0.0328,
      "velocity": 127,
      "chip": "ym2612"
    },
    {
      "channel": 3,
      "note": 54,
      "start": 21.3437,
      "duration": 0.1271,
      "velocity": 91,
      "chip": "ym2612"
    },
    {
      "channel": 4,
      "note": 36,
      "start": 21.3438,
      "duration": 0.077,
      "velocity": 101,
      "chip": "ym2612"
    },
    {
      "channel": 3,
      "note": 54,
      "start": 21.5052,
      "duration": 0.1323,
      "velocity": 91,
      "chip": "ym2612"
    },
    {
      "channel": 4,
      "note": 36,
      "start": 21.5052,
      "duration": 0.0823,
      "velocity": 101,
      "chip": "ym2612"
    }
  ]
}