{
  "track_name": "14 - Sports",
  "duration_sec": 79.649,
  "sample_rate": 44100,
  "note_count": 2203,
  "unique_pitches": 39,
  "pitch_range": 57,
  "avg_note_duration": 0.2106,
  "reconstruction_stats": {
    "notes_reconstructed": 2203,
    "keyon_events": 2203,
    "keyoff_events": 2197,
    "orphan_keyons": 6,
    "unique_pitches": 39,
    "pitch_range": 57,
    "avg_duration_sec": 0.2106
  },
  "metadata": {
    "source": "L\\Lemmings 2 ~ The Tribes\\14 - Sports.vgz"
  },
  "notes": [
    {
      "channel": 0,
      "note": 60,
      "start": 0.0531,
      "duration": 0.1981,
      "velocity": 113,
      "chip": "ym2612"
    },
    {
      "channel": 1,
      "note": 72,
      "start": 0.0552,
      "duration": 0.0961,
      "velocity": 97,
      "chip": "ym2612"
    },
    {
      "channel": 2,
      "note": 76,
      "start": 0.0574,
      "duration": 0.5966,
      "velocity": 102,
      "chip": "ym2612"
    },
    {
      "channel": 3,
      "note": 72,
      "start": 0.0595,
      "duration": 0.5966,
      "velocity": 102,
      "chip": "ym2612"
    },
    {
      "channel": 1,
      "note": 76,
      "start": 0.1515,
      "duration": 0.1003,
      "velocity": 97,
      "chip": "ym2612"
    },
    {
      "channel": 0,
      "note": 60,
      "start": 0.2513,
      "duration": 0.0999,
      "velocity": 113,
      "chip": "ym2612"
    },
    {
      "channel": 1,
      "note": 79,
      "start": 0.2519,
      "duration": 0.0998,
      "velocity": 97,
      "chip": "ym2612"
    },
    {
      "channel": 4,
      "note": 84,
      "start": 0.2542,
      "duration": 0.0982,
      "velocity": 97,
      "chip": "ym2612"
    },
    {
      "channel": 0,
      "note": 60,
      "start": 0.3513,
      "duration": 0.0999,
      "velocity": 113,
      "chip": "ym2612"
    },
    {
      "channel": 1,
      "note": 84,
      "start": 0.3519,
      "duration": 0.0999,
      "velocity": 97,
      "chip": "ym2612"
    },
    {
      "channel": 4,
      "note": 79,
      "start": 0.3526,
      "duration": 0.103,
      "velocity": 97,
      "chip": "ym2612"
    },
    {
      "channel": 0,
      "note": 55,
      "start": 0.4514,
      "duration": 0.1999,
      "velocity": 113,
      "chip": "ym2612"
    },
    {
      "channel": 1,
      "note": 72,
      "start": 0.452,
      "duration": 0.0994,
      "velocity": 97,
      "chip": "ym2612"
    },
    {
      "channel": 4,
      "note": 81,
      "start": 0.4558,
      "duration": 0.2009,
      "velocity": 97,
      "chip": "ym2612"
    },
    {
      "channel": 1,
      "note": 76,
      "start": 0.5515,
      "duration": 0.1004,
      "velocity": 97,
      "chip": "ym2612"
    },
    {
      "channel": 0,
      "note": 57,
      "start": 0.6515,
      "duration": 0.1998,
      "velocity": 113,
      "chip": "ym2612"
    },
    {
      "channel": 1,
      "note": 79,
      "start": 0.652,
      "duration": 0.0994,
      "velocity": 97,
      "chip": "ym2612"
    },
    {
      "channel": 2,
      "note": 76,
      "start": 0.6541,
      "duration": 0.0977,
      "velocity": 102,
      "chip": "ym2612"
    },
    {
      "channel": 3,
      "note": 72,
      "start": 0.6563,
      "duration": 0.0961,
      "velocity": 102,
      "chip": "ym2612"
    },
    {
      "channel": 4,
      "note": 79,
      "start": 0.6569,
      "duration": 0.3966,
      "velocity": 97,
      "chip": "ym2612"
    },
    {
      "channel": 1,
      "note": 84,
      "start": 0.7515,
      "duration": 0.1003,
      "velocity": 97,
      "chip": "ym2612"
    },
    {
      "channel": 2,
      "note": 76,
      "start": 0.752,
      "duration": 0.1003,
      "velocity": 102,
      "chip": "ym2612"
    },
    {
      "channel": 3,
      "note": 72,
      "start": 0.7526,
      "duration": 0.1003,
      "velocity": 102,
      "chip": "ym2612"
    },
    {
      "channel": 0,
      "note": 60,
      "start": 0.8514,
      "duration": 0.1999,
      "velocity": 113,
      "chip": "ym2612"
    },
    {
      "channel": 1,
      "note": 72,
      "start": 0.852,
      "duration": 0.0993,
      "velocity": 97,
      "chip": "ym2612"
    },
    {
      "channel": 2,
      "note": 77,
      "start": 0.8525,
      "duration": 0.1999,
      "velocity": 102,
      "chip": "ym2612"
    },
    {
      "channel": 3,
      "note": 74,
      "start": 0.8531,
      "duration": 0.1999,
      "velocity": 102,
      "chip": "ym2612"
    },
    {
      "channel": 1,
      "note": 76,
      "start": 0.9515,
      "duration": 0.1003,
      "velocity": 97,
      "chip": "ym2612"
    },
    {
      "channel": 0,
      "note": 60,
      "start": 1.0514,
      "duration": 0.0999,
      "velocity": 113,
      "chip": "ym2612"
    },
    {
      "channel": 1,
      "note": 79,
      "start": 1.052,
      "duration": 0.0999,
      "velocity": 97,
      "chip": "ym2612"
    },
    {
      "channel": 2,
      "note": 76,
      "start": 1.0525,
      "duration": 0.1998,
      "velocity": 102,
      "chip": "ym2612"
    },
    {
      "channel": 3,
      "note": 72,
      "start": 1.0531,
      "duration": 0.1998,
      "velocity": 102,
      "chip": "ym2612"
    },
    {
      "channel": 4,
      "note": 84,
      "start": 1.0536,
      "duration": 0.0988,
      "velocity": 97,
      "chip": "ym2612"
    },
    {
      "channel": 0,
      "note": 60,
      "start": 1.1515,
      "duration": 0.0998,
      "velocity": 113,
      "chip": "ym2612"
    },
    {
      "channel": 1,
      "note": 84,
      "start": 1.152,
      "duration": 0.0999,
      "velocity": 97,
      "chip": "ym2612"
    },
    {
      "channel": 4,
      "note": 79,
      "start": 1.1527,
      "duration": 0.1008,
      "velocity": 97,
      "chip": "ym2612"
    },
    {
      "channel": 0,
      "note": 55,
      "start": 1.2515,
      "duration": 0.1998,
      "velocity": 113,
      "chip": "ym2612"
    },
    {
      "channel": 1,
      "note": 72,
      "start": 1.252,
      "duration": 0.0994,
      "velocity": 97,
      "chip": "ym2612"
    },
    {
      "channel": 2,
      "note": 74,
      "start": 1.2525,
      "duration": 0.1998,
      "velocity": 102,
      "chip": "ym2612"
    },
    {
      "channel": 3,
      "note": 71,
      "start": 1.2531,
      "duration": 0.1998,
      "velocity": 102,
      "chip": "ym2612"
    },
    {
      "channel": 4,
      "note": 81,
      "start": 1.2537,
      "duration": 0.1998,
      "velocity": 97,
      "chip": "ym2612"
    },
    {
      "channel": 1,
      "note": 76,
      "start": 1.3515,
      "duration": 0.1004,
      "velocity": 97,
      "chip": "ym2612"
    },
    {
      "channel": 0,
      "note": 57,
      "start": 1.4515,
      "duration": 0.1998,
      "velocity": 113,
      "chip": "ym2612"
    },
    {
      "channel": 1,
      "note": 79,
      "start": 1.452,
      "duration": 0.0994,
      "velocity": 97,
      "chip": "ym2612"
    },
    {
      "channel": 2,
      "note": 72,
      "start": 1.4525,
      "duration": 0.1998,
      "velocity": 102,
      "chip": "ym2612"
    },
    {
      "channel": 3,
      "note": 69,
      "start": 1.4531,
      "duration": 0.1998,
      "velocity": 102,
      "chip": "ym2612"
    },
    {
      "channel": 4,
      "note": 79,
      "start": 1.4537,
      "duration": 0.3987,
      "velocity": 97,
      "chip": "ym2612"
    },
    {
      "channel": 1,
      "note": 84,
      "start": 1.5515,
      "duration": 0.1003,
      "velocity": 97,
      "chip": "ym2612"
    },
    {
      "channel": 0,
      "note": 55,
      "start": 1.6514,
      "duration": 0.1998,
      "velocity": 113,
      "chip": "ym2612"
    },
    {
      "channel": 1,
      "note": 74,
      "start": 1.652,
      "duration": 0.0993,
      "velocity": 97,
      "chip": "ym2612"
    },
    {
      "channel": 2,
      "note": 74,
      "start": 1.6525,
      "duration": 0.2999,
      "velocity": 102,
      "chip": "ym2612"
    },
    {
      "channel": 3,
      "note": 71,
      "start": 1.6531,
      "duration": 0.2999,
      "velocity": 102,
      "chip": "ym2612"
    },
    {
      "channel": 1,
      "note": 79,
      "start": 1.7515,
      "duration": 0.1003,
      "velocity": 97,
      "chip": "ym2612"
    },
    {
      "channel": 0,
      "note": 55,
      "start": 1.8514,
      "duration": 0.0999,
      "velocity": 113,
      "chip": "ym2612"
    },
    {
      "channel": 1,
      "note": 83,
      "start": 1.8519,
      "duration": 0.0999,
      "velocity": 97,
      "chip": "ym2612"
    },
    {
      "channel": 4,
      "note": 79,
      "start": 1.8526,
      "duration": 0.1009,
      "velocity": 97,
      "chip": "ym2612"
    },
    {
      "channel": 0,
      "note": 55,
      "start": 1.9515,
      "duration": 0.0998,
      "velocity": 113,
      "chip": "ym2612"
    },
    {
      "channel": 1,
      "note": 86,
      "start": 1.952,
      "duration": 0.0999,
      "velocity": 97,
      "chip": "ym2612"
    },
    {
      "channel": 2,
      "note": 67,
      "start": 1.9525,
      "duration": 0.0998,
      "velocity": 102,
      "chip": "ym2612"
    },
    {
      "channel": 3,
      "note": 62,
      "start": 1.9531,
      "duration": 0.0998,
      "velocity": 102,
      "chip": "ym2612"
    },
    {
      "channel": 4,
      "note": 74,
      "start": 1.9537,
      "duration": 0.0998,
      "velocity": 97,
      "chip": "ym2612"
    },
    {
      "channel": 0,
      "note": 50,
      "start": 2.0515,
      "duration": 0.1998,
      "velocity": 113,
      "chip": "ym2612"
    },
    {
      "channel": 1,
      "note": 74,
      "start": 2.052,
      "duration": 0.0994,
      "velocity": 97,
      "chip": "ym2612"
    },
    {
      "channel": 2,
      "note": 67,
      "start": 2.0525,
      "duration": 1.2014,
      "velocity": 102,
      "chip": "ym2612"
    },
    {
      "channel": 3,
      "note": 62,
      "start": 2.0531,
      "duration": 1.2029,
      "velocity": 102,
      "chip": "ym2612"
    },
    {
      "channel": 4,
      "note": 76,
      "start": 2.0537,
      "duration": 0.1987,
      "velocity": 97,
      "chip": "ym2612"
    },
    {
      "channel": 1,
      "note": 79,
      "start": 2.1515,
      "duration": 0.1003,
      "velocity": 97,
      "chip": "ym2612"
    },
    {
      "channel": 0,
      "note": 52,
      "start": 2.2514,
      "duration": 0.1998,
      "velocity": 113,
      "chip": "ym2612"
    },
    {
      "channel": 1,
      "note": 83,
      "start": 2.2519,
      "duration": 0.0994,
      "velocity": 97,
      "chip": "ym2612"
    },
    {
      "channel": 4,
      "note": 74,
      "start": 2.2526,
      "duration": 0.3998,
      "velocity": 97,
      "chip": "ym2612"
    },
    {
      "channel": 1,
      "note": 86,
      "start": 2.3514,
      "duration": 0.1004,
      "velocity": 97,
      "chip": "ym2612"
    },
    {
      "channel": 0,
      "note": 55,
      "start": 2.4514,
      "duration": 0.1998,
      "velocity": 113,
      "chip": "ym2612"
    },
    {
      "channel": 1,
      "note": 74,
      "start": 2.452,
      "duration": 0.0993,
      "velocity": 97,
      "chip": "ym2612"
    },
    {
      "channel": 1,
      "note": 79,
      "start": 2.5515,
      "duration": 0.1003,
      "velocity": 97,
      "chip": "ym2612"
    },
    {
      "channel": 0,
      "note": 55,
      "start": 2.6513,
      "duration": 0.0999,
      "velocity": 113,
      "chip": "ym2612"
    },
    {
      "channel": 1,
      "note": 83,
      "start": 2.6519,
      "duration": 0.0998,
      "velocity": 97,
      "chip": "ym2612"
    },
    {
      "channel": 4,
      "note": 79,
      "start": 2.6526,
      "duration": 0.0998,
      "velocity": 97,
      "chip": "ym2612"
    },
    {
      "channel": 0,
      "note": 55,
      "start": 2.7513,
      "duration": 0.0999,
      "velocity": 113,
      "chip": "ym2612"
    },
    {
      "channel": 1,
      "note": 86,
      "start": 2.7519,
      "duration": 0.0998,
      "velocity": 97,
      "chip": "ym2612"
    },
    {
      "channel": 4,
      "note": 74,
      "start": 2.7526,
      "duration": 0.0998,
      "velocity": 97,
      "chip": "ym2612"
    },
    {
      "channel": 0,
      "note": 50,
      "start": 2.8513,
      "duration": 0.1999,
      "velocity": 113,
      "chip": "ym2612"
    },
    {
      "channel": 1,
      "note": 74,
      "start": 2.8519,
      "duration": 0.0994,
      "velocity": 97,
      "chip": "ym2612"
    },
    {
      "channel": 4,
      "note": 76,
      "start": 2.8526,
      "duration": 0.1998,
      "velocity": 97,
      "chip": "ym2612"
    },
    {
      "channel": 1,
      "note": 79,
      "start": 2.9515,
      "duration": 0.1003,
      "velocity": 97,
      "chip": "ym2612"
    },
    {
      "channel": 0,
      "note": 52,
      "start": 3.0513,
      "duration": 0.1999,
      "velocity": 113,
      "chip": "ym2612"
    },
    {
      "channel": 1,
      "note": 83,
      "start": 3.0519,
      "duration": 0.0994,
      "velocity": 97,
      "chip": "ym2612"
    },
    {
      "channel": 4,
      "note": 74,
      "start": 3.0526,
      "duration": 0.3998,
      "velocity": 97,
      "chip": "ym2612"
    },
    {
      "channel": 1,
      "note": 86,
      "start": 3.1514,
      "duration": 0.1004,
      "velocity": 97,
      "chip": "ym2612"
    },
    {
      "channel": 0,
      "note": 57,
      "start": 3.2514,
      "duration": 0.1998,
      "velocity": 113,
      "chip": "ym2612"
    },
    {
      "channel": 1,
      "note": 72,
      "start": 3.252,
      "duration": 0.0993,
      "velocity": 97,
      "chip": "ym2612"
    },
    {
      "channel": 2,
      "note": 72,
      "start": 3.2541,
      "duration": 0.5999,
      "velocity": 102,
      "chip": "ym2612"
    },
    {
      "channel": 3,
      "note": 69,
      "start": 3.2562,
      "duration": 0.5999,
      "velocity": 102,
      "chip": "ym2612"
    },
    {
      "channel": 1,
      "note": 76,
      "start": 3.3515,
      "duration": 0.1003,
      "velocity": 97,
      "chip": "ym2612"
    },
    {
      "channel": 0,
      "note": 57,
      "start": 3.4514,
      "duration": 0.0998,
      "velocity": 113,
      "chip": "ym2612"
    },
    {
      "channel": 1,
      "note": 81,
      "start": 3.4519,
      "duration": 0.0998,
      "velocity": 97,
      "chip": "ym2612"
    },
    {
      "channel": 4,
      "note": 84,
      "start": 3.4526,
      "duration": 0.0998,
      "velocity": 97,
      "chip": "ym2612"
    },
    {
      "channel": 0,
      "note": 57,
      "start": 3.5513,
      "duration": 0.0999,
      "velocity": 113,
      "chip": "ym2612"
    },
    {
      "channel": 1,
      "note": 84,
      "start": 3.5519,
      "duration": 0.0999,
      "velocity": 97,
      "chip": "ym2612"
    },
    {
      "channel": 4,
      "note": 79,
      "start": 3.5526,
      "duration": 0.1031,
      "velocity": 97,
      "chip": "ym2612"
    },
    {
      "channel": 0,
      "note": 52,
      "start": 3.6515,
      "duration": 0.1998,
      "velocity": 113,
      "chip": "ym2612"
    },
    {
      "channel": 1,
      "note": 72,
      "start": 3.652,
      "duration": 0.0994,
      "velocity": 97,
      "chip": "ym2612"
    },
    {
      "channel": 4,
      "note": 81,
      "start": 3.6558,
      "duration": 0.2009,
      "velocity": 97,
      "chip": "ym2612"
    },
    {
      "channel": 1,
      "note": 76,
      "start": 3.7515,
      "duration": 0.1004,
      "velocity": 97,
      "chip": "ym2612"
    },
    {
      "channel": 0,
      "note": 55,
      "start": 3.8515,
      "duration": 0.1998,
      "velocity": 113,
      "chip": "ym2612"
    },
    {
      "channel": 1,
      "note": 81,
      "start": 3.852,
      "duration": 0.0994,
      "velocity": 97,
      "chip": "ym2612"
    },
    {
      "channel": 2,
      "note": 72,
      "start": 3.8541,
      "duration": 0.0977,
      "velocity": 102,
      "chip": "ym2612"
    },
    {
      "channel": 3,
      "note": 69,
      "start": 3.8563,
      "duration": 0.0961,
      "velocity": 102,
      "chip": "ym2612"
    },
    {
      "channel": 4,
      "note": 79,
      "start": 3.8569,
      "duration": 0.3966,
      "velocity": 97,
      "chip": "ym2612"
    },
    {
      "channel": 1,
      "note": 84,
      "start": 3.9515,
      "duration": 0.1003,
      "velocity": 97,
      "chip": "ym2612"
    },
    {
      "channel": 2,
      "note": 72,
      "start": 3.952,
      "duration": 0.1003,
      "velocity": 102,
      "chip": "ym2612"
    },
    {
      "channel": 3,
      "note": 69,
      "start": 3.9526,
      "duration": 0.1002,
      "velocity": 102,
      "chip": "ym2612"
    },
    {
      "channel": 0,
      "note": 57,
      "start": 4.0514,
      "duration": 0.1999,
      "velocity": 113,
      "chip": "ym2612"
    },
    {
      "channel": 1,
      "note": 72,
      "start": 4.052,
      "duration": 0.0993,
      "velocity": 97,
      "chip": "ym2612"
    },
    {
      "channel": 2,
      "note": 74,
      "start": 4.0525,
      "duration": 0.1999,
      "velocity": 102,
      "chip": "ym2612"
    },
    {
      "channel": 3,
      "note": 71,
      "start": 4.0531,
      "duration": 0.1999,
      "velocity": 102,
      "chip": "ym2612"
    },
    {
      "channel": 1,
      "note": 76,
      "start": 4.1515,
      "duration": 0.1004,
      "velocity": 97,
      "chip": "ym2612"
    },
    {
      "channel": 0,
      "note": 57,
      "start": 4.2515,
      "duration": 0.0998,
      "velocity": 113,
      "chip": "ym2612"
    },
    {
      "channel": 1,
      "note": 81,
      "start": 4.252,
      "duration": 0.0999,
      "velocity": 97,
      "chip": "ym2612"
    },
    {
      "channel": 2,
      "note": 72,
      "start": 4.2525,
      "duration": 0.1998,
      "velocity": 102,
      "chip": "ym2612"
    },
    {
      "channel": 3,
      "note": 69,
      "start": 4.2531,
      "duration": 0.1998,
      "velocity": 102,
      "chip": "ym2612"
    },
    {
      "channel": 4,
      "note": 84,
      "start": 4.2537,
      "duration": 0.0988,
      "velocity": 97,
      "chip": "ym2612"
    },
    {
      "channel": 0,
      "note": 57,
      "start": 4.3515,
      "duration": 0.0998,
      "velocity": 113,
      "chip": "ym2612"
    },
    {
      "channel": 1,
      "note": 84,
      "start": 4.352,
      "duration": 0.0999,
      "velocity": 97,
      "chip": "ym2612"
    },
    {
      "channel": 4,
      "note": 79,
      "start": 4.3527,
      "duration": 0.1008,
      "velocity": 97,
      "chip": "ym2612"
    },
    {
      "channel": 0,
      "note": 52,
      "start": 4.4515,
      "duration": 0.1998,
      "velocity": 113,
      "chip": "ym2612"
    },
    {
      "channel": 1,
      "note": 72,
      "start": 4.452,
      "duration": 0.0994,
      "velocity": 97,
      "chip": "ym2612"
    },
    {
      "channel": 2,
      "note": 74,
      "start": 4.4525,
      "duration": 0.1998,
      "velocity": 102,
      "chip": "ym2612"
    },
    {
      "channel": 3,
      "note": 71,
      "start": 4.4531,
      "duration": 0.1998,
      "velocity": 102,
      "chip": "ym2612"
    },
    {
      "channel": 4,
      "note": 81,
      "start": 4.4537,
      "duration": 0.1998,
      "velocity": 97,
      "chip": "ym2612"
    },
    {
      "channel": 1,
      "note": 76,
      "start": 4.5515,
      "duration": 0.1004,
      "velocity": 97,
      "chip": "ym2612"
    },
    {
      "channel": 0,
      "note": 55,
      "start": 4.6515,
      "duration": 0.1998,
      "velocity": 113,
      "chip": "ym2612"
    },
    {
      "channel": 1,
      "note": 81,
      "start": 4.652,
      "duration": 0.0994,
      "velocity": 97,
      "chip": "ym2612"
    },
    {
      "channel": 2,
      "note": 72,
      "start": 4.6525,
      "duration": 0.1998,
      "velocity": 102,
      "chip": "ym2612"
    },
    {
      "channel": 3,
      "note": 69,
      "start": 4.6531,
      "duration": 0.1998,
      "velocity": 102,
      "chip": "ym2612"
    },
    {
      "channel": 4,
      "note": 79,
      "start": 4.6537,
      "duration": 0.3987,
      "velocity": 97,
      "chip": "ym2612"
    },
    {
      "channel": 1,
      "note": 84,
      "start": 4.7515,
      "duration": 0.1003,
      "velocity": 97,
      "chip": "ym2612"
    },
    {
      "channel": 0,
      "note": 52,
      "start": 4.8514,
      "duration": 0.1998,
      "velocity": 113,
      "chip": "ym2612"
    },
    {
      "channel": 1,
      "note": 71,
      "start": 4.852,
      "duration": 0.0993,
      "velocity": 97,
      "chip": "ym2612"
    },
    {
      "channel": 2,
      "note": 76,
      "start": 4.8525,
      "duration": 0.2999,
      "velocity": 102,
      "chip": "ym2612"
    },
    {
      "channel": 3,
      "note": 71,
      "start": 4.8531,
      "duration": 0.2999,
      "velocity": 102,
      "chip": "ym2612"
    },
    {
      "channel": 1,
      "note": 76,
      "start": 4.9515,
      "duration": 0.1003,
      "velocity": 97,
      "chip": "ym2612"
    },
    {
      "channel": 0,
      "note": 52,
      "start": 5.0513,
      "duration": 0.0999,
      "velocity": 113,
      "chip": "ym2612"
    },
    {
      "channel": 1,
      "note": 79,
      "start": 5.0519,
      "duration": 0.0999,
      "velocity": 97,
      "chip": "ym2612"
    },
    {
      "channel": 4,
      "note": 83,
      "start": 5.0526,
      "duration": 0.1009,
      "velocity": 97,
      "chip": "ym2612"
    },
    {
      "channel": 0,
      "note": 52,
      "start": 5.1515,
      "duration": 0.0998,
      "velocity": 113,
      "chip": "ym2612"
    },
    {
      "channel": 1,
      "note": 83,
      "start": 5.152,
      "duration": 0.0999,
      "velocity": 97,
      "chip": "ym2612"
    },
    {
      "channel": 2,
      "note": 71,
      "start": 5.1525,
      "duration": 0.0998,
      "velocity": 102,
      "chip": "ym2612"
    },
    {
      "channel": 3,
      "note": 67,
      "start": 5.1531,
      "duration": 0.0998,
      "velocity": 102,
      "chip": "ym2612"
    },
    {
      "channel": 4,
      "note": 79,
      "start": 5.1537,
      "duration": 0.0998,
      "velocity": 97,
      "chip": "ym2612"
    },
    {
      "channel": 0,
      "note": 47,
      "start": 5.2515,
      "duration": 0.1998,
      "velocity": 113,
      "chip": "ym2612"
    },
    {
      "channel": 1,
      "note": 71,
      "start": 5.252,
      "duration": 0.0994,
      "velocity": 97,
      "chip": "ym2612"
    },
    {
      "channel": 2,
      "note": 71,
      "start": 5.2525,
      "duration": 1.2016,
      "velocity": 102,
      "chip": "ym2612"
    },
    {
      "channel": 3,
      "note": 67,
      "start": 5.2531,
      "duration": 1.2032,
      "velocity": 102,
      "chip": "ym2612"
    },
    {
      "channel": 4,
      "note": 81,
      "start": 5.2537,
      "duration": 0.1987,
      "velocity": 97,
      "chip": "ym2612"
    },
    {
      "channel": 1,
      "note": 76,
      "start": 5.3515,
      "duration": 0.1002,
      "velocity": 97,
      "chip": "ym2612"
    },
    {
      "channel": 0,
      "note": 50,
      "start": 5.4514,
      "duration": 0.1998,
      "velocity": 113,
      "chip": "ym2612"
    },
    {
      "channel": 1,
      "note": 79,
      "start": 5.4519,
      "duration": 0.0994,
      "velocity": 97,
      "chip": "ym2612"
    },
    {
      "channel": 4,
      "note": 79,
      "start": 5.4526,
      "duration": 0.3998,
      "velocity": 97,
      "chip": "ym2612"
    },
    {
      "channel": 1,
      "note": 83,
      "start": 5.5514,
      "duration": 0.1004,
      "velocity": 97,
      "chip": "ym2612"
    },
    {
      "channel": 0,
      "note": 52,
      "start": 5.6514,
      "duration": 0.1998,
      "velocity": 113,
      "chip": "ym2612"
    },
    {
      "channel": 1,
      "note": 71,
      "start": 5.652,
      "duration": 0.0993,
      "velocity": 97,
      "chip": "ym2612"
    },
    {
      "channel": 1,
      "note": 76,
      "start": 5.7515,
      "duration": 0.1003,
      "velocity": 97,
      "chip": "ym2612"
    },
    {
      "channel": 0,
      "note": 52,
      "start": 5.8513,
      "duration": 0.0999,
      "velocity": 113,
      "chip": "ym2612"
    },
    {
      "channel": 1,
      "note": 79,
      "start": 5.8519,
      "duration": 0.0998,
      "velocity": 97,
      "chip": "ym2612"
    },
    {
      "channel": 4,
      "note": 83,
      "start": 5.8526,
      "duration": 0.0998,
      "velocity": 97,
      "chip": "ym2612"
    },
    {
      "channel": 0,
      "note": 52,
      "start": 5.9513,
      "duration": 0.0999,
      "velocity": 113,
      "chip": "ym2612"
    },
    {
      "channel": 1,
      "note": 83,
      "start": 5.9519,
      "duration": 0.0998,
      "velocity": 97,
      "chip": "ym2612"
    },
    {
      "channel": 4,
      "note": 79,
      "start": 5.9526,
      "duration": 0.0998,
      "velocity": 97,
      "chip": "ym2612"
    },
    {
      "channel": 0,
      "note": 47,
      "start": 6.0513,
      "duration": 0.1999,
      "velocity": 113,
      "chip": "ym2612"
    },
    {
      "channel": 1,
      "note": 71,
      "start": 6.0519,
      "duration": 0.0994,
      "velocity": 97,
      "chip": "ym2612"
    },
    {
      "channel": 4,
      "note": 81,
      "start": 6.0526,
      "duration": 0.1998,
      "velocity": 97,
      "chip": "ym2612"
    },
    {
      "channel": 1,
      "note": 76,
      "start": 6.1514,
      "duration": 0.1003,
      "velocity": 97,
      "chip": "ym2612"
    },
    {
      "channel": 0,
      "note": 50,
      "start": 6.2513,
      "duration": 0.2001,
      "velocity": 113,
      "chip": "ym2612"
    },
    {
      "channel": 1,
      "note": 79,
      "start": 6.2519,
      "duration": 0.0994,
      "velocity": 97,
      "chip": "ym2612"
    },
    {
      "channel": 4,
      "note": 79,
      "start": 6.2526,
      "duration": 0.3999,
      "velocity": 97,
      "chip": "ym2612"
    },
    {
      "channel": 1,
      "note": 83,
      "start": 6.3515,
      "duration": 0.1005,
      "velocity": 97,
      "chip": "ym2612"
    },
    {
      "channel": 0,
      "note": 65,
      "start": 6.4515,
      "duration": 0.1997,
      "velocity": 113,
      "chip": "ym2612"
    },
    {
      "channel": 1,
      "note": 72,
      "start": 6.4522,
      "duration": 0.0991,
      "velocity": 97,
      "chip": "ym2612"
    },
    {
      "channel": 2,
      "note": 69,
      "start": 6.4543,
      "duration": 0.5996,
      "velocity": 102,
      "chip": "ym2612"
    },
    {
      "channel": 3,
      "note": 65,
      "start": 6.4565,
      "duration": 0.5996,
      "velocity": 102,
      "chip": "ym2612"
    },
    {
      "channel": 1,
      "note": 77,
      "start": 6.5515,
      "duration": 0.1003,
      "velocity": 97,
      "chip": "ym2612"
    },
    {
      "channel": 0,
      "note": 65,
      "start": 6.6513,
      "duration": 0.0999,
      "velocity": 113,
      "chip": "ym2612"
    },
    {
      "channel": 1,
      "note": 81,
      "start": 6.6519,
      "duration": 0.0998,
      "velocity": 97,
      "chip": "ym2612"
    },
    {
      "channel": 4,
      "note": 84,
      "start": 6.6527,
      "duration": 0.0998,
      "velocity": 97,
      "chip": "ym2612"
    },
    {
      "channel": 0,
      "note": 65,
      "start": 6.7513,
      "duration": 0.0999,
      "velocity": 113,
      "chip": "ym2612"
    },
    {
      "channel": 1,
      "note": 84,
      "start": 6.7519,
      "duration": 0.0999,
      "velocity": 97,
      "chip": "ym2612"
    },
    {
      "channel": 4,
      "note": 79,
      "start": 6.7526,
      "duration": 0.1031,
      "velocity": 97,
      "chip": "ym2612"
    },
    {
      "channel": 0,
      "note": 60,
      "start": 6.8515,
      "duration": 0.1998,
      "velocity": 113,
      "chip": "ym2612"
    },
    {
      "channel": 1,
      "note": 72,
      "start": 6.852,
      "duration": 0.0994,
      "velocity": 97,
      "chip": "ym2612"
    },
    {
      "channel": 4,
      "note": 81,
      "start": 6.8558,
      "duration": 0.2009,
      "velocity": 97,
      "chip": "ym2612"
    },
    {
      "channel": 1,
      "note": 77,
      "start": 6.9515,
      "duration": 0.1003,
      "velocity": 97,
      "chip": "ym2612"
    },
    {
      "channel": 0,
      "note": 62,
      "start": 7.0514,
      "duration": 0.1998,
      "velocity": 113,
      "chip": "ym2612"
    },
    {
      "channel": 1,
      "note": 81,
      "start": 7.052,
      "duration": 0.0994,
      "velocity": 97,
      "chip": "ym2612"
    },
    {
      "channel": 2,
      "note": 69,
      "start": 7.0541,
      "duration": 0.0977,
      "velocity": 102,
      "chip": "ym2612"
    },
    {
      "channel": 3,
      "note": 65,
      "start": 7.0563,
      "duration": 0.0961,
      "velocity": 102,
      "chip": "ym2612"
    },
    {
      "channel": 4,
      "note": 77,
      "start": 7.0569,
      "duration": 0.3956,
      "velocity": 97,
      "chip": "ym2612"
    },
    {
      "channel": 1,
      "note": 84,
      "start": 7.1515,
      "duration": 0.1003,
      "velocity": 97,
      "chip": "ym2612"
    },
    {
      "channel": 2,
      "note": 71,
      "start": 7.152,
      "duration": 0.1003,
      "velocity": 102,
      "chip": "ym2612"
    },
    {
      "channel": 3,
      "note": 67,
      "start": 7.1526,
      "duration": 0.1003,
      "velocity": 102,
      "chip": "ym2612"
    },
    {
      "channel": 0,
      "note": 65,
      "start": 7.2514,
      "duration": 0.1998,
      "velocity": 113,
      "chip": "ym2612"
    },
    {
      "channel": 1,
      "note": 72,
      "start": 7.252,
      "duration": 0.0993,
      "velocity": 97,
      "chip": "ym2612"
    },
    {
      "channel": 2,
      "note": 72,
      "start": 7.2525,
      "duration": 0.3999,
      "velocity": 102,
      "chip": "ym2612"
    },
    {
      "channel": 3,
      "note": 69,
      "start": 7.2531,
      "duration": 0.3999,
      "velocity": 102,
      "chip": "ym2612"
    },
    {
      "channel": 1,
      "note": 77,
      "start": 7.3515,
      "duration": 0.1003,
      "velocity": 97,
      "chip": "ym2612"
    },
    {
      "channel": 0,
      "note": 65,
      "start": 7.4514,
      "duration": 0.0998,
      "velocity": 113,
      "chip": "ym2612"
    },
    {
      "channel": 1,
      "note": 81,
      "start": 7.4519,
      "duration": 0.0998,
      "velocity": 97,
      "chip": "ym2612"
    },
    {
      "channel": 4,
      "note": 84,
      "start": 7.4526,
      "duration": 0.0998,
      "velocity": 97,
      "chip": "ym2612"
    },
    {
      "channel": 0,
      "note": 65,
      "start": 7.5513,
      "duration": 0.0999,
      "velocity": 113,
      "chip": "ym2612"
    },
    {
      "channel": 1,
      "note": 84,
      "start": 7.5519,
      "duration": 0.0999,
      "velocity": 97,
      "chip": "ym2612"
    },
    {
      "channel": 4,
      "note": 79,
      "start": 7.5526,
      "duration": 0.1009,
      "velocity": 97,
      "chip": "ym2612"
    },
    {
      "channel": 0,
      "note": 60,
      "start": 7.6514,
      "duration": 0.1999,
      "velocity": 113,
      "chip": "ym2612"
    },
    {
      "channel": 1,
      "note": 72,
      "start": 7.652,
      "duration": 0.0994,
      "velocity": 97,
      "chip": "ym2612"
    },
    {
      "channel": 2,
      "note": 74,
      "start": 7.6525,
      "duration": 0.1998,
      "velocity": 102,
      "chip": "ym2612"
    },
    {
      "channel": 3,
      "note": 71,
      "start": 7.6531,
      "duration": 0.1998,
      "velocity": 102,
      "chip": "ym2612"
    },
    {
      "channel": 4,
      "note": 81,
      "start": 7.6536,
      "duration": 0.1999,
      "velocity": 97,
      "chip": "ym2612"
    },
    {
      "channel": 1,
      "note": 77,
      "start": 7.7515,
      "duration": 0.1003,
      "velocity": 97,
      "chip": "ym2612"
    },
    {
      "channel": 0,
      "note": 62,
      "start": 7.8514,
      "duration": 0.1998,
      "velocity": 113,
      "chip": "ym2612"
    },
    {
      "channel": 1,
      "note": 81,
      "start": 7.852,
      "duration": 0.0994,
      "velocity": 97,
      "chip": "ym2612"
    },
    {
      "channel": 2,
      "note": 72,
      "start": 7.8525,
      "duration": 0.1998,
      "velocity": 102,
      "chip": "ym2612"
    },
    {
      "channel": 3,
      "note": 69,
      "start": 7.8531,
      "duration": 0.1998,
      "velocity": 102,
      "chip": "ym2612"
    },
    {
      "channel": 4,
      "note": 77,
      "start": 7.8536,
      "duration": 0.3988,
      "velocity": 97,
      "chip": "ym2612"
    },
    {
      "channel": 1,
      "note": 84,
      "start": 7.9515,
      "duration": 0.1003,
      "velocity": 97,
      "chip": "ym2612"
    },
    {
      "channel": 0,
      "note": 60,
      "start": 8.0514,
      "duration": 0.1998,
      "velocity": 113,
      "chip": "ym2612"
    },
    {
      "channel": 1,
      "note": 72,
      "start": 8.052,
      "duration": 0.0993,
      "velocity": 97,
      "chip": "ym2612"
    },
    {
      "channel": 2,
      "note": 76,
      "start": 8.0525,
      "duration": 0.2999,
      "velocity": 102,
      "chip": "ym2612"
    },
    {
      "channel": 3,
      "note": 72,
      "start": 8.0531,
      "duration": 0.2999,
      "velocity": 102,
      "chip": "ym2612"
    },
    {
      "channel": 1,
      "note": 76,
      "start": 8.1515,
      "duration": 0.1003,
      "velocity": 97,
      "chip": "ym2612"
    },
    {
      "channel": 0,
      "note": 60,
      "start": 8.2513,
      "duration": 0.0999,
      "velocity": 113,
      "chip": "ym2612"
    },
    {
      "channel": 1,
      "note": 79,
      "start": 8.2519,
      "duration": 0.0999,
      "velocity": 97,
      "chip": "ym2612"
    },
    {
      "channel": 4,
      "note": 84,
      "start": 8.2526,
      "duration": 0.1009,
      "velocity": 97,
      "chip": "ym2612"
    },
    {
      "channel": 0,
      "note": 60,
      "start": 8.3514,
      "duration": 0.0999,
      "velocity": 113,
      "chip": "ym2612"
    },
    {
      "channel": 1,
      "note": 84,
      "start": 8.352,
      "duration": 0.0999,
      "velocity": 97,
      "chip": "ym2612"
    },
    {
      "channel": 2,
      "note": 77,
      "start": 8.3525,
      "duration": 0.2998,
      "velocity": 102,
      "chip": "ym2612"
    },
    {
      "channel": 3,
      "note": 74,
      "start": 8.3531,
      "duration": 0.2998,
      "velocity": 102,
      "chip": "ym2612"
    },
    {
      "channel": 4,
      "note": 79,
      "start": 8.3536,
      "duration": 0.0988,
      "velocity": 97,
      "chip": "ym2612"
    },
    {
      "channel": 0,
      "note": 55,
      "start": 8.4515,
      "duration": 0.1998,
      "velocity": 113,
      "chip": "ym2612"
    },
    {
      "channel": 1,
      "note": 72,
      "start": 8.452,
      "duration": 0.0993,
      "velocity": 97,
      "chip": "ym2612"
    },
    {
      "channel": 4,
      "note": 81,
      "start": 8.4527,
      "duration": 0.2008,
      "velocity": 97,
      "chip": "ym2612"
    },
    {
      "channel": 1,
      "note": 76,
      "start": 8.5515,
      "duration": 0.1004,
      "velocity": 97,
      "chip": "ym2612"
    },
    {
      "channel": 0,
      "note": 57,
      "start": 8.6515,
      "duration": 0.1998,
      "velocity": 113,
      "chip": "ym2612"
    },
    {
      "channel": 1,
      "note": 79,
      "start": 8.652,
      "duration": 0.0994,
      "velocity": 97,
      "chip": "ym2612"
    },
    {
      "channel": 2,
      "note": 79,
      "start": 8.6525,
      "duration": 0.1998,
      "velocity": 102,
      "chip": "ym2612"
    },
    {
      "channel": 3,
      "note": 76,
      "start": 8.6531,
      "duration": 0.1998,
      "velocity": 102,
      "chip": "ym2612"
    },
    {
      "channel": 4,
      "note": 76,
      "start": 8.6537,
      "duration": 0.3987,
      "velocity": 97,
      "chip": "ym2612"
    },
    {
      "channel": 1,
      "note": 84,
      "start": 8.7515,
      "duration": 0.1003,
      "velocity": 97,
      "chip": "ym2612"
    },
    {
      "channel": 0,
      "note": 57,
      "start": 8.8514,
      "duration": 0.1998,
      "velocity": 113,
      "chip": "ym2612"
    },
    {
      "channel": 1,
      "note": 72,
      "start": 8.852,
      "duration": 0.0993,
      "velocity": 97,
      "chip": "ym2612"
    },
    {
      "channel": 2,
      "note": 72,
      "start": 8.8525,
      "duration": 0.8015,
      "velocity": 102,
      "chip": "ym2612"
    },
    {
      "channel": 3,
      "note": 69,
      "start": 8.8531,
      "duration": 0.803,
      "velocity": 102,
      "chip": "ym2612"
    },
    {
      "channel": 1,
      "note": 76,
      "start": 8.9515,
      "duration": 0.1003,
      "velocity": 97,
      "chip": "ym2612"
    },
    {
      "channel": 0,
      "note": 57,
      "start": 9.0513,
      "duration": 0.0999,
      "velocity": 113,
      "chip": "ym2612"
    },
    {
      "channel": 1,
      "note": 81,
      "start": 9.0519,
      "duration": 0.0998,
      "velocity": 97,
      "chip": "ym2612"
    },
    {
      "channel": 4,
      "note": 84,
      "start": 9.0526,
      "duration": 0.0998,
      "velocity": 97,
      "chip": "ym2612"
    },
    {
      "channel": 0,
      "note": 57,
      "start": 9.1513,
      "duration": 0.0999,
      "velocity": 113,
      "chip": "ym2612"
    },
    {
      "channel": 1,
      "note": 84,
      "start": 9.1519,
      "duration": 0.0999,
      "velocity": 97,
      "chip": "ym2612"
    },
    {
      "channel": 4,
      "note": 79,
      "start": 9.1526,
      "duration": 0.1031,
      "velocity": 97,
      "chip": "ym2612"
    },
    {
      "channel": 0,
      "note": 52,
      "start": 9.2515,
      "duration": 0.1998,
      "velocity": 113,
      "chip": "ym2612"
    },
    {
      "channel": 1,
      "note": 72,
      "start": 9.252,
      "duration": 0.0994,
      "velocity": 97,
      "chip": "ym2612"
    },
    {
      "channel": 4,
      "note": 81,
      "start": 9.2558,
      "duration": 0.1966,
      "velocity": 97,
      "chip": "ym2612"
    },
    {
      "channel": 1,
      "note": 76,
      "start": 9.3515,
      "duration": 0.1002,
      "velocity": 97,
      "chip": "ym2612"
    },
    {
      "channel": 0,
      "note": 55,
      "start": 9.4514,
      "duration": 0.1999,
      "velocity": 113,
      "chip": "ym2612"
    },
    {
      "channel": 1,
      "note": 81,
      "start": 9.4519,
      "duration": 0.0994,
      "velocity": 97,
      "chip": "ym2612"
    },
    {
      "channel": 4,
      "note": 76,
      "start": 9.4526,
      "duration": 0.3998,
      "velocity": 97,
      "chip": "ym2612"
    },
    {
      "channel": 1,
      "note": 84,
      "start": 9.5514,
      "duration": 0.1004,
      "velocity": 97,
      "chip": "ym2612"
    },
    {
      "channel": 0,
      "note": 65,
      "start": 9.6514,
      "duration": 0.1998,
      "velocity": 113,
      "chip": "ym2612"
    },
    {
      "channel": 1,
      "note": 72,
      "start": 9.652,
      "duration": 0.0993,
      "velocity": 97,
      "chip": "ym2612"
    },
    {
      "channel": 2,
      "note": 69,
      "start": 9.6541,
      "duration": 0.5983,
      "velocity": 102,
      "chip": "ym2612"
    },
    {
      "channel": 3,
      "note": 65,
      "start": 9.6562,
      "duration": 0.5967,
      "velocity": 102,
      "chip": "ym2612"
    },
    {
      "channel": 1,
      "note": 77,
      "start": 9.7515,
      "duration": 0.1003,
      "velocity": 97,
      "chip": "ym2612"
    },
    {
      "channel": 0,
      "note": 65,
      "start": 9.8514,
      "duration": 0.0998,
      "velocity": 113,
      "chip": "ym2612"
    },
    {
      "channel": 1,
      "note": 81,
      "start": 9.8519,
      "duration": 0.0998,
      "velocity": 97,
      "chip": "ym2612"
    },
    {
      "channel": 4,
      "note": 84,
      "start": 9.8526,
      "duration": 0.0998,
      "velocity": 97,
      "chip": "ym2612"
    },
    {
      "channel": 0,
      "note": 65,
      "start": 9.9513,
      "duration": 0.0999,
      "velocity": 113,
      "chip": "ym2612"
    },
    {
      "channel": 1,
      "note": 84,
      "start": 9.9519,
      "duration": 0.0999,
      "velocity": 97,
      "chip": "ym2612"
    },
    {
      "channel": 4,
      "note": 79,
      "start": 9.9526,
      "duration": 0.0998,
      "velocity": 97,
      "chip": "ym2612"
    },
    {
      "channel": 0,
      "note": 60,
      "start": 10.0514,
      "duration": 0.1999,
      "velocity": 113,
      "chip": "ym2612"
    },
    {
      "channel": 1,
      "note": 72,
      "start": 10.0519,
      "duration": 0.0994,
      "velocity": 97,
      "chip": "ym2612"
    },
    {
      "channel": 4,
      "note": 81,
      "start": 10.0526,
      "duration": 0.2009,
      "velocity": 97,
      "chip": "ym2612"
    },
    {
      "channel": 1,
      "note": 77,
      "start": 10.1514,
      "duration": 0.1004,
      "velocity": 97,
      "chip": "ym2612"
    },
    {
      "channel": 0,
      "note": 62,
      "start": 10.2515,
      "duration": 0.1998,
      "velocity": 113,
      "chip": "ym2612"
    },
    {
      "channel": 1,
      "note": 81,
      "start": 10.252,
      "duration": 0.0994,
      "velocity": 97,
      "chip": "ym2612"
    },
    {
      "channel": 2,
      "note": 69,
      "start": 10.2525,
      "duration": 0.0993,
      "velocity": 102,
      "chip": "ym2612"
    },
    {
      "channel": 3,
      "note": 65,
      "start": 10.2531,
      "duration": 0.0993,
      "velocity": 102,
      "chip": "ym2612"
    },
    {
      "channel": 4,
      "note": 79,
      "start": 10.2537,
      "duration": 0.3998,
      "velocity": 97,
      "chip": "ym2612"
    },
    {
      "channel": 1,
      "note": 84,
      "start": 10.3515,
      "duration": 0.1003,
      "velocity": 97,
      "chip": "ym2612"
    },
    {
      "channel": 2,
      "note": 71,
      "start": 10.352,
      "duration": 0.1003,
      "velocity": 102,
      "chip": "ym2612"
    },
    {
      "channel": 3,
      "note": 67,
      "start": 10.3526,
      "duration": 0.1002,
      "velocity": 102,
      "chip": "ym2612"
    },
    {
      "channel": 0,
      "note": 65,
      "start": 10.4514,
      "duration": 0.1999,
      "velocity": 113,
      "chip": "ym2612"
    },
    {
      "channel": 1,
      "note": 72,
      "start": 10.452,
      "duration": 0.0993,
      "velocity": 97,
      "chip": "ym2612"
    },
    {
      "channel": 2,
      "note": 72,
      "start": 10.4525,
      "duration": 0.1999,
      "velocity": 102,
      "chip": "ym2612"
    },
    {
      "channel": 3,
      "note": 69,
      "start": 10.4531,
      "duration": 0.1999,
      "velocity": 102,
      "chip": "ym2612"
    },
    {
      "channel": 1,
      "note": 77,
      "start": 10.5515,
      "duration": 0.1004,
      "velocity": 97,
      "chip": "ym2612"
    },
    {
      "channel": 0,
      "note": 65,
      "start": 10.6515,
      "duration": 0.0998,
      "velocity": 113,
      "chip": "ym2612"
    },
    {
      "channel": 1,
      "note": 81,
      "start": 10.652,
      "duration": 0.0999,
      "velocity": 97,
      "chip": "ym2612"
    },
    {
      "channel": 2,
      "note": 71,
      "start": 10.6525,
      "duration": 0.1998,
      "velocity": 102,
      "chip": "ym2612"
    },
    {
      "channel": 3,
      "note": 67,
      "start": 10.6531,
      "duration": 0.1998,
      "velocity": 102,
      "chip": "ym2612"
    },
    {
      "channel": 4,
      "note": 84,
      "start": 10.6537,
      "duration": 0.0988,
      "velocity": 97,
      "chip": "ym2612"
    },
    {
      "channel": 0,
      "note": 65,
      "start": 10.7515,
      "duration": 0.0998,
      "velocity": 113,
      "chip": "ym2612"
    },
    {
      "channel": 1,
      "note": 84,
      "start": 10.752,
      "duration": 0.0999,
      "velocity": 97,
      "chip": "ym2612"
    },
    {
      "channel": 4,
      "note": 79,
      "start": 10.7527,
      "duration": 0.1008,
      "velocity": 97,
      "chip": "ym2612"
    },
    {
      "channel": 0,
      "note": 60,
      "start": 10.8515,
      "duration": 0.1998,
      "velocity": 113,
      "chip": "ym2612"
    },
    {
      "channel": 1,
      "note": 72,
      "start": 10.852,
      "duration": 0.0994,
      "velocity": 97,
      "chip": "ym2612"
    },
    {
      "channel": 2,
      "note": 69,
      "start": 10.8525,
      "duration": 0.1998,
      "velocity": 102,
      "chip": "ym2612"
    },
    {
      "channel": 3,
      "note": 65,
      "start": 10.8531,
      "duration": 0.1998,
      "velocity": 102,
      "chip": "ym2612"
    },
    {
      "channel": 4,
      "note": 81,
      "start": 10.8537,
      "duration": 0.1998,
      "velocity": 97,
      "chip": "ym2612"
    },
    {
      "channel": 1,
      "note": 77,
      "start": 10.9515,
      "duration": 0.1004,
      "velocity": 97,
      "chip": "ym2612"
    },
    {
      "channel": 0,
      "note": 62,
      "start": 11.0515,
      "duration": 0.1998,
      "velocity": 113,
      "chip": "ym2612"
    },
    {
      "channel": 1,
      "note": 81,
      "start": 11.052,
      "duration": 0.0994,
      "velocity": 97,
      "chip": "ym2612"
    },
    {
      "channel": 2,
      "note": 67,
      "start": 11.0525,
      "duration": 0.1998,
      "velocity": 102,
      "chip": "ym2612"
    },
    {
      "channel": 3,
      "note": 64,
      "start": 11.0531,
      "duration": 0.1998,
      "velocity": 102,
      "chip": "ym2612"
    },
    {
      "channel": 4,
      "note": 79,
      "start": 11.0537,
      "duration": 0.3987,
      "velocity": 97,
      "chip": "ym2612"
    },
    {
      "channel": 1,
      "note": 84,
      "start": 11.1515,
      "duration": 0.1003,
      "velocity": 97,
      "chip": "ym2612"
    },
    {
      "channel": 0,
      "note": 55,
      "start": 11.2514,
      "duration": 0.1998,
      "velocity": 113,
      "chip": "ym2612"
    },
    {
      "channel": 1,
      "note": 74,
      "start": 11.252,
      "duration": 0.0993,
      "velocity": 97,
      "chip": "ym2612"
    },
    {
      "channel": 2,
      "note": 67,
      "start": 11.2525,
      "duration": 1.6032,
      "velocity": 102,
      "chip": "ym2612"
    },
    {
      "channel": 3,
      "note": 71,
      "start": 11.2531,
      "duration": 1.6048,
      "velocity": 102,
      "chip": "ym2612"
    },
    {
      "channel": 1,
      "note": 79,
      "start": 11.3515,
      "duration": 0.1003,
      "velocity": 97,
      "chip": "ym2612"
    },
    {
      "channel": 0,
      "note": 55,
      "start": 11.4514,
      "duration": 0.0998,
      "velocity": 113,
      "chip": "ym2612"
    },
    {
      "channel": 1,
      "note": 83,
      "start": 11.4519,
      "duration": 0.0998,
      "velocity": 97,
      "chip": "ym2612"
    },
    {
      "channel": 4,
      "note": 86,
      "start": 11.4526,
      "duration": 0.0998,
      "velocity": 97,
      "chip": "ym2612"
    },
    {
      "channel": 0,
      "note": 55,
      "start": 11.5513,
      "duration": 0.0999,
      "velocity": 113,
      "chip": "ym2612"
    },
    {
      "channel": 1,
      "note": 86,
      "start": 11.5519,
      "duration": 0.0999,
      "velocity": 97,
      "chip": "ym2612"
    },
    {
      "channel": 4,
      "note": 79,
      "start": 11.5526,
      "duration": 0.1031,
      "velocity": 97,
      "chip": "ym2612"
    },
    {
      "channel": 0,
      "note": 50,
      "start": 11.6515,
      "duration": 0.1998,
      "velocity": 113,
      "chip": "ym2612"
    },
    {
      "channel": 1,
      "note": 74,
      "start": 11.652,
      "duration": 0.0994,
      "velocity": 97,
      "chip": "ym2612"
    },
    {
      "channel": 4,
      "note": 81,
      "start": 11.6558,
      "duration": 0.1966,
      "velocity": 97,
      "chip": "ym2612"
    },
    {
      "channel": 1,
      "note": 79,
      "start": 11.7515,
      "duration": 0.1002,
      "velocity": 97,
      "chip": "ym2612"
    },
    {
      "channel": 0,
      "note": 52,
      "start": 11.8514,
      "duration": 0.1997,
      "velocity": 113,
      "chip": "ym2612"
    },
    {
      "channel": 1,
      "note": 83,
      "start": 11.8519,
      "duration": 0.0994,
      "velocity": 97,
      "chip": "ym2612"
    },
    {
      "channel": 4,
      "note": 79,
      "start": 11.8526,
      "duration": 0.3998,
      "velocity": 97,
      "chip": "ym2612"
    },
    {
      "channel": 1,
      "note": 86,
      "start": 11.9514,
      "duration": 0.1003,
      "velocity": 97,
      "chip": "ym2612"
    },
    {
      "channel": 0,
      "note": 55,
      "start": 12.0513,
      "duration": 0.1999,
      "velocity": 113,
      "chip": "ym2612"
    },
    {
      "channel": 1,
      "note": 74,
      "start": 12.0519,
      "duration": 0.0993,
      "velocity": 97,
      "chip": "ym2612"
    },
    {
      "channel": 1,
      "note": 79,
      "start": 12.1514,
      "duration": 0.1003,
      "velocity": 97,
      "chip": "ym2612"
    },
    {
      "channel": 0,
      "note": 55,
      "start": 12.2513,
      "duration": 0.0999,
      "velocity": 113,
      "chip": "ym2612"
    },
    {
      "channel": 1,
      "note": 83,
      "start": 12.2519,
      "duration": 0.0998,
      "velocity": 97,
      "chip": "ym2612"
    },
    {
      "channel": 4,
      "note": 86,
      "start": 12.2526,
      "duration": 0.0998,
      "velocity": 97,
      "chip": "ym2612"
    },
    {
      "channel": 0,
      "note": 55,
      "start": 12.3513,
      "duration": 0.0999,
      "velocity": 113,
      "chip": "ym2612"
    },
    {
      "channel": 1,
      "note": 86,
      "start": 12.3519,
      "duration": 0.0998,
      "velocity": 97,
      "chip": "ym2612"
    },
    {
      "channel": 4,
      "note": 79,
      "start": 12.3526,
      "duration": 0.0998,
      "velocity": 97,
      "chip": "ym2612"
    },
    {
      "channel": 0,
      "note": 50,
      "start": 12.4513,
      "duration": 0.1999,
      "velocity": 113,
      "chip": "ym2612"
    },
    {
      "channel": 1,
      "note": 74,
      "start": 12.4519,
      "duration": 0.0994,
      "velocity": 97,
      "chip": "ym2612"
    },
    {
      "channel": 4,
      "note": 81,
      "start": 12.4526,
      "duration": 0.1998,
      "velocity": 97,
      "chip": "ym2612"
    },
    {
      "channel": 1,
      "note": 79,
      "start": 12.5514,
      "duration": 0.1003,
      "velocity": 97,
      "chip": "ym2612"
    },
    {
      "channel": 0,
      "note": 52,
      "start": 12.6513,
      "duration": 0.2016,
      "velocity": 104,
      "chip": "ym2612"
    },
    {
      "channel": 1,
      "note": 83,
      "start": 12.6519,
      "duration": 0.0994,
      "velocity": 97,
      "chip": "ym2612"
    },
    {
      "channel": 4,
      "note": 79,
      "start": 12.6526,
      "duration": 0.3842,
      "velocity": 97,
      "chip": "ym2612"
    },
    {
      "channel": 1,
      "note": 86,
      "start": 12.7515,
      "duration": 0.102,
      "velocity": 97,
      "chip": "ym2612"
    },
    {
      "channel": 0,
      "note": 60,
      "start": 12.8531,
      "duration": 0.283,
      "velocity": 104,
      "chip": "ym2612"
    },
    {
      "channel": 1,
      "note": 72,
      "start": 12.8537,
      "duration": 0.0825,
      "velocity": 97,
      "chip": "ym2612"
    },
    {
      "channel": 2,
      "note": 76,
      "start": 12.8559,
      "duration": 0.583,
      "velocity": 102,
      "chip": "ym2612"
    },
    {
      "channel": 3,
      "note": 72,
      "start": 12.858,
      "duration": 0.5829,
      "velocity": 102,
      "chip": "ym2612"
    },
    {
      "channel": 1,
      "note": 76,
      "start": 12.9363,
      "duration": 0.0998,
      "velocity": 97,
      "chip": "ym2612"
    },
    {
      "channel": 1,
      "note": 79,
      "start": 13.0362,
      "duration": 0.1004,
      "velocity": 97,
      "chip": "ym2612"
    },
    {
      "channel": 4,
      "note": 84,
      "start": 13.037,
      "duration": 0.1003,
      "velocity": 97,
      "chip": "ym2612"
    },
    {
      "channel": 5,
      "note": 74,
      "start": 13.0392,
      "duration": 0.0987,
      "velocity": 118,
      "chip": "ym2612"
    },
    {
      "channel": 0,
      "note": 60,
      "start": 13.1362,
      "duration": 0.0999,
      "velocity": 104,
      "chip": "ym2612"
    },
    {
      "channel": 1,
      "note": 84,
      "start": 13.1368,
      "duration": 0.0999,
      "velocity": 97,
      "chip": "ym2612"
    },
    {
      "channel": 4,
      "note": 79,
      "start": 13.1374,
      "duration": 0.1031,
      "velocity": 97,
      "chip": "ym2612"
    },
    {
      "channel": 5,
      "note": 74,
      "start": 13.138,
      "duration": 0.1046,
      "velocity": 119,
      "chip": "ym2612"
    },
    {
      "channel": 0,
      "note": 55,
      "start": 13.2363,
      "duration": 0.1998,
      "velocity": 104,
      "chip": "ym2612"
    },
    {
      "channel": 1,
      "note": 72,
      "start": 13.2369,
      "duration": 0.0993,
      "velocity": 97,
      "chip": "ym2612"
    },
    {
      "channel": 4,
      "note": 81,
      "start": 13.2407,
      "duration": 0.2008,
      "velocity": 97,
      "chip": "ym2612"
    },
    {
      "channel": 5,
      "note": 55,
      "start": 13.2428,
      "duration": 0.2009,
      "velocity": 118,
      "chip": "ym2612"
    },
    {
      "channel": 1,
      "note": 76,
      "start": 13.3363,
      "duration": 0.1003,
      "velocity": 97,
      "chip": "ym2612"
    },
    {
      "channel": 0,
      "note": 57,
      "start": 13.4363,
      "duration": 0.1998,
      "velocity": 104,
      "chip": "ym2612"
    },
    {
      "channel": 1,
      "note": 79,
      "start": 13.4369,
      "duration": 0.0993,
      "velocity": 97,
      "chip": "ym2612"
    },
    {
      "channel": 2,
      "note": 76,
      "start": 13.439,
      "duration": 0.0978,
      "velocity": 102,
      "chip": "ym2612"
    },
    {
      "channel": 3,
      "note": 72,
      "start": 13.4411,
      "duration": 0.0962,
      "velocity": 102,
      "chip": "ym2612"
    },
    {
      "channel": 4,
      "note": 79,
      "start": 13.4417,
      "duration": 0.3808,
      "velocity": 97,
      "chip": "ym2612"
    },
    {
      "channel": 5,
      "note": 74,
      "start": 13.4439,
      "duration": 0.0941,
      "velocity": 118,
      "chip": "ym2612"
    },
    {
      "channel": 1,
      "note": 84,
      "start": 13.5363,
      "duration": 0.1003,
      "velocity": 97,
      "chip": "ym2612"
    },
    {
      "channel": 2,
      "note": 76,
      "start": 13.5369,
      "duration": 0.1002,
      "velocity": 102,
      "chip": "ym2612"
    },
    {
      "channel": 3,
      "note": 72,
      "start": 13.5375,
      "duration": 0.1002,
      "velocity": 102,
      "chip": "ym2612"
    },
    {
      "channel": 5,
      "note": 74,
      "start": 13.5381,
      "duration": 0.285,
      "velocity": 118,
      "chip": "ym2612"
    },
    {
      "channel": 0,
      "note": 60,
      "start": 13.6363,
      "duration": 0.2845,
      "velocity": 104,
      "chip": "ym2612"
    },
    {
      "channel": 1,
      "note": 72,
      "start": 13.6368,
      "duration": 0.0841,
      "velocity": 97,
      "chip": "ym2612"
    },
    {
      "channel": 2,
      "note": 77,
      "start": 13.6374,
      "duration": 0.184,
      "velocity": 102,
      "chip": "ym2612"
    },
    {
      "channel": 3,
      "note": 74,
      "start": 13.6379,
      "duration": 0.184,
      "velocity": 102,
      "chip": "ym2612"
    },
    {
      "channel": 1,
      "note": 76,
      "start": 13.721,
      "duration": 0.0999,
      "velocity": 97,
      "chip": "ym2612"
    },
    {
      "channel": 1,
      "note": 79,
      "start": 13.821,
      "duration": 0.1004,
      "velocity": 97,
      "chip": "ym2612"
    },
    {
      "channel": 2,
      "note": 76,
      "start": 13.8216,
      "duration": 0.2004,
      "velocity": 102,
      "chip": "ym2612"
    },
    {
      "channel": 3,
      "note": 72,
      "start": 13.8221,
      "duration": 0.2003,
      "velocity": 102,
      "chip": "ym2612"
    },
    {
      "channel": 4,
      "note": 84,
      "start": 13.8227,
      "duration": 0.0993,
      "velocity": 97,
      "chip": "ym2612"
    },
    {
      "channel": 5,
      "note": 74,
      "start": 13.8233,
      "duration": 0.0993,
      "velocity": 118,
      "chip": "ym2612"
    },
    {
      "channel": 0,
      "note": 60,
      "start": 13.921,
      "duration": 0.0998,
      "velocity": 104,
      "chip": "ym2612"
    },
    {
      "channel": 1,
      "note": 84,
      "start": 13.9215,
      "duration": 0.0999,
      "velocity": 97,
      "chip": "ym2612"
    },
    {
      "channel": 4,
      "note": 79,
      "start": 13.9222,
      "duration": 0.1008,
      "velocity": 97,
      "chip": "ym2612"
    },
    {
      "channel": 5,
      "note": 74,
      "start": 13.9228,
      "duration": 0.1024,
      "velocity": 119,
      "chip": "ym2612"
    },
    {
      "channel": 0,
      "note": 55,
      "start": 14.021,
      "duration": 0.1998,
      "velocity": 104,
      "chip": "ym2612"
    },
    {
      "channel": 1,
      "note": 72,
      "start": 14.0216,
      "duration": 0.0993,
      "velocity": 97,
      "chip": "ym2612"
    },
    {
      "channel": 2,
      "note": 74,
      "start": 14.0221,
      "duration": 0.1999,
      "velocity": 102,
      "chip": "ym2612"
    },
    {
      "channel": 3,
      "note": 71,
      "start": 14.0226,
      "duration": 0.1998,
      "velocity": 102,
      "chip": "ym2612"
    },
    {
      "channel": 4,
      "note": 81,
      "start": 14.0232,
      "duration": 0.1998,
      "velocity": 97,
      "chip": "ym2612"
    },
    {
      "channel": 5,
      "note": 55,
      "start": 14.0254,
      "duration": 0.1998,
      "velocity": 118,
      "chip": "ym2612"
    },
    {
      "channel": 1,
      "note": 76,
      "start": 14.121,
      "duration": 0.1003,
      "velocity": 97,
      "chip": "ym2612"
    },
    {
      "channel": 0,
      "note": 57,
      "start": 14.221,
      "duration": 0.1998,
      "velocity": 104,
      "chip": "ym2612"
    },
    {
      "channel": 1,
      "note": 79,
      "start": 14.2216,
      "duration": 0.0993,
      "velocity": 97,
      "chip": "ym2612"
    },
    {
      "channel": 2,
      "note": 72,
      "start": 14.2221,
      "duration": 0.1998,
      "velocity": 102,
      "chip": "ym2612"
    },
    {
      "channel": 3,
      "note": 69,
      "start": 14.2226,
      "duration": 0.1998,
      "velocity": 102,
      "chip": "ym2612"
    },
    {
      "channel": 4,
      "note": 79,
      "start": 14.2232,
      "duration": 0.3829,
      "velocity": 97,
      "chip": "ym2612"
    },
    {
      "channel": 5,
      "note": 74,
      "start": 14.2254,
      "duration": 0.0963,
      "velocity": 118,
      "chip": "ym2612"
    },
    {
      "channel": 1,
      "note": 84,
      "start": 14.321,
      "duration": 0.1003,
      "velocity": 97,
      "chip": "ym2612"
    },
    {
      "channel": 5,
      "note": 74,
      "start": 14.3218,
      "duration": 0.2849,
      "velocity": 118,
      "chip": "ym2612"
    },
    {
      "channel": 0,
      "note": 55,
      "start": 14.421,
      "duration": 0.2845,
      "velocity": 104,
      "chip": "ym2612"
    },
    {
      "channel": 1,
      "note": 74,
      "start": 14.4215,
      "duration": 0.084,
      "velocity": 97,
      "chip": "ym2612"
    },
    {
      "channel": 2,
      "note": 74,
      "start": 14.4221,
      "duration": 0.2846,
      "velocity": 102,
      "chip": "ym2612"
    },
    {
      "channel": 3,
      "note": 71,
      "start": 14.4226,
      "duration": 0.2845,
      "velocity": 102,
      "chip": "ym2612"
    },
    {
      "channel": 1,
      "note": 79,
      "start": 14.5056,
      "duration": 0.0998,
      "velocity": 97,
      "chip": "ym2612"
    },
    {
      "channel": 1,
      "note": 83,
      "start": 14.6056,
      "duration": 0.1004,
      "velocity": 97,
      "chip": "ym2612"
    },
    {
      "channel": 4,
      "note": 79,
      "start": 14.6063,
      "duration": 0.1014,
      "velocity": 97,
      "chip": "ym2612"
    },
    {
      "channel": 5,
      "note": 74,
      "start": 14.6069,
      "duration": 0.1013,
      "velocity": 118,
      "chip": "ym2612"
    },
    {
      "channel": 0,
      "note": 55,
      "start": 14.7056,
      "duration": 0.0998,
      "velocity": 104,
      "chip": "ym2612"
    },
    {
      "channel": 1,
      "note": 86,
      "start": 14.7062,
      "duration": 0.0998,
      "velocity": 97,
      "chip": "ym2612"
    },
    {
      "channel": 2,
      "note": 67,
      "start": 14.7067,
      "duration": 0.0999,
      "velocity": 102,
      "chip": "ym2612"
    },
    {
      "channel": 3,
      "note": 62,
      "start": 14.7073,
      "duration": 0.0998,
      "velocity": 102,
      "chip": "ym2612"
    },
    {
      "channel": 4,
      "note": 74,
      "start": 14.7079,
      "duration": 0.0998,
      "velocity": 97,
      "chip": "ym2612"
    },
    {
      "channel": 5,
      "note": 74,
      "start": 14.7085,
      "duration": 0.1014,
      "velocity": 119,
      "chip": "ym2612"
    },
    {
      "channel": 0,
      "note": 50,
      "start": 14.8056,
      "duration": 0.1998,
      "velocity": 104,
      "chip": "ym2612"
    },
    {
      "channel": 1,
      "note": 74,
      "start": 14.8062,
      "duration": 0.0993,
      "velocity": 97,
      "chip": "ym2612"
    },
    {
      "channel": 2,
      "note": 67,
      "start": 14.8067,
      "duration": 1.1857,
      "velocity": 102,
      "chip": "ym2612"
    },
    {
      "channel": 3,
      "note": 62,
      "start": 14.8073,
      "duration": 1.1873,
      "velocity": 102,
      "chip": "ym2612"
    },
    {
      "channel": 4,
      "note": 76,
      "start": 14.8079,
      "duration": 0.1988,
      "velocity": 97,
      "chip": "ym2612"
    },
    {
      "channel": 5,
      "note": 55,
      "start": 14.81,
      "duration": 0.1987,
      "velocity": 118,
      "chip": "ym2612"
    },
    {
      "channel": 1,
      "note": 79,
      "start": 14.9057,
      "duration": 0.1002,
      "velocity": 97,
      "chip": "ym2612"
    },
    {
      "channel": 0,
      "note": 52,
      "start": 15.0056,
      "duration": 0.1999,
      "velocity": 104,
      "chip": "ym2612"
    },
    {
      "channel": 1,
      "note": 83,
      "start": 15.0062,
      "duration": 0.0993,
      "velocity": 97,
      "chip": "ym2612"
    },
    {
      "channel": 4,
      "note": 74,
      "start": 15.0068,
      "duration": 0.3837,
      "velocity": 97,
      "chip": "ym2612"
    },
    {
      "channel": 5,
      "note": 74,
      "start": 15.009,
      "duration": 0.0973,
      "velocity": 118,
      "chip": "ym2612"
    },
    {
      "channel": 1,
      "note": 86,
      "start": 15.1056,
      "duration": 0.1004,
      "velocity": 97,
      "chip": "ym2612"
    },
    {
      "channel": 5,
      "note": 74,
      "start": 15.1064,
      "duration": 0.2847,
      "velocity": 118,
      "chip": "ym2612"
    },
    {
      "channel": 0,
      "note": 55,
      "start": 15.2056,
      "duration": 0.2841,
      "velocity": 104,
      "chip": "ym2612"
    },
    {
      "channel": 1,
      "note": 74,
      "start": 15.2062,
      "duration": 0.0837,
      "velocity": 97,
      "chip": "ym2612"
    },
    {
      "channel": 1,
      "note": 79,
      "start": 15.29,
      "duration": 0.0998,
      "velocity": 97,
      "chip": "ym2612"
    },
    {
      "channel": 1,
      "note": 83,
      "start": 15.39,
      "duration": 0.1003,
      "velocity": 97,
      "chip": "ym2612"
    },
    {
      "channel": 4,
      "note": 79,
      "start": 15.3906,
      "duration": 0.1004,
      "velocity": 97,
      "chip": "ym2612"
    },
    {
      "channel": 5,
      "note": 74,
      "start": 15.3913,
      "duration": 0.1003,
      "velocity": 118,
      "chip": "ym2612"
    },
    {
      "channel": 0,
      "note": 55,
      "start": 15.4899,
      "duration": 0.0999,
      "velocity": 104,
      "chip": "ym2612"
    },
    {
      "channel": 1,
      "note": 86,
      "start": 15.4905,
      "duration": 0.0998,
      "velocity": 97,
      "chip": "ym2612"
    },
    {
      "channel": 4,
      "note": 74,
      "start": 15.4911,
      "duration": 0.0999,
      "velocity": 97,
      "chip": "ym2612"
    },
    {
      "channel": 5,
      "note": 74,
      "start": 15.4917,
      "duration": 0.1014,
      "velocity": 119,
      "chip": "ym2612"
    },
    {
      "channel": 0,
      "note": 57,
      "start": 15.5899,
      "duration": 0.1998,
      "velocity": 104,
      "chip": "ym2612"
    },
    {
      "channel": 1,
      "note": 74,
      "start": 15.5905,
      "duration": 0.0993,
      "velocity": 97,
      "chip": "ym2612"
    },
    {
      "channel": 4,
      "note": 76,
      "start": 15.5911,
      "duration": 0.1999,
      "velocity": 97,
      "chip": "ym2612"
    },
    {
      "channel": 5,
      "note": 55,
      "start": 15.5933,
      "duration": 0.1998,
      "velocity": 118,
      "chip": "ym2612"
    },
    {
      "channel": 1,
      "note": 79,
      "start": 15.69,
      "duration": 0.1003,
      "velocity": 97,
      "chip": "ym2612"
    },
    {
      "channel": 0,
      "note": 55,
      "start": 15.7899,
      "duration": 0.1999,
      "velocity": 104,
      "chip": "ym2612"
    },
    {
      "channel": 1,
      "note": 83,
      "start": 15.7905,
      "duration": 0.0993,
      "velocity": 97,
      "chip": "ym2612"
    },
    {
      "channel": 4,
      "note": 74,
      "start": 15.7911,
      "duration": 0.3843,
      "velocity": 97,
      "chip": "ym2612"
    },
    {
      "channel": 5,
      "note": 74,
      "start": 15.7933,
      "duration": 0.0973,
      "velocity": 118,
      "chip": "ym2612"
    },
    {
      "channel": 1,
      "note": 86,
      "start": 15.89,
      "duration": 0.1004,
      "velocity": 97,
      "chip": "ym2612"
    },
    {
      "channel": 5,
      "note": 74,
      "start": 15.8907,
      "duration": 0.2853,
      "velocity": 118,
      "chip": "ym2612"
    },
    {
      "channel": 0,
      "note": 57,
      "start": 15.99,
      "duration": 0.2848,
      "velocity": 104,
      "chip": "ym2612"
    },
    {
      "channel": 1,
      "note": 72,
      "start": 15.9905,
      "duration": 0.0844,
      "velocity": 97,
      "chip": "ym2612"
    },
    {
      "channel": 2,
      "note": 72,
      "start": 15.9927,
      "duration": 0.5849,
      "velocity": 102,
      "chip": "ym2612"
    },
    {
      "channel": 3,
      "note": 69,
      "start": 15.9948,
      "duration": 0.5848,
      "velocity": 102,
      "chip": "ym2612"
    },
    {
      "channel": 1,
      "note": 76,
      "start": 16.075,
      "duration": 0.0998,
      "velocity": 97,
      "chip": "ym2612"
    },
    {
      "channel": 1,
      "note": 81,
      "start": 16.1749,
      "duration": 0.1004,
      "velocity": 97,
      "chip": "ym2612"
    },
    {
      "channel": 4,
      "note": 84,
      "start": 16.1756,
      "duration": 0.1004,
      "velocity": 97,
      "chip": "ym2612"
    },
    {
      "channel": 5,
      "note": 74,
      "start": 16.1763,
      "duration": 0.1003,
      "velocity": 118,
      "chip": "ym2612"
    },
    {
      "channel": 0,
      "note": 57,
      "start": 16.2749,
      "duration": 0.0999,
      "velocity": 104,
      "chip": "ym2612"
    },
    {
      "channel": 1,
      "note": 84,
      "start": 16.2755,
      "duration": 0.0999,
      "velocity": 97,
      "chip": "ym2612"
    },
    {
      "channel": 4,
      "note": 79,
      "start": 16.2761,
      "duration": 0.1031,
      "velocity": 97,
      "chip": "ym2612"
    },
    {
      "channel": 5,
      "note": 74,
      "start": 16.2767,
      "duration": 0.1046,
      "velocity": 119,
      "chip": "ym2612"
    },
    {
      "channel": 0,
      "note": 52,
      "start": 16.375,
      "duration": 0.1998,
      "velocity": 104,
      "chip": "ym2612"
    },
    {
      "channel": 1,
      "note": 72,
      "start": 16.3756,
      "duration": 0.0993,
      "velocity": 97,
      "chip": "ym2612"
    },
    {
      "channel": 4,
      "note": 81,
      "start": 16.3794,
      "duration": 0.2008,
      "velocity": 97,
      "chip": "ym2612"
    },
    {
      "channel": 5,
      "note": 55,
      "start": 16.3815,
      "duration": 0.2009,
      "velocity": 118,
      "chip": "ym2612"
    },
    {
      "channel": 1,
      "note": 76,
      "start": 16.4751,
      "duration": 0.1003,
      "velocity": 97,
      "chip": "ym2612"
    },
    {
      "channel": 0,
      "note": 55,
      "start": 16.575,
      "duration": 0.1998,
      "velocity": 104,
      "chip": "ym2612"
    },
    {
      "channel": 1,
      "note": 81,
      "start": 16.5756,
      "duration": 0.0993,
      "velocity": 97,
      "chip": "ym2612"
    },
    {
      "channel": 2,
      "note": 72,
      "start": 16.5777,
      "duration": 0.0978,
      "velocity": 102,
      "chip": "ym2612"
    },
    {
      "channel": 3,
      "note": 69,
      "start": 16.5798,
      "duration": 0.0962,
      "velocity": 102,
      "chip": "ym2612"
    },
    {
      "channel": 4,
      "note": 79,
      "start": 16.5804,
      "duration": 0.3807,
      "velocity": 97,
      "chip": "ym2612"
    },
    {
      "channel": 5,
      "note": 74,
      "start": 16.5826,
      "duration": 0.0941,
      "velocity": 118,
      "chip": "ym2612"
    },
    {
      "channel": 1,
      "note": 84,
      "start": 16.6751,
      "duration": 0.1002,
      "velocity": 97,
      "chip": "ym2612"
    },
    {
      "channel": 2,
      "note": 72,
      "start": 16.6756,
      "duration": 0.1002,
      "velocity": 102,
      "chip": "ym2612"
    },
    {
      "channel": 3,
      "note": 69,
      "start": 16.6761,
      "duration": 0.1003,
      "velocity": 102,
      "chip": "ym2612"
    },
    {
      "channel": 5,
      "note": 74,
      "start": 16.6768,
      "duration": 0.285,
      "velocity": 118,
      "chip": "ym2612"
    },
    {
      "channel": 0,
      "note": 57,
      "start": 16.7749,
      "duration": 0.2845,
      "velocity": 104,
      "chip": "ym2612"
    },
    {
      "channel": 1,
      "note": 72,
      "start": 16.7755,
      "duration": 0.084,
      "velocity": 97,
      "chip": "ym2612"
    },
    {
      "channel": 2,
      "note": 74,
      "start": 16.7761,
      "duration": 0.1839,
      "velocity": 102,
      "chip": "ym2612"
    },
    {
      "channel": 3,
      "note": 71,
      "start": 16.7766,
      "duration": 0.1839,
      "velocity": 102,
      "chip": "ym2612"
    },
    {
      "channel": 1,
      "note": 76,
      "start": 16.8596,
      "duration": 0.0999,
      "velocity": 97,
      "chip": "ym2612"
    },
    {
      "channel": 1,
      "note": 81,
      "start": 16.9596,
      "duration": 0.1004,
      "velocity": 97,
      "chip": "ym2612"
    },
    {
      "channel": 2,
      "note": 72,
      "start": 16.9602,
      "duration": 0.2004,
      "velocity": 102,
      "chip": "ym2612"
    },
    {
      "channel": 3,
      "note": 69,
      "start": 16.9607,
      "duration": 0.2003,
      "velocity": 102,
      "chip": "ym2612"
    },
    {
      "channel": 4,
      "note": 84,
      "start": 16.9613,
      "duration": 0.0993,
      "velocity": 97,
      "chip": "ym2612"
    },
    {
      "channel": 5,
      "note": 74,
      "start": 16.962,
      "duration": 0.0993,
      "velocity": 118,
      "chip": "ym2612"
    },
    {
      "channel": 0,
      "note": 57,
      "start": 17.0596,
      "duration": 0.0998,
      "velocity": 104,
      "chip": "ym2612"
    },
    {
      "channel": 1,
      "note": 84,
      "start": 17.0601,
      "duration": 0.0999,
      "velocity": 97,
      "chip": "ym2612"
    },
    {
      "channel": 4,
      "note": 79,
      "start": 17.0608,
      "duration": 0.1008,
      "velocity": 97,
      "chip": "ym2612"
    },
    {
      "channel": 5,
      "note": 74,
      "start": 17.0614,
      "duration": 0.1024,
      "velocity": 119,
      "chip": "ym2612"
    },
    {
      "channel": 0,
      "note": 52,
      "start": 17.1596,
      "duration": 0.1998,
      "velocity": 104,
      "chip": "ym2612"
    },
    {
      "channel": 1,
      "note": 72,
      "start": 17.1602,
      "duration": 0.0993,
      "velocity": 97,
      "chip": "ym2612"
    },
    {
      "channel": 2,
      "note": 74,
      "start": 17.1607,
      "duration": 0.1999,
      "velocity": 102,
      "chip": "ym2612"
    },
    {
      "channel": 3,
      "note": 71,
      "start": 17.1612,
      "duration": 0.1998,
      "velocity": 102,
      "chip": "ym2612"
    },
    {
      "channel": 4,
      "note": 81,
      "start": 17.1618,
      "duration": 0.1998,
      "velocity": 97,
      "chip": "ym2612"
    },
    {
      "channel": 5,
      "note": 55,
      "start": 17.164,
      "duration": 0.1998,
      "velocity": 118,
      "chip": "ym2612"
    },
    {
      "channel": 1,
      "note": 76,
      "start": 17.2597,
      "duration": 0.1003,
      "velocity": 97,
      "chip": "ym2612"
    },
    {
      "channel": 0,
      "note": 50,
      "start": 17.3596,
      "duration": 0.1998,
      "velocity": 104,
      "chip": "ym2612"
    },
    {
      "channel": 1,
      "note": 81,
      "start": 17.3602,
      "duration": 0.0993,
      "velocity": 97,
      "chip": "ym2612"
    },
    {
      "channel": 2,
      "note": 72,
      "start": 17.3607,
      "duration": 0.1998,
      "velocity": 102,
      "chip": "ym2612"
    },
    {
      "channel": 3,
      "note": 69,
      "start": 17.3612,
      "duration": 0.1998,
      "velocity": 102,
      "chip": "ym2612"
    },
    {
      "channel": 4,
      "note": 79,
      "start": 17.3618,
      "duration": 0.3828,
      "velocity": 97,
      "chip": "ym2612"
    },
    {
      "channel": 5,
      "note": 74,
      "start": 17.364,
      "duration": 0.0963,
      "velocity": 118,
      "chip": "ym2612"
    },
    {
      "channel": 1,
      "note": 84,
      "start": 17.4597,
      "duration": 0.1002,
      "velocity": 97,
      "chip": "ym2612"
    },
    {
      "channel": 5,
      "note": 74,
      "start": 17.4604,
      "duration": 0.2849,
      "velocity": 118,
      "chip": "ym2612"
    },
    {
      "channel": 0,
      "note": 52,
      "start": 17.5595,
      "duration": 0.2845,
      "velocity": 104,
      "chip": "ym2612"
    },
    {
      "channel": 1,
      "note": 71,
      "start": 17.5601,
      "duration": 0.084,
      "velocity": 97,
      "chip": "ym2612"
    },
    {
      "channel": 2,
      "note": 76,
      "start": 17.5607,
      "duration": 0.2845,
      "velocity": 102,
      "chip": "ym2612"
    },
    {
      "channel": 3,
      "note": 71,
      "start": 17.5612,
      "duration": 0.2844,
      "velocity": 102,
      "chip": "ym2612"
    },
    {
      "channel": 1,
      "note": 76,
      "start": 17.6443,
      "duration": 0.0998,
      "velocity": 97,
      "chip": "ym2612"
    },
    {
      "channel": 1,
      "note": 79,
      "start": 17.7441,
      "duration": 0.1004,
      "velocity": 97,
      "chip": "ym2612"
    },
    {
      "channel": 4,
      "note": 83,
      "start": 17.7449,
      "duration": 0.1014,
      "velocity": 97,
      "chip": "ym2612"
    },
    {
      "channel": 5,
      "note": 74,
      "start": 17.7455,
      "duration": 0.1013,
      "velocity": 118,
      "chip": "ym2612"
    },
    {
      "channel": 0,
      "note": 52,
      "start": 17.8442,
      "duration": 0.0998,
      "velocity": 104,
      "chip": "ym2612"
    },
    {
      "channel": 1,
      "note": 83,
      "start": 17.8448,
      "duration": 0.0998,
      "velocity": 97,
      "chip": "ym2612"
    },
    {
      "channel": 2,
      "note": 71,
      "start": 17.8453,
      "duration": 0.0999,
      "velocity": 102,
      "chip": "ym2612"
    },
    {
      "channel": 3,
      "note": 67,
      "start": 17.8459,
      "duration": 0.0998,
      "velocity": 102,
      "chip": "ym2612"
    },
    {
      "channel": 4,
      "note": 79,
      "start": 17.8464,
      "duration": 0.0998,
      "velocity": 97,
      "chip": "ym2612"
    },
    {
      "channel": 5,
      "note": 74,
      "start": 17.847,
      "duration": 0.1014,
      "velocity": 119,
      "chip": "ym2612"
    },
    {
      "channel": 0,
      "note": 47,
      "start": 17.9442,
      "duration": 0.1998,
      "velocity": 104,
      "chip": "ym2612"
    },
    {
      "channel": 1,
      "note": 71,
      "start": 17.9448,
      "duration": 0.0993,
      "velocity": 97,
      "chip": "ym2612"
    },
    {
      "channel": 2,
      "note": 71,
      "start": 17.9453,
      "duration": 1.1859,
      "velocity": 102,
      "chip": "ym2612"
    },
    {
      "channel": 3,
      "note": 67,
      "start": 17.9459,
      "duration": 1.1875,
      "velocity": 102,
      "chip": "ym2612"
    },
    {
      "channel": 4,
      "note": 81,
      "start": 17.9464,
      "duration": 0.1988,
      "velocity": 97,
      "chip": "ym2612"
    },
    {
      "channel": 5,
      "note": 55,
      "start": 17.9486,
      "duration": 0.1987,
      "velocity": 118,
      "chip": "ym2612"
    },
    {
      "channel": 1,
      "note": 76,
      "start": 18.0443,
      "duration": 0.1002,
      "velocity": 97,
      "chip": "ym2612"
    },
    {
      "channel": 0,
      "note": 50,
      "start": 18.1441,
      "duration": 0.1999,
      "velocity": 104,
      "chip": "ym2612"
    },
    {
      "channel": 1,
      "note": 79,
      "start": 18.1447,
      "duration": 0.0993,
      "velocity": 97,
      "chip": "ym2612"
    },
    {
      "channel": 4,
      "note": 79,
      "start": 18.1454,
      "duration": 0.3836,
      "velocity": 97,
      "chip": "ym2612"
    },
    {
      "channel": 5,
      "note": 74,
      "start": 18.1475,
      "duration": 0.0973,
      "velocity": 118,
      "chip": "ym2612"
    },
    {
      "channel": 1,
      "note": 83,
      "start": 18.2442,
      "duration": 0.1003,
      "velocity": 97,
      "chip": "ym2612"
    },
    {
      "channel": 5,
      "note": 74,
      "start": 18.245,
      "duration": 0.2846,
      "velocity": 118,
      "chip": "ym2612"
    },
    {
      "channel": 0,
      "note": 52,
      "start": 18.3441,
      "duration": 0.2841,
      "velocity": 104,
      "chip": "ym2612"
    },
    {
      "channel": 1,
      "note": 71,
      "start": 18.3447,
      "duration": 0.0837,
      "velocity": 97,
      "chip": "ym2612"
    },
    {
      "channel": 1,
      "note": 76,
      "start": 18.4285,
      "duration": 0.0998,
      "velocity": 97,
      "chip": "ym2612"
    },
    {
      "channel": 1,
      "note": 79,
      "start": 18.5285,
      "duration": 0.1004,
      "velocity": 97,
      "chip": "ym2612"
    },
    {
      "channel": 4,
      "note": 83,
      "start": 18.5292,
      "duration": 0.1004,
      "velocity": 97,
      "chip": "ym2612"
    },
    {
      "channel": 5,
      "note": 74,
      "start": 18.5298,
      "duration": 0.1003,
      "velocity": 118,
      "chip": "ym2612"
    },
    {
      "channel": 0,
      "note": 52,
      "start": 18.6285,
      "duration": 0.0998,
      "velocity": 104,
      "chip": "ym2612"
    },
    {
      "channel": 1,
      "note": 83,
      "start": 18.629,
      "duration": 0.0998,
      "velocity": 97,
      "chip": "ym2612"
    },
    {
      "channel": 4,
      "note": 79,
      "start": 18.6297,
      "duration": 0.0999,
      "velocity": 97,
      "chip": "ym2612"
    },
    {
      "channel": 5,
      "note": 74,
      "start": 18.6302,
      "duration": 0.1014,
      "velocity": 119,
      "chip": "ym2612"
    },
    {
      "channel": 0,
      "note": 47,
      "start": 18.7285,
      "duration": 0.1999,
      "velocity": 104,
      "chip": "ym2612"
    },
    {
      "channel": 1,
      "note": 71,
      "start": 18.729,
      "duration": 0.0993,
      "velocity": 97,
      "chip": "ym2612"
    },
    {
      "channel": 4,
      "note": 81,
      "start": 18.7297,
      "duration": 0.1999,
      "velocity": 97,
      "chip": "ym2612"
    },
    {
      "channel": 5,
      "note": 55,
      "start": 18.7318,
      "duration": 0.1998,
      "velocity": 118,
      "chip": "ym2612"
    },
    {
      "channel": 1,
      "note": 76,
      "start": 18.8285,
      "duration": 0.1003,
      "velocity": 97,
      "chip": "ym2612"
    },
    {
      "channel": 0,
      "note": 50,
      "start": 18.9285,
      "duration": 0.2,
      "velocity": 104,
      "chip": "ym2612"
    },
    {
      "channel": 1,
      "note": 79,
      "start": 18.929,
      "duration": 0.0994,
      "velocity": 97,
      "chip": "ym2612"
    },
    {
      "channel": 4,
      "note": 79,
      "start": 18.9297,
      "duration": 0.3837,
      "velocity": 97,
      "chip": "ym2612"
    },
    {
      "channel": 5,
      "note": 74,
      "start": 18.9318,
      "duration": 0.0973,
      "velocity": 118,
      "chip": "ym2612"
    },
    {
      "channel": 1,
      "note": 83,
      "start": 19.0286,
      "duration": 0.1005,
      "velocity": 97,
      "chip": "ym2612"
    },
    {
      "channel": 5,
      "note": 74,
      "start": 19.0293,
      "duration": 0.2847,
      "velocity": 118,
      "chip": "ym2612"
    },
    {
      "channel": 0,
      "note": 53,
      "start": 19.1286,
      "duration": 0.284,
      "velocity": 104,
      "chip": "ym2612"
    },
    {
      "channel": 1,
      "note": 72,
      "start": 19.1292,
      "duration": 0.0835,
      "velocity": 97,
      "chip": "ym2612"
    },
    {
      "channel": 2,
      "note": 69,
      "start": 19.1314,
      "duration": 0.584,
      "velocity": 102,
      "chip": "ym2612"
    },
    {
      "channel": 3,
      "note": 65,
      "start": 19.1336,
      "duration": 0.584,
      "velocity": 102,
      "chip": "ym2612"
    },
    {
      "channel": 1,
      "note": 77,
      "start": 19.2129,
      "duration": 0.0998,
      "velocity": 97,
      "chip": "ym2612"
    },
    {
      "channel": 1,
      "note": 81,
      "start": 19.3128,
      "duration": 0.1004,
      "velocity": 97,
      "chip": "ym2612"
    },
    {
      "channel": 4,
      "note": 84,
      "start": 19.3136,
      "duration": 0.1003,
      "velocity": 97,
      "chip": "ym2612"
    },
    {
      "channel": 5,
      "note": 74,
      "start": 19.3142,
      "duration": 0.1003,
      "velocity": 118,
      "chip": "ym2612"
    },
    {
      "channel": 0,
      "note": 53,
      "start": 19.4128,
      "duration": 0.0999,
      "velocity": 104,
      "chip": "ym2612"
    },
    {
      "channel": 1,
      "note": 84,
      "start": 19.4134,
      "duration": 0.0999,
      "velocity": 97,
      "chip": "ym2612"
    },
    {
      "channel": 4,
      "note": 79,
      "start": 19.414,
      "duration": 0.1031,
      "velocity": 97,
      "chip": "ym2612"
    },
    {
      "channel": 5,
      "note": 74,
      "start": 19.4146,
      "duration": 0.1046,
      "velocity": 119,
      "chip": "ym2612"
    },
    {
      "channel": 0,
      "note": 48,
      "start": 19.5129,
      "duration": 0.1998,
      "velocity": 104,
      "chip": "ym2612"
    },
    {
      "channel": 1,
      "note": 72,
      "start": 19.5134,
      "duration": 0.0994,
      "velocity": 97,
      "chip": "ym2612"
    },
    {
      "channel": 4,
      "note": 81,
      "start": 19.5173,
      "duration": 0.2008,
      "velocity": 97,
      "chip": "ym2612"
    },
    {
      "channel": 5,
      "note": 55,
      "start": 19.5194,
      "duration": 0.2009,
      "velocity": 118,
      "chip": "ym2612"
    },
    {
      "channel": 1,
      "note": 77,
      "start": 19.6129,
      "duration": 0.1003,
      "velocity": 97,
      "chip": "ym2612"
    },
    {
      "channel": 0,
      "note": 50,
      "start": 19.7129,
      "duration": 0.1998,
      "velocity": 104,
      "chip": "ym2612"
    },
    {
      "channel": 1,
      "note": 81,
      "start": 19.7135,
      "duration": 0.0993,
      "velocity": 97,
      "chip": "ym2612"
    },
    {
      "channel": 2,
      "note": 69,
      "start": 19.7156,
      "duration": 0.0978,
      "velocity": 102,
      "chip": "ym2612"
    },
    {
      "channel": 3,
      "note": 65,
      "start": 19.7177,
      "duration": 0.0962,
      "velocity": 102,
      "chip": "ym2612"
    },
    {
      "channel": 4,
      "note": 77,
      "start": 19.7183,
      "duration": 0.3797,
      "velocity": 97,
      "chip": "ym2612"
    },
    {
      "channel": 5,
      "note": 74,
      "start": 19.7205,
      "duration": 0.0941,
      "velocity": 118,
      "chip": "ym2612"
    },
    {
      "channel": 1,
      "note": 84,
      "start": 19.8129,
      "duration": 0.1003,
      "velocity": 97,
      "chip": "ym2612"
    },
    {
      "channel": 2,
      "note": 71,
      "start": 19.8135,
      "duration": 0.1002,
      "velocity": 102,
      "chip": "ym2612"
    },
    {
      "channel": 3,
      "note": 67,
      "start": 19.8141,
      "duration": 0.1002,
      "velocity": 102,
      "chip": "ym2612"
    },
    {
      "channel": 5,
      "note": 74,
      "start": 19.8147,
      "duration": 0.2839,
      "velocity": 118,
      "chip": "ym2612"
    },
    {
      "channel": 0,
      "note": 53,
      "start": 19.9129,
      "duration": 0.2844,
      "velocity": 104,
      "chip": "ym2612"
    },
    {
      "channel": 1,
      "note": 72,
      "start": 19.9134,
      "duration": 0.0841,
      "velocity": 97,
      "chip": "ym2612"
    },
    {
      "channel": 2,
      "note": 72,
      "start": 19.914,
      "duration": 0.3846,
      "velocity": 102,
      "chip": "ym2612"
    },
    {
      "channel": 3,
      "note": 69,
      "start": 19.9145,
      "duration": 0.3845,
      "velocity": 102,
      "chip": "ym2612"
    },
    {
      "channel": 1,
      "note": 77,
      "start": 19.9976,
      "duration": 0.0998,
      "velocity": 97,
      "chip": "ym2612"
    },
    {
      "channel": 1,
      "note": 81,
      "start": 20.0975,
      "duration": 0.1004,
      "velocity": 97,
      "chip": "ym2612"
    },
    {
      "channel": 4,
      "note": 84,
      "start": 20.0982,
      "duration": 0.1004,
      "velocity": 97,
      "chip": "ym2612"
    },
    {
      "channel": 5,
      "note": 74,
      "start": 20.0989,
      "duration": 0.1003,
      "velocity": 118,
      "chip": "ym2612"
    },
    {
      "channel": 0,
      "note": 53,
      "start": 20.1975,
      "duration": 0.0999,
      "velocity": 104,
      "chip": "ym2612"
    },
    {
      "channel": 1,
      "note": 84,
      "start": 20.1981,
      "duration": 0.0999,
      "velocity": 97,
      "chip": "ym2612"
    },
    {
      "channel": 4,
      "note": 79,
      "start": 20.1987,
      "duration": 0.1009,
      "velocity": 97,
      "chip": "ym2612"
    },
    {
      "channel": 5,
      "note": 74,
      "start": 20.1993,
      "duration": 0.1025,
      "velocity": 119,
      "chip": "ym2612"
    },
    {
      "channel": 0,
      "note": 48,
      "start": 20.2976,
      "duration": 0.1998,
      "velocity": 104,
      "chip": "ym2612"
    },
    {
      "channel": 1,
      "note": 72,
      "start": 20.2982,
      "duration": 0.0993,
      "velocity": 97,
      "chip": "ym2612"
    },
    {
      "channel": 2,
      "note": 74,
      "start": 20.2987,
      "duration": 0.1999,
      "velocity": 102,
      "chip": "ym2612"
    },
    {
      "channel": 3,
      "note": 71,
      "start": 20.2992,
      "duration": 0.1998,
      "velocity": 102,
      "chip": "ym2612"
    },
    {
      "channel": 4,
      "note": 81,
      "start": 20.2998,
      "duration": 0.1998,
      "velocity": 97,
      "chip": "ym2612"
    },
    {
      "channel": 5,
      "note": 55,
      "start": 20.302,
      "duration": 0.1998,
      "velocity": 118,
      "chip": "ym2612"
    },
    {
      "channel": 1,
      "note": 77,
      "start": 20.3976,
      "duration": 0.1003,
      "velocity": 97,
      "chip": "ym2612"
    },
    {
      "channel": 0,
      "note": 50,
      "start": 20.4976,
      "duration": 0.1998,
      "velocity": 104,
      "chip": "ym2612"
    },
    {
      "channel": 1,
      "note": 81,
      "start": 20.4982,
      "duration": 0.0993,
      "velocity": 97,
      "chip": "ym2612"
    },
    {
      "channel": 2,
      "note": 72,
      "start": 20.4987,
      "duration": 0.1998,
      "velocity": 102,
      "chip": "ym2612"
    },
    {
      "channel": 3,
      "note": 69,
      "start": 20.4992,
      "duration": 0.1998,
      "velocity": 102,
      "chip": "ym2612"
    },
    {
      "channel": 4,
      "note": 77,
      "start": 20.4998,
      "duration": 0.3828,
      "velocity": 97,
      "chip": "ym2612"
    },
    {
      "channel": 5,
      "note": 74,
      "start": 20.502,
      "duration": 0.0963,
      "velocity": 118,
      "chip": "ym2612"
    },
    {
      "channel": 1,
      "note": 84,
      "start": 20.5976,
      "duration": 0.1002,
      "velocity": 97,
      "chip": "ym2612"
    },
    {
      "channel": 5,
      "note": 74,
      "start": 20.5984,
      "duration": 0.2849,
      "velocity": 118,
      "chip": "ym2612"
    },
    {
      "channel": 0,
      "note": 48,
      "start": 20.6975,
      "duration": 0.2845,
      "velocity": 104,
      "chip": "ym2612"
    },
    {
      "channel": 1,
      "note": 72,
      "start": 20.6981,
      "duration": 0.084,
      "velocity": 97,
      "chip": "ym2612"
    },
    {
      "channel": 2,
      "note": 76,
      "start": 20.6987,
      "duration": 0.2845,
      "velocity": 102,
      "chip": "ym2612"
    },
    {
      "channel": 3,
      "note": 72,
      "start": 20.6992,
      "duration": 0.2844,
      "velocity": 102,
      "chip": "ym2612"
    },
    {
      "channel": 1,
      "note": 76,
      "start": 20.7822,
      "duration": 0.0998,
      "velocity": 97,
      "chip": "ym2612"
    },
    {
      "channel": 1,
      "note": 79,
      "start": 20.8821,
      "duration": 0.1004,
      "velocity": 97,
      "chip": "ym2612"
    },
    {
      "channel": 4,
      "note": 84,
      "start": 20.8828,
      "duration": 0.1014,
      "velocity": 97,
      "chip": "ym2612"
    },
    {
      "channel": 5,
      "note": 74,
      "start": 20.8835,
      "duration": 0.1013,
      "velocity": 118,
      "chip": "ym2612"
    },
    {
      "channel": 0,
      "note": 48,
      "start": 20.9822,
      "duration": 0.0998,
      "velocity": 104,
      "chip": "ym2612"
    },
    {
      "channel": 1,
      "note": 84,
      "start": 20.9828,
      "duration": 0.0998,
      "velocity": 97,
      "chip": "ym2612"
    },
    {
      "channel": 2,
      "note": 77,
      "start": 20.9833,
      "duration": 0.2999,
      "velocity": 102,
      "chip": "ym2612"
    },
    {
      "channel": 3,
      "note": 74,
      "start": 20.9838,
      "duration": 0.2998,
      "velocity": 102,
      "chip": "ym2612"
    },
    {
      "channel": 4,
      "note": 79,
      "start": 20.9844,
      "duration": 0.0988,
      "velocity": 97,
      "chip": "ym2612"
    },
    {
      "channel": 5,
      "note": 74,
      "start": 20.985,
      "duration": 0.1004,
      "velocity": 119,
      "chip": "ym2612"
    },
    {
      "channel": 0,
      "note": 43,
      "start": 21.0822,
      "duration": 0.1998,
      "velocity": 104,
      "chip": "ym2612"
    },
    {
      "channel": 1,
      "note": 72,
      "start": 21.0828,
      "duration": 0.0992,
      "velocity": 97,
      "chip": "ym2612"
    },
    {
      "channel": 4,
      "note": 81,
      "start": 21.0834,
      "duration": 0.2008,
      "velocity": 97,
      "chip": "ym2612"
    },
    {
      "channel": 5,
      "note": 55,
      "start": 21.0856,
      "duration": 0.2008,
      "velocity": 118,
      "chip": "ym2612"
    },
    {
      "channel": 1,
      "note": 76,
      "start": 21.1822,
      "duration": 0.1004,
      "velocity": 97,
      "chip": "ym2612"
    },
    {
      "channel": 0,
      "note": 45,
      "start": 21.2822,
      "duration": 0.1998,
      "velocity": 104,
      "chip": "ym2612"
    },
    {
      "channel": 1,
      "note": 79,
      "start": 21.2828,
      "duration": 0.0993,
      "velocity": 97,
      "chip": "ym2612"
    },
    {
      "channel": 2,
      "note": 79,
      "start": 21.2833,
      "duration": 0.1998,
      "velocity": 102,
      "chip": "ym2612"
    },
    {
      "channel": 3,
      "note": 76,
      "start": 21.2838,
      "duration": 0.1998,
      "velocity": 102,
      "chip": "ym2612"
    },
    {
      "channel": 4,
      "note": 76,
      "start": 21.2844,
      "duration": 0.3834,
      "velocity": 97,
      "chip": "ym2612"
    },
    {
      "channel": 5,
      "note": 74,
      "start": 21.2866,
      "duration": 0.0963,
      "velocity": 118,
      "chip": "ym2612"
    },
    {
      "channel": 1,
      "note": 84,
      "start": 21.3822,
      "duration": 0.1002,
      "velocity": 97,
      "chip": "ym2612"
    },
    {
      "channel": 5,
      "note": 74,
      "start": 21.383,
      "duration": 0.2854,
      "velocity": 118,
      "chip": "ym2612"
    },
    {
      "channel": 0,
      "note": 45,
      "start": 21.4821,
      "duration": 0.1844,
      "velocity": 104,
      "chip": "ym2612"
    },
    {
      "channel": 1,
      "note": 72,
      "start": 21.4827,
      "duration": 0.084,
      "velocity": 97,
      "chip": "ym2612"
    },
    {
      "channel": 2,
      "note": 72,
      "start": 21.4833,
      "duration": 0.786,
      "velocity": 102,
      "chip": "ym2612"
    },
    {
      "channel": 3,
      "note": 69,
      "start": 21.4838,
      "duration": 0.7876,
      "velocity": 102,
      "chip": "ym2612"
    },
    {
      "channel": 1,
      "note": 76,
      "start": 21.5668,
      "duration": 0.1002,
      "velocity": 97,
      "chip": "ym2612"
    },
    {
      "channel": 0,
      "note": 52,
      "start": 21.6667,
      "duration": 0.1999,
      "velocity": 104,
      "chip": "ym2612"
    },
    {
      "channel": 1,
      "note": 81,
      "start": 21.6673,
      "duration": 0.0993,
      "velocity": 97,
      "chip": "ym2612"
    },
    {
      "channel": 4,
      "note": 84,
      "start": 21.6679,
      "duration": 0.0994,
      "velocity": 97,
      "chip": "ym2612"
    },
    {
      "channel": 5,
      "note": 74,
      "start": 21.6686,
      "duration": 0.0993,
      "velocity": 118,
      "chip": "ym2612"
    },
    {
      "channel": 1,
      "note": 84,
      "start": 21.7668,
      "duration": 0.1004,
      "velocity": 97,
      "chip": "ym2612"
    },
    {
      "channel": 4,
      "note": 79,
      "start": 21.7675,
      "duration": 0.1035,
      "velocity": 97,
      "chip": "ym2612"
    },
    {
      "channel": 5,
      "note": 74,
      "start": 21.7681,
      "duration": 0.1051,
      "velocity": 119,
      "chip": "ym2612"
    },
    {
      "channel": 0,
      "note": 57,
      "start": 21.8668,
      "duration": 0.1998,
      "velocity": 104,
      "chip": "ym2612"
    },
    {
      "channel": 1,
      "note": 72,
      "start": 21.8674,
      "duration": 0.0993,
      "velocity": 97,
      "chip": "ym2612"
    },
    {
      "channel": 4,
      "note": 81,
      "start": 21.8712,
      "duration": 0.1966,
      "velocity": 97,
      "chip": "ym2612"
    },
    {
      "channel": 5,
      "note": 55,
      "start": 21.8733,
      "duration": 0.1966,
      "velocity": 118,
      "chip": "ym2612"
    },
    {
      "channel": 1,
      "note": 76,
      "start": 21.9668,
      "duration": 0.1002,
      "velocity": 97,
      "chip": "ym2612"
    },
    {
      "channel": 0,
      "note": 52,
      "start": 22.0667,
      "duration": 0.1999,
      "velocity": 104,
      "chip": "ym2612"
    },
    {
      "channel": 1,
      "note": 81,
      "start": 22.0673,
      "duration": 0.0993,
      "velocity": 97,
      "chip": "ym2612"
    },
    {
      "channel": 4,
      "note": 76,
      "start": 22.0679,
      "duration": 0.3843,
      "velocity": 97,
      "chip": "ym2612"
    },
    {
      "channel": 5,
      "note": 74,
      "start": 22.0701,
      "duration": 0.0973,
      "velocity": 118,
      "chip": "ym2612"
    },
    {
      "channel": 1,
      "note": 84,
      "start": 22.1668,
      "duration": 0.1004,
      "velocity": 97,
      "chip": "ym2612"
    },
    {
      "channel": 5,
      "note": 74,
      "start": 22.1676,
      "duration": 0.2853,
      "velocity": 118,
      "chip": "ym2612"
    },
    {
      "channel": 0,
      "note": 53,
      "start": 22.2668,
      "duration": 0.2848,
      "velocity": 104,
      "chip": "ym2612"
    },
    {
      "channel": 1,
      "note": 72,
      "start": 22.2673,
      "duration": 0.0844,
      "velocity": 97,
      "chip": "ym2612"
    },
    {
      "channel": 2,
      "note": 69,
      "start": 22.2695,
      "duration": 0.5832,
      "velocity": 102,
      "chip": "ym2612"
    },
    {
      "channel": 3,
      "note": 65,
      "start": 22.2716,
      "duration": 0.5816,
      "velocity": 102,
      "chip": "ym2612"
    },
    {
      "channel": 1,
      "note": 77,
      "start": 22.3518,
      "duration": 0.0998,
      "velocity": 97,
      "chip": "ym2612"
    },
    {
      "channel": 1,
      "note": 81,
      "start": 22.4517,
      "duration": 0.1004,
      "velocity": 97,
      "chip": "ym2612"
    },
    {
      "channel": 4,
      "note": 84,
      "start": 22.4524,
      "duration": 0.1004,
      "velocity": 97,
      "chip": "ym2612"
    },
    {
      "channel": 5,
      "note": 74,
      "start": 22.4531,
      "duration": 0.1003,
      "velocity": 118,
      "chip": "ym2612"
    },
    {
      "channel": 0,
      "note": 53,
      "start": 22.5517,
      "duration": 0.0999,
      "velocity": 104,
      "chip": "ym2612"
    },
    {
      "channel": 1,
      "note": 84,
      "start": 22.5523,
      "duration": 0.0998,
      "velocity": 97,
      "chip": "ym2612"
    },
    {
      "channel": 4,
      "note": 79,
      "start": 22.5529,
      "duration": 0.0999,
      "velocity": 97,
      "chip": "ym2612"
    },
    {
      "channel": 5,
      "note": 74,
      "start": 22.5535,
      "duration": 0.1014,
      "velocity": 119,
      "chip": "ym2612"
    },
    {
      "channel": 0,
      "note": 48,
      "start": 22.6517,
      "duration": 0.1999,
      "velocity": 104,
      "chip": "ym2612"
    },
    {
      "channel": 1,
      "note": 72,
      "start": 22.6523,
      "duration": 0.0993,
      "velocity": 97,
      "chip": "ym2612"
    },
    {
      "channel": 4,
      "note": 81,
      "start": 22.6529,
      "duration": 0.2009,
      "velocity": 97,
      "chip": "ym2612"
    },
    {
      "channel": 5,
      "note": 55,
      "start": 22.6551,
      "duration": 0.2009,
      "velocity": 118,
      "chip": "ym2612"
    },
    {
      "channel": 1,
      "note": 77,
      "start": 22.7518,
      "duration": 0.1004,
      "velocity": 97,
      "chip": "ym2612"
    },
    {
      "channel": 0,
      "note": 50,
      "start": 22.8518,
      "duration": 0.1998,
      "velocity": 104,
      "chip": "ym2612"
    },
    {
      "channel": 1,
      "note": 81,
      "start": 22.8523,
      "duration": 0.0994,
      "velocity": 97,
      "chip": "ym2612"
    },
    {
      "channel": 2,
      "note": 69,
      "start": 22.8529,
      "duration": 0.0994,
      "velocity": 102,
      "chip": "ym2612"
    },
    {
      "channel": 3,
      "note": 65,
      "start": 22.8534,
      "duration": 0.0994,
      "velocity": 102,
      "chip": "ym2612"
    },
    {
      "channel": 4,
      "note": 79,
      "start": 22.854,
      "duration": 0.384,
      "velocity": 97,
      "chip": "ym2612"
    },
    {
      "channel": 5,
      "note": 74,
      "start": 22.8561,
      "duration": 0.0973,
      "velocity": 118,
      "chip": "ym2612"
    },
    {
      "channel": 1,
      "note": 84,
      "start": 22.9519,
      "duration": 0.1003,
      "velocity": 97,
      "chip": "ym2612"
    },
    {
      "channel": 2,
      "note": 71,
      "start": 22.9524,
      "duration": 0.1002,
      "velocity": 102,
      "chip": "ym2612"
    },
    {
      "channel": 3,
      "note": 67,
      "start": 22.9529,
      "duration": 0.1003,
      "velocity": 102,
      "chip": "ym2612"
    },
    {
      "channel": 5,
      "note": 74,
      "start": 22.9536,
      "duration": 0.2851,
      "velocity": 118,
      "chip": "ym2612"
    },
    {
      "channel": 0,
      "note": 53,
      "start": 23.0518,
      "duration": 0.2845,
      "velocity": 104,
      "chip": "ym2612"
    },
    {
      "channel": 1,
      "note": 72,
      "start": 23.0523,
      "duration": 0.084,
      "velocity": 97,
      "chip": "ym2612"
    },
    {
      "channel": 2,
      "note": 72,
      "start": 23.0529,
      "duration": 0.184,
      "velocity": 102,
      "chip": "ym2612"
    },
    {
      "channel": 3,
      "note": 69,
      "start": 23.0534,
      "duration": 0.184,
      "velocity": 102,
      "chip": "ym2612"
    },
    {
      "channel": 1,
      "note": 77,
      "start": 23.1365,
      "duration": 0.0999,
      "velocity": 97,
      "chip": "ym2612"
    },
    {
      "channel": 1,
      "note": 81,
      "start": 23.2365,
      "duration": 0.1004,
      "velocity": 97,
      "chip": "ym2612"
    },
    {
      "channel": 2,
      "note": 71,
      "start": 23.2371,
      "duration": 0.2004,
      "velocity": 102,
      "chip": "ym2612"
    },
    {
      "channel": 3,
      "note": 67,
      "start": 23.2376,
      "duration": 0.2003,
      "velocity": 102,
      "chip": "ym2612"
    },
    {
      "channel": 4,
      "note": 84,
      "start": 23.2382,
      "duration": 0.0993,
      "velocity": 97,
      "chip": "ym2612"
    },
    {
      "channel": 5,
      "note": 74,
      "start": 23.2388,
      "duration": 0.0993,
      "velocity": 118,
      "chip": "ym2612"
    },
    {
      "channel": 0,
      "note": 53,
      "start": 23.3365,
      "duration": 0.0998,
      "velocity": 104,
      "chip": "ym2612"
    },
    {
      "channel": 1,
      "note": 84,
      "start": 23.337,
      "duration": 0.0999,
      "velocity": 97,
      "chip": "ym2612"
    },
    {
      "channel": 4,
      "note": 79,
      "start": 23.3377,
      "duration": 0.1008,
      "velocity": 97,
      "chip": "ym2612"
    },
    {
      "channel": 5,
      "note": 74,
      "start": 23.3383,
      "duration": 0.1024,
      "velocity": 119,
      "chip": "ym2612"
    },
    {
      "channel": 0,
      "note": 57,
      "start": 23.4365,
      "duration": 0.1998,
      "velocity": 104,
      "chip": "ym2612"
    },
    {
      "channel": 1,
      "note": 72,
      "start": 23.4371,
      "duration": 0.0993,
      "velocity": 97,
      "chip": "ym2612"
    },
    {
      "channel": 2,
      "note": 69,
      "start": 23.4376,
      "duration": 0.1999,
      "velocity": 102,
      "chip": "ym2612"
    },
    {
      "channel": 3,
      "note": 65,
      "start": 23.4381,
      "duration": 0.1998,
      "velocity": 102,
      "chip": "ym2612"
    },
    {
      "channel": 4,
      "note": 81,
      "start": 23.4387,
      "duration": 0.1998,
      "velocity": 97,
      "chip": "ym2612"
    },
    {
      "channel": 5,
      "note": 55,
      "start": 23.4409,
      "duration": 0.1998,
      "velocity": 118,
      "chip": "ym2612"
    },
    {
      "channel": 1,
      "note": 77,
      "start": 23.5365,
      "duration": 0.1003,
      "velocity": 97,
      "chip": "ym2612"
    },
    {
      "channel": 0,
      "note": 53,
      "start": 23.6365,
      "duration": 0.1998,
      "velocity": 104,
      "chip": "ym2612"
    },
    {
      "channel": 1,
      "note": 81,
      "start": 23.6371,
      "duration": 0.0993,
      "velocity": 97,
      "chip": "ym2612"
    },
    {
      "channel": 2,
      "note": 67,
      "start": 23.6376,
      "duration": 0.1998,
      "velocity": 102,
      "chip": "ym2612"
    },
    {
      "channel": 3,
      "note": 64,
      "start": 23.6381,
      "duration": 0.1998,
      "velocity": 102,
      "chip": "ym2612"
    },
    {
      "channel": 4,
      "note": 79,
      "start": 23.6387,
      "duration": 0.3828,
      "velocity": 97,
      "chip": "ym2612"
    },
    {
      "channel": 5,
      "note": 74,
      "start": 23.6409,
      "duration": 0.0963,
      "velocity": 118,
      "chip": "ym2612"
    },
    {
      "channel": 1,
      "note": 84,
      "start": 23.7365,
      "duration": 0.1002,
      "velocity": 97,
      "chip": "ym2612"
    },
    {
      "channel": 5,
      "note": 74,
      "start": 23.7373,
      "duration": 0.2849,
      "velocity": 118,
      "chip": "ym2612"
    },
    {
      "channel": 0,
      "note": 55,
      "start": 23.8364,
      "duration": 0.2844,
      "velocity": 104,
      "chip": "ym2612"
    },
    {
      "channel": 1,
      "note": 74,
      "start": 23.837,
      "duration": 0.084,
      "velocity": 97,
      "chip": "ym2612"
    },
    {
      "channel": 2,
      "note": 67,
      "start": 23.8376,
      "duration": 1.5731,
      "velocity": 97,
      "chip": "ym2612"
    },
    {
      "channel": 3,
      "note": 71,
      "start": 23.8381,
      "duration": 1.5746,
      "velocity": 117,
      "chip": "ym2612"
    },
    {
      "channel": 1,
      "note": 79,
      "start": 23.9211,
      "duration": 0.0998,
      "velocity": 97,
      "chip": "ym2612"
    },
    {
      "channel": 1,
      "note": 83,
      "start": 24.021,
      "duration": 0.1004,
      "velocity": 97,
      "chip": "ym2612"
    },
    {
      "channel": 4,
      "note": 86,
      "start": 24.0217,
      "duration": 0.1004,
      "velocity": 97,
      "chip": "ym2612"
    },
    {
      "channel": 5,
      "note": 74,
      "start": 24.0224,
      "duration": 0.1003,
      "velocity": 118,
      "chip": "ym2612"
    },
    {
      "channel": 0,
      "note": 55,
      "start": 24.121,
      "duration": 0.0999,
      "velocity": 104,
      "chip": "ym2612"
    },
    {
      "channel": 1,
      "note": 86,
      "start": 24.1216,
      "duration": 0.0999,
      "velocity": 97,
      "chip": "ym2612"
    },
    {
      "channel": 4,
      "note": 79,
      "start": 24.1222,
      "duration": 0.1031,
      "velocity": 97,
      "chip": "ym2612"
    },
    {
      "channel": 5,
      "note": 74,
      "start": 24.1228,
      "duration": 0.1046,
      "velocity": 119,
      "chip": "ym2612"
    },
    {
      "channel": 0,
      "note": 50,
      "start": 24.2211,
      "duration": 0.1998,
      "velocity": 104,
      "chip": "ym2612"
    },
    {
      "channel": 1,
      "note": 74,
      "start": 24.2217,
      "duration": 0.0993,
      "velocity": 97,
      "chip": "ym2612"
    },
    {
      "channel": 4,
      "note": 81,
      "start": 24.2255,
      "duration": 0.1966,
      "velocity": 97,
      "chip": "ym2612"
    },
    {
      "channel": 5,
      "note": 55,
      "start": 24.2276,
      "duration": 0.1966,
      "velocity": 118,
      "chip": "ym2612"
    },
    {
      "channel": 1,
      "note": 79,
      "start": 24.3211,
      "duration": 0.1002,
      "velocity": 97,
      "chip": "ym2612"
    },
    {
      "channel": 0,
      "note": 52,
      "start": 24.421,
      "duration": 0.1998,
      "velocity": 104,
      "chip": "ym2612"
    },
    {
      "channel": 1,
      "note": 83,
      "start": 24.4216,
      "duration": 0.0993,
      "velocity": 97,
      "chip": "ym2612"
    },
    {
      "channel": 4,
      "note": 79,
      "start": 24.4222,
      "duration": 0.3848,
      "velocity": 97,
      "chip": "ym2612"
    },
    {
      "channel": 5,
      "note": 74,
      "start": 24.4244,
      "duration": 0.0973,
      "velocity": 118,
      "chip": "ym2612"
    },
    {
      "channel": 1,
      "note": 86,
      "start": 24.5211,
      "duration": 0.1003,
      "velocity": 97,
      "chip": "ym2612"
    },
    {
      "channel": 5,
      "note": 74,
      "start": 24.5218,
      "duration": 0.2858,
      "velocity": 118,
      "chip": "ym2612"
    },
    {
      "channel": 0,
      "note": 55,
      "start": 24.621,
      "duration": 0.2853,
      "velocity": 104,
      "chip": "ym2612"
    },
    {
      "channel": 1,
      "note": 74,
      "start": 24.6215,
      "duration": 0.0848,
      "velocity": 97,
      "chip": "ym2612"
    },
    {
      "channel": 1,
      "note": 79,
      "start": 24.7065,
      "duration": 0.0999,
      "velocity": 97,
      "chip": "ym2612"
    },
    {
      "channel": 1,
      "note": 83,
      "start": 24.8065,
      "duration": 0.1003,
      "velocity": 97,
      "chip": "ym2612"
    },
    {
      "channel": 4,
      "note": 86,
      "start": 24.8072,
      "duration": 0.1004,
      "velocity": 97,
      "chip": "ym2612"
    },
    {
      "channel": 5,
      "note": 74,
      "start": 24.8078,
      "duration": 0.1003,
      "velocity": 118,
      "chip": "ym2612"
    },
    {
      "channel": 0,
      "note": 55,
      "start": 24.9065,
      "duration": 0.0998,
      "velocity": 104,
      "chip": "ym2612"
    },
    {
      "channel": 1,
      "note": 86,
      "start": 24.907,
      "duration": 0.0998,
      "velocity": 97,
      "chip": "ym2612"
    },
    {
      "channel": 4,
      "note": 79,
      "start": 24.9077,
      "duration": 0.0999,
      "velocity": 97,
      "chip": "ym2612"
    },
    {
      "channel": 5,
      "note": 74,
      "start": 24.9082,
      "duration": 0.1014,
      "velocity": 119,
      "chip": "ym2612"
    },
    {
      "channel": 0,
      "note": 57,
      "start": 25.0065,
      "duration": 0.1999,
      "velocity": 104,
      "chip": "ym2612"
    },
    {
      "channel": 1,
      "note": 74,
      "start": 25.007,
      "duration": 0.0993,
      "velocity": 97,
      "chip": "ym2612"
    },
    {
      "channel": 4,
      "note": 81,
      "start": 25.0077,
      "duration": 0.1999,
      "velocity": 97,
      "chip": "ym2612"
    },
    {
      "channel": 5,
      "note": 55,
      "start": 25.0098,
      "duration": 0.1998,
      "velocity": 118,
      "chip": "ym2612"
    },
    {
      "channel": 1,
      "note": 79,
      "start": 25.1065,
      "duration": 0.1003,
      "velocity": 97,
      "chip": "ym2612"
    },
    {
      "channel": 0,
      "note": 55,
      "start": 25.2065,
      "duration": 0.1999,
      "velocity": 104,
      "chip": "ym2612"
    },
    {
      "channel": 1,
      "note": 83,
      "start": 25.207,
      "duration": 0.0994,
      "velocity": 97,
      "chip": "ym2612"
    },
    {
      "channel": 4,
      "note": 79,
      "start": 25.2077,
      "duration": 0.2057,
      "velocity": 97,
      "chip": "ym2612"
    },
    {
      "channel": 5,
      "note": 74,
      "start": 25.2098,
      "duration": 0.0973,
      "velocity": 118,
      "chip": "ym2612"
    },
    {
      "channel": 1,
      "note": 86,
      "start": 25.3066,
      "duration": 0.102,
      "velocity": 102,
      "chip": "ym2612"
    },
    {
      "channel": 5,
      "note": 74,
      "start": 25.3073,
      "duration": 0.2875,
      "velocity": 118,
      "chip": "ym2612"
    },
    {
      "channel": 0,
      "note": 60,
      "start": 25.4066,
      "duration": 0.2848,
      "velocity": 104,
      "chip": "ym2612"
    },
    {
      "channel": 1,
      "note": 64,
      "start": 25.4087,
      "duration": 0.1842,
      "velocity": 102,
      "chip": "ym2612"
    },
    {
      "channel": 2,
      "note": 84,
      "start": 25.4108,
      "duration": 0.1827,
      "velocity": 97,
      "chip": "ym2612"
    },
    {
      "channel": 3,
      "note": 100,
      "start": 25.4129,
      "duration": 0.38,
      "velocity": 117,
      "chip": "ym2612"
    },
    {
      "channel": 4,
      "note": 91,
      "start": 25.4136,
      "duration": 0.1805,
      "velocity": 97,
      "chip": "ym2612"
    },
    {
      "channel": 1,
      "note": 64,
      "start": 25.5931,
      "duration": 0.0988,
      "velocity": 102,
      "chip": "ym2612"
    },
    {
      "channel": 2,
      "note": 84,
      "start": 25.5937,
      "duration": 0.0987,
      "velocity": 97,
      "chip": "ym2612"
    },
    {
      "channel": 4,
      "note": 91,
      "start": 25.5943,
      "duration": 0.0988,
      "velocity": 97,
      "chip": "ym2612"
    },
    {
      "channel": 5,
      "note": 74,
      "start": 25.5949,
      "duration": 0.0987,
      "velocity": 118,
      "chip": "ym2612"
    },
    {
      "channel": 0,
      "note": 60,
      "start": 25.6915,
      "duration": 0.0998,
      "velocity": 104,
      "chip": "ym2612"
    },
    {
      "channel": 1,
      "note": 64,
      "start": 25.692,
      "duration": 0.0999,
      "velocity": 102,
      "chip": "ym2612"
    },
    {
      "channel": 2,
      "note": 84,
      "start": 25.6926,
      "duration": 0.0999,
      "velocity": 97,
      "chip": "ym2612"
    },
    {
      "channel": 4,
      "note": 91,
      "start": 25.6932,
      "duration": 0.1003,
      "velocity": 97,
      "chip": "ym2612"
    },
    {
      "channel": 5,
      "note": 74,
      "start": 25.6938,
      "duration": 0.1019,
      "velocity": 119,
      "chip": "ym2612"
    },
    {
      "channel": 0,
      "note": 55,
      "start": 25.7915,
      "duration": 0.1998,
      "velocity": 104,
      "chip": "ym2612"
    },
    {
      "channel": 1,
      "note": 64,
      "start": 25.7921,
      "duration": 0.2013,
      "velocity": 102,
      "chip": "ym2612"
    },
    {
      "channel": 2,
      "note": 84,
      "start": 25.7926,
      "duration": 0.2014,
      "velocity": 97,
      "chip": "ym2612"
    },
    {
      "channel": 3,
      "note": 100,
      "start": 25.7932,
      "duration": 0.3988,
      "velocity": 117,
      "chip": "ym2612"
    },
    {
      "channel": 4,
      "note": 91,
      "start": 25.7938,
      "duration": 0.2009,
      "velocity": 97,
      "chip": "ym2612"
    },
    {
      "channel": 5,
      "note": 55,
      "start": 25.7959,
      "duration": 0.2008,
      "velocity": 118,
      "chip": "ym2612"
    },
    {
      "channel": 0,
      "note": 57,
      "start": 25.9915,
      "duration": 0.1998,
      "velocity": 104,
      "chip": "ym2612"
    },
    {
      "channel": 1,
      "note": 65,
      "start": 25.9936,
      "duration": 0.384,
      "velocity": 102,
      "chip": "ym2612"
    },
    {
      "channel": 2,
      "note": 86,
      "start": 25.9942,
      "duration": 0.384,
      "velocity": 97,
      "chip": "ym2612"
    },
    {
      "channel": 4,
      "note": 93,
      "start": 25.9948,
      "duration": 0.384,
      "velocity": 97,
      "chip": "ym2612"
    },
    {
      "channel": 5,
      "note": 74,
      "start": 25.9969,
      "duration": 0.0964,
      "velocity": 118,
      "chip": "ym2612"
    },
    {
      "channel": 5,
      "note": 74,
      "start": 26.0934,
      "duration": 0.286,
      "velocity": 118,
      "chip": "ym2612"
    },
    {
      "channel": 0,
      "note": 60,
      "start": 26.1915,
      "duration": 0.2846,
      "velocity": 104,
      "chip": "ym2612"
    },
    {
      "channel": 3,
      "note": 100,
      "start": 26.1922,
      "duration": 0.3871,
      "velocity": 117,
      "chip": "ym2612"
    },
    {
      "channel": 1,
      "note": 64,
      "start": 26.3778,
      "duration": 0.2004,
      "velocity": 102,
      "chip": "ym2612"
    },
    {
      "channel": 2,
      "note": 84,
      "start": 26.3783,
      "duration": 0.2004,
      "velocity": 97,
      "chip": "ym2612"
    },
    {
      "channel": 4,
      "note": 91,
      "start": 26.379,
      "duration": 0.2009,
      "velocity": 97,
      "chip": "ym2612"
    },
    {
      "channel": 5,
      "note": 74,
      "start": 26.3796,
      "duration": 0.0989,
      "velocity": 118,
      "chip": "ym2612"
    },
    {
      "channel": 0,
      "note": 60,
      "start": 26.4762,
      "duration": 0.0998,
      "velocity": 104,
      "chip": "ym2612"
    },
    {
      "channel": 5,
      "note": 74,
      "start": 26.4787,
      "duration": 0.1034,
      "velocity": 119,
      "chip": "ym2612"
    },
    {
      "channel": 0,
      "note": 55,
      "start": 26.5762,
      "duration": 0.1998,
      "velocity": 104,
      "chip": "ym2612"
    },
    {
      "channel": 1,
      "note": 62,
      "start": 26.5783,
      "duration": 0.1998,
      "velocity": 102,
      "chip": "ym2612"
    },
    {
      "channel": 2,
      "note": 79,
      "start": 26.5789,
      "duration": 0.1998,
      "velocity": 97,
      "chip": "ym2612"
    },
    {
      "channel": 3,
      "note": 100,
      "start": 26.5795,
      "duration": 0.3998,
      "velocity": 117,
      "chip": "ym2612"
    },
    {
      "channel": 4,
      "note": 89,
      "start": 26.5801,
      "duration": 0.1993,
      "velocity": 97,
      "chip": "ym2612"
    },
    {
      "channel": 5,
      "note": 55,
      "start": 26.5822,
      "duration": 0.1993,
      "velocity": 118,
      "chip": "ym2612"
    },
    {
      "channel": 0,
      "note": 57,
      "start": 26.7762,
      "duration": 0.1998,
      "velocity": 104,
      "chip": "ym2612"
    },
    {
      "channel": 1,
      "note": 60,
      "start": 26.7783,
      "duration": 0.1999,
      "velocity": 102,
      "chip": "ym2612"
    },
    {
      "channel": 2,
      "note": 81,
      "start": 26.7789,
      "duration": 0.1999,
      "velocity": 97,
      "chip": "ym2612"
    },
    {
      "channel": 4,
      "note": 88,
      "start": 26.7795,
      "duration": 0.2004,
      "velocity": 97,
      "chip": "ym2612"
    },
    {
      "channel": 5,
      "note": 74,
      "start": 26.7817,
      "duration": 0.0964,
      "velocity": 118,
      "chip": "ym2612"
    },
    {
      "channel": 5,
      "note": 74,
      "start": 26.8782,
      "duration": 0.2833,
      "velocity": 118,
      "chip": "ym2612"
    },
    {
      "channel": 0,
      "note": 48,
      "start": 26.9762,
      "duration": 0.2848,
      "velocity": 104,
      "chip": "ym2612"
    },
    {
      "channel": 1,
      "note": 64,
      "start": 26.9784,
      "duration": 1.5696,
      "velocity": 102,
      "chip": "ym2612"
    },
    {
      "channel": 2,
      "note": 84,
      "start": 26.9789,
      "duration": 1.5697,
      "velocity": 97,
      "chip": "ym2612"
    },
    {
      "channel": 3,
      "note": 100,
      "start": 26.9795,
      "duration": 0.3823,
      "velocity": 117,
      "chip": "ym2612"
    },
    {
      "channel": 4,
      "note": 91,
      "start": 26.9801,
      "duration": 1.5696,
      "velocity": 97,
      "chip": "ym2612"
    },
    {
      "channel": 5,
      "note": 74,
      "start": 27.1616,
      "duration": 0.1002,
      "velocity": 118,
      "chip": "ym2612"
    },
    {
      "channel": 0,
      "note": 48,
      "start": 27.2612,
      "duration": 0.0999,
      "velocity": 104,
      "chip": "ym2612"
    },
    {
      "channel": 5,
      "note": 74,
      "start": 27.262,
      "duration": 0.1019,
      "velocity": 119,
      "chip": "ym2612"
    },
    {
      "channel": 0,
      "note": 43,
      "start": 27.3613,
      "duration": 0.1997,
      "velocity": 104,
      "chip": "ym2612"
    },
    {
      "channel": 3,
      "note": 100,
      "start": 27.3619,
      "duration": 0.3999,
      "velocity": 117,
      "chip": "ym2612"
    },
    {
      "channel": 5,
      "note": 55,
      "start": 27.3641,
      "duration": 0.1993,
      "velocity": 118,
      "chip": "ym2612"
    },
    {
      "channel": 0,
      "note": 45,
      "start": 27.5612,
      "duration": 0.1999,
      "velocity": 104,
      "chip": "ym2612"
    },
    {
      "channel": 5,
      "note": 74,
      "start": 27.5636,
      "duration": 0.0977,
      "velocity": 118,
      "chip": "ym2612"
    },
    {
      "channel": 5,
      "note": 74,
      "start": 27.6615,
      "duration": 0.2851,
      "velocity": 118,
      "chip": "ym2612"
    },
    {
      "channel": 0,
      "note": 48,
      "start": 27.7613,
      "duration": 0.1844,
      "velocity": 104,
      "chip": "ym2612"
    },
    {
      "channel": 3,
      "note": 100,
      "start": 27.7619,
      "duration": 0.3846,
      "velocity": 117,
      "chip": "ym2612"
    },
    {
      "channel": 0,
      "note": 50,
      "start": 27.9459,
      "duration": 0.1999,
      "velocity": 104,
      "chip": "ym2612"
    },
    {
      "channel": 5,
      "note": 74,
      "start": 27.9468,
      "duration": 0.0992,
      "velocity": 118,
      "chip": "ym2612"
    },
    {
      "channel": 5,
      "note": 74,
      "start": 28.0463,
      "duration": 0.1024,
      "velocity": 119,
      "chip": "ym2612"
    },
    {
      "channel": 0,
      "note": 51,
      "start": 28.146,
      "duration": 0.1997,
      "velocity": 104,
      "chip": "ym2612"
    },
    {
      "channel": 3,
      "note": 100,
      "start": 28.1466,
      "duration": 0.4025,
      "velocity": 117,
      "chip": "ym2612"
    },
    {
      "channel": 5,
      "note": 55,
      "start": 28.1489,
      "duration": 0.1993,
      "velocity": 118,
      "chip": "ym2612"
    },
    {
      "channel": 0,
      "note": 52,
      "start": 28.3459,
      "duration": 0.1999,
      "velocity": 104,
      "chip": "ym2612"
    },
    {
      "channel": 5,
      "note": 74,
      "start": 28.3483,
      "duration": 0.0978,
      "velocity": 118,
      "chip": "ym2612"
    },
    {
      "channel": 5,
      "note": 74,
      "start": 28.4463,
      "duration": 0.2882,
      "velocity": 118,
      "chip": "ym2612"
    },
    {
      "channel": 0,
      "note": 53,
      "start": 28.5461,
      "duration": 0.2849,
      "velocity": 104,
      "chip": "ym2612"
    },
    {
      "channel": 1,
      "note": 69,
      "start": 28.5482,
      "duration": 0.1843,
      "velocity": 102,
      "chip": "ym2612"
    },
    {
      "channel": 2,
      "note": 89,
      "start": 28.5487,
      "duration": 0.1844,
      "velocity": 97,
      "chip": "ym2612"
    },
    {
      "channel": 3,
      "note": 100,
      "start": 28.5493,
      "duration": 0.3833,
      "velocity": 117,
      "chip": "ym2612"
    },
    {
      "channel": 4,
      "note": 96,
      "start": 28.5499,
      "duration": 0.1839,
      "velocity": 97,
      "chip": "ym2612"
    },
    {
      "channel": 1,
      "note": 69,
      "start": 28.7328,
      "duration": 0.0988,
      "velocity": 102,
      "chip": "ym2612"
    },
    {
      "channel": 2,
      "note": 89,
      "start": 28.7333,
      "duration": 0.0987,
      "velocity": 97,
      "chip": "ym2612"
    },
    {
      "channel": 4,
      "note": 96,
      "start": 28.7339,
      "duration": 0.0988,
      "velocity": 97,
      "chip": "ym2612"
    },
    {
      "channel": 5,
      "note": 74,
      "start": 28.7345,
      "duration": 0.0987,
      "velocity": 118,
      "chip": "ym2612"
    },
    {
      "channel": 0,
      "note": 53,
      "start": 28.8312,
      "duration": 0.0998,
      "velocity": 104,
      "chip": "ym2612"
    },
    {
      "channel": 1,
      "note": 69,
      "start": 28.8317,
      "duration": 0.0999,
      "velocity": 102,
      "chip": "ym2612"
    },
    {
      "channel": 2,
      "note": 89,
      "start": 28.8322,
      "duration": 0.0999,
      "velocity": 97,
      "chip": "ym2612"
    },
    {
      "channel": 4,
      "note": 96,
      "start": 28.8329,
      "duration": 0.1003,
      "velocity": 97,
      "chip": "ym2612"
    },
    {
      "channel": 5,
      "note": 74,
      "start": 28.8334,
      "duration": 0.1019,
      "velocity": 119,
      "chip": "ym2612"
    },
    {
      "channel": 0,
      "note": 48,
      "start": 28.9312,
      "duration": 0.1998,
      "velocity": 104,
      "chip": "ym2612"
    },
    {
      "channel": 1,
      "note": 69,
      "start": 28.9317,
      "duration": 0.2013,
      "velocity": 102,
      "chip": "ym2612"
    },
    {
      "channel": 2,
      "note": 89,
      "start": 28.9322,
      "duration": 0.2014,
      "velocity": 97,
      "chip": "ym2612"
    },
    {
      "channel": 3,
      "note": 100,
      "start": 28.9328,
      "duration": 0.3988,
      "velocity": 117,
      "chip": "ym2612"
    },
    {
      "channel": 4,
      "note": 96,
      "start": 28.9334,
      "duration": 0.2009,
      "velocity": 97,
      "chip": "ym2612"
    },
    {
      "channel": 5,
      "note": 55,
      "start": 28.9356,
      "duration": 0.2008,
      "velocity": 118,
      "chip": "ym2612"
    },
    {
      "channel": 0,
      "note": 50,
      "start": 29.1312,
      "duration": 0.1998,
      "velocity": 104,
      "chip": "ym2612"
    },
    {
      "channel": 1,
      "note": 70,
      "start": 29.1333,
      "duration": 0.3842,
      "velocity": 102,
      "chip": "ym2612"
    },
    {
      "channel": 2,
      "note": 91,
      "start": 29.1338,
      "duration": 0.3842,
      "velocity": 97,
      "chip": "ym2612"
    },
    {
      "channel": 4,
      "note": 98,
      "start": 29.1344,
      "duration": 0.3842,
      "velocity": 97,
      "chip": "ym2612"
    },
    {
      "channel": 5,
      "note": 74,
      "start": 29.1366,
      "duration": 0.0964,
      "velocity": 118,
      "chip": "ym2612"
    },
    {
      "channel": 5,
      "note": 74,
      "start": 29.2331,
      "duration": 0.2862,
      "velocity": 118,
      "chip": "ym2612"
    },
    {
      "channel": 0,
      "note": 53,
      "start": 29.3311,
      "duration": 0.2847,
      "velocity": 104,
      "chip": "ym2612"
    },
    {
      "channel": 3,
      "note": 100,
      "start": 29.3318,
      "duration": 0.3847,
      "velocity": 117,
      "chip": "ym2612"
    },
    {
      "channel": 1,
      "note": 69,
      "start": 29.5176,
      "duration": 0.4003,
      "velocity": 102,
      "chip": "ym2612"
    },
    {
      "channel": 2,
      "note": 89,
      "start": 29.5182,
      "duration": 0.4003,
      "velocity": 97,
      "chip": "ym2612"
    },
    {
      "channel": 4,
      "note": 96,
      "start": 29.5188,
      "duration": 0.4004,
      "velocity": 97,
      "chip": "ym2612"
    },
    {
      "channel": 5,
      "note": 74,
      "start": 29.5194,
      "duration": 0.0989,
      "velocity": 118,
      "chip": "ym2612"
    },
    {
      "channel": 0,
      "note": 53,
      "start": 29.616,
      "duration": 0.0998,
      "velocity": 104,
      "chip": "ym2612"
    },
    {
      "channel": 5,
      "note": 74,
      "start": 29.6185,
      "duration": 0.1002,
      "velocity": 119,
      "chip": "ym2612"
    },
    {
      "channel": 0,
      "note": 48,
      "start": 29.716,
      "duration": 0.1999,
      "velocity": 104,
      "chip": "ym2612"
    },
    {
      "channel": 3,
      "note": 100,
      "start": 29.7167,
      "duration": 0.4024,
      "velocity": 117,
      "chip": "ym2612"
    },
    {
      "channel": 5,
      "note": 55,
      "start": 29.7188,
      "duration": 0.2024,
      "velocity": 118,
      "chip": "ym2612"
    },
    {
      "channel": 0,
      "note": 53,
      "start": 29.916,
      "duration": 0.1998,
      "velocity": 104,
      "chip": "ym2612"
    },
    {
      "channel": 1,
      "note": 69,
      "start": 29.9181,
      "duration": 0.1999,
      "velocity": 102,
      "chip": "ym2612"
    },
    {
      "channel": 2,
      "note": 89,
      "start": 29.9187,
      "duration": 0.1999,
      "velocity": 97,
      "chip": "ym2612"
    },
    {
      "channel": 4,
      "note": 96,
      "start": 29.9193,
      "duration": 0.2004,
      "velocity": 97,
      "chip": "ym2612"
    },
    {
      "channel": 5,
      "note": 74,
      "start": 29.9215,
      "duration": 0.0964,
      "velocity": 118,
      "chip": "ym2612"
    },
    {
      "channel": 5,
      "note": 74,
      "start": 30.018,
      "duration": 0.2865,
      "velocity": 118,
      "chip": "ym2612"
    },
    {
      "channel": 0,
      "note": 55,
      "start": 30.116,
      "duration": 0.285,
      "velocity": 104,
      "chip": "ym2612"
    },
    {
      "channel": 1,
      "note": 71,
      "start": 30.1182,
      "duration": 0.1844,
      "velocity": 102,
      "chip": "ym2612"
    },
    {
      "channel": 2,
      "note": 91,
      "start": 30.1187,
      "duration": 0.1844,
      "velocity": 97,
      "chip": "ym2612"
    },
    {
      "channel": 3,
      "note": 100,
      "start": 30.1193,
      "duration": 0.3834,
      "velocity": 117,
      "chip": "ym2612"
    },
    {
      "channel": 4,
      "note": 98,
      "start": 30.1199,
      "duration": 0.1839,
      "velocity": 97,
      "chip": "ym2612"
    },
    {
      "channel": 1,
      "note": 71,
      "start": 30.3028,
      "duration": 0.0988,
      "velocity": 102,
      "chip": "ym2612"
    },
    {
      "channel": 2,
      "note": 91,
      "start": 30.3034,
      "duration": 0.0987,
      "velocity": 97,
      "chip": "ym2612"
    },
    {
      "channel": 4,
      "note": 98,
      "start": 30.3039,
      "duration": 0.0988,
      "velocity": 97,
      "chip": "ym2612"
    },
    {
      "channel": 5,
      "note": 74,
      "start": 30.3046,
      "duration": 0.0987,
      "velocity": 118,
      "chip": "ym2612"
    },
    {
      "channel": 0,
      "note": 55,
      "start": 30.4012,
      "duration": 0.0998,
      "velocity": 104,
      "chip": "ym2612"
    },
    {
      "channel": 1,
      "note": 71,
      "start": 30.4017,
      "duration": 0.0999,
      "velocity": 102,
      "chip": "ym2612"
    },
    {
      "channel": 2,
      "note": 91,
      "start": 30.4023,
      "duration": 0.0999,
      "velocity": 97,
      "chip": "ym2612"
    },
    {
      "channel": 4,
      "note": 98,
      "start": 30.4029,
      "duration": 0.1003,
      "velocity": 97,
      "chip": "ym2612"
    },
    {
      "channel": 5,
      "note": 74,
      "start": 30.4035,
      "duration": 0.1019,
      "velocity": 119,
      "chip": "ym2612"
    },
    {
      "channel": 0,
      "note": 50,
      "start": 30.5012,
      "duration": 0.1998,
      "velocity": 104,
      "chip": "ym2612"
    },
    {
      "channel": 1,
      "note": 71,
      "start": 30.5018,
      "duration": 0.2013,
      "velocity": 102,
      "chip": "ym2612"
    },
    {
      "channel": 2,
      "note": 91,
      "start": 30.5023,
      "duration": 0.2014,
      "velocity": 97,
      "chip": "ym2612"
    },
    {
      "channel": 3,
      "note": 100,
      "start": 30.5028,
      "duration": 0.3988,
      "velocity": 117,
      "chip": "ym2612"
    },
    {
      "channel": 4,
      "note": 98,
      "start": 30.5034,
      "duration": 0.2009,
      "velocity": 97,
      "chip": "ym2612"
    },
    {
      "channel": 5,
      "note": 55,
      "start": 30.5056,
      "duration": 0.2008,
      "velocity": 118,
      "chip": "ym2612"
    },
    {
      "channel": 0,
      "note": 52,
      "start": 30.7011,
      "duration": 0.1999,
      "velocity": 104,
      "chip": "ym2612"
    },
    {
      "channel": 1,
      "note": 72,
      "start": 30.7033,
      "duration": 0.3845,
      "velocity": 102,
      "chip": "ym2612"
    },
    {
      "channel": 2,
      "note": 93,
      "start": 30.7039,
      "duration": 0.3845,
      "velocity": 97,
      "chip": "ym2612"
    },
    {
      "channel": 4,
      "note": 100,
      "start": 30.7044,
      "duration": 0.3846,
      "velocity": 97,
      "chip": "ym2612"
    },
    {
      "channel": 5,
      "note": 74,
      "start": 30.7066,
      "duration": 0.0964,
      "velocity": 118,
      "chip": "ym2612"
    },
    {
      "channel": 5,
      "note": 74,
      "start": 30.8032,
      "duration": 0.2865,
      "velocity": 118,
      "chip": "ym2612"
    },
    {
      "channel": 0,
      "note": 55,
      "start": 30.9011,
      "duration": 0.1846,
      "velocity": 104,
      "chip": "ym2612"
    },
    {
      "channel": 3,
      "note": 100,
      "start": 30.9018,
      "duration": 0.3845,
      "velocity": 117,
      "chip": "ym2612"
    },
    {
      "channel": 0,
      "note": 57,
      "start": 31.0859,
      "duration": 0.1998,
      "velocity": 104,
      "chip": "ym2612"
    },
    {
      "channel": 1,
      "note": 71,
      "start": 31.088,
      "duration": 0.5999,
      "velocity": 102,
      "chip": "ym2612"
    },
    {
      "channel": 2,
      "note": 91,
      "start": 31.0886,
      "duration": 0.5999,
      "velocity": 97,
      "chip": "ym2612"
    },
    {
      "channel": 4,
      "note": 98,
      "start": 31.0892,
      "duration": 0.6006,
      "velocity": 97,
      "chip": "ym2612"
    },
    {
      "channel": 5,
      "note": 74,
      "start": 31.0898,
      "duration": 0.0979,
      "velocity": 118,
      "chip": "ym2612"
    },
    {
      "channel": 5,
      "note": 74,
      "start": 31.1878,
      "duration": 0.1007,
      "velocity": 119,
      "chip": "ym2612"
    },
    {
      "channel": 0,
      "note": 58,
      "start": 31.2859,
      "duration": 0.1997,
      "velocity": 104,
      "chip": "ym2612"
    },
    {
      "channel": 3,
      "note": 100,
      "start": 31.2866,
      "duration": 0.4026,
      "velocity": 117,
      "chip": "ym2612"
    },
    {
      "channel": 5,
      "note": 55,
      "start": 31.2887,
      "duration": 0.1993,
      "velocity": 118,
      "chip": "ym2612"
    },
    {
      "channel": 0,
      "note": 59,
      "start": 31.4858,
      "duration": 0.2,
      "velocity": 104,
      "chip": "ym2612"
    },
    {
      "channel": 5,
      "note": 74,
      "start": 31.4882,
      "duration": 0.0978,
      "velocity": 118,
      "chip": "ym2612"
    },
    {
      "channel": 5,
      "note": 74,
      "start": 31.5862,
      "duration": 0.288,
      "velocity": 118,
      "chip": "ym2612"
    },
    {
      "channel": 0,
      "note": 60,
      "start": 31.686,
      "duration": 0.2847,
      "velocity": 104,
      "chip": "ym2612"
    },
    {
      "channel": 1,
      "note": 72,
      "start": 31.6881,
      "duration": 0.1842,
      "velocity": 102,
      "chip": "ym2612"
    },
    {
      "channel": 2,
      "note": 84,
      "start": 31.6887,
      "duration": 0.1841,
      "velocity": 97,
      "chip": "ym2612"
    },
    {
      "channel": 3,
      "note": 100,
      "start": 31.6893,
      "duration": 0.383,
      "velocity": 117,
      "chip": "ym2612"
    },
    {
      "channel": 4,
      "note": 91,
      "start": 31.6899,
      "duration": 0.1836,
      "velocity": 97,
      "chip": "ym2612"
    },
    {
      "channel": 1,
      "note": 72,
      "start": 31.8725,
      "duration": 0.0988,
      "velocity": 102,
      "chip": "ym2612"
    },
    {
      "channel": 2,
      "note": 84,
      "start": 31.8731,
      "duration": 0.0987,
      "velocity": 97,
      "chip": "ym2612"
    },
    {
      "channel": 4,
      "note": 91,
      "start": 31.8736,
      "duration": 0.0988,
      "velocity": 97,
      "chip": "ym2612"
    },
    {
      "channel": 5,
      "note": 74,
      "start": 31.8743,
      "duration": 0.0987,
      "velocity": 118,
      "chip": "ym2612"
    },
    {
      "channel": 0,
      "note": 60,
      "start": 31.9709,
      "duration": 0.0998,
      "velocity": 104,
      "chip": "ym2612"
    },
    {
      "channel": 1,
      "note": 72,
      "start": 31.9714,
      "duration": 0.0999,
      "velocity": 102,
      "chip": "ym2612"
    },
    {
      "channel": 2,
      "note": 84,
      "start": 31.972,
      "duration": 0.0999,
      "velocity": 97,
      "chip": "ym2612"
    },
    {
      "channel": 4,
      "note": 91,
      "start": 31.9726,
      "duration": 0.1003,
      "velocity": 97,
      "chip": "ym2612"
    },
    {
      "channel": 5,
      "note": 74,
      "start": 31.9732,
      "duration": 0.1019,
      "velocity": 119,
      "chip": "ym2612"
    },
    {
      "channel": 0,
      "note": 55,
      "start": 32.0709,
      "duration": 0.1998,
      "velocity": 104,
      "chip": "ym2612"
    },
    {
      "channel": 1,
      "note": 72,
      "start": 32.0715,
      "duration": 0.2013,
      "velocity": 102,
      "chip": "ym2612"
    },
    {
      "channel": 2,
      "note": 84,
      "start": 32.072,
      "duration": 0.2014,
      "velocity": 97,
      "chip": "ym2612"
    },
    {
      "channel": 3,
      "note": 100,
      "start": 32.0725,
      "duration": 0.3988,
      "velocity": 117,
      "chip": "ym2612"
    },
    {
      "channel": 4,
      "note": 91,
      "start": 32.0731,
      "duration": 0.2009,
      "velocity": 97,
      "chip": "ym2612"
    },
    {
      "channel": 5,
      "note": 55,
      "start": 32.0753,
      "duration": 0.2008,
      "velocity": 118,
      "chip": "ym2612"
    },
    {
      "channel": 0,
      "note": 57,
      "start": 32.2709,
      "duration": 0.1998,
      "velocity": 104,
      "chip": "ym2612"
    },
    {
      "channel": 1,
      "note": 74,
      "start": 32.273,
      "duration": 0.3844,
      "velocity": 102,
      "chip": "ym2612"
    },
    {
      "channel": 2,
      "note": 86,
      "start": 32.2736,
      "duration": 0.3844,
      "velocity": 97,
      "chip": "ym2612"
    },
    {
      "channel": 4,
      "note": 93,
      "start": 32.2741,
      "duration": 0.3844,
      "velocity": 97,
      "chip": "ym2612"
    },
    {
      "channel": 5,
      "note": 74,
      "start": 32.2763,
      "duration": 0.0964,
      "velocity": 118,
      "chip": "ym2612"
    },
    {
      "channel": 5,
      "note": 74,
      "start": 32.3728,
      "duration": 0.2864,
      "velocity": 118,
      "chip": "ym2612"
    },
    {
      "channel": 0,
      "note": 60,
      "start": 32.4708,
      "duration": 0.285,
      "velocity": 104,
      "chip": "ym2612"
    },
    {
      "channel": 3,
      "note": 100,
      "start": 32.4715,
      "duration": 0.3875,
      "velocity": 117,
      "chip": "ym2612"
    },
    {
      "channel": 1,
      "note": 72,
      "start": 32.6576,
      "duration": 0.2004,
      "velocity": 102,
      "chip": "ym2612"
    },
    {
      "channel": 2,
      "note": 84,
      "start": 32.6581,
      "duration": 0.2004,
      "velocity": 97,
      "chip": "ym2612"
    },
    {
      "channel": 4,
      "note": 91,
      "start": 32.6588,
      "duration": 0.2009,
      "velocity": 97,
      "chip": "ym2612"
    },
    {
      "channel": 5,
      "note": 74,
      "start": 32.6594,
      "duration": 0.0989,
      "velocity": 118,
      "chip": "ym2612"
    },
    {
      "channel": 0,
      "note": 60,
      "start": 32.756,
      "duration": 0.0998,
      "velocity": 104,
      "chip": "ym2612"
    },
    {
      "channel": 5,
      "note": 74,
      "start": 32.7584,
      "duration": 0.1034,
      "velocity": 119,
      "chip": "ym2612"
    },
    {
      "channel": 0,
      "note": 55,
      "start": 32.856,
      "duration": 0.1998,
      "velocity": 104,
      "chip": "ym2612"
    },
    {
      "channel": 1,
      "note": 74,
      "start": 32.8581,
      "duration": 0.1998,
      "velocity": 102,
      "chip": "ym2612"
    },
    {
      "channel": 2,
      "note": 79,
      "start": 32.8587,
      "duration": 0.1998,
      "velocity": 97,
      "chip": "ym2612"
    },
    {
      "channel": 3,
      "note": 100,
      "start": 32.8593,
      "duration": 0.3998,
      "velocity": 117,
      "chip": "ym2612"
    },
    {
      "channel": 4,
      "note": 89,
      "start": 32.8598,
      "duration": 0.1993,
      "velocity": 97,
      "chip": "ym2612"
    },
    {
      "channel": 5,
      "note": 55,
      "start": 32.8619,
      "duration": 0.1993,
      "velocity": 118,
      "chip": "ym2612"
    },
    {
      "channel": 0,
      "note": 57,
      "start": 33.056,
      "duration": 0.1998,
      "velocity": 104,
      "chip": "ym2612"
    },
    {
      "channel": 1,
      "note": 76,
      "start": 33.0581,
      "duration": 0.1999,
      "velocity": 102,
      "chip": "ym2612"
    },
    {
      "channel": 2,
      "note": 81,
      "start": 33.0587,
      "duration": 0.1999,
      "velocity": 97,
      "chip": "ym2612"
    },
    {
      "channel": 4,
      "note": 88,
      "start": 33.0593,
      "duration": 0.2004,
      "velocity": 97,
      "chip": "ym2612"
    },
    {
      "channel": 5,
      "note": 74,
      "start": 33.0614,
      "duration": 0.0964,
      "velocity": 118,
      "chip": "ym2612"
    },
    {
      "channel": 5,
      "note": 74,
      "start": 33.1579,
      "duration": 0.2833,
      "velocity": 118,
      "chip": "ym2612"
    },
    {
      "channel": 0,
      "note": 48,
      "start": 33.256,
      "duration": 0.2848,
      "velocity": 104,
      "chip": "ym2612"
    },
    {
      "channel": 1,
      "note": 72,
      "start": 33.2582,
      "duration": 1.5703,
      "velocity": 102,
      "chip": "ym2612"
    },
    {
      "channel": 2,
      "note": 84,
      "start": 33.2587,
      "duration": 1.5704,
      "velocity": 97,
      "chip": "ym2612"
    },
    {
      "channel": 3,
      "note": 100,
      "start": 33.2593,
      "duration": 0.3823,
      "velocity": 117,
      "chip": "ym2612"
    },
    {
      "channel": 4,
      "note": 91,
      "start": 33.2598,
      "duration": 1.5703,
      "velocity": 97,
      "chip": "ym2612"
    },
    {
      "channel": 5,
      "note": 74,
      "start": 33.4414,
      "duration": 0.1002,
      "velocity": 118,
      "chip": "ym2612"
    },
    {
      "channel": 0,
      "note": 48,
      "start": 33.541,
      "duration": 0.0999,
      "velocity": 104,
      "chip": "ym2612"
    },
    {
      "channel": 5,
      "note": 74,
      "start": 33.5418,
      "duration": 0.1019,
      "velocity": 119,
      "chip": "ym2612"
    },
    {
      "channel": 0,
      "note": 43,
      "start": 33.6411,
      "duration": 0.1997,
      "velocity": 104,
      "chip": "ym2612"
    },
    {
      "channel": 3,
      "note": 100,
      "start": 33.6417,
      "duration": 0.3998,
      "velocity": 117,
      "chip": "ym2612"
    },
    {
      "channel": 5,
      "note": 55,
      "start": 33.6439,
      "duration": 0.1993,
      "velocity": 118,
      "chip": "ym2612"
    },
    {
      "channel": 0,
      "note": 45,
      "start": 33.841,
      "duration": 0.1999,
      "velocity": 104,
      "chip": "ym2612"
    },
    {
      "channel": 5,
      "note": 74,
      "start": 33.8434,
      "duration": 0.0977,
      "velocity": 118,
      "chip": "ym2612"
    },
    {
      "channel": 5,
      "note": 74,
      "start": 33.9413,
      "duration": 0.2858,
      "velocity": 118,
      "chip": "ym2612"
    },
    {
      "channel": 0,
      "note": 48,
      "start": 34.041,
      "duration": 0.1852,
      "velocity": 104,
      "chip": "ym2612"
    },
    {
      "channel": 3,
      "note": 100,
      "start": 34.0417,
      "duration": 0.3853,
      "velocity": 117,
      "chip": "ym2612"
    },
    {
      "channel": 0,
      "note": 50,
      "start": 34.2264,
      "duration": 0.1999,
      "velocity": 104,
      "chip": "ym2612"
    },
    {
      "channel": 5,
      "note": 74,
      "start": 34.2273,
      "duration": 0.0992,
      "velocity": 118,
      "chip": "ym2612"
    },
    {
      "channel": 5,
      "note": 74,
      "start": 34.3268,
      "duration": 0.1024,
      "velocity": 119,
      "chip": "ym2612"
    },
    {
      "channel": 0,
      "note": 51,
      "start": 34.4265,
      "duration": 0.1997,
      "velocity": 104,
      "chip": "ym2612"
    },
    {
      "channel": 3,
      "note": 100,
      "start": 34.4271,
      "duration": 0.4025,
      "velocity": 117,
      "chip": "ym2612"
    },
    {
      "channel": 5,
      "note": 55,
      "start": 34.4294,
      "duration": 0.1993,
      "velocity": 118,
      "chip": "ym2612"
    },
    {
      "channel": 0,
      "note": 52,
      "start": 34.6264,
      "duration": 0.1999,
      "velocity": 104,
      "chip": "ym2612"
    },
    {
      "channel": 5,
      "note": 74,
      "start": 34.6288,
      "duration": 0.0978,
      "velocity": 118,
      "chip": "ym2612"
    },
    {
      "channel": 5,
      "note": 74,
      "start": 34.7268,
      "duration": 0.2882,
      "velocity": 118,
      "chip": "ym2612"
    },
    {
      "channel": 0,
      "note": 53,
      "start": 34.8266,
      "duration": 0.2849,
      "velocity": 104,
      "chip": "ym2612"
    },
    {
      "channel": 1,
      "note": 77,
      "start": 34.8287,
      "duration": 0.1843,
      "velocity": 102,
      "chip": "ym2612"
    },
    {
      "channel": 2,
      "note": 89,
      "start": 34.8292,
      "duration": 0.1844,
      "velocity": 97,
      "chip": "ym2612"
    },
    {
      "channel": 3,
      "note": 100,
      "start": 34.8298,
      "duration": 0.3833,
      "velocity": 117,
      "chip": "ym2612"
    },
    {
      "channel": 4,
      "note": 96,
      "start": 34.8304,
      "duration": 0.1839,
      "velocity": 97,
      "chip": "ym2612"
    },
    {
      "channel": 1,
      "note": 77,
      "start": 35.0133,
      "duration": 0.0988,
      "velocity": 102,
      "chip": "ym2612"
    },
    {
      "channel": 2,
      "note": 89,
      "start": 35.0138,
      "duration": 0.0987,
      "velocity": 97,
      "chip": "ym2612"
    },
    {
      "channel": 4,
      "note": 96,
      "start": 35.0144,
      "duration": 0.0988,
      "velocity": 97,
      "chip": "ym2612"
    },
    {
      "channel": 5,
      "note": 74,
      "start": 35.015,
      "duration": 0.0987,
      "velocity": 118,
      "chip": "ym2612"
    },
    {
      "channel": 0,
      "note": 53,
      "start": 35.1117,
      "duration": 0.0998,
      "velocity": 104,
      "chip": "ym2612"
    },
    {
      "channel": 1,
      "note": 77,
      "start": 35.1122,
      "duration": 0.0999,
      "velocity": 102,
      "chip": "ym2612"
    },
    {
      "channel": 2,
      "note": 89,
      "start": 35.1127,
      "duration": 0.0999,
      "velocity": 97,
      "chip": "ym2612"
    },
    {
      "channel": 4,
      "note": 96,
      "start": 35.1134,
      "duration": 0.1003,
      "velocity": 97,
      "chip": "ym2612"
    },
    {
      "channel": 5,
      "note": 74,
      "start": 35.1139,
      "duration": 0.1019,
      "velocity": 119,
      "chip": "ym2612"
    },
    {
      "channel": 0,
      "note": 48,
      "start": 35.2117,
      "duration": 0.1998,
      "velocity": 104,
      "chip": "ym2612"
    },
    {
      "channel": 1,
      "note": 77,
      "start": 35.2122,
      "duration": 0.2013,
      "velocity": 102,
      "chip": "ym2612"
    },
    {
      "channel": 2,
      "note": 89,
      "start": 35.2127,
      "duration": 0.2014,
      "velocity": 97,
      "chip": "ym2612"
    },
    {
      "channel": 3,
      "note": 100,
      "start": 35.2133,
      "duration": 0.4009,
      "velocity": 117,
      "chip": "ym2612"
    },
    {
      "channel": 4,
      "note": 96,
      "start": 35.2139,
      "duration": 0.2009,
      "velocity": 97,
      "chip": "ym2612"
    },
    {
      "channel": 5,
      "note": 55,
      "start": 35.2161,
      "duration": 0.2008,
      "velocity": 118,
      "chip": "ym2612"
    },
    {
      "channel": 0,
      "note": 50,
      "start": 35.4117,
      "duration": 0.1998,
      "velocity": 104,
      "chip": "ym2612"
    },
    {
      "channel": 1,
      "note": 81,
      "start": 35.4138,
      "duration": 0.1998,
      "velocity": 102,
      "chip": "ym2612"
    },
    {
      "channel": 2,
      "note": 91,
      "start": 35.4143,
      "duration": 0.3838,
      "velocity": 97,
      "chip": "ym2612"
    },
    {
      "channel": 4,
      "note": 98,
      "start": 35.4149,
      "duration": 0.3838,
      "velocity": 97,
      "chip": "ym2612"
    },
    {
      "channel": 5,
      "note": 74,
      "start": 35.4171,
      "duration": 0.0964,
      "velocity": 118,
      "chip": "ym2612"
    },
    {
      "channel": 5,
      "note": 74,
      "start": 35.5136,
      "duration": 0.2858,
      "velocity": 118,
      "chip": "ym2612"
    },
    {
      "channel": 0,
      "note": 53,
      "start": 35.6116,
      "duration": 0.2843,
      "velocity": 104,
      "chip": "ym2612"
    },
    {
      "channel": 1,
      "note": 84,
      "start": 35.6138,
      "duration": 0.1838,
      "velocity": 102,
      "chip": "ym2612"
    },
    {
      "channel": 3,
      "note": 100,
      "start": 35.6143,
      "duration": 0.3844,
      "velocity": 117,
      "chip": "ym2612"
    },
    {
      "channel": 1,
      "note": 81,
      "start": 35.7977,
      "duration": 0.2003,
      "velocity": 102,
      "chip": "ym2612"
    },
    {
      "channel": 2,
      "note": 89,
      "start": 35.7983,
      "duration": 0.4003,
      "velocity": 97,
      "chip": "ym2612"
    },
    {
      "channel": 4,
      "note": 96,
      "start": 35.7989,
      "duration": 0.4004,
      "velocity": 97,
      "chip": "ym2612"
    },
    {
      "channel": 5,
      "note": 74,
      "start": 35.7995,
      "duration": 0.0989,
      "velocity": 118,
      "chip": "ym2612"
    },
    {
      "channel": 0,
      "note": 53,
      "start": 35.8961,
      "duration": 0.0998,
      "velocity": 104,
      "chip": "ym2612"
    },
    {
      "channel": 5,
      "note": 74,
      "start": 35.8985,
      "duration": 0.1023,
      "velocity": 119,
      "chip": "ym2612"
    },
    {
      "channel": 0,
      "note": 48,
      "start": 35.9961,
      "duration": 0.1999,
      "velocity": 104,
      "chip": "ym2612"
    },
    {
      "channel": 1,
      "note": 77,
      "start": 35.9982,
      "duration": 0.1998,
      "velocity": 102,
      "chip": "ym2612"
    },
    {
      "channel": 3,
      "note": 100,
      "start": 35.9988,
      "duration": 0.4004,
      "velocity": 117,
      "chip": "ym2612"
    },
    {
      "channel": 5,
      "note": 55,
      "start": 36.001,
      "duration": 0.2003,
      "velocity": 118,
      "chip": "ym2612"
    },
    {
      "channel": 0,
      "note": 53,
      "start": 36.1961,
      "duration": 0.1998,
      "velocity": 104,
      "chip": "ym2612"
    },
    {
      "channel": 1,
      "note": 72,
      "start": 36.1982,
      "duration": 0.1999,
      "velocity": 102,
      "chip": "ym2612"
    },
    {
      "channel": 2,
      "note": 89,
      "start": 36.1988,
      "duration": 0.1998,
      "velocity": 97,
      "chip": "ym2612"
    },
    {
      "channel": 4,
      "note": 96,
      "start": 36.1994,
      "duration": 0.2004,
      "velocity": 97,
      "chip": "ym2612"
    },
    {
      "channel": 5,
      "note": 74,
      "start": 36.2015,
      "duration": 0.0964,
      "velocity": 118,
      "chip": "ym2612"
    },
    {
      "channel": 5,
      "note": 74,
      "start": 36.298,
      "duration": 0.2864,
      "velocity": 118,
      "chip": "ym2612"
    },
    {
      "channel": 0,
      "note": 55,
      "start": 36.3961,
      "duration": 0.2849,
      "velocity": 104,
      "chip": "ym2612"
    },
    {
      "channel": 1,
      "note": 79,
      "start": 36.3982,
      "duration": 0.1844,
      "velocity": 102,
      "chip": "ym2612"
    },
    {
      "channel": 2,
      "note": 91,
      "start": 36.3988,
      "duration": 0.1844,
      "velocity": 97,
      "chip": "ym2612"
    },
    {
      "channel": 3,
      "note": 100,
      "start": 36.3994,
      "duration": 0.3833,
      "velocity": 117,
      "chip": "ym2612"
    },
    {
      "channel": 4,
      "note": 98,
      "start": 36.4,
      "duration": 0.1839,
      "velocity": 97,
      "chip": "ym2612"
    },
    {
      "channel": 1,
      "note": 79,
      "start": 36.5828,
      "duration": 0.0988,
      "velocity": 102,
      "chip": "ym2612"
    },
    {
      "channel": 2,
      "note": 91,
      "start": 36.5834,
      "duration": 0.0987,
      "velocity": 97,
      "chip": "ym2612"
    },
    {
      "channel": 4,
      "note": 98,
      "start": 36.584,
      "duration": 0.0988,
      "velocity": 97,
      "chip": "ym2612"
    },
    {
      "channel": 5,
      "note": 74,
      "start": 36.5846,
      "duration": 0.0987,
      "velocity": 118,
      "chip": "ym2612"
    },
    {
      "channel": 0,
      "note": 55,
      "start": 36.6812,
      "duration": 0.0998,
      "velocity": 104,
      "chip": "ym2612"
    },
    {
      "channel": 1,
      "note": 79,
      "start": 36.6817,
      "duration": 0.0999,
      "velocity": 102,
      "chip": "ym2612"
    },
    {
      "channel": 2,
      "note": 91,
      "start": 36.6823,
      "duration": 0.0999,
      "velocity": 97,
      "chip": "ym2612"
    },
    {
      "channel": 4,
      "note": 98,
      "start": 36.6829,
      "duration": 0.1003,
      "velocity": 97,
      "chip": "ym2612"
    },
    {
      "channel": 5,
      "note": 74,
      "start": 36.6835,
      "duration": 0.1019,
      "velocity": 119,
      "chip": "ym2612"
    },
    {
      "channel": 0,
      "note": 50,
      "start": 36.7812,
      "duration": 0.1998,
      "velocity": 104,
      "chip": "ym2612"
    },
    {
      "channel": 1,
      "note": 79,
      "start": 36.7818,
      "duration": 0.2013,
      "velocity": 102,
      "chip": "ym2612"
    },
    {
      "channel": 2,
      "note": 91,
      "start": 36.7823,
      "duration": 0.2014,
      "velocity": 97,
      "chip": "ym2612"
    },
    {
      "channel": 3,
      "note": 100,
      "start": 36.7829,
      "duration": 0.4009,
      "velocity": 117,
      "chip": "ym2612"
    },
    {
      "channel": 4,
      "note": 98,
      "start": 36.7835,
      "duration": 0.2009,
      "velocity": 97,
      "chip": "ym2612"
    },
    {
      "channel": 5,
      "note": 55,
      "start": 36.7856,
      "duration": 0.2008,
      "velocity": 118,
      "chip": "ym2612"
    },
    {
      "channel": 0,
      "note": 52,
      "start": 36.9812,
      "duration": 0.1999,
      "velocity": 104,
      "chip": "ym2612"
    },
    {
      "channel": 1,
      "note": 83,
      "start": 36.9833,
      "duration": 0.1998,
      "velocity": 102,
      "chip": "ym2612"
    },
    {
      "channel": 2,
      "note": 93,
      "start": 36.9839,
      "duration": 0.3843,
      "velocity": 97,
      "chip": "ym2612"
    },
    {
      "channel": 4,
      "note": 100,
      "start": 36.9845,
      "duration": 0.3843,
      "velocity": 97,
      "chip": "ym2612"
    },
    {
      "channel": 5,
      "note": 74,
      "start": 36.9866,
      "duration": 0.0964,
      "velocity": 118,
      "chip": "ym2612"
    },
    {
      "channel": 5,
      "note": 74,
      "start": 37.0832,
      "duration": 0.2863,
      "velocity": 118,
      "chip": "ym2612"
    },
    {
      "channel": 0,
      "note": 55,
      "start": 37.1812,
      "duration": 0.1843,
      "velocity": 104,
      "chip": "ym2612"
    },
    {
      "channel": 1,
      "note": 86,
      "start": 37.1833,
      "duration": 0.1843,
      "velocity": 102,
      "chip": "ym2612"
    },
    {
      "channel": 3,
      "note": 100,
      "start": 37.1839,
      "duration": 0.3844,
      "velocity": 117,
      "chip": "ym2612"
    },
    {
      "channel": 0,
      "note": 57,
      "start": 37.3657,
      "duration": 0.1998,
      "velocity": 104,
      "chip": "ym2612"
    },
    {
      "channel": 1,
      "note": 83,
      "start": 37.3678,
      "duration": 0.1998,
      "velocity": 102,
      "chip": "ym2612"
    },
    {
      "channel": 2,
      "note": 91,
      "start": 37.3684,
      "duration": 0.9851,
      "velocity": 97,
      "chip": "ym2612"
    },
    {
      "channel": 4,
      "note": 98,
      "start": 37.369,
      "duration": 0.6031,
      "velocity": 117,
      "chip": "ym2612"
    },
    {
      "channel": 5,
      "note": 74,
      "start": 37.3696,
      "duration": 0.0979,
      "velocity": 118,
      "chip": "ym2612"
    },
    {
      "channel": 5,
      "note": 74,
      "start": 37.4676,
      "duration": 0.1028,
      "velocity": 119,
      "chip": "ym2612"
    },
    {
      "channel": 0,
      "note": 58,
      "start": 37.5656,
      "duration": 0.1998,
      "velocity": 104,
      "chip": "ym2612"
    },
    {
      "channel": 1,
      "note": 79,
      "start": 37.5678,
      "duration": 0.1998,
      "velocity": 102,
      "chip": "ym2612"
    },
    {
      "channel": 3,
      "note": 100,
      "start": 37.5684,
      "duration": 0.4015,
      "velocity": 97,
      "chip": "ym2612"
    },
    {
      "channel": 5,
      "note": 55,
      "start": 37.5706,
      "duration": 0.1993,
      "velocity": 118,
      "chip": "ym2612"
    },
    {
      "channel": 0,
      "note": 59,
      "start": 37.7656,
      "duration": 0.2001,
      "velocity": 104,
      "chip": "ym2612"
    },
    {
      "channel": 1,
      "note": 74,
      "start": 37.7677,
      "duration": 0.2,
      "velocity": 97,
      "chip": "ym2612"
    },
    {
      "channel": 5,
      "note": 74,
      "start": 37.7701,
      "duration": 0.0973,
      "velocity": 118,
      "chip": "ym2612"
    },
    {
      "channel": 5,
      "note": 74,
      "start": 37.8676,
      "duration": 0.2833,
      "velocity": 118,
      "chip": "ym2612"
    },
    {
      "channel": 0,
      "note": 53,
      "start": 37.9658,
      "duration": 0.2843,
      "velocity": 104,
      "chip": "ym2612"
    },
    {
      "channel": 1,
      "note": 81,
      "start": 37.9679,
      "duration": 0.9689,
      "velocity": 97,
      "chip": "ym2612"
    },
    {
      "channel": 3,
      "note": 77,
      "start": 37.9701,
      "duration": 0.0802,
      "velocity": 97,
      "chip": "ym2612"
    },
    {
      "channel": 4,
      "note": 100,
      "start": 37.9722,
      "duration": 0.3823,
      "velocity": 117,
      "chip": "ym2612"
    },
    {
      "channel": 3,
      "note": 81,
      "start": 38.0505,
      "duration": 0.0997,
      "velocity": 97,
      "chip": "ym2612"
    },
    {
      "channel": 3,
      "note": 84,
      "start": 38.1504,
      "duration": 0.1004,
      "velocity": 97,
      "chip": "ym2612"
    },
    {
      "channel": 5,
      "note": 74,
      "start": 38.1511,
      "duration": 0.1003,
      "velocity": 118,
      "chip": "ym2612"
    },
    {
      "channel": 0,
      "note": 48,
      "start": 38.2503,
      "duration": 0.2998,
      "velocity": 104,
      "chip": "ym2612"
    },
    {
      "channel": 3,
      "note": 89,
      "start": 38.2509,
      "duration": 0.103,
      "velocity": 97,
      "chip": "ym2612"
    },
    {
      "channel": 5,
      "note": 74,
      "start": 38.2516,
      "duration": 0.1051,
      "velocity": 119,
      "chip": "ym2612"
    },
    {
      "channel": 2,
      "note": 81,
      "start": 38.3536,
      "duration": 0.9827,
      "velocity": 97,
      "chip": "ym2612"
    },
    {
      "channel": 3,
      "note": 77,
      "start": 38.3542,
      "duration": 0.0962,
      "velocity": 97,
      "chip": "ym2612"
    },
    {
      "channel": 4,
      "note": 100,
      "start": 38.3547,
      "duration": 0.3966,
      "velocity": 117,
      "chip": "ym2612"
    },
    {
      "channel": 5,
      "note": 55,
      "start": 38.3569,
      "duration": 0.1961,
      "velocity": 118,
      "chip": "ym2612"
    },
    {
      "channel": 3,
      "note": 81,
      "start": 38.4505,
      "duration": 0.1002,
      "velocity": 97,
      "chip": "ym2612"
    },
    {
      "channel": 0,
      "note": 50,
      "start": 38.5502,
      "duration": 0.1999,
      "velocity": 104,
      "chip": "ym2612"
    },
    {
      "channel": 3,
      "note": 84,
      "start": 38.5509,
      "duration": 0.0994,
      "velocity": 97,
      "chip": "ym2612"
    },
    {
      "channel": 5,
      "note": 74,
      "start": 38.5532,
      "duration": 0.0978,
      "velocity": 118,
      "chip": "ym2612"
    },
    {
      "channel": 3,
      "note": 89,
      "start": 38.6504,
      "duration": 0.1004,
      "velocity": 97,
      "chip": "ym2612"
    },
    {
      "channel": 5,
      "note": 74,
      "start": 38.651,
      "duration": 0.287,
      "velocity": 118,
      "chip": "ym2612"
    },
    {
      "channel": 0,
      "note": 53,
      "start": 38.7503,
      "duration": 0.2849,
      "velocity": 104,
      "chip": "ym2612"
    },
    {
      "channel": 3,
      "note": 77,
      "start": 38.751,
      "duration": 0.0844,
      "velocity": 97,
      "chip": "ym2612"
    },
    {
      "channel": 4,
      "note": 100,
      "start": 38.7516,
      "duration": 0.3849,
      "velocity": 117,
      "chip": "ym2612"
    },
    {
      "channel": 3,
      "note": 81,
      "start": 38.8355,
      "duration": 0.1019,
      "velocity": 97,
      "chip": "ym2612"
    },
    {
      "channel": 1,
      "note": 79,
      "start": 38.937,
      "duration": 0.1983,
      "velocity": 97,
      "chip": "ym2612"
    },
    {
      "channel": 3,
      "note": 84,
      "start": 38.9376,
      "duration": 0.0983,
      "velocity": 97,
      "chip": "ym2612"
    },
    {
      "channel": 5,
      "note": 74,
      "start": 38.9383,
      "duration": 0.0982,
      "velocity": 118,
      "chip": "ym2612"
    },
    {
      "channel": 0,
      "note": 48,
      "start": 39.0354,
      "duration": 0.2999,
      "velocity": 104,
      "chip": "ym2612"
    },
    {
      "channel": 3,
      "note": 89,
      "start": 39.0361,
      "duration": 0.0998,
      "velocity": 97,
      "chip": "ym2612"
    },
    {
      "channel": 5,
      "note": 74,
      "start": 39.0367,
      "duration": 0.1019,
      "velocity": 119,
      "chip": "ym2612"
    },
    {
      "channel": 1,
      "note": 77,
      "start": 39.1354,
      "duration": 0.2004,
      "velocity": 97,
      "chip": "ym2612"
    },
    {
      "channel": 3,
      "note": 77,
      "start": 39.1361,
      "duration": 0.0993,
      "velocity": 97,
      "chip": "ym2612"
    },
    {
      "channel": 4,
      "note": 100,
      "start": 39.1366,
      "duration": 0.4003,
      "velocity": 117,
      "chip": "ym2612"
    },
    {
      "channel": 5,
      "note": 55,
      "start": 39.1388,
      "duration": 0.2003,
      "velocity": 118,
      "chip": "ym2612"
    },
    {
      "channel": 3,
      "note": 81,
      "start": 39.2355,
      "duration": 0.1013,
      "velocity": 97,
      "chip": "ym2612"
    },
    {
      "channel": 0,
      "note": 53,
      "start": 39.3354,
      "duration": 0.1998,
      "velocity": 104,
      "chip": "ym2612"
    },
    {
      "channel": 1,
      "note": 79,
      "start": 39.3359,
      "duration": 0.3839,
      "velocity": 97,
      "chip": "ym2612"
    },
    {
      "channel": 2,
      "note": 79,
      "start": 39.3365,
      "duration": 0.1993,
      "velocity": 97,
      "chip": "ym2612"
    },
    {
      "channel": 3,
      "note": 84,
      "start": 39.3371,
      "duration": 0.0983,
      "velocity": 97,
      "chip": "ym2612"
    },
    {
      "channel": 5,
      "note": 74,
      "start": 39.3392,
      "duration": 0.0968,
      "velocity": 118,
      "chip": "ym2612"
    },
    {
      "channel": 3,
      "note": 89,
      "start": 39.4355,
      "duration": 0.1008,
      "velocity": 97,
      "chip": "ym2612"
    },
    {
      "channel": 5,
      "note": 74,
      "start": 39.4362,
      "duration": 0.2855,
      "velocity": 118,
      "chip": "ym2612"
    },
    {
      "channel": 0,
      "note": 55,
      "start": 39.5354,
      "duration": 0.2845,
      "velocity": 104,
      "chip": "ym2612"
    },
    {
      "channel": 2,
      "note": 77,
      "start": 39.536,
      "duration": 0.1844,
      "velocity": 97,
      "chip": "ym2612"
    },
    {
      "channel": 3,
      "note": 74,
      "start": 39.5366,
      "duration": 0.0834,
      "velocity": 97,
      "chip": "ym2612"
    },
    {
      "channel": 4,
      "note": 100,
      "start": 39.5371,
      "duration": 0.3834,
      "velocity": 117,
      "chip": "ym2612"
    },
    {
      "channel": 3,
      "note": 79,
      "start": 39.6202,
      "duration": 0.1008,
      "velocity": 97,
      "chip": "ym2612"
    },
    {
      "channel": 1,
      "note": 74,
      "start": 39.72,
      "duration": 0.7865,
      "velocity": 97,
      "chip": "ym2612"
    },
    {
      "channel": 2,
      "note": 79,
      "start": 39.7206,
      "duration": 0.4014,
      "velocity": 97,
      "chip": "ym2612"
    },
    {
      "channel": 3,
      "note": 83,
      "start": 39.7212,
      "duration": 0.0994,
      "velocity": 97,
      "chip": "ym2612"
    },
    {
      "channel": 5,
      "note": 74,
      "start": 39.7219,
      "duration": 0.0993,
      "velocity": 118,
      "chip": "ym2612"
    },
    {
      "channel": 0,
      "note": 50,
      "start": 39.82,
      "duration": 0.2998,
      "velocity": 104,
      "chip": "ym2612"
    },
    {
      "channel": 3,
      "note": 86,
      "start": 39.8207,
      "duration": 0.0993,
      "velocity": 97,
      "chip": "ym2612"
    },
    {
      "channel": 5,
      "note": 74,
      "start": 39.8213,
      "duration": 0.1014,
      "velocity": 119,
      "chip": "ym2612"
    },
    {
      "channel": 3,
      "note": 74,
      "start": 39.9201,
      "duration": 0.0998,
      "velocity": 97,
      "chip": "ym2612"
    },
    {
      "channel": 4,
      "note": 100,
      "start": 39.9207,
      "duration": 0.4003,
      "velocity": 117,
      "chip": "ym2612"
    },
    {
      "channel": 5,
      "note": 55,
      "start": 39.9229,
      "duration": 0.2019,
      "velocity": 118,
      "chip": "ym2612"
    },
    {
      "channel": 3,
      "note": 79,
      "start": 40.0201,
      "duration": 0.1025,
      "velocity": 97,
      "chip": "ym2612"
    },
    {
      "channel": 0,
      "note": 52,
      "start": 40.12,
      "duration": 0.1999,
      "velocity": 104,
      "chip": "ym2612"
    },
    {
      "channel": 2,
      "note": 74,
      "start": 40.1222,
      "duration": 0.7839,
      "velocity": 97,
      "chip": "ym2612"
    },
    {
      "channel": 3,
      "note": 83,
      "start": 40.1227,
      "duration": 0.0973,
      "velocity": 97,
      "chip": "ym2612"
    },
    {
      "channel": 5,
      "note": 74,
      "start": 40.1249,
      "duration": 0.0958,
      "velocity": 118,
      "chip": "ym2612"
    },
    {
      "channel": 3,
      "note": 86,
      "start": 40.2202,
      "duration": 0.1002,
      "velocity": 97,
      "chip": "ym2612"
    },
    {
      "channel": 5,
      "note": 74,
      "start": 40.2208,
      "duration": 0.287,
      "velocity": 118,
      "chip": "ym2612"
    },
    {
      "channel": 0,
      "note": 55,
      "start": 40.32,
      "duration": 0.2849,
      "velocity": 104,
      "chip": "ym2612"
    },
    {
      "channel": 3,
      "note": 74,
      "start": 40.3207,
      "duration": 0.0844,
      "velocity": 97,
      "chip": "ym2612"
    },
    {
      "channel": 4,
      "note": 100,
      "start": 40.3212,
      "duration": 0.3849,
      "velocity": 117,
      "chip": "ym2612"
    },
    {
      "channel": 3,
      "note": 79,
      "start": 40.4053,
      "duration": 0.1018,
      "velocity": 97,
      "chip": "ym2612"
    },
    {
      "channel": 1,
      "note": 72,
      "start": 40.5067,
      "duration": 0.1983,
      "velocity": 97,
      "chip": "ym2612"
    },
    {
      "channel": 3,
      "note": 83,
      "start": 40.5073,
      "duration": 0.0983,
      "velocity": 97,
      "chip": "ym2612"
    },
    {
      "channel": 5,
      "note": 74,
      "start": 40.508,
      "duration": 0.0982,
      "velocity": 118,
      "chip": "ym2612"
    },
    {
      "channel": 0,
      "note": 50,
      "start": 40.6051,
      "duration": 0.2999,
      "velocity": 104,
      "chip": "ym2612"
    },
    {
      "channel": 3,
      "note": 86,
      "start": 40.6058,
      "duration": 0.0998,
      "velocity": 97,
      "chip": "ym2612"
    },
    {
      "channel": 5,
      "note": 74,
      "start": 40.6064,
      "duration": 0.1019,
      "velocity": 119,
      "chip": "ym2612"
    },
    {
      "channel": 1,
      "note": 74,
      "start": 40.7051,
      "duration": 0.2004,
      "velocity": 97,
      "chip": "ym2612"
    },
    {
      "channel": 3,
      "note": 74,
      "start": 40.7058,
      "duration": 0.0993,
      "velocity": 97,
      "chip": "ym2612"
    },
    {
      "channel": 4,
      "note": 100,
      "start": 40.7063,
      "duration": 0.4008,
      "velocity": 117,
      "chip": "ym2612"
    },
    {
      "channel": 5,
      "note": 55,
      "start": 40.7085,
      "duration": 0.2003,
      "velocity": 118,
      "chip": "ym2612"
    },
    {
      "channel": 3,
      "note": 79,
      "start": 40.8053,
      "duration": 0.1013,
      "velocity": 97,
      "chip": "ym2612"
    },
    {
      "channel": 0,
      "note": 52,
      "start": 40.9051,
      "duration": 0.1998,
      "velocity": 104,
      "chip": "ym2612"
    },
    {
      "channel": 1,
      "note": 76,
      "start": 40.9056,
      "duration": 0.1999,
      "velocity": 97,
      "chip": "ym2612"
    },
    {
      "channel": 2,
      "note": 72,
      "start": 40.9062,
      "duration": 0.1998,
      "velocity": 97,
      "chip": "ym2612"
    },
    {
      "channel": 3,
      "note": 83,
      "start": 40.9068,
      "duration": 0.0983,
      "velocity": 97,
      "chip": "ym2612"
    },
    {
      "channel": 5,
      "note": 74,
      "start": 40.909,
      "duration": 0.0968,
      "velocity": 118,
      "chip": "ym2612"
    },
    {
      "channel": 3,
      "note": 86,
      "start": 41.0053,
      "duration": 0.1013,
      "velocity": 97,
      "chip": "ym2612"
    },
    {
      "channel": 5,
      "note": 74,
      "start": 41.0059,
      "duration": 0.2851,
      "velocity": 118,
      "chip": "ym2612"
    },
    {
      "channel": 0,
      "note": 48,
      "start": 41.1051,
      "duration": 0.2845,
      "velocity": 104,
      "chip": "ym2612"
    },
    {
      "channel": 1,
      "note": 79,
      "start": 41.1056,
      "duration": 0.5861,
      "velocity": 97,
      "chip": "ym2612"
    },
    {
      "channel": 2,
      "note": 74,
      "start": 41.1062,
      "duration": 0.1835,
      "velocity": 97,
      "chip": "ym2612"
    },
    {
      "channel": 3,
      "note": 76,
      "start": 41.1068,
      "duration": 0.0831,
      "velocity": 97,
      "chip": "ym2612"
    },
    {
      "channel": 4,
      "note": 100,
      "start": 41.1074,
      "duration": 0.3851,
      "velocity": 117,
      "chip": "ym2612"
    },
    {
      "channel": 3,
      "note": 79,
      "start": 41.1901,
      "duration": 0.1002,
      "velocity": 97,
      "chip": "ym2612"
    },
    {
      "channel": 2,
      "note": 76,
      "start": 41.2899,
      "duration": 0.2015,
      "velocity": 97,
      "chip": "ym2612"
    },
    {
      "channel": 3,
      "note": 84,
      "start": 41.2905,
      "duration": 0.0999,
      "velocity": 97,
      "chip": "ym2612"
    },
    {
      "channel": 5,
      "note": 74,
      "start": 41.2912,
      "duration": 0.0998,
      "velocity": 118,
      "chip": "ym2612"
    },
    {
      "channel": 0,
      "note": 43,
      "start": 41.3898,
      "duration": 0.2999,
      "velocity": 104,
      "chip": "ym2612"
    },
    {
      "channel": 3,
      "note": 88,
      "start": 41.3905,
      "duration": 0.1015,
      "velocity": 97,
      "chip": "ym2612"
    },
    {
      "channel": 5,
      "note": 74,
      "start": 41.3912,
      "duration": 0.1035,
      "velocity": 119,
      "chip": "ym2612"
    },
    {
      "channel": 2,
      "note": 79,
      "start": 41.4916,
      "duration": 0.5833,
      "velocity": 97,
      "chip": "ym2612"
    },
    {
      "channel": 3,
      "note": 76,
      "start": 41.4921,
      "duration": 0.0978,
      "velocity": 97,
      "chip": "ym2612"
    },
    {
      "channel": 4,
      "note": 100,
      "start": 41.4927,
      "duration": 0.3987,
      "velocity": 117,
      "chip": "ym2612"
    },
    {
      "channel": 5,
      "note": 55,
      "start": 41.4948,
      "duration": 0.1998,
      "velocity": 118,
      "chip": "ym2612"
    },
    {
      "channel": 3,
      "note": 79,
      "start": 41.5901,
      "duration": 0.1024,
      "velocity": 97,
      "chip": "ym2612"
    },
    {
      "channel": 0,
      "note": 45,
      "start": 41.6898,
      "duration": 0.1999,
      "velocity": 104,
      "chip": "ym2612"
    },
    {
      "channel": 1,
      "note": 79,
      "start": 41.692,
      "duration": 0.1983,
      "velocity": 97,
      "chip": "ym2612"
    },
    {
      "channel": 3,
      "note": 84,
      "start": 41.6926,
      "duration": 0.0972,
      "velocity": 97,
      "chip": "ym2612"
    },
    {
      "channel": 5,
      "note": 74,
      "start": 41.6948,
      "duration": 0.0957,
      "velocity": 118,
      "chip": "ym2612"
    },
    {
      "channel": 3,
      "note": 88,
      "start": 41.79,
      "duration": 0.1008,
      "velocity": 97,
      "chip": "ym2612"
    },
    {
      "channel": 5,
      "note": 74,
      "start": 41.7906,
      "duration": 0.2856,
      "velocity": 118,
      "chip": "ym2612"
    },
    {
      "channel": 0,
      "note": 48,
      "start": 41.8899,
      "duration": 0.2845,
      "velocity": 104,
      "chip": "ym2612"
    },
    {
      "channel": 1,
      "note": 76,
      "start": 41.8904,
      "duration": 0.184,
      "velocity": 97,
      "chip": "ym2612"
    },
    {
      "channel": 3,
      "note": 76,
      "start": 41.891,
      "duration": 0.0835,
      "velocity": 97,
      "chip": "ym2612"
    },
    {
      "channel": 4,
      "note": 100,
      "start": 41.8916,
      "duration": 0.3846,
      "velocity": 117,
      "chip": "ym2612"
    },
    {
      "channel": 3,
      "note": 79,
      "start": 41.9747,
      "duration": 0.1008,
      "velocity": 97,
      "chip": "ym2612"
    },
    {
      "channel": 1,
      "note": 72,
      "start": 42.0745,
      "duration": 0.1999,
      "velocity": 97,
      "chip": "ym2612"
    },
    {
      "channel": 2,
      "note": 79,
      "start": 42.0751,
      "duration": 0.1999,
      "velocity": 97,
      "chip": "ym2612"
    },
    {
      "channel": 3,
      "note": 84,
      "start": 42.0756,
      "duration": 0.0994,
      "velocity": 97,
      "chip": "ym2612"
    },
    {
      "channel": 5,
      "note": 74,
      "start": 42.0763,
      "duration": 0.0993,
      "velocity": 118,
      "chip": "ym2612"
    },
    {
      "channel": 0,
      "note": 43,
      "start": 42.1745,
      "duration": 0.2999,
      "velocity": 104,
      "chip": "ym2612"
    },
    {
      "channel": 3,
      "note": 88,
      "start": 42.1752,
      "duration": 0.1004,
      "velocity": 97,
      "chip": "ym2612"
    },
    {
      "channel": 5,
      "note": 74,
      "start": 42.1758,
      "duration": 0.1024,
      "velocity": 119,
      "chip": "ym2612"
    },
    {
      "channel": 1,
      "note": 67,
      "start": 42.2746,
      "duration": 0.2003,
      "velocity": 97,
      "chip": "ym2612"
    },
    {
      "channel": 2,
      "note": 76,
      "start": 42.2752,
      "duration": 0.2002,
      "velocity": 97,
      "chip": "ym2612"
    },
    {
      "channel": 3,
      "note": 76,
      "start": 42.2758,
      "duration": 0.0988,
      "velocity": 97,
      "chip": "ym2612"
    },
    {
      "channel": 4,
      "note": 100,
      "start": 42.2763,
      "duration": 0.3998,
      "velocity": 117,
      "chip": "ym2612"
    },
    {
      "channel": 5,
      "note": 55,
      "start": 42.2784,
      "duration": 0.1998,
      "velocity": 118,
      "chip": "ym2612"
    },
    {
      "channel": 3,
      "note": 79,
      "start": 42.3747,
      "duration": 0.1013,
      "velocity": 97,
      "chip": "ym2612"
    },
    {
      "channel": 0,
      "note": 45,
      "start": 42.4745,
      "duration": 0.1998,
      "velocity": 104,
      "chip": "ym2612"
    },
    {
      "channel": 1,
      "note": 65,
      "start": 42.4751,
      "duration": 1.7712,
      "velocity": 102,
      "chip": "ym2612"
    },
    {
      "channel": 2,
      "note": 72,
      "start": 42.4756,
      "duration": 0.1993,
      "velocity": 97,
      "chip": "ym2612"
    },
    {
      "channel": 3,
      "note": 84,
      "start": 42.4762,
      "duration": 0.0983,
      "velocity": 97,
      "chip": "ym2612"
    },
    {
      "channel": 5,
      "note": 74,
      "start": 42.4784,
      "duration": 0.0968,
      "velocity": 118,
      "chip": "ym2612"
    },
    {
      "channel": 3,
      "note": 88,
      "start": 42.5747,
      "duration": 0.1008,
      "velocity": 97,
      "chip": "ym2612"
    },
    {
      "channel": 5,
      "note": 74,
      "start": 42.5754,
      "duration": 0.2865,
      "velocity": 118,
      "chip": "ym2612"
    },
    {
      "channel": 0,
      "note": 53,
      "start": 42.6745,
      "duration": 0.2845,
      "velocity": 104,
      "chip": "ym2612"
    },
    {
      "channel": 2,
      "note": 67,
      "start": 42.6751,
      "duration": 0.1855,
      "velocity": 97,
      "chip": "ym2612"
    },
    {
      "channel": 3,
      "note": 72,
      "start": 42.6757,
      "duration": 0.0834,
      "velocity": 97,
      "chip": "ym2612"
    },
    {
      "channel": 4,
      "note": 100,
      "start": 42.6763,
      "duration": 0.3834,
      "velocity": 117,
      "chip": "ym2612"
    },
    {
      "channel": 3,
      "note": 77,
      "start": 42.7593,
      "duration": 0.1018,
      "velocity": 97,
      "chip": "ym2612"
    },
    {
      "channel": 2,
      "note": 65,
      "start": 42.8608,
      "duration": 1.3876,
      "velocity": 102,
      "chip": "ym2612"
    },
    {
      "channel": 3,
      "note": 81,
      "start": 42.8613,
      "duration": 0.0983,
      "velocity": 97,
      "chip": "ym2612"
    },
    {
      "channel": 5,
      "note": 74,
      "start": 42.862,
      "duration": 0.0983,
      "velocity": 118,
      "chip": "ym2612"
    },
    {
      "channel": 0,
      "note": 48,
      "start": 42.9591,
      "duration": 0.2998,
      "velocity": 104,
      "chip": "ym2612"
    },
    {
      "channel": 3,
      "note": 84,
      "start": 42.9598,
      "duration": 0.0993,
      "velocity": 97,
      "chip": "ym2612"
    },
    {
      "channel": 5,
      "note": 74,
      "start": 42.9604,
      "duration": 0.1014,
      "velocity": 119,
      "chip": "ym2612"
    },
    {
      "channel": 3,
      "note": 72,
      "start": 43.0593,
      "duration": 0.0998,
      "velocity": 97,
      "chip": "ym2612"
    },
    {
      "channel": 4,
      "note": 100,
      "start": 43.0598,
      "duration": 0.4003,
      "velocity": 117,
      "chip": "ym2612"
    },
    {
      "channel": 5,
      "note": 55,
      "start": 43.062,
      "duration": 0.1998,
      "velocity": 118,
      "chip": "ym2612"
    },
    {
      "channel": 3,
      "note": 77,
      "start": 43.1592,
      "duration": 0.1004,
      "velocity": 97,
      "chip": "ym2612"
    },
    {
      "channel": 0,
      "note": 50,
      "start": 43.2591,
      "duration": 0.1999,
      "velocity": 104,
      "chip": "ym2612"
    },
    {
      "channel": 3,
      "note": 81,
      "start": 43.2597,
      "duration": 0.0994,
      "velocity": 97,
      "chip": "ym2612"
    },
    {
      "channel": 5,
      "note": 74,
      "start": 43.262,
      "duration": 0.0978,
      "velocity": 118,
      "chip": "ym2612"
    },
    {
      "channel": 3,
      "note": 84,
      "start": 43.3592,
      "duration": 0.1004,
      "velocity": 97,
      "chip": "ym2612"
    },
    {
      "channel": 5,
      "note": 74,
      "start": 43.3598,
      "duration": 0.2849,
      "velocity": 118,
      "chip": "ym2612"
    },
    {
      "channel": 0,
      "note": 53,
      "start": 43.4591,
      "duration": 0.2849,
      "velocity": 104,
      "chip": "ym2612"
    },
    {
      "channel": 3,
      "note": 72,
      "start": 43.4598,
      "duration": 0.0844,
      "velocity": 97,
      "chip": "ym2612"
    },
    {
      "channel": 4,
      "note": 100,
      "start": 43.4604,
      "duration": 0.3844,
      "velocity": 117,
      "chip": "ym2612"
    },
    {
      "channel": 3,
      "note": 77,
      "start": 43.5443,
      "duration": 0.0998,
      "velocity": 97,
      "chip": "ym2612"
    },
    {
      "channel": 3,
      "note": 81,
      "start": 43.6443,
      "duration": 0.1004,
      "velocity": 97,
      "chip": "ym2612"
    },
    {
      "channel": 5,
      "note": 74,
      "start": 43.645,
      "duration": 0.1003,
      "velocity": 118,
      "chip": "ym2612"
    },
    {
      "channel": 0,
      "note": 48,
      "start": 43.7441,
      "duration": 0.2998,
      "velocity": 104,
      "chip": "ym2612"
    },
    {
      "channel": 3,
      "note": 84,
      "start": 43.7448,
      "duration": 0.0994,
      "velocity": 97,
      "chip": "ym2612"
    },
    {
      "channel": 5,
      "note": 74,
      "start": 43.7454,
      "duration": 0.1015,
      "velocity": 119,
      "chip": "ym2612"
    },
    {
      "channel": 3,
      "note": 72,
      "start": 43.8443,
      "duration": 0.0998,
      "velocity": 97,
      "chip": "ym2612"
    },
    {
      "channel": 4,
      "note": 100,
      "start": 43.8449,
      "duration": 0.4046,
      "velocity": 117,
      "chip": "ym2612"
    },
    {
      "channel": 5,
      "note": 55,
      "start": 43.8471,
      "duration": 0.1997,
      "velocity": 118,
      "chip": "ym2612"
    },
    {
      "channel": 3,
      "note": 77,
      "start": 43.9443,
      "duration": 0.1004,
      "velocity": 97,
      "chip": "ym2612"
    },
    {
      "channel": 0,
      "note": 50,
      "start": 44.0441,
      "duration": 0.1999,
      "velocity": 104,
      "chip": "ym2612"
    },
    {
      "channel": 3,
      "note": 81,
      "start": 44.0448,
      "duration": 0.0994,
      "velocity": 97,
      "chip": "ym2612"
    },
    {
      "channel": 5,
      "note": 74,
      "start": 44.047,
      "duration": 0.0978,
      "velocity": 118,
      "chip": "ym2612"
    },
    {
      "channel": 3,
      "note": 84,
      "start": 44.1443,
      "duration": 0.1046,
      "velocity": 97,
      "chip": "ym2612"
    },
    {
      "channel": 5,
      "note": 74,
      "start": 44.145,
      "duration": 0.2849,
      "velocity": 118,
      "chip": "ym2612"
    },
    {
      "channel": 0,
      "note": 53,
      "start": 44.2443,
      "duration": 0.2847,
      "velocity": 104,
      "chip": "ym2612"
    },
    {
      "channel": 1,
      "note": 69,
      "start": 44.2464,
      "duration": 0.9678,
      "velocity": 102,
      "chip": "ym2612"
    },
    {
      "channel": 2,
      "note": 77,
      "start": 44.2485,
      "duration": 0.9662,
      "velocity": 102,
      "chip": "ym2612"
    },
    {
      "channel": 3,
      "note": 77,
      "start": 44.2491,
      "duration": 0.0802,
      "velocity": 97,
      "chip": "ym2612"
    },
    {
      "channel": 4,
      "note": 100,
      "start": 44.2498,
      "duration": 0.38,
      "velocity": 117,
      "chip": "ym2612"
    },
    {
      "channel": 3,
      "note": 81,
      "start": 44.3295,
      "duration": 0.0997,
      "velocity": 97,
      "chip": "ym2612"
    },
    {
      "channel": 3,
      "note": 84,
      "start": 44.4293,
      "duration": 0.1003,
      "velocity": 97,
      "chip": "ym2612"
    },
    {
      "channel": 5,
      "note": 74,
      "start": 44.43,
      "duration": 0.1002,
      "velocity": 118,
      "chip": "ym2612"
    },
    {
      "channel": 0,
      "note": 48,
      "start": 44.5291,
      "duration": 0.2999,
      "velocity": 104,
      "chip": "ym2612"
    },
    {
      "channel": 3,
      "note": 89,
      "start": 44.5298,
      "duration": 0.0994,
      "velocity": 97,
      "chip": "ym2612"
    },
    {
      "channel": 5,
      "note": 74,
      "start": 44.5305,
      "duration": 0.1015,
      "velocity": 119,
      "chip": "ym2612"
    },
    {
      "channel": 3,
      "note": 77,
      "start": 44.6294,
      "duration": 0.0998,
      "velocity": 97,
      "chip": "ym2612"
    },
    {
      "channel": 4,
      "note": 100,
      "start": 44.63,
      "duration": 0.4003,
      "velocity": 117,
      "chip": "ym2612"
    },
    {
      "channel": 5,
      "note": 55,
      "start": 44.6321,
      "duration": 0.1997,
      "velocity": 118,
      "chip": "ym2612"
    },
    {
      "channel": 3,
      "note": 81,
      "start": 44.7293,
      "duration": 0.1003,
      "velocity": 97,
      "chip": "ym2612"
    },
    {
      "channel": 0,
      "note": 50,
      "start": 44.8291,
      "duration": 0.1999,
      "velocity": 104,
      "chip": "ym2612"
    },
    {
      "channel": 3,
      "note": 84,
      "start": 44.8298,
      "duration": 0.0994,
      "velocity": 97,
      "chip": "ym2612"
    },
    {
      "channel": 5,
      "note": 74,
      "start": 44.8321,
      "duration": 0.0978,
      "velocity": 118,
      "chip": "ym2612"
    },
    {
      "channel": 3,
      "note": 89,
      "start": 44.9293,
      "duration": 0.1004,
      "velocity": 97,
      "chip": "ym2612"
    },
    {
      "channel": 5,
      "note": 74,
      "start": 44.93,
      "duration": 0.286,
      "velocity": 118,
      "chip": "ym2612"
    },
    {
      "channel": 0,
      "note": 53,
      "start": 45.0292,
      "duration": 0.2849,
      "velocity": 104,
      "chip": "ym2612"
    },
    {
      "channel": 3,
      "note": 77,
      "start": 45.0299,
      "duration": 0.0844,
      "velocity": 97,
      "chip": "ym2612"
    },
    {
      "channel": 4,
      "note": 100,
      "start": 45.0305,
      "duration": 0.3854,
      "velocity": 117,
      "chip": "ym2612"
    },
    {
      "channel": 3,
      "note": 81,
      "start": 45.1144,
      "duration": 0.1008,
      "velocity": 97,
      "chip": "ym2612"
    },
    {
      "channel": 1,
      "note": 67,
      "start": 45.2143,
      "duration": 0.1999,
      "velocity": 102,
      "chip": "ym2612"
    },
    {
      "channel": 2,
      "note": 76,
      "start": 45.2149,
      "duration": 0.1999,
      "velocity": 102,
      "chip": "ym2612"
    },
    {
      "channel": 3,
      "note": 84,
      "start": 45.2154,
      "duration": 0.0994,
      "velocity": 97,
      "chip": "ym2612"
    },
    {
      "channel": 5,
      "note": 74,
      "start": 45.2161,
      "duration": 0.0994,
      "velocity": 118,
      "chip": "ym2612"
    },
    {
      "channel": 0,
      "note": 48,
      "start": 45.3143,
      "duration": 0.2998,
      "velocity": 104,
      "chip": "ym2612"
    },
    {
      "channel": 3,
      "note": 89,
      "start": 45.315,
      "duration": 0.1004,
      "velocity": 97,
      "chip": "ym2612"
    },
    {
      "channel": 5,
      "note": 74,
      "start": 45.3156,
      "duration": 0.1024,
      "velocity": 119,
      "chip": "ym2612"
    },
    {
      "channel": 1,
      "note": 69,
      "start": 45.4144,
      "duration": 0.2002,
      "velocity": 102,
      "chip": "ym2612"
    },
    {
      "channel": 2,
      "note": 77,
      "start": 45.415,
      "duration": 0.2002,
      "velocity": 102,
      "chip": "ym2612"
    },
    {
      "channel": 3,
      "note": 77,
      "start": 45.4155,
      "duration": 0.0988,
      "velocity": 97,
      "chip": "ym2612"
    },
    {
      "channel": 4,
      "note": 100,
      "start": 45.416,
      "duration": 0.3993,
      "velocity": 117,
      "chip": "ym2612"
    },
    {
      "channel": 5,
      "note": 55,
      "start": 45.4182,
      "duration": 0.1998,
      "velocity": 118,
      "chip": "ym2612"
    },
    {
      "channel": 3,
      "note": 81,
      "start": 45.5145,
      "duration": 0.1013,
      "velocity": 97,
      "chip": "ym2612"
    },
    {
      "channel": 0,
      "note": 53,
      "start": 45.6143,
      "duration": 0.1999,
      "velocity": 104,
      "chip": "ym2612"
    },
    {
      "channel": 1,
      "note": 71,
      "start": 45.6148,
      "duration": 1.1695,
      "velocity": 102,
      "chip": "ym2612"
    },
    {
      "channel": 2,
      "note": 79,
      "start": 45.6154,
      "duration": 1.3695,
      "velocity": 102,
      "chip": "ym2612"
    },
    {
      "channel": 3,
      "note": 84,
      "start": 45.616,
      "duration": 0.0983,
      "velocity": 97,
      "chip": "ym2612"
    },
    {
      "channel": 5,
      "note": 74,
      "start": 45.6181,
      "duration": 0.0968,
      "velocity": 118,
      "chip": "ym2612"
    },
    {
      "channel": 3,
      "note": 89,
      "start": 45.7145,
      "duration": 0.1002,
      "velocity": 97,
      "chip": "ym2612"
    },
    {
      "channel": 5,
      "note": 74,
      "start": 45.7151,
      "duration": 0.2848,
      "velocity": 118,
      "chip": "ym2612"
    },
    {
      "channel": 0,
      "note": 55,
      "start": 45.8143,
      "duration": 0.2849,
      "velocity": 104,
      "chip": "ym2612"
    },
    {
      "channel": 3,
      "note": 74,
      "start": 45.815,
      "duration": 0.0844,
      "velocity": 97,
      "chip": "ym2612"
    },
    {
      "channel": 4,
      "note": 100,
      "start": 45.8155,
      "duration": 0.3844,
      "velocity": 117,
      "chip": "ym2612"
    },
    {
      "channel": 3,
      "note": 79,
      "start": 45.8995,
      "duration": 0.0998,
      "velocity": 97,
      "chip": "ym2612"
    },
    {
      "channel": 3,
      "note": 83,
      "start": 45.9994,
      "duration": 0.1003,
      "velocity": 97,
      "chip": "ym2612"
    },
    {
      "channel": 5,
      "note": 74,
      "start": 46.0001,
      "duration": 0.1002,
      "velocity": 118,
      "chip": "ym2612"
    },
    {
      "channel": 0,
      "note": 50,
      "start": 46.0993,
      "duration": 0.2999,
      "velocity": 104,
      "chip": "ym2612"
    },
    {
      "channel": 3,
      "note": 86,
      "start": 46.1,
      "duration": 0.0994,
      "velocity": 97,
      "chip": "ym2612"
    },
    {
      "channel": 5,
      "note": 74,
      "start": 46.1006,
      "duration": 0.1015,
      "velocity": 119,
      "chip": "ym2612"
    },
    {
      "channel": 3,
      "note": 74,
      "start": 46.1995,
      "duration": 0.0998,
      "velocity": 97,
      "chip": "ym2612"
    },
    {
      "channel": 4,
      "note": 100,
      "start": 46.2001,
      "duration": 0.4003,
      "velocity": 117,
      "chip": "ym2612"
    },
    {
      "channel": 5,
      "note": 55,
      "start": 46.2022,
      "duration": 0.1997,
      "velocity": 118,
      "chip": "ym2612"
    },
    {
      "channel": 3,
      "note": 79,
      "start": 46.2994,
      "duration": 0.1004,
      "velocity": 97,
      "chip": "ym2612"
    },
    {
      "channel": 0,
      "note": 52,
      "start": 46.3993,
      "duration": 0.1999,
      "velocity": 104,
      "chip": "ym2612"
    },
    {
      "channel": 3,
      "note": 83,
      "start": 46.4,
      "duration": 0.0994,
      "velocity": 97,
      "chip": "ym2612"
    },
    {
      "channel": 5,
      "note": 74,
      "start": 46.4022,
      "duration": 0.0978,
      "velocity": 118,
      "chip": "ym2612"
    },
    {
      "channel": 3,
      "note": 86,
      "start": 46.4995,
      "duration": 0.1003,
      "velocity": 97,
      "chip": "ym2612"
    },
    {
      "channel": 5,
      "note": 74,
      "start": 46.5001,
      "duration": 0.2854,
      "velocity": 118,
      "chip": "ym2612"
    },
    {
      "channel": 0,
      "note": 55,
      "start": 46.5993,
      "duration": 0.2849,
      "velocity": 104,
      "chip": "ym2612"
    },
    {
      "channel": 3,
      "note": 74,
      "start": 46.6,
      "duration": 0.0844,
      "velocity": 97,
      "chip": "ym2612"
    },
    {
      "channel": 4,
      "note": 100,
      "start": 46.6006,
      "duration": 0.3854,
      "velocity": 117,
      "chip": "ym2612"
    },
    {
      "channel": 3,
      "note": 79,
      "start": 46.6846,
      "duration": 0.1002,
      "velocity": 97,
      "chip": "ym2612"
    },
    {
      "channel": 1,
      "note": 69,
      "start": 46.7844,
      "duration": 0.1999,
      "velocity": 102,
      "chip": "ym2612"
    },
    {
      "channel": 3,
      "note": 83,
      "start": 46.7851,
      "duration": 0.0999,
      "velocity": 97,
      "chip": "ym2612"
    },
    {
      "channel": 5,
      "note": 74,
      "start": 46.7858,
      "duration": 0.0998,
      "velocity": 118,
      "chip": "ym2612"
    },
    {
      "channel": 0,
      "note": 50,
      "start": 46.8844,
      "duration": 0.2999,
      "velocity": 104,
      "chip": "ym2612"
    },
    {
      "channel": 3,
      "note": 86,
      "start": 46.8851,
      "duration": 0.1004,
      "velocity": 97,
      "chip": "ym2612"
    },
    {
      "channel": 5,
      "note": 74,
      "start": 46.8858,
      "duration": 0.1024,
      "velocity": 119,
      "chip": "ym2612"
    },
    {
      "channel": 1,
      "note": 71,
      "start": 46.9846,
      "duration": 0.0998,
      "velocity": 102,
      "chip": "ym2612"
    },
    {
      "channel": 2,
      "note": 74,
      "start": 46.9851,
      "duration": 0.2002,
      "velocity": 102,
      "chip": "ym2612"
    },
    {
      "channel": 3,
      "note": 74,
      "start": 46.9856,
      "duration": 0.0993,
      "velocity": 97,
      "chip": "ym2612"
    },
    {
      "channel": 4,
      "note": 100,
      "start": 46.9862,
      "duration": 0.4003,
      "velocity": 117,
      "chip": "ym2612"
    },
    {
      "channel": 5,
      "note": 55,
      "start": 46.9884,
      "duration": 0.1998,
      "velocity": 118,
      "chip": "ym2612"
    },
    {
      "channel": 1,
      "note": 72,
      "start": 47.0845,
      "duration": 0.1003,
      "velocity": 102,
      "chip": "ym2612"
    },
    {
      "channel": 3,
      "note": 79,
      "start": 47.0851,
      "duration": 0.1008,
      "velocity": 97,
      "chip": "ym2612"
    },
    {
      "channel": 0,
      "note": 52,
      "start": 47.1844,
      "duration": 0.1999,
      "velocity": 104,
      "chip": "ym2612"
    },
    {
      "channel": 1,
      "note": 74,
      "start": 47.185,
      "duration": 0.0994,
      "velocity": 102,
      "chip": "ym2612"
    },
    {
      "channel": 2,
      "note": 67,
      "start": 47.1856,
      "duration": 0.1999,
      "velocity": 102,
      "chip": "ym2612"
    },
    {
      "channel": 3,
      "note": 83,
      "start": 47.1861,
      "duration": 0.0988,
      "velocity": 97,
      "chip": "ym2612"
    },
    {
      "channel": 5,
      "note": 74,
      "start": 47.1883,
      "duration": 0.0973,
      "velocity": 118,
      "chip": "ym2612"
    },
    {
      "channel": 1,
      "note": 75,
      "start": 47.2845,
      "duration": 0.1004,
      "velocity": 102,
      "chip": "ym2612"
    },
    {
      "channel": 3,
      "note": 86,
      "start": 47.2851,
      "duration": 0.1008,
      "velocity": 97,
      "chip": "ym2612"
    },
    {
      "channel": 5,
      "note": 74,
      "start": 47.2858,
      "duration": 0.284,
      "velocity": 118,
      "chip": "ym2612"
    },
    {
      "channel": 0,
      "note": 48,
      "start": 47.3845,
      "duration": 0.2845,
      "velocity": 104,
      "chip": "ym2612"
    },
    {
      "channel": 1,
      "note": 76,
      "start": 47.3851,
      "duration": 1.5705,
      "velocity": 114,
      "chip": "ym2612"
    },
    {
      "channel": 2,
      "note": 72,
      "start": 47.3856,
      "duration": 1.5722,
      "velocity": 114,
      "chip": "ym2612"
    },
    {
      "channel": 3,
      "note": 76,
      "start": 47.3861,
      "duration": 0.0831,
      "velocity": 97,
      "chip": "ym2612"
    },
    {
      "channel": 4,
      "note": 100,
      "start": 47.3867,
      "duration": 0.383,
      "velocity": 117,
      "chip": "ym2612"
    },
    {
      "channel": 3,
      "note": 79,
      "start": 47.4694,
      "duration": 0.0997,
      "velocity": 97,
      "chip": "ym2612"
    },
    {
      "channel": 3,
      "note": 84,
      "start": 47.5693,
      "duration": 0.1004,
      "velocity": 97,
      "chip": "ym2612"
    },
    {
      "channel": 5,
      "note": 74,
      "start": 47.57,
      "duration": 0.1003,
      "velocity": 118,
      "chip": "ym2612"
    },
    {
      "channel": 0,
      "note": 43,
      "start": 47.6692,
      "duration": 0.2998,
      "velocity": 104,
      "chip": "ym2612"
    },
    {
      "channel": 3,
      "note": 88,
      "start": 47.6698,
      "duration": 0.0994,
      "velocity": 97,
      "chip": "ym2612"
    },
    {
      "channel": 5,
      "note": 74,
      "start": 47.6704,
      "duration": 0.1015,
      "velocity": 119,
      "chip": "ym2612"
    },
    {
      "channel": 3,
      "note": 76,
      "start": 47.7693,
      "duration": 0.0998,
      "velocity": 97,
      "chip": "ym2612"
    },
    {
      "channel": 4,
      "note": 100,
      "start": 47.7699,
      "duration": 0.4003,
      "velocity": 117,
      "chip": "ym2612"
    },
    {
      "channel": 5,
      "note": 55,
      "start": 47.7721,
      "duration": 0.1997,
      "velocity": 118,
      "chip": "ym2612"
    },
    {
      "channel": 3,
      "note": 79,
      "start": 47.8693,
      "duration": 0.1003,
      "velocity": 97,
      "chip": "ym2612"
    },
    {
      "channel": 0,
      "note": 45,
      "start": 47.9692,
      "duration": 0.1998,
      "velocity": 104,
      "chip": "ym2612"
    },
    {
      "channel": 3,
      "note": 84,
      "start": 47.9698,
      "duration": 0.0994,
      "velocity": 97,
      "chip": "ym2612"
    },
    {
      "channel": 5,
      "note": 74,
      "start": 47.972,
      "duration": 0.0978,
      "velocity": 118,
      "chip": "ym2612"
    },
    {
      "channel": 3,
      "note": 88,
      "start": 48.0693,
      "duration": 0.1004,
      "velocity": 97,
      "chip": "ym2612"
    },
    {
      "channel": 5,
      "note": 74,
      "start": 48.0699,
      "duration": 0.2843,
      "velocity": 118,
      "chip": "ym2612"
    },
    {
      "channel": 0,
      "note": 48,
      "start": 48.1692,
      "duration": 0.2842,
      "velocity": 104,
      "chip": "ym2612"
    },
    {
      "channel": 3,
      "note": 76,
      "start": 48.1699,
      "duration": 0.0837,
      "velocity": 97,
      "chip": "ym2612"
    },
    {
      "channel": 4,
      "note": 100,
      "start": 48.1704,
      "duration": 0.3838,
      "velocity": 117,
      "chip": "ym2612"
    },
    {
      "channel": 3,
      "note": 79,
      "start": 48.2538,
      "duration": 0.0998,
      "velocity": 97,
      "chip": "ym2612"
    },
    {
      "channel": 3,
      "note": 84,
      "start": 48.3537,
      "duration": 0.1003,
      "velocity": 97,
      "chip": "ym2612"
    },
    {
      "channel": 5,
      "note": 74,
      "start": 48.3544,
      "duration": 0.1002,
      "velocity": 118,
      "chip": "ym2612"
    },
    {
      "channel": 0,
      "note": 43,
      "start": 48.4535,
      "duration": 0.2999,
      "velocity": 104,
      "chip": "ym2612"
    },
    {
      "channel": 3,
      "note": 88,
      "start": 48.4542,
      "duration": 0.0994,
      "velocity": 97,
      "chip": "ym2612"
    },
    {
      "channel": 5,
      "note": 74,
      "start": 48.4549,
      "duration": 0.1015,
      "velocity": 119,
      "chip": "ym2612"
    },
    {
      "channel": 3,
      "note": 76,
      "start": 48.5538,
      "duration": 0.0998,
      "velocity": 97,
      "chip": "ym2612"
    },
    {
      "channel": 4,
      "note": 100,
      "start": 48.5544,
      "duration": 0.4045,
      "velocity": 117,
      "chip": "ym2612"
    },
    {
      "channel": 5,
      "note": 55,
      "start": 48.5565,
      "duration": 0.1997,
      "velocity": 118,
      "chip": "ym2612"
    },
    {
      "channel": 3,
      "note": 79,
      "start": 48.6537,
      "duration": 0.1003,
      "velocity": 97,
      "chip": "ym2612"
    },
    {
      "channel": 0,
      "note": 45,
      "start": 48.7535,
      "duration": 0.1999,
      "velocity": 104,
      "chip": "ym2612"
    },
    {
      "channel": 3,
      "note": 84,
      "start": 48.7542,
      "duration": 0.0994,
      "velocity": 97,
      "chip": "ym2612"
    },
    {
      "channel": 5,
      "note": 74,
      "start": 48.7565,
      "duration": 0.0978,
      "velocity": 118,
      "chip": "ym2612"
    },
    {
      "channel": 3,
      "note": 88,
      "start": 48.8537,
      "duration": 0.1046,
      "velocity": 97,
      "chip": "ym2612"
    },
    {
      "channel": 5,
      "note": 74,
      "start": 48.8544,
      "duration": 0.2857,
      "velocity": 118,
      "chip": "ym2612"
    },
    {
      "channel": 0,
      "note": 53,
      "start": 48.9537,
      "duration": 0.2845,
      "velocity": 104,
      "chip": "ym2612"
    },
    {
      "channel": 1,
      "note": 77,
      "start": 48.9558,
      "duration": 0.1824,
      "velocity": 114,
      "chip": "ym2612"
    },
    {
      "channel": 2,
      "note": 81,
      "start": 48.9579,
      "duration": 0.1808,
      "velocity": 114,
      "chip": "ym2612"
    },
    {
      "channel": 3,
      "note": 72,
      "start": 48.9585,
      "duration": 0.0799,
      "velocity": 97,
      "chip": "ym2612"
    },
    {
      "channel": 4,
      "note": 100,
      "start": 48.959,
      "duration": 0.381,
      "velocity": 117,
      "chip": "ym2612"
    },
    {
      "channel": 3,
      "note": 77,
      "start": 49.0386,
      "duration": 0.1008,
      "velocity": 97,
      "chip": "ym2612"
    },
    {
      "channel": 1,
      "note": 72,
      "start": 49.1384,
      "duration": 0.1003,
      "velocity": 114,
      "chip": "ym2612"
    },
    {
      "channel": 2,
      "note": 77,
      "start": 49.139,
      "duration": 0.1003,
      "velocity": 114,
      "chip": "ym2612"
    },
    {
      "channel": 3,
      "note": 81,
      "start": 49.1395,
      "duration": 0.1003,
      "velocity": 97,
      "chip": "ym2612"
    },
    {
      "channel": 5,
      "note": 74,
      "start": 49.1402,
      "duration": 0.1002,
      "velocity": 118,
      "chip": "ym2612"
    },
    {
      "channel": 0,
      "note": 48,
      "start": 49.2383,
      "duration": 0.2999,
      "velocity": 104,
      "chip": "ym2612"
    },
    {
      "channel": 1,
      "note": 72,
      "start": 49.2389,
      "duration": 0.0994,
      "velocity": 114,
      "chip": "ym2612"
    },
    {
      "channel": 2,
      "note": 77,
      "start": 49.2395,
      "duration": 0.0994,
      "velocity": 114,
      "chip": "ym2612"
    },
    {
      "channel": 3,
      "note": 84,
      "start": 49.24,
      "duration": 0.0994,
      "velocity": 97,
      "chip": "ym2612"
    },
    {
      "channel": 5,
      "note": 74,
      "start": 49.2407,
      "duration": 0.1014,
      "velocity": 119,
      "chip": "ym2612"
    },
    {
      "channel": 1,
      "note": 77,
      "start": 49.3384,
      "duration": 0.2002,
      "velocity": 114,
      "chip": "ym2612"
    },
    {
      "channel": 2,
      "note": 81,
      "start": 49.339,
      "duration": 0.2002,
      "velocity": 114,
      "chip": "ym2612"
    },
    {
      "channel": 3,
      "note": 72,
      "start": 49.3396,
      "duration": 0.0988,
      "velocity": 97,
      "chip": "ym2612"
    },
    {
      "channel": 4,
      "note": 100,
      "start": 49.3401,
      "duration": 0.4003,
      "velocity": 117,
      "chip": "ym2612"
    },
    {
      "channel": 5,
      "note": 55,
      "start": 49.3423,
      "duration": 0.1998,
      "velocity": 118,
      "chip": "ym2612"
    },
    {
      "channel": 3,
      "note": 77,
      "start": 49.4386,
      "duration": 0.1013,
      "velocity": 97,
      "chip": "ym2612"
    },
    {
      "channel": 0,
      "note": 50,
      "start": 49.5383,
      "duration": 0.1999,
      "velocity": 104,
      "chip": "ym2612"
    },
    {
      "channel": 1,
      "note": 81,
      "start": 49.5389,
      "duration": 0.1999,
      "velocity": 114,
      "chip": "ym2612"
    },
    {
      "channel": 2,
      "note": 84,
      "start": 49.5395,
      "duration": 0.1999,
      "velocity": 114,
      "chip": "ym2612"
    },
    {
      "channel": 3,
      "note": 81,
      "start": 49.54,
      "duration": 0.0983,
      "velocity": 97,
      "chip": "ym2612"
    },
    {
      "channel": 5,
      "note": 74,
      "start": 49.5422,
      "duration": 0.0968,
      "velocity": 118,
      "chip": "ym2612"
    },
    {
      "channel": 3,
      "note": 84,
      "start": 49.6386,
      "duration": 0.1013,
      "velocity": 97,
      "chip": "ym2612"
    },
    {
      "channel": 5,
      "note": 74,
      "start": 49.6392,
      "duration": 0.2855,
      "velocity": 118,
      "chip": "ym2612"
    },
    {
      "channel": 0,
      "note": 53,
      "start": 49.7384,
      "duration": 0.2845,
      "velocity": 104,
      "chip": "ym2612"
    },
    {
      "channel": 1,
      "note": 81,
      "start": 49.739,
      "duration": 0.1839,
      "velocity": 114,
      "chip": "ym2612"
    },
    {
      "channel": 2,
      "note": 89,
      "start": 49.7395,
      "duration": 0.184,
      "velocity": 114,
      "chip": "ym2612"
    },
    {
      "channel": 3,
      "note": 72,
      "start": 49.74,
      "duration": 0.0831,
      "velocity": 97,
      "chip": "ym2612"
    },
    {
      "channel": 4,
      "note": 100,
      "start": 49.7406,
      "duration": 0.3841,
      "velocity": 117,
      "chip": "ym2612"
    },
    {
      "channel": 3,
      "note": 77,
      "start": 49.8233,
      "duration": 0.1008,
      "velocity": 97,
      "chip": "ym2612"
    },
    {
      "channel": 1,
      "note": 77,
      "start": 49.9231,
      "duration": 0.1003,
      "velocity": 114,
      "chip": "ym2612"
    },
    {
      "channel": 2,
      "note": 84,
      "start": 49.9237,
      "duration": 0.1003,
      "velocity": 114,
      "chip": "ym2612"
    },
    {
      "channel": 3,
      "note": 81,
      "start": 49.9242,
      "duration": 0.1003,
      "velocity": 97,
      "chip": "ym2612"
    },
    {
      "channel": 5,
      "note": 74,
      "start": 49.9249,
      "duration": 0.1002,
      "velocity": 118,
      "chip": "ym2612"
    },
    {
      "channel": 0,
      "note": 48,
      "start": 50.023,
      "duration": 0.2999,
      "velocity": 104,
      "chip": "ym2612"
    },
    {
      "channel": 1,
      "note": 77,
      "start": 50.0236,
      "duration": 0.0994,
      "velocity": 114,
      "chip": "ym2612"
    },
    {
      "channel": 2,
      "note": 84,
      "start": 50.0242,
      "duration": 0.0994,
      "velocity": 114,
      "chip": "ym2612"
    },
    {
      "channel": 3,
      "note": 84,
      "start": 50.0247,
      "duration": 0.0994,
      "velocity": 97,
      "chip": "ym2612"
    },
    {
      "channel": 5,
      "note": 74,
      "start": 50.0254,
      "duration": 0.1014,
      "velocity": 119,
      "chip": "ym2612"
    },
    {
      "channel": 1,
      "note": 81,
      "start": 50.1232,
      "duration": 0.2003,
      "velocity": 114,
      "chip": "ym2612"
    },
    {
      "channel": 2,
      "note": 89,
      "start": 50.1237,
      "duration": 0.2002,
      "velocity": 114,
      "chip": "ym2612"
    },
    {
      "channel": 3,
      "note": 72,
      "start": 50.1243,
      "duration": 0.0988,
      "velocity": 97,
      "chip": "ym2612"
    },
    {
      "channel": 4,
      "note": 100,
      "start": 50.1248,
      "duration": 0.4016,
      "velocity": 117,
      "chip": "ym2612"
    },
    {
      "channel": 5,
      "note": 55,
      "start": 50.127,
      "duration": 0.1998,
      "velocity": 118,
      "chip": "ym2612"
    },
    {
      "channel": 3,
      "note": 77,
      "start": 50.2232,
      "duration": 0.1013,
      "velocity": 97,
      "chip": "ym2612"
    },
    {
      "channel": 0,
      "note": 50,
      "start": 50.3231,
      "duration": 0.1999,
      "velocity": 104,
      "chip": "ym2612"
    },
    {
      "channel": 1,
      "note": 84,
      "start": 50.3236,
      "duration": 0.2015,
      "velocity": 97,
      "chip": "ym2612"
    },
    {
      "channel": 2,
      "note": 93,
      "start": 50.3242,
      "duration": 0.5876,
      "velocity": 97,
      "chip": "ym2612"
    },
    {
      "channel": 3,
      "note": 81,
      "start": 50.3247,
      "duration": 0.0983,
      "velocity": 97,
      "chip": "ym2612"
    },
    {
      "channel": 5,
      "note": 74,
      "start": 50.3269,
      "duration": 0.0968,
      "velocity": 118,
      "chip": "ym2612"
    },
    {
      "channel": 3,
      "note": 84,
      "start": 50.4233,
      "duration": 0.1025,
      "velocity": 97,
      "chip": "ym2612"
    },
    {
      "channel": 5,
      "note": 74,
      "start": 50.4239,
      "duration": 0.2853,
      "velocity": 118,
      "chip": "ym2612"
    },
    {
      "channel": 0,
      "note": 53,
      "start": 50.5232,
      "duration": 0.2852,
      "velocity": 104,
      "chip": "ym2612"
    },
    {
      "channel": 1,
      "note": 84,
      "start": 50.5253,
      "duration": 0.9698,
      "velocity": 97,
      "chip": "ym2612"
    },
    {
      "channel": 3,
      "note": 77,
      "start": 50.526,
      "duration": 0.0827,
      "velocity": 97,
      "chip": "ym2612"
    },
    {
      "channel": 4,
      "note": 100,
      "start": 50.5266,
      "duration": 0.3863,
      "velocity": 117,
      "chip": "ym2612"
    },
    {
      "channel": 3,
      "note": 81,
      "start": 50.6088,
      "duration": 0.0997,
      "velocity": 97,
      "chip": "ym2612"
    },
    {
      "channel": 3,
      "note": 84,
      "start": 50.7087,
      "duration": 0.1003,
      "velocity": 97,
      "chip": "ym2612"
    },
    {
      "channel": 5,
      "note": 74,
      "start": 50.7094,
      "duration": 0.1002,
      "velocity": 118,
      "chip": "ym2612"
    },
    {
      "channel": 0,
      "note": 48,
      "start": 50.8085,
      "duration": 0.2999,
      "velocity": 104,
      "chip": "ym2612"
    },
    {
      "channel": 3,
      "note": 89,
      "start": 50.8092,
      "duration": 0.103,
      "velocity": 97,
      "chip": "ym2612"
    },
    {
      "channel": 5,
      "note": 74,
      "start": 50.8099,
      "duration": 0.1051,
      "velocity": 119,
      "chip": "ym2612"
    },
    {
      "channel": 2,
      "note": 84,
      "start": 50.9119,
      "duration": 0.9827,
      "velocity": 97,
      "chip": "ym2612"
    },
    {
      "channel": 3,
      "note": 77,
      "start": 50.9125,
      "duration": 0.0962,
      "velocity": 97,
      "chip": "ym2612"
    },
    {
      "channel": 4,
      "note": 100,
      "start": 50.913,
      "duration": 0.3966,
      "velocity": 117,
      "chip": "ym2612"
    },
    {
      "channel": 5,
      "note": 55,
      "start": 50.9152,
      "duration": 0.1961,
      "velocity": 118,
      "chip": "ym2612"
    },
    {
      "channel": 3,
      "note": 81,
      "start": 51.0088,
      "duration": 0.1002,
      "velocity": 97,
      "chip": "ym2612"
    },
    {
      "channel": 0,
      "note": 50,
      "start": 51.1085,
      "duration": 0.1999,
      "velocity": 104,
      "chip": "ym2612"
    },
    {
      "channel": 3,
      "note": 84,
      "start": 51.1092,
      "duration": 0.0994,
      "velocity": 97,
      "chip": "ym2612"
    },
    {
      "channel": 5,
      "note": 74,
      "start": 51.1115,
      "duration": 0.0978,
      "velocity": 118,
      "chip": "ym2612"
    },
    {
      "channel": 3,
      "note": 89,
      "start": 51.2087,
      "duration": 0.1004,
      "velocity": 97,
      "chip": "ym2612"
    },
    {
      "channel": 5,
      "note": 74,
      "start": 51.2093,
      "duration": 0.287,
      "velocity": 118,
      "chip": "ym2612"
    },
    {
      "channel": 0,
      "note": 53,
      "start": 51.3086,
      "duration": 0.2849,
      "velocity": 104,
      "chip": "ym2612"
    },
    {
      "channel": 3,
      "note": 77,
      "start": 51.3093,
      "duration": 0.0844,
      "velocity": 97,
      "chip": "ym2612"
    },
    {
      "channel": 4,
      "note": 100,
      "start": 51.3099,
      "duration": 0.3849,
      "velocity": 117,
      "chip": "ym2612"
    },
    {
      "channel": 3,
      "note": 81,
      "start": 51.3938,
      "duration": 0.1019,
      "velocity": 97,
      "chip": "ym2612"
    },
    {
      "channel": 1,
      "note": 83,
      "start": 51.4953,
      "duration": 0.1983,
      "velocity": 97,
      "chip": "ym2612"
    },
    {
      "channel": 3,
      "note": 84,
      "start": 51.4959,
      "duration": 0.0983,
      "velocity": 97,
      "chip": "ym2612"
    },
    {
      "channel": 5,
      "note": 74,
      "start": 51.4966,
      "duration": 0.0982,
      "velocity": 118,
      "chip": "ym2612"
    },
    {
      "channel": 0,
      "note": 48,
      "start": 51.5937,
      "duration": 0.2999,
      "velocity": 104,
      "chip": "ym2612"
    },
    {
      "channel": 3,
      "note": 89,
      "start": 51.5944,
      "duration": 0.0998,
      "velocity": 97,
      "chip": "ym2612"
    },
    {
      "channel": 5,
      "note": 74,
      "start": 51.595,
      "duration": 0.1019,
      "velocity": 119,
      "chip": "ym2612"
    },
    {
      "channel": 1,
      "note": 81,
      "start": 51.6937,
      "duration": 0.2004,
      "velocity": 97,
      "chip": "ym2612"
    },
    {
      "channel": 3,
      "note": 77,
      "start": 51.6944,
      "duration": 0.0993,
      "velocity": 97,
      "chip": "ym2612"
    },
    {
      "channel": 4,
      "note": 100,
      "start": 51.6949,
      "duration": 0.4003,
      "velocity": 117,
      "chip": "ym2612"
    },
    {
      "channel": 5,
      "note": 55,
      "start": 51.6971,
      "duration": 0.2003,
      "velocity": 118,
      "chip": "ym2612"
    },
    {
      "channel": 3,
      "note": 81,
      "start": 51.7938,
      "duration": 0.1013,
      "velocity": 97,
      "chip": "ym2612"
    },
    {
      "channel": 0,
      "note": 53,
      "start": 51.8937,
      "duration": 0.1998,
      "velocity": 104,
      "chip": "ym2612"
    },
    {
      "channel": 1,
      "note": 83,
      "start": 51.8942,
      "duration": 0.3839,
      "velocity": 97,
      "chip": "ym2612"
    },
    {
      "channel": 2,
      "note": 83,
      "start": 51.8948,
      "duration": 0.1993,
      "velocity": 97,
      "chip": "ym2612"
    },
    {
      "channel": 3,
      "note": 84,
      "start": 51.8954,
      "duration": 0.0983,
      "velocity": 97,
      "chip": "ym2612"
    },
    {
      "channel": 5,
      "note": 74,
      "start": 51.8975,
      "duration": 0.0968,
      "velocity": 118,
      "chip": "ym2612"
    },
    {
      "channel": 3,
      "note": 89,
      "start": 51.9938,
      "duration": 0.1008,
      "velocity": 97,
      "chip": "ym2612"
    },
    {
      "channel": 5,
      "note": 74,
      "start": 51.9945,
      "duration": 0.2855,
      "velocity": 118,
      "chip": "ym2612"
    },
    {
      "channel": 0,
      "note": 55,
      "start": 52.0937,
      "duration": 0.2844,
      "velocity": 104,
      "chip": "ym2612"
    },
    {
      "channel": 2,
      "note": 81,
      "start": 52.0943,
      "duration": 0.1844,
      "velocity": 97,
      "chip": "ym2612"
    },
    {
      "channel": 3,
      "note": 74,
      "start": 52.0949,
      "duration": 0.0834,
      "velocity": 97,
      "chip": "ym2612"
    },
    {
      "channel": 4,
      "note": 100,
      "start": 52.0954,
      "duration": 0.3839,
      "velocity": 117,
      "chip": "ym2612"
    },
    {
      "channel": 3,
      "note": 79,
      "start": 52.1785,
      "duration": 0.1008,
      "velocity": 97,
      "chip": "ym2612"
    },
    {
      "channel": 1,
      "note": 84,
      "start": 52.2783,
      "duration": 0.1999,
      "velocity": 97,
      "chip": "ym2612"
    },
    {
      "channel": 2,
      "note": 83,
      "start": 52.2789,
      "duration": 0.4003,
      "velocity": 97,
      "chip": "ym2612"
    },
    {
      "channel": 3,
      "note": 83,
      "start": 52.2795,
      "duration": 0.0993,
      "velocity": 97,
      "chip": "ym2612"
    },
    {
      "channel": 5,
      "note": 74,
      "start": 52.2802,
      "duration": 0.0992,
      "velocity": 118,
      "chip": "ym2612"
    },
    {
      "channel": 0,
      "note": 50,
      "start": 52.3783,
      "duration": 0.2999,
      "velocity": 104,
      "chip": "ym2612"
    },
    {
      "channel": 3,
      "note": 86,
      "start": 52.379,
      "duration": 0.0998,
      "velocity": 97,
      "chip": "ym2612"
    },
    {
      "channel": 5,
      "note": 74,
      "start": 52.3796,
      "duration": 0.1019,
      "velocity": 119,
      "chip": "ym2612"
    },
    {
      "channel": 1,
      "note": 86,
      "start": 52.4783,
      "duration": 0.2004,
      "velocity": 97,
      "chip": "ym2612"
    },
    {
      "channel": 3,
      "note": 74,
      "start": 52.479,
      "duration": 0.0993,
      "velocity": 97,
      "chip": "ym2612"
    },
    {
      "channel": 4,
      "note": 100,
      "start": 52.4795,
      "duration": 0.4003,
      "velocity": 117,
      "chip": "ym2612"
    },
    {
      "channel": 5,
      "note": 55,
      "start": 52.4817,
      "duration": 0.2003,
      "velocity": 118,
      "chip": "ym2612"
    },
    {
      "channel": 3,
      "note": 79,
      "start": 52.5784,
      "duration": 0.1013,
      "velocity": 97,
      "chip": "ym2612"
    },
    {
      "channel": 0,
      "note": 52,
      "start": 52.6783,
      "duration": 0.1998,
      "velocity": 104,
      "chip": "ym2612"
    },
    {
      "channel": 1,
      "note": 79,
      "start": 52.6788,
      "duration": 0.384,
      "velocity": 97,
      "chip": "ym2612"
    },
    {
      "channel": 2,
      "note": 84,
      "start": 52.6794,
      "duration": 0.1993,
      "velocity": 97,
      "chip": "ym2612"
    },
    {
      "channel": 3,
      "note": 83,
      "start": 52.68,
      "duration": 0.0983,
      "velocity": 97,
      "chip": "ym2612"
    },
    {
      "channel": 5,
      "note": 74,
      "start": 52.6821,
      "duration": 0.0968,
      "velocity": 118,
      "chip": "ym2612"
    },
    {
      "channel": 3,
      "note": 86,
      "start": 52.7784,
      "duration": 0.1008,
      "velocity": 97,
      "chip": "ym2612"
    },
    {
      "channel": 5,
      "note": 74,
      "start": 52.7791,
      "duration": 0.2856,
      "velocity": 118,
      "chip": "ym2612"
    },
    {
      "channel": 0,
      "note": 55,
      "start": 52.8783,
      "duration": 0.2845,
      "velocity": 104,
      "chip": "ym2612"
    },
    {
      "channel": 2,
      "note": 86,
      "start": 52.8789,
      "duration": 0.1845,
      "velocity": 97,
      "chip": "ym2612"
    },
    {
      "channel": 3,
      "note": 74,
      "start": 52.8795,
      "duration": 0.0835,
      "velocity": 97,
      "chip": "ym2612"
    },
    {
      "channel": 4,
      "note": 100,
      "start": 52.88,
      "duration": 0.384,
      "velocity": 117,
      "chip": "ym2612"
    },
    {
      "channel": 3,
      "note": 79,
      "start": 52.9632,
      "duration": 0.1008,
      "velocity": 97,
      "chip": "ym2612"
    },
    {
      "channel": 1,
      "note": 77,
      "start": 53.063,
      "duration": 0.1999,
      "velocity": 97,
      "chip": "ym2612"
    },
    {
      "channel": 2,
      "note": 79,
      "start": 53.0636,
      "duration": 0.4003,
      "velocity": 97,
      "chip": "ym2612"
    },
    {
      "channel": 3,
      "note": 83,
      "start": 53.0641,
      "duration": 0.0993,
      "velocity": 97,
      "chip": "ym2612"
    },
    {
      "channel": 5,
      "note": 74,
      "start": 53.0648,
      "duration": 0.0992,
      "velocity": 118,
      "chip": "ym2612"
    },
    {
      "channel": 0,
      "note": 50,
      "start": 53.1629,
      "duration": 0.2999,
      "velocity": 104,
      "chip": "ym2612"
    },
    {
      "channel": 3,
      "note": 86,
      "start": 53.1636,
      "duration": 0.0998,
      "velocity": 97,
      "chip": "ym2612"
    },
    {
      "channel": 5,
      "note": 74,
      "start": 53.1643,
      "duration": 0.1019,
      "velocity": 119,
      "chip": "ym2612"
    },
    {
      "channel": 1,
      "note": 76,
      "start": 53.263,
      "duration": 0.2004,
      "velocity": 97,
      "chip": "ym2612"
    },
    {
      "channel": 3,
      "note": 74,
      "start": 53.2636,
      "duration": 0.0993,
      "velocity": 97,
      "chip": "ym2612"
    },
    {
      "channel": 4,
      "note": 100,
      "start": 53.2642,
      "duration": 0.4008,
      "velocity": 117,
      "chip": "ym2612"
    },
    {
      "channel": 5,
      "note": 55,
      "start": 53.2663,
      "duration": 0.2003,
      "velocity": 118,
      "chip": "ym2612"
    },
    {
      "channel": 3,
      "note": 79,
      "start": 53.3631,
      "duration": 0.1013,
      "velocity": 97,
      "chip": "ym2612"
    },
    {
      "channel": 0,
      "note": 52,
      "start": 53.463,
      "duration": 0.1998,
      "velocity": 104,
      "chip": "ym2612"
    },
    {
      "channel": 1,
      "note": 74,
      "start": 53.4635,
      "duration": 0.1999,
      "velocity": 97,
      "chip": "ym2612"
    },
    {
      "channel": 2,
      "note": 77,
      "start": 53.4641,
      "duration": 0.1998,
      "velocity": 97,
      "chip": "ym2612"
    },
    {
      "channel": 3,
      "note": 83,
      "start": 53.4646,
      "duration": 0.0983,
      "velocity": 97,
      "chip": "ym2612"
    },
    {
      "channel": 5,
      "note": 74,
      "start": 53.4668,
      "duration": 0.0968,
      "velocity": 118,
      "chip": "ym2612"
    },
    {
      "channel": 3,
      "note": 86,
      "start": 53.5631,
      "duration": 0.1013,
      "velocity": 97,
      "chip": "ym2612"
    },
    {
      "channel": 5,
      "note": 74,
      "start": 53.5637,
      "duration": 0.285,
      "velocity": 118,
      "chip": "ym2612"
    },
    {
      "channel": 0,
      "note": 48,
      "start": 53.663,
      "duration": 0.2844,
      "velocity": 104,
      "chip": "ym2612"
    },
    {
      "channel": 1,
      "note": 76,
      "start": 53.6635,
      "duration": 0.7861,
      "velocity": 97,
      "chip": "ym2612"
    },
    {
      "channel": 2,
      "note": 76,
      "start": 53.6641,
      "duration": 0.1835,
      "velocity": 97,
      "chip": "ym2612"
    },
    {
      "channel": 3,
      "note": 76,
      "start": 53.6646,
      "duration": 0.083,
      "velocity": 97,
      "chip": "ym2612"
    },
    {
      "channel": 4,
      "note": 100,
      "start": 53.6652,
      "duration": 0.3851,
      "velocity": 117,
      "chip": "ym2612"
    },
    {
      "channel": 3,
      "note": 79,
      "start": 53.7479,
      "duration": 0.1002,
      "velocity": 97,
      "chip": "ym2612"
    },
    {
      "channel": 2,
      "note": 74,
      "start": 53.8477,
      "duration": 0.2015,
      "velocity": 97,
      "chip": "ym2612"
    },
    {
      "channel": 3,
      "note": 84,
      "start": 53.8483,
      "duration": 0.0999,
      "velocity": 97,
      "chip": "ym2612"
    },
    {
      "channel": 5,
      "note": 74,
      "start": 53.849,
      "duration": 0.0998,
      "velocity": 118,
      "chip": "ym2612"
    },
    {
      "channel": 0,
      "note": 43,
      "start": 53.9476,
      "duration": 0.2998,
      "velocity": 104,
      "chip": "ym2612"
    },
    {
      "channel": 3,
      "note": 88,
      "start": 53.9483,
      "duration": 0.1015,
      "velocity": 97,
      "chip": "ym2612"
    },
    {
      "channel": 5,
      "note": 74,
      "start": 53.949,
      "duration": 0.1035,
      "velocity": 119,
      "chip": "ym2612"
    },
    {
      "channel": 2,
      "note": 76,
      "start": 54.0494,
      "duration": 0.7829,
      "velocity": 97,
      "chip": "ym2612"
    },
    {
      "channel": 3,
      "note": 76,
      "start": 54.0499,
      "duration": 0.0978,
      "velocity": 97,
      "chip": "ym2612"
    },
    {
      "channel": 4,
      "note": 100,
      "start": 54.0505,
      "duration": 0.4003,
      "velocity": 117,
      "chip": "ym2612"
    },
    {
      "channel": 5,
      "note": 55,
      "start": 54.0526,
      "duration": 0.1976,
      "velocity": 118,
      "chip": "ym2612"
    },
    {
      "channel": 3,
      "note": 79,
      "start": 54.1479,
      "duration": 0.1002,
      "velocity": 97,
      "chip": "ym2612"
    },
    {
      "channel": 0,
      "note": 45,
      "start": 54.2476,
      "duration": 0.1999,
      "velocity": 104,
      "chip": "ym2612"
    },
    {
      "channel": 3,
      "note": 84,
      "start": 54.2483,
      "duration": 0.0994,
      "velocity": 97,
      "chip": "ym2612"
    },
    {
      "channel": 5,
      "note": 74,
      "start": 54.2505,
      "duration": 0.0978,
      "velocity": 118,
      "chip": "ym2612"
    },
    {
      "channel": 3,
      "note": 88,
      "start": 54.3477,
      "duration": 0.1025,
      "velocity": 97,
      "chip": "ym2612"
    },
    {
      "channel": 5,
      "note": 74,
      "start": 54.3484,
      "duration": 0.2846,
      "velocity": 118,
      "chip": "ym2612"
    },
    {
      "channel": 0,
      "note": 48,
      "start": 54.4476,
      "duration": 0.284,
      "velocity": 104,
      "chip": "ym2612"
    },
    {
      "channel": 1,
      "note": 72,
      "start": 54.4498,
      "duration": 0.1819,
      "velocity": 97,
      "chip": "ym2612"
    },
    {
      "channel": 3,
      "note": 76,
      "start": 54.4504,
      "duration": 0.0814,
      "velocity": 97,
      "chip": "ym2612"
    },
    {
      "channel": 4,
      "note": 100,
      "start": 54.451,
      "duration": 0.3825,
      "velocity": 117,
      "chip": "ym2612"
    },
    {
      "channel": 3,
      "note": 79,
      "start": 54.532,
      "duration": 0.1002,
      "velocity": 97,
      "chip": "ym2612"
    },
    {
      "channel": 1,
      "note": 67,
      "start": 54.6318,
      "duration": 0.1999,
      "velocity": 97,
      "chip": "ym2612"
    },
    {
      "channel": 3,
      "note": 84,
      "start": 54.6324,
      "duration": 0.0999,
      "velocity": 97,
      "chip": "ym2612"
    },
    {
      "channel": 5,
      "note": 74,
      "start": 54.6331,
      "duration": 0.0998,
      "velocity": 118,
      "chip": "ym2612"
    },
    {
      "channel": 0,
      "note": 43,
      "start": 54.7318,
      "duration": 0.2999,
      "velocity": 104,
      "chip": "ym2612"
    },
    {
      "channel": 3,
      "note": 88,
      "start": 54.7325,
      "duration": 0.1004,
      "velocity": 97,
      "chip": "ym2612"
    },
    {
      "channel": 5,
      "note": 74,
      "start": 54.7331,
      "duration": 0.1024,
      "velocity": 119,
      "chip": "ym2612"
    },
    {
      "channel": 1,
      "note": 64,
      "start": 54.8319,
      "duration": 0.2003,
      "velocity": 97,
      "chip": "ym2612"
    },
    {
      "channel": 2,
      "note": 72,
      "start": 54.8325,
      "duration": 0.2002,
      "velocity": 97,
      "chip": "ym2612"
    },
    {
      "channel": 3,
      "note": 76,
      "start": 54.8331,
      "duration": 0.0988,
      "velocity": 97,
      "chip": "ym2612"
    },
    {
      "channel": 4,
      "note": 100,
      "start": 54.8336,
      "duration": 0.3998,
      "velocity": 117,
      "chip": "ym2612"
    },
    {
      "channel": 5,
      "note": 55,
      "start": 54.8357,
      "duration": 0.1998,
      "velocity": 118,
      "chip": "ym2612"
    },
    {
      "channel": 3,
      "note": 79,
      "start": 54.932,
      "duration": 0.1013,
      "velocity": 97,
      "chip": "ym2612"
    },
    {
      "channel": 0,
      "note": 45,
      "start": 55.0318,
      "duration": 0.1998,
      "velocity": 104,
      "chip": "ym2612"
    },
    {
      "channel": 1,
      "note": 69,
      "start": 55.0324,
      "duration": 1.7714,
      "velocity": 102,
      "chip": "ym2612"
    },
    {
      "channel": 2,
      "note": 67,
      "start": 55.0329,
      "duration": 0.1993,
      "velocity": 97,
      "chip": "ym2612"
    },
    {
      "channel": 3,
      "note": 84,
      "start": 55.0335,
      "duration": 0.0983,
      "velocity": 97,
      "chip": "ym2612"
    },
    {
      "channel": 5,
      "note": 74,
      "start": 55.0357,
      "duration": 0.0968,
      "velocity": 118,
      "chip": "ym2612"
    },
    {
      "channel": 3,
      "note": 88,
      "start": 55.132,
      "duration": 0.1008,
      "velocity": 97,
      "chip": "ym2612"
    },
    {
      "channel": 5,
      "note": 74,
      "start": 55.1326,
      "duration": 0.2866,
      "velocity": 118,
      "chip": "ym2612"
    },
    {
      "channel": 0,
      "note": 53,
      "start": 55.2318,
      "duration": 0.2845,
      "velocity": 104,
      "chip": "ym2612"
    },
    {
      "channel": 2,
      "note": 64,
      "start": 55.2324,
      "duration": 0.1856,
      "velocity": 97,
      "chip": "ym2612"
    },
    {
      "channel": 3,
      "note": 72,
      "start": 55.233,
      "duration": 0.0835,
      "velocity": 97,
      "chip": "ym2612"
    },
    {
      "channel": 4,
      "note": 100,
      "start": 55.2336,
      "duration": 0.3835,
      "velocity": 117,
      "chip": "ym2612"
    },
    {
      "channel": 3,
      "note": 77,
      "start": 55.3167,
      "duration": 0.1018,
      "velocity": 97,
      "chip": "ym2612"
    },
    {
      "channel": 2,
      "note": 69,
      "start": 55.4182,
      "duration": 1.3877,
      "velocity": 102,
      "chip": "ym2612"
    },
    {
      "channel": 3,
      "note": 81,
      "start": 55.4187,
      "duration": 0.0983,
      "velocity": 97,
      "chip": "ym2612"
    },
    {
      "channel": 5,
      "note": 74,
      "start": 55.4194,
      "duration": 0.0983,
      "velocity": 118,
      "chip": "ym2612"
    },
    {
      "channel": 0,
      "note": 48,
      "start": 55.5165,
      "duration": 0.2998,
      "velocity": 104,
      "chip": "ym2612"
    },
    {
      "channel": 3,
      "note": 84,
      "start": 55.5172,
      "duration": 0.0993,
      "velocity": 97,
      "chip": "ym2612"
    },
    {
      "channel": 5,
      "note": 74,
      "start": 55.5178,
      "duration": 0.1014,
      "velocity": 119,
      "chip": "ym2612"
    },
    {
      "channel": 3,
      "note": 72,
      "start": 55.6166,
      "duration": 0.0998,
      "velocity": 97,
      "chip": "ym2612"
    },
    {
      "channel": 4,
      "note": 100,
      "start": 55.6172,
      "duration": 0.4003,
      "velocity": 117,
      "chip": "ym2612"
    },
    {
      "channel": 5,
      "note": 55,
      "start": 55.6194,
      "duration": 0.1997,
      "velocity": 118,
      "chip": "ym2612"
    },
    {
      "channel": 3,
      "note": 77,
      "start": 55.7166,
      "duration": 0.1004,
      "velocity": 97,
      "chip": "ym2612"
    },
    {
      "channel": 0,
      "note": 50,
      "start": 55.8165,
      "duration": 0.1999,
      "velocity": 104,
      "chip": "ym2612"
    },
    {
      "channel": 3,
      "note": 81,
      "start": 55.8171,
      "duration": 0.0994,
      "velocity": 97,
      "chip": "ym2612"
    },
    {
      "channel": 5,
      "note": 74,
      "start": 55.8193,
      "duration": 0.0978,
      "velocity": 118,
      "chip": "ym2612"
    },
    {
      "channel": 3,
      "note": 84,
      "start": 55.9166,
      "duration": 0.1004,
      "velocity": 97,
      "chip": "ym2612"
    },
    {
      "channel": 5,
      "note": 74,
      "start": 55.9172,
      "duration": 0.2851,
      "velocity": 118,
      "chip": "ym2612"
    },
    {
      "channel": 0,
      "note": 53,
      "start": 56.0165,
      "duration": 0.285,
      "velocity": 104,
      "chip": "ym2612"
    },
    {
      "channel": 3,
      "note": 72,
      "start": 56.0172,
      "duration": 0.0845,
      "velocity": 97,
      "chip": "ym2612"
    },
    {
      "channel": 4,
      "note": 100,
      "start": 56.0177,
      "duration": 0.3845,
      "velocity": 117,
      "chip": "ym2612"
    },
    {
      "channel": 3,
      "note": 77,
      "start": 56.1018,
      "duration": 0.0998,
      "velocity": 97,
      "chip": "ym2612"
    },
    {
      "channel": 3,
      "note": 81,
      "start": 56.2017,
      "duration": 0.1004,
      "velocity": 97,
      "chip": "ym2612"
    },
    {
      "channel": 5,
      "note": 74,
      "start": 56.2024,
      "duration": 0.1003,
      "velocity": 118,
      "chip": "ym2612"
    },
    {
      "channel": 0,
      "note": 48,
      "start": 56.3016,
      "duration": 0.2998,
      "velocity": 104,
      "chip": "ym2612"
    },
    {
      "channel": 3,
      "note": 84,
      "start": 56.3023,
      "duration": 0.0994,
      "velocity": 97,
      "chip": "ym2612"
    },
    {
      "channel": 5,
      "note": 74,
      "start": 56.3029,
      "duration": 0.1015,
      "velocity": 119,
      "chip": "ym2612"
    },
    {
      "channel": 3,
      "note": 72,
      "start": 56.4018,
      "duration": 0.0998,
      "velocity": 97,
      "chip": "ym2612"
    },
    {
      "channel": 4,
      "note": 100,
      "start": 56.4024,
      "duration": 0.4062,
      "velocity": 117,
      "chip": "ym2612"
    },
    {
      "channel": 5,
      "note": 55,
      "start": 56.4046,
      "duration": 0.1997,
      "velocity": 118,
      "chip": "ym2612"
    },
    {
      "channel": 3,
      "note": 77,
      "start": 56.5018,
      "duration": 0.1003,
      "velocity": 97,
      "chip": "ym2612"
    },
    {
      "channel": 0,
      "note": 50,
      "start": 56.6016,
      "duration": 0.1999,
      "velocity": 104,
      "chip": "ym2612"
    },
    {
      "channel": 3,
      "note": 81,
      "start": 56.6023,
      "duration": 0.0994,
      "velocity": 97,
      "chip": "ym2612"
    },
    {
      "channel": 5,
      "note": 74,
      "start": 56.6045,
      "duration": 0.0978,
      "velocity": 118,
      "chip": "ym2612"
    },
    {
      "channel": 3,
      "note": 84,
      "start": 56.7018,
      "duration": 0.1061,
      "velocity": 102,
      "chip": "ym2612"
    },
    {
      "channel": 5,
      "note": 74,
      "start": 56.7024,
      "duration": 0.2848,
      "velocity": 118,
      "chip": "ym2612"
    },
    {
      "channel": 0,
      "note": 53,
      "start": 56.8017,
      "duration": 0.1846,
      "velocity": 104,
      "chip": "ym2612"
    },
    {
      "channel": 1,
      "note": 65,
      "start": 56.8039,
      "duration": 0.5848,
      "velocity": 102,
      "chip": "ym2612"
    },
    {
      "channel": 2,
      "note": 69,
      "start": 56.806,
      "duration": 0.5832,
      "velocity": 102,
      "chip": "ym2612"
    },
    {
      "channel": 3,
      "note": 72,
      "start": 56.8081,
      "duration": 0.5816,
      "velocity": 102,
      "chip": "ym2612"
    },
    {
      "channel": 4,
      "note": 100,
      "start": 56.8088,
      "duration": 0.3779,
      "velocity": 117,
      "chip": "ym2612"
    },
    {
      "channel": 0,
      "note": 53,
      "start": 56.9866,
      "duration": 0.1014,
      "velocity": 1,
      "chip": "ym2612"
    },
    {
      "channel": 5,
      "note": 74,
      "start": 56.9875,
      "duration": 0.1013,
      "velocity": 118,
      "chip": "ym2612"
    },
    {
      "channel": 0,
      "note": 55,
      "start": 57.0882,
      "duration": 0.2999,
      "velocity": 104,
      "chip": "ym2612"
    },
    {
      "channel": 5,
      "note": 74,
      "start": 57.0889,
      "duration": 0.0999,
      "velocity": 119,
      "chip": "ym2612"
    },
    {
      "channel": 4,
      "note": 100,
      "start": 57.1869,
      "duration": 0.3999,
      "velocity": 117,
      "chip": "ym2612"
    },
    {
      "channel": 5,
      "note": 55,
      "start": 57.189,
      "duration": 0.203,
      "velocity": 118,
      "chip": "ym2612"
    },
    {
      "channel": 0,
      "note": 53,
      "start": 57.3882,
      "duration": 0.9847,
      "velocity": 104,
      "chip": "ym2612"
    },
    {
      "channel": 1,
      "note": 65,
      "start": 57.3888,
      "duration": 0.9863,
      "velocity": 102,
      "chip": "ym2612"
    },
    {
      "channel": 2,
      "note": 69,
      "start": 57.3894,
      "duration": 0.9879,
      "velocity": 102,
      "chip": "ym2612"
    },
    {
      "channel": 3,
      "note": 72,
      "start": 57.39,
      "duration": 0.9894,
      "velocity": 102,
      "chip": "ym2612"
    },
    {
      "channel": 5,
      "note": 74,
      "start": 57.3921,
      "duration": 0.1013,
      "velocity": 118,
      "chip": "ym2612"
    },
    {
      "channel": 5,
      "note": 74,
      "start": 57.4936,
      "duration": 0.2781,
      "velocity": 118,
      "chip": "ym2612"
    },
    {
      "channel": 4,
      "note": 100,
      "start": 57.587,
      "duration": 0.3846,
      "velocity": 117,
      "chip": "ym2612"
    },
    {
      "channel": 5,
      "note": 74,
      "start": 57.7718,
      "duration": 0.0997,
      "velocity": 118,
      "chip": "ym2612"
    },
    {
      "channel": 5,
      "note": 74,
      "start": 57.8718,
      "duration": 0.1019,
      "velocity": 119,
      "chip": "ym2612"
    },
    {
      "channel": 4,
      "note": 100,
      "start": 57.9717,
      "duration": 0.4082,
      "velocity": 117,
      "chip": "ym2612"
    },
    {
      "channel": 5,
      "note": 55,
      "start": 57.9738,
      "duration": 0.1994,
      "velocity": 118,
      "chip": "ym2612"
    },
    {
      "channel": 5,
      "note": 74,
      "start": 58.1733,
      "duration": 0.0983,
      "velocity": 118,
      "chip": "ym2612"
    },
    {
      "channel": 5,
      "note": 74,
      "start": 58.2718,
      "duration": 0.2857,
      "velocity": 118,
      "chip": "ym2612"
    },
    {
      "channel": 0,
      "note": 55,
      "start": 58.3732,
      "duration": 0.1834,
      "velocity": 104,
      "chip": "ym2612"
    },
    {
      "channel": 1,
      "note": 67,
      "start": 58.3753,
      "duration": 0.5835,
      "velocity": 102,
      "chip": "ym2612"
    },
    {
      "channel": 2,
      "note": 71,
      "start": 58.3774,
      "duration": 0.582,
      "velocity": 102,
      "chip": "ym2612"
    },
    {
      "channel": 3,
      "note": 74,
      "start": 58.3795,
      "duration": 0.5804,
      "velocity": 102,
      "chip": "ym2612"
    },
    {
      "channel": 4,
      "note": 100,
      "start": 58.3801,
      "duration": 0.3768,
      "velocity": 117,
      "chip": "ym2612"
    },
    {
      "channel": 0,
      "note": 55,
      "start": 58.5568,
      "duration": 0.4015,
      "velocity": 104,
      "chip": "ym2612"
    },
    {
      "channel": 5,
      "note": 74,
      "start": 58.5576,
      "duration": 0.1009,
      "velocity": 118,
      "chip": "ym2612"
    },
    {
      "channel": 5,
      "note": 74,
      "start": 58.6587,
      "duration": 0.1002,
      "velocity": 119,
      "chip": "ym2612"
    },
    {
      "channel": 4,
      "note": 100,
      "start": 58.757,
      "duration": 0.3999,
      "velocity": 117,
      "chip": "ym2612"
    },
    {
      "channel": 5,
      "note": 55,
      "start": 58.7592,
      "duration": 0.203,
      "velocity": 118,
      "chip": "ym2612"
    },
    {
      "channel": 0,
      "note": 55,
      "start": 58.9584,
      "duration": 0.9847,
      "velocity": 104,
      "chip": "ym2612"
    },
    {
      "channel": 1,
      "note": 67,
      "start": 58.959,
      "duration": 0.9863,
      "velocity": 102,
      "chip": "ym2612"
    },
    {
      "channel": 2,
      "note": 71,
      "start": 58.9595,
      "duration": 0.9879,
      "velocity": 102,
      "chip": "ym2612"
    },
    {
      "channel": 3,
      "note": 74,
      "start": 58.9601,
      "duration": 0.9894,
      "velocity": 102,
      "chip": "ym2612"
    },
    {
      "channel": 5,
      "note": 74,
      "start": 58.9623,
      "duration": 0.1013,
      "velocity": 118,
      "chip": "ym2612"
    },
    {
      "channel": 5,
      "note": 74,
      "start": 59.0637,
      "duration": 0.2781,
      "velocity": 118,
      "chip": "ym2612"
    },
    {
      "channel": 4,
      "note": 100,
      "start": 59.1571,
      "duration": 0.3846,
      "velocity": 117,
      "chip": "ym2612"
    },
    {
      "channel": 5,
      "note": 74,
      "start": 59.342,
      "duration": 0.0997,
      "velocity": 118,
      "chip": "ym2612"
    },
    {
      "channel": 5,
      "note": 74,
      "start": 59.442,
      "duration": 0.1019,
      "velocity": 119,
      "chip": "ym2612"
    },
    {
      "channel": 4,
      "note": 100,
      "start": 59.5419,
      "duration": 0.4082,
      "velocity": 117,
      "chip": "ym2612"
    },
    {
      "channel": 5,
      "note": 55,
      "start": 59.544,
      "duration": 0.1994,
      "velocity": 118,
      "chip": "ym2612"
    },
    {
      "channel": 5,
      "note": 74,
      "start": 59.7435,
      "duration": 0.0983,
      "velocity": 118,
      "chip": "ym2612"
    },
    {
      "channel": 5,
      "note": 74,
      "start": 59.842,
      "duration": 0.2853,
      "velocity": 118,
      "chip": "ym2612"
    },
    {
      "channel": 0,
      "note": 48,
      "start": 59.9434,
      "duration": 0.3836,
      "velocity": 104,
      "chip": "ym2612"
    },
    {
      "channel": 1,
      "note": 76,
      "start": 59.9454,
      "duration": 3.1394,
      "velocity": 97,
      "chip": "ym2612"
    },
    {
      "channel": 2,
      "note": 72,
      "start": 59.9476,
      "duration": 3.1394,
      "velocity": 102,
      "chip": "ym2612"
    },
    {
      "channel": 3,
      "note": 67,
      "start": 59.9497,
      "duration": 3.1394,
      "velocity": 102,
      "chip": "ym2612"
    },
    {
      "channel": 4,
      "note": 100,
      "start": 59.9503,
      "duration": 0.379,
      "velocity": 117,
      "chip": "ym2612"
    },
    {
      "channel": 5,
      "note": 74,
      "start": 60.1274,
      "duration": 0.0998,
      "velocity": 118,
      "chip": "ym2612"
    },
    {
      "channel": 5,
      "note": 74,
      "start": 60.2274,
      "duration": 0.104,
      "velocity": 119,
      "chip": "ym2612"
    },
    {
      "channel": 0,
      "note": 43,
      "start": 60.3271,
      "duration": 0.1997,
      "velocity": 104,
      "chip": "ym2612"
    },
    {
      "channel": 4,
      "note": 100,
      "start": 60.3294,
      "duration": 0.3999,
      "velocity": 117,
      "chip": "ym2612"
    },
    {
      "channel": 5,
      "note": 55,
      "start": 60.3316,
      "duration": 0.1977,
      "velocity": 118,
      "chip": "ym2612"
    },
    {
      "channel": 0,
      "note": 45,
      "start": 60.5271,
      "duration": 0.1999,
      "velocity": 104,
      "chip": "ym2612"
    },
    {
      "channel": 5,
      "note": 74,
      "start": 60.5294,
      "duration": 0.0978,
      "velocity": 118,
      "chip": "ym2612"
    },
    {
      "channel": 5,
      "note": 74,
      "start": 60.6274,
      "duration": 0.2846,
      "velocity": 118,
      "chip": "ym2612"
    },
    {
      "channel": 0,
      "note": 48,
      "start": 60.7271,
      "duration": 0.2844,
      "velocity": 104,
      "chip": "ym2612"
    },
    {
      "channel": 4,
      "note": 100,
      "start": 60.7294,
      "duration": 0.3845,
      "velocity": 117,
      "chip": "ym2612"
    },
    {
      "channel": 5,
      "note": 74,
      "start": 60.9122,
      "duration": 0.1002,
      "velocity": 118,
      "chip": "ym2612"
    },
    {
      "channel": 0,
      "note": 60,
      "start": 61.0118,
      "duration": 0.0999,
      "velocity": 104,
      "chip": "ym2612"
    },
    {
      "channel": 5,
      "note": 74,
      "start": 61.0126,
      "duration": 0.1035,
      "velocity": 119,
      "chip": "ym2612"
    },
    {
      "channel": 0,
      "note": 43,
      "start": 61.1118,
      "duration": 0.1997,
      "velocity": 104,
      "chip": "ym2612"
    },
    {
      "channel": 4,
      "note": 100,
      "start": 61.1141,
      "duration": 0.3982,
      "velocity": 117,
      "chip": "ym2612"
    },
    {
      "channel": 5,
      "note": 55,
      "start": 61.1163,
      "duration": 0.1977,
      "velocity": 118,
      "chip": "ym2612"
    },
    {
      "channel": 0,
      "note": 45,
      "start": 61.3118,
      "duration": 0.1999,
      "velocity": 104,
      "chip": "ym2612"
    },
    {
      "channel": 5,
      "note": 74,
      "start": 61.3142,
      "duration": 0.0977,
      "velocity": 118,
      "chip": "ym2612"
    },
    {
      "channel": 5,
      "note": 74,
      "start": 61.4121,
      "duration": 0.2853,
      "velocity": 118,
      "chip": "ym2612"
    },
    {
      "channel": 0,
      "note": 48,
      "start": 61.5118,
      "duration": 0.3853,
      "velocity": 104,
      "chip": "ym2612"
    },
    {
      "channel": 4,
      "note": 100,
      "start": 61.5125,
      "duration": 0.3853,
      "velocity": 117,
      "chip": "ym2612"
    },
    {
      "channel": 5,
      "note": 74,
      "start": 61.6976,
      "duration": 0.0997,
      "velocity": 118,
      "chip": "ym2612"
    },
    {
      "channel": 5,
      "note": 74,
      "start": 61.7976,
      "duration": 0.1024,
      "velocity": 119,
      "chip": "ym2612"
    },
    {
      "channel": 0,
      "note": 43,
      "start": 61.8973,
      "duration": 0.1997,
      "velocity": 104,
      "chip": "ym2612"
    },
    {
      "channel": 4,
      "note": 100,
      "start": 61.898,
      "duration": 0.3998,
      "velocity": 117,
      "chip": "ym2612"
    },
    {
      "channel": 5,
      "note": 55,
      "start": 61.9002,
      "duration": 0.1993,
      "velocity": 118,
      "chip": "ym2612"
    },
    {
      "channel": 0,
      "note": 45,
      "start": 62.0972,
      "duration": 0.1999,
      "velocity": 104,
      "chip": "ym2612"
    },
    {
      "channel": 5,
      "note": 74,
      "start": 62.0996,
      "duration": 0.0978,
      "velocity": 118,
      "chip": "ym2612"
    },
    {
      "channel": 5,
      "note": 74,
      "start": 62.1976,
      "duration": 0.2858,
      "velocity": 118,
      "chip": "ym2612"
    },
    {
      "channel": 0,
      "note": 53,
      "start": 62.2973,
      "duration": 0.1851,
      "velocity": 104,
      "chip": "ym2612"
    },
    {
      "channel": 4,
      "note": 100,
      "start": 62.298,
      "duration": 0.3852,
      "velocity": 117,
      "chip": "ym2612"
    },
    {
      "channel": 0,
      "note": 54,
      "start": 62.4827,
      "duration": 0.1999,
      "velocity": 104,
      "chip": "ym2612"
    },
    {
      "channel": 5,
      "note": 74,
      "start": 62.4835,
      "duration": 0.0992,
      "velocity": 118,
      "chip": "ym2612"
    },
    {
      "channel": 5,
      "note": 74,
      "start": 62.583,
      "duration": 0.1024,
      "velocity": 119,
      "chip": "ym2612"
    },
    {
      "channel": 0,
      "note": 55,
      "start": 62.6827,
      "duration": 0.1998,
      "velocity": 104,
      "chip": "ym2612"
    },
    {
      "channel": 4,
      "note": 100,
      "start": 62.6834,
      "duration": 0.5862,
      "velocity": 97,
      "chip": "ym2612"
    },
    {
      "channel": 5,
      "note": 55,
      "start": 62.6856,
      "duration": 0.1993,
      "velocity": 118,
      "chip": "ym2612"
    },
    {
      "channel": 0,
      "note": 47,
      "start": 62.8827,
      "duration": 0.2001,
      "velocity": 104,
      "chip": "ym2612"
    },
    {
      "channel": 5,
      "note": 74,
      "start": 62.8851,
      "duration": 0.0978,
      "velocity": 118,
      "chip": "ym2612"
    },
    {
      "channel": 5,
      "note": 74,
      "start": 62.983,
      "duration": 0.2872,
      "velocity": 118,
      "chip": "ym2612"
    },
    {
      "channel": 0,
      "note": 60,
      "start": 63.0829,
      "duration": 0.2844,
      "velocity": 104,
      "chip": "ym2612"
    },
    {
      "channel": 1,
      "note": 72,
      "start": 63.085,
      "duration": 0.0825,
      "velocity": 97,
      "chip": "ym2612"
    },
    {
      "channel": 2,
      "note": 76,
      "start": 63.0872,
      "duration": 0.583,
      "velocity": 102,
      "chip": "ym2612"
    },
    {
      "channel": 3,
      "note": 72,
      "start": 63.0893,
      "duration": 0.5829,
      "velocity": 102,
      "chip": "ym2612"
    },
    {
      "channel": 1,
      "note": 76,
      "start": 63.1677,
      "duration": 0.0998,
      "velocity": 97,
      "chip": "ym2612"
    },
    {
      "channel": 1,
      "note": 79,
      "start": 63.2676,
      "duration": 0.1003,
      "velocity": 97,
      "chip": "ym2612"
    },
    {
      "channel": 4,
      "note": 84,
      "start": 63.2698,
      "duration": 0.0988,
      "velocity": 97,
      "chip": "ym2612"
    },
    {
      "channel": 5,
      "note": 74,
      "start": 63.2705,
      "duration": 0.0987,
      "velocity": 118,
      "chip": "ym2612"
    },
    {
      "channel": 0,
      "note": 60,
      "start": 63.3676,
      "duration": 0.0999,
      "velocity": 104,
      "chip": "ym2612"
    },
    {
      "channel": 1,
      "note": 84,
      "start": 63.3681,
      "duration": 0.0999,
      "velocity": 97,
      "chip": "ym2612"
    },
    {
      "channel": 4,
      "note": 79,
      "start": 63.3688,
      "duration": 0.1031,
      "velocity": 97,
      "chip": "ym2612"
    },
    {
      "channel": 5,
      "note": 74,
      "start": 63.3693,
      "duration": 0.1046,
      "velocity": 119,
      "chip": "ym2612"
    },
    {
      "channel": 0,
      "note": 55,
      "start": 63.4676,
      "duration": 0.1998,
      "velocity": 104,
      "chip": "ym2612"
    },
    {
      "channel": 1,
      "note": 72,
      "start": 63.4682,
      "duration": 0.0993,
      "velocity": 97,
      "chip": "ym2612"
    },
    {
      "channel": 4,
      "note": 81,
      "start": 63.472,
      "duration": 0.2008,
      "velocity": 97,
      "chip": "ym2612"
    },
    {
      "channel": 5,
      "note": 55,
      "start": 63.4741,
      "duration": 0.2009,
      "velocity": 118,
      "chip": "ym2612"
    },
    {
      "channel": 1,
      "note": 76,
      "start": 63.5677,
      "duration": 0.1003,
      "velocity": 97,
      "chip": "ym2612"
    },
    {
      "channel": 0,
      "note": 57,
      "start": 63.6676,
      "duration": 0.1998,
      "velocity": 104,
      "chip": "ym2612"
    },
    {
      "channel": 1,
      "note": 79,
      "start": 63.6682,
      "duration": 0.0993,
      "velocity": 97,
      "chip": "ym2612"
    },
    {
      "channel": 2,
      "note": 76,
      "start": 63.6703,
      "duration": 0.0978,
      "velocity": 102,
      "chip": "ym2612"
    },
    {
      "channel": 3,
      "note": 72,
      "start": 63.6724,
      "duration": 0.0962,
      "velocity": 102,
      "chip": "ym2612"
    },
    {
      "channel": 4,
      "note": 79,
      "start": 63.673,
      "duration": 0.3807,
      "velocity": 97,
      "chip": "ym2612"
    },
    {
      "channel": 5,
      "note": 74,
      "start": 63.6752,
      "duration": 0.0941,
      "velocity": 118,
      "chip": "ym2612"
    },
    {
      "channel": 1,
      "note": 84,
      "start": 63.7677,
      "duration": 0.1002,
      "velocity": 97,
      "chip": "ym2612"
    },
    {
      "channel": 2,
      "note": 76,
      "start": 63.7683,
      "duration": 0.1002,
      "velocity": 102,
      "chip": "ym2612"
    },
    {
      "channel": 3,
      "note": 72,
      "start": 63.7688,
      "duration": 0.1003,
      "velocity": 102,
      "chip": "ym2612"
    },
    {
      "channel": 5,
      "note": 74,
      "start": 63.7694,
      "duration": 0.285,
      "velocity": 118,
      "chip": "ym2612"
    },
    {
      "channel": 0,
      "note": 60,
      "start": 63.8676,
      "duration": 0.2845,
      "velocity": 104,
      "chip": "ym2612"
    },
    {
      "channel": 1,
      "note": 72,
      "start": 63.8681,
      "duration": 0.084,
      "velocity": 97,
      "chip": "ym2612"
    },
    {
      "channel": 2,
      "note": 77,
      "start": 63.8687,
      "duration": 0.1839,
      "velocity": 102,
      "chip": "ym2612"
    },
    {
      "channel": 3,
      "note": 74,
      "start": 63.8693,
      "duration": 0.1839,
      "velocity": 102,
      "chip": "ym2612"
    },
    {
      "channel": 1,
      "note": 76,
      "start": 63.9522,
      "duration": 0.0999,
      "velocity": 97,
      "chip": "ym2612"
    },
    {
      "channel": 1,
      "note": 79,
      "start": 64.0522,
      "duration": 0.1004,
      "velocity": 97,
      "chip": "ym2612"
    },
    {
      "channel": 2,
      "note": 76,
      "start": 64.0528,
      "duration": 0.2004,
      "velocity": 102,
      "chip": "ym2612"
    },
    {
      "channel": 3,
      "note": 72,
      "start": 64.0534,
      "duration": 0.2003,
      "velocity": 102,
      "chip": "ym2612"
    },
    {
      "channel": 4,
      "note": 84,
      "start": 64.0539,
      "duration": 0.0994,
      "velocity": 97,
      "chip": "ym2612"
    },
    {
      "channel": 5,
      "note": 74,
      "start": 64.0546,
      "duration": 0.0993,
      "velocity": 118,
      "chip": "ym2612"
    },
    {
      "channel": 0,
      "note": 60,
      "start": 64.1522,
      "duration": 0.0998,
      "velocity": 104,
      "chip": "ym2612"
    },
    {
      "channel": 1,
      "note": 84,
      "start": 64.1528,
      "duration": 0.0998,
      "velocity": 97,
      "chip": "ym2612"
    },
    {
      "channel": 4,
      "note": 79,
      "start": 64.1534,
      "duration": 0.1008,
      "velocity": 97,
      "chip": "ym2612"
    },
    {
      "channel": 5,
      "note": 74,
      "start": 64.154,
      "duration": 0.1024,
      "velocity": 119,
      "chip": "ym2612"
    },
    {
      "channel": 0,
      "note": 55,
      "start": 64.2522,
      "duration": 0.1998,
      "velocity": 104,
      "chip": "ym2612"
    },
    {
      "channel": 1,
      "note": 72,
      "start": 64.2528,
      "duration": 0.0993,
      "velocity": 97,
      "chip": "ym2612"
    },
    {
      "channel": 2,
      "note": 74,
      "start": 64.2533,
      "duration": 0.1999,
      "velocity": 102,
      "chip": "ym2612"
    },
    {
      "channel": 3,
      "note": 71,
      "start": 64.2539,
      "duration": 0.1998,
      "velocity": 102,
      "chip": "ym2612"
    },
    {
      "channel": 4,
      "note": 81,
      "start": 64.2544,
      "duration": 0.1998,
      "velocity": 97,
      "chip": "ym2612"
    },
    {
      "channel": 5,
      "note": 55,
      "start": 64.2566,
      "duration": 0.1998,
      "velocity": 118,
      "chip": "ym2612"
    },
    {
      "channel": 1,
      "note": 76,
      "start": 64.3523,
      "duration": 0.1003,
      "velocity": 97,
      "chip": "ym2612"
    },
    {
      "channel": 0,
      "note": 57,
      "start": 64.4522,
      "duration": 0.1998,
      "velocity": 104,
      "chip": "ym2612"
    },
    {
      "channel": 1,
      "note": 79,
      "start": 64.4528,
      "duration": 0.0993,
      "velocity": 97,
      "chip": "ym2612"
    },
    {
      "channel": 2,
      "note": 72,
      "start": 64.4533,
      "duration": 0.1998,
      "velocity": 102,
      "chip": "ym2612"
    },
    {
      "channel": 3,
      "note": 69,
      "start": 64.4539,
      "duration": 0.1998,
      "velocity": 102,
      "chip": "ym2612"
    },
    {
      "channel": 4,
      "note": 79,
      "start": 64.4544,
      "duration": 0.3829,
      "velocity": 97,
      "chip": "ym2612"
    },
    {
      "channel": 5,
      "note": 74,
      "start": 64.4566,
      "duration": 0.0963,
      "velocity": 118,
      "chip": "ym2612"
    },
    {
      "channel": 1,
      "note": 84,
      "start": 64.5523,
      "duration": 0.1003,
      "velocity": 97,
      "chip": "ym2612"
    },
    {
      "channel": 5,
      "note": 74,
      "start": 64.553,
      "duration": 0.2849,
      "velocity": 118,
      "chip": "ym2612"
    },
    {
      "channel": 0,
      "note": 55,
      "start": 64.6522,
      "duration": 0.2845,
      "velocity": 104,
      "chip": "ym2612"
    },
    {
      "channel": 1,
      "note": 74,
      "start": 64.6527,
      "duration": 0.084,
      "velocity": 97,
      "chip": "ym2612"
    },
    {
      "channel": 2,
      "note": 74,
      "start": 64.6533,
      "duration": 0.2846,
      "velocity": 102,
      "chip": "ym2612"
    },
    {
      "channel": 3,
      "note": 71,
      "start": 64.6539,
      "duration": 0.2845,
      "velocity": 102,
      "chip": "ym2612"
    },
    {
      "channel": 1,
      "note": 79,
      "start": 64.7369,
      "duration": 0.0998,
      "velocity": 97,
      "chip": "ym2612"
    },
    {
      "channel": 1,
      "note": 83,
      "start": 64.8368,
      "duration": 0.1004,
      "velocity": 97,
      "chip": "ym2612"
    },
    {
      "channel": 4,
      "note": 79,
      "start": 64.8375,
      "duration": 0.1014,
      "velocity": 97,
      "chip": "ym2612"
    },
    {
      "channel": 5,
      "note": 74,
      "start": 64.8382,
      "duration": 0.1013,
      "velocity": 118,
      "chip": "ym2612"
    },
    {
      "channel": 0,
      "note": 55,
      "start": 64.9369,
      "duration": 0.0998,
      "velocity": 104,
      "chip": "ym2612"
    },
    {
      "channel": 1,
      "note": 86,
      "start": 64.9375,
      "duration": 0.0998,
      "velocity": 97,
      "chip": "ym2612"
    },
    {
      "channel": 2,
      "note": 67,
      "start": 64.938,
      "duration": 0.0999,
      "velocity": 102,
      "chip": "ym2612"
    },
    {
      "channel": 3,
      "note": 62,
      "start": 64.9385,
      "duration": 0.0998,
      "velocity": 102,
      "chip": "ym2612"
    },
    {
      "channel": 4,
      "note": 74,
      "start": 64.9391,
      "duration": 0.0998,
      "velocity": 97,
      "chip": "ym2612"
    },
    {
      "channel": 5,
      "note": 74,
      "start": 64.9397,
      "duration": 0.1014,
      "velocity": 119,
      "chip": "ym2612"
    },
    {
      "channel": 0,
      "note": 50,
      "start": 65.0369,
      "duration": 0.1998,
      "velocity": 104,
      "chip": "ym2612"
    },
    {
      "channel": 1,
      "note": 74,
      "start": 65.0375,
      "duration": 0.0993,
      "velocity": 97,
      "chip": "ym2612"
    },
    {
      "channel": 2,
      "note": 67,
      "start": 65.038,
      "duration": 1.1857,
      "velocity": 102,
      "chip": "ym2612"
    },
    {
      "channel": 3,
      "note": 62,
      "start": 65.0385,
      "duration": 1.1873,
      "velocity": 102,
      "chip": "ym2612"
    },
    {
      "channel": 4,
      "note": 76,
      "start": 65.0391,
      "duration": 0.1988,
      "velocity": 97,
      "chip": "ym2612"
    },
    {
      "channel": 5,
      "note": 55,
      "start": 65.0413,
      "duration": 0.1987,
      "velocity": 118,
      "chip": "ym2612"
    },
    {
      "channel": 1,
      "note": 79,
      "start": 65.1369,
      "duration": 0.1002,
      "velocity": 97,
      "chip": "ym2612"
    },
    {
      "channel": 0,
      "note": 52,
      "start": 65.2368,
      "duration": 0.1999,
      "velocity": 104,
      "chip": "ym2612"
    },
    {
      "channel": 1,
      "note": 83,
      "start": 65.2374,
      "duration": 0.0993,
      "velocity": 97,
      "chip": "ym2612"
    },
    {
      "channel": 4,
      "note": 74,
      "start": 65.238,
      "duration": 0.3836,
      "velocity": 97,
      "chip": "ym2612"
    },
    {
      "channel": 5,
      "note": 74,
      "start": 65.2402,
      "duration": 0.0973,
      "velocity": 118,
      "chip": "ym2612"
    },
    {
      "channel": 1,
      "note": 86,
      "start": 65.3369,
      "duration": 0.1004,
      "velocity": 97,
      "chip": "ym2612"
    },
    {
      "channel": 5,
      "note": 74,
      "start": 65.3376,
      "duration": 0.2846,
      "velocity": 118,
      "chip": "ym2612"
    },
    {
      "channel": 0,
      "note": 55,
      "start": 65.4369,
      "duration": 0.2841,
      "velocity": 104,
      "chip": "ym2612"
    },
    {
      "channel": 1,
      "note": 74,
      "start": 65.4374,
      "duration": 0.0837,
      "velocity": 97,
      "chip": "ym2612"
    },
    {
      "channel": 1,
      "note": 79,
      "start": 65.5212,
      "duration": 0.0998,
      "velocity": 97,
      "chip": "ym2612"
    },
    {
      "channel": 1,
      "note": 83,
      "start": 65.6212,
      "duration": 0.1004,
      "velocity": 97,
      "chip": "ym2612"
    },
    {
      "channel": 4,
      "note": 79,
      "start": 65.6219,
      "duration": 0.1004,
      "velocity": 97,
      "chip": "ym2612"
    },
    {
      "channel": 5,
      "note": 74,
      "start": 65.6225,
      "duration": 0.1003,
      "velocity": 118,
      "chip": "ym2612"
    },
    {
      "channel": 0,
      "note": 55,
      "start": 65.7212,
      "duration": 0.0999,
      "velocity": 104,
      "chip": "ym2612"
    },
    {
      "channel": 1,
      "note": 86,
      "start": 65.7217,
      "duration": 0.0998,
      "velocity": 97,
      "chip": "ym2612"
    },
    {
      "channel": 4,
      "note": 74,
      "start": 65.7224,
      "duration": 0.0999,
      "velocity": 97,
      "chip": "ym2612"
    },
    {
      "channel": 5,
      "note": 74,
      "start": 65.7229,
      "duration": 0.1014,
      "velocity": 119,
      "chip": "ym2612"
    },
    {
      "channel": 0,
      "note": 57,
      "start": 65.8212,
      "duration": 0.1998,
      "velocity": 104,
      "chip": "ym2612"
    },
    {
      "channel": 1,
      "note": 74,
      "start": 65.8217,
      "duration": 0.0993,
      "velocity": 97,
      "chip": "ym2612"
    },
    {
      "channel": 4,
      "note": 76,
      "start": 65.8224,
      "duration": 0.1999,
      "velocity": 97,
      "chip": "ym2612"
    },
    {
      "channel": 5,
      "note": 55,
      "start": 65.8245,
      "duration": 0.1998,
      "velocity": 118,
      "chip": "ym2612"
    },
    {
      "channel": 1,
      "note": 79,
      "start": 65.9212,
      "duration": 0.1003,
      "velocity": 97,
      "chip": "ym2612"
    },
    {
      "channel": 0,
      "note": 55,
      "start": 66.0212,
      "duration": 0.1999,
      "velocity": 104,
      "chip": "ym2612"
    },
    {
      "channel": 1,
      "note": 83,
      "start": 66.0217,
      "duration": 0.0993,
      "velocity": 97,
      "chip": "ym2612"
    },
    {
      "channel": 4,
      "note": 74,
      "start": 66.0224,
      "duration": 0.3846,
      "velocity": 97,
      "chip": "ym2612"
    },
    {
      "channel": 5,
      "note": 74,
      "start": 66.0245,
      "duration": 0.0973,
      "velocity": 118,
      "chip": "ym2612"
    },
    {
      "channel": 1,
      "note": 86,
      "start": 66.1212,
      "duration": 0.1004,
      "velocity": 97,
      "chip": "ym2612"
    },
    {
      "channel": 5,
      "note": 74,
      "start": 66.122,
      "duration": 0.2856,
      "velocity": 118,
      "chip": "ym2612"
    },
    {
      "channel": 0,
      "note": 57,
      "start": 66.2212,
      "duration": 0.285,
      "velocity": 104,
      "chip": "ym2612"
    },
    {
      "channel": 1,
      "note": 72,
      "start": 66.2217,
      "duration": 0.0846,
      "velocity": 97,
      "chip": "ym2612"
    },
    {
      "channel": 2,
      "note": 72,
      "start": 66.2239,
      "duration": 0.5851,
      "velocity": 102,
      "chip": "ym2612"
    },
    {
      "channel": 3,
      "note": 69,
      "start": 66.2261,
      "duration": 0.5851,
      "velocity": 102,
      "chip": "ym2612"
    },
    {
      "channel": 1,
      "note": 76,
      "start": 66.3065,
      "duration": 0.0998,
      "velocity": 97,
      "chip": "ym2612"
    },
    {
      "channel": 1,
      "note": 81,
      "start": 66.4064,
      "duration": 0.1004,
      "velocity": 97,
      "chip": "ym2612"
    },
    {
      "channel": 4,
      "note": 84,
      "start": 66.4071,
      "duration": 0.1004,
      "velocity": 97,
      "chip": "ym2612"
    },
    {
      "channel": 5,
      "note": 74,
      "start": 66.4078,
      "duration": 0.1003,
      "velocity": 118,
      "chip": "ym2612"
    },
    {
      "channel": 0,
      "note": 57,
      "start": 66.5064,
      "duration": 0.0999,
      "velocity": 104,
      "chip": "ym2612"
    },
    {
      "channel": 1,
      "note": 84,
      "start": 66.507,
      "duration": 0.0999,
      "velocity": 97,
      "chip": "ym2612"
    },
    {
      "channel": 4,
      "note": 79,
      "start": 66.5076,
      "duration": 0.1031,
      "velocity": 97,
      "chip": "ym2612"
    },
    {
      "channel": 5,
      "note": 74,
      "start": 66.5082,
      "duration": 0.1046,
      "velocity": 119,
      "chip": "ym2612"
    },
    {
      "channel": 0,
      "note": 52,
      "start": 66.6065,
      "duration": 0.1998,
      "velocity": 104,
      "chip": "ym2612"
    },
    {
      "channel": 1,
      "note": 72,
      "start": 66.6071,
      "duration": 0.0993,
      "velocity": 97,
      "chip": "ym2612"
    },
    {
      "channel": 4,
      "note": 81,
      "start": 66.6109,
      "duration": 0.2008,
      "velocity": 97,
      "chip": "ym2612"
    },
    {
      "channel": 5,
      "note": 55,
      "start": 66.613,
      "duration": 0.2009,
      "velocity": 118,
      "chip": "ym2612"
    },
    {
      "channel": 1,
      "note": 76,
      "start": 66.7065,
      "duration": 0.1003,
      "velocity": 97,
      "chip": "ym2612"
    },
    {
      "channel": 0,
      "note": 55,
      "start": 66.8065,
      "duration": 0.1998,
      "velocity": 104,
      "chip": "ym2612"
    },
    {
      "channel": 1,
      "note": 81,
      "start": 66.8071,
      "duration": 0.0993,
      "velocity": 97,
      "chip": "ym2612"
    },
    {
      "channel": 2,
      "note": 72,
      "start": 66.8091,
      "duration": 0.0978,
      "velocity": 102,
      "chip": "ym2612"
    },
    {
      "channel": 3,
      "note": 69,
      "start": 66.8113,
      "duration": 0.0962,
      "velocity": 102,
      "chip": "ym2612"
    },
    {
      "channel": 4,
      "note": 79,
      "start": 66.8119,
      "duration": 0.3807,
      "velocity": 97,
      "chip": "ym2612"
    },
    {
      "channel": 5,
      "note": 74,
      "start": 66.814,
      "duration": 0.0941,
      "velocity": 118,
      "chip": "ym2612"
    },
    {
      "channel": 1,
      "note": 84,
      "start": 66.9065,
      "duration": 0.1003,
      "velocity": 97,
      "chip": "ym2612"
    },
    {
      "channel": 2,
      "note": 72,
      "start": 66.9071,
      "duration": 0.1002,
      "velocity": 102,
      "chip": "ym2612"
    },
    {
      "channel": 3,
      "note": 69,
      "start": 66.9077,
      "duration": 0.1002,
      "velocity": 102,
      "chip": "ym2612"
    },
    {
      "channel": 5,
      "note": 74,
      "start": 66.9083,
      "duration": 0.2849,
      "velocity": 118,
      "chip": "ym2612"
    },
    {
      "channel": 0,
      "note": 57,
      "start": 67.0065,
      "duration": 0.2844,
      "velocity": 104,
      "chip": "ym2612"
    },
    {
      "channel": 1,
      "note": 72,
      "start": 67.007,
      "duration": 0.084,
      "velocity": 97,
      "chip": "ym2612"
    },
    {
      "channel": 2,
      "note": 74,
      "start": 67.0076,
      "duration": 0.1839,
      "velocity": 102,
      "chip": "ym2612"
    },
    {
      "channel": 3,
      "note": 71,
      "start": 67.0081,
      "duration": 0.1839,
      "velocity": 102,
      "chip": "ym2612"
    },
    {
      "channel": 1,
      "note": 76,
      "start": 67.0911,
      "duration": 0.0999,
      "velocity": 97,
      "chip": "ym2612"
    },
    {
      "channel": 1,
      "note": 81,
      "start": 67.1911,
      "duration": 0.1004,
      "velocity": 97,
      "chip": "ym2612"
    },
    {
      "channel": 2,
      "note": 72,
      "start": 67.1917,
      "duration": 0.2004,
      "velocity": 102,
      "chip": "ym2612"
    },
    {
      "channel": 3,
      "note": 69,
      "start": 67.1922,
      "duration": 0.2003,
      "velocity": 102,
      "chip": "ym2612"
    },
    {
      "channel": 4,
      "note": 84,
      "start": 67.1928,
      "duration": 0.0994,
      "velocity": 97,
      "chip": "ym2612"
    },
    {
      "channel": 5,
      "note": 74,
      "start": 67.1934,
      "duration": 0.0993,
      "velocity": 118,
      "chip": "ym2612"
    },
    {
      "channel": 0,
      "note": 57,
      "start": 67.2911,
      "duration": 0.0998,
      "velocity": 104,
      "chip": "ym2612"
    },
    {
      "channel": 1,
      "note": 84,
      "start": 67.2917,
      "duration": 0.0998,
      "velocity": 97,
      "chip": "ym2612"
    },
    {
      "channel": 4,
      "note": 79,
      "start": 67.2923,
      "duration": 0.1008,
      "velocity": 97,
      "chip": "ym2612"
    },
    {
      "channel": 5,
      "note": 74,
      "start": 67.2929,
      "duration": 0.1024,
      "velocity": 119,
      "chip": "ym2612"
    },
    {
      "channel": 0,
      "note": 52,
      "start": 67.3911,
      "duration": 0.1998,
      "velocity": 104,
      "chip": "ym2612"
    },
    {
      "channel": 1,
      "note": 72,
      "start": 67.3917,
      "duration": 0.0993,
      "velocity": 97,
      "chip": "ym2612"
    },
    {
      "channel": 2,
      "note": 74,
      "start": 67.3922,
      "duration": 0.1999,
      "velocity": 102,
      "chip": "ym2612"
    },
    {
      "channel": 3,
      "note": 71,
      "start": 67.3927,
      "duration": 0.1998,
      "velocity": 102,
      "chip": "ym2612"
    },
    {
      "channel": 4,
      "note": 81,
      "start": 67.3933,
      "duration": 0.1998,
      "velocity": 97,
      "chip": "ym2612"
    },
    {
      "channel": 5,
      "note": 55,
      "start": 67.3955,
      "duration": 0.1998,
      "velocity": 118,
      "chip": "ym2612"
    },
    {
      "channel": 1,
      "note": 76,
      "start": 67.4911,
      "duration": 0.1003,
      "velocity": 97,
      "chip": "ym2612"
    },
    {
      "channel": 0,
      "note": 50,
      "start": 67.5911,
      "duration": 0.1998,
      "velocity": 104,
      "chip": "ym2612"
    },
    {
      "channel": 1,
      "note": 81,
      "start": 67.5917,
      "duration": 0.0993,
      "velocity": 97,
      "chip": "ym2612"
    },
    {
      "channel": 2,
      "note": 72,
      "start": 67.5922,
      "duration": 0.1998,
      "velocity": 102,
      "chip": "ym2612"
    },
    {
      "channel": 3,
      "note": 69,
      "start": 67.5927,
      "duration": 0.1998,
      "velocity": 102,
      "chip": "ym2612"
    },
    {
      "channel": 4,
      "note": 79,
      "start": 67.5933,
      "duration": 0.3829,
      "velocity": 97,
      "chip": "ym2612"
    },
    {
      "channel": 5,
      "note": 74,
      "start": 67.5955,
      "duration": 0.0963,
      "velocity": 118,
      "chip": "ym2612"
    },
    {
      "channel": 1,
      "note": 84,
      "start": 67.6911,
      "duration": 0.1003,
      "velocity": 97,
      "chip": "ym2612"
    },
    {
      "channel": 5,
      "note": 74,
      "start": 67.6919,
      "duration": 0.2849,
      "velocity": 118,
      "chip": "ym2612"
    },
    {
      "channel": 0,
      "note": 52,
      "start": 67.7911,
      "duration": 0.2845,
      "velocity": 104,
      "chip": "ym2612"
    },
    {
      "channel": 1,
      "note": 71,
      "start": 67.7916,
      "duration": 0.084,
      "velocity": 97,
      "chip": "ym2612"
    },
    {
      "channel": 2,
      "note": 76,
      "start": 67.7922,
      "duration": 0.2846,
      "velocity": 102,
      "chip": "ym2612"
    },
    {
      "channel": 3,
      "note": 71,
      "start": 67.7927,
      "duration": 0.2845,
      "velocity": 102,
      "chip": "ym2612"
    },
    {
      "channel": 1,
      "note": 76,
      "start": 67.8757,
      "duration": 0.0998,
      "velocity": 97,
      "chip": "ym2612"
    },
    {
      "channel": 1,
      "note": 79,
      "start": 67.9757,
      "duration": 0.1004,
      "velocity": 97,
      "chip": "ym2612"
    },
    {
      "channel": 4,
      "note": 83,
      "start": 67.9764,
      "duration": 0.1014,
      "velocity": 97,
      "chip": "ym2612"
    },
    {
      "channel": 5,
      "note": 74,
      "start": 67.977,
      "duration": 0.1013,
      "velocity": 118,
      "chip": "ym2612"
    },
    {
      "channel": 0,
      "note": 52,
      "start": 68.0757,
      "duration": 0.0998,
      "velocity": 104,
      "chip": "ym2612"
    },
    {
      "channel": 1,
      "note": 83,
      "start": 68.0763,
      "duration": 0.0998,
      "velocity": 97,
      "chip": "ym2612"
    },
    {
      "channel": 2,
      "note": 71,
      "start": 68.0768,
      "duration": 0.0999,
      "velocity": 102,
      "chip": "ym2612"
    },
    {
      "channel": 3,
      "note": 67,
      "start": 68.0774,
      "duration": 0.0998,
      "velocity": 102,
      "chip": "ym2612"
    },
    {
      "channel": 4,
      "note": 79,
      "start": 68.078,
      "duration": 0.0998,
      "velocity": 97,
      "chip": "ym2612"
    },
    {
      "channel": 5,
      "note": 74,
      "start": 68.0785,
      "duration": 0.1014,
      "velocity": 119,
      "chip": "ym2612"
    },
    {
      "channel": 0,
      "note": 47,
      "start": 68.1757,
      "duration": 0.1998,
      "velocity": 104,
      "chip": "ym2612"
    },
    {
      "channel": 1,
      "note": 71,
      "start": 68.1763,
      "duration": 0.0993,
      "velocity": 97,
      "chip": "ym2612"
    },
    {
      "channel": 2,
      "note": 71,
      "start": 68.1768,
      "duration": 1.1865,
      "velocity": 102,
      "chip": "ym2612"
    },
    {
      "channel": 3,
      "note": 67,
      "start": 68.1774,
      "duration": 1.1881,
      "velocity": 102,
      "chip": "ym2612"
    },
    {
      "channel": 4,
      "note": 81,
      "start": 68.178,
      "duration": 0.1988,
      "velocity": 97,
      "chip": "ym2612"
    },
    {
      "channel": 5,
      "note": 55,
      "start": 68.1801,
      "duration": 0.1987,
      "velocity": 118,
      "chip": "ym2612"
    },
    {
      "channel": 1,
      "note": 76,
      "start": 68.2758,
      "duration": 0.1002,
      "velocity": 97,
      "chip": "ym2612"
    },
    {
      "channel": 0,
      "note": 50,
      "start": 68.3757,
      "duration": 0.1999,
      "velocity": 104,
      "chip": "ym2612"
    },
    {
      "channel": 1,
      "note": 79,
      "start": 68.3763,
      "duration": 0.0993,
      "velocity": 97,
      "chip": "ym2612"
    },
    {
      "channel": 4,
      "note": 79,
      "start": 68.3769,
      "duration": 0.3842,
      "velocity": 97,
      "chip": "ym2612"
    },
    {
      "channel": 5,
      "note": 74,
      "start": 68.379,
      "duration": 0.0973,
      "velocity": 118,
      "chip": "ym2612"
    },
    {
      "channel": 1,
      "note": 83,
      "start": 68.4757,
      "duration": 0.1004,
      "velocity": 97,
      "chip": "ym2612"
    },
    {
      "channel": 5,
      "note": 74,
      "start": 68.4765,
      "duration": 0.2853,
      "velocity": 118,
      "chip": "ym2612"
    },
    {
      "channel": 0,
      "note": 52,
      "start": 68.5757,
      "duration": 0.2847,
      "velocity": 104,
      "chip": "ym2612"
    },
    {
      "channel": 1,
      "note": 71,
      "start": 68.5763,
      "duration": 0.0843,
      "velocity": 97,
      "chip": "ym2612"
    },
    {
      "channel": 1,
      "note": 76,
      "start": 68.6607,
      "duration": 0.0998,
      "velocity": 97,
      "chip": "ym2612"
    },
    {
      "channel": 1,
      "note": 79,
      "start": 68.7606,
      "duration": 0.1004,
      "velocity": 97,
      "chip": "ym2612"
    },
    {
      "channel": 4,
      "note": 83,
      "start": 68.7613,
      "duration": 0.1004,
      "velocity": 97,
      "chip": "ym2612"
    },
    {
      "channel": 5,
      "note": 74,
      "start": 68.762,
      "duration": 0.1003,
      "velocity": 118,
      "chip": "ym2612"
    },
    {
      "channel": 0,
      "note": 52,
      "start": 68.8606,
      "duration": 0.0999,
      "velocity": 104,
      "chip": "ym2612"
    },
    {
      "channel": 1,
      "note": 83,
      "start": 68.8612,
      "duration": 0.0998,
      "velocity": 97,
      "chip": "ym2612"
    },
    {
      "channel": 4,
      "note": 79,
      "start": 68.8618,
      "duration": 0.0999,
      "velocity": 97,
      "chip": "ym2612"
    },
    {
      "channel": 5,
      "note": 74,
      "start": 68.8624,
      "duration": 0.1014,
      "velocity": 119,
      "chip": "ym2612"
    },
    {
      "channel": 0,
      "note": 47,
      "start": 68.9606,
      "duration": 0.1999,
      "velocity": 104,
      "chip": "ym2612"
    },
    {
      "channel": 1,
      "note": 71,
      "start": 68.9612,
      "duration": 0.0993,
      "velocity": 97,
      "chip": "ym2612"
    },
    {
      "channel": 4,
      "note": 81,
      "start": 68.9618,
      "duration": 0.1999,
      "velocity": 97,
      "chip": "ym2612"
    },
    {
      "channel": 5,
      "note": 55,
      "start": 68.964,
      "duration": 0.1998,
      "velocity": 118,
      "chip": "ym2612"
    },
    {
      "channel": 1,
      "note": 76,
      "start": 69.0607,
      "duration": 0.1003,
      "velocity": 97,
      "chip": "ym2612"
    },
    {
      "channel": 0,
      "note": 50,
      "start": 69.1606,
      "duration": 0.1999,
      "velocity": 104,
      "chip": "ym2612"
    },
    {
      "channel": 1,
      "note": 79,
      "start": 69.1612,
      "duration": 0.0994,
      "velocity": 97,
      "chip": "ym2612"
    },
    {
      "channel": 4,
      "note": 79,
      "start": 69.1618,
      "duration": 0.3839,
      "velocity": 97,
      "chip": "ym2612"
    },
    {
      "channel": 5,
      "note": 74,
      "start": 69.164,
      "duration": 0.0973,
      "velocity": 118,
      "chip": "ym2612"
    },
    {
      "channel": 1,
      "note": 83,
      "start": 69.2607,
      "duration": 0.1005,
      "velocity": 97,
      "chip": "ym2612"
    },
    {
      "channel": 5,
      "note": 74,
      "start": 69.2615,
      "duration": 0.2849,
      "velocity": 118,
      "chip": "ym2612"
    },
    {
      "channel": 0,
      "note": 53,
      "start": 69.3607,
      "duration": 0.2842,
      "velocity": 104,
      "chip": "ym2612"
    },
    {
      "channel": 1,
      "note": 72,
      "start": 69.3614,
      "duration": 0.0837,
      "velocity": 97,
      "chip": "ym2612"
    },
    {
      "channel": 2,
      "note": 69,
      "start": 69.3635,
      "duration": 0.5843,
      "velocity": 102,
      "chip": "ym2612"
    },
    {
      "channel": 3,
      "note": 65,
      "start": 69.3656,
      "duration": 0.5842,
      "velocity": 102,
      "chip": "ym2612"
    },
    {
      "channel": 1,
      "note": 77,
      "start": 69.4453,
      "duration": 0.0998,
      "velocity": 97,
      "chip": "ym2612"
    },
    {
      "channel": 1,
      "note": 81,
      "start": 69.5452,
      "duration": 0.1004,
      "velocity": 97,
      "chip": "ym2612"
    },
    {
      "channel": 4,
      "note": 84,
      "start": 69.5459,
      "duration": 0.1003,
      "velocity": 97,
      "chip": "ym2612"
    },
    {
      "channel": 5,
      "note": 74,
      "start": 69.5466,
      "duration": 0.1003,
      "velocity": 118,
      "chip": "ym2612"
    },
    {
      "channel": 0,
      "note": 53,
      "start": 69.6452,
      "duration": 0.0999,
      "velocity": 104,
      "chip": "ym2612"
    },
    {
      "channel": 1,
      "note": 84,
      "start": 69.6458,
      "duration": 0.0999,
      "velocity": 97,
      "chip": "ym2612"
    },
    {
      "channel": 4,
      "note": 79,
      "start": 69.6464,
      "duration": 0.1031,
      "velocity": 97,
      "chip": "ym2612"
    },
    {
      "channel": 5,
      "note": 74,
      "start": 69.647,
      "duration": 0.1046,
      "velocity": 119,
      "chip": "ym2612"
    },
    {
      "channel": 0,
      "note": 48,
      "start": 69.7452,
      "duration": 0.1998,
      "velocity": 104,
      "chip": "ym2612"
    },
    {
      "channel": 1,
      "note": 72,
      "start": 69.7458,
      "duration": 0.0994,
      "velocity": 97,
      "chip": "ym2612"
    },
    {
      "channel": 4,
      "note": 81,
      "start": 69.7496,
      "duration": 0.2008,
      "velocity": 97,
      "chip": "ym2612"
    },
    {
      "channel": 5,
      "note": 55,
      "start": 69.7517,
      "duration": 0.2009,
      "velocity": 118,
      "chip": "ym2612"
    },
    {
      "channel": 1,
      "note": 77,
      "start": 69.8453,
      "duration": 0.1003,
      "velocity": 97,
      "chip": "ym2612"
    },
    {
      "channel": 0,
      "note": 50,
      "start": 69.9452,
      "duration": 0.1998,
      "velocity": 104,
      "chip": "ym2612"
    },
    {
      "channel": 1,
      "note": 81,
      "start": 69.9458,
      "duration": 0.0993,
      "velocity": 97,
      "chip": "ym2612"
    },
    {
      "channel": 2,
      "note": 69,
      "start": 69.9479,
      "duration": 0.0978,
      "velocity": 102,
      "chip": "ym2612"
    },
    {
      "channel": 3,
      "note": 65,
      "start": 69.9501,
      "duration": 0.0962,
      "velocity": 102,
      "chip": "ym2612"
    },
    {
      "channel": 4,
      "note": 77,
      "start": 69.9507,
      "duration": 0.3796,
      "velocity": 97,
      "chip": "ym2612"
    },
    {
      "channel": 5,
      "note": 74,
      "start": 69.9528,
      "duration": 0.0941,
      "velocity": 118,
      "chip": "ym2612"
    },
    {
      "channel": 1,
      "note": 84,
      "start": 70.0453,
      "duration": 0.1002,
      "velocity": 97,
      "chip": "ym2612"
    },
    {
      "channel": 2,
      "note": 71,
      "start": 70.0459,
      "duration": 0.1002,
      "velocity": 102,
      "chip": "ym2612"
    },
    {
      "channel": 3,
      "note": 67,
      "start": 70.0464,
      "duration": 0.1003,
      "velocity": 102,
      "chip": "ym2612"
    },
    {
      "channel": 5,
      "note": 74,
      "start": 70.047,
      "duration": 0.2839,
      "velocity": 118,
      "chip": "ym2612"
    },
    {
      "channel": 0,
      "note": 53,
      "start": 70.1452,
      "duration": 0.2844,
      "velocity": 104,
      "chip": "ym2612"
    },
    {
      "channel": 1,
      "note": 72,
      "start": 70.1458,
      "duration": 0.084,
      "velocity": 97,
      "chip": "ym2612"
    },
    {
      "channel": 2,
      "note": 72,
      "start": 70.1463,
      "duration": 0.3845,
      "velocity": 102,
      "chip": "ym2612"
    },
    {
      "channel": 3,
      "note": 69,
      "start": 70.1469,
      "duration": 0.3844,
      "velocity": 102,
      "chip": "ym2612"
    },
    {
      "channel": 1,
      "note": 77,
      "start": 70.2299,
      "duration": 0.0998,
      "velocity": 97,
      "chip": "ym2612"
    },
    {
      "channel": 1,
      "note": 81,
      "start": 70.3298,
      "duration": 0.1004,
      "velocity": 97,
      "chip": "ym2612"
    },
    {
      "channel": 4,
      "note": 84,
      "start": 70.3305,
      "duration": 0.1004,
      "velocity": 97,
      "chip": "ym2612"
    },
    {
      "channel": 5,
      "note": 74,
      "start": 70.3311,
      "duration": 0.1003,
      "velocity": 118,
      "chip": "ym2612"
    },
    {
      "channel": 0,
      "note": 53,
      "start": 70.4298,
      "duration": 0.0999,
      "velocity": 104,
      "chip": "ym2612"
    },
    {
      "channel": 1,
      "note": 84,
      "start": 70.4304,
      "duration": 0.0999,
      "velocity": 97,
      "chip": "ym2612"
    },
    {
      "channel": 4,
      "note": 79,
      "start": 70.431,
      "duration": 0.1009,
      "velocity": 97,
      "chip": "ym2612"
    },
    {
      "channel": 5,
      "note": 74,
      "start": 70.4316,
      "duration": 0.1025,
      "velocity": 119,
      "chip": "ym2612"
    },
    {
      "channel": 0,
      "note": 48,
      "start": 70.5298,
      "duration": 0.1998,
      "velocity": 104,
      "chip": "ym2612"
    },
    {
      "channel": 1,
      "note": 72,
      "start": 70.5304,
      "duration": 0.0993,
      "velocity": 97,
      "chip": "ym2612"
    },
    {
      "channel": 2,
      "note": 74,
      "start": 70.5309,
      "duration": 0.1999,
      "velocity": 102,
      "chip": "ym2612"
    },
    {
      "channel": 3,
      "note": 71,
      "start": 70.5315,
      "duration": 0.1998,
      "velocity": 102,
      "chip": "ym2612"
    },
    {
      "channel": 4,
      "note": 81,
      "start": 70.5321,
      "duration": 0.1998,
      "velocity": 97,
      "chip": "ym2612"
    },
    {
      "channel": 5,
      "note": 55,
      "start": 70.5342,
      "duration": 0.1998,
      "velocity": 118,
      "chip": "ym2612"
    },
    {
      "channel": 1,
      "note": 77,
      "start": 70.6299,
      "duration": 0.1003,
      "velocity": 97,
      "chip": "ym2612"
    },
    {
      "channel": 0,
      "note": 50,
      "start": 70.7298,
      "duration": 0.1998,
      "velocity": 104,
      "chip": "ym2612"
    },
    {
      "channel": 1,
      "note": 81,
      "start": 70.7304,
      "duration": 0.0993,
      "velocity": 97,
      "chip": "ym2612"
    },
    {
      "channel": 2,
      "note": 72,
      "start": 70.7309,
      "duration": 0.1998,
      "velocity": 102,
      "chip": "ym2612"
    },
    {
      "channel": 3,
      "note": 69,
      "start": 70.7315,
      "duration": 0.1998,
      "velocity": 102,
      "chip": "ym2612"
    },
    {
      "channel": 4,
      "note": 77,
      "start": 70.7321,
      "duration": 0.3828,
      "velocity": 97,
      "chip": "ym2612"
    },
    {
      "channel": 5,
      "note": 74,
      "start": 70.7342,
      "duration": 0.0963,
      "velocity": 118,
      "chip": "ym2612"
    },
    {
      "channel": 1,
      "note": 84,
      "start": 70.8299,
      "duration": 0.1002,
      "velocity": 97,
      "chip": "ym2612"
    },
    {
      "channel": 5,
      "note": 74,
      "start": 70.8307,
      "duration": 0.2849,
      "velocity": 118,
      "chip": "ym2612"
    },
    {
      "channel": 0,
      "note": 48,
      "start": 70.9298,
      "duration": 0.2845,
      "velocity": 104,
      "chip": "ym2612"
    },
    {
      "channel": 1,
      "note": 72,
      "start": 70.9304,
      "duration": 0.084,
      "velocity": 97,
      "chip": "ym2612"
    },
    {
      "channel": 2,
      "note": 76,
      "start": 70.9309,
      "duration": 0.2845,
      "velocity": 102,
      "chip": "ym2612"
    },
    {
      "channel": 3,
      "note": 72,
      "start": 70.9315,
      "duration": 0.2844,
      "velocity": 102,
      "chip": "ym2612"
    },
    {
      "channel": 1,
      "note": 76,
      "start": 71.0145,
      "duration": 0.0998,
      "velocity": 97,
      "chip": "ym2612"
    },
    {
      "channel": 1,
      "note": 79,
      "start": 71.1144,
      "duration": 0.1004,
      "velocity": 97,
      "chip": "ym2612"
    },
    {
      "channel": 4,
      "note": 84,
      "start": 71.1151,
      "duration": 0.1014,
      "velocity": 97,
      "chip": "ym2612"
    },
    {
      "channel": 5,
      "note": 74,
      "start": 71.1157,
      "duration": 0.1013,
      "velocity": 118,
      "chip": "ym2612"
    },
    {
      "channel": 0,
      "note": 48,
      "start": 71.2144,
      "duration": 0.0998,
      "velocity": 104,
      "chip": "ym2612"
    },
    {
      "channel": 1,
      "note": 84,
      "start": 71.215,
      "duration": 0.0998,
      "velocity": 97,
      "chip": "ym2612"
    },
    {
      "channel": 2,
      "note": 77,
      "start": 71.2155,
      "duration": 0.2999,
      "velocity": 102,
      "chip": "ym2612"
    },
    {
      "channel": 3,
      "note": 74,
      "start": 71.2161,
      "duration": 0.2998,
      "velocity": 102,
      "chip": "ym2612"
    },
    {
      "channel": 4,
      "note": 79,
      "start": 71.2167,
      "duration": 0.0988,
      "velocity": 97,
      "chip": "ym2612"
    },
    {
      "channel": 5,
      "note": 74,
      "start": 71.2173,
      "duration": 0.1004,
      "velocity": 119,
      "chip": "ym2612"
    },
    {
      "channel": 0,
      "note": 43,
      "start": 71.3144,
      "duration": 0.1998,
      "velocity": 104,
      "chip": "ym2612"
    },
    {
      "channel": 1,
      "note": 72,
      "start": 71.315,
      "duration": 0.0992,
      "velocity": 97,
      "chip": "ym2612"
    },
    {
      "channel": 4,
      "note": 81,
      "start": 71.3157,
      "duration": 0.2008,
      "velocity": 97,
      "chip": "ym2612"
    },
    {
      "channel": 5,
      "note": 55,
      "start": 71.3178,
      "duration": 0.2008,
      "velocity": 118,
      "chip": "ym2612"
    },
    {
      "channel": 1,
      "note": 76,
      "start": 71.4144,
      "duration": 0.1004,
      "velocity": 97,
      "chip": "ym2612"
    },
    {
      "channel": 0,
      "note": 45,
      "start": 71.5144,
      "duration": 0.1998,
      "velocity": 104,
      "chip": "ym2612"
    },
    {
      "channel": 1,
      "note": 79,
      "start": 71.515,
      "duration": 0.0993,
      "velocity": 97,
      "chip": "ym2612"
    },
    {
      "channel": 2,
      "note": 79,
      "start": 71.5155,
      "duration": 0.1998,
      "velocity": 102,
      "chip": "ym2612"
    },
    {
      "channel": 3,
      "note": 76,
      "start": 71.5161,
      "duration": 0.1998,
      "velocity": 102,
      "chip": "ym2612"
    },
    {
      "channel": 4,
      "note": 76,
      "start": 71.5167,
      "duration": 0.3834,
      "velocity": 97,
      "chip": "ym2612"
    },
    {
      "channel": 5,
      "note": 74,
      "start": 71.5188,
      "duration": 0.0963,
      "velocity": 118,
      "chip": "ym2612"
    },
    {
      "channel": 1,
      "note": 84,
      "start": 71.6145,
      "duration": 0.1003,
      "velocity": 97,
      "chip": "ym2612"
    },
    {
      "channel": 5,
      "note": 74,
      "start": 71.6153,
      "duration": 0.2855,
      "velocity": 118,
      "chip": "ym2612"
    },
    {
      "channel": 0,
      "note": 45,
      "start": 71.7144,
      "duration": 0.1844,
      "velocity": 104,
      "chip": "ym2612"
    },
    {
      "channel": 1,
      "note": 72,
      "start": 71.715,
      "duration": 0.084,
      "velocity": 97,
      "chip": "ym2612"
    },
    {
      "channel": 2,
      "note": 72,
      "start": 71.7155,
      "duration": 0.7861,
      "velocity": 102,
      "chip": "ym2612"
    },
    {
      "channel": 3,
      "note": 69,
      "start": 71.7161,
      "duration": 0.7877,
      "velocity": 102,
      "chip": "ym2612"
    },
    {
      "channel": 1,
      "note": 76,
      "start": 71.7991,
      "duration": 0.1003,
      "velocity": 97,
      "chip": "ym2612"
    },
    {
      "channel": 0,
      "note": 52,
      "start": 71.8991,
      "duration": 0.1999,
      "velocity": 104,
      "chip": "ym2612"
    },
    {
      "channel": 1,
      "note": 81,
      "start": 71.8996,
      "duration": 0.0993,
      "velocity": 97,
      "chip": "ym2612"
    },
    {
      "channel": 4,
      "note": 84,
      "start": 71.9003,
      "duration": 0.0994,
      "velocity": 97,
      "chip": "ym2612"
    },
    {
      "channel": 5,
      "note": 74,
      "start": 71.9009,
      "duration": 0.0993,
      "velocity": 118,
      "chip": "ym2612"
    },
    {
      "channel": 1,
      "note": 84,
      "start": 71.9991,
      "duration": 0.1004,
      "velocity": 97,
      "chip": "ym2612"
    },
    {
      "channel": 4,
      "note": 79,
      "start": 71.9998,
      "duration": 0.1035,
      "velocity": 97,
      "chip": "ym2612"
    },
    {
      "channel": 5,
      "note": 74,
      "start": 72.0004,
      "duration": 0.1051,
      "velocity": 119,
      "chip": "ym2612"
    },
    {
      "channel": 0,
      "note": 57,
      "start": 72.0991,
      "duration": 0.1998,
      "velocity": 104,
      "chip": "ym2612"
    },
    {
      "channel": 1,
      "note": 72,
      "start": 72.0996,
      "duration": 0.0994,
      "velocity": 97,
      "chip": "ym2612"
    },
    {
      "channel": 4,
      "note": 81,
      "start": 72.1035,
      "duration": 0.1966,
      "velocity": 97,
      "chip": "ym2612"
    },
    {
      "channel": 5,
      "note": 55,
      "start": 72.1056,
      "duration": 0.1966,
      "velocity": 118,
      "chip": "ym2612"
    },
    {
      "channel": 1,
      "note": 76,
      "start": 72.1992,
      "duration": 0.1002,
      "velocity": 97,
      "chip": "ym2612"
    },
    {
      "channel": 0,
      "note": 52,
      "start": 72.2991,
      "duration": 0.1999,
      "velocity": 104,
      "chip": "ym2612"
    },
    {
      "channel": 1,
      "note": 81,
      "start": 72.2996,
      "duration": 0.0993,
      "velocity": 97,
      "chip": "ym2612"
    },
    {
      "channel": 4,
      "note": 76,
      "start": 72.3003,
      "duration": 0.3846,
      "velocity": 97,
      "chip": "ym2612"
    },
    {
      "channel": 5,
      "note": 74,
      "start": 72.3024,
      "duration": 0.0973,
      "velocity": 118,
      "chip": "ym2612"
    },
    {
      "channel": 1,
      "note": 84,
      "start": 72.3991,
      "duration": 0.1004,
      "velocity": 97,
      "chip": "ym2612"
    },
    {
      "channel": 5,
      "note": 74,
      "start": 72.3999,
      "duration": 0.2856,
      "velocity": 118,
      "chip": "ym2612"
    },
    {
      "channel": 0,
      "note": 53,
      "start": 72.4991,
      "duration": 0.285,
      "velocity": 104,
      "chip": "ym2612"
    },
    {
      "channel": 1,
      "note": 72,
      "start": 72.4996,
      "duration": 0.0846,
      "velocity": 97,
      "chip": "ym2612"
    },
    {
      "channel": 2,
      "note": 69,
      "start": 72.5018,
      "duration": 0.5835,
      "velocity": 102,
      "chip": "ym2612"
    },
    {
      "channel": 3,
      "note": 65,
      "start": 72.504,
      "duration": 0.5819,
      "velocity": 102,
      "chip": "ym2612"
    },
    {
      "channel": 1,
      "note": 77,
      "start": 72.5844,
      "duration": 0.0998,
      "velocity": 97,
      "chip": "ym2612"
    },
    {
      "channel": 1,
      "note": 81,
      "start": 72.6843,
      "duration": 0.1004,
      "velocity": 97,
      "chip": "ym2612"
    },
    {
      "channel": 4,
      "note": 84,
      "start": 72.685,
      "duration": 0.1004,
      "velocity": 97,
      "chip": "ym2612"
    },
    {
      "channel": 5,
      "note": 74,
      "start": 72.6857,
      "duration": 0.1003,
      "velocity": 118,
      "chip": "ym2612"
    },
    {
      "channel": 0,
      "note": 53,
      "start": 72.7843,
      "duration": 0.0999,
      "velocity": 104,
      "chip": "ym2612"
    },
    {
      "channel": 1,
      "note": 84,
      "start": 72.7849,
      "duration": 0.0998,
      "velocity": 97,
      "chip": "ym2612"
    },
    {
      "channel": 4,
      "note": 79,
      "start": 72.7855,
      "duration": 0.0999,
      "velocity": 97,
      "chip": "ym2612"
    },
    {
      "channel": 5,
      "note": 74,
      "start": 72.7861,
      "duration": 0.1014,
      "velocity": 119,
      "chip": "ym2612"
    },
    {
      "channel": 0,
      "note": 48,
      "start": 72.8843,
      "duration": 0.1999,
      "velocity": 104,
      "chip": "ym2612"
    },
    {
      "channel": 1,
      "note": 72,
      "start": 72.8849,
      "duration": 0.0993,
      "velocity": 97,
      "chip": "ym2612"
    },
    {
      "channel": 4,
      "note": 81,
      "start": 72.8855,
      "duration": 0.2009,
      "velocity": 97,
      "chip": "ym2612"
    },
    {
      "channel": 5,
      "note": 55,
      "start": 72.8877,
      "duration": 0.2009,
      "velocity": 118,
      "chip": "ym2612"
    },
    {
      "channel": 1,
      "note": 77,
      "start": 72.9844,
      "duration": 0.1004,
      "velocity": 97,
      "chip": "ym2612"
    },
    {
      "channel": 0,
      "note": 50,
      "start": 73.0844,
      "duration": 0.1998,
      "velocity": 104,
      "chip": "ym2612"
    },
    {
      "channel": 1,
      "note": 81,
      "start": 73.0849,
      "duration": 0.0994,
      "velocity": 97,
      "chip": "ym2612"
    },
    {
      "channel": 2,
      "note": 69,
      "start": 73.0855,
      "duration": 0.0994,
      "velocity": 102,
      "chip": "ym2612"
    },
    {
      "channel": 3,
      "note": 65,
      "start": 73.086,
      "duration": 0.0994,
      "velocity": 102,
      "chip": "ym2612"
    },
    {
      "channel": 4,
      "note": 79,
      "start": 73.0866,
      "duration": 0.384,
      "velocity": 97,
      "chip": "ym2612"
    },
    {
      "channel": 5,
      "note": 74,
      "start": 73.0887,
      "duration": 0.0973,
      "velocity": 118,
      "chip": "ym2612"
    },
    {
      "channel": 1,
      "note": 84,
      "start": 73.1844,
      "duration": 0.1003,
      "velocity": 97,
      "chip": "ym2612"
    },
    {
      "channel": 2,
      "note": 71,
      "start": 73.185,
      "duration": 0.1002,
      "velocity": 102,
      "chip": "ym2612"
    },
    {
      "channel": 3,
      "note": 67,
      "start": 73.1855,
      "duration": 0.1003,
      "velocity": 102,
      "chip": "ym2612"
    },
    {
      "channel": 5,
      "note": 74,
      "start": 73.1862,
      "duration": 0.2851,
      "velocity": 118,
      "chip": "ym2612"
    },
    {
      "channel": 0,
      "note": 53,
      "start": 73.2844,
      "duration": 0.2845,
      "velocity": 104,
      "chip": "ym2612"
    },
    {
      "channel": 1,
      "note": 72,
      "start": 73.2849,
      "duration": 0.084,
      "velocity": 97,
      "chip": "ym2612"
    },
    {
      "channel": 2,
      "note": 72,
      "start": 73.2855,
      "duration": 0.184,
      "velocity": 102,
      "chip": "ym2612"
    },
    {
      "channel": 3,
      "note": 69,
      "start": 73.286,
      "duration": 0.184,
      "velocity": 102,
      "chip": "ym2612"
    },
    {
      "channel": 1,
      "note": 77,
      "start": 73.369,
      "duration": 0.0999,
      "velocity": 97,
      "chip": "ym2612"
    },
    {
      "channel": 1,
      "note": 81,
      "start": 73.469,
      "duration": 0.1004,
      "velocity": 97,
      "chip": "ym2612"
    },
    {
      "channel": 2,
      "note": 71,
      "start": 73.4696,
      "duration": 0.2004,
      "velocity": 102,
      "chip": "ym2612"
    },
    {
      "channel": 3,
      "note": 67,
      "start": 73.4702,
      "duration": 0.2003,
      "velocity": 102,
      "chip": "ym2612"
    },
    {
      "channel": 4,
      "note": 84,
      "start": 73.4708,
      "duration": 0.0993,
      "velocity": 97,
      "chip": "ym2612"
    },
    {
      "channel": 5,
      "note": 74,
      "start": 73.4714,
      "duration": 0.0993,
      "velocity": 118,
      "chip": "ym2612"
    },
    {
      "channel": 0,
      "note": 53,
      "start": 73.569,
      "duration": 0.0998,
      "velocity": 104,
      "chip": "ym2612"
    },
    {
      "channel": 1,
      "note": 84,
      "start": 73.5696,
      "duration": 0.0999,
      "velocity": 97,
      "chip": "ym2612"
    },
    {
      "channel": 4,
      "note": 79,
      "start": 73.5703,
      "duration": 0.1008,
      "velocity": 97,
      "chip": "ym2612"
    },
    {
      "channel": 5,
      "note": 74,
      "start": 73.5708,
      "duration": 0.1024,
      "velocity": 119,
      "chip": "ym2612"
    },
    {
      "channel": 0,
      "note": 57,
      "start": 73.669,
      "duration": 0.1998,
      "velocity": 104,
      "chip": "ym2612"
    },
    {
      "channel": 1,
      "note": 72,
      "start": 73.6696,
      "duration": 0.0993,
      "velocity": 97,
      "chip": "ym2612"
    },
    {
      "channel": 2,
      "note": 69,
      "start": 73.6701,
      "duration": 0.1999,
      "velocity": 102,
      "chip": "ym2612"
    },
    {
      "channel": 3,
      "note": 65,
      "start": 73.6707,
      "duration": 0.1998,
      "velocity": 102,
      "chip": "ym2612"
    },
    {
      "channel": 4,
      "note": 81,
      "start": 73.6713,
      "duration": 0.1998,
      "velocity": 97,
      "chip": "ym2612"
    },
    {
      "channel": 5,
      "note": 55,
      "start": 73.6734,
      "duration": 0.1998,
      "velocity": 118,
      "chip": "ym2612"
    },
    {
      "channel": 1,
      "note": 77,
      "start": 73.7691,
      "duration": 0.1003,
      "velocity": 97,
      "chip": "ym2612"
    },
    {
      "channel": 0,
      "note": 53,
      "start": 73.869,
      "duration": 0.1998,
      "velocity": 104,
      "chip": "ym2612"
    },
    {
      "channel": 1,
      "note": 81,
      "start": 73.8696,
      "duration": 0.0993,
      "velocity": 97,
      "chip": "ym2612"
    },
    {
      "channel": 2,
      "note": 67,
      "start": 73.8701,
      "duration": 0.1998,
      "velocity": 102,
      "chip": "ym2612"
    },
    {
      "channel": 3,
      "note": 64,
      "start": 73.8707,
      "duration": 0.1998,
      "velocity": 102,
      "chip": "ym2612"
    },
    {
      "channel": 4,
      "note": 79,
      "start": 73.8713,
      "duration": 0.3829,
      "velocity": 97,
      "chip": "ym2612"
    },
    {
      "channel": 5,
      "note": 74,
      "start": 73.8734,
      "duration": 0.0963,
      "velocity": 118,
      "chip": "ym2612"
    },
    {
      "channel": 1,
      "note": 84,
      "start": 73.9691,
      "duration": 0.1003,
      "velocity": 97,
      "chip": "ym2612"
    },
    {
      "channel": 5,
      "note": 74,
      "start": 73.9699,
      "duration": 0.2849,
      "velocity": 118,
      "chip": "ym2612"
    },
    {
      "channel": 0,
      "note": 55,
      "start": 74.069,
      "duration": 0.2844,
      "velocity": 104,
      "chip": "ym2612"
    },
    {
      "channel": 1,
      "note": 74,
      "start": 74.0696,
      "duration": 0.084,
      "velocity": 97,
      "chip": "ym2612"
    },
    {
      "channel": 2,
      "note": 67,
      "start": 74.0701,
      "duration": 1.5707,
      "velocity": 102,
      "chip": "ym2612"
    },
    {
      "channel": 3,
      "note": 71,
      "start": 74.0707,
      "duration": 0.3872,
      "velocity": 97,
      "chip": "ym2612"
    },
    {
      "channel": 1,
      "note": 79,
      "start": 74.1537,
      "duration": 0.0998,
      "velocity": 97,
      "chip": "ym2612"
    },
    {
      "channel": 1,
      "note": 83,
      "start": 74.2537,
      "duration": 0.1004,
      "velocity": 97,
      "chip": "ym2612"
    },
    {
      "channel": 4,
      "note": 86,
      "start": 74.2544,
      "duration": 0.1004,
      "velocity": 97,
      "chip": "ym2612"
    },
    {
      "channel": 5,
      "note": 74,
      "start": 74.255,
      "duration": 0.1003,
      "velocity": 118,
      "chip": "ym2612"
    },
    {
      "channel": 0,
      "note": 55,
      "start": 74.3537,
      "duration": 0.0999,
      "velocity": 104,
      "chip": "ym2612"
    },
    {
      "channel": 1,
      "note": 86,
      "start": 74.3542,
      "duration": 0.0999,
      "velocity": 97,
      "chip": "ym2612"
    },
    {
      "channel": 4,
      "note": 79,
      "start": 74.3549,
      "duration": 0.1036,
      "velocity": 97,
      "chip": "ym2612"
    },
    {
      "channel": 5,
      "note": 74,
      "start": 74.3554,
      "duration": 0.1051,
      "velocity": 119,
      "chip": "ym2612"
    },
    {
      "channel": 0,
      "note": 50,
      "start": 74.4537,
      "duration": 0.1998,
      "velocity": 104,
      "chip": "ym2612"
    },
    {
      "channel": 1,
      "note": 74,
      "start": 74.4543,
      "duration": 0.0993,
      "velocity": 97,
      "chip": "ym2612"
    },
    {
      "channel": 3,
      "note": 96,
      "start": 74.458,
      "duration": 0.1966,
      "velocity": 97,
      "chip": "ym2612"
    },
    {
      "channel": 4,
      "note": 81,
      "start": 74.4586,
      "duration": 0.1966,
      "velocity": 97,
      "chip": "ym2612"
    },
    {
      "channel": 5,
      "note": 55,
      "start": 74.4607,
      "duration": 0.1967,
      "velocity": 118,
      "chip": "ym2612"
    },
    {
      "channel": 1,
      "note": 79,
      "start": 74.5538,
      "duration": 0.1003,
      "velocity": 97,
      "chip": "ym2612"
    },
    {
      "channel": 0,
      "note": 52,
      "start": 74.6537,
      "duration": 0.1998,
      "velocity": 104,
      "chip": "ym2612"
    },
    {
      "channel": 1,
      "note": 83,
      "start": 74.6542,
      "duration": 0.0994,
      "velocity": 97,
      "chip": "ym2612"
    },
    {
      "channel": 3,
      "note": 91,
      "start": 74.6549,
      "duration": 0.1998,
      "velocity": 97,
      "chip": "ym2612"
    },
    {
      "channel": 4,
      "note": 79,
      "start": 74.6554,
      "duration": 0.3837,
      "velocity": 97,
      "chip": "ym2612"
    },
    {
      "channel": 5,
      "note": 74,
      "start": 74.6576,
      "duration": 0.0968,
      "velocity": 118,
      "chip": "ym2612"
    },
    {
      "channel": 1,
      "note": 86,
      "start": 74.7537,
      "duration": 0.1003,
      "velocity": 97,
      "chip": "ym2612"
    },
    {
      "channel": 5,
      "note": 74,
      "start": 74.7545,
      "duration": 0.2853,
      "velocity": 118,
      "chip": "ym2612"
    },
    {
      "channel": 0,
      "note": 55,
      "start": 74.8537,
      "duration": 0.2843,
      "velocity": 104,
      "chip": "ym2612"
    },
    {
      "channel": 1,
      "note": 74,
      "start": 74.8542,
      "duration": 0.0837,
      "velocity": 97,
      "chip": "ym2612"
    },
    {
      "channel": 3,
      "note": 95,
      "start": 74.8549,
      "duration": 0.1837,
      "velocity": 97,
      "chip": "ym2612"
    },
    {
      "channel": 1,
      "note": 79,
      "start": 74.9381,
      "duration": 0.0998,
      "velocity": 97,
      "chip": "ym2612"
    },
    {
      "channel": 1,
      "note": 83,
      "start": 75.0381,
      "duration": 0.1003,
      "velocity": 97,
      "chip": "ym2612"
    },
    {
      "channel": 3,
      "note": 91,
      "start": 75.0388,
      "duration": 0.2003,
      "velocity": 97,
      "chip": "ym2612"
    },
    {
      "channel": 4,
      "note": 86,
      "start": 75.0393,
      "duration": 0.0998,
      "velocity": 97,
      "chip": "ym2612"
    },
    {
      "channel": 5,
      "note": 74,
      "start": 75.04,
      "duration": 0.0998,
      "velocity": 118,
      "chip": "ym2612"
    },
    {
      "channel": 0,
      "note": 55,
      "start": 75.1381,
      "duration": 0.0999,
      "velocity": 104,
      "chip": "ym2612"
    },
    {
      "channel": 1,
      "note": 86,
      "start": 75.1386,
      "duration": 0.0999,
      "velocity": 97,
      "chip": "ym2612"
    },
    {
      "channel": 4,
      "note": 79,
      "start": 75.1393,
      "duration": 0.1003,
      "velocity": 97,
      "chip": "ym2612"
    },
    {
      "channel": 5,
      "note": 74,
      "start": 75.1399,
      "duration": 0.1019,
      "velocity": 119,
      "chip": "ym2612"
    },
    {
      "channel": 0,
      "note": 57,
      "start": 75.2381,
      "duration": 0.1998,
      "velocity": 104,
      "chip": "ym2612"
    },
    {
      "channel": 1,
      "note": 74,
      "start": 75.2386,
      "duration": 0.0994,
      "velocity": 97,
      "chip": "ym2612"
    },
    {
      "channel": 3,
      "note": 93,
      "start": 75.2393,
      "duration": 0.1998,
      "velocity": 97,
      "chip": "ym2612"
    },
    {
      "channel": 4,
      "note": 81,
      "start": 75.2398,
      "duration": 0.1998,
      "velocity": 97,
      "chip": "ym2612"
    },
    {
      "channel": 5,
      "note": 55,
      "start": 75.242,
      "duration": 0.1999,
      "velocity": 118,
      "chip": "ym2612"
    },
    {
      "channel": 1,
      "note": 79,
      "start": 75.3381,
      "duration": 0.1003,
      "velocity": 97,
      "chip": "ym2612"
    },
    {
      "channel": 0,
      "note": 55,
      "start": 75.4381,
      "duration": 0.2,
      "velocity": 104,
      "chip": "ym2612"
    },
    {
      "channel": 1,
      "note": 83,
      "start": 75.4386,
      "duration": 0.0994,
      "velocity": 97,
      "chip": "ym2612"
    },
    {
      "channel": 3,
      "note": 88,
      "start": 75.4393,
      "duration": 0.2037,
      "velocity": 102,
      "chip": "ym2612"
    },
    {
      "channel": 4,
      "note": 79,
      "start": 75.4398,
      "duration": 0.3836,
      "velocity": 97,
      "chip": "ym2612"
    },
    {
      "channel": 5,
      "note": 74,
      "start": 75.442,
      "duration": 0.0969,
      "velocity": 118,
      "chip": "ym2612"
    },
    {
      "channel": 1,
      "note": 86,
      "start": 75.5382,
      "duration": 0.1005,
      "velocity": 97,
      "chip": "ym2612"
    },
    {
      "channel": 5,
      "note": 74,
      "start": 75.539,
      "duration": 0.2851,
      "velocity": 118,
      "chip": "ym2612"
    },
    {
      "channel": 0,
      "note": 60,
      "start": 75.6383,
      "duration": 0.2844,
      "velocity": 104,
      "chip": "ym2612"
    },
    {
      "channel": 1,
      "note": 72,
      "start": 75.6388,
      "duration": 0.0839,
      "velocity": 97,
      "chip": "ym2612"
    },
    {
      "channel": 2,
      "note": 76,
      "start": 75.641,
      "duration": 0.5844,
      "velocity": 102,
      "chip": "ym2612"
    },
    {
      "channel": 3,
      "note": 72,
      "start": 75.6432,
      "duration": 0.5844,
      "velocity": 102,
      "chip": "ym2612"
    },
    {
      "channel": 1,
      "note": 76,
      "start": 75.7229,
      "duration": 0.0998,
      "velocity": 97,
      "chip": "ym2612"
    },
    {
      "channel": 1,
      "note": 79,
      "start": 75.8229,
      "duration": 0.1003,
      "velocity": 97,
      "chip": "ym2612"
    },
    {
      "channel": 4,
      "note": 84,
      "start": 75.8236,
      "duration": 0.1003,
      "velocity": 97,
      "chip": "ym2612"
    },
    {
      "channel": 5,
      "note": 74,
      "start": 75.8242,
      "duration": 0.1003,
      "velocity": 118,
      "chip": "ym2612"
    },
    {
      "channel": 0,
      "note": 60,
      "start": 75.9228,
      "duration": 0.0999,
      "velocity": 104,
      "chip": "ym2612"
    },
    {
      "channel": 1,
      "note": 84,
      "start": 75.9234,
      "duration": 0.0999,
      "velocity": 97,
      "chip": "ym2612"
    },
    {
      "channel": 4,
      "note": 79,
      "start": 75.924,
      "duration": 0.1031,
      "velocity": 97,
      "chip": "ym2612"
    },
    {
      "channel": 5,
      "note": 74,
      "start": 75.9246,
      "duration": 0.1046,
      "velocity": 119,
      "chip": "ym2612"
    },
    {
      "channel": 0,
      "note": 55,
      "start": 76.0229,
      "duration": 0.1998,
      "velocity": 104,
      "chip": "ym2612"
    },
    {
      "channel": 1,
      "note": 72,
      "start": 76.0235,
      "duration": 0.0993,
      "velocity": 97,
      "chip": "ym2612"
    },
    {
      "channel": 4,
      "note": 81,
      "start": 76.0273,
      "duration": 0.2008,
      "velocity": 97,
      "chip": "ym2612"
    },
    {
      "channel": 5,
      "note": 55,
      "start": 76.0294,
      "duration": 0.2009,
      "velocity": 118,
      "chip": "ym2612"
    },
    {
      "channel": 1,
      "note": 76,
      "start": 76.1229,
      "duration": 0.1003,
      "velocity": 97,
      "chip": "ym2612"
    },
    {
      "channel": 0,
      "note": 57,
      "start": 76.2229,
      "duration": 0.1998,
      "velocity": 104,
      "chip": "ym2612"
    },
    {
      "channel": 1,
      "note": 79,
      "start": 76.2235,
      "duration": 0.0993,
      "velocity": 97,
      "chip": "ym2612"
    },
    {
      "channel": 2,
      "note": 76,
      "start": 76.2256,
      "duration": 0.0978,
      "velocity": 102,
      "chip": "ym2612"
    },
    {
      "channel": 3,
      "note": 72,
      "start": 76.2277,
      "duration": 0.0962,
      "velocity": 102,
      "chip": "ym2612"
    },
    {
      "channel": 4,
      "note": 79,
      "start": 76.2283,
      "duration": 0.3808,
      "velocity": 97,
      "chip": "ym2612"
    },
    {
      "channel": 5,
      "note": 74,
      "start": 76.2305,
      "duration": 0.0941,
      "velocity": 118,
      "chip": "ym2612"
    },
    {
      "channel": 1,
      "note": 84,
      "start": 76.3229,
      "duration": 0.1003,
      "velocity": 97,
      "chip": "ym2612"
    },
    {
      "channel": 2,
      "note": 76,
      "start": 76.3235,
      "duration": 0.1002,
      "velocity": 102,
      "chip": "ym2612"
    },
    {
      "channel": 3,
      "note": 72,
      "start": 76.3241,
      "duration": 0.1002,
      "velocity": 102,
      "chip": "ym2612"
    },
    {
      "channel": 5,
      "note": 74,
      "start": 76.3247,
      "duration": 0.285,
      "velocity": 118,
      "chip": "ym2612"
    },
    {
      "channel": 0,
      "note": 60,
      "start": 76.4229,
      "duration": 0.2845,
      "velocity": 104,
      "chip": "ym2612"
    },
    {
      "channel": 1,
      "note": 72,
      "start": 76.4234,
      "duration": 0.084,
      "velocity": 97,
      "chip": "ym2612"
    },
    {
      "channel": 2,
      "note": 77,
      "start": 76.424,
      "duration": 0.184,
      "velocity": 102,
      "chip": "ym2612"
    },
    {
      "channel": 3,
      "note": 74,
      "start": 76.4245,
      "duration": 0.184,
      "velocity": 102,
      "chip": "ym2612"
    },
    {
      "channel": 1,
      "note": 76,
      "start": 76.5076,
      "duration": 0.0999,
      "velocity": 97,
      "chip": "ym2612"
    },
    {
      "channel": 1,
      "note": 79,
      "start": 76.6076,
      "duration": 0.1004,
      "velocity": 97,
      "chip": "ym2612"
    },
    {
      "channel": 2,
      "note": 76,
      "start": 76.6081,
      "duration": 0.2004,
      "velocity": 102,
      "chip": "ym2612"
    },
    {
      "channel": 3,
      "note": 72,
      "start": 76.6087,
      "duration": 0.2003,
      "velocity": 102,
      "chip": "ym2612"
    },
    {
      "channel": 4,
      "note": 84,
      "start": 76.6093,
      "duration": 0.0994,
      "velocity": 97,
      "chip": "ym2612"
    },
    {
      "channel": 5,
      "note": 74,
      "start": 76.6099,
      "duration": 0.0993,
      "velocity": 118,
      "chip": "ym2612"
    },
    {
      "channel": 0,
      "note": 60,
      "start": 76.7076,
      "duration": 0.0998,
      "velocity": 104,
      "chip": "ym2612"
    },
    {
      "channel": 1,
      "note": 84,
      "start": 76.7081,
      "duration": 0.0998,
      "velocity": 97,
      "chip": "ym2612"
    },
    {
      "channel": 4,
      "note": 79,
      "start": 76.7088,
      "duration": 0.1008,
      "velocity": 97,
      "chip": "ym2612"
    },
    {
      "channel": 5,
      "note": 74,
      "start": 76.7093,
      "duration": 0.1024,
      "velocity": 119,
      "chip": "ym2612"
    },
    {
      "channel": 0,
      "note": 55,
      "start": 76.8076,
      "duration": 0.1998,
      "velocity": 104,
      "chip": "ym2612"
    },
    {
      "channel": 1,
      "note": 72,
      "start": 76.8081,
      "duration": 0.0993,
      "velocity": 97,
      "chip": "ym2612"
    },
    {
      "channel": 2,
      "note": 74,
      "start": 76.8086,
      "duration": 0.1999,
      "velocity": 102,
      "chip": "ym2612"
    },
    {
      "channel": 3,
      "note": 71,
      "start": 76.8092,
      "duration": 0.1998,
      "velocity": 102,
      "chip": "ym2612"
    },
    {
      "channel": 4,
      "note": 81,
      "start": 76.8098,
      "duration": 0.1998,
      "velocity": 97,
      "chip": "ym2612"
    },
    {
      "channel": 5,
      "note": 55,
      "start": 76.812,
      "duration": 0.1998,
      "velocity": 118,
      "chip": "ym2612"
    },
    {
      "channel": 1,
      "note": 76,
      "start": 76.9076,
      "duration": 0.1003,
      "velocity": 97,
      "chip": "ym2612"
    },
    {
      "channel": 0,
      "note": 57,
      "start": 77.0076,
      "duration": 0.1998,
      "velocity": 104,
      "chip": "ym2612"
    },
    {
      "channel": 1,
      "note": 79,
      "start": 77.0081,
      "duration": 0.0993,
      "velocity": 97,
      "chip": "ym2612"
    },
    {
      "channel": 2,
      "note": 72,
      "start": 77.0086,
      "duration": 0.1998,
      "velocity": 102,
      "chip": "ym2612"
    },
    {
      "channel": 3,
      "note": 69,
      "start": 77.0092,
      "duration": 0.1998,
      "velocity": 102,
      "chip": "ym2612"
    },
    {
      "channel": 4,
      "note": 79,
      "start": 77.0098,
      "duration": 0.3828,
      "velocity": 97,
      "chip": "ym2612"
    },
    {
      "channel": 5,
      "note": 74,
      "start": 77.012,
      "duration": 0.0963,
      "velocity": 118,
      "chip": "ym2612"
    },
    {
      "channel": 1,
      "note": 84,
      "start": 77.1076,
      "duration": 0.1002,
      "velocity": 97,
      "chip": "ym2612"
    },
    {
      "channel": 5,
      "note": 74,
      "start": 77.1084,
      "duration": 0.2849,
      "velocity": 118,
      "chip": "ym2612"
    },
    {
      "channel": 0,
      "note": 55,
      "start": 77.2075,
      "duration": 0.2845,
      "velocity": 104,
      "chip": "ym2612"
    },
    {
      "channel": 1,
      "note": 74,
      "start": 77.2081,
      "duration": 0.084,
      "velocity": 97,
      "chip": "ym2612"
    },
    {
      "channel": 2,
      "note": 74,
      "start": 77.2086,
      "duration": 0.2845,
      "velocity": 102,
      "chip": "ym2612"
    },
    {
      "channel": 3,
      "note": 71,
      "start": 77.2092,
      "duration": 0.2844,
      "velocity": 102,
      "chip": "ym2612"
    },
    {
      "channel": 1,
      "note": 79,
      "start": 77.2922,
      "duration": 0.0998,
      "velocity": 97,
      "chip": "ym2612"
    },
    {
      "channel": 1,
      "note": 83,
      "start": 77.3921,
      "duration": 0.1004,
      "velocity": 97,
      "chip": "ym2612"
    },
    {
      "channel": 4,
      "note": 79,
      "start": 77.3928,
      "duration": 0.1014,
      "velocity": 97,
      "chip": "ym2612"
    },
    {
      "channel": 5,
      "note": 74,
      "start": 77.3934,
      "duration": 0.1013,
      "velocity": 118,
      "chip": "ym2612"
    },
    {
      "channel": 0,
      "note": 55,
      "start": 77.4922,
      "duration": 0.0998,
      "velocity": 104,
      "chip": "ym2612"
    },
    {
      "channel": 1,
      "note": 86,
      "start": 77.4927,
      "duration": 0.0998,
      "velocity": 97,
      "chip": "ym2612"
    },
    {
      "channel": 2,
      "note": 67,
      "start": 77.4932,
      "duration": 0.0999,
      "velocity": 102,
      "chip": "ym2612"
    },
    {
      "channel": 3,
      "note": 62,
      "start": 77.4938,
      "duration": 0.0998,
      "velocity": 102,
      "chip": "ym2612"
    },
    {
      "channel": 4,
      "note": 74,
      "start": 77.4944,
      "duration": 0.0998,
      "velocity": 97,
      "chip": "ym2612"
    },
    {
      "channel": 5,
      "note": 74,
      "start": 77.495,
      "duration": 0.1014,
      "velocity": 119,
      "chip": "ym2612"
    },
    {
      "channel": 0,
      "note": 50,
      "start": 77.5922,
      "duration": 0.1998,
      "velocity": 104,
      "chip": "ym2612"
    },
    {
      "channel": 1,
      "note": 74,
      "start": 77.5927,
      "duration": 0.0993,
      "velocity": 97,
      "chip": "ym2612"
    },
    {
      "channel": 2,
      "note": 67,
      "start": 77.5932,
      "duration": 2.056,
      "velocity": 102,
      "chip": "ym2612"
    },
    {
      "channel": 3,
      "note": 62,
      "start": 77.5938,
      "duration": 2.0554,
      "velocity": 102,
      "chip": "ym2612"
    },
    {
      "channel": 4,
      "note": 76,
      "start": 77.5944,
      "duration": 0.1988,
      "velocity": 97,
      "chip": "ym2612"
    },
    {
      "channel": 5,
      "note": 55,
      "start": 77.5966,
      "duration": 0.1987,
      "velocity": 118,
      "chip": "ym2612"
    },
    {
      "channel": 1,
      "note": 79,
      "start": 77.6922,
      "duration": 0.1002,
      "velocity": 97,
      "chip": "ym2612"
    },
    {
      "channel": 0,
      "note": 52,
      "start": 77.7921,
      "duration": 0.1999,
      "velocity": 104,
      "chip": "ym2612"
    },
    {
      "channel": 1,
      "note": 83,
      "start": 77.7927,
      "duration": 0.0993,
      "velocity": 97,
      "chip": "ym2612"
    },
    {
      "channel": 4,
      "note": 74,
      "start": 77.7933,
      "duration": 0.3836,
      "velocity": 97,
      "chip": "ym2612"
    },
    {
      "channel": 5,
      "note": 74,
      "start": 77.7955,
      "duration": 0.0973,
      "velocity": 118,
      "chip": "ym2612"
    },
    {
      "channel": 1,
      "note": 86,
      "start": 77.8922,
      "duration": 0.1004,
      "velocity": 97,
      "chip": "ym2612"
    },
    {
      "channel": 5,
      "note": 74,
      "start": 77.8929,
      "duration": 0.2846,
      "velocity": 118,
      "chip": "ym2612"
    },
    {
      "channel": 0,
      "note": 55,
      "start": 77.9922,
      "duration": 0.2841,
      "velocity": 104,
      "chip": "ym2612"
    },
    {
      "channel": 1,
      "note": 74,
      "start": 77.9927,
      "duration": 0.0837,
      "velocity": 97,
      "chip": "ym2612"
    },
    {
      "channel": 1,
      "note": 79,
      "start": 78.0765,
      "duration": 0.0998,
      "velocity": 97,
      "chip": "ym2612"
    },
    {
      "channel": 1,
      "note": 83,
      "start": 78.1764,
      "duration": 0.1004,
      "velocity": 97,
      "chip": "ym2612"
    },
    {
      "channel": 4,
      "note": 79,
      "start": 78.1771,
      "duration": 0.1004,
      "velocity": 97,
      "chip": "ym2612"
    },
    {
      "channel": 5,
      "note": 74,
      "start": 78.1778,
      "duration": 0.1003,
      "velocity": 118,
      "chip": "ym2612"
    },
    {
      "channel": 0,
      "note": 55,
      "start": 78.2764,
      "duration": 1.3728,
      "velocity": 104,
      "chip": "ym2612"
    },
    {
      "channel": 1,
      "note": 86,
      "start": 78.277,
      "duration": 1.3722,
      "velocity": 97,
      "chip": "ym2612"
    },
    {
      "channel": 4,
      "note": 74,
      "start": 78.2776,
      "duration": 1.3716,
      "velocity": 97,
      "chip": "ym2612"
    },
    {
      "channel": 5,
      "note": 74,
      "start": 78.2782,
      "duration": 1.371,
      "velocity": 118,
      "chip": "ym2612"
    }
  ]
}