{
  "track_name": "14 - The Ticket Office",
  "duration_sec": 92.929,
  "sample_rate": 44100,
  "note_count": 1963,
  "unique_pitches": 46,
  "pitch_range": 57,
  "avg_note_duration": 0.1835,
  "reconstruction_stats": {
    "notes_reconstructed": 1963,
    "keyon_events": 1963,
    "keyoff_events": 1963,
    "orphan_keyons": 0,
    "unique_pitches": 46,
    "pitch_range": 57,
    "avg_duration_sec": 0.1835
  },
  "metadata": {
    "source": "N\\Nightmare Circus\\14 - The Ticket Office.vgz"
  },
  "notes": [
    {
      "channel": 0,
      "note": 80,
      "start": 0.0007,
      "duration": 0.055,
      "velocity": 102,
      "chip": "ym2612"
    },
    {
      "channel": 1,
      "note": 84,
      "start": 0.0038,
      "duration": 0.0521,
      "velocity": 102,
      "chip": "ym2612"
    },
    {
      "channel": 3,
      "note": 43,
      "start": 0.0205,
      "duration": 13.7024,
      "velocity": 125,
      "chip": "ym2612"
    },
    {
      "channel": 4,
      "note": 33,
      "start": 0.0486,
      "duration": 0.374,
      "velocity": 124,
      "chip": "ym2612"
    },
    {
      "channel": 5,
      "note": 80,
      "start": 0.0927,
      "duration": 0.08,
      "velocity": 102,
      "chip": "ym2612"
    },
    {
      "channel": 2,
      "note": 84,
      "start": 0.0962,
      "duration": 0.1097,
      "velocity": 102,
      "chip": "ym2612"
    },
    {
      "channel": 0,
      "note": 80,
      "start": 0.2094,
      "duration": 0.0631,
      "velocity": 102,
      "chip": "ym2612"
    },
    {
      "channel": 1,
      "note": 84,
      "start": 0.2126,
      "duration": 0.0932,
      "velocity": 102,
      "chip": "ym2612"
    },
    {
      "channel": 5,
      "note": 80,
      "start": 0.3098,
      "duration": 0.0796,
      "velocity": 102,
      "chip": "ym2612"
    },
    {
      "channel": 2,
      "note": 84,
      "start": 0.3133,
      "duration": 0.1095,
      "velocity": 102,
      "chip": "ym2612"
    },
    {
      "channel": 0,
      "note": 77,
      "start": 0.4259,
      "duration": 0.3799,
      "velocity": 102,
      "chip": "ym2612"
    },
    {
      "channel": 1,
      "note": 77,
      "start": 0.526,
      "duration": 0.0799,
      "velocity": 102,
      "chip": "ym2612"
    },
    {
      "channel": 5,
      "note": 77,
      "start": 0.6425,
      "duration": 0.0635,
      "velocity": 102,
      "chip": "ym2612"
    },
    {
      "channel": 4,
      "note": 28,
      "start": 0.6462,
      "duration": 0.0597,
      "velocity": 124,
      "chip": "ym2612"
    },
    {
      "channel": 2,
      "note": 77,
      "start": 0.7429,
      "duration": 0.0632,
      "velocity": 102,
      "chip": "ym2612"
    },
    {
      "channel": 4,
      "note": 29,
      "start": 0.7467,
      "duration": 0.0592,
      "velocity": 124,
      "chip": "ym2612"
    },
    {
      "channel": 0,
      "note": 81,
      "start": 0.8589,
      "duration": 0.0968,
      "velocity": 102,
      "chip": "ym2612"
    },
    {
      "channel": 1,
      "note": 85,
      "start": 0.8618,
      "duration": 0.0607,
      "velocity": 102,
      "chip": "ym2612"
    },
    {
      "channel": 5,
      "note": 42,
      "start": 0.8657,
      "duration": 0.1571,
      "velocity": 125,
      "chip": "ym2612"
    },
    {
      "channel": 4,
      "note": 81,
      "start": 0.9595,
      "duration": 0.0632,
      "velocity": 102,
      "chip": "ym2612"
    },
    {
      "channel": 2,
      "note": 85,
      "start": 0.9626,
      "duration": 0.1101,
      "velocity": 102,
      "chip": "ym2612"
    },
    {
      "channel": 1,
      "note": 81,
      "start": 1.076,
      "duration": 0.0632,
      "velocity": 102,
      "chip": "ym2612"
    },
    {
      "channel": 0,
      "note": 85,
      "start": 1.0788,
      "duration": 0.0937,
      "velocity": 102,
      "chip": "ym2612"
    },
    {
      "channel": 4,
      "note": 81,
      "start": 1.1764,
      "duration": 0.0629,
      "velocity": 102,
      "chip": "ym2612"
    },
    {
      "channel": 5,
      "note": 85,
      "start": 1.1794,
      "duration": 0.0932,
      "velocity": 102,
      "chip": "ym2612"
    },
    {
      "channel": 2,
      "note": 77,
      "start": 1.2759,
      "duration": 0.2186,
      "velocity": 102,
      "chip": "ym2612"
    },
    {
      "channel": 1,
      "note": 42,
      "start": 1.2798,
      "duration": 0.0761,
      "velocity": 124,
      "chip": "ym2612"
    },
    {
      "channel": 0,
      "note": 77,
      "start": 1.3929,
      "duration": 0.0629,
      "velocity": 102,
      "chip": "ym2612"
    },
    {
      "channel": 1,
      "note": 39,
      "start": 1.3965,
      "duration": 0.0594,
      "velocity": 124,
      "chip": "ym2612"
    },
    {
      "channel": 4,
      "note": 77,
      "start": 1.4927,
      "duration": 0.0801,
      "velocity": 102,
      "chip": "ym2612"
    },
    {
      "channel": 2,
      "note": 49,
      "start": 1.4971,
      "duration": 0.0258,
      "velocity": 106,
      "chip": "ym2612"
    },
    {
      "channel": 5,
      "note": 77,
      "start": 1.6098,
      "duration": 0.0629,
      "velocity": 102,
      "chip": "ym2612"
    },
    {
      "channel": 2,
      "note": 49,
      "start": 1.6134,
      "duration": 0.0594,
      "velocity": 106,
      "chip": "ym2612"
    },
    {
      "channel": 0,
      "note": 80,
      "start": 1.7102,
      "duration": 0.0791,
      "velocity": 102,
      "chip": "ym2612"
    },
    {
      "channel": 1,
      "note": 84,
      "start": 1.7129,
      "duration": 0.0766,
      "velocity": 102,
      "chip": "ym2612"
    },
    {
      "channel": 2,
      "note": 49,
      "start": 1.7219,
      "duration": 0.1676,
      "velocity": 106,
      "chip": "ym2612"
    },
    {
      "channel": 4,
      "note": 80,
      "start": 1.8262,
      "duration": 0.0632,
      "velocity": 102,
      "chip": "ym2612"
    },
    {
      "channel": 5,
      "note": 84,
      "start": 1.8292,
      "duration": 0.0934,
      "velocity": 102,
      "chip": "ym2612"
    },
    {
      "channel": 0,
      "note": 80,
      "start": 1.9262,
      "duration": 0.0631,
      "velocity": 102,
      "chip": "ym2612"
    },
    {
      "channel": 1,
      "note": 84,
      "start": 1.929,
      "duration": 0.1102,
      "velocity": 102,
      "chip": "ym2612"
    },
    {
      "channel": 2,
      "note": 49,
      "start": 1.9326,
      "duration": 0.1736,
      "velocity": 106,
      "chip": "ym2612"
    },
    {
      "channel": 4,
      "note": 80,
      "start": 2.0432,
      "duration": 0.0628,
      "velocity": 102,
      "chip": "ym2612"
    },
    {
      "channel": 5,
      "note": 84,
      "start": 2.0463,
      "duration": 0.0931,
      "velocity": 102,
      "chip": "ym2612"
    },
    {
      "channel": 0,
      "note": 77,
      "start": 2.1425,
      "duration": 0.3966,
      "velocity": 102,
      "chip": "ym2612"
    },
    {
      "channel": 2,
      "note": 49,
      "start": 2.1466,
      "duration": 0.2428,
      "velocity": 106,
      "chip": "ym2612"
    },
    {
      "channel": 1,
      "note": 77,
      "start": 2.2593,
      "duration": 0.0633,
      "velocity": 102,
      "chip": "ym2612"
    },
    {
      "channel": 4,
      "note": 77,
      "start": 2.3593,
      "duration": 0.0632,
      "velocity": 102,
      "chip": "ym2612"
    },
    {
      "channel": 5,
      "note": 77,
      "start": 2.4596,
      "duration": 0.0799,
      "velocity": 102,
      "chip": "ym2612"
    },
    {
      "channel": 0,
      "note": 81,
      "start": 2.5757,
      "duration": 0.0969,
      "velocity": 102,
      "chip": "ym2612"
    },
    {
      "channel": 1,
      "note": 85,
      "start": 2.5785,
      "duration": 0.0607,
      "velocity": 102,
      "chip": "ym2612"
    },
    {
      "channel": 2,
      "note": 42,
      "start": 2.5824,
      "duration": 0.1739,
      "velocity": 125,
      "chip": "ym2612"
    },
    {
      "channel": 4,
      "note": 81,
      "start": 2.6762,
      "duration": 0.0798,
      "velocity": 102,
      "chip": "ym2612"
    },
    {
      "channel": 5,
      "note": 85,
      "start": 2.6793,
      "duration": 0.1101,
      "velocity": 102,
      "chip": "ym2612"
    },
    {
      "channel": 1,
      "note": 81,
      "start": 2.7929,
      "duration": 0.0634,
      "velocity": 102,
      "chip": "ym2612"
    },
    {
      "channel": 0,
      "note": 85,
      "start": 2.7957,
      "duration": 0.0936,
      "velocity": 102,
      "chip": "ym2612"
    },
    {
      "channel": 2,
      "note": 49,
      "start": 2.7999,
      "duration": 0.0566,
      "velocity": 95,
      "chip": "ym2612"
    },
    {
      "channel": 4,
      "note": 81,
      "start": 2.8933,
      "duration": 0.0796,
      "velocity": 102,
      "chip": "ym2612"
    },
    {
      "channel": 5,
      "note": 85,
      "start": 2.8963,
      "duration": 0.1098,
      "velocity": 102,
      "chip": "ym2612"
    },
    {
      "channel": 2,
      "note": 49,
      "start": 2.9004,
      "duration": 0.0726,
      "velocity": 95,
      "chip": "ym2612"
    },
    {
      "channel": 1,
      "note": 77,
      "start": 3.0093,
      "duration": 0.3803,
      "velocity": 102,
      "chip": "ym2612"
    },
    {
      "channel": 0,
      "note": 77,
      "start": 3.11,
      "duration": 0.0627,
      "velocity": 102,
      "chip": "ym2612"
    },
    {
      "channel": 4,
      "note": 77,
      "start": 3.2266,
      "duration": 0.063,
      "velocity": 102,
      "chip": "ym2612"
    },
    {
      "channel": 2,
      "note": 49,
      "start": 3.2309,
      "duration": 0.0254,
      "velocity": 106,
      "chip": "ym2612"
    },
    {
      "channel": 5,
      "note": 77,
      "start": 3.3269,
      "duration": 0.0629,
      "velocity": 102,
      "chip": "ym2612"
    },
    {
      "channel": 2,
      "note": 49,
      "start": 3.3306,
      "duration": 0.0593,
      "velocity": 106,
      "chip": "ym2612"
    },
    {
      "channel": 1,
      "note": 80,
      "start": 3.4273,
      "duration": 0.0788,
      "velocity": 102,
      "chip": "ym2612"
    },
    {
      "channel": 0,
      "note": 84,
      "start": 3.43,
      "duration": 0.076,
      "velocity": 102,
      "chip": "ym2612"
    },
    {
      "channel": 2,
      "note": 49,
      "start": 3.4384,
      "duration": 0.3845,
      "velocity": 106,
      "chip": "ym2612"
    },
    {
      "channel": 4,
      "note": 80,
      "start": 3.543,
      "duration": 0.063,
      "velocity": 102,
      "chip": "ym2612"
    },
    {
      "channel": 5,
      "note": 84,
      "start": 3.5461,
      "duration": 0.0934,
      "velocity": 102,
      "chip": "ym2612"
    },
    {
      "channel": 0,
      "note": 80,
      "start": 3.643,
      "duration": 0.0796,
      "velocity": 102,
      "chip": "ym2612"
    },
    {
      "channel": 1,
      "note": 84,
      "start": 3.6458,
      "duration": 0.1101,
      "velocity": 102,
      "chip": "ym2612"
    },
    {
      "channel": 4,
      "note": 80,
      "start": 3.7599,
      "duration": 0.0629,
      "velocity": 102,
      "chip": "ym2612"
    },
    {
      "channel": 5,
      "note": 84,
      "start": 3.763,
      "duration": 0.0931,
      "velocity": 102,
      "chip": "ym2612"
    },
    {
      "channel": 0,
      "note": 77,
      "start": 3.8593,
      "duration": 0.3966,
      "velocity": 102,
      "chip": "ym2612"
    },
    {
      "channel": 1,
      "note": 77,
      "start": 3.9761,
      "duration": 0.0632,
      "velocity": 102,
      "chip": "ym2612"
    },
    {
      "channel": 4,
      "note": 77,
      "start": 4.0761,
      "duration": 0.0802,
      "velocity": 102,
      "chip": "ym2612"
    },
    {
      "channel": 2,
      "note": 28,
      "start": 4.0805,
      "duration": 0.0758,
      "velocity": 124,
      "chip": "ym2612"
    },
    {
      "channel": 5,
      "note": 77,
      "start": 4.193,
      "duration": 0.0632,
      "velocity": 102,
      "chip": "ym2612"
    },
    {
      "channel": 2,
      "note": 29,
      "start": 4.1974,
      "duration": 0.059,
      "velocity": 124,
      "chip": "ym2612"
    },
    {
      "channel": 0,
      "note": 81,
      "start": 4.2923,
      "duration": 0.1137,
      "velocity": 102,
      "chip": "ym2612"
    },
    {
      "channel": 1,
      "note": 85,
      "start": 4.2952,
      "duration": 0.0607,
      "velocity": 102,
      "chip": "ym2612"
    },
    {
      "channel": 4,
      "note": 42,
      "start": 4.299,
      "duration": 0.1739,
      "velocity": 125,
      "chip": "ym2612"
    },
    {
      "channel": 5,
      "note": 81,
      "start": 4.4096,
      "duration": 0.0634,
      "velocity": 102,
      "chip": "ym2612"
    },
    {
      "channel": 2,
      "note": 85,
      "start": 4.4128,
      "duration": 0.0935,
      "velocity": 102,
      "chip": "ym2612"
    },
    {
      "channel": 1,
      "note": 81,
      "start": 4.5095,
      "duration": 0.0632,
      "velocity": 102,
      "chip": "ym2612"
    },
    {
      "channel": 0,
      "note": 85,
      "start": 4.5124,
      "duration": 0.0936,
      "velocity": 102,
      "chip": "ym2612"
    },
    {
      "channel": 4,
      "note": 81,
      "start": 4.61,
      "duration": 0.0795,
      "velocity": 102,
      "chip": "ym2612"
    },
    {
      "channel": 5,
      "note": 85,
      "start": 4.613,
      "duration": 0.1099,
      "velocity": 102,
      "chip": "ym2612"
    },
    {
      "channel": 2,
      "note": 77,
      "start": 4.7261,
      "duration": 0.2186,
      "velocity": 102,
      "chip": "ym2612"
    },
    {
      "channel": 1,
      "note": 42,
      "start": 4.7311,
      "duration": 0.0582,
      "velocity": 124,
      "chip": "ym2612"
    },
    {
      "channel": 0,
      "note": 77,
      "start": 4.8266,
      "duration": 0.0793,
      "velocity": 102,
      "chip": "ym2612"
    },
    {
      "channel": 1,
      "note": 39,
      "start": 4.831,
      "duration": 0.0751,
      "velocity": 124,
      "chip": "ym2612"
    },
    {
      "channel": 4,
      "note": 77,
      "start": 4.9433,
      "duration": 0.0629,
      "velocity": 102,
      "chip": "ym2612"
    },
    {
      "channel": 2,
      "note": 49,
      "start": 4.9473,
      "duration": 0.0256,
      "velocity": 106,
      "chip": "ym2612"
    },
    {
      "channel": 5,
      "note": 77,
      "start": 5.0436,
      "duration": 0.0792,
      "velocity": 102,
      "chip": "ym2612"
    },
    {
      "channel": 2,
      "note": 49,
      "start": 5.0472,
      "duration": 0.0757,
      "velocity": 106,
      "chip": "ym2612"
    },
    {
      "channel": 0,
      "note": 80,
      "start": 5.1608,
      "duration": 0.0618,
      "velocity": 102,
      "chip": "ym2612"
    },
    {
      "channel": 1,
      "note": 84,
      "start": 5.1634,
      "duration": 0.0593,
      "velocity": 102,
      "chip": "ym2612"
    },
    {
      "channel": 2,
      "note": 49,
      "start": 5.1731,
      "duration": 0.1665,
      "velocity": 106,
      "chip": "ym2612"
    },
    {
      "channel": 4,
      "note": 80,
      "start": 5.2597,
      "duration": 0.0797,
      "velocity": 102,
      "chip": "ym2612"
    },
    {
      "channel": 5,
      "note": 84,
      "start": 5.2628,
      "duration": 0.11,
      "velocity": 102,
      "chip": "ym2612"
    },
    {
      "channel": 0,
      "note": 80,
      "start": 5.3763,
      "duration": 0.0629,
      "velocity": 102,
      "chip": "ym2612"
    },
    {
      "channel": 1,
      "note": 84,
      "start": 5.3792,
      "duration": 0.0934,
      "velocity": 102,
      "chip": "ym2612"
    },
    {
      "channel": 2,
      "note": 49,
      "start": 5.3827,
      "duration": 0.1568,
      "velocity": 106,
      "chip": "ym2612"
    },
    {
      "channel": 4,
      "note": 80,
      "start": 5.4766,
      "duration": 0.0628,
      "velocity": 102,
      "chip": "ym2612"
    },
    {
      "channel": 5,
      "note": 84,
      "start": 5.4797,
      "duration": 0.1098,
      "velocity": 102,
      "chip": "ym2612"
    },
    {
      "channel": 0,
      "note": 77,
      "start": 5.5926,
      "duration": 0.38,
      "velocity": 102,
      "chip": "ym2612"
    },
    {
      "channel": 2,
      "note": 49,
      "start": 5.5967,
      "duration": 0.2428,
      "velocity": 106,
      "chip": "ym2612"
    },
    {
      "channel": 1,
      "note": 77,
      "start": 5.6929,
      "duration": 0.0632,
      "velocity": 102,
      "chip": "ym2612"
    },
    {
      "channel": 4,
      "note": 77,
      "start": 5.7927,
      "duration": 0.08,
      "velocity": 102,
      "chip": "ym2612"
    },
    {
      "channel": 5,
      "note": 77,
      "start": 5.9096,
      "duration": 0.0632,
      "velocity": 102,
      "chip": "ym2612"
    },
    {
      "channel": 0,
      "note": 81,
      "start": 6.0089,
      "duration": 0.1137,
      "velocity": 102,
      "chip": "ym2612"
    },
    {
      "channel": 1,
      "note": 85,
      "start": 6.0118,
      "duration": 0.0776,
      "velocity": 102,
      "chip": "ym2612"
    },
    {
      "channel": 2,
      "note": 42,
      "start": 6.0157,
      "duration": 0.174,
      "velocity": 125,
      "chip": "ym2612"
    },
    {
      "channel": 4,
      "note": 81,
      "start": 6.1263,
      "duration": 0.0632,
      "velocity": 102,
      "chip": "ym2612"
    },
    {
      "channel": 5,
      "note": 85,
      "start": 6.1294,
      "duration": 0.0932,
      "velocity": 102,
      "chip": "ym2612"
    },
    {
      "channel": 1,
      "note": 81,
      "start": 6.2261,
      "duration": 0.08,
      "velocity": 102,
      "chip": "ym2612"
    },
    {
      "channel": 0,
      "note": 85,
      "start": 6.229,
      "duration": 0.1103,
      "velocity": 102,
      "chip": "ym2612"
    },
    {
      "channel": 2,
      "note": 49,
      "start": 6.2336,
      "duration": 0.0728,
      "velocity": 95,
      "chip": "ym2612"
    },
    {
      "channel": 4,
      "note": 81,
      "start": 6.3432,
      "duration": 0.063,
      "velocity": 102,
      "chip": "ym2612"
    },
    {
      "channel": 5,
      "note": 85,
      "start": 6.3463,
      "duration": 0.0933,
      "velocity": 102,
      "chip": "ym2612"
    },
    {
      "channel": 2,
      "note": 49,
      "start": 6.3501,
      "duration": 0.0562,
      "velocity": 95,
      "chip": "ym2612"
    },
    {
      "channel": 1,
      "note": 77,
      "start": 6.4427,
      "duration": 0.3967,
      "velocity": 102,
      "chip": "ym2612"
    },
    {
      "channel": 2,
      "note": 49,
      "start": 6.4494,
      "duration": 0.0736,
      "velocity": 95,
      "chip": "ym2612"
    },
    {
      "channel": 0,
      "note": 77,
      "start": 6.5601,
      "duration": 0.0626,
      "velocity": 102,
      "chip": "ym2612"
    },
    {
      "channel": 2,
      "note": 49,
      "start": 6.5643,
      "duration": 0.0587,
      "velocity": 95,
      "chip": "ym2612"
    },
    {
      "channel": 4,
      "note": 77,
      "start": 6.66,
      "duration": 0.063,
      "velocity": 102,
      "chip": "ym2612"
    },
    {
      "channel": 2,
      "note": 49,
      "start": 6.6639,
      "duration": 0.0258,
      "velocity": 106,
      "chip": "ym2612"
    },
    {
      "channel": 5,
      "note": 77,
      "start": 6.7769,
      "duration": 0.0627,
      "velocity": 102,
      "chip": "ym2612"
    },
    {
      "channel": 2,
      "note": 49,
      "start": 6.7805,
      "duration": 0.0592,
      "velocity": 106,
      "chip": "ym2612"
    },
    {
      "channel": 1,
      "note": 80,
      "start": 6.8773,
      "duration": 0.0622,
      "velocity": 102,
      "chip": "ym2612"
    },
    {
      "channel": 0,
      "note": 84,
      "start": 6.88,
      "duration": 0.0593,
      "velocity": 102,
      "chip": "ym2612"
    },
    {
      "channel": 2,
      "note": 49,
      "start": 6.8888,
      "duration": 0.3841,
      "velocity": 106,
      "chip": "ym2612"
    },
    {
      "channel": 4,
      "note": 80,
      "start": 6.9763,
      "duration": 0.0798,
      "velocity": 102,
      "chip": "ym2612"
    },
    {
      "channel": 5,
      "note": 84,
      "start": 6.9794,
      "duration": 0.1101,
      "velocity": 102,
      "chip": "ym2612"
    },
    {
      "channel": 0,
      "note": 80,
      "start": 7.093,
      "duration": 0.063,
      "velocity": 102,
      "chip": "ym2612"
    },
    {
      "channel": 1,
      "note": 84,
      "start": 7.0958,
      "duration": 0.0934,
      "velocity": 102,
      "chip": "ym2612"
    },
    {
      "channel": 4,
      "note": 80,
      "start": 7.1933,
      "duration": 0.0795,
      "velocity": 102,
      "chip": "ym2612"
    },
    {
      "channel": 5,
      "note": 84,
      "start": 7.1964,
      "duration": 0.1097,
      "velocity": 102,
      "chip": "ym2612"
    },
    {
      "channel": 0,
      "note": 77,
      "start": 7.3093,
      "duration": 0.3801,
      "velocity": 102,
      "chip": "ym2612"
    },
    {
      "channel": 1,
      "note": 77,
      "start": 7.4095,
      "duration": 0.0798,
      "velocity": 102,
      "chip": "ym2612"
    },
    {
      "channel": 4,
      "note": 77,
      "start": 7.5261,
      "duration": 0.0634,
      "velocity": 102,
      "chip": "ym2612"
    },
    {
      "channel": 2,
      "note": 28,
      "start": 7.5305,
      "duration": 0.0591,
      "velocity": 124,
      "chip": "ym2612"
    },
    {
      "channel": 5,
      "note": 77,
      "start": 7.6263,
      "duration": 0.0634,
      "velocity": 102,
      "chip": "ym2612"
    },
    {
      "channel": 2,
      "note": 29,
      "start": 7.6307,
      "duration": 0.0591,
      "velocity": 124,
      "chip": "ym2612"
    },
    {
      "channel": 0,
      "note": 81,
      "start": 7.7423,
      "duration": 0.097,
      "velocity": 102,
      "chip": "ym2612"
    },
    {
      "channel": 1,
      "note": 85,
      "start": 7.7452,
      "duration": 0.0608,
      "velocity": 102,
      "chip": "ym2612"
    },
    {
      "channel": 4,
      "note": 42,
      "start": 7.749,
      "duration": 0.1572,
      "velocity": 125,
      "chip": "ym2612"
    },
    {
      "channel": 5,
      "note": 81,
      "start": 7.843,
      "duration": 0.0633,
      "velocity": 102,
      "chip": "ym2612"
    },
    {
      "channel": 2,
      "note": 85,
      "start": 7.8461,
      "duration": 0.1101,
      "velocity": 102,
      "chip": "ym2612"
    },
    {
      "channel": 1,
      "note": 81,
      "start": 7.9595,
      "duration": 0.0632,
      "velocity": 102,
      "chip": "ym2612"
    },
    {
      "channel": 0,
      "note": 85,
      "start": 7.9624,
      "duration": 0.0937,
      "velocity": 102,
      "chip": "ym2612"
    },
    {
      "channel": 4,
      "note": 81,
      "start": 8.06,
      "duration": 0.0629,
      "velocity": 102,
      "chip": "ym2612"
    },
    {
      "channel": 5,
      "note": 85,
      "start": 8.0631,
      "duration": 0.0931,
      "velocity": 102,
      "chip": "ym2612"
    },
    {
      "channel": 2,
      "note": 77,
      "start": 8.1594,
      "duration": 0.2185,
      "velocity": 102,
      "chip": "ym2612"
    },
    {
      "channel": 1,
      "note": 42,
      "start": 8.1644,
      "duration": 0.075,
      "velocity": 124,
      "chip": "ym2612"
    },
    {
      "channel": 0,
      "note": 77,
      "start": 8.2767,
      "duration": 0.0627,
      "velocity": 102,
      "chip": "ym2612"
    },
    {
      "channel": 1,
      "note": 39,
      "start": 8.2811,
      "duration": 0.0584,
      "velocity": 124,
      "chip": "ym2612"
    },
    {
      "channel": 4,
      "note": 77,
      "start": 8.3766,
      "duration": 0.0797,
      "velocity": 102,
      "chip": "ym2612"
    },
    {
      "channel": 2,
      "note": 49,
      "start": 8.3806,
      "duration": 0.0424,
      "velocity": 106,
      "chip": "ym2612"
    },
    {
      "channel": 5,
      "note": 77,
      "start": 8.4936,
      "duration": 0.0625,
      "velocity": 102,
      "chip": "ym2612"
    },
    {
      "channel": 2,
      "note": 49,
      "start": 8.4972,
      "duration": 0.059,
      "velocity": 106,
      "chip": "ym2612"
    },
    {
      "channel": 0,
      "note": 80,
      "start": 8.5941,
      "duration": 0.0784,
      "velocity": 102,
      "chip": "ym2612"
    },
    {
      "channel": 1,
      "note": 84,
      "start": 8.5968,
      "duration": 0.0759,
      "velocity": 102,
      "chip": "ym2612"
    },
    {
      "channel": 2,
      "note": 49,
      "start": 8.6064,
      "duration": 0.1666,
      "velocity": 106,
      "chip": "ym2612"
    },
    {
      "channel": 4,
      "note": 80,
      "start": 8.7096,
      "duration": 0.0632,
      "velocity": 102,
      "chip": "ym2612"
    },
    {
      "channel": 5,
      "note": 84,
      "start": 8.7128,
      "duration": 0.0933,
      "velocity": 102,
      "chip": "ym2612"
    },
    {
      "channel": 0,
      "note": 80,
      "start": 8.8096,
      "duration": 0.063,
      "velocity": 102,
      "chip": "ym2612"
    },
    {
      "channel": 1,
      "note": 84,
      "start": 8.8124,
      "duration": 0.1101,
      "velocity": 102,
      "chip": "ym2612"
    },
    {
      "channel": 2,
      "note": 49,
      "start": 8.816,
      "duration": 0.1736,
      "velocity": 106,
      "chip": "ym2612"
    },
    {
      "channel": 4,
      "note": 80,
      "start": 8.9266,
      "duration": 0.0629,
      "velocity": 102,
      "chip": "ym2612"
    },
    {
      "channel": 5,
      "note": 84,
      "start": 8.9297,
      "duration": 0.0931,
      "velocity": 102,
      "chip": "ym2612"
    },
    {
      "channel": 0,
      "note": 77,
      "start": 9.0259,
      "duration": 0.3967,
      "velocity": 102,
      "chip": "ym2612"
    },
    {
      "channel": 2,
      "note": 49,
      "start": 9.0299,
      "duration": 0.2429,
      "velocity": 106,
      "chip": "ym2612"
    },
    {
      "channel": 1,
      "note": 77,
      "start": 9.1429,
      "duration": 0.0632,
      "velocity": 102,
      "chip": "ym2612"
    },
    {
      "channel": 4,
      "note": 77,
      "start": 9.2427,
      "duration": 0.0633,
      "velocity": 102,
      "chip": "ym2612"
    },
    {
      "channel": 5,
      "note": 77,
      "start": 9.343,
      "duration": 0.0798,
      "velocity": 102,
      "chip": "ym2612"
    },
    {
      "channel": 0,
      "note": 81,
      "start": 9.4589,
      "duration": 0.097,
      "velocity": 102,
      "chip": "ym2612"
    },
    {
      "channel": 1,
      "note": 85,
      "start": 9.4618,
      "duration": 0.0611,
      "velocity": 102,
      "chip": "ym2612"
    },
    {
      "channel": 2,
      "note": 42,
      "start": 9.4657,
      "duration": 0.1739,
      "velocity": 125,
      "chip": "ym2612"
    },
    {
      "channel": 4,
      "note": 81,
      "start": 9.5596,
      "duration": 0.0798,
      "velocity": 102,
      "chip": "ym2612"
    },
    {
      "channel": 5,
      "note": 85,
      "start": 9.5627,
      "duration": 0.1101,
      "velocity": 102,
      "chip": "ym2612"
    },
    {
      "channel": 1,
      "note": 81,
      "start": 9.6762,
      "duration": 0.0632,
      "velocity": 102,
      "chip": "ym2612"
    },
    {
      "channel": 0,
      "note": 85,
      "start": 9.6791,
      "duration": 0.0935,
      "velocity": 102,
      "chip": "ym2612"
    },
    {
      "channel": 2,
      "note": 49,
      "start": 9.6836,
      "duration": 0.0561,
      "velocity": 95,
      "chip": "ym2612"
    },
    {
      "channel": 4,
      "note": 81,
      "start": 9.7766,
      "duration": 0.0796,
      "velocity": 102,
      "chip": "ym2612"
    },
    {
      "channel": 5,
      "note": 85,
      "start": 9.7796,
      "duration": 0.1099,
      "velocity": 102,
      "chip": "ym2612"
    },
    {
      "channel": 2,
      "note": 49,
      "start": 9.7836,
      "duration": 0.0727,
      "velocity": 95,
      "chip": "ym2612"
    },
    {
      "channel": 1,
      "note": 77,
      "start": 9.8927,
      "duration": 0.3802,
      "velocity": 102,
      "chip": "ym2612"
    },
    {
      "channel": 0,
      "note": 77,
      "start": 9.9934,
      "duration": 0.0627,
      "velocity": 102,
      "chip": "ym2612"
    },
    {
      "channel": 4,
      "note": 77,
      "start": 10.11,
      "duration": 0.0629,
      "velocity": 102,
      "chip": "ym2612"
    },
    {
      "channel": 2,
      "note": 49,
      "start": 10.1139,
      "duration": 0.0258,
      "velocity": 106,
      "chip": "ym2612"
    },
    {
      "channel": 5,
      "note": 77,
      "start": 10.2102,
      "duration": 0.0629,
      "velocity": 102,
      "chip": "ym2612"
    },
    {
      "channel": 2,
      "note": 49,
      "start": 10.2138,
      "duration": 0.0594,
      "velocity": 106,
      "chip": "ym2612"
    },
    {
      "channel": 1,
      "note": 80,
      "start": 10.3274,
      "duration": 0.0622,
      "velocity": 102,
      "chip": "ym2612"
    },
    {
      "channel": 0,
      "note": 84,
      "start": 10.3301,
      "duration": 0.0593,
      "velocity": 102,
      "chip": "ym2612"
    },
    {
      "channel": 2,
      "note": 49,
      "start": 10.3388,
      "duration": 0.3674,
      "velocity": 106,
      "chip": "ym2612"
    },
    {
      "channel": 4,
      "note": 80,
      "start": 10.4263,
      "duration": 0.0631,
      "velocity": 102,
      "chip": "ym2612"
    },
    {
      "channel": 5,
      "note": 84,
      "start": 10.4294,
      "duration": 0.0934,
      "velocity": 102,
      "chip": "ym2612"
    },
    {
      "channel": 0,
      "note": 80,
      "start": 10.5263,
      "duration": 0.0796,
      "velocity": 102,
      "chip": "ym2612"
    },
    {
      "channel": 1,
      "note": 84,
      "start": 10.5292,
      "duration": 0.1101,
      "velocity": 102,
      "chip": "ym2612"
    },
    {
      "channel": 4,
      "note": 80,
      "start": 10.6432,
      "duration": 0.0628,
      "velocity": 102,
      "chip": "ym2612"
    },
    {
      "channel": 5,
      "note": 84,
      "start": 10.6463,
      "duration": 0.0931,
      "velocity": 102,
      "chip": "ym2612"
    },
    {
      "channel": 0,
      "note": 77,
      "start": 10.7426,
      "duration": 0.3968,
      "velocity": 102,
      "chip": "ym2612"
    },
    {
      "channel": 1,
      "note": 77,
      "start": 10.8595,
      "duration": 0.063,
      "velocity": 102,
      "chip": "ym2612"
    },
    {
      "channel": 4,
      "note": 77,
      "start": 10.9594,
      "duration": 0.0801,
      "velocity": 102,
      "chip": "ym2612"
    },
    {
      "channel": 2,
      "note": 28,
      "start": 10.9638,
      "duration": 0.0758,
      "velocity": 124,
      "chip": "ym2612"
    },
    {
      "channel": 5,
      "note": 77,
      "start": 11.0762,
      "duration": 0.0634,
      "velocity": 102,
      "chip": "ym2612"
    },
    {
      "channel": 2,
      "note": 29,
      "start": 11.0806,
      "duration": 0.0592,
      "velocity": 124,
      "chip": "ym2612"
    },
    {
      "channel": 0,
      "note": 81,
      "start": 11.1757,
      "duration": 0.1135,
      "velocity": 102,
      "chip": "ym2612"
    },
    {
      "channel": 1,
      "note": 85,
      "start": 11.1786,
      "duration": 0.0607,
      "velocity": 102,
      "chip": "ym2612"
    },
    {
      "channel": 4,
      "note": 42,
      "start": 11.1824,
      "duration": 0.1738,
      "velocity": 125,
      "chip": "ym2612"
    },
    {
      "channel": 5,
      "note": 81,
      "start": 11.2929,
      "duration": 0.0634,
      "velocity": 102,
      "chip": "ym2612"
    },
    {
      "channel": 2,
      "note": 85,
      "start": 11.296,
      "duration": 0.0936,
      "velocity": 102,
      "chip": "ym2612"
    },
    {
      "channel": 1,
      "note": 81,
      "start": 11.3929,
      "duration": 0.0632,
      "velocity": 102,
      "chip": "ym2612"
    },
    {
      "channel": 0,
      "note": 85,
      "start": 11.3958,
      "duration": 0.1102,
      "velocity": 102,
      "chip": "ym2612"
    },
    {
      "channel": 4,
      "note": 81,
      "start": 11.5099,
      "duration": 0.0629,
      "velocity": 102,
      "chip": "ym2612"
    },
    {
      "channel": 5,
      "note": 85,
      "start": 11.513,
      "duration": 0.0931,
      "velocity": 102,
      "chip": "ym2612"
    },
    {
      "channel": 2,
      "note": 77,
      "start": 11.6093,
      "duration": 0.2186,
      "velocity": 102,
      "chip": "ym2612"
    },
    {
      "channel": 1,
      "note": 42,
      "start": 11.614,
      "duration": 0.0587,
      "velocity": 124,
      "chip": "ym2612"
    },
    {
      "channel": 0,
      "note": 77,
      "start": 11.71,
      "duration": 0.0793,
      "velocity": 102,
      "chip": "ym2612"
    },
    {
      "channel": 1,
      "note": 39,
      "start": 11.7147,
      "duration": 0.0747,
      "velocity": 124,
      "chip": "ym2612"
    },
    {
      "channel": 4,
      "note": 77,
      "start": 11.8266,
      "duration": 0.0629,
      "velocity": 102,
      "chip": "ym2612"
    },
    {
      "channel": 2,
      "note": 49,
      "start": 11.8306,
      "duration": 0.0257,
      "velocity": 106,
      "chip": "ym2612"
    },
    {
      "channel": 5,
      "note": 77,
      "start": 11.927,
      "duration": 0.0791,
      "velocity": 102,
      "chip": "ym2612"
    },
    {
      "channel": 2,
      "note": 49,
      "start": 11.9306,
      "duration": 0.0757,
      "velocity": 106,
      "chip": "ym2612"
    },
    {
      "channel": 0,
      "note": 80,
      "start": 12.0441,
      "duration": 0.0618,
      "velocity": 102,
      "chip": "ym2612"
    },
    {
      "channel": 1,
      "note": 84,
      "start": 12.0468,
      "duration": 0.0594,
      "velocity": 102,
      "chip": "ym2612"
    },
    {
      "channel": 2,
      "note": 49,
      "start": 12.0558,
      "duration": 0.1672,
      "velocity": 106,
      "chip": "ym2612"
    },
    {
      "channel": 4,
      "note": 80,
      "start": 12.1429,
      "duration": 0.0799,
      "velocity": 102,
      "chip": "ym2612"
    },
    {
      "channel": 5,
      "note": 84,
      "start": 12.146,
      "duration": 0.11,
      "velocity": 102,
      "chip": "ym2612"
    },
    {
      "channel": 0,
      "note": 80,
      "start": 12.2596,
      "duration": 0.0632,
      "velocity": 102,
      "chip": "ym2612"
    },
    {
      "channel": 1,
      "note": 84,
      "start": 12.2624,
      "duration": 0.0935,
      "velocity": 102,
      "chip": "ym2612"
    },
    {
      "channel": 2,
      "note": 49,
      "start": 12.266,
      "duration": 0.1569,
      "velocity": 106,
      "chip": "ym2612"
    },
    {
      "channel": 4,
      "note": 80,
      "start": 12.36,
      "duration": 0.0628,
      "velocity": 102,
      "chip": "ym2612"
    },
    {
      "channel": 5,
      "note": 84,
      "start": 12.363,
      "duration": 0.1098,
      "velocity": 102,
      "chip": "ym2612"
    },
    {
      "channel": 0,
      "note": 77,
      "start": 12.4759,
      "duration": 0.3801,
      "velocity": 102,
      "chip": "ym2612"
    },
    {
      "channel": 2,
      "note": 49,
      "start": 12.48,
      "duration": 0.2429,
      "velocity": 106,
      "chip": "ym2612"
    },
    {
      "channel": 1,
      "note": 77,
      "start": 12.5761,
      "duration": 0.0632,
      "velocity": 102,
      "chip": "ym2612"
    },
    {
      "channel": 4,
      "note": 77,
      "start": 12.6927,
      "duration": 0.0634,
      "velocity": 102,
      "chip": "ym2612"
    },
    {
      "channel": 5,
      "note": 77,
      "start": 12.7929,
      "duration": 0.0634,
      "velocity": 102,
      "chip": "ym2612"
    },
    {
      "channel": 0,
      "note": 81,
      "start": 12.8923,
      "duration": 0.1137,
      "velocity": 102,
      "chip": "ym2612"
    },
    {
      "channel": 1,
      "note": 85,
      "start": 12.8951,
      "duration": 0.0775,
      "velocity": 102,
      "chip": "ym2612"
    },
    {
      "channel": 2,
      "note": 42,
      "start": 12.8991,
      "duration": 0.1738,
      "velocity": 125,
      "chip": "ym2612"
    },
    {
      "channel": 4,
      "note": 81,
      "start": 13.0097,
      "duration": 0.063,
      "velocity": 102,
      "chip": "ym2612"
    },
    {
      "channel": 5,
      "note": 85,
      "start": 13.0128,
      "duration": 0.0932,
      "velocity": 102,
      "chip": "ym2612"
    },
    {
      "channel": 1,
      "note": 81,
      "start": 13.1095,
      "duration": 0.08,
      "velocity": 102,
      "chip": "ym2612"
    },
    {
      "channel": 0,
      "note": 85,
      "start": 13.1123,
      "duration": 0.1103,
      "velocity": 102,
      "chip": "ym2612"
    },
    {
      "channel": 2,
      "note": 49,
      "start": 13.1165,
      "duration": 0.0733,
      "velocity": 95,
      "chip": "ym2612"
    },
    {
      "channel": 4,
      "note": 81,
      "start": 13.2266,
      "duration": 0.063,
      "velocity": 102,
      "chip": "ym2612"
    },
    {
      "channel": 5,
      "note": 85,
      "start": 13.2296,
      "duration": 0.0932,
      "velocity": 102,
      "chip": "ym2612"
    },
    {
      "channel": 2,
      "note": 49,
      "start": 13.2334,
      "duration": 0.0563,
      "velocity": 95,
      "chip": "ym2612"
    },
    {
      "channel": 1,
      "note": 77,
      "start": 13.3259,
      "duration": 0.3969,
      "velocity": 102,
      "chip": "ym2612"
    },
    {
      "channel": 2,
      "note": 49,
      "start": 13.3331,
      "duration": 0.0732,
      "velocity": 95,
      "chip": "ym2612"
    },
    {
      "channel": 0,
      "note": 77,
      "start": 13.4434,
      "duration": 0.0626,
      "velocity": 102,
      "chip": "ym2612"
    },
    {
      "channel": 2,
      "note": 49,
      "start": 13.4475,
      "duration": 0.0588,
      "velocity": 95,
      "chip": "ym2612"
    },
    {
      "channel": 4,
      "note": 77,
      "start": 13.5432,
      "duration": 0.063,
      "velocity": 102,
      "chip": "ym2612"
    },
    {
      "channel": 2,
      "note": 49,
      "start": 13.5475,
      "duration": 0.0254,
      "velocity": 106,
      "chip": "ym2612"
    },
    {
      "channel": 5,
      "note": 77,
      "start": 13.6603,
      "duration": 0.0628,
      "velocity": 102,
      "chip": "ym2612"
    },
    {
      "channel": 2,
      "note": 49,
      "start": 13.664,
      "duration": 0.0593,
      "velocity": 106,
      "chip": "ym2612"
    },
    {
      "channel": 1,
      "note": 67,
      "start": 13.7605,
      "duration": 0.0625,
      "velocity": 102,
      "chip": "ym2612"
    },
    {
      "channel": 0,
      "note": 72,
      "start": 13.7633,
      "duration": 0.0596,
      "velocity": 102,
      "chip": "ym2612"
    },
    {
      "channel": 3,
      "note": 50,
      "start": 13.7727,
      "duration": 3.3502,
      "velocity": 95,
      "chip": "ym2612"
    },
    {
      "channel": 2,
      "note": 49,
      "start": 13.7803,
      "duration": 0.3761,
      "velocity": 106,
      "chip": "ym2612"
    },
    {
      "channel": 4,
      "note": 68,
      "start": 13.8764,
      "duration": 0.0632,
      "velocity": 102,
      "chip": "ym2612"
    },
    {
      "channel": 5,
      "note": 72,
      "start": 13.8795,
      "duration": 0.0934,
      "velocity": 102,
      "chip": "ym2612"
    },
    {
      "channel": 0,
      "note": 68,
      "start": 13.9764,
      "duration": 0.063,
      "velocity": 102,
      "chip": "ym2612"
    },
    {
      "channel": 1,
      "note": 72,
      "start": 13.9792,
      "duration": 0.0934,
      "velocity": 102,
      "chip": "ym2612"
    },
    {
      "channel": 4,
      "note": 50,
      "start": 13.9831,
      "duration": 0.0565,
      "velocity": 95,
      "chip": "ym2612"
    },
    {
      "channel": 5,
      "note": 68,
      "start": 14.0766,
      "duration": 0.0796,
      "velocity": 102,
      "chip": "ym2612"
    },
    {
      "channel": 0,
      "note": 72,
      "start": 14.0798,
      "duration": 0.1097,
      "velocity": 102,
      "chip": "ym2612"
    },
    {
      "channel": 4,
      "note": 47,
      "start": 14.0826,
      "duration": 0.0735,
      "velocity": 95,
      "chip": "ym2612"
    },
    {
      "channel": 1,
      "note": 62,
      "start": 14.1928,
      "duration": 0.3966,
      "velocity": 102,
      "chip": "ym2612"
    },
    {
      "channel": 4,
      "note": 49,
      "start": 14.1967,
      "duration": 0.0595,
      "velocity": 95,
      "chip": "ym2612"
    },
    {
      "channel": 5,
      "note": 50,
      "start": 14.2008,
      "duration": 3.3554,
      "velocity": 95,
      "chip": "ym2612"
    },
    {
      "channel": 2,
      "note": 42,
      "start": 14.2041,
      "duration": 0.169,
      "velocity": 125,
      "chip": "ym2612"
    },
    {
      "channel": 0,
      "note": 65,
      "start": 14.2933,
      "duration": 0.0794,
      "velocity": 102,
      "chip": "ym2612"
    },
    {
      "channel": 4,
      "note": 49,
      "start": 14.2972,
      "duration": 0.0758,
      "velocity": 95,
      "chip": "ym2612"
    },
    {
      "channel": 0,
      "note": 65,
      "start": 14.4099,
      "duration": 0.0627,
      "velocity": 102,
      "chip": "ym2612"
    },
    {
      "channel": 4,
      "note": 49,
      "start": 14.414,
      "duration": 0.0589,
      "velocity": 95,
      "chip": "ym2612"
    },
    {
      "channel": 2,
      "note": 65,
      "start": 14.5101,
      "duration": 0.0796,
      "velocity": 102,
      "chip": "ym2612"
    },
    {
      "channel": 4,
      "note": 49,
      "start": 14.5137,
      "duration": 0.0758,
      "velocity": 95,
      "chip": "ym2612"
    },
    {
      "channel": 1,
      "note": 68,
      "start": 14.6258,
      "duration": 0.0969,
      "velocity": 102,
      "chip": "ym2612"
    },
    {
      "channel": 0,
      "note": 73,
      "start": 14.629,
      "duration": 0.0602,
      "velocity": 102,
      "chip": "ym2612"
    },
    {
      "channel": 4,
      "note": 49,
      "start": 14.6329,
      "duration": 0.0565,
      "velocity": 95,
      "chip": "ym2612"
    },
    {
      "channel": 2,
      "note": 69,
      "start": 14.7263,
      "duration": 0.0631,
      "velocity": 102,
      "chip": "ym2612"
    },
    {
      "channel": 0,
      "note": 73,
      "start": 14.7294,
      "duration": 0.1099,
      "velocity": 102,
      "chip": "ym2612"
    },
    {
      "channel": 4,
      "note": 49,
      "start": 14.7336,
      "duration": 0.0556,
      "velocity": 95,
      "chip": "ym2612"
    },
    {
      "channel": 1,
      "note": 69,
      "start": 14.8428,
      "duration": 0.0631,
      "velocity": 102,
      "chip": "ym2612"
    },
    {
      "channel": 4,
      "note": 73,
      "start": 14.8456,
      "duration": 0.0938,
      "velocity": 102,
      "chip": "ym2612"
    },
    {
      "channel": 2,
      "note": 42,
      "start": 14.8498,
      "duration": 0.2064,
      "velocity": 125,
      "chip": "ym2612"
    },
    {
      "channel": 0,
      "note": 69,
      "start": 14.943,
      "duration": 0.0629,
      "velocity": 102,
      "chip": "ym2612"
    },
    {
      "channel": 1,
      "note": 73,
      "start": 14.9461,
      "duration": 0.1098,
      "velocity": 102,
      "chip": "ym2612"
    },
    {
      "channel": 4,
      "note": 62,
      "start": 15.0594,
      "duration": 0.3802,
      "velocity": 102,
      "chip": "ym2612"
    },
    {
      "channel": 0,
      "note": 33,
      "start": 15.0643,
      "duration": 0.0584,
      "velocity": 124,
      "chip": "ym2612"
    },
    {
      "channel": 1,
      "note": 62,
      "start": 15.1596,
      "duration": 0.063,
      "velocity": 102,
      "chip": "ym2612"
    },
    {
      "channel": 0,
      "note": 34,
      "start": 15.1644,
      "duration": 0.0582,
      "velocity": 124,
      "chip": "ym2612"
    },
    {
      "channel": 2,
      "note": 65,
      "start": 15.2596,
      "duration": 0.0017,
      "velocity": 102,
      "chip": "ym2612"
    },
    {
      "channel": 2,
      "note": 49,
      "start": 15.264,
      "duration": 0.0423,
      "velocity": 106,
      "chip": "ym2612"
    },
    {
      "channel": 0,
      "note": 65,
      "start": 15.3766,
      "duration": 0.0627,
      "velocity": 102,
      "chip": "ym2612"
    },
    {
      "channel": 2,
      "note": 49,
      "start": 15.3802,
      "duration": 0.0595,
      "velocity": 106,
      "chip": "ym2612"
    },
    {
      "channel": 4,
      "note": 67,
      "start": 15.4769,
      "duration": 0.0793,
      "velocity": 102,
      "chip": "ym2612"
    },
    {
      "channel": 1,
      "note": 72,
      "start": 15.4795,
      "duration": 0.0765,
      "velocity": 102,
      "chip": "ym2612"
    },
    {
      "channel": 2,
      "note": 49,
      "start": 15.4873,
      "duration": 0.169,
      "velocity": 106,
      "chip": "ym2612"
    },
    {
      "channel": 0,
      "note": 68,
      "start": 15.593,
      "duration": 0.0629,
      "velocity": 102,
      "chip": "ym2612"
    },
    {
      "channel": 1,
      "note": 72,
      "start": 15.596,
      "duration": 0.0933,
      "velocity": 102,
      "chip": "ym2612"
    },
    {
      "channel": 4,
      "note": 68,
      "start": 15.693,
      "duration": 0.0797,
      "velocity": 102,
      "chip": "ym2612"
    },
    {
      "channel": 0,
      "note": 72,
      "start": 15.6959,
      "duration": 0.11,
      "velocity": 102,
      "chip": "ym2612"
    },
    {
      "channel": 2,
      "note": 49,
      "start": 15.6997,
      "duration": 0.1733,
      "velocity": 106,
      "chip": "ym2612"
    },
    {
      "channel": 1,
      "note": 68,
      "start": 15.81,
      "duration": 0.0627,
      "velocity": 102,
      "chip": "ym2612"
    },
    {
      "channel": 4,
      "note": 72,
      "start": 15.813,
      "duration": 0.0931,
      "velocity": 102,
      "chip": "ym2612"
    },
    {
      "channel": 0,
      "note": 62,
      "start": 15.9093,
      "duration": 0.3967,
      "velocity": 102,
      "chip": "ym2612"
    },
    {
      "channel": 1,
      "note": 42,
      "start": 15.9131,
      "duration": 0.2095,
      "velocity": 125,
      "chip": "ym2612"
    },
    {
      "channel": 2,
      "note": 65,
      "start": 16.0262,
      "duration": 0.0634,
      "velocity": 102,
      "chip": "ym2612"
    },
    {
      "channel": 4,
      "note": 65,
      "start": 16.1261,
      "duration": 0.0635,
      "velocity": 102,
      "chip": "ym2612"
    },
    {
      "channel": 2,
      "note": 65,
      "start": 16.2264,
      "duration": 0.0799,
      "velocity": 102,
      "chip": "ym2612"
    },
    {
      "channel": 0,
      "note": 68,
      "start": 16.3423,
      "duration": 0.097,
      "velocity": 102,
      "chip": "ym2612"
    },
    {
      "channel": 1,
      "note": 73,
      "start": 16.3451,
      "duration": 0.0609,
      "velocity": 102,
      "chip": "ym2612"
    },
    {
      "channel": 4,
      "note": 69,
      "start": 16.443,
      "duration": 0.0797,
      "velocity": 102,
      "chip": "ym2612"
    },
    {
      "channel": 2,
      "note": 73,
      "start": 16.4461,
      "duration": 0.1101,
      "velocity": 102,
      "chip": "ym2612"
    },
    {
      "channel": 1,
      "note": 69,
      "start": 16.5595,
      "duration": 0.0634,
      "velocity": 102,
      "chip": "ym2612"
    },
    {
      "channel": 0,
      "note": 73,
      "start": 16.5624,
      "duration": 0.0936,
      "velocity": 102,
      "chip": "ym2612"
    },
    {
      "channel": 2,
      "note": 49,
      "start": 16.5666,
      "duration": 0.0566,
      "velocity": 95,
      "chip": "ym2612"
    },
    {
      "channel": 4,
      "note": 69,
      "start": 16.6599,
      "duration": 0.0797,
      "velocity": 102,
      "chip": "ym2612"
    },
    {
      "channel": 1,
      "note": 73,
      "start": 16.6629,
      "duration": 0.1098,
      "velocity": 102,
      "chip": "ym2612"
    },
    {
      "channel": 2,
      "note": 49,
      "start": 16.6673,
      "duration": 0.0723,
      "velocity": 95,
      "chip": "ym2612"
    },
    {
      "channel": 0,
      "note": 62,
      "start": 16.7761,
      "duration": 0.3802,
      "velocity": 102,
      "chip": "ym2612"
    },
    {
      "channel": 4,
      "note": 42,
      "start": 16.7799,
      "duration": 0.2097,
      "velocity": 125,
      "chip": "ym2612"
    },
    {
      "channel": 2,
      "note": 62,
      "start": 16.8769,
      "duration": 0.0795,
      "velocity": 102,
      "chip": "ym2612"
    },
    {
      "channel": 1,
      "note": 65,
      "start": 16.9936,
      "duration": 0.0625,
      "velocity": 102,
      "chip": "ym2612"
    },
    {
      "channel": 2,
      "note": 49,
      "start": 16.9975,
      "duration": 0.0256,
      "velocity": 106,
      "chip": "ym2612"
    },
    {
      "channel": 4,
      "note": 65,
      "start": 17.0937,
      "duration": 0.0627,
      "velocity": 102,
      "chip": "ym2612"
    },
    {
      "channel": 2,
      "note": 49,
      "start": 17.0973,
      "duration": 0.0593,
      "velocity": 106,
      "chip": "ym2612"
    },
    {
      "channel": 0,
      "note": 67,
      "start": 17.2106,
      "duration": 0.0623,
      "velocity": 102,
      "chip": "ym2612"
    },
    {
      "channel": 1,
      "note": 72,
      "start": 17.2133,
      "duration": 0.0597,
      "velocity": 102,
      "chip": "ym2612"
    },
    {
      "channel": 3,
      "note": 46,
      "start": 17.22,
      "duration": 3.353,
      "velocity": 95,
      "chip": "ym2612"
    },
    {
      "channel": 2,
      "note": 49,
      "start": 17.2259,
      "duration": 0.3639,
      "velocity": 106,
      "chip": "ym2612"
    },
    {
      "channel": 4,
      "note": 68,
      "start": 17.3098,
      "duration": 0.063,
      "velocity": 102,
      "chip": "ym2612"
    },
    {
      "channel": 0,
      "note": 72,
      "start": 17.3129,
      "duration": 0.0932,
      "velocity": 102,
      "chip": "ym2612"
    },
    {
      "channel": 1,
      "note": 68,
      "start": 17.4098,
      "duration": 0.0798,
      "velocity": 102,
      "chip": "ym2612"
    },
    {
      "channel": 4,
      "note": 72,
      "start": 17.4126,
      "duration": 0.1102,
      "velocity": 102,
      "chip": "ym2612"
    },
    {
      "channel": 0,
      "note": 49,
      "start": 17.4163,
      "duration": 0.0731,
      "velocity": 95,
      "chip": "ym2612"
    },
    {
      "channel": 0,
      "note": 68,
      "start": 17.5268,
      "duration": 0.0627,
      "velocity": 102,
      "chip": "ym2612"
    },
    {
      "channel": 1,
      "note": 72,
      "start": 17.5298,
      "duration": 0.0929,
      "velocity": 102,
      "chip": "ym2612"
    },
    {
      "channel": 4,
      "note": 49,
      "start": 17.5335,
      "duration": 0.0562,
      "velocity": 95,
      "chip": "ym2612"
    },
    {
      "channel": 5,
      "note": 62,
      "start": 17.626,
      "duration": 0.3968,
      "velocity": 102,
      "chip": "ym2612"
    },
    {
      "channel": 4,
      "note": 49,
      "start": 17.6303,
      "duration": 0.0759,
      "velocity": 95,
      "chip": "ym2612"
    },
    {
      "channel": 0,
      "note": 46,
      "start": 17.6338,
      "duration": 2.9723,
      "velocity": 95,
      "chip": "ym2612"
    },
    {
      "channel": 2,
      "note": 42,
      "start": 17.6371,
      "duration": 0.1693,
      "velocity": 125,
      "chip": "ym2612"
    },
    {
      "channel": 1,
      "note": 65,
      "start": 17.7429,
      "duration": 0.0632,
      "velocity": 102,
      "chip": "ym2612"
    },
    {
      "channel": 4,
      "note": 49,
      "start": 17.7467,
      "duration": 0.0595,
      "velocity": 95,
      "chip": "ym2612"
    },
    {
      "channel": 1,
      "note": 65,
      "start": 17.8427,
      "duration": 0.08,
      "velocity": 102,
      "chip": "ym2612"
    },
    {
      "channel": 4,
      "note": 49,
      "start": 17.8465,
      "duration": 0.0765,
      "velocity": 95,
      "chip": "ym2612"
    },
    {
      "channel": 2,
      "note": 65,
      "start": 17.9598,
      "duration": 0.0631,
      "velocity": 102,
      "chip": "ym2612"
    },
    {
      "channel": 4,
      "note": 49,
      "start": 17.9638,
      "duration": 0.0588,
      "velocity": 95,
      "chip": "ym2612"
    },
    {
      "channel": 5,
      "note": 68,
      "start": 18.0592,
      "duration": 0.1135,
      "velocity": 102,
      "chip": "ym2612"
    },
    {
      "channel": 1,
      "note": 73,
      "start": 18.062,
      "duration": 0.0772,
      "velocity": 102,
      "chip": "ym2612"
    },
    {
      "channel": 4,
      "note": 49,
      "start": 18.0659,
      "duration": 0.0735,
      "velocity": 95,
      "chip": "ym2612"
    },
    {
      "channel": 2,
      "note": 69,
      "start": 18.1762,
      "duration": 0.0633,
      "velocity": 102,
      "chip": "ym2612"
    },
    {
      "channel": 1,
      "note": 73,
      "start": 18.1792,
      "duration": 0.0933,
      "velocity": 102,
      "chip": "ym2612"
    },
    {
      "channel": 4,
      "note": 49,
      "start": 18.1834,
      "duration": 0.0559,
      "velocity": 95,
      "chip": "ym2612"
    },
    {
      "channel": 5,
      "note": 69,
      "start": 18.276,
      "duration": 0.0635,
      "velocity": 102,
      "chip": "ym2612"
    },
    {
      "channel": 4,
      "note": 73,
      "start": 18.2788,
      "duration": 0.1106,
      "velocity": 102,
      "chip": "ym2612"
    },
    {
      "channel": 2,
      "note": 49,
      "start": 18.2828,
      "duration": 0.0568,
      "velocity": 95,
      "chip": "ym2612"
    },
    {
      "channel": 1,
      "note": 42,
      "start": 18.2862,
      "duration": 0.2031,
      "velocity": 125,
      "chip": "ym2612"
    },
    {
      "channel": 5,
      "note": 69,
      "start": 18.3932,
      "duration": 0.0631,
      "velocity": 102,
      "chip": "ym2612"
    },
    {
      "channel": 2,
      "note": 73,
      "start": 18.3962,
      "duration": 0.0933,
      "velocity": 102,
      "chip": "ym2612"
    },
    {
      "channel": 4,
      "note": 49,
      "start": 18.4,
      "duration": 0.0561,
      "velocity": 95,
      "chip": "ym2612"
    },
    {
      "channel": 4,
      "note": 62,
      "start": 18.4927,
      "duration": 0.397,
      "velocity": 102,
      "chip": "ym2612"
    },
    {
      "channel": 5,
      "note": 49,
      "start": 18.4961,
      "duration": 0.0601,
      "velocity": 95,
      "chip": "ym2612"
    },
    {
      "channel": 1,
      "note": 33,
      "start": 18.5002,
      "duration": 0.0558,
      "velocity": 124,
      "chip": "ym2612"
    },
    {
      "channel": 2,
      "note": 62,
      "start": 18.5934,
      "duration": 0.0796,
      "velocity": 102,
      "chip": "ym2612"
    },
    {
      "channel": 1,
      "note": 34,
      "start": 18.5978,
      "duration": 0.0749,
      "velocity": 124,
      "chip": "ym2612"
    },
    {
      "channel": 5,
      "note": 65,
      "start": 18.7098,
      "duration": 0.063,
      "velocity": 102,
      "chip": "ym2612"
    },
    {
      "channel": 2,
      "note": 49,
      "start": 18.7138,
      "duration": 0.0258,
      "velocity": 106,
      "chip": "ym2612"
    },
    {
      "channel": 1,
      "note": 65,
      "start": 18.8103,
      "duration": 0.0791,
      "velocity": 102,
      "chip": "ym2612"
    },
    {
      "channel": 2,
      "note": 49,
      "start": 18.814,
      "duration": 0.0759,
      "velocity": 106,
      "chip": "ym2612"
    },
    {
      "channel": 4,
      "note": 67,
      "start": 18.9273,
      "duration": 0.0624,
      "velocity": 102,
      "chip": "ym2612"
    },
    {
      "channel": 5,
      "note": 72,
      "start": 18.9299,
      "duration": 0.0599,
      "velocity": 102,
      "chip": "ym2612"
    },
    {
      "channel": 2,
      "note": 49,
      "start": 18.938,
      "duration": 0.1683,
      "velocity": 106,
      "chip": "ym2612"
    },
    {
      "channel": 1,
      "note": 68,
      "start": 19.0264,
      "duration": 0.0796,
      "velocity": 102,
      "chip": "ym2612"
    },
    {
      "channel": 4,
      "note": 72,
      "start": 19.0294,
      "duration": 0.11,
      "velocity": 102,
      "chip": "ym2612"
    },
    {
      "channel": 5,
      "note": 68,
      "start": 19.143,
      "duration": 0.0633,
      "velocity": 102,
      "chip": "ym2612"
    },
    {
      "channel": 1,
      "note": 72,
      "start": 19.1458,
      "duration": 0.0934,
      "velocity": 102,
      "chip": "ym2612"
    },
    {
      "channel": 2,
      "note": 49,
      "start": 19.1496,
      "duration": 0.1733,
      "velocity": 106,
      "chip": "ym2612"
    },
    {
      "channel": 4,
      "note": 68,
      "start": 19.2432,
      "duration": 0.0795,
      "velocity": 102,
      "chip": "ym2612"
    },
    {
      "channel": 5,
      "note": 72,
      "start": 19.2463,
      "duration": 0.1098,
      "velocity": 102,
      "chip": "ym2612"
    },
    {
      "channel": 1,
      "note": 62,
      "start": 19.3592,
      "duration": 0.3801,
      "velocity": 102,
      "chip": "ym2612"
    },
    {
      "channel": 4,
      "note": 42,
      "start": 19.363,
      "duration": 0.2097,
      "velocity": 125,
      "chip": "ym2612"
    },
    {
      "channel": 2,
      "note": 65,
      "start": 19.4596,
      "duration": 0.0634,
      "velocity": 102,
      "chip": "ym2612"
    },
    {
      "channel": 5,
      "note": 65,
      "start": 19.5761,
      "duration": 0.0634,
      "velocity": 102,
      "chip": "ym2612"
    },
    {
      "channel": 2,
      "note": 65,
      "start": 19.6764,
      "duration": 0.0632,
      "velocity": 102,
      "chip": "ym2612"
    },
    {
      "channel": 1,
      "note": 68,
      "start": 19.7758,
      "duration": 0.1135,
      "velocity": 102,
      "chip": "ym2612"
    },
    {
      "channel": 4,
      "note": 73,
      "start": 19.7786,
      "duration": 0.0775,
      "velocity": 102,
      "chip": "ym2612"
    },
    {
      "channel": 5,
      "note": 69,
      "start": 19.8929,
      "duration": 0.0632,
      "velocity": 102,
      "chip": "ym2612"
    },
    {
      "channel": 2,
      "note": 73,
      "start": 19.896,
      "duration": 0.0935,
      "velocity": 102,
      "chip": "ym2612"
    },
    {
      "channel": 4,
      "note": 69,
      "start": 19.9928,
      "duration": 0.0801,
      "velocity": 102,
      "chip": "ym2612"
    },
    {
      "channel": 1,
      "note": 73,
      "start": 19.9956,
      "duration": 0.1105,
      "velocity": 102,
      "chip": "ym2612"
    },
    {
      "channel": 2,
      "note": 49,
      "start": 19.9998,
      "duration": 0.0734,
      "velocity": 95,
      "chip": "ym2612"
    },
    {
      "channel": 5,
      "note": 69,
      "start": 20.1099,
      "duration": 0.063,
      "velocity": 102,
      "chip": "ym2612"
    },
    {
      "channel": 4,
      "note": 73,
      "start": 20.1129,
      "duration": 0.0933,
      "velocity": 102,
      "chip": "ym2612"
    },
    {
      "channel": 2,
      "note": 49,
      "start": 20.1169,
      "duration": 0.0562,
      "velocity": 95,
      "chip": "ym2612"
    },
    {
      "channel": 1,
      "note": 62,
      "start": 20.2094,
      "duration": 0.3969,
      "velocity": 102,
      "chip": "ym2612"
    },
    {
      "channel": 5,
      "note": 42,
      "start": 20.2133,
      "duration": 0.2097,
      "velocity": 125,
      "chip": "ym2612"
    },
    {
      "channel": 2,
      "note": 62,
      "start": 20.3268,
      "duration": 0.0016,
      "velocity": 102,
      "chip": "ym2612"
    },
    {
      "channel": 2,
      "note": 49,
      "start": 20.3311,
      "duration": 0.0586,
      "velocity": 95,
      "chip": "ym2612"
    },
    {
      "channel": 4,
      "note": 65,
      "start": 20.4268,
      "duration": 0.063,
      "velocity": 102,
      "chip": "ym2612"
    },
    {
      "channel": 2,
      "note": 49,
      "start": 20.431,
      "duration": 0.0255,
      "velocity": 106,
      "chip": "ym2612"
    },
    {
      "channel": 5,
      "note": 65,
      "start": 20.5437,
      "duration": 0.0628,
      "velocity": 102,
      "chip": "ym2612"
    },
    {
      "channel": 2,
      "note": 49,
      "start": 20.5473,
      "duration": 0.0593,
      "velocity": 106,
      "chip": "ym2612"
    },
    {
      "channel": 1,
      "note": 67,
      "start": 20.644,
      "duration": 0.0623,
      "velocity": 102,
      "chip": "ym2612"
    },
    {
      "channel": 4,
      "note": 72,
      "start": 20.6467,
      "duration": 0.0597,
      "velocity": 102,
      "chip": "ym2612"
    },
    {
      "channel": 3,
      "note": 46,
      "start": 20.6559,
      "duration": 3.3504,
      "velocity": 95,
      "chip": "ym2612"
    },
    {
      "channel": 2,
      "note": 49,
      "start": 20.6633,
      "duration": 0.3766,
      "velocity": 106,
      "chip": "ym2612"
    },
    {
      "channel": 0,
      "note": 68,
      "start": 20.7598,
      "duration": 0.0631,
      "velocity": 102,
      "chip": "ym2612"
    },
    {
      "channel": 5,
      "note": 72,
      "start": 20.7628,
      "duration": 0.0936,
      "velocity": 102,
      "chip": "ym2612"
    },
    {
      "channel": 1,
      "note": 68,
      "start": 20.8599,
      "duration": 0.063,
      "velocity": 102,
      "chip": "ym2612"
    },
    {
      "channel": 4,
      "note": 72,
      "start": 20.8628,
      "duration": 0.0935,
      "velocity": 102,
      "chip": "ym2612"
    },
    {
      "channel": 0,
      "note": 49,
      "start": 20.8668,
      "duration": 0.056,
      "velocity": 95,
      "chip": "ym2612"
    },
    {
      "channel": 5,
      "note": 68,
      "start": 20.9602,
      "duration": 0.0796,
      "velocity": 102,
      "chip": "ym2612"
    },
    {
      "channel": 0,
      "note": 72,
      "start": 20.9632,
      "duration": 0.1095,
      "velocity": 102,
      "chip": "ym2612"
    },
    {
      "channel": 1,
      "note": 47,
      "start": 20.9661,
      "duration": 0.0734,
      "velocity": 95,
      "chip": "ym2612"
    },
    {
      "channel": 4,
      "note": 62,
      "start": 21.0761,
      "duration": 0.3968,
      "velocity": 102,
      "chip": "ym2612"
    },
    {
      "channel": 1,
      "note": 49,
      "start": 21.0799,
      "duration": 0.0596,
      "velocity": 95,
      "chip": "ym2612"
    },
    {
      "channel": 5,
      "note": 46,
      "start": 21.0837,
      "duration": 3.3558,
      "velocity": 95,
      "chip": "ym2612"
    },
    {
      "channel": 2,
      "note": 42,
      "start": 21.087,
      "duration": 0.1696,
      "velocity": 125,
      "chip": "ym2612"
    },
    {
      "channel": 0,
      "note": 65,
      "start": 21.1762,
      "duration": 0.08,
      "velocity": 102,
      "chip": "ym2612"
    },
    {
      "channel": 1,
      "note": 49,
      "start": 21.1799,
      "duration": 0.0763,
      "velocity": 95,
      "chip": "ym2612"
    },
    {
      "channel": 0,
      "note": 65,
      "start": 21.2929,
      "duration": 0.0631,
      "velocity": 102,
      "chip": "ym2612"
    },
    {
      "channel": 1,
      "note": 49,
      "start": 21.2969,
      "duration": 0.0592,
      "velocity": 95,
      "chip": "ym2612"
    },
    {
      "channel": 2,
      "note": 65,
      "start": 21.3932,
      "duration": 0.0798,
      "velocity": 102,
      "chip": "ym2612"
    },
    {
      "channel": 1,
      "note": 49,
      "start": 21.3968,
      "duration": 0.0758,
      "velocity": 95,
      "chip": "ym2612"
    },
    {
      "channel": 4,
      "note": 68,
      "start": 21.5092,
      "duration": 0.0968,
      "velocity": 102,
      "chip": "ym2612"
    },
    {
      "channel": 0,
      "note": 73,
      "start": 21.5121,
      "duration": 0.0605,
      "velocity": 102,
      "chip": "ym2612"
    },
    {
      "channel": 1,
      "note": 49,
      "start": 21.5159,
      "duration": 0.0569,
      "velocity": 95,
      "chip": "ym2612"
    },
    {
      "channel": 2,
      "note": 69,
      "start": 21.6096,
      "duration": 0.0633,
      "velocity": 102,
      "chip": "ym2612"
    },
    {
      "channel": 0,
      "note": 73,
      "start": 21.6126,
      "duration": 0.1099,
      "velocity": 102,
      "chip": "ym2612"
    },
    {
      "channel": 1,
      "note": 49,
      "start": 21.6168,
      "duration": 0.0559,
      "velocity": 95,
      "chip": "ym2612"
    },
    {
      "channel": 4,
      "note": 69,
      "start": 21.7261,
      "duration": 0.0634,
      "velocity": 102,
      "chip": "ym2612"
    },
    {
      "channel": 1,
      "note": 73,
      "start": 21.7289,
      "duration": 0.0937,
      "velocity": 102,
      "chip": "ym2612"
    },
    {
      "channel": 2,
      "note": 42,
      "start": 21.7328,
      "duration": 0.2068,
      "velocity": 125,
      "chip": "ym2612"
    },
    {
      "channel": 0,
      "note": 69,
      "start": 21.8264,
      "duration": 0.0628,
      "velocity": 102,
      "chip": "ym2612"
    },
    {
      "channel": 4,
      "note": 73,
      "start": 21.8295,
      "duration": 0.1099,
      "velocity": 102,
      "chip": "ym2612"
    },
    {
      "channel": 1,
      "note": 62,
      "start": 21.9428,
      "duration": 0.3801,
      "velocity": 102,
      "chip": "ym2612"
    },
    {
      "channel": 0,
      "note": 33,
      "start": 21.9477,
      "duration": 0.0583,
      "velocity": 124,
      "chip": "ym2612"
    },
    {
      "channel": 4,
      "note": 62,
      "start": 22.0434,
      "duration": 0.0629,
      "velocity": 102,
      "chip": "ym2612"
    },
    {
      "channel": 0,
      "note": 34,
      "start": 22.0477,
      "duration": 0.0583,
      "velocity": 124,
      "chip": "ym2612"
    },
    {
      "channel": 2,
      "note": 65,
      "start": 22.1432,
      "duration": 0.0013,
      "velocity": 102,
      "chip": "ym2612"
    },
    {
      "channel": 2,
      "note": 49,
      "start": 22.1473,
      "duration": 0.0424,
      "velocity": 106,
      "chip": "ym2612"
    },
    {
      "channel": 0,
      "note": 65,
      "start": 22.2603,
      "duration": 0.0625,
      "velocity": 102,
      "chip": "ym2612"
    },
    {
      "channel": 2,
      "note": 49,
      "start": 22.2639,
      "duration": 0.0592,
      "velocity": 106,
      "chip": "ym2612"
    },
    {
      "channel": 1,
      "note": 67,
      "start": 22.3606,
      "duration": 0.0789,
      "velocity": 102,
      "chip": "ym2612"
    },
    {
      "channel": 4,
      "note": 72,
      "start": 22.3633,
      "duration": 0.0764,
      "velocity": 102,
      "chip": "ym2612"
    },
    {
      "channel": 2,
      "note": 49,
      "start": 22.3713,
      "duration": 0.1683,
      "velocity": 106,
      "chip": "ym2612"
    },
    {
      "channel": 0,
      "note": 68,
      "start": 22.4764,
      "duration": 0.0629,
      "velocity": 102,
      "chip": "ym2612"
    },
    {
      "channel": 1,
      "note": 72,
      "start": 22.4794,
      "duration": 0.0932,
      "velocity": 102,
      "chip": "ym2612"
    },
    {
      "channel": 4,
      "note": 68,
      "start": 22.5763,
      "duration": 0.0798,
      "velocity": 102,
      "chip": "ym2612"
    },
    {
      "channel": 0,
      "note": 72,
      "start": 22.5792,
      "duration": 0.1101,
      "velocity": 102,
      "chip": "ym2612"
    },
    {
      "channel": 2,
      "note": 49,
      "start": 22.5829,
      "duration": 0.1733,
      "velocity": 106,
      "chip": "ym2612"
    },
    {
      "channel": 1,
      "note": 68,
      "start": 22.6934,
      "duration": 0.0626,
      "velocity": 102,
      "chip": "ym2612"
    },
    {
      "channel": 4,
      "note": 72,
      "start": 22.6964,
      "duration": 0.093,
      "velocity": 102,
      "chip": "ym2612"
    },
    {
      "channel": 0,
      "note": 62,
      "start": 22.7926,
      "duration": 0.3967,
      "velocity": 102,
      "chip": "ym2612"
    },
    {
      "channel": 1,
      "note": 42,
      "start": 22.7964,
      "duration": 0.2095,
      "velocity": 125,
      "chip": "ym2612"
    },
    {
      "channel": 2,
      "note": 65,
      "start": 22.9095,
      "duration": 0.0633,
      "velocity": 102,
      "chip": "ym2612"
    },
    {
      "channel": 4,
      "note": 65,
      "start": 23.0095,
      "duration": 0.0634,
      "velocity": 102,
      "chip": "ym2612"
    },
    {
      "channel": 2,
      "note": 65,
      "start": 23.1265,
      "duration": 0.0631,
      "velocity": 102,
      "chip": "ym2612"
    },
    {
      "channel": 0,
      "note": 68,
      "start": 23.2257,
      "duration": 0.0969,
      "velocity": 102,
      "chip": "ym2612"
    },
    {
      "channel": 1,
      "note": 73,
      "start": 23.2286,
      "duration": 0.0607,
      "velocity": 102,
      "chip": "ym2612"
    },
    {
      "channel": 4,
      "note": 69,
      "start": 23.3263,
      "duration": 0.0797,
      "velocity": 102,
      "chip": "ym2612"
    },
    {
      "channel": 2,
      "note": 73,
      "start": 23.3294,
      "duration": 0.11,
      "velocity": 102,
      "chip": "ym2612"
    },
    {
      "channel": 1,
      "note": 69,
      "start": 23.4427,
      "duration": 0.0634,
      "velocity": 102,
      "chip": "ym2612"
    },
    {
      "channel": 0,
      "note": 73,
      "start": 23.4456,
      "duration": 0.0938,
      "velocity": 102,
      "chip": "ym2612"
    },
    {
      "channel": 2,
      "note": 49,
      "start": 23.4498,
      "duration": 0.0566,
      "velocity": 95,
      "chip": "ym2612"
    },
    {
      "channel": 4,
      "note": 69,
      "start": 23.5433,
      "duration": 0.0795,
      "velocity": 102,
      "chip": "ym2612"
    },
    {
      "channel": 1,
      "note": 73,
      "start": 23.5463,
      "duration": 0.1098,
      "velocity": 102,
      "chip": "ym2612"
    },
    {
      "channel": 2,
      "note": 49,
      "start": 23.5503,
      "duration": 0.0727,
      "velocity": 95,
      "chip": "ym2612"
    },
    {
      "channel": 0,
      "note": 62,
      "start": 23.6595,
      "duration": 0.3801,
      "velocity": 102,
      "chip": "ym2612"
    },
    {
      "channel": 4,
      "note": 42,
      "start": 23.6633,
      "duration": 0.2095,
      "velocity": 125,
      "chip": "ym2612"
    },
    {
      "channel": 2,
      "note": 62,
      "start": 23.7603,
      "duration": 0.0794,
      "velocity": 102,
      "chip": "ym2612"
    },
    {
      "channel": 1,
      "note": 65,
      "start": 23.8768,
      "duration": 0.0627,
      "velocity": 102,
      "chip": "ym2612"
    },
    {
      "channel": 2,
      "note": 49,
      "start": 23.8811,
      "duration": 0.0253,
      "velocity": 106,
      "chip": "ym2612"
    },
    {
      "channel": 4,
      "note": 65,
      "start": 23.9771,
      "duration": 0.0627,
      "velocity": 102,
      "chip": "ym2612"
    },
    {
      "channel": 2,
      "note": 49,
      "start": 23.9807,
      "duration": 0.0593,
      "velocity": 106,
      "chip": "ym2612"
    },
    {
      "channel": 0,
      "note": 67,
      "start": 24.0939,
      "duration": 0.0623,
      "velocity": 102,
      "chip": "ym2612"
    },
    {
      "channel": 1,
      "note": 72,
      "start": 24.0966,
      "duration": 0.0598,
      "velocity": 102,
      "chip": "ym2612"
    },
    {
      "channel": 3,
      "note": 46,
      "start": 24.1033,
      "duration": 3.3529,
      "velocity": 95,
      "chip": "ym2612"
    },
    {
      "channel": 2,
      "note": 49,
      "start": 24.1088,
      "duration": 0.3642,
      "velocity": 106,
      "chip": "ym2612"
    },
    {
      "channel": 4,
      "note": 68,
      "start": 24.1933,
      "duration": 0.063,
      "velocity": 102,
      "chip": "ym2612"
    },
    {
      "channel": 0,
      "note": 72,
      "start": 24.1963,
      "duration": 0.1097,
      "velocity": 102,
      "chip": "ym2612"
    },
    {
      "channel": 1,
      "note": 68,
      "start": 24.3098,
      "duration": 0.063,
      "velocity": 102,
      "chip": "ym2612"
    },
    {
      "channel": 4,
      "note": 72,
      "start": 24.3126,
      "duration": 0.0936,
      "velocity": 102,
      "chip": "ym2612"
    },
    {
      "channel": 0,
      "note": 49,
      "start": 24.3163,
      "duration": 0.0563,
      "velocity": 95,
      "chip": "ym2612"
    },
    {
      "channel": 0,
      "note": 68,
      "start": 24.4101,
      "duration": 0.0625,
      "velocity": 102,
      "chip": "ym2612"
    },
    {
      "channel": 1,
      "note": 72,
      "start": 24.4131,
      "duration": 0.0929,
      "velocity": 102,
      "chip": "ym2612"
    },
    {
      "channel": 4,
      "note": 49,
      "start": 24.4168,
      "duration": 0.0561,
      "velocity": 95,
      "chip": "ym2612"
    },
    {
      "channel": 5,
      "note": 62,
      "start": 24.5094,
      "duration": 0.3967,
      "velocity": 102,
      "chip": "ym2612"
    },
    {
      "channel": 4,
      "note": 49,
      "start": 24.5137,
      "duration": 0.0759,
      "velocity": 95,
      "chip": "ym2612"
    },
    {
      "channel": 0,
      "note": 46,
      "start": 24.5168,
      "duration": 2.9727,
      "velocity": 95,
      "chip": "ym2612"
    },
    {
      "channel": 2,
      "note": 42,
      "start": 24.5201,
      "duration": 0.1697,
      "velocity": 125,
      "chip": "ym2612"
    },
    {
      "channel": 1,
      "note": 65,
      "start": 24.6262,
      "duration": 0.0632,
      "velocity": 102,
      "chip": "ym2612"
    },
    {
      "channel": 4,
      "note": 49,
      "start": 24.63,
      "duration": 0.0596,
      "velocity": 95,
      "chip": "ym2612"
    },
    {
      "channel": 1,
      "note": 65,
      "start": 24.7262,
      "duration": 0.0797,
      "velocity": 102,
      "chip": "ym2612"
    },
    {
      "channel": 4,
      "note": 49,
      "start": 24.73,
      "duration": 0.0761,
      "velocity": 95,
      "chip": "ym2612"
    },
    {
      "channel": 2,
      "note": 65,
      "start": 24.8431,
      "duration": 0.0631,
      "velocity": 102,
      "chip": "ym2612"
    },
    {
      "channel": 4,
      "note": 49,
      "start": 24.8471,
      "duration": 0.0588,
      "velocity": 95,
      "chip": "ym2612"
    },
    {
      "channel": 5,
      "note": 68,
      "start": 24.9425,
      "duration": 0.1135,
      "velocity": 102,
      "chip": "ym2612"
    },
    {
      "channel": 1,
      "note": 73,
      "start": 24.9453,
      "duration": 0.0772,
      "velocity": 102,
      "chip": "ym2612"
    },
    {
      "channel": 4,
      "note": 49,
      "start": 24.9493,
      "duration": 0.0734,
      "velocity": 95,
      "chip": "ym2612"
    },
    {
      "channel": 2,
      "note": 69,
      "start": 25.0595,
      "duration": 0.0634,
      "velocity": 102,
      "chip": "ym2612"
    },
    {
      "channel": 1,
      "note": 73,
      "start": 25.0626,
      "duration": 0.0933,
      "velocity": 102,
      "chip": "ym2612"
    },
    {
      "channel": 4,
      "note": 49,
      "start": 25.0664,
      "duration": 0.0563,
      "velocity": 95,
      "chip": "ym2612"
    },
    {
      "channel": 5,
      "note": 69,
      "start": 25.1594,
      "duration": 0.0634,
      "velocity": 102,
      "chip": "ym2612"
    },
    {
      "channel": 4,
      "note": 73,
      "start": 25.1622,
      "duration": 0.1105,
      "velocity": 102,
      "chip": "ym2612"
    },
    {
      "channel": 2,
      "note": 49,
      "start": 25.1665,
      "duration": 0.0564,
      "velocity": 95,
      "chip": "ym2612"
    },
    {
      "channel": 1,
      "note": 42,
      "start": 25.1699,
      "duration": 0.2028,
      "velocity": 125,
      "chip": "ym2612"
    },
    {
      "channel": 5,
      "note": 69,
      "start": 25.2764,
      "duration": 0.0631,
      "velocity": 102,
      "chip": "ym2612"
    },
    {
      "channel": 2,
      "note": 73,
      "start": 25.2795,
      "duration": 0.0934,
      "velocity": 102,
      "chip": "ym2612"
    },
    {
      "channel": 4,
      "note": 49,
      "start": 25.2833,
      "duration": 0.0561,
      "velocity": 95,
      "chip": "ym2612"
    },
    {
      "channel": 4,
      "note": 62,
      "start": 25.3761,
      "duration": 0.3969,
      "velocity": 102,
      "chip": "ym2612"
    },
    {
      "channel": 5,
      "note": 49,
      "start": 25.38,
      "duration": 0.0595,
      "velocity": 95,
      "chip": "ym2612"
    },
    {
      "channel": 1,
      "note": 33,
      "start": 25.3841,
      "duration": 0.0552,
      "velocity": 124,
      "chip": "ym2612"
    },
    {
      "channel": 2,
      "note": 62,
      "start": 25.4933,
      "duration": 0.063,
      "velocity": 102,
      "chip": "ym2612"
    },
    {
      "channel": 1,
      "note": 34,
      "start": 25.4976,
      "duration": 0.0583,
      "velocity": 124,
      "chip": "ym2612"
    },
    {
      "channel": 5,
      "note": 65,
      "start": 25.5932,
      "duration": 0.063,
      "velocity": 102,
      "chip": "ym2612"
    },
    {
      "channel": 2,
      "note": 49,
      "start": 25.5972,
      "duration": 0.0257,
      "velocity": 106,
      "chip": "ym2612"
    },
    {
      "channel": 1,
      "note": 65,
      "start": 25.6935,
      "duration": 0.0793,
      "velocity": 102,
      "chip": "ym2612"
    },
    {
      "channel": 2,
      "note": 49,
      "start": 25.6972,
      "duration": 0.076,
      "velocity": 106,
      "chip": "ym2612"
    },
    {
      "channel": 4,
      "note": 67,
      "start": 25.8106,
      "duration": 0.0622,
      "velocity": 102,
      "chip": "ym2612"
    },
    {
      "channel": 5,
      "note": 72,
      "start": 25.8133,
      "duration": 0.0596,
      "velocity": 102,
      "chip": "ym2612"
    },
    {
      "channel": 2,
      "note": 49,
      "start": 25.8213,
      "duration": 0.1684,
      "velocity": 106,
      "chip": "ym2612"
    },
    {
      "channel": 1,
      "note": 68,
      "start": 25.9096,
      "duration": 0.0798,
      "velocity": 102,
      "chip": "ym2612"
    },
    {
      "channel": 4,
      "note": 72,
      "start": 25.9127,
      "duration": 0.11,
      "velocity": 102,
      "chip": "ym2612"
    },
    {
      "channel": 5,
      "note": 68,
      "start": 26.0263,
      "duration": 0.0633,
      "velocity": 102,
      "chip": "ym2612"
    },
    {
      "channel": 1,
      "note": 72,
      "start": 26.0291,
      "duration": 0.0934,
      "velocity": 102,
      "chip": "ym2612"
    },
    {
      "channel": 2,
      "note": 49,
      "start": 26.0329,
      "duration": 0.1734,
      "velocity": 106,
      "chip": "ym2612"
    },
    {
      "channel": 4,
      "note": 68,
      "start": 26.1266,
      "duration": 0.0795,
      "velocity": 102,
      "chip": "ym2612"
    },
    {
      "channel": 5,
      "note": 72,
      "start": 26.1296,
      "duration": 0.1098,
      "velocity": 102,
      "chip": "ym2612"
    },
    {
      "channel": 1,
      "note": 62,
      "start": 26.2425,
      "duration": 0.3801,
      "velocity": 102,
      "chip": "ym2612"
    },
    {
      "channel": 4,
      "note": 42,
      "start": 26.2463,
      "duration": 0.2098,
      "velocity": 125,
      "chip": "ym2612"
    },
    {
      "channel": 2,
      "note": 65,
      "start": 26.3428,
      "duration": 0.0634,
      "velocity": 102,
      "chip": "ym2612"
    },
    {
      "channel": 5,
      "note": 65,
      "start": 26.4595,
      "duration": 0.0634,
      "velocity": 102,
      "chip": "ym2612"
    },
    {
      "channel": 2,
      "note": 65,
      "start": 26.5598,
      "duration": 0.0632,
      "velocity": 102,
      "chip": "ym2612"
    },
    {
      "channel": 1,
      "note": 68,
      "start": 26.6758,
      "duration": 0.0969,
      "velocity": 102,
      "chip": "ym2612"
    },
    {
      "channel": 4,
      "note": 73,
      "start": 26.6786,
      "duration": 0.0607,
      "velocity": 102,
      "chip": "ym2612"
    },
    {
      "channel": 5,
      "note": 69,
      "start": 26.7762,
      "duration": 0.0632,
      "velocity": 102,
      "chip": "ym2612"
    },
    {
      "channel": 2,
      "note": 73,
      "start": 26.7794,
      "duration": 0.0935,
      "velocity": 102,
      "chip": "ym2612"
    },
    {
      "channel": 4,
      "note": 69,
      "start": 26.8762,
      "duration": 0.08,
      "velocity": 102,
      "chip": "ym2612"
    },
    {
      "channel": 1,
      "note": 73,
      "start": 26.879,
      "duration": 0.1104,
      "velocity": 102,
      "chip": "ym2612"
    },
    {
      "channel": 2,
      "note": 49,
      "start": 26.8832,
      "duration": 0.0732,
      "velocity": 95,
      "chip": "ym2612"
    },
    {
      "channel": 5,
      "note": 69,
      "start": 26.9932,
      "duration": 0.063,
      "velocity": 102,
      "chip": "ym2612"
    },
    {
      "channel": 4,
      "note": 73,
      "start": 26.9963,
      "duration": 0.0933,
      "velocity": 102,
      "chip": "ym2612"
    },
    {
      "channel": 2,
      "note": 49,
      "start": 27.0002,
      "duration": 0.0562,
      "velocity": 95,
      "chip": "ym2612"
    },
    {
      "channel": 1,
      "note": 62,
      "start": 27.0927,
      "duration": 0.3969,
      "velocity": 102,
      "chip": "ym2612"
    },
    {
      "channel": 5,
      "note": 42,
      "start": 27.0966,
      "duration": 0.2097,
      "velocity": 125,
      "chip": "ym2612"
    },
    {
      "channel": 2,
      "note": 62,
      "start": 27.2102,
      "duration": 0.0017,
      "velocity": 102,
      "chip": "ym2612"
    },
    {
      "channel": 2,
      "note": 49,
      "start": 27.2144,
      "duration": 0.0587,
      "velocity": 95,
      "chip": "ym2612"
    },
    {
      "channel": 4,
      "note": 65,
      "start": 27.3102,
      "duration": 0.0796,
      "velocity": 102,
      "chip": "ym2612"
    },
    {
      "channel": 2,
      "note": 49,
      "start": 27.3144,
      "duration": 0.0254,
      "velocity": 106,
      "chip": "ym2612"
    },
    {
      "channel": 5,
      "note": 65,
      "start": 27.4271,
      "duration": 0.0628,
      "velocity": 102,
      "chip": "ym2612"
    },
    {
      "channel": 2,
      "note": 49,
      "start": 27.4307,
      "duration": 0.0593,
      "velocity": 106,
      "chip": "ym2612"
    },
    {
      "channel": 1,
      "note": 68,
      "start": 27.5268,
      "duration": 0.0627,
      "velocity": 102,
      "chip": "ym2612"
    },
    {
      "channel": 4,
      "note": 74,
      "start": 27.5295,
      "duration": 0.0602,
      "velocity": 102,
      "chip": "ym2612"
    },
    {
      "channel": 3,
      "note": 53,
      "start": 27.5404,
      "duration": 1.6659,
      "velocity": 116,
      "chip": "ym2612"
    },
    {
      "channel": 2,
      "note": 49,
      "start": 27.5494,
      "duration": 0.3736,
      "velocity": 106,
      "chip": "ym2612"
    },
    {
      "channel": 0,
      "note": 71,
      "start": 27.6434,
      "duration": 0.0626,
      "velocity": 102,
      "chip": "ym2612"
    },
    {
      "channel": 5,
      "note": 74,
      "start": 27.6465,
      "duration": 0.093,
      "velocity": 102,
      "chip": "ym2612"
    },
    {
      "channel": 1,
      "note": 71,
      "start": 27.7432,
      "duration": 0.0629,
      "velocity": 102,
      "chip": "ym2612"
    },
    {
      "channel": 4,
      "note": 74,
      "start": 27.746,
      "duration": 0.1102,
      "velocity": 102,
      "chip": "ym2612"
    },
    {
      "channel": 0,
      "note": 71,
      "start": 27.8603,
      "duration": 0.0623,
      "velocity": 102,
      "chip": "ym2612"
    },
    {
      "channel": 5,
      "note": 74,
      "start": 27.8634,
      "duration": 0.0927,
      "velocity": 102,
      "chip": "ym2612"
    },
    {
      "channel": 1,
      "note": 65,
      "start": 27.9593,
      "duration": 0.3968,
      "velocity": 102,
      "chip": "ym2612"
    },
    {
      "channel": 4,
      "note": 42,
      "start": 27.9633,
      "duration": 0.1763,
      "velocity": 125,
      "chip": "ym2612"
    },
    {
      "channel": 0,
      "note": 68,
      "start": 28.06,
      "duration": 0.0794,
      "velocity": 102,
      "chip": "ym2612"
    },
    {
      "channel": 2,
      "note": 68,
      "start": 28.1764,
      "duration": 0.063,
      "velocity": 102,
      "chip": "ym2612"
    },
    {
      "channel": 5,
      "note": 68,
      "start": 28.2766,
      "duration": 0.0796,
      "velocity": 102,
      "chip": "ym2612"
    },
    {
      "channel": 1,
      "note": 70,
      "start": 28.3924,
      "duration": 0.097,
      "velocity": 102,
      "chip": "ym2612"
    },
    {
      "channel": 0,
      "note": 75,
      "start": 28.3953,
      "duration": 0.0609,
      "velocity": 102,
      "chip": "ym2612"
    },
    {
      "channel": 4,
      "note": 72,
      "start": 28.4002,
      "duration": 0.8061,
      "velocity": 98,
      "chip": "ym2612"
    },
    {
      "channel": 2,
      "note": 77,
      "start": 28.4032,
      "duration": 0.6241,
      "velocity": 98,
      "chip": "ym2612"
    },
    {
      "channel": 5,
      "note": 72,
      "start": 28.493,
      "duration": 0.0798,
      "velocity": 102,
      "chip": "ym2612"
    },
    {
      "channel": 0,
      "note": 75,
      "start": 28.496,
      "duration": 0.1099,
      "velocity": 102,
      "chip": "ym2612"
    },
    {
      "channel": 1,
      "note": 72,
      "start": 28.6095,
      "duration": 0.0633,
      "velocity": 102,
      "chip": "ym2612"
    },
    {
      "channel": 5,
      "note": 75,
      "start": 28.6123,
      "duration": 0.0939,
      "velocity": 102,
      "chip": "ym2612"
    },
    {
      "channel": 0,
      "note": 42,
      "start": 28.6161,
      "duration": 0.2066,
      "velocity": 125,
      "chip": "ym2612"
    },
    {
      "channel": 1,
      "note": 72,
      "start": 28.7099,
      "duration": 0.0628,
      "velocity": 102,
      "chip": "ym2612"
    },
    {
      "channel": 5,
      "note": 75,
      "start": 28.7129,
      "duration": 0.11,
      "velocity": 102,
      "chip": "ym2612"
    },
    {
      "channel": 1,
      "note": 65,
      "start": 28.8265,
      "duration": 0.3796,
      "velocity": 102,
      "chip": "ym2612"
    },
    {
      "channel": 0,
      "note": 33,
      "start": 28.8314,
      "duration": 0.0579,
      "velocity": 124,
      "chip": "ym2612"
    },
    {
      "channel": 5,
      "note": 65,
      "start": 28.9261,
      "duration": 0.0635,
      "velocity": 102,
      "chip": "ym2612"
    },
    {
      "channel": 0,
      "note": 34,
      "start": 28.9304,
      "duration": 0.059,
      "velocity": 124,
      "chip": "ym2612"
    },
    {
      "channel": 0,
      "note": 68,
      "start": 29.026,
      "duration": 0.08,
      "velocity": 102,
      "chip": "ym2612"
    },
    {
      "channel": 2,
      "note": 49,
      "start": 29.03,
      "duration": 0.043,
      "velocity": 106,
      "chip": "ym2612"
    },
    {
      "channel": 5,
      "note": 68,
      "start": 29.1431,
      "duration": 0.0634,
      "velocity": 102,
      "chip": "ym2612"
    },
    {
      "channel": 2,
      "note": 49,
      "start": 29.1467,
      "duration": 0.0599,
      "velocity": 106,
      "chip": "ym2612"
    },
    {
      "channel": 1,
      "note": 70,
      "start": 29.2425,
      "duration": 0.0804,
      "velocity": 102,
      "chip": "ym2612"
    },
    {
      "channel": 0,
      "note": 76,
      "start": 29.2452,
      "duration": 0.0776,
      "velocity": 102,
      "chip": "ym2612"
    },
    {
      "channel": 3,
      "note": 55,
      "start": 29.2485,
      "duration": 0.8243,
      "velocity": 116,
      "chip": "ym2612"
    },
    {
      "channel": 4,
      "note": 71,
      "start": 29.2531,
      "duration": 0.8198,
      "velocity": 98,
      "chip": "ym2612"
    },
    {
      "channel": 5,
      "note": 76,
      "start": 29.2566,
      "duration": 0.8164,
      "velocity": 98,
      "chip": "ym2612"
    },
    {
      "channel": 2,
      "note": 49,
      "start": 29.2601,
      "duration": 0.1629,
      "velocity": 106,
      "chip": "ym2612"
    },
    {
      "channel": 0,
      "note": 72,
      "start": 29.3595,
      "duration": 0.0631,
      "velocity": 102,
      "chip": "ym2612"
    },
    {
      "channel": 1,
      "note": 76,
      "start": 29.3625,
      "duration": 0.0936,
      "velocity": 102,
      "chip": "ym2612"
    },
    {
      "channel": 0,
      "note": 71,
      "start": 29.4596,
      "duration": 0.0798,
      "velocity": 102,
      "chip": "ym2612"
    },
    {
      "channel": 2,
      "note": 76,
      "start": 29.4625,
      "duration": 0.0012,
      "velocity": 102,
      "chip": "ym2612"
    },
    {
      "channel": 2,
      "note": 49,
      "start": 29.4663,
      "duration": 0.1733,
      "velocity": 106,
      "chip": "ym2612"
    },
    {
      "channel": 1,
      "note": 72,
      "start": 29.5764,
      "duration": 0.0629,
      "velocity": 102,
      "chip": "ym2612"
    },
    {
      "channel": 0,
      "note": 76,
      "start": 29.5795,
      "duration": 0.0931,
      "velocity": 102,
      "chip": "ym2612"
    },
    {
      "channel": 1,
      "note": 65,
      "start": 29.6759,
      "duration": 0.3968,
      "velocity": 102,
      "chip": "ym2612"
    },
    {
      "channel": 2,
      "note": 42,
      "start": 29.6798,
      "duration": 0.2097,
      "velocity": 125,
      "chip": "ym2612"
    },
    {
      "channel": 0,
      "note": 67,
      "start": 29.7929,
      "duration": 0.063,
      "velocity": 102,
      "chip": "ym2612"
    },
    {
      "channel": 0,
      "note": 67,
      "start": 29.8928,
      "duration": 0.0632,
      "velocity": 102,
      "chip": "ym2612"
    },
    {
      "channel": 2,
      "note": 67,
      "start": 30.0097,
      "duration": 0.0635,
      "velocity": 102,
      "chip": "ym2612"
    },
    {
      "channel": 1,
      "note": 68,
      "start": 30.1091,
      "duration": 0.097,
      "velocity": 102,
      "chip": "ym2612"
    },
    {
      "channel": 0,
      "note": 77,
      "start": 30.1119,
      "duration": 0.0607,
      "velocity": 102,
      "chip": "ym2612"
    },
    {
      "channel": 3,
      "note": 56,
      "start": 30.1149,
      "duration": 0.8246,
      "velocity": 116,
      "chip": "ym2612"
    },
    {
      "channel": 4,
      "note": 68,
      "start": 30.1444,
      "duration": 0.8283,
      "velocity": 98,
      "chip": "ym2612"
    },
    {
      "channel": 5,
      "note": 71,
      "start": 30.1472,
      "duration": 0.8256,
      "velocity": 98,
      "chip": "ym2612"
    },
    {
      "channel": 2,
      "note": 72,
      "start": 30.2101,
      "duration": 0.0794,
      "velocity": 102,
      "chip": "ym2612"
    },
    {
      "channel": 0,
      "note": 77,
      "start": 30.2132,
      "duration": 0.1095,
      "velocity": 102,
      "chip": "ym2612"
    },
    {
      "channel": 1,
      "note": 72,
      "start": 30.3266,
      "duration": 0.0629,
      "velocity": 102,
      "chip": "ym2612"
    },
    {
      "channel": 2,
      "note": 77,
      "start": 30.3294,
      "duration": 0.0015,
      "velocity": 102,
      "chip": "ym2612"
    },
    {
      "channel": 2,
      "note": 49,
      "start": 30.3337,
      "duration": 0.056,
      "velocity": 95,
      "chip": "ym2612"
    },
    {
      "channel": 0,
      "note": 74,
      "start": 30.4268,
      "duration": 0.0791,
      "velocity": 102,
      "chip": "ym2612"
    },
    {
      "channel": 1,
      "note": 77,
      "start": 30.4298,
      "duration": 0.1095,
      "velocity": 102,
      "chip": "ym2612"
    },
    {
      "channel": 2,
      "note": 49,
      "start": 30.4337,
      "duration": 0.0725,
      "velocity": 95,
      "chip": "ym2612"
    },
    {
      "channel": 0,
      "note": 65,
      "start": 30.5429,
      "duration": 0.3964,
      "velocity": 102,
      "chip": "ym2612"
    },
    {
      "channel": 2,
      "note": 42,
      "start": 30.5468,
      "duration": 0.2094,
      "velocity": 125,
      "chip": "ym2612"
    },
    {
      "channel": 1,
      "note": 65,
      "start": 30.6429,
      "duration": 0.0798,
      "velocity": 102,
      "chip": "ym2612"
    },
    {
      "channel": 1,
      "note": 65,
      "start": 30.7596,
      "duration": 0.0631,
      "velocity": 102,
      "chip": "ym2612"
    },
    {
      "channel": 2,
      "note": 49,
      "start": 30.7639,
      "duration": 0.0257,
      "velocity": 106,
      "chip": "ym2612"
    },
    {
      "channel": 2,
      "note": 65,
      "start": 30.86,
      "duration": 0.0011,
      "velocity": 102,
      "chip": "ym2612"
    },
    {
      "channel": 2,
      "note": 49,
      "start": 30.8637,
      "duration": 0.076,
      "velocity": 106,
      "chip": "ym2612"
    },
    {
      "channel": 0,
      "note": 67,
      "start": 30.9763,
      "duration": 0.0632,
      "velocity": 102,
      "chip": "ym2612"
    },
    {
      "channel": 1,
      "note": 72,
      "start": 30.979,
      "duration": 0.0607,
      "velocity": 102,
      "chip": "ym2612"
    },
    {
      "channel": 3,
      "note": 50,
      "start": 30.9855,
      "duration": 3.3541,
      "velocity": 95,
      "chip": "ym2612"
    },
    {
      "channel": 2,
      "note": 49,
      "start": 30.992,
      "duration": 0.3644,
      "velocity": 106,
      "chip": "ym2612"
    },
    {
      "channel": 4,
      "note": 66,
      "start": 31.0133,
      "duration": 3.3597,
      "velocity": 98,
      "chip": "ym2612"
    },
    {
      "channel": 5,
      "note": 74,
      "start": 31.0163,
      "duration": 3.3569,
      "velocity": 98,
      "chip": "ym2612"
    },
    {
      "channel": 0,
      "note": 68,
      "start": 31.0765,
      "duration": 0.063,
      "velocity": 102,
      "chip": "ym2612"
    },
    {
      "channel": 1,
      "note": 72,
      "start": 31.0799,
      "duration": 0.1095,
      "velocity": 102,
      "chip": "ym2612"
    },
    {
      "channel": 0,
      "note": 68,
      "start": 31.193,
      "duration": 0.0058,
      "velocity": 102,
      "chip": "ym2612"
    },
    {
      "channel": 1,
      "note": 72,
      "start": 31.1963,
      "duration": 0.0932,
      "velocity": 102,
      "chip": "ym2612"
    },
    {
      "channel": 0,
      "note": 49,
      "start": 31.2009,
      "duration": 0.0554,
      "velocity": 95,
      "chip": "ym2612"
    },
    {
      "channel": 0,
      "note": 68,
      "start": 31.2934,
      "duration": 0.0051,
      "velocity": 102,
      "chip": "ym2612"
    },
    {
      "channel": 1,
      "note": 72,
      "start": 31.2968,
      "duration": 0.0926,
      "velocity": 102,
      "chip": "ym2612"
    },
    {
      "channel": 0,
      "note": 47,
      "start": 31.3006,
      "duration": 0.0555,
      "velocity": 95,
      "chip": "ym2612"
    },
    {
      "channel": 0,
      "note": 62,
      "start": 31.3927,
      "duration": 0.1187,
      "velocity": 102,
      "chip": "ym2612"
    },
    {
      "channel": 2,
      "note": 49,
      "start": 31.3971,
      "duration": 0.0759,
      "velocity": 95,
      "chip": "ym2612"
    },
    {
      "channel": 1,
      "note": 42,
      "start": 31.4005,
      "duration": 0.1722,
      "velocity": 125,
      "chip": "ym2612"
    },
    {
      "channel": 2,
      "note": 65,
      "start": 31.5095,
      "duration": 0.0635,
      "velocity": 102,
      "chip": "ym2612"
    },
    {
      "channel": 0,
      "note": 49,
      "start": 31.5134,
      "duration": 0.0591,
      "velocity": 95,
      "chip": "ym2612"
    },
    {
      "channel": 0,
      "note": 65,
      "start": 31.6094,
      "duration": 0.0798,
      "velocity": 102,
      "chip": "ym2612"
    },
    {
      "channel": 1,
      "note": 49,
      "start": 31.6137,
      "duration": 0.0757,
      "velocity": 95,
      "chip": "ym2612"
    },
    {
      "channel": 2,
      "note": 65,
      "start": 31.7264,
      "duration": 0.0632,
      "velocity": 102,
      "chip": "ym2612"
    },
    {
      "channel": 1,
      "note": 49,
      "start": 31.7299,
      "duration": 0.0593,
      "velocity": 95,
      "chip": "ym2612"
    },
    {
      "channel": 0,
      "note": 68,
      "start": 31.8259,
      "duration": 0.1133,
      "velocity": 102,
      "chip": "ym2612"
    },
    {
      "channel": 1,
      "note": 73,
      "start": 31.829,
      "duration": 0.0768,
      "velocity": 102,
      "chip": "ym2612"
    },
    {
      "channel": 2,
      "note": 49,
      "start": 31.8332,
      "duration": 0.073,
      "velocity": 95,
      "chip": "ym2612"
    },
    {
      "channel": 1,
      "note": 69,
      "start": 31.9428,
      "duration": 0.0632,
      "velocity": 102,
      "chip": "ym2612"
    },
    {
      "channel": 2,
      "note": 73,
      "start": 31.9459,
      "duration": 0.0934,
      "velocity": 102,
      "chip": "ym2612"
    },
    {
      "channel": 0,
      "note": 49,
      "start": 31.9502,
      "duration": 0.0557,
      "velocity": 95,
      "chip": "ym2612"
    },
    {
      "channel": 0,
      "note": 69,
      "start": 32.0427,
      "duration": 0.0799,
      "velocity": 102,
      "chip": "ym2612"
    },
    {
      "channel": 1,
      "note": 73,
      "start": 32.0455,
      "duration": 0.1105,
      "velocity": 102,
      "chip": "ym2612"
    },
    {
      "channel": 2,
      "note": 42,
      "start": 32.0493,
      "duration": 0.2071,
      "velocity": 125,
      "chip": "ym2612"
    },
    {
      "channel": 0,
      "note": 69,
      "start": 32.1598,
      "duration": 0.0628,
      "velocity": 102,
      "chip": "ym2612"
    },
    {
      "channel": 1,
      "note": 73,
      "start": 32.1628,
      "duration": 0.0932,
      "velocity": 102,
      "chip": "ym2612"
    },
    {
      "channel": 0,
      "note": 62,
      "start": 32.2595,
      "duration": 0.3966,
      "velocity": 102,
      "chip": "ym2612"
    },
    {
      "channel": 1,
      "note": 33,
      "start": 32.2641,
      "duration": 0.0587,
      "velocity": 124,
      "chip": "ym2612"
    },
    {
      "channel": 2,
      "note": 62,
      "start": 32.3763,
      "duration": 0.0633,
      "velocity": 102,
      "chip": "ym2612"
    },
    {
      "channel": 1,
      "note": 34,
      "start": 32.3806,
      "duration": 0.0587,
      "velocity": 124,
      "chip": "ym2612"
    },
    {
      "channel": 1,
      "note": 65,
      "start": 32.4762,
      "duration": 0.0632,
      "velocity": 102,
      "chip": "ym2612"
    },
    {
      "channel": 2,
      "note": 49,
      "start": 32.4802,
      "duration": 0.0261,
      "velocity": 106,
      "chip": "ym2612"
    },
    {
      "channel": 2,
      "note": 65,
      "start": 32.5766,
      "duration": 0.0011,
      "velocity": 102,
      "chip": "ym2612"
    },
    {
      "channel": 2,
      "note": 49,
      "start": 32.5802,
      "duration": 0.0761,
      "velocity": 106,
      "chip": "ym2612"
    },
    {
      "channel": 0,
      "note": 67,
      "start": 32.6935,
      "duration": 0.0625,
      "velocity": 102,
      "chip": "ym2612"
    },
    {
      "channel": 1,
      "note": 72,
      "start": 32.6962,
      "duration": 0.06,
      "velocity": 102,
      "chip": "ym2612"
    },
    {
      "channel": 2,
      "note": 49,
      "start": 32.704,
      "duration": 0.169,
      "velocity": 106,
      "chip": "ym2612"
    },
    {
      "channel": 0,
      "note": 68,
      "start": 32.793,
      "duration": 0.0796,
      "velocity": 102,
      "chip": "ym2612"
    },
    {
      "channel": 1,
      "note": 72,
      "start": 32.796,
      "duration": 0.1099,
      "velocity": 102,
      "chip": "ym2612"
    },
    {
      "channel": 0,
      "note": 68,
      "start": 32.9096,
      "duration": 0.0631,
      "velocity": 102,
      "chip": "ym2612"
    },
    {
      "channel": 2,
      "note": 72,
      "start": 32.9124,
      "duration": 0.0012,
      "velocity": 102,
      "chip": "ym2612"
    },
    {
      "channel": 2,
      "note": 49,
      "start": 32.9162,
      "duration": 0.1734,
      "velocity": 106,
      "chip": "ym2612"
    },
    {
      "channel": 1,
      "note": 68,
      "start": 33.0098,
      "duration": 0.0794,
      "velocity": 102,
      "chip": "ym2612"
    },
    {
      "channel": 0,
      "note": 72,
      "start": 33.0129,
      "duration": 0.1097,
      "velocity": 102,
      "chip": "ym2612"
    },
    {
      "channel": 1,
      "note": 62,
      "start": 33.1259,
      "duration": 0.38,
      "velocity": 102,
      "chip": "ym2612"
    },
    {
      "channel": 2,
      "note": 42,
      "start": 33.1299,
      "duration": 0.2096,
      "velocity": 125,
      "chip": "ym2612"
    },
    {
      "channel": 0,
      "note": 65,
      "start": 33.2261,
      "duration": 0.0632,
      "velocity": 102,
      "chip": "ym2612"
    },
    {
      "channel": 0,
      "note": 65,
      "start": 33.3427,
      "duration": 0.0632,
      "velocity": 102,
      "chip": "ym2612"
    },
    {
      "channel": 2,
      "note": 65,
      "start": 33.443,
      "duration": 0.0632,
      "velocity": 102,
      "chip": "ym2612"
    },
    {
      "channel": 1,
      "note": 68,
      "start": 33.5591,
      "duration": 0.0973,
      "velocity": 102,
      "chip": "ym2612"
    },
    {
      "channel": 0,
      "note": 73,
      "start": 33.5619,
      "duration": 0.0606,
      "velocity": 102,
      "chip": "ym2612"
    },
    {
      "channel": 2,
      "note": 69,
      "start": 33.66,
      "duration": 0.063,
      "velocity": 102,
      "chip": "ym2612"
    },
    {
      "channel": 0,
      "note": 73,
      "start": 33.663,
      "duration": 0.093,
      "velocity": 102,
      "chip": "ym2612"
    },
    {
      "channel": 1,
      "note": 69,
      "start": 33.7595,
      "duration": 0.08,
      "velocity": 102,
      "chip": "ym2612"
    },
    {
      "channel": 2,
      "note": 73,
      "start": 33.7624,
      "duration": 0.0015,
      "velocity": 102,
      "chip": "ym2612"
    },
    {
      "channel": 2,
      "note": 49,
      "start": 33.7666,
      "duration": 0.0732,
      "velocity": 95,
      "chip": "ym2612"
    },
    {
      "channel": 0,
      "note": 69,
      "start": 33.8765,
      "duration": 0.0629,
      "velocity": 102,
      "chip": "ym2612"
    },
    {
      "channel": 1,
      "note": 73,
      "start": 33.8795,
      "duration": 0.0933,
      "velocity": 102,
      "chip": "ym2612"
    },
    {
      "channel": 2,
      "note": 49,
      "start": 33.8836,
      "duration": 0.0562,
      "velocity": 95,
      "chip": "ym2612"
    },
    {
      "channel": 0,
      "note": 62,
      "start": 33.9761,
      "duration": 0.3968,
      "velocity": 102,
      "chip": "ym2612"
    },
    {
      "channel": 2,
      "note": 42,
      "start": 33.9799,
      "duration": 0.1152,
      "velocity": 125,
      "chip": "ym2612"
    },
    {
      "channel": 1,
      "note": 62,
      "start": 34.0935,
      "duration": 0.0627,
      "velocity": 102,
      "chip": "ym2612"
    },
    {
      "channel": 2,
      "note": 49,
      "start": 34.0978,
      "duration": 0.0587,
      "velocity": 95,
      "chip": "ym2612"
    },
    {
      "channel": 1,
      "note": 65,
      "start": 34.1934,
      "duration": 0.0795,
      "velocity": 102,
      "chip": "ym2612"
    },
    {
      "channel": 2,
      "note": 49,
      "start": 34.1977,
      "duration": 0.0256,
      "velocity": 106,
      "chip": "ym2612"
    },
    {
      "channel": 2,
      "note": 65,
      "start": 34.3105,
      "duration": 0.0011,
      "velocity": 102,
      "chip": "ym2612"
    },
    {
      "channel": 2,
      "note": 49,
      "start": 34.3141,
      "duration": 0.0592,
      "velocity": 106,
      "chip": "ym2612"
    },
    {
      "channel": 0,
      "note": 67,
      "start": 34.4107,
      "duration": 0.0622,
      "velocity": 102,
      "chip": "ym2612"
    },
    {
      "channel": 1,
      "note": 72,
      "start": 34.4133,
      "duration": 0.0596,
      "velocity": 102,
      "chip": "ym2612"
    },
    {
      "channel": 3,
      "note": 46,
      "start": 34.4219,
      "duration": 3.351,
      "velocity": 95,
      "chip": "ym2612"
    },
    {
      "channel": 2,
      "note": 49,
      "start": 34.4281,
      "duration": 0.3783,
      "velocity": 106,
      "chip": "ym2612"
    },
    {
      "channel": 4,
      "note": 68,
      "start": 34.5265,
      "duration": 0.0632,
      "velocity": 102,
      "chip": "ym2612"
    },
    {
      "channel": 5,
      "note": 72,
      "start": 34.5296,
      "duration": 0.0933,
      "velocity": 102,
      "chip": "ym2612"
    },
    {
      "channel": 0,
      "note": 68,
      "start": 34.6264,
      "duration": 0.0629,
      "velocity": 102,
      "chip": "ym2612"
    },
    {
      "channel": 1,
      "note": 72,
      "start": 34.6293,
      "duration": 0.1101,
      "velocity": 102,
      "chip": "ym2612"
    },
    {
      "channel": 4,
      "note": 49,
      "start": 34.6337,
      "duration": 0.0559,
      "velocity": 95,
      "chip": "ym2612"
    },
    {
      "channel": 5,
      "note": 68,
      "start": 34.7434,
      "duration": 0.0628,
      "velocity": 102,
      "chip": "ym2612"
    },
    {
      "channel": 0,
      "note": 72,
      "start": 34.7465,
      "duration": 0.0929,
      "velocity": 102,
      "chip": "ym2612"
    },
    {
      "channel": 4,
      "note": 47,
      "start": 34.7501,
      "duration": 0.0561,
      "velocity": 95,
      "chip": "ym2612"
    },
    {
      "channel": 1,
      "note": 62,
      "start": 34.8427,
      "duration": 0.3966,
      "velocity": 102,
      "chip": "ym2612"
    },
    {
      "channel": 4,
      "note": 49,
      "start": 34.8471,
      "duration": 0.0592,
      "velocity": 95,
      "chip": "ym2612"
    },
    {
      "channel": 5,
      "note": 50,
      "start": 34.8521,
      "duration": 2.9711,
      "velocity": 95,
      "chip": "ym2612"
    },
    {
      "channel": 2,
      "note": 42,
      "start": 34.8561,
      "duration": 0.167,
      "velocity": 125,
      "chip": "ym2612"
    },
    {
      "channel": 0,
      "note": 65,
      "start": 34.9429,
      "duration": 0.0798,
      "velocity": 102,
      "chip": "ym2612"
    },
    {
      "channel": 4,
      "note": 49,
      "start": 34.9467,
      "duration": 0.0761,
      "velocity": 95,
      "chip": "ym2612"
    },
    {
      "channel": 0,
      "note": 65,
      "start": 35.0595,
      "duration": 0.0632,
      "velocity": 102,
      "chip": "ym2612"
    },
    {
      "channel": 4,
      "note": 49,
      "start": 35.0636,
      "duration": 0.0593,
      "velocity": 95,
      "chip": "ym2612"
    },
    {
      "channel": 2,
      "note": 65,
      "start": 35.1597,
      "duration": 0.08,
      "velocity": 102,
      "chip": "ym2612"
    },
    {
      "channel": 4,
      "note": 49,
      "start": 35.1633,
      "duration": 0.0761,
      "velocity": 95,
      "chip": "ym2612"
    },
    {
      "channel": 1,
      "note": 68,
      "start": 35.2757,
      "duration": 0.0969,
      "velocity": 102,
      "chip": "ym2612"
    },
    {
      "channel": 0,
      "note": 73,
      "start": 35.2785,
      "duration": 0.0607,
      "velocity": 102,
      "chip": "ym2612"
    },
    {
      "channel": 4,
      "note": 49,
      "start": 35.2825,
      "duration": 0.0571,
      "velocity": 95,
      "chip": "ym2612"
    },
    {
      "channel": 2,
      "note": 69,
      "start": 35.3762,
      "duration": 0.08,
      "velocity": 102,
      "chip": "ym2612"
    },
    {
      "channel": 0,
      "note": 73,
      "start": 35.3793,
      "duration": 0.1099,
      "velocity": 102,
      "chip": "ym2612"
    },
    {
      "channel": 4,
      "note": 49,
      "start": 35.3835,
      "duration": 0.0724,
      "velocity": 95,
      "chip": "ym2612"
    },
    {
      "channel": 1,
      "note": 69,
      "start": 35.4927,
      "duration": 0.0634,
      "velocity": 102,
      "chip": "ym2612"
    },
    {
      "channel": 4,
      "note": 73,
      "start": 35.4955,
      "duration": 0.0938,
      "velocity": 102,
      "chip": "ym2612"
    },
    {
      "channel": 2,
      "note": 42,
      "start": 35.4994,
      "duration": 0.2068,
      "velocity": 125,
      "chip": "ym2612"
    },
    {
      "channel": 0,
      "note": 69,
      "start": 35.593,
      "duration": 0.063,
      "velocity": 102,
      "chip": "ym2612"
    },
    {
      "channel": 1,
      "note": 73,
      "start": 35.5961,
      "duration": 0.1098,
      "velocity": 102,
      "chip": "ym2612"
    },
    {
      "channel": 4,
      "note": 62,
      "start": 35.7094,
      "duration": 0.3803,
      "velocity": 102,
      "chip": "ym2612"
    },
    {
      "channel": 0,
      "note": 33,
      "start": 35.7143,
      "duration": 0.0583,
      "velocity": 124,
      "chip": "ym2612"
    },
    {
      "channel": 1,
      "note": 62,
      "start": 35.81,
      "duration": 0.0627,
      "velocity": 102,
      "chip": "ym2612"
    },
    {
      "channel": 0,
      "note": 34,
      "start": 35.8144,
      "duration": 0.0583,
      "velocity": 124,
      "chip": "ym2612"
    },
    {
      "channel": 2,
      "note": 65,
      "start": 35.9267,
      "duration": 0.0013,
      "velocity": 102,
      "chip": "ym2612"
    },
    {
      "channel": 2,
      "note": 49,
      "start": 35.9308,
      "duration": 0.0256,
      "velocity": 106,
      "chip": "ym2612"
    },
    {
      "channel": 0,
      "note": 65,
      "start": 36.0269,
      "duration": 0.0625,
      "velocity": 102,
      "chip": "ym2612"
    },
    {
      "channel": 2,
      "note": 49,
      "start": 36.0306,
      "duration": 0.0592,
      "velocity": 106,
      "chip": "ym2612"
    },
    {
      "channel": 4,
      "note": 67,
      "start": 36.1274,
      "duration": 0.0789,
      "velocity": 102,
      "chip": "ym2612"
    },
    {
      "channel": 1,
      "note": 72,
      "start": 36.1301,
      "duration": 0.076,
      "velocity": 102,
      "chip": "ym2612"
    },
    {
      "channel": 2,
      "note": 49,
      "start": 36.1385,
      "duration": 0.1678,
      "velocity": 106,
      "chip": "ym2612"
    },
    {
      "channel": 0,
      "note": 68,
      "start": 36.2429,
      "duration": 0.063,
      "velocity": 102,
      "chip": "ym2612"
    },
    {
      "channel": 1,
      "note": 72,
      "start": 36.2459,
      "duration": 0.0934,
      "velocity": 102,
      "chip": "ym2612"
    },
    {
      "channel": 4,
      "note": 68,
      "start": 36.343,
      "duration": 0.0797,
      "velocity": 102,
      "chip": "ym2612"
    },
    {
      "channel": 0,
      "note": 72,
      "start": 36.3459,
      "duration": 0.11,
      "velocity": 102,
      "chip": "ym2612"
    },
    {
      "channel": 2,
      "note": 49,
      "start": 36.3497,
      "duration": 0.1733,
      "velocity": 106,
      "chip": "ym2612"
    },
    {
      "channel": 1,
      "note": 68,
      "start": 36.46,
      "duration": 0.0627,
      "velocity": 102,
      "chip": "ym2612"
    },
    {
      "channel": 4,
      "note": 72,
      "start": 36.463,
      "duration": 0.0931,
      "velocity": 102,
      "chip": "ym2612"
    },
    {
      "channel": 0,
      "note": 62,
      "start": 36.5593,
      "duration": 0.3967,
      "velocity": 102,
      "chip": "ym2612"
    },
    {
      "channel": 1,
      "note": 42,
      "start": 36.5631,
      "duration": 0.2094,
      "velocity": 125,
      "chip": "ym2612"
    },
    {
      "channel": 2,
      "note": 65,
      "start": 36.6761,
      "duration": 0.0634,
      "velocity": 102,
      "chip": "ym2612"
    },
    {
      "channel": 4,
      "note": 65,
      "start": 36.7761,
      "duration": 0.0634,
      "velocity": 102,
      "chip": "ym2612"
    },
    {
      "channel": 2,
      "note": 65,
      "start": 36.8931,
      "duration": 0.0632,
      "velocity": 102,
      "chip": "ym2612"
    },
    {
      "channel": 0,
      "note": 68,
      "start": 36.9925,
      "duration": 0.1135,
      "velocity": 102,
      "chip": "ym2612"
    },
    {
      "channel": 1,
      "note": 73,
      "start": 36.9953,
      "duration": 0.0607,
      "velocity": 102,
      "chip": "ym2612"
    },
    {
      "channel": 4,
      "note": 69,
      "start": 37.1096,
      "duration": 0.0631,
      "velocity": 102,
      "chip": "ym2612"
    },
    {
      "channel": 2,
      "note": 73,
      "start": 37.1127,
      "duration": 0.0935,
      "velocity": 102,
      "chip": "ym2612"
    },
    {
      "channel": 1,
      "note": 69,
      "start": 37.2095,
      "duration": 0.0632,
      "velocity": 102,
      "chip": "ym2612"
    },
    {
      "channel": 0,
      "note": 73,
      "start": 37.2123,
      "duration": 0.0936,
      "velocity": 102,
      "chip": "ym2612"
    },
    {
      "channel": 2,
      "note": 49,
      "start": 37.2165,
      "duration": 0.0566,
      "velocity": 95,
      "chip": "ym2612"
    },
    {
      "channel": 4,
      "note": 69,
      "start": 37.3098,
      "duration": 0.0797,
      "velocity": 102,
      "chip": "ym2612"
    },
    {
      "channel": 1,
      "note": 73,
      "start": 37.3129,
      "duration": 0.1099,
      "velocity": 102,
      "chip": "ym2612"
    },
    {
      "channel": 2,
      "note": 49,
      "start": 37.3169,
      "duration": 0.0728,
      "velocity": 95,
      "chip": "ym2612"
    },
    {
      "channel": 0,
      "note": 62,
      "start": 37.426,
      "duration": 0.3968,
      "velocity": 102,
      "chip": "ym2612"
    },
    {
      "channel": 4,
      "note": 42,
      "start": 37.4299,
      "duration": 0.2097,
      "velocity": 125,
      "chip": "ym2612"
    },
    {
      "channel": 2,
      "note": 62,
      "start": 37.5269,
      "duration": 0.0794,
      "velocity": 102,
      "chip": "ym2612"
    },
    {
      "channel": 1,
      "note": 65,
      "start": 37.6435,
      "duration": 0.0627,
      "velocity": 102,
      "chip": "ym2612"
    },
    {
      "channel": 2,
      "note": 49,
      "start": 37.6478,
      "duration": 0.0252,
      "velocity": 106,
      "chip": "ym2612"
    },
    {
      "channel": 4,
      "note": 65,
      "start": 37.7438,
      "duration": 0.0793,
      "velocity": 102,
      "chip": "ym2612"
    },
    {
      "channel": 2,
      "note": 49,
      "start": 37.7474,
      "duration": 0.0759,
      "velocity": 106,
      "chip": "ym2612"
    },
    {
      "channel": 0,
      "note": 67,
      "start": 37.8606,
      "duration": 0.0623,
      "velocity": 102,
      "chip": "ym2612"
    },
    {
      "channel": 1,
      "note": 72,
      "start": 37.8633,
      "duration": 0.0598,
      "velocity": 102,
      "chip": "ym2612"
    },
    {
      "channel": 3,
      "note": 46,
      "start": 37.8714,
      "duration": 3.3515,
      "velocity": 95,
      "chip": "ym2612"
    },
    {
      "channel": 2,
      "note": 49,
      "start": 37.8791,
      "duration": 0.3608,
      "velocity": 106,
      "chip": "ym2612"
    },
    {
      "channel": 4,
      "note": 68,
      "start": 37.9598,
      "duration": 0.063,
      "velocity": 102,
      "chip": "ym2612"
    },
    {
      "channel": 5,
      "note": 72,
      "start": 37.9629,
      "duration": 0.11,
      "velocity": 102,
      "chip": "ym2612"
    },
    {
      "channel": 0,
      "note": 68,
      "start": 38.0764,
      "duration": 0.0631,
      "velocity": 102,
      "chip": "ym2612"
    },
    {
      "channel": 1,
      "note": 72,
      "start": 38.0793,
      "duration": 0.0936,
      "velocity": 102,
      "chip": "ym2612"
    },
    {
      "channel": 4,
      "note": 49,
      "start": 38.0833,
      "duration": 0.0565,
      "velocity": 95,
      "chip": "ym2612"
    },
    {
      "channel": 5,
      "note": 68,
      "start": 38.1769,
      "duration": 0.0629,
      "velocity": 102,
      "chip": "ym2612"
    },
    {
      "channel": 0,
      "note": 72,
      "start": 38.1799,
      "duration": 0.1095,
      "velocity": 102,
      "chip": "ym2612"
    },
    {
      "channel": 4,
      "note": 47,
      "start": 38.1839,
      "duration": 0.0556,
      "velocity": 95,
      "chip": "ym2612"
    },
    {
      "channel": 1,
      "note": 62,
      "start": 38.2928,
      "duration": 0.3797,
      "velocity": 102,
      "chip": "ym2612"
    },
    {
      "channel": 4,
      "note": 49,
      "start": 38.2967,
      "duration": 0.0595,
      "velocity": 95,
      "chip": "ym2612"
    },
    {
      "channel": 5,
      "note": 46,
      "start": 38.3015,
      "duration": 2.955,
      "velocity": 95,
      "chip": "ym2612"
    },
    {
      "channel": 2,
      "note": 42,
      "start": 38.3054,
      "duration": 0.1511,
      "velocity": 125,
      "chip": "ym2612"
    },
    {
      "channel": 0,
      "note": 65,
      "start": 38.3929,
      "duration": 0.0632,
      "velocity": 102,
      "chip": "ym2612"
    },
    {
      "channel": 4,
      "note": 49,
      "start": 38.3971,
      "duration": 0.0592,
      "velocity": 95,
      "chip": "ym2612"
    },
    {
      "channel": 0,
      "note": 65,
      "start": 38.4928,
      "duration": 0.0798,
      "velocity": 102,
      "chip": "ym2612"
    },
    {
      "channel": 4,
      "note": 49,
      "start": 38.4965,
      "duration": 0.0763,
      "velocity": 95,
      "chip": "ym2612"
    },
    {
      "channel": 2,
      "note": 65,
      "start": 38.6097,
      "duration": 0.0632,
      "velocity": 102,
      "chip": "ym2612"
    },
    {
      "channel": 4,
      "note": 49,
      "start": 38.6133,
      "duration": 0.0593,
      "velocity": 95,
      "chip": "ym2612"
    },
    {
      "channel": 1,
      "note": 68,
      "start": 38.709,
      "duration": 0.1135,
      "velocity": 102,
      "chip": "ym2612"
    },
    {
      "channel": 0,
      "note": 73,
      "start": 38.7118,
      "duration": 0.0773,
      "velocity": 102,
      "chip": "ym2612"
    },
    {
      "channel": 4,
      "note": 49,
      "start": 38.7161,
      "duration": 0.0733,
      "velocity": 95,
      "chip": "ym2612"
    },
    {
      "channel": 2,
      "note": 69,
      "start": 38.8261,
      "duration": 0.0634,
      "velocity": 102,
      "chip": "ym2612"
    },
    {
      "channel": 0,
      "note": 73,
      "start": 38.8292,
      "duration": 0.0933,
      "velocity": 102,
      "chip": "ym2612"
    },
    {
      "channel": 4,
      "note": 49,
      "start": 38.8331,
      "duration": 0.0562,
      "velocity": 95,
      "chip": "ym2612"
    },
    {
      "channel": 1,
      "note": 69,
      "start": 38.9261,
      "duration": 0.08,
      "velocity": 102,
      "chip": "ym2612"
    },
    {
      "channel": 4,
      "note": 73,
      "start": 38.9288,
      "duration": 0.1105,
      "velocity": 102,
      "chip": "ym2612"
    },
    {
      "channel": 2,
      "note": 42,
      "start": 38.9327,
      "duration": 0.2068,
      "velocity": 125,
      "chip": "ym2612"
    },
    {
      "channel": 0,
      "note": 69,
      "start": 39.043,
      "duration": 0.0629,
      "velocity": 102,
      "chip": "ym2612"
    },
    {
      "channel": 1,
      "note": 73,
      "start": 39.0461,
      "duration": 0.0932,
      "velocity": 102,
      "chip": "ym2612"
    },
    {
      "channel": 4,
      "note": 62,
      "start": 39.1427,
      "duration": 0.3969,
      "velocity": 102,
      "chip": "ym2612"
    },
    {
      "channel": 0,
      "note": 33,
      "start": 39.1474,
      "duration": 0.0585,
      "velocity": 124,
      "chip": "ym2612"
    },
    {
      "channel": 1,
      "note": 62,
      "start": 39.26,
      "duration": 0.0627,
      "velocity": 102,
      "chip": "ym2612"
    },
    {
      "channel": 0,
      "note": 34,
      "start": 39.2644,
      "duration": 0.0582,
      "velocity": 124,
      "chip": "ym2612"
    },
    {
      "channel": 2,
      "note": 65,
      "start": 39.36,
      "duration": 0.0013,
      "velocity": 102,
      "chip": "ym2612"
    },
    {
      "channel": 2,
      "note": 49,
      "start": 39.364,
      "duration": 0.0256,
      "velocity": 106,
      "chip": "ym2612"
    },
    {
      "channel": 0,
      "note": 65,
      "start": 39.477,
      "duration": 0.0623,
      "velocity": 102,
      "chip": "ym2612"
    },
    {
      "channel": 2,
      "note": 49,
      "start": 39.4806,
      "duration": 0.0591,
      "velocity": 106,
      "chip": "ym2612"
    },
    {
      "channel": 4,
      "note": 67,
      "start": 39.5773,
      "duration": 0.0623,
      "velocity": 102,
      "chip": "ym2612"
    },
    {
      "channel": 1,
      "note": 72,
      "start": 39.58,
      "duration": 0.0594,
      "velocity": 102,
      "chip": "ym2612"
    },
    {
      "channel": 2,
      "note": 49,
      "start": 39.5884,
      "duration": 0.1679,
      "velocity": 106,
      "chip": "ym2612"
    },
    {
      "channel": 0,
      "note": 68,
      "start": 39.6763,
      "duration": 0.0796,
      "velocity": 102,
      "chip": "ym2612"
    },
    {
      "channel": 1,
      "note": 72,
      "start": 39.6793,
      "duration": 0.11,
      "velocity": 102,
      "chip": "ym2612"
    },
    {
      "channel": 4,
      "note": 68,
      "start": 39.793,
      "duration": 0.0631,
      "velocity": 102,
      "chip": "ym2612"
    },
    {
      "channel": 0,
      "note": 72,
      "start": 39.7959,
      "duration": 0.0933,
      "velocity": 102,
      "chip": "ym2612"
    },
    {
      "channel": 2,
      "note": 49,
      "start": 39.7997,
      "duration": 0.1733,
      "velocity": 106,
      "chip": "ym2612"
    },
    {
      "channel": 1,
      "note": 68,
      "start": 39.8933,
      "duration": 0.0794,
      "velocity": 102,
      "chip": "ym2612"
    },
    {
      "channel": 4,
      "note": 72,
      "start": 39.8963,
      "duration": 0.1098,
      "velocity": 102,
      "chip": "ym2612"
    },
    {
      "channel": 0,
      "note": 62,
      "start": 40.0093,
      "duration": 0.38,
      "velocity": 102,
      "chip": "ym2612"
    },
    {
      "channel": 1,
      "note": 42,
      "start": 40.0131,
      "duration": 0.2095,
      "velocity": 125,
      "chip": "ym2612"
    },
    {
      "channel": 2,
      "note": 65,
      "start": 40.1095,
      "duration": 0.0801,
      "velocity": 102,
      "chip": "ym2612"
    },
    {
      "channel": 4,
      "note": 65,
      "start": 40.2262,
      "duration": 0.0633,
      "velocity": 102,
      "chip": "ym2612"
    },
    {
      "channel": 2,
      "note": 65,
      "start": 40.3265,
      "duration": 0.0632,
      "velocity": 102,
      "chip": "ym2612"
    },
    {
      "channel": 0,
      "note": 68,
      "start": 40.4424,
      "duration": 0.0968,
      "velocity": 102,
      "chip": "ym2612"
    },
    {
      "channel": 1,
      "note": 73,
      "start": 40.4453,
      "duration": 0.0607,
      "velocity": 102,
      "chip": "ym2612"
    },
    {
      "channel": 4,
      "note": 69,
      "start": 40.5429,
      "duration": 0.0632,
      "velocity": 102,
      "chip": "ym2612"
    },
    {
      "channel": 2,
      "note": 73,
      "start": 40.546,
      "duration": 0.1102,
      "velocity": 102,
      "chip": "ym2612"
    },
    {
      "channel": 1,
      "note": 69,
      "start": 40.6595,
      "duration": 0.0633,
      "velocity": 102,
      "chip": "ym2612"
    },
    {
      "channel": 0,
      "note": 73,
      "start": 40.6624,
      "duration": 0.0936,
      "velocity": 102,
      "chip": "ym2612"
    },
    {
      "channel": 2,
      "note": 49,
      "start": 40.6666,
      "duration": 0.0566,
      "velocity": 95,
      "chip": "ym2612"
    },
    {
      "channel": 4,
      "note": 69,
      "start": 40.7599,
      "duration": 0.063,
      "velocity": 102,
      "chip": "ym2612"
    },
    {
      "channel": 1,
      "note": 73,
      "start": 40.7629,
      "duration": 0.0931,
      "velocity": 102,
      "chip": "ym2612"
    },
    {
      "channel": 2,
      "note": 49,
      "start": 40.767,
      "duration": 0.0562,
      "velocity": 95,
      "chip": "ym2612"
    },
    {
      "channel": 0,
      "note": 62,
      "start": 40.8593,
      "duration": 0.3968,
      "velocity": 102,
      "chip": "ym2612"
    },
    {
      "channel": 4,
      "note": 42,
      "start": 40.8632,
      "duration": 0.2097,
      "velocity": 125,
      "chip": "ym2612"
    },
    {
      "channel": 2,
      "note": 62,
      "start": 40.9769,
      "duration": 0.0017,
      "velocity": 102,
      "chip": "ym2612"
    },
    {
      "channel": 2,
      "note": 49,
      "start": 40.9812,
      "duration": 0.0585,
      "velocity": 95,
      "chip": "ym2612"
    },
    {
      "channel": 1,
      "note": 65,
      "start": 41.0769,
      "duration": 0.0794,
      "velocity": 102,
      "chip": "ym2612"
    },
    {
      "channel": 2,
      "note": 49,
      "start": 41.0811,
      "duration": 0.0253,
      "velocity": 106,
      "chip": "ym2612"
    },
    {
      "channel": 4,
      "note": 65,
      "start": 41.1938,
      "duration": 0.0626,
      "velocity": 102,
      "chip": "ym2612"
    },
    {
      "channel": 2,
      "note": 49,
      "start": 41.1974,
      "duration": 0.0592,
      "velocity": 106,
      "chip": "ym2612"
    },
    {
      "channel": 0,
      "note": 68,
      "start": 41.2934,
      "duration": 0.0795,
      "velocity": 102,
      "chip": "ym2612"
    },
    {
      "channel": 1,
      "note": 74,
      "start": 41.296,
      "duration": 0.077,
      "velocity": 102,
      "chip": "ym2612"
    },
    {
      "channel": 3,
      "note": 53,
      "start": 41.3061,
      "duration": 1.6668,
      "velocity": 116,
      "chip": "ym2612"
    },
    {
      "channel": 2,
      "note": 49,
      "start": 41.3141,
      "duration": 0.3756,
      "velocity": 106,
      "chip": "ym2612"
    },
    {
      "channel": 4,
      "note": 71,
      "start": 41.41,
      "duration": 0.0629,
      "velocity": 102,
      "chip": "ym2612"
    },
    {
      "channel": 5,
      "note": 74,
      "start": 41.413,
      "duration": 0.0932,
      "velocity": 102,
      "chip": "ym2612"
    },
    {
      "channel": 0,
      "note": 71,
      "start": 41.51,
      "duration": 0.0628,
      "velocity": 102,
      "chip": "ym2612"
    },
    {
      "channel": 1,
      "note": 74,
      "start": 41.5128,
      "duration": 0.11,
      "velocity": 102,
      "chip": "ym2612"
    },
    {
      "channel": 4,
      "note": 71,
      "start": 41.6269,
      "duration": 0.0625,
      "velocity": 102,
      "chip": "ym2612"
    },
    {
      "channel": 5,
      "note": 74,
      "start": 41.6301,
      "duration": 0.0928,
      "velocity": 102,
      "chip": "ym2612"
    },
    {
      "channel": 0,
      "note": 65,
      "start": 41.726,
      "duration": 0.3966,
      "velocity": 102,
      "chip": "ym2612"
    },
    {
      "channel": 1,
      "note": 42,
      "start": 41.73,
      "duration": 0.1759,
      "velocity": 125,
      "chip": "ym2612"
    },
    {
      "channel": 4,
      "note": 68,
      "start": 41.8266,
      "duration": 0.0795,
      "velocity": 102,
      "chip": "ym2612"
    },
    {
      "channel": 2,
      "note": 68,
      "start": 41.9432,
      "duration": 0.063,
      "velocity": 102,
      "chip": "ym2612"
    },
    {
      "channel": 5,
      "note": 68,
      "start": 42.0434,
      "duration": 0.0796,
      "velocity": 102,
      "chip": "ym2612"
    },
    {
      "channel": 0,
      "note": 70,
      "start": 42.159,
      "duration": 0.097,
      "velocity": 102,
      "chip": "ym2612"
    },
    {
      "channel": 1,
      "note": 75,
      "start": 42.1619,
      "duration": 0.0609,
      "velocity": 102,
      "chip": "ym2612"
    },
    {
      "channel": 4,
      "note": 72,
      "start": 42.1672,
      "duration": 0.8058,
      "velocity": 98,
      "chip": "ym2612"
    },
    {
      "channel": 2,
      "note": 77,
      "start": 42.1701,
      "duration": 0.6405,
      "velocity": 98,
      "chip": "ym2612"
    },
    {
      "channel": 5,
      "note": 72,
      "start": 42.2597,
      "duration": 0.0797,
      "velocity": 102,
      "chip": "ym2612"
    },
    {
      "channel": 1,
      "note": 75,
      "start": 42.2628,
      "duration": 0.1098,
      "velocity": 102,
      "chip": "ym2612"
    },
    {
      "channel": 0,
      "note": 72,
      "start": 42.3761,
      "duration": 0.0632,
      "velocity": 102,
      "chip": "ym2612"
    },
    {
      "channel": 5,
      "note": 75,
      "start": 42.379,
      "duration": 0.0939,
      "velocity": 102,
      "chip": "ym2612"
    },
    {
      "channel": 1,
      "note": 42,
      "start": 42.3828,
      "duration": 0.2066,
      "velocity": 125,
      "chip": "ym2612"
    },
    {
      "channel": 0,
      "note": 72,
      "start": 42.4765,
      "duration": 0.0794,
      "velocity": 102,
      "chip": "ym2612"
    },
    {
      "channel": 5,
      "note": 75,
      "start": 42.4795,
      "duration": 0.1101,
      "velocity": 102,
      "chip": "ym2612"
    },
    {
      "channel": 0,
      "note": 65,
      "start": 42.5932,
      "duration": 0.3795,
      "velocity": 102,
      "chip": "ym2612"
    },
    {
      "channel": 1,
      "note": 33,
      "start": 42.5981,
      "duration": 0.058,
      "velocity": 124,
      "chip": "ym2612"
    },
    {
      "channel": 5,
      "note": 65,
      "start": 42.6929,
      "duration": 0.0634,
      "velocity": 102,
      "chip": "ym2612"
    },
    {
      "channel": 1,
      "note": 34,
      "start": 42.6972,
      "duration": 0.0588,
      "velocity": 124,
      "chip": "ym2612"
    },
    {
      "channel": 1,
      "note": 68,
      "start": 42.8093,
      "duration": 0.0634,
      "velocity": 102,
      "chip": "ym2612"
    },
    {
      "channel": 2,
      "note": 49,
      "start": 42.8133,
      "duration": 0.0263,
      "velocity": 106,
      "chip": "ym2612"
    },
    {
      "channel": 5,
      "note": 68,
      "start": 42.9098,
      "duration": 0.0634,
      "velocity": 102,
      "chip": "ym2612"
    },
    {
      "channel": 2,
      "note": 49,
      "start": 42.9133,
      "duration": 0.0599,
      "velocity": 106,
      "chip": "ym2612"
    },
    {
      "channel": 0,
      "note": 70,
      "start": 43.0091,
      "duration": 0.0804,
      "velocity": 102,
      "chip": "ym2612"
    },
    {
      "channel": 1,
      "note": 76,
      "start": 43.0117,
      "duration": 0.0779,
      "velocity": 102,
      "chip": "ym2612"
    },
    {
      "channel": 3,
      "note": 55,
      "start": 43.0151,
      "duration": 0.8243,
      "velocity": 116,
      "chip": "ym2612"
    },
    {
      "channel": 4,
      "note": 71,
      "start": 43.0193,
      "duration": 0.8203,
      "velocity": 98,
      "chip": "ym2612"
    },
    {
      "channel": 5,
      "note": 76,
      "start": 43.0228,
      "duration": 0.8168,
      "velocity": 98,
      "chip": "ym2612"
    },
    {
      "channel": 2,
      "note": 49,
      "start": 43.0266,
      "duration": 0.1631,
      "velocity": 106,
      "chip": "ym2612"
    },
    {
      "channel": 0,
      "note": 72,
      "start": 43.1264,
      "duration": 0.063,
      "velocity": 102,
      "chip": "ym2612"
    },
    {
      "channel": 1,
      "note": 76,
      "start": 43.1294,
      "duration": 0.0934,
      "velocity": 102,
      "chip": "ym2612"
    },
    {
      "channel": 0,
      "note": 71,
      "start": 43.2262,
      "duration": 0.0798,
      "velocity": 102,
      "chip": "ym2612"
    },
    {
      "channel": 2,
      "note": 76,
      "start": 43.2292,
      "duration": 0.0012,
      "velocity": 102,
      "chip": "ym2612"
    },
    {
      "channel": 2,
      "note": 49,
      "start": 43.2329,
      "duration": 0.1733,
      "velocity": 106,
      "chip": "ym2612"
    },
    {
      "channel": 1,
      "note": 72,
      "start": 43.343,
      "duration": 0.0629,
      "velocity": 102,
      "chip": "ym2612"
    },
    {
      "channel": 0,
      "note": 76,
      "start": 43.3461,
      "duration": 0.0932,
      "velocity": 102,
      "chip": "ym2612"
    },
    {
      "channel": 1,
      "note": 65,
      "start": 43.4426,
      "duration": 0.3967,
      "velocity": 102,
      "chip": "ym2612"
    },
    {
      "channel": 2,
      "note": 42,
      "start": 43.4465,
      "duration": 0.2098,
      "velocity": 125,
      "chip": "ym2612"
    },
    {
      "channel": 0,
      "note": 67,
      "start": 43.5595,
      "duration": 0.0632,
      "velocity": 102,
      "chip": "ym2612"
    },
    {
      "channel": 0,
      "note": 67,
      "start": 43.6596,
      "duration": 0.0798,
      "velocity": 102,
      "chip": "ym2612"
    },
    {
      "channel": 2,
      "note": 67,
      "start": 43.7764,
      "duration": 0.0634,
      "velocity": 102,
      "chip": "ym2612"
    },
    {
      "channel": 1,
      "note": 68,
      "start": 43.8757,
      "duration": 0.1136,
      "velocity": 102,
      "chip": "ym2612"
    },
    {
      "channel": 0,
      "note": 77,
      "start": 43.8785,
      "duration": 0.0609,
      "velocity": 102,
      "chip": "ym2612"
    },
    {
      "channel": 3,
      "note": 56,
      "start": 43.8815,
      "duration": 0.8247,
      "velocity": 116,
      "chip": "ym2612"
    },
    {
      "channel": 4,
      "note": 68,
      "start": 43.8857,
      "duration": 0.8206,
      "velocity": 98,
      "chip": "ym2612"
    },
    {
      "channel": 5,
      "note": 71,
      "start": 43.8892,
      "duration": 0.8172,
      "velocity": 98,
      "chip": "ym2612"
    },
    {
      "channel": 2,
      "note": 72,
      "start": 43.9933,
      "duration": 0.0629,
      "velocity": 102,
      "chip": "ym2612"
    },
    {
      "channel": 0,
      "note": 77,
      "start": 43.9963,
      "duration": 0.0929,
      "velocity": 102,
      "chip": "ym2612"
    },
    {
      "channel": 1,
      "note": 72,
      "start": 44.0931,
      "duration": 0.063,
      "velocity": 102,
      "chip": "ym2612"
    },
    {
      "channel": 2,
      "note": 77,
      "start": 44.096,
      "duration": 0.0015,
      "velocity": 102,
      "chip": "ym2612"
    },
    {
      "channel": 2,
      "note": 49,
      "start": 44.1002,
      "duration": 0.0561,
      "velocity": 95,
      "chip": "ym2612"
    },
    {
      "channel": 0,
      "note": 74,
      "start": 44.1935,
      "duration": 0.0791,
      "velocity": 102,
      "chip": "ym2612"
    },
    {
      "channel": 1,
      "note": 77,
      "start": 44.1966,
      "duration": 0.1093,
      "velocity": 102,
      "chip": "ym2612"
    },
    {
      "channel": 2,
      "note": 49,
      "start": 44.2005,
      "duration": 0.0724,
      "velocity": 95,
      "chip": "ym2612"
    },
    {
      "channel": 0,
      "note": 65,
      "start": 44.3095,
      "duration": 0.3965,
      "velocity": 102,
      "chip": "ym2612"
    },
    {
      "channel": 2,
      "note": 42,
      "start": 44.3134,
      "duration": 0.2094,
      "velocity": 125,
      "chip": "ym2612"
    },
    {
      "channel": 1,
      "note": 65,
      "start": 44.4095,
      "duration": 0.0798,
      "velocity": 102,
      "chip": "ym2612"
    },
    {
      "channel": 1,
      "note": 65,
      "start": 44.5261,
      "duration": 0.0633,
      "velocity": 102,
      "chip": "ym2612"
    },
    {
      "channel": 2,
      "note": 49,
      "start": 44.53,
      "duration": 0.0262,
      "velocity": 106,
      "chip": "ym2612"
    },
    {
      "channel": 2,
      "note": 65,
      "start": 44.6264,
      "duration": 0.0011,
      "velocity": 102,
      "chip": "ym2612"
    },
    {
      "channel": 2,
      "note": 49,
      "start": 44.6301,
      "duration": 0.0765,
      "velocity": 106,
      "chip": "ym2612"
    },
    {
      "channel": 0,
      "note": 78,
      "start": 44.7423,
      "duration": 0.0637,
      "velocity": 102,
      "chip": "ym2612"
    },
    {
      "channel": 1,
      "note": 72,
      "start": 44.745,
      "duration": 0.0611,
      "velocity": 102,
      "chip": "ym2612"
    },
    {
      "channel": 3,
      "note": 51,
      "start": 44.7484,
      "duration": 1.6745,
      "velocity": 116,
      "chip": "ym2612"
    },
    {
      "channel": 2,
      "note": 49,
      "start": 44.7528,
      "duration": 0.3702,
      "velocity": 106,
      "chip": "ym2612"
    },
    {
      "channel": 4,
      "note": 69,
      "start": 44.8428,
      "duration": 0.08,
      "velocity": 102,
      "chip": "ym2612"
    },
    {
      "channel": 5,
      "note": 72,
      "start": 44.8459,
      "duration": 0.1102,
      "velocity": 102,
      "chip": "ym2612"
    },
    {
      "channel": 0,
      "note": 81,
      "start": 44.9594,
      "duration": 0.0632,
      "velocity": 102,
      "chip": "ym2612"
    },
    {
      "channel": 1,
      "note": 72,
      "start": 44.9622,
      "duration": 0.0937,
      "velocity": 102,
      "chip": "ym2612"
    },
    {
      "channel": 4,
      "note": 69,
      "start": 45.0598,
      "duration": 0.063,
      "velocity": 102,
      "chip": "ym2612"
    },
    {
      "channel": 5,
      "note": 72,
      "start": 45.0629,
      "duration": 0.1099,
      "velocity": 102,
      "chip": "ym2612"
    },
    {
      "channel": 0,
      "note": 66,
      "start": 45.1759,
      "duration": 0.38,
      "velocity": 102,
      "chip": "ym2612"
    },
    {
      "channel": 1,
      "note": 42,
      "start": 45.1799,
      "duration": 0.1594,
      "velocity": 125,
      "chip": "ym2612"
    },
    {
      "channel": 4,
      "note": 66,
      "start": 45.2761,
      "duration": 0.0634,
      "velocity": 102,
      "chip": "ym2612"
    },
    {
      "channel": 2,
      "note": 66,
      "start": 45.3761,
      "duration": 0.08,
      "velocity": 102,
      "chip": "ym2612"
    },
    {
      "channel": 5,
      "note": 66,
      "start": 45.493,
      "duration": 0.0632,
      "velocity": 102,
      "chip": "ym2612"
    },
    {
      "channel": 0,
      "note": 78,
      "start": 45.5923,
      "duration": 0.1136,
      "velocity": 102,
      "chip": "ym2612"
    },
    {
      "channel": 1,
      "note": 73,
      "start": 45.5951,
      "duration": 0.0775,
      "velocity": 102,
      "chip": "ym2612"
    },
    {
      "channel": 4,
      "note": 70,
      "start": 45.5999,
      "duration": 0.8231,
      "velocity": 98,
      "chip": "ym2612"
    },
    {
      "channel": 2,
      "note": 75,
      "start": 45.6029,
      "duration": 0.6412,
      "velocity": 98,
      "chip": "ym2612"
    },
    {
      "channel": 5,
      "note": 70,
      "start": 45.7096,
      "duration": 0.0632,
      "velocity": 102,
      "chip": "ym2612"
    },
    {
      "channel": 1,
      "note": 73,
      "start": 45.7129,
      "duration": 0.0929,
      "velocity": 102,
      "chip": "ym2612"
    },
    {
      "channel": 0,
      "note": 82,
      "start": 45.8094,
      "duration": 0.0799,
      "velocity": 102,
      "chip": "ym2612"
    },
    {
      "channel": 5,
      "note": 73,
      "start": 45.8126,
      "duration": 0.1102,
      "velocity": 102,
      "chip": "ym2612"
    },
    {
      "channel": 1,
      "note": 42,
      "start": 45.8164,
      "duration": 0.2063,
      "velocity": 125,
      "chip": "ym2612"
    },
    {
      "channel": 0,
      "note": 70,
      "start": 45.9265,
      "duration": 0.0628,
      "velocity": 102,
      "chip": "ym2612"
    },
    {
      "channel": 5,
      "note": 73,
      "start": 45.9299,
      "duration": 0.0929,
      "velocity": 102,
      "chip": "ym2612"
    },
    {
      "channel": 0,
      "note": 66,
      "start": 46.0261,
      "duration": 0.3966,
      "velocity": 102,
      "chip": "ym2612"
    },
    {
      "channel": 1,
      "note": 33,
      "start": 46.0308,
      "duration": 0.0586,
      "velocity": 124,
      "chip": "ym2612"
    },
    {
      "channel": 5,
      "note": 63,
      "start": 46.1429,
      "duration": 0.0633,
      "velocity": 102,
      "chip": "ym2612"
    },
    {
      "channel": 1,
      "note": 34,
      "start": 46.1472,
      "duration": 0.0588,
      "velocity": 124,
      "chip": "ym2612"
    },
    {
      "channel": 1,
      "note": 66,
      "start": 46.2427,
      "duration": 0.0634,
      "velocity": 102,
      "chip": "ym2612"
    },
    {
      "channel": 2,
      "note": 49,
      "start": 46.2467,
      "duration": 0.0262,
      "velocity": 106,
      "chip": "ym2612"
    },
    {
      "channel": 5,
      "note": 66,
      "start": 46.3598,
      "duration": 0.0634,
      "velocity": 102,
      "chip": "ym2612"
    },
    {
      "channel": 2,
      "note": 49,
      "start": 46.3638,
      "duration": 0.0595,
      "velocity": 106,
      "chip": "ym2612"
    },
    {
      "channel": 0,
      "note": 77,
      "start": 46.4595,
      "duration": 0.0632,
      "velocity": 102,
      "chip": "ym2612"
    },
    {
      "channel": 1,
      "note": 74,
      "start": 46.4622,
      "duration": 0.0607,
      "velocity": 102,
      "chip": "ym2612"
    },
    {
      "channel": 3,
      "note": 53,
      "start": 46.4656,
      "duration": 0.8072,
      "velocity": 116,
      "chip": "ym2612"
    },
    {
      "channel": 4,
      "note": 69,
      "start": 46.4697,
      "duration": 0.8032,
      "velocity": 98,
      "chip": "ym2612"
    },
    {
      "channel": 5,
      "note": 74,
      "start": 46.4732,
      "duration": 0.7998,
      "velocity": 98,
      "chip": "ym2612"
    },
    {
      "channel": 2,
      "note": 49,
      "start": 46.4766,
      "duration": 0.163,
      "velocity": 106,
      "chip": "ym2612"
    },
    {
      "channel": 0,
      "note": 70,
      "start": 46.5596,
      "duration": 0.0798,
      "velocity": 102,
      "chip": "ym2612"
    },
    {
      "channel": 1,
      "note": 74,
      "start": 46.5626,
      "duration": 0.1101,
      "velocity": 102,
      "chip": "ym2612"
    },
    {
      "channel": 0,
      "note": 82,
      "start": 46.6761,
      "duration": 0.0633,
      "velocity": 102,
      "chip": "ym2612"
    },
    {
      "channel": 2,
      "note": 74,
      "start": 46.679,
      "duration": 0.0011,
      "velocity": 102,
      "chip": "ym2612"
    },
    {
      "channel": 2,
      "note": 49,
      "start": 46.6828,
      "duration": 0.1735,
      "velocity": 106,
      "chip": "ym2612"
    },
    {
      "channel": 1,
      "note": 70,
      "start": 46.7764,
      "duration": 0.0795,
      "velocity": 102,
      "chip": "ym2612"
    },
    {
      "channel": 0,
      "note": 74,
      "start": 46.7795,
      "duration": 0.1098,
      "velocity": 102,
      "chip": "ym2612"
    },
    {
      "channel": 1,
      "note": 68,
      "start": 46.8926,
      "duration": 0.38,
      "velocity": 102,
      "chip": "ym2612"
    },
    {
      "channel": 2,
      "note": 42,
      "start": 46.8965,
      "duration": 0.2098,
      "velocity": 125,
      "chip": "ym2612"
    },
    {
      "channel": 0,
      "note": 65,
      "start": 46.9929,
      "duration": 0.0797,
      "velocity": 102,
      "chip": "ym2612"
    },
    {
      "channel": 0,
      "note": 68,
      "start": 47.1095,
      "duration": 0.0632,
      "velocity": 102,
      "chip": "ym2612"
    },
    {
      "channel": 2,
      "note": 65,
      "start": 47.2097,
      "duration": 0.0634,
      "velocity": 102,
      "chip": "ym2612"
    },
    {
      "channel": 1,
      "note": 78,
      "start": 47.3258,
      "duration": 0.0969,
      "velocity": 102,
      "chip": "ym2612"
    },
    {
      "channel": 0,
      "note": 75,
      "start": 47.3287,
      "duration": 0.0607,
      "velocity": 102,
      "chip": "ym2612"
    },
    {
      "channel": 3,
      "note": 54,
      "start": 47.3317,
      "duration": 0.8079,
      "velocity": 116,
      "chip": "ym2612"
    },
    {
      "channel": 4,
      "note": 63,
      "start": 47.3363,
      "duration": 0.6697,
      "velocity": 98,
      "chip": "ym2612"
    },
    {
      "channel": 5,
      "note": 72,
      "start": 47.34,
      "duration": 0.6161,
      "velocity": 98,
      "chip": "ym2612"
    },
    {
      "channel": 2,
      "note": 70,
      "start": 47.4263,
      "duration": 0.0632,
      "velocity": 102,
      "chip": "ym2612"
    },
    {
      "channel": 0,
      "note": 75,
      "start": 47.4298,
      "duration": 0.1095,
      "velocity": 102,
      "chip": "ym2612"
    },
    {
      "channel": 1,
      "note": 82,
      "start": 47.5427,
      "duration": 0.0634,
      "velocity": 102,
      "chip": "ym2612"
    },
    {
      "channel": 2,
      "note": 75,
      "start": 47.546,
      "duration": 0.0015,
      "velocity": 102,
      "chip": "ym2612"
    },
    {
      "channel": 2,
      "note": 49,
      "start": 47.5502,
      "duration": 0.0561,
      "velocity": 95,
      "chip": "ym2612"
    },
    {
      "channel": 0,
      "note": 72,
      "start": 47.6431,
      "duration": 0.0628,
      "velocity": 102,
      "chip": "ym2612"
    },
    {
      "channel": 1,
      "note": 75,
      "start": 47.6465,
      "duration": 0.0927,
      "velocity": 102,
      "chip": "ym2612"
    },
    {
      "channel": 2,
      "note": 49,
      "start": 47.6505,
      "duration": 0.0559,
      "velocity": 95,
      "chip": "ym2612"
    },
    {
      "channel": 0,
      "note": 70,
      "start": 47.7425,
      "duration": 0.3969,
      "velocity": 102,
      "chip": "ym2612"
    },
    {
      "channel": 2,
      "note": 42,
      "start": 47.7464,
      "duration": 0.1147,
      "velocity": 125,
      "chip": "ym2612"
    },
    {
      "channel": 1,
      "note": 63,
      "start": 47.8595,
      "duration": 0.0632,
      "velocity": 102,
      "chip": "ym2612"
    },
    {
      "channel": 2,
      "note": 49,
      "start": 47.8637,
      "duration": 0.0593,
      "velocity": 95,
      "chip": "ym2612"
    },
    {
      "channel": 1,
      "note": 70,
      "start": 47.9594,
      "duration": 0.0799,
      "velocity": 102,
      "chip": "ym2612"
    },
    {
      "channel": 2,
      "note": 49,
      "start": 47.9633,
      "duration": 0.043,
      "velocity": 106,
      "chip": "ym2612"
    },
    {
      "channel": 5,
      "note": 63,
      "start": 48.0764,
      "duration": 0.0633,
      "velocity": 102,
      "chip": "ym2612"
    },
    {
      "channel": 2,
      "note": 49,
      "start": 48.08,
      "duration": 0.0599,
      "velocity": 106,
      "chip": "ym2612"
    },
    {
      "channel": 0,
      "note": 83,
      "start": 48.1761,
      "duration": 0.08,
      "velocity": 102,
      "chip": "ym2612"
    },
    {
      "channel": 4,
      "note": 76,
      "start": 48.1787,
      "duration": 0.0775,
      "velocity": 102,
      "chip": "ym2612"
    },
    {
      "channel": 3,
      "note": 49,
      "start": 48.1825,
      "duration": 1.6737,
      "velocity": 116,
      "chip": "ym2612"
    },
    {
      "channel": 2,
      "note": 49,
      "start": 48.1866,
      "duration": 0.3864,
      "velocity": 106,
      "chip": "ym2612"
    },
    {
      "channel": 1,
      "note": 79,
      "start": 48.2928,
      "duration": 0.0632,
      "velocity": 102,
      "chip": "ym2612"
    },
    {
      "channel": 5,
      "note": 75,
      "start": 48.2959,
      "duration": 0.0936,
      "velocity": 102,
      "chip": "ym2612"
    },
    {
      "channel": 0,
      "note": 79,
      "start": 48.3929,
      "duration": 0.063,
      "velocity": 102,
      "chip": "ym2612"
    },
    {
      "channel": 4,
      "note": 70,
      "start": 48.3956,
      "duration": 0.1104,
      "velocity": 102,
      "chip": "ym2612"
    },
    {
      "channel": 1,
      "note": 79,
      "start": 48.5098,
      "duration": 0.0628,
      "velocity": 102,
      "chip": "ym2612"
    },
    {
      "channel": 5,
      "note": 70,
      "start": 48.5129,
      "duration": 0.0931,
      "velocity": 102,
      "chip": "ym2612"
    },
    {
      "channel": 0,
      "note": 73,
      "start": 48.6092,
      "duration": 0.3967,
      "velocity": 102,
      "chip": "ym2612"
    },
    {
      "channel": 4,
      "note": 42,
      "start": 48.6133,
      "duration": 0.1762,
      "velocity": 125,
      "chip": "ym2612"
    },
    {
      "channel": 1,
      "note": 73,
      "start": 48.7262,
      "duration": 0.0631,
      "velocity": 102,
      "chip": "ym2612"
    },
    {
      "channel": 2,
      "note": 64,
      "start": 48.8261,
      "duration": 0.0634,
      "velocity": 102,
      "chip": "ym2612"
    },
    {
      "channel": 5,
      "note": 64,
      "start": 48.9263,
      "duration": 0.08,
      "velocity": 102,
      "chip": "ym2612"
    },
    {
      "channel": 0,
      "note": 83,
      "start": 49.0423,
      "duration": 0.0971,
      "velocity": 102,
      "chip": "ym2612"
    },
    {
      "channel": 1,
      "note": 78,
      "start": 49.0451,
      "duration": 0.061,
      "velocity": 102,
      "chip": "ym2612"
    },
    {
      "channel": 4,
      "note": 80,
      "start": 49.0502,
      "duration": 0.8062,
      "velocity": 98,
      "chip": "ym2612"
    },
    {
      "channel": 2,
      "note": 85,
      "start": 49.0535,
      "duration": 0.6413,
      "velocity": 98,
      "chip": "ym2612"
    },
    {
      "channel": 5,
      "note": 80,
      "start": 49.143,
      "duration": 0.0798,
      "velocity": 102,
      "chip": "ym2612"
    },
    {
      "channel": 1,
      "note": 76,
      "start": 49.146,
      "duration": 0.11,
      "velocity": 102,
      "chip": "ym2612"
    },
    {
      "channel": 0,
      "note": 80,
      "start": 49.2595,
      "duration": 0.0631,
      "velocity": 102,
      "chip": "ym2612"
    },
    {
      "channel": 5,
      "note": 71,
      "start": 49.2623,
      "duration": 0.0939,
      "velocity": 102,
      "chip": "ym2612"
    },
    {
      "channel": 1,
      "note": 42,
      "start": 49.2661,
      "duration": 0.2065,
      "velocity": 125,
      "chip": "ym2612"
    },
    {
      "channel": 0,
      "note": 80,
      "start": 49.3598,
      "duration": 0.0794,
      "velocity": 102,
      "chip": "ym2612"
    },
    {
      "channel": 5,
      "note": 71,
      "start": 49.3629,
      "duration": 0.11,
      "velocity": 102,
      "chip": "ym2612"
    },
    {
      "channel": 0,
      "note": 73,
      "start": 49.4761,
      "duration": 0.38,
      "velocity": 102,
      "chip": "ym2612"
    },
    {
      "channel": 1,
      "note": 33,
      "start": 49.481,
      "duration": 0.0585,
      "velocity": 124,
      "chip": "ym2612"
    },
    {
      "channel": 5,
      "note": 73,
      "start": 49.5766,
      "duration": 0.063,
      "velocity": 102,
      "chip": "ym2612"
    },
    {
      "channel": 1,
      "note": 34,
      "start": 49.5809,
      "duration": 0.0584,
      "velocity": 124,
      "chip": "ym2612"
    },
    {
      "channel": 1,
      "note": 64,
      "start": 49.693,
      "duration": 0.063,
      "velocity": 102,
      "chip": "ym2612"
    },
    {
      "channel": 2,
      "note": 49,
      "start": 49.6974,
      "duration": 0.0254,
      "velocity": 106,
      "chip": "ym2612"
    },
    {
      "channel": 5,
      "note": 66,
      "start": 49.7935,
      "duration": 0.063,
      "velocity": 102,
      "chip": "ym2612"
    },
    {
      "channel": 2,
      "note": 49,
      "start": 49.7971,
      "duration": 0.0595,
      "velocity": 106,
      "chip": "ym2612"
    },
    {
      "channel": 0,
      "note": 83,
      "start": 49.9095,
      "duration": 0.0633,
      "velocity": 102,
      "chip": "ym2612"
    },
    {
      "channel": 1,
      "note": 79,
      "start": 49.9121,
      "duration": 0.0607,
      "velocity": 102,
      "chip": "ym2612"
    },
    {
      "channel": 3,
      "note": 51,
      "start": 49.9155,
      "duration": 0.8073,
      "velocity": 116,
      "chip": "ym2612"
    },
    {
      "channel": 4,
      "note": 79,
      "start": 49.9196,
      "duration": 0.8034,
      "velocity": 98,
      "chip": "ym2612"
    },
    {
      "channel": 5,
      "note": 84,
      "start": 49.9232,
      "duration": 0.7999,
      "velocity": 98,
      "chip": "ym2612"
    },
    {
      "channel": 2,
      "note": 49,
      "start": 49.9266,
      "duration": 0.1464,
      "velocity": 106,
      "chip": "ym2612"
    },
    {
      "channel": 0,
      "note": 82,
      "start": 50.0096,
      "duration": 0.0632,
      "velocity": 102,
      "chip": "ym2612"
    },
    {
      "channel": 1,
      "note": 76,
      "start": 50.0126,
      "duration": 0.0934,
      "velocity": 102,
      "chip": "ym2612"
    },
    {
      "channel": 0,
      "note": 80,
      "start": 50.1095,
      "duration": 0.0799,
      "velocity": 102,
      "chip": "ym2612"
    },
    {
      "channel": 2,
      "note": 72,
      "start": 50.1124,
      "duration": 0.0011,
      "velocity": 102,
      "chip": "ym2612"
    },
    {
      "channel": 2,
      "note": 49,
      "start": 50.1162,
      "duration": 0.1734,
      "velocity": 106,
      "chip": "ym2612"
    },
    {
      "channel": 1,
      "note": 82,
      "start": 50.2265,
      "duration": 0.0627,
      "velocity": 102,
      "chip": "ym2612"
    },
    {
      "channel": 0,
      "note": 72,
      "start": 50.2295,
      "duration": 0.0931,
      "velocity": 102,
      "chip": "ym2612"
    },
    {
      "channel": 1,
      "note": 71,
      "start": 50.3259,
      "duration": 0.3968,
      "velocity": 102,
      "chip": "ym2612"
    },
    {
      "channel": 2,
      "note": 42,
      "start": 50.3298,
      "duration": 0.2098,
      "velocity": 125,
      "chip": "ym2612"
    },
    {
      "channel": 0,
      "note": 71,
      "start": 50.4427,
      "duration": 0.0632,
      "velocity": 102,
      "chip": "ym2612"
    },
    {
      "channel": 0,
      "note": 66,
      "start": 50.5429,
      "duration": 0.0798,
      "velocity": 102,
      "chip": "ym2612"
    },
    {
      "channel": 2,
      "note": 67,
      "start": 50.6598,
      "duration": 0.0635,
      "velocity": 102,
      "chip": "ym2612"
    },
    {
      "channel": 1,
      "note": 83,
      "start": 50.759,
      "duration": 0.1137,
      "velocity": 102,
      "chip": "ym2612"
    },
    {
      "channel": 0,
      "note": 80,
      "start": 50.7619,
      "duration": 0.0608,
      "velocity": 102,
      "chip": "ym2612"
    },
    {
      "channel": 3,
      "note": 52,
      "start": 50.7649,
      "duration": 0.8246,
      "velocity": 116,
      "chip": "ym2612"
    },
    {
      "channel": 4,
      "note": 77,
      "start": 50.769,
      "duration": 0.8205,
      "velocity": 98,
      "chip": "ym2612"
    },
    {
      "channel": 5,
      "note": 73,
      "start": 50.7726,
      "duration": 0.8171,
      "velocity": 98,
      "chip": "ym2612"
    },
    {
      "channel": 2,
      "note": 83,
      "start": 50.8764,
      "duration": 0.0631,
      "velocity": 102,
      "chip": "ym2612"
    },
    {
      "channel": 0,
      "note": 75,
      "start": 50.8794,
      "duration": 0.0931,
      "velocity": 102,
      "chip": "ym2612"
    },
    {
      "channel": 1,
      "note": 80,
      "start": 50.9761,
      "duration": 0.0634,
      "velocity": 102,
      "chip": "ym2612"
    },
    {
      "channel": 2,
      "note": 73,
      "start": 50.9789,
      "duration": 0.0015,
      "velocity": 102,
      "chip": "ym2612"
    },
    {
      "channel": 2,
      "note": 49,
      "start": 50.9832,
      "duration": 0.0566,
      "velocity": 95,
      "chip": "ym2612"
    },
    {
      "channel": 0,
      "note": 83,
      "start": 51.093,
      "duration": 0.0629,
      "velocity": 102,
      "chip": "ym2612"
    },
    {
      "channel": 1,
      "note": 73,
      "start": 51.0961,
      "duration": 0.0931,
      "velocity": 102,
      "chip": "ym2612"
    },
    {
      "channel": 2,
      "note": 49,
      "start": 51.1,
      "duration": 0.0563,
      "velocity": 95,
      "chip": "ym2612"
    },
    {
      "channel": 0,
      "note": 68,
      "start": 51.1925,
      "duration": 0.3967,
      "velocity": 102,
      "chip": "ym2612"
    },
    {
      "channel": 2,
      "note": 42,
      "start": 51.1964,
      "duration": 0.2098,
      "velocity": 125,
      "chip": "ym2612"
    },
    {
      "channel": 1,
      "note": 68,
      "start": 51.2929,
      "duration": 0.0797,
      "velocity": 102,
      "chip": "ym2612"
    },
    {
      "channel": 1,
      "note": 68,
      "start": 51.4096,
      "duration": 0.063,
      "velocity": 102,
      "chip": "ym2612"
    },
    {
      "channel": 2,
      "note": 49,
      "start": 51.4135,
      "duration": 0.0261,
      "velocity": 106,
      "chip": "ym2612"
    },
    {
      "channel": 2,
      "note": 68,
      "start": 51.5098,
      "duration": 0.0011,
      "velocity": 102,
      "chip": "ym2612"
    },
    {
      "channel": 2,
      "note": 49,
      "start": 51.5135,
      "duration": 0.0763,
      "velocity": 106,
      "chip": "ym2612"
    },
    {
      "channel": 0,
      "note": 70,
      "start": 51.6266,
      "duration": 0.0629,
      "velocity": 102,
      "chip": "ym2612"
    },
    {
      "channel": 1,
      "note": 63,
      "start": 51.6292,
      "duration": 0.0603,
      "velocity": 102,
      "chip": "ym2612"
    },
    {
      "channel": 3,
      "note": 48,
      "start": 51.6374,
      "duration": 0.0523,
      "velocity": 94,
      "chip": "ym2612"
    },
    {
      "channel": 4,
      "note": 48,
      "start": 51.6413,
      "duration": 3.3483,
      "velocity": 116,
      "chip": "ym2612"
    },
    {
      "channel": 2,
      "note": 49,
      "start": 51.6473,
      "duration": 0.3591,
      "velocity": 106,
      "chip": "ym2612"
    },
    {
      "channel": 5,
      "note": 70,
      "start": 51.7264,
      "duration": 0.0798,
      "velocity": 102,
      "chip": "ym2612"
    },
    {
      "channel": 0,
      "note": 63,
      "start": 51.7295,
      "duration": 0.1099,
      "velocity": 102,
      "chip": "ym2612"
    },
    {
      "channel": 3,
      "note": 51,
      "start": 51.7322,
      "duration": 0.0739,
      "velocity": 94,
      "chip": "ym2612"
    },
    {
      "channel": 1,
      "note": 70,
      "start": 51.843,
      "duration": 0.0629,
      "velocity": 102,
      "chip": "ym2612"
    },
    {
      "channel": 3,
      "note": 63,
      "start": 51.8459,
      "duration": 0.0934,
      "velocity": 102,
      "chip": "ym2612"
    },
    {
      "channel": 5,
      "note": 55,
      "start": 51.849,
      "duration": 0.0572,
      "velocity": 94,
      "chip": "ym2612"
    },
    {
      "channel": 0,
      "note": 70,
      "start": 51.9432,
      "duration": 0.0627,
      "velocity": 102,
      "chip": "ym2612"
    },
    {
      "channel": 1,
      "note": 63,
      "start": 51.9463,
      "duration": 0.1098,
      "velocity": 102,
      "chip": "ym2612"
    },
    {
      "channel": 5,
      "note": 62,
      "start": 51.9489,
      "duration": 0.0573,
      "velocity": 94,
      "chip": "ym2612"
    },
    {
      "channel": 3,
      "note": 60,
      "start": 52.0594,
      "duration": 0.38,
      "velocity": 102,
      "chip": "ym2612"
    },
    {
      "channel": 5,
      "note": 60,
      "start": 52.0626,
      "duration": 0.8104,
      "velocity": 94,
      "chip": "ym2612"
    },
    {
      "channel": 0,
      "note": 42,
      "start": 52.0662,
      "duration": 0.1564,
      "velocity": 125,
      "chip": "ym2612"
    },
    {
      "channel": 2,
      "note": 60,
      "start": 52.1595,
      "duration": 0.0635,
      "velocity": 102,
      "chip": "ym2612"
    },
    {
      "channel": 1,
      "note": 60,
      "start": 52.2761,
      "duration": 0.0632,
      "velocity": 102,
      "chip": "ym2612"
    },
    {
      "channel": 0,
      "note": 60,
      "start": 52.3764,
      "duration": 0.0627,
      "velocity": 102,
      "chip": "ym2612"
    },
    {
      "channel": 3,
      "note": 71,
      "start": 52.4757,
      "duration": 0.1135,
      "velocity": 102,
      "chip": "ym2612"
    },
    {
      "channel": 2,
      "note": 67,
      "start": 52.4786,
      "duration": 0.0775,
      "velocity": 102,
      "chip": "ym2612"
    },
    {
      "channel": 1,
      "note": 71,
      "start": 52.5929,
      "duration": 0.063,
      "velocity": 102,
      "chip": "ym2612"
    },
    {
      "channel": 0,
      "note": 67,
      "start": 52.5963,
      "duration": 0.0929,
      "velocity": 102,
      "chip": "ym2612"
    },
    {
      "channel": 2,
      "note": 71,
      "start": 52.6927,
      "duration": 0.08,
      "velocity": 102,
      "chip": "ym2612"
    },
    {
      "channel": 3,
      "note": 67,
      "start": 52.696,
      "duration": 0.1099,
      "velocity": 102,
      "chip": "ym2612"
    },
    {
      "channel": 1,
      "note": 42,
      "start": 52.6998,
      "duration": 0.2062,
      "velocity": 125,
      "chip": "ym2612"
    },
    {
      "channel": 0,
      "note": 71,
      "start": 52.8097,
      "duration": 0.0629,
      "velocity": 102,
      "chip": "ym2612"
    },
    {
      "channel": 2,
      "note": 67,
      "start": 52.8132,
      "duration": 0.093,
      "velocity": 102,
      "chip": "ym2612"
    },
    {
      "channel": 3,
      "note": 60,
      "start": 52.9094,
      "duration": 0.3968,
      "velocity": 102,
      "chip": "ym2612"
    },
    {
      "channel": 0,
      "note": 33,
      "start": 52.9141,
      "duration": 0.0752,
      "velocity": 124,
      "chip": "ym2612"
    },
    {
      "channel": 5,
      "note": 60,
      "start": 53.0262,
      "duration": 0.0634,
      "velocity": 102,
      "chip": "ym2612"
    },
    {
      "channel": 0,
      "note": 34,
      "start": 53.0305,
      "duration": 0.0588,
      "velocity": 124,
      "chip": "ym2612"
    },
    {
      "channel": 1,
      "note": 55,
      "start": 53.0933,
      "duration": 0.2461,
      "velocity": 94,
      "chip": "ym2612"
    },
    {
      "channel": 2,
      "note": 60,
      "start": 53.1262,
      "duration": 0.0013,
      "velocity": 102,
      "chip": "ym2612"
    },
    {
      "channel": 2,
      "note": 49,
      "start": 53.1302,
      "duration": 0.0261,
      "velocity": 106,
      "chip": "ym2612"
    },
    {
      "channel": 0,
      "note": 60,
      "start": 53.2432,
      "duration": 0.0628,
      "velocity": 102,
      "chip": "ym2612"
    },
    {
      "channel": 2,
      "note": 49,
      "start": 53.2468,
      "duration": 0.0597,
      "velocity": 106,
      "chip": "ym2612"
    },
    {
      "channel": 3,
      "note": 70,
      "start": 53.343,
      "duration": 0.0632,
      "velocity": 102,
      "chip": "ym2612"
    },
    {
      "channel": 5,
      "note": 66,
      "start": 53.3457,
      "duration": 0.0606,
      "velocity": 102,
      "chip": "ym2612"
    },
    {
      "channel": 1,
      "note": 58,
      "start": 53.3488,
      "duration": 0.8239,
      "velocity": 94,
      "chip": "ym2612"
    },
    {
      "channel": 2,
      "note": 49,
      "start": 53.3524,
      "duration": 0.1707,
      "velocity": 106,
      "chip": "ym2612"
    },
    {
      "channel": 0,
      "note": 70,
      "start": 53.4595,
      "duration": 0.0632,
      "velocity": 102,
      "chip": "ym2612"
    },
    {
      "channel": 3,
      "note": 66,
      "start": 53.4626,
      "duration": 0.0935,
      "velocity": 102,
      "chip": "ym2612"
    },
    {
      "channel": 5,
      "note": 70,
      "start": 53.5595,
      "duration": 0.0633,
      "velocity": 102,
      "chip": "ym2612"
    },
    {
      "channel": 0,
      "note": 66,
      "start": 53.5624,
      "duration": 0.0935,
      "velocity": 102,
      "chip": "ym2612"
    },
    {
      "channel": 2,
      "note": 49,
      "start": 53.5661,
      "duration": 0.1734,
      "velocity": 106,
      "chip": "ym2612"
    },
    {
      "channel": 3,
      "note": 70,
      "start": 53.6598,
      "duration": 0.0795,
      "velocity": 102,
      "chip": "ym2612"
    },
    {
      "channel": 5,
      "note": 66,
      "start": 53.6629,
      "duration": 0.1099,
      "velocity": 102,
      "chip": "ym2612"
    },
    {
      "channel": 0,
      "note": 60,
      "start": 53.7759,
      "duration": 0.3967,
      "velocity": 102,
      "chip": "ym2612"
    },
    {
      "channel": 3,
      "note": 42,
      "start": 53.7797,
      "duration": 0.2097,
      "velocity": 125,
      "chip": "ym2612"
    },
    {
      "channel": 2,
      "note": 60,
      "start": 53.8761,
      "duration": 0.0801,
      "velocity": 102,
      "chip": "ym2612"
    },
    {
      "channel": 5,
      "note": 60,
      "start": 53.9929,
      "duration": 0.0634,
      "velocity": 102,
      "chip": "ym2612"
    },
    {
      "channel": 2,
      "note": 60,
      "start": 54.093,
      "duration": 0.0799,
      "velocity": 102,
      "chip": "ym2612"
    },
    {
      "channel": 0,
      "note": 71,
      "start": 54.209,
      "duration": 0.0969,
      "velocity": 102,
      "chip": "ym2612"
    },
    {
      "channel": 3,
      "note": 63,
      "start": 54.2119,
      "duration": 0.0609,
      "velocity": 102,
      "chip": "ym2612"
    },
    {
      "channel": 5,
      "note": 71,
      "start": 54.3096,
      "duration": 0.0632,
      "velocity": 102,
      "chip": "ym2612"
    },
    {
      "channel": 1,
      "note": 63,
      "start": 54.3126,
      "duration": 0.11,
      "velocity": 102,
      "chip": "ym2612"
    },
    {
      "channel": 2,
      "note": 71,
      "start": 54.4262,
      "duration": 0.0044,
      "velocity": 102,
      "chip": "ym2612"
    },
    {
      "channel": 3,
      "note": 63,
      "start": 54.429,
      "duration": 0.0938,
      "velocity": 102,
      "chip": "ym2612"
    },
    {
      "channel": 2,
      "note": 49,
      "start": 54.4332,
      "duration": 0.0564,
      "velocity": 95,
      "chip": "ym2612"
    },
    {
      "channel": 0,
      "note": 71,
      "start": 54.5266,
      "duration": 0.0629,
      "velocity": 102,
      "chip": "ym2612"
    },
    {
      "channel": 5,
      "note": 63,
      "start": 54.5297,
      "duration": 0.0932,
      "velocity": 102,
      "chip": "ym2612"
    },
    {
      "channel": 2,
      "note": 49,
      "start": 54.5336,
      "duration": 0.0562,
      "velocity": 95,
      "chip": "ym2612"
    },
    {
      "channel": 1,
      "note": 60,
      "start": 54.626,
      "duration": 0.3968,
      "velocity": 102,
      "chip": "ym2612"
    },
    {
      "channel": 3,
      "note": 42,
      "start": 54.6299,
      "duration": 0.2096,
      "velocity": 125,
      "chip": "ym2612"
    },
    {
      "channel": 0,
      "note": 60,
      "start": 54.7434,
      "duration": 0.0626,
      "velocity": 102,
      "chip": "ym2612"
    },
    {
      "channel": 2,
      "note": 49,
      "start": 54.7476,
      "duration": 0.0587,
      "velocity": 95,
      "chip": "ym2612"
    },
    {
      "channel": 5,
      "note": 60,
      "start": 54.8435,
      "duration": 0.0796,
      "velocity": 102,
      "chip": "ym2612"
    },
    {
      "channel": 2,
      "note": 49,
      "start": 54.8478,
      "duration": 0.0418,
      "velocity": 106,
      "chip": "ym2612"
    },
    {
      "channel": 0,
      "note": 60,
      "start": 54.9604,
      "duration": 0.0623,
      "velocity": 102,
      "chip": "ym2612"
    },
    {
      "channel": 2,
      "note": 49,
      "start": 54.964,
      "duration": 0.0591,
      "velocity": 106,
      "chip": "ym2612"
    },
    {
      "channel": 1,
      "note": 70,
      "start": 55.0606,
      "duration": 0.0788,
      "velocity": 102,
      "chip": "ym2612"
    },
    {
      "channel": 3,
      "note": 63,
      "start": 55.0633,
      "duration": 0.0763,
      "velocity": 102,
      "chip": "ym2612"
    },
    {
      "channel": 5,
      "note": 48,
      "start": 55.0703,
      "duration": 0.0695,
      "velocity": 94,
      "chip": "ym2612"
    },
    {
      "channel": 4,
      "note": 44,
      "start": 55.0738,
      "duration": 3.3657,
      "velocity": 116,
      "chip": "ym2612"
    },
    {
      "channel": 2,
      "note": 49,
      "start": 55.0785,
      "duration": 0.3779,
      "velocity": 106,
      "chip": "ym2612"
    },
    {
      "channel": 0,
      "note": 70,
      "start": 55.1764,
      "duration": 0.063,
      "velocity": 102,
      "chip": "ym2612"
    },
    {
      "channel": 1,
      "note": 63,
      "start": 55.1794,
      "duration": 0.0933,
      "velocity": 102,
      "chip": "ym2612"
    },
    {
      "channel": 5,
      "note": 51,
      "start": 55.1822,
      "duration": 0.0574,
      "velocity": 94,
      "chip": "ym2612"
    },
    {
      "channel": 3,
      "note": 70,
      "start": 55.2764,
      "duration": 0.0796,
      "velocity": 102,
      "chip": "ym2612"
    },
    {
      "channel": 0,
      "note": 63,
      "start": 55.2793,
      "duration": 0.11,
      "velocity": 102,
      "chip": "ym2612"
    },
    {
      "channel": 5,
      "note": 55,
      "start": 55.282,
      "duration": 0.0742,
      "velocity": 94,
      "chip": "ym2612"
    },
    {
      "channel": 1,
      "note": 70,
      "start": 55.3934,
      "duration": 0.0627,
      "velocity": 102,
      "chip": "ym2612"
    },
    {
      "channel": 3,
      "note": 63,
      "start": 55.3964,
      "duration": 0.0929,
      "velocity": 102,
      "chip": "ym2612"
    },
    {
      "channel": 5,
      "note": 62,
      "start": 55.3994,
      "duration": 0.0569,
      "velocity": 94,
      "chip": "ym2612"
    },
    {
      "channel": 0,
      "note": 60,
      "start": 55.4925,
      "duration": 0.3967,
      "velocity": 102,
      "chip": "ym2612"
    },
    {
      "channel": 5,
      "note": 60,
      "start": 55.4958,
      "duration": 0.8271,
      "velocity": 94,
      "chip": "ym2612"
    },
    {
      "channel": 1,
      "note": 42,
      "start": 55.4994,
      "duration": 0.1733,
      "velocity": 125,
      "chip": "ym2612"
    },
    {
      "channel": 2,
      "note": 60,
      "start": 55.6095,
      "duration": 0.0634,
      "velocity": 102,
      "chip": "ym2612"
    },
    {
      "channel": 3,
      "note": 60,
      "start": 55.7095,
      "duration": 0.0633,
      "velocity": 102,
      "chip": "ym2612"
    },
    {
      "channel": 1,
      "note": 60,
      "start": 55.8096,
      "duration": 0.0797,
      "velocity": 102,
      "chip": "ym2612"
    },
    {
      "channel": 0,
      "note": 71,
      "start": 55.9257,
      "duration": 0.0968,
      "velocity": 102,
      "chip": "ym2612"
    },
    {
      "channel": 2,
      "note": 67,
      "start": 55.9287,
      "duration": 0.0609,
      "velocity": 102,
      "chip": "ym2612"
    },
    {
      "channel": 3,
      "note": 71,
      "start": 56.0262,
      "duration": 0.0797,
      "velocity": 102,
      "chip": "ym2612"
    },
    {
      "channel": 1,
      "note": 67,
      "start": 56.0293,
      "duration": 0.1099,
      "velocity": 102,
      "chip": "ym2612"
    },
    {
      "channel": 2,
      "note": 71,
      "start": 56.1427,
      "duration": 0.0634,
      "velocity": 102,
      "chip": "ym2612"
    },
    {
      "channel": 0,
      "note": 67,
      "start": 56.1456,
      "duration": 0.0937,
      "velocity": 102,
      "chip": "ym2612"
    },
    {
      "channel": 3,
      "note": 42,
      "start": 56.1494,
      "duration": 0.2066,
      "velocity": 125,
      "chip": "ym2612"
    },
    {
      "channel": 1,
      "note": 71,
      "start": 56.2432,
      "duration": 0.0796,
      "velocity": 102,
      "chip": "ym2612"
    },
    {
      "channel": 2,
      "note": 67,
      "start": 56.2462,
      "duration": 0.11,
      "velocity": 102,
      "chip": "ym2612"
    },
    {
      "channel": 0,
      "note": 60,
      "start": 56.3595,
      "duration": 0.38,
      "velocity": 102,
      "chip": "ym2612"
    },
    {
      "channel": 1,
      "note": 33,
      "start": 56.3644,
      "duration": 0.0584,
      "velocity": 124,
      "chip": "ym2612"
    },
    {
      "channel": 5,
      "note": 60,
      "start": 56.46,
      "duration": 0.0796,
      "velocity": 102,
      "chip": "ym2612"
    },
    {
      "channel": 1,
      "note": 34,
      "start": 56.4643,
      "duration": 0.0751,
      "velocity": 124,
      "chip": "ym2612"
    },
    {
      "channel": 3,
      "note": 55,
      "start": 56.5434,
      "duration": 0.246,
      "velocity": 94,
      "chip": "ym2612"
    },
    {
      "channel": 2,
      "note": 60,
      "start": 56.5764,
      "duration": 0.0013,
      "velocity": 102,
      "chip": "ym2612"
    },
    {
      "channel": 2,
      "note": 49,
      "start": 56.5804,
      "duration": 0.0258,
      "velocity": 106,
      "chip": "ym2612"
    },
    {
      "channel": 1,
      "note": 60,
      "start": 56.6768,
      "duration": 0.0627,
      "velocity": 102,
      "chip": "ym2612"
    },
    {
      "channel": 2,
      "note": 49,
      "start": 56.6804,
      "duration": 0.0594,
      "velocity": 106,
      "chip": "ym2612"
    },
    {
      "channel": 0,
      "note": 70,
      "start": 56.7928,
      "duration": 0.0634,
      "velocity": 102,
      "chip": "ym2612"
    },
    {
      "channel": 5,
      "note": 66,
      "start": 56.7955,
      "duration": 0.061,
      "velocity": 102,
      "chip": "ym2612"
    },
    {
      "channel": 3,
      "note": 51,
      "start": 56.7984,
      "duration": 0.241,
      "velocity": 94,
      "chip": "ym2612"
    },
    {
      "channel": 2,
      "note": 49,
      "start": 56.8021,
      "duration": 0.1542,
      "velocity": 106,
      "chip": "ym2612"
    },
    {
      "channel": 1,
      "note": 70,
      "start": 56.8929,
      "duration": 0.0632,
      "velocity": 102,
      "chip": "ym2612"
    },
    {
      "channel": 0,
      "note": 66,
      "start": 56.8959,
      "duration": 0.0934,
      "velocity": 102,
      "chip": "ym2612"
    },
    {
      "channel": 5,
      "note": 70,
      "start": 56.9929,
      "duration": 0.08,
      "velocity": 102,
      "chip": "ym2612"
    },
    {
      "channel": 1,
      "note": 66,
      "start": 56.9957,
      "duration": 0.1102,
      "velocity": 102,
      "chip": "ym2612"
    },
    {
      "channel": 2,
      "note": 49,
      "start": 56.9995,
      "duration": 0.1734,
      "velocity": 106,
      "chip": "ym2612"
    },
    {
      "channel": 0,
      "note": 70,
      "start": 57.1097,
      "duration": 0.0629,
      "velocity": 102,
      "chip": "ym2612"
    },
    {
      "channel": 3,
      "note": 66,
      "start": 57.1128,
      "duration": 0.0931,
      "velocity": 102,
      "chip": "ym2612"
    },
    {
      "channel": 5,
      "note": 60,
      "start": 57.1158,
      "duration": 0.8073,
      "velocity": 94,
      "chip": "ym2612"
    },
    {
      "channel": 1,
      "note": 60,
      "start": 57.2092,
      "duration": 0.3967,
      "velocity": 102,
      "chip": "ym2612"
    },
    {
      "channel": 0,
      "note": 42,
      "start": 57.213,
      "duration": 0.2095,
      "velocity": 125,
      "chip": "ym2612"
    },
    {
      "channel": 2,
      "note": 60,
      "start": 57.3262,
      "duration": 0.0634,
      "velocity": 102,
      "chip": "ym2612"
    },
    {
      "channel": 3,
      "note": 60,
      "start": 57.4261,
      "duration": 0.08,
      "velocity": 102,
      "chip": "ym2612"
    },
    {
      "channel": 2,
      "note": 60,
      "start": 57.543,
      "duration": 0.0632,
      "velocity": 102,
      "chip": "ym2612"
    },
    {
      "channel": 1,
      "note": 71,
      "start": 57.6424,
      "duration": 0.1137,
      "velocity": 102,
      "chip": "ym2612"
    },
    {
      "channel": 0,
      "note": 63,
      "start": 57.6453,
      "duration": 0.0773,
      "velocity": 102,
      "chip": "ym2612"
    },
    {
      "channel": 3,
      "note": 71,
      "start": 57.7597,
      "duration": 0.063,
      "velocity": 102,
      "chip": "ym2612"
    },
    {
      "channel": 2,
      "note": 63,
      "start": 57.7628,
      "duration": 0.0934,
      "velocity": 102,
      "chip": "ym2612"
    },
    {
      "channel": 0,
      "note": 71,
      "start": 57.8595,
      "duration": 0.0633,
      "velocity": 102,
      "chip": "ym2612"
    },
    {
      "channel": 1,
      "note": 63,
      "start": 57.8623,
      "duration": 0.1104,
      "velocity": 102,
      "chip": "ym2612"
    },
    {
      "channel": 2,
      "note": 49,
      "start": 57.8665,
      "duration": 0.0567,
      "velocity": 95,
      "chip": "ym2612"
    },
    {
      "channel": 3,
      "note": 71,
      "start": 57.9766,
      "duration": 0.0629,
      "velocity": 102,
      "chip": "ym2612"
    },
    {
      "channel": 0,
      "note": 63,
      "start": 57.9797,
      "duration": 0.093,
      "velocity": 102,
      "chip": "ym2612"
    },
    {
      "channel": 2,
      "note": 49,
      "start": 57.9836,
      "duration": 0.056,
      "velocity": 95,
      "chip": "ym2612"
    },
    {
      "channel": 5,
      "note": 60,
      "start": 58.076,
      "duration": 0.397,
      "velocity": 102,
      "chip": "ym2612"
    },
    {
      "channel": 1,
      "note": 42,
      "start": 58.0799,
      "duration": 0.2095,
      "velocity": 125,
      "chip": "ym2612"
    },
    {
      "channel": 3,
      "note": 60,
      "start": 58.1764,
      "duration": 0.0797,
      "velocity": 102,
      "chip": "ym2612"
    },
    {
      "channel": 2,
      "note": 60,
      "start": 58.2931,
      "duration": 0.0017,
      "velocity": 102,
      "chip": "ym2612"
    },
    {
      "channel": 2,
      "note": 49,
      "start": 58.2974,
      "duration": 0.0257,
      "velocity": 106,
      "chip": "ym2612"
    },
    {
      "channel": 0,
      "note": 60,
      "start": 58.393,
      "duration": 0.0797,
      "velocity": 102,
      "chip": "ym2612"
    },
    {
      "channel": 2,
      "note": 49,
      "start": 58.3967,
      "duration": 0.0765,
      "velocity": 106,
      "chip": "ym2612"
    },
    {
      "channel": 5,
      "note": 70,
      "start": 58.5107,
      "duration": 0.0623,
      "velocity": 102,
      "chip": "ym2612"
    },
    {
      "channel": 3,
      "note": 63,
      "start": 58.5134,
      "duration": 0.0594,
      "velocity": 102,
      "chip": "ym2612"
    },
    {
      "channel": 1,
      "note": 48,
      "start": 58.5222,
      "duration": 0.0505,
      "velocity": 94,
      "chip": "ym2612"
    },
    {
      "channel": 4,
      "note": 44,
      "start": 58.525,
      "duration": 3.3478,
      "velocity": 116,
      "chip": "ym2612"
    },
    {
      "channel": 2,
      "note": 49,
      "start": 58.5312,
      "duration": 0.3585,
      "velocity": 106,
      "chip": "ym2612"
    },
    {
      "channel": 0,
      "note": 70,
      "start": 58.6098,
      "duration": 0.0796,
      "velocity": 102,
      "chip": "ym2612"
    },
    {
      "channel": 1,
      "note": 63,
      "start": 58.6128,
      "duration": 0.1099,
      "velocity": 102,
      "chip": "ym2612"
    },
    {
      "channel": 3,
      "note": 51,
      "start": 58.6157,
      "duration": 0.0739,
      "velocity": 94,
      "chip": "ym2612"
    },
    {
      "channel": 5,
      "note": 70,
      "start": 58.7264,
      "duration": 0.0632,
      "velocity": 102,
      "chip": "ym2612"
    },
    {
      "channel": 0,
      "note": 63,
      "start": 58.7292,
      "duration": 0.0934,
      "velocity": 102,
      "chip": "ym2612"
    },
    {
      "channel": 3,
      "note": 55,
      "start": 58.7322,
      "duration": 0.0571,
      "velocity": 94,
      "chip": "ym2612"
    },
    {
      "channel": 1,
      "note": 70,
      "start": 58.8266,
      "duration": 0.0627,
      "velocity": 102,
      "chip": "ym2612"
    },
    {
      "channel": 3,
      "note": 63,
      "start": 58.8297,
      "duration": 0.1096,
      "velocity": 102,
      "chip": "ym2612"
    },
    {
      "channel": 5,
      "note": 62,
      "start": 58.8324,
      "duration": 0.0572,
      "velocity": 94,
      "chip": "ym2612"
    },
    {
      "channel": 0,
      "note": 60,
      "start": 58.9425,
      "duration": 0.3799,
      "velocity": 102,
      "chip": "ym2612"
    },
    {
      "channel": 5,
      "note": 60,
      "start": 58.9458,
      "duration": 0.8104,
      "velocity": 94,
      "chip": "ym2612"
    },
    {
      "channel": 1,
      "note": 42,
      "start": 58.9493,
      "duration": 0.1566,
      "velocity": 125,
      "chip": "ym2612"
    },
    {
      "channel": 2,
      "note": 60,
      "start": 59.0429,
      "duration": 0.0634,
      "velocity": 102,
      "chip": "ym2612"
    },
    {
      "channel": 3,
      "note": 60,
      "start": 59.1594,
      "duration": 0.0633,
      "velocity": 102,
      "chip": "ym2612"
    },
    {
      "channel": 1,
      "note": 60,
      "start": 59.2597,
      "duration": 0.0629,
      "velocity": 102,
      "chip": "ym2612"
    },
    {
      "channel": 0,
      "note": 71,
      "start": 59.359,
      "duration": 0.1134,
      "velocity": 102,
      "chip": "ym2612"
    },
    {
      "channel": 2,
      "note": 67,
      "start": 59.3619,
      "duration": 0.0776,
      "velocity": 102,
      "chip": "ym2612"
    },
    {
      "channel": 3,
      "note": 71,
      "start": 59.4761,
      "duration": 0.0632,
      "velocity": 102,
      "chip": "ym2612"
    },
    {
      "channel": 1,
      "note": 67,
      "start": 59.4791,
      "duration": 0.0934,
      "velocity": 102,
      "chip": "ym2612"
    },
    {
      "channel": 2,
      "note": 71,
      "start": 59.576,
      "duration": 0.0802,
      "velocity": 102,
      "chip": "ym2612"
    },
    {
      "channel": 0,
      "note": 67,
      "start": 59.5788,
      "duration": 0.1104,
      "velocity": 102,
      "chip": "ym2612"
    },
    {
      "channel": 3,
      "note": 42,
      "start": 59.5827,
      "duration": 0.2068,
      "velocity": 125,
      "chip": "ym2612"
    },
    {
      "channel": 1,
      "note": 71,
      "start": 59.6932,
      "duration": 0.0628,
      "velocity": 102,
      "chip": "ym2612"
    },
    {
      "channel": 2,
      "note": 67,
      "start": 59.6963,
      "duration": 0.0934,
      "velocity": 102,
      "chip": "ym2612"
    },
    {
      "channel": 0,
      "note": 60,
      "start": 59.7929,
      "duration": 0.3966,
      "velocity": 102,
      "chip": "ym2612"
    },
    {
      "channel": 1,
      "note": 33,
      "start": 59.7976,
      "duration": 0.075,
      "velocity": 124,
      "chip": "ym2612"
    },
    {
      "channel": 5,
      "note": 60,
      "start": 59.9098,
      "duration": 0.063,
      "velocity": 102,
      "chip": "ym2612"
    },
    {
      "channel": 1,
      "note": 34,
      "start": 59.9141,
      "duration": 0.0585,
      "velocity": 124,
      "chip": "ym2612"
    },
    {
      "channel": 3,
      "note": 55,
      "start": 59.9766,
      "duration": 0.2462,
      "velocity": 94,
      "chip": "ym2612"
    },
    {
      "channel": 2,
      "note": 60,
      "start": 60.0098,
      "duration": 0.0013,
      "velocity": 102,
      "chip": "ym2612"
    },
    {
      "channel": 2,
      "note": 49,
      "start": 60.0138,
      "duration": 0.0258,
      "velocity": 106,
      "chip": "ym2612"
    },
    {
      "channel": 1,
      "note": 60,
      "start": 60.1268,
      "duration": 0.0628,
      "velocity": 102,
      "chip": "ym2612"
    },
    {
      "channel": 2,
      "note": 49,
      "start": 60.1304,
      "duration": 0.0594,
      "velocity": 106,
      "chip": "ym2612"
    },
    {
      "channel": 0,
      "note": 70,
      "start": 60.2262,
      "duration": 0.0631,
      "velocity": 102,
      "chip": "ym2612"
    },
    {
      "channel": 5,
      "note": 66,
      "start": 60.2289,
      "duration": 0.0607,
      "velocity": 102,
      "chip": "ym2612"
    },
    {
      "channel": 3,
      "note": 58,
      "start": 60.2321,
      "duration": 0.8241,
      "velocity": 94,
      "chip": "ym2612"
    },
    {
      "channel": 2,
      "note": 49,
      "start": 60.2358,
      "duration": 0.1705,
      "velocity": 106,
      "chip": "ym2612"
    },
    {
      "channel": 1,
      "note": 70,
      "start": 60.3429,
      "duration": 0.0632,
      "velocity": 102,
      "chip": "ym2612"
    },
    {
      "channel": 0,
      "note": 66,
      "start": 60.3459,
      "duration": 0.0933,
      "velocity": 102,
      "chip": "ym2612"
    },
    {
      "channel": 5,
      "note": 70,
      "start": 60.4427,
      "duration": 0.0635,
      "velocity": 102,
      "chip": "ym2612"
    },
    {
      "channel": 1,
      "note": 66,
      "start": 60.4456,
      "duration": 0.0937,
      "velocity": 102,
      "chip": "ym2612"
    },
    {
      "channel": 2,
      "note": 49,
      "start": 60.4493,
      "duration": 0.1736,
      "velocity": 106,
      "chip": "ym2612"
    },
    {
      "channel": 0,
      "note": 70,
      "start": 60.5431,
      "duration": 0.0795,
      "velocity": 102,
      "chip": "ym2612"
    },
    {
      "channel": 5,
      "note": 66,
      "start": 60.5462,
      "duration": 0.1099,
      "velocity": 102,
      "chip": "ym2612"
    },
    {
      "channel": 1,
      "note": 60,
      "start": 60.6593,
      "duration": 0.3968,
      "velocity": 102,
      "chip": "ym2612"
    },
    {
      "channel": 0,
      "note": 42,
      "start": 60.6631,
      "duration": 0.2095,
      "velocity": 125,
      "chip": "ym2612"
    },
    {
      "channel": 2,
      "note": 60,
      "start": 60.7596,
      "duration": 0.0799,
      "velocity": 102,
      "chip": "ym2612"
    },
    {
      "channel": 5,
      "note": 60,
      "start": 60.8761,
      "duration": 0.0634,
      "velocity": 102,
      "chip": "ym2612"
    },
    {
      "channel": 2,
      "note": 60,
      "start": 60.9765,
      "duration": 0.0799,
      "velocity": 102,
      "chip": "ym2612"
    },
    {
      "channel": 1,
      "note": 71,
      "start": 61.0925,
      "duration": 0.0969,
      "velocity": 102,
      "chip": "ym2612"
    },
    {
      "channel": 0,
      "note": 63,
      "start": 61.0953,
      "duration": 0.0606,
      "velocity": 102,
      "chip": "ym2612"
    },
    {
      "channel": 5,
      "note": 71,
      "start": 61.193,
      "duration": 0.0632,
      "velocity": 102,
      "chip": "ym2612"
    },
    {
      "channel": 3,
      "note": 63,
      "start": 61.196,
      "duration": 0.1099,
      "velocity": 102,
      "chip": "ym2612"
    },
    {
      "channel": 2,
      "note": 71,
      "start": 61.3095,
      "duration": 0.0044,
      "velocity": 102,
      "chip": "ym2612"
    },
    {
      "channel": 0,
      "note": 63,
      "start": 61.3123,
      "duration": 0.0938,
      "velocity": 102,
      "chip": "ym2612"
    },
    {
      "channel": 2,
      "note": 49,
      "start": 61.3166,
      "duration": 0.0563,
      "velocity": 95,
      "chip": "ym2612"
    },
    {
      "channel": 1,
      "note": 71,
      "start": 61.4099,
      "duration": 0.0629,
      "velocity": 102,
      "chip": "ym2612"
    },
    {
      "channel": 5,
      "note": 63,
      "start": 61.413,
      "duration": 0.1099,
      "velocity": 102,
      "chip": "ym2612"
    },
    {
      "channel": 2,
      "note": 49,
      "start": 61.417,
      "duration": 0.0561,
      "velocity": 95,
      "chip": "ym2612"
    },
    {
      "channel": 3,
      "note": 60,
      "start": 61.5261,
      "duration": 0.3803,
      "velocity": 102,
      "chip": "ym2612"
    },
    {
      "channel": 0,
      "note": 42,
      "start": 61.5299,
      "duration": 0.1927,
      "velocity": 125,
      "chip": "ym2612"
    },
    {
      "channel": 1,
      "note": 60,
      "start": 61.6264,
      "duration": 0.063,
      "velocity": 102,
      "chip": "ym2612"
    },
    {
      "channel": 2,
      "note": 49,
      "start": 61.6306,
      "duration": 0.0591,
      "velocity": 95,
      "chip": "ym2612"
    },
    {
      "channel": 5,
      "note": 60,
      "start": 61.7263,
      "duration": 0.0801,
      "velocity": 102,
      "chip": "ym2612"
    },
    {
      "channel": 2,
      "note": 49,
      "start": 61.7306,
      "duration": 0.0424,
      "velocity": 106,
      "chip": "ym2612"
    },
    {
      "channel": 1,
      "note": 60,
      "start": 61.8434,
      "duration": 0.0628,
      "velocity": 102,
      "chip": "ym2612"
    },
    {
      "channel": 2,
      "note": 49,
      "start": 61.847,
      "duration": 0.0595,
      "velocity": 106,
      "chip": "ym2612"
    },
    {
      "channel": 3,
      "note": 70,
      "start": 61.9439,
      "duration": 0.079,
      "velocity": 102,
      "chip": "ym2612"
    },
    {
      "channel": 0,
      "note": 63,
      "start": 61.9466,
      "duration": 0.0761,
      "velocity": 102,
      "chip": "ym2612"
    },
    {
      "channel": 5,
      "note": 48,
      "start": 61.9553,
      "duration": 0.0678,
      "velocity": 94,
      "chip": "ym2612"
    },
    {
      "channel": 4,
      "note": 44,
      "start": 61.9582,
      "duration": 3.3647,
      "velocity": 116,
      "chip": "ym2612"
    },
    {
      "channel": 2,
      "note": 49,
      "start": 61.9629,
      "duration": 0.3767,
      "velocity": 106,
      "chip": "ym2612"
    },
    {
      "channel": 1,
      "note": 70,
      "start": 62.0598,
      "duration": 0.0629,
      "velocity": 102,
      "chip": "ym2612"
    },
    {
      "channel": 0,
      "note": 63,
      "start": 62.0629,
      "duration": 0.0931,
      "velocity": 102,
      "chip": "ym2612"
    },
    {
      "channel": 5,
      "note": 51,
      "start": 62.0657,
      "duration": 0.0573,
      "velocity": 94,
      "chip": "ym2612"
    },
    {
      "channel": 3,
      "note": 70,
      "start": 62.1597,
      "duration": 0.0796,
      "velocity": 102,
      "chip": "ym2612"
    },
    {
      "channel": 1,
      "note": 63,
      "start": 62.1626,
      "duration": 0.11,
      "velocity": 102,
      "chip": "ym2612"
    },
    {
      "channel": 5,
      "note": 55,
      "start": 62.1652,
      "duration": 0.0743,
      "velocity": 94,
      "chip": "ym2612"
    },
    {
      "channel": 0,
      "note": 70,
      "start": 62.2766,
      "duration": 0.0627,
      "velocity": 102,
      "chip": "ym2612"
    },
    {
      "channel": 3,
      "note": 63,
      "start": 62.2798,
      "duration": 0.0929,
      "velocity": 102,
      "chip": "ym2612"
    },
    {
      "channel": 5,
      "note": 62,
      "start": 62.2827,
      "duration": 0.0569,
      "velocity": 94,
      "chip": "ym2612"
    },
    {
      "channel": 1,
      "note": 60,
      "start": 62.3759,
      "duration": 0.3968,
      "velocity": 102,
      "chip": "ym2612"
    },
    {
      "channel": 5,
      "note": 60,
      "start": 62.3791,
      "duration": 0.827,
      "velocity": 94,
      "chip": "ym2612"
    },
    {
      "channel": 0,
      "note": 42,
      "start": 62.3827,
      "duration": 0.1732,
      "velocity": 125,
      "chip": "ym2612"
    },
    {
      "channel": 2,
      "note": 60,
      "start": 62.4928,
      "duration": 0.0635,
      "velocity": 102,
      "chip": "ym2612"
    },
    {
      "channel": 3,
      "note": 60,
      "start": 62.5928,
      "duration": 0.0633,
      "velocity": 102,
      "chip": "ym2612"
    },
    {
      "channel": 0,
      "note": 60,
      "start": 62.7096,
      "duration": 0.0629,
      "velocity": 102,
      "chip": "ym2612"
    },
    {
      "channel": 1,
      "note": 71,
      "start": 62.8091,
      "duration": 0.0969,
      "velocity": 102,
      "chip": "ym2612"
    },
    {
      "channel": 2,
      "note": 67,
      "start": 62.8119,
      "duration": 0.0609,
      "velocity": 102,
      "chip": "ym2612"
    },
    {
      "channel": 3,
      "note": 71,
      "start": 62.9096,
      "duration": 0.0798,
      "velocity": 102,
      "chip": "ym2612"
    },
    {
      "channel": 0,
      "note": 67,
      "start": 62.9126,
      "duration": 0.1098,
      "velocity": 102,
      "chip": "ym2612"
    },
    {
      "channel": 2,
      "note": 71,
      "start": 63.0261,
      "duration": 0.0634,
      "velocity": 102,
      "chip": "ym2612"
    },
    {
      "channel": 1,
      "note": 67,
      "start": 63.0289,
      "duration": 0.0938,
      "velocity": 102,
      "chip": "ym2612"
    },
    {
      "channel": 3,
      "note": 42,
      "start": 63.0327,
      "duration": 0.2067,
      "velocity": 125,
      "chip": "ym2612"
    },
    {
      "channel": 0,
      "note": 71,
      "start": 63.1265,
      "duration": 0.0793,
      "velocity": 102,
      "chip": "ym2612"
    },
    {
      "channel": 2,
      "note": 67,
      "start": 63.1296,
      "duration": 0.11,
      "velocity": 102,
      "chip": "ym2612"
    },
    {
      "channel": 1,
      "note": 60,
      "start": 63.2428,
      "duration": 0.3801,
      "velocity": 102,
      "chip": "ym2612"
    },
    {
      "channel": 0,
      "note": 33,
      "start": 63.2477,
      "duration": 0.0583,
      "velocity": 124,
      "chip": "ym2612"
    },
    {
      "channel": 5,
      "note": 60,
      "start": 63.3432,
      "duration": 0.0798,
      "velocity": 102,
      "chip": "ym2612"
    },
    {
      "channel": 0,
      "note": 34,
      "start": 63.3475,
      "duration": 0.0752,
      "velocity": 124,
      "chip": "ym2612"
    },
    {
      "channel": 3,
      "note": 55,
      "start": 63.4267,
      "duration": 0.2461,
      "velocity": 94,
      "chip": "ym2612"
    },
    {
      "channel": 2,
      "note": 60,
      "start": 63.4598,
      "duration": 0.0013,
      "velocity": 102,
      "chip": "ym2612"
    },
    {
      "channel": 2,
      "note": 49,
      "start": 63.4638,
      "duration": 0.0259,
      "velocity": 106,
      "chip": "ym2612"
    },
    {
      "channel": 0,
      "note": 60,
      "start": 63.5601,
      "duration": 0.0627,
      "velocity": 102,
      "chip": "ym2612"
    },
    {
      "channel": 2,
      "note": 49,
      "start": 63.5637,
      "duration": 0.0595,
      "velocity": 106,
      "chip": "ym2612"
    },
    {
      "channel": 1,
      "note": 70,
      "start": 63.6762,
      "duration": 0.0632,
      "velocity": 102,
      "chip": "ym2612"
    },
    {
      "channel": 5,
      "note": 66,
      "start": 63.679,
      "duration": 0.0607,
      "velocity": 102,
      "chip": "ym2612"
    },
    {
      "channel": 3,
      "note": 51,
      "start": 63.682,
      "duration": 0.2408,
      "velocity": 94,
      "chip": "ym2612"
    },
    {
      "channel": 2,
      "note": 49,
      "start": 63.6856,
      "duration": 0.1541,
      "velocity": 106,
      "chip": "ym2612"
    },
    {
      "channel": 0,
      "note": 70,
      "start": 63.7761,
      "duration": 0.0632,
      "velocity": 102,
      "chip": "ym2612"
    },
    {
      "channel": 1,
      "note": 66,
      "start": 63.7792,
      "duration": 0.1102,
      "velocity": 102,
      "chip": "ym2612"
    },
    {
      "channel": 5,
      "note": 70,
      "start": 63.8929,
      "duration": 0.0632,
      "velocity": 102,
      "chip": "ym2612"
    },
    {
      "channel": 0,
      "note": 66,
      "start": 63.8957,
      "duration": 0.0935,
      "velocity": 102,
      "chip": "ym2612"
    },
    {
      "channel": 2,
      "note": 49,
      "start": 63.8995,
      "duration": 0.1568,
      "velocity": 106,
      "chip": "ym2612"
    },
    {
      "channel": 1,
      "note": 70,
      "start": 63.993,
      "duration": 0.0629,
      "velocity": 102,
      "chip": "ym2612"
    },
    {
      "channel": 3,
      "note": 66,
      "start": 63.9961,
      "duration": 0.0932,
      "velocity": 102,
      "chip": "ym2612"
    },
    {
      "channel": 5,
      "note": 60,
      "start": 63.9991,
      "duration": 0.8071,
      "velocity": 94,
      "chip": "ym2612"
    },
    {
      "channel": 0,
      "note": 60,
      "start": 64.0925,
      "duration": 0.3967,
      "velocity": 102,
      "chip": "ym2612"
    },
    {
      "channel": 1,
      "note": 42,
      "start": 64.0964,
      "duration": 0.2095,
      "velocity": 125,
      "chip": "ym2612"
    },
    {
      "channel": 2,
      "note": 60,
      "start": 64.2095,
      "duration": 0.0633,
      "velocity": 102,
      "chip": "ym2612"
    },
    {
      "channel": 3,
      "note": 60,
      "start": 64.3094,
      "duration": 0.08,
      "velocity": 102,
      "chip": "ym2612"
    },
    {
      "channel": 2,
      "note": 60,
      "start": 64.4264,
      "duration": 0.0631,
      "velocity": 102,
      "chip": "ym2612"
    },
    {
      "channel": 0,
      "note": 71,
      "start": 64.5257,
      "duration": 0.1137,
      "velocity": 102,
      "chip": "ym2612"
    },
    {
      "channel": 1,
      "note": 63,
      "start": 64.5285,
      "duration": 0.0775,
      "velocity": 102,
      "chip": "ym2612"
    },
    {
      "channel": 3,
      "note": 71,
      "start": 64.643,
      "duration": 0.063,
      "velocity": 102,
      "chip": "ym2612"
    },
    {
      "channel": 2,
      "note": 63,
      "start": 64.6461,
      "duration": 0.0934,
      "velocity": 102,
      "chip": "ym2612"
    },
    {
      "channel": 1,
      "note": 71,
      "start": 64.7428,
      "duration": 0.0633,
      "velocity": 102,
      "chip": "ym2612"
    },
    {
      "channel": 0,
      "note": 63,
      "start": 64.7456,
      "duration": 0.1104,
      "velocity": 102,
      "chip": "ym2612"
    },
    {
      "channel": 2,
      "note": 49,
      "start": 64.7498,
      "duration": 0.0566,
      "velocity": 95,
      "chip": "ym2612"
    },
    {
      "channel": 3,
      "note": 71,
      "start": 64.8599,
      "duration": 0.0629,
      "velocity": 102,
      "chip": "ym2612"
    },
    {
      "channel": 1,
      "note": 63,
      "start": 64.863,
      "duration": 0.0931,
      "velocity": 102,
      "chip": "ym2612"
    },
    {
      "channel": 2,
      "note": 49,
      "start": 64.867,
      "duration": 0.0561,
      "velocity": 95,
      "chip": "ym2612"
    },
    {
      "channel": 5,
      "note": 60,
      "start": 64.9594,
      "duration": 0.397,
      "velocity": 102,
      "chip": "ym2612"
    },
    {
      "channel": 0,
      "note": 42,
      "start": 64.9633,
      "duration": 0.2094,
      "velocity": 125,
      "chip": "ym2612"
    },
    {
      "channel": 3,
      "note": 60,
      "start": 65.0764,
      "duration": 0.0631,
      "velocity": 102,
      "chip": "ym2612"
    },
    {
      "channel": 2,
      "note": 60,
      "start": 65.1764,
      "duration": 0.0017,
      "velocity": 102,
      "chip": "ym2612"
    },
    {
      "channel": 2,
      "note": 49,
      "start": 65.1807,
      "duration": 0.0256,
      "velocity": 106,
      "chip": "ym2612"
    },
    {
      "channel": 1,
      "note": 60,
      "start": 65.2764,
      "duration": 0.0797,
      "velocity": 102,
      "chip": "ym2612"
    },
    {
      "channel": 2,
      "note": 49,
      "start": 65.2801,
      "duration": 0.0765,
      "velocity": 106,
      "chip": "ym2612"
    },
    {
      "channel": 5,
      "note": 67,
      "start": 65.3941,
      "duration": 0.0625,
      "velocity": 102,
      "chip": "ym2612"
    },
    {
      "channel": 3,
      "note": 72,
      "start": 65.3967,
      "duration": 0.0596,
      "velocity": 102,
      "chip": "ym2612"
    },
    {
      "channel": 0,
      "note": 50,
      "start": 65.4073,
      "duration": 3.3489,
      "velocity": 95,
      "chip": "ym2612"
    },
    {
      "channel": 2,
      "note": 49,
      "start": 65.4141,
      "duration": 0.3757,
      "velocity": 106,
      "chip": "ym2612"
    },
    {
      "channel": 4,
      "note": 68,
      "start": 65.4931,
      "duration": 0.0796,
      "velocity": 102,
      "chip": "ym2612"
    },
    {
      "channel": 1,
      "note": 72,
      "start": 65.4961,
      "duration": 0.1099,
      "velocity": 102,
      "chip": "ym2612"
    },
    {
      "channel": 3,
      "note": 68,
      "start": 65.6097,
      "duration": 0.0631,
      "velocity": 102,
      "chip": "ym2612"
    },
    {
      "channel": 5,
      "note": 72,
      "start": 65.6126,
      "duration": 0.0937,
      "velocity": 102,
      "chip": "ym2612"
    },
    {
      "channel": 4,
      "note": 49,
      "start": 65.617,
      "duration": 0.056,
      "velocity": 95,
      "chip": "ym2612"
    },
    {
      "channel": 1,
      "note": 68,
      "start": 65.71,
      "duration": 0.0795,
      "velocity": 102,
      "chip": "ym2612"
    },
    {
      "channel": 3,
      "note": 72,
      "start": 65.7131,
      "duration": 0.1096,
      "velocity": 102,
      "chip": "ym2612"
    },
    {
      "channel": 4,
      "note": 47,
      "start": 65.7167,
      "duration": 0.0729,
      "velocity": 95,
      "chip": "ym2612"
    },
    {
      "channel": 5,
      "note": 62,
      "start": 65.826,
      "duration": 0.3801,
      "velocity": 102,
      "chip": "ym2612"
    },
    {
      "channel": 4,
      "note": 49,
      "start": 65.8303,
      "duration": 0.0593,
      "velocity": 95,
      "chip": "ym2612"
    },
    {
      "channel": 1,
      "note": 50,
      "start": 65.835,
      "duration": 3.3545,
      "velocity": 95,
      "chip": "ym2612"
    },
    {
      "channel": 2,
      "note": 42,
      "start": 65.839,
      "duration": 0.1507,
      "velocity": 125,
      "chip": "ym2612"
    },
    {
      "channel": 3,
      "note": 65,
      "start": 65.9262,
      "duration": 0.0632,
      "velocity": 102,
      "chip": "ym2612"
    },
    {
      "channel": 4,
      "note": 49,
      "start": 65.9301,
      "duration": 0.0594,
      "velocity": 95,
      "chip": "ym2612"
    },
    {
      "channel": 3,
      "note": 65,
      "start": 66.0428,
      "duration": 0.0632,
      "velocity": 102,
      "chip": "ym2612"
    },
    {
      "channel": 4,
      "note": 49,
      "start": 66.0465,
      "duration": 0.0595,
      "velocity": 95,
      "chip": "ym2612"
    },
    {
      "channel": 2,
      "note": 65,
      "start": 66.143,
      "duration": 0.0632,
      "velocity": 102,
      "chip": "ym2612"
    },
    {
      "channel": 4,
      "note": 49,
      "start": 66.1471,
      "duration": 0.0588,
      "velocity": 95,
      "chip": "ym2612"
    },
    {
      "channel": 5,
      "note": 68,
      "start": 66.2591,
      "duration": 0.0969,
      "velocity": 102,
      "chip": "ym2612"
    },
    {
      "channel": 3,
      "note": 73,
      "start": 66.2623,
      "duration": 0.0603,
      "velocity": 102,
      "chip": "ym2612"
    },
    {
      "channel": 4,
      "note": 49,
      "start": 66.2663,
      "duration": 0.0565,
      "velocity": 95,
      "chip": "ym2612"
    },
    {
      "channel": 2,
      "note": 69,
      "start": 66.3598,
      "duration": 0.063,
      "velocity": 102,
      "chip": "ym2612"
    },
    {
      "channel": 3,
      "note": 73,
      "start": 66.3629,
      "duration": 0.0931,
      "velocity": 102,
      "chip": "ym2612"
    },
    {
      "channel": 4,
      "note": 49,
      "start": 66.3671,
      "duration": 0.0555,
      "velocity": 95,
      "chip": "ym2612"
    },
    {
      "channel": 5,
      "note": 69,
      "start": 66.4598,
      "duration": 0.0796,
      "velocity": 102,
      "chip": "ym2612"
    },
    {
      "channel": 4,
      "note": 73,
      "start": 66.4627,
      "duration": 0.11,
      "velocity": 102,
      "chip": "ym2612"
    },
    {
      "channel": 2,
      "note": 42,
      "start": 66.4666,
      "duration": 0.2063,
      "velocity": 125,
      "chip": "ym2612"
    },
    {
      "channel": 3,
      "note": 69,
      "start": 66.5768,
      "duration": 0.0625,
      "velocity": 102,
      "chip": "ym2612"
    },
    {
      "channel": 5,
      "note": 73,
      "start": 66.5798,
      "duration": 0.0929,
      "velocity": 102,
      "chip": "ym2612"
    },
    {
      "channel": 4,
      "note": 62,
      "start": 66.676,
      "duration": 0.397,
      "velocity": 102,
      "chip": "ym2612"
    },
    {
      "channel": 3,
      "note": 33,
      "start": 66.6808,
      "duration": 0.0752,
      "velocity": 124,
      "chip": "ym2612"
    },
    {
      "channel": 5,
      "note": 62,
      "start": 66.793,
      "duration": 0.0634,
      "velocity": 102,
      "chip": "ym2612"
    },
    {
      "channel": 3,
      "note": 34,
      "start": 66.7974,
      "duration": 0.0588,
      "velocity": 124,
      "chip": "ym2612"
    },
    {
      "channel": 2,
      "note": 65,
      "start": 66.8929,
      "duration": 0.0017,
      "velocity": 102,
      "chip": "ym2612"
    },
    {
      "channel": 2,
      "note": 49,
      "start": 66.8972,
      "duration": 0.0257,
      "velocity": 106,
      "chip": "ym2612"
    },
    {
      "channel": 3,
      "note": 65,
      "start": 67.01,
      "duration": 0.0629,
      "velocity": 102,
      "chip": "ym2612"
    },
    {
      "channel": 2,
      "note": 49,
      "start": 67.0136,
      "duration": 0.0596,
      "velocity": 106,
      "chip": "ym2612"
    },
    {
      "channel": 4,
      "note": 67,
      "start": 67.1103,
      "duration": 0.0626,
      "velocity": 102,
      "chip": "ym2612"
    },
    {
      "channel": 5,
      "note": 72,
      "start": 67.113,
      "duration": 0.06,
      "velocity": 102,
      "chip": "ym2612"
    },
    {
      "channel": 2,
      "note": 49,
      "start": 67.1208,
      "duration": 0.1689,
      "velocity": 106,
      "chip": "ym2612"
    },
    {
      "channel": 3,
      "note": 68,
      "start": 67.2262,
      "duration": 0.0632,
      "velocity": 102,
      "chip": "ym2612"
    },
    {
      "channel": 4,
      "note": 72,
      "start": 67.2293,
      "duration": 0.0934,
      "velocity": 102,
      "chip": "ym2612"
    },
    {
      "channel": 5,
      "note": 68,
      "start": 67.3263,
      "duration": 0.0633,
      "velocity": 102,
      "chip": "ym2612"
    },
    {
      "channel": 3,
      "note": 72,
      "start": 67.3291,
      "duration": 0.0935,
      "velocity": 102,
      "chip": "ym2612"
    },
    {
      "channel": 2,
      "note": 49,
      "start": 67.3329,
      "duration": 0.1735,
      "velocity": 106,
      "chip": "ym2612"
    },
    {
      "channel": 4,
      "note": 68,
      "start": 67.4266,
      "duration": 0.0796,
      "velocity": 102,
      "chip": "ym2612"
    },
    {
      "channel": 5,
      "note": 72,
      "start": 67.4296,
      "duration": 0.1098,
      "velocity": 102,
      "chip": "ym2612"
    },
    {
      "channel": 3,
      "note": 62,
      "start": 67.5425,
      "duration": 0.3969,
      "velocity": 102,
      "chip": "ym2612"
    },
    {
      "channel": 4,
      "note": 42,
      "start": 67.5464,
      "duration": 0.2097,
      "velocity": 125,
      "chip": "ym2612"
    },
    {
      "channel": 2,
      "note": 65,
      "start": 67.6429,
      "duration": 0.08,
      "velocity": 102,
      "chip": "ym2612"
    },
    {
      "channel": 5,
      "note": 65,
      "start": 67.7595,
      "duration": 0.0634,
      "velocity": 102,
      "chip": "ym2612"
    },
    {
      "channel": 2,
      "note": 65,
      "start": 67.8598,
      "duration": 0.0798,
      "velocity": 102,
      "chip": "ym2612"
    },
    {
      "channel": 3,
      "note": 68,
      "start": 67.9759,
      "duration": 0.097,
      "velocity": 102,
      "chip": "ym2612"
    },
    {
      "channel": 4,
      "note": 73,
      "start": 67.9787,
      "duration": 0.0607,
      "velocity": 102,
      "chip": "ym2612"
    },
    {
      "channel": 5,
      "note": 69,
      "start": 68.0764,
      "duration": 0.0796,
      "velocity": 102,
      "chip": "ym2612"
    },
    {
      "channel": 2,
      "note": 73,
      "start": 68.0795,
      "duration": 0.1099,
      "velocity": 102,
      "chip": "ym2612"
    },
    {
      "channel": 4,
      "note": 69,
      "start": 68.1928,
      "duration": 0.0634,
      "velocity": 102,
      "chip": "ym2612"
    },
    {
      "channel": 3,
      "note": 73,
      "start": 68.1956,
      "duration": 0.0939,
      "velocity": 102,
      "chip": "ym2612"
    },
    {
      "channel": 2,
      "note": 49,
      "start": 68.1998,
      "duration": 0.0565,
      "velocity": 95,
      "chip": "ym2612"
    },
    {
      "channel": 5,
      "note": 69,
      "start": 68.2933,
      "duration": 0.063,
      "velocity": 102,
      "chip": "ym2612"
    },
    {
      "channel": 4,
      "note": 73,
      "start": 68.2963,
      "duration": 0.1098,
      "velocity": 102,
      "chip": "ym2612"
    },
    {
      "channel": 2,
      "note": 49,
      "start": 68.3003,
      "duration": 0.0562,
      "velocity": 95,
      "chip": "ym2612"
    },
    {
      "channel": 3,
      "note": 62,
      "start": 68.4093,
      "duration": 0.3804,
      "velocity": 102,
      "chip": "ym2612"
    },
    {
      "channel": 5,
      "note": 42,
      "start": 68.4131,
      "duration": 0.1932,
      "velocity": 125,
      "chip": "ym2612"
    },
    {
      "channel": 2,
      "note": 62,
      "start": 68.5103,
      "duration": 0.0017,
      "velocity": 102,
      "chip": "ym2612"
    },
    {
      "channel": 2,
      "note": 49,
      "start": 68.5145,
      "duration": 0.0585,
      "velocity": 95,
      "chip": "ym2612"
    },
    {
      "channel": 4,
      "note": 65,
      "start": 68.6102,
      "duration": 0.0795,
      "velocity": 102,
      "chip": "ym2612"
    },
    {
      "channel": 2,
      "note": 49,
      "start": 68.6141,
      "duration": 0.0424,
      "velocity": 106,
      "chip": "ym2612"
    },
    {
      "channel": 5,
      "note": 65,
      "start": 68.7271,
      "duration": 0.0627,
      "velocity": 102,
      "chip": "ym2612"
    },
    {
      "channel": 2,
      "note": 49,
      "start": 68.7308,
      "duration": 0.0592,
      "velocity": 106,
      "chip": "ym2612"
    },
    {
      "channel": 3,
      "note": 67,
      "start": 68.8273,
      "duration": 0.079,
      "velocity": 102,
      "chip": "ym2612"
    },
    {
      "channel": 4,
      "note": 72,
      "start": 68.8301,
      "duration": 0.0764,
      "velocity": 102,
      "chip": "ym2612"
    },
    {
      "channel": 0,
      "note": 46,
      "start": 68.8366,
      "duration": 3.3696,
      "velocity": 95,
      "chip": "ym2612"
    },
    {
      "channel": 2,
      "note": 49,
      "start": 68.8422,
      "duration": 0.3809,
      "velocity": 106,
      "chip": "ym2612"
    },
    {
      "channel": 5,
      "note": 68,
      "start": 68.9432,
      "duration": 0.0632,
      "velocity": 102,
      "chip": "ym2612"
    },
    {
      "channel": 3,
      "note": 72,
      "start": 68.9462,
      "duration": 0.0933,
      "velocity": 102,
      "chip": "ym2612"
    },
    {
      "channel": 4,
      "note": 68,
      "start": 69.0432,
      "duration": 0.0798,
      "velocity": 102,
      "chip": "ym2612"
    },
    {
      "channel": 5,
      "note": 72,
      "start": 69.046,
      "duration": 0.1103,
      "velocity": 102,
      "chip": "ym2612"
    },
    {
      "channel": 3,
      "note": 49,
      "start": 69.0497,
      "duration": 0.0732,
      "velocity": 95,
      "chip": "ym2612"
    },
    {
      "channel": 3,
      "note": 68,
      "start": 69.1601,
      "duration": 0.0627,
      "velocity": 102,
      "chip": "ym2612"
    },
    {
      "channel": 4,
      "note": 72,
      "start": 69.1631,
      "duration": 0.0931,
      "velocity": 102,
      "chip": "ym2612"
    },
    {
      "channel": 5,
      "note": 49,
      "start": 69.1673,
      "duration": 0.0556,
      "velocity": 95,
      "chip": "ym2612"
    },
    {
      "channel": 1,
      "note": 62,
      "start": 69.2595,
      "duration": 0.3966,
      "velocity": 102,
      "chip": "ym2612"
    },
    {
      "channel": 5,
      "note": 49,
      "start": 69.2634,
      "duration": 0.0761,
      "velocity": 95,
      "chip": "ym2612"
    },
    {
      "channel": 3,
      "note": 46,
      "start": 69.2666,
      "duration": 2.9729,
      "velocity": 95,
      "chip": "ym2612"
    },
    {
      "channel": 2,
      "note": 42,
      "start": 69.27,
      "duration": 0.1698,
      "velocity": 125,
      "chip": "ym2612"
    },
    {
      "channel": 4,
      "note": 65,
      "start": 69.3762,
      "duration": 0.0634,
      "velocity": 102,
      "chip": "ym2612"
    },
    {
      "channel": 5,
      "note": 49,
      "start": 69.3801,
      "duration": 0.0595,
      "velocity": 95,
      "chip": "ym2612"
    },
    {
      "channel": 4,
      "note": 65,
      "start": 69.4762,
      "duration": 0.0633,
      "velocity": 102,
      "chip": "ym2612"
    },
    {
      "channel": 5,
      "note": 49,
      "start": 69.4804,
      "duration": 0.0592,
      "velocity": 95,
      "chip": "ym2612"
    },
    {
      "channel": 2,
      "note": 65,
      "start": 69.5931,
      "duration": 0.0633,
      "velocity": 102,
      "chip": "ym2612"
    },
    {
      "channel": 5,
      "note": 49,
      "start": 69.5968,
      "duration": 0.0594,
      "velocity": 95,
      "chip": "ym2612"
    },
    {
      "channel": 1,
      "note": 68,
      "start": 69.6925,
      "duration": 0.0969,
      "velocity": 102,
      "chip": "ym2612"
    },
    {
      "channel": 4,
      "note": 73,
      "start": 69.6953,
      "duration": 0.0607,
      "velocity": 102,
      "chip": "ym2612"
    },
    {
      "channel": 5,
      "note": 49,
      "start": 69.6997,
      "duration": 0.0566,
      "velocity": 95,
      "chip": "ym2612"
    },
    {
      "channel": 2,
      "note": 69,
      "start": 69.793,
      "duration": 0.0798,
      "velocity": 102,
      "chip": "ym2612"
    },
    {
      "channel": 4,
      "note": 73,
      "start": 69.7961,
      "duration": 0.1099,
      "velocity": 102,
      "chip": "ym2612"
    },
    {
      "channel": 5,
      "note": 49,
      "start": 69.8,
      "duration": 0.0727,
      "velocity": 95,
      "chip": "ym2612"
    },
    {
      "channel": 1,
      "note": 69,
      "start": 69.9094,
      "duration": 0.0632,
      "velocity": 102,
      "chip": "ym2612"
    },
    {
      "channel": 5,
      "note": 73,
      "start": 69.9122,
      "duration": 0.094,
      "velocity": 102,
      "chip": "ym2612"
    },
    {
      "channel": 2,
      "note": 49,
      "start": 69.9161,
      "duration": 0.0568,
      "velocity": 95,
      "chip": "ym2612"
    },
    {
      "channel": 4,
      "note": 42,
      "start": 69.9195,
      "duration": 0.2032,
      "velocity": 125,
      "chip": "ym2612"
    },
    {
      "channel": 1,
      "note": 69,
      "start": 70.0098,
      "duration": 0.0794,
      "velocity": 102,
      "chip": "ym2612"
    },
    {
      "channel": 2,
      "note": 73,
      "start": 70.0129,
      "duration": 0.11,
      "velocity": 102,
      "chip": "ym2612"
    },
    {
      "channel": 5,
      "note": 49,
      "start": 70.0171,
      "duration": 0.0724,
      "velocity": 95,
      "chip": "ym2612"
    },
    {
      "channel": 1,
      "note": 62,
      "start": 70.1261,
      "duration": 0.3966,
      "velocity": 102,
      "chip": "ym2612"
    },
    {
      "channel": 5,
      "note": 49,
      "start": 70.1295,
      "duration": 0.0602,
      "velocity": 95,
      "chip": "ym2612"
    },
    {
      "channel": 4,
      "note": 33,
      "start": 70.1337,
      "duration": 0.0558,
      "velocity": 124,
      "chip": "ym2612"
    },
    {
      "channel": 2,
      "note": 62,
      "start": 70.2266,
      "duration": 0.0796,
      "velocity": 102,
      "chip": "ym2612"
    },
    {
      "channel": 4,
      "note": 34,
      "start": 70.2311,
      "duration": 0.075,
      "velocity": 124,
      "chip": "ym2612"
    },
    {
      "channel": 5,
      "note": 65,
      "start": 70.3432,
      "duration": 0.063,
      "velocity": 102,
      "chip": "ym2612"
    },
    {
      "channel": 2,
      "note": 49,
      "start": 70.3472,
      "duration": 0.0257,
      "velocity": 106,
      "chip": "ym2612"
    },
    {
      "channel": 4,
      "note": 65,
      "start": 70.4435,
      "duration": 0.0794,
      "velocity": 102,
      "chip": "ym2612"
    },
    {
      "channel": 2,
      "note": 49,
      "start": 70.4472,
      "duration": 0.076,
      "velocity": 106,
      "chip": "ym2612"
    },
    {
      "channel": 1,
      "note": 67,
      "start": 70.5605,
      "duration": 0.0623,
      "velocity": 102,
      "chip": "ym2612"
    },
    {
      "channel": 5,
      "note": 72,
      "start": 70.5632,
      "duration": 0.0599,
      "velocity": 102,
      "chip": "ym2612"
    },
    {
      "channel": 2,
      "note": 49,
      "start": 70.571,
      "duration": 0.152,
      "velocity": 106,
      "chip": "ym2612"
    },
    {
      "channel": 4,
      "note": 68,
      "start": 70.6596,
      "duration": 0.0632,
      "velocity": 102,
      "chip": "ym2612"
    },
    {
      "channel": 1,
      "note": 72,
      "start": 70.6627,
      "duration": 0.1099,
      "velocity": 102,
      "chip": "ym2612"
    },
    {
      "channel": 5,
      "note": 68,
      "start": 70.7763,
      "duration": 0.0632,
      "velocity": 102,
      "chip": "ym2612"
    },
    {
      "channel": 4,
      "note": 72,
      "start": 70.7792,
      "duration": 0.0936,
      "velocity": 102,
      "chip": "ym2612"
    },
    {
      "channel": 2,
      "note": 49,
      "start": 70.7829,
      "duration": 0.1567,
      "velocity": 106,
      "chip": "ym2612"
    },
    {
      "channel": 1,
      "note": 68,
      "start": 70.8766,
      "duration": 0.0627,
      "velocity": 102,
      "chip": "ym2612"
    },
    {
      "channel": 5,
      "note": 72,
      "start": 70.8797,
      "duration": 0.0931,
      "velocity": 102,
      "chip": "ym2612"
    },
    {
      "channel": 4,
      "note": 62,
      "start": 70.9759,
      "duration": 0.3968,
      "velocity": 102,
      "chip": "ym2612"
    },
    {
      "channel": 1,
      "note": 42,
      "start": 70.9798,
      "duration": 0.2095,
      "velocity": 125,
      "chip": "ym2612"
    },
    {
      "channel": 2,
      "note": 65,
      "start": 71.0928,
      "duration": 0.0634,
      "velocity": 102,
      "chip": "ym2612"
    },
    {
      "channel": 5,
      "note": 65,
      "start": 71.1928,
      "duration": 0.08,
      "velocity": 102,
      "chip": "ym2612"
    },
    {
      "channel": 2,
      "note": 65,
      "start": 71.3097,
      "duration": 0.0632,
      "velocity": 102,
      "chip": "ym2612"
    },
    {
      "channel": 4,
      "note": 68,
      "start": 71.4093,
      "duration": 0.1136,
      "velocity": 102,
      "chip": "ym2612"
    },
    {
      "channel": 1,
      "note": 73,
      "start": 71.4121,
      "duration": 0.0773,
      "velocity": 102,
      "chip": "ym2612"
    },
    {
      "channel": 5,
      "note": 69,
      "start": 71.5263,
      "duration": 0.0632,
      "velocity": 102,
      "chip": "ym2612"
    },
    {
      "channel": 2,
      "note": 73,
      "start": 71.5294,
      "duration": 0.0934,
      "velocity": 102,
      "chip": "ym2612"
    },
    {
      "channel": 1,
      "note": 69,
      "start": 71.6262,
      "duration": 0.0633,
      "velocity": 102,
      "chip": "ym2612"
    },
    {
      "channel": 4,
      "note": 73,
      "start": 71.629,
      "duration": 0.1104,
      "velocity": 102,
      "chip": "ym2612"
    },
    {
      "channel": 2,
      "note": 49,
      "start": 71.6332,
      "duration": 0.0566,
      "velocity": 95,
      "chip": "ym2612"
    },
    {
      "channel": 5,
      "note": 69,
      "start": 71.7432,
      "duration": 0.0632,
      "velocity": 102,
      "chip": "ym2612"
    },
    {
      "channel": 1,
      "note": 73,
      "start": 71.7463,
      "duration": 0.0931,
      "velocity": 102,
      "chip": "ym2612"
    },
    {
      "channel": 2,
      "note": 49,
      "start": 71.7502,
      "duration": 0.0562,
      "velocity": 95,
      "chip": "ym2612"
    },
    {
      "channel": 4,
      "note": 62,
      "start": 71.8426,
      "duration": 0.3971,
      "velocity": 102,
      "chip": "ym2612"
    },
    {
      "channel": 5,
      "note": 42,
      "start": 71.8465,
      "duration": 0.2099,
      "velocity": 125,
      "chip": "ym2612"
    },
    {
      "channel": 2,
      "note": 62,
      "start": 71.9601,
      "duration": 0.0629,
      "velocity": 102,
      "chip": "ym2612"
    },
    {
      "channel": 1,
      "note": 65,
      "start": 72.0603,
      "duration": 0.0626,
      "velocity": 102,
      "chip": "ym2612"
    },
    {
      "channel": 2,
      "note": 49,
      "start": 72.0645,
      "duration": 0.0253,
      "velocity": 106,
      "chip": "ym2612"
    },
    {
      "channel": 5,
      "note": 65,
      "start": 72.1605,
      "duration": 0.0794,
      "velocity": 102,
      "chip": "ym2612"
    },
    {
      "channel": 2,
      "note": 49,
      "start": 72.1641,
      "duration": 0.0759,
      "velocity": 106,
      "chip": "ym2612"
    },
    {
      "channel": 4,
      "note": 67,
      "start": 72.2774,
      "duration": 0.0623,
      "velocity": 102,
      "chip": "ym2612"
    },
    {
      "channel": 1,
      "note": 72,
      "start": 72.2801,
      "duration": 0.0595,
      "velocity": 102,
      "chip": "ym2612"
    },
    {
      "channel": 0,
      "note": 46,
      "start": 72.2897,
      "duration": 3.3497,
      "velocity": 95,
      "chip": "ym2612"
    },
    {
      "channel": 2,
      "note": 49,
      "start": 72.2979,
      "duration": 0.3753,
      "velocity": 106,
      "chip": "ym2612"
    },
    {
      "channel": 3,
      "note": 68,
      "start": 72.3764,
      "duration": 0.0799,
      "velocity": 102,
      "chip": "ym2612"
    },
    {
      "channel": 5,
      "note": 72,
      "start": 72.3795,
      "duration": 0.1101,
      "velocity": 102,
      "chip": "ym2612"
    },
    {
      "channel": 1,
      "note": 68,
      "start": 72.493,
      "duration": 0.0632,
      "velocity": 102,
      "chip": "ym2612"
    },
    {
      "channel": 4,
      "note": 72,
      "start": 72.4959,
      "duration": 0.0938,
      "velocity": 102,
      "chip": "ym2612"
    },
    {
      "channel": 3,
      "note": 49,
      "start": 72.5,
      "duration": 0.0563,
      "velocity": 95,
      "chip": "ym2612"
    },
    {
      "channel": 5,
      "note": 68,
      "start": 72.5935,
      "duration": 0.0795,
      "velocity": 102,
      "chip": "ym2612"
    },
    {
      "channel": 1,
      "note": 72,
      "start": 72.5966,
      "duration": 0.1095,
      "velocity": 102,
      "chip": "ym2612"
    },
    {
      "channel": 3,
      "note": 47,
      "start": 72.6005,
      "duration": 0.0723,
      "velocity": 95,
      "chip": "ym2612"
    },
    {
      "channel": 4,
      "note": 62,
      "start": 72.7094,
      "duration": 0.38,
      "velocity": 102,
      "chip": "ym2612"
    },
    {
      "channel": 3,
      "note": 49,
      "start": 72.7133,
      "duration": 0.0595,
      "velocity": 95,
      "chip": "ym2612"
    },
    {
      "channel": 5,
      "note": 46,
      "start": 72.718,
      "duration": 3.3548,
      "velocity": 95,
      "chip": "ym2612"
    },
    {
      "channel": 2,
      "note": 42,
      "start": 72.7221,
      "duration": 0.151,
      "velocity": 125,
      "chip": "ym2612"
    },
    {
      "channel": 1,
      "note": 65,
      "start": 72.8096,
      "duration": 0.0632,
      "velocity": 102,
      "chip": "ym2612"
    },
    {
      "channel": 3,
      "note": 49,
      "start": 72.8134,
      "duration": 0.0595,
      "velocity": 95,
      "chip": "ym2612"
    },
    {
      "channel": 1,
      "note": 65,
      "start": 72.9261,
      "duration": 0.0634,
      "velocity": 102,
      "chip": "ym2612"
    },
    {
      "channel": 3,
      "note": 49,
      "start": 72.9302,
      "duration": 0.0594,
      "velocity": 95,
      "chip": "ym2612"
    },
    {
      "channel": 2,
      "note": 65,
      "start": 73.0264,
      "duration": 0.0632,
      "velocity": 102,
      "chip": "ym2612"
    },
    {
      "channel": 3,
      "note": 49,
      "start": 73.0301,
      "duration": 0.0592,
      "velocity": 95,
      "chip": "ym2612"
    },
    {
      "channel": 4,
      "note": 68,
      "start": 73.1425,
      "duration": 0.0968,
      "velocity": 102,
      "chip": "ym2612"
    },
    {
      "channel": 1,
      "note": 73,
      "start": 73.1453,
      "duration": 0.0606,
      "velocity": 102,
      "chip": "ym2612"
    },
    {
      "channel": 3,
      "note": 49,
      "start": 73.1493,
      "duration": 0.0568,
      "velocity": 95,
      "chip": "ym2612"
    },
    {
      "channel": 2,
      "note": 69,
      "start": 73.2429,
      "duration": 0.0633,
      "velocity": 102,
      "chip": "ym2612"
    },
    {
      "channel": 1,
      "note": 73,
      "start": 73.2459,
      "duration": 0.0933,
      "velocity": 102,
      "chip": "ym2612"
    },
    {
      "channel": 3,
      "note": 49,
      "start": 73.2501,
      "duration": 0.0558,
      "velocity": 95,
      "chip": "ym2612"
    },
    {
      "channel": 4,
      "note": 69,
      "start": 73.3427,
      "duration": 0.08,
      "velocity": 102,
      "chip": "ym2612"
    },
    {
      "channel": 3,
      "note": 73,
      "start": 73.3456,
      "duration": 0.1104,
      "velocity": 102,
      "chip": "ym2612"
    },
    {
      "channel": 2,
      "note": 42,
      "start": 73.3494,
      "duration": 0.2069,
      "velocity": 125,
      "chip": "ym2612"
    },
    {
      "channel": 1,
      "note": 69,
      "start": 73.4598,
      "duration": 0.0629,
      "velocity": 102,
      "chip": "ym2612"
    },
    {
      "channel": 4,
      "note": 73,
      "start": 73.4628,
      "duration": 0.0933,
      "velocity": 102,
      "chip": "ym2612"
    },
    {
      "channel": 3,
      "note": 62,
      "start": 73.5595,
      "duration": 0.3968,
      "velocity": 102,
      "chip": "ym2612"
    },
    {
      "channel": 1,
      "note": 33,
      "start": 73.5641,
      "duration": 0.0753,
      "velocity": 124,
      "chip": "ym2612"
    },
    {
      "channel": 4,
      "note": 62,
      "start": 73.6766,
      "duration": 0.063,
      "velocity": 102,
      "chip": "ym2612"
    },
    {
      "channel": 1,
      "note": 34,
      "start": 73.681,
      "duration": 0.0584,
      "velocity": 124,
      "chip": "ym2612"
    },
    {
      "channel": 2,
      "note": 65,
      "start": 73.7766,
      "duration": 0.0013,
      "velocity": 102,
      "chip": "ym2612"
    },
    {
      "channel": 2,
      "note": 49,
      "start": 73.7806,
      "duration": 0.0256,
      "velocity": 106,
      "chip": "ym2612"
    },
    {
      "channel": 1,
      "note": 65,
      "start": 73.8936,
      "duration": 0.0625,
      "velocity": 102,
      "chip": "ym2612"
    },
    {
      "channel": 2,
      "note": 49,
      "start": 73.8972,
      "duration": 0.0592,
      "velocity": 106,
      "chip": "ym2612"
    },
    {
      "channel": 3,
      "note": 67,
      "start": 73.994,
      "duration": 0.0622,
      "velocity": 102,
      "chip": "ym2612"
    },
    {
      "channel": 4,
      "note": 72,
      "start": 73.9967,
      "duration": 0.0597,
      "velocity": 102,
      "chip": "ym2612"
    },
    {
      "channel": 2,
      "note": 49,
      "start": 74.0051,
      "duration": 0.1679,
      "velocity": 106,
      "chip": "ym2612"
    },
    {
      "channel": 1,
      "note": 68,
      "start": 74.1096,
      "duration": 0.0631,
      "velocity": 102,
      "chip": "ym2612"
    },
    {
      "channel": 3,
      "note": 72,
      "start": 74.1126,
      "duration": 0.0934,
      "velocity": 102,
      "chip": "ym2612"
    },
    {
      "channel": 4,
      "note": 68,
      "start": 74.2096,
      "duration": 0.0632,
      "velocity": 102,
      "chip": "ym2612"
    },
    {
      "channel": 1,
      "note": 72,
      "start": 74.2124,
      "duration": 0.1102,
      "velocity": 102,
      "chip": "ym2612"
    },
    {
      "channel": 2,
      "note": 49,
      "start": 74.2162,
      "duration": 0.1734,
      "velocity": 106,
      "chip": "ym2612"
    },
    {
      "channel": 3,
      "note": 68,
      "start": 74.3266,
      "duration": 0.0627,
      "velocity": 102,
      "chip": "ym2612"
    },
    {
      "channel": 4,
      "note": 72,
      "start": 74.3297,
      "duration": 0.0931,
      "velocity": 102,
      "chip": "ym2612"
    },
    {
      "channel": 1,
      "note": 62,
      "start": 74.4259,
      "duration": 0.3966,
      "velocity": 102,
      "chip": "ym2612"
    },
    {
      "channel": 3,
      "note": 42,
      "start": 74.4298,
      "duration": 0.2095,
      "velocity": 125,
      "chip": "ym2612"
    },
    {
      "channel": 2,
      "note": 65,
      "start": 74.5262,
      "duration": 0.08,
      "velocity": 102,
      "chip": "ym2612"
    },
    {
      "channel": 4,
      "note": 65,
      "start": 74.6428,
      "duration": 0.0633,
      "velocity": 102,
      "chip": "ym2612"
    },
    {
      "channel": 2,
      "note": 65,
      "start": 74.7431,
      "duration": 0.0798,
      "velocity": 102,
      "chip": "ym2612"
    },
    {
      "channel": 1,
      "note": 68,
      "start": 74.8591,
      "duration": 0.0969,
      "velocity": 102,
      "chip": "ym2612"
    },
    {
      "channel": 3,
      "note": 73,
      "start": 74.862,
      "duration": 0.0607,
      "velocity": 102,
      "chip": "ym2612"
    },
    {
      "channel": 4,
      "note": 69,
      "start": 74.9596,
      "duration": 0.0798,
      "velocity": 102,
      "chip": "ym2612"
    },
    {
      "channel": 2,
      "note": 73,
      "start": 74.9628,
      "duration": 0.11,
      "velocity": 102,
      "chip": "ym2612"
    },
    {
      "channel": 3,
      "note": 69,
      "start": 75.0761,
      "duration": 0.0634,
      "velocity": 102,
      "chip": "ym2612"
    },
    {
      "channel": 1,
      "note": 73,
      "start": 75.079,
      "duration": 0.0937,
      "velocity": 102,
      "chip": "ym2612"
    },
    {
      "channel": 2,
      "note": 49,
      "start": 75.0832,
      "duration": 0.0566,
      "velocity": 95,
      "chip": "ym2612"
    },
    {
      "channel": 4,
      "note": 69,
      "start": 75.1765,
      "duration": 0.0631,
      "velocity": 102,
      "chip": "ym2612"
    },
    {
      "channel": 3,
      "note": 73,
      "start": 75.1796,
      "duration": 0.1099,
      "velocity": 102,
      "chip": "ym2612"
    },
    {
      "channel": 2,
      "note": 49,
      "start": 75.1836,
      "duration": 0.0562,
      "velocity": 95,
      "chip": "ym2612"
    },
    {
      "channel": 1,
      "note": 62,
      "start": 75.2927,
      "duration": 0.3802,
      "velocity": 102,
      "chip": "ym2612"
    },
    {
      "channel": 4,
      "note": 42,
      "start": 75.2965,
      "duration": 0.2097,
      "velocity": 125,
      "chip": "ym2612"
    },
    {
      "channel": 2,
      "note": 62,
      "start": 75.3936,
      "duration": 0.0017,
      "velocity": 102,
      "chip": "ym2612"
    },
    {
      "channel": 2,
      "note": 49,
      "start": 75.3979,
      "duration": 0.0585,
      "velocity": 95,
      "chip": "ym2612"
    },
    {
      "channel": 3,
      "note": 65,
      "start": 75.5102,
      "duration": 0.0628,
      "velocity": 102,
      "chip": "ym2612"
    },
    {
      "channel": 2,
      "note": 49,
      "start": 75.5144,
      "duration": 0.0254,
      "velocity": 106,
      "chip": "ym2612"
    },
    {
      "channel": 4,
      "note": 65,
      "start": 75.6105,
      "duration": 0.0625,
      "velocity": 102,
      "chip": "ym2612"
    },
    {
      "channel": 2,
      "note": 49,
      "start": 75.614,
      "duration": 0.0592,
      "velocity": 106,
      "chip": "ym2612"
    },
    {
      "channel": 1,
      "note": 67,
      "start": 75.7107,
      "duration": 0.079,
      "velocity": 102,
      "chip": "ym2612"
    },
    {
      "channel": 3,
      "note": 72,
      "start": 75.7134,
      "duration": 0.0765,
      "velocity": 102,
      "chip": "ym2612"
    },
    {
      "channel": 0,
      "note": 46,
      "start": 75.7203,
      "duration": 3.3692,
      "velocity": 95,
      "chip": "ym2612"
    },
    {
      "channel": 2,
      "note": 49,
      "start": 75.7259,
      "duration": 0.3806,
      "velocity": 106,
      "chip": "ym2612"
    },
    {
      "channel": 4,
      "note": 68,
      "start": 75.8264,
      "duration": 0.0632,
      "velocity": 102,
      "chip": "ym2612"
    },
    {
      "channel": 1,
      "note": 72,
      "start": 75.8295,
      "duration": 0.0934,
      "velocity": 102,
      "chip": "ym2612"
    },
    {
      "channel": 3,
      "note": 68,
      "start": 75.9266,
      "duration": 0.0797,
      "velocity": 102,
      "chip": "ym2612"
    },
    {
      "channel": 4,
      "note": 72,
      "start": 75.9294,
      "duration": 0.11,
      "velocity": 102,
      "chip": "ym2612"
    },
    {
      "channel": 1,
      "note": 49,
      "start": 75.9331,
      "duration": 0.073,
      "velocity": 95,
      "chip": "ym2612"
    },
    {
      "channel": 1,
      "note": 68,
      "start": 76.0434,
      "duration": 0.0628,
      "velocity": 102,
      "chip": "ym2612"
    },
    {
      "channel": 3,
      "note": 72,
      "start": 76.0464,
      "duration": 0.0931,
      "velocity": 102,
      "chip": "ym2612"
    },
    {
      "channel": 4,
      "note": 49,
      "start": 76.0502,
      "duration": 0.0561,
      "velocity": 95,
      "chip": "ym2612"
    },
    {
      "channel": 5,
      "note": 62,
      "start": 76.1427,
      "duration": 0.3969,
      "velocity": 102,
      "chip": "ym2612"
    },
    {
      "channel": 4,
      "note": 49,
      "start": 76.1466,
      "duration": 0.0764,
      "velocity": 95,
      "chip": "ym2612"
    },
    {
      "channel": 1,
      "note": 46,
      "start": 76.1498,
      "duration": 2.9732,
      "velocity": 95,
      "chip": "ym2612"
    },
    {
      "channel": 2,
      "note": 42,
      "start": 76.1531,
      "duration": 0.17,
      "velocity": 125,
      "chip": "ym2612"
    },
    {
      "channel": 3,
      "note": 65,
      "start": 76.2595,
      "duration": 0.0633,
      "velocity": 102,
      "chip": "ym2612"
    },
    {
      "channel": 4,
      "note": 49,
      "start": 76.2637,
      "duration": 0.0592,
      "velocity": 95,
      "chip": "ym2612"
    },
    {
      "channel": 3,
      "note": 65,
      "start": 76.3595,
      "duration": 0.0632,
      "velocity": 102,
      "chip": "ym2612"
    },
    {
      "channel": 4,
      "note": 49,
      "start": 76.3632,
      "duration": 0.0596,
      "velocity": 95,
      "chip": "ym2612"
    },
    {
      "channel": 2,
      "note": 65,
      "start": 76.4765,
      "duration": 0.0632,
      "velocity": 102,
      "chip": "ym2612"
    },
    {
      "channel": 4,
      "note": 49,
      "start": 76.4805,
      "duration": 0.0589,
      "velocity": 95,
      "chip": "ym2612"
    },
    {
      "channel": 5,
      "note": 68,
      "start": 76.5759,
      "duration": 0.1135,
      "velocity": 102,
      "chip": "ym2612"
    },
    {
      "channel": 3,
      "note": 73,
      "start": 76.5787,
      "duration": 0.0606,
      "velocity": 102,
      "chip": "ym2612"
    },
    {
      "channel": 4,
      "note": 49,
      "start": 76.5827,
      "duration": 0.0568,
      "velocity": 95,
      "chip": "ym2612"
    },
    {
      "channel": 2,
      "note": 69,
      "start": 76.6929,
      "duration": 0.0632,
      "velocity": 102,
      "chip": "ym2612"
    },
    {
      "channel": 3,
      "note": 73,
      "start": 76.696,
      "duration": 0.0933,
      "velocity": 102,
      "chip": "ym2612"
    },
    {
      "channel": 4,
      "note": 49,
      "start": 76.6998,
      "duration": 0.0562,
      "velocity": 95,
      "chip": "ym2612"
    },
    {
      "channel": 5,
      "note": 69,
      "start": 76.7927,
      "duration": 0.0635,
      "velocity": 102,
      "chip": "ym2612"
    },
    {
      "channel": 4,
      "note": 73,
      "start": 76.7955,
      "duration": 0.0938,
      "velocity": 102,
      "chip": "ym2612"
    },
    {
      "channel": 2,
      "note": 49,
      "start": 76.7998,
      "duration": 0.0564,
      "velocity": 95,
      "chip": "ym2612"
    },
    {
      "channel": 3,
      "note": 42,
      "start": 76.8032,
      "duration": 0.2028,
      "velocity": 125,
      "chip": "ym2612"
    },
    {
      "channel": 5,
      "note": 69,
      "start": 76.8931,
      "duration": 0.0798,
      "velocity": 102,
      "chip": "ym2612"
    },
    {
      "channel": 2,
      "note": 73,
      "start": 76.8961,
      "duration": 0.1101,
      "velocity": 102,
      "chip": "ym2612"
    },
    {
      "channel": 4,
      "note": 49,
      "start": 76.9,
      "duration": 0.0728,
      "velocity": 95,
      "chip": "ym2612"
    },
    {
      "channel": 4,
      "note": 62,
      "start": 77.0094,
      "duration": 0.3969,
      "velocity": 102,
      "chip": "ym2612"
    },
    {
      "channel": 5,
      "note": 49,
      "start": 77.0129,
      "duration": 0.0599,
      "velocity": 95,
      "chip": "ym2612"
    },
    {
      "channel": 3,
      "note": 33,
      "start": 77.0171,
      "duration": 0.0555,
      "velocity": 124,
      "chip": "ym2612"
    },
    {
      "channel": 2,
      "note": 62,
      "start": 77.1101,
      "duration": 0.0796,
      "velocity": 102,
      "chip": "ym2612"
    },
    {
      "channel": 3,
      "note": 34,
      "start": 77.1145,
      "duration": 0.0749,
      "velocity": 124,
      "chip": "ym2612"
    },
    {
      "channel": 5,
      "note": 65,
      "start": 77.2266,
      "duration": 0.063,
      "velocity": 102,
      "chip": "ym2612"
    },
    {
      "channel": 2,
      "note": 49,
      "start": 77.2305,
      "duration": 0.0258,
      "velocity": 106,
      "chip": "ym2612"
    },
    {
      "channel": 3,
      "note": 65,
      "start": 77.3269,
      "duration": 0.0793,
      "velocity": 102,
      "chip": "ym2612"
    },
    {
      "channel": 2,
      "note": 49,
      "start": 77.3306,
      "duration": 0.076,
      "velocity": 106,
      "chip": "ym2612"
    },
    {
      "channel": 4,
      "note": 67,
      "start": 77.4439,
      "duration": 0.0623,
      "velocity": 102,
      "chip": "ym2612"
    },
    {
      "channel": 5,
      "note": 72,
      "start": 77.4467,
      "duration": 0.0597,
      "velocity": 102,
      "chip": "ym2612"
    },
    {
      "channel": 2,
      "note": 49,
      "start": 77.4551,
      "duration": 0.1513,
      "velocity": 106,
      "chip": "ym2612"
    },
    {
      "channel": 3,
      "note": 68,
      "start": 77.543,
      "duration": 0.0632,
      "velocity": 102,
      "chip": "ym2612"
    },
    {
      "channel": 4,
      "note": 72,
      "start": 77.546,
      "duration": 0.1102,
      "velocity": 102,
      "chip": "ym2612"
    },
    {
      "channel": 5,
      "note": 68,
      "start": 77.6598,
      "duration": 0.0632,
      "velocity": 102,
      "chip": "ym2612"
    },
    {
      "channel": 3,
      "note": 72,
      "start": 77.6626,
      "duration": 0.0933,
      "velocity": 102,
      "chip": "ym2612"
    },
    {
      "channel": 2,
      "note": 49,
      "start": 77.6664,
      "duration": 0.1565,
      "velocity": 106,
      "chip": "ym2612"
    },
    {
      "channel": 4,
      "note": 68,
      "start": 77.7599,
      "duration": 0.0629,
      "velocity": 102,
      "chip": "ym2612"
    },
    {
      "channel": 5,
      "note": 72,
      "start": 77.7629,
      "duration": 0.1098,
      "velocity": 102,
      "chip": "ym2612"
    },
    {
      "channel": 3,
      "note": 62,
      "start": 77.8759,
      "duration": 0.3801,
      "velocity": 102,
      "chip": "ym2612"
    },
    {
      "channel": 4,
      "note": 42,
      "start": 77.8798,
      "duration": 0.1929,
      "velocity": 125,
      "chip": "ym2612"
    },
    {
      "channel": 2,
      "note": 65,
      "start": 77.9761,
      "duration": 0.0634,
      "velocity": 102,
      "chip": "ym2612"
    },
    {
      "channel": 5,
      "note": 65,
      "start": 78.0761,
      "duration": 0.08,
      "velocity": 102,
      "chip": "ym2612"
    },
    {
      "channel": 2,
      "note": 65,
      "start": 78.1931,
      "duration": 0.0632,
      "velocity": 102,
      "chip": "ym2612"
    },
    {
      "channel": 3,
      "note": 68,
      "start": 78.2925,
      "duration": 0.1135,
      "velocity": 102,
      "chip": "ym2612"
    },
    {
      "channel": 4,
      "note": 73,
      "start": 78.2954,
      "duration": 0.0774,
      "velocity": 102,
      "chip": "ym2612"
    },
    {
      "channel": 5,
      "note": 69,
      "start": 78.4096,
      "duration": 0.0632,
      "velocity": 102,
      "chip": "ym2612"
    },
    {
      "channel": 2,
      "note": 73,
      "start": 78.4127,
      "duration": 0.0934,
      "velocity": 102,
      "chip": "ym2612"
    },
    {
      "channel": 4,
      "note": 69,
      "start": 78.5095,
      "duration": 0.0801,
      "velocity": 102,
      "chip": "ym2612"
    },
    {
      "channel": 3,
      "note": 73,
      "start": 78.5123,
      "duration": 0.1105,
      "velocity": 102,
      "chip": "ym2612"
    },
    {
      "channel": 2,
      "note": 49,
      "start": 78.5165,
      "duration": 0.0733,
      "velocity": 95,
      "chip": "ym2612"
    },
    {
      "channel": 5,
      "note": 69,
      "start": 78.6266,
      "duration": 0.063,
      "velocity": 102,
      "chip": "ym2612"
    },
    {
      "channel": 4,
      "note": 73,
      "start": 78.6296,
      "duration": 0.0933,
      "velocity": 102,
      "chip": "ym2612"
    },
    {
      "channel": 2,
      "note": 49,
      "start": 78.6336,
      "duration": 0.0562,
      "velocity": 95,
      "chip": "ym2612"
    },
    {
      "channel": 3,
      "note": 62,
      "start": 78.7261,
      "duration": 0.3971,
      "velocity": 102,
      "chip": "ym2612"
    },
    {
      "channel": 5,
      "note": 42,
      "start": 78.7299,
      "duration": 0.2097,
      "velocity": 125,
      "chip": "ym2612"
    },
    {
      "channel": 2,
      "note": 62,
      "start": 78.8435,
      "duration": 0.0628,
      "velocity": 102,
      "chip": "ym2612"
    },
    {
      "channel": 4,
      "note": 65,
      "start": 78.9435,
      "duration": 0.0628,
      "velocity": 102,
      "chip": "ym2612"
    },
    {
      "channel": 2,
      "note": 49,
      "start": 78.9478,
      "duration": 0.0253,
      "velocity": 106,
      "chip": "ym2612"
    },
    {
      "channel": 5,
      "note": 65,
      "start": 79.0605,
      "duration": 0.0628,
      "velocity": 102,
      "chip": "ym2612"
    },
    {
      "channel": 2,
      "note": 49,
      "start": 79.0641,
      "duration": 0.0593,
      "velocity": 106,
      "chip": "ym2612"
    },
    {
      "channel": 3,
      "note": 70,
      "start": 79.1602,
      "duration": 0.0628,
      "velocity": 102,
      "chip": "ym2612"
    },
    {
      "channel": 4,
      "note": 75,
      "start": 79.1629,
      "duration": 0.0602,
      "velocity": 102,
      "chip": "ym2612"
    },
    {
      "channel": 0,
      "note": 49,
      "start": 79.1706,
      "duration": 3.3521,
      "velocity": 95,
      "chip": "ym2612"
    },
    {
      "channel": 2,
      "note": 49,
      "start": 79.1787,
      "duration": 0.3778,
      "velocity": 106,
      "chip": "ym2612"
    },
    {
      "channel": 1,
      "note": 71,
      "start": 79.2601,
      "duration": 0.0795,
      "velocity": 102,
      "chip": "ym2612"
    },
    {
      "channel": 5,
      "note": 75,
      "start": 79.2631,
      "duration": 0.1099,
      "velocity": 102,
      "chip": "ym2612"
    },
    {
      "channel": 3,
      "note": 71,
      "start": 79.3767,
      "duration": 0.063,
      "velocity": 102,
      "chip": "ym2612"
    },
    {
      "channel": 4,
      "note": 75,
      "start": 79.3795,
      "duration": 0.0934,
      "velocity": 102,
      "chip": "ym2612"
    },
    {
      "channel": 1,
      "note": 52,
      "start": 79.3828,
      "duration": 0.0568,
      "velocity": 95,
      "chip": "ym2612"
    },
    {
      "channel": 5,
      "note": 71,
      "start": 79.4771,
      "duration": 0.0794,
      "velocity": 102,
      "chip": "ym2612"
    },
    {
      "channel": 1,
      "note": 75,
      "start": 79.4801,
      "duration": 0.1094,
      "velocity": 102,
      "chip": "ym2612"
    },
    {
      "channel": 3,
      "note": 50,
      "start": 79.4842,
      "duration": 0.0721,
      "velocity": 95,
      "chip": "ym2612"
    },
    {
      "channel": 4,
      "note": 65,
      "start": 79.5927,
      "duration": 0.3801,
      "velocity": 102,
      "chip": "ym2612"
    },
    {
      "channel": 3,
      "note": 52,
      "start": 79.5967,
      "duration": 0.0596,
      "velocity": 95,
      "chip": "ym2612"
    },
    {
      "channel": 5,
      "note": 49,
      "start": 79.5998,
      "duration": 3.3566,
      "velocity": 95,
      "chip": "ym2612"
    },
    {
      "channel": 2,
      "note": 45,
      "start": 79.6032,
      "duration": 0.17,
      "velocity": 125,
      "chip": "ym2612"
    },
    {
      "channel": 1,
      "note": 68,
      "start": 79.6932,
      "duration": 0.0795,
      "velocity": 102,
      "chip": "ym2612"
    },
    {
      "channel": 3,
      "note": 52,
      "start": 79.6974,
      "duration": 0.0754,
      "velocity": 95,
      "chip": "ym2612"
    },
    {
      "channel": 1,
      "note": 68,
      "start": 79.8098,
      "duration": 0.0628,
      "velocity": 102,
      "chip": "ym2612"
    },
    {
      "channel": 3,
      "note": 52,
      "start": 79.8136,
      "duration": 0.0592,
      "velocity": 95,
      "chip": "ym2612"
    },
    {
      "channel": 2,
      "note": 68,
      "start": 79.9102,
      "duration": 0.0628,
      "velocity": 102,
      "chip": "ym2612"
    },
    {
      "channel": 3,
      "note": 52,
      "start": 79.9141,
      "duration": 0.0585,
      "velocity": 95,
      "chip": "ym2612"
    },
    {
      "channel": 4,
      "note": 71,
      "start": 80.0257,
      "duration": 0.0969,
      "velocity": 102,
      "chip": "ym2612"
    },
    {
      "channel": 1,
      "note": 76,
      "start": 80.0286,
      "duration": 0.0607,
      "velocity": 102,
      "chip": "ym2612"
    },
    {
      "channel": 3,
      "note": 52,
      "start": 80.0325,
      "duration": 0.0569,
      "velocity": 95,
      "chip": "ym2612"
    },
    {
      "channel": 2,
      "note": 72,
      "start": 80.1262,
      "duration": 0.0634,
      "velocity": 102,
      "chip": "ym2612"
    },
    {
      "channel": 1,
      "note": 76,
      "start": 80.1292,
      "duration": 0.0933,
      "velocity": 102,
      "chip": "ym2612"
    },
    {
      "channel": 3,
      "note": 52,
      "start": 80.1331,
      "duration": 0.0563,
      "velocity": 95,
      "chip": "ym2612"
    },
    {
      "channel": 4,
      "note": 72,
      "start": 80.2261,
      "duration": 0.08,
      "velocity": 102,
      "chip": "ym2612"
    },
    {
      "channel": 3,
      "note": 76,
      "start": 80.2289,
      "duration": 0.1104,
      "velocity": 102,
      "chip": "ym2612"
    },
    {
      "channel": 2,
      "note": 45,
      "start": 80.2327,
      "duration": 0.2068,
      "velocity": 125,
      "chip": "ym2612"
    },
    {
      "channel": 1,
      "note": 72,
      "start": 80.3431,
      "duration": 0.0628,
      "velocity": 102,
      "chip": "ym2612"
    },
    {
      "channel": 4,
      "note": 76,
      "start": 80.3461,
      "duration": 0.0932,
      "velocity": 102,
      "chip": "ym2612"
    },
    {
      "channel": 3,
      "note": 65,
      "start": 80.4431,
      "duration": 0.3964,
      "velocity": 102,
      "chip": "ym2612"
    },
    {
      "channel": 1,
      "note": 33,
      "start": 80.4478,
      "duration": 0.0749,
      "velocity": 124,
      "chip": "ym2612"
    },
    {
      "channel": 4,
      "note": 65,
      "start": 80.5595,
      "duration": 0.0634,
      "velocity": 102,
      "chip": "ym2612"
    },
    {
      "channel": 1,
      "note": 34,
      "start": 80.5638,
      "duration": 0.0588,
      "velocity": 124,
      "chip": "ym2612"
    },
    {
      "channel": 2,
      "note": 68,
      "start": 80.6594,
      "duration": 0.0017,
      "velocity": 102,
      "chip": "ym2612"
    },
    {
      "channel": 2,
      "note": 49,
      "start": 80.6638,
      "duration": 0.0259,
      "velocity": 106,
      "chip": "ym2612"
    },
    {
      "channel": 1,
      "note": 68,
      "start": 80.7765,
      "duration": 0.0628,
      "velocity": 102,
      "chip": "ym2612"
    },
    {
      "channel": 2,
      "note": 49,
      "start": 80.7801,
      "duration": 0.0597,
      "velocity": 106,
      "chip": "ym2612"
    },
    {
      "channel": 3,
      "note": 70,
      "start": 80.8759,
      "duration": 0.0803,
      "velocity": 102,
      "chip": "ym2612"
    },
    {
      "channel": 4,
      "note": 75,
      "start": 80.8786,
      "duration": 0.0777,
      "velocity": 102,
      "chip": "ym2612"
    },
    {
      "channel": 2,
      "note": 49,
      "start": 80.8827,
      "duration": 0.1736,
      "velocity": 106,
      "chip": "ym2612"
    },
    {
      "channel": 1,
      "note": 71,
      "start": 80.9929,
      "duration": 0.063,
      "velocity": 102,
      "chip": "ym2612"
    },
    {
      "channel": 3,
      "note": 75,
      "start": 80.996,
      "duration": 0.0934,
      "velocity": 102,
      "chip": "ym2612"
    },
    {
      "channel": 4,
      "note": 71,
      "start": 81.0928,
      "duration": 0.0633,
      "velocity": 102,
      "chip": "ym2612"
    },
    {
      "channel": 1,
      "note": 75,
      "start": 81.0956,
      "duration": 0.1103,
      "velocity": 102,
      "chip": "ym2612"
    },
    {
      "channel": 2,
      "note": 49,
      "start": 81.0994,
      "duration": 0.1736,
      "velocity": 106,
      "chip": "ym2612"
    },
    {
      "channel": 3,
      "note": 71,
      "start": 81.2098,
      "duration": 0.063,
      "velocity": 102,
      "chip": "ym2612"
    },
    {
      "channel": 4,
      "note": 75,
      "start": 81.2129,
      "duration": 0.0931,
      "velocity": 102,
      "chip": "ym2612"
    },
    {
      "channel": 1,
      "note": 65,
      "start": 81.3092,
      "duration": 0.3968,
      "velocity": 102,
      "chip": "ym2612"
    },
    {
      "channel": 3,
      "note": 45,
      "start": 81.3131,
      "duration": 0.2097,
      "velocity": 125,
      "chip": "ym2612"
    },
    {
      "channel": 2,
      "note": 68,
      "start": 81.4095,
      "duration": 0.0801,
      "velocity": 102,
      "chip": "ym2612"
    },
    {
      "channel": 4,
      "note": 68,
      "start": 81.5262,
      "duration": 0.0633,
      "velocity": 102,
      "chip": "ym2612"
    },
    {
      "channel": 2,
      "note": 68,
      "start": 81.6264,
      "duration": 0.0798,
      "velocity": 102,
      "chip": "ym2612"
    },
    {
      "channel": 1,
      "note": 68,
      "start": 81.7425,
      "duration": 0.097,
      "velocity": 102,
      "chip": "ym2612"
    },
    {
      "channel": 3,
      "note": 76,
      "start": 81.7453,
      "duration": 0.0606,
      "velocity": 102,
      "chip": "ym2612"
    },
    {
      "channel": 4,
      "note": 72,
      "start": 81.8434,
      "duration": 0.0793,
      "velocity": 102,
      "chip": "ym2612"
    },
    {
      "channel": 2,
      "note": 76,
      "start": 81.8465,
      "duration": 0.1097,
      "velocity": 102,
      "chip": "ym2612"
    },
    {
      "channel": 3,
      "note": 72,
      "start": 81.9598,
      "duration": 0.063,
      "velocity": 102,
      "chip": "ym2612"
    },
    {
      "channel": 1,
      "note": 76,
      "start": 81.9626,
      "duration": 0.0934,
      "velocity": 102,
      "chip": "ym2612"
    },
    {
      "channel": 2,
      "note": 49,
      "start": 81.9668,
      "duration": 0.0562,
      "velocity": 95,
      "chip": "ym2612"
    },
    {
      "channel": 4,
      "note": 72,
      "start": 82.0602,
      "duration": 0.0793,
      "velocity": 102,
      "chip": "ym2612"
    },
    {
      "channel": 3,
      "note": 76,
      "start": 82.0633,
      "duration": 0.1095,
      "velocity": 102,
      "chip": "ym2612"
    },
    {
      "channel": 2,
      "note": 49,
      "start": 82.0673,
      "duration": 0.0724,
      "velocity": 95,
      "chip": "ym2612"
    },
    {
      "channel": 1,
      "note": 65,
      "start": 82.1764,
      "duration": 0.3798,
      "velocity": 102,
      "chip": "ym2612"
    },
    {
      "channel": 4,
      "note": 45,
      "start": 82.1803,
      "duration": 0.2092,
      "velocity": 125,
      "chip": "ym2612"
    },
    {
      "channel": 2,
      "note": 65,
      "start": 82.2764,
      "duration": 0.0016,
      "velocity": 102,
      "chip": "ym2612"
    },
    {
      "channel": 2,
      "note": 49,
      "start": 82.2806,
      "duration": 0.0591,
      "velocity": 95,
      "chip": "ym2612"
    },
    {
      "channel": 3,
      "note": 68,
      "start": 82.3929,
      "duration": 0.0634,
      "velocity": 102,
      "chip": "ym2612"
    },
    {
      "channel": 2,
      "note": 49,
      "start": 82.3968,
      "duration": 0.0263,
      "velocity": 106,
      "chip": "ym2612"
    },
    {
      "channel": 4,
      "note": 68,
      "start": 82.4932,
      "duration": 0.0632,
      "velocity": 102,
      "chip": "ym2612"
    },
    {
      "channel": 2,
      "note": 49,
      "start": 82.4968,
      "duration": 0.0597,
      "velocity": 106,
      "chip": "ym2612"
    },
    {
      "channel": 1,
      "note": 72,
      "start": 82.5926,
      "duration": 0.0803,
      "velocity": 102,
      "chip": "ym2612"
    },
    {
      "channel": 3,
      "note": 77,
      "start": 82.5953,
      "duration": 0.0777,
      "velocity": 102,
      "chip": "ym2612"
    },
    {
      "channel": 0,
      "note": 51,
      "start": 82.5981,
      "duration": 3.3747,
      "velocity": 95,
      "chip": "ym2612"
    },
    {
      "channel": 2,
      "note": 49,
      "start": 82.603,
      "duration": 0.3868,
      "velocity": 106,
      "chip": "ym2612"
    },
    {
      "channel": 4,
      "note": 73,
      "start": 82.7097,
      "duration": 0.0632,
      "velocity": 102,
      "chip": "ym2612"
    },
    {
      "channel": 1,
      "note": 77,
      "start": 82.7128,
      "duration": 0.0934,
      "velocity": 102,
      "chip": "ym2612"
    },
    {
      "channel": 3,
      "note": 73,
      "start": 82.8096,
      "duration": 0.0799,
      "velocity": 102,
      "chip": "ym2612"
    },
    {
      "channel": 4,
      "note": 77,
      "start": 82.8124,
      "duration": 0.1104,
      "velocity": 102,
      "chip": "ym2612"
    },
    {
      "channel": 1,
      "note": 54,
      "start": 82.8161,
      "duration": 0.0733,
      "velocity": 95,
      "chip": "ym2612"
    },
    {
      "channel": 1,
      "note": 73,
      "start": 82.9266,
      "duration": 0.063,
      "velocity": 102,
      "chip": "ym2612"
    },
    {
      "channel": 3,
      "note": 77,
      "start": 82.9296,
      "duration": 0.0933,
      "velocity": 102,
      "chip": "ym2612"
    },
    {
      "channel": 4,
      "note": 54,
      "start": 82.9332,
      "duration": 0.0566,
      "velocity": 95,
      "chip": "ym2612"
    },
    {
      "channel": 5,
      "note": 67,
      "start": 83.0261,
      "duration": 0.3968,
      "velocity": 102,
      "chip": "ym2612"
    },
    {
      "channel": 4,
      "note": 53,
      "start": 83.0301,
      "duration": 0.0763,
      "velocity": 95,
      "chip": "ym2612"
    },
    {
      "channel": 1,
      "note": 51,
      "start": 83.0332,
      "duration": 3.3729,
      "velocity": 95,
      "chip": "ym2612"
    },
    {
      "channel": 2,
      "note": 45,
      "start": 83.0366,
      "duration": 0.1699,
      "velocity": 125,
      "chip": "ym2612"
    },
    {
      "channel": 3,
      "note": 70,
      "start": 83.1429,
      "duration": 0.0632,
      "velocity": 102,
      "chip": "ym2612"
    },
    {
      "channel": 4,
      "note": 54,
      "start": 83.1468,
      "duration": 0.0595,
      "velocity": 95,
      "chip": "ym2612"
    },
    {
      "channel": 3,
      "note": 70,
      "start": 83.2429,
      "duration": 0.0799,
      "velocity": 102,
      "chip": "ym2612"
    },
    {
      "channel": 4,
      "note": 54,
      "start": 83.247,
      "duration": 0.0759,
      "velocity": 95,
      "chip": "ym2612"
    },
    {
      "channel": 2,
      "note": 70,
      "start": 83.3597,
      "duration": 0.0634,
      "velocity": 102,
      "chip": "ym2612"
    },
    {
      "channel": 4,
      "note": 54,
      "start": 83.3633,
      "duration": 0.0594,
      "velocity": 95,
      "chip": "ym2612"
    },
    {
      "channel": 5,
      "note": 73,
      "start": 83.4593,
      "duration": 0.1135,
      "velocity": 102,
      "chip": "ym2612"
    },
    {
      "channel": 3,
      "note": 78,
      "start": 83.4621,
      "duration": 0.0607,
      "velocity": 102,
      "chip": "ym2612"
    },
    {
      "channel": 4,
      "note": 54,
      "start": 83.4661,
      "duration": 0.0569,
      "velocity": 95,
      "chip": "ym2612"
    },
    {
      "channel": 2,
      "note": 74,
      "start": 83.5762,
      "duration": 0.0633,
      "velocity": 102,
      "chip": "ym2612"
    },
    {
      "channel": 3,
      "note": 78,
      "start": 83.5797,
      "duration": 0.0929,
      "velocity": 102,
      "chip": "ym2612"
    },
    {
      "channel": 4,
      "note": 54,
      "start": 83.5839,
      "duration": 0.0555,
      "velocity": 95,
      "chip": "ym2612"
    },
    {
      "channel": 5,
      "note": 74,
      "start": 83.676,
      "duration": 0.0634,
      "velocity": 102,
      "chip": "ym2612"
    },
    {
      "channel": 4,
      "note": 78,
      "start": 83.6792,
      "duration": 0.0934,
      "velocity": 102,
      "chip": "ym2612"
    },
    {
      "channel": 2,
      "note": 54,
      "start": 83.6832,
      "duration": 0.0564,
      "velocity": 95,
      "chip": "ym2612"
    },
    {
      "channel": 3,
      "note": 45,
      "start": 83.6866,
      "duration": 0.2029,
      "velocity": 125,
      "chip": "ym2612"
    },
    {
      "channel": 5,
      "note": 74,
      "start": 83.7764,
      "duration": 0.0797,
      "velocity": 102,
      "chip": "ym2612"
    },
    {
      "channel": 2,
      "note": 78,
      "start": 83.7799,
      "duration": 0.1097,
      "velocity": 102,
      "chip": "ym2612"
    },
    {
      "channel": 4,
      "note": 54,
      "start": 83.784,
      "duration": 0.072,
      "velocity": 95,
      "chip": "ym2612"
    },
    {
      "channel": 4,
      "note": 67,
      "start": 83.8928,
      "duration": 0.3968,
      "velocity": 102,
      "chip": "ym2612"
    },
    {
      "channel": 5,
      "note": 54,
      "start": 83.8968,
      "duration": 0.0594,
      "velocity": 95,
      "chip": "ym2612"
    },
    {
      "channel": 3,
      "note": 33,
      "start": 83.9012,
      "duration": 0.0549,
      "velocity": 124,
      "chip": "ym2612"
    },
    {
      "channel": 2,
      "note": 67,
      "start": 83.9928,
      "duration": 0.0801,
      "velocity": 102,
      "chip": "ym2612"
    },
    {
      "channel": 3,
      "note": 34,
      "start": 83.9972,
      "duration": 0.0755,
      "velocity": 124,
      "chip": "ym2612"
    },
    {
      "channel": 5,
      "note": 70,
      "start": 84.1094,
      "duration": 0.0635,
      "velocity": 102,
      "chip": "ym2612"
    },
    {
      "channel": 2,
      "note": 49,
      "start": 84.114,
      "duration": 0.0256,
      "velocity": 106,
      "chip": "ym2612"
    },
    {
      "channel": 3,
      "note": 70,
      "start": 84.2098,
      "duration": 0.0797,
      "velocity": 102,
      "chip": "ym2612"
    },
    {
      "channel": 2,
      "note": 49,
      "start": 84.2133,
      "duration": 0.0765,
      "velocity": 106,
      "chip": "ym2612"
    },
    {
      "channel": 4,
      "note": 72,
      "start": 84.3264,
      "duration": 0.0632,
      "velocity": 102,
      "chip": "ym2612"
    },
    {
      "channel": 5,
      "note": 77,
      "start": 84.329,
      "duration": 0.0606,
      "velocity": 102,
      "chip": "ym2612"
    },
    {
      "channel": 2,
      "note": 49,
      "start": 84.3332,
      "duration": 0.1564,
      "velocity": 106,
      "chip": "ym2612"
    },
    {
      "channel": 3,
      "note": 73,
      "start": 84.4261,
      "duration": 0.0634,
      "velocity": 102,
      "chip": "ym2612"
    },
    {
      "channel": 4,
      "note": 77,
      "start": 84.4291,
      "duration": 0.1103,
      "velocity": 102,
      "chip": "ym2612"
    },
    {
      "channel": 5,
      "note": 73,
      "start": 84.5428,
      "duration": 0.0635,
      "velocity": 102,
      "chip": "ym2612"
    },
    {
      "channel": 3,
      "note": 77,
      "start": 84.5456,
      "duration": 0.0936,
      "velocity": 102,
      "chip": "ym2612"
    },
    {
      "channel": 2,
      "note": 49,
      "start": 84.5494,
      "duration": 0.1568,
      "velocity": 106,
      "chip": "ym2612"
    },
    {
      "channel": 4,
      "note": 73,
      "start": 84.643,
      "duration": 0.063,
      "velocity": 102,
      "chip": "ym2612"
    },
    {
      "channel": 5,
      "note": 77,
      "start": 84.6461,
      "duration": 0.1099,
      "velocity": 102,
      "chip": "ym2612"
    },
    {
      "channel": 3,
      "note": 67,
      "start": 84.7592,
      "duration": 0.3801,
      "velocity": 102,
      "chip": "ym2612"
    },
    {
      "channel": 4,
      "note": 45,
      "start": 84.763,
      "duration": 0.1931,
      "velocity": 125,
      "chip": "ym2612"
    },
    {
      "channel": 2,
      "note": 70,
      "start": 84.8596,
      "duration": 0.0633,
      "velocity": 102,
      "chip": "ym2612"
    },
    {
      "channel": 5,
      "note": 70,
      "start": 84.9595,
      "duration": 0.08,
      "velocity": 102,
      "chip": "ym2612"
    },
    {
      "channel": 2,
      "note": 70,
      "start": 85.0764,
      "duration": 0.0632,
      "velocity": 102,
      "chip": "ym2612"
    },
    {
      "channel": 3,
      "note": 70,
      "start": 85.1758,
      "duration": 0.1136,
      "velocity": 102,
      "chip": "ym2612"
    },
    {
      "channel": 4,
      "note": 78,
      "start": 85.1787,
      "duration": 0.0775,
      "velocity": 102,
      "chip": "ym2612"
    },
    {
      "channel": 5,
      "note": 74,
      "start": 85.2929,
      "duration": 0.0632,
      "velocity": 102,
      "chip": "ym2612"
    },
    {
      "channel": 2,
      "note": 78,
      "start": 85.2964,
      "duration": 0.0931,
      "velocity": 102,
      "chip": "ym2612"
    },
    {
      "channel": 4,
      "note": 74,
      "start": 85.3929,
      "duration": 0.0801,
      "velocity": 102,
      "chip": "ym2612"
    },
    {
      "channel": 3,
      "note": 78,
      "start": 85.3961,
      "duration": 0.11,
      "velocity": 102,
      "chip": "ym2612"
    },
    {
      "channel": 2,
      "note": 49,
      "start": 85.4002,
      "duration": 0.0728,
      "velocity": 95,
      "chip": "ym2612"
    },
    {
      "channel": 5,
      "note": 74,
      "start": 85.5099,
      "duration": 0.063,
      "velocity": 102,
      "chip": "ym2612"
    },
    {
      "channel": 4,
      "note": 78,
      "start": 85.5133,
      "duration": 0.0928,
      "velocity": 102,
      "chip": "ym2612"
    },
    {
      "channel": 2,
      "note": 49,
      "start": 85.5173,
      "duration": 0.0558,
      "velocity": 95,
      "chip": "ym2612"
    },
    {
      "channel": 3,
      "note": 67,
      "start": 85.6093,
      "duration": 0.397,
      "velocity": 102,
      "chip": "ym2612"
    },
    {
      "channel": 5,
      "note": 45,
      "start": 85.6132,
      "duration": 0.2097,
      "velocity": 125,
      "chip": "ym2612"
    },
    {
      "channel": 2,
      "note": 67,
      "start": 85.7264,
      "duration": 0.0634,
      "velocity": 102,
      "chip": "ym2612"
    },
    {
      "channel": 4,
      "note": 70,
      "start": 85.8264,
      "duration": 0.0632,
      "velocity": 102,
      "chip": "ym2612"
    },
    {
      "channel": 2,
      "note": 49,
      "start": 85.8307,
      "duration": 0.0256,
      "velocity": 106,
      "chip": "ym2612"
    },
    {
      "channel": 5,
      "note": 70,
      "start": 85.9434,
      "duration": 0.0632,
      "velocity": 102,
      "chip": "ym2612"
    },
    {
      "channel": 2,
      "note": 49,
      "start": 85.947,
      "duration": 0.0597,
      "velocity": 106,
      "chip": "ym2612"
    },
    {
      "channel": 3,
      "note": 67,
      "start": 86.0434,
      "duration": 0.0629,
      "velocity": 102,
      "chip": "ym2612"
    },
    {
      "channel": 4,
      "note": 72,
      "start": 86.0461,
      "duration": 0.0604,
      "velocity": 102,
      "chip": "ym2612"
    },
    {
      "channel": 0,
      "note": 46,
      "start": 86.0509,
      "duration": 3.3553,
      "velocity": 95,
      "chip": "ym2612"
    },
    {
      "channel": 2,
      "note": 49,
      "start": 86.0565,
      "duration": 0.3833,
      "velocity": 106,
      "chip": "ym2612"
    },
    {
      "channel": 5,
      "note": 68,
      "start": 86.1432,
      "duration": 0.0798,
      "velocity": 102,
      "chip": "ym2612"
    },
    {
      "channel": 3,
      "note": 72,
      "start": 86.1462,
      "duration": 0.11,
      "velocity": 102,
      "chip": "ym2612"
    },
    {
      "channel": 4,
      "note": 68,
      "start": 86.2598,
      "duration": 0.0633,
      "velocity": 102,
      "chip": "ym2612"
    },
    {
      "channel": 5,
      "note": 72,
      "start": 86.2626,
      "duration": 0.0938,
      "velocity": 102,
      "chip": "ym2612"
    },
    {
      "channel": 3,
      "note": 49,
      "start": 86.2665,
      "duration": 0.0564,
      "velocity": 95,
      "chip": "ym2612"
    },
    {
      "channel": 3,
      "note": 68,
      "start": 86.3602,
      "duration": 0.0793,
      "velocity": 102,
      "chip": "ym2612"
    },
    {
      "channel": 4,
      "note": 72,
      "start": 86.3633,
      "duration": 0.1097,
      "velocity": 102,
      "chip": "ym2612"
    },
    {
      "channel": 5,
      "note": 47,
      "start": 86.3673,
      "duration": 0.0723,
      "velocity": 95,
      "chip": "ym2612"
    },
    {
      "channel": 1,
      "note": 62,
      "start": 86.4761,
      "duration": 0.3798,
      "velocity": 102,
      "chip": "ym2612"
    },
    {
      "channel": 5,
      "note": 49,
      "start": 86.4801,
      "duration": 0.0595,
      "velocity": 95,
      "chip": "ym2612"
    },
    {
      "channel": 3,
      "note": 46,
      "start": 86.483,
      "duration": 3.3564,
      "velocity": 95,
      "chip": "ym2612"
    },
    {
      "channel": 2,
      "note": 45,
      "start": 86.4863,
      "duration": 0.1702,
      "velocity": 125,
      "chip": "ym2612"
    },
    {
      "channel": 4,
      "note": 65,
      "start": 86.5762,
      "duration": 0.0799,
      "velocity": 102,
      "chip": "ym2612"
    },
    {
      "channel": 5,
      "note": 49,
      "start": 86.5801,
      "duration": 0.0761,
      "velocity": 95,
      "chip": "ym2612"
    },
    {
      "channel": 4,
      "note": 65,
      "start": 86.6929,
      "duration": 0.0633,
      "velocity": 102,
      "chip": "ym2612"
    },
    {
      "channel": 5,
      "note": 49,
      "start": 86.6971,
      "duration": 0.0592,
      "velocity": 95,
      "chip": "ym2612"
    },
    {
      "channel": 2,
      "note": 65,
      "start": 86.793,
      "duration": 0.0633,
      "velocity": 102,
      "chip": "ym2612"
    },
    {
      "channel": 5,
      "note": 49,
      "start": 86.7968,
      "duration": 0.0594,
      "velocity": 95,
      "chip": "ym2612"
    },
    {
      "channel": 1,
      "note": 68,
      "start": 86.9091,
      "duration": 0.0968,
      "velocity": 102,
      "chip": "ym2612"
    },
    {
      "channel": 4,
      "note": 73,
      "start": 86.9119,
      "duration": 0.0607,
      "velocity": 102,
      "chip": "ym2612"
    },
    {
      "channel": 5,
      "note": 49,
      "start": 86.9163,
      "duration": 0.0565,
      "velocity": 95,
      "chip": "ym2612"
    },
    {
      "channel": 2,
      "note": 69,
      "start": 87.0098,
      "duration": 0.063,
      "velocity": 102,
      "chip": "ym2612"
    },
    {
      "channel": 4,
      "note": 73,
      "start": 87.0129,
      "duration": 0.1097,
      "velocity": 102,
      "chip": "ym2612"
    },
    {
      "channel": 5,
      "note": 49,
      "start": 87.0169,
      "duration": 0.0559,
      "velocity": 95,
      "chip": "ym2612"
    },
    {
      "channel": 1,
      "note": 69,
      "start": 87.1264,
      "duration": 0.0628,
      "velocity": 102,
      "chip": "ym2612"
    },
    {
      "channel": 5,
      "note": 73,
      "start": 87.1293,
      "duration": 0.0935,
      "velocity": 102,
      "chip": "ym2612"
    },
    {
      "channel": 2,
      "note": 45,
      "start": 87.1331,
      "duration": 0.1898,
      "velocity": 125,
      "chip": "ym2612"
    },
    {
      "channel": 4,
      "note": 69,
      "start": 87.2268,
      "duration": 0.0626,
      "velocity": 102,
      "chip": "ym2612"
    },
    {
      "channel": 1,
      "note": 73,
      "start": 87.2299,
      "duration": 0.0927,
      "velocity": 102,
      "chip": "ym2612"
    },
    {
      "channel": 5,
      "note": 62,
      "start": 87.3264,
      "duration": 0.3965,
      "velocity": 102,
      "chip": "ym2612"
    },
    {
      "channel": 4,
      "note": 33,
      "start": 87.3312,
      "duration": 0.0749,
      "velocity": 124,
      "chip": "ym2612"
    },
    {
      "channel": 1,
      "note": 62,
      "start": 87.443,
      "duration": 0.063,
      "velocity": 102,
      "chip": "ym2612"
    },
    {
      "channel": 4,
      "note": 34,
      "start": 87.4474,
      "duration": 0.0587,
      "velocity": 124,
      "chip": "ym2612"
    },
    {
      "channel": 2,
      "note": 65,
      "start": 87.5429,
      "duration": 0.0013,
      "velocity": 102,
      "chip": "ym2612"
    },
    {
      "channel": 2,
      "note": 49,
      "start": 87.5469,
      "duration": 0.0427,
      "velocity": 106,
      "chip": "ym2612"
    },
    {
      "channel": 1,
      "note": 65,
      "start": 87.66,
      "duration": 0.0627,
      "velocity": 102,
      "chip": "ym2612"
    },
    {
      "channel": 2,
      "note": 49,
      "start": 87.6636,
      "duration": 0.0595,
      "velocity": 106,
      "chip": "ym2612"
    },
    {
      "channel": 5,
      "note": 67,
      "start": 87.7603,
      "duration": 0.0794,
      "velocity": 102,
      "chip": "ym2612"
    },
    {
      "channel": 4,
      "note": 72,
      "start": 87.7629,
      "duration": 0.0766,
      "velocity": 102,
      "chip": "ym2612"
    },
    {
      "channel": 2,
      "note": 49,
      "start": 87.7707,
      "duration": 0.1689,
      "velocity": 106,
      "chip": "ym2612"
    },
    {
      "channel": 1,
      "note": 68,
      "start": 87.8764,
      "duration": 0.0629,
      "velocity": 102,
      "chip": "ym2612"
    },
    {
      "channel": 4,
      "note": 72,
      "start": 87.8795,
      "duration": 0.0933,
      "velocity": 102,
      "chip": "ym2612"
    },
    {
      "channel": 5,
      "note": 68,
      "start": 87.9763,
      "duration": 0.0632,
      "velocity": 102,
      "chip": "ym2612"
    },
    {
      "channel": 1,
      "note": 72,
      "start": 87.9792,
      "duration": 0.1102,
      "velocity": 102,
      "chip": "ym2612"
    },
    {
      "channel": 2,
      "note": 49,
      "start": 87.9829,
      "duration": 0.1733,
      "velocity": 106,
      "chip": "ym2612"
    },
    {
      "channel": 4,
      "note": 68,
      "start": 88.0934,
      "duration": 0.0627,
      "velocity": 102,
      "chip": "ym2612"
    },
    {
      "channel": 5,
      "note": 72,
      "start": 88.0964,
      "duration": 0.0931,
      "velocity": 102,
      "chip": "ym2612"
    },
    {
      "channel": 1,
      "note": 62,
      "start": 88.1926,
      "duration": 0.3967,
      "velocity": 102,
      "chip": "ym2612"
    },
    {
      "channel": 4,
      "note": 45,
      "start": 88.1964,
      "duration": 0.2097,
      "velocity": 125,
      "chip": "ym2612"
    },
    {
      "channel": 2,
      "note": 65,
      "start": 88.3095,
      "duration": 0.0634,
      "velocity": 102,
      "chip": "ym2612"
    },
    {
      "channel": 5,
      "note": 65,
      "start": 88.4095,
      "duration": 0.0634,
      "velocity": 102,
      "chip": "ym2612"
    },
    {
      "channel": 2,
      "note": 65,
      "start": 88.5098,
      "duration": 0.0798,
      "velocity": 102,
      "chip": "ym2612"
    },
    {
      "channel": 1,
      "note": 68,
      "start": 88.6258,
      "duration": 0.097,
      "velocity": 102,
      "chip": "ym2612"
    },
    {
      "channel": 4,
      "note": 73,
      "start": 88.6287,
      "duration": 0.0607,
      "velocity": 102,
      "chip": "ym2612"
    },
    {
      "channel": 5,
      "note": 69,
      "start": 88.7264,
      "duration": 0.0797,
      "velocity": 102,
      "chip": "ym2612"
    },
    {
      "channel": 2,
      "note": 73,
      "start": 88.7295,
      "duration": 0.1101,
      "velocity": 102,
      "chip": "ym2612"
    },
    {
      "channel": 4,
      "note": 69,
      "start": 88.8429,
      "duration": 0.0633,
      "velocity": 102,
      "chip": "ym2612"
    },
    {
      "channel": 1,
      "note": 73,
      "start": 88.8457,
      "duration": 0.0937,
      "velocity": 102,
      "chip": "ym2612"
    },
    {
      "channel": 2,
      "note": 49,
      "start": 88.8499,
      "duration": 0.0564,
      "velocity": 95,
      "chip": "ym2612"
    },
    {
      "channel": 5,
      "note": 69,
      "start": 88.9432,
      "duration": 0.0797,
      "velocity": 102,
      "chip": "ym2612"
    },
    {
      "channel": 4,
      "note": 73,
      "start": 88.9463,
      "duration": 0.1097,
      "velocity": 102,
      "chip": "ym2612"
    },
    {
      "channel": 2,
      "note": 49,
      "start": 88.9503,
      "duration": 0.0728,
      "velocity": 95,
      "chip": "ym2612"
    },
    {
      "channel": 1,
      "note": 62,
      "start": 89.0593,
      "duration": 0.3803,
      "velocity": 102,
      "chip": "ym2612"
    },
    {
      "channel": 5,
      "note": 45,
      "start": 89.0631,
      "duration": 0.2098,
      "velocity": 125,
      "chip": "ym2612"
    },
    {
      "channel": 2,
      "note": 62,
      "start": 89.1602,
      "duration": 0.0017,
      "velocity": 102,
      "chip": "ym2612"
    },
    {
      "channel": 2,
      "note": 49,
      "start": 89.1645,
      "duration": 0.0587,
      "velocity": 95,
      "chip": "ym2612"
    },
    {
      "channel": 4,
      "note": 65,
      "start": 89.2768,
      "duration": 0.0628,
      "velocity": 102,
      "chip": "ym2612"
    },
    {
      "channel": 2,
      "note": 49,
      "start": 89.2811,
      "duration": 0.0254,
      "velocity": 106,
      "chip": "ym2612"
    },
    {
      "channel": 5,
      "note": 65,
      "start": 89.377,
      "duration": 0.0627,
      "velocity": 102,
      "chip": "ym2612"
    },
    {
      "channel": 2,
      "note": 49,
      "start": 89.3806,
      "duration": 0.0592,
      "velocity": 106,
      "chip": "ym2612"
    },
    {
      "channel": 1,
      "note": 67,
      "start": 89.494,
      "duration": 0.0623,
      "velocity": 102,
      "chip": "ym2612"
    },
    {
      "channel": 4,
      "note": 72,
      "start": 89.4967,
      "duration": 0.0598,
      "velocity": 102,
      "chip": "ym2612"
    },
    {
      "channel": 0,
      "note": 46,
      "start": 89.5032,
      "duration": 3.353,
      "velocity": 95,
      "chip": "ym2612"
    },
    {
      "channel": 2,
      "note": 49,
      "start": 89.5088,
      "duration": 0.3642,
      "velocity": 106,
      "chip": "ym2612"
    },
    {
      "channel": 5,
      "note": 33,
      "start": 89.5295,
      "duration": 0.3767,
      "velocity": 124,
      "chip": "ym2612"
    },
    {
      "channel": 1,
      "note": 68,
      "start": 89.5933,
      "duration": 0.0629,
      "velocity": 102,
      "chip": "ym2612"
    },
    {
      "channel": 4,
      "note": 72,
      "start": 89.5963,
      "duration": 0.0933,
      "velocity": 102,
      "chip": "ym2612"
    },
    {
      "channel": 1,
      "note": 68,
      "start": 89.6932,
      "duration": 0.0049,
      "velocity": 102,
      "chip": "ym2612"
    },
    {
      "channel": 4,
      "note": 72,
      "start": 89.696,
      "duration": 0.1101,
      "velocity": 102,
      "chip": "ym2612"
    },
    {
      "channel": 1,
      "note": 49,
      "start": 89.7001,
      "duration": 0.0726,
      "velocity": 95,
      "chip": "ym2612"
    },
    {
      "channel": 1,
      "note": 68,
      "start": 89.81,
      "duration": 0.0048,
      "velocity": 102,
      "chip": "ym2612"
    },
    {
      "channel": 4,
      "note": 72,
      "start": 89.8131,
      "duration": 0.093,
      "velocity": 102,
      "chip": "ym2612"
    },
    {
      "channel": 1,
      "note": 49,
      "start": 89.8168,
      "duration": 0.0559,
      "velocity": 95,
      "chip": "ym2612"
    },
    {
      "channel": 3,
      "note": 62,
      "start": 89.9094,
      "duration": 0.3968,
      "velocity": 102,
      "chip": "ym2612"
    },
    {
      "channel": 1,
      "note": 49,
      "start": 89.9133,
      "duration": 0.0761,
      "velocity": 95,
      "chip": "ym2612"
    },
    {
      "channel": 2,
      "note": 46,
      "start": 89.9164,
      "duration": 1.0783,
      "velocity": 95,
      "chip": "ym2612"
    },
    {
      "channel": 4,
      "note": 45,
      "start": 89.9197,
      "duration": 0.1699,
      "velocity": 125,
      "chip": "ym2612"
    },
    {
      "channel": 5,
      "note": 65,
      "start": 90.0264,
      "duration": 0.0633,
      "velocity": 102,
      "chip": "ym2612"
    },
    {
      "channel": 1,
      "note": 49,
      "start": 90.0305,
      "duration": 0.0588,
      "velocity": 95,
      "chip": "ym2612"
    },
    {
      "channel": 1,
      "note": 65,
      "start": 90.1261,
      "duration": 0.0799,
      "velocity": 102,
      "chip": "ym2612"
    },
    {
      "channel": 4,
      "note": 49,
      "start": 90.13,
      "duration": 0.0762,
      "velocity": 95,
      "chip": "ym2612"
    },
    {
      "channel": 5,
      "note": 28,
      "start": 90.1341,
      "duration": 0.0722,
      "velocity": 124,
      "chip": "ym2612"
    },
    {
      "channel": 1,
      "note": 65,
      "start": 90.2431,
      "duration": 0.063,
      "velocity": 102,
      "chip": "ym2612"
    },
    {
      "channel": 4,
      "note": 49,
      "start": 90.2471,
      "duration": 0.0593,
      "velocity": 95,
      "chip": "ym2612"
    },
    {
      "channel": 5,
      "note": 29,
      "start": 90.251,
      "duration": 0.0555,
      "velocity": 124,
      "chip": "ym2612"
    },
    {
      "channel": 3,
      "note": 68,
      "start": 90.3425,
      "duration": 0.1135,
      "velocity": 102,
      "chip": "ym2612"
    },
    {
      "channel": 1,
      "note": 73,
      "start": 90.3454,
      "duration": 0.0606,
      "velocity": 102,
      "chip": "ym2612"
    },
    {
      "channel": 4,
      "note": 49,
      "start": 90.3493,
      "duration": 0.0569,
      "velocity": 95,
      "chip": "ym2612"
    },
    {
      "channel": 5,
      "note": 69,
      "start": 90.4596,
      "duration": 0.0632,
      "velocity": 102,
      "chip": "ym2612"
    },
    {
      "channel": 1,
      "note": 73,
      "start": 90.4627,
      "duration": 0.0933,
      "velocity": 102,
      "chip": "ym2612"
    },
    {
      "channel": 4,
      "note": 49,
      "start": 90.4666,
      "duration": 0.0561,
      "velocity": 95,
      "chip": "ym2612"
    },
    {
      "channel": 3,
      "note": 69,
      "start": 90.5595,
      "duration": 0.0632,
      "velocity": 102,
      "chip": "ym2612"
    },
    {
      "channel": 4,
      "note": 73,
      "start": 90.5624,
      "duration": 0.1105,
      "velocity": 102,
      "chip": "ym2612"
    },
    {
      "channel": 5,
      "note": 49,
      "start": 90.5666,
      "duration": 0.0563,
      "velocity": 95,
      "chip": "ym2612"
    },
    {
      "channel": 1,
      "note": 45,
      "start": 90.57,
      "duration": 0.2027,
      "velocity": 125,
      "chip": "ym2612"
    },
    {
      "channel": 3,
      "note": 69,
      "start": 90.6766,
      "duration": 0.0629,
      "velocity": 102,
      "chip": "ym2612"
    },
    {
      "channel": 5,
      "note": 73,
      "start": 90.6797,
      "duration": 0.0933,
      "velocity": 102,
      "chip": "ym2612"
    },
    {
      "channel": 4,
      "note": 49,
      "start": 90.6834,
      "duration": 0.0562,
      "velocity": 95,
      "chip": "ym2612"
    },
    {
      "channel": 3,
      "note": 62,
      "start": 90.7762,
      "duration": 0.3966,
      "velocity": 102,
      "chip": "ym2612"
    },
    {
      "channel": 4,
      "note": 49,
      "start": 90.7795,
      "duration": 0.0599,
      "velocity": 95,
      "chip": "ym2612"
    },
    {
      "channel": 1,
      "note": 42,
      "start": 90.7839,
      "duration": 0.0553,
      "velocity": 124,
      "chip": "ym2612"
    },
    {
      "channel": 5,
      "note": 62,
      "start": 90.8767,
      "duration": 0.0795,
      "velocity": 102,
      "chip": "ym2612"
    },
    {
      "channel": 1,
      "note": 39,
      "start": 90.881,
      "duration": 0.0749,
      "velocity": 124,
      "chip": "ym2612"
    },
    {
      "channel": 4,
      "note": 65,
      "start": 90.9934,
      "duration": 0.0629,
      "velocity": 102,
      "chip": "ym2612"
    },
    {
      "channel": 2,
      "note": 49,
      "start": 90.9974,
      "duration": 0.0256,
      "velocity": 106,
      "chip": "ym2612"
    },
    {
      "channel": 1,
      "note": 65,
      "start": 91.0937,
      "duration": 0.079,
      "velocity": 102,
      "chip": "ym2612"
    },
    {
      "channel": 2,
      "note": 49,
      "start": 91.0973,
      "duration": 0.0758,
      "velocity": 106,
      "chip": "ym2612"
    },
    {
      "channel": 3,
      "note": 67,
      "start": 91.2106,
      "duration": 0.0623,
      "velocity": 102,
      "chip": "ym2612"
    },
    {
      "channel": 5,
      "note": 72,
      "start": 91.2133,
      "duration": 0.0597,
      "velocity": 102,
      "chip": "ym2612"
    },
    {
      "channel": 2,
      "note": 49,
      "start": 91.2213,
      "duration": 0.1683,
      "velocity": 106,
      "chip": "ym2612"
    },
    {
      "channel": 4,
      "note": 68,
      "start": 91.3096,
      "duration": 0.0798,
      "velocity": 102,
      "chip": "ym2612"
    },
    {
      "channel": 1,
      "note": 72,
      "start": 91.3127,
      "duration": 0.1099,
      "velocity": 102,
      "chip": "ym2612"
    },
    {
      "channel": 3,
      "note": 68,
      "start": 91.4262,
      "duration": 0.0631,
      "velocity": 102,
      "chip": "ym2612"
    },
    {
      "channel": 5,
      "note": 72,
      "start": 91.4291,
      "duration": 0.0937,
      "velocity": 102,
      "chip": "ym2612"
    },
    {
      "channel": 2,
      "note": 49,
      "start": 91.4329,
      "duration": 0.1567,
      "velocity": 106,
      "chip": "ym2612"
    },
    {
      "channel": 4,
      "note": 68,
      "start": 91.5266,
      "duration": 0.0628,
      "velocity": 102,
      "chip": "ym2612"
    },
    {
      "channel": 1,
      "note": 72,
      "start": 91.5297,
      "duration": 0.1096,
      "velocity": 102,
      "chip": "ym2612"
    },
    {
      "channel": 3,
      "note": 62,
      "start": 91.6426,
      "duration": 0.3802,
      "velocity": 102,
      "chip": "ym2612"
    },
    {
      "channel": 5,
      "note": 45,
      "start": 91.6464,
      "duration": 0.2097,
      "velocity": 125,
      "chip": "ym2612"
    },
    {
      "channel": 4,
      "note": 65,
      "start": 91.7428,
      "duration": 0.0634,
      "velocity": 102,
      "chip": "ym2612"
    },
    {
      "channel": 2,
      "note": 65,
      "start": 91.8596,
      "duration": 0.0634,
      "velocity": 102,
      "chip": "ym2612"
    },
    {
      "channel": 1,
      "note": 65,
      "start": 91.9595,
      "duration": 0.0632,
      "velocity": 102,
      "chip": "ym2612"
    },
    {
      "channel": 3,
      "note": 68,
      "start": 92.0592,
      "duration": 0.1134,
      "velocity": 102,
      "chip": "ym2612"
    },
    {
      "channel": 4,
      "note": 73,
      "start": 92.0621,
      "duration": 0.0773,
      "velocity": 102,
      "chip": "ym2612"
    },
    {
      "channel": 5,
      "note": 69,
      "start": 92.1762,
      "duration": 0.0633,
      "velocity": 102,
      "chip": "ym2612"
    },
    {
      "channel": 2,
      "note": 73,
      "start": 92.1793,
      "duration": 0.0935,
      "velocity": 102,
      "chip": "ym2612"
    },
    {
      "channel": 1,
      "note": 69,
      "start": 92.2761,
      "duration": 0.08,
      "velocity": 102,
      "chip": "ym2612"
    },
    {
      "channel": 4,
      "note": 73,
      "start": 92.279,
      "duration": 0.1104,
      "velocity": 102,
      "chip": "ym2612"
    },
    {
      "channel": 2,
      "note": 49,
      "start": 92.2836,
      "duration": 0.0728,
      "velocity": 95,
      "chip": "ym2612"
    },
    {
      "channel": 3,
      "note": 69,
      "start": 92.3932,
      "duration": 0.063,
      "velocity": 102,
      "chip": "ym2612"
    },
    {
      "channel": 5,
      "note": 73,
      "start": 92.3963,
      "duration": 0.0933,
      "velocity": 102,
      "chip": "ym2612"
    },
    {
      "channel": 2,
      "note": 49,
      "start": 92.4002,
      "duration": 0.0562,
      "velocity": 95,
      "chip": "ym2612"
    },
    {
      "channel": 1,
      "note": 62,
      "start": 92.4927,
      "duration": 0.3969,
      "velocity": 102,
      "chip": "ym2612"
    },
    {
      "channel": 4,
      "note": 45,
      "start": 92.4965,
      "duration": 0.2097,
      "velocity": 125,
      "chip": "ym2612"
    },
    {
      "channel": 3,
      "note": 62,
      "start": 92.6101,
      "duration": 0.0628,
      "velocity": 102,
      "chip": "ym2612"
    },
    {
      "channel": 2,
      "note": 65,
      "start": 92.7102,
      "duration": 0.0017,
      "velocity": 102,
      "chip": "ym2612"
    },
    {
      "channel": 2,
      "note": 49,
      "start": 92.7145,
      "duration": 0.0253,
      "velocity": 106,
      "chip": "ym2612"
    },
    {
      "channel": 5,
      "note": 65,
      "start": 92.8271,
      "duration": 0.0628,
      "velocity": 102,
      "chip": "ym2612"
    },
    {
      "channel": 2,
      "note": 49,
      "start": 92.8306,
      "duration": 0.0593,
      "velocity": 106,
      "chip": "ym2612"
    }
  ]
}