{
  "track_name": "14 - Their Last Breath",
  "duration_sec": 70.735,
  "sample_rate": 44100,
  "note_count": 701,
  "unique_pitches": 45,
  "pitch_range": 63,
  "avg_note_duration": 0.5585,
  "reconstruction_stats": {
    "notes_reconstructed": 701,
    "keyon_events": 701,
    "keyoff_events": 635,
    "orphan_keyons": 6,
    "unique_pitches": 45,
    "pitch_range": 63,
    "avg_duration_sec": 0.5585
  },
  "metadata": {
    "source": "S\\Shining Force II\\14 - Their Last Breath.vgz"
  },
  "notes": [
    {
      "channel": 1,
      "note": 79,
      "start": 0.0,
      "duration": 0.4358,
      "velocity": 99,
      "chip": "ym2612"
    },
    {
      "channel": 3,
      "note": 78,
      "start": 0.1507,
      "duration": 0.4398,
      "velocity": 99,
      "chip": "ym2612"
    },
    {
      "channel": 1,
      "note": 80,
      "start": 0.4553,
      "duration": 0.4428,
      "velocity": 99,
      "chip": "ym2612"
    },
    {
      "channel": 3,
      "note": 79,
      "start": 0.61,
      "duration": 0.4427,
      "velocity": 99,
      "chip": "ym2612"
    },
    {
      "channel": 1,
      "note": 87,
      "start": 0.9176,
      "duration": 0.4428,
      "velocity": 99,
      "chip": "ym2612"
    },
    {
      "channel": 3,
      "note": 80,
      "start": 1.0722,
      "duration": 0.4427,
      "velocity": 99,
      "chip": "ym2612"
    },
    {
      "channel": 0,
      "note": 49,
      "start": 1.3815,
      "duration": 1.8279,
      "velocity": 90,
      "chip": "ym2612"
    },
    {
      "channel": 1,
      "note": 88,
      "start": 1.382,
      "duration": 2.2897,
      "velocity": 99,
      "chip": "ym2612"
    },
    {
      "channel": 2,
      "note": 68,
      "start": 1.3843,
      "duration": 1.8256,
      "velocity": 90,
      "chip": "ym2612"
    },
    {
      "channel": 3,
      "note": 87,
      "start": 1.5344,
      "duration": 2.2921,
      "velocity": 99,
      "chip": "ym2612"
    },
    {
      "channel": 5,
      "note": 73,
      "start": 1.6146,
      "duration": 0.2091,
      "velocity": 98,
      "chip": "ym2612"
    },
    {
      "channel": 4,
      "note": 76,
      "start": 1.7683,
      "duration": 0.2092,
      "velocity": 98,
      "chip": "ym2612"
    },
    {
      "channel": 5,
      "note": 76,
      "start": 1.8436,
      "duration": 0.2113,
      "velocity": 98,
      "chip": "ym2612"
    },
    {
      "channel": 4,
      "note": 73,
      "start": 1.9971,
      "duration": 0.2126,
      "velocity": 98,
      "chip": "ym2612"
    },
    {
      "channel": 5,
      "note": 80,
      "start": 2.0744,
      "duration": 0.2116,
      "velocity": 98,
      "chip": "ym2612"
    },
    {
      "channel": 4,
      "note": 76,
      "start": 2.2282,
      "duration": 0.2117,
      "velocity": 98,
      "chip": "ym2612"
    },
    {
      "channel": 5,
      "note": 83,
      "start": 2.3056,
      "duration": 0.9054,
      "velocity": 98,
      "chip": "ym2612"
    },
    {
      "channel": 4,
      "note": 80,
      "start": 2.4598,
      "duration": 0.9046,
      "velocity": 98,
      "chip": "ym2612"
    },
    {
      "channel": 0,
      "note": 51,
      "start": 3.2287,
      "duration": 1.8298,
      "velocity": 90,
      "chip": "ym2612"
    },
    {
      "channel": 2,
      "note": 67,
      "start": 3.2294,
      "duration": 1.8298,
      "velocity": 90,
      "chip": "ym2612"
    },
    {
      "channel": 5,
      "note": 73,
      "start": 3.4612,
      "duration": 0.2117,
      "velocity": 98,
      "chip": "ym2612"
    },
    {
      "channel": 4,
      "note": 83,
      "start": 3.615,
      "duration": 0.2118,
      "velocity": 98,
      "chip": "ym2612"
    },
    {
      "channel": 1,
      "note": 87,
      "start": 3.6911,
      "duration": 0.4428,
      "velocity": 99,
      "chip": "ym2612"
    },
    {
      "channel": 5,
      "note": 75,
      "start": 3.693,
      "duration": 0.211,
      "velocity": 98,
      "chip": "ym2612"
    },
    {
      "channel": 3,
      "note": 88,
      "start": 3.8458,
      "duration": 0.4428,
      "velocity": 99,
      "chip": "ym2612"
    },
    {
      "channel": 4,
      "note": 73,
      "start": 3.8465,
      "duration": 0.2113,
      "velocity": 98,
      "chip": "ym2612"
    },
    {
      "channel": 5,
      "note": 79,
      "start": 3.9234,
      "duration": 0.2116,
      "velocity": 98,
      "chip": "ym2612"
    },
    {
      "channel": 4,
      "note": 75,
      "start": 4.0772,
      "duration": 0.2118,
      "velocity": 98,
      "chip": "ym2612"
    },
    {
      "channel": 1,
      "note": 85,
      "start": 4.1534,
      "duration": 0.4428,
      "velocity": 99,
      "chip": "ym2612"
    },
    {
      "channel": 5,
      "note": 82,
      "start": 4.1549,
      "duration": 0.9053,
      "velocity": 98,
      "chip": "ym2612"
    },
    {
      "channel": 3,
      "note": 87,
      "start": 4.308,
      "duration": 0.4429,
      "velocity": 99,
      "chip": "ym2612"
    },
    {
      "channel": 4,
      "note": 79,
      "start": 4.3091,
      "duration": 0.9043,
      "velocity": 98,
      "chip": "ym2612"
    },
    {
      "channel": 1,
      "note": 87,
      "start": 4.6157,
      "duration": 0.4432,
      "velocity": 99,
      "chip": "ym2612"
    },
    {
      "channel": 3,
      "note": 85,
      "start": 4.7703,
      "duration": 0.4427,
      "velocity": 99,
      "chip": "ym2612"
    },
    {
      "channel": 0,
      "note": 52,
      "start": 5.0777,
      "duration": 3.6786,
      "velocity": 90,
      "chip": "ym2612"
    },
    {
      "channel": 1,
      "note": 79,
      "start": 5.0781,
      "duration": 1.8294,
      "velocity": 99,
      "chip": "ym2612"
    },
    {
      "channel": 2,
      "note": 70,
      "start": 5.0787,
      "duration": 1.8291,
      "velocity": 90,
      "chip": "ym2612"
    },
    {
      "channel": 3,
      "note": 87,
      "start": 5.2325,
      "duration": 1.8296,
      "velocity": 99,
      "chip": "ym2612"
    },
    {
      "channel": 5,
      "note": 75,
      "start": 5.3105,
      "duration": 0.2114,
      "velocity": 98,
      "chip": "ym2612"
    },
    {
      "channel": 4,
      "note": 82,
      "start": 5.4639,
      "duration": 0.2122,
      "velocity": 98,
      "chip": "ym2612"
    },
    {
      "channel": 5,
      "note": 76,
      "start": 5.5413,
      "duration": 0.2118,
      "velocity": 98,
      "chip": "ym2612"
    },
    {
      "channel": 4,
      "note": 75,
      "start": 5.6952,
      "duration": 0.2117,
      "velocity": 98,
      "chip": "ym2612"
    },
    {
      "channel": 5,
      "note": 79,
      "start": 5.7726,
      "duration": 0.2116,
      "velocity": 98,
      "chip": "ym2612"
    },
    {
      "channel": 4,
      "note": 76,
      "start": 5.9268,
      "duration": 0.2112,
      "velocity": 98,
      "chip": "ym2612"
    },
    {
      "channel": 5,
      "note": 82,
      "start": 6.0037,
      "duration": 0.2117,
      "velocity": 98,
      "chip": "ym2612"
    },
    {
      "channel": 4,
      "note": 79,
      "start": 6.1575,
      "duration": 0.2116,
      "velocity": 98,
      "chip": "ym2612"
    },
    {
      "channel": 5,
      "note": 79,
      "start": 6.2348,
      "duration": 0.2116,
      "velocity": 98,
      "chip": "ym2612"
    },
    {
      "channel": 4,
      "note": 82,
      "start": 6.3886,
      "duration": 0.2117,
      "velocity": 98,
      "chip": "ym2612"
    },
    {
      "channel": 5,
      "note": 82,
      "start": 6.466,
      "duration": 0.2117,
      "velocity": 98,
      "chip": "ym2612"
    },
    {
      "channel": 4,
      "note": 79,
      "start": 6.6198,
      "duration": 0.2116,
      "velocity": 98,
      "chip": "ym2612"
    },
    {
      "channel": 5,
      "note": 85,
      "start": 6.6971,
      "duration": 0.2121,
      "velocity": 98,
      "chip": "ym2612"
    },
    {
      "channel": 4,
      "note": 82,
      "start": 6.8509,
      "duration": 0.2116,
      "velocity": 98,
      "chip": "ym2612"
    },
    {
      "channel": 1,
      "note": 80,
      "start": 6.9271,
      "duration": 0.2331,
      "velocity": 99,
      "chip": "ym2612"
    },
    {
      "channel": 2,
      "note": 71,
      "start": 6.9276,
      "duration": 0.9048,
      "velocity": 90,
      "chip": "ym2612"
    },
    {
      "channel": 5,
      "note": 83,
      "start": 6.9288,
      "duration": 0.211,
      "velocity": 98,
      "chip": "ym2612"
    },
    {
      "channel": 3,
      "note": 79,
      "start": 7.0817,
      "duration": 0.2335,
      "velocity": 99,
      "chip": "ym2612"
    },
    {
      "channel": 4,
      "note": 85,
      "start": 7.0824,
      "duration": 0.2112,
      "velocity": 98,
      "chip": "ym2612"
    },
    {
      "channel": 1,
      "note": 80,
      "start": 7.1602,
      "duration": 0.1156,
      "velocity": 99,
      "chip": "ym2612"
    },
    {
      "channel": 5,
      "note": 82,
      "start": 7.1616,
      "duration": 0.2094,
      "velocity": 98,
      "chip": "ym2612"
    },
    {
      "channel": 1,
      "note": 80,
      "start": 7.2759,
      "duration": 0.094,
      "velocity": 99,
      "chip": "ym2612"
    },
    {
      "channel": 3,
      "note": 80,
      "start": 7.3152,
      "duration": 0.1157,
      "velocity": 99,
      "chip": "ym2612"
    },
    {
      "channel": 4,
      "note": 83,
      "start": 7.3158,
      "duration": 0.209,
      "velocity": 98,
      "chip": "ym2612"
    },
    {
      "channel": 1,
      "note": 75,
      "start": 7.3909,
      "duration": 0.4412,
      "velocity": 99,
      "chip": "ym2612"
    },
    {
      "channel": 5,
      "note": 83,
      "start": 7.3928,
      "duration": 0.2093,
      "velocity": 98,
      "chip": "ym2612"
    },
    {
      "channel": 3,
      "note": 80,
      "start": 7.4309,
      "duration": 0.0935,
      "velocity": 99,
      "chip": "ym2612"
    },
    {
      "channel": 3,
      "note": 80,
      "start": 7.5463,
      "duration": 0.4402,
      "velocity": 99,
      "chip": "ym2612"
    },
    {
      "channel": 4,
      "note": 82,
      "start": 7.547,
      "duration": 0.209,
      "velocity": 98,
      "chip": "ym2612"
    },
    {
      "channel": 5,
      "note": 87,
      "start": 7.6216,
      "duration": 0.2117,
      "velocity": 98,
      "chip": "ym2612"
    },
    {
      "channel": 4,
      "note": 83,
      "start": 7.7757,
      "duration": 0.2112,
      "velocity": 98,
      "chip": "ym2612"
    },
    {
      "channel": 1,
      "note": 76,
      "start": 7.8516,
      "duration": 0.4428,
      "velocity": 99,
      "chip": "ym2612"
    },
    {
      "channel": 2,
      "note": 68,
      "start": 7.852,
      "duration": 0.9049,
      "velocity": 90,
      "chip": "ym2612"
    },
    {
      "channel": 5,
      "note": 92,
      "start": 7.8532,
      "duration": 0.9046,
      "velocity": 98,
      "chip": "ym2612"
    },
    {
      "channel": 3,
      "note": 75,
      "start": 8.0061,
      "duration": 0.4428,
      "velocity": 99,
      "chip": "ym2612"
    },
    {
      "channel": 4,
      "note": 87,
      "start": 8.0068,
      "duration": 0.9047,
      "velocity": 98,
      "chip": "ym2612"
    },
    {
      "channel": 1,
      "note": 83,
      "start": 8.3138,
      "duration": 0.4428,
      "velocity": 99,
      "chip": "ym2612"
    },
    {
      "channel": 3,
      "note": 76,
      "start": 8.4684,
      "duration": 0.4427,
      "velocity": 99,
      "chip": "ym2612"
    },
    {
      "channel": 0,
      "note": 58,
      "start": 8.7759,
      "duration": 1.8296,
      "velocity": 90,
      "chip": "ym2612"
    },
    {
      "channel": 1,
      "note": 85,
      "start": 8.7764,
      "duration": 2.2915,
      "velocity": 99,
      "chip": "ym2612"
    },
    {
      "channel": 2,
      "note": 64,
      "start": 8.7769,
      "duration": 0.9045,
      "velocity": 90,
      "chip": "ym2612"
    },
    {
      "channel": 3,
      "note": 83,
      "start": 8.9306,
      "duration": 2.2919,
      "velocity": 99,
      "chip": "ym2612"
    },
    {
      "channel": 5,
      "note": 70,
      "start": 9.0085,
      "duration": 0.2115,
      "velocity": 98,
      "chip": "ym2612"
    },
    {
      "channel": 4,
      "note": 92,
      "start": 9.1621,
      "duration": 0.2118,
      "velocity": 98,
      "chip": "ym2612"
    },
    {
      "channel": 5,
      "note": 73,
      "start": 9.2395,
      "duration": 0.2117,
      "velocity": 98,
      "chip": "ym2612"
    },
    {
      "channel": 4,
      "note": 70,
      "start": 9.3937,
      "duration": 0.2114,
      "velocity": 98,
      "chip": "ym2612"
    },
    {
      "channel": 5,
      "note": 76,
      "start": 9.4707,
      "duration": 0.2117,
      "velocity": 98,
      "chip": "ym2612"
    },
    {
      "channel": 4,
      "note": 73,
      "start": 9.6245,
      "duration": 0.2116,
      "velocity": 98,
      "chip": "ym2612"
    },
    {
      "channel": 2,
      "note": 68,
      "start": 9.7009,
      "duration": 1.8296,
      "velocity": 90,
      "chip": "ym2612"
    },
    {
      "channel": 5,
      "note": 80,
      "start": 9.7021,
      "duration": 0.9048,
      "velocity": 98,
      "chip": "ym2612"
    },
    {
      "channel": 4,
      "note": 76,
      "start": 9.8556,
      "duration": 0.905,
      "velocity": 98,
      "chip": "ym2612"
    },
    {
      "channel": 0,
      "note": 59,
      "start": 10.6249,
      "duration": 1.8296,
      "velocity": 90,
      "chip": "ym2612"
    },
    {
      "channel": 5,
      "note": 70,
      "start": 10.8574,
      "duration": 0.2117,
      "velocity": 98,
      "chip": "ym2612"
    },
    {
      "channel": 4,
      "note": 80,
      "start": 11.0112,
      "duration": 0.2117,
      "velocity": 98,
      "chip": "ym2612"
    },
    {
      "channel": 1,
      "note": 83,
      "start": 11.0874,
      "duration": 0.4429,
      "velocity": 99,
      "chip": "ym2612"
    },
    {
      "channel": 5,
      "note": 71,
      "start": 11.0888,
      "duration": 0.2114,
      "velocity": 98,
      "chip": "ym2612"
    },
    {
      "channel": 3,
      "note": 85,
      "start": 11.2425,
      "duration": 0.4423,
      "velocity": 99,
      "chip": "ym2612"
    },
    {
      "channel": 4,
      "note": 70,
      "start": 11.2431,
      "duration": 0.2109,
      "velocity": 98,
      "chip": "ym2612"
    },
    {
      "channel": 5,
      "note": 75,
      "start": 11.3197,
      "duration": 0.2118,
      "velocity": 98,
      "chip": "ym2612"
    },
    {
      "channel": 4,
      "note": 71,
      "start": 11.4735,
      "duration": 0.2116,
      "velocity": 98,
      "chip": "ym2612"
    },
    {
      "channel": 1,
      "note": 82,
      "start": 11.5497,
      "duration": 0.4429,
      "velocity": 99,
      "chip": "ym2612"
    },
    {
      "channel": 2,
      "note": 67,
      "start": 11.5502,
      "duration": 0.9049,
      "velocity": 90,
      "chip": "ym2612"
    },
    {
      "channel": 5,
      "note": 79,
      "start": 11.5514,
      "duration": 0.9046,
      "velocity": 98,
      "chip": "ym2612"
    },
    {
      "channel": 3,
      "note": 83,
      "start": 11.7043,
      "duration": 0.4428,
      "velocity": 99,
      "chip": "ym2612"
    },
    {
      "channel": 4,
      "note": 75,
      "start": 11.7049,
      "duration": 0.9051,
      "velocity": 98,
      "chip": "ym2612"
    },
    {
      "channel": 1,
      "note": 83,
      "start": 12.0119,
      "duration": 0.4428,
      "velocity": 99,
      "chip": "ym2612"
    },
    {
      "channel": 3,
      "note": 82,
      "start": 12.1666,
      "duration": 0.4431,
      "velocity": 99,
      "chip": "ym2612"
    },
    {
      "channel": 0,
      "note": 60,
      "start": 12.4739,
      "duration": 1.8296,
      "velocity": 90,
      "chip": "ym2612"
    },
    {
      "channel": 1,
      "note": 81,
      "start": 12.4745,
      "duration": 0.4425,
      "velocity": 99,
      "chip": "ym2612"
    },
    {
      "channel": 2,
      "note": 63,
      "start": 12.4752,
      "duration": 0.4421,
      "velocity": 90,
      "chip": "ym2612"
    },
    {
      "channel": 3,
      "note": 83,
      "start": 12.6288,
      "duration": 0.4428,
      "velocity": 99,
      "chip": "ym2612"
    },
    {
      "channel": 5,
      "note": 72,
      "start": 12.7064,
      "duration": 0.2118,
      "velocity": 98,
      "chip": "ym2612"
    },
    {
      "channel": 4,
      "note": 79,
      "start": 12.8603,
      "duration": 0.2117,
      "velocity": 98,
      "chip": "ym2612"
    },
    {
      "channel": 1,
      "note": 80,
      "start": 12.9364,
      "duration": 0.4429,
      "velocity": 99,
      "chip": "ym2612"
    },
    {
      "channel": 2,
      "note": 66,
      "start": 12.9369,
      "duration": 0.4426,
      "velocity": 90,
      "chip": "ym2612"
    },
    {
      "channel": 5,
      "note": 75,
      "start": 12.9381,
      "duration": 0.2111,
      "velocity": 98,
      "chip": "ym2612"
    },
    {
      "channel": 3,
      "note": 81,
      "start": 13.0911,
      "duration": 0.4427,
      "velocity": 99,
      "chip": "ym2612"
    },
    {
      "channel": 4,
      "note": 72,
      "start": 13.0922,
      "duration": 0.2108,
      "velocity": 98,
      "chip": "ym2612"
    },
    {
      "channel": 5,
      "note": 78,
      "start": 13.1687,
      "duration": 0.2118,
      "velocity": 98,
      "chip": "ym2612"
    },
    {
      "channel": 4,
      "note": 75,
      "start": 13.3225,
      "duration": 0.2118,
      "velocity": 98,
      "chip": "ym2612"
    },
    {
      "channel": 1,
      "note": 79,
      "start": 13.3988,
      "duration": 0.4428,
      "velocity": 99,
      "chip": "ym2612"
    },
    {
      "channel": 2,
      "note": 69,
      "start": 13.3992,
      "duration": 1.8294,
      "velocity": 90,
      "chip": "ym2612"
    },
    {
      "channel": 5,
      "note": 81,
      "start": 13.4004,
      "duration": 0.2111,
      "velocity": 98,
      "chip": "ym2612"
    },
    {
      "channel": 3,
      "note": 80,
      "start": 13.5533,
      "duration": 0.4429,
      "velocity": 99,
      "chip": "ym2612"
    },
    {
      "channel": 4,
      "note": 78,
      "start": 13.554,
      "duration": 0.2112,
      "velocity": 98,
      "chip": "ym2612"
    },
    {
      "channel": 5,
      "note": 78,
      "start": 13.631,
      "duration": 0.2121,
      "velocity": 98,
      "chip": "ym2612"
    },
    {
      "channel": 4,
      "note": 81,
      "start": 13.7848,
      "duration": 0.2118,
      "velocity": 98,
      "chip": "ym2612"
    },
    {
      "channel": 1,
      "note": 80,
      "start": 13.861,
      "duration": 0.4429,
      "velocity": 99,
      "chip": "ym2612"
    },
    {
      "channel": 5,
      "note": 81,
      "start": 13.8624,
      "duration": 0.2113,
      "velocity": 98,
      "chip": "ym2612"
    },
    {
      "channel": 3,
      "note": 79,
      "start": 14.0157,
      "duration": 0.4431,
      "velocity": 99,
      "chip": "ym2612"
    },
    {
      "channel": 4,
      "note": 78,
      "start": 14.0163,
      "duration": 0.2113,
      "velocity": 98,
      "chip": "ym2612"
    },
    {
      "channel": 5,
      "note": 84,
      "start": 14.0937,
      "duration": 0.2112,
      "velocity": 98,
      "chip": "ym2612"
    },
    {
      "channel": 4,
      "note": 81,
      "start": 14.2471,
      "duration": 0.2121,
      "velocity": 98,
      "chip": "ym2612"
    },
    {
      "channel": 0,
      "note": 61,
      "start": 14.3231,
      "duration": 1.8507,
      "velocity": 90,
      "chip": "ym2612"
    },
    {
      "channel": 1,
      "note": 78,
      "start": 14.3236,
      "duration": 0.9047,
      "velocity": 99,
      "chip": "ym2612"
    },
    {
      "channel": 5,
      "note": 85,
      "start": 14.3255,
      "duration": 0.2105,
      "velocity": 98,
      "chip": "ym2612"
    },
    {
      "channel": 3,
      "note": 80,
      "start": 14.4779,
      "duration": 0.905,
      "velocity": 99,
      "chip": "ym2612"
    },
    {
      "channel": 4,
      "note": 84,
      "start": 14.4785,
      "duration": 0.2113,
      "velocity": 98,
      "chip": "ym2612"
    },
    {
      "channel": 5,
      "note": 80,
      "start": 14.5555,
      "duration": 0.2117,
      "velocity": 98,
      "chip": "ym2612"
    },
    {
      "channel": 4,
      "note": 85,
      "start": 14.7097,
      "duration": 0.2113,
      "velocity": 98,
      "chip": "ym2612"
    },
    {
      "channel": 5,
      "note": 88,
      "start": 14.7867,
      "duration": 0.2118,
      "velocity": 98,
      "chip": "ym2612"
    },
    {
      "channel": 4,
      "note": 80,
      "start": 14.9405,
      "duration": 0.2117,
      "velocity": 98,
      "chip": "ym2612"
    },
    {
      "channel": 5,
      "note": 87,
      "start": 15.0178,
      "duration": 0.2118,
      "velocity": 98,
      "chip": "ym2612"
    },
    {
      "channel": 4,
      "note": 88,
      "start": 15.1717,
      "duration": 0.2117,
      "velocity": 98,
      "chip": "ym2612"
    },
    {
      "channel": 1,
      "note": 76,
      "start": 15.2478,
      "duration": 0.9051,
      "velocity": 99,
      "chip": "ym2612"
    },
    {
      "channel": 2,
      "note": 68,
      "start": 15.2483,
      "duration": 0.9049,
      "velocity": 90,
      "chip": "ym2612"
    },
    {
      "channel": 5,
      "note": 85,
      "start": 15.2495,
      "duration": 0.211,
      "velocity": 98,
      "chip": "ym2612"
    },
    {
      "channel": 3,
      "note": 78,
      "start": 15.4024,
      "duration": 0.9051,
      "velocity": 99,
      "chip": "ym2612"
    },
    {
      "channel": 4,
      "note": 87,
      "start": 15.403,
      "duration": 0.2113,
      "velocity": 98,
      "chip": "ym2612"
    },
    {
      "channel": 5,
      "note": 80,
      "start": 15.4801,
      "duration": 0.2121,
      "velocity": 98,
      "chip": "ym2612"
    },
    {
      "channel": 4,
      "note": 85,
      "start": 15.6338,
      "duration": 0.2118,
      "velocity": 98,
      "chip": "ym2612"
    },
    {
      "channel": 5,
      "note": 76,
      "start": 15.7112,
      "duration": 0.2117,
      "velocity": 98,
      "chip": "ym2612"
    },
    {
      "channel": 4,
      "note": 80,
      "start": 15.865,
      "duration": 0.2118,
      "velocity": 98,
      "chip": "ym2612"
    },
    {
      "channel": 5,
      "note": 73,
      "start": 15.9428,
      "duration": 0.2113,
      "velocity": 98,
      "chip": "ym2612"
    },
    {
      "channel": 4,
      "note": 76,
      "start": 16.0962,
      "duration": 0.2116,
      "velocity": 98,
      "chip": "ym2612"
    },
    {
      "channel": 0,
      "note": 61,
      "start": 16.1738,
      "duration": 0.1154,
      "velocity": 90,
      "chip": "ym2612"
    },
    {
      "channel": 1,
      "note": 75,
      "start": 16.1745,
      "duration": 1.8488,
      "velocity": 99,
      "chip": "ym2612"
    },
    {
      "channel": 2,
      "note": 67,
      "start": 16.1752,
      "duration": 2.7516,
      "velocity": 90,
      "chip": "ym2612"
    },
    {
      "channel": 0,
      "note": 61,
      "start": 16.2893,
      "duration": 0.1156,
      "velocity": 90,
      "chip": "ym2612"
    },
    {
      "channel": 3,
      "note": 76,
      "start": 16.327,
      "duration": 1.8518,
      "velocity": 99,
      "chip": "ym2612"
    },
    {
      "channel": 0,
      "note": 61,
      "start": 16.4049,
      "duration": 0.1156,
      "velocity": 90,
      "chip": "ym2612"
    },
    {
      "channel": 5,
      "note": 73,
      "start": 16.4065,
      "duration": 0.2098,
      "velocity": 98,
      "chip": "ym2612"
    },
    {
      "channel": 0,
      "note": 61,
      "start": 16.5205,
      "duration": 0.0943,
      "velocity": 90,
      "chip": "ym2612"
    },
    {
      "channel": 4,
      "note": 73,
      "start": 16.5588,
      "duration": 0.2112,
      "velocity": 98,
      "chip": "ym2612"
    },
    {
      "channel": 0,
      "note": 58,
      "start": 16.6361,
      "duration": 0.4411,
      "velocity": 90,
      "chip": "ym2612"
    },
    {
      "channel": 5,
      "note": 75,
      "start": 16.6378,
      "duration": 0.2096,
      "velocity": 98,
      "chip": "ym2612"
    },
    {
      "channel": 4,
      "note": 73,
      "start": 16.7895,
      "duration": 0.2117,
      "velocity": 98,
      "chip": "ym2612"
    },
    {
      "channel": 5,
      "note": 79,
      "start": 16.867,
      "duration": 0.2116,
      "velocity": 98,
      "chip": "ym2612"
    },
    {
      "channel": 4,
      "note": 75,
      "start": 17.0207,
      "duration": 0.2117,
      "velocity": 98,
      "chip": "ym2612"
    },
    {
      "channel": 0,
      "note": 55,
      "start": 17.0966,
      "duration": 0.6739,
      "velocity": 90,
      "chip": "ym2612"
    },
    {
      "channel": 5,
      "note": 82,
      "start": 17.0984,
      "duration": 1.8295,
      "velocity": 98,
      "chip": "ym2612"
    },
    {
      "channel": 4,
      "note": 79,
      "start": 17.2518,
      "duration": 1.7139,
      "velocity": 98,
      "chip": "ym2612"
    },
    {
      "channel": 0,
      "note": 53,
      "start": 17.79,
      "duration": 0.2117,
      "velocity": 90,
      "chip": "ym2612"
    },
    {
      "channel": 0,
      "note": 51,
      "start": 18.0212,
      "duration": 0.9051,
      "velocity": 90,
      "chip": "ym2612"
    },
    {
      "channel": 1,
      "note": 75,
      "start": 18.0232,
      "duration": 0.2309,
      "velocity": 99,
      "chip": "ym2612"
    },
    {
      "channel": 3,
      "note": 75,
      "start": 18.1788,
      "duration": 0.2311,
      "velocity": 99,
      "chip": "ym2612"
    },
    {
      "channel": 1,
      "note": 75,
      "start": 18.2541,
      "duration": 0.1156,
      "velocity": 99,
      "chip": "ym2612"
    },
    {
      "channel": 1,
      "note": 75,
      "start": 18.3698,
      "duration": 0.0944,
      "velocity": 99,
      "chip": "ym2612"
    },
    {
      "channel": 3,
      "note": 75,
      "start": 18.41,
      "duration": 0.1156,
      "velocity": 99,
      "chip": "ym2612"
    },
    {
      "channel": 1,
      "note": 70,
      "start": 18.4853,
      "duration": 0.4413,
      "velocity": 99,
      "chip": "ym2612"
    },
    {
      "channel": 3,
      "note": 75,
      "start": 18.5256,
      "duration": 0.0932,
      "velocity": 99,
      "chip": "ym2612"
    },
    {
      "channel": 3,
      "note": 75,
      "start": 18.6407,
      "duration": 0.4403,
      "velocity": 99,
      "chip": "ym2612"
    },
    {
      "channel": 0,
      "note": 49,
      "start": 18.9457,
      "duration": 0.9051,
      "velocity": 90,
      "chip": "ym2612"
    },
    {
      "channel": 1,
      "note": 76,
      "start": 18.9461,
      "duration": 0.6737,
      "velocity": 99,
      "chip": "ym2612"
    },
    {
      "channel": 2,
      "note": 68,
      "start": 18.9467,
      "duration": 1.3668,
      "velocity": 90,
      "chip": "ym2612"
    },
    {
      "channel": 5,
      "note": 76,
      "start": 18.9479,
      "duration": 0.0567,
      "velocity": 98,
      "chip": "ym2612"
    },
    {
      "channel": 4,
      "note": 82,
      "start": 18.9878,
      "duration": 0.8641,
      "velocity": 98,
      "chip": "ym2612"
    },
    {
      "channel": 5,
      "note": 85,
      "start": 19.024,
      "duration": 0.8283,
      "velocity": 98,
      "chip": "ym2612"
    },
    {
      "channel": 3,
      "note": 70,
      "start": 19.1005,
      "duration": 0.674,
      "velocity": 99,
      "chip": "ym2612"
    },
    {
      "channel": 1,
      "note": 78,
      "start": 19.6393,
      "duration": 0.2117,
      "velocity": 99,
      "chip": "ym2612"
    },
    {
      "channel": 3,
      "note": 76,
      "start": 19.794,
      "duration": 0.2116,
      "velocity": 99,
      "chip": "ym2612"
    },
    {
      "channel": 0,
      "note": 51,
      "start": 19.8702,
      "duration": 1.8296,
      "velocity": 90,
      "chip": "ym2612"
    },
    {
      "channel": 1,
      "note": 75,
      "start": 19.8707,
      "duration": 1.3671,
      "velocity": 99,
      "chip": "ym2612"
    },
    {
      "channel": 3,
      "note": 78,
      "start": 20.0255,
      "duration": 1.3674,
      "velocity": 99,
      "chip": "ym2612"
    },
    {
      "channel": 5,
      "note": 73,
      "start": 20.1027,
      "duration": 0.2117,
      "velocity": 98,
      "chip": "ym2612"
    },
    {
      "channel": 4,
      "note": 80,
      "start": 20.2206,
      "duration": 0.209,
      "velocity": 98,
      "chip": "ym2612"
    },
    {
      "channel": 2,
      "note": 65,
      "start": 20.3329,
      "duration": 0.4432,
      "velocity": 90,
      "chip": "ym2612"
    },
    {
      "channel": 5,
      "note": 75,
      "start": 20.3341,
      "duration": 0.2115,
      "velocity": 98,
      "chip": "ym2612"
    },
    {
      "channel": 4,
      "note": 73,
      "start": 20.4491,
      "duration": 0.2117,
      "velocity": 98,
      "chip": "ym2612"
    },
    {
      "channel": 5,
      "note": 79,
      "start": 20.565,
      "duration": 0.212,
      "velocity": 98,
      "chip": "ym2612"
    },
    {
      "channel": 4,
      "note": 75,
      "start": 20.6803,
      "duration": 0.2121,
      "velocity": 98,
      "chip": "ym2612"
    },
    {
      "channel": 2,
      "note": 67,
      "start": 20.7953,
      "duration": 0.9051,
      "velocity": 90,
      "chip": "ym2612"
    },
    {
      "channel": 5,
      "note": 82,
      "start": 20.7965,
      "duration": 0.9049,
      "velocity": 98,
      "chip": "ym2612"
    },
    {
      "channel": 4,
      "note": 79,
      "start": 20.9115,
      "duration": 0.9049,
      "velocity": 98,
      "chip": "ym2612"
    },
    {
      "channel": 1,
      "note": 70,
      "start": 21.2572,
      "duration": 0.4429,
      "velocity": 99,
      "chip": "ym2612"
    },
    {
      "channel": 3,
      "note": 75,
      "start": 21.4119,
      "duration": 0.4427,
      "velocity": 99,
      "chip": "ym2612"
    },
    {
      "channel": 0,
      "note": 52,
      "start": 21.7193,
      "duration": 1.8296,
      "velocity": 90,
      "chip": "ym2612"
    },
    {
      "channel": 1,
      "note": 73,
      "start": 21.7198,
      "duration": 0.9049,
      "velocity": 99,
      "chip": "ym2612"
    },
    {
      "channel": 2,
      "note": 68,
      "start": 21.7203,
      "duration": 0.4423,
      "velocity": 90,
      "chip": "ym2612"
    },
    {
      "channel": 3,
      "note": 70,
      "start": 21.8741,
      "duration": 0.9051,
      "velocity": 99,
      "chip": "ym2612"
    },
    {
      "channel": 5,
      "note": 76,
      "start": 21.9517,
      "duration": 0.2117,
      "velocity": 98,
      "chip": "ym2612"
    },
    {
      "channel": 4,
      "note": 82,
      "start": 22.067,
      "duration": 0.2118,
      "velocity": 98,
      "chip": "ym2612"
    },
    {
      "channel": 2,
      "note": 61,
      "start": 22.182,
      "duration": 1.8296,
      "velocity": 90,
      "chip": "ym2612"
    },
    {
      "channel": 5,
      "note": 80,
      "start": 22.1832,
      "duration": 0.2115,
      "velocity": 98,
      "chip": "ym2612"
    },
    {
      "channel": 4,
      "note": 76,
      "start": 22.2982,
      "duration": 0.2119,
      "velocity": 98,
      "chip": "ym2612"
    },
    {
      "channel": 5,
      "note": 85,
      "start": 22.4141,
      "duration": 0.2122,
      "velocity": 98,
      "chip": "ym2612"
    },
    {
      "channel": 4,
      "note": 80,
      "start": 22.5294,
      "duration": 0.2116,
      "velocity": 98,
      "chip": "ym2612"
    },
    {
      "channel": 1,
      "note": 71,
      "start": 22.6441,
      "duration": 0.674,
      "velocity": 99,
      "chip": "ym2612"
    },
    {
      "channel": 5,
      "note": 88,
      "start": 22.6455,
      "duration": 0.9048,
      "velocity": 98,
      "chip": "ym2612"
    },
    {
      "channel": 4,
      "note": 85,
      "start": 22.7605,
      "duration": 0.9049,
      "velocity": 98,
      "chip": "ym2612"
    },
    {
      "channel": 3,
      "note": 73,
      "start": 22.7987,
      "duration": 0.6739,
      "velocity": 99,
      "chip": "ym2612"
    },
    {
      "channel": 1,
      "note": 70,
      "start": 23.3374,
      "duration": 0.2118,
      "velocity": 99,
      "chip": "ym2612"
    },
    {
      "channel": 3,
      "note": 71,
      "start": 23.4925,
      "duration": 0.2112,
      "velocity": 99,
      "chip": "ym2612"
    },
    {
      "channel": 0,
      "note": 53,
      "start": 23.5683,
      "duration": 1.8873,
      "velocity": 90,
      "chip": "ym2612"
    },
    {
      "channel": 1,
      "note": 71,
      "start": 23.5689,
      "duration": 2.9272,
      "velocity": 99,
      "chip": "ym2612"
    },
    {
      "channel": 3,
      "note": 70,
      "start": 23.7232,
      "duration": 2.9275,
      "velocity": 99,
      "chip": "ym2612"
    },
    {
      "channel": 5,
      "note": 77,
      "start": 23.8009,
      "duration": 0.2116,
      "velocity": 98,
      "chip": "ym2612"
    },
    {
      "channel": 4,
      "note": 88,
      "start": 23.9161,
      "duration": 0.2117,
      "velocity": 98,
      "chip": "ym2612"
    },
    {
      "channel": 2,
      "note": 62,
      "start": 24.0311,
      "duration": 0.4429,
      "velocity": 90,
      "chip": "ym2612"
    },
    {
      "channel": 5,
      "note": 80,
      "start": 24.0322,
      "duration": 0.2116,
      "velocity": 98,
      "chip": "ym2612"
    },
    {
      "channel": 4,
      "note": 77,
      "start": 24.1472,
      "duration": 0.2122,
      "velocity": 98,
      "chip": "ym2612"
    },
    {
      "channel": 5,
      "note": 83,
      "start": 24.2632,
      "duration": 0.2117,
      "velocity": 98,
      "chip": "ym2612"
    },
    {
      "channel": 4,
      "note": 80,
      "start": 24.3785,
      "duration": 0.2117,
      "velocity": 98,
      "chip": "ym2612"
    },
    {
      "channel": 2,
      "note": 65,
      "start": 24.4934,
      "duration": 0.4621,
      "velocity": 90,
      "chip": "ym2612"
    },
    {
      "channel": 5,
      "note": 86,
      "start": 24.4946,
      "duration": 0.9627,
      "velocity": 98,
      "chip": "ym2612"
    },
    {
      "channel": 4,
      "note": 83,
      "start": 24.61,
      "duration": 0.9624,
      "velocity": 98,
      "chip": "ym2612"
    },
    {
      "channel": 2,
      "note": 68,
      "start": 24.9752,
      "duration": 0.481,
      "velocity": 90,
      "chip": "ym2612"
    },
    {
      "channel": 0,
      "note": 55,
      "start": 25.4756,
      "duration": 2.1374,
      "velocity": 90,
      "chip": "ym2612"
    },
    {
      "channel": 2,
      "note": 63,
      "start": 25.4764,
      "duration": 2.1624,
      "velocity": 90,
      "chip": "ym2612"
    },
    {
      "channel": 5,
      "note": 75,
      "start": 25.7077,
      "duration": 0.231,
      "velocity": 98,
      "chip": "ym2612"
    },
    {
      "channel": 4,
      "note": 86,
      "start": 25.823,
      "duration": 0.2309,
      "velocity": 98,
      "chip": "ym2612"
    },
    {
      "channel": 5,
      "note": 82,
      "start": 25.9582,
      "duration": 0.251,
      "velocity": 98,
      "chip": "ym2612"
    },
    {
      "channel": 4,
      "note": 75,
      "start": 26.0734,
      "duration": 0.2502,
      "velocity": 98,
      "chip": "ym2612"
    },
    {
      "channel": 5,
      "note": 85,
      "start": 26.2279,
      "duration": 0.2695,
      "velocity": 98,
      "chip": "ym2612"
    },
    {
      "channel": 4,
      "note": 82,
      "start": 26.3435,
      "duration": 0.269,
      "velocity": 98,
      "chip": "ym2612"
    },
    {
      "channel": 1,
      "note": 70,
      "start": 26.5156,
      "duration": 1.1209,
      "velocity": 99,
      "chip": "ym2612"
    },
    {
      "channel": 5,
      "note": 87,
      "start": 26.5171,
      "duration": 1.0974,
      "velocity": 98,
      "chip": "ym2612"
    },
    {
      "channel": 4,
      "note": 85,
      "start": 26.632,
      "duration": 1.0976,
      "velocity": 98,
      "chip": "ym2612"
    },
    {
      "channel": 3,
      "note": 71,
      "start": 26.6703,
      "duration": 1.1196,
      "velocity": 99,
      "chip": "ym2612"
    },
    {
      "channel": 0,
      "note": 44,
      "start": 27.6343,
      "duration": 1.8278,
      "velocity": 97,
      "chip": "ym2612"
    },
    {
      "channel": 1,
      "note": 70,
      "start": 27.6366,
      "duration": 0.2289,
      "velocity": 99,
      "chip": "ym2612"
    },
    {
      "channel": 2,
      "note": 63,
      "start": 27.6388,
      "duration": 0.2289,
      "velocity": 90,
      "chip": "ym2612"
    },
    {
      "channel": 3,
      "note": 70,
      "start": 27.7899,
      "duration": 0.2311,
      "velocity": 99,
      "chip": "ym2612"
    },
    {
      "channel": 1,
      "note": 70,
      "start": 27.8655,
      "duration": 0.0944,
      "velocity": 99,
      "chip": "ym2612"
    },
    {
      "channel": 2,
      "note": 63,
      "start": 27.8678,
      "duration": 0.0924,
      "velocity": 90,
      "chip": "ym2612"
    },
    {
      "channel": 5,
      "note": 63,
      "start": 27.869,
      "duration": 0.2081,
      "velocity": 98,
      "chip": "ym2612"
    },
    {
      "channel": 4,
      "note": 87,
      "start": 27.9805,
      "duration": 0.2118,
      "velocity": 98,
      "chip": "ym2612"
    },
    {
      "channel": 3,
      "note": 70,
      "start": 28.021,
      "duration": 0.0935,
      "velocity": 99,
      "chip": "ym2612"
    },
    {
      "channel": 1,
      "note": 82,
      "start": 28.0967,
      "duration": 0.4411,
      "velocity": 96,
      "chip": "ym2612"
    },
    {
      "channel": 2,
      "note": 78,
      "start": 28.099,
      "duration": 0.439,
      "velocity": 96,
      "chip": "ym2612"
    },
    {
      "channel": 5,
      "note": 71,
      "start": 28.1002,
      "duration": 0.2074,
      "velocity": 98,
      "chip": "ym2612"
    },
    {
      "channel": 4,
      "note": 63,
      "start": 28.2114,
      "duration": 0.2117,
      "velocity": 98,
      "chip": "ym2612"
    },
    {
      "channel": 3,
      "note": 70,
      "start": 28.2521,
      "duration": 0.4407,
      "velocity": 96,
      "chip": "ym2612"
    },
    {
      "channel": 5,
      "note": 68,
      "start": 28.3273,
      "duration": 0.2118,
      "velocity": 98,
      "chip": "ym2612"
    },
    {
      "channel": 4,
      "note": 71,
      "start": 28.4429,
      "duration": 0.2112,
      "velocity": 98,
      "chip": "ym2612"
    },
    {
      "channel": 1,
      "note": 83,
      "start": 28.5572,
      "duration": 0.4428,
      "velocity": 96,
      "chip": "ym2612"
    },
    {
      "channel": 2,
      "note": 80,
      "start": 28.5577,
      "duration": 0.4426,
      "velocity": 96,
      "chip": "ym2612"
    },
    {
      "channel": 5,
      "note": 71,
      "start": 28.5594,
      "duration": 0.2106,
      "velocity": 98,
      "chip": "ym2612"
    },
    {
      "channel": 4,
      "note": 68,
      "start": 28.6736,
      "duration": 0.2117,
      "velocity": 98,
      "chip": "ym2612"
    },
    {
      "channel": 3,
      "note": 82,
      "start": 28.7119,
      "duration": 0.4427,
      "velocity": 96,
      "chip": "ym2612"
    },
    {
      "channel": 5,
      "note": 68,
      "start": 28.7895,
      "duration": 0.2118,
      "velocity": 98,
      "chip": "ym2612"
    },
    {
      "channel": 4,
      "note": 71,
      "start": 28.9048,
      "duration": 0.2116,
      "velocity": 98,
      "chip": "ym2612"
    },
    {
      "channel": 1,
      "note": 85,
      "start": 29.0195,
      "duration": 0.4428,
      "velocity": 96,
      "chip": "ym2612"
    },
    {
      "channel": 2,
      "note": 82,
      "start": 29.0199,
      "duration": 0.4427,
      "velocity": 96,
      "chip": "ym2612"
    },
    {
      "channel": 5,
      "note": 63,
      "start": 29.0212,
      "duration": 0.211,
      "velocity": 98,
      "chip": "ym2612"
    },
    {
      "channel": 4,
      "note": 68,
      "start": 29.1359,
      "duration": 0.2117,
      "velocity": 98,
      "chip": "ym2612"
    },
    {
      "channel": 3,
      "note": 83,
      "start": 29.1741,
      "duration": 0.4427,
      "velocity": 96,
      "chip": "ym2612"
    },
    {
      "channel": 5,
      "note": 68,
      "start": 29.2517,
      "duration": 0.2118,
      "velocity": 98,
      "chip": "ym2612"
    },
    {
      "channel": 4,
      "note": 63,
      "start": 29.3671,
      "duration": 0.2115,
      "velocity": 98,
      "chip": "ym2612"
    },
    {
      "channel": 0,
      "note": 44,
      "start": 29.4817,
      "duration": 1.8295,
      "velocity": 97,
      "chip": "ym2612"
    },
    {
      "channel": 1,
      "note": 87,
      "start": 29.4822,
      "duration": 0.4424,
      "velocity": 96,
      "chip": "ym2612"
    },
    {
      "channel": 2,
      "note": 83,
      "start": 29.4827,
      "duration": 0.4421,
      "velocity": 96,
      "chip": "ym2612"
    },
    {
      "channel": 3,
      "note": 85,
      "start": 29.6363,
      "duration": 0.4428,
      "velocity": 96,
      "chip": "ym2612"
    },
    {
      "channel": 5,
      "note": 64,
      "start": 29.714,
      "duration": 0.2122,
      "velocity": 98,
      "chip": "ym2612"
    },
    {
      "channel": 4,
      "note": 68,
      "start": 29.8293,
      "duration": 0.2116,
      "velocity": 98,
      "chip": "ym2612"
    },
    {
      "channel": 1,
      "note": 88,
      "start": 29.944,
      "duration": 0.4428,
      "velocity": 96,
      "chip": "ym2612"
    },
    {
      "channel": 2,
      "note": 85,
      "start": 29.9445,
      "duration": 0.4426,
      "velocity": 96,
      "chip": "ym2612"
    },
    {
      "channel": 5,
      "note": 73,
      "start": 29.9457,
      "duration": 0.211,
      "velocity": 98,
      "chip": "ym2612"
    },
    {
      "channel": 4,
      "note": 64,
      "start": 30.0604,
      "duration": 0.2117,
      "velocity": 98,
      "chip": "ym2612"
    },
    {
      "channel": 3,
      "note": 87,
      "start": 30.0986,
      "duration": 0.4428,
      "velocity": 96,
      "chip": "ym2612"
    },
    {
      "channel": 5,
      "note": 68,
      "start": 30.1767,
      "duration": 0.2114,
      "velocity": 98,
      "chip": "ym2612"
    },
    {
      "channel": 4,
      "note": 73,
      "start": 30.2919,
      "duration": 0.2113,
      "velocity": 98,
      "chip": "ym2612"
    },
    {
      "channel": 1,
      "note": 90,
      "start": 30.4063,
      "duration": 0.4428,
      "velocity": 96,
      "chip": "ym2612"
    },
    {
      "channel": 2,
      "note": 87,
      "start": 30.4068,
      "duration": 0.4426,
      "velocity": 96,
      "chip": "ym2612"
    },
    {
      "channel": 5,
      "note": 73,
      "start": 30.408,
      "duration": 0.2111,
      "velocity": 98,
      "chip": "ym2612"
    },
    {
      "channel": 4,
      "note": 68,
      "start": 30.5227,
      "duration": 0.2116,
      "velocity": 98,
      "chip": "ym2612"
    },
    {
      "channel": 3,
      "note": 88,
      "start": 30.5609,
      "duration": 0.4428,
      "velocity": 96,
      "chip": "ym2612"
    },
    {
      "channel": 5,
      "note": 68,
      "start": 30.6385,
      "duration": 0.2118,
      "velocity": 98,
      "chip": "ym2612"
    },
    {
      "channel": 4,
      "note": 73,
      "start": 30.7539,
      "duration": 0.2116,
      "velocity": 98,
      "chip": "ym2612"
    },
    {
      "channel": 1,
      "note": 92,
      "start": 30.8685,
      "duration": 0.4428,
      "velocity": 96,
      "chip": "ym2612"
    },
    {
      "channel": 2,
      "note": 88,
      "start": 30.869,
      "duration": 0.4427,
      "velocity": 96,
      "chip": "ym2612"
    },
    {
      "channel": 5,
      "note": 64,
      "start": 30.8703,
      "duration": 0.211,
      "velocity": 98,
      "chip": "ym2612"
    },
    {
      "channel": 4,
      "note": 68,
      "start": 30.985,
      "duration": 0.2118,
      "velocity": 98,
      "chip": "ym2612"
    },
    {
      "channel": 3,
      "note": 90,
      "start": 31.0232,
      "duration": 0.4427,
      "velocity": 96,
      "chip": "ym2612"
    },
    {
      "channel": 5,
      "note": 68,
      "start": 31.1008,
      "duration": 0.2118,
      "velocity": 98,
      "chip": "ym2612"
    },
    {
      "channel": 4,
      "note": 64,
      "start": 31.2161,
      "duration": 0.2116,
      "velocity": 98,
      "chip": "ym2612"
    },
    {
      "channel": 0,
      "note": 44,
      "start": 31.3307,
      "duration": 1.8295,
      "velocity": 97,
      "chip": "ym2612"
    },
    {
      "channel": 1,
      "note": 94,
      "start": 31.3312,
      "duration": 0.4424,
      "velocity": 96,
      "chip": "ym2612"
    },
    {
      "channel": 2,
      "note": 90,
      "start": 31.3317,
      "duration": 0.4421,
      "velocity": 96,
      "chip": "ym2612"
    },
    {
      "channel": 3,
      "note": 92,
      "start": 31.4854,
      "duration": 0.4428,
      "velocity": 96,
      "chip": "ym2612"
    },
    {
      "channel": 5,
      "note": 66,
      "start": 31.563,
      "duration": 0.2118,
      "velocity": 98,
      "chip": "ym2612"
    },
    {
      "channel": 4,
      "note": 68,
      "start": 31.6783,
      "duration": 0.2116,
      "velocity": 98,
      "chip": "ym2612"
    },
    {
      "channel": 1,
      "note": 95,
      "start": 31.793,
      "duration": 0.4429,
      "velocity": 96,
      "chip": "ym2612"
    },
    {
      "channel": 2,
      "note": 92,
      "start": 31.7935,
      "duration": 0.4426,
      "velocity": 96,
      "chip": "ym2612"
    },
    {
      "channel": 5,
      "note": 75,
      "start": 31.7948,
      "duration": 0.2111,
      "velocity": 98,
      "chip": "ym2612"
    },
    {
      "channel": 4,
      "note": 66,
      "start": 31.9099,
      "duration": 0.2113,
      "velocity": 98,
      "chip": "ym2612"
    },
    {
      "channel": 3,
      "note": 94,
      "start": 31.9477,
      "duration": 0.4427,
      "velocity": 96,
      "chip": "ym2612"
    },
    {
      "channel": 5,
      "note": 70,
      "start": 32.0257,
      "duration": 0.2114,
      "velocity": 98,
      "chip": "ym2612"
    },
    {
      "channel": 4,
      "note": 75,
      "start": 32.1407,
      "duration": 0.2116,
      "velocity": 98,
      "chip": "ym2612"
    },
    {
      "channel": 1,
      "note": 97,
      "start": 32.2554,
      "duration": 0.4428,
      "velocity": 96,
      "chip": "ym2612"
    },
    {
      "channel": 2,
      "note": 94,
      "start": 32.2559,
      "duration": 0.4425,
      "velocity": 96,
      "chip": "ym2612"
    },
    {
      "channel": 5,
      "note": 75,
      "start": 32.2571,
      "duration": 0.2111,
      "velocity": 98,
      "chip": "ym2612"
    },
    {
      "channel": 4,
      "note": 70,
      "start": 32.3718,
      "duration": 0.2116,
      "velocity": 98,
      "chip": "ym2612"
    },
    {
      "channel": 3,
      "note": 95,
      "start": 32.41,
      "duration": 0.4427,
      "velocity": 96,
      "chip": "ym2612"
    },
    {
      "channel": 5,
      "note": 70,
      "start": 32.4876,
      "duration": 0.2118,
      "velocity": 98,
      "chip": "ym2612"
    },
    {
      "channel": 4,
      "note": 75,
      "start": 32.6029,
      "duration": 0.2116,
      "velocity": 98,
      "chip": "ym2612"
    },
    {
      "channel": 1,
      "note": 95,
      "start": 32.7176,
      "duration": 0.4429,
      "velocity": 96,
      "chip": "ym2612"
    },
    {
      "channel": 2,
      "note": 92,
      "start": 32.7181,
      "duration": 0.4427,
      "velocity": 96,
      "chip": "ym2612"
    },
    {
      "channel": 5,
      "note": 66,
      "start": 32.7193,
      "duration": 0.2111,
      "velocity": 98,
      "chip": "ym2612"
    },
    {
      "channel": 4,
      "note": 70,
      "start": 32.8341,
      "duration": 0.2117,
      "velocity": 98,
      "chip": "ym2612"
    },
    {
      "channel": 3,
      "note": 97,
      "start": 32.8722,
      "duration": 0.4428,
      "velocity": 96,
      "chip": "ym2612"
    },
    {
      "channel": 5,
      "note": 70,
      "start": 32.9498,
      "duration": 0.2119,
      "velocity": 98,
      "chip": "ym2612"
    },
    {
      "channel": 4,
      "note": 66,
      "start": 33.0652,
      "duration": 0.2116,
      "velocity": 98,
      "chip": "ym2612"
    },
    {
      "channel": 0,
      "note": 44,
      "start": 33.1798,
      "duration": 1.8295,
      "velocity": 97,
      "chip": "ym2612"
    },
    {
      "channel": 1,
      "note": 94,
      "start": 33.1802,
      "duration": 0.4424,
      "velocity": 96,
      "chip": "ym2612"
    },
    {
      "channel": 2,
      "note": 90,
      "start": 33.1807,
      "duration": 0.4422,
      "velocity": 96,
      "chip": "ym2612"
    },
    {
      "channel": 3,
      "note": 95,
      "start": 33.3344,
      "duration": 0.4428,
      "velocity": 96,
      "chip": "ym2612"
    },
    {
      "channel": 5,
      "note": 64,
      "start": 33.4121,
      "duration": 0.2118,
      "velocity": 98,
      "chip": "ym2612"
    },
    {
      "channel": 4,
      "note": 70,
      "start": 33.5275,
      "duration": 0.2116,
      "velocity": 98,
      "chip": "ym2612"
    },
    {
      "channel": 1,
      "note": 92,
      "start": 33.6425,
      "duration": 0.4424,
      "velocity": 96,
      "chip": "ym2612"
    },
    {
      "channel": 2,
      "note": 88,
      "start": 33.643,
      "duration": 0.4422,
      "velocity": 96,
      "chip": "ym2612"
    },
    {
      "channel": 5,
      "note": 73,
      "start": 33.6442,
      "duration": 0.2106,
      "velocity": 98,
      "chip": "ym2612"
    },
    {
      "channel": 4,
      "note": 64,
      "start": 33.7589,
      "duration": 0.2113,
      "velocity": 98,
      "chip": "ym2612"
    },
    {
      "channel": 3,
      "note": 94,
      "start": 33.7968,
      "duration": 0.4428,
      "velocity": 96,
      "chip": "ym2612"
    },
    {
      "channel": 5,
      "note": 68,
      "start": 33.8744,
      "duration": 0.2118,
      "velocity": 98,
      "chip": "ym2612"
    },
    {
      "channel": 4,
      "note": 73,
      "start": 33.9897,
      "duration": 0.2116,
      "velocity": 98,
      "chip": "ym2612"
    },
    {
      "channel": 1,
      "note": 90,
      "start": 34.1044,
      "duration": 0.4428,
      "velocity": 96,
      "chip": "ym2612"
    },
    {
      "channel": 2,
      "note": 87,
      "start": 34.1049,
      "duration": 0.4426,
      "velocity": 96,
      "chip": "ym2612"
    },
    {
      "channel": 5,
      "note": 73,
      "start": 34.1061,
      "duration": 0.2111,
      "velocity": 98,
      "chip": "ym2612"
    },
    {
      "channel": 4,
      "note": 68,
      "start": 34.2208,
      "duration": 0.2116,
      "velocity": 98,
      "chip": "ym2612"
    },
    {
      "channel": 3,
      "note": 92,
      "start": 34.2595,
      "duration": 0.4424,
      "velocity": 96,
      "chip": "ym2612"
    },
    {
      "channel": 5,
      "note": 68,
      "start": 34.3366,
      "duration": 0.2118,
      "velocity": 98,
      "chip": "ym2612"
    },
    {
      "channel": 4,
      "note": 73,
      "start": 34.452,
      "duration": 0.2116,
      "velocity": 98,
      "chip": "ym2612"
    },
    {
      "channel": 1,
      "note": 92,
      "start": 34.5668,
      "duration": 0.4643,
      "velocity": 96,
      "chip": "ym2612"
    },
    {
      "channel": 2,
      "note": 88,
      "start": 34.5673,
      "duration": 0.466,
      "velocity": 96,
      "chip": "ym2612"
    },
    {
      "channel": 5,
      "note": 64,
      "start": 34.5685,
      "duration": 0.2109,
      "velocity": 98,
      "chip": "ym2612"
    },
    {
      "channel": 4,
      "note": 68,
      "start": 34.683,
      "duration": 0.2118,
      "velocity": 98,
      "chip": "ym2612"
    },
    {
      "channel": 3,
      "note": 90,
      "start": 34.7213,
      "duration": 0.4648,
      "velocity": 96,
      "chip": "ym2612"
    },
    {
      "channel": 5,
      "note": 68,
      "start": 34.7989,
      "duration": 0.2118,
      "velocity": 98,
      "chip": "ym2612"
    },
    {
      "channel": 4,
      "note": 64,
      "start": 34.9142,
      "duration": 0.2121,
      "velocity": 98,
      "chip": "ym2612"
    },
    {
      "channel": 0,
      "note": 44,
      "start": 35.0288,
      "duration": 1.8297,
      "velocity": 97,
      "chip": "ym2612"
    },
    {
      "channel": 1,
      "note": 92,
      "start": 35.0311,
      "duration": 0.2306,
      "velocity": 96,
      "chip": "ym2612"
    },
    {
      "channel": 2,
      "note": 88,
      "start": 35.0334,
      "duration": 0.2305,
      "velocity": 96,
      "chip": "ym2612"
    },
    {
      "channel": 3,
      "note": 92,
      "start": 35.1861,
      "duration": 0.231,
      "velocity": 96,
      "chip": "ym2612"
    },
    {
      "channel": 1,
      "note": 92,
      "start": 35.2617,
      "duration": 0.1162,
      "velocity": 96,
      "chip": "ym2612"
    },
    {
      "channel": 2,
      "note": 88,
      "start": 35.2639,
      "duration": 0.1162,
      "velocity": 96,
      "chip": "ym2612"
    },
    {
      "channel": 5,
      "note": 63,
      "start": 35.2651,
      "duration": 0.2079,
      "velocity": 98,
      "chip": "ym2612"
    },
    {
      "channel": 1,
      "note": 92,
      "start": 35.3779,
      "duration": 0.0938,
      "velocity": 96,
      "chip": "ym2612"
    },
    {
      "channel": 2,
      "note": 88,
      "start": 35.3801,
      "duration": 0.0919,
      "velocity": 96,
      "chip": "ym2612"
    },
    {
      "channel": 4,
      "note": 68,
      "start": 35.3811,
      "duration": 0.207,
      "velocity": 98,
      "chip": "ym2612"
    },
    {
      "channel": 3,
      "note": 92,
      "start": 35.4171,
      "duration": 0.1156,
      "velocity": 96,
      "chip": "ym2612"
    },
    {
      "channel": 1,
      "note": 82,
      "start": 35.4934,
      "duration": 0.4406,
      "velocity": 96,
      "chip": "ym2612"
    },
    {
      "channel": 2,
      "note": 78,
      "start": 35.4956,
      "duration": 0.4387,
      "velocity": 96,
      "chip": "ym2612"
    },
    {
      "channel": 5,
      "note": 71,
      "start": 35.4968,
      "duration": 0.2071,
      "velocity": 98,
      "chip": "ym2612"
    },
    {
      "channel": 3,
      "note": 92,
      "start": 35.5327,
      "duration": 0.0937,
      "velocity": 96,
      "chip": "ym2612"
    },
    {
      "channel": 4,
      "note": 63,
      "start": 35.6076,
      "duration": 0.2117,
      "velocity": 98,
      "chip": "ym2612"
    },
    {
      "channel": 3,
      "note": 92,
      "start": 35.6484,
      "duration": 0.4402,
      "velocity": 96,
      "chip": "ym2612"
    },
    {
      "channel": 5,
      "note": 68,
      "start": 35.7234,
      "duration": 0.2118,
      "velocity": 98,
      "chip": "ym2612"
    },
    {
      "channel": 4,
      "note": 71,
      "start": 35.8388,
      "duration": 0.2116,
      "velocity": 98,
      "chip": "ym2612"
    },
    {
      "channel": 1,
      "note": 83,
      "start": 35.9535,
      "duration": 0.4428,
      "velocity": 96,
      "chip": "ym2612"
    },
    {
      "channel": 2,
      "note": 80,
      "start": 35.954,
      "duration": 0.4426,
      "velocity": 96,
      "chip": "ym2612"
    },
    {
      "channel": 5,
      "note": 71,
      "start": 35.9552,
      "duration": 0.2111,
      "velocity": 98,
      "chip": "ym2612"
    },
    {
      "channel": 4,
      "note": 68,
      "start": 36.0699,
      "duration": 0.2117,
      "velocity": 98,
      "chip": "ym2612"
    },
    {
      "channel": 3,
      "note": 82,
      "start": 36.1081,
      "duration": 0.4428,
      "velocity": 96,
      "chip": "ym2612"
    },
    {
      "channel": 5,
      "note": 68,
      "start": 36.1857,
      "duration": 0.2118,
      "velocity": 98,
      "chip": "ym2612"
    },
    {
      "channel": 4,
      "note": 71,
      "start": 36.301,
      "duration": 0.2116,
      "velocity": 98,
      "chip": "ym2612"
    },
    {
      "channel": 1,
      "note": 85,
      "start": 36.4157,
      "duration": 0.4433,
      "velocity": 96,
      "chip": "ym2612"
    },
    {
      "channel": 2,
      "note": 82,
      "start": 36.4163,
      "duration": 0.443,
      "velocity": 96,
      "chip": "ym2612"
    },
    {
      "channel": 5,
      "note": 63,
      "start": 36.4175,
      "duration": 0.211,
      "velocity": 98,
      "chip": "ym2612"
    },
    {
      "channel": 4,
      "note": 68,
      "start": 36.5322,
      "duration": 0.2118,
      "velocity": 98,
      "chip": "ym2612"
    },
    {
      "channel": 3,
      "note": 83,
      "start": 36.5703,
      "duration": 0.4428,
      "velocity": 96,
      "chip": "ym2612"
    },
    {
      "channel": 5,
      "note": 68,
      "start": 36.648,
      "duration": 0.2122,
      "velocity": 98,
      "chip": "ym2612"
    },
    {
      "channel": 4,
      "note": 63,
      "start": 36.7633,
      "duration": 0.2115,
      "velocity": 98,
      "chip": "ym2612"
    },
    {
      "channel": 0,
      "note": 44,
      "start": 36.8779,
      "duration": 1.8295,
      "velocity": 97,
      "chip": "ym2612"
    },
    {
      "channel": 1,
      "note": 87,
      "start": 36.8784,
      "duration": 0.4424,
      "velocity": 96,
      "chip": "ym2612"
    },
    {
      "channel": 2,
      "note": 83,
      "start": 36.8789,
      "duration": 0.4421,
      "velocity": 96,
      "chip": "ym2612"
    },
    {
      "channel": 3,
      "note": 85,
      "start": 37.0326,
      "duration": 0.4432,
      "velocity": 96,
      "chip": "ym2612"
    },
    {
      "channel": 5,
      "note": 64,
      "start": 37.1105,
      "duration": 0.2116,
      "velocity": 98,
      "chip": "ym2612"
    },
    {
      "channel": 4,
      "note": 68,
      "start": 37.226,
      "duration": 0.2112,
      "velocity": 98,
      "chip": "ym2612"
    },
    {
      "channel": 1,
      "note": 88,
      "start": 37.3402,
      "duration": 0.4429,
      "velocity": 96,
      "chip": "ym2612"
    },
    {
      "channel": 2,
      "note": 85,
      "start": 37.3407,
      "duration": 0.4426,
      "velocity": 96,
      "chip": "ym2612"
    },
    {
      "channel": 5,
      "note": 73,
      "start": 37.3424,
      "duration": 0.2106,
      "velocity": 98,
      "chip": "ym2612"
    },
    {
      "channel": 4,
      "note": 64,
      "start": 37.4567,
      "duration": 0.2116,
      "velocity": 98,
      "chip": "ym2612"
    },
    {
      "channel": 3,
      "note": 87,
      "start": 37.4949,
      "duration": 0.4427,
      "velocity": 96,
      "chip": "ym2612"
    },
    {
      "channel": 5,
      "note": 68,
      "start": 37.5725,
      "duration": 0.2118,
      "velocity": 98,
      "chip": "ym2612"
    },
    {
      "channel": 4,
      "note": 73,
      "start": 37.6879,
      "duration": 0.2116,
      "velocity": 98,
      "chip": "ym2612"
    },
    {
      "channel": 1,
      "note": 90,
      "start": 37.8025,
      "duration": 0.4428,
      "velocity": 96,
      "chip": "ym2612"
    },
    {
      "channel": 2,
      "note": 87,
      "start": 37.803,
      "duration": 0.4426,
      "velocity": 96,
      "chip": "ym2612"
    },
    {
      "channel": 5,
      "note": 73,
      "start": 37.8042,
      "duration": 0.2111,
      "velocity": 98,
      "chip": "ym2612"
    },
    {
      "channel": 4,
      "note": 68,
      "start": 37.919,
      "duration": 0.2117,
      "velocity": 98,
      "chip": "ym2612"
    },
    {
      "channel": 3,
      "note": 88,
      "start": 37.9572,
      "duration": 0.4428,
      "velocity": 96,
      "chip": "ym2612"
    },
    {
      "channel": 5,
      "note": 68,
      "start": 38.0348,
      "duration": 0.2118,
      "velocity": 98,
      "chip": "ym2612"
    },
    {
      "channel": 4,
      "note": 73,
      "start": 38.1501,
      "duration": 0.2117,
      "velocity": 98,
      "chip": "ym2612"
    },
    {
      "channel": 1,
      "note": 92,
      "start": 38.2648,
      "duration": 0.4429,
      "velocity": 96,
      "chip": "ym2612"
    },
    {
      "channel": 2,
      "note": 88,
      "start": 38.2653,
      "duration": 0.4427,
      "velocity": 96,
      "chip": "ym2612"
    },
    {
      "channel": 5,
      "note": 64,
      "start": 38.2665,
      "duration": 0.211,
      "velocity": 98,
      "chip": "ym2612"
    },
    {
      "channel": 4,
      "note": 68,
      "start": 38.3812,
      "duration": 0.2122,
      "velocity": 98,
      "chip": "ym2612"
    },
    {
      "channel": 3,
      "note": 90,
      "start": 38.4194,
      "duration": 0.4427,
      "velocity": 96,
      "chip": "ym2612"
    },
    {
      "channel": 5,
      "note": 68,
      "start": 38.4971,
      "duration": 0.2123,
      "velocity": 98,
      "chip": "ym2612"
    },
    {
      "channel": 4,
      "note": 64,
      "start": 38.6124,
      "duration": 0.2116,
      "velocity": 98,
      "chip": "ym2612"
    },
    {
      "channel": 0,
      "note": 44,
      "start": 38.7269,
      "duration": 1.8295,
      "velocity": 97,
      "chip": "ym2612"
    },
    {
      "channel": 1,
      "note": 94,
      "start": 38.7275,
      "duration": 0.4424,
      "velocity": 96,
      "chip": "ym2612"
    },
    {
      "channel": 2,
      "note": 90,
      "start": 38.728,
      "duration": 0.4422,
      "velocity": 96,
      "chip": "ym2612"
    },
    {
      "channel": 3,
      "note": 92,
      "start": 38.8817,
      "duration": 0.4428,
      "velocity": 96,
      "chip": "ym2612"
    },
    {
      "channel": 5,
      "note": 66,
      "start": 38.9597,
      "duration": 0.2114,
      "velocity": 98,
      "chip": "ym2612"
    },
    {
      "channel": 4,
      "note": 68,
      "start": 39.0746,
      "duration": 0.2117,
      "velocity": 98,
      "chip": "ym2612"
    },
    {
      "channel": 1,
      "note": 95,
      "start": 39.1893,
      "duration": 0.4429,
      "velocity": 96,
      "chip": "ym2612"
    },
    {
      "channel": 2,
      "note": 92,
      "start": 39.1898,
      "duration": 0.4426,
      "velocity": 96,
      "chip": "ym2612"
    },
    {
      "channel": 5,
      "note": 75,
      "start": 39.191,
      "duration": 0.2111,
      "velocity": 98,
      "chip": "ym2612"
    },
    {
      "channel": 4,
      "note": 66,
      "start": 39.3058,
      "duration": 0.2116,
      "velocity": 98,
      "chip": "ym2612"
    },
    {
      "channel": 3,
      "note": 94,
      "start": 39.3439,
      "duration": 0.4428,
      "velocity": 96,
      "chip": "ym2612"
    },
    {
      "channel": 5,
      "note": 70,
      "start": 39.4216,
      "duration": 0.2118,
      "velocity": 98,
      "chip": "ym2612"
    },
    {
      "channel": 4,
      "note": 75,
      "start": 39.5369,
      "duration": 0.2116,
      "velocity": 98,
      "chip": "ym2612"
    },
    {
      "channel": 1,
      "note": 99,
      "start": 39.6516,
      "duration": 0.4428,
      "velocity": 96,
      "chip": "ym2612"
    },
    {
      "channel": 2,
      "note": 95,
      "start": 39.6521,
      "duration": 0.4426,
      "velocity": 96,
      "chip": "ym2612"
    },
    {
      "channel": 5,
      "note": 75,
      "start": 39.6533,
      "duration": 0.2111,
      "velocity": 98,
      "chip": "ym2612"
    },
    {
      "channel": 4,
      "note": 70,
      "start": 39.768,
      "duration": 0.2117,
      "velocity": 98,
      "chip": "ym2612"
    },
    {
      "channel": 3,
      "note": 95,
      "start": 39.8062,
      "duration": 0.4428,
      "velocity": 96,
      "chip": "ym2612"
    },
    {
      "channel": 5,
      "note": 70,
      "start": 39.8838,
      "duration": 0.2119,
      "velocity": 98,
      "chip": "ym2612"
    },
    {
      "channel": 4,
      "note": 75,
      "start": 39.9992,
      "duration": 0.2116,
      "velocity": 98,
      "chip": "ym2612"
    },
    {
      "channel": 1,
      "note": 97,
      "start": 40.1139,
      "duration": 0.4428,
      "velocity": 96,
      "chip": "ym2612"
    },
    {
      "channel": 2,
      "note": 94,
      "start": 40.1144,
      "duration": 0.4427,
      "velocity": 96,
      "chip": "ym2612"
    },
    {
      "channel": 5,
      "note": 66,
      "start": 40.1156,
      "duration": 0.2112,
      "velocity": 98,
      "chip": "ym2612"
    },
    {
      "channel": 4,
      "note": 70,
      "start": 40.2302,
      "duration": 0.2122,
      "velocity": 98,
      "chip": "ym2612"
    },
    {
      "channel": 3,
      "note": 99,
      "start": 40.2685,
      "duration": 0.4427,
      "velocity": 96,
      "chip": "ym2612"
    },
    {
      "channel": 5,
      "note": 70,
      "start": 40.3461,
      "duration": 0.2118,
      "velocity": 98,
      "chip": "ym2612"
    },
    {
      "channel": 4,
      "note": 66,
      "start": 40.4615,
      "duration": 0.2115,
      "velocity": 98,
      "chip": "ym2612"
    },
    {
      "channel": 0,
      "note": 44,
      "start": 40.5761,
      "duration": 1.8295,
      "velocity": 97,
      "chip": "ym2612"
    },
    {
      "channel": 1,
      "note": 102,
      "start": 40.5766,
      "duration": 0.4424,
      "velocity": 96,
      "chip": "ym2612"
    },
    {
      "channel": 2,
      "note": 99,
      "start": 40.5771,
      "duration": 0.4421,
      "velocity": 96,
      "chip": "ym2612"
    },
    {
      "channel": 5,
      "note": 67,
      "start": 40.5783,
      "duration": 0.2106,
      "velocity": 98,
      "chip": "ym2612"
    },
    {
      "channel": 4,
      "note": 70,
      "start": 40.693,
      "duration": 0.2113,
      "velocity": 98,
      "chip": "ym2612"
    },
    {
      "channel": 3,
      "note": 97,
      "start": 40.7307,
      "duration": 0.4428,
      "velocity": 96,
      "chip": "ym2612"
    },
    {
      "channel": 5,
      "note": 70,
      "start": 40.8088,
      "duration": 0.2114,
      "velocity": 98,
      "chip": "ym2612"
    },
    {
      "channel": 4,
      "note": 67,
      "start": 40.9237,
      "duration": 0.2116,
      "velocity": 98,
      "chip": "ym2612"
    },
    {
      "channel": 1,
      "note": 100,
      "start": 41.0384,
      "duration": 0.4428,
      "velocity": 96,
      "chip": "ym2612"
    },
    {
      "channel": 2,
      "note": 97,
      "start": 41.0389,
      "duration": 0.4426,
      "velocity": 96,
      "chip": "ym2612"
    },
    {
      "channel": 5,
      "note": 73,
      "start": 41.0401,
      "duration": 0.211,
      "velocity": 98,
      "chip": "ym2612"
    },
    {
      "channel": 4,
      "note": 70,
      "start": 41.1548,
      "duration": 0.2117,
      "velocity": 98,
      "chip": "ym2612"
    },
    {
      "channel": 3,
      "note": 102,
      "start": 41.1933,
      "duration": 0.4425,
      "velocity": 96,
      "chip": "ym2612"
    },
    {
      "channel": 5,
      "note": 70,
      "start": 41.2706,
      "duration": 0.2118,
      "velocity": 98,
      "chip": "ym2612"
    },
    {
      "channel": 4,
      "note": 73,
      "start": 41.386,
      "duration": 0.2116,
      "velocity": 98,
      "chip": "ym2612"
    },
    {
      "channel": 1,
      "note": 99,
      "start": 41.5007,
      "duration": 0.4428,
      "velocity": 96,
      "chip": "ym2612"
    },
    {
      "channel": 2,
      "note": 95,
      "start": 41.5012,
      "duration": 0.4426,
      "velocity": 96,
      "chip": "ym2612"
    },
    {
      "channel": 5,
      "note": 76,
      "start": 41.5024,
      "duration": 0.2111,
      "velocity": 98,
      "chip": "ym2612"
    },
    {
      "channel": 4,
      "note": 70,
      "start": 41.6171,
      "duration": 0.2117,
      "velocity": 98,
      "chip": "ym2612"
    },
    {
      "channel": 3,
      "note": 100,
      "start": 41.6553,
      "duration": 0.4428,
      "velocity": 96,
      "chip": "ym2612"
    },
    {
      "channel": 5,
      "note": 73,
      "start": 41.7329,
      "duration": 0.2118,
      "velocity": 98,
      "chip": "ym2612"
    },
    {
      "channel": 4,
      "note": 76,
      "start": 41.8483,
      "duration": 0.2118,
      "velocity": 98,
      "chip": "ym2612"
    },
    {
      "channel": 1,
      "note": 97,
      "start": 41.9629,
      "duration": 0.4428,
      "velocity": 96,
      "chip": "ym2612"
    },
    {
      "channel": 2,
      "note": 94,
      "start": 41.9634,
      "duration": 0.4426,
      "velocity": 96,
      "chip": "ym2612"
    },
    {
      "channel": 5,
      "note": 82,
      "start": 41.9647,
      "duration": 0.2115,
      "velocity": 98,
      "chip": "ym2612"
    },
    {
      "channel": 4,
      "note": 73,
      "start": 42.0794,
      "duration": 0.2117,
      "velocity": 98,
      "chip": "ym2612"
    },
    {
      "channel": 3,
      "note": 99,
      "start": 42.1175,
      "duration": 0.4427,
      "velocity": 96,
      "chip": "ym2612"
    },
    {
      "channel": 5,
      "note": 79,
      "start": 42.1952,
      "duration": 0.2118,
      "velocity": 98,
      "chip": "ym2612"
    },
    {
      "channel": 4,
      "note": 82,
      "start": 42.3105,
      "duration": 0.2115,
      "velocity": 98,
      "chip": "ym2612"
    },
    {
      "channel": 0,
      "note": 44,
      "start": 42.4255,
      "duration": 3.6781,
      "velocity": 97,
      "chip": "ym2612"
    },
    {
      "channel": 1,
      "note": 97,
      "start": 42.4261,
      "duration": 0.673,
      "velocity": 96,
      "chip": "ym2612"
    },
    {
      "channel": 2,
      "note": 94,
      "start": 42.4268,
      "duration": 0.6728,
      "velocity": 96,
      "chip": "ym2612"
    },
    {
      "channel": 3,
      "note": 97,
      "start": 42.5799,
      "duration": 0.6739,
      "velocity": 96,
      "chip": "ym2612"
    },
    {
      "channel": 5,
      "note": 68,
      "start": 42.6574,
      "duration": 0.2118,
      "velocity": 98,
      "chip": "ym2612"
    },
    {
      "channel": 4,
      "note": 79,
      "start": 42.7727,
      "duration": 0.2117,
      "velocity": 98,
      "chip": "ym2612"
    },
    {
      "channel": 5,
      "note": 71,
      "start": 42.8886,
      "duration": 0.2118,
      "velocity": 98,
      "chip": "ym2612"
    },
    {
      "channel": 4,
      "note": 68,
      "start": 43.004,
      "duration": 0.2115,
      "velocity": 98,
      "chip": "ym2612"
    },
    {
      "channel": 1,
      "note": 99,
      "start": 43.1186,
      "duration": 0.2116,
      "velocity": 96,
      "chip": "ym2612"
    },
    {
      "channel": 2,
      "note": 95,
      "start": 43.119,
      "duration": 0.2115,
      "velocity": 96,
      "chip": "ym2612"
    },
    {
      "channel": 5,
      "note": 75,
      "start": 43.1203,
      "duration": 0.2111,
      "velocity": 98,
      "chip": "ym2612"
    },
    {
      "channel": 4,
      "note": 71,
      "start": 43.235,
      "duration": 0.2116,
      "velocity": 98,
      "chip": "ym2612"
    },
    {
      "channel": 3,
      "note": 97,
      "start": 43.2732,
      "duration": 0.2116,
      "velocity": 96,
      "chip": "ym2612"
    },
    {
      "channel": 1,
      "note": 99,
      "start": 43.3498,
      "duration": 2.313,
      "velocity": 96,
      "chip": "ym2612"
    },
    {
      "channel": 2,
      "note": 95,
      "start": 43.3504,
      "duration": 2.3147,
      "velocity": 96,
      "chip": "ym2612"
    },
    {
      "channel": 5,
      "note": 80,
      "start": 43.3516,
      "duration": 1.4053,
      "velocity": 98,
      "chip": "ym2612"
    },
    {
      "channel": 4,
      "note": 75,
      "start": 43.4661,
      "duration": 1.2519,
      "velocity": 98,
      "chip": "ym2612"
    },
    {
      "channel": 3,
      "note": 99,
      "start": 43.5044,
      "duration": 2.3139,
      "velocity": 96,
      "chip": "ym2612"
    },
    {
      "channel": 4,
      "note": 80,
      "start": 44.74,
      "duration": 0.4403,
      "velocity": 98,
      "chip": "ym2612"
    },
    {
      "channel": 5,
      "note": 95,
      "start": 44.7767,
      "duration": 0.4424,
      "velocity": 98,
      "chip": "ym2612"
    },
    {
      "channel": 4,
      "note": 87,
      "start": 45.1997,
      "duration": 0.4432,
      "velocity": 98,
      "chip": "ym2612"
    },
    {
      "channel": 5,
      "note": 92,
      "start": 45.2386,
      "duration": 0.4428,
      "velocity": 98,
      "chip": "ym2612"
    },
    {
      "channel": 1,
      "note": 99,
      "start": 45.6628,
      "duration": 0.2314,
      "velocity": 96,
      "chip": "ym2612"
    },
    {
      "channel": 2,
      "note": 95,
      "start": 45.6651,
      "duration": 0.2313,
      "velocity": 96,
      "chip": "ym2612"
    },
    {
      "channel": 4,
      "note": 83,
      "start": 45.6661,
      "duration": 0.4388,
      "velocity": 98,
      "chip": "ym2612"
    },
    {
      "channel": 5,
      "note": 87,
      "start": 45.7008,
      "duration": 0.4044,
      "velocity": 98,
      "chip": "ym2612"
    },
    {
      "channel": 3,
      "note": 99,
      "start": 45.8183,
      "duration": 0.231,
      "velocity": 96,
      "chip": "ym2612"
    },
    {
      "channel": 1,
      "note": 99,
      "start": 45.8942,
      "duration": 0.1156,
      "velocity": 96,
      "chip": "ym2612"
    },
    {
      "channel": 2,
      "note": 95,
      "start": 45.8964,
      "duration": 0.1158,
      "velocity": 96,
      "chip": "ym2612"
    },
    {
      "channel": 1,
      "note": 99,
      "start": 46.0099,
      "duration": 0.094,
      "velocity": 96,
      "chip": "ym2612"
    },
    {
      "channel": 2,
      "note": 95,
      "start": 46.0122,
      "duration": 0.092,
      "velocity": 96,
      "chip": "ym2612"
    },
    {
      "channel": 3,
      "note": 99,
      "start": 46.0493,
      "duration": 0.1156,
      "velocity": 96,
      "chip": "ym2612"
    },
    {
      "channel": 0,
      "note": 44,
      "start": 46.1231,
      "duration": 3.6787,
      "velocity": 97,
      "chip": "ym2612"
    },
    {
      "channel": 1,
      "note": 85,
      "start": 46.1259,
      "duration": 0.6715,
      "velocity": 96,
      "chip": "ym2612"
    },
    {
      "channel": 2,
      "note": 82,
      "start": 46.1282,
      "duration": 0.6694,
      "velocity": 96,
      "chip": "ym2612"
    },
    {
      "channel": 3,
      "note": 99,
      "start": 46.1649,
      "duration": 0.094,
      "velocity": 96,
      "chip": "ym2612"
    },
    {
      "channel": 3,
      "note": 99,
      "start": 46.2806,
      "duration": 0.6712,
      "velocity": 96,
      "chip": "ym2612"
    },
    {
      "channel": 5,
      "note": 68,
      "start": 46.3556,
      "duration": 0.2117,
      "velocity": 98,
      "chip": "ym2612"
    },
    {
      "channel": 4,
      "note": 80,
      "start": 46.4735,
      "duration": 0.2091,
      "velocity": 98,
      "chip": "ym2612"
    },
    {
      "channel": 5,
      "note": 73,
      "start": 46.5868,
      "duration": 0.2118,
      "velocity": 98,
      "chip": "ym2612"
    },
    {
      "channel": 4,
      "note": 68,
      "start": 46.7021,
      "duration": 0.2116,
      "velocity": 98,
      "chip": "ym2612"
    },
    {
      "channel": 1,
      "note": 87,
      "start": 46.8167,
      "duration": 0.2117,
      "velocity": 96,
      "chip": "ym2612"
    },
    {
      "channel": 2,
      "note": 83,
      "start": 46.8172,
      "duration": 0.2115,
      "velocity": 96,
      "chip": "ym2612"
    },
    {
      "channel": 5,
      "note": 76,
      "start": 46.8184,
      "duration": 0.2111,
      "velocity": 98,
      "chip": "ym2612"
    },
    {
      "channel": 4,
      "note": 73,
      "start": 46.9332,
      "duration": 0.2116,
      "velocity": 98,
      "chip": "ym2612"
    },
    {
      "channel": 3,
      "note": 85,
      "start": 46.9713,
      "duration": 0.2117,
      "velocity": 96,
      "chip": "ym2612"
    },
    {
      "channel": 1,
      "note": 87,
      "start": 47.0479,
      "duration": 2.3132,
      "velocity": 96,
      "chip": "ym2612"
    },
    {
      "channel": 2,
      "note": 83,
      "start": 47.0485,
      "duration": 2.3149,
      "velocity": 96,
      "chip": "ym2612"
    },
    {
      "channel": 5,
      "note": 80,
      "start": 47.0497,
      "duration": 1.4052,
      "velocity": 98,
      "chip": "ym2612"
    },
    {
      "channel": 4,
      "note": 76,
      "start": 47.1642,
      "duration": 1.2518,
      "velocity": 98,
      "chip": "ym2612"
    },
    {
      "channel": 3,
      "note": 87,
      "start": 47.2025,
      "duration": 2.3139,
      "velocity": 96,
      "chip": "ym2612"
    },
    {
      "channel": 4,
      "note": 80,
      "start": 48.4381,
      "duration": 0.4403,
      "velocity": 98,
      "chip": "ym2612"
    },
    {
      "channel": 5,
      "note": 82,
      "start": 48.4744,
      "duration": 0.4427,
      "velocity": 98,
      "chip": "ym2612"
    },
    {
      "channel": 4,
      "note": 73,
      "start": 48.8978,
      "duration": 0.4428,
      "velocity": 98,
      "chip": "ym2612"
    },
    {
      "channel": 5,
      "note": 83,
      "start": 48.9367,
      "duration": 0.4428,
      "velocity": 98,
      "chip": "ym2612"
    },
    {
      "channel": 1,
      "note": 87,
      "start": 49.3612,
      "duration": 0.2312,
      "velocity": 96,
      "chip": "ym2612"
    },
    {
      "channel": 2,
      "note": 83,
      "start": 49.3634,
      "duration": 0.2311,
      "velocity": 96,
      "chip": "ym2612"
    },
    {
      "channel": 4,
      "note": 75,
      "start": 49.3644,
      "duration": 0.4385,
      "velocity": 98,
      "chip": "ym2612"
    },
    {
      "channel": 5,
      "note": 85,
      "start": 49.399,
      "duration": 0.4044,
      "velocity": 98,
      "chip": "ym2612"
    },
    {
      "channel": 3,
      "note": 87,
      "start": 49.5164,
      "duration": 0.231,
      "velocity": 96,
      "chip": "ym2612"
    },
    {
      "channel": 1,
      "note": 87,
      "start": 49.5924,
      "duration": 0.1153,
      "velocity": 96,
      "chip": "ym2612"
    },
    {
      "channel": 2,
      "note": 83,
      "start": 49.5946,
      "duration": 0.1158,
      "velocity": 96,
      "chip": "ym2612"
    },
    {
      "channel": 1,
      "note": 87,
      "start": 49.7077,
      "duration": 0.0943,
      "velocity": 96,
      "chip": "ym2612"
    },
    {
      "channel": 2,
      "note": 83,
      "start": 49.7103,
      "duration": 0.092,
      "velocity": 96,
      "chip": "ym2612"
    },
    {
      "channel": 3,
      "note": 87,
      "start": 49.7474,
      "duration": 0.1156,
      "velocity": 96,
      "chip": "ym2612"
    },
    {
      "channel": 0,
      "note": 44,
      "start": 49.8212,
      "duration": 3.6787,
      "velocity": 97,
      "chip": "ym2612"
    },
    {
      "channel": 1,
      "note": 97,
      "start": 49.8236,
      "duration": 0.6718,
      "velocity": 96,
      "chip": "ym2612"
    },
    {
      "channel": 2,
      "note": 94,
      "start": 49.8264,
      "duration": 0.6694,
      "velocity": 96,
      "chip": "ym2612"
    },
    {
      "channel": 3,
      "note": 87,
      "start": 49.863,
      "duration": 0.0936,
      "velocity": 96,
      "chip": "ym2612"
    },
    {
      "channel": 3,
      "note": 87,
      "start": 49.9791,
      "duration": 0.6709,
      "velocity": 96,
      "chip": "ym2612"
    },
    {
      "channel": 5,
      "note": 68,
      "start": 50.0537,
      "duration": 0.2117,
      "velocity": 98,
      "chip": "ym2612"
    },
    {
      "channel": 4,
      "note": 76,
      "start": 50.1716,
      "duration": 0.2091,
      "velocity": 98,
      "chip": "ym2612"
    },
    {
      "channel": 5,
      "note": 71,
      "start": 50.285,
      "duration": 0.2118,
      "velocity": 98,
      "chip": "ym2612"
    },
    {
      "channel": 4,
      "note": 68,
      "start": 50.4002,
      "duration": 0.2116,
      "velocity": 98,
      "chip": "ym2612"
    },
    {
      "channel": 1,
      "note": 99,
      "start": 50.5149,
      "duration": 0.2117,
      "velocity": 96,
      "chip": "ym2612"
    },
    {
      "channel": 2,
      "note": 95,
      "start": 50.5154,
      "duration": 0.2114,
      "velocity": 96,
      "chip": "ym2612"
    },
    {
      "channel": 5,
      "note": 75,
      "start": 50.5166,
      "duration": 0.2111,
      "velocity": 98,
      "chip": "ym2612"
    },
    {
      "channel": 4,
      "note": 71,
      "start": 50.6313,
      "duration": 0.212,
      "velocity": 98,
      "chip": "ym2612"
    },
    {
      "channel": 3,
      "note": 97,
      "start": 50.6695,
      "duration": 0.2116,
      "velocity": 96,
      "chip": "ym2612"
    },
    {
      "channel": 1,
      "note": 99,
      "start": 50.7461,
      "duration": 2.3134,
      "velocity": 96,
      "chip": "ym2612"
    },
    {
      "channel": 2,
      "note": 95,
      "start": 50.7467,
      "duration": 2.3151,
      "velocity": 96,
      "chip": "ym2612"
    },
    {
      "channel": 5,
      "note": 80,
      "start": 50.7479,
      "duration": 1.4052,
      "velocity": 98,
      "chip": "ym2612"
    },
    {
      "channel": 4,
      "note": 75,
      "start": 50.8623,
      "duration": 1.2519,
      "velocity": 98,
      "chip": "ym2612"
    },
    {
      "channel": 3,
      "note": 99,
      "start": 50.9007,
      "duration": 2.3138,
      "velocity": 96,
      "chip": "ym2612"
    },
    {
      "channel": 4,
      "note": 80,
      "start": 52.1363,
      "duration": 0.4405,
      "velocity": 98,
      "chip": "ym2612"
    },
    {
      "channel": 5,
      "note": 95,
      "start": 52.1726,
      "duration": 0.4427,
      "velocity": 98,
      "chip": "ym2612"
    },
    {
      "channel": 4,
      "note": 87,
      "start": 52.596,
      "duration": 0.4427,
      "velocity": 98,
      "chip": "ym2612"
    },
    {
      "channel": 5,
      "note": 92,
      "start": 52.6348,
      "duration": 0.4429,
      "velocity": 98,
      "chip": "ym2612"
    },
    {
      "channel": 1,
      "note": 99,
      "start": 53.0595,
      "duration": 0.2307,
      "velocity": 96,
      "chip": "ym2612"
    },
    {
      "channel": 2,
      "note": 95,
      "start": 53.0617,
      "duration": 0.231,
      "velocity": 96,
      "chip": "ym2612"
    },
    {
      "channel": 4,
      "note": 83,
      "start": 53.0627,
      "duration": 0.4384,
      "velocity": 98,
      "chip": "ym2612"
    },
    {
      "channel": 5,
      "note": 87,
      "start": 53.0971,
      "duration": 0.4044,
      "velocity": 98,
      "chip": "ym2612"
    },
    {
      "channel": 3,
      "note": 99,
      "start": 53.2145,
      "duration": 0.2312,
      "velocity": 96,
      "chip": "ym2612"
    },
    {
      "channel": 1,
      "note": 99,
      "start": 53.2901,
      "duration": 0.1156,
      "velocity": 96,
      "chip": "ym2612"
    },
    {
      "channel": 2,
      "note": 95,
      "start": 53.2927,
      "duration": 0.1153,
      "velocity": 96,
      "chip": "ym2612"
    },
    {
      "channel": 1,
      "note": 99,
      "start": 53.4058,
      "duration": 0.0944,
      "velocity": 96,
      "chip": "ym2612"
    },
    {
      "channel": 2,
      "note": 95,
      "start": 53.408,
      "duration": 0.0925,
      "velocity": 96,
      "chip": "ym2612"
    },
    {
      "channel": 3,
      "note": 99,
      "start": 53.4457,
      "duration": 0.1158,
      "velocity": 96,
      "chip": "ym2612"
    },
    {
      "channel": 0,
      "note": 44,
      "start": 53.5193,
      "duration": 1.8297,
      "velocity": 97,
      "chip": "ym2612"
    },
    {
      "channel": 1,
      "note": 85,
      "start": 53.5224,
      "duration": 0.6712,
      "velocity": 96,
      "chip": "ym2612"
    },
    {
      "channel": 2,
      "note": 82,
      "start": 53.5256,
      "duration": 0.6683,
      "velocity": 96,
      "chip": "ym2612"
    },
    {
      "channel": 3,
      "note": 99,
      "start": 53.5615,
      "duration": 0.0931,
      "velocity": 96,
      "chip": "ym2612"
    },
    {
      "channel": 3,
      "note": 99,
      "start": 53.6778,
      "duration": 0.6703,
      "velocity": 96,
      "chip": "ym2612"
    },
    {
      "channel": 5,
      "note": 68,
      "start": 53.7518,
      "duration": 0.2117,
      "velocity": 98,
      "chip": "ym2612"
    },
    {
      "channel": 4,
      "note": 80,
      "start": 53.8698,
      "duration": 0.209,
      "velocity": 98,
      "chip": "ym2612"
    },
    {
      "channel": 5,
      "note": 73,
      "start": 53.983,
      "duration": 0.2118,
      "velocity": 98,
      "chip": "ym2612"
    },
    {
      "channel": 4,
      "note": 68,
      "start": 54.0983,
      "duration": 0.2117,
      "velocity": 98,
      "chip": "ym2612"
    },
    {
      "channel": 1,
      "note": 87,
      "start": 54.213,
      "duration": 0.2116,
      "velocity": 96,
      "chip": "ym2612"
    },
    {
      "channel": 2,
      "note": 83,
      "start": 54.2134,
      "duration": 0.2119,
      "velocity": 96,
      "chip": "ym2612"
    },
    {
      "channel": 5,
      "note": 76,
      "start": 54.2147,
      "duration": 0.2117,
      "velocity": 98,
      "chip": "ym2612"
    },
    {
      "channel": 4,
      "note": 73,
      "start": 54.3294,
      "duration": 0.2116,
      "velocity": 98,
      "chip": "ym2612"
    },
    {
      "channel": 3,
      "note": 85,
      "start": 54.3676,
      "duration": 0.2116,
      "velocity": 96,
      "chip": "ym2612"
    },
    {
      "channel": 1,
      "note": 87,
      "start": 54.4441,
      "duration": 0.9051,
      "velocity": 96,
      "chip": "ym2612"
    },
    {
      "channel": 2,
      "note": 83,
      "start": 54.4446,
      "duration": 0.9049,
      "velocity": 96,
      "chip": "ym2612"
    },
    {
      "channel": 5,
      "note": 80,
      "start": 54.4458,
      "duration": 0.9047,
      "velocity": 98,
      "chip": "ym2612"
    },
    {
      "channel": 4,
      "note": 76,
      "start": 54.5605,
      "duration": 0.9051,
      "velocity": 98,
      "chip": "ym2612"
    },
    {
      "channel": 3,
      "note": 87,
      "start": 54.5988,
      "duration": 0.905,
      "velocity": 96,
      "chip": "ym2612"
    },
    {
      "channel": 0,
      "note": 39,
      "start": 55.3684,
      "duration": 1.8296,
      "velocity": 97,
      "chip": "ym2612"
    },
    {
      "channel": 1,
      "note": 85,
      "start": 55.369,
      "duration": 0.6735,
      "velocity": 96,
      "chip": "ym2612"
    },
    {
      "channel": 2,
      "note": 82,
      "start": 55.3696,
      "duration": 0.6733,
      "velocity": 96,
      "chip": "ym2612"
    },
    {
      "channel": 3,
      "note": 87,
      "start": 55.5234,
      "duration": 0.6738,
      "velocity": 96,
      "chip": "ym2612"
    },
    {
      "channel": 5,
      "note": 70,
      "start": 55.6009,
      "duration": 0.2118,
      "velocity": 98,
      "chip": "ym2612"
    },
    {
      "channel": 4,
      "note": 80,
      "start": 55.7162,
      "duration": 0.2117,
      "velocity": 98,
      "chip": "ym2612"
    },
    {
      "channel": 5,
      "note": 73,
      "start": 55.8321,
      "duration": 0.2118,
      "velocity": 98,
      "chip": "ym2612"
    },
    {
      "channel": 4,
      "note": 70,
      "start": 55.9474,
      "duration": 0.212,
      "velocity": 98,
      "chip": "ym2612"
    },
    {
      "channel": 1,
      "note": 87,
      "start": 56.0621,
      "duration": 0.2117,
      "velocity": 96,
      "chip": "ym2612"
    },
    {
      "channel": 2,
      "note": 80,
      "start": 56.0626,
      "duration": 0.2115,
      "velocity": 96,
      "chip": "ym2612"
    },
    {
      "channel": 5,
      "note": 75,
      "start": 56.0638,
      "duration": 0.2111,
      "velocity": 98,
      "chip": "ym2612"
    },
    {
      "channel": 4,
      "note": 73,
      "start": 56.1785,
      "duration": 0.2116,
      "velocity": 98,
      "chip": "ym2612"
    },
    {
      "channel": 3,
      "note": 85,
      "start": 56.2167,
      "duration": 0.2116,
      "velocity": 96,
      "chip": "ym2612"
    },
    {
      "channel": 1,
      "note": 87,
      "start": 56.2932,
      "duration": 0.9051,
      "velocity": 96,
      "chip": "ym2612"
    },
    {
      "channel": 2,
      "note": 79,
      "start": 56.2937,
      "duration": 0.9049,
      "velocity": 96,
      "chip": "ym2612"
    },
    {
      "channel": 5,
      "note": 82,
      "start": 56.2949,
      "duration": 0.9047,
      "velocity": 98,
      "chip": "ym2612"
    },
    {
      "channel": 4,
      "note": 75,
      "start": 56.41,
      "duration": 0.9047,
      "velocity": 98,
      "chip": "ym2612"
    },
    {
      "channel": 3,
      "note": 87,
      "start": 56.4478,
      "duration": 0.905,
      "velocity": 96,
      "chip": "ym2612"
    },
    {
      "channel": 0,
      "note": 44,
      "start": 57.2175,
      "duration": 3.5057,
      "velocity": 97,
      "chip": "ym2612"
    },
    {
      "channel": 1,
      "note": 85,
      "start": 57.2183,
      "duration": 1.8868,
      "velocity": 96,
      "chip": "ym2612"
    },
    {
      "channel": 2,
      "note": 76,
      "start": 57.2189,
      "duration": 1.8865,
      "velocity": 96,
      "chip": "ym2612"
    },
    {
      "channel": 3,
      "note": 87,
      "start": 57.3726,
      "duration": 1.8872,
      "velocity": 96,
      "chip": "ym2612"
    },
    {
      "channel": 4,
      "note": 82,
      "start": 57.6834,
      "duration": 0.4402,
      "velocity": 98,
      "chip": "ym2612"
    },
    {
      "channel": 5,
      "note": 76,
      "start": 57.7196,
      "duration": 0.4429,
      "velocity": 98,
      "chip": "ym2612"
    },
    {
      "channel": 4,
      "note": 73,
      "start": 58.1435,
      "duration": 0.4617,
      "velocity": 98,
      "chip": "ym2612"
    },
    {
      "channel": 5,
      "note": 85,
      "start": 58.182,
      "duration": 0.462,
      "velocity": 98,
      "chip": "ym2612"
    },
    {
      "channel": 4,
      "note": 76,
      "start": 58.6248,
      "duration": 0.4812,
      "velocity": 98,
      "chip": "ym2612"
    },
    {
      "channel": 5,
      "note": 82,
      "start": 58.6635,
      "duration": 0.4812,
      "velocity": 98,
      "chip": "ym2612"
    },
    {
      "channel": 1,
      "note": 83,
      "start": 59.1246,
      "duration": 0.9435,
      "velocity": 96,
      "chip": "ym2612"
    },
    {
      "channel": 2,
      "note": 75,
      "start": 59.1255,
      "duration": 0.9429,
      "velocity": 96,
      "chip": "ym2612"
    },
    {
      "channel": 4,
      "note": 73,
      "start": 59.1265,
      "duration": 1.9443,
      "velocity": 98,
      "chip": "ym2612"
    },
    {
      "channel": 5,
      "note": 87,
      "start": 59.1643,
      "duration": 1.9069,
      "velocity": 98,
      "chip": "ym2612"
    },
    {
      "channel": 3,
      "note": 85,
      "start": 59.2792,
      "duration": 0.9436,
      "velocity": 96,
      "chip": "ym2612"
    },
    {
      "channel": 1,
      "note": 82,
      "start": 60.0877,
      "duration": 0.9821,
      "velocity": 96,
      "chip": "ym2612"
    },
    {
      "channel": 2,
      "note": 73,
      "start": 60.0881,
      "duration": 0.9819,
      "velocity": 96,
      "chip": "ym2612"
    },
    {
      "channel": 3,
      "note": 83,
      "start": 60.2428,
      "duration": 0.9815,
      "velocity": 96,
      "chip": "ym2612"
    },
    {
      "channel": 0,
      "note": 44,
      "start": 60.7232,
      "duration": 4.4296,
      "velocity": 97,
      "chip": "ym2612"
    },
    {
      "channel": 1,
      "note": 83,
      "start": 61.0892,
      "duration": 2.6578,
      "velocity": 96,
      "chip": "ym2612"
    },
    {
      "channel": 2,
      "note": 75,
      "start": 61.0898,
      "duration": 3.1412,
      "velocity": 96,
      "chip": "ym2612"
    },
    {
      "channel": 3,
      "note": 82,
      "start": 61.2438,
      "duration": 2.6578,
      "velocity": 96,
      "chip": "ym2612"
    },
    {
      "channel": 5,
      "note": 80,
      "start": 61.4371,
      "duration": 0.308,
      "velocity": 98,
      "chip": "ym2612"
    },
    {
      "channel": 4,
      "note": 75,
      "start": 61.5939,
      "duration": 0.3049,
      "velocity": 98,
      "chip": "ym2612"
    },
    {
      "channel": 5,
      "note": 75,
      "start": 61.7645,
      "duration": 0.3081,
      "velocity": 98,
      "chip": "ym2612"
    },
    {
      "channel": 4,
      "note": 80,
      "start": 61.9185,
      "duration": 0.3082,
      "velocity": 98,
      "chip": "ym2612"
    },
    {
      "channel": 5,
      "note": 73,
      "start": 62.0924,
      "duration": 0.3075,
      "velocity": 98,
      "chip": "ym2612"
    },
    {
      "channel": 4,
      "note": 75,
      "start": 62.2458,
      "duration": 0.308,
      "velocity": 98,
      "chip": "ym2612"
    },
    {
      "channel": 5,
      "note": 70,
      "start": 62.4194,
      "duration": 0.3464,
      "velocity": 98,
      "chip": "ym2612"
    },
    {
      "channel": 4,
      "note": 73,
      "start": 62.5732,
      "duration": 0.3464,
      "velocity": 98,
      "chip": "ym2612"
    },
    {
      "channel": 5,
      "note": 71,
      "start": 62.7854,
      "duration": 0.4243,
      "velocity": 98,
      "chip": "ym2612"
    },
    {
      "channel": 4,
      "note": 70,
      "start": 62.9392,
      "duration": 0.4235,
      "velocity": 98,
      "chip": "ym2612"
    },
    {
      "channel": 5,
      "note": 68,
      "start": 63.2285,
      "duration": 2.1376,
      "velocity": 98,
      "chip": "ym2612"
    },
    {
      "channel": 4,
      "note": 71,
      "start": 63.3822,
      "duration": 2.1377,
      "velocity": 98,
      "chip": "ym2612"
    },
    {
      "channel": 1,
      "note": 79,
      "start": 63.7683,
      "duration": 0.4413,
      "velocity": 99,
      "chip": "ym2612"
    },
    {
      "channel": 3,
      "note": 83,
      "start": 63.9237,
      "duration": 0.4402,
      "velocity": 99,
      "chip": "ym2612"
    },
    {
      "channel": 1,
      "note": 80,
      "start": 64.2287,
      "duration": 0.4428,
      "velocity": 99,
      "chip": "ym2612"
    },
    {
      "channel": 2,
      "note": 75,
      "start": 64.231,
      "duration": 0.2307,
      "velocity": 96,
      "chip": "ym2612"
    },
    {
      "channel": 3,
      "note": 79,
      "start": 64.3835,
      "duration": 0.4429,
      "velocity": 99,
      "chip": "ym2612"
    },
    {
      "channel": 2,
      "note": 75,
      "start": 64.4617,
      "duration": 0.1161,
      "velocity": 96,
      "chip": "ym2612"
    },
    {
      "channel": 2,
      "note": 75,
      "start": 64.5778,
      "duration": 0.094,
      "velocity": 96,
      "chip": "ym2612"
    },
    {
      "channel": 1,
      "note": 87,
      "start": 64.6911,
      "duration": 0.4427,
      "velocity": 99,
      "chip": "ym2612"
    },
    {
      "channel": 3,
      "note": 80,
      "start": 64.8457,
      "duration": 0.4427,
      "velocity": 99,
      "chip": "ym2612"
    },
    {
      "channel": 1,
      "note": 88,
      "start": 65.1534,
      "duration": 2.2917,
      "velocity": 99,
      "chip": "ym2612"
    },
    {
      "channel": 2,
      "note": 68,
      "start": 65.1558,
      "duration": 1.8273,
      "velocity": 90,
      "chip": "ym2612"
    },
    {
      "channel": 0,
      "note": 49,
      "start": 65.1743,
      "duration": 1.8277,
      "velocity": 90,
      "chip": "ym2612"
    },
    {
      "channel": 3,
      "note": 87,
      "start": 65.3078,
      "duration": 2.2919,
      "velocity": 99,
      "chip": "ym2612"
    },
    {
      "channel": 5,
      "note": 73,
      "start": 65.3881,
      "duration": 0.209,
      "velocity": 98,
      "chip": "ym2612"
    },
    {
      "channel": 4,
      "note": 68,
      "start": 65.5427,
      "duration": 0.2083,
      "velocity": 98,
      "chip": "ym2612"
    },
    {
      "channel": 5,
      "note": 76,
      "start": 65.6167,
      "duration": 0.2117,
      "velocity": 98,
      "chip": "ym2612"
    },
    {
      "channel": 4,
      "note": 73,
      "start": 65.7706,
      "duration": 0.2117,
      "velocity": 98,
      "chip": "ym2612"
    },
    {
      "channel": 5,
      "note": 80,
      "start": 65.8479,
      "duration": 0.212,
      "velocity": 98,
      "chip": "ym2612"
    },
    {
      "channel": 4,
      "note": 76,
      "start": 66.0017,
      "duration": 0.2116,
      "velocity": 98,
      "chip": "ym2612"
    },
    {
      "channel": 5,
      "note": 83,
      "start": 66.079,
      "duration": 0.9051,
      "velocity": 98,
      "chip": "ym2612"
    },
    {
      "channel": 4,
      "note": 80,
      "start": 66.2329,
      "duration": 0.905,
      "velocity": 98,
      "chip": "ym2612"
    },
    {
      "channel": 2,
      "note": 67,
      "start": 67.0026,
      "duration": 1.8296,
      "velocity": 90,
      "chip": "ym2612"
    },
    {
      "channel": 0,
      "note": 51,
      "start": 67.0214,
      "duration": 1.8296,
      "velocity": 90,
      "chip": "ym2612"
    },
    {
      "channel": 5,
      "note": 73,
      "start": 67.2346,
      "duration": 0.2117,
      "velocity": 98,
      "chip": "ym2612"
    },
    {
      "channel": 4,
      "note": 83,
      "start": 67.3885,
      "duration": 0.2117,
      "velocity": 98,
      "chip": "ym2612"
    },
    {
      "channel": 1,
      "note": 87,
      "start": 67.4645,
      "duration": 0.4429,
      "velocity": 99,
      "chip": "ym2612"
    },
    {
      "channel": 5,
      "note": 75,
      "start": 67.4661,
      "duration": 0.2113,
      "velocity": 98,
      "chip": "ym2612"
    },
    {
      "channel": 3,
      "note": 88,
      "start": 67.6193,
      "duration": 0.4427,
      "velocity": 99,
      "chip": "ym2612"
    },
    {
      "channel": 4,
      "note": 73,
      "start": 67.6199,
      "duration": 0.2113,
      "velocity": 98,
      "chip": "ym2612"
    },
    {
      "channel": 5,
      "note": 79,
      "start": 67.6969,
      "duration": 0.2121,
      "velocity": 98,
      "chip": "ym2612"
    },
    {
      "channel": 4,
      "note": 75,
      "start": 67.8507,
      "duration": 0.2117,
      "velocity": 98,
      "chip": "ym2612"
    },
    {
      "channel": 1,
      "note": 85,
      "start": 67.9269,
      "duration": 0.4429,
      "velocity": 99,
      "chip": "ym2612"
    },
    {
      "channel": 5,
      "note": 82,
      "start": 67.9283,
      "duration": 0.9049,
      "velocity": 98,
      "chip": "ym2612"
    },
    {
      "channel": 3,
      "note": 87,
      "start": 68.0815,
      "duration": 0.4428,
      "velocity": 99,
      "chip": "ym2612"
    },
    {
      "channel": 4,
      "note": 79,
      "start": 68.0822,
      "duration": 0.9046,
      "velocity": 98,
      "chip": "ym2612"
    },
    {
      "channel": 1,
      "note": 87,
      "start": 68.3892,
      "duration": 0.4428,
      "velocity": 99,
      "chip": "ym2612"
    },
    {
      "channel": 3,
      "note": 85,
      "start": 68.5439,
      "duration": 0.4426,
      "velocity": 99,
      "chip": "ym2612"
    },
    {
      "channel": 1,
      "note": 79,
      "start": 68.8514,
      "duration": 1.8296,
      "velocity": 99,
      "chip": "ym2612"
    },
    {
      "channel": 2,
      "note": 70,
      "start": 68.852,
      "duration": 1.8293,
      "velocity": 90,
      "chip": "ym2612"
    },
    {
      "channel": 0,
      "note": 52,
      "start": 68.8705,
      "duration": 1.8644,
      "velocity": 90,
      "chip": "ym2612"
    },
    {
      "channel": 3,
      "note": 87,
      "start": 69.006,
      "duration": 1.7288,
      "velocity": 99,
      "chip": "ym2612"
    },
    {
      "channel": 5,
      "note": 75,
      "start": 69.0836,
      "duration": 0.2117,
      "velocity": 98,
      "chip": "ym2612"
    },
    {
      "channel": 4,
      "note": 82,
      "start": 69.2374,
      "duration": 0.2117,
      "velocity": 98,
      "chip": "ym2612"
    },
    {
      "channel": 5,
      "note": 76,
      "start": 69.3149,
      "duration": 0.2121,
      "velocity": 98,
      "chip": "ym2612"
    },
    {
      "channel": 4,
      "note": 75,
      "start": 69.4687,
      "duration": 0.2117,
      "velocity": 98,
      "chip": "ym2612"
    },
    {
      "channel": 5,
      "note": 79,
      "start": 69.546,
      "duration": 0.2116,
      "velocity": 98,
      "chip": "ym2612"
    },
    {
      "channel": 4,
      "note": 76,
      "start": 69.6998,
      "duration": 0.2116,
      "velocity": 98,
      "chip": "ym2612"
    },
    {
      "channel": 5,
      "note": 82,
      "start": 69.7773,
      "duration": 0.2115,
      "velocity": 98,
      "chip": "ym2612"
    },
    {
      "channel": 4,
      "note": 79,
      "start": 69.931,
      "duration": 0.212,
      "velocity": 98,
      "chip": "ym2612"
    },
    {
      "channel": 5,
      "note": 79,
      "start": 70.0088,
      "duration": 0.2112,
      "velocity": 98,
      "chip": "ym2612"
    },
    {
      "channel": 4,
      "note": 82,
      "start": 70.1621,
      "duration": 0.2116,
      "velocity": 98,
      "chip": "ym2612"
    },
    {
      "channel": 5,
      "note": 82,
      "start": 70.2394,
      "duration": 0.2118,
      "velocity": 98,
      "chip": "ym2612"
    },
    {
      "channel": 4,
      "note": 79,
      "start": 70.3937,
      "duration": 0.2112,
      "velocity": 98,
      "chip": "ym2612"
    },
    {
      "channel": 5,
      "note": 85,
      "start": 70.4706,
      "duration": 0.2117,
      "velocity": 98,
      "chip": "ym2612"
    },
    {
      "channel": 4,
      "note": 82,
      "start": 70.6244,
      "duration": 0.1104,
      "velocity": 98,
      "chip": "ym2612"
    },
    {
      "channel": 1,
      "note": 80,
      "start": 70.7006,
      "duration": 0.0342,
      "velocity": 99,
      "chip": "ym2612"
    },
    {
      "channel": 2,
      "note": 71,
      "start": 70.701,
      "duration": 0.0338,
      "velocity": 90,
      "chip": "ym2612"
    },
    {
      "channel": 5,
      "note": 83,
      "start": 70.7023,
      "duration": 0.0325,
      "velocity": 98,
      "chip": "ym2612"
    }
  ]
}