{
  "track_name": "14 - Tournament Victory",
  "duration_sec": 53.8,
  "sample_rate": 44100,
  "note_count": 877,
  "unique_pitches": 35,
  "pitch_range": 56,
  "avg_note_duration": 0.2253,
  "reconstruction_stats": {
    "notes_reconstructed": 877,
    "keyon_events": 877,
    "keyoff_events": 877,
    "orphan_keyons": 0,
    "unique_pitches": 35,
    "pitch_range": 56,
    "avg_duration_sec": 0.2253
  },
  "metadata": {
    "source": "W\\WWF Royal Rumble\\14 - Tournament Victory.vgz"
  },
  "notes": [
    {
      "channel": 0,
      "note": 90,
      "start": 0.0,
      "duration": 0.0,
      "velocity": 1,
      "chip": "ym2612"
    },
    {
      "channel": 0,
      "note": 62,
      "start": 0.2906,
      "duration": 0.6272,
      "velocity": 103,
      "chip": "ym2612"
    },
    {
      "channel": 1,
      "note": 69,
      "start": 0.299,
      "duration": 0.552,
      "velocity": 81,
      "chip": "ym2612"
    },
    {
      "channel": 3,
      "note": 62,
      "start": 0.3062,
      "duration": 0.545,
      "velocity": 81,
      "chip": "ym2612"
    },
    {
      "channel": 4,
      "note": 74,
      "start": 0.3154,
      "duration": 0.4525,
      "velocity": 81,
      "chip": "ym2612"
    },
    {
      "channel": 5,
      "note": 42,
      "start": 0.3254,
      "duration": 0.0231,
      "velocity": 125,
      "chip": "ym2612"
    },
    {
      "channel": 2,
      "note": 58,
      "start": 0.343,
      "duration": 0.9084,
      "velocity": 88,
      "chip": "ym2612"
    },
    {
      "channel": 5,
      "note": 71,
      "start": 0.6069,
      "duration": 0.1611,
      "velocity": 116,
      "chip": "ym2612"
    },
    {
      "channel": 0,
      "note": 57,
      "start": 0.9378,
      "duration": 0.0799,
      "velocity": 103,
      "chip": "ym2612"
    },
    {
      "channel": 1,
      "note": 64,
      "start": 0.9408,
      "duration": 0.0771,
      "velocity": 81,
      "chip": "ym2612"
    },
    {
      "channel": 3,
      "note": 57,
      "start": 0.9436,
      "duration": 0.1076,
      "velocity": 81,
      "chip": "ym2612"
    },
    {
      "channel": 4,
      "note": 73,
      "start": 0.9477,
      "duration": 0.0536,
      "velocity": 81,
      "chip": "ym2612"
    },
    {
      "channel": 5,
      "note": 42,
      "start": 0.9518,
      "duration": 0.0497,
      "velocity": 125,
      "chip": "ym2612"
    },
    {
      "channel": 0,
      "note": 57,
      "start": 1.1042,
      "duration": 0.1468,
      "velocity": 103,
      "chip": "ym2612"
    },
    {
      "channel": 1,
      "note": 64,
      "start": 1.1075,
      "duration": 0.1935,
      "velocity": 81,
      "chip": "ym2612"
    },
    {
      "channel": 3,
      "note": 57,
      "start": 1.1103,
      "duration": 0.1574,
      "velocity": 81,
      "chip": "ym2612"
    },
    {
      "channel": 4,
      "note": 73,
      "start": 1.1148,
      "duration": 0.1364,
      "velocity": 81,
      "chip": "ym2612"
    },
    {
      "channel": 5,
      "note": 42,
      "start": 1.1193,
      "duration": 0.0487,
      "velocity": 125,
      "chip": "ym2612"
    },
    {
      "channel": 5,
      "note": 71,
      "start": 1.2728,
      "duration": 0.1785,
      "velocity": 116,
      "chip": "ym2612"
    },
    {
      "channel": 0,
      "note": 98,
      "start": 1.2782,
      "duration": 0.0562,
      "velocity": 127,
      "chip": "ym2612"
    },
    {
      "channel": 4,
      "note": 64,
      "start": 1.4545,
      "duration": 0.1799,
      "velocity": 103,
      "chip": "ym2612"
    },
    {
      "channel": 1,
      "note": 71,
      "start": 1.4574,
      "duration": 1.2104,
      "velocity": 81,
      "chip": "ym2612"
    },
    {
      "channel": 3,
      "note": 52,
      "start": 1.4603,
      "duration": 1.2409,
      "velocity": 81,
      "chip": "ym2612"
    },
    {
      "channel": 2,
      "note": 76,
      "start": 1.4648,
      "duration": 0.2032,
      "velocity": 81,
      "chip": "ym2612"
    },
    {
      "channel": 0,
      "note": 42,
      "start": 1.6216,
      "duration": 0.0462,
      "velocity": 125,
      "chip": "ym2612"
    },
    {
      "channel": 5,
      "note": 98,
      "start": 1.6247,
      "duration": 0.0765,
      "velocity": 127,
      "chip": "ym2612"
    },
    {
      "channel": 2,
      "note": 59,
      "start": 1.7894,
      "duration": 0.0952,
      "velocity": 81,
      "chip": "ym2612"
    },
    {
      "channel": 4,
      "note": 64,
      "start": 1.9542,
      "duration": 0.1303,
      "velocity": 103,
      "chip": "ym2612"
    },
    {
      "channel": 2,
      "note": 61,
      "start": 1.9576,
      "duration": 0.127,
      "velocity": 81,
      "chip": "ym2612"
    },
    {
      "channel": 0,
      "note": 71,
      "start": 1.9627,
      "duration": 0.155,
      "velocity": 116,
      "chip": "ym2612"
    },
    {
      "channel": 5,
      "note": 98,
      "start": 1.9679,
      "duration": 0.0334,
      "velocity": 127,
      "chip": "ym2612"
    },
    {
      "channel": 4,
      "note": 64,
      "start": 2.2874,
      "duration": 0.0971,
      "velocity": 103,
      "chip": "ym2612"
    },
    {
      "channel": 2,
      "note": 59,
      "start": 2.2907,
      "duration": 0.2439,
      "velocity": 81,
      "chip": "ym2612"
    },
    {
      "channel": 5,
      "note": 42,
      "start": 2.2946,
      "duration": 0.04,
      "velocity": 125,
      "chip": "ym2612"
    },
    {
      "channel": 0,
      "note": 98,
      "start": 2.2978,
      "duration": 0.0698,
      "velocity": 127,
      "chip": "ym2612"
    },
    {
      "channel": 5,
      "note": 42,
      "start": 2.4551,
      "duration": 0.0793,
      "velocity": 125,
      "chip": "ym2612"
    },
    {
      "channel": 4,
      "note": 64,
      "start": 2.6207,
      "duration": 0.3305,
      "velocity": 103,
      "chip": "ym2612"
    },
    {
      "channel": 2,
      "note": 61,
      "start": 2.6244,
      "duration": 0.2104,
      "velocity": 81,
      "chip": "ym2612"
    },
    {
      "channel": 0,
      "note": 71,
      "start": 2.6293,
      "duration": 0.155,
      "velocity": 116,
      "chip": "ym2612"
    },
    {
      "channel": 5,
      "note": 98,
      "start": 2.634,
      "duration": 0.0674,
      "velocity": 127,
      "chip": "ym2612"
    },
    {
      "channel": 1,
      "note": 42,
      "start": 2.7885,
      "duration": 0.0459,
      "velocity": 125,
      "chip": "ym2612"
    },
    {
      "channel": 4,
      "note": 62,
      "start": 2.9546,
      "duration": 0.13,
      "velocity": 103,
      "chip": "ym2612"
    },
    {
      "channel": 3,
      "note": 69,
      "start": 2.9578,
      "duration": 0.1266,
      "velocity": 81,
      "chip": "ym2612"
    },
    {
      "channel": 5,
      "note": 62,
      "start": 2.9607,
      "duration": 0.1572,
      "velocity": 81,
      "chip": "ym2612"
    },
    {
      "channel": 2,
      "note": 74,
      "start": 2.9662,
      "duration": 0.1186,
      "velocity": 81,
      "chip": "ym2612"
    },
    {
      "channel": 1,
      "note": 42,
      "start": 2.97,
      "duration": 0.0312,
      "velocity": 125,
      "chip": "ym2612"
    },
    {
      "channel": 0,
      "note": 98,
      "start": 2.9732,
      "duration": 0.0278,
      "velocity": 127,
      "chip": "ym2612"
    },
    {
      "channel": 4,
      "note": 62,
      "start": 3.2874,
      "duration": 0.1639,
      "velocity": 103,
      "chip": "ym2612"
    },
    {
      "channel": 3,
      "note": 69,
      "start": 3.2901,
      "duration": 0.1276,
      "velocity": 81,
      "chip": "ym2612"
    },
    {
      "channel": 5,
      "note": 62,
      "start": 3.2929,
      "duration": 0.125,
      "velocity": 81,
      "chip": "ym2612"
    },
    {
      "channel": 2,
      "note": 74,
      "start": 3.2965,
      "duration": 0.1215,
      "velocity": 81,
      "chip": "ym2612"
    },
    {
      "channel": 0,
      "note": 71,
      "start": 3.3013,
      "duration": 0.1498,
      "velocity": 116,
      "chip": "ym2612"
    },
    {
      "channel": 1,
      "note": 98,
      "start": 3.306,
      "duration": 0.0284,
      "velocity": 127,
      "chip": "ym2612"
    },
    {
      "channel": 4,
      "note": 57,
      "start": 3.6209,
      "duration": 0.0805,
      "velocity": 103,
      "chip": "ym2612"
    },
    {
      "channel": 3,
      "note": 64,
      "start": 3.6239,
      "duration": 0.0773,
      "velocity": 81,
      "chip": "ym2612"
    },
    {
      "channel": 5,
      "note": 57,
      "start": 3.6272,
      "duration": 0.0743,
      "velocity": 81,
      "chip": "ym2612"
    },
    {
      "channel": 2,
      "note": 73,
      "start": 3.6315,
      "duration": 0.0366,
      "velocity": 81,
      "chip": "ym2612"
    },
    {
      "channel": 1,
      "note": 42,
      "start": 3.636,
      "duration": 0.0318,
      "velocity": 125,
      "chip": "ym2612"
    },
    {
      "channel": 0,
      "note": 98,
      "start": 3.6392,
      "duration": 0.0619,
      "velocity": 127,
      "chip": "ym2612"
    },
    {
      "channel": 4,
      "note": 57,
      "start": 3.7876,
      "duration": 0.1302,
      "velocity": 103,
      "chip": "ym2612"
    },
    {
      "channel": 3,
      "note": 64,
      "start": 3.7906,
      "duration": 0.1605,
      "velocity": 81,
      "chip": "ym2612"
    },
    {
      "channel": 5,
      "note": 57,
      "start": 3.7935,
      "duration": 0.1578,
      "velocity": 81,
      "chip": "ym2612"
    },
    {
      "channel": 2,
      "note": 73,
      "start": 3.7978,
      "duration": 0.1202,
      "velocity": 81,
      "chip": "ym2612"
    },
    {
      "channel": 1,
      "note": 42,
      "start": 3.8021,
      "duration": 0.0324,
      "velocity": 125,
      "chip": "ym2612"
    },
    {
      "channel": 0,
      "note": 71,
      "start": 3.9562,
      "duration": 0.1616,
      "velocity": 116,
      "chip": "ym2612"
    },
    {
      "channel": 1,
      "note": 98,
      "start": 3.9609,
      "duration": 0.0737,
      "velocity": 127,
      "chip": "ym2612"
    },
    {
      "channel": 4,
      "note": 64,
      "start": 4.1209,
      "duration": 0.1636,
      "velocity": 103,
      "chip": "ym2612"
    },
    {
      "channel": 3,
      "note": 71,
      "start": 4.1243,
      "duration": 1.227,
      "velocity": 81,
      "chip": "ym2612"
    },
    {
      "channel": 5,
      "note": 52,
      "start": 4.1272,
      "duration": 1.2407,
      "velocity": 81,
      "chip": "ym2612"
    },
    {
      "channel": 2,
      "note": 76,
      "start": 4.1317,
      "duration": 0.2363,
      "velocity": 81,
      "chip": "ym2612"
    },
    {
      "channel": 1,
      "note": 42,
      "start": 4.2884,
      "duration": 0.0625,
      "velocity": 125,
      "chip": "ym2612"
    },
    {
      "channel": 0,
      "note": 98,
      "start": 4.2915,
      "duration": 0.0761,
      "velocity": 127,
      "chip": "ym2612"
    },
    {
      "channel": 4,
      "note": 64,
      "start": 4.4542,
      "duration": 0.1137,
      "velocity": 103,
      "chip": "ym2612"
    },
    {
      "channel": 2,
      "note": 59,
      "start": 4.459,
      "duration": 0.1092,
      "velocity": 81,
      "chip": "ym2612"
    },
    {
      "channel": 1,
      "note": 42,
      "start": 4.4628,
      "duration": 0.0548,
      "velocity": 125,
      "chip": "ym2612"
    },
    {
      "channel": 4,
      "note": 66,
      "start": 4.6213,
      "duration": 0.1464,
      "velocity": 103,
      "chip": "ym2612"
    },
    {
      "channel": 2,
      "note": 61,
      "start": 4.6247,
      "duration": 0.1432,
      "velocity": 81,
      "chip": "ym2612"
    },
    {
      "channel": 0,
      "note": 71,
      "start": 4.6298,
      "duration": 0.1545,
      "velocity": 116,
      "chip": "ym2612"
    },
    {
      "channel": 1,
      "note": 98,
      "start": 4.6347,
      "duration": 0.0498,
      "velocity": 127,
      "chip": "ym2612"
    },
    {
      "channel": 1,
      "note": 42,
      "start": 4.7884,
      "duration": 0.0627,
      "velocity": 125,
      "chip": "ym2612"
    },
    {
      "channel": 4,
      "note": 68,
      "start": 4.9541,
      "duration": 0.3303,
      "velocity": 103,
      "chip": "ym2612"
    },
    {
      "channel": 2,
      "note": 59,
      "start": 4.9574,
      "duration": 0.2439,
      "velocity": 81,
      "chip": "ym2612"
    },
    {
      "channel": 1,
      "note": 42,
      "start": 4.9611,
      "duration": 0.0567,
      "velocity": 125,
      "chip": "ym2612"
    },
    {
      "channel": 0,
      "note": 98,
      "start": 4.9642,
      "duration": 0.0535,
      "velocity": 127,
      "chip": "ym2612"
    },
    {
      "channel": 1,
      "note": 42,
      "start": 5.1216,
      "duration": 0.0794,
      "velocity": 125,
      "chip": "ym2612"
    },
    {
      "channel": 0,
      "note": 98,
      "start": 5.1244,
      "duration": 0.0599,
      "velocity": 127,
      "chip": "ym2612"
    },
    {
      "channel": 4,
      "note": 66,
      "start": 5.2876,
      "duration": 0.1637,
      "velocity": 103,
      "chip": "ym2612"
    },
    {
      "channel": 2,
      "note": 61,
      "start": 5.2909,
      "duration": 0.227,
      "velocity": 81,
      "chip": "ym2612"
    },
    {
      "channel": 0,
      "note": 71,
      "start": 5.2962,
      "duration": 0.1548,
      "velocity": 116,
      "chip": "ym2612"
    },
    {
      "channel": 1,
      "note": 98,
      "start": 5.3015,
      "duration": 0.0496,
      "velocity": 127,
      "chip": "ym2612"
    },
    {
      "channel": 4,
      "note": 64,
      "start": 5.4544,
      "duration": 0.1134,
      "velocity": 103,
      "chip": "ym2612"
    },
    {
      "channel": 4,
      "note": 62,
      "start": 5.6209,
      "duration": 0.647,
      "velocity": 103,
      "chip": "ym2612"
    },
    {
      "channel": 3,
      "note": 69,
      "start": 5.6239,
      "duration": 0.5939,
      "velocity": 81,
      "chip": "ym2612"
    },
    {
      "channel": 5,
      "note": 62,
      "start": 5.6268,
      "duration": 0.5912,
      "velocity": 81,
      "chip": "ym2612"
    },
    {
      "channel": 2,
      "note": 74,
      "start": 5.633,
      "duration": 0.4683,
      "velocity": 81,
      "chip": "ym2612"
    },
    {
      "channel": 1,
      "note": 42,
      "start": 5.6373,
      "duration": 0.0471,
      "velocity": 125,
      "chip": "ym2612"
    },
    {
      "channel": 0,
      "note": 98,
      "start": 5.6404,
      "duration": 0.0439,
      "velocity": 127,
      "chip": "ym2612"
    },
    {
      "channel": 0,
      "note": 71,
      "start": 5.9725,
      "duration": 0.1618,
      "velocity": 116,
      "chip": "ym2612"
    },
    {
      "channel": 1,
      "note": 98,
      "start": 5.9772,
      "duration": 0.0404,
      "velocity": 127,
      "chip": "ym2612"
    },
    {
      "channel": 4,
      "note": 57,
      "start": 6.3042,
      "duration": 0.0804,
      "velocity": 103,
      "chip": "ym2612"
    },
    {
      "channel": 3,
      "note": 64,
      "start": 6.3072,
      "duration": 0.0773,
      "velocity": 81,
      "chip": "ym2612"
    },
    {
      "channel": 5,
      "note": 57,
      "start": 6.3102,
      "duration": 0.0911,
      "velocity": 81,
      "chip": "ym2612"
    },
    {
      "channel": 2,
      "note": 73,
      "start": 6.3144,
      "duration": 0.0371,
      "velocity": 81,
      "chip": "ym2612"
    },
    {
      "channel": 1,
      "note": 42,
      "start": 6.3186,
      "duration": 0.0326,
      "velocity": 125,
      "chip": "ym2612"
    },
    {
      "channel": 0,
      "note": 98,
      "start": 6.3216,
      "duration": 0.0295,
      "velocity": 127,
      "chip": "ym2612"
    },
    {
      "channel": 4,
      "note": 57,
      "start": 6.4714,
      "duration": 0.1298,
      "velocity": 103,
      "chip": "ym2612"
    },
    {
      "channel": 3,
      "note": 64,
      "start": 6.4744,
      "duration": 0.16,
      "velocity": 81,
      "chip": "ym2612"
    },
    {
      "channel": 5,
      "note": 57,
      "start": 6.4777,
      "duration": 0.1568,
      "velocity": 81,
      "chip": "ym2612"
    },
    {
      "channel": 2,
      "note": 73,
      "start": 6.4819,
      "duration": 0.1194,
      "velocity": 81,
      "chip": "ym2612"
    },
    {
      "channel": 1,
      "note": 42,
      "start": 6.4863,
      "duration": 0.0316,
      "velocity": 125,
      "chip": "ym2612"
    },
    {
      "channel": 0,
      "note": 71,
      "start": 6.6395,
      "duration": 0.1616,
      "velocity": 116,
      "chip": "ym2612"
    },
    {
      "channel": 1,
      "note": 98,
      "start": 6.6444,
      "duration": 0.0734,
      "velocity": 127,
      "chip": "ym2612"
    },
    {
      "channel": 4,
      "note": 64,
      "start": 6.8042,
      "duration": 0.1636,
      "velocity": 103,
      "chip": "ym2612"
    },
    {
      "channel": 3,
      "note": 71,
      "start": 6.8072,
      "duration": 1.2106,
      "velocity": 81,
      "chip": "ym2612"
    },
    {
      "channel": 5,
      "note": 52,
      "start": 6.8102,
      "duration": 1.2412,
      "velocity": 81,
      "chip": "ym2612"
    },
    {
      "channel": 2,
      "note": 76,
      "start": 6.8143,
      "duration": 0.1702,
      "velocity": 81,
      "chip": "ym2612"
    },
    {
      "channel": 1,
      "note": 42,
      "start": 6.9717,
      "duration": 0.046,
      "velocity": 125,
      "chip": "ym2612"
    },
    {
      "channel": 0,
      "note": 98,
      "start": 6.9749,
      "duration": 0.0427,
      "velocity": 127,
      "chip": "ym2612"
    },
    {
      "channel": 4,
      "note": 64,
      "start": 7.1376,
      "duration": 0.1137,
      "velocity": 103,
      "chip": "ym2612"
    },
    {
      "channel": 2,
      "note": 59,
      "start": 7.1426,
      "duration": 0.1088,
      "velocity": 81,
      "chip": "ym2612"
    },
    {
      "channel": 4,
      "note": 66,
      "start": 7.3042,
      "duration": 0.1969,
      "velocity": 103,
      "chip": "ym2612"
    },
    {
      "channel": 2,
      "note": 61,
      "start": 7.3077,
      "duration": 0.1269,
      "velocity": 81,
      "chip": "ym2612"
    },
    {
      "channel": 0,
      "note": 71,
      "start": 7.3132,
      "duration": 0.1545,
      "velocity": 116,
      "chip": "ym2612"
    },
    {
      "channel": 1,
      "note": 98,
      "start": 7.3179,
      "duration": 0.0332,
      "velocity": 127,
      "chip": "ym2612"
    },
    {
      "channel": 4,
      "note": 64,
      "start": 7.6375,
      "duration": 0.6137,
      "velocity": 103,
      "chip": "ym2612"
    },
    {
      "channel": 2,
      "note": 59,
      "start": 7.6409,
      "duration": 0.2438,
      "velocity": 81,
      "chip": "ym2612"
    },
    {
      "channel": 1,
      "note": 42,
      "start": 7.6448,
      "duration": 0.0397,
      "velocity": 125,
      "chip": "ym2612"
    },
    {
      "channel": 0,
      "note": 98,
      "start": 7.6478,
      "duration": 0.0365,
      "velocity": 127,
      "chip": "ym2612"
    },
    {
      "channel": 1,
      "note": 42,
      "start": 7.8049,
      "duration": 0.0794,
      "velocity": 125,
      "chip": "ym2612"
    },
    {
      "channel": 2,
      "note": 61,
      "start": 7.9714,
      "duration": 0.28,
      "velocity": 81,
      "chip": "ym2612"
    },
    {
      "channel": 0,
      "note": 71,
      "start": 7.9763,
      "duration": 0.1581,
      "velocity": 116,
      "chip": "ym2612"
    },
    {
      "channel": 1,
      "note": 98,
      "start": 7.9813,
      "duration": 0.0698,
      "velocity": 127,
      "chip": "ym2612"
    },
    {
      "channel": 4,
      "note": 62,
      "start": 8.3042,
      "duration": 0.1303,
      "velocity": 103,
      "chip": "ym2612"
    },
    {
      "channel": 3,
      "note": 69,
      "start": 8.3076,
      "duration": 0.0768,
      "velocity": 81,
      "chip": "ym2612"
    },
    {
      "channel": 5,
      "note": 62,
      "start": 8.3106,
      "duration": 0.074,
      "velocity": 81,
      "chip": "ym2612"
    },
    {
      "channel": 2,
      "note": 74,
      "start": 8.316,
      "duration": 0.102,
      "velocity": 81,
      "chip": "ym2612"
    },
    {
      "channel": 1,
      "note": 42,
      "start": 8.3202,
      "duration": 0.031,
      "velocity": 125,
      "chip": "ym2612"
    },
    {
      "channel": 0,
      "note": 58,
      "start": 8.324,
      "duration": 0.2937,
      "velocity": 88,
      "chip": "ym2612"
    },
    {
      "channel": 4,
      "note": 59,
      "start": 8.6382,
      "duration": 2.1464,
      "velocity": 103,
      "chip": "ym2612"
    },
    {
      "channel": 3,
      "note": 66,
      "start": 8.6414,
      "duration": 2.2597,
      "velocity": 81,
      "chip": "ym2612"
    },
    {
      "channel": 5,
      "note": 59,
      "start": 8.6446,
      "duration": 2.2733,
      "velocity": 81,
      "chip": "ym2612"
    },
    {
      "channel": 2,
      "note": 71,
      "start": 8.6503,
      "duration": 2.1009,
      "velocity": 81,
      "chip": "ym2612"
    },
    {
      "channel": 1,
      "note": 71,
      "start": 8.6557,
      "duration": 0.1454,
      "velocity": 116,
      "chip": "ym2612"
    },
    {
      "channel": 0,
      "note": 66,
      "start": 8.6608,
      "duration": 0.9568,
      "velocity": 88,
      "chip": "ym2612"
    },
    {
      "channel": 1,
      "note": 42,
      "start": 8.9717,
      "duration": 0.0793,
      "velocity": 125,
      "chip": "ym2612"
    },
    {
      "channel": 1,
      "note": 42,
      "start": 9.1386,
      "duration": 0.0624,
      "velocity": 125,
      "chip": "ym2612"
    },
    {
      "channel": 1,
      "note": 71,
      "start": 9.3056,
      "duration": 0.1622,
      "velocity": 116,
      "chip": "ym2612"
    },
    {
      "channel": 1,
      "note": 42,
      "start": 9.6383,
      "duration": 0.0627,
      "velocity": 125,
      "chip": "ym2612"
    },
    {
      "channel": 0,
      "note": 98,
      "start": 9.642,
      "duration": 0.0589,
      "velocity": 127,
      "chip": "ym2612"
    },
    {
      "channel": 0,
      "note": 83,
      "start": 9.8071,
      "duration": 0.1439,
      "velocity": 115,
      "chip": "ym2612"
    },
    {
      "channel": 1,
      "note": 98,
      "start": 9.9888,
      "duration": 0.0122,
      "velocity": 127,
      "chip": "ym2612"
    },
    {
      "channel": 0,
      "note": 83,
      "start": 9.9922,
      "duration": 0.1256,
      "velocity": 115,
      "chip": "ym2612"
    },
    {
      "channel": 0,
      "note": 83,
      "start": 10.156,
      "duration": 0.1284,
      "velocity": 115,
      "chip": "ym2612"
    },
    {
      "channel": 1,
      "note": 98,
      "start": 10.3221,
      "duration": 0.0457,
      "velocity": 127,
      "chip": "ym2612"
    },
    {
      "channel": 0,
      "note": 78,
      "start": 10.3255,
      "duration": 0.1255,
      "velocity": 115,
      "chip": "ym2612"
    },
    {
      "channel": 1,
      "note": 98,
      "start": 10.4883,
      "duration": 0.0461,
      "velocity": 127,
      "chip": "ym2612"
    },
    {
      "channel": 0,
      "note": 78,
      "start": 10.4918,
      "duration": 0.1259,
      "velocity": 115,
      "chip": "ym2612"
    },
    {
      "channel": 1,
      "note": 98,
      "start": 10.6551,
      "duration": 0.0459,
      "velocity": 127,
      "chip": "ym2612"
    },
    {
      "channel": 0,
      "note": 73,
      "start": 10.6588,
      "duration": 0.1255,
      "velocity": 115,
      "chip": "ym2612"
    },
    {
      "channel": 1,
      "note": 98,
      "start": 10.8221,
      "duration": 0.0789,
      "velocity": 127,
      "chip": "ym2612"
    },
    {
      "channel": 4,
      "note": 62,
      "start": 10.9876,
      "duration": 0.6303,
      "velocity": 103,
      "chip": "ym2612"
    },
    {
      "channel": 2,
      "note": 74,
      "start": 10.9907,
      "duration": 0.6273,
      "velocity": 81,
      "chip": "ym2612"
    },
    {
      "channel": 3,
      "note": 69,
      "start": 10.9945,
      "duration": 0.5734,
      "velocity": 81,
      "chip": "ym2612"
    },
    {
      "channel": 5,
      "note": 62,
      "start": 10.9987,
      "duration": 0.5693,
      "velocity": 81,
      "chip": "ym2612"
    },
    {
      "channel": 0,
      "note": 42,
      "start": 11.0042,
      "duration": 0.0302,
      "velocity": 125,
      "chip": "ym2612"
    },
    {
      "channel": 1,
      "note": 66,
      "start": 11.0076,
      "duration": 0.9434,
      "velocity": 88,
      "chip": "ym2612"
    },
    {
      "channel": 0,
      "note": 71,
      "start": 11.3237,
      "duration": 0.1606,
      "velocity": 116,
      "chip": "ym2612"
    },
    {
      "channel": 4,
      "note": 57,
      "start": 11.6542,
      "duration": 0.0804,
      "velocity": 103,
      "chip": "ym2612"
    },
    {
      "channel": 2,
      "note": 72,
      "start": 11.6574,
      "duration": 0.0774,
      "velocity": 81,
      "chip": "ym2612"
    },
    {
      "channel": 3,
      "note": 64,
      "start": 11.6608,
      "duration": 0.0737,
      "velocity": 81,
      "chip": "ym2612"
    },
    {
      "channel": 5,
      "note": 57,
      "start": 11.6637,
      "duration": 0.1042,
      "velocity": 81,
      "chip": "ym2612"
    },
    {
      "channel": 0,
      "note": 42,
      "start": 11.6696,
      "duration": 0.0314,
      "velocity": 125,
      "chip": "ym2612"
    },
    {
      "channel": 4,
      "note": 57,
      "start": 11.8209,
      "duration": 0.1304,
      "velocity": 103,
      "chip": "ym2612"
    },
    {
      "channel": 2,
      "note": 73,
      "start": 11.824,
      "duration": 0.1107,
      "velocity": 81,
      "chip": "ym2612"
    },
    {
      "channel": 3,
      "note": 64,
      "start": 11.8268,
      "duration": 0.1076,
      "velocity": 81,
      "chip": "ym2612"
    },
    {
      "channel": 5,
      "note": 57,
      "start": 11.8298,
      "duration": 0.1548,
      "velocity": 81,
      "chip": "ym2612"
    },
    {
      "channel": 0,
      "note": 42,
      "start": 11.835,
      "duration": 0.0328,
      "velocity": 125,
      "chip": "ym2612"
    },
    {
      "channel": 0,
      "note": 71,
      "start": 11.9894,
      "duration": 0.1616,
      "velocity": 116,
      "chip": "ym2612"
    },
    {
      "channel": 3,
      "note": 98,
      "start": 11.9944,
      "duration": 0.04,
      "velocity": 127,
      "chip": "ym2612"
    },
    {
      "channel": 4,
      "note": 64,
      "start": 12.1543,
      "duration": 0.1968,
      "velocity": 103,
      "chip": "ym2612"
    },
    {
      "channel": 2,
      "note": 76,
      "start": 12.1574,
      "duration": 1.3939,
      "velocity": 81,
      "chip": "ym2612"
    },
    {
      "channel": 1,
      "note": 71,
      "start": 12.1609,
      "duration": 0.2402,
      "velocity": 81,
      "chip": "ym2612"
    },
    {
      "channel": 5,
      "note": 52,
      "start": 12.1639,
      "duration": 1.2374,
      "velocity": 81,
      "chip": "ym2612"
    },
    {
      "channel": 3,
      "note": 42,
      "start": 12.3216,
      "duration": 0.0461,
      "velocity": 125,
      "chip": "ym2612"
    },
    {
      "channel": 0,
      "note": 98,
      "start": 12.3247,
      "duration": 0.0763,
      "velocity": 127,
      "chip": "ym2612"
    },
    {
      "channel": 4,
      "note": 86,
      "start": 12.4912,
      "duration": 0.1266,
      "velocity": 81,
      "chip": "ym2612"
    },
    {
      "channel": 3,
      "note": 64,
      "start": 12.6549,
      "duration": 0.1462,
      "velocity": 103,
      "chip": "ym2612"
    },
    {
      "channel": 4,
      "note": 85,
      "start": 12.6588,
      "duration": 0.1424,
      "velocity": 81,
      "chip": "ym2612"
    },
    {
      "channel": 0,
      "note": 71,
      "start": 12.6637,
      "duration": 0.154,
      "velocity": 116,
      "chip": "ym2612"
    },
    {
      "channel": 1,
      "note": 98,
      "start": 12.669,
      "duration": 0.0321,
      "velocity": 127,
      "chip": "ym2612"
    },
    {
      "channel": 4,
      "note": 83,
      "start": 12.8229,
      "duration": 0.1449,
      "velocity": 81,
      "chip": "ym2612"
    },
    {
      "channel": 3,
      "note": 64,
      "start": 12.9875,
      "duration": 0.1137,
      "velocity": 103,
      "chip": "ym2612"
    },
    {
      "channel": 4,
      "note": 81,
      "start": 12.9922,
      "duration": 0.1422,
      "velocity": 81,
      "chip": "ym2612"
    },
    {
      "channel": 1,
      "note": 42,
      "start": 12.9962,
      "duration": 0.0551,
      "velocity": 125,
      "chip": "ym2612"
    },
    {
      "channel": 0,
      "note": 98,
      "start": 12.9992,
      "duration": 0.052,
      "velocity": 127,
      "chip": "ym2612"
    },
    {
      "channel": 4,
      "note": 80,
      "start": 13.1559,
      "duration": 0.1452,
      "velocity": 81,
      "chip": "ym2612"
    },
    {
      "channel": 1,
      "note": 42,
      "start": 13.1586,
      "duration": 0.0592,
      "velocity": 125,
      "chip": "ym2612"
    },
    {
      "channel": 3,
      "note": 64,
      "start": 13.3208,
      "duration": 0.3137,
      "velocity": 103,
      "chip": "ym2612"
    },
    {
      "channel": 4,
      "note": 78,
      "start": 13.3255,
      "duration": 0.1423,
      "velocity": 81,
      "chip": "ym2612"
    },
    {
      "channel": 0,
      "note": 71,
      "start": 13.3303,
      "duration": 0.1541,
      "velocity": 116,
      "chip": "ym2612"
    },
    {
      "channel": 1,
      "note": 98,
      "start": 13.335,
      "duration": 0.0495,
      "velocity": 127,
      "chip": "ym2612"
    },
    {
      "channel": 4,
      "note": 76,
      "start": 13.4889,
      "duration": 0.1457,
      "velocity": 81,
      "chip": "ym2612"
    },
    {
      "channel": 3,
      "note": 62,
      "start": 13.6541,
      "duration": 0.1469,
      "velocity": 103,
      "chip": "ym2612"
    },
    {
      "channel": 2,
      "note": 76,
      "start": 13.6577,
      "duration": 0.1104,
      "velocity": 81,
      "chip": "ym2612"
    },
    {
      "channel": 5,
      "note": 62,
      "start": 13.6617,
      "duration": 0.1561,
      "velocity": 81,
      "chip": "ym2612"
    },
    {
      "channel": 4,
      "note": 74,
      "start": 13.6675,
      "duration": 0.1337,
      "velocity": 81,
      "chip": "ym2612"
    },
    {
      "channel": 1,
      "note": 42,
      "start": 13.6722,
      "duration": 0.0457,
      "velocity": 125,
      "chip": "ym2612"
    },
    {
      "channel": 0,
      "note": 98,
      "start": 13.6752,
      "duration": 0.0426,
      "velocity": 127,
      "chip": "ym2612"
    },
    {
      "channel": 3,
      "note": 62,
      "start": 13.9873,
      "duration": 0.1641,
      "velocity": 103,
      "chip": "ym2612"
    },
    {
      "channel": 2,
      "note": 78,
      "start": 13.9903,
      "duration": 0.2276,
      "velocity": 81,
      "chip": "ym2612"
    },
    {
      "channel": 0,
      "note": 69,
      "start": 13.9934,
      "duration": 0.1409,
      "velocity": 81,
      "chip": "ym2612"
    },
    {
      "channel": 5,
      "note": 62,
      "start": 13.9961,
      "duration": 0.1385,
      "velocity": 81,
      "chip": "ym2612"
    },
    {
      "channel": 1,
      "note": 71,
      "start": 14.0025,
      "duration": 0.1487,
      "velocity": 116,
      "chip": "ym2612"
    },
    {
      "channel": 4,
      "note": 98,
      "start": 14.0072,
      "duration": 0.044,
      "velocity": 127,
      "chip": "ym2612"
    },
    {
      "channel": 3,
      "note": 57,
      "start": 14.3376,
      "duration": 0.0802,
      "velocity": 103,
      "chip": "ym2612"
    },
    {
      "channel": 2,
      "note": 76,
      "start": 14.3411,
      "duration": 0.0771,
      "velocity": 81,
      "chip": "ym2612"
    },
    {
      "channel": 0,
      "note": 64,
      "start": 14.3438,
      "duration": 0.0739,
      "velocity": 81,
      "chip": "ym2612"
    },
    {
      "channel": 5,
      "note": 57,
      "start": 14.3468,
      "duration": 0.0712,
      "velocity": 81,
      "chip": "ym2612"
    },
    {
      "channel": 4,
      "note": 42,
      "start": 14.3522,
      "duration": 0.0325,
      "velocity": 125,
      "chip": "ym2612"
    },
    {
      "channel": 1,
      "note": 98,
      "start": 14.3553,
      "duration": 0.0292,
      "velocity": 127,
      "chip": "ym2612"
    },
    {
      "channel": 3,
      "note": 57,
      "start": 14.5046,
      "duration": 0.1298,
      "velocity": 103,
      "chip": "ym2612"
    },
    {
      "channel": 2,
      "note": 76,
      "start": 14.5076,
      "duration": 0.1603,
      "velocity": 81,
      "chip": "ym2612"
    },
    {
      "channel": 0,
      "note": 64,
      "start": 14.5104,
      "duration": 0.1739,
      "velocity": 81,
      "chip": "ym2612"
    },
    {
      "channel": 5,
      "note": 57,
      "start": 14.5134,
      "duration": 0.1544,
      "velocity": 81,
      "chip": "ym2612"
    },
    {
      "channel": 4,
      "note": 42,
      "start": 14.5187,
      "duration": 0.0325,
      "velocity": 125,
      "chip": "ym2612"
    },
    {
      "channel": 1,
      "note": 71,
      "start": 14.6728,
      "duration": 0.1616,
      "velocity": 116,
      "chip": "ym2612"
    },
    {
      "channel": 4,
      "note": 98,
      "start": 14.6776,
      "duration": 0.0403,
      "velocity": 127,
      "chip": "ym2612"
    },
    {
      "channel": 3,
      "note": 64,
      "start": 14.8375,
      "duration": 0.1635,
      "velocity": 103,
      "chip": "ym2612"
    },
    {
      "channel": 2,
      "note": 80,
      "start": 14.8405,
      "duration": 1.294,
      "velocity": 81,
      "chip": "ym2612"
    },
    {
      "channel": 0,
      "note": 71,
      "start": 14.8439,
      "duration": 1.3571,
      "velocity": 81,
      "chip": "ym2612"
    },
    {
      "channel": 5,
      "note": 52,
      "start": 14.8468,
      "duration": 1.2377,
      "velocity": 81,
      "chip": "ym2612"
    },
    {
      "channel": 4,
      "note": 42,
      "start": 15.005,
      "duration": 0.0461,
      "velocity": 125,
      "chip": "ym2612"
    },
    {
      "channel": 1,
      "note": 98,
      "start": 15.0081,
      "duration": 0.0429,
      "velocity": 127,
      "chip": "ym2612"
    },
    {
      "channel": 3,
      "note": 64,
      "start": 15.1709,
      "duration": 0.1303,
      "velocity": 103,
      "chip": "ym2612"
    },
    {
      "channel": 4,
      "note": 42,
      "start": 15.1754,
      "duration": 0.0426,
      "velocity": 125,
      "chip": "ym2612"
    },
    {
      "channel": 3,
      "note": 66,
      "start": 15.3373,
      "duration": 0.1305,
      "velocity": 103,
      "chip": "ym2612"
    },
    {
      "channel": 1,
      "note": 71,
      "start": 15.3433,
      "duration": 0.1578,
      "velocity": 116,
      "chip": "ym2612"
    },
    {
      "channel": 4,
      "note": 98,
      "start": 15.348,
      "duration": 0.0364,
      "velocity": 127,
      "chip": "ym2612"
    },
    {
      "channel": 4,
      "note": 42,
      "start": 15.5057,
      "duration": 0.0454,
      "velocity": 125,
      "chip": "ym2612"
    },
    {
      "channel": 3,
      "note": 68,
      "start": 15.6707,
      "duration": 0.3303,
      "velocity": 103,
      "chip": "ym2612"
    },
    {
      "channel": 4,
      "note": 42,
      "start": 15.6755,
      "duration": 0.0425,
      "velocity": 125,
      "chip": "ym2612"
    },
    {
      "channel": 1,
      "note": 98,
      "start": 15.6785,
      "duration": 0.0393,
      "velocity": 127,
      "chip": "ym2612"
    },
    {
      "channel": 4,
      "note": 42,
      "start": 15.8394,
      "duration": 0.0784,
      "velocity": 125,
      "chip": "ym2612"
    },
    {
      "channel": 3,
      "note": 66,
      "start": 16.0042,
      "duration": 0.1635,
      "velocity": 103,
      "chip": "ym2612"
    },
    {
      "channel": 1,
      "note": 71,
      "start": 16.0097,
      "duration": 0.158,
      "velocity": 116,
      "chip": "ym2612"
    },
    {
      "channel": 4,
      "note": 98,
      "start": 16.0146,
      "duration": 0.0366,
      "velocity": 127,
      "chip": "ym2612"
    },
    {
      "channel": 3,
      "note": 64,
      "start": 16.1708,
      "duration": 0.1137,
      "velocity": 103,
      "chip": "ym2612"
    },
    {
      "channel": 4,
      "note": 98,
      "start": 16.1745,
      "duration": 0.0434,
      "velocity": 127,
      "chip": "ym2612"
    },
    {
      "channel": 3,
      "note": 62,
      "start": 16.338,
      "duration": 0.6297,
      "velocity": 103,
      "chip": "ym2612"
    },
    {
      "channel": 2,
      "note": 74,
      "start": 16.341,
      "duration": 0.6602,
      "velocity": 81,
      "chip": "ym2612"
    },
    {
      "channel": 0,
      "note": 69,
      "start": 16.3441,
      "duration": 0.607,
      "velocity": 81,
      "chip": "ym2612"
    },
    {
      "channel": 5,
      "note": 62,
      "start": 16.3471,
      "duration": 0.5709,
      "velocity": 81,
      "chip": "ym2612"
    },
    {
      "channel": 1,
      "note": 42,
      "start": 16.3535,
      "duration": 0.031,
      "velocity": 125,
      "chip": "ym2612"
    },
    {
      "channel": 4,
      "note": 98,
      "start": 16.3565,
      "duration": 0.0282,
      "velocity": 127,
      "chip": "ym2612"
    },
    {
      "channel": 1,
      "note": 71,
      "start": 16.6725,
      "duration": 0.1618,
      "velocity": 116,
      "chip": "ym2612"
    },
    {
      "channel": 4,
      "note": 98,
      "start": 16.6775,
      "duration": 0.0403,
      "velocity": 127,
      "chip": "ym2612"
    },
    {
      "channel": 3,
      "note": 57,
      "start": 17.0043,
      "duration": 0.0802,
      "velocity": 103,
      "chip": "ym2612"
    },
    {
      "channel": 2,
      "note": 73,
      "start": 17.0074,
      "duration": 0.0607,
      "velocity": 81,
      "chip": "ym2612"
    },
    {
      "channel": 0,
      "note": 64,
      "start": 17.0101,
      "duration": 0.0742,
      "velocity": 81,
      "chip": "ym2612"
    },
    {
      "channel": 5,
      "note": 57,
      "start": 17.0135,
      "duration": 0.1045,
      "velocity": 81,
      "chip": "ym2612"
    },
    {
      "channel": 4,
      "note": 42,
      "start": 17.0189,
      "duration": 0.049,
      "velocity": 125,
      "chip": "ym2612"
    },
    {
      "channel": 1,
      "note": 98,
      "start": 17.022,
      "duration": 0.0457,
      "velocity": 127,
      "chip": "ym2612"
    },
    {
      "channel": 3,
      "note": 57,
      "start": 17.1709,
      "duration": 0.1136,
      "velocity": 103,
      "chip": "ym2612"
    },
    {
      "channel": 2,
      "note": 73,
      "start": 17.174,
      "duration": 0.0774,
      "velocity": 81,
      "chip": "ym2612"
    },
    {
      "channel": 0,
      "note": 64,
      "start": 17.1767,
      "duration": 0.141,
      "velocity": 81,
      "chip": "ym2612"
    },
    {
      "channel": 5,
      "note": 57,
      "start": 17.1796,
      "duration": 0.1548,
      "velocity": 81,
      "chip": "ym2612"
    },
    {
      "channel": 4,
      "note": 42,
      "start": 17.1854,
      "duration": 0.0493,
      "velocity": 125,
      "chip": "ym2612"
    },
    {
      "channel": 1,
      "note": 71,
      "start": 17.3394,
      "duration": 0.1618,
      "velocity": 116,
      "chip": "ym2612"
    },
    {
      "channel": 4,
      "note": 98,
      "start": 17.3441,
      "duration": 0.057,
      "velocity": 127,
      "chip": "ym2612"
    },
    {
      "channel": 3,
      "note": 64,
      "start": 17.5042,
      "duration": 0.1635,
      "velocity": 103,
      "chip": "ym2612"
    },
    {
      "channel": 2,
      "note": 76,
      "start": 17.5072,
      "duration": 1.4273,
      "velocity": 81,
      "chip": "ym2612"
    },
    {
      "channel": 0,
      "note": 71,
      "start": 17.51,
      "duration": 1.1742,
      "velocity": 81,
      "chip": "ym2612"
    },
    {
      "channel": 5,
      "note": 52,
      "start": 17.513,
      "duration": 1.255,
      "velocity": 81,
      "chip": "ym2612"
    },
    {
      "channel": 4,
      "note": 42,
      "start": 17.6717,
      "duration": 0.0627,
      "velocity": 125,
      "chip": "ym2612"
    },
    {
      "channel": 1,
      "note": 98,
      "start": 17.6748,
      "duration": 0.0595,
      "velocity": 127,
      "chip": "ym2612"
    },
    {
      "channel": 3,
      "note": 64,
      "start": 17.8375,
      "duration": 0.1136,
      "velocity": 103,
      "chip": "ym2612"
    },
    {
      "channel": 3,
      "note": 66,
      "start": 18.0042,
      "duration": 0.1969,
      "velocity": 103,
      "chip": "ym2612"
    },
    {
      "channel": 1,
      "note": 71,
      "start": 18.0108,
      "duration": 0.157,
      "velocity": 116,
      "chip": "ym2612"
    },
    {
      "channel": 4,
      "note": 98,
      "start": 18.0155,
      "duration": 0.0524,
      "velocity": 127,
      "chip": "ym2612"
    },
    {
      "channel": 3,
      "note": 64,
      "start": 18.3379,
      "duration": 0.6132,
      "velocity": 103,
      "chip": "ym2612"
    },
    {
      "channel": 4,
      "note": 42,
      "start": 18.3426,
      "duration": 0.0753,
      "velocity": 125,
      "chip": "ym2612"
    },
    {
      "channel": 1,
      "note": 98,
      "start": 18.3456,
      "duration": 0.0555,
      "velocity": 127,
      "chip": "ym2612"
    },
    {
      "channel": 4,
      "note": 42,
      "start": 18.5215,
      "duration": 0.0796,
      "velocity": 125,
      "chip": "ym2612"
    },
    {
      "channel": 1,
      "note": 71,
      "start": 18.6907,
      "duration": 0.1604,
      "velocity": 116,
      "chip": "ym2612"
    },
    {
      "channel": 4,
      "note": 98,
      "start": 18.6957,
      "duration": 0.0721,
      "velocity": 127,
      "chip": "ym2612"
    },
    {
      "channel": 3,
      "note": 62,
      "start": 19.0209,
      "duration": 0.1637,
      "velocity": 103,
      "chip": "ym2612"
    },
    {
      "channel": 2,
      "note": 78,
      "start": 19.0243,
      "duration": 0.1604,
      "velocity": 81,
      "chip": "ym2612"
    },
    {
      "channel": 0,
      "note": 69,
      "start": 19.027,
      "duration": 0.1573,
      "velocity": 81,
      "chip": "ym2612"
    },
    {
      "channel": 5,
      "note": 62,
      "start": 19.03,
      "duration": 0.0713,
      "velocity": 81,
      "chip": "ym2612"
    },
    {
      "channel": 4,
      "note": 42,
      "start": 19.0359,
      "duration": 0.032,
      "velocity": 125,
      "chip": "ym2612"
    },
    {
      "channel": 1,
      "note": 58,
      "start": 19.0394,
      "duration": 0.2784,
      "velocity": 88,
      "chip": "ym2612"
    },
    {
      "channel": 3,
      "note": 59,
      "start": 19.3542,
      "duration": 0.8302,
      "velocity": 103,
      "chip": "ym2612"
    },
    {
      "channel": 2,
      "note": 75,
      "start": 19.3574,
      "duration": 1.9106,
      "velocity": 81,
      "chip": "ym2612"
    },
    {
      "channel": 0,
      "note": 66,
      "start": 19.3609,
      "duration": 1.9903,
      "velocity": 81,
      "chip": "ym2612"
    },
    {
      "channel": 5,
      "note": 59,
      "start": 19.3641,
      "duration": 2.2704,
      "velocity": 81,
      "chip": "ym2612"
    },
    {
      "channel": 4,
      "note": 71,
      "start": 19.3709,
      "duration": 0.1468,
      "velocity": 116,
      "chip": "ym2612"
    },
    {
      "channel": 1,
      "note": 66,
      "start": 19.376,
      "duration": 0.9417,
      "velocity": 88,
      "chip": "ym2612"
    },
    {
      "channel": 4,
      "note": 42,
      "start": 19.6883,
      "duration": 0.0461,
      "velocity": 125,
      "chip": "ym2612"
    },
    {
      "channel": 4,
      "note": 42,
      "start": 19.855,
      "duration": 0.0795,
      "velocity": 125,
      "chip": "ym2612"
    },
    {
      "channel": 4,
      "note": 71,
      "start": 20.0222,
      "duration": 0.1624,
      "velocity": 116,
      "chip": "ym2612"
    },
    {
      "channel": 3,
      "note": 57,
      "start": 20.1878,
      "duration": 0.0798,
      "velocity": 103,
      "chip": "ym2612"
    },
    {
      "channel": 3,
      "note": 59,
      "start": 20.3541,
      "duration": 0.1303,
      "velocity": 103,
      "chip": "ym2612"
    },
    {
      "channel": 4,
      "note": 42,
      "start": 20.3584,
      "duration": 0.0427,
      "velocity": 125,
      "chip": "ym2612"
    },
    {
      "channel": 1,
      "note": 98,
      "start": 20.3617,
      "duration": 0.0393,
      "velocity": 127,
      "chip": "ym2612"
    },
    {
      "channel": 1,
      "note": 78,
      "start": 20.5232,
      "duration": 0.1279,
      "velocity": 115,
      "chip": "ym2612"
    },
    {
      "channel": 3,
      "note": 59,
      "start": 20.6878,
      "duration": 0.1632,
      "velocity": 103,
      "chip": "ym2612"
    },
    {
      "channel": 4,
      "note": 98,
      "start": 20.6938,
      "duration": 0.0407,
      "velocity": 127,
      "chip": "ym2612"
    },
    {
      "channel": 1,
      "note": 73,
      "start": 20.8563,
      "duration": 0.1282,
      "velocity": 115,
      "chip": "ym2612"
    },
    {
      "channel": 3,
      "note": 59,
      "start": 21.0208,
      "duration": 0.3305,
      "velocity": 103,
      "chip": "ym2612"
    },
    {
      "channel": 4,
      "note": 98,
      "start": 21.0256,
      "duration": 0.0422,
      "velocity": 127,
      "chip": "ym2612"
    },
    {
      "channel": 1,
      "note": 83,
      "start": 21.0291,
      "duration": 0.1219,
      "velocity": 115,
      "chip": "ym2612"
    },
    {
      "channel": 4,
      "note": 98,
      "start": 21.1892,
      "duration": 0.0787,
      "velocity": 127,
      "chip": "ym2612"
    },
    {
      "channel": 1,
      "note": 83,
      "start": 21.1926,
      "duration": 0.1419,
      "velocity": 115,
      "chip": "ym2612"
    },
    {
      "channel": 3,
      "note": 64,
      "start": 21.3545,
      "duration": 0.1468,
      "velocity": 103,
      "chip": "ym2612"
    },
    {
      "channel": 2,
      "note": 71,
      "start": 21.3576,
      "duration": 1.5604,
      "velocity": 81,
      "chip": "ym2612"
    },
    {
      "channel": 4,
      "note": 98,
      "start": 21.3629,
      "duration": 0.055,
      "velocity": 127,
      "chip": "ym2612"
    },
    {
      "channel": 1,
      "note": 78,
      "start": 21.3663,
      "duration": 0.1348,
      "velocity": 115,
      "chip": "ym2612"
    },
    {
      "channel": 3,
      "note": 62,
      "start": 21.5206,
      "duration": 0.1473,
      "velocity": 103,
      "chip": "ym2612"
    },
    {
      "channel": 4,
      "note": 98,
      "start": 21.5246,
      "duration": 0.0766,
      "velocity": 127,
      "chip": "ym2612"
    },
    {
      "channel": 1,
      "note": 78,
      "start": 21.5285,
      "duration": 0.1393,
      "velocity": 115,
      "chip": "ym2612"
    },
    {
      "channel": 3,
      "note": 59,
      "start": 21.6875,
      "duration": 0.1969,
      "velocity": 103,
      "chip": "ym2612"
    },
    {
      "channel": 5,
      "note": 59,
      "start": 21.6922,
      "duration": 1.3605,
      "velocity": 81,
      "chip": "ym2612"
    },
    {
      "channel": 0,
      "note": 59,
      "start": 21.6968,
      "duration": 0.1043,
      "velocity": 81,
      "chip": "ym2612"
    },
    {
      "channel": 1,
      "note": 73,
      "start": 21.7028,
      "duration": 0.0484,
      "velocity": 115,
      "chip": "ym2612"
    },
    {
      "channel": 4,
      "note": 66,
      "start": 21.7062,
      "duration": 0.9616,
      "velocity": 88,
      "chip": "ym2612"
    },
    {
      "channel": 0,
      "note": 66,
      "start": 21.8546,
      "duration": 0.1464,
      "velocity": 81,
      "chip": "ym2612"
    },
    {
      "channel": 3,
      "note": 59,
      "start": 22.0209,
      "duration": 0.1471,
      "velocity": 103,
      "chip": "ym2612"
    },
    {
      "channel": 0,
      "note": 71,
      "start": 22.0247,
      "duration": 0.1431,
      "velocity": 81,
      "chip": "ym2612"
    },
    {
      "channel": 1,
      "note": 71,
      "start": 22.0301,
      "duration": 0.1544,
      "velocity": 116,
      "chip": "ym2612"
    },
    {
      "channel": 0,
      "note": 66,
      "start": 22.1882,
      "duration": 0.2794,
      "velocity": 81,
      "chip": "ym2612"
    },
    {
      "channel": 3,
      "note": 59,
      "start": 22.3541,
      "duration": 0.1637,
      "velocity": 103,
      "chip": "ym2612"
    },
    {
      "channel": 1,
      "note": 42,
      "start": 22.3584,
      "duration": 0.0761,
      "velocity": 125,
      "chip": "ym2612"
    },
    {
      "channel": 0,
      "note": 59,
      "start": 22.5219,
      "duration": 0.1457,
      "velocity": 81,
      "chip": "ym2612"
    },
    {
      "channel": 1,
      "note": 42,
      "start": 22.5264,
      "duration": 0.0579,
      "velocity": 125,
      "chip": "ym2612"
    },
    {
      "channel": 3,
      "note": 69,
      "start": 22.6873,
      "duration": 0.1805,
      "velocity": 103,
      "chip": "ym2612"
    },
    {
      "channel": 0,
      "note": 66,
      "start": 22.6906,
      "duration": 0.1437,
      "velocity": 81,
      "chip": "ym2612"
    },
    {
      "channel": 1,
      "note": 71,
      "start": 22.6955,
      "duration": 0.1721,
      "velocity": 116,
      "chip": "ym2612"
    },
    {
      "channel": 4,
      "note": 98,
      "start": 22.7006,
      "duration": 0.0172,
      "velocity": 127,
      "chip": "ym2612"
    },
    {
      "channel": 3,
      "note": 71,
      "start": 22.8712,
      "duration": 0.13,
      "velocity": 103,
      "chip": "ym2612"
    },
    {
      "channel": 0,
      "note": 71,
      "start": 22.8754,
      "duration": 0.1256,
      "velocity": 81,
      "chip": "ym2612"
    },
    {
      "channel": 3,
      "note": 57,
      "start": 23.0376,
      "duration": 0.1635,
      "velocity": 103,
      "chip": "ym2612"
    },
    {
      "channel": 2,
      "note": 73,
      "start": 23.0406,
      "duration": 0.6606,
      "velocity": 81,
      "chip": "ym2612"
    },
    {
      "channel": 0,
      "note": 57,
      "start": 23.0446,
      "duration": 0.0898,
      "velocity": 81,
      "chip": "ym2612"
    },
    {
      "channel": 4,
      "note": 42,
      "start": 23.0488,
      "duration": 0.0357,
      "velocity": 125,
      "chip": "ym2612"
    },
    {
      "channel": 0,
      "note": 66,
      "start": 23.2046,
      "duration": 0.1297,
      "velocity": 81,
      "chip": "ym2612"
    },
    {
      "channel": 3,
      "note": 57,
      "start": 23.3705,
      "duration": 0.1641,
      "velocity": 103,
      "chip": "ym2612"
    },
    {
      "channel": 5,
      "note": 59,
      "start": 23.3737,
      "duration": 0.3445,
      "velocity": 81,
      "chip": "ym2612"
    },
    {
      "channel": 0,
      "note": 71,
      "start": 23.377,
      "duration": 0.124,
      "velocity": 81,
      "chip": "ym2612"
    },
    {
      "channel": 1,
      "note": 71,
      "start": 23.3816,
      "duration": 0.1528,
      "velocity": 116,
      "chip": "ym2612"
    },
    {
      "channel": 4,
      "note": 98,
      "start": 23.3865,
      "duration": 0.0018,
      "velocity": 127,
      "chip": "ym2612"
    },
    {
      "channel": 0,
      "note": 66,
      "start": 23.5382,
      "duration": 0.2628,
      "velocity": 81,
      "chip": "ym2612"
    },
    {
      "channel": 3,
      "note": 55,
      "start": 23.7041,
      "duration": 0.1805,
      "velocity": 103,
      "chip": "ym2612"
    },
    {
      "channel": 2,
      "note": 77,
      "start": 23.7073,
      "duration": 1.8606,
      "velocity": 81,
      "chip": "ym2612"
    },
    {
      "channel": 4,
      "note": 42,
      "start": 23.7121,
      "duration": 0.0391,
      "velocity": 125,
      "chip": "ym2612"
    },
    {
      "channel": 1,
      "note": 98,
      "start": 23.7151,
      "duration": 0.0027,
      "velocity": 127,
      "chip": "ym2612"
    },
    {
      "channel": 0,
      "note": 57,
      "start": 23.8714,
      "duration": 0.1296,
      "velocity": 81,
      "chip": "ym2612"
    },
    {
      "channel": 4,
      "note": 42,
      "start": 23.8754,
      "duration": 0.0425,
      "velocity": 125,
      "chip": "ym2612"
    },
    {
      "channel": 3,
      "note": 55,
      "start": 24.0373,
      "duration": 0.3305,
      "velocity": 103,
      "chip": "ym2612"
    },
    {
      "channel": 5,
      "note": 59,
      "start": 24.0403,
      "duration": 0.2776,
      "velocity": 81,
      "chip": "ym2612"
    },
    {
      "channel": 0,
      "note": 55,
      "start": 24.0437,
      "duration": 0.124,
      "velocity": 81,
      "chip": "ym2612"
    },
    {
      "channel": 1,
      "note": 71,
      "start": 24.0485,
      "duration": 0.1525,
      "velocity": 116,
      "chip": "ym2612"
    },
    {
      "channel": 4,
      "note": 98,
      "start": 24.0534,
      "duration": 0.0019,
      "velocity": 127,
      "chip": "ym2612"
    },
    {
      "channel": 0,
      "note": 71,
      "start": 24.2044,
      "duration": 0.1299,
      "velocity": 81,
      "chip": "ym2612"
    },
    {
      "channel": 4,
      "note": 42,
      "start": 24.2088,
      "duration": 0.0425,
      "velocity": 125,
      "chip": "ym2612"
    },
    {
      "channel": 1,
      "note": 98,
      "start": 24.212,
      "duration": 0.0391,
      "velocity": 127,
      "chip": "ym2612"
    },
    {
      "channel": 3,
      "note": 54,
      "start": 24.3708,
      "duration": 0.1636,
      "velocity": 103,
      "chip": "ym2612"
    },
    {
      "channel": 0,
      "note": 54,
      "start": 24.3749,
      "duration": 0.126,
      "velocity": 81,
      "chip": "ym2612"
    },
    {
      "channel": 4,
      "note": 42,
      "start": 24.3788,
      "duration": 0.039,
      "velocity": 125,
      "chip": "ym2612"
    },
    {
      "channel": 1,
      "note": 98,
      "start": 24.3823,
      "duration": 0.0188,
      "velocity": 127,
      "chip": "ym2612"
    },
    {
      "channel": 0,
      "note": 61,
      "start": 24.5378,
      "duration": 0.1298,
      "velocity": 81,
      "chip": "ym2612"
    },
    {
      "channel": 3,
      "note": 54,
      "start": 24.704,
      "duration": 0.1305,
      "velocity": 103,
      "chip": "ym2612"
    },
    {
      "channel": 5,
      "note": 61,
      "start": 24.7072,
      "duration": 0.9441,
      "velocity": 81,
      "chip": "ym2612"
    },
    {
      "channel": 0,
      "note": 71,
      "start": 24.7112,
      "duration": 0.123,
      "velocity": 81,
      "chip": "ym2612"
    },
    {
      "channel": 1,
      "note": 71,
      "start": 24.7161,
      "duration": 0.1515,
      "velocity": 116,
      "chip": "ym2612"
    },
    {
      "channel": 4,
      "note": 98,
      "start": 24.7209,
      "duration": 0.0136,
      "velocity": 127,
      "chip": "ym2612"
    },
    {
      "channel": 0,
      "note": 70,
      "start": 24.8714,
      "duration": 0.2795,
      "velocity": 81,
      "chip": "ym2612"
    },
    {
      "channel": 3,
      "note": 54,
      "start": 25.0374,
      "duration": 0.1971,
      "velocity": 103,
      "chip": "ym2612"
    },
    {
      "channel": 4,
      "note": 42,
      "start": 25.0415,
      "duration": 0.0431,
      "velocity": 125,
      "chip": "ym2612"
    },
    {
      "channel": 1,
      "note": 98,
      "start": 25.0448,
      "duration": 0.0395,
      "velocity": 127,
      "chip": "ym2612"
    },
    {
      "channel": 0,
      "note": 54,
      "start": 25.2056,
      "duration": 0.1286,
      "velocity": 81,
      "chip": "ym2612"
    },
    {
      "channel": 4,
      "note": 42,
      "start": 25.2098,
      "duration": 0.0746,
      "velocity": 125,
      "chip": "ym2612"
    },
    {
      "channel": 1,
      "note": 98,
      "start": 25.2126,
      "duration": 0.0385,
      "velocity": 127,
      "chip": "ym2612"
    },
    {
      "channel": 3,
      "note": 64,
      "start": 25.3712,
      "duration": 0.1634,
      "velocity": 103,
      "chip": "ym2612"
    },
    {
      "channel": 0,
      "note": 61,
      "start": 25.3745,
      "duration": 0.1265,
      "velocity": 81,
      "chip": "ym2612"
    },
    {
      "channel": 1,
      "note": 71,
      "start": 25.3793,
      "duration": 0.1551,
      "velocity": 116,
      "chip": "ym2612"
    },
    {
      "channel": 4,
      "note": 98,
      "start": 25.3842,
      "duration": 0.0337,
      "velocity": 127,
      "chip": "ym2612"
    },
    {
      "channel": 3,
      "note": 66,
      "start": 25.5375,
      "duration": 0.1636,
      "velocity": 103,
      "chip": "ym2612"
    },
    {
      "channel": 0,
      "note": 66,
      "start": 25.5415,
      "duration": 0.1095,
      "velocity": 81,
      "chip": "ym2612"
    },
    {
      "channel": 3,
      "note": 54,
      "start": 25.7041,
      "duration": 0.1636,
      "velocity": 103,
      "chip": "ym2612"
    },
    {
      "channel": 2,
      "note": 76,
      "start": 25.7076,
      "duration": 0.6105,
      "velocity": 81,
      "chip": "ym2612"
    },
    {
      "channel": 5,
      "note": 63,
      "start": 25.7111,
      "duration": 0.6069,
      "velocity": 81,
      "chip": "ym2612"
    },
    {
      "channel": 0,
      "note": 63,
      "start": 25.7147,
      "duration": 0.103,
      "velocity": 81,
      "chip": "ym2612"
    },
    {
      "channel": 4,
      "note": 42,
      "start": 25.7195,
      "duration": 0.0484,
      "velocity": 125,
      "chip": "ym2612"
    },
    {
      "channel": 1,
      "note": 98,
      "start": 25.7227,
      "duration": 0.0117,
      "velocity": 127,
      "chip": "ym2612"
    },
    {
      "channel": 0,
      "note": 66,
      "start": 25.8712,
      "duration": 0.1464,
      "velocity": 81,
      "chip": "ym2612"
    },
    {
      "channel": 4,
      "note": 42,
      "start": 25.8751,
      "duration": 0.0594,
      "velocity": 125,
      "chip": "ym2612"
    },
    {
      "channel": 3,
      "note": 54,
      "start": 26.0373,
      "duration": 0.1971,
      "velocity": 103,
      "chip": "ym2612"
    },
    {
      "channel": 0,
      "note": 71,
      "start": 26.0402,
      "duration": 0.1441,
      "velocity": 81,
      "chip": "ym2612"
    },
    {
      "channel": 1,
      "note": 71,
      "start": 26.045,
      "duration": 0.1562,
      "velocity": 116,
      "chip": "ym2612"
    },
    {
      "channel": 4,
      "note": 98,
      "start": 26.0498,
      "duration": 0.0515,
      "velocity": 127,
      "chip": "ym2612"
    },
    {
      "channel": 0,
      "note": 70,
      "start": 26.2053,
      "duration": 0.2791,
      "velocity": 81,
      "chip": "ym2612"
    },
    {
      "channel": 4,
      "note": 42,
      "start": 26.2095,
      "duration": 0.0749,
      "velocity": 125,
      "chip": "ym2612"
    },
    {
      "channel": 3,
      "note": 63,
      "start": 26.3707,
      "duration": 0.3303,
      "velocity": 103,
      "chip": "ym2612"
    },
    {
      "channel": 2,
      "note": 76,
      "start": 26.3739,
      "duration": 0.5274,
      "velocity": 81,
      "chip": "ym2612"
    },
    {
      "channel": 5,
      "note": 61,
      "start": 26.3777,
      "duration": 0.5569,
      "velocity": 81,
      "chip": "ym2612"
    },
    {
      "channel": 4,
      "note": 42,
      "start": 26.3815,
      "duration": 0.0531,
      "velocity": 125,
      "chip": "ym2612"
    },
    {
      "channel": 1,
      "note": 98,
      "start": 26.3847,
      "duration": 0.0497,
      "velocity": 127,
      "chip": "ym2612"
    },
    {
      "channel": 0,
      "note": 54,
      "start": 26.538,
      "duration": 0.1463,
      "velocity": 81,
      "chip": "ym2612"
    },
    {
      "channel": 4,
      "note": 42,
      "start": 26.542,
      "duration": 0.0592,
      "velocity": 125,
      "chip": "ym2612"
    },
    {
      "channel": 1,
      "note": 98,
      "start": 26.5454,
      "duration": 0.0724,
      "velocity": 127,
      "chip": "ym2612"
    },
    {
      "channel": 3,
      "note": 61,
      "start": 26.7042,
      "duration": 0.1136,
      "velocity": 103,
      "chip": "ym2612"
    },
    {
      "channel": 0,
      "note": 61,
      "start": 26.7075,
      "duration": 0.1434,
      "velocity": 81,
      "chip": "ym2612"
    },
    {
      "channel": 4,
      "note": 71,
      "start": 26.7123,
      "duration": 0.1555,
      "velocity": 116,
      "chip": "ym2612"
    },
    {
      "channel": 1,
      "note": 98,
      "start": 26.717,
      "duration": 0.0507,
      "velocity": 127,
      "chip": "ym2612"
    },
    {
      "channel": 3,
      "note": 59,
      "start": 26.8707,
      "duration": 0.1137,
      "velocity": 103,
      "chip": "ym2612"
    },
    {
      "channel": 0,
      "note": 66,
      "start": 26.8736,
      "duration": 0.1441,
      "velocity": 81,
      "chip": "ym2612"
    },
    {
      "channel": 1,
      "note": 98,
      "start": 26.8777,
      "duration": 0.0735,
      "velocity": 127,
      "chip": "ym2612"
    },
    {
      "channel": 3,
      "note": 62,
      "start": 27.0547,
      "duration": 0.1798,
      "velocity": 103,
      "chip": "ym2612"
    },
    {
      "channel": 2,
      "note": 74,
      "start": 27.0578,
      "duration": 1.2938,
      "velocity": 81,
      "chip": "ym2612"
    },
    {
      "channel": 5,
      "note": 54,
      "start": 27.0614,
      "duration": 1.2066,
      "velocity": 81,
      "chip": "ym2612"
    },
    {
      "channel": 0,
      "note": 62,
      "start": 27.0668,
      "duration": 0.0844,
      "velocity": 81,
      "chip": "ym2612"
    },
    {
      "channel": 4,
      "note": 42,
      "start": 27.0708,
      "duration": 0.0305,
      "velocity": 125,
      "chip": "ym2612"
    },
    {
      "channel": 1,
      "note": 98,
      "start": 27.0739,
      "duration": 0.0045,
      "velocity": 127,
      "chip": "ym2612"
    },
    {
      "channel": 0,
      "note": 69,
      "start": 27.2212,
      "duration": 0.1297,
      "velocity": 81,
      "chip": "ym2612"
    },
    {
      "channel": 3,
      "note": 62,
      "start": 27.3873,
      "duration": 0.0805,
      "velocity": 103,
      "chip": "ym2612"
    },
    {
      "channel": 0,
      "note": 74,
      "start": 27.3902,
      "duration": 0.1274,
      "velocity": 81,
      "chip": "ym2612"
    },
    {
      "channel": 1,
      "note": 71,
      "start": 27.3954,
      "duration": 0.1556,
      "velocity": 116,
      "chip": "ym2612"
    },
    {
      "channel": 4,
      "note": 98,
      "start": 27.4003,
      "duration": 0.0342,
      "velocity": 127,
      "chip": "ym2612"
    },
    {
      "channel": 0,
      "note": 69,
      "start": 27.5554,
      "duration": 0.2623,
      "velocity": 81,
      "chip": "ym2612"
    },
    {
      "channel": 3,
      "note": 62,
      "start": 27.7208,
      "duration": 0.0471,
      "velocity": 103,
      "chip": "ym2612"
    },
    {
      "channel": 4,
      "note": 42,
      "start": 27.7251,
      "duration": 0.0761,
      "velocity": 125,
      "chip": "ym2612"
    },
    {
      "channel": 1,
      "note": 98,
      "start": 27.728,
      "duration": 0.0397,
      "velocity": 127,
      "chip": "ym2612"
    },
    {
      "channel": 0,
      "note": 62,
      "start": 27.8885,
      "duration": 0.1292,
      "velocity": 81,
      "chip": "ym2612"
    },
    {
      "channel": 4,
      "note": 42,
      "start": 27.8929,
      "duration": 0.075,
      "velocity": 125,
      "chip": "ym2612"
    },
    {
      "channel": 3,
      "note": 62,
      "start": 28.0542,
      "duration": 0.1303,
      "velocity": 103,
      "chip": "ym2612"
    },
    {
      "channel": 0,
      "note": 69,
      "start": 28.0571,
      "duration": 0.1272,
      "velocity": 81,
      "chip": "ym2612"
    },
    {
      "channel": 1,
      "note": 71,
      "start": 28.062,
      "duration": 0.1556,
      "velocity": 116,
      "chip": "ym2612"
    },
    {
      "channel": 4,
      "note": 98,
      "start": 28.067,
      "duration": 0.0019,
      "velocity": 127,
      "chip": "ym2612"
    },
    {
      "channel": 3,
      "note": 61,
      "start": 28.2207,
      "duration": 0.1307,
      "velocity": 103,
      "chip": "ym2612"
    },
    {
      "channel": 0,
      "note": 74,
      "start": 28.2235,
      "duration": 0.1276,
      "velocity": 81,
      "chip": "ym2612"
    },
    {
      "channel": 4,
      "note": 98,
      "start": 28.228,
      "duration": 0.0398,
      "velocity": 127,
      "chip": "ym2612"
    },
    {
      "channel": 3,
      "note": 57,
      "start": 28.3876,
      "duration": 0.4968,
      "velocity": 103,
      "chip": "ym2612"
    },
    {
      "channel": 2,
      "note": 71,
      "start": 28.3907,
      "duration": 0.8772,
      "velocity": 81,
      "chip": "ym2612"
    },
    {
      "channel": 5,
      "note": 52,
      "start": 28.3936,
      "duration": 1.2912,
      "velocity": 81,
      "chip": "ym2612"
    },
    {
      "channel": 0,
      "note": 57,
      "start": 28.3985,
      "duration": 0.1027,
      "velocity": 81,
      "chip": "ym2612"
    },
    {
      "channel": 1,
      "note": 42,
      "start": 28.4025,
      "duration": 0.0321,
      "velocity": 125,
      "chip": "ym2612"
    },
    {
      "channel": 4,
      "note": 98,
      "start": 28.4055,
      "duration": 0.0292,
      "velocity": 127,
      "chip": "ym2612"
    },
    {
      "channel": 0,
      "note": 64,
      "start": 28.5546,
      "duration": 0.1298,
      "velocity": 81,
      "chip": "ym2612"
    },
    {
      "channel": 0,
      "note": 69,
      "start": 28.721,
      "duration": 0.1299,
      "velocity": 81,
      "chip": "ym2612"
    },
    {
      "channel": 1,
      "note": 71,
      "start": 28.7259,
      "duration": 0.1585,
      "velocity": 116,
      "chip": "ym2612"
    },
    {
      "channel": 4,
      "note": 98,
      "start": 28.7306,
      "duration": 0.0206,
      "velocity": 127,
      "chip": "ym2612"
    },
    {
      "channel": 0,
      "note": 64,
      "start": 28.8882,
      "duration": 0.2796,
      "velocity": 81,
      "chip": "ym2612"
    },
    {
      "channel": 3,
      "note": 57,
      "start": 29.0542,
      "duration": 0.1636,
      "velocity": 103,
      "chip": "ym2612"
    },
    {
      "channel": 4,
      "note": 42,
      "start": 29.0579,
      "duration": 0.0767,
      "velocity": 125,
      "chip": "ym2612"
    },
    {
      "channel": 1,
      "note": 98,
      "start": 29.0612,
      "duration": 0.0398,
      "velocity": 127,
      "chip": "ym2612"
    },
    {
      "channel": 0,
      "note": 57,
      "start": 29.2215,
      "duration": 0.1295,
      "velocity": 81,
      "chip": "ym2612"
    },
    {
      "channel": 4,
      "note": 42,
      "start": 29.2255,
      "duration": 0.0758,
      "velocity": 125,
      "chip": "ym2612"
    },
    {
      "channel": 1,
      "note": 98,
      "start": 29.2285,
      "duration": 0.0226,
      "velocity": 127,
      "chip": "ym2612"
    },
    {
      "channel": 2,
      "note": 69,
      "start": 29.2713,
      "duration": 0.3633,
      "velocity": 81,
      "chip": "ym2612"
    },
    {
      "channel": 3,
      "note": 57,
      "start": 29.3877,
      "duration": 0.1636,
      "velocity": 103,
      "chip": "ym2612"
    },
    {
      "channel": 0,
      "note": 64,
      "start": 29.3906,
      "duration": 0.127,
      "velocity": 81,
      "chip": "ym2612"
    },
    {
      "channel": 1,
      "note": 71,
      "start": 29.3954,
      "duration": 0.1556,
      "velocity": 116,
      "chip": "ym2612"
    },
    {
      "channel": 4,
      "note": 98,
      "start": 29.4002,
      "duration": 0.0343,
      "velocity": 127,
      "chip": "ym2612"
    },
    {
      "channel": 3,
      "note": 62,
      "start": 29.5542,
      "duration": 0.1304,
      "velocity": 103,
      "chip": "ym2612"
    },
    {
      "channel": 0,
      "note": 69,
      "start": 29.5577,
      "duration": 0.1099,
      "velocity": 81,
      "chip": "ym2612"
    },
    {
      "channel": 4,
      "note": 98,
      "start": 29.562,
      "duration": 0.0225,
      "velocity": 127,
      "chip": "ym2612"
    },
    {
      "channel": 3,
      "note": 64,
      "start": 29.7209,
      "duration": 0.2469,
      "velocity": 103,
      "chip": "ym2612"
    },
    {
      "channel": 2,
      "note": 71,
      "start": 29.7242,
      "duration": 1.9438,
      "velocity": 81,
      "chip": "ym2612"
    },
    {
      "channel": 5,
      "note": 52,
      "start": 29.7285,
      "duration": 2.5894,
      "velocity": 81,
      "chip": "ym2612"
    },
    {
      "channel": 0,
      "note": 52,
      "start": 29.7342,
      "duration": 0.1002,
      "velocity": 81,
      "chip": "ym2612"
    },
    {
      "channel": 1,
      "note": 42,
      "start": 29.7382,
      "duration": 0.0297,
      "velocity": 125,
      "chip": "ym2612"
    },
    {
      "channel": 4,
      "note": 98,
      "start": 29.7413,
      "duration": 0.01,
      "velocity": 127,
      "chip": "ym2612"
    },
    {
      "channel": 0,
      "note": 59,
      "start": 29.8878,
      "duration": 0.1465,
      "velocity": 81,
      "chip": "ym2612"
    },
    {
      "channel": 3,
      "note": 64,
      "start": 30.0541,
      "duration": 0.0803,
      "velocity": 103,
      "chip": "ym2612"
    },
    {
      "channel": 0,
      "note": 64,
      "start": 30.0569,
      "duration": 0.144,
      "velocity": 81,
      "chip": "ym2612"
    },
    {
      "channel": 4,
      "note": 71,
      "start": 30.0617,
      "duration": 0.1561,
      "velocity": 116,
      "chip": "ym2612"
    },
    {
      "channel": 1,
      "note": 98,
      "start": 30.067,
      "duration": 0.0508,
      "velocity": 127,
      "chip": "ym2612"
    },
    {
      "channel": 0,
      "note": 59,
      "start": 30.2214,
      "duration": 0.2795,
      "velocity": 81,
      "chip": "ym2612"
    },
    {
      "channel": 3,
      "note": 64,
      "start": 30.3874,
      "duration": 0.1137,
      "velocity": 103,
      "chip": "ym2612"
    },
    {
      "channel": 1,
      "note": 42,
      "start": 30.3914,
      "duration": 0.0597,
      "velocity": 125,
      "chip": "ym2612"
    },
    {
      "channel": 4,
      "note": 98,
      "start": 30.3945,
      "duration": 0.0568,
      "velocity": 127,
      "chip": "ym2612"
    },
    {
      "channel": 0,
      "note": 52,
      "start": 30.5547,
      "duration": 0.1461,
      "velocity": 81,
      "chip": "ym2612"
    },
    {
      "channel": 1,
      "note": 42,
      "start": 30.5593,
      "duration": 0.0583,
      "velocity": 125,
      "chip": "ym2612"
    },
    {
      "channel": 4,
      "note": 98,
      "start": 30.5623,
      "duration": 0.0556,
      "velocity": 127,
      "chip": "ym2612"
    },
    {
      "channel": 3,
      "note": 64,
      "start": 30.7209,
      "duration": 0.1637,
      "velocity": 103,
      "chip": "ym2612"
    },
    {
      "channel": 0,
      "note": 59,
      "start": 30.7245,
      "duration": 0.1431,
      "velocity": 81,
      "chip": "ym2612"
    },
    {
      "channel": 1,
      "note": 71,
      "start": 30.729,
      "duration": 0.1555,
      "velocity": 116,
      "chip": "ym2612"
    },
    {
      "channel": 4,
      "note": 98,
      "start": 30.7334,
      "duration": 0.0512,
      "velocity": 127,
      "chip": "ym2612"
    },
    {
      "channel": 3,
      "note": 62,
      "start": 30.8877,
      "duration": 0.0801,
      "velocity": 103,
      "chip": "ym2612"
    },
    {
      "channel": 0,
      "note": 64,
      "start": 30.8914,
      "duration": 0.1096,
      "velocity": 81,
      "chip": "ym2612"
    },
    {
      "channel": 4,
      "note": 98,
      "start": 30.8957,
      "duration": 0.0222,
      "velocity": 127,
      "chip": "ym2612"
    },
    {
      "channel": 3,
      "note": 64,
      "start": 31.0546,
      "duration": 0.1966,
      "velocity": 103,
      "chip": "ym2612"
    },
    {
      "channel": 0,
      "note": 52,
      "start": 31.0587,
      "duration": 0.1422,
      "velocity": 81,
      "chip": "ym2612"
    },
    {
      "channel": 1,
      "note": 42,
      "start": 31.0629,
      "duration": 0.0716,
      "velocity": 125,
      "chip": "ym2612"
    },
    {
      "channel": 4,
      "note": 98,
      "start": 31.066,
      "duration": 0.0519,
      "velocity": 127,
      "chip": "ym2612"
    },
    {
      "channel": 0,
      "note": 59,
      "start": 31.2215,
      "duration": 0.1462,
      "velocity": 81,
      "chip": "ym2612"
    },
    {
      "channel": 4,
      "note": 98,
      "start": 31.2258,
      "duration": 0.0588,
      "velocity": 127,
      "chip": "ym2612"
    },
    {
      "channel": 1,
      "note": 78,
      "start": 31.2298,
      "duration": 0.1381,
      "velocity": 115,
      "chip": "ym2612"
    },
    {
      "channel": 3,
      "note": 64,
      "start": 31.4041,
      "duration": 0.1636,
      "velocity": 103,
      "chip": "ym2612"
    },
    {
      "channel": 0,
      "note": 64,
      "start": 31.4076,
      "duration": 0.1268,
      "velocity": 81,
      "chip": "ym2612"
    },
    {
      "channel": 1,
      "note": 83,
      "start": 31.4127,
      "duration": 0.1219,
      "velocity": 115,
      "chip": "ym2612"
    },
    {
      "channel": 4,
      "note": 66,
      "start": 31.4156,
      "duration": 0.9857,
      "velocity": 88,
      "chip": "ym2612"
    },
    {
      "channel": 0,
      "note": 71,
      "start": 31.5717,
      "duration": 0.1293,
      "velocity": 81,
      "chip": "ym2612"
    },
    {
      "channel": 3,
      "note": 64,
      "start": 31.7374,
      "duration": 0.1637,
      "velocity": 103,
      "chip": "ym2612"
    },
    {
      "channel": 0,
      "note": 76,
      "start": 31.7402,
      "duration": 0.1275,
      "velocity": 81,
      "chip": "ym2612"
    },
    {
      "channel": 3,
      "note": 68,
      "start": 31.9041,
      "duration": 0.1637,
      "velocity": 103,
      "chip": "ym2612"
    },
    {
      "channel": 2,
      "note": 71,
      "start": 31.9074,
      "duration": 0.1273,
      "velocity": 81,
      "chip": "ym2612"
    },
    {
      "channel": 0,
      "note": 71,
      "start": 31.9102,
      "duration": 0.1241,
      "velocity": 81,
      "chip": "ym2612"
    },
    {
      "channel": 1,
      "note": 83,
      "start": 31.9154,
      "duration": 0.1191,
      "velocity": 115,
      "chip": "ym2612"
    },
    {
      "channel": 3,
      "note": 71,
      "start": 32.0709,
      "duration": 0.1305,
      "velocity": 103,
      "chip": "ym2612"
    },
    {
      "channel": 2,
      "note": 75,
      "start": 32.0735,
      "duration": 0.1281,
      "velocity": 81,
      "chip": "ym2612"
    },
    {
      "channel": 0,
      "note": 64,
      "start": 32.0763,
      "duration": 0.1248,
      "velocity": 81,
      "chip": "ym2612"
    },
    {
      "channel": 1,
      "note": 83,
      "start": 32.0813,
      "duration": 0.12,
      "velocity": 115,
      "chip": "ym2612"
    },
    {
      "channel": 3,
      "note": 68,
      "start": 32.2375,
      "duration": 0.1638,
      "velocity": 103,
      "chip": "ym2612"
    },
    {
      "channel": 2,
      "note": 78,
      "start": 32.2402,
      "duration": 0.128,
      "velocity": 81,
      "chip": "ym2612"
    },
    {
      "channel": 0,
      "note": 59,
      "start": 32.2431,
      "duration": 0.0914,
      "velocity": 81,
      "chip": "ym2612"
    },
    {
      "channel": 1,
      "note": 78,
      "start": 32.248,
      "duration": 0.12,
      "velocity": 115,
      "chip": "ym2612"
    },
    {
      "channel": 3,
      "note": 62,
      "start": 32.4045,
      "duration": 0.2466,
      "velocity": 103,
      "chip": "ym2612"
    },
    {
      "channel": 2,
      "note": 81,
      "start": 32.4076,
      "duration": 1.1938,
      "velocity": 81,
      "chip": "ym2612"
    },
    {
      "channel": 5,
      "note": 50,
      "start": 32.4106,
      "duration": 1.1906,
      "velocity": 81,
      "chip": "ym2612"
    },
    {
      "channel": 0,
      "note": 62,
      "start": 32.4154,
      "duration": 0.0858,
      "velocity": 81,
      "chip": "ym2612"
    },
    {
      "channel": 1,
      "note": 73,
      "start": 32.4216,
      "duration": 0.0295,
      "velocity": 115,
      "chip": "ym2612"
    },
    {
      "channel": 4,
      "note": 58,
      "start": 32.4247,
      "duration": 1.2766,
      "velocity": 88,
      "chip": "ym2612"
    },
    {
      "channel": 0,
      "note": 69,
      "start": 32.5713,
      "duration": 0.1298,
      "velocity": 81,
      "chip": "ym2612"
    },
    {
      "channel": 0,
      "note": 74,
      "start": 32.7378,
      "duration": 0.13,
      "velocity": 81,
      "chip": "ym2612"
    },
    {
      "channel": 1,
      "note": 71,
      "start": 32.7432,
      "duration": 0.1579,
      "velocity": 116,
      "chip": "ym2612"
    },
    {
      "channel": 3,
      "note": 62,
      "start": 32.9043,
      "duration": 0.197,
      "velocity": 103,
      "chip": "ym2612"
    },
    {
      "channel": 0,
      "note": 69,
      "start": 32.9072,
      "duration": 0.1272,
      "velocity": 81,
      "chip": "ym2612"
    },
    {
      "channel": 0,
      "note": 67,
      "start": 33.0711,
      "duration": 0.1299,
      "velocity": 81,
      "chip": "ym2612"
    },
    {
      "channel": 1,
      "note": 42,
      "start": 33.0751,
      "duration": 0.0428,
      "velocity": 125,
      "chip": "ym2612"
    },
    {
      "channel": 0,
      "note": 66,
      "start": 33.2378,
      "duration": 0.1298,
      "velocity": 81,
      "chip": "ym2612"
    },
    {
      "channel": 1,
      "note": 42,
      "start": 33.2413,
      "duration": 0.0431,
      "velocity": 125,
      "chip": "ym2612"
    },
    {
      "channel": 3,
      "note": 62,
      "start": 33.4046,
      "duration": 0.1298,
      "velocity": 103,
      "chip": "ym2612"
    },
    {
      "channel": 0,
      "note": 62,
      "start": 33.4083,
      "duration": 0.126,
      "velocity": 81,
      "chip": "ym2612"
    },
    {
      "channel": 1,
      "note": 71,
      "start": 33.4131,
      "duration": 0.1546,
      "velocity": 116,
      "chip": "ym2612"
    },
    {
      "channel": 3,
      "note": 61,
      "start": 33.5707,
      "duration": 0.1305,
      "velocity": 103,
      "chip": "ym2612"
    },
    {
      "channel": 0,
      "note": 59,
      "start": 33.5748,
      "duration": 0.1096,
      "velocity": 81,
      "chip": "ym2612"
    },
    {
      "channel": 3,
      "note": 57,
      "start": 33.7376,
      "duration": 0.2802,
      "velocity": 103,
      "chip": "ym2612"
    },
    {
      "channel": 2,
      "note": 76,
      "start": 33.7407,
      "duration": 0.9106,
      "velocity": 81,
      "chip": "ym2612"
    },
    {
      "channel": 5,
      "note": 52,
      "start": 33.7446,
      "duration": 1.24,
      "velocity": 81,
      "chip": "ym2612"
    },
    {
      "channel": 0,
      "note": 57,
      "start": 33.7492,
      "duration": 0.102,
      "velocity": 81,
      "chip": "ym2612"
    },
    {
      "channel": 1,
      "note": 42,
      "start": 33.753,
      "duration": 0.0316,
      "velocity": 125,
      "chip": "ym2612"
    },
    {
      "channel": 4,
      "note": 98,
      "start": 33.7563,
      "duration": 0.0117,
      "velocity": 127,
      "chip": "ym2612"
    },
    {
      "channel": 0,
      "note": 64,
      "start": 33.9046,
      "duration": 0.1297,
      "velocity": 81,
      "chip": "ym2612"
    },
    {
      "channel": 0,
      "note": 69,
      "start": 34.0709,
      "duration": 0.1467,
      "velocity": 81,
      "chip": "ym2612"
    },
    {
      "channel": 4,
      "note": 71,
      "start": 34.0758,
      "duration": 0.1588,
      "velocity": 116,
      "chip": "ym2612"
    },
    {
      "channel": 1,
      "note": 98,
      "start": 34.081,
      "duration": 0.0534,
      "velocity": 127,
      "chip": "ym2612"
    },
    {
      "channel": 3,
      "note": 57,
      "start": 34.2378,
      "duration": 0.1466,
      "velocity": 103,
      "chip": "ym2612"
    },
    {
      "channel": 0,
      "note": 64,
      "start": 34.2414,
      "duration": 0.1096,
      "velocity": 81,
      "chip": "ym2612"
    },
    {
      "channel": 0,
      "note": 67,
      "start": 34.4046,
      "duration": 0.1464,
      "velocity": 81,
      "chip": "ym2612"
    },
    {
      "channel": 1,
      "note": 42,
      "start": 34.4089,
      "duration": 0.0589,
      "velocity": 125,
      "chip": "ym2612"
    },
    {
      "channel": 4,
      "note": 98,
      "start": 34.4121,
      "duration": 0.0559,
      "velocity": 127,
      "chip": "ym2612"
    },
    {
      "channel": 3,
      "note": 57,
      "start": 34.5709,
      "duration": 0.1136,
      "velocity": 103,
      "chip": "ym2612"
    },
    {
      "channel": 0,
      "note": 66,
      "start": 34.5739,
      "duration": 0.1437,
      "velocity": 81,
      "chip": "ym2612"
    },
    {
      "channel": 1,
      "note": 42,
      "start": 34.5774,
      "duration": 0.0571,
      "velocity": 125,
      "chip": "ym2612"
    },
    {
      "channel": 4,
      "note": 98,
      "start": 34.5805,
      "duration": 0.0707,
      "velocity": 127,
      "chip": "ym2612"
    },
    {
      "channel": 2,
      "note": 74,
      "start": 34.688,
      "duration": 0.38,
      "velocity": 81,
      "chip": "ym2612"
    },
    {
      "channel": 3,
      "note": 59,
      "start": 34.7374,
      "duration": 0.1639,
      "velocity": 103,
      "chip": "ym2612"
    },
    {
      "channel": 0,
      "note": 64,
      "start": 34.7403,
      "duration": 0.144,
      "velocity": 81,
      "chip": "ym2612"
    },
    {
      "channel": 1,
      "note": 71,
      "start": 34.7451,
      "duration": 0.1561,
      "velocity": 116,
      "chip": "ym2612"
    },
    {
      "channel": 4,
      "note": 98,
      "start": 34.7499,
      "duration": 0.0513,
      "velocity": 127,
      "chip": "ym2612"
    },
    {
      "channel": 3,
      "note": 63,
      "start": 34.9048,
      "duration": 0.1464,
      "velocity": 103,
      "chip": "ym2612"
    },
    {
      "channel": 0,
      "note": 57,
      "start": 34.9077,
      "duration": 0.1434,
      "velocity": 81,
      "chip": "ym2612"
    },
    {
      "channel": 4,
      "note": 98,
      "start": 34.9118,
      "duration": 0.056,
      "velocity": 127,
      "chip": "ym2612"
    },
    {
      "channel": 3,
      "note": 64,
      "start": 35.0711,
      "duration": 0.28,
      "velocity": 103,
      "chip": "ym2612"
    },
    {
      "channel": 2,
      "note": 76,
      "start": 35.0742,
      "duration": 0.6438,
      "velocity": 81,
      "chip": "ym2612"
    },
    {
      "channel": 5,
      "note": 52,
      "start": 35.0769,
      "duration": 1.2578,
      "velocity": 81,
      "chip": "ym2612"
    },
    {
      "channel": 0,
      "note": 64,
      "start": 35.0821,
      "duration": 0.1025,
      "velocity": 81,
      "chip": "ym2612"
    },
    {
      "channel": 1,
      "note": 42,
      "start": 35.0866,
      "duration": 0.0479,
      "velocity": 125,
      "chip": "ym2612"
    },
    {
      "channel": 4,
      "note": 98,
      "start": 35.0898,
      "duration": 0.0116,
      "velocity": 127,
      "chip": "ym2612"
    },
    {
      "channel": 0,
      "note": 71,
      "start": 35.2383,
      "duration": 0.1459,
      "velocity": 81,
      "chip": "ym2612"
    },
    {
      "channel": 0,
      "note": 64,
      "start": 35.4048,
      "duration": 0.1462,
      "velocity": 81,
      "chip": "ym2612"
    },
    {
      "channel": 4,
      "note": 71,
      "start": 35.4096,
      "duration": 0.1749,
      "velocity": 116,
      "chip": "ym2612"
    },
    {
      "channel": 1,
      "note": 98,
      "start": 35.4145,
      "duration": 0.0532,
      "velocity": 127,
      "chip": "ym2612"
    },
    {
      "channel": 3,
      "note": 64,
      "start": 35.5876,
      "duration": 0.2136,
      "velocity": 103,
      "chip": "ym2612"
    },
    {
      "channel": 0,
      "note": 59,
      "start": 35.5911,
      "duration": 0.0932,
      "velocity": 81,
      "chip": "ym2612"
    },
    {
      "channel": 2,
      "note": 76,
      "start": 35.7546,
      "duration": 0.5468,
      "velocity": 81,
      "chip": "ym2612"
    },
    {
      "channel": 0,
      "note": 59,
      "start": 35.7585,
      "duration": 0.1259,
      "velocity": 81,
      "chip": "ym2612"
    },
    {
      "channel": 1,
      "note": 42,
      "start": 35.7624,
      "duration": 0.0387,
      "velocity": 125,
      "chip": "ym2612"
    },
    {
      "channel": 4,
      "note": 98,
      "start": 35.7654,
      "duration": 0.0359,
      "velocity": 127,
      "chip": "ym2612"
    },
    {
      "channel": 0,
      "note": 71,
      "start": 35.9211,
      "duration": 0.1298,
      "velocity": 81,
      "chip": "ym2612"
    },
    {
      "channel": 1,
      "note": 42,
      "start": 35.9247,
      "duration": 0.0431,
      "velocity": 125,
      "chip": "ym2612"
    },
    {
      "channel": 3,
      "note": 64,
      "start": 36.0875,
      "duration": 0.1636,
      "velocity": 103,
      "chip": "ym2612"
    },
    {
      "channel": 0,
      "note": 66,
      "start": 36.0904,
      "duration": 0.1272,
      "velocity": 81,
      "chip": "ym2612"
    },
    {
      "channel": 4,
      "note": 71,
      "start": 36.0952,
      "duration": 0.1561,
      "velocity": 116,
      "chip": "ym2612"
    },
    {
      "channel": 1,
      "note": 98,
      "start": 36.1005,
      "duration": 0.034,
      "velocity": 127,
      "chip": "ym2612"
    },
    {
      "channel": 3,
      "note": 63,
      "start": 36.2544,
      "duration": 0.1302,
      "velocity": 103,
      "chip": "ym2612"
    },
    {
      "channel": 0,
      "note": 59,
      "start": 36.2572,
      "duration": 0.1272,
      "velocity": 81,
      "chip": "ym2612"
    },
    {
      "channel": 1,
      "note": 98,
      "start": 36.2618,
      "duration": 0.0727,
      "velocity": 127,
      "chip": "ym2612"
    },
    {
      "channel": 3,
      "note": 59,
      "start": 36.421,
      "duration": 0.2468,
      "velocity": 103,
      "chip": "ym2612"
    },
    {
      "channel": 2,
      "note": 73,
      "start": 36.424,
      "duration": 0.6106,
      "velocity": 81,
      "chip": "ym2612"
    },
    {
      "channel": 5,
      "note": 51,
      "start": 36.4275,
      "duration": 1.0405,
      "velocity": 81,
      "chip": "ym2612"
    },
    {
      "channel": 0,
      "note": 47,
      "start": 36.4326,
      "duration": 0.0852,
      "velocity": 81,
      "chip": "ym2612"
    },
    {
      "channel": 4,
      "note": 42,
      "start": 36.4364,
      "duration": 0.0315,
      "velocity": 125,
      "chip": "ym2612"
    },
    {
      "channel": 1,
      "note": 98,
      "start": 36.4395,
      "duration": 0.0046,
      "velocity": 127,
      "chip": "ym2612"
    },
    {
      "channel": 0,
      "note": 54,
      "start": 36.5879,
      "duration": 0.1297,
      "velocity": 81,
      "chip": "ym2612"
    },
    {
      "channel": 4,
      "note": 42,
      "start": 36.5917,
      "duration": 0.0427,
      "velocity": 125,
      "chip": "ym2612"
    },
    {
      "channel": 0,
      "note": 59,
      "start": 36.7544,
      "duration": 0.13,
      "velocity": 81,
      "chip": "ym2612"
    },
    {
      "channel": 1,
      "note": 71,
      "start": 36.7592,
      "duration": 0.1586,
      "velocity": 116,
      "chip": "ym2612"
    },
    {
      "channel": 4,
      "note": 98,
      "start": 36.764,
      "duration": 0.0371,
      "velocity": 127,
      "chip": "ym2612"
    },
    {
      "channel": 3,
      "note": 59,
      "start": 36.9215,
      "duration": 0.1629,
      "velocity": 103,
      "chip": "ym2612"
    },
    {
      "channel": 0,
      "note": 54,
      "start": 36.9254,
      "duration": 0.1257,
      "velocity": 81,
      "chip": "ym2612"
    },
    {
      "channel": 4,
      "note": 42,
      "start": 36.9293,
      "duration": 0.0386,
      "velocity": 125,
      "chip": "ym2612"
    },
    {
      "channel": 2,
      "note": 74,
      "start": 37.088,
      "duration": 0.28,
      "velocity": 81,
      "chip": "ym2612"
    },
    {
      "channel": 0,
      "note": 66,
      "start": 37.0914,
      "duration": 0.1263,
      "velocity": 81,
      "chip": "ym2612"
    },
    {
      "channel": 4,
      "note": 42,
      "start": 37.0951,
      "duration": 0.0396,
      "velocity": 125,
      "chip": "ym2612"
    },
    {
      "channel": 1,
      "note": 98,
      "start": 37.0983,
      "duration": 0.0362,
      "velocity": 127,
      "chip": "ym2612"
    },
    {
      "channel": 3,
      "note": 59,
      "start": 37.2541,
      "duration": 0.2471,
      "velocity": 103,
      "chip": "ym2612"
    },
    {
      "channel": 0,
      "note": 59,
      "start": 37.258,
      "duration": 0.1263,
      "velocity": 81,
      "chip": "ym2612"
    },
    {
      "channel": 4,
      "note": 42,
      "start": 37.2618,
      "duration": 0.0395,
      "velocity": 125,
      "chip": "ym2612"
    },
    {
      "channel": 1,
      "note": 98,
      "start": 37.2646,
      "duration": 0.0365,
      "velocity": 127,
      "chip": "ym2612"
    },
    {
      "channel": 2,
      "note": 71,
      "start": 37.3714,
      "duration": 0.3467,
      "velocity": 81,
      "chip": "ym2612"
    },
    {
      "channel": 0,
      "note": 71,
      "start": 37.4211,
      "duration": 0.13,
      "velocity": 81,
      "chip": "ym2612"
    },
    {
      "channel": 1,
      "note": 71,
      "start": 37.4261,
      "duration": 0.1585,
      "velocity": 116,
      "chip": "ym2612"
    },
    {
      "channel": 4,
      "note": 98,
      "start": 37.4308,
      "duration": 0.0372,
      "velocity": 127,
      "chip": "ym2612"
    },
    {
      "channel": 3,
      "note": 64,
      "start": 37.5878,
      "duration": 0.13,
      "velocity": 103,
      "chip": "ym2612"
    },
    {
      "channel": 0,
      "note": 59,
      "start": 37.5908,
      "duration": 0.127,
      "velocity": 81,
      "chip": "ym2612"
    },
    {
      "channel": 4,
      "note": 98,
      "start": 37.5949,
      "duration": 0.0397,
      "velocity": 127,
      "chip": "ym2612"
    },
    {
      "channel": 3,
      "note": 66,
      "start": 37.7542,
      "duration": 0.2469,
      "velocity": 103,
      "chip": "ym2612"
    },
    {
      "channel": 2,
      "note": 73,
      "start": 37.7578,
      "duration": 2.0268,
      "velocity": 81,
      "chip": "ym2612"
    },
    {
      "channel": 5,
      "note": 54,
      "start": 37.7611,
      "duration": 2.5569,
      "velocity": 81,
      "chip": "ym2612"
    },
    {
      "channel": 0,
      "note": 66,
      "start": 37.767,
      "duration": 0.1008,
      "velocity": 81,
      "chip": "ym2612"
    },
    {
      "channel": 1,
      "note": 42,
      "start": 37.7716,
      "duration": 0.0297,
      "velocity": 125,
      "chip": "ym2612"
    },
    {
      "channel": 4,
      "note": 98,
      "start": 37.7748,
      "duration": 0.0098,
      "velocity": 127,
      "chip": "ym2612"
    },
    {
      "channel": 0,
      "note": 73,
      "start": 37.9213,
      "duration": 0.1297,
      "velocity": 81,
      "chip": "ym2612"
    },
    {
      "channel": 0,
      "note": 75,
      "start": 38.0881,
      "duration": 0.1296,
      "velocity": 81,
      "chip": "ym2612"
    },
    {
      "channel": 4,
      "note": 71,
      "start": 38.0931,
      "duration": 0.1581,
      "velocity": 116,
      "chip": "ym2612"
    },
    {
      "channel": 1,
      "note": 98,
      "start": 38.0983,
      "duration": 0.0361,
      "velocity": 127,
      "chip": "ym2612"
    },
    {
      "channel": 3,
      "note": 66,
      "start": 38.2542,
      "duration": 0.147,
      "velocity": 103,
      "chip": "ym2612"
    },
    {
      "channel": 0,
      "note": 66,
      "start": 38.2576,
      "duration": 0.1434,
      "velocity": 81,
      "chip": "ym2612"
    },
    {
      "channel": 0,
      "note": 73,
      "start": 38.4217,
      "duration": 0.1459,
      "velocity": 81,
      "chip": "ym2612"
    },
    {
      "channel": 1,
      "note": 42,
      "start": 38.4256,
      "duration": 0.0588,
      "velocity": 125,
      "chip": "ym2612"
    },
    {
      "channel": 4,
      "note": 98,
      "start": 38.4289,
      "duration": 0.0223,
      "velocity": 127,
      "chip": "ym2612"
    },
    {
      "channel": 0,
      "note": 78,
      "start": 38.5877,
      "duration": 0.1466,
      "velocity": 81,
      "chip": "ym2612"
    },
    {
      "channel": 1,
      "note": 42,
      "start": 38.5915,
      "duration": 0.0597,
      "velocity": 125,
      "chip": "ym2612"
    },
    {
      "channel": 3,
      "note": 66,
      "start": 38.754,
      "duration": 0.2306,
      "velocity": 103,
      "chip": "ym2612"
    },
    {
      "channel": 0,
      "note": 66,
      "start": 38.7568,
      "duration": 0.1442,
      "velocity": 81,
      "chip": "ym2612"
    },
    {
      "channel": 4,
      "note": 71,
      "start": 38.7617,
      "duration": 0.1562,
      "velocity": 116,
      "chip": "ym2612"
    },
    {
      "channel": 1,
      "note": 98,
      "start": 38.7667,
      "duration": 0.0511,
      "velocity": 127,
      "chip": "ym2612"
    },
    {
      "channel": 0,
      "note": 76,
      "start": 38.9213,
      "duration": 0.1463,
      "velocity": 81,
      "chip": "ym2612"
    },
    {
      "channel": 1,
      "note": 98,
      "start": 38.9254,
      "duration": 0.0591,
      "velocity": 127,
      "chip": "ym2612"
    },
    {
      "channel": 0,
      "note": 66,
      "start": 39.0888,
      "duration": 0.1455,
      "velocity": 81,
      "chip": "ym2612"
    },
    {
      "channel": 4,
      "note": 42,
      "start": 39.0927,
      "duration": 0.0585,
      "velocity": 125,
      "chip": "ym2612"
    },
    {
      "channel": 1,
      "note": 98,
      "start": 39.0957,
      "duration": 0.0553,
      "velocity": 127,
      "chip": "ym2612"
    },
    {
      "channel": 3,
      "note": 66,
      "start": 39.254,
      "duration": 0.1972,
      "velocity": 103,
      "chip": "ym2612"
    },
    {
      "channel": 0,
      "note": 75,
      "start": 39.2569,
      "duration": 0.144,
      "velocity": 81,
      "chip": "ym2612"
    },
    {
      "channel": 0,
      "note": 66,
      "start": 39.421,
      "duration": 0.1468,
      "velocity": 81,
      "chip": "ym2612"
    },
    {
      "channel": 1,
      "note": 71,
      "start": 39.4258,
      "duration": 0.1586,
      "velocity": 116,
      "chip": "ym2612"
    },
    {
      "channel": 4,
      "note": 98,
      "start": 39.4305,
      "duration": 0.054,
      "velocity": 127,
      "chip": "ym2612"
    },
    {
      "channel": 0,
      "note": 73,
      "start": 39.5883,
      "duration": 0.1461,
      "velocity": 81,
      "chip": "ym2612"
    },
    {
      "channel": 3,
      "note": 66,
      "start": 39.7546,
      "duration": 0.1132,
      "velocity": 103,
      "chip": "ym2612"
    },
    {
      "channel": 0,
      "note": 82,
      "start": 39.7576,
      "duration": 0.1434,
      "velocity": 81,
      "chip": "ym2612"
    },
    {
      "channel": 4,
      "note": 42,
      "start": 39.7615,
      "duration": 0.0564,
      "velocity": 125,
      "chip": "ym2612"
    },
    {
      "channel": 1,
      "note": 98,
      "start": 39.7646,
      "duration": 0.0531,
      "velocity": 127,
      "chip": "ym2612"
    },
    {
      "channel": 3,
      "note": 73,
      "start": 39.9375,
      "duration": 0.1303,
      "velocity": 103,
      "chip": "ym2612"
    },
    {
      "channel": 2,
      "note": 70,
      "start": 39.9405,
      "duration": 0.0942,
      "velocity": 81,
      "chip": "ym2612"
    },
    {
      "channel": 0,
      "note": 66,
      "start": 39.9432,
      "duration": 0.1243,
      "velocity": 81,
      "chip": "ym2612"
    },
    {
      "channel": 4,
      "note": 42,
      "start": 39.9469,
      "duration": 0.0376,
      "velocity": 125,
      "chip": "ym2612"
    },
    {
      "channel": 1,
      "note": 98,
      "start": 39.9499,
      "duration": 0.0679,
      "velocity": 127,
      "chip": "ym2612"
    },
    {
      "channel": 3,
      "note": 75,
      "start": 40.1041,
      "duration": 0.1637,
      "velocity": 103,
      "chip": "ym2612"
    },
    {
      "channel": 2,
      "note": 73,
      "start": 40.1069,
      "duration": 0.1611,
      "velocity": 81,
      "chip": "ym2612"
    },
    {
      "channel": 0,
      "note": 80,
      "start": 40.1097,
      "duration": 0.1246,
      "velocity": 81,
      "chip": "ym2612"
    },
    {
      "channel": 4,
      "note": 71,
      "start": 40.1147,
      "duration": 0.1532,
      "velocity": 116,
      "chip": "ym2612"
    },
    {
      "channel": 1,
      "note": 98,
      "start": 40.1198,
      "duration": 0.0312,
      "velocity": 127,
      "chip": "ym2612"
    },
    {
      "channel": 3,
      "note": 73,
      "start": 40.271,
      "duration": 0.1302,
      "velocity": 103,
      "chip": "ym2612"
    },
    {
      "channel": 2,
      "note": 78,
      "start": 40.2741,
      "duration": 0.1273,
      "velocity": 81,
      "chip": "ym2612"
    },
    {
      "channel": 0,
      "note": 66,
      "start": 40.277,
      "duration": 0.0907,
      "velocity": 81,
      "chip": "ym2612"
    },
    {
      "channel": 1,
      "note": 98,
      "start": 40.2809,
      "duration": 0.0368,
      "velocity": 127,
      "chip": "ym2612"
    },
    {
      "channel": 3,
      "note": 66,
      "start": 40.4376,
      "duration": 0.1802,
      "velocity": 103,
      "chip": "ym2612"
    },
    {
      "channel": 2,
      "note": 82,
      "start": 40.4412,
      "duration": 1.2437,
      "velocity": 81,
      "chip": "ym2612"
    },
    {
      "channel": 5,
      "note": 54,
      "start": 40.4447,
      "duration": 1.2899,
      "velocity": 81,
      "chip": "ym2612"
    },
    {
      "channel": 0,
      "note": 78,
      "start": 40.4495,
      "duration": 0.085,
      "velocity": 81,
      "chip": "ym2612"
    },
    {
      "channel": 4,
      "note": 42,
      "start": 40.4534,
      "duration": 0.0312,
      "velocity": 125,
      "chip": "ym2612"
    },
    {
      "channel": 1,
      "note": 98,
      "start": 40.4565,
      "duration": 0.0045,
      "velocity": 127,
      "chip": "ym2612"
    },
    {
      "channel": 0,
      "note": 66,
      "start": 40.6046,
      "duration": 0.1297,
      "velocity": 81,
      "chip": "ym2612"
    },
    {
      "channel": 0,
      "note": 76,
      "start": 40.771,
      "duration": 0.13,
      "velocity": 81,
      "chip": "ym2612"
    },
    {
      "channel": 1,
      "note": 71,
      "start": 40.7759,
      "duration": 0.1585,
      "velocity": 116,
      "chip": "ym2612"
    },
    {
      "channel": 4,
      "note": 98,
      "start": 40.7806,
      "duration": 0.0039,
      "velocity": 127,
      "chip": "ym2612"
    },
    {
      "channel": 3,
      "note": 66,
      "start": 40.9374,
      "duration": 0.1804,
      "velocity": 103,
      "chip": "ym2612"
    },
    {
      "channel": 0,
      "note": 73,
      "start": 40.9408,
      "duration": 0.1268,
      "velocity": 81,
      "chip": "ym2612"
    },
    {
      "channel": 0,
      "note": 70,
      "start": 41.105,
      "duration": 0.1293,
      "velocity": 81,
      "chip": "ym2612"
    },
    {
      "channel": 4,
      "note": 42,
      "start": 41.1088,
      "duration": 0.0424,
      "velocity": 125,
      "chip": "ym2612"
    },
    {
      "channel": 1,
      "note": 98,
      "start": 41.1121,
      "duration": 0.0389,
      "velocity": 127,
      "chip": "ym2612"
    },
    {
      "channel": 0,
      "note": 64,
      "start": 41.2717,
      "duration": 0.1292,
      "velocity": 81,
      "chip": "ym2612"
    },
    {
      "channel": 4,
      "note": 42,
      "start": 41.2761,
      "duration": 0.0418,
      "velocity": 125,
      "chip": "ym2612"
    },
    {
      "channel": 1,
      "note": 98,
      "start": 41.2789,
      "duration": 0.0388,
      "velocity": 127,
      "chip": "ym2612"
    },
    {
      "channel": 3,
      "note": 66,
      "start": 41.4375,
      "duration": 0.247,
      "velocity": 103,
      "chip": "ym2612"
    },
    {
      "channel": 0,
      "note": 61,
      "start": 41.4404,
      "duration": 0.1272,
      "velocity": 81,
      "chip": "ym2612"
    },
    {
      "channel": 1,
      "note": 71,
      "start": 41.4451,
      "duration": 0.1559,
      "velocity": 116,
      "chip": "ym2612"
    },
    {
      "channel": 4,
      "note": 98,
      "start": 41.4499,
      "duration": 0.0347,
      "velocity": 127,
      "chip": "ym2612"
    },
    {
      "channel": 0,
      "note": 58,
      "start": 41.6046,
      "duration": 0.1297,
      "velocity": 81,
      "chip": "ym2612"
    },
    {
      "channel": 4,
      "note": 98,
      "start": 41.6089,
      "duration": 0.0758,
      "velocity": 127,
      "chip": "ym2612"
    },
    {
      "channel": 1,
      "note": 66,
      "start": 41.6894,
      "duration": 0.0283,
      "velocity": 88,
      "chip": "ym2612"
    },
    {
      "channel": 2,
      "note": 82,
      "start": 41.7712,
      "duration": 1.3135,
      "velocity": 81,
      "chip": "ym2612"
    },
    {
      "channel": 0,
      "note": 52,
      "start": 41.774,
      "duration": 0.1271,
      "velocity": 81,
      "chip": "ym2612"
    },
    {
      "channel": 3,
      "note": 42,
      "start": 41.7778,
      "duration": 0.0401,
      "velocity": 125,
      "chip": "ym2612"
    },
    {
      "channel": 1,
      "note": 58,
      "start": 41.7811,
      "duration": 1.3032,
      "velocity": 88,
      "chip": "ym2612"
    },
    {
      "channel": 0,
      "note": 54,
      "start": 41.9388,
      "duration": 0.0456,
      "velocity": 81,
      "chip": "ym2612"
    },
    {
      "channel": 3,
      "note": 42,
      "start": 41.9426,
      "duration": 0.042,
      "velocity": 125,
      "chip": "ym2612"
    },
    {
      "channel": 4,
      "note": 76,
      "start": 42.1047,
      "duration": 0.163,
      "velocity": 103,
      "chip": "ym2612"
    },
    {
      "channel": 0,
      "note": 54,
      "start": 42.1086,
      "duration": 0.0425,
      "velocity": 81,
      "chip": "ym2612"
    },
    {
      "channel": 5,
      "note": 71,
      "start": 42.1131,
      "duration": 0.1215,
      "velocity": 116,
      "chip": "ym2612"
    },
    {
      "channel": 4,
      "note": 78,
      "start": 42.2708,
      "duration": 0.1303,
      "velocity": 103,
      "chip": "ym2612"
    },
    {
      "channel": 0,
      "note": 54,
      "start": 42.2739,
      "duration": 0.0771,
      "velocity": 81,
      "chip": "ym2612"
    },
    {
      "channel": 3,
      "note": 42,
      "start": 42.2776,
      "duration": 0.0401,
      "velocity": 125,
      "chip": "ym2612"
    },
    {
      "channel": 4,
      "note": 73,
      "start": 42.4373,
      "duration": 0.1639,
      "velocity": 103,
      "chip": "ym2612"
    },
    {
      "channel": 0,
      "note": 52,
      "start": 42.441,
      "duration": 0.1268,
      "velocity": 81,
      "chip": "ym2612"
    },
    {
      "channel": 5,
      "note": 83,
      "start": 42.4465,
      "duration": 0.0381,
      "velocity": 115,
      "chip": "ym2612"
    },
    {
      "channel": 5,
      "note": 83,
      "start": 42.5564,
      "duration": 0.0782,
      "velocity": 115,
      "chip": "ym2612"
    },
    {
      "channel": 4,
      "note": 70,
      "start": 42.6042,
      "duration": 0.1637,
      "velocity": 103,
      "chip": "ym2612"
    },
    {
      "channel": 0,
      "note": 54,
      "start": 42.6078,
      "duration": 0.06,
      "velocity": 81,
      "chip": "ym2612"
    },
    {
      "channel": 5,
      "note": 83,
      "start": 42.6738,
      "duration": 0.0441,
      "velocity": 115,
      "chip": "ym2612"
    },
    {
      "channel": 4,
      "note": 68,
      "start": 42.7708,
      "duration": 0.1637,
      "velocity": 103,
      "chip": "ym2612"
    },
    {
      "channel": 0,
      "note": 54,
      "start": 42.774,
      "duration": 0.1438,
      "velocity": 81,
      "chip": "ym2612"
    },
    {
      "channel": 5,
      "note": 78,
      "start": 42.7793,
      "duration": 0.0554,
      "velocity": 115,
      "chip": "ym2612"
    },
    {
      "channel": 5,
      "note": 78,
      "start": 42.8902,
      "duration": 0.0777,
      "velocity": 115,
      "chip": "ym2612"
    },
    {
      "channel": 4,
      "note": 66,
      "start": 42.9374,
      "duration": 0.1637,
      "velocity": 103,
      "chip": "ym2612"
    },
    {
      "channel": 5,
      "note": 78,
      "start": 43.0072,
      "duration": 0.0774,
      "velocity": 115,
      "chip": "ym2612"
    },
    {
      "channel": 4,
      "note": 62,
      "start": 43.1055,
      "duration": 0.6459,
      "velocity": 103,
      "chip": "ym2612"
    },
    {
      "channel": 3,
      "note": 69,
      "start": 43.1109,
      "duration": 0.5737,
      "velocity": 81,
      "chip": "ym2612"
    },
    {
      "channel": 0,
      "note": 62,
      "start": 43.1157,
      "duration": 0.5688,
      "velocity": 81,
      "chip": "ym2612"
    },
    {
      "channel": 1,
      "note": 74,
      "start": 43.1232,
      "duration": 0.4779,
      "velocity": 81,
      "chip": "ym2612"
    },
    {
      "channel": 5,
      "note": 42,
      "start": 43.1301,
      "duration": 0.0379,
      "velocity": 125,
      "chip": "ym2612"
    },
    {
      "channel": 2,
      "note": 58,
      "start": 43.1402,
      "duration": 0.9444,
      "velocity": 88,
      "chip": "ym2612"
    },
    {
      "channel": 5,
      "note": 71,
      "start": 43.4398,
      "duration": 0.1615,
      "velocity": 116,
      "chip": "ym2612"
    },
    {
      "channel": 4,
      "note": 57,
      "start": 43.771,
      "duration": 0.0803,
      "velocity": 103,
      "chip": "ym2612"
    },
    {
      "channel": 3,
      "note": 64,
      "start": 43.774,
      "duration": 0.0772,
      "velocity": 81,
      "chip": "ym2612"
    },
    {
      "channel": 0,
      "note": 57,
      "start": 43.7768,
      "duration": 0.1076,
      "velocity": 81,
      "chip": "ym2612"
    },
    {
      "channel": 1,
      "note": 73,
      "start": 43.7808,
      "duration": 0.0536,
      "velocity": 81,
      "chip": "ym2612"
    },
    {
      "channel": 5,
      "note": 42,
      "start": 43.7849,
      "duration": 0.0498,
      "velocity": 125,
      "chip": "ym2612"
    },
    {
      "channel": 4,
      "note": 57,
      "start": 43.9376,
      "duration": 0.1469,
      "velocity": 103,
      "chip": "ym2612"
    },
    {
      "channel": 3,
      "note": 64,
      "start": 43.9406,
      "duration": 0.1939,
      "velocity": 81,
      "chip": "ym2612"
    },
    {
      "channel": 0,
      "note": 57,
      "start": 43.9433,
      "duration": 0.1743,
      "velocity": 81,
      "chip": "ym2612"
    },
    {
      "channel": 1,
      "note": 73,
      "start": 43.9473,
      "duration": 0.137,
      "velocity": 81,
      "chip": "ym2612"
    },
    {
      "channel": 5,
      "note": 42,
      "start": 43.9513,
      "duration": 0.05,
      "velocity": 125,
      "chip": "ym2612"
    },
    {
      "channel": 5,
      "note": 71,
      "start": 44.1228,
      "duration": 0.1618,
      "velocity": 116,
      "chip": "ym2612"
    },
    {
      "channel": 1,
      "note": 98,
      "start": 44.1278,
      "duration": 0.04,
      "velocity": 127,
      "chip": "ym2612"
    },
    {
      "channel": 4,
      "note": 64,
      "start": 44.2876,
      "duration": 0.1801,
      "velocity": 103,
      "chip": "ym2612"
    },
    {
      "channel": 3,
      "note": 71,
      "start": 44.2906,
      "duration": 1.2105,
      "velocity": 81,
      "chip": "ym2612"
    },
    {
      "channel": 0,
      "note": 52,
      "start": 44.2938,
      "duration": 1.2406,
      "velocity": 81,
      "chip": "ym2612"
    },
    {
      "channel": 2,
      "note": 76,
      "start": 44.2979,
      "duration": 0.2034,
      "velocity": 81,
      "chip": "ym2612"
    },
    {
      "channel": 1,
      "note": 42,
      "start": 44.4549,
      "duration": 0.0461,
      "velocity": 125,
      "chip": "ym2612"
    },
    {
      "channel": 5,
      "note": 98,
      "start": 44.4581,
      "duration": 0.0764,
      "velocity": 127,
      "chip": "ym2612"
    },
    {
      "channel": 2,
      "note": 59,
      "start": 44.6232,
      "duration": 0.0948,
      "velocity": 81,
      "chip": "ym2612"
    },
    {
      "channel": 4,
      "note": 64,
      "start": 44.788,
      "duration": 0.1298,
      "velocity": 103,
      "chip": "ym2612"
    },
    {
      "channel": 2,
      "note": 61,
      "start": 44.7914,
      "duration": 0.1266,
      "velocity": 81,
      "chip": "ym2612"
    },
    {
      "channel": 1,
      "note": 71,
      "start": 44.7969,
      "duration": 0.1543,
      "velocity": 116,
      "chip": "ym2612"
    },
    {
      "channel": 5,
      "note": 98,
      "start": 44.8017,
      "duration": 0.0328,
      "velocity": 127,
      "chip": "ym2612"
    },
    {
      "channel": 4,
      "note": 64,
      "start": 45.1207,
      "duration": 0.0971,
      "velocity": 103,
      "chip": "ym2612"
    },
    {
      "channel": 2,
      "note": 59,
      "start": 45.124,
      "duration": 0.2439,
      "velocity": 81,
      "chip": "ym2612"
    },
    {
      "channel": 5,
      "note": 42,
      "start": 45.128,
      "duration": 0.04,
      "velocity": 125,
      "chip": "ym2612"
    },
    {
      "channel": 1,
      "note": 98,
      "start": 45.1312,
      "duration": 0.0699,
      "velocity": 127,
      "chip": "ym2612"
    },
    {
      "channel": 5,
      "note": 42,
      "start": 45.2883,
      "duration": 0.0795,
      "velocity": 125,
      "chip": "ym2612"
    },
    {
      "channel": 4,
      "note": 64,
      "start": 45.454,
      "duration": 0.3304,
      "velocity": 103,
      "chip": "ym2612"
    },
    {
      "channel": 2,
      "note": 61,
      "start": 45.4573,
      "duration": 0.2107,
      "velocity": 81,
      "chip": "ym2612"
    },
    {
      "channel": 1,
      "note": 71,
      "start": 45.4623,
      "duration": 0.1555,
      "velocity": 116,
      "chip": "ym2612"
    },
    {
      "channel": 5,
      "note": 98,
      "start": 45.467,
      "duration": 0.0677,
      "velocity": 127,
      "chip": "ym2612"
    },
    {
      "channel": 3,
      "note": 42,
      "start": 45.6223,
      "duration": 0.0454,
      "velocity": 125,
      "chip": "ym2612"
    },
    {
      "channel": 4,
      "note": 62,
      "start": 45.7875,
      "duration": 0.1303,
      "velocity": 103,
      "chip": "ym2612"
    },
    {
      "channel": 0,
      "note": 69,
      "start": 45.791,
      "duration": 0.1266,
      "velocity": 81,
      "chip": "ym2612"
    },
    {
      "channel": 5,
      "note": 62,
      "start": 45.794,
      "duration": 0.1572,
      "velocity": 81,
      "chip": "ym2612"
    },
    {
      "channel": 2,
      "note": 74,
      "start": 45.8002,
      "duration": 0.1177,
      "velocity": 81,
      "chip": "ym2612"
    },
    {
      "channel": 3,
      "note": 42,
      "start": 45.8041,
      "duration": 0.0305,
      "velocity": 125,
      "chip": "ym2612"
    },
    {
      "channel": 1,
      "note": 98,
      "start": 45.8072,
      "duration": 0.0272,
      "velocity": 127,
      "chip": "ym2612"
    },
    {
      "channel": 4,
      "note": 62,
      "start": 46.1207,
      "duration": 0.164,
      "velocity": 103,
      "chip": "ym2612"
    },
    {
      "channel": 0,
      "note": 69,
      "start": 46.1233,
      "duration": 0.1277,
      "velocity": 81,
      "chip": "ym2612"
    },
    {
      "channel": 5,
      "note": 62,
      "start": 46.126,
      "duration": 0.1253,
      "velocity": 81,
      "chip": "ym2612"
    },
    {
      "channel": 2,
      "note": 74,
      "start": 46.1296,
      "duration": 0.1218,
      "velocity": 81,
      "chip": "ym2612"
    },
    {
      "channel": 1,
      "note": 71,
      "start": 46.1345,
      "duration": 0.15,
      "velocity": 116,
      "chip": "ym2612"
    },
    {
      "channel": 3,
      "note": 98,
      "start": 46.1392,
      "duration": 0.0286,
      "velocity": 127,
      "chip": "ym2612"
    },
    {
      "channel": 4,
      "note": 57,
      "start": 46.4542,
      "duration": 0.0805,
      "velocity": 103,
      "chip": "ym2612"
    },
    {
      "channel": 0,
      "note": 64,
      "start": 46.4571,
      "duration": 0.0773,
      "velocity": 81,
      "chip": "ym2612"
    },
    {
      "channel": 5,
      "note": 57,
      "start": 46.46,
      "duration": 0.0749,
      "velocity": 81,
      "chip": "ym2612"
    },
    {
      "channel": 2,
      "note": 73,
      "start": 46.4643,
      "duration": 0.0371,
      "velocity": 81,
      "chip": "ym2612"
    },
    {
      "channel": 3,
      "note": 42,
      "start": 46.4684,
      "duration": 0.0327,
      "velocity": 125,
      "chip": "ym2612"
    },
    {
      "channel": 1,
      "note": 98,
      "start": 46.472,
      "duration": 0.0626,
      "velocity": 127,
      "chip": "ym2612"
    },
    {
      "channel": 4,
      "note": 57,
      "start": 46.621,
      "duration": 0.1302,
      "velocity": 103,
      "chip": "ym2612"
    },
    {
      "channel": 0,
      "note": 64,
      "start": 46.6239,
      "duration": 0.1605,
      "velocity": 81,
      "chip": "ym2612"
    },
    {
      "channel": 5,
      "note": 57,
      "start": 46.6268,
      "duration": 0.1578,
      "velocity": 81,
      "chip": "ym2612"
    },
    {
      "channel": 2,
      "note": 73,
      "start": 46.631,
      "duration": 0.1203,
      "velocity": 81,
      "chip": "ym2612"
    },
    {
      "channel": 3,
      "note": 42,
      "start": 46.635,
      "duration": 0.0329,
      "velocity": 125,
      "chip": "ym2612"
    },
    {
      "channel": 1,
      "note": 71,
      "start": 46.7895,
      "duration": 0.1615,
      "velocity": 116,
      "chip": "ym2612"
    },
    {
      "channel": 3,
      "note": 98,
      "start": 46.7943,
      "duration": 0.0735,
      "velocity": 127,
      "chip": "ym2612"
    },
    {
      "channel": 4,
      "note": 64,
      "start": 46.9546,
      "duration": 0.1632,
      "velocity": 103,
      "chip": "ym2612"
    },
    {
      "channel": 0,
      "note": 71,
      "start": 46.9574,
      "duration": 1.227,
      "velocity": 81,
      "chip": "ym2612"
    },
    {
      "channel": 5,
      "note": 52,
      "start": 46.9604,
      "duration": 1.2409,
      "velocity": 81,
      "chip": "ym2612"
    },
    {
      "channel": 2,
      "note": 76,
      "start": 46.9644,
      "duration": 0.2369,
      "velocity": 81,
      "chip": "ym2612"
    },
    {
      "channel": 3,
      "note": 42,
      "start": 47.1217,
      "duration": 0.0626,
      "velocity": 125,
      "chip": "ym2612"
    },
    {
      "channel": 1,
      "note": 98,
      "start": 47.1248,
      "duration": 0.0762,
      "velocity": 127,
      "chip": "ym2612"
    },
    {
      "channel": 4,
      "note": 64,
      "start": 47.2876,
      "duration": 0.1136,
      "velocity": 103,
      "chip": "ym2612"
    },
    {
      "channel": 2,
      "note": 59,
      "start": 47.2927,
      "duration": 0.1086,
      "velocity": 81,
      "chip": "ym2612"
    },
    {
      "channel": 3,
      "note": 42,
      "start": 47.2966,
      "duration": 0.0544,
      "velocity": 125,
      "chip": "ym2612"
    },
    {
      "channel": 4,
      "note": 66,
      "start": 47.4542,
      "duration": 0.1469,
      "velocity": 103,
      "chip": "ym2612"
    },
    {
      "channel": 2,
      "note": 61,
      "start": 47.4577,
      "duration": 0.1436,
      "velocity": 81,
      "chip": "ym2612"
    },
    {
      "channel": 1,
      "note": 71,
      "start": 47.4628,
      "duration": 0.155,
      "velocity": 116,
      "chip": "ym2612"
    },
    {
      "channel": 3,
      "note": 98,
      "start": 47.4677,
      "duration": 0.0502,
      "velocity": 127,
      "chip": "ym2612"
    },
    {
      "channel": 3,
      "note": 42,
      "start": 47.6218,
      "duration": 0.0626,
      "velocity": 125,
      "chip": "ym2612"
    },
    {
      "channel": 4,
      "note": 68,
      "start": 47.7874,
      "duration": 0.3304,
      "velocity": 103,
      "chip": "ym2612"
    },
    {
      "channel": 2,
      "note": 59,
      "start": 47.7907,
      "duration": 0.2439,
      "velocity": 81,
      "chip": "ym2612"
    },
    {
      "channel": 3,
      "note": 42,
      "start": 47.7943,
      "duration": 0.0568,
      "velocity": 125,
      "chip": "ym2612"
    },
    {
      "channel": 1,
      "note": 98,
      "start": 47.7975,
      "duration": 0.0535,
      "velocity": 127,
      "chip": "ym2612"
    },
    {
      "channel": 3,
      "note": 42,
      "start": 47.9553,
      "duration": 0.0791,
      "velocity": 125,
      "chip": "ym2612"
    },
    {
      "channel": 1,
      "note": 98,
      "start": 47.9581,
      "duration": 0.0595,
      "velocity": 127,
      "chip": "ym2612"
    },
    {
      "channel": 4,
      "note": 66,
      "start": 48.121,
      "duration": 0.1637,
      "velocity": 103,
      "chip": "ym2612"
    },
    {
      "channel": 2,
      "note": 61,
      "start": 48.1243,
      "duration": 0.227,
      "velocity": 81,
      "chip": "ym2612"
    },
    {
      "channel": 1,
      "note": 71,
      "start": 48.1292,
      "duration": 0.1553,
      "velocity": 116,
      "chip": "ym2612"
    },
    {
      "channel": 3,
      "note": 98,
      "start": 48.1341,
      "duration": 0.0505,
      "velocity": 127,
      "chip": "ym2612"
    },
    {
      "channel": 4,
      "note": 64,
      "start": 48.2876,
      "duration": 0.1135,
      "velocity": 103,
      "chip": "ym2612"
    },
    {
      "channel": 4,
      "note": 62,
      "start": 48.4713,
      "duration": 0.6298,
      "velocity": 103,
      "chip": "ym2612"
    },
    {
      "channel": 0,
      "note": 69,
      "start": 48.4742,
      "duration": 0.5767,
      "velocity": 81,
      "chip": "ym2612"
    },
    {
      "channel": 5,
      "note": 62,
      "start": 48.4775,
      "duration": 0.5737,
      "velocity": 81,
      "chip": "ym2612"
    },
    {
      "channel": 2,
      "note": 74,
      "start": 48.4829,
      "duration": 0.4516,
      "velocity": 81,
      "chip": "ym2612"
    },
    {
      "channel": 3,
      "note": 42,
      "start": 48.4873,
      "duration": 0.0307,
      "velocity": 125,
      "chip": "ym2612"
    },
    {
      "channel": 1,
      "note": 98,
      "start": 48.4903,
      "duration": 0.0275,
      "velocity": 127,
      "chip": "ym2612"
    },
    {
      "channel": 1,
      "note": 71,
      "start": 48.8059,
      "duration": 0.1619,
      "velocity": 116,
      "chip": "ym2612"
    },
    {
      "channel": 3,
      "note": 98,
      "start": 48.8106,
      "duration": 0.0405,
      "velocity": 127,
      "chip": "ym2612"
    },
    {
      "channel": 4,
      "note": 57,
      "start": 49.1376,
      "duration": 0.0804,
      "velocity": 103,
      "chip": "ym2612"
    },
    {
      "channel": 0,
      "note": 64,
      "start": 49.1408,
      "duration": 0.077,
      "velocity": 81,
      "chip": "ym2612"
    },
    {
      "channel": 5,
      "note": 57,
      "start": 49.1438,
      "duration": 0.0909,
      "velocity": 81,
      "chip": "ym2612"
    },
    {
      "channel": 2,
      "note": 73,
      "start": 49.1488,
      "duration": 0.0361,
      "velocity": 81,
      "chip": "ym2612"
    },
    {
      "channel": 3,
      "note": 42,
      "start": 49.1534,
      "duration": 0.0312,
      "velocity": 125,
      "chip": "ym2612"
    },
    {
      "channel": 1,
      "note": 98,
      "start": 49.1564,
      "duration": 0.028,
      "velocity": 127,
      "chip": "ym2612"
    },
    {
      "channel": 4,
      "note": 57,
      "start": 49.3042,
      "duration": 0.1302,
      "velocity": 103,
      "chip": "ym2612"
    },
    {
      "channel": 0,
      "note": 64,
      "start": 49.3071,
      "duration": 0.1605,
      "velocity": 81,
      "chip": "ym2612"
    },
    {
      "channel": 5,
      "note": 57,
      "start": 49.31,
      "duration": 0.1578,
      "velocity": 81,
      "chip": "ym2612"
    },
    {
      "channel": 2,
      "note": 73,
      "start": 49.3142,
      "duration": 0.1204,
      "velocity": 81,
      "chip": "ym2612"
    },
    {
      "channel": 3,
      "note": 42,
      "start": 49.3183,
      "duration": 0.0329,
      "velocity": 125,
      "chip": "ym2612"
    },
    {
      "channel": 1,
      "note": 71,
      "start": 49.4729,
      "duration": 0.1615,
      "velocity": 116,
      "chip": "ym2612"
    },
    {
      "channel": 3,
      "note": 98,
      "start": 49.4778,
      "duration": 0.0734,
      "velocity": 127,
      "chip": "ym2612"
    },
    {
      "channel": 4,
      "note": 64,
      "start": 49.6375,
      "duration": 0.1637,
      "velocity": 103,
      "chip": "ym2612"
    },
    {
      "channel": 0,
      "note": 71,
      "start": 49.6404,
      "duration": 1.2106,
      "velocity": 81,
      "chip": "ym2612"
    },
    {
      "channel": 5,
      "note": 52,
      "start": 49.6433,
      "duration": 1.2414,
      "velocity": 81,
      "chip": "ym2612"
    },
    {
      "channel": 2,
      "note": 76,
      "start": 49.6474,
      "duration": 0.1872,
      "velocity": 81,
      "chip": "ym2612"
    },
    {
      "channel": 3,
      "note": 42,
      "start": 49.8051,
      "duration": 0.0461,
      "velocity": 125,
      "chip": "ym2612"
    },
    {
      "channel": 1,
      "note": 98,
      "start": 49.8087,
      "duration": 0.0424,
      "velocity": 127,
      "chip": "ym2612"
    },
    {
      "channel": 4,
      "note": 64,
      "start": 49.9709,
      "duration": 0.1136,
      "velocity": 103,
      "chip": "ym2612"
    },
    {
      "channel": 2,
      "note": 59,
      "start": 49.9756,
      "duration": 0.1091,
      "velocity": 81,
      "chip": "ym2612"
    },
    {
      "channel": 4,
      "note": 66,
      "start": 50.1376,
      "duration": 0.197,
      "velocity": 103,
      "chip": "ym2612"
    },
    {
      "channel": 2,
      "note": 61,
      "start": 50.141,
      "duration": 0.1269,
      "velocity": 81,
      "chip": "ym2612"
    },
    {
      "channel": 1,
      "note": 71,
      "start": 50.1461,
      "duration": 0.155,
      "velocity": 116,
      "chip": "ym2612"
    },
    {
      "channel": 3,
      "note": 98,
      "start": 50.1509,
      "duration": 0.0335,
      "velocity": 127,
      "chip": "ym2612"
    },
    {
      "channel": 4,
      "note": 64,
      "start": 50.4713,
      "duration": 0.6132,
      "velocity": 103,
      "chip": "ym2612"
    },
    {
      "channel": 2,
      "note": 59,
      "start": 50.4751,
      "duration": 0.2429,
      "velocity": 81,
      "chip": "ym2612"
    },
    {
      "channel": 3,
      "note": 42,
      "start": 50.479,
      "duration": 0.0389,
      "velocity": 125,
      "chip": "ym2612"
    },
    {
      "channel": 1,
      "note": 98,
      "start": 50.482,
      "duration": 0.0357,
      "velocity": 127,
      "chip": "ym2612"
    },
    {
      "channel": 3,
      "note": 42,
      "start": 50.6387,
      "duration": 0.0791,
      "velocity": 125,
      "chip": "ym2612"
    },
    {
      "channel": 2,
      "note": 61,
      "start": 50.8047,
      "duration": 0.28,
      "velocity": 81,
      "chip": "ym2612"
    },
    {
      "channel": 1,
      "note": 71,
      "start": 50.81,
      "duration": 0.1578,
      "velocity": 116,
      "chip": "ym2612"
    },
    {
      "channel": 3,
      "note": 98,
      "start": 50.815,
      "duration": 0.0695,
      "velocity": 127,
      "chip": "ym2612"
    },
    {
      "channel": 4,
      "note": 62,
      "start": 51.1376,
      "duration": 0.147,
      "velocity": 103,
      "chip": "ym2612"
    },
    {
      "channel": 0,
      "note": 69,
      "start": 51.1405,
      "duration": 0.0772,
      "velocity": 81,
      "chip": "ym2612"
    },
    {
      "channel": 5,
      "note": 62,
      "start": 51.1434,
      "duration": 0.0746,
      "velocity": 81,
      "chip": "ym2612"
    },
    {
      "channel": 2,
      "note": 74,
      "start": 51.1488,
      "duration": 0.1025,
      "velocity": 81,
      "chip": "ym2612"
    },
    {
      "channel": 3,
      "note": 42,
      "start": 51.153,
      "duration": 0.0482,
      "velocity": 125,
      "chip": "ym2612"
    },
    {
      "channel": 1,
      "note": 58,
      "start": 51.1564,
      "duration": 0.2948,
      "velocity": 88,
      "chip": "ym2612"
    },
    {
      "channel": 4,
      "note": 59,
      "start": 51.4712,
      "duration": 2.1468,
      "velocity": 103,
      "chip": "ym2612"
    },
    {
      "channel": 0,
      "note": 66,
      "start": 51.4744,
      "duration": 2.26,
      "velocity": 81,
      "chip": "ym2612"
    },
    {
      "channel": 5,
      "note": 59,
      "start": 51.478,
      "duration": 2.2733,
      "velocity": 81,
      "chip": "ym2612"
    },
    {
      "channel": 2,
      "note": 71,
      "start": 51.4828,
      "duration": 2.1017,
      "velocity": 81,
      "chip": "ym2612"
    },
    {
      "channel": 3,
      "note": 71,
      "start": 51.4883,
      "duration": 0.1461,
      "velocity": 116,
      "chip": "ym2612"
    },
    {
      "channel": 1,
      "note": 66,
      "start": 51.4934,
      "duration": 0.9576,
      "velocity": 88,
      "chip": "ym2612"
    },
    {
      "channel": 3,
      "note": 42,
      "start": 51.8052,
      "duration": 0.0792,
      "velocity": 125,
      "chip": "ym2612"
    },
    {
      "channel": 3,
      "note": 42,
      "start": 51.9717,
      "duration": 0.0627,
      "velocity": 125,
      "chip": "ym2612"
    },
    {
      "channel": 3,
      "note": 71,
      "start": 52.1392,
      "duration": 0.1618,
      "velocity": 116,
      "chip": "ym2612"
    },
    {
      "channel": 3,
      "note": 42,
      "start": 52.4717,
      "duration": 0.0628,
      "velocity": 125,
      "chip": "ym2612"
    },
    {
      "channel": 1,
      "note": 98,
      "start": 52.475,
      "duration": 0.0593,
      "velocity": 127,
      "chip": "ym2612"
    },
    {
      "channel": 1,
      "note": 83,
      "start": 52.6566,
      "duration": 0.1278,
      "velocity": 115,
      "chip": "ym2612"
    },
    {
      "channel": 3,
      "note": 98,
      "start": 52.8222,
      "duration": 0.0123,
      "velocity": 127,
      "chip": "ym2612"
    },
    {
      "channel": 1,
      "note": 83,
      "start": 52.8256,
      "duration": 0.1254,
      "velocity": 115,
      "chip": "ym2612"
    },
    {
      "channel": 1,
      "note": 83,
      "start": 52.9894,
      "duration": 0.1283,
      "velocity": 115,
      "chip": "ym2612"
    },
    {
      "channel": 3,
      "note": 98,
      "start": 53.1555,
      "duration": 0.0456,
      "velocity": 127,
      "chip": "ym2612"
    },
    {
      "channel": 1,
      "note": 78,
      "start": 53.159,
      "duration": 0.1254,
      "velocity": 115,
      "chip": "ym2612"
    },
    {
      "channel": 3,
      "note": 98,
      "start": 53.3219,
      "duration": 0.0459,
      "velocity": 127,
      "chip": "ym2612"
    },
    {
      "channel": 1,
      "note": 78,
      "start": 53.3253,
      "duration": 0.1257,
      "velocity": 115,
      "chip": "ym2612"
    },
    {
      "channel": 3,
      "note": 98,
      "start": 53.4885,
      "duration": 0.0459,
      "velocity": 127,
      "chip": "ym2612"
    },
    {
      "channel": 1,
      "note": 73,
      "start": 53.4922,
      "duration": 0.1255,
      "velocity": 115,
      "chip": "ym2612"
    },
    {
      "channel": 3,
      "note": 98,
      "start": 53.6559,
      "duration": 0.0786,
      "velocity": 127,
      "chip": "ym2612"
    }
  ]
}