{
  "track_name": "14 - Melvyl & Dark Sol",
  "duration_sec": 28.708,
  "sample_rate": 44100,
  "note_count": 141,
  "unique_pitches": 16,
  "pitch_range": 54,
  "avg_note_duration": 0.9949,
  "reconstruction_stats": {
    "notes_reconstructed": 141,
    "keyon_events": 141,
    "keyoff_events": 136,
    "orphan_keyons": 1,
    "unique_pitches": 16,
    "pitch_range": 54,
    "avg_duration_sec": 0.9949
  },
  "metadata": {
    "source": "S\\Shining in the Darkness\\14 - Melvyl & Dark Sol.vgz"
  },
  "notes": [
    {
      "channel": 0,
      "note": 95,
      "start": 0.0467,
      "duration": 0.6492,
      "velocity": 99,
      "chip": "ym2612"
    },
    {
      "channel": 1,
      "note": 87,
      "start": 0.0507,
      "duration": 0.6456,
      "velocity": 99,
      "chip": "ym2612"
    },
    {
      "channel": 4,
      "note": 48,
      "start": 0.0575,
      "duration": 2.6548,
      "velocity": 102,
      "chip": "ym2612"
    },
    {
      "channel": 2,
      "note": 95,
      "start": 0.0859,
      "duration": 0.6477,
      "velocity": 99,
      "chip": "ym2612"
    },
    {
      "channel": 3,
      "note": 66,
      "start": 0.0916,
      "duration": 0.6423,
      "velocity": 99,
      "chip": "ym2612"
    },
    {
      "channel": 0,
      "note": 92,
      "start": 0.7148,
      "duration": 0.205,
      "velocity": 99,
      "chip": "ym2612"
    },
    {
      "channel": 1,
      "note": 83,
      "start": 0.7153,
      "duration": 0.2048,
      "velocity": 99,
      "chip": "ym2612"
    },
    {
      "channel": 2,
      "note": 92,
      "start": 0.7524,
      "duration": 0.2051,
      "velocity": 99,
      "chip": "ym2612"
    },
    {
      "channel": 3,
      "note": 87,
      "start": 0.7531,
      "duration": 0.2048,
      "velocity": 99,
      "chip": "ym2612"
    },
    {
      "channel": 0,
      "note": 92,
      "start": 0.9386,
      "duration": 0.8768,
      "velocity": 99,
      "chip": "ym2612"
    },
    {
      "channel": 1,
      "note": 83,
      "start": 0.9392,
      "duration": 0.8765,
      "velocity": 99,
      "chip": "ym2612"
    },
    {
      "channel": 2,
      "note": 92,
      "start": 0.9765,
      "duration": 0.8767,
      "velocity": 99,
      "chip": "ym2612"
    },
    {
      "channel": 3,
      "note": 83,
      "start": 0.9771,
      "duration": 0.8764,
      "velocity": 99,
      "chip": "ym2612"
    },
    {
      "channel": 0,
      "note": 95,
      "start": 1.8344,
      "duration": 0.8767,
      "velocity": 99,
      "chip": "ym2612"
    },
    {
      "channel": 1,
      "note": 87,
      "start": 1.8349,
      "duration": 0.8765,
      "velocity": 99,
      "chip": "ym2612"
    },
    {
      "channel": 2,
      "note": 95,
      "start": 1.872,
      "duration": 0.8769,
      "velocity": 99,
      "chip": "ym2612"
    },
    {
      "channel": 3,
      "note": 83,
      "start": 1.8726,
      "duration": 0.8767,
      "velocity": 99,
      "chip": "ym2612"
    },
    {
      "channel": 0,
      "note": 94,
      "start": 2.7299,
      "duration": 0.6529,
      "velocity": 99,
      "chip": "ym2612"
    },
    {
      "channel": 1,
      "note": 86,
      "start": 2.7305,
      "duration": 0.6527,
      "velocity": 99,
      "chip": "ym2612"
    },
    {
      "channel": 4,
      "note": 44,
      "start": 2.7318,
      "duration": 2.6871,
      "velocity": 102,
      "chip": "ym2612"
    },
    {
      "channel": 2,
      "note": 94,
      "start": 2.7677,
      "duration": 0.6529,
      "velocity": 99,
      "chip": "ym2612"
    },
    {
      "channel": 3,
      "note": 87,
      "start": 2.7683,
      "duration": 0.6526,
      "velocity": 99,
      "chip": "ym2612"
    },
    {
      "channel": 0,
      "note": 89,
      "start": 3.4017,
      "duration": 0.205,
      "velocity": 99,
      "chip": "ym2612"
    },
    {
      "channel": 1,
      "note": 82,
      "start": 3.4023,
      "duration": 0.2048,
      "velocity": 99,
      "chip": "ym2612"
    },
    {
      "channel": 2,
      "note": 89,
      "start": 3.4394,
      "duration": 0.2051,
      "velocity": 99,
      "chip": "ym2612"
    },
    {
      "channel": 3,
      "note": 86,
      "start": 3.44,
      "duration": 0.2048,
      "velocity": 99,
      "chip": "ym2612"
    },
    {
      "channel": 0,
      "note": 89,
      "start": 3.6255,
      "duration": 3.5636,
      "velocity": 99,
      "chip": "ym2612"
    },
    {
      "channel": 1,
      "note": 82,
      "start": 3.6261,
      "duration": 3.5634,
      "velocity": 99,
      "chip": "ym2612"
    },
    {
      "channel": 2,
      "note": 89,
      "start": 3.6633,
      "duration": 0.8395,
      "velocity": 99,
      "chip": "ym2612"
    },
    {
      "channel": 3,
      "note": 82,
      "start": 3.6639,
      "duration": 0.8393,
      "velocity": 99,
      "chip": "ym2612"
    },
    {
      "channel": 2,
      "note": 74,
      "start": 4.5253,
      "duration": 0.8732,
      "velocity": 99,
      "chip": "ym2612"
    },
    {
      "channel": 3,
      "note": 82,
      "start": 4.5333,
      "duration": 0.8655,
      "velocity": 99,
      "chip": "ym2612"
    },
    {
      "channel": 2,
      "note": 77,
      "start": 5.4173,
      "duration": 1.3246,
      "velocity": 99,
      "chip": "ym2612"
    },
    {
      "channel": 3,
      "note": 70,
      "start": 5.418,
      "duration": 1.3243,
      "velocity": 99,
      "chip": "ym2612"
    },
    {
      "channel": 4,
      "note": 44,
      "start": 5.4189,
      "duration": 1.7716,
      "velocity": 102,
      "chip": "ym2612"
    },
    {
      "channel": 2,
      "note": 74,
      "start": 6.7609,
      "duration": 0.4289,
      "velocity": 99,
      "chip": "ym2612"
    },
    {
      "channel": 3,
      "note": 74,
      "start": 6.7615,
      "duration": 0.4286,
      "velocity": 99,
      "chip": "ym2612"
    },
    {
      "channel": 0,
      "note": 95,
      "start": 7.2081,
      "duration": 0.653,
      "velocity": 99,
      "chip": "ym2612"
    },
    {
      "channel": 1,
      "note": 87,
      "start": 7.2087,
      "duration": 0.6527,
      "velocity": 99,
      "chip": "ym2612"
    },
    {
      "channel": 4,
      "note": 44,
      "start": 7.2152,
      "duration": 2.6623,
      "velocity": 102,
      "chip": "ym2612"
    },
    {
      "channel": 2,
      "note": 95,
      "start": 7.2476,
      "duration": 0.6512,
      "velocity": 99,
      "chip": "ym2612"
    },
    {
      "channel": 3,
      "note": 70,
      "start": 7.2508,
      "duration": 0.6483,
      "velocity": 99,
      "chip": "ym2612"
    },
    {
      "channel": 0,
      "note": 92,
      "start": 7.8798,
      "duration": 0.2052,
      "velocity": 99,
      "chip": "ym2612"
    },
    {
      "channel": 1,
      "note": 83,
      "start": 7.8803,
      "duration": 0.205,
      "velocity": 99,
      "chip": "ym2612"
    },
    {
      "channel": 2,
      "note": 92,
      "start": 7.9176,
      "duration": 0.2051,
      "velocity": 99,
      "chip": "ym2612"
    },
    {
      "channel": 3,
      "note": 87,
      "start": 7.9182,
      "duration": 0.2048,
      "velocity": 99,
      "chip": "ym2612"
    },
    {
      "channel": 0,
      "note": 92,
      "start": 8.1038,
      "duration": 0.8766,
      "velocity": 99,
      "chip": "ym2612"
    },
    {
      "channel": 1,
      "note": 83,
      "start": 8.1044,
      "duration": 0.8764,
      "velocity": 99,
      "chip": "ym2612"
    },
    {
      "channel": 2,
      "note": 92,
      "start": 8.1415,
      "duration": 0.8768,
      "velocity": 99,
      "chip": "ym2612"
    },
    {
      "channel": 3,
      "note": 83,
      "start": 8.1422,
      "duration": 0.8765,
      "velocity": 99,
      "chip": "ym2612"
    },
    {
      "channel": 0,
      "note": 95,
      "start": 8.9994,
      "duration": 0.8768,
      "velocity": 99,
      "chip": "ym2612"
    },
    {
      "channel": 1,
      "note": 87,
      "start": 9.0,
      "duration": 0.8766,
      "velocity": 99,
      "chip": "ym2612"
    },
    {
      "channel": 2,
      "note": 95,
      "start": 9.0371,
      "duration": 0.8769,
      "velocity": 99,
      "chip": "ym2612"
    },
    {
      "channel": 3,
      "note": 83,
      "start": 9.0378,
      "duration": 0.8766,
      "velocity": 99,
      "chip": "ym2612"
    },
    {
      "channel": 0,
      "note": 94,
      "start": 9.8951,
      "duration": 0.8767,
      "velocity": 99,
      "chip": "ym2612"
    },
    {
      "channel": 1,
      "note": 86,
      "start": 9.8956,
      "duration": 0.8765,
      "velocity": 99,
      "chip": "ym2612"
    },
    {
      "channel": 4,
      "note": 44,
      "start": 9.897,
      "duration": 2.6871,
      "velocity": 102,
      "chip": "ym2612"
    },
    {
      "channel": 2,
      "note": 94,
      "start": 9.9328,
      "duration": 0.8768,
      "velocity": 99,
      "chip": "ym2612"
    },
    {
      "channel": 3,
      "note": 87,
      "start": 9.9334,
      "duration": 0.8765,
      "velocity": 99,
      "chip": "ym2612"
    },
    {
      "channel": 0,
      "note": 98,
      "start": 10.7907,
      "duration": 3.5636,
      "velocity": 99,
      "chip": "ym2612"
    },
    {
      "channel": 1,
      "note": 89,
      "start": 10.7913,
      "duration": 3.5634,
      "velocity": 99,
      "chip": "ym2612"
    },
    {
      "channel": 2,
      "note": 98,
      "start": 10.8284,
      "duration": 0.8396,
      "velocity": 99,
      "chip": "ym2612"
    },
    {
      "channel": 3,
      "note": 86,
      "start": 10.829,
      "duration": 0.8393,
      "velocity": 99,
      "chip": "ym2612"
    },
    {
      "channel": 2,
      "note": 70,
      "start": 11.6886,
      "duration": 0.8751,
      "velocity": 99,
      "chip": "ym2612"
    },
    {
      "channel": 3,
      "note": 89,
      "start": 11.6918,
      "duration": 0.8723,
      "velocity": 99,
      "chip": "ym2612"
    },
    {
      "channel": 2,
      "note": 74,
      "start": 12.5825,
      "duration": 1.3246,
      "velocity": 99,
      "chip": "ym2612"
    },
    {
      "channel": 3,
      "note": 65,
      "start": 12.5832,
      "duration": 1.3243,
      "velocity": 99,
      "chip": "ym2612"
    },
    {
      "channel": 4,
      "note": 44,
      "start": 12.5841,
      "duration": 1.7717,
      "velocity": 102,
      "chip": "ym2612"
    },
    {
      "channel": 2,
      "note": 70,
      "start": 13.9259,
      "duration": 0.4291,
      "velocity": 99,
      "chip": "ym2612"
    },
    {
      "channel": 3,
      "note": 70,
      "start": 13.9266,
      "duration": 0.4288,
      "velocity": 99,
      "chip": "ym2612"
    },
    {
      "channel": 0,
      "note": 95,
      "start": 14.3769,
      "duration": 0.6492,
      "velocity": 99,
      "chip": "ym2612"
    },
    {
      "channel": 1,
      "note": 87,
      "start": 14.381,
      "duration": 0.6455,
      "velocity": 99,
      "chip": "ym2612"
    },
    {
      "channel": 4,
      "note": 44,
      "start": 14.3878,
      "duration": 2.6547,
      "velocity": 102,
      "chip": "ym2612"
    },
    {
      "channel": 2,
      "note": 95,
      "start": 14.4144,
      "duration": 0.6495,
      "velocity": 99,
      "chip": "ym2612"
    },
    {
      "channel": 3,
      "note": 65,
      "start": 14.4201,
      "duration": 0.6441,
      "velocity": 99,
      "chip": "ym2612"
    },
    {
      "channel": 0,
      "note": 92,
      "start": 15.0451,
      "duration": 0.2049,
      "velocity": 99,
      "chip": "ym2612"
    },
    {
      "channel": 1,
      "note": 83,
      "start": 15.0456,
      "duration": 0.2047,
      "velocity": 99,
      "chip": "ym2612"
    },
    {
      "channel": 2,
      "note": 92,
      "start": 15.0827,
      "duration": 0.2051,
      "velocity": 99,
      "chip": "ym2612"
    },
    {
      "channel": 3,
      "note": 87,
      "start": 15.0833,
      "duration": 0.2048,
      "velocity": 99,
      "chip": "ym2612"
    },
    {
      "channel": 0,
      "note": 92,
      "start": 15.2689,
      "duration": 0.8768,
      "velocity": 99,
      "chip": "ym2612"
    },
    {
      "channel": 1,
      "note": 83,
      "start": 15.2694,
      "duration": 0.8767,
      "velocity": 99,
      "chip": "ym2612"
    },
    {
      "channel": 2,
      "note": 92,
      "start": 15.3068,
      "duration": 0.8767,
      "velocity": 99,
      "chip": "ym2612"
    },
    {
      "channel": 3,
      "note": 83,
      "start": 15.3074,
      "duration": 0.8764,
      "velocity": 99,
      "chip": "ym2612"
    },
    {
      "channel": 0,
      "note": 95,
      "start": 16.1645,
      "duration": 0.8768,
      "velocity": 99,
      "chip": "ym2612"
    },
    {
      "channel": 1,
      "note": 87,
      "start": 16.165,
      "duration": 0.8766,
      "velocity": 99,
      "chip": "ym2612"
    },
    {
      "channel": 2,
      "note": 95,
      "start": 16.2023,
      "duration": 0.8768,
      "velocity": 99,
      "chip": "ym2612"
    },
    {
      "channel": 3,
      "note": 83,
      "start": 16.2029,
      "duration": 0.8765,
      "velocity": 99,
      "chip": "ym2612"
    },
    {
      "channel": 0,
      "note": 94,
      "start": 17.0601,
      "duration": 0.6529,
      "velocity": 99,
      "chip": "ym2612"
    },
    {
      "channel": 1,
      "note": 86,
      "start": 17.0607,
      "duration": 0.6526,
      "velocity": 99,
      "chip": "ym2612"
    },
    {
      "channel": 4,
      "note": 44,
      "start": 17.0621,
      "duration": 2.6871,
      "velocity": 102,
      "chip": "ym2612"
    },
    {
      "channel": 2,
      "note": 94,
      "start": 17.0979,
      "duration": 0.6531,
      "velocity": 99,
      "chip": "ym2612"
    },
    {
      "channel": 3,
      "note": 87,
      "start": 17.0985,
      "duration": 0.6527,
      "velocity": 99,
      "chip": "ym2612"
    },
    {
      "channel": 0,
      "note": 89,
      "start": 17.7319,
      "duration": 0.2051,
      "velocity": 99,
      "chip": "ym2612"
    },
    {
      "channel": 1,
      "note": 82,
      "start": 17.7324,
      "duration": 0.2049,
      "velocity": 99,
      "chip": "ym2612"
    },
    {
      "channel": 2,
      "note": 89,
      "start": 17.7697,
      "duration": 0.205,
      "velocity": 99,
      "chip": "ym2612"
    },
    {
      "channel": 3,
      "note": 86,
      "start": 17.7703,
      "duration": 0.2046,
      "velocity": 99,
      "chip": "ym2612"
    },
    {
      "channel": 0,
      "note": 89,
      "start": 17.9559,
      "duration": 3.5635,
      "velocity": 99,
      "chip": "ym2612"
    },
    {
      "channel": 1,
      "note": 82,
      "start": 17.9565,
      "duration": 3.5633,
      "velocity": 99,
      "chip": "ym2612"
    },
    {
      "channel": 2,
      "note": 89,
      "start": 17.9936,
      "duration": 0.8396,
      "velocity": 99,
      "chip": "ym2612"
    },
    {
      "channel": 3,
      "note": 82,
      "start": 17.9942,
      "duration": 0.8393,
      "velocity": 99,
      "chip": "ym2612"
    },
    {
      "channel": 2,
      "note": 74,
      "start": 18.8554,
      "duration": 0.8733,
      "velocity": 99,
      "chip": "ym2612"
    },
    {
      "channel": 3,
      "note": 82,
      "start": 18.8634,
      "duration": 0.8656,
      "velocity": 99,
      "chip": "ym2612"
    },
    {
      "channel": 2,
      "note": 77,
      "start": 19.7476,
      "duration": 1.3246,
      "velocity": 99,
      "chip": "ym2612"
    },
    {
      "channel": 3,
      "note": 70,
      "start": 19.7483,
      "duration": 1.3242,
      "velocity": 99,
      "chip": "ym2612"
    },
    {
      "channel": 4,
      "note": 44,
      "start": 19.7491,
      "duration": 1.7717,
      "velocity": 102,
      "chip": "ym2612"
    },
    {
      "channel": 2,
      "note": 74,
      "start": 21.0911,
      "duration": 0.4289,
      "velocity": 99,
      "chip": "ym2612"
    },
    {
      "channel": 3,
      "note": 74,
      "start": 21.0918,
      "duration": 0.4287,
      "velocity": 99,
      "chip": "ym2612"
    },
    {
      "channel": 0,
      "note": 95,
      "start": 21.5384,
      "duration": 0.6529,
      "velocity": 99,
      "chip": "ym2612"
    },
    {
      "channel": 1,
      "note": 87,
      "start": 21.539,
      "duration": 0.6526,
      "velocity": 99,
      "chip": "ym2612"
    },
    {
      "channel": 4,
      "note": 44,
      "start": 21.5454,
      "duration": 2.6623,
      "velocity": 102,
      "chip": "ym2612"
    },
    {
      "channel": 2,
      "note": 95,
      "start": 21.578,
      "duration": 0.651,
      "velocity": 99,
      "chip": "ym2612"
    },
    {
      "channel": 3,
      "note": 70,
      "start": 21.5811,
      "duration": 0.6482,
      "velocity": 99,
      "chip": "ym2612"
    },
    {
      "channel": 0,
      "note": 92,
      "start": 22.2101,
      "duration": 0.205,
      "velocity": 99,
      "chip": "ym2612"
    },
    {
      "channel": 1,
      "note": 83,
      "start": 22.2107,
      "duration": 0.2048,
      "velocity": 99,
      "chip": "ym2612"
    },
    {
      "channel": 2,
      "note": 92,
      "start": 22.2478,
      "duration": 0.2051,
      "velocity": 99,
      "chip": "ym2612"
    },
    {
      "channel": 3,
      "note": 87,
      "start": 22.2484,
      "duration": 0.2048,
      "velocity": 99,
      "chip": "ym2612"
    },
    {
      "channel": 0,
      "note": 92,
      "start": 22.4339,
      "duration": 0.877,
      "velocity": 99,
      "chip": "ym2612"
    },
    {
      "channel": 1,
      "note": 83,
      "start": 22.4345,
      "duration": 0.8767,
      "velocity": 99,
      "chip": "ym2612"
    },
    {
      "channel": 2,
      "note": 92,
      "start": 22.4719,
      "duration": 0.8768,
      "velocity": 99,
      "chip": "ym2612"
    },
    {
      "channel": 3,
      "note": 83,
      "start": 22.4725,
      "duration": 0.8765,
      "velocity": 99,
      "chip": "ym2612"
    },
    {
      "channel": 0,
      "note": 95,
      "start": 23.3297,
      "duration": 0.8768,
      "velocity": 99,
      "chip": "ym2612"
    },
    {
      "channel": 1,
      "note": 87,
      "start": 23.3302,
      "duration": 0.8766,
      "velocity": 99,
      "chip": "ym2612"
    },
    {
      "channel": 2,
      "note": 95,
      "start": 23.3675,
      "duration": 0.8768,
      "velocity": 99,
      "chip": "ym2612"
    },
    {
      "channel": 3,
      "note": 83,
      "start": 23.3681,
      "duration": 0.8766,
      "velocity": 99,
      "chip": "ym2612"
    },
    {
      "channel": 0,
      "note": 94,
      "start": 24.2252,
      "duration": 0.8769,
      "velocity": 99,
      "chip": "ym2612"
    },
    {
      "channel": 1,
      "note": 86,
      "start": 24.2257,
      "duration": 0.8767,
      "velocity": 99,
      "chip": "ym2612"
    },
    {
      "channel": 4,
      "note": 44,
      "start": 24.2271,
      "duration": 2.6873,
      "velocity": 102,
      "chip": "ym2612"
    },
    {
      "channel": 2,
      "note": 94,
      "start": 24.2631,
      "duration": 0.8768,
      "velocity": 99,
      "chip": "ym2612"
    },
    {
      "channel": 3,
      "note": 87,
      "start": 24.2637,
      "duration": 0.8765,
      "velocity": 99,
      "chip": "ym2612"
    },
    {
      "channel": 0,
      "note": 98,
      "start": 25.1209,
      "duration": 3.5637,
      "velocity": 99,
      "chip": "ym2612"
    },
    {
      "channel": 1,
      "note": 89,
      "start": 25.1214,
      "duration": 3.5635,
      "velocity": 99,
      "chip": "ym2612"
    },
    {
      "channel": 2,
      "note": 98,
      "start": 25.1588,
      "duration": 0.8395,
      "velocity": 99,
      "chip": "ym2612"
    },
    {
      "channel": 3,
      "note": 86,
      "start": 25.1594,
      "duration": 0.8393,
      "velocity": 99,
      "chip": "ym2612"
    },
    {
      "channel": 2,
      "note": 70,
      "start": 26.0189,
      "duration": 0.8751,
      "velocity": 99,
      "chip": "ym2612"
    },
    {
      "channel": 3,
      "note": 89,
      "start": 26.022,
      "duration": 0.8723,
      "velocity": 99,
      "chip": "ym2612"
    },
    {
      "channel": 2,
      "note": 74,
      "start": 26.9128,
      "duration": 1.3245,
      "velocity": 99,
      "chip": "ym2612"
    },
    {
      "channel": 3,
      "note": 65,
      "start": 26.9134,
      "duration": 1.3242,
      "velocity": 99,
      "chip": "ym2612"
    },
    {
      "channel": 4,
      "note": 44,
      "start": 26.9144,
      "duration": 1.7716,
      "velocity": 102,
      "chip": "ym2612"
    },
    {
      "channel": 2,
      "note": 70,
      "start": 28.2563,
      "duration": 0.429,
      "velocity": 99,
      "chip": "ym2612"
    },
    {
      "channel": 3,
      "note": 70,
      "start": 28.2569,
      "duration": 0.4287,
      "velocity": 99,
      "chip": "ym2612"
    },
    {
      "channel": 0,
      "note": 95,
      "start": 28.7072,
      "duration": 0.0005,
      "velocity": 99,
      "chip": "ym2612"
    }
  ]
}