{
  "track_name": "14 - Two Player Stage - Dance! Hebe",
  "duration_sec": 64.052,
  "sample_rate": 44100,
  "note_count": 1607,
  "unique_pitches": 33,
  "pitch_range": 48,
  "avg_note_duration": 0.1236,
  "reconstruction_stats": {
    "notes_reconstructed": 1607,
    "keyon_events": 1607,
    "keyoff_events": 1602,
    "orphan_keyons": 5,
    "unique_pitches": 33,
    "pitch_range": 48,
    "avg_duration_sec": 0.1236
  },
  "metadata": {
    "source": "H\\Hebereke no Popoon\\14 - Two Player Stage - Dance! Hebe.vgz"
  },
  "notes": [
    {
      "channel": 0,
      "note": 41,
      "start": 0.0022,
      "duration": 0.0769,
      "velocity": 112,
      "chip": "ym2612"
    },
    {
      "channel": 1,
      "note": 51,
      "start": 0.0034,
      "duration": 0.4041,
      "velocity": 127,
      "chip": "ym2612"
    },
    {
      "channel": 3,
      "note": 61,
      "start": 0.0048,
      "duration": 0.0746,
      "velocity": 80,
      "chip": "ym2612"
    },
    {
      "channel": 5,
      "note": 56,
      "start": 0.0061,
      "duration": 0.1834,
      "velocity": 114,
      "chip": "ym2612"
    },
    {
      "channel": 0,
      "note": 51,
      "start": 0.1167,
      "duration": 0.0725,
      "velocity": 127,
      "chip": "ym2612"
    },
    {
      "channel": 3,
      "note": 61,
      "start": 0.117,
      "duration": 0.0724,
      "velocity": 80,
      "chip": "ym2612"
    },
    {
      "channel": 0,
      "note": 51,
      "start": 0.2256,
      "duration": 0.0727,
      "velocity": 127,
      "chip": "ym2612"
    },
    {
      "channel": 3,
      "note": 73,
      "start": 0.2259,
      "duration": 0.0726,
      "velocity": 80,
      "chip": "ym2612"
    },
    {
      "channel": 5,
      "note": 56,
      "start": 0.2262,
      "duration": 0.0725,
      "velocity": 114,
      "chip": "ym2612"
    },
    {
      "channel": 0,
      "note": 51,
      "start": 0.3348,
      "duration": 0.0727,
      "velocity": 127,
      "chip": "ym2612"
    },
    {
      "channel": 3,
      "note": 73,
      "start": 0.3351,
      "duration": 0.0727,
      "velocity": 80,
      "chip": "ym2612"
    },
    {
      "channel": 5,
      "note": 58,
      "start": 0.3353,
      "duration": 0.1833,
      "velocity": 114,
      "chip": "ym2612"
    },
    {
      "channel": 0,
      "note": 41,
      "start": 0.4446,
      "duration": 0.0736,
      "velocity": 112,
      "chip": "ym2612"
    },
    {
      "channel": 1,
      "note": 51,
      "start": 0.445,
      "duration": 0.4018,
      "velocity": 127,
      "chip": "ym2612"
    },
    {
      "channel": 3,
      "note": 61,
      "start": 0.4453,
      "duration": 0.0733,
      "velocity": 80,
      "chip": "ym2612"
    },
    {
      "channel": 0,
      "note": 51,
      "start": 0.5558,
      "duration": 0.0727,
      "velocity": 127,
      "chip": "ym2612"
    },
    {
      "channel": 3,
      "note": 61,
      "start": 0.5561,
      "duration": 0.0726,
      "velocity": 80,
      "chip": "ym2612"
    },
    {
      "channel": 5,
      "note": 58,
      "start": 0.5564,
      "duration": 0.0724,
      "velocity": 114,
      "chip": "ym2612"
    },
    {
      "channel": 0,
      "note": 51,
      "start": 0.665,
      "duration": 0.0727,
      "velocity": 127,
      "chip": "ym2612"
    },
    {
      "channel": 3,
      "note": 73,
      "start": 0.6653,
      "duration": 0.0726,
      "velocity": 80,
      "chip": "ym2612"
    },
    {
      "channel": 5,
      "note": 61,
      "start": 0.6656,
      "duration": 0.1814,
      "velocity": 114,
      "chip": "ym2612"
    },
    {
      "channel": 0,
      "note": 51,
      "start": 0.7741,
      "duration": 0.0726,
      "velocity": 127,
      "chip": "ym2612"
    },
    {
      "channel": 3,
      "note": 73,
      "start": 0.7744,
      "duration": 0.0724,
      "velocity": 80,
      "chip": "ym2612"
    },
    {
      "channel": 0,
      "note": 41,
      "start": 0.8838,
      "duration": 0.0738,
      "velocity": 112,
      "chip": "ym2612"
    },
    {
      "channel": 1,
      "note": 51,
      "start": 0.8841,
      "duration": 0.402,
      "velocity": 127,
      "chip": "ym2612"
    },
    {
      "channel": 3,
      "note": 61,
      "start": 0.8844,
      "duration": 0.0735,
      "velocity": 80,
      "chip": "ym2612"
    },
    {
      "channel": 5,
      "note": 61,
      "start": 0.8847,
      "duration": 0.0733,
      "velocity": 114,
      "chip": "ym2612"
    },
    {
      "channel": 0,
      "note": 51,
      "start": 0.9952,
      "duration": 0.0727,
      "velocity": 127,
      "chip": "ym2612"
    },
    {
      "channel": 3,
      "note": 61,
      "start": 0.9955,
      "duration": 0.0726,
      "velocity": 80,
      "chip": "ym2612"
    },
    {
      "channel": 5,
      "note": 58,
      "start": 0.9958,
      "duration": 0.1814,
      "velocity": 114,
      "chip": "ym2612"
    },
    {
      "channel": 0,
      "note": 51,
      "start": 1.1043,
      "duration": 0.0726,
      "velocity": 127,
      "chip": "ym2612"
    },
    {
      "channel": 3,
      "note": 73,
      "start": 1.1046,
      "duration": 0.0724,
      "velocity": 80,
      "chip": "ym2612"
    },
    {
      "channel": 0,
      "note": 51,
      "start": 1.2133,
      "duration": 0.0727,
      "velocity": 127,
      "chip": "ym2612"
    },
    {
      "channel": 3,
      "note": 73,
      "start": 1.2136,
      "duration": 0.0726,
      "velocity": 80,
      "chip": "ym2612"
    },
    {
      "channel": 5,
      "note": 58,
      "start": 1.2139,
      "duration": 0.0725,
      "velocity": 114,
      "chip": "ym2612"
    },
    {
      "channel": 0,
      "note": 41,
      "start": 1.3233,
      "duration": 0.0738,
      "velocity": 112,
      "chip": "ym2612"
    },
    {
      "channel": 1,
      "note": 51,
      "start": 1.3236,
      "duration": 0.1837,
      "velocity": 127,
      "chip": "ym2612"
    },
    {
      "channel": 3,
      "note": 61,
      "start": 1.3239,
      "duration": 0.0735,
      "velocity": 80,
      "chip": "ym2612"
    },
    {
      "channel": 5,
      "note": 63,
      "start": 1.3241,
      "duration": 0.1834,
      "velocity": 114,
      "chip": "ym2612"
    },
    {
      "channel": 0,
      "note": 51,
      "start": 1.4346,
      "duration": 0.0726,
      "velocity": 127,
      "chip": "ym2612"
    },
    {
      "channel": 3,
      "note": 61,
      "start": 1.4349,
      "duration": 0.0724,
      "velocity": 80,
      "chip": "ym2612"
    },
    {
      "channel": 0,
      "note": 41,
      "start": 1.5444,
      "duration": 0.0737,
      "velocity": 112,
      "chip": "ym2612"
    },
    {
      "channel": 1,
      "note": 51,
      "start": 1.5447,
      "duration": 0.1836,
      "velocity": 127,
      "chip": "ym2612"
    },
    {
      "channel": 3,
      "note": 73,
      "start": 1.5449,
      "duration": 0.0734,
      "velocity": 80,
      "chip": "ym2612"
    },
    {
      "channel": 5,
      "note": 65,
      "start": 1.5452,
      "duration": 0.1833,
      "velocity": 114,
      "chip": "ym2612"
    },
    {
      "channel": 0,
      "note": 51,
      "start": 1.6556,
      "duration": 0.0726,
      "velocity": 127,
      "chip": "ym2612"
    },
    {
      "channel": 3,
      "note": 73,
      "start": 1.6559,
      "duration": 0.0725,
      "velocity": 80,
      "chip": "ym2612"
    },
    {
      "channel": 0,
      "note": 41,
      "start": 1.7654,
      "duration": 0.0741,
      "velocity": 112,
      "chip": "ym2612"
    },
    {
      "channel": 1,
      "note": 51,
      "start": 1.7658,
      "duration": 0.4022,
      "velocity": 127,
      "chip": "ym2612"
    },
    {
      "channel": 3,
      "note": 61,
      "start": 1.7662,
      "duration": 0.0736,
      "velocity": 80,
      "chip": "ym2612"
    },
    {
      "channel": 5,
      "note": 56,
      "start": 1.7666,
      "duration": 0.1833,
      "velocity": 114,
      "chip": "ym2612"
    },
    {
      "channel": 0,
      "note": 51,
      "start": 1.877,
      "duration": 0.0726,
      "velocity": 127,
      "chip": "ym2612"
    },
    {
      "channel": 3,
      "note": 61,
      "start": 1.8773,
      "duration": 0.0724,
      "velocity": 80,
      "chip": "ym2612"
    },
    {
      "channel": 0,
      "note": 51,
      "start": 1.986,
      "duration": 0.0727,
      "velocity": 127,
      "chip": "ym2612"
    },
    {
      "channel": 3,
      "note": 73,
      "start": 1.9863,
      "duration": 0.0726,
      "velocity": 80,
      "chip": "ym2612"
    },
    {
      "channel": 5,
      "note": 56,
      "start": 1.9866,
      "duration": 0.0725,
      "velocity": 114,
      "chip": "ym2612"
    },
    {
      "channel": 0,
      "note": 51,
      "start": 2.0951,
      "duration": 0.0727,
      "velocity": 127,
      "chip": "ym2612"
    },
    {
      "channel": 3,
      "note": 73,
      "start": 2.0954,
      "duration": 0.0727,
      "velocity": 80,
      "chip": "ym2612"
    },
    {
      "channel": 5,
      "note": 58,
      "start": 2.0957,
      "duration": 0.1833,
      "velocity": 114,
      "chip": "ym2612"
    },
    {
      "channel": 0,
      "note": 41,
      "start": 2.205,
      "duration": 0.0736,
      "velocity": 112,
      "chip": "ym2612"
    },
    {
      "channel": 1,
      "note": 51,
      "start": 2.2054,
      "duration": 0.4018,
      "velocity": 127,
      "chip": "ym2612"
    },
    {
      "channel": 3,
      "note": 61,
      "start": 2.2056,
      "duration": 0.0733,
      "velocity": 80,
      "chip": "ym2612"
    },
    {
      "channel": 0,
      "note": 51,
      "start": 2.3162,
      "duration": 0.0727,
      "velocity": 127,
      "chip": "ym2612"
    },
    {
      "channel": 3,
      "note": 61,
      "start": 2.3165,
      "duration": 0.0726,
      "velocity": 80,
      "chip": "ym2612"
    },
    {
      "channel": 5,
      "note": 58,
      "start": 2.3168,
      "duration": 0.0724,
      "velocity": 114,
      "chip": "ym2612"
    },
    {
      "channel": 0,
      "note": 51,
      "start": 2.4254,
      "duration": 0.0727,
      "velocity": 127,
      "chip": "ym2612"
    },
    {
      "channel": 3,
      "note": 73,
      "start": 2.4257,
      "duration": 0.0726,
      "velocity": 80,
      "chip": "ym2612"
    },
    {
      "channel": 5,
      "note": 61,
      "start": 2.4259,
      "duration": 0.1814,
      "velocity": 114,
      "chip": "ym2612"
    },
    {
      "channel": 0,
      "note": 51,
      "start": 2.5345,
      "duration": 0.0725,
      "velocity": 127,
      "chip": "ym2612"
    },
    {
      "channel": 3,
      "note": 73,
      "start": 2.5348,
      "duration": 0.0724,
      "velocity": 80,
      "chip": "ym2612"
    },
    {
      "channel": 0,
      "note": 41,
      "start": 2.6442,
      "duration": 0.0738,
      "velocity": 112,
      "chip": "ym2612"
    },
    {
      "channel": 1,
      "note": 51,
      "start": 2.6445,
      "duration": 0.402,
      "velocity": 127,
      "chip": "ym2612"
    },
    {
      "channel": 3,
      "note": 61,
      "start": 2.6448,
      "duration": 0.0734,
      "velocity": 80,
      "chip": "ym2612"
    },
    {
      "channel": 5,
      "note": 61,
      "start": 2.6451,
      "duration": 0.0733,
      "velocity": 114,
      "chip": "ym2612"
    },
    {
      "channel": 0,
      "note": 51,
      "start": 2.7556,
      "duration": 0.0727,
      "velocity": 127,
      "chip": "ym2612"
    },
    {
      "channel": 3,
      "note": 61,
      "start": 2.7559,
      "duration": 0.0726,
      "velocity": 80,
      "chip": "ym2612"
    },
    {
      "channel": 5,
      "note": 58,
      "start": 2.7561,
      "duration": 0.1814,
      "velocity": 114,
      "chip": "ym2612"
    },
    {
      "channel": 0,
      "note": 51,
      "start": 2.8647,
      "duration": 0.0726,
      "velocity": 127,
      "chip": "ym2612"
    },
    {
      "channel": 3,
      "note": 73,
      "start": 2.865,
      "duration": 0.0724,
      "velocity": 80,
      "chip": "ym2612"
    },
    {
      "channel": 0,
      "note": 51,
      "start": 2.9737,
      "duration": 0.0727,
      "velocity": 127,
      "chip": "ym2612"
    },
    {
      "channel": 3,
      "note": 73,
      "start": 2.974,
      "duration": 0.0726,
      "velocity": 80,
      "chip": "ym2612"
    },
    {
      "channel": 5,
      "note": 58,
      "start": 2.9742,
      "duration": 0.0725,
      "velocity": 114,
      "chip": "ym2612"
    },
    {
      "channel": 0,
      "note": 41,
      "start": 3.0837,
      "duration": 0.0738,
      "velocity": 112,
      "chip": "ym2612"
    },
    {
      "channel": 1,
      "note": 51,
      "start": 3.084,
      "duration": 0.1837,
      "velocity": 127,
      "chip": "ym2612"
    },
    {
      "channel": 3,
      "note": 61,
      "start": 3.0843,
      "duration": 0.0735,
      "velocity": 80,
      "chip": "ym2612"
    },
    {
      "channel": 5,
      "note": 63,
      "start": 3.0845,
      "duration": 0.1834,
      "velocity": 114,
      "chip": "ym2612"
    },
    {
      "channel": 0,
      "note": 51,
      "start": 3.195,
      "duration": 0.0726,
      "velocity": 127,
      "chip": "ym2612"
    },
    {
      "channel": 3,
      "note": 61,
      "start": 3.1953,
      "duration": 0.0724,
      "velocity": 80,
      "chip": "ym2612"
    },
    {
      "channel": 0,
      "note": 41,
      "start": 3.3047,
      "duration": 0.0737,
      "velocity": 112,
      "chip": "ym2612"
    },
    {
      "channel": 1,
      "note": 51,
      "start": 3.3051,
      "duration": 0.1836,
      "velocity": 127,
      "chip": "ym2612"
    },
    {
      "channel": 3,
      "note": 73,
      "start": 3.3053,
      "duration": 0.0734,
      "velocity": 80,
      "chip": "ym2612"
    },
    {
      "channel": 5,
      "note": 65,
      "start": 3.3056,
      "duration": 0.1833,
      "velocity": 114,
      "chip": "ym2612"
    },
    {
      "channel": 0,
      "note": 51,
      "start": 3.416,
      "duration": 0.0726,
      "velocity": 127,
      "chip": "ym2612"
    },
    {
      "channel": 3,
      "note": 73,
      "start": 3.4163,
      "duration": 0.0725,
      "velocity": 80,
      "chip": "ym2612"
    },
    {
      "channel": 0,
      "note": 41,
      "start": 3.5258,
      "duration": 0.0741,
      "velocity": 112,
      "chip": "ym2612"
    },
    {
      "channel": 1,
      "note": 51,
      "start": 3.5262,
      "duration": 0.4022,
      "velocity": 127,
      "chip": "ym2612"
    },
    {
      "channel": 3,
      "note": 61,
      "start": 3.5266,
      "duration": 0.0736,
      "velocity": 80,
      "chip": "ym2612"
    },
    {
      "channel": 5,
      "note": 56,
      "start": 3.527,
      "duration": 0.1833,
      "velocity": 114,
      "chip": "ym2612"
    },
    {
      "channel": 0,
      "note": 51,
      "start": 3.6374,
      "duration": 0.0725,
      "velocity": 127,
      "chip": "ym2612"
    },
    {
      "channel": 3,
      "note": 61,
      "start": 3.6377,
      "duration": 0.0724,
      "velocity": 80,
      "chip": "ym2612"
    },
    {
      "channel": 0,
      "note": 51,
      "start": 3.7464,
      "duration": 0.0727,
      "velocity": 127,
      "chip": "ym2612"
    },
    {
      "channel": 3,
      "note": 73,
      "start": 3.7467,
      "duration": 0.0726,
      "velocity": 80,
      "chip": "ym2612"
    },
    {
      "channel": 5,
      "note": 56,
      "start": 3.747,
      "duration": 0.0725,
      "velocity": 114,
      "chip": "ym2612"
    },
    {
      "channel": 0,
      "note": 51,
      "start": 3.8555,
      "duration": 0.0727,
      "velocity": 127,
      "chip": "ym2612"
    },
    {
      "channel": 3,
      "note": 73,
      "start": 3.8558,
      "duration": 0.0727,
      "velocity": 80,
      "chip": "ym2612"
    },
    {
      "channel": 5,
      "note": 58,
      "start": 3.8561,
      "duration": 0.1833,
      "velocity": 114,
      "chip": "ym2612"
    },
    {
      "channel": 0,
      "note": 41,
      "start": 3.9654,
      "duration": 0.0736,
      "velocity": 112,
      "chip": "ym2612"
    },
    {
      "channel": 1,
      "note": 51,
      "start": 3.9657,
      "duration": 0.4018,
      "velocity": 127,
      "chip": "ym2612"
    },
    {
      "channel": 3,
      "note": 61,
      "start": 3.966,
      "duration": 0.0733,
      "velocity": 80,
      "chip": "ym2612"
    },
    {
      "channel": 0,
      "note": 51,
      "start": 4.0766,
      "duration": 0.0727,
      "velocity": 127,
      "chip": "ym2612"
    },
    {
      "channel": 3,
      "note": 61,
      "start": 4.0769,
      "duration": 0.0726,
      "velocity": 80,
      "chip": "ym2612"
    },
    {
      "channel": 5,
      "note": 58,
      "start": 4.0772,
      "duration": 0.0724,
      "velocity": 114,
      "chip": "ym2612"
    },
    {
      "channel": 0,
      "note": 51,
      "start": 4.1858,
      "duration": 0.0727,
      "velocity": 127,
      "chip": "ym2612"
    },
    {
      "channel": 3,
      "note": 73,
      "start": 4.1861,
      "duration": 0.0726,
      "velocity": 80,
      "chip": "ym2612"
    },
    {
      "channel": 5,
      "note": 61,
      "start": 4.1863,
      "duration": 0.1814,
      "velocity": 114,
      "chip": "ym2612"
    },
    {
      "channel": 0,
      "note": 51,
      "start": 4.2949,
      "duration": 0.0726,
      "velocity": 127,
      "chip": "ym2612"
    },
    {
      "channel": 3,
      "note": 73,
      "start": 4.2952,
      "duration": 0.0724,
      "velocity": 80,
      "chip": "ym2612"
    },
    {
      "channel": 0,
      "note": 41,
      "start": 4.4046,
      "duration": 0.0738,
      "velocity": 112,
      "chip": "ym2612"
    },
    {
      "channel": 1,
      "note": 51,
      "start": 4.4049,
      "duration": 0.402,
      "velocity": 127,
      "chip": "ym2612"
    },
    {
      "channel": 3,
      "note": 61,
      "start": 4.4052,
      "duration": 0.0734,
      "velocity": 80,
      "chip": "ym2612"
    },
    {
      "channel": 5,
      "note": 61,
      "start": 4.4055,
      "duration": 0.0733,
      "velocity": 114,
      "chip": "ym2612"
    },
    {
      "channel": 0,
      "note": 51,
      "start": 4.516,
      "duration": 0.0727,
      "velocity": 127,
      "chip": "ym2612"
    },
    {
      "channel": 3,
      "note": 61,
      "start": 4.5163,
      "duration": 0.0726,
      "velocity": 80,
      "chip": "ym2612"
    },
    {
      "channel": 5,
      "note": 58,
      "start": 4.5165,
      "duration": 0.1814,
      "velocity": 114,
      "chip": "ym2612"
    },
    {
      "channel": 0,
      "note": 51,
      "start": 4.6251,
      "duration": 0.0726,
      "velocity": 127,
      "chip": "ym2612"
    },
    {
      "channel": 3,
      "note": 73,
      "start": 4.6254,
      "duration": 0.0724,
      "velocity": 80,
      "chip": "ym2612"
    },
    {
      "channel": 0,
      "note": 51,
      "start": 4.7341,
      "duration": 0.0727,
      "velocity": 127,
      "chip": "ym2612"
    },
    {
      "channel": 3,
      "note": 73,
      "start": 4.7344,
      "duration": 0.0726,
      "velocity": 80,
      "chip": "ym2612"
    },
    {
      "channel": 5,
      "note": 58,
      "start": 4.7346,
      "duration": 0.0725,
      "velocity": 114,
      "chip": "ym2612"
    },
    {
      "channel": 0,
      "note": 41,
      "start": 4.8441,
      "duration": 0.0738,
      "velocity": 112,
      "chip": "ym2612"
    },
    {
      "channel": 1,
      "note": 51,
      "start": 4.8444,
      "duration": 0.1837,
      "velocity": 127,
      "chip": "ym2612"
    },
    {
      "channel": 3,
      "note": 61,
      "start": 4.8446,
      "duration": 0.0735,
      "velocity": 80,
      "chip": "ym2612"
    },
    {
      "channel": 5,
      "note": 63,
      "start": 4.8449,
      "duration": 0.1834,
      "velocity": 114,
      "chip": "ym2612"
    },
    {
      "channel": 0,
      "note": 51,
      "start": 4.9554,
      "duration": 0.0726,
      "velocity": 127,
      "chip": "ym2612"
    },
    {
      "channel": 3,
      "note": 61,
      "start": 4.9557,
      "duration": 0.0724,
      "velocity": 80,
      "chip": "ym2612"
    },
    {
      "channel": 0,
      "note": 41,
      "start": 5.0651,
      "duration": 0.0737,
      "velocity": 112,
      "chip": "ym2612"
    },
    {
      "channel": 1,
      "note": 51,
      "start": 5.0654,
      "duration": 0.1836,
      "velocity": 127,
      "chip": "ym2612"
    },
    {
      "channel": 3,
      "note": 73,
      "start": 5.0657,
      "duration": 0.0734,
      "velocity": 80,
      "chip": "ym2612"
    },
    {
      "channel": 5,
      "note": 65,
      "start": 5.066,
      "duration": 0.1833,
      "velocity": 114,
      "chip": "ym2612"
    },
    {
      "channel": 0,
      "note": 51,
      "start": 5.1764,
      "duration": 0.0726,
      "velocity": 127,
      "chip": "ym2612"
    },
    {
      "channel": 3,
      "note": 73,
      "start": 5.1767,
      "duration": 0.0725,
      "velocity": 80,
      "chip": "ym2612"
    },
    {
      "channel": 0,
      "note": 41,
      "start": 5.2862,
      "duration": 0.0741,
      "velocity": 112,
      "chip": "ym2612"
    },
    {
      "channel": 1,
      "note": 51,
      "start": 5.2866,
      "duration": 0.4022,
      "velocity": 127,
      "chip": "ym2612"
    },
    {
      "channel": 3,
      "note": 61,
      "start": 5.287,
      "duration": 0.0736,
      "velocity": 80,
      "chip": "ym2612"
    },
    {
      "channel": 5,
      "note": 56,
      "start": 5.2873,
      "duration": 0.1833,
      "velocity": 114,
      "chip": "ym2612"
    },
    {
      "channel": 0,
      "note": 51,
      "start": 5.3978,
      "duration": 0.0725,
      "velocity": 127,
      "chip": "ym2612"
    },
    {
      "channel": 3,
      "note": 61,
      "start": 5.3981,
      "duration": 0.0724,
      "velocity": 80,
      "chip": "ym2612"
    },
    {
      "channel": 0,
      "note": 51,
      "start": 5.5068,
      "duration": 0.0727,
      "velocity": 127,
      "chip": "ym2612"
    },
    {
      "channel": 3,
      "note": 73,
      "start": 5.5071,
      "duration": 0.0726,
      "velocity": 80,
      "chip": "ym2612"
    },
    {
      "channel": 5,
      "note": 56,
      "start": 5.5073,
      "duration": 0.0725,
      "velocity": 114,
      "chip": "ym2612"
    },
    {
      "channel": 0,
      "note": 51,
      "start": 5.6159,
      "duration": 0.0727,
      "velocity": 127,
      "chip": "ym2612"
    },
    {
      "channel": 3,
      "note": 73,
      "start": 5.6162,
      "duration": 0.0727,
      "velocity": 80,
      "chip": "ym2612"
    },
    {
      "channel": 5,
      "note": 58,
      "start": 5.6165,
      "duration": 0.1833,
      "velocity": 114,
      "chip": "ym2612"
    },
    {
      "channel": 0,
      "note": 41,
      "start": 5.7258,
      "duration": 0.0736,
      "velocity": 112,
      "chip": "ym2612"
    },
    {
      "channel": 1,
      "note": 51,
      "start": 5.7261,
      "duration": 0.4018,
      "velocity": 127,
      "chip": "ym2612"
    },
    {
      "channel": 3,
      "note": 61,
      "start": 5.7264,
      "duration": 0.0733,
      "velocity": 80,
      "chip": "ym2612"
    },
    {
      "channel": 0,
      "note": 51,
      "start": 5.837,
      "duration": 0.0727,
      "velocity": 127,
      "chip": "ym2612"
    },
    {
      "channel": 3,
      "note": 61,
      "start": 5.8373,
      "duration": 0.0726,
      "velocity": 80,
      "chip": "ym2612"
    },
    {
      "channel": 5,
      "note": 58,
      "start": 5.8376,
      "duration": 0.0724,
      "velocity": 114,
      "chip": "ym2612"
    },
    {
      "channel": 0,
      "note": 51,
      "start": 5.9461,
      "duration": 0.0727,
      "velocity": 127,
      "chip": "ym2612"
    },
    {
      "channel": 3,
      "note": 73,
      "start": 5.9464,
      "duration": 0.0726,
      "velocity": 80,
      "chip": "ym2612"
    },
    {
      "channel": 5,
      "note": 61,
      "start": 5.9467,
      "duration": 0.1814,
      "velocity": 114,
      "chip": "ym2612"
    },
    {
      "channel": 0,
      "note": 51,
      "start": 6.0553,
      "duration": 0.0726,
      "velocity": 127,
      "chip": "ym2612"
    },
    {
      "channel": 3,
      "note": 73,
      "start": 6.0556,
      "duration": 0.0724,
      "velocity": 80,
      "chip": "ym2612"
    },
    {
      "channel": 0,
      "note": 41,
      "start": 6.165,
      "duration": 0.0738,
      "velocity": 112,
      "chip": "ym2612"
    },
    {
      "channel": 1,
      "note": 51,
      "start": 6.1653,
      "duration": 0.402,
      "velocity": 127,
      "chip": "ym2612"
    },
    {
      "channel": 3,
      "note": 61,
      "start": 6.1656,
      "duration": 0.0735,
      "velocity": 80,
      "chip": "ym2612"
    },
    {
      "channel": 5,
      "note": 61,
      "start": 6.1659,
      "duration": 0.0733,
      "velocity": 114,
      "chip": "ym2612"
    },
    {
      "channel": 0,
      "note": 51,
      "start": 6.2763,
      "duration": 0.0727,
      "velocity": 127,
      "chip": "ym2612"
    },
    {
      "channel": 3,
      "note": 61,
      "start": 6.2766,
      "duration": 0.0726,
      "velocity": 80,
      "chip": "ym2612"
    },
    {
      "channel": 5,
      "note": 58,
      "start": 6.2769,
      "duration": 0.1814,
      "velocity": 114,
      "chip": "ym2612"
    },
    {
      "channel": 0,
      "note": 51,
      "start": 6.3855,
      "duration": 0.0726,
      "velocity": 127,
      "chip": "ym2612"
    },
    {
      "channel": 3,
      "note": 73,
      "start": 6.3858,
      "duration": 0.0724,
      "velocity": 80,
      "chip": "ym2612"
    },
    {
      "channel": 0,
      "note": 51,
      "start": 6.4944,
      "duration": 0.0727,
      "velocity": 127,
      "chip": "ym2612"
    },
    {
      "channel": 3,
      "note": 73,
      "start": 6.4947,
      "duration": 0.0726,
      "velocity": 80,
      "chip": "ym2612"
    },
    {
      "channel": 5,
      "note": 58,
      "start": 6.495,
      "duration": 0.0725,
      "velocity": 114,
      "chip": "ym2612"
    },
    {
      "channel": 0,
      "note": 41,
      "start": 6.6044,
      "duration": 0.0738,
      "velocity": 112,
      "chip": "ym2612"
    },
    {
      "channel": 1,
      "note": 51,
      "start": 6.6047,
      "duration": 0.1837,
      "velocity": 127,
      "chip": "ym2612"
    },
    {
      "channel": 3,
      "note": 61,
      "start": 6.605,
      "duration": 0.0735,
      "velocity": 80,
      "chip": "ym2612"
    },
    {
      "channel": 5,
      "note": 63,
      "start": 6.6053,
      "duration": 0.1834,
      "velocity": 114,
      "chip": "ym2612"
    },
    {
      "channel": 0,
      "note": 51,
      "start": 6.7158,
      "duration": 0.0725,
      "velocity": 127,
      "chip": "ym2612"
    },
    {
      "channel": 3,
      "note": 61,
      "start": 6.7161,
      "duration": 0.0724,
      "velocity": 80,
      "chip": "ym2612"
    },
    {
      "channel": 0,
      "note": 41,
      "start": 6.8255,
      "duration": 0.0737,
      "velocity": 112,
      "chip": "ym2612"
    },
    {
      "channel": 1,
      "note": 51,
      "start": 6.8258,
      "duration": 0.1836,
      "velocity": 127,
      "chip": "ym2612"
    },
    {
      "channel": 3,
      "note": 73,
      "start": 6.8261,
      "duration": 0.0735,
      "velocity": 80,
      "chip": "ym2612"
    },
    {
      "channel": 5,
      "note": 65,
      "start": 6.8263,
      "duration": 0.1833,
      "velocity": 114,
      "chip": "ym2612"
    },
    {
      "channel": 0,
      "note": 51,
      "start": 6.9368,
      "duration": 0.0726,
      "velocity": 127,
      "chip": "ym2612"
    },
    {
      "channel": 3,
      "note": 73,
      "start": 6.9371,
      "duration": 0.0725,
      "velocity": 80,
      "chip": "ym2612"
    },
    {
      "channel": 0,
      "note": 41,
      "start": 7.0466,
      "duration": 0.0749,
      "velocity": 112,
      "chip": "ym2612"
    },
    {
      "channel": 1,
      "note": 51,
      "start": 7.0469,
      "duration": 0.4032,
      "velocity": 127,
      "chip": "ym2612"
    },
    {
      "channel": 3,
      "note": 61,
      "start": 7.0473,
      "duration": 0.0744,
      "velocity": 80,
      "chip": "ym2612"
    },
    {
      "channel": 4,
      "note": 56,
      "start": 7.0483,
      "duration": 0.2927,
      "velocity": 117,
      "chip": "ym2612"
    },
    {
      "channel": 5,
      "note": 56,
      "start": 7.0486,
      "duration": 0.1833,
      "velocity": 114,
      "chip": "ym2612"
    },
    {
      "channel": 0,
      "note": 51,
      "start": 7.1591,
      "duration": 0.0726,
      "velocity": 127,
      "chip": "ym2612"
    },
    {
      "channel": 3,
      "note": 61,
      "start": 7.1594,
      "duration": 0.0724,
      "velocity": 80,
      "chip": "ym2612"
    },
    {
      "channel": 0,
      "note": 51,
      "start": 7.268,
      "duration": 0.0727,
      "velocity": 127,
      "chip": "ym2612"
    },
    {
      "channel": 3,
      "note": 73,
      "start": 7.2683,
      "duration": 0.0726,
      "velocity": 80,
      "chip": "ym2612"
    },
    {
      "channel": 5,
      "note": 56,
      "start": 7.2686,
      "duration": 0.0725,
      "velocity": 114,
      "chip": "ym2612"
    },
    {
      "channel": 0,
      "note": 51,
      "start": 7.3772,
      "duration": 0.0729,
      "velocity": 127,
      "chip": "ym2612"
    },
    {
      "channel": 3,
      "note": 73,
      "start": 7.3775,
      "duration": 0.0728,
      "velocity": 80,
      "chip": "ym2612"
    },
    {
      "channel": 4,
      "note": 58,
      "start": 7.3777,
      "duration": 0.2937,
      "velocity": 117,
      "chip": "ym2612"
    },
    {
      "channel": 5,
      "note": 58,
      "start": 7.3779,
      "duration": 0.1833,
      "velocity": 114,
      "chip": "ym2612"
    },
    {
      "channel": 0,
      "note": 41,
      "start": 7.4872,
      "duration": 0.0736,
      "velocity": 112,
      "chip": "ym2612"
    },
    {
      "channel": 1,
      "note": 51,
      "start": 7.4876,
      "duration": 0.402,
      "velocity": 127,
      "chip": "ym2612"
    },
    {
      "channel": 3,
      "note": 61,
      "start": 7.4878,
      "duration": 0.0733,
      "velocity": 80,
      "chip": "ym2612"
    },
    {
      "channel": 0,
      "note": 51,
      "start": 7.5984,
      "duration": 0.0727,
      "velocity": 127,
      "chip": "ym2612"
    },
    {
      "channel": 3,
      "note": 61,
      "start": 7.5987,
      "duration": 0.0726,
      "velocity": 80,
      "chip": "ym2612"
    },
    {
      "channel": 5,
      "note": 58,
      "start": 7.599,
      "duration": 0.0725,
      "velocity": 114,
      "chip": "ym2612"
    },
    {
      "channel": 0,
      "note": 51,
      "start": 7.7076,
      "duration": 0.0729,
      "velocity": 127,
      "chip": "ym2612"
    },
    {
      "channel": 3,
      "note": 73,
      "start": 7.7079,
      "duration": 0.0728,
      "velocity": 80,
      "chip": "ym2612"
    },
    {
      "channel": 4,
      "note": 61,
      "start": 7.7081,
      "duration": 0.2927,
      "velocity": 117,
      "chip": "ym2612"
    },
    {
      "channel": 5,
      "note": 61,
      "start": 7.7083,
      "duration": 0.1814,
      "velocity": 114,
      "chip": "ym2612"
    },
    {
      "channel": 0,
      "note": 51,
      "start": 7.8169,
      "duration": 0.0725,
      "velocity": 127,
      "chip": "ym2612"
    },
    {
      "channel": 3,
      "note": 73,
      "start": 7.8172,
      "duration": 0.0724,
      "velocity": 80,
      "chip": "ym2612"
    },
    {
      "channel": 0,
      "note": 41,
      "start": 7.9266,
      "duration": 0.0738,
      "velocity": 112,
      "chip": "ym2612"
    },
    {
      "channel": 1,
      "note": 51,
      "start": 7.9269,
      "duration": 0.4021,
      "velocity": 127,
      "chip": "ym2612"
    },
    {
      "channel": 3,
      "note": 61,
      "start": 7.9272,
      "duration": 0.0735,
      "velocity": 80,
      "chip": "ym2612"
    },
    {
      "channel": 5,
      "note": 61,
      "start": 7.9275,
      "duration": 0.0733,
      "velocity": 114,
      "chip": "ym2612"
    },
    {
      "channel": 0,
      "note": 51,
      "start": 8.038,
      "duration": 0.0729,
      "velocity": 127,
      "chip": "ym2612"
    },
    {
      "channel": 3,
      "note": 61,
      "start": 8.0383,
      "duration": 0.0728,
      "velocity": 80,
      "chip": "ym2612"
    },
    {
      "channel": 4,
      "note": 58,
      "start": 8.0385,
      "duration": 0.2907,
      "velocity": 117,
      "chip": "ym2612"
    },
    {
      "channel": 5,
      "note": 58,
      "start": 8.0387,
      "duration": 0.1814,
      "velocity": 114,
      "chip": "ym2612"
    },
    {
      "channel": 0,
      "note": 51,
      "start": 8.1473,
      "duration": 0.0726,
      "velocity": 127,
      "chip": "ym2612"
    },
    {
      "channel": 3,
      "note": 73,
      "start": 8.1476,
      "duration": 0.0724,
      "velocity": 80,
      "chip": "ym2612"
    },
    {
      "channel": 0,
      "note": 51,
      "start": 8.2562,
      "duration": 0.0727,
      "velocity": 127,
      "chip": "ym2612"
    },
    {
      "channel": 3,
      "note": 73,
      "start": 8.2565,
      "duration": 0.0727,
      "velocity": 80,
      "chip": "ym2612"
    },
    {
      "channel": 5,
      "note": 58,
      "start": 8.2568,
      "duration": 0.0725,
      "velocity": 114,
      "chip": "ym2612"
    },
    {
      "channel": 0,
      "note": 41,
      "start": 8.3663,
      "duration": 0.0739,
      "velocity": 112,
      "chip": "ym2612"
    },
    {
      "channel": 1,
      "note": 51,
      "start": 8.3666,
      "duration": 0.1838,
      "velocity": 127,
      "chip": "ym2612"
    },
    {
      "channel": 3,
      "note": 61,
      "start": 8.3668,
      "duration": 0.0736,
      "velocity": 80,
      "chip": "ym2612"
    },
    {
      "channel": 4,
      "note": 63,
      "start": 8.3671,
      "duration": 0.1835,
      "velocity": 117,
      "chip": "ym2612"
    },
    {
      "channel": 5,
      "note": 63,
      "start": 8.3673,
      "duration": 0.1834,
      "velocity": 114,
      "chip": "ym2612"
    },
    {
      "channel": 0,
      "note": 51,
      "start": 8.4777,
      "duration": 0.0726,
      "velocity": 127,
      "chip": "ym2612"
    },
    {
      "channel": 3,
      "note": 61,
      "start": 8.478,
      "duration": 0.0725,
      "velocity": 80,
      "chip": "ym2612"
    },
    {
      "channel": 0,
      "note": 41,
      "start": 8.5875,
      "duration": 0.0739,
      "velocity": 112,
      "chip": "ym2612"
    },
    {
      "channel": 1,
      "note": 51,
      "start": 8.5878,
      "duration": 0.1838,
      "velocity": 127,
      "chip": "ym2612"
    },
    {
      "channel": 3,
      "note": 73,
      "start": 8.588,
      "duration": 0.0736,
      "velocity": 80,
      "chip": "ym2612"
    },
    {
      "channel": 4,
      "note": 65,
      "start": 8.5883,
      "duration": 0.1835,
      "velocity": 117,
      "chip": "ym2612"
    },
    {
      "channel": 5,
      "note": 65,
      "start": 8.5885,
      "duration": 0.1834,
      "velocity": 114,
      "chip": "ym2612"
    },
    {
      "channel": 0,
      "note": 51,
      "start": 8.6989,
      "duration": 0.0726,
      "velocity": 127,
      "chip": "ym2612"
    },
    {
      "channel": 3,
      "note": 73,
      "start": 8.6993,
      "duration": 0.0724,
      "velocity": 80,
      "chip": "ym2612"
    },
    {
      "channel": 0,
      "note": 41,
      "start": 8.8088,
      "duration": 0.0742,
      "velocity": 112,
      "chip": "ym2612"
    },
    {
      "channel": 1,
      "note": 51,
      "start": 8.8091,
      "duration": 0.4025,
      "velocity": 127,
      "chip": "ym2612"
    },
    {
      "channel": 3,
      "note": 61,
      "start": 8.8095,
      "duration": 0.0737,
      "velocity": 80,
      "chip": "ym2612"
    },
    {
      "channel": 4,
      "note": 56,
      "start": 8.8098,
      "duration": 0.2927,
      "velocity": 117,
      "chip": "ym2612"
    },
    {
      "channel": 5,
      "note": 56,
      "start": 8.81,
      "duration": 0.1833,
      "velocity": 114,
      "chip": "ym2612"
    },
    {
      "channel": 0,
      "note": 51,
      "start": 8.9205,
      "duration": 0.0726,
      "velocity": 127,
      "chip": "ym2612"
    },
    {
      "channel": 3,
      "note": 61,
      "start": 8.9208,
      "duration": 0.0724,
      "velocity": 80,
      "chip": "ym2612"
    },
    {
      "channel": 0,
      "note": 51,
      "start": 9.0295,
      "duration": 0.0727,
      "velocity": 127,
      "chip": "ym2612"
    },
    {
      "channel": 3,
      "note": 73,
      "start": 9.0298,
      "duration": 0.0726,
      "velocity": 80,
      "chip": "ym2612"
    },
    {
      "channel": 5,
      "note": 56,
      "start": 9.03,
      "duration": 0.0725,
      "velocity": 114,
      "chip": "ym2612"
    },
    {
      "channel": 0,
      "note": 51,
      "start": 9.1386,
      "duration": 0.0729,
      "velocity": 127,
      "chip": "ym2612"
    },
    {
      "channel": 3,
      "note": 73,
      "start": 9.1389,
      "duration": 0.0728,
      "velocity": 80,
      "chip": "ym2612"
    },
    {
      "channel": 4,
      "note": 58,
      "start": 9.1391,
      "duration": 0.2937,
      "velocity": 117,
      "chip": "ym2612"
    },
    {
      "channel": 5,
      "note": 58,
      "start": 9.1393,
      "duration": 0.1833,
      "velocity": 114,
      "chip": "ym2612"
    },
    {
      "channel": 0,
      "note": 41,
      "start": 9.2487,
      "duration": 0.0736,
      "velocity": 112,
      "chip": "ym2612"
    },
    {
      "channel": 1,
      "note": 51,
      "start": 9.249,
      "duration": 0.402,
      "velocity": 127,
      "chip": "ym2612"
    },
    {
      "channel": 3,
      "note": 61,
      "start": 9.2493,
      "duration": 0.0733,
      "velocity": 80,
      "chip": "ym2612"
    },
    {
      "channel": 0,
      "note": 51,
      "start": 9.3598,
      "duration": 0.0727,
      "velocity": 127,
      "chip": "ym2612"
    },
    {
      "channel": 3,
      "note": 61,
      "start": 9.3601,
      "duration": 0.0726,
      "velocity": 80,
      "chip": "ym2612"
    },
    {
      "channel": 5,
      "note": 58,
      "start": 9.3604,
      "duration": 0.0725,
      "velocity": 114,
      "chip": "ym2612"
    },
    {
      "channel": 0,
      "note": 51,
      "start": 9.469,
      "duration": 0.0729,
      "velocity": 127,
      "chip": "ym2612"
    },
    {
      "channel": 3,
      "note": 73,
      "start": 9.4693,
      "duration": 0.0728,
      "velocity": 80,
      "chip": "ym2612"
    },
    {
      "channel": 4,
      "note": 61,
      "start": 9.4695,
      "duration": 0.2926,
      "velocity": 117,
      "chip": "ym2612"
    },
    {
      "channel": 5,
      "note": 61,
      "start": 9.4698,
      "duration": 0.1814,
      "velocity": 114,
      "chip": "ym2612"
    },
    {
      "channel": 0,
      "note": 51,
      "start": 9.5783,
      "duration": 0.0726,
      "velocity": 127,
      "chip": "ym2612"
    },
    {
      "channel": 3,
      "note": 73,
      "start": 9.5786,
      "duration": 0.0725,
      "velocity": 80,
      "chip": "ym2612"
    },
    {
      "channel": 0,
      "note": 41,
      "start": 9.688,
      "duration": 0.0738,
      "velocity": 112,
      "chip": "ym2612"
    },
    {
      "channel": 1,
      "note": 51,
      "start": 9.6883,
      "duration": 0.4021,
      "velocity": 127,
      "chip": "ym2612"
    },
    {
      "channel": 3,
      "note": 61,
      "start": 9.6886,
      "duration": 0.0735,
      "velocity": 80,
      "chip": "ym2612"
    },
    {
      "channel": 5,
      "note": 61,
      "start": 9.6889,
      "duration": 0.0734,
      "velocity": 114,
      "chip": "ym2612"
    },
    {
      "channel": 0,
      "note": 51,
      "start": 9.7994,
      "duration": 0.0729,
      "velocity": 127,
      "chip": "ym2612"
    },
    {
      "channel": 3,
      "note": 61,
      "start": 9.7997,
      "duration": 0.0728,
      "velocity": 80,
      "chip": "ym2612"
    },
    {
      "channel": 4,
      "note": 58,
      "start": 9.7999,
      "duration": 0.2907,
      "velocity": 117,
      "chip": "ym2612"
    },
    {
      "channel": 5,
      "note": 58,
      "start": 9.8001,
      "duration": 0.1814,
      "velocity": 114,
      "chip": "ym2612"
    },
    {
      "channel": 0,
      "note": 51,
      "start": 9.9087,
      "duration": 0.0726,
      "velocity": 127,
      "chip": "ym2612"
    },
    {
      "channel": 3,
      "note": 73,
      "start": 9.909,
      "duration": 0.0724,
      "velocity": 80,
      "chip": "ym2612"
    },
    {
      "channel": 0,
      "note": 51,
      "start": 10.0176,
      "duration": 0.0727,
      "velocity": 127,
      "chip": "ym2612"
    },
    {
      "channel": 3,
      "note": 73,
      "start": 10.0179,
      "duration": 0.0727,
      "velocity": 80,
      "chip": "ym2612"
    },
    {
      "channel": 5,
      "note": 58,
      "start": 10.0182,
      "duration": 0.0725,
      "velocity": 114,
      "chip": "ym2612"
    },
    {
      "channel": 0,
      "note": 41,
      "start": 10.1277,
      "duration": 0.0739,
      "velocity": 112,
      "chip": "ym2612"
    },
    {
      "channel": 1,
      "note": 51,
      "start": 10.128,
      "duration": 0.1838,
      "velocity": 127,
      "chip": "ym2612"
    },
    {
      "channel": 3,
      "note": 61,
      "start": 10.1283,
      "duration": 0.0736,
      "velocity": 80,
      "chip": "ym2612"
    },
    {
      "channel": 4,
      "note": 63,
      "start": 10.1285,
      "duration": 0.1835,
      "velocity": 117,
      "chip": "ym2612"
    },
    {
      "channel": 5,
      "note": 63,
      "start": 10.1287,
      "duration": 0.1834,
      "velocity": 114,
      "chip": "ym2612"
    },
    {
      "channel": 0,
      "note": 51,
      "start": 10.2392,
      "duration": 0.0726,
      "velocity": 127,
      "chip": "ym2612"
    },
    {
      "channel": 3,
      "note": 61,
      "start": 10.2395,
      "duration": 0.0725,
      "velocity": 80,
      "chip": "ym2612"
    },
    {
      "channel": 0,
      "note": 41,
      "start": 10.3489,
      "duration": 0.0739,
      "velocity": 112,
      "chip": "ym2612"
    },
    {
      "channel": 1,
      "note": 51,
      "start": 10.3492,
      "duration": 0.1838,
      "velocity": 127,
      "chip": "ym2612"
    },
    {
      "channel": 3,
      "note": 73,
      "start": 10.3495,
      "duration": 0.0736,
      "velocity": 80,
      "chip": "ym2612"
    },
    {
      "channel": 4,
      "note": 65,
      "start": 10.3497,
      "duration": 0.1835,
      "velocity": 117,
      "chip": "ym2612"
    },
    {
      "channel": 5,
      "note": 65,
      "start": 10.3499,
      "duration": 0.1834,
      "velocity": 114,
      "chip": "ym2612"
    },
    {
      "channel": 0,
      "note": 51,
      "start": 10.4604,
      "duration": 0.0726,
      "velocity": 127,
      "chip": "ym2612"
    },
    {
      "channel": 3,
      "note": 73,
      "start": 10.4607,
      "duration": 0.0725,
      "velocity": 80,
      "chip": "ym2612"
    },
    {
      "channel": 0,
      "note": 41,
      "start": 10.5702,
      "duration": 0.0742,
      "velocity": 112,
      "chip": "ym2612"
    },
    {
      "channel": 1,
      "note": 51,
      "start": 10.5705,
      "duration": 0.4025,
      "velocity": 127,
      "chip": "ym2612"
    },
    {
      "channel": 3,
      "note": 61,
      "start": 10.5709,
      "duration": 0.0737,
      "velocity": 80,
      "chip": "ym2612"
    },
    {
      "channel": 4,
      "note": 56,
      "start": 10.5712,
      "duration": 0.2927,
      "velocity": 117,
      "chip": "ym2612"
    },
    {
      "channel": 5,
      "note": 56,
      "start": 10.5715,
      "duration": 0.1833,
      "velocity": 114,
      "chip": "ym2612"
    },
    {
      "channel": 0,
      "note": 51,
      "start": 10.6819,
      "duration": 0.0726,
      "velocity": 127,
      "chip": "ym2612"
    },
    {
      "channel": 3,
      "note": 61,
      "start": 10.6822,
      "duration": 0.0724,
      "velocity": 80,
      "chip": "ym2612"
    },
    {
      "channel": 0,
      "note": 51,
      "start": 10.7909,
      "duration": 0.0727,
      "velocity": 127,
      "chip": "ym2612"
    },
    {
      "channel": 3,
      "note": 73,
      "start": 10.7912,
      "duration": 0.0726,
      "velocity": 80,
      "chip": "ym2612"
    },
    {
      "channel": 5,
      "note": 56,
      "start": 10.7915,
      "duration": 0.0725,
      "velocity": 114,
      "chip": "ym2612"
    },
    {
      "channel": 0,
      "note": 51,
      "start": 10.9,
      "duration": 0.0729,
      "velocity": 127,
      "chip": "ym2612"
    },
    {
      "channel": 3,
      "note": 73,
      "start": 10.9003,
      "duration": 0.0728,
      "velocity": 80,
      "chip": "ym2612"
    },
    {
      "channel": 4,
      "note": 58,
      "start": 10.9005,
      "duration": 0.2937,
      "velocity": 117,
      "chip": "ym2612"
    },
    {
      "channel": 5,
      "note": 58,
      "start": 10.9008,
      "duration": 0.1833,
      "velocity": 114,
      "chip": "ym2612"
    },
    {
      "channel": 0,
      "note": 41,
      "start": 11.0101,
      "duration": 0.0736,
      "velocity": 112,
      "chip": "ym2612"
    },
    {
      "channel": 1,
      "note": 51,
      "start": 11.0104,
      "duration": 0.402,
      "velocity": 127,
      "chip": "ym2612"
    },
    {
      "channel": 3,
      "note": 61,
      "start": 11.0107,
      "duration": 0.0733,
      "velocity": 80,
      "chip": "ym2612"
    },
    {
      "channel": 0,
      "note": 51,
      "start": 11.1213,
      "duration": 0.0727,
      "velocity": 127,
      "chip": "ym2612"
    },
    {
      "channel": 3,
      "note": 61,
      "start": 11.1216,
      "duration": 0.0726,
      "velocity": 80,
      "chip": "ym2612"
    },
    {
      "channel": 5,
      "note": 58,
      "start": 11.1218,
      "duration": 0.0725,
      "velocity": 114,
      "chip": "ym2612"
    },
    {
      "channel": 0,
      "note": 51,
      "start": 11.2304,
      "duration": 0.0729,
      "velocity": 127,
      "chip": "ym2612"
    },
    {
      "channel": 3,
      "note": 73,
      "start": 11.2307,
      "duration": 0.0728,
      "velocity": 80,
      "chip": "ym2612"
    },
    {
      "channel": 4,
      "note": 61,
      "start": 11.2309,
      "duration": 0.2927,
      "velocity": 117,
      "chip": "ym2612"
    },
    {
      "channel": 5,
      "note": 61,
      "start": 11.2312,
      "duration": 0.1814,
      "velocity": 114,
      "chip": "ym2612"
    },
    {
      "channel": 0,
      "note": 51,
      "start": 11.3397,
      "duration": 0.0726,
      "velocity": 127,
      "chip": "ym2612"
    },
    {
      "channel": 3,
      "note": 73,
      "start": 11.34,
      "duration": 0.0725,
      "velocity": 80,
      "chip": "ym2612"
    },
    {
      "channel": 0,
      "note": 41,
      "start": 11.4495,
      "duration": 0.0738,
      "velocity": 112,
      "chip": "ym2612"
    },
    {
      "channel": 1,
      "note": 51,
      "start": 11.4498,
      "duration": 0.4021,
      "velocity": 127,
      "chip": "ym2612"
    },
    {
      "channel": 3,
      "note": 61,
      "start": 11.45,
      "duration": 0.0735,
      "velocity": 80,
      "chip": "ym2612"
    },
    {
      "channel": 5,
      "note": 61,
      "start": 11.4503,
      "duration": 0.0734,
      "velocity": 114,
      "chip": "ym2612"
    },
    {
      "channel": 0,
      "note": 51,
      "start": 11.5608,
      "duration": 0.0729,
      "velocity": 127,
      "chip": "ym2612"
    },
    {
      "channel": 3,
      "note": 61,
      "start": 11.5611,
      "duration": 0.0728,
      "velocity": 80,
      "chip": "ym2612"
    },
    {
      "channel": 4,
      "note": 58,
      "start": 11.5613,
      "duration": 0.2907,
      "velocity": 117,
      "chip": "ym2612"
    },
    {
      "channel": 5,
      "note": 58,
      "start": 11.5616,
      "duration": 0.1814,
      "velocity": 114,
      "chip": "ym2612"
    },
    {
      "channel": 0,
      "note": 51,
      "start": 11.6701,
      "duration": 0.0726,
      "velocity": 127,
      "chip": "ym2612"
    },
    {
      "channel": 3,
      "note": 73,
      "start": 11.6704,
      "duration": 0.0724,
      "velocity": 80,
      "chip": "ym2612"
    },
    {
      "channel": 0,
      "note": 51,
      "start": 11.7791,
      "duration": 0.0727,
      "velocity": 127,
      "chip": "ym2612"
    },
    {
      "channel": 3,
      "note": 73,
      "start": 11.7794,
      "duration": 0.0726,
      "velocity": 80,
      "chip": "ym2612"
    },
    {
      "channel": 5,
      "note": 58,
      "start": 11.7796,
      "duration": 0.0725,
      "velocity": 114,
      "chip": "ym2612"
    },
    {
      "channel": 0,
      "note": 41,
      "start": 11.8891,
      "duration": 0.0739,
      "velocity": 112,
      "chip": "ym2612"
    },
    {
      "channel": 1,
      "note": 51,
      "start": 11.8894,
      "duration": 0.1838,
      "velocity": 127,
      "chip": "ym2612"
    },
    {
      "channel": 3,
      "note": 61,
      "start": 11.8897,
      "duration": 0.0736,
      "velocity": 80,
      "chip": "ym2612"
    },
    {
      "channel": 4,
      "note": 63,
      "start": 11.8899,
      "duration": 0.1835,
      "velocity": 117,
      "chip": "ym2612"
    },
    {
      "channel": 5,
      "note": 63,
      "start": 11.8901,
      "duration": 0.1834,
      "velocity": 114,
      "chip": "ym2612"
    },
    {
      "channel": 0,
      "note": 51,
      "start": 12.0006,
      "duration": 0.0726,
      "velocity": 127,
      "chip": "ym2612"
    },
    {
      "channel": 3,
      "note": 61,
      "start": 12.0009,
      "duration": 0.0725,
      "velocity": 80,
      "chip": "ym2612"
    },
    {
      "channel": 0,
      "note": 41,
      "start": 12.1104,
      "duration": 0.0739,
      "velocity": 112,
      "chip": "ym2612"
    },
    {
      "channel": 1,
      "note": 51,
      "start": 12.1107,
      "duration": 0.1838,
      "velocity": 127,
      "chip": "ym2612"
    },
    {
      "channel": 3,
      "note": 73,
      "start": 12.1109,
      "duration": 0.0736,
      "velocity": 80,
      "chip": "ym2612"
    },
    {
      "channel": 4,
      "note": 65,
      "start": 12.1111,
      "duration": 0.1835,
      "velocity": 117,
      "chip": "ym2612"
    },
    {
      "channel": 5,
      "note": 65,
      "start": 12.1113,
      "duration": 0.1834,
      "velocity": 114,
      "chip": "ym2612"
    },
    {
      "channel": 0,
      "note": 51,
      "start": 12.2218,
      "duration": 0.0726,
      "velocity": 127,
      "chip": "ym2612"
    },
    {
      "channel": 3,
      "note": 73,
      "start": 12.2221,
      "duration": 0.0725,
      "velocity": 80,
      "chip": "ym2612"
    },
    {
      "channel": 5,
      "note": 56,
      "start": 12.3316,
      "duration": 0.181,
      "velocity": 114,
      "chip": "ym2612"
    },
    {
      "channel": 5,
      "note": 56,
      "start": 12.549,
      "duration": 0.0724,
      "velocity": 114,
      "chip": "ym2612"
    },
    {
      "channel": 5,
      "note": 58,
      "start": 12.6578,
      "duration": 0.181,
      "velocity": 114,
      "chip": "ym2612"
    },
    {
      "channel": 5,
      "note": 58,
      "start": 12.8751,
      "duration": 0.0724,
      "velocity": 114,
      "chip": "ym2612"
    },
    {
      "channel": 5,
      "note": 61,
      "start": 12.9839,
      "duration": 0.181,
      "velocity": 114,
      "chip": "ym2612"
    },
    {
      "channel": 5,
      "note": 61,
      "start": 13.2013,
      "duration": 0.0724,
      "velocity": 114,
      "chip": "ym2612"
    },
    {
      "channel": 5,
      "note": 58,
      "start": 13.3101,
      "duration": 0.181,
      "velocity": 114,
      "chip": "ym2612"
    },
    {
      "channel": 5,
      "note": 58,
      "start": 13.5275,
      "duration": 0.0724,
      "velocity": 114,
      "chip": "ym2612"
    },
    {
      "channel": 1,
      "note": 48,
      "start": 13.6368,
      "duration": 0.0734,
      "velocity": 112,
      "chip": "ym2612"
    },
    {
      "channel": 5,
      "note": 63,
      "start": 13.6372,
      "duration": 0.1834,
      "velocity": 114,
      "chip": "ym2612"
    },
    {
      "channel": 1,
      "note": 48,
      "start": 13.747,
      "duration": 0.0733,
      "velocity": 112,
      "chip": "ym2612"
    },
    {
      "channel": 1,
      "note": 48,
      "start": 13.8571,
      "duration": 0.0734,
      "velocity": 112,
      "chip": "ym2612"
    },
    {
      "channel": 5,
      "note": 65,
      "start": 13.8576,
      "duration": 0.1834,
      "velocity": 114,
      "chip": "ym2612"
    },
    {
      "channel": 1,
      "note": 48,
      "start": 13.9674,
      "duration": 0.0732,
      "velocity": 112,
      "chip": "ym2612"
    },
    {
      "channel": 0,
      "note": 41,
      "start": 14.0782,
      "duration": 0.0766,
      "velocity": 112,
      "chip": "ym2612"
    },
    {
      "channel": 1,
      "note": 49,
      "start": 14.0793,
      "duration": 0.4038,
      "velocity": 119,
      "chip": "ym2612"
    },
    {
      "channel": 2,
      "note": 32,
      "start": 14.0804,
      "duration": 0.1845,
      "velocity": 97,
      "chip": "ym2612"
    },
    {
      "channel": 4,
      "note": 56,
      "start": 14.0809,
      "duration": 0.2932,
      "velocity": 117,
      "chip": "ym2612"
    },
    {
      "channel": 5,
      "note": 56,
      "start": 14.0819,
      "duration": 0.1832,
      "velocity": 114,
      "chip": "ym2612"
    },
    {
      "channel": 0,
      "note": 51,
      "start": 14.1923,
      "duration": 0.0724,
      "velocity": 127,
      "chip": "ym2612"
    },
    {
      "channel": 0,
      "note": 51,
      "start": 14.3011,
      "duration": 0.1819,
      "velocity": 127,
      "chip": "ym2612"
    },
    {
      "channel": 2,
      "note": 32,
      "start": 14.3014,
      "duration": 0.0726,
      "velocity": 97,
      "chip": "ym2612"
    },
    {
      "channel": 5,
      "note": 56,
      "start": 14.3017,
      "duration": 0.0725,
      "velocity": 114,
      "chip": "ym2612"
    },
    {
      "channel": 2,
      "note": 34,
      "start": 14.4104,
      "duration": 0.1851,
      "velocity": 97,
      "chip": "ym2612"
    },
    {
      "channel": 4,
      "note": 58,
      "start": 14.4106,
      "duration": 0.2966,
      "velocity": 117,
      "chip": "ym2612"
    },
    {
      "channel": 5,
      "note": 58,
      "start": 14.4109,
      "duration": 0.1848,
      "velocity": 114,
      "chip": "ym2612"
    },
    {
      "channel": 0,
      "note": 41,
      "start": 14.5201,
      "duration": 0.075,
      "velocity": 112,
      "chip": "ym2612"
    },
    {
      "channel": 1,
      "note": 48,
      "start": 14.5212,
      "duration": 0.0741,
      "velocity": 112,
      "chip": "ym2612"
    },
    {
      "channel": 0,
      "note": 51,
      "start": 14.6332,
      "duration": 0.0737,
      "velocity": 127,
      "chip": "ym2612"
    },
    {
      "channel": 2,
      "note": 34,
      "start": 14.6336,
      "duration": 0.0735,
      "velocity": 97,
      "chip": "ym2612"
    },
    {
      "channel": 5,
      "note": 58,
      "start": 14.6339,
      "duration": 0.0733,
      "velocity": 114,
      "chip": "ym2612"
    },
    {
      "channel": 0,
      "note": 51,
      "start": 14.7437,
      "duration": 0.0737,
      "velocity": 127,
      "chip": "ym2612"
    },
    {
      "channel": 2,
      "note": 37,
      "start": 14.7441,
      "duration": 0.1839,
      "velocity": 97,
      "chip": "ym2612"
    },
    {
      "channel": 4,
      "note": 61,
      "start": 14.7443,
      "duration": 0.2959,
      "velocity": 117,
      "chip": "ym2612"
    },
    {
      "channel": 5,
      "note": 61,
      "start": 14.7445,
      "duration": 0.1836,
      "velocity": 114,
      "chip": "ym2612"
    },
    {
      "channel": 0,
      "note": 51,
      "start": 14.8542,
      "duration": 0.0735,
      "velocity": 127,
      "chip": "ym2612"
    },
    {
      "channel": 1,
      "note": 48,
      "start": 14.8545,
      "duration": 0.0733,
      "velocity": 112,
      "chip": "ym2612"
    },
    {
      "channel": 0,
      "note": 41,
      "start": 14.9653,
      "duration": 0.0745,
      "velocity": 112,
      "chip": "ym2612"
    },
    {
      "channel": 1,
      "note": 51,
      "start": 14.9663,
      "duration": 0.0736,
      "velocity": 127,
      "chip": "ym2612"
    },
    {
      "channel": 2,
      "note": 37,
      "start": 14.9666,
      "duration": 0.0735,
      "velocity": 97,
      "chip": "ym2612"
    },
    {
      "channel": 5,
      "note": 61,
      "start": 14.9669,
      "duration": 0.0734,
      "velocity": 114,
      "chip": "ym2612"
    },
    {
      "channel": 0,
      "note": 51,
      "start": 15.0774,
      "duration": 0.0746,
      "velocity": 127,
      "chip": "ym2612"
    },
    {
      "channel": 1,
      "note": 48,
      "start": 15.0783,
      "duration": 0.0738,
      "velocity": 112,
      "chip": "ym2612"
    },
    {
      "channel": 2,
      "note": 34,
      "start": 15.0786,
      "duration": 0.1838,
      "velocity": 97,
      "chip": "ym2612"
    },
    {
      "channel": 4,
      "note": 58,
      "start": 15.0789,
      "duration": 0.2941,
      "velocity": 117,
      "chip": "ym2612"
    },
    {
      "channel": 5,
      "note": 58,
      "start": 15.0791,
      "duration": 0.1835,
      "velocity": 114,
      "chip": "ym2612"
    },
    {
      "channel": 0,
      "note": 51,
      "start": 15.1888,
      "duration": 0.0733,
      "velocity": 127,
      "chip": "ym2612"
    },
    {
      "channel": 0,
      "note": 51,
      "start": 15.299,
      "duration": 0.0736,
      "velocity": 127,
      "chip": "ym2612"
    },
    {
      "channel": 2,
      "note": 34,
      "start": 15.2994,
      "duration": 0.0735,
      "velocity": 97,
      "chip": "ym2612"
    },
    {
      "channel": 5,
      "note": 58,
      "start": 15.2997,
      "duration": 0.0734,
      "velocity": 114,
      "chip": "ym2612"
    },
    {
      "channel": 0,
      "note": 41,
      "start": 15.4103,
      "duration": 0.0748,
      "velocity": 112,
      "chip": "ym2612"
    },
    {
      "channel": 1,
      "note": 48,
      "start": 15.4106,
      "duration": 0.0746,
      "velocity": 112,
      "chip": "ym2612"
    },
    {
      "channel": 2,
      "note": 39,
      "start": 15.4109,
      "duration": 0.1857,
      "velocity": 97,
      "chip": "ym2612"
    },
    {
      "channel": 4,
      "note": 63,
      "start": 15.4112,
      "duration": 0.1856,
      "velocity": 117,
      "chip": "ym2612"
    },
    {
      "channel": 5,
      "note": 63,
      "start": 15.4114,
      "duration": 0.1854,
      "velocity": 114,
      "chip": "ym2612"
    },
    {
      "channel": 0,
      "note": 51,
      "start": 15.523,
      "duration": 0.0733,
      "velocity": 127,
      "chip": "ym2612"
    },
    {
      "channel": 0,
      "note": 41,
      "start": 15.634,
      "duration": 0.0746,
      "velocity": 112,
      "chip": "ym2612"
    },
    {
      "channel": 1,
      "note": 51,
      "start": 15.6351,
      "duration": 0.0738,
      "velocity": 127,
      "chip": "ym2612"
    },
    {
      "channel": 2,
      "note": 41,
      "start": 15.6353,
      "duration": 0.1853,
      "velocity": 97,
      "chip": "ym2612"
    },
    {
      "channel": 4,
      "note": 65,
      "start": 15.6355,
      "duration": 0.1852,
      "velocity": 117,
      "chip": "ym2612"
    },
    {
      "channel": 5,
      "note": 65,
      "start": 15.6357,
      "duration": 0.1851,
      "velocity": 114,
      "chip": "ym2612"
    },
    {
      "channel": 0,
      "note": 51,
      "start": 15.7462,
      "duration": 0.0741,
      "velocity": 127,
      "chip": "ym2612"
    },
    {
      "channel": 1,
      "note": 48,
      "start": 15.7471,
      "duration": 0.0733,
      "velocity": 112,
      "chip": "ym2612"
    },
    {
      "channel": 0,
      "note": 41,
      "start": 15.858,
      "duration": 0.0749,
      "velocity": 112,
      "chip": "ym2612"
    },
    {
      "channel": 1,
      "note": 49,
      "start": 15.8591,
      "duration": 0.4021,
      "velocity": 127,
      "chip": "ym2612"
    },
    {
      "channel": 2,
      "note": 32,
      "start": 15.8593,
      "duration": 0.1837,
      "velocity": 97,
      "chip": "ym2612"
    },
    {
      "channel": 4,
      "note": 56,
      "start": 15.8598,
      "duration": 0.2925,
      "velocity": 117,
      "chip": "ym2612"
    },
    {
      "channel": 5,
      "note": 56,
      "start": 15.86,
      "duration": 0.1832,
      "velocity": 114,
      "chip": "ym2612"
    },
    {
      "channel": 0,
      "note": 51,
      "start": 15.9705,
      "duration": 0.0724,
      "velocity": 127,
      "chip": "ym2612"
    },
    {
      "channel": 0,
      "note": 51,
      "start": 16.0793,
      "duration": 0.1819,
      "velocity": 127,
      "chip": "ym2612"
    },
    {
      "channel": 2,
      "note": 32,
      "start": 16.0795,
      "duration": 0.0726,
      "velocity": 97,
      "chip": "ym2612"
    },
    {
      "channel": 5,
      "note": 56,
      "start": 16.0798,
      "duration": 0.0725,
      "velocity": 114,
      "chip": "ym2612"
    },
    {
      "channel": 2,
      "note": 34,
      "start": 16.1885,
      "duration": 0.1851,
      "velocity": 97,
      "chip": "ym2612"
    },
    {
      "channel": 4,
      "note": 58,
      "start": 16.1888,
      "duration": 0.2966,
      "velocity": 117,
      "chip": "ym2612"
    },
    {
      "channel": 5,
      "note": 58,
      "start": 16.189,
      "duration": 0.1848,
      "velocity": 114,
      "chip": "ym2612"
    },
    {
      "channel": 0,
      "note": 41,
      "start": 16.2983,
      "duration": 0.075,
      "velocity": 112,
      "chip": "ym2612"
    },
    {
      "channel": 1,
      "note": 48,
      "start": 16.2993,
      "duration": 0.0741,
      "velocity": 112,
      "chip": "ym2612"
    },
    {
      "channel": 0,
      "note": 51,
      "start": 16.4113,
      "duration": 0.0737,
      "velocity": 127,
      "chip": "ym2612"
    },
    {
      "channel": 2,
      "note": 34,
      "start": 16.4117,
      "duration": 0.0735,
      "velocity": 97,
      "chip": "ym2612"
    },
    {
      "channel": 5,
      "note": 58,
      "start": 16.4121,
      "duration": 0.0733,
      "velocity": 114,
      "chip": "ym2612"
    },
    {
      "channel": 0,
      "note": 51,
      "start": 16.5218,
      "duration": 0.0737,
      "velocity": 127,
      "chip": "ym2612"
    },
    {
      "channel": 2,
      "note": 37,
      "start": 16.5222,
      "duration": 0.1839,
      "velocity": 97,
      "chip": "ym2612"
    },
    {
      "channel": 4,
      "note": 61,
      "start": 16.5224,
      "duration": 0.2959,
      "velocity": 117,
      "chip": "ym2612"
    },
    {
      "channel": 5,
      "note": 61,
      "start": 16.5227,
      "duration": 0.1836,
      "velocity": 114,
      "chip": "ym2612"
    },
    {
      "channel": 0,
      "note": 51,
      "start": 16.6324,
      "duration": 0.0735,
      "velocity": 127,
      "chip": "ym2612"
    },
    {
      "channel": 1,
      "note": 48,
      "start": 16.6326,
      "duration": 0.0733,
      "velocity": 112,
      "chip": "ym2612"
    },
    {
      "channel": 0,
      "note": 41,
      "start": 16.7434,
      "duration": 0.0745,
      "velocity": 112,
      "chip": "ym2612"
    },
    {
      "channel": 1,
      "note": 51,
      "start": 16.7445,
      "duration": 0.0736,
      "velocity": 127,
      "chip": "ym2612"
    },
    {
      "channel": 2,
      "note": 37,
      "start": 16.7447,
      "duration": 0.0735,
      "velocity": 97,
      "chip": "ym2612"
    },
    {
      "channel": 5,
      "note": 61,
      "start": 16.745,
      "duration": 0.0734,
      "velocity": 114,
      "chip": "ym2612"
    },
    {
      "channel": 0,
      "note": 51,
      "start": 16.8556,
      "duration": 0.0746,
      "velocity": 127,
      "chip": "ym2612"
    },
    {
      "channel": 1,
      "note": 48,
      "start": 16.8565,
      "duration": 0.0738,
      "velocity": 112,
      "chip": "ym2612"
    },
    {
      "channel": 2,
      "note": 34,
      "start": 16.8568,
      "duration": 0.1838,
      "velocity": 97,
      "chip": "ym2612"
    },
    {
      "channel": 4,
      "note": 58,
      "start": 16.857,
      "duration": 0.2941,
      "velocity": 117,
      "chip": "ym2612"
    },
    {
      "channel": 5,
      "note": 58,
      "start": 16.8573,
      "duration": 0.1835,
      "velocity": 114,
      "chip": "ym2612"
    },
    {
      "channel": 0,
      "note": 51,
      "start": 16.967,
      "duration": 0.0734,
      "velocity": 127,
      "chip": "ym2612"
    },
    {
      "channel": 0,
      "note": 51,
      "start": 17.0771,
      "duration": 0.0736,
      "velocity": 127,
      "chip": "ym2612"
    },
    {
      "channel": 2,
      "note": 34,
      "start": 17.0775,
      "duration": 0.0735,
      "velocity": 97,
      "chip": "ym2612"
    },
    {
      "channel": 5,
      "note": 58,
      "start": 17.0778,
      "duration": 0.0734,
      "velocity": 114,
      "chip": "ym2612"
    },
    {
      "channel": 0,
      "note": 41,
      "start": 17.1884,
      "duration": 0.0748,
      "velocity": 112,
      "chip": "ym2612"
    },
    {
      "channel": 1,
      "note": 48,
      "start": 17.1888,
      "duration": 0.0746,
      "velocity": 112,
      "chip": "ym2612"
    },
    {
      "channel": 2,
      "note": 39,
      "start": 17.1891,
      "duration": 0.1857,
      "velocity": 97,
      "chip": "ym2612"
    },
    {
      "channel": 4,
      "note": 63,
      "start": 17.1893,
      "duration": 0.1856,
      "velocity": 117,
      "chip": "ym2612"
    },
    {
      "channel": 5,
      "note": 63,
      "start": 17.1895,
      "duration": 0.1854,
      "velocity": 114,
      "chip": "ym2612"
    },
    {
      "channel": 0,
      "note": 51,
      "start": 17.3012,
      "duration": 0.0733,
      "velocity": 127,
      "chip": "ym2612"
    },
    {
      "channel": 0,
      "note": 41,
      "start": 17.4121,
      "duration": 0.0746,
      "velocity": 112,
      "chip": "ym2612"
    },
    {
      "channel": 1,
      "note": 51,
      "start": 17.4132,
      "duration": 0.0738,
      "velocity": 127,
      "chip": "ym2612"
    },
    {
      "channel": 2,
      "note": 41,
      "start": 17.4134,
      "duration": 0.1853,
      "velocity": 97,
      "chip": "ym2612"
    },
    {
      "channel": 4,
      "note": 65,
      "start": 17.4137,
      "duration": 0.1852,
      "velocity": 117,
      "chip": "ym2612"
    },
    {
      "channel": 5,
      "note": 65,
      "start": 17.4139,
      "duration": 0.1851,
      "velocity": 114,
      "chip": "ym2612"
    },
    {
      "channel": 0,
      "note": 51,
      "start": 17.5243,
      "duration": 0.0741,
      "velocity": 127,
      "chip": "ym2612"
    },
    {
      "channel": 1,
      "note": 48,
      "start": 17.5253,
      "duration": 0.0733,
      "velocity": 112,
      "chip": "ym2612"
    },
    {
      "channel": 0,
      "note": 41,
      "start": 17.6362,
      "duration": 0.0749,
      "velocity": 112,
      "chip": "ym2612"
    },
    {
      "channel": 1,
      "note": 49,
      "start": 17.6372,
      "duration": 0.4021,
      "velocity": 127,
      "chip": "ym2612"
    },
    {
      "channel": 2,
      "note": 32,
      "start": 17.6375,
      "duration": 0.1837,
      "velocity": 97,
      "chip": "ym2612"
    },
    {
      "channel": 4,
      "note": 56,
      "start": 17.6379,
      "duration": 0.2925,
      "velocity": 117,
      "chip": "ym2612"
    },
    {
      "channel": 5,
      "note": 56,
      "start": 17.6382,
      "duration": 0.1831,
      "velocity": 114,
      "chip": "ym2612"
    },
    {
      "channel": 0,
      "note": 51,
      "start": 17.7486,
      "duration": 0.0724,
      "velocity": 127,
      "chip": "ym2612"
    },
    {
      "channel": 0,
      "note": 51,
      "start": 17.8574,
      "duration": 0.1819,
      "velocity": 127,
      "chip": "ym2612"
    },
    {
      "channel": 2,
      "note": 32,
      "start": 17.8577,
      "duration": 0.0726,
      "velocity": 97,
      "chip": "ym2612"
    },
    {
      "channel": 5,
      "note": 56,
      "start": 17.858,
      "duration": 0.0725,
      "velocity": 114,
      "chip": "ym2612"
    },
    {
      "channel": 2,
      "note": 34,
      "start": 17.9666,
      "duration": 0.1851,
      "velocity": 97,
      "chip": "ym2612"
    },
    {
      "channel": 4,
      "note": 58,
      "start": 17.9669,
      "duration": 0.2966,
      "velocity": 117,
      "chip": "ym2612"
    },
    {
      "channel": 5,
      "note": 58,
      "start": 17.9671,
      "duration": 0.1848,
      "velocity": 114,
      "chip": "ym2612"
    },
    {
      "channel": 0,
      "note": 41,
      "start": 18.0764,
      "duration": 0.075,
      "velocity": 112,
      "chip": "ym2612"
    },
    {
      "channel": 1,
      "note": 48,
      "start": 18.0774,
      "duration": 0.0741,
      "velocity": 112,
      "chip": "ym2612"
    },
    {
      "channel": 0,
      "note": 51,
      "start": 18.1894,
      "duration": 0.0737,
      "velocity": 127,
      "chip": "ym2612"
    },
    {
      "channel": 2,
      "note": 34,
      "start": 18.1899,
      "duration": 0.0735,
      "velocity": 97,
      "chip": "ym2612"
    },
    {
      "channel": 5,
      "note": 58,
      "start": 18.1902,
      "duration": 0.0734,
      "velocity": 114,
      "chip": "ym2612"
    },
    {
      "channel": 0,
      "note": 51,
      "start": 18.3,
      "duration": 0.0737,
      "velocity": 127,
      "chip": "ym2612"
    },
    {
      "channel": 2,
      "note": 37,
      "start": 18.3003,
      "duration": 0.1839,
      "velocity": 97,
      "chip": "ym2612"
    },
    {
      "channel": 4,
      "note": 61,
      "start": 18.3006,
      "duration": 0.2959,
      "velocity": 117,
      "chip": "ym2612"
    },
    {
      "channel": 5,
      "note": 61,
      "start": 18.3008,
      "duration": 0.1836,
      "velocity": 114,
      "chip": "ym2612"
    },
    {
      "channel": 0,
      "note": 51,
      "start": 18.4105,
      "duration": 0.0735,
      "velocity": 127,
      "chip": "ym2612"
    },
    {
      "channel": 1,
      "note": 48,
      "start": 18.4107,
      "duration": 0.0733,
      "velocity": 112,
      "chip": "ym2612"
    },
    {
      "channel": 0,
      "note": 41,
      "start": 18.5216,
      "duration": 0.0745,
      "velocity": 112,
      "chip": "ym2612"
    },
    {
      "channel": 1,
      "note": 51,
      "start": 18.5226,
      "duration": 0.0736,
      "velocity": 127,
      "chip": "ym2612"
    },
    {
      "channel": 2,
      "note": 37,
      "start": 18.5228,
      "duration": 0.0735,
      "velocity": 97,
      "chip": "ym2612"
    },
    {
      "channel": 5,
      "note": 61,
      "start": 18.5232,
      "duration": 0.0734,
      "velocity": 114,
      "chip": "ym2612"
    },
    {
      "channel": 0,
      "note": 51,
      "start": 18.6337,
      "duration": 0.0746,
      "velocity": 127,
      "chip": "ym2612"
    },
    {
      "channel": 1,
      "note": 48,
      "start": 18.6346,
      "duration": 0.0738,
      "velocity": 112,
      "chip": "ym2612"
    },
    {
      "channel": 2,
      "note": 34,
      "start": 18.6349,
      "duration": 0.1838,
      "velocity": 97,
      "chip": "ym2612"
    },
    {
      "channel": 4,
      "note": 58,
      "start": 18.6351,
      "duration": 0.2941,
      "velocity": 117,
      "chip": "ym2612"
    },
    {
      "channel": 5,
      "note": 58,
      "start": 18.6354,
      "duration": 0.1835,
      "velocity": 114,
      "chip": "ym2612"
    },
    {
      "channel": 0,
      "note": 51,
      "start": 18.7451,
      "duration": 0.0733,
      "velocity": 127,
      "chip": "ym2612"
    },
    {
      "channel": 0,
      "note": 51,
      "start": 18.8553,
      "duration": 0.0736,
      "velocity": 127,
      "chip": "ym2612"
    },
    {
      "channel": 2,
      "note": 34,
      "start": 18.8556,
      "duration": 0.0735,
      "velocity": 97,
      "chip": "ym2612"
    },
    {
      "channel": 5,
      "note": 58,
      "start": 18.856,
      "duration": 0.0734,
      "velocity": 114,
      "chip": "ym2612"
    },
    {
      "channel": 0,
      "note": 41,
      "start": 18.9665,
      "duration": 0.0748,
      "velocity": 112,
      "chip": "ym2612"
    },
    {
      "channel": 1,
      "note": 48,
      "start": 18.9669,
      "duration": 0.0746,
      "velocity": 112,
      "chip": "ym2612"
    },
    {
      "channel": 2,
      "note": 39,
      "start": 18.9672,
      "duration": 0.1857,
      "velocity": 97,
      "chip": "ym2612"
    },
    {
      "channel": 4,
      "note": 63,
      "start": 18.9674,
      "duration": 0.1856,
      "velocity": 117,
      "chip": "ym2612"
    },
    {
      "channel": 5,
      "note": 63,
      "start": 18.9677,
      "duration": 0.1854,
      "velocity": 114,
      "chip": "ym2612"
    },
    {
      "channel": 0,
      "note": 51,
      "start": 19.0793,
      "duration": 0.0733,
      "velocity": 127,
      "chip": "ym2612"
    },
    {
      "channel": 0,
      "note": 41,
      "start": 19.1903,
      "duration": 0.0746,
      "velocity": 112,
      "chip": "ym2612"
    },
    {
      "channel": 1,
      "note": 51,
      "start": 19.1913,
      "duration": 0.0738,
      "velocity": 127,
      "chip": "ym2612"
    },
    {
      "channel": 2,
      "note": 41,
      "start": 19.1915,
      "duration": 0.1853,
      "velocity": 97,
      "chip": "ym2612"
    },
    {
      "channel": 4,
      "note": 65,
      "start": 19.1918,
      "duration": 0.1852,
      "velocity": 117,
      "chip": "ym2612"
    },
    {
      "channel": 5,
      "note": 65,
      "start": 19.192,
      "duration": 0.1851,
      "velocity": 114,
      "chip": "ym2612"
    },
    {
      "channel": 0,
      "note": 51,
      "start": 19.3025,
      "duration": 0.0741,
      "velocity": 127,
      "chip": "ym2612"
    },
    {
      "channel": 1,
      "note": 48,
      "start": 19.3034,
      "duration": 0.0733,
      "velocity": 112,
      "chip": "ym2612"
    },
    {
      "channel": 0,
      "note": 41,
      "start": 19.4143,
      "duration": 0.0749,
      "velocity": 112,
      "chip": "ym2612"
    },
    {
      "channel": 1,
      "note": 49,
      "start": 19.4154,
      "duration": 0.4021,
      "velocity": 127,
      "chip": "ym2612"
    },
    {
      "channel": 2,
      "note": 32,
      "start": 19.4156,
      "duration": 0.1836,
      "velocity": 97,
      "chip": "ym2612"
    },
    {
      "channel": 4,
      "note": 56,
      "start": 19.416,
      "duration": 0.2925,
      "velocity": 117,
      "chip": "ym2612"
    },
    {
      "channel": 5,
      "note": 56,
      "start": 19.4163,
      "duration": 0.1831,
      "velocity": 114,
      "chip": "ym2612"
    },
    {
      "channel": 0,
      "note": 51,
      "start": 19.5267,
      "duration": 0.0724,
      "velocity": 127,
      "chip": "ym2612"
    },
    {
      "channel": 0,
      "note": 51,
      "start": 19.6355,
      "duration": 0.1819,
      "velocity": 127,
      "chip": "ym2612"
    },
    {
      "channel": 2,
      "note": 32,
      "start": 19.6358,
      "duration": 0.0726,
      "velocity": 97,
      "chip": "ym2612"
    },
    {
      "channel": 5,
      "note": 56,
      "start": 19.6361,
      "duration": 0.0724,
      "velocity": 114,
      "chip": "ym2612"
    },
    {
      "channel": 2,
      "note": 34,
      "start": 19.7448,
      "duration": 0.1851,
      "velocity": 97,
      "chip": "ym2612"
    },
    {
      "channel": 4,
      "note": 58,
      "start": 19.745,
      "duration": 0.2966,
      "velocity": 117,
      "chip": "ym2612"
    },
    {
      "channel": 5,
      "note": 58,
      "start": 19.7453,
      "duration": 0.1848,
      "velocity": 114,
      "chip": "ym2612"
    },
    {
      "channel": 0,
      "note": 41,
      "start": 19.8546,
      "duration": 0.075,
      "velocity": 112,
      "chip": "ym2612"
    },
    {
      "channel": 1,
      "note": 48,
      "start": 19.8556,
      "duration": 0.0741,
      "velocity": 112,
      "chip": "ym2612"
    },
    {
      "channel": 0,
      "note": 51,
      "start": 19.9676,
      "duration": 0.0737,
      "velocity": 127,
      "chip": "ym2612"
    },
    {
      "channel": 2,
      "note": 34,
      "start": 19.968,
      "duration": 0.0735,
      "velocity": 97,
      "chip": "ym2612"
    },
    {
      "channel": 5,
      "note": 58,
      "start": 19.9683,
      "duration": 0.0734,
      "velocity": 114,
      "chip": "ym2612"
    },
    {
      "channel": 0,
      "note": 51,
      "start": 20.0781,
      "duration": 0.0737,
      "velocity": 127,
      "chip": "ym2612"
    },
    {
      "channel": 2,
      "note": 37,
      "start": 20.0785,
      "duration": 0.1839,
      "velocity": 97,
      "chip": "ym2612"
    },
    {
      "channel": 4,
      "note": 61,
      "start": 20.0787,
      "duration": 0.2959,
      "velocity": 117,
      "chip": "ym2612"
    },
    {
      "channel": 5,
      "note": 61,
      "start": 20.0789,
      "duration": 0.1836,
      "velocity": 114,
      "chip": "ym2612"
    },
    {
      "channel": 0,
      "note": 51,
      "start": 20.1886,
      "duration": 0.0735,
      "velocity": 127,
      "chip": "ym2612"
    },
    {
      "channel": 1,
      "note": 48,
      "start": 20.1889,
      "duration": 0.0733,
      "velocity": 112,
      "chip": "ym2612"
    },
    {
      "channel": 0,
      "note": 41,
      "start": 20.2997,
      "duration": 0.0745,
      "velocity": 112,
      "chip": "ym2612"
    },
    {
      "channel": 1,
      "note": 51,
      "start": 20.3007,
      "duration": 0.0736,
      "velocity": 127,
      "chip": "ym2612"
    },
    {
      "channel": 2,
      "note": 37,
      "start": 20.301,
      "duration": 0.0735,
      "velocity": 97,
      "chip": "ym2612"
    },
    {
      "channel": 5,
      "note": 61,
      "start": 20.3013,
      "duration": 0.0734,
      "velocity": 114,
      "chip": "ym2612"
    },
    {
      "channel": 0,
      "note": 51,
      "start": 20.4118,
      "duration": 0.0746,
      "velocity": 127,
      "chip": "ym2612"
    },
    {
      "channel": 1,
      "note": 48,
      "start": 20.4127,
      "duration": 0.0738,
      "velocity": 112,
      "chip": "ym2612"
    },
    {
      "channel": 2,
      "note": 34,
      "start": 20.413,
      "duration": 0.1838,
      "velocity": 97,
      "chip": "ym2612"
    },
    {
      "channel": 4,
      "note": 58,
      "start": 20.4133,
      "duration": 0.2941,
      "velocity": 117,
      "chip": "ym2612"
    },
    {
      "channel": 5,
      "note": 58,
      "start": 20.4135,
      "duration": 0.1835,
      "velocity": 114,
      "chip": "ym2612"
    },
    {
      "channel": 0,
      "note": 51,
      "start": 20.5232,
      "duration": 0.0733,
      "velocity": 127,
      "chip": "ym2612"
    },
    {
      "channel": 0,
      "note": 51,
      "start": 20.6334,
      "duration": 0.0736,
      "velocity": 127,
      "chip": "ym2612"
    },
    {
      "channel": 2,
      "note": 34,
      "start": 20.6338,
      "duration": 0.0735,
      "velocity": 97,
      "chip": "ym2612"
    },
    {
      "channel": 5,
      "note": 58,
      "start": 20.6341,
      "duration": 0.0734,
      "velocity": 114,
      "chip": "ym2612"
    },
    {
      "channel": 0,
      "note": 41,
      "start": 20.7447,
      "duration": 0.0748,
      "velocity": 112,
      "chip": "ym2612"
    },
    {
      "channel": 1,
      "note": 48,
      "start": 20.745,
      "duration": 0.0746,
      "velocity": 112,
      "chip": "ym2612"
    },
    {
      "channel": 2,
      "note": 39,
      "start": 20.7453,
      "duration": 0.1857,
      "velocity": 97,
      "chip": "ym2612"
    },
    {
      "channel": 4,
      "note": 63,
      "start": 20.7456,
      "duration": 0.1856,
      "velocity": 117,
      "chip": "ym2612"
    },
    {
      "channel": 5,
      "note": 63,
      "start": 20.7458,
      "duration": 0.1854,
      "velocity": 114,
      "chip": "ym2612"
    },
    {
      "channel": 0,
      "note": 51,
      "start": 20.8574,
      "duration": 0.0734,
      "velocity": 127,
      "chip": "ym2612"
    },
    {
      "channel": 0,
      "note": 41,
      "start": 20.9684,
      "duration": 0.0746,
      "velocity": 112,
      "chip": "ym2612"
    },
    {
      "channel": 1,
      "note": 51,
      "start": 20.9695,
      "duration": 0.0738,
      "velocity": 127,
      "chip": "ym2612"
    },
    {
      "channel": 2,
      "note": 41,
      "start": 20.9697,
      "duration": 0.1853,
      "velocity": 97,
      "chip": "ym2612"
    },
    {
      "channel": 4,
      "note": 65,
      "start": 20.9699,
      "duration": 0.1852,
      "velocity": 117,
      "chip": "ym2612"
    },
    {
      "channel": 5,
      "note": 65,
      "start": 20.9701,
      "duration": 0.1851,
      "velocity": 114,
      "chip": "ym2612"
    },
    {
      "channel": 0,
      "note": 51,
      "start": 21.0806,
      "duration": 0.0741,
      "velocity": 127,
      "chip": "ym2612"
    },
    {
      "channel": 1,
      "note": 48,
      "start": 21.0815,
      "duration": 0.0733,
      "velocity": 112,
      "chip": "ym2612"
    },
    {
      "channel": 0,
      "note": 41,
      "start": 21.1924,
      "duration": 0.0749,
      "velocity": 112,
      "chip": "ym2612"
    },
    {
      "channel": 1,
      "note": 49,
      "start": 21.1935,
      "duration": 0.4021,
      "velocity": 127,
      "chip": "ym2612"
    },
    {
      "channel": 2,
      "note": 32,
      "start": 21.1938,
      "duration": 0.1836,
      "velocity": 97,
      "chip": "ym2612"
    },
    {
      "channel": 4,
      "note": 56,
      "start": 21.1942,
      "duration": 0.2925,
      "velocity": 117,
      "chip": "ym2612"
    },
    {
      "channel": 5,
      "note": 56,
      "start": 21.1944,
      "duration": 0.1832,
      "velocity": 114,
      "chip": "ym2612"
    },
    {
      "channel": 0,
      "note": 51,
      "start": 21.3049,
      "duration": 0.0724,
      "velocity": 127,
      "chip": "ym2612"
    },
    {
      "channel": 0,
      "note": 51,
      "start": 21.4137,
      "duration": 0.1819,
      "velocity": 127,
      "chip": "ym2612"
    },
    {
      "channel": 2,
      "note": 32,
      "start": 21.4139,
      "duration": 0.0726,
      "velocity": 97,
      "chip": "ym2612"
    },
    {
      "channel": 5,
      "note": 56,
      "start": 21.4142,
      "duration": 0.0725,
      "velocity": 114,
      "chip": "ym2612"
    },
    {
      "channel": 2,
      "note": 34,
      "start": 21.5229,
      "duration": 0.1851,
      "velocity": 97,
      "chip": "ym2612"
    },
    {
      "channel": 4,
      "note": 58,
      "start": 21.5232,
      "duration": 0.2966,
      "velocity": 117,
      "chip": "ym2612"
    },
    {
      "channel": 5,
      "note": 58,
      "start": 21.5234,
      "duration": 0.1848,
      "velocity": 114,
      "chip": "ym2612"
    },
    {
      "channel": 0,
      "note": 41,
      "start": 21.6327,
      "duration": 0.075,
      "velocity": 112,
      "chip": "ym2612"
    },
    {
      "channel": 1,
      "note": 48,
      "start": 21.6337,
      "duration": 0.0741,
      "velocity": 112,
      "chip": "ym2612"
    },
    {
      "channel": 0,
      "note": 51,
      "start": 21.7457,
      "duration": 0.0737,
      "velocity": 127,
      "chip": "ym2612"
    },
    {
      "channel": 2,
      "note": 34,
      "start": 21.7461,
      "duration": 0.0735,
      "velocity": 97,
      "chip": "ym2612"
    },
    {
      "channel": 5,
      "note": 58,
      "start": 21.7465,
      "duration": 0.0733,
      "velocity": 114,
      "chip": "ym2612"
    },
    {
      "channel": 0,
      "note": 51,
      "start": 21.8562,
      "duration": 0.0737,
      "velocity": 127,
      "chip": "ym2612"
    },
    {
      "channel": 2,
      "note": 37,
      "start": 21.8566,
      "duration": 0.1839,
      "velocity": 97,
      "chip": "ym2612"
    },
    {
      "channel": 4,
      "note": 61,
      "start": 21.8568,
      "duration": 0.2959,
      "velocity": 117,
      "chip": "ym2612"
    },
    {
      "channel": 5,
      "note": 61,
      "start": 21.8571,
      "duration": 0.1836,
      "velocity": 114,
      "chip": "ym2612"
    },
    {
      "channel": 0,
      "note": 51,
      "start": 21.9668,
      "duration": 0.0735,
      "velocity": 127,
      "chip": "ym2612"
    },
    {
      "channel": 1,
      "note": 48,
      "start": 21.967,
      "duration": 0.0733,
      "velocity": 112,
      "chip": "ym2612"
    },
    {
      "channel": 0,
      "note": 41,
      "start": 22.0778,
      "duration": 0.0745,
      "velocity": 112,
      "chip": "ym2612"
    },
    {
      "channel": 1,
      "note": 51,
      "start": 22.0789,
      "duration": 0.0736,
      "velocity": 127,
      "chip": "ym2612"
    },
    {
      "channel": 2,
      "note": 37,
      "start": 22.0791,
      "duration": 0.0735,
      "velocity": 97,
      "chip": "ym2612"
    },
    {
      "channel": 5,
      "note": 61,
      "start": 22.0794,
      "duration": 0.0734,
      "velocity": 114,
      "chip": "ym2612"
    },
    {
      "channel": 0,
      "note": 51,
      "start": 22.19,
      "duration": 0.0746,
      "velocity": 127,
      "chip": "ym2612"
    },
    {
      "channel": 1,
      "note": 48,
      "start": 22.1909,
      "duration": 0.0738,
      "velocity": 112,
      "chip": "ym2612"
    },
    {
      "channel": 2,
      "note": 34,
      "start": 22.1912,
      "duration": 0.1838,
      "velocity": 97,
      "chip": "ym2612"
    },
    {
      "channel": 4,
      "note": 58,
      "start": 22.1914,
      "duration": 0.2941,
      "velocity": 117,
      "chip": "ym2612"
    },
    {
      "channel": 5,
      "note": 58,
      "start": 22.1917,
      "duration": 0.1835,
      "velocity": 114,
      "chip": "ym2612"
    },
    {
      "channel": 0,
      "note": 51,
      "start": 22.3014,
      "duration": 0.0733,
      "velocity": 127,
      "chip": "ym2612"
    },
    {
      "channel": 0,
      "note": 51,
      "start": 22.4116,
      "duration": 0.0736,
      "velocity": 127,
      "chip": "ym2612"
    },
    {
      "channel": 2,
      "note": 34,
      "start": 22.4119,
      "duration": 0.0735,
      "velocity": 97,
      "chip": "ym2612"
    },
    {
      "channel": 5,
      "note": 58,
      "start": 22.4122,
      "duration": 0.0734,
      "velocity": 114,
      "chip": "ym2612"
    },
    {
      "channel": 0,
      "note": 41,
      "start": 22.5228,
      "duration": 0.0748,
      "velocity": 112,
      "chip": "ym2612"
    },
    {
      "channel": 1,
      "note": 48,
      "start": 22.5232,
      "duration": 0.0746,
      "velocity": 112,
      "chip": "ym2612"
    },
    {
      "channel": 2,
      "note": 39,
      "start": 22.5235,
      "duration": 0.1857,
      "velocity": 97,
      "chip": "ym2612"
    },
    {
      "channel": 4,
      "note": 63,
      "start": 22.5237,
      "duration": 0.1856,
      "velocity": 117,
      "chip": "ym2612"
    },
    {
      "channel": 5,
      "note": 63,
      "start": 22.5239,
      "duration": 0.1854,
      "velocity": 114,
      "chip": "ym2612"
    },
    {
      "channel": 0,
      "note": 51,
      "start": 22.6356,
      "duration": 0.0733,
      "velocity": 127,
      "chip": "ym2612"
    },
    {
      "channel": 0,
      "note": 41,
      "start": 22.7465,
      "duration": 0.0747,
      "velocity": 112,
      "chip": "ym2612"
    },
    {
      "channel": 1,
      "note": 51,
      "start": 22.7476,
      "duration": 0.0738,
      "velocity": 127,
      "chip": "ym2612"
    },
    {
      "channel": 2,
      "note": 41,
      "start": 22.7478,
      "duration": 0.1853,
      "velocity": 97,
      "chip": "ym2612"
    },
    {
      "channel": 4,
      "note": 65,
      "start": 22.748,
      "duration": 0.1852,
      "velocity": 117,
      "chip": "ym2612"
    },
    {
      "channel": 5,
      "note": 65,
      "start": 22.7483,
      "duration": 0.1851,
      "velocity": 114,
      "chip": "ym2612"
    },
    {
      "channel": 0,
      "note": 51,
      "start": 22.8587,
      "duration": 0.0741,
      "velocity": 127,
      "chip": "ym2612"
    },
    {
      "channel": 1,
      "note": 48,
      "start": 22.8597,
      "duration": 0.0733,
      "velocity": 112,
      "chip": "ym2612"
    },
    {
      "channel": 0,
      "note": 41,
      "start": 22.9706,
      "duration": 0.0749,
      "velocity": 112,
      "chip": "ym2612"
    },
    {
      "channel": 1,
      "note": 49,
      "start": 22.9717,
      "duration": 0.4021,
      "velocity": 127,
      "chip": "ym2612"
    },
    {
      "channel": 2,
      "note": 32,
      "start": 22.9719,
      "duration": 0.1837,
      "velocity": 97,
      "chip": "ym2612"
    },
    {
      "channel": 4,
      "note": 56,
      "start": 22.9723,
      "duration": 0.2925,
      "velocity": 117,
      "chip": "ym2612"
    },
    {
      "channel": 5,
      "note": 56,
      "start": 22.9726,
      "duration": 0.1832,
      "velocity": 114,
      "chip": "ym2612"
    },
    {
      "channel": 0,
      "note": 51,
      "start": 23.083,
      "duration": 0.0724,
      "velocity": 127,
      "chip": "ym2612"
    },
    {
      "channel": 0,
      "note": 51,
      "start": 23.1918,
      "duration": 0.1819,
      "velocity": 127,
      "chip": "ym2612"
    },
    {
      "channel": 2,
      "note": 32,
      "start": 23.1921,
      "duration": 0.0726,
      "velocity": 97,
      "chip": "ym2612"
    },
    {
      "channel": 5,
      "note": 56,
      "start": 23.1924,
      "duration": 0.0725,
      "velocity": 114,
      "chip": "ym2612"
    },
    {
      "channel": 2,
      "note": 34,
      "start": 23.3011,
      "duration": 0.1851,
      "velocity": 97,
      "chip": "ym2612"
    },
    {
      "channel": 4,
      "note": 58,
      "start": 23.3013,
      "duration": 0.2966,
      "velocity": 117,
      "chip": "ym2612"
    },
    {
      "channel": 5,
      "note": 58,
      "start": 23.3015,
      "duration": 0.1848,
      "velocity": 114,
      "chip": "ym2612"
    },
    {
      "channel": 0,
      "note": 41,
      "start": 23.4108,
      "duration": 0.075,
      "velocity": 112,
      "chip": "ym2612"
    },
    {
      "channel": 1,
      "note": 48,
      "start": 23.4119,
      "duration": 0.0741,
      "velocity": 112,
      "chip": "ym2612"
    },
    {
      "channel": 0,
      "note": 51,
      "start": 23.5238,
      "duration": 0.0737,
      "velocity": 127,
      "chip": "ym2612"
    },
    {
      "channel": 2,
      "note": 34,
      "start": 23.5243,
      "duration": 0.0735,
      "velocity": 97,
      "chip": "ym2612"
    },
    {
      "channel": 5,
      "note": 58,
      "start": 23.5246,
      "duration": 0.0733,
      "velocity": 114,
      "chip": "ym2612"
    },
    {
      "channel": 0,
      "note": 51,
      "start": 23.6344,
      "duration": 0.0737,
      "velocity": 127,
      "chip": "ym2612"
    },
    {
      "channel": 2,
      "note": 37,
      "start": 23.6347,
      "duration": 0.1839,
      "velocity": 97,
      "chip": "ym2612"
    },
    {
      "channel": 4,
      "note": 61,
      "start": 23.635,
      "duration": 0.2959,
      "velocity": 117,
      "chip": "ym2612"
    },
    {
      "channel": 5,
      "note": 61,
      "start": 23.6352,
      "duration": 0.1836,
      "velocity": 114,
      "chip": "ym2612"
    },
    {
      "channel": 0,
      "note": 51,
      "start": 23.7449,
      "duration": 0.0735,
      "velocity": 127,
      "chip": "ym2612"
    },
    {
      "channel": 1,
      "note": 48,
      "start": 23.7451,
      "duration": 0.0733,
      "velocity": 112,
      "chip": "ym2612"
    },
    {
      "channel": 0,
      "note": 41,
      "start": 23.856,
      "duration": 0.0745,
      "velocity": 112,
      "chip": "ym2612"
    },
    {
      "channel": 1,
      "note": 51,
      "start": 23.857,
      "duration": 0.0736,
      "velocity": 127,
      "chip": "ym2612"
    },
    {
      "channel": 2,
      "note": 37,
      "start": 23.8572,
      "duration": 0.0735,
      "velocity": 97,
      "chip": "ym2612"
    },
    {
      "channel": 5,
      "note": 61,
      "start": 23.8576,
      "duration": 0.0734,
      "velocity": 114,
      "chip": "ym2612"
    },
    {
      "channel": 0,
      "note": 51,
      "start": 23.9681,
      "duration": 0.0746,
      "velocity": 127,
      "chip": "ym2612"
    },
    {
      "channel": 1,
      "note": 48,
      "start": 23.969,
      "duration": 0.0738,
      "velocity": 112,
      "chip": "ym2612"
    },
    {
      "channel": 2,
      "note": 34,
      "start": 23.9693,
      "duration": 0.1838,
      "velocity": 97,
      "chip": "ym2612"
    },
    {
      "channel": 4,
      "note": 58,
      "start": 23.9696,
      "duration": 0.2941,
      "velocity": 117,
      "chip": "ym2612"
    },
    {
      "channel": 5,
      "note": 58,
      "start": 23.9698,
      "duration": 0.1835,
      "velocity": 114,
      "chip": "ym2612"
    },
    {
      "channel": 0,
      "note": 51,
      "start": 24.0795,
      "duration": 0.0733,
      "velocity": 127,
      "chip": "ym2612"
    },
    {
      "channel": 0,
      "note": 51,
      "start": 24.1897,
      "duration": 0.0736,
      "velocity": 127,
      "chip": "ym2612"
    },
    {
      "channel": 2,
      "note": 34,
      "start": 24.19,
      "duration": 0.0735,
      "velocity": 97,
      "chip": "ym2612"
    },
    {
      "channel": 5,
      "note": 58,
      "start": 24.1904,
      "duration": 0.0734,
      "velocity": 114,
      "chip": "ym2612"
    },
    {
      "channel": 0,
      "note": 41,
      "start": 24.3009,
      "duration": 0.0748,
      "velocity": 112,
      "chip": "ym2612"
    },
    {
      "channel": 1,
      "note": 48,
      "start": 24.3013,
      "duration": 0.0746,
      "velocity": 112,
      "chip": "ym2612"
    },
    {
      "channel": 2,
      "note": 39,
      "start": 24.3016,
      "duration": 0.1857,
      "velocity": 97,
      "chip": "ym2612"
    },
    {
      "channel": 4,
      "note": 63,
      "start": 24.3019,
      "duration": 0.1856,
      "velocity": 117,
      "chip": "ym2612"
    },
    {
      "channel": 5,
      "note": 63,
      "start": 24.3021,
      "duration": 0.1854,
      "velocity": 114,
      "chip": "ym2612"
    },
    {
      "channel": 0,
      "note": 51,
      "start": 24.4137,
      "duration": 0.0733,
      "velocity": 127,
      "chip": "ym2612"
    },
    {
      "channel": 0,
      "note": 41,
      "start": 24.5247,
      "duration": 0.0746,
      "velocity": 112,
      "chip": "ym2612"
    },
    {
      "channel": 1,
      "note": 51,
      "start": 24.5257,
      "duration": 0.0738,
      "velocity": 127,
      "chip": "ym2612"
    },
    {
      "channel": 2,
      "note": 41,
      "start": 24.5259,
      "duration": 0.1853,
      "velocity": 97,
      "chip": "ym2612"
    },
    {
      "channel": 4,
      "note": 65,
      "start": 24.5262,
      "duration": 0.1852,
      "velocity": 117,
      "chip": "ym2612"
    },
    {
      "channel": 5,
      "note": 65,
      "start": 24.5264,
      "duration": 0.1851,
      "velocity": 114,
      "chip": "ym2612"
    },
    {
      "channel": 0,
      "note": 51,
      "start": 24.6369,
      "duration": 0.0741,
      "velocity": 127,
      "chip": "ym2612"
    },
    {
      "channel": 1,
      "note": 48,
      "start": 24.6378,
      "duration": 0.0733,
      "velocity": 112,
      "chip": "ym2612"
    },
    {
      "channel": 0,
      "note": 41,
      "start": 24.7487,
      "duration": 0.0749,
      "velocity": 112,
      "chip": "ym2612"
    },
    {
      "channel": 1,
      "note": 49,
      "start": 24.7498,
      "duration": 0.4021,
      "velocity": 127,
      "chip": "ym2612"
    },
    {
      "channel": 2,
      "note": 32,
      "start": 24.75,
      "duration": 0.1837,
      "velocity": 97,
      "chip": "ym2612"
    },
    {
      "channel": 4,
      "note": 56,
      "start": 24.7504,
      "duration": 0.2925,
      "velocity": 117,
      "chip": "ym2612"
    },
    {
      "channel": 5,
      "note": 56,
      "start": 24.7507,
      "duration": 0.1832,
      "velocity": 114,
      "chip": "ym2612"
    },
    {
      "channel": 0,
      "note": 51,
      "start": 24.8611,
      "duration": 0.0724,
      "velocity": 127,
      "chip": "ym2612"
    },
    {
      "channel": 0,
      "note": 51,
      "start": 24.97,
      "duration": 0.1819,
      "velocity": 127,
      "chip": "ym2612"
    },
    {
      "channel": 2,
      "note": 32,
      "start": 24.9702,
      "duration": 0.0726,
      "velocity": 97,
      "chip": "ym2612"
    },
    {
      "channel": 5,
      "note": 56,
      "start": 24.9705,
      "duration": 0.0725,
      "velocity": 114,
      "chip": "ym2612"
    },
    {
      "channel": 2,
      "note": 34,
      "start": 25.0792,
      "duration": 0.1851,
      "velocity": 97,
      "chip": "ym2612"
    },
    {
      "channel": 4,
      "note": 58,
      "start": 25.0794,
      "duration": 0.2966,
      "velocity": 117,
      "chip": "ym2612"
    },
    {
      "channel": 5,
      "note": 58,
      "start": 25.0797,
      "duration": 0.1848,
      "velocity": 114,
      "chip": "ym2612"
    },
    {
      "channel": 0,
      "note": 41,
      "start": 25.189,
      "duration": 0.075,
      "velocity": 112,
      "chip": "ym2612"
    },
    {
      "channel": 1,
      "note": 48,
      "start": 25.19,
      "duration": 0.0741,
      "velocity": 112,
      "chip": "ym2612"
    },
    {
      "channel": 0,
      "note": 51,
      "start": 25.302,
      "duration": 0.0737,
      "velocity": 127,
      "chip": "ym2612"
    },
    {
      "channel": 2,
      "note": 34,
      "start": 25.3024,
      "duration": 0.0735,
      "velocity": 97,
      "chip": "ym2612"
    },
    {
      "channel": 5,
      "note": 58,
      "start": 25.3027,
      "duration": 0.0733,
      "velocity": 114,
      "chip": "ym2612"
    },
    {
      "channel": 0,
      "note": 51,
      "start": 25.4125,
      "duration": 0.0737,
      "velocity": 127,
      "chip": "ym2612"
    },
    {
      "channel": 2,
      "note": 37,
      "start": 25.4129,
      "duration": 0.1839,
      "velocity": 97,
      "chip": "ym2612"
    },
    {
      "channel": 4,
      "note": 61,
      "start": 25.4131,
      "duration": 0.2959,
      "velocity": 117,
      "chip": "ym2612"
    },
    {
      "channel": 5,
      "note": 61,
      "start": 25.4133,
      "duration": 0.1836,
      "velocity": 114,
      "chip": "ym2612"
    },
    {
      "channel": 0,
      "note": 51,
      "start": 25.523,
      "duration": 0.0735,
      "velocity": 127,
      "chip": "ym2612"
    },
    {
      "channel": 1,
      "note": 48,
      "start": 25.5233,
      "duration": 0.0733,
      "velocity": 112,
      "chip": "ym2612"
    },
    {
      "channel": 0,
      "note": 41,
      "start": 25.6341,
      "duration": 0.0745,
      "velocity": 112,
      "chip": "ym2612"
    },
    {
      "channel": 1,
      "note": 51,
      "start": 25.6352,
      "duration": 0.0736,
      "velocity": 127,
      "chip": "ym2612"
    },
    {
      "channel": 2,
      "note": 37,
      "start": 25.6354,
      "duration": 0.0735,
      "velocity": 97,
      "chip": "ym2612"
    },
    {
      "channel": 5,
      "note": 61,
      "start": 25.6357,
      "duration": 0.0734,
      "velocity": 114,
      "chip": "ym2612"
    },
    {
      "channel": 0,
      "note": 51,
      "start": 25.7462,
      "duration": 0.0746,
      "velocity": 127,
      "chip": "ym2612"
    },
    {
      "channel": 1,
      "note": 48,
      "start": 25.7471,
      "duration": 0.0738,
      "velocity": 112,
      "chip": "ym2612"
    },
    {
      "channel": 2,
      "note": 34,
      "start": 25.7475,
      "duration": 0.1838,
      "velocity": 97,
      "chip": "ym2612"
    },
    {
      "channel": 4,
      "note": 58,
      "start": 25.7477,
      "duration": 0.2941,
      "velocity": 117,
      "chip": "ym2612"
    },
    {
      "channel": 5,
      "note": 58,
      "start": 25.7479,
      "duration": 0.1834,
      "velocity": 114,
      "chip": "ym2612"
    },
    {
      "channel": 0,
      "note": 51,
      "start": 25.8576,
      "duration": 0.0734,
      "velocity": 127,
      "chip": "ym2612"
    },
    {
      "channel": 0,
      "note": 51,
      "start": 25.9678,
      "duration": 0.0736,
      "velocity": 127,
      "chip": "ym2612"
    },
    {
      "channel": 2,
      "note": 34,
      "start": 25.9682,
      "duration": 0.0735,
      "velocity": 97,
      "chip": "ym2612"
    },
    {
      "channel": 5,
      "note": 58,
      "start": 25.9685,
      "duration": 0.0734,
      "velocity": 114,
      "chip": "ym2612"
    },
    {
      "channel": 0,
      "note": 41,
      "start": 26.0791,
      "duration": 0.0748,
      "velocity": 112,
      "chip": "ym2612"
    },
    {
      "channel": 1,
      "note": 48,
      "start": 26.0794,
      "duration": 0.0746,
      "velocity": 112,
      "chip": "ym2612"
    },
    {
      "channel": 2,
      "note": 39,
      "start": 26.0798,
      "duration": 0.1857,
      "velocity": 97,
      "chip": "ym2612"
    },
    {
      "channel": 4,
      "note": 63,
      "start": 26.08,
      "duration": 0.1856,
      "velocity": 117,
      "chip": "ym2612"
    },
    {
      "channel": 5,
      "note": 63,
      "start": 26.0802,
      "duration": 0.1854,
      "velocity": 114,
      "chip": "ym2612"
    },
    {
      "channel": 0,
      "note": 51,
      "start": 26.1919,
      "duration": 0.0733,
      "velocity": 127,
      "chip": "ym2612"
    },
    {
      "channel": 0,
      "note": 41,
      "start": 26.3028,
      "duration": 0.0746,
      "velocity": 112,
      "chip": "ym2612"
    },
    {
      "channel": 1,
      "note": 51,
      "start": 26.3039,
      "duration": 0.0738,
      "velocity": 127,
      "chip": "ym2612"
    },
    {
      "channel": 2,
      "note": 41,
      "start": 26.3041,
      "duration": 0.1853,
      "velocity": 97,
      "chip": "ym2612"
    },
    {
      "channel": 4,
      "note": 65,
      "start": 26.3043,
      "duration": 0.1852,
      "velocity": 117,
      "chip": "ym2612"
    },
    {
      "channel": 5,
      "note": 65,
      "start": 26.3046,
      "duration": 0.1851,
      "velocity": 114,
      "chip": "ym2612"
    },
    {
      "channel": 0,
      "note": 51,
      "start": 26.415,
      "duration": 0.0741,
      "velocity": 127,
      "chip": "ym2612"
    },
    {
      "channel": 1,
      "note": 48,
      "start": 26.4159,
      "duration": 0.0733,
      "velocity": 112,
      "chip": "ym2612"
    },
    {
      "channel": 0,
      "note": 41,
      "start": 26.5268,
      "duration": 0.0756,
      "velocity": 112,
      "chip": "ym2612"
    },
    {
      "channel": 1,
      "note": 49,
      "start": 26.5286,
      "duration": 0.4021,
      "velocity": 127,
      "chip": "ym2612"
    },
    {
      "channel": 2,
      "note": 32,
      "start": 26.5289,
      "duration": 0.1837,
      "velocity": 97,
      "chip": "ym2612"
    },
    {
      "channel": 4,
      "note": 56,
      "start": 26.5293,
      "duration": 0.2925,
      "velocity": 117,
      "chip": "ym2612"
    },
    {
      "channel": 5,
      "note": 56,
      "start": 26.5295,
      "duration": 0.1832,
      "velocity": 114,
      "chip": "ym2612"
    },
    {
      "channel": 0,
      "note": 51,
      "start": 26.64,
      "duration": 0.0724,
      "velocity": 127,
      "chip": "ym2612"
    },
    {
      "channel": 0,
      "note": 51,
      "start": 26.7488,
      "duration": 0.1819,
      "velocity": 127,
      "chip": "ym2612"
    },
    {
      "channel": 2,
      "note": 32,
      "start": 26.749,
      "duration": 0.0726,
      "velocity": 97,
      "chip": "ym2612"
    },
    {
      "channel": 5,
      "note": 56,
      "start": 26.7494,
      "duration": 0.0725,
      "velocity": 114,
      "chip": "ym2612"
    },
    {
      "channel": 2,
      "note": 34,
      "start": 26.858,
      "duration": 0.1851,
      "velocity": 97,
      "chip": "ym2612"
    },
    {
      "channel": 4,
      "note": 58,
      "start": 26.8583,
      "duration": 0.2966,
      "velocity": 117,
      "chip": "ym2612"
    },
    {
      "channel": 5,
      "note": 58,
      "start": 26.8585,
      "duration": 0.1848,
      "velocity": 114,
      "chip": "ym2612"
    },
    {
      "channel": 0,
      "note": 41,
      "start": 26.9678,
      "duration": 0.075,
      "velocity": 112,
      "chip": "ym2612"
    },
    {
      "channel": 1,
      "note": 48,
      "start": 26.9688,
      "duration": 0.0741,
      "velocity": 112,
      "chip": "ym2612"
    },
    {
      "channel": 0,
      "note": 51,
      "start": 27.0808,
      "duration": 0.0737,
      "velocity": 127,
      "chip": "ym2612"
    },
    {
      "channel": 2,
      "note": 34,
      "start": 27.0812,
      "duration": 0.0735,
      "velocity": 97,
      "chip": "ym2612"
    },
    {
      "channel": 5,
      "note": 58,
      "start": 27.0816,
      "duration": 0.0733,
      "velocity": 114,
      "chip": "ym2612"
    },
    {
      "channel": 0,
      "note": 51,
      "start": 27.1914,
      "duration": 0.0737,
      "velocity": 127,
      "chip": "ym2612"
    },
    {
      "channel": 2,
      "note": 37,
      "start": 27.1917,
      "duration": 0.1839,
      "velocity": 97,
      "chip": "ym2612"
    },
    {
      "channel": 4,
      "note": 61,
      "start": 27.192,
      "duration": 0.2959,
      "velocity": 117,
      "chip": "ym2612"
    },
    {
      "channel": 5,
      "note": 61,
      "start": 27.1922,
      "duration": 0.1836,
      "velocity": 114,
      "chip": "ym2612"
    },
    {
      "channel": 0,
      "note": 51,
      "start": 27.3019,
      "duration": 0.0735,
      "velocity": 127,
      "chip": "ym2612"
    },
    {
      "channel": 1,
      "note": 48,
      "start": 27.3021,
      "duration": 0.0733,
      "velocity": 112,
      "chip": "ym2612"
    },
    {
      "channel": 0,
      "note": 41,
      "start": 27.413,
      "duration": 0.0745,
      "velocity": 112,
      "chip": "ym2612"
    },
    {
      "channel": 1,
      "note": 51,
      "start": 27.414,
      "duration": 0.0736,
      "velocity": 127,
      "chip": "ym2612"
    },
    {
      "channel": 2,
      "note": 37,
      "start": 27.4142,
      "duration": 0.0735,
      "velocity": 97,
      "chip": "ym2612"
    },
    {
      "channel": 5,
      "note": 61,
      "start": 27.4145,
      "duration": 0.0734,
      "velocity": 114,
      "chip": "ym2612"
    },
    {
      "channel": 0,
      "note": 51,
      "start": 27.5251,
      "duration": 0.0746,
      "velocity": 127,
      "chip": "ym2612"
    },
    {
      "channel": 1,
      "note": 48,
      "start": 27.526,
      "duration": 0.0738,
      "velocity": 112,
      "chip": "ym2612"
    },
    {
      "channel": 2,
      "note": 34,
      "start": 27.5263,
      "duration": 0.1839,
      "velocity": 97,
      "chip": "ym2612"
    },
    {
      "channel": 4,
      "note": 58,
      "start": 27.5266,
      "duration": 0.2945,
      "velocity": 117,
      "chip": "ym2612"
    },
    {
      "channel": 5,
      "note": 58,
      "start": 27.5268,
      "duration": 0.1836,
      "velocity": 114,
      "chip": "ym2612"
    },
    {
      "channel": 0,
      "note": 51,
      "start": 27.6365,
      "duration": 0.0735,
      "velocity": 127,
      "chip": "ym2612"
    },
    {
      "channel": 1,
      "note": 48,
      "start": 27.6368,
      "duration": 0.0733,
      "velocity": 112,
      "chip": "ym2612"
    },
    {
      "channel": 0,
      "note": 51,
      "start": 27.7469,
      "duration": 0.0738,
      "velocity": 127,
      "chip": "ym2612"
    },
    {
      "channel": 1,
      "note": 48,
      "start": 27.7472,
      "duration": 0.0736,
      "velocity": 112,
      "chip": "ym2612"
    },
    {
      "channel": 2,
      "note": 34,
      "start": 27.7475,
      "duration": 0.0735,
      "velocity": 97,
      "chip": "ym2612"
    },
    {
      "channel": 5,
      "note": 58,
      "start": 27.7478,
      "duration": 0.0734,
      "velocity": 114,
      "chip": "ym2612"
    },
    {
      "channel": 0,
      "note": 41,
      "start": 27.8584,
      "duration": 0.0748,
      "velocity": 112,
      "chip": "ym2612"
    },
    {
      "channel": 1,
      "note": 48,
      "start": 27.8588,
      "duration": 0.0746,
      "velocity": 112,
      "chip": "ym2612"
    },
    {
      "channel": 2,
      "note": 39,
      "start": 27.8591,
      "duration": 0.1859,
      "velocity": 97,
      "chip": "ym2612"
    },
    {
      "channel": 4,
      "note": 63,
      "start": 27.8593,
      "duration": 0.1857,
      "velocity": 117,
      "chip": "ym2612"
    },
    {
      "channel": 5,
      "note": 63,
      "start": 27.8595,
      "duration": 0.1856,
      "velocity": 114,
      "chip": "ym2612"
    },
    {
      "channel": 0,
      "note": 51,
      "start": 27.9712,
      "duration": 0.0735,
      "velocity": 127,
      "chip": "ym2612"
    },
    {
      "channel": 1,
      "note": 48,
      "start": 27.9715,
      "duration": 0.0733,
      "velocity": 112,
      "chip": "ym2612"
    },
    {
      "channel": 0,
      "note": 41,
      "start": 28.0823,
      "duration": 0.0748,
      "velocity": 112,
      "chip": "ym2612"
    },
    {
      "channel": 1,
      "note": 48,
      "start": 28.0827,
      "duration": 0.0746,
      "velocity": 112,
      "chip": "ym2612"
    },
    {
      "channel": 2,
      "note": 41,
      "start": 28.083,
      "duration": 0.1859,
      "velocity": 97,
      "chip": "ym2612"
    },
    {
      "channel": 4,
      "note": 65,
      "start": 28.0832,
      "duration": 0.1857,
      "velocity": 117,
      "chip": "ym2612"
    },
    {
      "channel": 5,
      "note": 65,
      "start": 28.0834,
      "duration": 0.1856,
      "velocity": 114,
      "chip": "ym2612"
    },
    {
      "channel": 0,
      "note": 51,
      "start": 28.1951,
      "duration": 0.0735,
      "velocity": 127,
      "chip": "ym2612"
    },
    {
      "channel": 1,
      "note": 48,
      "start": 28.1954,
      "duration": 0.0733,
      "velocity": 112,
      "chip": "ym2612"
    },
    {
      "channel": 0,
      "note": 41,
      "start": 28.3063,
      "duration": 0.0759,
      "velocity": 112,
      "chip": "ym2612"
    },
    {
      "channel": 1,
      "note": 49,
      "start": 28.3075,
      "duration": 0.4034,
      "velocity": 119,
      "chip": "ym2612"
    },
    {
      "channel": 2,
      "note": 32,
      "start": 28.3077,
      "duration": 0.1847,
      "velocity": 97,
      "chip": "ym2612"
    },
    {
      "channel": 4,
      "note": 68,
      "start": 28.3089,
      "duration": 0.1837,
      "velocity": 97,
      "chip": "ym2612"
    },
    {
      "channel": 0,
      "note": 51,
      "start": 28.4197,
      "duration": 0.0726,
      "velocity": 127,
      "chip": "ym2612"
    },
    {
      "channel": 0,
      "note": 51,
      "start": 28.5287,
      "duration": 0.1821,
      "velocity": 127,
      "chip": "ym2612"
    },
    {
      "channel": 2,
      "note": 32,
      "start": 28.529,
      "duration": 0.0727,
      "velocity": 97,
      "chip": "ym2612"
    },
    {
      "channel": 4,
      "note": 65,
      "start": 28.5293,
      "duration": 0.0726,
      "velocity": 97,
      "chip": "ym2612"
    },
    {
      "channel": 2,
      "note": 34,
      "start": 28.6382,
      "duration": 0.1855,
      "velocity": 97,
      "chip": "ym2612"
    },
    {
      "channel": 4,
      "note": 68,
      "start": 28.6384,
      "duration": 0.0726,
      "velocity": 97,
      "chip": "ym2612"
    },
    {
      "channel": 0,
      "note": 41,
      "start": 28.748,
      "duration": 0.0753,
      "velocity": 112,
      "chip": "ym2612"
    },
    {
      "channel": 1,
      "note": 48,
      "start": 28.749,
      "duration": 0.0744,
      "velocity": 112,
      "chip": "ym2612"
    },
    {
      "channel": 4,
      "note": 70,
      "start": 28.7495,
      "duration": 0.1859,
      "velocity": 97,
      "chip": "ym2612"
    },
    {
      "channel": 0,
      "note": 51,
      "start": 28.8614,
      "duration": 0.0736,
      "velocity": 127,
      "chip": "ym2612"
    },
    {
      "channel": 2,
      "note": 34,
      "start": 28.8618,
      "duration": 0.0734,
      "velocity": 97,
      "chip": "ym2612"
    },
    {
      "channel": 0,
      "note": 51,
      "start": 28.9723,
      "duration": 0.0744,
      "velocity": 127,
      "chip": "ym2612"
    },
    {
      "channel": 2,
      "note": 37,
      "start": 28.9726,
      "duration": 0.1859,
      "velocity": 97,
      "chip": "ym2612"
    },
    {
      "channel": 4,
      "note": 65,
      "start": 28.9729,
      "duration": 0.2988,
      "velocity": 97,
      "chip": "ym2612"
    },
    {
      "channel": 0,
      "note": 51,
      "start": 29.0839,
      "duration": 0.0743,
      "velocity": 127,
      "chip": "ym2612"
    },
    {
      "channel": 1,
      "note": 48,
      "start": 29.0842,
      "duration": 0.0741,
      "velocity": 112,
      "chip": "ym2612"
    },
    {
      "channel": 0,
      "note": 41,
      "start": 29.1962,
      "duration": 0.0751,
      "velocity": 112,
      "chip": "ym2612"
    },
    {
      "channel": 1,
      "note": 51,
      "start": 29.1973,
      "duration": 0.0743,
      "velocity": 127,
      "chip": "ym2612"
    },
    {
      "channel": 2,
      "note": 37,
      "start": 29.1975,
      "duration": 0.0741,
      "velocity": 97,
      "chip": "ym2612"
    },
    {
      "channel": 0,
      "note": 51,
      "start": 29.3094,
      "duration": 0.0753,
      "velocity": 127,
      "chip": "ym2612"
    },
    {
      "channel": 1,
      "note": 48,
      "start": 29.3103,
      "duration": 0.0745,
      "velocity": 112,
      "chip": "ym2612"
    },
    {
      "channel": 2,
      "note": 34,
      "start": 29.3106,
      "duration": 0.1859,
      "velocity": 97,
      "chip": "ym2612"
    },
    {
      "channel": 4,
      "note": 68,
      "start": 29.3109,
      "duration": 0.0741,
      "velocity": 97,
      "chip": "ym2612"
    },
    {
      "channel": 0,
      "note": 51,
      "start": 29.422,
      "duration": 0.0744,
      "velocity": 127,
      "chip": "ym2612"
    },
    {
      "channel": 4,
      "note": 65,
      "start": 29.4225,
      "duration": 0.0741,
      "velocity": 97,
      "chip": "ym2612"
    },
    {
      "channel": 0,
      "note": 51,
      "start": 29.5336,
      "duration": 0.0744,
      "velocity": 127,
      "chip": "ym2612"
    },
    {
      "channel": 2,
      "note": 34,
      "start": 29.5339,
      "duration": 0.0743,
      "velocity": 97,
      "chip": "ym2612"
    },
    {
      "channel": 4,
      "note": 68,
      "start": 29.5342,
      "duration": 0.0742,
      "velocity": 97,
      "chip": "ym2612"
    },
    {
      "channel": 0,
      "note": 41,
      "start": 29.6461,
      "duration": 0.0755,
      "velocity": 112,
      "chip": "ym2612"
    },
    {
      "channel": 1,
      "note": 48,
      "start": 29.6464,
      "duration": 0.0753,
      "velocity": 112,
      "chip": "ym2612"
    },
    {
      "channel": 2,
      "note": 39,
      "start": 29.6467,
      "duration": 0.1876,
      "velocity": 97,
      "chip": "ym2612"
    },
    {
      "channel": 4,
      "note": 70,
      "start": 29.647,
      "duration": 0.1875,
      "velocity": 97,
      "chip": "ym2612"
    },
    {
      "channel": 0,
      "note": 51,
      "start": 29.76,
      "duration": 0.0742,
      "velocity": 127,
      "chip": "ym2612"
    },
    {
      "channel": 0,
      "note": 41,
      "start": 29.8722,
      "duration": 0.0754,
      "velocity": 112,
      "chip": "ym2612"
    },
    {
      "channel": 1,
      "note": 51,
      "start": 29.8732,
      "duration": 0.0745,
      "velocity": 127,
      "chip": "ym2612"
    },
    {
      "channel": 2,
      "note": 41,
      "start": 29.8734,
      "duration": 0.1873,
      "velocity": 97,
      "chip": "ym2612"
    },
    {
      "channel": 4,
      "note": 65,
      "start": 29.8737,
      "duration": 0.1871,
      "velocity": 97,
      "chip": "ym2612"
    },
    {
      "channel": 0,
      "note": 51,
      "start": 29.9855,
      "duration": 0.075,
      "velocity": 127,
      "chip": "ym2612"
    },
    {
      "channel": 1,
      "note": 48,
      "start": 29.9864,
      "duration": 0.0741,
      "velocity": 112,
      "chip": "ym2612"
    },
    {
      "channel": 0,
      "note": 41,
      "start": 30.0985,
      "duration": 0.075,
      "velocity": 112,
      "chip": "ym2612"
    },
    {
      "channel": 1,
      "note": 49,
      "start": 30.0996,
      "duration": 0.4026,
      "velocity": 127,
      "chip": "ym2612"
    },
    {
      "channel": 2,
      "note": 32,
      "start": 30.0999,
      "duration": 0.1839,
      "velocity": 97,
      "chip": "ym2612"
    },
    {
      "channel": 4,
      "note": 68,
      "start": 30.1002,
      "duration": 0.1836,
      "velocity": 97,
      "chip": "ym2612"
    },
    {
      "channel": 0,
      "note": 51,
      "start": 30.2111,
      "duration": 0.0725,
      "velocity": 127,
      "chip": "ym2612"
    },
    {
      "channel": 0,
      "note": 51,
      "start": 30.3201,
      "duration": 0.182,
      "velocity": 127,
      "chip": "ym2612"
    },
    {
      "channel": 2,
      "note": 32,
      "start": 30.3204,
      "duration": 0.0727,
      "velocity": 97,
      "chip": "ym2612"
    },
    {
      "channel": 4,
      "note": 69,
      "start": 30.3206,
      "duration": 0.0726,
      "velocity": 97,
      "chip": "ym2612"
    },
    {
      "channel": 2,
      "note": 34,
      "start": 30.4295,
      "duration": 0.1855,
      "velocity": 97,
      "chip": "ym2612"
    },
    {
      "channel": 4,
      "note": 70,
      "start": 30.4298,
      "duration": 0.0726,
      "velocity": 97,
      "chip": "ym2612"
    },
    {
      "channel": 0,
      "note": 41,
      "start": 30.5394,
      "duration": 0.0753,
      "velocity": 112,
      "chip": "ym2612"
    },
    {
      "channel": 1,
      "note": 48,
      "start": 30.5404,
      "duration": 0.0745,
      "velocity": 112,
      "chip": "ym2612"
    },
    {
      "channel": 4,
      "note": 71,
      "start": 30.5408,
      "duration": 0.1859,
      "velocity": 97,
      "chip": "ym2612"
    },
    {
      "channel": 0,
      "note": 51,
      "start": 30.6528,
      "duration": 0.0736,
      "velocity": 127,
      "chip": "ym2612"
    },
    {
      "channel": 2,
      "note": 34,
      "start": 30.6532,
      "duration": 0.0734,
      "velocity": 97,
      "chip": "ym2612"
    },
    {
      "channel": 0,
      "note": 51,
      "start": 30.7637,
      "duration": 0.0744,
      "velocity": 127,
      "chip": "ym2612"
    },
    {
      "channel": 2,
      "note": 37,
      "start": 30.764,
      "duration": 0.1861,
      "velocity": 97,
      "chip": "ym2612"
    },
    {
      "channel": 4,
      "note": 70,
      "start": 30.7643,
      "duration": 0.0741,
      "velocity": 97,
      "chip": "ym2612"
    },
    {
      "channel": 0,
      "note": 51,
      "start": 30.8753,
      "duration": 0.0745,
      "velocity": 127,
      "chip": "ym2612"
    },
    {
      "channel": 1,
      "note": 48,
      "start": 30.8756,
      "duration": 0.0743,
      "velocity": 112,
      "chip": "ym2612"
    },
    {
      "channel": 4,
      "note": 69,
      "start": 30.876,
      "duration": 0.0742,
      "velocity": 97,
      "chip": "ym2612"
    },
    {
      "channel": 0,
      "note": 41,
      "start": 30.9878,
      "duration": 0.0753,
      "velocity": 112,
      "chip": "ym2612"
    },
    {
      "channel": 1,
      "note": 51,
      "start": 30.9889,
      "duration": 0.0744,
      "velocity": 127,
      "chip": "ym2612"
    },
    {
      "channel": 2,
      "note": 37,
      "start": 30.9891,
      "duration": 0.0744,
      "velocity": 97,
      "chip": "ym2612"
    },
    {
      "channel": 4,
      "note": 68,
      "start": 30.9894,
      "duration": 0.0742,
      "velocity": 97,
      "chip": "ym2612"
    },
    {
      "channel": 0,
      "note": 51,
      "start": 31.1012,
      "duration": 0.0753,
      "velocity": 127,
      "chip": "ym2612"
    },
    {
      "channel": 1,
      "note": 48,
      "start": 31.1021,
      "duration": 0.0745,
      "velocity": 112,
      "chip": "ym2612"
    },
    {
      "channel": 2,
      "note": 34,
      "start": 31.1024,
      "duration": 0.1859,
      "velocity": 97,
      "chip": "ym2612"
    },
    {
      "channel": 4,
      "note": 61,
      "start": 31.1027,
      "duration": 0.0742,
      "velocity": 97,
      "chip": "ym2612"
    },
    {
      "channel": 0,
      "note": 51,
      "start": 31.2137,
      "duration": 0.0744,
      "velocity": 127,
      "chip": "ym2612"
    },
    {
      "channel": 4,
      "note": 63,
      "start": 31.2143,
      "duration": 0.0741,
      "velocity": 97,
      "chip": "ym2612"
    },
    {
      "channel": 0,
      "note": 51,
      "start": 31.3254,
      "duration": 0.0744,
      "velocity": 127,
      "chip": "ym2612"
    },
    {
      "channel": 2,
      "note": 34,
      "start": 31.3257,
      "duration": 0.0743,
      "velocity": 97,
      "chip": "ym2612"
    },
    {
      "channel": 4,
      "note": 64,
      "start": 31.326,
      "duration": 0.0742,
      "velocity": 97,
      "chip": "ym2612"
    },
    {
      "channel": 0,
      "note": 41,
      "start": 31.4378,
      "duration": 0.0755,
      "velocity": 112,
      "chip": "ym2612"
    },
    {
      "channel": 1,
      "note": 48,
      "start": 31.4382,
      "duration": 0.0753,
      "velocity": 112,
      "chip": "ym2612"
    },
    {
      "channel": 2,
      "note": 39,
      "start": 31.4385,
      "duration": 0.1876,
      "velocity": 97,
      "chip": "ym2612"
    },
    {
      "channel": 4,
      "note": 65,
      "start": 31.4388,
      "duration": 0.4136,
      "velocity": 97,
      "chip": "ym2612"
    },
    {
      "channel": 0,
      "note": 51,
      "start": 31.5517,
      "duration": 0.0742,
      "velocity": 127,
      "chip": "ym2612"
    },
    {
      "channel": 0,
      "note": 41,
      "start": 31.6639,
      "duration": 0.0751,
      "velocity": 112,
      "chip": "ym2612"
    },
    {
      "channel": 1,
      "note": 51,
      "start": 31.665,
      "duration": 0.0743,
      "velocity": 127,
      "chip": "ym2612"
    },
    {
      "channel": 2,
      "note": 41,
      "start": 31.6652,
      "duration": 0.1871,
      "velocity": 97,
      "chip": "ym2612"
    },
    {
      "channel": 0,
      "note": 51,
      "start": 31.7771,
      "duration": 0.075,
      "velocity": 127,
      "chip": "ym2612"
    },
    {
      "channel": 1,
      "note": 48,
      "start": 31.778,
      "duration": 0.0741,
      "velocity": 112,
      "chip": "ym2612"
    },
    {
      "channel": 0,
      "note": 41,
      "start": 31.8901,
      "duration": 0.075,
      "velocity": 112,
      "chip": "ym2612"
    },
    {
      "channel": 1,
      "note": 49,
      "start": 31.8912,
      "duration": 0.4026,
      "velocity": 127,
      "chip": "ym2612"
    },
    {
      "channel": 2,
      "note": 32,
      "start": 31.8914,
      "duration": 0.1839,
      "velocity": 97,
      "chip": "ym2612"
    },
    {
      "channel": 4,
      "note": 68,
      "start": 31.8918,
      "duration": 0.1836,
      "velocity": 97,
      "chip": "ym2612"
    },
    {
      "channel": 0,
      "note": 51,
      "start": 32.0027,
      "duration": 0.0725,
      "velocity": 127,
      "chip": "ym2612"
    },
    {
      "channel": 0,
      "note": 51,
      "start": 32.1117,
      "duration": 0.1821,
      "velocity": 127,
      "chip": "ym2612"
    },
    {
      "channel": 2,
      "note": 32,
      "start": 32.1119,
      "duration": 0.0727,
      "velocity": 97,
      "chip": "ym2612"
    },
    {
      "channel": 4,
      "note": 65,
      "start": 32.1122,
      "duration": 0.0726,
      "velocity": 97,
      "chip": "ym2612"
    },
    {
      "channel": 2,
      "note": 34,
      "start": 32.2211,
      "duration": 0.1855,
      "velocity": 97,
      "chip": "ym2612"
    },
    {
      "channel": 4,
      "note": 68,
      "start": 32.2214,
      "duration": 0.0726,
      "velocity": 97,
      "chip": "ym2612"
    },
    {
      "channel": 0,
      "note": 41,
      "start": 32.331,
      "duration": 0.0753,
      "velocity": 112,
      "chip": "ym2612"
    },
    {
      "channel": 1,
      "note": 48,
      "start": 32.332,
      "duration": 0.0744,
      "velocity": 112,
      "chip": "ym2612"
    },
    {
      "channel": 4,
      "note": 70,
      "start": 32.3324,
      "duration": 0.1859,
      "velocity": 97,
      "chip": "ym2612"
    },
    {
      "channel": 0,
      "note": 51,
      "start": 32.4443,
      "duration": 0.0736,
      "velocity": 127,
      "chip": "ym2612"
    },
    {
      "channel": 2,
      "note": 34,
      "start": 32.4448,
      "duration": 0.0734,
      "velocity": 97,
      "chip": "ym2612"
    },
    {
      "channel": 0,
      "note": 51,
      "start": 32.5552,
      "duration": 0.0744,
      "velocity": 127,
      "chip": "ym2612"
    },
    {
      "channel": 2,
      "note": 37,
      "start": 32.5556,
      "duration": 0.1859,
      "velocity": 97,
      "chip": "ym2612"
    },
    {
      "channel": 4,
      "note": 65,
      "start": 32.5559,
      "duration": 0.2989,
      "velocity": 97,
      "chip": "ym2612"
    },
    {
      "channel": 0,
      "note": 51,
      "start": 32.6668,
      "duration": 0.0743,
      "velocity": 127,
      "chip": "ym2612"
    },
    {
      "channel": 1,
      "note": 48,
      "start": 32.6671,
      "duration": 0.0741,
      "velocity": 112,
      "chip": "ym2612"
    },
    {
      "channel": 0,
      "note": 41,
      "start": 32.7792,
      "duration": 0.0751,
      "velocity": 112,
      "chip": "ym2612"
    },
    {
      "channel": 1,
      "note": 51,
      "start": 32.7802,
      "duration": 0.0743,
      "velocity": 127,
      "chip": "ym2612"
    },
    {
      "channel": 2,
      "note": 37,
      "start": 32.7804,
      "duration": 0.0741,
      "velocity": 97,
      "chip": "ym2612"
    },
    {
      "channel": 0,
      "note": 51,
      "start": 32.8923,
      "duration": 0.0753,
      "velocity": 127,
      "chip": "ym2612"
    },
    {
      "channel": 1,
      "note": 48,
      "start": 32.8933,
      "duration": 0.0745,
      "velocity": 112,
      "chip": "ym2612"
    },
    {
      "channel": 2,
      "note": 34,
      "start": 32.8936,
      "duration": 0.1859,
      "velocity": 97,
      "chip": "ym2612"
    },
    {
      "channel": 4,
      "note": 68,
      "start": 32.8939,
      "duration": 0.0741,
      "velocity": 97,
      "chip": "ym2612"
    },
    {
      "channel": 0,
      "note": 51,
      "start": 33.0049,
      "duration": 0.0744,
      "velocity": 127,
      "chip": "ym2612"
    },
    {
      "channel": 4,
      "note": 65,
      "start": 33.0055,
      "duration": 0.0742,
      "velocity": 97,
      "chip": "ym2612"
    },
    {
      "channel": 0,
      "note": 51,
      "start": 33.1165,
      "duration": 0.0744,
      "velocity": 127,
      "chip": "ym2612"
    },
    {
      "channel": 2,
      "note": 34,
      "start": 33.1169,
      "duration": 0.0743,
      "velocity": 97,
      "chip": "ym2612"
    },
    {
      "channel": 4,
      "note": 68,
      "start": 33.1172,
      "duration": 0.0742,
      "velocity": 97,
      "chip": "ym2612"
    },
    {
      "channel": 0,
      "note": 41,
      "start": 33.229,
      "duration": 0.0755,
      "velocity": 112,
      "chip": "ym2612"
    },
    {
      "channel": 1,
      "note": 48,
      "start": 33.2294,
      "duration": 0.0753,
      "velocity": 112,
      "chip": "ym2612"
    },
    {
      "channel": 2,
      "note": 39,
      "start": 33.2297,
      "duration": 0.1876,
      "velocity": 97,
      "chip": "ym2612"
    },
    {
      "channel": 4,
      "note": 70,
      "start": 33.23,
      "duration": 0.1875,
      "velocity": 97,
      "chip": "ym2612"
    },
    {
      "channel": 0,
      "note": 51,
      "start": 33.3429,
      "duration": 0.0742,
      "velocity": 127,
      "chip": "ym2612"
    },
    {
      "channel": 0,
      "note": 41,
      "start": 33.4551,
      "duration": 0.0754,
      "velocity": 112,
      "chip": "ym2612"
    },
    {
      "channel": 1,
      "note": 51,
      "start": 33.4562,
      "duration": 0.0745,
      "velocity": 127,
      "chip": "ym2612"
    },
    {
      "channel": 2,
      "note": 41,
      "start": 33.4564,
      "duration": 0.1873,
      "velocity": 97,
      "chip": "ym2612"
    },
    {
      "channel": 4,
      "note": 65,
      "start": 33.4566,
      "duration": 0.1871,
      "velocity": 97,
      "chip": "ym2612"
    },
    {
      "channel": 0,
      "note": 51,
      "start": 33.5684,
      "duration": 0.075,
      "velocity": 127,
      "chip": "ym2612"
    },
    {
      "channel": 1,
      "note": 48,
      "start": 33.5693,
      "duration": 0.0741,
      "velocity": 112,
      "chip": "ym2612"
    },
    {
      "channel": 0,
      "note": 41,
      "start": 33.6815,
      "duration": 0.075,
      "velocity": 112,
      "chip": "ym2612"
    },
    {
      "channel": 1,
      "note": 49,
      "start": 33.6826,
      "duration": 0.4026,
      "velocity": 127,
      "chip": "ym2612"
    },
    {
      "channel": 2,
      "note": 32,
      "start": 33.6828,
      "duration": 0.1839,
      "velocity": 97,
      "chip": "ym2612"
    },
    {
      "channel": 4,
      "note": 68,
      "start": 33.6832,
      "duration": 0.1837,
      "velocity": 97,
      "chip": "ym2612"
    },
    {
      "channel": 0,
      "note": 51,
      "start": 33.794,
      "duration": 0.0725,
      "velocity": 127,
      "chip": "ym2612"
    },
    {
      "channel": 0,
      "note": 51,
      "start": 33.9031,
      "duration": 0.182,
      "velocity": 127,
      "chip": "ym2612"
    },
    {
      "channel": 2,
      "note": 32,
      "start": 33.9033,
      "duration": 0.0727,
      "velocity": 97,
      "chip": "ym2612"
    },
    {
      "channel": 4,
      "note": 69,
      "start": 33.9036,
      "duration": 0.0726,
      "velocity": 97,
      "chip": "ym2612"
    },
    {
      "channel": 2,
      "note": 34,
      "start": 34.0125,
      "duration": 0.1855,
      "velocity": 97,
      "chip": "ym2612"
    },
    {
      "channel": 4,
      "note": 70,
      "start": 34.0128,
      "duration": 0.0726,
      "velocity": 97,
      "chip": "ym2612"
    },
    {
      "channel": 0,
      "note": 41,
      "start": 34.1223,
      "duration": 0.0753,
      "velocity": 112,
      "chip": "ym2612"
    },
    {
      "channel": 1,
      "note": 48,
      "start": 34.1234,
      "duration": 0.0745,
      "velocity": 112,
      "chip": "ym2612"
    },
    {
      "channel": 4,
      "note": 71,
      "start": 34.1238,
      "duration": 0.1859,
      "velocity": 97,
      "chip": "ym2612"
    },
    {
      "channel": 0,
      "note": 51,
      "start": 34.2357,
      "duration": 0.0736,
      "velocity": 127,
      "chip": "ym2612"
    },
    {
      "channel": 2,
      "note": 34,
      "start": 34.2361,
      "duration": 0.0734,
      "velocity": 97,
      "chip": "ym2612"
    },
    {
      "channel": 0,
      "note": 51,
      "start": 34.3466,
      "duration": 0.0744,
      "velocity": 127,
      "chip": "ym2612"
    },
    {
      "channel": 2,
      "note": 37,
      "start": 34.347,
      "duration": 0.1861,
      "velocity": 97,
      "chip": "ym2612"
    },
    {
      "channel": 4,
      "note": 70,
      "start": 34.3472,
      "duration": 0.0741,
      "velocity": 97,
      "chip": "ym2612"
    },
    {
      "channel": 0,
      "note": 51,
      "start": 34.4583,
      "duration": 0.0745,
      "velocity": 127,
      "chip": "ym2612"
    },
    {
      "channel": 1,
      "note": 48,
      "start": 34.4585,
      "duration": 0.0743,
      "velocity": 112,
      "chip": "ym2612"
    },
    {
      "channel": 4,
      "note": 69,
      "start": 34.4589,
      "duration": 0.0742,
      "velocity": 97,
      "chip": "ym2612"
    },
    {
      "channel": 0,
      "note": 41,
      "start": 34.5708,
      "duration": 0.0753,
      "velocity": 112,
      "chip": "ym2612"
    },
    {
      "channel": 1,
      "note": 51,
      "start": 34.5718,
      "duration": 0.0744,
      "velocity": 127,
      "chip": "ym2612"
    },
    {
      "channel": 2,
      "note": 37,
      "start": 34.572,
      "duration": 0.0743,
      "velocity": 97,
      "chip": "ym2612"
    },
    {
      "channel": 4,
      "note": 68,
      "start": 34.5723,
      "duration": 0.0742,
      "velocity": 97,
      "chip": "ym2612"
    },
    {
      "channel": 0,
      "note": 51,
      "start": 34.6841,
      "duration": 0.0753,
      "velocity": 127,
      "chip": "ym2612"
    },
    {
      "channel": 1,
      "note": 48,
      "start": 34.6851,
      "duration": 0.0745,
      "velocity": 112,
      "chip": "ym2612"
    },
    {
      "channel": 2,
      "note": 34,
      "start": 34.6854,
      "duration": 0.1859,
      "velocity": 97,
      "chip": "ym2612"
    },
    {
      "channel": 4,
      "note": 70,
      "start": 34.6856,
      "duration": 0.0742,
      "velocity": 97,
      "chip": "ym2612"
    },
    {
      "channel": 0,
      "note": 51,
      "start": 34.7967,
      "duration": 0.0744,
      "velocity": 127,
      "chip": "ym2612"
    },
    {
      "channel": 4,
      "note": 71,
      "start": 34.7973,
      "duration": 0.0741,
      "velocity": 97,
      "chip": "ym2612"
    },
    {
      "channel": 0,
      "note": 51,
      "start": 34.9083,
      "duration": 0.0744,
      "velocity": 127,
      "chip": "ym2612"
    },
    {
      "channel": 2,
      "note": 34,
      "start": 34.9087,
      "duration": 0.0743,
      "velocity": 97,
      "chip": "ym2612"
    },
    {
      "channel": 4,
      "note": 72,
      "start": 34.9089,
      "duration": 0.0742,
      "velocity": 97,
      "chip": "ym2612"
    },
    {
      "channel": 0,
      "note": 41,
      "start": 35.0208,
      "duration": 0.0755,
      "velocity": 112,
      "chip": "ym2612"
    },
    {
      "channel": 1,
      "note": 48,
      "start": 35.0212,
      "duration": 0.0753,
      "velocity": 112,
      "chip": "ym2612"
    },
    {
      "channel": 2,
      "note": 39,
      "start": 35.0215,
      "duration": 0.1876,
      "velocity": 97,
      "chip": "ym2612"
    },
    {
      "channel": 4,
      "note": 73,
      "start": 35.0217,
      "duration": 0.4136,
      "velocity": 97,
      "chip": "ym2612"
    },
    {
      "channel": 0,
      "note": 51,
      "start": 35.1347,
      "duration": 0.0742,
      "velocity": 127,
      "chip": "ym2612"
    },
    {
      "channel": 0,
      "note": 41,
      "start": 35.2469,
      "duration": 0.0752,
      "velocity": 112,
      "chip": "ym2612"
    },
    {
      "channel": 1,
      "note": 51,
      "start": 35.2479,
      "duration": 0.0743,
      "velocity": 127,
      "chip": "ym2612"
    },
    {
      "channel": 2,
      "note": 41,
      "start": 35.2481,
      "duration": 0.1871,
      "velocity": 97,
      "chip": "ym2612"
    },
    {
      "channel": 0,
      "note": 51,
      "start": 35.36,
      "duration": 0.075,
      "velocity": 127,
      "chip": "ym2612"
    },
    {
      "channel": 1,
      "note": 48,
      "start": 35.3609,
      "duration": 0.0741,
      "velocity": 112,
      "chip": "ym2612"
    },
    {
      "channel": 0,
      "note": 41,
      "start": 35.4731,
      "duration": 0.0751,
      "velocity": 112,
      "chip": "ym2612"
    },
    {
      "channel": 1,
      "note": 49,
      "start": 35.4741,
      "duration": 0.4033,
      "velocity": 127,
      "chip": "ym2612"
    },
    {
      "channel": 2,
      "note": 32,
      "start": 35.4744,
      "duration": 0.1843,
      "velocity": 97,
      "chip": "ym2612"
    },
    {
      "channel": 3,
      "note": 61,
      "start": 35.4747,
      "duration": 0.0738,
      "velocity": 80,
      "chip": "ym2612"
    },
    {
      "channel": 4,
      "note": 68,
      "start": 35.475,
      "duration": 0.1838,
      "velocity": 97,
      "chip": "ym2612"
    },
    {
      "channel": 0,
      "note": 51,
      "start": 35.5858,
      "duration": 0.0727,
      "velocity": 127,
      "chip": "ym2612"
    },
    {
      "channel": 3,
      "note": 61,
      "start": 35.5861,
      "duration": 0.0726,
      "velocity": 80,
      "chip": "ym2612"
    },
    {
      "channel": 0,
      "note": 51,
      "start": 35.695,
      "duration": 0.1824,
      "velocity": 127,
      "chip": "ym2612"
    },
    {
      "channel": 2,
      "note": 32,
      "start": 35.6953,
      "duration": 0.0729,
      "velocity": 97,
      "chip": "ym2612"
    },
    {
      "channel": 3,
      "note": 73,
      "start": 35.6955,
      "duration": 0.0727,
      "velocity": 80,
      "chip": "ym2612"
    },
    {
      "channel": 4,
      "note": 65,
      "start": 35.6957,
      "duration": 0.0726,
      "velocity": 97,
      "chip": "ym2612"
    },
    {
      "channel": 2,
      "note": 34,
      "start": 35.8046,
      "duration": 0.1859,
      "velocity": 97,
      "chip": "ym2612"
    },
    {
      "channel": 3,
      "note": 73,
      "start": 35.8048,
      "duration": 0.0728,
      "velocity": 80,
      "chip": "ym2612"
    },
    {
      "channel": 4,
      "note": 68,
      "start": 35.8051,
      "duration": 0.0726,
      "velocity": 97,
      "chip": "ym2612"
    },
    {
      "channel": 0,
      "note": 41,
      "start": 35.9147,
      "duration": 0.0755,
      "velocity": 112,
      "chip": "ym2612"
    },
    {
      "channel": 1,
      "note": 48,
      "start": 35.9157,
      "duration": 0.0746,
      "velocity": 112,
      "chip": "ym2612"
    },
    {
      "channel": 3,
      "note": 61,
      "start": 35.9161,
      "duration": 0.0745,
      "velocity": 80,
      "chip": "ym2612"
    },
    {
      "channel": 4,
      "note": 70,
      "start": 35.9163,
      "duration": 0.1861,
      "velocity": 97,
      "chip": "ym2612"
    },
    {
      "channel": 0,
      "note": 51,
      "start": 36.0283,
      "duration": 0.0738,
      "velocity": 127,
      "chip": "ym2612"
    },
    {
      "channel": 2,
      "note": 34,
      "start": 36.0287,
      "duration": 0.0736,
      "velocity": 97,
      "chip": "ym2612"
    },
    {
      "channel": 3,
      "note": 61,
      "start": 36.0289,
      "duration": 0.0735,
      "velocity": 80,
      "chip": "ym2612"
    },
    {
      "channel": 0,
      "note": 51,
      "start": 36.1393,
      "duration": 0.0746,
      "velocity": 127,
      "chip": "ym2612"
    },
    {
      "channel": 2,
      "note": 37,
      "start": 36.1397,
      "duration": 0.1862,
      "velocity": 97,
      "chip": "ym2612"
    },
    {
      "channel": 3,
      "note": 73,
      "start": 36.1399,
      "duration": 0.0743,
      "velocity": 80,
      "chip": "ym2612"
    },
    {
      "channel": 4,
      "note": 65,
      "start": 36.1401,
      "duration": 0.2993,
      "velocity": 97,
      "chip": "ym2612"
    },
    {
      "channel": 0,
      "note": 51,
      "start": 36.2511,
      "duration": 0.0745,
      "velocity": 127,
      "chip": "ym2612"
    },
    {
      "channel": 1,
      "note": 48,
      "start": 36.2514,
      "duration": 0.0743,
      "velocity": 112,
      "chip": "ym2612"
    },
    {
      "channel": 3,
      "note": 73,
      "start": 36.2517,
      "duration": 0.0742,
      "velocity": 80,
      "chip": "ym2612"
    },
    {
      "channel": 0,
      "note": 41,
      "start": 36.3637,
      "duration": 0.0753,
      "velocity": 112,
      "chip": "ym2612"
    },
    {
      "channel": 1,
      "note": 51,
      "start": 36.3647,
      "duration": 0.0745,
      "velocity": 127,
      "chip": "ym2612"
    },
    {
      "channel": 2,
      "note": 37,
      "start": 36.3649,
      "duration": 0.0744,
      "velocity": 97,
      "chip": "ym2612"
    },
    {
      "channel": 3,
      "note": 61,
      "start": 36.3651,
      "duration": 0.0742,
      "velocity": 80,
      "chip": "ym2612"
    },
    {
      "channel": 0,
      "note": 51,
      "start": 36.477,
      "duration": 0.0755,
      "velocity": 127,
      "chip": "ym2612"
    },
    {
      "channel": 1,
      "note": 48,
      "start": 36.4779,
      "duration": 0.0746,
      "velocity": 112,
      "chip": "ym2612"
    },
    {
      "channel": 2,
      "note": 34,
      "start": 36.4783,
      "duration": 0.1863,
      "velocity": 97,
      "chip": "ym2612"
    },
    {
      "channel": 3,
      "note": 61,
      "start": 36.4785,
      "duration": 0.0743,
      "velocity": 80,
      "chip": "ym2612"
    },
    {
      "channel": 4,
      "note": 68,
      "start": 36.4787,
      "duration": 0.0742,
      "velocity": 97,
      "chip": "ym2612"
    },
    {
      "channel": 0,
      "note": 51,
      "start": 36.5898,
      "duration": 0.0745,
      "velocity": 127,
      "chip": "ym2612"
    },
    {
      "channel": 3,
      "note": 73,
      "start": 36.5902,
      "duration": 0.0743,
      "velocity": 80,
      "chip": "ym2612"
    },
    {
      "channel": 4,
      "note": 65,
      "start": 36.5905,
      "duration": 0.0742,
      "velocity": 97,
      "chip": "ym2612"
    },
    {
      "channel": 0,
      "note": 51,
      "start": 36.7016,
      "duration": 0.0746,
      "velocity": 127,
      "chip": "ym2612"
    },
    {
      "channel": 2,
      "note": 34,
      "start": 36.7019,
      "duration": 0.0745,
      "velocity": 97,
      "chip": "ym2612"
    },
    {
      "channel": 3,
      "note": 73,
      "start": 36.7021,
      "duration": 0.0744,
      "velocity": 80,
      "chip": "ym2612"
    },
    {
      "channel": 4,
      "note": 68,
      "start": 36.7023,
      "duration": 0.0742,
      "velocity": 97,
      "chip": "ym2612"
    },
    {
      "channel": 0,
      "note": 41,
      "start": 36.8142,
      "duration": 0.0757,
      "velocity": 112,
      "chip": "ym2612"
    },
    {
      "channel": 1,
      "note": 48,
      "start": 36.8146,
      "duration": 0.0755,
      "velocity": 112,
      "chip": "ym2612"
    },
    {
      "channel": 2,
      "note": 39,
      "start": 36.8149,
      "duration": 0.188,
      "velocity": 97,
      "chip": "ym2612"
    },
    {
      "channel": 3,
      "note": 61,
      "start": 36.8151,
      "duration": 0.0752,
      "velocity": 80,
      "chip": "ym2612"
    },
    {
      "channel": 4,
      "note": 70,
      "start": 36.8154,
      "duration": 0.1877,
      "velocity": 97,
      "chip": "ym2612"
    },
    {
      "channel": 0,
      "note": 51,
      "start": 36.9283,
      "duration": 0.0743,
      "velocity": 127,
      "chip": "ym2612"
    },
    {
      "channel": 3,
      "note": 61,
      "start": 36.9288,
      "duration": 0.0742,
      "velocity": 80,
      "chip": "ym2612"
    },
    {
      "channel": 0,
      "note": 41,
      "start": 37.0407,
      "duration": 0.0755,
      "velocity": 112,
      "chip": "ym2612"
    },
    {
      "channel": 1,
      "note": 51,
      "start": 37.0418,
      "duration": 0.0746,
      "velocity": 127,
      "chip": "ym2612"
    },
    {
      "channel": 2,
      "note": 41,
      "start": 37.042,
      "duration": 0.1876,
      "velocity": 97,
      "chip": "ym2612"
    },
    {
      "channel": 3,
      "note": 73,
      "start": 37.0422,
      "duration": 0.0744,
      "velocity": 80,
      "chip": "ym2612"
    },
    {
      "channel": 4,
      "note": 65,
      "start": 37.0424,
      "duration": 0.1873,
      "velocity": 97,
      "chip": "ym2612"
    },
    {
      "channel": 0,
      "note": 51,
      "start": 37.1542,
      "duration": 0.0751,
      "velocity": 127,
      "chip": "ym2612"
    },
    {
      "channel": 1,
      "note": 48,
      "start": 37.1551,
      "duration": 0.0743,
      "velocity": 112,
      "chip": "ym2612"
    },
    {
      "channel": 3,
      "note": 73,
      "start": 37.1555,
      "duration": 0.0742,
      "velocity": 80,
      "chip": "ym2612"
    },
    {
      "channel": 0,
      "note": 41,
      "start": 37.2675,
      "duration": 0.075,
      "velocity": 112,
      "chip": "ym2612"
    },
    {
      "channel": 1,
      "note": 49,
      "start": 37.2685,
      "duration": 0.4032,
      "velocity": 127,
      "chip": "ym2612"
    },
    {
      "channel": 2,
      "note": 32,
      "start": 37.2688,
      "duration": 0.1841,
      "velocity": 97,
      "chip": "ym2612"
    },
    {
      "channel": 3,
      "note": 61,
      "start": 37.269,
      "duration": 0.0737,
      "velocity": 80,
      "chip": "ym2612"
    },
    {
      "channel": 4,
      "note": 68,
      "start": 37.2693,
      "duration": 0.1838,
      "velocity": 97,
      "chip": "ym2612"
    },
    {
      "channel": 0,
      "note": 51,
      "start": 37.3801,
      "duration": 0.0727,
      "velocity": 127,
      "chip": "ym2612"
    },
    {
      "channel": 3,
      "note": 61,
      "start": 37.3804,
      "duration": 0.0726,
      "velocity": 80,
      "chip": "ym2612"
    },
    {
      "channel": 0,
      "note": 51,
      "start": 37.4893,
      "duration": 0.1824,
      "velocity": 127,
      "chip": "ym2612"
    },
    {
      "channel": 2,
      "note": 32,
      "start": 37.4896,
      "duration": 0.0729,
      "velocity": 97,
      "chip": "ym2612"
    },
    {
      "channel": 3,
      "note": 73,
      "start": 37.4898,
      "duration": 0.0728,
      "velocity": 80,
      "chip": "ym2612"
    },
    {
      "channel": 4,
      "note": 69,
      "start": 37.49,
      "duration": 0.0726,
      "velocity": 97,
      "chip": "ym2612"
    },
    {
      "channel": 2,
      "note": 34,
      "start": 37.5989,
      "duration": 0.1859,
      "velocity": 97,
      "chip": "ym2612"
    },
    {
      "channel": 3,
      "note": 73,
      "start": 37.5991,
      "duration": 0.0728,
      "velocity": 80,
      "chip": "ym2612"
    },
    {
      "channel": 4,
      "note": 70,
      "start": 37.5993,
      "duration": 0.0726,
      "velocity": 97,
      "chip": "ym2612"
    },
    {
      "channel": 0,
      "note": 41,
      "start": 37.7089,
      "duration": 0.0755,
      "velocity": 112,
      "chip": "ym2612"
    },
    {
      "channel": 1,
      "note": 48,
      "start": 37.71,
      "duration": 0.0746,
      "velocity": 112,
      "chip": "ym2612"
    },
    {
      "channel": 3,
      "note": 61,
      "start": 37.7104,
      "duration": 0.0745,
      "velocity": 80,
      "chip": "ym2612"
    },
    {
      "channel": 4,
      "note": 71,
      "start": 37.7106,
      "duration": 0.1861,
      "velocity": 97,
      "chip": "ym2612"
    },
    {
      "channel": 0,
      "note": 51,
      "start": 37.8225,
      "duration": 0.0738,
      "velocity": 127,
      "chip": "ym2612"
    },
    {
      "channel": 2,
      "note": 34,
      "start": 37.823,
      "duration": 0.0736,
      "velocity": 97,
      "chip": "ym2612"
    },
    {
      "channel": 3,
      "note": 61,
      "start": 37.8232,
      "duration": 0.0734,
      "velocity": 80,
      "chip": "ym2612"
    },
    {
      "channel": 0,
      "note": 51,
      "start": 37.9336,
      "duration": 0.0746,
      "velocity": 127,
      "chip": "ym2612"
    },
    {
      "channel": 2,
      "note": 37,
      "start": 37.934,
      "duration": 0.1864,
      "velocity": 97,
      "chip": "ym2612"
    },
    {
      "channel": 3,
      "note": 73,
      "start": 37.9341,
      "duration": 0.0743,
      "velocity": 80,
      "chip": "ym2612"
    },
    {
      "channel": 4,
      "note": 70,
      "start": 37.9344,
      "duration": 0.0742,
      "velocity": 97,
      "chip": "ym2612"
    },
    {
      "channel": 0,
      "note": 51,
      "start": 38.0454,
      "duration": 0.0746,
      "velocity": 127,
      "chip": "ym2612"
    },
    {
      "channel": 1,
      "note": 48,
      "start": 38.0457,
      "duration": 0.0745,
      "velocity": 112,
      "chip": "ym2612"
    },
    {
      "channel": 3,
      "note": 73,
      "start": 38.0461,
      "duration": 0.0744,
      "velocity": 80,
      "chip": "ym2612"
    },
    {
      "channel": 4,
      "note": 69,
      "start": 38.0463,
      "duration": 0.0742,
      "velocity": 97,
      "chip": "ym2612"
    },
    {
      "channel": 0,
      "note": 41,
      "start": 38.1582,
      "duration": 0.0755,
      "velocity": 112,
      "chip": "ym2612"
    },
    {
      "channel": 1,
      "note": 51,
      "start": 38.1592,
      "duration": 0.0747,
      "velocity": 127,
      "chip": "ym2612"
    },
    {
      "channel": 2,
      "note": 37,
      "start": 38.1594,
      "duration": 0.0745,
      "velocity": 97,
      "chip": "ym2612"
    },
    {
      "channel": 3,
      "note": 61,
      "start": 38.1596,
      "duration": 0.0744,
      "velocity": 80,
      "chip": "ym2612"
    },
    {
      "channel": 4,
      "note": 68,
      "start": 38.1599,
      "duration": 0.0742,
      "velocity": 97,
      "chip": "ym2612"
    },
    {
      "channel": 0,
      "note": 51,
      "start": 38.2717,
      "duration": 0.0755,
      "velocity": 127,
      "chip": "ym2612"
    },
    {
      "channel": 1,
      "note": 48,
      "start": 38.2726,
      "duration": 0.0746,
      "velocity": 112,
      "chip": "ym2612"
    },
    {
      "channel": 2,
      "note": 34,
      "start": 38.2729,
      "duration": 0.1863,
      "velocity": 97,
      "chip": "ym2612"
    },
    {
      "channel": 3,
      "note": 61,
      "start": 38.2731,
      "duration": 0.0744,
      "velocity": 80,
      "chip": "ym2612"
    },
    {
      "channel": 4,
      "note": 61,
      "start": 38.2734,
      "duration": 0.0742,
      "velocity": 97,
      "chip": "ym2612"
    },
    {
      "channel": 0,
      "note": 51,
      "start": 38.3845,
      "duration": 0.0745,
      "velocity": 127,
      "chip": "ym2612"
    },
    {
      "channel": 3,
      "note": 73,
      "start": 38.3849,
      "duration": 0.0743,
      "velocity": 80,
      "chip": "ym2612"
    },
    {
      "channel": 4,
      "note": 63,
      "start": 38.3852,
      "duration": 0.0742,
      "velocity": 97,
      "chip": "ym2612"
    },
    {
      "channel": 0,
      "note": 51,
      "start": 38.4963,
      "duration": 0.0746,
      "velocity": 127,
      "chip": "ym2612"
    },
    {
      "channel": 2,
      "note": 34,
      "start": 38.4966,
      "duration": 0.0745,
      "velocity": 97,
      "chip": "ym2612"
    },
    {
      "channel": 3,
      "note": 73,
      "start": 38.4968,
      "duration": 0.0744,
      "velocity": 80,
      "chip": "ym2612"
    },
    {
      "channel": 4,
      "note": 64,
      "start": 38.497,
      "duration": 0.0742,
      "velocity": 97,
      "chip": "ym2612"
    },
    {
      "channel": 0,
      "note": 41,
      "start": 38.6089,
      "duration": 0.0757,
      "velocity": 112,
      "chip": "ym2612"
    },
    {
      "channel": 1,
      "note": 48,
      "start": 38.6093,
      "duration": 0.0755,
      "velocity": 112,
      "chip": "ym2612"
    },
    {
      "channel": 2,
      "note": 39,
      "start": 38.6096,
      "duration": 0.188,
      "velocity": 97,
      "chip": "ym2612"
    },
    {
      "channel": 3,
      "note": 61,
      "start": 38.6098,
      "duration": 0.0752,
      "velocity": 80,
      "chip": "ym2612"
    },
    {
      "channel": 4,
      "note": 65,
      "start": 38.6101,
      "duration": 0.4142,
      "velocity": 97,
      "chip": "ym2612"
    },
    {
      "channel": 0,
      "note": 51,
      "start": 38.723,
      "duration": 0.0743,
      "velocity": 127,
      "chip": "ym2612"
    },
    {
      "channel": 3,
      "note": 61,
      "start": 38.7235,
      "duration": 0.0742,
      "velocity": 80,
      "chip": "ym2612"
    },
    {
      "channel": 0,
      "note": 41,
      "start": 38.8354,
      "duration": 0.0753,
      "velocity": 112,
      "chip": "ym2612"
    },
    {
      "channel": 1,
      "note": 51,
      "start": 38.8364,
      "duration": 0.0744,
      "velocity": 127,
      "chip": "ym2612"
    },
    {
      "channel": 2,
      "note": 41,
      "start": 38.8366,
      "duration": 0.1874,
      "velocity": 97,
      "chip": "ym2612"
    },
    {
      "channel": 3,
      "note": 73,
      "start": 38.8368,
      "duration": 0.0741,
      "velocity": 80,
      "chip": "ym2612"
    },
    {
      "channel": 0,
      "note": 51,
      "start": 38.9487,
      "duration": 0.0751,
      "velocity": 127,
      "chip": "ym2612"
    },
    {
      "channel": 1,
      "note": 48,
      "start": 38.9496,
      "duration": 0.0743,
      "velocity": 112,
      "chip": "ym2612"
    },
    {
      "channel": 3,
      "note": 73,
      "start": 38.95,
      "duration": 0.0742,
      "velocity": 80,
      "chip": "ym2612"
    },
    {
      "channel": 0,
      "note": 41,
      "start": 39.0619,
      "duration": 0.0751,
      "velocity": 112,
      "chip": "ym2612"
    },
    {
      "channel": 1,
      "note": 49,
      "start": 39.063,
      "duration": 0.4032,
      "velocity": 127,
      "chip": "ym2612"
    },
    {
      "channel": 2,
      "note": 32,
      "start": 39.0633,
      "duration": 0.1841,
      "velocity": 97,
      "chip": "ym2612"
    },
    {
      "channel": 3,
      "note": 61,
      "start": 39.0635,
      "duration": 0.0737,
      "velocity": 80,
      "chip": "ym2612"
    },
    {
      "channel": 4,
      "note": 68,
      "start": 39.0637,
      "duration": 0.1838,
      "velocity": 97,
      "chip": "ym2612"
    },
    {
      "channel": 0,
      "note": 51,
      "start": 39.1746,
      "duration": 0.0727,
      "velocity": 127,
      "chip": "ym2612"
    },
    {
      "channel": 3,
      "note": 61,
      "start": 39.1749,
      "duration": 0.0726,
      "velocity": 80,
      "chip": "ym2612"
    },
    {
      "channel": 0,
      "note": 51,
      "start": 39.2838,
      "duration": 0.1824,
      "velocity": 127,
      "chip": "ym2612"
    },
    {
      "channel": 2,
      "note": 32,
      "start": 39.284,
      "duration": 0.0729,
      "velocity": 97,
      "chip": "ym2612"
    },
    {
      "channel": 3,
      "note": 73,
      "start": 39.2842,
      "duration": 0.0728,
      "velocity": 80,
      "chip": "ym2612"
    },
    {
      "channel": 4,
      "note": 65,
      "start": 39.2845,
      "duration": 0.0726,
      "velocity": 97,
      "chip": "ym2612"
    },
    {
      "channel": 2,
      "note": 34,
      "start": 39.3934,
      "duration": 0.1859,
      "velocity": 97,
      "chip": "ym2612"
    },
    {
      "channel": 3,
      "note": 73,
      "start": 39.3936,
      "duration": 0.0728,
      "velocity": 80,
      "chip": "ym2612"
    },
    {
      "channel": 4,
      "note": 68,
      "start": 39.3938,
      "duration": 0.0726,
      "velocity": 97,
      "chip": "ym2612"
    },
    {
      "channel": 0,
      "note": 41,
      "start": 39.5034,
      "duration": 0.0755,
      "velocity": 112,
      "chip": "ym2612"
    },
    {
      "channel": 1,
      "note": 48,
      "start": 39.5044,
      "duration": 0.0746,
      "velocity": 112,
      "chip": "ym2612"
    },
    {
      "channel": 3,
      "note": 61,
      "start": 39.5049,
      "duration": 0.0745,
      "velocity": 80,
      "chip": "ym2612"
    },
    {
      "channel": 4,
      "note": 70,
      "start": 39.5051,
      "duration": 0.1861,
      "velocity": 97,
      "chip": "ym2612"
    },
    {
      "channel": 0,
      "note": 51,
      "start": 39.617,
      "duration": 0.0738,
      "velocity": 127,
      "chip": "ym2612"
    },
    {
      "channel": 2,
      "note": 34,
      "start": 39.6175,
      "duration": 0.0736,
      "velocity": 97,
      "chip": "ym2612"
    },
    {
      "channel": 3,
      "note": 61,
      "start": 39.6177,
      "duration": 0.0734,
      "velocity": 80,
      "chip": "ym2612"
    },
    {
      "channel": 0,
      "note": 51,
      "start": 39.7281,
      "duration": 0.0746,
      "velocity": 127,
      "chip": "ym2612"
    },
    {
      "channel": 2,
      "note": 37,
      "start": 39.7284,
      "duration": 0.1862,
      "velocity": 97,
      "chip": "ym2612"
    },
    {
      "channel": 3,
      "note": 73,
      "start": 39.7286,
      "duration": 0.0743,
      "velocity": 80,
      "chip": "ym2612"
    },
    {
      "channel": 4,
      "note": 65,
      "start": 39.7289,
      "duration": 0.2993,
      "velocity": 97,
      "chip": "ym2612"
    },
    {
      "channel": 0,
      "note": 51,
      "start": 39.8399,
      "duration": 0.0745,
      "velocity": 127,
      "chip": "ym2612"
    },
    {
      "channel": 1,
      "note": 48,
      "start": 39.8402,
      "duration": 0.0743,
      "velocity": 112,
      "chip": "ym2612"
    },
    {
      "channel": 3,
      "note": 73,
      "start": 39.8405,
      "duration": 0.0742,
      "velocity": 80,
      "chip": "ym2612"
    },
    {
      "channel": 0,
      "note": 41,
      "start": 39.9524,
      "duration": 0.0753,
      "velocity": 112,
      "chip": "ym2612"
    },
    {
      "channel": 1,
      "note": 51,
      "start": 39.9534,
      "duration": 0.0745,
      "velocity": 127,
      "chip": "ym2612"
    },
    {
      "channel": 2,
      "note": 37,
      "start": 39.9537,
      "duration": 0.0743,
      "velocity": 97,
      "chip": "ym2612"
    },
    {
      "channel": 3,
      "note": 61,
      "start": 39.9539,
      "duration": 0.0742,
      "velocity": 80,
      "chip": "ym2612"
    },
    {
      "channel": 0,
      "note": 51,
      "start": 40.0658,
      "duration": 0.0755,
      "velocity": 127,
      "chip": "ym2612"
    },
    {
      "channel": 1,
      "note": 48,
      "start": 40.0667,
      "duration": 0.0746,
      "velocity": 112,
      "chip": "ym2612"
    },
    {
      "channel": 2,
      "note": 34,
      "start": 40.067,
      "duration": 0.1863,
      "velocity": 97,
      "chip": "ym2612"
    },
    {
      "channel": 3,
      "note": 61,
      "start": 40.0672,
      "duration": 0.0744,
      "velocity": 80,
      "chip": "ym2612"
    },
    {
      "channel": 4,
      "note": 68,
      "start": 40.0674,
      "duration": 0.0742,
      "velocity": 97,
      "chip": "ym2612"
    },
    {
      "channel": 0,
      "note": 51,
      "start": 40.1785,
      "duration": 0.0745,
      "velocity": 127,
      "chip": "ym2612"
    },
    {
      "channel": 3,
      "note": 73,
      "start": 40.179,
      "duration": 0.0743,
      "velocity": 80,
      "chip": "ym2612"
    },
    {
      "channel": 4,
      "note": 65,
      "start": 40.1793,
      "duration": 0.0742,
      "velocity": 97,
      "chip": "ym2612"
    },
    {
      "channel": 0,
      "note": 51,
      "start": 40.2903,
      "duration": 0.0746,
      "velocity": 127,
      "chip": "ym2612"
    },
    {
      "channel": 2,
      "note": 34,
      "start": 40.2907,
      "duration": 0.0745,
      "velocity": 97,
      "chip": "ym2612"
    },
    {
      "channel": 3,
      "note": 73,
      "start": 40.2909,
      "duration": 0.0744,
      "velocity": 80,
      "chip": "ym2612"
    },
    {
      "channel": 4,
      "note": 68,
      "start": 40.2911,
      "duration": 0.0742,
      "velocity": 97,
      "chip": "ym2612"
    },
    {
      "channel": 0,
      "note": 41,
      "start": 40.403,
      "duration": 0.0757,
      "velocity": 112,
      "chip": "ym2612"
    },
    {
      "channel": 1,
      "note": 48,
      "start": 40.4034,
      "duration": 0.0755,
      "velocity": 112,
      "chip": "ym2612"
    },
    {
      "channel": 2,
      "note": 39,
      "start": 40.4037,
      "duration": 0.188,
      "velocity": 97,
      "chip": "ym2612"
    },
    {
      "channel": 3,
      "note": 61,
      "start": 40.4039,
      "duration": 0.0752,
      "velocity": 80,
      "chip": "ym2612"
    },
    {
      "channel": 4,
      "note": 70,
      "start": 40.4041,
      "duration": 0.1877,
      "velocity": 97,
      "chip": "ym2612"
    },
    {
      "channel": 0,
      "note": 51,
      "start": 40.5171,
      "duration": 0.0744,
      "velocity": 127,
      "chip": "ym2612"
    },
    {
      "channel": 3,
      "note": 61,
      "start": 40.5176,
      "duration": 0.0742,
      "velocity": 80,
      "chip": "ym2612"
    },
    {
      "channel": 0,
      "note": 41,
      "start": 40.6295,
      "duration": 0.0755,
      "velocity": 112,
      "chip": "ym2612"
    },
    {
      "channel": 1,
      "note": 51,
      "start": 40.6305,
      "duration": 0.0746,
      "velocity": 127,
      "chip": "ym2612"
    },
    {
      "channel": 2,
      "note": 41,
      "start": 40.6307,
      "duration": 0.1876,
      "velocity": 97,
      "chip": "ym2612"
    },
    {
      "channel": 3,
      "note": 73,
      "start": 40.631,
      "duration": 0.0743,
      "velocity": 80,
      "chip": "ym2612"
    },
    {
      "channel": 4,
      "note": 65,
      "start": 40.6312,
      "duration": 0.1873,
      "velocity": 97,
      "chip": "ym2612"
    },
    {
      "channel": 0,
      "note": 51,
      "start": 40.743,
      "duration": 0.0751,
      "velocity": 127,
      "chip": "ym2612"
    },
    {
      "channel": 1,
      "note": 48,
      "start": 40.7439,
      "duration": 0.0743,
      "velocity": 112,
      "chip": "ym2612"
    },
    {
      "channel": 3,
      "note": 73,
      "start": 40.7442,
      "duration": 0.0742,
      "velocity": 80,
      "chip": "ym2612"
    },
    {
      "channel": 0,
      "note": 41,
      "start": 40.8562,
      "duration": 0.0758,
      "velocity": 112,
      "chip": "ym2612"
    },
    {
      "channel": 1,
      "note": 49,
      "start": 40.858,
      "duration": 0.4032,
      "velocity": 127,
      "chip": "ym2612"
    },
    {
      "channel": 2,
      "note": 32,
      "start": 40.8583,
      "duration": 0.1841,
      "velocity": 97,
      "chip": "ym2612"
    },
    {
      "channel": 3,
      "note": 61,
      "start": 40.8585,
      "duration": 0.0737,
      "velocity": 80,
      "chip": "ym2612"
    },
    {
      "channel": 4,
      "note": 68,
      "start": 40.8587,
      "duration": 0.1838,
      "velocity": 97,
      "chip": "ym2612"
    },
    {
      "channel": 0,
      "note": 51,
      "start": 40.9696,
      "duration": 0.0727,
      "velocity": 127,
      "chip": "ym2612"
    },
    {
      "channel": 3,
      "note": 61,
      "start": 40.9699,
      "duration": 0.0726,
      "velocity": 80,
      "chip": "ym2612"
    },
    {
      "channel": 0,
      "note": 51,
      "start": 41.0788,
      "duration": 0.1824,
      "velocity": 127,
      "chip": "ym2612"
    },
    {
      "channel": 2,
      "note": 32,
      "start": 41.079,
      "duration": 0.0729,
      "velocity": 97,
      "chip": "ym2612"
    },
    {
      "channel": 3,
      "note": 73,
      "start": 41.0792,
      "duration": 0.0728,
      "velocity": 80,
      "chip": "ym2612"
    },
    {
      "channel": 4,
      "note": 69,
      "start": 41.0795,
      "duration": 0.0726,
      "velocity": 97,
      "chip": "ym2612"
    },
    {
      "channel": 2,
      "note": 34,
      "start": 41.1884,
      "duration": 0.1859,
      "velocity": 97,
      "chip": "ym2612"
    },
    {
      "channel": 3,
      "note": 73,
      "start": 41.1886,
      "duration": 0.0728,
      "velocity": 80,
      "chip": "ym2612"
    },
    {
      "channel": 4,
      "note": 70,
      "start": 41.1888,
      "duration": 0.0726,
      "velocity": 97,
      "chip": "ym2612"
    },
    {
      "channel": 0,
      "note": 41,
      "start": 41.2984,
      "duration": 0.0755,
      "velocity": 112,
      "chip": "ym2612"
    },
    {
      "channel": 1,
      "note": 48,
      "start": 41.2994,
      "duration": 0.0746,
      "velocity": 112,
      "chip": "ym2612"
    },
    {
      "channel": 3,
      "note": 61,
      "start": 41.2998,
      "duration": 0.0745,
      "velocity": 80,
      "chip": "ym2612"
    },
    {
      "channel": 4,
      "note": 71,
      "start": 41.3001,
      "duration": 0.1861,
      "velocity": 97,
      "chip": "ym2612"
    },
    {
      "channel": 0,
      "note": 51,
      "start": 41.412,
      "duration": 0.0738,
      "velocity": 127,
      "chip": "ym2612"
    },
    {
      "channel": 2,
      "note": 34,
      "start": 41.4124,
      "duration": 0.0736,
      "velocity": 97,
      "chip": "ym2612"
    },
    {
      "channel": 3,
      "note": 61,
      "start": 41.4127,
      "duration": 0.0734,
      "velocity": 80,
      "chip": "ym2612"
    },
    {
      "channel": 0,
      "note": 51,
      "start": 41.5231,
      "duration": 0.0746,
      "velocity": 127,
      "chip": "ym2612"
    },
    {
      "channel": 2,
      "note": 37,
      "start": 41.5234,
      "duration": 0.1864,
      "velocity": 97,
      "chip": "ym2612"
    },
    {
      "channel": 3,
      "note": 73,
      "start": 41.5236,
      "duration": 0.0743,
      "velocity": 80,
      "chip": "ym2612"
    },
    {
      "channel": 4,
      "note": 70,
      "start": 41.5239,
      "duration": 0.0742,
      "velocity": 97,
      "chip": "ym2612"
    },
    {
      "channel": 0,
      "note": 51,
      "start": 41.6349,
      "duration": 0.0746,
      "velocity": 127,
      "chip": "ym2612"
    },
    {
      "channel": 1,
      "note": 48,
      "start": 41.6352,
      "duration": 0.0745,
      "velocity": 112,
      "chip": "ym2612"
    },
    {
      "channel": 3,
      "note": 73,
      "start": 41.6355,
      "duration": 0.0744,
      "velocity": 80,
      "chip": "ym2612"
    },
    {
      "channel": 4,
      "note": 69,
      "start": 41.6358,
      "duration": 0.0742,
      "velocity": 97,
      "chip": "ym2612"
    },
    {
      "channel": 0,
      "note": 41,
      "start": 41.7476,
      "duration": 0.0755,
      "velocity": 112,
      "chip": "ym2612"
    },
    {
      "channel": 1,
      "note": 51,
      "start": 41.7487,
      "duration": 0.0746,
      "velocity": 127,
      "chip": "ym2612"
    },
    {
      "channel": 2,
      "note": 37,
      "start": 41.7489,
      "duration": 0.0745,
      "velocity": 97,
      "chip": "ym2612"
    },
    {
      "channel": 3,
      "note": 61,
      "start": 41.7491,
      "duration": 0.0744,
      "velocity": 80,
      "chip": "ym2612"
    },
    {
      "channel": 4,
      "note": 68,
      "start": 41.7493,
      "duration": 0.0742,
      "velocity": 97,
      "chip": "ym2612"
    },
    {
      "channel": 0,
      "note": 51,
      "start": 41.8612,
      "duration": 0.0755,
      "velocity": 127,
      "chip": "ym2612"
    },
    {
      "channel": 1,
      "note": 48,
      "start": 41.8622,
      "duration": 0.0746,
      "velocity": 112,
      "chip": "ym2612"
    },
    {
      "channel": 2,
      "note": 34,
      "start": 41.8624,
      "duration": 0.1864,
      "velocity": 97,
      "chip": "ym2612"
    },
    {
      "channel": 3,
      "note": 61,
      "start": 41.8627,
      "duration": 0.0744,
      "velocity": 80,
      "chip": "ym2612"
    },
    {
      "channel": 4,
      "note": 70,
      "start": 41.8629,
      "duration": 0.0742,
      "velocity": 97,
      "chip": "ym2612"
    },
    {
      "channel": 0,
      "note": 51,
      "start": 41.974,
      "duration": 0.0746,
      "velocity": 127,
      "chip": "ym2612"
    },
    {
      "channel": 1,
      "note": 48,
      "start": 41.9742,
      "duration": 0.0745,
      "velocity": 112,
      "chip": "ym2612"
    },
    {
      "channel": 3,
      "note": 73,
      "start": 41.9746,
      "duration": 0.0744,
      "velocity": 80,
      "chip": "ym2612"
    },
    {
      "channel": 4,
      "note": 71,
      "start": 41.9748,
      "duration": 0.0742,
      "velocity": 97,
      "chip": "ym2612"
    },
    {
      "channel": 0,
      "note": 51,
      "start": 42.0859,
      "duration": 0.0748,
      "velocity": 127,
      "chip": "ym2612"
    },
    {
      "channel": 1,
      "note": 48,
      "start": 42.0862,
      "duration": 0.0746,
      "velocity": 112,
      "chip": "ym2612"
    },
    {
      "channel": 2,
      "note": 34,
      "start": 42.0865,
      "duration": 0.0745,
      "velocity": 97,
      "chip": "ym2612"
    },
    {
      "channel": 3,
      "note": 73,
      "start": 42.0867,
      "duration": 0.0744,
      "velocity": 80,
      "chip": "ym2612"
    },
    {
      "channel": 4,
      "note": 72,
      "start": 42.0869,
      "duration": 0.0742,
      "velocity": 97,
      "chip": "ym2612"
    },
    {
      "channel": 0,
      "note": 41,
      "start": 42.1989,
      "duration": 0.0757,
      "velocity": 112,
      "chip": "ym2612"
    },
    {
      "channel": 1,
      "note": 48,
      "start": 42.1992,
      "duration": 0.0755,
      "velocity": 112,
      "chip": "ym2612"
    },
    {
      "channel": 2,
      "note": 39,
      "start": 42.1995,
      "duration": 0.1882,
      "velocity": 97,
      "chip": "ym2612"
    },
    {
      "channel": 3,
      "note": 61,
      "start": 42.1998,
      "duration": 0.0752,
      "velocity": 80,
      "chip": "ym2612"
    },
    {
      "channel": 4,
      "note": 73,
      "start": 42.2,
      "duration": 0.4143,
      "velocity": 97,
      "chip": "ym2612"
    },
    {
      "channel": 0,
      "note": 51,
      "start": 42.313,
      "duration": 0.0745,
      "velocity": 127,
      "chip": "ym2612"
    },
    {
      "channel": 1,
      "note": 48,
      "start": 42.3132,
      "duration": 0.0743,
      "velocity": 112,
      "chip": "ym2612"
    },
    {
      "channel": 3,
      "note": 61,
      "start": 42.3136,
      "duration": 0.0742,
      "velocity": 80,
      "chip": "ym2612"
    },
    {
      "channel": 0,
      "note": 41,
      "start": 42.4255,
      "duration": 0.0755,
      "velocity": 112,
      "chip": "ym2612"
    },
    {
      "channel": 1,
      "note": 48,
      "start": 42.4259,
      "duration": 0.0753,
      "velocity": 112,
      "chip": "ym2612"
    },
    {
      "channel": 2,
      "note": 41,
      "start": 42.4262,
      "duration": 0.188,
      "velocity": 97,
      "chip": "ym2612"
    },
    {
      "channel": 3,
      "note": 73,
      "start": 42.4264,
      "duration": 0.075,
      "velocity": 80,
      "chip": "ym2612"
    },
    {
      "channel": 0,
      "note": 51,
      "start": 42.5394,
      "duration": 0.0745,
      "velocity": 127,
      "chip": "ym2612"
    },
    {
      "channel": 1,
      "note": 48,
      "start": 42.5397,
      "duration": 0.0743,
      "velocity": 112,
      "chip": "ym2612"
    },
    {
      "channel": 3,
      "note": 73,
      "start": 42.54,
      "duration": 0.0742,
      "velocity": 80,
      "chip": "ym2612"
    },
    {
      "channel": 0,
      "note": 41,
      "start": 42.652,
      "duration": 0.0754,
      "velocity": 112,
      "chip": "ym2612"
    },
    {
      "channel": 1,
      "note": 54,
      "start": 42.6532,
      "duration": 0.4027,
      "velocity": 119,
      "chip": "ym2612"
    },
    {
      "channel": 2,
      "note": 42,
      "start": 42.6536,
      "duration": 0.1841,
      "velocity": 97,
      "chip": "ym2612"
    },
    {
      "channel": 5,
      "note": 61,
      "start": 42.6543,
      "duration": 0.2926,
      "velocity": 114,
      "chip": "ym2612"
    },
    {
      "channel": 0,
      "note": 51,
      "start": 42.7649,
      "duration": 0.0725,
      "velocity": 127,
      "chip": "ym2612"
    },
    {
      "channel": 0,
      "note": 51,
      "start": 42.8739,
      "duration": 0.1819,
      "velocity": 127,
      "chip": "ym2612"
    },
    {
      "channel": 2,
      "note": 40,
      "start": 42.8742,
      "duration": 0.0725,
      "velocity": 97,
      "chip": "ym2612"
    },
    {
      "channel": 2,
      "note": 42,
      "start": 42.9832,
      "duration": 0.1853,
      "velocity": 97,
      "chip": "ym2612"
    },
    {
      "channel": 5,
      "note": 64,
      "start": 42.9835,
      "duration": 0.2973,
      "velocity": 114,
      "chip": "ym2612"
    },
    {
      "channel": 0,
      "note": 41,
      "start": 43.093,
      "duration": 0.0751,
      "velocity": 112,
      "chip": "ym2612"
    },
    {
      "channel": 1,
      "note": 48,
      "start": 43.094,
      "duration": 0.4093,
      "velocity": 112,
      "chip": "ym2612"
    },
    {
      "channel": 0,
      "note": 51,
      "start": 43.2062,
      "duration": 0.0741,
      "velocity": 127,
      "chip": "ym2612"
    },
    {
      "channel": 2,
      "note": 40,
      "start": 43.2065,
      "duration": 0.074,
      "velocity": 97,
      "chip": "ym2612"
    },
    {
      "channel": 0,
      "note": 51,
      "start": 43.3175,
      "duration": 0.0745,
      "velocity": 127,
      "chip": "ym2612"
    },
    {
      "channel": 2,
      "note": 42,
      "start": 43.3179,
      "duration": 0.1856,
      "velocity": 97,
      "chip": "ym2612"
    },
    {
      "channel": 5,
      "note": 66,
      "start": 43.3183,
      "duration": 0.4099,
      "velocity": 114,
      "chip": "ym2612"
    },
    {
      "channel": 0,
      "note": 51,
      "start": 43.4292,
      "duration": 0.0741,
      "velocity": 127,
      "chip": "ym2612"
    },
    {
      "channel": 0,
      "note": 41,
      "start": 43.5413,
      "duration": 0.0751,
      "velocity": 112,
      "chip": "ym2612"
    },
    {
      "channel": 1,
      "note": 51,
      "start": 43.5424,
      "duration": 0.406,
      "velocity": 127,
      "chip": "ym2612"
    },
    {
      "channel": 2,
      "note": 40,
      "start": 43.5426,
      "duration": 0.0741,
      "velocity": 97,
      "chip": "ym2612"
    },
    {
      "channel": 0,
      "note": 51,
      "start": 43.6544,
      "duration": 0.0734,
      "velocity": 127,
      "chip": "ym2612"
    },
    {
      "channel": 2,
      "note": 42,
      "start": 43.6547,
      "duration": 0.1835,
      "velocity": 97,
      "chip": "ym2612"
    },
    {
      "channel": 0,
      "note": 51,
      "start": 43.7646,
      "duration": 0.0734,
      "velocity": 127,
      "chip": "ym2612"
    },
    {
      "channel": 5,
      "note": 67,
      "start": 43.7652,
      "duration": 0.1835,
      "velocity": 114,
      "chip": "ym2612"
    },
    {
      "channel": 0,
      "note": 51,
      "start": 43.8749,
      "duration": 0.0734,
      "velocity": 127,
      "chip": "ym2612"
    },
    {
      "channel": 2,
      "note": 40,
      "start": 43.8751,
      "duration": 0.0733,
      "velocity": 97,
      "chip": "ym2612"
    },
    {
      "channel": 0,
      "note": 41,
      "start": 43.9859,
      "duration": 0.0762,
      "velocity": 112,
      "chip": "ym2612"
    },
    {
      "channel": 1,
      "note": 48,
      "start": 43.987,
      "duration": 0.1877,
      "velocity": 112,
      "chip": "ym2612"
    },
    {
      "channel": 2,
      "note": 42,
      "start": 43.9873,
      "duration": 0.1876,
      "velocity": 97,
      "chip": "ym2612"
    },
    {
      "channel": 5,
      "note": 66,
      "start": 43.9877,
      "duration": 0.1874,
      "velocity": 114,
      "chip": "ym2612"
    },
    {
      "channel": 0,
      "note": 51,
      "start": 44.1005,
      "duration": 0.0741,
      "velocity": 127,
      "chip": "ym2612"
    },
    {
      "channel": 0,
      "note": 41,
      "start": 44.2127,
      "duration": 0.0753,
      "velocity": 112,
      "chip": "ym2612"
    },
    {
      "channel": 1,
      "note": 51,
      "start": 44.2137,
      "duration": 0.1855,
      "velocity": 127,
      "chip": "ym2612"
    },
    {
      "channel": 2,
      "note": 42,
      "start": 44.2139,
      "duration": 0.1854,
      "velocity": 97,
      "chip": "ym2612"
    },
    {
      "channel": 5,
      "note": 64,
      "start": 44.2143,
      "duration": 0.1853,
      "velocity": 114,
      "chip": "ym2612"
    },
    {
      "channel": 0,
      "note": 51,
      "start": 44.3259,
      "duration": 0.0733,
      "velocity": 127,
      "chip": "ym2612"
    },
    {
      "channel": 0,
      "note": 41,
      "start": 44.4368,
      "duration": 0.0742,
      "velocity": 112,
      "chip": "ym2612"
    },
    {
      "channel": 1,
      "note": 54,
      "start": 44.4372,
      "duration": 0.4024,
      "velocity": 127,
      "chip": "ym2612"
    },
    {
      "channel": 2,
      "note": 42,
      "start": 44.4374,
      "duration": 0.1839,
      "velocity": 97,
      "chip": "ym2612"
    },
    {
      "channel": 5,
      "note": 61,
      "start": 44.438,
      "duration": 0.2926,
      "velocity": 114,
      "chip": "ym2612"
    },
    {
      "channel": 0,
      "note": 51,
      "start": 44.5486,
      "duration": 0.0726,
      "velocity": 127,
      "chip": "ym2612"
    },
    {
      "channel": 0,
      "note": 51,
      "start": 44.6576,
      "duration": 0.1819,
      "velocity": 127,
      "chip": "ym2612"
    },
    {
      "channel": 2,
      "note": 40,
      "start": 44.6579,
      "duration": 0.0725,
      "velocity": 97,
      "chip": "ym2612"
    },
    {
      "channel": 2,
      "note": 42,
      "start": 44.7669,
      "duration": 0.1853,
      "velocity": 97,
      "chip": "ym2612"
    },
    {
      "channel": 5,
      "note": 64,
      "start": 44.7672,
      "duration": 0.2973,
      "velocity": 114,
      "chip": "ym2612"
    },
    {
      "channel": 0,
      "note": 41,
      "start": 44.8767,
      "duration": 0.0751,
      "velocity": 112,
      "chip": "ym2612"
    },
    {
      "channel": 1,
      "note": 48,
      "start": 44.8777,
      "duration": 0.4094,
      "velocity": 112,
      "chip": "ym2612"
    },
    {
      "channel": 0,
      "note": 51,
      "start": 44.9899,
      "duration": 0.0741,
      "velocity": 127,
      "chip": "ym2612"
    },
    {
      "channel": 2,
      "note": 40,
      "start": 44.9902,
      "duration": 0.074,
      "velocity": 97,
      "chip": "ym2612"
    },
    {
      "channel": 0,
      "note": 51,
      "start": 45.1012,
      "duration": 0.0745,
      "velocity": 127,
      "chip": "ym2612"
    },
    {
      "channel": 2,
      "note": 42,
      "start": 45.1016,
      "duration": 0.1857,
      "velocity": 97,
      "chip": "ym2612"
    },
    {
      "channel": 5,
      "note": 66,
      "start": 45.102,
      "duration": 0.4099,
      "velocity": 114,
      "chip": "ym2612"
    },
    {
      "channel": 0,
      "note": 51,
      "start": 45.2129,
      "duration": 0.0741,
      "velocity": 127,
      "chip": "ym2612"
    },
    {
      "channel": 0,
      "note": 41,
      "start": 45.325,
      "duration": 0.0752,
      "velocity": 112,
      "chip": "ym2612"
    },
    {
      "channel": 1,
      "note": 51,
      "start": 45.326,
      "duration": 0.406,
      "velocity": 127,
      "chip": "ym2612"
    },
    {
      "channel": 2,
      "note": 40,
      "start": 45.3262,
      "duration": 0.0741,
      "velocity": 97,
      "chip": "ym2612"
    },
    {
      "channel": 0,
      "note": 51,
      "start": 45.4381,
      "duration": 0.0734,
      "velocity": 127,
      "chip": "ym2612"
    },
    {
      "channel": 2,
      "note": 42,
      "start": 45.4384,
      "duration": 0.1835,
      "velocity": 97,
      "chip": "ym2612"
    },
    {
      "channel": 0,
      "note": 51,
      "start": 45.5483,
      "duration": 0.0734,
      "velocity": 127,
      "chip": "ym2612"
    },
    {
      "channel": 5,
      "note": 67,
      "start": 45.5488,
      "duration": 0.1835,
      "velocity": 114,
      "chip": "ym2612"
    },
    {
      "channel": 0,
      "note": 51,
      "start": 45.6585,
      "duration": 0.0734,
      "velocity": 127,
      "chip": "ym2612"
    },
    {
      "channel": 2,
      "note": 40,
      "start": 45.6588,
      "duration": 0.0733,
      "velocity": 97,
      "chip": "ym2612"
    },
    {
      "channel": 0,
      "note": 41,
      "start": 45.7696,
      "duration": 0.0762,
      "velocity": 112,
      "chip": "ym2612"
    },
    {
      "channel": 1,
      "note": 48,
      "start": 45.7706,
      "duration": 0.1877,
      "velocity": 112,
      "chip": "ym2612"
    },
    {
      "channel": 2,
      "note": 42,
      "start": 45.771,
      "duration": 0.1876,
      "velocity": 97,
      "chip": "ym2612"
    },
    {
      "channel": 5,
      "note": 66,
      "start": 45.7714,
      "duration": 0.1874,
      "velocity": 114,
      "chip": "ym2612"
    },
    {
      "channel": 0,
      "note": 51,
      "start": 45.8842,
      "duration": 0.0741,
      "velocity": 127,
      "chip": "ym2612"
    },
    {
      "channel": 0,
      "note": 41,
      "start": 45.9963,
      "duration": 0.0753,
      "velocity": 112,
      "chip": "ym2612"
    },
    {
      "channel": 1,
      "note": 51,
      "start": 45.9974,
      "duration": 0.1856,
      "velocity": 127,
      "chip": "ym2612"
    },
    {
      "channel": 2,
      "note": 42,
      "start": 45.9976,
      "duration": 0.1854,
      "velocity": 97,
      "chip": "ym2612"
    },
    {
      "channel": 5,
      "note": 64,
      "start": 45.998,
      "duration": 0.1853,
      "velocity": 114,
      "chip": "ym2612"
    },
    {
      "channel": 0,
      "note": 51,
      "start": 46.1096,
      "duration": 0.0733,
      "velocity": 127,
      "chip": "ym2612"
    },
    {
      "channel": 0,
      "note": 41,
      "start": 46.2205,
      "duration": 0.0742,
      "velocity": 112,
      "chip": "ym2612"
    },
    {
      "channel": 1,
      "note": 54,
      "start": 46.2208,
      "duration": 0.4024,
      "velocity": 127,
      "chip": "ym2612"
    },
    {
      "channel": 2,
      "note": 42,
      "start": 46.2211,
      "duration": 0.1839,
      "velocity": 97,
      "chip": "ym2612"
    },
    {
      "channel": 5,
      "note": 61,
      "start": 46.2217,
      "duration": 0.2926,
      "velocity": 114,
      "chip": "ym2612"
    },
    {
      "channel": 0,
      "note": 51,
      "start": 46.3323,
      "duration": 0.0725,
      "velocity": 127,
      "chip": "ym2612"
    },
    {
      "channel": 0,
      "note": 51,
      "start": 46.4413,
      "duration": 0.1819,
      "velocity": 127,
      "chip": "ym2612"
    },
    {
      "channel": 2,
      "note": 40,
      "start": 46.4415,
      "duration": 0.0725,
      "velocity": 97,
      "chip": "ym2612"
    },
    {
      "channel": 2,
      "note": 42,
      "start": 46.5505,
      "duration": 0.1853,
      "velocity": 97,
      "chip": "ym2612"
    },
    {
      "channel": 5,
      "note": 64,
      "start": 46.5509,
      "duration": 0.2973,
      "velocity": 114,
      "chip": "ym2612"
    },
    {
      "channel": 0,
      "note": 41,
      "start": 46.6604,
      "duration": 0.0751,
      "velocity": 112,
      "chip": "ym2612"
    },
    {
      "channel": 1,
      "note": 48,
      "start": 46.6614,
      "duration": 0.4094,
      "velocity": 112,
      "chip": "ym2612"
    },
    {
      "channel": 0,
      "note": 51,
      "start": 46.7735,
      "duration": 0.0741,
      "velocity": 127,
      "chip": "ym2612"
    },
    {
      "channel": 2,
      "note": 40,
      "start": 46.7739,
      "duration": 0.0739,
      "velocity": 97,
      "chip": "ym2612"
    },
    {
      "channel": 0,
      "note": 51,
      "start": 46.8849,
      "duration": 0.0745,
      "velocity": 127,
      "chip": "ym2612"
    },
    {
      "channel": 2,
      "note": 42,
      "start": 46.8853,
      "duration": 0.1857,
      "velocity": 97,
      "chip": "ym2612"
    },
    {
      "channel": 5,
      "note": 66,
      "start": 46.8857,
      "duration": 0.4099,
      "velocity": 114,
      "chip": "ym2612"
    },
    {
      "channel": 0,
      "note": 51,
      "start": 46.9966,
      "duration": 0.0741,
      "velocity": 127,
      "chip": "ym2612"
    },
    {
      "channel": 0,
      "note": 41,
      "start": 47.1087,
      "duration": 0.0751,
      "velocity": 112,
      "chip": "ym2612"
    },
    {
      "channel": 1,
      "note": 51,
      "start": 47.1097,
      "duration": 0.406,
      "velocity": 127,
      "chip": "ym2612"
    },
    {
      "channel": 2,
      "note": 40,
      "start": 47.1099,
      "duration": 0.0741,
      "velocity": 97,
      "chip": "ym2612"
    },
    {
      "channel": 0,
      "note": 51,
      "start": 47.2218,
      "duration": 0.0734,
      "velocity": 127,
      "chip": "ym2612"
    },
    {
      "channel": 2,
      "note": 42,
      "start": 47.222,
      "duration": 0.1835,
      "velocity": 97,
      "chip": "ym2612"
    },
    {
      "channel": 0,
      "note": 51,
      "start": 47.332,
      "duration": 0.0734,
      "velocity": 127,
      "chip": "ym2612"
    },
    {
      "channel": 5,
      "note": 67,
      "start": 47.3325,
      "duration": 0.1835,
      "velocity": 114,
      "chip": "ym2612"
    },
    {
      "channel": 0,
      "note": 51,
      "start": 47.4422,
      "duration": 0.0734,
      "velocity": 127,
      "chip": "ym2612"
    },
    {
      "channel": 2,
      "note": 40,
      "start": 47.4425,
      "duration": 0.0733,
      "velocity": 97,
      "chip": "ym2612"
    },
    {
      "channel": 0,
      "note": 41,
      "start": 47.5533,
      "duration": 0.0762,
      "velocity": 112,
      "chip": "ym2612"
    },
    {
      "channel": 1,
      "note": 48,
      "start": 47.5543,
      "duration": 0.1877,
      "velocity": 112,
      "chip": "ym2612"
    },
    {
      "channel": 2,
      "note": 42,
      "start": 47.5546,
      "duration": 0.1876,
      "velocity": 97,
      "chip": "ym2612"
    },
    {
      "channel": 5,
      "note": 66,
      "start": 47.5551,
      "duration": 0.1874,
      "velocity": 114,
      "chip": "ym2612"
    },
    {
      "channel": 0,
      "note": 51,
      "start": 47.6678,
      "duration": 0.0741,
      "velocity": 127,
      "chip": "ym2612"
    },
    {
      "channel": 0,
      "note": 41,
      "start": 47.78,
      "duration": 0.0753,
      "velocity": 112,
      "chip": "ym2612"
    },
    {
      "channel": 1,
      "note": 51,
      "start": 47.781,
      "duration": 0.1856,
      "velocity": 127,
      "chip": "ym2612"
    },
    {
      "channel": 2,
      "note": 42,
      "start": 47.7812,
      "duration": 0.1854,
      "velocity": 97,
      "chip": "ym2612"
    },
    {
      "channel": 5,
      "note": 64,
      "start": 47.7817,
      "duration": 0.1853,
      "velocity": 114,
      "chip": "ym2612"
    },
    {
      "channel": 0,
      "note": 51,
      "start": 47.8933,
      "duration": 0.0732,
      "velocity": 127,
      "chip": "ym2612"
    },
    {
      "channel": 0,
      "note": 41,
      "start": 48.0042,
      "duration": 0.0742,
      "velocity": 112,
      "chip": "ym2612"
    },
    {
      "channel": 1,
      "note": 54,
      "start": 48.0045,
      "duration": 0.4024,
      "velocity": 127,
      "chip": "ym2612"
    },
    {
      "channel": 2,
      "note": 42,
      "start": 48.0048,
      "duration": 0.1839,
      "velocity": 97,
      "chip": "ym2612"
    },
    {
      "channel": 5,
      "note": 61,
      "start": 48.0054,
      "duration": 0.2926,
      "velocity": 114,
      "chip": "ym2612"
    },
    {
      "channel": 0,
      "note": 51,
      "start": 48.116,
      "duration": 0.0725,
      "velocity": 127,
      "chip": "ym2612"
    },
    {
      "channel": 0,
      "note": 51,
      "start": 48.225,
      "duration": 0.1819,
      "velocity": 127,
      "chip": "ym2612"
    },
    {
      "channel": 2,
      "note": 40,
      "start": 48.2252,
      "duration": 0.0726,
      "velocity": 97,
      "chip": "ym2612"
    },
    {
      "channel": 2,
      "note": 42,
      "start": 48.3342,
      "duration": 0.1853,
      "velocity": 97,
      "chip": "ym2612"
    },
    {
      "channel": 5,
      "note": 64,
      "start": 48.3346,
      "duration": 0.2973,
      "velocity": 114,
      "chip": "ym2612"
    },
    {
      "channel": 0,
      "note": 41,
      "start": 48.444,
      "duration": 0.0751,
      "velocity": 112,
      "chip": "ym2612"
    },
    {
      "channel": 1,
      "note": 48,
      "start": 48.4451,
      "duration": 0.4093,
      "velocity": 112,
      "chip": "ym2612"
    },
    {
      "channel": 0,
      "note": 51,
      "start": 48.5572,
      "duration": 0.0741,
      "velocity": 127,
      "chip": "ym2612"
    },
    {
      "channel": 2,
      "note": 40,
      "start": 48.5576,
      "duration": 0.074,
      "velocity": 97,
      "chip": "ym2612"
    },
    {
      "channel": 0,
      "note": 51,
      "start": 48.6685,
      "duration": 0.0745,
      "velocity": 127,
      "chip": "ym2612"
    },
    {
      "channel": 2,
      "note": 42,
      "start": 48.6689,
      "duration": 0.1857,
      "velocity": 97,
      "chip": "ym2612"
    },
    {
      "channel": 5,
      "note": 66,
      "start": 48.6694,
      "duration": 0.4099,
      "velocity": 114,
      "chip": "ym2612"
    },
    {
      "channel": 0,
      "note": 51,
      "start": 48.7802,
      "duration": 0.0741,
      "velocity": 127,
      "chip": "ym2612"
    },
    {
      "channel": 0,
      "note": 41,
      "start": 48.8924,
      "duration": 0.0751,
      "velocity": 112,
      "chip": "ym2612"
    },
    {
      "channel": 1,
      "note": 51,
      "start": 48.8934,
      "duration": 0.406,
      "velocity": 127,
      "chip": "ym2612"
    },
    {
      "channel": 2,
      "note": 40,
      "start": 48.8936,
      "duration": 0.0741,
      "velocity": 97,
      "chip": "ym2612"
    },
    {
      "channel": 0,
      "note": 51,
      "start": 49.0055,
      "duration": 0.0734,
      "velocity": 127,
      "chip": "ym2612"
    },
    {
      "channel": 2,
      "note": 42,
      "start": 49.0057,
      "duration": 0.1835,
      "velocity": 97,
      "chip": "ym2612"
    },
    {
      "channel": 0,
      "note": 51,
      "start": 49.1157,
      "duration": 0.0734,
      "velocity": 127,
      "chip": "ym2612"
    },
    {
      "channel": 5,
      "note": 67,
      "start": 49.1162,
      "duration": 0.1835,
      "velocity": 114,
      "chip": "ym2612"
    },
    {
      "channel": 0,
      "note": 51,
      "start": 49.2259,
      "duration": 0.0734,
      "velocity": 127,
      "chip": "ym2612"
    },
    {
      "channel": 2,
      "note": 40,
      "start": 49.2261,
      "duration": 0.0733,
      "velocity": 97,
      "chip": "ym2612"
    },
    {
      "channel": 0,
      "note": 41,
      "start": 49.337,
      "duration": 0.0762,
      "velocity": 112,
      "chip": "ym2612"
    },
    {
      "channel": 1,
      "note": 48,
      "start": 49.338,
      "duration": 0.1877,
      "velocity": 112,
      "chip": "ym2612"
    },
    {
      "channel": 2,
      "note": 42,
      "start": 49.3383,
      "duration": 0.1876,
      "velocity": 97,
      "chip": "ym2612"
    },
    {
      "channel": 5,
      "note": 66,
      "start": 49.3388,
      "duration": 0.1874,
      "velocity": 114,
      "chip": "ym2612"
    },
    {
      "channel": 0,
      "note": 51,
      "start": 49.4515,
      "duration": 0.0741,
      "velocity": 127,
      "chip": "ym2612"
    },
    {
      "channel": 0,
      "note": 41,
      "start": 49.5637,
      "duration": 0.0753,
      "velocity": 112,
      "chip": "ym2612"
    },
    {
      "channel": 1,
      "note": 51,
      "start": 49.5647,
      "duration": 0.1856,
      "velocity": 127,
      "chip": "ym2612"
    },
    {
      "channel": 2,
      "note": 42,
      "start": 49.5649,
      "duration": 0.1854,
      "velocity": 97,
      "chip": "ym2612"
    },
    {
      "channel": 5,
      "note": 64,
      "start": 49.5654,
      "duration": 0.1853,
      "velocity": 114,
      "chip": "ym2612"
    },
    {
      "channel": 0,
      "note": 51,
      "start": 49.6769,
      "duration": 0.0733,
      "velocity": 127,
      "chip": "ym2612"
    },
    {
      "channel": 0,
      "note": 41,
      "start": 49.7878,
      "duration": 0.0744,
      "velocity": 112,
      "chip": "ym2612"
    },
    {
      "channel": 1,
      "note": 49,
      "start": 49.7882,
      "duration": 0.4028,
      "velocity": 127,
      "chip": "ym2612"
    },
    {
      "channel": 2,
      "note": 32,
      "start": 49.7885,
      "duration": 0.184,
      "velocity": 97,
      "chip": "ym2612"
    },
    {
      "channel": 4,
      "note": 68,
      "start": 49.7891,
      "duration": 0.1836,
      "velocity": 97,
      "chip": "ym2612"
    },
    {
      "channel": 0,
      "note": 51,
      "start": 49.8999,
      "duration": 0.0725,
      "velocity": 127,
      "chip": "ym2612"
    },
    {
      "channel": 0,
      "note": 51,
      "start": 50.0089,
      "duration": 0.182,
      "velocity": 127,
      "chip": "ym2612"
    },
    {
      "channel": 2,
      "note": 32,
      "start": 50.0091,
      "duration": 0.0727,
      "velocity": 97,
      "chip": "ym2612"
    },
    {
      "channel": 4,
      "note": 65,
      "start": 50.0094,
      "duration": 0.0726,
      "velocity": 97,
      "chip": "ym2612"
    },
    {
      "channel": 2,
      "note": 34,
      "start": 50.1183,
      "duration": 0.1855,
      "velocity": 97,
      "chip": "ym2612"
    },
    {
      "channel": 4,
      "note": 68,
      "start": 50.1186,
      "duration": 0.0726,
      "velocity": 97,
      "chip": "ym2612"
    },
    {
      "channel": 0,
      "note": 41,
      "start": 50.2282,
      "duration": 0.0753,
      "velocity": 112,
      "chip": "ym2612"
    },
    {
      "channel": 1,
      "note": 48,
      "start": 50.2292,
      "duration": 0.0744,
      "velocity": 112,
      "chip": "ym2612"
    },
    {
      "channel": 4,
      "note": 70,
      "start": 50.2296,
      "duration": 0.1859,
      "velocity": 97,
      "chip": "ym2612"
    },
    {
      "channel": 0,
      "note": 51,
      "start": 50.3416,
      "duration": 0.0736,
      "velocity": 127,
      "chip": "ym2612"
    },
    {
      "channel": 2,
      "note": 34,
      "start": 50.342,
      "duration": 0.0734,
      "velocity": 97,
      "chip": "ym2612"
    },
    {
      "channel": 0,
      "note": 51,
      "start": 50.4524,
      "duration": 0.0744,
      "velocity": 127,
      "chip": "ym2612"
    },
    {
      "channel": 2,
      "note": 37,
      "start": 50.4528,
      "duration": 0.1859,
      "velocity": 97,
      "chip": "ym2612"
    },
    {
      "channel": 4,
      "note": 65,
      "start": 50.4531,
      "duration": 0.2989,
      "velocity": 97,
      "chip": "ym2612"
    },
    {
      "channel": 0,
      "note": 51,
      "start": 50.5641,
      "duration": 0.0743,
      "velocity": 127,
      "chip": "ym2612"
    },
    {
      "channel": 1,
      "note": 48,
      "start": 50.5643,
      "duration": 0.0741,
      "velocity": 112,
      "chip": "ym2612"
    },
    {
      "channel": 0,
      "note": 41,
      "start": 50.6764,
      "duration": 0.0751,
      "velocity": 112,
      "chip": "ym2612"
    },
    {
      "channel": 1,
      "note": 51,
      "start": 50.6774,
      "duration": 0.0743,
      "velocity": 127,
      "chip": "ym2612"
    },
    {
      "channel": 2,
      "note": 37,
      "start": 50.6776,
      "duration": 0.0741,
      "velocity": 97,
      "chip": "ym2612"
    },
    {
      "channel": 0,
      "note": 51,
      "start": 50.7895,
      "duration": 0.0753,
      "velocity": 127,
      "chip": "ym2612"
    },
    {
      "channel": 1,
      "note": 48,
      "start": 50.7905,
      "duration": 0.0745,
      "velocity": 112,
      "chip": "ym2612"
    },
    {
      "channel": 2,
      "note": 34,
      "start": 50.7908,
      "duration": 0.1859,
      "velocity": 97,
      "chip": "ym2612"
    },
    {
      "channel": 4,
      "note": 68,
      "start": 50.7911,
      "duration": 0.0742,
      "velocity": 97,
      "chip": "ym2612"
    },
    {
      "channel": 0,
      "note": 51,
      "start": 50.9021,
      "duration": 0.0744,
      "velocity": 127,
      "chip": "ym2612"
    },
    {
      "channel": 4,
      "note": 65,
      "start": 50.9027,
      "duration": 0.0742,
      "velocity": 97,
      "chip": "ym2612"
    },
    {
      "channel": 0,
      "note": 51,
      "start": 51.0137,
      "duration": 0.0744,
      "velocity": 127,
      "chip": "ym2612"
    },
    {
      "channel": 2,
      "note": 34,
      "start": 51.0141,
      "duration": 0.0743,
      "velocity": 97,
      "chip": "ym2612"
    },
    {
      "channel": 4,
      "note": 68,
      "start": 51.0144,
      "duration": 0.0742,
      "velocity": 97,
      "chip": "ym2612"
    },
    {
      "channel": 0,
      "note": 41,
      "start": 51.1262,
      "duration": 0.0755,
      "velocity": 112,
      "chip": "ym2612"
    },
    {
      "channel": 1,
      "note": 48,
      "start": 51.1266,
      "duration": 0.0753,
      "velocity": 112,
      "chip": "ym2612"
    },
    {
      "channel": 2,
      "note": 39,
      "start": 51.1269,
      "duration": 0.1876,
      "velocity": 97,
      "chip": "ym2612"
    },
    {
      "channel": 4,
      "note": 70,
      "start": 51.1272,
      "duration": 0.1875,
      "velocity": 97,
      "chip": "ym2612"
    },
    {
      "channel": 0,
      "note": 51,
      "start": 51.2401,
      "duration": 0.0742,
      "velocity": 127,
      "chip": "ym2612"
    },
    {
      "channel": 0,
      "note": 41,
      "start": 51.3523,
      "duration": 0.0754,
      "velocity": 112,
      "chip": "ym2612"
    },
    {
      "channel": 1,
      "note": 51,
      "start": 51.3534,
      "duration": 0.0745,
      "velocity": 127,
      "chip": "ym2612"
    },
    {
      "channel": 2,
      "note": 41,
      "start": 51.3536,
      "duration": 0.1873,
      "velocity": 97,
      "chip": "ym2612"
    },
    {
      "channel": 4,
      "note": 65,
      "start": 51.3539,
      "duration": 0.1871,
      "velocity": 97,
      "chip": "ym2612"
    },
    {
      "channel": 0,
      "note": 51,
      "start": 51.4656,
      "duration": 0.075,
      "velocity": 127,
      "chip": "ym2612"
    },
    {
      "channel": 1,
      "note": 48,
      "start": 51.4666,
      "duration": 0.0741,
      "velocity": 112,
      "chip": "ym2612"
    },
    {
      "channel": 0,
      "note": 41,
      "start": 51.5787,
      "duration": 0.0749,
      "velocity": 112,
      "chip": "ym2612"
    },
    {
      "channel": 1,
      "note": 49,
      "start": 51.5797,
      "duration": 0.4026,
      "velocity": 127,
      "chip": "ym2612"
    },
    {
      "channel": 2,
      "note": 32,
      "start": 51.58,
      "duration": 0.1839,
      "velocity": 97,
      "chip": "ym2612"
    },
    {
      "channel": 4,
      "note": 68,
      "start": 51.5804,
      "duration": 0.1836,
      "velocity": 97,
      "chip": "ym2612"
    },
    {
      "channel": 0,
      "note": 51,
      "start": 51.6912,
      "duration": 0.0726,
      "velocity": 127,
      "chip": "ym2612"
    },
    {
      "channel": 0,
      "note": 51,
      "start": 51.8002,
      "duration": 0.1821,
      "velocity": 127,
      "chip": "ym2612"
    },
    {
      "channel": 2,
      "note": 32,
      "start": 51.8004,
      "duration": 0.0727,
      "velocity": 97,
      "chip": "ym2612"
    },
    {
      "channel": 4,
      "note": 69,
      "start": 51.8007,
      "duration": 0.0726,
      "velocity": 97,
      "chip": "ym2612"
    },
    {
      "channel": 2,
      "note": 34,
      "start": 51.9096,
      "duration": 0.1855,
      "velocity": 97,
      "chip": "ym2612"
    },
    {
      "channel": 4,
      "note": 70,
      "start": 51.9099,
      "duration": 0.0726,
      "velocity": 97,
      "chip": "ym2612"
    },
    {
      "channel": 0,
      "note": 41,
      "start": 52.0195,
      "duration": 0.0753,
      "velocity": 112,
      "chip": "ym2612"
    },
    {
      "channel": 1,
      "note": 48,
      "start": 52.0205,
      "duration": 0.0744,
      "velocity": 112,
      "chip": "ym2612"
    },
    {
      "channel": 4,
      "note": 71,
      "start": 52.0209,
      "duration": 0.1859,
      "velocity": 97,
      "chip": "ym2612"
    },
    {
      "channel": 0,
      "note": 51,
      "start": 52.1328,
      "duration": 0.0736,
      "velocity": 127,
      "chip": "ym2612"
    },
    {
      "channel": 2,
      "note": 34,
      "start": 52.1333,
      "duration": 0.0734,
      "velocity": 97,
      "chip": "ym2612"
    },
    {
      "channel": 0,
      "note": 51,
      "start": 52.2437,
      "duration": 0.0744,
      "velocity": 127,
      "chip": "ym2612"
    },
    {
      "channel": 2,
      "note": 37,
      "start": 52.2441,
      "duration": 0.1861,
      "velocity": 97,
      "chip": "ym2612"
    },
    {
      "channel": 4,
      "note": 70,
      "start": 52.2444,
      "duration": 0.0741,
      "velocity": 97,
      "chip": "ym2612"
    },
    {
      "channel": 0,
      "note": 51,
      "start": 52.3554,
      "duration": 0.0745,
      "velocity": 127,
      "chip": "ym2612"
    },
    {
      "channel": 1,
      "note": 48,
      "start": 52.3556,
      "duration": 0.0743,
      "velocity": 112,
      "chip": "ym2612"
    },
    {
      "channel": 4,
      "note": 69,
      "start": 52.3561,
      "duration": 0.0742,
      "velocity": 97,
      "chip": "ym2612"
    },
    {
      "channel": 0,
      "note": 41,
      "start": 52.4679,
      "duration": 0.0753,
      "velocity": 112,
      "chip": "ym2612"
    },
    {
      "channel": 1,
      "note": 51,
      "start": 52.469,
      "duration": 0.0745,
      "velocity": 127,
      "chip": "ym2612"
    },
    {
      "channel": 2,
      "note": 37,
      "start": 52.4692,
      "duration": 0.0743,
      "velocity": 97,
      "chip": "ym2612"
    },
    {
      "channel": 4,
      "note": 68,
      "start": 52.4694,
      "duration": 0.0742,
      "velocity": 97,
      "chip": "ym2612"
    },
    {
      "channel": 0,
      "note": 51,
      "start": 52.5812,
      "duration": 0.0753,
      "velocity": 127,
      "chip": "ym2612"
    },
    {
      "channel": 1,
      "note": 48,
      "start": 52.5822,
      "duration": 0.0745,
      "velocity": 112,
      "chip": "ym2612"
    },
    {
      "channel": 2,
      "note": 34,
      "start": 52.5825,
      "duration": 0.1859,
      "velocity": 97,
      "chip": "ym2612"
    },
    {
      "channel": 4,
      "note": 61,
      "start": 52.5828,
      "duration": 0.0742,
      "velocity": 97,
      "chip": "ym2612"
    },
    {
      "channel": 0,
      "note": 51,
      "start": 52.6938,
      "duration": 0.0744,
      "velocity": 127,
      "chip": "ym2612"
    },
    {
      "channel": 4,
      "note": 63,
      "start": 52.6944,
      "duration": 0.0742,
      "velocity": 97,
      "chip": "ym2612"
    },
    {
      "channel": 0,
      "note": 51,
      "start": 52.8054,
      "duration": 0.0744,
      "velocity": 127,
      "chip": "ym2612"
    },
    {
      "channel": 2,
      "note": 34,
      "start": 52.8058,
      "duration": 0.0743,
      "velocity": 97,
      "chip": "ym2612"
    },
    {
      "channel": 4,
      "note": 64,
      "start": 52.8061,
      "duration": 0.0742,
      "velocity": 97,
      "chip": "ym2612"
    },
    {
      "channel": 0,
      "note": 41,
      "start": 52.9179,
      "duration": 0.0755,
      "velocity": 112,
      "chip": "ym2612"
    },
    {
      "channel": 1,
      "note": 48,
      "start": 52.9183,
      "duration": 0.0753,
      "velocity": 112,
      "chip": "ym2612"
    },
    {
      "channel": 2,
      "note": 39,
      "start": 52.9186,
      "duration": 0.1876,
      "velocity": 97,
      "chip": "ym2612"
    },
    {
      "channel": 4,
      "note": 65,
      "start": 52.9189,
      "duration": 0.4135,
      "velocity": 97,
      "chip": "ym2612"
    },
    {
      "channel": 0,
      "note": 51,
      "start": 53.0318,
      "duration": 0.0742,
      "velocity": 127,
      "chip": "ym2612"
    },
    {
      "channel": 0,
      "note": 41,
      "start": 53.144,
      "duration": 0.0753,
      "velocity": 112,
      "chip": "ym2612"
    },
    {
      "channel": 1,
      "note": 48,
      "start": 53.1444,
      "duration": 0.0751,
      "velocity": 112,
      "chip": "ym2612"
    },
    {
      "channel": 2,
      "note": 41,
      "start": 53.1446,
      "duration": 0.1876,
      "velocity": 97,
      "chip": "ym2612"
    },
    {
      "channel": 0,
      "note": 51,
      "start": 53.2577,
      "duration": 0.0743,
      "velocity": 127,
      "chip": "ym2612"
    },
    {
      "channel": 1,
      "note": 48,
      "start": 53.2579,
      "duration": 0.0741,
      "velocity": 112,
      "chip": "ym2612"
    },
    {
      "channel": 0,
      "note": 41,
      "start": 53.3701,
      "duration": 0.0749,
      "velocity": 112,
      "chip": "ym2612"
    },
    {
      "channel": 1,
      "note": 49,
      "start": 53.3711,
      "duration": 0.4026,
      "velocity": 127,
      "chip": "ym2612"
    },
    {
      "channel": 2,
      "note": 32,
      "start": 53.3714,
      "duration": 0.1839,
      "velocity": 97,
      "chip": "ym2612"
    },
    {
      "channel": 4,
      "note": 68,
      "start": 53.3717,
      "duration": 0.1836,
      "velocity": 97,
      "chip": "ym2612"
    },
    {
      "channel": 0,
      "note": 51,
      "start": 53.4825,
      "duration": 0.0725,
      "velocity": 127,
      "chip": "ym2612"
    },
    {
      "channel": 0,
      "note": 51,
      "start": 53.5916,
      "duration": 0.182,
      "velocity": 127,
      "chip": "ym2612"
    },
    {
      "channel": 2,
      "note": 32,
      "start": 53.5918,
      "duration": 0.0727,
      "velocity": 97,
      "chip": "ym2612"
    },
    {
      "channel": 4,
      "note": 65,
      "start": 53.5921,
      "duration": 0.0726,
      "velocity": 97,
      "chip": "ym2612"
    },
    {
      "channel": 2,
      "note": 34,
      "start": 53.701,
      "duration": 0.1855,
      "velocity": 97,
      "chip": "ym2612"
    },
    {
      "channel": 4,
      "note": 68,
      "start": 53.7013,
      "duration": 0.0726,
      "velocity": 97,
      "chip": "ym2612"
    },
    {
      "channel": 0,
      "note": 41,
      "start": 53.8108,
      "duration": 0.0753,
      "velocity": 112,
      "chip": "ym2612"
    },
    {
      "channel": 1,
      "note": 48,
      "start": 53.8119,
      "duration": 0.0745,
      "velocity": 112,
      "chip": "ym2612"
    },
    {
      "channel": 4,
      "note": 70,
      "start": 53.8123,
      "duration": 0.1859,
      "velocity": 97,
      "chip": "ym2612"
    },
    {
      "channel": 0,
      "note": 51,
      "start": 53.9242,
      "duration": 0.0736,
      "velocity": 127,
      "chip": "ym2612"
    },
    {
      "channel": 2,
      "note": 34,
      "start": 53.9246,
      "duration": 0.0734,
      "velocity": 97,
      "chip": "ym2612"
    },
    {
      "channel": 0,
      "note": 51,
      "start": 54.0351,
      "duration": 0.0744,
      "velocity": 127,
      "chip": "ym2612"
    },
    {
      "channel": 2,
      "note": 37,
      "start": 54.0355,
      "duration": 0.1859,
      "velocity": 97,
      "chip": "ym2612"
    },
    {
      "channel": 4,
      "note": 65,
      "start": 54.0357,
      "duration": 0.2988,
      "velocity": 97,
      "chip": "ym2612"
    },
    {
      "channel": 0,
      "note": 51,
      "start": 54.1467,
      "duration": 0.0743,
      "velocity": 127,
      "chip": "ym2612"
    },
    {
      "channel": 1,
      "note": 48,
      "start": 54.147,
      "duration": 0.0741,
      "velocity": 112,
      "chip": "ym2612"
    },
    {
      "channel": 0,
      "note": 41,
      "start": 54.2591,
      "duration": 0.0751,
      "velocity": 112,
      "chip": "ym2612"
    },
    {
      "channel": 1,
      "note": 51,
      "start": 54.2601,
      "duration": 0.0743,
      "velocity": 127,
      "chip": "ym2612"
    },
    {
      "channel": 2,
      "note": 37,
      "start": 54.2603,
      "duration": 0.0742,
      "velocity": 97,
      "chip": "ym2612"
    },
    {
      "channel": 0,
      "note": 51,
      "start": 54.3722,
      "duration": 0.0753,
      "velocity": 127,
      "chip": "ym2612"
    },
    {
      "channel": 1,
      "note": 48,
      "start": 54.3732,
      "duration": 0.0745,
      "velocity": 112,
      "chip": "ym2612"
    },
    {
      "channel": 2,
      "note": 34,
      "start": 54.3734,
      "duration": 0.1859,
      "velocity": 97,
      "chip": "ym2612"
    },
    {
      "channel": 4,
      "note": 68,
      "start": 54.3737,
      "duration": 0.0742,
      "velocity": 97,
      "chip": "ym2612"
    },
    {
      "channel": 0,
      "note": 51,
      "start": 54.4848,
      "duration": 0.0744,
      "velocity": 127,
      "chip": "ym2612"
    },
    {
      "channel": 4,
      "note": 65,
      "start": 54.4854,
      "duration": 0.0741,
      "velocity": 97,
      "chip": "ym2612"
    },
    {
      "channel": 0,
      "note": 51,
      "start": 54.5964,
      "duration": 0.0744,
      "velocity": 127,
      "chip": "ym2612"
    },
    {
      "channel": 2,
      "note": 34,
      "start": 54.5968,
      "duration": 0.0743,
      "velocity": 97,
      "chip": "ym2612"
    },
    {
      "channel": 4,
      "note": 68,
      "start": 54.597,
      "duration": 0.0742,
      "velocity": 97,
      "chip": "ym2612"
    },
    {
      "channel": 0,
      "note": 41,
      "start": 54.7089,
      "duration": 0.0755,
      "velocity": 112,
      "chip": "ym2612"
    },
    {
      "channel": 1,
      "note": 48,
      "start": 54.7093,
      "duration": 0.0753,
      "velocity": 112,
      "chip": "ym2612"
    },
    {
      "channel": 2,
      "note": 39,
      "start": 54.7096,
      "duration": 0.1876,
      "velocity": 97,
      "chip": "ym2612"
    },
    {
      "channel": 4,
      "note": 70,
      "start": 54.7098,
      "duration": 0.1875,
      "velocity": 97,
      "chip": "ym2612"
    },
    {
      "channel": 0,
      "note": 51,
      "start": 54.8228,
      "duration": 0.0742,
      "velocity": 127,
      "chip": "ym2612"
    },
    {
      "channel": 0,
      "note": 41,
      "start": 54.935,
      "duration": 0.0753,
      "velocity": 112,
      "chip": "ym2612"
    },
    {
      "channel": 1,
      "note": 51,
      "start": 54.9361,
      "duration": 0.0744,
      "velocity": 127,
      "chip": "ym2612"
    },
    {
      "channel": 2,
      "note": 41,
      "start": 54.9363,
      "duration": 0.1873,
      "velocity": 97,
      "chip": "ym2612"
    },
    {
      "channel": 4,
      "note": 65,
      "start": 54.9365,
      "duration": 0.1871,
      "velocity": 97,
      "chip": "ym2612"
    },
    {
      "channel": 0,
      "note": 51,
      "start": 55.0483,
      "duration": 0.075,
      "velocity": 127,
      "chip": "ym2612"
    },
    {
      "channel": 1,
      "note": 48,
      "start": 55.0492,
      "duration": 0.0741,
      "velocity": 112,
      "chip": "ym2612"
    },
    {
      "channel": 0,
      "note": 41,
      "start": 55.1614,
      "duration": 0.0749,
      "velocity": 112,
      "chip": "ym2612"
    },
    {
      "channel": 1,
      "note": 49,
      "start": 55.1624,
      "duration": 0.4026,
      "velocity": 127,
      "chip": "ym2612"
    },
    {
      "channel": 2,
      "note": 32,
      "start": 55.1627,
      "duration": 0.1839,
      "velocity": 97,
      "chip": "ym2612"
    },
    {
      "channel": 4,
      "note": 68,
      "start": 55.163,
      "duration": 0.1836,
      "velocity": 97,
      "chip": "ym2612"
    },
    {
      "channel": 0,
      "note": 51,
      "start": 55.2738,
      "duration": 0.0725,
      "velocity": 127,
      "chip": "ym2612"
    },
    {
      "channel": 0,
      "note": 51,
      "start": 55.3829,
      "duration": 0.182,
      "velocity": 127,
      "chip": "ym2612"
    },
    {
      "channel": 2,
      "note": 32,
      "start": 55.3831,
      "duration": 0.0727,
      "velocity": 97,
      "chip": "ym2612"
    },
    {
      "channel": 4,
      "note": 69,
      "start": 55.3834,
      "duration": 0.0726,
      "velocity": 97,
      "chip": "ym2612"
    },
    {
      "channel": 2,
      "note": 34,
      "start": 55.4923,
      "duration": 0.1855,
      "velocity": 97,
      "chip": "ym2612"
    },
    {
      "channel": 4,
      "note": 70,
      "start": 55.4925,
      "duration": 0.0726,
      "velocity": 97,
      "chip": "ym2612"
    },
    {
      "channel": 0,
      "note": 41,
      "start": 55.6021,
      "duration": 0.0753,
      "velocity": 112,
      "chip": "ym2612"
    },
    {
      "channel": 1,
      "note": 48,
      "start": 55.6032,
      "duration": 0.0745,
      "velocity": 112,
      "chip": "ym2612"
    },
    {
      "channel": 4,
      "note": 71,
      "start": 55.6036,
      "duration": 0.1859,
      "velocity": 97,
      "chip": "ym2612"
    },
    {
      "channel": 0,
      "note": 51,
      "start": 55.7155,
      "duration": 0.0736,
      "velocity": 127,
      "chip": "ym2612"
    },
    {
      "channel": 2,
      "note": 34,
      "start": 55.7159,
      "duration": 0.0734,
      "velocity": 97,
      "chip": "ym2612"
    },
    {
      "channel": 0,
      "note": 51,
      "start": 55.8264,
      "duration": 0.0744,
      "velocity": 127,
      "chip": "ym2612"
    },
    {
      "channel": 2,
      "note": 37,
      "start": 55.8267,
      "duration": 0.1861,
      "velocity": 97,
      "chip": "ym2612"
    },
    {
      "channel": 4,
      "note": 70,
      "start": 55.827,
      "duration": 0.0741,
      "velocity": 97,
      "chip": "ym2612"
    },
    {
      "channel": 0,
      "note": 51,
      "start": 55.938,
      "duration": 0.0745,
      "velocity": 127,
      "chip": "ym2612"
    },
    {
      "channel": 1,
      "note": 48,
      "start": 55.9383,
      "duration": 0.0743,
      "velocity": 112,
      "chip": "ym2612"
    },
    {
      "channel": 4,
      "note": 69,
      "start": 55.9387,
      "duration": 0.0742,
      "velocity": 97,
      "chip": "ym2612"
    },
    {
      "channel": 0,
      "note": 41,
      "start": 56.0506,
      "duration": 0.0753,
      "velocity": 112,
      "chip": "ym2612"
    },
    {
      "channel": 1,
      "note": 51,
      "start": 56.0516,
      "duration": 0.0744,
      "velocity": 127,
      "chip": "ym2612"
    },
    {
      "channel": 2,
      "note": 37,
      "start": 56.0518,
      "duration": 0.0744,
      "velocity": 97,
      "chip": "ym2612"
    },
    {
      "channel": 4,
      "note": 68,
      "start": 56.0521,
      "duration": 0.0742,
      "velocity": 97,
      "chip": "ym2612"
    },
    {
      "channel": 0,
      "note": 51,
      "start": 56.1639,
      "duration": 0.0754,
      "velocity": 127,
      "chip": "ym2612"
    },
    {
      "channel": 1,
      "note": 48,
      "start": 56.1649,
      "duration": 0.0745,
      "velocity": 112,
      "chip": "ym2612"
    },
    {
      "channel": 2,
      "note": 34,
      "start": 56.1652,
      "duration": 0.1861,
      "velocity": 97,
      "chip": "ym2612"
    },
    {
      "channel": 4,
      "note": 70,
      "start": 56.1655,
      "duration": 0.0742,
      "velocity": 97,
      "chip": "ym2612"
    },
    {
      "channel": 0,
      "note": 51,
      "start": 56.2765,
      "duration": 0.0745,
      "velocity": 127,
      "chip": "ym2612"
    },
    {
      "channel": 1,
      "note": 48,
      "start": 56.2768,
      "duration": 0.0743,
      "velocity": 112,
      "chip": "ym2612"
    },
    {
      "channel": 4,
      "note": 71,
      "start": 56.2772,
      "duration": 0.0742,
      "velocity": 97,
      "chip": "ym2612"
    },
    {
      "channel": 0,
      "note": 51,
      "start": 56.3883,
      "duration": 0.0746,
      "velocity": 127,
      "chip": "ym2612"
    },
    {
      "channel": 1,
      "note": 48,
      "start": 56.3886,
      "duration": 0.0745,
      "velocity": 112,
      "chip": "ym2612"
    },
    {
      "channel": 2,
      "note": 34,
      "start": 56.3889,
      "duration": 0.0744,
      "velocity": 97,
      "chip": "ym2612"
    },
    {
      "channel": 4,
      "note": 72,
      "start": 56.3892,
      "duration": 0.0742,
      "velocity": 97,
      "chip": "ym2612"
    },
    {
      "channel": 0,
      "note": 41,
      "start": 56.5011,
      "duration": 0.0755,
      "velocity": 112,
      "chip": "ym2612"
    },
    {
      "channel": 1,
      "note": 48,
      "start": 56.5014,
      "duration": 0.0753,
      "velocity": 112,
      "chip": "ym2612"
    },
    {
      "channel": 2,
      "note": 39,
      "start": 56.5017,
      "duration": 0.1878,
      "velocity": 97,
      "chip": "ym2612"
    },
    {
      "channel": 4,
      "note": 73,
      "start": 56.502,
      "duration": 0.4137,
      "velocity": 97,
      "chip": "ym2612"
    },
    {
      "channel": 0,
      "note": 51,
      "start": 56.615,
      "duration": 0.0743,
      "velocity": 127,
      "chip": "ym2612"
    },
    {
      "channel": 1,
      "note": 48,
      "start": 56.6152,
      "duration": 0.0741,
      "velocity": 112,
      "chip": "ym2612"
    },
    {
      "channel": 0,
      "note": 41,
      "start": 56.7273,
      "duration": 0.0753,
      "velocity": 112,
      "chip": "ym2612"
    },
    {
      "channel": 1,
      "note": 48,
      "start": 56.7277,
      "duration": 0.0751,
      "velocity": 112,
      "chip": "ym2612"
    },
    {
      "channel": 2,
      "note": 41,
      "start": 56.728,
      "duration": 0.1876,
      "velocity": 97,
      "chip": "ym2612"
    },
    {
      "channel": 0,
      "note": 51,
      "start": 56.841,
      "duration": 0.0743,
      "velocity": 127,
      "chip": "ym2612"
    },
    {
      "channel": 1,
      "note": 48,
      "start": 56.8413,
      "duration": 0.0741,
      "velocity": 112,
      "chip": "ym2612"
    },
    {
      "channel": 0,
      "note": 41,
      "start": 56.9534,
      "duration": 0.0756,
      "velocity": 112,
      "chip": "ym2612"
    },
    {
      "channel": 1,
      "note": 54,
      "start": 56.9545,
      "duration": 0.4029,
      "velocity": 119,
      "chip": "ym2612"
    },
    {
      "channel": 5,
      "note": 56,
      "start": 56.956,
      "duration": 0.0734,
      "velocity": 98,
      "chip": "ym2612"
    },
    {
      "channel": 0,
      "note": 51,
      "start": 57.0666,
      "duration": 0.0727,
      "velocity": 127,
      "chip": "ym2612"
    },
    {
      "channel": 5,
      "note": 68,
      "start": 57.0671,
      "duration": 0.1815,
      "velocity": 98,
      "chip": "ym2612"
    },
    {
      "channel": 0,
      "note": 51,
      "start": 57.1758,
      "duration": 0.1815,
      "velocity": 127,
      "chip": "ym2612"
    },
    {
      "channel": 5,
      "note": 56,
      "start": 57.285,
      "duration": 0.0726,
      "velocity": 98,
      "chip": "ym2612"
    },
    {
      "channel": 0,
      "note": 41,
      "start": 57.3945,
      "duration": 0.0753,
      "velocity": 112,
      "chip": "ym2612"
    },
    {
      "channel": 1,
      "note": 48,
      "start": 57.3956,
      "duration": 0.4093,
      "velocity": 112,
      "chip": "ym2612"
    },
    {
      "channel": 5,
      "note": 66,
      "start": 57.3961,
      "duration": 0.1862,
      "velocity": 98,
      "chip": "ym2612"
    },
    {
      "channel": 0,
      "note": 51,
      "start": 57.5079,
      "duration": 0.0739,
      "velocity": 127,
      "chip": "ym2612"
    },
    {
      "channel": 0,
      "note": 51,
      "start": 57.619,
      "duration": 0.0743,
      "velocity": 127,
      "chip": "ym2612"
    },
    {
      "channel": 5,
      "note": 56,
      "start": 57.6197,
      "duration": 0.0741,
      "velocity": 98,
      "chip": "ym2612"
    },
    {
      "channel": 0,
      "note": 51,
      "start": 57.7305,
      "duration": 0.0743,
      "velocity": 127,
      "chip": "ym2612"
    },
    {
      "channel": 5,
      "note": 68,
      "start": 57.7312,
      "duration": 0.1871,
      "velocity": 98,
      "chip": "ym2612"
    },
    {
      "channel": 0,
      "note": 41,
      "start": 57.8428,
      "duration": 0.075,
      "velocity": 112,
      "chip": "ym2612"
    },
    {
      "channel": 1,
      "note": 51,
      "start": 57.8439,
      "duration": 0.4057,
      "velocity": 127,
      "chip": "ym2612"
    },
    {
      "channel": 0,
      "note": 51,
      "start": 57.9558,
      "duration": 0.0734,
      "velocity": 127,
      "chip": "ym2612"
    },
    {
      "channel": 5,
      "note": 56,
      "start": 57.9563,
      "duration": 0.0733,
      "velocity": 98,
      "chip": "ym2612"
    },
    {
      "channel": 0,
      "note": 51,
      "start": 58.066,
      "duration": 0.0734,
      "velocity": 127,
      "chip": "ym2612"
    },
    {
      "channel": 5,
      "note": 66,
      "start": 58.0665,
      "duration": 0.1833,
      "velocity": 98,
      "chip": "ym2612"
    },
    {
      "channel": 0,
      "note": 51,
      "start": 58.1762,
      "duration": 0.0732,
      "velocity": 127,
      "chip": "ym2612"
    },
    {
      "channel": 0,
      "note": 41,
      "start": 58.2871,
      "duration": 0.076,
      "velocity": 112,
      "chip": "ym2612"
    },
    {
      "channel": 1,
      "note": 48,
      "start": 58.2881,
      "duration": 0.1875,
      "velocity": 112,
      "chip": "ym2612"
    },
    {
      "channel": 5,
      "note": 71,
      "start": 58.2887,
      "duration": 0.1874,
      "velocity": 98,
      "chip": "ym2612"
    },
    {
      "channel": 0,
      "note": 51,
      "start": 58.4015,
      "duration": 0.0741,
      "velocity": 127,
      "chip": "ym2612"
    },
    {
      "channel": 0,
      "note": 41,
      "start": 58.5136,
      "duration": 0.0752,
      "velocity": 112,
      "chip": "ym2612"
    },
    {
      "channel": 1,
      "note": 51,
      "start": 58.5146,
      "duration": 0.1854,
      "velocity": 127,
      "chip": "ym2612"
    },
    {
      "channel": 5,
      "note": 72,
      "start": 58.5151,
      "duration": 0.1853,
      "velocity": 98,
      "chip": "ym2612"
    },
    {
      "channel": 0,
      "note": 51,
      "start": 58.6267,
      "duration": 0.0733,
      "velocity": 127,
      "chip": "ym2612"
    },
    {
      "channel": 0,
      "note": 41,
      "start": 58.7376,
      "duration": 0.0741,
      "velocity": 112,
      "chip": "ym2612"
    },
    {
      "channel": 1,
      "note": 51,
      "start": 58.7379,
      "duration": 0.4022,
      "velocity": 127,
      "chip": "ym2612"
    },
    {
      "channel": 5,
      "note": 56,
      "start": 58.7386,
      "duration": 0.0734,
      "velocity": 98,
      "chip": "ym2612"
    },
    {
      "channel": 0,
      "note": 51,
      "start": 58.8493,
      "duration": 0.0727,
      "velocity": 127,
      "chip": "ym2612"
    },
    {
      "channel": 5,
      "note": 68,
      "start": 58.8497,
      "duration": 0.1815,
      "velocity": 98,
      "chip": "ym2612"
    },
    {
      "channel": 0,
      "note": 51,
      "start": 58.9584,
      "duration": 0.1815,
      "velocity": 127,
      "chip": "ym2612"
    },
    {
      "channel": 5,
      "note": 56,
      "start": 59.0677,
      "duration": 0.0726,
      "velocity": 98,
      "chip": "ym2612"
    },
    {
      "channel": 0,
      "note": 41,
      "start": 59.1772,
      "duration": 0.0753,
      "velocity": 112,
      "chip": "ym2612"
    },
    {
      "channel": 1,
      "note": 48,
      "start": 59.1782,
      "duration": 0.4093,
      "velocity": 112,
      "chip": "ym2612"
    },
    {
      "channel": 5,
      "note": 66,
      "start": 59.1787,
      "duration": 0.1862,
      "velocity": 98,
      "chip": "ym2612"
    },
    {
      "channel": 0,
      "note": 51,
      "start": 59.2905,
      "duration": 0.0739,
      "velocity": 127,
      "chip": "ym2612"
    },
    {
      "channel": 0,
      "note": 51,
      "start": 59.4017,
      "duration": 0.0743,
      "velocity": 127,
      "chip": "ym2612"
    },
    {
      "channel": 5,
      "note": 56,
      "start": 59.4023,
      "duration": 0.0741,
      "velocity": 98,
      "chip": "ym2612"
    },
    {
      "channel": 0,
      "note": 51,
      "start": 59.5132,
      "duration": 0.0743,
      "velocity": 127,
      "chip": "ym2612"
    },
    {
      "channel": 5,
      "note": 68,
      "start": 59.5139,
      "duration": 0.1871,
      "velocity": 98,
      "chip": "ym2612"
    },
    {
      "channel": 0,
      "note": 41,
      "start": 59.6255,
      "duration": 0.075,
      "velocity": 112,
      "chip": "ym2612"
    },
    {
      "channel": 1,
      "note": 51,
      "start": 59.6265,
      "duration": 0.4057,
      "velocity": 127,
      "chip": "ym2612"
    },
    {
      "channel": 0,
      "note": 51,
      "start": 59.7384,
      "duration": 0.0734,
      "velocity": 127,
      "chip": "ym2612"
    },
    {
      "channel": 5,
      "note": 56,
      "start": 59.739,
      "duration": 0.0733,
      "velocity": 98,
      "chip": "ym2612"
    },
    {
      "channel": 0,
      "note": 51,
      "start": 59.8487,
      "duration": 0.0734,
      "velocity": 127,
      "chip": "ym2612"
    },
    {
      "channel": 5,
      "note": 66,
      "start": 59.8492,
      "duration": 0.1833,
      "velocity": 98,
      "chip": "ym2612"
    },
    {
      "channel": 0,
      "note": 51,
      "start": 59.9589,
      "duration": 0.0733,
      "velocity": 127,
      "chip": "ym2612"
    },
    {
      "channel": 0,
      "note": 41,
      "start": 60.0698,
      "duration": 0.076,
      "velocity": 112,
      "chip": "ym2612"
    },
    {
      "channel": 1,
      "note": 48,
      "start": 60.0708,
      "duration": 0.1875,
      "velocity": 112,
      "chip": "ym2612"
    },
    {
      "channel": 5,
      "note": 71,
      "start": 60.0714,
      "duration": 0.1874,
      "velocity": 98,
      "chip": "ym2612"
    },
    {
      "channel": 0,
      "note": 51,
      "start": 60.1841,
      "duration": 0.0741,
      "velocity": 127,
      "chip": "ym2612"
    },
    {
      "channel": 0,
      "note": 41,
      "start": 60.2963,
      "duration": 0.0751,
      "velocity": 112,
      "chip": "ym2612"
    },
    {
      "channel": 1,
      "note": 51,
      "start": 60.2973,
      "duration": 0.1854,
      "velocity": 127,
      "chip": "ym2612"
    },
    {
      "channel": 5,
      "note": 72,
      "start": 60.2978,
      "duration": 0.1852,
      "velocity": 98,
      "chip": "ym2612"
    },
    {
      "channel": 0,
      "note": 51,
      "start": 60.4094,
      "duration": 0.0732,
      "velocity": 127,
      "chip": "ym2612"
    },
    {
      "channel": 0,
      "note": 41,
      "start": 60.5202,
      "duration": 0.0741,
      "velocity": 112,
      "chip": "ym2612"
    },
    {
      "channel": 1,
      "note": 51,
      "start": 60.5206,
      "duration": 0.4021,
      "velocity": 127,
      "chip": "ym2612"
    },
    {
      "channel": 5,
      "note": 56,
      "start": 60.5213,
      "duration": 0.0734,
      "velocity": 98,
      "chip": "ym2612"
    },
    {
      "channel": 0,
      "note": 51,
      "start": 60.632,
      "duration": 0.0727,
      "velocity": 127,
      "chip": "ym2612"
    },
    {
      "channel": 5,
      "note": 68,
      "start": 60.6324,
      "duration": 0.1815,
      "velocity": 98,
      "chip": "ym2612"
    },
    {
      "channel": 0,
      "note": 51,
      "start": 60.7411,
      "duration": 0.1815,
      "velocity": 127,
      "chip": "ym2612"
    },
    {
      "channel": 5,
      "note": 56,
      "start": 60.8504,
      "duration": 0.0726,
      "velocity": 98,
      "chip": "ym2612"
    },
    {
      "channel": 0,
      "note": 41,
      "start": 60.9599,
      "duration": 0.0753,
      "velocity": 112,
      "chip": "ym2612"
    },
    {
      "channel": 1,
      "note": 48,
      "start": 60.9609,
      "duration": 0.4093,
      "velocity": 112,
      "chip": "ym2612"
    },
    {
      "channel": 5,
      "note": 66,
      "start": 60.9614,
      "duration": 0.1862,
      "velocity": 98,
      "chip": "ym2612"
    },
    {
      "channel": 0,
      "note": 51,
      "start": 61.0732,
      "duration": 0.0739,
      "velocity": 127,
      "chip": "ym2612"
    },
    {
      "channel": 0,
      "note": 51,
      "start": 61.1844,
      "duration": 0.0743,
      "velocity": 127,
      "chip": "ym2612"
    },
    {
      "channel": 5,
      "note": 56,
      "start": 61.185,
      "duration": 0.0741,
      "velocity": 98,
      "chip": "ym2612"
    },
    {
      "channel": 0,
      "note": 51,
      "start": 61.2959,
      "duration": 0.0743,
      "velocity": 127,
      "chip": "ym2612"
    },
    {
      "channel": 5,
      "note": 68,
      "start": 61.2965,
      "duration": 0.1871,
      "velocity": 98,
      "chip": "ym2612"
    },
    {
      "channel": 0,
      "note": 41,
      "start": 61.4081,
      "duration": 0.075,
      "velocity": 112,
      "chip": "ym2612"
    },
    {
      "channel": 1,
      "note": 51,
      "start": 61.4092,
      "duration": 0.4057,
      "velocity": 127,
      "chip": "ym2612"
    },
    {
      "channel": 0,
      "note": 51,
      "start": 61.5211,
      "duration": 0.0734,
      "velocity": 127,
      "chip": "ym2612"
    },
    {
      "channel": 5,
      "note": 56,
      "start": 61.5216,
      "duration": 0.0733,
      "velocity": 98,
      "chip": "ym2612"
    },
    {
      "channel": 0,
      "note": 51,
      "start": 61.6313,
      "duration": 0.0734,
      "velocity": 127,
      "chip": "ym2612"
    },
    {
      "channel": 5,
      "note": 66,
      "start": 61.6319,
      "duration": 0.1833,
      "velocity": 98,
      "chip": "ym2612"
    },
    {
      "channel": 0,
      "note": 51,
      "start": 61.7415,
      "duration": 0.0732,
      "velocity": 127,
      "chip": "ym2612"
    },
    {
      "channel": 0,
      "note": 41,
      "start": 61.8524,
      "duration": 0.076,
      "velocity": 112,
      "chip": "ym2612"
    },
    {
      "channel": 1,
      "note": 48,
      "start": 61.8534,
      "duration": 0.1876,
      "velocity": 112,
      "chip": "ym2612"
    },
    {
      "channel": 5,
      "note": 71,
      "start": 61.854,
      "duration": 0.1874,
      "velocity": 98,
      "chip": "ym2612"
    },
    {
      "channel": 0,
      "note": 51,
      "start": 61.9668,
      "duration": 0.0741,
      "velocity": 127,
      "chip": "ym2612"
    },
    {
      "channel": 0,
      "note": 41,
      "start": 62.0789,
      "duration": 0.0752,
      "velocity": 112,
      "chip": "ym2612"
    },
    {
      "channel": 1,
      "note": 51,
      "start": 62.08,
      "duration": 0.1854,
      "velocity": 127,
      "chip": "ym2612"
    },
    {
      "channel": 5,
      "note": 72,
      "start": 62.0804,
      "duration": 0.1853,
      "velocity": 98,
      "chip": "ym2612"
    },
    {
      "channel": 0,
      "note": 51,
      "start": 62.192,
      "duration": 0.0733,
      "velocity": 127,
      "chip": "ym2612"
    },
    {
      "channel": 4,
      "note": 68,
      "start": 62.3035,
      "duration": 0.0726,
      "velocity": 117,
      "chip": "ym2612"
    },
    {
      "channel": 5,
      "note": 56,
      "start": 62.3038,
      "duration": 0.0724,
      "velocity": 98,
      "chip": "ym2612"
    },
    {
      "channel": 4,
      "note": 80,
      "start": 62.4125,
      "duration": 0.1812,
      "velocity": 117,
      "chip": "ym2612"
    },
    {
      "channel": 5,
      "note": 68,
      "start": 62.4128,
      "duration": 0.181,
      "velocity": 98,
      "chip": "ym2612"
    },
    {
      "channel": 4,
      "note": 67,
      "start": 62.6301,
      "duration": 0.0726,
      "velocity": 117,
      "chip": "ym2612"
    },
    {
      "channel": 5,
      "note": 55,
      "start": 62.6303,
      "duration": 0.0724,
      "velocity": 98,
      "chip": "ym2612"
    },
    {
      "channel": 4,
      "note": 79,
      "start": 62.739,
      "duration": 0.1812,
      "velocity": 117,
      "chip": "ym2612"
    },
    {
      "channel": 5,
      "note": 67,
      "start": 62.7393,
      "duration": 0.181,
      "velocity": 98,
      "chip": "ym2612"
    },
    {
      "channel": 4,
      "note": 66,
      "start": 62.9566,
      "duration": 0.0726,
      "velocity": 117,
      "chip": "ym2612"
    },
    {
      "channel": 5,
      "note": 54,
      "start": 62.9568,
      "duration": 0.0724,
      "velocity": 98,
      "chip": "ym2612"
    },
    {
      "channel": 4,
      "note": 78,
      "start": 63.0656,
      "duration": 0.1812,
      "velocity": 117,
      "chip": "ym2612"
    },
    {
      "channel": 5,
      "note": 66,
      "start": 63.0658,
      "duration": 0.181,
      "velocity": 98,
      "chip": "ym2612"
    },
    {
      "channel": 4,
      "note": 65,
      "start": 63.2831,
      "duration": 0.0726,
      "velocity": 117,
      "chip": "ym2612"
    },
    {
      "channel": 5,
      "note": 53,
      "start": 63.2833,
      "duration": 0.0724,
      "velocity": 98,
      "chip": "ym2612"
    },
    {
      "channel": 4,
      "note": 77,
      "start": 63.3921,
      "duration": 0.1812,
      "velocity": 117,
      "chip": "ym2612"
    },
    {
      "channel": 5,
      "note": 65,
      "start": 63.3923,
      "duration": 0.181,
      "velocity": 98,
      "chip": "ym2612"
    },
    {
      "channel": 4,
      "note": 76,
      "start": 63.6096,
      "duration": 0.1812,
      "velocity": 117,
      "chip": "ym2612"
    },
    {
      "channel": 5,
      "note": 64,
      "start": 63.6098,
      "duration": 0.181,
      "velocity": 98,
      "chip": "ym2612"
    },
    {
      "channel": 4,
      "note": 75,
      "start": 63.8272,
      "duration": 0.1812,
      "velocity": 117,
      "chip": "ym2612"
    },
    {
      "channel": 5,
      "note": 63,
      "start": 63.8274,
      "duration": 0.181,
      "velocity": 98,
      "chip": "ym2612"
    },
    {
      "channel": 0,
      "note": 41,
      "start": 64.0453,
      "duration": 0.0071,
      "velocity": 112,
      "chip": "ym2612"
    },
    {
      "channel": 1,
      "note": 49,
      "start": 64.0464,
      "duration": 0.0059,
      "velocity": 119,
      "chip": "ym2612"
    },
    {
      "channel": 2,
      "note": 32,
      "start": 64.0475,
      "duration": 0.0049,
      "velocity": 97,
      "chip": "ym2612"
    },
    {
      "channel": 4,
      "note": 56,
      "start": 64.0479,
      "duration": 0.0044,
      "velocity": 117,
      "chip": "ym2612"
    },
    {
      "channel": 5,
      "note": 56,
      "start": 64.0489,
      "duration": 0.0034,
      "velocity": 114,
      "chip": "ym2612"
    }
  ]
}