{
  "track_name": "14 - Ending Theme",
  "duration_sec": 41.467,
  "sample_rate": 44100,
  "note_count": 618,
  "unique_pitches": 42,
  "pitch_range": 60,
  "avg_note_duration": 0.1784,
  "reconstruction_stats": {
    "notes_reconstructed": 618,
    "keyon_events": 618,
    "keyoff_events": 618,
    "orphan_keyons": 0,
    "unique_pitches": 42,
    "pitch_range": 60,
    "avg_duration_sec": 0.1784
  },
  "metadata": {
    "source": "E\\Ecco the Dolphin\\14 - Ending Theme.vgz"
  },
  "notes": [
    {
      "channel": 0,
      "note": 69,
      "start": 0.0,
      "duration": 0.0,
      "velocity": 1,
      "chip": "ym2612"
    },
    {
      "channel": 0,
      "note": 69,
      "start": 0.0,
      "duration": 0.0,
      "velocity": 88,
      "chip": "ym2612"
    },
    {
      "channel": 0,
      "note": 67,
      "start": 0.0,
      "duration": 0.0,
      "velocity": 88,
      "chip": "ym2612"
    },
    {
      "channel": 0,
      "note": 64,
      "start": 0.0,
      "duration": 0.0,
      "velocity": 88,
      "chip": "ym2612"
    },
    {
      "channel": 0,
      "note": 62,
      "start": 0.0,
      "duration": 0.0,
      "velocity": 88,
      "chip": "ym2612"
    },
    {
      "channel": 0,
      "note": 60,
      "start": 0.0,
      "duration": 0.0,
      "velocity": 88,
      "chip": "ym2612"
    },
    {
      "channel": 0,
      "note": 57,
      "start": 0.0,
      "duration": 0.0,
      "velocity": 88,
      "chip": "ym2612"
    },
    {
      "channel": 0,
      "note": 55,
      "start": 0.0,
      "duration": 0.0,
      "velocity": 88,
      "chip": "ym2612"
    },
    {
      "channel": 0,
      "note": 52,
      "start": 0.0,
      "duration": 0.0,
      "velocity": 88,
      "chip": "ym2612"
    },
    {
      "channel": 0,
      "note": 51,
      "start": 0.0,
      "duration": 0.0,
      "velocity": 88,
      "chip": "ym2612"
    },
    {
      "channel": 0,
      "note": 50,
      "start": 0.0,
      "duration": 0.0,
      "velocity": 88,
      "chip": "ym2612"
    },
    {
      "channel": 0,
      "note": 48,
      "start": 0.0,
      "duration": 0.0,
      "velocity": 88,
      "chip": "ym2612"
    },
    {
      "channel": 0,
      "note": 45,
      "start": 0.0,
      "duration": 0.0,
      "velocity": 88,
      "chip": "ym2612"
    },
    {
      "channel": 0,
      "note": 57,
      "start": 0.0,
      "duration": 0.0,
      "velocity": 88,
      "chip": "ym2612"
    },
    {
      "channel": 0,
      "note": 57,
      "start": 0.0,
      "duration": 0.0,
      "velocity": 88,
      "chip": "ym2612"
    },
    {
      "channel": 0,
      "note": 45,
      "start": 0.0,
      "duration": 0.0,
      "velocity": 88,
      "chip": "ym2612"
    },
    {
      "channel": 0,
      "note": 57,
      "start": 0.0,
      "duration": 0.0,
      "velocity": 88,
      "chip": "ym2612"
    },
    {
      "channel": 0,
      "note": 45,
      "start": 0.0,
      "duration": 0.0,
      "velocity": 88,
      "chip": "ym2612"
    },
    {
      "channel": 0,
      "note": 57,
      "start": 0.0,
      "duration": 0.0,
      "velocity": 88,
      "chip": "ym2612"
    },
    {
      "channel": 0,
      "note": 69,
      "start": 0.0,
      "duration": 0.1309,
      "velocity": 88,
      "chip": "ym2612"
    },
    {
      "channel": 1,
      "note": 84,
      "start": 0.0,
      "duration": 0.0,
      "velocity": 116,
      "chip": "ym2612"
    },
    {
      "channel": 1,
      "note": 89,
      "start": 0.0,
      "duration": 0.0,
      "velocity": 116,
      "chip": "ym2612"
    },
    {
      "channel": 1,
      "note": 88,
      "start": 0.0,
      "duration": 0.0,
      "velocity": 116,
      "chip": "ym2612"
    },
    {
      "channel": 1,
      "note": 86,
      "start": 0.0,
      "duration": 0.0,
      "velocity": 116,
      "chip": "ym2612"
    },
    {
      "channel": 1,
      "note": 88,
      "start": 0.0,
      "duration": 0.0,
      "velocity": 116,
      "chip": "ym2612"
    },
    {
      "channel": 1,
      "note": 83,
      "start": 0.0,
      "duration": 0.0,
      "velocity": 116,
      "chip": "ym2612"
    },
    {
      "channel": 1,
      "note": 76,
      "start": 0.0,
      "duration": 0.0,
      "velocity": 1,
      "chip": "ym2612"
    },
    {
      "channel": 3,
      "note": 45,
      "start": 0.0,
      "duration": 0.0,
      "velocity": 118,
      "chip": "ym2612"
    },
    {
      "channel": 0,
      "note": 67,
      "start": 0.1508,
      "duration": 0.1369,
      "velocity": 88,
      "chip": "ym2612"
    },
    {
      "channel": 0,
      "note": 64,
      "start": 0.3076,
      "duration": 0.1369,
      "velocity": 88,
      "chip": "ym2612"
    },
    {
      "channel": 0,
      "note": 62,
      "start": 0.4644,
      "duration": 0.1369,
      "velocity": 88,
      "chip": "ym2612"
    },
    {
      "channel": 0,
      "note": 60,
      "start": 0.6212,
      "duration": 0.1369,
      "velocity": 88,
      "chip": "ym2612"
    },
    {
      "channel": 0,
      "note": 57,
      "start": 0.778,
      "duration": 0.1368,
      "velocity": 88,
      "chip": "ym2612"
    },
    {
      "channel": 0,
      "note": 55,
      "start": 0.9349,
      "duration": 0.1368,
      "velocity": 88,
      "chip": "ym2612"
    },
    {
      "channel": 0,
      "note": 52,
      "start": 1.0916,
      "duration": 0.1369,
      "velocity": 88,
      "chip": "ym2612"
    },
    {
      "channel": 0,
      "note": 51,
      "start": 1.2484,
      "duration": 0.1369,
      "velocity": 88,
      "chip": "ym2612"
    },
    {
      "channel": 0,
      "note": 50,
      "start": 1.4052,
      "duration": 0.1369,
      "velocity": 88,
      "chip": "ym2612"
    },
    {
      "channel": 0,
      "note": 48,
      "start": 1.562,
      "duration": 0.1369,
      "velocity": 88,
      "chip": "ym2612"
    },
    {
      "channel": 0,
      "note": 45,
      "start": 1.7188,
      "duration": 0.1369,
      "velocity": 88,
      "chip": "ym2612"
    },
    {
      "channel": 0,
      "note": 57,
      "start": 1.8756,
      "duration": 0.1173,
      "velocity": 88,
      "chip": "ym2612"
    },
    {
      "channel": 1,
      "note": 84,
      "start": 1.9242,
      "duration": 0.3826,
      "velocity": 116,
      "chip": "ym2612"
    },
    {
      "channel": 0,
      "note": 57,
      "start": 2.1888,
      "duration": 0.1177,
      "velocity": 88,
      "chip": "ym2612"
    },
    {
      "channel": 0,
      "note": 45,
      "start": 2.346,
      "duration": 0.1173,
      "velocity": 88,
      "chip": "ym2612"
    },
    {
      "channel": 1,
      "note": 89,
      "start": 2.3466,
      "duration": 0.0971,
      "velocity": 116,
      "chip": "ym2612"
    },
    {
      "channel": 3,
      "note": 45,
      "start": 2.357,
      "duration": 0.577,
      "velocity": 118,
      "chip": "ym2612"
    },
    {
      "channel": 0,
      "note": 57,
      "start": 2.5028,
      "duration": 0.1173,
      "velocity": 88,
      "chip": "ym2612"
    },
    {
      "channel": 1,
      "note": 88,
      "start": 2.5035,
      "duration": 0.0774,
      "velocity": 116,
      "chip": "ym2612"
    },
    {
      "channel": 1,
      "note": 86,
      "start": 2.6207,
      "duration": 0.0777,
      "velocity": 116,
      "chip": "ym2612"
    },
    {
      "channel": 0,
      "note": 45,
      "start": 2.6596,
      "duration": 0.1173,
      "velocity": 88,
      "chip": "ym2612"
    },
    {
      "channel": 1,
      "note": 88,
      "start": 2.7968,
      "duration": 0.1173,
      "velocity": 116,
      "chip": "ym2612"
    },
    {
      "channel": 0,
      "note": 57,
      "start": 2.8164,
      "duration": 0.1173,
      "velocity": 88,
      "chip": "ym2612"
    },
    {
      "channel": 1,
      "note": 83,
      "start": 2.9536,
      "duration": 0.0976,
      "velocity": 116,
      "chip": "ym2612"
    },
    {
      "channel": 1,
      "note": 76,
      "start": 3.1104,
      "duration": 0.1173,
      "velocity": 116,
      "chip": "ym2612"
    },
    {
      "channel": 0,
      "note": 57,
      "start": 3.1297,
      "duration": 0.1176,
      "velocity": 88,
      "chip": "ym2612"
    },
    {
      "channel": 1,
      "note": 83,
      "start": 3.2673,
      "duration": 0.1172,
      "velocity": 116,
      "chip": "ym2612"
    },
    {
      "channel": 0,
      "note": 45,
      "start": 3.2868,
      "duration": 0.1173,
      "velocity": 88,
      "chip": "ym2612"
    },
    {
      "channel": 3,
      "note": 45,
      "start": 3.2871,
      "duration": 0.5877,
      "velocity": 118,
      "chip": "ym2612"
    },
    {
      "channel": 1,
      "note": 84,
      "start": 3.4047,
      "duration": 0.0974,
      "velocity": 116,
      "chip": "ym2612"
    },
    {
      "channel": 0,
      "note": 57,
      "start": 3.4436,
      "duration": 0.1173,
      "velocity": 88,
      "chip": "ym2612"
    },
    {
      "channel": 4,
      "note": 55,
      "start": 3.4565,
      "duration": 0.0652,
      "velocity": 27,
      "chip": "ym2612"
    },
    {
      "channel": 1,
      "note": 86,
      "start": 3.5615,
      "duration": 0.0777,
      "velocity": 116,
      "chip": "ym2612"
    },
    {
      "channel": 0,
      "note": 45,
      "start": 3.6004,
      "duration": 0.1173,
      "velocity": 88,
      "chip": "ym2612"
    },
    {
      "channel": 4,
      "note": 55,
      "start": 3.6007,
      "duration": 0.0778,
      "velocity": 27,
      "chip": "ym2612"
    },
    {
      "channel": 1,
      "note": 84,
      "start": 3.7376,
      "duration": 0.372,
      "velocity": 116,
      "chip": "ym2612"
    },
    {
      "channel": 0,
      "note": 57,
      "start": 3.7572,
      "duration": 0.1173,
      "velocity": 88,
      "chip": "ym2612"
    },
    {
      "channel": 0,
      "note": 57,
      "start": 4.0705,
      "duration": 0.1176,
      "velocity": 88,
      "chip": "ym2612"
    },
    {
      "channel": 1,
      "note": 89,
      "start": 4.208,
      "duration": 0.078,
      "velocity": 116,
      "chip": "ym2612"
    },
    {
      "channel": 0,
      "note": 45,
      "start": 4.2275,
      "duration": 0.1173,
      "velocity": 88,
      "chip": "ym2612"
    },
    {
      "channel": 3,
      "note": 45,
      "start": 4.2278,
      "duration": 0.5877,
      "velocity": 118,
      "chip": "ym2612"
    },
    {
      "channel": 1,
      "note": 88,
      "start": 4.3648,
      "duration": 0.078,
      "velocity": 116,
      "chip": "ym2612"
    },
    {
      "channel": 0,
      "note": 57,
      "start": 4.3843,
      "duration": 0.1173,
      "velocity": 88,
      "chip": "ym2612"
    },
    {
      "channel": 1,
      "note": 86,
      "start": 4.5023,
      "duration": 0.0778,
      "velocity": 116,
      "chip": "ym2612"
    },
    {
      "channel": 0,
      "note": 45,
      "start": 4.5411,
      "duration": 0.1173,
      "velocity": 88,
      "chip": "ym2612"
    },
    {
      "channel": 1,
      "note": 88,
      "start": 4.6784,
      "duration": 0.0977,
      "velocity": 116,
      "chip": "ym2612"
    },
    {
      "channel": 0,
      "note": 57,
      "start": 4.698,
      "duration": 0.1173,
      "velocity": 88,
      "chip": "ym2612"
    },
    {
      "channel": 1,
      "note": 83,
      "start": 4.8352,
      "duration": 0.078,
      "velocity": 116,
      "chip": "ym2612"
    },
    {
      "channel": 1,
      "note": 76,
      "start": 4.9724,
      "duration": 0.0976,
      "velocity": 116,
      "chip": "ym2612"
    },
    {
      "channel": 0,
      "note": 57,
      "start": 5.0112,
      "duration": 0.1176,
      "velocity": 88,
      "chip": "ym2612"
    },
    {
      "channel": 1,
      "note": 83,
      "start": 5.1295,
      "duration": 0.1169,
      "velocity": 116,
      "chip": "ym2612"
    },
    {
      "channel": 0,
      "note": 45,
      "start": 5.1684,
      "duration": 0.1172,
      "velocity": 88,
      "chip": "ym2612"
    },
    {
      "channel": 3,
      "note": 45,
      "start": 5.1687,
      "duration": 0.5877,
      "velocity": 118,
      "chip": "ym2612"
    },
    {
      "channel": 1,
      "note": 84,
      "start": 5.2862,
      "duration": 0.1366,
      "velocity": 116,
      "chip": "ym2612"
    },
    {
      "channel": 0,
      "note": 57,
      "start": 5.3252,
      "duration": 0.1173,
      "velocity": 88,
      "chip": "ym2612"
    },
    {
      "channel": 4,
      "note": 55,
      "start": 5.3255,
      "duration": 0.0778,
      "velocity": 27,
      "chip": "ym2612"
    },
    {
      "channel": 1,
      "note": 86,
      "start": 5.4431,
      "duration": 0.0778,
      "velocity": 116,
      "chip": "ym2612"
    },
    {
      "channel": 0,
      "note": 45,
      "start": 5.4819,
      "duration": 0.1173,
      "velocity": 88,
      "chip": "ym2612"
    },
    {
      "channel": 4,
      "note": 55,
      "start": 5.4822,
      "duration": 0.0778,
      "velocity": 27,
      "chip": "ym2612"
    },
    {
      "channel": 0,
      "note": 57,
      "start": 5.6387,
      "duration": 0.1173,
      "velocity": 88,
      "chip": "ym2612"
    },
    {
      "channel": 1,
      "note": 84,
      "start": 5.6584,
      "duration": 0.4308,
      "velocity": 116,
      "chip": "ym2612"
    },
    {
      "channel": 0,
      "note": 57,
      "start": 5.952,
      "duration": 0.1176,
      "velocity": 88,
      "chip": "ym2612"
    },
    {
      "channel": 0,
      "note": 45,
      "start": 6.1091,
      "duration": 0.1173,
      "velocity": 88,
      "chip": "ym2612"
    },
    {
      "channel": 3,
      "note": 45,
      "start": 6.1094,
      "duration": 0.5877,
      "velocity": 118,
      "chip": "ym2612"
    },
    {
      "channel": 1,
      "note": 89,
      "start": 6.1288,
      "duration": 0.0979,
      "velocity": 116,
      "chip": "ym2612"
    },
    {
      "channel": 0,
      "note": 57,
      "start": 6.266,
      "duration": 0.1172,
      "velocity": 88,
      "chip": "ym2612"
    },
    {
      "channel": 1,
      "note": 88,
      "start": 6.3051,
      "duration": 0.0784,
      "velocity": 116,
      "chip": "ym2612"
    },
    {
      "channel": 0,
      "note": 45,
      "start": 6.4227,
      "duration": 0.1174,
      "velocity": 88,
      "chip": "ym2612"
    },
    {
      "channel": 1,
      "note": 86,
      "start": 6.4235,
      "duration": 0.0969,
      "velocity": 116,
      "chip": "ym2612"
    },
    {
      "channel": 0,
      "note": 57,
      "start": 6.5796,
      "duration": 0.1172,
      "velocity": 88,
      "chip": "ym2612"
    },
    {
      "channel": 1,
      "note": 88,
      "start": 6.5992,
      "duration": 0.078,
      "velocity": 116,
      "chip": "ym2612"
    },
    {
      "channel": 1,
      "note": 83,
      "start": 6.7756,
      "duration": 0.078,
      "velocity": 116,
      "chip": "ym2612"
    },
    {
      "channel": 1,
      "note": 76,
      "start": 6.8737,
      "duration": 0.0976,
      "velocity": 116,
      "chip": "ym2612"
    },
    {
      "channel": 0,
      "note": 57,
      "start": 6.8928,
      "duration": 0.1176,
      "velocity": 88,
      "chip": "ym2612"
    },
    {
      "channel": 1,
      "note": 83,
      "start": 7.0303,
      "duration": 0.1173,
      "velocity": 116,
      "chip": "ym2612"
    },
    {
      "channel": 0,
      "note": 45,
      "start": 7.0499,
      "duration": 0.1173,
      "velocity": 88,
      "chip": "ym2612"
    },
    {
      "channel": 3,
      "note": 45,
      "start": 7.0502,
      "duration": 0.5873,
      "velocity": 118,
      "chip": "ym2612"
    },
    {
      "channel": 1,
      "note": 84,
      "start": 7.1871,
      "duration": 0.1172,
      "velocity": 116,
      "chip": "ym2612"
    },
    {
      "channel": 0,
      "note": 57,
      "start": 7.2069,
      "duration": 0.1171,
      "velocity": 88,
      "chip": "ym2612"
    },
    {
      "channel": 4,
      "note": 55,
      "start": 7.2072,
      "duration": 0.0776,
      "velocity": 27,
      "chip": "ym2612"
    },
    {
      "channel": 1,
      "note": 86,
      "start": 7.3247,
      "duration": 0.0777,
      "velocity": 116,
      "chip": "ym2612"
    },
    {
      "channel": 0,
      "note": 45,
      "start": 7.3635,
      "duration": 0.1172,
      "velocity": 88,
      "chip": "ym2612"
    },
    {
      "channel": 4,
      "note": 55,
      "start": 7.3639,
      "duration": 0.0778,
      "velocity": 27,
      "chip": "ym2612"
    },
    {
      "channel": 0,
      "note": 57,
      "start": 7.5203,
      "duration": 0.1368,
      "velocity": 88,
      "chip": "ym2612"
    },
    {
      "channel": 1,
      "note": 93,
      "start": 7.521,
      "duration": 1.8812,
      "velocity": 116,
      "chip": "ym2612"
    },
    {
      "channel": 0,
      "note": 48,
      "start": 7.6771,
      "duration": 0.1369,
      "velocity": 88,
      "chip": "ym2612"
    },
    {
      "channel": 0,
      "note": 52,
      "start": 7.8339,
      "duration": 0.1369,
      "velocity": 88,
      "chip": "ym2612"
    },
    {
      "channel": 0,
      "note": 55,
      "start": 7.9907,
      "duration": 0.1369,
      "velocity": 88,
      "chip": "ym2612"
    },
    {
      "channel": 3,
      "note": 45,
      "start": 7.991,
      "duration": 0.5874,
      "velocity": 118,
      "chip": "ym2612"
    },
    {
      "channel": 0,
      "note": 57,
      "start": 8.1475,
      "duration": 0.1369,
      "velocity": 88,
      "chip": "ym2612"
    },
    {
      "channel": 0,
      "note": 60,
      "start": 8.3043,
      "duration": 0.1369,
      "velocity": 88,
      "chip": "ym2612"
    },
    {
      "channel": 0,
      "note": 57,
      "start": 8.4611,
      "duration": 0.1368,
      "velocity": 88,
      "chip": "ym2612"
    },
    {
      "channel": 0,
      "note": 55,
      "start": 8.6179,
      "duration": 0.1368,
      "velocity": 88,
      "chip": "ym2612"
    },
    {
      "channel": 0,
      "note": 52,
      "start": 8.7747,
      "duration": 0.137,
      "velocity": 88,
      "chip": "ym2612"
    },
    {
      "channel": 0,
      "note": 48,
      "start": 8.9315,
      "duration": 0.1369,
      "velocity": 88,
      "chip": "ym2612"
    },
    {
      "channel": 3,
      "note": 45,
      "start": 8.9319,
      "duration": 0.5873,
      "velocity": 118,
      "chip": "ym2612"
    },
    {
      "channel": 0,
      "note": 52,
      "start": 9.0883,
      "duration": 0.1369,
      "velocity": 88,
      "chip": "ym2612"
    },
    {
      "channel": 4,
      "note": 55,
      "start": 9.0887,
      "duration": 0.0777,
      "velocity": 27,
      "chip": "ym2612"
    },
    {
      "channel": 0,
      "note": 55,
      "start": 9.2451,
      "duration": 0.1369,
      "velocity": 88,
      "chip": "ym2612"
    },
    {
      "channel": 4,
      "note": 55,
      "start": 9.2455,
      "duration": 0.0777,
      "velocity": 27,
      "chip": "ym2612"
    },
    {
      "channel": 0,
      "note": 57,
      "start": 9.4019,
      "duration": 0.1368,
      "velocity": 88,
      "chip": "ym2612"
    },
    {
      "channel": 2,
      "note": 88,
      "start": 9.4123,
      "duration": 0.4607,
      "velocity": 116,
      "chip": "ym2612"
    },
    {
      "channel": 1,
      "note": 84,
      "start": 9.4215,
      "duration": 0.4511,
      "velocity": 116,
      "chip": "ym2612"
    },
    {
      "channel": 0,
      "note": 57,
      "start": 9.7151,
      "duration": 0.1176,
      "velocity": 88,
      "chip": "ym2612"
    },
    {
      "channel": 0,
      "note": 45,
      "start": 9.8722,
      "duration": 0.1174,
      "velocity": 88,
      "chip": "ym2612"
    },
    {
      "channel": 3,
      "note": 45,
      "start": 9.8734,
      "duration": 0.5871,
      "velocity": 118,
      "chip": "ym2612"
    },
    {
      "channel": 1,
      "note": 89,
      "start": 9.8919,
      "duration": 0.078,
      "velocity": 116,
      "chip": "ym2612"
    },
    {
      "channel": 2,
      "note": 93,
      "start": 9.8925,
      "duration": 0.1166,
      "velocity": 116,
      "chip": "ym2612"
    },
    {
      "channel": 0,
      "note": 57,
      "start": 10.029,
      "duration": 0.1173,
      "velocity": 88,
      "chip": "ym2612"
    },
    {
      "channel": 2,
      "note": 91,
      "start": 10.0297,
      "duration": 0.1363,
      "velocity": 116,
      "chip": "ym2612"
    },
    {
      "channel": 1,
      "note": 88,
      "start": 10.0683,
      "duration": 0.0585,
      "velocity": 116,
      "chip": "ym2612"
    },
    {
      "channel": 0,
      "note": 45,
      "start": 10.1859,
      "duration": 0.1173,
      "velocity": 88,
      "chip": "ym2612"
    },
    {
      "channel": 1,
      "note": 86,
      "start": 10.1865,
      "duration": 0.0775,
      "velocity": 116,
      "chip": "ym2612"
    },
    {
      "channel": 2,
      "note": 89,
      "start": 10.1871,
      "duration": 0.1356,
      "velocity": 116,
      "chip": "ym2612"
    },
    {
      "channel": 0,
      "note": 57,
      "start": 10.3427,
      "duration": 0.1172,
      "velocity": 88,
      "chip": "ym2612"
    },
    {
      "channel": 2,
      "note": 91,
      "start": 10.3433,
      "duration": 0.1363,
      "velocity": 116,
      "chip": "ym2612"
    },
    {
      "channel": 1,
      "note": 88,
      "start": 10.3623,
      "duration": 0.098,
      "velocity": 116,
      "chip": "ym2612"
    },
    {
      "channel": 1,
      "note": 83,
      "start": 10.4995,
      "duration": 0.078,
      "velocity": 116,
      "chip": "ym2612"
    },
    {
      "channel": 2,
      "note": 89,
      "start": 10.5002,
      "duration": 0.1362,
      "velocity": 116,
      "chip": "ym2612"
    },
    {
      "channel": 0,
      "note": 57,
      "start": 10.656,
      "duration": 0.1176,
      "velocity": 88,
      "chip": "ym2612"
    },
    {
      "channel": 1,
      "note": 76,
      "start": 10.6567,
      "duration": 0.1172,
      "velocity": 116,
      "chip": "ym2612"
    },
    {
      "channel": 2,
      "note": 88,
      "start": 10.6573,
      "duration": 0.0967,
      "velocity": 116,
      "chip": "ym2612"
    },
    {
      "channel": 0,
      "note": 45,
      "start": 10.813,
      "duration": 0.1173,
      "velocity": 88,
      "chip": "ym2612"
    },
    {
      "channel": 1,
      "note": 83,
      "start": 10.8137,
      "duration": 0.117,
      "velocity": 116,
      "chip": "ym2612"
    },
    {
      "channel": 2,
      "note": 86,
      "start": 10.8144,
      "duration": 0.1166,
      "velocity": 116,
      "chip": "ym2612"
    },
    {
      "channel": 3,
      "note": 45,
      "start": 10.8147,
      "duration": 0.5864,
      "velocity": 118,
      "chip": "ym2612"
    },
    {
      "channel": 1,
      "note": 84,
      "start": 10.9503,
      "duration": 0.1173,
      "velocity": 116,
      "chip": "ym2612"
    },
    {
      "channel": 2,
      "note": 88,
      "start": 10.9509,
      "duration": 0.1372,
      "velocity": 116,
      "chip": "ym2612"
    },
    {
      "channel": 0,
      "note": 57,
      "start": 10.9698,
      "duration": 0.1173,
      "velocity": 88,
      "chip": "ym2612"
    },
    {
      "channel": 4,
      "note": 55,
      "start": 10.9702,
      "duration": 0.0778,
      "velocity": 27,
      "chip": "ym2612"
    },
    {
      "channel": 1,
      "note": 86,
      "start": 11.0878,
      "duration": 0.0777,
      "velocity": 116,
      "chip": "ym2612"
    },
    {
      "channel": 2,
      "note": 89,
      "start": 11.1071,
      "duration": 0.1172,
      "velocity": 116,
      "chip": "ym2612"
    },
    {
      "channel": 0,
      "note": 45,
      "start": 11.1266,
      "duration": 0.1173,
      "velocity": 88,
      "chip": "ym2612"
    },
    {
      "channel": 4,
      "note": 55,
      "start": 11.127,
      "duration": 0.0778,
      "velocity": 27,
      "chip": "ym2612"
    },
    {
      "channel": 1,
      "note": 84,
      "start": 11.2446,
      "duration": 0.3913,
      "velocity": 116,
      "chip": "ym2612"
    },
    {
      "channel": 2,
      "note": 88,
      "start": 11.2639,
      "duration": 0.4513,
      "velocity": 116,
      "chip": "ym2612"
    },
    {
      "channel": 0,
      "note": 57,
      "start": 11.2834,
      "duration": 0.1173,
      "velocity": 88,
      "chip": "ym2612"
    },
    {
      "channel": 0,
      "note": 57,
      "start": 11.5967,
      "duration": 0.1176,
      "velocity": 88,
      "chip": "ym2612"
    },
    {
      "channel": 1,
      "note": 89,
      "start": 11.7149,
      "duration": 0.0778,
      "velocity": 116,
      "chip": "ym2612"
    },
    {
      "channel": 0,
      "note": 45,
      "start": 11.7538,
      "duration": 0.1173,
      "velocity": 88,
      "chip": "ym2612"
    },
    {
      "channel": 2,
      "note": 93,
      "start": 11.7545,
      "duration": 0.1169,
      "velocity": 116,
      "chip": "ym2612"
    },
    {
      "channel": 3,
      "note": 45,
      "start": 11.7548,
      "duration": 0.5883,
      "velocity": 118,
      "chip": "ym2612"
    },
    {
      "channel": 1,
      "note": 88,
      "start": 11.8911,
      "duration": 0.0585,
      "velocity": 116,
      "chip": "ym2612"
    },
    {
      "channel": 2,
      "note": 91,
      "start": 11.8917,
      "duration": 0.1166,
      "velocity": 116,
      "chip": "ym2612"
    },
    {
      "channel": 0,
      "note": 57,
      "start": 11.9106,
      "duration": 0.1173,
      "velocity": 88,
      "chip": "ym2612"
    },
    {
      "channel": 1,
      "note": 86,
      "start": 12.0285,
      "duration": 0.0779,
      "velocity": 116,
      "chip": "ym2612"
    },
    {
      "channel": 2,
      "note": 89,
      "start": 12.0292,
      "duration": 0.1359,
      "velocity": 116,
      "chip": "ym2612"
    },
    {
      "channel": 0,
      "note": 45,
      "start": 12.0674,
      "duration": 0.1173,
      "velocity": 88,
      "chip": "ym2612"
    },
    {
      "channel": 1,
      "note": 88,
      "start": 12.1854,
      "duration": 0.0777,
      "velocity": 116,
      "chip": "ym2612"
    },
    {
      "channel": 2,
      "note": 91,
      "start": 12.2047,
      "duration": 0.1172,
      "velocity": 116,
      "chip": "ym2612"
    },
    {
      "channel": 0,
      "note": 57,
      "start": 12.2242,
      "duration": 0.1173,
      "velocity": 88,
      "chip": "ym2612"
    },
    {
      "channel": 1,
      "note": 83,
      "start": 12.3422,
      "duration": 0.0777,
      "velocity": 116,
      "chip": "ym2612"
    },
    {
      "channel": 2,
      "note": 89,
      "start": 12.3428,
      "duration": 0.1359,
      "velocity": 116,
      "chip": "ym2612"
    },
    {
      "channel": 1,
      "note": 76,
      "start": 12.4986,
      "duration": 0.0784,
      "velocity": 116,
      "chip": "ym2612"
    },
    {
      "channel": 2,
      "note": 88,
      "start": 12.4993,
      "duration": 0.0774,
      "velocity": 116,
      "chip": "ym2612"
    },
    {
      "channel": 0,
      "note": 57,
      "start": 12.5375,
      "duration": 0.098,
      "velocity": 88,
      "chip": "ym2612"
    },
    {
      "channel": 1,
      "note": 83,
      "start": 12.6362,
      "duration": 0.1169,
      "velocity": 116,
      "chip": "ym2612"
    },
    {
      "channel": 2,
      "note": 86,
      "start": 12.6368,
      "duration": 0.1366,
      "velocity": 116,
      "chip": "ym2612"
    },
    {
      "channel": 0,
      "note": 45,
      "start": 12.675,
      "duration": 0.1173,
      "velocity": 88,
      "chip": "ym2612"
    },
    {
      "channel": 3,
      "note": 45,
      "start": 12.6753,
      "duration": 0.5877,
      "velocity": 118,
      "chip": "ym2612"
    },
    {
      "channel": 1,
      "note": 84,
      "start": 12.7732,
      "duration": 0.0976,
      "velocity": 116,
      "chip": "ym2612"
    },
    {
      "channel": 2,
      "note": 88,
      "start": 12.793,
      "duration": 0.1371,
      "velocity": 116,
      "chip": "ym2612"
    },
    {
      "channel": 0,
      "note": 57,
      "start": 12.8318,
      "duration": 0.1173,
      "velocity": 88,
      "chip": "ym2612"
    },
    {
      "channel": 4,
      "note": 55,
      "start": 12.8322,
      "duration": 0.0778,
      "velocity": 27,
      "chip": "ym2612"
    },
    {
      "channel": 1,
      "note": 86,
      "start": 12.9299,
      "duration": 0.078,
      "velocity": 116,
      "chip": "ym2612"
    },
    {
      "channel": 2,
      "note": 89,
      "start": 12.9498,
      "duration": 0.1169,
      "velocity": 116,
      "chip": "ym2612"
    },
    {
      "channel": 0,
      "note": 45,
      "start": 12.9886,
      "duration": 0.1173,
      "velocity": 88,
      "chip": "ym2612"
    },
    {
      "channel": 4,
      "note": 55,
      "start": 12.9889,
      "duration": 0.0781,
      "velocity": 27,
      "chip": "ym2612"
    },
    {
      "channel": 1,
      "note": 84,
      "start": 13.1066,
      "duration": 0.4305,
      "velocity": 116,
      "chip": "ym2612"
    },
    {
      "channel": 2,
      "note": 88,
      "start": 13.1072,
      "duration": 0.47,
      "velocity": 116,
      "chip": "ym2612"
    },
    {
      "channel": 0,
      "note": 57,
      "start": 13.1454,
      "duration": 0.1173,
      "velocity": 88,
      "chip": "ym2612"
    },
    {
      "channel": 0,
      "note": 57,
      "start": 13.4587,
      "duration": 0.1176,
      "velocity": 88,
      "chip": "ym2612"
    },
    {
      "channel": 1,
      "note": 89,
      "start": 13.577,
      "duration": 0.0777,
      "velocity": 116,
      "chip": "ym2612"
    },
    {
      "channel": 0,
      "note": 45,
      "start": 13.6158,
      "duration": 0.1172,
      "velocity": 88,
      "chip": "ym2612"
    },
    {
      "channel": 2,
      "note": 93,
      "start": 13.6165,
      "duration": 0.1169,
      "velocity": 116,
      "chip": "ym2612"
    },
    {
      "channel": 3,
      "note": 45,
      "start": 13.6168,
      "duration": 0.5887,
      "velocity": 118,
      "chip": "ym2612"
    },
    {
      "channel": 1,
      "note": 88,
      "start": 13.753,
      "duration": 0.078,
      "velocity": 116,
      "chip": "ym2612"
    },
    {
      "channel": 0,
      "note": 57,
      "start": 13.7726,
      "duration": 0.1173,
      "velocity": 88,
      "chip": "ym2612"
    },
    {
      "channel": 2,
      "note": 91,
      "start": 13.7733,
      "duration": 0.097,
      "velocity": 116,
      "chip": "ym2612"
    },
    {
      "channel": 1,
      "note": 86,
      "start": 13.8905,
      "duration": 0.0778,
      "velocity": 116,
      "chip": "ym2612"
    },
    {
      "channel": 2,
      "note": 89,
      "start": 13.8912,
      "duration": 0.1564,
      "velocity": 116,
      "chip": "ym2612"
    },
    {
      "channel": 0,
      "note": 45,
      "start": 13.9294,
      "duration": 0.1173,
      "velocity": 88,
      "chip": "ym2612"
    },
    {
      "channel": 1,
      "note": 88,
      "start": 14.0473,
      "duration": 0.0778,
      "velocity": 116,
      "chip": "ym2612"
    },
    {
      "channel": 2,
      "note": 91,
      "start": 14.0666,
      "duration": 0.1378,
      "velocity": 116,
      "chip": "ym2612"
    },
    {
      "channel": 0,
      "note": 57,
      "start": 14.0862,
      "duration": 0.1173,
      "velocity": 88,
      "chip": "ym2612"
    },
    {
      "channel": 1,
      "note": 83,
      "start": 14.2041,
      "duration": 0.0778,
      "velocity": 116,
      "chip": "ym2612"
    },
    {
      "channel": 2,
      "note": 89,
      "start": 14.2051,
      "duration": 0.1356,
      "velocity": 116,
      "chip": "ym2612"
    },
    {
      "channel": 1,
      "note": 76,
      "start": 14.3606,
      "duration": 0.0976,
      "velocity": 116,
      "chip": "ym2612"
    },
    {
      "channel": 2,
      "note": 88,
      "start": 14.3612,
      "duration": 0.0973,
      "velocity": 116,
      "chip": "ym2612"
    },
    {
      "channel": 0,
      "note": 57,
      "start": 14.3995,
      "duration": 0.1176,
      "velocity": 88,
      "chip": "ym2612"
    },
    {
      "channel": 2,
      "note": 86,
      "start": 14.4978,
      "duration": 0.1369,
      "velocity": 116,
      "chip": "ym2612"
    },
    {
      "channel": 1,
      "note": 83,
      "start": 14.5177,
      "duration": 0.0973,
      "velocity": 116,
      "chip": "ym2612"
    },
    {
      "channel": 0,
      "note": 45,
      "start": 14.5567,
      "duration": 0.1172,
      "velocity": 88,
      "chip": "ym2612"
    },
    {
      "channel": 3,
      "note": 45,
      "start": 14.5571,
      "duration": 0.5875,
      "velocity": 118,
      "chip": "ym2612"
    },
    {
      "channel": 1,
      "note": 84,
      "start": 14.6546,
      "duration": 0.0976,
      "velocity": 116,
      "chip": "ym2612"
    },
    {
      "channel": 2,
      "note": 88,
      "start": 14.6553,
      "duration": 0.1362,
      "velocity": 116,
      "chip": "ym2612"
    },
    {
      "channel": 0,
      "note": 57,
      "start": 14.7134,
      "duration": 0.1173,
      "velocity": 88,
      "chip": "ym2612"
    },
    {
      "channel": 4,
      "note": 55,
      "start": 14.7137,
      "duration": 0.078,
      "velocity": 27,
      "chip": "ym2612"
    },
    {
      "channel": 1,
      "note": 86,
      "start": 14.8114,
      "duration": 0.0781,
      "velocity": 116,
      "chip": "ym2612"
    },
    {
      "channel": 2,
      "note": 89,
      "start": 14.8121,
      "duration": 0.1362,
      "velocity": 116,
      "chip": "ym2612"
    },
    {
      "channel": 0,
      "note": 45,
      "start": 14.8702,
      "duration": 0.1173,
      "velocity": 88,
      "chip": "ym2612"
    },
    {
      "channel": 4,
      "note": 55,
      "start": 14.8705,
      "duration": 0.078,
      "velocity": 27,
      "chip": "ym2612"
    },
    {
      "channel": 1,
      "note": 93,
      "start": 14.9882,
      "duration": 1.8417,
      "velocity": 116,
      "chip": "ym2612"
    },
    {
      "channel": 2,
      "note": 88,
      "start": 14.9888,
      "duration": 1.7822,
      "velocity": 116,
      "chip": "ym2612"
    },
    {
      "channel": 0,
      "note": 57,
      "start": 15.027,
      "duration": 0.1173,
      "velocity": 88,
      "chip": "ym2612"
    },
    {
      "channel": 0,
      "note": 48,
      "start": 15.1838,
      "duration": 0.1369,
      "velocity": 88,
      "chip": "ym2612"
    },
    {
      "channel": 0,
      "note": 52,
      "start": 15.3406,
      "duration": 0.1369,
      "velocity": 88,
      "chip": "ym2612"
    },
    {
      "channel": 0,
      "note": 55,
      "start": 15.4974,
      "duration": 0.1369,
      "velocity": 88,
      "chip": "ym2612"
    },
    {
      "channel": 3,
      "note": 45,
      "start": 15.4977,
      "duration": 0.5874,
      "velocity": 118,
      "chip": "ym2612"
    },
    {
      "channel": 0,
      "note": 57,
      "start": 15.6542,
      "duration": 0.1368,
      "velocity": 88,
      "chip": "ym2612"
    },
    {
      "channel": 0,
      "note": 60,
      "start": 15.811,
      "duration": 0.1172,
      "velocity": 88,
      "chip": "ym2612"
    },
    {
      "channel": 0,
      "note": 57,
      "start": 15.9678,
      "duration": 0.0976,
      "velocity": 88,
      "chip": "ym2612"
    },
    {
      "channel": 0,
      "note": 55,
      "start": 16.1245,
      "duration": 0.0781,
      "velocity": 88,
      "chip": "ym2612"
    },
    {
      "channel": 0,
      "note": 52,
      "start": 16.2813,
      "duration": 0.1173,
      "velocity": 88,
      "chip": "ym2612"
    },
    {
      "channel": 0,
      "note": 48,
      "start": 16.4382,
      "duration": 0.1369,
      "velocity": 88,
      "chip": "ym2612"
    },
    {
      "channel": 3,
      "note": 45,
      "start": 16.4385,
      "duration": 0.5876,
      "velocity": 118,
      "chip": "ym2612"
    },
    {
      "channel": 0,
      "note": 52,
      "start": 16.595,
      "duration": 0.0782,
      "velocity": 88,
      "chip": "ym2612"
    },
    {
      "channel": 4,
      "note": 55,
      "start": 16.5954,
      "duration": 0.0781,
      "velocity": 27,
      "chip": "ym2612"
    },
    {
      "channel": 0,
      "note": 55,
      "start": 16.7517,
      "duration": 0.0977,
      "velocity": 88,
      "chip": "ym2612"
    },
    {
      "channel": 4,
      "note": 55,
      "start": 16.7521,
      "duration": 0.078,
      "velocity": 27,
      "chip": "ym2612"
    },
    {
      "channel": 0,
      "note": 63,
      "start": 16.9086,
      "duration": 0.1172,
      "velocity": 88,
      "chip": "ym2612"
    },
    {
      "channel": 1,
      "note": 78,
      "start": 16.9092,
      "duration": 0.1362,
      "velocity": 116,
      "chip": "ym2612"
    },
    {
      "channel": 2,
      "note": 75,
      "start": 16.9188,
      "duration": 0.0876,
      "velocity": 93,
      "chip": "ym2612"
    },
    {
      "channel": 0,
      "note": 63,
      "start": 17.2218,
      "duration": 0.1176,
      "velocity": 88,
      "chip": "ym2612"
    },
    {
      "channel": 2,
      "note": 78,
      "start": 17.2418,
      "duration": 0.098,
      "velocity": 93,
      "chip": "ym2612"
    },
    {
      "channel": 1,
      "note": 82,
      "start": 17.2614,
      "duration": 0.0976,
      "velocity": 116,
      "chip": "ym2612"
    },
    {
      "channel": 0,
      "note": 51,
      "start": 17.3789,
      "duration": 0.1173,
      "velocity": 88,
      "chip": "ym2612"
    },
    {
      "channel": 3,
      "note": 45,
      "start": 17.3793,
      "duration": 0.5877,
      "velocity": 118,
      "chip": "ym2612"
    },
    {
      "channel": 0,
      "note": 63,
      "start": 17.5357,
      "duration": 0.1173,
      "velocity": 88,
      "chip": "ym2612"
    },
    {
      "channel": 1,
      "note": 87,
      "start": 17.5554,
      "duration": 0.078,
      "velocity": 116,
      "chip": "ym2612"
    },
    {
      "channel": 2,
      "note": 82,
      "start": 17.556,
      "duration": 0.0777,
      "velocity": 93,
      "chip": "ym2612"
    },
    {
      "channel": 0,
      "note": 51,
      "start": 17.6925,
      "duration": 0.1173,
      "velocity": 88,
      "chip": "ym2612"
    },
    {
      "channel": 1,
      "note": 90,
      "start": 17.8298,
      "duration": 0.078,
      "velocity": 116,
      "chip": "ym2612"
    },
    {
      "channel": 2,
      "note": 87,
      "start": 17.8304,
      "duration": 0.0777,
      "velocity": 93,
      "chip": "ym2612"
    },
    {
      "channel": 0,
      "note": 63,
      "start": 17.8493,
      "duration": 0.1173,
      "velocity": 88,
      "chip": "ym2612"
    },
    {
      "channel": 0,
      "note": 63,
      "start": 18.1627,
      "duration": 0.1176,
      "velocity": 88,
      "chip": "ym2612"
    },
    {
      "channel": 1,
      "note": 94,
      "start": 18.1633,
      "duration": 0.0777,
      "velocity": 116,
      "chip": "ym2612"
    },
    {
      "channel": 2,
      "note": 90,
      "start": 18.1639,
      "duration": 0.0967,
      "velocity": 93,
      "chip": "ym2612"
    },
    {
      "channel": 0,
      "note": 51,
      "start": 18.3197,
      "duration": 0.1173,
      "velocity": 88,
      "chip": "ym2612"
    },
    {
      "channel": 3,
      "note": 45,
      "start": 18.3201,
      "duration": 0.5883,
      "velocity": 118,
      "chip": "ym2612"
    },
    {
      "channel": 0,
      "note": 63,
      "start": 18.4765,
      "duration": 0.1173,
      "velocity": 88,
      "chip": "ym2612"
    },
    {
      "channel": 4,
      "note": 55,
      "start": 18.4769,
      "duration": 0.0777,
      "velocity": 27,
      "chip": "ym2612"
    },
    {
      "channel": 1,
      "note": 99,
      "start": 18.5158,
      "duration": 0.0976,
      "velocity": 116,
      "chip": "ym2612"
    },
    {
      "channel": 2,
      "note": 94,
      "start": 18.5164,
      "duration": 0.0777,
      "velocity": 93,
      "chip": "ym2612"
    },
    {
      "channel": 0,
      "note": 51,
      "start": 18.6333,
      "duration": 0.1173,
      "velocity": 88,
      "chip": "ym2612"
    },
    {
      "channel": 4,
      "note": 55,
      "start": 18.6336,
      "duration": 0.0778,
      "velocity": 27,
      "chip": "ym2612"
    },
    {
      "channel": 0,
      "note": 62,
      "start": 18.7902,
      "duration": 0.1171,
      "velocity": 88,
      "chip": "ym2612"
    },
    {
      "channel": 1,
      "note": 98,
      "start": 18.791,
      "duration": 0.0969,
      "velocity": 116,
      "chip": "ym2612"
    },
    {
      "channel": 1,
      "note": 99,
      "start": 18.9081,
      "duration": 0.1365,
      "velocity": 116,
      "chip": "ym2612"
    },
    {
      "channel": 1,
      "note": 101,
      "start": 19.0646,
      "duration": 0.1368,
      "velocity": 116,
      "chip": "ym2612"
    },
    {
      "channel": 0,
      "note": 62,
      "start": 19.1034,
      "duration": 0.1176,
      "velocity": 88,
      "chip": "ym2612"
    },
    {
      "channel": 1,
      "note": 98,
      "start": 19.2217,
      "duration": 0.1169,
      "velocity": 116,
      "chip": "ym2612"
    },
    {
      "channel": 0,
      "note": 50,
      "start": 19.2605,
      "duration": 0.1173,
      "velocity": 88,
      "chip": "ym2612"
    },
    {
      "channel": 3,
      "note": 45,
      "start": 19.2608,
      "duration": 0.5877,
      "velocity": 118,
      "chip": "ym2612"
    },
    {
      "channel": 1,
      "note": 94,
      "start": 19.3978,
      "duration": 0.1172,
      "velocity": 116,
      "chip": "ym2612"
    },
    {
      "channel": 0,
      "note": 62,
      "start": 19.4173,
      "duration": 0.1173,
      "velocity": 88,
      "chip": "ym2612"
    },
    {
      "channel": 1,
      "note": 92,
      "start": 19.5352,
      "duration": 0.117,
      "velocity": 116,
      "chip": "ym2612"
    },
    {
      "channel": 0,
      "note": 50,
      "start": 19.5741,
      "duration": 0.1173,
      "velocity": 88,
      "chip": "ym2612"
    },
    {
      "channel": 1,
      "note": 95,
      "start": 19.692,
      "duration": 0.117,
      "velocity": 116,
      "chip": "ym2612"
    },
    {
      "channel": 0,
      "note": 64,
      "start": 19.7309,
      "duration": 0.1173,
      "velocity": 88,
      "chip": "ym2612"
    },
    {
      "channel": 1,
      "note": 92,
      "start": 19.8289,
      "duration": 0.1172,
      "velocity": 116,
      "chip": "ym2612"
    },
    {
      "channel": 1,
      "note": 88,
      "start": 19.9857,
      "duration": 0.6073,
      "velocity": 116,
      "chip": "ym2612"
    },
    {
      "channel": 0,
      "note": 64,
      "start": 20.0442,
      "duration": 0.1176,
      "velocity": 88,
      "chip": "ym2612"
    },
    {
      "channel": 0,
      "note": 52,
      "start": 20.2014,
      "duration": 0.1172,
      "velocity": 88,
      "chip": "ym2612"
    },
    {
      "channel": 3,
      "note": 45,
      "start": 20.2017,
      "duration": 0.5876,
      "velocity": 118,
      "chip": "ym2612"
    },
    {
      "channel": 0,
      "note": 64,
      "start": 20.3581,
      "duration": 0.1173,
      "velocity": 88,
      "chip": "ym2612"
    },
    {
      "channel": 4,
      "note": 55,
      "start": 20.3584,
      "duration": 0.0778,
      "velocity": 27,
      "chip": "ym2612"
    },
    {
      "channel": 0,
      "note": 52,
      "start": 20.5149,
      "duration": 0.1173,
      "velocity": 88,
      "chip": "ym2612"
    },
    {
      "channel": 4,
      "note": 55,
      "start": 20.5153,
      "duration": 0.078,
      "velocity": 27,
      "chip": "ym2612"
    },
    {
      "channel": 0,
      "note": 57,
      "start": 20.6717,
      "duration": 0.1173,
      "velocity": 88,
      "chip": "ym2612"
    },
    {
      "channel": 2,
      "note": 88,
      "start": 20.6818,
      "duration": 0.4613,
      "velocity": 116,
      "chip": "ym2612"
    },
    {
      "channel": 1,
      "note": 84,
      "start": 20.7109,
      "duration": 0.4112,
      "velocity": 116,
      "chip": "ym2612"
    },
    {
      "channel": 0,
      "note": 57,
      "start": 20.985,
      "duration": 0.1176,
      "velocity": 88,
      "chip": "ym2612"
    },
    {
      "channel": 0,
      "note": 45,
      "start": 21.1421,
      "duration": 0.1172,
      "velocity": 88,
      "chip": "ym2612"
    },
    {
      "channel": 1,
      "note": 89,
      "start": 21.1427,
      "duration": 0.1169,
      "velocity": 116,
      "chip": "ym2612"
    },
    {
      "channel": 3,
      "note": 45,
      "start": 21.1434,
      "duration": 0.5867,
      "velocity": 118,
      "chip": "ym2612"
    },
    {
      "channel": 2,
      "note": 93,
      "start": 21.1617,
      "duration": 0.1374,
      "velocity": 116,
      "chip": "ym2612"
    },
    {
      "channel": 0,
      "note": 57,
      "start": 21.2989,
      "duration": 0.1172,
      "velocity": 88,
      "chip": "ym2612"
    },
    {
      "channel": 1,
      "note": 88,
      "start": 21.3185,
      "duration": 0.098,
      "velocity": 116,
      "chip": "ym2612"
    },
    {
      "channel": 2,
      "note": 91,
      "start": 21.3191,
      "duration": 0.1377,
      "velocity": 116,
      "chip": "ym2612"
    },
    {
      "channel": 0,
      "note": 45,
      "start": 21.4556,
      "duration": 0.1174,
      "velocity": 88,
      "chip": "ym2612"
    },
    {
      "channel": 1,
      "note": 86,
      "start": 21.4565,
      "duration": 0.1168,
      "velocity": 116,
      "chip": "ym2612"
    },
    {
      "channel": 2,
      "note": 89,
      "start": 21.4753,
      "duration": 0.1172,
      "velocity": 116,
      "chip": "ym2612"
    },
    {
      "channel": 0,
      "note": 57,
      "start": 21.6124,
      "duration": 0.1173,
      "velocity": 88,
      "chip": "ym2612"
    },
    {
      "channel": 2,
      "note": 91,
      "start": 21.6132,
      "duration": 0.1362,
      "velocity": 116,
      "chip": "ym2612"
    },
    {
      "channel": 1,
      "note": 88,
      "start": 21.6321,
      "duration": 0.1368,
      "velocity": 116,
      "chip": "ym2612"
    },
    {
      "channel": 2,
      "note": 89,
      "start": 21.7696,
      "duration": 0.1366,
      "velocity": 116,
      "chip": "ym2612"
    },
    {
      "channel": 1,
      "note": 83,
      "start": 21.7889,
      "duration": 0.1372,
      "velocity": 116,
      "chip": "ym2612"
    },
    {
      "channel": 0,
      "note": 57,
      "start": 21.9258,
      "duration": 0.1176,
      "velocity": 88,
      "chip": "ym2612"
    },
    {
      "channel": 2,
      "note": 88,
      "start": 21.9267,
      "duration": 0.0971,
      "velocity": 116,
      "chip": "ym2612"
    },
    {
      "channel": 1,
      "note": 76,
      "start": 21.9457,
      "duration": 0.1564,
      "velocity": 116,
      "chip": "ym2612"
    },
    {
      "channel": 0,
      "note": 45,
      "start": 22.0829,
      "duration": 0.1172,
      "velocity": 88,
      "chip": "ym2612"
    },
    {
      "channel": 2,
      "note": 86,
      "start": 22.0836,
      "duration": 0.1168,
      "velocity": 116,
      "chip": "ym2612"
    },
    {
      "channel": 3,
      "note": 45,
      "start": 22.0839,
      "duration": 0.587,
      "velocity": 118,
      "chip": "ym2612"
    },
    {
      "channel": 1,
      "note": 83,
      "start": 22.1221,
      "duration": 0.1176,
      "velocity": 116,
      "chip": "ym2612"
    },
    {
      "channel": 2,
      "note": 88,
      "start": 22.2201,
      "duration": 0.1173,
      "velocity": 116,
      "chip": "ym2612"
    },
    {
      "channel": 0,
      "note": 45,
      "start": 22.2394,
      "duration": 0.1176,
      "velocity": 88,
      "chip": "ym2612"
    },
    {
      "channel": 4,
      "note": 55,
      "start": 22.2401,
      "duration": 0.0777,
      "velocity": 27,
      "chip": "ym2612"
    },
    {
      "channel": 1,
      "note": 84,
      "start": 22.2593,
      "duration": 0.1173,
      "velocity": 116,
      "chip": "ym2612"
    },
    {
      "channel": 2,
      "note": 89,
      "start": 22.3576,
      "duration": 0.1561,
      "velocity": 116,
      "chip": "ym2612"
    },
    {
      "channel": 1,
      "note": 86,
      "start": 22.3965,
      "duration": 0.078,
      "velocity": 116,
      "chip": "ym2612"
    },
    {
      "channel": 4,
      "note": 55,
      "start": 22.3969,
      "duration": 0.078,
      "velocity": 27,
      "chip": "ym2612"
    },
    {
      "channel": 2,
      "note": 88,
      "start": 22.5337,
      "duration": 1.5091,
      "velocity": 116,
      "chip": "ym2612"
    },
    {
      "channel": 0,
      "note": 57,
      "start": 22.5532,
      "duration": 0.1173,
      "velocity": 88,
      "chip": "ym2612"
    },
    {
      "channel": 1,
      "note": 93,
      "start": 22.5539,
      "duration": 1.7826,
      "velocity": 116,
      "chip": "ym2612"
    },
    {
      "channel": 0,
      "note": 48,
      "start": 22.71,
      "duration": 0.1369,
      "velocity": 88,
      "chip": "ym2612"
    },
    {
      "channel": 0,
      "note": 50,
      "start": 22.8668,
      "duration": 0.0977,
      "velocity": 88,
      "chip": "ym2612"
    },
    {
      "channel": 0,
      "note": 52,
      "start": 23.0237,
      "duration": 0.1173,
      "velocity": 88,
      "chip": "ym2612"
    },
    {
      "channel": 3,
      "note": 45,
      "start": 23.024,
      "duration": 0.5874,
      "velocity": 118,
      "chip": "ym2612"
    },
    {
      "channel": 0,
      "note": 57,
      "start": 23.1805,
      "duration": 0.078,
      "velocity": 88,
      "chip": "ym2612"
    },
    {
      "channel": 0,
      "note": 60,
      "start": 23.3373,
      "duration": 0.078,
      "velocity": 88,
      "chip": "ym2612"
    },
    {
      "channel": 0,
      "note": 62,
      "start": 23.4941,
      "duration": 0.0781,
      "velocity": 88,
      "chip": "ym2612"
    },
    {
      "channel": 0,
      "note": 63,
      "start": 23.6509,
      "duration": 0.078,
      "velocity": 88,
      "chip": "ym2612"
    },
    {
      "channel": 0,
      "note": 64,
      "start": 23.8076,
      "duration": 0.0781,
      "velocity": 88,
      "chip": "ym2612"
    },
    {
      "channel": 0,
      "note": 67,
      "start": 23.9644,
      "duration": 0.0781,
      "velocity": 88,
      "chip": "ym2612"
    },
    {
      "channel": 3,
      "note": 45,
      "start": 23.9648,
      "duration": 0.5879,
      "velocity": 118,
      "chip": "ym2612"
    },
    {
      "channel": 4,
      "note": 55,
      "start": 24.121,
      "duration": 0.0784,
      "velocity": 27,
      "chip": "ym2612"
    },
    {
      "channel": 4,
      "note": 55,
      "start": 24.2777,
      "duration": 0.0785,
      "velocity": 27,
      "chip": "ym2612"
    },
    {
      "channel": 0,
      "note": 63,
      "start": 24.4349,
      "duration": 0.1172,
      "velocity": 88,
      "chip": "ym2612"
    },
    {
      "channel": 1,
      "note": 78,
      "start": 24.4544,
      "duration": 0.1172,
      "velocity": 116,
      "chip": "ym2612"
    },
    {
      "channel": 2,
      "note": 75,
      "start": 24.4642,
      "duration": 0.0882,
      "velocity": 93,
      "chip": "ym2612"
    },
    {
      "channel": 0,
      "note": 63,
      "start": 24.7481,
      "duration": 0.1176,
      "velocity": 88,
      "chip": "ym2612"
    },
    {
      "channel": 1,
      "note": 82,
      "start": 24.7876,
      "duration": 0.0976,
      "velocity": 116,
      "chip": "ym2612"
    },
    {
      "channel": 2,
      "note": 78,
      "start": 24.7883,
      "duration": 0.0973,
      "velocity": 93,
      "chip": "ym2612"
    },
    {
      "channel": 0,
      "note": 51,
      "start": 24.9052,
      "duration": 0.1173,
      "velocity": 88,
      "chip": "ym2612"
    },
    {
      "channel": 3,
      "note": 45,
      "start": 24.9055,
      "duration": 0.588,
      "velocity": 118,
      "chip": "ym2612"
    },
    {
      "channel": 0,
      "note": 63,
      "start": 25.062,
      "duration": 0.1173,
      "velocity": 88,
      "chip": "ym2612"
    },
    {
      "channel": 1,
      "note": 87,
      "start": 25.0817,
      "duration": 0.0979,
      "velocity": 116,
      "chip": "ym2612"
    },
    {
      "channel": 2,
      "note": 82,
      "start": 25.0823,
      "duration": 0.0976,
      "velocity": 93,
      "chip": "ym2612"
    },
    {
      "channel": 0,
      "note": 51,
      "start": 25.2188,
      "duration": 0.1173,
      "velocity": 88,
      "chip": "ym2612"
    },
    {
      "channel": 0,
      "note": 63,
      "start": 25.3756,
      "duration": 0.1172,
      "velocity": 88,
      "chip": "ym2612"
    },
    {
      "channel": 1,
      "note": 90,
      "start": 25.3763,
      "duration": 0.1168,
      "velocity": 116,
      "chip": "ym2612"
    },
    {
      "channel": 2,
      "note": 87,
      "start": 25.3953,
      "duration": 0.078,
      "velocity": 93,
      "chip": "ym2612"
    },
    {
      "channel": 0,
      "note": 63,
      "start": 25.6889,
      "duration": 0.1176,
      "velocity": 88,
      "chip": "ym2612"
    },
    {
      "channel": 1,
      "note": 94,
      "start": 25.7088,
      "duration": 0.0585,
      "velocity": 116,
      "chip": "ym2612"
    },
    {
      "channel": 2,
      "note": 90,
      "start": 25.7095,
      "duration": 0.0774,
      "velocity": 93,
      "chip": "ym2612"
    },
    {
      "channel": 0,
      "note": 51,
      "start": 25.8461,
      "duration": 0.1172,
      "velocity": 88,
      "chip": "ym2612"
    },
    {
      "channel": 3,
      "note": 45,
      "start": 25.8464,
      "duration": 0.5876,
      "velocity": 118,
      "chip": "ym2612"
    },
    {
      "channel": 0,
      "note": 63,
      "start": 26.0028,
      "duration": 0.1173,
      "velocity": 88,
      "chip": "ym2612"
    },
    {
      "channel": 4,
      "note": 55,
      "start": 26.0032,
      "duration": 0.0777,
      "velocity": 27,
      "chip": "ym2612"
    },
    {
      "channel": 1,
      "note": 99,
      "start": 26.0224,
      "duration": 0.1173,
      "velocity": 116,
      "chip": "ym2612"
    },
    {
      "channel": 2,
      "note": 94,
      "start": 26.0232,
      "duration": 0.1169,
      "velocity": 93,
      "chip": "ym2612"
    },
    {
      "channel": 0,
      "note": 51,
      "start": 26.1596,
      "duration": 0.1173,
      "velocity": 88,
      "chip": "ym2612"
    },
    {
      "channel": 4,
      "note": 55,
      "start": 26.1599,
      "duration": 0.0778,
      "velocity": 27,
      "chip": "ym2612"
    },
    {
      "channel": 0,
      "note": 62,
      "start": 26.3164,
      "duration": 0.1173,
      "velocity": 88,
      "chip": "ym2612"
    },
    {
      "channel": 1,
      "note": 98,
      "start": 26.3361,
      "duration": 0.1369,
      "velocity": 116,
      "chip": "ym2612"
    },
    {
      "channel": 1,
      "note": 99,
      "start": 26.4928,
      "duration": 0.1372,
      "velocity": 116,
      "chip": "ym2612"
    },
    {
      "channel": 0,
      "note": 62,
      "start": 26.6297,
      "duration": 0.1176,
      "velocity": 88,
      "chip": "ym2612"
    },
    {
      "channel": 1,
      "note": 101,
      "start": 26.6497,
      "duration": 0.1173,
      "velocity": 116,
      "chip": "ym2612"
    },
    {
      "channel": 0,
      "note": 50,
      "start": 26.7868,
      "duration": 0.1173,
      "velocity": 88,
      "chip": "ym2612"
    },
    {
      "channel": 1,
      "note": 98,
      "start": 26.7875,
      "duration": 0.1169,
      "velocity": 116,
      "chip": "ym2612"
    },
    {
      "channel": 3,
      "note": 45,
      "start": 26.7877,
      "duration": 0.5871,
      "velocity": 118,
      "chip": "ym2612"
    },
    {
      "channel": 0,
      "note": 62,
      "start": 26.9436,
      "duration": 0.1173,
      "velocity": 88,
      "chip": "ym2612"
    },
    {
      "channel": 1,
      "note": 94,
      "start": 26.9632,
      "duration": 0.1375,
      "velocity": 116,
      "chip": "ym2612"
    },
    {
      "channel": 0,
      "note": 50,
      "start": 27.1004,
      "duration": 0.1173,
      "velocity": 88,
      "chip": "ym2612"
    },
    {
      "channel": 1,
      "note": 92,
      "start": 27.12,
      "duration": 0.1172,
      "velocity": 116,
      "chip": "ym2612"
    },
    {
      "channel": 0,
      "note": 64,
      "start": 27.2572,
      "duration": 0.1173,
      "velocity": 88,
      "chip": "ym2612"
    },
    {
      "channel": 1,
      "note": 95,
      "start": 27.2578,
      "duration": 0.1363,
      "velocity": 116,
      "chip": "ym2612"
    },
    {
      "channel": 1,
      "note": 92,
      "start": 27.414,
      "duration": 0.1173,
      "velocity": 116,
      "chip": "ym2612"
    },
    {
      "channel": 1,
      "note": 88,
      "start": 27.5512,
      "duration": 0.5876,
      "velocity": 116,
      "chip": "ym2612"
    },
    {
      "channel": 0,
      "note": 64,
      "start": 27.5705,
      "duration": 0.1176,
      "velocity": 88,
      "chip": "ym2612"
    },
    {
      "channel": 0,
      "note": 52,
      "start": 27.7276,
      "duration": 0.1172,
      "velocity": 88,
      "chip": "ym2612"
    },
    {
      "channel": 3,
      "note": 45,
      "start": 27.7279,
      "duration": 0.5873,
      "velocity": 118,
      "chip": "ym2612"
    },
    {
      "channel": 0,
      "note": 64,
      "start": 27.8844,
      "duration": 0.1172,
      "velocity": 88,
      "chip": "ym2612"
    },
    {
      "channel": 4,
      "note": 55,
      "start": 27.8847,
      "duration": 0.0778,
      "velocity": 27,
      "chip": "ym2612"
    },
    {
      "channel": 0,
      "note": 52,
      "start": 28.0411,
      "duration": 0.1173,
      "velocity": 88,
      "chip": "ym2612"
    },
    {
      "channel": 4,
      "note": 55,
      "start": 28.0415,
      "duration": 0.0777,
      "velocity": 27,
      "chip": "ym2612"
    },
    {
      "channel": 0,
      "note": 57,
      "start": 28.198,
      "duration": 0.1565,
      "velocity": 88,
      "chip": "ym2612"
    },
    {
      "channel": 2,
      "note": 88,
      "start": 28.2081,
      "duration": 0.4407,
      "velocity": 116,
      "chip": "ym2612"
    },
    {
      "channel": 1,
      "note": 84,
      "start": 28.2176,
      "duration": 0.4309,
      "velocity": 116,
      "chip": "ym2612"
    },
    {
      "channel": 0,
      "note": 57,
      "start": 28.5112,
      "duration": 0.1176,
      "velocity": 88,
      "chip": "ym2612"
    },
    {
      "channel": 0,
      "note": 45,
      "start": 28.6684,
      "duration": 0.1172,
      "velocity": 88,
      "chip": "ym2612"
    },
    {
      "channel": 1,
      "note": 89,
      "start": 28.669,
      "duration": 0.1169,
      "velocity": 116,
      "chip": "ym2612"
    },
    {
      "channel": 2,
      "note": 93,
      "start": 28.6696,
      "duration": 0.1356,
      "velocity": 116,
      "chip": "ym2612"
    },
    {
      "channel": 3,
      "note": 45,
      "start": 28.67,
      "duration": 0.5868,
      "velocity": 118,
      "chip": "ym2612"
    },
    {
      "channel": 0,
      "note": 57,
      "start": 28.8252,
      "duration": 0.1173,
      "velocity": 88,
      "chip": "ym2612"
    },
    {
      "channel": 2,
      "note": 91,
      "start": 28.8258,
      "duration": 0.1369,
      "velocity": 116,
      "chip": "ym2612"
    },
    {
      "channel": 1,
      "note": 88,
      "start": 28.8644,
      "duration": 0.0586,
      "velocity": 116,
      "chip": "ym2612"
    },
    {
      "channel": 1,
      "note": 86,
      "start": 28.9624,
      "duration": 0.0977,
      "velocity": 116,
      "chip": "ym2612"
    },
    {
      "channel": 0,
      "note": 45,
      "start": 28.9819,
      "duration": 0.1173,
      "velocity": 88,
      "chip": "ym2612"
    },
    {
      "channel": 2,
      "note": 89,
      "start": 29.0016,
      "duration": 0.1382,
      "velocity": 116,
      "chip": "ym2612"
    },
    {
      "channel": 0,
      "note": 57,
      "start": 29.1387,
      "duration": 0.1173,
      "velocity": 88,
      "chip": "ym2612"
    },
    {
      "channel": 1,
      "note": 88,
      "start": 29.1394,
      "duration": 0.117,
      "velocity": 116,
      "chip": "ym2612"
    },
    {
      "channel": 2,
      "note": 91,
      "start": 29.1584,
      "duration": 0.1375,
      "velocity": 116,
      "chip": "ym2612"
    },
    {
      "channel": 1,
      "note": 83,
      "start": 29.2956,
      "duration": 0.1172,
      "velocity": 116,
      "chip": "ym2612"
    },
    {
      "channel": 2,
      "note": 89,
      "start": 29.3152,
      "duration": 0.1172,
      "velocity": 116,
      "chip": "ym2612"
    },
    {
      "channel": 0,
      "note": 57,
      "start": 29.452,
      "duration": 0.1176,
      "velocity": 88,
      "chip": "ym2612"
    },
    {
      "channel": 1,
      "note": 76,
      "start": 29.4527,
      "duration": 0.1366,
      "velocity": 116,
      "chip": "ym2612"
    },
    {
      "channel": 2,
      "note": 88,
      "start": 29.4533,
      "duration": 0.0772,
      "velocity": 116,
      "chip": "ym2612"
    },
    {
      "channel": 0,
      "note": 45,
      "start": 29.6091,
      "duration": 0.1173,
      "velocity": 88,
      "chip": "ym2612"
    },
    {
      "channel": 1,
      "note": 83,
      "start": 29.6097,
      "duration": 0.0971,
      "velocity": 116,
      "chip": "ym2612"
    },
    {
      "channel": 2,
      "note": 86,
      "start": 29.6104,
      "duration": 0.1169,
      "velocity": 116,
      "chip": "ym2612"
    },
    {
      "channel": 3,
      "note": 45,
      "start": 29.6107,
      "duration": 0.5668,
      "velocity": 118,
      "chip": "ym2612"
    },
    {
      "channel": 1,
      "note": 84,
      "start": 29.7271,
      "duration": 0.1173,
      "velocity": 116,
      "chip": "ym2612"
    },
    {
      "channel": 2,
      "note": 88,
      "start": 29.7465,
      "duration": 0.1181,
      "velocity": 116,
      "chip": "ym2612"
    },
    {
      "channel": 0,
      "note": 57,
      "start": 29.766,
      "duration": 0.0976,
      "velocity": 88,
      "chip": "ym2612"
    },
    {
      "channel": 4,
      "note": 55,
      "start": 29.7663,
      "duration": 0.0778,
      "velocity": 27,
      "chip": "ym2612"
    },
    {
      "channel": 1,
      "note": 86,
      "start": 29.8642,
      "duration": 0.0974,
      "velocity": 116,
      "chip": "ym2612"
    },
    {
      "channel": 2,
      "note": 89,
      "start": 29.8836,
      "duration": 0.0976,
      "velocity": 116,
      "chip": "ym2612"
    },
    {
      "channel": 0,
      "note": 45,
      "start": 29.9031,
      "duration": 0.1173,
      "velocity": 88,
      "chip": "ym2612"
    },
    {
      "channel": 4,
      "note": 55,
      "start": 29.9035,
      "duration": 0.078,
      "velocity": 27,
      "chip": "ym2612"
    },
    {
      "channel": 1,
      "note": 84,
      "start": 30.021,
      "duration": 0.4306,
      "velocity": 116,
      "chip": "ym2612"
    },
    {
      "channel": 2,
      "note": 88,
      "start": 30.0217,
      "duration": 0.4495,
      "velocity": 116,
      "chip": "ym2612"
    },
    {
      "channel": 0,
      "note": 57,
      "start": 30.0599,
      "duration": 0.1173,
      "velocity": 88,
      "chip": "ym2612"
    },
    {
      "channel": 0,
      "note": 57,
      "start": 30.3733,
      "duration": 0.1175,
      "velocity": 88,
      "chip": "ym2612"
    },
    {
      "channel": 1,
      "note": 89,
      "start": 30.4915,
      "duration": 0.0973,
      "velocity": 116,
      "chip": "ym2612"
    },
    {
      "channel": 2,
      "note": 93,
      "start": 30.4921,
      "duration": 0.1558,
      "velocity": 116,
      "chip": "ym2612"
    },
    {
      "channel": 0,
      "note": 45,
      "start": 30.5303,
      "duration": 0.1173,
      "velocity": 88,
      "chip": "ym2612"
    },
    {
      "channel": 3,
      "note": 45,
      "start": 30.5307,
      "duration": 0.5889,
      "velocity": 118,
      "chip": "ym2612"
    },
    {
      "channel": 1,
      "note": 88,
      "start": 30.6676,
      "duration": 0.0585,
      "velocity": 116,
      "chip": "ym2612"
    },
    {
      "channel": 2,
      "note": 91,
      "start": 30.6682,
      "duration": 0.1371,
      "velocity": 116,
      "chip": "ym2612"
    },
    {
      "channel": 0,
      "note": 57,
      "start": 30.6871,
      "duration": 0.1172,
      "velocity": 88,
      "chip": "ym2612"
    },
    {
      "channel": 1,
      "note": 86,
      "start": 30.8051,
      "duration": 0.0777,
      "velocity": 116,
      "chip": "ym2612"
    },
    {
      "channel": 2,
      "note": 89,
      "start": 30.8244,
      "duration": 0.1378,
      "velocity": 116,
      "chip": "ym2612"
    },
    {
      "channel": 0,
      "note": 45,
      "start": 30.8439,
      "duration": 0.1173,
      "velocity": 88,
      "chip": "ym2612"
    },
    {
      "channel": 1,
      "note": 88,
      "start": 30.9618,
      "duration": 0.117,
      "velocity": 116,
      "chip": "ym2612"
    },
    {
      "channel": 2,
      "note": 91,
      "start": 30.9812,
      "duration": 0.1172,
      "velocity": 116,
      "chip": "ym2612"
    },
    {
      "channel": 0,
      "note": 57,
      "start": 31.0007,
      "duration": 0.1172,
      "velocity": 88,
      "chip": "ym2612"
    },
    {
      "channel": 1,
      "note": 83,
      "start": 31.1186,
      "duration": 0.117,
      "velocity": 116,
      "chip": "ym2612"
    },
    {
      "channel": 2,
      "note": 89,
      "start": 31.1193,
      "duration": 0.1359,
      "velocity": 116,
      "chip": "ym2612"
    },
    {
      "channel": 1,
      "note": 76,
      "start": 31.2751,
      "duration": 0.1568,
      "velocity": 116,
      "chip": "ym2612"
    },
    {
      "channel": 2,
      "note": 88,
      "start": 31.2758,
      "duration": 0.0971,
      "velocity": 116,
      "chip": "ym2612"
    },
    {
      "channel": 0,
      "note": 57,
      "start": 31.314,
      "duration": 0.1176,
      "velocity": 88,
      "chip": "ym2612"
    },
    {
      "channel": 2,
      "note": 86,
      "start": 31.4326,
      "duration": 0.1167,
      "velocity": 116,
      "chip": "ym2612"
    },
    {
      "channel": 1,
      "note": 83,
      "start": 31.4516,
      "duration": 0.1371,
      "velocity": 116,
      "chip": "ym2612"
    },
    {
      "channel": 0,
      "note": 64,
      "start": 31.4711,
      "duration": 0.1172,
      "velocity": 88,
      "chip": "ym2612"
    },
    {
      "channel": 3,
      "note": 45,
      "start": 31.4714,
      "duration": 0.5877,
      "velocity": 118,
      "chip": "ym2612"
    },
    {
      "channel": 2,
      "note": 88,
      "start": 31.5691,
      "duration": 0.1565,
      "velocity": 116,
      "chip": "ym2612"
    },
    {
      "channel": 1,
      "note": 84,
      "start": 31.6083,
      "duration": 0.1371,
      "velocity": 116,
      "chip": "ym2612"
    },
    {
      "channel": 0,
      "note": 57,
      "start": 31.6279,
      "duration": 0.1173,
      "velocity": 88,
      "chip": "ym2612"
    },
    {
      "channel": 4,
      "note": 55,
      "start": 31.6282,
      "duration": 0.0778,
      "velocity": 27,
      "chip": "ym2612"
    },
    {
      "channel": 1,
      "note": 86,
      "start": 31.7461,
      "duration": 0.1167,
      "velocity": 116,
      "chip": "ym2612"
    },
    {
      "channel": 2,
      "note": 89,
      "start": 31.7468,
      "duration": 0.1163,
      "velocity": 116,
      "chip": "ym2612"
    },
    {
      "channel": 0,
      "note": 59,
      "start": 31.7847,
      "duration": 0.1172,
      "velocity": 88,
      "chip": "ym2612"
    },
    {
      "channel": 4,
      "note": 55,
      "start": 31.785,
      "duration": 0.0784,
      "velocity": 27,
      "chip": "ym2612"
    },
    {
      "channel": 1,
      "note": 84,
      "start": 31.9219,
      "duration": 0.0198,
      "velocity": 116,
      "chip": "ym2612"
    },
    {
      "channel": 0,
      "note": 60,
      "start": 31.9415,
      "duration": 0.1173,
      "velocity": 88,
      "chip": "ym2612"
    },
    {
      "channel": 1,
      "note": 84,
      "start": 31.9608,
      "duration": 0.4119,
      "velocity": 116,
      "chip": "ym2612"
    },
    {
      "channel": 2,
      "note": 89,
      "start": 31.9611,
      "duration": 0.4309,
      "velocity": 116,
      "chip": "ym2612"
    },
    {
      "channel": 0,
      "note": 60,
      "start": 32.2548,
      "duration": 0.1176,
      "velocity": 88,
      "chip": "ym2612"
    },
    {
      "channel": 0,
      "note": 48,
      "start": 32.4119,
      "duration": 0.1173,
      "velocity": 88,
      "chip": "ym2612"
    },
    {
      "channel": 1,
      "note": 79,
      "start": 32.4125,
      "duration": 0.1363,
      "velocity": 116,
      "chip": "ym2612"
    },
    {
      "channel": 2,
      "note": 84,
      "start": 32.4132,
      "duration": 0.1559,
      "velocity": 116,
      "chip": "ym2612"
    },
    {
      "channel": 3,
      "note": 45,
      "start": 32.4135,
      "duration": 0.5864,
      "velocity": 118,
      "chip": "ym2612"
    },
    {
      "channel": 1,
      "note": 84,
      "start": 32.5494,
      "duration": 0.0778,
      "velocity": 116,
      "chip": "ym2612"
    },
    {
      "channel": 0,
      "note": 60,
      "start": 32.5687,
      "duration": 0.1172,
      "velocity": 88,
      "chip": "ym2612"
    },
    {
      "channel": 2,
      "note": 89,
      "start": 32.5883,
      "duration": 0.0985,
      "velocity": 116,
      "chip": "ym2612"
    },
    {
      "channel": 1,
      "note": 89,
      "start": 32.6866,
      "duration": 0.0973,
      "velocity": 116,
      "chip": "ym2612"
    },
    {
      "channel": 0,
      "note": 48,
      "start": 32.7255,
      "duration": 0.1173,
      "velocity": 88,
      "chip": "ym2612"
    },
    {
      "channel": 2,
      "note": 94,
      "start": 32.7261,
      "duration": 0.1169,
      "velocity": 116,
      "chip": "ym2612"
    },
    {
      "channel": 1,
      "note": 88,
      "start": 32.8627,
      "duration": 0.8424,
      "velocity": 116,
      "chip": "ym2612"
    },
    {
      "channel": 0,
      "note": 60,
      "start": 32.8823,
      "duration": 0.1173,
      "velocity": 88,
      "chip": "ym2612"
    },
    {
      "channel": 2,
      "note": 91,
      "start": 32.902,
      "duration": 0.7646,
      "velocity": 116,
      "chip": "ym2612"
    },
    {
      "channel": 0,
      "note": 60,
      "start": 33.1955,
      "duration": 0.1176,
      "velocity": 88,
      "chip": "ym2612"
    },
    {
      "channel": 0,
      "note": 48,
      "start": 33.3527,
      "duration": 0.1173,
      "velocity": 88,
      "chip": "ym2612"
    },
    {
      "channel": 3,
      "note": 45,
      "start": 33.353,
      "duration": 0.5882,
      "velocity": 118,
      "chip": "ym2612"
    },
    {
      "channel": 0,
      "note": 60,
      "start": 33.5095,
      "duration": 0.1173,
      "velocity": 88,
      "chip": "ym2612"
    },
    {
      "channel": 4,
      "note": 55,
      "start": 33.5098,
      "duration": 0.0777,
      "velocity": 27,
      "chip": "ym2612"
    },
    {
      "channel": 0,
      "note": 48,
      "start": 33.6663,
      "duration": 0.1173,
      "velocity": 88,
      "chip": "ym2612"
    },
    {
      "channel": 4,
      "note": 55,
      "start": 33.667,
      "duration": 0.0774,
      "velocity": 27,
      "chip": "ym2612"
    },
    {
      "channel": 1,
      "note": 89,
      "start": 33.7842,
      "duration": 0.1365,
      "velocity": 116,
      "chip": "ym2612"
    },
    {
      "channel": 0,
      "note": 65,
      "start": 33.8232,
      "duration": 0.1172,
      "velocity": 88,
      "chip": "ym2612"
    },
    {
      "channel": 2,
      "note": 93,
      "start": 33.8238,
      "duration": 0.1362,
      "velocity": 116,
      "chip": "ym2612"
    },
    {
      "channel": 1,
      "note": 77,
      "start": 33.941,
      "duration": 0.1366,
      "velocity": 116,
      "chip": "ym2612"
    },
    {
      "channel": 2,
      "note": 84,
      "start": 33.9995,
      "duration": 0.1173,
      "velocity": 116,
      "chip": "ym2612"
    },
    {
      "channel": 1,
      "note": 81,
      "start": 34.0975,
      "duration": 0.1172,
      "velocity": 116,
      "chip": "ym2612"
    },
    {
      "channel": 0,
      "note": 65,
      "start": 34.1364,
      "duration": 0.1176,
      "velocity": 88,
      "chip": "ym2612"
    },
    {
      "channel": 2,
      "note": 89,
      "start": 34.1563,
      "duration": 0.1374,
      "velocity": 116,
      "chip": "ym2612"
    },
    {
      "channel": 1,
      "note": 84,
      "start": 34.2546,
      "duration": 0.117,
      "velocity": 116,
      "chip": "ym2612"
    },
    {
      "channel": 0,
      "note": 53,
      "start": 34.2934,
      "duration": 0.1173,
      "velocity": 88,
      "chip": "ym2612"
    },
    {
      "channel": 3,
      "note": 45,
      "start": 34.2941,
      "duration": 0.5877,
      "velocity": 118,
      "chip": "ym2612"
    },
    {
      "channel": 2,
      "note": 93,
      "start": 34.3131,
      "duration": 0.1375,
      "velocity": 116,
      "chip": "ym2612"
    },
    {
      "channel": 1,
      "note": 89,
      "start": 34.3915,
      "duration": 0.1173,
      "velocity": 116,
      "chip": "ym2612"
    },
    {
      "channel": 0,
      "note": 65,
      "start": 34.4502,
      "duration": 0.1173,
      "velocity": 88,
      "chip": "ym2612"
    },
    {
      "channel": 2,
      "note": 96,
      "start": 34.4699,
      "duration": 0.1375,
      "velocity": 116,
      "chip": "ym2612"
    },
    {
      "channel": 1,
      "note": 93,
      "start": 34.5287,
      "duration": 0.1172,
      "velocity": 116,
      "chip": "ym2612"
    },
    {
      "channel": 0,
      "note": 53,
      "start": 34.6071,
      "duration": 0.1173,
      "velocity": 88,
      "chip": "ym2612"
    },
    {
      "channel": 2,
      "note": 101,
      "start": 34.6267,
      "duration": 0.1375,
      "velocity": 116,
      "chip": "ym2612"
    },
    {
      "channel": 1,
      "note": 91,
      "start": 34.7051,
      "duration": 0.1763,
      "velocity": 116,
      "chip": "ym2612"
    },
    {
      "channel": 0,
      "note": 67,
      "start": 34.7639,
      "duration": 0.1173,
      "velocity": 88,
      "chip": "ym2612"
    },
    {
      "channel": 2,
      "note": 95,
      "start": 34.8031,
      "duration": 0.1564,
      "velocity": 116,
      "chip": "ym2612"
    },
    {
      "channel": 1,
      "note": 83,
      "start": 34.9011,
      "duration": 0.1172,
      "velocity": 116,
      "chip": "ym2612"
    },
    {
      "channel": 2,
      "note": 86,
      "start": 34.9795,
      "duration": 0.0979,
      "velocity": 116,
      "chip": "ym2612"
    },
    {
      "channel": 1,
      "note": 86,
      "start": 35.0383,
      "duration": 0.1172,
      "velocity": 116,
      "chip": "ym2612"
    },
    {
      "channel": 0,
      "note": 67,
      "start": 35.0771,
      "duration": 0.1176,
      "velocity": 88,
      "chip": "ym2612"
    },
    {
      "channel": 2,
      "note": 91,
      "start": 35.1363,
      "duration": 0.1369,
      "velocity": 116,
      "chip": "ym2612"
    },
    {
      "channel": 0,
      "note": 55,
      "start": 35.2343,
      "duration": 0.1173,
      "velocity": 88,
      "chip": "ym2612"
    },
    {
      "channel": 1,
      "note": 91,
      "start": 35.2349,
      "duration": 0.1362,
      "velocity": 116,
      "chip": "ym2612"
    },
    {
      "channel": 3,
      "note": 45,
      "start": 35.2352,
      "duration": 0.587,
      "velocity": 118,
      "chip": "ym2612"
    },
    {
      "channel": 2,
      "note": 95,
      "start": 35.2931,
      "duration": 0.1173,
      "velocity": 116,
      "chip": "ym2612"
    },
    {
      "channel": 1,
      "note": 95,
      "start": 35.3718,
      "duration": 0.1169,
      "velocity": 116,
      "chip": "ym2612"
    },
    {
      "channel": 0,
      "note": 67,
      "start": 35.3911,
      "duration": 0.1172,
      "velocity": 88,
      "chip": "ym2612"
    },
    {
      "channel": 4,
      "note": 55,
      "start": 35.3915,
      "duration": 0.0777,
      "velocity": 27,
      "chip": "ym2612"
    },
    {
      "channel": 2,
      "note": 98,
      "start": 35.4303,
      "duration": 0.1179,
      "velocity": 116,
      "chip": "ym2612"
    },
    {
      "channel": 1,
      "note": 98,
      "start": 35.509,
      "duration": 0.1366,
      "velocity": 116,
      "chip": "ym2612"
    },
    {
      "channel": 0,
      "note": 55,
      "start": 35.5478,
      "duration": 0.1173,
      "velocity": 88,
      "chip": "ym2612"
    },
    {
      "channel": 4,
      "note": 55,
      "start": 35.5485,
      "duration": 0.0775,
      "velocity": 27,
      "chip": "ym2612"
    },
    {
      "channel": 2,
      "note": 103,
      "start": 35.5675,
      "duration": 0.1172,
      "velocity": 116,
      "chip": "ym2612"
    },
    {
      "channel": 0,
      "note": 60,
      "start": 35.7046,
      "duration": 0.1173,
      "velocity": 88,
      "chip": "ym2612"
    },
    {
      "channel": 2,
      "note": 89,
      "start": 35.7439,
      "duration": 0.4315,
      "velocity": 116,
      "chip": "ym2612"
    },
    {
      "channel": 1,
      "note": 84,
      "start": 35.7635,
      "duration": 0.4309,
      "velocity": 116,
      "chip": "ym2612"
    },
    {
      "channel": 0,
      "note": 60,
      "start": 36.0179,
      "duration": 0.1176,
      "velocity": 88,
      "chip": "ym2612"
    },
    {
      "channel": 0,
      "note": 48,
      "start": 36.1751,
      "duration": 0.1172,
      "velocity": 88,
      "chip": "ym2612"
    },
    {
      "channel": 3,
      "note": 45,
      "start": 36.1757,
      "duration": 0.587,
      "velocity": 118,
      "chip": "ym2612"
    },
    {
      "channel": 2,
      "note": 84,
      "start": 36.195,
      "duration": 0.1375,
      "velocity": 116,
      "chip": "ym2612"
    },
    {
      "channel": 1,
      "note": 79,
      "start": 36.2142,
      "duration": 0.1179,
      "velocity": 116,
      "chip": "ym2612"
    },
    {
      "channel": 0,
      "note": 60,
      "start": 36.3319,
      "duration": 0.1172,
      "velocity": 88,
      "chip": "ym2612"
    },
    {
      "channel": 1,
      "note": 84,
      "start": 36.3515,
      "duration": 0.098,
      "velocity": 116,
      "chip": "ym2612"
    },
    {
      "channel": 2,
      "note": 89,
      "start": 36.3521,
      "duration": 0.0774,
      "velocity": 116,
      "chip": "ym2612"
    },
    {
      "channel": 0,
      "note": 48,
      "start": 36.4886,
      "duration": 0.1173,
      "velocity": 88,
      "chip": "ym2612"
    },
    {
      "channel": 1,
      "note": 89,
      "start": 36.4892,
      "duration": 0.0775,
      "velocity": 116,
      "chip": "ym2612"
    },
    {
      "channel": 2,
      "note": 94,
      "start": 36.49,
      "duration": 0.0963,
      "velocity": 116,
      "chip": "ym2612"
    },
    {
      "channel": 0,
      "note": 60,
      "start": 36.6454,
      "duration": 0.1369,
      "velocity": 88,
      "chip": "ym2612"
    },
    {
      "channel": 2,
      "note": 91,
      "start": 36.6461,
      "duration": 0.8026,
      "velocity": 116,
      "chip": "ym2612"
    },
    {
      "channel": 1,
      "note": 88,
      "start": 36.6651,
      "duration": 0.8228,
      "velocity": 116,
      "chip": "ym2612"
    },
    {
      "channel": 0,
      "note": 60,
      "start": 36.9587,
      "duration": 0.1176,
      "velocity": 88,
      "chip": "ym2612"
    },
    {
      "channel": 0,
      "note": 48,
      "start": 37.1158,
      "duration": 0.1172,
      "velocity": 88,
      "chip": "ym2612"
    },
    {
      "channel": 3,
      "note": 45,
      "start": 37.1161,
      "duration": 0.588,
      "velocity": 118,
      "chip": "ym2612"
    },
    {
      "channel": 0,
      "note": 60,
      "start": 37.2726,
      "duration": 0.1172,
      "velocity": 88,
      "chip": "ym2612"
    },
    {
      "channel": 4,
      "note": 55,
      "start": 37.273,
      "duration": 0.0777,
      "velocity": 27,
      "chip": "ym2612"
    },
    {
      "channel": 0,
      "note": 48,
      "start": 37.4294,
      "duration": 0.1173,
      "velocity": 88,
      "chip": "ym2612"
    },
    {
      "channel": 4,
      "note": 55,
      "start": 37.4298,
      "duration": 0.0777,
      "velocity": 27,
      "chip": "ym2612"
    },
    {
      "channel": 1,
      "note": 89,
      "start": 37.5473,
      "duration": 0.0974,
      "velocity": 116,
      "chip": "ym2612"
    },
    {
      "channel": 0,
      "note": 65,
      "start": 37.5862,
      "duration": 0.1173,
      "velocity": 88,
      "chip": "ym2612"
    },
    {
      "channel": 2,
      "note": 96,
      "start": 37.5869,
      "duration": 0.1169,
      "velocity": 116,
      "chip": "ym2612"
    },
    {
      "channel": 1,
      "note": 77,
      "start": 37.6842,
      "duration": 0.1565,
      "velocity": 116,
      "chip": "ym2612"
    },
    {
      "channel": 2,
      "note": 84,
      "start": 37.7627,
      "duration": 0.1172,
      "velocity": 116,
      "chip": "ym2612"
    },
    {
      "channel": 1,
      "note": 81,
      "start": 37.8606,
      "duration": 0.0976,
      "velocity": 116,
      "chip": "ym2612"
    },
    {
      "channel": 0,
      "note": 65,
      "start": 37.8995,
      "duration": 0.1176,
      "velocity": 88,
      "chip": "ym2612"
    },
    {
      "channel": 2,
      "note": 89,
      "start": 37.9195,
      "duration": 0.1375,
      "velocity": 116,
      "chip": "ym2612"
    },
    {
      "channel": 1,
      "note": 84,
      "start": 38.0177,
      "duration": 0.1758,
      "velocity": 116,
      "chip": "ym2612"
    },
    {
      "channel": 0,
      "note": 53,
      "start": 38.0567,
      "duration": 0.1172,
      "velocity": 88,
      "chip": "ym2612"
    },
    {
      "channel": 3,
      "note": 45,
      "start": 38.0573,
      "duration": 0.587,
      "velocity": 118,
      "chip": "ym2612"
    },
    {
      "channel": 2,
      "note": 93,
      "start": 38.0763,
      "duration": 0.1381,
      "velocity": 116,
      "chip": "ym2612"
    },
    {
      "channel": 0,
      "note": 65,
      "start": 38.2134,
      "duration": 0.1173,
      "velocity": 88,
      "chip": "ym2612"
    },
    {
      "channel": 1,
      "note": 89,
      "start": 38.214,
      "duration": 0.1169,
      "velocity": 116,
      "chip": "ym2612"
    },
    {
      "channel": 2,
      "note": 96,
      "start": 38.215,
      "duration": 0.1359,
      "velocity": 116,
      "chip": "ym2612"
    },
    {
      "channel": 1,
      "note": 93,
      "start": 38.3506,
      "duration": 0.1173,
      "velocity": 116,
      "chip": "ym2612"
    },
    {
      "channel": 0,
      "note": 53,
      "start": 38.3702,
      "duration": 0.1173,
      "velocity": 88,
      "chip": "ym2612"
    },
    {
      "channel": 2,
      "note": 100,
      "start": 38.3899,
      "duration": 1.0788,
      "velocity": 116,
      "chip": "ym2612"
    },
    {
      "channel": 0,
      "note": 64,
      "start": 38.527,
      "duration": 0.1368,
      "velocity": 88,
      "chip": "ym2612"
    },
    {
      "channel": 1,
      "note": 96,
      "start": 38.5277,
      "duration": 0.9404,
      "velocity": 116,
      "chip": "ym2612"
    },
    {
      "channel": 0,
      "note": 62,
      "start": 38.6838,
      "duration": 0.1369,
      "velocity": 88,
      "chip": "ym2612"
    },
    {
      "channel": 0,
      "note": 60,
      "start": 38.8406,
      "duration": 0.1369,
      "velocity": 88,
      "chip": "ym2612"
    },
    {
      "channel": 0,
      "note": 57,
      "start": 38.9974,
      "duration": 0.1369,
      "velocity": 88,
      "chip": "ym2612"
    },
    {
      "channel": 3,
      "note": 45,
      "start": 38.9978,
      "duration": 0.5873,
      "velocity": 118,
      "chip": "ym2612"
    },
    {
      "channel": 0,
      "note": 52,
      "start": 39.1542,
      "duration": 0.1369,
      "velocity": 88,
      "chip": "ym2612"
    },
    {
      "channel": 4,
      "note": 55,
      "start": 39.1545,
      "duration": 0.0778,
      "velocity": 27,
      "chip": "ym2612"
    },
    {
      "channel": 4,
      "note": 55,
      "start": 39.3107,
      "duration": 0.0784,
      "velocity": 27,
      "chip": "ym2612"
    },
    {
      "channel": 0,
      "note": 57,
      "start": 39.4677,
      "duration": 0.0781,
      "velocity": 88,
      "chip": "ym2612"
    },
    {
      "channel": 1,
      "note": 96,
      "start": 39.4684,
      "duration": 0.1363,
      "velocity": 116,
      "chip": "ym2612"
    },
    {
      "channel": 2,
      "note": 105,
      "start": 39.4875,
      "duration": 0.1377,
      "velocity": 116,
      "chip": "ym2612"
    },
    {
      "channel": 0,
      "note": 57,
      "start": 39.6242,
      "duration": 0.0784,
      "velocity": 88,
      "chip": "ym2612"
    },
    {
      "channel": 1,
      "note": 93,
      "start": 39.6249,
      "duration": 0.1169,
      "velocity": 116,
      "chip": "ym2612"
    },
    {
      "channel": 2,
      "note": 100,
      "start": 39.6442,
      "duration": 0.1179,
      "velocity": 116,
      "chip": "ym2612"
    },
    {
      "channel": 1,
      "note": 88,
      "start": 39.7618,
      "duration": 0.0979,
      "velocity": 116,
      "chip": "ym2612"
    },
    {
      "channel": 0,
      "note": 57,
      "start": 39.781,
      "duration": 0.0784,
      "velocity": 88,
      "chip": "ym2612"
    },
    {
      "channel": 2,
      "note": 96,
      "start": 39.7817,
      "duration": 0.0973,
      "velocity": 116,
      "chip": "ym2612"
    },
    {
      "channel": 1,
      "note": 93,
      "start": 39.899,
      "duration": 0.1368,
      "velocity": 116,
      "chip": "ym2612"
    },
    {
      "channel": 0,
      "note": 60,
      "start": 39.9382,
      "duration": 0.0781,
      "velocity": 88,
      "chip": "ym2612"
    },
    {
      "channel": 3,
      "note": 45,
      "start": 39.9385,
      "duration": 0.5874,
      "velocity": 118,
      "chip": "ym2612"
    },
    {
      "channel": 2,
      "note": 100,
      "start": 39.9578,
      "duration": 0.1173,
      "velocity": 116,
      "chip": "ym2612"
    },
    {
      "channel": 1,
      "note": 88,
      "start": 40.0558,
      "duration": 0.1369,
      "velocity": 116,
      "chip": "ym2612"
    },
    {
      "channel": 0,
      "note": 60,
      "start": 40.0946,
      "duration": 0.0785,
      "velocity": 88,
      "chip": "ym2612"
    },
    {
      "channel": 2,
      "note": 96,
      "start": 40.0953,
      "duration": 0.1366,
      "velocity": 116,
      "chip": "ym2612"
    },
    {
      "channel": 1,
      "note": 84,
      "start": 40.2126,
      "duration": 0.0976,
      "velocity": 116,
      "chip": "ym2612"
    },
    {
      "channel": 0,
      "note": 60,
      "start": 40.2515,
      "duration": 0.0784,
      "velocity": 88,
      "chip": "ym2612"
    },
    {
      "channel": 2,
      "note": 93,
      "start": 40.2714,
      "duration": 0.0976,
      "velocity": 116,
      "chip": "ym2612"
    },
    {
      "channel": 1,
      "note": 88,
      "start": 40.389,
      "duration": 0.098,
      "velocity": 116,
      "chip": "ym2612"
    },
    {
      "channel": 0,
      "note": 59,
      "start": 40.4086,
      "duration": 0.078,
      "velocity": 88,
      "chip": "ym2612"
    },
    {
      "channel": 2,
      "note": 96,
      "start": 40.4092,
      "duration": 0.1363,
      "velocity": 116,
      "chip": "ym2612"
    },
    {
      "channel": 1,
      "note": 84,
      "start": 40.5067,
      "duration": 0.1371,
      "velocity": 116,
      "chip": "ym2612"
    },
    {
      "channel": 0,
      "note": 59,
      "start": 40.5651,
      "duration": 0.0784,
      "velocity": 88,
      "chip": "ym2612"
    },
    {
      "channel": 2,
      "note": 93,
      "start": 40.585,
      "duration": 0.1173,
      "velocity": 116,
      "chip": "ym2612"
    },
    {
      "channel": 1,
      "note": 81,
      "start": 40.683,
      "duration": 0.1175,
      "velocity": 116,
      "chip": "ym2612"
    },
    {
      "channel": 2,
      "note": 88,
      "start": 40.7029,
      "duration": 0.0979,
      "velocity": 116,
      "chip": "ym2612"
    },
    {
      "channel": 0,
      "note": 59,
      "start": 40.7219,
      "duration": 0.0784,
      "velocity": 88,
      "chip": "ym2612"
    },
    {
      "channel": 1,
      "note": 84,
      "start": 40.8399,
      "duration": 0.1174,
      "velocity": 116,
      "chip": "ym2612"
    },
    {
      "channel": 2,
      "note": 93,
      "start": 40.8594,
      "duration": 0.0982,
      "velocity": 116,
      "chip": "ym2612"
    },
    {
      "channel": 0,
      "note": 64,
      "start": 40.8789,
      "duration": 0.0781,
      "velocity": 88,
      "chip": "ym2612"
    },
    {
      "channel": 3,
      "note": 45,
      "start": 40.8793,
      "duration": 0.4306,
      "velocity": 118,
      "chip": "ym2612"
    },
    {
      "channel": 1,
      "note": 81,
      "start": 40.977,
      "duration": 0.1172,
      "velocity": 116,
      "chip": "ym2612"
    },
    {
      "channel": 2,
      "note": 88,
      "start": 40.9776,
      "duration": 0.1371,
      "velocity": 116,
      "chip": "ym2612"
    },
    {
      "channel": 0,
      "note": 64,
      "start": 41.0356,
      "duration": 0.0783,
      "velocity": 88,
      "chip": "ym2612"
    },
    {
      "channel": 4,
      "note": 55,
      "start": 41.0359,
      "duration": 0.0792,
      "velocity": 27,
      "chip": "ym2612"
    },
    {
      "channel": 1,
      "note": 76,
      "start": 41.1144,
      "duration": 0.1565,
      "velocity": 116,
      "chip": "ym2612"
    },
    {
      "channel": 2,
      "note": 84,
      "start": 41.1338,
      "duration": 0.1565,
      "velocity": 116,
      "chip": "ym2612"
    },
    {
      "channel": 0,
      "note": 64,
      "start": 41.1922,
      "duration": 0.0784,
      "velocity": 88,
      "chip": "ym2612"
    },
    {
      "channel": 4,
      "note": 55,
      "start": 41.1925,
      "duration": 0.0787,
      "velocity": 27,
      "chip": "ym2612"
    },
    {
      "channel": 0,
      "note": 69,
      "start": 41.3165,
      "duration": 0.1305,
      "velocity": 88,
      "chip": "ym2612"
    }
  ]
}