{
  "track_name": "14 - Reverse Infect",
  "duration_sec": 25.624,
  "sample_rate": 44100,
  "note_count": 760,
  "unique_pitches": 24,
  "pitch_range": 43,
  "avg_note_duration": 0.1879,
  "reconstruction_stats": {
    "notes_reconstructed": 760,
    "keyon_events": 760,
    "keyoff_events": 438,
    "orphan_keyons": 6,
    "unique_pitches": 24,
    "pitch_range": 43,
    "avg_duration_sec": 0.1879
  },
  "metadata": {
    "source": "S\\Space Harrier II\\14 - Reverse Infect.vgz"
  },
  "notes": [
    {
      "channel": 0,
      "note": 64,
      "start": 0.0,
      "duration": 1.4048,
      "velocity": 95,
      "chip": "ym2612"
    },
    {
      "channel": 1,
      "note": 52,
      "start": 0.0037,
      "duration": 0.2015,
      "velocity": 104,
      "chip": "ym2612"
    },
    {
      "channel": 2,
      "note": 93,
      "start": 0.005,
      "duration": 0.0,
      "velocity": 119,
      "chip": "ym2612"
    },
    {
      "channel": 2,
      "note": 93,
      "start": 0.006,
      "duration": 0.0494,
      "velocity": 119,
      "chip": "ym2612"
    },
    {
      "channel": 3,
      "note": 76,
      "start": 0.0099,
      "duration": 0.1986,
      "velocity": 95,
      "chip": "ym2612"
    },
    {
      "channel": 4,
      "note": 69,
      "start": 0.0133,
      "duration": 0.1957,
      "velocity": 95,
      "chip": "ym2612"
    },
    {
      "channel": 2,
      "note": 93,
      "start": 0.0553,
      "duration": 0.0501,
      "velocity": 119,
      "chip": "ym2612"
    },
    {
      "channel": 2,
      "note": 93,
      "start": 0.1054,
      "duration": 0.001,
      "velocity": 119,
      "chip": "ym2612"
    },
    {
      "channel": 2,
      "note": 93,
      "start": 0.1063,
      "duration": 0.0159,
      "velocity": 119,
      "chip": "ym2612"
    },
    {
      "channel": 5,
      "note": 64,
      "start": 0.1106,
      "duration": 1.3968,
      "velocity": 95,
      "chip": "ym2612"
    },
    {
      "channel": 2,
      "note": 93,
      "start": 0.1223,
      "duration": 0.0331,
      "velocity": 119,
      "chip": "ym2612"
    },
    {
      "channel": 1,
      "note": 52,
      "start": 0.2056,
      "duration": 0.1996,
      "velocity": 104,
      "chip": "ym2612"
    },
    {
      "channel": 2,
      "note": 93,
      "start": 0.2068,
      "duration": 0.0001,
      "velocity": 119,
      "chip": "ym2612"
    },
    {
      "channel": 2,
      "note": 93,
      "start": 0.2069,
      "duration": 0.001,
      "velocity": 119,
      "chip": "ym2612"
    },
    {
      "channel": 2,
      "note": 93,
      "start": 0.2078,
      "duration": 0.0475,
      "velocity": 119,
      "chip": "ym2612"
    },
    {
      "channel": 3,
      "note": 76,
      "start": 0.2089,
      "duration": 1.4001,
      "velocity": 95,
      "chip": "ym2612"
    },
    {
      "channel": 4,
      "note": 69,
      "start": 0.2095,
      "duration": 1.4002,
      "velocity": 95,
      "chip": "ym2612"
    },
    {
      "channel": 2,
      "note": 93,
      "start": 0.2553,
      "duration": 0.0667,
      "velocity": 119,
      "chip": "ym2612"
    },
    {
      "channel": 1,
      "note": 52,
      "start": 0.4056,
      "duration": 0.0996,
      "velocity": 104,
      "chip": "ym2612"
    },
    {
      "channel": 2,
      "note": 93,
      "start": 0.4068,
      "duration": 0.0485,
      "velocity": 119,
      "chip": "ym2612"
    },
    {
      "channel": 1,
      "note": 64,
      "start": 0.5056,
      "duration": 0.0996,
      "velocity": 104,
      "chip": "ym2612"
    },
    {
      "channel": 2,
      "note": 93,
      "start": 0.5069,
      "duration": 0.1151,
      "velocity": 122,
      "chip": "ym2612"
    },
    {
      "channel": 1,
      "note": 52,
      "start": 0.6056,
      "duration": 0.0996,
      "velocity": 104,
      "chip": "ym2612"
    },
    {
      "channel": 1,
      "note": 64,
      "start": 0.7056,
      "duration": 0.0996,
      "velocity": 104,
      "chip": "ym2612"
    },
    {
      "channel": 2,
      "note": 93,
      "start": 0.7069,
      "duration": 0.0486,
      "velocity": 119,
      "chip": "ym2612"
    },
    {
      "channel": 1,
      "note": 52,
      "start": 0.8056,
      "duration": 0.1996,
      "velocity": 104,
      "chip": "ym2612"
    },
    {
      "channel": 2,
      "note": 93,
      "start": 0.8069,
      "duration": 0.0001,
      "velocity": 119,
      "chip": "ym2612"
    },
    {
      "channel": 2,
      "note": 93,
      "start": 0.807,
      "duration": 0.0009,
      "velocity": 119,
      "chip": "ym2612"
    },
    {
      "channel": 2,
      "note": 93,
      "start": 0.8079,
      "duration": 0.0474,
      "velocity": 119,
      "chip": "ym2612"
    },
    {
      "channel": 2,
      "note": 93,
      "start": 0.8553,
      "duration": 0.0501,
      "velocity": 119,
      "chip": "ym2612"
    },
    {
      "channel": 2,
      "note": 93,
      "start": 0.9054,
      "duration": 0.001,
      "velocity": 119,
      "chip": "ym2612"
    },
    {
      "channel": 2,
      "note": 93,
      "start": 0.9063,
      "duration": 0.0159,
      "velocity": 119,
      "chip": "ym2612"
    },
    {
      "channel": 2,
      "note": 93,
      "start": 0.9223,
      "duration": 0.0331,
      "velocity": 119,
      "chip": "ym2612"
    },
    {
      "channel": 1,
      "note": 52,
      "start": 1.0056,
      "duration": 0.1996,
      "velocity": 104,
      "chip": "ym2612"
    },
    {
      "channel": 2,
      "note": 93,
      "start": 1.0069,
      "duration": 0.0485,
      "velocity": 119,
      "chip": "ym2612"
    },
    {
      "channel": 1,
      "note": 52,
      "start": 1.2056,
      "duration": 0.1998,
      "velocity": 104,
      "chip": "ym2612"
    },
    {
      "channel": 2,
      "note": 93,
      "start": 1.2069,
      "duration": 0.1151,
      "velocity": 122,
      "chip": "ym2612"
    },
    {
      "channel": 0,
      "note": 64,
      "start": 1.4053,
      "duration": 0.0995,
      "velocity": 95,
      "chip": "ym2612"
    },
    {
      "channel": 1,
      "note": 64,
      "start": 1.406,
      "duration": 0.1995,
      "velocity": 104,
      "chip": "ym2612"
    },
    {
      "channel": 2,
      "note": 93,
      "start": 1.4071,
      "duration": 0.0482,
      "velocity": 119,
      "chip": "ym2612"
    },
    {
      "channel": 0,
      "note": 64,
      "start": 1.5053,
      "duration": 0.0995,
      "velocity": 95,
      "chip": "ym2612"
    },
    {
      "channel": 2,
      "note": 93,
      "start": 1.5067,
      "duration": 0.0487,
      "velocity": 119,
      "chip": "ym2612"
    },
    {
      "channel": 5,
      "note": 64,
      "start": 1.5078,
      "duration": 0.1024,
      "velocity": 95,
      "chip": "ym2612"
    },
    {
      "channel": 0,
      "note": 64,
      "start": 1.6053,
      "duration": 1.5995,
      "velocity": 95,
      "chip": "ym2612"
    },
    {
      "channel": 1,
      "note": 52,
      "start": 1.606,
      "duration": 0.1992,
      "velocity": 104,
      "chip": "ym2612"
    },
    {
      "channel": 2,
      "note": 93,
      "start": 1.6073,
      "duration": 0.0001,
      "velocity": 119,
      "chip": "ym2612"
    },
    {
      "channel": 2,
      "note": 93,
      "start": 1.6074,
      "duration": 0.0009,
      "velocity": 119,
      "chip": "ym2612"
    },
    {
      "channel": 2,
      "note": 93,
      "start": 1.6083,
      "duration": 0.047,
      "velocity": 119,
      "chip": "ym2612"
    },
    {
      "channel": 3,
      "note": 76,
      "start": 1.6095,
      "duration": 0.199,
      "velocity": 95,
      "chip": "ym2612"
    },
    {
      "channel": 4,
      "note": 69,
      "start": 1.6101,
      "duration": 0.1989,
      "velocity": 95,
      "chip": "ym2612"
    },
    {
      "channel": 5,
      "note": 64,
      "start": 1.6107,
      "duration": 0.0967,
      "velocity": 95,
      "chip": "ym2612"
    },
    {
      "channel": 2,
      "note": 93,
      "start": 1.6553,
      "duration": 0.0501,
      "velocity": 119,
      "chip": "ym2612"
    },
    {
      "channel": 2,
      "note": 93,
      "start": 1.7054,
      "duration": 0.001,
      "velocity": 119,
      "chip": "ym2612"
    },
    {
      "channel": 2,
      "note": 93,
      "start": 1.7063,
      "duration": 0.0159,
      "velocity": 119,
      "chip": "ym2612"
    },
    {
      "channel": 5,
      "note": 64,
      "start": 1.7078,
      "duration": 1.5982,
      "velocity": 95,
      "chip": "ym2612"
    },
    {
      "channel": 2,
      "note": 93,
      "start": 1.7223,
      "duration": 0.0331,
      "velocity": 119,
      "chip": "ym2612"
    },
    {
      "channel": 1,
      "note": 52,
      "start": 1.8056,
      "duration": 0.1996,
      "velocity": 104,
      "chip": "ym2612"
    },
    {
      "channel": 2,
      "note": 93,
      "start": 1.8068,
      "duration": 0.0001,
      "velocity": 119,
      "chip": "ym2612"
    },
    {
      "channel": 2,
      "note": 93,
      "start": 1.8069,
      "duration": 0.001,
      "velocity": 119,
      "chip": "ym2612"
    },
    {
      "channel": 2,
      "note": 93,
      "start": 1.8078,
      "duration": 0.0475,
      "velocity": 119,
      "chip": "ym2612"
    },
    {
      "channel": 3,
      "note": 76,
      "start": 1.8089,
      "duration": 1.4002,
      "velocity": 95,
      "chip": "ym2612"
    },
    {
      "channel": 4,
      "note": 69,
      "start": 1.8095,
      "duration": 1.4002,
      "velocity": 95,
      "chip": "ym2612"
    },
    {
      "channel": 2,
      "note": 93,
      "start": 1.8553,
      "duration": 0.0667,
      "velocity": 119,
      "chip": "ym2612"
    },
    {
      "channel": 1,
      "note": 52,
      "start": 2.0056,
      "duration": 0.0996,
      "velocity": 104,
      "chip": "ym2612"
    },
    {
      "channel": 2,
      "note": 93,
      "start": 2.0068,
      "duration": 0.0485,
      "velocity": 119,
      "chip": "ym2612"
    },
    {
      "channel": 1,
      "note": 64,
      "start": 2.1056,
      "duration": 0.0996,
      "velocity": 104,
      "chip": "ym2612"
    },
    {
      "channel": 2,
      "note": 93,
      "start": 2.1069,
      "duration": 0.1151,
      "velocity": 122,
      "chip": "ym2612"
    },
    {
      "channel": 1,
      "note": 52,
      "start": 2.2056,
      "duration": 0.0996,
      "velocity": 104,
      "chip": "ym2612"
    },
    {
      "channel": 1,
      "note": 64,
      "start": 2.3056,
      "duration": 0.0996,
      "velocity": 104,
      "chip": "ym2612"
    },
    {
      "channel": 2,
      "note": 93,
      "start": 2.3069,
      "duration": 0.0486,
      "velocity": 119,
      "chip": "ym2612"
    },
    {
      "channel": 1,
      "note": 52,
      "start": 2.4056,
      "duration": 0.1996,
      "velocity": 104,
      "chip": "ym2612"
    },
    {
      "channel": 2,
      "note": 93,
      "start": 2.4069,
      "duration": 0.0001,
      "velocity": 119,
      "chip": "ym2612"
    },
    {
      "channel": 2,
      "note": 93,
      "start": 2.407,
      "duration": 0.0009,
      "velocity": 119,
      "chip": "ym2612"
    },
    {
      "channel": 2,
      "note": 93,
      "start": 2.4079,
      "duration": 0.0474,
      "velocity": 119,
      "chip": "ym2612"
    },
    {
      "channel": 2,
      "note": 93,
      "start": 2.4553,
      "duration": 0.0501,
      "velocity": 119,
      "chip": "ym2612"
    },
    {
      "channel": 2,
      "note": 93,
      "start": 2.5054,
      "duration": 0.001,
      "velocity": 119,
      "chip": "ym2612"
    },
    {
      "channel": 2,
      "note": 93,
      "start": 2.5063,
      "duration": 0.0159,
      "velocity": 119,
      "chip": "ym2612"
    },
    {
      "channel": 2,
      "note": 93,
      "start": 2.5223,
      "duration": 0.0331,
      "velocity": 119,
      "chip": "ym2612"
    },
    {
      "channel": 1,
      "note": 52,
      "start": 2.6056,
      "duration": 0.1996,
      "velocity": 104,
      "chip": "ym2612"
    },
    {
      "channel": 2,
      "note": 93,
      "start": 2.6069,
      "duration": 0.0485,
      "velocity": 119,
      "chip": "ym2612"
    },
    {
      "channel": 1,
      "note": 52,
      "start": 2.8056,
      "duration": 0.1996,
      "velocity": 104,
      "chip": "ym2612"
    },
    {
      "channel": 2,
      "note": 93,
      "start": 2.8069,
      "duration": 0.1151,
      "velocity": 122,
      "chip": "ym2612"
    },
    {
      "channel": 1,
      "note": 64,
      "start": 3.0056,
      "duration": 0.1999,
      "velocity": 104,
      "chip": "ym2612"
    },
    {
      "channel": 2,
      "note": 93,
      "start": 3.0069,
      "duration": 0.0485,
      "velocity": 119,
      "chip": "ym2612"
    },
    {
      "channel": 2,
      "note": 93,
      "start": 3.1064,
      "duration": 0.049,
      "velocity": 119,
      "chip": "ym2612"
    },
    {
      "channel": 0,
      "note": 81,
      "start": 3.2054,
      "duration": 0.5994,
      "velocity": 95,
      "chip": "ym2612"
    },
    {
      "channel": 1,
      "note": 52,
      "start": 3.2061,
      "duration": 0.1991,
      "velocity": 104,
      "chip": "ym2612"
    },
    {
      "channel": 2,
      "note": 93,
      "start": 3.2074,
      "duration": 0.0001,
      "velocity": 119,
      "chip": "ym2612"
    },
    {
      "channel": 2,
      "note": 93,
      "start": 3.2075,
      "duration": 0.0009,
      "velocity": 119,
      "chip": "ym2612"
    },
    {
      "channel": 2,
      "note": 93,
      "start": 3.2084,
      "duration": 0.0469,
      "velocity": 119,
      "chip": "ym2612"
    },
    {
      "channel": 3,
      "note": 76,
      "start": 3.2096,
      "duration": 0.7994,
      "velocity": 95,
      "chip": "ym2612"
    },
    {
      "channel": 4,
      "note": 69,
      "start": 3.2102,
      "duration": 0.7993,
      "velocity": 95,
      "chip": "ym2612"
    },
    {
      "channel": 2,
      "note": 93,
      "start": 3.2553,
      "duration": 0.0667,
      "velocity": 119,
      "chip": "ym2612"
    },
    {
      "channel": 5,
      "note": 81,
      "start": 3.3064,
      "duration": 0.6024,
      "velocity": 95,
      "chip": "ym2612"
    },
    {
      "channel": 1,
      "note": 52,
      "start": 3.4056,
      "duration": 0.1996,
      "velocity": 104,
      "chip": "ym2612"
    },
    {
      "channel": 2,
      "note": 93,
      "start": 3.4068,
      "duration": 0.0001,
      "velocity": 119,
      "chip": "ym2612"
    },
    {
      "channel": 2,
      "note": 93,
      "start": 3.4069,
      "duration": 0.001,
      "velocity": 119,
      "chip": "ym2612"
    },
    {
      "channel": 2,
      "note": 93,
      "start": 3.4078,
      "duration": 0.0475,
      "velocity": 119,
      "chip": "ym2612"
    },
    {
      "channel": 2,
      "note": 93,
      "start": 3.4553,
      "duration": 0.0667,
      "velocity": 119,
      "chip": "ym2612"
    },
    {
      "channel": 1,
      "note": 52,
      "start": 3.6056,
      "duration": 0.0996,
      "velocity": 104,
      "chip": "ym2612"
    },
    {
      "channel": 2,
      "note": 93,
      "start": 3.6068,
      "duration": 0.0485,
      "velocity": 119,
      "chip": "ym2612"
    },
    {
      "channel": 1,
      "note": 64,
      "start": 3.7056,
      "duration": 0.0999,
      "velocity": 104,
      "chip": "ym2612"
    },
    {
      "channel": 2,
      "note": 93,
      "start": 3.7069,
      "duration": 0.1151,
      "velocity": 122,
      "chip": "ym2612"
    },
    {
      "channel": 0,
      "note": 79,
      "start": 3.8054,
      "duration": 0.1994,
      "velocity": 95,
      "chip": "ym2612"
    },
    {
      "channel": 1,
      "note": 52,
      "start": 3.806,
      "duration": 0.0992,
      "velocity": 104,
      "chip": "ym2612"
    },
    {
      "channel": 1,
      "note": 64,
      "start": 3.9056,
      "duration": 0.0999,
      "velocity": 104,
      "chip": "ym2612"
    },
    {
      "channel": 2,
      "note": 93,
      "start": 3.9069,
      "duration": 0.0001,
      "velocity": 119,
      "chip": "ym2612"
    },
    {
      "channel": 2,
      "note": 93,
      "start": 3.9069,
      "duration": 0.001,
      "velocity": 119,
      "chip": "ym2612"
    },
    {
      "channel": 2,
      "note": 93,
      "start": 3.9079,
      "duration": 0.0474,
      "velocity": 119,
      "chip": "ym2612"
    },
    {
      "channel": 5,
      "note": 79,
      "start": 3.9093,
      "duration": 0.1966,
      "velocity": 95,
      "chip": "ym2612"
    },
    {
      "channel": 2,
      "note": 93,
      "start": 3.9553,
      "duration": 0.0509,
      "velocity": 119,
      "chip": "ym2612"
    },
    {
      "channel": 0,
      "note": 81,
      "start": 4.0054,
      "duration": 0.1994,
      "velocity": 95,
      "chip": "ym2612"
    },
    {
      "channel": 1,
      "note": 52,
      "start": 4.006,
      "duration": 0.1995,
      "velocity": 104,
      "chip": "ym2612"
    },
    {
      "channel": 2,
      "note": 93,
      "start": 4.0062,
      "duration": 0.001,
      "velocity": 119,
      "chip": "ym2612"
    },
    {
      "channel": 2,
      "note": 93,
      "start": 4.0072,
      "duration": 0.0001,
      "velocity": 119,
      "chip": "ym2612"
    },
    {
      "channel": 2,
      "note": 93,
      "start": 4.0073,
      "duration": 0.0009,
      "velocity": 119,
      "chip": "ym2612"
    },
    {
      "channel": 2,
      "note": 93,
      "start": 4.0082,
      "duration": 0.0471,
      "velocity": 119,
      "chip": "ym2612"
    },
    {
      "channel": 3,
      "note": 76,
      "start": 4.0093,
      "duration": 0.1996,
      "velocity": 95,
      "chip": "ym2612"
    },
    {
      "channel": 4,
      "note": 69,
      "start": 4.0099,
      "duration": 0.1996,
      "velocity": 95,
      "chip": "ym2612"
    },
    {
      "channel": 2,
      "note": 93,
      "start": 4.0553,
      "duration": 0.0667,
      "velocity": 119,
      "chip": "ym2612"
    },
    {
      "channel": 5,
      "note": 81,
      "start": 4.1064,
      "duration": 0.201,
      "velocity": 95,
      "chip": "ym2612"
    },
    {
      "channel": 0,
      "note": 76,
      "start": 4.2054,
      "duration": 0.6994,
      "velocity": 95,
      "chip": "ym2612"
    },
    {
      "channel": 1,
      "note": 52,
      "start": 4.206,
      "duration": 0.1992,
      "velocity": 104,
      "chip": "ym2612"
    },
    {
      "channel": 2,
      "note": 93,
      "start": 4.2072,
      "duration": 0.0001,
      "velocity": 119,
      "chip": "ym2612"
    },
    {
      "channel": 2,
      "note": 93,
      "start": 4.2073,
      "duration": 0.0009,
      "velocity": 119,
      "chip": "ym2612"
    },
    {
      "channel": 2,
      "note": 93,
      "start": 4.2082,
      "duration": 0.0471,
      "velocity": 119,
      "chip": "ym2612"
    },
    {
      "channel": 3,
      "note": 76,
      "start": 4.2093,
      "duration": 1.3996,
      "velocity": 95,
      "chip": "ym2612"
    },
    {
      "channel": 4,
      "note": 69,
      "start": 4.2099,
      "duration": 1.3997,
      "velocity": 95,
      "chip": "ym2612"
    },
    {
      "channel": 2,
      "note": 93,
      "start": 4.2553,
      "duration": 0.0501,
      "velocity": 119,
      "chip": "ym2612"
    },
    {
      "channel": 2,
      "note": 93,
      "start": 4.3054,
      "duration": 0.001,
      "velocity": 119,
      "chip": "ym2612"
    },
    {
      "channel": 2,
      "note": 93,
      "start": 4.3063,
      "duration": 0.0159,
      "velocity": 119,
      "chip": "ym2612"
    },
    {
      "channel": 5,
      "note": 76,
      "start": 4.3079,
      "duration": 0.7013,
      "velocity": 95,
      "chip": "ym2612"
    },
    {
      "channel": 2,
      "note": 93,
      "start": 4.3223,
      "duration": 0.0331,
      "velocity": 119,
      "chip": "ym2612"
    },
    {
      "channel": 1,
      "note": 52,
      "start": 4.4056,
      "duration": 0.1996,
      "velocity": 104,
      "chip": "ym2612"
    },
    {
      "channel": 2,
      "note": 93,
      "start": 4.4069,
      "duration": 0.1151,
      "velocity": 122,
      "chip": "ym2612"
    },
    {
      "channel": 1,
      "note": 64,
      "start": 4.6056,
      "duration": 0.1996,
      "velocity": 104,
      "chip": "ym2612"
    },
    {
      "channel": 2,
      "note": 93,
      "start": 4.6069,
      "duration": 0.0001,
      "velocity": 119,
      "chip": "ym2612"
    },
    {
      "channel": 2,
      "note": 93,
      "start": 4.607,
      "duration": 0.0009,
      "velocity": 119,
      "chip": "ym2612"
    },
    {
      "channel": 2,
      "note": 93,
      "start": 4.6079,
      "duration": 0.0474,
      "velocity": 119,
      "chip": "ym2612"
    },
    {
      "channel": 2,
      "note": 93,
      "start": 4.6553,
      "duration": 0.0501,
      "velocity": 119,
      "chip": "ym2612"
    },
    {
      "channel": 2,
      "note": 93,
      "start": 4.7054,
      "duration": 0.001,
      "velocity": 119,
      "chip": "ym2612"
    },
    {
      "channel": 2,
      "note": 93,
      "start": 4.7063,
      "duration": 0.0159,
      "velocity": 119,
      "chip": "ym2612"
    },
    {
      "channel": 2,
      "note": 93,
      "start": 4.7223,
      "duration": 0.0331,
      "velocity": 119,
      "chip": "ym2612"
    },
    {
      "channel": 1,
      "note": 52,
      "start": 4.8058,
      "duration": 0.1998,
      "velocity": 104,
      "chip": "ym2612"
    },
    {
      "channel": 2,
      "note": 93,
      "start": 4.8071,
      "duration": 0.0001,
      "velocity": 119,
      "chip": "ym2612"
    },
    {
      "channel": 2,
      "note": 93,
      "start": 4.8071,
      "duration": 0.001,
      "velocity": 119,
      "chip": "ym2612"
    },
    {
      "channel": 2,
      "note": 93,
      "start": 4.8081,
      "duration": 0.0473,
      "velocity": 119,
      "chip": "ym2612"
    },
    {
      "channel": 2,
      "note": 93,
      "start": 4.8553,
      "duration": 0.0667,
      "velocity": 119,
      "chip": "ym2612"
    },
    {
      "channel": 0,
      "note": 73,
      "start": 4.9054,
      "duration": 0.0994,
      "velocity": 95,
      "chip": "ym2612"
    },
    {
      "channel": 0,
      "note": 74,
      "start": 5.0054,
      "duration": 0.0994,
      "velocity": 95,
      "chip": "ym2612"
    },
    {
      "channel": 1,
      "note": 52,
      "start": 5.0059,
      "duration": 0.1993,
      "velocity": 104,
      "chip": "ym2612"
    },
    {
      "channel": 2,
      "note": 93,
      "start": 5.0071,
      "duration": 0.0001,
      "velocity": 119,
      "chip": "ym2612"
    },
    {
      "channel": 2,
      "note": 93,
      "start": 5.0073,
      "duration": 0.0009,
      "velocity": 119,
      "chip": "ym2612"
    },
    {
      "channel": 2,
      "note": 93,
      "start": 5.0081,
      "duration": 0.0472,
      "velocity": 119,
      "chip": "ym2612"
    },
    {
      "channel": 5,
      "note": 73,
      "start": 5.0096,
      "duration": 0.0967,
      "velocity": 95,
      "chip": "ym2612"
    },
    {
      "channel": 2,
      "note": 93,
      "start": 5.0553,
      "duration": 0.0667,
      "velocity": 119,
      "chip": "ym2612"
    },
    {
      "channel": 0,
      "note": 76,
      "start": 5.1054,
      "duration": 0.4994,
      "velocity": 95,
      "chip": "ym2612"
    },
    {
      "channel": 5,
      "note": 74,
      "start": 5.1067,
      "duration": 0.1008,
      "velocity": 95,
      "chip": "ym2612"
    },
    {
      "channel": 1,
      "note": 52,
      "start": 5.2056,
      "duration": 0.0996,
      "velocity": 104,
      "chip": "ym2612"
    },
    {
      "channel": 2,
      "note": 93,
      "start": 5.2068,
      "duration": 0.0485,
      "velocity": 119,
      "chip": "ym2612"
    },
    {
      "channel": 5,
      "note": 76,
      "start": 5.2081,
      "duration": 0.4979,
      "velocity": 95,
      "chip": "ym2612"
    },
    {
      "channel": 1,
      "note": 64,
      "start": 5.3056,
      "duration": 0.0996,
      "velocity": 104,
      "chip": "ym2612"
    },
    {
      "channel": 2,
      "note": 93,
      "start": 5.3069,
      "duration": 0.1151,
      "velocity": 122,
      "chip": "ym2612"
    },
    {
      "channel": 1,
      "note": 52,
      "start": 5.4056,
      "duration": 0.0996,
      "velocity": 104,
      "chip": "ym2612"
    },
    {
      "channel": 1,
      "note": 64,
      "start": 5.5056,
      "duration": 0.0999,
      "velocity": 104,
      "chip": "ym2612"
    },
    {
      "channel": 2,
      "note": 93,
      "start": 5.5069,
      "duration": 0.0001,
      "velocity": 119,
      "chip": "ym2612"
    },
    {
      "channel": 2,
      "note": 93,
      "start": 5.507,
      "duration": 0.0009,
      "velocity": 119,
      "chip": "ym2612"
    },
    {
      "channel": 2,
      "note": 93,
      "start": 5.5079,
      "duration": 0.0474,
      "velocity": 119,
      "chip": "ym2612"
    },
    {
      "channel": 2,
      "note": 93,
      "start": 5.5553,
      "duration": 0.0509,
      "velocity": 119,
      "chip": "ym2612"
    },
    {
      "channel": 0,
      "note": 81,
      "start": 5.6054,
      "duration": 0.3994,
      "velocity": 95,
      "chip": "ym2612"
    },
    {
      "channel": 1,
      "note": 52,
      "start": 5.606,
      "duration": 0.1992,
      "velocity": 104,
      "chip": "ym2612"
    },
    {
      "channel": 2,
      "note": 93,
      "start": 5.6062,
      "duration": 0.001,
      "velocity": 119,
      "chip": "ym2612"
    },
    {
      "channel": 2,
      "note": 93,
      "start": 5.6072,
      "duration": 0.0001,
      "velocity": 119,
      "chip": "ym2612"
    },
    {
      "channel": 2,
      "note": 93,
      "start": 5.6073,
      "duration": 0.0009,
      "velocity": 119,
      "chip": "ym2612"
    },
    {
      "channel": 2,
      "note": 93,
      "start": 5.6082,
      "duration": 0.0471,
      "velocity": 119,
      "chip": "ym2612"
    },
    {
      "channel": 3,
      "note": 76,
      "start": 5.6094,
      "duration": 0.1992,
      "velocity": 95,
      "chip": "ym2612"
    },
    {
      "channel": 4,
      "note": 69,
      "start": 5.61,
      "duration": 0.199,
      "velocity": 95,
      "chip": "ym2612"
    },
    {
      "channel": 2,
      "note": 93,
      "start": 5.6553,
      "duration": 0.0667,
      "velocity": 119,
      "chip": "ym2612"
    },
    {
      "channel": 5,
      "note": 81,
      "start": 5.7064,
      "duration": 0.3995,
      "velocity": 95,
      "chip": "ym2612"
    },
    {
      "channel": 1,
      "note": 52,
      "start": 5.8056,
      "duration": 0.1999,
      "velocity": 104,
      "chip": "ym2612"
    },
    {
      "channel": 2,
      "note": 93,
      "start": 5.8069,
      "duration": 0.0001,
      "velocity": 119,
      "chip": "ym2612"
    },
    {
      "channel": 2,
      "note": 93,
      "start": 5.8069,
      "duration": 0.001,
      "velocity": 119,
      "chip": "ym2612"
    },
    {
      "channel": 2,
      "note": 93,
      "start": 5.8079,
      "duration": 0.0474,
      "velocity": 119,
      "chip": "ym2612"
    },
    {
      "channel": 3,
      "note": 76,
      "start": 5.809,
      "duration": 0.6001,
      "velocity": 95,
      "chip": "ym2612"
    },
    {
      "channel": 4,
      "note": 69,
      "start": 5.8095,
      "duration": 0.6002,
      "velocity": 95,
      "chip": "ym2612"
    },
    {
      "channel": 2,
      "note": 93,
      "start": 5.8553,
      "duration": 0.0501,
      "velocity": 119,
      "chip": "ym2612"
    },
    {
      "channel": 2,
      "note": 93,
      "start": 5.9054,
      "duration": 0.001,
      "velocity": 119,
      "chip": "ym2612"
    },
    {
      "channel": 2,
      "note": 93,
      "start": 5.9063,
      "duration": 0.0159,
      "velocity": 119,
      "chip": "ym2612"
    },
    {
      "channel": 2,
      "note": 93,
      "start": 5.9223,
      "duration": 0.0331,
      "velocity": 119,
      "chip": "ym2612"
    },
    {
      "channel": 0,
      "note": 79,
      "start": 6.0054,
      "duration": 0.1994,
      "velocity": 95,
      "chip": "ym2612"
    },
    {
      "channel": 1,
      "note": 52,
      "start": 6.006,
      "duration": 0.1995,
      "velocity": 104,
      "chip": "ym2612"
    },
    {
      "channel": 2,
      "note": 93,
      "start": 6.0072,
      "duration": 0.1148,
      "velocity": 122,
      "chip": "ym2612"
    },
    {
      "channel": 5,
      "note": 79,
      "start": 6.1064,
      "duration": 0.201,
      "velocity": 95,
      "chip": "ym2612"
    },
    {
      "channel": 0,
      "note": 88,
      "start": 6.2054,
      "duration": 0.1994,
      "velocity": 95,
      "chip": "ym2612"
    },
    {
      "channel": 1,
      "note": 64,
      "start": 6.206,
      "duration": 0.1996,
      "velocity": 104,
      "chip": "ym2612"
    },
    {
      "channel": 2,
      "note": 93,
      "start": 6.2072,
      "duration": 0.0001,
      "velocity": 119,
      "chip": "ym2612"
    },
    {
      "channel": 2,
      "note": 93,
      "start": 6.2073,
      "duration": 0.0009,
      "velocity": 119,
      "chip": "ym2612"
    },
    {
      "channel": 2,
      "note": 93,
      "start": 6.2082,
      "duration": 0.0471,
      "velocity": 119,
      "chip": "ym2612"
    },
    {
      "channel": 2,
      "note": 93,
      "start": 6.2553,
      "duration": 0.0501,
      "velocity": 119,
      "chip": "ym2612"
    },
    {
      "channel": 2,
      "note": 93,
      "start": 6.3054,
      "duration": 0.001,
      "velocity": 119,
      "chip": "ym2612"
    },
    {
      "channel": 2,
      "note": 93,
      "start": 6.3063,
      "duration": 0.0159,
      "velocity": 119,
      "chip": "ym2612"
    },
    {
      "channel": 5,
      "note": 88,
      "start": 6.3078,
      "duration": 0.1981,
      "velocity": 95,
      "chip": "ym2612"
    },
    {
      "channel": 2,
      "note": 93,
      "start": 6.3223,
      "duration": 0.0331,
      "velocity": 119,
      "chip": "ym2612"
    },
    {
      "channel": 0,
      "note": 86,
      "start": 6.4054,
      "duration": 1.3994,
      "velocity": 95,
      "chip": "ym2612"
    },
    {
      "channel": 1,
      "note": 53,
      "start": 6.4061,
      "duration": 0.1991,
      "velocity": 104,
      "chip": "ym2612"
    },
    {
      "channel": 2,
      "note": 93,
      "start": 6.4074,
      "duration": 0.0001,
      "velocity": 119,
      "chip": "ym2612"
    },
    {
      "channel": 2,
      "note": 93,
      "start": 6.4074,
      "duration": 0.001,
      "velocity": 119,
      "chip": "ym2612"
    },
    {
      "channel": 2,
      "note": 93,
      "start": 6.4084,
      "duration": 0.0469,
      "velocity": 119,
      "chip": "ym2612"
    },
    {
      "channel": 3,
      "note": 77,
      "start": 6.4095,
      "duration": 1.3981,
      "velocity": 95,
      "chip": "ym2612"
    },
    {
      "channel": 4,
      "note": 70,
      "start": 6.4102,
      "duration": 1.398,
      "velocity": 95,
      "chip": "ym2612"
    },
    {
      "channel": 2,
      "note": 93,
      "start": 6.4553,
      "duration": 0.0667,
      "velocity": 119,
      "chip": "ym2612"
    },
    {
      "channel": 5,
      "note": 86,
      "start": 6.5064,
      "duration": 1.3995,
      "velocity": 95,
      "chip": "ym2612"
    },
    {
      "channel": 1,
      "note": 53,
      "start": 6.6056,
      "duration": 0.1996,
      "velocity": 104,
      "chip": "ym2612"
    },
    {
      "channel": 2,
      "note": 93,
      "start": 6.6069,
      "duration": 0.0001,
      "velocity": 119,
      "chip": "ym2612"
    },
    {
      "channel": 2,
      "note": 93,
      "start": 6.6069,
      "duration": 0.001,
      "velocity": 119,
      "chip": "ym2612"
    },
    {
      "channel": 2,
      "note": 93,
      "start": 6.6079,
      "duration": 0.0474,
      "velocity": 119,
      "chip": "ym2612"
    },
    {
      "channel": 2,
      "note": 93,
      "start": 6.6553,
      "duration": 0.0667,
      "velocity": 119,
      "chip": "ym2612"
    },
    {
      "channel": 1,
      "note": 65,
      "start": 6.8056,
      "duration": 0.1996,
      "velocity": 104,
      "chip": "ym2612"
    },
    {
      "channel": 2,
      "note": 93,
      "start": 6.8069,
      "duration": 0.1151,
      "velocity": 122,
      "chip": "ym2612"
    },
    {
      "channel": 1,
      "note": 69,
      "start": 7.0056,
      "duration": 0.1996,
      "velocity": 104,
      "chip": "ym2612"
    },
    {
      "channel": 2,
      "note": 93,
      "start": 7.0069,
      "duration": 0.0001,
      "velocity": 119,
      "chip": "ym2612"
    },
    {
      "channel": 2,
      "note": 93,
      "start": 7.0069,
      "duration": 0.001,
      "velocity": 119,
      "chip": "ym2612"
    },
    {
      "channel": 2,
      "note": 93,
      "start": 7.0079,
      "duration": 0.0474,
      "velocity": 119,
      "chip": "ym2612"
    },
    {
      "channel": 2,
      "note": 93,
      "start": 7.0553,
      "duration": 0.0667,
      "velocity": 119,
      "chip": "ym2612"
    },
    {
      "channel": 1,
      "note": 53,
      "start": 7.2056,
      "duration": 0.1996,
      "velocity": 104,
      "chip": "ym2612"
    },
    {
      "channel": 2,
      "note": 93,
      "start": 7.2069,
      "duration": 0.0485,
      "velocity": 119,
      "chip": "ym2612"
    },
    {
      "channel": 1,
      "note": 67,
      "start": 7.4056,
      "duration": 0.1996,
      "velocity": 104,
      "chip": "ym2612"
    },
    {
      "channel": 2,
      "note": 93,
      "start": 7.4069,
      "duration": 0.0001,
      "velocity": 119,
      "chip": "ym2612"
    },
    {
      "channel": 2,
      "note": 93,
      "start": 7.407,
      "duration": 0.0009,
      "velocity": 119,
      "chip": "ym2612"
    },
    {
      "channel": 2,
      "note": 93,
      "start": 7.4079,
      "duration": 0.0474,
      "velocity": 119,
      "chip": "ym2612"
    },
    {
      "channel": 2,
      "note": 93,
      "start": 7.4553,
      "duration": 0.0667,
      "velocity": 119,
      "chip": "ym2612"
    },
    {
      "channel": 1,
      "note": 53,
      "start": 7.6056,
      "duration": 0.1998,
      "velocity": 104,
      "chip": "ym2612"
    },
    {
      "channel": 2,
      "note": 93,
      "start": 7.6069,
      "duration": 0.0485,
      "velocity": 119,
      "chip": "ym2612"
    },
    {
      "channel": 0,
      "note": 86,
      "start": 7.8053,
      "duration": 0.1995,
      "velocity": 95,
      "chip": "ym2612"
    },
    {
      "channel": 1,
      "note": 65,
      "start": 7.806,
      "duration": 0.1996,
      "velocity": 104,
      "chip": "ym2612"
    },
    {
      "channel": 2,
      "note": 93,
      "start": 7.8071,
      "duration": 0.1149,
      "velocity": 122,
      "chip": "ym2612"
    },
    {
      "channel": 3,
      "note": 77,
      "start": 7.808,
      "duration": 0.201,
      "velocity": 95,
      "chip": "ym2612"
    },
    {
      "channel": 4,
      "note": 70,
      "start": 7.8086,
      "duration": 0.2009,
      "velocity": 95,
      "chip": "ym2612"
    },
    {
      "channel": 5,
      "note": 86,
      "start": 7.9063,
      "duration": 0.1996,
      "velocity": 95,
      "chip": "ym2612"
    },
    {
      "channel": 0,
      "note": 86,
      "start": 8.0054,
      "duration": 1.3994,
      "velocity": 95,
      "chip": "ym2612"
    },
    {
      "channel": 1,
      "note": 53,
      "start": 8.006,
      "duration": 0.1992,
      "velocity": 104,
      "chip": "ym2612"
    },
    {
      "channel": 2,
      "note": 93,
      "start": 8.0072,
      "duration": 0.0001,
      "velocity": 119,
      "chip": "ym2612"
    },
    {
      "channel": 2,
      "note": 93,
      "start": 8.0073,
      "duration": 0.0009,
      "velocity": 119,
      "chip": "ym2612"
    },
    {
      "channel": 2,
      "note": 93,
      "start": 8.0082,
      "duration": 0.0471,
      "velocity": 119,
      "chip": "ym2612"
    },
    {
      "channel": 3,
      "note": 77,
      "start": 8.0093,
      "duration": 1.5996,
      "velocity": 95,
      "chip": "ym2612"
    },
    {
      "channel": 4,
      "note": 70,
      "start": 8.0099,
      "duration": 1.5997,
      "velocity": 95,
      "chip": "ym2612"
    },
    {
      "channel": 2,
      "note": 93,
      "start": 8.0553,
      "duration": 0.0667,
      "velocity": 119,
      "chip": "ym2612"
    },
    {
      "channel": 5,
      "note": 86,
      "start": 8.1064,
      "duration": 1.3996,
      "velocity": 95,
      "chip": "ym2612"
    },
    {
      "channel": 1,
      "note": 53,
      "start": 8.2056,
      "duration": 0.1996,
      "velocity": 104,
      "chip": "ym2612"
    },
    {
      "channel": 2,
      "note": 93,
      "start": 8.2069,
      "duration": 0.0001,
      "velocity": 119,
      "chip": "ym2612"
    },
    {
      "channel": 2,
      "note": 93,
      "start": 8.2069,
      "duration": 0.001,
      "velocity": 119,
      "chip": "ym2612"
    },
    {
      "channel": 2,
      "note": 93,
      "start": 8.2079,
      "duration": 0.0474,
      "velocity": 119,
      "chip": "ym2612"
    },
    {
      "channel": 2,
      "note": 93,
      "start": 8.2553,
      "duration": 0.0667,
      "velocity": 119,
      "chip": "ym2612"
    },
    {
      "channel": 1,
      "note": 65,
      "start": 8.4056,
      "duration": 0.1996,
      "velocity": 104,
      "chip": "ym2612"
    },
    {
      "channel": 2,
      "note": 93,
      "start": 8.4069,
      "duration": 0.1151,
      "velocity": 122,
      "chip": "ym2612"
    },
    {
      "channel": 1,
      "note": 53,
      "start": 8.6056,
      "duration": 0.1996,
      "velocity": 104,
      "chip": "ym2612"
    },
    {
      "channel": 2,
      "note": 93,
      "start": 8.6069,
      "duration": 0.0001,
      "velocity": 119,
      "chip": "ym2612"
    },
    {
      "channel": 2,
      "note": 93,
      "start": 8.6069,
      "duration": 0.001,
      "velocity": 119,
      "chip": "ym2612"
    },
    {
      "channel": 2,
      "note": 93,
      "start": 8.6079,
      "duration": 0.0474,
      "velocity": 119,
      "chip": "ym2612"
    },
    {
      "channel": 2,
      "note": 93,
      "start": 8.6553,
      "duration": 0.0667,
      "velocity": 119,
      "chip": "ym2612"
    },
    {
      "channel": 1,
      "note": 69,
      "start": 8.8056,
      "duration": 0.1996,
      "velocity": 104,
      "chip": "ym2612"
    },
    {
      "channel": 2,
      "note": 93,
      "start": 8.8069,
      "duration": 0.0001,
      "velocity": 119,
      "chip": "ym2612"
    },
    {
      "channel": 2,
      "note": 93,
      "start": 8.8069,
      "duration": 0.001,
      "velocity": 119,
      "chip": "ym2612"
    },
    {
      "channel": 2,
      "note": 93,
      "start": 8.8079,
      "duration": 0.0474,
      "velocity": 119,
      "chip": "ym2612"
    },
    {
      "channel": 2,
      "note": 93,
      "start": 8.8553,
      "duration": 0.0667,
      "velocity": 119,
      "chip": "ym2612"
    },
    {
      "channel": 1,
      "note": 53,
      "start": 9.0056,
      "duration": 0.1996,
      "velocity": 104,
      "chip": "ym2612"
    },
    {
      "channel": 2,
      "note": 93,
      "start": 9.0069,
      "duration": 0.0485,
      "velocity": 119,
      "chip": "ym2612"
    },
    {
      "channel": 1,
      "note": 67,
      "start": 9.2056,
      "duration": 0.1999,
      "velocity": 104,
      "chip": "ym2612"
    },
    {
      "channel": 2,
      "note": 93,
      "start": 9.2069,
      "duration": 0.1151,
      "velocity": 122,
      "chip": "ym2612"
    },
    {
      "channel": 0,
      "note": 79,
      "start": 9.4054,
      "duration": 0.0994,
      "velocity": 95,
      "chip": "ym2612"
    },
    {
      "channel": 1,
      "note": 53,
      "start": 9.406,
      "duration": 0.1995,
      "velocity": 104,
      "chip": "ym2612"
    },
    {
      "channel": 2,
      "note": 93,
      "start": 9.4072,
      "duration": 0.0481,
      "velocity": 119,
      "chip": "ym2612"
    },
    {
      "channel": 0,
      "note": 81,
      "start": 9.5054,
      "duration": 0.0994,
      "velocity": 95,
      "chip": "ym2612"
    },
    {
      "channel": 5,
      "note": 79,
      "start": 9.5066,
      "duration": 0.1036,
      "velocity": 95,
      "chip": "ym2612"
    },
    {
      "channel": 0,
      "note": 83,
      "start": 9.6054,
      "duration": 0.1994,
      "velocity": 95,
      "chip": "ym2612"
    },
    {
      "channel": 1,
      "note": 52,
      "start": 9.606,
      "duration": 0.1994,
      "velocity": 104,
      "chip": "ym2612"
    },
    {
      "channel": 2,
      "note": 93,
      "start": 9.6072,
      "duration": 0.0001,
      "velocity": 119,
      "chip": "ym2612"
    },
    {
      "channel": 2,
      "note": 93,
      "start": 9.6073,
      "duration": 0.0009,
      "velocity": 119,
      "chip": "ym2612"
    },
    {
      "channel": 2,
      "note": 93,
      "start": 9.6082,
      "duration": 0.0471,
      "velocity": 119,
      "chip": "ym2612"
    },
    {
      "channel": 3,
      "note": 76,
      "start": 9.6094,
      "duration": 0.1995,
      "velocity": 95,
      "chip": "ym2612"
    },
    {
      "channel": 4,
      "note": 69,
      "start": 9.61,
      "duration": 0.1994,
      "velocity": 95,
      "chip": "ym2612"
    },
    {
      "channel": 5,
      "note": 81,
      "start": 9.6106,
      "duration": 0.0954,
      "velocity": 95,
      "chip": "ym2612"
    },
    {
      "channel": 2,
      "note": 93,
      "start": 9.6553,
      "duration": 0.0667,
      "velocity": 119,
      "chip": "ym2612"
    },
    {
      "channel": 5,
      "note": 83,
      "start": 9.7064,
      "duration": 0.1995,
      "velocity": 95,
      "chip": "ym2612"
    },
    {
      "channel": 0,
      "note": 83,
      "start": 9.8053,
      "duration": 0.1995,
      "velocity": 95,
      "chip": "ym2612"
    },
    {
      "channel": 1,
      "note": 52,
      "start": 9.806,
      "duration": 0.1996,
      "velocity": 104,
      "chip": "ym2612"
    },
    {
      "channel": 2,
      "note": 93,
      "start": 9.8071,
      "duration": 0.0001,
      "velocity": 119,
      "chip": "ym2612"
    },
    {
      "channel": 2,
      "note": 93,
      "start": 9.8073,
      "duration": 0.0009,
      "velocity": 119,
      "chip": "ym2612"
    },
    {
      "channel": 2,
      "note": 93,
      "start": 9.8081,
      "duration": 0.0472,
      "velocity": 119,
      "chip": "ym2612"
    },
    {
      "channel": 3,
      "note": 76,
      "start": 9.8093,
      "duration": 1.3998,
      "velocity": 95,
      "chip": "ym2612"
    },
    {
      "channel": 4,
      "note": 69,
      "start": 9.8098,
      "duration": 1.3999,
      "velocity": 95,
      "chip": "ym2612"
    },
    {
      "channel": 2,
      "note": 93,
      "start": 9.8553,
      "duration": 0.0667,
      "velocity": 119,
      "chip": "ym2612"
    },
    {
      "channel": 5,
      "note": 83,
      "start": 9.9063,
      "duration": 0.2013,
      "velocity": 95,
      "chip": "ym2612"
    },
    {
      "channel": 0,
      "note": 79,
      "start": 10.0054,
      "duration": 0.5994,
      "velocity": 95,
      "chip": "ym2612"
    },
    {
      "channel": 1,
      "note": 52,
      "start": 10.006,
      "duration": 0.0992,
      "velocity": 104,
      "chip": "ym2612"
    },
    {
      "channel": 2,
      "note": 93,
      "start": 10.0072,
      "duration": 0.0481,
      "velocity": 119,
      "chip": "ym2612"
    },
    {
      "channel": 1,
      "note": 64,
      "start": 10.1056,
      "duration": 0.0996,
      "velocity": 104,
      "chip": "ym2612"
    },
    {
      "channel": 2,
      "note": 93,
      "start": 10.1069,
      "duration": 0.1151,
      "velocity": 122,
      "chip": "ym2612"
    },
    {
      "channel": 5,
      "note": 79,
      "start": 10.1081,
      "duration": 0.5976,
      "velocity": 95,
      "chip": "ym2612"
    },
    {
      "channel": 1,
      "note": 52,
      "start": 10.2056,
      "duration": 0.0996,
      "velocity": 104,
      "chip": "ym2612"
    },
    {
      "channel": 1,
      "note": 64,
      "start": 10.3056,
      "duration": 0.0996,
      "velocity": 104,
      "chip": "ym2612"
    },
    {
      "channel": 2,
      "note": 93,
      "start": 10.3069,
      "duration": 0.0001,
      "velocity": 119,
      "chip": "ym2612"
    },
    {
      "channel": 2,
      "note": 93,
      "start": 10.3069,
      "duration": 0.001,
      "velocity": 119,
      "chip": "ym2612"
    },
    {
      "channel": 2,
      "note": 93,
      "start": 10.3079,
      "duration": 0.0474,
      "velocity": 119,
      "chip": "ym2612"
    },
    {
      "channel": 2,
      "note": 93,
      "start": 10.3553,
      "duration": 0.0506,
      "velocity": 119,
      "chip": "ym2612"
    },
    {
      "channel": 1,
      "note": 52,
      "start": 10.4056,
      "duration": 0.1999,
      "velocity": 104,
      "chip": "ym2612"
    },
    {
      "channel": 2,
      "note": 93,
      "start": 10.4059,
      "duration": 0.001,
      "velocity": 119,
      "chip": "ym2612"
    },
    {
      "channel": 2,
      "note": 93,
      "start": 10.4069,
      "duration": 0.0001,
      "velocity": 119,
      "chip": "ym2612"
    },
    {
      "channel": 2,
      "note": 93,
      "start": 10.407,
      "duration": 0.0009,
      "velocity": 119,
      "chip": "ym2612"
    },
    {
      "channel": 2,
      "note": 93,
      "start": 10.4079,
      "duration": 0.0474,
      "velocity": 119,
      "chip": "ym2612"
    },
    {
      "channel": 2,
      "note": 93,
      "start": 10.4553,
      "duration": 0.0501,
      "velocity": 119,
      "chip": "ym2612"
    },
    {
      "channel": 2,
      "note": 93,
      "start": 10.5054,
      "duration": 0.001,
      "velocity": 119,
      "chip": "ym2612"
    },
    {
      "channel": 2,
      "note": 93,
      "start": 10.5063,
      "duration": 0.0159,
      "velocity": 119,
      "chip": "ym2612"
    },
    {
      "channel": 2,
      "note": 93,
      "start": 10.5223,
      "duration": 0.0331,
      "velocity": 119,
      "chip": "ym2612"
    },
    {
      "channel": 0,
      "note": 76,
      "start": 10.6054,
      "duration": 0.1994,
      "velocity": 95,
      "chip": "ym2612"
    },
    {
      "channel": 1,
      "note": 52,
      "start": 10.606,
      "duration": 0.1995,
      "velocity": 104,
      "chip": "ym2612"
    },
    {
      "channel": 2,
      "note": 93,
      "start": 10.6072,
      "duration": 0.0481,
      "velocity": 119,
      "chip": "ym2612"
    },
    {
      "channel": 5,
      "note": 76,
      "start": 10.7062,
      "duration": 0.1998,
      "velocity": 95,
      "chip": "ym2612"
    },
    {
      "channel": 0,
      "note": 79,
      "start": 10.8054,
      "duration": 0.1994,
      "velocity": 95,
      "chip": "ym2612"
    },
    {
      "channel": 1,
      "note": 52,
      "start": 10.806,
      "duration": 0.1996,
      "velocity": 104,
      "chip": "ym2612"
    },
    {
      "channel": 2,
      "note": 93,
      "start": 10.8072,
      "duration": 0.1148,
      "velocity": 122,
      "chip": "ym2612"
    },
    {
      "channel": 5,
      "note": 79,
      "start": 10.9064,
      "duration": 0.2011,
      "velocity": 95,
      "chip": "ym2612"
    },
    {
      "channel": 0,
      "note": 73,
      "start": 11.0054,
      "duration": 0.0994,
      "velocity": 95,
      "chip": "ym2612"
    },
    {
      "channel": 1,
      "note": 64,
      "start": 11.006,
      "duration": 0.1995,
      "velocity": 104,
      "chip": "ym2612"
    },
    {
      "channel": 2,
      "note": 93,
      "start": 11.0072,
      "duration": 0.0481,
      "velocity": 119,
      "chip": "ym2612"
    },
    {
      "channel": 0,
      "note": 74,
      "start": 11.1054,
      "duration": 0.0994,
      "velocity": 95,
      "chip": "ym2612"
    },
    {
      "channel": 2,
      "note": 93,
      "start": 11.1067,
      "duration": 0.0486,
      "velocity": 119,
      "chip": "ym2612"
    },
    {
      "channel": 5,
      "note": 73,
      "start": 11.1079,
      "duration": 0.1023,
      "velocity": 95,
      "chip": "ym2612"
    },
    {
      "channel": 0,
      "note": 76,
      "start": 11.2054,
      "duration": 0.5994,
      "velocity": 95,
      "chip": "ym2612"
    },
    {
      "channel": 1,
      "note": 52,
      "start": 11.206,
      "duration": 0.1992,
      "velocity": 104,
      "chip": "ym2612"
    },
    {
      "channel": 2,
      "note": 93,
      "start": 11.2073,
      "duration": 0.0001,
      "velocity": 119,
      "chip": "ym2612"
    },
    {
      "channel": 2,
      "note": 93,
      "start": 11.2074,
      "duration": 0.001,
      "velocity": 119,
      "chip": "ym2612"
    },
    {
      "channel": 2,
      "note": 93,
      "start": 11.2083,
      "duration": 0.047,
      "velocity": 119,
      "chip": "ym2612"
    },
    {
      "channel": 3,
      "note": 76,
      "start": 11.2095,
      "duration": 0.1991,
      "velocity": 95,
      "chip": "ym2612"
    },
    {
      "channel": 4,
      "note": 69,
      "start": 11.2101,
      "duration": 0.199,
      "velocity": 95,
      "chip": "ym2612"
    },
    {
      "channel": 5,
      "note": 74,
      "start": 11.2107,
      "duration": 0.0953,
      "velocity": 95,
      "chip": "ym2612"
    },
    {
      "channel": 2,
      "note": 93,
      "start": 11.2553,
      "duration": 0.0667,
      "velocity": 119,
      "chip": "ym2612"
    },
    {
      "channel": 5,
      "note": 76,
      "start": 11.3064,
      "duration": 0.6024,
      "velocity": 95,
      "chip": "ym2612"
    },
    {
      "channel": 1,
      "note": 52,
      "start": 11.4056,
      "duration": 0.1996,
      "velocity": 104,
      "chip": "ym2612"
    },
    {
      "channel": 2,
      "note": 93,
      "start": 11.4069,
      "duration": 0.0001,
      "velocity": 119,
      "chip": "ym2612"
    },
    {
      "channel": 2,
      "note": 93,
      "start": 11.4069,
      "duration": 0.001,
      "velocity": 119,
      "chip": "ym2612"
    },
    {
      "channel": 2,
      "note": 93,
      "start": 11.4079,
      "duration": 0.0474,
      "velocity": 119,
      "chip": "ym2612"
    },
    {
      "channel": 3,
      "note": 76,
      "start": 11.409,
      "duration": 0.9987,
      "velocity": 95,
      "chip": "ym2612"
    },
    {
      "channel": 4,
      "note": 69,
      "start": 11.4095,
      "duration": 0.9987,
      "velocity": 95,
      "chip": "ym2612"
    },
    {
      "channel": 2,
      "note": 93,
      "start": 11.4553,
      "duration": 0.0667,
      "velocity": 119,
      "chip": "ym2612"
    },
    {
      "channel": 1,
      "note": 52,
      "start": 11.6056,
      "duration": 0.0996,
      "velocity": 104,
      "chip": "ym2612"
    },
    {
      "channel": 2,
      "note": 93,
      "start": 11.6069,
      "duration": 0.0485,
      "velocity": 119,
      "chip": "ym2612"
    },
    {
      "channel": 1,
      "note": 64,
      "start": 11.7056,
      "duration": 0.0999,
      "velocity": 104,
      "chip": "ym2612"
    },
    {
      "channel": 2,
      "note": 93,
      "start": 11.7069,
      "duration": 0.1151,
      "velocity": 122,
      "chip": "ym2612"
    },
    {
      "channel": 0,
      "note": 81,
      "start": 11.8054,
      "duration": 0.1994,
      "velocity": 95,
      "chip": "ym2612"
    },
    {
      "channel": 1,
      "note": 52,
      "start": 11.806,
      "duration": 0.0992,
      "velocity": 104,
      "chip": "ym2612"
    },
    {
      "channel": 1,
      "note": 64,
      "start": 11.9056,
      "duration": 0.0999,
      "velocity": 104,
      "chip": "ym2612"
    },
    {
      "channel": 2,
      "note": 93,
      "start": 11.9069,
      "duration": 0.0001,
      "velocity": 119,
      "chip": "ym2612"
    },
    {
      "channel": 2,
      "note": 93,
      "start": 11.9069,
      "duration": 0.001,
      "velocity": 119,
      "chip": "ym2612"
    },
    {
      "channel": 2,
      "note": 93,
      "start": 11.9079,
      "duration": 0.0474,
      "velocity": 119,
      "chip": "ym2612"
    },
    {
      "channel": 5,
      "note": 81,
      "start": 11.9093,
      "duration": 0.198,
      "velocity": 95,
      "chip": "ym2612"
    },
    {
      "channel": 2,
      "note": 93,
      "start": 11.9553,
      "duration": 0.0509,
      "velocity": 119,
      "chip": "ym2612"
    },
    {
      "channel": 0,
      "note": 79,
      "start": 12.0054,
      "duration": 0.1994,
      "velocity": 95,
      "chip": "ym2612"
    },
    {
      "channel": 1,
      "note": 52,
      "start": 12.006,
      "duration": 0.1995,
      "velocity": 104,
      "chip": "ym2612"
    },
    {
      "channel": 2,
      "note": 93,
      "start": 12.0062,
      "duration": 0.001,
      "velocity": 119,
      "chip": "ym2612"
    },
    {
      "channel": 2,
      "note": 93,
      "start": 12.0072,
      "duration": 0.0001,
      "velocity": 119,
      "chip": "ym2612"
    },
    {
      "channel": 2,
      "note": 93,
      "start": 12.0073,
      "duration": 0.0009,
      "velocity": 119,
      "chip": "ym2612"
    },
    {
      "channel": 2,
      "note": 93,
      "start": 12.0082,
      "duration": 0.0471,
      "velocity": 119,
      "chip": "ym2612"
    },
    {
      "channel": 2,
      "note": 93,
      "start": 12.0553,
      "duration": 0.0501,
      "velocity": 119,
      "chip": "ym2612"
    },
    {
      "channel": 2,
      "note": 93,
      "start": 12.1054,
      "duration": 0.001,
      "velocity": 119,
      "chip": "ym2612"
    },
    {
      "channel": 2,
      "note": 93,
      "start": 12.1063,
      "duration": 0.0159,
      "velocity": 119,
      "chip": "ym2612"
    },
    {
      "channel": 5,
      "note": 79,
      "start": 12.1079,
      "duration": 0.1978,
      "velocity": 95,
      "chip": "ym2612"
    },
    {
      "channel": 2,
      "note": 93,
      "start": 12.1223,
      "duration": 0.0331,
      "velocity": 119,
      "chip": "ym2612"
    },
    {
      "channel": 0,
      "note": 76,
      "start": 12.2054,
      "duration": 0.1994,
      "velocity": 95,
      "chip": "ym2612"
    },
    {
      "channel": 1,
      "note": 52,
      "start": 12.206,
      "duration": 0.1996,
      "velocity": 104,
      "chip": "ym2612"
    },
    {
      "channel": 2,
      "note": 93,
      "start": 12.2072,
      "duration": 0.0481,
      "velocity": 119,
      "chip": "ym2612"
    },
    {
      "channel": 5,
      "note": 76,
      "start": 12.3062,
      "duration": 0.1998,
      "velocity": 95,
      "chip": "ym2612"
    },
    {
      "channel": 0,
      "note": 79,
      "start": 12.4054,
      "duration": 0.1994,
      "velocity": 95,
      "chip": "ym2612"
    },
    {
      "channel": 1,
      "note": 52,
      "start": 12.406,
      "duration": 0.1996,
      "velocity": 104,
      "chip": "ym2612"
    },
    {
      "channel": 2,
      "note": 93,
      "start": 12.4072,
      "duration": 0.1148,
      "velocity": 122,
      "chip": "ym2612"
    },
    {
      "channel": 3,
      "note": 76,
      "start": 12.4081,
      "duration": 0.4009,
      "velocity": 95,
      "chip": "ym2612"
    },
    {
      "channel": 4,
      "note": 69,
      "start": 12.4088,
      "duration": 0.4008,
      "velocity": 95,
      "chip": "ym2612"
    },
    {
      "channel": 5,
      "note": 79,
      "start": 12.5064,
      "duration": 0.2008,
      "velocity": 95,
      "chip": "ym2612"
    },
    {
      "channel": 0,
      "note": 81,
      "start": 12.6054,
      "duration": 0.1994,
      "velocity": 95,
      "chip": "ym2612"
    },
    {
      "channel": 1,
      "note": 64,
      "start": 12.606,
      "duration": 0.1996,
      "velocity": 104,
      "chip": "ym2612"
    },
    {
      "channel": 2,
      "note": 93,
      "start": 12.6072,
      "duration": 0.0481,
      "velocity": 119,
      "chip": "ym2612"
    },
    {
      "channel": 2,
      "note": 93,
      "start": 12.7063,
      "duration": 0.049,
      "velocity": 119,
      "chip": "ym2612"
    },
    {
      "channel": 5,
      "note": 81,
      "start": 12.7076,
      "duration": 0.1983,
      "velocity": 95,
      "chip": "ym2612"
    },
    {
      "channel": 0,
      "note": 88,
      "start": 12.8054,
      "duration": 0.1994,
      "velocity": 95,
      "chip": "ym2612"
    },
    {
      "channel": 1,
      "note": 53,
      "start": 12.806,
      "duration": 0.1996,
      "velocity": 104,
      "chip": "ym2612"
    },
    {
      "channel": 2,
      "note": 93,
      "start": 12.8073,
      "duration": 0.0001,
      "velocity": 119,
      "chip": "ym2612"
    },
    {
      "channel": 2,
      "note": 93,
      "start": 12.8074,
      "duration": 0.0009,
      "velocity": 119,
      "chip": "ym2612"
    },
    {
      "channel": 2,
      "note": 93,
      "start": 12.8083,
      "duration": 0.0471,
      "velocity": 119,
      "chip": "ym2612"
    },
    {
      "channel": 3,
      "note": 77,
      "start": 12.8095,
      "duration": 1.5995,
      "velocity": 95,
      "chip": "ym2612"
    },
    {
      "channel": 4,
      "note": 70,
      "start": 12.8101,
      "duration": 1.5994,
      "velocity": 95,
      "chip": "ym2612"
    },
    {
      "channel": 2,
      "note": 93,
      "start": 12.8553,
      "duration": 0.0667,
      "velocity": 119,
      "chip": "ym2612"
    },
    {
      "channel": 5,
      "note": 88,
      "start": 12.9064,
      "duration": 0.1995,
      "velocity": 95,
      "chip": "ym2612"
    },
    {
      "channel": 0,
      "note": 86,
      "start": 13.0054,
      "duration": 0.7994,
      "velocity": 95,
      "chip": "ym2612"
    },
    {
      "channel": 1,
      "note": 53,
      "start": 13.006,
      "duration": 0.1992,
      "velocity": 104,
      "chip": "ym2612"
    },
    {
      "channel": 2,
      "note": 93,
      "start": 13.0072,
      "duration": 0.0001,
      "velocity": 119,
      "chip": "ym2612"
    },
    {
      "channel": 2,
      "note": 93,
      "start": 13.0073,
      "duration": 0.0009,
      "velocity": 119,
      "chip": "ym2612"
    },
    {
      "channel": 2,
      "note": 93,
      "start": 13.0082,
      "duration": 0.0471,
      "velocity": 119,
      "chip": "ym2612"
    },
    {
      "channel": 2,
      "note": 93,
      "start": 13.0553,
      "duration": 0.0667,
      "velocity": 119,
      "chip": "ym2612"
    },
    {
      "channel": 5,
      "note": 86,
      "start": 13.1064,
      "duration": 0.7993,
      "velocity": 95,
      "chip": "ym2612"
    },
    {
      "channel": 1,
      "note": 65,
      "start": 13.2056,
      "duration": 0.1996,
      "velocity": 104,
      "chip": "ym2612"
    },
    {
      "channel": 2,
      "note": 93,
      "start": 13.2069,
      "duration": 0.0485,
      "velocity": 119,
      "chip": "ym2612"
    },
    {
      "channel": 2,
      "note": 93,
      "start": 13.3063,
      "duration": 0.1156,
      "velocity": 122,
      "chip": "ym2612"
    },
    {
      "channel": 1,
      "note": 69,
      "start": 13.4056,
      "duration": 0.1996,
      "velocity": 104,
      "chip": "ym2612"
    },
    {
      "channel": 2,
      "note": 93,
      "start": 13.5063,
      "duration": 0.0001,
      "velocity": 119,
      "chip": "ym2612"
    },
    {
      "channel": 2,
      "note": 93,
      "start": 13.5065,
      "duration": 0.0009,
      "velocity": 119,
      "chip": "ym2612"
    },
    {
      "channel": 2,
      "note": 93,
      "start": 13.5074,
      "duration": 0.048,
      "velocity": 119,
      "chip": "ym2612"
    },
    {
      "channel": 2,
      "note": 93,
      "start": 13.5553,
      "duration": 0.0505,
      "velocity": 119,
      "chip": "ym2612"
    },
    {
      "channel": 1,
      "note": 53,
      "start": 13.6056,
      "duration": 0.1998,
      "velocity": 104,
      "chip": "ym2612"
    },
    {
      "channel": 2,
      "note": 93,
      "start": 13.6059,
      "duration": 0.001,
      "velocity": 119,
      "chip": "ym2612"
    },
    {
      "channel": 2,
      "note": 93,
      "start": 13.6069,
      "duration": 0.0001,
      "velocity": 119,
      "chip": "ym2612"
    },
    {
      "channel": 2,
      "note": 93,
      "start": 13.6069,
      "duration": 0.001,
      "velocity": 119,
      "chip": "ym2612"
    },
    {
      "channel": 2,
      "note": 93,
      "start": 13.6079,
      "duration": 0.0474,
      "velocity": 119,
      "chip": "ym2612"
    },
    {
      "channel": 2,
      "note": 93,
      "start": 13.6553,
      "duration": 0.0501,
      "velocity": 119,
      "chip": "ym2612"
    },
    {
      "channel": 2,
      "note": 93,
      "start": 13.7054,
      "duration": 0.001,
      "velocity": 119,
      "chip": "ym2612"
    },
    {
      "channel": 2,
      "note": 93,
      "start": 13.7064,
      "duration": 0.0159,
      "velocity": 119,
      "chip": "ym2612"
    },
    {
      "channel": 2,
      "note": 93,
      "start": 13.7223,
      "duration": 0.0332,
      "velocity": 119,
      "chip": "ym2612"
    },
    {
      "channel": 0,
      "note": 86,
      "start": 13.8053,
      "duration": 0.5995,
      "velocity": 95,
      "chip": "ym2612"
    },
    {
      "channel": 1,
      "note": 67,
      "start": 13.806,
      "duration": 0.1993,
      "velocity": 104,
      "chip": "ym2612"
    },
    {
      "channel": 2,
      "note": 93,
      "start": 13.8071,
      "duration": 0.0482,
      "velocity": 119,
      "chip": "ym2612"
    },
    {
      "channel": 5,
      "note": 86,
      "start": 13.9061,
      "duration": 0.5999,
      "velocity": 95,
      "chip": "ym2612"
    },
    {
      "channel": 1,
      "note": 53,
      "start": 14.0056,
      "duration": 0.1996,
      "velocity": 104,
      "chip": "ym2612"
    },
    {
      "channel": 2,
      "note": 93,
      "start": 14.0069,
      "duration": 0.1151,
      "velocity": 122,
      "chip": "ym2612"
    },
    {
      "channel": 1,
      "note": 65,
      "start": 14.2056,
      "duration": 0.1999,
      "velocity": 104,
      "chip": "ym2612"
    },
    {
      "channel": 2,
      "note": 93,
      "start": 14.2069,
      "duration": 0.0485,
      "velocity": 119,
      "chip": "ym2612"
    },
    {
      "channel": 2,
      "note": 93,
      "start": 14.3063,
      "duration": 0.049,
      "velocity": 119,
      "chip": "ym2612"
    },
    {
      "channel": 0,
      "note": 88,
      "start": 14.4054,
      "duration": 0.1994,
      "velocity": 95,
      "chip": "ym2612"
    },
    {
      "channel": 1,
      "note": 53,
      "start": 14.406,
      "duration": 0.1995,
      "velocity": 104,
      "chip": "ym2612"
    },
    {
      "channel": 2,
      "note": 93,
      "start": 14.4073,
      "duration": 0.0001,
      "velocity": 119,
      "chip": "ym2612"
    },
    {
      "channel": 2,
      "note": 93,
      "start": 14.4074,
      "duration": 0.001,
      "velocity": 119,
      "chip": "ym2612"
    },
    {
      "channel": 2,
      "note": 93,
      "start": 14.4083,
      "duration": 0.047,
      "velocity": 119,
      "chip": "ym2612"
    },
    {
      "channel": 3,
      "note": 77,
      "start": 14.4094,
      "duration": 0.1995,
      "velocity": 95,
      "chip": "ym2612"
    },
    {
      "channel": 4,
      "note": 70,
      "start": 14.41,
      "duration": 0.1995,
      "velocity": 95,
      "chip": "ym2612"
    },
    {
      "channel": 2,
      "note": 93,
      "start": 14.4553,
      "duration": 0.0667,
      "velocity": 119,
      "chip": "ym2612"
    },
    {
      "channel": 5,
      "note": 88,
      "start": 14.5064,
      "duration": 0.1995,
      "velocity": 95,
      "chip": "ym2612"
    },
    {
      "channel": 0,
      "note": 86,
      "start": 14.6054,
      "duration": 1.1994,
      "velocity": 95,
      "chip": "ym2612"
    },
    {
      "channel": 1,
      "note": 53,
      "start": 14.606,
      "duration": 0.1992,
      "velocity": 104,
      "chip": "ym2612"
    },
    {
      "channel": 2,
      "note": 93,
      "start": 14.6072,
      "duration": 0.0001,
      "velocity": 119,
      "chip": "ym2612"
    },
    {
      "channel": 2,
      "note": 93,
      "start": 14.6073,
      "duration": 0.0009,
      "velocity": 119,
      "chip": "ym2612"
    },
    {
      "channel": 2,
      "note": 93,
      "start": 14.6082,
      "duration": 0.0471,
      "velocity": 119,
      "chip": "ym2612"
    },
    {
      "channel": 3,
      "note": 77,
      "start": 14.6093,
      "duration": 1.3996,
      "velocity": 95,
      "chip": "ym2612"
    },
    {
      "channel": 4,
      "note": 70,
      "start": 14.6099,
      "duration": 1.3997,
      "velocity": 95,
      "chip": "ym2612"
    },
    {
      "channel": 2,
      "note": 93,
      "start": 14.6553,
      "duration": 0.0667,
      "velocity": 119,
      "chip": "ym2612"
    },
    {
      "channel": 5,
      "note": 86,
      "start": 14.7064,
      "duration": 1.1996,
      "velocity": 95,
      "chip": "ym2612"
    },
    {
      "channel": 1,
      "note": 65,
      "start": 14.8056,
      "duration": 0.1996,
      "velocity": 104,
      "chip": "ym2612"
    },
    {
      "channel": 2,
      "note": 93,
      "start": 14.8069,
      "duration": 0.1151,
      "velocity": 122,
      "chip": "ym2612"
    },
    {
      "channel": 1,
      "note": 69,
      "start": 15.0056,
      "duration": 0.1996,
      "velocity": 104,
      "chip": "ym2612"
    },
    {
      "channel": 2,
      "note": 93,
      "start": 15.0069,
      "duration": 0.0001,
      "velocity": 119,
      "chip": "ym2612"
    },
    {
      "channel": 2,
      "note": 93,
      "start": 15.007,
      "duration": 0.0009,
      "velocity": 119,
      "chip": "ym2612"
    },
    {
      "channel": 2,
      "note": 93,
      "start": 15.0079,
      "duration": 0.0474,
      "velocity": 119,
      "chip": "ym2612"
    },
    {
      "channel": 2,
      "note": 93,
      "start": 15.0553,
      "duration": 0.0667,
      "velocity": 119,
      "chip": "ym2612"
    },
    {
      "channel": 1,
      "note": 67,
      "start": 15.2056,
      "duration": 0.1996,
      "velocity": 104,
      "chip": "ym2612"
    },
    {
      "channel": 2,
      "note": 93,
      "start": 15.2069,
      "duration": 0.0001,
      "velocity": 119,
      "chip": "ym2612"
    },
    {
      "channel": 2,
      "note": 93,
      "start": 15.2069,
      "duration": 0.001,
      "velocity": 119,
      "chip": "ym2612"
    },
    {
      "channel": 2,
      "note": 93,
      "start": 15.2079,
      "duration": 0.0474,
      "velocity": 119,
      "chip": "ym2612"
    },
    {
      "channel": 2,
      "note": 93,
      "start": 15.2553,
      "duration": 0.0667,
      "velocity": 119,
      "chip": "ym2612"
    },
    {
      "channel": 1,
      "note": 53,
      "start": 15.4056,
      "duration": 0.1996,
      "velocity": 104,
      "chip": "ym2612"
    },
    {
      "channel": 2,
      "note": 93,
      "start": 15.4069,
      "duration": 0.0001,
      "velocity": 119,
      "chip": "ym2612"
    },
    {
      "channel": 2,
      "note": 93,
      "start": 15.4069,
      "duration": 0.001,
      "velocity": 119,
      "chip": "ym2612"
    },
    {
      "channel": 2,
      "note": 93,
      "start": 15.4079,
      "duration": 0.0474,
      "velocity": 119,
      "chip": "ym2612"
    },
    {
      "channel": 2,
      "note": 93,
      "start": 15.4553,
      "duration": 0.0667,
      "velocity": 119,
      "chip": "ym2612"
    },
    {
      "channel": 1,
      "note": 65,
      "start": 15.6056,
      "duration": 0.1999,
      "velocity": 104,
      "chip": "ym2612"
    },
    {
      "channel": 2,
      "note": 93,
      "start": 15.6069,
      "duration": 0.1151,
      "velocity": 122,
      "chip": "ym2612"
    },
    {
      "channel": 0,
      "note": 88,
      "start": 15.8054,
      "duration": 0.0994,
      "velocity": 95,
      "chip": "ym2612"
    },
    {
      "channel": 1,
      "note": 67,
      "start": 15.806,
      "duration": 0.1995,
      "velocity": 104,
      "chip": "ym2612"
    },
    {
      "channel": 2,
      "note": 93,
      "start": 15.8072,
      "duration": 0.0481,
      "velocity": 119,
      "chip": "ym2612"
    },
    {
      "channel": 0,
      "note": 86,
      "start": 15.9054,
      "duration": 0.0328,
      "velocity": 95,
      "chip": "ym2612"
    },
    {
      "channel": 5,
      "note": 88,
      "start": 15.9066,
      "duration": 0.1036,
      "velocity": 95,
      "chip": "ym2612"
    },
    {
      "channel": 0,
      "note": 84,
      "start": 15.9387,
      "duration": 0.0661,
      "velocity": 95,
      "chip": "ym2612"
    },
    {
      "channel": 0,
      "note": 83,
      "start": 16.0054,
      "duration": 0.4663,
      "velocity": 95,
      "chip": "ym2612"
    },
    {
      "channel": 1,
      "note": 52,
      "start": 16.006,
      "duration": 0.1992,
      "velocity": 104,
      "chip": "ym2612"
    },
    {
      "channel": 2,
      "note": 93,
      "start": 16.0072,
      "duration": 0.0001,
      "velocity": 119,
      "chip": "ym2612"
    },
    {
      "channel": 2,
      "note": 93,
      "start": 16.0073,
      "duration": 0.0009,
      "velocity": 119,
      "chip": "ym2612"
    },
    {
      "channel": 2,
      "note": 93,
      "start": 16.0082,
      "duration": 0.0471,
      "velocity": 119,
      "chip": "ym2612"
    },
    {
      "channel": 3,
      "note": 76,
      "start": 16.0094,
      "duration": 1.0631,
      "velocity": 95,
      "chip": "ym2612"
    },
    {
      "channel": 4,
      "note": 69,
      "start": 16.01,
      "duration": 1.0628,
      "velocity": 95,
      "chip": "ym2612"
    },
    {
      "channel": 5,
      "note": 86,
      "start": 16.0106,
      "duration": 0.0291,
      "velocity": 95,
      "chip": "ym2612"
    },
    {
      "channel": 5,
      "note": 84,
      "start": 16.0402,
      "duration": 0.066,
      "velocity": 95,
      "chip": "ym2612"
    },
    {
      "channel": 2,
      "note": 93,
      "start": 16.0553,
      "duration": 0.0667,
      "velocity": 119,
      "chip": "ym2612"
    },
    {
      "channel": 5,
      "note": 83,
      "start": 16.1066,
      "duration": 0.4664,
      "velocity": 95,
      "chip": "ym2612"
    },
    {
      "channel": 1,
      "note": 52,
      "start": 16.2056,
      "duration": 0.1996,
      "velocity": 104,
      "chip": "ym2612"
    },
    {
      "channel": 2,
      "note": 93,
      "start": 16.2069,
      "duration": 0.0001,
      "velocity": 119,
      "chip": "ym2612"
    },
    {
      "channel": 2,
      "note": 93,
      "start": 16.2069,
      "duration": 0.001,
      "velocity": 119,
      "chip": "ym2612"
    },
    {
      "channel": 2,
      "note": 93,
      "start": 16.2079,
      "duration": 0.0474,
      "velocity": 119,
      "chip": "ym2612"
    },
    {
      "channel": 2,
      "note": 93,
      "start": 16.2553,
      "duration": 0.0667,
      "velocity": 119,
      "chip": "ym2612"
    },
    {
      "channel": 1,
      "note": 52,
      "start": 16.4056,
      "duration": 0.0996,
      "velocity": 104,
      "chip": "ym2612"
    },
    {
      "channel": 2,
      "note": 93,
      "start": 16.4069,
      "duration": 0.0485,
      "velocity": 119,
      "chip": "ym2612"
    },
    {
      "channel": 0,
      "note": 83,
      "start": 16.4718,
      "duration": 2.133,
      "velocity": 95,
      "chip": "ym2612"
    },
    {
      "channel": 1,
      "note": 64,
      "start": 16.5056,
      "duration": 0.0996,
      "velocity": 104,
      "chip": "ym2612"
    },
    {
      "channel": 2,
      "note": 93,
      "start": 16.5069,
      "duration": 0.1151,
      "velocity": 122,
      "chip": "ym2612"
    },
    {
      "channel": 5,
      "note": 83,
      "start": 16.5731,
      "duration": 2.1341,
      "velocity": 95,
      "chip": "ym2612"
    },
    {
      "channel": 1,
      "note": 52,
      "start": 16.6056,
      "duration": 0.0996,
      "velocity": 104,
      "chip": "ym2612"
    },
    {
      "channel": 1,
      "note": 64,
      "start": 16.7056,
      "duration": 0.0996,
      "velocity": 104,
      "chip": "ym2612"
    },
    {
      "channel": 2,
      "note": 93,
      "start": 16.7069,
      "duration": 0.0001,
      "velocity": 119,
      "chip": "ym2612"
    },
    {
      "channel": 2,
      "note": 93,
      "start": 16.707,
      "duration": 0.0009,
      "velocity": 119,
      "chip": "ym2612"
    },
    {
      "channel": 2,
      "note": 93,
      "start": 16.7079,
      "duration": 0.0476,
      "velocity": 119,
      "chip": "ym2612"
    },
    {
      "channel": 2,
      "note": 93,
      "start": 16.7555,
      "duration": 0.0505,
      "velocity": 119,
      "chip": "ym2612"
    },
    {
      "channel": 1,
      "note": 52,
      "start": 16.8056,
      "duration": 0.1996,
      "velocity": 104,
      "chip": "ym2612"
    },
    {
      "channel": 2,
      "note": 93,
      "start": 16.806,
      "duration": 0.001,
      "velocity": 119,
      "chip": "ym2612"
    },
    {
      "channel": 2,
      "note": 93,
      "start": 16.8069,
      "duration": 0.0001,
      "velocity": 119,
      "chip": "ym2612"
    },
    {
      "channel": 2,
      "note": 93,
      "start": 16.8071,
      "duration": 0.0009,
      "velocity": 119,
      "chip": "ym2612"
    },
    {
      "channel": 2,
      "note": 93,
      "start": 16.8079,
      "duration": 0.0474,
      "velocity": 119,
      "chip": "ym2612"
    },
    {
      "channel": 2,
      "note": 93,
      "start": 16.8553,
      "duration": 0.0667,
      "velocity": 119,
      "chip": "ym2612"
    },
    {
      "channel": 1,
      "note": 52,
      "start": 17.0056,
      "duration": 0.1996,
      "velocity": 104,
      "chip": "ym2612"
    },
    {
      "channel": 2,
      "note": 93,
      "start": 17.0069,
      "duration": 0.0001,
      "velocity": 119,
      "chip": "ym2612"
    },
    {
      "channel": 2,
      "note": 93,
      "start": 17.007,
      "duration": 0.0009,
      "velocity": 119,
      "chip": "ym2612"
    },
    {
      "channel": 2,
      "note": 93,
      "start": 17.0079,
      "duration": 0.0474,
      "velocity": 119,
      "chip": "ym2612"
    },
    {
      "channel": 2,
      "note": 93,
      "start": 17.0553,
      "duration": 0.0667,
      "velocity": 119,
      "chip": "ym2612"
    },
    {
      "channel": 3,
      "note": 76,
      "start": 17.0725,
      "duration": 2.1364,
      "velocity": 95,
      "chip": "ym2612"
    },
    {
      "channel": 4,
      "note": 69,
      "start": 17.0729,
      "duration": 2.1366,
      "velocity": 95,
      "chip": "ym2612"
    },
    {
      "channel": 1,
      "note": 52,
      "start": 17.2056,
      "duration": 0.1996,
      "velocity": 104,
      "chip": "ym2612"
    },
    {
      "channel": 2,
      "note": 93,
      "start": 17.2069,
      "duration": 0.0485,
      "velocity": 119,
      "chip": "ym2612"
    },
    {
      "channel": 2,
      "note": 93,
      "start": 17.3064,
      "duration": 0.1156,
      "velocity": 122,
      "chip": "ym2612"
    },
    {
      "channel": 1,
      "note": 64,
      "start": 17.4056,
      "duration": 0.1996,
      "velocity": 104,
      "chip": "ym2612"
    },
    {
      "channel": 2,
      "note": 93,
      "start": 17.5064,
      "duration": 0.0001,
      "velocity": 119,
      "chip": "ym2612"
    },
    {
      "channel": 2,
      "note": 93,
      "start": 17.5065,
      "duration": 0.001,
      "velocity": 119,
      "chip": "ym2612"
    },
    {
      "channel": 2,
      "note": 93,
      "start": 17.5074,
      "duration": 0.048,
      "velocity": 119,
      "chip": "ym2612"
    },
    {
      "channel": 2,
      "note": 93,
      "start": 17.5555,
      "duration": 0.0505,
      "velocity": 119,
      "chip": "ym2612"
    },
    {
      "channel": 1,
      "note": 52,
      "start": 17.6056,
      "duration": 0.1996,
      "velocity": 104,
      "chip": "ym2612"
    },
    {
      "channel": 2,
      "note": 93,
      "start": 17.606,
      "duration": 0.001,
      "velocity": 119,
      "chip": "ym2612"
    },
    {
      "channel": 2,
      "note": 93,
      "start": 17.6069,
      "duration": 0.0001,
      "velocity": 119,
      "chip": "ym2612"
    },
    {
      "channel": 2,
      "note": 93,
      "start": 17.6071,
      "duration": 0.0009,
      "velocity": 119,
      "chip": "ym2612"
    },
    {
      "channel": 2,
      "note": 93,
      "start": 17.6079,
      "duration": 0.0475,
      "velocity": 119,
      "chip": "ym2612"
    },
    {
      "channel": 2,
      "note": 93,
      "start": 17.6554,
      "duration": 0.0667,
      "velocity": 119,
      "chip": "ym2612"
    },
    {
      "channel": 1,
      "note": 52,
      "start": 17.8057,
      "duration": 0.1995,
      "velocity": 104,
      "chip": "ym2612"
    },
    {
      "channel": 2,
      "note": 93,
      "start": 17.8069,
      "duration": 0.0001,
      "velocity": 119,
      "chip": "ym2612"
    },
    {
      "channel": 2,
      "note": 93,
      "start": 17.807,
      "duration": 0.0009,
      "velocity": 119,
      "chip": "ym2612"
    },
    {
      "channel": 2,
      "note": 93,
      "start": 17.8079,
      "duration": 0.0475,
      "velocity": 119,
      "chip": "ym2612"
    },
    {
      "channel": 2,
      "note": 93,
      "start": 17.8554,
      "duration": 0.0667,
      "velocity": 119,
      "chip": "ym2612"
    },
    {
      "channel": 1,
      "note": 52,
      "start": 18.0057,
      "duration": 0.0995,
      "velocity": 104,
      "chip": "ym2612"
    },
    {
      "channel": 2,
      "note": 93,
      "start": 18.0069,
      "duration": 0.0485,
      "velocity": 119,
      "chip": "ym2612"
    },
    {
      "channel": 1,
      "note": 64,
      "start": 18.1057,
      "duration": 0.0995,
      "velocity": 104,
      "chip": "ym2612"
    },
    {
      "channel": 2,
      "note": 93,
      "start": 18.1069,
      "duration": 0.1152,
      "velocity": 122,
      "chip": "ym2612"
    },
    {
      "channel": 1,
      "note": 52,
      "start": 18.2057,
      "duration": 0.0995,
      "velocity": 104,
      "chip": "ym2612"
    },
    {
      "channel": 1,
      "note": 64,
      "start": 18.3057,
      "duration": 0.0995,
      "velocity": 104,
      "chip": "ym2612"
    },
    {
      "channel": 2,
      "note": 93,
      "start": 18.3069,
      "duration": 0.0001,
      "velocity": 119,
      "chip": "ym2612"
    },
    {
      "channel": 2,
      "note": 93,
      "start": 18.307,
      "duration": 0.0009,
      "velocity": 119,
      "chip": "ym2612"
    },
    {
      "channel": 2,
      "note": 93,
      "start": 18.3079,
      "duration": 0.0476,
      "velocity": 119,
      "chip": "ym2612"
    },
    {
      "channel": 2,
      "note": 93,
      "start": 18.3555,
      "duration": 0.0504,
      "velocity": 119,
      "chip": "ym2612"
    },
    {
      "channel": 1,
      "note": 52,
      "start": 18.4057,
      "duration": 0.3998,
      "velocity": 104,
      "chip": "ym2612"
    },
    {
      "channel": 2,
      "note": 93,
      "start": 18.406,
      "duration": 0.001,
      "velocity": 119,
      "chip": "ym2612"
    },
    {
      "channel": 2,
      "note": 93,
      "start": 18.407,
      "duration": 0.0001,
      "velocity": 119,
      "chip": "ym2612"
    },
    {
      "channel": 2,
      "note": 93,
      "start": 18.4071,
      "duration": 0.001,
      "velocity": 119,
      "chip": "ym2612"
    },
    {
      "channel": 2,
      "note": 93,
      "start": 18.408,
      "duration": 0.0474,
      "velocity": 119,
      "chip": "ym2612"
    },
    {
      "channel": 2,
      "note": 93,
      "start": 18.4554,
      "duration": 0.05,
      "velocity": 119,
      "chip": "ym2612"
    },
    {
      "channel": 2,
      "note": 93,
      "start": 18.5054,
      "duration": 0.001,
      "velocity": 122,
      "chip": "ym2612"
    },
    {
      "channel": 2,
      "note": 93,
      "start": 18.5064,
      "duration": 0.0159,
      "velocity": 122,
      "chip": "ym2612"
    },
    {
      "channel": 2,
      "note": 93,
      "start": 18.5223,
      "duration": 0.0997,
      "velocity": 122,
      "chip": "ym2612"
    },
    {
      "channel": 0,
      "note": 81,
      "start": 18.6054,
      "duration": 0.1994,
      "velocity": 95,
      "chip": "ym2612"
    },
    {
      "channel": 2,
      "note": 93,
      "start": 18.7063,
      "duration": 0.0999,
      "velocity": 122,
      "chip": "ym2612"
    },
    {
      "channel": 5,
      "note": 81,
      "start": 18.7076,
      "duration": 0.2008,
      "velocity": 95,
      "chip": "ym2612"
    },
    {
      "channel": 0,
      "note": 83,
      "start": 18.8054,
      "duration": 0.3994,
      "velocity": 95,
      "chip": "ym2612"
    },
    {
      "channel": 1,
      "note": 52,
      "start": 18.806,
      "duration": 0.3995,
      "velocity": 104,
      "chip": "ym2612"
    },
    {
      "channel": 2,
      "note": 93,
      "start": 18.8072,
      "duration": 0.0001,
      "velocity": 119,
      "chip": "ym2612"
    },
    {
      "channel": 2,
      "note": 93,
      "start": 18.8073,
      "duration": 0.0009,
      "velocity": 119,
      "chip": "ym2612"
    },
    {
      "channel": 2,
      "note": 93,
      "start": 18.8082,
      "duration": 0.0471,
      "velocity": 119,
      "chip": "ym2612"
    },
    {
      "channel": 2,
      "note": 93,
      "start": 18.8553,
      "duration": 0.0501,
      "velocity": 119,
      "chip": "ym2612"
    },
    {
      "channel": 2,
      "note": 93,
      "start": 18.9054,
      "duration": 0.001,
      "velocity": 119,
      "chip": "ym2612"
    },
    {
      "channel": 2,
      "note": 93,
      "start": 18.9063,
      "duration": 0.0001,
      "velocity": 119,
      "chip": "ym2612"
    },
    {
      "channel": 2,
      "note": 93,
      "start": 18.9065,
      "duration": 0.0009,
      "velocity": 119,
      "chip": "ym2612"
    },
    {
      "channel": 2,
      "note": 93,
      "start": 18.9074,
      "duration": 0.048,
      "velocity": 119,
      "chip": "ym2612"
    },
    {
      "channel": 5,
      "note": 83,
      "start": 18.9088,
      "duration": 0.3971,
      "velocity": 95,
      "chip": "ym2612"
    },
    {
      "channel": 2,
      "note": 93,
      "start": 18.9553,
      "duration": 0.0501,
      "velocity": 119,
      "chip": "ym2612"
    },
    {
      "channel": 2,
      "note": 93,
      "start": 19.0054,
      "duration": 0.001,
      "velocity": 122,
      "chip": "ym2612"
    },
    {
      "channel": 2,
      "note": 93,
      "start": 19.0063,
      "duration": 0.0159,
      "velocity": 122,
      "chip": "ym2612"
    },
    {
      "channel": 2,
      "note": 93,
      "start": 19.0223,
      "duration": 0.0997,
      "velocity": 122,
      "chip": "ym2612"
    },
    {
      "channel": 0,
      "note": 74,
      "start": 19.2054,
      "duration": 0.3994,
      "velocity": 95,
      "chip": "ym2612"
    },
    {
      "channel": 1,
      "note": 50,
      "start": 19.206,
      "duration": 0.1992,
      "velocity": 104,
      "chip": "ym2612"
    },
    {
      "channel": 2,
      "note": 93,
      "start": 19.2072,
      "duration": 0.0001,
      "velocity": 119,
      "chip": "ym2612"
    },
    {
      "channel": 2,
      "note": 93,
      "start": 19.2073,
      "duration": 0.0009,
      "velocity": 119,
      "chip": "ym2612"
    },
    {
      "channel": 2,
      "note": 93,
      "start": 19.2082,
      "duration": 0.0471,
      "velocity": 119,
      "chip": "ym2612"
    },
    {
      "channel": 3,
      "note": 69,
      "start": 19.2094,
      "duration": 0.7983,
      "velocity": 95,
      "chip": "ym2612"
    },
    {
      "channel": 4,
      "note": 66,
      "start": 19.21,
      "duration": 0.7982,
      "velocity": 95,
      "chip": "ym2612"
    },
    {
      "channel": 2,
      "note": 93,
      "start": 19.2553,
      "duration": 0.0667,
      "velocity": 119,
      "chip": "ym2612"
    },
    {
      "channel": 5,
      "note": 74,
      "start": 19.3064,
      "duration": 0.3995,
      "velocity": 95,
      "chip": "ym2612"
    },
    {
      "channel": 1,
      "note": 62,
      "start": 19.4056,
      "duration": 0.1999,
      "velocity": 104,
      "chip": "ym2612"
    },
    {
      "channel": 2,
      "note": 93,
      "start": 19.4069,
      "duration": 0.0001,
      "velocity": 119,
      "chip": "ym2612"
    },
    {
      "channel": 2,
      "note": 93,
      "start": 19.4069,
      "duration": 0.001,
      "velocity": 119,
      "chip": "ym2612"
    },
    {
      "channel": 2,
      "note": 93,
      "start": 19.4079,
      "duration": 0.0474,
      "velocity": 119,
      "chip": "ym2612"
    },
    {
      "channel": 2,
      "note": 93,
      "start": 19.4553,
      "duration": 0.0667,
      "velocity": 119,
      "chip": "ym2612"
    },
    {
      "channel": 0,
      "note": 79,
      "start": 19.6054,
      "duration": 0.3994,
      "velocity": 95,
      "chip": "ym2612"
    },
    {
      "channel": 1,
      "note": 50,
      "start": 19.606,
      "duration": 0.1993,
      "velocity": 104,
      "chip": "ym2612"
    },
    {
      "channel": 2,
      "note": 93,
      "start": 19.6072,
      "duration": 0.1148,
      "velocity": 122,
      "chip": "ym2612"
    },
    {
      "channel": 5,
      "note": 79,
      "start": 19.7064,
      "duration": 0.3993,
      "velocity": 95,
      "chip": "ym2612"
    },
    {
      "channel": 1,
      "note": 69,
      "start": 19.8056,
      "duration": 0.1999,
      "velocity": 104,
      "chip": "ym2612"
    },
    {
      "channel": 2,
      "note": 93,
      "start": 19.8069,
      "duration": 0.0001,
      "velocity": 119,
      "chip": "ym2612"
    },
    {
      "channel": 2,
      "note": 93,
      "start": 19.8069,
      "duration": 0.001,
      "velocity": 119,
      "chip": "ym2612"
    },
    {
      "channel": 2,
      "note": 93,
      "start": 19.8079,
      "duration": 0.0474,
      "velocity": 119,
      "chip": "ym2612"
    },
    {
      "channel": 2,
      "note": 93,
      "start": 19.8553,
      "duration": 0.0667,
      "velocity": 119,
      "chip": "ym2612"
    },
    {
      "channel": 0,
      "note": 76,
      "start": 20.0054,
      "duration": 0.3994,
      "velocity": 95,
      "chip": "ym2612"
    },
    {
      "channel": 1,
      "note": 50,
      "start": 20.006,
      "duration": 0.1993,
      "velocity": 104,
      "chip": "ym2612"
    },
    {
      "channel": 2,
      "note": 93,
      "start": 20.0072,
      "duration": 0.0481,
      "velocity": 119,
      "chip": "ym2612"
    },
    {
      "channel": 3,
      "note": 76,
      "start": 20.0081,
      "duration": 0.8008,
      "velocity": 95,
      "chip": "ym2612"
    },
    {
      "channel": 4,
      "note": 76,
      "start": 20.0087,
      "duration": 0.8008,
      "velocity": 95,
      "chip": "ym2612"
    },
    {
      "channel": 5,
      "note": 76,
      "start": 20.1062,
      "duration": 0.3998,
      "velocity": 95,
      "chip": "ym2612"
    },
    {
      "channel": 1,
      "note": 67,
      "start": 20.2056,
      "duration": 0.1999,
      "velocity": 104,
      "chip": "ym2612"
    },
    {
      "channel": 2,
      "note": 93,
      "start": 20.2069,
      "duration": 0.0001,
      "velocity": 119,
      "chip": "ym2612"
    },
    {
      "channel": 2,
      "note": 93,
      "start": 20.2069,
      "duration": 0.001,
      "velocity": 119,
      "chip": "ym2612"
    },
    {
      "channel": 2,
      "note": 93,
      "start": 20.2079,
      "duration": 0.0474,
      "velocity": 119,
      "chip": "ym2612"
    },
    {
      "channel": 2,
      "note": 93,
      "start": 20.2553,
      "duration": 0.0667,
      "velocity": 119,
      "chip": "ym2612"
    },
    {
      "channel": 0,
      "note": 83,
      "start": 20.4054,
      "duration": 0.3994,
      "velocity": 95,
      "chip": "ym2612"
    },
    {
      "channel": 1,
      "note": 50,
      "start": 20.406,
      "duration": 0.1993,
      "velocity": 104,
      "chip": "ym2612"
    },
    {
      "channel": 2,
      "note": 93,
      "start": 20.4072,
      "duration": 0.1148,
      "velocity": 122,
      "chip": "ym2612"
    },
    {
      "channel": 5,
      "note": 83,
      "start": 20.5064,
      "duration": 0.3995,
      "velocity": 95,
      "chip": "ym2612"
    },
    {
      "channel": 1,
      "note": 62,
      "start": 20.6056,
      "duration": 0.1999,
      "velocity": 104,
      "chip": "ym2612"
    },
    {
      "channel": 2,
      "note": 93,
      "start": 20.6069,
      "duration": 0.0485,
      "velocity": 119,
      "chip": "ym2612"
    },
    {
      "channel": 0,
      "note": 79,
      "start": 20.8054,
      "duration": 0.3994,
      "velocity": 95,
      "chip": "ym2612"
    },
    {
      "channel": 1,
      "note": 50,
      "start": 20.806,
      "duration": 0.1993,
      "velocity": 104,
      "chip": "ym2612"
    },
    {
      "channel": 2,
      "note": 93,
      "start": 20.8072,
      "duration": 0.0001,
      "velocity": 119,
      "chip": "ym2612"
    },
    {
      "channel": 2,
      "note": 93,
      "start": 20.8073,
      "duration": 0.0009,
      "velocity": 119,
      "chip": "ym2612"
    },
    {
      "channel": 2,
      "note": 93,
      "start": 20.8082,
      "duration": 0.0471,
      "velocity": 119,
      "chip": "ym2612"
    },
    {
      "channel": 3,
      "note": 74,
      "start": 20.8093,
      "duration": 0.7996,
      "velocity": 95,
      "chip": "ym2612"
    },
    {
      "channel": 4,
      "note": 78,
      "start": 20.81,
      "duration": 0.7996,
      "velocity": 95,
      "chip": "ym2612"
    },
    {
      "channel": 2,
      "note": 93,
      "start": 20.8553,
      "duration": 0.0667,
      "velocity": 119,
      "chip": "ym2612"
    },
    {
      "channel": 5,
      "note": 79,
      "start": 20.9064,
      "duration": 0.3995,
      "velocity": 95,
      "chip": "ym2612"
    },
    {
      "channel": 1,
      "note": 67,
      "start": 21.0056,
      "duration": 0.1999,
      "velocity": 104,
      "chip": "ym2612"
    },
    {
      "channel": 2,
      "note": 93,
      "start": 21.0069,
      "duration": 0.0001,
      "velocity": 119,
      "chip": "ym2612"
    },
    {
      "channel": 2,
      "note": 93,
      "start": 21.0069,
      "duration": 0.001,
      "velocity": 119,
      "chip": "ym2612"
    },
    {
      "channel": 2,
      "note": 93,
      "start": 21.0079,
      "duration": 0.0474,
      "velocity": 119,
      "chip": "ym2612"
    },
    {
      "channel": 2,
      "note": 93,
      "start": 21.0553,
      "duration": 0.0667,
      "velocity": 119,
      "chip": "ym2612"
    },
    {
      "channel": 0,
      "note": 86,
      "start": 21.2054,
      "duration": 0.3994,
      "velocity": 95,
      "chip": "ym2612"
    },
    {
      "channel": 1,
      "note": 50,
      "start": 21.206,
      "duration": 0.1993,
      "velocity": 104,
      "chip": "ym2612"
    },
    {
      "channel": 2,
      "note": 93,
      "start": 21.2072,
      "duration": 0.1148,
      "velocity": 122,
      "chip": "ym2612"
    },
    {
      "channel": 5,
      "note": 86,
      "start": 21.3064,
      "duration": 0.3995,
      "velocity": 95,
      "chip": "ym2612"
    },
    {
      "channel": 1,
      "note": 64,
      "start": 21.4056,
      "duration": 0.1999,
      "velocity": 104,
      "chip": "ym2612"
    },
    {
      "channel": 2,
      "note": 93,
      "start": 21.4069,
      "duration": 0.0001,
      "velocity": 119,
      "chip": "ym2612"
    },
    {
      "channel": 2,
      "note": 93,
      "start": 21.4069,
      "duration": 0.001,
      "velocity": 119,
      "chip": "ym2612"
    },
    {
      "channel": 2,
      "note": 93,
      "start": 21.4079,
      "duration": 0.0474,
      "velocity": 119,
      "chip": "ym2612"
    },
    {
      "channel": 2,
      "note": 93,
      "start": 21.4553,
      "duration": 0.0667,
      "velocity": 119,
      "chip": "ym2612"
    },
    {
      "channel": 0,
      "note": 83,
      "start": 21.6054,
      "duration": 0.3994,
      "velocity": 95,
      "chip": "ym2612"
    },
    {
      "channel": 1,
      "note": 50,
      "start": 21.606,
      "duration": 0.1993,
      "velocity": 104,
      "chip": "ym2612"
    },
    {
      "channel": 2,
      "note": 93,
      "start": 21.6072,
      "duration": 0.0001,
      "velocity": 119,
      "chip": "ym2612"
    },
    {
      "channel": 2,
      "note": 93,
      "start": 21.6073,
      "duration": 0.0009,
      "velocity": 119,
      "chip": "ym2612"
    },
    {
      "channel": 2,
      "note": 93,
      "start": 21.6082,
      "duration": 0.0471,
      "velocity": 119,
      "chip": "ym2612"
    },
    {
      "channel": 3,
      "note": 81,
      "start": 21.6093,
      "duration": 0.7996,
      "velocity": 95,
      "chip": "ym2612"
    },
    {
      "channel": 4,
      "note": 81,
      "start": 21.61,
      "duration": 0.7996,
      "velocity": 95,
      "chip": "ym2612"
    },
    {
      "channel": 2,
      "note": 93,
      "start": 21.6553,
      "duration": 0.0667,
      "velocity": 119,
      "chip": "ym2612"
    },
    {
      "channel": 5,
      "note": 83,
      "start": 21.7064,
      "duration": 0.3995,
      "velocity": 95,
      "chip": "ym2612"
    },
    {
      "channel": 1,
      "note": 62,
      "start": 21.8056,
      "duration": 0.1999,
      "velocity": 104,
      "chip": "ym2612"
    },
    {
      "channel": 2,
      "note": 93,
      "start": 21.8069,
      "duration": 0.1151,
      "velocity": 122,
      "chip": "ym2612"
    },
    {
      "channel": 0,
      "note": 88,
      "start": 22.0054,
      "duration": 0.3994,
      "velocity": 95,
      "chip": "ym2612"
    },
    {
      "channel": 1,
      "note": 50,
      "start": 22.006,
      "duration": 0.1993,
      "velocity": 104,
      "chip": "ym2612"
    },
    {
      "channel": 2,
      "note": 93,
      "start": 22.0072,
      "duration": 0.0001,
      "velocity": 119,
      "chip": "ym2612"
    },
    {
      "channel": 2,
      "note": 93,
      "start": 22.0073,
      "duration": 0.0009,
      "velocity": 119,
      "chip": "ym2612"
    },
    {
      "channel": 2,
      "note": 93,
      "start": 22.0082,
      "duration": 0.0471,
      "velocity": 119,
      "chip": "ym2612"
    },
    {
      "channel": 2,
      "note": 93,
      "start": 22.0553,
      "duration": 0.0667,
      "velocity": 119,
      "chip": "ym2612"
    },
    {
      "channel": 5,
      "note": 88,
      "start": 22.1064,
      "duration": 0.3995,
      "velocity": 95,
      "chip": "ym2612"
    },
    {
      "channel": 1,
      "note": 69,
      "start": 22.2056,
      "duration": 0.1999,
      "velocity": 104,
      "chip": "ym2612"
    },
    {
      "channel": 2,
      "note": 93,
      "start": 22.2069,
      "duration": 0.0001,
      "velocity": 119,
      "chip": "ym2612"
    },
    {
      "channel": 2,
      "note": 93,
      "start": 22.2069,
      "duration": 0.001,
      "velocity": 119,
      "chip": "ym2612"
    },
    {
      "channel": 2,
      "note": 93,
      "start": 22.2079,
      "duration": 0.0474,
      "velocity": 119,
      "chip": "ym2612"
    },
    {
      "channel": 2,
      "note": 93,
      "start": 22.2553,
      "duration": 0.0667,
      "velocity": 119,
      "chip": "ym2612"
    },
    {
      "channel": 0,
      "note": 86,
      "start": 22.4054,
      "duration": 0.3994,
      "velocity": 95,
      "chip": "ym2612"
    },
    {
      "channel": 1,
      "note": 50,
      "start": 22.406,
      "duration": 0.1993,
      "velocity": 104,
      "chip": "ym2612"
    },
    {
      "channel": 2,
      "note": 93,
      "start": 22.4072,
      "duration": 0.0001,
      "velocity": 119,
      "chip": "ym2612"
    },
    {
      "channel": 2,
      "note": 93,
      "start": 22.4073,
      "duration": 0.0009,
      "velocity": 119,
      "chip": "ym2612"
    },
    {
      "channel": 2,
      "note": 93,
      "start": 22.4082,
      "duration": 0.0471,
      "velocity": 119,
      "chip": "ym2612"
    },
    {
      "channel": 3,
      "note": 79,
      "start": 22.4093,
      "duration": 0.7996,
      "velocity": 95,
      "chip": "ym2612"
    },
    {
      "channel": 4,
      "note": 74,
      "start": 22.41,
      "duration": 0.7996,
      "velocity": 95,
      "chip": "ym2612"
    },
    {
      "channel": 2,
      "note": 93,
      "start": 22.4553,
      "duration": 0.0667,
      "velocity": 119,
      "chip": "ym2612"
    },
    {
      "channel": 5,
      "note": 86,
      "start": 22.5064,
      "duration": 0.3995,
      "velocity": 95,
      "chip": "ym2612"
    },
    {
      "channel": 1,
      "note": 67,
      "start": 22.6056,
      "duration": 0.1999,
      "velocity": 104,
      "chip": "ym2612"
    },
    {
      "channel": 2,
      "note": 93,
      "start": 22.6069,
      "duration": 0.0001,
      "velocity": 119,
      "chip": "ym2612"
    },
    {
      "channel": 2,
      "note": 93,
      "start": 22.6069,
      "duration": 0.001,
      "velocity": 119,
      "chip": "ym2612"
    },
    {
      "channel": 2,
      "note": 93,
      "start": 22.6079,
      "duration": 0.0474,
      "velocity": 119,
      "chip": "ym2612"
    },
    {
      "channel": 2,
      "note": 93,
      "start": 22.6553,
      "duration": 0.0667,
      "velocity": 119,
      "chip": "ym2612"
    },
    {
      "channel": 0,
      "note": 91,
      "start": 22.8054,
      "duration": 0.3994,
      "velocity": 95,
      "chip": "ym2612"
    },
    {
      "channel": 1,
      "note": 50,
      "start": 22.806,
      "duration": 0.1993,
      "velocity": 104,
      "chip": "ym2612"
    },
    {
      "channel": 2,
      "note": 93,
      "start": 22.8072,
      "duration": 0.1148,
      "velocity": 122,
      "chip": "ym2612"
    },
    {
      "channel": 5,
      "note": 91,
      "start": 22.9064,
      "duration": 0.402,
      "velocity": 95,
      "chip": "ym2612"
    },
    {
      "channel": 1,
      "note": 62,
      "start": 23.0056,
      "duration": 0.1999,
      "velocity": 104,
      "chip": "ym2612"
    },
    {
      "channel": 2,
      "note": 93,
      "start": 23.0069,
      "duration": 0.0001,
      "velocity": 119,
      "chip": "ym2612"
    },
    {
      "channel": 2,
      "note": 93,
      "start": 23.0069,
      "duration": 0.001,
      "velocity": 119,
      "chip": "ym2612"
    },
    {
      "channel": 2,
      "note": 93,
      "start": 23.0079,
      "duration": 0.0474,
      "velocity": 119,
      "chip": "ym2612"
    },
    {
      "channel": 2,
      "note": 93,
      "start": 23.0553,
      "duration": 0.0667,
      "velocity": 119,
      "chip": "ym2612"
    },
    {
      "channel": 0,
      "note": 88,
      "start": 23.2054,
      "duration": 0.3994,
      "velocity": 95,
      "chip": "ym2612"
    },
    {
      "channel": 1,
      "note": 50,
      "start": 23.206,
      "duration": 0.1993,
      "velocity": 104,
      "chip": "ym2612"
    },
    {
      "channel": 2,
      "note": 93,
      "start": 23.2072,
      "duration": 0.0001,
      "velocity": 119,
      "chip": "ym2612"
    },
    {
      "channel": 2,
      "note": 93,
      "start": 23.2073,
      "duration": 0.0009,
      "velocity": 119,
      "chip": "ym2612"
    },
    {
      "channel": 2,
      "note": 93,
      "start": 23.2082,
      "duration": 0.0471,
      "velocity": 119,
      "chip": "ym2612"
    },
    {
      "channel": 3,
      "note": 76,
      "start": 23.2094,
      "duration": 0.7995,
      "velocity": 95,
      "chip": "ym2612"
    },
    {
      "channel": 4,
      "note": 76,
      "start": 23.21,
      "duration": 0.7996,
      "velocity": 95,
      "chip": "ym2612"
    },
    {
      "channel": 2,
      "note": 93,
      "start": 23.2553,
      "duration": 0.0501,
      "velocity": 119,
      "chip": "ym2612"
    },
    {
      "channel": 2,
      "note": 93,
      "start": 23.3054,
      "duration": 0.001,
      "velocity": 119,
      "chip": "ym2612"
    },
    {
      "channel": 2,
      "note": 93,
      "start": 23.3063,
      "duration": 0.0001,
      "velocity": 119,
      "chip": "ym2612"
    },
    {
      "channel": 2,
      "note": 93,
      "start": 23.3065,
      "duration": 0.0009,
      "velocity": 119,
      "chip": "ym2612"
    },
    {
      "channel": 2,
      "note": 93,
      "start": 23.3074,
      "duration": 0.048,
      "velocity": 119,
      "chip": "ym2612"
    },
    {
      "channel": 5,
      "note": 88,
      "start": 23.3088,
      "duration": 0.3995,
      "velocity": 95,
      "chip": "ym2612"
    },
    {
      "channel": 2,
      "note": 93,
      "start": 23.3553,
      "duration": 0.0505,
      "velocity": 119,
      "chip": "ym2612"
    },
    {
      "channel": 1,
      "note": 67,
      "start": 23.4056,
      "duration": 0.1999,
      "velocity": 104,
      "chip": "ym2612"
    },
    {
      "channel": 2,
      "note": 93,
      "start": 23.4059,
      "duration": 0.001,
      "velocity": 122,
      "chip": "ym2612"
    },
    {
      "channel": 2,
      "note": 93,
      "start": 23.4069,
      "duration": 0.0154,
      "velocity": 122,
      "chip": "ym2612"
    },
    {
      "channel": 2,
      "note": 93,
      "start": 23.4223,
      "duration": 0.0997,
      "velocity": 122,
      "chip": "ym2612"
    },
    {
      "channel": 0,
      "note": 86,
      "start": 23.6054,
      "duration": 0.3994,
      "velocity": 95,
      "chip": "ym2612"
    },
    {
      "channel": 1,
      "note": 50,
      "start": 23.606,
      "duration": 0.1993,
      "velocity": 104,
      "chip": "ym2612"
    },
    {
      "channel": 2,
      "note": 93,
      "start": 23.6072,
      "duration": 0.0001,
      "velocity": 119,
      "chip": "ym2612"
    },
    {
      "channel": 2,
      "note": 93,
      "start": 23.6073,
      "duration": 0.0009,
      "velocity": 119,
      "chip": "ym2612"
    },
    {
      "channel": 2,
      "note": 93,
      "start": 23.6082,
      "duration": 0.0471,
      "velocity": 119,
      "chip": "ym2612"
    },
    {
      "channel": 2,
      "note": 93,
      "start": 23.6553,
      "duration": 0.0501,
      "velocity": 119,
      "chip": "ym2612"
    },
    {
      "channel": 2,
      "note": 93,
      "start": 23.7054,
      "duration": 0.001,
      "velocity": 119,
      "chip": "ym2612"
    },
    {
      "channel": 2,
      "note": 93,
      "start": 23.7063,
      "duration": 0.0001,
      "velocity": 119,
      "chip": "ym2612"
    },
    {
      "channel": 2,
      "note": 93,
      "start": 23.7065,
      "duration": 0.0009,
      "velocity": 119,
      "chip": "ym2612"
    },
    {
      "channel": 2,
      "note": 93,
      "start": 23.7074,
      "duration": 0.048,
      "velocity": 119,
      "chip": "ym2612"
    },
    {
      "channel": 5,
      "note": 86,
      "start": 23.7088,
      "duration": 0.3971,
      "velocity": 95,
      "chip": "ym2612"
    },
    {
      "channel": 2,
      "note": 93,
      "start": 23.7553,
      "duration": 0.0505,
      "velocity": 119,
      "chip": "ym2612"
    },
    {
      "channel": 1,
      "note": 64,
      "start": 23.8056,
      "duration": 0.1999,
      "velocity": 104,
      "chip": "ym2612"
    },
    {
      "channel": 2,
      "note": 93,
      "start": 23.8059,
      "duration": 0.001,
      "velocity": 122,
      "chip": "ym2612"
    },
    {
      "channel": 2,
      "note": 93,
      "start": 23.8069,
      "duration": 0.0154,
      "velocity": 122,
      "chip": "ym2612"
    },
    {
      "channel": 2,
      "note": 93,
      "start": 23.8223,
      "duration": 0.0997,
      "velocity": 122,
      "chip": "ym2612"
    },
    {
      "channel": 0,
      "note": 93,
      "start": 24.0054,
      "duration": 1.5994,
      "velocity": 95,
      "chip": "ym2612"
    },
    {
      "channel": 1,
      "note": 50,
      "start": 24.006,
      "duration": 1.6027,
      "velocity": 104,
      "chip": "ym2612"
    },
    {
      "channel": 2,
      "note": 93,
      "start": 24.0072,
      "duration": 0.0001,
      "velocity": 119,
      "chip": "ym2612"
    },
    {
      "channel": 2,
      "note": 93,
      "start": 24.0073,
      "duration": 0.001,
      "velocity": 119,
      "chip": "ym2612"
    },
    {
      "channel": 2,
      "note": 93,
      "start": 24.0083,
      "duration": 0.0471,
      "velocity": 119,
      "chip": "ym2612"
    },
    {
      "channel": 3,
      "note": 81,
      "start": 24.0094,
      "duration": 1.6062,
      "velocity": 95,
      "chip": "ym2612"
    },
    {
      "channel": 4,
      "note": 90,
      "start": 24.01,
      "duration": 1.609,
      "velocity": 95,
      "chip": "ym2612"
    },
    {
      "channel": 2,
      "note": 93,
      "start": 24.0553,
      "duration": 0.0667,
      "velocity": 119,
      "chip": "ym2612"
    },
    {
      "channel": 5,
      "note": 93,
      "start": 24.1064,
      "duration": 1.5178,
      "velocity": 95,
      "chip": "ym2612"
    },
    {
      "channel": 2,
      "note": 93,
      "start": 24.2063,
      "duration": 0.0001,
      "velocity": 119,
      "chip": "ym2612"
    },
    {
      "channel": 2,
      "note": 93,
      "start": 24.2065,
      "duration": 0.0009,
      "velocity": 119,
      "chip": "ym2612"
    },
    {
      "channel": 2,
      "note": 93,
      "start": 24.2074,
      "duration": 0.048,
      "velocity": 119,
      "chip": "ym2612"
    },
    {
      "channel": 2,
      "note": 93,
      "start": 24.2553,
      "duration": 0.0667,
      "velocity": 119,
      "chip": "ym2612"
    },
    {
      "channel": 2,
      "note": 93,
      "start": 24.4064,
      "duration": 0.0001,
      "velocity": 119,
      "chip": "ym2612"
    },
    {
      "channel": 2,
      "note": 93,
      "start": 24.4065,
      "duration": 0.001,
      "velocity": 119,
      "chip": "ym2612"
    },
    {
      "channel": 2,
      "note": 93,
      "start": 24.4074,
      "duration": 0.0479,
      "velocity": 119,
      "chip": "ym2612"
    },
    {
      "channel": 2,
      "note": 93,
      "start": 24.4553,
      "duration": 0.0667,
      "velocity": 119,
      "chip": "ym2612"
    },
    {
      "channel": 2,
      "note": 93,
      "start": 24.6063,
      "duration": 0.0001,
      "velocity": 119,
      "chip": "ym2612"
    },
    {
      "channel": 2,
      "note": 93,
      "start": 24.6065,
      "duration": 0.0009,
      "velocity": 119,
      "chip": "ym2612"
    },
    {
      "channel": 2,
      "note": 93,
      "start": 24.6074,
      "duration": 0.048,
      "velocity": 119,
      "chip": "ym2612"
    },
    {
      "channel": 2,
      "note": 93,
      "start": 24.6553,
      "duration": 0.0667,
      "velocity": 119,
      "chip": "ym2612"
    },
    {
      "channel": 2,
      "note": 93,
      "start": 24.8063,
      "duration": 0.0001,
      "velocity": 122,
      "chip": "ym2612"
    },
    {
      "channel": 2,
      "note": 93,
      "start": 24.8065,
      "duration": 0.001,
      "velocity": 122,
      "chip": "ym2612"
    },
    {
      "channel": 2,
      "note": 93,
      "start": 24.8074,
      "duration": 0.098,
      "velocity": 122,
      "chip": "ym2612"
    },
    {
      "channel": 2,
      "note": 93,
      "start": 24.9054,
      "duration": 0.001,
      "velocity": 122,
      "chip": "ym2612"
    },
    {
      "channel": 2,
      "note": 93,
      "start": 24.9063,
      "duration": 0.0001,
      "velocity": 122,
      "chip": "ym2612"
    },
    {
      "channel": 2,
      "note": 93,
      "start": 24.9065,
      "duration": 0.0009,
      "velocity": 122,
      "chip": "ym2612"
    },
    {
      "channel": 2,
      "note": 93,
      "start": 24.9074,
      "duration": 0.098,
      "velocity": 122,
      "chip": "ym2612"
    },
    {
      "channel": 2,
      "note": 93,
      "start": 25.0054,
      "duration": 0.001,
      "velocity": 119,
      "chip": "ym2612"
    },
    {
      "channel": 2,
      "note": 93,
      "start": 25.0064,
      "duration": 0.0001,
      "velocity": 119,
      "chip": "ym2612"
    },
    {
      "channel": 2,
      "note": 93,
      "start": 25.0065,
      "duration": 0.001,
      "velocity": 119,
      "chip": "ym2612"
    },
    {
      "channel": 2,
      "note": 93,
      "start": 25.0074,
      "duration": 0.0479,
      "velocity": 119,
      "chip": "ym2612"
    },
    {
      "channel": 2,
      "note": 93,
      "start": 25.0553,
      "duration": 0.0501,
      "velocity": 119,
      "chip": "ym2612"
    },
    {
      "channel": 2,
      "note": 93,
      "start": 25.1054,
      "duration": 0.001,
      "velocity": 119,
      "chip": "ym2612"
    },
    {
      "channel": 2,
      "note": 93,
      "start": 25.1064,
      "duration": 0.0001,
      "velocity": 119,
      "chip": "ym2612"
    },
    {
      "channel": 2,
      "note": 93,
      "start": 25.1065,
      "duration": 0.001,
      "velocity": 119,
      "chip": "ym2612"
    },
    {
      "channel": 2,
      "note": 93,
      "start": 25.1074,
      "duration": 0.0479,
      "velocity": 119,
      "chip": "ym2612"
    },
    {
      "channel": 2,
      "note": 93,
      "start": 25.1553,
      "duration": 0.0501,
      "velocity": 119,
      "chip": "ym2612"
    },
    {
      "channel": 2,
      "note": 93,
      "start": 25.2054,
      "duration": 0.001,
      "velocity": 122,
      "chip": "ym2612"
    },
    {
      "channel": 2,
      "note": 93,
      "start": 25.2064,
      "duration": 0.0001,
      "velocity": 122,
      "chip": "ym2612"
    },
    {
      "channel": 2,
      "note": 93,
      "start": 25.2065,
      "duration": 0.001,
      "velocity": 122,
      "chip": "ym2612"
    },
    {
      "channel": 2,
      "note": 93,
      "start": 25.2074,
      "duration": 0.1146,
      "velocity": 122,
      "chip": "ym2612"
    },
    {
      "channel": 2,
      "note": 93,
      "start": 25.322,
      "duration": 0.0001,
      "velocity": 122,
      "chip": "ym2612"
    },
    {
      "channel": 2,
      "note": 93,
      "start": 25.4064,
      "duration": 0.049,
      "velocity": 119,
      "chip": "ym2612"
    },
    {
      "channel": 2,
      "note": 93,
      "start": 25.5064,
      "duration": 0.049,
      "velocity": 119,
      "chip": "ym2612"
    },
    {
      "channel": 0,
      "note": 64,
      "start": 25.6086,
      "duration": 0.0156,
      "velocity": 95,
      "chip": "ym2612"
    },
    {
      "channel": 1,
      "note": 52,
      "start": 25.6126,
      "duration": 0.0116,
      "velocity": 104,
      "chip": "ym2612"
    },
    {
      "channel": 2,
      "note": 93,
      "start": 25.6138,
      "duration": 0.0001,
      "velocity": 119,
      "chip": "ym2612"
    },
    {
      "channel": 2,
      "note": 93,
      "start": 25.6139,
      "duration": 0.0009,
      "velocity": 119,
      "chip": "ym2612"
    },
    {
      "channel": 2,
      "note": 93,
      "start": 25.6148,
      "duration": 0.0094,
      "velocity": 119,
      "chip": "ym2612"
    },
    {
      "channel": 3,
      "note": 76,
      "start": 25.6188,
      "duration": 0.0054,
      "velocity": 95,
      "chip": "ym2612"
    },
    {
      "channel": 4,
      "note": 69,
      "start": 25.6223,
      "duration": 0.0019,
      "velocity": 95,
      "chip": "ym2612"
    }
  ]
}