{
  "track_name": "14 - Ending 2",
  "duration_sec": 38.738,
  "sample_rate": 44100,
  "note_count": 542,
  "unique_pitches": 26,
  "pitch_range": 72,
  "avg_note_duration": 0.4243,
  "reconstruction_stats": {
    "notes_reconstructed": 542,
    "keyon_events": 542,
    "keyoff_events": 541,
    "orphan_keyons": 1,
    "unique_pitches": 26,
    "pitch_range": 72,
    "avg_duration_sec": 0.4243
  },
  "metadata": {
    "source": "D\\Decap Attack\\14 - Ending 2.vgz"
  },
  "notes": [
    {
      "channel": 0,
      "note": 56,
      "start": 0.0001,
      "duration": 1.1976,
      "velocity": 106,
      "chip": "ym2612"
    },
    {
      "channel": 1,
      "note": 83,
      "start": 0.0029,
      "duration": 0.295,
      "velocity": 89,
      "chip": "ym2612"
    },
    {
      "channel": 3,
      "note": 80,
      "start": 0.008,
      "duration": 0.291,
      "velocity": 92,
      "chip": "ym2612"
    },
    {
      "channel": 5,
      "note": 20,
      "start": 0.0133,
      "duration": 0.8861,
      "velocity": 127,
      "chip": "ym2612"
    },
    {
      "channel": 1,
      "note": 85,
      "start": 0.2982,
      "duration": 0.2996,
      "velocity": 89,
      "chip": "ym2612"
    },
    {
      "channel": 2,
      "note": 83,
      "start": 0.2988,
      "duration": 0.2995,
      "velocity": 89,
      "chip": "ym2612"
    },
    {
      "channel": 3,
      "note": 83,
      "start": 0.2994,
      "duration": 0.2995,
      "velocity": 92,
      "chip": "ym2612"
    },
    {
      "channel": 4,
      "note": 80,
      "start": 0.4488,
      "duration": 0.2995,
      "velocity": 92,
      "chip": "ym2612"
    },
    {
      "channel": 1,
      "note": 87,
      "start": 0.5982,
      "duration": 0.2997,
      "velocity": 89,
      "chip": "ym2612"
    },
    {
      "channel": 2,
      "note": 85,
      "start": 0.5987,
      "duration": 0.2997,
      "velocity": 89,
      "chip": "ym2612"
    },
    {
      "channel": 3,
      "note": 87,
      "start": 0.5992,
      "duration": 0.2997,
      "velocity": 92,
      "chip": "ym2612"
    },
    {
      "channel": 4,
      "note": 83,
      "start": 0.7487,
      "duration": 0.2996,
      "velocity": 92,
      "chip": "ym2612"
    },
    {
      "channel": 1,
      "note": 83,
      "start": 0.8983,
      "duration": 0.2999,
      "velocity": 89,
      "chip": "ym2612"
    },
    {
      "channel": 2,
      "note": 87,
      "start": 0.8987,
      "duration": 0.3,
      "velocity": 89,
      "chip": "ym2612"
    },
    {
      "channel": 3,
      "note": 83,
      "start": 0.8992,
      "duration": 0.3,
      "velocity": 92,
      "chip": "ym2612"
    },
    {
      "channel": 5,
      "note": 20,
      "start": 0.8998,
      "duration": 0.3,
      "velocity": 127,
      "chip": "ym2612"
    },
    {
      "channel": 4,
      "note": 87,
      "start": 1.0487,
      "duration": 0.2996,
      "velocity": 92,
      "chip": "ym2612"
    },
    {
      "channel": 0,
      "note": 54,
      "start": 1.1981,
      "duration": 1.1996,
      "velocity": 106,
      "chip": "ym2612"
    },
    {
      "channel": 1,
      "note": 88,
      "start": 1.1986,
      "duration": 0.5993,
      "velocity": 89,
      "chip": "ym2612"
    },
    {
      "channel": 2,
      "note": 83,
      "start": 1.1991,
      "duration": 0.2989,
      "velocity": 89,
      "chip": "ym2612"
    },
    {
      "channel": 3,
      "note": 78,
      "start": 1.1996,
      "duration": 0.2989,
      "velocity": 92,
      "chip": "ym2612"
    },
    {
      "channel": 5,
      "note": 20,
      "start": 1.2002,
      "duration": 0.5989,
      "velocity": 127,
      "chip": "ym2612"
    },
    {
      "channel": 4,
      "note": 83,
      "start": 1.3487,
      "duration": 0.2996,
      "velocity": 92,
      "chip": "ym2612"
    },
    {
      "channel": 2,
      "note": 88,
      "start": 1.4984,
      "duration": 0.6,
      "velocity": 89,
      "chip": "ym2612"
    },
    {
      "channel": 3,
      "note": 83,
      "start": 1.499,
      "duration": 0.2995,
      "velocity": 92,
      "chip": "ym2612"
    },
    {
      "channel": 4,
      "note": 78,
      "start": 1.6487,
      "duration": 0.2996,
      "velocity": 92,
      "chip": "ym2612"
    },
    {
      "channel": 1,
      "note": 87,
      "start": 1.7982,
      "duration": 0.2997,
      "velocity": 89,
      "chip": "ym2612"
    },
    {
      "channel": 3,
      "note": 87,
      "start": 1.7989,
      "duration": 0.3,
      "velocity": 92,
      "chip": "ym2612"
    },
    {
      "channel": 5,
      "note": 80,
      "start": 1.8017,
      "duration": 0.5981,
      "velocity": 127,
      "chip": "ym2612"
    },
    {
      "channel": 4,
      "note": 83,
      "start": 1.9487,
      "duration": 0.2996,
      "velocity": 92,
      "chip": "ym2612"
    },
    {
      "channel": 1,
      "note": 85,
      "start": 2.0983,
      "duration": 0.2999,
      "velocity": 89,
      "chip": "ym2612"
    },
    {
      "channel": 2,
      "note": 87,
      "start": 2.0987,
      "duration": 0.2999,
      "velocity": 89,
      "chip": "ym2612"
    },
    {
      "channel": 3,
      "note": 83,
      "start": 2.0992,
      "duration": 0.2999,
      "velocity": 92,
      "chip": "ym2612"
    },
    {
      "channel": 4,
      "note": 87,
      "start": 2.2487,
      "duration": 0.2996,
      "velocity": 92,
      "chip": "ym2612"
    },
    {
      "channel": 0,
      "note": 53,
      "start": 2.398,
      "duration": 1.1997,
      "velocity": 106,
      "chip": "ym2612"
    },
    {
      "channel": 1,
      "note": 83,
      "start": 2.3985,
      "duration": 0.5993,
      "velocity": 89,
      "chip": "ym2612"
    },
    {
      "channel": 2,
      "note": 85,
      "start": 2.399,
      "duration": 0.299,
      "velocity": 89,
      "chip": "ym2612"
    },
    {
      "channel": 3,
      "note": 77,
      "start": 2.3996,
      "duration": 0.2989,
      "velocity": 92,
      "chip": "ym2612"
    },
    {
      "channel": 5,
      "note": 20,
      "start": 2.4025,
      "duration": 0.2966,
      "velocity": 127,
      "chip": "ym2612"
    },
    {
      "channel": 4,
      "note": 83,
      "start": 2.5487,
      "duration": 0.2996,
      "velocity": 92,
      "chip": "ym2612"
    },
    {
      "channel": 2,
      "note": 83,
      "start": 2.6984,
      "duration": 0.6,
      "velocity": 89,
      "chip": "ym2612"
    },
    {
      "channel": 3,
      "note": 83,
      "start": 2.699,
      "duration": 0.2995,
      "velocity": 92,
      "chip": "ym2612"
    },
    {
      "channel": 5,
      "note": 20,
      "start": 2.6995,
      "duration": 0.5999,
      "velocity": 127,
      "chip": "ym2612"
    },
    {
      "channel": 4,
      "note": 77,
      "start": 2.8487,
      "duration": 0.2996,
      "velocity": 92,
      "chip": "ym2612"
    },
    {
      "channel": 1,
      "note": 82,
      "start": 2.9982,
      "duration": 0.2997,
      "velocity": 89,
      "chip": "ym2612"
    },
    {
      "channel": 3,
      "note": 87,
      "start": 2.9989,
      "duration": 0.2999,
      "velocity": 92,
      "chip": "ym2612"
    },
    {
      "channel": 4,
      "note": 83,
      "start": 3.1487,
      "duration": 0.2996,
      "velocity": 92,
      "chip": "ym2612"
    },
    {
      "channel": 1,
      "note": 83,
      "start": 3.2983,
      "duration": 0.2999,
      "velocity": 89,
      "chip": "ym2612"
    },
    {
      "channel": 2,
      "note": 82,
      "start": 3.2987,
      "duration": 0.2999,
      "velocity": 89,
      "chip": "ym2612"
    },
    {
      "channel": 3,
      "note": 83,
      "start": 3.2992,
      "duration": 0.2999,
      "velocity": 92,
      "chip": "ym2612"
    },
    {
      "channel": 5,
      "note": 20,
      "start": 3.2998,
      "duration": 0.2999,
      "velocity": 127,
      "chip": "ym2612"
    },
    {
      "channel": 4,
      "note": 87,
      "start": 3.4487,
      "duration": 0.2996,
      "velocity": 92,
      "chip": "ym2612"
    },
    {
      "channel": 0,
      "note": 52,
      "start": 3.598,
      "duration": 1.1997,
      "velocity": 106,
      "chip": "ym2612"
    },
    {
      "channel": 1,
      "note": 80,
      "start": 3.5985,
      "duration": 0.5993,
      "velocity": 89,
      "chip": "ym2612"
    },
    {
      "channel": 2,
      "note": 83,
      "start": 3.599,
      "duration": 0.299,
      "velocity": 89,
      "chip": "ym2612"
    },
    {
      "channel": 3,
      "note": 76,
      "start": 3.5996,
      "duration": 0.2989,
      "velocity": 92,
      "chip": "ym2612"
    },
    {
      "channel": 5,
      "note": 20,
      "start": 3.6002,
      "duration": 0.5989,
      "velocity": 127,
      "chip": "ym2612"
    },
    {
      "channel": 4,
      "note": 83,
      "start": 3.7487,
      "duration": 0.2996,
      "velocity": 92,
      "chip": "ym2612"
    },
    {
      "channel": 2,
      "note": 80,
      "start": 3.8984,
      "duration": 0.6,
      "velocity": 89,
      "chip": "ym2612"
    },
    {
      "channel": 3,
      "note": 80,
      "start": 3.899,
      "duration": 0.2995,
      "velocity": 92,
      "chip": "ym2612"
    },
    {
      "channel": 4,
      "note": 76,
      "start": 4.0487,
      "duration": 0.2996,
      "velocity": 92,
      "chip": "ym2612"
    },
    {
      "channel": 1,
      "note": 82,
      "start": 4.1982,
      "duration": 0.2997,
      "velocity": 89,
      "chip": "ym2612"
    },
    {
      "channel": 3,
      "note": 87,
      "start": 4.1989,
      "duration": 0.3,
      "velocity": 92,
      "chip": "ym2612"
    },
    {
      "channel": 5,
      "note": 80,
      "start": 4.2017,
      "duration": 0.5981,
      "velocity": 127,
      "chip": "ym2612"
    },
    {
      "channel": 4,
      "note": 80,
      "start": 4.3487,
      "duration": 0.2996,
      "velocity": 92,
      "chip": "ym2612"
    },
    {
      "channel": 1,
      "note": 83,
      "start": 4.4983,
      "duration": 0.2999,
      "velocity": 89,
      "chip": "ym2612"
    },
    {
      "channel": 2,
      "note": 82,
      "start": 4.4987,
      "duration": 0.2999,
      "velocity": 89,
      "chip": "ym2612"
    },
    {
      "channel": 3,
      "note": 83,
      "start": 4.4992,
      "duration": 0.2999,
      "velocity": 92,
      "chip": "ym2612"
    },
    {
      "channel": 4,
      "note": 87,
      "start": 4.6487,
      "duration": 0.2996,
      "velocity": 92,
      "chip": "ym2612"
    },
    {
      "channel": 0,
      "note": 51,
      "start": 4.798,
      "duration": 1.7997,
      "velocity": 106,
      "chip": "ym2612"
    },
    {
      "channel": 1,
      "note": 85,
      "start": 4.7985,
      "duration": 0.2993,
      "velocity": 89,
      "chip": "ym2612"
    },
    {
      "channel": 2,
      "note": 83,
      "start": 4.799,
      "duration": 0.2993,
      "velocity": 89,
      "chip": "ym2612"
    },
    {
      "channel": 3,
      "note": 75,
      "start": 4.7996,
      "duration": 0.2992,
      "velocity": 92,
      "chip": "ym2612"
    },
    {
      "channel": 5,
      "note": 20,
      "start": 4.8025,
      "duration": 0.8969,
      "velocity": 127,
      "chip": "ym2612"
    },
    {
      "channel": 4,
      "note": 83,
      "start": 4.9487,
      "duration": 0.2996,
      "velocity": 92,
      "chip": "ym2612"
    },
    {
      "channel": 1,
      "note": 83,
      "start": 5.0982,
      "duration": 0.2996,
      "velocity": 89,
      "chip": "ym2612"
    },
    {
      "channel": 2,
      "note": 85,
      "start": 5.0987,
      "duration": 0.2996,
      "velocity": 89,
      "chip": "ym2612"
    },
    {
      "channel": 3,
      "note": 79,
      "start": 5.0992,
      "duration": 0.2996,
      "velocity": 92,
      "chip": "ym2612"
    },
    {
      "channel": 4,
      "note": 75,
      "start": 5.2487,
      "duration": 0.2996,
      "velocity": 92,
      "chip": "ym2612"
    },
    {
      "channel": 1,
      "note": 82,
      "start": 5.3982,
      "duration": 0.2997,
      "velocity": 89,
      "chip": "ym2612"
    },
    {
      "channel": 2,
      "note": 83,
      "start": 5.3987,
      "duration": 0.2997,
      "velocity": 89,
      "chip": "ym2612"
    },
    {
      "channel": 3,
      "note": 82,
      "start": 5.3993,
      "duration": 0.2996,
      "velocity": 92,
      "chip": "ym2612"
    },
    {
      "channel": 4,
      "note": 79,
      "start": 5.5487,
      "duration": 0.2996,
      "velocity": 92,
      "chip": "ym2612"
    },
    {
      "channel": 1,
      "note": 80,
      "start": 5.6983,
      "duration": 0.2996,
      "velocity": 89,
      "chip": "ym2612"
    },
    {
      "channel": 2,
      "note": 82,
      "start": 5.6987,
      "duration": 0.2997,
      "velocity": 89,
      "chip": "ym2612"
    },
    {
      "channel": 3,
      "note": 85,
      "start": 5.6992,
      "duration": 0.2997,
      "velocity": 92,
      "chip": "ym2612"
    },
    {
      "channel": 5,
      "note": 20,
      "start": 5.6998,
      "duration": 0.2996,
      "velocity": 127,
      "chip": "ym2612"
    },
    {
      "channel": 4,
      "note": 82,
      "start": 5.8487,
      "duration": 0.2996,
      "velocity": 92,
      "chip": "ym2612"
    },
    {
      "channel": 1,
      "note": 79,
      "start": 5.9983,
      "duration": 0.5999,
      "velocity": 89,
      "chip": "ym2612"
    },
    {
      "channel": 2,
      "note": 80,
      "start": 5.9988,
      "duration": 0.2993,
      "velocity": 89,
      "chip": "ym2612"
    },
    {
      "channel": 3,
      "note": 87,
      "start": 5.9993,
      "duration": 0.2993,
      "velocity": 92,
      "chip": "ym2612"
    },
    {
      "channel": 5,
      "note": 20,
      "start": 5.9999,
      "duration": 0.5996,
      "velocity": 127,
      "chip": "ym2612"
    },
    {
      "channel": 4,
      "note": 85,
      "start": 6.1487,
      "duration": 0.2996,
      "velocity": 92,
      "chip": "ym2612"
    },
    {
      "channel": 2,
      "note": 79,
      "start": 6.2985,
      "duration": 0.5999,
      "velocity": 89,
      "chip": "ym2612"
    },
    {
      "channel": 3,
      "note": 85,
      "start": 6.299,
      "duration": 0.2999,
      "velocity": 92,
      "chip": "ym2612"
    },
    {
      "channel": 4,
      "note": 87,
      "start": 6.4487,
      "duration": 0.2996,
      "velocity": 92,
      "chip": "ym2612"
    },
    {
      "channel": 0,
      "note": 55,
      "start": 6.598,
      "duration": 0.5997,
      "velocity": 106,
      "chip": "ym2612"
    },
    {
      "channel": 1,
      "note": 80,
      "start": 6.5986,
      "duration": 0.2993,
      "velocity": 89,
      "chip": "ym2612"
    },
    {
      "channel": 3,
      "note": 82,
      "start": 6.5993,
      "duration": 0.2996,
      "velocity": 92,
      "chip": "ym2612"
    },
    {
      "channel": 5,
      "note": 80,
      "start": 6.602,
      "duration": 0.5978,
      "velocity": 127,
      "chip": "ym2612"
    },
    {
      "channel": 4,
      "note": 85,
      "start": 6.7487,
      "duration": 0.2996,
      "velocity": 92,
      "chip": "ym2612"
    },
    {
      "channel": 1,
      "note": 82,
      "start": 6.8982,
      "duration": 0.3,
      "velocity": 89,
      "chip": "ym2612"
    },
    {
      "channel": 2,
      "note": 80,
      "start": 6.8988,
      "duration": 0.2999,
      "velocity": 89,
      "chip": "ym2612"
    },
    {
      "channel": 3,
      "note": 79,
      "start": 6.8993,
      "duration": 0.2999,
      "velocity": 92,
      "chip": "ym2612"
    },
    {
      "channel": 4,
      "note": 82,
      "start": 7.0487,
      "duration": 0.2996,
      "velocity": 92,
      "chip": "ym2612"
    },
    {
      "channel": 0,
      "note": 56,
      "start": 7.1981,
      "duration": 1.7996,
      "velocity": 106,
      "chip": "ym2612"
    },
    {
      "channel": 1,
      "note": 83,
      "start": 7.1986,
      "duration": 0.5993,
      "velocity": 89,
      "chip": "ym2612"
    },
    {
      "channel": 2,
      "note": 82,
      "start": 7.1991,
      "duration": 0.2989,
      "velocity": 89,
      "chip": "ym2612"
    },
    {
      "channel": 3,
      "note": 80,
      "start": 7.1996,
      "duration": 0.2989,
      "velocity": 92,
      "chip": "ym2612"
    },
    {
      "channel": 5,
      "note": 20,
      "start": 7.2025,
      "duration": 0.2966,
      "velocity": 127,
      "chip": "ym2612"
    },
    {
      "channel": 4,
      "note": 79,
      "start": 7.3487,
      "duration": 0.2996,
      "velocity": 92,
      "chip": "ym2612"
    },
    {
      "channel": 2,
      "note": 83,
      "start": 7.4984,
      "duration": 0.5997,
      "velocity": 89,
      "chip": "ym2612"
    },
    {
      "channel": 3,
      "note": 82,
      "start": 7.4989,
      "duration": 0.2996,
      "velocity": 92,
      "chip": "ym2612"
    },
    {
      "channel": 5,
      "note": 20,
      "start": 7.4995,
      "duration": 0.5996,
      "velocity": 127,
      "chip": "ym2612"
    },
    {
      "channel": 4,
      "note": 80,
      "start": 7.6487,
      "duration": 0.2996,
      "velocity": 92,
      "chip": "ym2612"
    },
    {
      "channel": 1,
      "note": 85,
      "start": 7.7982,
      "duration": 0.5996,
      "velocity": 89,
      "chip": "ym2612"
    },
    {
      "channel": 3,
      "note": 83,
      "start": 7.7989,
      "duration": 0.2997,
      "velocity": 92,
      "chip": "ym2612"
    },
    {
      "channel": 4,
      "note": 82,
      "start": 7.9487,
      "duration": 0.2996,
      "velocity": 92,
      "chip": "ym2612"
    },
    {
      "channel": 2,
      "note": 85,
      "start": 8.0984,
      "duration": 0.5997,
      "velocity": 89,
      "chip": "ym2612"
    },
    {
      "channel": 3,
      "note": 85,
      "start": 8.0989,
      "duration": 0.2996,
      "velocity": 92,
      "chip": "ym2612"
    },
    {
      "channel": 5,
      "note": 20,
      "start": 8.0995,
      "duration": 0.2996,
      "velocity": 127,
      "chip": "ym2612"
    },
    {
      "channel": 4,
      "note": 83,
      "start": 8.2487,
      "duration": 0.2996,
      "velocity": 92,
      "chip": "ym2612"
    },
    {
      "channel": 1,
      "note": 87,
      "start": 8.3982,
      "duration": 0.6,
      "velocity": 89,
      "chip": "ym2612"
    },
    {
      "channel": 3,
      "note": 87,
      "start": 8.3989,
      "duration": 0.2997,
      "velocity": 92,
      "chip": "ym2612"
    },
    {
      "channel": 5,
      "note": 20,
      "start": 8.3995,
      "duration": 0.6,
      "velocity": 127,
      "chip": "ym2612"
    },
    {
      "channel": 4,
      "note": 85,
      "start": 8.5487,
      "duration": 0.2996,
      "velocity": 92,
      "chip": "ym2612"
    },
    {
      "channel": 2,
      "note": 87,
      "start": 8.6984,
      "duration": 0.5999,
      "velocity": 89,
      "chip": "ym2612"
    },
    {
      "channel": 3,
      "note": 84,
      "start": 8.6989,
      "duration": 0.2999,
      "velocity": 92,
      "chip": "ym2612"
    },
    {
      "channel": 4,
      "note": 87,
      "start": 8.8487,
      "duration": 0.2996,
      "velocity": 92,
      "chip": "ym2612"
    },
    {
      "channel": 0,
      "note": 60,
      "start": 8.998,
      "duration": 0.5997,
      "velocity": 106,
      "chip": "ym2612"
    },
    {
      "channel": 1,
      "note": 88,
      "start": 8.9985,
      "duration": 0.2993,
      "velocity": 89,
      "chip": "ym2612"
    },
    {
      "channel": 3,
      "note": 85,
      "start": 8.9992,
      "duration": 0.2996,
      "velocity": 92,
      "chip": "ym2612"
    },
    {
      "channel": 5,
      "note": 80,
      "start": 9.002,
      "duration": 0.5978,
      "velocity": 127,
      "chip": "ym2612"
    },
    {
      "channel": 4,
      "note": 84,
      "start": 9.1487,
      "duration": 0.2996,
      "velocity": 92,
      "chip": "ym2612"
    },
    {
      "channel": 1,
      "note": 90,
      "start": 9.2982,
      "duration": 0.3,
      "velocity": 89,
      "chip": "ym2612"
    },
    {
      "channel": 2,
      "note": 88,
      "start": 9.2987,
      "duration": 0.3,
      "velocity": 89,
      "chip": "ym2612"
    },
    {
      "channel": 3,
      "note": 87,
      "start": 9.2992,
      "duration": 0.3,
      "velocity": 92,
      "chip": "ym2612"
    },
    {
      "channel": 4,
      "note": 85,
      "start": 9.4487,
      "duration": 0.2996,
      "velocity": 92,
      "chip": "ym2612"
    },
    {
      "channel": 0,
      "note": 61,
      "start": 9.598,
      "duration": 1.1997,
      "velocity": 106,
      "chip": "ym2612"
    },
    {
      "channel": 1,
      "note": 92,
      "start": 9.5986,
      "duration": 0.5993,
      "velocity": 89,
      "chip": "ym2612"
    },
    {
      "channel": 2,
      "note": 90,
      "start": 9.5991,
      "duration": 0.2989,
      "velocity": 89,
      "chip": "ym2612"
    },
    {
      "channel": 3,
      "note": 80,
      "start": 9.5996,
      "duration": 0.299,
      "velocity": 92,
      "chip": "ym2612"
    },
    {
      "channel": 5,
      "note": 20,
      "start": 9.6026,
      "duration": 0.8966,
      "velocity": 127,
      "chip": "ym2612"
    },
    {
      "channel": 4,
      "note": 87,
      "start": 9.7487,
      "duration": 0.2996,
      "velocity": 92,
      "chip": "ym2612"
    },
    {
      "channel": 2,
      "note": 92,
      "start": 9.8985,
      "duration": 0.5996,
      "velocity": 89,
      "chip": "ym2612"
    },
    {
      "channel": 3,
      "note": 83,
      "start": 9.899,
      "duration": 0.2996,
      "velocity": 92,
      "chip": "ym2612"
    },
    {
      "channel": 4,
      "note": 80,
      "start": 10.0487,
      "duration": 0.2996,
      "velocity": 92,
      "chip": "ym2612"
    },
    {
      "channel": 1,
      "note": 88,
      "start": 10.1983,
      "duration": 0.5999,
      "velocity": 89,
      "chip": "ym2612"
    },
    {
      "channel": 3,
      "note": 87,
      "start": 10.199,
      "duration": 0.2996,
      "velocity": 92,
      "chip": "ym2612"
    },
    {
      "channel": 4,
      "note": 83,
      "start": 10.3487,
      "duration": 0.2996,
      "velocity": 92,
      "chip": "ym2612"
    },
    {
      "channel": 2,
      "note": 88,
      "start": 10.4985,
      "duration": 0.5999,
      "velocity": 89,
      "chip": "ym2612"
    },
    {
      "channel": 3,
      "note": 83,
      "start": 10.499,
      "duration": 0.2999,
      "velocity": 92,
      "chip": "ym2612"
    },
    {
      "channel": 5,
      "note": 20,
      "start": 10.4995,
      "duration": 0.2999,
      "velocity": 127,
      "chip": "ym2612"
    },
    {
      "channel": 4,
      "note": 87,
      "start": 10.6487,
      "duration": 0.2996,
      "velocity": 92,
      "chip": "ym2612"
    },
    {
      "channel": 0,
      "note": 54,
      "start": 10.7981,
      "duration": 1.1996,
      "velocity": 106,
      "chip": "ym2612"
    },
    {
      "channel": 1,
      "note": 90,
      "start": 10.7986,
      "duration": 0.2993,
      "velocity": 89,
      "chip": "ym2612"
    },
    {
      "channel": 3,
      "note": 80,
      "start": 10.7993,
      "duration": 0.2996,
      "velocity": 92,
      "chip": "ym2612"
    },
    {
      "channel": 5,
      "note": 20,
      "start": 10.7999,
      "duration": 0.5996,
      "velocity": 127,
      "chip": "ym2612"
    },
    {
      "channel": 4,
      "note": 83,
      "start": 10.9487,
      "duration": 0.2996,
      "velocity": 92,
      "chip": "ym2612"
    },
    {
      "channel": 1,
      "note": 92,
      "start": 11.0983,
      "duration": 0.2996,
      "velocity": 89,
      "chip": "ym2612"
    },
    {
      "channel": 2,
      "note": 90,
      "start": 11.0988,
      "duration": 0.2996,
      "velocity": 89,
      "chip": "ym2612"
    },
    {
      "channel": 3,
      "note": 82,
      "start": 11.0993,
      "duration": 0.2996,
      "velocity": 92,
      "chip": "ym2612"
    },
    {
      "channel": 4,
      "note": 80,
      "start": 11.2487,
      "duration": 0.2996,
      "velocity": 92,
      "chip": "ym2612"
    },
    {
      "channel": 1,
      "note": 90,
      "start": 11.3983,
      "duration": 0.2996,
      "velocity": 89,
      "chip": "ym2612"
    },
    {
      "channel": 2,
      "note": 92,
      "start": 11.3988,
      "duration": 0.2996,
      "velocity": 89,
      "chip": "ym2612"
    },
    {
      "channel": 3,
      "note": 85,
      "start": 11.3993,
      "duration": 0.2996,
      "velocity": 92,
      "chip": "ym2612"
    },
    {
      "channel": 5,
      "note": 80,
      "start": 11.402,
      "duration": 0.5978,
      "velocity": 127,
      "chip": "ym2612"
    },
    {
      "channel": 4,
      "note": 82,
      "start": 11.5487,
      "duration": 0.2996,
      "velocity": 92,
      "chip": "ym2612"
    },
    {
      "channel": 1,
      "note": 88,
      "start": 11.6983,
      "duration": 0.2999,
      "velocity": 89,
      "chip": "ym2612"
    },
    {
      "channel": 2,
      "note": 90,
      "start": 11.6988,
      "duration": 0.2999,
      "velocity": 89,
      "chip": "ym2612"
    },
    {
      "channel": 3,
      "note": 82,
      "start": 11.6993,
      "duration": 0.2999,
      "velocity": 92,
      "chip": "ym2612"
    },
    {
      "channel": 4,
      "note": 85,
      "start": 11.8487,
      "duration": 0.2996,
      "velocity": 92,
      "chip": "ym2612"
    },
    {
      "channel": 0,
      "note": 59,
      "start": 11.9981,
      "duration": 1.1996,
      "velocity": 106,
      "chip": "ym2612"
    },
    {
      "channel": 1,
      "note": 87,
      "start": 11.9986,
      "duration": 0.5993,
      "velocity": 89,
      "chip": "ym2612"
    },
    {
      "channel": 2,
      "note": 88,
      "start": 11.9991,
      "duration": 0.2989,
      "velocity": 89,
      "chip": "ym2612"
    },
    {
      "channel": 3,
      "note": 78,
      "start": 11.9996,
      "duration": 0.2989,
      "velocity": 92,
      "chip": "ym2612"
    },
    {
      "channel": 5,
      "note": 20,
      "start": 12.0025,
      "duration": 0.2966,
      "velocity": 127,
      "chip": "ym2612"
    },
    {
      "channel": 4,
      "note": 82,
      "start": 12.1487,
      "duration": 0.2996,
      "velocity": 92,
      "chip": "ym2612"
    },
    {
      "channel": 2,
      "note": 87,
      "start": 12.2984,
      "duration": 0.5997,
      "velocity": 89,
      "chip": "ym2612"
    },
    {
      "channel": 3,
      "note": 82,
      "start": 12.299,
      "duration": 0.2995,
      "velocity": 92,
      "chip": "ym2612"
    },
    {
      "channel": 5,
      "note": 20,
      "start": 12.2995,
      "duration": 0.5996,
      "velocity": 127,
      "chip": "ym2612"
    },
    {
      "channel": 4,
      "note": 78,
      "start": 12.4487,
      "duration": 0.2996,
      "velocity": 92,
      "chip": "ym2612"
    },
    {
      "channel": 1,
      "note": 83,
      "start": 12.5982,
      "duration": 0.6,
      "velocity": 89,
      "chip": "ym2612"
    },
    {
      "channel": 3,
      "note": 85,
      "start": 12.5989,
      "duration": 0.2997,
      "velocity": 92,
      "chip": "ym2612"
    },
    {
      "channel": 4,
      "note": 82,
      "start": 12.7487,
      "duration": 0.2996,
      "velocity": 92,
      "chip": "ym2612"
    },
    {
      "channel": 2,
      "note": 83,
      "start": 12.8984,
      "duration": 0.5999,
      "velocity": 89,
      "chip": "ym2612"
    },
    {
      "channel": 3,
      "note": 82,
      "start": 12.8989,
      "duration": 0.3,
      "velocity": 92,
      "chip": "ym2612"
    },
    {
      "channel": 5,
      "note": 20,
      "start": 12.8995,
      "duration": 0.3,
      "velocity": 127,
      "chip": "ym2612"
    },
    {
      "channel": 4,
      "note": 85,
      "start": 13.0487,
      "duration": 0.2996,
      "velocity": 92,
      "chip": "ym2612"
    },
    {
      "channel": 0,
      "note": 52,
      "start": 13.1981,
      "duration": 1.1996,
      "velocity": 106,
      "chip": "ym2612"
    },
    {
      "channel": 1,
      "note": 88,
      "start": 13.1986,
      "duration": 0.2993,
      "velocity": 89,
      "chip": "ym2612"
    },
    {
      "channel": 3,
      "note": 78,
      "start": 13.1993,
      "duration": 0.2995,
      "velocity": 92,
      "chip": "ym2612"
    },
    {
      "channel": 5,
      "note": 20,
      "start": 13.1999,
      "duration": 0.5996,
      "velocity": 127,
      "chip": "ym2612"
    },
    {
      "channel": 4,
      "note": 82,
      "start": 13.3487,
      "duration": 0.2996,
      "velocity": 92,
      "chip": "ym2612"
    },
    {
      "channel": 1,
      "note": 87,
      "start": 13.4982,
      "duration": 0.2996,
      "velocity": 89,
      "chip": "ym2612"
    },
    {
      "channel": 2,
      "note": 88,
      "start": 13.4987,
      "duration": 0.2996,
      "velocity": 89,
      "chip": "ym2612"
    },
    {
      "channel": 3,
      "note": 80,
      "start": 13.4993,
      "duration": 0.2995,
      "velocity": 92,
      "chip": "ym2612"
    },
    {
      "channel": 4,
      "note": 78,
      "start": 13.6487,
      "duration": 0.2996,
      "velocity": 92,
      "chip": "ym2612"
    },
    {
      "channel": 1,
      "note": 85,
      "start": 13.7982,
      "duration": 0.2997,
      "velocity": 89,
      "chip": "ym2612"
    },
    {
      "channel": 2,
      "note": 87,
      "start": 13.7987,
      "duration": 0.2997,
      "velocity": 89,
      "chip": "ym2612"
    },
    {
      "channel": 3,
      "note": 83,
      "start": 13.7992,
      "duration": 0.2997,
      "velocity": 92,
      "chip": "ym2612"
    },
    {
      "channel": 5,
      "note": 80,
      "start": 13.802,
      "duration": 0.5978,
      "velocity": 127,
      "chip": "ym2612"
    },
    {
      "channel": 4,
      "note": 80,
      "start": 13.9487,
      "duration": 0.2996,
      "velocity": 92,
      "chip": "ym2612"
    },
    {
      "channel": 1,
      "note": 83,
      "start": 14.0983,
      "duration": 0.2999,
      "velocity": 89,
      "chip": "ym2612"
    },
    {
      "channel": 2,
      "note": 85,
      "start": 14.0987,
      "duration": 0.3,
      "velocity": 89,
      "chip": "ym2612"
    },
    {
      "channel": 3,
      "note": 80,
      "start": 14.0992,
      "duration": 0.3,
      "velocity": 92,
      "chip": "ym2612"
    },
    {
      "channel": 4,
      "note": 83,
      "start": 14.2487,
      "duration": 0.2996,
      "velocity": 92,
      "chip": "ym2612"
    },
    {
      "channel": 0,
      "note": 58,
      "start": 14.3981,
      "duration": 1.1996,
      "velocity": 106,
      "chip": "ym2612"
    },
    {
      "channel": 1,
      "note": 82,
      "start": 14.3986,
      "duration": 0.2993,
      "velocity": 89,
      "chip": "ym2612"
    },
    {
      "channel": 2,
      "note": 83,
      "start": 14.3991,
      "duration": 0.2992,
      "velocity": 89,
      "chip": "ym2612"
    },
    {
      "channel": 3,
      "note": 77,
      "start": 14.3996,
      "duration": 0.2992,
      "velocity": 92,
      "chip": "ym2612"
    },
    {
      "channel": 5,
      "note": 20,
      "start": 14.4026,
      "duration": 0.8968,
      "velocity": 127,
      "chip": "ym2612"
    },
    {
      "channel": 4,
      "note": 80,
      "start": 14.5487,
      "duration": 0.2996,
      "velocity": 92,
      "chip": "ym2612"
    },
    {
      "channel": 1,
      "note": 83,
      "start": 14.6982,
      "duration": 0.2996,
      "velocity": 89,
      "chip": "ym2612"
    },
    {
      "channel": 2,
      "note": 82,
      "start": 14.6987,
      "duration": 0.2996,
      "velocity": 89,
      "chip": "ym2612"
    },
    {
      "channel": 3,
      "note": 80,
      "start": 14.6993,
      "duration": 0.2995,
      "velocity": 92,
      "chip": "ym2612"
    },
    {
      "channel": 4,
      "note": 77,
      "start": 14.8487,
      "duration": 0.2996,
      "velocity": 92,
      "chip": "ym2612"
    },
    {
      "channel": 1,
      "note": 85,
      "start": 14.9982,
      "duration": 0.2997,
      "velocity": 89,
      "chip": "ym2612"
    },
    {
      "channel": 2,
      "note": 83,
      "start": 14.9987,
      "duration": 0.2997,
      "velocity": 89,
      "chip": "ym2612"
    },
    {
      "channel": 3,
      "note": 82,
      "start": 14.9992,
      "duration": 0.2996,
      "velocity": 92,
      "chip": "ym2612"
    },
    {
      "channel": 4,
      "note": 80,
      "start": 15.1487,
      "duration": 0.2996,
      "velocity": 92,
      "chip": "ym2612"
    },
    {
      "channel": 1,
      "note": 88,
      "start": 15.2983,
      "duration": 0.2999,
      "velocity": 89,
      "chip": "ym2612"
    },
    {
      "channel": 2,
      "note": 85,
      "start": 15.2987,
      "duration": 0.3,
      "velocity": 89,
      "chip": "ym2612"
    },
    {
      "channel": 3,
      "note": 85,
      "start": 15.2992,
      "duration": 0.3,
      "velocity": 92,
      "chip": "ym2612"
    },
    {
      "channel": 5,
      "note": 20,
      "start": 15.2998,
      "duration": 0.2999,
      "velocity": 127,
      "chip": "ym2612"
    },
    {
      "channel": 4,
      "note": 82,
      "start": 15.4487,
      "duration": 0.2996,
      "velocity": 92,
      "chip": "ym2612"
    },
    {
      "channel": 0,
      "note": 51,
      "start": 15.5981,
      "duration": 1.1996,
      "velocity": 106,
      "chip": "ym2612"
    },
    {
      "channel": 1,
      "note": 87,
      "start": 15.5986,
      "duration": 0.5993,
      "velocity": 89,
      "chip": "ym2612"
    },
    {
      "channel": 2,
      "note": 88,
      "start": 15.5991,
      "duration": 0.2989,
      "velocity": 89,
      "chip": "ym2612"
    },
    {
      "channel": 3,
      "note": 87,
      "start": 15.5996,
      "duration": 0.2989,
      "velocity": 92,
      "chip": "ym2612"
    },
    {
      "channel": 5,
      "note": 20,
      "start": 15.6002,
      "duration": 0.5989,
      "velocity": 127,
      "chip": "ym2612"
    },
    {
      "channel": 4,
      "note": 85,
      "start": 15.7487,
      "duration": 0.2996,
      "velocity": 92,
      "chip": "ym2612"
    },
    {
      "channel": 2,
      "note": 87,
      "start": 15.8984,
      "duration": 0.5997,
      "velocity": 89,
      "chip": "ym2612"
    },
    {
      "channel": 3,
      "note": 85,
      "start": 15.8989,
      "duration": 0.2996,
      "velocity": 92,
      "chip": "ym2612"
    },
    {
      "channel": 4,
      "note": 87,
      "start": 16.0487,
      "duration": 0.2996,
      "velocity": 92,
      "chip": "ym2612"
    },
    {
      "channel": 1,
      "note": 91,
      "start": 16.1982,
      "duration": 0.6,
      "velocity": 89,
      "chip": "ym2612"
    },
    {
      "channel": 3,
      "note": 82,
      "start": 16.1989,
      "duration": 0.2997,
      "velocity": 92,
      "chip": "ym2612"
    },
    {
      "channel": 5,
      "note": 80,
      "start": 16.2017,
      "duration": 0.5979,
      "velocity": 127,
      "chip": "ym2612"
    },
    {
      "channel": 4,
      "note": 85,
      "start": 16.3487,
      "duration": 0.2996,
      "velocity": 92,
      "chip": "ym2612"
    },
    {
      "channel": 2,
      "note": 91,
      "start": 16.4984,
      "duration": 0.6,
      "velocity": 89,
      "chip": "ym2612"
    },
    {
      "channel": 3,
      "note": 79,
      "start": 16.499,
      "duration": 0.3,
      "velocity": 92,
      "chip": "ym2612"
    },
    {
      "channel": 4,
      "note": 82,
      "start": 16.6487,
      "duration": 0.2996,
      "velocity": 92,
      "chip": "ym2612"
    },
    {
      "channel": 0,
      "note": 56,
      "start": 16.7981,
      "duration": 0.5996,
      "velocity": 106,
      "chip": "ym2612"
    },
    {
      "channel": 1,
      "note": 92,
      "start": 16.7986,
      "duration": 0.2993,
      "velocity": 89,
      "chip": "ym2612"
    },
    {
      "channel": 3,
      "note": 80,
      "start": 16.7994,
      "duration": 0.2995,
      "velocity": 92,
      "chip": "ym2612"
    },
    {
      "channel": 5,
      "note": 20,
      "start": 16.8022,
      "duration": 0.2973,
      "velocity": 127,
      "chip": "ym2612"
    },
    {
      "channel": 4,
      "note": 79,
      "start": 16.9487,
      "duration": 0.2996,
      "velocity": 92,
      "chip": "ym2612"
    },
    {
      "channel": 1,
      "note": 88,
      "start": 17.0983,
      "duration": 0.2999,
      "velocity": 89,
      "chip": "ym2612"
    },
    {
      "channel": 2,
      "note": 92,
      "start": 17.0988,
      "duration": 0.2999,
      "velocity": 89,
      "chip": "ym2612"
    },
    {
      "channel": 3,
      "note": 82,
      "start": 17.0993,
      "duration": 0.2999,
      "velocity": 92,
      "chip": "ym2612"
    },
    {
      "channel": 5,
      "note": 20,
      "start": 17.0999,
      "duration": 0.5996,
      "velocity": 127,
      "chip": "ym2612"
    },
    {
      "channel": 4,
      "note": 80,
      "start": 17.2487,
      "duration": 0.2996,
      "velocity": 92,
      "chip": "ym2612"
    },
    {
      "channel": 0,
      "note": 51,
      "start": 17.3981,
      "duration": 0.5996,
      "velocity": 106,
      "chip": "ym2612"
    },
    {
      "channel": 1,
      "note": 87,
      "start": 17.3986,
      "duration": 0.2993,
      "velocity": 89,
      "chip": "ym2612"
    },
    {
      "channel": 2,
      "note": 88,
      "start": 17.3991,
      "duration": 0.2992,
      "velocity": 89,
      "chip": "ym2612"
    },
    {
      "channel": 3,
      "note": 83,
      "start": 17.3996,
      "duration": 0.2992,
      "velocity": 92,
      "chip": "ym2612"
    },
    {
      "channel": 4,
      "note": 82,
      "start": 17.5487,
      "duration": 0.2996,
      "velocity": 92,
      "chip": "ym2612"
    },
    {
      "channel": 1,
      "note": 83,
      "start": 17.6982,
      "duration": 0.3,
      "velocity": 89,
      "chip": "ym2612"
    },
    {
      "channel": 2,
      "note": 87,
      "start": 17.6987,
      "duration": 0.3,
      "velocity": 89,
      "chip": "ym2612"
    },
    {
      "channel": 3,
      "note": 87,
      "start": 17.6992,
      "duration": 0.3,
      "velocity": 92,
      "chip": "ym2612"
    },
    {
      "channel": 5,
      "note": 20,
      "start": 17.6998,
      "duration": 0.3,
      "velocity": 127,
      "chip": "ym2612"
    },
    {
      "channel": 4,
      "note": 83,
      "start": 17.8487,
      "duration": 0.2996,
      "velocity": 92,
      "chip": "ym2612"
    },
    {
      "channel": 0,
      "note": 56,
      "start": 17.9981,
      "duration": 1.1996,
      "velocity": 106,
      "chip": "ym2612"
    },
    {
      "channel": 1,
      "note": 80,
      "start": 17.9986,
      "duration": 1.1997,
      "velocity": 89,
      "chip": "ym2612"
    },
    {
      "channel": 2,
      "note": 83,
      "start": 17.9991,
      "duration": 0.2989,
      "velocity": 89,
      "chip": "ym2612"
    },
    {
      "channel": 3,
      "note": 92,
      "start": 17.9996,
      "duration": 1.1995,
      "velocity": 92,
      "chip": "ym2612"
    },
    {
      "channel": 5,
      "note": 20,
      "start": 18.0002,
      "duration": 0.5982,
      "velocity": 127,
      "chip": "ym2612"
    },
    {
      "channel": 4,
      "note": 87,
      "start": 18.1487,
      "duration": 0.2996,
      "velocity": 92,
      "chip": "ym2612"
    },
    {
      "channel": 2,
      "note": 80,
      "start": 18.2984,
      "duration": 1.1999,
      "velocity": 89,
      "chip": "ym2612"
    },
    {
      "channel": 4,
      "note": 92,
      "start": 18.4487,
      "duration": 1.1996,
      "velocity": 92,
      "chip": "ym2612"
    },
    {
      "channel": 5,
      "note": 80,
      "start": 18.6009,
      "duration": 0.5989,
      "velocity": 127,
      "chip": "ym2612"
    },
    {
      "channel": 0,
      "note": 56,
      "start": 19.1982,
      "duration": 1.1995,
      "velocity": 106,
      "chip": "ym2612"
    },
    {
      "channel": 1,
      "note": 83,
      "start": 19.1988,
      "duration": 0.299,
      "velocity": 89,
      "chip": "ym2612"
    },
    {
      "channel": 3,
      "note": 80,
      "start": 19.1996,
      "duration": 0.2994,
      "velocity": 92,
      "chip": "ym2612"
    },
    {
      "channel": 5,
      "note": 20,
      "start": 19.2025,
      "duration": 0.8969,
      "velocity": 127,
      "chip": "ym2612"
    },
    {
      "channel": 1,
      "note": 85,
      "start": 19.4982,
      "duration": 0.2996,
      "velocity": 89,
      "chip": "ym2612"
    },
    {
      "channel": 2,
      "note": 83,
      "start": 19.4988,
      "duration": 0.2995,
      "velocity": 89,
      "chip": "ym2612"
    },
    {
      "channel": 3,
      "note": 83,
      "start": 19.4994,
      "duration": 0.2995,
      "velocity": 92,
      "chip": "ym2612"
    },
    {
      "channel": 4,
      "note": 80,
      "start": 19.6488,
      "duration": 0.2995,
      "velocity": 92,
      "chip": "ym2612"
    },
    {
      "channel": 1,
      "note": 87,
      "start": 19.7982,
      "duration": 0.2997,
      "velocity": 89,
      "chip": "ym2612"
    },
    {
      "channel": 2,
      "note": 85,
      "start": 19.7987,
      "duration": 0.2997,
      "velocity": 89,
      "chip": "ym2612"
    },
    {
      "channel": 3,
      "note": 87,
      "start": 19.7992,
      "duration": 0.2996,
      "velocity": 92,
      "chip": "ym2612"
    },
    {
      "channel": 4,
      "note": 83,
      "start": 19.9487,
      "duration": 0.2996,
      "velocity": 92,
      "chip": "ym2612"
    },
    {
      "channel": 1,
      "note": 83,
      "start": 20.0983,
      "duration": 0.2999,
      "velocity": 89,
      "chip": "ym2612"
    },
    {
      "channel": 2,
      "note": 87,
      "start": 20.0987,
      "duration": 0.3,
      "velocity": 89,
      "chip": "ym2612"
    },
    {
      "channel": 3,
      "note": 83,
      "start": 20.0992,
      "duration": 0.3,
      "velocity": 92,
      "chip": "ym2612"
    },
    {
      "channel": 5,
      "note": 20,
      "start": 20.0998,
      "duration": 0.3,
      "velocity": 127,
      "chip": "ym2612"
    },
    {
      "channel": 4,
      "note": 87,
      "start": 20.2487,
      "duration": 0.2996,
      "velocity": 92,
      "chip": "ym2612"
    },
    {
      "channel": 0,
      "note": 54,
      "start": 20.3981,
      "duration": 1.1996,
      "velocity": 106,
      "chip": "ym2612"
    },
    {
      "channel": 1,
      "note": 88,
      "start": 20.3986,
      "duration": 0.5993,
      "velocity": 89,
      "chip": "ym2612"
    },
    {
      "channel": 2,
      "note": 83,
      "start": 20.3991,
      "duration": 0.2989,
      "velocity": 89,
      "chip": "ym2612"
    },
    {
      "channel": 3,
      "note": 78,
      "start": 20.3996,
      "duration": 0.2989,
      "velocity": 92,
      "chip": "ym2612"
    },
    {
      "channel": 5,
      "note": 20,
      "start": 20.4002,
      "duration": 0.5989,
      "velocity": 127,
      "chip": "ym2612"
    },
    {
      "channel": 4,
      "note": 83,
      "start": 20.5487,
      "duration": 0.2996,
      "velocity": 92,
      "chip": "ym2612"
    },
    {
      "channel": 2,
      "note": 88,
      "start": 20.6984,
      "duration": 0.6,
      "velocity": 89,
      "chip": "ym2612"
    },
    {
      "channel": 3,
      "note": 83,
      "start": 20.699,
      "duration": 0.2995,
      "velocity": 92,
      "chip": "ym2612"
    },
    {
      "channel": 4,
      "note": 78,
      "start": 20.8487,
      "duration": 0.2996,
      "velocity": 92,
      "chip": "ym2612"
    },
    {
      "channel": 1,
      "note": 87,
      "start": 20.9982,
      "duration": 0.2997,
      "velocity": 89,
      "chip": "ym2612"
    },
    {
      "channel": 3,
      "note": 87,
      "start": 20.9989,
      "duration": 0.3,
      "velocity": 92,
      "chip": "ym2612"
    },
    {
      "channel": 5,
      "note": 80,
      "start": 21.0017,
      "duration": 0.5981,
      "velocity": 127,
      "chip": "ym2612"
    },
    {
      "channel": 4,
      "note": 83,
      "start": 21.1487,
      "duration": 0.2996,
      "velocity": 92,
      "chip": "ym2612"
    },
    {
      "channel": 1,
      "note": 85,
      "start": 21.2983,
      "duration": 0.2999,
      "velocity": 89,
      "chip": "ym2612"
    },
    {
      "channel": 2,
      "note": 87,
      "start": 21.2987,
      "duration": 0.2999,
      "velocity": 89,
      "chip": "ym2612"
    },
    {
      "channel": 3,
      "note": 83,
      "start": 21.2992,
      "duration": 0.2999,
      "velocity": 92,
      "chip": "ym2612"
    },
    {
      "channel": 4,
      "note": 87,
      "start": 21.4487,
      "duration": 0.2996,
      "velocity": 92,
      "chip": "ym2612"
    },
    {
      "channel": 0,
      "note": 53,
      "start": 21.598,
      "duration": 1.1997,
      "velocity": 106,
      "chip": "ym2612"
    },
    {
      "channel": 1,
      "note": 83,
      "start": 21.5985,
      "duration": 0.5993,
      "velocity": 89,
      "chip": "ym2612"
    },
    {
      "channel": 2,
      "note": 85,
      "start": 21.599,
      "duration": 0.299,
      "velocity": 89,
      "chip": "ym2612"
    },
    {
      "channel": 3,
      "note": 77,
      "start": 21.5996,
      "duration": 0.2989,
      "velocity": 92,
      "chip": "ym2612"
    },
    {
      "channel": 5,
      "note": 20,
      "start": 21.6025,
      "duration": 0.2966,
      "velocity": 127,
      "chip": "ym2612"
    },
    {
      "channel": 4,
      "note": 83,
      "start": 21.7487,
      "duration": 0.2996,
      "velocity": 92,
      "chip": "ym2612"
    },
    {
      "channel": 2,
      "note": 83,
      "start": 21.8984,
      "duration": 0.6,
      "velocity": 89,
      "chip": "ym2612"
    },
    {
      "channel": 3,
      "note": 83,
      "start": 21.899,
      "duration": 0.2995,
      "velocity": 92,
      "chip": "ym2612"
    },
    {
      "channel": 5,
      "note": 20,
      "start": 21.8995,
      "duration": 0.5999,
      "velocity": 127,
      "chip": "ym2612"
    },
    {
      "channel": 4,
      "note": 77,
      "start": 22.0487,
      "duration": 0.2996,
      "velocity": 92,
      "chip": "ym2612"
    },
    {
      "channel": 1,
      "note": 82,
      "start": 22.1982,
      "duration": 0.2997,
      "velocity": 89,
      "chip": "ym2612"
    },
    {
      "channel": 3,
      "note": 87,
      "start": 22.1989,
      "duration": 0.2999,
      "velocity": 92,
      "chip": "ym2612"
    },
    {
      "channel": 4,
      "note": 83,
      "start": 22.3487,
      "duration": 0.2996,
      "velocity": 92,
      "chip": "ym2612"
    },
    {
      "channel": 1,
      "note": 83,
      "start": 22.4983,
      "duration": 0.2999,
      "velocity": 89,
      "chip": "ym2612"
    },
    {
      "channel": 2,
      "note": 82,
      "start": 22.4987,
      "duration": 0.2999,
      "velocity": 89,
      "chip": "ym2612"
    },
    {
      "channel": 3,
      "note": 83,
      "start": 22.4992,
      "duration": 0.2999,
      "velocity": 92,
      "chip": "ym2612"
    },
    {
      "channel": 5,
      "note": 20,
      "start": 22.4998,
      "duration": 0.2999,
      "velocity": 127,
      "chip": "ym2612"
    },
    {
      "channel": 4,
      "note": 87,
      "start": 22.6487,
      "duration": 0.2996,
      "velocity": 92,
      "chip": "ym2612"
    },
    {
      "channel": 0,
      "note": 52,
      "start": 22.798,
      "duration": 1.1997,
      "velocity": 106,
      "chip": "ym2612"
    },
    {
      "channel": 1,
      "note": 80,
      "start": 22.7985,
      "duration": 0.5993,
      "velocity": 89,
      "chip": "ym2612"
    },
    {
      "channel": 2,
      "note": 83,
      "start": 22.799,
      "duration": 0.299,
      "velocity": 89,
      "chip": "ym2612"
    },
    {
      "channel": 3,
      "note": 76,
      "start": 22.7996,
      "duration": 0.2989,
      "velocity": 92,
      "chip": "ym2612"
    },
    {
      "channel": 5,
      "note": 20,
      "start": 22.8002,
      "duration": 0.5989,
      "velocity": 127,
      "chip": "ym2612"
    },
    {
      "channel": 4,
      "note": 83,
      "start": 22.9487,
      "duration": 0.2996,
      "velocity": 92,
      "chip": "ym2612"
    },
    {
      "channel": 2,
      "note": 80,
      "start": 23.0984,
      "duration": 0.6,
      "velocity": 89,
      "chip": "ym2612"
    },
    {
      "channel": 3,
      "note": 80,
      "start": 23.099,
      "duration": 0.2995,
      "velocity": 92,
      "chip": "ym2612"
    },
    {
      "channel": 4,
      "note": 76,
      "start": 23.2487,
      "duration": 0.2996,
      "velocity": 92,
      "chip": "ym2612"
    },
    {
      "channel": 1,
      "note": 82,
      "start": 23.3982,
      "duration": 0.2997,
      "velocity": 89,
      "chip": "ym2612"
    },
    {
      "channel": 3,
      "note": 87,
      "start": 23.3989,
      "duration": 0.3,
      "velocity": 92,
      "chip": "ym2612"
    },
    {
      "channel": 5,
      "note": 80,
      "start": 23.4017,
      "duration": 0.5981,
      "velocity": 127,
      "chip": "ym2612"
    },
    {
      "channel": 4,
      "note": 80,
      "start": 23.5487,
      "duration": 0.2996,
      "velocity": 92,
      "chip": "ym2612"
    },
    {
      "channel": 1,
      "note": 83,
      "start": 23.6983,
      "duration": 0.2999,
      "velocity": 89,
      "chip": "ym2612"
    },
    {
      "channel": 2,
      "note": 82,
      "start": 23.6987,
      "duration": 0.2999,
      "velocity": 89,
      "chip": "ym2612"
    },
    {
      "channel": 3,
      "note": 83,
      "start": 23.6992,
      "duration": 0.2999,
      "velocity": 92,
      "chip": "ym2612"
    },
    {
      "channel": 4,
      "note": 87,
      "start": 23.8487,
      "duration": 0.2996,
      "velocity": 92,
      "chip": "ym2612"
    },
    {
      "channel": 0,
      "note": 51,
      "start": 23.998,
      "duration": 1.7997,
      "velocity": 106,
      "chip": "ym2612"
    },
    {
      "channel": 1,
      "note": 85,
      "start": 23.9985,
      "duration": 0.2993,
      "velocity": 89,
      "chip": "ym2612"
    },
    {
      "channel": 2,
      "note": 83,
      "start": 23.999,
      "duration": 0.2993,
      "velocity": 89,
      "chip": "ym2612"
    },
    {
      "channel": 3,
      "note": 75,
      "start": 23.9996,
      "duration": 0.2992,
      "velocity": 92,
      "chip": "ym2612"
    },
    {
      "channel": 5,
      "note": 20,
      "start": 24.0025,
      "duration": 0.8969,
      "velocity": 127,
      "chip": "ym2612"
    },
    {
      "channel": 4,
      "note": 83,
      "start": 24.1487,
      "duration": 0.2996,
      "velocity": 92,
      "chip": "ym2612"
    },
    {
      "channel": 1,
      "note": 83,
      "start": 24.2982,
      "duration": 0.2996,
      "velocity": 89,
      "chip": "ym2612"
    },
    {
      "channel": 2,
      "note": 85,
      "start": 24.2987,
      "duration": 0.2996,
      "velocity": 89,
      "chip": "ym2612"
    },
    {
      "channel": 3,
      "note": 79,
      "start": 24.2992,
      "duration": 0.2996,
      "velocity": 92,
      "chip": "ym2612"
    },
    {
      "channel": 4,
      "note": 75,
      "start": 24.4487,
      "duration": 0.2996,
      "velocity": 92,
      "chip": "ym2612"
    },
    {
      "channel": 1,
      "note": 82,
      "start": 24.5982,
      "duration": 0.2997,
      "velocity": 89,
      "chip": "ym2612"
    },
    {
      "channel": 2,
      "note": 83,
      "start": 24.5987,
      "duration": 0.2997,
      "velocity": 89,
      "chip": "ym2612"
    },
    {
      "channel": 3,
      "note": 82,
      "start": 24.5993,
      "duration": 0.2996,
      "velocity": 92,
      "chip": "ym2612"
    },
    {
      "channel": 4,
      "note": 79,
      "start": 24.7487,
      "duration": 0.2996,
      "velocity": 92,
      "chip": "ym2612"
    },
    {
      "channel": 1,
      "note": 80,
      "start": 24.8983,
      "duration": 0.2996,
      "velocity": 89,
      "chip": "ym2612"
    },
    {
      "channel": 2,
      "note": 82,
      "start": 24.8987,
      "duration": 0.2997,
      "velocity": 89,
      "chip": "ym2612"
    },
    {
      "channel": 3,
      "note": 85,
      "start": 24.8992,
      "duration": 0.2997,
      "velocity": 92,
      "chip": "ym2612"
    },
    {
      "channel": 5,
      "note": 20,
      "start": 24.8998,
      "duration": 0.2996,
      "velocity": 127,
      "chip": "ym2612"
    },
    {
      "channel": 4,
      "note": 82,
      "start": 25.0487,
      "duration": 0.2996,
      "velocity": 92,
      "chip": "ym2612"
    },
    {
      "channel": 1,
      "note": 79,
      "start": 25.1983,
      "duration": 0.5999,
      "velocity": 89,
      "chip": "ym2612"
    },
    {
      "channel": 2,
      "note": 80,
      "start": 25.1988,
      "duration": 0.2993,
      "velocity": 89,
      "chip": "ym2612"
    },
    {
      "channel": 3,
      "note": 87,
      "start": 25.1993,
      "duration": 0.2993,
      "velocity": 92,
      "chip": "ym2612"
    },
    {
      "channel": 5,
      "note": 20,
      "start": 25.1999,
      "duration": 0.5996,
      "velocity": 127,
      "chip": "ym2612"
    },
    {
      "channel": 4,
      "note": 85,
      "start": 25.3487,
      "duration": 0.2996,
      "velocity": 92,
      "chip": "ym2612"
    },
    {
      "channel": 2,
      "note": 79,
      "start": 25.4985,
      "duration": 0.5999,
      "velocity": 89,
      "chip": "ym2612"
    },
    {
      "channel": 3,
      "note": 85,
      "start": 25.499,
      "duration": 0.2999,
      "velocity": 92,
      "chip": "ym2612"
    },
    {
      "channel": 4,
      "note": 87,
      "start": 25.6487,
      "duration": 0.2996,
      "velocity": 92,
      "chip": "ym2612"
    },
    {
      "channel": 0,
      "note": 55,
      "start": 25.798,
      "duration": 0.5997,
      "velocity": 106,
      "chip": "ym2612"
    },
    {
      "channel": 1,
      "note": 80,
      "start": 25.7986,
      "duration": 0.2993,
      "velocity": 89,
      "chip": "ym2612"
    },
    {
      "channel": 3,
      "note": 82,
      "start": 25.7993,
      "duration": 0.2996,
      "velocity": 92,
      "chip": "ym2612"
    },
    {
      "channel": 5,
      "note": 80,
      "start": 25.802,
      "duration": 0.5978,
      "velocity": 127,
      "chip": "ym2612"
    },
    {
      "channel": 4,
      "note": 85,
      "start": 25.9487,
      "duration": 0.2996,
      "velocity": 92,
      "chip": "ym2612"
    },
    {
      "channel": 1,
      "note": 82,
      "start": 26.0982,
      "duration": 0.3,
      "velocity": 89,
      "chip": "ym2612"
    },
    {
      "channel": 2,
      "note": 80,
      "start": 26.0988,
      "duration": 0.2999,
      "velocity": 89,
      "chip": "ym2612"
    },
    {
      "channel": 3,
      "note": 79,
      "start": 26.0993,
      "duration": 0.2999,
      "velocity": 92,
      "chip": "ym2612"
    },
    {
      "channel": 4,
      "note": 82,
      "start": 26.2487,
      "duration": 0.2996,
      "velocity": 92,
      "chip": "ym2612"
    },
    {
      "channel": 0,
      "note": 56,
      "start": 26.3981,
      "duration": 1.7996,
      "velocity": 106,
      "chip": "ym2612"
    },
    {
      "channel": 1,
      "note": 83,
      "start": 26.3986,
      "duration": 0.5993,
      "velocity": 89,
      "chip": "ym2612"
    },
    {
      "channel": 2,
      "note": 82,
      "start": 26.3991,
      "duration": 0.2989,
      "velocity": 89,
      "chip": "ym2612"
    },
    {
      "channel": 3,
      "note": 80,
      "start": 26.3996,
      "duration": 0.2989,
      "velocity": 92,
      "chip": "ym2612"
    },
    {
      "channel": 5,
      "note": 20,
      "start": 26.4025,
      "duration": 0.2966,
      "velocity": 127,
      "chip": "ym2612"
    },
    {
      "channel": 4,
      "note": 79,
      "start": 26.5487,
      "duration": 0.2996,
      "velocity": 92,
      "chip": "ym2612"
    },
    {
      "channel": 2,
      "note": 83,
      "start": 26.6984,
      "duration": 0.5997,
      "velocity": 89,
      "chip": "ym2612"
    },
    {
      "channel": 3,
      "note": 82,
      "start": 26.6989,
      "duration": 0.2996,
      "velocity": 92,
      "chip": "ym2612"
    },
    {
      "channel": 5,
      "note": 20,
      "start": 26.6995,
      "duration": 0.5996,
      "velocity": 127,
      "chip": "ym2612"
    },
    {
      "channel": 4,
      "note": 80,
      "start": 26.8487,
      "duration": 0.2996,
      "velocity": 92,
      "chip": "ym2612"
    },
    {
      "channel": 1,
      "note": 85,
      "start": 26.9982,
      "duration": 0.5996,
      "velocity": 89,
      "chip": "ym2612"
    },
    {
      "channel": 3,
      "note": 83,
      "start": 26.9989,
      "duration": 0.2997,
      "velocity": 92,
      "chip": "ym2612"
    },
    {
      "channel": 4,
      "note": 82,
      "start": 27.1487,
      "duration": 0.2996,
      "velocity": 92,
      "chip": "ym2612"
    },
    {
      "channel": 2,
      "note": 85,
      "start": 27.2984,
      "duration": 0.5997,
      "velocity": 89,
      "chip": "ym2612"
    },
    {
      "channel": 3,
      "note": 85,
      "start": 27.2989,
      "duration": 0.2996,
      "velocity": 92,
      "chip": "ym2612"
    },
    {
      "channel": 5,
      "note": 20,
      "start": 27.2995,
      "duration": 0.2996,
      "velocity": 127,
      "chip": "ym2612"
    },
    {
      "channel": 4,
      "note": 83,
      "start": 27.4487,
      "duration": 0.2996,
      "velocity": 92,
      "chip": "ym2612"
    },
    {
      "channel": 1,
      "note": 87,
      "start": 27.5982,
      "duration": 0.6,
      "velocity": 89,
      "chip": "ym2612"
    },
    {
      "channel": 3,
      "note": 87,
      "start": 27.5989,
      "duration": 0.2997,
      "velocity": 92,
      "chip": "ym2612"
    },
    {
      "channel": 5,
      "note": 20,
      "start": 27.5995,
      "duration": 0.6,
      "velocity": 127,
      "chip": "ym2612"
    },
    {
      "channel": 4,
      "note": 85,
      "start": 27.7487,
      "duration": 0.2996,
      "velocity": 92,
      "chip": "ym2612"
    },
    {
      "channel": 2,
      "note": 87,
      "start": 27.8984,
      "duration": 0.5999,
      "velocity": 89,
      "chip": "ym2612"
    },
    {
      "channel": 3,
      "note": 84,
      "start": 27.8989,
      "duration": 0.2999,
      "velocity": 92,
      "chip": "ym2612"
    },
    {
      "channel": 4,
      "note": 87,
      "start": 28.0487,
      "duration": 0.2996,
      "velocity": 92,
      "chip": "ym2612"
    },
    {
      "channel": 0,
      "note": 60,
      "start": 28.198,
      "duration": 0.5997,
      "velocity": 106,
      "chip": "ym2612"
    },
    {
      "channel": 1,
      "note": 88,
      "start": 28.1985,
      "duration": 0.2993,
      "velocity": 89,
      "chip": "ym2612"
    },
    {
      "channel": 3,
      "note": 85,
      "start": 28.1992,
      "duration": 0.2996,
      "velocity": 92,
      "chip": "ym2612"
    },
    {
      "channel": 5,
      "note": 80,
      "start": 28.202,
      "duration": 0.5978,
      "velocity": 127,
      "chip": "ym2612"
    },
    {
      "channel": 4,
      "note": 84,
      "start": 28.3487,
      "duration": 0.2996,
      "velocity": 92,
      "chip": "ym2612"
    },
    {
      "channel": 1,
      "note": 90,
      "start": 28.4982,
      "duration": 0.3,
      "velocity": 89,
      "chip": "ym2612"
    },
    {
      "channel": 2,
      "note": 88,
      "start": 28.4987,
      "duration": 0.3,
      "velocity": 89,
      "chip": "ym2612"
    },
    {
      "channel": 3,
      "note": 87,
      "start": 28.4992,
      "duration": 0.3,
      "velocity": 92,
      "chip": "ym2612"
    },
    {
      "channel": 4,
      "note": 85,
      "start": 28.6487,
      "duration": 0.2996,
      "velocity": 92,
      "chip": "ym2612"
    },
    {
      "channel": 0,
      "note": 61,
      "start": 28.798,
      "duration": 1.1997,
      "velocity": 106,
      "chip": "ym2612"
    },
    {
      "channel": 1,
      "note": 92,
      "start": 28.7986,
      "duration": 0.5993,
      "velocity": 89,
      "chip": "ym2612"
    },
    {
      "channel": 2,
      "note": 90,
      "start": 28.7991,
      "duration": 0.2989,
      "velocity": 89,
      "chip": "ym2612"
    },
    {
      "channel": 3,
      "note": 80,
      "start": 28.7996,
      "duration": 0.299,
      "velocity": 92,
      "chip": "ym2612"
    },
    {
      "channel": 5,
      "note": 20,
      "start": 28.8026,
      "duration": 0.8966,
      "velocity": 127,
      "chip": "ym2612"
    },
    {
      "channel": 4,
      "note": 87,
      "start": 28.9487,
      "duration": 0.2996,
      "velocity": 92,
      "chip": "ym2612"
    },
    {
      "channel": 2,
      "note": 92,
      "start": 29.0985,
      "duration": 0.5996,
      "velocity": 89,
      "chip": "ym2612"
    },
    {
      "channel": 3,
      "note": 83,
      "start": 29.099,
      "duration": 0.2996,
      "velocity": 92,
      "chip": "ym2612"
    },
    {
      "channel": 4,
      "note": 80,
      "start": 29.2487,
      "duration": 0.2996,
      "velocity": 92,
      "chip": "ym2612"
    },
    {
      "channel": 1,
      "note": 88,
      "start": 29.3983,
      "duration": 0.5999,
      "velocity": 89,
      "chip": "ym2612"
    },
    {
      "channel": 3,
      "note": 87,
      "start": 29.399,
      "duration": 0.2996,
      "velocity": 92,
      "chip": "ym2612"
    },
    {
      "channel": 4,
      "note": 83,
      "start": 29.5487,
      "duration": 0.2996,
      "velocity": 92,
      "chip": "ym2612"
    },
    {
      "channel": 2,
      "note": 88,
      "start": 29.6985,
      "duration": 0.5999,
      "velocity": 89,
      "chip": "ym2612"
    },
    {
      "channel": 3,
      "note": 83,
      "start": 29.699,
      "duration": 0.2999,
      "velocity": 92,
      "chip": "ym2612"
    },
    {
      "channel": 5,
      "note": 20,
      "start": 29.6995,
      "duration": 0.2999,
      "velocity": 127,
      "chip": "ym2612"
    },
    {
      "channel": 4,
      "note": 87,
      "start": 29.8487,
      "duration": 0.2996,
      "velocity": 92,
      "chip": "ym2612"
    },
    {
      "channel": 0,
      "note": 54,
      "start": 29.9981,
      "duration": 1.1996,
      "velocity": 106,
      "chip": "ym2612"
    },
    {
      "channel": 1,
      "note": 90,
      "start": 29.9986,
      "duration": 0.2993,
      "velocity": 89,
      "chip": "ym2612"
    },
    {
      "channel": 3,
      "note": 80,
      "start": 29.9993,
      "duration": 0.2996,
      "velocity": 92,
      "chip": "ym2612"
    },
    {
      "channel": 5,
      "note": 20,
      "start": 29.9999,
      "duration": 0.5996,
      "velocity": 127,
      "chip": "ym2612"
    },
    {
      "channel": 4,
      "note": 83,
      "start": 30.1487,
      "duration": 0.2996,
      "velocity": 92,
      "chip": "ym2612"
    },
    {
      "channel": 1,
      "note": 92,
      "start": 30.2983,
      "duration": 0.2996,
      "velocity": 89,
      "chip": "ym2612"
    },
    {
      "channel": 2,
      "note": 90,
      "start": 30.2988,
      "duration": 0.2996,
      "velocity": 89,
      "chip": "ym2612"
    },
    {
      "channel": 3,
      "note": 82,
      "start": 30.2993,
      "duration": 0.2996,
      "velocity": 92,
      "chip": "ym2612"
    },
    {
      "channel": 4,
      "note": 80,
      "start": 30.4487,
      "duration": 0.2996,
      "velocity": 92,
      "chip": "ym2612"
    },
    {
      "channel": 1,
      "note": 90,
      "start": 30.5983,
      "duration": 0.2996,
      "velocity": 89,
      "chip": "ym2612"
    },
    {
      "channel": 2,
      "note": 92,
      "start": 30.5988,
      "duration": 0.2996,
      "velocity": 89,
      "chip": "ym2612"
    },
    {
      "channel": 3,
      "note": 85,
      "start": 30.5993,
      "duration": 0.2996,
      "velocity": 92,
      "chip": "ym2612"
    },
    {
      "channel": 5,
      "note": 80,
      "start": 30.602,
      "duration": 0.5978,
      "velocity": 127,
      "chip": "ym2612"
    },
    {
      "channel": 4,
      "note": 82,
      "start": 30.7487,
      "duration": 0.2996,
      "velocity": 92,
      "chip": "ym2612"
    },
    {
      "channel": 1,
      "note": 88,
      "start": 30.8983,
      "duration": 0.2999,
      "velocity": 89,
      "chip": "ym2612"
    },
    {
      "channel": 2,
      "note": 90,
      "start": 30.8988,
      "duration": 0.2999,
      "velocity": 89,
      "chip": "ym2612"
    },
    {
      "channel": 3,
      "note": 82,
      "start": 30.8993,
      "duration": 0.2999,
      "velocity": 92,
      "chip": "ym2612"
    },
    {
      "channel": 4,
      "note": 85,
      "start": 31.0487,
      "duration": 0.2996,
      "velocity": 92,
      "chip": "ym2612"
    },
    {
      "channel": 0,
      "note": 59,
      "start": 31.1981,
      "duration": 1.1996,
      "velocity": 106,
      "chip": "ym2612"
    },
    {
      "channel": 1,
      "note": 87,
      "start": 31.1986,
      "duration": 0.5993,
      "velocity": 89,
      "chip": "ym2612"
    },
    {
      "channel": 2,
      "note": 88,
      "start": 31.1991,
      "duration": 0.2989,
      "velocity": 89,
      "chip": "ym2612"
    },
    {
      "channel": 3,
      "note": 78,
      "start": 31.1996,
      "duration": 0.2989,
      "velocity": 92,
      "chip": "ym2612"
    },
    {
      "channel": 5,
      "note": 20,
      "start": 31.2025,
      "duration": 0.2966,
      "velocity": 127,
      "chip": "ym2612"
    },
    {
      "channel": 4,
      "note": 82,
      "start": 31.3487,
      "duration": 0.2996,
      "velocity": 92,
      "chip": "ym2612"
    },
    {
      "channel": 2,
      "note": 87,
      "start": 31.4984,
      "duration": 0.5997,
      "velocity": 89,
      "chip": "ym2612"
    },
    {
      "channel": 3,
      "note": 82,
      "start": 31.499,
      "duration": 0.2995,
      "velocity": 92,
      "chip": "ym2612"
    },
    {
      "channel": 5,
      "note": 20,
      "start": 31.4995,
      "duration": 0.5996,
      "velocity": 127,
      "chip": "ym2612"
    },
    {
      "channel": 4,
      "note": 78,
      "start": 31.6487,
      "duration": 0.2996,
      "velocity": 92,
      "chip": "ym2612"
    },
    {
      "channel": 1,
      "note": 83,
      "start": 31.7982,
      "duration": 0.6,
      "velocity": 89,
      "chip": "ym2612"
    },
    {
      "channel": 3,
      "note": 85,
      "start": 31.7989,
      "duration": 0.2997,
      "velocity": 92,
      "chip": "ym2612"
    },
    {
      "channel": 4,
      "note": 82,
      "start": 31.9487,
      "duration": 0.2996,
      "velocity": 92,
      "chip": "ym2612"
    },
    {
      "channel": 2,
      "note": 83,
      "start": 32.0984,
      "duration": 0.5999,
      "velocity": 89,
      "chip": "ym2612"
    },
    {
      "channel": 3,
      "note": 82,
      "start": 32.0989,
      "duration": 0.3,
      "velocity": 92,
      "chip": "ym2612"
    },
    {
      "channel": 5,
      "note": 20,
      "start": 32.0995,
      "duration": 0.3,
      "velocity": 127,
      "chip": "ym2612"
    },
    {
      "channel": 4,
      "note": 85,
      "start": 32.2487,
      "duration": 0.2996,
      "velocity": 92,
      "chip": "ym2612"
    },
    {
      "channel": 0,
      "note": 52,
      "start": 32.3981,
      "duration": 1.1996,
      "velocity": 106,
      "chip": "ym2612"
    },
    {
      "channel": 1,
      "note": 88,
      "start": 32.3986,
      "duration": 0.2993,
      "velocity": 89,
      "chip": "ym2612"
    },
    {
      "channel": 3,
      "note": 78,
      "start": 32.3993,
      "duration": 0.2995,
      "velocity": 92,
      "chip": "ym2612"
    },
    {
      "channel": 5,
      "note": 20,
      "start": 32.3999,
      "duration": 0.5996,
      "velocity": 127,
      "chip": "ym2612"
    },
    {
      "channel": 4,
      "note": 82,
      "start": 32.5487,
      "duration": 0.2996,
      "velocity": 92,
      "chip": "ym2612"
    },
    {
      "channel": 1,
      "note": 87,
      "start": 32.6982,
      "duration": 0.2996,
      "velocity": 89,
      "chip": "ym2612"
    },
    {
      "channel": 2,
      "note": 88,
      "start": 32.6987,
      "duration": 0.2996,
      "velocity": 89,
      "chip": "ym2612"
    },
    {
      "channel": 3,
      "note": 80,
      "start": 32.6993,
      "duration": 0.2995,
      "velocity": 92,
      "chip": "ym2612"
    },
    {
      "channel": 4,
      "note": 78,
      "start": 32.8487,
      "duration": 0.2996,
      "velocity": 92,
      "chip": "ym2612"
    },
    {
      "channel": 1,
      "note": 85,
      "start": 32.9982,
      "duration": 0.2997,
      "velocity": 89,
      "chip": "ym2612"
    },
    {
      "channel": 2,
      "note": 87,
      "start": 32.9987,
      "duration": 0.2997,
      "velocity": 89,
      "chip": "ym2612"
    },
    {
      "channel": 3,
      "note": 83,
      "start": 32.9992,
      "duration": 0.2997,
      "velocity": 92,
      "chip": "ym2612"
    },
    {
      "channel": 5,
      "note": 80,
      "start": 33.002,
      "duration": 0.5978,
      "velocity": 127,
      "chip": "ym2612"
    },
    {
      "channel": 4,
      "note": 80,
      "start": 33.1487,
      "duration": 0.2996,
      "velocity": 92,
      "chip": "ym2612"
    },
    {
      "channel": 1,
      "note": 83,
      "start": 33.2983,
      "duration": 0.2999,
      "velocity": 89,
      "chip": "ym2612"
    },
    {
      "channel": 2,
      "note": 85,
      "start": 33.2987,
      "duration": 0.3,
      "velocity": 89,
      "chip": "ym2612"
    },
    {
      "channel": 3,
      "note": 80,
      "start": 33.2992,
      "duration": 0.3,
      "velocity": 92,
      "chip": "ym2612"
    },
    {
      "channel": 4,
      "note": 83,
      "start": 33.4487,
      "duration": 0.2996,
      "velocity": 92,
      "chip": "ym2612"
    },
    {
      "channel": 0,
      "note": 58,
      "start": 33.5981,
      "duration": 1.1996,
      "velocity": 106,
      "chip": "ym2612"
    },
    {
      "channel": 1,
      "note": 82,
      "start": 33.5986,
      "duration": 0.2993,
      "velocity": 89,
      "chip": "ym2612"
    },
    {
      "channel": 2,
      "note": 83,
      "start": 33.5991,
      "duration": 0.2992,
      "velocity": 89,
      "chip": "ym2612"
    },
    {
      "channel": 3,
      "note": 77,
      "start": 33.5996,
      "duration": 0.2992,
      "velocity": 92,
      "chip": "ym2612"
    },
    {
      "channel": 5,
      "note": 20,
      "start": 33.6026,
      "duration": 0.8968,
      "velocity": 127,
      "chip": "ym2612"
    },
    {
      "channel": 4,
      "note": 80,
      "start": 33.7487,
      "duration": 0.2996,
      "velocity": 92,
      "chip": "ym2612"
    },
    {
      "channel": 1,
      "note": 83,
      "start": 33.8982,
      "duration": 0.2996,
      "velocity": 89,
      "chip": "ym2612"
    },
    {
      "channel": 2,
      "note": 82,
      "start": 33.8987,
      "duration": 0.2996,
      "velocity": 89,
      "chip": "ym2612"
    },
    {
      "channel": 3,
      "note": 80,
      "start": 33.8993,
      "duration": 0.2995,
      "velocity": 92,
      "chip": "ym2612"
    },
    {
      "channel": 4,
      "note": 77,
      "start": 34.0487,
      "duration": 0.2996,
      "velocity": 92,
      "chip": "ym2612"
    },
    {
      "channel": 1,
      "note": 85,
      "start": 34.1982,
      "duration": 0.2997,
      "velocity": 89,
      "chip": "ym2612"
    },
    {
      "channel": 2,
      "note": 83,
      "start": 34.1987,
      "duration": 0.2997,
      "velocity": 89,
      "chip": "ym2612"
    },
    {
      "channel": 3,
      "note": 82,
      "start": 34.1992,
      "duration": 0.2996,
      "velocity": 92,
      "chip": "ym2612"
    },
    {
      "channel": 4,
      "note": 80,
      "start": 34.3487,
      "duration": 0.2996,
      "velocity": 92,
      "chip": "ym2612"
    },
    {
      "channel": 1,
      "note": 88,
      "start": 34.4983,
      "duration": 0.2999,
      "velocity": 89,
      "chip": "ym2612"
    },
    {
      "channel": 2,
      "note": 85,
      "start": 34.4987,
      "duration": 0.3,
      "velocity": 89,
      "chip": "ym2612"
    },
    {
      "channel": 3,
      "note": 85,
      "start": 34.4992,
      "duration": 0.3,
      "velocity": 92,
      "chip": "ym2612"
    },
    {
      "channel": 5,
      "note": 20,
      "start": 34.4998,
      "duration": 0.2999,
      "velocity": 127,
      "chip": "ym2612"
    },
    {
      "channel": 4,
      "note": 82,
      "start": 34.6487,
      "duration": 0.2996,
      "velocity": 92,
      "chip": "ym2612"
    },
    {
      "channel": 0,
      "note": 51,
      "start": 34.7981,
      "duration": 1.1996,
      "velocity": 106,
      "chip": "ym2612"
    },
    {
      "channel": 1,
      "note": 87,
      "start": 34.7986,
      "duration": 0.5993,
      "velocity": 89,
      "chip": "ym2612"
    },
    {
      "channel": 2,
      "note": 88,
      "start": 34.7991,
      "duration": 0.2989,
      "velocity": 89,
      "chip": "ym2612"
    },
    {
      "channel": 3,
      "note": 87,
      "start": 34.7996,
      "duration": 0.2989,
      "velocity": 92,
      "chip": "ym2612"
    },
    {
      "channel": 5,
      "note": 20,
      "start": 34.8002,
      "duration": 0.5989,
      "velocity": 127,
      "chip": "ym2612"
    },
    {
      "channel": 4,
      "note": 85,
      "start": 34.9487,
      "duration": 0.2996,
      "velocity": 92,
      "chip": "ym2612"
    },
    {
      "channel": 2,
      "note": 87,
      "start": 35.0984,
      "duration": 0.5997,
      "velocity": 89,
      "chip": "ym2612"
    },
    {
      "channel": 3,
      "note": 85,
      "start": 35.0989,
      "duration": 0.2996,
      "velocity": 92,
      "chip": "ym2612"
    },
    {
      "channel": 4,
      "note": 87,
      "start": 35.2487,
      "duration": 0.2996,
      "velocity": 92,
      "chip": "ym2612"
    },
    {
      "channel": 1,
      "note": 91,
      "start": 35.3982,
      "duration": 0.6,
      "velocity": 89,
      "chip": "ym2612"
    },
    {
      "channel": 3,
      "note": 82,
      "start": 35.3989,
      "duration": 0.2997,
      "velocity": 92,
      "chip": "ym2612"
    },
    {
      "channel": 5,
      "note": 80,
      "start": 35.4017,
      "duration": 0.5979,
      "velocity": 127,
      "chip": "ym2612"
    },
    {
      "channel": 4,
      "note": 85,
      "start": 35.5487,
      "duration": 0.2996,
      "velocity": 92,
      "chip": "ym2612"
    },
    {
      "channel": 2,
      "note": 91,
      "start": 35.6984,
      "duration": 0.6,
      "velocity": 89,
      "chip": "ym2612"
    },
    {
      "channel": 3,
      "note": 79,
      "start": 35.699,
      "duration": 0.3,
      "velocity": 92,
      "chip": "ym2612"
    },
    {
      "channel": 4,
      "note": 82,
      "start": 35.8487,
      "duration": 0.2996,
      "velocity": 92,
      "chip": "ym2612"
    },
    {
      "channel": 0,
      "note": 56,
      "start": 35.9981,
      "duration": 0.5996,
      "velocity": 106,
      "chip": "ym2612"
    },
    {
      "channel": 1,
      "note": 92,
      "start": 35.9986,
      "duration": 0.2993,
      "velocity": 89,
      "chip": "ym2612"
    },
    {
      "channel": 3,
      "note": 80,
      "start": 35.9994,
      "duration": 0.2995,
      "velocity": 92,
      "chip": "ym2612"
    },
    {
      "channel": 5,
      "note": 20,
      "start": 36.0022,
      "duration": 0.2973,
      "velocity": 127,
      "chip": "ym2612"
    },
    {
      "channel": 4,
      "note": 79,
      "start": 36.1487,
      "duration": 0.2996,
      "velocity": 92,
      "chip": "ym2612"
    },
    {
      "channel": 1,
      "note": 88,
      "start": 36.2983,
      "duration": 0.2999,
      "velocity": 89,
      "chip": "ym2612"
    },
    {
      "channel": 2,
      "note": 92,
      "start": 36.2988,
      "duration": 0.2999,
      "velocity": 89,
      "chip": "ym2612"
    },
    {
      "channel": 3,
      "note": 82,
      "start": 36.2993,
      "duration": 0.2999,
      "velocity": 92,
      "chip": "ym2612"
    },
    {
      "channel": 5,
      "note": 20,
      "start": 36.2999,
      "duration": 0.5996,
      "velocity": 127,
      "chip": "ym2612"
    },
    {
      "channel": 4,
      "note": 80,
      "start": 36.4487,
      "duration": 0.2996,
      "velocity": 92,
      "chip": "ym2612"
    },
    {
      "channel": 0,
      "note": 51,
      "start": 36.5981,
      "duration": 0.5996,
      "velocity": 106,
      "chip": "ym2612"
    },
    {
      "channel": 1,
      "note": 87,
      "start": 36.5986,
      "duration": 0.2993,
      "velocity": 89,
      "chip": "ym2612"
    },
    {
      "channel": 2,
      "note": 88,
      "start": 36.5991,
      "duration": 0.2992,
      "velocity": 89,
      "chip": "ym2612"
    },
    {
      "channel": 3,
      "note": 83,
      "start": 36.5996,
      "duration": 0.2992,
      "velocity": 92,
      "chip": "ym2612"
    },
    {
      "channel": 4,
      "note": 82,
      "start": 36.7487,
      "duration": 0.2996,
      "velocity": 92,
      "chip": "ym2612"
    },
    {
      "channel": 1,
      "note": 83,
      "start": 36.8982,
      "duration": 0.3,
      "velocity": 89,
      "chip": "ym2612"
    },
    {
      "channel": 2,
      "note": 87,
      "start": 36.8987,
      "duration": 0.3,
      "velocity": 89,
      "chip": "ym2612"
    },
    {
      "channel": 3,
      "note": 87,
      "start": 36.8992,
      "duration": 0.3,
      "velocity": 92,
      "chip": "ym2612"
    },
    {
      "channel": 5,
      "note": 20,
      "start": 36.8998,
      "duration": 0.3,
      "velocity": 127,
      "chip": "ym2612"
    },
    {
      "channel": 4,
      "note": 83,
      "start": 37.0487,
      "duration": 0.2996,
      "velocity": 92,
      "chip": "ym2612"
    },
    {
      "channel": 0,
      "note": 56,
      "start": 37.1981,
      "duration": 1.1996,
      "velocity": 106,
      "chip": "ym2612"
    },
    {
      "channel": 1,
      "note": 80,
      "start": 37.1986,
      "duration": 1.1993,
      "velocity": 89,
      "chip": "ym2612"
    },
    {
      "channel": 2,
      "note": 83,
      "start": 37.1991,
      "duration": 0.2989,
      "velocity": 89,
      "chip": "ym2612"
    },
    {
      "channel": 3,
      "note": 92,
      "start": 37.1996,
      "duration": 1.1987,
      "velocity": 92,
      "chip": "ym2612"
    },
    {
      "channel": 5,
      "note": 20,
      "start": 37.2002,
      "duration": 0.5982,
      "velocity": 127,
      "chip": "ym2612"
    },
    {
      "channel": 4,
      "note": 87,
      "start": 37.3487,
      "duration": 0.2996,
      "velocity": 92,
      "chip": "ym2612"
    },
    {
      "channel": 2,
      "note": 80,
      "start": 37.4984,
      "duration": 1.1993,
      "velocity": 89,
      "chip": "ym2612"
    },
    {
      "channel": 4,
      "note": 92,
      "start": 37.6487,
      "duration": 1.0894,
      "velocity": 92,
      "chip": "ym2612"
    },
    {
      "channel": 5,
      "note": 80,
      "start": 37.8009,
      "duration": 0.5976,
      "velocity": 127,
      "chip": "ym2612"
    }
  ]
}