{
  "track_name": "14 - Silent Fog (Staff Roll)",
  "duration_sec": 454.577,
  "sample_rate": 44100,
  "note_count": 3199,
  "unique_pitches": 31,
  "pitch_range": 48,
  "avg_note_duration": 0.6436,
  "reconstruction_stats": {
    "notes_reconstructed": 3199,
    "keyon_events": 3199,
    "keyoff_events": 3199,
    "orphan_keyons": 0,
    "unique_pitches": 31,
    "pitch_range": 48,
    "avg_duration_sec": 0.6436
  },
  "metadata": {
    "source": "K\\King Colossus\\14 - Silent Fog (Staff Roll).vgm"
  },
  "notes": [
    {
      "channel": 0,
      "note": 78,
      "start": 0.0,
      "duration": 0.0,
      "velocity": 92,
      "chip": "ym2612"
    },
    {
      "channel": 0,
      "note": 83,
      "start": 0.0,
      "duration": 0.0,
      "velocity": 92,
      "chip": "ym2612"
    },
    {
      "channel": 0,
      "note": 76,
      "start": 0.0,
      "duration": 0.0,
      "velocity": 92,
      "chip": "ym2612"
    },
    {
      "channel": 0,
      "note": 76,
      "start": 0.0,
      "duration": 0.0,
      "velocity": 1,
      "chip": "ym2612"
    },
    {
      "channel": 1,
      "note": 74,
      "start": 0.0,
      "duration": 0.0,
      "velocity": 92,
      "chip": "ym2612"
    },
    {
      "channel": 1,
      "note": 74,
      "start": 0.0,
      "duration": 0.0,
      "velocity": 92,
      "chip": "ym2612"
    },
    {
      "channel": 1,
      "note": 71,
      "start": 0.0,
      "duration": 0.0,
      "velocity": 92,
      "chip": "ym2612"
    },
    {
      "channel": 1,
      "note": 74,
      "start": 0.0,
      "duration": 0.0,
      "velocity": 92,
      "chip": "ym2612"
    },
    {
      "channel": 2,
      "note": 85,
      "start": 0.0,
      "duration": 0.0,
      "velocity": 127,
      "chip": "ym2612"
    },
    {
      "channel": 2,
      "note": 86,
      "start": 0.0,
      "duration": 0.0,
      "velocity": 127,
      "chip": "ym2612"
    },
    {
      "channel": 2,
      "note": 88,
      "start": 0.0,
      "duration": 0.0002,
      "velocity": 1,
      "chip": "ym2612"
    },
    {
      "channel": 3,
      "note": 85,
      "start": 0.0,
      "duration": 0.0,
      "velocity": 127,
      "chip": "ym2612"
    },
    {
      "channel": 3,
      "note": 86,
      "start": 0.0,
      "duration": 0.0,
      "velocity": 127,
      "chip": "ym2612"
    },
    {
      "channel": 3,
      "note": 88,
      "start": 0.0,
      "duration": 0.0007,
      "velocity": 1,
      "chip": "ym2612"
    },
    {
      "channel": 4,
      "note": 71,
      "start": 0.0,
      "duration": 0.0012,
      "velocity": 1,
      "chip": "ym2612"
    },
    {
      "channel": 5,
      "note": 64,
      "start": 0.0,
      "duration": 0.0017,
      "velocity": 1,
      "chip": "ym2612"
    },
    {
      "channel": 3,
      "note": 78,
      "start": 0.0036,
      "duration": 49.9163,
      "velocity": 1,
      "chip": "ym2612"
    },
    {
      "channel": 4,
      "note": 78,
      "start": 0.0051,
      "duration": 49.9182,
      "velocity": 1,
      "chip": "ym2612"
    },
    {
      "channel": 5,
      "note": 71,
      "start": 0.0064,
      "duration": 40.5122,
      "velocity": 97,
      "chip": "ym2612"
    },
    {
      "channel": 2,
      "note": 66,
      "start": 4.6442,
      "duration": 1.1566,
      "velocity": 89,
      "chip": "ym2612"
    },
    {
      "channel": 1,
      "note": 66,
      "start": 5.0776,
      "duration": 1.1557,
      "velocity": 1,
      "chip": "ym2612"
    },
    {
      "channel": 0,
      "note": 66,
      "start": 5.51,
      "duration": 1.1549,
      "velocity": 1,
      "chip": "ym2612"
    },
    {
      "channel": 2,
      "note": 59,
      "start": 5.8009,
      "duration": 1.1571,
      "velocity": 89,
      "chip": "ym2612"
    },
    {
      "channel": 1,
      "note": 59,
      "start": 6.2361,
      "duration": 1.154,
      "velocity": 1,
      "chip": "ym2612"
    },
    {
      "channel": 0,
      "note": 59,
      "start": 6.6679,
      "duration": 1.1544,
      "velocity": 1,
      "chip": "ym2612"
    },
    {
      "channel": 2,
      "note": 61,
      "start": 6.958,
      "duration": 1.1569,
      "velocity": 89,
      "chip": "ym2612"
    },
    {
      "channel": 1,
      "note": 61,
      "start": 7.3929,
      "duration": 1.1543,
      "velocity": 1,
      "chip": "ym2612"
    },
    {
      "channel": 0,
      "note": 61,
      "start": 7.8252,
      "duration": 1.1538,
      "velocity": 1,
      "chip": "ym2612"
    },
    {
      "channel": 2,
      "note": 62,
      "start": 8.115,
      "duration": 4.6277,
      "velocity": 89,
      "chip": "ym2612"
    },
    {
      "channel": 1,
      "note": 62,
      "start": 8.5501,
      "duration": 4.6248,
      "velocity": 1,
      "chip": "ym2612"
    },
    {
      "channel": 0,
      "note": 62,
      "start": 8.9819,
      "duration": 4.6249,
      "velocity": 1,
      "chip": "ym2612"
    },
    {
      "channel": 2,
      "note": 66,
      "start": 12.7428,
      "duration": 1.1568,
      "velocity": 89,
      "chip": "ym2612"
    },
    {
      "channel": 1,
      "note": 66,
      "start": 13.1777,
      "duration": 1.1539,
      "velocity": 1,
      "chip": "ym2612"
    },
    {
      "channel": 0,
      "note": 66,
      "start": 13.6096,
      "duration": 1.1541,
      "velocity": 1,
      "chip": "ym2612"
    },
    {
      "channel": 2,
      "note": 59,
      "start": 13.8996,
      "duration": 1.1568,
      "velocity": 89,
      "chip": "ym2612"
    },
    {
      "channel": 1,
      "note": 59,
      "start": 14.3346,
      "duration": 1.1545,
      "velocity": 1,
      "chip": "ym2612"
    },
    {
      "channel": 0,
      "note": 59,
      "start": 14.7665,
      "duration": 1.1542,
      "velocity": 1,
      "chip": "ym2612"
    },
    {
      "channel": 2,
      "note": 61,
      "start": 15.0564,
      "duration": 1.1572,
      "velocity": 89,
      "chip": "ym2612"
    },
    {
      "channel": 1,
      "note": 61,
      "start": 15.4917,
      "duration": 1.1546,
      "velocity": 1,
      "chip": "ym2612"
    },
    {
      "channel": 0,
      "note": 61,
      "start": 15.9236,
      "duration": 1.155,
      "velocity": 1,
      "chip": "ym2612"
    },
    {
      "channel": 2,
      "note": 62,
      "start": 16.2137,
      "duration": 1.1574,
      "velocity": 89,
      "chip": "ym2612"
    },
    {
      "channel": 1,
      "note": 62,
      "start": 16.6494,
      "duration": 1.1539,
      "velocity": 1,
      "chip": "ym2612"
    },
    {
      "channel": 0,
      "note": 62,
      "start": 17.0815,
      "duration": 1.1536,
      "velocity": 1,
      "chip": "ym2612"
    },
    {
      "channel": 2,
      "note": 54,
      "start": 17.3712,
      "duration": 1.1569,
      "velocity": 89,
      "chip": "ym2612"
    },
    {
      "channel": 1,
      "note": 54,
      "start": 17.8062,
      "duration": 1.1542,
      "velocity": 1,
      "chip": "ym2612"
    },
    {
      "channel": 0,
      "note": 54,
      "start": 18.2377,
      "duration": 1.1542,
      "velocity": 1,
      "chip": "ym2612"
    },
    {
      "channel": 2,
      "note": 64,
      "start": 18.5282,
      "duration": 3.7479,
      "velocity": 89,
      "chip": "ym2612"
    },
    {
      "channel": 1,
      "note": 64,
      "start": 18.9632,
      "duration": 3.7451,
      "velocity": 1,
      "chip": "ym2612"
    },
    {
      "channel": 0,
      "note": 64,
      "start": 19.3949,
      "duration": 3.7605,
      "velocity": 1,
      "chip": "ym2612"
    },
    {
      "channel": 2,
      "note": 66,
      "start": 22.2762,
      "duration": 1.1567,
      "velocity": 89,
      "chip": "ym2612"
    },
    {
      "channel": 1,
      "note": 66,
      "start": 22.7112,
      "duration": 1.1543,
      "velocity": 1,
      "chip": "ym2612"
    },
    {
      "channel": 0,
      "note": 66,
      "start": 23.1582,
      "duration": 1.1547,
      "velocity": 1,
      "chip": "ym2612"
    },
    {
      "channel": 2,
      "note": 59,
      "start": 23.4329,
      "duration": 1.1569,
      "velocity": 89,
      "chip": "ym2612"
    },
    {
      "channel": 1,
      "note": 59,
      "start": 23.8683,
      "duration": 1.154,
      "velocity": 1,
      "chip": "ym2612"
    },
    {
      "channel": 0,
      "note": 59,
      "start": 24.3159,
      "duration": 1.1537,
      "velocity": 1,
      "chip": "ym2612"
    },
    {
      "channel": 2,
      "note": 61,
      "start": 24.59,
      "duration": 1.157,
      "velocity": 89,
      "chip": "ym2612"
    },
    {
      "channel": 1,
      "note": 61,
      "start": 25.0252,
      "duration": 1.154,
      "velocity": 1,
      "chip": "ym2612"
    },
    {
      "channel": 0,
      "note": 61,
      "start": 25.4724,
      "duration": 1.1545,
      "velocity": 1,
      "chip": "ym2612"
    },
    {
      "channel": 2,
      "note": 62,
      "start": 25.7471,
      "duration": 4.6285,
      "velocity": 89,
      "chip": "ym2612"
    },
    {
      "channel": 1,
      "note": 62,
      "start": 26.182,
      "duration": 4.6259,
      "velocity": 1,
      "chip": "ym2612"
    },
    {
      "channel": 0,
      "note": 62,
      "start": 26.6297,
      "duration": 4.6253,
      "velocity": 1,
      "chip": "ym2612"
    },
    {
      "channel": 2,
      "note": 66,
      "start": 30.3756,
      "duration": 1.1567,
      "velocity": 89,
      "chip": "ym2612"
    },
    {
      "channel": 1,
      "note": 66,
      "start": 30.8105,
      "duration": 1.154,
      "velocity": 1,
      "chip": "ym2612"
    },
    {
      "channel": 0,
      "note": 66,
      "start": 31.2577,
      "duration": 1.1545,
      "velocity": 1,
      "chip": "ym2612"
    },
    {
      "channel": 2,
      "note": 59,
      "start": 31.5324,
      "duration": 1.1571,
      "velocity": 89,
      "chip": "ym2612"
    },
    {
      "channel": 1,
      "note": 59,
      "start": 31.9675,
      "duration": 1.1539,
      "velocity": 1,
      "chip": "ym2612"
    },
    {
      "channel": 0,
      "note": 59,
      "start": 32.4151,
      "duration": 1.1535,
      "velocity": 1,
      "chip": "ym2612"
    },
    {
      "channel": 2,
      "note": 61,
      "start": 32.6896,
      "duration": 1.1561,
      "velocity": 89,
      "chip": "ym2612"
    },
    {
      "channel": 1,
      "note": 61,
      "start": 33.1242,
      "duration": 1.1536,
      "velocity": 1,
      "chip": "ym2612"
    },
    {
      "channel": 0,
      "note": 61,
      "start": 33.5715,
      "duration": 1.1538,
      "velocity": 1,
      "chip": "ym2612"
    },
    {
      "channel": 2,
      "note": 62,
      "start": 33.8458,
      "duration": 1.1574,
      "velocity": 89,
      "chip": "ym2612"
    },
    {
      "channel": 1,
      "note": 62,
      "start": 34.2807,
      "duration": 1.1547,
      "velocity": 1,
      "chip": "ym2612"
    },
    {
      "channel": 0,
      "note": 62,
      "start": 34.728,
      "duration": 1.1549,
      "velocity": 1,
      "chip": "ym2612"
    },
    {
      "channel": 2,
      "note": 57,
      "start": 35.0032,
      "duration": 2.6066,
      "velocity": 89,
      "chip": "ym2612"
    },
    {
      "channel": 1,
      "note": 57,
      "start": 35.4382,
      "duration": 2.6041,
      "velocity": 1,
      "chip": "ym2612"
    },
    {
      "channel": 0,
      "note": 57,
      "start": 35.8857,
      "duration": 2.5882,
      "velocity": 1,
      "chip": "ym2612"
    },
    {
      "channel": 2,
      "note": 55,
      "start": 37.6099,
      "duration": 2.9073,
      "velocity": 89,
      "chip": "ym2612"
    },
    {
      "channel": 1,
      "note": 55,
      "start": 38.045,
      "duration": 2.4695,
      "velocity": 1,
      "chip": "ym2612"
    },
    {
      "channel": 0,
      "note": 55,
      "start": 38.4768,
      "duration": 2.0337,
      "velocity": 1,
      "chip": "ym2612"
    },
    {
      "channel": 0,
      "note": 54,
      "start": 40.5137,
      "duration": 3.7597,
      "velocity": 89,
      "chip": "ym2612"
    },
    {
      "channel": 1,
      "note": 54,
      "start": 40.517,
      "duration": 3.7566,
      "velocity": 89,
      "chip": "ym2612"
    },
    {
      "channel": 2,
      "note": 54,
      "start": 40.5172,
      "duration": 3.7565,
      "velocity": 89,
      "chip": "ym2612"
    },
    {
      "channel": 5,
      "note": 52,
      "start": 40.5187,
      "duration": 4.6807,
      "velocity": 97,
      "chip": "ym2612"
    },
    {
      "channel": 5,
      "note": 52,
      "start": 45.2151,
      "duration": 0.401,
      "velocity": 97,
      "chip": "ym2612"
    },
    {
      "channel": 5,
      "note": 52,
      "start": 45.678,
      "duration": 0.8325,
      "velocity": 97,
      "chip": "ym2612"
    },
    {
      "channel": 5,
      "note": 52,
      "start": 46.6187,
      "duration": 0.4162,
      "velocity": 97,
      "chip": "ym2612"
    },
    {
      "channel": 5,
      "note": 52,
      "start": 47.1014,
      "duration": 0.812,
      "velocity": 97,
      "chip": "ym2612"
    },
    {
      "channel": 5,
      "note": 52,
      "start": 48.0366,
      "duration": 0.4164,
      "velocity": 97,
      "chip": "ym2612"
    },
    {
      "channel": 5,
      "note": 52,
      "start": 48.4997,
      "duration": 0.8327,
      "velocity": 97,
      "chip": "ym2612"
    },
    {
      "channel": 5,
      "note": 52,
      "start": 49.4404,
      "duration": 0.417,
      "velocity": 97,
      "chip": "ym2612"
    },
    {
      "channel": 4,
      "note": 54,
      "start": 49.9258,
      "duration": 0.2251,
      "velocity": 89,
      "chip": "ym2612"
    },
    {
      "channel": 5,
      "note": 52,
      "start": 49.9259,
      "duration": 0.8105,
      "velocity": 97,
      "chip": "ym2612"
    },
    {
      "channel": 3,
      "note": 54,
      "start": 50.0272,
      "duration": 0.2467,
      "velocity": 89,
      "chip": "ym2612"
    },
    {
      "channel": 4,
      "note": 55,
      "start": 50.151,
      "duration": 0.231,
      "velocity": 89,
      "chip": "ym2612"
    },
    {
      "channel": 3,
      "note": 55,
      "start": 50.2739,
      "duration": 0.2313,
      "velocity": 89,
      "chip": "ym2612"
    },
    {
      "channel": 4,
      "note": 59,
      "start": 50.382,
      "duration": 0.478,
      "velocity": 89,
      "chip": "ym2612"
    },
    {
      "channel": 3,
      "note": 59,
      "start": 50.5053,
      "duration": 0.4775,
      "velocity": 89,
      "chip": "ym2612"
    },
    {
      "channel": 4,
      "note": 62,
      "start": 50.86,
      "duration": 0.463,
      "velocity": 89,
      "chip": "ym2612"
    },
    {
      "channel": 5,
      "note": 52,
      "start": 50.8602,
      "duration": 0.4168,
      "velocity": 97,
      "chip": "ym2612"
    },
    {
      "channel": 3,
      "note": 62,
      "start": 50.9828,
      "duration": 0.4658,
      "velocity": 89,
      "chip": "ym2612"
    },
    {
      "channel": 4,
      "note": 61,
      "start": 51.3231,
      "duration": 1.4278,
      "velocity": 89,
      "chip": "ym2612"
    },
    {
      "channel": 5,
      "note": 52,
      "start": 51.3234,
      "duration": 0.8385,
      "velocity": 97,
      "chip": "ym2612"
    },
    {
      "channel": 3,
      "note": 61,
      "start": 51.4487,
      "duration": 1.4263,
      "velocity": 89,
      "chip": "ym2612"
    },
    {
      "channel": 5,
      "note": 52,
      "start": 52.2707,
      "duration": 0.4185,
      "velocity": 97,
      "chip": "ym2612"
    },
    {
      "channel": 4,
      "note": 54,
      "start": 52.7509,
      "duration": 0.2329,
      "velocity": 89,
      "chip": "ym2612"
    },
    {
      "channel": 5,
      "note": 52,
      "start": 52.7511,
      "duration": 0.822,
      "velocity": 97,
      "chip": "ym2612"
    },
    {
      "channel": 3,
      "note": 54,
      "start": 52.875,
      "duration": 0.2328,
      "velocity": 89,
      "chip": "ym2612"
    },
    {
      "channel": 4,
      "note": 55,
      "start": 52.9839,
      "duration": 0.2326,
      "velocity": 89,
      "chip": "ym2612"
    },
    {
      "channel": 3,
      "note": 55,
      "start": 53.1078,
      "duration": 0.2326,
      "velocity": 89,
      "chip": "ym2612"
    },
    {
      "channel": 4,
      "note": 59,
      "start": 53.2166,
      "duration": 0.4809,
      "velocity": 89,
      "chip": "ym2612"
    },
    {
      "channel": 3,
      "note": 59,
      "start": 53.3405,
      "duration": 0.481,
      "velocity": 89,
      "chip": "ym2612"
    },
    {
      "channel": 4,
      "note": 64,
      "start": 53.6976,
      "duration": 0.4653,
      "velocity": 89,
      "chip": "ym2612"
    },
    {
      "channel": 5,
      "note": 52,
      "start": 53.6978,
      "duration": 0.4187,
      "velocity": 97,
      "chip": "ym2612"
    },
    {
      "channel": 3,
      "note": 64,
      "start": 53.8216,
      "duration": 0.4656,
      "velocity": 89,
      "chip": "ym2612"
    },
    {
      "channel": 4,
      "note": 61,
      "start": 54.1629,
      "duration": 0.4814,
      "velocity": 89,
      "chip": "ym2612"
    },
    {
      "channel": 5,
      "note": 52,
      "start": 54.1632,
      "duration": 0.8376,
      "velocity": 97,
      "chip": "ym2612"
    },
    {
      "channel": 3,
      "note": 61,
      "start": 54.2872,
      "duration": 0.481,
      "velocity": 89,
      "chip": "ym2612"
    },
    {
      "channel": 4,
      "note": 66,
      "start": 54.6443,
      "duration": 0.9456,
      "velocity": 89,
      "chip": "ym2612"
    },
    {
      "channel": 3,
      "note": 66,
      "start": 54.7682,
      "duration": 0.9458,
      "velocity": 89,
      "chip": "ym2612"
    },
    {
      "channel": 5,
      "note": 52,
      "start": 55.1091,
      "duration": 0.4187,
      "velocity": 97,
      "chip": "ym2612"
    },
    {
      "channel": 4,
      "note": 54,
      "start": 55.59,
      "duration": 0.2327,
      "velocity": 89,
      "chip": "ym2612"
    },
    {
      "channel": 5,
      "note": 52,
      "start": 55.5902,
      "duration": 0.8225,
      "velocity": 97,
      "chip": "ym2612"
    },
    {
      "channel": 3,
      "note": 54,
      "start": 55.7142,
      "duration": 0.2328,
      "velocity": 89,
      "chip": "ym2612"
    },
    {
      "channel": 4,
      "note": 55,
      "start": 55.8228,
      "duration": 0.2331,
      "velocity": 89,
      "chip": "ym2612"
    },
    {
      "channel": 3,
      "note": 55,
      "start": 55.9471,
      "duration": 0.2328,
      "velocity": 89,
      "chip": "ym2612"
    },
    {
      "channel": 4,
      "note": 59,
      "start": 56.056,
      "duration": 0.4808,
      "velocity": 89,
      "chip": "ym2612"
    },
    {
      "channel": 3,
      "note": 59,
      "start": 56.1799,
      "duration": 0.481,
      "velocity": 89,
      "chip": "ym2612"
    },
    {
      "channel": 4,
      "note": 62,
      "start": 56.5368,
      "duration": 0.4812,
      "velocity": 89,
      "chip": "ym2612"
    },
    {
      "channel": 5,
      "note": 52,
      "start": 56.537,
      "duration": 0.4191,
      "velocity": 97,
      "chip": "ym2612"
    },
    {
      "channel": 3,
      "note": 62,
      "start": 56.661,
      "duration": 0.4656,
      "velocity": 89,
      "chip": "ym2612"
    },
    {
      "channel": 4,
      "note": 61,
      "start": 57.0181,
      "duration": 1.4121,
      "velocity": 89,
      "chip": "ym2612"
    },
    {
      "channel": 5,
      "note": 52,
      "start": 57.0183,
      "duration": 0.8219,
      "velocity": 97,
      "chip": "ym2612"
    },
    {
      "channel": 3,
      "note": 61,
      "start": 57.1267,
      "duration": 1.4277,
      "velocity": 89,
      "chip": "ym2612"
    },
    {
      "channel": 5,
      "note": 52,
      "start": 57.9642,
      "duration": 0.4039,
      "velocity": 97,
      "chip": "ym2612"
    },
    {
      "channel": 4,
      "note": 54,
      "start": 58.4302,
      "duration": 0.2329,
      "velocity": 89,
      "chip": "ym2612"
    },
    {
      "channel": 5,
      "note": 52,
      "start": 58.4305,
      "duration": 0.8231,
      "velocity": 97,
      "chip": "ym2612"
    },
    {
      "channel": 3,
      "note": 54,
      "start": 58.5544,
      "duration": 0.2331,
      "velocity": 89,
      "chip": "ym2612"
    },
    {
      "channel": 4,
      "note": 55,
      "start": 58.6632,
      "duration": 0.2488,
      "velocity": 89,
      "chip": "ym2612"
    },
    {
      "channel": 3,
      "note": 55,
      "start": 58.7875,
      "duration": 0.2332,
      "velocity": 89,
      "chip": "ym2612"
    },
    {
      "channel": 4,
      "note": 59,
      "start": 58.9121,
      "duration": 0.466,
      "velocity": 89,
      "chip": "ym2612"
    },
    {
      "channel": 3,
      "note": 59,
      "start": 59.0208,
      "duration": 0.4815,
      "velocity": 89,
      "chip": "ym2612"
    },
    {
      "channel": 4,
      "note": 62,
      "start": 59.3781,
      "duration": 0.4813,
      "velocity": 89,
      "chip": "ym2612"
    },
    {
      "channel": 5,
      "note": 52,
      "start": 59.3783,
      "duration": 0.4191,
      "velocity": 97,
      "chip": "ym2612"
    },
    {
      "channel": 3,
      "note": 62,
      "start": 59.5024,
      "duration": 0.4657,
      "velocity": 89,
      "chip": "ym2612"
    },
    {
      "channel": 4,
      "note": 61,
      "start": 59.8595,
      "duration": 0.4658,
      "velocity": 89,
      "chip": "ym2612"
    },
    {
      "channel": 5,
      "note": 52,
      "start": 59.8597,
      "duration": 0.8221,
      "velocity": 97,
      "chip": "ym2612"
    },
    {
      "channel": 3,
      "note": 61,
      "start": 59.9682,
      "duration": 0.4809,
      "velocity": 89,
      "chip": "ym2612"
    },
    {
      "channel": 4,
      "note": 57,
      "start": 60.3254,
      "duration": 0.9451,
      "velocity": 89,
      "chip": "ym2612"
    },
    {
      "channel": 3,
      "note": 57,
      "start": 60.4491,
      "duration": 0.3588,
      "velocity": 1,
      "chip": "ym2612"
    },
    {
      "channel": 1,
      "note": 83,
      "start": 60.8074,
      "duration": 0.385,
      "velocity": 127,
      "chip": "ym2612"
    },
    {
      "channel": 3,
      "note": 71,
      "start": 60.8092,
      "duration": 0.3836,
      "velocity": 94,
      "chip": "ym2612"
    },
    {
      "channel": 5,
      "note": 52,
      "start": 60.8094,
      "duration": 0.399,
      "velocity": 97,
      "chip": "ym2612"
    },
    {
      "channel": 0,
      "note": 83,
      "start": 60.9149,
      "duration": 0.4007,
      "velocity": 127,
      "chip": "ym2612"
    },
    {
      "channel": 2,
      "note": 71,
      "start": 61.1479,
      "duration": 0.3992,
      "velocity": 94,
      "chip": "ym2612"
    },
    {
      "channel": 1,
      "note": 88,
      "start": 61.2697,
      "duration": 0.6321,
      "velocity": 127,
      "chip": "ym2612"
    },
    {
      "channel": 3,
      "note": 76,
      "start": 61.2702,
      "duration": 0.6321,
      "velocity": 94,
      "chip": "ym2612"
    },
    {
      "channel": 4,
      "note": 54,
      "start": 61.2705,
      "duration": 0.2311,
      "velocity": 89,
      "chip": "ym2612"
    },
    {
      "channel": 5,
      "note": 52,
      "start": 61.2707,
      "duration": 0.8174,
      "velocity": 97,
      "chip": "ym2612"
    },
    {
      "channel": 0,
      "note": 88,
      "start": 61.3931,
      "duration": 0.6169,
      "velocity": 127,
      "chip": "ym2612"
    },
    {
      "channel": 4,
      "note": 55,
      "start": 61.5016,
      "duration": 0.2466,
      "velocity": 89,
      "chip": "ym2612"
    },
    {
      "channel": 2,
      "note": 76,
      "start": 61.6248,
      "duration": 0.6327,
      "velocity": 94,
      "chip": "ym2612"
    },
    {
      "channel": 4,
      "note": 59,
      "start": 61.7483,
      "duration": 0.4639,
      "velocity": 89,
      "chip": "ym2612"
    },
    {
      "channel": 1,
      "note": 90,
      "start": 61.9795,
      "duration": 0.154,
      "velocity": 127,
      "chip": "ym2612"
    },
    {
      "channel": 3,
      "note": 78,
      "start": 61.98,
      "duration": 0.1538,
      "velocity": 94,
      "chip": "ym2612"
    },
    {
      "channel": 0,
      "note": 90,
      "start": 62.0875,
      "duration": 0.1695,
      "velocity": 127,
      "chip": "ym2612"
    },
    {
      "channel": 1,
      "note": 88,
      "start": 62.2114,
      "duration": 0.4012,
      "velocity": 127,
      "chip": "ym2612"
    },
    {
      "channel": 3,
      "note": 76,
      "start": 62.212,
      "duration": 0.401,
      "velocity": 94,
      "chip": "ym2612"
    },
    {
      "channel": 4,
      "note": 62,
      "start": 62.2122,
      "duration": 0.4786,
      "velocity": 89,
      "chip": "ym2612"
    },
    {
      "channel": 5,
      "note": 52,
      "start": 62.2124,
      "duration": 0.4163,
      "velocity": 97,
      "chip": "ym2612"
    },
    {
      "channel": 0,
      "note": 88,
      "start": 62.3348,
      "duration": 0.3858,
      "velocity": 127,
      "chip": "ym2612"
    },
    {
      "channel": 2,
      "note": 78,
      "start": 62.3353,
      "duration": 0.1537,
      "velocity": 94,
      "chip": "ym2612"
    },
    {
      "channel": 2,
      "note": 76,
      "start": 62.5664,
      "duration": 0.386,
      "velocity": 94,
      "chip": "ym2612"
    },
    {
      "channel": 1,
      "note": 86,
      "start": 62.69,
      "duration": 0.741,
      "velocity": 127,
      "chip": "ym2612"
    },
    {
      "channel": 3,
      "note": 74,
      "start": 62.6905,
      "duration": 0.741,
      "velocity": 94,
      "chip": "ym2612"
    },
    {
      "channel": 4,
      "note": 61,
      "start": 62.6908,
      "duration": 1.405,
      "velocity": 89,
      "chip": "ym2612"
    },
    {
      "channel": 5,
      "note": 52,
      "start": 62.691,
      "duration": 0.8182,
      "velocity": 97,
      "chip": "ym2612"
    },
    {
      "channel": 0,
      "note": 86,
      "start": 62.798,
      "duration": 0.7566,
      "velocity": 127,
      "chip": "ym2612"
    },
    {
      "channel": 2,
      "note": 74,
      "start": 63.03,
      "duration": 0.7562,
      "velocity": 94,
      "chip": "ym2612"
    },
    {
      "channel": 1,
      "note": 83,
      "start": 63.6321,
      "duration": 0.3856,
      "velocity": 127,
      "chip": "ym2612"
    },
    {
      "channel": 3,
      "note": 71,
      "start": 63.6325,
      "duration": 0.3856,
      "velocity": 94,
      "chip": "ym2612"
    },
    {
      "channel": 5,
      "note": 52,
      "start": 63.6328,
      "duration": 0.4009,
      "velocity": 97,
      "chip": "ym2612"
    },
    {
      "channel": 0,
      "note": 83,
      "start": 63.7399,
      "duration": 0.4011,
      "velocity": 127,
      "chip": "ym2612"
    },
    {
      "channel": 2,
      "note": 71,
      "start": 63.987,
      "duration": 0.3857,
      "velocity": 94,
      "chip": "ym2612"
    },
    {
      "channel": 1,
      "note": 88,
      "start": 64.095,
      "duration": 0.6323,
      "velocity": 127,
      "chip": "ym2612"
    },
    {
      "channel": 3,
      "note": 76,
      "start": 64.0955,
      "duration": 0.6322,
      "velocity": 94,
      "chip": "ym2612"
    },
    {
      "channel": 4,
      "note": 54,
      "start": 64.0959,
      "duration": 0.2311,
      "velocity": 89,
      "chip": "ym2612"
    },
    {
      "channel": 5,
      "note": 52,
      "start": 64.0961,
      "duration": 0.8329,
      "velocity": 97,
      "chip": "ym2612"
    },
    {
      "channel": 0,
      "note": 88,
      "start": 64.2185,
      "duration": 0.6168,
      "velocity": 127,
      "chip": "ym2612"
    },
    {
      "channel": 4,
      "note": 55,
      "start": 64.3269,
      "duration": 0.2468,
      "velocity": 89,
      "chip": "ym2612"
    },
    {
      "channel": 2,
      "note": 76,
      "start": 64.4501,
      "duration": 0.6326,
      "velocity": 94,
      "chip": "ym2612"
    },
    {
      "channel": 4,
      "note": 59,
      "start": 64.5738,
      "duration": 0.4637,
      "velocity": 89,
      "chip": "ym2612"
    },
    {
      "channel": 1,
      "note": 90,
      "start": 64.8048,
      "duration": 0.1541,
      "velocity": 127,
      "chip": "ym2612"
    },
    {
      "channel": 3,
      "note": 78,
      "start": 64.8052,
      "duration": 0.1539,
      "velocity": 94,
      "chip": "ym2612"
    },
    {
      "channel": 0,
      "note": 90,
      "start": 64.9282,
      "duration": 0.1541,
      "velocity": 127,
      "chip": "ym2612"
    },
    {
      "channel": 1,
      "note": 91,
      "start": 65.0366,
      "duration": 0.4007,
      "velocity": 127,
      "chip": "ym2612"
    },
    {
      "channel": 3,
      "note": 79,
      "start": 65.0372,
      "duration": 0.4005,
      "velocity": 94,
      "chip": "ym2612"
    },
    {
      "channel": 4,
      "note": 64,
      "start": 65.0376,
      "duration": 0.4778,
      "velocity": 89,
      "chip": "ym2612"
    },
    {
      "channel": 5,
      "note": 52,
      "start": 65.0377,
      "duration": 0.4158,
      "velocity": 97,
      "chip": "ym2612"
    },
    {
      "channel": 0,
      "note": 91,
      "start": 65.16,
      "duration": 0.385,
      "velocity": 127,
      "chip": "ym2612"
    },
    {
      "channel": 2,
      "note": 78,
      "start": 65.1605,
      "duration": 0.1534,
      "velocity": 94,
      "chip": "ym2612"
    },
    {
      "channel": 2,
      "note": 79,
      "start": 65.3916,
      "duration": 0.3851,
      "velocity": 94,
      "chip": "ym2612"
    },
    {
      "channel": 1,
      "note": 93,
      "start": 65.5146,
      "duration": 0.7408,
      "velocity": 127,
      "chip": "ym2612"
    },
    {
      "channel": 3,
      "note": 81,
      "start": 65.5151,
      "duration": 0.7408,
      "velocity": 94,
      "chip": "ym2612"
    },
    {
      "channel": 4,
      "note": 61,
      "start": 65.5154,
      "duration": 0.4628,
      "velocity": 89,
      "chip": "ym2612"
    },
    {
      "channel": 5,
      "note": 52,
      "start": 65.5156,
      "duration": 0.8178,
      "velocity": 97,
      "chip": "ym2612"
    },
    {
      "channel": 0,
      "note": 93,
      "start": 65.6224,
      "duration": 0.7561,
      "velocity": 127,
      "chip": "ym2612"
    },
    {
      "channel": 2,
      "note": 81,
      "start": 65.8696,
      "duration": 0.7412,
      "velocity": 94,
      "chip": "ym2612"
    },
    {
      "channel": 4,
      "note": 66,
      "start": 65.9782,
      "duration": 0.9422,
      "velocity": 89,
      "chip": "ym2612"
    },
    {
      "channel": 1,
      "note": 83,
      "start": 66.4566,
      "duration": 0.3857,
      "velocity": 127,
      "chip": "ym2612"
    },
    {
      "channel": 3,
      "note": 71,
      "start": 66.4571,
      "duration": 0.3856,
      "velocity": 94,
      "chip": "ym2612"
    },
    {
      "channel": 5,
      "note": 52,
      "start": 66.4573,
      "duration": 0.401,
      "velocity": 97,
      "chip": "ym2612"
    },
    {
      "channel": 0,
      "note": 83,
      "start": 66.5646,
      "duration": 0.4008,
      "velocity": 127,
      "chip": "ym2612"
    },
    {
      "channel": 2,
      "note": 71,
      "start": 66.8115,
      "duration": 0.3855,
      "velocity": 94,
      "chip": "ym2612"
    },
    {
      "channel": 1,
      "note": 88,
      "start": 66.9196,
      "duration": 0.6321,
      "velocity": 127,
      "chip": "ym2612"
    },
    {
      "channel": 3,
      "note": 76,
      "start": 66.92,
      "duration": 0.632,
      "velocity": 94,
      "chip": "ym2612"
    },
    {
      "channel": 4,
      "note": 54,
      "start": 66.9204,
      "duration": 0.2307,
      "velocity": 89,
      "chip": "ym2612"
    },
    {
      "channel": 5,
      "note": 52,
      "start": 66.9206,
      "duration": 0.8328,
      "velocity": 97,
      "chip": "ym2612"
    },
    {
      "channel": 0,
      "note": 88,
      "start": 67.0427,
      "duration": 0.6324,
      "velocity": 127,
      "chip": "ym2612"
    },
    {
      "channel": 4,
      "note": 55,
      "start": 67.1511,
      "duration": 0.247,
      "velocity": 89,
      "chip": "ym2612"
    },
    {
      "channel": 2,
      "note": 76,
      "start": 67.2744,
      "duration": 0.6325,
      "velocity": 94,
      "chip": "ym2612"
    },
    {
      "channel": 4,
      "note": 59,
      "start": 67.3982,
      "duration": 0.4634,
      "velocity": 89,
      "chip": "ym2612"
    },
    {
      "channel": 1,
      "note": 90,
      "start": 67.6292,
      "duration": 0.1541,
      "velocity": 127,
      "chip": "ym2612"
    },
    {
      "channel": 3,
      "note": 78,
      "start": 67.6296,
      "duration": 0.154,
      "velocity": 94,
      "chip": "ym2612"
    },
    {
      "channel": 0,
      "note": 90,
      "start": 67.7527,
      "duration": 0.1539,
      "velocity": 127,
      "chip": "ym2612"
    },
    {
      "channel": 1,
      "note": 91,
      "start": 67.8608,
      "duration": 0.401,
      "velocity": 127,
      "chip": "ym2612"
    },
    {
      "channel": 3,
      "note": 79,
      "start": 67.8614,
      "duration": 0.4009,
      "velocity": 94,
      "chip": "ym2612"
    },
    {
      "channel": 4,
      "note": 62,
      "start": 67.8617,
      "duration": 0.4784,
      "velocity": 89,
      "chip": "ym2612"
    },
    {
      "channel": 5,
      "note": 52,
      "start": 67.8619,
      "duration": 0.4161,
      "velocity": 97,
      "chip": "ym2612"
    },
    {
      "channel": 0,
      "note": 91,
      "start": 67.984,
      "duration": 0.3858,
      "velocity": 127,
      "chip": "ym2612"
    },
    {
      "channel": 2,
      "note": 78,
      "start": 67.9846,
      "duration": 0.1538,
      "velocity": 94,
      "chip": "ym2612"
    },
    {
      "channel": 2,
      "note": 79,
      "start": 68.2157,
      "duration": 0.4012,
      "velocity": 94,
      "chip": "ym2612"
    },
    {
      "channel": 1,
      "note": 90,
      "start": 68.3393,
      "duration": 0.6173,
      "velocity": 127,
      "chip": "ym2612"
    },
    {
      "channel": 3,
      "note": 78,
      "start": 68.3398,
      "duration": 0.6171,
      "velocity": 94,
      "chip": "ym2612"
    },
    {
      "channel": 4,
      "note": 61,
      "start": 68.3401,
      "duration": 1.4053,
      "velocity": 89,
      "chip": "ym2612"
    },
    {
      "channel": 5,
      "note": 52,
      "start": 68.3403,
      "duration": 0.8181,
      "velocity": 97,
      "chip": "ym2612"
    },
    {
      "channel": 0,
      "note": 90,
      "start": 68.4473,
      "duration": 0.6328,
      "velocity": 127,
      "chip": "ym2612"
    },
    {
      "channel": 2,
      "note": 78,
      "start": 68.6946,
      "duration": 0.6177,
      "velocity": 94,
      "chip": "ym2612"
    },
    {
      "channel": 1,
      "note": 93,
      "start": 69.034,
      "duration": 0.1698,
      "velocity": 127,
      "chip": "ym2612"
    },
    {
      "channel": 3,
      "note": 81,
      "start": 69.0344,
      "duration": 0.1696,
      "velocity": 94,
      "chip": "ym2612"
    },
    {
      "channel": 0,
      "note": 93,
      "start": 69.1576,
      "duration": 0.1542,
      "velocity": 127,
      "chip": "ym2612"
    },
    {
      "channel": 1,
      "note": 90,
      "start": 69.2817,
      "duration": 0.3858,
      "velocity": 127,
      "chip": "ym2612"
    },
    {
      "channel": 3,
      "note": 78,
      "start": 69.2822,
      "duration": 0.3856,
      "velocity": 94,
      "chip": "ym2612"
    },
    {
      "channel": 5,
      "note": 52,
      "start": 69.2825,
      "duration": 0.4011,
      "velocity": 97,
      "chip": "ym2612"
    },
    {
      "channel": 0,
      "note": 90,
      "start": 69.3895,
      "duration": 0.4011,
      "velocity": 127,
      "chip": "ym2612"
    },
    {
      "channel": 2,
      "note": 81,
      "start": 69.3899,
      "duration": 0.1693,
      "velocity": 94,
      "chip": "ym2612"
    },
    {
      "channel": 2,
      "note": 78,
      "start": 69.6371,
      "duration": 0.3851,
      "velocity": 94,
      "chip": "ym2612"
    },
    {
      "channel": 1,
      "note": 88,
      "start": 69.7447,
      "duration": 0.8636,
      "velocity": 127,
      "chip": "ym2612"
    },
    {
      "channel": 3,
      "note": 76,
      "start": 69.7452,
      "duration": 0.8635,
      "velocity": 94,
      "chip": "ym2612"
    },
    {
      "channel": 4,
      "note": 54,
      "start": 69.7455,
      "duration": 0.2463,
      "velocity": 89,
      "chip": "ym2612"
    },
    {
      "channel": 5,
      "note": 52,
      "start": 69.7457,
      "duration": 0.8325,
      "velocity": 97,
      "chip": "ym2612"
    },
    {
      "channel": 0,
      "note": 88,
      "start": 69.868,
      "duration": 0.8635,
      "velocity": 127,
      "chip": "ym2612"
    },
    {
      "channel": 4,
      "note": 55,
      "start": 69.9919,
      "duration": 0.2315,
      "velocity": 89,
      "chip": "ym2612"
    },
    {
      "channel": 2,
      "note": 76,
      "start": 70.0997,
      "duration": 0.8636,
      "velocity": 94,
      "chip": "ym2612"
    },
    {
      "channel": 4,
      "note": 59,
      "start": 70.2234,
      "duration": 0.4631,
      "velocity": 89,
      "chip": "ym2612"
    },
    {
      "channel": 1,
      "note": 86,
      "start": 70.6856,
      "duration": 0.401,
      "velocity": 127,
      "chip": "ym2612"
    },
    {
      "channel": 3,
      "note": 74,
      "start": 70.6861,
      "duration": 0.4009,
      "velocity": 94,
      "chip": "ym2612"
    },
    {
      "channel": 4,
      "note": 62,
      "start": 70.6865,
      "duration": 0.4782,
      "velocity": 89,
      "chip": "ym2612"
    },
    {
      "channel": 5,
      "note": 52,
      "start": 70.6866,
      "duration": 0.4159,
      "velocity": 97,
      "chip": "ym2612"
    },
    {
      "channel": 0,
      "note": 86,
      "start": 70.8089,
      "duration": 0.3854,
      "velocity": 127,
      "chip": "ym2612"
    },
    {
      "channel": 2,
      "note": 74,
      "start": 71.0408,
      "duration": 0.4008,
      "velocity": 94,
      "chip": "ym2612"
    },
    {
      "channel": 1,
      "note": 83,
      "start": 71.164,
      "duration": 0.7407,
      "velocity": 127,
      "chip": "ym2612"
    },
    {
      "channel": 3,
      "note": 71,
      "start": 71.1645,
      "duration": 0.7409,
      "velocity": 94,
      "chip": "ym2612"
    },
    {
      "channel": 4,
      "note": 61,
      "start": 71.1648,
      "duration": 0.4625,
      "velocity": 89,
      "chip": "ym2612"
    },
    {
      "channel": 5,
      "note": 52,
      "start": 71.1649,
      "duration": 0.8178,
      "velocity": 97,
      "chip": "ym2612"
    },
    {
      "channel": 0,
      "note": 83,
      "start": 71.2717,
      "duration": 0.7563,
      "velocity": 127,
      "chip": "ym2612"
    },
    {
      "channel": 2,
      "note": 71,
      "start": 71.5191,
      "duration": 0.7408,
      "velocity": 94,
      "chip": "ym2612"
    },
    {
      "channel": 4,
      "note": 57,
      "start": 71.6274,
      "duration": 0.942,
      "velocity": 89,
      "chip": "ym2612"
    },
    {
      "channel": 1,
      "note": 83,
      "start": 72.1053,
      "duration": 0.3859,
      "velocity": 127,
      "chip": "ym2612"
    },
    {
      "channel": 3,
      "note": 71,
      "start": 72.1056,
      "duration": 0.386,
      "velocity": 94,
      "chip": "ym2612"
    },
    {
      "channel": 5,
      "note": 52,
      "start": 72.1058,
      "duration": 0.4013,
      "velocity": 97,
      "chip": "ym2612"
    },
    {
      "channel": 0,
      "note": 83,
      "start": 72.2132,
      "duration": 0.4015,
      "velocity": 127,
      "chip": "ym2612"
    },
    {
      "channel": 2,
      "note": 71,
      "start": 72.4604,
      "duration": 0.3858,
      "velocity": 94,
      "chip": "ym2612"
    },
    {
      "channel": 1,
      "note": 88,
      "start": 72.5687,
      "duration": 0.633,
      "velocity": 127,
      "chip": "ym2612"
    },
    {
      "channel": 3,
      "note": 76,
      "start": 72.5691,
      "duration": 0.633,
      "velocity": 94,
      "chip": "ym2612"
    },
    {
      "channel": 4,
      "note": 54,
      "start": 72.5695,
      "duration": 0.2465,
      "velocity": 89,
      "chip": "ym2612"
    },
    {
      "channel": 5,
      "note": 52,
      "start": 72.5697,
      "duration": 0.8339,
      "velocity": 97,
      "chip": "ym2612"
    },
    {
      "channel": 0,
      "note": 88,
      "start": 72.692,
      "duration": 0.6333,
      "velocity": 127,
      "chip": "ym2612"
    },
    {
      "channel": 4,
      "note": 55,
      "start": 72.816,
      "duration": 0.2323,
      "velocity": 89,
      "chip": "ym2612"
    },
    {
      "channel": 2,
      "note": 76,
      "start": 72.9239,
      "duration": 0.6333,
      "velocity": 94,
      "chip": "ym2612"
    },
    {
      "channel": 4,
      "note": 59,
      "start": 73.0483,
      "duration": 0.4635,
      "velocity": 89,
      "chip": "ym2612"
    },
    {
      "channel": 1,
      "note": 90,
      "start": 73.2793,
      "duration": 0.154,
      "velocity": 127,
      "chip": "ym2612"
    },
    {
      "channel": 3,
      "note": 78,
      "start": 73.2797,
      "duration": 0.1538,
      "velocity": 94,
      "chip": "ym2612"
    },
    {
      "channel": 0,
      "note": 90,
      "start": 73.4029,
      "duration": 0.1539,
      "velocity": 127,
      "chip": "ym2612"
    },
    {
      "channel": 1,
      "note": 88,
      "start": 73.5109,
      "duration": 0.4014,
      "velocity": 127,
      "chip": "ym2612"
    },
    {
      "channel": 3,
      "note": 76,
      "start": 73.5116,
      "duration": 0.4012,
      "velocity": 94,
      "chip": "ym2612"
    },
    {
      "channel": 4,
      "note": 62,
      "start": 73.5119,
      "duration": 0.4783,
      "velocity": 89,
      "chip": "ym2612"
    },
    {
      "channel": 5,
      "note": 52,
      "start": 73.512,
      "duration": 0.4162,
      "velocity": 97,
      "chip": "ym2612"
    },
    {
      "channel": 0,
      "note": 88,
      "start": 73.6345,
      "duration": 0.3854,
      "velocity": 127,
      "chip": "ym2612"
    },
    {
      "channel": 2,
      "note": 78,
      "start": 73.635,
      "duration": 0.1537,
      "velocity": 94,
      "chip": "ym2612"
    },
    {
      "channel": 2,
      "note": 76,
      "start": 73.8661,
      "duration": 0.4011,
      "velocity": 94,
      "chip": "ym2612"
    },
    {
      "channel": 1,
      "note": 86,
      "start": 73.9895,
      "duration": 0.7405,
      "velocity": 127,
      "chip": "ym2612"
    },
    {
      "channel": 3,
      "note": 74,
      "start": 73.99,
      "duration": 0.7407,
      "velocity": 94,
      "chip": "ym2612"
    },
    {
      "channel": 4,
      "note": 61,
      "start": 73.9903,
      "duration": 1.4045,
      "velocity": 89,
      "chip": "ym2612"
    },
    {
      "channel": 5,
      "note": 52,
      "start": 73.9904,
      "duration": 0.8176,
      "velocity": 97,
      "chip": "ym2612"
    },
    {
      "channel": 0,
      "note": 86,
      "start": 74.0973,
      "duration": 0.7561,
      "velocity": 127,
      "chip": "ym2612"
    },
    {
      "channel": 2,
      "note": 74,
      "start": 74.3446,
      "duration": 0.7405,
      "velocity": 94,
      "chip": "ym2612"
    },
    {
      "channel": 1,
      "note": 83,
      "start": 74.9311,
      "duration": 0.3855,
      "velocity": 127,
      "chip": "ym2612"
    },
    {
      "channel": 3,
      "note": 71,
      "start": 74.9316,
      "duration": 0.3854,
      "velocity": 94,
      "chip": "ym2612"
    },
    {
      "channel": 5,
      "note": 52,
      "start": 74.9319,
      "duration": 0.4165,
      "velocity": 97,
      "chip": "ym2612"
    },
    {
      "channel": 0,
      "note": 83,
      "start": 75.0388,
      "duration": 0.4013,
      "velocity": 127,
      "chip": "ym2612"
    },
    {
      "channel": 2,
      "note": 71,
      "start": 75.2861,
      "duration": 0.3857,
      "velocity": 94,
      "chip": "ym2612"
    },
    {
      "channel": 1,
      "note": 88,
      "start": 75.3941,
      "duration": 0.6322,
      "velocity": 127,
      "chip": "ym2612"
    },
    {
      "channel": 3,
      "note": 76,
      "start": 75.3946,
      "duration": 0.6321,
      "velocity": 94,
      "chip": "ym2612"
    },
    {
      "channel": 4,
      "note": 54,
      "start": 75.3949,
      "duration": 0.2467,
      "velocity": 89,
      "chip": "ym2612"
    },
    {
      "channel": 5,
      "note": 52,
      "start": 75.3951,
      "duration": 0.8329,
      "velocity": 97,
      "chip": "ym2612"
    },
    {
      "channel": 0,
      "note": 88,
      "start": 75.5176,
      "duration": 0.6324,
      "velocity": 127,
      "chip": "ym2612"
    },
    {
      "channel": 4,
      "note": 55,
      "start": 75.6416,
      "duration": 0.2316,
      "velocity": 89,
      "chip": "ym2612"
    },
    {
      "channel": 2,
      "note": 76,
      "start": 75.7493,
      "duration": 0.6322,
      "velocity": 94,
      "chip": "ym2612"
    },
    {
      "channel": 4,
      "note": 59,
      "start": 75.8732,
      "duration": 0.4631,
      "velocity": 89,
      "chip": "ym2612"
    },
    {
      "channel": 1,
      "note": 90,
      "start": 76.1039,
      "duration": 0.1539,
      "velocity": 127,
      "chip": "ym2612"
    },
    {
      "channel": 3,
      "note": 78,
      "start": 76.1043,
      "duration": 0.1537,
      "velocity": 94,
      "chip": "ym2612"
    },
    {
      "channel": 0,
      "note": 90,
      "start": 76.2272,
      "duration": 0.1539,
      "velocity": 127,
      "chip": "ym2612"
    },
    {
      "channel": 1,
      "note": 91,
      "start": 76.3354,
      "duration": 0.4013,
      "velocity": 127,
      "chip": "ym2612"
    },
    {
      "channel": 3,
      "note": 79,
      "start": 76.3361,
      "duration": 0.401,
      "velocity": 94,
      "chip": "ym2612"
    },
    {
      "channel": 4,
      "note": 64,
      "start": 76.3363,
      "duration": 0.4783,
      "velocity": 89,
      "chip": "ym2612"
    },
    {
      "channel": 5,
      "note": 52,
      "start": 76.3364,
      "duration": 0.4162,
      "velocity": 97,
      "chip": "ym2612"
    },
    {
      "channel": 0,
      "note": 91,
      "start": 76.4589,
      "duration": 0.3855,
      "velocity": 127,
      "chip": "ym2612"
    },
    {
      "channel": 2,
      "note": 78,
      "start": 76.4595,
      "duration": 0.1536,
      "velocity": 94,
      "chip": "ym2612"
    },
    {
      "channel": 2,
      "note": 79,
      "start": 76.6906,
      "duration": 0.401,
      "velocity": 94,
      "chip": "ym2612"
    },
    {
      "channel": 1,
      "note": 93,
      "start": 76.8138,
      "duration": 0.7411,
      "velocity": 127,
      "chip": "ym2612"
    },
    {
      "channel": 3,
      "note": 81,
      "start": 76.8143,
      "duration": 0.7413,
      "velocity": 94,
      "chip": "ym2612"
    },
    {
      "channel": 4,
      "note": 61,
      "start": 76.8146,
      "duration": 0.4631,
      "velocity": 89,
      "chip": "ym2612"
    },
    {
      "channel": 5,
      "note": 52,
      "start": 76.8148,
      "duration": 0.8181,
      "velocity": 97,
      "chip": "ym2612"
    },
    {
      "channel": 0,
      "note": 93,
      "start": 76.9375,
      "duration": 0.7409,
      "velocity": 127,
      "chip": "ym2612"
    },
    {
      "channel": 2,
      "note": 81,
      "start": 77.1692,
      "duration": 0.741,
      "velocity": 94,
      "chip": "ym2612"
    },
    {
      "channel": 4,
      "note": 66,
      "start": 77.2778,
      "duration": 0.942,
      "velocity": 89,
      "chip": "ym2612"
    },
    {
      "channel": 1,
      "note": 83,
      "start": 77.7563,
      "duration": 0.3856,
      "velocity": 127,
      "chip": "ym2612"
    },
    {
      "channel": 3,
      "note": 71,
      "start": 77.7568,
      "duration": 0.3856,
      "velocity": 94,
      "chip": "ym2612"
    },
    {
      "channel": 5,
      "note": 52,
      "start": 77.757,
      "duration": 0.4163,
      "velocity": 97,
      "chip": "ym2612"
    },
    {
      "channel": 0,
      "note": 83,
      "start": 77.8795,
      "duration": 0.3854,
      "velocity": 127,
      "chip": "ym2612"
    },
    {
      "channel": 2,
      "note": 71,
      "start": 78.1112,
      "duration": 0.3856,
      "velocity": 94,
      "chip": "ym2612"
    },
    {
      "channel": 1,
      "note": 88,
      "start": 78.219,
      "duration": 0.6323,
      "velocity": 127,
      "chip": "ym2612"
    },
    {
      "channel": 3,
      "note": 76,
      "start": 78.2195,
      "duration": 0.6323,
      "velocity": 94,
      "chip": "ym2612"
    },
    {
      "channel": 4,
      "note": 54,
      "start": 78.2199,
      "duration": 0.2465,
      "velocity": 89,
      "chip": "ym2612"
    },
    {
      "channel": 5,
      "note": 52,
      "start": 78.2201,
      "duration": 0.8333,
      "velocity": 97,
      "chip": "ym2612"
    },
    {
      "channel": 0,
      "note": 88,
      "start": 78.3424,
      "duration": 0.6327,
      "velocity": 127,
      "chip": "ym2612"
    },
    {
      "channel": 4,
      "note": 55,
      "start": 78.4664,
      "duration": 0.2314,
      "velocity": 89,
      "chip": "ym2612"
    },
    {
      "channel": 2,
      "note": 76,
      "start": 78.5743,
      "duration": 0.6327,
      "velocity": 94,
      "chip": "ym2612"
    },
    {
      "channel": 4,
      "note": 59,
      "start": 78.6979,
      "duration": 0.4637,
      "velocity": 89,
      "chip": "ym2612"
    },
    {
      "channel": 1,
      "note": 90,
      "start": 78.929,
      "duration": 0.154,
      "velocity": 127,
      "chip": "ym2612"
    },
    {
      "channel": 3,
      "note": 78,
      "start": 78.9295,
      "duration": 0.1538,
      "velocity": 94,
      "chip": "ym2612"
    },
    {
      "channel": 0,
      "note": 90,
      "start": 79.0526,
      "duration": 0.154,
      "velocity": 127,
      "chip": "ym2612"
    },
    {
      "channel": 1,
      "note": 91,
      "start": 79.1608,
      "duration": 0.4013,
      "velocity": 127,
      "chip": "ym2612"
    },
    {
      "channel": 3,
      "note": 79,
      "start": 79.1613,
      "duration": 0.4012,
      "velocity": 94,
      "chip": "ym2612"
    },
    {
      "channel": 4,
      "note": 62,
      "start": 79.1616,
      "duration": 0.4784,
      "velocity": 89,
      "chip": "ym2612"
    },
    {
      "channel": 5,
      "note": 52,
      "start": 79.1618,
      "duration": 0.4163,
      "velocity": 97,
      "chip": "ym2612"
    },
    {
      "channel": 0,
      "note": 91,
      "start": 79.2842,
      "duration": 0.3857,
      "velocity": 127,
      "chip": "ym2612"
    },
    {
      "channel": 2,
      "note": 78,
      "start": 79.2847,
      "duration": 0.1537,
      "velocity": 94,
      "chip": "ym2612"
    },
    {
      "channel": 2,
      "note": 79,
      "start": 79.5161,
      "duration": 0.401,
      "velocity": 94,
      "chip": "ym2612"
    },
    {
      "channel": 1,
      "note": 90,
      "start": 79.6393,
      "duration": 0.6327,
      "velocity": 127,
      "chip": "ym2612"
    },
    {
      "channel": 3,
      "note": 78,
      "start": 79.6398,
      "duration": 0.6326,
      "velocity": 94,
      "chip": "ym2612"
    },
    {
      "channel": 4,
      "note": 61,
      "start": 79.6401,
      "duration": 1.406,
      "velocity": 89,
      "chip": "ym2612"
    },
    {
      "channel": 5,
      "note": 52,
      "start": 79.6402,
      "duration": 0.8181,
      "velocity": 97,
      "chip": "ym2612"
    },
    {
      "channel": 0,
      "note": 90,
      "start": 79.7628,
      "duration": 0.6173,
      "velocity": 127,
      "chip": "ym2612"
    },
    {
      "channel": 2,
      "note": 78,
      "start": 79.9944,
      "duration": 0.6335,
      "velocity": 94,
      "chip": "ym2612"
    },
    {
      "channel": 1,
      "note": 93,
      "start": 80.3496,
      "duration": 0.1543,
      "velocity": 127,
      "chip": "ym2612"
    },
    {
      "channel": 3,
      "note": 81,
      "start": 80.3499,
      "duration": 0.1542,
      "velocity": 94,
      "chip": "ym2612"
    },
    {
      "channel": 0,
      "note": 93,
      "start": 80.4576,
      "duration": 0.17,
      "velocity": 127,
      "chip": "ym2612"
    },
    {
      "channel": 1,
      "note": 90,
      "start": 80.5817,
      "duration": 0.3859,
      "velocity": 127,
      "chip": "ym2612"
    },
    {
      "channel": 3,
      "note": 78,
      "start": 80.5823,
      "duration": 0.3857,
      "velocity": 94,
      "chip": "ym2612"
    },
    {
      "channel": 5,
      "note": 52,
      "start": 80.5826,
      "duration": 0.4165,
      "velocity": 97,
      "chip": "ym2612"
    },
    {
      "channel": 0,
      "note": 90,
      "start": 80.7053,
      "duration": 0.3859,
      "velocity": 127,
      "chip": "ym2612"
    },
    {
      "channel": 2,
      "note": 81,
      "start": 80.7057,
      "duration": 0.1535,
      "velocity": 94,
      "chip": "ym2612"
    },
    {
      "channel": 2,
      "note": 78,
      "start": 80.937,
      "duration": 0.386,
      "velocity": 94,
      "chip": "ym2612"
    },
    {
      "channel": 1,
      "note": 88,
      "start": 81.0453,
      "duration": 0.8642,
      "velocity": 127,
      "chip": "ym2612"
    },
    {
      "channel": 3,
      "note": 76,
      "start": 81.0458,
      "duration": 0.8642,
      "velocity": 94,
      "chip": "ym2612"
    },
    {
      "channel": 4,
      "note": 54,
      "start": 81.0461,
      "duration": 0.2465,
      "velocity": 89,
      "chip": "ym2612"
    },
    {
      "channel": 5,
      "note": 52,
      "start": 81.0464,
      "duration": 0.833,
      "velocity": 97,
      "chip": "ym2612"
    },
    {
      "channel": 0,
      "note": 88,
      "start": 81.1687,
      "duration": 0.8641,
      "velocity": 127,
      "chip": "ym2612"
    },
    {
      "channel": 4,
      "note": 55,
      "start": 81.2926,
      "duration": 0.2316,
      "velocity": 89,
      "chip": "ym2612"
    },
    {
      "channel": 2,
      "note": 76,
      "start": 81.4005,
      "duration": 0.8644,
      "velocity": 94,
      "chip": "ym2612"
    },
    {
      "channel": 4,
      "note": 59,
      "start": 81.5243,
      "duration": 0.463,
      "velocity": 89,
      "chip": "ym2612"
    },
    {
      "channel": 1,
      "note": 88,
      "start": 81.9866,
      "duration": 0.4015,
      "velocity": 127,
      "chip": "ym2612"
    },
    {
      "channel": 3,
      "note": 76,
      "start": 81.987,
      "duration": 0.4015,
      "velocity": 94,
      "chip": "ym2612"
    },
    {
      "channel": 4,
      "note": 62,
      "start": 81.9873,
      "duration": 0.4789,
      "velocity": 89,
      "chip": "ym2612"
    },
    {
      "channel": 5,
      "note": 52,
      "start": 81.9875,
      "duration": 0.4166,
      "velocity": 97,
      "chip": "ym2612"
    },
    {
      "channel": 0,
      "note": 88,
      "start": 82.1102,
      "duration": 0.4016,
      "velocity": 127,
      "chip": "ym2612"
    },
    {
      "channel": 2,
      "note": 76,
      "start": 82.3421,
      "duration": 0.4016,
      "velocity": 94,
      "chip": "ym2612"
    },
    {
      "channel": 1,
      "note": 88,
      "start": 82.4654,
      "duration": 0.7411,
      "velocity": 127,
      "chip": "ym2612"
    },
    {
      "channel": 3,
      "note": 76,
      "start": 82.4659,
      "duration": 0.7412,
      "velocity": 94,
      "chip": "ym2612"
    },
    {
      "channel": 4,
      "note": 61,
      "start": 82.4663,
      "duration": 0.479,
      "velocity": 89,
      "chip": "ym2612"
    },
    {
      "channel": 5,
      "note": 52,
      "start": 82.4664,
      "duration": 0.8178,
      "velocity": 97,
      "chip": "ym2612"
    },
    {
      "channel": 0,
      "note": 88,
      "start": 82.589,
      "duration": 0.7409,
      "velocity": 127,
      "chip": "ym2612"
    },
    {
      "channel": 2,
      "note": 76,
      "start": 82.8211,
      "duration": 0.7415,
      "velocity": 94,
      "chip": "ym2612"
    },
    {
      "channel": 4,
      "note": 57,
      "start": 82.9453,
      "duration": 0.9462,
      "velocity": 89,
      "chip": "ym2612"
    },
    {
      "channel": 3,
      "note": 83,
      "start": 83.4099,
      "duration": 0.3846,
      "velocity": 111,
      "chip": "ym2612"
    },
    {
      "channel": 5,
      "note": 52,
      "start": 83.4102,
      "duration": 0.4155,
      "velocity": 97,
      "chip": "ym2612"
    },
    {
      "channel": 2,
      "note": 83,
      "start": 83.7654,
      "duration": 0.3839,
      "velocity": 111,
      "chip": "ym2612"
    },
    {
      "channel": 0,
      "note": 74,
      "start": 83.8892,
      "duration": 0.8471,
      "velocity": 91,
      "chip": "ym2612"
    },
    {
      "channel": 1,
      "note": 78,
      "start": 83.8909,
      "duration": 0.8456,
      "velocity": 91,
      "chip": "ym2612"
    },
    {
      "channel": 3,
      "note": 86,
      "start": 83.8912,
      "duration": 0.8457,
      "velocity": 111,
      "chip": "ym2612"
    },
    {
      "channel": 4,
      "note": 54,
      "start": 83.8915,
      "duration": 0.2273,
      "velocity": 89,
      "chip": "ym2612"
    },
    {
      "channel": 5,
      "note": 52,
      "start": 83.8917,
      "duration": 0.8144,
      "velocity": 97,
      "chip": "ym2612"
    },
    {
      "channel": 4,
      "note": 55,
      "start": 84.1189,
      "duration": 0.2314,
      "velocity": 89,
      "chip": "ym2612"
    },
    {
      "channel": 2,
      "note": 86,
      "start": 84.2264,
      "duration": 0.8649,
      "velocity": 111,
      "chip": "ym2612"
    },
    {
      "channel": 4,
      "note": 59,
      "start": 84.3503,
      "duration": 0.4796,
      "velocity": 89,
      "chip": "ym2612"
    },
    {
      "channel": 0,
      "note": 74,
      "start": 84.8289,
      "duration": 0.3861,
      "velocity": 91,
      "chip": "ym2612"
    },
    {
      "channel": 1,
      "note": 78,
      "start": 84.8291,
      "duration": 0.3862,
      "velocity": 91,
      "chip": "ym2612"
    },
    {
      "channel": 3,
      "note": 86,
      "start": 84.8296,
      "duration": 0.3859,
      "velocity": 111,
      "chip": "ym2612"
    },
    {
      "channel": 4,
      "note": 62,
      "start": 84.83,
      "duration": 0.4633,
      "velocity": 89,
      "chip": "ym2612"
    },
    {
      "channel": 5,
      "note": 52,
      "start": 84.8301,
      "duration": 0.4011,
      "velocity": 97,
      "chip": "ym2612"
    },
    {
      "channel": 2,
      "note": 86,
      "start": 85.1689,
      "duration": 0.4012,
      "velocity": 111,
      "chip": "ym2612"
    },
    {
      "channel": 0,
      "note": 73,
      "start": 85.2922,
      "duration": 0.6327,
      "velocity": 91,
      "chip": "ym2612"
    },
    {
      "channel": 1,
      "note": 76,
      "start": 85.2926,
      "duration": 0.6326,
      "velocity": 91,
      "chip": "ym2612"
    },
    {
      "channel": 3,
      "note": 85,
      "start": 85.293,
      "duration": 0.6326,
      "velocity": 111,
      "chip": "ym2612"
    },
    {
      "channel": 4,
      "note": 61,
      "start": 85.2933,
      "duration": 1.42,
      "velocity": 89,
      "chip": "ym2612"
    },
    {
      "channel": 5,
      "note": 52,
      "start": 85.2935,
      "duration": 0.8175,
      "velocity": 97,
      "chip": "ym2612"
    },
    {
      "channel": 2,
      "note": 85,
      "start": 85.6475,
      "duration": 0.6327,
      "velocity": 111,
      "chip": "ym2612"
    },
    {
      "channel": 0,
      "note": 71,
      "start": 86.0022,
      "duration": 0.1545,
      "velocity": 91,
      "chip": "ym2612"
    },
    {
      "channel": 1,
      "note": 74,
      "start": 86.0026,
      "duration": 0.1543,
      "velocity": 91,
      "chip": "ym2612"
    },
    {
      "channel": 3,
      "note": 83,
      "start": 86.0031,
      "duration": 0.1544,
      "velocity": 111,
      "chip": "ym2612"
    },
    {
      "channel": 0,
      "note": 69,
      "start": 86.2339,
      "duration": 0.3857,
      "velocity": 91,
      "chip": "ym2612"
    },
    {
      "channel": 1,
      "note": 73,
      "start": 86.2342,
      "duration": 0.3857,
      "velocity": 91,
      "chip": "ym2612"
    },
    {
      "channel": 3,
      "note": 81,
      "start": 86.2347,
      "duration": 0.3857,
      "velocity": 111,
      "chip": "ym2612"
    },
    {
      "channel": 5,
      "note": 52,
      "start": 86.2349,
      "duration": 0.4164,
      "velocity": 97,
      "chip": "ym2612"
    },
    {
      "channel": 2,
      "note": 83,
      "start": 86.3574,
      "duration": 0.1544,
      "velocity": 111,
      "chip": "ym2612"
    },
    {
      "channel": 2,
      "note": 81,
      "start": 86.5893,
      "duration": 0.3857,
      "velocity": 111,
      "chip": "ym2612"
    },
    {
      "channel": 0,
      "note": 71,
      "start": 86.7123,
      "duration": 2.2694,
      "velocity": 91,
      "chip": "ym2612"
    },
    {
      "channel": 1,
      "note": 74,
      "start": 86.7127,
      "duration": 2.2694,
      "velocity": 91,
      "chip": "ym2612"
    },
    {
      "channel": 3,
      "note": 83,
      "start": 86.7131,
      "duration": 2.2694,
      "velocity": 111,
      "chip": "ym2612"
    },
    {
      "channel": 4,
      "note": 54,
      "start": 86.7134,
      "duration": 0.2313,
      "velocity": 89,
      "chip": "ym2612"
    },
    {
      "channel": 5,
      "note": 52,
      "start": 86.7135,
      "duration": 0.8176,
      "velocity": 97,
      "chip": "ym2612"
    },
    {
      "channel": 4,
      "note": 55,
      "start": 86.9446,
      "duration": 0.2317,
      "velocity": 89,
      "chip": "ym2612"
    },
    {
      "channel": 2,
      "note": 83,
      "start": 87.0524,
      "duration": 2.2851,
      "velocity": 111,
      "chip": "ym2612"
    },
    {
      "channel": 4,
      "note": 59,
      "start": 87.1764,
      "duration": 0.4781,
      "velocity": 89,
      "chip": "ym2612"
    },
    {
      "channel": 4,
      "note": 64,
      "start": 87.6546,
      "duration": 0.4626,
      "velocity": 89,
      "chip": "ym2612"
    },
    {
      "channel": 5,
      "note": 52,
      "start": 87.6547,
      "duration": 0.4009,
      "velocity": 97,
      "chip": "ym2612"
    },
    {
      "channel": 4,
      "note": 61,
      "start": 88.1172,
      "duration": 0.4791,
      "velocity": 89,
      "chip": "ym2612"
    },
    {
      "channel": 5,
      "note": 52,
      "start": 88.1175,
      "duration": 0.8188,
      "velocity": 97,
      "chip": "ym2612"
    },
    {
      "channel": 4,
      "note": 66,
      "start": 88.5963,
      "duration": 0.9427,
      "velocity": 89,
      "chip": "ym2612"
    },
    {
      "channel": 3,
      "note": 83,
      "start": 89.0599,
      "duration": 0.1544,
      "velocity": 111,
      "chip": "ym2612"
    },
    {
      "channel": 5,
      "note": 52,
      "start": 89.0602,
      "duration": 0.4164,
      "velocity": 97,
      "chip": "ym2612"
    },
    {
      "channel": 3,
      "note": 85,
      "start": 89.2914,
      "duration": 0.1695,
      "velocity": 111,
      "chip": "ym2612"
    },
    {
      "channel": 2,
      "note": 83,
      "start": 89.4149,
      "duration": 0.1539,
      "velocity": 111,
      "chip": "ym2612"
    },
    {
      "channel": 0,
      "note": 74,
      "start": 89.5378,
      "duration": 0.8653,
      "velocity": 91,
      "chip": "ym2612"
    },
    {
      "channel": 1,
      "note": 78,
      "start": 89.5382,
      "duration": 0.8652,
      "velocity": 91,
      "chip": "ym2612"
    },
    {
      "channel": 3,
      "note": 86,
      "start": 89.5386,
      "duration": 0.8653,
      "velocity": 111,
      "chip": "ym2612"
    },
    {
      "channel": 4,
      "note": 54,
      "start": 89.5389,
      "duration": 0.2314,
      "velocity": 89,
      "chip": "ym2612"
    },
    {
      "channel": 5,
      "note": 52,
      "start": 89.5391,
      "duration": 0.8185,
      "velocity": 97,
      "chip": "ym2612"
    },
    {
      "channel": 2,
      "note": 85,
      "start": 89.6461,
      "duration": 0.1546,
      "velocity": 111,
      "chip": "ym2612"
    },
    {
      "channel": 4,
      "note": 55,
      "start": 89.7704,
      "duration": 0.2318,
      "velocity": 89,
      "chip": "ym2612"
    },
    {
      "channel": 2,
      "note": 86,
      "start": 89.8935,
      "duration": 0.8493,
      "velocity": 111,
      "chip": "ym2612"
    },
    {
      "channel": 4,
      "note": 59,
      "start": 90.0022,
      "duration": 0.4794,
      "velocity": 89,
      "chip": "ym2612"
    },
    {
      "channel": 0,
      "note": 74,
      "start": 90.4805,
      "duration": 0.3856,
      "velocity": 91,
      "chip": "ym2612"
    },
    {
      "channel": 1,
      "note": 78,
      "start": 90.4807,
      "duration": 0.3857,
      "velocity": 91,
      "chip": "ym2612"
    },
    {
      "channel": 3,
      "note": 86,
      "start": 90.4812,
      "duration": 0.3854,
      "velocity": 111,
      "chip": "ym2612"
    },
    {
      "channel": 4,
      "note": 62,
      "start": 90.4816,
      "duration": 0.4629,
      "velocity": 89,
      "chip": "ym2612"
    },
    {
      "channel": 5,
      "note": 52,
      "start": 90.4817,
      "duration": 0.4005,
      "velocity": 97,
      "chip": "ym2612"
    },
    {
      "channel": 2,
      "note": 86,
      "start": 90.8354,
      "duration": 0.3859,
      "velocity": 111,
      "chip": "ym2612"
    },
    {
      "channel": 0,
      "note": 73,
      "start": 90.9433,
      "duration": 0.4015,
      "velocity": 91,
      "chip": "ym2612"
    },
    {
      "channel": 1,
      "note": 76,
      "start": 90.9437,
      "duration": 0.4014,
      "velocity": 91,
      "chip": "ym2612"
    },
    {
      "channel": 3,
      "note": 85,
      "start": 90.9442,
      "duration": 0.4786,
      "velocity": 111,
      "chip": "ym2612"
    },
    {
      "channel": 4,
      "note": 61,
      "start": 90.9445,
      "duration": 1.4215,
      "velocity": 89,
      "chip": "ym2612"
    },
    {
      "channel": 5,
      "note": 52,
      "start": 90.9447,
      "duration": 0.8336,
      "velocity": 97,
      "chip": "ym2612"
    },
    {
      "channel": 2,
      "note": 85,
      "start": 91.2987,
      "duration": 0.4792,
      "velocity": 111,
      "chip": "ym2612"
    },
    {
      "channel": 0,
      "note": 76,
      "start": 91.4221,
      "duration": 0.1544,
      "velocity": 91,
      "chip": "ym2612"
    },
    {
      "channel": 1,
      "note": 79,
      "start": 91.4225,
      "duration": 0.1542,
      "velocity": 91,
      "chip": "ym2612"
    },
    {
      "channel": 3,
      "note": 88,
      "start": 91.4229,
      "duration": 0.2315,
      "velocity": 111,
      "chip": "ym2612"
    },
    {
      "channel": 2,
      "note": 88,
      "start": 91.7779,
      "duration": 0.232,
      "velocity": 111,
      "chip": "ym2612"
    },
    {
      "channel": 5,
      "note": 52,
      "start": 91.8866,
      "duration": 0.4173,
      "velocity": 97,
      "chip": "ym2612"
    },
    {
      "channel": 3,
      "note": 85,
      "start": 92.1183,
      "duration": 0.17,
      "velocity": 111,
      "chip": "ym2612"
    },
    {
      "channel": 0,
      "note": 71,
      "start": 92.3648,
      "duration": 2.7487,
      "velocity": 91,
      "chip": "ym2612"
    },
    {
      "channel": 1,
      "note": 74,
      "start": 92.3652,
      "duration": 2.7484,
      "velocity": 91,
      "chip": "ym2612"
    },
    {
      "channel": 3,
      "note": 83,
      "start": 92.3657,
      "duration": 2.7484,
      "velocity": 111,
      "chip": "ym2612"
    },
    {
      "channel": 4,
      "note": 54,
      "start": 92.366,
      "duration": 0.2314,
      "velocity": 89,
      "chip": "ym2612"
    },
    {
      "channel": 5,
      "note": 52,
      "start": 92.3662,
      "duration": 0.8182,
      "velocity": 97,
      "chip": "ym2612"
    },
    {
      "channel": 2,
      "note": 85,
      "start": 92.4731,
      "duration": 0.1548,
      "velocity": 111,
      "chip": "ym2612"
    },
    {
      "channel": 4,
      "note": 55,
      "start": 92.5975,
      "duration": 0.2319,
      "velocity": 89,
      "chip": "ym2612"
    },
    {
      "channel": 2,
      "note": 83,
      "start": 92.7207,
      "duration": 2.7482,
      "velocity": 111,
      "chip": "ym2612"
    },
    {
      "channel": 4,
      "note": 59,
      "start": 92.8294,
      "duration": 0.4785,
      "velocity": 89,
      "chip": "ym2612"
    },
    {
      "channel": 4,
      "note": 62,
      "start": 93.3079,
      "duration": 0.4627,
      "velocity": 89,
      "chip": "ym2612"
    },
    {
      "channel": 5,
      "note": 52,
      "start": 93.308,
      "duration": 0.4009,
      "velocity": 97,
      "chip": "ym2612"
    },
    {
      "channel": 4,
      "note": 61,
      "start": 93.7706,
      "duration": 0.479,
      "velocity": 89,
      "chip": "ym2612"
    },
    {
      "channel": 5,
      "note": 52,
      "start": 93.7709,
      "duration": 0.8341,
      "velocity": 97,
      "chip": "ym2612"
    },
    {
      "channel": 4,
      "note": 57,
      "start": 94.2496,
      "duration": 0.9424,
      "velocity": 89,
      "chip": "ym2612"
    },
    {
      "channel": 5,
      "note": 52,
      "start": 94.713,
      "duration": 0.4168,
      "velocity": 97,
      "chip": "ym2612"
    },
    {
      "channel": 0,
      "note": 74,
      "start": 95.1908,
      "duration": 0.865,
      "velocity": 91,
      "chip": "ym2612"
    },
    {
      "channel": 1,
      "note": 78,
      "start": 95.1912,
      "duration": 0.8648,
      "velocity": 91,
      "chip": "ym2612"
    },
    {
      "channel": 3,
      "note": 86,
      "start": 95.1918,
      "duration": 0.8647,
      "velocity": 111,
      "chip": "ym2612"
    },
    {
      "channel": 4,
      "note": 54,
      "start": 95.192,
      "duration": 0.2308,
      "velocity": 89,
      "chip": "ym2612"
    },
    {
      "channel": 5,
      "note": 52,
      "start": 95.1922,
      "duration": 0.8181,
      "velocity": 97,
      "chip": "ym2612"
    },
    {
      "channel": 4,
      "note": 55,
      "start": 95.4229,
      "duration": 0.2322,
      "velocity": 89,
      "chip": "ym2612"
    },
    {
      "channel": 2,
      "note": 86,
      "start": 95.5464,
      "duration": 0.8644,
      "velocity": 111,
      "chip": "ym2612"
    },
    {
      "channel": 4,
      "note": 59,
      "start": 95.6551,
      "duration": 0.4788,
      "velocity": 89,
      "chip": "ym2612"
    },
    {
      "channel": 0,
      "note": 74,
      "start": 96.1328,
      "duration": 0.3857,
      "velocity": 91,
      "chip": "ym2612"
    },
    {
      "channel": 1,
      "note": 78,
      "start": 96.133,
      "duration": 0.3859,
      "velocity": 91,
      "chip": "ym2612"
    },
    {
      "channel": 3,
      "note": 86,
      "start": 96.1336,
      "duration": 0.3857,
      "velocity": 111,
      "chip": "ym2612"
    },
    {
      "channel": 4,
      "note": 62,
      "start": 96.134,
      "duration": 0.4628,
      "velocity": 89,
      "chip": "ym2612"
    },
    {
      "channel": 5,
      "note": 52,
      "start": 96.1341,
      "duration": 0.4007,
      "velocity": 97,
      "chip": "ym2612"
    },
    {
      "channel": 2,
      "note": 86,
      "start": 96.4881,
      "duration": 0.3858,
      "velocity": 111,
      "chip": "ym2612"
    },
    {
      "channel": 0,
      "note": 73,
      "start": 96.5957,
      "duration": 0.6332,
      "velocity": 91,
      "chip": "ym2612"
    },
    {
      "channel": 1,
      "note": 76,
      "start": 96.5961,
      "duration": 0.6331,
      "velocity": 91,
      "chip": "ym2612"
    },
    {
      "channel": 3,
      "note": 85,
      "start": 96.5966,
      "duration": 0.6331,
      "velocity": 111,
      "chip": "ym2612"
    },
    {
      "channel": 4,
      "note": 61,
      "start": 96.5968,
      "duration": 1.4207,
      "velocity": 89,
      "chip": "ym2612"
    },
    {
      "channel": 5,
      "note": 52,
      "start": 96.5971,
      "duration": 0.8331,
      "velocity": 97,
      "chip": "ym2612"
    },
    {
      "channel": 2,
      "note": 85,
      "start": 96.9512,
      "duration": 0.6327,
      "velocity": 111,
      "chip": "ym2612"
    },
    {
      "channel": 0,
      "note": 71,
      "start": 97.3061,
      "duration": 0.1542,
      "velocity": 91,
      "chip": "ym2612"
    },
    {
      "channel": 1,
      "note": 74,
      "start": 97.3064,
      "duration": 0.1541,
      "velocity": 91,
      "chip": "ym2612"
    },
    {
      "channel": 3,
      "note": 83,
      "start": 97.3068,
      "duration": 0.1541,
      "velocity": 111,
      "chip": "ym2612"
    },
    {
      "channel": 0,
      "note": 69,
      "start": 97.5376,
      "duration": 0.4017,
      "velocity": 91,
      "chip": "ym2612"
    },
    {
      "channel": 1,
      "note": 73,
      "start": 97.5379,
      "duration": 0.4017,
      "velocity": 91,
      "chip": "ym2612"
    },
    {
      "channel": 3,
      "note": 81,
      "start": 97.5384,
      "duration": 0.4015,
      "velocity": 111,
      "chip": "ym2612"
    },
    {
      "channel": 5,
      "note": 52,
      "start": 97.5386,
      "duration": 0.4168,
      "velocity": 97,
      "chip": "ym2612"
    },
    {
      "channel": 2,
      "note": 83,
      "start": 97.6612,
      "duration": 0.1546,
      "velocity": 111,
      "chip": "ym2612"
    },
    {
      "channel": 2,
      "note": 81,
      "start": 97.8931,
      "duration": 0.4017,
      "velocity": 111,
      "chip": "ym2612"
    },
    {
      "channel": 0,
      "note": 71,
      "start": 98.0166,
      "duration": 2.2707,
      "velocity": 91,
      "chip": "ym2612"
    },
    {
      "channel": 1,
      "note": 74,
      "start": 98.017,
      "duration": 2.2705,
      "velocity": 91,
      "chip": "ym2612"
    },
    {
      "channel": 3,
      "note": 83,
      "start": 98.0173,
      "duration": 2.2707,
      "velocity": 111,
      "chip": "ym2612"
    },
    {
      "channel": 4,
      "note": 54,
      "start": 98.0177,
      "duration": 0.2312,
      "velocity": 89,
      "chip": "ym2612"
    },
    {
      "channel": 5,
      "note": 52,
      "start": 98.0178,
      "duration": 0.8186,
      "velocity": 97,
      "chip": "ym2612"
    },
    {
      "channel": 4,
      "note": 55,
      "start": 98.249,
      "duration": 0.2316,
      "velocity": 89,
      "chip": "ym2612"
    },
    {
      "channel": 2,
      "note": 83,
      "start": 98.3721,
      "duration": 2.2702,
      "velocity": 111,
      "chip": "ym2612"
    },
    {
      "channel": 4,
      "note": 59,
      "start": 98.4806,
      "duration": 0.4795,
      "velocity": 89,
      "chip": "ym2612"
    },
    {
      "channel": 4,
      "note": 64,
      "start": 98.96,
      "duration": 0.463,
      "velocity": 89,
      "chip": "ym2612"
    },
    {
      "channel": 5,
      "note": 52,
      "start": 98.9602,
      "duration": 0.4166,
      "velocity": 97,
      "chip": "ym2612"
    },
    {
      "channel": 4,
      "note": 61,
      "start": 99.4232,
      "duration": 0.4788,
      "velocity": 89,
      "chip": "ym2612"
    },
    {
      "channel": 5,
      "note": 52,
      "start": 99.4233,
      "duration": 0.8339,
      "velocity": 97,
      "chip": "ym2612"
    },
    {
      "channel": 4,
      "note": 66,
      "start": 99.902,
      "duration": 0.9415,
      "velocity": 89,
      "chip": "ym2612"
    },
    {
      "channel": 3,
      "note": 83,
      "start": 100.3651,
      "duration": 0.1695,
      "velocity": 111,
      "chip": "ym2612"
    },
    {
      "channel": 5,
      "note": 52,
      "start": 100.3654,
      "duration": 0.416,
      "velocity": 97,
      "chip": "ym2612"
    },
    {
      "channel": 3,
      "note": 85,
      "start": 100.6117,
      "duration": 0.154,
      "velocity": 111,
      "chip": "ym2612"
    },
    {
      "channel": 2,
      "note": 83,
      "start": 100.7196,
      "duration": 0.1537,
      "velocity": 111,
      "chip": "ym2612"
    },
    {
      "channel": 0,
      "note": 74,
      "start": 100.8424,
      "duration": 0.8651,
      "velocity": 91,
      "chip": "ym2612"
    },
    {
      "channel": 1,
      "note": 78,
      "start": 100.8427,
      "duration": 0.865,
      "velocity": 91,
      "chip": "ym2612"
    },
    {
      "channel": 3,
      "note": 86,
      "start": 100.8431,
      "duration": 0.8651,
      "velocity": 111,
      "chip": "ym2612"
    },
    {
      "channel": 4,
      "note": 54,
      "start": 100.8435,
      "duration": 0.2315,
      "velocity": 89,
      "chip": "ym2612"
    },
    {
      "channel": 5,
      "note": 52,
      "start": 100.8436,
      "duration": 0.8185,
      "velocity": 97,
      "chip": "ym2612"
    },
    {
      "channel": 2,
      "note": 85,
      "start": 100.9507,
      "duration": 0.1702,
      "velocity": 111,
      "chip": "ym2612"
    },
    {
      "channel": 4,
      "note": 55,
      "start": 101.0751,
      "duration": 0.2317,
      "velocity": 89,
      "chip": "ym2612"
    },
    {
      "channel": 2,
      "note": 86,
      "start": 101.1983,
      "duration": 0.8644,
      "velocity": 111,
      "chip": "ym2612"
    },
    {
      "channel": 4,
      "note": 59,
      "start": 101.3068,
      "duration": 0.479,
      "velocity": 89,
      "chip": "ym2612"
    },
    {
      "channel": 0,
      "note": 74,
      "start": 101.7847,
      "duration": 0.3856,
      "velocity": 91,
      "chip": "ym2612"
    },
    {
      "channel": 1,
      "note": 78,
      "start": 101.7849,
      "duration": 0.3857,
      "velocity": 91,
      "chip": "ym2612"
    },
    {
      "channel": 3,
      "note": 86,
      "start": 101.7855,
      "duration": 0.3855,
      "velocity": 111,
      "chip": "ym2612"
    },
    {
      "channel": 4,
      "note": 62,
      "start": 101.7859,
      "duration": 0.4627,
      "velocity": 89,
      "chip": "ym2612"
    },
    {
      "channel": 5,
      "note": 52,
      "start": 101.7859,
      "duration": 0.416,
      "velocity": 97,
      "chip": "ym2612"
    },
    {
      "channel": 2,
      "note": 86,
      "start": 102.1399,
      "duration": 0.3858,
      "velocity": 111,
      "chip": "ym2612"
    },
    {
      "channel": 0,
      "note": 73,
      "start": 102.2474,
      "duration": 0.4016,
      "velocity": 91,
      "chip": "ym2612"
    },
    {
      "channel": 1,
      "note": 76,
      "start": 102.2478,
      "duration": 0.4015,
      "velocity": 91,
      "chip": "ym2612"
    },
    {
      "channel": 3,
      "note": 85,
      "start": 102.2483,
      "duration": 0.4784,
      "velocity": 111,
      "chip": "ym2612"
    },
    {
      "channel": 4,
      "note": 61,
      "start": 102.2486,
      "duration": 1.4207,
      "velocity": 89,
      "chip": "ym2612"
    },
    {
      "channel": 5,
      "note": 52,
      "start": 102.2489,
      "duration": 0.8336,
      "velocity": 97,
      "chip": "ym2612"
    },
    {
      "channel": 2,
      "note": 85,
      "start": 102.6031,
      "duration": 0.4788,
      "velocity": 111,
      "chip": "ym2612"
    },
    {
      "channel": 0,
      "note": 76,
      "start": 102.726,
      "duration": 0.1545,
      "velocity": 91,
      "chip": "ym2612"
    },
    {
      "channel": 1,
      "note": 79,
      "start": 102.7264,
      "duration": 0.1543,
      "velocity": 91,
      "chip": "ym2612"
    },
    {
      "channel": 3,
      "note": 88,
      "start": 102.7268,
      "duration": 0.2319,
      "velocity": 111,
      "chip": "ym2612"
    },
    {
      "channel": 2,
      "note": 88,
      "start": 103.0819,
      "duration": 0.2317,
      "velocity": 111,
      "chip": "ym2612"
    },
    {
      "channel": 5,
      "note": 52,
      "start": 103.1905,
      "duration": 0.4165,
      "velocity": 97,
      "chip": "ym2612"
    },
    {
      "channel": 3,
      "note": 85,
      "start": 103.437,
      "duration": 0.1544,
      "velocity": 111,
      "chip": "ym2612"
    },
    {
      "channel": 0,
      "note": 71,
      "start": 103.668,
      "duration": 2.7505,
      "velocity": 91,
      "chip": "ym2612"
    },
    {
      "channel": 1,
      "note": 74,
      "start": 103.6684,
      "duration": 2.7502,
      "velocity": 91,
      "chip": "ym2612"
    },
    {
      "channel": 3,
      "note": 83,
      "start": 103.669,
      "duration": 2.7502,
      "velocity": 111,
      "chip": "ym2612"
    },
    {
      "channel": 4,
      "note": 54,
      "start": 103.6693,
      "duration": 0.2312,
      "velocity": 89,
      "chip": "ym2612"
    },
    {
      "channel": 5,
      "note": 52,
      "start": 103.6695,
      "duration": 0.8191,
      "velocity": 97,
      "chip": "ym2612"
    },
    {
      "channel": 2,
      "note": 85,
      "start": 103.7915,
      "duration": 0.1548,
      "velocity": 111,
      "chip": "ym2612"
    },
    {
      "channel": 4,
      "note": 55,
      "start": 103.9005,
      "duration": 0.232,
      "velocity": 89,
      "chip": "ym2612"
    },
    {
      "channel": 2,
      "note": 83,
      "start": 104.024,
      "duration": 2.7505,
      "velocity": 111,
      "chip": "ym2612"
    },
    {
      "channel": 4,
      "note": 59,
      "start": 104.1325,
      "duration": 0.4794,
      "velocity": 89,
      "chip": "ym2612"
    },
    {
      "channel": 4,
      "note": 62,
      "start": 104.612,
      "duration": 0.4635,
      "velocity": 89,
      "chip": "ym2612"
    },
    {
      "channel": 5,
      "note": 52,
      "start": 104.6121,
      "duration": 0.417,
      "velocity": 97,
      "chip": "ym2612"
    },
    {
      "channel": 4,
      "note": 61,
      "start": 105.0755,
      "duration": 0.4787,
      "velocity": 89,
      "chip": "ym2612"
    },
    {
      "channel": 5,
      "note": 52,
      "start": 105.0758,
      "duration": 0.8338,
      "velocity": 97,
      "chip": "ym2612"
    },
    {
      "channel": 4,
      "note": 57,
      "start": 105.5543,
      "duration": 0.9479,
      "velocity": 89,
      "chip": "ym2612"
    },
    {
      "channel": 5,
      "note": 52,
      "start": 106.0175,
      "duration": 0.4173,
      "velocity": 97,
      "chip": "ym2612"
    },
    {
      "channel": 0,
      "note": 47,
      "start": 106.4983,
      "duration": 10.7636,
      "velocity": 107,
      "chip": "ym2612"
    },
    {
      "channel": 1,
      "note": 47,
      "start": 106.5003,
      "duration": 10.762,
      "velocity": 107,
      "chip": "ym2612"
    },
    {
      "channel": 4,
      "note": 54,
      "start": 106.5022,
      "duration": 0.2264,
      "velocity": 89,
      "chip": "ym2612"
    },
    {
      "channel": 5,
      "note": 52,
      "start": 106.5023,
      "duration": 0.8128,
      "velocity": 97,
      "chip": "ym2612"
    },
    {
      "channel": 3,
      "note": 54,
      "start": 106.6201,
      "duration": 0.2321,
      "velocity": 89,
      "chip": "ym2612"
    },
    {
      "channel": 4,
      "note": 55,
      "start": 106.7286,
      "duration": 0.2316,
      "velocity": 89,
      "chip": "ym2612"
    },
    {
      "channel": 3,
      "note": 55,
      "start": 106.8522,
      "duration": 0.2316,
      "velocity": 89,
      "chip": "ym2612"
    },
    {
      "channel": 4,
      "note": 59,
      "start": 106.9602,
      "duration": 0.4785,
      "velocity": 89,
      "chip": "ym2612"
    },
    {
      "channel": 3,
      "note": 59,
      "start": 107.0838,
      "duration": 0.4781,
      "velocity": 89,
      "chip": "ym2612"
    },
    {
      "channel": 4,
      "note": 62,
      "start": 107.4388,
      "duration": 0.4627,
      "velocity": 89,
      "chip": "ym2612"
    },
    {
      "channel": 5,
      "note": 52,
      "start": 107.4389,
      "duration": 0.4165,
      "velocity": 97,
      "chip": "ym2612"
    },
    {
      "channel": 3,
      "note": 62,
      "start": 107.562,
      "duration": 0.4631,
      "velocity": 89,
      "chip": "ym2612"
    },
    {
      "channel": 4,
      "note": 61,
      "start": 107.9015,
      "duration": 1.4212,
      "velocity": 89,
      "chip": "ym2612"
    },
    {
      "channel": 5,
      "note": 52,
      "start": 107.9017,
      "duration": 0.8336,
      "velocity": 97,
      "chip": "ym2612"
    },
    {
      "channel": 3,
      "note": 61,
      "start": 108.0252,
      "duration": 1.421,
      "velocity": 89,
      "chip": "ym2612"
    },
    {
      "channel": 5,
      "note": 52,
      "start": 108.8591,
      "duration": 0.4021,
      "velocity": 97,
      "chip": "ym2612"
    },
    {
      "channel": 4,
      "note": 54,
      "start": 109.3227,
      "duration": 0.2319,
      "velocity": 89,
      "chip": "ym2612"
    },
    {
      "channel": 5,
      "note": 52,
      "start": 109.323,
      "duration": 0.8186,
      "velocity": 97,
      "chip": "ym2612"
    },
    {
      "channel": 3,
      "note": 54,
      "start": 109.4463,
      "duration": 0.2315,
      "velocity": 89,
      "chip": "ym2612"
    },
    {
      "channel": 4,
      "note": 55,
      "start": 109.5546,
      "duration": 0.2471,
      "velocity": 89,
      "chip": "ym2612"
    },
    {
      "channel": 3,
      "note": 55,
      "start": 109.6779,
      "duration": 0.2319,
      "velocity": 89,
      "chip": "ym2612"
    },
    {
      "channel": 4,
      "note": 59,
      "start": 109.8017,
      "duration": 0.4637,
      "velocity": 89,
      "chip": "ym2612"
    },
    {
      "channel": 3,
      "note": 59,
      "start": 109.9099,
      "duration": 0.4787,
      "velocity": 89,
      "chip": "ym2612"
    },
    {
      "channel": 4,
      "note": 64,
      "start": 110.2654,
      "duration": 0.4787,
      "velocity": 89,
      "chip": "ym2612"
    },
    {
      "channel": 5,
      "note": 52,
      "start": 110.2656,
      "duration": 0.4167,
      "velocity": 97,
      "chip": "ym2612"
    },
    {
      "channel": 3,
      "note": 64,
      "start": 110.3887,
      "duration": 0.4637,
      "velocity": 89,
      "chip": "ym2612"
    },
    {
      "channel": 4,
      "note": 61,
      "start": 110.7442,
      "duration": 0.4634,
      "velocity": 89,
      "chip": "ym2612"
    },
    {
      "channel": 5,
      "note": 52,
      "start": 110.7443,
      "duration": 0.8179,
      "velocity": 97,
      "chip": "ym2612"
    },
    {
      "channel": 3,
      "note": 61,
      "start": 110.8523,
      "duration": 0.4783,
      "velocity": 89,
      "chip": "ym2612"
    },
    {
      "channel": 4,
      "note": 66,
      "start": 111.2077,
      "duration": 0.9419,
      "velocity": 89,
      "chip": "ym2612"
    },
    {
      "channel": 3,
      "note": 66,
      "start": 111.3307,
      "duration": 0.942,
      "velocity": 89,
      "chip": "ym2612"
    },
    {
      "channel": 5,
      "note": 52,
      "start": 111.6855,
      "duration": 0.4021,
      "velocity": 97,
      "chip": "ym2612"
    },
    {
      "channel": 4,
      "note": 54,
      "start": 112.1495,
      "duration": 0.2313,
      "velocity": 89,
      "chip": "ym2612"
    },
    {
      "channel": 5,
      "note": 52,
      "start": 112.1498,
      "duration": 0.8175,
      "velocity": 97,
      "chip": "ym2612"
    },
    {
      "channel": 3,
      "note": 54,
      "start": 112.2728,
      "duration": 0.2315,
      "velocity": 89,
      "chip": "ym2612"
    },
    {
      "channel": 4,
      "note": 55,
      "start": 112.381,
      "duration": 0.2469,
      "velocity": 89,
      "chip": "ym2612"
    },
    {
      "channel": 3,
      "note": 55,
      "start": 112.5043,
      "duration": 0.2314,
      "velocity": 89,
      "chip": "ym2612"
    },
    {
      "channel": 4,
      "note": 59,
      "start": 112.6279,
      "duration": 0.4633,
      "velocity": 89,
      "chip": "ym2612"
    },
    {
      "channel": 3,
      "note": 59,
      "start": 112.7358,
      "duration": 0.4788,
      "velocity": 89,
      "chip": "ym2612"
    },
    {
      "channel": 4,
      "note": 62,
      "start": 113.0912,
      "duration": 0.4784,
      "velocity": 89,
      "chip": "ym2612"
    },
    {
      "channel": 5,
      "note": 52,
      "start": 113.0914,
      "duration": 0.4165,
      "velocity": 97,
      "chip": "ym2612"
    },
    {
      "channel": 3,
      "note": 62,
      "start": 113.2146,
      "duration": 0.4636,
      "velocity": 89,
      "chip": "ym2612"
    },
    {
      "channel": 4,
      "note": 61,
      "start": 113.5697,
      "duration": 1.4065,
      "velocity": 89,
      "chip": "ym2612"
    },
    {
      "channel": 5,
      "note": 52,
      "start": 113.5698,
      "duration": 0.8196,
      "velocity": 97,
      "chip": "ym2612"
    },
    {
      "channel": 3,
      "note": 61,
      "start": 113.6781,
      "duration": 1.4217,
      "velocity": 89,
      "chip": "ym2612"
    },
    {
      "channel": 5,
      "note": 52,
      "start": 114.5128,
      "duration": 0.4017,
      "velocity": 97,
      "chip": "ym2612"
    },
    {
      "channel": 4,
      "note": 54,
      "start": 114.9762,
      "duration": 0.2322,
      "velocity": 89,
      "chip": "ym2612"
    },
    {
      "channel": 5,
      "note": 52,
      "start": 114.9765,
      "duration": 0.8343,
      "velocity": 97,
      "chip": "ym2612"
    },
    {
      "channel": 3,
      "note": 54,
      "start": 115.0999,
      "duration": 0.232,
      "velocity": 89,
      "chip": "ym2612"
    },
    {
      "channel": 4,
      "note": 55,
      "start": 115.2085,
      "duration": 0.2473,
      "velocity": 89,
      "chip": "ym2612"
    },
    {
      "channel": 3,
      "note": 55,
      "start": 115.3319,
      "duration": 0.2318,
      "velocity": 89,
      "chip": "ym2612"
    },
    {
      "channel": 4,
      "note": 59,
      "start": 115.4558,
      "duration": 0.4631,
      "velocity": 89,
      "chip": "ym2612"
    },
    {
      "channel": 3,
      "note": 59,
      "start": 115.5637,
      "duration": 0.4788,
      "velocity": 89,
      "chip": "ym2612"
    },
    {
      "channel": 4,
      "note": 62,
      "start": 115.9189,
      "duration": 0.4786,
      "velocity": 89,
      "chip": "ym2612"
    },
    {
      "channel": 5,
      "note": 52,
      "start": 115.919,
      "duration": 0.4168,
      "velocity": 97,
      "chip": "ym2612"
    },
    {
      "channel": 3,
      "note": 62,
      "start": 116.0424,
      "duration": 0.4631,
      "velocity": 89,
      "chip": "ym2612"
    },
    {
      "channel": 4,
      "note": 61,
      "start": 116.3976,
      "duration": 0.4633,
      "velocity": 89,
      "chip": "ym2612"
    },
    {
      "channel": 5,
      "note": 52,
      "start": 116.3977,
      "duration": 0.8188,
      "velocity": 97,
      "chip": "ym2612"
    },
    {
      "channel": 3,
      "note": 61,
      "start": 116.5055,
      "duration": 0.4791,
      "velocity": 89,
      "chip": "ym2612"
    },
    {
      "channel": 4,
      "note": 57,
      "start": 116.8609,
      "duration": 0.9419,
      "velocity": 89,
      "chip": "ym2612"
    },
    {
      "channel": 3,
      "note": 57,
      "start": 116.9847,
      "duration": 0.3575,
      "velocity": 1,
      "chip": "ym2612"
    },
    {
      "channel": 1,
      "note": 83,
      "start": 117.3417,
      "duration": 0.383,
      "velocity": 127,
      "chip": "ym2612"
    },
    {
      "channel": 3,
      "note": 71,
      "start": 117.3435,
      "duration": 0.3815,
      "velocity": 94,
      "chip": "ym2612"
    },
    {
      "channel": 5,
      "note": 52,
      "start": 117.3437,
      "duration": 0.397,
      "velocity": 97,
      "chip": "ym2612"
    },
    {
      "channel": 0,
      "note": 83,
      "start": 117.4492,
      "duration": 0.3988,
      "velocity": 127,
      "chip": "ym2612"
    },
    {
      "channel": 2,
      "note": 71,
      "start": 117.6961,
      "duration": 0.3837,
      "velocity": 94,
      "chip": "ym2612"
    },
    {
      "channel": 1,
      "note": 88,
      "start": 117.802,
      "duration": 0.6327,
      "velocity": 127,
      "chip": "ym2612"
    },
    {
      "channel": 3,
      "note": 76,
      "start": 117.8026,
      "duration": 0.6325,
      "velocity": 94,
      "chip": "ym2612"
    },
    {
      "channel": 4,
      "note": 54,
      "start": 117.8029,
      "duration": 0.2313,
      "velocity": 89,
      "chip": "ym2612"
    },
    {
      "channel": 5,
      "note": 52,
      "start": 117.8031,
      "duration": 0.8335,
      "velocity": 97,
      "chip": "ym2612"
    },
    {
      "channel": 0,
      "note": 88,
      "start": 117.9255,
      "duration": 0.6173,
      "velocity": 127,
      "chip": "ym2612"
    },
    {
      "channel": 4,
      "note": 55,
      "start": 118.0342,
      "duration": 0.2469,
      "velocity": 89,
      "chip": "ym2612"
    },
    {
      "channel": 2,
      "note": 76,
      "start": 118.1574,
      "duration": 0.6329,
      "velocity": 94,
      "chip": "ym2612"
    },
    {
      "channel": 4,
      "note": 59,
      "start": 118.2812,
      "duration": 0.4641,
      "velocity": 89,
      "chip": "ym2612"
    },
    {
      "channel": 1,
      "note": 90,
      "start": 118.5123,
      "duration": 0.1542,
      "velocity": 127,
      "chip": "ym2612"
    },
    {
      "channel": 3,
      "note": 78,
      "start": 118.5127,
      "duration": 0.1541,
      "velocity": 94,
      "chip": "ym2612"
    },
    {
      "channel": 0,
      "note": 90,
      "start": 118.6358,
      "duration": 0.1541,
      "velocity": 127,
      "chip": "ym2612"
    },
    {
      "channel": 1,
      "note": 88,
      "start": 118.7443,
      "duration": 0.401,
      "velocity": 127,
      "chip": "ym2612"
    },
    {
      "channel": 3,
      "note": 76,
      "start": 118.7449,
      "duration": 0.4008,
      "velocity": 94,
      "chip": "ym2612"
    },
    {
      "channel": 4,
      "note": 62,
      "start": 118.7453,
      "duration": 0.4782,
      "velocity": 89,
      "chip": "ym2612"
    },
    {
      "channel": 5,
      "note": 52,
      "start": 118.7454,
      "duration": 0.416,
      "velocity": 97,
      "chip": "ym2612"
    },
    {
      "channel": 0,
      "note": 88,
      "start": 118.8675,
      "duration": 0.3857,
      "velocity": 127,
      "chip": "ym2612"
    },
    {
      "channel": 2,
      "note": 78,
      "start": 118.868,
      "duration": 0.1537,
      "velocity": 94,
      "chip": "ym2612"
    },
    {
      "channel": 2,
      "note": 76,
      "start": 119.0994,
      "duration": 0.3857,
      "velocity": 94,
      "chip": "ym2612"
    },
    {
      "channel": 1,
      "note": 86,
      "start": 119.2227,
      "duration": 0.7406,
      "velocity": 127,
      "chip": "ym2612"
    },
    {
      "channel": 3,
      "note": 74,
      "start": 119.2232,
      "duration": 0.7406,
      "velocity": 94,
      "chip": "ym2612"
    },
    {
      "channel": 4,
      "note": 61,
      "start": 119.2236,
      "duration": 1.4044,
      "velocity": 89,
      "chip": "ym2612"
    },
    {
      "channel": 5,
      "note": 52,
      "start": 119.2237,
      "duration": 0.8173,
      "velocity": 97,
      "chip": "ym2612"
    },
    {
      "channel": 0,
      "note": 86,
      "start": 119.3306,
      "duration": 0.7559,
      "velocity": 127,
      "chip": "ym2612"
    },
    {
      "channel": 2,
      "note": 74,
      "start": 119.5779,
      "duration": 0.7402,
      "velocity": 94,
      "chip": "ym2612"
    },
    {
      "channel": 1,
      "note": 83,
      "start": 120.1643,
      "duration": 0.3855,
      "velocity": 127,
      "chip": "ym2612"
    },
    {
      "channel": 3,
      "note": 71,
      "start": 120.1647,
      "duration": 0.3855,
      "velocity": 94,
      "chip": "ym2612"
    },
    {
      "channel": 5,
      "note": 52,
      "start": 120.165,
      "duration": 0.4008,
      "velocity": 97,
      "chip": "ym2612"
    },
    {
      "channel": 0,
      "note": 83,
      "start": 120.2719,
      "duration": 0.401,
      "velocity": 127,
      "chip": "ym2612"
    },
    {
      "channel": 2,
      "note": 71,
      "start": 120.5189,
      "duration": 0.3857,
      "velocity": 94,
      "chip": "ym2612"
    },
    {
      "channel": 1,
      "note": 88,
      "start": 120.6272,
      "duration": 0.6322,
      "velocity": 127,
      "chip": "ym2612"
    },
    {
      "channel": 3,
      "note": 76,
      "start": 120.6276,
      "duration": 0.6322,
      "velocity": 94,
      "chip": "ym2612"
    },
    {
      "channel": 4,
      "note": 54,
      "start": 120.628,
      "duration": 0.2308,
      "velocity": 89,
      "chip": "ym2612"
    },
    {
      "channel": 5,
      "note": 52,
      "start": 120.6282,
      "duration": 0.8326,
      "velocity": 97,
      "chip": "ym2612"
    },
    {
      "channel": 0,
      "note": 88,
      "start": 120.7506,
      "duration": 0.6322,
      "velocity": 127,
      "chip": "ym2612"
    },
    {
      "channel": 4,
      "note": 55,
      "start": 120.8588,
      "duration": 0.247,
      "velocity": 89,
      "chip": "ym2612"
    },
    {
      "channel": 2,
      "note": 76,
      "start": 120.9821,
      "duration": 0.6322,
      "velocity": 94,
      "chip": "ym2612"
    },
    {
      "channel": 4,
      "note": 59,
      "start": 121.1059,
      "duration": 0.4632,
      "velocity": 89,
      "chip": "ym2612"
    },
    {
      "channel": 1,
      "note": 90,
      "start": 121.3369,
      "duration": 0.1539,
      "velocity": 127,
      "chip": "ym2612"
    },
    {
      "channel": 3,
      "note": 78,
      "start": 121.3373,
      "duration": 0.1537,
      "velocity": 94,
      "chip": "ym2612"
    },
    {
      "channel": 0,
      "note": 90,
      "start": 121.46,
      "duration": 0.1539,
      "velocity": 127,
      "chip": "ym2612"
    },
    {
      "channel": 1,
      "note": 91,
      "start": 121.5682,
      "duration": 0.4008,
      "velocity": 127,
      "chip": "ym2612"
    },
    {
      "channel": 3,
      "note": 79,
      "start": 121.5688,
      "duration": 0.4006,
      "velocity": 94,
      "chip": "ym2612"
    },
    {
      "channel": 4,
      "note": 64,
      "start": 121.5692,
      "duration": 0.478,
      "velocity": 89,
      "chip": "ym2612"
    },
    {
      "channel": 5,
      "note": 52,
      "start": 121.5693,
      "duration": 0.4158,
      "velocity": 97,
      "chip": "ym2612"
    },
    {
      "channel": 0,
      "note": 91,
      "start": 121.6917,
      "duration": 0.3852,
      "velocity": 127,
      "chip": "ym2612"
    },
    {
      "channel": 2,
      "note": 78,
      "start": 121.6922,
      "duration": 0.1536,
      "velocity": 94,
      "chip": "ym2612"
    },
    {
      "channel": 2,
      "note": 79,
      "start": 121.9232,
      "duration": 0.4007,
      "velocity": 94,
      "chip": "ym2612"
    },
    {
      "channel": 1,
      "note": 93,
      "start": 122.0464,
      "duration": 0.7407,
      "velocity": 127,
      "chip": "ym2612"
    },
    {
      "channel": 3,
      "note": 81,
      "start": 122.0469,
      "duration": 0.7407,
      "velocity": 94,
      "chip": "ym2612"
    },
    {
      "channel": 4,
      "note": 61,
      "start": 122.0473,
      "duration": 0.4627,
      "velocity": 89,
      "chip": "ym2612"
    },
    {
      "channel": 5,
      "note": 52,
      "start": 122.0474,
      "duration": 0.8175,
      "velocity": 97,
      "chip": "ym2612"
    },
    {
      "channel": 0,
      "note": 93,
      "start": 122.1542,
      "duration": 0.756,
      "velocity": 127,
      "chip": "ym2612"
    },
    {
      "channel": 2,
      "note": 81,
      "start": 122.4015,
      "duration": 0.7411,
      "velocity": 94,
      "chip": "ym2612"
    },
    {
      "channel": 4,
      "note": 66,
      "start": 122.51,
      "duration": 0.9422,
      "velocity": 89,
      "chip": "ym2612"
    },
    {
      "channel": 1,
      "note": 83,
      "start": 122.9881,
      "duration": 0.386,
      "velocity": 127,
      "chip": "ym2612"
    },
    {
      "channel": 3,
      "note": 71,
      "start": 122.9886,
      "duration": 0.3859,
      "velocity": 94,
      "chip": "ym2612"
    },
    {
      "channel": 5,
      "note": 52,
      "start": 122.9888,
      "duration": 0.4014,
      "velocity": 97,
      "chip": "ym2612"
    },
    {
      "channel": 0,
      "note": 83,
      "start": 123.0961,
      "duration": 0.4011,
      "velocity": 127,
      "chip": "ym2612"
    },
    {
      "channel": 2,
      "note": 71,
      "start": 123.3433,
      "duration": 0.3857,
      "velocity": 94,
      "chip": "ym2612"
    },
    {
      "channel": 1,
      "note": 88,
      "start": 123.4515,
      "duration": 0.6319,
      "velocity": 127,
      "chip": "ym2612"
    },
    {
      "channel": 3,
      "note": 76,
      "start": 123.452,
      "duration": 0.6317,
      "velocity": 94,
      "chip": "ym2612"
    },
    {
      "channel": 4,
      "note": 54,
      "start": 123.4523,
      "duration": 0.2462,
      "velocity": 89,
      "chip": "ym2612"
    },
    {
      "channel": 5,
      "note": 52,
      "start": 123.4525,
      "duration": 0.8324,
      "velocity": 97,
      "chip": "ym2612"
    },
    {
      "channel": 0,
      "note": 88,
      "start": 123.5746,
      "duration": 0.632,
      "velocity": 127,
      "chip": "ym2612"
    },
    {
      "channel": 4,
      "note": 55,
      "start": 123.6986,
      "duration": 0.2314,
      "velocity": 89,
      "chip": "ym2612"
    },
    {
      "channel": 2,
      "note": 76,
      "start": 123.8062,
      "duration": 0.6324,
      "velocity": 94,
      "chip": "ym2612"
    },
    {
      "channel": 4,
      "note": 59,
      "start": 123.93,
      "duration": 0.4632,
      "velocity": 89,
      "chip": "ym2612"
    },
    {
      "channel": 1,
      "note": 90,
      "start": 124.1607,
      "duration": 0.154,
      "velocity": 127,
      "chip": "ym2612"
    },
    {
      "channel": 3,
      "note": 78,
      "start": 124.161,
      "duration": 0.1539,
      "velocity": 94,
      "chip": "ym2612"
    },
    {
      "channel": 0,
      "note": 90,
      "start": 124.2841,
      "duration": 0.1541,
      "velocity": 127,
      "chip": "ym2612"
    },
    {
      "channel": 1,
      "note": 91,
      "start": 124.3923,
      "duration": 0.4014,
      "velocity": 127,
      "chip": "ym2612"
    },
    {
      "channel": 3,
      "note": 79,
      "start": 124.3929,
      "duration": 0.4012,
      "velocity": 94,
      "chip": "ym2612"
    },
    {
      "channel": 4,
      "note": 62,
      "start": 124.3933,
      "duration": 0.4787,
      "velocity": 89,
      "chip": "ym2612"
    },
    {
      "channel": 5,
      "note": 52,
      "start": 124.3934,
      "duration": 0.4163,
      "velocity": 97,
      "chip": "ym2612"
    },
    {
      "channel": 0,
      "note": 91,
      "start": 124.5157,
      "duration": 0.3858,
      "velocity": 127,
      "chip": "ym2612"
    },
    {
      "channel": 2,
      "note": 78,
      "start": 124.5163,
      "duration": 0.1537,
      "velocity": 94,
      "chip": "ym2612"
    },
    {
      "channel": 2,
      "note": 79,
      "start": 124.7477,
      "duration": 0.4011,
      "velocity": 94,
      "chip": "ym2612"
    },
    {
      "channel": 1,
      "note": 90,
      "start": 124.8711,
      "duration": 0.6172,
      "velocity": 127,
      "chip": "ym2612"
    },
    {
      "channel": 3,
      "note": 78,
      "start": 124.8716,
      "duration": 0.6171,
      "velocity": 94,
      "chip": "ym2612"
    },
    {
      "channel": 4,
      "note": 61,
      "start": 124.8719,
      "duration": 1.4051,
      "velocity": 89,
      "chip": "ym2612"
    },
    {
      "channel": 5,
      "note": 52,
      "start": 124.8721,
      "duration": 0.818,
      "velocity": 97,
      "chip": "ym2612"
    },
    {
      "channel": 0,
      "note": 90,
      "start": 124.9789,
      "duration": 0.633,
      "velocity": 127,
      "chip": "ym2612"
    },
    {
      "channel": 2,
      "note": 78,
      "start": 125.2266,
      "duration": 0.6173,
      "velocity": 94,
      "chip": "ym2612"
    },
    {
      "channel": 1,
      "note": 93,
      "start": 125.5813,
      "duration": 0.1541,
      "velocity": 127,
      "chip": "ym2612"
    },
    {
      "channel": 3,
      "note": 81,
      "start": 125.5817,
      "duration": 0.1539,
      "velocity": 94,
      "chip": "ym2612"
    },
    {
      "channel": 0,
      "note": 93,
      "start": 125.6893,
      "duration": 0.1541,
      "velocity": 127,
      "chip": "ym2612"
    },
    {
      "channel": 1,
      "note": 90,
      "start": 125.8131,
      "duration": 0.386,
      "velocity": 127,
      "chip": "ym2612"
    },
    {
      "channel": 3,
      "note": 78,
      "start": 125.8137,
      "duration": 0.3858,
      "velocity": 94,
      "chip": "ym2612"
    },
    {
      "channel": 5,
      "note": 52,
      "start": 125.8139,
      "duration": 0.4166,
      "velocity": 97,
      "chip": "ym2612"
    },
    {
      "channel": 0,
      "note": 90,
      "start": 125.921,
      "duration": 0.4014,
      "velocity": 127,
      "chip": "ym2612"
    },
    {
      "channel": 2,
      "note": 81,
      "start": 125.9215,
      "duration": 0.1693,
      "velocity": 94,
      "chip": "ym2612"
    },
    {
      "channel": 2,
      "note": 78,
      "start": 126.1687,
      "duration": 0.3853,
      "velocity": 94,
      "chip": "ym2612"
    },
    {
      "channel": 1,
      "note": 88,
      "start": 126.2763,
      "duration": 0.8645,
      "velocity": 127,
      "chip": "ym2612"
    },
    {
      "channel": 3,
      "note": 76,
      "start": 126.2767,
      "duration": 0.8644,
      "velocity": 94,
      "chip": "ym2612"
    },
    {
      "channel": 4,
      "note": 54,
      "start": 126.2771,
      "duration": 0.2465,
      "velocity": 89,
      "chip": "ym2612"
    },
    {
      "channel": 5,
      "note": 52,
      "start": 126.2773,
      "duration": 0.8334,
      "velocity": 97,
      "chip": "ym2612"
    },
    {
      "channel": 0,
      "note": 88,
      "start": 126.3998,
      "duration": 0.8644,
      "velocity": 127,
      "chip": "ym2612"
    },
    {
      "channel": 4,
      "note": 55,
      "start": 126.5237,
      "duration": 0.2319,
      "velocity": 89,
      "chip": "ym2612"
    },
    {
      "channel": 2,
      "note": 76,
      "start": 126.6315,
      "duration": 0.8646,
      "velocity": 94,
      "chip": "ym2612"
    },
    {
      "channel": 4,
      "note": 59,
      "start": 126.7556,
      "duration": 0.4636,
      "velocity": 89,
      "chip": "ym2612"
    },
    {
      "channel": 1,
      "note": 86,
      "start": 127.2184,
      "duration": 0.4011,
      "velocity": 127,
      "chip": "ym2612"
    },
    {
      "channel": 3,
      "note": 74,
      "start": 127.2189,
      "duration": 0.4009,
      "velocity": 94,
      "chip": "ym2612"
    },
    {
      "channel": 4,
      "note": 62,
      "start": 127.2193,
      "duration": 0.4781,
      "velocity": 89,
      "chip": "ym2612"
    },
    {
      "channel": 5,
      "note": 52,
      "start": 127.2194,
      "duration": 0.4159,
      "velocity": 97,
      "chip": "ym2612"
    },
    {
      "channel": 0,
      "note": 86,
      "start": 127.3416,
      "duration": 0.3854,
      "velocity": 127,
      "chip": "ym2612"
    },
    {
      "channel": 2,
      "note": 74,
      "start": 127.5734,
      "duration": 0.4011,
      "velocity": 94,
      "chip": "ym2612"
    },
    {
      "channel": 1,
      "note": 83,
      "start": 127.6967,
      "duration": 0.7407,
      "velocity": 127,
      "chip": "ym2612"
    },
    {
      "channel": 3,
      "note": 71,
      "start": 127.6971,
      "duration": 0.7408,
      "velocity": 94,
      "chip": "ym2612"
    },
    {
      "channel": 4,
      "note": 61,
      "start": 127.6974,
      "duration": 0.4626,
      "velocity": 89,
      "chip": "ym2612"
    },
    {
      "channel": 5,
      "note": 52,
      "start": 127.6976,
      "duration": 0.8178,
      "velocity": 97,
      "chip": "ym2612"
    },
    {
      "channel": 0,
      "note": 83,
      "start": 127.8048,
      "duration": 0.7559,
      "velocity": 127,
      "chip": "ym2612"
    },
    {
      "channel": 2,
      "note": 71,
      "start": 128.0519,
      "duration": 0.7408,
      "velocity": 94,
      "chip": "ym2612"
    },
    {
      "channel": 4,
      "note": 57,
      "start": 128.1602,
      "duration": 0.9422,
      "velocity": 89,
      "chip": "ym2612"
    },
    {
      "channel": 1,
      "note": 83,
      "start": 128.6381,
      "duration": 0.3861,
      "velocity": 127,
      "chip": "ym2612"
    },
    {
      "channel": 3,
      "note": 71,
      "start": 128.6386,
      "duration": 0.3861,
      "velocity": 94,
      "chip": "ym2612"
    },
    {
      "channel": 5,
      "note": 52,
      "start": 128.6388,
      "duration": 0.4171,
      "velocity": 97,
      "chip": "ym2612"
    },
    {
      "channel": 0,
      "note": 83,
      "start": 128.7617,
      "duration": 0.3858,
      "velocity": 127,
      "chip": "ym2612"
    },
    {
      "channel": 2,
      "note": 71,
      "start": 128.9935,
      "duration": 0.3856,
      "velocity": 94,
      "chip": "ym2612"
    },
    {
      "channel": 1,
      "note": 88,
      "start": 129.1016,
      "duration": 0.6327,
      "velocity": 127,
      "chip": "ym2612"
    },
    {
      "channel": 3,
      "note": 76,
      "start": 129.1021,
      "duration": 0.6326,
      "velocity": 94,
      "chip": "ym2612"
    },
    {
      "channel": 4,
      "note": 54,
      "start": 129.1024,
      "duration": 0.2463,
      "velocity": 89,
      "chip": "ym2612"
    },
    {
      "channel": 5,
      "note": 52,
      "start": 129.1026,
      "duration": 0.8333,
      "velocity": 97,
      "chip": "ym2612"
    },
    {
      "channel": 0,
      "note": 88,
      "start": 129.2249,
      "duration": 0.633,
      "velocity": 127,
      "chip": "ym2612"
    },
    {
      "channel": 4,
      "note": 55,
      "start": 129.3488,
      "duration": 0.2319,
      "velocity": 89,
      "chip": "ym2612"
    },
    {
      "channel": 2,
      "note": 76,
      "start": 129.4566,
      "duration": 0.6334,
      "velocity": 94,
      "chip": "ym2612"
    },
    {
      "channel": 4,
      "note": 59,
      "start": 129.5808,
      "duration": 0.4638,
      "velocity": 89,
      "chip": "ym2612"
    },
    {
      "channel": 1,
      "note": 90,
      "start": 129.812,
      "duration": 0.1537,
      "velocity": 127,
      "chip": "ym2612"
    },
    {
      "channel": 3,
      "note": 78,
      "start": 129.8123,
      "duration": 0.1535,
      "velocity": 94,
      "chip": "ym2612"
    },
    {
      "channel": 0,
      "note": 90,
      "start": 129.9352,
      "duration": 0.1543,
      "velocity": 127,
      "chip": "ym2612"
    },
    {
      "channel": 1,
      "note": 88,
      "start": 130.0437,
      "duration": 0.4015,
      "velocity": 127,
      "chip": "ym2612"
    },
    {
      "channel": 3,
      "note": 76,
      "start": 130.0443,
      "duration": 0.4012,
      "velocity": 94,
      "chip": "ym2612"
    },
    {
      "channel": 4,
      "note": 62,
      "start": 130.0446,
      "duration": 0.4788,
      "velocity": 89,
      "chip": "ym2612"
    },
    {
      "channel": 5,
      "note": 52,
      "start": 130.0448,
      "duration": 0.4163,
      "velocity": 97,
      "chip": "ym2612"
    },
    {
      "channel": 0,
      "note": 88,
      "start": 130.1673,
      "duration": 0.3858,
      "velocity": 127,
      "chip": "ym2612"
    },
    {
      "channel": 2,
      "note": 78,
      "start": 130.1679,
      "duration": 0.1534,
      "velocity": 94,
      "chip": "ym2612"
    },
    {
      "channel": 2,
      "note": 76,
      "start": 130.399,
      "duration": 0.4015,
      "velocity": 94,
      "chip": "ym2612"
    },
    {
      "channel": 1,
      "note": 86,
      "start": 130.5227,
      "duration": 0.7405,
      "velocity": 127,
      "chip": "ym2612"
    },
    {
      "channel": 3,
      "note": 74,
      "start": 130.5231,
      "duration": 0.7407,
      "velocity": 94,
      "chip": "ym2612"
    },
    {
      "channel": 4,
      "note": 61,
      "start": 130.5235,
      "duration": 1.4041,
      "velocity": 89,
      "chip": "ym2612"
    },
    {
      "channel": 5,
      "note": 52,
      "start": 130.5236,
      "duration": 0.8175,
      "velocity": 97,
      "chip": "ym2612"
    },
    {
      "channel": 0,
      "note": 86,
      "start": 130.6461,
      "duration": 0.7401,
      "velocity": 127,
      "chip": "ym2612"
    },
    {
      "channel": 2,
      "note": 74,
      "start": 130.8779,
      "duration": 0.7401,
      "velocity": 94,
      "chip": "ym2612"
    },
    {
      "channel": 1,
      "note": 83,
      "start": 131.464,
      "duration": 0.3856,
      "velocity": 127,
      "chip": "ym2612"
    },
    {
      "channel": 3,
      "note": 71,
      "start": 131.4644,
      "duration": 0.3856,
      "velocity": 94,
      "chip": "ym2612"
    },
    {
      "channel": 5,
      "note": 52,
      "start": 131.4647,
      "duration": 0.4163,
      "velocity": 97,
      "chip": "ym2612"
    },
    {
      "channel": 0,
      "note": 83,
      "start": 131.5873,
      "duration": 0.3854,
      "velocity": 127,
      "chip": "ym2612"
    },
    {
      "channel": 2,
      "note": 71,
      "start": 131.8191,
      "duration": 0.3853,
      "velocity": 94,
      "chip": "ym2612"
    },
    {
      "channel": 1,
      "note": 88,
      "start": 131.9268,
      "duration": 0.6321,
      "velocity": 127,
      "chip": "ym2612"
    },
    {
      "channel": 3,
      "note": 76,
      "start": 131.9273,
      "duration": 0.632,
      "velocity": 94,
      "chip": "ym2612"
    },
    {
      "channel": 4,
      "note": 54,
      "start": 131.9276,
      "duration": 0.2466,
      "velocity": 89,
      "chip": "ym2612"
    },
    {
      "channel": 5,
      "note": 52,
      "start": 131.9278,
      "duration": 0.8329,
      "velocity": 97,
      "chip": "ym2612"
    },
    {
      "channel": 0,
      "note": 88,
      "start": 132.05,
      "duration": 0.6322,
      "velocity": 127,
      "chip": "ym2612"
    },
    {
      "channel": 4,
      "note": 55,
      "start": 132.1742,
      "duration": 0.2313,
      "velocity": 89,
      "chip": "ym2612"
    },
    {
      "channel": 2,
      "note": 76,
      "start": 132.282,
      "duration": 0.6323,
      "velocity": 94,
      "chip": "ym2612"
    },
    {
      "channel": 4,
      "note": 59,
      "start": 132.4056,
      "duration": 0.4636,
      "velocity": 89,
      "chip": "ym2612"
    },
    {
      "channel": 1,
      "note": 90,
      "start": 132.6362,
      "duration": 0.1543,
      "velocity": 127,
      "chip": "ym2612"
    },
    {
      "channel": 3,
      "note": 78,
      "start": 132.6366,
      "duration": 0.1541,
      "velocity": 94,
      "chip": "ym2612"
    },
    {
      "channel": 0,
      "note": 90,
      "start": 132.7599,
      "duration": 0.1539,
      "velocity": 127,
      "chip": "ym2612"
    },
    {
      "channel": 1,
      "note": 91,
      "start": 132.8683,
      "duration": 0.4008,
      "velocity": 127,
      "chip": "ym2612"
    },
    {
      "channel": 3,
      "note": 79,
      "start": 132.869,
      "duration": 0.4006,
      "velocity": 94,
      "chip": "ym2612"
    },
    {
      "channel": 4,
      "note": 64,
      "start": 132.8692,
      "duration": 0.4778,
      "velocity": 89,
      "chip": "ym2612"
    },
    {
      "channel": 5,
      "note": 52,
      "start": 132.8693,
      "duration": 0.4158,
      "velocity": 97,
      "chip": "ym2612"
    },
    {
      "channel": 0,
      "note": 91,
      "start": 132.9914,
      "duration": 0.4008,
      "velocity": 127,
      "chip": "ym2612"
    },
    {
      "channel": 2,
      "note": 78,
      "start": 132.992,
      "duration": 0.1537,
      "velocity": 94,
      "chip": "ym2612"
    },
    {
      "channel": 2,
      "note": 79,
      "start": 133.2232,
      "duration": 0.4008,
      "velocity": 94,
      "chip": "ym2612"
    },
    {
      "channel": 1,
      "note": 93,
      "start": 133.3463,
      "duration": 0.7404,
      "velocity": 127,
      "chip": "ym2612"
    },
    {
      "channel": 3,
      "note": 81,
      "start": 133.3468,
      "duration": 0.7405,
      "velocity": 94,
      "chip": "ym2612"
    },
    {
      "channel": 4,
      "note": 61,
      "start": 133.3471,
      "duration": 0.4622,
      "velocity": 89,
      "chip": "ym2612"
    },
    {
      "channel": 5,
      "note": 52,
      "start": 133.3473,
      "duration": 0.8175,
      "velocity": 97,
      "chip": "ym2612"
    },
    {
      "channel": 0,
      "note": 93,
      "start": 133.4696,
      "duration": 0.7406,
      "velocity": 127,
      "chip": "ym2612"
    },
    {
      "channel": 2,
      "note": 81,
      "start": 133.7014,
      "duration": 0.7406,
      "velocity": 94,
      "chip": "ym2612"
    },
    {
      "channel": 4,
      "note": 66,
      "start": 133.8093,
      "duration": 0.9582,
      "velocity": 89,
      "chip": "ym2612"
    },
    {
      "channel": 1,
      "note": 83,
      "start": 134.288,
      "duration": 0.3859,
      "velocity": 127,
      "chip": "ym2612"
    },
    {
      "channel": 3,
      "note": 71,
      "start": 134.2884,
      "duration": 0.3859,
      "velocity": 94,
      "chip": "ym2612"
    },
    {
      "channel": 5,
      "note": 52,
      "start": 134.2886,
      "duration": 0.4169,
      "velocity": 97,
      "chip": "ym2612"
    },
    {
      "channel": 0,
      "note": 83,
      "start": 134.4114,
      "duration": 0.3857,
      "velocity": 127,
      "chip": "ym2612"
    },
    {
      "channel": 2,
      "note": 71,
      "start": 134.6431,
      "duration": 0.3858,
      "velocity": 94,
      "chip": "ym2612"
    },
    {
      "channel": 1,
      "note": 88,
      "start": 134.7668,
      "duration": 0.6168,
      "velocity": 127,
      "chip": "ym2612"
    },
    {
      "channel": 3,
      "note": 76,
      "start": 134.7672,
      "duration": 0.6168,
      "velocity": 94,
      "chip": "ym2612"
    },
    {
      "channel": 4,
      "note": 54,
      "start": 134.7676,
      "duration": 0.2311,
      "velocity": 89,
      "chip": "ym2612"
    },
    {
      "channel": 5,
      "note": 52,
      "start": 134.7677,
      "duration": 0.818,
      "velocity": 97,
      "chip": "ym2612"
    },
    {
      "channel": 0,
      "note": 88,
      "start": 134.8748,
      "duration": 0.6323,
      "velocity": 127,
      "chip": "ym2612"
    },
    {
      "channel": 4,
      "note": 55,
      "start": 134.9987,
      "duration": 0.2314,
      "velocity": 89,
      "chip": "ym2612"
    },
    {
      "channel": 2,
      "note": 76,
      "start": 135.1064,
      "duration": 0.6328,
      "velocity": 94,
      "chip": "ym2612"
    },
    {
      "channel": 4,
      "note": 59,
      "start": 135.2301,
      "duration": 0.4792,
      "velocity": 89,
      "chip": "ym2612"
    },
    {
      "channel": 1,
      "note": 90,
      "start": 135.4613,
      "duration": 0.1543,
      "velocity": 127,
      "chip": "ym2612"
    },
    {
      "channel": 3,
      "note": 78,
      "start": 135.4616,
      "duration": 0.1542,
      "velocity": 94,
      "chip": "ym2612"
    },
    {
      "channel": 0,
      "note": 90,
      "start": 135.5848,
      "duration": 0.1539,
      "velocity": 127,
      "chip": "ym2612"
    },
    {
      "channel": 1,
      "note": 91,
      "start": 135.7084,
      "duration": 0.3861,
      "velocity": 127,
      "chip": "ym2612"
    },
    {
      "channel": 3,
      "note": 79,
      "start": 135.709,
      "duration": 0.3859,
      "velocity": 94,
      "chip": "ym2612"
    },
    {
      "channel": 4,
      "note": 62,
      "start": 135.7094,
      "duration": 0.4635,
      "velocity": 89,
      "chip": "ym2612"
    },
    {
      "channel": 5,
      "note": 52,
      "start": 135.7095,
      "duration": 0.4011,
      "velocity": 97,
      "chip": "ym2612"
    },
    {
      "channel": 0,
      "note": 91,
      "start": 135.8164,
      "duration": 0.4017,
      "velocity": 127,
      "chip": "ym2612"
    },
    {
      "channel": 2,
      "note": 78,
      "start": 135.8169,
      "duration": 0.1538,
      "velocity": 94,
      "chip": "ym2612"
    },
    {
      "channel": 2,
      "note": 79,
      "start": 136.0485,
      "duration": 0.4014,
      "velocity": 94,
      "chip": "ym2612"
    },
    {
      "channel": 1,
      "note": 90,
      "start": 136.1721,
      "duration": 0.6328,
      "velocity": 127,
      "chip": "ym2612"
    },
    {
      "channel": 3,
      "note": 78,
      "start": 136.1726,
      "duration": 0.6327,
      "velocity": 94,
      "chip": "ym2612"
    },
    {
      "channel": 4,
      "note": 61,
      "start": 136.1729,
      "duration": 1.4202,
      "velocity": 89,
      "chip": "ym2612"
    },
    {
      "channel": 5,
      "note": 52,
      "start": 136.1732,
      "duration": 0.8177,
      "velocity": 97,
      "chip": "ym2612"
    },
    {
      "channel": 0,
      "note": 90,
      "start": 136.2957,
      "duration": 0.6172,
      "velocity": 127,
      "chip": "ym2612"
    },
    {
      "channel": 2,
      "note": 78,
      "start": 136.5275,
      "duration": 0.6322,
      "velocity": 94,
      "chip": "ym2612"
    },
    {
      "channel": 1,
      "note": 93,
      "start": 136.8823,
      "duration": 0.1538,
      "velocity": 127,
      "chip": "ym2612"
    },
    {
      "channel": 3,
      "note": 81,
      "start": 136.8827,
      "duration": 0.1537,
      "velocity": 94,
      "chip": "ym2612"
    },
    {
      "channel": 0,
      "note": 93,
      "start": 136.99,
      "duration": 0.1692,
      "velocity": 127,
      "chip": "ym2612"
    },
    {
      "channel": 1,
      "note": 90,
      "start": 137.1134,
      "duration": 0.3863,
      "velocity": 127,
      "chip": "ym2612"
    },
    {
      "channel": 3,
      "note": 78,
      "start": 137.114,
      "duration": 0.386,
      "velocity": 94,
      "chip": "ym2612"
    },
    {
      "channel": 5,
      "note": 52,
      "start": 137.1142,
      "duration": 0.417,
      "velocity": 97,
      "chip": "ym2612"
    },
    {
      "channel": 0,
      "note": 90,
      "start": 137.2368,
      "duration": 0.3859,
      "velocity": 127,
      "chip": "ym2612"
    },
    {
      "channel": 2,
      "note": 81,
      "start": 137.2373,
      "duration": 0.1538,
      "velocity": 94,
      "chip": "ym2612"
    },
    {
      "channel": 2,
      "note": 78,
      "start": 137.4689,
      "duration": 0.3859,
      "velocity": 94,
      "chip": "ym2612"
    },
    {
      "channel": 1,
      "note": 88,
      "start": 137.5924,
      "duration": 0.849,
      "velocity": 127,
      "chip": "ym2612"
    },
    {
      "channel": 3,
      "note": 76,
      "start": 137.5929,
      "duration": 0.8489,
      "velocity": 94,
      "chip": "ym2612"
    },
    {
      "channel": 4,
      "note": 54,
      "start": 137.5932,
      "duration": 0.2312,
      "velocity": 89,
      "chip": "ym2612"
    },
    {
      "channel": 5,
      "note": 52,
      "start": 137.5933,
      "duration": 0.818,
      "velocity": 97,
      "chip": "ym2612"
    },
    {
      "channel": 0,
      "note": 88,
      "start": 137.7003,
      "duration": 0.8647,
      "velocity": 127,
      "chip": "ym2612"
    },
    {
      "channel": 4,
      "note": 55,
      "start": 137.8244,
      "duration": 0.2317,
      "velocity": 89,
      "chip": "ym2612"
    },
    {
      "channel": 2,
      "note": 76,
      "start": 137.9323,
      "duration": 0.8641,
      "velocity": 94,
      "chip": "ym2612"
    },
    {
      "channel": 4,
      "note": 59,
      "start": 138.0563,
      "duration": 0.4787,
      "velocity": 89,
      "chip": "ym2612"
    },
    {
      "channel": 1,
      "note": 88,
      "start": 138.5342,
      "duration": 0.3859,
      "velocity": 127,
      "chip": "ym2612"
    },
    {
      "channel": 3,
      "note": 76,
      "start": 138.5347,
      "duration": 0.3858,
      "velocity": 94,
      "chip": "ym2612"
    },
    {
      "channel": 4,
      "note": 62,
      "start": 138.535,
      "duration": 0.4633,
      "velocity": 89,
      "chip": "ym2612"
    },
    {
      "channel": 5,
      "note": 52,
      "start": 138.5352,
      "duration": 0.4011,
      "velocity": 97,
      "chip": "ym2612"
    },
    {
      "channel": 0,
      "note": 88,
      "start": 138.6421,
      "duration": 0.4013,
      "velocity": 127,
      "chip": "ym2612"
    },
    {
      "channel": 2,
      "note": 76,
      "start": 138.8739,
      "duration": 0.4014,
      "velocity": 94,
      "chip": "ym2612"
    },
    {
      "channel": 1,
      "note": 88,
      "start": 138.9975,
      "duration": 0.7407,
      "velocity": 127,
      "chip": "ym2612"
    },
    {
      "channel": 3,
      "note": 76,
      "start": 138.998,
      "duration": 0.7407,
      "velocity": 94,
      "chip": "ym2612"
    },
    {
      "channel": 4,
      "note": 61,
      "start": 138.9983,
      "duration": 0.4783,
      "velocity": 89,
      "chip": "ym2612"
    },
    {
      "channel": 5,
      "note": 52,
      "start": 138.9985,
      "duration": 0.8173,
      "velocity": 97,
      "chip": "ym2612"
    },
    {
      "channel": 0,
      "note": 88,
      "start": 139.1206,
      "duration": 0.7409,
      "velocity": 127,
      "chip": "ym2612"
    },
    {
      "channel": 2,
      "note": 76,
      "start": 139.3527,
      "duration": 0.7412,
      "velocity": 94,
      "chip": "ym2612"
    },
    {
      "channel": 4,
      "note": 57,
      "start": 139.4766,
      "duration": 0.9459,
      "velocity": 89,
      "chip": "ym2612"
    },
    {
      "channel": 3,
      "note": 83,
      "start": 139.9415,
      "duration": 0.3995,
      "velocity": 111,
      "chip": "ym2612"
    },
    {
      "channel": 5,
      "note": 52,
      "start": 139.9418,
      "duration": 0.4149,
      "velocity": 97,
      "chip": "ym2612"
    },
    {
      "channel": 2,
      "note": 83,
      "start": 140.2966,
      "duration": 0.3838,
      "velocity": 111,
      "chip": "ym2612"
    },
    {
      "channel": 0,
      "note": 74,
      "start": 140.4202,
      "duration": 0.8631,
      "velocity": 91,
      "chip": "ym2612"
    },
    {
      "channel": 1,
      "note": 78,
      "start": 140.422,
      "duration": 0.8617,
      "velocity": 91,
      "chip": "ym2612"
    },
    {
      "channel": 3,
      "note": 86,
      "start": 140.4222,
      "duration": 0.8619,
      "velocity": 111,
      "chip": "ym2612"
    },
    {
      "channel": 4,
      "note": 54,
      "start": 140.4225,
      "duration": 0.2276,
      "velocity": 89,
      "chip": "ym2612"
    },
    {
      "channel": 5,
      "note": 52,
      "start": 140.4227,
      "duration": 0.815,
      "velocity": 97,
      "chip": "ym2612"
    },
    {
      "channel": 4,
      "note": 55,
      "start": 140.6502,
      "duration": 0.2318,
      "velocity": 89,
      "chip": "ym2612"
    },
    {
      "channel": 2,
      "note": 86,
      "start": 140.7579,
      "duration": 0.8654,
      "velocity": 111,
      "chip": "ym2612"
    },
    {
      "channel": 4,
      "note": 59,
      "start": 140.882,
      "duration": 0.4797,
      "velocity": 89,
      "chip": "ym2612"
    },
    {
      "channel": 0,
      "note": 74,
      "start": 141.3607,
      "duration": 0.3862,
      "velocity": 91,
      "chip": "ym2612"
    },
    {
      "channel": 1,
      "note": 78,
      "start": 141.3609,
      "duration": 0.3863,
      "velocity": 91,
      "chip": "ym2612"
    },
    {
      "channel": 3,
      "note": 86,
      "start": 141.3614,
      "duration": 0.3861,
      "velocity": 111,
      "chip": "ym2612"
    },
    {
      "channel": 4,
      "note": 62,
      "start": 141.3617,
      "duration": 0.4634,
      "velocity": 89,
      "chip": "ym2612"
    },
    {
      "channel": 5,
      "note": 52,
      "start": 141.3619,
      "duration": 0.4012,
      "velocity": 97,
      "chip": "ym2612"
    },
    {
      "channel": 2,
      "note": 86,
      "start": 141.7162,
      "duration": 0.3856,
      "velocity": 111,
      "chip": "ym2612"
    },
    {
      "channel": 0,
      "note": 73,
      "start": 141.824,
      "duration": 0.6328,
      "velocity": 91,
      "chip": "ym2612"
    },
    {
      "channel": 1,
      "note": 76,
      "start": 141.8244,
      "duration": 0.6328,
      "velocity": 91,
      "chip": "ym2612"
    },
    {
      "channel": 3,
      "note": 85,
      "start": 141.8249,
      "duration": 0.6328,
      "velocity": 111,
      "chip": "ym2612"
    },
    {
      "channel": 4,
      "note": 61,
      "start": 141.8251,
      "duration": 1.4208,
      "velocity": 89,
      "chip": "ym2612"
    },
    {
      "channel": 5,
      "note": 52,
      "start": 141.8253,
      "duration": 0.8332,
      "velocity": 97,
      "chip": "ym2612"
    },
    {
      "channel": 2,
      "note": 85,
      "start": 142.1795,
      "duration": 0.6328,
      "velocity": 111,
      "chip": "ym2612"
    },
    {
      "channel": 0,
      "note": 71,
      "start": 142.5343,
      "duration": 0.1545,
      "velocity": 91,
      "chip": "ym2612"
    },
    {
      "channel": 1,
      "note": 74,
      "start": 142.5346,
      "duration": 0.1544,
      "velocity": 91,
      "chip": "ym2612"
    },
    {
      "channel": 3,
      "note": 83,
      "start": 142.5351,
      "duration": 0.1544,
      "velocity": 111,
      "chip": "ym2612"
    },
    {
      "channel": 0,
      "note": 69,
      "start": 142.7661,
      "duration": 0.4016,
      "velocity": 91,
      "chip": "ym2612"
    },
    {
      "channel": 1,
      "note": 73,
      "start": 142.7665,
      "duration": 0.4015,
      "velocity": 91,
      "chip": "ym2612"
    },
    {
      "channel": 3,
      "note": 81,
      "start": 142.7669,
      "duration": 0.4014,
      "velocity": 111,
      "chip": "ym2612"
    },
    {
      "channel": 5,
      "note": 52,
      "start": 142.7672,
      "duration": 0.4169,
      "velocity": 97,
      "chip": "ym2612"
    },
    {
      "channel": 2,
      "note": 83,
      "start": 142.8896,
      "duration": 0.1547,
      "velocity": 111,
      "chip": "ym2612"
    },
    {
      "channel": 2,
      "note": 81,
      "start": 143.1217,
      "duration": 0.3859,
      "velocity": 111,
      "chip": "ym2612"
    },
    {
      "channel": 0,
      "note": 71,
      "start": 143.2449,
      "duration": 2.2705,
      "velocity": 91,
      "chip": "ym2612"
    },
    {
      "channel": 1,
      "note": 74,
      "start": 143.2453,
      "duration": 2.2704,
      "velocity": 91,
      "chip": "ym2612"
    },
    {
      "channel": 3,
      "note": 83,
      "start": 143.2456,
      "duration": 2.2705,
      "velocity": 111,
      "chip": "ym2612"
    },
    {
      "channel": 4,
      "note": 54,
      "start": 143.246,
      "duration": 0.2311,
      "velocity": 89,
      "chip": "ym2612"
    },
    {
      "channel": 5,
      "note": 52,
      "start": 143.2461,
      "duration": 0.818,
      "velocity": 97,
      "chip": "ym2612"
    },
    {
      "channel": 4,
      "note": 55,
      "start": 143.4772,
      "duration": 0.2315,
      "velocity": 89,
      "chip": "ym2612"
    },
    {
      "channel": 2,
      "note": 83,
      "start": 143.6004,
      "duration": 2.2708,
      "velocity": 111,
      "chip": "ym2612"
    },
    {
      "channel": 4,
      "note": 59,
      "start": 143.7087,
      "duration": 0.4791,
      "velocity": 89,
      "chip": "ym2612"
    },
    {
      "channel": 4,
      "note": 64,
      "start": 144.1878,
      "duration": 0.4636,
      "velocity": 89,
      "chip": "ym2612"
    },
    {
      "channel": 5,
      "note": 52,
      "start": 144.188,
      "duration": 0.4016,
      "velocity": 97,
      "chip": "ym2612"
    },
    {
      "channel": 4,
      "note": 61,
      "start": 144.6515,
      "duration": 0.4789,
      "velocity": 89,
      "chip": "ym2612"
    },
    {
      "channel": 5,
      "note": 52,
      "start": 144.6517,
      "duration": 0.8337,
      "velocity": 97,
      "chip": "ym2612"
    },
    {
      "channel": 4,
      "note": 66,
      "start": 145.1304,
      "duration": 0.9423,
      "velocity": 89,
      "chip": "ym2612"
    },
    {
      "channel": 3,
      "note": 83,
      "start": 145.5935,
      "duration": 0.1544,
      "velocity": 111,
      "chip": "ym2612"
    },
    {
      "channel": 5,
      "note": 52,
      "start": 145.5937,
      "duration": 0.4165,
      "velocity": 97,
      "chip": "ym2612"
    },
    {
      "channel": 3,
      "note": 85,
      "start": 145.8251,
      "duration": 0.1695,
      "velocity": 111,
      "chip": "ym2612"
    },
    {
      "channel": 2,
      "note": 83,
      "start": 145.9485,
      "duration": 0.154,
      "velocity": 111,
      "chip": "ym2612"
    },
    {
      "channel": 0,
      "note": 74,
      "start": 146.0715,
      "duration": 0.8644,
      "velocity": 91,
      "chip": "ym2612"
    },
    {
      "channel": 1,
      "note": 78,
      "start": 146.0719,
      "duration": 0.8643,
      "velocity": 91,
      "chip": "ym2612"
    },
    {
      "channel": 3,
      "note": 86,
      "start": 146.0723,
      "duration": 0.8644,
      "velocity": 111,
      "chip": "ym2612"
    },
    {
      "channel": 4,
      "note": 54,
      "start": 146.0727,
      "duration": 0.231,
      "velocity": 89,
      "chip": "ym2612"
    },
    {
      "channel": 5,
      "note": 52,
      "start": 146.0728,
      "duration": 0.8178,
      "velocity": 97,
      "chip": "ym2612"
    },
    {
      "channel": 2,
      "note": 85,
      "start": 146.1796,
      "duration": 0.17,
      "velocity": 111,
      "chip": "ym2612"
    },
    {
      "channel": 4,
      "note": 55,
      "start": 146.3038,
      "duration": 0.2316,
      "velocity": 89,
      "chip": "ym2612"
    },
    {
      "channel": 2,
      "note": 86,
      "start": 146.427,
      "duration": 0.8641,
      "velocity": 111,
      "chip": "ym2612"
    },
    {
      "channel": 4,
      "note": 59,
      "start": 146.5354,
      "duration": 0.4789,
      "velocity": 89,
      "chip": "ym2612"
    },
    {
      "channel": 0,
      "note": 74,
      "start": 147.0133,
      "duration": 0.3859,
      "velocity": 91,
      "chip": "ym2612"
    },
    {
      "channel": 1,
      "note": 78,
      "start": 147.0135,
      "duration": 0.3859,
      "velocity": 91,
      "chip": "ym2612"
    },
    {
      "channel": 3,
      "note": 86,
      "start": 147.0141,
      "duration": 0.3857,
      "velocity": 111,
      "chip": "ym2612"
    },
    {
      "channel": 4,
      "note": 62,
      "start": 147.0144,
      "duration": 0.4632,
      "velocity": 89,
      "chip": "ym2612"
    },
    {
      "channel": 5,
      "note": 52,
      "start": 147.0145,
      "duration": 0.401,
      "velocity": 97,
      "chip": "ym2612"
    },
    {
      "channel": 2,
      "note": 86,
      "start": 147.3684,
      "duration": 0.3865,
      "velocity": 111,
      "chip": "ym2612"
    },
    {
      "channel": 0,
      "note": 73,
      "start": 147.4765,
      "duration": 0.4017,
      "velocity": 91,
      "chip": "ym2612"
    },
    {
      "channel": 1,
      "note": 76,
      "start": 147.4768,
      "duration": 0.4016,
      "velocity": 91,
      "chip": "ym2612"
    },
    {
      "channel": 3,
      "note": 85,
      "start": 147.4773,
      "duration": 0.4787,
      "velocity": 111,
      "chip": "ym2612"
    },
    {
      "channel": 4,
      "note": 61,
      "start": 147.4776,
      "duration": 1.4213,
      "velocity": 89,
      "chip": "ym2612"
    },
    {
      "channel": 5,
      "note": 52,
      "start": 147.4779,
      "duration": 0.8338,
      "velocity": 97,
      "chip": "ym2612"
    },
    {
      "channel": 2,
      "note": 85,
      "start": 147.8322,
      "duration": 0.479,
      "velocity": 111,
      "chip": "ym2612"
    },
    {
      "channel": 0,
      "note": 76,
      "start": 147.9553,
      "duration": 0.1544,
      "velocity": 91,
      "chip": "ym2612"
    },
    {
      "channel": 1,
      "note": 79,
      "start": 147.9557,
      "duration": 0.1541,
      "velocity": 91,
      "chip": "ym2612"
    },
    {
      "channel": 3,
      "note": 88,
      "start": 147.9561,
      "duration": 0.2317,
      "velocity": 111,
      "chip": "ym2612"
    },
    {
      "channel": 2,
      "note": 88,
      "start": 148.3112,
      "duration": 0.2318,
      "velocity": 111,
      "chip": "ym2612"
    },
    {
      "channel": 5,
      "note": 52,
      "start": 148.4199,
      "duration": 0.4171,
      "velocity": 97,
      "chip": "ym2612"
    },
    {
      "channel": 3,
      "note": 85,
      "start": 148.6668,
      "duration": 0.1546,
      "velocity": 111,
      "chip": "ym2612"
    },
    {
      "channel": 0,
      "note": 71,
      "start": 148.8978,
      "duration": 2.7491,
      "velocity": 91,
      "chip": "ym2612"
    },
    {
      "channel": 1,
      "note": 74,
      "start": 148.8982,
      "duration": 2.7488,
      "velocity": 91,
      "chip": "ym2612"
    },
    {
      "channel": 3,
      "note": 83,
      "start": 148.8987,
      "duration": 2.7489,
      "velocity": 111,
      "chip": "ym2612"
    },
    {
      "channel": 4,
      "note": 54,
      "start": 148.8989,
      "duration": 0.2311,
      "velocity": 89,
      "chip": "ym2612"
    },
    {
      "channel": 5,
      "note": 52,
      "start": 148.8991,
      "duration": 0.8183,
      "velocity": 97,
      "chip": "ym2612"
    },
    {
      "channel": 2,
      "note": 85,
      "start": 149.0061,
      "duration": 0.1699,
      "velocity": 111,
      "chip": "ym2612"
    },
    {
      "channel": 4,
      "note": 55,
      "start": 149.13,
      "duration": 0.2319,
      "velocity": 89,
      "chip": "ym2612"
    },
    {
      "channel": 2,
      "note": 83,
      "start": 149.2535,
      "duration": 2.7489,
      "velocity": 111,
      "chip": "ym2612"
    },
    {
      "channel": 4,
      "note": 59,
      "start": 149.362,
      "duration": 0.4789,
      "velocity": 89,
      "chip": "ym2612"
    },
    {
      "channel": 4,
      "note": 62,
      "start": 149.8409,
      "duration": 0.4634,
      "velocity": 89,
      "chip": "ym2612"
    },
    {
      "channel": 5,
      "note": 52,
      "start": 149.841,
      "duration": 0.4016,
      "velocity": 97,
      "chip": "ym2612"
    },
    {
      "channel": 4,
      "note": 61,
      "start": 150.3044,
      "duration": 0.4789,
      "velocity": 89,
      "chip": "ym2612"
    },
    {
      "channel": 5,
      "note": 52,
      "start": 150.3046,
      "duration": 0.8336,
      "velocity": 97,
      "chip": "ym2612"
    },
    {
      "channel": 4,
      "note": 57,
      "start": 150.7833,
      "duration": 0.9421,
      "velocity": 89,
      "chip": "ym2612"
    },
    {
      "channel": 5,
      "note": 52,
      "start": 151.2462,
      "duration": 0.417,
      "velocity": 97,
      "chip": "ym2612"
    },
    {
      "channel": 0,
      "note": 74,
      "start": 151.7242,
      "duration": 0.8644,
      "velocity": 91,
      "chip": "ym2612"
    },
    {
      "channel": 1,
      "note": 78,
      "start": 151.7247,
      "duration": 0.8642,
      "velocity": 91,
      "chip": "ym2612"
    },
    {
      "channel": 3,
      "note": 86,
      "start": 151.7251,
      "duration": 0.8642,
      "velocity": 111,
      "chip": "ym2612"
    },
    {
      "channel": 4,
      "note": 54,
      "start": 151.7254,
      "duration": 0.2311,
      "velocity": 89,
      "chip": "ym2612"
    },
    {
      "channel": 5,
      "note": 52,
      "start": 151.7256,
      "duration": 0.8176,
      "velocity": 97,
      "chip": "ym2612"
    },
    {
      "channel": 4,
      "note": 55,
      "start": 151.9566,
      "duration": 0.2315,
      "velocity": 89,
      "chip": "ym2612"
    },
    {
      "channel": 2,
      "note": 86,
      "start": 152.0796,
      "duration": 0.8642,
      "velocity": 111,
      "chip": "ym2612"
    },
    {
      "channel": 4,
      "note": 59,
      "start": 152.1881,
      "duration": 0.4787,
      "velocity": 89,
      "chip": "ym2612"
    },
    {
      "channel": 0,
      "note": 74,
      "start": 152.6656,
      "duration": 0.386,
      "velocity": 91,
      "chip": "ym2612"
    },
    {
      "channel": 1,
      "note": 78,
      "start": 152.6659,
      "duration": 0.3861,
      "velocity": 91,
      "chip": "ym2612"
    },
    {
      "channel": 3,
      "note": 86,
      "start": 152.6664,
      "duration": 0.3858,
      "velocity": 111,
      "chip": "ym2612"
    },
    {
      "channel": 4,
      "note": 62,
      "start": 152.6668,
      "duration": 0.4632,
      "velocity": 89,
      "chip": "ym2612"
    },
    {
      "channel": 5,
      "note": 52,
      "start": 152.6669,
      "duration": 0.4163,
      "velocity": 97,
      "chip": "ym2612"
    },
    {
      "channel": 2,
      "note": 86,
      "start": 153.0211,
      "duration": 0.3858,
      "velocity": 111,
      "chip": "ym2612"
    },
    {
      "channel": 0,
      "note": 73,
      "start": 153.1289,
      "duration": 0.6334,
      "velocity": 91,
      "chip": "ym2612"
    },
    {
      "channel": 1,
      "note": 76,
      "start": 153.1293,
      "duration": 0.6332,
      "velocity": 91,
      "chip": "ym2612"
    },
    {
      "channel": 3,
      "note": 85,
      "start": 153.1298,
      "duration": 0.6332,
      "velocity": 111,
      "chip": "ym2612"
    },
    {
      "channel": 4,
      "note": 61,
      "start": 153.1301,
      "duration": 1.4215,
      "velocity": 89,
      "chip": "ym2612"
    },
    {
      "channel": 5,
      "note": 52,
      "start": 153.1303,
      "duration": 0.8334,
      "velocity": 97,
      "chip": "ym2612"
    },
    {
      "channel": 2,
      "note": 85,
      "start": 153.4842,
      "duration": 0.6337,
      "velocity": 111,
      "chip": "ym2612"
    },
    {
      "channel": 0,
      "note": 71,
      "start": 153.8395,
      "duration": 0.1546,
      "velocity": 91,
      "chip": "ym2612"
    },
    {
      "channel": 1,
      "note": 74,
      "start": 153.8398,
      "duration": 0.1544,
      "velocity": 91,
      "chip": "ym2612"
    },
    {
      "channel": 3,
      "note": 83,
      "start": 153.8403,
      "duration": 0.1546,
      "velocity": 111,
      "chip": "ym2612"
    },
    {
      "channel": 0,
      "note": 69,
      "start": 154.0714,
      "duration": 0.4019,
      "velocity": 91,
      "chip": "ym2612"
    },
    {
      "channel": 1,
      "note": 73,
      "start": 154.0718,
      "duration": 0.4018,
      "velocity": 91,
      "chip": "ym2612"
    },
    {
      "channel": 3,
      "note": 81,
      "start": 154.0723,
      "duration": 0.4017,
      "velocity": 111,
      "chip": "ym2612"
    },
    {
      "channel": 5,
      "note": 52,
      "start": 154.0726,
      "duration": 0.4169,
      "velocity": 97,
      "chip": "ym2612"
    },
    {
      "channel": 2,
      "note": 83,
      "start": 154.1951,
      "duration": 0.1547,
      "velocity": 111,
      "chip": "ym2612"
    },
    {
      "channel": 2,
      "note": 81,
      "start": 154.4273,
      "duration": 0.401,
      "velocity": 111,
      "chip": "ym2612"
    },
    {
      "channel": 0,
      "note": 71,
      "start": 154.5505,
      "duration": 2.2694,
      "velocity": 91,
      "chip": "ym2612"
    },
    {
      "channel": 1,
      "note": 74,
      "start": 154.551,
      "duration": 2.2692,
      "velocity": 91,
      "chip": "ym2612"
    },
    {
      "channel": 3,
      "note": 83,
      "start": 154.5514,
      "duration": 2.2693,
      "velocity": 111,
      "chip": "ym2612"
    },
    {
      "channel": 4,
      "note": 54,
      "start": 154.5517,
      "duration": 0.2309,
      "velocity": 89,
      "chip": "ym2612"
    },
    {
      "channel": 5,
      "note": 52,
      "start": 154.5518,
      "duration": 0.8181,
      "velocity": 97,
      "chip": "ym2612"
    },
    {
      "channel": 4,
      "note": 55,
      "start": 154.7826,
      "duration": 0.2318,
      "velocity": 89,
      "chip": "ym2612"
    },
    {
      "channel": 2,
      "note": 83,
      "start": 154.9057,
      "duration": 2.2701,
      "velocity": 111,
      "chip": "ym2612"
    },
    {
      "channel": 4,
      "note": 59,
      "start": 155.0144,
      "duration": 0.4789,
      "velocity": 89,
      "chip": "ym2612"
    },
    {
      "channel": 4,
      "note": 64,
      "start": 155.4933,
      "duration": 0.4634,
      "velocity": 89,
      "chip": "ym2612"
    },
    {
      "channel": 5,
      "note": 52,
      "start": 155.4935,
      "duration": 0.417,
      "velocity": 97,
      "chip": "ym2612"
    },
    {
      "channel": 4,
      "note": 61,
      "start": 155.9568,
      "duration": 0.4788,
      "velocity": 89,
      "chip": "ym2612"
    },
    {
      "channel": 5,
      "note": 52,
      "start": 155.9571,
      "duration": 0.833,
      "velocity": 97,
      "chip": "ym2612"
    },
    {
      "channel": 4,
      "note": 66,
      "start": 156.4356,
      "duration": 0.9416,
      "velocity": 89,
      "chip": "ym2612"
    },
    {
      "channel": 3,
      "note": 83,
      "start": 156.8982,
      "duration": 0.1696,
      "velocity": 111,
      "chip": "ym2612"
    },
    {
      "channel": 5,
      "note": 52,
      "start": 156.8985,
      "duration": 0.4166,
      "velocity": 97,
      "chip": "ym2612"
    },
    {
      "channel": 3,
      "note": 85,
      "start": 157.1451,
      "duration": 0.1542,
      "velocity": 111,
      "chip": "ym2612"
    },
    {
      "channel": 2,
      "note": 83,
      "start": 157.2533,
      "duration": 0.1537,
      "velocity": 111,
      "chip": "ym2612"
    },
    {
      "channel": 0,
      "note": 74,
      "start": 157.3761,
      "duration": 0.8647,
      "velocity": 91,
      "chip": "ym2612"
    },
    {
      "channel": 1,
      "note": 78,
      "start": 157.3765,
      "duration": 0.8646,
      "velocity": 91,
      "chip": "ym2612"
    },
    {
      "channel": 3,
      "note": 86,
      "start": 157.3769,
      "duration": 0.8646,
      "velocity": 111,
      "chip": "ym2612"
    },
    {
      "channel": 4,
      "note": 54,
      "start": 157.3773,
      "duration": 0.231,
      "velocity": 89,
      "chip": "ym2612"
    },
    {
      "channel": 5,
      "note": 52,
      "start": 157.3774,
      "duration": 0.818,
      "velocity": 97,
      "chip": "ym2612"
    },
    {
      "channel": 2,
      "note": 85,
      "start": 157.4997,
      "duration": 0.1544,
      "velocity": 111,
      "chip": "ym2612"
    },
    {
      "channel": 4,
      "note": 55,
      "start": 157.6083,
      "duration": 0.2318,
      "velocity": 89,
      "chip": "ym2612"
    },
    {
      "channel": 2,
      "note": 86,
      "start": 157.7316,
      "duration": 0.8646,
      "velocity": 111,
      "chip": "ym2612"
    },
    {
      "channel": 4,
      "note": 59,
      "start": 157.8402,
      "duration": 0.4788,
      "velocity": 89,
      "chip": "ym2612"
    },
    {
      "channel": 0,
      "note": 74,
      "start": 158.3179,
      "duration": 0.3861,
      "velocity": 91,
      "chip": "ym2612"
    },
    {
      "channel": 1,
      "note": 78,
      "start": 158.3181,
      "duration": 0.3863,
      "velocity": 91,
      "chip": "ym2612"
    },
    {
      "channel": 3,
      "note": 86,
      "start": 158.3187,
      "duration": 0.3861,
      "velocity": 111,
      "chip": "ym2612"
    },
    {
      "channel": 4,
      "note": 62,
      "start": 158.319,
      "duration": 0.4635,
      "velocity": 89,
      "chip": "ym2612"
    },
    {
      "channel": 5,
      "note": 52,
      "start": 158.3191,
      "duration": 0.4167,
      "velocity": 97,
      "chip": "ym2612"
    },
    {
      "channel": 2,
      "note": 86,
      "start": 158.6736,
      "duration": 0.3858,
      "velocity": 111,
      "chip": "ym2612"
    },
    {
      "channel": 0,
      "note": 73,
      "start": 158.7813,
      "duration": 0.4015,
      "velocity": 91,
      "chip": "ym2612"
    },
    {
      "channel": 1,
      "note": 76,
      "start": 158.7817,
      "duration": 0.4014,
      "velocity": 91,
      "chip": "ym2612"
    },
    {
      "channel": 3,
      "note": 85,
      "start": 158.7822,
      "duration": 0.4786,
      "velocity": 111,
      "chip": "ym2612"
    },
    {
      "channel": 4,
      "note": 61,
      "start": 158.7825,
      "duration": 1.4204,
      "velocity": 89,
      "chip": "ym2612"
    },
    {
      "channel": 5,
      "note": 52,
      "start": 158.7828,
      "duration": 0.8334,
      "velocity": 97,
      "chip": "ym2612"
    },
    {
      "channel": 2,
      "note": 85,
      "start": 159.1367,
      "duration": 0.479,
      "velocity": 111,
      "chip": "ym2612"
    },
    {
      "channel": 0,
      "note": 76,
      "start": 159.2601,
      "duration": 0.1542,
      "velocity": 91,
      "chip": "ym2612"
    },
    {
      "channel": 1,
      "note": 79,
      "start": 159.2605,
      "duration": 0.1539,
      "velocity": 91,
      "chip": "ym2612"
    },
    {
      "channel": 3,
      "note": 88,
      "start": 159.2609,
      "duration": 0.2316,
      "velocity": 111,
      "chip": "ym2612"
    },
    {
      "channel": 2,
      "note": 88,
      "start": 159.6158,
      "duration": 0.2316,
      "velocity": 111,
      "chip": "ym2612"
    },
    {
      "channel": 5,
      "note": 52,
      "start": 159.7243,
      "duration": 0.4167,
      "velocity": 97,
      "chip": "ym2612"
    },
    {
      "channel": 3,
      "note": 85,
      "start": 159.971,
      "duration": 0.1545,
      "velocity": 111,
      "chip": "ym2612"
    },
    {
      "channel": 0,
      "note": 71,
      "start": 160.2018,
      "duration": 2.7499,
      "velocity": 91,
      "chip": "ym2612"
    },
    {
      "channel": 1,
      "note": 74,
      "start": 160.2022,
      "duration": 2.7496,
      "velocity": 91,
      "chip": "ym2612"
    },
    {
      "channel": 3,
      "note": 83,
      "start": 160.2027,
      "duration": 1.8077,
      "velocity": 111,
      "chip": "ym2612"
    },
    {
      "channel": 4,
      "note": 54,
      "start": 160.2029,
      "duration": 0.2313,
      "velocity": 89,
      "chip": "ym2612"
    },
    {
      "channel": 5,
      "note": 52,
      "start": 160.2031,
      "duration": 0.8183,
      "velocity": 97,
      "chip": "ym2612"
    },
    {
      "channel": 2,
      "note": 85,
      "start": 160.3253,
      "duration": 0.1548,
      "velocity": 111,
      "chip": "ym2612"
    },
    {
      "channel": 4,
      "note": 55,
      "start": 160.4343,
      "duration": 0.2315,
      "velocity": 89,
      "chip": "ym2612"
    },
    {
      "channel": 2,
      "note": 83,
      "start": 160.5573,
      "duration": 1.8081,
      "velocity": 111,
      "chip": "ym2612"
    },
    {
      "channel": 4,
      "note": 59,
      "start": 160.6659,
      "duration": 0.479,
      "velocity": 89,
      "chip": "ym2612"
    },
    {
      "channel": 4,
      "note": 62,
      "start": 161.1449,
      "duration": 0.4795,
      "velocity": 89,
      "chip": "ym2612"
    },
    {
      "channel": 5,
      "note": 52,
      "start": 161.145,
      "duration": 0.4173,
      "velocity": 97,
      "chip": "ym2612"
    },
    {
      "channel": 4,
      "note": 61,
      "start": 161.6244,
      "duration": 0.4654,
      "velocity": 89,
      "chip": "ym2612"
    },
    {
      "channel": 5,
      "note": 52,
      "start": 161.6246,
      "duration": 0.8203,
      "velocity": 97,
      "chip": "ym2612"
    },
    {
      "channel": 3,
      "note": 83,
      "start": 162.0895,
      "duration": 0.1987,
      "velocity": 99,
      "chip": "ym2612"
    },
    {
      "channel": 4,
      "note": 57,
      "start": 162.0898,
      "duration": 0.9439,
      "velocity": 89,
      "chip": "ym2612"
    },
    {
      "channel": 3,
      "note": 86,
      "start": 162.3192,
      "duration": 0.2003,
      "velocity": 99,
      "chip": "ym2612"
    },
    {
      "channel": 2,
      "note": 83,
      "start": 162.4445,
      "duration": 0.1983,
      "velocity": 99,
      "chip": "ym2612"
    },
    {
      "channel": 3,
      "note": 88,
      "start": 162.5659,
      "duration": 0.185,
      "velocity": 99,
      "chip": "ym2612"
    },
    {
      "channel": 5,
      "note": 52,
      "start": 162.5662,
      "duration": 0.4017,
      "velocity": 97,
      "chip": "ym2612"
    },
    {
      "channel": 2,
      "note": 86,
      "start": 162.674,
      "duration": 0.2008,
      "velocity": 99,
      "chip": "ym2612"
    },
    {
      "channel": 3,
      "note": 90,
      "start": 162.7978,
      "duration": 0.2008,
      "velocity": 99,
      "chip": "ym2612"
    },
    {
      "channel": 2,
      "note": 88,
      "start": 162.9059,
      "duration": 0.1999,
      "velocity": 99,
      "chip": "ym2612"
    },
    {
      "channel": 0,
      "note": 76,
      "start": 163.0313,
      "duration": 0.8624,
      "velocity": 103,
      "chip": "ym2612"
    },
    {
      "channel": 1,
      "note": 83,
      "start": 163.0332,
      "duration": 0.8608,
      "velocity": 103,
      "chip": "ym2612"
    },
    {
      "channel": 3,
      "note": 91,
      "start": 163.0335,
      "duration": 0.8764,
      "velocity": 99,
      "chip": "ym2612"
    },
    {
      "channel": 4,
      "note": 54,
      "start": 163.0338,
      "duration": 0.2273,
      "velocity": 89,
      "chip": "ym2612"
    },
    {
      "channel": 5,
      "note": 52,
      "start": 163.034,
      "duration": 0.8142,
      "velocity": 97,
      "chip": "ym2612"
    },
    {
      "channel": 2,
      "note": 90,
      "start": 163.1525,
      "duration": 0.1854,
      "velocity": 99,
      "chip": "ym2612"
    },
    {
      "channel": 4,
      "note": 55,
      "start": 163.2611,
      "duration": 0.2473,
      "velocity": 89,
      "chip": "ym2612"
    },
    {
      "channel": 2,
      "note": 91,
      "start": 163.3845,
      "duration": 0.88,
      "velocity": 99,
      "chip": "ym2612"
    },
    {
      "channel": 4,
      "note": 59,
      "start": 163.5084,
      "duration": 0.2314,
      "velocity": 89,
      "chip": "ym2612"
    },
    {
      "channel": 4,
      "note": 62,
      "start": 163.7398,
      "duration": 0.2324,
      "velocity": 89,
      "chip": "ym2612"
    },
    {
      "channel": 0,
      "note": 76,
      "start": 163.9711,
      "duration": 0.3858,
      "velocity": 103,
      "chip": "ym2612"
    },
    {
      "channel": 1,
      "note": 83,
      "start": 163.9715,
      "duration": 0.3858,
      "velocity": 103,
      "chip": "ym2612"
    },
    {
      "channel": 3,
      "note": 91,
      "start": 163.972,
      "duration": 0.4163,
      "velocity": 99,
      "chip": "ym2612"
    },
    {
      "channel": 4,
      "note": 66,
      "start": 163.9723,
      "duration": 0.4784,
      "velocity": 89,
      "chip": "ym2612"
    },
    {
      "channel": 5,
      "note": 52,
      "start": 163.9724,
      "duration": 0.4162,
      "velocity": 97,
      "chip": "ym2612"
    },
    {
      "channel": 2,
      "note": 91,
      "start": 164.3265,
      "duration": 0.4169,
      "velocity": 99,
      "chip": "ym2612"
    },
    {
      "channel": 0,
      "note": 74,
      "start": 164.4495,
      "duration": 0.6179,
      "velocity": 103,
      "chip": "ym2612"
    },
    {
      "channel": 1,
      "note": 81,
      "start": 164.4499,
      "duration": 0.6179,
      "velocity": 103,
      "chip": "ym2612"
    },
    {
      "channel": 3,
      "note": 90,
      "start": 164.4504,
      "duration": 0.6485,
      "velocity": 99,
      "chip": "ym2612"
    },
    {
      "channel": 4,
      "note": 49,
      "start": 164.4507,
      "duration": 0.2314,
      "velocity": 89,
      "chip": "ym2612"
    },
    {
      "channel": 5,
      "note": 59,
      "start": 164.4509,
      "duration": 0.8179,
      "velocity": 97,
      "chip": "ym2612"
    },
    {
      "channel": 4,
      "note": 50,
      "start": 164.6821,
      "duration": 0.2319,
      "velocity": 89,
      "chip": "ym2612"
    },
    {
      "channel": 2,
      "note": 90,
      "start": 164.7902,
      "duration": 0.6483,
      "velocity": 99,
      "chip": "ym2612"
    },
    {
      "channel": 4,
      "note": 54,
      "start": 164.914,
      "duration": 0.2318,
      "velocity": 89,
      "chip": "ym2612"
    },
    {
      "channel": 0,
      "note": 73,
      "start": 165.1447,
      "duration": 0.17,
      "velocity": 103,
      "chip": "ym2612"
    },
    {
      "channel": 1,
      "note": 79,
      "start": 165.1451,
      "duration": 0.1699,
      "velocity": 103,
      "chip": "ym2612"
    },
    {
      "channel": 3,
      "note": 88,
      "start": 165.1456,
      "duration": 0.1851,
      "velocity": 99,
      "chip": "ym2612"
    },
    {
      "channel": 4,
      "note": 57,
      "start": 165.1458,
      "duration": 0.2476,
      "velocity": 89,
      "chip": "ym2612"
    },
    {
      "channel": 0,
      "note": 71,
      "start": 165.392,
      "duration": 0.3866,
      "velocity": 103,
      "chip": "ym2612"
    },
    {
      "channel": 1,
      "note": 78,
      "start": 165.3925,
      "duration": 0.3864,
      "velocity": 103,
      "chip": "ym2612"
    },
    {
      "channel": 3,
      "note": 86,
      "start": 165.393,
      "duration": 0.4015,
      "velocity": 99,
      "chip": "ym2612"
    },
    {
      "channel": 4,
      "note": 62,
      "start": 165.3933,
      "duration": 0.4637,
      "velocity": 89,
      "chip": "ym2612"
    },
    {
      "channel": 5,
      "note": 59,
      "start": 165.3935,
      "duration": 0.4014,
      "velocity": 97,
      "chip": "ym2612"
    },
    {
      "channel": 2,
      "note": 88,
      "start": 165.5004,
      "duration": 0.1856,
      "velocity": 99,
      "chip": "ym2612"
    },
    {
      "channel": 2,
      "note": 86,
      "start": 165.7329,
      "duration": 0.4165,
      "velocity": 99,
      "chip": "ym2612"
    },
    {
      "channel": 0,
      "note": 72,
      "start": 165.8559,
      "duration": 0.4015,
      "velocity": 103,
      "chip": "ym2612"
    },
    {
      "channel": 1,
      "note": 76,
      "start": 165.8562,
      "duration": 0.4015,
      "velocity": 103,
      "chip": "ym2612"
    },
    {
      "channel": 3,
      "note": 88,
      "start": 165.8567,
      "duration": 0.4166,
      "velocity": 99,
      "chip": "ym2612"
    },
    {
      "channel": 4,
      "note": 47,
      "start": 165.857,
      "duration": 0.2308,
      "velocity": 89,
      "chip": "ym2612"
    },
    {
      "channel": 5,
      "note": 60,
      "start": 165.8573,
      "duration": 0.8184,
      "velocity": 97,
      "chip": "ym2612"
    },
    {
      "channel": 4,
      "note": 48,
      "start": 166.0879,
      "duration": 0.2478,
      "velocity": 89,
      "chip": "ym2612"
    },
    {
      "channel": 2,
      "note": 88,
      "start": 166.2115,
      "duration": 0.4171,
      "velocity": 99,
      "chip": "ym2612"
    },
    {
      "channel": 0,
      "note": 74,
      "start": 166.3346,
      "duration": 0.3865,
      "velocity": 103,
      "chip": "ym2612"
    },
    {
      "channel": 1,
      "note": 78,
      "start": 166.3349,
      "duration": 0.3864,
      "velocity": 103,
      "chip": "ym2612"
    },
    {
      "channel": 3,
      "note": 90,
      "start": 166.3353,
      "duration": 0.4017,
      "velocity": 99,
      "chip": "ym2612"
    },
    {
      "channel": 4,
      "note": 50,
      "start": 166.3357,
      "duration": 0.2312,
      "velocity": 89,
      "chip": "ym2612"
    },
    {
      "channel": 4,
      "note": 55,
      "start": 166.567,
      "duration": 0.2326,
      "velocity": 89,
      "chip": "ym2612"
    },
    {
      "channel": 2,
      "note": 90,
      "start": 166.6752,
      "duration": 0.417,
      "velocity": 99,
      "chip": "ym2612"
    },
    {
      "channel": 0,
      "note": 76,
      "start": 166.7985,
      "duration": 0.4015,
      "velocity": 103,
      "chip": "ym2612"
    },
    {
      "channel": 1,
      "note": 79,
      "start": 166.7989,
      "duration": 0.4014,
      "velocity": 103,
      "chip": "ym2612"
    },
    {
      "channel": 3,
      "note": 91,
      "start": 166.7993,
      "duration": 0.4166,
      "velocity": 99,
      "chip": "ym2612"
    },
    {
      "channel": 4,
      "note": 59,
      "start": 166.7997,
      "duration": 0.4788,
      "velocity": 89,
      "chip": "ym2612"
    },
    {
      "channel": 5,
      "note": 60,
      "start": 166.7998,
      "duration": 0.4166,
      "velocity": 97,
      "chip": "ym2612"
    },
    {
      "channel": 2,
      "note": 91,
      "start": 167.1542,
      "duration": 0.4169,
      "velocity": 99,
      "chip": "ym2612"
    },
    {
      "channel": 0,
      "note": 78,
      "start": 167.2773,
      "duration": 0.6183,
      "velocity": 103,
      "chip": "ym2612"
    },
    {
      "channel": 1,
      "note": 81,
      "start": 167.2777,
      "duration": 0.6181,
      "velocity": 103,
      "chip": "ym2612"
    },
    {
      "channel": 3,
      "note": 93,
      "start": 167.2782,
      "duration": 0.6487,
      "velocity": 99,
      "chip": "ym2612"
    },
    {
      "channel": 4,
      "note": 45,
      "start": 167.2784,
      "duration": 0.2313,
      "velocity": 89,
      "chip": "ym2612"
    },
    {
      "channel": 5,
      "note": 62,
      "start": 167.2787,
      "duration": 0.8185,
      "velocity": 97,
      "chip": "ym2612"
    },
    {
      "channel": 4,
      "note": 47,
      "start": 167.5098,
      "duration": 0.2319,
      "velocity": 89,
      "chip": "ym2612"
    },
    {
      "channel": 2,
      "note": 93,
      "start": 167.6332,
      "duration": 0.6335,
      "velocity": 99,
      "chip": "ym2612"
    },
    {
      "channel": 4,
      "note": 50,
      "start": 167.7417,
      "duration": 0.232,
      "velocity": 89,
      "chip": "ym2612"
    },
    {
      "channel": 0,
      "note": 74,
      "start": 167.9727,
      "duration": 0.1702,
      "velocity": 103,
      "chip": "ym2612"
    },
    {
      "channel": 1,
      "note": 78,
      "start": 167.9732,
      "duration": 0.1701,
      "velocity": 103,
      "chip": "ym2612"
    },
    {
      "channel": 3,
      "note": 90,
      "start": 167.9735,
      "duration": 0.1854,
      "velocity": 99,
      "chip": "ym2612"
    },
    {
      "channel": 4,
      "note": 54,
      "start": 167.9737,
      "duration": 0.2479,
      "velocity": 89,
      "chip": "ym2612"
    },
    {
      "channel": 0,
      "note": 71,
      "start": 168.2204,
      "duration": 0.3862,
      "velocity": 103,
      "chip": "ym2612"
    },
    {
      "channel": 1,
      "note": 74,
      "start": 168.2208,
      "duration": 0.3861,
      "velocity": 103,
      "chip": "ym2612"
    },
    {
      "channel": 3,
      "note": 86,
      "start": 168.2213,
      "duration": 0.4013,
      "velocity": 99,
      "chip": "ym2612"
    },
    {
      "channel": 4,
      "note": 59,
      "start": 168.2216,
      "duration": 0.4636,
      "velocity": 89,
      "chip": "ym2612"
    },
    {
      "channel": 5,
      "note": 50,
      "start": 168.2218,
      "duration": 0.4012,
      "velocity": 97,
      "chip": "ym2612"
    },
    {
      "channel": 2,
      "note": 90,
      "start": 168.3286,
      "duration": 0.1857,
      "velocity": 99,
      "chip": "ym2612"
    },
    {
      "channel": 2,
      "note": 86,
      "start": 168.5762,
      "duration": 0.4012,
      "velocity": 99,
      "chip": "ym2612"
    },
    {
      "channel": 0,
      "note": 76,
      "start": 168.684,
      "duration": 0.8645,
      "velocity": 103,
      "chip": "ym2612"
    },
    {
      "channel": 1,
      "note": 79,
      "start": 168.6844,
      "duration": 0.8644,
      "velocity": 103,
      "chip": "ym2612"
    },
    {
      "channel": 3,
      "note": 91,
      "start": 168.6849,
      "duration": 0.8798,
      "velocity": 99,
      "chip": "ym2612"
    },
    {
      "channel": 4,
      "note": 50,
      "start": 168.6852,
      "duration": 0.2308,
      "velocity": 89,
      "chip": "ym2612"
    },
    {
      "channel": 5,
      "note": 52,
      "start": 168.6854,
      "duration": 0.833,
      "velocity": 97,
      "chip": "ym2612"
    },
    {
      "channel": 4,
      "note": 52,
      "start": 168.9161,
      "duration": 0.2471,
      "velocity": 89,
      "chip": "ym2612"
    },
    {
      "channel": 2,
      "note": 91,
      "start": 169.0393,
      "duration": 0.8804,
      "velocity": 99,
      "chip": "ym2612"
    },
    {
      "channel": 4,
      "note": 54,
      "start": 169.1632,
      "duration": 0.2313,
      "velocity": 89,
      "chip": "ym2612"
    },
    {
      "channel": 4,
      "note": 59,
      "start": 169.3946,
      "duration": 0.2325,
      "velocity": 89,
      "chip": "ym2612"
    },
    {
      "channel": 0,
      "note": 76,
      "start": 169.6259,
      "duration": 0.4016,
      "velocity": 103,
      "chip": "ym2612"
    },
    {
      "channel": 1,
      "note": 79,
      "start": 169.6264,
      "duration": 0.4015,
      "velocity": 103,
      "chip": "ym2612"
    },
    {
      "channel": 3,
      "note": 91,
      "start": 169.6268,
      "duration": 0.4166,
      "velocity": 99,
      "chip": "ym2612"
    },
    {
      "channel": 4,
      "note": 62,
      "start": 169.6272,
      "duration": 0.4788,
      "velocity": 89,
      "chip": "ym2612"
    },
    {
      "channel": 5,
      "note": 52,
      "start": 169.6273,
      "duration": 0.4165,
      "velocity": 97,
      "chip": "ym2612"
    },
    {
      "channel": 2,
      "note": 91,
      "start": 169.9816,
      "duration": 0.4168,
      "velocity": 99,
      "chip": "ym2612"
    },
    {
      "channel": 0,
      "note": 74,
      "start": 170.1049,
      "duration": 0.6174,
      "velocity": 103,
      "chip": "ym2612"
    },
    {
      "channel": 1,
      "note": 78,
      "start": 170.1052,
      "duration": 0.6173,
      "velocity": 103,
      "chip": "ym2612"
    },
    {
      "channel": 3,
      "note": 90,
      "start": 170.1057,
      "duration": 0.6479,
      "velocity": 99,
      "chip": "ym2612"
    },
    {
      "channel": 4,
      "note": 49,
      "start": 170.106,
      "duration": 0.2311,
      "velocity": 89,
      "chip": "ym2612"
    },
    {
      "channel": 5,
      "note": 59,
      "start": 170.1062,
      "duration": 0.8176,
      "velocity": 97,
      "chip": "ym2612"
    },
    {
      "channel": 4,
      "note": 50,
      "start": 170.3371,
      "duration": 0.2315,
      "velocity": 89,
      "chip": "ym2612"
    },
    {
      "channel": 2,
      "note": 90,
      "start": 170.4603,
      "duration": 0.6485,
      "velocity": 99,
      "chip": "ym2612"
    },
    {
      "channel": 4,
      "note": 54,
      "start": 170.5687,
      "duration": 0.2319,
      "velocity": 89,
      "chip": "ym2612"
    },
    {
      "channel": 0,
      "note": 73,
      "start": 170.7996,
      "duration": 0.1701,
      "velocity": 103,
      "chip": "ym2612"
    },
    {
      "channel": 1,
      "note": 76,
      "start": 170.8001,
      "duration": 0.1699,
      "velocity": 103,
      "chip": "ym2612"
    },
    {
      "channel": 3,
      "note": 88,
      "start": 170.8003,
      "duration": 0.1854,
      "velocity": 99,
      "chip": "ym2612"
    },
    {
      "channel": 4,
      "note": 57,
      "start": 170.8006,
      "duration": 0.2476,
      "velocity": 89,
      "chip": "ym2612"
    },
    {
      "channel": 0,
      "note": 71,
      "start": 171.047,
      "duration": 0.3858,
      "velocity": 103,
      "chip": "ym2612"
    },
    {
      "channel": 1,
      "note": 74,
      "start": 171.0475,
      "duration": 0.3855,
      "velocity": 103,
      "chip": "ym2612"
    },
    {
      "channel": 3,
      "note": 86,
      "start": 171.048,
      "duration": 0.4008,
      "velocity": 99,
      "chip": "ym2612"
    },
    {
      "channel": 4,
      "note": 62,
      "start": 171.0483,
      "duration": 0.463,
      "velocity": 89,
      "chip": "ym2612"
    },
    {
      "channel": 5,
      "note": 59,
      "start": 171.0485,
      "duration": 0.4007,
      "velocity": 97,
      "chip": "ym2612"
    },
    {
      "channel": 2,
      "note": 88,
      "start": 171.1552,
      "duration": 0.1851,
      "velocity": 99,
      "chip": "ym2612"
    },
    {
      "channel": 2,
      "note": 86,
      "start": 171.4024,
      "duration": 0.4016,
      "velocity": 99,
      "chip": "ym2612"
    },
    {
      "channel": 0,
      "note": 73,
      "start": 171.5102,
      "duration": 0.8647,
      "velocity": 103,
      "chip": "ym2612"
    },
    {
      "channel": 1,
      "note": 76,
      "start": 171.5107,
      "duration": 0.8645,
      "velocity": 103,
      "chip": "ym2612"
    },
    {
      "channel": 3,
      "note": 88,
      "start": 171.5111,
      "duration": 0.88,
      "velocity": 99,
      "chip": "ym2612"
    },
    {
      "channel": 4,
      "note": 47,
      "start": 171.5114,
      "duration": 0.2312,
      "velocity": 89,
      "chip": "ym2612"
    },
    {
      "channel": 5,
      "note": 57,
      "start": 171.5116,
      "duration": 0.8335,
      "velocity": 97,
      "chip": "ym2612"
    },
    {
      "channel": 4,
      "note": 49,
      "start": 171.7427,
      "duration": 0.2474,
      "velocity": 89,
      "chip": "ym2612"
    },
    {
      "channel": 2,
      "note": 88,
      "start": 171.8661,
      "duration": 0.8799,
      "velocity": 99,
      "chip": "ym2612"
    },
    {
      "channel": 4,
      "note": 52,
      "start": 171.9901,
      "duration": 0.2312,
      "velocity": 89,
      "chip": "ym2612"
    },
    {
      "channel": 4,
      "note": 55,
      "start": 172.2214,
      "duration": 0.2322,
      "velocity": 89,
      "chip": "ym2612"
    },
    {
      "channel": 0,
      "note": 73,
      "start": 172.4524,
      "duration": 0.4014,
      "velocity": 103,
      "chip": "ym2612"
    },
    {
      "channel": 1,
      "note": 76,
      "start": 172.4529,
      "duration": 0.4012,
      "velocity": 103,
      "chip": "ym2612"
    },
    {
      "channel": 3,
      "note": 88,
      "start": 172.4533,
      "duration": 0.4165,
      "velocity": 99,
      "chip": "ym2612"
    },
    {
      "channel": 4,
      "note": 59,
      "start": 172.4537,
      "duration": 0.4785,
      "velocity": 89,
      "chip": "ym2612"
    },
    {
      "channel": 5,
      "note": 57,
      "start": 172.4538,
      "duration": 0.4164,
      "velocity": 97,
      "chip": "ym2612"
    },
    {
      "channel": 2,
      "note": 88,
      "start": 172.8079,
      "duration": 0.4169,
      "velocity": 99,
      "chip": "ym2612"
    },
    {
      "channel": 0,
      "note": 73,
      "start": 172.9311,
      "duration": 1.3279,
      "velocity": 103,
      "chip": "ym2612"
    },
    {
      "channel": 1,
      "note": 76,
      "start": 172.9315,
      "duration": 1.3277,
      "velocity": 103,
      "chip": "ym2612"
    },
    {
      "channel": 3,
      "note": 88,
      "start": 172.9318,
      "duration": 1.3432,
      "velocity": 99,
      "chip": "ym2612"
    },
    {
      "channel": 4,
      "note": 47,
      "start": 172.9322,
      "duration": 0.2311,
      "velocity": 89,
      "chip": "ym2612"
    },
    {
      "channel": 5,
      "note": 57,
      "start": 172.9323,
      "duration": 0.8179,
      "velocity": 97,
      "chip": "ym2612"
    },
    {
      "channel": 4,
      "note": 49,
      "start": 173.1634,
      "duration": 0.2321,
      "velocity": 89,
      "chip": "ym2612"
    },
    {
      "channel": 2,
      "note": 88,
      "start": 173.287,
      "duration": 1.3429,
      "velocity": 99,
      "chip": "ym2612"
    },
    {
      "channel": 4,
      "note": 52,
      "start": 173.3955,
      "duration": 0.2312,
      "velocity": 89,
      "chip": "ym2612"
    },
    {
      "channel": 4,
      "note": 55,
      "start": 173.6267,
      "duration": 0.2472,
      "velocity": 89,
      "chip": "ym2612"
    },
    {
      "channel": 4,
      "note": 59,
      "start": 173.8739,
      "duration": 0.4633,
      "velocity": 89,
      "chip": "ym2612"
    },
    {
      "channel": 5,
      "note": 57,
      "start": 173.8741,
      "duration": 0.4013,
      "velocity": 97,
      "chip": "ym2612"
    },
    {
      "channel": 0,
      "note": 76,
      "start": 174.3361,
      "duration": 0.865,
      "velocity": 103,
      "chip": "ym2612"
    },
    {
      "channel": 1,
      "note": 83,
      "start": 174.3364,
      "duration": 0.865,
      "velocity": 103,
      "chip": "ym2612"
    },
    {
      "channel": 3,
      "note": 91,
      "start": 174.3369,
      "duration": 0.8802,
      "velocity": 99,
      "chip": "ym2612"
    },
    {
      "channel": 4,
      "note": 54,
      "start": 174.3373,
      "duration": 0.2465,
      "velocity": 89,
      "chip": "ym2612"
    },
    {
      "channel": 5,
      "note": 52,
      "start": 174.3375,
      "duration": 0.8336,
      "velocity": 97,
      "chip": "ym2612"
    },
    {
      "channel": 4,
      "note": 55,
      "start": 174.5839,
      "duration": 0.2316,
      "velocity": 89,
      "chip": "ym2612"
    },
    {
      "channel": 2,
      "note": 91,
      "start": 174.6921,
      "duration": 0.88,
      "velocity": 99,
      "chip": "ym2612"
    },
    {
      "channel": 4,
      "note": 59,
      "start": 174.8155,
      "duration": 0.2318,
      "velocity": 89,
      "chip": "ym2612"
    },
    {
      "channel": 4,
      "note": 62,
      "start": 175.0473,
      "duration": 0.232,
      "velocity": 89,
      "chip": "ym2612"
    },
    {
      "channel": 0,
      "note": 76,
      "start": 175.2781,
      "duration": 0.4015,
      "velocity": 103,
      "chip": "ym2612"
    },
    {
      "channel": 1,
      "note": 83,
      "start": 175.2785,
      "duration": 0.4015,
      "velocity": 103,
      "chip": "ym2612"
    },
    {
      "channel": 3,
      "note": 91,
      "start": 175.279,
      "duration": 0.4165,
      "velocity": 99,
      "chip": "ym2612"
    },
    {
      "channel": 4,
      "note": 66,
      "start": 175.2794,
      "duration": 0.4785,
      "velocity": 89,
      "chip": "ym2612"
    },
    {
      "channel": 5,
      "note": 52,
      "start": 175.2795,
      "duration": 0.4164,
      "velocity": 97,
      "chip": "ym2612"
    },
    {
      "channel": 2,
      "note": 91,
      "start": 175.6339,
      "duration": 0.4167,
      "velocity": 99,
      "chip": "ym2612"
    },
    {
      "channel": 0,
      "note": 74,
      "start": 175.7568,
      "duration": 0.6176,
      "velocity": 103,
      "chip": "ym2612"
    },
    {
      "channel": 1,
      "note": 81,
      "start": 175.7573,
      "duration": 0.6175,
      "velocity": 103,
      "chip": "ym2612"
    },
    {
      "channel": 3,
      "note": 90,
      "start": 175.7576,
      "duration": 0.6483,
      "velocity": 99,
      "chip": "ym2612"
    },
    {
      "channel": 4,
      "note": 49,
      "start": 175.758,
      "duration": 0.2311,
      "velocity": 89,
      "chip": "ym2612"
    },
    {
      "channel": 5,
      "note": 59,
      "start": 175.7582,
      "duration": 0.8177,
      "velocity": 97,
      "chip": "ym2612"
    },
    {
      "channel": 4,
      "note": 50,
      "start": 175.9892,
      "duration": 0.2319,
      "velocity": 89,
      "chip": "ym2612"
    },
    {
      "channel": 2,
      "note": 90,
      "start": 176.1126,
      "duration": 0.6484,
      "velocity": 99,
      "chip": "ym2612"
    },
    {
      "channel": 4,
      "note": 54,
      "start": 176.2211,
      "duration": 0.247,
      "velocity": 89,
      "chip": "ym2612"
    },
    {
      "channel": 0,
      "note": 73,
      "start": 176.4671,
      "duration": 0.1544,
      "velocity": 103,
      "chip": "ym2612"
    },
    {
      "channel": 1,
      "note": 79,
      "start": 176.4675,
      "duration": 0.1544,
      "velocity": 103,
      "chip": "ym2612"
    },
    {
      "channel": 3,
      "note": 88,
      "start": 176.4679,
      "duration": 0.1696,
      "velocity": 99,
      "chip": "ym2612"
    },
    {
      "channel": 4,
      "note": 57,
      "start": 176.4682,
      "duration": 0.232,
      "velocity": 89,
      "chip": "ym2612"
    },
    {
      "channel": 0,
      "note": 71,
      "start": 176.6989,
      "duration": 0.3865,
      "velocity": 103,
      "chip": "ym2612"
    },
    {
      "channel": 1,
      "note": 78,
      "start": 176.6993,
      "duration": 0.3863,
      "velocity": 103,
      "chip": "ym2612"
    },
    {
      "channel": 3,
      "note": 86,
      "start": 176.6999,
      "duration": 0.4168,
      "velocity": 99,
      "chip": "ym2612"
    },
    {
      "channel": 4,
      "note": 62,
      "start": 176.7002,
      "duration": 0.4633,
      "velocity": 89,
      "chip": "ym2612"
    },
    {
      "channel": 5,
      "note": 59,
      "start": 176.7004,
      "duration": 0.4167,
      "velocity": 97,
      "chip": "ym2612"
    },
    {
      "channel": 2,
      "note": 88,
      "start": 176.8074,
      "duration": 0.1856,
      "velocity": 99,
      "chip": "ym2612"
    },
    {
      "channel": 2,
      "note": 86,
      "start": 177.0549,
      "duration": 0.4008,
      "velocity": 99,
      "chip": "ym2612"
    },
    {
      "channel": 0,
      "note": 72,
      "start": 177.1625,
      "duration": 0.401,
      "velocity": 103,
      "chip": "ym2612"
    },
    {
      "channel": 1,
      "note": 76,
      "start": 177.1628,
      "duration": 0.401,
      "velocity": 103,
      "chip": "ym2612"
    },
    {
      "channel": 3,
      "note": 88,
      "start": 177.1633,
      "duration": 0.4162,
      "velocity": 99,
      "chip": "ym2612"
    },
    {
      "channel": 4,
      "note": 47,
      "start": 177.1636,
      "duration": 0.2462,
      "velocity": 89,
      "chip": "ym2612"
    },
    {
      "channel": 5,
      "note": 60,
      "start": 177.1638,
      "duration": 0.8339,
      "velocity": 97,
      "chip": "ym2612"
    },
    {
      "channel": 4,
      "note": 48,
      "start": 177.4098,
      "duration": 0.2322,
      "velocity": 89,
      "chip": "ym2612"
    },
    {
      "channel": 2,
      "note": 88,
      "start": 177.5178,
      "duration": 0.4173,
      "velocity": 99,
      "chip": "ym2612"
    },
    {
      "channel": 0,
      "note": 74,
      "start": 177.641,
      "duration": 0.3865,
      "velocity": 103,
      "chip": "ym2612"
    },
    {
      "channel": 1,
      "note": 78,
      "start": 177.6414,
      "duration": 0.3864,
      "velocity": 103,
      "chip": "ym2612"
    },
    {
      "channel": 3,
      "note": 90,
      "start": 177.6418,
      "duration": 0.417,
      "velocity": 99,
      "chip": "ym2612"
    },
    {
      "channel": 4,
      "note": 50,
      "start": 177.6422,
      "duration": 0.2313,
      "velocity": 89,
      "chip": "ym2612"
    },
    {
      "channel": 4,
      "note": 55,
      "start": 177.8736,
      "duration": 0.2322,
      "velocity": 89,
      "chip": "ym2612"
    },
    {
      "channel": 2,
      "note": 90,
      "start": 177.9972,
      "duration": 0.4013,
      "velocity": 99,
      "chip": "ym2612"
    },
    {
      "channel": 0,
      "note": 76,
      "start": 178.1047,
      "duration": 0.4017,
      "velocity": 103,
      "chip": "ym2612"
    },
    {
      "channel": 1,
      "note": 79,
      "start": 178.1051,
      "duration": 0.4017,
      "velocity": 103,
      "chip": "ym2612"
    },
    {
      "channel": 3,
      "note": 91,
      "start": 178.1054,
      "duration": 0.4169,
      "velocity": 99,
      "chip": "ym2612"
    },
    {
      "channel": 4,
      "note": 59,
      "start": 178.1057,
      "duration": 0.4791,
      "velocity": 89,
      "chip": "ym2612"
    },
    {
      "channel": 5,
      "note": 60,
      "start": 178.1059,
      "duration": 0.4168,
      "velocity": 97,
      "chip": "ym2612"
    },
    {
      "channel": 2,
      "note": 91,
      "start": 178.4607,
      "duration": 0.4163,
      "velocity": 99,
      "chip": "ym2612"
    },
    {
      "channel": 0,
      "note": 78,
      "start": 178.5838,
      "duration": 0.6327,
      "velocity": 103,
      "chip": "ym2612"
    },
    {
      "channel": 1,
      "note": 81,
      "start": 178.5842,
      "duration": 0.6326,
      "velocity": 103,
      "chip": "ym2612"
    },
    {
      "channel": 3,
      "note": 93,
      "start": 178.5845,
      "duration": 0.648,
      "velocity": 99,
      "chip": "ym2612"
    },
    {
      "channel": 4,
      "note": 45,
      "start": 178.5849,
      "duration": 0.2309,
      "velocity": 89,
      "chip": "ym2612"
    },
    {
      "channel": 5,
      "note": 62,
      "start": 178.5851,
      "duration": 0.8175,
      "velocity": 97,
      "chip": "ym2612"
    },
    {
      "channel": 4,
      "note": 47,
      "start": 178.8159,
      "duration": 0.2315,
      "velocity": 89,
      "chip": "ym2612"
    },
    {
      "channel": 2,
      "note": 93,
      "start": 178.939,
      "duration": 0.6486,
      "velocity": 99,
      "chip": "ym2612"
    },
    {
      "channel": 4,
      "note": 50,
      "start": 179.0475,
      "duration": 0.2475,
      "velocity": 89,
      "chip": "ym2612"
    },
    {
      "channel": 0,
      "note": 74,
      "start": 179.2938,
      "duration": 0.1547,
      "velocity": 103,
      "chip": "ym2612"
    },
    {
      "channel": 1,
      "note": 78,
      "start": 179.2943,
      "duration": 0.1545,
      "velocity": 103,
      "chip": "ym2612"
    },
    {
      "channel": 3,
      "note": 90,
      "start": 179.2947,
      "duration": 0.1697,
      "velocity": 99,
      "chip": "ym2612"
    },
    {
      "channel": 4,
      "note": 54,
      "start": 179.2949,
      "duration": 0.2321,
      "velocity": 89,
      "chip": "ym2612"
    },
    {
      "channel": 0,
      "note": 71,
      "start": 179.5257,
      "duration": 0.3862,
      "velocity": 103,
      "chip": "ym2612"
    },
    {
      "channel": 1,
      "note": 74,
      "start": 179.5262,
      "duration": 0.3861,
      "velocity": 103,
      "chip": "ym2612"
    },
    {
      "channel": 3,
      "note": 86,
      "start": 179.5267,
      "duration": 0.4165,
      "velocity": 99,
      "chip": "ym2612"
    },
    {
      "channel": 4,
      "note": 59,
      "start": 179.527,
      "duration": 0.4632,
      "velocity": 89,
      "chip": "ym2612"
    },
    {
      "channel": 5,
      "note": 50,
      "start": 179.5272,
      "duration": 0.4163,
      "velocity": 97,
      "chip": "ym2612"
    },
    {
      "channel": 2,
      "note": 90,
      "start": 179.634,
      "duration": 0.1856,
      "velocity": 99,
      "chip": "ym2612"
    },
    {
      "channel": 2,
      "note": 86,
      "start": 179.8815,
      "duration": 0.4009,
      "velocity": 99,
      "chip": "ym2612"
    },
    {
      "channel": 0,
      "note": 76,
      "start": 179.9891,
      "duration": 0.8651,
      "velocity": 103,
      "chip": "ym2612"
    },
    {
      "channel": 1,
      "note": 79,
      "start": 179.9894,
      "duration": 0.8651,
      "velocity": 103,
      "chip": "ym2612"
    },
    {
      "channel": 3,
      "note": 91,
      "start": 179.9899,
      "duration": 0.8958,
      "velocity": 99,
      "chip": "ym2612"
    },
    {
      "channel": 4,
      "note": 50,
      "start": 179.9902,
      "duration": 0.2463,
      "velocity": 89,
      "chip": "ym2612"
    },
    {
      "channel": 5,
      "note": 52,
      "start": 179.9905,
      "duration": 0.8338,
      "velocity": 97,
      "chip": "ym2612"
    },
    {
      "channel": 4,
      "note": 52,
      "start": 180.2365,
      "duration": 0.2321,
      "velocity": 89,
      "chip": "ym2612"
    },
    {
      "channel": 2,
      "note": 91,
      "start": 180.3447,
      "duration": 0.881,
      "velocity": 99,
      "chip": "ym2612"
    },
    {
      "channel": 4,
      "note": 54,
      "start": 180.4687,
      "duration": 0.2315,
      "velocity": 89,
      "chip": "ym2612"
    },
    {
      "channel": 4,
      "note": 59,
      "start": 180.7002,
      "duration": 0.2324,
      "velocity": 89,
      "chip": "ym2612"
    },
    {
      "channel": 0,
      "note": 76,
      "start": 180.9315,
      "duration": 0.402,
      "velocity": 103,
      "chip": "ym2612"
    },
    {
      "channel": 1,
      "note": 79,
      "start": 180.9318,
      "duration": 0.402,
      "velocity": 103,
      "chip": "ym2612"
    },
    {
      "channel": 3,
      "note": 91,
      "start": 180.9324,
      "duration": 0.4171,
      "velocity": 99,
      "chip": "ym2612"
    },
    {
      "channel": 4,
      "note": 62,
      "start": 180.9327,
      "duration": 0.4793,
      "velocity": 89,
      "chip": "ym2612"
    },
    {
      "channel": 5,
      "note": 52,
      "start": 180.9329,
      "duration": 0.417,
      "velocity": 97,
      "chip": "ym2612"
    },
    {
      "channel": 2,
      "note": 91,
      "start": 181.2876,
      "duration": 0.4167,
      "velocity": 99,
      "chip": "ym2612"
    },
    {
      "channel": 0,
      "note": 74,
      "start": 181.4109,
      "duration": 0.633,
      "velocity": 103,
      "chip": "ym2612"
    },
    {
      "channel": 1,
      "note": 78,
      "start": 181.4114,
      "duration": 0.6328,
      "velocity": 103,
      "chip": "ym2612"
    },
    {
      "channel": 3,
      "note": 90,
      "start": 181.4118,
      "duration": 0.6482,
      "velocity": 99,
      "chip": "ym2612"
    },
    {
      "channel": 4,
      "note": 49,
      "start": 181.4121,
      "duration": 0.2309,
      "velocity": 89,
      "chip": "ym2612"
    },
    {
      "channel": 5,
      "note": 59,
      "start": 181.4123,
      "duration": 0.8177,
      "velocity": 97,
      "chip": "ym2612"
    },
    {
      "channel": 4,
      "note": 50,
      "start": 181.6432,
      "duration": 0.2318,
      "velocity": 89,
      "chip": "ym2612"
    },
    {
      "channel": 2,
      "note": 90,
      "start": 181.7666,
      "duration": 0.6483,
      "velocity": 99,
      "chip": "ym2612"
    },
    {
      "channel": 4,
      "note": 54,
      "start": 181.8749,
      "duration": 0.2475,
      "velocity": 89,
      "chip": "ym2612"
    },
    {
      "channel": 0,
      "note": 73,
      "start": 182.1213,
      "duration": 0.1544,
      "velocity": 103,
      "chip": "ym2612"
    },
    {
      "channel": 1,
      "note": 76,
      "start": 182.1218,
      "duration": 0.1543,
      "velocity": 103,
      "chip": "ym2612"
    },
    {
      "channel": 3,
      "note": 88,
      "start": 182.1223,
      "duration": 0.1696,
      "velocity": 99,
      "chip": "ym2612"
    },
    {
      "channel": 4,
      "note": 57,
      "start": 182.1224,
      "duration": 0.232,
      "velocity": 89,
      "chip": "ym2612"
    },
    {
      "channel": 0,
      "note": 71,
      "start": 182.3534,
      "duration": 0.3856,
      "velocity": 103,
      "chip": "ym2612"
    },
    {
      "channel": 1,
      "note": 74,
      "start": 182.3537,
      "duration": 0.3856,
      "velocity": 103,
      "chip": "ym2612"
    },
    {
      "channel": 3,
      "note": 86,
      "start": 182.3542,
      "duration": 0.4161,
      "velocity": 99,
      "chip": "ym2612"
    },
    {
      "channel": 4,
      "note": 62,
      "start": 182.3545,
      "duration": 0.4627,
      "velocity": 89,
      "chip": "ym2612"
    },
    {
      "channel": 5,
      "note": 59,
      "start": 182.3546,
      "duration": 0.416,
      "velocity": 97,
      "chip": "ym2612"
    },
    {
      "channel": 2,
      "note": 88,
      "start": 182.4766,
      "duration": 0.17,
      "velocity": 99,
      "chip": "ym2612"
    },
    {
      "channel": 2,
      "note": 86,
      "start": 182.7088,
      "duration": 0.4013,
      "velocity": 99,
      "chip": "ym2612"
    },
    {
      "channel": 0,
      "note": 73,
      "start": 182.8161,
      "duration": 0.8653,
      "velocity": 103,
      "chip": "ym2612"
    },
    {
      "channel": 1,
      "note": 76,
      "start": 182.8165,
      "duration": 0.8653,
      "velocity": 103,
      "chip": "ym2612"
    },
    {
      "channel": 3,
      "note": 88,
      "start": 182.817,
      "duration": 0.896,
      "velocity": 99,
      "chip": "ym2612"
    },
    {
      "channel": 4,
      "note": 47,
      "start": 182.8173,
      "duration": 0.2468,
      "velocity": 89,
      "chip": "ym2612"
    },
    {
      "channel": 5,
      "note": 57,
      "start": 182.8175,
      "duration": 0.8339,
      "velocity": 97,
      "chip": "ym2612"
    },
    {
      "channel": 4,
      "note": 49,
      "start": 183.0641,
      "duration": 0.2318,
      "velocity": 89,
      "chip": "ym2612"
    },
    {
      "channel": 2,
      "note": 88,
      "start": 183.1722,
      "duration": 0.8965,
      "velocity": 99,
      "chip": "ym2612"
    },
    {
      "channel": 4,
      "note": 52,
      "start": 183.296,
      "duration": 0.2315,
      "velocity": 89,
      "chip": "ym2612"
    },
    {
      "channel": 4,
      "note": 55,
      "start": 183.5276,
      "duration": 0.2324,
      "velocity": 89,
      "chip": "ym2612"
    },
    {
      "channel": 0,
      "note": 73,
      "start": 183.7588,
      "duration": 0.4023,
      "velocity": 103,
      "chip": "ym2612"
    },
    {
      "channel": 1,
      "note": 76,
      "start": 183.7592,
      "duration": 0.4022,
      "velocity": 103,
      "chip": "ym2612"
    },
    {
      "channel": 3,
      "note": 88,
      "start": 183.7598,
      "duration": 0.4172,
      "velocity": 99,
      "chip": "ym2612"
    },
    {
      "channel": 4,
      "note": 59,
      "start": 183.7601,
      "duration": 0.4791,
      "velocity": 89,
      "chip": "ym2612"
    },
    {
      "channel": 5,
      "note": 57,
      "start": 183.7602,
      "duration": 0.417,
      "velocity": 97,
      "chip": "ym2612"
    },
    {
      "channel": 2,
      "note": 88,
      "start": 184.1152,
      "duration": 0.4161,
      "velocity": 99,
      "chip": "ym2612"
    },
    {
      "channel": 0,
      "note": 73,
      "start": 184.2382,
      "duration": 1.3271,
      "velocity": 103,
      "chip": "ym2612"
    },
    {
      "channel": 1,
      "note": 76,
      "start": 184.2385,
      "duration": 1.3271,
      "velocity": 103,
      "chip": "ym2612"
    },
    {
      "channel": 3,
      "note": 88,
      "start": 184.2389,
      "duration": 1.3579,
      "velocity": 99,
      "chip": "ym2612"
    },
    {
      "channel": 4,
      "note": 47,
      "start": 184.2392,
      "duration": 0.2309,
      "velocity": 89,
      "chip": "ym2612"
    },
    {
      "channel": 5,
      "note": 57,
      "start": 184.2394,
      "duration": 0.8177,
      "velocity": 97,
      "chip": "ym2612"
    },
    {
      "channel": 4,
      "note": 49,
      "start": 184.4701,
      "duration": 0.2316,
      "velocity": 89,
      "chip": "ym2612"
    },
    {
      "channel": 2,
      "note": 88,
      "start": 184.5937,
      "duration": 1.3579,
      "velocity": 99,
      "chip": "ym2612"
    },
    {
      "channel": 4,
      "note": 52,
      "start": 184.7018,
      "duration": 0.2469,
      "velocity": 89,
      "chip": "ym2612"
    },
    {
      "channel": 4,
      "note": 55,
      "start": 184.9488,
      "duration": 0.2318,
      "velocity": 89,
      "chip": "ym2612"
    },
    {
      "channel": 4,
      "note": 59,
      "start": 185.1806,
      "duration": 0.4646,
      "velocity": 89,
      "chip": "ym2612"
    },
    {
      "channel": 5,
      "note": 57,
      "start": 185.1807,
      "duration": 0.4164,
      "velocity": 97,
      "chip": "ym2612"
    },
    {
      "channel": 4,
      "note": 54,
      "start": 185.6452,
      "duration": 0.2454,
      "velocity": 89,
      "chip": "ym2612"
    },
    {
      "channel": 5,
      "note": 52,
      "start": 185.6455,
      "duration": 0.8322,
      "velocity": 97,
      "chip": "ym2612"
    },
    {
      "channel": 3,
      "note": 54,
      "start": 185.7669,
      "duration": 0.2317,
      "velocity": 89,
      "chip": "ym2612"
    },
    {
      "channel": 4,
      "note": 55,
      "start": 185.8906,
      "duration": 0.2319,
      "velocity": 89,
      "chip": "ym2612"
    },
    {
      "channel": 3,
      "note": 55,
      "start": 185.9986,
      "duration": 0.2474,
      "velocity": 89,
      "chip": "ym2612"
    },
    {
      "channel": 4,
      "note": 59,
      "start": 186.1225,
      "duration": 0.4631,
      "velocity": 89,
      "chip": "ym2612"
    },
    {
      "channel": 3,
      "note": 59,
      "start": 186.246,
      "duration": 0.4631,
      "velocity": 89,
      "chip": "ym2612"
    },
    {
      "channel": 4,
      "note": 62,
      "start": 186.5857,
      "duration": 0.4786,
      "velocity": 89,
      "chip": "ym2612"
    },
    {
      "channel": 5,
      "note": 52,
      "start": 186.5858,
      "duration": 0.4166,
      "velocity": 97,
      "chip": "ym2612"
    },
    {
      "channel": 3,
      "note": 62,
      "start": 186.7092,
      "duration": 0.4787,
      "velocity": 89,
      "chip": "ym2612"
    },
    {
      "channel": 4,
      "note": 61,
      "start": 187.0644,
      "duration": 1.4209,
      "velocity": 89,
      "chip": "ym2612"
    },
    {
      "channel": 5,
      "note": 52,
      "start": 187.0645,
      "duration": 0.8183,
      "velocity": 97,
      "chip": "ym2612"
    },
    {
      "channel": 3,
      "note": 61,
      "start": 187.1878,
      "duration": 1.4051,
      "velocity": 89,
      "chip": "ym2612"
    },
    {
      "channel": 5,
      "note": 52,
      "start": 188.0063,
      "duration": 0.4174,
      "velocity": 97,
      "chip": "ym2612"
    },
    {
      "channel": 4,
      "note": 54,
      "start": 188.4853,
      "duration": 0.2312,
      "velocity": 89,
      "chip": "ym2612"
    },
    {
      "channel": 5,
      "note": 52,
      "start": 188.4854,
      "duration": 0.8181,
      "velocity": 97,
      "chip": "ym2612"
    },
    {
      "channel": 3,
      "note": 54,
      "start": 188.5931,
      "duration": 0.2313,
      "velocity": 89,
      "chip": "ym2612"
    },
    {
      "channel": 4,
      "note": 55,
      "start": 188.7164,
      "duration": 0.2317,
      "velocity": 89,
      "chip": "ym2612"
    },
    {
      "channel": 3,
      "note": 55,
      "start": 188.8244,
      "duration": 0.2471,
      "velocity": 89,
      "chip": "ym2612"
    },
    {
      "channel": 4,
      "note": 59,
      "start": 188.9482,
      "duration": 0.4789,
      "velocity": 89,
      "chip": "ym2612"
    },
    {
      "channel": 3,
      "note": 59,
      "start": 189.0715,
      "duration": 0.4634,
      "velocity": 89,
      "chip": "ym2612"
    },
    {
      "channel": 4,
      "note": 64,
      "start": 189.4271,
      "duration": 0.4631,
      "velocity": 89,
      "chip": "ym2612"
    },
    {
      "channel": 5,
      "note": 52,
      "start": 189.4273,
      "duration": 0.4012,
      "velocity": 97,
      "chip": "ym2612"
    },
    {
      "channel": 3,
      "note": 64,
      "start": 189.535,
      "duration": 0.479,
      "velocity": 89,
      "chip": "ym2612"
    },
    {
      "channel": 4,
      "note": 61,
      "start": 189.8903,
      "duration": 0.4787,
      "velocity": 89,
      "chip": "ym2612"
    },
    {
      "channel": 5,
      "note": 52,
      "start": 189.8905,
      "duration": 0.8182,
      "velocity": 97,
      "chip": "ym2612"
    },
    {
      "channel": 3,
      "note": 61,
      "start": 190.014,
      "duration": 0.4628,
      "velocity": 89,
      "chip": "ym2612"
    },
    {
      "channel": 4,
      "note": 66,
      "start": 190.369,
      "duration": 0.9409,
      "velocity": 89,
      "chip": "ym2612"
    },
    {
      "channel": 3,
      "note": 66,
      "start": 190.4769,
      "duration": 0.941,
      "velocity": 89,
      "chip": "ym2612"
    },
    {
      "channel": 5,
      "note": 52,
      "start": 190.832,
      "duration": 0.4165,
      "velocity": 97,
      "chip": "ym2612"
    },
    {
      "channel": 4,
      "note": 54,
      "start": 191.31,
      "duration": 0.2318,
      "velocity": 89,
      "chip": "ym2612"
    },
    {
      "channel": 5,
      "note": 52,
      "start": 191.3101,
      "duration": 0.8182,
      "velocity": 97,
      "chip": "ym2612"
    },
    {
      "channel": 3,
      "note": 54,
      "start": 191.4179,
      "duration": 0.2318,
      "velocity": 89,
      "chip": "ym2612"
    },
    {
      "channel": 4,
      "note": 55,
      "start": 191.5418,
      "duration": 0.2313,
      "velocity": 89,
      "chip": "ym2612"
    },
    {
      "channel": 3,
      "note": 55,
      "start": 191.6497,
      "duration": 0.2467,
      "velocity": 89,
      "chip": "ym2612"
    },
    {
      "channel": 4,
      "note": 59,
      "start": 191.7732,
      "duration": 0.4787,
      "velocity": 89,
      "chip": "ym2612"
    },
    {
      "channel": 3,
      "note": 59,
      "start": 191.8964,
      "duration": 0.4634,
      "velocity": 89,
      "chip": "ym2612"
    },
    {
      "channel": 4,
      "note": 62,
      "start": 192.2519,
      "duration": 0.4636,
      "velocity": 89,
      "chip": "ym2612"
    },
    {
      "channel": 5,
      "note": 52,
      "start": 192.252,
      "duration": 0.4017,
      "velocity": 97,
      "chip": "ym2612"
    },
    {
      "channel": 3,
      "note": 62,
      "start": 192.3598,
      "duration": 0.4792,
      "velocity": 89,
      "chip": "ym2612"
    },
    {
      "channel": 4,
      "note": 61,
      "start": 192.7155,
      "duration": 1.4212,
      "velocity": 89,
      "chip": "ym2612"
    },
    {
      "channel": 5,
      "note": 52,
      "start": 192.7157,
      "duration": 0.8338,
      "velocity": 97,
      "chip": "ym2612"
    },
    {
      "channel": 3,
      "note": 61,
      "start": 192.8391,
      "duration": 1.4057,
      "velocity": 89,
      "chip": "ym2612"
    },
    {
      "channel": 5,
      "note": 52,
      "start": 193.6574,
      "duration": 0.4173,
      "velocity": 97,
      "chip": "ym2612"
    },
    {
      "channel": 4,
      "note": 54,
      "start": 194.1368,
      "duration": 0.2317,
      "velocity": 89,
      "chip": "ym2612"
    },
    {
      "channel": 5,
      "note": 52,
      "start": 194.1369,
      "duration": 0.819,
      "velocity": 97,
      "chip": "ym2612"
    },
    {
      "channel": 3,
      "note": 54,
      "start": 194.2448,
      "duration": 0.2473,
      "velocity": 89,
      "chip": "ym2612"
    },
    {
      "channel": 4,
      "note": 55,
      "start": 194.3685,
      "duration": 0.232,
      "velocity": 89,
      "chip": "ym2612"
    },
    {
      "channel": 3,
      "note": 55,
      "start": 194.4922,
      "duration": 0.2319,
      "velocity": 89,
      "chip": "ym2612"
    },
    {
      "channel": 4,
      "note": 59,
      "start": 194.6006,
      "duration": 0.4791,
      "velocity": 89,
      "chip": "ym2612"
    },
    {
      "channel": 3,
      "note": 59,
      "start": 194.724,
      "duration": 0.4637,
      "velocity": 89,
      "chip": "ym2612"
    },
    {
      "channel": 4,
      "note": 62,
      "start": 195.0798,
      "duration": 0.4638,
      "velocity": 89,
      "chip": "ym2612"
    },
    {
      "channel": 5,
      "note": 52,
      "start": 195.0799,
      "duration": 0.402,
      "velocity": 97,
      "chip": "ym2612"
    },
    {
      "channel": 3,
      "note": 62,
      "start": 195.1878,
      "duration": 0.4795,
      "velocity": 89,
      "chip": "ym2612"
    },
    {
      "channel": 4,
      "note": 61,
      "start": 195.5436,
      "duration": 0.4791,
      "velocity": 89,
      "chip": "ym2612"
    },
    {
      "channel": 5,
      "note": 52,
      "start": 195.5438,
      "duration": 0.8337,
      "velocity": 97,
      "chip": "ym2612"
    },
    {
      "channel": 3,
      "note": 61,
      "start": 195.6673,
      "duration": 0.4633,
      "velocity": 89,
      "chip": "ym2612"
    },
    {
      "channel": 4,
      "note": 57,
      "start": 196.0228,
      "duration": 0.9409,
      "velocity": 89,
      "chip": "ym2612"
    },
    {
      "channel": 3,
      "note": 57,
      "start": 196.1307,
      "duration": 0.357,
      "velocity": 1,
      "chip": "ym2612"
    },
    {
      "channel": 1,
      "note": 83,
      "start": 196.4871,
      "duration": 0.3985,
      "velocity": 127,
      "chip": "ym2612"
    },
    {
      "channel": 3,
      "note": 71,
      "start": 196.489,
      "duration": 0.397,
      "velocity": 94,
      "chip": "ym2612"
    },
    {
      "channel": 5,
      "note": 52,
      "start": 196.4892,
      "duration": 0.4124,
      "velocity": 97,
      "chip": "ym2612"
    },
    {
      "channel": 0,
      "note": 83,
      "start": 196.6099,
      "duration": 0.3836,
      "velocity": 127,
      "chip": "ym2612"
    },
    {
      "channel": 2,
      "note": 71,
      "start": 196.8415,
      "duration": 0.384,
      "velocity": 94,
      "chip": "ym2612"
    },
    {
      "channel": 1,
      "note": 88,
      "start": 196.9629,
      "duration": 0.6171,
      "velocity": 127,
      "chip": "ym2612"
    },
    {
      "channel": 3,
      "note": 76,
      "start": 196.9634,
      "duration": 0.617,
      "velocity": 94,
      "chip": "ym2612"
    },
    {
      "channel": 4,
      "note": 54,
      "start": 196.9638,
      "duration": 0.2312,
      "velocity": 89,
      "chip": "ym2612"
    },
    {
      "channel": 5,
      "note": 52,
      "start": 196.9639,
      "duration": 0.8178,
      "velocity": 97,
      "chip": "ym2612"
    },
    {
      "channel": 0,
      "note": 88,
      "start": 197.0708,
      "duration": 0.6325,
      "velocity": 127,
      "chip": "ym2612"
    },
    {
      "channel": 4,
      "note": 55,
      "start": 197.195,
      "duration": 0.2317,
      "velocity": 89,
      "chip": "ym2612"
    },
    {
      "channel": 2,
      "note": 76,
      "start": 197.3184,
      "duration": 0.6169,
      "velocity": 94,
      "chip": "ym2612"
    },
    {
      "channel": 4,
      "note": 59,
      "start": 197.4267,
      "duration": 0.4787,
      "velocity": 89,
      "chip": "ym2612"
    },
    {
      "channel": 1,
      "note": 90,
      "start": 197.6575,
      "duration": 0.1693,
      "velocity": 127,
      "chip": "ym2612"
    },
    {
      "channel": 3,
      "note": 78,
      "start": 197.6579,
      "duration": 0.1692,
      "velocity": 94,
      "chip": "ym2612"
    },
    {
      "channel": 0,
      "note": 90,
      "start": 197.7809,
      "duration": 0.154,
      "velocity": 127,
      "chip": "ym2612"
    },
    {
      "channel": 1,
      "note": 88,
      "start": 197.9045,
      "duration": 0.3859,
      "velocity": 127,
      "chip": "ym2612"
    },
    {
      "channel": 3,
      "note": 76,
      "start": 197.9051,
      "duration": 0.3856,
      "velocity": 94,
      "chip": "ym2612"
    },
    {
      "channel": 4,
      "note": 62,
      "start": 197.9055,
      "duration": 0.4631,
      "velocity": 89,
      "chip": "ym2612"
    },
    {
      "channel": 5,
      "note": 52,
      "start": 197.9056,
      "duration": 0.401,
      "velocity": 97,
      "chip": "ym2612"
    },
    {
      "channel": 0,
      "note": 88,
      "start": 198.0126,
      "duration": 0.4011,
      "velocity": 127,
      "chip": "ym2612"
    },
    {
      "channel": 2,
      "note": 78,
      "start": 198.0131,
      "duration": 0.1689,
      "velocity": 94,
      "chip": "ym2612"
    },
    {
      "channel": 2,
      "note": 76,
      "start": 198.2597,
      "duration": 0.3859,
      "velocity": 94,
      "chip": "ym2612"
    },
    {
      "channel": 1,
      "note": 86,
      "start": 198.3678,
      "duration": 0.7563,
      "velocity": 127,
      "chip": "ym2612"
    },
    {
      "channel": 3,
      "note": 74,
      "start": 198.3683,
      "duration": 0.7563,
      "velocity": 94,
      "chip": "ym2612"
    },
    {
      "channel": 4,
      "note": 61,
      "start": 198.3686,
      "duration": 1.4201,
      "velocity": 89,
      "chip": "ym2612"
    },
    {
      "channel": 5,
      "note": 52,
      "start": 198.3689,
      "duration": 0.833,
      "velocity": 97,
      "chip": "ym2612"
    },
    {
      "channel": 0,
      "note": 86,
      "start": 198.4912,
      "duration": 0.7407,
      "velocity": 127,
      "chip": "ym2612"
    },
    {
      "channel": 2,
      "note": 74,
      "start": 198.7228,
      "duration": 0.7408,
      "velocity": 94,
      "chip": "ym2612"
    },
    {
      "channel": 1,
      "note": 83,
      "start": 199.3096,
      "duration": 0.4009,
      "velocity": 127,
      "chip": "ym2612"
    },
    {
      "channel": 3,
      "note": 71,
      "start": 199.3101,
      "duration": 0.4009,
      "velocity": 94,
      "chip": "ym2612"
    },
    {
      "channel": 5,
      "note": 52,
      "start": 199.3103,
      "duration": 0.4163,
      "velocity": 97,
      "chip": "ym2612"
    },
    {
      "channel": 0,
      "note": 83,
      "start": 199.4327,
      "duration": 0.3858,
      "velocity": 127,
      "chip": "ym2612"
    },
    {
      "channel": 2,
      "note": 71,
      "start": 199.6646,
      "duration": 0.4013,
      "velocity": 94,
      "chip": "ym2612"
    },
    {
      "channel": 1,
      "note": 88,
      "start": 199.788,
      "duration": 0.6174,
      "velocity": 127,
      "chip": "ym2612"
    },
    {
      "channel": 3,
      "note": 76,
      "start": 199.7885,
      "duration": 0.6173,
      "velocity": 94,
      "chip": "ym2612"
    },
    {
      "channel": 4,
      "note": 54,
      "start": 199.7888,
      "duration": 0.2315,
      "velocity": 89,
      "chip": "ym2612"
    },
    {
      "channel": 5,
      "note": 52,
      "start": 199.7889,
      "duration": 0.8178,
      "velocity": 97,
      "chip": "ym2612"
    },
    {
      "channel": 0,
      "note": 88,
      "start": 199.8963,
      "duration": 0.6322,
      "velocity": 127,
      "chip": "ym2612"
    },
    {
      "channel": 4,
      "note": 55,
      "start": 200.0202,
      "duration": 0.2318,
      "velocity": 89,
      "chip": "ym2612"
    },
    {
      "channel": 2,
      "note": 76,
      "start": 200.1437,
      "duration": 0.617,
      "velocity": 94,
      "chip": "ym2612"
    },
    {
      "channel": 4,
      "note": 59,
      "start": 200.2521,
      "duration": 0.4786,
      "velocity": 89,
      "chip": "ym2612"
    },
    {
      "channel": 1,
      "note": 90,
      "start": 200.4982,
      "duration": 0.1537,
      "velocity": 127,
      "chip": "ym2612"
    },
    {
      "channel": 3,
      "note": 78,
      "start": 200.4986,
      "duration": 0.1536,
      "velocity": 94,
      "chip": "ym2612"
    },
    {
      "channel": 0,
      "note": 90,
      "start": 200.606,
      "duration": 0.1542,
      "velocity": 127,
      "chip": "ym2612"
    },
    {
      "channel": 1,
      "note": 91,
      "start": 200.7298,
      "duration": 0.386,
      "velocity": 127,
      "chip": "ym2612"
    },
    {
      "channel": 3,
      "note": 79,
      "start": 200.7304,
      "duration": 0.3856,
      "velocity": 94,
      "chip": "ym2612"
    },
    {
      "channel": 4,
      "note": 64,
      "start": 200.7307,
      "duration": 0.4632,
      "velocity": 89,
      "chip": "ym2612"
    },
    {
      "channel": 5,
      "note": 52,
      "start": 200.7309,
      "duration": 0.4011,
      "velocity": 97,
      "chip": "ym2612"
    },
    {
      "channel": 0,
      "note": 91,
      "start": 200.8378,
      "duration": 0.4013,
      "velocity": 127,
      "chip": "ym2612"
    },
    {
      "channel": 2,
      "note": 78,
      "start": 200.8384,
      "duration": 0.169,
      "velocity": 94,
      "chip": "ym2612"
    },
    {
      "channel": 2,
      "note": 79,
      "start": 201.0849,
      "duration": 0.386,
      "velocity": 94,
      "chip": "ym2612"
    },
    {
      "channel": 1,
      "note": 93,
      "start": 201.1932,
      "duration": 0.7561,
      "velocity": 127,
      "chip": "ym2612"
    },
    {
      "channel": 3,
      "note": 81,
      "start": 201.1937,
      "duration": 0.7562,
      "velocity": 94,
      "chip": "ym2612"
    },
    {
      "channel": 4,
      "note": 61,
      "start": 201.1941,
      "duration": 0.4781,
      "velocity": 89,
      "chip": "ym2612"
    },
    {
      "channel": 5,
      "note": 52,
      "start": 201.1943,
      "duration": 0.8329,
      "velocity": 97,
      "chip": "ym2612"
    },
    {
      "channel": 0,
      "note": 93,
      "start": 201.3167,
      "duration": 0.7405,
      "velocity": 127,
      "chip": "ym2612"
    },
    {
      "channel": 2,
      "note": 81,
      "start": 201.5485,
      "duration": 0.741,
      "velocity": 94,
      "chip": "ym2612"
    },
    {
      "channel": 4,
      "note": 66,
      "start": 201.6722,
      "duration": 0.9427,
      "velocity": 89,
      "chip": "ym2612"
    },
    {
      "channel": 1,
      "note": 83,
      "start": 202.1351,
      "duration": 0.4016,
      "velocity": 127,
      "chip": "ym2612"
    },
    {
      "channel": 3,
      "note": 71,
      "start": 202.1355,
      "duration": 0.4015,
      "velocity": 94,
      "chip": "ym2612"
    },
    {
      "channel": 5,
      "note": 52,
      "start": 202.1358,
      "duration": 0.4169,
      "velocity": 97,
      "chip": "ym2612"
    },
    {
      "channel": 0,
      "note": 83,
      "start": 202.2585,
      "duration": 0.3861,
      "velocity": 127,
      "chip": "ym2612"
    },
    {
      "channel": 2,
      "note": 71,
      "start": 202.4905,
      "duration": 0.4013,
      "velocity": 94,
      "chip": "ym2612"
    },
    {
      "channel": 1,
      "note": 88,
      "start": 202.6141,
      "duration": 0.617,
      "velocity": 127,
      "chip": "ym2612"
    },
    {
      "channel": 3,
      "note": 76,
      "start": 202.6146,
      "duration": 0.6169,
      "velocity": 94,
      "chip": "ym2612"
    },
    {
      "channel": 4,
      "note": 54,
      "start": 202.6149,
      "duration": 0.2312,
      "velocity": 89,
      "chip": "ym2612"
    },
    {
      "channel": 5,
      "note": 52,
      "start": 202.615,
      "duration": 0.8179,
      "velocity": 97,
      "chip": "ym2612"
    },
    {
      "channel": 0,
      "note": 88,
      "start": 202.7221,
      "duration": 0.6325,
      "velocity": 127,
      "chip": "ym2612"
    },
    {
      "channel": 4,
      "note": 55,
      "start": 202.8461,
      "duration": 0.2317,
      "velocity": 89,
      "chip": "ym2612"
    },
    {
      "channel": 2,
      "note": 76,
      "start": 202.9694,
      "duration": 0.6172,
      "velocity": 94,
      "chip": "ym2612"
    },
    {
      "channel": 4,
      "note": 59,
      "start": 203.0779,
      "duration": 0.4786,
      "velocity": 89,
      "chip": "ym2612"
    },
    {
      "channel": 1,
      "note": 90,
      "start": 203.324,
      "duration": 0.1539,
      "velocity": 127,
      "chip": "ym2612"
    },
    {
      "channel": 3,
      "note": 78,
      "start": 203.3244,
      "duration": 0.1539,
      "velocity": 94,
      "chip": "ym2612"
    },
    {
      "channel": 0,
      "note": 90,
      "start": 203.4322,
      "duration": 0.154,
      "velocity": 127,
      "chip": "ym2612"
    },
    {
      "channel": 1,
      "note": 91,
      "start": 203.5557,
      "duration": 0.3859,
      "velocity": 127,
      "chip": "ym2612"
    },
    {
      "channel": 3,
      "note": 79,
      "start": 203.5563,
      "duration": 0.3857,
      "velocity": 94,
      "chip": "ym2612"
    },
    {
      "channel": 4,
      "note": 62,
      "start": 203.5566,
      "duration": 0.4629,
      "velocity": 89,
      "chip": "ym2612"
    },
    {
      "channel": 5,
      "note": 52,
      "start": 203.5567,
      "duration": 0.4163,
      "velocity": 97,
      "chip": "ym2612"
    },
    {
      "channel": 0,
      "note": 91,
      "start": 203.6637,
      "duration": 0.4012,
      "velocity": 127,
      "chip": "ym2612"
    },
    {
      "channel": 2,
      "note": 78,
      "start": 203.6642,
      "duration": 0.1693,
      "velocity": 94,
      "chip": "ym2612"
    },
    {
      "channel": 2,
      "note": 79,
      "start": 203.9112,
      "duration": 0.3857,
      "velocity": 94,
      "chip": "ym2612"
    },
    {
      "channel": 1,
      "note": 90,
      "start": 204.0188,
      "duration": 0.6329,
      "velocity": 127,
      "chip": "ym2612"
    },
    {
      "channel": 3,
      "note": 78,
      "start": 204.0193,
      "duration": 0.6327,
      "velocity": 94,
      "chip": "ym2612"
    },
    {
      "channel": 4,
      "note": 61,
      "start": 204.0197,
      "duration": 1.4214,
      "velocity": 89,
      "chip": "ym2612"
    },
    {
      "channel": 5,
      "note": 52,
      "start": 204.0199,
      "duration": 0.8337,
      "velocity": 97,
      "chip": "ym2612"
    },
    {
      "channel": 0,
      "note": 90,
      "start": 204.1425,
      "duration": 0.6328,
      "velocity": 127,
      "chip": "ym2612"
    },
    {
      "channel": 2,
      "note": 78,
      "start": 204.3746,
      "duration": 0.6331,
      "velocity": 94,
      "chip": "ym2612"
    },
    {
      "channel": 1,
      "note": 93,
      "start": 204.7291,
      "duration": 0.1545,
      "velocity": 127,
      "chip": "ym2612"
    },
    {
      "channel": 3,
      "note": 81,
      "start": 204.7295,
      "duration": 0.1545,
      "velocity": 94,
      "chip": "ym2612"
    },
    {
      "channel": 0,
      "note": 93,
      "start": 204.8529,
      "duration": 0.1544,
      "velocity": 127,
      "chip": "ym2612"
    },
    {
      "channel": 1,
      "note": 90,
      "start": 204.9614,
      "duration": 0.4017,
      "velocity": 127,
      "chip": "ym2612"
    },
    {
      "channel": 3,
      "note": 78,
      "start": 204.962,
      "duration": 0.4016,
      "velocity": 94,
      "chip": "ym2612"
    },
    {
      "channel": 5,
      "note": 52,
      "start": 204.9623,
      "duration": 0.417,
      "velocity": 97,
      "chip": "ym2612"
    },
    {
      "channel": 0,
      "note": 90,
      "start": 205.0849,
      "duration": 0.3858,
      "velocity": 127,
      "chip": "ym2612"
    },
    {
      "channel": 2,
      "note": 81,
      "start": 205.0853,
      "duration": 0.1539,
      "velocity": 94,
      "chip": "ym2612"
    },
    {
      "channel": 2,
      "note": 78,
      "start": 205.3171,
      "duration": 0.4012,
      "velocity": 94,
      "chip": "ym2612"
    },
    {
      "channel": 1,
      "note": 88,
      "start": 205.4403,
      "duration": 0.8645,
      "velocity": 127,
      "chip": "ym2612"
    },
    {
      "channel": 3,
      "note": 76,
      "start": 205.4408,
      "duration": 0.8644,
      "velocity": 94,
      "chip": "ym2612"
    },
    {
      "channel": 4,
      "note": 54,
      "start": 205.4411,
      "duration": 0.2314,
      "velocity": 89,
      "chip": "ym2612"
    },
    {
      "channel": 5,
      "note": 52,
      "start": 205.4412,
      "duration": 0.818,
      "velocity": 97,
      "chip": "ym2612"
    },
    {
      "channel": 0,
      "note": 88,
      "start": 205.5483,
      "duration": 0.8643,
      "velocity": 127,
      "chip": "ym2612"
    },
    {
      "channel": 4,
      "note": 55,
      "start": 205.6725,
      "duration": 0.2317,
      "velocity": 89,
      "chip": "ym2612"
    },
    {
      "channel": 2,
      "note": 76,
      "start": 205.796,
      "duration": 0.864,
      "velocity": 94,
      "chip": "ym2612"
    },
    {
      "channel": 4,
      "note": 59,
      "start": 205.9043,
      "duration": 0.4786,
      "velocity": 89,
      "chip": "ym2612"
    },
    {
      "channel": 1,
      "note": 86,
      "start": 206.3822,
      "duration": 0.3858,
      "velocity": 127,
      "chip": "ym2612"
    },
    {
      "channel": 3,
      "note": 74,
      "start": 206.3827,
      "duration": 0.3857,
      "velocity": 94,
      "chip": "ym2612"
    },
    {
      "channel": 4,
      "note": 62,
      "start": 206.383,
      "duration": 0.4634,
      "velocity": 89,
      "chip": "ym2612"
    },
    {
      "channel": 5,
      "note": 52,
      "start": 206.3831,
      "duration": 0.4162,
      "velocity": 97,
      "chip": "ym2612"
    },
    {
      "channel": 0,
      "note": 86,
      "start": 206.5054,
      "duration": 0.3863,
      "velocity": 127,
      "chip": "ym2612"
    },
    {
      "channel": 2,
      "note": 74,
      "start": 206.7375,
      "duration": 0.3861,
      "velocity": 94,
      "chip": "ym2612"
    },
    {
      "channel": 1,
      "note": 83,
      "start": 206.8456,
      "duration": 0.7566,
      "velocity": 127,
      "chip": "ym2612"
    },
    {
      "channel": 3,
      "note": 71,
      "start": 206.8462,
      "duration": 0.7566,
      "velocity": 94,
      "chip": "ym2612"
    },
    {
      "channel": 4,
      "note": 61,
      "start": 206.8465,
      "duration": 0.4788,
      "velocity": 89,
      "chip": "ym2612"
    },
    {
      "channel": 5,
      "note": 52,
      "start": 206.8467,
      "duration": 0.8335,
      "velocity": 97,
      "chip": "ym2612"
    },
    {
      "channel": 0,
      "note": 83,
      "start": 206.9693,
      "duration": 0.7407,
      "velocity": 127,
      "chip": "ym2612"
    },
    {
      "channel": 2,
      "note": 71,
      "start": 207.2014,
      "duration": 0.7562,
      "velocity": 94,
      "chip": "ym2612"
    },
    {
      "channel": 4,
      "note": 57,
      "start": 207.3253,
      "duration": 0.9419,
      "velocity": 89,
      "chip": "ym2612"
    },
    {
      "channel": 1,
      "note": 83,
      "start": 207.7873,
      "duration": 0.4019,
      "velocity": 127,
      "chip": "ym2612"
    },
    {
      "channel": 3,
      "note": 71,
      "start": 207.7878,
      "duration": 0.4018,
      "velocity": 94,
      "chip": "ym2612"
    },
    {
      "channel": 5,
      "note": 52,
      "start": 207.788,
      "duration": 0.4171,
      "velocity": 97,
      "chip": "ym2612"
    },
    {
      "channel": 0,
      "note": 83,
      "start": 207.9109,
      "duration": 0.3862,
      "velocity": 127,
      "chip": "ym2612"
    },
    {
      "channel": 2,
      "note": 71,
      "start": 208.1429,
      "duration": 0.4012,
      "velocity": 94,
      "chip": "ym2612"
    },
    {
      "channel": 1,
      "note": 88,
      "start": 208.2665,
      "duration": 0.6326,
      "velocity": 127,
      "chip": "ym2612"
    },
    {
      "channel": 3,
      "note": 76,
      "start": 208.2669,
      "duration": 0.6326,
      "velocity": 94,
      "chip": "ym2612"
    },
    {
      "channel": 4,
      "note": 54,
      "start": 208.2672,
      "duration": 0.2312,
      "velocity": 89,
      "chip": "ym2612"
    },
    {
      "channel": 5,
      "note": 52,
      "start": 208.2674,
      "duration": 0.8179,
      "velocity": 97,
      "chip": "ym2612"
    },
    {
      "channel": 0,
      "note": 88,
      "start": 208.3901,
      "duration": 0.6167,
      "velocity": 127,
      "chip": "ym2612"
    },
    {
      "channel": 4,
      "note": 55,
      "start": 208.4985,
      "duration": 0.2314,
      "velocity": 89,
      "chip": "ym2612"
    },
    {
      "channel": 2,
      "note": 76,
      "start": 208.6216,
      "duration": 0.6176,
      "velocity": 94,
      "chip": "ym2612"
    },
    {
      "channel": 4,
      "note": 59,
      "start": 208.7299,
      "duration": 0.4793,
      "velocity": 89,
      "chip": "ym2612"
    },
    {
      "channel": 1,
      "note": 90,
      "start": 208.9765,
      "duration": 0.1541,
      "velocity": 127,
      "chip": "ym2612"
    },
    {
      "channel": 3,
      "note": 78,
      "start": 208.9768,
      "duration": 0.1539,
      "velocity": 94,
      "chip": "ym2612"
    },
    {
      "channel": 0,
      "note": 90,
      "start": 209.0844,
      "duration": 0.1543,
      "velocity": 127,
      "chip": "ym2612"
    },
    {
      "channel": 1,
      "note": 88,
      "start": 209.2083,
      "duration": 0.3861,
      "velocity": 127,
      "chip": "ym2612"
    },
    {
      "channel": 3,
      "note": 76,
      "start": 209.209,
      "duration": 0.3858,
      "velocity": 94,
      "chip": "ym2612"
    },
    {
      "channel": 4,
      "note": 62,
      "start": 209.2093,
      "duration": 0.4634,
      "velocity": 89,
      "chip": "ym2612"
    },
    {
      "channel": 5,
      "note": 52,
      "start": 209.2095,
      "duration": 0.4163,
      "velocity": 97,
      "chip": "ym2612"
    },
    {
      "channel": 0,
      "note": 88,
      "start": 209.3318,
      "duration": 0.3859,
      "velocity": 127,
      "chip": "ym2612"
    },
    {
      "channel": 2,
      "note": 78,
      "start": 209.3324,
      "duration": 0.1536,
      "velocity": 94,
      "chip": "ym2612"
    },
    {
      "channel": 2,
      "note": 76,
      "start": 209.5635,
      "duration": 0.3862,
      "velocity": 94,
      "chip": "ym2612"
    },
    {
      "channel": 1,
      "note": 86,
      "start": 209.6719,
      "duration": 0.7565,
      "velocity": 127,
      "chip": "ym2612"
    },
    {
      "channel": 3,
      "note": 74,
      "start": 209.6724,
      "duration": 0.7564,
      "velocity": 94,
      "chip": "ym2612"
    },
    {
      "channel": 4,
      "note": 61,
      "start": 209.6727,
      "duration": 1.421,
      "velocity": 89,
      "chip": "ym2612"
    },
    {
      "channel": 5,
      "note": 52,
      "start": 209.6729,
      "duration": 0.8332,
      "velocity": 97,
      "chip": "ym2612"
    },
    {
      "channel": 0,
      "note": 86,
      "start": 209.7951,
      "duration": 0.741,
      "velocity": 127,
      "chip": "ym2612"
    },
    {
      "channel": 2,
      "note": 74,
      "start": 210.0273,
      "duration": 0.7565,
      "velocity": 94,
      "chip": "ym2612"
    },
    {
      "channel": 1,
      "note": 83,
      "start": 210.6142,
      "duration": 0.4013,
      "velocity": 127,
      "chip": "ym2612"
    },
    {
      "channel": 3,
      "note": 71,
      "start": 210.6146,
      "duration": 0.4014,
      "velocity": 94,
      "chip": "ym2612"
    },
    {
      "channel": 5,
      "note": 52,
      "start": 210.6149,
      "duration": 0.4168,
      "velocity": 97,
      "chip": "ym2612"
    },
    {
      "channel": 0,
      "note": 83,
      "start": 210.7373,
      "duration": 0.4018,
      "velocity": 127,
      "chip": "ym2612"
    },
    {
      "channel": 2,
      "note": 71,
      "start": 210.9693,
      "duration": 0.4014,
      "velocity": 94,
      "chip": "ym2612"
    },
    {
      "channel": 1,
      "note": 88,
      "start": 211.0929,
      "duration": 0.6321,
      "velocity": 127,
      "chip": "ym2612"
    },
    {
      "channel": 3,
      "note": 76,
      "start": 211.0934,
      "duration": 0.632,
      "velocity": 94,
      "chip": "ym2612"
    },
    {
      "channel": 4,
      "note": 54,
      "start": 211.0937,
      "duration": 0.2312,
      "velocity": 89,
      "chip": "ym2612"
    },
    {
      "channel": 5,
      "note": 52,
      "start": 211.0939,
      "duration": 0.8175,
      "velocity": 97,
      "chip": "ym2612"
    },
    {
      "channel": 0,
      "note": 88,
      "start": 211.2163,
      "duration": 0.6168,
      "velocity": 127,
      "chip": "ym2612"
    },
    {
      "channel": 4,
      "note": 55,
      "start": 211.3249,
      "duration": 0.2312,
      "velocity": 89,
      "chip": "ym2612"
    },
    {
      "channel": 2,
      "note": 76,
      "start": 211.4481,
      "duration": 0.6326,
      "velocity": 94,
      "chip": "ym2612"
    },
    {
      "channel": 4,
      "note": 59,
      "start": 211.5562,
      "duration": 0.479,
      "velocity": 89,
      "chip": "ym2612"
    },
    {
      "channel": 1,
      "note": 90,
      "start": 211.8026,
      "duration": 0.1539,
      "velocity": 127,
      "chip": "ym2612"
    },
    {
      "channel": 3,
      "note": 78,
      "start": 211.803,
      "duration": 0.1538,
      "velocity": 94,
      "chip": "ym2612"
    },
    {
      "channel": 0,
      "note": 90,
      "start": 211.9105,
      "duration": 0.1697,
      "velocity": 127,
      "chip": "ym2612"
    },
    {
      "channel": 1,
      "note": 91,
      "start": 212.0343,
      "duration": 0.3859,
      "velocity": 127,
      "chip": "ym2612"
    },
    {
      "channel": 3,
      "note": 79,
      "start": 212.0349,
      "duration": 0.3856,
      "velocity": 94,
      "chip": "ym2612"
    },
    {
      "channel": 4,
      "note": 64,
      "start": 212.0353,
      "duration": 0.4628,
      "velocity": 89,
      "chip": "ym2612"
    },
    {
      "channel": 5,
      "note": 52,
      "start": 212.0354,
      "duration": 0.4161,
      "velocity": 97,
      "chip": "ym2612"
    },
    {
      "channel": 0,
      "note": 91,
      "start": 212.1579,
      "duration": 0.3854,
      "velocity": 127,
      "chip": "ym2612"
    },
    {
      "channel": 2,
      "note": 78,
      "start": 212.1584,
      "duration": 0.1538,
      "velocity": 94,
      "chip": "ym2612"
    },
    {
      "channel": 2,
      "note": 79,
      "start": 212.3896,
      "duration": 0.3857,
      "velocity": 94,
      "chip": "ym2612"
    },
    {
      "channel": 1,
      "note": 93,
      "start": 212.4973,
      "duration": 0.7561,
      "velocity": 127,
      "chip": "ym2612"
    },
    {
      "channel": 3,
      "note": 81,
      "start": 212.4978,
      "duration": 0.7561,
      "velocity": 94,
      "chip": "ym2612"
    },
    {
      "channel": 4,
      "note": 61,
      "start": 212.4981,
      "duration": 0.4783,
      "velocity": 89,
      "chip": "ym2612"
    },
    {
      "channel": 5,
      "note": 52,
      "start": 212.4983,
      "duration": 0.8331,
      "velocity": 97,
      "chip": "ym2612"
    },
    {
      "channel": 0,
      "note": 93,
      "start": 212.6207,
      "duration": 0.7404,
      "velocity": 127,
      "chip": "ym2612"
    },
    {
      "channel": 2,
      "note": 81,
      "start": 212.8526,
      "duration": 0.7559,
      "velocity": 94,
      "chip": "ym2612"
    },
    {
      "channel": 4,
      "note": 66,
      "start": 212.9765,
      "duration": 0.9414,
      "velocity": 89,
      "chip": "ym2612"
    },
    {
      "channel": 1,
      "note": 83,
      "start": 213.4543,
      "duration": 0.3857,
      "velocity": 127,
      "chip": "ym2612"
    },
    {
      "channel": 3,
      "note": 71,
      "start": 213.4548,
      "duration": 0.3856,
      "velocity": 94,
      "chip": "ym2612"
    },
    {
      "channel": 5,
      "note": 52,
      "start": 213.4551,
      "duration": 0.4009,
      "velocity": 97,
      "chip": "ym2612"
    },
    {
      "channel": 0,
      "note": 83,
      "start": 213.5622,
      "duration": 0.401,
      "velocity": 127,
      "chip": "ym2612"
    },
    {
      "channel": 2,
      "note": 71,
      "start": 213.7941,
      "duration": 0.4014,
      "velocity": 94,
      "chip": "ym2612"
    },
    {
      "channel": 1,
      "note": 88,
      "start": 213.9171,
      "duration": 0.633,
      "velocity": 127,
      "chip": "ym2612"
    },
    {
      "channel": 3,
      "note": 76,
      "start": 213.9176,
      "duration": 0.6329,
      "velocity": 94,
      "chip": "ym2612"
    },
    {
      "channel": 4,
      "note": 54,
      "start": 213.9179,
      "duration": 0.2316,
      "velocity": 89,
      "chip": "ym2612"
    },
    {
      "channel": 5,
      "note": 52,
      "start": 213.9181,
      "duration": 0.8183,
      "velocity": 97,
      "chip": "ym2612"
    },
    {
      "channel": 0,
      "note": 88,
      "start": 214.0407,
      "duration": 0.6175,
      "velocity": 127,
      "chip": "ym2612"
    },
    {
      "channel": 4,
      "note": 55,
      "start": 214.1496,
      "duration": 0.247,
      "velocity": 89,
      "chip": "ym2612"
    },
    {
      "channel": 2,
      "note": 76,
      "start": 214.2729,
      "duration": 0.6329,
      "velocity": 94,
      "chip": "ym2612"
    },
    {
      "channel": 4,
      "note": 59,
      "start": 214.3967,
      "duration": 0.4636,
      "velocity": 89,
      "chip": "ym2612"
    },
    {
      "channel": 1,
      "note": 90,
      "start": 214.6276,
      "duration": 0.1541,
      "velocity": 127,
      "chip": "ym2612"
    },
    {
      "channel": 3,
      "note": 78,
      "start": 214.628,
      "duration": 0.1539,
      "velocity": 94,
      "chip": "ym2612"
    },
    {
      "channel": 0,
      "note": 90,
      "start": 214.7357,
      "duration": 0.1697,
      "velocity": 127,
      "chip": "ym2612"
    },
    {
      "channel": 1,
      "note": 91,
      "start": 214.8595,
      "duration": 0.3861,
      "velocity": 127,
      "chip": "ym2612"
    },
    {
      "channel": 3,
      "note": 79,
      "start": 214.86,
      "duration": 0.386,
      "velocity": 94,
      "chip": "ym2612"
    },
    {
      "channel": 4,
      "note": 62,
      "start": 214.8604,
      "duration": 0.4793,
      "velocity": 89,
      "chip": "ym2612"
    },
    {
      "channel": 5,
      "note": 52,
      "start": 214.8605,
      "duration": 0.417,
      "velocity": 97,
      "chip": "ym2612"
    },
    {
      "channel": 0,
      "note": 91,
      "start": 214.9829,
      "duration": 0.3866,
      "velocity": 127,
      "chip": "ym2612"
    },
    {
      "channel": 2,
      "note": 78,
      "start": 214.9834,
      "duration": 0.1538,
      "velocity": 94,
      "chip": "ym2612"
    },
    {
      "channel": 2,
      "note": 79,
      "start": 215.2151,
      "duration": 0.3863,
      "velocity": 94,
      "chip": "ym2612"
    },
    {
      "channel": 1,
      "note": 90,
      "start": 215.3389,
      "duration": 0.6176,
      "velocity": 127,
      "chip": "ym2612"
    },
    {
      "channel": 3,
      "note": 78,
      "start": 215.3393,
      "duration": 0.6175,
      "velocity": 94,
      "chip": "ym2612"
    },
    {
      "channel": 4,
      "note": 61,
      "start": 215.3396,
      "duration": 1.4064,
      "velocity": 89,
      "chip": "ym2612"
    },
    {
      "channel": 5,
      "note": 52,
      "start": 215.3398,
      "duration": 0.8181,
      "velocity": 97,
      "chip": "ym2612"
    },
    {
      "channel": 0,
      "note": 90,
      "start": 215.447,
      "duration": 0.6327,
      "velocity": 127,
      "chip": "ym2612"
    },
    {
      "channel": 2,
      "note": 78,
      "start": 215.6789,
      "duration": 0.6331,
      "velocity": 94,
      "chip": "ym2612"
    },
    {
      "channel": 1,
      "note": 93,
      "start": 216.0338,
      "duration": 0.1538,
      "velocity": 127,
      "chip": "ym2612"
    },
    {
      "channel": 3,
      "note": 81,
      "start": 216.0343,
      "duration": 0.1536,
      "velocity": 94,
      "chip": "ym2612"
    },
    {
      "channel": 0,
      "note": 93,
      "start": 216.157,
      "duration": 0.1546,
      "velocity": 127,
      "chip": "ym2612"
    },
    {
      "channel": 1,
      "note": 90,
      "start": 216.2811,
      "duration": 0.3863,
      "velocity": 127,
      "chip": "ym2612"
    },
    {
      "channel": 3,
      "note": 78,
      "start": 216.2817,
      "duration": 0.3861,
      "velocity": 94,
      "chip": "ym2612"
    },
    {
      "channel": 5,
      "note": 52,
      "start": 216.282,
      "duration": 0.4015,
      "velocity": 97,
      "chip": "ym2612"
    },
    {
      "channel": 0,
      "note": 90,
      "start": 216.3894,
      "duration": 0.4019,
      "velocity": 127,
      "chip": "ym2612"
    },
    {
      "channel": 2,
      "note": 81,
      "start": 216.3899,
      "duration": 0.1537,
      "velocity": 94,
      "chip": "ym2612"
    },
    {
      "channel": 2,
      "note": 78,
      "start": 216.6214,
      "duration": 0.4016,
      "velocity": 94,
      "chip": "ym2612"
    },
    {
      "channel": 1,
      "note": 88,
      "start": 216.7452,
      "duration": 0.8645,
      "velocity": 127,
      "chip": "ym2612"
    },
    {
      "channel": 3,
      "note": 76,
      "start": 216.7458,
      "duration": 0.8643,
      "velocity": 94,
      "chip": "ym2612"
    },
    {
      "channel": 4,
      "note": 54,
      "start": 216.7461,
      "duration": 0.2312,
      "velocity": 89,
      "chip": "ym2612"
    },
    {
      "channel": 5,
      "note": 52,
      "start": 216.7463,
      "duration": 0.8177,
      "velocity": 97,
      "chip": "ym2612"
    },
    {
      "channel": 0,
      "note": 88,
      "start": 216.8688,
      "duration": 0.8639,
      "velocity": 127,
      "chip": "ym2612"
    },
    {
      "channel": 4,
      "note": 55,
      "start": 216.9773,
      "duration": 0.2472,
      "velocity": 89,
      "chip": "ym2612"
    },
    {
      "channel": 2,
      "note": 76,
      "start": 217.1005,
      "duration": 0.864,
      "velocity": 94,
      "chip": "ym2612"
    },
    {
      "channel": 4,
      "note": 59,
      "start": 217.2245,
      "duration": 0.4627,
      "velocity": 89,
      "chip": "ym2612"
    },
    {
      "channel": 1,
      "note": 88,
      "start": 217.6866,
      "duration": 0.4013,
      "velocity": 127,
      "chip": "ym2612"
    },
    {
      "channel": 3,
      "note": 76,
      "start": 217.687,
      "duration": 0.4013,
      "velocity": 94,
      "chip": "ym2612"
    },
    {
      "channel": 4,
      "note": 62,
      "start": 217.6873,
      "duration": 0.4783,
      "velocity": 89,
      "chip": "ym2612"
    },
    {
      "channel": 5,
      "note": 52,
      "start": 217.6874,
      "duration": 0.4165,
      "velocity": 97,
      "chip": "ym2612"
    },
    {
      "channel": 0,
      "note": 88,
      "start": 217.8098,
      "duration": 0.3858,
      "velocity": 127,
      "chip": "ym2612"
    },
    {
      "channel": 2,
      "note": 76,
      "start": 218.0417,
      "duration": 0.3859,
      "velocity": 94,
      "chip": "ym2612"
    },
    {
      "channel": 1,
      "note": 88,
      "start": 218.165,
      "duration": 0.7414,
      "velocity": 127,
      "chip": "ym2612"
    },
    {
      "channel": 3,
      "note": 76,
      "start": 218.1653,
      "duration": 0.7417,
      "velocity": 94,
      "chip": "ym2612"
    },
    {
      "channel": 4,
      "note": 61,
      "start": 218.1657,
      "duration": 0.4634,
      "velocity": 89,
      "chip": "ym2612"
    },
    {
      "channel": 5,
      "note": 52,
      "start": 218.1658,
      "duration": 0.8186,
      "velocity": 97,
      "chip": "ym2612"
    },
    {
      "channel": 0,
      "note": 88,
      "start": 218.2729,
      "duration": 0.757,
      "velocity": 127,
      "chip": "ym2612"
    },
    {
      "channel": 2,
      "note": 76,
      "start": 218.5052,
      "duration": 0.7574,
      "velocity": 94,
      "chip": "ym2612"
    },
    {
      "channel": 4,
      "note": 57,
      "start": 218.6292,
      "duration": 0.9469,
      "velocity": 89,
      "chip": "ym2612"
    },
    {
      "channel": 3,
      "note": 83,
      "start": 219.11,
      "duration": 0.3848,
      "velocity": 111,
      "chip": "ym2612"
    },
    {
      "channel": 5,
      "note": 52,
      "start": 219.1101,
      "duration": 0.4003,
      "velocity": 97,
      "chip": "ym2612"
    },
    {
      "channel": 2,
      "note": 83,
      "start": 219.4658,
      "duration": 0.3832,
      "velocity": 111,
      "chip": "ym2612"
    },
    {
      "channel": 0,
      "note": 74,
      "start": 219.5737,
      "duration": 0.8618,
      "velocity": 91,
      "chip": "ym2612"
    },
    {
      "channel": 1,
      "note": 78,
      "start": 219.5756,
      "duration": 0.8602,
      "velocity": 91,
      "chip": "ym2612"
    },
    {
      "channel": 3,
      "note": 86,
      "start": 219.5759,
      "duration": 0.8604,
      "velocity": 111,
      "chip": "ym2612"
    },
    {
      "channel": 4,
      "note": 54,
      "start": 219.5761,
      "duration": 0.2269,
      "velocity": 89,
      "chip": "ym2612"
    },
    {
      "channel": 5,
      "note": 52,
      "start": 219.5764,
      "duration": 0.8292,
      "velocity": 97,
      "chip": "ym2612"
    },
    {
      "channel": 4,
      "note": 55,
      "start": 219.8031,
      "duration": 0.2473,
      "velocity": 89,
      "chip": "ym2612"
    },
    {
      "channel": 2,
      "note": 86,
      "start": 219.9266,
      "duration": 0.8641,
      "velocity": 111,
      "chip": "ym2612"
    },
    {
      "channel": 4,
      "note": 59,
      "start": 220.0504,
      "duration": 0.4634,
      "velocity": 89,
      "chip": "ym2612"
    },
    {
      "channel": 0,
      "note": 74,
      "start": 220.5127,
      "duration": 0.4014,
      "velocity": 91,
      "chip": "ym2612"
    },
    {
      "channel": 1,
      "note": 78,
      "start": 220.5129,
      "duration": 0.4015,
      "velocity": 91,
      "chip": "ym2612"
    },
    {
      "channel": 3,
      "note": 86,
      "start": 220.5134,
      "duration": 0.4013,
      "velocity": 111,
      "chip": "ym2612"
    },
    {
      "channel": 4,
      "note": 62,
      "start": 220.5138,
      "duration": 0.4786,
      "velocity": 89,
      "chip": "ym2612"
    },
    {
      "channel": 5,
      "note": 52,
      "start": 220.5139,
      "duration": 0.4163,
      "velocity": 97,
      "chip": "ym2612"
    },
    {
      "channel": 2,
      "note": 86,
      "start": 220.8681,
      "duration": 0.3857,
      "velocity": 111,
      "chip": "ym2612"
    },
    {
      "channel": 0,
      "note": 73,
      "start": 220.9913,
      "duration": 0.6173,
      "velocity": 91,
      "chip": "ym2612"
    },
    {
      "channel": 1,
      "note": 76,
      "start": 220.9918,
      "duration": 0.6172,
      "velocity": 91,
      "chip": "ym2612"
    },
    {
      "channel": 3,
      "note": 85,
      "start": 220.9922,
      "duration": 0.6173,
      "velocity": 111,
      "chip": "ym2612"
    },
    {
      "channel": 4,
      "note": 61,
      "start": 220.9925,
      "duration": 1.4056,
      "velocity": 89,
      "chip": "ym2612"
    },
    {
      "channel": 5,
      "note": 52,
      "start": 220.9926,
      "duration": 0.818,
      "velocity": 97,
      "chip": "ym2612"
    },
    {
      "channel": 2,
      "note": 85,
      "start": 221.3467,
      "duration": 0.6176,
      "velocity": 111,
      "chip": "ym2612"
    },
    {
      "channel": 0,
      "note": 71,
      "start": 221.6861,
      "duration": 0.17,
      "velocity": 91,
      "chip": "ym2612"
    },
    {
      "channel": 1,
      "note": 74,
      "start": 221.6866,
      "duration": 0.1697,
      "velocity": 91,
      "chip": "ym2612"
    },
    {
      "channel": 3,
      "note": 83,
      "start": 221.687,
      "duration": 0.1697,
      "velocity": 111,
      "chip": "ym2612"
    },
    {
      "channel": 0,
      "note": 69,
      "start": 221.9333,
      "duration": 0.3866,
      "velocity": 91,
      "chip": "ym2612"
    },
    {
      "channel": 1,
      "note": 73,
      "start": 221.9337,
      "duration": 0.3865,
      "velocity": 91,
      "chip": "ym2612"
    },
    {
      "channel": 3,
      "note": 81,
      "start": 221.9342,
      "duration": 0.3863,
      "velocity": 111,
      "chip": "ym2612"
    },
    {
      "channel": 5,
      "note": 52,
      "start": 221.9345,
      "duration": 0.4015,
      "velocity": 97,
      "chip": "ym2612"
    },
    {
      "channel": 2,
      "note": 83,
      "start": 222.0417,
      "duration": 0.1546,
      "velocity": 111,
      "chip": "ym2612"
    },
    {
      "channel": 2,
      "note": 81,
      "start": 222.2893,
      "duration": 0.3858,
      "velocity": 111,
      "chip": "ym2612"
    },
    {
      "channel": 0,
      "note": 71,
      "start": 222.397,
      "duration": 2.2845,
      "velocity": 91,
      "chip": "ym2612"
    },
    {
      "channel": 1,
      "note": 74,
      "start": 222.3974,
      "duration": 2.2844,
      "velocity": 91,
      "chip": "ym2612"
    },
    {
      "channel": 3,
      "note": 83,
      "start": 222.3978,
      "duration": 2.2845,
      "velocity": 111,
      "chip": "ym2612"
    },
    {
      "channel": 4,
      "note": 54,
      "start": 222.3982,
      "duration": 0.231,
      "velocity": 89,
      "chip": "ym2612"
    },
    {
      "channel": 5,
      "note": 52,
      "start": 222.3985,
      "duration": 0.8331,
      "velocity": 97,
      "chip": "ym2612"
    },
    {
      "channel": 4,
      "note": 55,
      "start": 222.6293,
      "duration": 0.2473,
      "velocity": 89,
      "chip": "ym2612"
    },
    {
      "channel": 2,
      "note": 83,
      "start": 222.7524,
      "duration": 2.2849,
      "velocity": 111,
      "chip": "ym2612"
    },
    {
      "channel": 4,
      "note": 59,
      "start": 222.8766,
      "duration": 0.4633,
      "velocity": 89,
      "chip": "ym2612"
    },
    {
      "channel": 4,
      "note": 64,
      "start": 223.3399,
      "duration": 0.478,
      "velocity": 89,
      "chip": "ym2612"
    },
    {
      "channel": 5,
      "note": 52,
      "start": 223.3401,
      "duration": 0.4163,
      "velocity": 97,
      "chip": "ym2612"
    },
    {
      "channel": 4,
      "note": 61,
      "start": 223.818,
      "duration": 0.4626,
      "velocity": 89,
      "chip": "ym2612"
    },
    {
      "channel": 5,
      "note": 52,
      "start": 223.8181,
      "duration": 0.818,
      "velocity": 97,
      "chip": "ym2612"
    },
    {
      "channel": 4,
      "note": 66,
      "start": 224.2806,
      "duration": 0.9427,
      "velocity": 89,
      "chip": "ym2612"
    },
    {
      "channel": 3,
      "note": 83,
      "start": 224.7592,
      "duration": 0.1549,
      "velocity": 111,
      "chip": "ym2612"
    },
    {
      "channel": 5,
      "note": 52,
      "start": 224.7594,
      "duration": 0.4016,
      "velocity": 97,
      "chip": "ym2612"
    },
    {
      "channel": 3,
      "note": 85,
      "start": 224.9912,
      "duration": 0.154,
      "velocity": 111,
      "chip": "ym2612"
    },
    {
      "channel": 2,
      "note": 83,
      "start": 225.1146,
      "duration": 0.1542,
      "velocity": 111,
      "chip": "ym2612"
    },
    {
      "channel": 0,
      "note": 74,
      "start": 225.2223,
      "duration": 0.8655,
      "velocity": 91,
      "chip": "ym2612"
    },
    {
      "channel": 1,
      "note": 78,
      "start": 225.2227,
      "duration": 0.8654,
      "velocity": 91,
      "chip": "ym2612"
    },
    {
      "channel": 3,
      "note": 86,
      "start": 225.2231,
      "duration": 0.8655,
      "velocity": 111,
      "chip": "ym2612"
    },
    {
      "channel": 4,
      "note": 54,
      "start": 225.2234,
      "duration": 0.2316,
      "velocity": 89,
      "chip": "ym2612"
    },
    {
      "channel": 5,
      "note": 52,
      "start": 225.2237,
      "duration": 0.8343,
      "velocity": 97,
      "chip": "ym2612"
    },
    {
      "channel": 2,
      "note": 85,
      "start": 225.3461,
      "duration": 0.1546,
      "velocity": 111,
      "chip": "ym2612"
    },
    {
      "channel": 4,
      "note": 55,
      "start": 225.455,
      "duration": 0.2471,
      "velocity": 89,
      "chip": "ym2612"
    },
    {
      "channel": 2,
      "note": 86,
      "start": 225.578,
      "duration": 0.8654,
      "velocity": 111,
      "chip": "ym2612"
    },
    {
      "channel": 4,
      "note": 59,
      "start": 225.7022,
      "duration": 0.4642,
      "velocity": 89,
      "chip": "ym2612"
    },
    {
      "channel": 0,
      "note": 74,
      "start": 226.1653,
      "duration": 0.4016,
      "velocity": 91,
      "chip": "ym2612"
    },
    {
      "channel": 1,
      "note": 78,
      "start": 226.1656,
      "duration": 0.4016,
      "velocity": 91,
      "chip": "ym2612"
    },
    {
      "channel": 3,
      "note": 86,
      "start": 226.1661,
      "duration": 0.4014,
      "velocity": 111,
      "chip": "ym2612"
    },
    {
      "channel": 4,
      "note": 62,
      "start": 226.1665,
      "duration": 0.4785,
      "velocity": 89,
      "chip": "ym2612"
    },
    {
      "channel": 5,
      "note": 52,
      "start": 226.1666,
      "duration": 0.4164,
      "velocity": 97,
      "chip": "ym2612"
    },
    {
      "channel": 2,
      "note": 86,
      "start": 226.5207,
      "duration": 0.401,
      "velocity": 111,
      "chip": "ym2612"
    },
    {
      "channel": 0,
      "note": 73,
      "start": 226.644,
      "duration": 0.3857,
      "velocity": 91,
      "chip": "ym2612"
    },
    {
      "channel": 1,
      "note": 76,
      "start": 226.6444,
      "duration": 0.3855,
      "velocity": 91,
      "chip": "ym2612"
    },
    {
      "channel": 3,
      "note": 85,
      "start": 226.6447,
      "duration": 0.4629,
      "velocity": 111,
      "chip": "ym2612"
    },
    {
      "channel": 4,
      "note": 61,
      "start": 226.6451,
      "duration": 1.4059,
      "velocity": 89,
      "chip": "ym2612"
    },
    {
      "channel": 5,
      "note": 52,
      "start": 226.6452,
      "duration": 0.8178,
      "velocity": 97,
      "chip": "ym2612"
    },
    {
      "channel": 2,
      "note": 85,
      "start": 226.9991,
      "duration": 0.4632,
      "velocity": 111,
      "chip": "ym2612"
    },
    {
      "channel": 0,
      "note": 76,
      "start": 227.1069,
      "duration": 0.1541,
      "velocity": 91,
      "chip": "ym2612"
    },
    {
      "channel": 1,
      "note": 79,
      "start": 227.1073,
      "duration": 0.1539,
      "velocity": 91,
      "chip": "ym2612"
    },
    {
      "channel": 3,
      "note": 88,
      "start": 227.1077,
      "duration": 0.2468,
      "velocity": 111,
      "chip": "ym2612"
    },
    {
      "channel": 2,
      "note": 88,
      "start": 227.4623,
      "duration": 0.2322,
      "velocity": 111,
      "chip": "ym2612"
    },
    {
      "channel": 5,
      "note": 52,
      "start": 227.5868,
      "duration": 0.4019,
      "velocity": 97,
      "chip": "ym2612"
    },
    {
      "channel": 3,
      "note": 85,
      "start": 227.8182,
      "duration": 0.1548,
      "velocity": 111,
      "chip": "ym2612"
    },
    {
      "channel": 0,
      "note": 71,
      "start": 228.0497,
      "duration": 2.7485,
      "velocity": 91,
      "chip": "ym2612"
    },
    {
      "channel": 1,
      "note": 74,
      "start": 228.0502,
      "duration": 2.7481,
      "velocity": 91,
      "chip": "ym2612"
    },
    {
      "channel": 3,
      "note": 83,
      "start": 228.0507,
      "duration": 2.7483,
      "velocity": 111,
      "chip": "ym2612"
    },
    {
      "channel": 4,
      "note": 54,
      "start": 228.051,
      "duration": 0.2463,
      "velocity": 89,
      "chip": "ym2612"
    },
    {
      "channel": 5,
      "note": 52,
      "start": 228.0513,
      "duration": 0.8331,
      "velocity": 97,
      "chip": "ym2612"
    },
    {
      "channel": 2,
      "note": 85,
      "start": 228.1733,
      "duration": 0.1544,
      "velocity": 111,
      "chip": "ym2612"
    },
    {
      "channel": 4,
      "note": 55,
      "start": 228.2974,
      "duration": 0.2318,
      "velocity": 89,
      "chip": "ym2612"
    },
    {
      "channel": 2,
      "note": 83,
      "start": 228.4052,
      "duration": 2.7485,
      "velocity": 111,
      "chip": "ym2612"
    },
    {
      "channel": 4,
      "note": 59,
      "start": 228.5292,
      "duration": 0.4634,
      "velocity": 89,
      "chip": "ym2612"
    },
    {
      "channel": 4,
      "note": 62,
      "start": 228.9926,
      "duration": 0.4785,
      "velocity": 89,
      "chip": "ym2612"
    },
    {
      "channel": 5,
      "note": 52,
      "start": 228.9927,
      "duration": 0.4167,
      "velocity": 97,
      "chip": "ym2612"
    },
    {
      "channel": 4,
      "note": 61,
      "start": 229.4711,
      "duration": 0.4628,
      "velocity": 89,
      "chip": "ym2612"
    },
    {
      "channel": 5,
      "note": 52,
      "start": 229.4713,
      "duration": 0.818,
      "velocity": 97,
      "chip": "ym2612"
    },
    {
      "channel": 4,
      "note": 57,
      "start": 229.934,
      "duration": 0.9427,
      "velocity": 89,
      "chip": "ym2612"
    },
    {
      "channel": 5,
      "note": 52,
      "start": 230.4125,
      "duration": 0.4175,
      "velocity": 97,
      "chip": "ym2612"
    },
    {
      "channel": 0,
      "note": 74,
      "start": 230.8756,
      "duration": 0.8652,
      "velocity": 91,
      "chip": "ym2612"
    },
    {
      "channel": 1,
      "note": 78,
      "start": 230.8759,
      "duration": 0.8651,
      "velocity": 91,
      "chip": "ym2612"
    },
    {
      "channel": 3,
      "note": 86,
      "start": 230.8764,
      "duration": 0.865,
      "velocity": 111,
      "chip": "ym2612"
    },
    {
      "channel": 4,
      "note": 54,
      "start": 230.8768,
      "duration": 0.2464,
      "velocity": 89,
      "chip": "ym2612"
    },
    {
      "channel": 5,
      "note": 52,
      "start": 230.877,
      "duration": 0.8339,
      "velocity": 97,
      "chip": "ym2612"
    },
    {
      "channel": 4,
      "note": 55,
      "start": 231.1232,
      "duration": 0.2319,
      "velocity": 89,
      "chip": "ym2612"
    },
    {
      "channel": 2,
      "note": 86,
      "start": 231.2312,
      "duration": 0.8648,
      "velocity": 111,
      "chip": "ym2612"
    },
    {
      "channel": 4,
      "note": 59,
      "start": 231.3552,
      "duration": 0.4638,
      "velocity": 89,
      "chip": "ym2612"
    },
    {
      "channel": 0,
      "note": 74,
      "start": 231.818,
      "duration": 0.4014,
      "velocity": 91,
      "chip": "ym2612"
    },
    {
      "channel": 1,
      "note": 78,
      "start": 231.8182,
      "duration": 0.4015,
      "velocity": 91,
      "chip": "ym2612"
    },
    {
      "channel": 3,
      "note": 86,
      "start": 231.8189,
      "duration": 0.4013,
      "velocity": 111,
      "chip": "ym2612"
    },
    {
      "channel": 4,
      "note": 62,
      "start": 231.8191,
      "duration": 0.4788,
      "velocity": 89,
      "chip": "ym2612"
    },
    {
      "channel": 5,
      "note": 52,
      "start": 231.8192,
      "duration": 0.4166,
      "velocity": 97,
      "chip": "ym2612"
    },
    {
      "channel": 2,
      "note": 86,
      "start": 232.1737,
      "duration": 0.4015,
      "velocity": 111,
      "chip": "ym2612"
    },
    {
      "channel": 0,
      "note": 73,
      "start": 232.2968,
      "duration": 0.6329,
      "velocity": 91,
      "chip": "ym2612"
    },
    {
      "channel": 1,
      "note": 76,
      "start": 232.2972,
      "duration": 0.6327,
      "velocity": 91,
      "chip": "ym2612"
    },
    {
      "channel": 3,
      "note": 85,
      "start": 232.2976,
      "duration": 0.6328,
      "velocity": 111,
      "chip": "ym2612"
    },
    {
      "channel": 4,
      "note": 61,
      "start": 232.298,
      "duration": 1.4047,
      "velocity": 89,
      "chip": "ym2612"
    },
    {
      "channel": 5,
      "note": 52,
      "start": 232.2981,
      "duration": 0.8175,
      "velocity": 97,
      "chip": "ym2612"
    },
    {
      "channel": 2,
      "note": 85,
      "start": 232.6522,
      "duration": 0.6173,
      "velocity": 111,
      "chip": "ym2612"
    },
    {
      "channel": 0,
      "note": 71,
      "start": 233.0068,
      "duration": 0.1542,
      "velocity": 91,
      "chip": "ym2612"
    },
    {
      "channel": 1,
      "note": 74,
      "start": 233.0072,
      "duration": 0.1541,
      "velocity": 91,
      "chip": "ym2612"
    },
    {
      "channel": 3,
      "note": 83,
      "start": 233.0077,
      "duration": 0.1541,
      "velocity": 111,
      "chip": "ym2612"
    },
    {
      "channel": 0,
      "note": 69,
      "start": 233.2386,
      "duration": 0.3858,
      "velocity": 91,
      "chip": "ym2612"
    },
    {
      "channel": 1,
      "note": 73,
      "start": 233.239,
      "duration": 0.3856,
      "velocity": 91,
      "chip": "ym2612"
    },
    {
      "channel": 3,
      "note": 81,
      "start": 233.2395,
      "duration": 0.3856,
      "velocity": 111,
      "chip": "ym2612"
    },
    {
      "channel": 5,
      "note": 52,
      "start": 233.2397,
      "duration": 0.4162,
      "velocity": 97,
      "chip": "ym2612"
    },
    {
      "channel": 2,
      "note": 83,
      "start": 233.3622,
      "duration": 0.1544,
      "velocity": 111,
      "chip": "ym2612"
    },
    {
      "channel": 2,
      "note": 81,
      "start": 233.5938,
      "duration": 0.3856,
      "velocity": 111,
      "chip": "ym2612"
    },
    {
      "channel": 0,
      "note": 71,
      "start": 233.7017,
      "duration": 2.2861,
      "velocity": 91,
      "chip": "ym2612"
    },
    {
      "channel": 1,
      "note": 74,
      "start": 233.702,
      "duration": 2.2863,
      "velocity": 91,
      "chip": "ym2612"
    },
    {
      "channel": 3,
      "note": 83,
      "start": 233.7025,
      "duration": 2.2862,
      "velocity": 111,
      "chip": "ym2612"
    },
    {
      "channel": 4,
      "note": 54,
      "start": 233.7028,
      "duration": 0.246,
      "velocity": 89,
      "chip": "ym2612"
    },
    {
      "channel": 5,
      "note": 52,
      "start": 233.703,
      "duration": 0.8334,
      "velocity": 97,
      "chip": "ym2612"
    },
    {
      "channel": 4,
      "note": 55,
      "start": 233.9489,
      "duration": 0.232,
      "velocity": 89,
      "chip": "ym2612"
    },
    {
      "channel": 2,
      "note": 83,
      "start": 234.0568,
      "duration": 2.2869,
      "velocity": 111,
      "chip": "ym2612"
    },
    {
      "channel": 4,
      "note": 59,
      "start": 234.1809,
      "duration": 0.4636,
      "velocity": 89,
      "chip": "ym2612"
    },
    {
      "channel": 4,
      "note": 64,
      "start": 234.6445,
      "duration": 0.479,
      "velocity": 89,
      "chip": "ym2612"
    },
    {
      "channel": 5,
      "note": 52,
      "start": 234.6447,
      "duration": 0.4169,
      "velocity": 97,
      "chip": "ym2612"
    },
    {
      "channel": 4,
      "note": 61,
      "start": 235.1235,
      "duration": 0.4635,
      "velocity": 89,
      "chip": "ym2612"
    },
    {
      "channel": 5,
      "note": 52,
      "start": 235.1237,
      "duration": 0.8188,
      "velocity": 97,
      "chip": "ym2612"
    },
    {
      "channel": 4,
      "note": 66,
      "start": 235.5871,
      "duration": 0.943,
      "velocity": 89,
      "chip": "ym2612"
    },
    {
      "channel": 3,
      "note": 83,
      "start": 236.0659,
      "duration": 0.1544,
      "velocity": 111,
      "chip": "ym2612"
    },
    {
      "channel": 5,
      "note": 52,
      "start": 236.0661,
      "duration": 0.4172,
      "velocity": 97,
      "chip": "ym2612"
    },
    {
      "channel": 3,
      "note": 85,
      "start": 236.2977,
      "duration": 0.1542,
      "velocity": 111,
      "chip": "ym2612"
    },
    {
      "channel": 2,
      "note": 83,
      "start": 236.4213,
      "duration": 0.1541,
      "velocity": 111,
      "chip": "ym2612"
    },
    {
      "channel": 0,
      "note": 74,
      "start": 236.529,
      "duration": 0.8656,
      "velocity": 91,
      "chip": "ym2612"
    },
    {
      "channel": 1,
      "note": 78,
      "start": 236.5293,
      "duration": 0.8655,
      "velocity": 91,
      "chip": "ym2612"
    },
    {
      "channel": 3,
      "note": 86,
      "start": 236.5298,
      "duration": 0.8655,
      "velocity": 111,
      "chip": "ym2612"
    },
    {
      "channel": 4,
      "note": 54,
      "start": 236.5301,
      "duration": 0.2467,
      "velocity": 89,
      "chip": "ym2612"
    },
    {
      "channel": 5,
      "note": 52,
      "start": 236.5304,
      "duration": 0.8342,
      "velocity": 97,
      "chip": "ym2612"
    },
    {
      "channel": 2,
      "note": 85,
      "start": 236.6527,
      "duration": 0.1546,
      "velocity": 111,
      "chip": "ym2612"
    },
    {
      "channel": 4,
      "note": 55,
      "start": 236.7768,
      "duration": 0.2322,
      "velocity": 89,
      "chip": "ym2612"
    },
    {
      "channel": 2,
      "note": 86,
      "start": 236.885,
      "duration": 0.8654,
      "velocity": 111,
      "chip": "ym2612"
    },
    {
      "channel": 4,
      "note": 59,
      "start": 237.0091,
      "duration": 0.4637,
      "velocity": 89,
      "chip": "ym2612"
    },
    {
      "channel": 0,
      "note": 74,
      "start": 237.4718,
      "duration": 0.4017,
      "velocity": 91,
      "chip": "ym2612"
    },
    {
      "channel": 1,
      "note": 78,
      "start": 237.472,
      "duration": 0.4018,
      "velocity": 91,
      "chip": "ym2612"
    },
    {
      "channel": 3,
      "note": 86,
      "start": 237.4725,
      "duration": 0.4017,
      "velocity": 111,
      "chip": "ym2612"
    },
    {
      "channel": 4,
      "note": 62,
      "start": 237.4729,
      "duration": 0.479,
      "velocity": 89,
      "chip": "ym2612"
    },
    {
      "channel": 5,
      "note": 52,
      "start": 237.473,
      "duration": 0.4168,
      "velocity": 97,
      "chip": "ym2612"
    },
    {
      "channel": 2,
      "note": 86,
      "start": 237.8276,
      "duration": 0.4013,
      "velocity": 111,
      "chip": "ym2612"
    },
    {
      "channel": 0,
      "note": 73,
      "start": 237.9509,
      "duration": 0.386,
      "velocity": 91,
      "chip": "ym2612"
    },
    {
      "channel": 1,
      "note": 76,
      "start": 237.9514,
      "duration": 0.3859,
      "velocity": 91,
      "chip": "ym2612"
    },
    {
      "channel": 3,
      "note": 85,
      "start": 237.9517,
      "duration": 0.4632,
      "velocity": 111,
      "chip": "ym2612"
    },
    {
      "channel": 4,
      "note": 61,
      "start": 237.952,
      "duration": 1.4212,
      "velocity": 89,
      "chip": "ym2612"
    },
    {
      "channel": 5,
      "note": 52,
      "start": 237.9522,
      "duration": 0.8183,
      "velocity": 97,
      "chip": "ym2612"
    },
    {
      "channel": 2,
      "note": 85,
      "start": 238.3064,
      "duration": 0.4635,
      "velocity": 111,
      "chip": "ym2612"
    },
    {
      "channel": 0,
      "note": 76,
      "start": 238.4141,
      "duration": 0.17,
      "velocity": 91,
      "chip": "ym2612"
    },
    {
      "channel": 1,
      "note": 79,
      "start": 238.4145,
      "duration": 0.1698,
      "velocity": 91,
      "chip": "ym2612"
    },
    {
      "channel": 3,
      "note": 88,
      "start": 238.4149,
      "duration": 0.2471,
      "velocity": 111,
      "chip": "ym2612"
    },
    {
      "channel": 2,
      "note": 88,
      "start": 238.7699,
      "duration": 0.2471,
      "velocity": 111,
      "chip": "ym2612"
    },
    {
      "channel": 5,
      "note": 52,
      "start": 238.8937,
      "duration": 0.4173,
      "velocity": 97,
      "chip": "ym2612"
    },
    {
      "channel": 3,
      "note": 85,
      "start": 239.1255,
      "duration": 0.1545,
      "velocity": 111,
      "chip": "ym2612"
    },
    {
      "channel": 0,
      "note": 71,
      "start": 239.3721,
      "duration": 2.7335,
      "velocity": 91,
      "chip": "ym2612"
    },
    {
      "channel": 1,
      "note": 74,
      "start": 239.3725,
      "duration": 2.7332,
      "velocity": 91,
      "chip": "ym2612"
    },
    {
      "channel": 3,
      "note": 83,
      "start": 239.373,
      "duration": 2.7332,
      "velocity": 111,
      "chip": "ym2612"
    },
    {
      "channel": 4,
      "note": 54,
      "start": 239.3734,
      "duration": 0.2311,
      "velocity": 89,
      "chip": "ym2612"
    },
    {
      "channel": 5,
      "note": 52,
      "start": 239.3735,
      "duration": 0.8187,
      "velocity": 97,
      "chip": "ym2612"
    },
    {
      "channel": 2,
      "note": 85,
      "start": 239.4804,
      "duration": 0.1544,
      "velocity": 111,
      "chip": "ym2612"
    },
    {
      "channel": 4,
      "note": 55,
      "start": 239.6046,
      "duration": 0.2319,
      "velocity": 89,
      "chip": "ym2612"
    },
    {
      "channel": 2,
      "note": 83,
      "start": 239.7123,
      "duration": 2.7492,
      "velocity": 111,
      "chip": "ym2612"
    },
    {
      "channel": 4,
      "note": 59,
      "start": 239.8365,
      "duration": 0.479,
      "velocity": 89,
      "chip": "ym2612"
    },
    {
      "channel": 4,
      "note": 62,
      "start": 240.3155,
      "duration": 0.4631,
      "velocity": 89,
      "chip": "ym2612"
    },
    {
      "channel": 5,
      "note": 52,
      "start": 240.3157,
      "duration": 0.4012,
      "velocity": 97,
      "chip": "ym2612"
    },
    {
      "channel": 4,
      "note": 61,
      "start": 240.7786,
      "duration": 0.4787,
      "velocity": 89,
      "chip": "ym2612"
    },
    {
      "channel": 5,
      "note": 52,
      "start": 240.7789,
      "duration": 0.8179,
      "velocity": 97,
      "chip": "ym2612"
    },
    {
      "channel": 4,
      "note": 57,
      "start": 241.2574,
      "duration": 0.9473,
      "velocity": 89,
      "chip": "ym2612"
    },
    {
      "channel": 5,
      "note": 52,
      "start": 241.7206,
      "duration": 0.4168,
      "velocity": 97,
      "chip": "ym2612"
    },
    {
      "channel": 0,
      "note": 47,
      "start": 242.2008,
      "duration": 10.7478,
      "velocity": 107,
      "chip": "ym2612"
    },
    {
      "channel": 1,
      "note": 47,
      "start": 242.2028,
      "duration": 10.7461,
      "velocity": 107,
      "chip": "ym2612"
    },
    {
      "channel": 4,
      "note": 54,
      "start": 242.2047,
      "duration": 0.2265,
      "velocity": 89,
      "chip": "ym2612"
    },
    {
      "channel": 5,
      "note": 52,
      "start": 242.2049,
      "duration": 0.8133,
      "velocity": 97,
      "chip": "ym2612"
    },
    {
      "channel": 3,
      "note": 54,
      "start": 242.3071,
      "duration": 0.2322,
      "velocity": 89,
      "chip": "ym2612"
    },
    {
      "channel": 4,
      "note": 55,
      "start": 242.4312,
      "duration": 0.2318,
      "velocity": 89,
      "chip": "ym2612"
    },
    {
      "channel": 3,
      "note": 55,
      "start": 242.5393,
      "duration": 0.2473,
      "velocity": 89,
      "chip": "ym2612"
    },
    {
      "channel": 4,
      "note": 59,
      "start": 242.663,
      "duration": 0.4787,
      "velocity": 89,
      "chip": "ym2612"
    },
    {
      "channel": 3,
      "note": 59,
      "start": 242.7866,
      "duration": 0.4631,
      "velocity": 89,
      "chip": "ym2612"
    },
    {
      "channel": 4,
      "note": 62,
      "start": 243.1418,
      "duration": 0.4631,
      "velocity": 89,
      "chip": "ym2612"
    },
    {
      "channel": 5,
      "note": 52,
      "start": 243.1419,
      "duration": 0.4013,
      "velocity": 97,
      "chip": "ym2612"
    },
    {
      "channel": 3,
      "note": 62,
      "start": 243.2497,
      "duration": 0.4789,
      "velocity": 89,
      "chip": "ym2612"
    },
    {
      "channel": 4,
      "note": 61,
      "start": 243.6049,
      "duration": 1.421,
      "velocity": 89,
      "chip": "ym2612"
    },
    {
      "channel": 5,
      "note": 52,
      "start": 243.6051,
      "duration": 0.8179,
      "velocity": 97,
      "chip": "ym2612"
    },
    {
      "channel": 3,
      "note": 61,
      "start": 243.7286,
      "duration": 1.4052,
      "velocity": 89,
      "chip": "ym2612"
    },
    {
      "channel": 5,
      "note": 52,
      "start": 244.5466,
      "duration": 0.4175,
      "velocity": 97,
      "chip": "ym2612"
    },
    {
      "channel": 4,
      "note": 54,
      "start": 245.0259,
      "duration": 0.2318,
      "velocity": 89,
      "chip": "ym2612"
    },
    {
      "channel": 5,
      "note": 52,
      "start": 245.026,
      "duration": 0.8186,
      "velocity": 97,
      "chip": "ym2612"
    },
    {
      "channel": 3,
      "note": 54,
      "start": 245.1338,
      "duration": 0.2475,
      "velocity": 89,
      "chip": "ym2612"
    },
    {
      "channel": 4,
      "note": 55,
      "start": 245.2577,
      "duration": 0.232,
      "velocity": 89,
      "chip": "ym2612"
    },
    {
      "channel": 3,
      "note": 55,
      "start": 245.3814,
      "duration": 0.2318,
      "velocity": 89,
      "chip": "ym2612"
    },
    {
      "channel": 4,
      "note": 59,
      "start": 245.4898,
      "duration": 0.4783,
      "velocity": 89,
      "chip": "ym2612"
    },
    {
      "channel": 3,
      "note": 59,
      "start": 245.6132,
      "duration": 0.4626,
      "velocity": 89,
      "chip": "ym2612"
    },
    {
      "channel": 4,
      "note": 64,
      "start": 245.9681,
      "duration": 0.4628,
      "velocity": 89,
      "chip": "ym2612"
    },
    {
      "channel": 5,
      "note": 52,
      "start": 245.9682,
      "duration": 0.401,
      "velocity": 97,
      "chip": "ym2612"
    },
    {
      "channel": 3,
      "note": 64,
      "start": 246.0759,
      "duration": 0.4783,
      "velocity": 89,
      "chip": "ym2612"
    },
    {
      "channel": 4,
      "note": 61,
      "start": 246.431,
      "duration": 0.4783,
      "velocity": 89,
      "chip": "ym2612"
    },
    {
      "channel": 5,
      "note": 52,
      "start": 246.4312,
      "duration": 0.8335,
      "velocity": 97,
      "chip": "ym2612"
    },
    {
      "channel": 3,
      "note": 61,
      "start": 246.5543,
      "duration": 0.4627,
      "velocity": 89,
      "chip": "ym2612"
    },
    {
      "channel": 4,
      "note": 66,
      "start": 246.9094,
      "duration": 0.9426,
      "velocity": 89,
      "chip": "ym2612"
    },
    {
      "channel": 3,
      "note": 66,
      "start": 247.017,
      "duration": 0.9432,
      "velocity": 89,
      "chip": "ym2612"
    },
    {
      "channel": 5,
      "note": 52,
      "start": 247.3728,
      "duration": 0.4176,
      "velocity": 97,
      "chip": "ym2612"
    },
    {
      "channel": 4,
      "note": 54,
      "start": 247.852,
      "duration": 0.2322,
      "velocity": 89,
      "chip": "ym2612"
    },
    {
      "channel": 5,
      "note": 52,
      "start": 247.8522,
      "duration": 0.8189,
      "velocity": 97,
      "chip": "ym2612"
    },
    {
      "channel": 3,
      "note": 54,
      "start": 247.9603,
      "duration": 0.2476,
      "velocity": 89,
      "chip": "ym2612"
    },
    {
      "channel": 4,
      "note": 55,
      "start": 248.0841,
      "duration": 0.2317,
      "velocity": 89,
      "chip": "ym2612"
    },
    {
      "channel": 3,
      "note": 55,
      "start": 248.208,
      "duration": 0.2315,
      "velocity": 89,
      "chip": "ym2612"
    },
    {
      "channel": 4,
      "note": 59,
      "start": 248.3159,
      "duration": 0.4789,
      "velocity": 89,
      "chip": "ym2612"
    },
    {
      "channel": 3,
      "note": 59,
      "start": 248.4394,
      "duration": 0.4633,
      "velocity": 89,
      "chip": "ym2612"
    },
    {
      "channel": 4,
      "note": 62,
      "start": 248.7948,
      "duration": 0.463,
      "velocity": 89,
      "chip": "ym2612"
    },
    {
      "channel": 5,
      "note": 52,
      "start": 248.795,
      "duration": 0.4011,
      "velocity": 97,
      "chip": "ym2612"
    },
    {
      "channel": 3,
      "note": 62,
      "start": 248.9028,
      "duration": 0.4783,
      "velocity": 89,
      "chip": "ym2612"
    },
    {
      "channel": 4,
      "note": 61,
      "start": 249.2579,
      "duration": 1.421,
      "velocity": 89,
      "chip": "ym2612"
    },
    {
      "channel": 5,
      "note": 52,
      "start": 249.2581,
      "duration": 0.8332,
      "velocity": 97,
      "chip": "ym2612"
    },
    {
      "channel": 3,
      "note": 61,
      "start": 249.3811,
      "duration": 1.4058,
      "velocity": 89,
      "chip": "ym2612"
    },
    {
      "channel": 5,
      "note": 52,
      "start": 250.1997,
      "duration": 0.4175,
      "velocity": 97,
      "chip": "ym2612"
    },
    {
      "channel": 4,
      "note": 54,
      "start": 250.6789,
      "duration": 0.232,
      "velocity": 89,
      "chip": "ym2612"
    },
    {
      "channel": 5,
      "note": 52,
      "start": 250.6791,
      "duration": 0.8181,
      "velocity": 97,
      "chip": "ym2612"
    },
    {
      "channel": 3,
      "note": 54,
      "start": 250.787,
      "duration": 0.2474,
      "velocity": 89,
      "chip": "ym2612"
    },
    {
      "channel": 4,
      "note": 55,
      "start": 250.9109,
      "duration": 0.2318,
      "velocity": 89,
      "chip": "ym2612"
    },
    {
      "channel": 3,
      "note": 55,
      "start": 251.0343,
      "duration": 0.2317,
      "velocity": 89,
      "chip": "ym2612"
    },
    {
      "channel": 4,
      "note": 59,
      "start": 251.1427,
      "duration": 0.4781,
      "velocity": 89,
      "chip": "ym2612"
    },
    {
      "channel": 3,
      "note": 59,
      "start": 251.2661,
      "duration": 0.4627,
      "velocity": 89,
      "chip": "ym2612"
    },
    {
      "channel": 4,
      "note": 62,
      "start": 251.6208,
      "duration": 0.4639,
      "velocity": 89,
      "chip": "ym2612"
    },
    {
      "channel": 5,
      "note": 52,
      "start": 251.621,
      "duration": 0.4019,
      "velocity": 97,
      "chip": "ym2612"
    },
    {
      "channel": 3,
      "note": 62,
      "start": 251.7288,
      "duration": 0.4788,
      "velocity": 89,
      "chip": "ym2612"
    },
    {
      "channel": 4,
      "note": 61,
      "start": 252.0847,
      "duration": 0.4787,
      "velocity": 89,
      "chip": "ym2612"
    },
    {
      "channel": 5,
      "note": 52,
      "start": 252.0849,
      "duration": 0.8339,
      "velocity": 97,
      "chip": "ym2612"
    },
    {
      "channel": 3,
      "note": 61,
      "start": 252.2078,
      "duration": 0.4635,
      "velocity": 89,
      "chip": "ym2612"
    },
    {
      "channel": 4,
      "note": 57,
      "start": 252.5634,
      "duration": 0.9422,
      "velocity": 89,
      "chip": "ym2612"
    },
    {
      "channel": 3,
      "note": 57,
      "start": 252.6713,
      "duration": 0.3578,
      "velocity": 1,
      "chip": "ym2612"
    },
    {
      "channel": 1,
      "note": 83,
      "start": 253.0286,
      "duration": 0.3988,
      "velocity": 127,
      "chip": "ym2612"
    },
    {
      "channel": 3,
      "note": 71,
      "start": 253.0305,
      "duration": 0.3972,
      "velocity": 94,
      "chip": "ym2612"
    },
    {
      "channel": 5,
      "note": 52,
      "start": 253.0308,
      "duration": 0.4126,
      "velocity": 97,
      "chip": "ym2612"
    },
    {
      "channel": 0,
      "note": 83,
      "start": 253.1516,
      "duration": 0.3838,
      "velocity": 127,
      "chip": "ym2612"
    },
    {
      "channel": 2,
      "note": 71,
      "start": 253.3834,
      "duration": 0.3995,
      "velocity": 94,
      "chip": "ym2612"
    },
    {
      "channel": 1,
      "note": 88,
      "start": 253.5048,
      "duration": 0.6175,
      "velocity": 127,
      "chip": "ym2612"
    },
    {
      "channel": 3,
      "note": 76,
      "start": 253.5053,
      "duration": 0.6174,
      "velocity": 94,
      "chip": "ym2612"
    },
    {
      "channel": 4,
      "note": 54,
      "start": 253.5056,
      "duration": 0.2315,
      "velocity": 89,
      "chip": "ym2612"
    },
    {
      "channel": 5,
      "note": 52,
      "start": 253.5058,
      "duration": 0.8179,
      "velocity": 97,
      "chip": "ym2612"
    },
    {
      "channel": 0,
      "note": 88,
      "start": 253.6131,
      "duration": 0.6324,
      "velocity": 127,
      "chip": "ym2612"
    },
    {
      "channel": 4,
      "note": 55,
      "start": 253.7371,
      "duration": 0.2316,
      "velocity": 89,
      "chip": "ym2612"
    },
    {
      "channel": 2,
      "note": 76,
      "start": 253.8604,
      "duration": 0.6172,
      "velocity": 94,
      "chip": "ym2612"
    },
    {
      "channel": 4,
      "note": 59,
      "start": 253.9688,
      "duration": 0.4787,
      "velocity": 89,
      "chip": "ym2612"
    },
    {
      "channel": 1,
      "note": 90,
      "start": 254.2151,
      "duration": 0.1537,
      "velocity": 127,
      "chip": "ym2612"
    },
    {
      "channel": 3,
      "note": 78,
      "start": 254.2155,
      "duration": 0.1537,
      "velocity": 94,
      "chip": "ym2612"
    },
    {
      "channel": 0,
      "note": 90,
      "start": 254.3229,
      "duration": 0.1542,
      "velocity": 127,
      "chip": "ym2612"
    },
    {
      "channel": 1,
      "note": 88,
      "start": 254.4466,
      "duration": 0.3855,
      "velocity": 127,
      "chip": "ym2612"
    },
    {
      "channel": 3,
      "note": 76,
      "start": 254.4473,
      "duration": 0.3851,
      "velocity": 94,
      "chip": "ym2612"
    },
    {
      "channel": 4,
      "note": 62,
      "start": 254.4477,
      "duration": 0.4626,
      "velocity": 89,
      "chip": "ym2612"
    },
    {
      "channel": 5,
      "note": 52,
      "start": 254.4478,
      "duration": 0.4006,
      "velocity": 97,
      "chip": "ym2612"
    },
    {
      "channel": 0,
      "note": 88,
      "start": 254.5545,
      "duration": 0.4007,
      "velocity": 127,
      "chip": "ym2612"
    },
    {
      "channel": 2,
      "note": 78,
      "start": 254.555,
      "duration": 0.1688,
      "velocity": 94,
      "chip": "ym2612"
    },
    {
      "channel": 2,
      "note": 76,
      "start": 254.8015,
      "duration": 0.3858,
      "velocity": 94,
      "chip": "ym2612"
    },
    {
      "channel": 1,
      "note": 86,
      "start": 254.9094,
      "duration": 0.7565,
      "velocity": 127,
      "chip": "ym2612"
    },
    {
      "channel": 3,
      "note": 74,
      "start": 254.91,
      "duration": 0.7565,
      "velocity": 94,
      "chip": "ym2612"
    },
    {
      "channel": 4,
      "note": 61,
      "start": 254.9103,
      "duration": 1.4201,
      "velocity": 89,
      "chip": "ym2612"
    },
    {
      "channel": 5,
      "note": 52,
      "start": 254.9105,
      "duration": 0.8334,
      "velocity": 97,
      "chip": "ym2612"
    },
    {
      "channel": 0,
      "note": 86,
      "start": 255.0329,
      "duration": 0.741,
      "velocity": 127,
      "chip": "ym2612"
    },
    {
      "channel": 2,
      "note": 74,
      "start": 255.2647,
      "duration": 0.7409,
      "velocity": 94,
      "chip": "ym2612"
    },
    {
      "channel": 1,
      "note": 83,
      "start": 255.8516,
      "duration": 0.4008,
      "velocity": 127,
      "chip": "ym2612"
    },
    {
      "channel": 3,
      "note": 71,
      "start": 255.852,
      "duration": 0.4007,
      "velocity": 94,
      "chip": "ym2612"
    },
    {
      "channel": 5,
      "note": 52,
      "start": 255.8524,
      "duration": 0.416,
      "velocity": 97,
      "chip": "ym2612"
    },
    {
      "channel": 0,
      "note": 83,
      "start": 255.9747,
      "duration": 0.3854,
      "velocity": 127,
      "chip": "ym2612"
    },
    {
      "channel": 2,
      "note": 71,
      "start": 256.2063,
      "duration": 0.4011,
      "velocity": 94,
      "chip": "ym2612"
    },
    {
      "channel": 1,
      "note": 88,
      "start": 256.3296,
      "duration": 0.6329,
      "velocity": 127,
      "chip": "ym2612"
    },
    {
      "channel": 3,
      "note": 76,
      "start": 256.3301,
      "duration": 0.6328,
      "velocity": 94,
      "chip": "ym2612"
    },
    {
      "channel": 4,
      "note": 54,
      "start": 256.3304,
      "duration": 0.2313,
      "velocity": 89,
      "chip": "ym2612"
    },
    {
      "channel": 5,
      "note": 52,
      "start": 256.3305,
      "duration": 0.8182,
      "velocity": 97,
      "chip": "ym2612"
    },
    {
      "channel": 0,
      "note": 88,
      "start": 256.4376,
      "duration": 0.6328,
      "velocity": 127,
      "chip": "ym2612"
    },
    {
      "channel": 4,
      "note": 55,
      "start": 256.5617,
      "duration": 0.232,
      "velocity": 89,
      "chip": "ym2612"
    },
    {
      "channel": 2,
      "note": 76,
      "start": 256.6849,
      "duration": 0.6174,
      "velocity": 94,
      "chip": "ym2612"
    },
    {
      "channel": 4,
      "note": 59,
      "start": 256.7938,
      "duration": 0.4785,
      "velocity": 89,
      "chip": "ym2612"
    },
    {
      "channel": 1,
      "note": 90,
      "start": 257.0399,
      "duration": 0.1538,
      "velocity": 127,
      "chip": "ym2612"
    },
    {
      "channel": 3,
      "note": 78,
      "start": 257.0403,
      "duration": 0.1537,
      "velocity": 94,
      "chip": "ym2612"
    },
    {
      "channel": 0,
      "note": 90,
      "start": 257.1479,
      "duration": 0.1539,
      "velocity": 127,
      "chip": "ym2612"
    },
    {
      "channel": 1,
      "note": 91,
      "start": 257.2714,
      "duration": 0.3856,
      "velocity": 127,
      "chip": "ym2612"
    },
    {
      "channel": 3,
      "note": 79,
      "start": 257.272,
      "duration": 0.3853,
      "velocity": 94,
      "chip": "ym2612"
    },
    {
      "channel": 4,
      "note": 64,
      "start": 257.2724,
      "duration": 0.4632,
      "velocity": 89,
      "chip": "ym2612"
    },
    {
      "channel": 5,
      "note": 52,
      "start": 257.2725,
      "duration": 0.4162,
      "velocity": 97,
      "chip": "ym2612"
    },
    {
      "channel": 0,
      "note": 91,
      "start": 257.3793,
      "duration": 0.4014,
      "velocity": 127,
      "chip": "ym2612"
    },
    {
      "channel": 2,
      "note": 78,
      "start": 257.3799,
      "duration": 0.1689,
      "velocity": 94,
      "chip": "ym2612"
    },
    {
      "channel": 2,
      "note": 79,
      "start": 257.6263,
      "duration": 0.3864,
      "velocity": 94,
      "chip": "ym2612"
    },
    {
      "channel": 1,
      "note": 93,
      "start": 257.7347,
      "duration": 0.7571,
      "velocity": 127,
      "chip": "ym2612"
    },
    {
      "channel": 3,
      "note": 81,
      "start": 257.7353,
      "duration": 0.7571,
      "velocity": 94,
      "chip": "ym2612"
    },
    {
      "channel": 4,
      "note": 61,
      "start": 257.7356,
      "duration": 0.4787,
      "velocity": 89,
      "chip": "ym2612"
    },
    {
      "channel": 5,
      "note": 52,
      "start": 257.7358,
      "duration": 0.8338,
      "velocity": 97,
      "chip": "ym2612"
    },
    {
      "channel": 0,
      "note": 93,
      "start": 257.8582,
      "duration": 0.7415,
      "velocity": 127,
      "chip": "ym2612"
    },
    {
      "channel": 2,
      "note": 81,
      "start": 258.0903,
      "duration": 0.7572,
      "velocity": 94,
      "chip": "ym2612"
    },
    {
      "channel": 4,
      "note": 66,
      "start": 258.2143,
      "duration": 0.943,
      "velocity": 89,
      "chip": "ym2612"
    },
    {
      "channel": 1,
      "note": 83,
      "start": 258.6778,
      "duration": 0.4014,
      "velocity": 127,
      "chip": "ym2612"
    },
    {
      "channel": 3,
      "note": 71,
      "start": 258.6783,
      "duration": 0.4014,
      "velocity": 94,
      "chip": "ym2612"
    },
    {
      "channel": 5,
      "note": 52,
      "start": 258.6786,
      "duration": 0.4167,
      "velocity": 97,
      "chip": "ym2612"
    },
    {
      "channel": 0,
      "note": 83,
      "start": 258.8011,
      "duration": 0.3859,
      "velocity": 127,
      "chip": "ym2612"
    },
    {
      "channel": 2,
      "note": 71,
      "start": 259.0331,
      "duration": 0.4011,
      "velocity": 94,
      "chip": "ym2612"
    },
    {
      "channel": 1,
      "note": 88,
      "start": 259.1566,
      "duration": 0.6322,
      "velocity": 127,
      "chip": "ym2612"
    },
    {
      "channel": 3,
      "note": 76,
      "start": 259.157,
      "duration": 0.6322,
      "velocity": 94,
      "chip": "ym2612"
    },
    {
      "channel": 4,
      "note": 54,
      "start": 259.1573,
      "duration": 0.2312,
      "velocity": 89,
      "chip": "ym2612"
    },
    {
      "channel": 5,
      "note": 52,
      "start": 259.1575,
      "duration": 0.8178,
      "velocity": 97,
      "chip": "ym2612"
    },
    {
      "channel": 0,
      "note": 88,
      "start": 259.2799,
      "duration": 0.6169,
      "velocity": 127,
      "chip": "ym2612"
    },
    {
      "channel": 4,
      "note": 55,
      "start": 259.3886,
      "duration": 0.2315,
      "velocity": 89,
      "chip": "ym2612"
    },
    {
      "channel": 2,
      "note": 76,
      "start": 259.512,
      "duration": 0.6169,
      "velocity": 94,
      "chip": "ym2612"
    },
    {
      "channel": 4,
      "note": 59,
      "start": 259.6202,
      "duration": 0.4786,
      "velocity": 89,
      "chip": "ym2612"
    },
    {
      "channel": 1,
      "note": 90,
      "start": 259.8663,
      "duration": 0.1542,
      "velocity": 127,
      "chip": "ym2612"
    },
    {
      "channel": 3,
      "note": 78,
      "start": 259.8668,
      "duration": 0.154,
      "velocity": 94,
      "chip": "ym2612"
    },
    {
      "channel": 0,
      "note": 90,
      "start": 259.9744,
      "duration": 0.1541,
      "velocity": 127,
      "chip": "ym2612"
    },
    {
      "channel": 1,
      "note": 91,
      "start": 260.098,
      "duration": 0.386,
      "velocity": 127,
      "chip": "ym2612"
    },
    {
      "channel": 3,
      "note": 79,
      "start": 260.0985,
      "duration": 0.3858,
      "velocity": 94,
      "chip": "ym2612"
    },
    {
      "channel": 4,
      "note": 62,
      "start": 260.0989,
      "duration": 0.463,
      "velocity": 89,
      "chip": "ym2612"
    },
    {
      "channel": 5,
      "note": 52,
      "start": 260.099,
      "duration": 0.4163,
      "velocity": 97,
      "chip": "ym2612"
    },
    {
      "channel": 0,
      "note": 91,
      "start": 260.2213,
      "duration": 0.3859,
      "velocity": 127,
      "chip": "ym2612"
    },
    {
      "channel": 2,
      "note": 78,
      "start": 260.2219,
      "duration": 0.1538,
      "velocity": 94,
      "chip": "ym2612"
    },
    {
      "channel": 2,
      "note": 79,
      "start": 260.4534,
      "duration": 0.3859,
      "velocity": 94,
      "chip": "ym2612"
    },
    {
      "channel": 1,
      "note": 90,
      "start": 260.5611,
      "duration": 0.633,
      "velocity": 127,
      "chip": "ym2612"
    },
    {
      "channel": 3,
      "note": 78,
      "start": 260.5616,
      "duration": 0.6328,
      "velocity": 94,
      "chip": "ym2612"
    },
    {
      "channel": 4,
      "note": 61,
      "start": 260.562,
      "duration": 1.4211,
      "velocity": 89,
      "chip": "ym2612"
    },
    {
      "channel": 5,
      "note": 52,
      "start": 260.5622,
      "duration": 0.8338,
      "velocity": 97,
      "chip": "ym2612"
    },
    {
      "channel": 0,
      "note": 90,
      "start": 260.6848,
      "duration": 0.6331,
      "velocity": 127,
      "chip": "ym2612"
    },
    {
      "channel": 2,
      "note": 78,
      "start": 260.9167,
      "duration": 0.633,
      "velocity": 94,
      "chip": "ym2612"
    },
    {
      "channel": 1,
      "note": 93,
      "start": 261.2718,
      "duration": 0.154,
      "velocity": 127,
      "chip": "ym2612"
    },
    {
      "channel": 3,
      "note": 81,
      "start": 261.2721,
      "duration": 0.154,
      "velocity": 94,
      "chip": "ym2612"
    },
    {
      "channel": 0,
      "note": 93,
      "start": 261.3953,
      "duration": 0.1541,
      "velocity": 127,
      "chip": "ym2612"
    },
    {
      "channel": 1,
      "note": 90,
      "start": 261.5036,
      "duration": 0.4014,
      "velocity": 127,
      "chip": "ym2612"
    },
    {
      "channel": 3,
      "note": 78,
      "start": 261.5042,
      "duration": 0.4012,
      "velocity": 94,
      "chip": "ym2612"
    },
    {
      "channel": 5,
      "note": 52,
      "start": 261.5044,
      "duration": 0.4166,
      "velocity": 97,
      "chip": "ym2612"
    },
    {
      "channel": 0,
      "note": 90,
      "start": 261.6271,
      "duration": 0.3858,
      "velocity": 127,
      "chip": "ym2612"
    },
    {
      "channel": 2,
      "note": 81,
      "start": 261.6276,
      "duration": 0.1538,
      "velocity": 94,
      "chip": "ym2612"
    },
    {
      "channel": 2,
      "note": 78,
      "start": 261.859,
      "duration": 0.4011,
      "velocity": 94,
      "chip": "ym2612"
    },
    {
      "channel": 1,
      "note": 88,
      "start": 261.9824,
      "duration": 0.8641,
      "velocity": 127,
      "chip": "ym2612"
    },
    {
      "channel": 3,
      "note": 76,
      "start": 261.9828,
      "duration": 0.8641,
      "velocity": 94,
      "chip": "ym2612"
    },
    {
      "channel": 4,
      "note": 54,
      "start": 261.9832,
      "duration": 0.2312,
      "velocity": 89,
      "chip": "ym2612"
    },
    {
      "channel": 5,
      "note": 52,
      "start": 261.9833,
      "duration": 0.8179,
      "velocity": 97,
      "chip": "ym2612"
    },
    {
      "channel": 0,
      "note": 88,
      "start": 262.1058,
      "duration": 0.8639,
      "velocity": 127,
      "chip": "ym2612"
    },
    {
      "channel": 4,
      "note": 55,
      "start": 262.2143,
      "duration": 0.2317,
      "velocity": 89,
      "chip": "ym2612"
    },
    {
      "channel": 2,
      "note": 76,
      "start": 262.3377,
      "duration": 0.8641,
      "velocity": 94,
      "chip": "ym2612"
    },
    {
      "channel": 4,
      "note": 59,
      "start": 262.4461,
      "duration": 0.4786,
      "velocity": 89,
      "chip": "ym2612"
    },
    {
      "channel": 1,
      "note": 86,
      "start": 262.924,
      "duration": 0.3857,
      "velocity": 127,
      "chip": "ym2612"
    },
    {
      "channel": 3,
      "note": 74,
      "start": 262.9245,
      "duration": 0.3855,
      "velocity": 94,
      "chip": "ym2612"
    },
    {
      "channel": 4,
      "note": 62,
      "start": 262.9249,
      "duration": 0.4629,
      "velocity": 89,
      "chip": "ym2612"
    },
    {
      "channel": 5,
      "note": 52,
      "start": 262.9249,
      "duration": 0.4161,
      "velocity": 97,
      "chip": "ym2612"
    },
    {
      "channel": 0,
      "note": 86,
      "start": 263.0472,
      "duration": 0.3859,
      "velocity": 127,
      "chip": "ym2612"
    },
    {
      "channel": 2,
      "note": 74,
      "start": 263.2793,
      "duration": 0.3858,
      "velocity": 94,
      "chip": "ym2612"
    },
    {
      "channel": 1,
      "note": 83,
      "start": 263.387,
      "duration": 0.7565,
      "velocity": 127,
      "chip": "ym2612"
    },
    {
      "channel": 3,
      "note": 71,
      "start": 263.3875,
      "duration": 0.7566,
      "velocity": 94,
      "chip": "ym2612"
    },
    {
      "channel": 4,
      "note": 61,
      "start": 263.3878,
      "duration": 0.4788,
      "velocity": 89,
      "chip": "ym2612"
    },
    {
      "channel": 5,
      "note": 52,
      "start": 263.3881,
      "duration": 0.8334,
      "velocity": 97,
      "chip": "ym2612"
    },
    {
      "channel": 0,
      "note": 83,
      "start": 263.5106,
      "duration": 0.7409,
      "velocity": 127,
      "chip": "ym2612"
    },
    {
      "channel": 2,
      "note": 71,
      "start": 263.7424,
      "duration": 0.7566,
      "velocity": 94,
      "chip": "ym2612"
    },
    {
      "channel": 4,
      "note": 57,
      "start": 263.8667,
      "duration": 0.9421,
      "velocity": 89,
      "chip": "ym2612"
    },
    {
      "channel": 1,
      "note": 83,
      "start": 264.329,
      "duration": 0.4018,
      "velocity": 127,
      "chip": "ym2612"
    },
    {
      "channel": 3,
      "note": 71,
      "start": 264.3294,
      "duration": 0.4018,
      "velocity": 94,
      "chip": "ym2612"
    },
    {
      "channel": 5,
      "note": 52,
      "start": 264.3297,
      "duration": 0.417,
      "velocity": 97,
      "chip": "ym2612"
    },
    {
      "channel": 0,
      "note": 83,
      "start": 264.4523,
      "duration": 0.4017,
      "velocity": 127,
      "chip": "ym2612"
    },
    {
      "channel": 2,
      "note": 71,
      "start": 264.6844,
      "duration": 0.4014,
      "velocity": 94,
      "chip": "ym2612"
    },
    {
      "channel": 1,
      "note": 88,
      "start": 264.808,
      "duration": 0.6327,
      "velocity": 127,
      "chip": "ym2612"
    },
    {
      "channel": 3,
      "note": 76,
      "start": 264.8085,
      "duration": 0.6326,
      "velocity": 94,
      "chip": "ym2612"
    },
    {
      "channel": 4,
      "note": 54,
      "start": 264.8088,
      "duration": 0.231,
      "velocity": 89,
      "chip": "ym2612"
    },
    {
      "channel": 5,
      "note": 52,
      "start": 264.809,
      "duration": 0.8181,
      "velocity": 97,
      "chip": "ym2612"
    },
    {
      "channel": 0,
      "note": 88,
      "start": 264.9314,
      "duration": 0.6175,
      "velocity": 127,
      "chip": "ym2612"
    },
    {
      "channel": 4,
      "note": 55,
      "start": 265.0399,
      "duration": 0.2474,
      "velocity": 89,
      "chip": "ym2612"
    },
    {
      "channel": 2,
      "note": 76,
      "start": 265.1634,
      "duration": 0.6333,
      "velocity": 94,
      "chip": "ym2612"
    },
    {
      "channel": 4,
      "note": 59,
      "start": 265.2873,
      "duration": 0.464,
      "velocity": 89,
      "chip": "ym2612"
    },
    {
      "channel": 1,
      "note": 90,
      "start": 265.5184,
      "duration": 0.1541,
      "velocity": 127,
      "chip": "ym2612"
    },
    {
      "channel": 3,
      "note": 78,
      "start": 265.5188,
      "duration": 0.154,
      "velocity": 94,
      "chip": "ym2612"
    },
    {
      "channel": 0,
      "note": 90,
      "start": 265.6263,
      "duration": 0.1698,
      "velocity": 127,
      "chip": "ym2612"
    },
    {
      "channel": 1,
      "note": 88,
      "start": 265.7503,
      "duration": 0.3858,
      "velocity": 127,
      "chip": "ym2612"
    },
    {
      "channel": 3,
      "note": 76,
      "start": 265.751,
      "duration": 0.3855,
      "velocity": 94,
      "chip": "ym2612"
    },
    {
      "channel": 4,
      "note": 62,
      "start": 265.7513,
      "duration": 0.4785,
      "velocity": 89,
      "chip": "ym2612"
    },
    {
      "channel": 5,
      "note": 52,
      "start": 265.7515,
      "duration": 0.4162,
      "velocity": 97,
      "chip": "ym2612"
    },
    {
      "channel": 0,
      "note": 88,
      "start": 265.8737,
      "duration": 0.3859,
      "velocity": 127,
      "chip": "ym2612"
    },
    {
      "channel": 2,
      "note": 78,
      "start": 265.8743,
      "duration": 0.1536,
      "velocity": 94,
      "chip": "ym2612"
    },
    {
      "channel": 2,
      "note": 76,
      "start": 266.1054,
      "duration": 0.386,
      "velocity": 94,
      "chip": "ym2612"
    },
    {
      "channel": 1,
      "note": 86,
      "start": 266.2291,
      "duration": 0.7405,
      "velocity": 127,
      "chip": "ym2612"
    },
    {
      "channel": 3,
      "note": 74,
      "start": 266.2296,
      "duration": 0.7406,
      "velocity": 94,
      "chip": "ym2612"
    },
    {
      "channel": 4,
      "note": 61,
      "start": 266.2298,
      "duration": 1.4046,
      "velocity": 89,
      "chip": "ym2612"
    },
    {
      "channel": 5,
      "note": 52,
      "start": 266.23,
      "duration": 0.8178,
      "velocity": 97,
      "chip": "ym2612"
    },
    {
      "channel": 0,
      "note": 86,
      "start": 266.337,
      "duration": 0.7408,
      "velocity": 127,
      "chip": "ym2612"
    },
    {
      "channel": 2,
      "note": 74,
      "start": 266.5691,
      "duration": 0.7558,
      "velocity": 94,
      "chip": "ym2612"
    },
    {
      "channel": 1,
      "note": 83,
      "start": 267.171,
      "duration": 0.3855,
      "velocity": 127,
      "chip": "ym2612"
    },
    {
      "channel": 3,
      "note": 71,
      "start": 267.1715,
      "duration": 0.3854,
      "velocity": 94,
      "chip": "ym2612"
    },
    {
      "channel": 5,
      "note": 52,
      "start": 267.1718,
      "duration": 0.4008,
      "velocity": 97,
      "chip": "ym2612"
    },
    {
      "channel": 0,
      "note": 83,
      "start": 267.2785,
      "duration": 0.4012,
      "velocity": 127,
      "chip": "ym2612"
    },
    {
      "channel": 2,
      "note": 71,
      "start": 267.5105,
      "duration": 0.4015,
      "velocity": 94,
      "chip": "ym2612"
    },
    {
      "channel": 1,
      "note": 88,
      "start": 267.6337,
      "duration": 0.6333,
      "velocity": 127,
      "chip": "ym2612"
    },
    {
      "channel": 3,
      "note": 76,
      "start": 267.6342,
      "duration": 0.6332,
      "velocity": 94,
      "chip": "ym2612"
    },
    {
      "channel": 4,
      "note": 54,
      "start": 267.6345,
      "duration": 0.2317,
      "velocity": 89,
      "chip": "ym2612"
    },
    {
      "channel": 5,
      "note": 52,
      "start": 267.6347,
      "duration": 0.8186,
      "velocity": 97,
      "chip": "ym2612"
    },
    {
      "channel": 0,
      "note": 88,
      "start": 267.7573,
      "duration": 0.6177,
      "velocity": 127,
      "chip": "ym2612"
    },
    {
      "channel": 4,
      "note": 55,
      "start": 267.8663,
      "duration": 0.2468,
      "velocity": 89,
      "chip": "ym2612"
    },
    {
      "channel": 2,
      "note": 76,
      "start": 267.9895,
      "duration": 0.6333,
      "velocity": 94,
      "chip": "ym2612"
    },
    {
      "channel": 4,
      "note": 59,
      "start": 268.1132,
      "duration": 0.4643,
      "velocity": 89,
      "chip": "ym2612"
    },
    {
      "channel": 1,
      "note": 90,
      "start": 268.3446,
      "duration": 0.1542,
      "velocity": 127,
      "chip": "ym2612"
    },
    {
      "channel": 3,
      "note": 78,
      "start": 268.345,
      "duration": 0.154,
      "velocity": 94,
      "chip": "ym2612"
    },
    {
      "channel": 0,
      "note": 90,
      "start": 268.4526,
      "duration": 0.1697,
      "velocity": 127,
      "chip": "ym2612"
    },
    {
      "channel": 1,
      "note": 91,
      "start": 268.5765,
      "duration": 0.3855,
      "velocity": 127,
      "chip": "ym2612"
    },
    {
      "channel": 3,
      "note": 79,
      "start": 268.5771,
      "duration": 0.3853,
      "velocity": 94,
      "chip": "ym2612"
    },
    {
      "channel": 4,
      "note": 64,
      "start": 268.5775,
      "duration": 0.4781,
      "velocity": 89,
      "chip": "ym2612"
    },
    {
      "channel": 5,
      "note": 52,
      "start": 268.5776,
      "duration": 0.416,
      "velocity": 97,
      "chip": "ym2612"
    },
    {
      "channel": 0,
      "note": 91,
      "start": 268.6998,
      "duration": 0.3855,
      "velocity": 127,
      "chip": "ym2612"
    },
    {
      "channel": 2,
      "note": 78,
      "start": 268.7003,
      "duration": 0.1535,
      "velocity": 94,
      "chip": "ym2612"
    },
    {
      "channel": 2,
      "note": 79,
      "start": 268.9315,
      "duration": 0.3862,
      "velocity": 94,
      "chip": "ym2612"
    },
    {
      "channel": 1,
      "note": 93,
      "start": 269.0549,
      "duration": 0.7418,
      "velocity": 127,
      "chip": "ym2612"
    },
    {
      "channel": 3,
      "note": 81,
      "start": 269.0554,
      "duration": 0.742,
      "velocity": 94,
      "chip": "ym2612"
    },
    {
      "channel": 4,
      "note": 61,
      "start": 269.0556,
      "duration": 0.4634,
      "velocity": 89,
      "chip": "ym2612"
    },
    {
      "channel": 5,
      "note": 52,
      "start": 269.0558,
      "duration": 0.8187,
      "velocity": 97,
      "chip": "ym2612"
    },
    {
      "channel": 0,
      "note": 93,
      "start": 269.1629,
      "duration": 0.7568,
      "velocity": 127,
      "chip": "ym2612"
    },
    {
      "channel": 2,
      "note": 81,
      "start": 269.3954,
      "duration": 0.7561,
      "velocity": 94,
      "chip": "ym2612"
    },
    {
      "channel": 4,
      "note": 66,
      "start": 269.5191,
      "duration": 0.9424,
      "velocity": 89,
      "chip": "ym2612"
    },
    {
      "channel": 1,
      "note": 83,
      "start": 269.9974,
      "duration": 0.3856,
      "velocity": 127,
      "chip": "ym2612"
    },
    {
      "channel": 3,
      "note": 71,
      "start": 269.9979,
      "duration": 0.3855,
      "velocity": 94,
      "chip": "ym2612"
    },
    {
      "channel": 5,
      "note": 52,
      "start": 269.9981,
      "duration": 0.4009,
      "velocity": 97,
      "chip": "ym2612"
    },
    {
      "channel": 0,
      "note": 83,
      "start": 270.1052,
      "duration": 0.4016,
      "velocity": 127,
      "chip": "ym2612"
    },
    {
      "channel": 2,
      "note": 71,
      "start": 270.3369,
      "duration": 0.4016,
      "velocity": 94,
      "chip": "ym2612"
    },
    {
      "channel": 1,
      "note": 88,
      "start": 270.4607,
      "duration": 0.6332,
      "velocity": 127,
      "chip": "ym2612"
    },
    {
      "channel": 3,
      "note": 76,
      "start": 270.4612,
      "duration": 0.6331,
      "velocity": 94,
      "chip": "ym2612"
    },
    {
      "channel": 4,
      "note": 54,
      "start": 270.4615,
      "duration": 0.2313,
      "velocity": 89,
      "chip": "ym2612"
    },
    {
      "channel": 5,
      "note": 52,
      "start": 270.4617,
      "duration": 0.8181,
      "velocity": 97,
      "chip": "ym2612"
    },
    {
      "channel": 0,
      "note": 88,
      "start": 270.5842,
      "duration": 0.6176,
      "velocity": 127,
      "chip": "ym2612"
    },
    {
      "channel": 4,
      "note": 55,
      "start": 270.6928,
      "duration": 0.2475,
      "velocity": 89,
      "chip": "ym2612"
    },
    {
      "channel": 2,
      "note": 76,
      "start": 270.8161,
      "duration": 0.6326,
      "velocity": 94,
      "chip": "ym2612"
    },
    {
      "channel": 4,
      "note": 59,
      "start": 270.9404,
      "duration": 0.4629,
      "velocity": 89,
      "chip": "ym2612"
    },
    {
      "channel": 1,
      "note": 90,
      "start": 271.1712,
      "duration": 0.154,
      "velocity": 127,
      "chip": "ym2612"
    },
    {
      "channel": 3,
      "note": 78,
      "start": 271.1717,
      "duration": 0.1537,
      "velocity": 94,
      "chip": "ym2612"
    },
    {
      "channel": 0,
      "note": 90,
      "start": 271.2791,
      "duration": 0.1692,
      "velocity": 127,
      "chip": "ym2612"
    },
    {
      "channel": 1,
      "note": 91,
      "start": 271.4024,
      "duration": 0.4015,
      "velocity": 127,
      "chip": "ym2612"
    },
    {
      "channel": 3,
      "note": 79,
      "start": 271.403,
      "duration": 0.4013,
      "velocity": 94,
      "chip": "ym2612"
    },
    {
      "channel": 4,
      "note": 62,
      "start": 271.4033,
      "duration": 0.4787,
      "velocity": 89,
      "chip": "ym2612"
    },
    {
      "channel": 5,
      "note": 52,
      "start": 271.4034,
      "duration": 0.4166,
      "velocity": 97,
      "chip": "ym2612"
    },
    {
      "channel": 0,
      "note": 91,
      "start": 271.5258,
      "duration": 0.3859,
      "velocity": 127,
      "chip": "ym2612"
    },
    {
      "channel": 2,
      "note": 78,
      "start": 271.5263,
      "duration": 0.1538,
      "velocity": 94,
      "chip": "ym2612"
    },
    {
      "channel": 2,
      "note": 79,
      "start": 271.7578,
      "duration": 0.386,
      "velocity": 94,
      "chip": "ym2612"
    },
    {
      "channel": 1,
      "note": 90,
      "start": 271.8812,
      "duration": 0.618,
      "velocity": 127,
      "chip": "ym2612"
    },
    {
      "channel": 3,
      "note": 78,
      "start": 271.8817,
      "duration": 0.6179,
      "velocity": 94,
      "chip": "ym2612"
    },
    {
      "channel": 4,
      "note": 61,
      "start": 271.882,
      "duration": 1.4062,
      "velocity": 89,
      "chip": "ym2612"
    },
    {
      "channel": 5,
      "note": 52,
      "start": 271.8822,
      "duration": 0.8185,
      "velocity": 97,
      "chip": "ym2612"
    },
    {
      "channel": 0,
      "note": 90,
      "start": 271.9894,
      "duration": 0.6331,
      "velocity": 127,
      "chip": "ym2612"
    },
    {
      "channel": 2,
      "note": 78,
      "start": 272.2368,
      "duration": 0.618,
      "velocity": 94,
      "chip": "ym2612"
    },
    {
      "channel": 1,
      "note": 93,
      "start": 272.5765,
      "duration": 0.1698,
      "velocity": 127,
      "chip": "ym2612"
    },
    {
      "channel": 3,
      "note": 81,
      "start": 272.577,
      "duration": 0.1695,
      "velocity": 94,
      "chip": "ym2612"
    },
    {
      "channel": 0,
      "note": 93,
      "start": 272.6998,
      "duration": 0.1544,
      "velocity": 127,
      "chip": "ym2612"
    },
    {
      "channel": 1,
      "note": 90,
      "start": 272.824,
      "duration": 0.386,
      "velocity": 127,
      "chip": "ym2612"
    },
    {
      "channel": 3,
      "note": 78,
      "start": 272.8245,
      "duration": 0.3858,
      "velocity": 94,
      "chip": "ym2612"
    },
    {
      "channel": 5,
      "note": 52,
      "start": 272.8248,
      "duration": 0.4011,
      "velocity": 97,
      "chip": "ym2612"
    },
    {
      "channel": 0,
      "note": 90,
      "start": 272.9319,
      "duration": 0.4014,
      "velocity": 127,
      "chip": "ym2612"
    },
    {
      "channel": 2,
      "note": 81,
      "start": 272.9323,
      "duration": 0.1536,
      "velocity": 94,
      "chip": "ym2612"
    },
    {
      "channel": 2,
      "note": 78,
      "start": 273.1794,
      "duration": 0.3859,
      "velocity": 94,
      "chip": "ym2612"
    },
    {
      "channel": 1,
      "note": 88,
      "start": 273.2874,
      "duration": 0.8639,
      "velocity": 127,
      "chip": "ym2612"
    },
    {
      "channel": 3,
      "note": 76,
      "start": 273.288,
      "duration": 0.8638,
      "velocity": 94,
      "chip": "ym2612"
    },
    {
      "channel": 4,
      "note": 54,
      "start": 273.2883,
      "duration": 0.2311,
      "velocity": 89,
      "chip": "ym2612"
    },
    {
      "channel": 5,
      "note": 52,
      "start": 273.2885,
      "duration": 0.8328,
      "velocity": 97,
      "chip": "ym2612"
    },
    {
      "channel": 0,
      "note": 88,
      "start": 273.4108,
      "duration": 0.8638,
      "velocity": 127,
      "chip": "ym2612"
    },
    {
      "channel": 4,
      "note": 55,
      "start": 273.5194,
      "duration": 0.2471,
      "velocity": 89,
      "chip": "ym2612"
    },
    {
      "channel": 2,
      "note": 76,
      "start": 273.6428,
      "duration": 0.8639,
      "velocity": 94,
      "chip": "ym2612"
    },
    {
      "channel": 4,
      "note": 59,
      "start": 273.7666,
      "duration": 0.4625,
      "velocity": 89,
      "chip": "ym2612"
    },
    {
      "channel": 1,
      "note": 88,
      "start": 274.2284,
      "duration": 0.402,
      "velocity": 127,
      "chip": "ym2612"
    },
    {
      "channel": 3,
      "note": 76,
      "start": 274.2288,
      "duration": 0.402,
      "velocity": 94,
      "chip": "ym2612"
    },
    {
      "channel": 4,
      "note": 62,
      "start": 274.2292,
      "duration": 0.479,
      "velocity": 89,
      "chip": "ym2612"
    },
    {
      "channel": 5,
      "note": 52,
      "start": 274.2293,
      "duration": 0.4171,
      "velocity": 97,
      "chip": "ym2612"
    },
    {
      "channel": 0,
      "note": 88,
      "start": 274.3517,
      "duration": 0.3865,
      "velocity": 127,
      "chip": "ym2612"
    },
    {
      "channel": 2,
      "note": 76,
      "start": 274.5841,
      "duration": 0.3859,
      "velocity": 94,
      "chip": "ym2612"
    },
    {
      "channel": 1,
      "note": 88,
      "start": 274.7076,
      "duration": 0.7411,
      "velocity": 127,
      "chip": "ym2612"
    },
    {
      "channel": 3,
      "note": 76,
      "start": 274.7078,
      "duration": 0.7414,
      "velocity": 94,
      "chip": "ym2612"
    },
    {
      "channel": 4,
      "note": 61,
      "start": 274.7082,
      "duration": 0.4632,
      "velocity": 89,
      "chip": "ym2612"
    },
    {
      "channel": 5,
      "note": 52,
      "start": 274.7083,
      "duration": 0.8185,
      "velocity": 97,
      "chip": "ym2612"
    },
    {
      "channel": 0,
      "note": 88,
      "start": 274.8155,
      "duration": 0.7566,
      "velocity": 127,
      "chip": "ym2612"
    },
    {
      "channel": 2,
      "note": 76,
      "start": 275.0631,
      "duration": 0.7414,
      "velocity": 94,
      "chip": "ym2612"
    },
    {
      "channel": 4,
      "note": 57,
      "start": 275.1715,
      "duration": 0.946,
      "velocity": 89,
      "chip": "ym2612"
    },
    {
      "channel": 3,
      "note": 83,
      "start": 275.6519,
      "duration": 0.3844,
      "velocity": 111,
      "chip": "ym2612"
    },
    {
      "channel": 5,
      "note": 52,
      "start": 275.652,
      "duration": 0.3999,
      "velocity": 97,
      "chip": "ym2612"
    },
    {
      "channel": 2,
      "note": 83,
      "start": 276.0074,
      "duration": 0.3833,
      "velocity": 111,
      "chip": "ym2612"
    },
    {
      "channel": 0,
      "note": 74,
      "start": 276.1151,
      "duration": 0.8624,
      "velocity": 91,
      "chip": "ym2612"
    },
    {
      "channel": 1,
      "note": 78,
      "start": 276.1169,
      "duration": 0.8608,
      "velocity": 91,
      "chip": "ym2612"
    },
    {
      "channel": 3,
      "note": 86,
      "start": 276.1172,
      "duration": 0.861,
      "velocity": 111,
      "chip": "ym2612"
    },
    {
      "channel": 4,
      "note": 54,
      "start": 276.1175,
      "duration": 0.2273,
      "velocity": 89,
      "chip": "ym2612"
    },
    {
      "channel": 5,
      "note": 52,
      "start": 276.1178,
      "duration": 0.8297,
      "velocity": 97,
      "chip": "ym2612"
    },
    {
      "channel": 4,
      "note": 55,
      "start": 276.3448,
      "duration": 0.2472,
      "velocity": 89,
      "chip": "ym2612"
    },
    {
      "channel": 2,
      "note": 86,
      "start": 276.4681,
      "duration": 0.8649,
      "velocity": 111,
      "chip": "ym2612"
    },
    {
      "channel": 4,
      "note": 59,
      "start": 276.592,
      "duration": 0.464,
      "velocity": 89,
      "chip": "ym2612"
    },
    {
      "channel": 0,
      "note": 74,
      "start": 277.0549,
      "duration": 0.4014,
      "velocity": 91,
      "chip": "ym2612"
    },
    {
      "channel": 1,
      "note": 78,
      "start": 277.0552,
      "duration": 0.4015,
      "velocity": 91,
      "chip": "ym2612"
    },
    {
      "channel": 3,
      "note": 86,
      "start": 277.0557,
      "duration": 0.4014,
      "velocity": 111,
      "chip": "ym2612"
    },
    {
      "channel": 4,
      "note": 62,
      "start": 277.0561,
      "duration": 0.4786,
      "velocity": 89,
      "chip": "ym2612"
    },
    {
      "channel": 5,
      "note": 52,
      "start": 277.0562,
      "duration": 0.4164,
      "velocity": 97,
      "chip": "ym2612"
    },
    {
      "channel": 2,
      "note": 86,
      "start": 277.4103,
      "duration": 0.4016,
      "velocity": 111,
      "chip": "ym2612"
    },
    {
      "channel": 0,
      "note": 73,
      "start": 277.5336,
      "duration": 0.618,
      "velocity": 91,
      "chip": "ym2612"
    },
    {
      "channel": 1,
      "note": 76,
      "start": 277.534,
      "duration": 0.6179,
      "velocity": 91,
      "chip": "ym2612"
    },
    {
      "channel": 3,
      "note": 85,
      "start": 277.5344,
      "duration": 0.618,
      "velocity": 111,
      "chip": "ym2612"
    },
    {
      "channel": 4,
      "note": 61,
      "start": 277.5348,
      "duration": 1.4054,
      "velocity": 89,
      "chip": "ym2612"
    },
    {
      "channel": 5,
      "note": 52,
      "start": 277.5349,
      "duration": 0.818,
      "velocity": 97,
      "chip": "ym2612"
    },
    {
      "channel": 2,
      "note": 85,
      "start": 277.8894,
      "duration": 0.6174,
      "velocity": 111,
      "chip": "ym2612"
    },
    {
      "channel": 0,
      "note": 71,
      "start": 278.2442,
      "duration": 0.1541,
      "velocity": 91,
      "chip": "ym2612"
    },
    {
      "channel": 1,
      "note": 74,
      "start": 278.2445,
      "duration": 0.1539,
      "velocity": 91,
      "chip": "ym2612"
    },
    {
      "channel": 3,
      "note": 83,
      "start": 278.245,
      "duration": 0.154,
      "velocity": 111,
      "chip": "ym2612"
    },
    {
      "channel": 0,
      "note": 69,
      "start": 278.4759,
      "duration": 0.3861,
      "velocity": 91,
      "chip": "ym2612"
    },
    {
      "channel": 1,
      "note": 73,
      "start": 278.4763,
      "duration": 0.386,
      "velocity": 91,
      "chip": "ym2612"
    },
    {
      "channel": 3,
      "note": 81,
      "start": 278.4767,
      "duration": 0.3858,
      "velocity": 111,
      "chip": "ym2612"
    },
    {
      "channel": 5,
      "note": 52,
      "start": 278.4771,
      "duration": 0.401,
      "velocity": 97,
      "chip": "ym2612"
    },
    {
      "channel": 2,
      "note": 83,
      "start": 278.5842,
      "duration": 0.1699,
      "velocity": 111,
      "chip": "ym2612"
    },
    {
      "channel": 2,
      "note": 81,
      "start": 278.8313,
      "duration": 0.3859,
      "velocity": 111,
      "chip": "ym2612"
    },
    {
      "channel": 0,
      "note": 71,
      "start": 278.939,
      "duration": 2.2863,
      "velocity": 91,
      "chip": "ym2612"
    },
    {
      "channel": 1,
      "note": 74,
      "start": 278.9394,
      "duration": 2.2861,
      "velocity": 91,
      "chip": "ym2612"
    },
    {
      "channel": 3,
      "note": 83,
      "start": 278.9398,
      "duration": 2.2862,
      "velocity": 111,
      "chip": "ym2612"
    },
    {
      "channel": 4,
      "note": 54,
      "start": 278.9402,
      "duration": 0.2466,
      "velocity": 89,
      "chip": "ym2612"
    },
    {
      "channel": 5,
      "note": 52,
      "start": 278.9405,
      "duration": 0.8335,
      "velocity": 97,
      "chip": "ym2612"
    },
    {
      "channel": 4,
      "note": 55,
      "start": 279.1869,
      "duration": 0.232,
      "velocity": 89,
      "chip": "ym2612"
    },
    {
      "channel": 2,
      "note": 83,
      "start": 279.2946,
      "duration": 2.286,
      "velocity": 111,
      "chip": "ym2612"
    },
    {
      "channel": 4,
      "note": 59,
      "start": 279.4188,
      "duration": 0.4631,
      "velocity": 89,
      "chip": "ym2612"
    },
    {
      "channel": 4,
      "note": 64,
      "start": 279.8819,
      "duration": 0.479,
      "velocity": 89,
      "chip": "ym2612"
    },
    {
      "channel": 5,
      "note": 52,
      "start": 279.8821,
      "duration": 0.4168,
      "velocity": 97,
      "chip": "ym2612"
    },
    {
      "channel": 4,
      "note": 61,
      "start": 280.361,
      "duration": 0.4634,
      "velocity": 89,
      "chip": "ym2612"
    },
    {
      "channel": 5,
      "note": 52,
      "start": 280.3612,
      "duration": 0.8188,
      "velocity": 97,
      "chip": "ym2612"
    },
    {
      "channel": 4,
      "note": 66,
      "start": 280.8244,
      "duration": 0.9421,
      "velocity": 89,
      "chip": "ym2612"
    },
    {
      "channel": 3,
      "note": 83,
      "start": 281.3029,
      "duration": 0.1544,
      "velocity": 111,
      "chip": "ym2612"
    },
    {
      "channel": 5,
      "note": 52,
      "start": 281.3031,
      "duration": 0.4168,
      "velocity": 97,
      "chip": "ym2612"
    },
    {
      "channel": 3,
      "note": 85,
      "start": 281.5345,
      "duration": 0.1541,
      "velocity": 111,
      "chip": "ym2612"
    },
    {
      "channel": 2,
      "note": 83,
      "start": 281.658,
      "duration": 0.1538,
      "velocity": 111,
      "chip": "ym2612"
    },
    {
      "channel": 0,
      "note": 74,
      "start": 281.7655,
      "duration": 0.8654,
      "velocity": 91,
      "chip": "ym2612"
    },
    {
      "channel": 1,
      "note": 78,
      "start": 281.7659,
      "duration": 0.8652,
      "velocity": 91,
      "chip": "ym2612"
    },
    {
      "channel": 3,
      "note": 86,
      "start": 281.7663,
      "duration": 0.8653,
      "velocity": 111,
      "chip": "ym2612"
    },
    {
      "channel": 4,
      "note": 54,
      "start": 281.7666,
      "duration": 0.2466,
      "velocity": 89,
      "chip": "ym2612"
    },
    {
      "channel": 5,
      "note": 52,
      "start": 281.7668,
      "duration": 0.8341,
      "velocity": 97,
      "chip": "ym2612"
    },
    {
      "channel": 2,
      "note": 85,
      "start": 281.8891,
      "duration": 0.1547,
      "velocity": 111,
      "chip": "ym2612"
    },
    {
      "channel": 4,
      "note": 55,
      "start": 282.0133,
      "duration": 0.232,
      "velocity": 89,
      "chip": "ym2612"
    },
    {
      "channel": 2,
      "note": 86,
      "start": 282.1212,
      "duration": 0.8653,
      "velocity": 111,
      "chip": "ym2612"
    },
    {
      "channel": 4,
      "note": 59,
      "start": 282.2453,
      "duration": 0.464,
      "velocity": 89,
      "chip": "ym2612"
    },
    {
      "channel": 0,
      "note": 74,
      "start": 282.7082,
      "duration": 0.4019,
      "velocity": 91,
      "chip": "ym2612"
    },
    {
      "channel": 1,
      "note": 78,
      "start": 282.7085,
      "duration": 0.4019,
      "velocity": 91,
      "chip": "ym2612"
    },
    {
      "channel": 3,
      "note": 86,
      "start": 282.709,
      "duration": 0.4018,
      "velocity": 111,
      "chip": "ym2612"
    },
    {
      "channel": 4,
      "note": 62,
      "start": 282.7094,
      "duration": 0.4791,
      "velocity": 89,
      "chip": "ym2612"
    },
    {
      "channel": 5,
      "note": 52,
      "start": 282.7095,
      "duration": 0.4169,
      "velocity": 97,
      "chip": "ym2612"
    },
    {
      "channel": 2,
      "note": 86,
      "start": 283.064,
      "duration": 0.4011,
      "velocity": 111,
      "chip": "ym2612"
    },
    {
      "channel": 0,
      "note": 73,
      "start": 283.1874,
      "duration": 0.3855,
      "velocity": 91,
      "chip": "ym2612"
    },
    {
      "channel": 1,
      "note": 76,
      "start": 283.1879,
      "duration": 0.3855,
      "velocity": 91,
      "chip": "ym2612"
    },
    {
      "channel": 3,
      "note": 85,
      "start": 283.1882,
      "duration": 0.463,
      "velocity": 111,
      "chip": "ym2612"
    },
    {
      "channel": 4,
      "note": 61,
      "start": 283.1886,
      "duration": 1.4058,
      "velocity": 89,
      "chip": "ym2612"
    },
    {
      "channel": 5,
      "note": 52,
      "start": 283.1887,
      "duration": 0.8182,
      "velocity": 97,
      "chip": "ym2612"
    },
    {
      "channel": 2,
      "note": 85,
      "start": 283.5425,
      "duration": 0.4637,
      "velocity": 111,
      "chip": "ym2612"
    },
    {
      "channel": 0,
      "note": 76,
      "start": 283.6505,
      "duration": 0.1697,
      "velocity": 91,
      "chip": "ym2612"
    },
    {
      "channel": 1,
      "note": 79,
      "start": 283.6509,
      "duration": 0.1695,
      "velocity": 91,
      "chip": "ym2612"
    },
    {
      "channel": 3,
      "note": 88,
      "start": 283.6512,
      "duration": 0.2471,
      "velocity": 111,
      "chip": "ym2612"
    },
    {
      "channel": 2,
      "note": 88,
      "start": 284.0062,
      "duration": 0.2319,
      "velocity": 111,
      "chip": "ym2612"
    },
    {
      "channel": 5,
      "note": 52,
      "start": 284.1304,
      "duration": 0.4172,
      "velocity": 97,
      "chip": "ym2612"
    },
    {
      "channel": 3,
      "note": 85,
      "start": 284.362,
      "duration": 0.1546,
      "velocity": 111,
      "chip": "ym2612"
    },
    {
      "channel": 0,
      "note": 71,
      "start": 284.5932,
      "duration": 2.7497,
      "velocity": 91,
      "chip": "ym2612"
    },
    {
      "channel": 1,
      "note": 74,
      "start": 284.5936,
      "duration": 2.7494,
      "velocity": 91,
      "chip": "ym2612"
    },
    {
      "channel": 3,
      "note": 83,
      "start": 284.5941,
      "duration": 2.7495,
      "velocity": 111,
      "chip": "ym2612"
    },
    {
      "channel": 4,
      "note": 54,
      "start": 284.5944,
      "duration": 0.2464,
      "velocity": 89,
      "chip": "ym2612"
    },
    {
      "channel": 5,
      "note": 52,
      "start": 284.5947,
      "duration": 0.8339,
      "velocity": 97,
      "chip": "ym2612"
    },
    {
      "channel": 2,
      "note": 85,
      "start": 284.7168,
      "duration": 0.1545,
      "velocity": 111,
      "chip": "ym2612"
    },
    {
      "channel": 4,
      "note": 55,
      "start": 284.8409,
      "duration": 0.2319,
      "velocity": 89,
      "chip": "ym2612"
    },
    {
      "channel": 2,
      "note": 83,
      "start": 284.9488,
      "duration": 2.7492,
      "velocity": 111,
      "chip": "ym2612"
    },
    {
      "channel": 4,
      "note": 59,
      "start": 285.0729,
      "duration": 0.4637,
      "velocity": 89,
      "chip": "ym2612"
    },
    {
      "channel": 4,
      "note": 62,
      "start": 285.5366,
      "duration": 0.4786,
      "velocity": 89,
      "chip": "ym2612"
    },
    {
      "channel": 5,
      "note": 52,
      "start": 285.5367,
      "duration": 0.4168,
      "velocity": 97,
      "chip": "ym2612"
    },
    {
      "channel": 4,
      "note": 61,
      "start": 286.0152,
      "duration": 0.4633,
      "velocity": 89,
      "chip": "ym2612"
    },
    {
      "channel": 5,
      "note": 52,
      "start": 286.0154,
      "duration": 0.8186,
      "velocity": 97,
      "chip": "ym2612"
    },
    {
      "channel": 4,
      "note": 57,
      "start": 286.4786,
      "duration": 0.9427,
      "velocity": 89,
      "chip": "ym2612"
    },
    {
      "channel": 5,
      "note": 52,
      "start": 286.9573,
      "duration": 0.4174,
      "velocity": 97,
      "chip": "ym2612"
    },
    {
      "channel": 0,
      "note": 74,
      "start": 287.4201,
      "duration": 0.8644,
      "velocity": 91,
      "chip": "ym2612"
    },
    {
      "channel": 1,
      "note": 78,
      "start": 287.4205,
      "duration": 0.8643,
      "velocity": 91,
      "chip": "ym2612"
    },
    {
      "channel": 3,
      "note": 86,
      "start": 287.421,
      "duration": 0.8642,
      "velocity": 111,
      "chip": "ym2612"
    },
    {
      "channel": 4,
      "note": 54,
      "start": 287.4214,
      "duration": 0.2462,
      "velocity": 89,
      "chip": "ym2612"
    },
    {
      "channel": 5,
      "note": 52,
      "start": 287.4216,
      "duration": 0.8329,
      "velocity": 97,
      "chip": "ym2612"
    },
    {
      "channel": 4,
      "note": 55,
      "start": 287.6676,
      "duration": 0.2318,
      "velocity": 89,
      "chip": "ym2612"
    },
    {
      "channel": 2,
      "note": 86,
      "start": 287.7756,
      "duration": 0.8642,
      "velocity": 111,
      "chip": "ym2612"
    },
    {
      "channel": 4,
      "note": 59,
      "start": 287.8995,
      "duration": 0.4634,
      "velocity": 89,
      "chip": "ym2612"
    },
    {
      "channel": 0,
      "note": 74,
      "start": 288.3618,
      "duration": 0.4013,
      "velocity": 91,
      "chip": "ym2612"
    },
    {
      "channel": 1,
      "note": 78,
      "start": 288.362,
      "duration": 0.4014,
      "velocity": 91,
      "chip": "ym2612"
    },
    {
      "channel": 3,
      "note": 86,
      "start": 288.3626,
      "duration": 0.4012,
      "velocity": 111,
      "chip": "ym2612"
    },
    {
      "channel": 4,
      "note": 62,
      "start": 288.3628,
      "duration": 0.4789,
      "velocity": 89,
      "chip": "ym2612"
    },
    {
      "channel": 5,
      "note": 52,
      "start": 288.363,
      "duration": 0.4165,
      "velocity": 97,
      "chip": "ym2612"
    },
    {
      "channel": 2,
      "note": 86,
      "start": 288.7174,
      "duration": 0.401,
      "velocity": 111,
      "chip": "ym2612"
    },
    {
      "channel": 0,
      "note": 73,
      "start": 288.8406,
      "duration": 0.6328,
      "velocity": 91,
      "chip": "ym2612"
    },
    {
      "channel": 1,
      "note": 76,
      "start": 288.841,
      "duration": 0.6327,
      "velocity": 91,
      "chip": "ym2612"
    },
    {
      "channel": 3,
      "note": 85,
      "start": 288.8414,
      "duration": 0.6328,
      "velocity": 111,
      "chip": "ym2612"
    },
    {
      "channel": 4,
      "note": 61,
      "start": 288.8418,
      "duration": 1.4052,
      "velocity": 89,
      "chip": "ym2612"
    },
    {
      "channel": 5,
      "note": 52,
      "start": 288.8419,
      "duration": 0.8177,
      "velocity": 97,
      "chip": "ym2612"
    },
    {
      "channel": 2,
      "note": 85,
      "start": 289.1958,
      "duration": 0.633,
      "velocity": 111,
      "chip": "ym2612"
    },
    {
      "channel": 0,
      "note": 71,
      "start": 289.5506,
      "duration": 0.1543,
      "velocity": 91,
      "chip": "ym2612"
    },
    {
      "channel": 1,
      "note": 74,
      "start": 289.551,
      "duration": 0.1541,
      "velocity": 91,
      "chip": "ym2612"
    },
    {
      "channel": 3,
      "note": 83,
      "start": 289.5516,
      "duration": 0.1541,
      "velocity": 111,
      "chip": "ym2612"
    },
    {
      "channel": 0,
      "note": 69,
      "start": 289.7825,
      "duration": 0.3862,
      "velocity": 91,
      "chip": "ym2612"
    },
    {
      "channel": 1,
      "note": 73,
      "start": 289.7829,
      "duration": 0.3861,
      "velocity": 91,
      "chip": "ym2612"
    },
    {
      "channel": 3,
      "note": 81,
      "start": 289.7833,
      "duration": 0.3861,
      "velocity": 111,
      "chip": "ym2612"
    },
    {
      "channel": 5,
      "note": 52,
      "start": 289.7836,
      "duration": 0.4168,
      "velocity": 97,
      "chip": "ym2612"
    },
    {
      "channel": 2,
      "note": 83,
      "start": 289.9063,
      "duration": 0.1545,
      "velocity": 111,
      "chip": "ym2612"
    },
    {
      "channel": 2,
      "note": 81,
      "start": 290.1381,
      "duration": 0.386,
      "velocity": 111,
      "chip": "ym2612"
    },
    {
      "channel": 0,
      "note": 71,
      "start": 290.246,
      "duration": 2.2828,
      "velocity": 91,
      "chip": "ym2612"
    },
    {
      "channel": 1,
      "note": 74,
      "start": 290.2463,
      "duration": 2.2827,
      "velocity": 91,
      "chip": "ym2612"
    },
    {
      "channel": 3,
      "note": 83,
      "start": 290.2467,
      "duration": 2.2828,
      "velocity": 111,
      "chip": "ym2612"
    },
    {
      "channel": 4,
      "note": 54,
      "start": 290.2469,
      "duration": 0.2466,
      "velocity": 89,
      "chip": "ym2612"
    },
    {
      "channel": 5,
      "note": 52,
      "start": 290.2473,
      "duration": 0.834,
      "velocity": 97,
      "chip": "ym2612"
    },
    {
      "channel": 4,
      "note": 55,
      "start": 290.4936,
      "duration": 0.232,
      "velocity": 89,
      "chip": "ym2612"
    },
    {
      "channel": 2,
      "note": 83,
      "start": 290.6017,
      "duration": 2.2824,
      "velocity": 111,
      "chip": "ym2612"
    },
    {
      "channel": 4,
      "note": 59,
      "start": 290.7256,
      "duration": 0.4777,
      "velocity": 89,
      "chip": "ym2612"
    },
    {
      "channel": 4,
      "note": 64,
      "start": 291.2035,
      "duration": 0.4627,
      "velocity": 89,
      "chip": "ym2612"
    },
    {
      "channel": 5,
      "note": 52,
      "start": 291.2037,
      "duration": 0.4008,
      "velocity": 97,
      "chip": "ym2612"
    },
    {
      "channel": 4,
      "note": 61,
      "start": 291.6661,
      "duration": 0.478,
      "velocity": 89,
      "chip": "ym2612"
    },
    {
      "channel": 5,
      "note": 52,
      "start": 291.6665,
      "duration": 0.8171,
      "velocity": 97,
      "chip": "ym2612"
    },
    {
      "channel": 4,
      "note": 66,
      "start": 292.1442,
      "duration": 0.9414,
      "velocity": 89,
      "chip": "ym2612"
    },
    {
      "channel": 3,
      "note": 83,
      "start": 292.6066,
      "duration": 0.1544,
      "velocity": 111,
      "chip": "ym2612"
    },
    {
      "channel": 5,
      "note": 52,
      "start": 292.6068,
      "duration": 0.4168,
      "velocity": 97,
      "chip": "ym2612"
    },
    {
      "channel": 3,
      "note": 85,
      "start": 292.838,
      "duration": 0.1542,
      "velocity": 111,
      "chip": "ym2612"
    },
    {
      "channel": 2,
      "note": 83,
      "start": 292.9611,
      "duration": 0.1543,
      "velocity": 111,
      "chip": "ym2612"
    },
    {
      "channel": 0,
      "note": 74,
      "start": 293.0846,
      "duration": 0.8486,
      "velocity": 91,
      "chip": "ym2612"
    },
    {
      "channel": 1,
      "note": 78,
      "start": 293.0849,
      "duration": 0.8485,
      "velocity": 91,
      "chip": "ym2612"
    },
    {
      "channel": 3,
      "note": 86,
      "start": 293.0852,
      "duration": 0.8485,
      "velocity": 111,
      "chip": "ym2612"
    },
    {
      "channel": 4,
      "note": 54,
      "start": 293.0857,
      "duration": 0.2309,
      "velocity": 89,
      "chip": "ym2612"
    },
    {
      "channel": 5,
      "note": 52,
      "start": 293.0858,
      "duration": 0.8173,
      "velocity": 97,
      "chip": "ym2612"
    },
    {
      "channel": 2,
      "note": 85,
      "start": 293.1928,
      "duration": 0.1545,
      "velocity": 111,
      "chip": "ym2612"
    },
    {
      "channel": 4,
      "note": 55,
      "start": 293.3166,
      "duration": 0.2317,
      "velocity": 89,
      "chip": "ym2612"
    },
    {
      "channel": 2,
      "note": 86,
      "start": 293.4246,
      "duration": 0.8638,
      "velocity": 111,
      "chip": "ym2612"
    },
    {
      "channel": 4,
      "note": 59,
      "start": 293.5483,
      "duration": 0.4781,
      "velocity": 89,
      "chip": "ym2612"
    },
    {
      "channel": 0,
      "note": 74,
      "start": 294.0254,
      "duration": 0.386,
      "velocity": 91,
      "chip": "ym2612"
    },
    {
      "channel": 1,
      "note": 78,
      "start": 294.0256,
      "duration": 0.3861,
      "velocity": 91,
      "chip": "ym2612"
    },
    {
      "channel": 3,
      "note": 86,
      "start": 294.026,
      "duration": 0.3859,
      "velocity": 111,
      "chip": "ym2612"
    },
    {
      "channel": 4,
      "note": 62,
      "start": 294.0265,
      "duration": 0.4628,
      "velocity": 89,
      "chip": "ym2612"
    },
    {
      "channel": 5,
      "note": 52,
      "start": 294.0266,
      "duration": 0.4007,
      "velocity": 97,
      "chip": "ym2612"
    },
    {
      "channel": 2,
      "note": 86,
      "start": 294.3654,
      "duration": 0.4007,
      "velocity": 111,
      "chip": "ym2612"
    },
    {
      "channel": 0,
      "note": 73,
      "start": 294.4884,
      "duration": 0.3855,
      "velocity": 91,
      "chip": "ym2612"
    },
    {
      "channel": 1,
      "note": 76,
      "start": 294.4886,
      "duration": 0.3855,
      "velocity": 91,
      "chip": "ym2612"
    },
    {
      "channel": 3,
      "note": 85,
      "start": 294.489,
      "duration": 0.4781,
      "velocity": 111,
      "chip": "ym2612"
    },
    {
      "channel": 4,
      "note": 61,
      "start": 294.4894,
      "duration": 1.4185,
      "velocity": 89,
      "chip": "ym2612"
    },
    {
      "channel": 5,
      "note": 52,
      "start": 294.4896,
      "duration": 0.8164,
      "velocity": 97,
      "chip": "ym2612"
    },
    {
      "channel": 2,
      "note": 85,
      "start": 294.8434,
      "duration": 0.4621,
      "velocity": 111,
      "chip": "ym2612"
    },
    {
      "channel": 0,
      "note": 76,
      "start": 294.9665,
      "duration": 0.1538,
      "velocity": 91,
      "chip": "ym2612"
    },
    {
      "channel": 1,
      "note": 79,
      "start": 294.9668,
      "duration": 0.1535,
      "velocity": 91,
      "chip": "ym2612"
    },
    {
      "channel": 3,
      "note": 88,
      "start": 294.9671,
      "duration": 0.2306,
      "velocity": 111,
      "chip": "ym2612"
    },
    {
      "channel": 2,
      "note": 88,
      "start": 295.3055,
      "duration": 0.2467,
      "velocity": 111,
      "chip": "ym2612"
    },
    {
      "channel": 5,
      "note": 52,
      "start": 295.4294,
      "duration": 0.4166,
      "velocity": 97,
      "chip": "ym2612"
    },
    {
      "channel": 3,
      "note": 85,
      "start": 295.6605,
      "duration": 0.1698,
      "velocity": 111,
      "chip": "ym2612"
    },
    {
      "channel": 0,
      "note": 71,
      "start": 295.9069,
      "duration": 2.7454,
      "velocity": 91,
      "chip": "ym2612"
    },
    {
      "channel": 1,
      "note": 74,
      "start": 295.9072,
      "duration": 2.7452,
      "velocity": 91,
      "chip": "ym2612"
    },
    {
      "channel": 3,
      "note": 83,
      "start": 295.9076,
      "duration": 1.8046,
      "velocity": 111,
      "chip": "ym2612"
    },
    {
      "channel": 4,
      "note": 54,
      "start": 295.908,
      "duration": 0.2307,
      "velocity": 89,
      "chip": "ym2612"
    },
    {
      "channel": 5,
      "note": 52,
      "start": 295.9081,
      "duration": 0.8168,
      "velocity": 97,
      "chip": "ym2612"
    },
    {
      "channel": 2,
      "note": 85,
      "start": 296.0152,
      "duration": 0.154,
      "velocity": 111,
      "chip": "ym2612"
    },
    {
      "channel": 4,
      "note": 55,
      "start": 296.1387,
      "duration": 0.2316,
      "velocity": 89,
      "chip": "ym2612"
    },
    {
      "channel": 2,
      "note": 83,
      "start": 296.2463,
      "duration": 1.8048,
      "velocity": 111,
      "chip": "ym2612"
    },
    {
      "channel": 4,
      "note": 59,
      "start": 296.3703,
      "duration": 0.4782,
      "velocity": 89,
      "chip": "ym2612"
    },
    {
      "channel": 4,
      "note": 62,
      "start": 296.8485,
      "duration": 0.463,
      "velocity": 89,
      "chip": "ym2612"
    },
    {
      "channel": 5,
      "note": 52,
      "start": 296.8487,
      "duration": 0.401,
      "velocity": 97,
      "chip": "ym2612"
    },
    {
      "channel": 4,
      "note": 61,
      "start": 297.3116,
      "duration": 0.4799,
      "velocity": 89,
      "chip": "ym2612"
    },
    {
      "channel": 5,
      "note": 52,
      "start": 297.3119,
      "duration": 0.8345,
      "velocity": 97,
      "chip": "ym2612"
    },
    {
      "channel": 3,
      "note": 83,
      "start": 297.7912,
      "duration": 0.183,
      "velocity": 99,
      "chip": "ym2612"
    },
    {
      "channel": 4,
      "note": 57,
      "start": 297.7916,
      "duration": 0.9424,
      "velocity": 89,
      "chip": "ym2612"
    },
    {
      "channel": 3,
      "note": 86,
      "start": 298.0207,
      "duration": 0.2001,
      "velocity": 99,
      "chip": "ym2612"
    },
    {
      "channel": 2,
      "note": 83,
      "start": 298.1459,
      "duration": 0.1828,
      "velocity": 99,
      "chip": "ym2612"
    },
    {
      "channel": 3,
      "note": 88,
      "start": 298.252,
      "duration": 0.2,
      "velocity": 99,
      "chip": "ym2612"
    },
    {
      "channel": 5,
      "note": 52,
      "start": 298.2524,
      "duration": 0.4159,
      "velocity": 97,
      "chip": "ym2612"
    },
    {
      "channel": 2,
      "note": 86,
      "start": 298.3751,
      "duration": 0.1848,
      "velocity": 99,
      "chip": "ym2612"
    },
    {
      "channel": 3,
      "note": 90,
      "start": 298.4831,
      "duration": 0.2004,
      "velocity": 99,
      "chip": "ym2612"
    },
    {
      "channel": 2,
      "note": 88,
      "start": 298.6063,
      "duration": 0.2,
      "velocity": 99,
      "chip": "ym2612"
    },
    {
      "channel": 0,
      "note": 76,
      "start": 298.7315,
      "duration": 0.8619,
      "velocity": 103,
      "chip": "ym2612"
    },
    {
      "channel": 1,
      "note": 83,
      "start": 298.7334,
      "duration": 0.8604,
      "velocity": 103,
      "chip": "ym2612"
    },
    {
      "channel": 3,
      "note": 91,
      "start": 298.7337,
      "duration": 0.8758,
      "velocity": 99,
      "chip": "ym2612"
    },
    {
      "channel": 4,
      "note": 54,
      "start": 298.734,
      "duration": 0.227,
      "velocity": 89,
      "chip": "ym2612"
    },
    {
      "channel": 5,
      "note": 52,
      "start": 298.7342,
      "duration": 0.8138,
      "velocity": 97,
      "chip": "ym2612"
    },
    {
      "channel": 2,
      "note": 90,
      "start": 298.8374,
      "duration": 0.2005,
      "velocity": 99,
      "chip": "ym2612"
    },
    {
      "channel": 4,
      "note": 55,
      "start": 298.961,
      "duration": 0.232,
      "velocity": 89,
      "chip": "ym2612"
    },
    {
      "channel": 2,
      "note": 91,
      "start": 299.0843,
      "duration": 0.88,
      "velocity": 99,
      "chip": "ym2612"
    },
    {
      "channel": 4,
      "note": 59,
      "start": 299.193,
      "duration": 0.2308,
      "velocity": 89,
      "chip": "ym2612"
    },
    {
      "channel": 4,
      "note": 62,
      "start": 299.4239,
      "duration": 0.248,
      "velocity": 89,
      "chip": "ym2612"
    },
    {
      "channel": 0,
      "note": 76,
      "start": 299.6709,
      "duration": 0.3854,
      "velocity": 103,
      "chip": "ym2612"
    },
    {
      "channel": 1,
      "note": 83,
      "start": 299.6711,
      "duration": 0.3854,
      "velocity": 103,
      "chip": "ym2612"
    },
    {
      "channel": 3,
      "note": 91,
      "start": 299.6716,
      "duration": 0.4007,
      "velocity": 99,
      "chip": "ym2612"
    },
    {
      "channel": 4,
      "note": 66,
      "start": 299.672,
      "duration": 0.4624,
      "velocity": 89,
      "chip": "ym2612"
    },
    {
      "channel": 5,
      "note": 52,
      "start": 299.6721,
      "duration": 0.4005,
      "velocity": 97,
      "chip": "ym2612"
    },
    {
      "channel": 2,
      "note": 91,
      "start": 300.0256,
      "duration": 0.4009,
      "velocity": 99,
      "chip": "ym2612"
    },
    {
      "channel": 0,
      "note": 74,
      "start": 300.1333,
      "duration": 0.6322,
      "velocity": 103,
      "chip": "ym2612"
    },
    {
      "channel": 1,
      "note": 81,
      "start": 300.1335,
      "duration": 0.6322,
      "velocity": 103,
      "chip": "ym2612"
    },
    {
      "channel": 3,
      "note": 90,
      "start": 300.1339,
      "duration": 0.6473,
      "velocity": 99,
      "chip": "ym2612"
    },
    {
      "channel": 4,
      "note": 49,
      "start": 300.1344,
      "duration": 0.2309,
      "velocity": 89,
      "chip": "ym2612"
    },
    {
      "channel": 5,
      "note": 59,
      "start": 300.1346,
      "duration": 0.832,
      "velocity": 97,
      "chip": "ym2612"
    },
    {
      "channel": 4,
      "note": 50,
      "start": 300.3653,
      "duration": 0.2461,
      "velocity": 89,
      "chip": "ym2612"
    },
    {
      "channel": 2,
      "note": 90,
      "start": 300.4883,
      "duration": 0.6472,
      "velocity": 99,
      "chip": "ym2612"
    },
    {
      "channel": 4,
      "note": 54,
      "start": 300.6115,
      "duration": 0.2354,
      "velocity": 89,
      "chip": "ym2612"
    },
    {
      "channel": 0,
      "note": 73,
      "start": 300.8458,
      "duration": 0.1511,
      "velocity": 103,
      "chip": "ym2612"
    },
    {
      "channel": 1,
      "note": 79,
      "start": 300.8461,
      "duration": 0.151,
      "velocity": 103,
      "chip": "ym2612"
    },
    {
      "channel": 3,
      "note": 88,
      "start": 300.8466,
      "duration": 0.1662,
      "velocity": 99,
      "chip": "ym2612"
    },
    {
      "channel": 4,
      "note": 57,
      "start": 300.847,
      "duration": 0.2279,
      "velocity": 89,
      "chip": "ym2612"
    },
    {
      "channel": 0,
      "note": 71,
      "start": 301.0739,
      "duration": 0.4005,
      "velocity": 103,
      "chip": "ym2612"
    },
    {
      "channel": 1,
      "note": 78,
      "start": 301.0742,
      "duration": 0.4005,
      "velocity": 103,
      "chip": "ym2612"
    },
    {
      "channel": 3,
      "note": 86,
      "start": 301.0746,
      "duration": 0.4156,
      "velocity": 99,
      "chip": "ym2612"
    },
    {
      "channel": 4,
      "note": 62,
      "start": 301.075,
      "duration": 0.4777,
      "velocity": 89,
      "chip": "ym2612"
    },
    {
      "channel": 5,
      "note": 59,
      "start": 301.0751,
      "duration": 0.4155,
      "velocity": 97,
      "chip": "ym2612"
    },
    {
      "channel": 2,
      "note": 88,
      "start": 301.1972,
      "duration": 0.1697,
      "velocity": 99,
      "chip": "ym2612"
    },
    {
      "channel": 2,
      "note": 86,
      "start": 301.4287,
      "duration": 0.4167,
      "velocity": 99,
      "chip": "ym2612"
    },
    {
      "channel": 0,
      "note": 72,
      "start": 301.5517,
      "duration": 0.3861,
      "velocity": 103,
      "chip": "ym2612"
    },
    {
      "channel": 1,
      "note": 76,
      "start": 301.5519,
      "duration": 0.3861,
      "velocity": 103,
      "chip": "ym2612"
    },
    {
      "channel": 3,
      "note": 88,
      "start": 301.5523,
      "duration": 0.4014,
      "velocity": 99,
      "chip": "ym2612"
    },
    {
      "channel": 4,
      "note": 47,
      "start": 301.5528,
      "duration": 0.2311,
      "velocity": 89,
      "chip": "ym2612"
    },
    {
      "channel": 5,
      "note": 60,
      "start": 301.553,
      "duration": 0.8176,
      "velocity": 97,
      "chip": "ym2612"
    },
    {
      "channel": 4,
      "note": 48,
      "start": 301.7839,
      "duration": 0.2317,
      "velocity": 89,
      "chip": "ym2612"
    },
    {
      "channel": 2,
      "note": 88,
      "start": 301.9071,
      "duration": 0.4014,
      "velocity": 99,
      "chip": "ym2612"
    },
    {
      "channel": 0,
      "note": 74,
      "start": 302.0147,
      "duration": 0.401,
      "velocity": 103,
      "chip": "ym2612"
    },
    {
      "channel": 1,
      "note": 78,
      "start": 302.015,
      "duration": 0.401,
      "velocity": 103,
      "chip": "ym2612"
    },
    {
      "channel": 3,
      "note": 90,
      "start": 302.0153,
      "duration": 0.4161,
      "velocity": 99,
      "chip": "ym2612"
    },
    {
      "channel": 4,
      "note": 50,
      "start": 302.0156,
      "duration": 0.2312,
      "velocity": 89,
      "chip": "ym2612"
    },
    {
      "channel": 4,
      "note": 55,
      "start": 302.2468,
      "duration": 0.2471,
      "velocity": 89,
      "chip": "ym2612"
    },
    {
      "channel": 2,
      "note": 90,
      "start": 302.37,
      "duration": 0.4168,
      "velocity": 99,
      "chip": "ym2612"
    },
    {
      "channel": 0,
      "note": 76,
      "start": 302.493,
      "duration": 0.386,
      "velocity": 103,
      "chip": "ym2612"
    },
    {
      "channel": 1,
      "note": 79,
      "start": 302.4932,
      "duration": 0.386,
      "velocity": 103,
      "chip": "ym2612"
    },
    {
      "channel": 3,
      "note": 91,
      "start": 302.4936,
      "duration": 0.4012,
      "velocity": 99,
      "chip": "ym2612"
    },
    {
      "channel": 4,
      "note": 59,
      "start": 302.494,
      "duration": 0.4629,
      "velocity": 89,
      "chip": "ym2612"
    },
    {
      "channel": 5,
      "note": 60,
      "start": 302.4941,
      "duration": 0.4011,
      "velocity": 97,
      "chip": "ym2612"
    },
    {
      "channel": 2,
      "note": 91,
      "start": 302.8488,
      "duration": 0.4006,
      "velocity": 99,
      "chip": "ym2612"
    },
    {
      "channel": 0,
      "note": 78,
      "start": 302.956,
      "duration": 0.6323,
      "velocity": 103,
      "chip": "ym2612"
    },
    {
      "channel": 1,
      "note": 81,
      "start": 302.9563,
      "duration": 0.6322,
      "velocity": 103,
      "chip": "ym2612"
    },
    {
      "channel": 3,
      "note": 93,
      "start": 302.9566,
      "duration": 0.6476,
      "velocity": 99,
      "chip": "ym2612"
    },
    {
      "channel": 4,
      "note": 45,
      "start": 302.957,
      "duration": 0.2312,
      "velocity": 89,
      "chip": "ym2612"
    },
    {
      "channel": 5,
      "note": 62,
      "start": 302.9572,
      "duration": 0.8321,
      "velocity": 97,
      "chip": "ym2612"
    },
    {
      "channel": 4,
      "note": 47,
      "start": 303.1882,
      "duration": 0.2464,
      "velocity": 89,
      "chip": "ym2612"
    },
    {
      "channel": 2,
      "note": 93,
      "start": 303.311,
      "duration": 0.6476,
      "velocity": 99,
      "chip": "ym2612"
    },
    {
      "channel": 4,
      "note": 50,
      "start": 303.4347,
      "duration": 0.2315,
      "velocity": 89,
      "chip": "ym2612"
    },
    {
      "channel": 0,
      "note": 74,
      "start": 303.6654,
      "duration": 0.1542,
      "velocity": 103,
      "chip": "ym2612"
    },
    {
      "channel": 1,
      "note": 78,
      "start": 303.6656,
      "duration": 0.1542,
      "velocity": 103,
      "chip": "ym2612"
    },
    {
      "channel": 3,
      "note": 90,
      "start": 303.666,
      "duration": 0.1694,
      "velocity": 99,
      "chip": "ym2612"
    },
    {
      "channel": 4,
      "note": 54,
      "start": 303.6663,
      "duration": 0.2315,
      "velocity": 89,
      "chip": "ym2612"
    },
    {
      "channel": 0,
      "note": 71,
      "start": 303.8968,
      "duration": 0.4008,
      "velocity": 103,
      "chip": "ym2612"
    },
    {
      "channel": 1,
      "note": 74,
      "start": 303.8971,
      "duration": 0.4009,
      "velocity": 103,
      "chip": "ym2612"
    },
    {
      "channel": 3,
      "note": 86,
      "start": 303.8975,
      "duration": 0.416,
      "velocity": 99,
      "chip": "ym2612"
    },
    {
      "channel": 4,
      "note": 59,
      "start": 303.8979,
      "duration": 0.4781,
      "velocity": 89,
      "chip": "ym2612"
    },
    {
      "channel": 5,
      "note": 50,
      "start": 303.898,
      "duration": 0.4159,
      "velocity": 97,
      "chip": "ym2612"
    },
    {
      "channel": 2,
      "note": 90,
      "start": 304.0205,
      "duration": 0.1695,
      "velocity": 99,
      "chip": "ym2612"
    },
    {
      "channel": 2,
      "note": 86,
      "start": 304.2517,
      "duration": 0.4167,
      "velocity": 99,
      "chip": "ym2612"
    },
    {
      "channel": 0,
      "note": 76,
      "start": 304.375,
      "duration": 0.8644,
      "velocity": 103,
      "chip": "ym2612"
    },
    {
      "channel": 1,
      "note": 79,
      "start": 304.3752,
      "duration": 0.8644,
      "velocity": 103,
      "chip": "ym2612"
    },
    {
      "channel": 3,
      "note": 91,
      "start": 304.3756,
      "duration": 0.8798,
      "velocity": 99,
      "chip": "ym2612"
    },
    {
      "channel": 4,
      "note": 50,
      "start": 304.3761,
      "duration": 0.2311,
      "velocity": 89,
      "chip": "ym2612"
    },
    {
      "channel": 5,
      "note": 52,
      "start": 304.3763,
      "duration": 0.8174,
      "velocity": 97,
      "chip": "ym2612"
    },
    {
      "channel": 4,
      "note": 52,
      "start": 304.6073,
      "duration": 0.2314,
      "velocity": 89,
      "chip": "ym2612"
    },
    {
      "channel": 2,
      "note": 91,
      "start": 304.7304,
      "duration": 0.8797,
      "velocity": 99,
      "chip": "ym2612"
    },
    {
      "channel": 4,
      "note": 54,
      "start": 304.8388,
      "duration": 0.2467,
      "velocity": 89,
      "chip": "ym2612"
    },
    {
      "channel": 4,
      "note": 59,
      "start": 305.0855,
      "duration": 0.2324,
      "velocity": 89,
      "chip": "ym2612"
    },
    {
      "channel": 0,
      "note": 76,
      "start": 305.317,
      "duration": 0.3856,
      "velocity": 103,
      "chip": "ym2612"
    },
    {
      "channel": 1,
      "note": 79,
      "start": 305.3172,
      "duration": 0.3855,
      "velocity": 103,
      "chip": "ym2612"
    },
    {
      "channel": 3,
      "note": 91,
      "start": 305.3177,
      "duration": 0.4007,
      "velocity": 99,
      "chip": "ym2612"
    },
    {
      "channel": 4,
      "note": 62,
      "start": 305.318,
      "duration": 0.4631,
      "velocity": 89,
      "chip": "ym2612"
    },
    {
      "channel": 5,
      "note": 52,
      "start": 305.3181,
      "duration": 0.4007,
      "velocity": 97,
      "chip": "ym2612"
    },
    {
      "channel": 2,
      "note": 91,
      "start": 305.672,
      "duration": 0.4011,
      "velocity": 99,
      "chip": "ym2612"
    },
    {
      "channel": 0,
      "note": 74,
      "start": 305.78,
      "duration": 0.6322,
      "velocity": 103,
      "chip": "ym2612"
    },
    {
      "channel": 1,
      "note": 78,
      "start": 305.7803,
      "duration": 0.6321,
      "velocity": 103,
      "chip": "ym2612"
    },
    {
      "channel": 3,
      "note": 90,
      "start": 305.7807,
      "duration": 0.6474,
      "velocity": 99,
      "chip": "ym2612"
    },
    {
      "channel": 4,
      "note": 49,
      "start": 305.7811,
      "duration": 0.2459,
      "velocity": 89,
      "chip": "ym2612"
    },
    {
      "channel": 5,
      "note": 59,
      "start": 305.7814,
      "duration": 0.832,
      "velocity": 97,
      "chip": "ym2612"
    },
    {
      "channel": 4,
      "note": 50,
      "start": 306.0271,
      "duration": 0.2318,
      "velocity": 89,
      "chip": "ym2612"
    },
    {
      "channel": 2,
      "note": 90,
      "start": 306.1351,
      "duration": 0.6476,
      "velocity": 99,
      "chip": "ym2612"
    },
    {
      "channel": 4,
      "note": 54,
      "start": 306.2589,
      "duration": 0.2312,
      "velocity": 89,
      "chip": "ym2612"
    },
    {
      "channel": 0,
      "note": 73,
      "start": 306.4893,
      "duration": 0.1544,
      "velocity": 103,
      "chip": "ym2612"
    },
    {
      "channel": 1,
      "note": 76,
      "start": 306.4895,
      "duration": 0.1544,
      "velocity": 103,
      "chip": "ym2612"
    },
    {
      "channel": 3,
      "note": 88,
      "start": 306.49,
      "duration": 0.1691,
      "velocity": 99,
      "chip": "ym2612"
    },
    {
      "channel": 4,
      "note": 57,
      "start": 306.4902,
      "duration": 0.2318,
      "velocity": 89,
      "chip": "ym2612"
    },
    {
      "channel": 0,
      "note": 71,
      "start": 306.7209,
      "duration": 0.4008,
      "velocity": 103,
      "chip": "ym2612"
    },
    {
      "channel": 1,
      "note": 74,
      "start": 306.7212,
      "duration": 0.4008,
      "velocity": 103,
      "chip": "ym2612"
    },
    {
      "channel": 3,
      "note": 86,
      "start": 306.7216,
      "duration": 0.4161,
      "velocity": 99,
      "chip": "ym2612"
    },
    {
      "channel": 4,
      "note": 62,
      "start": 306.722,
      "duration": 0.4779,
      "velocity": 89,
      "chip": "ym2612"
    },
    {
      "channel": 5,
      "note": 59,
      "start": 306.7222,
      "duration": 0.4159,
      "velocity": 97,
      "chip": "ym2612"
    },
    {
      "channel": 2,
      "note": 88,
      "start": 306.8443,
      "duration": 0.1695,
      "velocity": 99,
      "chip": "ym2612"
    },
    {
      "channel": 2,
      "note": 86,
      "start": 307.0756,
      "duration": 0.4162,
      "velocity": 99,
      "chip": "ym2612"
    },
    {
      "channel": 0,
      "note": 73,
      "start": 307.1989,
      "duration": 0.864,
      "velocity": 103,
      "chip": "ym2612"
    },
    {
      "channel": 1,
      "note": 76,
      "start": 307.1991,
      "duration": 0.864,
      "velocity": 103,
      "chip": "ym2612"
    },
    {
      "channel": 3,
      "note": 88,
      "start": 307.1995,
      "duration": 0.8794,
      "velocity": 99,
      "chip": "ym2612"
    },
    {
      "channel": 4,
      "note": 47,
      "start": 307.1999,
      "duration": 0.2305,
      "velocity": 89,
      "chip": "ym2612"
    },
    {
      "channel": 5,
      "note": 57,
      "start": 307.2001,
      "duration": 0.8172,
      "velocity": 97,
      "chip": "ym2612"
    },
    {
      "channel": 4,
      "note": 49,
      "start": 307.4305,
      "duration": 0.232,
      "velocity": 89,
      "chip": "ym2612"
    },
    {
      "channel": 2,
      "note": 88,
      "start": 307.5539,
      "duration": 0.8793,
      "velocity": 99,
      "chip": "ym2612"
    },
    {
      "channel": 4,
      "note": 52,
      "start": 307.6626,
      "duration": 0.246,
      "velocity": 89,
      "chip": "ym2612"
    },
    {
      "channel": 4,
      "note": 55,
      "start": 307.9086,
      "duration": 0.2322,
      "velocity": 89,
      "chip": "ym2612"
    },
    {
      "channel": 0,
      "note": 73,
      "start": 308.1398,
      "duration": 0.3856,
      "velocity": 103,
      "chip": "ym2612"
    },
    {
      "channel": 1,
      "note": 76,
      "start": 308.1401,
      "duration": 0.3855,
      "velocity": 103,
      "chip": "ym2612"
    },
    {
      "channel": 3,
      "note": 88,
      "start": 308.1406,
      "duration": 0.4156,
      "velocity": 99,
      "chip": "ym2612"
    },
    {
      "channel": 4,
      "note": 59,
      "start": 308.1409,
      "duration": 0.4625,
      "velocity": 89,
      "chip": "ym2612"
    },
    {
      "channel": 5,
      "note": 57,
      "start": 308.141,
      "duration": 0.4155,
      "velocity": 97,
      "chip": "ym2612"
    },
    {
      "channel": 2,
      "note": 88,
      "start": 308.4947,
      "duration": 0.4007,
      "velocity": 99,
      "chip": "ym2612"
    },
    {
      "channel": 0,
      "note": 73,
      "start": 308.6024,
      "duration": 1.3413,
      "velocity": 103,
      "chip": "ym2612"
    },
    {
      "channel": 1,
      "note": 76,
      "start": 308.6027,
      "duration": 1.3412,
      "velocity": 103,
      "chip": "ym2612"
    },
    {
      "channel": 3,
      "note": 88,
      "start": 308.603,
      "duration": 1.3567,
      "velocity": 99,
      "chip": "ym2612"
    },
    {
      "channel": 4,
      "note": 47,
      "start": 308.6035,
      "duration": 0.2463,
      "velocity": 89,
      "chip": "ym2612"
    },
    {
      "channel": 5,
      "note": 57,
      "start": 308.6037,
      "duration": 0.8322,
      "velocity": 97,
      "chip": "ym2612"
    },
    {
      "channel": 4,
      "note": 49,
      "start": 308.8498,
      "duration": 0.2315,
      "velocity": 89,
      "chip": "ym2612"
    },
    {
      "channel": 2,
      "note": 88,
      "start": 308.9577,
      "duration": 1.3569,
      "velocity": 99,
      "chip": "ym2612"
    },
    {
      "channel": 4,
      "note": 52,
      "start": 309.0814,
      "duration": 0.2313,
      "velocity": 89,
      "chip": "ym2612"
    },
    {
      "channel": 4,
      "note": 55,
      "start": 309.3128,
      "duration": 0.2312,
      "velocity": 89,
      "chip": "ym2612"
    },
    {
      "channel": 4,
      "note": 59,
      "start": 309.544,
      "duration": 0.4776,
      "velocity": 89,
      "chip": "ym2612"
    },
    {
      "channel": 5,
      "note": 57,
      "start": 309.5442,
      "duration": 0.4159,
      "velocity": 97,
      "chip": "ym2612"
    },
    {
      "channel": 0,
      "note": 76,
      "start": 310.0206,
      "duration": 0.8634,
      "velocity": 103,
      "chip": "ym2612"
    },
    {
      "channel": 1,
      "note": 83,
      "start": 310.0209,
      "duration": 0.8633,
      "velocity": 103,
      "chip": "ym2612"
    },
    {
      "channel": 3,
      "note": 91,
      "start": 310.0213,
      "duration": 0.8786,
      "velocity": 99,
      "chip": "ym2612"
    },
    {
      "channel": 4,
      "note": 54,
      "start": 310.0218,
      "duration": 0.2309,
      "velocity": 89,
      "chip": "ym2612"
    },
    {
      "channel": 5,
      "note": 52,
      "start": 310.022,
      "duration": 0.8173,
      "velocity": 97,
      "chip": "ym2612"
    },
    {
      "channel": 4,
      "note": 55,
      "start": 310.2527,
      "duration": 0.2312,
      "velocity": 89,
      "chip": "ym2612"
    },
    {
      "channel": 2,
      "note": 91,
      "start": 310.3759,
      "duration": 0.8786,
      "velocity": 99,
      "chip": "ym2612"
    },
    {
      "channel": 4,
      "note": 59,
      "start": 310.4841,
      "duration": 0.2468,
      "velocity": 89,
      "chip": "ym2612"
    },
    {
      "channel": 4,
      "note": 62,
      "start": 310.731,
      "duration": 0.2311,
      "velocity": 89,
      "chip": "ym2612"
    },
    {
      "channel": 0,
      "note": 76,
      "start": 310.9611,
      "duration": 0.3856,
      "velocity": 103,
      "chip": "ym2612"
    },
    {
      "channel": 1,
      "note": 83,
      "start": 310.9613,
      "duration": 0.3856,
      "velocity": 103,
      "chip": "ym2612"
    },
    {
      "channel": 3,
      "note": 91,
      "start": 310.9618,
      "duration": 0.4158,
      "velocity": 99,
      "chip": "ym2612"
    },
    {
      "channel": 4,
      "note": 66,
      "start": 310.9621,
      "duration": 0.4627,
      "velocity": 89,
      "chip": "ym2612"
    },
    {
      "channel": 5,
      "note": 52,
      "start": 310.9623,
      "duration": 0.4157,
      "velocity": 97,
      "chip": "ym2612"
    },
    {
      "channel": 2,
      "note": 91,
      "start": 311.3159,
      "duration": 0.4007,
      "velocity": 99,
      "chip": "ym2612"
    },
    {
      "channel": 0,
      "note": 74,
      "start": 311.4239,
      "duration": 0.6326,
      "velocity": 103,
      "chip": "ym2612"
    },
    {
      "channel": 1,
      "note": 81,
      "start": 311.4242,
      "duration": 0.6325,
      "velocity": 103,
      "chip": "ym2612"
    },
    {
      "channel": 3,
      "note": 90,
      "start": 311.4245,
      "duration": 0.6474,
      "velocity": 99,
      "chip": "ym2612"
    },
    {
      "channel": 4,
      "note": 49,
      "start": 311.425,
      "duration": 0.2458,
      "velocity": 89,
      "chip": "ym2612"
    },
    {
      "channel": 5,
      "note": 59,
      "start": 311.4251,
      "duration": 0.8319,
      "velocity": 97,
      "chip": "ym2612"
    },
    {
      "channel": 4,
      "note": 50,
      "start": 311.6709,
      "duration": 0.2318,
      "velocity": 89,
      "chip": "ym2612"
    },
    {
      "channel": 2,
      "note": 90,
      "start": 311.7791,
      "duration": 0.6471,
      "velocity": 99,
      "chip": "ym2612"
    },
    {
      "channel": 4,
      "note": 54,
      "start": 311.9027,
      "duration": 0.2318,
      "velocity": 89,
      "chip": "ym2612"
    },
    {
      "channel": 0,
      "note": 73,
      "start": 312.1335,
      "duration": 0.1541,
      "velocity": 103,
      "chip": "ym2612"
    },
    {
      "channel": 1,
      "note": 79,
      "start": 312.1338,
      "duration": 0.154,
      "velocity": 103,
      "chip": "ym2612"
    },
    {
      "channel": 3,
      "note": 88,
      "start": 312.1342,
      "duration": 0.1843,
      "velocity": 99,
      "chip": "ym2612"
    },
    {
      "channel": 4,
      "note": 57,
      "start": 312.1344,
      "duration": 0.2313,
      "velocity": 89,
      "chip": "ym2612"
    },
    {
      "channel": 0,
      "note": 71,
      "start": 312.3647,
      "duration": 0.4006,
      "velocity": 103,
      "chip": "ym2612"
    },
    {
      "channel": 1,
      "note": 78,
      "start": 312.365,
      "duration": 0.4005,
      "velocity": 103,
      "chip": "ym2612"
    },
    {
      "channel": 3,
      "note": 86,
      "start": 312.3654,
      "duration": 0.4157,
      "velocity": 99,
      "chip": "ym2612"
    },
    {
      "channel": 4,
      "note": 62,
      "start": 312.3658,
      "duration": 0.4778,
      "velocity": 89,
      "chip": "ym2612"
    },
    {
      "channel": 5,
      "note": 59,
      "start": 312.3659,
      "duration": 0.4156,
      "velocity": 97,
      "chip": "ym2612"
    },
    {
      "channel": 2,
      "note": 88,
      "start": 312.4883,
      "duration": 0.1692,
      "velocity": 99,
      "chip": "ym2612"
    },
    {
      "channel": 2,
      "note": 86,
      "start": 312.7197,
      "duration": 0.4162,
      "velocity": 99,
      "chip": "ym2612"
    },
    {
      "channel": 0,
      "note": 72,
      "start": 312.8425,
      "duration": 0.3858,
      "velocity": 103,
      "chip": "ym2612"
    },
    {
      "channel": 1,
      "note": 76,
      "start": 312.8428,
      "duration": 0.3858,
      "velocity": 103,
      "chip": "ym2612"
    },
    {
      "channel": 3,
      "note": 88,
      "start": 312.8432,
      "duration": 0.4164,
      "velocity": 99,
      "chip": "ym2612"
    },
    {
      "channel": 4,
      "note": 47,
      "start": 312.8436,
      "duration": 0.2314,
      "velocity": 89,
      "chip": "ym2612"
    },
    {
      "channel": 5,
      "note": 60,
      "start": 312.8438,
      "duration": 0.8175,
      "velocity": 97,
      "chip": "ym2612"
    },
    {
      "channel": 4,
      "note": 48,
      "start": 313.075,
      "duration": 0.2314,
      "velocity": 89,
      "chip": "ym2612"
    },
    {
      "channel": 2,
      "note": 88,
      "start": 313.1977,
      "duration": 0.4164,
      "velocity": 99,
      "chip": "ym2612"
    },
    {
      "channel": 0,
      "note": 74,
      "start": 313.3054,
      "duration": 0.401,
      "velocity": 103,
      "chip": "ym2612"
    },
    {
      "channel": 1,
      "note": 78,
      "start": 313.3057,
      "duration": 0.4009,
      "velocity": 103,
      "chip": "ym2612"
    },
    {
      "channel": 3,
      "note": 90,
      "start": 313.3061,
      "duration": 0.4164,
      "velocity": 99,
      "chip": "ym2612"
    },
    {
      "channel": 4,
      "note": 50,
      "start": 313.3065,
      "duration": 0.2463,
      "velocity": 89,
      "chip": "ym2612"
    },
    {
      "channel": 4,
      "note": 55,
      "start": 313.5528,
      "duration": 0.2323,
      "velocity": 89,
      "chip": "ym2612"
    },
    {
      "channel": 2,
      "note": 90,
      "start": 313.6608,
      "duration": 0.4163,
      "velocity": 99,
      "chip": "ym2612"
    },
    {
      "channel": 0,
      "note": 76,
      "start": 313.7841,
      "duration": 0.3856,
      "velocity": 103,
      "chip": "ym2612"
    },
    {
      "channel": 1,
      "note": 79,
      "start": 313.7844,
      "duration": 0.3856,
      "velocity": 103,
      "chip": "ym2612"
    },
    {
      "channel": 3,
      "note": 91,
      "start": 313.7847,
      "duration": 0.4162,
      "velocity": 99,
      "chip": "ym2612"
    },
    {
      "channel": 4,
      "note": 59,
      "start": 313.7851,
      "duration": 0.4625,
      "velocity": 89,
      "chip": "ym2612"
    },
    {
      "channel": 5,
      "note": 60,
      "start": 313.7852,
      "duration": 0.4161,
      "velocity": 97,
      "chip": "ym2612"
    },
    {
      "channel": 2,
      "note": 91,
      "start": 314.1391,
      "duration": 0.4163,
      "velocity": 99,
      "chip": "ym2612"
    },
    {
      "channel": 0,
      "note": 78,
      "start": 314.2466,
      "duration": 0.6325,
      "velocity": 103,
      "chip": "ym2612"
    },
    {
      "channel": 1,
      "note": 81,
      "start": 314.2469,
      "duration": 0.6324,
      "velocity": 103,
      "chip": "ym2612"
    },
    {
      "channel": 3,
      "note": 93,
      "start": 314.2473,
      "duration": 0.6472,
      "velocity": 99,
      "chip": "ym2612"
    },
    {
      "channel": 4,
      "note": 45,
      "start": 314.2477,
      "duration": 0.2462,
      "velocity": 89,
      "chip": "ym2612"
    },
    {
      "channel": 5,
      "note": 62,
      "start": 314.248,
      "duration": 0.8319,
      "velocity": 97,
      "chip": "ym2612"
    },
    {
      "channel": 4,
      "note": 47,
      "start": 314.4939,
      "duration": 0.2316,
      "velocity": 89,
      "chip": "ym2612"
    },
    {
      "channel": 2,
      "note": 93,
      "start": 314.602,
      "duration": 0.6466,
      "velocity": 99,
      "chip": "ym2612"
    },
    {
      "channel": 4,
      "note": 50,
      "start": 314.7256,
      "duration": 0.2313,
      "velocity": 89,
      "chip": "ym2612"
    },
    {
      "channel": 0,
      "note": 74,
      "start": 314.956,
      "duration": 0.1541,
      "velocity": 103,
      "chip": "ym2612"
    },
    {
      "channel": 1,
      "note": 78,
      "start": 314.9563,
      "duration": 0.1541,
      "velocity": 103,
      "chip": "ym2612"
    },
    {
      "channel": 3,
      "note": 90,
      "start": 314.9567,
      "duration": 0.1849,
      "velocity": 99,
      "chip": "ym2612"
    },
    {
      "channel": 4,
      "note": 54,
      "start": 314.9569,
      "duration": 0.2313,
      "velocity": 89,
      "chip": "ym2612"
    },
    {
      "channel": 0,
      "note": 71,
      "start": 315.1871,
      "duration": 0.4011,
      "velocity": 103,
      "chip": "ym2612"
    },
    {
      "channel": 1,
      "note": 74,
      "start": 315.1874,
      "duration": 0.4009,
      "velocity": 103,
      "chip": "ym2612"
    },
    {
      "channel": 3,
      "note": 86,
      "start": 315.1878,
      "duration": 0.4161,
      "velocity": 99,
      "chip": "ym2612"
    },
    {
      "channel": 4,
      "note": 59,
      "start": 315.1882,
      "duration": 0.4784,
      "velocity": 89,
      "chip": "ym2612"
    },
    {
      "channel": 5,
      "note": 50,
      "start": 315.1885,
      "duration": 0.4159,
      "velocity": 97,
      "chip": "ym2612"
    },
    {
      "channel": 2,
      "note": 90,
      "start": 315.3109,
      "duration": 0.1846,
      "velocity": 99,
      "chip": "ym2612"
    },
    {
      "channel": 2,
      "note": 86,
      "start": 315.542,
      "duration": 0.4164,
      "velocity": 99,
      "chip": "ym2612"
    },
    {
      "channel": 0,
      "note": 76,
      "start": 315.6657,
      "duration": 0.8644,
      "velocity": 103,
      "chip": "ym2612"
    },
    {
      "channel": 1,
      "note": 79,
      "start": 315.666,
      "duration": 0.8644,
      "velocity": 103,
      "chip": "ym2612"
    },
    {
      "channel": 3,
      "note": 91,
      "start": 315.6663,
      "duration": 0.8794,
      "velocity": 99,
      "chip": "ym2612"
    },
    {
      "channel": 4,
      "note": 50,
      "start": 315.6667,
      "duration": 0.2304,
      "velocity": 89,
      "chip": "ym2612"
    },
    {
      "channel": 5,
      "note": 52,
      "start": 315.667,
      "duration": 0.8173,
      "velocity": 97,
      "chip": "ym2612"
    },
    {
      "channel": 4,
      "note": 52,
      "start": 315.8972,
      "duration": 0.2316,
      "velocity": 89,
      "chip": "ym2612"
    },
    {
      "channel": 2,
      "note": 91,
      "start": 316.0206,
      "duration": 0.8795,
      "velocity": 99,
      "chip": "ym2612"
    },
    {
      "channel": 4,
      "note": 54,
      "start": 316.1289,
      "duration": 0.2467,
      "velocity": 89,
      "chip": "ym2612"
    },
    {
      "channel": 4,
      "note": 59,
      "start": 316.3756,
      "duration": 0.2329,
      "velocity": 89,
      "chip": "ym2612"
    },
    {
      "channel": 0,
      "note": 76,
      "start": 316.6073,
      "duration": 0.3849,
      "velocity": 103,
      "chip": "ym2612"
    },
    {
      "channel": 1,
      "note": 79,
      "start": 316.6077,
      "duration": 0.3847,
      "velocity": 103,
      "chip": "ym2612"
    },
    {
      "channel": 3,
      "note": 91,
      "start": 316.6082,
      "duration": 0.4156,
      "velocity": 99,
      "chip": "ym2612"
    },
    {
      "channel": 4,
      "note": 62,
      "start": 316.6085,
      "duration": 0.4773,
      "velocity": 89,
      "chip": "ym2612"
    },
    {
      "channel": 5,
      "note": 52,
      "start": 316.6087,
      "duration": 0.4154,
      "velocity": 97,
      "chip": "ym2612"
    },
    {
      "channel": 2,
      "note": 91,
      "start": 316.9622,
      "duration": 0.416,
      "velocity": 99,
      "chip": "ym2612"
    },
    {
      "channel": 0,
      "note": 74,
      "start": 317.0849,
      "duration": 0.6171,
      "velocity": 103,
      "chip": "ym2612"
    },
    {
      "channel": 1,
      "note": 78,
      "start": 317.0852,
      "duration": 0.6171,
      "velocity": 103,
      "chip": "ym2612"
    },
    {
      "channel": 3,
      "note": 90,
      "start": 317.0855,
      "duration": 0.6322,
      "velocity": 99,
      "chip": "ym2612"
    },
    {
      "channel": 4,
      "note": 49,
      "start": 317.0859,
      "duration": 0.2311,
      "velocity": 89,
      "chip": "ym2612"
    },
    {
      "channel": 5,
      "note": 59,
      "start": 317.086,
      "duration": 0.8166,
      "velocity": 97,
      "chip": "ym2612"
    },
    {
      "channel": 4,
      "note": 50,
      "start": 317.317,
      "duration": 0.2313,
      "velocity": 89,
      "chip": "ym2612"
    },
    {
      "channel": 2,
      "note": 90,
      "start": 317.4243,
      "duration": 0.647,
      "velocity": 99,
      "chip": "ym2612"
    },
    {
      "channel": 4,
      "note": 54,
      "start": 317.5485,
      "duration": 0.2309,
      "velocity": 89,
      "chip": "ym2612"
    },
    {
      "channel": 0,
      "note": 73,
      "start": 317.7786,
      "duration": 0.154,
      "velocity": 103,
      "chip": "ym2612"
    },
    {
      "channel": 1,
      "note": 76,
      "start": 317.7788,
      "duration": 0.154,
      "velocity": 103,
      "chip": "ym2612"
    },
    {
      "channel": 3,
      "note": 88,
      "start": 317.7792,
      "duration": 0.1849,
      "velocity": 99,
      "chip": "ym2612"
    },
    {
      "channel": 4,
      "note": 57,
      "start": 317.7794,
      "duration": 0.2467,
      "velocity": 89,
      "chip": "ym2612"
    },
    {
      "channel": 0,
      "note": 71,
      "start": 318.0251,
      "duration": 0.3858,
      "velocity": 103,
      "chip": "ym2612"
    },
    {
      "channel": 1,
      "note": 74,
      "start": 318.0253,
      "duration": 0.3858,
      "velocity": 103,
      "chip": "ym2612"
    },
    {
      "channel": 3,
      "note": 86,
      "start": 318.0258,
      "duration": 0.4006,
      "velocity": 99,
      "chip": "ym2612"
    },
    {
      "channel": 4,
      "note": 62,
      "start": 318.0261,
      "duration": 0.4629,
      "velocity": 89,
      "chip": "ym2612"
    },
    {
      "channel": 5,
      "note": 59,
      "start": 318.0262,
      "duration": 0.4005,
      "velocity": 97,
      "chip": "ym2612"
    },
    {
      "channel": 2,
      "note": 88,
      "start": 318.1333,
      "duration": 0.1851,
      "velocity": 99,
      "chip": "ym2612"
    },
    {
      "channel": 2,
      "note": 86,
      "start": 318.3646,
      "duration": 0.4168,
      "velocity": 99,
      "chip": "ym2612"
    },
    {
      "channel": 0,
      "note": 73,
      "start": 318.488,
      "duration": 0.8643,
      "velocity": 103,
      "chip": "ym2612"
    },
    {
      "channel": 1,
      "note": 76,
      "start": 318.4883,
      "duration": 0.8643,
      "velocity": 103,
      "chip": "ym2612"
    },
    {
      "channel": 3,
      "note": 88,
      "start": 318.4888,
      "duration": 0.8793,
      "velocity": 99,
      "chip": "ym2612"
    },
    {
      "channel": 4,
      "note": 47,
      "start": 318.4892,
      "duration": 0.231,
      "velocity": 89,
      "chip": "ym2612"
    },
    {
      "channel": 5,
      "note": 57,
      "start": 318.4894,
      "duration": 0.8171,
      "velocity": 97,
      "chip": "ym2612"
    },
    {
      "channel": 4,
      "note": 49,
      "start": 318.7202,
      "duration": 0.2467,
      "velocity": 89,
      "chip": "ym2612"
    },
    {
      "channel": 2,
      "note": 88,
      "start": 318.8439,
      "duration": 0.8787,
      "velocity": 99,
      "chip": "ym2612"
    },
    {
      "channel": 4,
      "note": 52,
      "start": 318.9669,
      "duration": 0.232,
      "velocity": 89,
      "chip": "ym2612"
    },
    {
      "channel": 4,
      "note": 55,
      "start": 319.1989,
      "duration": 0.2317,
      "velocity": 89,
      "chip": "ym2612"
    },
    {
      "channel": 0,
      "note": 73,
      "start": 319.4295,
      "duration": 0.3852,
      "velocity": 103,
      "chip": "ym2612"
    },
    {
      "channel": 1,
      "note": 76,
      "start": 319.4298,
      "duration": 0.3852,
      "velocity": 103,
      "chip": "ym2612"
    },
    {
      "channel": 3,
      "note": 88,
      "start": 319.4303,
      "duration": 0.4159,
      "velocity": 99,
      "chip": "ym2612"
    },
    {
      "channel": 4,
      "note": 59,
      "start": 319.4306,
      "duration": 0.4779,
      "velocity": 89,
      "chip": "ym2612"
    },
    {
      "channel": 5,
      "note": 57,
      "start": 319.4307,
      "duration": 0.4158,
      "velocity": 97,
      "chip": "ym2612"
    },
    {
      "channel": 2,
      "note": 88,
      "start": 319.7846,
      "duration": 0.4158,
      "velocity": 99,
      "chip": "ym2612"
    },
    {
      "channel": 0,
      "note": 73,
      "start": 319.9076,
      "duration": 1.3253,
      "velocity": 103,
      "chip": "ym2612"
    },
    {
      "channel": 1,
      "note": 76,
      "start": 319.9079,
      "duration": 1.3253,
      "velocity": 103,
      "chip": "ym2612"
    },
    {
      "channel": 3,
      "note": 88,
      "start": 319.9082,
      "duration": 1.3405,
      "velocity": 99,
      "chip": "ym2612"
    },
    {
      "channel": 4,
      "note": 47,
      "start": 319.9086,
      "duration": 0.2305,
      "velocity": 89,
      "chip": "ym2612"
    },
    {
      "channel": 5,
      "note": 57,
      "start": 319.9088,
      "duration": 0.8165,
      "velocity": 97,
      "chip": "ym2612"
    },
    {
      "channel": 4,
      "note": 49,
      "start": 320.1391,
      "duration": 0.2315,
      "velocity": 89,
      "chip": "ym2612"
    },
    {
      "channel": 2,
      "note": 88,
      "start": 320.2463,
      "duration": 1.3567,
      "velocity": 99,
      "chip": "ym2612"
    },
    {
      "channel": 4,
      "note": 52,
      "start": 320.3707,
      "duration": 0.2305,
      "velocity": 89,
      "chip": "ym2612"
    },
    {
      "channel": 4,
      "note": 55,
      "start": 320.6012,
      "duration": 0.2471,
      "velocity": 89,
      "chip": "ym2612"
    },
    {
      "channel": 4,
      "note": 59,
      "start": 320.8484,
      "duration": 0.4676,
      "velocity": 1,
      "chip": "ym2612"
    },
    {
      "channel": 5,
      "note": 57,
      "start": 320.8485,
      "duration": 0.4006,
      "velocity": 97,
      "chip": "ym2612"
    },
    {
      "channel": 0,
      "note": 54,
      "start": 321.3122,
      "duration": 0.1518,
      "velocity": 89,
      "chip": "ym2612"
    },
    {
      "channel": 5,
      "note": 52,
      "start": 321.3161,
      "duration": 0.8112,
      "velocity": 97,
      "chip": "ym2612"
    },
    {
      "channel": 1,
      "note": 54,
      "start": 321.3563,
      "duration": 0.3853,
      "velocity": 89,
      "chip": "ym2612"
    },
    {
      "channel": 0,
      "note": 55,
      "start": 321.5412,
      "duration": 0.1694,
      "velocity": 89,
      "chip": "ym2612"
    },
    {
      "channel": 3,
      "note": 55,
      "start": 321.5725,
      "duration": 0.6472,
      "velocity": 89,
      "chip": "ym2612"
    },
    {
      "channel": 2,
      "note": 54,
      "start": 321.6668,
      "duration": 0.1676,
      "velocity": 89,
      "chip": "ym2612"
    },
    {
      "channel": 0,
      "note": 59,
      "start": 321.7882,
      "duration": 0.3848,
      "velocity": 89,
      "chip": "ym2612"
    },
    {
      "channel": 1,
      "note": 59,
      "start": 321.819,
      "duration": 0.8624,
      "velocity": 89,
      "chip": "ym2612"
    },
    {
      "channel": 2,
      "note": 55,
      "start": 321.8961,
      "duration": 0.1846,
      "velocity": 89,
      "chip": "ym2612"
    },
    {
      "channel": 2,
      "note": 59,
      "start": 322.1271,
      "duration": 0.4157,
      "velocity": 89,
      "chip": "ym2612"
    },
    {
      "channel": 0,
      "note": 62,
      "start": 322.25,
      "duration": 0.4008,
      "velocity": 89,
      "chip": "ym2612"
    },
    {
      "channel": 5,
      "note": 52,
      "start": 322.2503,
      "duration": 0.4161,
      "velocity": 97,
      "chip": "ym2612"
    },
    {
      "channel": 3,
      "note": 62,
      "start": 322.266,
      "duration": 1.835,
      "velocity": 89,
      "chip": "ym2612"
    },
    {
      "channel": 2,
      "note": 62,
      "start": 322.6052,
      "duration": 0.4156,
      "velocity": 89,
      "chip": "ym2612"
    },
    {
      "channel": 0,
      "note": 61,
      "start": 322.7281,
      "duration": 1.3256,
      "velocity": 89,
      "chip": "ym2612"
    },
    {
      "channel": 5,
      "note": 52,
      "start": 322.7287,
      "duration": 0.8166,
      "velocity": 97,
      "chip": "ym2612"
    },
    {
      "channel": 1,
      "note": 61,
      "start": 322.7587,
      "duration": 1.342,
      "velocity": 89,
      "chip": "ym2612"
    },
    {
      "channel": 2,
      "note": 61,
      "start": 323.0673,
      "duration": 1.3568,
      "velocity": 89,
      "chip": "ym2612"
    },
    {
      "channel": 5,
      "note": 52,
      "start": 323.6689,
      "duration": 0.4012,
      "velocity": 97,
      "chip": "ym2612"
    },
    {
      "channel": 0,
      "note": 54,
      "start": 324.1313,
      "duration": 0.1537,
      "velocity": 89,
      "chip": "ym2612"
    },
    {
      "channel": 5,
      "note": 52,
      "start": 324.1317,
      "duration": 0.8338,
      "velocity": 97,
      "chip": "ym2612"
    },
    {
      "channel": 1,
      "note": 54,
      "start": 324.1778,
      "duration": 0.385,
      "velocity": 89,
      "chip": "ym2612"
    },
    {
      "channel": 0,
      "note": 55,
      "start": 324.3624,
      "duration": 0.17,
      "velocity": 89,
      "chip": "ym2612"
    },
    {
      "channel": 3,
      "note": 55,
      "start": 324.3935,
      "duration": 0.6485,
      "velocity": 89,
      "chip": "ym2612"
    },
    {
      "channel": 2,
      "note": 54,
      "start": 324.4863,
      "duration": 0.169,
      "velocity": 89,
      "chip": "ym2612"
    },
    {
      "channel": 0,
      "note": 59,
      "start": 324.6096,
      "duration": 0.3853,
      "velocity": 89,
      "chip": "ym2612"
    },
    {
      "channel": 1,
      "note": 59,
      "start": 324.64,
      "duration": 0.8643,
      "velocity": 89,
      "chip": "ym2612"
    },
    {
      "channel": 2,
      "note": 55,
      "start": 324.7175,
      "duration": 0.1852,
      "velocity": 89,
      "chip": "ym2612"
    },
    {
      "channel": 2,
      "note": 59,
      "start": 324.965,
      "duration": 0.4005,
      "velocity": 89,
      "chip": "ym2612"
    },
    {
      "channel": 0,
      "note": 64,
      "start": 325.0722,
      "duration": 0.4014,
      "velocity": 89,
      "chip": "ym2612"
    },
    {
      "channel": 5,
      "note": 52,
      "start": 325.0725,
      "duration": 0.4168,
      "velocity": 97,
      "chip": "ym2612"
    },
    {
      "channel": 3,
      "note": 64,
      "start": 325.088,
      "duration": 0.8951,
      "velocity": 89,
      "chip": "ym2612"
    },
    {
      "channel": 2,
      "note": 64,
      "start": 325.4274,
      "duration": 0.4162,
      "velocity": 89,
      "chip": "ym2612"
    },
    {
      "channel": 0,
      "note": 61,
      "start": 325.551,
      "duration": 0.3849,
      "velocity": 89,
      "chip": "ym2612"
    },
    {
      "channel": 5,
      "note": 52,
      "start": 325.5515,
      "duration": 0.8173,
      "velocity": 97,
      "chip": "ym2612"
    },
    {
      "channel": 1,
      "note": 61,
      "start": 325.5815,
      "duration": 1.3425,
      "velocity": 89,
      "chip": "ym2612"
    },
    {
      "channel": 2,
      "note": 61,
      "start": 325.9061,
      "duration": 0.4005,
      "velocity": 89,
      "chip": "ym2612"
    },
    {
      "channel": 0,
      "note": 66,
      "start": 326.0134,
      "duration": 0.8639,
      "velocity": 89,
      "chip": "ym2612"
    },
    {
      "channel": 3,
      "note": 66,
      "start": 326.0292,
      "duration": 0.8952,
      "velocity": 89,
      "chip": "ym2612"
    },
    {
      "channel": 2,
      "note": 66,
      "start": 326.3685,
      "duration": 0.8795,
      "velocity": 89,
      "chip": "ym2612"
    },
    {
      "channel": 5,
      "note": 52,
      "start": 326.4923,
      "duration": 0.4009,
      "velocity": 97,
      "chip": "ym2612"
    },
    {
      "channel": 0,
      "note": 54,
      "start": 326.9546,
      "duration": 0.1545,
      "velocity": 89,
      "chip": "ym2612"
    },
    {
      "channel": 5,
      "note": 52,
      "start": 326.9552,
      "duration": 0.8334,
      "velocity": 97,
      "chip": "ym2612"
    },
    {
      "channel": 1,
      "note": 54,
      "start": 327.0013,
      "duration": 0.3849,
      "velocity": 89,
      "chip": "ym2612"
    },
    {
      "channel": 0,
      "note": 55,
      "start": 327.1867,
      "duration": 0.169,
      "velocity": 89,
      "chip": "ym2612"
    },
    {
      "channel": 3,
      "note": 55,
      "start": 327.2176,
      "duration": 0.6476,
      "velocity": 89,
      "chip": "ym2612"
    },
    {
      "channel": 2,
      "note": 54,
      "start": 327.3097,
      "duration": 0.1848,
      "velocity": 89,
      "chip": "ym2612"
    },
    {
      "channel": 0,
      "note": 59,
      "start": 327.433,
      "duration": 0.3851,
      "velocity": 89,
      "chip": "ym2612"
    },
    {
      "channel": 1,
      "note": 59,
      "start": 327.4637,
      "duration": 0.8635,
      "velocity": 89,
      "chip": "ym2612"
    },
    {
      "channel": 2,
      "note": 55,
      "start": 327.5414,
      "duration": 0.1845,
      "velocity": 89,
      "chip": "ym2612"
    },
    {
      "channel": 2,
      "note": 59,
      "start": 327.7882,
      "duration": 0.4001,
      "velocity": 89,
      "chip": "ym2612"
    },
    {
      "channel": 0,
      "note": 62,
      "start": 327.8958,
      "duration": 0.4007,
      "velocity": 89,
      "chip": "ym2612"
    },
    {
      "channel": 5,
      "note": 52,
      "start": 327.8961,
      "duration": 0.4161,
      "velocity": 97,
      "chip": "ym2612"
    },
    {
      "channel": 3,
      "note": 62,
      "start": 327.9115,
      "duration": 1.8342,
      "velocity": 89,
      "chip": "ym2612"
    },
    {
      "channel": 2,
      "note": 62,
      "start": 328.2504,
      "duration": 0.4161,
      "velocity": 89,
      "chip": "ym2612"
    },
    {
      "channel": 0,
      "note": 61,
      "start": 328.3739,
      "duration": 1.3251,
      "velocity": 89,
      "chip": "ym2612"
    },
    {
      "channel": 5,
      "note": 52,
      "start": 328.3743,
      "duration": 0.8168,
      "velocity": 97,
      "chip": "ym2612"
    },
    {
      "channel": 1,
      "note": 61,
      "start": 328.4048,
      "duration": 1.3407,
      "velocity": 89,
      "chip": "ym2612"
    },
    {
      "channel": 2,
      "note": 61,
      "start": 328.7289,
      "duration": 1.3402,
      "velocity": 89,
      "chip": "ym2612"
    },
    {
      "channel": 5,
      "note": 52,
      "start": 329.3146,
      "duration": 0.4004,
      "velocity": 97,
      "chip": "ym2612"
    },
    {
      "channel": 0,
      "note": 54,
      "start": 329.7766,
      "duration": 0.154,
      "velocity": 89,
      "chip": "ym2612"
    },
    {
      "channel": 5,
      "note": 52,
      "start": 329.7771,
      "duration": 0.8331,
      "velocity": 97,
      "chip": "ym2612"
    },
    {
      "channel": 1,
      "note": 54,
      "start": 329.8229,
      "duration": 0.3852,
      "velocity": 89,
      "chip": "ym2612"
    },
    {
      "channel": 0,
      "note": 55,
      "start": 330.0232,
      "duration": 0.154,
      "velocity": 89,
      "chip": "ym2612"
    },
    {
      "channel": 3,
      "note": 55,
      "start": 330.0387,
      "duration": 0.6478,
      "velocity": 89,
      "chip": "ym2612"
    },
    {
      "channel": 2,
      "note": 54,
      "start": 330.1313,
      "duration": 0.185,
      "velocity": 89,
      "chip": "ym2612"
    },
    {
      "channel": 0,
      "note": 59,
      "start": 330.2546,
      "duration": 0.3854,
      "velocity": 89,
      "chip": "ym2612"
    },
    {
      "channel": 1,
      "note": 59,
      "start": 330.2858,
      "duration": 0.8633,
      "velocity": 89,
      "chip": "ym2612"
    },
    {
      "channel": 2,
      "note": 55,
      "start": 330.3632,
      "duration": 0.1844,
      "velocity": 89,
      "chip": "ym2612"
    },
    {
      "channel": 2,
      "note": 59,
      "start": 330.6099,
      "duration": 0.4003,
      "velocity": 89,
      "chip": "ym2612"
    },
    {
      "channel": 0,
      "note": 62,
      "start": 330.7175,
      "duration": 0.4005,
      "velocity": 89,
      "chip": "ym2612"
    },
    {
      "channel": 5,
      "note": 52,
      "start": 330.7179,
      "duration": 0.4161,
      "velocity": 97,
      "chip": "ym2612"
    },
    {
      "channel": 3,
      "note": 62,
      "start": 330.7483,
      "duration": 0.879,
      "velocity": 89,
      "chip": "ym2612"
    },
    {
      "channel": 2,
      "note": 62,
      "start": 331.0725,
      "duration": 0.4163,
      "velocity": 89,
      "chip": "ym2612"
    },
    {
      "channel": 0,
      "note": 61,
      "start": 331.1953,
      "duration": 0.3858,
      "velocity": 89,
      "chip": "ym2612"
    },
    {
      "channel": 5,
      "note": 52,
      "start": 331.1957,
      "duration": 0.818,
      "velocity": 97,
      "chip": "ym2612"
    },
    {
      "channel": 1,
      "note": 61,
      "start": 331.2264,
      "duration": 1.3417,
      "velocity": 89,
      "chip": "ym2612"
    },
    {
      "channel": 2,
      "note": 61,
      "start": 331.5506,
      "duration": 0.4004,
      "velocity": 89,
      "chip": "ym2612"
    },
    {
      "channel": 0,
      "note": 57,
      "start": 331.6583,
      "duration": 0.8638,
      "velocity": 89,
      "chip": "ym2612"
    },
    {
      "channel": 3,
      "note": 57,
      "start": 331.6894,
      "duration": 0.8789,
      "velocity": 89,
      "chip": "ym2612"
    },
    {
      "channel": 2,
      "note": 57,
      "start": 332.0134,
      "duration": 0.8791,
      "velocity": 89,
      "chip": "ym2612"
    },
    {
      "channel": 5,
      "note": 52,
      "start": 332.1362,
      "duration": 0.4018,
      "velocity": 97,
      "chip": "ym2612"
    },
    {
      "channel": 0,
      "note": 54,
      "start": 332.5993,
      "duration": 0.1537,
      "velocity": 89,
      "chip": "ym2612"
    },
    {
      "channel": 5,
      "note": 52,
      "start": 332.6,
      "duration": 0.8326,
      "velocity": 97,
      "chip": "ym2612"
    },
    {
      "channel": 1,
      "note": 54,
      "start": 332.6453,
      "duration": 0.386,
      "velocity": 89,
      "chip": "ym2612"
    },
    {
      "channel": 0,
      "note": 55,
      "start": 332.846,
      "duration": 0.1542,
      "velocity": 89,
      "chip": "ym2612"
    },
    {
      "channel": 3,
      "note": 55,
      "start": 332.862,
      "duration": 0.6471,
      "velocity": 89,
      "chip": "ym2612"
    },
    {
      "channel": 2,
      "note": 54,
      "start": 332.9549,
      "duration": 0.1842,
      "velocity": 89,
      "chip": "ym2612"
    },
    {
      "channel": 0,
      "note": 59,
      "start": 333.0773,
      "duration": 0.3853,
      "velocity": 89,
      "chip": "ym2612"
    },
    {
      "channel": 1,
      "note": 59,
      "start": 333.1085,
      "duration": 0.863,
      "velocity": 89,
      "chip": "ym2612"
    },
    {
      "channel": 2,
      "note": 55,
      "start": 333.1856,
      "duration": 0.185,
      "velocity": 89,
      "chip": "ym2612"
    },
    {
      "channel": 2,
      "note": 59,
      "start": 333.4323,
      "duration": 0.4005,
      "velocity": 89,
      "chip": "ym2612"
    },
    {
      "channel": 0,
      "note": 62,
      "start": 333.5399,
      "duration": 0.4005,
      "velocity": 89,
      "chip": "ym2612"
    },
    {
      "channel": 5,
      "note": 52,
      "start": 333.5403,
      "duration": 0.4161,
      "velocity": 97,
      "chip": "ym2612"
    },
    {
      "channel": 3,
      "note": 62,
      "start": 333.5711,
      "duration": 1.8191,
      "velocity": 89,
      "chip": "ym2612"
    },
    {
      "channel": 2,
      "note": 62,
      "start": 333.8949,
      "duration": 0.4159,
      "velocity": 89,
      "chip": "ym2612"
    },
    {
      "channel": 0,
      "note": 61,
      "start": 334.0178,
      "duration": 1.326,
      "velocity": 89,
      "chip": "ym2612"
    },
    {
      "channel": 5,
      "note": 52,
      "start": 334.0183,
      "duration": 0.8174,
      "velocity": 97,
      "chip": "ym2612"
    },
    {
      "channel": 1,
      "note": 61,
      "start": 334.0488,
      "duration": 1.3414,
      "velocity": 89,
      "chip": "ym2612"
    },
    {
      "channel": 2,
      "note": 61,
      "start": 334.3727,
      "duration": 1.342,
      "velocity": 89,
      "chip": "ym2612"
    },
    {
      "channel": 5,
      "note": 52,
      "start": 334.959,
      "duration": 0.4162,
      "velocity": 97,
      "chip": "ym2612"
    },
    {
      "channel": 0,
      "note": 54,
      "start": 335.4212,
      "duration": 0.1698,
      "velocity": 89,
      "chip": "ym2612"
    },
    {
      "channel": 5,
      "note": 52,
      "start": 335.4218,
      "duration": 0.8329,
      "velocity": 97,
      "chip": "ym2612"
    },
    {
      "channel": 1,
      "note": 54,
      "start": 335.4675,
      "duration": 0.3852,
      "velocity": 89,
      "chip": "ym2612"
    },
    {
      "channel": 0,
      "note": 55,
      "start": 335.668,
      "duration": 0.1539,
      "velocity": 89,
      "chip": "ym2612"
    },
    {
      "channel": 3,
      "note": 55,
      "start": 335.6838,
      "duration": 0.6477,
      "velocity": 89,
      "chip": "ym2612"
    },
    {
      "channel": 2,
      "note": 54,
      "start": 335.7762,
      "duration": 0.185,
      "velocity": 89,
      "chip": "ym2612"
    },
    {
      "channel": 0,
      "note": 59,
      "start": 335.8992,
      "duration": 0.3854,
      "velocity": 89,
      "chip": "ym2612"
    },
    {
      "channel": 1,
      "note": 59,
      "start": 335.9302,
      "duration": 0.8634,
      "velocity": 89,
      "chip": "ym2612"
    },
    {
      "channel": 2,
      "note": 55,
      "start": 336.0078,
      "duration": 0.1846,
      "velocity": 89,
      "chip": "ym2612"
    },
    {
      "channel": 2,
      "note": 59,
      "start": 336.2543,
      "duration": 0.4008,
      "velocity": 89,
      "chip": "ym2612"
    },
    {
      "channel": 0,
      "note": 64,
      "start": 336.3622,
      "duration": 0.4006,
      "velocity": 89,
      "chip": "ym2612"
    },
    {
      "channel": 5,
      "note": 52,
      "start": 336.3626,
      "duration": 0.416,
      "velocity": 97,
      "chip": "ym2612"
    },
    {
      "channel": 3,
      "note": 64,
      "start": 336.3934,
      "duration": 0.8787,
      "velocity": 89,
      "chip": "ym2612"
    },
    {
      "channel": 2,
      "note": 64,
      "start": 336.717,
      "duration": 0.4159,
      "velocity": 89,
      "chip": "ym2612"
    },
    {
      "channel": 0,
      "note": 61,
      "start": 336.8402,
      "duration": 0.3852,
      "velocity": 89,
      "chip": "ym2612"
    },
    {
      "channel": 5,
      "note": 52,
      "start": 336.8408,
      "duration": 0.8173,
      "velocity": 97,
      "chip": "ym2612"
    },
    {
      "channel": 1,
      "note": 61,
      "start": 336.8708,
      "duration": 1.3425,
      "velocity": 89,
      "chip": "ym2612"
    },
    {
      "channel": 2,
      "note": 61,
      "start": 337.1952,
      "duration": 0.4007,
      "velocity": 89,
      "chip": "ym2612"
    },
    {
      "channel": 0,
      "note": 66,
      "start": 337.3028,
      "duration": 0.8638,
      "velocity": 89,
      "chip": "ym2612"
    },
    {
      "channel": 3,
      "note": 66,
      "start": 337.3341,
      "duration": 0.8795,
      "velocity": 89,
      "chip": "ym2612"
    },
    {
      "channel": 2,
      "note": 66,
      "start": 337.6578,
      "duration": 0.8797,
      "velocity": 89,
      "chip": "ym2612"
    },
    {
      "channel": 5,
      "note": 52,
      "start": 337.7815,
      "duration": 0.4166,
      "velocity": 97,
      "chip": "ym2612"
    },
    {
      "channel": 0,
      "note": 54,
      "start": 338.2443,
      "duration": 0.1692,
      "velocity": 89,
      "chip": "ym2612"
    },
    {
      "channel": 5,
      "note": 52,
      "start": 338.245,
      "duration": 0.8334,
      "velocity": 97,
      "chip": "ym2612"
    },
    {
      "channel": 1,
      "note": 54,
      "start": 338.2909,
      "duration": 0.3852,
      "velocity": 89,
      "chip": "ym2612"
    },
    {
      "channel": 0,
      "note": 55,
      "start": 338.491,
      "duration": 0.1545,
      "velocity": 89,
      "chip": "ym2612"
    },
    {
      "channel": 3,
      "note": 55,
      "start": 338.5066,
      "duration": 0.6484,
      "velocity": 89,
      "chip": "ym2612"
    },
    {
      "channel": 2,
      "note": 54,
      "start": 338.5993,
      "duration": 0.1853,
      "velocity": 89,
      "chip": "ym2612"
    },
    {
      "channel": 0,
      "note": 59,
      "start": 338.7231,
      "duration": 0.3849,
      "velocity": 89,
      "chip": "ym2612"
    },
    {
      "channel": 1,
      "note": 59,
      "start": 338.7537,
      "duration": 0.8631,
      "velocity": 89,
      "chip": "ym2612"
    },
    {
      "channel": 2,
      "note": 55,
      "start": 338.8461,
      "duration": 0.1696,
      "velocity": 89,
      "chip": "ym2612"
    },
    {
      "channel": 2,
      "note": 59,
      "start": 339.078,
      "duration": 0.4006,
      "velocity": 89,
      "chip": "ym2612"
    },
    {
      "channel": 0,
      "note": 62,
      "start": 339.1852,
      "duration": 0.401,
      "velocity": 89,
      "chip": "ym2612"
    },
    {
      "channel": 5,
      "note": 52,
      "start": 339.1856,
      "duration": 0.4165,
      "velocity": 97,
      "chip": "ym2612"
    },
    {
      "channel": 3,
      "note": 62,
      "start": 339.2165,
      "duration": 1.82,
      "velocity": 89,
      "chip": "ym2612"
    },
    {
      "channel": 2,
      "note": 62,
      "start": 339.5402,
      "duration": 0.4164,
      "velocity": 89,
      "chip": "ym2612"
    },
    {
      "channel": 0,
      "note": 61,
      "start": 339.6634,
      "duration": 1.3261,
      "velocity": 89,
      "chip": "ym2612"
    },
    {
      "channel": 5,
      "note": 52,
      "start": 339.6639,
      "duration": 0.8173,
      "velocity": 97,
      "chip": "ym2612"
    },
    {
      "channel": 1,
      "note": 61,
      "start": 339.6941,
      "duration": 1.3422,
      "velocity": 89,
      "chip": "ym2612"
    },
    {
      "channel": 2,
      "note": 61,
      "start": 340.0188,
      "duration": 1.3572,
      "velocity": 89,
      "chip": "ym2612"
    },
    {
      "channel": 5,
      "note": 52,
      "start": 340.6048,
      "duration": 0.4163,
      "velocity": 97,
      "chip": "ym2612"
    },
    {
      "channel": 0,
      "note": 54,
      "start": 341.0669,
      "duration": 0.1696,
      "velocity": 89,
      "chip": "ym2612"
    },
    {
      "channel": 5,
      "note": 52,
      "start": 341.0676,
      "duration": 0.8333,
      "velocity": 97,
      "chip": "ym2612"
    },
    {
      "channel": 1,
      "note": 54,
      "start": 341.1134,
      "duration": 0.3853,
      "velocity": 89,
      "chip": "ym2612"
    },
    {
      "channel": 0,
      "note": 55,
      "start": 341.3142,
      "duration": 0.1541,
      "velocity": 89,
      "chip": "ym2612"
    },
    {
      "channel": 3,
      "note": 55,
      "start": 341.33,
      "duration": 0.6473,
      "velocity": 89,
      "chip": "ym2612"
    },
    {
      "channel": 2,
      "note": 54,
      "start": 341.4224,
      "duration": 0.1846,
      "velocity": 89,
      "chip": "ym2612"
    },
    {
      "channel": 0,
      "note": 59,
      "start": 341.5454,
      "duration": 0.385,
      "velocity": 89,
      "chip": "ym2612"
    },
    {
      "channel": 1,
      "note": 59,
      "start": 341.5917,
      "duration": 0.8478,
      "velocity": 89,
      "chip": "ym2612"
    },
    {
      "channel": 2,
      "note": 55,
      "start": 341.669,
      "duration": 0.1696,
      "velocity": 89,
      "chip": "ym2612"
    },
    {
      "channel": 2,
      "note": 59,
      "start": 341.9004,
      "duration": 0.4157,
      "velocity": 89,
      "chip": "ym2612"
    },
    {
      "channel": 0,
      "note": 62,
      "start": 342.0078,
      "duration": 0.4008,
      "velocity": 89,
      "chip": "ym2612"
    },
    {
      "channel": 5,
      "note": 52,
      "start": 342.0083,
      "duration": 0.4164,
      "velocity": 97,
      "chip": "ym2612"
    },
    {
      "channel": 3,
      "note": 62,
      "start": 342.0389,
      "duration": 0.8784,
      "velocity": 89,
      "chip": "ym2612"
    },
    {
      "channel": 2,
      "note": 62,
      "start": 342.3627,
      "duration": 0.4162,
      "velocity": 89,
      "chip": "ym2612"
    },
    {
      "channel": 0,
      "note": 61,
      "start": 342.4859,
      "duration": 0.3848,
      "velocity": 89,
      "chip": "ym2612"
    },
    {
      "channel": 5,
      "note": 52,
      "start": 342.4864,
      "duration": 0.817,
      "velocity": 97,
      "chip": "ym2612"
    },
    {
      "channel": 1,
      "note": 61,
      "start": 342.5323,
      "duration": 1.3257,
      "velocity": 89,
      "chip": "ym2612"
    },
    {
      "channel": 2,
      "note": 61,
      "start": 342.8406,
      "duration": 0.4157,
      "velocity": 89,
      "chip": "ym2612"
    },
    {
      "channel": 0,
      "note": 57,
      "start": 342.9635,
      "duration": 0.8481,
      "velocity": 89,
      "chip": "ym2612"
    },
    {
      "channel": 3,
      "note": 57,
      "start": 342.9792,
      "duration": 0.8791,
      "velocity": 89,
      "chip": "ym2612"
    },
    {
      "channel": 2,
      "note": 57,
      "start": 343.303,
      "duration": 0.8945,
      "velocity": 89,
      "chip": "ym2612"
    },
    {
      "channel": 5,
      "note": 52,
      "start": 343.4264,
      "duration": 0.4164,
      "velocity": 97,
      "chip": "ym2612"
    },
    {
      "channel": 0,
      "note": 54,
      "start": 343.9045,
      "duration": 0.1545,
      "velocity": 89,
      "chip": "ym2612"
    },
    {
      "channel": 5,
      "note": 52,
      "start": 343.905,
      "duration": 0.8178,
      "velocity": 97,
      "chip": "ym2612"
    },
    {
      "channel": 1,
      "note": 54,
      "start": 343.9355,
      "duration": 0.3856,
      "velocity": 89,
      "chip": "ym2612"
    },
    {
      "channel": 0,
      "note": 55,
      "start": 344.1362,
      "duration": 0.1539,
      "velocity": 89,
      "chip": "ym2612"
    },
    {
      "channel": 3,
      "note": 55,
      "start": 344.1521,
      "duration": 0.6472,
      "velocity": 89,
      "chip": "ym2612"
    },
    {
      "channel": 2,
      "note": 54,
      "start": 344.2443,
      "duration": 0.1851,
      "velocity": 89,
      "chip": "ym2612"
    },
    {
      "channel": 0,
      "note": 59,
      "start": 344.3676,
      "duration": 0.3852,
      "velocity": 89,
      "chip": "ym2612"
    },
    {
      "channel": 1,
      "note": 59,
      "start": 344.4141,
      "duration": 0.8633,
      "velocity": 89,
      "chip": "ym2612"
    },
    {
      "channel": 2,
      "note": 55,
      "start": 344.4912,
      "duration": 0.1695,
      "velocity": 89,
      "chip": "ym2612"
    },
    {
      "channel": 2,
      "note": 59,
      "start": 344.7224,
      "duration": 0.4157,
      "velocity": 89,
      "chip": "ym2612"
    },
    {
      "channel": 0,
      "note": 62,
      "start": 344.8458,
      "duration": 0.3849,
      "velocity": 89,
      "chip": "ym2612"
    },
    {
      "channel": 5,
      "note": 52,
      "start": 344.8461,
      "duration": 0.4007,
      "velocity": 97,
      "chip": "ym2612"
    },
    {
      "channel": 3,
      "note": 62,
      "start": 344.8614,
      "duration": 1.8189,
      "velocity": 89,
      "chip": "ym2612"
    },
    {
      "channel": 2,
      "note": 62,
      "start": 345.1849,
      "duration": 0.416,
      "velocity": 89,
      "chip": "ym2612"
    },
    {
      "channel": 0,
      "note": 61,
      "start": 345.3078,
      "duration": 1.3258,
      "velocity": 89,
      "chip": "ym2612"
    },
    {
      "channel": 5,
      "note": 52,
      "start": 345.3084,
      "duration": 0.8171,
      "velocity": 97,
      "chip": "ym2612"
    },
    {
      "channel": 1,
      "note": 61,
      "start": 345.3544,
      "duration": 1.3256,
      "velocity": 89,
      "chip": "ym2612"
    },
    {
      "channel": 2,
      "note": 61,
      "start": 345.6626,
      "duration": 1.3569,
      "velocity": 89,
      "chip": "ym2612"
    },
    {
      "channel": 5,
      "note": 52,
      "start": 346.249,
      "duration": 0.4163,
      "velocity": 97,
      "chip": "ym2612"
    },
    {
      "channel": 0,
      "note": 54,
      "start": 346.727,
      "duration": 0.1536,
      "velocity": 89,
      "chip": "ym2612"
    },
    {
      "channel": 5,
      "note": 52,
      "start": 346.7273,
      "duration": 0.8173,
      "velocity": 97,
      "chip": "ym2612"
    },
    {
      "channel": 1,
      "note": 54,
      "start": 346.7576,
      "duration": 0.4014,
      "velocity": 89,
      "chip": "ym2612"
    },
    {
      "channel": 0,
      "note": 55,
      "start": 346.958,
      "duration": 0.1543,
      "velocity": 89,
      "chip": "ym2612"
    },
    {
      "channel": 3,
      "note": 55,
      "start": 346.9738,
      "duration": 0.6474,
      "velocity": 89,
      "chip": "ym2612"
    },
    {
      "channel": 2,
      "note": 54,
      "start": 347.0664,
      "duration": 0.1851,
      "velocity": 89,
      "chip": "ym2612"
    },
    {
      "channel": 0,
      "note": 59,
      "start": 347.1895,
      "duration": 0.4008,
      "velocity": 89,
      "chip": "ym2612"
    },
    {
      "channel": 1,
      "note": 59,
      "start": 347.2361,
      "duration": 0.8634,
      "velocity": 89,
      "chip": "ym2612"
    },
    {
      "channel": 2,
      "note": 55,
      "start": 347.3132,
      "duration": 0.1697,
      "velocity": 89,
      "chip": "ym2612"
    },
    {
      "channel": 2,
      "note": 59,
      "start": 347.5443,
      "duration": 0.4164,
      "velocity": 89,
      "chip": "ym2612"
    },
    {
      "channel": 0,
      "note": 64,
      "start": 347.6677,
      "duration": 0.385,
      "velocity": 89,
      "chip": "ym2612"
    },
    {
      "channel": 5,
      "note": 52,
      "start": 347.668,
      "duration": 0.4005,
      "velocity": 97,
      "chip": "ym2612"
    },
    {
      "channel": 3,
      "note": 64,
      "start": 347.6835,
      "duration": 0.8781,
      "velocity": 89,
      "chip": "ym2612"
    },
    {
      "channel": 2,
      "note": 64,
      "start": 348.0073,
      "duration": 0.4159,
      "velocity": 89,
      "chip": "ym2612"
    },
    {
      "channel": 0,
      "note": 61,
      "start": 348.1301,
      "duration": 0.4008,
      "velocity": 89,
      "chip": "ym2612"
    },
    {
      "channel": 5,
      "note": 52,
      "start": 348.1307,
      "duration": 0.8175,
      "velocity": 97,
      "chip": "ym2612"
    },
    {
      "channel": 1,
      "note": 61,
      "start": 348.1766,
      "duration": 1.3261,
      "velocity": 89,
      "chip": "ym2612"
    },
    {
      "channel": 2,
      "note": 61,
      "start": 348.4849,
      "duration": 0.4163,
      "velocity": 89,
      "chip": "ym2612"
    },
    {
      "channel": 0,
      "note": 66,
      "start": 348.608,
      "duration": 0.8642,
      "velocity": 89,
      "chip": "ym2612"
    },
    {
      "channel": 3,
      "note": 66,
      "start": 348.6241,
      "duration": 0.8789,
      "velocity": 89,
      "chip": "ym2612"
    },
    {
      "channel": 2,
      "note": 66,
      "start": 348.9478,
      "duration": 0.895,
      "velocity": 89,
      "chip": "ym2612"
    },
    {
      "channel": 5,
      "note": 52,
      "start": 349.0711,
      "duration": 0.4171,
      "velocity": 97,
      "chip": "ym2612"
    },
    {
      "channel": 0,
      "note": 54,
      "start": 349.5493,
      "duration": 0.1541,
      "velocity": 89,
      "chip": "ym2612"
    },
    {
      "channel": 5,
      "note": 52,
      "start": 349.5497,
      "duration": 0.8178,
      "velocity": 97,
      "chip": "ym2612"
    },
    {
      "channel": 1,
      "note": 54,
      "start": 349.5802,
      "duration": 0.4013,
      "velocity": 89,
      "chip": "ym2612"
    },
    {
      "channel": 0,
      "note": 55,
      "start": 349.7809,
      "duration": 0.154,
      "velocity": 89,
      "chip": "ym2612"
    },
    {
      "channel": 3,
      "note": 55,
      "start": 349.7966,
      "duration": 0.6475,
      "velocity": 89,
      "chip": "ym2612"
    },
    {
      "channel": 2,
      "note": 54,
      "start": 349.9049,
      "duration": 0.1691,
      "velocity": 89,
      "chip": "ym2612"
    },
    {
      "channel": 0,
      "note": 59,
      "start": 350.0122,
      "duration": 0.4009,
      "velocity": 89,
      "chip": "ym2612"
    },
    {
      "channel": 1,
      "note": 59,
      "start": 350.0586,
      "duration": 0.8634,
      "velocity": 89,
      "chip": "ym2612"
    },
    {
      "channel": 2,
      "note": 55,
      "start": 350.1361,
      "duration": 0.1691,
      "velocity": 89,
      "chip": "ym2612"
    },
    {
      "channel": 2,
      "note": 59,
      "start": 350.3671,
      "duration": 0.4162,
      "velocity": 89,
      "chip": "ym2612"
    },
    {
      "channel": 0,
      "note": 62,
      "start": 350.4903,
      "duration": 0.3852,
      "velocity": 89,
      "chip": "ym2612"
    },
    {
      "channel": 5,
      "note": 52,
      "start": 350.4907,
      "duration": 0.4007,
      "velocity": 97,
      "chip": "ym2612"
    },
    {
      "channel": 3,
      "note": 62,
      "start": 350.5063,
      "duration": 1.8189,
      "velocity": 89,
      "chip": "ym2612"
    },
    {
      "channel": 2,
      "note": 62,
      "start": 350.8454,
      "duration": 0.4002,
      "velocity": 89,
      "chip": "ym2612"
    },
    {
      "channel": 0,
      "note": 61,
      "start": 350.9531,
      "duration": 1.341,
      "velocity": 89,
      "chip": "ym2612"
    },
    {
      "channel": 5,
      "note": 52,
      "start": 350.9538,
      "duration": 0.8321,
      "velocity": 97,
      "chip": "ym2612"
    },
    {
      "channel": 1,
      "note": 61,
      "start": 350.9994,
      "duration": 1.3255,
      "velocity": 89,
      "chip": "ym2612"
    },
    {
      "channel": 2,
      "note": 61,
      "start": 351.3075,
      "duration": 1.3573,
      "velocity": 89,
      "chip": "ym2612"
    },
    {
      "channel": 5,
      "note": 52,
      "start": 351.8937,
      "duration": 0.4167,
      "velocity": 97,
      "chip": "ym2612"
    },
    {
      "channel": 0,
      "note": 54,
      "start": 352.3717,
      "duration": 0.1541,
      "velocity": 89,
      "chip": "ym2612"
    },
    {
      "channel": 5,
      "note": 52,
      "start": 352.3719,
      "duration": 0.8178,
      "velocity": 97,
      "chip": "ym2612"
    },
    {
      "channel": 1,
      "note": 54,
      "start": 352.4028,
      "duration": 0.4009,
      "velocity": 89,
      "chip": "ym2612"
    },
    {
      "channel": 0,
      "note": 55,
      "start": 352.603,
      "duration": 0.1542,
      "velocity": 89,
      "chip": "ym2612"
    },
    {
      "channel": 3,
      "note": 55,
      "start": 352.6187,
      "duration": 0.6476,
      "velocity": 89,
      "chip": "ym2612"
    },
    {
      "channel": 2,
      "note": 54,
      "start": 352.7268,
      "duration": 0.1691,
      "velocity": 89,
      "chip": "ym2612"
    },
    {
      "channel": 0,
      "note": 59,
      "start": 352.8347,
      "duration": 0.4003,
      "velocity": 89,
      "chip": "ym2612"
    },
    {
      "channel": 1,
      "note": 59,
      "start": 352.8806,
      "duration": 0.8631,
      "velocity": 89,
      "chip": "ym2612"
    },
    {
      "channel": 2,
      "note": 55,
      "start": 352.9578,
      "duration": 0.1695,
      "velocity": 89,
      "chip": "ym2612"
    },
    {
      "channel": 2,
      "note": 59,
      "start": 353.1893,
      "duration": 0.416,
      "velocity": 89,
      "chip": "ym2612"
    },
    {
      "channel": 0,
      "note": 62,
      "start": 353.312,
      "duration": 0.3855,
      "velocity": 89,
      "chip": "ym2612"
    },
    {
      "channel": 5,
      "note": 52,
      "start": 353.3124,
      "duration": 0.4011,
      "velocity": 97,
      "chip": "ym2612"
    },
    {
      "channel": 3,
      "note": 62,
      "start": 353.3279,
      "duration": 0.8786,
      "velocity": 89,
      "chip": "ym2612"
    },
    {
      "channel": 2,
      "note": 62,
      "start": 353.6673,
      "duration": 0.4002,
      "velocity": 89,
      "chip": "ym2612"
    },
    {
      "channel": 0,
      "note": 61,
      "start": 353.775,
      "duration": 0.4003,
      "velocity": 89,
      "chip": "ym2612"
    },
    {
      "channel": 5,
      "note": 52,
      "start": 353.7757,
      "duration": 0.832,
      "velocity": 97,
      "chip": "ym2612"
    },
    {
      "channel": 1,
      "note": 61,
      "start": 353.821,
      "duration": 1.3262,
      "velocity": 89,
      "chip": "ym2612"
    },
    {
      "channel": 2,
      "note": 61,
      "start": 354.1295,
      "duration": 0.4161,
      "velocity": 89,
      "chip": "ym2612"
    },
    {
      "channel": 0,
      "note": 57,
      "start": 354.2526,
      "duration": 0.8636,
      "velocity": 89,
      "chip": "ym2612"
    },
    {
      "channel": 3,
      "note": 57,
      "start": 354.2684,
      "duration": 0.879,
      "velocity": 89,
      "chip": "ym2612"
    },
    {
      "channel": 2,
      "note": 57,
      "start": 354.6073,
      "duration": 0.8796,
      "velocity": 89,
      "chip": "ym2612"
    },
    {
      "channel": 5,
      "note": 52,
      "start": 354.7158,
      "duration": 0.4164,
      "velocity": 97,
      "chip": "ym2612"
    },
    {
      "channel": 0,
      "note": 54,
      "start": 355.1936,
      "duration": 0.1539,
      "velocity": 89,
      "chip": "ym2612"
    },
    {
      "channel": 5,
      "note": 52,
      "start": 355.194,
      "duration": 0.8178,
      "velocity": 97,
      "chip": "ym2612"
    },
    {
      "channel": 1,
      "note": 54,
      "start": 355.2246,
      "duration": 0.4006,
      "velocity": 89,
      "chip": "ym2612"
    },
    {
      "channel": 0,
      "note": 55,
      "start": 355.4251,
      "duration": 0.1539,
      "velocity": 89,
      "chip": "ym2612"
    },
    {
      "channel": 3,
      "note": 55,
      "start": 355.4408,
      "duration": 0.6475,
      "velocity": 89,
      "chip": "ym2612"
    },
    {
      "channel": 2,
      "note": 54,
      "start": 355.5485,
      "duration": 0.1692,
      "velocity": 89,
      "chip": "ym2612"
    },
    {
      "channel": 0,
      "note": 59,
      "start": 355.6563,
      "duration": 0.4009,
      "velocity": 89,
      "chip": "ym2612"
    },
    {
      "channel": 1,
      "note": 59,
      "start": 355.7025,
      "duration": 0.8633,
      "velocity": 89,
      "chip": "ym2612"
    },
    {
      "channel": 2,
      "note": 55,
      "start": 355.78,
      "duration": 0.1697,
      "velocity": 89,
      "chip": "ym2612"
    },
    {
      "channel": 2,
      "note": 59,
      "start": 356.0115,
      "duration": 0.4157,
      "velocity": 89,
      "chip": "ym2612"
    },
    {
      "channel": 0,
      "note": 62,
      "start": 356.1343,
      "duration": 0.3852,
      "velocity": 89,
      "chip": "ym2612"
    },
    {
      "channel": 5,
      "note": 52,
      "start": 356.1348,
      "duration": 0.4008,
      "velocity": 97,
      "chip": "ym2612"
    },
    {
      "channel": 3,
      "note": 62,
      "start": 356.1502,
      "duration": 1.8192,
      "velocity": 89,
      "chip": "ym2612"
    },
    {
      "channel": 2,
      "note": 62,
      "start": 356.4892,
      "duration": 0.4007,
      "velocity": 89,
      "chip": "ym2612"
    },
    {
      "channel": 0,
      "note": 61,
      "start": 356.5969,
      "duration": 1.3415,
      "velocity": 89,
      "chip": "ym2612"
    },
    {
      "channel": 5,
      "note": 52,
      "start": 356.5976,
      "duration": 0.8325,
      "velocity": 97,
      "chip": "ym2612"
    },
    {
      "channel": 1,
      "note": 61,
      "start": 356.643,
      "duration": 1.3261,
      "velocity": 89,
      "chip": "ym2612"
    },
    {
      "channel": 2,
      "note": 61,
      "start": 356.9517,
      "duration": 1.3572,
      "velocity": 89,
      "chip": "ym2612"
    },
    {
      "channel": 5,
      "note": 52,
      "start": 357.538,
      "duration": 0.4162,
      "velocity": 97,
      "chip": "ym2612"
    },
    {
      "channel": 0,
      "note": 54,
      "start": 358.0157,
      "duration": 0.1543,
      "velocity": 89,
      "chip": "ym2612"
    },
    {
      "channel": 5,
      "note": 52,
      "start": 358.0159,
      "duration": 0.8184,
      "velocity": 97,
      "chip": "ym2612"
    },
    {
      "channel": 1,
      "note": 54,
      "start": 358.0466,
      "duration": 0.4013,
      "velocity": 89,
      "chip": "ym2612"
    },
    {
      "channel": 0,
      "note": 55,
      "start": 358.2477,
      "duration": 0.1537,
      "velocity": 89,
      "chip": "ym2612"
    },
    {
      "channel": 3,
      "note": 55,
      "start": 358.2634,
      "duration": 0.6475,
      "velocity": 89,
      "chip": "ym2612"
    },
    {
      "channel": 2,
      "note": 54,
      "start": 358.371,
      "duration": 0.1695,
      "velocity": 89,
      "chip": "ym2612"
    },
    {
      "channel": 0,
      "note": 59,
      "start": 358.4788,
      "duration": 0.401,
      "velocity": 89,
      "chip": "ym2612"
    },
    {
      "channel": 1,
      "note": 59,
      "start": 358.5252,
      "duration": 0.8636,
      "velocity": 89,
      "chip": "ym2612"
    },
    {
      "channel": 2,
      "note": 55,
      "start": 358.6027,
      "duration": 0.1695,
      "velocity": 89,
      "chip": "ym2612"
    },
    {
      "channel": 2,
      "note": 59,
      "start": 358.834,
      "duration": 0.416,
      "velocity": 89,
      "chip": "ym2612"
    },
    {
      "channel": 0,
      "note": 64,
      "start": 358.9573,
      "duration": 0.385,
      "velocity": 89,
      "chip": "ym2612"
    },
    {
      "channel": 5,
      "note": 52,
      "start": 358.9578,
      "duration": 0.4162,
      "velocity": 97,
      "chip": "ym2612"
    },
    {
      "channel": 3,
      "note": 64,
      "start": 358.9732,
      "duration": 0.8783,
      "velocity": 89,
      "chip": "ym2612"
    },
    {
      "channel": 2,
      "note": 64,
      "start": 359.312,
      "duration": 0.4008,
      "velocity": 89,
      "chip": "ym2612"
    },
    {
      "channel": 0,
      "note": 61,
      "start": 359.4197,
      "duration": 0.4007,
      "velocity": 89,
      "chip": "ym2612"
    },
    {
      "channel": 5,
      "note": 52,
      "start": 359.4204,
      "duration": 0.8325,
      "velocity": 97,
      "chip": "ym2612"
    },
    {
      "channel": 1,
      "note": 61,
      "start": 359.4661,
      "duration": 1.3261,
      "velocity": 89,
      "chip": "ym2612"
    },
    {
      "channel": 2,
      "note": 61,
      "start": 359.7746,
      "duration": 0.4161,
      "velocity": 89,
      "chip": "ym2612"
    },
    {
      "channel": 0,
      "note": 66,
      "start": 359.8978,
      "duration": 0.8635,
      "velocity": 89,
      "chip": "ym2612"
    },
    {
      "channel": 3,
      "note": 66,
      "start": 359.9137,
      "duration": 0.8787,
      "velocity": 89,
      "chip": "ym2612"
    },
    {
      "channel": 2,
      "note": 66,
      "start": 360.2526,
      "duration": 0.8791,
      "velocity": 89,
      "chip": "ym2612"
    },
    {
      "channel": 5,
      "note": 52,
      "start": 360.3607,
      "duration": 0.4166,
      "velocity": 97,
      "chip": "ym2612"
    },
    {
      "channel": 0,
      "note": 54,
      "start": 360.8391,
      "duration": 0.154,
      "velocity": 89,
      "chip": "ym2612"
    },
    {
      "channel": 5,
      "note": 52,
      "start": 360.8395,
      "duration": 0.8176,
      "velocity": 97,
      "chip": "ym2612"
    },
    {
      "channel": 1,
      "note": 54,
      "start": 360.8699,
      "duration": 0.4009,
      "velocity": 89,
      "chip": "ym2612"
    },
    {
      "channel": 0,
      "note": 55,
      "start": 361.0702,
      "duration": 0.1541,
      "velocity": 89,
      "chip": "ym2612"
    },
    {
      "channel": 3,
      "note": 55,
      "start": 361.0861,
      "duration": 0.6476,
      "velocity": 89,
      "chip": "ym2612"
    },
    {
      "channel": 2,
      "note": 54,
      "start": 361.194,
      "duration": 0.1693,
      "velocity": 89,
      "chip": "ym2612"
    },
    {
      "channel": 0,
      "note": 59,
      "start": 361.3018,
      "duration": 0.4009,
      "velocity": 89,
      "chip": "ym2612"
    },
    {
      "channel": 1,
      "note": 59,
      "start": 361.3481,
      "duration": 0.8634,
      "velocity": 89,
      "chip": "ym2612"
    },
    {
      "channel": 2,
      "note": 55,
      "start": 361.4251,
      "duration": 0.1696,
      "velocity": 89,
      "chip": "ym2612"
    },
    {
      "channel": 2,
      "note": 59,
      "start": 361.6567,
      "duration": 0.416,
      "velocity": 89,
      "chip": "ym2612"
    },
    {
      "channel": 0,
      "note": 62,
      "start": 361.7798,
      "duration": 0.3852,
      "velocity": 89,
      "chip": "ym2612"
    },
    {
      "channel": 5,
      "note": 52,
      "start": 361.7802,
      "duration": 0.4161,
      "velocity": 97,
      "chip": "ym2612"
    },
    {
      "channel": 3,
      "note": 62,
      "start": 361.7957,
      "duration": 1.8201,
      "velocity": 89,
      "chip": "ym2612"
    },
    {
      "channel": 2,
      "note": 62,
      "start": 362.1348,
      "duration": 0.4004,
      "velocity": 89,
      "chip": "ym2612"
    },
    {
      "channel": 0,
      "note": 61,
      "start": 362.2425,
      "duration": 1.342,
      "velocity": 89,
      "chip": "ym2612"
    },
    {
      "channel": 5,
      "note": 52,
      "start": 362.2432,
      "duration": 0.8322,
      "velocity": 97,
      "chip": "ym2612"
    },
    {
      "channel": 1,
      "note": 61,
      "start": 362.2886,
      "duration": 1.3268,
      "velocity": 89,
      "chip": "ym2612"
    },
    {
      "channel": 2,
      "note": 61,
      "start": 362.5971,
      "duration": 1.3576,
      "velocity": 89,
      "chip": "ym2612"
    },
    {
      "channel": 5,
      "note": 52,
      "start": 363.184,
      "duration": 0.4167,
      "velocity": 97,
      "chip": "ym2612"
    },
    {
      "channel": 0,
      "note": 54,
      "start": 363.6617,
      "duration": 0.1539,
      "velocity": 89,
      "chip": "ym2612"
    },
    {
      "channel": 5,
      "note": 52,
      "start": 363.662,
      "duration": 0.8176,
      "velocity": 97,
      "chip": "ym2612"
    },
    {
      "channel": 1,
      "note": 54,
      "start": 363.6931,
      "duration": 0.4001,
      "velocity": 89,
      "chip": "ym2612"
    },
    {
      "channel": 0,
      "note": 55,
      "start": 363.8931,
      "duration": 0.154,
      "velocity": 89,
      "chip": "ym2612"
    },
    {
      "channel": 3,
      "note": 55,
      "start": 363.9088,
      "duration": 0.6474,
      "velocity": 89,
      "chip": "ym2612"
    },
    {
      "channel": 2,
      "note": 54,
      "start": 364.0166,
      "duration": 0.1691,
      "velocity": 89,
      "chip": "ym2612"
    },
    {
      "channel": 0,
      "note": 59,
      "start": 364.1243,
      "duration": 0.4006,
      "velocity": 89,
      "chip": "ym2612"
    },
    {
      "channel": 1,
      "note": 59,
      "start": 364.1703,
      "duration": 0.8636,
      "velocity": 89,
      "chip": "ym2612"
    },
    {
      "channel": 2,
      "note": 55,
      "start": 364.2475,
      "duration": 0.1695,
      "velocity": 89,
      "chip": "ym2612"
    },
    {
      "channel": 2,
      "note": 59,
      "start": 364.4792,
      "duration": 0.4161,
      "velocity": 89,
      "chip": "ym2612"
    },
    {
      "channel": 0,
      "note": 62,
      "start": 364.6021,
      "duration": 0.3856,
      "velocity": 89,
      "chip": "ym2612"
    },
    {
      "channel": 5,
      "note": 52,
      "start": 364.6025,
      "duration": 0.4163,
      "velocity": 97,
      "chip": "ym2612"
    },
    {
      "channel": 3,
      "note": 62,
      "start": 364.618,
      "duration": 0.8791,
      "velocity": 89,
      "chip": "ym2612"
    },
    {
      "channel": 2,
      "note": 62,
      "start": 364.9573,
      "duration": 0.4005,
      "velocity": 89,
      "chip": "ym2612"
    },
    {
      "channel": 0,
      "note": 61,
      "start": 365.0652,
      "duration": 0.4006,
      "velocity": 89,
      "chip": "ym2612"
    },
    {
      "channel": 5,
      "note": 52,
      "start": 365.0659,
      "duration": 0.8329,
      "velocity": 97,
      "chip": "ym2612"
    },
    {
      "channel": 1,
      "note": 61,
      "start": 365.1113,
      "duration": 1.3267,
      "velocity": 89,
      "chip": "ym2612"
    },
    {
      "channel": 2,
      "note": 61,
      "start": 365.4202,
      "duration": 0.4165,
      "velocity": 89,
      "chip": "ym2612"
    },
    {
      "channel": 0,
      "note": 57,
      "start": 365.543,
      "duration": 0.8638,
      "velocity": 89,
      "chip": "ym2612"
    },
    {
      "channel": 3,
      "note": 57,
      "start": 365.5589,
      "duration": 0.8792,
      "velocity": 89,
      "chip": "ym2612"
    },
    {
      "channel": 2,
      "note": 57,
      "start": 365.8986,
      "duration": 0.8787,
      "velocity": 89,
      "chip": "ym2612"
    },
    {
      "channel": 5,
      "note": 52,
      "start": 366.0065,
      "duration": 0.4163,
      "velocity": 97,
      "chip": "ym2612"
    },
    {
      "channel": 0,
      "note": 54,
      "start": 366.4841,
      "duration": 0.1545,
      "velocity": 89,
      "chip": "ym2612"
    },
    {
      "channel": 5,
      "note": 52,
      "start": 366.4846,
      "duration": 0.8178,
      "velocity": 97,
      "chip": "ym2612"
    },
    {
      "channel": 1,
      "note": 54,
      "start": 366.5153,
      "duration": 0.4007,
      "velocity": 89,
      "chip": "ym2612"
    },
    {
      "channel": 0,
      "note": 55,
      "start": 366.7158,
      "duration": 0.154,
      "velocity": 89,
      "chip": "ym2612"
    },
    {
      "channel": 3,
      "note": 55,
      "start": 366.7312,
      "duration": 0.6476,
      "velocity": 89,
      "chip": "ym2612"
    },
    {
      "channel": 2,
      "note": 54,
      "start": 366.8392,
      "duration": 0.1694,
      "velocity": 89,
      "chip": "ym2612"
    },
    {
      "channel": 0,
      "note": 59,
      "start": 366.9472,
      "duration": 0.4002,
      "velocity": 89,
      "chip": "ym2612"
    },
    {
      "channel": 1,
      "note": 59,
      "start": 366.9933,
      "duration": 0.8628,
      "velocity": 89,
      "chip": "ym2612"
    },
    {
      "channel": 2,
      "note": 55,
      "start": 367.0707,
      "duration": 0.1843,
      "velocity": 89,
      "chip": "ym2612"
    },
    {
      "channel": 2,
      "note": 59,
      "start": 367.302,
      "duration": 0.4158,
      "velocity": 89,
      "chip": "ym2612"
    },
    {
      "channel": 0,
      "note": 62,
      "start": 367.4248,
      "duration": 0.3853,
      "velocity": 89,
      "chip": "ym2612"
    },
    {
      "channel": 5,
      "note": 52,
      "start": 367.4252,
      "duration": 0.4161,
      "velocity": 97,
      "chip": "ym2612"
    },
    {
      "channel": 3,
      "note": 62,
      "start": 367.4407,
      "duration": 1.8197,
      "velocity": 89,
      "chip": "ym2612"
    },
    {
      "channel": 2,
      "note": 62,
      "start": 367.7796,
      "duration": 0.4158,
      "velocity": 89,
      "chip": "ym2612"
    },
    {
      "channel": 0,
      "note": 61,
      "start": 367.8874,
      "duration": 1.3417,
      "velocity": 89,
      "chip": "ym2612"
    },
    {
      "channel": 5,
      "note": 52,
      "start": 367.8881,
      "duration": 0.8323,
      "velocity": 97,
      "chip": "ym2612"
    },
    {
      "channel": 1,
      "note": 61,
      "start": 367.9336,
      "duration": 1.3266,
      "velocity": 89,
      "chip": "ym2612"
    },
    {
      "channel": 2,
      "note": 61,
      "start": 368.2424,
      "duration": 1.3573,
      "velocity": 89,
      "chip": "ym2612"
    },
    {
      "channel": 5,
      "note": 52,
      "start": 368.8444,
      "duration": 0.401,
      "velocity": 97,
      "chip": "ym2612"
    },
    {
      "channel": 0,
      "note": 54,
      "start": 369.3069,
      "duration": 0.1542,
      "velocity": 89,
      "chip": "ym2612"
    },
    {
      "channel": 5,
      "note": 52,
      "start": 369.3073,
      "duration": 0.8172,
      "velocity": 97,
      "chip": "ym2612"
    },
    {
      "channel": 1,
      "note": 54,
      "start": 369.3533,
      "duration": 0.3852,
      "velocity": 89,
      "chip": "ym2612"
    },
    {
      "channel": 0,
      "note": 55,
      "start": 369.5383,
      "duration": 0.154,
      "velocity": 89,
      "chip": "ym2612"
    },
    {
      "channel": 3,
      "note": 55,
      "start": 369.5691,
      "duration": 0.6317,
      "velocity": 89,
      "chip": "ym2612"
    },
    {
      "channel": 2,
      "note": 54,
      "start": 369.6616,
      "duration": 0.1692,
      "velocity": 89,
      "chip": "ym2612"
    },
    {
      "channel": 0,
      "note": 59,
      "start": 369.7848,
      "duration": 0.3851,
      "velocity": 89,
      "chip": "ym2612"
    },
    {
      "channel": 1,
      "note": 59,
      "start": 369.8159,
      "duration": 0.8633,
      "velocity": 89,
      "chip": "ym2612"
    },
    {
      "channel": 2,
      "note": 55,
      "start": 369.893,
      "duration": 0.1846,
      "velocity": 89,
      "chip": "ym2612"
    },
    {
      "channel": 2,
      "note": 59,
      "start": 370.1242,
      "duration": 0.416,
      "velocity": 89,
      "chip": "ym2612"
    },
    {
      "channel": 0,
      "note": 64,
      "start": 370.2473,
      "duration": 0.3851,
      "velocity": 89,
      "chip": "ym2612"
    },
    {
      "channel": 5,
      "note": 52,
      "start": 370.2476,
      "duration": 0.4166,
      "velocity": 97,
      "chip": "ym2612"
    },
    {
      "channel": 3,
      "note": 64,
      "start": 370.2627,
      "duration": 0.8948,
      "velocity": 89,
      "chip": "ym2612"
    },
    {
      "channel": 2,
      "note": 64,
      "start": 370.6022,
      "duration": 0.4159,
      "velocity": 89,
      "chip": "ym2612"
    },
    {
      "channel": 0,
      "note": 61,
      "start": 370.7253,
      "duration": 0.3854,
      "velocity": 89,
      "chip": "ym2612"
    },
    {
      "channel": 5,
      "note": 52,
      "start": 370.7258,
      "duration": 0.8178,
      "velocity": 97,
      "chip": "ym2612"
    },
    {
      "channel": 1,
      "note": 61,
      "start": 370.7565,
      "duration": 1.3415,
      "velocity": 89,
      "chip": "ym2612"
    },
    {
      "channel": 2,
      "note": 61,
      "start": 371.0647,
      "duration": 0.4162,
      "velocity": 89,
      "chip": "ym2612"
    },
    {
      "channel": 0,
      "note": 66,
      "start": 371.1885,
      "duration": 0.8632,
      "velocity": 89,
      "chip": "ym2612"
    },
    {
      "channel": 3,
      "note": 66,
      "start": 371.204,
      "duration": 0.8943,
      "velocity": 89,
      "chip": "ym2612"
    },
    {
      "channel": 2,
      "note": 66,
      "start": 371.5433,
      "duration": 0.8785,
      "velocity": 89,
      "chip": "ym2612"
    },
    {
      "channel": 5,
      "note": 52,
      "start": 371.6664,
      "duration": 0.4009,
      "velocity": 97,
      "chip": "ym2612"
    },
    {
      "channel": 0,
      "note": 54,
      "start": 372.1291,
      "duration": 0.1538,
      "velocity": 89,
      "chip": "ym2612"
    },
    {
      "channel": 5,
      "note": 52,
      "start": 372.1297,
      "duration": 0.8167,
      "velocity": 97,
      "chip": "ym2612"
    },
    {
      "channel": 1,
      "note": 54,
      "start": 372.175,
      "duration": 0.3857,
      "velocity": 89,
      "chip": "ym2612"
    },
    {
      "channel": 0,
      "note": 55,
      "start": 372.3604,
      "duration": 0.1536,
      "velocity": 89,
      "chip": "ym2612"
    },
    {
      "channel": 3,
      "note": 55,
      "start": 372.3916,
      "duration": 0.6473,
      "velocity": 89,
      "chip": "ym2612"
    },
    {
      "channel": 2,
      "note": 54,
      "start": 372.4839,
      "duration": 0.1693,
      "velocity": 89,
      "chip": "ym2612"
    },
    {
      "channel": 0,
      "note": 59,
      "start": 372.6069,
      "duration": 0.3855,
      "velocity": 89,
      "chip": "ym2612"
    },
    {
      "channel": 1,
      "note": 59,
      "start": 372.6382,
      "duration": 0.8636,
      "velocity": 89,
      "chip": "ym2612"
    },
    {
      "channel": 2,
      "note": 55,
      "start": 372.7154,
      "duration": 0.1849,
      "velocity": 89,
      "chip": "ym2612"
    },
    {
      "channel": 2,
      "note": 59,
      "start": 372.9462,
      "duration": 0.4163,
      "velocity": 89,
      "chip": "ym2612"
    },
    {
      "channel": 0,
      "note": 62,
      "start": 373.07,
      "duration": 0.4004,
      "velocity": 89,
      "chip": "ym2612"
    },
    {
      "channel": 5,
      "note": 52,
      "start": 373.0703,
      "duration": 0.4163,
      "velocity": 97,
      "chip": "ym2612"
    },
    {
      "channel": 3,
      "note": 62,
      "start": 373.0856,
      "duration": 1.8349,
      "velocity": 89,
      "chip": "ym2612"
    },
    {
      "channel": 2,
      "note": 62,
      "start": 373.425,
      "duration": 0.4158,
      "velocity": 89,
      "chip": "ym2612"
    },
    {
      "channel": 0,
      "note": 61,
      "start": 373.5476,
      "duration": 1.3265,
      "velocity": 89,
      "chip": "ym2612"
    },
    {
      "channel": 5,
      "note": 52,
      "start": 373.5481,
      "duration": 0.8178,
      "velocity": 97,
      "chip": "ym2612"
    },
    {
      "channel": 1,
      "note": 61,
      "start": 373.5786,
      "duration": 1.3417,
      "velocity": 89,
      "chip": "ym2612"
    },
    {
      "channel": 2,
      "note": 61,
      "start": 373.8869,
      "duration": 1.3572,
      "velocity": 89,
      "chip": "ym2612"
    },
    {
      "channel": 5,
      "note": 52,
      "start": 374.4887,
      "duration": 0.4013,
      "velocity": 97,
      "chip": "ym2612"
    },
    {
      "channel": 0,
      "note": 54,
      "start": 374.9515,
      "duration": 0.1539,
      "velocity": 89,
      "chip": "ym2612"
    },
    {
      "channel": 5,
      "note": 52,
      "start": 374.9519,
      "duration": 0.8325,
      "velocity": 97,
      "chip": "ym2612"
    },
    {
      "channel": 1,
      "note": 54,
      "start": 374.9978,
      "duration": 0.3854,
      "velocity": 89,
      "chip": "ym2612"
    },
    {
      "channel": 0,
      "note": 55,
      "start": 375.1825,
      "duration": 0.1694,
      "velocity": 89,
      "chip": "ym2612"
    },
    {
      "channel": 3,
      "note": 55,
      "start": 375.214,
      "duration": 0.647,
      "velocity": 89,
      "chip": "ym2612"
    },
    {
      "channel": 2,
      "note": 54,
      "start": 375.3065,
      "duration": 0.1692,
      "velocity": 89,
      "chip": "ym2612"
    },
    {
      "channel": 0,
      "note": 59,
      "start": 375.4294,
      "duration": 0.385,
      "velocity": 89,
      "chip": "ym2612"
    },
    {
      "channel": 1,
      "note": 59,
      "start": 375.4606,
      "duration": 0.8626,
      "velocity": 89,
      "chip": "ym2612"
    },
    {
      "channel": 2,
      "note": 55,
      "start": 375.5373,
      "duration": 0.1849,
      "velocity": 89,
      "chip": "ym2612"
    },
    {
      "channel": 2,
      "note": 59,
      "start": 375.784,
      "duration": 0.4,
      "velocity": 89,
      "chip": "ym2612"
    },
    {
      "channel": 0,
      "note": 62,
      "start": 375.8919,
      "duration": 0.4,
      "velocity": 89,
      "chip": "ym2612"
    },
    {
      "channel": 5,
      "note": 52,
      "start": 375.8922,
      "duration": 0.4158,
      "velocity": 97,
      "chip": "ym2612"
    },
    {
      "channel": 3,
      "note": 62,
      "start": 375.9074,
      "duration": 0.8939,
      "velocity": 89,
      "chip": "ym2612"
    },
    {
      "channel": 2,
      "note": 62,
      "start": 376.2465,
      "duration": 0.4158,
      "velocity": 89,
      "chip": "ym2612"
    },
    {
      "channel": 0,
      "note": 61,
      "start": 376.3692,
      "duration": 0.3855,
      "velocity": 89,
      "chip": "ym2612"
    },
    {
      "channel": 5,
      "note": 52,
      "start": 376.3697,
      "duration": 0.8176,
      "velocity": 97,
      "chip": "ym2612"
    },
    {
      "channel": 1,
      "note": 61,
      "start": 376.4002,
      "duration": 1.342,
      "velocity": 89,
      "chip": "ym2612"
    },
    {
      "channel": 2,
      "note": 61,
      "start": 376.7244,
      "duration": 0.4005,
      "velocity": 89,
      "chip": "ym2612"
    },
    {
      "channel": 0,
      "note": 57,
      "start": 376.8322,
      "duration": 0.8636,
      "velocity": 89,
      "chip": "ym2612"
    },
    {
      "channel": 3,
      "note": 57,
      "start": 376.848,
      "duration": 0.8945,
      "velocity": 89,
      "chip": "ym2612"
    },
    {
      "channel": 2,
      "note": 57,
      "start": 377.1871,
      "duration": 0.8788,
      "velocity": 89,
      "chip": "ym2612"
    },
    {
      "channel": 5,
      "note": 52,
      "start": 377.3107,
      "duration": 0.4009,
      "velocity": 97,
      "chip": "ym2612"
    },
    {
      "channel": 0,
      "note": 54,
      "start": 377.7727,
      "duration": 0.1538,
      "velocity": 89,
      "chip": "ym2612"
    },
    {
      "channel": 5,
      "note": 52,
      "start": 377.7733,
      "duration": 0.8328,
      "velocity": 97,
      "chip": "ym2612"
    },
    {
      "channel": 1,
      "note": 54,
      "start": 377.8193,
      "duration": 0.3851,
      "velocity": 89,
      "chip": "ym2612"
    },
    {
      "channel": 0,
      "note": 55,
      "start": 378.0039,
      "duration": 0.1699,
      "velocity": 89,
      "chip": "ym2612"
    },
    {
      "channel": 3,
      "note": 55,
      "start": 378.0353,
      "duration": 0.6473,
      "velocity": 89,
      "chip": "ym2612"
    },
    {
      "channel": 2,
      "note": 54,
      "start": 378.128,
      "duration": 0.169,
      "velocity": 89,
      "chip": "ym2612"
    },
    {
      "channel": 0,
      "note": 59,
      "start": 378.2511,
      "duration": 0.3846,
      "velocity": 89,
      "chip": "ym2612"
    },
    {
      "channel": 1,
      "note": 59,
      "start": 378.2816,
      "duration": 0.8632,
      "velocity": 89,
      "chip": "ym2612"
    },
    {
      "channel": 2,
      "note": 55,
      "start": 378.3588,
      "duration": 0.1849,
      "velocity": 89,
      "chip": "ym2612"
    },
    {
      "channel": 2,
      "note": 59,
      "start": 378.6057,
      "duration": 0.4003,
      "velocity": 89,
      "chip": "ym2612"
    },
    {
      "channel": 0,
      "note": 62,
      "start": 378.7131,
      "duration": 0.401,
      "velocity": 89,
      "chip": "ym2612"
    },
    {
      "channel": 5,
      "note": 52,
      "start": 378.7134,
      "duration": 0.4163,
      "velocity": 97,
      "chip": "ym2612"
    },
    {
      "channel": 3,
      "note": 62,
      "start": 378.7289,
      "duration": 1.8362,
      "velocity": 89,
      "chip": "ym2612"
    },
    {
      "channel": 2,
      "note": 62,
      "start": 379.068,
      "duration": 0.4159,
      "velocity": 89,
      "chip": "ym2612"
    },
    {
      "channel": 0,
      "note": 61,
      "start": 379.1914,
      "duration": 1.3265,
      "velocity": 89,
      "chip": "ym2612"
    },
    {
      "channel": 5,
      "note": 52,
      "start": 379.192,
      "duration": 0.8176,
      "velocity": 97,
      "chip": "ym2612"
    },
    {
      "channel": 1,
      "note": 61,
      "start": 379.2219,
      "duration": 1.3428,
      "velocity": 89,
      "chip": "ym2612"
    },
    {
      "channel": 2,
      "note": 61,
      "start": 379.5463,
      "duration": 1.342,
      "velocity": 89,
      "chip": "ym2612"
    },
    {
      "channel": 5,
      "note": 52,
      "start": 380.1332,
      "duration": 0.401,
      "velocity": 97,
      "chip": "ym2612"
    },
    {
      "channel": 0,
      "note": 54,
      "start": 380.5952,
      "duration": 0.1541,
      "velocity": 89,
      "chip": "ym2612"
    },
    {
      "channel": 5,
      "note": 52,
      "start": 380.5958,
      "duration": 0.8332,
      "velocity": 97,
      "chip": "ym2612"
    },
    {
      "channel": 1,
      "note": 54,
      "start": 380.6419,
      "duration": 0.3849,
      "velocity": 89,
      "chip": "ym2612"
    },
    {
      "channel": 0,
      "note": 55,
      "start": 380.8268,
      "duration": 0.1695,
      "velocity": 89,
      "chip": "ym2612"
    },
    {
      "channel": 3,
      "note": 55,
      "start": 380.8576,
      "duration": 0.6481,
      "velocity": 89,
      "chip": "ym2612"
    },
    {
      "channel": 2,
      "note": 54,
      "start": 380.9501,
      "duration": 0.185,
      "velocity": 89,
      "chip": "ym2612"
    },
    {
      "channel": 0,
      "note": 59,
      "start": 381.0736,
      "duration": 0.3849,
      "velocity": 89,
      "chip": "ym2612"
    },
    {
      "channel": 1,
      "note": 59,
      "start": 381.1042,
      "duration": 0.8635,
      "velocity": 89,
      "chip": "ym2612"
    },
    {
      "channel": 2,
      "note": 55,
      "start": 381.1817,
      "duration": 0.1846,
      "velocity": 89,
      "chip": "ym2612"
    },
    {
      "channel": 2,
      "note": 59,
      "start": 381.4285,
      "duration": 0.4007,
      "velocity": 89,
      "chip": "ym2612"
    },
    {
      "channel": 0,
      "note": 64,
      "start": 381.536,
      "duration": 0.4013,
      "velocity": 89,
      "chip": "ym2612"
    },
    {
      "channel": 5,
      "note": 52,
      "start": 381.5364,
      "duration": 0.4163,
      "velocity": 97,
      "chip": "ym2612"
    },
    {
      "channel": 3,
      "note": 64,
      "start": 381.5673,
      "duration": 0.8794,
      "velocity": 89,
      "chip": "ym2612"
    },
    {
      "channel": 2,
      "note": 64,
      "start": 381.8911,
      "duration": 0.4166,
      "velocity": 89,
      "chip": "ym2612"
    },
    {
      "channel": 0,
      "note": 61,
      "start": 382.0145,
      "duration": 0.3853,
      "velocity": 89,
      "chip": "ym2612"
    },
    {
      "channel": 5,
      "note": 52,
      "start": 382.015,
      "duration": 0.8176,
      "velocity": 97,
      "chip": "ym2612"
    },
    {
      "channel": 1,
      "note": 61,
      "start": 382.0453,
      "duration": 1.3425,
      "velocity": 89,
      "chip": "ym2612"
    },
    {
      "channel": 2,
      "note": 61,
      "start": 382.37,
      "duration": 0.4003,
      "velocity": 89,
      "chip": "ym2612"
    },
    {
      "channel": 0,
      "note": 66,
      "start": 382.4772,
      "duration": 0.8638,
      "velocity": 89,
      "chip": "ym2612"
    },
    {
      "channel": 3,
      "note": 66,
      "start": 382.5085,
      "duration": 0.8795,
      "velocity": 89,
      "chip": "ym2612"
    },
    {
      "channel": 2,
      "note": 66,
      "start": 382.8323,
      "duration": 0.8788,
      "velocity": 89,
      "chip": "ym2612"
    },
    {
      "channel": 5,
      "note": 52,
      "start": 382.956,
      "duration": 0.4009,
      "velocity": 97,
      "chip": "ym2612"
    },
    {
      "channel": 0,
      "note": 54,
      "start": 383.4186,
      "duration": 0.1539,
      "velocity": 89,
      "chip": "ym2612"
    },
    {
      "channel": 5,
      "note": 52,
      "start": 383.4192,
      "duration": 0.8326,
      "velocity": 97,
      "chip": "ym2612"
    },
    {
      "channel": 1,
      "note": 54,
      "start": 383.4651,
      "duration": 0.3844,
      "velocity": 89,
      "chip": "ym2612"
    },
    {
      "channel": 0,
      "note": 55,
      "start": 383.6651,
      "duration": 0.1538,
      "velocity": 89,
      "chip": "ym2612"
    },
    {
      "channel": 3,
      "note": 55,
      "start": 383.6807,
      "duration": 0.6479,
      "velocity": 89,
      "chip": "ym2612"
    },
    {
      "channel": 2,
      "note": 54,
      "start": 383.7729,
      "duration": 0.1846,
      "velocity": 89,
      "chip": "ym2612"
    },
    {
      "channel": 0,
      "note": 59,
      "start": 383.8963,
      "duration": 0.3852,
      "velocity": 89,
      "chip": "ym2612"
    },
    {
      "channel": 1,
      "note": 59,
      "start": 383.9273,
      "duration": 0.8633,
      "velocity": 89,
      "chip": "ym2612"
    },
    {
      "channel": 2,
      "note": 55,
      "start": 384.0046,
      "duration": 0.1846,
      "velocity": 89,
      "chip": "ym2612"
    },
    {
      "channel": 2,
      "note": 59,
      "start": 384.2515,
      "duration": 0.4,
      "velocity": 89,
      "chip": "ym2612"
    },
    {
      "channel": 0,
      "note": 62,
      "start": 384.3591,
      "duration": 0.4006,
      "velocity": 89,
      "chip": "ym2612"
    },
    {
      "channel": 5,
      "note": 52,
      "start": 384.3595,
      "duration": 0.416,
      "velocity": 97,
      "chip": "ym2612"
    },
    {
      "channel": 3,
      "note": 62,
      "start": 384.3899,
      "duration": 1.8201,
      "velocity": 89,
      "chip": "ym2612"
    },
    {
      "channel": 2,
      "note": 62,
      "start": 384.7137,
      "duration": 0.4161,
      "velocity": 89,
      "chip": "ym2612"
    },
    {
      "channel": 0,
      "note": 61,
      "start": 384.837,
      "duration": 1.3267,
      "velocity": 89,
      "chip": "ym2612"
    },
    {
      "channel": 5,
      "note": 52,
      "start": 384.8374,
      "duration": 0.8176,
      "velocity": 97,
      "chip": "ym2612"
    },
    {
      "channel": 1,
      "note": 61,
      "start": 384.868,
      "duration": 1.3419,
      "velocity": 89,
      "chip": "ym2612"
    },
    {
      "channel": 2,
      "note": 61,
      "start": 385.1921,
      "duration": 1.3419,
      "velocity": 89,
      "chip": "ym2612"
    },
    {
      "channel": 5,
      "note": 52,
      "start": 385.7787,
      "duration": 0.4161,
      "velocity": 97,
      "chip": "ym2612"
    },
    {
      "channel": 0,
      "note": 54,
      "start": 386.2411,
      "duration": 0.1694,
      "velocity": 89,
      "chip": "ym2612"
    },
    {
      "channel": 5,
      "note": 52,
      "start": 386.2417,
      "duration": 0.8322,
      "velocity": 97,
      "chip": "ym2612"
    },
    {
      "channel": 1,
      "note": 54,
      "start": 386.2872,
      "duration": 0.3853,
      "velocity": 89,
      "chip": "ym2612"
    },
    {
      "channel": 0,
      "note": 55,
      "start": 386.4879,
      "duration": 0.1537,
      "velocity": 89,
      "chip": "ym2612"
    },
    {
      "channel": 3,
      "note": 55,
      "start": 386.5035,
      "duration": 0.6469,
      "velocity": 89,
      "chip": "ym2612"
    },
    {
      "channel": 2,
      "note": 54,
      "start": 386.5961,
      "duration": 0.1841,
      "velocity": 89,
      "chip": "ym2612"
    },
    {
      "channel": 0,
      "note": 59,
      "start": 386.7186,
      "duration": 0.3853,
      "velocity": 89,
      "chip": "ym2612"
    },
    {
      "channel": 1,
      "note": 59,
      "start": 386.7499,
      "duration": 0.8633,
      "velocity": 89,
      "chip": "ym2612"
    },
    {
      "channel": 2,
      "note": 55,
      "start": 386.8271,
      "duration": 0.1849,
      "velocity": 89,
      "chip": "ym2612"
    },
    {
      "channel": 2,
      "note": 59,
      "start": 387.0737,
      "duration": 0.4003,
      "velocity": 89,
      "chip": "ym2612"
    },
    {
      "channel": 0,
      "note": 62,
      "start": 387.1814,
      "duration": 0.4005,
      "velocity": 89,
      "chip": "ym2612"
    },
    {
      "channel": 5,
      "note": 52,
      "start": 387.1818,
      "duration": 0.4162,
      "velocity": 97,
      "chip": "ym2612"
    },
    {
      "channel": 3,
      "note": 62,
      "start": 387.2124,
      "duration": 0.8789,
      "velocity": 89,
      "chip": "ym2612"
    },
    {
      "channel": 2,
      "note": 62,
      "start": 387.5365,
      "duration": 0.4159,
      "velocity": 89,
      "chip": "ym2612"
    },
    {
      "channel": 0,
      "note": 61,
      "start": 387.6593,
      "duration": 0.3858,
      "velocity": 89,
      "chip": "ym2612"
    },
    {
      "channel": 5,
      "note": 52,
      "start": 387.6598,
      "duration": 0.8182,
      "velocity": 97,
      "chip": "ym2612"
    },
    {
      "channel": 1,
      "note": 61,
      "start": 387.6904,
      "duration": 1.3416,
      "velocity": 89,
      "chip": "ym2612"
    },
    {
      "channel": 2,
      "note": 61,
      "start": 388.0146,
      "duration": 0.4007,
      "velocity": 89,
      "chip": "ym2612"
    },
    {
      "channel": 0,
      "note": 57,
      "start": 388.1224,
      "duration": 0.8634,
      "velocity": 89,
      "chip": "ym2612"
    },
    {
      "channel": 3,
      "note": 57,
      "start": 388.1534,
      "duration": 0.8788,
      "velocity": 89,
      "chip": "ym2612"
    },
    {
      "channel": 2,
      "note": 57,
      "start": 388.4777,
      "duration": 0.8784,
      "velocity": 89,
      "chip": "ym2612"
    },
    {
      "channel": 5,
      "note": 52,
      "start": 388.6004,
      "duration": 0.4166,
      "velocity": 97,
      "chip": "ym2612"
    },
    {
      "channel": 0,
      "note": 54,
      "start": 389.0632,
      "duration": 0.1695,
      "velocity": 89,
      "chip": "ym2612"
    },
    {
      "channel": 5,
      "note": 52,
      "start": 389.0639,
      "duration": 0.832,
      "velocity": 97,
      "chip": "ym2612"
    },
    {
      "channel": 1,
      "note": 54,
      "start": 389.1093,
      "duration": 0.3852,
      "velocity": 89,
      "chip": "ym2612"
    },
    {
      "channel": 0,
      "note": 55,
      "start": 389.3097,
      "duration": 0.1538,
      "velocity": 89,
      "chip": "ym2612"
    },
    {
      "channel": 3,
      "note": 55,
      "start": 389.3254,
      "duration": 0.6469,
      "velocity": 89,
      "chip": "ym2612"
    },
    {
      "channel": 2,
      "note": 54,
      "start": 389.4179,
      "duration": 0.1847,
      "velocity": 89,
      "chip": "ym2612"
    },
    {
      "channel": 0,
      "note": 59,
      "start": 389.5408,
      "duration": 0.3851,
      "velocity": 89,
      "chip": "ym2612"
    },
    {
      "channel": 1,
      "note": 59,
      "start": 389.5717,
      "duration": 0.8631,
      "velocity": 89,
      "chip": "ym2612"
    },
    {
      "channel": 2,
      "note": 55,
      "start": 389.6647,
      "duration": 0.1691,
      "velocity": 89,
      "chip": "ym2612"
    },
    {
      "channel": 2,
      "note": 59,
      "start": 389.8955,
      "duration": 0.4006,
      "velocity": 89,
      "chip": "ym2612"
    },
    {
      "channel": 0,
      "note": 62,
      "start": 390.0032,
      "duration": 0.4005,
      "velocity": 89,
      "chip": "ym2612"
    },
    {
      "channel": 5,
      "note": 52,
      "start": 390.0035,
      "duration": 0.4161,
      "velocity": 97,
      "chip": "ym2612"
    },
    {
      "channel": 3,
      "note": 62,
      "start": 390.0344,
      "duration": 1.8196,
      "velocity": 89,
      "chip": "ym2612"
    },
    {
      "channel": 2,
      "note": 62,
      "start": 390.3582,
      "duration": 0.4161,
      "velocity": 89,
      "chip": "ym2612"
    },
    {
      "channel": 0,
      "note": 61,
      "start": 390.481,
      "duration": 1.3263,
      "velocity": 89,
      "chip": "ym2612"
    },
    {
      "channel": 5,
      "note": 52,
      "start": 390.4815,
      "duration": 0.8176,
      "velocity": 97,
      "chip": "ym2612"
    },
    {
      "channel": 1,
      "note": 61,
      "start": 390.5119,
      "duration": 1.342,
      "velocity": 89,
      "chip": "ym2612"
    },
    {
      "channel": 2,
      "note": 61,
      "start": 390.8361,
      "duration": 1.3569,
      "velocity": 89,
      "chip": "ym2612"
    },
    {
      "channel": 5,
      "note": 52,
      "start": 391.4224,
      "duration": 0.4164,
      "velocity": 97,
      "chip": "ym2612"
    },
    {
      "channel": 0,
      "note": 54,
      "start": 391.8848,
      "duration": 0.1691,
      "velocity": 89,
      "chip": "ym2612"
    },
    {
      "channel": 5,
      "note": 52,
      "start": 391.8854,
      "duration": 0.8322,
      "velocity": 97,
      "chip": "ym2612"
    },
    {
      "channel": 1,
      "note": 54,
      "start": 391.9312,
      "duration": 0.385,
      "velocity": 89,
      "chip": "ym2612"
    },
    {
      "channel": 0,
      "note": 55,
      "start": 392.1313,
      "duration": 0.1541,
      "velocity": 89,
      "chip": "ym2612"
    },
    {
      "channel": 3,
      "note": 55,
      "start": 392.1471,
      "duration": 0.6475,
      "velocity": 89,
      "chip": "ym2612"
    },
    {
      "channel": 2,
      "note": 54,
      "start": 392.2396,
      "duration": 0.1846,
      "velocity": 89,
      "chip": "ym2612"
    },
    {
      "channel": 0,
      "note": 59,
      "start": 392.3629,
      "duration": 0.3847,
      "velocity": 89,
      "chip": "ym2612"
    },
    {
      "channel": 1,
      "note": 59,
      "start": 392.3933,
      "duration": 0.8634,
      "velocity": 89,
      "chip": "ym2612"
    },
    {
      "channel": 2,
      "note": 55,
      "start": 392.4858,
      "duration": 0.1693,
      "velocity": 89,
      "chip": "ym2612"
    },
    {
      "channel": 2,
      "note": 59,
      "start": 392.7173,
      "duration": 0.416,
      "velocity": 89,
      "chip": "ym2612"
    },
    {
      "channel": 0,
      "note": 64,
      "start": 392.8251,
      "duration": 0.4007,
      "velocity": 89,
      "chip": "ym2612"
    },
    {
      "channel": 5,
      "note": 52,
      "start": 392.8254,
      "duration": 0.4162,
      "velocity": 97,
      "chip": "ym2612"
    },
    {
      "channel": 3,
      "note": 64,
      "start": 392.8563,
      "duration": 0.8789,
      "velocity": 89,
      "chip": "ym2612"
    },
    {
      "channel": 2,
      "note": 64,
      "start": 393.18,
      "duration": 0.4161,
      "velocity": 89,
      "chip": "ym2612"
    },
    {
      "channel": 0,
      "note": 61,
      "start": 393.3034,
      "duration": 0.3851,
      "velocity": 89,
      "chip": "ym2612"
    },
    {
      "channel": 5,
      "note": 52,
      "start": 393.3039,
      "duration": 0.8177,
      "velocity": 97,
      "chip": "ym2612"
    },
    {
      "channel": 1,
      "note": 61,
      "start": 393.3496,
      "duration": 1.3267,
      "velocity": 89,
      "chip": "ym2612"
    },
    {
      "channel": 2,
      "note": 61,
      "start": 393.6583,
      "duration": 0.4161,
      "velocity": 89,
      "chip": "ym2612"
    },
    {
      "channel": 0,
      "note": 66,
      "start": 393.766,
      "duration": 0.8639,
      "velocity": 89,
      "chip": "ym2612"
    },
    {
      "channel": 3,
      "note": 66,
      "start": 393.7972,
      "duration": 0.8795,
      "velocity": 89,
      "chip": "ym2612"
    },
    {
      "channel": 2,
      "note": 66,
      "start": 394.1213,
      "duration": 0.8944,
      "velocity": 89,
      "chip": "ym2612"
    },
    {
      "channel": 5,
      "note": 52,
      "start": 394.2451,
      "duration": 0.4164,
      "velocity": 97,
      "chip": "ym2612"
    },
    {
      "channel": 0,
      "note": 54,
      "start": 394.7225,
      "duration": 0.1542,
      "velocity": 89,
      "chip": "ym2612"
    },
    {
      "channel": 5,
      "note": 52,
      "start": 394.723,
      "duration": 0.8178,
      "velocity": 97,
      "chip": "ym2612"
    },
    {
      "channel": 1,
      "note": 54,
      "start": 394.7538,
      "duration": 0.3848,
      "velocity": 89,
      "chip": "ym2612"
    },
    {
      "channel": 0,
      "note": 55,
      "start": 394.9541,
      "duration": 0.154,
      "velocity": 89,
      "chip": "ym2612"
    },
    {
      "channel": 3,
      "note": 55,
      "start": 394.9698,
      "duration": 0.6475,
      "velocity": 89,
      "chip": "ym2612"
    },
    {
      "channel": 2,
      "note": 54,
      "start": 395.0619,
      "duration": 0.185,
      "velocity": 89,
      "chip": "ym2612"
    },
    {
      "channel": 0,
      "note": 59,
      "start": 395.1853,
      "duration": 0.3849,
      "velocity": 89,
      "chip": "ym2612"
    },
    {
      "channel": 1,
      "note": 59,
      "start": 395.2315,
      "duration": 0.8479,
      "velocity": 89,
      "chip": "ym2612"
    },
    {
      "channel": 2,
      "note": 55,
      "start": 395.3087,
      "duration": 0.1698,
      "velocity": 89,
      "chip": "ym2612"
    },
    {
      "channel": 2,
      "note": 59,
      "start": 395.5403,
      "duration": 0.416,
      "velocity": 89,
      "chip": "ym2612"
    },
    {
      "channel": 0,
      "note": 62,
      "start": 395.6632,
      "duration": 0.3855,
      "velocity": 89,
      "chip": "ym2612"
    },
    {
      "channel": 5,
      "note": 52,
      "start": 395.6635,
      "duration": 0.4011,
      "velocity": 97,
      "chip": "ym2612"
    },
    {
      "channel": 3,
      "note": 62,
      "start": 395.6789,
      "duration": 1.8196,
      "velocity": 89,
      "chip": "ym2612"
    },
    {
      "channel": 2,
      "note": 62,
      "start": 396.0027,
      "duration": 0.4162,
      "velocity": 89,
      "chip": "ym2612"
    },
    {
      "channel": 0,
      "note": 61,
      "start": 396.1259,
      "duration": 1.3261,
      "velocity": 89,
      "chip": "ym2612"
    },
    {
      "channel": 5,
      "note": 52,
      "start": 396.1265,
      "duration": 0.8173,
      "velocity": 97,
      "chip": "ym2612"
    },
    {
      "channel": 1,
      "note": 61,
      "start": 396.1719,
      "duration": 1.3265,
      "velocity": 89,
      "chip": "ym2612"
    },
    {
      "channel": 2,
      "note": 61,
      "start": 396.4811,
      "duration": 1.3566,
      "velocity": 89,
      "chip": "ym2612"
    },
    {
      "channel": 5,
      "note": 52,
      "start": 397.0672,
      "duration": 0.4163,
      "velocity": 97,
      "chip": "ym2612"
    },
    {
      "channel": 0,
      "note": 54,
      "start": 397.5448,
      "duration": 0.1542,
      "velocity": 89,
      "chip": "ym2612"
    },
    {
      "channel": 5,
      "note": 52,
      "start": 397.5451,
      "duration": 0.8178,
      "velocity": 97,
      "chip": "ym2612"
    },
    {
      "channel": 1,
      "note": 54,
      "start": 397.5758,
      "duration": 0.4007,
      "velocity": 89,
      "chip": "ym2612"
    },
    {
      "channel": 0,
      "note": 55,
      "start": 397.7763,
      "duration": 0.154,
      "velocity": 89,
      "chip": "ym2612"
    },
    {
      "channel": 3,
      "note": 55,
      "start": 397.7921,
      "duration": 0.6473,
      "velocity": 89,
      "chip": "ym2612"
    },
    {
      "channel": 2,
      "note": 54,
      "start": 397.8843,
      "duration": 0.1849,
      "velocity": 89,
      "chip": "ym2612"
    },
    {
      "channel": 0,
      "note": 59,
      "start": 398.0074,
      "duration": 0.3851,
      "velocity": 89,
      "chip": "ym2612"
    },
    {
      "channel": 1,
      "note": 59,
      "start": 398.0539,
      "duration": 0.8631,
      "velocity": 89,
      "chip": "ym2612"
    },
    {
      "channel": 2,
      "note": 55,
      "start": 398.1313,
      "duration": 0.1694,
      "velocity": 89,
      "chip": "ym2612"
    },
    {
      "channel": 2,
      "note": 59,
      "start": 398.3624,
      "duration": 0.4158,
      "velocity": 89,
      "chip": "ym2612"
    },
    {
      "channel": 0,
      "note": 62,
      "start": 398.4856,
      "duration": 0.3851,
      "velocity": 89,
      "chip": "ym2612"
    },
    {
      "channel": 5,
      "note": 52,
      "start": 398.4859,
      "duration": 0.4009,
      "velocity": 97,
      "chip": "ym2612"
    },
    {
      "channel": 3,
      "note": 62,
      "start": 398.5011,
      "duration": 0.8788,
      "velocity": 89,
      "chip": "ym2612"
    },
    {
      "channel": 2,
      "note": 62,
      "start": 398.8249,
      "duration": 0.4167,
      "velocity": 89,
      "chip": "ym2612"
    },
    {
      "channel": 0,
      "note": 61,
      "start": 398.948,
      "duration": 0.4008,
      "velocity": 89,
      "chip": "ym2612"
    },
    {
      "channel": 5,
      "note": 52,
      "start": 398.9485,
      "duration": 0.8179,
      "velocity": 97,
      "chip": "ym2612"
    },
    {
      "channel": 1,
      "note": 61,
      "start": 398.9942,
      "duration": 1.3262,
      "velocity": 89,
      "chip": "ym2612"
    },
    {
      "channel": 2,
      "note": 61,
      "start": 399.3031,
      "duration": 0.4162,
      "velocity": 89,
      "chip": "ym2612"
    },
    {
      "channel": 0,
      "note": 57,
      "start": 399.4264,
      "duration": 0.8633,
      "velocity": 89,
      "chip": "ym2612"
    },
    {
      "channel": 3,
      "note": 57,
      "start": 399.4422,
      "duration": 0.8786,
      "velocity": 89,
      "chip": "ym2612"
    },
    {
      "channel": 2,
      "note": 57,
      "start": 399.7661,
      "duration": 0.8936,
      "velocity": 89,
      "chip": "ym2612"
    },
    {
      "channel": 5,
      "note": 52,
      "start": 399.8896,
      "duration": 0.4159,
      "velocity": 97,
      "chip": "ym2612"
    },
    {
      "channel": 0,
      "note": 54,
      "start": 400.3671,
      "duration": 0.1539,
      "velocity": 89,
      "chip": "ym2612"
    },
    {
      "channel": 5,
      "note": 52,
      "start": 400.3676,
      "duration": 0.8171,
      "velocity": 97,
      "chip": "ym2612"
    },
    {
      "channel": 1,
      "note": 54,
      "start": 400.3976,
      "duration": 0.4012,
      "velocity": 89,
      "chip": "ym2612"
    },
    {
      "channel": 0,
      "note": 55,
      "start": 400.5982,
      "duration": 0.154,
      "velocity": 89,
      "chip": "ym2612"
    },
    {
      "channel": 3,
      "note": 55,
      "start": 400.6141,
      "duration": 0.6471,
      "velocity": 89,
      "chip": "ym2612"
    },
    {
      "channel": 2,
      "note": 54,
      "start": 400.7064,
      "duration": 0.185,
      "velocity": 89,
      "chip": "ym2612"
    },
    {
      "channel": 0,
      "note": 59,
      "start": 400.8292,
      "duration": 0.401,
      "velocity": 89,
      "chip": "ym2612"
    },
    {
      "channel": 1,
      "note": 59,
      "start": 400.876,
      "duration": 0.8636,
      "velocity": 89,
      "chip": "ym2612"
    },
    {
      "channel": 2,
      "note": 55,
      "start": 400.9533,
      "duration": 0.1694,
      "velocity": 89,
      "chip": "ym2612"
    },
    {
      "channel": 2,
      "note": 59,
      "start": 401.1844,
      "duration": 0.4161,
      "velocity": 89,
      "chip": "ym2612"
    },
    {
      "channel": 0,
      "note": 62,
      "start": 401.3078,
      "duration": 0.385,
      "velocity": 89,
      "chip": "ym2612"
    },
    {
      "channel": 5,
      "note": 52,
      "start": 401.3081,
      "duration": 0.4007,
      "velocity": 97,
      "chip": "ym2612"
    },
    {
      "channel": 3,
      "note": 62,
      "start": 401.3235,
      "duration": 1.8195,
      "velocity": 89,
      "chip": "ym2612"
    },
    {
      "channel": 2,
      "note": 62,
      "start": 401.6627,
      "duration": 0.4007,
      "velocity": 89,
      "chip": "ym2612"
    },
    {
      "channel": 0,
      "note": 61,
      "start": 401.7705,
      "duration": 1.3418,
      "velocity": 89,
      "chip": "ym2612"
    },
    {
      "channel": 5,
      "note": 52,
      "start": 401.7712,
      "duration": 0.8328,
      "velocity": 97,
      "chip": "ym2612"
    },
    {
      "channel": 1,
      "note": 61,
      "start": 401.817,
      "duration": 1.3258,
      "velocity": 89,
      "chip": "ym2612"
    },
    {
      "channel": 2,
      "note": 61,
      "start": 402.125,
      "duration": 1.3576,
      "velocity": 89,
      "chip": "ym2612"
    },
    {
      "channel": 5,
      "note": 52,
      "start": 402.712,
      "duration": 0.4165,
      "velocity": 97,
      "chip": "ym2612"
    },
    {
      "channel": 0,
      "note": 54,
      "start": 403.1897,
      "duration": 0.154,
      "velocity": 89,
      "chip": "ym2612"
    },
    {
      "channel": 5,
      "note": 52,
      "start": 403.19,
      "duration": 0.8173,
      "velocity": 97,
      "chip": "ym2612"
    },
    {
      "channel": 1,
      "note": 54,
      "start": 403.2204,
      "duration": 0.4011,
      "velocity": 89,
      "chip": "ym2612"
    },
    {
      "channel": 0,
      "note": 55,
      "start": 403.4212,
      "duration": 0.1536,
      "velocity": 89,
      "chip": "ym2612"
    },
    {
      "channel": 3,
      "note": 55,
      "start": 403.437,
      "duration": 0.647,
      "velocity": 89,
      "chip": "ym2612"
    },
    {
      "channel": 2,
      "note": 54,
      "start": 403.5448,
      "duration": 0.1691,
      "velocity": 89,
      "chip": "ym2612"
    },
    {
      "channel": 0,
      "note": 59,
      "start": 403.6521,
      "duration": 0.4009,
      "velocity": 89,
      "chip": "ym2612"
    },
    {
      "channel": 1,
      "note": 59,
      "start": 403.6986,
      "duration": 0.8637,
      "velocity": 89,
      "chip": "ym2612"
    },
    {
      "channel": 2,
      "note": 55,
      "start": 403.7758,
      "duration": 0.1696,
      "velocity": 89,
      "chip": "ym2612"
    },
    {
      "channel": 2,
      "note": 59,
      "start": 404.007,
      "duration": 0.4165,
      "velocity": 89,
      "chip": "ym2612"
    },
    {
      "channel": 0,
      "note": 64,
      "start": 404.1303,
      "duration": 0.3854,
      "velocity": 89,
      "chip": "ym2612"
    },
    {
      "channel": 5,
      "note": 52,
      "start": 404.1307,
      "duration": 0.4009,
      "velocity": 97,
      "chip": "ym2612"
    },
    {
      "channel": 3,
      "note": 64,
      "start": 404.1463,
      "duration": 0.8788,
      "velocity": 89,
      "chip": "ym2612"
    },
    {
      "channel": 2,
      "note": 64,
      "start": 404.4858,
      "duration": 0.401,
      "velocity": 89,
      "chip": "ym2612"
    },
    {
      "channel": 0,
      "note": 61,
      "start": 404.5932,
      "duration": 0.4014,
      "velocity": 89,
      "chip": "ym2612"
    },
    {
      "channel": 5,
      "note": 52,
      "start": 404.5939,
      "duration": 0.8337,
      "velocity": 97,
      "chip": "ym2612"
    },
    {
      "channel": 1,
      "note": 61,
      "start": 404.6396,
      "duration": 1.327,
      "velocity": 89,
      "chip": "ym2612"
    },
    {
      "channel": 2,
      "note": 61,
      "start": 404.9485,
      "duration": 0.4167,
      "velocity": 89,
      "chip": "ym2612"
    },
    {
      "channel": 0,
      "note": 66,
      "start": 405.0716,
      "duration": 0.8643,
      "velocity": 89,
      "chip": "ym2612"
    },
    {
      "channel": 3,
      "note": 66,
      "start": 405.0876,
      "duration": 0.8793,
      "velocity": 89,
      "chip": "ym2612"
    },
    {
      "channel": 2,
      "note": 66,
      "start": 405.4273,
      "duration": 0.879,
      "velocity": 89,
      "chip": "ym2612"
    },
    {
      "channel": 5,
      "note": 52,
      "start": 405.5351,
      "duration": 0.4168,
      "velocity": 97,
      "chip": "ym2612"
    },
    {
      "channel": 0,
      "note": 54,
      "start": 406.0132,
      "duration": 0.1537,
      "velocity": 89,
      "chip": "ym2612"
    },
    {
      "channel": 5,
      "note": 52,
      "start": 406.0136,
      "duration": 0.8172,
      "velocity": 97,
      "chip": "ym2612"
    },
    {
      "channel": 1,
      "note": 54,
      "start": 406.044,
      "duration": 0.4007,
      "velocity": 89,
      "chip": "ym2612"
    },
    {
      "channel": 0,
      "note": 55,
      "start": 406.2442,
      "duration": 0.1541,
      "velocity": 89,
      "chip": "ym2612"
    },
    {
      "channel": 3,
      "note": 55,
      "start": 406.2599,
      "duration": 0.6475,
      "velocity": 89,
      "chip": "ym2612"
    },
    {
      "channel": 2,
      "note": 54,
      "start": 406.3682,
      "duration": 0.1692,
      "velocity": 89,
      "chip": "ym2612"
    },
    {
      "channel": 0,
      "note": 59,
      "start": 406.4758,
      "duration": 0.4005,
      "velocity": 89,
      "chip": "ym2612"
    },
    {
      "channel": 1,
      "note": 59,
      "start": 406.522,
      "duration": 0.8634,
      "velocity": 89,
      "chip": "ym2612"
    },
    {
      "channel": 2,
      "note": 55,
      "start": 406.5989,
      "duration": 0.1695,
      "velocity": 89,
      "chip": "ym2612"
    },
    {
      "channel": 2,
      "note": 59,
      "start": 406.8305,
      "duration": 0.4164,
      "velocity": 89,
      "chip": "ym2612"
    },
    {
      "channel": 0,
      "note": 62,
      "start": 406.9536,
      "duration": 0.3854,
      "velocity": 89,
      "chip": "ym2612"
    },
    {
      "channel": 5,
      "note": 52,
      "start": 406.954,
      "duration": 0.4009,
      "velocity": 97,
      "chip": "ym2612"
    },
    {
      "channel": 3,
      "note": 62,
      "start": 406.9696,
      "duration": 1.8198,
      "velocity": 89,
      "chip": "ym2612"
    },
    {
      "channel": 2,
      "note": 62,
      "start": 407.3088,
      "duration": 0.4005,
      "velocity": 89,
      "chip": "ym2612"
    },
    {
      "channel": 0,
      "note": 61,
      "start": 407.4163,
      "duration": 1.3419,
      "velocity": 89,
      "chip": "ym2612"
    },
    {
      "channel": 5,
      "note": 52,
      "start": 407.417,
      "duration": 0.8331,
      "velocity": 97,
      "chip": "ym2612"
    },
    {
      "channel": 1,
      "note": 61,
      "start": 407.4625,
      "duration": 1.3266,
      "velocity": 89,
      "chip": "ym2612"
    },
    {
      "channel": 2,
      "note": 61,
      "start": 407.7714,
      "duration": 1.3573,
      "velocity": 89,
      "chip": "ym2612"
    },
    {
      "channel": 5,
      "note": 52,
      "start": 408.3582,
      "duration": 0.4163,
      "velocity": 97,
      "chip": "ym2612"
    },
    {
      "channel": 0,
      "note": 54,
      "start": 408.8355,
      "duration": 0.1539,
      "velocity": 89,
      "chip": "ym2612"
    },
    {
      "channel": 5,
      "note": 52,
      "start": 408.8358,
      "duration": 0.8178,
      "velocity": 97,
      "chip": "ym2612"
    },
    {
      "channel": 1,
      "note": 54,
      "start": 408.8666,
      "duration": 0.4006,
      "velocity": 89,
      "chip": "ym2612"
    },
    {
      "channel": 0,
      "note": 55,
      "start": 409.0671,
      "duration": 0.154,
      "velocity": 89,
      "chip": "ym2612"
    },
    {
      "channel": 3,
      "note": 55,
      "start": 409.0827,
      "duration": 0.6478,
      "velocity": 89,
      "chip": "ym2612"
    },
    {
      "channel": 2,
      "note": 54,
      "start": 409.1908,
      "duration": 0.169,
      "velocity": 89,
      "chip": "ym2612"
    },
    {
      "channel": 0,
      "note": 59,
      "start": 409.2985,
      "duration": 0.4006,
      "velocity": 89,
      "chip": "ym2612"
    },
    {
      "channel": 1,
      "note": 59,
      "start": 409.3445,
      "duration": 0.8638,
      "velocity": 89,
      "chip": "ym2612"
    },
    {
      "channel": 2,
      "note": 55,
      "start": 409.4218,
      "duration": 0.1694,
      "velocity": 89,
      "chip": "ym2612"
    },
    {
      "channel": 2,
      "note": 59,
      "start": 409.6533,
      "duration": 0.4163,
      "velocity": 89,
      "chip": "ym2612"
    },
    {
      "channel": 0,
      "note": 62,
      "start": 409.7762,
      "duration": 0.3857,
      "velocity": 89,
      "chip": "ym2612"
    },
    {
      "channel": 5,
      "note": 52,
      "start": 409.7767,
      "duration": 0.4012,
      "velocity": 97,
      "chip": "ym2612"
    },
    {
      "channel": 3,
      "note": 62,
      "start": 409.7921,
      "duration": 0.8796,
      "velocity": 89,
      "chip": "ym2612"
    },
    {
      "channel": 2,
      "note": 62,
      "start": 410.1315,
      "duration": 0.4009,
      "velocity": 89,
      "chip": "ym2612"
    },
    {
      "channel": 0,
      "note": 61,
      "start": 410.2395,
      "duration": 0.401,
      "velocity": 89,
      "chip": "ym2612"
    },
    {
      "channel": 5,
      "note": 52,
      "start": 410.2402,
      "duration": 0.8328,
      "velocity": 97,
      "chip": "ym2612"
    },
    {
      "channel": 1,
      "note": 61,
      "start": 410.2857,
      "duration": 1.326,
      "velocity": 89,
      "chip": "ym2612"
    },
    {
      "channel": 2,
      "note": 61,
      "start": 410.5946,
      "duration": 0.4166,
      "velocity": 89,
      "chip": "ym2612"
    },
    {
      "channel": 0,
      "note": 57,
      "start": 410.7179,
      "duration": 0.8628,
      "velocity": 89,
      "chip": "ym2612"
    },
    {
      "channel": 3,
      "note": 57,
      "start": 410.7338,
      "duration": 0.8781,
      "velocity": 89,
      "chip": "ym2612"
    },
    {
      "channel": 2,
      "note": 57,
      "start": 411.0727,
      "duration": 0.8781,
      "velocity": 89,
      "chip": "ym2612"
    },
    {
      "channel": 5,
      "note": 52,
      "start": 411.1807,
      "duration": 0.4158,
      "velocity": 97,
      "chip": "ym2612"
    },
    {
      "channel": 2,
      "note": 54,
      "start": 412.0125,
      "duration": 0.4009,
      "velocity": 89,
      "chip": "ym2612"
    },
    {
      "channel": 1,
      "note": 54,
      "start": 412.0433,
      "duration": 0.4006,
      "velocity": 89,
      "chip": "ym2612"
    },
    {
      "channel": 0,
      "note": 54,
      "start": 412.3669,
      "duration": 0.3856,
      "velocity": 89,
      "chip": "ym2612"
    },
    {
      "channel": 2,
      "note": 55,
      "start": 412.4753,
      "duration": 0.4165,
      "velocity": 89,
      "chip": "ym2612"
    },
    {
      "channel": 1,
      "note": 55,
      "start": 412.5214,
      "duration": 0.3859,
      "velocity": 89,
      "chip": "ym2612"
    },
    {
      "channel": 0,
      "note": 55,
      "start": 412.8302,
      "duration": 0.401,
      "velocity": 89,
      "chip": "ym2612"
    },
    {
      "channel": 2,
      "note": 66,
      "start": 412.9539,
      "duration": 7.4674,
      "velocity": 89,
      "chip": "ym2612"
    },
    {
      "channel": 1,
      "note": 66,
      "start": 412.9848,
      "duration": 7.4518,
      "velocity": 89,
      "chip": "ym2612"
    },
    {
      "channel": 0,
      "note": 66,
      "start": 413.3088,
      "duration": 7.4512,
      "velocity": 89,
      "chip": "ym2612"
    }
  ]
}