{
  "track_name": "14 - Rush and Beat",
  "duration_sec": 78.653,
  "sample_rate": 44100,
  "note_count": 1201,
  "unique_pitches": 55,
  "pitch_range": 65,
  "avg_note_duration": 0.3135,
  "reconstruction_stats": {
    "notes_reconstructed": 1201,
    "keyon_events": 1201,
    "keyoff_events": 1195,
    "orphan_keyons": 5,
    "unique_pitches": 55,
    "pitch_range": 65,
    "avg_duration_sec": 0.3135
  },
  "metadata": {
    "source": "S\\Shinobi III\\14 - Rush and Beat.vgz"
  },
  "notes": [
    {
      "channel": 0,
      "note": 52,
      "start": 0.0181,
      "duration": 0.1321,
      "velocity": 99,
      "chip": "ym2612"
    },
    {
      "channel": 1,
      "note": 40,
      "start": 0.0195,
      "duration": 0.1311,
      "velocity": 101,
      "chip": "ym2612"
    },
    {
      "channel": 0,
      "note": 59,
      "start": 0.1505,
      "duration": 0.1499,
      "velocity": 99,
      "chip": "ym2612"
    },
    {
      "channel": 1,
      "note": 47,
      "start": 0.1507,
      "duration": 0.15,
      "velocity": 101,
      "chip": "ym2612"
    },
    {
      "channel": 0,
      "note": 64,
      "start": 0.3006,
      "duration": 0.15,
      "velocity": 99,
      "chip": "ym2612"
    },
    {
      "channel": 1,
      "note": 52,
      "start": 0.3009,
      "duration": 0.15,
      "velocity": 101,
      "chip": "ym2612"
    },
    {
      "channel": 0,
      "note": 59,
      "start": 0.4508,
      "duration": 0.1332,
      "velocity": 99,
      "chip": "ym2612"
    },
    {
      "channel": 1,
      "note": 47,
      "start": 0.4511,
      "duration": 0.1333,
      "velocity": 101,
      "chip": "ym2612"
    },
    {
      "channel": 0,
      "note": 62,
      "start": 0.5843,
      "duration": 0.15,
      "velocity": 99,
      "chip": "ym2612"
    },
    {
      "channel": 1,
      "note": 50,
      "start": 0.5846,
      "duration": 0.15,
      "velocity": 101,
      "chip": "ym2612"
    },
    {
      "channel": 0,
      "note": 57,
      "start": 0.7345,
      "duration": 2.77,
      "velocity": 99,
      "chip": "ym2612"
    },
    {
      "channel": 1,
      "note": 45,
      "start": 0.7349,
      "duration": 2.77,
      "velocity": 101,
      "chip": "ym2612"
    },
    {
      "channel": 2,
      "note": 62,
      "start": 0.8849,
      "duration": 3.4876,
      "velocity": 97,
      "chip": "ym2612"
    },
    {
      "channel": 3,
      "note": 69,
      "start": 0.8853,
      "duration": 3.4874,
      "velocity": 97,
      "chip": "ym2612"
    },
    {
      "channel": 0,
      "note": 52,
      "start": 3.5048,
      "duration": 0.1499,
      "velocity": 99,
      "chip": "ym2612"
    },
    {
      "channel": 1,
      "note": 40,
      "start": 3.5051,
      "duration": 0.1499,
      "velocity": 101,
      "chip": "ym2612"
    },
    {
      "channel": 0,
      "note": 59,
      "start": 3.655,
      "duration": 0.1332,
      "velocity": 99,
      "chip": "ym2612"
    },
    {
      "channel": 1,
      "note": 47,
      "start": 3.6553,
      "duration": 0.1333,
      "velocity": 101,
      "chip": "ym2612"
    },
    {
      "channel": 0,
      "note": 64,
      "start": 3.7885,
      "duration": 0.15,
      "velocity": 99,
      "chip": "ym2612"
    },
    {
      "channel": 1,
      "note": 52,
      "start": 3.7888,
      "duration": 0.15,
      "velocity": 101,
      "chip": "ym2612"
    },
    {
      "channel": 0,
      "note": 59,
      "start": 3.9387,
      "duration": 0.1499,
      "velocity": 99,
      "chip": "ym2612"
    },
    {
      "channel": 1,
      "note": 47,
      "start": 3.939,
      "duration": 0.15,
      "velocity": 101,
      "chip": "ym2612"
    },
    {
      "channel": 0,
      "note": 57,
      "start": 4.0888,
      "duration": 0.15,
      "velocity": 99,
      "chip": "ym2612"
    },
    {
      "channel": 1,
      "note": 45,
      "start": 4.0892,
      "duration": 0.15,
      "velocity": 101,
      "chip": "ym2612"
    },
    {
      "channel": 0,
      "note": 62,
      "start": 4.239,
      "duration": 2.3206,
      "velocity": 99,
      "chip": "ym2612"
    },
    {
      "channel": 1,
      "note": 50,
      "start": 4.2394,
      "duration": 2.3216,
      "velocity": 86,
      "chip": "ym2612"
    },
    {
      "channel": 2,
      "note": 60,
      "start": 4.8233,
      "duration": 1.7353,
      "velocity": 97,
      "chip": "ym2612"
    },
    {
      "channel": 3,
      "note": 67,
      "start": 4.8237,
      "duration": 1.735,
      "velocity": 97,
      "chip": "ym2612"
    },
    {
      "channel": 0,
      "note": 50,
      "start": 6.5599,
      "duration": 0.0931,
      "velocity": 99,
      "chip": "ym2612"
    },
    {
      "channel": 1,
      "note": 90,
      "start": 6.6465,
      "duration": 0.0007,
      "velocity": 86,
      "chip": "ym2612"
    },
    {
      "channel": 2,
      "note": 84,
      "start": 6.6467,
      "duration": 0.0007,
      "velocity": 86,
      "chip": "ym2612"
    },
    {
      "channel": 3,
      "note": 80,
      "start": 6.6469,
      "duration": 0.0005,
      "velocity": 86,
      "chip": "ym2612"
    },
    {
      "channel": 4,
      "note": 66,
      "start": 6.6471,
      "duration": 0.0004,
      "velocity": 86,
      "chip": "ym2612"
    },
    {
      "channel": 1,
      "note": 90,
      "start": 6.6483,
      "duration": 0.0051,
      "velocity": 86,
      "chip": "ym2612"
    },
    {
      "channel": 2,
      "note": 84,
      "start": 6.6483,
      "duration": 0.0054,
      "velocity": 86,
      "chip": "ym2612"
    },
    {
      "channel": 3,
      "note": 80,
      "start": 6.6484,
      "duration": 0.0055,
      "velocity": 86,
      "chip": "ym2612"
    },
    {
      "channel": 4,
      "note": 66,
      "start": 6.6486,
      "duration": 0.0057,
      "velocity": 86,
      "chip": "ym2612"
    },
    {
      "channel": 0,
      "note": 50,
      "start": 6.6533,
      "duration": 0.0088,
      "velocity": 99,
      "chip": "ym2612"
    },
    {
      "channel": 1,
      "note": 90,
      "start": 6.6536,
      "duration": 0.0019,
      "velocity": 86,
      "chip": "ym2612"
    },
    {
      "channel": 2,
      "note": 84,
      "start": 6.6539,
      "duration": 0.0019,
      "velocity": 86,
      "chip": "ym2612"
    },
    {
      "channel": 3,
      "note": 80,
      "start": 6.6542,
      "duration": 0.002,
      "velocity": 86,
      "chip": "ym2612"
    },
    {
      "channel": 4,
      "note": 66,
      "start": 6.6544,
      "duration": 0.0021,
      "velocity": 86,
      "chip": "ym2612"
    },
    {
      "channel": 1,
      "note": 90,
      "start": 6.6557,
      "duration": 0.0042,
      "velocity": 86,
      "chip": "ym2612"
    },
    {
      "channel": 2,
      "note": 84,
      "start": 6.6561,
      "duration": 0.0042,
      "velocity": 86,
      "chip": "ym2612"
    },
    {
      "channel": 3,
      "note": 80,
      "start": 6.6564,
      "duration": 0.0042,
      "velocity": 86,
      "chip": "ym2612"
    },
    {
      "channel": 4,
      "note": 66,
      "start": 6.6566,
      "duration": 0.0044,
      "velocity": 86,
      "chip": "ym2612"
    },
    {
      "channel": 1,
      "note": 88,
      "start": 6.6602,
      "duration": 0.0023,
      "velocity": 86,
      "chip": "ym2612"
    },
    {
      "channel": 2,
      "note": 86,
      "start": 6.6606,
      "duration": 0.0022,
      "velocity": 86,
      "chip": "ym2612"
    },
    {
      "channel": 3,
      "note": 80,
      "start": 6.6609,
      "duration": 0.0023,
      "velocity": 86,
      "chip": "ym2612"
    },
    {
      "channel": 4,
      "note": 64,
      "start": 6.6612,
      "duration": 0.0023,
      "velocity": 86,
      "chip": "ym2612"
    },
    {
      "channel": 0,
      "note": 47,
      "start": 6.6624,
      "duration": 0.0037,
      "velocity": 99,
      "chip": "ym2612"
    },
    {
      "channel": 1,
      "note": 83,
      "start": 6.6627,
      "duration": 0.0034,
      "velocity": 86,
      "chip": "ym2612"
    },
    {
      "channel": 2,
      "note": 90,
      "start": 6.6631,
      "duration": 0.0031,
      "velocity": 86,
      "chip": "ym2612"
    },
    {
      "channel": 3,
      "note": 81,
      "start": 6.6634,
      "duration": 0.0029,
      "velocity": 86,
      "chip": "ym2612"
    },
    {
      "channel": 4,
      "note": 59,
      "start": 6.6636,
      "duration": 0.0027,
      "velocity": 86,
      "chip": "ym2612"
    },
    {
      "channel": 1,
      "note": 52,
      "start": 6.6699,
      "duration": 0.0212,
      "velocity": 104,
      "chip": "ym2612"
    },
    {
      "channel": 3,
      "note": 47,
      "start": 6.6709,
      "duration": 0.0204,
      "velocity": 104,
      "chip": "ym2612"
    },
    {
      "channel": 4,
      "note": 52,
      "start": 6.6721,
      "duration": 0.0195,
      "velocity": 104,
      "chip": "ym2612"
    },
    {
      "channel": 1,
      "note": 54,
      "start": 6.6912,
      "duration": 0.0006,
      "velocity": 104,
      "chip": "ym2612"
    },
    {
      "channel": 3,
      "note": 49,
      "start": 6.6915,
      "duration": 0.0007,
      "velocity": 104,
      "chip": "ym2612"
    },
    {
      "channel": 4,
      "note": 54,
      "start": 6.6917,
      "duration": 0.0006,
      "velocity": 104,
      "chip": "ym2612"
    },
    {
      "channel": 1,
      "note": 59,
      "start": 6.692,
      "duration": 0.071,
      "velocity": 104,
      "chip": "ym2612"
    },
    {
      "channel": 3,
      "note": 54,
      "start": 6.6923,
      "duration": 0.0722,
      "velocity": 104,
      "chip": "ym2612"
    },
    {
      "channel": 4,
      "note": 59,
      "start": 6.6926,
      "duration": 0.0722,
      "velocity": 104,
      "chip": "ym2612"
    },
    {
      "channel": 0,
      "note": 52,
      "start": 6.763,
      "duration": 0.0671,
      "velocity": 99,
      "chip": "ym2612"
    },
    {
      "channel": 1,
      "note": 62,
      "start": 6.7632,
      "duration": 0.0778,
      "velocity": 104,
      "chip": "ym2612"
    },
    {
      "channel": 2,
      "note": 40,
      "start": 6.7644,
      "duration": 0.0659,
      "velocity": 101,
      "chip": "ym2612"
    },
    {
      "channel": 3,
      "note": 57,
      "start": 6.7647,
      "duration": 0.1528,
      "velocity": 104,
      "chip": "ym2612"
    },
    {
      "channel": 4,
      "note": 62,
      "start": 6.7649,
      "duration": 0.1528,
      "velocity": 104,
      "chip": "ym2612"
    },
    {
      "channel": 0,
      "note": 54,
      "start": 6.8302,
      "duration": 0.0036,
      "velocity": 99,
      "chip": "ym2612"
    },
    {
      "channel": 2,
      "note": 42,
      "start": 6.8305,
      "duration": 0.0038,
      "velocity": 101,
      "chip": "ym2612"
    },
    {
      "channel": 0,
      "note": 55,
      "start": 6.8341,
      "duration": 0.0026,
      "velocity": 99,
      "chip": "ym2612"
    },
    {
      "channel": 2,
      "note": 43,
      "start": 6.8345,
      "duration": 0.0025,
      "velocity": 101,
      "chip": "ym2612"
    },
    {
      "channel": 0,
      "note": 57,
      "start": 6.8369,
      "duration": 0.0037,
      "velocity": 99,
      "chip": "ym2612"
    },
    {
      "channel": 2,
      "note": 45,
      "start": 6.8372,
      "duration": 0.0038,
      "velocity": 101,
      "chip": "ym2612"
    },
    {
      "channel": 0,
      "note": 59,
      "start": 6.8408,
      "duration": 0.068,
      "velocity": 99,
      "chip": "ym2612"
    },
    {
      "channel": 1,
      "note": 62,
      "start": 6.8409,
      "duration": 0.0761,
      "velocity": 104,
      "chip": "ym2612"
    },
    {
      "channel": 2,
      "note": 47,
      "start": 6.8411,
      "duration": 0.0682,
      "velocity": 101,
      "chip": "ym2612"
    },
    {
      "channel": 0,
      "note": 54,
      "start": 6.9091,
      "duration": 0.0076,
      "velocity": 99,
      "chip": "ym2612"
    },
    {
      "channel": 2,
      "note": 42,
      "start": 6.9096,
      "duration": 0.0077,
      "velocity": 101,
      "chip": "ym2612"
    },
    {
      "channel": 0,
      "note": 52,
      "start": 6.9169,
      "duration": 0.0678,
      "velocity": 99,
      "chip": "ym2612"
    },
    {
      "channel": 1,
      "note": 64,
      "start": 6.9172,
      "duration": 0.0678,
      "velocity": 104,
      "chip": "ym2612"
    },
    {
      "channel": 2,
      "note": 40,
      "start": 6.9174,
      "duration": 0.0679,
      "velocity": 101,
      "chip": "ym2612"
    },
    {
      "channel": 3,
      "note": 59,
      "start": 6.9177,
      "duration": 0.0679,
      "velocity": 104,
      "chip": "ym2612"
    },
    {
      "channel": 4,
      "note": 64,
      "start": 6.9179,
      "duration": 0.068,
      "velocity": 104,
      "chip": "ym2612"
    },
    {
      "channel": 0,
      "note": 50,
      "start": 6.9849,
      "duration": 0.0035,
      "velocity": 99,
      "chip": "ym2612"
    },
    {
      "channel": 1,
      "note": 59,
      "start": 6.9852,
      "duration": 0.0035,
      "velocity": 104,
      "chip": "ym2612"
    },
    {
      "channel": 2,
      "note": 38,
      "start": 6.9855,
      "duration": 0.0034,
      "velocity": 101,
      "chip": "ym2612"
    },
    {
      "channel": 3,
      "note": 54,
      "start": 6.9858,
      "duration": 0.0033,
      "velocity": 104,
      "chip": "ym2612"
    },
    {
      "channel": 4,
      "note": 59,
      "start": 6.9861,
      "duration": 0.0033,
      "velocity": 104,
      "chip": "ym2612"
    },
    {
      "channel": 0,
      "note": 52,
      "start": 6.9886,
      "duration": 0.0682,
      "velocity": 99,
      "chip": "ym2612"
    },
    {
      "channel": 1,
      "note": 62,
      "start": 6.9889,
      "duration": 0.0009,
      "velocity": 104,
      "chip": "ym2612"
    },
    {
      "channel": 2,
      "note": 40,
      "start": 6.989,
      "duration": 0.0683,
      "velocity": 101,
      "chip": "ym2612"
    },
    {
      "channel": 3,
      "note": 57,
      "start": 6.9893,
      "duration": 0.0006,
      "velocity": 104,
      "chip": "ym2612"
    },
    {
      "channel": 4,
      "note": 62,
      "start": 6.9895,
      "duration": 0.0006,
      "velocity": 104,
      "chip": "ym2612"
    },
    {
      "channel": 1,
      "note": 64,
      "start": 6.9899,
      "duration": 0.0672,
      "velocity": 104,
      "chip": "ym2612"
    },
    {
      "channel": 3,
      "note": 59,
      "start": 6.9901,
      "duration": 0.0675,
      "velocity": 104,
      "chip": "ym2612"
    },
    {
      "channel": 4,
      "note": 64,
      "start": 6.9903,
      "duration": 0.0675,
      "velocity": 104,
      "chip": "ym2612"
    },
    {
      "channel": 0,
      "note": 55,
      "start": 7.057,
      "duration": 0.0025,
      "velocity": 99,
      "chip": "ym2612"
    },
    {
      "channel": 1,
      "note": 62,
      "start": 7.0572,
      "duration": 0.0013,
      "velocity": 104,
      "chip": "ym2612"
    },
    {
      "channel": 2,
      "note": 43,
      "start": 7.0575,
      "duration": 0.0024,
      "velocity": 101,
      "chip": "ym2612"
    },
    {
      "channel": 3,
      "note": 57,
      "start": 7.0577,
      "duration": 0.001,
      "velocity": 104,
      "chip": "ym2612"
    },
    {
      "channel": 4,
      "note": 62,
      "start": 7.058,
      "duration": 0.0009,
      "velocity": 104,
      "chip": "ym2612"
    },
    {
      "channel": 1,
      "note": 61,
      "start": 7.0587,
      "duration": 0.0854,
      "velocity": 104,
      "chip": "ym2612"
    },
    {
      "channel": 3,
      "note": 54,
      "start": 7.0589,
      "duration": 0.0856,
      "velocity": 104,
      "chip": "ym2612"
    },
    {
      "channel": 4,
      "note": 61,
      "start": 7.0591,
      "duration": 0.0856,
      "velocity": 104,
      "chip": "ym2612"
    },
    {
      "channel": 0,
      "note": 57,
      "start": 7.0598,
      "duration": 0.0026,
      "velocity": 99,
      "chip": "ym2612"
    },
    {
      "channel": 2,
      "note": 45,
      "start": 7.06,
      "duration": 0.0028,
      "velocity": 101,
      "chip": "ym2612"
    },
    {
      "channel": 0,
      "note": 58,
      "start": 7.0626,
      "duration": 0.0042,
      "velocity": 99,
      "chip": "ym2612"
    },
    {
      "channel": 2,
      "note": 46,
      "start": 7.063,
      "duration": 0.0042,
      "velocity": 101,
      "chip": "ym2612"
    },
    {
      "channel": 0,
      "note": 59,
      "start": 7.067,
      "duration": 0.0686,
      "velocity": 99,
      "chip": "ym2612"
    },
    {
      "channel": 2,
      "note": 47,
      "start": 7.0674,
      "duration": 0.0687,
      "velocity": 101,
      "chip": "ym2612"
    },
    {
      "channel": 0,
      "note": 61,
      "start": 7.1359,
      "duration": 0.0078,
      "velocity": 99,
      "chip": "ym2612"
    },
    {
      "channel": 2,
      "note": 49,
      "start": 7.1364,
      "duration": 0.0078,
      "velocity": 101,
      "chip": "ym2612"
    },
    {
      "channel": 0,
      "note": 62,
      "start": 7.144,
      "duration": 0.0846,
      "velocity": 99,
      "chip": "ym2612"
    },
    {
      "channel": 1,
      "note": 57,
      "start": 7.1441,
      "duration": 0.087,
      "velocity": 104,
      "chip": "ym2612"
    },
    {
      "channel": 2,
      "note": 50,
      "start": 7.1444,
      "duration": 0.0846,
      "velocity": 101,
      "chip": "ym2612"
    },
    {
      "channel": 3,
      "note": 52,
      "start": 7.1446,
      "duration": 0.0869,
      "velocity": 104,
      "chip": "ym2612"
    },
    {
      "channel": 4,
      "note": 57,
      "start": 7.1448,
      "duration": 0.0869,
      "velocity": 104,
      "chip": "ym2612"
    },
    {
      "channel": 0,
      "note": 59,
      "start": 7.2288,
      "duration": 0.0039,
      "velocity": 99,
      "chip": "ym2612"
    },
    {
      "channel": 2,
      "note": 47,
      "start": 7.2291,
      "duration": 0.0039,
      "velocity": 101,
      "chip": "ym2612"
    },
    {
      "channel": 1,
      "note": 59,
      "start": 7.2314,
      "duration": 0.158,
      "velocity": 104,
      "chip": "ym2612"
    },
    {
      "channel": 3,
      "note": 54,
      "start": 7.2317,
      "duration": 0.1581,
      "velocity": 104,
      "chip": "ym2612"
    },
    {
      "channel": 4,
      "note": 59,
      "start": 7.232,
      "duration": 0.158,
      "velocity": 104,
      "chip": "ym2612"
    },
    {
      "channel": 0,
      "note": 64,
      "start": 7.2329,
      "duration": 0.068,
      "velocity": 99,
      "chip": "ym2612"
    },
    {
      "channel": 2,
      "note": 52,
      "start": 7.233,
      "duration": 0.068,
      "velocity": 101,
      "chip": "ym2612"
    },
    {
      "channel": 0,
      "note": 64,
      "start": 7.301,
      "duration": 0.0032,
      "velocity": 99,
      "chip": "ym2612"
    },
    {
      "channel": 2,
      "note": 52,
      "start": 7.3012,
      "duration": 0.0035,
      "velocity": 101,
      "chip": "ym2612"
    },
    {
      "channel": 0,
      "note": 62,
      "start": 7.3044,
      "duration": 0.0036,
      "velocity": 99,
      "chip": "ym2612"
    },
    {
      "channel": 2,
      "note": 50,
      "start": 7.3048,
      "duration": 0.0035,
      "velocity": 101,
      "chip": "ym2612"
    },
    {
      "channel": 0,
      "note": 62,
      "start": 7.3083,
      "duration": 0.0035,
      "velocity": 99,
      "chip": "ym2612"
    },
    {
      "channel": 2,
      "note": 50,
      "start": 7.3083,
      "duration": 0.0038,
      "velocity": 101,
      "chip": "ym2612"
    },
    {
      "channel": 0,
      "note": 61,
      "start": 7.3121,
      "duration": 0.0682,
      "velocity": 99,
      "chip": "ym2612"
    },
    {
      "channel": 2,
      "note": 49,
      "start": 7.3123,
      "duration": 0.0685,
      "velocity": 101,
      "chip": "ym2612"
    },
    {
      "channel": 0,
      "note": 61,
      "start": 7.3805,
      "duration": 0.0085,
      "velocity": 99,
      "chip": "ym2612"
    },
    {
      "channel": 2,
      "note": 49,
      "start": 7.3811,
      "duration": 0.0085,
      "velocity": 101,
      "chip": "ym2612"
    },
    {
      "channel": 0,
      "note": 57,
      "start": 7.3893,
      "duration": 0.068,
      "velocity": 99,
      "chip": "ym2612"
    },
    {
      "channel": 1,
      "note": 62,
      "start": 7.3895,
      "duration": 0.068,
      "velocity": 104,
      "chip": "ym2612"
    },
    {
      "channel": 2,
      "note": 45,
      "start": 7.3898,
      "duration": 0.0681,
      "velocity": 101,
      "chip": "ym2612"
    },
    {
      "channel": 3,
      "note": 57,
      "start": 7.39,
      "duration": 0.0681,
      "velocity": 104,
      "chip": "ym2612"
    },
    {
      "channel": 4,
      "note": 62,
      "start": 7.3902,
      "duration": 0.0681,
      "velocity": 104,
      "chip": "ym2612"
    },
    {
      "channel": 0,
      "note": 57,
      "start": 7.4575,
      "duration": 0.0041,
      "velocity": 99,
      "chip": "ym2612"
    },
    {
      "channel": 1,
      "note": 59,
      "start": 7.4577,
      "duration": 0.0041,
      "velocity": 104,
      "chip": "ym2612"
    },
    {
      "channel": 2,
      "note": 45,
      "start": 7.458,
      "duration": 0.0041,
      "velocity": 101,
      "chip": "ym2612"
    },
    {
      "channel": 3,
      "note": 54,
      "start": 7.4583,
      "duration": 0.004,
      "velocity": 104,
      "chip": "ym2612"
    },
    {
      "channel": 4,
      "note": 59,
      "start": 7.4585,
      "duration": 0.0039,
      "velocity": 104,
      "chip": "ym2612"
    },
    {
      "channel": 0,
      "note": 59,
      "start": 7.4618,
      "duration": 0.068,
      "velocity": 99,
      "chip": "ym2612"
    },
    {
      "channel": 1,
      "note": 64,
      "start": 7.462,
      "duration": 0.0725,
      "velocity": 104,
      "chip": "ym2612"
    },
    {
      "channel": 2,
      "note": 47,
      "start": 7.4622,
      "duration": 0.068,
      "velocity": 101,
      "chip": "ym2612"
    },
    {
      "channel": 3,
      "note": 59,
      "start": 7.4624,
      "duration": 0.0723,
      "velocity": 104,
      "chip": "ym2612"
    },
    {
      "channel": 4,
      "note": 64,
      "start": 7.4626,
      "duration": 0.0723,
      "velocity": 104,
      "chip": "ym2612"
    },
    {
      "channel": 0,
      "note": 57,
      "start": 7.53,
      "duration": 0.0075,
      "velocity": 99,
      "chip": "ym2612"
    },
    {
      "channel": 2,
      "note": 45,
      "start": 7.5305,
      "duration": 0.0075,
      "velocity": 101,
      "chip": "ym2612"
    },
    {
      "channel": 1,
      "note": 59,
      "start": 7.5346,
      "duration": 0.017,
      "velocity": 104,
      "chip": "ym2612"
    },
    {
      "channel": 3,
      "note": 54,
      "start": 7.5349,
      "duration": 0.017,
      "velocity": 104,
      "chip": "ym2612"
    },
    {
      "channel": 4,
      "note": 59,
      "start": 7.5351,
      "duration": 0.0168,
      "velocity": 104,
      "chip": "ym2612"
    },
    {
      "channel": 0,
      "note": 55,
      "start": 7.5378,
      "duration": 0.0052,
      "velocity": 99,
      "chip": "ym2612"
    },
    {
      "channel": 2,
      "note": 43,
      "start": 7.5381,
      "duration": 0.0053,
      "velocity": 101,
      "chip": "ym2612"
    },
    {
      "channel": 0,
      "note": 54,
      "start": 7.5432,
      "duration": 0.0081,
      "velocity": 99,
      "chip": "ym2612"
    },
    {
      "channel": 2,
      "note": 42,
      "start": 7.5437,
      "duration": 0.0079,
      "velocity": 101,
      "chip": "ym2612"
    },
    {
      "channel": 0,
      "note": 52,
      "start": 7.5515,
      "duration": 0.0695,
      "velocity": 99,
      "chip": "ym2612"
    },
    {
      "channel": 2,
      "note": 40,
      "start": 7.5518,
      "duration": 0.0696,
      "velocity": 101,
      "chip": "ym2612"
    },
    {
      "channel": 0,
      "note": 54,
      "start": 7.6213,
      "duration": 0.0055,
      "velocity": 99,
      "chip": "ym2612"
    },
    {
      "channel": 2,
      "note": 42,
      "start": 7.6217,
      "duration": 0.0055,
      "velocity": 101,
      "chip": "ym2612"
    },
    {
      "channel": 0,
      "note": 55,
      "start": 7.6271,
      "duration": 0.0093,
      "velocity": 99,
      "chip": "ym2612"
    },
    {
      "channel": 2,
      "note": 43,
      "start": 7.6274,
      "duration": 0.0094,
      "velocity": 101,
      "chip": "ym2612"
    },
    {
      "channel": 1,
      "note": 52,
      "start": 7.6301,
      "duration": 0.0066,
      "velocity": 104,
      "chip": "ym2612"
    },
    {
      "channel": 3,
      "note": 47,
      "start": 7.6306,
      "duration": 0.0065,
      "velocity": 104,
      "chip": "ym2612"
    },
    {
      "channel": 4,
      "note": 52,
      "start": 7.6309,
      "duration": 0.0065,
      "velocity": 104,
      "chip": "ym2612"
    },
    {
      "channel": 0,
      "note": 57,
      "start": 7.6366,
      "duration": 0.0029,
      "velocity": 99,
      "chip": "ym2612"
    },
    {
      "channel": 1,
      "note": 54,
      "start": 7.6368,
      "duration": 0.0014,
      "velocity": 104,
      "chip": "ym2612"
    },
    {
      "channel": 2,
      "note": 45,
      "start": 7.6371,
      "duration": 0.003,
      "velocity": 101,
      "chip": "ym2612"
    },
    {
      "channel": 3,
      "note": 49,
      "start": 7.6373,
      "duration": 0.0012,
      "velocity": 104,
      "chip": "ym2612"
    },
    {
      "channel": 4,
      "note": 54,
      "start": 7.6376,
      "duration": 0.0013,
      "velocity": 104,
      "chip": "ym2612"
    },
    {
      "channel": 1,
      "note": 59,
      "start": 7.6385,
      "duration": 0.0014,
      "velocity": 104,
      "chip": "ym2612"
    },
    {
      "channel": 3,
      "note": 54,
      "start": 7.6388,
      "duration": 0.0016,
      "velocity": 104,
      "chip": "ym2612"
    },
    {
      "channel": 4,
      "note": 59,
      "start": 7.6391,
      "duration": 0.0015,
      "velocity": 104,
      "chip": "ym2612"
    },
    {
      "channel": 0,
      "note": 52,
      "start": 7.6398,
      "duration": 0.0679,
      "velocity": 99,
      "chip": "ym2612"
    },
    {
      "channel": 1,
      "note": 62,
      "start": 7.64,
      "duration": 0.1719,
      "velocity": 104,
      "chip": "ym2612"
    },
    {
      "channel": 2,
      "note": 40,
      "start": 7.6403,
      "duration": 0.0678,
      "velocity": 101,
      "chip": "ym2612"
    },
    {
      "channel": 3,
      "note": 57,
      "start": 7.6405,
      "duration": 0.1718,
      "velocity": 104,
      "chip": "ym2612"
    },
    {
      "channel": 4,
      "note": 62,
      "start": 7.6407,
      "duration": 0.1719,
      "velocity": 104,
      "chip": "ym2612"
    },
    {
      "channel": 0,
      "note": 54,
      "start": 7.708,
      "duration": 0.0036,
      "velocity": 99,
      "chip": "ym2612"
    },
    {
      "channel": 2,
      "note": 42,
      "start": 7.7083,
      "duration": 0.0038,
      "velocity": 101,
      "chip": "ym2612"
    },
    {
      "channel": 0,
      "note": 52,
      "start": 7.7118,
      "duration": 0.0027,
      "velocity": 99,
      "chip": "ym2612"
    },
    {
      "channel": 2,
      "note": 40,
      "start": 7.7122,
      "duration": 0.0028,
      "velocity": 101,
      "chip": "ym2612"
    },
    {
      "channel": 0,
      "note": 55,
      "start": 7.7148,
      "duration": 0.0037,
      "velocity": 99,
      "chip": "ym2612"
    },
    {
      "channel": 2,
      "note": 43,
      "start": 7.7151,
      "duration": 0.0039,
      "velocity": 101,
      "chip": "ym2612"
    },
    {
      "channel": 0,
      "note": 57,
      "start": 7.7187,
      "duration": 0.0849,
      "velocity": 99,
      "chip": "ym2612"
    },
    {
      "channel": 2,
      "note": 45,
      "start": 7.7191,
      "duration": 0.0849,
      "velocity": 101,
      "chip": "ym2612"
    },
    {
      "channel": 0,
      "note": 59,
      "start": 7.8039,
      "duration": 0.0077,
      "velocity": 99,
      "chip": "ym2612"
    },
    {
      "channel": 2,
      "note": 47,
      "start": 7.8044,
      "duration": 0.0078,
      "velocity": 101,
      "chip": "ym2612"
    },
    {
      "channel": 0,
      "note": 67,
      "start": 7.8118,
      "duration": 0.0678,
      "velocity": 99,
      "chip": "ym2612"
    },
    {
      "channel": 1,
      "note": 64,
      "start": 7.812,
      "duration": 0.0679,
      "velocity": 104,
      "chip": "ym2612"
    },
    {
      "channel": 2,
      "note": 55,
      "start": 7.8122,
      "duration": 0.068,
      "velocity": 101,
      "chip": "ym2612"
    },
    {
      "channel": 3,
      "note": 59,
      "start": 7.8125,
      "duration": 0.0679,
      "velocity": 104,
      "chip": "ym2612"
    },
    {
      "channel": 4,
      "note": 64,
      "start": 7.8128,
      "duration": 0.068,
      "velocity": 104,
      "chip": "ym2612"
    },
    {
      "channel": 0,
      "note": 66,
      "start": 7.8798,
      "duration": 0.0036,
      "velocity": 99,
      "chip": "ym2612"
    },
    {
      "channel": 1,
      "note": 66,
      "start": 7.8801,
      "duration": 0.0037,
      "velocity": 104,
      "chip": "ym2612"
    },
    {
      "channel": 2,
      "note": 54,
      "start": 7.8804,
      "duration": 0.0037,
      "velocity": 101,
      "chip": "ym2612"
    },
    {
      "channel": 3,
      "note": 61,
      "start": 7.8807,
      "duration": 0.0037,
      "velocity": 104,
      "chip": "ym2612"
    },
    {
      "channel": 4,
      "note": 66,
      "start": 7.881,
      "duration": 0.0036,
      "velocity": 104,
      "chip": "ym2612"
    },
    {
      "channel": 0,
      "note": 64,
      "start": 7.8838,
      "duration": 0.0678,
      "velocity": 99,
      "chip": "ym2612"
    },
    {
      "channel": 1,
      "note": 67,
      "start": 7.884,
      "duration": 0.0698,
      "velocity": 104,
      "chip": "ym2612"
    },
    {
      "channel": 2,
      "note": 52,
      "start": 7.8842,
      "duration": 0.0676,
      "velocity": 101,
      "chip": "ym2612"
    },
    {
      "channel": 3,
      "note": 62,
      "start": 7.8845,
      "duration": 0.0695,
      "velocity": 104,
      "chip": "ym2612"
    },
    {
      "channel": 4,
      "note": 67,
      "start": 7.8848,
      "duration": 0.0695,
      "velocity": 104,
      "chip": "ym2612"
    },
    {
      "channel": 0,
      "note": 59,
      "start": 7.9517,
      "duration": 0.0034,
      "velocity": 99,
      "chip": "ym2612"
    },
    {
      "channel": 2,
      "note": 47,
      "start": 7.952,
      "duration": 0.0034,
      "velocity": 101,
      "chip": "ym2612"
    },
    {
      "channel": 1,
      "note": 62,
      "start": 7.954,
      "duration": 0.0043,
      "velocity": 104,
      "chip": "ym2612"
    },
    {
      "channel": 3,
      "note": 57,
      "start": 7.9543,
      "duration": 0.0045,
      "velocity": 104,
      "chip": "ym2612"
    },
    {
      "channel": 4,
      "note": 62,
      "start": 7.9546,
      "duration": 0.0044,
      "velocity": 104,
      "chip": "ym2612"
    },
    {
      "channel": 0,
      "note": 62,
      "start": 7.9554,
      "duration": 0.0026,
      "velocity": 99,
      "chip": "ym2612"
    },
    {
      "channel": 2,
      "note": 50,
      "start": 7.9556,
      "duration": 0.0028,
      "velocity": 101,
      "chip": "ym2612"
    },
    {
      "channel": 0,
      "note": 57,
      "start": 7.9582,
      "duration": 0.0029,
      "velocity": 99,
      "chip": "ym2612"
    },
    {
      "channel": 1,
      "note": 64,
      "start": 7.9584,
      "duration": 0.0041,
      "velocity": 104,
      "chip": "ym2612"
    },
    {
      "channel": 2,
      "note": 45,
      "start": 7.9587,
      "duration": 0.003,
      "velocity": 101,
      "chip": "ym2612"
    },
    {
      "channel": 3,
      "note": 59,
      "start": 7.9589,
      "duration": 0.0039,
      "velocity": 104,
      "chip": "ym2612"
    },
    {
      "channel": 4,
      "note": 64,
      "start": 7.9592,
      "duration": 0.0038,
      "velocity": 104,
      "chip": "ym2612"
    },
    {
      "channel": 0,
      "note": 61,
      "start": 7.9614,
      "duration": 0.0681,
      "velocity": 99,
      "chip": "ym2612"
    },
    {
      "channel": 2,
      "note": 49,
      "start": 7.9618,
      "duration": 0.0682,
      "velocity": 101,
      "chip": "ym2612"
    },
    {
      "channel": 1,
      "note": 57,
      "start": 7.9627,
      "duration": 0.0749,
      "velocity": 104,
      "chip": "ym2612"
    },
    {
      "channel": 3,
      "note": 52,
      "start": 7.9629,
      "duration": 0.0752,
      "velocity": 104,
      "chip": "ym2612"
    },
    {
      "channel": 4,
      "note": 57,
      "start": 7.9631,
      "duration": 0.0752,
      "velocity": 104,
      "chip": "ym2612"
    },
    {
      "channel": 0,
      "note": 55,
      "start": 8.0297,
      "duration": 0.0076,
      "velocity": 99,
      "chip": "ym2612"
    },
    {
      "channel": 2,
      "note": 43,
      "start": 8.0302,
      "duration": 0.0076,
      "velocity": 101,
      "chip": "ym2612"
    },
    {
      "channel": 0,
      "note": 54,
      "start": 8.0376,
      "duration": 0.0678,
      "velocity": 99,
      "chip": "ym2612"
    },
    {
      "channel": 1,
      "note": 59,
      "start": 8.0378,
      "duration": 0.3046,
      "velocity": 104,
      "chip": "ym2612"
    },
    {
      "channel": 2,
      "note": 42,
      "start": 8.038,
      "duration": 0.0676,
      "velocity": 101,
      "chip": "ym2612"
    },
    {
      "channel": 3,
      "note": 54,
      "start": 8.0382,
      "duration": 0.3046,
      "velocity": 104,
      "chip": "ym2612"
    },
    {
      "channel": 4,
      "note": 59,
      "start": 8.0384,
      "duration": 0.3047,
      "velocity": 104,
      "chip": "ym2612"
    },
    {
      "channel": 0,
      "note": 57,
      "start": 8.1056,
      "duration": 0.0055,
      "velocity": 99,
      "chip": "ym2612"
    },
    {
      "channel": 2,
      "note": 45,
      "start": 8.1058,
      "duration": 0.0057,
      "velocity": 101,
      "chip": "ym2612"
    },
    {
      "channel": 0,
      "note": 52,
      "start": 8.1113,
      "duration": 0.068,
      "velocity": 99,
      "chip": "ym2612"
    },
    {
      "channel": 2,
      "note": 40,
      "start": 8.1117,
      "duration": 0.0679,
      "velocity": 101,
      "chip": "ym2612"
    },
    {
      "channel": 0,
      "note": 50,
      "start": 8.1795,
      "duration": 0.0037,
      "velocity": 99,
      "chip": "ym2612"
    },
    {
      "channel": 2,
      "note": 38,
      "start": 8.1798,
      "duration": 0.0039,
      "velocity": 101,
      "chip": "ym2612"
    },
    {
      "channel": 0,
      "note": 49,
      "start": 8.1835,
      "duration": 0.0033,
      "velocity": 99,
      "chip": "ym2612"
    },
    {
      "channel": 2,
      "note": 37,
      "start": 8.1839,
      "duration": 0.0033,
      "velocity": 101,
      "chip": "ym2612"
    },
    {
      "channel": 0,
      "note": 52,
      "start": 8.187,
      "duration": 0.0037,
      "velocity": 99,
      "chip": "ym2612"
    },
    {
      "channel": 2,
      "note": 40,
      "start": 8.1874,
      "duration": 0.0037,
      "velocity": 101,
      "chip": "ym2612"
    },
    {
      "channel": 0,
      "note": 54,
      "start": 8.191,
      "duration": 0.068,
      "velocity": 99,
      "chip": "ym2612"
    },
    {
      "channel": 2,
      "note": 42,
      "start": 8.1912,
      "duration": 0.0683,
      "velocity": 101,
      "chip": "ym2612"
    },
    {
      "channel": 0,
      "note": 55,
      "start": 8.2593,
      "duration": 0.0084,
      "velocity": 99,
      "chip": "ym2612"
    },
    {
      "channel": 2,
      "note": 43,
      "start": 8.2598,
      "duration": 0.0083,
      "velocity": 101,
      "chip": "ym2612"
    },
    {
      "channel": 0,
      "note": 57,
      "start": 8.2679,
      "duration": 0.0684,
      "velocity": 99,
      "chip": "ym2612"
    },
    {
      "channel": 2,
      "note": 45,
      "start": 8.2683,
      "duration": 0.0683,
      "velocity": 101,
      "chip": "ym2612"
    },
    {
      "channel": 0,
      "note": 59,
      "start": 8.3366,
      "duration": 0.0054,
      "velocity": 99,
      "chip": "ym2612"
    },
    {
      "channel": 2,
      "note": 47,
      "start": 8.3368,
      "duration": 0.0058,
      "velocity": 101,
      "chip": "ym2612"
    },
    {
      "channel": 0,
      "note": 57,
      "start": 8.3423,
      "duration": 0.0019,
      "velocity": 99,
      "chip": "ym2612"
    },
    {
      "channel": 1,
      "note": 57,
      "start": 8.3425,
      "duration": 0.002,
      "velocity": 104,
      "chip": "ym2612"
    },
    {
      "channel": 2,
      "note": 45,
      "start": 8.3428,
      "duration": 0.002,
      "velocity": 101,
      "chip": "ym2612"
    },
    {
      "channel": 3,
      "note": 52,
      "start": 8.3431,
      "duration": 0.002,
      "velocity": 104,
      "chip": "ym2612"
    },
    {
      "channel": 4,
      "note": 57,
      "start": 8.3434,
      "duration": 0.002,
      "velocity": 104,
      "chip": "ym2612"
    },
    {
      "channel": 0,
      "note": 59,
      "start": 8.3444,
      "duration": 0.0014,
      "velocity": 99,
      "chip": "ym2612"
    },
    {
      "channel": 1,
      "note": 59,
      "start": 8.3448,
      "duration": 0.0015,
      "velocity": 104,
      "chip": "ym2612"
    },
    {
      "channel": 2,
      "note": 47,
      "start": 8.345,
      "duration": 0.0014,
      "velocity": 101,
      "chip": "ym2612"
    },
    {
      "channel": 3,
      "note": 54,
      "start": 8.3453,
      "duration": 0.0014,
      "velocity": 104,
      "chip": "ym2612"
    },
    {
      "channel": 4,
      "note": 59,
      "start": 8.3456,
      "duration": 0.0013,
      "velocity": 104,
      "chip": "ym2612"
    },
    {
      "channel": 0,
      "note": 62,
      "start": 8.3461,
      "duration": 0.002,
      "velocity": 99,
      "chip": "ym2612"
    },
    {
      "channel": 1,
      "note": 62,
      "start": 8.3464,
      "duration": 0.0021,
      "velocity": 104,
      "chip": "ym2612"
    },
    {
      "channel": 2,
      "note": 50,
      "start": 8.3466,
      "duration": 0.0022,
      "velocity": 101,
      "chip": "ym2612"
    },
    {
      "channel": 3,
      "note": 57,
      "start": 8.3468,
      "duration": 0.0022,
      "velocity": 104,
      "chip": "ym2612"
    },
    {
      "channel": 4,
      "note": 62,
      "start": 8.3471,
      "duration": 0.0022,
      "velocity": 104,
      "chip": "ym2612"
    },
    {
      "channel": 0,
      "note": 59,
      "start": 8.3484,
      "duration": 0.0017,
      "velocity": 99,
      "chip": "ym2612"
    },
    {
      "channel": 1,
      "note": 59,
      "start": 8.3487,
      "duration": 0.0017,
      "velocity": 104,
      "chip": "ym2612"
    },
    {
      "channel": 2,
      "note": 47,
      "start": 8.349,
      "duration": 0.0018,
      "velocity": 101,
      "chip": "ym2612"
    },
    {
      "channel": 3,
      "note": 54,
      "start": 8.3492,
      "duration": 0.002,
      "velocity": 104,
      "chip": "ym2612"
    },
    {
      "channel": 4,
      "note": 59,
      "start": 8.3495,
      "duration": 0.0019,
      "velocity": 104,
      "chip": "ym2612"
    },
    {
      "channel": 0,
      "note": 62,
      "start": 8.3504,
      "duration": 0.0065,
      "velocity": 99,
      "chip": "ym2612"
    },
    {
      "channel": 1,
      "note": 62,
      "start": 8.3507,
      "duration": 0.0064,
      "velocity": 104,
      "chip": "ym2612"
    },
    {
      "channel": 2,
      "note": 50,
      "start": 8.3511,
      "duration": 0.0062,
      "velocity": 101,
      "chip": "ym2612"
    },
    {
      "channel": 3,
      "note": 57,
      "start": 8.3513,
      "duration": 0.0063,
      "velocity": 104,
      "chip": "ym2612"
    },
    {
      "channel": 4,
      "note": 62,
      "start": 8.3515,
      "duration": 0.0064,
      "velocity": 104,
      "chip": "ym2612"
    },
    {
      "channel": 0,
      "note": 64,
      "start": 8.3571,
      "duration": 0.0017,
      "velocity": 99,
      "chip": "ym2612"
    },
    {
      "channel": 1,
      "note": 64,
      "start": 8.3572,
      "duration": 0.0017,
      "velocity": 104,
      "chip": "ym2612"
    },
    {
      "channel": 2,
      "note": 52,
      "start": 8.3575,
      "duration": 0.0017,
      "velocity": 101,
      "chip": "ym2612"
    },
    {
      "channel": 3,
      "note": 59,
      "start": 8.3579,
      "duration": 0.0017,
      "velocity": 104,
      "chip": "ym2612"
    },
    {
      "channel": 4,
      "note": 64,
      "start": 8.3581,
      "duration": 0.0017,
      "velocity": 104,
      "chip": "ym2612"
    },
    {
      "channel": 0,
      "note": 66,
      "start": 8.3589,
      "duration": 0.0018,
      "velocity": 99,
      "chip": "ym2612"
    },
    {
      "channel": 1,
      "note": 66,
      "start": 8.3592,
      "duration": 0.0018,
      "velocity": 104,
      "chip": "ym2612"
    },
    {
      "channel": 2,
      "note": 54,
      "start": 8.3595,
      "duration": 0.0017,
      "velocity": 101,
      "chip": "ym2612"
    },
    {
      "channel": 3,
      "note": 61,
      "start": 8.3597,
      "duration": 0.0029,
      "velocity": 104,
      "chip": "ym2612"
    },
    {
      "channel": 4,
      "note": 66,
      "start": 8.36,
      "duration": 0.0028,
      "velocity": 104,
      "chip": "ym2612"
    },
    {
      "channel": 0,
      "note": 64,
      "start": 8.3609,
      "duration": 0.0027,
      "velocity": 99,
      "chip": "ym2612"
    },
    {
      "channel": 1,
      "note": 69,
      "start": 8.3612,
      "duration": 0.0026,
      "velocity": 104,
      "chip": "ym2612"
    },
    {
      "channel": 2,
      "note": 52,
      "start": 8.3615,
      "duration": 0.0023,
      "velocity": 101,
      "chip": "ym2612"
    },
    {
      "channel": 3,
      "note": 64,
      "start": 8.3627,
      "duration": 0.0011,
      "velocity": 104,
      "chip": "ym2612"
    },
    {
      "channel": 4,
      "note": 69,
      "start": 8.363,
      "duration": 0.0009,
      "velocity": 104,
      "chip": "ym2612"
    },
    {
      "channel": 1,
      "note": 52,
      "start": 8.4474,
      "duration": 0.0024,
      "velocity": 104,
      "chip": "ym2612"
    },
    {
      "channel": 3,
      "note": 47,
      "start": 8.4476,
      "duration": 0.0026,
      "velocity": 104,
      "chip": "ym2612"
    },
    {
      "channel": 4,
      "note": 52,
      "start": 8.4478,
      "duration": 0.0027,
      "velocity": 104,
      "chip": "ym2612"
    },
    {
      "channel": 1,
      "note": 54,
      "start": 8.4501,
      "duration": 0.0024,
      "velocity": 104,
      "chip": "ym2612"
    },
    {
      "channel": 3,
      "note": 49,
      "start": 8.4504,
      "duration": 0.0023,
      "velocity": 104,
      "chip": "ym2612"
    },
    {
      "channel": 4,
      "note": 54,
      "start": 8.4506,
      "duration": 0.0024,
      "velocity": 104,
      "chip": "ym2612"
    },
    {
      "channel": 1,
      "note": 59,
      "start": 8.4527,
      "duration": 0.0029,
      "velocity": 104,
      "chip": "ym2612"
    },
    {
      "channel": 3,
      "note": 54,
      "start": 8.453,
      "duration": 0.003,
      "velocity": 104,
      "chip": "ym2612"
    },
    {
      "channel": 4,
      "note": 59,
      "start": 8.4533,
      "duration": 0.003,
      "velocity": 104,
      "chip": "ym2612"
    },
    {
      "channel": 0,
      "note": 52,
      "start": 8.4555,
      "duration": 0.0675,
      "velocity": 99,
      "chip": "ym2612"
    },
    {
      "channel": 1,
      "note": 62,
      "start": 8.4557,
      "duration": 0.1542,
      "velocity": 104,
      "chip": "ym2612"
    },
    {
      "channel": 2,
      "note": 40,
      "start": 8.4559,
      "duration": 0.0673,
      "velocity": 101,
      "chip": "ym2612"
    },
    {
      "channel": 3,
      "note": 57,
      "start": 8.4562,
      "duration": 0.1542,
      "velocity": 104,
      "chip": "ym2612"
    },
    {
      "channel": 4,
      "note": 62,
      "start": 8.4564,
      "duration": 0.1542,
      "velocity": 104,
      "chip": "ym2612"
    },
    {
      "channel": 0,
      "note": 54,
      "start": 8.5232,
      "duration": 0.0029,
      "velocity": 99,
      "chip": "ym2612"
    },
    {
      "channel": 2,
      "note": 42,
      "start": 8.5235,
      "duration": 0.003,
      "velocity": 101,
      "chip": "ym2612"
    },
    {
      "channel": 0,
      "note": 55,
      "start": 8.5263,
      "duration": 0.0025,
      "velocity": 99,
      "chip": "ym2612"
    },
    {
      "channel": 2,
      "note": 43,
      "start": 8.5266,
      "duration": 0.0025,
      "velocity": 101,
      "chip": "ym2612"
    },
    {
      "channel": 0,
      "note": 57,
      "start": 8.529,
      "duration": 0.004,
      "velocity": 99,
      "chip": "ym2612"
    },
    {
      "channel": 2,
      "note": 45,
      "start": 8.5293,
      "duration": 0.0043,
      "velocity": 101,
      "chip": "ym2612"
    },
    {
      "channel": 0,
      "note": 59,
      "start": 8.5333,
      "duration": 0.0679,
      "velocity": 99,
      "chip": "ym2612"
    },
    {
      "channel": 2,
      "note": 47,
      "start": 8.5338,
      "duration": 0.068,
      "velocity": 101,
      "chip": "ym2612"
    },
    {
      "channel": 0,
      "note": 54,
      "start": 8.6015,
      "duration": 0.008,
      "velocity": 99,
      "chip": "ym2612"
    },
    {
      "channel": 2,
      "note": 42,
      "start": 8.6021,
      "duration": 0.0081,
      "velocity": 101,
      "chip": "ym2612"
    },
    {
      "channel": 0,
      "note": 52,
      "start": 8.6098,
      "duration": 0.0678,
      "velocity": 99,
      "chip": "ym2612"
    },
    {
      "channel": 1,
      "note": 64,
      "start": 8.6101,
      "duration": 0.0678,
      "velocity": 104,
      "chip": "ym2612"
    },
    {
      "channel": 2,
      "note": 40,
      "start": 8.6103,
      "duration": 0.0679,
      "velocity": 101,
      "chip": "ym2612"
    },
    {
      "channel": 3,
      "note": 59,
      "start": 8.6106,
      "duration": 0.0679,
      "velocity": 104,
      "chip": "ym2612"
    },
    {
      "channel": 4,
      "note": 64,
      "start": 8.6108,
      "duration": 0.068,
      "velocity": 104,
      "chip": "ym2612"
    },
    {
      "channel": 0,
      "note": 50,
      "start": 8.6778,
      "duration": 0.0029,
      "velocity": 99,
      "chip": "ym2612"
    },
    {
      "channel": 1,
      "note": 59,
      "start": 8.6781,
      "duration": 0.0029,
      "velocity": 104,
      "chip": "ym2612"
    },
    {
      "channel": 2,
      "note": 38,
      "start": 8.6784,
      "duration": 0.0029,
      "velocity": 101,
      "chip": "ym2612"
    },
    {
      "channel": 3,
      "note": 54,
      "start": 8.6787,
      "duration": 0.0028,
      "velocity": 104,
      "chip": "ym2612"
    },
    {
      "channel": 4,
      "note": 59,
      "start": 8.679,
      "duration": 0.0027,
      "velocity": 104,
      "chip": "ym2612"
    },
    {
      "channel": 0,
      "note": 52,
      "start": 8.681,
      "duration": 0.0682,
      "velocity": 99,
      "chip": "ym2612"
    },
    {
      "channel": 1,
      "note": 62,
      "start": 8.6812,
      "duration": 0.001,
      "velocity": 104,
      "chip": "ym2612"
    },
    {
      "channel": 2,
      "note": 40,
      "start": 8.6814,
      "duration": 0.0682,
      "velocity": 101,
      "chip": "ym2612"
    },
    {
      "channel": 3,
      "note": 57,
      "start": 8.6816,
      "duration": 0.0008,
      "velocity": 104,
      "chip": "ym2612"
    },
    {
      "channel": 4,
      "note": 62,
      "start": 8.6819,
      "duration": 0.0008,
      "velocity": 104,
      "chip": "ym2612"
    },
    {
      "channel": 1,
      "note": 64,
      "start": 8.6824,
      "duration": 0.0671,
      "velocity": 104,
      "chip": "ym2612"
    },
    {
      "channel": 3,
      "note": 59,
      "start": 8.6826,
      "duration": 0.0673,
      "velocity": 104,
      "chip": "ym2612"
    },
    {
      "channel": 4,
      "note": 64,
      "start": 8.6828,
      "duration": 0.0673,
      "velocity": 104,
      "chip": "ym2612"
    },
    {
      "channel": 0,
      "note": 55,
      "start": 8.7494,
      "duration": 0.0028,
      "velocity": 99,
      "chip": "ym2612"
    },
    {
      "channel": 1,
      "note": 62,
      "start": 8.7496,
      "duration": 0.0014,
      "velocity": 104,
      "chip": "ym2612"
    },
    {
      "channel": 2,
      "note": 43,
      "start": 8.7498,
      "duration": 0.0026,
      "velocity": 101,
      "chip": "ym2612"
    },
    {
      "channel": 3,
      "note": 57,
      "start": 8.7501,
      "duration": 0.0012,
      "velocity": 104,
      "chip": "ym2612"
    },
    {
      "channel": 4,
      "note": 62,
      "start": 8.7503,
      "duration": 0.0012,
      "velocity": 104,
      "chip": "ym2612"
    },
    {
      "channel": 1,
      "note": 61,
      "start": 8.7511,
      "duration": 0.0849,
      "velocity": 104,
      "chip": "ym2612"
    },
    {
      "channel": 3,
      "note": 54,
      "start": 8.7515,
      "duration": 0.0849,
      "velocity": 104,
      "chip": "ym2612"
    },
    {
      "channel": 4,
      "note": 61,
      "start": 8.7517,
      "duration": 0.0848,
      "velocity": 104,
      "chip": "ym2612"
    },
    {
      "channel": 0,
      "note": 57,
      "start": 8.7524,
      "duration": 0.0032,
      "velocity": 99,
      "chip": "ym2612"
    },
    {
      "channel": 2,
      "note": 45,
      "start": 8.7526,
      "duration": 0.0034,
      "velocity": 101,
      "chip": "ym2612"
    },
    {
      "channel": 0,
      "note": 58,
      "start": 8.7558,
      "duration": 0.0038,
      "velocity": 99,
      "chip": "ym2612"
    },
    {
      "channel": 2,
      "note": 46,
      "start": 8.7562,
      "duration": 0.0039,
      "velocity": 101,
      "chip": "ym2612"
    },
    {
      "channel": 0,
      "note": 59,
      "start": 8.7599,
      "duration": 0.0681,
      "velocity": 99,
      "chip": "ym2612"
    },
    {
      "channel": 2,
      "note": 47,
      "start": 8.7603,
      "duration": 0.0682,
      "velocity": 101,
      "chip": "ym2612"
    },
    {
      "channel": 0,
      "note": 61,
      "start": 8.8282,
      "duration": 0.0075,
      "velocity": 99,
      "chip": "ym2612"
    },
    {
      "channel": 2,
      "note": 49,
      "start": 8.8287,
      "duration": 0.0074,
      "velocity": 101,
      "chip": "ym2612"
    },
    {
      "channel": 0,
      "note": 62,
      "start": 8.8359,
      "duration": 0.0678,
      "velocity": 99,
      "chip": "ym2612"
    },
    {
      "channel": 1,
      "note": 57,
      "start": 8.8361,
      "duration": 0.0706,
      "velocity": 104,
      "chip": "ym2612"
    },
    {
      "channel": 2,
      "note": 50,
      "start": 8.8363,
      "duration": 0.0678,
      "velocity": 101,
      "chip": "ym2612"
    },
    {
      "channel": 3,
      "note": 52,
      "start": 8.8365,
      "duration": 0.0706,
      "velocity": 104,
      "chip": "ym2612"
    },
    {
      "channel": 4,
      "note": 57,
      "start": 8.8367,
      "duration": 0.0707,
      "velocity": 104,
      "chip": "ym2612"
    },
    {
      "channel": 0,
      "note": 59,
      "start": 8.904,
      "duration": 0.0048,
      "velocity": 99,
      "chip": "ym2612"
    },
    {
      "channel": 2,
      "note": 47,
      "start": 8.9042,
      "duration": 0.0051,
      "velocity": 101,
      "chip": "ym2612"
    },
    {
      "channel": 1,
      "note": 59,
      "start": 8.9069,
      "duration": 0.1753,
      "velocity": 104,
      "chip": "ym2612"
    },
    {
      "channel": 3,
      "note": 54,
      "start": 8.9073,
      "duration": 0.1753,
      "velocity": 104,
      "chip": "ym2612"
    },
    {
      "channel": 4,
      "note": 59,
      "start": 8.9076,
      "duration": 0.1753,
      "velocity": 104,
      "chip": "ym2612"
    },
    {
      "channel": 0,
      "note": 64,
      "start": 8.909,
      "duration": 0.0842,
      "velocity": 99,
      "chip": "ym2612"
    },
    {
      "channel": 2,
      "note": 52,
      "start": 8.9095,
      "duration": 0.084,
      "velocity": 101,
      "chip": "ym2612"
    },
    {
      "channel": 0,
      "note": 64,
      "start": 8.9934,
      "duration": 0.0038,
      "velocity": 99,
      "chip": "ym2612"
    },
    {
      "channel": 2,
      "note": 52,
      "start": 8.9936,
      "duration": 0.0041,
      "velocity": 101,
      "chip": "ym2612"
    },
    {
      "channel": 0,
      "note": 62,
      "start": 8.9974,
      "duration": 0.0037,
      "velocity": 99,
      "chip": "ym2612"
    },
    {
      "channel": 2,
      "note": 50,
      "start": 8.9978,
      "duration": 0.0037,
      "velocity": 101,
      "chip": "ym2612"
    },
    {
      "channel": 0,
      "note": 62,
      "start": 9.0013,
      "duration": 0.0037,
      "velocity": 99,
      "chip": "ym2612"
    },
    {
      "channel": 2,
      "note": 50,
      "start": 9.0015,
      "duration": 0.004,
      "velocity": 101,
      "chip": "ym2612"
    },
    {
      "channel": 0,
      "note": 61,
      "start": 9.0053,
      "duration": 0.0679,
      "velocity": 99,
      "chip": "ym2612"
    },
    {
      "channel": 2,
      "note": 49,
      "start": 9.0057,
      "duration": 0.068,
      "velocity": 101,
      "chip": "ym2612"
    },
    {
      "channel": 0,
      "note": 61,
      "start": 9.0735,
      "duration": 0.0084,
      "velocity": 99,
      "chip": "ym2612"
    },
    {
      "channel": 2,
      "note": 49,
      "start": 9.074,
      "duration": 0.0084,
      "velocity": 101,
      "chip": "ym2612"
    },
    {
      "channel": 0,
      "note": 57,
      "start": 9.0821,
      "duration": 0.0679,
      "velocity": 99,
      "chip": "ym2612"
    },
    {
      "channel": 1,
      "note": 62,
      "start": 9.0823,
      "duration": 0.0679,
      "velocity": 104,
      "chip": "ym2612"
    },
    {
      "channel": 2,
      "note": 45,
      "start": 9.0826,
      "duration": 0.068,
      "velocity": 101,
      "chip": "ym2612"
    },
    {
      "channel": 3,
      "note": 57,
      "start": 9.0828,
      "duration": 0.0679,
      "velocity": 104,
      "chip": "ym2612"
    },
    {
      "channel": 4,
      "note": 62,
      "start": 9.083,
      "duration": 0.068,
      "velocity": 104,
      "chip": "ym2612"
    },
    {
      "channel": 0,
      "note": 57,
      "start": 9.1502,
      "duration": 0.0042,
      "velocity": 99,
      "chip": "ym2612"
    },
    {
      "channel": 1,
      "note": 59,
      "start": 9.1504,
      "duration": 0.0042,
      "velocity": 104,
      "chip": "ym2612"
    },
    {
      "channel": 2,
      "note": 45,
      "start": 9.1506,
      "duration": 0.0042,
      "velocity": 101,
      "chip": "ym2612"
    },
    {
      "channel": 3,
      "note": 54,
      "start": 9.1509,
      "duration": 0.0042,
      "velocity": 104,
      "chip": "ym2612"
    },
    {
      "channel": 4,
      "note": 59,
      "start": 9.1512,
      "duration": 0.0041,
      "velocity": 104,
      "chip": "ym2612"
    },
    {
      "channel": 0,
      "note": 59,
      "start": 9.1546,
      "duration": 0.0678,
      "velocity": 99,
      "chip": "ym2612"
    },
    {
      "channel": 1,
      "note": 64,
      "start": 9.1548,
      "duration": 0.0718,
      "velocity": 104,
      "chip": "ym2612"
    },
    {
      "channel": 2,
      "note": 47,
      "start": 9.155,
      "duration": 0.0679,
      "velocity": 101,
      "chip": "ym2612"
    },
    {
      "channel": 3,
      "note": 59,
      "start": 9.1552,
      "duration": 0.0716,
      "velocity": 104,
      "chip": "ym2612"
    },
    {
      "channel": 4,
      "note": 64,
      "start": 9.1555,
      "duration": 0.0716,
      "velocity": 104,
      "chip": "ym2612"
    },
    {
      "channel": 0,
      "note": 57,
      "start": 9.2227,
      "duration": 0.0069,
      "velocity": 99,
      "chip": "ym2612"
    },
    {
      "channel": 2,
      "note": 45,
      "start": 9.2232,
      "duration": 0.0067,
      "velocity": 101,
      "chip": "ym2612"
    },
    {
      "channel": 1,
      "note": 59,
      "start": 9.2267,
      "duration": 0.0145,
      "velocity": 104,
      "chip": "ym2612"
    },
    {
      "channel": 3,
      "note": 54,
      "start": 9.227,
      "duration": 0.0145,
      "velocity": 104,
      "chip": "ym2612"
    },
    {
      "channel": 4,
      "note": 59,
      "start": 9.2272,
      "duration": 0.0143,
      "velocity": 104,
      "chip": "ym2612"
    },
    {
      "channel": 0,
      "note": 55,
      "start": 9.2298,
      "duration": 0.0029,
      "velocity": 99,
      "chip": "ym2612"
    },
    {
      "channel": 2,
      "note": 43,
      "start": 9.23,
      "duration": 0.0032,
      "velocity": 101,
      "chip": "ym2612"
    },
    {
      "channel": 0,
      "note": 54,
      "start": 9.2329,
      "duration": 0.008,
      "velocity": 99,
      "chip": "ym2612"
    },
    {
      "channel": 2,
      "note": 42,
      "start": 9.2335,
      "duration": 0.0078,
      "velocity": 101,
      "chip": "ym2612"
    },
    {
      "channel": 0,
      "note": 52,
      "start": 9.2412,
      "duration": 0.0695,
      "velocity": 99,
      "chip": "ym2612"
    },
    {
      "channel": 2,
      "note": 40,
      "start": 9.2414,
      "duration": 0.0696,
      "velocity": 101,
      "chip": "ym2612"
    },
    {
      "channel": 0,
      "note": 54,
      "start": 9.3109,
      "duration": 0.0055,
      "velocity": 99,
      "chip": "ym2612"
    },
    {
      "channel": 2,
      "note": 42,
      "start": 9.3112,
      "duration": 0.0056,
      "velocity": 101,
      "chip": "ym2612"
    },
    {
      "channel": 0,
      "note": 55,
      "start": 9.3167,
      "duration": 0.0063,
      "velocity": 99,
      "chip": "ym2612"
    },
    {
      "channel": 2,
      "note": 43,
      "start": 9.3171,
      "duration": 0.0065,
      "velocity": 101,
      "chip": "ym2612"
    },
    {
      "channel": 1,
      "note": 52,
      "start": 9.3197,
      "duration": 0.0037,
      "velocity": 104,
      "chip": "ym2612"
    },
    {
      "channel": 3,
      "note": 47,
      "start": 9.3201,
      "duration": 0.0037,
      "velocity": 104,
      "chip": "ym2612"
    },
    {
      "channel": 4,
      "note": 52,
      "start": 9.3204,
      "duration": 0.0037,
      "velocity": 104,
      "chip": "ym2612"
    },
    {
      "channel": 0,
      "note": 57,
      "start": 9.3233,
      "duration": 0.003,
      "velocity": 99,
      "chip": "ym2612"
    },
    {
      "channel": 1,
      "note": 54,
      "start": 9.3234,
      "duration": 0.0015,
      "velocity": 104,
      "chip": "ym2612"
    },
    {
      "channel": 2,
      "note": 45,
      "start": 9.3237,
      "duration": 0.0031,
      "velocity": 101,
      "chip": "ym2612"
    },
    {
      "channel": 3,
      "note": 49,
      "start": 9.3241,
      "duration": 0.0012,
      "velocity": 104,
      "chip": "ym2612"
    },
    {
      "channel": 4,
      "note": 54,
      "start": 9.3243,
      "duration": 0.0012,
      "velocity": 104,
      "chip": "ym2612"
    },
    {
      "channel": 1,
      "note": 59,
      "start": 9.3251,
      "duration": 0.0014,
      "velocity": 104,
      "chip": "ym2612"
    },
    {
      "channel": 3,
      "note": 54,
      "start": 9.3254,
      "duration": 0.0016,
      "velocity": 104,
      "chip": "ym2612"
    },
    {
      "channel": 4,
      "note": 59,
      "start": 9.3258,
      "duration": 0.0014,
      "velocity": 104,
      "chip": "ym2612"
    },
    {
      "channel": 0,
      "note": 52,
      "start": 9.3265,
      "duration": 0.0677,
      "velocity": 99,
      "chip": "ym2612"
    },
    {
      "channel": 1,
      "note": 62,
      "start": 9.3267,
      "duration": 0.1546,
      "velocity": 104,
      "chip": "ym2612"
    },
    {
      "channel": 2,
      "note": 40,
      "start": 9.3269,
      "duration": 0.0675,
      "velocity": 101,
      "chip": "ym2612"
    },
    {
      "channel": 3,
      "note": 57,
      "start": 9.3271,
      "duration": 0.1547,
      "velocity": 104,
      "chip": "ym2612"
    },
    {
      "channel": 4,
      "note": 62,
      "start": 9.3274,
      "duration": 0.1547,
      "velocity": 104,
      "chip": "ym2612"
    },
    {
      "channel": 0,
      "note": 54,
      "start": 9.3944,
      "duration": 0.0032,
      "velocity": 99,
      "chip": "ym2612"
    },
    {
      "channel": 2,
      "note": 42,
      "start": 9.3946,
      "duration": 0.0034,
      "velocity": 101,
      "chip": "ym2612"
    },
    {
      "channel": 0,
      "note": 52,
      "start": 9.3978,
      "duration": 0.0026,
      "velocity": 99,
      "chip": "ym2612"
    },
    {
      "channel": 2,
      "note": 40,
      "start": 9.3982,
      "duration": 0.0027,
      "velocity": 101,
      "chip": "ym2612"
    },
    {
      "channel": 0,
      "note": 55,
      "start": 9.4007,
      "duration": 0.0043,
      "velocity": 99,
      "chip": "ym2612"
    },
    {
      "channel": 2,
      "note": 43,
      "start": 9.4011,
      "duration": 0.0041,
      "velocity": 101,
      "chip": "ym2612"
    },
    {
      "channel": 0,
      "note": 57,
      "start": 9.4052,
      "duration": 0.0677,
      "velocity": 99,
      "chip": "ym2612"
    },
    {
      "channel": 2,
      "note": 45,
      "start": 9.4054,
      "duration": 0.068,
      "velocity": 101,
      "chip": "ym2612"
    },
    {
      "channel": 0,
      "note": 59,
      "start": 9.4732,
      "duration": 0.0078,
      "velocity": 99,
      "chip": "ym2612"
    },
    {
      "channel": 2,
      "note": 47,
      "start": 9.4737,
      "duration": 0.0079,
      "velocity": 101,
      "chip": "ym2612"
    },
    {
      "channel": 0,
      "note": 67,
      "start": 9.4813,
      "duration": 0.0846,
      "velocity": 99,
      "chip": "ym2612"
    },
    {
      "channel": 1,
      "note": 64,
      "start": 9.4816,
      "duration": 0.0845,
      "velocity": 104,
      "chip": "ym2612"
    },
    {
      "channel": 2,
      "note": 55,
      "start": 9.4818,
      "duration": 0.0846,
      "velocity": 101,
      "chip": "ym2612"
    },
    {
      "channel": 3,
      "note": 59,
      "start": 9.482,
      "duration": 0.0847,
      "velocity": 104,
      "chip": "ym2612"
    },
    {
      "channel": 4,
      "note": 64,
      "start": 9.4822,
      "duration": 0.0848,
      "velocity": 104,
      "chip": "ym2612"
    },
    {
      "channel": 0,
      "note": 66,
      "start": 9.566,
      "duration": 0.0035,
      "velocity": 99,
      "chip": "ym2612"
    },
    {
      "channel": 1,
      "note": 66,
      "start": 9.5663,
      "duration": 0.0035,
      "velocity": 104,
      "chip": "ym2612"
    },
    {
      "channel": 2,
      "note": 54,
      "start": 9.5666,
      "duration": 0.0034,
      "velocity": 101,
      "chip": "ym2612"
    },
    {
      "channel": 3,
      "note": 61,
      "start": 9.5669,
      "duration": 0.0034,
      "velocity": 104,
      "chip": "ym2612"
    },
    {
      "channel": 4,
      "note": 66,
      "start": 9.5672,
      "duration": 0.0033,
      "velocity": 104,
      "chip": "ym2612"
    },
    {
      "channel": 0,
      "note": 64,
      "start": 9.5698,
      "duration": 0.0679,
      "velocity": 99,
      "chip": "ym2612"
    },
    {
      "channel": 1,
      "note": 67,
      "start": 9.57,
      "duration": 0.0695,
      "velocity": 104,
      "chip": "ym2612"
    },
    {
      "channel": 2,
      "note": 52,
      "start": 9.5702,
      "duration": 0.0678,
      "velocity": 101,
      "chip": "ym2612"
    },
    {
      "channel": 3,
      "note": 62,
      "start": 9.5705,
      "duration": 0.0693,
      "velocity": 104,
      "chip": "ym2612"
    },
    {
      "channel": 4,
      "note": 67,
      "start": 9.5707,
      "duration": 0.0692,
      "velocity": 104,
      "chip": "ym2612"
    },
    {
      "channel": 0,
      "note": 59,
      "start": 9.6379,
      "duration": 0.0027,
      "velocity": 99,
      "chip": "ym2612"
    },
    {
      "channel": 2,
      "note": 47,
      "start": 9.6382,
      "duration": 0.0028,
      "velocity": 101,
      "chip": "ym2612"
    },
    {
      "channel": 1,
      "note": 62,
      "start": 9.6396,
      "duration": 0.0042,
      "velocity": 104,
      "chip": "ym2612"
    },
    {
      "channel": 3,
      "note": 57,
      "start": 9.6399,
      "duration": 0.0046,
      "velocity": 104,
      "chip": "ym2612"
    },
    {
      "channel": 4,
      "note": 62,
      "start": 9.6402,
      "duration": 0.0045,
      "velocity": 104,
      "chip": "ym2612"
    },
    {
      "channel": 0,
      "note": 62,
      "start": 9.6409,
      "duration": 0.0026,
      "velocity": 99,
      "chip": "ym2612"
    },
    {
      "channel": 2,
      "note": 50,
      "start": 9.6412,
      "duration": 0.0029,
      "velocity": 101,
      "chip": "ym2612"
    },
    {
      "channel": 0,
      "note": 57,
      "start": 9.6437,
      "duration": 0.0029,
      "velocity": 99,
      "chip": "ym2612"
    },
    {
      "channel": 1,
      "note": 64,
      "start": 9.6441,
      "duration": 0.0039,
      "velocity": 104,
      "chip": "ym2612"
    },
    {
      "channel": 2,
      "note": 45,
      "start": 9.6443,
      "duration": 0.0027,
      "velocity": 101,
      "chip": "ym2612"
    },
    {
      "channel": 3,
      "note": 59,
      "start": 9.6446,
      "duration": 0.0036,
      "velocity": 104,
      "chip": "ym2612"
    },
    {
      "channel": 4,
      "note": 64,
      "start": 9.6449,
      "duration": 0.0036,
      "velocity": 104,
      "chip": "ym2612"
    },
    {
      "channel": 0,
      "note": 61,
      "start": 9.6469,
      "duration": 0.0683,
      "velocity": 99,
      "chip": "ym2612"
    },
    {
      "channel": 2,
      "note": 49,
      "start": 9.6471,
      "duration": 0.0685,
      "velocity": 101,
      "chip": "ym2612"
    },
    {
      "channel": 1,
      "note": 57,
      "start": 9.6482,
      "duration": 0.0744,
      "velocity": 104,
      "chip": "ym2612"
    },
    {
      "channel": 3,
      "note": 52,
      "start": 9.6484,
      "duration": 0.0746,
      "velocity": 104,
      "chip": "ym2612"
    },
    {
      "channel": 4,
      "note": 57,
      "start": 9.6486,
      "duration": 0.0746,
      "velocity": 104,
      "chip": "ym2612"
    },
    {
      "channel": 0,
      "note": 55,
      "start": 9.7154,
      "duration": 0.0068,
      "velocity": 99,
      "chip": "ym2612"
    },
    {
      "channel": 2,
      "note": 43,
      "start": 9.7159,
      "duration": 0.0068,
      "velocity": 101,
      "chip": "ym2612"
    },
    {
      "channel": 0,
      "note": 54,
      "start": 9.7225,
      "duration": 0.068,
      "velocity": 99,
      "chip": "ym2612"
    },
    {
      "channel": 1,
      "note": 59,
      "start": 9.7227,
      "duration": 0.306,
      "velocity": 104,
      "chip": "ym2612"
    },
    {
      "channel": 2,
      "note": 42,
      "start": 9.7229,
      "duration": 0.0678,
      "velocity": 101,
      "chip": "ym2612"
    },
    {
      "channel": 3,
      "note": 54,
      "start": 9.7232,
      "duration": 0.306,
      "velocity": 104,
      "chip": "ym2612"
    },
    {
      "channel": 4,
      "note": 59,
      "start": 9.7234,
      "duration": 0.306,
      "velocity": 104,
      "chip": "ym2612"
    },
    {
      "channel": 0,
      "note": 57,
      "start": 9.7907,
      "duration": 0.0047,
      "velocity": 99,
      "chip": "ym2612"
    },
    {
      "channel": 2,
      "note": 45,
      "start": 9.791,
      "duration": 0.0047,
      "velocity": 101,
      "chip": "ym2612"
    },
    {
      "channel": 0,
      "note": 52,
      "start": 9.7956,
      "duration": 0.0683,
      "velocity": 99,
      "chip": "ym2612"
    },
    {
      "channel": 2,
      "note": 40,
      "start": 9.7959,
      "duration": 0.0684,
      "velocity": 101,
      "chip": "ym2612"
    },
    {
      "channel": 0,
      "note": 50,
      "start": 9.8641,
      "duration": 0.0045,
      "velocity": 99,
      "chip": "ym2612"
    },
    {
      "channel": 2,
      "note": 38,
      "start": 9.8645,
      "duration": 0.0044,
      "velocity": 101,
      "chip": "ym2612"
    },
    {
      "channel": 0,
      "note": 49,
      "start": 9.8689,
      "duration": 0.0037,
      "velocity": 99,
      "chip": "ym2612"
    },
    {
      "channel": 2,
      "note": 37,
      "start": 9.8691,
      "duration": 0.0039,
      "velocity": 101,
      "chip": "ym2612"
    },
    {
      "channel": 0,
      "note": 52,
      "start": 9.8728,
      "duration": 0.004,
      "velocity": 99,
      "chip": "ym2612"
    },
    {
      "channel": 2,
      "note": 40,
      "start": 9.8732,
      "duration": 0.0042,
      "velocity": 101,
      "chip": "ym2612"
    },
    {
      "channel": 0,
      "note": 54,
      "start": 9.877,
      "duration": 0.068,
      "velocity": 99,
      "chip": "ym2612"
    },
    {
      "channel": 2,
      "note": 42,
      "start": 9.8775,
      "duration": 0.068,
      "velocity": 101,
      "chip": "ym2612"
    },
    {
      "channel": 0,
      "note": 55,
      "start": 9.9453,
      "duration": 0.0088,
      "velocity": 99,
      "chip": "ym2612"
    },
    {
      "channel": 2,
      "note": 43,
      "start": 9.9458,
      "duration": 0.0086,
      "velocity": 101,
      "chip": "ym2612"
    },
    {
      "channel": 0,
      "note": 57,
      "start": 9.9544,
      "duration": 0.0683,
      "velocity": 99,
      "chip": "ym2612"
    },
    {
      "channel": 2,
      "note": 45,
      "start": 9.9545,
      "duration": 0.0683,
      "velocity": 101,
      "chip": "ym2612"
    },
    {
      "channel": 0,
      "note": 59,
      "start": 10.0228,
      "duration": 0.0056,
      "velocity": 99,
      "chip": "ym2612"
    },
    {
      "channel": 2,
      "note": 47,
      "start": 10.023,
      "duration": 0.0059,
      "velocity": 101,
      "chip": "ym2612"
    },
    {
      "channel": 0,
      "note": 57,
      "start": 10.0286,
      "duration": 0.0019,
      "velocity": 99,
      "chip": "ym2612"
    },
    {
      "channel": 1,
      "note": 57,
      "start": 10.0289,
      "duration": 0.002,
      "velocity": 104,
      "chip": "ym2612"
    },
    {
      "channel": 2,
      "note": 45,
      "start": 10.0291,
      "duration": 0.0019,
      "velocity": 101,
      "chip": "ym2612"
    },
    {
      "channel": 3,
      "note": 52,
      "start": 10.0294,
      "duration": 0.0018,
      "velocity": 104,
      "chip": "ym2612"
    },
    {
      "channel": 4,
      "note": 57,
      "start": 10.0297,
      "duration": 0.0018,
      "velocity": 104,
      "chip": "ym2612"
    },
    {
      "channel": 0,
      "note": 59,
      "start": 10.0308,
      "duration": 0.0012,
      "velocity": 99,
      "chip": "ym2612"
    },
    {
      "channel": 1,
      "note": 59,
      "start": 10.031,
      "duration": 0.0013,
      "velocity": 104,
      "chip": "ym2612"
    },
    {
      "channel": 2,
      "note": 47,
      "start": 10.0312,
      "duration": 0.0012,
      "velocity": 101,
      "chip": "ym2612"
    },
    {
      "channel": 3,
      "note": 54,
      "start": 10.0314,
      "duration": 0.0013,
      "velocity": 104,
      "chip": "ym2612"
    },
    {
      "channel": 4,
      "note": 59,
      "start": 10.0316,
      "duration": 0.0013,
      "velocity": 104,
      "chip": "ym2612"
    },
    {
      "channel": 0,
      "note": 62,
      "start": 10.0322,
      "duration": 0.0018,
      "velocity": 99,
      "chip": "ym2612"
    },
    {
      "channel": 1,
      "note": 62,
      "start": 10.0324,
      "duration": 0.0019,
      "velocity": 104,
      "chip": "ym2612"
    },
    {
      "channel": 2,
      "note": 50,
      "start": 10.0326,
      "duration": 0.0019,
      "velocity": 101,
      "chip": "ym2612"
    },
    {
      "channel": 3,
      "note": 57,
      "start": 10.0329,
      "duration": 0.0019,
      "velocity": 104,
      "chip": "ym2612"
    },
    {
      "channel": 4,
      "note": 62,
      "start": 10.0332,
      "duration": 0.0019,
      "velocity": 104,
      "chip": "ym2612"
    },
    {
      "channel": 0,
      "note": 59,
      "start": 10.0342,
      "duration": 0.0017,
      "velocity": 99,
      "chip": "ym2612"
    },
    {
      "channel": 1,
      "note": 59,
      "start": 10.0345,
      "duration": 0.0018,
      "velocity": 104,
      "chip": "ym2612"
    },
    {
      "channel": 2,
      "note": 47,
      "start": 10.0347,
      "duration": 0.002,
      "velocity": 101,
      "chip": "ym2612"
    },
    {
      "channel": 3,
      "note": 54,
      "start": 10.035,
      "duration": 0.002,
      "velocity": 104,
      "chip": "ym2612"
    },
    {
      "channel": 4,
      "note": 59,
      "start": 10.0351,
      "duration": 0.0021,
      "velocity": 104,
      "chip": "ym2612"
    },
    {
      "channel": 0,
      "note": 62,
      "start": 10.0362,
      "duration": 0.0065,
      "velocity": 99,
      "chip": "ym2612"
    },
    {
      "channel": 1,
      "note": 62,
      "start": 10.0365,
      "duration": 0.0065,
      "velocity": 104,
      "chip": "ym2612"
    },
    {
      "channel": 2,
      "note": 50,
      "start": 10.0369,
      "duration": 0.0064,
      "velocity": 101,
      "chip": "ym2612"
    },
    {
      "channel": 3,
      "note": 57,
      "start": 10.0372,
      "duration": 0.0063,
      "velocity": 104,
      "chip": "ym2612"
    },
    {
      "channel": 4,
      "note": 62,
      "start": 10.0374,
      "duration": 0.0063,
      "velocity": 104,
      "chip": "ym2612"
    },
    {
      "channel": 0,
      "note": 64,
      "start": 10.043,
      "duration": 0.0016,
      "velocity": 99,
      "chip": "ym2612"
    },
    {
      "channel": 1,
      "note": 64,
      "start": 10.0432,
      "duration": 0.0016,
      "velocity": 104,
      "chip": "ym2612"
    },
    {
      "channel": 2,
      "note": 52,
      "start": 10.0435,
      "duration": 0.0016,
      "velocity": 101,
      "chip": "ym2612"
    },
    {
      "channel": 3,
      "note": 59,
      "start": 10.0437,
      "duration": 0.0017,
      "velocity": 104,
      "chip": "ym2612"
    },
    {
      "channel": 4,
      "note": 64,
      "start": 10.044,
      "duration": 0.0016,
      "velocity": 104,
      "chip": "ym2612"
    },
    {
      "channel": 0,
      "note": 66,
      "start": 10.0448,
      "duration": 0.0017,
      "velocity": 99,
      "chip": "ym2612"
    },
    {
      "channel": 1,
      "note": 66,
      "start": 10.045,
      "duration": 0.0017,
      "velocity": 104,
      "chip": "ym2612"
    },
    {
      "channel": 2,
      "note": 54,
      "start": 10.0453,
      "duration": 0.0017,
      "velocity": 101,
      "chip": "ym2612"
    },
    {
      "channel": 3,
      "note": 61,
      "start": 10.0456,
      "duration": 0.0017,
      "velocity": 104,
      "chip": "ym2612"
    },
    {
      "channel": 4,
      "note": 66,
      "start": 10.0459,
      "duration": 0.0016,
      "velocity": 104,
      "chip": "ym2612"
    },
    {
      "channel": 0,
      "note": 64,
      "start": 10.0467,
      "duration": 0.0015,
      "velocity": 99,
      "chip": "ym2612"
    },
    {
      "channel": 1,
      "note": 64,
      "start": 10.0469,
      "duration": 0.0014,
      "velocity": 104,
      "chip": "ym2612"
    },
    {
      "channel": 2,
      "note": 52,
      "start": 10.0471,
      "duration": 0.0013,
      "velocity": 101,
      "chip": "ym2612"
    },
    {
      "channel": 3,
      "note": 59,
      "start": 10.0474,
      "duration": 0.0011,
      "velocity": 104,
      "chip": "ym2612"
    },
    {
      "channel": 4,
      "note": 64,
      "start": 10.0476,
      "duration": 0.0009,
      "velocity": 104,
      "chip": "ym2612"
    },
    {
      "channel": 0,
      "note": 57,
      "start": 10.1402,
      "duration": 0.0684,
      "velocity": 99,
      "chip": "ym2612"
    },
    {
      "channel": 2,
      "note": 67,
      "start": 10.1426,
      "duration": 0.2834,
      "velocity": 58,
      "chip": "ym2612"
    },
    {
      "channel": 4,
      "note": 60,
      "start": 10.1449,
      "duration": 1.1561,
      "velocity": 56,
      "chip": "ym2612"
    },
    {
      "channel": 1,
      "note": 78,
      "start": 10.1451,
      "duration": 0.0637,
      "velocity": 95,
      "chip": "ym2612"
    },
    {
      "channel": 3,
      "note": 74,
      "start": 10.1453,
      "duration": 0.0641,
      "velocity": 95,
      "chip": "ym2612"
    },
    {
      "channel": 0,
      "note": 59,
      "start": 10.2088,
      "duration": 0.2168,
      "velocity": 99,
      "chip": "ym2612"
    },
    {
      "channel": 1,
      "note": 79,
      "start": 10.2091,
      "duration": 0.0997,
      "velocity": 95,
      "chip": "ym2612"
    },
    {
      "channel": 3,
      "note": 76,
      "start": 10.2096,
      "duration": 0.0997,
      "velocity": 95,
      "chip": "ym2612"
    },
    {
      "channel": 1,
      "note": 81,
      "start": 10.3091,
      "duration": 0.1167,
      "velocity": 95,
      "chip": "ym2612"
    },
    {
      "channel": 3,
      "note": 76,
      "start": 10.3096,
      "duration": 0.1167,
      "velocity": 95,
      "chip": "ym2612"
    },
    {
      "channel": 0,
      "note": 60,
      "start": 10.4258,
      "duration": 0.0687,
      "velocity": 99,
      "chip": "ym2612"
    },
    {
      "channel": 1,
      "note": 83,
      "start": 10.426,
      "duration": 0.0011,
      "velocity": 95,
      "chip": "ym2612"
    },
    {
      "channel": 2,
      "note": 64,
      "start": 10.4262,
      "duration": 0.2857,
      "velocity": 58,
      "chip": "ym2612"
    },
    {
      "channel": 3,
      "note": 79,
      "start": 10.4265,
      "duration": 0.001,
      "velocity": 95,
      "chip": "ym2612"
    },
    {
      "channel": 1,
      "note": 81,
      "start": 10.4272,
      "duration": 0.0675,
      "velocity": 95,
      "chip": "ym2612"
    },
    {
      "channel": 3,
      "note": 76,
      "start": 10.4276,
      "duration": 0.0676,
      "velocity": 95,
      "chip": "ym2612"
    },
    {
      "channel": 0,
      "note": 62,
      "start": 10.4947,
      "duration": 0.2167,
      "velocity": 99,
      "chip": "ym2612"
    },
    {
      "channel": 1,
      "note": 84,
      "start": 10.495,
      "duration": 0.1164,
      "velocity": 95,
      "chip": "ym2612"
    },
    {
      "channel": 3,
      "note": 81,
      "start": 10.4955,
      "duration": 0.1164,
      "velocity": 95,
      "chip": "ym2612"
    },
    {
      "channel": 1,
      "note": 83,
      "start": 10.6116,
      "duration": 0.1,
      "velocity": 95,
      "chip": "ym2612"
    },
    {
      "channel": 3,
      "note": 79,
      "start": 10.6121,
      "duration": 0.1,
      "velocity": 95,
      "chip": "ym2612"
    },
    {
      "channel": 0,
      "note": 64,
      "start": 10.7116,
      "duration": 0.0688,
      "velocity": 99,
      "chip": "ym2612"
    },
    {
      "channel": 1,
      "note": 81,
      "start": 10.7118,
      "duration": 0.0013,
      "velocity": 95,
      "chip": "ym2612"
    },
    {
      "channel": 2,
      "note": 67,
      "start": 10.712,
      "duration": 0.2859,
      "velocity": 58,
      "chip": "ym2612"
    },
    {
      "channel": 3,
      "note": 76,
      "start": 10.7122,
      "duration": 0.0012,
      "velocity": 95,
      "chip": "ym2612"
    },
    {
      "channel": 1,
      "note": 83,
      "start": 10.7133,
      "duration": 0.0675,
      "velocity": 95,
      "chip": "ym2612"
    },
    {
      "channel": 3,
      "note": 79,
      "start": 10.7137,
      "duration": 0.0676,
      "velocity": 95,
      "chip": "ym2612"
    },
    {
      "channel": 0,
      "note": 60,
      "start": 10.7807,
      "duration": 0.2168,
      "velocity": 99,
      "chip": "ym2612"
    },
    {
      "channel": 1,
      "note": 81,
      "start": 10.781,
      "duration": 0.1164,
      "velocity": 95,
      "chip": "ym2612"
    },
    {
      "channel": 3,
      "note": 76,
      "start": 10.7815,
      "duration": 0.1164,
      "velocity": 95,
      "chip": "ym2612"
    },
    {
      "channel": 1,
      "note": 79,
      "start": 10.8977,
      "duration": 0.1,
      "velocity": 95,
      "chip": "ym2612"
    },
    {
      "channel": 3,
      "note": 74,
      "start": 10.8982,
      "duration": 0.1,
      "velocity": 95,
      "chip": "ym2612"
    },
    {
      "channel": 0,
      "note": 67,
      "start": 10.9977,
      "duration": 0.0685,
      "velocity": 99,
      "chip": "ym2612"
    },
    {
      "channel": 1,
      "note": 81,
      "start": 10.9979,
      "duration": 0.0009,
      "velocity": 95,
      "chip": "ym2612"
    },
    {
      "channel": 2,
      "note": 71,
      "start": 10.9981,
      "duration": 0.3023,
      "velocity": 58,
      "chip": "ym2612"
    },
    {
      "channel": 3,
      "note": 76,
      "start": 10.9983,
      "duration": 0.0008,
      "velocity": 95,
      "chip": "ym2612"
    },
    {
      "channel": 1,
      "note": 79,
      "start": 10.999,
      "duration": 0.0676,
      "velocity": 95,
      "chip": "ym2612"
    },
    {
      "channel": 3,
      "note": 74,
      "start": 10.9993,
      "duration": 0.0677,
      "velocity": 95,
      "chip": "ym2612"
    },
    {
      "channel": 0,
      "note": 64,
      "start": 11.0664,
      "duration": 0.2335,
      "velocity": 99,
      "chip": "ym2612"
    },
    {
      "channel": 1,
      "note": 78,
      "start": 11.0668,
      "duration": 0.1164,
      "velocity": 95,
      "chip": "ym2612"
    },
    {
      "channel": 3,
      "note": 71,
      "start": 11.0673,
      "duration": 0.1164,
      "velocity": 95,
      "chip": "ym2612"
    },
    {
      "channel": 1,
      "note": 74,
      "start": 11.1834,
      "duration": 0.1168,
      "velocity": 95,
      "chip": "ym2612"
    },
    {
      "channel": 3,
      "note": 71,
      "start": 11.1839,
      "duration": 0.1168,
      "velocity": 95,
      "chip": "ym2612"
    },
    {
      "channel": 0,
      "note": 62,
      "start": 11.3001,
      "duration": 0.0682,
      "velocity": 99,
      "chip": "ym2612"
    },
    {
      "channel": 1,
      "note": 78,
      "start": 11.3004,
      "duration": 0.1683,
      "velocity": 95,
      "chip": "ym2612"
    },
    {
      "channel": 2,
      "note": 72,
      "start": 11.3006,
      "duration": 0.5706,
      "velocity": 58,
      "chip": "ym2612"
    },
    {
      "channel": 3,
      "note": 74,
      "start": 11.3008,
      "duration": 0.1683,
      "velocity": 95,
      "chip": "ym2612"
    },
    {
      "channel": 4,
      "note": 62,
      "start": 11.301,
      "duration": 0.8564,
      "velocity": 56,
      "chip": "ym2612"
    },
    {
      "channel": 0,
      "note": 60,
      "start": 11.3686,
      "duration": 0.2167,
      "velocity": 99,
      "chip": "ym2612"
    },
    {
      "channel": 1,
      "note": 76,
      "start": 11.4689,
      "duration": 0.6881,
      "velocity": 95,
      "chip": "ym2612"
    },
    {
      "channel": 3,
      "note": 72,
      "start": 11.4694,
      "duration": 0.6878,
      "velocity": 95,
      "chip": "ym2612"
    },
    {
      "channel": 0,
      "note": 59,
      "start": 11.5856,
      "duration": 0.0683,
      "velocity": 99,
      "chip": "ym2612"
    },
    {
      "channel": 0,
      "note": 57,
      "start": 11.6542,
      "duration": 0.2168,
      "velocity": 99,
      "chip": "ym2612"
    },
    {
      "channel": 0,
      "note": 50,
      "start": 11.8711,
      "duration": 0.0686,
      "velocity": 99,
      "chip": "ym2612"
    },
    {
      "channel": 2,
      "note": 72,
      "start": 11.8713,
      "duration": 0.1355,
      "velocity": 58,
      "chip": "ym2612"
    },
    {
      "channel": 0,
      "note": 52,
      "start": 11.94,
      "duration": 0.2167,
      "velocity": 99,
      "chip": "ym2612"
    },
    {
      "channel": 2,
      "note": 74,
      "start": 12.0071,
      "duration": 0.152,
      "velocity": 58,
      "chip": "ym2612"
    },
    {
      "channel": 0,
      "note": 54,
      "start": 12.1569,
      "duration": 0.0022,
      "velocity": 99,
      "chip": "ym2612"
    },
    {
      "channel": 1,
      "note": 69,
      "start": 12.1571,
      "duration": 0.0013,
      "velocity": 95,
      "chip": "ym2612"
    },
    {
      "channel": 3,
      "note": 69,
      "start": 12.1574,
      "duration": 0.0012,
      "velocity": 95,
      "chip": "ym2612"
    },
    {
      "channel": 4,
      "note": 64,
      "start": 12.1576,
      "duration": 0.2859,
      "velocity": 56,
      "chip": "ym2612"
    },
    {
      "channel": 1,
      "note": 71,
      "start": 12.1585,
      "duration": 0.0673,
      "velocity": 95,
      "chip": "ym2612"
    },
    {
      "channel": 3,
      "note": 67,
      "start": 12.1588,
      "duration": 0.0675,
      "velocity": 95,
      "chip": "ym2612"
    },
    {
      "channel": 2,
      "note": 76,
      "start": 12.1593,
      "duration": 0.2837,
      "velocity": 58,
      "chip": "ym2612"
    },
    {
      "channel": 0,
      "note": 57,
      "start": 12.2258,
      "duration": 0.2168,
      "velocity": 99,
      "chip": "ym2612"
    },
    {
      "channel": 1,
      "note": 72,
      "start": 12.2261,
      "duration": 0.1164,
      "velocity": 95,
      "chip": "ym2612"
    },
    {
      "channel": 3,
      "note": 66,
      "start": 12.2266,
      "duration": 0.1164,
      "velocity": 95,
      "chip": "ym2612"
    },
    {
      "channel": 1,
      "note": 74,
      "start": 12.3427,
      "duration": 0.1001,
      "velocity": 95,
      "chip": "ym2612"
    },
    {
      "channel": 3,
      "note": 64,
      "start": 12.3432,
      "duration": 0.1,
      "velocity": 95,
      "chip": "ym2612"
    },
    {
      "channel": 0,
      "note": 55,
      "start": 12.4428,
      "duration": 0.0685,
      "velocity": 99,
      "chip": "ym2612"
    },
    {
      "channel": 1,
      "note": 76,
      "start": 12.443,
      "duration": 0.0012,
      "velocity": 95,
      "chip": "ym2612"
    },
    {
      "channel": 2,
      "note": 74,
      "start": 12.4432,
      "duration": 0.2856,
      "velocity": 58,
      "chip": "ym2612"
    },
    {
      "channel": 3,
      "note": 71,
      "start": 12.4434,
      "duration": 0.0012,
      "velocity": 95,
      "chip": "ym2612"
    },
    {
      "channel": 4,
      "note": 66,
      "start": 12.4437,
      "duration": 1.1601,
      "velocity": 56,
      "chip": "ym2612"
    },
    {
      "channel": 1,
      "note": 74,
      "start": 12.4444,
      "duration": 0.0672,
      "velocity": 95,
      "chip": "ym2612"
    },
    {
      "channel": 3,
      "note": 69,
      "start": 12.4447,
      "duration": 0.0673,
      "velocity": 95,
      "chip": "ym2612"
    },
    {
      "channel": 0,
      "note": 55,
      "start": 12.5115,
      "duration": 0.2168,
      "velocity": 99,
      "chip": "ym2612"
    },
    {
      "channel": 1,
      "note": 76,
      "start": 12.5118,
      "duration": 0.1164,
      "velocity": 95,
      "chip": "ym2612"
    },
    {
      "channel": 3,
      "note": 71,
      "start": 12.5123,
      "duration": 0.1164,
      "velocity": 95,
      "chip": "ym2612"
    },
    {
      "channel": 1,
      "note": 78,
      "start": 12.6285,
      "duration": 0.1,
      "velocity": 95,
      "chip": "ym2612"
    },
    {
      "channel": 3,
      "note": 74,
      "start": 12.629,
      "duration": 0.1001,
      "velocity": 95,
      "chip": "ym2612"
    },
    {
      "channel": 0,
      "note": 57,
      "start": 12.7285,
      "duration": 0.0852,
      "velocity": 99,
      "chip": "ym2612"
    },
    {
      "channel": 1,
      "note": 79,
      "start": 12.7287,
      "duration": 0.001,
      "velocity": 95,
      "chip": "ym2612"
    },
    {
      "channel": 2,
      "note": 71,
      "start": 12.729,
      "duration": 0.3022,
      "velocity": 58,
      "chip": "ym2612"
    },
    {
      "channel": 3,
      "note": 76,
      "start": 12.7292,
      "duration": 0.0008,
      "velocity": 95,
      "chip": "ym2612"
    },
    {
      "channel": 1,
      "note": 81,
      "start": 12.7298,
      "duration": 0.0842,
      "velocity": 95,
      "chip": "ym2612"
    },
    {
      "channel": 3,
      "note": 78,
      "start": 12.7301,
      "duration": 0.0844,
      "velocity": 95,
      "chip": "ym2612"
    },
    {
      "channel": 0,
      "note": 59,
      "start": 12.8139,
      "duration": 0.2167,
      "velocity": 99,
      "chip": "ym2612"
    },
    {
      "channel": 1,
      "note": 83,
      "start": 12.8143,
      "duration": 0.0997,
      "velocity": 95,
      "chip": "ym2612"
    },
    {
      "channel": 3,
      "note": 79,
      "start": 12.8148,
      "duration": 0.0997,
      "velocity": 95,
      "chip": "ym2612"
    },
    {
      "channel": 1,
      "note": 78,
      "start": 12.9142,
      "duration": 0.1167,
      "velocity": 95,
      "chip": "ym2612"
    },
    {
      "channel": 3,
      "note": 74,
      "start": 12.9147,
      "duration": 0.1166,
      "velocity": 95,
      "chip": "ym2612"
    },
    {
      "channel": 0,
      "note": 60,
      "start": 13.0309,
      "duration": 0.0685,
      "velocity": 99,
      "chip": "ym2612"
    },
    {
      "channel": 1,
      "note": 79,
      "start": 13.0311,
      "duration": 0.0009,
      "velocity": 95,
      "chip": "ym2612"
    },
    {
      "channel": 2,
      "note": 74,
      "start": 13.0313,
      "duration": 0.2855,
      "velocity": 58,
      "chip": "ym2612"
    },
    {
      "channel": 3,
      "note": 76,
      "start": 13.0315,
      "duration": 0.0007,
      "velocity": 95,
      "chip": "ym2612"
    },
    {
      "channel": 1,
      "note": 78,
      "start": 13.0322,
      "duration": 0.0676,
      "velocity": 95,
      "chip": "ym2612"
    },
    {
      "channel": 3,
      "note": 74,
      "start": 13.0324,
      "duration": 0.0678,
      "velocity": 95,
      "chip": "ym2612"
    },
    {
      "channel": 0,
      "note": 62,
      "start": 13.0997,
      "duration": 0.2168,
      "velocity": 99,
      "chip": "ym2612"
    },
    {
      "channel": 1,
      "note": 76,
      "start": 13.1,
      "duration": 0.0997,
      "velocity": 95,
      "chip": "ym2612"
    },
    {
      "channel": 3,
      "note": 71,
      "start": 13.1005,
      "duration": 0.0997,
      "velocity": 95,
      "chip": "ym2612"
    },
    {
      "channel": 1,
      "note": 74,
      "start": 13.2,
      "duration": 0.1167,
      "velocity": 95,
      "chip": "ym2612"
    },
    {
      "channel": 3,
      "note": 69,
      "start": 13.2005,
      "duration": 0.1166,
      "velocity": 95,
      "chip": "ym2612"
    },
    {
      "channel": 0,
      "note": 64,
      "start": 13.3167,
      "duration": 0.0691,
      "velocity": 99,
      "chip": "ym2612"
    },
    {
      "channel": 2,
      "note": 78,
      "start": 13.317,
      "duration": 0.2863,
      "velocity": 58,
      "chip": "ym2612"
    },
    {
      "channel": 1,
      "note": 76,
      "start": 13.3175,
      "duration": 0.0686,
      "velocity": 95,
      "chip": "ym2612"
    },
    {
      "channel": 3,
      "note": 71,
      "start": 13.3177,
      "duration": 0.0688,
      "velocity": 95,
      "chip": "ym2612"
    },
    {
      "channel": 0,
      "note": 62,
      "start": 13.386,
      "duration": 0.2168,
      "velocity": 99,
      "chip": "ym2612"
    },
    {
      "channel": 1,
      "note": 78,
      "start": 13.4863,
      "duration": 0.1168,
      "velocity": 95,
      "chip": "ym2612"
    },
    {
      "channel": 3,
      "note": 74,
      "start": 13.4868,
      "duration": 0.1168,
      "velocity": 95,
      "chip": "ym2612"
    },
    {
      "channel": 0,
      "note": 60,
      "start": 13.603,
      "duration": 0.0034,
      "velocity": 99,
      "chip": "ym2612"
    },
    {
      "channel": 1,
      "note": 79,
      "start": 13.6032,
      "duration": 0.0012,
      "velocity": 95,
      "chip": "ym2612"
    },
    {
      "channel": 2,
      "note": 76,
      "start": 13.6035,
      "duration": 0.0114,
      "velocity": 58,
      "chip": "ym2612"
    },
    {
      "channel": 3,
      "note": 76,
      "start": 13.6037,
      "duration": 0.0013,
      "velocity": 95,
      "chip": "ym2612"
    },
    {
      "channel": 4,
      "note": 67,
      "start": 13.604,
      "duration": 0.4373,
      "velocity": 56,
      "chip": "ym2612"
    },
    {
      "channel": 1,
      "note": 83,
      "start": 13.6047,
      "duration": 0.0018,
      "velocity": 95,
      "chip": "ym2612"
    },
    {
      "channel": 3,
      "note": 79,
      "start": 13.6052,
      "duration": 0.0016,
      "velocity": 95,
      "chip": "ym2612"
    },
    {
      "channel": 0,
      "note": 52,
      "start": 13.6064,
      "duration": 0.0079,
      "velocity": 99,
      "chip": "ym2612"
    },
    {
      "channel": 1,
      "note": 88,
      "start": 13.6067,
      "duration": 0.0063,
      "velocity": 95,
      "chip": "ym2612"
    },
    {
      "channel": 3,
      "note": 84,
      "start": 13.607,
      "duration": 0.0063,
      "velocity": 95,
      "chip": "ym2612"
    },
    {
      "channel": 1,
      "note": 86,
      "start": 13.6131,
      "duration": 0.0015,
      "velocity": 95,
      "chip": "ym2612"
    },
    {
      "channel": 3,
      "note": 83,
      "start": 13.6135,
      "duration": 0.0015,
      "velocity": 95,
      "chip": "ym2612"
    },
    {
      "channel": 0,
      "note": 53,
      "start": 13.6146,
      "duration": 0.0682,
      "velocity": 99,
      "chip": "ym2612"
    },
    {
      "channel": 1,
      "note": 84,
      "start": 13.6148,
      "duration": 0.0009,
      "velocity": 95,
      "chip": "ym2612"
    },
    {
      "channel": 2,
      "note": 74,
      "start": 13.615,
      "duration": 0.2854,
      "velocity": 58,
      "chip": "ym2612"
    },
    {
      "channel": 3,
      "note": 81,
      "start": 13.6152,
      "duration": 0.0007,
      "velocity": 95,
      "chip": "ym2612"
    },
    {
      "channel": 1,
      "note": 88,
      "start": 13.6158,
      "duration": 0.0673,
      "velocity": 95,
      "chip": "ym2612"
    },
    {
      "channel": 3,
      "note": 84,
      "start": 13.6161,
      "duration": 0.0675,
      "velocity": 95,
      "chip": "ym2612"
    },
    {
      "channel": 0,
      "note": 54,
      "start": 13.683,
      "duration": 0.2168,
      "velocity": 99,
      "chip": "ym2612"
    },
    {
      "channel": 1,
      "note": 91,
      "start": 13.6834,
      "duration": 0.1164,
      "velocity": 95,
      "chip": "ym2612"
    },
    {
      "channel": 3,
      "note": 88,
      "start": 13.6838,
      "duration": 0.1164,
      "velocity": 95,
      "chip": "ym2612"
    },
    {
      "channel": 1,
      "note": 90,
      "start": 13.8,
      "duration": 0.1001,
      "velocity": 95,
      "chip": "ym2612"
    },
    {
      "channel": 3,
      "note": 86,
      "start": 13.8005,
      "duration": 0.1002,
      "velocity": 95,
      "chip": "ym2612"
    },
    {
      "channel": 0,
      "note": 55,
      "start": 13.9,
      "duration": 0.0059,
      "velocity": 99,
      "chip": "ym2612"
    },
    {
      "channel": 1,
      "note": 88,
      "start": 13.9003,
      "duration": 0.009,
      "velocity": 95,
      "chip": "ym2612"
    },
    {
      "channel": 2,
      "note": 72,
      "start": 13.9006,
      "duration": 0.0132,
      "velocity": 58,
      "chip": "ym2612"
    },
    {
      "channel": 3,
      "note": 84,
      "start": 13.9008,
      "duration": 0.0089,
      "velocity": 95,
      "chip": "ym2612"
    },
    {
      "channel": 0,
      "note": 57,
      "start": 13.9061,
      "duration": 0.0073,
      "velocity": 99,
      "chip": "ym2612"
    },
    {
      "channel": 1,
      "note": 86,
      "start": 13.9095,
      "duration": 0.0122,
      "velocity": 95,
      "chip": "ym2612"
    },
    {
      "channel": 3,
      "note": 76,
      "start": 13.91,
      "duration": 0.0121,
      "velocity": 95,
      "chip": "ym2612"
    },
    {
      "channel": 0,
      "note": 59,
      "start": 13.9136,
      "duration": 0.0079,
      "velocity": 99,
      "chip": "ym2612"
    },
    {
      "channel": 2,
      "note": 71,
      "start": 13.914,
      "duration": 0.1267,
      "velocity": 58,
      "chip": "ym2612"
    },
    {
      "channel": 0,
      "note": 60,
      "start": 13.9217,
      "duration": 0.1185,
      "velocity": 99,
      "chip": "ym2612"
    },
    {
      "channel": 1,
      "note": 83,
      "start": 13.922,
      "duration": 0.1185,
      "velocity": 95,
      "chip": "ym2612"
    },
    {
      "channel": 3,
      "note": 79,
      "start": 13.9223,
      "duration": 0.1188,
      "velocity": 95,
      "chip": "ym2612"
    },
    {
      "channel": 0,
      "note": 66,
      "start": 14.0405,
      "duration": 0.0018,
      "velocity": 99,
      "chip": "ym2612"
    },
    {
      "channel": 1,
      "note": 81,
      "start": 14.0407,
      "duration": 0.0009,
      "velocity": 95,
      "chip": "ym2612"
    },
    {
      "channel": 2,
      "note": 69,
      "start": 14.0409,
      "duration": 0.2854,
      "velocity": 58,
      "chip": "ym2612"
    },
    {
      "channel": 3,
      "note": 78,
      "start": 14.0412,
      "duration": 0.0007,
      "velocity": 95,
      "chip": "ym2612"
    },
    {
      "channel": 4,
      "note": 66,
      "start": 14.0414,
      "duration": 0.2854,
      "velocity": 56,
      "chip": "ym2612"
    },
    {
      "channel": 1,
      "note": 83,
      "start": 14.0418,
      "duration": 0.0674,
      "velocity": 95,
      "chip": "ym2612"
    },
    {
      "channel": 3,
      "note": 79,
      "start": 14.042,
      "duration": 0.0676,
      "velocity": 95,
      "chip": "ym2612"
    },
    {
      "channel": 0,
      "note": 60,
      "start": 14.0424,
      "duration": 0.0664,
      "velocity": 99,
      "chip": "ym2612"
    },
    {
      "channel": 0,
      "note": 54,
      "start": 14.1091,
      "duration": 0.2167,
      "velocity": 99,
      "chip": "ym2612"
    },
    {
      "channel": 1,
      "note": 84,
      "start": 14.1094,
      "duration": 0.0997,
      "velocity": 95,
      "chip": "ym2612"
    },
    {
      "channel": 3,
      "note": 81,
      "start": 14.1099,
      "duration": 0.0997,
      "velocity": 95,
      "chip": "ym2612"
    },
    {
      "channel": 1,
      "note": 81,
      "start": 14.2094,
      "duration": 0.1167,
      "velocity": 95,
      "chip": "ym2612"
    },
    {
      "channel": 3,
      "note": 78,
      "start": 14.2098,
      "duration": 0.1167,
      "velocity": 95,
      "chip": "ym2612"
    },
    {
      "channel": 0,
      "note": 57,
      "start": 14.326,
      "duration": 0.0686,
      "velocity": 99,
      "chip": "ym2612"
    },
    {
      "channel": 1,
      "note": 88,
      "start": 14.3263,
      "duration": 0.001,
      "velocity": 95,
      "chip": "ym2612"
    },
    {
      "channel": 2,
      "note": 72,
      "start": 14.3265,
      "duration": 0.2856,
      "velocity": 58,
      "chip": "ym2612"
    },
    {
      "channel": 3,
      "note": 84,
      "start": 14.3267,
      "duration": 0.0007,
      "velocity": 95,
      "chip": "ym2612"
    },
    {
      "channel": 4,
      "note": 67,
      "start": 14.327,
      "duration": 0.2855,
      "velocity": 56,
      "chip": "ym2612"
    },
    {
      "channel": 1,
      "note": 91,
      "start": 14.3274,
      "duration": 0.0675,
      "velocity": 95,
      "chip": "ym2612"
    },
    {
      "channel": 3,
      "note": 88,
      "start": 14.3276,
      "duration": 0.0678,
      "velocity": 95,
      "chip": "ym2612"
    },
    {
      "channel": 0,
      "note": 60,
      "start": 14.3949,
      "duration": 0.2167,
      "velocity": 99,
      "chip": "ym2612"
    },
    {
      "channel": 1,
      "note": 90,
      "start": 14.3952,
      "duration": 0.1164,
      "velocity": 95,
      "chip": "ym2612"
    },
    {
      "channel": 3,
      "note": 84,
      "start": 14.3957,
      "duration": 0.1164,
      "velocity": 95,
      "chip": "ym2612"
    },
    {
      "channel": 1,
      "note": 88,
      "start": 14.5118,
      "duration": 0.1,
      "velocity": 95,
      "chip": "ym2612"
    },
    {
      "channel": 3,
      "note": 84,
      "start": 14.5123,
      "duration": 0.1,
      "velocity": 95,
      "chip": "ym2612"
    },
    {
      "channel": 0,
      "note": 61,
      "start": 14.6118,
      "duration": 0.0687,
      "velocity": 99,
      "chip": "ym2612"
    },
    {
      "channel": 1,
      "note": 90,
      "start": 14.612,
      "duration": 0.0014,
      "velocity": 95,
      "chip": "ym2612"
    },
    {
      "channel": 2,
      "note": 71,
      "start": 14.6122,
      "duration": 0.2858,
      "velocity": 58,
      "chip": "ym2612"
    },
    {
      "channel": 3,
      "note": 86,
      "start": 14.6124,
      "duration": 0.0013,
      "velocity": 95,
      "chip": "ym2612"
    },
    {
      "channel": 4,
      "note": 69,
      "start": 14.6127,
      "duration": 0.2858,
      "velocity": 56,
      "chip": "ym2612"
    },
    {
      "channel": 1,
      "note": 88,
      "start": 14.6136,
      "duration": 0.0672,
      "velocity": 95,
      "chip": "ym2612"
    },
    {
      "channel": 3,
      "note": 84,
      "start": 14.614,
      "duration": 0.0673,
      "velocity": 95,
      "chip": "ym2612"
    },
    {
      "channel": 0,
      "note": 66,
      "start": 14.6807,
      "duration": 0.2168,
      "velocity": 99,
      "chip": "ym2612"
    },
    {
      "channel": 1,
      "note": 93,
      "start": 14.6811,
      "duration": 0.1164,
      "velocity": 95,
      "chip": "ym2612"
    },
    {
      "channel": 3,
      "note": 90,
      "start": 14.6816,
      "duration": 0.1164,
      "velocity": 95,
      "chip": "ym2612"
    },
    {
      "channel": 1,
      "note": 91,
      "start": 14.7977,
      "duration": 0.1,
      "velocity": 95,
      "chip": "ym2612"
    },
    {
      "channel": 3,
      "note": 88,
      "start": 14.7982,
      "duration": 0.1,
      "velocity": 95,
      "chip": "ym2612"
    },
    {
      "channel": 0,
      "note": 60,
      "start": 14.8977,
      "duration": 0.0685,
      "velocity": 99,
      "chip": "ym2612"
    },
    {
      "channel": 1,
      "note": 90,
      "start": 14.8979,
      "duration": 0.0012,
      "velocity": 95,
      "chip": "ym2612"
    },
    {
      "channel": 2,
      "note": 69,
      "start": 14.8981,
      "duration": 0.0772,
      "velocity": 58,
      "chip": "ym2612"
    },
    {
      "channel": 3,
      "note": 84,
      "start": 14.8984,
      "duration": 0.0012,
      "velocity": 95,
      "chip": "ym2612"
    },
    {
      "channel": 4,
      "note": 66,
      "start": 14.8986,
      "duration": 0.0772,
      "velocity": 56,
      "chip": "ym2612"
    },
    {
      "channel": 1,
      "note": 88,
      "start": 14.8993,
      "duration": 0.0673,
      "velocity": 95,
      "chip": "ym2612"
    },
    {
      "channel": 3,
      "note": 84,
      "start": 14.8997,
      "duration": 0.0674,
      "velocity": 95,
      "chip": "ym2612"
    },
    {
      "channel": 0,
      "note": 57,
      "start": 14.9665,
      "duration": 0.0083,
      "velocity": 99,
      "chip": "ym2612"
    },
    {
      "channel": 1,
      "note": 86,
      "start": 14.9669,
      "duration": 0.004,
      "velocity": 95,
      "chip": "ym2612"
    },
    {
      "channel": 3,
      "note": 83,
      "start": 14.9674,
      "duration": 0.0039,
      "velocity": 95,
      "chip": "ym2612"
    },
    {
      "channel": 1,
      "note": 84,
      "start": 14.971,
      "duration": 0.0041,
      "velocity": 95,
      "chip": "ym2612"
    },
    {
      "channel": 3,
      "note": 81,
      "start": 14.9714,
      "duration": 0.0042,
      "velocity": 95,
      "chip": "ym2612"
    },
    {
      "channel": 0,
      "note": 59,
      "start": 14.9751,
      "duration": 0.0849,
      "velocity": 99,
      "chip": "ym2612"
    },
    {
      "channel": 1,
      "note": 83,
      "start": 14.9753,
      "duration": 0.0011,
      "velocity": 95,
      "chip": "ym2612"
    },
    {
      "channel": 2,
      "note": 75,
      "start": 14.9756,
      "duration": 0.3019,
      "velocity": 58,
      "chip": "ym2612"
    },
    {
      "channel": 3,
      "note": 79,
      "start": 14.9758,
      "duration": 0.001,
      "velocity": 95,
      "chip": "ym2612"
    },
    {
      "channel": 4,
      "note": 67,
      "start": 14.976,
      "duration": 0.5873,
      "velocity": 56,
      "chip": "ym2612"
    },
    {
      "channel": 1,
      "note": 84,
      "start": 14.9765,
      "duration": 0.0838,
      "velocity": 95,
      "chip": "ym2612"
    },
    {
      "channel": 3,
      "note": 81,
      "start": 14.9769,
      "duration": 0.0839,
      "velocity": 95,
      "chip": "ym2612"
    },
    {
      "channel": 0,
      "note": 60,
      "start": 15.0602,
      "duration": 0.2167,
      "velocity": 99,
      "chip": "ym2612"
    },
    {
      "channel": 1,
      "note": 83,
      "start": 15.0605,
      "duration": 0.0997,
      "velocity": 95,
      "chip": "ym2612"
    },
    {
      "channel": 3,
      "note": 79,
      "start": 15.061,
      "duration": 0.0997,
      "velocity": 95,
      "chip": "ym2612"
    },
    {
      "channel": 1,
      "note": 81,
      "start": 15.1605,
      "duration": 0.1167,
      "velocity": 95,
      "chip": "ym2612"
    },
    {
      "channel": 3,
      "note": 78,
      "start": 15.161,
      "duration": 0.1167,
      "velocity": 95,
      "chip": "ym2612"
    },
    {
      "channel": 0,
      "note": 63,
      "start": 15.2772,
      "duration": 0.0685,
      "velocity": 99,
      "chip": "ym2612"
    },
    {
      "channel": 1,
      "note": 90,
      "start": 15.2774,
      "duration": 0.0008,
      "velocity": 95,
      "chip": "ym2612"
    },
    {
      "channel": 2,
      "note": 72,
      "start": 15.2776,
      "duration": 0.2854,
      "velocity": 58,
      "chip": "ym2612"
    },
    {
      "channel": 3,
      "note": 87,
      "start": 15.2778,
      "duration": 0.0006,
      "velocity": 95,
      "chip": "ym2612"
    },
    {
      "channel": 1,
      "note": 87,
      "start": 15.2783,
      "duration": 0.0676,
      "velocity": 95,
      "chip": "ym2612"
    },
    {
      "channel": 3,
      "note": 83,
      "start": 15.2786,
      "duration": 0.0679,
      "velocity": 95,
      "chip": "ym2612"
    },
    {
      "channel": 0,
      "note": 64,
      "start": 15.3459,
      "duration": 0.2168,
      "velocity": 99,
      "chip": "ym2612"
    },
    {
      "channel": 1,
      "note": 83,
      "start": 15.3463,
      "duration": 0.0997,
      "velocity": 95,
      "chip": "ym2612"
    },
    {
      "channel": 3,
      "note": 79,
      "start": 15.3467,
      "duration": 0.0997,
      "velocity": 95,
      "chip": "ym2612"
    },
    {
      "channel": 1,
      "note": 81,
      "start": 15.4462,
      "duration": 0.1167,
      "velocity": 95,
      "chip": "ym2612"
    },
    {
      "channel": 3,
      "note": 78,
      "start": 15.4467,
      "duration": 0.1166,
      "velocity": 95,
      "chip": "ym2612"
    },
    {
      "channel": 0,
      "note": 66,
      "start": 15.5629,
      "duration": 0.0693,
      "velocity": 99,
      "chip": "ym2612"
    },
    {
      "channel": 2,
      "note": 71,
      "start": 15.5632,
      "duration": 0.2864,
      "velocity": 58,
      "chip": "ym2612"
    },
    {
      "channel": 4,
      "note": 63,
      "start": 15.5635,
      "duration": 0.3647,
      "velocity": 56,
      "chip": "ym2612"
    },
    {
      "channel": 1,
      "note": 79,
      "start": 15.5639,
      "duration": 0.0686,
      "velocity": 95,
      "chip": "ym2612"
    },
    {
      "channel": 3,
      "note": 75,
      "start": 15.5641,
      "duration": 0.0688,
      "velocity": 95,
      "chip": "ym2612"
    },
    {
      "channel": 0,
      "note": 59,
      "start": 15.6325,
      "duration": 0.2168,
      "velocity": 99,
      "chip": "ym2612"
    },
    {
      "channel": 1,
      "note": 81,
      "start": 15.7327,
      "duration": 0.1167,
      "velocity": 95,
      "chip": "ym2612"
    },
    {
      "channel": 3,
      "note": 78,
      "start": 15.7332,
      "duration": 0.1166,
      "velocity": 95,
      "chip": "ym2612"
    },
    {
      "channel": 0,
      "note": 57,
      "start": 15.8494,
      "duration": 0.0693,
      "velocity": 99,
      "chip": "ym2612"
    },
    {
      "channel": 2,
      "note": 69,
      "start": 15.8497,
      "duration": 0.0782,
      "velocity": 58,
      "chip": "ym2612"
    },
    {
      "channel": 1,
      "note": 83,
      "start": 15.8502,
      "duration": 0.0689,
      "velocity": 95,
      "chip": "ym2612"
    },
    {
      "channel": 3,
      "note": 79,
      "start": 15.8505,
      "duration": 0.069,
      "velocity": 95,
      "chip": "ym2612"
    },
    {
      "channel": 0,
      "note": 59,
      "start": 15.919,
      "duration": 0.0086,
      "velocity": 99,
      "chip": "ym2612"
    },
    {
      "channel": 1,
      "note": 88,
      "start": 15.9227,
      "duration": 0.0051,
      "velocity": 95,
      "chip": "ym2612"
    },
    {
      "channel": 3,
      "note": 84,
      "start": 15.9229,
      "duration": 0.0051,
      "velocity": 95,
      "chip": "ym2612"
    },
    {
      "channel": 0,
      "note": 52,
      "start": 15.9278,
      "duration": 0.0691,
      "velocity": 99,
      "chip": "ym2612"
    },
    {
      "channel": 2,
      "note": 71,
      "start": 15.928,
      "duration": 0.1526,
      "velocity": 58,
      "chip": "ym2612"
    },
    {
      "channel": 4,
      "note": 67,
      "start": 15.9283,
      "duration": 0.1528,
      "velocity": 56,
      "chip": "ym2612"
    },
    {
      "channel": 0,
      "note": 52,
      "start": 15.9972,
      "duration": 0.2168,
      "velocity": 99,
      "chip": "ym2612"
    },
    {
      "channel": 1,
      "note": 86,
      "start": 15.9975,
      "duration": 0.1164,
      "velocity": 95,
      "chip": "ym2612"
    },
    {
      "channel": 3,
      "note": 83,
      "start": 15.998,
      "duration": 0.0661,
      "velocity": 95,
      "chip": "ym2612"
    },
    {
      "channel": 3,
      "note": 83,
      "start": 16.0644,
      "duration": 0.0999,
      "velocity": 95,
      "chip": "ym2612"
    },
    {
      "channel": 2,
      "note": 69,
      "start": 16.0809,
      "duration": 0.1352,
      "velocity": 58,
      "chip": "ym2612"
    },
    {
      "channel": 4,
      "note": 66,
      "start": 16.0814,
      "duration": 0.1351,
      "velocity": 56,
      "chip": "ym2612"
    },
    {
      "channel": 1,
      "note": 86,
      "start": 16.1141,
      "duration": 0.1001,
      "velocity": 95,
      "chip": "ym2612"
    },
    {
      "channel": 3,
      "note": 83,
      "start": 16.1645,
      "duration": 0.0499,
      "velocity": 95,
      "chip": "ym2612"
    },
    {
      "channel": 0,
      "note": 54,
      "start": 16.2141,
      "duration": 0.0683,
      "velocity": 99,
      "chip": "ym2612"
    },
    {
      "channel": 1,
      "note": 86,
      "start": 16.2143,
      "duration": 0.0007,
      "velocity": 95,
      "chip": "ym2612"
    },
    {
      "channel": 3,
      "note": 83,
      "start": 16.2145,
      "duration": 0.0008,
      "velocity": 95,
      "chip": "ym2612"
    },
    {
      "channel": 1,
      "note": 86,
      "start": 16.215,
      "duration": 0.0008,
      "velocity": 95,
      "chip": "ym2612"
    },
    {
      "channel": 3,
      "note": 83,
      "start": 16.2155,
      "duration": 0.0173,
      "velocity": 95,
      "chip": "ym2612"
    },
    {
      "channel": 1,
      "note": 86,
      "start": 16.216,
      "duration": 0.0667,
      "velocity": 95,
      "chip": "ym2612"
    },
    {
      "channel": 2,
      "note": 67,
      "start": 16.2163,
      "duration": 0.3001,
      "velocity": 58,
      "chip": "ym2612"
    },
    {
      "channel": 4,
      "note": 64,
      "start": 16.2168,
      "duration": 0.3,
      "velocity": 56,
      "chip": "ym2612"
    },
    {
      "channel": 3,
      "note": 83,
      "start": 16.233,
      "duration": 0.0832,
      "velocity": 95,
      "chip": "ym2612"
    },
    {
      "channel": 0,
      "note": 55,
      "start": 16.2827,
      "duration": 0.2334,
      "velocity": 99,
      "chip": "ym2612"
    },
    {
      "channel": 1,
      "note": 86,
      "start": 16.2829,
      "duration": 0.0831,
      "velocity": 95,
      "chip": "ym2612"
    },
    {
      "channel": 3,
      "note": 83,
      "start": 16.3165,
      "duration": 0.0665,
      "velocity": 95,
      "chip": "ym2612"
    },
    {
      "channel": 1,
      "note": 86,
      "start": 16.3662,
      "duration": 0.0665,
      "velocity": 95,
      "chip": "ym2612"
    },
    {
      "channel": 3,
      "note": 83,
      "start": 16.3832,
      "duration": 0.0665,
      "velocity": 95,
      "chip": "ym2612"
    },
    {
      "channel": 1,
      "note": 86,
      "start": 16.433,
      "duration": 0.0834,
      "velocity": 95,
      "chip": "ym2612"
    },
    {
      "channel": 3,
      "note": 83,
      "start": 16.45,
      "duration": 0.0671,
      "velocity": 95,
      "chip": "ym2612"
    },
    {
      "channel": 0,
      "note": 57,
      "start": 16.5163,
      "duration": 0.0683,
      "velocity": 99,
      "chip": "ym2612"
    },
    {
      "channel": 1,
      "note": 86,
      "start": 16.5164,
      "duration": 0.0009,
      "velocity": 95,
      "chip": "ym2612"
    },
    {
      "channel": 2,
      "note": 66,
      "start": 16.5166,
      "duration": 0.1352,
      "velocity": 58,
      "chip": "ym2612"
    },
    {
      "channel": 4,
      "note": 62,
      "start": 16.517,
      "duration": 0.1354,
      "velocity": 56,
      "chip": "ym2612"
    },
    {
      "channel": 3,
      "note": 83,
      "start": 16.5172,
      "duration": 0.0004,
      "velocity": 95,
      "chip": "ym2612"
    },
    {
      "channel": 1,
      "note": 86,
      "start": 16.5174,
      "duration": 0.0007,
      "velocity": 95,
      "chip": "ym2612"
    },
    {
      "channel": 3,
      "note": 83,
      "start": 16.5177,
      "duration": 0.0007,
      "velocity": 95,
      "chip": "ym2612"
    },
    {
      "channel": 1,
      "note": 86,
      "start": 16.5181,
      "duration": 0.0669,
      "velocity": 95,
      "chip": "ym2612"
    },
    {
      "channel": 3,
      "note": 83,
      "start": 16.5186,
      "duration": 0.0832,
      "velocity": 95,
      "chip": "ym2612"
    },
    {
      "channel": 0,
      "note": 59,
      "start": 16.5849,
      "duration": 0.2167,
      "velocity": 99,
      "chip": "ym2612"
    },
    {
      "channel": 1,
      "note": 86,
      "start": 16.5852,
      "duration": 0.0664,
      "velocity": 95,
      "chip": "ym2612"
    },
    {
      "channel": 3,
      "note": 83,
      "start": 16.6021,
      "duration": 0.0665,
      "velocity": 95,
      "chip": "ym2612"
    },
    {
      "channel": 1,
      "note": 86,
      "start": 16.6518,
      "duration": 0.0666,
      "velocity": 95,
      "chip": "ym2612"
    },
    {
      "channel": 2,
      "note": 67,
      "start": 16.6521,
      "duration": 0.1509,
      "velocity": 58,
      "chip": "ym2612"
    },
    {
      "channel": 4,
      "note": 59,
      "start": 16.6526,
      "duration": 0.1506,
      "velocity": 56,
      "chip": "ym2612"
    },
    {
      "channel": 3,
      "note": 83,
      "start": 16.6688,
      "duration": 0.0666,
      "velocity": 95,
      "chip": "ym2612"
    },
    {
      "channel": 1,
      "note": 86,
      "start": 16.7185,
      "duration": 0.0834,
      "velocity": 95,
      "chip": "ym2612"
    },
    {
      "channel": 3,
      "note": 83,
      "start": 16.7356,
      "duration": 0.0665,
      "velocity": 95,
      "chip": "ym2612"
    },
    {
      "channel": 0,
      "note": 62,
      "start": 16.8019,
      "duration": 0.0698,
      "velocity": 99,
      "chip": "ym2612"
    },
    {
      "channel": 2,
      "note": 66,
      "start": 16.8032,
      "duration": 0.0782,
      "velocity": 58,
      "chip": "ym2612"
    },
    {
      "channel": 4,
      "note": 59,
      "start": 16.8033,
      "duration": 0.0782,
      "velocity": 56,
      "chip": "ym2612"
    },
    {
      "channel": 0,
      "note": 59,
      "start": 16.8719,
      "duration": 0.0091,
      "velocity": 99,
      "chip": "ym2612"
    },
    {
      "channel": 1,
      "note": 90,
      "start": 16.8733,
      "duration": 0.0079,
      "velocity": 95,
      "chip": "ym2612"
    },
    {
      "channel": 3,
      "note": 86,
      "start": 16.8736,
      "duration": 0.0078,
      "velocity": 95,
      "chip": "ym2612"
    },
    {
      "channel": 0,
      "note": 52,
      "start": 16.8818,
      "duration": 0.0013,
      "velocity": 99,
      "chip": "ym2612"
    },
    {
      "channel": 1,
      "note": 88,
      "start": 16.882,
      "duration": 0.0011,
      "velocity": 95,
      "chip": "ym2612"
    },
    {
      "channel": 2,
      "note": 68,
      "start": 16.8822,
      "duration": 0.0011,
      "velocity": 58,
      "chip": "ym2612"
    },
    {
      "channel": 3,
      "note": 82,
      "start": 16.8824,
      "duration": 0.001,
      "velocity": 95,
      "chip": "ym2612"
    },
    {
      "channel": 4,
      "note": 64,
      "start": 16.8825,
      "duration": 0.0009,
      "velocity": 56,
      "chip": "ym2612"
    },
    {
      "channel": 3,
      "note": 102,
      "start": 17.0704,
      "duration": 0.0012,
      "velocity": 86,
      "chip": "ym2612"
    },
    {
      "channel": 2,
      "note": 102,
      "start": 17.0715,
      "duration": 0.0007,
      "velocity": 86,
      "chip": "ym2612"
    },
    {
      "channel": 3,
      "note": 100,
      "start": 17.0718,
      "duration": 0.0029,
      "velocity": 86,
      "chip": "ym2612"
    },
    {
      "channel": 2,
      "note": 100,
      "start": 17.0723,
      "duration": 0.0033,
      "velocity": 86,
      "chip": "ym2612"
    },
    {
      "channel": 3,
      "note": 93,
      "start": 17.075,
      "duration": 0.0033,
      "velocity": 86,
      "chip": "ym2612"
    },
    {
      "channel": 2,
      "note": 93,
      "start": 17.0758,
      "duration": 0.0029,
      "velocity": 86,
      "chip": "ym2612"
    },
    {
      "channel": 3,
      "note": 95,
      "start": 17.0786,
      "duration": 0.0006,
      "velocity": 86,
      "chip": "ym2612"
    },
    {
      "channel": 2,
      "note": 95,
      "start": 17.0789,
      "duration": 0.0193,
      "velocity": 86,
      "chip": "ym2612"
    },
    {
      "channel": 3,
      "note": 96,
      "start": 17.0793,
      "duration": 0.0693,
      "velocity": 86,
      "chip": "ym2612"
    },
    {
      "channel": 2,
      "note": 96,
      "start": 17.0985,
      "duration": 0.0999,
      "velocity": 86,
      "chip": "ym2612"
    },
    {
      "channel": 3,
      "note": 95,
      "start": 17.1488,
      "duration": 0.1164,
      "velocity": 86,
      "chip": "ym2612"
    },
    {
      "channel": 2,
      "note": 95,
      "start": 17.1986,
      "duration": 0.1166,
      "velocity": 86,
      "chip": "ym2612"
    },
    {
      "channel": 3,
      "note": 96,
      "start": 17.2655,
      "duration": 0.0999,
      "velocity": 86,
      "chip": "ym2612"
    },
    {
      "channel": 2,
      "note": 96,
      "start": 17.3154,
      "duration": 0.0999,
      "velocity": 86,
      "chip": "ym2612"
    },
    {
      "channel": 3,
      "note": 88,
      "start": 17.3657,
      "duration": 0.1192,
      "velocity": 86,
      "chip": "ym2612"
    },
    {
      "channel": 2,
      "note": 88,
      "start": 17.4156,
      "duration": 0.0691,
      "velocity": 104,
      "chip": "ym2612"
    },
    {
      "channel": 1,
      "note": 71,
      "start": 17.4835,
      "duration": 0.003,
      "velocity": 99,
      "chip": "ym2612"
    },
    {
      "channel": 3,
      "note": 69,
      "start": 17.4852,
      "duration": 0.002,
      "velocity": 86,
      "chip": "ym2612"
    },
    {
      "channel": 1,
      "note": 72,
      "start": 17.4867,
      "duration": 0.0003,
      "velocity": 99,
      "chip": "ym2612"
    },
    {
      "channel": 1,
      "note": 76,
      "start": 17.4871,
      "duration": 0.0005,
      "velocity": 99,
      "chip": "ym2612"
    },
    {
      "channel": 3,
      "note": 74,
      "start": 17.4873,
      "duration": 0.0655,
      "velocity": 86,
      "chip": "ym2612"
    },
    {
      "channel": 4,
      "note": 71,
      "start": 17.4875,
      "duration": 0.0003,
      "velocity": 99,
      "chip": "ym2612"
    },
    {
      "channel": 1,
      "note": 78,
      "start": 17.4878,
      "duration": 0.2856,
      "velocity": 99,
      "chip": "ym2612"
    },
    {
      "channel": 4,
      "note": 72,
      "start": 17.4879,
      "duration": 0.0652,
      "velocity": 99,
      "chip": "ym2612"
    },
    {
      "channel": 0,
      "note": 57,
      "start": 17.5526,
      "duration": 0.0813,
      "velocity": 99,
      "chip": "ym2612"
    },
    {
      "channel": 2,
      "note": 62,
      "start": 17.5528,
      "duration": 0.2207,
      "velocity": 104,
      "chip": "ym2612"
    },
    {
      "channel": 3,
      "note": 72,
      "start": 17.5531,
      "duration": 0.0012,
      "velocity": 86,
      "chip": "ym2612"
    },
    {
      "channel": 4,
      "note": 76,
      "start": 17.5534,
      "duration": 0.0003,
      "velocity": 99,
      "chip": "ym2612"
    },
    {
      "channel": 4,
      "note": 78,
      "start": 17.5539,
      "duration": 0.2213,
      "velocity": 99,
      "chip": "ym2612"
    },
    {
      "channel": 3,
      "note": 79,
      "start": 17.5544,
      "duration": 0.0009,
      "velocity": 86,
      "chip": "ym2612"
    },
    {
      "channel": 3,
      "note": 81,
      "start": 17.5556,
      "duration": 0.0011,
      "velocity": 86,
      "chip": "ym2612"
    },
    {
      "channel": 3,
      "note": 86,
      "start": 17.5569,
      "duration": 0.0012,
      "velocity": 86,
      "chip": "ym2612"
    },
    {
      "channel": 3,
      "note": 84,
      "start": 17.5584,
      "duration": 0.0017,
      "velocity": 86,
      "chip": "ym2612"
    },
    {
      "channel": 3,
      "note": 91,
      "start": 17.5605,
      "duration": 0.0737,
      "velocity": 86,
      "chip": "ym2612"
    },
    {
      "channel": 3,
      "note": 69,
      "start": 17.6343,
      "duration": 0.0021,
      "velocity": 86,
      "chip": "ym2612"
    },
    {
      "channel": 3,
      "note": 74,
      "start": 17.6366,
      "duration": 0.0012,
      "velocity": 86,
      "chip": "ym2612"
    },
    {
      "channel": 3,
      "note": 72,
      "start": 17.638,
      "duration": 0.0185,
      "velocity": 86,
      "chip": "ym2612"
    },
    {
      "channel": 3,
      "note": 79,
      "start": 17.6568,
      "duration": 0.0013,
      "velocity": 86,
      "chip": "ym2612"
    },
    {
      "channel": 3,
      "note": 81,
      "start": 17.6584,
      "duration": 0.002,
      "velocity": 86,
      "chip": "ym2612"
    },
    {
      "channel": 3,
      "note": 86,
      "start": 17.6607,
      "duration": 0.0013,
      "velocity": 86,
      "chip": "ym2612"
    },
    {
      "channel": 3,
      "note": 84,
      "start": 17.6623,
      "duration": 0.0034,
      "velocity": 86,
      "chip": "ym2612"
    },
    {
      "channel": 3,
      "note": 91,
      "start": 17.6659,
      "duration": 0.0034,
      "velocity": 86,
      "chip": "ym2612"
    },
    {
      "channel": 3,
      "note": 69,
      "start": 17.6695,
      "duration": 0.0012,
      "velocity": 86,
      "chip": "ym2612"
    },
    {
      "channel": 3,
      "note": 74,
      "start": 17.6709,
      "duration": 0.0676,
      "velocity": 86,
      "chip": "ym2612"
    },
    {
      "channel": 0,
      "note": 57,
      "start": 17.7383,
      "duration": 0.0143,
      "velocity": 99,
      "chip": "ym2612"
    },
    {
      "channel": 3,
      "note": 72,
      "start": 17.7388,
      "duration": 0.0019,
      "velocity": 86,
      "chip": "ym2612"
    },
    {
      "channel": 3,
      "note": 79,
      "start": 17.741,
      "duration": 0.0019,
      "velocity": 86,
      "chip": "ym2612"
    },
    {
      "channel": 3,
      "note": 81,
      "start": 17.7431,
      "duration": 0.0026,
      "velocity": 86,
      "chip": "ym2612"
    },
    {
      "channel": 3,
      "note": 86,
      "start": 17.7459,
      "duration": 0.0018,
      "velocity": 86,
      "chip": "ym2612"
    },
    {
      "channel": 3,
      "note": 84,
      "start": 17.7479,
      "duration": 0.0022,
      "velocity": 86,
      "chip": "ym2612"
    },
    {
      "channel": 3,
      "note": 91,
      "start": 17.7503,
      "duration": 0.0025,
      "velocity": 86,
      "chip": "ym2612"
    },
    {
      "channel": 3,
      "note": 69,
      "start": 17.753,
      "duration": 0.0019,
      "velocity": 86,
      "chip": "ym2612"
    },
    {
      "channel": 3,
      "note": 74,
      "start": 17.7551,
      "duration": 0.0028,
      "velocity": 86,
      "chip": "ym2612"
    },
    {
      "channel": 3,
      "note": 72,
      "start": 17.7582,
      "duration": 0.0018,
      "velocity": 86,
      "chip": "ym2612"
    },
    {
      "channel": 3,
      "note": 79,
      "start": 17.7601,
      "duration": 0.0031,
      "velocity": 86,
      "chip": "ym2612"
    },
    {
      "channel": 3,
      "note": 81,
      "start": 17.7635,
      "duration": 0.0024,
      "velocity": 86,
      "chip": "ym2612"
    },
    {
      "channel": 3,
      "note": 86,
      "start": 17.7661,
      "duration": 0.0016,
      "velocity": 86,
      "chip": "ym2612"
    },
    {
      "channel": 3,
      "note": 84,
      "start": 17.768,
      "duration": 0.0029,
      "velocity": 86,
      "chip": "ym2612"
    },
    {
      "channel": 3,
      "note": 91,
      "start": 17.7712,
      "duration": 0.0024,
      "velocity": 86,
      "chip": "ym2612"
    },
    {
      "channel": 1,
      "note": 79,
      "start": 17.7734,
      "duration": 0.0007,
      "velocity": 99,
      "chip": "ym2612"
    },
    {
      "channel": 3,
      "note": 72,
      "start": 17.7738,
      "duration": 0.0012,
      "velocity": 86,
      "chip": "ym2612"
    },
    {
      "channel": 1,
      "note": 75,
      "start": 17.7744,
      "duration": 0.0005,
      "velocity": 99,
      "chip": "ym2612"
    },
    {
      "channel": 1,
      "note": 74,
      "start": 17.7749,
      "duration": 0.0183,
      "velocity": 99,
      "chip": "ym2612"
    },
    {
      "channel": 3,
      "note": 79,
      "start": 17.7752,
      "duration": 0.0685,
      "velocity": 86,
      "chip": "ym2612"
    },
    {
      "channel": 4,
      "note": 79,
      "start": 17.7754,
      "duration": 0.0183,
      "velocity": 99,
      "chip": "ym2612"
    },
    {
      "channel": 1,
      "note": 81,
      "start": 17.7935,
      "duration": 0.5249,
      "velocity": 99,
      "chip": "ym2612"
    },
    {
      "channel": 4,
      "note": 75,
      "start": 17.794,
      "duration": 0.0501,
      "velocity": 99,
      "chip": "ym2612"
    },
    {
      "channel": 0,
      "note": 60,
      "start": 17.8435,
      "duration": 0.0828,
      "velocity": 99,
      "chip": "ym2612"
    },
    {
      "channel": 2,
      "note": 65,
      "start": 17.8437,
      "duration": 0.4716,
      "velocity": 104,
      "chip": "ym2612"
    },
    {
      "channel": 3,
      "note": 77,
      "start": 17.844,
      "duration": 0.0016,
      "velocity": 86,
      "chip": "ym2612"
    },
    {
      "channel": 4,
      "note": 74,
      "start": 17.8443,
      "duration": 0.0004,
      "velocity": 99,
      "chip": "ym2612"
    },
    {
      "channel": 4,
      "note": 81,
      "start": 17.8449,
      "duration": 0.5414,
      "velocity": 99,
      "chip": "ym2612"
    },
    {
      "channel": 3,
      "note": 82,
      "start": 17.8459,
      "duration": 0.0008,
      "velocity": 86,
      "chip": "ym2612"
    },
    {
      "channel": 3,
      "note": 84,
      "start": 17.8469,
      "duration": 0.0015,
      "velocity": 86,
      "chip": "ym2612"
    },
    {
      "channel": 3,
      "note": 91,
      "start": 17.8487,
      "duration": 0.0011,
      "velocity": 86,
      "chip": "ym2612"
    },
    {
      "channel": 3,
      "note": 89,
      "start": 17.85,
      "duration": 0.0027,
      "velocity": 86,
      "chip": "ym2612"
    },
    {
      "channel": 3,
      "note": 94,
      "start": 17.8529,
      "duration": 0.0736,
      "velocity": 86,
      "chip": "ym2612"
    },
    {
      "channel": 3,
      "note": 72,
      "start": 17.9268,
      "duration": 0.0013,
      "velocity": 86,
      "chip": "ym2612"
    },
    {
      "channel": 3,
      "note": 79,
      "start": 17.9283,
      "duration": 0.0849,
      "velocity": 86,
      "chip": "ym2612"
    },
    {
      "channel": 3,
      "note": 77,
      "start": 18.0133,
      "duration": 0.0019,
      "velocity": 86,
      "chip": "ym2612"
    },
    {
      "channel": 3,
      "note": 82,
      "start": 18.0156,
      "duration": 0.0015,
      "velocity": 86,
      "chip": "ym2612"
    },
    {
      "channel": 3,
      "note": 84,
      "start": 18.0173,
      "duration": 0.0034,
      "velocity": 86,
      "chip": "ym2612"
    },
    {
      "channel": 3,
      "note": 91,
      "start": 18.021,
      "duration": 0.0011,
      "velocity": 86,
      "chip": "ym2612"
    },
    {
      "channel": 3,
      "note": 89,
      "start": 18.0223,
      "duration": 0.0681,
      "velocity": 86,
      "chip": "ym2612"
    },
    {
      "channel": 3,
      "note": 94,
      "start": 18.0907,
      "duration": 0.1164,
      "velocity": 86,
      "chip": "ym2612"
    },
    {
      "channel": 3,
      "note": 72,
      "start": 18.2073,
      "duration": 0.001,
      "velocity": 86,
      "chip": "ym2612"
    },
    {
      "channel": 3,
      "note": 79,
      "start": 18.2085,
      "duration": 0.0682,
      "velocity": 86,
      "chip": "ym2612"
    },
    {
      "channel": 0,
      "note": 60,
      "start": 18.2764,
      "duration": 0.0128,
      "velocity": 99,
      "chip": "ym2612"
    },
    {
      "channel": 3,
      "note": 77,
      "start": 18.2769,
      "duration": 0.0017,
      "velocity": 86,
      "chip": "ym2612"
    },
    {
      "channel": 3,
      "note": 82,
      "start": 18.2788,
      "duration": 0.002,
      "velocity": 86,
      "chip": "ym2612"
    },
    {
      "channel": 3,
      "note": 84,
      "start": 18.281,
      "duration": 0.0017,
      "velocity": 86,
      "chip": "ym2612"
    },
    {
      "channel": 3,
      "note": 91,
      "start": 18.283,
      "duration": 0.002,
      "velocity": 86,
      "chip": "ym2612"
    },
    {
      "channel": 3,
      "note": 89,
      "start": 18.2852,
      "duration": 0.0027,
      "velocity": 86,
      "chip": "ym2612"
    },
    {
      "channel": 3,
      "note": 94,
      "start": 18.2881,
      "duration": 0.0014,
      "velocity": 86,
      "chip": "ym2612"
    },
    {
      "channel": 3,
      "note": 72,
      "start": 18.2898,
      "duration": 0.0032,
      "velocity": 86,
      "chip": "ym2612"
    },
    {
      "channel": 3,
      "note": 79,
      "start": 18.2933,
      "duration": 0.0023,
      "velocity": 86,
      "chip": "ym2612"
    },
    {
      "channel": 3,
      "note": 77,
      "start": 18.2959,
      "duration": 0.0032,
      "velocity": 86,
      "chip": "ym2612"
    },
    {
      "channel": 3,
      "note": 82,
      "start": 18.2993,
      "duration": 0.0026,
      "velocity": 86,
      "chip": "ym2612"
    },
    {
      "channel": 3,
      "note": 84,
      "start": 18.3022,
      "duration": 0.0044,
      "velocity": 86,
      "chip": "ym2612"
    },
    {
      "channel": 3,
      "note": 91,
      "start": 18.3069,
      "duration": 0.0024,
      "velocity": 86,
      "chip": "ym2612"
    },
    {
      "channel": 3,
      "note": 89,
      "start": 18.3095,
      "duration": 0.003,
      "velocity": 86,
      "chip": "ym2612"
    },
    {
      "channel": 3,
      "note": 94,
      "start": 18.3127,
      "duration": 0.0026,
      "velocity": 86,
      "chip": "ym2612"
    },
    {
      "channel": 3,
      "note": 73,
      "start": 18.3156,
      "duration": 0.001,
      "velocity": 86,
      "chip": "ym2612"
    },
    {
      "channel": 3,
      "note": 80,
      "start": 18.3168,
      "duration": 0.0687,
      "velocity": 86,
      "chip": "ym2612"
    },
    {
      "channel": 1,
      "note": 83,
      "start": 18.3186,
      "duration": 0.1565,
      "velocity": 99,
      "chip": "ym2612"
    },
    {
      "channel": 0,
      "note": 61,
      "start": 18.3853,
      "duration": 0.009,
      "velocity": 99,
      "chip": "ym2612"
    },
    {
      "channel": 2,
      "note": 66,
      "start": 18.3855,
      "duration": 0.28,
      "velocity": 104,
      "chip": "ym2612"
    },
    {
      "channel": 3,
      "note": 78,
      "start": 18.3859,
      "duration": 0.0011,
      "velocity": 86,
      "chip": "ym2612"
    },
    {
      "channel": 4,
      "note": 83,
      "start": 18.3865,
      "duration": 0.0924,
      "velocity": 99,
      "chip": "ym2612"
    },
    {
      "channel": 3,
      "note": 83,
      "start": 18.3872,
      "duration": 0.0007,
      "velocity": 86,
      "chip": "ym2612"
    },
    {
      "channel": 3,
      "note": 85,
      "start": 18.3882,
      "duration": 0.0012,
      "velocity": 86,
      "chip": "ym2612"
    },
    {
      "channel": 3,
      "note": 92,
      "start": 18.3896,
      "duration": 0.0018,
      "velocity": 86,
      "chip": "ym2612"
    },
    {
      "channel": 3,
      "note": 90,
      "start": 18.3916,
      "duration": 0.0013,
      "velocity": 86,
      "chip": "ym2612"
    },
    {
      "channel": 3,
      "note": 95,
      "start": 18.3931,
      "duration": 0.0015,
      "velocity": 86,
      "chip": "ym2612"
    },
    {
      "channel": 3,
      "note": 73,
      "start": 18.3947,
      "duration": 0.0012,
      "velocity": 86,
      "chip": "ym2612"
    },
    {
      "channel": 3,
      "note": 80,
      "start": 18.3961,
      "duration": 0.0682,
      "velocity": 86,
      "chip": "ym2612"
    },
    {
      "channel": 3,
      "note": 78,
      "start": 18.4644,
      "duration": 0.0022,
      "velocity": 86,
      "chip": "ym2612"
    },
    {
      "channel": 3,
      "note": 83,
      "start": 18.4669,
      "duration": 0.0017,
      "velocity": 86,
      "chip": "ym2612"
    },
    {
      "channel": 3,
      "note": 85,
      "start": 18.4689,
      "duration": 0.0039,
      "velocity": 86,
      "chip": "ym2612"
    },
    {
      "channel": 3,
      "note": 92,
      "start": 18.4729,
      "duration": 0.0027,
      "velocity": 86,
      "chip": "ym2612"
    },
    {
      "channel": 1,
      "note": 85,
      "start": 18.4754,
      "duration": 0.0058,
      "velocity": 99,
      "chip": "ym2612"
    },
    {
      "channel": 3,
      "note": 90,
      "start": 18.4759,
      "duration": 0.0026,
      "velocity": 86,
      "chip": "ym2612"
    },
    {
      "channel": 3,
      "note": 95,
      "start": 18.4788,
      "duration": 0.0027,
      "velocity": 86,
      "chip": "ym2612"
    },
    {
      "channel": 4,
      "note": 85,
      "start": 18.4791,
      "duration": 0.0037,
      "velocity": 99,
      "chip": "ym2612"
    },
    {
      "channel": 1,
      "note": 88,
      "start": 18.4814,
      "duration": 0.0979,
      "velocity": 99,
      "chip": "ym2612"
    },
    {
      "channel": 3,
      "note": 73,
      "start": 18.4817,
      "duration": 0.0007,
      "velocity": 86,
      "chip": "ym2612"
    },
    {
      "channel": 3,
      "note": 80,
      "start": 18.4827,
      "duration": 0.0679,
      "velocity": 86,
      "chip": "ym2612"
    },
    {
      "channel": 4,
      "note": 88,
      "start": 18.4829,
      "duration": 0.098,
      "velocity": 99,
      "chip": "ym2612"
    },
    {
      "channel": 0,
      "note": 61,
      "start": 18.5505,
      "duration": 0.0286,
      "velocity": 99,
      "chip": "ym2612"
    },
    {
      "channel": 3,
      "note": 78,
      "start": 18.5509,
      "duration": 0.002,
      "velocity": 86,
      "chip": "ym2612"
    },
    {
      "channel": 3,
      "note": 83,
      "start": 18.5531,
      "duration": 0.0018,
      "velocity": 86,
      "chip": "ym2612"
    },
    {
      "channel": 3,
      "note": 85,
      "start": 18.5551,
      "duration": 0.0019,
      "velocity": 86,
      "chip": "ym2612"
    },
    {
      "channel": 3,
      "note": 92,
      "start": 18.5572,
      "duration": 0.0018,
      "velocity": 86,
      "chip": "ym2612"
    },
    {
      "channel": 3,
      "note": 90,
      "start": 18.5592,
      "duration": 0.0174,
      "velocity": 86,
      "chip": "ym2612"
    },
    {
      "channel": 3,
      "note": 95,
      "start": 18.5769,
      "duration": 0.0027,
      "velocity": 86,
      "chip": "ym2612"
    },
    {
      "channel": 1,
      "note": 88,
      "start": 18.5795,
      "duration": 0.0706,
      "velocity": 99,
      "chip": "ym2612"
    },
    {
      "channel": 3,
      "note": 73,
      "start": 18.5798,
      "duration": 0.0009,
      "velocity": 86,
      "chip": "ym2612"
    },
    {
      "channel": 3,
      "note": 80,
      "start": 18.5808,
      "duration": 0.0677,
      "velocity": 86,
      "chip": "ym2612"
    },
    {
      "channel": 4,
      "note": 88,
      "start": 18.581,
      "duration": 0.0718,
      "velocity": 99,
      "chip": "ym2612"
    },
    {
      "channel": 3,
      "note": 78,
      "start": 18.6488,
      "duration": 0.0024,
      "velocity": 86,
      "chip": "ym2612"
    },
    {
      "channel": 1,
      "note": 83,
      "start": 18.6502,
      "duration": 0.007,
      "velocity": 99,
      "chip": "ym2612"
    },
    {
      "channel": 3,
      "note": 83,
      "start": 18.6515,
      "duration": 0.0022,
      "velocity": 86,
      "chip": "ym2612"
    },
    {
      "channel": 4,
      "note": 83,
      "start": 18.653,
      "duration": 0.0068,
      "velocity": 99,
      "chip": "ym2612"
    },
    {
      "channel": 3,
      "note": 85,
      "start": 18.654,
      "duration": 0.0021,
      "velocity": 86,
      "chip": "ym2612"
    },
    {
      "channel": 3,
      "note": 92,
      "start": 18.6565,
      "duration": 0.0021,
      "velocity": 86,
      "chip": "ym2612"
    },
    {
      "channel": 1,
      "note": 78,
      "start": 18.6574,
      "duration": 0.008,
      "velocity": 99,
      "chip": "ym2612"
    },
    {
      "channel": 3,
      "note": 90,
      "start": 18.6588,
      "duration": 0.0037,
      "velocity": 86,
      "chip": "ym2612"
    },
    {
      "channel": 4,
      "note": 78,
      "start": 18.66,
      "duration": 0.0067,
      "velocity": 99,
      "chip": "ym2612"
    },
    {
      "channel": 3,
      "note": 95,
      "start": 18.6628,
      "duration": 0.0028,
      "velocity": 86,
      "chip": "ym2612"
    },
    {
      "channel": 1,
      "note": 76,
      "start": 18.6655,
      "duration": 0.1715,
      "velocity": 99,
      "chip": "ym2612"
    },
    {
      "channel": 3,
      "note": 86,
      "start": 18.6659,
      "duration": 0.0005,
      "velocity": 86,
      "chip": "ym2612"
    },
    {
      "channel": 3,
      "note": 81,
      "start": 18.6666,
      "duration": 0.0687,
      "velocity": 86,
      "chip": "ym2612"
    },
    {
      "channel": 4,
      "note": 76,
      "start": 18.6668,
      "duration": 0.1724,
      "velocity": 99,
      "chip": "ym2612"
    },
    {
      "channel": 0,
      "note": 59,
      "start": 18.7351,
      "duration": 0.014,
      "velocity": 99,
      "chip": "ym2612"
    },
    {
      "channel": 2,
      "note": 69,
      "start": 18.7353,
      "duration": 0.1401,
      "velocity": 104,
      "chip": "ym2612"
    },
    {
      "channel": 3,
      "note": 83,
      "start": 18.7357,
      "duration": 0.0013,
      "velocity": 86,
      "chip": "ym2612"
    },
    {
      "channel": 3,
      "note": 76,
      "start": 18.7373,
      "duration": 0.0015,
      "velocity": 86,
      "chip": "ym2612"
    },
    {
      "channel": 3,
      "note": 78,
      "start": 18.739,
      "duration": 0.0024,
      "velocity": 86,
      "chip": "ym2612"
    },
    {
      "channel": 3,
      "note": 83,
      "start": 18.7415,
      "duration": 0.0019,
      "velocity": 86,
      "chip": "ym2612"
    },
    {
      "channel": 3,
      "note": 88,
      "start": 18.7436,
      "duration": 0.0032,
      "velocity": 86,
      "chip": "ym2612"
    },
    {
      "channel": 3,
      "note": 90,
      "start": 18.747,
      "duration": 0.0024,
      "velocity": 86,
      "chip": "ym2612"
    },
    {
      "channel": 3,
      "note": 86,
      "start": 18.7496,
      "duration": 0.0011,
      "velocity": 86,
      "chip": "ym2612"
    },
    {
      "channel": 3,
      "note": 81,
      "start": 18.7509,
      "duration": 0.0678,
      "velocity": 86,
      "chip": "ym2612"
    },
    {
      "channel": 3,
      "note": 83,
      "start": 18.8188,
      "duration": 0.0024,
      "velocity": 86,
      "chip": "ym2612"
    },
    {
      "channel": 3,
      "note": 76,
      "start": 18.8214,
      "duration": 0.0027,
      "velocity": 86,
      "chip": "ym2612"
    },
    {
      "channel": 3,
      "note": 78,
      "start": 18.8243,
      "duration": 0.0028,
      "velocity": 86,
      "chip": "ym2612"
    },
    {
      "channel": 3,
      "note": 83,
      "start": 18.8272,
      "duration": 0.0032,
      "velocity": 86,
      "chip": "ym2612"
    },
    {
      "channel": 3,
      "note": 88,
      "start": 18.8306,
      "duration": 0.0034,
      "velocity": 86,
      "chip": "ym2612"
    },
    {
      "channel": 3,
      "note": 90,
      "start": 18.8343,
      "duration": 0.003,
      "velocity": 86,
      "chip": "ym2612"
    },
    {
      "channel": 1,
      "note": 86,
      "start": 18.8371,
      "duration": 0.0038,
      "velocity": 99,
      "chip": "ym2612"
    },
    {
      "channel": 3,
      "note": 86,
      "start": 18.8375,
      "duration": 0.0015,
      "velocity": 86,
      "chip": "ym2612"
    },
    {
      "channel": 3,
      "note": 81,
      "start": 18.8391,
      "duration": 0.0022,
      "velocity": 86,
      "chip": "ym2612"
    },
    {
      "channel": 4,
      "note": 86,
      "start": 18.8394,
      "duration": 0.004,
      "velocity": 99,
      "chip": "ym2612"
    },
    {
      "channel": 0,
      "note": 59,
      "start": 18.8409,
      "duration": 0.0107,
      "velocity": 99,
      "chip": "ym2612"
    },
    {
      "channel": 1,
      "note": 85,
      "start": 18.8412,
      "duration": 0.0035,
      "velocity": 99,
      "chip": "ym2612"
    },
    {
      "channel": 3,
      "note": 83,
      "start": 18.8417,
      "duration": 0.0014,
      "velocity": 86,
      "chip": "ym2612"
    },
    {
      "channel": 3,
      "note": 76,
      "start": 18.8433,
      "duration": 0.0016,
      "velocity": 86,
      "chip": "ym2612"
    },
    {
      "channel": 4,
      "note": 85,
      "start": 18.8436,
      "duration": 0.0026,
      "velocity": 99,
      "chip": "ym2612"
    },
    {
      "channel": 1,
      "note": 92,
      "start": 18.8449,
      "duration": 0.0026,
      "velocity": 99,
      "chip": "ym2612"
    },
    {
      "channel": 3,
      "note": 78,
      "start": 18.8451,
      "duration": 0.0008,
      "velocity": 86,
      "chip": "ym2612"
    },
    {
      "channel": 3,
      "note": 83,
      "start": 18.8461,
      "duration": 0.0018,
      "velocity": 86,
      "chip": "ym2612"
    },
    {
      "channel": 4,
      "note": 92,
      "start": 18.8464,
      "duration": 0.0039,
      "velocity": 99,
      "chip": "ym2612"
    },
    {
      "channel": 1,
      "note": 90,
      "start": 18.8477,
      "duration": 0.0042,
      "velocity": 99,
      "chip": "ym2612"
    },
    {
      "channel": 3,
      "note": 88,
      "start": 18.8482,
      "duration": 0.002,
      "velocity": 86,
      "chip": "ym2612"
    },
    {
      "channel": 3,
      "note": 90,
      "start": 18.8503,
      "duration": 0.002,
      "velocity": 86,
      "chip": "ym2612"
    },
    {
      "channel": 4,
      "note": 90,
      "start": 18.8505,
      "duration": 0.0045,
      "velocity": 99,
      "chip": "ym2612"
    },
    {
      "channel": 1,
      "note": 86,
      "start": 18.8522,
      "duration": 0.0049,
      "velocity": 99,
      "chip": "ym2612"
    },
    {
      "channel": 3,
      "note": 86,
      "start": 18.8525,
      "duration": 0.0022,
      "velocity": 86,
      "chip": "ym2612"
    },
    {
      "channel": 3,
      "note": 81,
      "start": 18.855,
      "duration": 0.0026,
      "velocity": 86,
      "chip": "ym2612"
    },
    {
      "channel": 4,
      "note": 86,
      "start": 18.8552,
      "duration": 0.0051,
      "velocity": 99,
      "chip": "ym2612"
    },
    {
      "channel": 1,
      "note": 83,
      "start": 18.8573,
      "duration": 0.0178,
      "velocity": 99,
      "chip": "ym2612"
    },
    {
      "channel": 3,
      "note": 83,
      "start": 18.8578,
      "duration": 0.0021,
      "velocity": 86,
      "chip": "ym2612"
    },
    {
      "channel": 3,
      "note": 76,
      "start": 18.8602,
      "duration": 0.0029,
      "velocity": 86,
      "chip": "ym2612"
    },
    {
      "channel": 4,
      "note": 83,
      "start": 18.8605,
      "duration": 0.0153,
      "velocity": 99,
      "chip": "ym2612"
    },
    {
      "channel": 3,
      "note": 78,
      "start": 18.8634,
      "duration": 0.0036,
      "velocity": 86,
      "chip": "ym2612"
    },
    {
      "channel": 3,
      "note": 83,
      "start": 18.8672,
      "duration": 0.0022,
      "velocity": 86,
      "chip": "ym2612"
    },
    {
      "channel": 3,
      "note": 88,
      "start": 18.8696,
      "duration": 0.0031,
      "velocity": 86,
      "chip": "ym2612"
    },
    {
      "channel": 3,
      "note": 90,
      "start": 18.873,
      "duration": 0.0026,
      "velocity": 86,
      "chip": "ym2612"
    },
    {
      "channel": 1,
      "note": 71,
      "start": 18.8753,
      "duration": 0.0008,
      "velocity": 99,
      "chip": "ym2612"
    },
    {
      "channel": 3,
      "note": 69,
      "start": 18.8758,
      "duration": 0.001,
      "velocity": 86,
      "chip": "ym2612"
    },
    {
      "channel": 1,
      "note": 72,
      "start": 18.8763,
      "duration": 0.0003,
      "velocity": 99,
      "chip": "ym2612"
    },
    {
      "channel": 1,
      "note": 76,
      "start": 18.8767,
      "duration": 0.0185,
      "velocity": 99,
      "chip": "ym2612"
    },
    {
      "channel": 3,
      "note": 74,
      "start": 18.8769,
      "duration": 0.0855,
      "velocity": 86,
      "chip": "ym2612"
    },
    {
      "channel": 4,
      "note": 71,
      "start": 18.877,
      "duration": 0.0187,
      "velocity": 99,
      "chip": "ym2612"
    },
    {
      "channel": 1,
      "note": 78,
      "start": 18.8954,
      "duration": 0.1407,
      "velocity": 99,
      "chip": "ym2612"
    },
    {
      "channel": 4,
      "note": 72,
      "start": 18.896,
      "duration": 0.0668,
      "velocity": 99,
      "chip": "ym2612"
    },
    {
      "channel": 0,
      "note": 57,
      "start": 18.9622,
      "duration": 0.0116,
      "velocity": 99,
      "chip": "ym2612"
    },
    {
      "channel": 2,
      "note": 62,
      "start": 18.9623,
      "duration": 0.0741,
      "velocity": 104,
      "chip": "ym2612"
    },
    {
      "channel": 3,
      "note": 72,
      "start": 18.9627,
      "duration": 0.0016,
      "velocity": 86,
      "chip": "ym2612"
    },
    {
      "channel": 4,
      "note": 76,
      "start": 18.963,
      "duration": 0.0004,
      "velocity": 99,
      "chip": "ym2612"
    },
    {
      "channel": 4,
      "note": 78,
      "start": 18.9635,
      "duration": 0.0745,
      "velocity": 99,
      "chip": "ym2612"
    },
    {
      "channel": 3,
      "note": 79,
      "start": 18.9646,
      "duration": 0.0008,
      "velocity": 86,
      "chip": "ym2612"
    },
    {
      "channel": 3,
      "note": 81,
      "start": 18.9656,
      "duration": 0.0013,
      "velocity": 86,
      "chip": "ym2612"
    },
    {
      "channel": 3,
      "note": 86,
      "start": 18.9672,
      "duration": 0.0018,
      "velocity": 86,
      "chip": "ym2612"
    },
    {
      "channel": 3,
      "note": 84,
      "start": 18.9693,
      "duration": 0.0024,
      "velocity": 86,
      "chip": "ym2612"
    },
    {
      "channel": 3,
      "note": 91,
      "start": 18.972,
      "duration": 0.0022,
      "velocity": 86,
      "chip": "ym2612"
    },
    {
      "channel": 3,
      "note": 69,
      "start": 18.9745,
      "duration": 0.0019,
      "velocity": 86,
      "chip": "ym2612"
    },
    {
      "channel": 3,
      "note": 74,
      "start": 18.9766,
      "duration": 0.0016,
      "velocity": 86,
      "chip": "ym2612"
    },
    {
      "channel": 3,
      "note": 72,
      "start": 18.9785,
      "duration": 0.0034,
      "velocity": 86,
      "chip": "ym2612"
    },
    {
      "channel": 3,
      "note": 79,
      "start": 18.9823,
      "duration": 0.0014,
      "velocity": 86,
      "chip": "ym2612"
    },
    {
      "channel": 3,
      "note": 81,
      "start": 18.9839,
      "duration": 0.0019,
      "velocity": 86,
      "chip": "ym2612"
    },
    {
      "channel": 3,
      "note": 86,
      "start": 18.9858,
      "duration": 0.0037,
      "velocity": 86,
      "chip": "ym2612"
    },
    {
      "channel": 3,
      "note": 84,
      "start": 18.9897,
      "duration": 0.0019,
      "velocity": 86,
      "chip": "ym2612"
    },
    {
      "channel": 3,
      "note": 91,
      "start": 18.9917,
      "duration": 0.0028,
      "velocity": 86,
      "chip": "ym2612"
    },
    {
      "channel": 3,
      "note": 69,
      "start": 18.9947,
      "duration": 0.002,
      "velocity": 86,
      "chip": "ym2612"
    },
    {
      "channel": 3,
      "note": 74,
      "start": 18.9968,
      "duration": 0.0027,
      "velocity": 86,
      "chip": "ym2612"
    },
    {
      "channel": 0,
      "note": 57,
      "start": 18.9993,
      "duration": 0.0141,
      "velocity": 99,
      "chip": "ym2612"
    },
    {
      "channel": 3,
      "note": 72,
      "start": 18.9999,
      "duration": 0.0021,
      "velocity": 86,
      "chip": "ym2612"
    },
    {
      "channel": 3,
      "note": 79,
      "start": 19.0022,
      "duration": 0.0017,
      "velocity": 86,
      "chip": "ym2612"
    },
    {
      "channel": 3,
      "note": 81,
      "start": 19.0042,
      "duration": 0.0022,
      "velocity": 86,
      "chip": "ym2612"
    },
    {
      "channel": 3,
      "note": 86,
      "start": 19.0065,
      "duration": 0.0019,
      "velocity": 86,
      "chip": "ym2612"
    },
    {
      "channel": 3,
      "note": 84,
      "start": 19.0086,
      "duration": 0.0024,
      "velocity": 86,
      "chip": "ym2612"
    },
    {
      "channel": 3,
      "note": 91,
      "start": 19.0113,
      "duration": 0.0021,
      "velocity": 86,
      "chip": "ym2612"
    },
    {
      "channel": 3,
      "note": 69,
      "start": 19.0137,
      "duration": 0.0021,
      "velocity": 86,
      "chip": "ym2612"
    },
    {
      "channel": 3,
      "note": 74,
      "start": 19.016,
      "duration": 0.0032,
      "velocity": 86,
      "chip": "ym2612"
    },
    {
      "channel": 3,
      "note": 72,
      "start": 19.0195,
      "duration": 0.0015,
      "velocity": 86,
      "chip": "ym2612"
    },
    {
      "channel": 3,
      "note": 79,
      "start": 19.0212,
      "duration": 0.0029,
      "velocity": 86,
      "chip": "ym2612"
    },
    {
      "channel": 3,
      "note": 81,
      "start": 19.0244,
      "duration": 0.0028,
      "velocity": 86,
      "chip": "ym2612"
    },
    {
      "channel": 3,
      "note": 86,
      "start": 19.0275,
      "duration": 0.0029,
      "velocity": 86,
      "chip": "ym2612"
    },
    {
      "channel": 3,
      "note": 84,
      "start": 19.0307,
      "duration": 0.0028,
      "velocity": 86,
      "chip": "ym2612"
    },
    {
      "channel": 3,
      "note": 91,
      "start": 19.0337,
      "duration": 0.0028,
      "velocity": 86,
      "chip": "ym2612"
    },
    {
      "channel": 1,
      "note": 79,
      "start": 19.0363,
      "duration": 0.0007,
      "velocity": 99,
      "chip": "ym2612"
    },
    {
      "channel": 3,
      "note": 72,
      "start": 19.0367,
      "duration": 0.001,
      "velocity": 86,
      "chip": "ym2612"
    },
    {
      "channel": 1,
      "note": 75,
      "start": 19.0372,
      "duration": 0.0004,
      "velocity": 99,
      "chip": "ym2612"
    },
    {
      "channel": 1,
      "note": 74,
      "start": 19.0377,
      "duration": 0.0183,
      "velocity": 99,
      "chip": "ym2612"
    },
    {
      "channel": 3,
      "note": 79,
      "start": 19.038,
      "duration": 0.0684,
      "velocity": 86,
      "chip": "ym2612"
    },
    {
      "channel": 4,
      "note": 79,
      "start": 19.0382,
      "duration": 0.0183,
      "velocity": 99,
      "chip": "ym2612"
    },
    {
      "channel": 1,
      "note": 81,
      "start": 19.0562,
      "duration": 0.3189,
      "velocity": 99,
      "chip": "ym2612"
    },
    {
      "channel": 4,
      "note": 75,
      "start": 19.0567,
      "duration": 0.0501,
      "velocity": 99,
      "chip": "ym2612"
    },
    {
      "channel": 0,
      "note": 60,
      "start": 19.1062,
      "duration": 0.0124,
      "velocity": 99,
      "chip": "ym2612"
    },
    {
      "channel": 2,
      "note": 65,
      "start": 19.1064,
      "duration": 0.2662,
      "velocity": 104,
      "chip": "ym2612"
    },
    {
      "channel": 3,
      "note": 77,
      "start": 19.1068,
      "duration": 0.0015,
      "velocity": 86,
      "chip": "ym2612"
    },
    {
      "channel": 4,
      "note": 74,
      "start": 19.1071,
      "duration": 0.0003,
      "velocity": 99,
      "chip": "ym2612"
    },
    {
      "channel": 4,
      "note": 81,
      "start": 19.1075,
      "duration": 0.2696,
      "velocity": 99,
      "chip": "ym2612"
    },
    {
      "channel": 3,
      "note": 82,
      "start": 19.1085,
      "duration": 0.0006,
      "velocity": 86,
      "chip": "ym2612"
    },
    {
      "channel": 3,
      "note": 84,
      "start": 19.1093,
      "duration": 0.0015,
      "velocity": 86,
      "chip": "ym2612"
    },
    {
      "channel": 3,
      "note": 91,
      "start": 19.1111,
      "duration": 0.0015,
      "velocity": 86,
      "chip": "ym2612"
    },
    {
      "channel": 3,
      "note": 89,
      "start": 19.1128,
      "duration": 0.0033,
      "velocity": 86,
      "chip": "ym2612"
    },
    {
      "channel": 3,
      "note": 94,
      "start": 19.1164,
      "duration": 0.0026,
      "velocity": 86,
      "chip": "ym2612"
    },
    {
      "channel": 3,
      "note": 72,
      "start": 19.1193,
      "duration": 0.0012,
      "velocity": 86,
      "chip": "ym2612"
    },
    {
      "channel": 3,
      "note": 79,
      "start": 19.1207,
      "duration": 0.0681,
      "velocity": 86,
      "chip": "ym2612"
    },
    {
      "channel": 3,
      "note": 77,
      "start": 19.1891,
      "duration": 0.0024,
      "velocity": 86,
      "chip": "ym2612"
    },
    {
      "channel": 3,
      "note": 82,
      "start": 19.1918,
      "duration": 0.0011,
      "velocity": 86,
      "chip": "ym2612"
    },
    {
      "channel": 3,
      "note": 84,
      "start": 19.1931,
      "duration": 0.0021,
      "velocity": 86,
      "chip": "ym2612"
    },
    {
      "channel": 3,
      "note": 91,
      "start": 19.1954,
      "duration": 0.0017,
      "velocity": 86,
      "chip": "ym2612"
    },
    {
      "channel": 3,
      "note": 89,
      "start": 19.1973,
      "duration": 0.0025,
      "velocity": 86,
      "chip": "ym2612"
    },
    {
      "channel": 3,
      "note": 94,
      "start": 19.2001,
      "duration": 0.003,
      "velocity": 86,
      "chip": "ym2612"
    },
    {
      "channel": 3,
      "note": 72,
      "start": 19.2034,
      "duration": 0.0012,
      "velocity": 86,
      "chip": "ym2612"
    },
    {
      "channel": 3,
      "note": 79,
      "start": 19.2047,
      "duration": 0.068,
      "velocity": 86,
      "chip": "ym2612"
    },
    {
      "channel": 0,
      "note": 60,
      "start": 19.2725,
      "duration": 0.0136,
      "velocity": 99,
      "chip": "ym2612"
    },
    {
      "channel": 3,
      "note": 77,
      "start": 19.2729,
      "duration": 0.0019,
      "velocity": 86,
      "chip": "ym2612"
    },
    {
      "channel": 3,
      "note": 82,
      "start": 19.275,
      "duration": 0.0016,
      "velocity": 86,
      "chip": "ym2612"
    },
    {
      "channel": 3,
      "note": 84,
      "start": 19.2769,
      "duration": 0.0018,
      "velocity": 86,
      "chip": "ym2612"
    },
    {
      "channel": 3,
      "note": 91,
      "start": 19.279,
      "duration": 0.002,
      "velocity": 86,
      "chip": "ym2612"
    },
    {
      "channel": 3,
      "note": 89,
      "start": 19.2813,
      "duration": 0.002,
      "velocity": 86,
      "chip": "ym2612"
    },
    {
      "channel": 3,
      "note": 94,
      "start": 19.2835,
      "duration": 0.0031,
      "velocity": 86,
      "chip": "ym2612"
    },
    {
      "channel": 3,
      "note": 72,
      "start": 19.2869,
      "duration": 0.0014,
      "velocity": 86,
      "chip": "ym2612"
    },
    {
      "channel": 3,
      "note": 79,
      "start": 19.2885,
      "duration": 0.0676,
      "velocity": 86,
      "chip": "ym2612"
    },
    {
      "channel": 3,
      "note": 77,
      "start": 19.3563,
      "duration": 0.002,
      "velocity": 86,
      "chip": "ym2612"
    },
    {
      "channel": 3,
      "note": 82,
      "start": 19.3586,
      "duration": 0.0011,
      "velocity": 86,
      "chip": "ym2612"
    },
    {
      "channel": 3,
      "note": 84,
      "start": 19.3599,
      "duration": 0.0022,
      "velocity": 86,
      "chip": "ym2612"
    },
    {
      "channel": 3,
      "note": 91,
      "start": 19.3623,
      "duration": 0.0039,
      "velocity": 86,
      "chip": "ym2612"
    },
    {
      "channel": 3,
      "note": 89,
      "start": 19.3664,
      "duration": 0.0031,
      "velocity": 86,
      "chip": "ym2612"
    },
    {
      "channel": 3,
      "note": 94,
      "start": 19.3697,
      "duration": 0.003,
      "velocity": 86,
      "chip": "ym2612"
    },
    {
      "channel": 3,
      "note": 73,
      "start": 19.373,
      "duration": 0.0015,
      "velocity": 86,
      "chip": "ym2612"
    },
    {
      "channel": 3,
      "note": 80,
      "start": 19.3748,
      "duration": 0.0013,
      "velocity": 86,
      "chip": "ym2612"
    },
    {
      "channel": 1,
      "note": 83,
      "start": 19.3753,
      "duration": 0.028,
      "velocity": 99,
      "chip": "ym2612"
    },
    {
      "channel": 0,
      "note": 61,
      "start": 19.3759,
      "duration": 0.0132,
      "velocity": 99,
      "chip": "ym2612"
    },
    {
      "channel": 2,
      "note": 66,
      "start": 19.3761,
      "duration": 0.078,
      "velocity": 104,
      "chip": "ym2612"
    },
    {
      "channel": 3,
      "note": 78,
      "start": 19.3764,
      "duration": 0.0012,
      "velocity": 86,
      "chip": "ym2612"
    },
    {
      "channel": 4,
      "note": 83,
      "start": 19.3773,
      "duration": 0.0308,
      "velocity": 99,
      "chip": "ym2612"
    },
    {
      "channel": 3,
      "note": 83,
      "start": 19.3778,
      "duration": 0.0008,
      "velocity": 86,
      "chip": "ym2612"
    },
    {
      "channel": 3,
      "note": 85,
      "start": 19.3789,
      "duration": 0.0013,
      "velocity": 86,
      "chip": "ym2612"
    },
    {
      "channel": 3,
      "note": 92,
      "start": 19.3805,
      "duration": 0.0017,
      "velocity": 86,
      "chip": "ym2612"
    },
    {
      "channel": 3,
      "note": 90,
      "start": 19.3825,
      "duration": 0.0034,
      "velocity": 86,
      "chip": "ym2612"
    },
    {
      "channel": 3,
      "note": 95,
      "start": 19.3862,
      "duration": 0.0032,
      "velocity": 86,
      "chip": "ym2612"
    },
    {
      "channel": 3,
      "note": 73,
      "start": 19.3896,
      "duration": 0.0029,
      "velocity": 86,
      "chip": "ym2612"
    },
    {
      "channel": 3,
      "note": 80,
      "start": 19.3927,
      "duration": 0.0018,
      "velocity": 86,
      "chip": "ym2612"
    },
    {
      "channel": 3,
      "note": 78,
      "start": 19.3949,
      "duration": 0.0015,
      "velocity": 86,
      "chip": "ym2612"
    },
    {
      "channel": 3,
      "note": 83,
      "start": 19.3965,
      "duration": 0.0027,
      "velocity": 86,
      "chip": "ym2612"
    },
    {
      "channel": 3,
      "note": 85,
      "start": 19.3995,
      "duration": 0.002,
      "velocity": 86,
      "chip": "ym2612"
    },
    {
      "channel": 3,
      "note": 92,
      "start": 19.4017,
      "duration": 0.002,
      "velocity": 86,
      "chip": "ym2612"
    },
    {
      "channel": 1,
      "note": 85,
      "start": 19.4035,
      "duration": 0.0062,
      "velocity": 99,
      "chip": "ym2612"
    },
    {
      "channel": 3,
      "note": 90,
      "start": 19.404,
      "duration": 0.0037,
      "velocity": 86,
      "chip": "ym2612"
    },
    {
      "channel": 3,
      "note": 95,
      "start": 19.408,
      "duration": 0.0022,
      "velocity": 86,
      "chip": "ym2612"
    },
    {
      "channel": 4,
      "note": 85,
      "start": 19.4082,
      "duration": 0.0044,
      "velocity": 99,
      "chip": "ym2612"
    },
    {
      "channel": 1,
      "note": 88,
      "start": 19.41,
      "duration": 0.0202,
      "velocity": 99,
      "chip": "ym2612"
    },
    {
      "channel": 3,
      "note": 73,
      "start": 19.4104,
      "duration": 0.0019,
      "velocity": 86,
      "chip": "ym2612"
    },
    {
      "channel": 3,
      "note": 80,
      "start": 19.4125,
      "duration": 0.003,
      "velocity": 86,
      "chip": "ym2612"
    },
    {
      "channel": 4,
      "note": 88,
      "start": 19.4128,
      "duration": 0.0214,
      "velocity": 99,
      "chip": "ym2612"
    },
    {
      "channel": 0,
      "note": 61,
      "start": 19.4152,
      "duration": 0.0148,
      "velocity": 99,
      "chip": "ym2612"
    },
    {
      "channel": 3,
      "note": 78,
      "start": 19.4158,
      "duration": 0.0035,
      "velocity": 86,
      "chip": "ym2612"
    },
    {
      "channel": 3,
      "note": 83,
      "start": 19.4196,
      "duration": 0.0015,
      "velocity": 86,
      "chip": "ym2612"
    },
    {
      "channel": 3,
      "note": 85,
      "start": 19.4213,
      "duration": 0.0016,
      "velocity": 86,
      "chip": "ym2612"
    },
    {
      "channel": 3,
      "note": 92,
      "start": 19.4231,
      "duration": 0.0021,
      "velocity": 86,
      "chip": "ym2612"
    },
    {
      "channel": 3,
      "note": 90,
      "start": 19.4255,
      "duration": 0.0027,
      "velocity": 86,
      "chip": "ym2612"
    },
    {
      "channel": 3,
      "note": 95,
      "start": 19.4285,
      "duration": 0.0018,
      "velocity": 86,
      "chip": "ym2612"
    },
    {
      "channel": 1,
      "note": 88,
      "start": 19.4303,
      "duration": 0.0068,
      "velocity": 99,
      "chip": "ym2612"
    },
    {
      "channel": 3,
      "note": 73,
      "start": 19.4307,
      "duration": 0.0032,
      "velocity": 86,
      "chip": "ym2612"
    },
    {
      "channel": 3,
      "note": 80,
      "start": 19.4341,
      "duration": 0.0018,
      "velocity": 86,
      "chip": "ym2612"
    },
    {
      "channel": 4,
      "note": 88,
      "start": 19.4344,
      "duration": 0.0068,
      "velocity": 99,
      "chip": "ym2612"
    },
    {
      "channel": 3,
      "note": 78,
      "start": 19.4361,
      "duration": 0.0035,
      "velocity": 86,
      "chip": "ym2612"
    },
    {
      "channel": 1,
      "note": 83,
      "start": 19.4372,
      "duration": 0.007,
      "velocity": 99,
      "chip": "ym2612"
    },
    {
      "channel": 3,
      "note": 83,
      "start": 19.4399,
      "duration": 0.0022,
      "velocity": 86,
      "chip": "ym2612"
    },
    {
      "channel": 4,
      "note": 83,
      "start": 19.4414,
      "duration": 0.0068,
      "velocity": 99,
      "chip": "ym2612"
    },
    {
      "channel": 3,
      "note": 85,
      "start": 19.4424,
      "duration": 0.0014,
      "velocity": 86,
      "chip": "ym2612"
    },
    {
      "channel": 3,
      "note": 92,
      "start": 19.444,
      "duration": 0.0031,
      "velocity": 86,
      "chip": "ym2612"
    },
    {
      "channel": 1,
      "note": 78,
      "start": 19.4444,
      "duration": 0.0093,
      "velocity": 99,
      "chip": "ym2612"
    },
    {
      "channel": 3,
      "note": 90,
      "start": 19.4474,
      "duration": 0.0021,
      "velocity": 86,
      "chip": "ym2612"
    },
    {
      "channel": 4,
      "note": 78,
      "start": 19.4483,
      "duration": 0.0068,
      "velocity": 99,
      "chip": "ym2612"
    },
    {
      "channel": 3,
      "note": 95,
      "start": 19.4497,
      "duration": 0.0045,
      "velocity": 86,
      "chip": "ym2612"
    },
    {
      "channel": 1,
      "note": 76,
      "start": 19.454,
      "duration": 0.105,
      "velocity": 99,
      "chip": "ym2612"
    },
    {
      "channel": 3,
      "note": 84,
      "start": 19.4544,
      "duration": 0.0005,
      "velocity": 86,
      "chip": "ym2612"
    },
    {
      "channel": 3,
      "note": 79,
      "start": 19.4551,
      "duration": 0.0685,
      "velocity": 86,
      "chip": "ym2612"
    },
    {
      "channel": 4,
      "note": 76,
      "start": 19.4553,
      "duration": 0.1057,
      "velocity": 99,
      "chip": "ym2612"
    },
    {
      "channel": 0,
      "note": 62,
      "start": 19.5234,
      "duration": 0.0123,
      "velocity": 99,
      "chip": "ym2612"
    },
    {
      "channel": 2,
      "note": 72,
      "start": 19.5236,
      "duration": 0.1229,
      "velocity": 104,
      "chip": "ym2612"
    },
    {
      "channel": 3,
      "note": 86,
      "start": 19.5239,
      "duration": 0.0011,
      "velocity": 86,
      "chip": "ym2612"
    },
    {
      "channel": 3,
      "note": 81,
      "start": 19.5252,
      "duration": 0.0012,
      "velocity": 86,
      "chip": "ym2612"
    },
    {
      "channel": 3,
      "note": 88,
      "start": 19.5267,
      "duration": 0.0023,
      "velocity": 86,
      "chip": "ym2612"
    },
    {
      "channel": 3,
      "note": 83,
      "start": 19.5292,
      "duration": 0.0012,
      "velocity": 86,
      "chip": "ym2612"
    },
    {
      "channel": 3,
      "note": 91,
      "start": 19.5307,
      "duration": 0.0029,
      "velocity": 86,
      "chip": "ym2612"
    },
    {
      "channel": 3,
      "note": 86,
      "start": 19.5339,
      "duration": 0.0023,
      "velocity": 86,
      "chip": "ym2612"
    },
    {
      "channel": 3,
      "note": 84,
      "start": 19.5364,
      "duration": 0.0018,
      "velocity": 86,
      "chip": "ym2612"
    },
    {
      "channel": 3,
      "note": 79,
      "start": 19.5383,
      "duration": 0.0025,
      "velocity": 86,
      "chip": "ym2612"
    },
    {
      "channel": 3,
      "note": 86,
      "start": 19.541,
      "duration": 0.0036,
      "velocity": 86,
      "chip": "ym2612"
    },
    {
      "channel": 3,
      "note": 81,
      "start": 19.5448,
      "duration": 0.0018,
      "velocity": 86,
      "chip": "ym2612"
    },
    {
      "channel": 3,
      "note": 88,
      "start": 19.5468,
      "duration": 0.0029,
      "velocity": 86,
      "chip": "ym2612"
    },
    {
      "channel": 3,
      "note": 83,
      "start": 19.5501,
      "duration": 0.0023,
      "velocity": 86,
      "chip": "ym2612"
    },
    {
      "channel": 3,
      "note": 91,
      "start": 19.5526,
      "duration": 0.0034,
      "velocity": 86,
      "chip": "ym2612"
    },
    {
      "channel": 3,
      "note": 86,
      "start": 19.5563,
      "duration": 0.0031,
      "velocity": 86,
      "chip": "ym2612"
    },
    {
      "channel": 1,
      "note": 78,
      "start": 19.5593,
      "duration": 0.0012,
      "velocity": 99,
      "chip": "ym2612"
    },
    {
      "channel": 3,
      "note": 84,
      "start": 19.5596,
      "duration": 0.0012,
      "velocity": 86,
      "chip": "ym2612"
    },
    {
      "channel": 1,
      "note": 79,
      "start": 19.5607,
      "duration": 0.0678,
      "velocity": 99,
      "chip": "ym2612"
    },
    {
      "channel": 3,
      "note": 79,
      "start": 19.561,
      "duration": 0.0679,
      "velocity": 86,
      "chip": "ym2612"
    },
    {
      "channel": 4,
      "note": 78,
      "start": 19.5612,
      "duration": 0.068,
      "velocity": 99,
      "chip": "ym2612"
    },
    {
      "channel": 1,
      "note": 90,
      "start": 19.6287,
      "duration": 0.0242,
      "velocity": 99,
      "chip": "ym2612"
    },
    {
      "channel": 3,
      "note": 86,
      "start": 19.6291,
      "duration": 0.0016,
      "velocity": 86,
      "chip": "ym2612"
    },
    {
      "channel": 4,
      "note": 79,
      "start": 19.6294,
      "duration": 0.0016,
      "velocity": 99,
      "chip": "ym2612"
    },
    {
      "channel": 3,
      "note": 81,
      "start": 19.6309,
      "duration": 0.0029,
      "velocity": 86,
      "chip": "ym2612"
    },
    {
      "channel": 4,
      "note": 90,
      "start": 19.6311,
      "duration": 0.022,
      "velocity": 99,
      "chip": "ym2612"
    },
    {
      "channel": 3,
      "note": 88,
      "start": 19.6339,
      "duration": 0.0025,
      "velocity": 86,
      "chip": "ym2612"
    },
    {
      "channel": 3,
      "note": 83,
      "start": 19.6367,
      "duration": 0.0029,
      "velocity": 86,
      "chip": "ym2612"
    },
    {
      "channel": 3,
      "note": 91,
      "start": 19.6399,
      "duration": 0.0027,
      "velocity": 86,
      "chip": "ym2612"
    },
    {
      "channel": 3,
      "note": 86,
      "start": 19.6429,
      "duration": 0.0039,
      "velocity": 86,
      "chip": "ym2612"
    },
    {
      "channel": 2,
      "note": 50,
      "start": 19.6468,
      "duration": 0.0024,
      "velocity": 104,
      "chip": "ym2612"
    },
    {
      "channel": 3,
      "note": 79,
      "start": 19.6471,
      "duration": 0.0024,
      "velocity": 86,
      "chip": "ym2612"
    },
    {
      "channel": 0,
      "note": 67,
      "start": 19.649,
      "duration": 0.0017,
      "velocity": 99,
      "chip": "ym2612"
    },
    {
      "channel": 2,
      "note": 55,
      "start": 19.6495,
      "duration": 0.0015,
      "velocity": 104,
      "chip": "ym2612"
    },
    {
      "channel": 3,
      "note": 84,
      "start": 19.6497,
      "duration": 0.0014,
      "velocity": 86,
      "chip": "ym2612"
    },
    {
      "channel": 0,
      "note": 72,
      "start": 19.6508,
      "duration": 0.0011,
      "velocity": 99,
      "chip": "ym2612"
    },
    {
      "channel": 2,
      "note": 60,
      "start": 19.651,
      "duration": 0.0012,
      "velocity": 104,
      "chip": "ym2612"
    },
    {
      "channel": 3,
      "note": 89,
      "start": 19.6513,
      "duration": 0.0012,
      "velocity": 86,
      "chip": "ym2612"
    },
    {
      "channel": 0,
      "note": 74,
      "start": 19.6522,
      "duration": 0.0006,
      "velocity": 99,
      "chip": "ym2612"
    },
    {
      "channel": 2,
      "note": 62,
      "start": 19.6524,
      "duration": 0.0005,
      "velocity": 104,
      "chip": "ym2612"
    },
    {
      "channel": 3,
      "note": 91,
      "start": 19.6526,
      "duration": 0.0004,
      "velocity": 86,
      "chip": "ym2612"
    },
    {
      "channel": 0,
      "note": 75,
      "start": 19.6573,
      "duration": 0.0718,
      "velocity": 99,
      "chip": "ym2612"
    },
    {
      "channel": 1,
      "note": 52,
      "start": 19.6575,
      "duration": 0.0007,
      "velocity": 104,
      "chip": "ym2612"
    },
    {
      "channel": 2,
      "note": 64,
      "start": 19.6576,
      "duration": 0.0008,
      "velocity": 104,
      "chip": "ym2612"
    },
    {
      "channel": 3,
      "note": 47,
      "start": 19.6578,
      "duration": 0.0008,
      "velocity": 104,
      "chip": "ym2612"
    },
    {
      "channel": 4,
      "note": 52,
      "start": 19.658,
      "duration": 0.0008,
      "velocity": 104,
      "chip": "ym2612"
    },
    {
      "channel": 1,
      "note": 54,
      "start": 19.6583,
      "duration": 0.001,
      "velocity": 104,
      "chip": "ym2612"
    },
    {
      "channel": 2,
      "note": 66,
      "start": 19.6585,
      "duration": 0.001,
      "velocity": 104,
      "chip": "ym2612"
    },
    {
      "channel": 3,
      "note": 49,
      "start": 19.6587,
      "duration": 0.001,
      "velocity": 104,
      "chip": "ym2612"
    },
    {
      "channel": 4,
      "note": 54,
      "start": 19.6589,
      "duration": 0.001,
      "velocity": 104,
      "chip": "ym2612"
    },
    {
      "channel": 1,
      "note": 59,
      "start": 19.6595,
      "duration": 0.0701,
      "velocity": 104,
      "chip": "ym2612"
    },
    {
      "channel": 2,
      "note": 71,
      "start": 19.6597,
      "duration": 58.9936,
      "velocity": 104,
      "chip": "ym2612"
    },
    {
      "channel": 3,
      "note": 54,
      "start": 19.6599,
      "duration": 58.9933,
      "velocity": 104,
      "chip": "ym2612"
    },
    {
      "channel": 4,
      "note": 59,
      "start": 19.66,
      "duration": 58.9932,
      "velocity": 104,
      "chip": "ym2612"
    },
    {
      "channel": 0,
      "note": 52,
      "start": 19.7294,
      "duration": 58.9239,
      "velocity": 99,
      "chip": "ym2612"
    },
    {
      "channel": 1,
      "note": 62,
      "start": 19.7298,
      "duration": 58.9234,
      "velocity": 104,
      "chip": "ym2612"
    }
  ]
}