{
  "track_name": "14 - Zenza",
  "duration_sec": 37.324,
  "sample_rate": 44100,
  "note_count": 765,
  "unique_pitches": 25,
  "pitch_range": 53,
  "avg_note_duration": 0.2004,
  "reconstruction_stats": {
    "notes_reconstructed": 765,
    "keyon_events": 765,
    "keyoff_events": 763,
    "orphan_keyons": 2,
    "unique_pitches": 25,
    "pitch_range": 53,
    "avg_duration_sec": 0.2004
  },
  "metadata": {
    "source": "T\\Tempo\\14 - Zenza.vgz"
  },
  "notes": [
    {
      "channel": 1,
      "note": 49,
      "start": 0.3063,
      "duration": 0.2665,
      "velocity": 117,
      "chip": "ym2612"
    },
    {
      "channel": 1,
      "note": 61,
      "start": 0.5733,
      "duration": 0.5686,
      "velocity": 64,
      "chip": "ym2612"
    },
    {
      "channel": 1,
      "note": 47,
      "start": 1.1424,
      "duration": 0.547,
      "velocity": 64,
      "chip": "ym2612"
    },
    {
      "channel": 2,
      "note": 61,
      "start": 1.1437,
      "duration": 0.0627,
      "velocity": 101,
      "chip": "ym2612"
    },
    {
      "channel": 0,
      "note": 61,
      "start": 1.1566,
      "duration": 0.0655,
      "velocity": 101,
      "chip": "ym2612"
    },
    {
      "channel": 3,
      "note": 49,
      "start": 1.1585,
      "duration": 0.0644,
      "velocity": 101,
      "chip": "ym2612"
    },
    {
      "channel": 4,
      "note": 49,
      "start": 1.1598,
      "duration": 0.0634,
      "velocity": 101,
      "chip": "ym2612"
    },
    {
      "channel": 2,
      "note": 61,
      "start": 1.2734,
      "duration": 0.0659,
      "velocity": 101,
      "chip": "ym2612"
    },
    {
      "channel": 0,
      "note": 61,
      "start": 1.2897,
      "duration": 0.0824,
      "velocity": 101,
      "chip": "ym2612"
    },
    {
      "channel": 3,
      "note": 49,
      "start": 1.2913,
      "duration": 0.0815,
      "velocity": 101,
      "chip": "ym2612"
    },
    {
      "channel": 4,
      "note": 49,
      "start": 1.2924,
      "duration": 0.0809,
      "velocity": 101,
      "chip": "ym2612"
    },
    {
      "channel": 2,
      "note": 61,
      "start": 1.4064,
      "duration": 0.0829,
      "velocity": 101,
      "chip": "ym2612"
    },
    {
      "channel": 0,
      "note": 61,
      "start": 1.4393,
      "duration": 0.0661,
      "velocity": 101,
      "chip": "ym2612"
    },
    {
      "channel": 3,
      "note": 49,
      "start": 1.4406,
      "duration": 0.0656,
      "velocity": 101,
      "chip": "ym2612"
    },
    {
      "channel": 4,
      "note": 49,
      "start": 1.4413,
      "duration": 0.0654,
      "velocity": 101,
      "chip": "ym2612"
    },
    {
      "channel": 2,
      "note": 61,
      "start": 1.5567,
      "duration": 0.066,
      "velocity": 101,
      "chip": "ym2612"
    },
    {
      "channel": 0,
      "note": 61,
      "start": 1.5727,
      "duration": 0.0661,
      "velocity": 101,
      "chip": "ym2612"
    },
    {
      "channel": 3,
      "note": 49,
      "start": 1.574,
      "duration": 0.0656,
      "velocity": 101,
      "chip": "ym2612"
    },
    {
      "channel": 4,
      "note": 49,
      "start": 1.5747,
      "duration": 0.0653,
      "velocity": 101,
      "chip": "ym2612"
    },
    {
      "channel": 1,
      "note": 52,
      "start": 1.69,
      "duration": 0.2826,
      "velocity": 64,
      "chip": "ym2612"
    },
    {
      "channel": 2,
      "note": 64,
      "start": 1.691,
      "duration": 0.2825,
      "velocity": 101,
      "chip": "ym2612"
    },
    {
      "channel": 0,
      "note": 64,
      "start": 1.7064,
      "duration": 0.2828,
      "velocity": 101,
      "chip": "ym2612"
    },
    {
      "channel": 3,
      "note": 52,
      "start": 1.708,
      "duration": 0.2827,
      "velocity": 101,
      "chip": "ym2612"
    },
    {
      "channel": 4,
      "note": 52,
      "start": 1.709,
      "duration": 0.2828,
      "velocity": 101,
      "chip": "ym2612"
    },
    {
      "channel": 1,
      "note": 49,
      "start": 1.973,
      "duration": 0.133,
      "velocity": 64,
      "chip": "ym2612"
    },
    {
      "channel": 2,
      "note": 61,
      "start": 1.9741,
      "duration": 0.133,
      "velocity": 101,
      "chip": "ym2612"
    },
    {
      "channel": 0,
      "note": 61,
      "start": 1.9897,
      "duration": 0.1494,
      "velocity": 101,
      "chip": "ym2612"
    },
    {
      "channel": 3,
      "note": 49,
      "start": 1.9913,
      "duration": 0.1495,
      "velocity": 101,
      "chip": "ym2612"
    },
    {
      "channel": 4,
      "note": 49,
      "start": 1.9924,
      "duration": 0.1495,
      "velocity": 101,
      "chip": "ym2612"
    },
    {
      "channel": 1,
      "note": 59,
      "start": 2.1066,
      "duration": 0.1325,
      "velocity": 64,
      "chip": "ym2612"
    },
    {
      "channel": 2,
      "note": 71,
      "start": 2.1077,
      "duration": 0.2825,
      "velocity": 101,
      "chip": "ym2612"
    },
    {
      "channel": 0,
      "note": 71,
      "start": 2.1397,
      "duration": 0.2661,
      "velocity": 101,
      "chip": "ym2612"
    },
    {
      "channel": 3,
      "note": 59,
      "start": 2.1414,
      "duration": 0.2661,
      "velocity": 101,
      "chip": "ym2612"
    },
    {
      "channel": 4,
      "note": 59,
      "start": 2.1424,
      "duration": 0.2661,
      "velocity": 101,
      "chip": "ym2612"
    },
    {
      "channel": 1,
      "note": 61,
      "start": 2.3897,
      "duration": 0.1333,
      "velocity": 64,
      "chip": "ym2612"
    },
    {
      "channel": 2,
      "note": 73,
      "start": 2.3908,
      "duration": 0.1333,
      "velocity": 101,
      "chip": "ym2612"
    },
    {
      "channel": 0,
      "note": 73,
      "start": 2.4064,
      "duration": 0.1494,
      "velocity": 101,
      "chip": "ym2612"
    },
    {
      "channel": 3,
      "note": 61,
      "start": 2.408,
      "duration": 0.1495,
      "velocity": 101,
      "chip": "ym2612"
    },
    {
      "channel": 4,
      "note": 61,
      "start": 2.4091,
      "duration": 0.1494,
      "velocity": 101,
      "chip": "ym2612"
    },
    {
      "channel": 1,
      "note": 49,
      "start": 2.5235,
      "duration": 0.5657,
      "velocity": 64,
      "chip": "ym2612"
    },
    {
      "channel": 2,
      "note": 61,
      "start": 2.5246,
      "duration": 0.0651,
      "velocity": 101,
      "chip": "ym2612"
    },
    {
      "channel": 0,
      "note": 61,
      "start": 2.5564,
      "duration": 0.0661,
      "velocity": 101,
      "chip": "ym2612"
    },
    {
      "channel": 3,
      "note": 49,
      "start": 2.558,
      "duration": 0.0656,
      "velocity": 101,
      "chip": "ym2612"
    },
    {
      "channel": 4,
      "note": 49,
      "start": 2.5591,
      "duration": 0.0653,
      "velocity": 101,
      "chip": "ym2612"
    },
    {
      "channel": 2,
      "note": 61,
      "start": 2.673,
      "duration": 0.0663,
      "velocity": 101,
      "chip": "ym2612"
    },
    {
      "channel": 0,
      "note": 61,
      "start": 2.6893,
      "duration": 0.0661,
      "velocity": 101,
      "chip": "ym2612"
    },
    {
      "channel": 3,
      "note": 49,
      "start": 2.6906,
      "duration": 0.0656,
      "velocity": 101,
      "chip": "ym2612"
    },
    {
      "channel": 4,
      "note": 49,
      "start": 2.6913,
      "duration": 0.0653,
      "velocity": 101,
      "chip": "ym2612"
    },
    {
      "channel": 2,
      "note": 61,
      "start": 2.8066,
      "duration": 0.0662,
      "velocity": 101,
      "chip": "ym2612"
    },
    {
      "channel": 0,
      "note": 61,
      "start": 2.8227,
      "duration": 0.0661,
      "velocity": 101,
      "chip": "ym2612"
    },
    {
      "channel": 3,
      "note": 49,
      "start": 2.8239,
      "duration": 0.0657,
      "velocity": 101,
      "chip": "ym2612"
    },
    {
      "channel": 4,
      "note": 49,
      "start": 2.8246,
      "duration": 0.0654,
      "velocity": 101,
      "chip": "ym2612"
    },
    {
      "channel": 2,
      "note": 61,
      "start": 2.9399,
      "duration": 0.0661,
      "velocity": 101,
      "chip": "ym2612"
    },
    {
      "channel": 0,
      "note": 61,
      "start": 2.9727,
      "duration": 0.0661,
      "velocity": 101,
      "chip": "ym2612"
    },
    {
      "channel": 3,
      "note": 49,
      "start": 2.974,
      "duration": 0.0656,
      "velocity": 101,
      "chip": "ym2612"
    },
    {
      "channel": 4,
      "note": 49,
      "start": 2.9747,
      "duration": 0.0653,
      "velocity": 101,
      "chip": "ym2612"
    },
    {
      "channel": 1,
      "note": 52,
      "start": 3.0898,
      "duration": 0.5495,
      "velocity": 64,
      "chip": "ym2612"
    },
    {
      "channel": 2,
      "note": 64,
      "start": 3.0908,
      "duration": 0.5492,
      "velocity": 101,
      "chip": "ym2612"
    },
    {
      "channel": 0,
      "note": 64,
      "start": 3.1064,
      "duration": 0.549,
      "velocity": 101,
      "chip": "ym2612"
    },
    {
      "channel": 3,
      "note": 52,
      "start": 3.108,
      "duration": 0.5487,
      "velocity": 101,
      "chip": "ym2612"
    },
    {
      "channel": 4,
      "note": 52,
      "start": 3.109,
      "duration": 0.5483,
      "velocity": 101,
      "chip": "ym2612"
    },
    {
      "channel": 1,
      "note": 49,
      "start": 3.6398,
      "duration": 0.283,
      "velocity": 64,
      "chip": "ym2612"
    },
    {
      "channel": 2,
      "note": 61,
      "start": 3.6405,
      "duration": 0.0654,
      "velocity": 101,
      "chip": "ym2612"
    },
    {
      "channel": 0,
      "note": 61,
      "start": 3.656,
      "duration": 0.0827,
      "velocity": 101,
      "chip": "ym2612"
    },
    {
      "channel": 3,
      "note": 49,
      "start": 3.6572,
      "duration": 0.0823,
      "velocity": 101,
      "chip": "ym2612"
    },
    {
      "channel": 4,
      "note": 49,
      "start": 3.6579,
      "duration": 0.082,
      "velocity": 101,
      "chip": "ym2612"
    },
    {
      "channel": 2,
      "note": 61,
      "start": 3.7732,
      "duration": 0.066,
      "velocity": 101,
      "chip": "ym2612"
    },
    {
      "channel": 0,
      "note": 61,
      "start": 3.806,
      "duration": 0.0661,
      "velocity": 101,
      "chip": "ym2612"
    },
    {
      "channel": 3,
      "note": 49,
      "start": 3.8073,
      "duration": 0.0656,
      "velocity": 101,
      "chip": "ym2612"
    },
    {
      "channel": 4,
      "note": 49,
      "start": 3.808,
      "duration": 0.0653,
      "velocity": 101,
      "chip": "ym2612"
    },
    {
      "channel": 1,
      "note": 54,
      "start": 3.9233,
      "duration": 0.2658,
      "velocity": 64,
      "chip": "ym2612"
    },
    {
      "channel": 2,
      "note": 66,
      "start": 3.9244,
      "duration": 0.4155,
      "velocity": 101,
      "chip": "ym2612"
    },
    {
      "channel": 0,
      "note": 66,
      "start": 3.9397,
      "duration": 0.4157,
      "velocity": 101,
      "chip": "ym2612"
    },
    {
      "channel": 3,
      "note": 54,
      "start": 3.9413,
      "duration": 0.4154,
      "velocity": 101,
      "chip": "ym2612"
    },
    {
      "channel": 4,
      "note": 54,
      "start": 3.9424,
      "duration": 0.415,
      "velocity": 101,
      "chip": "ym2612"
    },
    {
      "channel": 1,
      "note": 49,
      "start": 4.1897,
      "duration": 0.1495,
      "velocity": 64,
      "chip": "ym2612"
    },
    {
      "channel": 1,
      "note": 56,
      "start": 4.3397,
      "duration": 0.1332,
      "velocity": 64,
      "chip": "ym2612"
    },
    {
      "channel": 2,
      "note": 68,
      "start": 4.3404,
      "duration": 0.2665,
      "velocity": 101,
      "chip": "ym2612"
    },
    {
      "channel": 0,
      "note": 68,
      "start": 4.356,
      "duration": 0.2831,
      "velocity": 101,
      "chip": "ym2612"
    },
    {
      "channel": 3,
      "note": 56,
      "start": 4.3572,
      "duration": 0.2835,
      "velocity": 101,
      "chip": "ym2612"
    },
    {
      "channel": 4,
      "note": 56,
      "start": 4.3579,
      "duration": 0.284,
      "velocity": 101,
      "chip": "ym2612"
    },
    {
      "channel": 1,
      "note": 49,
      "start": 4.6063,
      "duration": 0.15,
      "velocity": 64,
      "chip": "ym2612"
    },
    {
      "channel": 2,
      "note": 61,
      "start": 4.6074,
      "duration": 0.15,
      "velocity": 101,
      "chip": "ym2612"
    },
    {
      "channel": 0,
      "note": 61,
      "start": 4.6397,
      "duration": 0.1328,
      "velocity": 101,
      "chip": "ym2612"
    },
    {
      "channel": 3,
      "note": 49,
      "start": 4.6413,
      "duration": 0.1327,
      "velocity": 101,
      "chip": "ym2612"
    },
    {
      "channel": 4,
      "note": 49,
      "start": 4.6424,
      "duration": 0.1328,
      "velocity": 101,
      "chip": "ym2612"
    },
    {
      "channel": 1,
      "note": 52,
      "start": 4.7568,
      "duration": 0.2659,
      "velocity": 64,
      "chip": "ym2612"
    },
    {
      "channel": 2,
      "note": 64,
      "start": 4.7579,
      "duration": 0.2654,
      "velocity": 101,
      "chip": "ym2612"
    },
    {
      "channel": 0,
      "note": 64,
      "start": 4.773,
      "duration": 0.2824,
      "velocity": 101,
      "chip": "ym2612"
    },
    {
      "channel": 3,
      "note": 52,
      "start": 4.7746,
      "duration": 0.282,
      "velocity": 101,
      "chip": "ym2612"
    },
    {
      "channel": 4,
      "note": 52,
      "start": 4.7757,
      "duration": 0.2817,
      "velocity": 101,
      "chip": "ym2612"
    },
    {
      "channel": 1,
      "note": 54,
      "start": 5.0232,
      "duration": 0.2828,
      "velocity": 64,
      "chip": "ym2612"
    },
    {
      "channel": 2,
      "note": 66,
      "start": 5.0239,
      "duration": 0.2828,
      "velocity": 101,
      "chip": "ym2612"
    },
    {
      "channel": 0,
      "note": 66,
      "start": 5.056,
      "duration": 0.2827,
      "velocity": 101,
      "chip": "ym2612"
    },
    {
      "channel": 3,
      "note": 54,
      "start": 5.0572,
      "duration": 0.2828,
      "velocity": 101,
      "chip": "ym2612"
    },
    {
      "channel": 4,
      "note": 54,
      "start": 5.0579,
      "duration": 0.2828,
      "velocity": 101,
      "chip": "ym2612"
    },
    {
      "channel": 1,
      "note": 47,
      "start": 5.3066,
      "duration": 0.2835,
      "velocity": 64,
      "chip": "ym2612"
    },
    {
      "channel": 2,
      "note": 59,
      "start": 5.3073,
      "duration": 0.2843,
      "velocity": 101,
      "chip": "ym2612"
    },
    {
      "channel": 0,
      "note": 59,
      "start": 5.3393,
      "duration": 0.2668,
      "velocity": 101,
      "chip": "ym2612"
    },
    {
      "channel": 3,
      "note": 47,
      "start": 5.3406,
      "duration": 0.2676,
      "velocity": 101,
      "chip": "ym2612"
    },
    {
      "channel": 4,
      "note": 47,
      "start": 5.3413,
      "duration": 0.2683,
      "velocity": 101,
      "chip": "ym2612"
    },
    {
      "channel": 1,
      "note": 47,
      "start": 5.5907,
      "duration": 0.5488,
      "velocity": 64,
      "chip": "ym2612"
    },
    {
      "channel": 2,
      "note": 61,
      "start": 5.5921,
      "duration": 0.0643,
      "velocity": 101,
      "chip": "ym2612"
    },
    {
      "channel": 0,
      "note": 61,
      "start": 5.6067,
      "duration": 0.0654,
      "velocity": 101,
      "chip": "ym2612"
    },
    {
      "channel": 3,
      "note": 49,
      "start": 5.6087,
      "duration": 0.0641,
      "velocity": 101,
      "chip": "ym2612"
    },
    {
      "channel": 4,
      "note": 49,
      "start": 5.6102,
      "duration": 0.063,
      "velocity": 101,
      "chip": "ym2612"
    },
    {
      "channel": 2,
      "note": 61,
      "start": 5.7235,
      "duration": 0.0658,
      "velocity": 101,
      "chip": "ym2612"
    },
    {
      "channel": 0,
      "note": 61,
      "start": 5.7564,
      "duration": 0.0657,
      "velocity": 101,
      "chip": "ym2612"
    },
    {
      "channel": 3,
      "note": 49,
      "start": 5.758,
      "duration": 0.0649,
      "velocity": 101,
      "chip": "ym2612"
    },
    {
      "channel": 4,
      "note": 49,
      "start": 5.759,
      "duration": 0.0642,
      "velocity": 101,
      "chip": "ym2612"
    },
    {
      "channel": 2,
      "note": 61,
      "start": 5.8731,
      "duration": 0.0663,
      "velocity": 101,
      "chip": "ym2612"
    },
    {
      "channel": 0,
      "note": 61,
      "start": 5.8893,
      "duration": 0.0661,
      "velocity": 101,
      "chip": "ym2612"
    },
    {
      "channel": 3,
      "note": 49,
      "start": 5.8906,
      "duration": 0.0656,
      "velocity": 101,
      "chip": "ym2612"
    },
    {
      "channel": 4,
      "note": 49,
      "start": 5.8913,
      "duration": 0.0654,
      "velocity": 101,
      "chip": "ym2612"
    },
    {
      "channel": 2,
      "note": 61,
      "start": 6.0067,
      "duration": 0.066,
      "velocity": 101,
      "chip": "ym2612"
    },
    {
      "channel": 0,
      "note": 61,
      "start": 6.0227,
      "duration": 0.0661,
      "velocity": 101,
      "chip": "ym2612"
    },
    {
      "channel": 3,
      "note": 49,
      "start": 6.024,
      "duration": 0.0656,
      "velocity": 101,
      "chip": "ym2612"
    },
    {
      "channel": 4,
      "note": 49,
      "start": 6.0248,
      "duration": 0.0653,
      "velocity": 101,
      "chip": "ym2612"
    },
    {
      "channel": 1,
      "note": 52,
      "start": 6.14,
      "duration": 0.2825,
      "velocity": 64,
      "chip": "ym2612"
    },
    {
      "channel": 2,
      "note": 64,
      "start": 6.141,
      "duration": 0.2825,
      "velocity": 101,
      "chip": "ym2612"
    },
    {
      "channel": 0,
      "note": 64,
      "start": 6.173,
      "duration": 0.2661,
      "velocity": 101,
      "chip": "ym2612"
    },
    {
      "channel": 3,
      "note": 52,
      "start": 6.1746,
      "duration": 0.2661,
      "velocity": 101,
      "chip": "ym2612"
    },
    {
      "channel": 4,
      "note": 52,
      "start": 6.1757,
      "duration": 0.2662,
      "velocity": 101,
      "chip": "ym2612"
    },
    {
      "channel": 1,
      "note": 49,
      "start": 6.423,
      "duration": 0.1331,
      "velocity": 64,
      "chip": "ym2612"
    },
    {
      "channel": 2,
      "note": 61,
      "start": 6.4241,
      "duration": 0.1331,
      "velocity": 101,
      "chip": "ym2612"
    },
    {
      "channel": 0,
      "note": 61,
      "start": 6.4397,
      "duration": 0.1494,
      "velocity": 101,
      "chip": "ym2612"
    },
    {
      "channel": 3,
      "note": 49,
      "start": 6.4413,
      "duration": 0.1495,
      "velocity": 101,
      "chip": "ym2612"
    },
    {
      "channel": 4,
      "note": 49,
      "start": 6.4424,
      "duration": 0.1495,
      "velocity": 101,
      "chip": "ym2612"
    },
    {
      "channel": 1,
      "note": 59,
      "start": 6.5566,
      "duration": 0.1492,
      "velocity": 64,
      "chip": "ym2612"
    },
    {
      "channel": 2,
      "note": 71,
      "start": 6.5577,
      "duration": 0.2825,
      "velocity": 101,
      "chip": "ym2612"
    },
    {
      "channel": 0,
      "note": 71,
      "start": 6.5897,
      "duration": 0.2661,
      "velocity": 101,
      "chip": "ym2612"
    },
    {
      "channel": 3,
      "note": 59,
      "start": 6.5913,
      "duration": 0.2661,
      "velocity": 101,
      "chip": "ym2612"
    },
    {
      "channel": 4,
      "note": 59,
      "start": 6.5924,
      "duration": 0.2661,
      "velocity": 101,
      "chip": "ym2612"
    },
    {
      "channel": 1,
      "note": 61,
      "start": 6.8397,
      "duration": 0.1333,
      "velocity": 64,
      "chip": "ym2612"
    },
    {
      "channel": 2,
      "note": 73,
      "start": 6.8408,
      "duration": 0.1333,
      "velocity": 101,
      "chip": "ym2612"
    },
    {
      "channel": 0,
      "note": 73,
      "start": 6.8564,
      "duration": 0.1494,
      "velocity": 101,
      "chip": "ym2612"
    },
    {
      "channel": 3,
      "note": 61,
      "start": 6.858,
      "duration": 0.1495,
      "velocity": 101,
      "chip": "ym2612"
    },
    {
      "channel": 4,
      "note": 61,
      "start": 6.8591,
      "duration": 0.1494,
      "velocity": 101,
      "chip": "ym2612"
    },
    {
      "channel": 1,
      "note": 49,
      "start": 6.9735,
      "duration": 0.5657,
      "velocity": 64,
      "chip": "ym2612"
    },
    {
      "channel": 2,
      "note": 61,
      "start": 6.9746,
      "duration": 0.0651,
      "velocity": 101,
      "chip": "ym2612"
    },
    {
      "channel": 0,
      "note": 61,
      "start": 7.0064,
      "duration": 0.0661,
      "velocity": 101,
      "chip": "ym2612"
    },
    {
      "channel": 3,
      "note": 49,
      "start": 7.008,
      "duration": 0.0655,
      "velocity": 101,
      "chip": "ym2612"
    },
    {
      "channel": 4,
      "note": 49,
      "start": 7.0091,
      "duration": 0.0653,
      "velocity": 101,
      "chip": "ym2612"
    },
    {
      "channel": 2,
      "note": 61,
      "start": 7.123,
      "duration": 0.0663,
      "velocity": 101,
      "chip": "ym2612"
    },
    {
      "channel": 0,
      "note": 61,
      "start": 7.1393,
      "duration": 0.0661,
      "velocity": 101,
      "chip": "ym2612"
    },
    {
      "channel": 3,
      "note": 49,
      "start": 7.1406,
      "duration": 0.0656,
      "velocity": 101,
      "chip": "ym2612"
    },
    {
      "channel": 4,
      "note": 49,
      "start": 7.1413,
      "duration": 0.0653,
      "velocity": 101,
      "chip": "ym2612"
    },
    {
      "channel": 2,
      "note": 61,
      "start": 7.2566,
      "duration": 0.0662,
      "velocity": 101,
      "chip": "ym2612"
    },
    {
      "channel": 0,
      "note": 61,
      "start": 7.2727,
      "duration": 0.0827,
      "velocity": 101,
      "chip": "ym2612"
    },
    {
      "channel": 3,
      "note": 49,
      "start": 7.2739,
      "duration": 0.0824,
      "velocity": 101,
      "chip": "ym2612"
    },
    {
      "channel": 4,
      "note": 49,
      "start": 7.2746,
      "duration": 0.082,
      "velocity": 101,
      "chip": "ym2612"
    },
    {
      "channel": 2,
      "note": 61,
      "start": 7.3899,
      "duration": 0.0828,
      "velocity": 101,
      "chip": "ym2612"
    },
    {
      "channel": 0,
      "note": 61,
      "start": 7.4227,
      "duration": 0.0661,
      "velocity": 101,
      "chip": "ym2612"
    },
    {
      "channel": 3,
      "note": 49,
      "start": 7.424,
      "duration": 0.0656,
      "velocity": 101,
      "chip": "ym2612"
    },
    {
      "channel": 4,
      "note": 49,
      "start": 7.4248,
      "duration": 0.0653,
      "velocity": 101,
      "chip": "ym2612"
    },
    {
      "channel": 1,
      "note": 52,
      "start": 7.5398,
      "duration": 0.5495,
      "velocity": 64,
      "chip": "ym2612"
    },
    {
      "channel": 2,
      "note": 64,
      "start": 7.5409,
      "duration": 0.5491,
      "velocity": 101,
      "chip": "ym2612"
    },
    {
      "channel": 0,
      "note": 64,
      "start": 7.5564,
      "duration": 0.549,
      "velocity": 101,
      "chip": "ym2612"
    },
    {
      "channel": 3,
      "note": 52,
      "start": 7.558,
      "duration": 0.5487,
      "velocity": 101,
      "chip": "ym2612"
    },
    {
      "channel": 4,
      "note": 52,
      "start": 7.559,
      "duration": 0.5483,
      "velocity": 101,
      "chip": "ym2612"
    },
    {
      "channel": 1,
      "note": 49,
      "start": 8.0898,
      "duration": 0.283,
      "velocity": 64,
      "chip": "ym2612"
    },
    {
      "channel": 2,
      "note": 61,
      "start": 8.0905,
      "duration": 0.0654,
      "velocity": 101,
      "chip": "ym2612"
    },
    {
      "channel": 0,
      "note": 61,
      "start": 8.106,
      "duration": 0.0827,
      "velocity": 101,
      "chip": "ym2612"
    },
    {
      "channel": 3,
      "note": 49,
      "start": 8.1072,
      "duration": 0.0823,
      "velocity": 101,
      "chip": "ym2612"
    },
    {
      "channel": 4,
      "note": 49,
      "start": 8.1079,
      "duration": 0.082,
      "velocity": 101,
      "chip": "ym2612"
    },
    {
      "channel": 2,
      "note": 61,
      "start": 8.2232,
      "duration": 0.0827,
      "velocity": 101,
      "chip": "ym2612"
    },
    {
      "channel": 0,
      "note": 61,
      "start": 8.256,
      "duration": 0.0661,
      "velocity": 101,
      "chip": "ym2612"
    },
    {
      "channel": 3,
      "note": 49,
      "start": 8.2573,
      "duration": 0.0656,
      "velocity": 101,
      "chip": "ym2612"
    },
    {
      "channel": 4,
      "note": 49,
      "start": 8.258,
      "duration": 0.0653,
      "velocity": 101,
      "chip": "ym2612"
    },
    {
      "channel": 1,
      "note": 54,
      "start": 8.3733,
      "duration": 0.2655,
      "velocity": 64,
      "chip": "ym2612"
    },
    {
      "channel": 2,
      "note": 66,
      "start": 8.3741,
      "duration": 0.132,
      "velocity": 101,
      "chip": "ym2612"
    },
    {
      "channel": 0,
      "note": 66,
      "start": 8.3893,
      "duration": 0.1494,
      "velocity": 101,
      "chip": "ym2612"
    },
    {
      "channel": 3,
      "note": 54,
      "start": 8.3905,
      "duration": 0.149,
      "velocity": 101,
      "chip": "ym2612"
    },
    {
      "channel": 4,
      "note": 54,
      "start": 8.3912,
      "duration": 0.1487,
      "velocity": 101,
      "chip": "ym2612"
    },
    {
      "channel": 1,
      "note": 49,
      "start": 8.6394,
      "duration": 0.1496,
      "velocity": 64,
      "chip": "ym2612"
    },
    {
      "channel": 2,
      "note": 88,
      "start": 8.6405,
      "duration": 0.2832,
      "velocity": 101,
      "chip": "ym2612"
    },
    {
      "channel": 0,
      "note": 88,
      "start": 8.673,
      "duration": 0.2828,
      "velocity": 101,
      "chip": "ym2612"
    },
    {
      "channel": 3,
      "note": 76,
      "start": 8.6747,
      "duration": 0.2826,
      "velocity": 101,
      "chip": "ym2612"
    },
    {
      "channel": 4,
      "note": 76,
      "start": 8.6759,
      "duration": 0.2825,
      "velocity": 101,
      "chip": "ym2612"
    },
    {
      "channel": 1,
      "note": 56,
      "start": 8.7896,
      "duration": 0.1333,
      "velocity": 64,
      "chip": "ym2612"
    },
    {
      "channel": 2,
      "note": 95,
      "start": 8.9243,
      "duration": 1.1173,
      "velocity": 101,
      "chip": "ym2612"
    },
    {
      "channel": 0,
      "note": 95,
      "start": 8.9564,
      "duration": 1.0998,
      "velocity": 101,
      "chip": "ym2612"
    },
    {
      "channel": 3,
      "note": 83,
      "start": 8.9578,
      "duration": 1.1003,
      "velocity": 101,
      "chip": "ym2612"
    },
    {
      "channel": 4,
      "note": 83,
      "start": 8.959,
      "duration": 1.1006,
      "velocity": 101,
      "chip": "ym2612"
    },
    {
      "channel": 1,
      "note": 49,
      "start": 9.0732,
      "duration": 0.1332,
      "velocity": 64,
      "chip": "ym2612"
    },
    {
      "channel": 1,
      "note": 52,
      "start": 9.207,
      "duration": 0.2824,
      "velocity": 64,
      "chip": "ym2612"
    },
    {
      "channel": 1,
      "note": 54,
      "start": 9.49,
      "duration": 0.2661,
      "velocity": 64,
      "chip": "ym2612"
    },
    {
      "channel": 1,
      "note": 59,
      "start": 9.7566,
      "duration": 0.2834,
      "velocity": 64,
      "chip": "ym2612"
    },
    {
      "channel": 1,
      "note": 45,
      "start": 10.0407,
      "duration": 0.5484,
      "velocity": 64,
      "chip": "ym2612"
    },
    {
      "channel": 2,
      "note": 59,
      "start": 10.0421,
      "duration": 0.0642,
      "velocity": 101,
      "chip": "ym2612"
    },
    {
      "channel": 0,
      "note": 59,
      "start": 10.0567,
      "duration": 0.0821,
      "velocity": 101,
      "chip": "ym2612"
    },
    {
      "channel": 3,
      "note": 47,
      "start": 10.0587,
      "duration": 0.0808,
      "velocity": 101,
      "chip": "ym2612"
    },
    {
      "channel": 4,
      "note": 47,
      "start": 10.0602,
      "duration": 0.0797,
      "velocity": 101,
      "chip": "ym2612"
    },
    {
      "channel": 2,
      "note": 59,
      "start": 10.1734,
      "duration": 0.0659,
      "velocity": 101,
      "chip": "ym2612"
    },
    {
      "channel": 0,
      "note": 59,
      "start": 10.2064,
      "duration": 0.0657,
      "velocity": 101,
      "chip": "ym2612"
    },
    {
      "channel": 3,
      "note": 47,
      "start": 10.208,
      "duration": 0.0649,
      "velocity": 101,
      "chip": "ym2612"
    },
    {
      "channel": 4,
      "note": 47,
      "start": 10.209,
      "duration": 0.0642,
      "velocity": 101,
      "chip": "ym2612"
    },
    {
      "channel": 2,
      "note": 59,
      "start": 10.3231,
      "duration": 0.0663,
      "velocity": 101,
      "chip": "ym2612"
    },
    {
      "channel": 0,
      "note": 59,
      "start": 10.3393,
      "duration": 0.0661,
      "velocity": 101,
      "chip": "ym2612"
    },
    {
      "channel": 3,
      "note": 47,
      "start": 10.3406,
      "duration": 0.0656,
      "velocity": 101,
      "chip": "ym2612"
    },
    {
      "channel": 4,
      "note": 47,
      "start": 10.3413,
      "duration": 0.0654,
      "velocity": 101,
      "chip": "ym2612"
    },
    {
      "channel": 2,
      "note": 59,
      "start": 10.4567,
      "duration": 0.066,
      "velocity": 101,
      "chip": "ym2612"
    },
    {
      "channel": 0,
      "note": 59,
      "start": 10.4727,
      "duration": 0.0827,
      "velocity": 101,
      "chip": "ym2612"
    },
    {
      "channel": 3,
      "note": 47,
      "start": 10.474,
      "duration": 0.0823,
      "velocity": 101,
      "chip": "ym2612"
    },
    {
      "channel": 4,
      "note": 47,
      "start": 10.4747,
      "duration": 0.082,
      "velocity": 101,
      "chip": "ym2612"
    },
    {
      "channel": 1,
      "note": 50,
      "start": 10.5897,
      "duration": 0.2832,
      "velocity": 64,
      "chip": "ym2612"
    },
    {
      "channel": 2,
      "note": 62,
      "start": 10.5907,
      "duration": 0.2832,
      "velocity": 101,
      "chip": "ym2612"
    },
    {
      "channel": 0,
      "note": 62,
      "start": 10.623,
      "duration": 0.2661,
      "velocity": 101,
      "chip": "ym2612"
    },
    {
      "channel": 3,
      "note": 50,
      "start": 10.6246,
      "duration": 0.2661,
      "velocity": 101,
      "chip": "ym2612"
    },
    {
      "channel": 4,
      "note": 50,
      "start": 10.6257,
      "duration": 0.2662,
      "velocity": 101,
      "chip": "ym2612"
    },
    {
      "channel": 1,
      "note": 47,
      "start": 10.8734,
      "duration": 0.1327,
      "velocity": 64,
      "chip": "ym2612"
    },
    {
      "channel": 2,
      "note": 59,
      "start": 10.8744,
      "duration": 0.1327,
      "velocity": 101,
      "chip": "ym2612"
    },
    {
      "channel": 0,
      "note": 59,
      "start": 10.8897,
      "duration": 0.1494,
      "velocity": 101,
      "chip": "ym2612"
    },
    {
      "channel": 3,
      "note": 47,
      "start": 10.8913,
      "duration": 0.1495,
      "velocity": 101,
      "chip": "ym2612"
    },
    {
      "channel": 4,
      "note": 47,
      "start": 10.8924,
      "duration": 0.1495,
      "velocity": 101,
      "chip": "ym2612"
    },
    {
      "channel": 1,
      "note": 57,
      "start": 11.0066,
      "duration": 0.1492,
      "velocity": 64,
      "chip": "ym2612"
    },
    {
      "channel": 2,
      "note": 69,
      "start": 11.0077,
      "duration": 0.2825,
      "velocity": 101,
      "chip": "ym2612"
    },
    {
      "channel": 0,
      "note": 69,
      "start": 11.0397,
      "duration": 0.2661,
      "velocity": 101,
      "chip": "ym2612"
    },
    {
      "channel": 3,
      "note": 57,
      "start": 11.0413,
      "duration": 0.2661,
      "velocity": 101,
      "chip": "ym2612"
    },
    {
      "channel": 4,
      "note": 57,
      "start": 11.0424,
      "duration": 0.2661,
      "velocity": 101,
      "chip": "ym2612"
    },
    {
      "channel": 1,
      "note": 59,
      "start": 11.2897,
      "duration": 0.1333,
      "velocity": 64,
      "chip": "ym2612"
    },
    {
      "channel": 2,
      "note": 71,
      "start": 11.2908,
      "duration": 0.1329,
      "velocity": 101,
      "chip": "ym2612"
    },
    {
      "channel": 0,
      "note": 71,
      "start": 11.3064,
      "duration": 0.149,
      "velocity": 101,
      "chip": "ym2612"
    },
    {
      "channel": 3,
      "note": 59,
      "start": 11.308,
      "duration": 0.1487,
      "velocity": 101,
      "chip": "ym2612"
    },
    {
      "channel": 4,
      "note": 59,
      "start": 11.3091,
      "duration": 0.1483,
      "velocity": 101,
      "chip": "ym2612"
    },
    {
      "channel": 1,
      "note": 47,
      "start": 11.4235,
      "duration": 0.5657,
      "velocity": 64,
      "chip": "ym2612"
    },
    {
      "channel": 2,
      "note": 59,
      "start": 11.4243,
      "duration": 0.0817,
      "velocity": 101,
      "chip": "ym2612"
    },
    {
      "channel": 0,
      "note": 59,
      "start": 11.456,
      "duration": 0.0661,
      "velocity": 101,
      "chip": "ym2612"
    },
    {
      "channel": 3,
      "note": 47,
      "start": 11.4572,
      "duration": 0.0656,
      "velocity": 101,
      "chip": "ym2612"
    },
    {
      "channel": 4,
      "note": 47,
      "start": 11.458,
      "duration": 0.0653,
      "velocity": 101,
      "chip": "ym2612"
    },
    {
      "channel": 2,
      "note": 59,
      "start": 11.573,
      "duration": 0.0663,
      "velocity": 101,
      "chip": "ym2612"
    },
    {
      "channel": 0,
      "note": 59,
      "start": 11.5893,
      "duration": 0.0661,
      "velocity": 101,
      "chip": "ym2612"
    },
    {
      "channel": 3,
      "note": 47,
      "start": 11.5906,
      "duration": 0.0656,
      "velocity": 101,
      "chip": "ym2612"
    },
    {
      "channel": 4,
      "note": 47,
      "start": 11.5913,
      "duration": 0.0653,
      "velocity": 101,
      "chip": "ym2612"
    },
    {
      "channel": 2,
      "note": 59,
      "start": 11.7066,
      "duration": 0.0661,
      "velocity": 101,
      "chip": "ym2612"
    },
    {
      "channel": 0,
      "note": 59,
      "start": 11.7393,
      "duration": 0.0661,
      "velocity": 101,
      "chip": "ym2612"
    },
    {
      "channel": 3,
      "note": 47,
      "start": 11.7406,
      "duration": 0.0657,
      "velocity": 101,
      "chip": "ym2612"
    },
    {
      "channel": 4,
      "note": 47,
      "start": 11.7413,
      "duration": 0.0654,
      "velocity": 101,
      "chip": "ym2612"
    },
    {
      "channel": 2,
      "note": 59,
      "start": 11.8399,
      "duration": 0.0828,
      "velocity": 101,
      "chip": "ym2612"
    },
    {
      "channel": 0,
      "note": 59,
      "start": 11.8727,
      "duration": 0.0661,
      "velocity": 101,
      "chip": "ym2612"
    },
    {
      "channel": 3,
      "note": 47,
      "start": 11.874,
      "duration": 0.0656,
      "velocity": 101,
      "chip": "ym2612"
    },
    {
      "channel": 4,
      "note": 47,
      "start": 11.8747,
      "duration": 0.0653,
      "velocity": 101,
      "chip": "ym2612"
    },
    {
      "channel": 1,
      "note": 50,
      "start": 11.9898,
      "duration": 0.5495,
      "velocity": 64,
      "chip": "ym2612"
    },
    {
      "channel": 2,
      "note": 62,
      "start": 11.9909,
      "duration": 0.5491,
      "velocity": 101,
      "chip": "ym2612"
    },
    {
      "channel": 0,
      "note": 62,
      "start": 12.0064,
      "duration": 0.5657,
      "velocity": 101,
      "chip": "ym2612"
    },
    {
      "channel": 3,
      "note": 50,
      "start": 12.008,
      "duration": 0.5654,
      "velocity": 101,
      "chip": "ym2612"
    },
    {
      "channel": 4,
      "note": 50,
      "start": 12.009,
      "duration": 0.565,
      "velocity": 101,
      "chip": "ym2612"
    },
    {
      "channel": 1,
      "note": 47,
      "start": 12.5398,
      "duration": 0.2829,
      "velocity": 64,
      "chip": "ym2612"
    },
    {
      "channel": 2,
      "note": 59,
      "start": 12.5405,
      "duration": 0.0654,
      "velocity": 101,
      "chip": "ym2612"
    },
    {
      "channel": 0,
      "note": 59,
      "start": 12.5727,
      "duration": 0.0661,
      "velocity": 101,
      "chip": "ym2612"
    },
    {
      "channel": 3,
      "note": 47,
      "start": 12.5739,
      "duration": 0.0656,
      "velocity": 101,
      "chip": "ym2612"
    },
    {
      "channel": 4,
      "note": 47,
      "start": 12.5746,
      "duration": 0.0653,
      "velocity": 101,
      "chip": "ym2612"
    },
    {
      "channel": 2,
      "note": 59,
      "start": 12.6899,
      "duration": 0.066,
      "velocity": 101,
      "chip": "ym2612"
    },
    {
      "channel": 0,
      "note": 59,
      "start": 12.706,
      "duration": 0.0661,
      "velocity": 101,
      "chip": "ym2612"
    },
    {
      "channel": 3,
      "note": 47,
      "start": 12.7073,
      "duration": 0.0656,
      "velocity": 101,
      "chip": "ym2612"
    },
    {
      "channel": 4,
      "note": 47,
      "start": 12.708,
      "duration": 0.0653,
      "velocity": 101,
      "chip": "ym2612"
    },
    {
      "channel": 1,
      "note": 52,
      "start": 12.8233,
      "duration": 0.2826,
      "velocity": 64,
      "chip": "ym2612"
    },
    {
      "channel": 2,
      "note": 64,
      "start": 12.8244,
      "duration": 0.4155,
      "velocity": 101,
      "chip": "ym2612"
    },
    {
      "channel": 0,
      "note": 64,
      "start": 12.8397,
      "duration": 0.4157,
      "velocity": 101,
      "chip": "ym2612"
    },
    {
      "channel": 3,
      "note": 52,
      "start": 12.8413,
      "duration": 0.4154,
      "velocity": 101,
      "chip": "ym2612"
    },
    {
      "channel": 4,
      "note": 52,
      "start": 12.8424,
      "duration": 0.415,
      "velocity": 101,
      "chip": "ym2612"
    },
    {
      "channel": 1,
      "note": 47,
      "start": 13.1064,
      "duration": 0.1328,
      "velocity": 64,
      "chip": "ym2612"
    },
    {
      "channel": 1,
      "note": 54,
      "start": 13.2397,
      "duration": 0.1332,
      "velocity": 64,
      "chip": "ym2612"
    },
    {
      "channel": 2,
      "note": 66,
      "start": 13.2404,
      "duration": 0.2832,
      "velocity": 101,
      "chip": "ym2612"
    },
    {
      "channel": 0,
      "note": 66,
      "start": 13.256,
      "duration": 0.2831,
      "velocity": 101,
      "chip": "ym2612"
    },
    {
      "channel": 3,
      "note": 54,
      "start": 13.2572,
      "duration": 0.2835,
      "velocity": 101,
      "chip": "ym2612"
    },
    {
      "channel": 4,
      "note": 54,
      "start": 13.2579,
      "duration": 0.284,
      "velocity": 101,
      "chip": "ym2612"
    },
    {
      "channel": 1,
      "note": 47,
      "start": 13.523,
      "duration": 0.1333,
      "velocity": 64,
      "chip": "ym2612"
    },
    {
      "channel": 2,
      "note": 59,
      "start": 13.5241,
      "duration": 0.1333,
      "velocity": 101,
      "chip": "ym2612"
    },
    {
      "channel": 0,
      "note": 59,
      "start": 13.5397,
      "duration": 0.1328,
      "velocity": 101,
      "chip": "ym2612"
    },
    {
      "channel": 3,
      "note": 47,
      "start": 13.5413,
      "duration": 0.1328,
      "velocity": 101,
      "chip": "ym2612"
    },
    {
      "channel": 4,
      "note": 47,
      "start": 13.5424,
      "duration": 0.1328,
      "velocity": 101,
      "chip": "ym2612"
    },
    {
      "channel": 1,
      "note": 50,
      "start": 13.6568,
      "duration": 0.2826,
      "velocity": 64,
      "chip": "ym2612"
    },
    {
      "channel": 2,
      "note": 62,
      "start": 13.6579,
      "duration": 0.2822,
      "velocity": 101,
      "chip": "ym2612"
    },
    {
      "channel": 0,
      "note": 62,
      "start": 13.673,
      "duration": 0.2824,
      "velocity": 101,
      "chip": "ym2612"
    },
    {
      "channel": 3,
      "note": 50,
      "start": 13.6747,
      "duration": 0.282,
      "velocity": 101,
      "chip": "ym2612"
    },
    {
      "channel": 4,
      "note": 50,
      "start": 13.6758,
      "duration": 0.2816,
      "velocity": 101,
      "chip": "ym2612"
    },
    {
      "channel": 1,
      "note": 52,
      "start": 13.94,
      "duration": 0.266,
      "velocity": 64,
      "chip": "ym2612"
    },
    {
      "channel": 2,
      "note": 64,
      "start": 13.9407,
      "duration": 0.2661,
      "velocity": 101,
      "chip": "ym2612"
    },
    {
      "channel": 0,
      "note": 64,
      "start": 13.956,
      "duration": 0.2827,
      "velocity": 101,
      "chip": "ym2612"
    },
    {
      "channel": 3,
      "note": 52,
      "start": 13.9572,
      "duration": 0.2828,
      "velocity": 101,
      "chip": "ym2612"
    },
    {
      "channel": 4,
      "note": 52,
      "start": 13.9579,
      "duration": 0.2828,
      "velocity": 101,
      "chip": "ym2612"
    },
    {
      "channel": 1,
      "note": 45,
      "start": 14.2066,
      "duration": 0.2835,
      "velocity": 64,
      "chip": "ym2612"
    },
    {
      "channel": 2,
      "note": 57,
      "start": 14.2073,
      "duration": 0.2843,
      "velocity": 101,
      "chip": "ym2612"
    },
    {
      "channel": 0,
      "note": 57,
      "start": 14.2393,
      "duration": 0.2668,
      "velocity": 101,
      "chip": "ym2612"
    },
    {
      "channel": 3,
      "note": 45,
      "start": 14.2405,
      "duration": 0.2677,
      "velocity": 101,
      "chip": "ym2612"
    },
    {
      "channel": 4,
      "note": 45,
      "start": 14.2413,
      "duration": 0.2684,
      "velocity": 101,
      "chip": "ym2612"
    },
    {
      "channel": 1,
      "note": 45,
      "start": 14.4907,
      "duration": 0.5484,
      "velocity": 64,
      "chip": "ym2612"
    },
    {
      "channel": 2,
      "note": 59,
      "start": 14.4921,
      "duration": 0.0643,
      "velocity": 101,
      "chip": "ym2612"
    },
    {
      "channel": 0,
      "note": 59,
      "start": 14.5068,
      "duration": 0.082,
      "velocity": 101,
      "chip": "ym2612"
    },
    {
      "channel": 3,
      "note": 47,
      "start": 14.5087,
      "duration": 0.0808,
      "velocity": 101,
      "chip": "ym2612"
    },
    {
      "channel": 4,
      "note": 47,
      "start": 14.5103,
      "duration": 0.0796,
      "velocity": 101,
      "chip": "ym2612"
    },
    {
      "channel": 2,
      "note": 59,
      "start": 14.6234,
      "duration": 0.0826,
      "velocity": 101,
      "chip": "ym2612"
    },
    {
      "channel": 0,
      "note": 59,
      "start": 14.6564,
      "duration": 0.0657,
      "velocity": 101,
      "chip": "ym2612"
    },
    {
      "channel": 3,
      "note": 47,
      "start": 14.658,
      "duration": 0.0649,
      "velocity": 101,
      "chip": "ym2612"
    },
    {
      "channel": 4,
      "note": 47,
      "start": 14.659,
      "duration": 0.0642,
      "velocity": 101,
      "chip": "ym2612"
    },
    {
      "channel": 2,
      "note": 59,
      "start": 14.7731,
      "duration": 0.0663,
      "velocity": 101,
      "chip": "ym2612"
    },
    {
      "channel": 0,
      "note": 59,
      "start": 14.7893,
      "duration": 0.0661,
      "velocity": 101,
      "chip": "ym2612"
    },
    {
      "channel": 3,
      "note": 47,
      "start": 14.7906,
      "duration": 0.0656,
      "velocity": 101,
      "chip": "ym2612"
    },
    {
      "channel": 4,
      "note": 47,
      "start": 14.7913,
      "duration": 0.0654,
      "velocity": 101,
      "chip": "ym2612"
    },
    {
      "channel": 2,
      "note": 59,
      "start": 14.9067,
      "duration": 0.066,
      "velocity": 101,
      "chip": "ym2612"
    },
    {
      "channel": 0,
      "note": 59,
      "start": 14.9393,
      "duration": 0.0661,
      "velocity": 101,
      "chip": "ym2612"
    },
    {
      "channel": 3,
      "note": 47,
      "start": 14.9407,
      "duration": 0.0656,
      "velocity": 101,
      "chip": "ym2612"
    },
    {
      "channel": 4,
      "note": 47,
      "start": 14.9414,
      "duration": 0.0653,
      "velocity": 101,
      "chip": "ym2612"
    },
    {
      "channel": 1,
      "note": 50,
      "start": 15.0397,
      "duration": 0.2832,
      "velocity": 64,
      "chip": "ym2612"
    },
    {
      "channel": 2,
      "note": 62,
      "start": 15.0407,
      "duration": 0.2832,
      "velocity": 101,
      "chip": "ym2612"
    },
    {
      "channel": 0,
      "note": 62,
      "start": 15.073,
      "duration": 0.2828,
      "velocity": 101,
      "chip": "ym2612"
    },
    {
      "channel": 3,
      "note": 50,
      "start": 15.0746,
      "duration": 0.2827,
      "velocity": 101,
      "chip": "ym2612"
    },
    {
      "channel": 4,
      "note": 50,
      "start": 15.0757,
      "duration": 0.2828,
      "velocity": 101,
      "chip": "ym2612"
    },
    {
      "channel": 1,
      "note": 47,
      "start": 15.3234,
      "duration": 0.1493,
      "velocity": 64,
      "chip": "ym2612"
    },
    {
      "channel": 2,
      "note": 59,
      "start": 15.3245,
      "duration": 0.1493,
      "velocity": 101,
      "chip": "ym2612"
    },
    {
      "channel": 0,
      "note": 59,
      "start": 15.3564,
      "duration": 0.1328,
      "velocity": 101,
      "chip": "ym2612"
    },
    {
      "channel": 3,
      "note": 47,
      "start": 15.358,
      "duration": 0.1328,
      "velocity": 101,
      "chip": "ym2612"
    },
    {
      "channel": 4,
      "note": 47,
      "start": 15.359,
      "duration": 0.1328,
      "velocity": 101,
      "chip": "ym2612"
    },
    {
      "channel": 1,
      "note": 57,
      "start": 15.4733,
      "duration": 0.1325,
      "velocity": 64,
      "chip": "ym2612"
    },
    {
      "channel": 2,
      "note": 69,
      "start": 15.4744,
      "duration": 0.2659,
      "velocity": 101,
      "chip": "ym2612"
    },
    {
      "channel": 0,
      "note": 69,
      "start": 15.4897,
      "duration": 0.2828,
      "velocity": 101,
      "chip": "ym2612"
    },
    {
      "channel": 3,
      "note": 57,
      "start": 15.4913,
      "duration": 0.2828,
      "velocity": 101,
      "chip": "ym2612"
    },
    {
      "channel": 4,
      "note": 57,
      "start": 15.4924,
      "duration": 0.2828,
      "velocity": 101,
      "chip": "ym2612"
    },
    {
      "channel": 1,
      "note": 59,
      "start": 15.7397,
      "duration": 0.15,
      "velocity": 64,
      "chip": "ym2612"
    },
    {
      "channel": 2,
      "note": 71,
      "start": 15.7408,
      "duration": 0.1495,
      "velocity": 101,
      "chip": "ym2612"
    },
    {
      "channel": 0,
      "note": 71,
      "start": 15.773,
      "duration": 0.1324,
      "velocity": 101,
      "chip": "ym2612"
    },
    {
      "channel": 3,
      "note": 59,
      "start": 15.7746,
      "duration": 0.132,
      "velocity": 101,
      "chip": "ym2612"
    },
    {
      "channel": 4,
      "note": 59,
      "start": 15.7758,
      "duration": 0.1316,
      "velocity": 101,
      "chip": "ym2612"
    },
    {
      "channel": 1,
      "note": 47,
      "start": 15.8902,
      "duration": 0.549,
      "velocity": 64,
      "chip": "ym2612"
    },
    {
      "channel": 2,
      "note": 59,
      "start": 15.8909,
      "duration": 0.065,
      "velocity": 101,
      "chip": "ym2612"
    },
    {
      "channel": 0,
      "note": 59,
      "start": 15.906,
      "duration": 0.0661,
      "velocity": 101,
      "chip": "ym2612"
    },
    {
      "channel": 3,
      "note": 47,
      "start": 15.9072,
      "duration": 0.0656,
      "velocity": 101,
      "chip": "ym2612"
    },
    {
      "channel": 4,
      "note": 47,
      "start": 15.908,
      "duration": 0.0653,
      "velocity": 101,
      "chip": "ym2612"
    },
    {
      "channel": 2,
      "note": 59,
      "start": 16.023,
      "duration": 0.0663,
      "velocity": 101,
      "chip": "ym2612"
    },
    {
      "channel": 0,
      "note": 59,
      "start": 16.0393,
      "duration": 0.0661,
      "velocity": 101,
      "chip": "ym2612"
    },
    {
      "channel": 3,
      "note": 47,
      "start": 16.0406,
      "duration": 0.0656,
      "velocity": 101,
      "chip": "ym2612"
    },
    {
      "channel": 4,
      "note": 47,
      "start": 16.0413,
      "duration": 0.0653,
      "velocity": 101,
      "chip": "ym2612"
    },
    {
      "channel": 2,
      "note": 59,
      "start": 16.1566,
      "duration": 0.0662,
      "velocity": 101,
      "chip": "ym2612"
    },
    {
      "channel": 0,
      "note": 59,
      "start": 16.1893,
      "duration": 0.0661,
      "velocity": 101,
      "chip": "ym2612"
    },
    {
      "channel": 3,
      "note": 47,
      "start": 16.1906,
      "duration": 0.0657,
      "velocity": 101,
      "chip": "ym2612"
    },
    {
      "channel": 4,
      "note": 47,
      "start": 16.1913,
      "duration": 0.0654,
      "velocity": 101,
      "chip": "ym2612"
    },
    {
      "channel": 2,
      "note": 59,
      "start": 16.3066,
      "duration": 0.0661,
      "velocity": 101,
      "chip": "ym2612"
    },
    {
      "channel": 0,
      "note": 59,
      "start": 16.3227,
      "duration": 0.0661,
      "velocity": 101,
      "chip": "ym2612"
    },
    {
      "channel": 3,
      "note": 47,
      "start": 16.324,
      "duration": 0.0656,
      "velocity": 101,
      "chip": "ym2612"
    },
    {
      "channel": 4,
      "note": 47,
      "start": 16.3248,
      "duration": 0.0653,
      "velocity": 101,
      "chip": "ym2612"
    },
    {
      "channel": 1,
      "note": 50,
      "start": 16.4398,
      "duration": 0.5495,
      "velocity": 64,
      "chip": "ym2612"
    },
    {
      "channel": 2,
      "note": 62,
      "start": 16.4409,
      "duration": 0.5491,
      "velocity": 101,
      "chip": "ym2612"
    },
    {
      "channel": 0,
      "note": 62,
      "start": 16.4564,
      "duration": 0.5657,
      "velocity": 101,
      "chip": "ym2612"
    },
    {
      "channel": 3,
      "note": 50,
      "start": 16.458,
      "duration": 0.5654,
      "velocity": 101,
      "chip": "ym2612"
    },
    {
      "channel": 4,
      "note": 50,
      "start": 16.459,
      "duration": 0.565,
      "velocity": 101,
      "chip": "ym2612"
    },
    {
      "channel": 1,
      "note": 47,
      "start": 16.9898,
      "duration": 0.2829,
      "velocity": 64,
      "chip": "ym2612"
    },
    {
      "channel": 2,
      "note": 59,
      "start": 16.9905,
      "duration": 0.0821,
      "velocity": 101,
      "chip": "ym2612"
    },
    {
      "channel": 0,
      "note": 59,
      "start": 17.0227,
      "duration": 0.0661,
      "velocity": 101,
      "chip": "ym2612"
    },
    {
      "channel": 3,
      "note": 47,
      "start": 17.0239,
      "duration": 0.0656,
      "velocity": 101,
      "chip": "ym2612"
    },
    {
      "channel": 4,
      "note": 47,
      "start": 17.0246,
      "duration": 0.0653,
      "velocity": 101,
      "chip": "ym2612"
    },
    {
      "channel": 2,
      "note": 59,
      "start": 17.1399,
      "duration": 0.066,
      "velocity": 101,
      "chip": "ym2612"
    },
    {
      "channel": 0,
      "note": 59,
      "start": 17.156,
      "duration": 0.0661,
      "velocity": 101,
      "chip": "ym2612"
    },
    {
      "channel": 3,
      "note": 47,
      "start": 17.1573,
      "duration": 0.0656,
      "velocity": 101,
      "chip": "ym2612"
    },
    {
      "channel": 4,
      "note": 47,
      "start": 17.158,
      "duration": 0.0653,
      "velocity": 101,
      "chip": "ym2612"
    },
    {
      "channel": 1,
      "note": 52,
      "start": 17.2733,
      "duration": 0.2822,
      "velocity": 64,
      "chip": "ym2612"
    },
    {
      "channel": 2,
      "note": 64,
      "start": 17.2741,
      "duration": 0.132,
      "velocity": 101,
      "chip": "ym2612"
    },
    {
      "channel": 0,
      "note": 64,
      "start": 17.2893,
      "duration": 0.1494,
      "velocity": 101,
      "chip": "ym2612"
    },
    {
      "channel": 3,
      "note": 52,
      "start": 17.2905,
      "duration": 0.149,
      "velocity": 101,
      "chip": "ym2612"
    },
    {
      "channel": 4,
      "note": 52,
      "start": 17.2913,
      "duration": 0.1486,
      "velocity": 101,
      "chip": "ym2612"
    },
    {
      "channel": 1,
      "note": 47,
      "start": 17.5561,
      "duration": 0.133,
      "velocity": 64,
      "chip": "ym2612"
    },
    {
      "channel": 2,
      "note": 90,
      "start": 17.5571,
      "duration": 0.2665,
      "velocity": 101,
      "chip": "ym2612"
    },
    {
      "channel": 0,
      "note": 90,
      "start": 17.573,
      "duration": 0.2828,
      "velocity": 101,
      "chip": "ym2612"
    },
    {
      "channel": 3,
      "note": 78,
      "start": 17.5747,
      "duration": 0.2826,
      "velocity": 101,
      "chip": "ym2612"
    },
    {
      "channel": 4,
      "note": 78,
      "start": 17.5758,
      "duration": 0.2826,
      "velocity": 101,
      "chip": "ym2612"
    },
    {
      "channel": 1,
      "note": 54,
      "start": 17.6896,
      "duration": 0.1333,
      "velocity": 64,
      "chip": "ym2612"
    },
    {
      "channel": 2,
      "note": 98,
      "start": 17.8243,
      "duration": 1.1197,
      "velocity": 101,
      "chip": "ym2612"
    },
    {
      "channel": 0,
      "note": 98,
      "start": 17.8564,
      "duration": 1.1167,
      "velocity": 101,
      "chip": "ym2612"
    },
    {
      "channel": 3,
      "note": 86,
      "start": 17.8578,
      "duration": 1.1175,
      "velocity": 101,
      "chip": "ym2612"
    },
    {
      "channel": 4,
      "note": 86,
      "start": 17.859,
      "duration": 1.1181,
      "velocity": 101,
      "chip": "ym2612"
    },
    {
      "channel": 1,
      "note": 47,
      "start": 17.9729,
      "duration": 0.1334,
      "velocity": 64,
      "chip": "ym2612"
    },
    {
      "channel": 1,
      "note": 50,
      "start": 18.107,
      "duration": 0.2824,
      "velocity": 64,
      "chip": "ym2612"
    },
    {
      "channel": 1,
      "note": 52,
      "start": 18.39,
      "duration": 0.2827,
      "velocity": 64,
      "chip": "ym2612"
    },
    {
      "channel": 1,
      "note": 47,
      "start": 18.6732,
      "duration": 0.2691,
      "velocity": 64,
      "chip": "ym2612"
    },
    {
      "channel": 1,
      "note": 47,
      "start": 18.9428,
      "duration": 0.5633,
      "velocity": 64,
      "chip": "ym2612"
    },
    {
      "channel": 2,
      "note": 61,
      "start": 18.9446,
      "duration": 0.0618,
      "velocity": 101,
      "chip": "ym2612"
    },
    {
      "channel": 0,
      "note": 61,
      "start": 18.9736,
      "duration": 0.0651,
      "velocity": 101,
      "chip": "ym2612"
    },
    {
      "channel": 3,
      "note": 49,
      "start": 18.9759,
      "duration": 0.0636,
      "velocity": 101,
      "chip": "ym2612"
    },
    {
      "channel": 4,
      "note": 49,
      "start": 18.9776,
      "duration": 0.0623,
      "velocity": 101,
      "chip": "ym2612"
    },
    {
      "channel": 2,
      "note": 61,
      "start": 19.09,
      "duration": 0.0659,
      "velocity": 101,
      "chip": "ym2612"
    },
    {
      "channel": 0,
      "note": 61,
      "start": 19.1064,
      "duration": 0.0657,
      "velocity": 101,
      "chip": "ym2612"
    },
    {
      "channel": 3,
      "note": 49,
      "start": 19.108,
      "duration": 0.0649,
      "velocity": 101,
      "chip": "ym2612"
    },
    {
      "channel": 4,
      "note": 49,
      "start": 19.109,
      "duration": 0.0642,
      "velocity": 101,
      "chip": "ym2612"
    },
    {
      "channel": 2,
      "note": 61,
      "start": 19.2231,
      "duration": 0.0663,
      "velocity": 101,
      "chip": "ym2612"
    },
    {
      "channel": 0,
      "note": 61,
      "start": 19.2393,
      "duration": 0.0661,
      "velocity": 101,
      "chip": "ym2612"
    },
    {
      "channel": 3,
      "note": 49,
      "start": 19.2406,
      "duration": 0.0656,
      "velocity": 101,
      "chip": "ym2612"
    },
    {
      "channel": 4,
      "note": 49,
      "start": 19.2413,
      "duration": 0.0654,
      "velocity": 101,
      "chip": "ym2612"
    },
    {
      "channel": 2,
      "note": 61,
      "start": 19.3567,
      "duration": 0.066,
      "velocity": 101,
      "chip": "ym2612"
    },
    {
      "channel": 0,
      "note": 61,
      "start": 19.3893,
      "duration": 0.0661,
      "velocity": 101,
      "chip": "ym2612"
    },
    {
      "channel": 3,
      "note": 49,
      "start": 19.3907,
      "duration": 0.0655,
      "velocity": 101,
      "chip": "ym2612"
    },
    {
      "channel": 4,
      "note": 49,
      "start": 19.3914,
      "duration": 0.0653,
      "velocity": 101,
      "chip": "ym2612"
    },
    {
      "channel": 1,
      "note": 52,
      "start": 19.5066,
      "duration": 0.2658,
      "velocity": 64,
      "chip": "ym2612"
    },
    {
      "channel": 2,
      "note": 64,
      "start": 19.5077,
      "duration": 0.2659,
      "velocity": 101,
      "chip": "ym2612"
    },
    {
      "channel": 0,
      "note": 64,
      "start": 19.523,
      "duration": 0.2828,
      "velocity": 101,
      "chip": "ym2612"
    },
    {
      "channel": 3,
      "note": 52,
      "start": 19.5246,
      "duration": 0.2828,
      "velocity": 101,
      "chip": "ym2612"
    },
    {
      "channel": 4,
      "note": 52,
      "start": 19.5257,
      "duration": 0.2828,
      "velocity": 101,
      "chip": "ym2612"
    },
    {
      "channel": 1,
      "note": 49,
      "start": 19.773,
      "duration": 0.1497,
      "velocity": 64,
      "chip": "ym2612"
    },
    {
      "channel": 2,
      "note": 61,
      "start": 19.7741,
      "duration": 0.1498,
      "velocity": 101,
      "chip": "ym2612"
    },
    {
      "channel": 0,
      "note": 61,
      "start": 19.8064,
      "duration": 0.1328,
      "velocity": 101,
      "chip": "ym2612"
    },
    {
      "channel": 3,
      "note": 49,
      "start": 19.808,
      "duration": 0.1328,
      "velocity": 101,
      "chip": "ym2612"
    },
    {
      "channel": 4,
      "note": 49,
      "start": 19.809,
      "duration": 0.1328,
      "velocity": 101,
      "chip": "ym2612"
    },
    {
      "channel": 1,
      "note": 59,
      "start": 19.9233,
      "duration": 0.1325,
      "velocity": 64,
      "chip": "ym2612"
    },
    {
      "channel": 2,
      "note": 71,
      "start": 19.9244,
      "duration": 0.2659,
      "velocity": 101,
      "chip": "ym2612"
    },
    {
      "channel": 0,
      "note": 71,
      "start": 19.9397,
      "duration": 0.2828,
      "velocity": 101,
      "chip": "ym2612"
    },
    {
      "channel": 3,
      "note": 59,
      "start": 19.9414,
      "duration": 0.2828,
      "velocity": 101,
      "chip": "ym2612"
    },
    {
      "channel": 4,
      "note": 59,
      "start": 19.9424,
      "duration": 0.2828,
      "velocity": 101,
      "chip": "ym2612"
    },
    {
      "channel": 1,
      "note": 61,
      "start": 20.1897,
      "duration": 0.15,
      "velocity": 64,
      "chip": "ym2612"
    },
    {
      "channel": 2,
      "note": 73,
      "start": 20.1908,
      "duration": 0.1499,
      "velocity": 101,
      "chip": "ym2612"
    },
    {
      "channel": 0,
      "note": 73,
      "start": 20.223,
      "duration": 0.1328,
      "velocity": 101,
      "chip": "ym2612"
    },
    {
      "channel": 3,
      "note": 61,
      "start": 20.2247,
      "duration": 0.1328,
      "velocity": 101,
      "chip": "ym2612"
    },
    {
      "channel": 4,
      "note": 61,
      "start": 20.2258,
      "duration": 0.1328,
      "velocity": 101,
      "chip": "ym2612"
    },
    {
      "channel": 1,
      "note": 49,
      "start": 20.3402,
      "duration": 0.549,
      "velocity": 64,
      "chip": "ym2612"
    },
    {
      "channel": 2,
      "note": 61,
      "start": 20.3412,
      "duration": 0.0651,
      "velocity": 101,
      "chip": "ym2612"
    },
    {
      "channel": 0,
      "note": 61,
      "start": 20.3564,
      "duration": 0.0661,
      "velocity": 101,
      "chip": "ym2612"
    },
    {
      "channel": 3,
      "note": 49,
      "start": 20.358,
      "duration": 0.0655,
      "velocity": 101,
      "chip": "ym2612"
    },
    {
      "channel": 4,
      "note": 49,
      "start": 20.3591,
      "duration": 0.0653,
      "velocity": 101,
      "chip": "ym2612"
    },
    {
      "channel": 2,
      "note": 61,
      "start": 20.473,
      "duration": 0.0663,
      "velocity": 101,
      "chip": "ym2612"
    },
    {
      "channel": 0,
      "note": 61,
      "start": 20.4893,
      "duration": 0.0827,
      "velocity": 101,
      "chip": "ym2612"
    },
    {
      "channel": 3,
      "note": 49,
      "start": 20.4906,
      "duration": 0.0822,
      "velocity": 101,
      "chip": "ym2612"
    },
    {
      "channel": 4,
      "note": 49,
      "start": 20.4913,
      "duration": 0.0819,
      "velocity": 101,
      "chip": "ym2612"
    },
    {
      "channel": 2,
      "note": 61,
      "start": 20.6066,
      "duration": 0.0829,
      "velocity": 101,
      "chip": "ym2612"
    },
    {
      "channel": 0,
      "note": 61,
      "start": 20.6393,
      "duration": 0.0661,
      "velocity": 101,
      "chip": "ym2612"
    },
    {
      "channel": 3,
      "note": 49,
      "start": 20.6406,
      "duration": 0.0656,
      "velocity": 101,
      "chip": "ym2612"
    },
    {
      "channel": 4,
      "note": 49,
      "start": 20.6413,
      "duration": 0.0654,
      "velocity": 101,
      "chip": "ym2612"
    },
    {
      "channel": 2,
      "note": 61,
      "start": 20.7566,
      "duration": 0.0661,
      "velocity": 101,
      "chip": "ym2612"
    },
    {
      "channel": 0,
      "note": 61,
      "start": 20.7727,
      "duration": 0.0661,
      "velocity": 101,
      "chip": "ym2612"
    },
    {
      "channel": 3,
      "note": 49,
      "start": 20.774,
      "duration": 0.0656,
      "velocity": 101,
      "chip": "ym2612"
    },
    {
      "channel": 4,
      "note": 49,
      "start": 20.7748,
      "duration": 0.0653,
      "velocity": 101,
      "chip": "ym2612"
    },
    {
      "channel": 1,
      "note": 52,
      "start": 20.8898,
      "duration": 0.5495,
      "velocity": 64,
      "chip": "ym2612"
    },
    {
      "channel": 2,
      "note": 64,
      "start": 20.8909,
      "duration": 0.5491,
      "velocity": 101,
      "chip": "ym2612"
    },
    {
      "channel": 0,
      "note": 64,
      "start": 20.9064,
      "duration": 0.5657,
      "velocity": 101,
      "chip": "ym2612"
    },
    {
      "channel": 3,
      "note": 52,
      "start": 20.908,
      "duration": 0.5654,
      "velocity": 101,
      "chip": "ym2612"
    },
    {
      "channel": 4,
      "note": 52,
      "start": 20.909,
      "duration": 0.565,
      "velocity": 101,
      "chip": "ym2612"
    },
    {
      "channel": 1,
      "note": 49,
      "start": 21.4398,
      "duration": 0.283,
      "velocity": 64,
      "chip": "ym2612"
    },
    {
      "channel": 2,
      "note": 61,
      "start": 21.4405,
      "duration": 0.0821,
      "velocity": 101,
      "chip": "ym2612"
    },
    {
      "channel": 0,
      "note": 61,
      "start": 21.4727,
      "duration": 0.0661,
      "velocity": 101,
      "chip": "ym2612"
    },
    {
      "channel": 3,
      "note": 49,
      "start": 21.4739,
      "duration": 0.0656,
      "velocity": 101,
      "chip": "ym2612"
    },
    {
      "channel": 4,
      "note": 49,
      "start": 21.4746,
      "duration": 0.0653,
      "velocity": 101,
      "chip": "ym2612"
    },
    {
      "channel": 2,
      "note": 61,
      "start": 21.5899,
      "duration": 0.066,
      "velocity": 101,
      "chip": "ym2612"
    },
    {
      "channel": 0,
      "note": 61,
      "start": 21.6061,
      "duration": 0.066,
      "velocity": 101,
      "chip": "ym2612"
    },
    {
      "channel": 3,
      "note": 49,
      "start": 21.6073,
      "duration": 0.0656,
      "velocity": 101,
      "chip": "ym2612"
    },
    {
      "channel": 4,
      "note": 49,
      "start": 21.608,
      "duration": 0.0653,
      "velocity": 101,
      "chip": "ym2612"
    },
    {
      "channel": 1,
      "note": 54,
      "start": 21.7233,
      "duration": 0.2825,
      "velocity": 64,
      "chip": "ym2612"
    },
    {
      "channel": 2,
      "note": 66,
      "start": 21.7244,
      "duration": 0.4155,
      "velocity": 101,
      "chip": "ym2612"
    },
    {
      "channel": 0,
      "note": 66,
      "start": 21.7564,
      "duration": 0.4157,
      "velocity": 101,
      "chip": "ym2612"
    },
    {
      "channel": 3,
      "note": 54,
      "start": 21.758,
      "duration": 0.4154,
      "velocity": 101,
      "chip": "ym2612"
    },
    {
      "channel": 4,
      "note": 54,
      "start": 21.759,
      "duration": 0.415,
      "velocity": 101,
      "chip": "ym2612"
    },
    {
      "channel": 1,
      "note": 49,
      "start": 22.0064,
      "duration": 0.1328,
      "velocity": 64,
      "chip": "ym2612"
    },
    {
      "channel": 1,
      "note": 56,
      "start": 22.1397,
      "duration": 0.1499,
      "velocity": 64,
      "chip": "ym2612"
    },
    {
      "channel": 2,
      "note": 68,
      "start": 22.1404,
      "duration": 0.2832,
      "velocity": 101,
      "chip": "ym2612"
    },
    {
      "channel": 0,
      "note": 68,
      "start": 22.1727,
      "duration": 0.2665,
      "velocity": 101,
      "chip": "ym2612"
    },
    {
      "channel": 3,
      "note": 56,
      "start": 22.1739,
      "duration": 0.2668,
      "velocity": 101,
      "chip": "ym2612"
    },
    {
      "channel": 4,
      "note": 56,
      "start": 22.1746,
      "duration": 0.2673,
      "velocity": 101,
      "chip": "ym2612"
    },
    {
      "channel": 1,
      "note": 49,
      "start": 22.423,
      "duration": 0.1333,
      "velocity": 64,
      "chip": "ym2612"
    },
    {
      "channel": 2,
      "note": 61,
      "start": 22.4241,
      "duration": 0.1333,
      "velocity": 101,
      "chip": "ym2612"
    },
    {
      "channel": 0,
      "note": 61,
      "start": 22.4397,
      "duration": 0.1494,
      "velocity": 101,
      "chip": "ym2612"
    },
    {
      "channel": 3,
      "note": 49,
      "start": 22.4413,
      "duration": 0.1495,
      "velocity": 101,
      "chip": "ym2612"
    },
    {
      "channel": 4,
      "note": 49,
      "start": 22.4424,
      "duration": 0.1495,
      "velocity": 101,
      "chip": "ym2612"
    },
    {
      "channel": 1,
      "note": 52,
      "start": 22.5569,
      "duration": 0.2824,
      "velocity": 64,
      "chip": "ym2612"
    },
    {
      "channel": 2,
      "note": 64,
      "start": 22.5579,
      "duration": 0.2821,
      "velocity": 101,
      "chip": "ym2612"
    },
    {
      "channel": 0,
      "note": 64,
      "start": 22.5897,
      "duration": 0.2657,
      "velocity": 101,
      "chip": "ym2612"
    },
    {
      "channel": 3,
      "note": 52,
      "start": 22.5914,
      "duration": 0.2653,
      "velocity": 101,
      "chip": "ym2612"
    },
    {
      "channel": 4,
      "note": 52,
      "start": 22.5924,
      "duration": 0.2649,
      "velocity": 101,
      "chip": "ym2612"
    },
    {
      "channel": 1,
      "note": 54,
      "start": 22.8399,
      "duration": 0.2828,
      "velocity": 64,
      "chip": "ym2612"
    },
    {
      "channel": 2,
      "note": 66,
      "start": 22.8406,
      "duration": 0.2828,
      "velocity": 101,
      "chip": "ym2612"
    },
    {
      "channel": 0,
      "note": 66,
      "start": 22.856,
      "duration": 0.2827,
      "velocity": 101,
      "chip": "ym2612"
    },
    {
      "channel": 3,
      "note": 54,
      "start": 22.8572,
      "duration": 0.2828,
      "velocity": 101,
      "chip": "ym2612"
    },
    {
      "channel": 4,
      "note": 54,
      "start": 22.858,
      "duration": 0.2827,
      "velocity": 101,
      "chip": "ym2612"
    },
    {
      "channel": 1,
      "note": 47,
      "start": 23.1233,
      "duration": 0.2668,
      "velocity": 64,
      "chip": "ym2612"
    },
    {
      "channel": 2,
      "note": 59,
      "start": 23.124,
      "duration": 0.2676,
      "velocity": 101,
      "chip": "ym2612"
    },
    {
      "channel": 0,
      "note": 59,
      "start": 23.1393,
      "duration": 0.2835,
      "velocity": 101,
      "chip": "ym2612"
    },
    {
      "channel": 3,
      "note": 47,
      "start": 23.1406,
      "duration": 0.2843,
      "velocity": 101,
      "chip": "ym2612"
    },
    {
      "channel": 4,
      "note": 47,
      "start": 23.1413,
      "duration": 0.285,
      "velocity": 101,
      "chip": "ym2612"
    },
    {
      "channel": 1,
      "note": 47,
      "start": 23.3907,
      "duration": 0.5655,
      "velocity": 64,
      "chip": "ym2612"
    },
    {
      "channel": 2,
      "note": 61,
      "start": 23.3921,
      "duration": 0.0809,
      "velocity": 101,
      "chip": "ym2612"
    },
    {
      "channel": 0,
      "note": 61,
      "start": 23.4234,
      "duration": 0.0653,
      "velocity": 101,
      "chip": "ym2612"
    },
    {
      "channel": 3,
      "note": 49,
      "start": 23.4254,
      "duration": 0.0641,
      "velocity": 101,
      "chip": "ym2612"
    },
    {
      "channel": 4,
      "note": 49,
      "start": 23.4269,
      "duration": 0.063,
      "velocity": 101,
      "chip": "ym2612"
    },
    {
      "channel": 2,
      "note": 61,
      "start": 23.5402,
      "duration": 0.0658,
      "velocity": 101,
      "chip": "ym2612"
    },
    {
      "channel": 0,
      "note": 61,
      "start": 23.5564,
      "duration": 0.0657,
      "velocity": 101,
      "chip": "ym2612"
    },
    {
      "channel": 3,
      "note": 49,
      "start": 23.558,
      "duration": 0.0649,
      "velocity": 101,
      "chip": "ym2612"
    },
    {
      "channel": 4,
      "note": 49,
      "start": 23.559,
      "duration": 0.0642,
      "velocity": 101,
      "chip": "ym2612"
    },
    {
      "channel": 2,
      "note": 61,
      "start": 23.6731,
      "duration": 0.0663,
      "velocity": 101,
      "chip": "ym2612"
    },
    {
      "channel": 0,
      "note": 61,
      "start": 23.6893,
      "duration": 0.0827,
      "velocity": 101,
      "chip": "ym2612"
    },
    {
      "channel": 3,
      "note": 49,
      "start": 23.6906,
      "duration": 0.0823,
      "velocity": 101,
      "chip": "ym2612"
    },
    {
      "channel": 4,
      "note": 49,
      "start": 23.6913,
      "duration": 0.082,
      "velocity": 101,
      "chip": "ym2612"
    },
    {
      "channel": 2,
      "note": 61,
      "start": 23.8067,
      "duration": 0.0827,
      "velocity": 101,
      "chip": "ym2612"
    },
    {
      "channel": 0,
      "note": 61,
      "start": 23.8393,
      "duration": 0.0661,
      "velocity": 101,
      "chip": "ym2612"
    },
    {
      "channel": 3,
      "note": 49,
      "start": 23.8407,
      "duration": 0.0655,
      "velocity": 101,
      "chip": "ym2612"
    },
    {
      "channel": 4,
      "note": 49,
      "start": 23.8414,
      "duration": 0.0653,
      "velocity": 101,
      "chip": "ym2612"
    },
    {
      "channel": 1,
      "note": 52,
      "start": 23.9566,
      "duration": 0.2658,
      "velocity": 64,
      "chip": "ym2612"
    },
    {
      "channel": 2,
      "note": 64,
      "start": 23.9577,
      "duration": 0.2659,
      "velocity": 101,
      "chip": "ym2612"
    },
    {
      "channel": 0,
      "note": 64,
      "start": 23.973,
      "duration": 0.2828,
      "velocity": 101,
      "chip": "ym2612"
    },
    {
      "channel": 3,
      "note": 52,
      "start": 23.9746,
      "duration": 0.2828,
      "velocity": 101,
      "chip": "ym2612"
    },
    {
      "channel": 4,
      "note": 52,
      "start": 23.9757,
      "duration": 0.2828,
      "velocity": 101,
      "chip": "ym2612"
    },
    {
      "channel": 1,
      "note": 49,
      "start": 24.223,
      "duration": 0.1497,
      "velocity": 64,
      "chip": "ym2612"
    },
    {
      "channel": 2,
      "note": 61,
      "start": 24.2241,
      "duration": 0.1497,
      "velocity": 101,
      "chip": "ym2612"
    },
    {
      "channel": 0,
      "note": 61,
      "start": 24.2564,
      "duration": 0.1328,
      "velocity": 101,
      "chip": "ym2612"
    },
    {
      "channel": 3,
      "note": 49,
      "start": 24.258,
      "duration": 0.1328,
      "velocity": 101,
      "chip": "ym2612"
    },
    {
      "channel": 4,
      "note": 49,
      "start": 24.259,
      "duration": 0.1328,
      "velocity": 101,
      "chip": "ym2612"
    },
    {
      "channel": 1,
      "note": 59,
      "start": 24.3733,
      "duration": 0.1325,
      "velocity": 64,
      "chip": "ym2612"
    },
    {
      "channel": 2,
      "note": 71,
      "start": 24.3744,
      "duration": 0.2659,
      "velocity": 101,
      "chip": "ym2612"
    },
    {
      "channel": 0,
      "note": 71,
      "start": 24.3897,
      "duration": 0.2828,
      "velocity": 101,
      "chip": "ym2612"
    },
    {
      "channel": 3,
      "note": 59,
      "start": 24.3914,
      "duration": 0.2828,
      "velocity": 101,
      "chip": "ym2612"
    },
    {
      "channel": 4,
      "note": 59,
      "start": 24.3924,
      "duration": 0.2828,
      "velocity": 101,
      "chip": "ym2612"
    },
    {
      "channel": 1,
      "note": 61,
      "start": 24.6397,
      "duration": 0.15,
      "velocity": 64,
      "chip": "ym2612"
    },
    {
      "channel": 2,
      "note": 73,
      "start": 24.6408,
      "duration": 0.1499,
      "velocity": 101,
      "chip": "ym2612"
    },
    {
      "channel": 0,
      "note": 73,
      "start": 24.673,
      "duration": 0.1328,
      "velocity": 101,
      "chip": "ym2612"
    },
    {
      "channel": 3,
      "note": 61,
      "start": 24.6747,
      "duration": 0.1328,
      "velocity": 101,
      "chip": "ym2612"
    },
    {
      "channel": 4,
      "note": 61,
      "start": 24.6758,
      "duration": 0.1328,
      "velocity": 101,
      "chip": "ym2612"
    },
    {
      "channel": 1,
      "note": 49,
      "start": 24.7902,
      "duration": 0.549,
      "velocity": 64,
      "chip": "ym2612"
    },
    {
      "channel": 2,
      "note": 61,
      "start": 24.7912,
      "duration": 0.0651,
      "velocity": 101,
      "chip": "ym2612"
    },
    {
      "channel": 0,
      "note": 61,
      "start": 24.8064,
      "duration": 0.0661,
      "velocity": 101,
      "chip": "ym2612"
    },
    {
      "channel": 3,
      "note": 49,
      "start": 24.808,
      "duration": 0.0655,
      "velocity": 101,
      "chip": "ym2612"
    },
    {
      "channel": 4,
      "note": 49,
      "start": 24.8091,
      "duration": 0.0653,
      "velocity": 101,
      "chip": "ym2612"
    },
    {
      "channel": 2,
      "note": 61,
      "start": 24.923,
      "duration": 0.0663,
      "velocity": 101,
      "chip": "ym2612"
    },
    {
      "channel": 0,
      "note": 61,
      "start": 24.956,
      "duration": 0.0661,
      "velocity": 101,
      "chip": "ym2612"
    },
    {
      "channel": 3,
      "note": 49,
      "start": 24.9573,
      "duration": 0.0656,
      "velocity": 101,
      "chip": "ym2612"
    },
    {
      "channel": 4,
      "note": 49,
      "start": 24.958,
      "duration": 0.0653,
      "velocity": 101,
      "chip": "ym2612"
    },
    {
      "channel": 2,
      "note": 61,
      "start": 25.0732,
      "duration": 0.0662,
      "velocity": 101,
      "chip": "ym2612"
    },
    {
      "channel": 0,
      "note": 61,
      "start": 25.0893,
      "duration": 0.0661,
      "velocity": 101,
      "chip": "ym2612"
    },
    {
      "channel": 3,
      "note": 49,
      "start": 25.0906,
      "duration": 0.0656,
      "velocity": 101,
      "chip": "ym2612"
    },
    {
      "channel": 4,
      "note": 49,
      "start": 25.0913,
      "duration": 0.0654,
      "velocity": 101,
      "chip": "ym2612"
    },
    {
      "channel": 2,
      "note": 61,
      "start": 25.2066,
      "duration": 0.0661,
      "velocity": 101,
      "chip": "ym2612"
    },
    {
      "channel": 0,
      "note": 61,
      "start": 25.2227,
      "duration": 0.0661,
      "velocity": 101,
      "chip": "ym2612"
    },
    {
      "channel": 3,
      "note": 49,
      "start": 25.224,
      "duration": 0.0656,
      "velocity": 101,
      "chip": "ym2612"
    },
    {
      "channel": 4,
      "note": 49,
      "start": 25.2248,
      "duration": 0.0653,
      "velocity": 101,
      "chip": "ym2612"
    },
    {
      "channel": 1,
      "note": 52,
      "start": 25.3398,
      "duration": 0.5662,
      "velocity": 64,
      "chip": "ym2612"
    },
    {
      "channel": 2,
      "note": 64,
      "start": 25.3409,
      "duration": 0.5658,
      "velocity": 101,
      "chip": "ym2612"
    },
    {
      "channel": 0,
      "note": 64,
      "start": 25.373,
      "duration": 0.549,
      "velocity": 101,
      "chip": "ym2612"
    },
    {
      "channel": 3,
      "note": 52,
      "start": 25.3746,
      "duration": 0.5487,
      "velocity": 101,
      "chip": "ym2612"
    },
    {
      "channel": 4,
      "note": 52,
      "start": 25.3757,
      "duration": 0.5483,
      "velocity": 101,
      "chip": "ym2612"
    },
    {
      "channel": 1,
      "note": 49,
      "start": 25.9064,
      "duration": 0.2663,
      "velocity": 64,
      "chip": "ym2612"
    },
    {
      "channel": 2,
      "note": 61,
      "start": 25.9072,
      "duration": 0.0654,
      "velocity": 101,
      "chip": "ym2612"
    },
    {
      "channel": 0,
      "note": 61,
      "start": 25.9227,
      "duration": 0.0661,
      "velocity": 101,
      "chip": "ym2612"
    },
    {
      "channel": 3,
      "note": 49,
      "start": 25.9239,
      "duration": 0.0656,
      "velocity": 101,
      "chip": "ym2612"
    },
    {
      "channel": 4,
      "note": 49,
      "start": 25.9246,
      "duration": 0.0653,
      "velocity": 101,
      "chip": "ym2612"
    },
    {
      "channel": 2,
      "note": 61,
      "start": 26.0399,
      "duration": 0.066,
      "velocity": 101,
      "chip": "ym2612"
    },
    {
      "channel": 0,
      "note": 61,
      "start": 26.056,
      "duration": 0.0827,
      "velocity": 101,
      "chip": "ym2612"
    },
    {
      "channel": 3,
      "note": 49,
      "start": 26.0573,
      "duration": 0.0822,
      "velocity": 101,
      "chip": "ym2612"
    },
    {
      "channel": 4,
      "note": 49,
      "start": 26.058,
      "duration": 0.0819,
      "velocity": 101,
      "chip": "ym2612"
    },
    {
      "channel": 1,
      "note": 54,
      "start": 26.1733,
      "duration": 0.2822,
      "velocity": 64,
      "chip": "ym2612"
    },
    {
      "channel": 2,
      "note": 66,
      "start": 26.1741,
      "duration": 0.1487,
      "velocity": 101,
      "chip": "ym2612"
    },
    {
      "channel": 0,
      "note": 66,
      "start": 26.206,
      "duration": 0.1327,
      "velocity": 101,
      "chip": "ym2612"
    },
    {
      "channel": 3,
      "note": 54,
      "start": 26.2072,
      "duration": 0.1323,
      "velocity": 101,
      "chip": "ym2612"
    },
    {
      "channel": 4,
      "note": 54,
      "start": 26.2079,
      "duration": 0.132,
      "velocity": 101,
      "chip": "ym2612"
    },
    {
      "channel": 1,
      "note": 49,
      "start": 26.4561,
      "duration": 0.133,
      "velocity": 64,
      "chip": "ym2612"
    },
    {
      "channel": 2,
      "note": 88,
      "start": 26.4572,
      "duration": 0.2832,
      "velocity": 101,
      "chip": "ym2612"
    },
    {
      "channel": 0,
      "note": 88,
      "start": 26.473,
      "duration": 0.2828,
      "velocity": 101,
      "chip": "ym2612"
    },
    {
      "channel": 3,
      "note": 76,
      "start": 26.4747,
      "duration": 0.2826,
      "velocity": 101,
      "chip": "ym2612"
    },
    {
      "channel": 4,
      "note": 76,
      "start": 26.4758,
      "duration": 0.2826,
      "velocity": 101,
      "chip": "ym2612"
    },
    {
      "channel": 1,
      "note": 56,
      "start": 26.5896,
      "duration": 0.1501,
      "velocity": 64,
      "chip": "ym2612"
    },
    {
      "channel": 2,
      "note": 95,
      "start": 26.741,
      "duration": 1.1006,
      "velocity": 101,
      "chip": "ym2612"
    },
    {
      "channel": 0,
      "note": 95,
      "start": 26.7564,
      "duration": 1.1165,
      "velocity": 101,
      "chip": "ym2612"
    },
    {
      "channel": 3,
      "note": 83,
      "start": 26.7578,
      "duration": 1.1171,
      "velocity": 101,
      "chip": "ym2612"
    },
    {
      "channel": 4,
      "note": 83,
      "start": 26.759,
      "duration": 1.1174,
      "velocity": 101,
      "chip": "ym2612"
    },
    {
      "channel": 1,
      "note": 49,
      "start": 26.8732,
      "duration": 0.1332,
      "velocity": 64,
      "chip": "ym2612"
    },
    {
      "channel": 1,
      "note": 52,
      "start": 27.007,
      "duration": 0.2824,
      "velocity": 64,
      "chip": "ym2612"
    },
    {
      "channel": 1,
      "note": 54,
      "start": 27.29,
      "duration": 0.2827,
      "velocity": 64,
      "chip": "ym2612"
    },
    {
      "channel": 1,
      "note": 59,
      "start": 27.5733,
      "duration": 0.2668,
      "velocity": 64,
      "chip": "ym2612"
    },
    {
      "channel": 1,
      "note": 45,
      "start": 27.8407,
      "duration": 0.5651,
      "velocity": 64,
      "chip": "ym2612"
    },
    {
      "channel": 2,
      "note": 59,
      "start": 27.8421,
      "duration": 0.0809,
      "velocity": 101,
      "chip": "ym2612"
    },
    {
      "channel": 0,
      "note": 59,
      "start": 27.8734,
      "duration": 0.0653,
      "velocity": 101,
      "chip": "ym2612"
    },
    {
      "channel": 3,
      "note": 47,
      "start": 27.8755,
      "duration": 0.0641,
      "velocity": 101,
      "chip": "ym2612"
    },
    {
      "channel": 4,
      "note": 47,
      "start": 27.8769,
      "duration": 0.063,
      "velocity": 101,
      "chip": "ym2612"
    },
    {
      "channel": 2,
      "note": 59,
      "start": 27.99,
      "duration": 0.0659,
      "velocity": 101,
      "chip": "ym2612"
    },
    {
      "channel": 0,
      "note": 59,
      "start": 28.0064,
      "duration": 0.0657,
      "velocity": 101,
      "chip": "ym2612"
    },
    {
      "channel": 3,
      "note": 47,
      "start": 28.008,
      "duration": 0.0649,
      "velocity": 101,
      "chip": "ym2612"
    },
    {
      "channel": 4,
      "note": 47,
      "start": 28.009,
      "duration": 0.0642,
      "velocity": 101,
      "chip": "ym2612"
    },
    {
      "channel": 2,
      "note": 59,
      "start": 28.1231,
      "duration": 0.0663,
      "velocity": 101,
      "chip": "ym2612"
    },
    {
      "channel": 0,
      "note": 59,
      "start": 28.156,
      "duration": 0.0661,
      "velocity": 101,
      "chip": "ym2612"
    },
    {
      "channel": 3,
      "note": 47,
      "start": 28.1573,
      "duration": 0.0656,
      "velocity": 101,
      "chip": "ym2612"
    },
    {
      "channel": 4,
      "note": 47,
      "start": 28.158,
      "duration": 0.0654,
      "velocity": 101,
      "chip": "ym2612"
    },
    {
      "channel": 2,
      "note": 59,
      "start": 28.2734,
      "duration": 0.066,
      "velocity": 101,
      "chip": "ym2612"
    },
    {
      "channel": 0,
      "note": 59,
      "start": 28.2893,
      "duration": 0.0661,
      "velocity": 101,
      "chip": "ym2612"
    },
    {
      "channel": 3,
      "note": 47,
      "start": 28.2907,
      "duration": 0.0656,
      "velocity": 101,
      "chip": "ym2612"
    },
    {
      "channel": 4,
      "note": 47,
      "start": 28.2914,
      "duration": 0.0653,
      "velocity": 101,
      "chip": "ym2612"
    },
    {
      "channel": 1,
      "note": 50,
      "start": 28.4063,
      "duration": 0.2833,
      "velocity": 64,
      "chip": "ym2612"
    },
    {
      "channel": 2,
      "note": 62,
      "start": 28.4074,
      "duration": 0.2832,
      "velocity": 101,
      "chip": "ym2612"
    },
    {
      "channel": 0,
      "note": 62,
      "start": 28.423,
      "duration": 0.2828,
      "velocity": 101,
      "chip": "ym2612"
    },
    {
      "channel": 3,
      "note": 50,
      "start": 28.4246,
      "duration": 0.2828,
      "velocity": 101,
      "chip": "ym2612"
    },
    {
      "channel": 4,
      "note": 50,
      "start": 28.4257,
      "duration": 0.2828,
      "velocity": 101,
      "chip": "ym2612"
    },
    {
      "channel": 1,
      "note": 47,
      "start": 28.6901,
      "duration": 0.1326,
      "velocity": 64,
      "chip": "ym2612"
    },
    {
      "channel": 2,
      "note": 59,
      "start": 28.6912,
      "duration": 0.1326,
      "velocity": 101,
      "chip": "ym2612"
    },
    {
      "channel": 0,
      "note": 59,
      "start": 28.7064,
      "duration": 0.1328,
      "velocity": 101,
      "chip": "ym2612"
    },
    {
      "channel": 3,
      "note": 47,
      "start": 28.708,
      "duration": 0.1328,
      "velocity": 101,
      "chip": "ym2612"
    },
    {
      "channel": 4,
      "note": 47,
      "start": 28.7091,
      "duration": 0.1328,
      "velocity": 101,
      "chip": "ym2612"
    },
    {
      "channel": 1,
      "note": 57,
      "start": 28.8233,
      "duration": 0.1325,
      "velocity": 64,
      "chip": "ym2612"
    },
    {
      "channel": 2,
      "note": 69,
      "start": 28.8244,
      "duration": 0.2825,
      "velocity": 101,
      "chip": "ym2612"
    },
    {
      "channel": 0,
      "note": 69,
      "start": 28.8397,
      "duration": 0.2828,
      "velocity": 101,
      "chip": "ym2612"
    },
    {
      "channel": 3,
      "note": 57,
      "start": 28.8413,
      "duration": 0.2828,
      "velocity": 101,
      "chip": "ym2612"
    },
    {
      "channel": 4,
      "note": 57,
      "start": 28.8424,
      "duration": 0.2828,
      "velocity": 101,
      "chip": "ym2612"
    },
    {
      "channel": 1,
      "note": 59,
      "start": 29.1064,
      "duration": 0.1333,
      "velocity": 64,
      "chip": "ym2612"
    },
    {
      "channel": 2,
      "note": 71,
      "start": 29.1075,
      "duration": 0.1329,
      "velocity": 101,
      "chip": "ym2612"
    },
    {
      "channel": 0,
      "note": 71,
      "start": 29.123,
      "duration": 0.1324,
      "velocity": 101,
      "chip": "ym2612"
    },
    {
      "channel": 3,
      "note": 59,
      "start": 29.1246,
      "duration": 0.132,
      "velocity": 101,
      "chip": "ym2612"
    },
    {
      "channel": 4,
      "note": 59,
      "start": 29.1258,
      "duration": 0.1316,
      "velocity": 101,
      "chip": "ym2612"
    },
    {
      "channel": 1,
      "note": 47,
      "start": 29.2402,
      "duration": 0.549,
      "velocity": 64,
      "chip": "ym2612"
    },
    {
      "channel": 2,
      "note": 59,
      "start": 29.2409,
      "duration": 0.065,
      "velocity": 101,
      "chip": "ym2612"
    },
    {
      "channel": 0,
      "note": 59,
      "start": 29.256,
      "duration": 0.0827,
      "velocity": 101,
      "chip": "ym2612"
    },
    {
      "channel": 3,
      "note": 47,
      "start": 29.2573,
      "duration": 0.0822,
      "velocity": 101,
      "chip": "ym2612"
    },
    {
      "channel": 4,
      "note": 47,
      "start": 29.258,
      "duration": 0.0819,
      "velocity": 101,
      "chip": "ym2612"
    },
    {
      "channel": 2,
      "note": 59,
      "start": 29.373,
      "duration": 0.0663,
      "velocity": 101,
      "chip": "ym2612"
    },
    {
      "channel": 0,
      "note": 59,
      "start": 29.406,
      "duration": 0.0661,
      "velocity": 101,
      "chip": "ym2612"
    },
    {
      "channel": 3,
      "note": 47,
      "start": 29.4073,
      "duration": 0.0656,
      "velocity": 101,
      "chip": "ym2612"
    },
    {
      "channel": 4,
      "note": 47,
      "start": 29.408,
      "duration": 0.0653,
      "velocity": 101,
      "chip": "ym2612"
    },
    {
      "channel": 2,
      "note": 59,
      "start": 29.5232,
      "duration": 0.0662,
      "velocity": 101,
      "chip": "ym2612"
    },
    {
      "channel": 0,
      "note": 59,
      "start": 29.5393,
      "duration": 0.0661,
      "velocity": 101,
      "chip": "ym2612"
    },
    {
      "channel": 3,
      "note": 47,
      "start": 29.5406,
      "duration": 0.0656,
      "velocity": 101,
      "chip": "ym2612"
    },
    {
      "channel": 4,
      "note": 47,
      "start": 29.5413,
      "duration": 0.0654,
      "velocity": 101,
      "chip": "ym2612"
    },
    {
      "channel": 2,
      "note": 59,
      "start": 29.6566,
      "duration": 0.0661,
      "velocity": 101,
      "chip": "ym2612"
    },
    {
      "channel": 0,
      "note": 59,
      "start": 29.6727,
      "duration": 0.0827,
      "velocity": 101,
      "chip": "ym2612"
    },
    {
      "channel": 3,
      "note": 47,
      "start": 29.6741,
      "duration": 0.0822,
      "velocity": 101,
      "chip": "ym2612"
    },
    {
      "channel": 4,
      "note": 47,
      "start": 29.6748,
      "duration": 0.0819,
      "velocity": 101,
      "chip": "ym2612"
    },
    {
      "channel": 1,
      "note": 50,
      "start": 29.7898,
      "duration": 0.5662,
      "velocity": 64,
      "chip": "ym2612"
    },
    {
      "channel": 2,
      "note": 62,
      "start": 29.7909,
      "duration": 0.5658,
      "velocity": 101,
      "chip": "ym2612"
    },
    {
      "channel": 0,
      "note": 62,
      "start": 29.823,
      "duration": 0.549,
      "velocity": 101,
      "chip": "ym2612"
    },
    {
      "channel": 3,
      "note": 50,
      "start": 29.8246,
      "duration": 0.5487,
      "velocity": 101,
      "chip": "ym2612"
    },
    {
      "channel": 4,
      "note": 50,
      "start": 29.8257,
      "duration": 0.5483,
      "velocity": 101,
      "chip": "ym2612"
    },
    {
      "channel": 1,
      "note": 47,
      "start": 30.3565,
      "duration": 0.2663,
      "velocity": 64,
      "chip": "ym2612"
    },
    {
      "channel": 2,
      "note": 59,
      "start": 30.3572,
      "duration": 0.0654,
      "velocity": 101,
      "chip": "ym2612"
    },
    {
      "channel": 0,
      "note": 59,
      "start": 30.3727,
      "duration": 0.0661,
      "velocity": 101,
      "chip": "ym2612"
    },
    {
      "channel": 3,
      "note": 47,
      "start": 30.3739,
      "duration": 0.0656,
      "velocity": 101,
      "chip": "ym2612"
    },
    {
      "channel": 4,
      "note": 47,
      "start": 30.3746,
      "duration": 0.0653,
      "velocity": 101,
      "chip": "ym2612"
    },
    {
      "channel": 2,
      "note": 59,
      "start": 30.4899,
      "duration": 0.066,
      "velocity": 101,
      "chip": "ym2612"
    },
    {
      "channel": 0,
      "note": 59,
      "start": 30.506,
      "duration": 0.0827,
      "velocity": 101,
      "chip": "ym2612"
    },
    {
      "channel": 3,
      "note": 47,
      "start": 30.5073,
      "duration": 0.0822,
      "velocity": 101,
      "chip": "ym2612"
    },
    {
      "channel": 4,
      "note": 47,
      "start": 30.508,
      "duration": 0.0819,
      "velocity": 101,
      "chip": "ym2612"
    },
    {
      "channel": 1,
      "note": 52,
      "start": 30.6233,
      "duration": 0.2825,
      "velocity": 64,
      "chip": "ym2612"
    },
    {
      "channel": 2,
      "note": 64,
      "start": 30.6244,
      "duration": 0.4155,
      "velocity": 101,
      "chip": "ym2612"
    },
    {
      "channel": 0,
      "note": 64,
      "start": 30.6564,
      "duration": 0.4157,
      "velocity": 101,
      "chip": "ym2612"
    },
    {
      "channel": 3,
      "note": 52,
      "start": 30.658,
      "duration": 0.4154,
      "velocity": 101,
      "chip": "ym2612"
    },
    {
      "channel": 4,
      "note": 52,
      "start": 30.659,
      "duration": 0.415,
      "velocity": 101,
      "chip": "ym2612"
    },
    {
      "channel": 1,
      "note": 47,
      "start": 30.9063,
      "duration": 0.1328,
      "velocity": 64,
      "chip": "ym2612"
    },
    {
      "channel": 1,
      "note": 54,
      "start": 31.0397,
      "duration": 0.1499,
      "velocity": 64,
      "chip": "ym2612"
    },
    {
      "channel": 2,
      "note": 66,
      "start": 31.0404,
      "duration": 0.2832,
      "velocity": 101,
      "chip": "ym2612"
    },
    {
      "channel": 0,
      "note": 66,
      "start": 31.0727,
      "duration": 0.2831,
      "velocity": 101,
      "chip": "ym2612"
    },
    {
      "channel": 3,
      "note": 54,
      "start": 31.0739,
      "duration": 0.2835,
      "velocity": 101,
      "chip": "ym2612"
    },
    {
      "channel": 4,
      "note": 54,
      "start": 31.0746,
      "duration": 0.284,
      "velocity": 101,
      "chip": "ym2612"
    },
    {
      "channel": 1,
      "note": 47,
      "start": 31.323,
      "duration": 0.15,
      "velocity": 64,
      "chip": "ym2612"
    },
    {
      "channel": 2,
      "note": 59,
      "start": 31.3241,
      "duration": 0.15,
      "velocity": 101,
      "chip": "ym2612"
    },
    {
      "channel": 0,
      "note": 59,
      "start": 31.3564,
      "duration": 0.1328,
      "velocity": 101,
      "chip": "ym2612"
    },
    {
      "channel": 3,
      "note": 47,
      "start": 31.358,
      "duration": 0.1328,
      "velocity": 101,
      "chip": "ym2612"
    },
    {
      "channel": 4,
      "note": 47,
      "start": 31.359,
      "duration": 0.1328,
      "velocity": 101,
      "chip": "ym2612"
    },
    {
      "channel": 1,
      "note": 50,
      "start": 31.4735,
      "duration": 0.2659,
      "velocity": 64,
      "chip": "ym2612"
    },
    {
      "channel": 2,
      "note": 62,
      "start": 31.4746,
      "duration": 0.2655,
      "velocity": 101,
      "chip": "ym2612"
    },
    {
      "channel": 0,
      "note": 62,
      "start": 31.4897,
      "duration": 0.2824,
      "velocity": 101,
      "chip": "ym2612"
    },
    {
      "channel": 3,
      "note": 50,
      "start": 31.4914,
      "duration": 0.282,
      "velocity": 101,
      "chip": "ym2612"
    },
    {
      "channel": 4,
      "note": 50,
      "start": 31.4924,
      "duration": 0.2816,
      "velocity": 101,
      "chip": "ym2612"
    },
    {
      "channel": 1,
      "note": 52,
      "start": 31.7399,
      "duration": 0.2828,
      "velocity": 64,
      "chip": "ym2612"
    },
    {
      "channel": 2,
      "note": 64,
      "start": 31.7406,
      "duration": 0.2828,
      "velocity": 101,
      "chip": "ym2612"
    },
    {
      "channel": 0,
      "note": 64,
      "start": 31.7727,
      "duration": 0.2661,
      "velocity": 101,
      "chip": "ym2612"
    },
    {
      "channel": 3,
      "note": 52,
      "start": 31.7739,
      "duration": 0.2661,
      "velocity": 101,
      "chip": "ym2612"
    },
    {
      "channel": 4,
      "note": 52,
      "start": 31.7746,
      "duration": 0.2661,
      "velocity": 101,
      "chip": "ym2612"
    },
    {
      "channel": 1,
      "note": 45,
      "start": 32.0232,
      "duration": 0.2835,
      "velocity": 64,
      "chip": "ym2612"
    },
    {
      "channel": 2,
      "note": 57,
      "start": 32.0239,
      "duration": 0.2843,
      "velocity": 101,
      "chip": "ym2612"
    },
    {
      "channel": 0,
      "note": 57,
      "start": 32.0393,
      "duration": 0.2835,
      "velocity": 101,
      "chip": "ym2612"
    },
    {
      "channel": 3,
      "note": 45,
      "start": 32.0405,
      "duration": 0.2844,
      "velocity": 101,
      "chip": "ym2612"
    },
    {
      "channel": 4,
      "note": 45,
      "start": 32.0412,
      "duration": 0.2851,
      "velocity": 101,
      "chip": "ym2612"
    },
    {
      "channel": 1,
      "note": 45,
      "start": 32.3073,
      "duration": 0.5484,
      "velocity": 64,
      "chip": "ym2612"
    },
    {
      "channel": 2,
      "note": 59,
      "start": 32.3088,
      "duration": 0.0642,
      "velocity": 101,
      "chip": "ym2612"
    },
    {
      "channel": 0,
      "note": 59,
      "start": 32.3234,
      "duration": 0.0653,
      "velocity": 101,
      "chip": "ym2612"
    },
    {
      "channel": 3,
      "note": 47,
      "start": 32.3255,
      "duration": 0.0641,
      "velocity": 101,
      "chip": "ym2612"
    },
    {
      "channel": 4,
      "note": 47,
      "start": 32.3269,
      "duration": 0.063,
      "velocity": 101,
      "chip": "ym2612"
    },
    {
      "channel": 2,
      "note": 59,
      "start": 32.44,
      "duration": 0.0659,
      "velocity": 101,
      "chip": "ym2612"
    },
    {
      "channel": 0,
      "note": 59,
      "start": 32.4564,
      "duration": 0.0824,
      "velocity": 101,
      "chip": "ym2612"
    },
    {
      "channel": 3,
      "note": 47,
      "start": 32.458,
      "duration": 0.0815,
      "velocity": 101,
      "chip": "ym2612"
    },
    {
      "channel": 4,
      "note": 47,
      "start": 32.459,
      "duration": 0.0809,
      "velocity": 101,
      "chip": "ym2612"
    },
    {
      "channel": 2,
      "note": 59,
      "start": 32.5731,
      "duration": 0.0663,
      "velocity": 101,
      "chip": "ym2612"
    },
    {
      "channel": 0,
      "note": 59,
      "start": 32.606,
      "duration": 0.0661,
      "velocity": 101,
      "chip": "ym2612"
    },
    {
      "channel": 3,
      "note": 47,
      "start": 32.6073,
      "duration": 0.0656,
      "velocity": 101,
      "chip": "ym2612"
    },
    {
      "channel": 4,
      "note": 47,
      "start": 32.608,
      "duration": 0.0654,
      "velocity": 101,
      "chip": "ym2612"
    },
    {
      "channel": 2,
      "note": 59,
      "start": 32.7234,
      "duration": 0.066,
      "velocity": 101,
      "chip": "ym2612"
    },
    {
      "channel": 0,
      "note": 59,
      "start": 32.7394,
      "duration": 0.066,
      "velocity": 101,
      "chip": "ym2612"
    },
    {
      "channel": 3,
      "note": 47,
      "start": 32.7407,
      "duration": 0.0655,
      "velocity": 101,
      "chip": "ym2612"
    },
    {
      "channel": 4,
      "note": 47,
      "start": 32.7414,
      "duration": 0.0653,
      "velocity": 101,
      "chip": "ym2612"
    },
    {
      "channel": 1,
      "note": 50,
      "start": 32.8563,
      "duration": 0.2832,
      "velocity": 64,
      "chip": "ym2612"
    },
    {
      "channel": 2,
      "note": 62,
      "start": 32.8574,
      "duration": 0.2832,
      "velocity": 101,
      "chip": "ym2612"
    },
    {
      "channel": 0,
      "note": 62,
      "start": 32.873,
      "duration": 0.2828,
      "velocity": 101,
      "chip": "ym2612"
    },
    {
      "channel": 3,
      "note": 50,
      "start": 32.8746,
      "duration": 0.2827,
      "velocity": 101,
      "chip": "ym2612"
    },
    {
      "channel": 4,
      "note": 50,
      "start": 32.8757,
      "duration": 0.2828,
      "velocity": 101,
      "chip": "ym2612"
    },
    {
      "channel": 1,
      "note": 47,
      "start": 33.1401,
      "duration": 0.1326,
      "velocity": 64,
      "chip": "ym2612"
    },
    {
      "channel": 2,
      "note": 59,
      "start": 33.1412,
      "duration": 0.1326,
      "velocity": 101,
      "chip": "ym2612"
    },
    {
      "channel": 0,
      "note": 59,
      "start": 33.1564,
      "duration": 0.1328,
      "velocity": 101,
      "chip": "ym2612"
    },
    {
      "channel": 3,
      "note": 47,
      "start": 33.158,
      "duration": 0.1328,
      "velocity": 101,
      "chip": "ym2612"
    },
    {
      "channel": 4,
      "note": 47,
      "start": 33.159,
      "duration": 0.1328,
      "velocity": 101,
      "chip": "ym2612"
    },
    {
      "channel": 1,
      "note": 57,
      "start": 33.2733,
      "duration": 0.1325,
      "velocity": 64,
      "chip": "ym2612"
    },
    {
      "channel": 2,
      "note": 69,
      "start": 33.2744,
      "duration": 0.2825,
      "velocity": 101,
      "chip": "ym2612"
    },
    {
      "channel": 0,
      "note": 69,
      "start": 33.2897,
      "duration": 0.2828,
      "velocity": 101,
      "chip": "ym2612"
    },
    {
      "channel": 3,
      "note": 57,
      "start": 33.2914,
      "duration": 0.2828,
      "velocity": 101,
      "chip": "ym2612"
    },
    {
      "channel": 4,
      "note": 57,
      "start": 33.2924,
      "duration": 0.2828,
      "velocity": 101,
      "chip": "ym2612"
    },
    {
      "channel": 1,
      "note": 59,
      "start": 33.5564,
      "duration": 0.1333,
      "velocity": 64,
      "chip": "ym2612"
    },
    {
      "channel": 2,
      "note": 71,
      "start": 33.5575,
      "duration": 0.1329,
      "velocity": 101,
      "chip": "ym2612"
    },
    {
      "channel": 0,
      "note": 71,
      "start": 33.573,
      "duration": 0.1324,
      "velocity": 101,
      "chip": "ym2612"
    },
    {
      "channel": 3,
      "note": 59,
      "start": 33.5746,
      "duration": 0.132,
      "velocity": 101,
      "chip": "ym2612"
    },
    {
      "channel": 4,
      "note": 59,
      "start": 33.5758,
      "duration": 0.1316,
      "velocity": 101,
      "chip": "ym2612"
    },
    {
      "channel": 1,
      "note": 47,
      "start": 33.6902,
      "duration": 0.549,
      "velocity": 64,
      "chip": "ym2612"
    },
    {
      "channel": 2,
      "note": 59,
      "start": 33.6909,
      "duration": 0.065,
      "velocity": 101,
      "chip": "ym2612"
    },
    {
      "channel": 0,
      "note": 59,
      "start": 33.706,
      "duration": 0.0827,
      "velocity": 101,
      "chip": "ym2612"
    },
    {
      "channel": 3,
      "note": 47,
      "start": 33.7073,
      "duration": 0.0822,
      "velocity": 101,
      "chip": "ym2612"
    },
    {
      "channel": 4,
      "note": 47,
      "start": 33.708,
      "duration": 0.0819,
      "velocity": 101,
      "chip": "ym2612"
    },
    {
      "channel": 2,
      "note": 59,
      "start": 33.823,
      "duration": 0.0829,
      "velocity": 101,
      "chip": "ym2612"
    },
    {
      "channel": 0,
      "note": 59,
      "start": 33.856,
      "duration": 0.0661,
      "velocity": 101,
      "chip": "ym2612"
    },
    {
      "channel": 3,
      "note": 47,
      "start": 33.8573,
      "duration": 0.0656,
      "velocity": 101,
      "chip": "ym2612"
    },
    {
      "channel": 4,
      "note": 47,
      "start": 33.858,
      "duration": 0.0653,
      "velocity": 101,
      "chip": "ym2612"
    },
    {
      "channel": 2,
      "note": 59,
      "start": 33.9732,
      "duration": 0.0661,
      "velocity": 101,
      "chip": "ym2612"
    },
    {
      "channel": 0,
      "note": 59,
      "start": 33.9893,
      "duration": 0.0661,
      "velocity": 101,
      "chip": "ym2612"
    },
    {
      "channel": 3,
      "note": 47,
      "start": 33.9906,
      "duration": 0.0656,
      "velocity": 101,
      "chip": "ym2612"
    },
    {
      "channel": 4,
      "note": 47,
      "start": 33.9913,
      "duration": 0.0654,
      "velocity": 101,
      "chip": "ym2612"
    },
    {
      "channel": 2,
      "note": 59,
      "start": 34.1066,
      "duration": 0.0661,
      "velocity": 101,
      "chip": "ym2612"
    },
    {
      "channel": 0,
      "note": 59,
      "start": 34.1393,
      "duration": 0.0661,
      "velocity": 101,
      "chip": "ym2612"
    },
    {
      "channel": 3,
      "note": 47,
      "start": 34.1407,
      "duration": 0.0655,
      "velocity": 101,
      "chip": "ym2612"
    },
    {
      "channel": 4,
      "note": 47,
      "start": 34.1414,
      "duration": 0.0653,
      "velocity": 101,
      "chip": "ym2612"
    },
    {
      "channel": 1,
      "note": 50,
      "start": 34.2398,
      "duration": 0.5662,
      "velocity": 64,
      "chip": "ym2612"
    },
    {
      "channel": 2,
      "note": 62,
      "start": 34.2409,
      "duration": 0.5658,
      "velocity": 101,
      "chip": "ym2612"
    },
    {
      "channel": 0,
      "note": 62,
      "start": 34.273,
      "duration": 0.549,
      "velocity": 101,
      "chip": "ym2612"
    },
    {
      "channel": 3,
      "note": 50,
      "start": 34.2746,
      "duration": 0.5487,
      "velocity": 101,
      "chip": "ym2612"
    },
    {
      "channel": 4,
      "note": 50,
      "start": 34.2757,
      "duration": 0.5483,
      "velocity": 101,
      "chip": "ym2612"
    },
    {
      "channel": 1,
      "note": 47,
      "start": 34.8065,
      "duration": 0.2829,
      "velocity": 64,
      "chip": "ym2612"
    },
    {
      "channel": 2,
      "note": 59,
      "start": 34.8072,
      "duration": 0.0654,
      "velocity": 101,
      "chip": "ym2612"
    },
    {
      "channel": 0,
      "note": 59,
      "start": 34.8227,
      "duration": 0.0661,
      "velocity": 101,
      "chip": "ym2612"
    },
    {
      "channel": 3,
      "note": 47,
      "start": 34.8239,
      "duration": 0.0656,
      "velocity": 101,
      "chip": "ym2612"
    },
    {
      "channel": 4,
      "note": 47,
      "start": 34.8246,
      "duration": 0.0653,
      "velocity": 101,
      "chip": "ym2612"
    },
    {
      "channel": 2,
      "note": 59,
      "start": 34.9399,
      "duration": 0.066,
      "velocity": 101,
      "chip": "ym2612"
    },
    {
      "channel": 0,
      "note": 59,
      "start": 34.9727,
      "duration": 0.0661,
      "velocity": 101,
      "chip": "ym2612"
    },
    {
      "channel": 3,
      "note": 47,
      "start": 34.9739,
      "duration": 0.0656,
      "velocity": 101,
      "chip": "ym2612"
    },
    {
      "channel": 4,
      "note": 47,
      "start": 34.9746,
      "duration": 0.0653,
      "velocity": 101,
      "chip": "ym2612"
    },
    {
      "channel": 1,
      "note": 52,
      "start": 35.09,
      "duration": 0.2655,
      "velocity": 64,
      "chip": "ym2612"
    },
    {
      "channel": 2,
      "note": 64,
      "start": 35.0907,
      "duration": 0.1321,
      "velocity": 101,
      "chip": "ym2612"
    },
    {
      "channel": 0,
      "note": 64,
      "start": 35.106,
      "duration": 0.1328,
      "velocity": 101,
      "chip": "ym2612"
    },
    {
      "channel": 3,
      "note": 52,
      "start": 35.1072,
      "duration": 0.1323,
      "velocity": 101,
      "chip": "ym2612"
    },
    {
      "channel": 4,
      "note": 52,
      "start": 35.1079,
      "duration": 0.1321,
      "velocity": 101,
      "chip": "ym2612"
    },
    {
      "channel": 1,
      "note": 47,
      "start": 35.3561,
      "duration": 0.1496,
      "velocity": 64,
      "chip": "ym2612"
    },
    {
      "channel": 2,
      "note": 90,
      "start": 35.3571,
      "duration": 0.2832,
      "velocity": 101,
      "chip": "ym2612"
    },
    {
      "channel": 0,
      "note": 90,
      "start": 35.3897,
      "duration": 0.2661,
      "velocity": 101,
      "chip": "ym2612"
    },
    {
      "channel": 3,
      "note": 78,
      "start": 35.3914,
      "duration": 0.2659,
      "velocity": 101,
      "chip": "ym2612"
    },
    {
      "channel": 4,
      "note": 78,
      "start": 35.3924,
      "duration": 0.2659,
      "velocity": 101,
      "chip": "ym2612"
    },
    {
      "channel": 1,
      "note": 54,
      "start": 35.5063,
      "duration": 0.1333,
      "velocity": 64,
      "chip": "ym2612"
    },
    {
      "channel": 2,
      "note": 98,
      "start": 35.6409,
      "duration": 1.1197,
      "velocity": 101,
      "chip": "ym2612"
    },
    {
      "channel": 0,
      "note": 98,
      "start": 35.6564,
      "duration": 1.1167,
      "velocity": 101,
      "chip": "ym2612"
    },
    {
      "channel": 3,
      "note": 86,
      "start": 35.6578,
      "duration": 1.1175,
      "velocity": 101,
      "chip": "ym2612"
    },
    {
      "channel": 4,
      "note": 86,
      "start": 35.659,
      "duration": 1.1181,
      "velocity": 101,
      "chip": "ym2612"
    },
    {
      "channel": 1,
      "note": 47,
      "start": 35.7729,
      "duration": 0.1502,
      "velocity": 64,
      "chip": "ym2612"
    },
    {
      "channel": 1,
      "note": 50,
      "start": 35.9236,
      "duration": 0.2658,
      "velocity": 64,
      "chip": "ym2612"
    },
    {
      "channel": 1,
      "note": 52,
      "start": 36.19,
      "duration": 0.2827,
      "velocity": 64,
      "chip": "ym2612"
    },
    {
      "channel": 1,
      "note": 47,
      "start": 36.4732,
      "duration": 0.2857,
      "velocity": 64,
      "chip": "ym2612"
    },
    {
      "channel": 1,
      "note": 47,
      "start": 36.7595,
      "duration": 0.5466,
      "velocity": 64,
      "chip": "ym2612"
    },
    {
      "channel": 2,
      "note": 61,
      "start": 36.7612,
      "duration": 0.0618,
      "velocity": 101,
      "chip": "ym2612"
    },
    {
      "channel": 0,
      "note": 61,
      "start": 36.7736,
      "duration": 0.0651,
      "velocity": 101,
      "chip": "ym2612"
    },
    {
      "channel": 3,
      "note": 49,
      "start": 36.7759,
      "duration": 0.0636,
      "velocity": 101,
      "chip": "ym2612"
    },
    {
      "channel": 4,
      "note": 49,
      "start": 36.7776,
      "duration": 0.0623,
      "velocity": 101,
      "chip": "ym2612"
    },
    {
      "channel": 2,
      "note": 61,
      "start": 36.89,
      "duration": 0.0659,
      "velocity": 101,
      "chip": "ym2612"
    },
    {
      "channel": 0,
      "note": 61,
      "start": 36.9064,
      "duration": 0.0824,
      "velocity": 101,
      "chip": "ym2612"
    },
    {
      "channel": 3,
      "note": 49,
      "start": 36.908,
      "duration": 0.0815,
      "velocity": 101,
      "chip": "ym2612"
    },
    {
      "channel": 4,
      "note": 49,
      "start": 36.909,
      "duration": 0.0809,
      "velocity": 101,
      "chip": "ym2612"
    },
    {
      "channel": 2,
      "note": 61,
      "start": 37.0231,
      "duration": 0.0829,
      "velocity": 101,
      "chip": "ym2612"
    },
    {
      "channel": 0,
      "note": 61,
      "start": 37.056,
      "duration": 0.0661,
      "velocity": 101,
      "chip": "ym2612"
    },
    {
      "channel": 3,
      "note": 49,
      "start": 37.0573,
      "duration": 0.0656,
      "velocity": 101,
      "chip": "ym2612"
    },
    {
      "channel": 4,
      "note": 49,
      "start": 37.058,
      "duration": 0.0654,
      "velocity": 101,
      "chip": "ym2612"
    },
    {
      "channel": 2,
      "note": 61,
      "start": 37.1734,
      "duration": 0.066,
      "velocity": 101,
      "chip": "ym2612"
    },
    {
      "channel": 0,
      "note": 61,
      "start": 37.1894,
      "duration": 0.066,
      "velocity": 101,
      "chip": "ym2612"
    },
    {
      "channel": 3,
      "note": 49,
      "start": 37.1907,
      "duration": 0.0655,
      "velocity": 101,
      "chip": "ym2612"
    },
    {
      "channel": 4,
      "note": 49,
      "start": 37.1914,
      "duration": 0.0653,
      "velocity": 101,
      "chip": "ym2612"
    },
    {
      "channel": 1,
      "note": 52,
      "start": 37.3066,
      "duration": 0.0178,
      "velocity": 64,
      "chip": "ym2612"
    },
    {
      "channel": 2,
      "note": 64,
      "start": 37.3077,
      "duration": 0.0167,
      "velocity": 101,
      "chip": "ym2612"
    }
  ]
}