{
  "track_name": "14 - Suspect 2",
  "duration_sec": 158.954,
  "sample_rate": 44100,
  "note_count": 401,
  "unique_pitches": 16,
  "pitch_range": 17,
  "avg_note_duration": 2.3704,
  "reconstruction_stats": {
    "notes_reconstructed": 401,
    "keyon_events": 401,
    "keyoff_events": 396,
    "orphan_keyons": 5,
    "unique_pitches": 16,
    "pitch_range": 17,
    "avg_duration_sec": 2.3704
  },
  "metadata": {
    "source": "D\\Desire\\14 - Suspect 2.vgz"
  },
  "notes": [
    {
      "channel": 1,
      "note": 53,
      "start": 0.0016,
      "duration": 0.6472,
      "velocity": 97,
      "chip": "ym2612"
    },
    {
      "channel": 2,
      "note": 53,
      "start": 0.2417,
      "duration": 0.6515,
      "velocity": 97,
      "chip": "ym2612"
    },
    {
      "channel": 0,
      "note": 56,
      "start": 0.6487,
      "duration": 1.9543,
      "velocity": 117,
      "chip": "ym2612"
    },
    {
      "channel": 1,
      "note": 52,
      "start": 0.6489,
      "duration": 0.9771,
      "velocity": 97,
      "chip": "ym2612"
    },
    {
      "channel": 3,
      "note": 56,
      "start": 0.6493,
      "duration": 1.9543,
      "velocity": 100,
      "chip": "ym2612"
    },
    {
      "channel": 5,
      "note": 56,
      "start": 0.6496,
      "duration": 1.9544,
      "velocity": 100,
      "chip": "ym2612"
    },
    {
      "channel": 2,
      "note": 52,
      "start": 0.8932,
      "duration": 0.9771,
      "velocity": 97,
      "chip": "ym2612"
    },
    {
      "channel": 4,
      "note": 56,
      "start": 0.975,
      "duration": 1.9542,
      "velocity": 100,
      "chip": "ym2612"
    },
    {
      "channel": 1,
      "note": 48,
      "start": 1.6261,
      "duration": 0.3256,
      "velocity": 97,
      "chip": "ym2612"
    },
    {
      "channel": 2,
      "note": 48,
      "start": 1.8704,
      "duration": 0.3257,
      "velocity": 97,
      "chip": "ym2612"
    },
    {
      "channel": 1,
      "note": 51,
      "start": 1.9517,
      "duration": 0.6515,
      "velocity": 97,
      "chip": "ym2612"
    },
    {
      "channel": 2,
      "note": 51,
      "start": 2.1962,
      "duration": 0.6516,
      "velocity": 97,
      "chip": "ym2612"
    },
    {
      "channel": 0,
      "note": 55,
      "start": 2.603,
      "duration": 5.2116,
      "velocity": 117,
      "chip": "ym2612"
    },
    {
      "channel": 1,
      "note": 50,
      "start": 2.6033,
      "duration": 4.56,
      "velocity": 97,
      "chip": "ym2612"
    },
    {
      "channel": 3,
      "note": 55,
      "start": 2.6037,
      "duration": 5.2115,
      "velocity": 100,
      "chip": "ym2612"
    },
    {
      "channel": 5,
      "note": 55,
      "start": 2.6041,
      "duration": 5.2118,
      "velocity": 100,
      "chip": "ym2612"
    },
    {
      "channel": 2,
      "note": 50,
      "start": 2.8479,
      "duration": 4.5598,
      "velocity": 97,
      "chip": "ym2612"
    },
    {
      "channel": 4,
      "note": 55,
      "start": 2.9294,
      "duration": 5.2116,
      "velocity": 100,
      "chip": "ym2612"
    },
    {
      "channel": 1,
      "note": 51,
      "start": 7.1634,
      "duration": 0.6515,
      "velocity": 97,
      "chip": "ym2612"
    },
    {
      "channel": 2,
      "note": 51,
      "start": 7.4078,
      "duration": 0.6514,
      "velocity": 97,
      "chip": "ym2612"
    },
    {
      "channel": 0,
      "note": 54,
      "start": 7.8146,
      "duration": 1.9543,
      "velocity": 117,
      "chip": "ym2612"
    },
    {
      "channel": 1,
      "note": 50,
      "start": 7.8149,
      "duration": 0.9771,
      "velocity": 97,
      "chip": "ym2612"
    },
    {
      "channel": 3,
      "note": 54,
      "start": 7.8153,
      "duration": 1.9543,
      "velocity": 100,
      "chip": "ym2612"
    },
    {
      "channel": 5,
      "note": 54,
      "start": 7.816,
      "duration": 1.9541,
      "velocity": 100,
      "chip": "ym2612"
    },
    {
      "channel": 2,
      "note": 50,
      "start": 8.0593,
      "duration": 0.9771,
      "velocity": 97,
      "chip": "ym2612"
    },
    {
      "channel": 4,
      "note": 54,
      "start": 8.141,
      "duration": 1.9543,
      "velocity": 100,
      "chip": "ym2612"
    },
    {
      "channel": 1,
      "note": 46,
      "start": 8.7921,
      "duration": 0.3256,
      "velocity": 97,
      "chip": "ym2612"
    },
    {
      "channel": 2,
      "note": 46,
      "start": 9.0364,
      "duration": 0.3257,
      "velocity": 97,
      "chip": "ym2612"
    },
    {
      "channel": 1,
      "note": 49,
      "start": 9.1177,
      "duration": 0.6515,
      "velocity": 97,
      "chip": "ym2612"
    },
    {
      "channel": 2,
      "note": 49,
      "start": 9.3622,
      "duration": 0.6514,
      "velocity": 97,
      "chip": "ym2612"
    },
    {
      "channel": 0,
      "note": 53,
      "start": 9.769,
      "duration": 5.2116,
      "velocity": 117,
      "chip": "ym2612"
    },
    {
      "channel": 1,
      "note": 48,
      "start": 9.7693,
      "duration": 4.56,
      "velocity": 97,
      "chip": "ym2612"
    },
    {
      "channel": 3,
      "note": 53,
      "start": 9.7697,
      "duration": 5.2116,
      "velocity": 100,
      "chip": "ym2612"
    },
    {
      "channel": 5,
      "note": 53,
      "start": 9.7701,
      "duration": 5.2115,
      "velocity": 100,
      "chip": "ym2612"
    },
    {
      "channel": 2,
      "note": 48,
      "start": 10.0136,
      "duration": 4.5601,
      "velocity": 97,
      "chip": "ym2612"
    },
    {
      "channel": 4,
      "note": 53,
      "start": 10.0954,
      "duration": 5.2116,
      "velocity": 100,
      "chip": "ym2612"
    },
    {
      "channel": 1,
      "note": 47,
      "start": 14.3294,
      "duration": 0.6515,
      "velocity": 97,
      "chip": "ym2612"
    },
    {
      "channel": 2,
      "note": 47,
      "start": 14.5738,
      "duration": 0.6514,
      "velocity": 97,
      "chip": "ym2612"
    },
    {
      "channel": 0,
      "note": 49,
      "start": 14.9807,
      "duration": 2.6057,
      "velocity": 117,
      "chip": "ym2612"
    },
    {
      "channel": 1,
      "note": 48,
      "start": 14.9809,
      "duration": 0.6513,
      "velocity": 97,
      "chip": "ym2612"
    },
    {
      "channel": 3,
      "note": 49,
      "start": 14.9814,
      "duration": 2.6058,
      "velocity": 100,
      "chip": "ym2612"
    },
    {
      "channel": 5,
      "note": 49,
      "start": 14.9818,
      "duration": 2.6058,
      "velocity": 100,
      "chip": "ym2612"
    },
    {
      "channel": 2,
      "note": 48,
      "start": 15.2253,
      "duration": 0.6514,
      "velocity": 97,
      "chip": "ym2612"
    },
    {
      "channel": 4,
      "note": 49,
      "start": 15.307,
      "duration": 2.6057,
      "velocity": 100,
      "chip": "ym2612"
    },
    {
      "channel": 1,
      "note": 53,
      "start": 15.6323,
      "duration": 0.6514,
      "velocity": 97,
      "chip": "ym2612"
    },
    {
      "channel": 2,
      "note": 53,
      "start": 15.8767,
      "duration": 0.6514,
      "velocity": 97,
      "chip": "ym2612"
    },
    {
      "channel": 1,
      "note": 52,
      "start": 16.2837,
      "duration": 0.6514,
      "velocity": 97,
      "chip": "ym2612"
    },
    {
      "channel": 2,
      "note": 52,
      "start": 16.5282,
      "duration": 0.6514,
      "velocity": 97,
      "chip": "ym2612"
    },
    {
      "channel": 1,
      "note": 55,
      "start": 16.9352,
      "duration": 0.6515,
      "velocity": 97,
      "chip": "ym2612"
    },
    {
      "channel": 2,
      "note": 55,
      "start": 17.1797,
      "duration": 0.6514,
      "velocity": 97,
      "chip": "ym2612"
    },
    {
      "channel": 0,
      "note": 50,
      "start": 17.5865,
      "duration": 1.9543,
      "velocity": 117,
      "chip": "ym2612"
    },
    {
      "channel": 1,
      "note": 54,
      "start": 17.5868,
      "duration": 0.6516,
      "velocity": 97,
      "chip": "ym2612"
    },
    {
      "channel": 3,
      "note": 50,
      "start": 17.5872,
      "duration": 1.9541,
      "velocity": 100,
      "chip": "ym2612"
    },
    {
      "channel": 5,
      "note": 50,
      "start": 17.5876,
      "duration": 1.9541,
      "velocity": 100,
      "chip": "ym2612"
    },
    {
      "channel": 2,
      "note": 54,
      "start": 17.8311,
      "duration": 0.6514,
      "velocity": 97,
      "chip": "ym2612"
    },
    {
      "channel": 4,
      "note": 50,
      "start": 17.9129,
      "duration": 1.9543,
      "velocity": 100,
      "chip": "ym2612"
    },
    {
      "channel": 1,
      "note": 59,
      "start": 18.2385,
      "duration": 0.651,
      "velocity": 97,
      "chip": "ym2612"
    },
    {
      "channel": 2,
      "note": 59,
      "start": 18.4826,
      "duration": 0.6514,
      "velocity": 97,
      "chip": "ym2612"
    },
    {
      "channel": 1,
      "note": 58,
      "start": 18.8896,
      "duration": 5.2116,
      "velocity": 97,
      "chip": "ym2612"
    },
    {
      "channel": 2,
      "note": 58,
      "start": 19.134,
      "duration": 5.2118,
      "velocity": 97,
      "chip": "ym2612"
    },
    {
      "channel": 0,
      "note": 51,
      "start": 19.5409,
      "duration": 9.7718,
      "velocity": 117,
      "chip": "ym2612"
    },
    {
      "channel": 3,
      "note": 51,
      "start": 19.5414,
      "duration": 9.7719,
      "velocity": 100,
      "chip": "ym2612"
    },
    {
      "channel": 5,
      "note": 51,
      "start": 19.5418,
      "duration": 9.7719,
      "velocity": 100,
      "chip": "ym2612"
    },
    {
      "channel": 4,
      "note": 51,
      "start": 19.8672,
      "duration": 9.7718,
      "velocity": 100,
      "chip": "ym2612"
    },
    {
      "channel": 1,
      "note": 59,
      "start": 24.1012,
      "duration": 4.5601,
      "velocity": 97,
      "chip": "ym2612"
    },
    {
      "channel": 2,
      "note": 59,
      "start": 24.3459,
      "duration": 4.5604,
      "velocity": 97,
      "chip": "ym2612"
    },
    {
      "channel": 1,
      "note": 53,
      "start": 28.6614,
      "duration": 0.6515,
      "velocity": 97,
      "chip": "ym2612"
    },
    {
      "channel": 2,
      "note": 53,
      "start": 28.9064,
      "duration": 0.6509,
      "velocity": 97,
      "chip": "ym2612"
    },
    {
      "channel": 0,
      "note": 56,
      "start": 29.3127,
      "duration": 1.9543,
      "velocity": 117,
      "chip": "ym2612"
    },
    {
      "channel": 1,
      "note": 52,
      "start": 29.313,
      "duration": 0.977,
      "velocity": 97,
      "chip": "ym2612"
    },
    {
      "channel": 3,
      "note": 56,
      "start": 29.3134,
      "duration": 1.9543,
      "velocity": 100,
      "chip": "ym2612"
    },
    {
      "channel": 5,
      "note": 56,
      "start": 29.3138,
      "duration": 1.9543,
      "velocity": 100,
      "chip": "ym2612"
    },
    {
      "channel": 2,
      "note": 52,
      "start": 29.5573,
      "duration": 0.9771,
      "velocity": 97,
      "chip": "ym2612"
    },
    {
      "channel": 4,
      "note": 56,
      "start": 29.6391,
      "duration": 1.9543,
      "velocity": 100,
      "chip": "ym2612"
    },
    {
      "channel": 1,
      "note": 48,
      "start": 30.29,
      "duration": 0.3259,
      "velocity": 97,
      "chip": "ym2612"
    },
    {
      "channel": 2,
      "note": 48,
      "start": 30.5345,
      "duration": 0.3257,
      "velocity": 97,
      "chip": "ym2612"
    },
    {
      "channel": 1,
      "note": 51,
      "start": 30.616,
      "duration": 0.6512,
      "velocity": 97,
      "chip": "ym2612"
    },
    {
      "channel": 2,
      "note": 51,
      "start": 30.8602,
      "duration": 0.6514,
      "velocity": 97,
      "chip": "ym2612"
    },
    {
      "channel": 0,
      "note": 55,
      "start": 31.2671,
      "duration": 5.2116,
      "velocity": 117,
      "chip": "ym2612"
    },
    {
      "channel": 1,
      "note": 50,
      "start": 31.2673,
      "duration": 4.56,
      "velocity": 97,
      "chip": "ym2612"
    },
    {
      "channel": 3,
      "note": 55,
      "start": 31.2677,
      "duration": 5.2116,
      "velocity": 100,
      "chip": "ym2612"
    },
    {
      "channel": 5,
      "note": 55,
      "start": 31.2682,
      "duration": 5.2116,
      "velocity": 100,
      "chip": "ym2612"
    },
    {
      "channel": 2,
      "note": 50,
      "start": 31.5117,
      "duration": 4.5601,
      "velocity": 97,
      "chip": "ym2612"
    },
    {
      "channel": 4,
      "note": 55,
      "start": 31.5934,
      "duration": 5.2116,
      "velocity": 100,
      "chip": "ym2612"
    },
    {
      "channel": 1,
      "note": 51,
      "start": 35.8274,
      "duration": 0.6515,
      "velocity": 97,
      "chip": "ym2612"
    },
    {
      "channel": 2,
      "note": 51,
      "start": 36.0719,
      "duration": 0.6514,
      "velocity": 97,
      "chip": "ym2612"
    },
    {
      "channel": 0,
      "note": 54,
      "start": 36.4787,
      "duration": 1.9543,
      "velocity": 117,
      "chip": "ym2612"
    },
    {
      "channel": 1,
      "note": 50,
      "start": 36.479,
      "duration": 0.977,
      "velocity": 97,
      "chip": "ym2612"
    },
    {
      "channel": 3,
      "note": 54,
      "start": 36.4794,
      "duration": 1.9543,
      "velocity": 100,
      "chip": "ym2612"
    },
    {
      "channel": 5,
      "note": 54,
      "start": 36.4798,
      "duration": 1.9543,
      "velocity": 100,
      "chip": "ym2612"
    },
    {
      "channel": 2,
      "note": 50,
      "start": 36.7233,
      "duration": 0.9771,
      "velocity": 97,
      "chip": "ym2612"
    },
    {
      "channel": 4,
      "note": 54,
      "start": 36.8051,
      "duration": 1.9543,
      "velocity": 100,
      "chip": "ym2612"
    },
    {
      "channel": 1,
      "note": 46,
      "start": 37.4561,
      "duration": 0.3257,
      "velocity": 97,
      "chip": "ym2612"
    },
    {
      "channel": 2,
      "note": 46,
      "start": 37.7005,
      "duration": 0.3256,
      "velocity": 97,
      "chip": "ym2612"
    },
    {
      "channel": 1,
      "note": 49,
      "start": 37.7818,
      "duration": 0.6515,
      "velocity": 97,
      "chip": "ym2612"
    },
    {
      "channel": 2,
      "note": 49,
      "start": 38.0262,
      "duration": 0.6514,
      "velocity": 97,
      "chip": "ym2612"
    },
    {
      "channel": 0,
      "note": 53,
      "start": 38.4331,
      "duration": 5.2116,
      "velocity": 117,
      "chip": "ym2612"
    },
    {
      "channel": 1,
      "note": 48,
      "start": 38.4334,
      "duration": 4.56,
      "velocity": 97,
      "chip": "ym2612"
    },
    {
      "channel": 3,
      "note": 53,
      "start": 38.4338,
      "duration": 5.2116,
      "velocity": 100,
      "chip": "ym2612"
    },
    {
      "channel": 5,
      "note": 53,
      "start": 38.4342,
      "duration": 5.2118,
      "velocity": 100,
      "chip": "ym2612"
    },
    {
      "channel": 2,
      "note": 48,
      "start": 38.6777,
      "duration": 4.5601,
      "velocity": 97,
      "chip": "ym2612"
    },
    {
      "channel": 4,
      "note": 53,
      "start": 38.7594,
      "duration": 5.2116,
      "velocity": 100,
      "chip": "ym2612"
    },
    {
      "channel": 1,
      "note": 47,
      "start": 42.9934,
      "duration": 0.6515,
      "velocity": 97,
      "chip": "ym2612"
    },
    {
      "channel": 2,
      "note": 47,
      "start": 43.2379,
      "duration": 0.6514,
      "velocity": 97,
      "chip": "ym2612"
    },
    {
      "channel": 0,
      "note": 49,
      "start": 43.6447,
      "duration": 2.6057,
      "velocity": 117,
      "chip": "ym2612"
    },
    {
      "channel": 1,
      "note": 48,
      "start": 43.645,
      "duration": 0.6516,
      "velocity": 97,
      "chip": "ym2612"
    },
    {
      "channel": 3,
      "note": 49,
      "start": 43.6454,
      "duration": 2.6057,
      "velocity": 100,
      "chip": "ym2612"
    },
    {
      "channel": 5,
      "note": 49,
      "start": 43.6461,
      "duration": 2.6055,
      "velocity": 100,
      "chip": "ym2612"
    },
    {
      "channel": 2,
      "note": 48,
      "start": 43.8893,
      "duration": 0.6514,
      "velocity": 97,
      "chip": "ym2612"
    },
    {
      "channel": 4,
      "note": 49,
      "start": 43.9711,
      "duration": 2.6057,
      "velocity": 100,
      "chip": "ym2612"
    },
    {
      "channel": 1,
      "note": 53,
      "start": 44.2967,
      "duration": 0.651,
      "velocity": 97,
      "chip": "ym2612"
    },
    {
      "channel": 2,
      "note": 53,
      "start": 44.5408,
      "duration": 0.6514,
      "velocity": 97,
      "chip": "ym2612"
    },
    {
      "channel": 1,
      "note": 52,
      "start": 44.9478,
      "duration": 0.6514,
      "velocity": 97,
      "chip": "ym2612"
    },
    {
      "channel": 2,
      "note": 52,
      "start": 45.1923,
      "duration": 0.6514,
      "velocity": 97,
      "chip": "ym2612"
    },
    {
      "channel": 1,
      "note": 55,
      "start": 45.5993,
      "duration": 0.6515,
      "velocity": 97,
      "chip": "ym2612"
    },
    {
      "channel": 2,
      "note": 55,
      "start": 45.8437,
      "duration": 0.6514,
      "velocity": 97,
      "chip": "ym2612"
    },
    {
      "channel": 0,
      "note": 50,
      "start": 46.2506,
      "duration": 2.6057,
      "velocity": 117,
      "chip": "ym2612"
    },
    {
      "channel": 1,
      "note": 54,
      "start": 46.2508,
      "duration": 0.6513,
      "velocity": 97,
      "chip": "ym2612"
    },
    {
      "channel": 3,
      "note": 50,
      "start": 46.2512,
      "duration": 2.6056,
      "velocity": 100,
      "chip": "ym2612"
    },
    {
      "channel": 5,
      "note": 50,
      "start": 46.2516,
      "duration": 2.6056,
      "velocity": 100,
      "chip": "ym2612"
    },
    {
      "channel": 2,
      "note": 54,
      "start": 46.4952,
      "duration": 0.6514,
      "velocity": 97,
      "chip": "ym2612"
    },
    {
      "channel": 4,
      "note": 50,
      "start": 46.5769,
      "duration": 2.6057,
      "velocity": 100,
      "chip": "ym2612"
    },
    {
      "channel": 1,
      "note": 52,
      "start": 46.9022,
      "duration": 0.6514,
      "velocity": 97,
      "chip": "ym2612"
    },
    {
      "channel": 2,
      "note": 52,
      "start": 47.1466,
      "duration": 0.6514,
      "velocity": 97,
      "chip": "ym2612"
    },
    {
      "channel": 1,
      "note": 53,
      "start": 47.5536,
      "duration": 0.6514,
      "velocity": 97,
      "chip": "ym2612"
    },
    {
      "channel": 2,
      "note": 53,
      "start": 47.7981,
      "duration": 0.6514,
      "velocity": 97,
      "chip": "ym2612"
    },
    {
      "channel": 1,
      "note": 54,
      "start": 48.2051,
      "duration": 4.5601,
      "velocity": 97,
      "chip": "ym2612"
    },
    {
      "channel": 2,
      "note": 54,
      "start": 48.4495,
      "duration": 4.5601,
      "velocity": 97,
      "chip": "ym2612"
    },
    {
      "channel": 0,
      "note": 51,
      "start": 48.8564,
      "duration": 4.5601,
      "velocity": 117,
      "chip": "ym2612"
    },
    {
      "channel": 3,
      "note": 51,
      "start": 48.857,
      "duration": 4.5602,
      "velocity": 100,
      "chip": "ym2612"
    },
    {
      "channel": 5,
      "note": 51,
      "start": 48.8574,
      "duration": 4.5603,
      "velocity": 100,
      "chip": "ym2612"
    },
    {
      "channel": 4,
      "note": 51,
      "start": 49.1827,
      "duration": 4.5601,
      "velocity": 100,
      "chip": "ym2612"
    },
    {
      "channel": 1,
      "note": 53,
      "start": 52.7653,
      "duration": 0.6515,
      "velocity": 97,
      "chip": "ym2612"
    },
    {
      "channel": 2,
      "note": 53,
      "start": 53.0098,
      "duration": 0.6514,
      "velocity": 97,
      "chip": "ym2612"
    },
    {
      "channel": 0,
      "note": 56,
      "start": 53.4166,
      "duration": 1.9543,
      "velocity": 117,
      "chip": "ym2612"
    },
    {
      "channel": 1,
      "note": 52,
      "start": 53.4168,
      "duration": 0.977,
      "velocity": 97,
      "chip": "ym2612"
    },
    {
      "channel": 3,
      "note": 56,
      "start": 53.4174,
      "duration": 1.9542,
      "velocity": 100,
      "chip": "ym2612"
    },
    {
      "channel": 5,
      "note": 56,
      "start": 53.4178,
      "duration": 1.9542,
      "velocity": 100,
      "chip": "ym2612"
    },
    {
      "channel": 2,
      "note": 52,
      "start": 53.6612,
      "duration": 0.9771,
      "velocity": 97,
      "chip": "ym2612"
    },
    {
      "channel": 4,
      "note": 56,
      "start": 53.743,
      "duration": 1.9542,
      "velocity": 100,
      "chip": "ym2612"
    },
    {
      "channel": 1,
      "note": 48,
      "start": 54.3939,
      "duration": 0.3256,
      "velocity": 97,
      "chip": "ym2612"
    },
    {
      "channel": 2,
      "note": 48,
      "start": 54.6384,
      "duration": 0.3259,
      "velocity": 97,
      "chip": "ym2612"
    },
    {
      "channel": 1,
      "note": 51,
      "start": 54.7196,
      "duration": 0.6515,
      "velocity": 97,
      "chip": "ym2612"
    },
    {
      "channel": 2,
      "note": 51,
      "start": 54.9644,
      "duration": 0.6511,
      "velocity": 97,
      "chip": "ym2612"
    },
    {
      "channel": 0,
      "note": 55,
      "start": 55.371,
      "duration": 5.2116,
      "velocity": 117,
      "chip": "ym2612"
    },
    {
      "channel": 1,
      "note": 50,
      "start": 55.3712,
      "duration": 4.56,
      "velocity": 97,
      "chip": "ym2612"
    },
    {
      "channel": 3,
      "note": 55,
      "start": 55.3716,
      "duration": 5.2116,
      "velocity": 100,
      "chip": "ym2612"
    },
    {
      "channel": 5,
      "note": 55,
      "start": 55.372,
      "duration": 5.2116,
      "velocity": 100,
      "chip": "ym2612"
    },
    {
      "channel": 2,
      "note": 50,
      "start": 55.6158,
      "duration": 4.5601,
      "velocity": 97,
      "chip": "ym2612"
    },
    {
      "channel": 4,
      "note": 55,
      "start": 55.6973,
      "duration": 5.2116,
      "velocity": 100,
      "chip": "ym2612"
    },
    {
      "channel": 1,
      "note": 51,
      "start": 59.9313,
      "duration": 0.6515,
      "velocity": 97,
      "chip": "ym2612"
    },
    {
      "channel": 2,
      "note": 51,
      "start": 60.176,
      "duration": 0.6511,
      "velocity": 97,
      "chip": "ym2612"
    },
    {
      "channel": 0,
      "note": 54,
      "start": 60.5826,
      "duration": 1.9543,
      "velocity": 117,
      "chip": "ym2612"
    },
    {
      "channel": 1,
      "note": 50,
      "start": 60.5829,
      "duration": 0.977,
      "velocity": 97,
      "chip": "ym2612"
    },
    {
      "channel": 3,
      "note": 54,
      "start": 60.5833,
      "duration": 1.9543,
      "velocity": 100,
      "chip": "ym2612"
    },
    {
      "channel": 5,
      "note": 54,
      "start": 60.5837,
      "duration": 1.9543,
      "velocity": 100,
      "chip": "ym2612"
    },
    {
      "channel": 2,
      "note": 50,
      "start": 60.8272,
      "duration": 0.9771,
      "velocity": 97,
      "chip": "ym2612"
    },
    {
      "channel": 4,
      "note": 54,
      "start": 60.909,
      "duration": 1.9542,
      "velocity": 100,
      "chip": "ym2612"
    },
    {
      "channel": 1,
      "note": 46,
      "start": 61.5599,
      "duration": 0.3259,
      "velocity": 97,
      "chip": "ym2612"
    },
    {
      "channel": 2,
      "note": 46,
      "start": 61.8044,
      "duration": 0.3256,
      "velocity": 97,
      "chip": "ym2612"
    },
    {
      "channel": 1,
      "note": 49,
      "start": 61.8859,
      "duration": 0.6512,
      "velocity": 97,
      "chip": "ym2612"
    },
    {
      "channel": 2,
      "note": 49,
      "start": 62.1301,
      "duration": 0.6514,
      "velocity": 97,
      "chip": "ym2612"
    },
    {
      "channel": 0,
      "note": 53,
      "start": 62.537,
      "duration": 5.2116,
      "velocity": 117,
      "chip": "ym2612"
    },
    {
      "channel": 1,
      "note": 48,
      "start": 62.5372,
      "duration": 4.56,
      "velocity": 97,
      "chip": "ym2612"
    },
    {
      "channel": 3,
      "note": 53,
      "start": 62.5376,
      "duration": 5.2116,
      "velocity": 100,
      "chip": "ym2612"
    },
    {
      "channel": 5,
      "note": 53,
      "start": 62.538,
      "duration": 5.2116,
      "velocity": 100,
      "chip": "ym2612"
    },
    {
      "channel": 2,
      "note": 48,
      "start": 62.7816,
      "duration": 4.5601,
      "velocity": 97,
      "chip": "ym2612"
    },
    {
      "channel": 4,
      "note": 53,
      "start": 62.8633,
      "duration": 5.2116,
      "velocity": 100,
      "chip": "ym2612"
    },
    {
      "channel": 1,
      "note": 47,
      "start": 67.0973,
      "duration": 0.6515,
      "velocity": 97,
      "chip": "ym2612"
    },
    {
      "channel": 2,
      "note": 47,
      "start": 67.3418,
      "duration": 0.6514,
      "velocity": 97,
      "chip": "ym2612"
    },
    {
      "channel": 0,
      "note": 49,
      "start": 67.7486,
      "duration": 2.6061,
      "velocity": 117,
      "chip": "ym2612"
    },
    {
      "channel": 1,
      "note": 48,
      "start": 67.7489,
      "duration": 0.6513,
      "velocity": 97,
      "chip": "ym2612"
    },
    {
      "channel": 3,
      "note": 49,
      "start": 67.7493,
      "duration": 2.6061,
      "velocity": 100,
      "chip": "ym2612"
    },
    {
      "channel": 5,
      "note": 49,
      "start": 67.7497,
      "duration": 2.6063,
      "velocity": 100,
      "chip": "ym2612"
    },
    {
      "channel": 2,
      "note": 48,
      "start": 67.9932,
      "duration": 0.6514,
      "velocity": 97,
      "chip": "ym2612"
    },
    {
      "channel": 4,
      "note": 49,
      "start": 68.075,
      "duration": 2.6057,
      "velocity": 100,
      "chip": "ym2612"
    },
    {
      "channel": 1,
      "note": 53,
      "start": 68.4002,
      "duration": 0.6514,
      "velocity": 97,
      "chip": "ym2612"
    },
    {
      "channel": 2,
      "note": 53,
      "start": 68.6447,
      "duration": 0.6515,
      "velocity": 97,
      "chip": "ym2612"
    },
    {
      "channel": 1,
      "note": 52,
      "start": 69.0517,
      "duration": 0.6514,
      "velocity": 97,
      "chip": "ym2612"
    },
    {
      "channel": 2,
      "note": 52,
      "start": 69.2962,
      "duration": 0.6513,
      "velocity": 97,
      "chip": "ym2612"
    },
    {
      "channel": 1,
      "note": 55,
      "start": 69.7031,
      "duration": 0.6518,
      "velocity": 97,
      "chip": "ym2612"
    },
    {
      "channel": 2,
      "note": 55,
      "start": 69.9476,
      "duration": 0.6514,
      "velocity": 97,
      "chip": "ym2612"
    },
    {
      "channel": 0,
      "note": 50,
      "start": 70.3548,
      "duration": 1.9539,
      "velocity": 117,
      "chip": "ym2612"
    },
    {
      "channel": 1,
      "note": 54,
      "start": 70.355,
      "duration": 0.6509,
      "velocity": 97,
      "chip": "ym2612"
    },
    {
      "channel": 3,
      "note": 50,
      "start": 70.3554,
      "duration": 1.9539,
      "velocity": 100,
      "chip": "ym2612"
    },
    {
      "channel": 5,
      "note": 50,
      "start": 70.3561,
      "duration": 1.9536,
      "velocity": 100,
      "chip": "ym2612"
    },
    {
      "channel": 2,
      "note": 54,
      "start": 70.599,
      "duration": 0.6514,
      "velocity": 97,
      "chip": "ym2612"
    },
    {
      "channel": 4,
      "note": 50,
      "start": 70.6808,
      "duration": 1.9543,
      "velocity": 100,
      "chip": "ym2612"
    },
    {
      "channel": 1,
      "note": 59,
      "start": 71.0061,
      "duration": 0.6514,
      "velocity": 97,
      "chip": "ym2612"
    },
    {
      "channel": 2,
      "note": 59,
      "start": 71.2505,
      "duration": 0.6514,
      "velocity": 97,
      "chip": "ym2612"
    },
    {
      "channel": 1,
      "note": 58,
      "start": 71.6575,
      "duration": 5.2116,
      "velocity": 97,
      "chip": "ym2612"
    },
    {
      "channel": 2,
      "note": 58,
      "start": 71.902,
      "duration": 5.2116,
      "velocity": 97,
      "chip": "ym2612"
    },
    {
      "channel": 0,
      "note": 51,
      "start": 72.3088,
      "duration": 9.7718,
      "velocity": 117,
      "chip": "ym2612"
    },
    {
      "channel": 3,
      "note": 51,
      "start": 72.3094,
      "duration": 9.7719,
      "velocity": 100,
      "chip": "ym2612"
    },
    {
      "channel": 5,
      "note": 51,
      "start": 72.3098,
      "duration": 9.7719,
      "velocity": 100,
      "chip": "ym2612"
    },
    {
      "channel": 4,
      "note": 51,
      "start": 72.6351,
      "duration": 9.7718,
      "velocity": 100,
      "chip": "ym2612"
    },
    {
      "channel": 1,
      "note": 59,
      "start": 76.8692,
      "duration": 4.5601,
      "velocity": 97,
      "chip": "ym2612"
    },
    {
      "channel": 2,
      "note": 59,
      "start": 77.1136,
      "duration": 4.5601,
      "velocity": 97,
      "chip": "ym2612"
    },
    {
      "channel": 1,
      "note": 53,
      "start": 81.4293,
      "duration": 0.6515,
      "velocity": 97,
      "chip": "ym2612"
    },
    {
      "channel": 2,
      "note": 53,
      "start": 81.6738,
      "duration": 0.6514,
      "velocity": 97,
      "chip": "ym2612"
    },
    {
      "channel": 0,
      "note": 56,
      "start": 82.0807,
      "duration": 1.9543,
      "velocity": 117,
      "chip": "ym2612"
    },
    {
      "channel": 1,
      "note": 52,
      "start": 82.0809,
      "duration": 0.977,
      "velocity": 97,
      "chip": "ym2612"
    },
    {
      "channel": 3,
      "note": 56,
      "start": 82.0813,
      "duration": 1.9545,
      "velocity": 100,
      "chip": "ym2612"
    },
    {
      "channel": 5,
      "note": 56,
      "start": 82.0817,
      "duration": 1.9545,
      "velocity": 100,
      "chip": "ym2612"
    },
    {
      "channel": 2,
      "note": 52,
      "start": 82.3253,
      "duration": 0.9771,
      "velocity": 97,
      "chip": "ym2612"
    },
    {
      "channel": 4,
      "note": 56,
      "start": 82.407,
      "duration": 1.9543,
      "velocity": 100,
      "chip": "ym2612"
    },
    {
      "channel": 1,
      "note": 48,
      "start": 83.058,
      "duration": 0.3256,
      "velocity": 97,
      "chip": "ym2612"
    },
    {
      "channel": 2,
      "note": 48,
      "start": 83.3024,
      "duration": 0.3257,
      "velocity": 97,
      "chip": "ym2612"
    },
    {
      "channel": 1,
      "note": 51,
      "start": 83.3837,
      "duration": 0.6515,
      "velocity": 97,
      "chip": "ym2612"
    },
    {
      "channel": 2,
      "note": 51,
      "start": 83.6282,
      "duration": 0.6514,
      "velocity": 97,
      "chip": "ym2612"
    },
    {
      "channel": 0,
      "note": 55,
      "start": 84.035,
      "duration": 5.2116,
      "velocity": 117,
      "chip": "ym2612"
    },
    {
      "channel": 1,
      "note": 50,
      "start": 84.0353,
      "duration": 4.56,
      "velocity": 97,
      "chip": "ym2612"
    },
    {
      "channel": 3,
      "note": 55,
      "start": 84.0359,
      "duration": 5.2113,
      "velocity": 100,
      "chip": "ym2612"
    },
    {
      "channel": 5,
      "note": 55,
      "start": 84.0363,
      "duration": 5.2113,
      "velocity": 100,
      "chip": "ym2612"
    },
    {
      "channel": 2,
      "note": 50,
      "start": 84.2796,
      "duration": 4.5601,
      "velocity": 97,
      "chip": "ym2612"
    },
    {
      "channel": 4,
      "note": 55,
      "start": 84.3614,
      "duration": 5.2116,
      "velocity": 100,
      "chip": "ym2612"
    },
    {
      "channel": 1,
      "note": 51,
      "start": 88.5954,
      "duration": 0.6515,
      "velocity": 97,
      "chip": "ym2612"
    },
    {
      "channel": 2,
      "note": 51,
      "start": 88.8398,
      "duration": 0.6514,
      "velocity": 97,
      "chip": "ym2612"
    },
    {
      "channel": 0,
      "note": 54,
      "start": 89.2467,
      "duration": 1.9543,
      "velocity": 117,
      "chip": "ym2612"
    },
    {
      "channel": 1,
      "note": 50,
      "start": 89.2469,
      "duration": 0.977,
      "velocity": 97,
      "chip": "ym2612"
    },
    {
      "channel": 3,
      "note": 54,
      "start": 89.2473,
      "duration": 1.9543,
      "velocity": 100,
      "chip": "ym2612"
    },
    {
      "channel": 5,
      "note": 54,
      "start": 89.2477,
      "duration": 1.9543,
      "velocity": 100,
      "chip": "ym2612"
    },
    {
      "channel": 2,
      "note": 50,
      "start": 89.4913,
      "duration": 0.9771,
      "velocity": 97,
      "chip": "ym2612"
    },
    {
      "channel": 4,
      "note": 54,
      "start": 89.573,
      "duration": 1.9543,
      "velocity": 100,
      "chip": "ym2612"
    },
    {
      "channel": 1,
      "note": 46,
      "start": 90.224,
      "duration": 0.3257,
      "velocity": 97,
      "chip": "ym2612"
    },
    {
      "channel": 2,
      "note": 46,
      "start": 90.4685,
      "duration": 0.3256,
      "velocity": 97,
      "chip": "ym2612"
    },
    {
      "channel": 1,
      "note": 49,
      "start": 90.5497,
      "duration": 0.6515,
      "velocity": 97,
      "chip": "ym2612"
    },
    {
      "channel": 2,
      "note": 49,
      "start": 90.7942,
      "duration": 0.6516,
      "velocity": 97,
      "chip": "ym2612"
    },
    {
      "channel": 0,
      "note": 53,
      "start": 91.201,
      "duration": 5.2119,
      "velocity": 117,
      "chip": "ym2612"
    },
    {
      "channel": 1,
      "note": 48,
      "start": 91.2013,
      "duration": 4.56,
      "velocity": 97,
      "chip": "ym2612"
    },
    {
      "channel": 3,
      "note": 53,
      "start": 91.2017,
      "duration": 5.2119,
      "velocity": 100,
      "chip": "ym2612"
    },
    {
      "channel": 5,
      "note": 53,
      "start": 91.2021,
      "duration": 5.2119,
      "velocity": 100,
      "chip": "ym2612"
    },
    {
      "channel": 2,
      "note": 48,
      "start": 91.4459,
      "duration": 4.5601,
      "velocity": 97,
      "chip": "ym2612"
    },
    {
      "channel": 4,
      "note": 53,
      "start": 91.5274,
      "duration": 5.2116,
      "velocity": 100,
      "chip": "ym2612"
    },
    {
      "channel": 1,
      "note": 47,
      "start": 95.7614,
      "duration": 0.6518,
      "velocity": 97,
      "chip": "ym2612"
    },
    {
      "channel": 2,
      "note": 47,
      "start": 96.0061,
      "duration": 0.6511,
      "velocity": 97,
      "chip": "ym2612"
    },
    {
      "channel": 0,
      "note": 49,
      "start": 96.413,
      "duration": 2.6054,
      "velocity": 117,
      "chip": "ym2612"
    },
    {
      "channel": 1,
      "note": 48,
      "start": 96.4133,
      "duration": 0.6509,
      "velocity": 97,
      "chip": "ym2612"
    },
    {
      "channel": 3,
      "note": 49,
      "start": 96.4137,
      "duration": 2.6054,
      "velocity": 100,
      "chip": "ym2612"
    },
    {
      "channel": 5,
      "note": 49,
      "start": 96.4141,
      "duration": 2.6054,
      "velocity": 100,
      "chip": "ym2612"
    },
    {
      "channel": 2,
      "note": 48,
      "start": 96.6573,
      "duration": 0.6514,
      "velocity": 97,
      "chip": "ym2612"
    },
    {
      "channel": 4,
      "note": 49,
      "start": 96.739,
      "duration": 2.6057,
      "velocity": 100,
      "chip": "ym2612"
    },
    {
      "channel": 1,
      "note": 53,
      "start": 97.0643,
      "duration": 0.6516,
      "velocity": 97,
      "chip": "ym2612"
    },
    {
      "channel": 2,
      "note": 53,
      "start": 97.3087,
      "duration": 0.6514,
      "velocity": 97,
      "chip": "ym2612"
    },
    {
      "channel": 1,
      "note": 52,
      "start": 97.716,
      "duration": 0.6511,
      "velocity": 97,
      "chip": "ym2612"
    },
    {
      "channel": 2,
      "note": 52,
      "start": 97.9602,
      "duration": 0.6514,
      "velocity": 97,
      "chip": "ym2612"
    },
    {
      "channel": 1,
      "note": 55,
      "start": 98.3672,
      "duration": 0.6515,
      "velocity": 97,
      "chip": "ym2612"
    },
    {
      "channel": 2,
      "note": 55,
      "start": 98.6117,
      "duration": 0.6514,
      "velocity": 97,
      "chip": "ym2612"
    },
    {
      "channel": 0,
      "note": 50,
      "start": 99.0185,
      "duration": 2.6057,
      "velocity": 117,
      "chip": "ym2612"
    },
    {
      "channel": 1,
      "note": 54,
      "start": 99.0188,
      "duration": 0.6513,
      "velocity": 97,
      "chip": "ym2612"
    },
    {
      "channel": 3,
      "note": 50,
      "start": 99.0192,
      "duration": 2.6056,
      "velocity": 100,
      "chip": "ym2612"
    },
    {
      "channel": 5,
      "note": 50,
      "start": 99.0196,
      "duration": 2.6056,
      "velocity": 100,
      "chip": "ym2612"
    },
    {
      "channel": 2,
      "note": 54,
      "start": 99.2631,
      "duration": 0.6514,
      "velocity": 97,
      "chip": "ym2612"
    },
    {
      "channel": 4,
      "note": 50,
      "start": 99.3449,
      "duration": 2.6057,
      "velocity": 100,
      "chip": "ym2612"
    },
    {
      "channel": 1,
      "note": 52,
      "start": 99.6701,
      "duration": 0.6514,
      "velocity": 97,
      "chip": "ym2612"
    },
    {
      "channel": 2,
      "note": 52,
      "start": 99.9146,
      "duration": 0.6516,
      "velocity": 97,
      "chip": "ym2612"
    },
    {
      "channel": 1,
      "note": 53,
      "start": 100.3216,
      "duration": 0.6514,
      "velocity": 97,
      "chip": "ym2612"
    },
    {
      "channel": 2,
      "note": 53,
      "start": 100.5662,
      "duration": 0.6512,
      "velocity": 97,
      "chip": "ym2612"
    },
    {
      "channel": 1,
      "note": 54,
      "start": 100.973,
      "duration": 4.5601,
      "velocity": 97,
      "chip": "ym2612"
    },
    {
      "channel": 2,
      "note": 54,
      "start": 101.2175,
      "duration": 4.5601,
      "velocity": 97,
      "chip": "ym2612"
    },
    {
      "channel": 0,
      "note": 51,
      "start": 101.6243,
      "duration": 4.5601,
      "velocity": 117,
      "chip": "ym2612"
    },
    {
      "channel": 3,
      "note": 51,
      "start": 101.6249,
      "duration": 4.5602,
      "velocity": 100,
      "chip": "ym2612"
    },
    {
      "channel": 5,
      "note": 51,
      "start": 101.6253,
      "duration": 4.5605,
      "velocity": 100,
      "chip": "ym2612"
    },
    {
      "channel": 4,
      "note": 51,
      "start": 101.9507,
      "duration": 4.5601,
      "velocity": 100,
      "chip": "ym2612"
    },
    {
      "channel": 1,
      "note": 53,
      "start": 105.5332,
      "duration": 0.6515,
      "velocity": 97,
      "chip": "ym2612"
    },
    {
      "channel": 2,
      "note": 53,
      "start": 105.7777,
      "duration": 0.6514,
      "velocity": 97,
      "chip": "ym2612"
    },
    {
      "channel": 0,
      "note": 56,
      "start": 106.1845,
      "duration": 1.9543,
      "velocity": 117,
      "chip": "ym2612"
    },
    {
      "channel": 1,
      "note": 52,
      "start": 106.1848,
      "duration": 0.977,
      "velocity": 97,
      "chip": "ym2612"
    },
    {
      "channel": 3,
      "note": 56,
      "start": 106.1852,
      "duration": 1.9543,
      "velocity": 100,
      "chip": "ym2612"
    },
    {
      "channel": 5,
      "note": 63,
      "start": 106.186,
      "duration": 1.9539,
      "velocity": 100,
      "chip": "ym2612"
    },
    {
      "channel": 2,
      "note": 52,
      "start": 106.4291,
      "duration": 0.9771,
      "velocity": 97,
      "chip": "ym2612"
    },
    {
      "channel": 4,
      "note": 56,
      "start": 106.5109,
      "duration": 1.9543,
      "velocity": 100,
      "chip": "ym2612"
    },
    {
      "channel": 1,
      "note": 48,
      "start": 107.1619,
      "duration": 0.3256,
      "velocity": 97,
      "chip": "ym2612"
    },
    {
      "channel": 2,
      "note": 48,
      "start": 107.4063,
      "duration": 0.3256,
      "velocity": 97,
      "chip": "ym2612"
    },
    {
      "channel": 1,
      "note": 51,
      "start": 107.4876,
      "duration": 0.6515,
      "velocity": 97,
      "chip": "ym2612"
    },
    {
      "channel": 2,
      "note": 51,
      "start": 107.732,
      "duration": 0.6514,
      "velocity": 97,
      "chip": "ym2612"
    },
    {
      "channel": 0,
      "note": 55,
      "start": 108.1389,
      "duration": 5.2116,
      "velocity": 117,
      "chip": "ym2612"
    },
    {
      "channel": 1,
      "note": 50,
      "start": 108.1391,
      "duration": 4.56,
      "velocity": 97,
      "chip": "ym2612"
    },
    {
      "channel": 3,
      "note": 55,
      "start": 108.1395,
      "duration": 5.2116,
      "velocity": 100,
      "chip": "ym2612"
    },
    {
      "channel": 5,
      "note": 60,
      "start": 108.14,
      "duration": 5.2116,
      "velocity": 100,
      "chip": "ym2612"
    },
    {
      "channel": 2,
      "note": 50,
      "start": 108.3835,
      "duration": 4.5601,
      "velocity": 97,
      "chip": "ym2612"
    },
    {
      "channel": 4,
      "note": 55,
      "start": 108.4652,
      "duration": 5.2116,
      "velocity": 100,
      "chip": "ym2612"
    },
    {
      "channel": 1,
      "note": 51,
      "start": 112.6992,
      "duration": 0.6515,
      "velocity": 97,
      "chip": "ym2612"
    },
    {
      "channel": 2,
      "note": 51,
      "start": 112.9437,
      "duration": 0.6514,
      "velocity": 97,
      "chip": "ym2612"
    },
    {
      "channel": 0,
      "note": 54,
      "start": 113.3505,
      "duration": 1.9543,
      "velocity": 117,
      "chip": "ym2612"
    },
    {
      "channel": 1,
      "note": 50,
      "start": 113.3508,
      "duration": 0.977,
      "velocity": 97,
      "chip": "ym2612"
    },
    {
      "channel": 3,
      "note": 54,
      "start": 113.3512,
      "duration": 1.9543,
      "velocity": 100,
      "chip": "ym2612"
    },
    {
      "channel": 5,
      "note": 59,
      "start": 113.3516,
      "duration": 1.9545,
      "velocity": 100,
      "chip": "ym2612"
    },
    {
      "channel": 2,
      "note": 50,
      "start": 113.5951,
      "duration": 0.9771,
      "velocity": 97,
      "chip": "ym2612"
    },
    {
      "channel": 4,
      "note": 54,
      "start": 113.6769,
      "duration": 1.9543,
      "velocity": 100,
      "chip": "ym2612"
    },
    {
      "channel": 1,
      "note": 46,
      "start": 114.3279,
      "duration": 0.3257,
      "velocity": 97,
      "chip": "ym2612"
    },
    {
      "channel": 2,
      "note": 46,
      "start": 114.5723,
      "duration": 0.3257,
      "velocity": 97,
      "chip": "ym2612"
    },
    {
      "channel": 1,
      "note": 49,
      "start": 114.6536,
      "duration": 0.6515,
      "velocity": 97,
      "chip": "ym2612"
    },
    {
      "channel": 2,
      "note": 49,
      "start": 114.898,
      "duration": 0.6514,
      "velocity": 97,
      "chip": "ym2612"
    },
    {
      "channel": 0,
      "note": 53,
      "start": 115.3049,
      "duration": 5.2116,
      "velocity": 117,
      "chip": "ym2612"
    },
    {
      "channel": 1,
      "note": 48,
      "start": 115.3051,
      "duration": 4.56,
      "velocity": 97,
      "chip": "ym2612"
    },
    {
      "channel": 3,
      "note": 53,
      "start": 115.3058,
      "duration": 5.2113,
      "velocity": 100,
      "chip": "ym2612"
    },
    {
      "channel": 5,
      "note": 58,
      "start": 115.3062,
      "duration": 5.2113,
      "velocity": 100,
      "chip": "ym2612"
    },
    {
      "channel": 2,
      "note": 48,
      "start": 115.5495,
      "duration": 4.5601,
      "velocity": 97,
      "chip": "ym2612"
    },
    {
      "channel": 4,
      "note": 53,
      "start": 115.6312,
      "duration": 5.2116,
      "velocity": 100,
      "chip": "ym2612"
    },
    {
      "channel": 1,
      "note": 47,
      "start": 119.8653,
      "duration": 0.6515,
      "velocity": 97,
      "chip": "ym2612"
    },
    {
      "channel": 2,
      "note": 47,
      "start": 120.1097,
      "duration": 0.6514,
      "velocity": 97,
      "chip": "ym2612"
    },
    {
      "channel": 0,
      "note": 49,
      "start": 120.5166,
      "duration": 2.6057,
      "velocity": 117,
      "chip": "ym2612"
    },
    {
      "channel": 1,
      "note": 48,
      "start": 120.5168,
      "duration": 0.6513,
      "velocity": 97,
      "chip": "ym2612"
    },
    {
      "channel": 3,
      "note": 49,
      "start": 120.5172,
      "duration": 2.6057,
      "velocity": 100,
      "chip": "ym2612"
    },
    {
      "channel": 5,
      "note": 56,
      "start": 120.5176,
      "duration": 2.6057,
      "velocity": 100,
      "chip": "ym2612"
    },
    {
      "channel": 2,
      "note": 48,
      "start": 120.7612,
      "duration": 0.6514,
      "velocity": 97,
      "chip": "ym2612"
    },
    {
      "channel": 4,
      "note": 49,
      "start": 120.8429,
      "duration": 2.6057,
      "velocity": 100,
      "chip": "ym2612"
    },
    {
      "channel": 1,
      "note": 53,
      "start": 121.1682,
      "duration": 0.6514,
      "velocity": 97,
      "chip": "ym2612"
    },
    {
      "channel": 2,
      "note": 53,
      "start": 121.4126,
      "duration": 0.6514,
      "velocity": 97,
      "chip": "ym2612"
    },
    {
      "channel": 1,
      "note": 52,
      "start": 121.8196,
      "duration": 0.6517,
      "velocity": 97,
      "chip": "ym2612"
    },
    {
      "channel": 2,
      "note": 52,
      "start": 122.0641,
      "duration": 0.6514,
      "velocity": 97,
      "chip": "ym2612"
    },
    {
      "channel": 1,
      "note": 55,
      "start": 122.4714,
      "duration": 0.6511,
      "velocity": 97,
      "chip": "ym2612"
    },
    {
      "channel": 2,
      "note": 55,
      "start": 122.7155,
      "duration": 0.6514,
      "velocity": 97,
      "chip": "ym2612"
    },
    {
      "channel": 0,
      "note": 50,
      "start": 123.1224,
      "duration": 1.9543,
      "velocity": 117,
      "chip": "ym2612"
    },
    {
      "channel": 1,
      "note": 54,
      "start": 123.1226,
      "duration": 0.6513,
      "velocity": 97,
      "chip": "ym2612"
    },
    {
      "channel": 3,
      "note": 50,
      "start": 123.123,
      "duration": 1.9542,
      "velocity": 100,
      "chip": "ym2612"
    },
    {
      "channel": 5,
      "note": 57,
      "start": 123.1234,
      "duration": 1.9542,
      "velocity": 100,
      "chip": "ym2612"
    },
    {
      "channel": 2,
      "note": 54,
      "start": 123.367,
      "duration": 0.6514,
      "velocity": 97,
      "chip": "ym2612"
    },
    {
      "channel": 4,
      "note": 50,
      "start": 123.4487,
      "duration": 1.9543,
      "velocity": 100,
      "chip": "ym2612"
    },
    {
      "channel": 1,
      "note": 59,
      "start": 123.774,
      "duration": 0.6514,
      "velocity": 97,
      "chip": "ym2612"
    },
    {
      "channel": 2,
      "note": 59,
      "start": 124.0184,
      "duration": 0.6514,
      "velocity": 97,
      "chip": "ym2612"
    },
    {
      "channel": 1,
      "note": 58,
      "start": 124.4254,
      "duration": 5.2116,
      "velocity": 97,
      "chip": "ym2612"
    },
    {
      "channel": 2,
      "note": 58,
      "start": 124.6699,
      "duration": 5.2116,
      "velocity": 97,
      "chip": "ym2612"
    },
    {
      "channel": 0,
      "note": 51,
      "start": 125.0767,
      "duration": 9.7718,
      "velocity": 117,
      "chip": "ym2612"
    },
    {
      "channel": 3,
      "note": 51,
      "start": 125.0773,
      "duration": 9.7719,
      "velocity": 100,
      "chip": "ym2612"
    },
    {
      "channel": 5,
      "note": 58,
      "start": 125.0777,
      "duration": 9.7719,
      "velocity": 100,
      "chip": "ym2612"
    },
    {
      "channel": 4,
      "note": 51,
      "start": 125.4031,
      "duration": 9.7718,
      "velocity": 100,
      "chip": "ym2612"
    },
    {
      "channel": 1,
      "note": 59,
      "start": 129.6371,
      "duration": 4.5601,
      "velocity": 97,
      "chip": "ym2612"
    },
    {
      "channel": 2,
      "note": 59,
      "start": 129.8815,
      "duration": 4.5601,
      "velocity": 97,
      "chip": "ym2612"
    },
    {
      "channel": 1,
      "note": 53,
      "start": 134.1973,
      "duration": 0.6515,
      "velocity": 97,
      "chip": "ym2612"
    },
    {
      "channel": 2,
      "note": 53,
      "start": 134.4417,
      "duration": 0.6514,
      "velocity": 97,
      "chip": "ym2612"
    },
    {
      "channel": 0,
      "note": 56,
      "start": 134.8486,
      "duration": 1.9543,
      "velocity": 117,
      "chip": "ym2612"
    },
    {
      "channel": 1,
      "note": 52,
      "start": 134.8488,
      "duration": 0.9771,
      "velocity": 97,
      "chip": "ym2612"
    },
    {
      "channel": 3,
      "note": 56,
      "start": 134.8493,
      "duration": 1.9543,
      "velocity": 100,
      "chip": "ym2612"
    },
    {
      "channel": 5,
      "note": 63,
      "start": 134.8497,
      "duration": 1.9543,
      "velocity": 100,
      "chip": "ym2612"
    },
    {
      "channel": 2,
      "note": 52,
      "start": 135.0932,
      "duration": 0.9771,
      "velocity": 97,
      "chip": "ym2612"
    },
    {
      "channel": 4,
      "note": 56,
      "start": 135.1749,
      "duration": 1.9543,
      "velocity": 100,
      "chip": "ym2612"
    },
    {
      "channel": 1,
      "note": 48,
      "start": 135.8261,
      "duration": 0.3255,
      "velocity": 97,
      "chip": "ym2612"
    },
    {
      "channel": 2,
      "note": 48,
      "start": 136.0704,
      "duration": 0.3257,
      "velocity": 97,
      "chip": "ym2612"
    },
    {
      "channel": 1,
      "note": 51,
      "start": 136.1517,
      "duration": 0.6515,
      "velocity": 97,
      "chip": "ym2612"
    },
    {
      "channel": 2,
      "note": 51,
      "start": 136.3962,
      "duration": 0.6513,
      "velocity": 97,
      "chip": "ym2612"
    },
    {
      "channel": 0,
      "note": 55,
      "start": 136.8029,
      "duration": 5.2116,
      "velocity": 117,
      "chip": "ym2612"
    },
    {
      "channel": 1,
      "note": 50,
      "start": 136.8032,
      "duration": 4.56,
      "velocity": 97,
      "chip": "ym2612"
    },
    {
      "channel": 3,
      "note": 55,
      "start": 136.8037,
      "duration": 5.2115,
      "velocity": 100,
      "chip": "ym2612"
    },
    {
      "channel": 5,
      "note": 60,
      "start": 136.8041,
      "duration": 5.2118,
      "velocity": 100,
      "chip": "ym2612"
    },
    {
      "channel": 2,
      "note": 50,
      "start": 137.0476,
      "duration": 4.5601,
      "velocity": 97,
      "chip": "ym2612"
    },
    {
      "channel": 4,
      "note": 55,
      "start": 137.1293,
      "duration": 5.2116,
      "velocity": 100,
      "chip": "ym2612"
    },
    {
      "channel": 1,
      "note": 51,
      "start": 141.3633,
      "duration": 0.6515,
      "velocity": 97,
      "chip": "ym2612"
    },
    {
      "channel": 2,
      "note": 51,
      "start": 141.6078,
      "duration": 0.6514,
      "velocity": 97,
      "chip": "ym2612"
    },
    {
      "channel": 0,
      "note": 54,
      "start": 142.0146,
      "duration": 1.9543,
      "velocity": 117,
      "chip": "ym2612"
    },
    {
      "channel": 1,
      "note": 50,
      "start": 142.0149,
      "duration": 0.977,
      "velocity": 97,
      "chip": "ym2612"
    },
    {
      "channel": 3,
      "note": 54,
      "start": 142.0153,
      "duration": 1.9543,
      "velocity": 100,
      "chip": "ym2612"
    },
    {
      "channel": 5,
      "note": 59,
      "start": 142.0159,
      "duration": 1.954,
      "velocity": 100,
      "chip": "ym2612"
    },
    {
      "channel": 2,
      "note": 50,
      "start": 142.2592,
      "duration": 0.9771,
      "velocity": 97,
      "chip": "ym2612"
    },
    {
      "channel": 4,
      "note": 54,
      "start": 142.341,
      "duration": 1.9543,
      "velocity": 100,
      "chip": "ym2612"
    },
    {
      "channel": 1,
      "note": 46,
      "start": 142.9919,
      "duration": 0.3256,
      "velocity": 97,
      "chip": "ym2612"
    },
    {
      "channel": 2,
      "note": 46,
      "start": 143.2364,
      "duration": 0.3256,
      "velocity": 97,
      "chip": "ym2612"
    },
    {
      "channel": 1,
      "note": 49,
      "start": 143.3177,
      "duration": 0.6515,
      "velocity": 97,
      "chip": "ym2612"
    },
    {
      "channel": 2,
      "note": 49,
      "start": 143.5621,
      "duration": 0.6514,
      "velocity": 97,
      "chip": "ym2612"
    },
    {
      "channel": 0,
      "note": 53,
      "start": 143.969,
      "duration": 5.2116,
      "velocity": 117,
      "chip": "ym2612"
    },
    {
      "channel": 1,
      "note": 48,
      "start": 143.9692,
      "duration": 4.5603,
      "velocity": 97,
      "chip": "ym2612"
    },
    {
      "channel": 3,
      "note": 53,
      "start": 143.9696,
      "duration": 5.2116,
      "velocity": 100,
      "chip": "ym2612"
    },
    {
      "channel": 5,
      "note": 58,
      "start": 143.9701,
      "duration": 5.2115,
      "velocity": 100,
      "chip": "ym2612"
    },
    {
      "channel": 2,
      "note": 48,
      "start": 144.2136,
      "duration": 4.5601,
      "velocity": 97,
      "chip": "ym2612"
    },
    {
      "channel": 4,
      "note": 53,
      "start": 144.2953,
      "duration": 5.2116,
      "velocity": 100,
      "chip": "ym2612"
    },
    {
      "channel": 1,
      "note": 47,
      "start": 148.5297,
      "duration": 0.6511,
      "velocity": 97,
      "chip": "ym2612"
    },
    {
      "channel": 2,
      "note": 47,
      "start": 148.7738,
      "duration": 0.6514,
      "velocity": 97,
      "chip": "ym2612"
    },
    {
      "channel": 0,
      "note": 49,
      "start": 149.1806,
      "duration": 2.6057,
      "velocity": 117,
      "chip": "ym2612"
    },
    {
      "channel": 1,
      "note": 48,
      "start": 149.1809,
      "duration": 0.6513,
      "velocity": 97,
      "chip": "ym2612"
    },
    {
      "channel": 3,
      "note": 49,
      "start": 149.1813,
      "duration": 2.6058,
      "velocity": 100,
      "chip": "ym2612"
    },
    {
      "channel": 5,
      "note": 56,
      "start": 149.1817,
      "duration": 2.6058,
      "velocity": 100,
      "chip": "ym2612"
    },
    {
      "channel": 2,
      "note": 48,
      "start": 149.4252,
      "duration": 0.6514,
      "velocity": 97,
      "chip": "ym2612"
    },
    {
      "channel": 4,
      "note": 49,
      "start": 149.507,
      "duration": 2.6057,
      "velocity": 100,
      "chip": "ym2612"
    },
    {
      "channel": 1,
      "note": 53,
      "start": 149.8322,
      "duration": 0.6514,
      "velocity": 97,
      "chip": "ym2612"
    },
    {
      "channel": 2,
      "note": 53,
      "start": 150.0767,
      "duration": 0.6514,
      "velocity": 97,
      "chip": "ym2612"
    },
    {
      "channel": 1,
      "note": 52,
      "start": 150.4837,
      "duration": 0.6514,
      "velocity": 97,
      "chip": "ym2612"
    },
    {
      "channel": 2,
      "note": 52,
      "start": 150.7281,
      "duration": 0.6514,
      "velocity": 97,
      "chip": "ym2612"
    },
    {
      "channel": 1,
      "note": 55,
      "start": 151.1351,
      "duration": 0.6515,
      "velocity": 97,
      "chip": "ym2612"
    },
    {
      "channel": 2,
      "note": 55,
      "start": 151.3796,
      "duration": 0.6514,
      "velocity": 97,
      "chip": "ym2612"
    },
    {
      "channel": 0,
      "note": 50,
      "start": 151.7864,
      "duration": 2.6057,
      "velocity": 117,
      "chip": "ym2612"
    },
    {
      "channel": 1,
      "note": 54,
      "start": 151.7867,
      "duration": 0.6512,
      "velocity": 97,
      "chip": "ym2612"
    },
    {
      "channel": 3,
      "note": 50,
      "start": 151.7871,
      "duration": 2.6056,
      "velocity": 100,
      "chip": "ym2612"
    },
    {
      "channel": 5,
      "note": 57,
      "start": 151.7876,
      "duration": 2.6056,
      "velocity": 100,
      "chip": "ym2612"
    },
    {
      "channel": 2,
      "note": 54,
      "start": 152.031,
      "duration": 0.6514,
      "velocity": 97,
      "chip": "ym2612"
    },
    {
      "channel": 4,
      "note": 50,
      "start": 152.1128,
      "duration": 2.6057,
      "velocity": 100,
      "chip": "ym2612"
    },
    {
      "channel": 1,
      "note": 52,
      "start": 152.438,
      "duration": 0.6514,
      "velocity": 97,
      "chip": "ym2612"
    },
    {
      "channel": 2,
      "note": 52,
      "start": 152.6825,
      "duration": 0.6514,
      "velocity": 97,
      "chip": "ym2612"
    },
    {
      "channel": 1,
      "note": 53,
      "start": 153.0895,
      "duration": 0.6514,
      "velocity": 97,
      "chip": "ym2612"
    },
    {
      "channel": 2,
      "note": 53,
      "start": 153.3339,
      "duration": 0.6514,
      "velocity": 97,
      "chip": "ym2612"
    },
    {
      "channel": 1,
      "note": 54,
      "start": 153.741,
      "duration": 4.5601,
      "velocity": 97,
      "chip": "ym2612"
    },
    {
      "channel": 2,
      "note": 54,
      "start": 153.9854,
      "duration": 4.5601,
      "velocity": 97,
      "chip": "ym2612"
    },
    {
      "channel": 0,
      "note": 51,
      "start": 154.3923,
      "duration": 4.5601,
      "velocity": 117,
      "chip": "ym2612"
    },
    {
      "channel": 3,
      "note": 51,
      "start": 154.3928,
      "duration": 4.5602,
      "velocity": 100,
      "chip": "ym2612"
    },
    {
      "channel": 5,
      "note": 58,
      "start": 154.3932,
      "duration": 4.5603,
      "velocity": 100,
      "chip": "ym2612"
    },
    {
      "channel": 4,
      "note": 51,
      "start": 154.7186,
      "duration": 4.2349,
      "velocity": 100,
      "chip": "ym2612"
    },
    {
      "channel": 1,
      "note": 53,
      "start": 158.3012,
      "duration": 0.6515,
      "velocity": 97,
      "chip": "ym2612"
    },
    {
      "channel": 2,
      "note": 53,
      "start": 158.5459,
      "duration": 0.4077,
      "velocity": 97,
      "chip": "ym2612"
    },
    {
      "channel": 0,
      "note": 56,
      "start": 158.9525,
      "duration": 0.0011,
      "velocity": 117,
      "chip": "ym2612"
    },
    {
      "channel": 1,
      "note": 52,
      "start": 158.9527,
      "duration": 0.0008,
      "velocity": 97,
      "chip": "ym2612"
    },
    {
      "channel": 3,
      "note": 56,
      "start": 158.9532,
      "duration": 0.0004,
      "velocity": 100,
      "chip": "ym2612"
    }
  ]
}